<?xml version="1.0" encoding="utf-8" standalone="no"?>
<!DOCTYPE svg PUBLIC "-//W3C//DTD SVG 1.1//EN"
  "http://www.w3.org/Graphics/SVG/1.1/DTD/svg11.dtd">
<svg xmlns:xlink="http://www.w3.org/1999/xlink" width="460.8pt" height="345.6pt" viewBox="0 0 460.8 345.6" xmlns="http://www.w3.org/2000/svg" version="1.1">
 <metadata>
  <rdf:RDF xmlns:dc="http://purl.org/dc/elements/1.1/" xmlns:cc="http://creativecommons.org/ns#" xmlns:rdf="http://www.w3.org/1999/02/22-rdf-syntax-ns#">
   <cc:Work>
    <dc:type rdf:resource="http://purl.org/dc/dcmitype/StillImage"/>
    <dc:date>2022-03-21T12:43:56.231245</dc:date>
    <dc:format>image/svg+xml</dc:format>
    <dc:creator>
     <cc:Agent>
      <dc:title>Matplotlib v3.5.1, https://matplotlib.org/</dc:title>
     </cc:Agent>
    </dc:creator>
   </cc:Work>
  </rdf:RDF>
 </metadata>
 <defs>
  <style type="text/css">*{stroke-linejoin: round; stroke-linecap: butt}</style>
 </defs>
 <g id="figure_1">
  <g id="patch_1">
   <path d="M 0 345.6 
L 460.8 345.6 
L 460.8 0 
L 0 0 
z
" style="fill: #ffffff"/>
  </g>
  <g id="axes_1">
   <g id="patch_2">
    <path d="M 57.6 298.944 
L 360.8064 298.944 
L 360.8064 27.648 
L 57.6 27.648 
z
" style="fill: #ffffff"/>
   </g>
   <g id="line2d_1">
    <path d="M 124.441262 298.944 
L 124.441262 293.624471 
L 130.186674 293.624471 
L 130.186674 288.304941 
L 132.812362 288.304941 
L 132.812362 282.985412 
L 144.593695 282.985412 
L 144.593695 277.665882 
L 149.609197 277.665882 
L 149.609197 272.346353 
L 152.236493 272.346353 
L 152.236493 267.026824 
L 153.74742 267.026824 
L 153.74742 261.707294 
L 165.737026 261.707294 
L 165.737026 256.387765 
L 166.041872 256.387765 
L 166.041872 251.068235 
L 166.229739 251.068235 
L 166.229739 245.748706 
L 166.376665 245.748706 
L 166.376665 240.429176 
L 166.495114 240.429176 
L 166.495114 235.109647 
L 166.591344 235.109647 
L 166.591344 229.790118 
L 166.682808 229.790118 
L 166.682808 224.470588 
L 166.758217 224.470588 
L 166.758217 219.151059 
L 166.83191 219.151059 
L 166.83191 213.831529 
L 166.89686 213.831529 
L 166.89686 208.512 
L 166.957372 208.512 
L 166.957372 203.192471 
L 167.012088 203.192471 
L 167.012088 197.872941 
L 167.062453 197.872941 
L 167.062453 192.553412 
L 167.10711 192.553412 
L 167.10711 187.233882 
L 167.141924 187.233882 
L 167.141924 181.914353 
L 167.18778 181.914353 
L 167.18778 176.594824 
L 167.22106 176.594824 
L 167.22106 171.275294 
L 167.259813 171.275294 
L 167.259813 165.955765 
L 167.321927 165.955765 
L 167.321927 160.636235 
L 167.357722 160.636235 
L 167.357722 155.316706 
L 167.398939 155.316706 
L 167.398939 149.997176 
L 167.434588 149.997176 
L 167.434588 144.677647 
L 167.479737 144.677647 
L 167.479737 139.358118 
L 167.519325 139.358118 
L 167.519325 134.038588 
L 167.554746 134.038588 
L 167.554746 128.719059 
L 167.583307 128.719059 
L 167.583307 123.399529 
L 167.617252 123.399529 
L 167.617252 118.08 
L 167.649782 118.08 
L 167.649782 112.760471 
L 167.674142 112.760471 
L 167.674142 107.440941 
L 167.703873 107.440941 
L 167.703873 102.121412 
L 167.733557 102.121412 
L 167.733557 96.801882 
L 167.765886 96.801882 
L 167.765886 91.482353 
L 167.796816 91.482353 
L 167.796816 86.162824 
L 167.823671 86.162824 
L 167.823671 80.843294 
L 167.855845 80.843294 
L 167.855845 75.523765 
L 167.886628 75.523765 
L 167.886628 70.204235 
L 167.917361 70.204235 
L 167.917361 64.884706 
L 167.950708 64.884706 
L 167.950708 59.565176 
L 167.986658 59.565176 
L 167.986658 54.245647 
L 168.015899 54.245647 
L 168.015899 48.926118 
L 168.047747 48.926118 
L 168.047747 43.606588 
L 168.080865 43.606588 
L 168.080865 38.287059 
L 168.112603 38.287059 
L 168.112603 32.967529 
L 168.146926 32.967529 
L 168.146926 27.648 
L 360.8064 27.648 
" style="fill: none; stroke: #f5deb3; stroke-width: 4; stroke-linecap: square"/>
   </g>
   <g id="line2d_2">
    <defs>
     <path id="m0bc3023cb8" d="M -0 7.778175 
L 7.778175 0 
L 0 -7.778175 
L -7.778175 -0 
z
" style="stroke: #f5deb3; stroke-width: 1.5; stroke-linejoin: miter"/>
    </defs>
    <g>
     <use xlink:href="#m0bc3023cb8" x="166.83191" y="219.151059" style="fill: #f5deb3; stroke: #f5deb3; stroke-width: 1.5; stroke-linejoin: miter"/>
     <use xlink:href="#m0bc3023cb8" x="167.617252" y="118.08" style="fill: #f5deb3; stroke: #f5deb3; stroke-width: 1.5; stroke-linejoin: miter"/>
     <use xlink:href="#m0bc3023cb8" x="168.146926" y="27.648" style="fill: #f5deb3; stroke: #f5deb3; stroke-width: 1.5; stroke-linejoin: miter"/>
     <use xlink:href="#m0bc3023cb8" x="168.146926" y="27.648" style="fill: #f5deb3; stroke: #f5deb3; stroke-width: 1.5; stroke-linejoin: miter"/>
     <use xlink:href="#m0bc3023cb8" x="360.8064" y="27.648" style="fill: #f5deb3; stroke: #f5deb3; stroke-width: 1.5; stroke-linejoin: miter"/>
    </g>
   </g>
   <g id="line2d_3">
    <path style="fill: none; stroke: #f5deb3; stroke-width: 4; stroke-linecap: square"/>
    <g/>
   </g>
   <g id="line2d_4">
    <path d="M 360.8064 27.648 
L 380.514816 33.07392 
" style="fill: none; stroke: #f5deb3; stroke-width: 4; stroke-linecap: square"/>
    <g>
     <use xlink:href="#m0bc3023cb8" x="360.8064" y="27.648" style="fill: #f5deb3; stroke: #f5deb3; stroke-width: 1.5; stroke-linejoin: miter"/>
     <use xlink:href="#m0bc3023cb8" x="380.514816" y="33.07392" style="fill: #f5deb3; stroke: #f5deb3; stroke-width: 1.5; stroke-linejoin: miter"/>
    </g>
   </g>
   <g id="matplotlib.axis_1">
    <g id="xtick_1">
     <g id="line2d_5">
      <path d="M 57.6 298.944 
L 57.6 27.648 
" clip-path="url(#p1a0dd34b8e)" style="fill: none; stroke: #b0b0b0; stroke-width: 0.8; stroke-linecap: square"/>
     </g>
     <g id="line2d_6">
      <defs>
       <path id="mfe987663de" d="M 0 0 
L 0 3.5 
" style="stroke: #000000; stroke-width: 0.8"/>
      </defs>
      <g>
       <use xlink:href="#mfe987663de" x="57.6" y="298.944" style="stroke: #000000; stroke-width: 0.8"/>
      </g>
     </g>
     <g id="text_1">
      <!-- 0 -->
      <g transform="translate(52.191875 318.861344)scale(0.17 -0.17)">
       <defs>
        <path id="DejaVuSans-30" d="M 2034 4250 
Q 1547 4250 1301 3770 
Q 1056 3291 1056 2328 
Q 1056 1369 1301 889 
Q 1547 409 2034 409 
Q 2525 409 2770 889 
Q 3016 1369 3016 2328 
Q 3016 3291 2770 3770 
Q 2525 4250 2034 4250 
z
M 2034 4750 
Q 2819 4750 3233 4129 
Q 3647 3509 3647 2328 
Q 3647 1150 3233 529 
Q 2819 -91 2034 -91 
Q 1250 -91 836 529 
Q 422 1150 422 2328 
Q 422 3509 836 4129 
Q 1250 4750 2034 4750 
z
" transform="scale(0.015625)"/>
       </defs>
       <use xlink:href="#DejaVuSans-30"/>
      </g>
     </g>
    </g>
    <g id="xtick_2">
     <g id="line2d_7">
      <path d="M 144.2304 298.944 
L 144.2304 27.648 
" clip-path="url(#p1a0dd34b8e)" style="fill: none; stroke: #b0b0b0; stroke-width: 0.8; stroke-linecap: square"/>
     </g>
     <g id="line2d_8">
      <g>
       <use xlink:href="#mfe987663de" x="144.2304" y="298.944" style="stroke: #000000; stroke-width: 0.8"/>
      </g>
     </g>
     <g id="text_2">
      <!-- 2 -->
      <g transform="translate(138.822275 318.861344)scale(0.17 -0.17)">
       <defs>
        <path id="DejaVuSans-32" d="M 1228 531 
L 3431 531 
L 3431 0 
L 469 0 
L 469 531 
Q 828 903 1448 1529 
Q 2069 2156 2228 2338 
Q 2531 2678 2651 2914 
Q 2772 3150 2772 3378 
Q 2772 3750 2511 3984 
Q 2250 4219 1831 4219 
Q 1534 4219 1204 4116 
Q 875 4013 500 3803 
L 500 4441 
Q 881 4594 1212 4672 
Q 1544 4750 1819 4750 
Q 2544 4750 2975 4387 
Q 3406 4025 3406 3419 
Q 3406 3131 3298 2873 
Q 3191 2616 2906 2266 
Q 2828 2175 2409 1742 
Q 1991 1309 1228 531 
z
" transform="scale(0.015625)"/>
       </defs>
       <use xlink:href="#DejaVuSans-32"/>
      </g>
     </g>
    </g>
    <g id="xtick_3">
     <g id="line2d_9">
      <path d="M 230.8608 298.944 
L 230.8608 27.648 
" clip-path="url(#p1a0dd34b8e)" style="fill: none; stroke: #b0b0b0; stroke-width: 0.8; stroke-linecap: square"/>
     </g>
     <g id="line2d_10">
      <g>
       <use xlink:href="#mfe987663de" x="230.8608" y="298.944" style="stroke: #000000; stroke-width: 0.8"/>
      </g>
     </g>
     <g id="text_3">
      <!-- 4 -->
      <g transform="translate(225.452675 318.861344)scale(0.17 -0.17)">
       <defs>
        <path id="DejaVuSans-34" d="M 2419 4116 
L 825 1625 
L 2419 1625 
L 2419 4116 
z
M 2253 4666 
L 3047 4666 
L 3047 1625 
L 3713 1625 
L 3713 1100 
L 3047 1100 
L 3047 0 
L 2419 0 
L 2419 1100 
L 313 1100 
L 313 1709 
L 2253 4666 
z
" transform="scale(0.015625)"/>
       </defs>
       <use xlink:href="#DejaVuSans-34"/>
      </g>
     </g>
    </g>
    <g id="xtick_4">
     <g id="line2d_11">
      <path d="M 317.4912 298.944 
L 317.4912 27.648 
" clip-path="url(#p1a0dd34b8e)" style="fill: none; stroke: #b0b0b0; stroke-width: 0.8; stroke-linecap: square"/>
     </g>
     <g id="line2d_12">
      <g>
       <use xlink:href="#mfe987663de" x="317.4912" y="298.944" style="stroke: #000000; stroke-width: 0.8"/>
      </g>
     </g>
     <g id="text_4">
      <!-- 6 -->
      <g transform="translate(312.083075 318.861344)scale(0.17 -0.17)">
       <defs>
        <path id="DejaVuSans-36" d="M 2113 2584 
Q 1688 2584 1439 2293 
Q 1191 2003 1191 1497 
Q 1191 994 1439 701 
Q 1688 409 2113 409 
Q 2538 409 2786 701 
Q 3034 994 3034 1497 
Q 3034 2003 2786 2293 
Q 2538 2584 2113 2584 
z
M 3366 4563 
L 3366 3988 
Q 3128 4100 2886 4159 
Q 2644 4219 2406 4219 
Q 1781 4219 1451 3797 
Q 1122 3375 1075 2522 
Q 1259 2794 1537 2939 
Q 1816 3084 2150 3084 
Q 2853 3084 3261 2657 
Q 3669 2231 3669 1497 
Q 3669 778 3244 343 
Q 2819 -91 2113 -91 
Q 1303 -91 875 529 
Q 447 1150 447 2328 
Q 447 3434 972 4092 
Q 1497 4750 2381 4750 
Q 2619 4750 2861 4703 
Q 3103 4656 3366 4563 
z
" transform="scale(0.015625)"/>
       </defs>
       <use xlink:href="#DejaVuSans-36"/>
      </g>
     </g>
    </g>
    <g id="xtick_5">
     <g id="line2d_13">
      <path d="M 100.9152 298.944 
L 100.9152 27.648 
" clip-path="url(#p1a0dd34b8e)" style="fill: none; stroke: #b0b0b0; stroke-width: 0.8; stroke-linecap: square"/>
     </g>
     <g id="line2d_14">
      <defs>
       <path id="m4e22b0e9d8" d="M 0 0 
L 0 2 
" style="stroke: #000000; stroke-width: 0.6"/>
      </defs>
      <g>
       <use xlink:href="#m4e22b0e9d8" x="100.9152" y="298.944" style="stroke: #000000; stroke-width: 0.6"/>
      </g>
     </g>
    </g>
    <g id="xtick_6">
     <g id="line2d_15">
      <path d="M 187.5456 298.944 
L 187.5456 27.648 
" clip-path="url(#p1a0dd34b8e)" style="fill: none; stroke: #b0b0b0; stroke-width: 0.8; stroke-linecap: square"/>
     </g>
     <g id="line2d_16">
      <g>
       <use xlink:href="#m4e22b0e9d8" x="187.5456" y="298.944" style="stroke: #000000; stroke-width: 0.6"/>
      </g>
     </g>
    </g>
    <g id="xtick_7">
     <g id="line2d_17">
      <path d="M 274.176 298.944 
L 274.176 27.648 
" clip-path="url(#p1a0dd34b8e)" style="fill: none; stroke: #b0b0b0; stroke-width: 0.8; stroke-linecap: square"/>
     </g>
     <g id="line2d_18">
      <g>
       <use xlink:href="#m4e22b0e9d8" x="274.176" y="298.944" style="stroke: #000000; stroke-width: 0.6"/>
      </g>
     </g>
    </g>
    <g id="xtick_8">
     <g id="line2d_19">
      <path d="M 360.8064 298.944 
L 360.8064 27.648 
" clip-path="url(#p1a0dd34b8e)" style="fill: none; stroke: #b0b0b0; stroke-width: 0.8; stroke-linecap: square"/>
     </g>
     <g id="line2d_20">
      <g>
       <use xlink:href="#m4e22b0e9d8" x="360.8064" y="298.944" style="stroke: #000000; stroke-width: 0.6"/>
      </g>
     </g>
    </g>
    <g id="text_5">
     <!-- log10(# f-evals / dimension) -->
     <g transform="translate(88.823278 339.314156)scale(0.17 -0.17)">
      <defs>
       <path id="DejaVuSans-6c" d="M 603 4863 
L 1178 4863 
L 1178 0 
L 603 0 
L 603 4863 
z
" transform="scale(0.015625)"/>
       <path id="DejaVuSans-6f" d="M 1959 3097 
Q 1497 3097 1228 2736 
Q 959 2375 959 1747 
Q 959 1119 1226 758 
Q 1494 397 1959 397 
Q 2419 397 2687 759 
Q 2956 1122 2956 1747 
Q 2956 2369 2687 2733 
Q 2419 3097 1959 3097 
z
M 1959 3584 
Q 2709 3584 3137 3096 
Q 3566 2609 3566 1747 
Q 3566 888 3137 398 
Q 2709 -91 1959 -91 
Q 1206 -91 779 398 
Q 353 888 353 1747 
Q 353 2609 779 3096 
Q 1206 3584 1959 3584 
z
" transform="scale(0.015625)"/>
       <path id="DejaVuSans-67" d="M 2906 1791 
Q 2906 2416 2648 2759 
Q 2391 3103 1925 3103 
Q 1463 3103 1205 2759 
Q 947 2416 947 1791 
Q 947 1169 1205 825 
Q 1463 481 1925 481 
Q 2391 481 2648 825 
Q 2906 1169 2906 1791 
z
M 3481 434 
Q 3481 -459 3084 -895 
Q 2688 -1331 1869 -1331 
Q 1566 -1331 1297 -1286 
Q 1028 -1241 775 -1147 
L 775 -588 
Q 1028 -725 1275 -790 
Q 1522 -856 1778 -856 
Q 2344 -856 2625 -561 
Q 2906 -266 2906 331 
L 2906 616 
Q 2728 306 2450 153 
Q 2172 0 1784 0 
Q 1141 0 747 490 
Q 353 981 353 1791 
Q 353 2603 747 3093 
Q 1141 3584 1784 3584 
Q 2172 3584 2450 3431 
Q 2728 3278 2906 2969 
L 2906 3500 
L 3481 3500 
L 3481 434 
z
" transform="scale(0.015625)"/>
       <path id="DejaVuSans-31" d="M 794 531 
L 1825 531 
L 1825 4091 
L 703 3866 
L 703 4441 
L 1819 4666 
L 2450 4666 
L 2450 531 
L 3481 531 
L 3481 0 
L 794 0 
L 794 531 
z
" transform="scale(0.015625)"/>
       <path id="DejaVuSans-28" d="M 1984 4856 
Q 1566 4138 1362 3434 
Q 1159 2731 1159 2009 
Q 1159 1288 1364 580 
Q 1569 -128 1984 -844 
L 1484 -844 
Q 1016 -109 783 600 
Q 550 1309 550 2009 
Q 550 2706 781 3412 
Q 1013 4119 1484 4856 
L 1984 4856 
z
" transform="scale(0.015625)"/>
       <path id="DejaVuSans-23" d="M 3272 2816 
L 2363 2816 
L 2100 1772 
L 3016 1772 
L 3272 2816 
z
M 2803 4594 
L 2478 3297 
L 3391 3297 
L 3719 4594 
L 4219 4594 
L 3897 3297 
L 4872 3297 
L 4872 2816 
L 3775 2816 
L 3519 1772 
L 4513 1772 
L 4513 1294 
L 3397 1294 
L 3072 0 
L 2572 0 
L 2894 1294 
L 1978 1294 
L 1656 0 
L 1153 0 
L 1478 1294 
L 494 1294 
L 494 1772 
L 1594 1772 
L 1856 2816 
L 850 2816 
L 850 3297 
L 1978 3297 
L 2297 4594 
L 2803 4594 
z
" transform="scale(0.015625)"/>
       <path id="DejaVuSans-20" transform="scale(0.015625)"/>
       <path id="DejaVuSans-66" d="M 2375 4863 
L 2375 4384 
L 1825 4384 
Q 1516 4384 1395 4259 
Q 1275 4134 1275 3809 
L 1275 3500 
L 2222 3500 
L 2222 3053 
L 1275 3053 
L 1275 0 
L 697 0 
L 697 3053 
L 147 3053 
L 147 3500 
L 697 3500 
L 697 3744 
Q 697 4328 969 4595 
Q 1241 4863 1831 4863 
L 2375 4863 
z
" transform="scale(0.015625)"/>
       <path id="DejaVuSans-2d" d="M 313 2009 
L 1997 2009 
L 1997 1497 
L 313 1497 
L 313 2009 
z
" transform="scale(0.015625)"/>
       <path id="DejaVuSans-65" d="M 3597 1894 
L 3597 1613 
L 953 1613 
Q 991 1019 1311 708 
Q 1631 397 2203 397 
Q 2534 397 2845 478 
Q 3156 559 3463 722 
L 3463 178 
Q 3153 47 2828 -22 
Q 2503 -91 2169 -91 
Q 1331 -91 842 396 
Q 353 884 353 1716 
Q 353 2575 817 3079 
Q 1281 3584 2069 3584 
Q 2775 3584 3186 3129 
Q 3597 2675 3597 1894 
z
M 3022 2063 
Q 3016 2534 2758 2815 
Q 2500 3097 2075 3097 
Q 1594 3097 1305 2825 
Q 1016 2553 972 2059 
L 3022 2063 
z
" transform="scale(0.015625)"/>
       <path id="DejaVuSans-76" d="M 191 3500 
L 800 3500 
L 1894 563 
L 2988 3500 
L 3597 3500 
L 2284 0 
L 1503 0 
L 191 3500 
z
" transform="scale(0.015625)"/>
       <path id="DejaVuSans-61" d="M 2194 1759 
Q 1497 1759 1228 1600 
Q 959 1441 959 1056 
Q 959 750 1161 570 
Q 1363 391 1709 391 
Q 2188 391 2477 730 
Q 2766 1069 2766 1631 
L 2766 1759 
L 2194 1759 
z
M 3341 1997 
L 3341 0 
L 2766 0 
L 2766 531 
Q 2569 213 2275 61 
Q 1981 -91 1556 -91 
Q 1019 -91 701 211 
Q 384 513 384 1019 
Q 384 1609 779 1909 
Q 1175 2209 1959 2209 
L 2766 2209 
L 2766 2266 
Q 2766 2663 2505 2880 
Q 2244 3097 1772 3097 
Q 1472 3097 1187 3025 
Q 903 2953 641 2809 
L 641 3341 
Q 956 3463 1253 3523 
Q 1550 3584 1831 3584 
Q 2591 3584 2966 3190 
Q 3341 2797 3341 1997 
z
" transform="scale(0.015625)"/>
       <path id="DejaVuSans-73" d="M 2834 3397 
L 2834 2853 
Q 2591 2978 2328 3040 
Q 2066 3103 1784 3103 
Q 1356 3103 1142 2972 
Q 928 2841 928 2578 
Q 928 2378 1081 2264 
Q 1234 2150 1697 2047 
L 1894 2003 
Q 2506 1872 2764 1633 
Q 3022 1394 3022 966 
Q 3022 478 2636 193 
Q 2250 -91 1575 -91 
Q 1294 -91 989 -36 
Q 684 19 347 128 
L 347 722 
Q 666 556 975 473 
Q 1284 391 1588 391 
Q 1994 391 2212 530 
Q 2431 669 2431 922 
Q 2431 1156 2273 1281 
Q 2116 1406 1581 1522 
L 1381 1569 
Q 847 1681 609 1914 
Q 372 2147 372 2553 
Q 372 3047 722 3315 
Q 1072 3584 1716 3584 
Q 2034 3584 2315 3537 
Q 2597 3491 2834 3397 
z
" transform="scale(0.015625)"/>
       <path id="DejaVuSans-2f" d="M 1625 4666 
L 2156 4666 
L 531 -594 
L 0 -594 
L 1625 4666 
z
" transform="scale(0.015625)"/>
       <path id="DejaVuSans-64" d="M 2906 2969 
L 2906 4863 
L 3481 4863 
L 3481 0 
L 2906 0 
L 2906 525 
Q 2725 213 2448 61 
Q 2172 -91 1784 -91 
Q 1150 -91 751 415 
Q 353 922 353 1747 
Q 353 2572 751 3078 
Q 1150 3584 1784 3584 
Q 2172 3584 2448 3432 
Q 2725 3281 2906 2969 
z
M 947 1747 
Q 947 1113 1208 752 
Q 1469 391 1925 391 
Q 2381 391 2643 752 
Q 2906 1113 2906 1747 
Q 2906 2381 2643 2742 
Q 2381 3103 1925 3103 
Q 1469 3103 1208 2742 
Q 947 2381 947 1747 
z
" transform="scale(0.015625)"/>
       <path id="DejaVuSans-69" d="M 603 3500 
L 1178 3500 
L 1178 0 
L 603 0 
L 603 3500 
z
M 603 4863 
L 1178 4863 
L 1178 4134 
L 603 4134 
L 603 4863 
z
" transform="scale(0.015625)"/>
       <path id="DejaVuSans-6d" d="M 3328 2828 
Q 3544 3216 3844 3400 
Q 4144 3584 4550 3584 
Q 5097 3584 5394 3201 
Q 5691 2819 5691 2113 
L 5691 0 
L 5113 0 
L 5113 2094 
Q 5113 2597 4934 2840 
Q 4756 3084 4391 3084 
Q 3944 3084 3684 2787 
Q 3425 2491 3425 1978 
L 3425 0 
L 2847 0 
L 2847 2094 
Q 2847 2600 2669 2842 
Q 2491 3084 2119 3084 
Q 1678 3084 1418 2786 
Q 1159 2488 1159 1978 
L 1159 0 
L 581 0 
L 581 3500 
L 1159 3500 
L 1159 2956 
Q 1356 3278 1631 3431 
Q 1906 3584 2284 3584 
Q 2666 3584 2933 3390 
Q 3200 3197 3328 2828 
z
" transform="scale(0.015625)"/>
       <path id="DejaVuSans-6e" d="M 3513 2113 
L 3513 0 
L 2938 0 
L 2938 2094 
Q 2938 2591 2744 2837 
Q 2550 3084 2163 3084 
Q 1697 3084 1428 2787 
Q 1159 2491 1159 1978 
L 1159 0 
L 581 0 
L 581 3500 
L 1159 3500 
L 1159 2956 
Q 1366 3272 1645 3428 
Q 1925 3584 2291 3584 
Q 2894 3584 3203 3211 
Q 3513 2838 3513 2113 
z
" transform="scale(0.015625)"/>
       <path id="DejaVuSans-29" d="M 513 4856 
L 1013 4856 
Q 1481 4119 1714 3412 
Q 1947 2706 1947 2009 
Q 1947 1309 1714 600 
Q 1481 -109 1013 -844 
L 513 -844 
Q 928 -128 1133 580 
Q 1338 1288 1338 2009 
Q 1338 2731 1133 3434 
Q 928 4138 513 4856 
z
" transform="scale(0.015625)"/>
      </defs>
      <use xlink:href="#DejaVuSans-6c"/>
      <use xlink:href="#DejaVuSans-6f" x="27.783203"/>
      <use xlink:href="#DejaVuSans-67" x="88.964844"/>
      <use xlink:href="#DejaVuSans-31" x="152.441406"/>
      <use xlink:href="#DejaVuSans-30" x="216.064453"/>
      <use xlink:href="#DejaVuSans-28" x="279.6875"/>
      <use xlink:href="#DejaVuSans-23" x="318.701172"/>
      <use xlink:href="#DejaVuSans-20" x="402.490234"/>
      <use xlink:href="#DejaVuSans-66" x="434.277344"/>
      <use xlink:href="#DejaVuSans-2d" x="463.982422"/>
      <use xlink:href="#DejaVuSans-65" x="500.066406"/>
      <use xlink:href="#DejaVuSans-76" x="561.589844"/>
      <use xlink:href="#DejaVuSans-61" x="620.769531"/>
      <use xlink:href="#DejaVuSans-6c" x="682.048828"/>
      <use xlink:href="#DejaVuSans-73" x="709.832031"/>
      <use xlink:href="#DejaVuSans-20" x="761.931641"/>
      <use xlink:href="#DejaVuSans-2f" x="793.71875"/>
      <use xlink:href="#DejaVuSans-20" x="827.410156"/>
      <use xlink:href="#DejaVuSans-64" x="859.197266"/>
      <use xlink:href="#DejaVuSans-69" x="922.673828"/>
      <use xlink:href="#DejaVuSans-6d" x="950.457031"/>
      <use xlink:href="#DejaVuSans-65" x="1047.869141"/>
      <use xlink:href="#DejaVuSans-6e" x="1109.392578"/>
      <use xlink:href="#DejaVuSans-73" x="1172.771484"/>
      <use xlink:href="#DejaVuSans-69" x="1224.871094"/>
      <use xlink:href="#DejaVuSans-6f" x="1252.654297"/>
      <use xlink:href="#DejaVuSans-6e" x="1313.835938"/>
      <use xlink:href="#DejaVuSans-29" x="1377.214844"/>
     </g>
    </g>
   </g>
   <g id="matplotlib.axis_2">
    <g id="ytick_1">
     <g id="line2d_21">
      <path d="M 57.6 298.944 
L 360.8064 298.944 
" clip-path="url(#p1a0dd34b8e)" style="fill: none; stroke: #b0b0b0; stroke-width: 0.8; stroke-linecap: square"/>
     </g>
     <g id="line2d_22">
      <defs>
       <path id="m4dfb5b0bd2" d="M 0 0 
L -3.5 0 
" style="stroke: #000000; stroke-width: 0.8"/>
      </defs>
      <g>
       <use xlink:href="#m4dfb5b0bd2" x="57.6" y="298.944" style="stroke: #000000; stroke-width: 0.8"/>
      </g>
     </g>
     <g id="text_6">
      <!-- 0.0 -->
      <g transform="translate(25.155 305.02275)scale(0.16 -0.16)">
       <defs>
        <path id="DejaVuSans-2e" d="M 684 794 
L 1344 794 
L 1344 0 
L 684 0 
L 684 794 
z
" transform="scale(0.015625)"/>
       </defs>
       <use xlink:href="#DejaVuSans-30"/>
       <use xlink:href="#DejaVuSans-2e" x="63.623047"/>
       <use xlink:href="#DejaVuSans-30" x="95.410156"/>
      </g>
     </g>
    </g>
    <g id="ytick_2">
     <g id="line2d_23">
      <path d="M 57.6 244.6848 
L 360.8064 244.6848 
" clip-path="url(#p1a0dd34b8e)" style="fill: none; stroke: #b0b0b0; stroke-width: 0.8; stroke-linecap: square"/>
     </g>
     <g id="line2d_24">
      <g>
       <use xlink:href="#m4dfb5b0bd2" x="57.6" y="244.6848" style="stroke: #000000; stroke-width: 0.8"/>
      </g>
     </g>
     <g id="text_7">
      <!-- 0.2 -->
      <g transform="translate(25.155 250.76355)scale(0.16 -0.16)">
       <use xlink:href="#DejaVuSans-30"/>
       <use xlink:href="#DejaVuSans-2e" x="63.623047"/>
       <use xlink:href="#DejaVuSans-32" x="95.410156"/>
      </g>
     </g>
    </g>
    <g id="ytick_3">
     <g id="line2d_25">
      <path d="M 57.6 190.4256 
L 360.8064 190.4256 
" clip-path="url(#p1a0dd34b8e)" style="fill: none; stroke: #b0b0b0; stroke-width: 0.8; stroke-linecap: square"/>
     </g>
     <g id="line2d_26">
      <g>
       <use xlink:href="#m4dfb5b0bd2" x="57.6" y="190.4256" style="stroke: #000000; stroke-width: 0.8"/>
      </g>
     </g>
     <g id="text_8">
      <!-- 0.4 -->
      <g transform="translate(25.155 196.50435)scale(0.16 -0.16)">
       <use xlink:href="#DejaVuSans-30"/>
       <use xlink:href="#DejaVuSans-2e" x="63.623047"/>
       <use xlink:href="#DejaVuSans-34" x="95.410156"/>
      </g>
     </g>
    </g>
    <g id="ytick_4">
     <g id="line2d_27">
      <path d="M 57.6 136.1664 
L 360.8064 136.1664 
" clip-path="url(#p1a0dd34b8e)" style="fill: none; stroke: #b0b0b0; stroke-width: 0.8; stroke-linecap: square"/>
     </g>
     <g id="line2d_28">
      <g>
       <use xlink:href="#m4dfb5b0bd2" x="57.6" y="136.1664" style="stroke: #000000; stroke-width: 0.8"/>
      </g>
     </g>
     <g id="text_9">
      <!-- 0.6 -->
      <g transform="translate(25.155 142.24515)scale(0.16 -0.16)">
       <use xlink:href="#DejaVuSans-30"/>
       <use xlink:href="#DejaVuSans-2e" x="63.623047"/>
       <use xlink:href="#DejaVuSans-36" x="95.410156"/>
      </g>
     </g>
    </g>
    <g id="ytick_5">
     <g id="line2d_29">
      <path d="M 57.6 81.9072 
L 360.8064 81.9072 
" clip-path="url(#p1a0dd34b8e)" style="fill: none; stroke: #b0b0b0; stroke-width: 0.8; stroke-linecap: square"/>
     </g>
     <g id="line2d_30">
      <g>
       <use xlink:href="#m4dfb5b0bd2" x="57.6" y="81.9072" style="stroke: #000000; stroke-width: 0.8"/>
      </g>
     </g>
     <g id="text_10">
      <!-- 0.8 -->
      <g transform="translate(25.155 87.98595)scale(0.16 -0.16)">
       <defs>
        <path id="DejaVuSans-38" d="M 2034 2216 
Q 1584 2216 1326 1975 
Q 1069 1734 1069 1313 
Q 1069 891 1326 650 
Q 1584 409 2034 409 
Q 2484 409 2743 651 
Q 3003 894 3003 1313 
Q 3003 1734 2745 1975 
Q 2488 2216 2034 2216 
z
M 1403 2484 
Q 997 2584 770 2862 
Q 544 3141 544 3541 
Q 544 4100 942 4425 
Q 1341 4750 2034 4750 
Q 2731 4750 3128 4425 
Q 3525 4100 3525 3541 
Q 3525 3141 3298 2862 
Q 3072 2584 2669 2484 
Q 3125 2378 3379 2068 
Q 3634 1759 3634 1313 
Q 3634 634 3220 271 
Q 2806 -91 2034 -91 
Q 1263 -91 848 271 
Q 434 634 434 1313 
Q 434 1759 690 2068 
Q 947 2378 1403 2484 
z
M 1172 3481 
Q 1172 3119 1398 2916 
Q 1625 2713 2034 2713 
Q 2441 2713 2670 2916 
Q 2900 3119 2900 3481 
Q 2900 3844 2670 4047 
Q 2441 4250 2034 4250 
Q 1625 4250 1398 4047 
Q 1172 3844 1172 3481 
z
" transform="scale(0.015625)"/>
       </defs>
       <use xlink:href="#DejaVuSans-30"/>
       <use xlink:href="#DejaVuSans-2e" x="63.623047"/>
       <use xlink:href="#DejaVuSans-38" x="95.410156"/>
      </g>
     </g>
    </g>
    <g id="ytick_6">
     <g id="line2d_31">
      <path d="M 57.6 27.648 
L 360.8064 27.648 
" clip-path="url(#p1a0dd34b8e)" style="fill: none; stroke: #b0b0b0; stroke-width: 0.8; stroke-linecap: square"/>
     </g>
     <g id="line2d_32">
      <g>
       <use xlink:href="#m4dfb5b0bd2" x="57.6" y="27.648" style="stroke: #000000; stroke-width: 0.8"/>
      </g>
     </g>
     <g id="text_11">
      <!-- 1.0 -->
      <g transform="translate(25.155 33.72675)scale(0.16 -0.16)">
       <use xlink:href="#DejaVuSans-31"/>
       <use xlink:href="#DejaVuSans-2e" x="63.623047"/>
       <use xlink:href="#DejaVuSans-30" x="95.410156"/>
      </g>
     </g>
    </g>
    <g id="text_12">
     <!-- Fraction of function,target pairs -->
     <g transform="translate(17.619531 297.681)rotate(-90)scale(0.17 -0.17)">
      <defs>
       <path id="DejaVuSans-46" d="M 628 4666 
L 3309 4666 
L 3309 4134 
L 1259 4134 
L 1259 2759 
L 3109 2759 
L 3109 2228 
L 1259 2228 
L 1259 0 
L 628 0 
L 628 4666 
z
" transform="scale(0.015625)"/>
       <path id="DejaVuSans-72" d="M 2631 2963 
Q 2534 3019 2420 3045 
Q 2306 3072 2169 3072 
Q 1681 3072 1420 2755 
Q 1159 2438 1159 1844 
L 1159 0 
L 581 0 
L 581 3500 
L 1159 3500 
L 1159 2956 
Q 1341 3275 1631 3429 
Q 1922 3584 2338 3584 
Q 2397 3584 2469 3576 
Q 2541 3569 2628 3553 
L 2631 2963 
z
" transform="scale(0.015625)"/>
       <path id="DejaVuSans-63" d="M 3122 3366 
L 3122 2828 
Q 2878 2963 2633 3030 
Q 2388 3097 2138 3097 
Q 1578 3097 1268 2742 
Q 959 2388 959 1747 
Q 959 1106 1268 751 
Q 1578 397 2138 397 
Q 2388 397 2633 464 
Q 2878 531 3122 666 
L 3122 134 
Q 2881 22 2623 -34 
Q 2366 -91 2075 -91 
Q 1284 -91 818 406 
Q 353 903 353 1747 
Q 353 2603 823 3093 
Q 1294 3584 2113 3584 
Q 2378 3584 2631 3529 
Q 2884 3475 3122 3366 
z
" transform="scale(0.015625)"/>
       <path id="DejaVuSans-74" d="M 1172 4494 
L 1172 3500 
L 2356 3500 
L 2356 3053 
L 1172 3053 
L 1172 1153 
Q 1172 725 1289 603 
Q 1406 481 1766 481 
L 2356 481 
L 2356 0 
L 1766 0 
Q 1100 0 847 248 
Q 594 497 594 1153 
L 594 3053 
L 172 3053 
L 172 3500 
L 594 3500 
L 594 4494 
L 1172 4494 
z
" transform="scale(0.015625)"/>
       <path id="DejaVuSans-75" d="M 544 1381 
L 544 3500 
L 1119 3500 
L 1119 1403 
Q 1119 906 1312 657 
Q 1506 409 1894 409 
Q 2359 409 2629 706 
Q 2900 1003 2900 1516 
L 2900 3500 
L 3475 3500 
L 3475 0 
L 2900 0 
L 2900 538 
Q 2691 219 2414 64 
Q 2138 -91 1772 -91 
Q 1169 -91 856 284 
Q 544 659 544 1381 
z
M 1991 3584 
L 1991 3584 
z
" transform="scale(0.015625)"/>
       <path id="DejaVuSans-2c" d="M 750 794 
L 1409 794 
L 1409 256 
L 897 -744 
L 494 -744 
L 750 256 
L 750 794 
z
" transform="scale(0.015625)"/>
       <path id="DejaVuSans-70" d="M 1159 525 
L 1159 -1331 
L 581 -1331 
L 581 3500 
L 1159 3500 
L 1159 2969 
Q 1341 3281 1617 3432 
Q 1894 3584 2278 3584 
Q 2916 3584 3314 3078 
Q 3713 2572 3713 1747 
Q 3713 922 3314 415 
Q 2916 -91 2278 -91 
Q 1894 -91 1617 61 
Q 1341 213 1159 525 
z
M 3116 1747 
Q 3116 2381 2855 2742 
Q 2594 3103 2138 3103 
Q 1681 3103 1420 2742 
Q 1159 2381 1159 1747 
Q 1159 1113 1420 752 
Q 1681 391 2138 391 
Q 2594 391 2855 752 
Q 3116 1113 3116 1747 
z
" transform="scale(0.015625)"/>
      </defs>
      <use xlink:href="#DejaVuSans-46"/>
      <use xlink:href="#DejaVuSans-72" x="50.269531"/>
      <use xlink:href="#DejaVuSans-61" x="91.382812"/>
      <use xlink:href="#DejaVuSans-63" x="152.662109"/>
      <use xlink:href="#DejaVuSans-74" x="207.642578"/>
      <use xlink:href="#DejaVuSans-69" x="246.851562"/>
      <use xlink:href="#DejaVuSans-6f" x="274.634766"/>
      <use xlink:href="#DejaVuSans-6e" x="335.816406"/>
      <use xlink:href="#DejaVuSans-20" x="399.195312"/>
      <use xlink:href="#DejaVuSans-6f" x="430.982422"/>
      <use xlink:href="#DejaVuSans-66" x="492.164062"/>
      <use xlink:href="#DejaVuSans-20" x="527.369141"/>
      <use xlink:href="#DejaVuSans-66" x="559.15625"/>
      <use xlink:href="#DejaVuSans-75" x="594.361328"/>
      <use xlink:href="#DejaVuSans-6e" x="657.740234"/>
      <use xlink:href="#DejaVuSans-63" x="721.119141"/>
      <use xlink:href="#DejaVuSans-74" x="776.099609"/>
      <use xlink:href="#DejaVuSans-69" x="815.308594"/>
      <use xlink:href="#DejaVuSans-6f" x="843.091797"/>
      <use xlink:href="#DejaVuSans-6e" x="904.273438"/>
      <use xlink:href="#DejaVuSans-2c" x="967.652344"/>
      <use xlink:href="#DejaVuSans-74" x="999.439453"/>
      <use xlink:href="#DejaVuSans-61" x="1038.648438"/>
      <use xlink:href="#DejaVuSans-72" x="1099.927734"/>
      <use xlink:href="#DejaVuSans-67" x="1139.291016"/>
      <use xlink:href="#DejaVuSans-65" x="1202.767578"/>
      <use xlink:href="#DejaVuSans-74" x="1264.291016"/>
      <use xlink:href="#DejaVuSans-20" x="1303.5"/>
      <use xlink:href="#DejaVuSans-70" x="1335.287109"/>
      <use xlink:href="#DejaVuSans-61" x="1398.763672"/>
      <use xlink:href="#DejaVuSans-69" x="1460.042969"/>
      <use xlink:href="#DejaVuSans-72" x="1487.826172"/>
      <use xlink:href="#DejaVuSans-73" x="1528.939453"/>
     </g>
    </g>
   </g>
   <g id="line2d_33">
    <defs>
     <path id="mf5f24d53be" d="M 0 1.5 
C 0.397805 1.5 0.77937 1.341951 1.06066 1.06066 
C 1.341951 0.77937 1.5 0.397805 1.5 0 
C 1.5 -0.397805 1.341951 -0.77937 1.06066 -1.06066 
C 0.77937 -1.341951 0.397805 -1.5 0 -1.5 
C -0.397805 -1.5 -0.77937 -1.341951 -1.06066 -1.06066 
C -1.341951 -0.77937 -1.5 -0.397805 -1.5 0 
C -1.5 0.397805 -1.341951 0.77937 -1.06066 1.06066 
C -0.77937 1.341951 -0.397805 1.5 0 1.5 
z
" style="stroke: #f5deb3"/>
    </defs>
    <g>
     <use xlink:href="#mf5f24d53be" x="168.146926" y="27.648" style="fill: #f5deb3; stroke: #f5deb3"/>
     <use xlink:href="#mf5f24d53be" x="168.146926" y="27.648" style="fill: #f5deb3; stroke: #f5deb3"/>
    </g>
   </g>
   <g id="line2d_34">
    <defs>
     <path id="m0ca0c1b422" d="M 0 1.5 
C 0.397805 1.5 0.77937 1.341951 1.06066 1.06066 
C 1.341951 0.77937 1.5 0.397805 1.5 0 
C 1.5 -0.397805 1.341951 -0.77937 1.06066 -1.06066 
C 0.77937 -1.341951 0.397805 -1.5 0 -1.5 
C -0.397805 -1.5 -0.77937 -1.341951 -1.06066 -1.06066 
C -1.341951 -0.77937 -1.5 -0.397805 -1.5 0 
C -1.5 0.397805 -1.341951 0.77937 -1.06066 1.06066 
C -0.77937 1.341951 -0.397805 1.5 0 1.5 
z
" style="stroke: #000080"/>
    </defs>
    <g>
     <use xlink:href="#m0ca0c1b422" x="197.199366" y="27.648" style="fill: #000080; stroke: #000080"/>
     <use xlink:href="#m0ca0c1b422" x="197.199366" y="27.648" style="fill: #000080; stroke: #000080"/>
    </g>
   </g>
   <g id="line2d_35">
    <path d="M 119.944983 298.944 
L 119.944983 298.412047 
L 121.597472 298.412047 
L 121.597472 297.880094 
L 122.971409 297.880094 
L 122.971409 297.348141 
L 123.202939 297.348141 
L 123.202939 296.816188 
L 124.292554 296.816188 
L 124.387322 295.752282 
L 124.814573 295.752282 
L 124.814573 295.220329 
L 125.867062 295.220329 
L 125.867062 294.865694 
L 126.792607 294.865694 
L 126.828223 293.801788 
L 127.087372 293.801788 
L 127.087372 293.269835 
L 127.446581 293.269835 
L 127.446581 292.737882 
L 128.122923 292.737882 
L 128.122923 292.028612 
L 128.299248 292.028612 
L 128.299248 291.319341 
L 129.135932 291.319341 
L 129.135932 291.142024 
L 130.305359 291.142024 
L 130.364422 290.255435 
L 131.096932 290.255435 
L 131.12527 289.368847 
L 132.305093 289.368847 
L 132.340519 288.659576 
L 132.682477 288.659576 
L 132.682477 288.127624 
L 132.975605 288.127624 
L 132.975605 287.595671 
L 133.238946 287.595671 
L 133.238946 287.063718 
L 133.991343 287.063718 
L 133.991343 286.8864 
L 134.620977 286.8864 
L 134.620977 286.531765 
L 135.63559 286.531765 
L 135.63559 286.177129 
L 135.92302 286.177129 
L 135.92302 285.999812 
L 136.170066 285.999812 
L 136.177283 285.645176 
L 136.392521 285.645176 
L 136.392521 285.113224 
L 137.567761 285.113224 
L 137.567761 284.935906 
L 137.919637 284.935906 
L 137.919637 284.758588 
L 138.899994 284.758588 
L 138.899994 284.226635 
L 139.64668 284.226635 
L 139.64668 284.049318 
L 140.097277 284.049318 
L 140.097277 283.872 
L 140.877618 283.872 
L 140.877618 283.694682 
L 141.453245 283.694682 
L 141.453245 283.517365 
L 141.910969 283.517365 
L 141.910969 283.340047 
L 143.036385 283.340047 
L 143.036385 283.162729 
L 143.230809 283.162729 
L 143.230809 282.985412 
L 171.276888 282.985412 
L 171.276888 282.453459 
L 171.725999 282.453459 
L 171.725999 281.921506 
L 171.966523 281.921506 
L 171.966523 281.389553 
L 172.164637 281.389553 
L 172.164637 281.034918 
L 172.399652 281.034918 
L 172.399652 280.502965 
L 172.696084 280.502965 
L 172.696084 279.971012 
L 172.823033 279.971012 
L 172.823033 279.793694 
L 173.445235 279.793694 
L 173.520716 278.907106 
L 173.91986 278.907106 
L 173.91986 278.729788 
L 174.479129 278.729788 
L 174.479129 278.197835 
L 175.230657 278.197835 
L 175.230657 277.665882 
L 181.655657 277.665882 
L 181.655657 277.133929 
L 181.915633 277.133929 
L 181.915633 276.779294 
L 182.660046 276.779294 
L 182.660046 276.247341 
L 182.919228 276.247341 
L 182.919228 275.715388 
L 183.149952 275.715388 
L 183.164204 275.006118 
L 183.267804 275.006118 
L 183.267804 274.474165 
L 183.506563 274.474165 
L 183.506563 274.119529 
L 183.74233 274.119529 
L 183.74233 273.764894 
L 183.861688 273.764894 
L 183.861688 273.587576 
L 184.038185 273.587576 
L 184.038185 273.055624 
L 184.493899 273.055624 
L 184.493899 272.700988 
L 184.938833 272.700988 
L 184.938833 272.523671 
L 185.373487 272.523671 
L 185.373487 272.346353 
L 186.553447 272.346353 
L 186.553447 271.8144 
L 186.754146 271.8144 
L 186.754146 271.459765 
L 186.95127 271.459765 
L 186.952726 270.750494 
L 187.147792 270.750494 
L 187.147792 270.573176 
L 187.342281 270.573176 
L 187.354162 269.863906 
L 187.687094 269.863906 
L 187.72533 269.154635 
L 187.876114 269.154635 
L 187.925494 268.8 
L 188.248551 268.8 
L 188.296964 267.913412 
L 188.440114 267.913412 
L 188.440114 267.558776 
L 188.621753 267.558776 
L 188.621753 267.381459 
L 188.793735 267.381459 
L 188.793735 267.204141 
L 188.945396 267.204141 
L 188.979853 266.494871 
L 189.122244 266.494871 
L 189.122244 266.317553 
L 189.297444 266.317553 
L 189.386356 265.608282 
L 189.559125 265.608282 
L 189.559125 265.430965 
L 189.730322 265.430965 
L 189.744971 264.721694 
L 190.018282 264.721694 
L 190.018282 264.189741 
L 190.185369 264.189741 
L 190.185369 264.012424 
L 190.315299 264.012424 
L 190.350985 263.125835 
L 190.47978 263.125835 
L 190.515156 262.7712 
L 190.625676 262.7712 
L 190.642836 262.061929 
L 190.787477 262.061929 
L 190.826229 261.175341 
L 190.947898 261.175341 
L 190.986322 260.288753 
L 191.106963 260.288753 
L 191.186187 258.515576 
L 191.302477 258.515576 
L 191.343258 257.097035 
L 191.458584 257.097035 
L 191.458584 256.7424 
L 191.701469 256.7424 
L 191.770346 255.678494 
L 191.854313 255.678494 
L 191.922634 253.728 
L 192.044471 253.728 
L 192.104357 252.132141 
L 192.187584 252.132141 
L 192.223926 250.7136 
L 192.336545 250.7136 
L 192.385695 249.295059 
L 192.484335 249.295059 
L 192.588216 246.812612 
L 192.675422 246.812612 
L 192.759018 244.6848 
L 192.820584 244.6848 
L 192.922631 242.202353 
L 192.984721 242.202353 
L 193.06871 239.719906 
L 193.144295 239.719906 
L 193.156165 237.592094 
L 193.27168 237.592094 
L 193.358199 235.818918 
L 193.408542 235.818918 
L 193.453256 232.804518 
L 193.548176 232.804518 
L 193.650781 227.839624 
L 193.697636 227.839624 
L 193.80314 223.406682 
L 193.82673 223.406682 
L 193.899 220.5696 
L 193.939886 220.5696 
L 194.035054 216.845929 
L 194.061348 216.845929 
L 194.145974 213.122259 
L 194.177073 213.122259 
L 194.280917 207.270776 
L 194.288805 207.270776 
L 194.39563 200.710024 
L 194.41196 200.710024 
L 194.52166 193.794635 
L 194.52523 193.794635 
L 194.633628 186.524612 
L 194.650076 186.524612 
L 194.749103 178.899953 
L 194.762887 178.899953 
L 194.872477 166.665035 
L 194.879166 166.665035 
L 194.988715 154.607435 
L 194.995363 154.607435 
L 195.092909 142.904471 
L 195.107701 142.904471 
L 195.218435 129.960282 
L 195.220624 129.960282 
L 195.331629 117.016094 
L 195.333183 117.016094 
L 195.440437 104.071906 
L 195.445073 104.071906 
L 195.555687 93.432847 
L 195.558145 93.432847 
L 195.66596 80.843294 
L 195.671151 80.843294 
L 195.77893 66.8352 
L 195.789856 66.8352 
L 195.898466 56.196141 
L 195.902086 56.196141 
L 196.009753 48.571482 
L 196.013351 48.571482 
L 196.123962 42.542682 
L 196.125154 42.542682 
L 196.234222 37.577788 
L 196.238667 37.577788 
L 196.329104 33.6768 
L 196.354443 33.6768 
L 196.448722 30.6624 
L 196.477996 30.6624 
L 196.567584 29.243859 
L 196.592604 29.243859 
L 196.617591 28.889224 
L 196.735394 28.889224 
L 196.735394 28.357271 
L 196.852465 28.357271 
L 196.91973 28.002635 
L 196.989603 28.002635 
L 196.989603 27.825318 
L 197.199366 27.825318 
L 197.199366 27.648 
L 360.8064 27.648 
L 360.8064 27.648 
" style="fill: none; stroke: #000080; stroke-width: 1.5; stroke-linecap: square"/>
   </g>
   <g id="line2d_36">
    <defs>
     <path id="mca4b0313f4" d="M 0 6 
C 1.591219 6 3.117479 5.367802 4.242641 4.242641 
C 5.367802 3.117479 6 1.591219 6 0 
C 6 -1.591219 5.367802 -3.117479 4.242641 -4.242641 
C 3.117479 -5.367802 1.591219 -6 0 -6 
C -1.591219 -6 -3.117479 -5.367802 -4.242641 -4.242641 
C -5.367802 -3.117479 -6 -1.591219 -6 0 
C -6 1.591219 -5.367802 3.117479 -4.242641 4.242641 
C -3.117479 5.367802 -1.591219 6 0 6 
z
" style="stroke: #000080; stroke-width: 1.5"/>
    </defs>
    <g>
     <use xlink:href="#mca4b0313f4" x="171.276888" y="282.453459" style="fill-opacity: 0; stroke: #000080; stroke-width: 1.5"/>
     <use xlink:href="#mca4b0313f4" x="195.274337" y="122.690259" style="fill-opacity: 0; stroke: #000080; stroke-width: 1.5"/>
     <use xlink:href="#mca4b0313f4" x="197.199366" y="27.825318" style="fill-opacity: 0; stroke: #000080; stroke-width: 1.5"/>
     <use xlink:href="#mca4b0313f4" x="197.199366" y="27.648" style="fill-opacity: 0; stroke: #000080; stroke-width: 1.5"/>
     <use xlink:href="#mca4b0313f4" x="360.8064" y="27.648" style="fill-opacity: 0; stroke: #000080; stroke-width: 1.5"/>
    </g>
   </g>
   <g id="line2d_37">
    <path style="fill: none; stroke: #000080; stroke-width: 1.5; stroke-linecap: square"/>
    <g/>
   </g>
   <g id="line2d_38">
    <path d="M 101.241555 298.944 
" clip-path="url(#p1a0dd34b8e)" style="fill: none; stroke: #000080; stroke-width: 1.5; stroke-linecap: square"/>
    <defs>
     <path id="m853652086a" d="M -12 12 
L 12 -12 
M -12 -12 
L 12 12 
" style="stroke: #000080"/>
    </defs>
    <g clip-path="url(#p1a0dd34b8e)">
     <use xlink:href="#m853652086a" x="101.241555" y="298.944" style="fill: #000080; stroke: #000080"/>
    </g>
   </g>
   <g id="line2d_39">
    <defs>
     <path id="m4c11ff5ab9" d="M 0 1.5 
C 0.397805 1.5 0.77937 1.341951 1.06066 1.06066 
C 1.341951 0.77937 1.5 0.397805 1.5 0 
C 1.5 -0.397805 1.341951 -0.77937 1.06066 -1.06066 
C 0.77937 -1.341951 0.397805 -1.5 0 -1.5 
C -0.397805 -1.5 -0.77937 -1.341951 -1.06066 -1.06066 
C -1.341951 -0.77937 -1.5 -0.397805 -1.5 0 
C -1.5 0.397805 -1.341951 0.77937 -1.06066 1.06066 
C -0.77937 1.341951 -0.397805 1.5 0 1.5 
z
" style="stroke: #ff00ff"/>
    </defs>
    <g>
     <use xlink:href="#m4c11ff5ab9" x="196.242222" y="27.648" style="fill: #ff00ff; stroke: #ff00ff"/>
     <use xlink:href="#m4c11ff5ab9" x="196.242222" y="27.648" style="fill: #ff00ff; stroke: #ff00ff"/>
    </g>
   </g>
   <g id="line2d_40">
    <path d="M 119.301345 298.944 
L 119.371999 296.816188 
L 121.815489 296.816188 
L 121.815489 295.752282 
L 122.061597 295.752282 
L 122.092135 293.624471 
L 122.544357 293.624471 
L 122.544357 292.560565 
L 124.346766 292.560565 
L 124.346766 291.496659 
L 124.695386 291.496659 
L 124.695386 290.432753 
L 128.15611 290.432753 
L 128.15611 289.368847 
L 130.501519 289.368847 
L 130.501519 288.304941 
L 131.011661 288.304941 
L 131.011661 287.241035 
L 132.135899 287.241035 
L 132.135899 286.177129 
L 143.807116 286.177129 
L 143.807116 285.113224 
L 145.264312 285.113224 
L 145.264312 284.049318 
L 147.824037 284.049318 
L 147.824037 282.985412 
L 171.313705 282.985412 
L 171.313705 281.921506 
L 171.941747 281.921506 
L 171.941747 280.8576 
L 174.164733 280.8576 
L 174.211608 278.729788 
L 174.809656 278.729788 
L 174.809656 277.665882 
L 181.815773 277.665882 
L 181.815773 276.601976 
L 182.205827 276.601976 
L 182.205827 275.538071 
L 183.365551 275.538071 
L 183.381988 273.410259 
L 183.553139 273.410259 
L 183.553139 272.346353 
L 186.541545 272.346353 
L 186.541545 271.282447 
L 186.670576 271.282447 
L 186.670576 270.218541 
L 187.499927 270.218541 
L 187.499927 269.154635 
L 187.672151 269.154635 
L 187.672151 268.090729 
L 187.807599 268.090729 
L 187.807599 267.026824 
L 188.964595 267.026824 
L 188.964595 265.962918 
L 189.239512 265.962918 
L 189.239512 264.899012 
L 189.833047 264.899012 
L 189.920711 262.7712 
L 190.120681 262.7712 
L 190.120681 261.707294 
L 190.357871 261.707294 
L 190.357871 260.643388 
L 190.517565 260.643388 
L 190.517565 259.579482 
L 191.193549 259.579482 
L 191.291304 255.323859 
L 191.487209 255.323859 
L 191.487209 254.259953 
L 191.790997 254.259953 
L 191.87151 252.132141 
L 192.030396 252.132141 
L 192.139018 248.940424 
L 192.282879 248.940424 
L 192.378057 246.812612 
L 192.544281 246.812612 
L 192.607271 243.620894 
L 192.66432 243.620894 
L 192.66432 242.556988 
L 192.801744 242.556988 
L 192.897879 240.429176 
L 192.925104 240.429176 
L 193.009007 236.173553 
L 193.180579 236.173553 
L 193.224446 232.981835 
L 193.306335 232.981835 
L 193.368899 228.726212 
L 193.466649 228.726212 
L 193.546467 225.534494 
L 193.585056 225.534494 
L 193.661316 221.278871 
L 193.72339 221.278871 
L 193.808198 217.023247 
L 193.866429 217.023247 
L 193.94658 211.703718 
L 193.978011 211.703718 
L 194.081295 205.320282 
L 194.09292 205.320282 
L 194.154581 202.128565 
L 194.206141 202.128565 
L 194.313763 194.681224 
L 194.322294 194.681224 
L 194.410981 187.233882 
L 194.435125 187.233882 
L 194.541449 177.658729 
L 194.548256 177.658729 
L 194.653944 169.147482 
L 194.662966 169.147482 
L 194.763528 158.508424 
L 194.796183 158.508424 
L 194.904307 145.741553 
L 194.915753 145.741553 
L 195.01877 134.038588 
L 195.033937 134.038588 
L 195.138823 120.207812 
L 195.146987 120.207812 
L 195.254681 106.377035 
L 195.259051 106.377035 
L 195.365486 91.482353 
L 195.373553 91.482353 
L 195.459592 78.715482 
L 195.495377 78.715482 
L 195.600793 69.140329 
L 195.608147 69.140329 
L 195.711412 58.501271 
L 195.734553 58.501271 
L 195.841365 47.862212 
L 195.848021 47.862212 
L 195.952387 40.414871 
L 195.962311 40.414871 
L 196.042711 34.031435 
L 196.083082 34.031435 
L 196.17189 29.775812 
L 196.200707 29.775812 
L 196.242222 27.648 
L 360.8064 27.648 
L 360.8064 27.648 
" style="fill: none; stroke: #ff00ff; stroke-width: 1.5; stroke-linecap: square"/>
   </g>
   <g id="line2d_41">
    <defs>
     <path id="m37b478b023" d="M -0 8.485281 
L 5.091169 0 
L 0 -8.485281 
L -5.091169 -0 
z
" style="stroke: #ff00ff; stroke-width: 1.5; stroke-linejoin: miter"/>
    </defs>
    <g>
     <use xlink:href="#m37b478b023" x="193.368899" y="228.726212" style="fill-opacity: 0; stroke: #ff00ff; stroke-width: 1.5; stroke-linejoin: miter"/>
     <use xlink:href="#m37b478b023" x="195.711412" y="59.565176" style="fill-opacity: 0; stroke: #ff00ff; stroke-width: 1.5; stroke-linejoin: miter"/>
     <use xlink:href="#m37b478b023" x="196.242222" y="27.648" style="fill-opacity: 0; stroke: #ff00ff; stroke-width: 1.5; stroke-linejoin: miter"/>
     <use xlink:href="#m37b478b023" x="196.242222" y="27.648" style="fill-opacity: 0; stroke: #ff00ff; stroke-width: 1.5; stroke-linejoin: miter"/>
     <use xlink:href="#m37b478b023" x="360.8064" y="27.648" style="fill-opacity: 0; stroke: #ff00ff; stroke-width: 1.5; stroke-linejoin: miter"/>
    </g>
   </g>
   <g id="line2d_42">
    <path style="fill: none; stroke: #ff00ff; stroke-width: 1.5; stroke-linecap: square"/>
    <g/>
   </g>
   <g id="line2d_43">
    <defs>
     <path id="m21003c905d" d="M 0 1.5 
C 0.397805 1.5 0.77937 1.341951 1.06066 1.06066 
C 1.341951 0.77937 1.5 0.397805 1.5 0 
C 1.5 -0.397805 1.341951 -0.77937 1.06066 -1.06066 
C 0.77937 -1.341951 0.397805 -1.5 0 -1.5 
C -0.397805 -1.5 -0.77937 -1.341951 -1.06066 -1.06066 
C -1.341951 -0.77937 -1.5 -0.397805 -1.5 0 
C -1.5 0.397805 -1.341951 0.77937 -1.06066 1.06066 
C -0.77937 1.341951 -0.397805 1.5 0 1.5 
z
" style="stroke: #ff7500"/>
    </defs>
    <g>
     <use xlink:href="#m21003c905d" x="207.377699" y="27.648" style="fill: #ff7500; stroke: #ff7500"/>
     <use xlink:href="#m21003c905d" x="207.377699" y="27.648" style="fill: #ff7500; stroke: #ff7500"/>
    </g>
   </g>
   <g id="line2d_44">
    <path d="M 122.633512 298.944 
L 122.633512 297.880094 
L 123.4884 297.880094 
L 123.559094 295.752282 
L 125.84208 295.752282 
L 125.94181 293.624471 
L 126.201114 293.624471 
L 126.201114 292.560565 
L 131.172405 292.560565 
L 131.172405 291.496659 
L 131.93807 291.496659 
L 131.93807 290.432753 
L 134.03991 290.432753 
L 134.03991 289.368847 
L 138.277963 289.368847 
L 138.277963 288.304941 
L 142.01707 288.304941 
L 142.01707 287.241035 
L 146.892226 287.241035 
L 146.892226 286.177129 
L 151.602142 286.177129 
L 151.602142 285.113224 
L 171.782615 285.113224 
L 171.82388 282.985412 
L 177.004244 282.985412 
L 177.004244 281.921506 
L 178.725159 281.921506 
L 178.725159 280.8576 
L 182.128837 280.8576 
L 182.195205 278.729788 
L 183.829055 278.729788 
L 183.829055 277.665882 
L 183.984841 277.665882 
L 184.033651 275.538071 
L 184.252861 275.538071 
L 184.252861 274.474165 
L 184.414081 274.474165 
L 184.414081 273.410259 
L 184.562912 273.410259 
L 184.562912 272.346353 
L 185.448293 272.346353 
L 185.448293 271.282447 
L 186.459016 271.282447 
L 186.459016 270.218541 
L 186.82269 270.218541 
L 186.82269 269.154635 
L 187.006039 269.154635 
L 187.006039 268.090729 
L 189.195622 268.090729 
L 189.195622 267.026824 
L 189.314147 267.026824 
L 189.314147 265.962918 
L 189.601333 265.962918 
L 189.601333 264.899012 
L 190.196401 264.899012 
L 190.196401 263.835106 
L 190.774409 263.835106 
L 190.823464 261.707294 
L 191.289377 261.707294 
L 191.289377 260.643388 
L 191.603174 260.643388 
L 191.650495 258.515576 
L 192.037805 258.515576 
L 192.037805 257.451671 
L 192.265322 257.451671 
L 192.332899 255.323859 
L 192.500604 255.323859 
L 192.500604 254.259953 
L 192.629537 254.259953 
L 192.721553 252.132141 
L 192.873094 252.132141 
L 192.873094 251.068235 
L 193.055381 251.068235 
L 193.055381 250.004329 
L 193.21749 250.004329 
L 193.320872 246.812612 
L 193.331248 246.812612 
L 193.429536 244.6848 
L 193.569015 244.6848 
L 193.576866 242.556988 
L 193.727792 242.556988 
L 193.756548 240.429176 
L 193.847599 240.429176 
L 193.871806 237.237459 
L 193.974002 237.237459 
L 193.990034 235.109647 
L 194.098896 235.109647 
L 194.191283 228.726212 
L 194.257232 228.726212 
L 194.333116 224.470588 
L 194.401184 224.470588 
L 194.473562 221.278871 
L 194.526204 221.278871 
L 194.627497 213.831529 
L 194.670374 213.831529 
L 194.761285 208.512 
L 194.799381 208.512 
L 194.903353 201.064659 
L 194.921474 201.064659 
L 195.012763 194.681224 
L 195.034253 194.681224 
L 195.143848 187.233882 
L 195.159228 187.233882 
L 195.239378 179.786541 
L 195.271219 179.786541 
L 195.373863 170.211388 
L 195.405167 170.211388 
L 195.503696 159.572329 
L 195.525556 159.572329 
L 195.607534 153.188894 
L 195.656489 153.188894 
L 195.755843 145.741553 
L 195.818961 145.741553 
L 195.87764 142.549835 
L 195.947574 142.549835 
L 196.043011 138.294212 
L 196.087263 138.294212 
L 196.160886 134.038588 
L 196.233926 134.038588 
L 196.329104 127.655153 
L 196.392976 127.655153 
L 196.492324 121.271718 
L 196.52153 121.271718 
L 196.628621 114.888282 
L 196.649793 114.888282 
L 196.735683 109.568753 
L 196.773443 109.568753 
L 196.867656 102.121412 
L 196.89886 102.121412 
L 197.000701 94.674071 
L 197.010087 94.674071 
L 197.103692 90.418447 
L 197.139874 90.418447 
L 197.203588 87.226729 
L 197.260916 87.226729 
L 197.340155 84.035012 
L 197.374491 84.035012 
L 197.472964 79.779388 
L 197.508997 79.779388 
L 197.614206 75.523765 
L 197.658763 75.523765 
L 197.658763 74.459859 
L 204.829984 74.459859 
L 204.829984 73.395953 
L 205.239248 73.395953 
L 205.239248 72.332047 
L 205.53761 72.332047 
L 205.53761 71.268141 
L 205.681807 71.268141 
L 205.681807 70.204235 
L 205.885677 70.204235 
L 205.885677 69.140329 
L 206.101747 69.140329 
L 206.200748 67.012518 
L 206.265186 67.012518 
L 206.351741 64.884706 
L 206.440484 64.884706 
L 206.513374 62.756894 
L 206.556049 62.756894 
L 206.634462 60.629082 
L 206.675842 60.629082 
L 206.781012 56.373459 
L 206.826291 56.373459 
L 206.935658 49.990024 
L 206.969852 49.990024 
L 207.070397 43.606588 
L 207.088711 43.606588 
L 207.163116 38.287059 
L 207.208643 38.287059 
L 207.314666 30.839718 
L 207.342105 30.839718 
L 207.377699 27.648 
L 360.8064 27.648 
L 360.8064 27.648 
" style="fill: none; stroke: #ff7500; stroke-width: 1.5; stroke-linecap: square"/>
   </g>
   <g id="line2d_45">
    <defs>
     <path id="m80ab461f4c" d="M 0 -6 
L -1.347084 -1.854102 
L -5.706339 -1.854102 
L -2.179628 0.708204 
L -3.526712 4.854102 
L -0 2.291796 
L 3.526712 4.854102 
L 2.179628 0.708204 
L 5.706339 -1.854102 
L 1.347084 -1.854102 
z
" style="stroke: #ff7500; stroke-width: 1.5; stroke-linejoin: bevel"/>
    </defs>
    <g>
     <use xlink:href="#m80ab461f4c" x="194.555385" y="219.151059" style="fill-opacity: 0; stroke: #ff7500; stroke-width: 1.5; stroke-linejoin: bevel"/>
     <use xlink:href="#m80ab461f4c" x="197.658763" y="75.523765" style="fill-opacity: 0; stroke: #ff7500; stroke-width: 1.5; stroke-linejoin: bevel"/>
     <use xlink:href="#m80ab461f4c" x="207.377699" y="27.648" style="fill-opacity: 0; stroke: #ff7500; stroke-width: 1.5; stroke-linejoin: bevel"/>
     <use xlink:href="#m80ab461f4c" x="207.377699" y="27.648" style="fill-opacity: 0; stroke: #ff7500; stroke-width: 1.5; stroke-linejoin: bevel"/>
     <use xlink:href="#m80ab461f4c" x="360.8064" y="27.648" style="fill-opacity: 0; stroke: #ff7500; stroke-width: 1.5; stroke-linejoin: bevel"/>
    </g>
   </g>
   <g id="line2d_46">
    <path style="fill: none; stroke: #ff7500; stroke-width: 1.5; stroke-linecap: square"/>
    <g/>
   </g>
   <g id="line2d_47">
    <defs>
     <path id="m17318802e3" d="M 0 1.5 
C 0.397805 1.5 0.77937 1.341951 1.06066 1.06066 
C 1.341951 0.77937 1.5 0.397805 1.5 0 
C 1.5 -0.397805 1.341951 -0.77937 1.06066 -1.06066 
C 0.77937 -1.341951 0.397805 -1.5 0 -1.5 
C -0.397805 -1.5 -0.77937 -1.341951 -1.06066 -1.06066 
C -1.341951 -0.77937 -1.5 -0.397805 -1.5 0 
C -1.5 0.397805 -1.341951 0.77937 -1.06066 1.06066 
C -0.77937 1.341951 -0.397805 1.5 0 1.5 
z
" style="stroke: #6495ed"/>
    </defs>
    <g>
     <use xlink:href="#m17318802e3" x="216.983811" y="27.648" style="fill: #6495ed; stroke: #6495ed"/>
     <use xlink:href="#m17318802e3" x="216.983811" y="27.648" style="fill: #6495ed; stroke: #6495ed"/>
    </g>
   </g>
   <g id="line2d_48">
    <path d="M 119.442388 298.944 
L 119.442388 297.880094 
L 119.669351 297.880094 
L 119.669351 296.816188 
L 120.132165 296.816188 
L 120.132165 295.752282 
L 122.092135 295.752282 
L 122.092135 294.688376 
L 122.289434 294.688376 
L 122.289434 293.624471 
L 123.260379 293.624471 
L 123.260379 292.560565 
L 123.601383 292.560565 
L 123.601383 291.496659 
L 125.501533 291.496659 
L 125.501533 290.432753 
L 125.854575 290.432753 
L 125.854575 289.368847 
L 128.914307 289.368847 
L 129.009609 287.241035 
L 129.489309 287.241035 
L 129.489309 286.177129 
L 131.901876 286.177129 
L 131.901876 285.113224 
L 132.490343 285.113224 
L 132.490343 284.049318 
L 135.820345 284.049318 
L 135.820345 282.985412 
L 171.73036 282.985412 
L 171.73036 281.921506 
L 171.860725 281.921506 
L 171.860725 280.8576 
L 173.905299 280.8576 
L 173.905299 279.793694 
L 176.492464 279.793694 
L 176.492464 278.729788 
L 177.048668 278.729788 
L 177.048668 277.665882 
L 181.731401 277.665882 
L 181.731401 276.601976 
L 182.08928 276.601976 
L 182.08928 275.538071 
L 183.300246 275.538071 
L 183.300246 274.474165 
L 185.124816 274.474165 
L 185.124816 273.410259 
L 185.477712 273.410259 
L 185.477712 272.346353 
L 186.213778 272.346353 
L 186.213778 271.282447 
L 186.847598 271.282447 
L 186.847598 270.218541 
L 187.661404 270.218541 
L 187.661404 269.154635 
L 188.597754 269.154635 
L 188.597754 268.090729 
L 188.864019 268.090729 
L 188.864019 267.026824 
L 189.350927 267.026824 
L 189.362886 264.899012 
L 189.909931 264.899012 
L 190.000954 262.7712 
L 190.593308 262.7712 
L 190.593308 261.707294 
L 190.883815 261.707294 
L 190.938083 259.579482 
L 191.226062 259.579482 
L 191.312873 257.451671 
L 191.400435 257.451671 
L 191.468512 255.323859 
L 191.803002 255.323859 
L 191.817248 253.196047 
L 191.948702 253.196047 
L 191.948702 252.132141 
L 192.146016 252.132141 
L 192.248848 248.940424 
L 192.421657 248.940424 
L 192.465517 246.812612 
L 192.566622 246.812612 
L 192.630614 244.6848 
L 192.834435 244.6848 
L 192.902478 241.493082 
L 193.022017 241.493082 
L 193.125776 237.237459 
L 193.24252 237.237459 
L 193.314643 232.981835 
L 193.372005 232.981835 
L 193.457378 229.790118 
L 193.493407 229.790118 
L 193.601764 225.534494 
L 193.607898 225.534494 
L 193.697975 222.342776 
L 193.73287 222.342776 
L 193.834811 217.023247 
L 193.877516 217.023247 
L 193.981686 210.639812 
L 193.998046 210.639812 
L 194.105202 205.320282 
L 194.119466 205.320282 
L 194.212741 198.936847 
L 194.24406 198.936847 
L 194.336066 191.489506 
L 194.360634 191.489506 
L 194.440016 185.106071 
L 194.474538 185.106071 
L 194.576109 175.530918 
L 194.597134 175.530918 
L 194.69451 167.019671 
L 194.710583 167.019671 
L 194.798742 158.508424 
L 194.83389 158.508424 
L 194.937037 147.869365 
L 194.954173 147.869365 
L 195.049092 142.549835 
L 195.073062 142.549835 
L 195.177103 135.102494 
L 195.225627 135.102494 
L 195.31141 127.655153 
L 195.358347 127.655153 
L 195.460827 122.335624 
L 195.48397 122.335624 
L 195.583009 118.08 
L 195.595276 118.08 
L 195.704403 111.696565 
L 195.733945 111.696565 
L 195.843483 104.249224 
L 195.890621 104.249224 
L 195.985446 98.929694 
L 196.02594 98.929694 
L 196.130816 95.737976 
L 196.176944 95.737976 
L 196.286304 91.482353 
L 196.296644 91.482353 
L 196.402082 88.290635 
L 196.438759 88.290635 
L 196.5332 84.035012 
L 196.572533 84.035012 
L 196.672098 79.779388 
L 196.713453 79.779388 
L 196.819172 74.459859 
L 215.575786 74.459859 
L 215.575786 73.395953 
L 215.833045 73.395953 
L 215.833045 72.332047 
L 215.971994 72.332047 
L 216.072079 70.204235 
L 216.179025 70.204235 
L 216.262083 68.076424 
L 216.328082 68.076424 
L 216.428523 64.884706 
L 216.462525 64.884706 
L 216.572509 60.629082 
L 216.594408 60.629082 
L 216.698734 53.181741 
L 216.715101 53.181741 
L 216.817868 43.606588 
L 216.826497 43.606588 
L 216.928758 32.967529 
L 216.940787 32.967529 
L 216.983811 27.648 
L 360.8064 27.648 
L 360.8064 27.648 
" style="fill: none; stroke: #6495ed; stroke-width: 1.5; stroke-linecap: square"/>
   </g>
   <g id="line2d_49">
    <defs>
     <path id="mb8ae16efda" d="M -0 6 
L 6 -6 
L -6 -6 
z
" style="stroke: #6495ed; stroke-width: 1.5; stroke-linejoin: miter"/>
    </defs>
    <g>
     <use xlink:href="#mb8ae16efda" x="183.300246" y="274.474165" style="fill-opacity: 0; stroke: #6495ed; stroke-width: 1.5; stroke-linejoin: miter"/>
     <use xlink:href="#mb8ae16efda" x="196.819172" y="74.459859" style="fill-opacity: 0; stroke: #6495ed; stroke-width: 1.5; stroke-linejoin: miter"/>
     <use xlink:href="#mb8ae16efda" x="216.983811" y="28.711906" style="fill-opacity: 0; stroke: #6495ed; stroke-width: 1.5; stroke-linejoin: miter"/>
     <use xlink:href="#mb8ae16efda" x="216.983811" y="27.648" style="fill-opacity: 0; stroke: #6495ed; stroke-width: 1.5; stroke-linejoin: miter"/>
     <use xlink:href="#mb8ae16efda" x="360.8064" y="27.648" style="fill-opacity: 0; stroke: #6495ed; stroke-width: 1.5; stroke-linejoin: miter"/>
    </g>
   </g>
   <g id="line2d_50">
    <path style="fill: none; stroke: #6495ed; stroke-width: 1.5; stroke-linecap: square"/>
    <g/>
   </g>
   <g id="line2d_51">
    <defs>
     <path id="m65389b44f5" d="M 0 1.5 
C 0.397805 1.5 0.77937 1.341951 1.06066 1.06066 
C 1.341951 0.77937 1.5 0.397805 1.5 0 
C 1.5 -0.397805 1.341951 -0.77937 1.06066 -1.06066 
C 0.77937 -1.341951 0.397805 -1.5 0 -1.5 
C -0.397805 -1.5 -0.77937 -1.341951 -1.06066 -1.06066 
C -1.341951 -0.77937 -1.5 -0.397805 -1.5 0 
C -1.5 0.397805 -1.341951 0.77937 -1.06066 1.06066 
C -0.77937 1.341951 -0.397805 1.5 0 1.5 
z
" style="stroke: #ff0000"/>
    </defs>
    <g>
     <use xlink:href="#m65389b44f5" x="197.380347" y="27.648" style="fill: #ff0000; stroke: #ff0000"/>
     <use xlink:href="#m65389b44f5" x="197.380347" y="27.648" style="fill: #ff0000; stroke: #ff0000"/>
    </g>
   </g>
   <g id="line2d_52">
    <path d="M 121.691218 298.944 
L 121.691218 298.589365 
L 121.892744 298.589365 
L 121.892744 298.234729 
L 122.076872 298.234729 
L 122.168264 297.525459 
L 122.454778 297.525459 
L 122.454778 297.170824 
L 123.573201 297.170824 
L 123.573201 296.816188 
L 123.839241 296.816188 
L 123.839241 296.461553 
L 124.668797 296.461553 
L 124.748451 295.752282 
L 125.373824 295.752282 
L 125.373824 295.397647 
L 125.526971 295.397647 
L 125.615735 294.688376 
L 126.213373 294.688376 
L 126.213373 294.333741 
L 126.347698 294.333741 
L 126.347698 293.979106 
L 126.541384 293.979106 
L 126.541384 293.624471 
L 126.72117 293.624471 
L 126.804487 292.9152 
L 126.863773 292.9152 
L 126.863773 292.560565 
L 127.400615 292.560565 
L 127.400615 292.205929 
L 128.92492 292.205929 
L 128.977895 291.496659 
L 129.458394 291.496659 
L 129.479009 290.787388 
L 129.876559 290.787388 
L 129.876559 290.432753 
L 130.743877 290.432753 
L 130.743877 290.078118 
L 131.892817 290.078118 
L 132.001241 289.368847 
L 132.046234 289.368847 
L 132.046234 289.014212 
L 132.171645 289.014212 
L 132.171645 288.659576 
L 132.647689 288.659576 
L 132.682477 287.950306 
L 133.44032 287.950306 
L 133.457005 287.241035 
L 134.416073 287.241035 
L 134.416073 286.8864 
L 135.100771 286.8864 
L 135.154181 286.177129 
L 135.275693 286.177129 
L 135.275693 285.822494 
L 135.643015 285.822494 
L 135.754042 285.113224 
L 139.123427 285.113224 
L 139.123427 284.758588 
L 139.423341 284.758588 
L 139.423341 284.403953 
L 140.491494 284.403953 
L 140.491494 284.049318 
L 141.825656 284.049318 
L 141.825656 283.694682 
L 144.959156 283.694682 
L 144.959156 283.340047 
L 145.076419 283.340047 
L 145.076419 282.985412 
L 170.689334 282.985412 
L 170.721567 282.276141 
L 171.697627 282.276141 
L 171.697627 281.921506 
L 172.006313 281.921506 
L 172.006313 281.566871 
L 172.282512 281.566871 
L 172.282512 281.212235 
L 172.503517 281.212235 
L 172.503517 280.8576 
L 173.32243 280.8576 
L 173.32243 280.502965 
L 173.44623 280.502965 
L 173.475066 279.793694 
L 173.595895 279.793694 
L 173.595895 279.439059 
L 174.39227 279.439059 
L 174.393216 278.729788 
L 174.602121 278.729788 
L 174.602121 278.375153 
L 175.267728 278.375153 
L 175.267728 278.020518 
L 177.259475 278.020518 
L 177.259475 277.665882 
L 181.358089 277.665882 
L 181.358089 277.311247 
L 181.496761 277.311247 
L 181.496761 276.956612 
L 182.260716 276.956612 
L 182.318551 275.892706 
L 182.51682 275.892706 
L 182.51682 275.538071 
L 182.907797 275.538071 
L 182.907797 275.183435 
L 183.222882 275.183435 
L 183.222882 274.8288 
L 183.505397 274.8288 
L 183.613516 274.119529 
L 183.727932 274.119529 
L 183.794642 273.055624 
L 184.160191 273.055624 
L 184.160191 272.700988 
L 185.677176 272.700988 
L 185.677176 272.346353 
L 186.003115 272.346353 
L 186.003115 271.991718 
L 186.118637 271.991718 
L 186.118637 271.637082 
L 186.71634 271.637082 
L 186.71634 271.282447 
L 186.91629 271.282447 
L 186.980371 270.573176 
L 187.078013 270.573176 
L 187.101141 269.863906 
L 187.538074 269.863906 
L 187.625848 269.154635 
L 187.723466 269.154635 
L 187.723466 268.8 
L 187.932406 268.8 
L 187.932406 268.445365 
L 188.123551 268.445365 
L 188.127199 267.736094 
L 188.259873 267.736094 
L 188.328117 267.026824 
L 188.83901 267.026824 
L 188.83901 266.672188 
L 189.26013 266.672188 
L 189.26013 266.317553 
L 189.407666 266.317553 
L 189.496059 265.253647 
L 189.571375 265.253647 
L 189.646811 264.544376 
L 189.872983 264.544376 
L 189.904954 263.480471 
L 190.075102 263.480471 
L 190.108373 262.7712 
L 190.266121 262.7712 
L 190.266121 262.416565 
L 190.384985 262.416565 
L 190.415291 261.707294 
L 190.602504 261.707294 
L 190.705756 260.288753 
L 190.810026 260.288753 
L 190.873179 259.224847 
L 191.089831 259.224847 
L 191.189288 258.515576 
L 191.226062 258.515576 
L 191.247319 257.806306 
L 191.357089 257.806306 
L 191.392003 257.097035 
L 191.545471 257.097035 
L 191.654654 254.614588 
L 191.674678 254.614588 
L 191.766588 253.550682 
L 191.846082 253.550682 
L 191.884957 252.841412 
L 191.977335 252.841412 
L 192.050764 251.422871 
L 192.094758 251.422871 
L 192.191993 249.649694 
L 192.233093 249.649694 
L 192.233093 249.295059 
L 192.347842 249.295059 
L 192.440881 247.521882 
L 192.48542 247.521882 
L 192.567702 246.103341 
L 192.598645 246.103341 
L 192.674706 244.330165 
L 192.71941 244.330165 
L 192.819874 242.556988 
L 192.849696 242.556988 
L 192.927224 240.783812 
L 192.968865 240.783812 
L 193.03537 238.656 
L 193.093938 238.656 
L 193.185459 235.464282 
L 193.232443 235.464282 
L 193.334705 232.6272 
L 193.363377 232.6272 
L 193.44982 229.435482 
L 193.481405 229.435482 
L 193.577549 226.5984 
L 193.605172 226.5984 
L 193.68746 223.406682 
L 193.718649 223.406682 
L 193.816961 219.860329 
L 193.830435 219.860329 
L 193.917444 215.604706 
L 193.945242 215.604706 
L 194.051035 210.994447 
L 194.064674 210.994447 
L 194.17013 204.611012 
L 194.179387 204.611012 
L 194.286505 198.227576 
L 194.301617 198.227576 
L 194.410981 191.489506 
L 194.41294 191.489506 
L 194.507374 184.042165 
L 194.530097 184.042165 
L 194.638145 174.467012 
L 194.641693 174.467012 
L 194.749424 164.537224 
L 194.753271 164.537224 
L 194.864192 155.316706 
L 194.869291 155.316706 
L 194.980165 143.968376 
L 194.981115 143.968376 
L 195.083145 133.683953 
L 195.092594 133.683953 
L 195.202476 120.917082 
L 195.20811 120.917082 
L 195.316078 108.859482 
L 195.322611 108.859482 
L 195.428069 98.220424 
L 195.434254 98.220424 
L 195.541857 85.098918 
L 195.54862 85.098918 
L 195.658323 75.169129 
L 195.661989 75.169129 
L 195.767086 67.012518 
L 195.775286 67.012518 
L 195.884887 59.565176 
L 195.889112 59.565176 
L 195.999854 51.7632 
L 196.001354 51.7632 
L 196.106069 46.798306 
L 196.124856 46.798306 
L 196.23037 41.833412 
L 196.267086 41.833412 
L 196.369454 38.287059 
L 196.385922 38.287059 
L 196.493201 35.804612 
L 196.531159 35.804612 
L 196.636164 34.386071 
L 196.692931 34.386071 
L 196.795027 33.322165 
L 196.83353 33.322165 
L 196.920016 32.258259 
L 196.959119 32.258259 
L 197.066589 30.839718 
L 197.08699 30.839718 
L 197.174859 29.775812 
L 197.210342 29.775812 
L 197.318069 28.357271 
L 197.371702 28.357271 
L 197.380347 27.648 
L 360.8064 27.648 
L 360.8064 27.648 
" style="fill: none; stroke: #ff0000; stroke-width: 1.5; stroke-linecap: square"/>
   </g>
   <g id="line2d_53">
    <defs>
     <path id="mcd80904ef7" d="M 0 -6 
L -5.196152 -3 
L -5.196152 3 
L -0 6 
L 5.196152 3 
L 5.196152 -3 
z
" style="stroke: #ff0000; stroke-width: 1.5; stroke-linejoin: miter"/>
    </defs>
    <g>
     <use xlink:href="#mcd80904ef7" x="145.076419" y="283.340047" style="fill-opacity: 0; stroke: #ff0000; stroke-width: 1.5; stroke-linejoin: miter"/>
     <use xlink:href="#mcd80904ef7" x="195.379756" y="102.476047" style="fill-opacity: 0; stroke: #ff0000; stroke-width: 1.5; stroke-linejoin: miter"/>
     <use xlink:href="#mcd80904ef7" x="197.380347" y="28.002635" style="fill-opacity: 0; stroke: #ff0000; stroke-width: 1.5; stroke-linejoin: miter"/>
     <use xlink:href="#mcd80904ef7" x="197.380347" y="27.648" style="fill-opacity: 0; stroke: #ff0000; stroke-width: 1.5; stroke-linejoin: miter"/>
     <use xlink:href="#mcd80904ef7" x="360.8064" y="27.648" style="fill-opacity: 0; stroke: #ff0000; stroke-width: 1.5; stroke-linejoin: miter"/>
    </g>
   </g>
   <g id="line2d_54">
    <path style="fill: none; stroke: #ff0000; stroke-width: 1.5; stroke-linecap: square"/>
    <g/>
   </g>
   <g id="line2d_55">
    <path d="M 360.8064 27.648 
L 380.514816 293.51808 
" style="fill: none; stroke: #6495ed; stroke-width: 1.5; stroke-linecap: square"/>
    <g>
     <use xlink:href="#mb8ae16efda" x="360.8064" y="27.648" style="fill-opacity: 0; stroke: #6495ed; stroke-width: 1.5; stroke-linejoin: miter"/>
     <use xlink:href="#mb8ae16efda" x="380.514816" y="293.51808" style="fill-opacity: 0; stroke: #6495ed; stroke-width: 1.5; stroke-linejoin: miter"/>
    </g>
   </g>
   <g id="line2d_56">
    <path d="M 360.8064 27.648 
L 380.514816 241.429248 
" style="fill: none; stroke: #ff7500; stroke-width: 1.5; stroke-linecap: square"/>
    <g>
     <use xlink:href="#m80ab461f4c" x="360.8064" y="27.648" style="fill-opacity: 0; stroke: #ff7500; stroke-width: 1.5; stroke-linejoin: bevel"/>
     <use xlink:href="#m80ab461f4c" x="380.514816" y="241.429248" style="fill-opacity: 0; stroke: #ff7500; stroke-width: 1.5; stroke-linejoin: bevel"/>
    </g>
   </g>
   <g id="line2d_57">
    <path d="M 360.8064 27.648 
L 380.514816 189.340416 
" style="fill: none; stroke: #ff0000; stroke-width: 1.5; stroke-linecap: square"/>
    <g>
     <use xlink:href="#mcd80904ef7" x="360.8064" y="27.648" style="fill-opacity: 0; stroke: #ff0000; stroke-width: 1.5; stroke-linejoin: miter"/>
     <use xlink:href="#mcd80904ef7" x="380.514816" y="189.340416" style="fill-opacity: 0; stroke: #ff0000; stroke-width: 1.5; stroke-linejoin: miter"/>
    </g>
   </g>
   <g id="line2d_58">
    <path d="M 360.8064 27.648 
L 380.514816 137.251584 
" style="fill: none; stroke: #000080; stroke-width: 1.5; stroke-linecap: square"/>
    <g>
     <use xlink:href="#mca4b0313f4" x="360.8064" y="27.648" style="fill-opacity: 0; stroke: #000080; stroke-width: 1.5"/>
     <use xlink:href="#mca4b0313f4" x="380.514816" y="137.251584" style="fill-opacity: 0; stroke: #000080; stroke-width: 1.5"/>
    </g>
   </g>
   <g id="line2d_59">
    <path d="M 360.8064 27.648 
L 380.514816 85.162752 
" style="fill: none; stroke: #ff00ff; stroke-width: 1.5; stroke-linecap: square"/>
    <g>
     <use xlink:href="#m37b478b023" x="360.8064" y="27.648" style="fill-opacity: 0; stroke: #ff00ff; stroke-width: 1.5; stroke-linejoin: miter"/>
     <use xlink:href="#m37b478b023" x="380.514816" y="85.162752" style="fill-opacity: 0; stroke: #ff00ff; stroke-width: 1.5; stroke-linejoin: miter"/>
    </g>
   </g>
   <g id="line2d_60">
    <path d="M 360.8064 298.944 
L 360.8064 27.648 
" style="fill: none; stroke: #000000; stroke-width: 1.5; stroke-linecap: square"/>
   </g>
   <g id="patch_3">
    <path d="M 57.6 298.944 
L 360.8064 298.944 
" style="fill: none; stroke: #000000; stroke-width: 0.8; stroke-linejoin: miter; stroke-linecap: square"/>
   </g>
   <g id="patch_4">
    <path d="M 57.6 27.648 
L 360.8064 27.648 
" style="fill: none; stroke: #000000; stroke-width: 0.8; stroke-linejoin: miter; stroke-linecap: square"/>
   </g>
   <g id="text_13">
    <!-- cma-t1 -->
    <g transform="translate(386.578944 297.381205)scale(0.14 -0.14)">
     <use xlink:href="#DejaVuSans-63"/>
     <use xlink:href="#DejaVuSans-6d" x="54.980469"/>
     <use xlink:href="#DejaVuSans-61" x="152.392578"/>
     <use xlink:href="#DejaVuSans-2d" x="213.671875"/>
     <use xlink:href="#DejaVuSans-74" x="249.755859"/>
     <use xlink:href="#DejaVuSans-31" x="288.964844"/>
    </g>
   </g>
   <g id="text_14">
    <!-- cma-t0 -->
    <g transform="translate(386.578944 245.292373)scale(0.14 -0.14)">
     <use xlink:href="#DejaVuSans-63"/>
     <use xlink:href="#DejaVuSans-6d" x="54.980469"/>
     <use xlink:href="#DejaVuSans-61" x="152.392578"/>
     <use xlink:href="#DejaVuSans-2d" x="213.671875"/>
     <use xlink:href="#DejaVuSans-74" x="249.755859"/>
     <use xlink:href="#DejaVuSans-30" x="288.964844"/>
    </g>
   </g>
   <g id="text_15">
    <!-- CMA-ES-20 -->
    <g transform="translate(386.578944 193.203541)scale(0.14 -0.14)">
     <defs>
      <path id="DejaVuSans-43" d="M 4122 4306 
L 4122 3641 
Q 3803 3938 3442 4084 
Q 3081 4231 2675 4231 
Q 1875 4231 1450 3742 
Q 1025 3253 1025 2328 
Q 1025 1406 1450 917 
Q 1875 428 2675 428 
Q 3081 428 3442 575 
Q 3803 722 4122 1019 
L 4122 359 
Q 3791 134 3420 21 
Q 3050 -91 2638 -91 
Q 1578 -91 968 557 
Q 359 1206 359 2328 
Q 359 3453 968 4101 
Q 1578 4750 2638 4750 
Q 3056 4750 3426 4639 
Q 3797 4528 4122 4306 
z
" transform="scale(0.015625)"/>
      <path id="DejaVuSans-4d" d="M 628 4666 
L 1569 4666 
L 2759 1491 
L 3956 4666 
L 4897 4666 
L 4897 0 
L 4281 0 
L 4281 4097 
L 3078 897 
L 2444 897 
L 1241 4097 
L 1241 0 
L 628 0 
L 628 4666 
z
" transform="scale(0.015625)"/>
      <path id="DejaVuSans-41" d="M 2188 4044 
L 1331 1722 
L 3047 1722 
L 2188 4044 
z
M 1831 4666 
L 2547 4666 
L 4325 0 
L 3669 0 
L 3244 1197 
L 1141 1197 
L 716 0 
L 50 0 
L 1831 4666 
z
" transform="scale(0.015625)"/>
      <path id="DejaVuSans-45" d="M 628 4666 
L 3578 4666 
L 3578 4134 
L 1259 4134 
L 1259 2753 
L 3481 2753 
L 3481 2222 
L 1259 2222 
L 1259 531 
L 3634 531 
L 3634 0 
L 628 0 
L 628 4666 
z
" transform="scale(0.015625)"/>
      <path id="DejaVuSans-53" d="M 3425 4513 
L 3425 3897 
Q 3066 4069 2747 4153 
Q 2428 4238 2131 4238 
Q 1616 4238 1336 4038 
Q 1056 3838 1056 3469 
Q 1056 3159 1242 3001 
Q 1428 2844 1947 2747 
L 2328 2669 
Q 3034 2534 3370 2195 
Q 3706 1856 3706 1288 
Q 3706 609 3251 259 
Q 2797 -91 1919 -91 
Q 1588 -91 1214 -16 
Q 841 59 441 206 
L 441 856 
Q 825 641 1194 531 
Q 1563 422 1919 422 
Q 2459 422 2753 634 
Q 3047 847 3047 1241 
Q 3047 1584 2836 1778 
Q 2625 1972 2144 2069 
L 1759 2144 
Q 1053 2284 737 2584 
Q 422 2884 422 3419 
Q 422 4038 858 4394 
Q 1294 4750 2059 4750 
Q 2388 4750 2728 4690 
Q 3069 4631 3425 4513 
z
" transform="scale(0.015625)"/>
     </defs>
     <use xlink:href="#DejaVuSans-43"/>
     <use xlink:href="#DejaVuSans-4d" x="69.824219"/>
     <use xlink:href="#DejaVuSans-41" x="156.103516"/>
     <use xlink:href="#DejaVuSans-2d" x="222.261719"/>
     <use xlink:href="#DejaVuSans-45" x="258.345703"/>
     <use xlink:href="#DejaVuSans-53" x="321.529297"/>
     <use xlink:href="#DejaVuSans-2d" x="385.005859"/>
     <use xlink:href="#DejaVuSans-32" x="421.089844"/>
     <use xlink:href="#DejaVuSans-30" x="484.712891"/>
    </g>
   </g>
   <g id="text_16">
    <!-- cma-0r -->
    <g transform="translate(386.578944 141.114709)scale(0.14 -0.14)">
     <use xlink:href="#DejaVuSans-63"/>
     <use xlink:href="#DejaVuSans-6d" x="54.980469"/>
     <use xlink:href="#DejaVuSans-61" x="152.392578"/>
     <use xlink:href="#DejaVuSans-2d" x="213.671875"/>
     <use xlink:href="#DejaVuSans-30" x="249.755859"/>
     <use xlink:href="#DejaVuSans-72" x="313.378906"/>
    </g>
   </g>
   <g id="text_17">
    <!-- cma-1r -->
    <g transform="translate(386.578944 89.025877)scale(0.14 -0.14)">
     <use xlink:href="#DejaVuSans-63"/>
     <use xlink:href="#DejaVuSans-6d" x="54.980469"/>
     <use xlink:href="#DejaVuSans-61" x="152.392578"/>
     <use xlink:href="#DejaVuSans-2d" x="213.671875"/>
     <use xlink:href="#DejaVuSans-31" x="249.755859"/>
     <use xlink:href="#DejaVuSans-72" x="313.378906"/>
    </g>
   </g>
   <g id="text_18">
    <!-- best 2009 -->
    <g transform="translate(386.578944 36.937045)scale(0.14 -0.14)">
     <defs>
      <path id="DejaVuSans-62" d="M 3116 1747 
Q 3116 2381 2855 2742 
Q 2594 3103 2138 3103 
Q 1681 3103 1420 2742 
Q 1159 2381 1159 1747 
Q 1159 1113 1420 752 
Q 1681 391 2138 391 
Q 2594 391 2855 752 
Q 3116 1113 3116 1747 
z
M 1159 2969 
Q 1341 3281 1617 3432 
Q 1894 3584 2278 3584 
Q 2916 3584 3314 3078 
Q 3713 2572 3713 1747 
Q 3713 922 3314 415 
Q 2916 -91 2278 -91 
Q 1894 -91 1617 61 
Q 1341 213 1159 525 
L 1159 0 
L 581 0 
L 581 4863 
L 1159 4863 
L 1159 2969 
z
" transform="scale(0.015625)"/>
      <path id="DejaVuSans-39" d="M 703 97 
L 703 672 
Q 941 559 1184 500 
Q 1428 441 1663 441 
Q 2288 441 2617 861 
Q 2947 1281 2994 2138 
Q 2813 1869 2534 1725 
Q 2256 1581 1919 1581 
Q 1219 1581 811 2004 
Q 403 2428 403 3163 
Q 403 3881 828 4315 
Q 1253 4750 1959 4750 
Q 2769 4750 3195 4129 
Q 3622 3509 3622 2328 
Q 3622 1225 3098 567 
Q 2575 -91 1691 -91 
Q 1453 -91 1209 -44 
Q 966 3 703 97 
z
M 1959 2075 
Q 2384 2075 2632 2365 
Q 2881 2656 2881 3163 
Q 2881 3666 2632 3958 
Q 2384 4250 1959 4250 
Q 1534 4250 1286 3958 
Q 1038 3666 1038 3163 
Q 1038 2656 1286 2365 
Q 1534 2075 1959 2075 
z
" transform="scale(0.015625)"/>
     </defs>
     <use xlink:href="#DejaVuSans-62"/>
     <use xlink:href="#DejaVuSans-65" x="63.476562"/>
     <use xlink:href="#DejaVuSans-73" x="125"/>
     <use xlink:href="#DejaVuSans-74" x="177.099609"/>
     <use xlink:href="#DejaVuSans-20" x="216.308594"/>
     <use xlink:href="#DejaVuSans-32" x="248.095703"/>
     <use xlink:href="#DejaVuSans-30" x="311.71875"/>
     <use xlink:href="#DejaVuSans-30" x="375.341797"/>
     <use xlink:href="#DejaVuSans-39" x="438.964844"/>
    </g>
   </g>
   <g id="text_19">
    <!-- bbob f9, 40-D -->
    <g transform="translate(60.632064 38.111366)scale(0.102 -0.102)">
     <defs>
      <path id="DejaVuSans-44" d="M 1259 4147 
L 1259 519 
L 2022 519 
Q 2988 519 3436 956 
Q 3884 1394 3884 2338 
Q 3884 3275 3436 3711 
Q 2988 4147 2022 4147 
L 1259 4147 
z
M 628 4666 
L 1925 4666 
Q 3281 4666 3915 4102 
Q 4550 3538 4550 2338 
Q 4550 1131 3912 565 
Q 3275 0 1925 0 
L 628 0 
L 628 4666 
z
" transform="scale(0.015625)"/>
     </defs>
     <use xlink:href="#DejaVuSans-62"/>
     <use xlink:href="#DejaVuSans-62" x="63.476562"/>
     <use xlink:href="#DejaVuSans-6f" x="126.953125"/>
     <use xlink:href="#DejaVuSans-62" x="188.134766"/>
     <use xlink:href="#DejaVuSans-20" x="251.611328"/>
     <use xlink:href="#DejaVuSans-66" x="283.398438"/>
     <use xlink:href="#DejaVuSans-39" x="318.603516"/>
     <use xlink:href="#DejaVuSans-2c" x="382.226562"/>
     <use xlink:href="#DejaVuSans-20" x="414.013672"/>
     <use xlink:href="#DejaVuSans-34" x="445.800781"/>
     <use xlink:href="#DejaVuSans-30" x="509.423828"/>
     <use xlink:href="#DejaVuSans-2d" x="573.046875"/>
     <use xlink:href="#DejaVuSans-44" x="609.130859"/>
    </g>
    <!-- 51 targets: 100..1e-08 -->
    <g transform="translate(60.632064 49.533135)scale(0.102 -0.102)">
     <defs>
      <path id="DejaVuSans-35" d="M 691 4666 
L 3169 4666 
L 3169 4134 
L 1269 4134 
L 1269 2991 
Q 1406 3038 1543 3061 
Q 1681 3084 1819 3084 
Q 2600 3084 3056 2656 
Q 3513 2228 3513 1497 
Q 3513 744 3044 326 
Q 2575 -91 1722 -91 
Q 1428 -91 1123 -41 
Q 819 9 494 109 
L 494 744 
Q 775 591 1075 516 
Q 1375 441 1709 441 
Q 2250 441 2565 725 
Q 2881 1009 2881 1497 
Q 2881 1984 2565 2268 
Q 2250 2553 1709 2553 
Q 1456 2553 1204 2497 
Q 953 2441 691 2322 
L 691 4666 
z
" transform="scale(0.015625)"/>
      <path id="DejaVuSans-3a" d="M 750 794 
L 1409 794 
L 1409 0 
L 750 0 
L 750 794 
z
M 750 3309 
L 1409 3309 
L 1409 2516 
L 750 2516 
L 750 3309 
z
" transform="scale(0.015625)"/>
     </defs>
     <use xlink:href="#DejaVuSans-35"/>
     <use xlink:href="#DejaVuSans-31" x="63.623047"/>
     <use xlink:href="#DejaVuSans-20" x="127.246094"/>
     <use xlink:href="#DejaVuSans-74" x="159.033203"/>
     <use xlink:href="#DejaVuSans-61" x="198.242188"/>
     <use xlink:href="#DejaVuSans-72" x="259.521484"/>
     <use xlink:href="#DejaVuSans-67" x="298.884766"/>
     <use xlink:href="#DejaVuSans-65" x="362.361328"/>
     <use xlink:href="#DejaVuSans-74" x="423.884766"/>
     <use xlink:href="#DejaVuSans-73" x="463.09375"/>
     <use xlink:href="#DejaVuSans-3a" x="515.193359"/>
     <use xlink:href="#DejaVuSans-20" x="548.884766"/>
     <use xlink:href="#DejaVuSans-31" x="580.671875"/>
     <use xlink:href="#DejaVuSans-30" x="644.294922"/>
     <use xlink:href="#DejaVuSans-30" x="707.917969"/>
     <use xlink:href="#DejaVuSans-2e" x="771.541016"/>
     <use xlink:href="#DejaVuSans-2e" x="803.328125"/>
     <use xlink:href="#DejaVuSans-31" x="835.115234"/>
     <use xlink:href="#DejaVuSans-65" x="898.738281"/>
     <use xlink:href="#DejaVuSans-2d" x="960.261719"/>
     <use xlink:href="#DejaVuSans-30" x="996.345703"/>
     <use xlink:href="#DejaVuSans-38" x="1059.96875"/>
    </g>
    <!-- 10, 5, 15 instances -->
    <g transform="translate(60.632064 60.954904)scale(0.102 -0.102)">
     <use xlink:href="#DejaVuSans-31"/>
     <use xlink:href="#DejaVuSans-30" x="63.623047"/>
     <use xlink:href="#DejaVuSans-2c" x="127.246094"/>
     <use xlink:href="#DejaVuSans-20" x="159.033203"/>
     <use xlink:href="#DejaVuSans-35" x="190.820312"/>
     <use xlink:href="#DejaVuSans-2c" x="254.443359"/>
     <use xlink:href="#DejaVuSans-20" x="286.230469"/>
     <use xlink:href="#DejaVuSans-31" x="318.017578"/>
     <use xlink:href="#DejaVuSans-35" x="381.640625"/>
     <use xlink:href="#DejaVuSans-20" x="445.263672"/>
     <use xlink:href="#DejaVuSans-69" x="477.050781"/>
     <use xlink:href="#DejaVuSans-6e" x="504.833984"/>
     <use xlink:href="#DejaVuSans-73" x="568.212891"/>
     <use xlink:href="#DejaVuSans-74" x="620.3125"/>
     <use xlink:href="#DejaVuSans-61" x="659.521484"/>
     <use xlink:href="#DejaVuSans-6e" x="720.800781"/>
     <use xlink:href="#DejaVuSans-63" x="784.179688"/>
     <use xlink:href="#DejaVuSans-65" x="839.160156"/>
     <use xlink:href="#DejaVuSans-73" x="900.683594"/>
    </g>
   </g>
   <g id="text_20">
    <!-- v2.6 -->
    <g style="fill: #808080" transform="translate(198.292262 294.151352)scale(0.1 -0.1)">
     <use xlink:href="#DejaVuSans-76"/>
     <use xlink:href="#DejaVuSans-32" x="59.179688"/>
     <use xlink:href="#DejaVuSans-2e" x="122.802734"/>
     <use xlink:href="#DejaVuSans-36" x="154.589844"/>
    </g>
   </g>
   <g id="text_21">
    <!-- 9 Rosenbrock rotated -->
    <g transform="translate(102.050075 21.648)scale(0.2 -0.2)">
     <defs>
      <path id="DejaVuSans-52" d="M 2841 2188 
Q 3044 2119 3236 1894 
Q 3428 1669 3622 1275 
L 4263 0 
L 3584 0 
L 2988 1197 
Q 2756 1666 2539 1819 
Q 2322 1972 1947 1972 
L 1259 1972 
L 1259 0 
L 628 0 
L 628 4666 
L 2053 4666 
Q 2853 4666 3247 4331 
Q 3641 3997 3641 3322 
Q 3641 2881 3436 2590 
Q 3231 2300 2841 2188 
z
M 1259 4147 
L 1259 2491 
L 2053 2491 
Q 2509 2491 2742 2702 
Q 2975 2913 2975 3322 
Q 2975 3731 2742 3939 
Q 2509 4147 2053 4147 
L 1259 4147 
z
" transform="scale(0.015625)"/>
      <path id="DejaVuSans-6b" d="M 581 4863 
L 1159 4863 
L 1159 1991 
L 2875 3500 
L 3609 3500 
L 1753 1863 
L 3688 0 
L 2938 0 
L 1159 1709 
L 1159 0 
L 581 0 
L 581 4863 
z
" transform="scale(0.015625)"/>
     </defs>
     <use xlink:href="#DejaVuSans-39"/>
     <use xlink:href="#DejaVuSans-20" x="63.623047"/>
     <use xlink:href="#DejaVuSans-52" x="95.410156"/>
     <use xlink:href="#DejaVuSans-6f" x="160.392578"/>
     <use xlink:href="#DejaVuSans-73" x="221.574219"/>
     <use xlink:href="#DejaVuSans-65" x="273.673828"/>
     <use xlink:href="#DejaVuSans-6e" x="335.197266"/>
     <use xlink:href="#DejaVuSans-62" x="398.576172"/>
     <use xlink:href="#DejaVuSans-72" x="462.052734"/>
     <use xlink:href="#DejaVuSans-6f" x="500.916016"/>
     <use xlink:href="#DejaVuSans-63" x="562.097656"/>
     <use xlink:href="#DejaVuSans-6b" x="617.078125"/>
     <use xlink:href="#DejaVuSans-20" x="674.988281"/>
     <use xlink:href="#DejaVuSans-72" x="706.775391"/>
     <use xlink:href="#DejaVuSans-6f" x="745.638672"/>
     <use xlink:href="#DejaVuSans-74" x="806.820312"/>
     <use xlink:href="#DejaVuSans-61" x="846.029297"/>
     <use xlink:href="#DejaVuSans-74" x="907.308594"/>
     <use xlink:href="#DejaVuSans-65" x="946.517578"/>
     <use xlink:href="#DejaVuSans-64" x="1008.041016"/>
    </g>
   </g>
  </g>
 </g>
 <defs>
  <clipPath id="p1a0dd34b8e">
   <rect x="57.6" y="27.648" width="303.2064" height="271.296"/>
  </clipPath>
 </defs>
</svg>
