<?xml version="1.0" encoding="utf-8" standalone="no"?>
<!DOCTYPE svg PUBLIC "-//W3C//DTD SVG 1.1//EN"
  "http://www.w3.org/Graphics/SVG/1.1/DTD/svg11.dtd">
<svg xmlns:xlink="http://www.w3.org/1999/xlink" width="460.8pt" height="345.6pt" viewBox="0 0 460.8 345.6" xmlns="http://www.w3.org/2000/svg" version="1.1">
 <metadata>
  <rdf:RDF xmlns:dc="http://purl.org/dc/elements/1.1/" xmlns:cc="http://creativecommons.org/ns#" xmlns:rdf="http://www.w3.org/1999/02/22-rdf-syntax-ns#">
   <cc:Work>
    <dc:type rdf:resource="http://purl.org/dc/dcmitype/StillImage"/>
    <dc:date>2022-03-21T12:44:04.279026</dc:date>
    <dc:format>image/svg+xml</dc:format>
    <dc:creator>
     <cc:Agent>
      <dc:title>Matplotlib v3.5.1, https://matplotlib.org/</dc:title>
     </cc:Agent>
    </dc:creator>
   </cc:Work>
  </rdf:RDF>
 </metadata>
 <defs>
  <style type="text/css">*{stroke-linejoin: round; stroke-linecap: butt}</style>
 </defs>
 <g id="figure_1">
  <g id="patch_1">
   <path d="M 0 345.6 
L 460.8 345.6 
L 460.8 0 
L 0 0 
z
" style="fill: #ffffff"/>
  </g>
  <g id="axes_1">
   <g id="patch_2">
    <path d="M 57.6 298.944 
L 360.8064 298.944 
L 360.8064 27.648 
L 57.6 27.648 
z
" style="fill: #ffffff"/>
   </g>
   <g id="line2d_1">
    <path d="M 49.972572 298.944 
L 49.972572 293.624471 
L 70.639174 293.624471 
L 70.639174 288.304941 
L 83.678349 288.304941 
L 83.678349 282.985412 
L 94.205591 282.985412 
L 94.205591 277.665882 
L 116.308887 277.665882 
L 116.308887 272.346353 
L 127.149662 272.346353 
L 127.149662 267.026824 
L 138.481218 267.026824 
L 138.481218 261.707294 
L 149.73597 261.707294 
L 149.73597 256.387765 
L 157.764644 256.387765 
L 157.764644 251.068235 
L 172.426636 251.068235 
L 172.426636 245.748706 
L 172.828518 245.748706 
L 172.828518 240.429176 
L 201.137777 240.429176 
L 201.137777 235.109647 
L 201.189462 235.109647 
L 201.189462 229.790118 
L 201.262187 229.790118 
L 201.262187 224.470588 
L 201.358718 224.470588 
L 201.358718 219.151059 
L 201.45775 219.151059 
L 201.45775 213.831529 
L 201.514533 213.831529 
L 201.514533 208.512 
L 202.254746 208.512 
L 202.254746 203.192471 
L 206.451849 203.192471 
L 206.451849 197.872941 
L 206.559415 197.872941 
L 206.559415 192.553412 
L 206.648208 192.553412 
L 206.648208 187.233882 
L 206.686782 187.233882 
L 206.686782 181.914353 
L 206.761436 181.914353 
L 206.761436 176.594824 
L 206.829047 176.594824 
L 206.829047 171.275294 
L 206.918818 171.275294 
L 206.918818 165.955765 
L 206.979172 165.955765 
L 206.979172 160.636235 
L 207.003706 160.636235 
L 207.003706 155.316706 
L 207.094868 155.316706 
L 207.094868 149.997176 
L 207.176758 149.997176 
L 207.176758 144.677647 
L 207.229686 144.677647 
L 207.229686 139.358118 
L 207.330718 139.358118 
L 207.330718 134.038588 
L 207.439922 134.038588 
L 207.439922 128.719059 
L 207.522496 128.719059 
L 207.522496 123.399529 
L 207.565811 123.399529 
L 207.565811 118.08 
L 207.649989 118.08 
L 207.649989 112.760471 
L 207.761643 112.760471 
L 207.761643 107.440941 
L 207.793728 107.440941 
L 207.793728 102.121412 
L 207.857735 102.121412 
L 207.857735 96.801882 
L 207.915155 96.801882 
L 207.915155 91.482353 
L 208.02314 91.482353 
L 208.02314 86.162824 
L 208.035804 86.162824 
L 208.035804 80.843294 
L 208.109504 80.843294 
L 208.109504 75.523765 
L 208.161971 75.523765 
L 208.161971 70.204235 
L 208.214293 70.204235 
L 208.214293 64.884706 
L 208.285217 64.884706 
L 208.285217 59.565176 
L 208.297705 59.565176 
L 208.297705 54.245647 
L 208.393174 54.245647 
L 208.393174 48.926118 
L 208.47786 48.926118 
L 208.47786 43.606588 
L 208.588819 43.606588 
L 208.588819 38.287059 
L 208.631793 38.287059 
L 208.631793 32.967529 
L 208.731687 32.967529 
L 208.731687 27.648 
L 360.8064 27.648 
" style="fill: none; stroke: #f5deb3; stroke-width: 4; stroke-linecap: square"/>
   </g>
   <g id="line2d_2">
    <defs>
     <path id="mc288d24db2" d="M -0 7.778175 
L 7.778175 0 
L 0 -7.778175 
L -7.778175 -0 
z
" style="stroke: #f5deb3; stroke-width: 1.5; stroke-linejoin: miter"/>
    </defs>
    <g>
     <use xlink:href="#mc288d24db2" x="94.205591" y="277.665882" style="fill: #f5deb3; stroke: #f5deb3; stroke-width: 1.5; stroke-linejoin: miter"/>
     <use xlink:href="#mc288d24db2" x="201.514533" y="208.512" style="fill: #f5deb3; stroke: #f5deb3; stroke-width: 1.5; stroke-linejoin: miter"/>
     <use xlink:href="#mc288d24db2" x="207.565811" y="118.08" style="fill: #f5deb3; stroke: #f5deb3; stroke-width: 1.5; stroke-linejoin: miter"/>
     <use xlink:href="#mc288d24db2" x="208.731687" y="32.967529" style="fill: #f5deb3; stroke: #f5deb3; stroke-width: 1.5; stroke-linejoin: miter"/>
     <use xlink:href="#mc288d24db2" x="208.731687" y="27.648" style="fill: #f5deb3; stroke: #f5deb3; stroke-width: 1.5; stroke-linejoin: miter"/>
     <use xlink:href="#mc288d24db2" x="360.8064" y="27.648" style="fill: #f5deb3; stroke: #f5deb3; stroke-width: 1.5; stroke-linejoin: miter"/>
    </g>
   </g>
   <g id="line2d_3">
    <path style="fill: none; stroke: #f5deb3; stroke-width: 4; stroke-linecap: square"/>
    <g/>
   </g>
   <g id="line2d_4">
    <path d="M 360.8064 27.648 
L 380.514816 85.162752 
" style="fill: none; stroke: #f5deb3; stroke-width: 4; stroke-linecap: square"/>
    <g>
     <use xlink:href="#mc288d24db2" x="360.8064" y="27.648" style="fill: #f5deb3; stroke: #f5deb3; stroke-width: 1.5; stroke-linejoin: miter"/>
     <use xlink:href="#mc288d24db2" x="380.514816" y="85.162752" style="fill: #f5deb3; stroke: #f5deb3; stroke-width: 1.5; stroke-linejoin: miter"/>
    </g>
   </g>
   <g id="matplotlib.axis_1">
    <g id="xtick_1">
     <g id="line2d_5">
      <path d="M 57.6 298.944 
L 57.6 27.648 
" clip-path="url(#p12fb6275de)" style="fill: none; stroke: #b0b0b0; stroke-width: 0.8; stroke-linecap: square"/>
     </g>
     <g id="line2d_6">
      <defs>
       <path id="m12ccdaf41a" d="M 0 0 
L 0 3.5 
" style="stroke: #000000; stroke-width: 0.8"/>
      </defs>
      <g>
       <use xlink:href="#m12ccdaf41a" x="57.6" y="298.944" style="stroke: #000000; stroke-width: 0.8"/>
      </g>
     </g>
     <g id="text_1">
      <!-- 0 -->
      <g transform="translate(52.191875 318.861344)scale(0.17 -0.17)">
       <defs>
        <path id="DejaVuSans-30" d="M 2034 4250 
Q 1547 4250 1301 3770 
Q 1056 3291 1056 2328 
Q 1056 1369 1301 889 
Q 1547 409 2034 409 
Q 2525 409 2770 889 
Q 3016 1369 3016 2328 
Q 3016 3291 2770 3770 
Q 2525 4250 2034 4250 
z
M 2034 4750 
Q 2819 4750 3233 4129 
Q 3647 3509 3647 2328 
Q 3647 1150 3233 529 
Q 2819 -91 2034 -91 
Q 1250 -91 836 529 
Q 422 1150 422 2328 
Q 422 3509 836 4129 
Q 1250 4750 2034 4750 
z
" transform="scale(0.015625)"/>
       </defs>
       <use xlink:href="#DejaVuSans-30"/>
      </g>
     </g>
    </g>
    <g id="xtick_2">
     <g id="line2d_7">
      <path d="M 144.2304 298.944 
L 144.2304 27.648 
" clip-path="url(#p12fb6275de)" style="fill: none; stroke: #b0b0b0; stroke-width: 0.8; stroke-linecap: square"/>
     </g>
     <g id="line2d_8">
      <g>
       <use xlink:href="#m12ccdaf41a" x="144.2304" y="298.944" style="stroke: #000000; stroke-width: 0.8"/>
      </g>
     </g>
     <g id="text_2">
      <!-- 2 -->
      <g transform="translate(138.822275 318.861344)scale(0.17 -0.17)">
       <defs>
        <path id="DejaVuSans-32" d="M 1228 531 
L 3431 531 
L 3431 0 
L 469 0 
L 469 531 
Q 828 903 1448 1529 
Q 2069 2156 2228 2338 
Q 2531 2678 2651 2914 
Q 2772 3150 2772 3378 
Q 2772 3750 2511 3984 
Q 2250 4219 1831 4219 
Q 1534 4219 1204 4116 
Q 875 4013 500 3803 
L 500 4441 
Q 881 4594 1212 4672 
Q 1544 4750 1819 4750 
Q 2544 4750 2975 4387 
Q 3406 4025 3406 3419 
Q 3406 3131 3298 2873 
Q 3191 2616 2906 2266 
Q 2828 2175 2409 1742 
Q 1991 1309 1228 531 
z
" transform="scale(0.015625)"/>
       </defs>
       <use xlink:href="#DejaVuSans-32"/>
      </g>
     </g>
    </g>
    <g id="xtick_3">
     <g id="line2d_9">
      <path d="M 230.8608 298.944 
L 230.8608 27.648 
" clip-path="url(#p12fb6275de)" style="fill: none; stroke: #b0b0b0; stroke-width: 0.8; stroke-linecap: square"/>
     </g>
     <g id="line2d_10">
      <g>
       <use xlink:href="#m12ccdaf41a" x="230.8608" y="298.944" style="stroke: #000000; stroke-width: 0.8"/>
      </g>
     </g>
     <g id="text_3">
      <!-- 4 -->
      <g transform="translate(225.452675 318.861344)scale(0.17 -0.17)">
       <defs>
        <path id="DejaVuSans-34" d="M 2419 4116 
L 825 1625 
L 2419 1625 
L 2419 4116 
z
M 2253 4666 
L 3047 4666 
L 3047 1625 
L 3713 1625 
L 3713 1100 
L 3047 1100 
L 3047 0 
L 2419 0 
L 2419 1100 
L 313 1100 
L 313 1709 
L 2253 4666 
z
" transform="scale(0.015625)"/>
       </defs>
       <use xlink:href="#DejaVuSans-34"/>
      </g>
     </g>
    </g>
    <g id="xtick_4">
     <g id="line2d_11">
      <path d="M 317.4912 298.944 
L 317.4912 27.648 
" clip-path="url(#p12fb6275de)" style="fill: none; stroke: #b0b0b0; stroke-width: 0.8; stroke-linecap: square"/>
     </g>
     <g id="line2d_12">
      <g>
       <use xlink:href="#m12ccdaf41a" x="317.4912" y="298.944" style="stroke: #000000; stroke-width: 0.8"/>
      </g>
     </g>
     <g id="text_4">
      <!-- 6 -->
      <g transform="translate(312.083075 318.861344)scale(0.17 -0.17)">
       <defs>
        <path id="DejaVuSans-36" d="M 2113 2584 
Q 1688 2584 1439 2293 
Q 1191 2003 1191 1497 
Q 1191 994 1439 701 
Q 1688 409 2113 409 
Q 2538 409 2786 701 
Q 3034 994 3034 1497 
Q 3034 2003 2786 2293 
Q 2538 2584 2113 2584 
z
M 3366 4563 
L 3366 3988 
Q 3128 4100 2886 4159 
Q 2644 4219 2406 4219 
Q 1781 4219 1451 3797 
Q 1122 3375 1075 2522 
Q 1259 2794 1537 2939 
Q 1816 3084 2150 3084 
Q 2853 3084 3261 2657 
Q 3669 2231 3669 1497 
Q 3669 778 3244 343 
Q 2819 -91 2113 -91 
Q 1303 -91 875 529 
Q 447 1150 447 2328 
Q 447 3434 972 4092 
Q 1497 4750 2381 4750 
Q 2619 4750 2861 4703 
Q 3103 4656 3366 4563 
z
" transform="scale(0.015625)"/>
       </defs>
       <use xlink:href="#DejaVuSans-36"/>
      </g>
     </g>
    </g>
    <g id="xtick_5">
     <g id="line2d_13">
      <path d="M 100.9152 298.944 
L 100.9152 27.648 
" clip-path="url(#p12fb6275de)" style="fill: none; stroke: #b0b0b0; stroke-width: 0.8; stroke-linecap: square"/>
     </g>
     <g id="line2d_14">
      <defs>
       <path id="mc2d02fb83d" d="M 0 0 
L 0 2 
" style="stroke: #000000; stroke-width: 0.6"/>
      </defs>
      <g>
       <use xlink:href="#mc2d02fb83d" x="100.9152" y="298.944" style="stroke: #000000; stroke-width: 0.6"/>
      </g>
     </g>
    </g>
    <g id="xtick_6">
     <g id="line2d_15">
      <path d="M 187.5456 298.944 
L 187.5456 27.648 
" clip-path="url(#p12fb6275de)" style="fill: none; stroke: #b0b0b0; stroke-width: 0.8; stroke-linecap: square"/>
     </g>
     <g id="line2d_16">
      <g>
       <use xlink:href="#mc2d02fb83d" x="187.5456" y="298.944" style="stroke: #000000; stroke-width: 0.6"/>
      </g>
     </g>
    </g>
    <g id="xtick_7">
     <g id="line2d_17">
      <path d="M 274.176 298.944 
L 274.176 27.648 
" clip-path="url(#p12fb6275de)" style="fill: none; stroke: #b0b0b0; stroke-width: 0.8; stroke-linecap: square"/>
     </g>
     <g id="line2d_18">
      <g>
       <use xlink:href="#mc2d02fb83d" x="274.176" y="298.944" style="stroke: #000000; stroke-width: 0.6"/>
      </g>
     </g>
    </g>
    <g id="xtick_8">
     <g id="line2d_19">
      <path d="M 360.8064 298.944 
L 360.8064 27.648 
" clip-path="url(#p12fb6275de)" style="fill: none; stroke: #b0b0b0; stroke-width: 0.8; stroke-linecap: square"/>
     </g>
     <g id="line2d_20">
      <g>
       <use xlink:href="#mc2d02fb83d" x="360.8064" y="298.944" style="stroke: #000000; stroke-width: 0.6"/>
      </g>
     </g>
    </g>
    <g id="text_5">
     <!-- log10(# f-evals / dimension) -->
     <g transform="translate(88.823278 339.314156)scale(0.17 -0.17)">
      <defs>
       <path id="DejaVuSans-6c" d="M 603 4863 
L 1178 4863 
L 1178 0 
L 603 0 
L 603 4863 
z
" transform="scale(0.015625)"/>
       <path id="DejaVuSans-6f" d="M 1959 3097 
Q 1497 3097 1228 2736 
Q 959 2375 959 1747 
Q 959 1119 1226 758 
Q 1494 397 1959 397 
Q 2419 397 2687 759 
Q 2956 1122 2956 1747 
Q 2956 2369 2687 2733 
Q 2419 3097 1959 3097 
z
M 1959 3584 
Q 2709 3584 3137 3096 
Q 3566 2609 3566 1747 
Q 3566 888 3137 398 
Q 2709 -91 1959 -91 
Q 1206 -91 779 398 
Q 353 888 353 1747 
Q 353 2609 779 3096 
Q 1206 3584 1959 3584 
z
" transform="scale(0.015625)"/>
       <path id="DejaVuSans-67" d="M 2906 1791 
Q 2906 2416 2648 2759 
Q 2391 3103 1925 3103 
Q 1463 3103 1205 2759 
Q 947 2416 947 1791 
Q 947 1169 1205 825 
Q 1463 481 1925 481 
Q 2391 481 2648 825 
Q 2906 1169 2906 1791 
z
M 3481 434 
Q 3481 -459 3084 -895 
Q 2688 -1331 1869 -1331 
Q 1566 -1331 1297 -1286 
Q 1028 -1241 775 -1147 
L 775 -588 
Q 1028 -725 1275 -790 
Q 1522 -856 1778 -856 
Q 2344 -856 2625 -561 
Q 2906 -266 2906 331 
L 2906 616 
Q 2728 306 2450 153 
Q 2172 0 1784 0 
Q 1141 0 747 490 
Q 353 981 353 1791 
Q 353 2603 747 3093 
Q 1141 3584 1784 3584 
Q 2172 3584 2450 3431 
Q 2728 3278 2906 2969 
L 2906 3500 
L 3481 3500 
L 3481 434 
z
" transform="scale(0.015625)"/>
       <path id="DejaVuSans-31" d="M 794 531 
L 1825 531 
L 1825 4091 
L 703 3866 
L 703 4441 
L 1819 4666 
L 2450 4666 
L 2450 531 
L 3481 531 
L 3481 0 
L 794 0 
L 794 531 
z
" transform="scale(0.015625)"/>
       <path id="DejaVuSans-28" d="M 1984 4856 
Q 1566 4138 1362 3434 
Q 1159 2731 1159 2009 
Q 1159 1288 1364 580 
Q 1569 -128 1984 -844 
L 1484 -844 
Q 1016 -109 783 600 
Q 550 1309 550 2009 
Q 550 2706 781 3412 
Q 1013 4119 1484 4856 
L 1984 4856 
z
" transform="scale(0.015625)"/>
       <path id="DejaVuSans-23" d="M 3272 2816 
L 2363 2816 
L 2100 1772 
L 3016 1772 
L 3272 2816 
z
M 2803 4594 
L 2478 3297 
L 3391 3297 
L 3719 4594 
L 4219 4594 
L 3897 3297 
L 4872 3297 
L 4872 2816 
L 3775 2816 
L 3519 1772 
L 4513 1772 
L 4513 1294 
L 3397 1294 
L 3072 0 
L 2572 0 
L 2894 1294 
L 1978 1294 
L 1656 0 
L 1153 0 
L 1478 1294 
L 494 1294 
L 494 1772 
L 1594 1772 
L 1856 2816 
L 850 2816 
L 850 3297 
L 1978 3297 
L 2297 4594 
L 2803 4594 
z
" transform="scale(0.015625)"/>
       <path id="DejaVuSans-20" transform="scale(0.015625)"/>
       <path id="DejaVuSans-66" d="M 2375 4863 
L 2375 4384 
L 1825 4384 
Q 1516 4384 1395 4259 
Q 1275 4134 1275 3809 
L 1275 3500 
L 2222 3500 
L 2222 3053 
L 1275 3053 
L 1275 0 
L 697 0 
L 697 3053 
L 147 3053 
L 147 3500 
L 697 3500 
L 697 3744 
Q 697 4328 969 4595 
Q 1241 4863 1831 4863 
L 2375 4863 
z
" transform="scale(0.015625)"/>
       <path id="DejaVuSans-2d" d="M 313 2009 
L 1997 2009 
L 1997 1497 
L 313 1497 
L 313 2009 
z
" transform="scale(0.015625)"/>
       <path id="DejaVuSans-65" d="M 3597 1894 
L 3597 1613 
L 953 1613 
Q 991 1019 1311 708 
Q 1631 397 2203 397 
Q 2534 397 2845 478 
Q 3156 559 3463 722 
L 3463 178 
Q 3153 47 2828 -22 
Q 2503 -91 2169 -91 
Q 1331 -91 842 396 
Q 353 884 353 1716 
Q 353 2575 817 3079 
Q 1281 3584 2069 3584 
Q 2775 3584 3186 3129 
Q 3597 2675 3597 1894 
z
M 3022 2063 
Q 3016 2534 2758 2815 
Q 2500 3097 2075 3097 
Q 1594 3097 1305 2825 
Q 1016 2553 972 2059 
L 3022 2063 
z
" transform="scale(0.015625)"/>
       <path id="DejaVuSans-76" d="M 191 3500 
L 800 3500 
L 1894 563 
L 2988 3500 
L 3597 3500 
L 2284 0 
L 1503 0 
L 191 3500 
z
" transform="scale(0.015625)"/>
       <path id="DejaVuSans-61" d="M 2194 1759 
Q 1497 1759 1228 1600 
Q 959 1441 959 1056 
Q 959 750 1161 570 
Q 1363 391 1709 391 
Q 2188 391 2477 730 
Q 2766 1069 2766 1631 
L 2766 1759 
L 2194 1759 
z
M 3341 1997 
L 3341 0 
L 2766 0 
L 2766 531 
Q 2569 213 2275 61 
Q 1981 -91 1556 -91 
Q 1019 -91 701 211 
Q 384 513 384 1019 
Q 384 1609 779 1909 
Q 1175 2209 1959 2209 
L 2766 2209 
L 2766 2266 
Q 2766 2663 2505 2880 
Q 2244 3097 1772 3097 
Q 1472 3097 1187 3025 
Q 903 2953 641 2809 
L 641 3341 
Q 956 3463 1253 3523 
Q 1550 3584 1831 3584 
Q 2591 3584 2966 3190 
Q 3341 2797 3341 1997 
z
" transform="scale(0.015625)"/>
       <path id="DejaVuSans-73" d="M 2834 3397 
L 2834 2853 
Q 2591 2978 2328 3040 
Q 2066 3103 1784 3103 
Q 1356 3103 1142 2972 
Q 928 2841 928 2578 
Q 928 2378 1081 2264 
Q 1234 2150 1697 2047 
L 1894 2003 
Q 2506 1872 2764 1633 
Q 3022 1394 3022 966 
Q 3022 478 2636 193 
Q 2250 -91 1575 -91 
Q 1294 -91 989 -36 
Q 684 19 347 128 
L 347 722 
Q 666 556 975 473 
Q 1284 391 1588 391 
Q 1994 391 2212 530 
Q 2431 669 2431 922 
Q 2431 1156 2273 1281 
Q 2116 1406 1581 1522 
L 1381 1569 
Q 847 1681 609 1914 
Q 372 2147 372 2553 
Q 372 3047 722 3315 
Q 1072 3584 1716 3584 
Q 2034 3584 2315 3537 
Q 2597 3491 2834 3397 
z
" transform="scale(0.015625)"/>
       <path id="DejaVuSans-2f" d="M 1625 4666 
L 2156 4666 
L 531 -594 
L 0 -594 
L 1625 4666 
z
" transform="scale(0.015625)"/>
       <path id="DejaVuSans-64" d="M 2906 2969 
L 2906 4863 
L 3481 4863 
L 3481 0 
L 2906 0 
L 2906 525 
Q 2725 213 2448 61 
Q 2172 -91 1784 -91 
Q 1150 -91 751 415 
Q 353 922 353 1747 
Q 353 2572 751 3078 
Q 1150 3584 1784 3584 
Q 2172 3584 2448 3432 
Q 2725 3281 2906 2969 
z
M 947 1747 
Q 947 1113 1208 752 
Q 1469 391 1925 391 
Q 2381 391 2643 752 
Q 2906 1113 2906 1747 
Q 2906 2381 2643 2742 
Q 2381 3103 1925 3103 
Q 1469 3103 1208 2742 
Q 947 2381 947 1747 
z
" transform="scale(0.015625)"/>
       <path id="DejaVuSans-69" d="M 603 3500 
L 1178 3500 
L 1178 0 
L 603 0 
L 603 3500 
z
M 603 4863 
L 1178 4863 
L 1178 4134 
L 603 4134 
L 603 4863 
z
" transform="scale(0.015625)"/>
       <path id="DejaVuSans-6d" d="M 3328 2828 
Q 3544 3216 3844 3400 
Q 4144 3584 4550 3584 
Q 5097 3584 5394 3201 
Q 5691 2819 5691 2113 
L 5691 0 
L 5113 0 
L 5113 2094 
Q 5113 2597 4934 2840 
Q 4756 3084 4391 3084 
Q 3944 3084 3684 2787 
Q 3425 2491 3425 1978 
L 3425 0 
L 2847 0 
L 2847 2094 
Q 2847 2600 2669 2842 
Q 2491 3084 2119 3084 
Q 1678 3084 1418 2786 
Q 1159 2488 1159 1978 
L 1159 0 
L 581 0 
L 581 3500 
L 1159 3500 
L 1159 2956 
Q 1356 3278 1631 3431 
Q 1906 3584 2284 3584 
Q 2666 3584 2933 3390 
Q 3200 3197 3328 2828 
z
" transform="scale(0.015625)"/>
       <path id="DejaVuSans-6e" d="M 3513 2113 
L 3513 0 
L 2938 0 
L 2938 2094 
Q 2938 2591 2744 2837 
Q 2550 3084 2163 3084 
Q 1697 3084 1428 2787 
Q 1159 2491 1159 1978 
L 1159 0 
L 581 0 
L 581 3500 
L 1159 3500 
L 1159 2956 
Q 1366 3272 1645 3428 
Q 1925 3584 2291 3584 
Q 2894 3584 3203 3211 
Q 3513 2838 3513 2113 
z
" transform="scale(0.015625)"/>
       <path id="DejaVuSans-29" d="M 513 4856 
L 1013 4856 
Q 1481 4119 1714 3412 
Q 1947 2706 1947 2009 
Q 1947 1309 1714 600 
Q 1481 -109 1013 -844 
L 513 -844 
Q 928 -128 1133 580 
Q 1338 1288 1338 2009 
Q 1338 2731 1133 3434 
Q 928 4138 513 4856 
z
" transform="scale(0.015625)"/>
      </defs>
      <use xlink:href="#DejaVuSans-6c"/>
      <use xlink:href="#DejaVuSans-6f" x="27.783203"/>
      <use xlink:href="#DejaVuSans-67" x="88.964844"/>
      <use xlink:href="#DejaVuSans-31" x="152.441406"/>
      <use xlink:href="#DejaVuSans-30" x="216.064453"/>
      <use xlink:href="#DejaVuSans-28" x="279.6875"/>
      <use xlink:href="#DejaVuSans-23" x="318.701172"/>
      <use xlink:href="#DejaVuSans-20" x="402.490234"/>
      <use xlink:href="#DejaVuSans-66" x="434.277344"/>
      <use xlink:href="#DejaVuSans-2d" x="463.982422"/>
      <use xlink:href="#DejaVuSans-65" x="500.066406"/>
      <use xlink:href="#DejaVuSans-76" x="561.589844"/>
      <use xlink:href="#DejaVuSans-61" x="620.769531"/>
      <use xlink:href="#DejaVuSans-6c" x="682.048828"/>
      <use xlink:href="#DejaVuSans-73" x="709.832031"/>
      <use xlink:href="#DejaVuSans-20" x="761.931641"/>
      <use xlink:href="#DejaVuSans-2f" x="793.71875"/>
      <use xlink:href="#DejaVuSans-20" x="827.410156"/>
      <use xlink:href="#DejaVuSans-64" x="859.197266"/>
      <use xlink:href="#DejaVuSans-69" x="922.673828"/>
      <use xlink:href="#DejaVuSans-6d" x="950.457031"/>
      <use xlink:href="#DejaVuSans-65" x="1047.869141"/>
      <use xlink:href="#DejaVuSans-6e" x="1109.392578"/>
      <use xlink:href="#DejaVuSans-73" x="1172.771484"/>
      <use xlink:href="#DejaVuSans-69" x="1224.871094"/>
      <use xlink:href="#DejaVuSans-6f" x="1252.654297"/>
      <use xlink:href="#DejaVuSans-6e" x="1313.835938"/>
      <use xlink:href="#DejaVuSans-29" x="1377.214844"/>
     </g>
    </g>
   </g>
   <g id="matplotlib.axis_2">
    <g id="ytick_1">
     <g id="line2d_21">
      <path d="M 57.6 298.944 
L 360.8064 298.944 
" clip-path="url(#p12fb6275de)" style="fill: none; stroke: #b0b0b0; stroke-width: 0.8; stroke-linecap: square"/>
     </g>
     <g id="line2d_22">
      <defs>
       <path id="m013d3351ef" d="M 0 0 
L -3.5 0 
" style="stroke: #000000; stroke-width: 0.8"/>
      </defs>
      <g>
       <use xlink:href="#m013d3351ef" x="57.6" y="298.944" style="stroke: #000000; stroke-width: 0.8"/>
      </g>
     </g>
     <g id="text_6">
      <!-- 0.0 -->
      <g transform="translate(25.155 305.02275)scale(0.16 -0.16)">
       <defs>
        <path id="DejaVuSans-2e" d="M 684 794 
L 1344 794 
L 1344 0 
L 684 0 
L 684 794 
z
" transform="scale(0.015625)"/>
       </defs>
       <use xlink:href="#DejaVuSans-30"/>
       <use xlink:href="#DejaVuSans-2e" x="63.623047"/>
       <use xlink:href="#DejaVuSans-30" x="95.410156"/>
      </g>
     </g>
    </g>
    <g id="ytick_2">
     <g id="line2d_23">
      <path d="M 57.6 244.6848 
L 360.8064 244.6848 
" clip-path="url(#p12fb6275de)" style="fill: none; stroke: #b0b0b0; stroke-width: 0.8; stroke-linecap: square"/>
     </g>
     <g id="line2d_24">
      <g>
       <use xlink:href="#m013d3351ef" x="57.6" y="244.6848" style="stroke: #000000; stroke-width: 0.8"/>
      </g>
     </g>
     <g id="text_7">
      <!-- 0.2 -->
      <g transform="translate(25.155 250.76355)scale(0.16 -0.16)">
       <use xlink:href="#DejaVuSans-30"/>
       <use xlink:href="#DejaVuSans-2e" x="63.623047"/>
       <use xlink:href="#DejaVuSans-32" x="95.410156"/>
      </g>
     </g>
    </g>
    <g id="ytick_3">
     <g id="line2d_25">
      <path d="M 57.6 190.4256 
L 360.8064 190.4256 
" clip-path="url(#p12fb6275de)" style="fill: none; stroke: #b0b0b0; stroke-width: 0.8; stroke-linecap: square"/>
     </g>
     <g id="line2d_26">
      <g>
       <use xlink:href="#m013d3351ef" x="57.6" y="190.4256" style="stroke: #000000; stroke-width: 0.8"/>
      </g>
     </g>
     <g id="text_8">
      <!-- 0.4 -->
      <g transform="translate(25.155 196.50435)scale(0.16 -0.16)">
       <use xlink:href="#DejaVuSans-30"/>
       <use xlink:href="#DejaVuSans-2e" x="63.623047"/>
       <use xlink:href="#DejaVuSans-34" x="95.410156"/>
      </g>
     </g>
    </g>
    <g id="ytick_4">
     <g id="line2d_27">
      <path d="M 57.6 136.1664 
L 360.8064 136.1664 
" clip-path="url(#p12fb6275de)" style="fill: none; stroke: #b0b0b0; stroke-width: 0.8; stroke-linecap: square"/>
     </g>
     <g id="line2d_28">
      <g>
       <use xlink:href="#m013d3351ef" x="57.6" y="136.1664" style="stroke: #000000; stroke-width: 0.8"/>
      </g>
     </g>
     <g id="text_9">
      <!-- 0.6 -->
      <g transform="translate(25.155 142.24515)scale(0.16 -0.16)">
       <use xlink:href="#DejaVuSans-30"/>
       <use xlink:href="#DejaVuSans-2e" x="63.623047"/>
       <use xlink:href="#DejaVuSans-36" x="95.410156"/>
      </g>
     </g>
    </g>
    <g id="ytick_5">
     <g id="line2d_29">
      <path d="M 57.6 81.9072 
L 360.8064 81.9072 
" clip-path="url(#p12fb6275de)" style="fill: none; stroke: #b0b0b0; stroke-width: 0.8; stroke-linecap: square"/>
     </g>
     <g id="line2d_30">
      <g>
       <use xlink:href="#m013d3351ef" x="57.6" y="81.9072" style="stroke: #000000; stroke-width: 0.8"/>
      </g>
     </g>
     <g id="text_10">
      <!-- 0.8 -->
      <g transform="translate(25.155 87.98595)scale(0.16 -0.16)">
       <defs>
        <path id="DejaVuSans-38" d="M 2034 2216 
Q 1584 2216 1326 1975 
Q 1069 1734 1069 1313 
Q 1069 891 1326 650 
Q 1584 409 2034 409 
Q 2484 409 2743 651 
Q 3003 894 3003 1313 
Q 3003 1734 2745 1975 
Q 2488 2216 2034 2216 
z
M 1403 2484 
Q 997 2584 770 2862 
Q 544 3141 544 3541 
Q 544 4100 942 4425 
Q 1341 4750 2034 4750 
Q 2731 4750 3128 4425 
Q 3525 4100 3525 3541 
Q 3525 3141 3298 2862 
Q 3072 2584 2669 2484 
Q 3125 2378 3379 2068 
Q 3634 1759 3634 1313 
Q 3634 634 3220 271 
Q 2806 -91 2034 -91 
Q 1263 -91 848 271 
Q 434 634 434 1313 
Q 434 1759 690 2068 
Q 947 2378 1403 2484 
z
M 1172 3481 
Q 1172 3119 1398 2916 
Q 1625 2713 2034 2713 
Q 2441 2713 2670 2916 
Q 2900 3119 2900 3481 
Q 2900 3844 2670 4047 
Q 2441 4250 2034 4250 
Q 1625 4250 1398 4047 
Q 1172 3844 1172 3481 
z
" transform="scale(0.015625)"/>
       </defs>
       <use xlink:href="#DejaVuSans-30"/>
       <use xlink:href="#DejaVuSans-2e" x="63.623047"/>
       <use xlink:href="#DejaVuSans-38" x="95.410156"/>
      </g>
     </g>
    </g>
    <g id="ytick_6">
     <g id="line2d_31">
      <path d="M 57.6 27.648 
L 360.8064 27.648 
" clip-path="url(#p12fb6275de)" style="fill: none; stroke: #b0b0b0; stroke-width: 0.8; stroke-linecap: square"/>
     </g>
     <g id="line2d_32">
      <g>
       <use xlink:href="#m013d3351ef" x="57.6" y="27.648" style="stroke: #000000; stroke-width: 0.8"/>
      </g>
     </g>
     <g id="text_11">
      <!-- 1.0 -->
      <g transform="translate(25.155 33.72675)scale(0.16 -0.16)">
       <use xlink:href="#DejaVuSans-31"/>
       <use xlink:href="#DejaVuSans-2e" x="63.623047"/>
       <use xlink:href="#DejaVuSans-30" x="95.410156"/>
      </g>
     </g>
    </g>
    <g id="text_12">
     <!-- Fraction of function,target pairs -->
     <g transform="translate(17.619531 297.681)rotate(-90)scale(0.17 -0.17)">
      <defs>
       <path id="DejaVuSans-46" d="M 628 4666 
L 3309 4666 
L 3309 4134 
L 1259 4134 
L 1259 2759 
L 3109 2759 
L 3109 2228 
L 1259 2228 
L 1259 0 
L 628 0 
L 628 4666 
z
" transform="scale(0.015625)"/>
       <path id="DejaVuSans-72" d="M 2631 2963 
Q 2534 3019 2420 3045 
Q 2306 3072 2169 3072 
Q 1681 3072 1420 2755 
Q 1159 2438 1159 1844 
L 1159 0 
L 581 0 
L 581 3500 
L 1159 3500 
L 1159 2956 
Q 1341 3275 1631 3429 
Q 1922 3584 2338 3584 
Q 2397 3584 2469 3576 
Q 2541 3569 2628 3553 
L 2631 2963 
z
" transform="scale(0.015625)"/>
       <path id="DejaVuSans-63" d="M 3122 3366 
L 3122 2828 
Q 2878 2963 2633 3030 
Q 2388 3097 2138 3097 
Q 1578 3097 1268 2742 
Q 959 2388 959 1747 
Q 959 1106 1268 751 
Q 1578 397 2138 397 
Q 2388 397 2633 464 
Q 2878 531 3122 666 
L 3122 134 
Q 2881 22 2623 -34 
Q 2366 -91 2075 -91 
Q 1284 -91 818 406 
Q 353 903 353 1747 
Q 353 2603 823 3093 
Q 1294 3584 2113 3584 
Q 2378 3584 2631 3529 
Q 2884 3475 3122 3366 
z
" transform="scale(0.015625)"/>
       <path id="DejaVuSans-74" d="M 1172 4494 
L 1172 3500 
L 2356 3500 
L 2356 3053 
L 1172 3053 
L 1172 1153 
Q 1172 725 1289 603 
Q 1406 481 1766 481 
L 2356 481 
L 2356 0 
L 1766 0 
Q 1100 0 847 248 
Q 594 497 594 1153 
L 594 3053 
L 172 3053 
L 172 3500 
L 594 3500 
L 594 4494 
L 1172 4494 
z
" transform="scale(0.015625)"/>
       <path id="DejaVuSans-75" d="M 544 1381 
L 544 3500 
L 1119 3500 
L 1119 1403 
Q 1119 906 1312 657 
Q 1506 409 1894 409 
Q 2359 409 2629 706 
Q 2900 1003 2900 1516 
L 2900 3500 
L 3475 3500 
L 3475 0 
L 2900 0 
L 2900 538 
Q 2691 219 2414 64 
Q 2138 -91 1772 -91 
Q 1169 -91 856 284 
Q 544 659 544 1381 
z
M 1991 3584 
L 1991 3584 
z
" transform="scale(0.015625)"/>
       <path id="DejaVuSans-2c" d="M 750 794 
L 1409 794 
L 1409 256 
L 897 -744 
L 494 -744 
L 750 256 
L 750 794 
z
" transform="scale(0.015625)"/>
       <path id="DejaVuSans-70" d="M 1159 525 
L 1159 -1331 
L 581 -1331 
L 581 3500 
L 1159 3500 
L 1159 2969 
Q 1341 3281 1617 3432 
Q 1894 3584 2278 3584 
Q 2916 3584 3314 3078 
Q 3713 2572 3713 1747 
Q 3713 922 3314 415 
Q 2916 -91 2278 -91 
Q 1894 -91 1617 61 
Q 1341 213 1159 525 
z
M 3116 1747 
Q 3116 2381 2855 2742 
Q 2594 3103 2138 3103 
Q 1681 3103 1420 2742 
Q 1159 2381 1159 1747 
Q 1159 1113 1420 752 
Q 1681 391 2138 391 
Q 2594 391 2855 752 
Q 3116 1113 3116 1747 
z
" transform="scale(0.015625)"/>
      </defs>
      <use xlink:href="#DejaVuSans-46"/>
      <use xlink:href="#DejaVuSans-72" x="50.269531"/>
      <use xlink:href="#DejaVuSans-61" x="91.382812"/>
      <use xlink:href="#DejaVuSans-63" x="152.662109"/>
      <use xlink:href="#DejaVuSans-74" x="207.642578"/>
      <use xlink:href="#DejaVuSans-69" x="246.851562"/>
      <use xlink:href="#DejaVuSans-6f" x="274.634766"/>
      <use xlink:href="#DejaVuSans-6e" x="335.816406"/>
      <use xlink:href="#DejaVuSans-20" x="399.195312"/>
      <use xlink:href="#DejaVuSans-6f" x="430.982422"/>
      <use xlink:href="#DejaVuSans-66" x="492.164062"/>
      <use xlink:href="#DejaVuSans-20" x="527.369141"/>
      <use xlink:href="#DejaVuSans-66" x="559.15625"/>
      <use xlink:href="#DejaVuSans-75" x="594.361328"/>
      <use xlink:href="#DejaVuSans-6e" x="657.740234"/>
      <use xlink:href="#DejaVuSans-63" x="721.119141"/>
      <use xlink:href="#DejaVuSans-74" x="776.099609"/>
      <use xlink:href="#DejaVuSans-69" x="815.308594"/>
      <use xlink:href="#DejaVuSans-6f" x="843.091797"/>
      <use xlink:href="#DejaVuSans-6e" x="904.273438"/>
      <use xlink:href="#DejaVuSans-2c" x="967.652344"/>
      <use xlink:href="#DejaVuSans-74" x="999.439453"/>
      <use xlink:href="#DejaVuSans-61" x="1038.648438"/>
      <use xlink:href="#DejaVuSans-72" x="1099.927734"/>
      <use xlink:href="#DejaVuSans-67" x="1139.291016"/>
      <use xlink:href="#DejaVuSans-65" x="1202.767578"/>
      <use xlink:href="#DejaVuSans-74" x="1264.291016"/>
      <use xlink:href="#DejaVuSans-20" x="1303.5"/>
      <use xlink:href="#DejaVuSans-70" x="1335.287109"/>
      <use xlink:href="#DejaVuSans-61" x="1398.763672"/>
      <use xlink:href="#DejaVuSans-69" x="1460.042969"/>
      <use xlink:href="#DejaVuSans-72" x="1487.826172"/>
      <use xlink:href="#DejaVuSans-73" x="1528.939453"/>
     </g>
    </g>
   </g>
   <g id="line2d_33">
    <defs>
     <path id="md41615068a" d="M 0 1.5 
C 0.397805 1.5 0.77937 1.341951 1.06066 1.06066 
C 1.341951 0.77937 1.5 0.397805 1.5 0 
C 1.5 -0.397805 1.341951 -0.77937 1.06066 -1.06066 
C 0.77937 -1.341951 0.397805 -1.5 0 -1.5 
C -0.397805 -1.5 -0.77937 -1.341951 -1.06066 -1.06066 
C -1.341951 -0.77937 -1.5 -0.397805 -1.5 0 
C -1.5 0.397805 -1.341951 0.77937 -1.06066 1.06066 
C -0.77937 1.341951 -0.397805 1.5 0 1.5 
z
" style="stroke: #f5deb3"/>
    </defs>
    <g>
     <use xlink:href="#md41615068a" x="208.731687" y="27.648" style="fill: #f5deb3; stroke: #f5deb3"/>
     <use xlink:href="#md41615068a" x="208.731687" y="27.648" style="fill: #f5deb3; stroke: #f5deb3"/>
    </g>
   </g>
   <g id="line2d_34">
    <defs>
     <path id="m35e89e6ad9" d="M 0 1.5 
C 0.397805 1.5 0.77937 1.341951 1.06066 1.06066 
C 1.341951 0.77937 1.5 0.397805 1.5 0 
C 1.5 -0.397805 1.341951 -0.77937 1.06066 -1.06066 
C 0.77937 -1.341951 0.397805 -1.5 0 -1.5 
C -0.397805 -1.5 -0.77937 -1.341951 -1.06066 -1.06066 
C -1.341951 -0.77937 -1.5 -0.397805 -1.5 0 
C -1.5 0.397805 -1.341951 0.77937 -1.06066 1.06066 
C -0.77937 1.341951 -0.397805 1.5 0 1.5 
z
" style="stroke: #000080"/>
    </defs>
    <g>
     <use xlink:href="#m35e89e6ad9" x="205.62847" y="27.648" style="fill: #000080; stroke: #000080"/>
     <use xlink:href="#m35e89e6ad9" x="205.62847" y="27.648" style="fill: #000080; stroke: #000080"/>
    </g>
   </g>
   <g id="line2d_35">
    <path d="M 36.933397 298.944 
L 36.933397 296.816188 
L 49.972572 296.816188 
L 49.972572 294.688376 
L 57.6 294.688376 
L 57.6 293.092518 
L 67.209423 293.092518 
L 67.209423 292.560565 
L 73.538988 292.560565 
L 73.538988 291.496659 
L 85.184077 291.496659 
L 85.184077 289.9008 
L 86.578163 289.9008 
L 86.578163 289.368847 
L 87.876026 289.368847 
L 87.876026 287.772988 
L 91.305777 287.772988 
L 91.305777 286.709082 
L 92.322865 286.709082 
L 92.322865 286.177129 
L 94.205591 286.177129 
L 94.205591 285.645176 
L 95.080704 285.645176 
L 95.080704 285.113224 
L 98.223251 285.113224 
L 98.223251 284.581271 
L 98.933205 284.581271 
L 98.933205 284.049318 
L 100.9152 284.049318 
L 100.9152 282.985412 
L 102.12927 282.985412 
L 102.12927 282.453459 
L 106.326946 282.453459 
L 106.326946 282.098824 
L 110.897141 282.098824 
L 110.897141 281.566871 
L 111.262425 281.566871 
L 111.262425 281.034918 
L 116.030193 281.034918 
L 116.030193 280.8576 
L 117.899543 280.8576 
L 117.899543 280.325647 
L 118.152051 280.325647 
L 118.152051 279.261741 
L 119.129494 279.261741 
L 119.129494 278.197835 
L 119.366121 278.197835 
L 119.366121 277.133929 
L 120.506564 277.133929 
L 120.506564 276.601976 
L 120.944062 276.601976 
L 120.944062 276.070024 
L 121.371615 276.070024 
L 121.371615 275.892706 
L 123.936316 275.892706 
L 123.936316 275.360753 
L 125.526971 275.360753 
L 125.526971 275.183435 
L 125.695686 275.183435 
L 125.695686 274.474165 
L 125.862901 274.474165 
L 125.862901 272.878306 
L 126.355808 272.878306 
L 126.355808 272.523671 
L 126.517282 272.523671 
L 126.517282 272.346353 
L 127.304491 272.346353 
L 127.304491 271.991718 
L 127.610376 271.991718 
L 127.610376 271.637082 
L 128.060076 271.637082 
L 128.060076 271.105129 
L 129.758512 271.105129 
L 129.758512 270.927812 
L 131.065395 270.927812 
L 131.065395 270.573176 
L 131.191226 270.573176 
L 131.191226 270.218541 
L 131.563744 270.218541 
L 131.563744 270.041224 
L 131.686295 270.041224 
L 131.686295 269.863906 
L 132.287354 269.863906 
L 132.287354 269.509271 
L 132.522502 269.509271 
L 132.522502 269.331953 
L 132.638982 269.331953 
L 132.638982 269.154635 
L 132.754746 269.154635 
L 132.754746 268.977318 
L 132.869802 268.977318 
L 132.869802 268.8 
L 133.983236 268.8 
L 134.091039 267.736094 
L 135.638065 267.736094 
L 135.638065 267.204141 
L 136.126705 267.204141 
L 136.126705 266.672188 
L 136.413909 266.672188 
L 136.413909 265.076329 
L 136.696795 265.076329 
L 136.696795 264.899012 
L 137.610157 264.899012 
L 137.699101 263.835106 
L 137.787626 263.835106 
L 137.787626 263.657788 
L 138.650692 263.657788 
L 138.73486 262.593882 
L 138.985129 262.593882 
L 139.067817 261.884612 
L 139.394983 261.884612 
L 139.475893 260.643388 
L 139.636676 260.643388 
L 139.636676 260.111435 
L 141.610664 260.111435 
L 141.610664 259.934118 
L 142.248405 259.934118 
L 142.248405 259.7568 
L 142.387236 259.7568 
L 142.387236 259.402165 
L 143.265494 259.402165 
L 143.265494 259.224847 
L 143.977892 259.224847 
L 144.041338 258.692894 
L 144.293001 258.692894 
L 144.293001 258.515576 
L 144.664294 258.515576 
L 144.664294 258.338259 
L 146.913986 258.338259 
L 146.913986 258.160941 
L 147.607824 258.160941 
L 147.607824 257.983624 
L 148.226342 257.983624 
L 148.226342 257.806306 
L 148.726679 257.806306 
L 148.726679 257.628988 
L 150.470172 257.628988 
L 150.470172 257.274353 
L 151.220087 257.274353 
L 151.220087 257.097035 
L 152.1482 257.097035 
L 152.1482 256.565082 
L 153.305585 256.565082 
L 153.305585 256.033129 
L 153.612719 256.033129 
L 153.612719 255.501176 
L 154.064218 255.501176 
L 154.064218 254.969224 
L 154.468783 254.969224 
L 154.468783 254.437271 
L 154.685842 254.437271 
L 154.685842 254.259953 
L 154.971412 254.259953 
L 154.971412 254.082635 
L 155.391799 254.082635 
L 155.495444 253.196047 
L 155.769072 253.196047 
L 155.870664 252.486776 
L 155.971711 252.486776 
L 155.971711 252.309459 
L 156.728884 252.309459 
L 156.728884 251.954824 
L 157.080512 251.954824 
L 157.080512 251.777506 
L 157.363398 251.777506 
L 157.394569 250.7136 
L 157.886402 250.7136 
L 157.886402 249.649694 
L 158.0375 249.649694 
L 158.0375 248.053835 
L 158.483644 248.053835 
L 158.483644 247.344565 
L 158.804221 247.344565 
L 158.890711 246.635294 
L 158.976805 246.635294 
L 158.976805 246.103341 
L 159.119425 246.103341 
L 159.204482 245.216753 
L 159.540912 245.216753 
L 159.568678 244.862118 
L 159.706897 244.862118 
L 159.706897 242.734306 
L 159.844108 242.734306 
L 159.953161 242.025035 
L 160.007451 242.025035 
L 160.088594 241.315765 
L 160.142495 241.315765 
L 160.223059 240.606494 
L 160.276577 240.606494 
L 160.276577 239.010635 
L 160.541906 239.010635 
L 160.541906 238.833318 
L 160.699326 238.833318 
L 160.699326 237.769412 
L 160.82951 237.769412 
L 160.82951 237.414776 
L 160.984551 237.414776 
L 161.061595 237.060141 
L 161.189305 237.060141 
L 161.240147 236.173553 
L 161.517348 236.173553 
L 161.517348 235.996235 
L 161.642011 235.996235 
L 161.642011 235.6416 
L 161.765853 235.6416 
L 161.765853 235.464282 
L 161.913396 235.464282 
L 161.986735 234.932329 
L 162.03547 234.932329 
L 162.108336 234.400376 
L 162.156757 234.400376 
L 162.253227 232.981835 
L 162.420867 232.981835 
L 162.444694 229.790118 
L 162.539702 229.790118 
L 162.539702 229.435482 
L 162.915008 229.435482 
L 162.915008 229.258165 
L 163.030771 229.258165 
L 163.030771 229.080847 
L 163.305732 229.080847 
L 163.3965 228.371576 
L 163.509347 228.371576 
L 163.509347 228.194259 
L 163.821764 228.194259 
L 163.888041 226.5984 
L 164.107292 226.5984 
L 164.215967 224.115953 
L 164.410013 224.115953 
L 164.452864 222.874729 
L 164.686815 222.874729 
L 164.686815 222.520094 
L 164.855153 222.520094 
L 164.917893 220.746918 
L 165.042749 220.746918 
L 165.042749 218.619106 
L 165.187374 218.619106 
L 165.187374 218.264471 
L 165.45305 218.264471 
L 165.493592 216.845929 
L 165.614697 216.845929 
L 165.674958 216.136659 
L 165.755007 216.136659 
L 165.794904 214.5408 
L 165.933882 214.5408 
L 165.933882 214.186165 
L 166.228279 214.186165 
L 166.228279 213.654212 
L 166.344759 213.654212 
L 166.344759 213.299576 
L 166.518139 213.299576 
L 166.518139 212.767624 
L 166.651893 212.767624 
L 166.651893 212.412988 
L 166.935348 212.412988 
L 166.935348 212.235671 
L 167.103392 212.235671 
L 167.103392 212.058353 
L 167.214594 212.058353 
L 167.214594 211.881035 
L 167.343504 211.881035 
L 167.343504 211.703718 
L 167.6168 211.703718 
L 167.6168 211.5264 
L 167.76095 211.5264 
L 167.76095 210.994447 
L 167.886182 210.994447 
L 167.886182 210.817129 
L 168.010586 210.817129 
L 168.010586 210.639812 
L 168.413644 210.639812 
L 168.413644 210.107859 
L 169.044448 210.107859 
L 169.044448 209.753224 
L 169.751918 209.753224 
L 169.751918 209.221271 
L 170.340075 209.221271 
L 170.340075 209.043953 
L 171.196684 209.043953 
L 171.196684 208.512 
L 171.610792 208.512 
L 171.610792 207.980047 
L 171.741985 207.980047 
L 171.741985 207.093459 
L 171.929885 207.093459 
L 171.929885 206.561506 
L 172.144386 206.561506 
L 172.144386 206.384188 
L 172.271923 206.384188 
L 172.271923 206.206871 
L 172.454629 206.206871 
L 172.454629 206.029553 
L 172.663262 206.029553 
L 172.663262 205.852235 
L 173.168209 205.852235 
L 173.168209 205.674918 
L 174.075124 205.674918 
L 174.075124 205.142965 
L 174.418433 205.142965 
L 174.418433 204.965647 
L 174.544011 204.965647 
L 174.544011 204.788329 
L 185.381579 204.788329 
L 185.381579 204.256376 
L 185.640089 204.256376 
L 185.640089 203.901741 
L 187.261289 203.901741 
L 187.261289 203.369788 
L 187.495369 203.369788 
L 187.495369 203.015153 
L 187.726572 203.015153 
L 187.726572 202.660518 
L 189.604565 202.660518 
L 189.604565 201.064659 
L 189.811379 201.064659 
L 189.822494 199.823435 
L 190.015945 199.823435 
L 190.070853 196.099765 
L 190.158374 196.099765 
L 190.21831 195.390494 
L 190.272631 195.390494 
L 190.359221 193.617318 
L 190.429282 193.617318 
L 190.472268 190.070965 
L 190.557946 190.070965 
L 190.632595 188.120471 
L 190.669809 188.120471 
L 190.754593 187.056565 
L 190.8232 187.056565 
L 190.928264 186.169976 
L 190.980576 186.169976 
L 191.022322 183.687529 
L 191.121098 183.687529 
L 191.209038 181.205082 
L 191.363232 181.205082 
L 191.39903 179.963859 
L 191.55168 179.963859 
L 191.587121 178.899953 
L 191.773351 178.899953 
L 191.883214 177.126776 
L 191.923006 177.126776 
L 191.952795 176.772141 
L 192.06655 176.772141 
L 192.174719 175.176282 
L 192.228571 175.176282 
L 192.233459 174.467012 
L 192.355249 174.467012 
L 192.456946 171.097976 
L 192.534063 171.097976 
L 192.6348 167.196988 
L 192.711193 167.196988 
L 192.810989 165.778447 
L 192.88667 165.778447 
L 192.947938 165.423812 
L 193.121231 165.423812 
L 193.158491 163.296 
L 193.30218 163.296 
L 193.329865 161.877459 
L 193.472255 161.877459 
L 193.495121 160.104282 
L 193.631734 160.104282 
L 193.663468 159.217694 
L 193.830322 159.217694 
L 193.830322 159.040376 
L 194.071213 159.040376 
L 194.071213 158.863059 
L 194.483322 158.863059 
L 194.483322 158.685741 
L 199.810316 158.685741 
L 199.810316 158.153788 
L 199.93081 158.153788 
L 199.992386 155.316706 
L 200.050536 155.316706 
L 200.111723 153.720847 
L 200.169506 153.720847 
L 200.230307 152.656941 
L 200.287727 152.656941 
L 200.348148 151.947671 
L 200.465256 151.947671 
L 200.465256 151.593035 
L 200.64425 151.593035 
L 200.678598 149.465224 
L 200.759535 149.465224 
L 200.796773 146.096188 
L 200.874117 146.096188 
L 200.941917 142.904471 
L 201.01254 142.904471 
L 201.095107 140.599341 
L 201.131687 140.599341 
L 201.168197 139.358118 
L 201.268234 139.358118 
L 201.355709 132.797365 
L 201.379769 132.797365 
L 201.490646 128.541741 
L 201.523483 128.541741 
L 201.633519 121.803671 
L 201.654264 121.803671 
L 201.763539 118.257318 
L 201.819408 118.257318 
L 201.863398 116.306824 
L 201.933569 116.306824 
L 202.032531 114.710965 
L 202.052841 114.710965 
L 202.159832 108.504847 
L 202.171362 108.504847 
L 202.277683 101.412141 
L 202.303454 101.412141 
L 202.409033 94.851388 
L 202.428941 94.851388 
L 202.539473 91.482353 
L 202.590269 91.482353 
L 202.697057 86.340141 
L 202.716663 86.340141 
L 202.789305 82.616471 
L 202.839432 82.616471 
L 202.947585 76.233035 
L 202.969693 76.233035 
L 203.071608 70.913506 
L 203.101801 70.913506 
L 203.203005 68.253741 
L 203.249322 68.253741 
L 203.349738 60.983718 
L 203.363266 60.983718 
L 203.463077 56.018824 
L 203.4819 56.018824 
L 203.583759 52.649788 
L 203.623815 52.649788 
L 203.722256 50.167341 
L 203.751423 50.167341 
L 203.849201 44.847812 
L 203.878172 44.847812 
L 203.983147 40.237553 
L 203.993613 40.237553 
L 204.071918 39.528282 
L 204.152493 39.528282 
L 204.248213 37.223153 
L 204.343448 37.223153 
L 204.453525 36.868518 
L 204.570573 36.868518 
L 204.664194 33.322165 
L 204.704536 33.322165 
L 204.812525 29.598494 
L 204.889996 29.598494 
L 204.99693 28.357271 
L 205.360402 28.357271 
L 205.450183 27.825318 
L 205.62847 27.825318 
L 205.62847 27.648 
L 360.8064 27.648 
L 360.8064 27.648 
" style="fill: none; stroke: #000080; stroke-width: 1.5; stroke-linecap: square"/>
   </g>
   <g id="line2d_36">
    <defs>
     <path id="mc4916b3e23" d="M 0 6 
C 1.591219 6 3.117479 5.367802 4.242641 4.242641 
C 5.367802 3.117479 6 1.591219 6 0 
C 6 -1.591219 5.367802 -3.117479 4.242641 -4.242641 
C 3.117479 -5.367802 1.591219 -6 0 -6 
C -1.591219 -6 -3.117479 -5.367802 -4.242641 -4.242641 
C -5.367802 -3.117479 -6 -1.591219 -6 0 
C -6 1.591219 -5.367802 3.117479 -4.242641 4.242641 
C -3.117479 5.367802 -1.591219 6 0 6 
z
" style="stroke: #000080; stroke-width: 1.5"/>
    </defs>
    <g>
     <use xlink:href="#mc4916b3e23" x="161.189305" y="237.060141" style="fill-opacity: 0; stroke: #000080; stroke-width: 1.5"/>
     <use xlink:href="#mc4916b3e23" x="200.230307" y="153.543529" style="fill-opacity: 0; stroke: #000080; stroke-width: 1.5"/>
     <use xlink:href="#mc4916b3e23" x="205.62847" y="27.825318" style="fill-opacity: 0; stroke: #000080; stroke-width: 1.5"/>
     <use xlink:href="#mc4916b3e23" x="205.62847" y="27.648" style="fill-opacity: 0; stroke: #000080; stroke-width: 1.5"/>
     <use xlink:href="#mc4916b3e23" x="205.62847" y="27.648" style="fill-opacity: 0; stroke: #000080; stroke-width: 1.5"/>
     <use xlink:href="#mc4916b3e23" x="360.8064" y="27.648" style="fill-opacity: 0; stroke: #000080; stroke-width: 1.5"/>
    </g>
   </g>
   <g id="line2d_37">
    <path style="fill: none; stroke: #000080; stroke-width: 1.5; stroke-linecap: square"/>
    <g/>
   </g>
   <g id="line2d_38">
    <path d="M 104.860369 282.453459 
" clip-path="url(#p12fb6275de)" style="fill: none; stroke: #000080; stroke-width: 1.5; stroke-linecap: square"/>
    <defs>
     <path id="m9fa8bcb35d" d="M -12 12 
L 12 -12 
M -12 -12 
L 12 12 
" style="stroke: #000080"/>
    </defs>
    <g clip-path="url(#p12fb6275de)">
     <use xlink:href="#m9fa8bcb35d" x="104.860369" y="282.453459" style="fill: #000080; stroke: #000080"/>
    </g>
   </g>
   <g id="line2d_39">
    <defs>
     <path id="m449e356b42" d="M 0 1.5 
C 0.397805 1.5 0.77937 1.341951 1.06066 1.06066 
C 1.341951 0.77937 1.5 0.397805 1.5 0 
C 1.5 -0.397805 1.341951 -0.77937 1.06066 -1.06066 
C 0.77937 -1.341951 0.397805 -1.5 0 -1.5 
C -0.397805 -1.5 -0.77937 -1.341951 -1.06066 -1.06066 
C -1.341951 -0.77937 -1.5 -0.397805 -1.5 0 
C -1.5 0.397805 -1.341951 0.77937 -1.06066 1.06066 
C -0.77937 1.341951 -0.397805 1.5 0 1.5 
z
" style="stroke: #ff00ff"/>
    </defs>
    <g>
     <use xlink:href="#m449e356b42" x="223.536602" y="27.648" style="fill: #ff00ff; stroke: #ff00ff"/>
     <use xlink:href="#m449e356b42" x="223.536602" y="27.648" style="fill: #ff00ff; stroke: #ff00ff"/>
    </g>
   </g>
   <g id="line2d_40">
    <path d="M 36.933397 298.944 
L 36.933397 296.816188 
L 49.972572 296.816188 
L 49.972572 294.688376 
L 57.6 294.688376 
L 57.6 292.560565 
L 63.011746 292.560565 
L 63.011746 289.368847 
L 78.266603 289.368847 
L 78.266603 288.304941 
L 85.184077 288.304941 
L 85.184077 286.177129 
L 87.876026 286.177129 
L 87.876026 285.113224 
L 89.090095 285.113224 
L 89.090095 282.985412 
L 90.230539 282.985412 
L 90.230539 281.921506 
L 91.305777 281.921506 
L 91.305777 279.793694 
L 96.717523 279.793694 
L 96.717523 277.665882 
L 99.617337 277.665882 
L 99.617337 276.601976 
L 104.344952 276.601976 
L 104.344952 275.538071 
L 107.68741 275.538071 
L 107.68741 274.474165 
L 112.989468 274.474165 
L 112.989468 273.410259 
L 113.954374 273.410259 
L 113.954374 272.346353 
L 123.183753 272.346353 
L 123.183753 271.282447 
L 123.750979 271.282447 
L 123.750979 270.218541 
L 127.149662 270.218541 
L 127.149662 269.154635 
L 127.761474 269.154635 
L 127.761474 268.090729 
L 129.348062 268.090729 
L 129.348062 265.962918 
L 132.638982 265.962918 
L 132.638982 264.899012 
L 134.304809 264.899012 
L 134.304809 263.835106 
L 134.725196 263.835106 
L 134.725196 261.707294 
L 135.638065 261.707294 
L 135.638065 259.579482 
L 140.188837 259.579482 
L 140.188837 258.515576 
L 142.387236 258.515576 
L 142.387236 257.451671 
L 142.729897 257.451671 
L 142.729897 255.323859 
L 143.133017 255.323859 
L 143.133017 252.132141 
L 145.088405 252.132141 
L 145.088405 251.068235 
L 146.968277 251.068235 
L 146.968277 246.812612 
L 147.449964 246.812612 
L 147.502732 243.620894 
L 147.712333 243.620894 
L 147.712333 242.556988 
L 148.276979 242.556988 
L 148.276979 240.429176 
L 148.775988 240.429176 
L 148.775988 239.365271 
L 148.971944 239.365271 
L 148.971944 237.237459 
L 149.214052 237.237459 
L 149.214052 236.173553 
L 149.875833 236.173553 
L 149.875833 235.109647 
L 150.243797 235.109647 
L 150.243797 234.045741 
L 151.00261 234.045741 
L 151.00261 231.917929 
L 151.562904 231.917929 
L 151.60532 226.5984 
L 151.899585 226.5984 
L 151.94125 219.151059 
L 152.515067 219.151059 
L 152.515067 215.959341 
L 152.715833 215.959341 
L 152.715833 213.831529 
L 153.032666 213.831529 
L 153.032666 211.703718 
L 153.612719 211.703718 
L 153.688725 209.575906 
L 154.432362 209.575906 
L 154.541415 206.384188 
L 154.721776 206.384188 
L 154.721776 205.320282 
L 155.042132 205.320282 
L 155.112587 201.064659 
L 155.904407 201.064659 
L 155.904407 200.000753 
L 156.105602 200.000753 
L 156.172192 196.809035 
L 156.271636 196.809035 
L 156.271636 186.169976 
L 156.761123 186.169976 
L 156.761123 182.978259 
L 157.518738 182.978259 
L 157.580516 180.850447 
L 158.007377 180.850447 
L 158.067574 175.530918 
L 158.454228 175.530918 
L 158.454228 171.275294 
L 158.775302 171.275294 
L 158.775302 168.083576 
L 159.232748 168.083576 
L 159.232748 164.891859 
L 171.669213 164.891859 
L 171.669213 163.827953 
L 172.869606 163.827953 
L 172.869606 152.124988 
L 175.340451 152.124988 
L 175.340451 151.061082 
L 177.45991 151.061082 
L 177.45991 149.997176 
L 183.987493 149.997176 
L 183.987493 148.933271 
L 184.369962 148.933271 
L 184.369962 147.869365 
L 185.874547 147.869365 
L 185.874547 146.805459 
L 191.546612 146.805459 
L 191.546612 145.741553 
L 191.863287 145.741553 
L 191.937906 142.549835 
L 192.017176 142.549835 
L 192.105956 140.422024 
L 192.248116 140.422024 
L 192.248116 135.102494 
L 192.437618 135.102494 
L 192.437618 134.038588 
L 192.677809 134.038588 
L 192.677809 128.719059 
L 192.943232 128.719059 
L 192.943232 126.591247 
L 193.195678 126.591247 
L 193.195678 122.335624 
L 193.577208 122.335624 
L 193.577208 118.08 
L 193.776369 118.08 
L 193.776369 117.016094 
L 193.897546 117.016094 
L 193.897546 112.760471 
L 206.84254 112.760471 
L 206.84254 108.504847 
L 207.772344 108.504847 
L 207.772344 104.249224 
L 208.241442 104.249224 
L 208.241442 98.929694 
L 208.469615 98.929694 
L 208.469615 96.801882 
L 208.835097 96.801882 
L 208.845205 93.610165 
L 208.96206 93.610165 
L 209.066213 89.354541 
L 209.28268 89.354541 
L 209.28268 85.098918 
L 209.617333 85.098918 
L 209.617333 82.971106 
L 209.748775 82.971106 
L 209.748775 76.587671 
L 210.105575 76.587671 
L 210.105575 75.523765 
L 210.388827 75.523765 
L 210.403716 70.204235 
L 220.203782 70.204235 
L 220.203782 67.012518 
L 220.767605 67.012518 
L 220.767605 63.8208 
L 221.450971 63.8208 
L 221.450971 61.692988 
L 221.670968 61.692988 
L 221.670968 56.373459 
L 221.96404 56.373459 
L 221.96404 53.181741 
L 222.204993 53.181741 
L 222.277374 47.862212 
L 222.498729 47.862212 
L 222.498729 44.670494 
L 222.75421 44.670494 
L 222.75421 41.478776 
L 222.955744 41.478776 
L 222.955744 40.414871 
L 223.100281 40.414871 
L 223.169304 35.095341 
L 223.504181 35.095341 
L 223.536602 27.648 
L 360.8064 27.648 
L 360.8064 27.648 
" style="fill: none; stroke: #ff00ff; stroke-width: 1.5; stroke-linecap: square"/>
   </g>
   <g id="line2d_41">
    <defs>
     <path id="m47c77ae9a1" d="M -0 8.485281 
L 5.091169 0 
L 0 -8.485281 
L -5.091169 -0 
z
" style="stroke: #ff00ff; stroke-width: 1.5; stroke-linejoin: miter"/>
    </defs>
    <g>
     <use xlink:href="#m47c77ae9a1" x="142.387236" y="257.451671" style="fill-opacity: 0; stroke: #ff00ff; stroke-width: 1.5; stroke-linejoin: miter"/>
     <use xlink:href="#m47c77ae9a1" x="172.869606" y="163.827953" style="fill-opacity: 0; stroke: #ff00ff; stroke-width: 1.5; stroke-linejoin: miter"/>
     <use xlink:href="#m47c77ae9a1" x="223.536602" y="32.967529" style="fill-opacity: 0; stroke: #ff00ff; stroke-width: 1.5; stroke-linejoin: miter"/>
     <use xlink:href="#m47c77ae9a1" x="223.536602" y="27.648" style="fill-opacity: 0; stroke: #ff00ff; stroke-width: 1.5; stroke-linejoin: miter"/>
     <use xlink:href="#m47c77ae9a1" x="223.536602" y="27.648" style="fill-opacity: 0; stroke: #ff00ff; stroke-width: 1.5; stroke-linejoin: miter"/>
     <use xlink:href="#m47c77ae9a1" x="360.8064" y="27.648" style="fill-opacity: 0; stroke: #ff00ff; stroke-width: 1.5; stroke-linejoin: miter"/>
    </g>
   </g>
   <g id="line2d_42">
    <path style="fill: none; stroke: #ff00ff; stroke-width: 1.5; stroke-linecap: square"/>
    <g/>
   </g>
   <g id="line2d_43">
    <defs>
     <path id="m98c2511aac" d="M 0 1.5 
C 0.397805 1.5 0.77937 1.341951 1.06066 1.06066 
C 1.341951 0.77937 1.5 0.397805 1.5 0 
C 1.5 -0.397805 1.341951 -0.77937 1.06066 -1.06066 
C 0.77937 -1.341951 0.397805 -1.5 0 -1.5 
C -0.397805 -1.5 -0.77937 -1.341951 -1.06066 -1.06066 
C -1.341951 -0.77937 -1.5 -0.397805 -1.5 0 
C -1.5 0.397805 -1.341951 0.77937 -1.06066 1.06066 
C -0.77937 1.341951 -0.397805 1.5 0 1.5 
z
" style="stroke: #ff7500"/>
    </defs>
    <g>
     <use xlink:href="#m98c2511aac" x="238.573731" y="27.648" style="fill: #ff7500; stroke: #ff7500"/>
     <use xlink:href="#m98c2511aac" x="238.573731" y="27.648" style="fill: #ff7500; stroke: #ff7500"/>
    </g>
   </g>
   <g id="line2d_44">
    <path d="M 36.933397 298.944 
L 36.933397 296.816188 
L 57.6 296.816188 
L 57.6 291.496659 
L 78.266603 291.496659 
L 78.266603 289.368847 
L 95.080704 289.368847 
L 95.080704 288.304941 
L 96.717523 288.304941 
L 96.717523 287.241035 
L 97.485448 287.241035 
L 97.485448 286.177129 
L 99.617337 286.177129 
L 99.617337 285.113224 
L 102.12927 285.113224 
L 102.12927 284.049318 
L 106.791453 284.049318 
L 106.791453 282.985412 
L 109.756698 282.985412 
L 109.756698 281.921506 
L 111.262425 281.921506 
L 111.262425 280.8576 
L 114.265316 280.8576 
L 114.265316 279.793694 
L 116.854188 279.793694 
L 116.854188 278.729788 
L 117.121023 278.729788 
L 117.121023 276.601976 
L 121.581803 276.601976 
L 121.581803 275.538071 
L 127.458055 275.538071 
L 127.458055 274.474165 
L 128.060076 274.474165 
L 128.060076 273.410259 
L 129.348062 273.410259 
L 129.348062 271.282447 
L 130.682774 271.282447 
L 130.682774 270.218541 
L 131.440389 270.218541 
L 131.440389 269.154635 
L 132.04923 269.154635 
L 132.04923 268.090729 
L 132.287354 268.090729 
L 132.287354 267.026824 
L 132.869802 267.026824 
L 132.869802 264.899012 
L 136.602972 264.899012 
L 136.602972 263.835106 
L 143.850356 263.835106 
L 143.850356 262.7712 
L 143.977892 262.7712 
L 143.977892 261.707294 
L 145.503164 261.707294 
L 145.503164 260.643388 
L 147.502732 260.643388 
L 147.502732 259.579482 
L 149.40552 259.579482 
L 149.40552 257.451671 
L 151.00261 257.451671 
L 151.089903 253.196047 
L 152.515067 253.196047 
L 152.515067 251.068235 
L 153.344252 251.068235 
L 153.344252 250.004329 
L 153.877408 250.004329 
L 153.877408 248.940424 
L 155.077392 248.940424 
L 155.077392 247.876518 
L 155.391799 247.876518 
L 155.391799 246.812612 
L 155.564225 246.812612 
L 155.564225 241.493082 
L 156.403417 241.493082 
L 156.468962 236.173553 
L 157.425688 236.173553 
L 157.425688 235.109647 
L 157.795157 235.109647 
L 157.795157 232.981835 
L 158.454228 232.981835 
L 158.454228 231.917929 
L 159.090988 231.917929 
L 159.090988 229.790118 
L 160.249837 229.790118 
L 160.249837 227.662306 
L 160.673181 227.662306 
L 160.673181 225.534494 
L 161.316153 225.534494 
L 161.366654 223.406682 
L 161.815163 223.406682 
L 161.815163 219.151059 
L 162.325256 219.151059 
L 162.325256 218.087153 
L 162.634233 218.087153 
L 162.657792 214.895435 
L 163.237368 214.895435 
L 163.237368 212.767624 
L 168.654821 212.767624 
L 168.654821 211.703718 
L 169.735764 211.703718 
L 169.735764 210.639812 
L 173.275627 210.639812 
L 173.275627 209.575906 
L 181.693995 209.575906 
L 181.693995 208.512 
L 186.953212 208.512 
L 186.953212 207.448094 
L 187.293092 207.448094 
L 187.293092 206.384188 
L 190.45616 206.384188 
L 190.45616 205.320282 
L 190.722844 205.320282 
L 190.722844 204.256376 
L 194.177294 204.256376 
L 194.177294 203.192471 
L 194.827078 203.192471 
L 194.827078 202.128565 
L 195.574213 202.128565 
L 195.574213 201.064659 
L 196.209908 201.064659 
L 196.209908 200.000753 
L 196.655589 200.000753 
L 196.655589 198.936847 
L 196.874531 198.936847 
L 196.874531 197.872941 
L 198.79341 197.872941 
L 198.79341 196.809035 
L 198.944535 196.809035 
L 199.023052 185.106071 
L 199.195994 185.106071 
L 199.195994 184.042165 
L 199.333882 184.042165 
L 199.333882 177.658729 
L 199.507323 177.658729 
L 199.593447 175.530918 
L 199.623168 175.530918 
L 199.679179 171.275294 
L 199.757971 171.275294 
L 199.862516 165.955765 
L 199.888562 165.955765 
L 199.995621 159.572329 
L 200.082764 159.572329 
L 200.137426 155.316706 
L 209.93279 155.316706 
L 209.93279 152.124988 
L 210.054474 152.124988 
L 210.154652 144.677647 
L 210.209241 144.677647 
L 210.282405 135.102494 
L 210.33289 135.102494 
L 210.3702 125.527341 
L 210.479835 125.527341 
L 210.56856 119.143906 
L 210.599883 119.143906 
L 210.671546 113.824376 
L 210.744764 113.824376 
L 210.744764 112.760471 
L 235.649557 112.760471 
L 235.747499 86.162824 
L 235.774078 86.162824 
L 235.824234 70.204235 
L 238.415769 70.204235 
L 238.520807 40.414871 
L 238.530402 40.414871 
L 238.573731 27.648 
L 360.8064 27.648 
L 360.8064 27.648 
" style="fill: none; stroke: #ff7500; stroke-width: 1.5; stroke-linecap: square"/>
   </g>
   <g id="line2d_45">
    <defs>
     <path id="mef98bda3ec" d="M 0 -6 
L -1.347084 -1.854102 
L -5.706339 -1.854102 
L -2.179628 0.708204 
L -3.526712 4.854102 
L -0 2.291796 
L 3.526712 4.854102 
L 2.179628 0.708204 
L 5.706339 -1.854102 
L 1.347084 -1.854102 
z
" style="stroke: #ff7500; stroke-width: 1.5; stroke-linejoin: bevel"/>
    </defs>
    <g>
     <use xlink:href="#mef98bda3ec" x="95.080704" y="289.368847" style="fill-opacity: 0; stroke: #ff7500; stroke-width: 1.5; stroke-linejoin: bevel"/>
     <use xlink:href="#mef98bda3ec" x="162.657792" y="214.895435" style="fill-opacity: 0; stroke: #ff7500; stroke-width: 1.5; stroke-linejoin: bevel"/>
     <use xlink:href="#mef98bda3ec" x="210.3702" y="132.974682" style="fill-opacity: 0; stroke: #ff7500; stroke-width: 1.5; stroke-linejoin: bevel"/>
     <use xlink:href="#mef98bda3ec" x="238.573731" y="28.711906" style="fill-opacity: 0; stroke: #ff7500; stroke-width: 1.5; stroke-linejoin: bevel"/>
     <use xlink:href="#mef98bda3ec" x="238.573731" y="27.648" style="fill-opacity: 0; stroke: #ff7500; stroke-width: 1.5; stroke-linejoin: bevel"/>
     <use xlink:href="#mef98bda3ec" x="360.8064" y="27.648" style="fill-opacity: 0; stroke: #ff7500; stroke-width: 1.5; stroke-linejoin: bevel"/>
    </g>
   </g>
   <g id="line2d_46">
    <path style="fill: none; stroke: #ff7500; stroke-width: 1.5; stroke-linecap: square"/>
    <g/>
   </g>
   <g id="line2d_47">
    <defs>
     <path id="m38a3b15306" d="M 0 1.5 
C 0.397805 1.5 0.77937 1.341951 1.06066 1.06066 
C 1.341951 0.77937 1.5 0.397805 1.5 0 
C 1.5 -0.397805 1.341951 -0.77937 1.06066 -1.06066 
C 0.77937 -1.341951 0.397805 -1.5 0 -1.5 
C -0.397805 -1.5 -0.77937 -1.341951 -1.06066 -1.06066 
C -1.341951 -0.77937 -1.5 -0.397805 -1.5 0 
C -1.5 0.397805 -1.341951 0.77937 -1.06066 1.06066 
C -0.77937 1.341951 -0.397805 1.5 0 1.5 
z
" style="stroke: #6495ed"/>
    </defs>
    <g>
     <use xlink:href="#m38a3b15306" x="237.015774" y="27.648" style="fill: #6495ed; stroke: #6495ed"/>
     <use xlink:href="#m38a3b15306" x="237.015774" y="27.648" style="fill: #6495ed; stroke: #6495ed"/>
    </g>
   </g>
   <g id="line2d_48">
    <path d="M 36.933397 298.944 
L 36.933397 296.816188 
L 57.6 296.816188 
L 57.6 294.688376 
L 78.266603 294.688376 
L 78.266603 292.560565 
L 80.248597 292.560565 
L 80.248597 291.496659 
L 86.578163 291.496659 
L 86.578163 290.432753 
L 89.090095 290.432753 
L 89.090095 287.241035 
L 93.287772 287.241035 
L 93.287772 286.177129 
L 95.916911 286.177129 
L 95.916911 282.985412 
L 102.12927 282.985412 
L 102.12927 280.8576 
L 107.244765 280.8576 
L 107.244765 279.793694 
L 108.119879 279.793694 
L 108.119879 278.729788 
L 109.360651 278.729788 
L 109.360651 277.665882 
L 110.524623 277.665882 
L 110.524623 276.601976 
L 113.954374 276.601976 
L 113.954374 275.538071 
L 116.030193 275.538071 
L 116.030193 274.474165 
L 118.401214 274.474165 
L 118.401214 273.410259 
L 120.28394 273.410259 
L 120.28394 270.218541 
L 120.506564 270.218541 
L 120.506564 269.154635 
L 120.944062 269.154635 
L 120.944062 267.026824 
L 123.563797 267.026824 
L 123.563797 265.962918 
L 129.348062 265.962918 
L 129.348062 264.899012 
L 135.136394 264.899012 
L 135.136394 263.835106 
L 135.932769 263.835106 
L 135.932769 262.7712 
L 136.508678 262.7712 
L 136.508678 261.707294 
L 138.985129 261.707294 
L 138.985129 258.515576 
L 139.150143 258.515576 
L 139.150143 255.323859 
L 139.636676 255.323859 
L 139.636676 254.259953 
L 142.45627 254.259953 
L 142.45627 253.196047 
L 142.593581 253.196047 
L 142.593581 252.132141 
L 143.657415 252.132141 
L 143.657415 251.068235 
L 143.786262 251.068235 
L 143.786262 250.004329 
L 144.10457 250.004329 
L 144.10457 247.876518 
L 144.602918 247.876518 
L 144.602918 246.812612 
L 146.695245 246.812612 
L 146.695245 244.6848 
L 147.607824 244.6848 
L 147.607824 243.620894 
L 147.971093 243.620894 
L 147.971093 242.556988 
L 148.226342 242.556988 
L 148.226342 234.045741 
L 148.377845 234.045741 
L 148.377845 232.981835 
L 150.693856 232.981835 
L 150.693856 231.917929 
L 151.046307 231.917929 
L 151.046307 226.5984 
L 152.993353 226.5984 
L 152.993353 225.534494 
L 153.111048 225.534494 
L 153.111048 224.470588 
L 153.305585 224.470588 
L 153.305585 223.406682 
L 154.613767 223.406682 
L 154.613767 221.278871 
L 154.829169 221.278871 
L 154.829169 219.151059 
L 155.006805 219.151059 
L 155.006805 218.087153 
L 155.802997 218.087153 
L 155.802997 217.023247 
L 156.038776 217.023247 
L 156.038776 215.959341 
L 156.631834 215.959341 
L 156.631834 214.895435 
L 156.921495 214.895435 
L 156.921495 213.831529 
L 157.456756 213.831529 
L 157.456756 212.767624 
L 157.61133 212.767624 
L 157.61133 211.703718 
L 157.825621 211.703718 
L 157.825621 210.639812 
L 158.630038 210.639812 
L 158.630038 208.512 
L 165.125528 208.512 
L 165.125528 207.448094 
L 166.364103 207.448094 
L 166.364103 206.384188 
L 167.269949 206.384188 
L 167.269949 205.320282 
L 168.482867 205.320282 
L 168.482867 204.256376 
L 169.194741 204.256376 
L 169.194741 203.192471 
L 170.49593 203.192471 
L 170.49593 202.128565 
L 171.508116 202.128565 
L 171.508116 201.064659 
L 178.154375 201.064659 
L 178.154375 198.936847 
L 180.437656 198.936847 
L 180.437656 197.872941 
L 201.134733 197.872941 
L 201.213735 191.489506 
L 201.286366 191.489506 
L 201.340656 180.850447 
L 201.451763 180.850447 
L 201.562218 173.403106 
L 201.600873 173.403106 
L 201.689774 165.955765 
L 201.757649 165.955765 
L 201.837016 159.572329 
L 201.892668 159.572329 
L 201.927731 155.316706 
L 214.845366 155.316706 
L 214.845366 153.188894 
L 215.070254 153.188894 
L 215.144141 144.677647 
L 215.188912 144.677647 
L 215.288182 131.910776 
L 215.316858 131.910776 
L 215.395492 118.08 
L 215.446785 118.08 
L 215.468116 112.760471 
L 225.026304 112.760471 
L 225.130335 94.674071 
L 225.143936 94.674071 
L 225.249009 76.587671 
L 225.256613 76.587671 
L 225.274342 70.204235 
L 236.900142 70.204235 
L 237.007635 34.031435 
L 237.015774 34.031435 
L 237.015774 27.648 
L 360.8064 27.648 
L 360.8064 27.648 
" style="fill: none; stroke: #6495ed; stroke-width: 1.5; stroke-linecap: square"/>
   </g>
   <g id="line2d_49">
    <defs>
     <path id="mde598ee77e" d="M -0 6 
L 6 -6 
L -6 -6 
z
" style="stroke: #6495ed; stroke-width: 1.5; stroke-linejoin: miter"/>
    </defs>
    <g>
     <use xlink:href="#mde598ee77e" x="93.287772" y="286.177129" style="fill-opacity: 0; stroke: #6495ed; stroke-width: 1.5; stroke-linejoin: miter"/>
     <use xlink:href="#mde598ee77e" x="180.437656" y="198.936847" style="fill-opacity: 0; stroke: #6495ed; stroke-width: 1.5; stroke-linejoin: miter"/>
     <use xlink:href="#mde598ee77e" x="225.110766" y="99.9936" style="fill-opacity: 0; stroke: #6495ed; stroke-width: 1.5; stroke-linejoin: miter"/>
     <use xlink:href="#mde598ee77e" x="237.015774" y="27.648" style="fill-opacity: 0; stroke: #6495ed; stroke-width: 1.5; stroke-linejoin: miter"/>
     <use xlink:href="#mde598ee77e" x="237.015774" y="27.648" style="fill-opacity: 0; stroke: #6495ed; stroke-width: 1.5; stroke-linejoin: miter"/>
     <use xlink:href="#mde598ee77e" x="360.8064" y="27.648" style="fill-opacity: 0; stroke: #6495ed; stroke-width: 1.5; stroke-linejoin: miter"/>
    </g>
   </g>
   <g id="line2d_50">
    <path style="fill: none; stroke: #6495ed; stroke-width: 1.5; stroke-linecap: square"/>
    <g/>
   </g>
   <g id="line2d_51">
    <defs>
     <path id="m9cd15c54e2" d="M 0 1.5 
C 0.397805 1.5 0.77937 1.341951 1.06066 1.06066 
C 1.341951 0.77937 1.5 0.397805 1.5 0 
C 1.5 -0.397805 1.341951 -0.77937 1.06066 -1.06066 
C 0.77937 -1.341951 0.397805 -1.5 0 -1.5 
C -0.397805 -1.5 -0.77937 -1.341951 -1.06066 -1.06066 
C -1.341951 -0.77937 -1.5 -0.397805 -1.5 0 
C -1.5 0.397805 -1.341951 0.77937 -1.06066 1.06066 
C -0.77937 1.341951 -0.397805 1.5 0 1.5 
z
" style="stroke: #ff0000"/>
    </defs>
    <g>
     <use xlink:href="#m9cd15c54e2" x="225.958776" y="27.648" style="fill: #ff0000; stroke: #ff0000"/>
     <use xlink:href="#m9cd15c54e2" x="225.958776" y="27.648" style="fill: #ff0000; stroke: #ff0000"/>
    </g>
   </g>
   <g id="line2d_52">
    <path d="M 36.933397 298.944 
L 36.933397 295.752282 
L 49.972572 295.752282 
L 49.972572 294.333741 
L 57.6 294.333741 
L 57.6 292.9152 
L 63.011746 292.9152 
L 63.011746 289.014212 
L 70.639174 289.014212 
L 70.639174 288.304941 
L 73.538988 288.304941 
L 73.538988 287.950306 
L 76.050921 287.950306 
L 76.050921 286.8864 
L 78.266603 286.8864 
L 78.266603 286.177129 
L 80.248597 286.177129 
L 80.248597 285.822494 
L 82.04153 285.822494 
L 82.04153 285.113224 
L 85.184077 285.113224 
L 85.184077 284.403953 
L 86.578163 284.403953 
L 86.578163 283.694682 
L 91.305777 283.694682 
L 91.305777 283.340047 
L 92.322865 283.340047 
L 92.322865 282.630776 
L 93.287772 282.630776 
L 93.287772 282.276141 
L 94.205591 282.276141 
L 94.205591 280.502965 
L 96.717523 280.502965 
L 96.717523 280.148329 
L 98.223251 280.148329 
L 98.223251 278.729788 
L 100.277459 278.729788 
L 100.277459 278.020518 
L 103.269713 278.020518 
L 103.269713 277.665882 
L 105.850679 277.665882 
L 105.850679 277.311247 
L 106.326946 277.311247 
L 106.326946 276.601976 
L 108.542628 276.601976 
L 108.542628 276.247341 
L 109.360651 276.247341 
L 109.360651 275.892706 
L 110.144579 275.892706 
L 110.144579 275.538071 
L 112.656511 275.538071 
L 112.656511 274.8288 
L 112.989468 274.8288 
L 112.989468 274.474165 
L 113.316634 274.474165 
L 113.316634 273.764894 
L 116.030193 273.764894 
L 116.030193 273.410259 
L 116.583514 273.410259 
L 116.583514 273.055624 
L 118.152051 273.055624 
L 118.152051 272.346353 
L 118.401214 272.346353 
L 118.401214 271.991718 
L 119.129494 271.991718 
L 119.129494 271.637082 
L 119.830627 271.637082 
L 119.830627 270.927812 
L 120.058649 270.927812 
L 120.058649 270.218541 
L 122.19863 270.218541 
L 122.19863 269.863906 
L 123.374735 269.863906 
L 123.374735 269.509271 
L 123.563797 269.509271 
L 123.563797 268.8 
L 123.750979 268.8 
L 123.750979 268.445365 
L 123.936316 268.445365 
L 123.936316 268.090729 
L 124.3016 268.090729 
L 124.3016 267.736094 
L 124.836562 267.736094 
L 124.836562 267.026824 
L 125.695686 267.026824 
L 125.695686 265.962918 
L 126.836129 265.962918 
L 126.836129 265.608282 
L 127.304491 265.608282 
L 127.304491 265.253647 
L 128.928456 265.253647 
L 128.928456 264.899012 
L 129.348062 264.899012 
L 129.348062 264.544376 
L 129.893363 264.544376 
L 129.893363 264.189741 
L 130.292209 264.189741 
L 130.292209 263.835106 
L 130.938718 263.835106 
L 130.938718 263.125835 
L 131.191226 263.125835 
L 131.191226 262.7712 
L 132.869802 262.7712 
L 132.869802 262.061929 
L 133.097823 262.061929 
L 133.097823 261.707294 
L 133.434756 261.707294 
L 133.545739 260.998024 
L 134.091039 260.998024 
L 134.091039 260.643388 
L 137.159019 260.643388 
L 137.159019 260.288753 
L 137.520791 260.288753 
L 137.520791 259.224847 
L 139.067817 259.224847 
L 139.150143 258.515576 
L 139.475893 258.515576 
L 139.475893 258.160941 
L 140.343665 258.160941 
L 140.343665 257.806306 
L 140.649551 257.806306 
L 140.649551 257.451671 
L 140.875745 257.451671 
L 140.875745 257.097035 
L 142.178603 257.097035 
L 142.178603 256.7424 
L 146.136998 256.7424 
L 146.136998 256.387765 
L 146.859539 256.387765 
L 146.913986 255.678494 
L 147.237402 255.678494 
L 147.237402 255.323859 
L 147.555352 255.323859 
L 147.555352 254.969224 
L 147.919625 254.969224 
L 147.919625 254.614588 
L 148.825169 254.614588 
L 148.825169 254.259953 
L 150.693856 254.259953 
L 150.693856 253.905318 
L 152.312136 253.905318 
L 152.312136 253.550682 
L 152.993353 253.550682 
L 152.993353 253.196047 
L 167.778892 253.196047 
L 167.778892 252.841412 
L 169.277721 252.841412 
L 169.277721 252.486776 
L 169.864611 252.486776 
L 169.864611 252.132141 
L 170.681267 252.132141 
L 170.742643 251.068235 
L 171.136775 251.068235 
L 171.136775 250.7136 
L 171.522819 250.7136 
L 171.625414 249.295059 
L 171.640025 249.295059 
L 171.669213 248.585788 
L 171.872269 248.585788 
L 171.872269 248.231153 
L 172.015979 248.231153 
L 172.101681 247.521882 
L 172.412623 247.521882 
L 172.412623 247.167247 
L 172.992335 247.167247 
L 172.992335 246.812612 
L 173.462145 246.812612 
L 173.462145 246.457976 
L 173.959281 246.457976 
L 174.049442 243.266259 
L 174.367966 243.266259 
L 174.367966 242.911624 
L 175.244228 242.911624 
L 175.244228 242.202353 
L 175.861055 242.202353 
L 175.861055 241.493082 
L 176.638314 241.493082 
L 176.638314 241.138447 
L 176.827712 241.138447 
L 176.860939 240.429176 
L 177.190012 240.429176 
L 177.190012 240.074541 
L 177.449188 240.074541 
L 177.449188 238.656 
L 177.946625 238.656 
L 177.967504 237.946729 
L 178.205956 237.946729 
L 178.205956 235.818918 
L 178.441423 235.818918 
L 178.441423 235.464282 
L 178.553005 235.464282 
L 178.623668 233.336471 
L 178.764203 233.336471 
L 178.834079 232.272565 
L 178.893767 232.272565 
L 178.893767 231.917929 
L 179.012577 231.917929 
L 179.012577 230.499388 
L 179.160042 230.499388 
L 179.247969 229.790118 
L 179.296641 229.790118 
L 179.296641 229.435482 
L 179.422601 229.435482 
L 179.432255 227.307671 
L 179.633861 227.307671 
L 179.681545 226.243765 
L 179.767074 226.243765 
L 179.767074 225.889129 
L 179.946368 225.889129 
L 180.040051 224.115953 
L 180.188981 224.115953 
L 180.188981 223.761318 
L 180.419348 223.761318 
L 180.519823 221.278871 
L 180.683087 221.278871 
L 180.683087 219.505694 
L 180.871788 219.505694 
L 180.871788 219.151059 
L 181.023172 219.151059 
L 181.023172 218.796424 
L 181.199724 218.796424 
L 181.226065 217.732518 
L 181.470148 217.732518 
L 181.539308 215.604706 
L 181.591012 215.604706 
L 181.591012 214.5408 
L 181.770864 214.5408 
L 181.770864 214.186165 
L 181.923667 214.186165 
L 181.923667 213.831529 
L 182.058457 213.831529 
L 182.075238 213.122259 
L 182.489971 213.122259 
L 182.489971 212.058353 
L 184.802936 212.058353 
L 184.802936 210.639812 
L 186.301408 210.639812 
L 186.301408 210.285176 
L 186.672875 210.285176 
L 186.672875 208.866635 
L 187.331185 208.866635 
L 187.331185 208.157365 
L 187.533055 208.157365 
L 187.533055 207.802729 
L 187.862709 207.802729 
L 187.862709 207.448094 
L 188.277372 207.448094 
L 188.325561 206.384188 
L 188.517089 206.384188 
L 188.564668 204.256376 
L 188.830081 204.256376 
L 188.859342 203.192471 
L 188.98755 203.192471 
L 189.091801 200.355388 
L 189.258556 200.355388 
L 189.26428 198.227576 
L 189.372704 198.227576 
L 189.469188 195.745129 
L 189.531357 195.745129 
L 189.632646 195.035859 
L 189.649474 195.035859 
L 189.750131 193.262682 
L 189.783564 193.262682 
L 189.861343 191.844141 
L 189.911175 191.844141 
L 190.010445 191.134871 
L 190.103721 191.134871 
L 190.141995 189.361694 
L 190.223749 189.361694 
L 190.299733 187.588518 
L 190.413138 187.588518 
L 190.450788 185.106071 
L 190.557946 185.106071 
L 190.653869 182.978259 
L 190.733433 182.978259 
L 190.738725 182.268988 
L 190.870552 182.268988 
L 190.954438 179.077271 
L 190.991021 179.077271 
L 191.100346 176.240188 
L 191.131465 176.240188 
L 191.239978 172.693835 
L 191.29657 172.693835 
L 191.322237 171.629929 
L 191.409245 171.629929 
L 191.480598 169.147482 
L 191.622496 169.147482 
L 191.667879 168.083576 
L 191.808377 168.083576 
L 191.913066 165.601129 
L 191.932941 165.601129 
L 192.012231 162.409412 
L 192.07148 162.409412 
L 192.105956 161.700141 
L 192.189421 161.700141 
L 192.25788 159.217694 
L 192.301759 159.217694 
L 192.398901 157.444518 
L 192.423108 157.444518 
L 192.534063 153.188894 
L 192.78253 153.188894 
L 192.78253 151.415718 
L 193.023072 151.415718 
L 193.065203 150.351812 
L 193.181741 150.351812 
L 193.181741 149.642541 
L 193.366714 149.642541 
L 193.458522 147.869365 
L 193.499691 147.869365 
L 193.499691 146.805459 
L 193.848272 146.805459 
L 193.848272 145.032282 
L 193.973445 145.032282 
L 194.075645 141.840565 
L 194.73317 141.840565 
L 194.73317 141.485929 
L 194.916283 141.485929 
L 194.916283 140.067388 
L 195.072431 140.067388 
L 195.072431 139.712753 
L 198.244052 139.712753 
L 198.244052 139.003482 
L 198.700069 139.003482 
L 198.700069 138.294212 
L 199.195994 138.294212 
L 199.195994 136.875671 
L 199.626467 136.875671 
L 199.70548 134.747859 
L 199.751418 134.747859 
L 199.751418 134.393224 
L 199.94379 134.393224 
L 199.94379 133.683953 
L 200.076323 133.683953 
L 200.076323 133.329318 
L 200.20473 133.329318 
L 200.259039 128.719059 
L 200.606708 128.719059 
L 200.64425 127.300518 
L 200.722222 127.300518 
L 200.722222 126.945882 
L 200.932686 126.945882 
L 201.01254 125.172706 
L 201.095107 125.172706 
L 201.201602 121.626353 
L 201.228889 121.626353 
L 201.283345 120.917082 
L 201.373757 120.917082 
L 201.48168 115.952188 
L 201.526466 115.952188 
L 201.621654 110.278024 
L 201.745862 110.278024 
L 201.810598 108.150212 
L 201.889743 108.150212 
L 201.948155 104.603859 
L 202.055741 104.603859 
L 202.087608 102.830682 
L 202.214538 102.830682 
L 202.297731 101.057506 
L 202.386256 101.057506 
L 202.434625 92.900894 
L 202.508363 92.900894 
L 202.573352 91.836988 
L 202.62687 91.836988 
L 202.730654 89.354541 
L 202.778148 89.354541 
L 202.778148 87.936 
L 202.906061 87.936 
L 202.991776 84.389647 
L 203.055119 84.389647 
L 203.164776 82.971106 
L 203.19482 82.971106 
L 203.232988 79.424753 
L 203.38219 79.424753 
L 203.484588 76.233035 
L 203.557007 76.233035 
L 203.583759 74.105224 
L 203.690385 74.105224 
L 203.716948 71.977412 
L 203.857106 71.977412 
L 203.956958 70.204235 
L 203.972676 70.204235 
L 204.011913 67.367153 
L 204.121343 67.367153 
L 204.230141 64.530071 
L 204.266267 64.530071 
L 204.266267 64.175435 
L 204.379358 64.175435 
L 204.402407 63.466165 
L 204.535027 63.466165 
L 204.568036 61.692988 
L 205.053878 61.692988 
L 205.145131 59.565176 
L 205.319007 59.565176 
L 205.319007 58.855906 
L 205.517842 58.855906 
L 205.517842 57.792 
L 205.652434 57.792 
L 205.652434 56.018824 
L 220.013883 56.018824 
L 220.013883 55.664188 
L 220.211515 55.664188 
L 220.211515 54.245647 
L 220.59633 54.245647 
L 220.59633 52.472471 
L 221.861124 52.472471 
L 221.861124 52.117835 
L 222.03635 52.117835 
L 222.112377 50.344659 
L 222.318892 50.344659 
L 222.421305 48.571482 
L 222.567068 48.571482 
L 222.567068 47.862212 
L 222.715577 47.862212 
L 222.722344 46.089035 
L 223.057606 46.089035 
L 223.150418 44.670494 
L 223.234312 44.670494 
L 223.267202 43.961224 
L 223.370197 43.961224 
L 223.44847 41.478776 
L 223.656539 41.478776 
L 223.704301 40.060235 
L 223.954888 40.060235 
L 224.061398 38.287059 
L 224.270845 38.287059 
L 224.273515 36.159247 
L 224.442738 36.159247 
L 224.442738 35.804612 
L 224.606956 35.804612 
L 224.615697 34.031435 
L 225.055354 34.031435 
L 225.055354 33.322165 
L 225.190613 33.322165 
L 225.190613 32.612894 
L 225.341731 32.612894 
L 225.435672 31.903624 
L 225.51832 31.903624 
L 225.624642 29.775812 
L 225.776436 29.775812 
L 225.776436 29.066541 
L 225.957962 29.066541 
L 225.958776 27.648 
L 360.8064 27.648 
L 360.8064 27.648 
" style="fill: none; stroke: #ff0000; stroke-width: 1.5; stroke-linecap: square"/>
   </g>
   <g id="line2d_53">
    <defs>
     <path id="mba08cf648f" d="M 0 -6 
L -5.196152 -3 
L -5.196152 3 
L -0 6 
L 5.196152 3 
L 5.196152 -3 
z
" style="stroke: #ff0000; stroke-width: 1.5; stroke-linejoin: miter"/>
    </defs>
    <g>
     <use xlink:href="#mba08cf648f" x="140.875745" y="257.097035" style="fill-opacity: 0; stroke: #ff0000; stroke-width: 1.5; stroke-linejoin: miter"/>
     <use xlink:href="#mba08cf648f" x="189.469188" y="197.872941" style="fill-opacity: 0; stroke: #ff0000; stroke-width: 1.5; stroke-linejoin: miter"/>
     <use xlink:href="#mba08cf648f" x="225.958776" y="28.711906" style="fill-opacity: 0; stroke: #ff0000; stroke-width: 1.5; stroke-linejoin: miter"/>
     <use xlink:href="#mba08cf648f" x="225.958776" y="27.648" style="fill-opacity: 0; stroke: #ff0000; stroke-width: 1.5; stroke-linejoin: miter"/>
     <use xlink:href="#mba08cf648f" x="225.958776" y="27.648" style="fill-opacity: 0; stroke: #ff0000; stroke-width: 1.5; stroke-linejoin: miter"/>
     <use xlink:href="#mba08cf648f" x="360.8064" y="27.648" style="fill-opacity: 0; stroke: #ff0000; stroke-width: 1.5; stroke-linejoin: miter"/>
    </g>
   </g>
   <g id="line2d_54">
    <path style="fill: none; stroke: #ff0000; stroke-width: 1.5; stroke-linecap: square"/>
    <g/>
   </g>
   <g id="line2d_55">
    <path d="M 360.8064 27.648 
L 380.514816 293.51808 
" style="fill: none; stroke: #ff7500; stroke-width: 1.5; stroke-linecap: square"/>
    <g>
     <use xlink:href="#mef98bda3ec" x="360.8064" y="27.648" style="fill-opacity: 0; stroke: #ff7500; stroke-width: 1.5; stroke-linejoin: bevel"/>
     <use xlink:href="#mef98bda3ec" x="380.514816" y="293.51808" style="fill-opacity: 0; stroke: #ff7500; stroke-width: 1.5; stroke-linejoin: bevel"/>
    </g>
   </g>
   <g id="line2d_56">
    <path d="M 360.8064 27.648 
L 380.514816 241.429248 
" style="fill: none; stroke: #6495ed; stroke-width: 1.5; stroke-linecap: square"/>
    <g>
     <use xlink:href="#mde598ee77e" x="360.8064" y="27.648" style="fill-opacity: 0; stroke: #6495ed; stroke-width: 1.5; stroke-linejoin: miter"/>
     <use xlink:href="#mde598ee77e" x="380.514816" y="241.429248" style="fill-opacity: 0; stroke: #6495ed; stroke-width: 1.5; stroke-linejoin: miter"/>
    </g>
   </g>
   <g id="line2d_57">
    <path d="M 360.8064 27.648 
L 380.514816 189.340416 
" style="fill: none; stroke: #ff0000; stroke-width: 1.5; stroke-linecap: square"/>
    <g>
     <use xlink:href="#mba08cf648f" x="360.8064" y="27.648" style="fill-opacity: 0; stroke: #ff0000; stroke-width: 1.5; stroke-linejoin: miter"/>
     <use xlink:href="#mba08cf648f" x="380.514816" y="189.340416" style="fill-opacity: 0; stroke: #ff0000; stroke-width: 1.5; stroke-linejoin: miter"/>
    </g>
   </g>
   <g id="line2d_58">
    <path d="M 360.8064 27.648 
L 380.514816 137.251584 
" style="fill: none; stroke: #ff00ff; stroke-width: 1.5; stroke-linecap: square"/>
    <g>
     <use xlink:href="#m47c77ae9a1" x="360.8064" y="27.648" style="fill-opacity: 0; stroke: #ff00ff; stroke-width: 1.5; stroke-linejoin: miter"/>
     <use xlink:href="#m47c77ae9a1" x="380.514816" y="137.251584" style="fill-opacity: 0; stroke: #ff00ff; stroke-width: 1.5; stroke-linejoin: miter"/>
    </g>
   </g>
   <g id="line2d_59">
    <path d="M 360.8064 27.648 
L 380.514816 33.07392 
" style="fill: none; stroke: #000080; stroke-width: 1.5; stroke-linecap: square"/>
    <g>
     <use xlink:href="#mc4916b3e23" x="360.8064" y="27.648" style="fill-opacity: 0; stroke: #000080; stroke-width: 1.5"/>
     <use xlink:href="#mc4916b3e23" x="380.514816" y="33.07392" style="fill-opacity: 0; stroke: #000080; stroke-width: 1.5"/>
    </g>
   </g>
   <g id="line2d_60">
    <path d="M 360.8064 298.944 
L 360.8064 27.648 
" style="fill: none; stroke: #000000; stroke-width: 1.5; stroke-linecap: square"/>
   </g>
   <g id="patch_3">
    <path d="M 57.6 298.944 
L 360.8064 298.944 
" style="fill: none; stroke: #000000; stroke-width: 0.8; stroke-linejoin: miter; stroke-linecap: square"/>
   </g>
   <g id="patch_4">
    <path d="M 57.6 27.648 
L 360.8064 27.648 
" style="fill: none; stroke: #000000; stroke-width: 0.8; stroke-linejoin: miter; stroke-linecap: square"/>
   </g>
   <g id="text_13">
    <!-- cma-t0 -->
    <g transform="translate(386.578944 297.381205)scale(0.14 -0.14)">
     <use xlink:href="#DejaVuSans-63"/>
     <use xlink:href="#DejaVuSans-6d" x="54.980469"/>
     <use xlink:href="#DejaVuSans-61" x="152.392578"/>
     <use xlink:href="#DejaVuSans-2d" x="213.671875"/>
     <use xlink:href="#DejaVuSans-74" x="249.755859"/>
     <use xlink:href="#DejaVuSans-30" x="288.964844"/>
    </g>
   </g>
   <g id="text_14">
    <!-- cma-t1 -->
    <g transform="translate(386.578944 245.292373)scale(0.14 -0.14)">
     <use xlink:href="#DejaVuSans-63"/>
     <use xlink:href="#DejaVuSans-6d" x="54.980469"/>
     <use xlink:href="#DejaVuSans-61" x="152.392578"/>
     <use xlink:href="#DejaVuSans-2d" x="213.671875"/>
     <use xlink:href="#DejaVuSans-74" x="249.755859"/>
     <use xlink:href="#DejaVuSans-31" x="288.964844"/>
    </g>
   </g>
   <g id="text_15">
    <!-- CMA-ES-20 -->
    <g transform="translate(386.578944 193.203541)scale(0.14 -0.14)">
     <defs>
      <path id="DejaVuSans-43" d="M 4122 4306 
L 4122 3641 
Q 3803 3938 3442 4084 
Q 3081 4231 2675 4231 
Q 1875 4231 1450 3742 
Q 1025 3253 1025 2328 
Q 1025 1406 1450 917 
Q 1875 428 2675 428 
Q 3081 428 3442 575 
Q 3803 722 4122 1019 
L 4122 359 
Q 3791 134 3420 21 
Q 3050 -91 2638 -91 
Q 1578 -91 968 557 
Q 359 1206 359 2328 
Q 359 3453 968 4101 
Q 1578 4750 2638 4750 
Q 3056 4750 3426 4639 
Q 3797 4528 4122 4306 
z
" transform="scale(0.015625)"/>
      <path id="DejaVuSans-4d" d="M 628 4666 
L 1569 4666 
L 2759 1491 
L 3956 4666 
L 4897 4666 
L 4897 0 
L 4281 0 
L 4281 4097 
L 3078 897 
L 2444 897 
L 1241 4097 
L 1241 0 
L 628 0 
L 628 4666 
z
" transform="scale(0.015625)"/>
      <path id="DejaVuSans-41" d="M 2188 4044 
L 1331 1722 
L 3047 1722 
L 2188 4044 
z
M 1831 4666 
L 2547 4666 
L 4325 0 
L 3669 0 
L 3244 1197 
L 1141 1197 
L 716 0 
L 50 0 
L 1831 4666 
z
" transform="scale(0.015625)"/>
      <path id="DejaVuSans-45" d="M 628 4666 
L 3578 4666 
L 3578 4134 
L 1259 4134 
L 1259 2753 
L 3481 2753 
L 3481 2222 
L 1259 2222 
L 1259 531 
L 3634 531 
L 3634 0 
L 628 0 
L 628 4666 
z
" transform="scale(0.015625)"/>
      <path id="DejaVuSans-53" d="M 3425 4513 
L 3425 3897 
Q 3066 4069 2747 4153 
Q 2428 4238 2131 4238 
Q 1616 4238 1336 4038 
Q 1056 3838 1056 3469 
Q 1056 3159 1242 3001 
Q 1428 2844 1947 2747 
L 2328 2669 
Q 3034 2534 3370 2195 
Q 3706 1856 3706 1288 
Q 3706 609 3251 259 
Q 2797 -91 1919 -91 
Q 1588 -91 1214 -16 
Q 841 59 441 206 
L 441 856 
Q 825 641 1194 531 
Q 1563 422 1919 422 
Q 2459 422 2753 634 
Q 3047 847 3047 1241 
Q 3047 1584 2836 1778 
Q 2625 1972 2144 2069 
L 1759 2144 
Q 1053 2284 737 2584 
Q 422 2884 422 3419 
Q 422 4038 858 4394 
Q 1294 4750 2059 4750 
Q 2388 4750 2728 4690 
Q 3069 4631 3425 4513 
z
" transform="scale(0.015625)"/>
     </defs>
     <use xlink:href="#DejaVuSans-43"/>
     <use xlink:href="#DejaVuSans-4d" x="69.824219"/>
     <use xlink:href="#DejaVuSans-41" x="156.103516"/>
     <use xlink:href="#DejaVuSans-2d" x="222.261719"/>
     <use xlink:href="#DejaVuSans-45" x="258.345703"/>
     <use xlink:href="#DejaVuSans-53" x="321.529297"/>
     <use xlink:href="#DejaVuSans-2d" x="385.005859"/>
     <use xlink:href="#DejaVuSans-32" x="421.089844"/>
     <use xlink:href="#DejaVuSans-30" x="484.712891"/>
    </g>
   </g>
   <g id="text_16">
    <!-- cma-1r -->
    <g transform="translate(386.578944 141.114709)scale(0.14 -0.14)">
     <use xlink:href="#DejaVuSans-63"/>
     <use xlink:href="#DejaVuSans-6d" x="54.980469"/>
     <use xlink:href="#DejaVuSans-61" x="152.392578"/>
     <use xlink:href="#DejaVuSans-2d" x="213.671875"/>
     <use xlink:href="#DejaVuSans-31" x="249.755859"/>
     <use xlink:href="#DejaVuSans-72" x="313.378906"/>
    </g>
   </g>
   <g id="text_17">
    <!-- best 2009 -->
    <g transform="translate(386.578944 89.025877)scale(0.14 -0.14)">
     <defs>
      <path id="DejaVuSans-62" d="M 3116 1747 
Q 3116 2381 2855 2742 
Q 2594 3103 2138 3103 
Q 1681 3103 1420 2742 
Q 1159 2381 1159 1747 
Q 1159 1113 1420 752 
Q 1681 391 2138 391 
Q 2594 391 2855 752 
Q 3116 1113 3116 1747 
z
M 1159 2969 
Q 1341 3281 1617 3432 
Q 1894 3584 2278 3584 
Q 2916 3584 3314 3078 
Q 3713 2572 3713 1747 
Q 3713 922 3314 415 
Q 2916 -91 2278 -91 
Q 1894 -91 1617 61 
Q 1341 213 1159 525 
L 1159 0 
L 581 0 
L 581 4863 
L 1159 4863 
L 1159 2969 
z
" transform="scale(0.015625)"/>
      <path id="DejaVuSans-39" d="M 703 97 
L 703 672 
Q 941 559 1184 500 
Q 1428 441 1663 441 
Q 2288 441 2617 861 
Q 2947 1281 2994 2138 
Q 2813 1869 2534 1725 
Q 2256 1581 1919 1581 
Q 1219 1581 811 2004 
Q 403 2428 403 3163 
Q 403 3881 828 4315 
Q 1253 4750 1959 4750 
Q 2769 4750 3195 4129 
Q 3622 3509 3622 2328 
Q 3622 1225 3098 567 
Q 2575 -91 1691 -91 
Q 1453 -91 1209 -44 
Q 966 3 703 97 
z
M 1959 2075 
Q 2384 2075 2632 2365 
Q 2881 2656 2881 3163 
Q 2881 3666 2632 3958 
Q 2384 4250 1959 4250 
Q 1534 4250 1286 3958 
Q 1038 3666 1038 3163 
Q 1038 2656 1286 2365 
Q 1534 2075 1959 2075 
z
" transform="scale(0.015625)"/>
     </defs>
     <use xlink:href="#DejaVuSans-62"/>
     <use xlink:href="#DejaVuSans-65" x="63.476562"/>
     <use xlink:href="#DejaVuSans-73" x="125"/>
     <use xlink:href="#DejaVuSans-74" x="177.099609"/>
     <use xlink:href="#DejaVuSans-20" x="216.308594"/>
     <use xlink:href="#DejaVuSans-32" x="248.095703"/>
     <use xlink:href="#DejaVuSans-30" x="311.71875"/>
     <use xlink:href="#DejaVuSans-30" x="375.341797"/>
     <use xlink:href="#DejaVuSans-39" x="438.964844"/>
    </g>
   </g>
   <g id="text_18">
    <!-- cma-0r -->
    <g transform="translate(386.578944 36.937045)scale(0.14 -0.14)">
     <use xlink:href="#DejaVuSans-63"/>
     <use xlink:href="#DejaVuSans-6d" x="54.980469"/>
     <use xlink:href="#DejaVuSans-61" x="152.392578"/>
     <use xlink:href="#DejaVuSans-2d" x="213.671875"/>
     <use xlink:href="#DejaVuSans-30" x="249.755859"/>
     <use xlink:href="#DejaVuSans-72" x="313.378906"/>
    </g>
   </g>
   <g id="text_19">
    <!-- bbob f15, 3-D -->
    <g transform="translate(60.632064 38.111366)scale(0.102 -0.102)">
     <defs>
      <path id="DejaVuSans-35" d="M 691 4666 
L 3169 4666 
L 3169 4134 
L 1269 4134 
L 1269 2991 
Q 1406 3038 1543 3061 
Q 1681 3084 1819 3084 
Q 2600 3084 3056 2656 
Q 3513 2228 3513 1497 
Q 3513 744 3044 326 
Q 2575 -91 1722 -91 
Q 1428 -91 1123 -41 
Q 819 9 494 109 
L 494 744 
Q 775 591 1075 516 
Q 1375 441 1709 441 
Q 2250 441 2565 725 
Q 2881 1009 2881 1497 
Q 2881 1984 2565 2268 
Q 2250 2553 1709 2553 
Q 1456 2553 1204 2497 
Q 953 2441 691 2322 
L 691 4666 
z
" transform="scale(0.015625)"/>
      <path id="DejaVuSans-33" d="M 2597 2516 
Q 3050 2419 3304 2112 
Q 3559 1806 3559 1356 
Q 3559 666 3084 287 
Q 2609 -91 1734 -91 
Q 1441 -91 1130 -33 
Q 819 25 488 141 
L 488 750 
Q 750 597 1062 519 
Q 1375 441 1716 441 
Q 2309 441 2620 675 
Q 2931 909 2931 1356 
Q 2931 1769 2642 2001 
Q 2353 2234 1838 2234 
L 1294 2234 
L 1294 2753 
L 1863 2753 
Q 2328 2753 2575 2939 
Q 2822 3125 2822 3475 
Q 2822 3834 2567 4026 
Q 2313 4219 1838 4219 
Q 1578 4219 1281 4162 
Q 984 4106 628 3988 
L 628 4550 
Q 988 4650 1302 4700 
Q 1616 4750 1894 4750 
Q 2613 4750 3031 4423 
Q 3450 4097 3450 3541 
Q 3450 3153 3228 2886 
Q 3006 2619 2597 2516 
z
" transform="scale(0.015625)"/>
      <path id="DejaVuSans-44" d="M 1259 4147 
L 1259 519 
L 2022 519 
Q 2988 519 3436 956 
Q 3884 1394 3884 2338 
Q 3884 3275 3436 3711 
Q 2988 4147 2022 4147 
L 1259 4147 
z
M 628 4666 
L 1925 4666 
Q 3281 4666 3915 4102 
Q 4550 3538 4550 2338 
Q 4550 1131 3912 565 
Q 3275 0 1925 0 
L 628 0 
L 628 4666 
z
" transform="scale(0.015625)"/>
     </defs>
     <use xlink:href="#DejaVuSans-62"/>
     <use xlink:href="#DejaVuSans-62" x="63.476562"/>
     <use xlink:href="#DejaVuSans-6f" x="126.953125"/>
     <use xlink:href="#DejaVuSans-62" x="188.134766"/>
     <use xlink:href="#DejaVuSans-20" x="251.611328"/>
     <use xlink:href="#DejaVuSans-66" x="283.398438"/>
     <use xlink:href="#DejaVuSans-31" x="318.603516"/>
     <use xlink:href="#DejaVuSans-35" x="382.226562"/>
     <use xlink:href="#DejaVuSans-2c" x="445.849609"/>
     <use xlink:href="#DejaVuSans-20" x="477.636719"/>
     <use xlink:href="#DejaVuSans-33" x="509.423828"/>
     <use xlink:href="#DejaVuSans-2d" x="573.046875"/>
     <use xlink:href="#DejaVuSans-44" x="609.130859"/>
    </g>
    <!-- 51 targets: 100..1e-08 -->
    <g transform="translate(60.632064 49.533135)scale(0.102 -0.102)">
     <defs>
      <path id="DejaVuSans-3a" d="M 750 794 
L 1409 794 
L 1409 0 
L 750 0 
L 750 794 
z
M 750 3309 
L 1409 3309 
L 1409 2516 
L 750 2516 
L 750 3309 
z
" transform="scale(0.015625)"/>
     </defs>
     <use xlink:href="#DejaVuSans-35"/>
     <use xlink:href="#DejaVuSans-31" x="63.623047"/>
     <use xlink:href="#DejaVuSans-20" x="127.246094"/>
     <use xlink:href="#DejaVuSans-74" x="159.033203"/>
     <use xlink:href="#DejaVuSans-61" x="198.242188"/>
     <use xlink:href="#DejaVuSans-72" x="259.521484"/>
     <use xlink:href="#DejaVuSans-67" x="298.884766"/>
     <use xlink:href="#DejaVuSans-65" x="362.361328"/>
     <use xlink:href="#DejaVuSans-74" x="423.884766"/>
     <use xlink:href="#DejaVuSans-73" x="463.09375"/>
     <use xlink:href="#DejaVuSans-3a" x="515.193359"/>
     <use xlink:href="#DejaVuSans-20" x="548.884766"/>
     <use xlink:href="#DejaVuSans-31" x="580.671875"/>
     <use xlink:href="#DejaVuSans-30" x="644.294922"/>
     <use xlink:href="#DejaVuSans-30" x="707.917969"/>
     <use xlink:href="#DejaVuSans-2e" x="771.541016"/>
     <use xlink:href="#DejaVuSans-2e" x="803.328125"/>
     <use xlink:href="#DejaVuSans-31" x="835.115234"/>
     <use xlink:href="#DejaVuSans-65" x="898.738281"/>
     <use xlink:href="#DejaVuSans-2d" x="960.261719"/>
     <use xlink:href="#DejaVuSans-30" x="996.345703"/>
     <use xlink:href="#DejaVuSans-38" x="1059.96875"/>
    </g>
    <!-- 10, 5, 15 instances -->
    <g transform="translate(60.632064 60.954904)scale(0.102 -0.102)">
     <use xlink:href="#DejaVuSans-31"/>
     <use xlink:href="#DejaVuSans-30" x="63.623047"/>
     <use xlink:href="#DejaVuSans-2c" x="127.246094"/>
     <use xlink:href="#DejaVuSans-20" x="159.033203"/>
     <use xlink:href="#DejaVuSans-35" x="190.820312"/>
     <use xlink:href="#DejaVuSans-2c" x="254.443359"/>
     <use xlink:href="#DejaVuSans-20" x="286.230469"/>
     <use xlink:href="#DejaVuSans-31" x="318.017578"/>
     <use xlink:href="#DejaVuSans-35" x="381.640625"/>
     <use xlink:href="#DejaVuSans-20" x="445.263672"/>
     <use xlink:href="#DejaVuSans-69" x="477.050781"/>
     <use xlink:href="#DejaVuSans-6e" x="504.833984"/>
     <use xlink:href="#DejaVuSans-73" x="568.212891"/>
     <use xlink:href="#DejaVuSans-74" x="620.3125"/>
     <use xlink:href="#DejaVuSans-61" x="659.521484"/>
     <use xlink:href="#DejaVuSans-6e" x="720.800781"/>
     <use xlink:href="#DejaVuSans-63" x="784.179688"/>
     <use xlink:href="#DejaVuSans-65" x="839.160156"/>
     <use xlink:href="#DejaVuSans-73" x="900.683594"/>
    </g>
   </g>
   <g id="text_20">
    <!-- v2.6 -->
    <g style="fill: #808080" transform="translate(198.292262 294.151352)scale(0.1 -0.1)">
     <use xlink:href="#DejaVuSans-76"/>
     <use xlink:href="#DejaVuSans-32" x="59.179688"/>
     <use xlink:href="#DejaVuSans-2e" x="122.802734"/>
     <use xlink:href="#DejaVuSans-36" x="154.589844"/>
    </g>
   </g>
   <g id="text_21">
    <!-- 15 Rastrigin -->
    <g transform="translate(148.9657 21.648)scale(0.2 -0.2)">
     <defs>
      <path id="DejaVuSans-52" d="M 2841 2188 
Q 3044 2119 3236 1894 
Q 3428 1669 3622 1275 
L 4263 0 
L 3584 0 
L 2988 1197 
Q 2756 1666 2539 1819 
Q 2322 1972 1947 1972 
L 1259 1972 
L 1259 0 
L 628 0 
L 628 4666 
L 2053 4666 
Q 2853 4666 3247 4331 
Q 3641 3997 3641 3322 
Q 3641 2881 3436 2590 
Q 3231 2300 2841 2188 
z
M 1259 4147 
L 1259 2491 
L 2053 2491 
Q 2509 2491 2742 2702 
Q 2975 2913 2975 3322 
Q 2975 3731 2742 3939 
Q 2509 4147 2053 4147 
L 1259 4147 
z
" transform="scale(0.015625)"/>
     </defs>
     <use xlink:href="#DejaVuSans-31"/>
     <use xlink:href="#DejaVuSans-35" x="63.623047"/>
     <use xlink:href="#DejaVuSans-20" x="127.246094"/>
     <use xlink:href="#DejaVuSans-52" x="159.033203"/>
     <use xlink:href="#DejaVuSans-61" x="226.265625"/>
     <use xlink:href="#DejaVuSans-73" x="287.544922"/>
     <use xlink:href="#DejaVuSans-74" x="339.644531"/>
     <use xlink:href="#DejaVuSans-72" x="378.853516"/>
     <use xlink:href="#DejaVuSans-69" x="419.966797"/>
     <use xlink:href="#DejaVuSans-67" x="447.75"/>
     <use xlink:href="#DejaVuSans-69" x="511.226562"/>
     <use xlink:href="#DejaVuSans-6e" x="539.009766"/>
    </g>
   </g>
  </g>
 </g>
 <defs>
  <clipPath id="p12fb6275de">
   <rect x="57.6" y="27.648" width="303.2064" height="271.296"/>
  </clipPath>
 </defs>
</svg>
