<?xml version="1.0" encoding="utf-8" standalone="no"?>
<!DOCTYPE svg PUBLIC "-//W3C//DTD SVG 1.1//EN"
  "http://www.w3.org/Graphics/SVG/1.1/DTD/svg11.dtd">
<svg xmlns:xlink="http://www.w3.org/1999/xlink" width="460.8pt" height="345.6pt" viewBox="0 0 460.8 345.6" xmlns="http://www.w3.org/2000/svg" version="1.1">
 <metadata>
  <rdf:RDF xmlns:dc="http://purl.org/dc/elements/1.1/" xmlns:cc="http://creativecommons.org/ns#" xmlns:rdf="http://www.w3.org/1999/02/22-rdf-syntax-ns#">
   <cc:Work>
    <dc:type rdf:resource="http://purl.org/dc/dcmitype/StillImage"/>
    <dc:date>2022-03-28T13:45:12.062628</dc:date>
    <dc:format>image/svg+xml</dc:format>
    <dc:creator>
     <cc:Agent>
      <dc:title>Matplotlib v3.5.1, https://matplotlib.org/</dc:title>
     </cc:Agent>
    </dc:creator>
   </cc:Work>
  </rdf:RDF>
 </metadata>
 <defs>
  <style type="text/css">*{stroke-linejoin: round; stroke-linecap: butt}</style>
 </defs>
 <g id="figure_1">
  <g id="patch_1">
   <path d="M 0 345.6 
L 460.8 345.6 
L 460.8 0 
L 0 0 
z
" style="fill: #ffffff"/>
  </g>
  <g id="axes_1">
   <g id="patch_2">
    <path d="M 57.6 298.944 
L 360.8064 298.944 
L 360.8064 27.648 
L 57.6 27.648 
z
" style="fill: #ffffff"/>
   </g>
   <g id="line2d_1">
    <path d="M 1.245626 298.944 
L 1.245626 293.624471 
L 63.590609 293.624471 
L 63.590609 288.304941 
L 97.239295 288.304941 
L 97.239295 282.985412 
L 107.872426 282.985412 
L 107.872426 277.665882 
L 118.264583 277.665882 
L 118.264583 272.346353 
L 125.037663 272.346353 
L 125.037663 267.026824 
L 131.247576 267.026824 
L 131.247576 261.707294 
L 137.324941 261.707294 
L 137.324941 256.387765 
L 149.133292 256.387765 
L 149.133292 251.068235 
L 157.642093 251.068235 
L 157.642093 245.748706 
L 171.446979 245.748706 
L 171.446979 240.429176 
L 173.90627 240.429176 
L 173.90627 235.109647 
L 176.134464 235.109647 
L 176.134464 229.790118 
L 178.31945 229.790118 
L 178.31945 224.470588 
L 189.518093 224.470588 
L 189.518093 219.151059 
L 190.606501 219.151059 
L 190.606501 213.831529 
L 191.86553 213.831529 
L 191.86553 208.512 
L 193.81022 208.512 
L 193.81022 203.192471 
L 204.467367 203.192471 
L 204.467367 197.872941 
L 208.160714 197.872941 
L 208.160714 192.553412 
L 209.304042 192.553412 
L 209.304042 187.233882 
L 210.629546 187.233882 
L 210.629546 181.914353 
L 212.064738 181.914353 
L 212.064738 176.594824 
L 214.646395 176.594824 
L 214.646395 171.275294 
L 215.695906 171.275294 
L 215.695906 165.955765 
L 216.598022 165.955765 
L 216.598022 160.636235 
L 216.895293 160.636235 
L 216.895293 155.316706 
L 218.568289 155.316706 
L 218.568289 149.997176 
L 220.479206 149.997176 
L 220.479206 144.677647 
L 222.186059 144.677647 
L 222.186059 139.358118 
L 222.528682 139.358118 
L 222.528682 134.038588 
L 223.348031 134.038588 
L 223.348031 128.719059 
L 227.139211 128.719059 
L 227.139211 123.399529 
L 231.167316 123.399529 
L 231.167316 118.08 
L 238.082444 118.08 
L 238.082444 112.760471 
L 240.593336 112.760471 
L 240.593336 107.440941 
L 240.652533 107.440941 
L 240.652533 102.121412 
L 240.75448 102.121412 
L 240.75448 96.801882 
L 240.878394 96.801882 
L 240.878394 91.482353 
L 246.675802 91.482353 
L 246.675802 86.162824 
L 246.727487 86.162824 
L 246.727487 80.843294 
L 246.793492 80.843294 
L 246.793492 75.523765 
L 246.899908 75.523765 
L 246.899908 70.204235 
L 246.97993 70.204235 
L 246.97993 64.884706 
L 247.043107 64.884706 
L 247.043107 59.565176 
L 247.121969 59.565176 
L 247.121969 54.245647 
L 249.226972 54.245647 
L 249.226972 48.926118 
L 249.29373 48.926118 
L 249.29373 43.606588 
L 249.359107 43.606588 
L 249.359107 38.287059 
L 249.418595 38.287059 
L 249.418595 32.967529 
L 249.479522 32.967529 
L 249.479522 27.648 
L 360.8064 27.648 
" style="fill: none; stroke: #f5deb3; stroke-width: 4; stroke-linecap: square"/>
   </g>
   <g id="line2d_2">
    <defs>
     <path id="m952638f50b" d="M -0 7.778175 
L 7.778175 0 
L 0 -7.778175 
L -7.778175 -0 
z
" style="stroke: #f5deb3; stroke-width: 1.5; stroke-linejoin: miter"/>
    </defs>
    <g>
     <use xlink:href="#m952638f50b" x="125.037663" y="272.346353" style="fill: #f5deb3; stroke: #f5deb3; stroke-width: 1.5; stroke-linejoin: miter"/>
     <use xlink:href="#m952638f50b" x="193.81022" y="203.192471" style="fill: #f5deb3; stroke: #f5deb3; stroke-width: 1.5; stroke-linejoin: miter"/>
     <use xlink:href="#m952638f50b" x="246.675802" y="86.162824" style="fill: #f5deb3; stroke: #f5deb3; stroke-width: 1.5; stroke-linejoin: miter"/>
     <use xlink:href="#m952638f50b" x="249.479522" y="32.967529" style="fill: #f5deb3; stroke: #f5deb3; stroke-width: 1.5; stroke-linejoin: miter"/>
     <use xlink:href="#m952638f50b" x="249.479522" y="27.648" style="fill: #f5deb3; stroke: #f5deb3; stroke-width: 1.5; stroke-linejoin: miter"/>
     <use xlink:href="#m952638f50b" x="360.8064" y="27.648" style="fill: #f5deb3; stroke: #f5deb3; stroke-width: 1.5; stroke-linejoin: miter"/>
    </g>
   </g>
   <g id="line2d_3">
    <path style="fill: none; stroke: #f5deb3; stroke-width: 4; stroke-linecap: square"/>
    <g/>
   </g>
   <g id="line2d_4">
    <path d="M 360.8064 27.648 
L 380.514816 119.88864 
" style="fill: none; stroke: #f5deb3; stroke-width: 4; stroke-linecap: square"/>
    <g>
     <use xlink:href="#m952638f50b" x="360.8064" y="27.648" style="fill: #f5deb3; stroke: #f5deb3; stroke-width: 1.5; stroke-linejoin: miter"/>
     <use xlink:href="#m952638f50b" x="380.514816" y="119.88864" style="fill: #f5deb3; stroke: #f5deb3; stroke-width: 1.5; stroke-linejoin: miter"/>
    </g>
   </g>
   <g id="matplotlib.axis_1">
    <g id="xtick_1">
     <g id="line2d_5">
      <path d="M 57.6 298.944 
L 57.6 27.648 
" clip-path="url(#p3aab32a0d1)" style="fill: none; stroke: #b0b0b0; stroke-width: 0.8; stroke-linecap: square"/>
     </g>
     <g id="line2d_6">
      <defs>
       <path id="m5f07705ccf" d="M 0 0 
L 0 3.5 
" style="stroke: #000000; stroke-width: 0.8"/>
      </defs>
      <g>
       <use xlink:href="#m5f07705ccf" x="57.6" y="298.944" style="stroke: #000000; stroke-width: 0.8"/>
      </g>
     </g>
     <g id="text_1">
      <!-- 0 -->
      <g transform="translate(52.191875 318.861344)scale(0.17 -0.17)">
       <defs>
        <path id="DejaVuSans-30" d="M 2034 4250 
Q 1547 4250 1301 3770 
Q 1056 3291 1056 2328 
Q 1056 1369 1301 889 
Q 1547 409 2034 409 
Q 2525 409 2770 889 
Q 3016 1369 3016 2328 
Q 3016 3291 2770 3770 
Q 2525 4250 2034 4250 
z
M 2034 4750 
Q 2819 4750 3233 4129 
Q 3647 3509 3647 2328 
Q 3647 1150 3233 529 
Q 2819 -91 2034 -91 
Q 1250 -91 836 529 
Q 422 1150 422 2328 
Q 422 3509 836 4129 
Q 1250 4750 2034 4750 
z
" transform="scale(0.015625)"/>
       </defs>
       <use xlink:href="#DejaVuSans-30"/>
      </g>
     </g>
    </g>
    <g id="xtick_2">
     <g id="line2d_7">
      <path d="M 144.2304 298.944 
L 144.2304 27.648 
" clip-path="url(#p3aab32a0d1)" style="fill: none; stroke: #b0b0b0; stroke-width: 0.8; stroke-linecap: square"/>
     </g>
     <g id="line2d_8">
      <g>
       <use xlink:href="#m5f07705ccf" x="144.2304" y="298.944" style="stroke: #000000; stroke-width: 0.8"/>
      </g>
     </g>
     <g id="text_2">
      <!-- 2 -->
      <g transform="translate(138.822275 318.861344)scale(0.17 -0.17)">
       <defs>
        <path id="DejaVuSans-32" d="M 1228 531 
L 3431 531 
L 3431 0 
L 469 0 
L 469 531 
Q 828 903 1448 1529 
Q 2069 2156 2228 2338 
Q 2531 2678 2651 2914 
Q 2772 3150 2772 3378 
Q 2772 3750 2511 3984 
Q 2250 4219 1831 4219 
Q 1534 4219 1204 4116 
Q 875 4013 500 3803 
L 500 4441 
Q 881 4594 1212 4672 
Q 1544 4750 1819 4750 
Q 2544 4750 2975 4387 
Q 3406 4025 3406 3419 
Q 3406 3131 3298 2873 
Q 3191 2616 2906 2266 
Q 2828 2175 2409 1742 
Q 1991 1309 1228 531 
z
" transform="scale(0.015625)"/>
       </defs>
       <use xlink:href="#DejaVuSans-32"/>
      </g>
     </g>
    </g>
    <g id="xtick_3">
     <g id="line2d_9">
      <path d="M 230.8608 298.944 
L 230.8608 27.648 
" clip-path="url(#p3aab32a0d1)" style="fill: none; stroke: #b0b0b0; stroke-width: 0.8; stroke-linecap: square"/>
     </g>
     <g id="line2d_10">
      <g>
       <use xlink:href="#m5f07705ccf" x="230.8608" y="298.944" style="stroke: #000000; stroke-width: 0.8"/>
      </g>
     </g>
     <g id="text_3">
      <!-- 4 -->
      <g transform="translate(225.452675 318.861344)scale(0.17 -0.17)">
       <defs>
        <path id="DejaVuSans-34" d="M 2419 4116 
L 825 1625 
L 2419 1625 
L 2419 4116 
z
M 2253 4666 
L 3047 4666 
L 3047 1625 
L 3713 1625 
L 3713 1100 
L 3047 1100 
L 3047 0 
L 2419 0 
L 2419 1100 
L 313 1100 
L 313 1709 
L 2253 4666 
z
" transform="scale(0.015625)"/>
       </defs>
       <use xlink:href="#DejaVuSans-34"/>
      </g>
     </g>
    </g>
    <g id="xtick_4">
     <g id="line2d_11">
      <path d="M 317.4912 298.944 
L 317.4912 27.648 
" clip-path="url(#p3aab32a0d1)" style="fill: none; stroke: #b0b0b0; stroke-width: 0.8; stroke-linecap: square"/>
     </g>
     <g id="line2d_12">
      <g>
       <use xlink:href="#m5f07705ccf" x="317.4912" y="298.944" style="stroke: #000000; stroke-width: 0.8"/>
      </g>
     </g>
     <g id="text_4">
      <!-- 6 -->
      <g transform="translate(312.083075 318.861344)scale(0.17 -0.17)">
       <defs>
        <path id="DejaVuSans-36" d="M 2113 2584 
Q 1688 2584 1439 2293 
Q 1191 2003 1191 1497 
Q 1191 994 1439 701 
Q 1688 409 2113 409 
Q 2538 409 2786 701 
Q 3034 994 3034 1497 
Q 3034 2003 2786 2293 
Q 2538 2584 2113 2584 
z
M 3366 4563 
L 3366 3988 
Q 3128 4100 2886 4159 
Q 2644 4219 2406 4219 
Q 1781 4219 1451 3797 
Q 1122 3375 1075 2522 
Q 1259 2794 1537 2939 
Q 1816 3084 2150 3084 
Q 2853 3084 3261 2657 
Q 3669 2231 3669 1497 
Q 3669 778 3244 343 
Q 2819 -91 2113 -91 
Q 1303 -91 875 529 
Q 447 1150 447 2328 
Q 447 3434 972 4092 
Q 1497 4750 2381 4750 
Q 2619 4750 2861 4703 
Q 3103 4656 3366 4563 
z
" transform="scale(0.015625)"/>
       </defs>
       <use xlink:href="#DejaVuSans-36"/>
      </g>
     </g>
    </g>
    <g id="xtick_5">
     <g id="line2d_13">
      <path d="M 100.9152 298.944 
L 100.9152 27.648 
" clip-path="url(#p3aab32a0d1)" style="fill: none; stroke: #b0b0b0; stroke-width: 0.8; stroke-linecap: square"/>
     </g>
     <g id="line2d_14">
      <defs>
       <path id="m18f284897d" d="M 0 0 
L 0 2 
" style="stroke: #000000; stroke-width: 0.6"/>
      </defs>
      <g>
       <use xlink:href="#m18f284897d" x="100.9152" y="298.944" style="stroke: #000000; stroke-width: 0.6"/>
      </g>
     </g>
    </g>
    <g id="xtick_6">
     <g id="line2d_15">
      <path d="M 187.5456 298.944 
L 187.5456 27.648 
" clip-path="url(#p3aab32a0d1)" style="fill: none; stroke: #b0b0b0; stroke-width: 0.8; stroke-linecap: square"/>
     </g>
     <g id="line2d_16">
      <g>
       <use xlink:href="#m18f284897d" x="187.5456" y="298.944" style="stroke: #000000; stroke-width: 0.6"/>
      </g>
     </g>
    </g>
    <g id="xtick_7">
     <g id="line2d_17">
      <path d="M 274.176 298.944 
L 274.176 27.648 
" clip-path="url(#p3aab32a0d1)" style="fill: none; stroke: #b0b0b0; stroke-width: 0.8; stroke-linecap: square"/>
     </g>
     <g id="line2d_18">
      <g>
       <use xlink:href="#m18f284897d" x="274.176" y="298.944" style="stroke: #000000; stroke-width: 0.6"/>
      </g>
     </g>
    </g>
    <g id="xtick_8">
     <g id="line2d_19">
      <path d="M 360.8064 298.944 
L 360.8064 27.648 
" clip-path="url(#p3aab32a0d1)" style="fill: none; stroke: #b0b0b0; stroke-width: 0.8; stroke-linecap: square"/>
     </g>
     <g id="line2d_20">
      <g>
       <use xlink:href="#m18f284897d" x="360.8064" y="298.944" style="stroke: #000000; stroke-width: 0.6"/>
      </g>
     </g>
    </g>
    <g id="text_5">
     <!-- log10(# f-evals / dimension) -->
     <g transform="translate(88.823278 339.314156)scale(0.17 -0.17)">
      <defs>
       <path id="DejaVuSans-6c" d="M 603 4863 
L 1178 4863 
L 1178 0 
L 603 0 
L 603 4863 
z
" transform="scale(0.015625)"/>
       <path id="DejaVuSans-6f" d="M 1959 3097 
Q 1497 3097 1228 2736 
Q 959 2375 959 1747 
Q 959 1119 1226 758 
Q 1494 397 1959 397 
Q 2419 397 2687 759 
Q 2956 1122 2956 1747 
Q 2956 2369 2687 2733 
Q 2419 3097 1959 3097 
z
M 1959 3584 
Q 2709 3584 3137 3096 
Q 3566 2609 3566 1747 
Q 3566 888 3137 398 
Q 2709 -91 1959 -91 
Q 1206 -91 779 398 
Q 353 888 353 1747 
Q 353 2609 779 3096 
Q 1206 3584 1959 3584 
z
" transform="scale(0.015625)"/>
       <path id="DejaVuSans-67" d="M 2906 1791 
Q 2906 2416 2648 2759 
Q 2391 3103 1925 3103 
Q 1463 3103 1205 2759 
Q 947 2416 947 1791 
Q 947 1169 1205 825 
Q 1463 481 1925 481 
Q 2391 481 2648 825 
Q 2906 1169 2906 1791 
z
M 3481 434 
Q 3481 -459 3084 -895 
Q 2688 -1331 1869 -1331 
Q 1566 -1331 1297 -1286 
Q 1028 -1241 775 -1147 
L 775 -588 
Q 1028 -725 1275 -790 
Q 1522 -856 1778 -856 
Q 2344 -856 2625 -561 
Q 2906 -266 2906 331 
L 2906 616 
Q 2728 306 2450 153 
Q 2172 0 1784 0 
Q 1141 0 747 490 
Q 353 981 353 1791 
Q 353 2603 747 3093 
Q 1141 3584 1784 3584 
Q 2172 3584 2450 3431 
Q 2728 3278 2906 2969 
L 2906 3500 
L 3481 3500 
L 3481 434 
z
" transform="scale(0.015625)"/>
       <path id="DejaVuSans-31" d="M 794 531 
L 1825 531 
L 1825 4091 
L 703 3866 
L 703 4441 
L 1819 4666 
L 2450 4666 
L 2450 531 
L 3481 531 
L 3481 0 
L 794 0 
L 794 531 
z
" transform="scale(0.015625)"/>
       <path id="DejaVuSans-28" d="M 1984 4856 
Q 1566 4138 1362 3434 
Q 1159 2731 1159 2009 
Q 1159 1288 1364 580 
Q 1569 -128 1984 -844 
L 1484 -844 
Q 1016 -109 783 600 
Q 550 1309 550 2009 
Q 550 2706 781 3412 
Q 1013 4119 1484 4856 
L 1984 4856 
z
" transform="scale(0.015625)"/>
       <path id="DejaVuSans-23" d="M 3272 2816 
L 2363 2816 
L 2100 1772 
L 3016 1772 
L 3272 2816 
z
M 2803 4594 
L 2478 3297 
L 3391 3297 
L 3719 4594 
L 4219 4594 
L 3897 3297 
L 4872 3297 
L 4872 2816 
L 3775 2816 
L 3519 1772 
L 4513 1772 
L 4513 1294 
L 3397 1294 
L 3072 0 
L 2572 0 
L 2894 1294 
L 1978 1294 
L 1656 0 
L 1153 0 
L 1478 1294 
L 494 1294 
L 494 1772 
L 1594 1772 
L 1856 2816 
L 850 2816 
L 850 3297 
L 1978 3297 
L 2297 4594 
L 2803 4594 
z
" transform="scale(0.015625)"/>
       <path id="DejaVuSans-20" transform="scale(0.015625)"/>
       <path id="DejaVuSans-66" d="M 2375 4863 
L 2375 4384 
L 1825 4384 
Q 1516 4384 1395 4259 
Q 1275 4134 1275 3809 
L 1275 3500 
L 2222 3500 
L 2222 3053 
L 1275 3053 
L 1275 0 
L 697 0 
L 697 3053 
L 147 3053 
L 147 3500 
L 697 3500 
L 697 3744 
Q 697 4328 969 4595 
Q 1241 4863 1831 4863 
L 2375 4863 
z
" transform="scale(0.015625)"/>
       <path id="DejaVuSans-2d" d="M 313 2009 
L 1997 2009 
L 1997 1497 
L 313 1497 
L 313 2009 
z
" transform="scale(0.015625)"/>
       <path id="DejaVuSans-65" d="M 3597 1894 
L 3597 1613 
L 953 1613 
Q 991 1019 1311 708 
Q 1631 397 2203 397 
Q 2534 397 2845 478 
Q 3156 559 3463 722 
L 3463 178 
Q 3153 47 2828 -22 
Q 2503 -91 2169 -91 
Q 1331 -91 842 396 
Q 353 884 353 1716 
Q 353 2575 817 3079 
Q 1281 3584 2069 3584 
Q 2775 3584 3186 3129 
Q 3597 2675 3597 1894 
z
M 3022 2063 
Q 3016 2534 2758 2815 
Q 2500 3097 2075 3097 
Q 1594 3097 1305 2825 
Q 1016 2553 972 2059 
L 3022 2063 
z
" transform="scale(0.015625)"/>
       <path id="DejaVuSans-76" d="M 191 3500 
L 800 3500 
L 1894 563 
L 2988 3500 
L 3597 3500 
L 2284 0 
L 1503 0 
L 191 3500 
z
" transform="scale(0.015625)"/>
       <path id="DejaVuSans-61" d="M 2194 1759 
Q 1497 1759 1228 1600 
Q 959 1441 959 1056 
Q 959 750 1161 570 
Q 1363 391 1709 391 
Q 2188 391 2477 730 
Q 2766 1069 2766 1631 
L 2766 1759 
L 2194 1759 
z
M 3341 1997 
L 3341 0 
L 2766 0 
L 2766 531 
Q 2569 213 2275 61 
Q 1981 -91 1556 -91 
Q 1019 -91 701 211 
Q 384 513 384 1019 
Q 384 1609 779 1909 
Q 1175 2209 1959 2209 
L 2766 2209 
L 2766 2266 
Q 2766 2663 2505 2880 
Q 2244 3097 1772 3097 
Q 1472 3097 1187 3025 
Q 903 2953 641 2809 
L 641 3341 
Q 956 3463 1253 3523 
Q 1550 3584 1831 3584 
Q 2591 3584 2966 3190 
Q 3341 2797 3341 1997 
z
" transform="scale(0.015625)"/>
       <path id="DejaVuSans-73" d="M 2834 3397 
L 2834 2853 
Q 2591 2978 2328 3040 
Q 2066 3103 1784 3103 
Q 1356 3103 1142 2972 
Q 928 2841 928 2578 
Q 928 2378 1081 2264 
Q 1234 2150 1697 2047 
L 1894 2003 
Q 2506 1872 2764 1633 
Q 3022 1394 3022 966 
Q 3022 478 2636 193 
Q 2250 -91 1575 -91 
Q 1294 -91 989 -36 
Q 684 19 347 128 
L 347 722 
Q 666 556 975 473 
Q 1284 391 1588 391 
Q 1994 391 2212 530 
Q 2431 669 2431 922 
Q 2431 1156 2273 1281 
Q 2116 1406 1581 1522 
L 1381 1569 
Q 847 1681 609 1914 
Q 372 2147 372 2553 
Q 372 3047 722 3315 
Q 1072 3584 1716 3584 
Q 2034 3584 2315 3537 
Q 2597 3491 2834 3397 
z
" transform="scale(0.015625)"/>
       <path id="DejaVuSans-2f" d="M 1625 4666 
L 2156 4666 
L 531 -594 
L 0 -594 
L 1625 4666 
z
" transform="scale(0.015625)"/>
       <path id="DejaVuSans-64" d="M 2906 2969 
L 2906 4863 
L 3481 4863 
L 3481 0 
L 2906 0 
L 2906 525 
Q 2725 213 2448 61 
Q 2172 -91 1784 -91 
Q 1150 -91 751 415 
Q 353 922 353 1747 
Q 353 2572 751 3078 
Q 1150 3584 1784 3584 
Q 2172 3584 2448 3432 
Q 2725 3281 2906 2969 
z
M 947 1747 
Q 947 1113 1208 752 
Q 1469 391 1925 391 
Q 2381 391 2643 752 
Q 2906 1113 2906 1747 
Q 2906 2381 2643 2742 
Q 2381 3103 1925 3103 
Q 1469 3103 1208 2742 
Q 947 2381 947 1747 
z
" transform="scale(0.015625)"/>
       <path id="DejaVuSans-69" d="M 603 3500 
L 1178 3500 
L 1178 0 
L 603 0 
L 603 3500 
z
M 603 4863 
L 1178 4863 
L 1178 4134 
L 603 4134 
L 603 4863 
z
" transform="scale(0.015625)"/>
       <path id="DejaVuSans-6d" d="M 3328 2828 
Q 3544 3216 3844 3400 
Q 4144 3584 4550 3584 
Q 5097 3584 5394 3201 
Q 5691 2819 5691 2113 
L 5691 0 
L 5113 0 
L 5113 2094 
Q 5113 2597 4934 2840 
Q 4756 3084 4391 3084 
Q 3944 3084 3684 2787 
Q 3425 2491 3425 1978 
L 3425 0 
L 2847 0 
L 2847 2094 
Q 2847 2600 2669 2842 
Q 2491 3084 2119 3084 
Q 1678 3084 1418 2786 
Q 1159 2488 1159 1978 
L 1159 0 
L 581 0 
L 581 3500 
L 1159 3500 
L 1159 2956 
Q 1356 3278 1631 3431 
Q 1906 3584 2284 3584 
Q 2666 3584 2933 3390 
Q 3200 3197 3328 2828 
z
" transform="scale(0.015625)"/>
       <path id="DejaVuSans-6e" d="M 3513 2113 
L 3513 0 
L 2938 0 
L 2938 2094 
Q 2938 2591 2744 2837 
Q 2550 3084 2163 3084 
Q 1697 3084 1428 2787 
Q 1159 2491 1159 1978 
L 1159 0 
L 581 0 
L 581 3500 
L 1159 3500 
L 1159 2956 
Q 1366 3272 1645 3428 
Q 1925 3584 2291 3584 
Q 2894 3584 3203 3211 
Q 3513 2838 3513 2113 
z
" transform="scale(0.015625)"/>
       <path id="DejaVuSans-29" d="M 513 4856 
L 1013 4856 
Q 1481 4119 1714 3412 
Q 1947 2706 1947 2009 
Q 1947 1309 1714 600 
Q 1481 -109 1013 -844 
L 513 -844 
Q 928 -128 1133 580 
Q 1338 1288 1338 2009 
Q 1338 2731 1133 3434 
Q 928 4138 513 4856 
z
" transform="scale(0.015625)"/>
      </defs>
      <use xlink:href="#DejaVuSans-6c"/>
      <use xlink:href="#DejaVuSans-6f" x="27.783203"/>
      <use xlink:href="#DejaVuSans-67" x="88.964844"/>
      <use xlink:href="#DejaVuSans-31" x="152.441406"/>
      <use xlink:href="#DejaVuSans-30" x="216.064453"/>
      <use xlink:href="#DejaVuSans-28" x="279.6875"/>
      <use xlink:href="#DejaVuSans-23" x="318.701172"/>
      <use xlink:href="#DejaVuSans-20" x="402.490234"/>
      <use xlink:href="#DejaVuSans-66" x="434.277344"/>
      <use xlink:href="#DejaVuSans-2d" x="463.982422"/>
      <use xlink:href="#DejaVuSans-65" x="500.066406"/>
      <use xlink:href="#DejaVuSans-76" x="561.589844"/>
      <use xlink:href="#DejaVuSans-61" x="620.769531"/>
      <use xlink:href="#DejaVuSans-6c" x="682.048828"/>
      <use xlink:href="#DejaVuSans-73" x="709.832031"/>
      <use xlink:href="#DejaVuSans-20" x="761.931641"/>
      <use xlink:href="#DejaVuSans-2f" x="793.71875"/>
      <use xlink:href="#DejaVuSans-20" x="827.410156"/>
      <use xlink:href="#DejaVuSans-64" x="859.197266"/>
      <use xlink:href="#DejaVuSans-69" x="922.673828"/>
      <use xlink:href="#DejaVuSans-6d" x="950.457031"/>
      <use xlink:href="#DejaVuSans-65" x="1047.869141"/>
      <use xlink:href="#DejaVuSans-6e" x="1109.392578"/>
      <use xlink:href="#DejaVuSans-73" x="1172.771484"/>
      <use xlink:href="#DejaVuSans-69" x="1224.871094"/>
      <use xlink:href="#DejaVuSans-6f" x="1252.654297"/>
      <use xlink:href="#DejaVuSans-6e" x="1313.835938"/>
      <use xlink:href="#DejaVuSans-29" x="1377.214844"/>
     </g>
    </g>
   </g>
   <g id="matplotlib.axis_2">
    <g id="ytick_1">
     <g id="line2d_21">
      <path d="M 57.6 298.944 
L 360.8064 298.944 
" clip-path="url(#p3aab32a0d1)" style="fill: none; stroke: #b0b0b0; stroke-width: 0.8; stroke-linecap: square"/>
     </g>
     <g id="line2d_22">
      <defs>
       <path id="mb216bcc99e" d="M 0 0 
L -3.5 0 
" style="stroke: #000000; stroke-width: 0.8"/>
      </defs>
      <g>
       <use xlink:href="#mb216bcc99e" x="57.6" y="298.944" style="stroke: #000000; stroke-width: 0.8"/>
      </g>
     </g>
     <g id="text_6">
      <!-- 0.0 -->
      <g transform="translate(25.155 305.02275)scale(0.16 -0.16)">
       <defs>
        <path id="DejaVuSans-2e" d="M 684 794 
L 1344 794 
L 1344 0 
L 684 0 
L 684 794 
z
" transform="scale(0.015625)"/>
       </defs>
       <use xlink:href="#DejaVuSans-30"/>
       <use xlink:href="#DejaVuSans-2e" x="63.623047"/>
       <use xlink:href="#DejaVuSans-30" x="95.410156"/>
      </g>
     </g>
    </g>
    <g id="ytick_2">
     <g id="line2d_23">
      <path d="M 57.6 244.6848 
L 360.8064 244.6848 
" clip-path="url(#p3aab32a0d1)" style="fill: none; stroke: #b0b0b0; stroke-width: 0.8; stroke-linecap: square"/>
     </g>
     <g id="line2d_24">
      <g>
       <use xlink:href="#mb216bcc99e" x="57.6" y="244.6848" style="stroke: #000000; stroke-width: 0.8"/>
      </g>
     </g>
     <g id="text_7">
      <!-- 0.2 -->
      <g transform="translate(25.155 250.76355)scale(0.16 -0.16)">
       <use xlink:href="#DejaVuSans-30"/>
       <use xlink:href="#DejaVuSans-2e" x="63.623047"/>
       <use xlink:href="#DejaVuSans-32" x="95.410156"/>
      </g>
     </g>
    </g>
    <g id="ytick_3">
     <g id="line2d_25">
      <path d="M 57.6 190.4256 
L 360.8064 190.4256 
" clip-path="url(#p3aab32a0d1)" style="fill: none; stroke: #b0b0b0; stroke-width: 0.8; stroke-linecap: square"/>
     </g>
     <g id="line2d_26">
      <g>
       <use xlink:href="#mb216bcc99e" x="57.6" y="190.4256" style="stroke: #000000; stroke-width: 0.8"/>
      </g>
     </g>
     <g id="text_8">
      <!-- 0.4 -->
      <g transform="translate(25.155 196.50435)scale(0.16 -0.16)">
       <use xlink:href="#DejaVuSans-30"/>
       <use xlink:href="#DejaVuSans-2e" x="63.623047"/>
       <use xlink:href="#DejaVuSans-34" x="95.410156"/>
      </g>
     </g>
    </g>
    <g id="ytick_4">
     <g id="line2d_27">
      <path d="M 57.6 136.1664 
L 360.8064 136.1664 
" clip-path="url(#p3aab32a0d1)" style="fill: none; stroke: #b0b0b0; stroke-width: 0.8; stroke-linecap: square"/>
     </g>
     <g id="line2d_28">
      <g>
       <use xlink:href="#mb216bcc99e" x="57.6" y="136.1664" style="stroke: #000000; stroke-width: 0.8"/>
      </g>
     </g>
     <g id="text_9">
      <!-- 0.6 -->
      <g transform="translate(25.155 142.24515)scale(0.16 -0.16)">
       <use xlink:href="#DejaVuSans-30"/>
       <use xlink:href="#DejaVuSans-2e" x="63.623047"/>
       <use xlink:href="#DejaVuSans-36" x="95.410156"/>
      </g>
     </g>
    </g>
    <g id="ytick_5">
     <g id="line2d_29">
      <path d="M 57.6 81.9072 
L 360.8064 81.9072 
" clip-path="url(#p3aab32a0d1)" style="fill: none; stroke: #b0b0b0; stroke-width: 0.8; stroke-linecap: square"/>
     </g>
     <g id="line2d_30">
      <g>
       <use xlink:href="#mb216bcc99e" x="57.6" y="81.9072" style="stroke: #000000; stroke-width: 0.8"/>
      </g>
     </g>
     <g id="text_10">
      <!-- 0.8 -->
      <g transform="translate(25.155 87.98595)scale(0.16 -0.16)">
       <defs>
        <path id="DejaVuSans-38" d="M 2034 2216 
Q 1584 2216 1326 1975 
Q 1069 1734 1069 1313 
Q 1069 891 1326 650 
Q 1584 409 2034 409 
Q 2484 409 2743 651 
Q 3003 894 3003 1313 
Q 3003 1734 2745 1975 
Q 2488 2216 2034 2216 
z
M 1403 2484 
Q 997 2584 770 2862 
Q 544 3141 544 3541 
Q 544 4100 942 4425 
Q 1341 4750 2034 4750 
Q 2731 4750 3128 4425 
Q 3525 4100 3525 3541 
Q 3525 3141 3298 2862 
Q 3072 2584 2669 2484 
Q 3125 2378 3379 2068 
Q 3634 1759 3634 1313 
Q 3634 634 3220 271 
Q 2806 -91 2034 -91 
Q 1263 -91 848 271 
Q 434 634 434 1313 
Q 434 1759 690 2068 
Q 947 2378 1403 2484 
z
M 1172 3481 
Q 1172 3119 1398 2916 
Q 1625 2713 2034 2713 
Q 2441 2713 2670 2916 
Q 2900 3119 2900 3481 
Q 2900 3844 2670 4047 
Q 2441 4250 2034 4250 
Q 1625 4250 1398 4047 
Q 1172 3844 1172 3481 
z
" transform="scale(0.015625)"/>
       </defs>
       <use xlink:href="#DejaVuSans-30"/>
       <use xlink:href="#DejaVuSans-2e" x="63.623047"/>
       <use xlink:href="#DejaVuSans-38" x="95.410156"/>
      </g>
     </g>
    </g>
    <g id="ytick_6">
     <g id="line2d_31">
      <path d="M 57.6 27.648 
L 360.8064 27.648 
" clip-path="url(#p3aab32a0d1)" style="fill: none; stroke: #b0b0b0; stroke-width: 0.8; stroke-linecap: square"/>
     </g>
     <g id="line2d_32">
      <g>
       <use xlink:href="#mb216bcc99e" x="57.6" y="27.648" style="stroke: #000000; stroke-width: 0.8"/>
      </g>
     </g>
     <g id="text_11">
      <!-- 1.0 -->
      <g transform="translate(25.155 33.72675)scale(0.16 -0.16)">
       <use xlink:href="#DejaVuSans-31"/>
       <use xlink:href="#DejaVuSans-2e" x="63.623047"/>
       <use xlink:href="#DejaVuSans-30" x="95.410156"/>
      </g>
     </g>
    </g>
    <g id="text_12">
     <!-- Fraction of function,target pairs -->
     <g transform="translate(17.619531 297.681)rotate(-90)scale(0.17 -0.17)">
      <defs>
       <path id="DejaVuSans-46" d="M 628 4666 
L 3309 4666 
L 3309 4134 
L 1259 4134 
L 1259 2759 
L 3109 2759 
L 3109 2228 
L 1259 2228 
L 1259 0 
L 628 0 
L 628 4666 
z
" transform="scale(0.015625)"/>
       <path id="DejaVuSans-72" d="M 2631 2963 
Q 2534 3019 2420 3045 
Q 2306 3072 2169 3072 
Q 1681 3072 1420 2755 
Q 1159 2438 1159 1844 
L 1159 0 
L 581 0 
L 581 3500 
L 1159 3500 
L 1159 2956 
Q 1341 3275 1631 3429 
Q 1922 3584 2338 3584 
Q 2397 3584 2469 3576 
Q 2541 3569 2628 3553 
L 2631 2963 
z
" transform="scale(0.015625)"/>
       <path id="DejaVuSans-63" d="M 3122 3366 
L 3122 2828 
Q 2878 2963 2633 3030 
Q 2388 3097 2138 3097 
Q 1578 3097 1268 2742 
Q 959 2388 959 1747 
Q 959 1106 1268 751 
Q 1578 397 2138 397 
Q 2388 397 2633 464 
Q 2878 531 3122 666 
L 3122 134 
Q 2881 22 2623 -34 
Q 2366 -91 2075 -91 
Q 1284 -91 818 406 
Q 353 903 353 1747 
Q 353 2603 823 3093 
Q 1294 3584 2113 3584 
Q 2378 3584 2631 3529 
Q 2884 3475 3122 3366 
z
" transform="scale(0.015625)"/>
       <path id="DejaVuSans-74" d="M 1172 4494 
L 1172 3500 
L 2356 3500 
L 2356 3053 
L 1172 3053 
L 1172 1153 
Q 1172 725 1289 603 
Q 1406 481 1766 481 
L 2356 481 
L 2356 0 
L 1766 0 
Q 1100 0 847 248 
Q 594 497 594 1153 
L 594 3053 
L 172 3053 
L 172 3500 
L 594 3500 
L 594 4494 
L 1172 4494 
z
" transform="scale(0.015625)"/>
       <path id="DejaVuSans-75" d="M 544 1381 
L 544 3500 
L 1119 3500 
L 1119 1403 
Q 1119 906 1312 657 
Q 1506 409 1894 409 
Q 2359 409 2629 706 
Q 2900 1003 2900 1516 
L 2900 3500 
L 3475 3500 
L 3475 0 
L 2900 0 
L 2900 538 
Q 2691 219 2414 64 
Q 2138 -91 1772 -91 
Q 1169 -91 856 284 
Q 544 659 544 1381 
z
M 1991 3584 
L 1991 3584 
z
" transform="scale(0.015625)"/>
       <path id="DejaVuSans-2c" d="M 750 794 
L 1409 794 
L 1409 256 
L 897 -744 
L 494 -744 
L 750 256 
L 750 794 
z
" transform="scale(0.015625)"/>
       <path id="DejaVuSans-70" d="M 1159 525 
L 1159 -1331 
L 581 -1331 
L 581 3500 
L 1159 3500 
L 1159 2969 
Q 1341 3281 1617 3432 
Q 1894 3584 2278 3584 
Q 2916 3584 3314 3078 
Q 3713 2572 3713 1747 
Q 3713 922 3314 415 
Q 2916 -91 2278 -91 
Q 1894 -91 1617 61 
Q 1341 213 1159 525 
z
M 3116 1747 
Q 3116 2381 2855 2742 
Q 2594 3103 2138 3103 
Q 1681 3103 1420 2742 
Q 1159 2381 1159 1747 
Q 1159 1113 1420 752 
Q 1681 391 2138 391 
Q 2594 391 2855 752 
Q 3116 1113 3116 1747 
z
" transform="scale(0.015625)"/>
      </defs>
      <use xlink:href="#DejaVuSans-46"/>
      <use xlink:href="#DejaVuSans-72" x="50.269531"/>
      <use xlink:href="#DejaVuSans-61" x="91.382812"/>
      <use xlink:href="#DejaVuSans-63" x="152.662109"/>
      <use xlink:href="#DejaVuSans-74" x="207.642578"/>
      <use xlink:href="#DejaVuSans-69" x="246.851562"/>
      <use xlink:href="#DejaVuSans-6f" x="274.634766"/>
      <use xlink:href="#DejaVuSans-6e" x="335.816406"/>
      <use xlink:href="#DejaVuSans-20" x="399.195312"/>
      <use xlink:href="#DejaVuSans-6f" x="430.982422"/>
      <use xlink:href="#DejaVuSans-66" x="492.164062"/>
      <use xlink:href="#DejaVuSans-20" x="527.369141"/>
      <use xlink:href="#DejaVuSans-66" x="559.15625"/>
      <use xlink:href="#DejaVuSans-75" x="594.361328"/>
      <use xlink:href="#DejaVuSans-6e" x="657.740234"/>
      <use xlink:href="#DejaVuSans-63" x="721.119141"/>
      <use xlink:href="#DejaVuSans-74" x="776.099609"/>
      <use xlink:href="#DejaVuSans-69" x="815.308594"/>
      <use xlink:href="#DejaVuSans-6f" x="843.091797"/>
      <use xlink:href="#DejaVuSans-6e" x="904.273438"/>
      <use xlink:href="#DejaVuSans-2c" x="967.652344"/>
      <use xlink:href="#DejaVuSans-74" x="999.439453"/>
      <use xlink:href="#DejaVuSans-61" x="1038.648438"/>
      <use xlink:href="#DejaVuSans-72" x="1099.927734"/>
      <use xlink:href="#DejaVuSans-67" x="1139.291016"/>
      <use xlink:href="#DejaVuSans-65" x="1202.767578"/>
      <use xlink:href="#DejaVuSans-74" x="1264.291016"/>
      <use xlink:href="#DejaVuSans-20" x="1303.5"/>
      <use xlink:href="#DejaVuSans-70" x="1335.287109"/>
      <use xlink:href="#DejaVuSans-61" x="1398.763672"/>
      <use xlink:href="#DejaVuSans-69" x="1460.042969"/>
      <use xlink:href="#DejaVuSans-72" x="1487.826172"/>
      <use xlink:href="#DejaVuSans-73" x="1528.939453"/>
     </g>
    </g>
   </g>
   <g id="line2d_33">
    <defs>
     <path id="m625f511b9d" d="M 0 1.5 
C 0.397805 1.5 0.77937 1.341951 1.06066 1.06066 
C 1.341951 0.77937 1.5 0.397805 1.5 0 
C 1.5 -0.397805 1.341951 -0.77937 1.06066 -1.06066 
C 0.77937 -1.341951 0.397805 -1.5 0 -1.5 
C -0.397805 -1.5 -0.77937 -1.341951 -1.06066 -1.06066 
C -1.341951 -0.77937 -1.5 -0.397805 -1.5 0 
C -1.5 0.397805 -1.341951 0.77937 -1.06066 1.06066 
C -0.77937 1.341951 -0.397805 1.5 0 1.5 
z
" style="stroke: #f5deb3"/>
    </defs>
    <g>
     <use xlink:href="#m625f511b9d" x="249.479522" y="27.648" style="fill: #f5deb3; stroke: #f5deb3"/>
     <use xlink:href="#m625f511b9d" x="249.479522" y="27.648" style="fill: #f5deb3; stroke: #f5deb3"/>
    </g>
   </g>
   <g id="line2d_34">
    <defs>
     <path id="mfaf54df4b3" d="M 0 1.5 
C 0.397805 1.5 0.77937 1.341951 1.06066 1.06066 
C 1.341951 0.77937 1.5 0.397805 1.5 0 
C 1.5 -0.397805 1.341951 -0.77937 1.06066 -1.06066 
C 0.77937 -1.341951 0.397805 -1.5 0 -1.5 
C -0.397805 -1.5 -0.77937 -1.341951 -1.06066 -1.06066 
C -1.341951 -0.77937 -1.5 -0.397805 -1.5 0 
C -1.5 0.397805 -1.341951 0.77937 -1.06066 1.06066 
C -0.77937 1.341951 -0.397805 1.5 0 1.5 
z
" style="stroke: #000080"/>
    </defs>
    <g>
     <use xlink:href="#mfaf54df4b3" x="278.675382" y="27.648" style="fill: #000080; stroke: #000080"/>
     <use xlink:href="#mfaf54df4b3" x="278.675382" y="27.648" style="fill: #000080; stroke: #000080"/>
    </g>
   </g>
   <g id="line2d_35">
    <path d="M -1 293.269835 
L 14.2848 293.269835 
L 14.2848 292.9152 
L 21.912228 292.9152 
L 21.912228 292.205929 
L 37.851216 292.205929 
L 37.851216 291.851294 
L 41.503592 291.851294 
L 41.503592 291.496659 
L 42.578831 291.496659 
L 42.578831 291.142024 
L 52.805081 291.142024 
L 52.805081 290.787388 
L 53.402323 290.787388 
L 53.402323 290.432753 
L 55.088067 290.432753 
L 55.088067 290.078118 
L 56.635094 290.078118 
L 56.635094 289.723482 
L 58.517819 289.723482 
L 58.517819 289.368847 
L 59.392932 289.368847 
L 59.392932 289.014212 
L 60.633704 289.014212 
L 60.633704 288.659576 
L 63.929565 288.659576 
L 63.929565 288.304941 
L 65.227428 288.304941 
L 65.227428 287.950306 
L 69.920174 287.950306 
L 69.920174 287.595671 
L 74.263866 287.595671 
L 74.263866 287.241035 
L 75.574654 287.241035 
L 75.574654 286.8864 
L 77.628862 286.8864 
L 77.628862 286.531765 
L 80.621116 286.531765 
L 80.621116 286.177129 
L 80.75893 286.177129 
L 80.75893 285.822494 
L 82.464279 285.822494 
L 82.464279 285.467859 
L 82.589273 285.467859 
L 82.589273 285.113224 
L 83.441723 285.113224 
L 83.441723 284.758588 
L 86.204973 284.758588 
L 86.204973 284.403953 
L 86.409448 284.403953 
L 86.409448 284.049318 
L 87.876026 284.049318 
L 87.876026 283.694682 
L 88.248544 283.694682 
L 88.248544 283.340047 
L 90.90973 283.340047 
L 90.90973 282.985412 
L 93.027318 282.985412 
L 93.098709 282.276141 
L 93.169831 282.276141 
L 93.169831 281.921506 
L 93.381595 281.921506 
L 93.381595 281.566871 
L 93.591002 281.566871 
L 93.591002 281.212235 
L 96.83473 281.212235 
L 96.83473 280.8576 
L 97.410051 280.8576 
L 97.410051 280.502965 
L 98.349443 280.502965 
L 98.349443 280.148329 
L 101.287718 280.148329 
L 101.287718 279.793694 
L 101.425532 279.793694 
L 101.425532 279.439059 
L 101.743226 279.439059 
L 101.743226 279.084424 
L 102.143961 279.084424 
L 102.143961 278.729788 
L 103.172639 278.729788 
L 103.172639 278.375153 
L 105.411479 278.375153 
L 105.411479 278.020518 
L 105.778187 278.020518 
L 105.814468 277.311247 
L 107.008139 277.311247 
L 107.008139 276.956612 
L 107.445245 276.956612 
L 107.445245 276.601976 
L 107.577722 276.601976 
L 107.577722 276.247341 
L 108.066361 276.247341 
L 108.066361 275.892706 
L 109.549813 275.892706 
L 109.549813 275.538071 
L 109.903092 275.538071 
L 109.903092 275.183435 
L 110.674517 275.183435 
L 110.674517 274.8288 
L 112.334649 274.8288 
L 112.334649 274.474165 
L 112.614474 274.474165 
L 112.614474 274.119529 
L 113.670063 274.119529 
L 113.670063 273.764894 
L 114.326893 273.764894 
L 114.395926 273.055624 
L 114.983835 273.055624 
L 114.983835 272.700988 
L 115.116936 272.700988 
L 115.116936 272.346353 
L 116.086263 272.346353 
L 116.086263 271.991718 
L 116.29505 271.991718 
L 116.357237 271.282447 
L 116.501546 271.282447 
L 116.501546 270.927812 
L 116.907859 270.927812 
L 116.907859 270.573176 
L 118.095532 270.573176 
L 118.095532 270.218541 
L 118.74459 270.218541 
L 118.74459 269.863906 
L 119.599808 269.863906 
L 119.599808 269.509271 
L 120.064314 269.509271 
L 120.064314 269.154635 
L 120.182892 269.154635 
L 120.182892 268.8 
L 120.367733 268.8 
L 120.367733 268.445365 
L 120.732052 268.445365 
L 120.732052 268.090729 
L 120.895348 268.090729 
L 120.895348 267.736094 
L 121.249686 267.736094 
L 121.249686 267.381459 
L 121.722363 267.381459 
L 121.722363 267.026824 
L 121.86188 267.026824 
L 121.86188 266.672188 
L 122.289434 266.672188 
L 122.289434 266.317553 
L 122.499621 266.317553 
L 122.499621 265.962918 
L 123.246035 265.962918 
L 123.303344 265.253647 
L 124.060394 265.253647 
L 124.07413 264.544376 
L 124.387322 264.544376 
L 124.387322 264.189741 
L 125.076759 264.189741 
L 125.076759 263.835106 
L 125.373824 263.835106 
L 125.373824 263.480471 
L 126.756923 263.480471 
L 126.756923 263.125835 
L 127.227236 263.125835 
L 127.227236 262.7712 
L 127.412117 262.7712 
L 127.446581 262.061929 
L 127.561007 262.061929 
L 127.561007 261.707294 
L 128.000734 261.707294 
L 128.000734 261.352659 
L 128.16716 261.352659 
L 128.16716 260.998024 
L 128.473936 260.998024 
L 128.473936 260.643388 
L 128.861152 260.643388 
L 128.861152 260.288753 
L 129.68393 260.288753 
L 129.68393 259.934118 
L 130.226319 259.934118 
L 130.226319 259.579482 
L 130.569695 259.579482 
L 130.589128 258.870212 
L 130.99266 258.870212 
L 130.99266 258.515576 
L 131.162987 258.515576 
L 131.162987 258.160941 
L 131.41562 258.160941 
L 131.41562 257.806306 
L 132.242935 257.806306 
L 132.242935 257.451671 
L 132.375879 257.451671 
L 132.375879 257.097035 
L 132.534182 257.097035 
L 132.586655 256.387765 
L 132.743202 256.387765 
L 132.743202 256.033129 
L 133.448664 256.033129 
L 133.448664 255.678494 
L 133.999446 255.678494 
L 133.999446 255.323859 
L 134.184863 255.323859 
L 134.28886 254.614588 
L 134.939627 254.614588 
L 134.939627 254.259953 
L 135.10841 254.259953 
L 135.10841 253.905318 
L 135.79827 253.905318 
L 135.79827 253.550682 
L 135.944949 253.550682 
L 135.974148 252.841412 
L 136.28521 252.841412 
L 136.378248 252.132141 
L 136.534656 252.132141 
L 136.534656 251.777506 
L 136.906202 251.777506 
L 136.961653 250.7136 
L 137.500625 250.7136 
L 137.500625 250.358965 
L 137.727917 250.358965 
L 137.727917 250.004329 
L 138.018041 250.004329 
L 138.018041 249.649694 
L 138.648583 249.649694 
L 138.648583 249.295059 
L 138.862496 249.295059 
L 138.862496 248.940424 
L 139.628669 248.940424 
L 139.676658 247.876518 
L 140.26641 247.876518 
L 140.335954 247.167247 
L 141.442339 247.167247 
L 141.442339 246.812612 
L 141.691574 246.812612 
L 141.691574 246.457976 
L 141.953481 246.457976 
L 142.038218 245.748706 
L 143.545571 245.748706 
L 143.545571 245.394071 
L 143.816734 245.394071 
L 143.816734 245.039435 
L 143.979481 245.039435 
L 144.003296 244.330165 
L 144.565997 244.330165 
L 144.635165 243.620894 
L 145.277662 243.620894 
L 145.38854 242.556988 
L 145.76938 242.556988 
L 145.76938 242.202353 
L 145.946218 242.202353 
L 145.946218 241.847718 
L 147.022411 241.847718 
L 147.022411 241.493082 
L 148.303509 241.493082 
L 148.303509 241.138447 
L 148.789526 241.138447 
L 148.789526 240.783812 
L 151.242777 240.783812 
L 151.352598 240.074541 
L 162.852198 240.074541 
L 162.852198 239.719906 
L 178.953018 239.719906 
L 178.953018 239.365271 
L 179.545085 239.365271 
L 179.557313 238.301365 
L 179.741219 238.301365 
L 179.741219 237.946729 
L 179.864718 237.946729 
L 179.939558 237.237459 
L 180.110707 237.237459 
L 180.197786 236.528188 
L 180.252613 236.528188 
L 180.33283 235.464282 
L 180.425758 235.464282 
L 180.425758 235.109647 
L 180.542811 235.109647 
L 180.542811 234.755012 
L 180.829943 234.755012 
L 180.877599 234.045741 
L 180.972549 234.045741 
L 181.044446 233.336471 
L 181.220361 233.336471 
L 181.29263 232.6272 
L 181.365275 232.6272 
L 181.365275 232.272565 
L 181.613803 232.272565 
L 181.694209 231.208659 
L 181.731401 231.208659 
L 181.731401 230.854024 
L 182.023168 230.854024 
L 182.103103 229.790118 
L 182.16831 229.790118 
L 182.176445 229.080847 
L 182.42937 229.080847 
L 182.530332 228.016941 
L 182.970878 228.016941 
L 183.049283 226.953035 
L 183.110702 226.953035 
L 183.110702 226.5984 
L 183.5967 226.5984 
L 183.681787 225.889129 
L 184.472868 225.889129 
L 184.472868 225.534494 
L 184.646492 225.534494 
L 184.646492 225.179859 
L 184.762993 225.179859 
L 184.8598 224.470588 
L 185.012694 224.470588 
L 185.022915 223.761318 
L 185.481911 223.761318 
L 185.481911 223.406682 
L 185.966325 223.406682 
L 185.966325 223.052047 
L 186.578218 223.052047 
L 186.663184 222.342776 
L 188.877168 222.342776 
L 188.877168 221.988141 
L 189.97576 221.988141 
L 189.97576 221.633506 
L 191.119801 221.633506 
L 191.119801 221.278871 
L 194.81856 221.278871 
L 194.921474 220.5696 
L 194.993464 220.5696 
L 195.063919 219.505694 
L 195.165188 219.505694 
L 195.257178 218.796424 
L 195.358968 218.796424 
L 195.460518 217.732518 
L 195.531094 217.732518 
L 195.579021 216.668612 
L 195.731206 216.668612 
L 195.776804 215.959341 
L 195.865858 215.959341 
L 195.921379 214.5408 
L 196.001654 214.5408 
L 196.037921 213.831529 
L 196.121279 213.831529 
L 196.210798 212.412988 
L 196.36504 212.412988 
L 196.3918 211.349082 
L 196.595221 211.349082 
L 196.661383 210.285176 
L 196.737703 210.285176 
L 196.819747 208.866635 
L 197.050423 208.866635 
L 197.142697 207.448094 
L 197.211186 207.448094 
L 197.267368 206.384188 
L 197.364448 206.384188 
L 197.364448 206.029553 
L 197.722664 206.029553 
L 197.722664 205.674918 
L 197.88025 205.674918 
L 197.927161 204.256376 
L 198.12812 204.256376 
L 198.12812 203.901741 
L 198.360332 203.901741 
L 198.360332 203.547106 
L 198.576634 203.547106 
L 198.648447 202.837835 
L 199.047904 202.837835 
L 199.047904 202.4832 
L 199.308146 202.4832 
L 199.308146 202.128565 
L 199.568561 202.128565 
L 199.568561 201.773929 
L 202.273528 201.773929 
L 202.273528 201.419294 
L 206.509942 201.419294 
L 206.509942 201.064659 
L 206.727483 201.064659 
L 206.727483 200.710024 
L 206.952596 200.710024 
L 206.956618 200.000753 
L 207.131929 200.000753 
L 207.186142 198.936847 
L 207.287022 198.936847 
L 207.356547 197.518306 
L 207.403737 197.518306 
L 207.432353 196.809035 
L 207.55142 196.809035 
L 207.588889 195.035859 
L 207.743651 195.035859 
L 207.853741 193.617318 
L 207.879767 193.617318 
L 207.899701 192.908047 
L 208.063475 192.908047 
L 208.165272 191.134871 
L 208.191498 191.134871 
L 208.227089 190.070965 
L 208.30353 190.070965 
L 208.30353 189.716329 
L 208.425286 189.716329 
L 208.528232 187.943153 
L 208.725433 187.943153 
L 208.822202 186.524612 
L 208.870552 186.524612 
L 208.946086 185.106071 
L 209.119418 185.106071 
L 209.203333 184.042165 
L 209.23231 184.042165 
L 209.260354 182.978259 
L 209.36474 182.978259 
L 209.440082 181.914353 
L 209.604721 181.914353 
L 209.604721 181.559718 
L 209.862799 181.559718 
L 209.928021 180.850447 
L 210.05509 180.850447 
L 210.143432 179.786541 
L 210.265827 179.786541 
L 210.280719 179.077271 
L 210.593807 179.077271 
L 210.593807 178.722635 
L 210.872804 178.722635 
L 210.872804 178.368 
L 211.136992 178.368 
L 211.136992 178.013365 
L 211.556849 178.013365 
L 211.556849 177.658729 
L 211.828747 177.658729 
L 211.828747 177.304094 
L 212.13486 177.304094 
L 212.13486 176.949459 
L 216.89549 176.949459 
L 216.89549 176.594824 
L 217.181614 176.594824 
L 217.181614 176.240188 
L 217.415169 176.240188 
L 217.415169 175.885553 
L 217.681429 175.885553 
L 217.681429 175.530918 
L 217.889413 175.530918 
L 217.909552 174.821647 
L 218.050295 174.821647 
L 218.143265 173.757741 
L 218.219946 173.757741 
L 218.219946 173.403106 
L 218.35108 173.403106 
L 218.440668 172.693835 
L 218.471859 172.693835 
L 218.564854 171.629929 
L 218.652172 171.629929 
L 218.716767 170.566024 
L 218.780963 170.566024 
L 218.880805 169.147482 
L 218.94852 169.147482 
L 219.027816 167.374306 
L 219.117758 167.374306 
L 219.228056 165.246494 
L 219.23207 165.246494 
L 219.277045 164.537224 
L 219.402074 164.537224 
L 219.510035 162.054776 
L 219.552806 162.054776 
L 219.629772 160.2816 
L 219.671164 160.2816 
L 219.762161 158.863059 
L 219.843768 158.863059 
L 219.914254 157.089882 
L 219.984477 157.089882 
L 220.059534 156.025976 
L 220.108073 156.025976 
L 220.189109 154.607435 
L 220.264015 154.607435 
L 220.264015 154.2528 
L 220.398511 154.2528 
L 220.481247 152.124988 
L 220.560614 152.124988 
L 220.655753 150.351812 
L 220.696726 150.351812 
L 220.80764 148.578635 
L 220.857011 148.578635 
L 220.938716 146.805459 
L 220.9914 146.805459 
L 221.075295 143.968376 
L 221.147391 143.968376 
L 221.152593 143.259106 
L 221.300614 143.259106 
L 221.349334 141.485929 
L 221.511907 141.485929 
L 221.511907 141.131294 
L 221.672322 141.131294 
L 221.783209 139.712753 
L 221.790066 139.712753 
L 221.852952 138.294212 
L 221.915704 138.294212 
L 221.934837 137.584941 
L 222.048175 137.584941 
L 222.123829 136.1664 
L 222.224727 136.1664 
L 222.307311 134.747859 
L 222.398606 134.747859 
L 222.474483 133.329318 
L 222.517914 133.329318 
L 222.562195 131.910776 
L 222.640474 131.910776 
L 222.735314 130.1376 
L 222.75573 130.1376 
L 222.75573 129.782965 
L 222.911879 129.782965 
L 222.930383 129.073694 
L 223.038038 129.073694 
L 223.108686 128.009788 
L 223.192789 128.009788 
L 223.239673 126.945882 
L 223.435052 126.945882 
L 223.475418 126.236612 
L 223.646029 126.236612 
L 223.716222 125.527341 
L 223.815107 125.527341 
L 223.909665 124.1088 
L 223.982612 124.1088 
L 224.041969 123.399529 
L 224.133849 123.399529 
L 224.141514 122.690259 
L 224.281612 122.690259 
L 224.297418 121.980988 
L 224.394364 121.980988 
L 224.416767 121.271718 
L 224.573767 121.271718 
L 224.573767 120.917082 
L 231.167085 120.917082 
L 231.167085 120.562447 
L 231.375663 120.562447 
L 231.375663 120.207812 
L 231.531512 120.207812 
L 231.531512 119.853176 
L 231.68419 119.853176 
L 231.739971 119.143906 
L 231.992123 119.143906 
L 232.073694 118.434635 
L 232.25326 118.434635 
L 232.263695 117.725365 
L 232.391762 117.725365 
L 232.430523 117.016094 
L 232.672535 117.016094 
L 232.759676 115.952188 
L 232.793529 115.952188 
L 232.843199 115.242918 
L 232.940591 115.242918 
L 232.995712 114.533647 
L 233.10113 114.533647 
L 233.208327 112.405835 
L 233.276489 112.405835 
L 233.384052 110.278024 
L 233.418853 110.278024 
L 233.47296 109.214118 
L 233.563895 109.214118 
L 233.653176 107.440941 
L 233.703339 107.440941 
L 233.732954 106.731671 
L 233.849623 106.731671 
L 233.939119 104.958494 
L 233.962862 104.958494 
L 233.962862 104.603859 
L 234.106635 104.603859 
L 234.206417 102.476047 
L 234.24087 102.476047 
L 234.341431 100.702871 
L 234.379968 100.702871 
L 234.473891 97.865788 
L 234.501581 97.865788 
L 234.60211 94.674071 
L 234.620103 94.674071 
L 234.729729 91.482353 
L 234.764423 91.482353 
L 234.870972 88.999906 
L 234.885331 88.999906 
L 234.989462 85.453553 
L 235.079759 85.453553 
L 235.143351 83.325741 
L 235.203779 83.325741 
L 235.307912 81.197929 
L 235.315151 81.197929 
L 235.417822 79.424753 
L 235.439587 79.424753 
L 235.540153 78.006212 
L 235.552581 78.006212 
L 235.639528 76.587671 
L 235.667341 76.587671 
L 235.767135 74.105224 
L 235.782527 74.105224 
L 235.892838 72.686682 
L 235.915067 72.686682 
L 236.012343 70.913506 
L 236.034039 70.913506 
L 236.101005 69.140329 
L 236.15205 69.140329 
L 236.261103 66.657882 
L 236.324383 66.657882 
L 236.396703 64.175435 
L 236.470387 64.175435 
L 236.576679 60.983718 
L 236.628805 60.983718 
L 236.718163 57.792 
L 236.77687 57.792 
L 236.884761 54.954918 
L 236.91843 54.954918 
L 237.019922 52.827106 
L 237.035982 52.827106 
L 237.142132 51.408565 
L 237.156205 51.408565 
L 237.257195 49.990024 
L 237.318952 49.990024 
L 237.385859 48.926118 
L 237.467398 48.926118 
L 237.553495 47.862212 
L 237.613532 47.862212 
L 237.613532 47.507576 
L 237.733036 47.507576 
L 237.811884 46.798306 
L 274.479453 46.798306 
L 274.589969 45.025129 
L 274.656265 45.025129 
L 274.735156 44.315859 
L 274.79512 44.315859 
L 274.897521 42.897318 
L 274.92613 42.897318 
L 274.991168 41.833412 
L 275.522429 41.833412 
L 275.631619 41.124141 
L 275.67794 41.124141 
L 275.786161 38.996329 
L 275.82902 38.996329 
L 275.907429 38.287059 
L 275.968821 38.287059 
L 276.074353 36.868518 
L 276.112221 36.868518 
L 276.184589 35.449976 
L 277.915749 35.449976 
L 278.01011 34.031435 
L 278.070373 34.031435 
L 278.169506 33.322165 
L 278.187031 33.322165 
L 278.293882 31.194353 
L 278.329738 31.194353 
L 278.398153 30.485082 
L 278.458985 30.485082 
L 278.569085 29.066541 
L 278.597406 29.066541 
L 278.675382 27.648 
L 360.8064 27.648 
L 360.8064 27.648 
" style="fill: none; stroke: #000080; stroke-width: 1.5; stroke-linecap: square"/>
   </g>
   <g id="line2d_36">
    <defs>
     <path id="mf2bcec1c0b" d="M 0 6 
C 1.591219 6 3.117479 5.367802 4.242641 4.242641 
C 5.367802 3.117479 6 1.591219 6 0 
C 6 -1.591219 5.367802 -3.117479 4.242641 -4.242641 
C 3.117479 -5.367802 1.591219 -6 0 -6 
C -1.591219 -6 -3.117479 -5.367802 -4.242641 -4.242641 
C -5.367802 -3.117479 -6 -1.591219 -6 0 
C -6 1.591219 -5.367802 3.117479 -4.242641 4.242641 
C -3.117479 5.367802 -1.591219 6 0 6 
z
" style="stroke: #000080; stroke-width: 1.5"/>
    </defs>
    <g>
     <use xlink:href="#mf2bcec1c0b" x="130.226319" y="259.934118" style="fill-opacity: 0; stroke: #000080; stroke-width: 1.5"/>
     <use xlink:href="#mf2bcec1c0b" x="220.398511" y="154.2528" style="fill-opacity: 0; stroke: #000080; stroke-width: 1.5"/>
     <use xlink:href="#mf2bcec1c0b" x="237.811884" y="47.152941" style="fill-opacity: 0; stroke: #000080; stroke-width: 1.5"/>
     <use xlink:href="#mf2bcec1c0b" x="278.675382" y="27.648" style="fill-opacity: 0; stroke: #000080; stroke-width: 1.5"/>
     <use xlink:href="#mf2bcec1c0b" x="360.8064" y="27.648" style="fill-opacity: 0; stroke: #000080; stroke-width: 1.5"/>
    </g>
   </g>
   <g id="line2d_37">
    <path style="fill: none; stroke: #000080; stroke-width: 1.5; stroke-linecap: square"/>
    <g/>
   </g>
   <g id="line2d_38">
    <defs>
     <path id="mde957d0d6d" d="M 0 1.5 
C 0.397805 1.5 0.77937 1.341951 1.06066 1.06066 
C 1.341951 0.77937 1.5 0.397805 1.5 0 
C 1.5 -0.397805 1.341951 -0.77937 1.06066 -1.06066 
C 0.77937 -1.341951 0.397805 -1.5 0 -1.5 
C -0.397805 -1.5 -0.77937 -1.341951 -1.06066 -1.06066 
C -1.341951 -0.77937 -1.5 -0.397805 -1.5 0 
C -1.5 0.397805 -1.341951 0.77937 -1.06066 1.06066 
C -0.77937 1.341951 -0.397805 1.5 0 1.5 
z
" style="stroke: #ff00ff"/>
    </defs>
    <g>
     <use xlink:href="#mde957d0d6d" x="240.865605" y="27.648" style="fill: #ff00ff; stroke: #ff00ff"/>
     <use xlink:href="#mde957d0d6d" x="240.865605" y="27.648" style="fill: #ff00ff; stroke: #ff00ff"/>
    </g>
   </g>
   <g id="line2d_39">
    <path d="M -1 293.269835 
L 1.245626 293.269835 
L 1.245626 292.9152 
L 8.873054 292.9152 
L 8.873054 292.560565 
L 36.45713 292.560565 
L 36.45713 292.205929 
L 40.363149 292.205929 
L 40.363149 291.851294 
L 45.478644 291.851294 
L 45.478644 291.496659 
L 46.353758 291.496659 
L 46.353758 291.142024 
L 47.189965 291.142024 
L 47.189965 290.787388 
L 47.990577 290.787388 
L 47.990577 290.432753 
L 50.206259 290.432753 
L 50.206259 290.078118 
L 60.229139 290.078118 
L 60.229139 289.723482 
L 61.797677 289.723482 
L 61.797677 289.368847 
L 62.893805 289.368847 
L 62.893805 289.014212 
L 67.856567 289.014212 
L 67.856567 288.659576 
L 71.556993 288.659576 
L 71.556993 288.304941 
L 74.456807 288.304941 
L 74.456807 287.950306 
L 78.422716 287.950306 
L 78.422716 287.595671 
L 85.25629 287.595671 
L 85.25629 287.241035 
L 89.323782 287.241035 
L 89.323782 286.8864 
L 92.593186 286.8864 
L 92.593186 286.177129 
L 92.955655 286.177129 
L 92.955655 285.822494 
L 93.451657 285.822494 
L 93.451657 285.467859 
L 95.314391 285.467859 
L 95.314391 285.113224 
L 95.503454 285.113224 
L 95.503454 284.758588 
L 95.690635 284.758588 
L 95.690635 284.403953 
L 95.814395 284.403953 
L 95.814395 284.049318 
L 95.937347 284.049318 
L 95.937347 283.694682 
L 96.301453 283.694682 
L 96.301453 283.340047 
L 97.466628 283.340047 
L 97.466628 282.985412 
L 99.550033 282.985412 
L 99.550033 282.630776 
L 102.449846 282.630776 
L 102.449846 282.276141 
L 103.544339 282.276141 
L 103.544339 281.921506 
L 103.747709 281.921506 
L 103.828446 281.212235 
L 103.948904 281.212235 
L 103.948904 280.8576 
L 104.771184 280.8576 
L 104.771184 280.502965 
L 104.923814 280.502965 
L 104.923814 280.148329 
L 105.187973 280.148329 
L 105.26277 279.439059 
L 105.337272 279.439059 
L 105.337272 279.084424 
L 106.455833 279.084424 
L 106.455833 278.729788 
L 109.12909 278.729788 
L 109.12909 278.375153 
L 109.340628 278.375153 
L 109.340628 278.020518 
L 112.102564 278.020518 
L 112.102564 277.665882 
L 113.284172 277.665882 
L 113.284172 277.311247 
L 113.502209 277.311247 
L 113.598309 276.601976 
L 113.977874 276.601976 
L 113.977874 276.247341 
L 114.188061 276.247341 
L 114.234452 275.538071 
L 114.441808 275.538071 
L 114.441808 275.183435 
L 114.916929 275.183435 
L 114.916929 274.8288 
L 115.959869 274.8288 
L 115.980994 274.119529 
L 116.336531 274.119529 
L 116.336531 273.764894 
L 116.522071 273.764894 
L 116.522071 273.410259 
L 116.847468 273.410259 
L 116.847468 273.055624 
L 117.285893 273.055624 
L 117.285893 272.700988 
L 118.301945 272.700988 
L 118.301945 272.346353 
L 118.506117 272.346353 
L 118.506117 271.991718 
L 119.547481 271.991718 
L 119.547481 271.637082 
L 119.721341 271.637082 
L 119.721341 271.282447 
L 120.451154 271.282447 
L 120.467794 270.573176 
L 121.297492 270.573176 
L 121.297492 270.218541 
L 122.454778 270.218541 
L 122.454778 269.863906 
L 123.246035 269.863906 
L 123.317644 269.154635 
L 123.530848 269.154635 
L 123.530848 268.8 
L 124.032891 268.8 
L 124.032891 268.445365 
L 124.521883 268.445365 
L 124.521883 268.090729 
L 125.991478 268.090729 
L 125.991478 267.736094 
L 127.583809 267.736094 
L 127.606583 267.026824 
L 128.089678 267.026824 
L 128.089678 266.672188 
L 128.255322 266.672188 
L 128.255322 266.317553 
L 128.39771 266.317553 
L 128.39771 265.962918 
L 128.614685 265.962918 
L 128.711514 265.253647 
L 129.072876 265.253647 
L 129.146421 264.544376 
L 129.31345 264.544376 
L 129.31345 264.189741 
L 129.886643 264.189741 
L 129.886643 263.835106 
L 130.354591 263.835106 
L 130.354591 263.480471 
L 130.656987 263.480471 
L 130.656987 263.125835 
L 132.260715 263.125835 
L 132.278479 262.416565 
L 132.384709 262.416565 
L 132.402356 261.707294 
L 133.145924 261.707294 
L 133.145924 261.352659 
L 133.44032 261.352659 
L 133.44032 260.998024 
L 133.975126 260.998024 
L 133.975126 260.643388 
L 134.152747 260.643388 
L 134.152747 260.288753 
L 134.328707 260.288753 
L 134.328707 259.934118 
L 134.644477 259.934118 
L 134.644477 259.579482 
L 134.761537 259.579482 
L 134.761537 259.224847 
L 135.031878 259.224847 
L 135.062528 258.515576 
L 135.449003 258.515576 
L 135.449003 258.160941 
L 135.59842 258.160941 
L 135.59842 257.806306 
L 136.97549 257.806306 
L 136.97549 257.451671 
L 137.092696 257.451671 
L 137.092696 257.097035 
L 137.38594 257.097035 
L 137.453486 256.387765 
L 137.500625 256.387765 
L 137.500625 256.033129 
L 138.419404 256.033129 
L 138.419404 255.678494 
L 139.178873 255.678494 
L 139.240288 254.614588 
L 139.459738 254.614588 
L 139.459738 254.259953 
L 139.760345 254.259953 
L 139.760345 253.905318 
L 140.66282 253.905318 
L 140.66282 253.550682 
L 140.972924 253.550682 
L 140.972924 253.196047 
L 141.089991 253.196047 
L 141.189758 252.132141 
L 141.409586 252.132141 
L 141.409586 251.777506 
L 141.873692 251.777506 
L 141.873692 251.422871 
L 143.628302 251.422871 
L 143.628302 251.068235 
L 143.845556 251.068235 
L 143.936538 250.004329 
L 143.998535 250.004329 
L 143.998535 249.649694 
L 144.468731 249.649694 
L 144.468731 249.295059 
L 145.428297 249.295059 
L 145.428297 248.940424 
L 145.847221 248.940424 
L 145.847221 248.585788 
L 147.04672 248.585788 
L 147.04672 248.231153 
L 147.691478 248.231153 
L 147.691478 247.876518 
L 149.248901 247.876518 
L 149.248901 247.521882 
L 150.272243 247.521882 
L 150.272243 247.167247 
L 151.031025 247.167247 
L 151.031025 246.812612 
L 151.551223 246.812612 
L 151.551223 246.457976 
L 183.925076 246.457976 
L 183.925076 246.103341 
L 184.20237 246.103341 
L 184.20237 245.748706 
L 184.394073 245.748706 
L 184.394073 245.394071 
L 184.579437 245.394071 
L 184.623434 244.6848 
L 184.697447 244.6848 
L 184.697447 244.330165 
L 185.110905 244.330165 
L 185.110905 243.975529 
L 185.309508 243.975529 
L 185.309508 243.620894 
L 185.511802 243.620894 
L 185.593888 242.556988 
L 185.653789 242.556988 
L 185.693789 241.493082 
L 185.766818 241.493082 
L 185.823594 240.783812 
L 185.906387 240.783812 
L 186.014852 239.719906 
L 186.049002 239.719906 
L 186.155131 238.301365 
L 186.184478 238.301365 
L 186.282305 237.592094 
L 186.410124 237.592094 
L 186.467982 236.173553 
L 186.556421 236.173553 
L 186.621243 235.109647 
L 186.679442 235.109647 
L 186.688304 234.400376 
L 186.809001 234.400376 
L 186.840764 233.691106 
L 186.921638 233.691106 
L 186.931845 232.981835 
L 187.066438 232.981835 
L 187.162676 231.917929 
L 187.262721 231.917929 
L 187.262721 231.563294 
L 187.511709 231.563294 
L 187.611325 230.499388 
L 187.785324 230.499388 
L 187.878887 229.080847 
L 187.945301 229.080847 
L 188.05227 228.371576 
L 188.228153 228.371576 
L 188.296964 227.662306 
L 188.356066 227.662306 
L 188.43204 226.953035 
L 188.507708 226.953035 
L 188.507708 226.5984 
L 188.648382 226.5984 
L 188.723629 225.889129 
L 189.136942 225.889129 
L 189.136942 225.534494 
L 189.320995 225.534494 
L 189.331263 224.825224 
L 189.485457 224.825224 
L 189.485457 224.470588 
L 189.756683 224.470588 
L 189.756683 224.115953 
L 190.689847 224.115953 
L 190.689847 223.761318 
L 191.312103 223.761318 
L 191.349791 223.052047 
L 191.715038 223.052047 
L 191.715038 222.697412 
L 192.054095 222.697412 
L 192.161845 221.988141 
L 192.247383 221.988141 
L 192.247383 221.633506 
L 192.467327 221.633506 
L 192.467327 221.278871 
L 192.766502 221.278871 
L 192.766502 220.924235 
L 193.168376 220.924235 
L 193.168376 220.5696 
L 198.53525 220.5696 
L 198.53525 220.214965 
L 198.780905 220.214965 
L 198.780905 219.860329 
L 198.95223 219.860329 
L 198.95223 219.505694 
L 199.10192 219.505694 
L 199.10192 219.151059 
L 199.595347 219.151059 
L 199.595347 218.796424 
L 199.820033 218.796424 
L 199.820033 218.441788 
L 199.943303 218.441788 
L 200.024149 217.377882 
L 200.107784 217.377882 
L 200.199931 215.959341 
L 200.281356 215.959341 
L 200.281356 215.604706 
L 200.448131 215.604706 
L 200.46068 214.895435 
L 200.560304 214.895435 
L 200.58501 214.186165 
L 200.713895 214.186165 
L 200.772654 213.122259 
L 200.877127 213.122259 
L 200.943917 212.058353 
L 200.996443 212.058353 
L 201.054786 210.994447 
L 201.147441 210.994447 
L 201.235553 209.930541 
L 201.31059 209.930541 
L 201.40875 208.157365 
L 201.553807 208.157365 
L 201.648932 206.738824 
L 201.685561 206.738824 
L 201.708833 206.029553 
L 201.857099 206.029553 
L 201.963166 204.965647 
L 201.998317 204.965647 
L 202.043197 204.256376 
L 202.115302 204.256376 
L 202.192747 203.192471 
L 202.270088 203.192471 
L 202.346471 202.128565 
L 202.383905 202.128565 
L 202.454719 201.419294 
L 202.679465 201.419294 
L 202.716873 200.355388 
L 202.820094 200.355388 
L 202.905715 199.646118 
L 203.071265 199.646118 
L 203.071265 199.291482 
L 203.251499 199.291482 
L 203.251499 198.936847 
L 203.383473 198.936847 
L 203.415261 198.227576 
L 203.574601 198.227576 
L 203.587634 197.163671 
L 203.809028 197.163671 
L 203.809028 196.809035 
L 204.202095 196.809035 
L 204.202095 196.4544 
L 210.306402 196.4544 
L 210.306402 196.099765 
L 210.445434 196.099765 
L 210.488541 195.390494 
L 210.569897 195.390494 
L 210.605267 194.681224 
L 210.70755 194.681224 
L 210.768271 193.971953 
L 210.91861 193.971953 
L 210.929874 193.262682 
L 211.051453 193.262682 
L 211.127194 191.844141 
L 211.207711 191.844141 
L 211.237633 191.134871 
L 211.319674 191.134871 
L 211.354592 190.070965 
L 211.472147 190.070965 
L 211.561179 189.007059 
L 211.632938 189.007059 
L 211.731617 186.879247 
L 211.767338 186.879247 
L 211.874222 185.106071 
L 211.887636 185.106071 
L 211.991405 183.687529 
L 212.011782 183.687529 
L 212.117927 180.850447 
L 212.150761 180.850447 
L 212.239176 179.431906 
L 212.262447 179.431906 
L 212.354618 176.949459 
L 212.386162 176.949459 
L 212.48485 175.530918 
L 212.551809 175.530918 
L 212.652111 172.3392 
L 212.667704 172.3392 
L 212.734262 170.211388 
L 212.814706 170.211388 
L 212.90275 166.665035 
L 212.94546 166.665035 
L 213.042963 163.827953 
L 213.063808 163.827953 
L 213.155518 162.764047 
L 213.18635 162.764047 
L 213.246424 159.926965 
L 213.321367 159.926965 
L 213.432274 157.799153 
L 213.457319 157.799153 
L 213.538279 156.025976 
L 213.584521 156.025976 
L 213.651793 153.898165 
L 213.699631 153.898165 
L 213.742908 153.188894 
L 213.819277 153.188894 
L 213.919427 151.770353 
L 213.93146 151.770353 
L 214.016167 151.061082 
L 214.063892 151.061082 
L 214.159781 148.578635 
L 214.217627 148.578635 
L 214.217627 148.224 
L 214.36842 148.224 
L 214.460636 146.450824 
L 214.508146 146.450824 
L 214.615302 145.386918 
L 214.688217 145.386918 
L 214.76229 143.968376 
L 214.842684 143.968376 
L 214.904403 143.259106 
L 214.983319 143.259106 
L 215.093357 142.549835 
L 215.126059 142.549835 
L 215.126059 142.1952 
L 215.26018 142.1952 
L 215.290226 141.485929 
L 215.630289 141.485929 
L 215.708644 140.776659 
L 215.746597 140.776659 
L 215.746597 140.422024 
L 216.075588 140.422024 
L 216.097043 139.712753 
L 216.441686 139.712753 
L 216.533468 138.648847 
L 222.073176 138.648847 
L 222.17554 137.939576 
L 222.232541 137.939576 
L 222.232541 137.584941 
L 222.483662 137.584941 
L 222.55064 136.875671 
L 222.707333 136.875671 
L 222.713716 136.1664 
L 222.886099 136.1664 
L 222.969556 135.457129 
L 223.091919 135.457129 
L 223.170011 134.747859 
L 223.36394 134.747859 
L 223.395649 133.329318 
L 223.528132 133.329318 
L 223.613427 132.620047 
L 223.649066 132.620047 
L 223.735464 131.556141 
L 223.760997 131.556141 
L 223.858693 129.428329 
L 223.903131 129.428329 
L 223.961382 127.655153 
L 224.0321 127.655153 
L 224.13553 123.754165 
L 224.169322 123.754165 
L 224.240468 121.626353 
L 224.342961 121.626353 
L 224.435637 118.789271 
L 224.475631 118.789271 
L 224.542932 117.725365 
L 224.587557 117.725365 
L 224.685308 115.952188 
L 224.736632 115.952188 
L 224.845273 112.760471 
L 224.879818 112.760471 
L 224.960756 109.568753 
L 225.023846 109.568753 
L 225.128868 105.667765 
L 225.142958 105.667765 
L 225.237239 102.476047 
L 225.269046 102.476047 
L 225.371705 99.284329 
L 225.392534 99.284329 
L 225.502215 96.092612 
L 225.509967 96.092612 
L 225.599383 92.900894 
L 225.658262 92.900894 
L 225.718441 90.418447 
L 225.782987 90.418447 
L 225.875777 86.872094 
L 225.915089 86.872094 
L 225.960912 85.453553 
L 226.055866 85.453553 
L 226.153665 82.971106 
L 226.173466 82.971106 
L 226.284219 80.843294 
L 226.319276 80.843294 
L 226.411847 78.006212 
L 226.433223 78.006212 
L 226.540272 74.814494 
L 226.549323 74.814494 
L 226.655597 71.268141 
L 226.667649 71.268141 
L 226.76759 69.140329 
L 226.784886 69.140329 
L 226.859557 66.657882 
L 226.901687 66.657882 
L 227.012632 62.756894 
L 227.049411 62.756894 
L 227.124819 62.047624 
L 227.163784 62.047624 
L 227.214718 60.629082 
L 227.283667 60.629082 
L 227.350154 59.565176 
L 227.439267 59.565176 
L 227.439267 59.210541 
L 234.771606 59.210541 
L 234.771606 58.855906 
L 234.913712 58.855906 
L 234.913712 58.501271 
L 235.054639 58.501271 
L 235.054639 58.146635 
L 235.170784 58.146635 
L 235.170784 57.792 
L 235.373661 57.792 
L 235.373661 57.437365 
L 235.486757 57.437365 
L 235.575142 56.373459 
L 235.702385 56.373459 
L 235.801922 55.309553 
L 235.852485 55.309553 
L 235.898776 54.600282 
L 235.966439 54.600282 
L 236.073612 53.181741 
L 236.176208 53.181741 
L 236.253478 52.472471 
L 236.322554 52.472471 
L 236.411729 51.408565 
L 236.444507 51.408565 
L 236.507 50.344659 
L 236.590522 50.344659 
L 236.66359 49.280753 
L 236.709549 49.280753 
L 236.810801 47.507576 
L 236.859684 47.507576 
L 236.948363 46.089035 
L 237.001778 46.089035 
L 237.070768 44.670494 
L 237.153579 44.670494 
L 237.247586 42.897318 
L 237.344224 42.897318 
L 237.405331 41.478776 
L 237.480964 41.478776 
L 237.494819 40.769506 
L 237.600226 40.769506 
L 237.703574 39.7056 
L 237.73643 39.7056 
L 237.832608 37.932424 
L 237.926972 37.932424 
L 237.989084 36.513882 
L 238.140021 36.513882 
L 238.218839 35.095341 
L 238.339912 35.095341 
L 238.439537 33.6768 
L 238.455876 33.6768 
L 238.565666 32.612894 
L 238.609952 32.612894 
L 238.672802 31.903624 
L 238.756194 31.903624 
L 238.777818 31.194353 
L 238.906735 31.194353 
L 238.98061 30.485082 
L 240.027266 30.485082 
L 240.027266 30.130447 
L 240.213975 30.130447 
L 240.213975 29.775812 
L 240.337113 29.775812 
L 240.337113 29.421176 
L 240.488142 29.421176 
L 240.575667 28.711906 
L 240.659602 28.711906 
L 240.760538 28.002635 
L 240.865605 28.002635 
L 240.865605 27.648 
L 360.8064 27.648 
L 360.8064 27.648 
" style="fill: none; stroke: #ff00ff; stroke-width: 1.5; stroke-linecap: square"/>
   </g>
   <g id="line2d_40">
    <defs>
     <path id="m8571d080e4" d="M -0 8.485281 
L 5.091169 0 
L 0 -8.485281 
L -5.091169 -0 
z
" style="stroke: #ff00ff; stroke-width: 1.5; stroke-linejoin: miter"/>
    </defs>
    <g>
     <use xlink:href="#m8571d080e4" x="186.049002" y="239.719906" style="fill-opacity: 0; stroke: #ff00ff; stroke-width: 1.5; stroke-linejoin: miter"/>
     <use xlink:href="#m8571d080e4" x="224.921201" y="110.987294" style="fill-opacity: 0; stroke: #ff00ff; stroke-width: 1.5; stroke-linejoin: miter"/>
     <use xlink:href="#m8571d080e4" x="240.865605" y="28.002635" style="fill-opacity: 0; stroke: #ff00ff; stroke-width: 1.5; stroke-linejoin: miter"/>
     <use xlink:href="#m8571d080e4" x="240.865605" y="27.648" style="fill-opacity: 0; stroke: #ff00ff; stroke-width: 1.5; stroke-linejoin: miter"/>
     <use xlink:href="#m8571d080e4" x="360.8064" y="27.648" style="fill-opacity: 0; stroke: #ff00ff; stroke-width: 1.5; stroke-linejoin: miter"/>
    </g>
   </g>
   <g id="line2d_41">
    <path style="fill: none; stroke: #ff00ff; stroke-width: 1.5; stroke-linecap: square"/>
    <g/>
   </g>
   <g id="line2d_42">
    <defs>
     <path id="m5989c6630a" d="M 0 1.5 
C 0.397805 1.5 0.77937 1.341951 1.06066 1.06066 
C 1.341951 0.77937 1.5 0.397805 1.5 0 
C 1.5 -0.397805 1.341951 -0.77937 1.06066 -1.06066 
C 0.77937 -1.341951 0.397805 -1.5 0 -1.5 
C -0.397805 -1.5 -0.77937 -1.341951 -1.06066 -1.06066 
C -1.341951 -0.77937 -1.5 -0.397805 -1.5 0 
C -1.5 0.397805 -1.341951 0.77937 -1.06066 1.06066 
C -0.77937 1.341951 -0.397805 1.5 0 1.5 
z
" style="stroke: #ff7500"/>
    </defs>
    <g>
     <use xlink:href="#m5989c6630a" x="254.614796" y="27.648" style="fill: #ff7500; stroke: #ff7500"/>
     <use xlink:href="#m5989c6630a" x="254.614796" y="27.648" style="fill: #ff7500; stroke: #ff7500"/>
    </g>
   </g>
   <g id="line2d_43">
    <path d="M -1 292.9152 
L 1.245626 292.9152 
L 1.245626 292.560565 
L 27.323974 292.560565 
L 27.323974 292.205929 
L 34.951403 292.205929 
L 34.951403 291.851294 
L 37.851216 291.851294 
L 37.851216 291.496659 
L 43.595919 291.496659 
L 43.595919 291.142024 
L 45.478644 291.142024 
L 45.478644 290.787388 
L 47.189965 290.787388 
L 47.189965 290.432753 
L 51.550513 290.432753 
L 51.550513 290.078118 
L 57.123733 290.078118 
L 57.123733 289.723482 
L 58.517819 289.723482 
L 58.517819 289.368847 
L 62.535479 289.368847 
L 62.535479 289.014212 
L 64.262522 289.014212 
L 64.262522 288.659576 
L 64.91126 288.659576 
L 64.91126 288.304941 
L 66.145247 288.304941 
L 66.145247 287.950306 
L 76.800025 287.950306 
L 76.800025 287.595671 
L 80.621116 287.595671 
L 80.621116 287.241035 
L 80.75893 287.241035 
L 80.75893 286.8864 
L 82.713442 286.8864 
L 82.713442 286.531765 
L 82.959349 286.531765 
L 82.959349 286.177129 
L 86.101895 286.177129 
L 86.101895 285.822494 
L 87.009868 285.822494 
L 87.1081 285.113224 
L 88.52317 285.113224 
L 88.52317 284.758588 
L 90.505165 284.758588 
L 90.586777 284.049318 
L 92.148798 284.049318 
L 92.148798 283.694682 
L 95.123409 283.694682 
L 95.123409 283.340047 
L 95.250946 283.340047 
L 95.250946 282.985412 
L 95.875972 282.985412 
L 95.937347 282.276141 
L 97.410051 282.276141 
L 97.410051 281.921506 
L 98.775785 281.921506 
L 98.775785 281.566871 
L 99.650899 281.566871 
L 99.650899 281.212235 
L 101.05576 281.212235 
L 101.05576 280.8576 
L 101.966909 280.8576 
L 101.966909 280.502965 
L 102.579433 280.502965 
L 102.579433 280.148329 
L 102.878374 280.148329 
L 102.878374 279.793694 
L 104.462158 279.793694 
L 104.501065 279.084424 
L 105.037479 279.084424 
L 105.037479 278.375153 
L 107.278327 278.375153 
L 107.278327 278.020518 
L 108.22646 278.020518 
L 108.22646 277.665882 
L 108.636452 277.665882 
L 108.636452 277.311247 
L 109.668311 277.311247 
L 109.668311 276.956612 
L 109.844671 276.956612 
L 109.844671 276.601976 
L 110.505802 276.601976 
L 110.505802 276.247341 
L 110.618446 276.247341 
L 110.618446 275.892706 
L 110.897141 275.892706 
L 110.897141 275.538071 
L 111.841288 275.538071 
L 111.841288 275.183435 
L 112.715206 275.183435 
L 112.715206 274.8288 
L 113.186449 274.8288 
L 113.186449 274.474165 
L 113.622258 274.474165 
L 113.622258 274.119529 
L 114.071581 274.119529 
L 114.071581 273.764894 
L 114.510421 273.764894 
L 114.510421 273.410259 
L 114.872193 273.410259 
L 114.872193 273.055624 
L 116.107246 273.055624 
L 116.107246 272.700988 
L 116.827295 272.700988 
L 116.827295 272.346353 
L 116.988079 272.346353 
L 116.988079 271.991718 
L 118.019907 271.991718 
L 118.019907 271.637082 
L 118.357848 271.637082 
L 118.357848 271.282447 
L 118.579816 271.282447 
L 118.579816 270.927812 
L 120.199771 270.927812 
L 120.199771 270.573176 
L 120.64987 270.573176 
L 120.64987 270.218541 
L 121.815489 270.218541 
L 121.815489 269.863906 
L 122.015696 269.863906 
L 122.092135 268.8 
L 122.13785 268.8 
L 122.13785 268.445365 
L 123.188551 268.445365 
L 123.188551 268.090729 
L 123.331933 268.090729 
L 123.331933 267.736094 
L 124.183659 267.736094 
L 124.183659 267.026824 
L 124.814573 267.026824 
L 124.814573 266.672188 
L 125.245241 266.672188 
L 125.245241 266.317553 
L 125.437787 266.317553 
L 125.47606 265.608282 
L 125.829577 265.608282 
L 125.829577 265.253647 
L 125.979073 265.253647 
L 125.979073 264.899012 
L 126.577479 264.899012 
L 126.637484 264.189741 
L 128.211292 264.189741 
L 128.23332 263.480471 
L 128.364947 263.480471 
L 128.364947 263.125835 
L 128.700779 263.125835 
L 128.700779 262.7712 
L 129.775421 262.7712 
L 129.775421 262.416565 
L 129.957079 262.416565 
L 129.957079 262.061929 
L 130.705309 262.061929 
L 130.743877 261.352659 
L 131.049607 261.352659 
L 131.078016 260.643388 
L 131.563744 260.643388 
L 131.563744 260.288753 
L 132.082151 260.288753 
L 132.082151 259.934118 
L 132.251827 259.934118 
L 132.251827 259.579482 
L 132.4376 259.579482 
L 132.490343 258.870212 
L 133.077981 258.870212 
L 133.077981 258.515576 
L 133.523594 258.515576 
L 133.523594 258.160941 
L 133.72196 258.160941 
L 133.72196 257.806306 
L 133.861215 257.806306 
L 133.861215 257.451671 
L 134.152747 257.451671 
L 134.152747 257.097035 
L 134.753756 257.097035 
L 134.753756 256.7424 
L 135.426488 256.7424 
L 135.426488 256.387765 
L 135.908386 256.387765 
L 135.908386 256.033129 
L 136.148398 256.033129 
L 136.148398 255.678494 
L 136.399653 255.678494 
L 136.399653 255.323859 
L 136.766857 255.323859 
L 136.766857 254.969224 
L 136.89926 254.969224 
L 136.89926 254.614588 
L 137.174993 254.614588 
L 137.174993 253.905318 
L 137.358854 253.905318 
L 137.358854 253.550682 
L 137.473703 253.550682 
L 137.473703 253.196047 
L 137.781001 253.196047 
L 137.860347 252.486776 
L 137.998402 252.486776 
L 137.998402 252.132141 
L 138.380935 252.132141 
L 138.380935 251.777506 
L 138.749551 251.777506 
L 138.749551 251.422871 
L 139.030652 251.422871 
L 139.030652 251.068235 
L 139.270921 251.068235 
L 139.270921 250.7136 
L 140.103135 250.7136 
L 140.103135 250.358965 
L 140.324381 250.358965 
L 140.324381 250.004329 
L 140.753561 250.004329 
L 140.753561 249.649694 
L 140.939341 249.649694 
L 140.939341 249.295059 
L 141.178699 249.295059 
L 141.26699 248.585788 
L 141.583617 248.585788 
L 141.59985 247.876518 
L 142.090985 247.876518 
L 142.090985 247.521882 
L 142.321419 247.521882 
L 142.321419 247.167247 
L 142.60042 247.167247 
L 142.60042 246.812612 
L 142.773988 246.812612 
L 142.865233 246.103341 
L 143.220887 246.103341 
L 143.240725 245.394071 
L 143.579681 245.394071 
L 143.579681 245.039435 
L 144.342932 245.039435 
L 144.426892 244.330165 
L 145.080914 244.330165 
L 145.080914 243.975529 
L 145.739021 243.975529 
L 145.739021 243.620894 
L 146.231667 243.620894 
L 146.231667 243.266259 
L 146.512849 243.266259 
L 146.512849 242.911624 
L 146.674607 242.911624 
L 146.682865 242.202353 
L 146.879975 242.202353 
L 146.879975 241.847718 
L 147.320055 241.847718 
L 147.320055 241.493082 
L 147.722752 241.493082 
L 147.804601 240.783812 
L 147.878349 240.783812 
L 147.878349 240.429176 
L 149.013323 240.429176 
L 149.013323 240.074541 
L 149.57029 240.074541 
L 149.67269 239.365271 
L 150.038855 239.365271 
L 150.038855 239.010635 
L 150.255181 239.010635 
L 150.255181 238.656 
L 150.479171 238.656 
L 150.479171 238.301365 
L 152.264128 238.301365 
L 152.322334 237.592094 
L 155.261434 237.592094 
L 155.261434 237.237459 
L 155.6319 237.237459 
L 155.690811 236.528188 
L 158.144795 236.528188 
L 158.144795 236.173553 
L 181.858453 236.173553 
L 181.858453 235.818918 
L 182.163928 235.818918 
L 182.163928 235.464282 
L 182.366921 235.464282 
L 182.366921 235.109647 
L 182.507601 235.109647 
L 182.507601 234.755012 
L 182.659437 234.755012 
L 182.659437 234.400376 
L 182.844505 234.400376 
L 182.884313 233.691106 
L 183.022387 233.691106 
L 183.088066 232.981835 
L 183.187342 232.981835 
L 183.187342 232.6272 
L 183.467466 232.6272 
L 183.508894 231.917929 
L 183.585094 231.917929 
L 183.585094 231.563294 
L 183.711795 231.563294 
L 183.819884 230.854024 
L 183.951282 230.854024 
L 183.961527 230.144753 
L 184.110581 230.144753 
L 184.149491 229.080847 
L 184.381836 229.080847 
L 184.438505 228.371576 
L 184.540855 228.371576 
L 184.611345 226.953035 
L 184.691427 226.953035 
L 184.790781 225.889129 
L 185.012694 225.889129 
L 185.066961 224.115953 
L 185.161153 224.115953 
L 185.161153 223.761318 
L 185.298382 223.761318 
L 185.383514 223.052047 
L 185.520708 223.052047 
L 185.554197 221.988141 
L 185.635578 221.988141 
L 185.738883 221.278871 
L 185.82411 221.278871 
L 185.892014 219.860329 
L 185.965813 219.860329 
L 186.07648 218.796424 
L 186.085122 218.796424 
L 186.085122 218.441788 
L 186.28834 218.441788 
L 186.28834 218.087153 
L 186.483414 218.087153 
L 186.535095 217.377882 
L 186.69913 217.377882 
L 186.69913 217.023247 
L 186.841252 217.023247 
L 186.881245 216.313976 
L 186.984247 216.313976 
L 186.984247 215.959341 
L 187.181385 215.959341 
L 187.200555 215.250071 
L 187.308497 215.250071 
L 187.365561 214.186165 
L 187.54513 214.186165 
L 187.566281 213.476894 
L 188.164551 213.476894 
L 188.164551 213.122259 
L 189.249824 213.122259 
L 189.249824 212.767624 
L 197.340435 212.767624 
L 197.340435 212.412988 
L 197.549659 212.412988 
L 197.597126 211.703718 
L 197.756309 211.703718 
L 197.774611 210.994447 
L 197.913886 210.994447 
L 198.004728 210.285176 
L 198.034642 210.285176 
L 198.109891 209.221271 
L 198.163723 209.221271 
L 198.256031 208.157365 
L 198.288471 208.157365 
L 198.342591 207.448094 
L 198.441671 207.448094 
L 198.444306 206.738824 
L 198.562239 206.738824 
L 198.65939 205.674918 
L 198.681258 205.674918 
L 198.791771 204.256376 
L 198.894952 204.256376 
L 198.933499 203.192471 
L 199.061677 203.192471 
L 199.159841 202.128565 
L 199.189241 202.128565 
L 199.290522 200.355388 
L 199.350126 200.355388 
L 199.421302 199.291482 
L 199.507655 199.291482 
L 199.608974 196.809035 
L 199.692005 196.809035 
L 199.742977 196.099765 
L 199.816359 196.099765 
L 199.922611 193.971953 
L 199.970048 193.971953 
L 200.04981 192.908047 
L 200.087996 192.908047 
L 200.139352 191.844141 
L 200.232783 191.844141 
L 200.268447 190.780235 
L 200.378365 190.780235 
L 200.450262 188.652424 
L 200.537922 188.652424 
L 200.544286 187.943153 
L 200.727668 187.943153 
L 200.824731 186.524612 
L 200.99069 186.524612 
L 201.033445 185.106071 
L 201.112491 185.106071 
L 201.112491 184.751435 
L 201.24895 184.751435 
L 201.344044 184.042165 
L 201.685117 184.042165 
L 201.685117 183.687529 
L 202.062771 183.687529 
L 202.124405 182.623624 
L 202.235873 182.623624 
L 202.235873 182.268988 
L 202.825522 182.268988 
L 202.825522 181.914353 
L 203.514528 181.914353 
L 203.514528 181.559718 
L 203.659659 181.559718 
L 203.659659 181.205082 
L 209.515708 181.205082 
L 209.515708 180.850447 
L 209.679834 180.850447 
L 209.7649 180.141176 
L 209.814777 180.141176 
L 209.814777 179.786541 
L 209.926017 179.786541 
L 209.978752 178.722635 
L 210.048124 178.722635 
L 210.15107 177.658729 
L 210.1981 177.658729 
L 210.1981 177.304094 
L 210.367451 177.304094 
L 210.455454 175.530918 
L 210.529886 175.530918 
L 210.632165 173.403106 
L 210.64374 173.403106 
L 210.748829 171.629929 
L 210.761701 171.629929 
L 210.861506 170.566024 
L 210.880016 170.566024 
L 210.977436 167.728941 
L 211.074625 167.728941 
L 211.179214 165.246494 
L 211.188317 165.246494 
L 211.25511 163.118682 
L 211.312895 163.118682 
L 211.414189 160.990871 
L 211.425161 160.990871 
L 211.516255 158.863059 
L 211.566426 158.863059 
L 211.665062 156.380612 
L 211.683581 156.380612 
L 211.733698 155.316706 
L 211.796901 155.316706 
L 211.899495 152.479624 
L 211.919329 152.479624 
L 212.013063 151.061082 
L 212.074826 151.061082 
L 212.158769 148.224 
L 212.19483 148.224 
L 212.27723 145.741553 
L 212.330326 145.741553 
L 212.417402 144.323012 
L 212.524281 144.323012 
L 212.604633 142.549835 
L 212.640098 142.549835 
L 212.749417 141.485929 
L 212.848429 141.485929 
L 212.95667 139.003482 
L 212.964952 139.003482 
L 213.067562 138.294212 
L 213.107483 138.294212 
L 213.183342 137.230306 
L 213.229262 137.230306 
L 213.32292 135.102494 
L 213.345008 135.102494 
L 213.436074 133.683953 
L 213.458742 133.683953 
L 213.566604 131.556141 
L 213.636525 131.556141 
L 213.728649 130.492235 
L 213.76626 130.492235 
L 213.875278 129.782965 
L 213.90171 129.782965 
L 213.90171 129.428329 
L 214.11585 129.428329 
L 214.143547 128.009788 
L 214.263708 128.009788 
L 214.299584 127.300518 
L 214.516445 127.300518 
L 214.516445 126.945882 
L 214.640938 126.945882 
L 214.732385 126.236612 
L 214.801536 126.236612 
L 214.885612 125.527341 
L 215.352963 125.527341 
L 215.352963 125.172706 
L 222.359629 125.172706 
L 222.359629 124.818071 
L 222.567604 124.818071 
L 222.567604 124.463435 
L 222.735459 124.463435 
L 222.841279 123.399529 
L 222.95646 123.399529 
L 223.022136 122.335624 
L 223.070371 122.335624 
L 223.070371 121.980988 
L 223.199433 121.980988 
L 223.254335 121.271718 
L 223.325511 121.271718 
L 223.398376 119.143906 
L 223.497898 119.143906 
L 223.608103 118.08 
L 223.625867 118.08 
L 223.662999 117.370729 
L 223.773409 117.370729 
L 223.875949 115.597553 
L 223.925175 115.597553 
L 223.976103 114.533647 
L 224.057775 114.533647 
L 224.151392 113.469741 
L 224.191793 113.469741 
L 224.290417 112.0512 
L 224.305949 112.0512 
L 224.311079 110.987294 
L 224.443245 110.987294 
L 224.510399 109.568753 
L 224.573307 109.568753 
L 224.672831 107.795576 
L 224.699865 107.795576 
L 224.809367 105.313129 
L 224.832707 105.313129 
L 224.935963 102.830682 
L 224.958954 102.830682 
L 225.060305 101.057506 
L 225.093627 101.057506 
L 225.197054 98.575059 
L 225.249854 98.575059 
L 225.35873 97.511153 
L 225.37032 97.511153 
L 225.461027 96.092612 
L 225.482947 96.092612 
L 225.572802 94.319435 
L 225.695061 94.319435 
L 225.765422 92.900894 
L 225.839391 92.900894 
L 225.91099 91.127718 
L 225.959203 91.127718 
L 226.045359 88.999906 
L 226.088441 88.999906 
L 226.173647 86.872094 
L 226.211078 86.872094 
L 226.29795 84.744282 
L 226.336271 84.744282 
L 226.425425 81.9072 
L 226.475664 81.9072 
L 226.572906 79.779388 
L 226.601061 79.779388 
L 226.706751 77.296941 
L 226.745127 77.296941 
L 226.749751 76.587671 
L 226.867351 76.587671 
L 226.876943 75.523765 
L 226.99098 75.523765 
L 226.99098 75.169129 
L 227.227045 75.169129 
L 227.227045 74.814494 
L 236.772646 74.814494 
L 236.772646 74.459859 
L 236.953977 74.459859 
L 237.034221 73.750588 
L 237.288867 73.750588 
L 237.319152 73.041318 
L 237.466935 73.041318 
L 237.466935 72.686682 
L 237.645529 72.686682 
L 237.752738 71.622776 
L 237.809934 71.622776 
L 237.917667 69.494965 
L 237.969789 69.494965 
L 238.050317 67.721788 
L 238.10556 67.721788 
L 238.212382 65.948612 
L 238.247315 65.948612 
L 238.318442 64.530071 
L 238.378267 64.530071 
L 238.463129 62.047624 
L 238.526001 62.047624 
L 238.62496 59.565176 
L 238.63778 59.565176 
L 238.735102 58.855906 
L 238.750938 58.855906 
L 238.843525 56.728094 
L 238.862283 56.728094 
L 238.905662 56.018824 
L 238.990015 56.018824 
L 239.030268 54.600282 
L 239.111456 54.600282 
L 239.208598 52.827106 
L 239.223468 52.827106 
L 239.328581 51.053929 
L 239.343896 51.053929 
L 239.432931 49.280753 
L 239.455281 49.280753 
L 239.531219 47.152941 
L 239.567253 47.152941 
L 239.600854 45.025129 
L 239.68936 45.025129 
L 239.757417 42.542682 
L 239.822746 42.542682 
L 239.924282 39.350965 
L 239.940658 39.350965 
L 240.009259 37.932424 
L 240.065391 37.932424 
L 240.131672 36.159247 
L 240.188671 36.159247 
L 240.281332 34.740706 
L 240.312032 34.740706 
L 240.312032 34.386071 
L 240.424267 34.386071 
L 240.503471 33.6768 
L 240.611857 33.6768 
L 240.611857 33.322165 
L 252.870096 33.322165 
L 252.870096 32.967529 
L 252.991032 32.967529 
L 253.097976 31.903624 
L 253.14067 31.903624 
L 253.22703 31.194353 
L 253.364519 31.194353 
L 253.364519 30.839718 
L 253.600048 30.839718 
L 253.600048 30.485082 
L 253.792056 30.485082 
L 253.792056 30.130447 
L 253.970839 30.130447 
L 253.970839 29.775812 
L 254.113744 29.775812 
L 254.113744 29.421176 
L 254.227659 29.421176 
L 254.318589 28.711906 
L 254.414299 28.711906 
L 254.414299 28.357271 
L 254.533616 28.357271 
L 254.614796 27.648 
L 360.8064 27.648 
L 360.8064 27.648 
" style="fill: none; stroke: #ff7500; stroke-width: 1.5; stroke-linecap: square"/>
   </g>
   <g id="line2d_44">
    <defs>
     <path id="m4068e839f6" d="M 0 -6 
L -1.347084 -1.854102 
L -5.706339 -1.854102 
L -2.179628 0.708204 
L -3.526712 4.854102 
L -0 2.291796 
L 3.526712 4.854102 
L 2.179628 0.708204 
L 5.706339 -1.854102 
L 1.347084 -1.854102 
z
" style="stroke: #ff7500; stroke-width: 1.5; stroke-linejoin: bevel"/>
    </defs>
    <g>
     <use xlink:href="#m4068e839f6" x="146.682865" y="242.202353" style="fill-opacity: 0; stroke: #ff7500; stroke-width: 1.5; stroke-linejoin: bevel"/>
     <use xlink:href="#m4068e839f6" x="211.882607" y="153.898165" style="fill-opacity: 0; stroke: #ff7500; stroke-width: 1.5; stroke-linejoin: bevel"/>
     <use xlink:href="#m4068e839f6" x="240.424267" y="34.386071" style="fill-opacity: 0; stroke: #ff7500; stroke-width: 1.5; stroke-linejoin: bevel"/>
     <use xlink:href="#m4068e839f6" x="254.614796" y="27.648" style="fill-opacity: 0; stroke: #ff7500; stroke-width: 1.5; stroke-linejoin: bevel"/>
     <use xlink:href="#m4068e839f6" x="254.614796" y="27.648" style="fill-opacity: 0; stroke: #ff7500; stroke-width: 1.5; stroke-linejoin: bevel"/>
     <use xlink:href="#m4068e839f6" x="360.8064" y="27.648" style="fill-opacity: 0; stroke: #ff7500; stroke-width: 1.5; stroke-linejoin: bevel"/>
    </g>
   </g>
   <g id="line2d_45">
    <path style="fill: none; stroke: #ff7500; stroke-width: 1.5; stroke-linecap: square"/>
    <g/>
   </g>
   <g id="line2d_46">
    <path d="M 360.8064 27.648 
L 380.514816 293.51808 
" style="fill: none; stroke: #000080; stroke-width: 1.5; stroke-linecap: square"/>
    <g>
     <use xlink:href="#mf2bcec1c0b" x="360.8064" y="27.648" style="fill-opacity: 0; stroke: #000080; stroke-width: 1.5"/>
     <use xlink:href="#mf2bcec1c0b" x="380.514816" y="293.51808" style="fill-opacity: 0; stroke: #000080; stroke-width: 1.5"/>
    </g>
   </g>
   <g id="line2d_47">
    <path d="M 360.8064 27.648 
L 380.514816 206.70336 
" style="fill: none; stroke: #ff7500; stroke-width: 1.5; stroke-linecap: square"/>
    <g>
     <use xlink:href="#m4068e839f6" x="360.8064" y="27.648" style="fill-opacity: 0; stroke: #ff7500; stroke-width: 1.5; stroke-linejoin: bevel"/>
     <use xlink:href="#m4068e839f6" x="380.514816" y="206.70336" style="fill-opacity: 0; stroke: #ff7500; stroke-width: 1.5; stroke-linejoin: bevel"/>
    </g>
   </g>
   <g id="line2d_48">
    <path d="M 360.8064 27.648 
L 380.514816 33.07392 
" style="fill: none; stroke: #ff00ff; stroke-width: 1.5; stroke-linecap: square"/>
    <g>
     <use xlink:href="#m8571d080e4" x="360.8064" y="27.648" style="fill-opacity: 0; stroke: #ff00ff; stroke-width: 1.5; stroke-linejoin: miter"/>
     <use xlink:href="#m8571d080e4" x="380.514816" y="33.07392" style="fill-opacity: 0; stroke: #ff00ff; stroke-width: 1.5; stroke-linejoin: miter"/>
    </g>
   </g>
   <g id="line2d_49">
    <path d="M 360.8064 298.944 
L 360.8064 27.648 
" style="fill: none; stroke: #000000; stroke-width: 1.5; stroke-linecap: square"/>
   </g>
   <g id="patch_3">
    <path d="M 57.6 298.944 
L 360.8064 298.944 
" style="fill: none; stroke: #000000; stroke-width: 0.8; stroke-linejoin: miter; stroke-linecap: square"/>
   </g>
   <g id="patch_4">
    <path d="M 57.6 27.648 
L 360.8064 27.648 
" style="fill: none; stroke: #000000; stroke-width: 0.8; stroke-linejoin: miter; stroke-linecap: square"/>
   </g>
   <g id="text_13">
    <!-- cma1 -->
    <g transform="translate(386.578944 297.381205)scale(0.14 -0.14)">
     <use xlink:href="#DejaVuSans-63"/>
     <use xlink:href="#DejaVuSans-6d" x="54.980469"/>
     <use xlink:href="#DejaVuSans-61" x="152.392578"/>
     <use xlink:href="#DejaVuSans-31" x="213.671875"/>
    </g>
   </g>
   <g id="text_14">
    <!-- CMA-ES-20 -->
    <g transform="translate(386.578944 210.566485)scale(0.14 -0.14)">
     <defs>
      <path id="DejaVuSans-43" d="M 4122 4306 
L 4122 3641 
Q 3803 3938 3442 4084 
Q 3081 4231 2675 4231 
Q 1875 4231 1450 3742 
Q 1025 3253 1025 2328 
Q 1025 1406 1450 917 
Q 1875 428 2675 428 
Q 3081 428 3442 575 
Q 3803 722 4122 1019 
L 4122 359 
Q 3791 134 3420 21 
Q 3050 -91 2638 -91 
Q 1578 -91 968 557 
Q 359 1206 359 2328 
Q 359 3453 968 4101 
Q 1578 4750 2638 4750 
Q 3056 4750 3426 4639 
Q 3797 4528 4122 4306 
z
" transform="scale(0.015625)"/>
      <path id="DejaVuSans-4d" d="M 628 4666 
L 1569 4666 
L 2759 1491 
L 3956 4666 
L 4897 4666 
L 4897 0 
L 4281 0 
L 4281 4097 
L 3078 897 
L 2444 897 
L 1241 4097 
L 1241 0 
L 628 0 
L 628 4666 
z
" transform="scale(0.015625)"/>
      <path id="DejaVuSans-41" d="M 2188 4044 
L 1331 1722 
L 3047 1722 
L 2188 4044 
z
M 1831 4666 
L 2547 4666 
L 4325 0 
L 3669 0 
L 3244 1197 
L 1141 1197 
L 716 0 
L 50 0 
L 1831 4666 
z
" transform="scale(0.015625)"/>
      <path id="DejaVuSans-45" d="M 628 4666 
L 3578 4666 
L 3578 4134 
L 1259 4134 
L 1259 2753 
L 3481 2753 
L 3481 2222 
L 1259 2222 
L 1259 531 
L 3634 531 
L 3634 0 
L 628 0 
L 628 4666 
z
" transform="scale(0.015625)"/>
      <path id="DejaVuSans-53" d="M 3425 4513 
L 3425 3897 
Q 3066 4069 2747 4153 
Q 2428 4238 2131 4238 
Q 1616 4238 1336 4038 
Q 1056 3838 1056 3469 
Q 1056 3159 1242 3001 
Q 1428 2844 1947 2747 
L 2328 2669 
Q 3034 2534 3370 2195 
Q 3706 1856 3706 1288 
Q 3706 609 3251 259 
Q 2797 -91 1919 -91 
Q 1588 -91 1214 -16 
Q 841 59 441 206 
L 441 856 
Q 825 641 1194 531 
Q 1563 422 1919 422 
Q 2459 422 2753 634 
Q 3047 847 3047 1241 
Q 3047 1584 2836 1778 
Q 2625 1972 2144 2069 
L 1759 2144 
Q 1053 2284 737 2584 
Q 422 2884 422 3419 
Q 422 4038 858 4394 
Q 1294 4750 2059 4750 
Q 2388 4750 2728 4690 
Q 3069 4631 3425 4513 
z
" transform="scale(0.015625)"/>
     </defs>
     <use xlink:href="#DejaVuSans-43"/>
     <use xlink:href="#DejaVuSans-4d" x="69.824219"/>
     <use xlink:href="#DejaVuSans-41" x="156.103516"/>
     <use xlink:href="#DejaVuSans-2d" x="222.261719"/>
     <use xlink:href="#DejaVuSans-45" x="258.345703"/>
     <use xlink:href="#DejaVuSans-53" x="321.529297"/>
     <use xlink:href="#DejaVuSans-2d" x="385.005859"/>
     <use xlink:href="#DejaVuSans-32" x="421.089844"/>
     <use xlink:href="#DejaVuSans-30" x="484.712891"/>
    </g>
   </g>
   <g id="text_15">
    <!-- best 2009 -->
    <g transform="translate(386.578944 123.751765)scale(0.14 -0.14)">
     <defs>
      <path id="DejaVuSans-62" d="M 3116 1747 
Q 3116 2381 2855 2742 
Q 2594 3103 2138 3103 
Q 1681 3103 1420 2742 
Q 1159 2381 1159 1747 
Q 1159 1113 1420 752 
Q 1681 391 2138 391 
Q 2594 391 2855 752 
Q 3116 1113 3116 1747 
z
M 1159 2969 
Q 1341 3281 1617 3432 
Q 1894 3584 2278 3584 
Q 2916 3584 3314 3078 
Q 3713 2572 3713 1747 
Q 3713 922 3314 415 
Q 2916 -91 2278 -91 
Q 1894 -91 1617 61 
Q 1341 213 1159 525 
L 1159 0 
L 581 0 
L 581 4863 
L 1159 4863 
L 1159 2969 
z
" transform="scale(0.015625)"/>
      <path id="DejaVuSans-39" d="M 703 97 
L 703 672 
Q 941 559 1184 500 
Q 1428 441 1663 441 
Q 2288 441 2617 861 
Q 2947 1281 2994 2138 
Q 2813 1869 2534 1725 
Q 2256 1581 1919 1581 
Q 1219 1581 811 2004 
Q 403 2428 403 3163 
Q 403 3881 828 4315 
Q 1253 4750 1959 4750 
Q 2769 4750 3195 4129 
Q 3622 3509 3622 2328 
Q 3622 1225 3098 567 
Q 2575 -91 1691 -91 
Q 1453 -91 1209 -44 
Q 966 3 703 97 
z
M 1959 2075 
Q 2384 2075 2632 2365 
Q 2881 2656 2881 3163 
Q 2881 3666 2632 3958 
Q 2384 4250 1959 4250 
Q 1534 4250 1286 3958 
Q 1038 3666 1038 3163 
Q 1038 2656 1286 2365 
Q 1534 2075 1959 2075 
z
" transform="scale(0.015625)"/>
     </defs>
     <use xlink:href="#DejaVuSans-62"/>
     <use xlink:href="#DejaVuSans-65" x="63.476562"/>
     <use xlink:href="#DejaVuSans-73" x="125"/>
     <use xlink:href="#DejaVuSans-74" x="177.099609"/>
     <use xlink:href="#DejaVuSans-20" x="216.308594"/>
     <use xlink:href="#DejaVuSans-32" x="248.095703"/>
     <use xlink:href="#DejaVuSans-30" x="311.71875"/>
     <use xlink:href="#DejaVuSans-30" x="375.341797"/>
     <use xlink:href="#DejaVuSans-39" x="438.964844"/>
    </g>
   </g>
   <g id="text_16">
    <!-- ddcma1 -->
    <g transform="translate(386.578944 36.937045)scale(0.14 -0.14)">
     <use xlink:href="#DejaVuSans-64"/>
     <use xlink:href="#DejaVuSans-64" x="63.476562"/>
     <use xlink:href="#DejaVuSans-63" x="126.953125"/>
     <use xlink:href="#DejaVuSans-6d" x="181.933594"/>
     <use xlink:href="#DejaVuSans-61" x="279.345703"/>
     <use xlink:href="#DejaVuSans-31" x="340.625"/>
    </g>
   </g>
   <g id="text_17">
    <!-- bbob f18, 40-D -->
    <g transform="translate(60.632064 38.111366)scale(0.102 -0.102)">
     <defs>
      <path id="DejaVuSans-44" d="M 1259 4147 
L 1259 519 
L 2022 519 
Q 2988 519 3436 956 
Q 3884 1394 3884 2338 
Q 3884 3275 3436 3711 
Q 2988 4147 2022 4147 
L 1259 4147 
z
M 628 4666 
L 1925 4666 
Q 3281 4666 3915 4102 
Q 4550 3538 4550 2338 
Q 4550 1131 3912 565 
Q 3275 0 1925 0 
L 628 0 
L 628 4666 
z
" transform="scale(0.015625)"/>
     </defs>
     <use xlink:href="#DejaVuSans-62"/>
     <use xlink:href="#DejaVuSans-62" x="63.476562"/>
     <use xlink:href="#DejaVuSans-6f" x="126.953125"/>
     <use xlink:href="#DejaVuSans-62" x="188.134766"/>
     <use xlink:href="#DejaVuSans-20" x="251.611328"/>
     <use xlink:href="#DejaVuSans-66" x="283.398438"/>
     <use xlink:href="#DejaVuSans-31" x="318.603516"/>
     <use xlink:href="#DejaVuSans-38" x="382.226562"/>
     <use xlink:href="#DejaVuSans-2c" x="445.849609"/>
     <use xlink:href="#DejaVuSans-20" x="477.636719"/>
     <use xlink:href="#DejaVuSans-34" x="509.423828"/>
     <use xlink:href="#DejaVuSans-30" x="573.046875"/>
     <use xlink:href="#DejaVuSans-2d" x="636.669922"/>
     <use xlink:href="#DejaVuSans-44" x="672.753906"/>
    </g>
    <!-- 51 targets: 100..1e-08 -->
    <g transform="translate(60.632064 49.533135)scale(0.102 -0.102)">
     <defs>
      <path id="DejaVuSans-35" d="M 691 4666 
L 3169 4666 
L 3169 4134 
L 1269 4134 
L 1269 2991 
Q 1406 3038 1543 3061 
Q 1681 3084 1819 3084 
Q 2600 3084 3056 2656 
Q 3513 2228 3513 1497 
Q 3513 744 3044 326 
Q 2575 -91 1722 -91 
Q 1428 -91 1123 -41 
Q 819 9 494 109 
L 494 744 
Q 775 591 1075 516 
Q 1375 441 1709 441 
Q 2250 441 2565 725 
Q 2881 1009 2881 1497 
Q 2881 1984 2565 2268 
Q 2250 2553 1709 2553 
Q 1456 2553 1204 2497 
Q 953 2441 691 2322 
L 691 4666 
z
" transform="scale(0.015625)"/>
      <path id="DejaVuSans-3a" d="M 750 794 
L 1409 794 
L 1409 0 
L 750 0 
L 750 794 
z
M 750 3309 
L 1409 3309 
L 1409 2516 
L 750 2516 
L 750 3309 
z
" transform="scale(0.015625)"/>
     </defs>
     <use xlink:href="#DejaVuSans-35"/>
     <use xlink:href="#DejaVuSans-31" x="63.623047"/>
     <use xlink:href="#DejaVuSans-20" x="127.246094"/>
     <use xlink:href="#DejaVuSans-74" x="159.033203"/>
     <use xlink:href="#DejaVuSans-61" x="198.242188"/>
     <use xlink:href="#DejaVuSans-72" x="259.521484"/>
     <use xlink:href="#DejaVuSans-67" x="298.884766"/>
     <use xlink:href="#DejaVuSans-65" x="362.361328"/>
     <use xlink:href="#DejaVuSans-74" x="423.884766"/>
     <use xlink:href="#DejaVuSans-73" x="463.09375"/>
     <use xlink:href="#DejaVuSans-3a" x="515.193359"/>
     <use xlink:href="#DejaVuSans-20" x="548.884766"/>
     <use xlink:href="#DejaVuSans-31" x="580.671875"/>
     <use xlink:href="#DejaVuSans-30" x="644.294922"/>
     <use xlink:href="#DejaVuSans-30" x="707.917969"/>
     <use xlink:href="#DejaVuSans-2e" x="771.541016"/>
     <use xlink:href="#DejaVuSans-2e" x="803.328125"/>
     <use xlink:href="#DejaVuSans-31" x="835.115234"/>
     <use xlink:href="#DejaVuSans-65" x="898.738281"/>
     <use xlink:href="#DejaVuSans-2d" x="960.261719"/>
     <use xlink:href="#DejaVuSans-30" x="996.345703"/>
     <use xlink:href="#DejaVuSans-38" x="1059.96875"/>
    </g>
    <!-- 15 instances -->
    <g transform="translate(60.632064 60.954904)scale(0.102 -0.102)">
     <use xlink:href="#DejaVuSans-31"/>
     <use xlink:href="#DejaVuSans-35" x="63.623047"/>
     <use xlink:href="#DejaVuSans-20" x="127.246094"/>
     <use xlink:href="#DejaVuSans-69" x="159.033203"/>
     <use xlink:href="#DejaVuSans-6e" x="186.816406"/>
     <use xlink:href="#DejaVuSans-73" x="250.195312"/>
     <use xlink:href="#DejaVuSans-74" x="302.294922"/>
     <use xlink:href="#DejaVuSans-61" x="341.503906"/>
     <use xlink:href="#DejaVuSans-6e" x="402.783203"/>
     <use xlink:href="#DejaVuSans-63" x="466.162109"/>
     <use xlink:href="#DejaVuSans-65" x="521.142578"/>
     <use xlink:href="#DejaVuSans-73" x="582.666016"/>
    </g>
   </g>
   <g id="text_18">
    <!-- v2.6 -->
    <g style="fill: #808080" transform="translate(198.292262 294.151352)scale(0.1 -0.1)">
     <use xlink:href="#DejaVuSans-76"/>
     <use xlink:href="#DejaVuSans-32" x="59.179688"/>
     <use xlink:href="#DejaVuSans-2e" x="122.802734"/>
     <use xlink:href="#DejaVuSans-36" x="154.589844"/>
    </g>
   </g>
   <g id="text_19">
    <!-- 18 Schaffer F7, condition 1000 -->
    <g transform="translate(55.170387 21.648)scale(0.2 -0.2)">
     <defs>
      <path id="DejaVuSans-68" d="M 3513 2113 
L 3513 0 
L 2938 0 
L 2938 2094 
Q 2938 2591 2744 2837 
Q 2550 3084 2163 3084 
Q 1697 3084 1428 2787 
Q 1159 2491 1159 1978 
L 1159 0 
L 581 0 
L 581 4863 
L 1159 4863 
L 1159 2956 
Q 1366 3272 1645 3428 
Q 1925 3584 2291 3584 
Q 2894 3584 3203 3211 
Q 3513 2838 3513 2113 
z
" transform="scale(0.015625)"/>
      <path id="DejaVuSans-37" d="M 525 4666 
L 3525 4666 
L 3525 4397 
L 1831 0 
L 1172 0 
L 2766 4134 
L 525 4134 
L 525 4666 
z
" transform="scale(0.015625)"/>
     </defs>
     <use xlink:href="#DejaVuSans-31"/>
     <use xlink:href="#DejaVuSans-38" x="63.623047"/>
     <use xlink:href="#DejaVuSans-20" x="127.246094"/>
     <use xlink:href="#DejaVuSans-53" x="159.033203"/>
     <use xlink:href="#DejaVuSans-63" x="222.509766"/>
     <use xlink:href="#DejaVuSans-68" x="277.490234"/>
     <use xlink:href="#DejaVuSans-61" x="340.869141"/>
     <use xlink:href="#DejaVuSans-66" x="402.148438"/>
     <use xlink:href="#DejaVuSans-66" x="437.353516"/>
     <use xlink:href="#DejaVuSans-65" x="472.558594"/>
     <use xlink:href="#DejaVuSans-72" x="534.082031"/>
     <use xlink:href="#DejaVuSans-20" x="575.195312"/>
     <use xlink:href="#DejaVuSans-46" x="606.982422"/>
     <use xlink:href="#DejaVuSans-37" x="664.501953"/>
     <use xlink:href="#DejaVuSans-2c" x="728.125"/>
     <use xlink:href="#DejaVuSans-20" x="759.912109"/>
     <use xlink:href="#DejaVuSans-63" x="791.699219"/>
     <use xlink:href="#DejaVuSans-6f" x="846.679688"/>
     <use xlink:href="#DejaVuSans-6e" x="907.861328"/>
     <use xlink:href="#DejaVuSans-64" x="971.240234"/>
     <use xlink:href="#DejaVuSans-69" x="1034.716797"/>
     <use xlink:href="#DejaVuSans-74" x="1062.5"/>
     <use xlink:href="#DejaVuSans-69" x="1101.708984"/>
     <use xlink:href="#DejaVuSans-6f" x="1129.492188"/>
     <use xlink:href="#DejaVuSans-6e" x="1190.673828"/>
     <use xlink:href="#DejaVuSans-20" x="1254.052734"/>
     <use xlink:href="#DejaVuSans-31" x="1285.839844"/>
     <use xlink:href="#DejaVuSans-30" x="1349.462891"/>
     <use xlink:href="#DejaVuSans-30" x="1413.085938"/>
     <use xlink:href="#DejaVuSans-30" x="1476.708984"/>
    </g>
   </g>
  </g>
 </g>
 <defs>
  <clipPath id="p3aab32a0d1">
   <rect x="57.6" y="27.648" width="303.2064" height="271.296"/>
  </clipPath>
 </defs>
</svg>
