<?xml version="1.0" encoding="utf-8" standalone="no"?>
<!DOCTYPE svg PUBLIC "-//W3C//DTD SVG 1.1//EN"
  "http://www.w3.org/Graphics/SVG/1.1/DTD/svg11.dtd">
<svg xmlns:xlink="http://www.w3.org/1999/xlink" width="460.8pt" height="345.6pt" viewBox="0 0 460.8 345.6" xmlns="http://www.w3.org/2000/svg" version="1.1">
 <metadata>
  <rdf:RDF xmlns:dc="http://purl.org/dc/elements/1.1/" xmlns:cc="http://creativecommons.org/ns#" xmlns:rdf="http://www.w3.org/1999/02/22-rdf-syntax-ns#">
   <cc:Work>
    <dc:type rdf:resource="http://purl.org/dc/dcmitype/StillImage"/>
    <dc:date>2022-03-28T13:44:58.019200</dc:date>
    <dc:format>image/svg+xml</dc:format>
    <dc:creator>
     <cc:Agent>
      <dc:title>Matplotlib v3.5.1, https://matplotlib.org/</dc:title>
     </cc:Agent>
    </dc:creator>
   </cc:Work>
  </rdf:RDF>
 </metadata>
 <defs>
  <style type="text/css">*{stroke-linejoin: round; stroke-linecap: butt}</style>
 </defs>
 <g id="figure_1">
  <g id="patch_1">
   <path d="M 0 345.6 
L 460.8 345.6 
L 460.8 0 
L 0 0 
z
" style="fill: #ffffff"/>
  </g>
  <g id="axes_1">
   <g id="patch_2">
    <path d="M 57.6 298.944 
L 360.8064 298.944 
L 360.8064 27.648 
L 57.6 27.648 
z
" style="fill: #ffffff"/>
   </g>
   <g id="line2d_1">
    <path d="M 27.323974 298.944 
L 27.323974 282.985412 
L 83.678349 282.985412 
L 83.678349 277.665882 
L 88.613828 277.665882 
L 88.613828 272.346353 
L 94.205591 272.346353 
L 94.205591 267.026824 
L 100.147275 267.026824 
L 100.147275 261.707294 
L 104.961779 261.707294 
L 104.961779 256.387765 
L 107.5116 256.387765 
L 107.5116 251.068235 
L 115.227139 251.068235 
L 115.227139 245.748706 
L 118.450653 245.748706 
L 118.450653 240.429176 
L 123.260379 240.429176 
L 123.260379 235.109647 
L 124.906754 235.109647 
L 124.906754 229.790118 
L 126.323346 229.790118 
L 126.323346 224.470588 
L 127.911368 224.470588 
L 127.911368 219.151059 
L 128.266313 219.151059 
L 128.266313 213.831529 
L 129.041269 213.831529 
L 129.041269 208.512 
L 130.027253 208.512 
L 130.027253 203.192471 
L 130.344755 203.192471 
L 130.344755 197.872941 
L 131.63737 197.872941 
L 131.63737 192.553412 
L 132.144842 192.553412 
L 132.144842 187.233882 
L 132.708526 187.233882 
L 132.708526 181.914353 
L 133.120474 181.914353 
L 133.120474 171.275294 
L 134.176839 171.275294 
L 134.176839 165.955765 
L 134.620977 165.955765 
L 134.620977 160.636235 
L 134.87014 160.636235 
L 134.87014 155.316706 
L 135.893741 155.316706 
L 135.893741 139.358118 
L 136.068734 139.358118 
L 136.068734 123.399529 
L 136.126705 123.399529 
L 136.126705 118.08 
L 136.242113 118.08 
L 136.242113 112.760471 
L 136.696795 112.760471 
L 136.696795 107.440941 
L 136.864507 107.440941 
L 136.864507 102.121412 
L 136.97549 102.121412 
L 136.97549 96.801882 
L 137.195511 96.801882 
L 137.195511 91.482353 
L 137.250116 91.482353 
L 137.250116 86.162824 
L 137.787626 86.162824 
L 137.787626 80.843294 
L 137.840541 80.843294 
L 137.840541 70.204235 
L 138.050729 70.204235 
L 138.050729 64.884706 
L 138.36167 64.884706 
L 138.36167 59.565176 
L 138.515235 59.565176 
L 138.515235 54.245647 
L 138.718057 54.245647 
L 138.718057 27.648 
L 360.8064 27.648 
" style="fill: none; stroke: #f5deb3; stroke-width: 4; stroke-linecap: square"/>
   </g>
   <g id="line2d_2">
    <defs>
     <path id="mbb53e8bd4a" d="M -0 7.778175 
L 7.778175 0 
L 0 -7.778175 
L -7.778175 -0 
z
" style="stroke: #f5deb3; stroke-width: 1.5; stroke-linejoin: miter"/>
    </defs>
    <g>
     <use xlink:href="#mbb53e8bd4a" x="130.027253" y="203.192471" style="fill: #f5deb3; stroke: #f5deb3; stroke-width: 1.5; stroke-linejoin: miter"/>
     <use xlink:href="#mbb53e8bd4a" x="138.718057" y="54.245647" style="fill: #f5deb3; stroke: #f5deb3; stroke-width: 1.5; stroke-linejoin: miter"/>
     <use xlink:href="#mbb53e8bd4a" x="138.718057" y="27.648" style="fill: #f5deb3; stroke: #f5deb3; stroke-width: 1.5; stroke-linejoin: miter"/>
     <use xlink:href="#mbb53e8bd4a" x="138.718057" y="27.648" style="fill: #f5deb3; stroke: #f5deb3; stroke-width: 1.5; stroke-linejoin: miter"/>
     <use xlink:href="#mbb53e8bd4a" x="360.8064" y="27.648" style="fill: #f5deb3; stroke: #f5deb3; stroke-width: 1.5; stroke-linejoin: miter"/>
    </g>
   </g>
   <g id="line2d_3">
    <path style="fill: none; stroke: #f5deb3; stroke-width: 4; stroke-linecap: square"/>
    <g/>
   </g>
   <g id="line2d_4">
    <path d="M 360.8064 27.648 
L 380.514816 33.07392 
" style="fill: none; stroke: #f5deb3; stroke-width: 4; stroke-linecap: square"/>
    <g>
     <use xlink:href="#mbb53e8bd4a" x="360.8064" y="27.648" style="fill: #f5deb3; stroke: #f5deb3; stroke-width: 1.5; stroke-linejoin: miter"/>
     <use xlink:href="#mbb53e8bd4a" x="380.514816" y="33.07392" style="fill: #f5deb3; stroke: #f5deb3; stroke-width: 1.5; stroke-linejoin: miter"/>
    </g>
   </g>
   <g id="matplotlib.axis_1">
    <g id="xtick_1">
     <g id="line2d_5">
      <path d="M 57.6 298.944 
L 57.6 27.648 
" clip-path="url(#p9004bb7d50)" style="fill: none; stroke: #b0b0b0; stroke-width: 0.8; stroke-linecap: square"/>
     </g>
     <g id="line2d_6">
      <defs>
       <path id="m6b5699121c" d="M 0 0 
L 0 3.5 
" style="stroke: #000000; stroke-width: 0.8"/>
      </defs>
      <g>
       <use xlink:href="#m6b5699121c" x="57.6" y="298.944" style="stroke: #000000; stroke-width: 0.8"/>
      </g>
     </g>
     <g id="text_1">
      <!-- 0 -->
      <g transform="translate(52.191875 318.861344)scale(0.17 -0.17)">
       <defs>
        <path id="DejaVuSans-30" d="M 2034 4250 
Q 1547 4250 1301 3770 
Q 1056 3291 1056 2328 
Q 1056 1369 1301 889 
Q 1547 409 2034 409 
Q 2525 409 2770 889 
Q 3016 1369 3016 2328 
Q 3016 3291 2770 3770 
Q 2525 4250 2034 4250 
z
M 2034 4750 
Q 2819 4750 3233 4129 
Q 3647 3509 3647 2328 
Q 3647 1150 3233 529 
Q 2819 -91 2034 -91 
Q 1250 -91 836 529 
Q 422 1150 422 2328 
Q 422 3509 836 4129 
Q 1250 4750 2034 4750 
z
" transform="scale(0.015625)"/>
       </defs>
       <use xlink:href="#DejaVuSans-30"/>
      </g>
     </g>
    </g>
    <g id="xtick_2">
     <g id="line2d_7">
      <path d="M 144.2304 298.944 
L 144.2304 27.648 
" clip-path="url(#p9004bb7d50)" style="fill: none; stroke: #b0b0b0; stroke-width: 0.8; stroke-linecap: square"/>
     </g>
     <g id="line2d_8">
      <g>
       <use xlink:href="#m6b5699121c" x="144.2304" y="298.944" style="stroke: #000000; stroke-width: 0.8"/>
      </g>
     </g>
     <g id="text_2">
      <!-- 2 -->
      <g transform="translate(138.822275 318.861344)scale(0.17 -0.17)">
       <defs>
        <path id="DejaVuSans-32" d="M 1228 531 
L 3431 531 
L 3431 0 
L 469 0 
L 469 531 
Q 828 903 1448 1529 
Q 2069 2156 2228 2338 
Q 2531 2678 2651 2914 
Q 2772 3150 2772 3378 
Q 2772 3750 2511 3984 
Q 2250 4219 1831 4219 
Q 1534 4219 1204 4116 
Q 875 4013 500 3803 
L 500 4441 
Q 881 4594 1212 4672 
Q 1544 4750 1819 4750 
Q 2544 4750 2975 4387 
Q 3406 4025 3406 3419 
Q 3406 3131 3298 2873 
Q 3191 2616 2906 2266 
Q 2828 2175 2409 1742 
Q 1991 1309 1228 531 
z
" transform="scale(0.015625)"/>
       </defs>
       <use xlink:href="#DejaVuSans-32"/>
      </g>
     </g>
    </g>
    <g id="xtick_3">
     <g id="line2d_9">
      <path d="M 230.8608 298.944 
L 230.8608 27.648 
" clip-path="url(#p9004bb7d50)" style="fill: none; stroke: #b0b0b0; stroke-width: 0.8; stroke-linecap: square"/>
     </g>
     <g id="line2d_10">
      <g>
       <use xlink:href="#m6b5699121c" x="230.8608" y="298.944" style="stroke: #000000; stroke-width: 0.8"/>
      </g>
     </g>
     <g id="text_3">
      <!-- 4 -->
      <g transform="translate(225.452675 318.861344)scale(0.17 -0.17)">
       <defs>
        <path id="DejaVuSans-34" d="M 2419 4116 
L 825 1625 
L 2419 1625 
L 2419 4116 
z
M 2253 4666 
L 3047 4666 
L 3047 1625 
L 3713 1625 
L 3713 1100 
L 3047 1100 
L 3047 0 
L 2419 0 
L 2419 1100 
L 313 1100 
L 313 1709 
L 2253 4666 
z
" transform="scale(0.015625)"/>
       </defs>
       <use xlink:href="#DejaVuSans-34"/>
      </g>
     </g>
    </g>
    <g id="xtick_4">
     <g id="line2d_11">
      <path d="M 317.4912 298.944 
L 317.4912 27.648 
" clip-path="url(#p9004bb7d50)" style="fill: none; stroke: #b0b0b0; stroke-width: 0.8; stroke-linecap: square"/>
     </g>
     <g id="line2d_12">
      <g>
       <use xlink:href="#m6b5699121c" x="317.4912" y="298.944" style="stroke: #000000; stroke-width: 0.8"/>
      </g>
     </g>
     <g id="text_4">
      <!-- 6 -->
      <g transform="translate(312.083075 318.861344)scale(0.17 -0.17)">
       <defs>
        <path id="DejaVuSans-36" d="M 2113 2584 
Q 1688 2584 1439 2293 
Q 1191 2003 1191 1497 
Q 1191 994 1439 701 
Q 1688 409 2113 409 
Q 2538 409 2786 701 
Q 3034 994 3034 1497 
Q 3034 2003 2786 2293 
Q 2538 2584 2113 2584 
z
M 3366 4563 
L 3366 3988 
Q 3128 4100 2886 4159 
Q 2644 4219 2406 4219 
Q 1781 4219 1451 3797 
Q 1122 3375 1075 2522 
Q 1259 2794 1537 2939 
Q 1816 3084 2150 3084 
Q 2853 3084 3261 2657 
Q 3669 2231 3669 1497 
Q 3669 778 3244 343 
Q 2819 -91 2113 -91 
Q 1303 -91 875 529 
Q 447 1150 447 2328 
Q 447 3434 972 4092 
Q 1497 4750 2381 4750 
Q 2619 4750 2861 4703 
Q 3103 4656 3366 4563 
z
" transform="scale(0.015625)"/>
       </defs>
       <use xlink:href="#DejaVuSans-36"/>
      </g>
     </g>
    </g>
    <g id="xtick_5">
     <g id="line2d_13">
      <path d="M 100.9152 298.944 
L 100.9152 27.648 
" clip-path="url(#p9004bb7d50)" style="fill: none; stroke: #b0b0b0; stroke-width: 0.8; stroke-linecap: square"/>
     </g>
     <g id="line2d_14">
      <defs>
       <path id="md0c3a03fc9" d="M 0 0 
L 0 2 
" style="stroke: #000000; stroke-width: 0.6"/>
      </defs>
      <g>
       <use xlink:href="#md0c3a03fc9" x="100.9152" y="298.944" style="stroke: #000000; stroke-width: 0.6"/>
      </g>
     </g>
    </g>
    <g id="xtick_6">
     <g id="line2d_15">
      <path d="M 187.5456 298.944 
L 187.5456 27.648 
" clip-path="url(#p9004bb7d50)" style="fill: none; stroke: #b0b0b0; stroke-width: 0.8; stroke-linecap: square"/>
     </g>
     <g id="line2d_16">
      <g>
       <use xlink:href="#md0c3a03fc9" x="187.5456" y="298.944" style="stroke: #000000; stroke-width: 0.6"/>
      </g>
     </g>
    </g>
    <g id="xtick_7">
     <g id="line2d_17">
      <path d="M 274.176 298.944 
L 274.176 27.648 
" clip-path="url(#p9004bb7d50)" style="fill: none; stroke: #b0b0b0; stroke-width: 0.8; stroke-linecap: square"/>
     </g>
     <g id="line2d_18">
      <g>
       <use xlink:href="#md0c3a03fc9" x="274.176" y="298.944" style="stroke: #000000; stroke-width: 0.6"/>
      </g>
     </g>
    </g>
    <g id="xtick_8">
     <g id="line2d_19">
      <path d="M 360.8064 298.944 
L 360.8064 27.648 
" clip-path="url(#p9004bb7d50)" style="fill: none; stroke: #b0b0b0; stroke-width: 0.8; stroke-linecap: square"/>
     </g>
     <g id="line2d_20">
      <g>
       <use xlink:href="#md0c3a03fc9" x="360.8064" y="298.944" style="stroke: #000000; stroke-width: 0.6"/>
      </g>
     </g>
    </g>
    <g id="text_5">
     <!-- log10(# f-evals / dimension) -->
     <g transform="translate(88.823278 339.314156)scale(0.17 -0.17)">
      <defs>
       <path id="DejaVuSans-6c" d="M 603 4863 
L 1178 4863 
L 1178 0 
L 603 0 
L 603 4863 
z
" transform="scale(0.015625)"/>
       <path id="DejaVuSans-6f" d="M 1959 3097 
Q 1497 3097 1228 2736 
Q 959 2375 959 1747 
Q 959 1119 1226 758 
Q 1494 397 1959 397 
Q 2419 397 2687 759 
Q 2956 1122 2956 1747 
Q 2956 2369 2687 2733 
Q 2419 3097 1959 3097 
z
M 1959 3584 
Q 2709 3584 3137 3096 
Q 3566 2609 3566 1747 
Q 3566 888 3137 398 
Q 2709 -91 1959 -91 
Q 1206 -91 779 398 
Q 353 888 353 1747 
Q 353 2609 779 3096 
Q 1206 3584 1959 3584 
z
" transform="scale(0.015625)"/>
       <path id="DejaVuSans-67" d="M 2906 1791 
Q 2906 2416 2648 2759 
Q 2391 3103 1925 3103 
Q 1463 3103 1205 2759 
Q 947 2416 947 1791 
Q 947 1169 1205 825 
Q 1463 481 1925 481 
Q 2391 481 2648 825 
Q 2906 1169 2906 1791 
z
M 3481 434 
Q 3481 -459 3084 -895 
Q 2688 -1331 1869 -1331 
Q 1566 -1331 1297 -1286 
Q 1028 -1241 775 -1147 
L 775 -588 
Q 1028 -725 1275 -790 
Q 1522 -856 1778 -856 
Q 2344 -856 2625 -561 
Q 2906 -266 2906 331 
L 2906 616 
Q 2728 306 2450 153 
Q 2172 0 1784 0 
Q 1141 0 747 490 
Q 353 981 353 1791 
Q 353 2603 747 3093 
Q 1141 3584 1784 3584 
Q 2172 3584 2450 3431 
Q 2728 3278 2906 2969 
L 2906 3500 
L 3481 3500 
L 3481 434 
z
" transform="scale(0.015625)"/>
       <path id="DejaVuSans-31" d="M 794 531 
L 1825 531 
L 1825 4091 
L 703 3866 
L 703 4441 
L 1819 4666 
L 2450 4666 
L 2450 531 
L 3481 531 
L 3481 0 
L 794 0 
L 794 531 
z
" transform="scale(0.015625)"/>
       <path id="DejaVuSans-28" d="M 1984 4856 
Q 1566 4138 1362 3434 
Q 1159 2731 1159 2009 
Q 1159 1288 1364 580 
Q 1569 -128 1984 -844 
L 1484 -844 
Q 1016 -109 783 600 
Q 550 1309 550 2009 
Q 550 2706 781 3412 
Q 1013 4119 1484 4856 
L 1984 4856 
z
" transform="scale(0.015625)"/>
       <path id="DejaVuSans-23" d="M 3272 2816 
L 2363 2816 
L 2100 1772 
L 3016 1772 
L 3272 2816 
z
M 2803 4594 
L 2478 3297 
L 3391 3297 
L 3719 4594 
L 4219 4594 
L 3897 3297 
L 4872 3297 
L 4872 2816 
L 3775 2816 
L 3519 1772 
L 4513 1772 
L 4513 1294 
L 3397 1294 
L 3072 0 
L 2572 0 
L 2894 1294 
L 1978 1294 
L 1656 0 
L 1153 0 
L 1478 1294 
L 494 1294 
L 494 1772 
L 1594 1772 
L 1856 2816 
L 850 2816 
L 850 3297 
L 1978 3297 
L 2297 4594 
L 2803 4594 
z
" transform="scale(0.015625)"/>
       <path id="DejaVuSans-20" transform="scale(0.015625)"/>
       <path id="DejaVuSans-66" d="M 2375 4863 
L 2375 4384 
L 1825 4384 
Q 1516 4384 1395 4259 
Q 1275 4134 1275 3809 
L 1275 3500 
L 2222 3500 
L 2222 3053 
L 1275 3053 
L 1275 0 
L 697 0 
L 697 3053 
L 147 3053 
L 147 3500 
L 697 3500 
L 697 3744 
Q 697 4328 969 4595 
Q 1241 4863 1831 4863 
L 2375 4863 
z
" transform="scale(0.015625)"/>
       <path id="DejaVuSans-2d" d="M 313 2009 
L 1997 2009 
L 1997 1497 
L 313 1497 
L 313 2009 
z
" transform="scale(0.015625)"/>
       <path id="DejaVuSans-65" d="M 3597 1894 
L 3597 1613 
L 953 1613 
Q 991 1019 1311 708 
Q 1631 397 2203 397 
Q 2534 397 2845 478 
Q 3156 559 3463 722 
L 3463 178 
Q 3153 47 2828 -22 
Q 2503 -91 2169 -91 
Q 1331 -91 842 396 
Q 353 884 353 1716 
Q 353 2575 817 3079 
Q 1281 3584 2069 3584 
Q 2775 3584 3186 3129 
Q 3597 2675 3597 1894 
z
M 3022 2063 
Q 3016 2534 2758 2815 
Q 2500 3097 2075 3097 
Q 1594 3097 1305 2825 
Q 1016 2553 972 2059 
L 3022 2063 
z
" transform="scale(0.015625)"/>
       <path id="DejaVuSans-76" d="M 191 3500 
L 800 3500 
L 1894 563 
L 2988 3500 
L 3597 3500 
L 2284 0 
L 1503 0 
L 191 3500 
z
" transform="scale(0.015625)"/>
       <path id="DejaVuSans-61" d="M 2194 1759 
Q 1497 1759 1228 1600 
Q 959 1441 959 1056 
Q 959 750 1161 570 
Q 1363 391 1709 391 
Q 2188 391 2477 730 
Q 2766 1069 2766 1631 
L 2766 1759 
L 2194 1759 
z
M 3341 1997 
L 3341 0 
L 2766 0 
L 2766 531 
Q 2569 213 2275 61 
Q 1981 -91 1556 -91 
Q 1019 -91 701 211 
Q 384 513 384 1019 
Q 384 1609 779 1909 
Q 1175 2209 1959 2209 
L 2766 2209 
L 2766 2266 
Q 2766 2663 2505 2880 
Q 2244 3097 1772 3097 
Q 1472 3097 1187 3025 
Q 903 2953 641 2809 
L 641 3341 
Q 956 3463 1253 3523 
Q 1550 3584 1831 3584 
Q 2591 3584 2966 3190 
Q 3341 2797 3341 1997 
z
" transform="scale(0.015625)"/>
       <path id="DejaVuSans-73" d="M 2834 3397 
L 2834 2853 
Q 2591 2978 2328 3040 
Q 2066 3103 1784 3103 
Q 1356 3103 1142 2972 
Q 928 2841 928 2578 
Q 928 2378 1081 2264 
Q 1234 2150 1697 2047 
L 1894 2003 
Q 2506 1872 2764 1633 
Q 3022 1394 3022 966 
Q 3022 478 2636 193 
Q 2250 -91 1575 -91 
Q 1294 -91 989 -36 
Q 684 19 347 128 
L 347 722 
Q 666 556 975 473 
Q 1284 391 1588 391 
Q 1994 391 2212 530 
Q 2431 669 2431 922 
Q 2431 1156 2273 1281 
Q 2116 1406 1581 1522 
L 1381 1569 
Q 847 1681 609 1914 
Q 372 2147 372 2553 
Q 372 3047 722 3315 
Q 1072 3584 1716 3584 
Q 2034 3584 2315 3537 
Q 2597 3491 2834 3397 
z
" transform="scale(0.015625)"/>
       <path id="DejaVuSans-2f" d="M 1625 4666 
L 2156 4666 
L 531 -594 
L 0 -594 
L 1625 4666 
z
" transform="scale(0.015625)"/>
       <path id="DejaVuSans-64" d="M 2906 2969 
L 2906 4863 
L 3481 4863 
L 3481 0 
L 2906 0 
L 2906 525 
Q 2725 213 2448 61 
Q 2172 -91 1784 -91 
Q 1150 -91 751 415 
Q 353 922 353 1747 
Q 353 2572 751 3078 
Q 1150 3584 1784 3584 
Q 2172 3584 2448 3432 
Q 2725 3281 2906 2969 
z
M 947 1747 
Q 947 1113 1208 752 
Q 1469 391 1925 391 
Q 2381 391 2643 752 
Q 2906 1113 2906 1747 
Q 2906 2381 2643 2742 
Q 2381 3103 1925 3103 
Q 1469 3103 1208 2742 
Q 947 2381 947 1747 
z
" transform="scale(0.015625)"/>
       <path id="DejaVuSans-69" d="M 603 3500 
L 1178 3500 
L 1178 0 
L 603 0 
L 603 3500 
z
M 603 4863 
L 1178 4863 
L 1178 4134 
L 603 4134 
L 603 4863 
z
" transform="scale(0.015625)"/>
       <path id="DejaVuSans-6d" d="M 3328 2828 
Q 3544 3216 3844 3400 
Q 4144 3584 4550 3584 
Q 5097 3584 5394 3201 
Q 5691 2819 5691 2113 
L 5691 0 
L 5113 0 
L 5113 2094 
Q 5113 2597 4934 2840 
Q 4756 3084 4391 3084 
Q 3944 3084 3684 2787 
Q 3425 2491 3425 1978 
L 3425 0 
L 2847 0 
L 2847 2094 
Q 2847 2600 2669 2842 
Q 2491 3084 2119 3084 
Q 1678 3084 1418 2786 
Q 1159 2488 1159 1978 
L 1159 0 
L 581 0 
L 581 3500 
L 1159 3500 
L 1159 2956 
Q 1356 3278 1631 3431 
Q 1906 3584 2284 3584 
Q 2666 3584 2933 3390 
Q 3200 3197 3328 2828 
z
" transform="scale(0.015625)"/>
       <path id="DejaVuSans-6e" d="M 3513 2113 
L 3513 0 
L 2938 0 
L 2938 2094 
Q 2938 2591 2744 2837 
Q 2550 3084 2163 3084 
Q 1697 3084 1428 2787 
Q 1159 2491 1159 1978 
L 1159 0 
L 581 0 
L 581 3500 
L 1159 3500 
L 1159 2956 
Q 1366 3272 1645 3428 
Q 1925 3584 2291 3584 
Q 2894 3584 3203 3211 
Q 3513 2838 3513 2113 
z
" transform="scale(0.015625)"/>
       <path id="DejaVuSans-29" d="M 513 4856 
L 1013 4856 
Q 1481 4119 1714 3412 
Q 1947 2706 1947 2009 
Q 1947 1309 1714 600 
Q 1481 -109 1013 -844 
L 513 -844 
Q 928 -128 1133 580 
Q 1338 1288 1338 2009 
Q 1338 2731 1133 3434 
Q 928 4138 513 4856 
z
" transform="scale(0.015625)"/>
      </defs>
      <use xlink:href="#DejaVuSans-6c"/>
      <use xlink:href="#DejaVuSans-6f" x="27.783203"/>
      <use xlink:href="#DejaVuSans-67" x="88.964844"/>
      <use xlink:href="#DejaVuSans-31" x="152.441406"/>
      <use xlink:href="#DejaVuSans-30" x="216.064453"/>
      <use xlink:href="#DejaVuSans-28" x="279.6875"/>
      <use xlink:href="#DejaVuSans-23" x="318.701172"/>
      <use xlink:href="#DejaVuSans-20" x="402.490234"/>
      <use xlink:href="#DejaVuSans-66" x="434.277344"/>
      <use xlink:href="#DejaVuSans-2d" x="463.982422"/>
      <use xlink:href="#DejaVuSans-65" x="500.066406"/>
      <use xlink:href="#DejaVuSans-76" x="561.589844"/>
      <use xlink:href="#DejaVuSans-61" x="620.769531"/>
      <use xlink:href="#DejaVuSans-6c" x="682.048828"/>
      <use xlink:href="#DejaVuSans-73" x="709.832031"/>
      <use xlink:href="#DejaVuSans-20" x="761.931641"/>
      <use xlink:href="#DejaVuSans-2f" x="793.71875"/>
      <use xlink:href="#DejaVuSans-20" x="827.410156"/>
      <use xlink:href="#DejaVuSans-64" x="859.197266"/>
      <use xlink:href="#DejaVuSans-69" x="922.673828"/>
      <use xlink:href="#DejaVuSans-6d" x="950.457031"/>
      <use xlink:href="#DejaVuSans-65" x="1047.869141"/>
      <use xlink:href="#DejaVuSans-6e" x="1109.392578"/>
      <use xlink:href="#DejaVuSans-73" x="1172.771484"/>
      <use xlink:href="#DejaVuSans-69" x="1224.871094"/>
      <use xlink:href="#DejaVuSans-6f" x="1252.654297"/>
      <use xlink:href="#DejaVuSans-6e" x="1313.835938"/>
      <use xlink:href="#DejaVuSans-29" x="1377.214844"/>
     </g>
    </g>
   </g>
   <g id="matplotlib.axis_2">
    <g id="ytick_1">
     <g id="line2d_21">
      <path d="M 57.6 298.944 
L 360.8064 298.944 
" clip-path="url(#p9004bb7d50)" style="fill: none; stroke: #b0b0b0; stroke-width: 0.8; stroke-linecap: square"/>
     </g>
     <g id="line2d_22">
      <defs>
       <path id="mc0c0c5a34a" d="M 0 0 
L -3.5 0 
" style="stroke: #000000; stroke-width: 0.8"/>
      </defs>
      <g>
       <use xlink:href="#mc0c0c5a34a" x="57.6" y="298.944" style="stroke: #000000; stroke-width: 0.8"/>
      </g>
     </g>
     <g id="text_6">
      <!-- 0.0 -->
      <g transform="translate(25.155 305.02275)scale(0.16 -0.16)">
       <defs>
        <path id="DejaVuSans-2e" d="M 684 794 
L 1344 794 
L 1344 0 
L 684 0 
L 684 794 
z
" transform="scale(0.015625)"/>
       </defs>
       <use xlink:href="#DejaVuSans-30"/>
       <use xlink:href="#DejaVuSans-2e" x="63.623047"/>
       <use xlink:href="#DejaVuSans-30" x="95.410156"/>
      </g>
     </g>
    </g>
    <g id="ytick_2">
     <g id="line2d_23">
      <path d="M 57.6 244.6848 
L 360.8064 244.6848 
" clip-path="url(#p9004bb7d50)" style="fill: none; stroke: #b0b0b0; stroke-width: 0.8; stroke-linecap: square"/>
     </g>
     <g id="line2d_24">
      <g>
       <use xlink:href="#mc0c0c5a34a" x="57.6" y="244.6848" style="stroke: #000000; stroke-width: 0.8"/>
      </g>
     </g>
     <g id="text_7">
      <!-- 0.2 -->
      <g transform="translate(25.155 250.76355)scale(0.16 -0.16)">
       <use xlink:href="#DejaVuSans-30"/>
       <use xlink:href="#DejaVuSans-2e" x="63.623047"/>
       <use xlink:href="#DejaVuSans-32" x="95.410156"/>
      </g>
     </g>
    </g>
    <g id="ytick_3">
     <g id="line2d_25">
      <path d="M 57.6 190.4256 
L 360.8064 190.4256 
" clip-path="url(#p9004bb7d50)" style="fill: none; stroke: #b0b0b0; stroke-width: 0.8; stroke-linecap: square"/>
     </g>
     <g id="line2d_26">
      <g>
       <use xlink:href="#mc0c0c5a34a" x="57.6" y="190.4256" style="stroke: #000000; stroke-width: 0.8"/>
      </g>
     </g>
     <g id="text_8">
      <!-- 0.4 -->
      <g transform="translate(25.155 196.50435)scale(0.16 -0.16)">
       <use xlink:href="#DejaVuSans-30"/>
       <use xlink:href="#DejaVuSans-2e" x="63.623047"/>
       <use xlink:href="#DejaVuSans-34" x="95.410156"/>
      </g>
     </g>
    </g>
    <g id="ytick_4">
     <g id="line2d_27">
      <path d="M 57.6 136.1664 
L 360.8064 136.1664 
" clip-path="url(#p9004bb7d50)" style="fill: none; stroke: #b0b0b0; stroke-width: 0.8; stroke-linecap: square"/>
     </g>
     <g id="line2d_28">
      <g>
       <use xlink:href="#mc0c0c5a34a" x="57.6" y="136.1664" style="stroke: #000000; stroke-width: 0.8"/>
      </g>
     </g>
     <g id="text_9">
      <!-- 0.6 -->
      <g transform="translate(25.155 142.24515)scale(0.16 -0.16)">
       <use xlink:href="#DejaVuSans-30"/>
       <use xlink:href="#DejaVuSans-2e" x="63.623047"/>
       <use xlink:href="#DejaVuSans-36" x="95.410156"/>
      </g>
     </g>
    </g>
    <g id="ytick_5">
     <g id="line2d_29">
      <path d="M 57.6 81.9072 
L 360.8064 81.9072 
" clip-path="url(#p9004bb7d50)" style="fill: none; stroke: #b0b0b0; stroke-width: 0.8; stroke-linecap: square"/>
     </g>
     <g id="line2d_30">
      <g>
       <use xlink:href="#mc0c0c5a34a" x="57.6" y="81.9072" style="stroke: #000000; stroke-width: 0.8"/>
      </g>
     </g>
     <g id="text_10">
      <!-- 0.8 -->
      <g transform="translate(25.155 87.98595)scale(0.16 -0.16)">
       <defs>
        <path id="DejaVuSans-38" d="M 2034 2216 
Q 1584 2216 1326 1975 
Q 1069 1734 1069 1313 
Q 1069 891 1326 650 
Q 1584 409 2034 409 
Q 2484 409 2743 651 
Q 3003 894 3003 1313 
Q 3003 1734 2745 1975 
Q 2488 2216 2034 2216 
z
M 1403 2484 
Q 997 2584 770 2862 
Q 544 3141 544 3541 
Q 544 4100 942 4425 
Q 1341 4750 2034 4750 
Q 2731 4750 3128 4425 
Q 3525 4100 3525 3541 
Q 3525 3141 3298 2862 
Q 3072 2584 2669 2484 
Q 3125 2378 3379 2068 
Q 3634 1759 3634 1313 
Q 3634 634 3220 271 
Q 2806 -91 2034 -91 
Q 1263 -91 848 271 
Q 434 634 434 1313 
Q 434 1759 690 2068 
Q 947 2378 1403 2484 
z
M 1172 3481 
Q 1172 3119 1398 2916 
Q 1625 2713 2034 2713 
Q 2441 2713 2670 2916 
Q 2900 3119 2900 3481 
Q 2900 3844 2670 4047 
Q 2441 4250 2034 4250 
Q 1625 4250 1398 4047 
Q 1172 3844 1172 3481 
z
" transform="scale(0.015625)"/>
       </defs>
       <use xlink:href="#DejaVuSans-30"/>
       <use xlink:href="#DejaVuSans-2e" x="63.623047"/>
       <use xlink:href="#DejaVuSans-38" x="95.410156"/>
      </g>
     </g>
    </g>
    <g id="ytick_6">
     <g id="line2d_31">
      <path d="M 57.6 27.648 
L 360.8064 27.648 
" clip-path="url(#p9004bb7d50)" style="fill: none; stroke: #b0b0b0; stroke-width: 0.8; stroke-linecap: square"/>
     </g>
     <g id="line2d_32">
      <g>
       <use xlink:href="#mc0c0c5a34a" x="57.6" y="27.648" style="stroke: #000000; stroke-width: 0.8"/>
      </g>
     </g>
     <g id="text_11">
      <!-- 1.0 -->
      <g transform="translate(25.155 33.72675)scale(0.16 -0.16)">
       <use xlink:href="#DejaVuSans-31"/>
       <use xlink:href="#DejaVuSans-2e" x="63.623047"/>
       <use xlink:href="#DejaVuSans-30" x="95.410156"/>
      </g>
     </g>
    </g>
    <g id="text_12">
     <!-- Fraction of function,target pairs -->
     <g transform="translate(17.619531 297.681)rotate(-90)scale(0.17 -0.17)">
      <defs>
       <path id="DejaVuSans-46" d="M 628 4666 
L 3309 4666 
L 3309 4134 
L 1259 4134 
L 1259 2759 
L 3109 2759 
L 3109 2228 
L 1259 2228 
L 1259 0 
L 628 0 
L 628 4666 
z
" transform="scale(0.015625)"/>
       <path id="DejaVuSans-72" d="M 2631 2963 
Q 2534 3019 2420 3045 
Q 2306 3072 2169 3072 
Q 1681 3072 1420 2755 
Q 1159 2438 1159 1844 
L 1159 0 
L 581 0 
L 581 3500 
L 1159 3500 
L 1159 2956 
Q 1341 3275 1631 3429 
Q 1922 3584 2338 3584 
Q 2397 3584 2469 3576 
Q 2541 3569 2628 3553 
L 2631 2963 
z
" transform="scale(0.015625)"/>
       <path id="DejaVuSans-63" d="M 3122 3366 
L 3122 2828 
Q 2878 2963 2633 3030 
Q 2388 3097 2138 3097 
Q 1578 3097 1268 2742 
Q 959 2388 959 1747 
Q 959 1106 1268 751 
Q 1578 397 2138 397 
Q 2388 397 2633 464 
Q 2878 531 3122 666 
L 3122 134 
Q 2881 22 2623 -34 
Q 2366 -91 2075 -91 
Q 1284 -91 818 406 
Q 353 903 353 1747 
Q 353 2603 823 3093 
Q 1294 3584 2113 3584 
Q 2378 3584 2631 3529 
Q 2884 3475 3122 3366 
z
" transform="scale(0.015625)"/>
       <path id="DejaVuSans-74" d="M 1172 4494 
L 1172 3500 
L 2356 3500 
L 2356 3053 
L 1172 3053 
L 1172 1153 
Q 1172 725 1289 603 
Q 1406 481 1766 481 
L 2356 481 
L 2356 0 
L 1766 0 
Q 1100 0 847 248 
Q 594 497 594 1153 
L 594 3053 
L 172 3053 
L 172 3500 
L 594 3500 
L 594 4494 
L 1172 4494 
z
" transform="scale(0.015625)"/>
       <path id="DejaVuSans-75" d="M 544 1381 
L 544 3500 
L 1119 3500 
L 1119 1403 
Q 1119 906 1312 657 
Q 1506 409 1894 409 
Q 2359 409 2629 706 
Q 2900 1003 2900 1516 
L 2900 3500 
L 3475 3500 
L 3475 0 
L 2900 0 
L 2900 538 
Q 2691 219 2414 64 
Q 2138 -91 1772 -91 
Q 1169 -91 856 284 
Q 544 659 544 1381 
z
M 1991 3584 
L 1991 3584 
z
" transform="scale(0.015625)"/>
       <path id="DejaVuSans-2c" d="M 750 794 
L 1409 794 
L 1409 256 
L 897 -744 
L 494 -744 
L 750 256 
L 750 794 
z
" transform="scale(0.015625)"/>
       <path id="DejaVuSans-70" d="M 1159 525 
L 1159 -1331 
L 581 -1331 
L 581 3500 
L 1159 3500 
L 1159 2969 
Q 1341 3281 1617 3432 
Q 1894 3584 2278 3584 
Q 2916 3584 3314 3078 
Q 3713 2572 3713 1747 
Q 3713 922 3314 415 
Q 2916 -91 2278 -91 
Q 1894 -91 1617 61 
Q 1341 213 1159 525 
z
M 3116 1747 
Q 3116 2381 2855 2742 
Q 2594 3103 2138 3103 
Q 1681 3103 1420 2742 
Q 1159 2381 1159 1747 
Q 1159 1113 1420 752 
Q 1681 391 2138 391 
Q 2594 391 2855 752 
Q 3116 1113 3116 1747 
z
" transform="scale(0.015625)"/>
      </defs>
      <use xlink:href="#DejaVuSans-46"/>
      <use xlink:href="#DejaVuSans-72" x="50.269531"/>
      <use xlink:href="#DejaVuSans-61" x="91.382812"/>
      <use xlink:href="#DejaVuSans-63" x="152.662109"/>
      <use xlink:href="#DejaVuSans-74" x="207.642578"/>
      <use xlink:href="#DejaVuSans-69" x="246.851562"/>
      <use xlink:href="#DejaVuSans-6f" x="274.634766"/>
      <use xlink:href="#DejaVuSans-6e" x="335.816406"/>
      <use xlink:href="#DejaVuSans-20" x="399.195312"/>
      <use xlink:href="#DejaVuSans-6f" x="430.982422"/>
      <use xlink:href="#DejaVuSans-66" x="492.164062"/>
      <use xlink:href="#DejaVuSans-20" x="527.369141"/>
      <use xlink:href="#DejaVuSans-66" x="559.15625"/>
      <use xlink:href="#DejaVuSans-75" x="594.361328"/>
      <use xlink:href="#DejaVuSans-6e" x="657.740234"/>
      <use xlink:href="#DejaVuSans-63" x="721.119141"/>
      <use xlink:href="#DejaVuSans-74" x="776.099609"/>
      <use xlink:href="#DejaVuSans-69" x="815.308594"/>
      <use xlink:href="#DejaVuSans-6f" x="843.091797"/>
      <use xlink:href="#DejaVuSans-6e" x="904.273438"/>
      <use xlink:href="#DejaVuSans-2c" x="967.652344"/>
      <use xlink:href="#DejaVuSans-74" x="999.439453"/>
      <use xlink:href="#DejaVuSans-61" x="1038.648438"/>
      <use xlink:href="#DejaVuSans-72" x="1099.927734"/>
      <use xlink:href="#DejaVuSans-67" x="1139.291016"/>
      <use xlink:href="#DejaVuSans-65" x="1202.767578"/>
      <use xlink:href="#DejaVuSans-74" x="1264.291016"/>
      <use xlink:href="#DejaVuSans-20" x="1303.5"/>
      <use xlink:href="#DejaVuSans-70" x="1335.287109"/>
      <use xlink:href="#DejaVuSans-61" x="1398.763672"/>
      <use xlink:href="#DejaVuSans-69" x="1460.042969"/>
      <use xlink:href="#DejaVuSans-72" x="1487.826172"/>
      <use xlink:href="#DejaVuSans-73" x="1528.939453"/>
     </g>
    </g>
   </g>
   <g id="line2d_33">
    <defs>
     <path id="mbb498f3121" d="M 0 1.5 
C 0.397805 1.5 0.77937 1.341951 1.06066 1.06066 
C 1.341951 0.77937 1.5 0.397805 1.5 0 
C 1.5 -0.397805 1.341951 -0.77937 1.06066 -1.06066 
C 0.77937 -1.341951 0.397805 -1.5 0 -1.5 
C -0.397805 -1.5 -0.77937 -1.341951 -1.06066 -1.06066 
C -1.341951 -0.77937 -1.5 -0.397805 -1.5 0 
C -1.5 0.397805 -1.341951 0.77937 -1.06066 1.06066 
C -0.77937 1.341951 -0.397805 1.5 0 1.5 
z
" style="stroke: #f5deb3"/>
    </defs>
    <g>
     <use xlink:href="#mbb498f3121" x="138.718057" y="27.648" style="fill: #f5deb3; stroke: #f5deb3"/>
     <use xlink:href="#mbb498f3121" x="138.718057" y="27.648" style="fill: #f5deb3; stroke: #f5deb3"/>
    </g>
   </g>
   <g id="line2d_34">
    <defs>
     <path id="m202634609e" d="M 0 1.5 
C 0.397805 1.5 0.77937 1.341951 1.06066 1.06066 
C 1.341951 0.77937 1.5 0.397805 1.5 0 
C 1.5 -0.397805 1.341951 -0.77937 1.06066 -1.06066 
C 0.77937 -1.341951 0.397805 -1.5 0 -1.5 
C -0.397805 -1.5 -0.77937 -1.341951 -1.06066 -1.06066 
C -1.341951 -0.77937 -1.5 -0.397805 -1.5 0 
C -1.5 0.397805 -1.341951 0.77937 -1.06066 1.06066 
C -0.77937 1.341951 -0.397805 1.5 0 1.5 
z
" style="stroke: #000080"/>
    </defs>
    <g>
     <use xlink:href="#m202634609e" x="186.922125" y="27.648" style="fill: #000080; stroke: #000080"/>
     <use xlink:href="#m202634609e" x="186.922125" y="27.648" style="fill: #000080; stroke: #000080"/>
    </g>
   </g>
   <g id="line2d_35">
    <path d="M 27.323974 298.944 
L 27.323974 282.985412 
L 97.18203 282.985412 
L 97.18203 282.630776 
L 97.635342 282.630776 
L 97.635342 282.276141 
L 98.933205 282.276141 
L 98.933205 281.921506 
L 100.9152 281.921506 
L 100.9152 281.566871 
L 102.362957 281.566871 
L 102.362957 281.212235 
L 103.047088 281.212235 
L 103.047088 280.8576 
L 104.655893 280.8576 
L 104.655893 280.148329 
L 105.26277 280.148329 
L 105.26277 279.793694 
L 105.850679 279.793694 
L 105.850679 279.084424 
L 106.137884 279.084424 
L 106.137884 278.729788 
L 106.699465 278.729788 
L 106.699465 278.375153 
L 108.791791 278.375153 
L 108.791791 278.020518 
L 109.037698 278.020518 
L 109.037698 277.665882 
L 109.280431 277.665882 
L 109.280431 277.311247 
L 110.221204 277.311247 
L 110.221204 276.956612 
L 110.674517 276.956612 
L 110.674517 276.247341 
L 111.54963 276.247341 
L 111.54963 275.892706 
L 111.762192 275.892706 
L 111.762192 274.8288 
L 112.385837 274.8288 
L 112.385837 274.474165 
L 112.989468 274.474165 
L 112.989468 273.764894 
L 113.186449 273.764894 
L 113.186449 273.410259 
L 113.765312 273.410259 
L 113.765312 273.055624 
L 113.954374 273.055624 
L 113.954374 272.700988 
L 114.141556 272.700988 
L 114.141556 271.637082 
L 115.402131 271.637082 
L 115.402131 271.282447 
L 115.917548 271.282447 
L 115.917548 270.927812 
L 116.253478 270.927812 
L 116.253478 270.573176 
L 116.419219 270.573176 
L 116.419219 270.218541 
L 116.583514 270.218541 
L 116.583514 269.863906 
L 117.540239 269.863906 
L 117.540239 269.509271 
L 118.000953 269.509271 
L 118.000953 269.154635 
L 118.301945 269.154635 
L 118.301945 268.445365 
L 118.598196 268.445365 
L 118.598196 268.090729 
L 118.889854 268.090729 
L 118.889854 267.736094 
L 119.177058 267.736094 
L 119.177058 267.381459 
L 119.459944 267.381459 
L 119.459944 267.026824 
L 120.28394 267.026824 
L 120.28394 266.672188 
L 120.682786 266.672188 
L 120.682786 266.317553 
L 121.201758 266.317553 
L 121.201758 265.962918 
L 121.830966 265.962918 
L 121.830966 265.608282 
L 122.076872 265.608282 
L 122.076872 265.253647 
L 122.795872 265.253647 
L 122.795872 264.544376 
L 123.825333 264.544376 
L 123.825333 264.189741 
L 124.906754 264.189741 
L 125.011554 263.480471 
L 125.115773 263.480471 
L 125.115773 263.125835 
L 125.628382 263.125835 
L 125.628382 262.7712 
L 125.929373 262.7712 
L 125.929373 262.416565 
L 126.323346 262.416565 
L 126.323346 261.707294 
L 126.613505 261.707294 
L 126.613505 261.352659 
L 127.087372 261.352659 
L 127.18073 260.643388 
L 127.273627 260.643388 
L 127.273627 260.288753 
L 127.458055 260.288753 
L 127.458055 259.934118 
L 128.178203 259.934118 
L 128.178203 259.579482 
L 128.700779 259.579482 
L 128.700779 257.806306 
L 129.375706 257.806306 
L 129.458394 257.097035 
L 130.579414 257.097035 
L 130.579414 256.7424 
L 131.191226 256.7424 
L 131.191226 256.387765 
L 131.341119 256.387765 
L 131.341119 256.033129 
L 131.929028 256.033129 
L 131.929028 255.678494 
L 132.428795 255.678494 
L 132.428795 255.323859 
L 132.915628 255.323859 
L 132.915628 254.614588 
L 134.176839 254.614588 
L 134.240933 253.905318 
L 134.431915 253.905318 
L 134.431915 253.196047 
L 136.068734 253.196047 
L 136.068734 252.486776 
L 137.195511 252.486776 
L 137.304564 251.777506 
L 138.918715 251.777506 
L 138.918715 251.422871 
L 139.411192 251.422871 
L 139.411192 251.068235 
L 140.173284 251.068235 
L 140.173284 250.7136 
L 140.49723 250.7136 
L 140.49723 250.358965 
L 141.910969 250.358965 
L 141.953481 249.649694 
L 142.038218 249.649694 
L 142.038218 249.295059 
L 142.620923 249.295059 
L 142.620923 248.940424 
L 142.905644 248.940424 
L 142.905644 248.585788 
L 144.639767 248.585788 
L 144.749884 247.521882 
L 145.184016 247.521882 
L 145.184016 247.167247 
L 145.46797 247.167247 
L 145.46797 246.812612 
L 145.608355 246.812612 
L 145.712961 246.103341 
L 145.851536 246.103341 
L 145.851536 245.748706 
L 146.957431 245.748706 
L 146.957431 245.394071 
L 147.216013 245.394071 
L 147.216013 245.039435 
L 147.565858 245.039435 
L 147.565858 244.6848 
L 147.878349 244.6848 
L 147.909315 243.975529 
L 148.001907 243.975529 
L 148.094045 242.911624 
L 148.428077 242.911624 
L 148.428077 242.556988 
L 148.726679 242.556988 
L 148.726679 242.202353 
L 149.338728 242.202353 
L 149.338728 241.847718 
L 149.538397 241.847718 
L 149.538397 241.493082 
L 149.679732 241.493082 
L 149.73597 240.783812 
L 150.097474 240.783812 
L 150.179921 239.365271 
L 150.398028 239.365271 
L 150.506141 238.656 
L 150.667154 238.656 
L 150.773735 237.592094 
L 151.037576 237.592094 
L 151.037576 236.882824 
L 151.220087 236.882824 
L 151.220087 236.528188 
L 151.349377 236.528188 
L 151.349377 236.173553 
L 151.477784 236.173553 
L 151.554409 235.464282 
L 151.882893 235.464282 
L 151.95789 234.755012 
L 152.181101 234.755012 
L 152.279463 233.691106 
L 152.352898 233.691106 
L 152.352898 233.336471 
L 152.667844 233.336471 
L 152.739781 230.854024 
L 153.212458 230.854024 
L 153.212458 230.499388 
L 153.398253 230.499388 
L 153.398253 229.790118 
L 153.58223 229.790118 
L 153.58223 229.435482 
L 153.719042 229.435482 
L 153.741748 228.371576 
L 153.922412 228.371576 
L 153.922412 228.016941 
L 154.034453 228.016941 
L 154.034453 227.307671 
L 154.234459 227.307671 
L 154.234459 226.953035 
L 154.388563 226.953035 
L 154.497869 225.179859 
L 154.563149 225.179859 
L 154.606544 224.470588 
L 154.73613 224.470588 
L 154.779128 223.761318 
L 154.971412 223.761318 
L 155.056244 223.052047 
L 155.30847 223.052047 
L 155.30847 222.697412 
L 155.598521 222.697412 
L 155.701037 220.924235 
L 155.863909 220.924235 
L 155.904407 220.214965 
L 156.025382 220.214965 
L 156.105602 218.087153 
L 156.225294 218.087153 
L 156.324459 216.668612 
L 156.423104 216.668612 
L 156.423104 216.313976 
L 156.618856 216.313976 
L 156.715973 215.250071 
L 156.75468 215.250071 
L 156.8511 214.5408 
L 156.870325 214.5408 
L 156.870325 214.186165 
L 157.023421 214.186165 
L 157.061501 212.767624 
L 157.231914 212.767624 
L 157.30716 211.703718 
L 157.363398 211.703718 
L 157.363398 210.994447 
L 157.475372 210.994447 
L 157.493969 210.285176 
L 157.605171 210.285176 
L 157.660526 208.512 
L 157.752425 208.512 
L 157.825621 207.448094 
L 157.880333 207.448094 
L 157.880333 207.093459 
L 158.043518 207.093459 
L 158.151527 206.029553 
L 158.276759 206.029553 
L 158.330176 204.256376 
L 158.559911 204.256376 
L 158.612531 203.547106 
L 158.786875 203.547106 
L 158.873444 202.128565 
L 158.942415 202.128565 
L 158.993977 201.419294 
L 159.079601 201.419294 
L 159.181837 198.582212 
L 159.232748 198.582212 
L 159.232748 198.227576 
L 159.384659 198.227576 
L 159.401463 197.518306 
L 159.50197 197.518306 
L 159.585318 196.809035 
L 159.668298 196.809035 
L 159.767393 195.390494 
L 159.964032 195.390494 
L 160.061585 193.971953 
L 160.110173 193.971953 
L 160.174762 191.844141 
L 160.271232 191.844141 
L 160.367209 191.134871 
L 160.430923 191.134871 
L 160.541906 189.716329 
L 160.589271 189.716329 
L 160.699326 187.233882 
L 160.730652 187.233882 
L 160.839886 184.042165 
L 160.948489 184.042165 
L 161.056469 182.978259 
L 161.102557 182.978259 
L 161.163832 182.268988 
L 161.224909 182.268988 
L 161.331318 181.559718 
L 161.34647 181.559718 
L 161.437128 179.431906 
L 161.482294 179.431906 
L 161.497325 178.722635 
L 161.617145 178.722635 
L 161.676769 177.658729 
L 161.78066 177.658729 
L 161.869254 174.467012 
L 161.942766 174.467012 
L 161.97209 173.048471 
L 162.103487 173.048471 
L 162.190578 171.275294 
L 162.306075 171.275294 
L 162.406556 169.147482 
L 162.420867 169.147482 
L 162.520739 166.3104 
L 162.56338 166.3104 
L 162.648372 164.182588 
L 162.761101 164.182588 
L 162.859187 162.764047 
L 162.873158 162.764047 
L 162.915008 162.054776 
L 162.998429 162.054776 
L 163.095289 158.508424 
L 163.136649 158.508424 
L 163.246497 155.671341 
L 163.260183 155.671341 
L 163.342092 153.543529 
L 163.3965 153.543529 
L 163.464289 152.479624 
L 163.558786 152.479624 
L 163.65281 151.061082 
L 163.679588 151.061082 
L 163.786321 148.933271 
L 163.852722 148.933271 
L 163.945293 145.032282 
L 163.997986 145.032282 
L 164.102932 142.549835 
L 164.116009 142.549835 
L 164.220301 140.067388 
L 164.259262 140.067388 
L 164.362764 137.230306 
L 164.375662 137.230306 
L 164.478528 134.747859 
L 164.504157 134.747859 
L 164.593584 133.683953 
L 164.644495 133.683953 
L 164.733259 130.492235 
L 164.783793 130.492235 
L 164.884457 126.945882 
L 164.909539 126.945882 
L 164.997064 124.463435 
L 165.084184 124.463435 
L 165.146166 123.044894 
L 165.244914 123.044894 
L 165.318637 121.626353 
L 165.367626 121.626353 
L 165.477385 119.498541 
L 165.574415 119.498541 
L 165.682978 115.952188 
L 165.731028 115.952188 
L 165.731028 114.888282 
L 165.874446 114.888282 
L 165.981296 109.923388 
L 166.028591 109.923388 
L 166.122826 108.150212 
L 166.158043 108.150212 
L 166.251633 105.313129 
L 166.274957 105.313129 
L 166.298254 104.249224 
L 166.39115 104.249224 
L 166.483591 100.348235 
L 166.518139 100.348235 
L 166.518139 99.9936 
L 166.644276 99.9936 
L 166.689935 98.575059 
L 166.814929 98.575059 
L 166.916583 95.028706 
L 166.950346 95.028706 
L 167.028891 92.546259 
L 167.140533 92.546259 
L 167.251516 90.063812 
L 167.273634 90.063812 
L 167.328816 87.936 
L 167.4058 87.936 
L 167.515233 86.162824 
L 167.526142 86.162824 
L 167.613182 84.744282 
L 167.689013 84.744282 
L 167.796816 81.9072 
L 167.925369 81.9072 
L 168.021211 80.134024 
L 168.095418 80.134024 
L 168.200924 77.296941 
L 168.337202 77.296941 
L 168.441364 76.233035 
L 168.503585 76.233035 
L 168.544952 74.814494 
L 168.668509 74.814494 
L 168.760648 72.686682 
L 168.781062 72.686682 
L 168.862497 70.558871 
L 168.973898 70.558871 
L 168.973898 69.8496 
L 169.094679 69.8496 
L 169.194741 68.431059 
L 169.264469 68.431059 
L 169.363634 67.721788 
L 169.413021 67.721788 
L 169.491772 64.530071 
L 169.638546 64.530071 
L 169.706651 63.111529 
L 169.755147 63.111529 
L 169.832482 61.692988 
L 170.014887 61.692988 
L 170.014887 59.565176 
L 170.186075 59.565176 
L 170.186075 59.210541 
L 170.736514 59.210541 
L 170.809925 58.501271 
L 170.992209 58.501271 
L 170.992209 58.146635 
L 174.423472 58.146635 
L 174.423472 57.792 
L 175.381197 57.792 
L 175.381197 57.437365 
L 176.41529 57.437365 
L 176.41529 57.082729 
L 177.317886 57.082729 
L 177.317886 56.728094 
L 178.005027 56.728094 
L 178.005027 56.373459 
L 178.553005 56.373459 
L 178.643809 55.664188 
L 179.097265 55.664188 
L 179.097265 55.309553 
L 179.482378 55.309553 
L 179.482378 54.954918 
L 179.717705 54.954918 
L 179.786028 54.245647 
L 180.201956 54.245647 
L 180.201956 53.891012 
L 180.362479 53.891012 
L 180.423011 52.827106 
L 180.70114 52.827106 
L 180.70114 52.472471 
L 181.033812 52.472471 
L 181.118716 51.053929 
L 181.287383 51.053929 
L 181.360702 50.344659 
L 181.784497 50.344659 
L 181.830435 49.280753 
L 182.163928 49.280753 
L 182.253864 47.507576 
L 182.313583 47.507576 
L 182.313583 46.443671 
L 182.506372 46.443671 
L 182.506372 46.089035 
L 182.697205 46.089035 
L 182.745826 45.379765 
L 182.919829 45.379765 
L 183.001441 43.606588 
L 183.211043 43.606588 
L 183.211043 43.251953 
L 183.446426 43.251953 
L 183.493151 41.833412 
L 183.576965 41.833412 
L 183.576965 41.478776 
L 183.706604 41.478776 
L 183.803251 40.060235 
L 183.958682 40.060235 
L 183.963234 38.641694 
L 184.085726 38.641694 
L 184.130892 37.932424 
L 184.283649 37.932424 
L 184.359566 36.868518 
L 184.48394 36.868518 
L 184.48394 36.159247 
L 184.68212 36.159247 
L 184.68212 35.095341 
L 184.878235 35.095341 
L 184.917213 33.6768 
L 185.213397 33.6768 
L 185.213397 32.967529 
L 185.492405 32.967529 
L 185.492405 32.258259 
L 185.634537 32.258259 
L 185.634537 31.194353 
L 186.119652 31.194353 
L 186.156144 30.485082 
L 186.277275 30.485082 
L 186.309445 28.711906 
L 186.537079 28.711906 
L 186.596528 28.002635 
L 186.922125 28.002635 
L 186.922125 27.648 
L 360.8064 27.648 
L 360.8064 27.648 
" style="fill: none; stroke: #000080; stroke-width: 1.5; stroke-linecap: square"/>
   </g>
   <g id="line2d_36">
    <defs>
     <path id="mab3e31169c" d="M 0 6 
C 1.591219 6 3.117479 5.367802 4.242641 4.242641 
C 5.367802 3.117479 6 1.591219 6 0 
C 6 -1.591219 5.367802 -3.117479 4.242641 -4.242641 
C 3.117479 -5.367802 1.591219 -6 0 -6 
C -1.591219 -6 -3.117479 -5.367802 -4.242641 -4.242641 
C -5.367802 -3.117479 -6 -1.591219 -6 0 
C -6 1.591219 -5.367802 3.117479 -4.242641 4.242641 
C -3.117479 5.367802 -1.591219 6 0 6 
z
" style="stroke: #000080; stroke-width: 1.5"/>
    </defs>
    <g>
     <use xlink:href="#mab3e31169c" x="155.30847" y="223.052047" style="fill-opacity: 0; stroke: #000080; stroke-width: 1.5"/>
     <use xlink:href="#mab3e31169c" x="170.809925" y="58.855906" style="fill-opacity: 0; stroke: #000080; stroke-width: 1.5"/>
     <use xlink:href="#mab3e31169c" x="186.922125" y="28.002635" style="fill-opacity: 0; stroke: #000080; stroke-width: 1.5"/>
     <use xlink:href="#mab3e31169c" x="186.922125" y="27.648" style="fill-opacity: 0; stroke: #000080; stroke-width: 1.5"/>
     <use xlink:href="#mab3e31169c" x="186.922125" y="27.648" style="fill-opacity: 0; stroke: #000080; stroke-width: 1.5"/>
     <use xlink:href="#mab3e31169c" x="360.8064" y="27.648" style="fill-opacity: 0; stroke: #000080; stroke-width: 1.5"/>
    </g>
   </g>
   <g id="line2d_37">
    <path style="fill: none; stroke: #000080; stroke-width: 1.5; stroke-linecap: square"/>
    <g/>
   </g>
   <g id="line2d_38">
    <defs>
     <path id="mfecd549e77" d="M 0 1.5 
C 0.397805 1.5 0.77937 1.341951 1.06066 1.06066 
C 1.341951 0.77937 1.5 0.397805 1.5 0 
C 1.5 -0.397805 1.341951 -0.77937 1.06066 -1.06066 
C 0.77937 -1.341951 0.397805 -1.5 0 -1.5 
C -0.397805 -1.5 -0.77937 -1.341951 -1.06066 -1.06066 
C -1.341951 -0.77937 -1.5 -0.397805 -1.5 0 
C -1.5 0.397805 -1.341951 0.77937 -1.06066 1.06066 
C -0.77937 1.341951 -0.397805 1.5 0 1.5 
z
" style="stroke: #ff00ff"/>
    </defs>
    <g>
     <use xlink:href="#mfecd549e77" x="185.767335" y="27.648" style="fill: #ff00ff; stroke: #ff00ff"/>
     <use xlink:href="#mfecd549e77" x="185.767335" y="27.648" style="fill: #ff00ff; stroke: #ff00ff"/>
    </g>
   </g>
   <g id="line2d_39">
    <path d="M 27.323974 298.944 
L 27.323974 282.985412 
L 99.751228 282.985412 
L 99.751228 282.630776 
L 106.137884 282.630776 
L 106.137884 282.276141 
L 108.542628 282.276141 
L 108.542628 281.921506 
L 112.589207 281.921506 
L 112.589207 281.566871 
L 113.186449 281.566871 
L 113.186449 281.212235 
L 113.381389 281.212235 
L 113.381389 280.8576 
L 114.141556 280.8576 
L 114.141556 280.148329 
L 115.747307 280.148329 
L 115.747307 279.793694 
L 117.067958 279.793694 
L 117.067958 279.084424 
L 117.226706 279.084424 
L 117.226706 278.020518 
L 117.848632 278.020518 
L 117.848632 277.665882 
L 118.301945 277.665882 
L 118.301945 277.311247 
L 119.034004 277.311247 
L 119.034004 276.601976 
L 119.177058 276.601976 
L 119.177058 276.247341 
L 119.459944 276.247341 
L 119.459944 275.892706 
L 119.599808 275.892706 
L 119.599808 275.538071 
L 119.876453 275.538071 
L 119.876453 274.8288 
L 120.149089 274.8288 
L 120.149089 274.474165 
L 120.682786 274.474165 
L 120.682786 274.119529 
L 120.813877 274.119529 
L 120.813877 273.410259 
L 120.944062 273.410259 
L 120.944062 273.055624 
L 121.073351 273.055624 
L 121.073351 272.700988 
L 121.201758 272.700988 
L 121.201758 271.991718 
L 121.329295 271.991718 
L 121.329295 271.282447 
L 121.706797 271.282447 
L 121.706797 270.573176 
L 122.795872 270.573176 
L 122.795872 269.863906 
L 123.029559 269.863906 
L 123.029559 269.509271 
L 123.145323 269.509271 
L 123.145323 268.8 
L 123.713691 268.8 
L 123.713691 268.445365 
L 123.936316 268.445365 
L 123.936316 268.090729 
L 124.265389 268.090729 
L 124.265389 267.736094 
L 124.588805 267.736094 
L 124.695386 267.026824 
L 124.906754 267.026824 
L 124.906754 266.672188 
L 125.729248 266.672188 
L 125.729248 266.317553 
L 126.127391 266.317553 
L 126.127391 265.962918 
L 126.323346 265.962918 
L 126.420564 264.544376 
L 126.517282 264.544376 
L 126.517282 264.189741 
L 126.899255 264.189741 
L 126.899255 263.480471 
L 127.821575 263.480471 
L 127.821575 262.7712 
L 128.441306 262.7712 
L 128.441306 262.416565 
L 128.700779 262.416565 
L 128.700779 262.061929 
L 128.956723 262.061929 
L 128.956723 261.707294 
L 129.125437 261.707294 
L 129.125437 261.352659 
L 129.292652 261.352659 
L 129.375706 260.643388 
L 130.344755 260.643388 
L 130.344755 258.515576 
L 131.191226 258.515576 
L 131.191226 257.806306 
L 131.783764 257.806306 
L 131.783764 257.451671 
L 132.428795 257.451671 
L 132.428795 257.097035 
L 132.638982 257.097035 
L 132.638982 256.7424 
L 135.116046 256.7424 
L 135.116046 256.033129 
L 137.304564 256.033129 
L 137.304564 255.678494 
L 138.616919 255.678494 
L 138.616919 255.323859 
L 139.843661 255.323859 
L 139.843661 254.969224 
L 140.995278 254.969224 
L 140.995278 254.614588 
L 142.579895 254.614588 
L 142.579895 254.259953 
L 143.02636 254.259953 
L 143.02636 253.905318 
L 143.344534 253.905318 
L 143.344534 253.550682 
L 144.2304 253.550682 
L 144.2304 253.196047 
L 145.004344 253.196047 
L 145.004344 252.841412 
L 145.184016 252.841412 
L 145.219746 252.132141 
L 145.46797 252.132141 
L 145.46797 251.777506 
L 146.023332 251.777506 
L 146.091614 251.068235 
L 147.407644 251.068235 
L 147.407644 250.358965 
L 147.785146 250.358965 
L 147.785146 250.004329 
L 147.909315 250.004329 
L 147.909315 249.649694 
L 148.063382 249.649694 
L 148.063382 249.295059 
L 148.246613 249.295059 
L 148.246613 248.940424 
L 148.57797 248.940424 
L 148.57797 248.585788 
L 148.75628 248.585788 
L 148.75628 248.231153 
L 149.538397 248.231153 
L 149.538397 247.876518 
L 149.875833 247.876518 
L 149.959255 247.167247 
L 149.98698 247.167247 
L 150.097474 246.103341 
L 150.985103 246.103341 
L 151.063758 245.394071 
L 151.168122 245.394071 
L 151.220087 244.6848 
L 151.554409 244.6848 
L 151.554409 244.330165 
L 152.401695 244.330165 
L 152.401695 243.975529 
L 152.547334 243.975529 
L 152.571498 243.266259 
L 152.691854 243.266259 
L 152.691854 242.911624 
L 152.953957 242.911624 
L 153.02481 241.847718 
L 153.375128 241.847718 
L 153.375128 241.493082 
L 153.513449 241.493082 
L 153.58223 240.429176 
L 153.650761 240.429176 
L 153.719042 239.719906 
L 153.854866 239.719906 
L 153.854866 239.365271 
L 154.123607 239.365271 
L 154.168026 238.656 
L 154.366625 238.656 
L 154.366625 238.301365 
L 154.693034 238.301365 
L 154.693034 237.946729 
L 154.822028 237.946729 
L 154.822028 237.592094 
L 155.098517 237.592094 
L 155.098517 237.237459 
L 155.28758 237.237459 
L 155.28758 236.882824 
L 155.412574 236.882824 
L 155.516105 236.173553 
L 155.721473 236.173553 
L 155.721473 235.818918 
L 155.843627 235.818918 
L 155.924624 235.109647 
L 156.165543 235.109647 
L 156.245169 233.691106 
L 156.304668 233.691106 
L 156.403417 232.981835 
L 156.540799 232.981835 
L 156.599372 230.499388 
L 156.793307 230.499388 
L 156.812591 229.435482 
L 157.456756 229.435482 
L 157.475372 228.371576 
L 157.69734 228.371576 
L 157.770751 227.662306 
L 157.916719 227.662306 
L 158.025456 226.5984 
L 158.043518 226.5984 
L 158.133569 225.889129 
L 158.25892 225.889129 
L 158.25892 225.534494 
L 158.401163 225.534494 
L 158.507144 222.342776 
L 158.665004 222.342776 
L 158.699905 220.924235 
L 158.925196 220.924235 
L 158.925196 220.5696 
L 159.113741 220.5696 
L 159.181837 219.860329 
L 159.283522 219.860329 
L 159.283522 219.151059 
L 159.435025 219.151059 
L 159.50197 218.441788 
L 159.601943 218.441788 
L 159.63515 217.732518 
L 159.734419 217.732518 
L 159.816746 216.668612 
L 159.865969 216.668612 
L 159.947723 214.5408 
L 159.980326 214.5408 
L 159.980326 214.186165 
L 160.126341 214.186165 
L 160.126341 213.831529 
L 160.255188 213.831529 
L 160.351247 212.767624 
L 160.415015 212.767624 
L 160.415015 212.412988 
L 160.557708 212.412988 
L 160.652238 210.994447 
L 160.761927 210.994447 
L 160.793149 209.575906 
L 160.917524 209.575906 
L 161.010268 207.093459 
L 161.087207 207.093459 
L 161.194395 205.320282 
L 161.224909 205.320282 
L 161.331318 203.901741 
L 161.34647 203.901741 
L 161.406958 202.837835 
L 161.497325 202.837835 
L 161.587261 201.419294 
L 161.736206 201.419294 
L 161.78066 200.710024 
L 161.869254 200.710024 
L 161.898693 200.000753 
L 161.986735 200.000753 
L 162.001369 199.291482 
L 162.219518 199.291482 
L 162.320462 197.518306 
L 162.334839 197.518306 
L 162.334839 197.163671 
L 162.449456 197.163671 
L 162.549177 195.390494 
L 162.56338 195.390494 
L 162.648372 193.617318 
L 162.676617 193.617318 
L 162.775144 191.844141 
L 162.789177 191.844141 
L 162.873158 190.780235 
L 162.915008 190.780235 
L 162.998429 188.652424 
L 163.026155 188.652424 
L 163.053839 187.588518 
L 163.164171 187.588518 
L 163.260183 186.524612 
L 163.287526 186.524612 
L 163.3965 184.751435 
L 163.410077 184.751435 
L 163.491337 182.623624 
L 163.558786 182.623624 
L 163.666204 178.722635 
L 163.692963 178.722635 
L 163.786321 177.304094 
L 163.82619 177.304094 
L 163.892451 176.240188 
L 163.971658 176.240188 
L 164.050532 175.530918 
L 164.102932 175.530918 
L 164.181259 174.112376 
L 164.233297 174.112376 
L 164.336942 173.403106 
L 164.362764 173.403106 
L 164.414303 171.629929 
L 164.529751 171.629929 
L 164.606324 168.792847 
L 164.669899 168.792847 
L 164.720604 168.083576 
L 164.796406 168.083576 
L 164.884457 166.3104 
L 164.959603 166.3104 
L 165.034451 163.118682 
L 165.084184 163.118682 
L 165.183257 160.636235 
L 165.207944 160.636235 
L 165.244914 158.153788 
L 165.379853 158.153788 
L 165.489541 153.188894 
L 165.51383 153.188894 
L 165.610672 151.061082 
L 165.658907 151.061082 
L 165.695002 149.287906 
L 165.826761 149.287906 
L 165.886348 146.096188 
L 165.993131 146.096188 
L 166.063985 143.613741 
L 166.122826 143.613741 
L 166.216591 140.776659 
L 166.263299 140.776659 
L 166.286609 139.712753 
L 166.425869 139.712753 
L 166.483591 138.294212 
L 166.598506 138.294212 
L 166.678531 137.230306 
L 166.735484 137.230306 
L 166.826251 134.393224 
L 166.871471 134.393224 
L 166.950346 131.201506 
L 166.995269 131.201506 
L 167.051272 127.655153 
L 167.140533 127.655153 
L 167.229371 126.945882 
L 167.262578 126.945882 
L 167.361848 124.463435 
L 167.438697 124.463435 
L 167.537044 121.980988 
L 167.602324 121.980988 
L 167.710623 119.853176 
L 167.721419 119.853176 
L 167.818303 118.434635 
L 167.861203 118.434635 
L 167.91469 114.888282 
L 167.978675 114.888282 
L 168.05305 113.115106 
L 168.116567 113.115106 
L 168.211442 109.568753 
L 168.284904 109.568753 
L 168.378936 107.795576 
L 168.420577 107.795576 
L 168.441364 107.086306 
L 168.555279 107.086306 
L 168.658244 101.057506 
L 168.699272 101.057506 
L 168.699272 100.702871 
L 168.811641 100.702871 
L 168.913216 96.801882 
L 168.973898 96.801882 
L 169.034386 95.737976 
L 169.164778 95.737976 
L 169.204718 95.028706 
L 169.333939 95.028706 
L 169.432739 92.546259 
L 169.501592 92.546259 
L 169.501592 92.191624 
L 169.65803 92.191624 
L 169.65803 91.482353 
L 169.793854 91.482353 
L 169.899889 90.418447 
L 170.024438 90.418447 
L 170.024438 90.063812 
L 170.186075 90.063812 
L 170.223906 88.999906 
L 170.374474 88.999906 
L 170.374474 88.645271 
L 173.730661 88.645271 
L 173.730661 88.290635 
L 173.925682 88.290635 
L 173.925682 87.936 
L 175.438571 87.936 
L 175.438571 87.581365 
L 175.609652 87.581365 
L 175.715792 86.872094 
L 176.086096 86.872094 
L 176.086096 86.517459 
L 176.285672 86.517459 
L 176.285672 86.162824 
L 176.58449 86.162824 
L 176.58449 85.808188 
L 177.122474 85.808188 
L 177.168252 84.744282 
L 177.259475 84.744282 
L 177.259475 84.389647 
L 177.98002 84.389647 
L 178.011273 83.680376 
L 178.098508 83.680376 
L 178.098508 83.325741 
L 178.234779 83.325741 
L 178.234779 82.971106 
L 178.625683 82.971106 
L 178.625683 82.616471 
L 178.764203 82.616471 
L 178.764203 82.261835 
L 178.996779 82.261835 
L 179.044133 81.552565 
L 179.109051 81.552565 
L 179.109051 81.197929 
L 179.418738 81.197929 
L 179.418738 80.843294 
L 179.59754 80.843294 
L 179.614753 80.134024 
L 179.825769 80.134024 
L 179.825769 79.779388 
L 180.157432 79.779388 
L 180.246375 78.715482 
L 180.268546 78.715482 
L 180.323858 78.006212 
L 180.488824 78.006212 
L 180.554408 76.587671 
L 180.684893 76.587671 
L 180.733593 74.105224 
L 180.89502 74.105224 
L 180.89502 73.750588 
L 181.033812 73.750588 
L 181.108124 72.686682 
L 181.308361 72.686682 
L 181.318841 71.977412 
L 181.433737 71.977412 
L 181.433737 71.622776 
L 181.661445 71.622776 
L 181.707684 69.494965 
L 181.779386 69.494965 
L 181.840628 68.431059 
L 182.002973 68.431059 
L 182.103731 65.948612 
L 182.118798 65.948612 
L 182.228925 64.884706 
L 182.233915 64.884706 
L 182.233915 64.175435 
L 182.378066 64.175435 
L 182.412696 62.047624 
L 182.555488 62.047624 
L 182.663095 61.338353 
L 182.667971 61.338353 
L 182.770089 59.919812 
L 182.789478 59.919812 
L 182.89094 58.855906 
L 182.972677 58.855906 
L 183.063612 57.792 
L 183.092238 57.792 
L 183.177853 54.600282 
L 183.291404 54.600282 
L 183.380815 51.7632 
L 183.460455 51.7632 
L 183.549068 49.990024 
L 183.637266 49.990024 
L 183.71583 48.216847 
L 183.803251 48.216847 
L 183.9131 45.379765 
L 183.990523 45.379765 
L 184.07668 44.315859 
L 184.108322 44.315859 
L 184.207426 41.478776 
L 184.229876 41.478776 
L 184.30154 40.060235 
L 184.404079 40.060235 
L 184.488367 37.932424 
L 184.585493 37.932424 
L 184.673356 36.159247 
L 184.712762 36.159247 
L 184.804387 34.386071 
L 184.839175 34.386071 
L 184.947474 31.548988 
L 184.964745 31.548988 
L 185.029367 30.839718 
L 185.110905 30.839718 
L 185.110905 30.485082 
L 185.226169 30.485082 
L 185.226169 30.130447 
L 185.340732 30.130447 
L 185.387206 29.066541 
L 185.4966 29.066541 
L 185.588671 28.002635 
L 185.767335 28.002635 
L 185.767335 27.648 
L 360.8064 27.648 
L 360.8064 27.648 
" style="fill: none; stroke: #ff00ff; stroke-width: 1.5; stroke-linecap: square"/>
   </g>
   <g id="line2d_40">
    <defs>
     <path id="ma13dc8165d" d="M -0 8.485281 
L 5.091169 0 
L 0 -8.485281 
L -5.091169 -0 
z
" style="stroke: #ff00ff; stroke-width: 1.5; stroke-linejoin: miter"/>
    </defs>
    <g>
     <use xlink:href="#ma13dc8165d" x="146.023332" y="251.777506" style="fill-opacity: 0; stroke: #ff00ff; stroke-width: 1.5; stroke-linejoin: miter"/>
     <use xlink:href="#ma13dc8165d" x="180.554408" y="76.587671" style="fill-opacity: 0; stroke: #ff00ff; stroke-width: 1.5; stroke-linejoin: miter"/>
     <use xlink:href="#ma13dc8165d" x="185.767335" y="28.002635" style="fill-opacity: 0; stroke: #ff00ff; stroke-width: 1.5; stroke-linejoin: miter"/>
     <use xlink:href="#ma13dc8165d" x="185.767335" y="27.648" style="fill-opacity: 0; stroke: #ff00ff; stroke-width: 1.5; stroke-linejoin: miter"/>
     <use xlink:href="#ma13dc8165d" x="360.8064" y="27.648" style="fill-opacity: 0; stroke: #ff00ff; stroke-width: 1.5; stroke-linejoin: miter"/>
    </g>
   </g>
   <g id="line2d_41">
    <path style="fill: none; stroke: #ff00ff; stroke-width: 1.5; stroke-linecap: square"/>
    <g/>
   </g>
   <g id="line2d_42">
    <defs>
     <path id="m166aa6e5d7" d="M 0 1.5 
C 0.397805 1.5 0.77937 1.341951 1.06066 1.06066 
C 1.341951 0.77937 1.5 0.397805 1.5 0 
C 1.5 -0.397805 1.341951 -0.77937 1.06066 -1.06066 
C 0.77937 -1.341951 0.397805 -1.5 0 -1.5 
C -0.397805 -1.5 -0.77937 -1.341951 -1.06066 -1.06066 
C -1.341951 -0.77937 -1.5 -0.397805 -1.5 0 
C -1.5 0.397805 -1.341951 0.77937 -1.06066 1.06066 
C -0.77937 1.341951 -0.397805 1.5 0 1.5 
z
" style="stroke: #ff7500"/>
    </defs>
    <g>
     <use xlink:href="#m166aa6e5d7" x="184.81309" y="27.648" style="fill: #ff7500; stroke: #ff7500"/>
     <use xlink:href="#m166aa6e5d7" x="184.81309" y="27.648" style="fill: #ff7500; stroke: #ff7500"/>
    </g>
   </g>
   <g id="line2d_43">
    <path d="M 27.323974 298.944 
L 27.323974 282.985412 
L 98.510456 282.985412 
L 98.510456 282.630776 
L 98.933205 282.630776 
L 98.933205 282.276141 
L 104.655893 282.276141 
L 104.655893 281.921506 
L 105.559021 281.921506 
L 105.559021 281.566871 
L 106.974091 281.566871 
L 106.974091 280.8576 
L 107.244765 280.8576 
L 107.244765 280.502965 
L 110.449226 280.502965 
L 110.449226 280.148329 
L 113.186449 280.148329 
L 113.186449 279.793694 
L 113.954374 279.793694 
L 113.954374 278.729788 
L 114.510421 278.729788 
L 114.510421 278.375153 
L 115.227139 278.375153 
L 115.227139 277.665882 
L 115.402131 277.665882 
L 115.402131 277.311247 
L 116.419219 277.311247 
L 116.419219 276.601976 
L 116.746385 276.601976 
L 116.746385 275.538071 
L 117.067958 275.538071 
L 117.067958 274.474165 
L 117.384126 274.474165 
L 117.384126 274.119529 
L 117.540239 274.119529 
L 117.540239 273.764894 
L 117.695068 273.764894 
L 117.695068 273.055624 
L 117.848632 273.055624 
L 117.848632 271.991718 
L 118.000953 271.991718 
L 118.000953 271.282447 
L 118.152051 271.282447 
L 118.152051 270.927812 
L 119.459944 270.927812 
L 119.459944 270.573176 
L 120.149089 270.573176 
L 120.149089 270.218541 
L 120.41783 270.218541 
L 120.41783 269.863906 
L 120.944062 269.863906 
L 120.944062 269.509271 
L 121.581803 269.509271 
L 121.581803 269.154635 
L 122.795872 269.154635 
L 122.795872 268.8 
L 123.145323 268.8 
L 123.145323 267.381459 
L 123.374735 267.381459 
L 123.374735 267.026824 
L 123.4884 267.026824 
L 123.4884 265.253647 
L 123.601383 265.253647 
L 123.601383 264.899012 
L 123.713691 264.899012 
L 123.713691 264.544376 
L 124.046648 264.544376 
L 124.156336 263.480471 
L 124.801367 263.480471 
L 124.801367 263.125835 
L 125.322496 263.125835 
L 125.322496 262.7712 
L 125.526971 262.7712 
L 125.526971 262.416565 
L 126.225624 262.416565 
L 126.225624 261.707294 
L 127.18073 261.707294 
L 127.18073 260.998024 
L 128.178203 260.998024 
L 128.266313 259.934118 
L 129.54072 259.934118 
L 129.54072 259.579482 
L 130.186674 259.579482 
L 130.186674 259.224847 
L 131.489828 259.224847 
L 131.489828 258.870212 
L 131.63737 258.870212 
L 131.63737 258.515576 
L 132.428795 258.515576 
L 132.428795 258.160941 
L 132.56918 258.160941 
L 132.56918 257.806306 
L 133.120474 257.806306 
L 133.188264 257.097035 
L 133.523594 257.097035 
L 133.523594 256.7424 
L 133.853052 256.7424 
L 133.853052 256.387765 
L 134.112526 256.387765 
L 134.112526 256.033129 
L 134.304809 256.033129 
L 134.304809 255.678494 
L 134.993495 255.678494 
L 134.993495 255.323859 
L 136.92008 255.323859 
L 136.92008 254.969224 
L 137.466966 254.969224 
L 137.466966 254.614588 
L 140.032723 254.614588 
L 140.126547 253.196047 
L 140.905699 253.196047 
L 140.905699 252.841412 
L 141.128852 252.841412 
L 141.128852 252.486776 
L 141.953481 252.486776 
L 141.953481 252.132141 
L 142.373399 252.132141 
L 142.373399 251.777506 
L 142.661862 251.777506 
L 142.661862 251.422871 
L 143.18612 251.422871 
L 143.18612 251.068235 
L 144.85936 251.068235 
L 144.85936 250.7136 
L 145.076419 250.7136 
L 145.148219 250.004329 
L 145.291002 250.004329 
L 145.291002 249.649694 
L 145.678157 249.649694 
L 145.678157 249.295059 
L 145.816988 249.295059 
L 145.816988 248.940424 
L 146.695245 248.940424 
L 146.695245 248.585788 
L 147.1517 248.585788 
L 147.1517 248.231153 
L 147.343984 248.231153 
L 147.343984 247.876518 
L 147.502732 247.876518 
L 147.502732 247.521882 
L 147.660152 247.521882 
L 147.660152 247.167247 
L 148.03267 247.167247 
L 148.03267 246.812612 
L 148.185734 246.812612 
L 148.246613 245.394071 
L 148.903591 245.394071 
L 148.903591 245.039435 
L 149.049758 245.039435 
L 149.049758 244.6848 
L 149.223672 244.6848 
L 149.252502 243.620894 
L 149.623325 243.620894 
L 149.623325 243.266259 
L 149.903682 243.266259 
L 150.014665 242.556988 
L 150.289291 242.556988 
L 150.289291 242.202353 
L 150.533072 242.202353 
L 150.533072 241.847718 
L 150.747146 241.847718 
L 150.747146 241.138447 
L 151.27191 241.138447 
L 151.32359 240.429176 
L 151.579882 240.429176 
L 151.579882 239.719906 
L 151.757231 239.719906 
L 151.757231 239.365271 
L 151.907925 239.365271 
L 152.007722 238.301365 
L 152.20574 238.301365 
L 152.20574 237.592094 
L 152.401695 237.592094 
L 152.401695 237.237459 
L 152.667844 237.237459 
L 152.667844 236.882824 
L 152.882835 236.882824 
L 152.930279 236.173553 
L 153.118868 236.173553 
L 153.165721 235.464282 
L 153.259079 235.464282 
L 153.328795 234.755012 
L 153.58223 234.755012 
L 153.627945 234.045741 
L 153.764426 234.045741 
L 153.854866 232.981835 
L 154.056781 232.981835 
L 154.056781 232.6272 
L 154.190197 232.6272 
L 154.190197 231.917929 
L 154.388563 231.917929 
L 154.497869 231.208659 
L 154.584859 231.208659 
L 154.693034 229.080847 
L 155.077392 229.080847 
L 155.077392 228.726212 
L 155.22477 228.726212 
L 155.24573 228.016941 
L 155.433326 228.016941 
L 155.516105 226.953035 
L 155.660098 226.953035 
L 155.721473 225.889129 
L 155.802997 225.889129 
L 155.904407 224.115953 
L 155.944819 224.115953 
L 155.944819 223.052047 
L 156.125604 223.052047 
L 156.125604 222.697412 
L 156.403417 222.697412 
L 156.442771 221.988141 
L 156.560344 221.988141 
L 156.657763 221.278871 
L 156.715973 221.278871 
L 156.793307 220.5696 
L 156.8511 220.5696 
L 156.870325 219.860329 
L 157.023421 219.860329 
L 157.04247 219.151059 
L 157.156365 219.151059 
L 157.156365 218.441788 
L 157.269574 218.441788 
L 157.269574 218.087153 
L 157.456756 218.087153 
L 157.512549 217.023247 
L 157.642093 217.023247 
L 157.660526 216.313976 
L 157.789059 216.313976 
L 157.843876 214.895435 
L 157.916719 214.895435 
L 157.971166 213.476894 
L 158.043518 213.476894 
L 158.133569 212.767624 
L 158.223191 212.767624 
L 158.294582 211.703718 
L 158.347948 211.703718 
L 158.347948 210.994447 
L 158.489522 210.994447 
L 158.595008 210.285176 
L 158.630038 210.285176 
L 158.734741 208.866635 
L 158.821551 208.866635 
L 158.838864 208.157365 
L 158.959618 208.157365 
L 159.045398 205.674918 
L 159.079601 205.674918 
L 159.079601 205.320282 
L 159.334159 205.320282 
L 159.401463 203.547106 
L 159.618554 203.547106 
L 159.651731 202.837835 
L 159.734419 202.837835 
L 159.833168 200.710024 
L 159.964032 200.710024 
L 160.061585 198.582212 
L 160.093991 198.582212 
L 160.190875 196.809035 
L 160.223059 196.809035 
L 160.303279 195.745129 
L 160.335271 195.745129 
L 160.415015 193.262682 
L 160.494422 193.262682 
L 160.573496 192.553412 
L 160.620781 192.553412 
L 160.667947 190.780235 
L 160.777545 190.780235 
L 160.886507 189.007059 
L 160.902022 189.007059 
L 160.933013 187.943153 
L 161.102557 187.943153 
L 161.194395 185.815341 
L 161.224909 185.815341 
L 161.331318 184.042165 
L 161.34647 184.042165 
L 161.406958 182.623624 
L 161.467251 182.623624 
L 161.55733 181.205082 
L 161.602209 181.205082 
L 161.706511 179.431906 
L 161.721364 179.431906 
L 161.810238 178.013365 
L 161.88398 178.013365 
L 161.97209 176.594824 
L 162.001369 176.594824 
L 162.074367 173.757741 
L 162.132562 173.757741 
L 162.233972 172.3392 
L 162.277267 172.3392 
L 162.334839 170.566024 
L 162.420867 170.566024 
L 162.492258 169.502118 
L 162.534963 169.502118 
L 162.620084 167.374306 
L 162.648372 167.374306 
L 162.732982 164.891859 
L 162.761101 164.891859 
L 162.859187 162.054776 
L 162.901068 162.054776 
L 162.970663 160.636235 
L 163.067666 160.636235 
L 163.177917 157.444518 
L 163.260183 157.444518 
L 163.342092 155.316706 
L 163.3965 155.316706 
L 163.504846 152.479624 
L 163.518345 152.479624 
L 163.59914 149.997176 
L 163.65281 149.997176 
L 163.746367 145.741553 
L 163.812909 145.741553 
L 163.91889 143.259106 
L 163.95848 143.259106 
L 164.050532 139.712753 
L 164.116009 139.712753 
L 164.194282 137.939576 
L 164.233297 137.939576 
L 164.285191 137.230306 
L 164.414303 137.230306 
L 164.516958 134.747859 
L 164.55531 134.747859 
L 164.657201 132.265412 
L 164.70794 132.265412 
L 164.80901 130.492235 
L 164.834193 130.492235 
L 164.909539 126.945882 
L 164.9471 126.945882 
L 164.997064 126.236612 
L 165.071763 126.236612 
L 165.170902 124.818071 
L 165.207944 124.818071 
L 165.30637 123.044894 
L 165.367626 123.044894 
L 165.477385 120.917082 
L 165.50169 120.917082 
L 165.598594 118.08 
L 165.622743 118.08 
L 165.731028 114.888282 
L 165.755007 114.888282 
L 165.862536 111.696565 
L 165.886348 111.696565 
L 165.969454 109.214118 
L 166.028591 109.214118 
L 166.122826 108.150212 
L 166.146311 108.150212 
L 166.239959 102.476047 
L 166.309891 102.476047 
L 166.379563 98.929694 
L 166.448979 98.929694 
L 166.518139 96.801882 
L 166.564105 96.801882 
L 166.609959 95.383341 
L 166.678531 95.383341 
L 166.689935 94.674071 
L 166.792265 94.674071 
L 166.894041 90.418447 
L 166.927844 90.418447 
L 167.006483 87.936 
L 167.084795 87.936 
L 167.15166 86.517459 
L 167.196106 86.517459 
L 167.295726 82.971106 
L 167.361848 82.971106 
L 167.460596 82.261835 
L 167.48247 82.261835 
L 167.569712 79.779388 
L 167.613182 79.779388 
L 167.721419 76.942306 
L 167.786064 76.942306 
L 167.893313 72.686682 
L 167.925369 72.686682 
L 168.021211 70.204235 
L 168.063651 70.204235 
L 168.116567 68.785694 
L 168.200924 68.785694 
L 168.295375 67.721788 
L 168.358081 67.721788 
L 168.399768 65.593976 
L 168.4725 65.593976 
L 168.4725 65.239341 
L 168.617126 65.239341 
L 168.719753 64.175435 
L 168.760648 64.175435 
L 168.760648 63.466165 
L 168.903083 63.466165 
L 168.903083 63.111529 
L 169.034386 63.111529 
L 169.034386 62.756894 
L 169.174771 62.756894 
L 169.174771 62.047624 
L 169.442591 62.047624 
L 169.442591 60.629082 
L 169.638546 60.629082 
L 169.638546 60.274447 
L 169.803519 60.274447 
L 169.803519 59.919812 
L 170.138678 59.919812 
L 170.138678 59.210541 
L 170.570284 59.210541 
L 170.570284 58.501271 
L 170.690486 58.501271 
L 170.690486 58.146635 
L 171.660461 58.146635 
L 171.660461 57.792 
L 172.348032 57.792 
L 172.348032 57.437365 
L 173.213936 57.437365 
L 173.213936 57.082729 
L 173.667825 57.082729 
L 173.667825 56.728094 
L 173.933441 56.728094 
L 173.933441 56.373459 
L 175.091672 56.373459 
L 175.091672 56.018824 
L 175.495771 56.018824 
L 175.495771 55.664188 
L 175.982031 55.664188 
L 175.982031 55.309553 
L 176.313034 55.309553 
L 176.313034 54.954918 
L 176.911772 54.954918 
L 176.94485 54.245647 
L 177.285458 54.245647 
L 177.285458 53.891012 
L 177.46634 53.891012 
L 177.530521 53.181741 
L 177.804033 53.181741 
L 177.804033 52.827106 
L 178.123358 52.827106 
L 178.123358 52.472471 
L 178.370071 52.472471 
L 178.425138 51.7632 
L 178.540864 51.7632 
L 178.565137 51.053929 
L 178.931471 51.053929 
L 178.931471 50.699294 
L 179.091369 50.699294 
L 179.091369 50.344659 
L 179.232368 50.344659 
L 179.279134 49.635388 
L 179.407144 49.635388 
L 179.436116 48.571482 
L 179.568815 48.571482 
L 179.568815 48.216847 
L 179.842775 48.216847 
L 179.859766 47.152941 
L 179.961389 47.152941 
L 180.051262 46.089035 
L 180.168573 46.089035 
L 180.168573 45.7344 
L 180.296222 45.7344 
L 180.296222 45.379765 
L 180.576218 45.379765 
L 180.619764 44.315859 
L 180.830615 44.315859 
L 180.89502 42.542682 
L 181.113421 42.542682 
L 181.208509 40.414871 
L 181.423321 40.414871 
L 181.527223 39.350965 
L 181.563454 39.350965 
L 181.563454 38.996329 
L 181.743569 38.996329 
L 181.743569 38.287059 
L 181.997921 38.287059 
L 181.997921 37.577788 
L 182.158919 37.577788 
L 182.233915 36.159247 
L 182.833029 36.159247 
L 182.943869 35.449976 
L 183.08747 35.449976 
L 183.08747 34.740706 
L 183.30555 34.740706 
L 183.357327 33.6768 
L 183.52579 33.6768 
L 183.52579 31.194353 
L 183.835357 31.194353 
L 183.835357 30.839718 
L 184.225388 30.839718 
L 184.225388 30.130447 
L 184.368477 30.130447 
L 184.475083 28.711906 
L 184.616292 28.711906 
L 184.708387 28.002635 
L 184.81309 28.002635 
L 184.81309 27.648 
L 360.8064 27.648 
L 360.8064 27.648 
" style="fill: none; stroke: #ff7500; stroke-width: 1.5; stroke-linecap: square"/>
   </g>
   <g id="line2d_44">
    <defs>
     <path id="m330d898782" d="M 0 -6 
L -1.347084 -1.854102 
L -5.706339 -1.854102 
L -2.179628 0.708204 
L -3.526712 4.854102 
L -0 2.291796 
L 3.526712 4.854102 
L 2.179628 0.708204 
L 5.706339 -1.854102 
L 1.347084 -1.854102 
z
" style="stroke: #ff7500; stroke-width: 1.5; stroke-linejoin: bevel"/>
    </defs>
    <g>
     <use xlink:href="#m330d898782" x="153.627945" y="234.400376" style="fill-opacity: 0; stroke: #ff7500; stroke-width: 1.5; stroke-linejoin: bevel"/>
     <use xlink:href="#m330d898782" x="175.091672" y="56.018824" style="fill-opacity: 0; stroke: #ff7500; stroke-width: 1.5; stroke-linejoin: bevel"/>
     <use xlink:href="#m330d898782" x="184.81309" y="27.648" style="fill-opacity: 0; stroke: #ff7500; stroke-width: 1.5; stroke-linejoin: bevel"/>
     <use xlink:href="#m330d898782" x="184.81309" y="27.648" style="fill-opacity: 0; stroke: #ff7500; stroke-width: 1.5; stroke-linejoin: bevel"/>
     <use xlink:href="#m330d898782" x="184.81309" y="27.648" style="fill-opacity: 0; stroke: #ff7500; stroke-width: 1.5; stroke-linejoin: bevel"/>
     <use xlink:href="#m330d898782" x="360.8064" y="27.648" style="fill-opacity: 0; stroke: #ff7500; stroke-width: 1.5; stroke-linejoin: bevel"/>
    </g>
   </g>
   <g id="line2d_45">
    <path style="fill: none; stroke: #ff7500; stroke-width: 1.5; stroke-linecap: square"/>
    <g/>
   </g>
   <g id="line2d_46">
    <path d="M 360.8064 27.648 
L 380.514816 293.51808 
" style="fill: none; stroke: #000080; stroke-width: 1.5; stroke-linecap: square"/>
    <g>
     <use xlink:href="#mab3e31169c" x="360.8064" y="27.648" style="fill-opacity: 0; stroke: #000080; stroke-width: 1.5"/>
     <use xlink:href="#mab3e31169c" x="380.514816" y="293.51808" style="fill-opacity: 0; stroke: #000080; stroke-width: 1.5"/>
    </g>
   </g>
   <g id="line2d_47">
    <path d="M 360.8064 27.648 
L 380.514816 206.70336 
" style="fill: none; stroke: #ff00ff; stroke-width: 1.5; stroke-linecap: square"/>
    <g>
     <use xlink:href="#ma13dc8165d" x="360.8064" y="27.648" style="fill-opacity: 0; stroke: #ff00ff; stroke-width: 1.5; stroke-linejoin: miter"/>
     <use xlink:href="#ma13dc8165d" x="380.514816" y="206.70336" style="fill-opacity: 0; stroke: #ff00ff; stroke-width: 1.5; stroke-linejoin: miter"/>
    </g>
   </g>
   <g id="line2d_48">
    <path d="M 360.8064 27.648 
L 380.514816 119.88864 
" style="fill: none; stroke: #ff7500; stroke-width: 1.5; stroke-linecap: square"/>
    <g>
     <use xlink:href="#m330d898782" x="360.8064" y="27.648" style="fill-opacity: 0; stroke: #ff7500; stroke-width: 1.5; stroke-linejoin: bevel"/>
     <use xlink:href="#m330d898782" x="380.514816" y="119.88864" style="fill-opacity: 0; stroke: #ff7500; stroke-width: 1.5; stroke-linejoin: bevel"/>
    </g>
   </g>
   <g id="line2d_49">
    <path d="M 360.8064 298.944 
L 360.8064 27.648 
" style="fill: none; stroke: #000000; stroke-width: 1.5; stroke-linecap: square"/>
   </g>
   <g id="patch_3">
    <path d="M 57.6 298.944 
L 360.8064 298.944 
" style="fill: none; stroke: #000000; stroke-width: 0.8; stroke-linejoin: miter; stroke-linecap: square"/>
   </g>
   <g id="patch_4">
    <path d="M 57.6 27.648 
L 360.8064 27.648 
" style="fill: none; stroke: #000000; stroke-width: 0.8; stroke-linejoin: miter; stroke-linecap: square"/>
   </g>
   <g id="text_13">
    <!-- cma1 -->
    <g transform="translate(386.578944 297.381205)scale(0.14 -0.14)">
     <use xlink:href="#DejaVuSans-63"/>
     <use xlink:href="#DejaVuSans-6d" x="54.980469"/>
     <use xlink:href="#DejaVuSans-61" x="152.392578"/>
     <use xlink:href="#DejaVuSans-31" x="213.671875"/>
    </g>
   </g>
   <g id="text_14">
    <!-- ddcma1 -->
    <g transform="translate(386.578944 210.566485)scale(0.14 -0.14)">
     <use xlink:href="#DejaVuSans-64"/>
     <use xlink:href="#DejaVuSans-64" x="63.476562"/>
     <use xlink:href="#DejaVuSans-63" x="126.953125"/>
     <use xlink:href="#DejaVuSans-6d" x="181.933594"/>
     <use xlink:href="#DejaVuSans-61" x="279.345703"/>
     <use xlink:href="#DejaVuSans-31" x="340.625"/>
    </g>
   </g>
   <g id="text_15">
    <!-- CMA-ES-20 -->
    <g transform="translate(386.578944 123.751765)scale(0.14 -0.14)">
     <defs>
      <path id="DejaVuSans-43" d="M 4122 4306 
L 4122 3641 
Q 3803 3938 3442 4084 
Q 3081 4231 2675 4231 
Q 1875 4231 1450 3742 
Q 1025 3253 1025 2328 
Q 1025 1406 1450 917 
Q 1875 428 2675 428 
Q 3081 428 3442 575 
Q 3803 722 4122 1019 
L 4122 359 
Q 3791 134 3420 21 
Q 3050 -91 2638 -91 
Q 1578 -91 968 557 
Q 359 1206 359 2328 
Q 359 3453 968 4101 
Q 1578 4750 2638 4750 
Q 3056 4750 3426 4639 
Q 3797 4528 4122 4306 
z
" transform="scale(0.015625)"/>
      <path id="DejaVuSans-4d" d="M 628 4666 
L 1569 4666 
L 2759 1491 
L 3956 4666 
L 4897 4666 
L 4897 0 
L 4281 0 
L 4281 4097 
L 3078 897 
L 2444 897 
L 1241 4097 
L 1241 0 
L 628 0 
L 628 4666 
z
" transform="scale(0.015625)"/>
      <path id="DejaVuSans-41" d="M 2188 4044 
L 1331 1722 
L 3047 1722 
L 2188 4044 
z
M 1831 4666 
L 2547 4666 
L 4325 0 
L 3669 0 
L 3244 1197 
L 1141 1197 
L 716 0 
L 50 0 
L 1831 4666 
z
" transform="scale(0.015625)"/>
      <path id="DejaVuSans-45" d="M 628 4666 
L 3578 4666 
L 3578 4134 
L 1259 4134 
L 1259 2753 
L 3481 2753 
L 3481 2222 
L 1259 2222 
L 1259 531 
L 3634 531 
L 3634 0 
L 628 0 
L 628 4666 
z
" transform="scale(0.015625)"/>
      <path id="DejaVuSans-53" d="M 3425 4513 
L 3425 3897 
Q 3066 4069 2747 4153 
Q 2428 4238 2131 4238 
Q 1616 4238 1336 4038 
Q 1056 3838 1056 3469 
Q 1056 3159 1242 3001 
Q 1428 2844 1947 2747 
L 2328 2669 
Q 3034 2534 3370 2195 
Q 3706 1856 3706 1288 
Q 3706 609 3251 259 
Q 2797 -91 1919 -91 
Q 1588 -91 1214 -16 
Q 841 59 441 206 
L 441 856 
Q 825 641 1194 531 
Q 1563 422 1919 422 
Q 2459 422 2753 634 
Q 3047 847 3047 1241 
Q 3047 1584 2836 1778 
Q 2625 1972 2144 2069 
L 1759 2144 
Q 1053 2284 737 2584 
Q 422 2884 422 3419 
Q 422 4038 858 4394 
Q 1294 4750 2059 4750 
Q 2388 4750 2728 4690 
Q 3069 4631 3425 4513 
z
" transform="scale(0.015625)"/>
     </defs>
     <use xlink:href="#DejaVuSans-43"/>
     <use xlink:href="#DejaVuSans-4d" x="69.824219"/>
     <use xlink:href="#DejaVuSans-41" x="156.103516"/>
     <use xlink:href="#DejaVuSans-2d" x="222.261719"/>
     <use xlink:href="#DejaVuSans-45" x="258.345703"/>
     <use xlink:href="#DejaVuSans-53" x="321.529297"/>
     <use xlink:href="#DejaVuSans-2d" x="385.005859"/>
     <use xlink:href="#DejaVuSans-32" x="421.089844"/>
     <use xlink:href="#DejaVuSans-30" x="484.712891"/>
    </g>
   </g>
   <g id="text_16">
    <!-- best 2009 -->
    <g transform="translate(386.578944 36.937045)scale(0.14 -0.14)">
     <defs>
      <path id="DejaVuSans-62" d="M 3116 1747 
Q 3116 2381 2855 2742 
Q 2594 3103 2138 3103 
Q 1681 3103 1420 2742 
Q 1159 2381 1159 1747 
Q 1159 1113 1420 752 
Q 1681 391 2138 391 
Q 2594 391 2855 752 
Q 3116 1113 3116 1747 
z
M 1159 2969 
Q 1341 3281 1617 3432 
Q 1894 3584 2278 3584 
Q 2916 3584 3314 3078 
Q 3713 2572 3713 1747 
Q 3713 922 3314 415 
Q 2916 -91 2278 -91 
Q 1894 -91 1617 61 
Q 1341 213 1159 525 
L 1159 0 
L 581 0 
L 581 4863 
L 1159 4863 
L 1159 2969 
z
" transform="scale(0.015625)"/>
      <path id="DejaVuSans-39" d="M 703 97 
L 703 672 
Q 941 559 1184 500 
Q 1428 441 1663 441 
Q 2288 441 2617 861 
Q 2947 1281 2994 2138 
Q 2813 1869 2534 1725 
Q 2256 1581 1919 1581 
Q 1219 1581 811 2004 
Q 403 2428 403 3163 
Q 403 3881 828 4315 
Q 1253 4750 1959 4750 
Q 2769 4750 3195 4129 
Q 3622 3509 3622 2328 
Q 3622 1225 3098 567 
Q 2575 -91 1691 -91 
Q 1453 -91 1209 -44 
Q 966 3 703 97 
z
M 1959 2075 
Q 2384 2075 2632 2365 
Q 2881 2656 2881 3163 
Q 2881 3666 2632 3958 
Q 2384 4250 1959 4250 
Q 1534 4250 1286 3958 
Q 1038 3666 1038 3163 
Q 1038 2656 1286 2365 
Q 1534 2075 1959 2075 
z
" transform="scale(0.015625)"/>
     </defs>
     <use xlink:href="#DejaVuSans-62"/>
     <use xlink:href="#DejaVuSans-65" x="63.476562"/>
     <use xlink:href="#DejaVuSans-73" x="125"/>
     <use xlink:href="#DejaVuSans-74" x="177.099609"/>
     <use xlink:href="#DejaVuSans-20" x="216.308594"/>
     <use xlink:href="#DejaVuSans-32" x="248.095703"/>
     <use xlink:href="#DejaVuSans-30" x="311.71875"/>
     <use xlink:href="#DejaVuSans-30" x="375.341797"/>
     <use xlink:href="#DejaVuSans-39" x="438.964844"/>
    </g>
   </g>
   <g id="text_17">
    <!-- bbob f9, 5-D -->
    <g transform="translate(60.632064 38.111366)scale(0.102 -0.102)">
     <defs>
      <path id="DejaVuSans-35" d="M 691 4666 
L 3169 4666 
L 3169 4134 
L 1269 4134 
L 1269 2991 
Q 1406 3038 1543 3061 
Q 1681 3084 1819 3084 
Q 2600 3084 3056 2656 
Q 3513 2228 3513 1497 
Q 3513 744 3044 326 
Q 2575 -91 1722 -91 
Q 1428 -91 1123 -41 
Q 819 9 494 109 
L 494 744 
Q 775 591 1075 516 
Q 1375 441 1709 441 
Q 2250 441 2565 725 
Q 2881 1009 2881 1497 
Q 2881 1984 2565 2268 
Q 2250 2553 1709 2553 
Q 1456 2553 1204 2497 
Q 953 2441 691 2322 
L 691 4666 
z
" transform="scale(0.015625)"/>
      <path id="DejaVuSans-44" d="M 1259 4147 
L 1259 519 
L 2022 519 
Q 2988 519 3436 956 
Q 3884 1394 3884 2338 
Q 3884 3275 3436 3711 
Q 2988 4147 2022 4147 
L 1259 4147 
z
M 628 4666 
L 1925 4666 
Q 3281 4666 3915 4102 
Q 4550 3538 4550 2338 
Q 4550 1131 3912 565 
Q 3275 0 1925 0 
L 628 0 
L 628 4666 
z
" transform="scale(0.015625)"/>
     </defs>
     <use xlink:href="#DejaVuSans-62"/>
     <use xlink:href="#DejaVuSans-62" x="63.476562"/>
     <use xlink:href="#DejaVuSans-6f" x="126.953125"/>
     <use xlink:href="#DejaVuSans-62" x="188.134766"/>
     <use xlink:href="#DejaVuSans-20" x="251.611328"/>
     <use xlink:href="#DejaVuSans-66" x="283.398438"/>
     <use xlink:href="#DejaVuSans-39" x="318.603516"/>
     <use xlink:href="#DejaVuSans-2c" x="382.226562"/>
     <use xlink:href="#DejaVuSans-20" x="414.013672"/>
     <use xlink:href="#DejaVuSans-35" x="445.800781"/>
     <use xlink:href="#DejaVuSans-2d" x="509.423828"/>
     <use xlink:href="#DejaVuSans-44" x="545.507812"/>
    </g>
    <!-- 51 targets: 100..1e-08 -->
    <g transform="translate(60.632064 49.533135)scale(0.102 -0.102)">
     <defs>
      <path id="DejaVuSans-3a" d="M 750 794 
L 1409 794 
L 1409 0 
L 750 0 
L 750 794 
z
M 750 3309 
L 1409 3309 
L 1409 2516 
L 750 2516 
L 750 3309 
z
" transform="scale(0.015625)"/>
     </defs>
     <use xlink:href="#DejaVuSans-35"/>
     <use xlink:href="#DejaVuSans-31" x="63.623047"/>
     <use xlink:href="#DejaVuSans-20" x="127.246094"/>
     <use xlink:href="#DejaVuSans-74" x="159.033203"/>
     <use xlink:href="#DejaVuSans-61" x="198.242188"/>
     <use xlink:href="#DejaVuSans-72" x="259.521484"/>
     <use xlink:href="#DejaVuSans-67" x="298.884766"/>
     <use xlink:href="#DejaVuSans-65" x="362.361328"/>
     <use xlink:href="#DejaVuSans-74" x="423.884766"/>
     <use xlink:href="#DejaVuSans-73" x="463.09375"/>
     <use xlink:href="#DejaVuSans-3a" x="515.193359"/>
     <use xlink:href="#DejaVuSans-20" x="548.884766"/>
     <use xlink:href="#DejaVuSans-31" x="580.671875"/>
     <use xlink:href="#DejaVuSans-30" x="644.294922"/>
     <use xlink:href="#DejaVuSans-30" x="707.917969"/>
     <use xlink:href="#DejaVuSans-2e" x="771.541016"/>
     <use xlink:href="#DejaVuSans-2e" x="803.328125"/>
     <use xlink:href="#DejaVuSans-31" x="835.115234"/>
     <use xlink:href="#DejaVuSans-65" x="898.738281"/>
     <use xlink:href="#DejaVuSans-2d" x="960.261719"/>
     <use xlink:href="#DejaVuSans-30" x="996.345703"/>
     <use xlink:href="#DejaVuSans-38" x="1059.96875"/>
    </g>
    <!-- 15 instances -->
    <g transform="translate(60.632064 60.954904)scale(0.102 -0.102)">
     <use xlink:href="#DejaVuSans-31"/>
     <use xlink:href="#DejaVuSans-35" x="63.623047"/>
     <use xlink:href="#DejaVuSans-20" x="127.246094"/>
     <use xlink:href="#DejaVuSans-69" x="159.033203"/>
     <use xlink:href="#DejaVuSans-6e" x="186.816406"/>
     <use xlink:href="#DejaVuSans-73" x="250.195312"/>
     <use xlink:href="#DejaVuSans-74" x="302.294922"/>
     <use xlink:href="#DejaVuSans-61" x="341.503906"/>
     <use xlink:href="#DejaVuSans-6e" x="402.783203"/>
     <use xlink:href="#DejaVuSans-63" x="466.162109"/>
     <use xlink:href="#DejaVuSans-65" x="521.142578"/>
     <use xlink:href="#DejaVuSans-73" x="582.666016"/>
    </g>
   </g>
   <g id="text_18">
    <!-- v2.6 -->
    <g style="fill: #808080" transform="translate(198.292262 294.151352)scale(0.1 -0.1)">
     <use xlink:href="#DejaVuSans-76"/>
     <use xlink:href="#DejaVuSans-32" x="59.179688"/>
     <use xlink:href="#DejaVuSans-2e" x="122.802734"/>
     <use xlink:href="#DejaVuSans-36" x="154.589844"/>
    </g>
   </g>
   <g id="text_19">
    <!-- 9 Rosenbrock rotated -->
    <g transform="translate(102.050075 21.648)scale(0.2 -0.2)">
     <defs>
      <path id="DejaVuSans-52" d="M 2841 2188 
Q 3044 2119 3236 1894 
Q 3428 1669 3622 1275 
L 4263 0 
L 3584 0 
L 2988 1197 
Q 2756 1666 2539 1819 
Q 2322 1972 1947 1972 
L 1259 1972 
L 1259 0 
L 628 0 
L 628 4666 
L 2053 4666 
Q 2853 4666 3247 4331 
Q 3641 3997 3641 3322 
Q 3641 2881 3436 2590 
Q 3231 2300 2841 2188 
z
M 1259 4147 
L 1259 2491 
L 2053 2491 
Q 2509 2491 2742 2702 
Q 2975 2913 2975 3322 
Q 2975 3731 2742 3939 
Q 2509 4147 2053 4147 
L 1259 4147 
z
" transform="scale(0.015625)"/>
      <path id="DejaVuSans-6b" d="M 581 4863 
L 1159 4863 
L 1159 1991 
L 2875 3500 
L 3609 3500 
L 1753 1863 
L 3688 0 
L 2938 0 
L 1159 1709 
L 1159 0 
L 581 0 
L 581 4863 
z
" transform="scale(0.015625)"/>
     </defs>
     <use xlink:href="#DejaVuSans-39"/>
     <use xlink:href="#DejaVuSans-20" x="63.623047"/>
     <use xlink:href="#DejaVuSans-52" x="95.410156"/>
     <use xlink:href="#DejaVuSans-6f" x="160.392578"/>
     <use xlink:href="#DejaVuSans-73" x="221.574219"/>
     <use xlink:href="#DejaVuSans-65" x="273.673828"/>
     <use xlink:href="#DejaVuSans-6e" x="335.197266"/>
     <use xlink:href="#DejaVuSans-62" x="398.576172"/>
     <use xlink:href="#DejaVuSans-72" x="462.052734"/>
     <use xlink:href="#DejaVuSans-6f" x="500.916016"/>
     <use xlink:href="#DejaVuSans-63" x="562.097656"/>
     <use xlink:href="#DejaVuSans-6b" x="617.078125"/>
     <use xlink:href="#DejaVuSans-20" x="674.988281"/>
     <use xlink:href="#DejaVuSans-72" x="706.775391"/>
     <use xlink:href="#DejaVuSans-6f" x="745.638672"/>
     <use xlink:href="#DejaVuSans-74" x="806.820312"/>
     <use xlink:href="#DejaVuSans-61" x="846.029297"/>
     <use xlink:href="#DejaVuSans-74" x="907.308594"/>
     <use xlink:href="#DejaVuSans-65" x="946.517578"/>
     <use xlink:href="#DejaVuSans-64" x="1008.041016"/>
    </g>
   </g>
  </g>
 </g>
 <defs>
  <clipPath id="p9004bb7d50">
   <rect x="57.6" y="27.648" width="303.2064" height="271.296"/>
  </clipPath>
 </defs>
</svg>
