<?xml version="1.0" encoding="utf-8" standalone="no"?>
<!DOCTYPE svg PUBLIC "-//W3C//DTD SVG 1.1//EN"
  "http://www.w3.org/Graphics/SVG/1.1/DTD/svg11.dtd">
<svg xmlns:xlink="http://www.w3.org/1999/xlink" width="460.8pt" height="345.6pt" viewBox="0 0 460.8 345.6" xmlns="http://www.w3.org/2000/svg" version="1.1">
 <metadata>
  <rdf:RDF xmlns:dc="http://purl.org/dc/elements/1.1/" xmlns:cc="http://creativecommons.org/ns#" xmlns:rdf="http://www.w3.org/1999/02/22-rdf-syntax-ns#">
   <cc:Work>
    <dc:type rdf:resource="http://purl.org/dc/dcmitype/StillImage"/>
    <dc:date>2022-03-28T13:44:47.801331</dc:date>
    <dc:format>image/svg+xml</dc:format>
    <dc:creator>
     <cc:Agent>
      <dc:title>Matplotlib v3.5.1, https://matplotlib.org/</dc:title>
     </cc:Agent>
    </dc:creator>
   </cc:Work>
  </rdf:RDF>
 </metadata>
 <defs>
  <style type="text/css">*{stroke-linejoin: round; stroke-linecap: butt}</style>
 </defs>
 <g id="figure_1">
  <g id="patch_1">
   <path d="M 0 345.6 
L 460.8 345.6 
L 460.8 0 
L 0 0 
z
" style="fill: #ffffff"/>
  </g>
  <g id="axes_1">
   <g id="patch_2">
    <path d="M 57.6 298.944 
L 360.8064 298.944 
L 360.8064 27.648 
L 57.6 27.648 
z
" style="fill: #ffffff"/>
   </g>
   <g id="line2d_1">
    <path d="M 108.542628 298.944 
L 108.542628 293.624471 
L 109.280431 293.624471 
L 109.280431 288.304941 
L 110.221204 288.304941 
L 110.221204 282.985412 
L 110.449226 282.985412 
L 110.449226 267.026824 
L 110.897141 267.026824 
L 110.897141 261.707294 
L 111.334639 261.707294 
L 111.334639 240.429176 
L 111.54963 240.429176 
L 111.54963 208.512 
L 111.762192 208.512 
L 111.762192 176.594824 
L 111.97238 176.594824 
L 111.97238 149.997176 
L 112.180244 149.997176 
L 112.180244 118.08 
L 112.385837 118.08 
L 112.385837 102.121412 
L 112.589207 102.121412 
L 112.589207 64.884706 
L 112.790402 64.884706 
L 112.790402 43.606588 
L 112.989468 43.606588 
L 112.989468 27.648 
L 360.8064 27.648 
" style="fill: none; stroke: #f5deb3; stroke-width: 4; stroke-linecap: square"/>
   </g>
   <g id="line2d_2">
    <defs>
     <path id="m0e1bfce189" d="M -0 7.778175 
L 7.778175 0 
L 0 -7.778175 
L -7.778175 -0 
z
" style="stroke: #f5deb3; stroke-width: 1.5; stroke-linejoin: miter"/>
    </defs>
    <g>
     <use xlink:href="#m0e1bfce189" x="112.180244" y="118.08" style="fill: #f5deb3; stroke: #f5deb3; stroke-width: 1.5; stroke-linejoin: miter"/>
     <use xlink:href="#m0e1bfce189" x="112.989468" y="43.606588" style="fill: #f5deb3; stroke: #f5deb3; stroke-width: 1.5; stroke-linejoin: miter"/>
     <use xlink:href="#m0e1bfce189" x="112.989468" y="27.648" style="fill: #f5deb3; stroke: #f5deb3; stroke-width: 1.5; stroke-linejoin: miter"/>
     <use xlink:href="#m0e1bfce189" x="112.989468" y="27.648" style="fill: #f5deb3; stroke: #f5deb3; stroke-width: 1.5; stroke-linejoin: miter"/>
     <use xlink:href="#m0e1bfce189" x="360.8064" y="27.648" style="fill: #f5deb3; stroke: #f5deb3; stroke-width: 1.5; stroke-linejoin: miter"/>
    </g>
   </g>
   <g id="line2d_3">
    <path style="fill: none; stroke: #f5deb3; stroke-width: 4; stroke-linecap: square"/>
    <g/>
   </g>
   <g id="line2d_4">
    <path d="M 360.8064 27.648 
L 380.514816 33.07392 
" style="fill: none; stroke: #f5deb3; stroke-width: 4; stroke-linecap: square"/>
    <g>
     <use xlink:href="#m0e1bfce189" x="360.8064" y="27.648" style="fill: #f5deb3; stroke: #f5deb3; stroke-width: 1.5; stroke-linejoin: miter"/>
     <use xlink:href="#m0e1bfce189" x="380.514816" y="33.07392" style="fill: #f5deb3; stroke: #f5deb3; stroke-width: 1.5; stroke-linejoin: miter"/>
    </g>
   </g>
   <g id="matplotlib.axis_1">
    <g id="xtick_1">
     <g id="line2d_5">
      <path d="M 57.6 298.944 
L 57.6 27.648 
" clip-path="url(#pd3d2f8dfdb)" style="fill: none; stroke: #b0b0b0; stroke-width: 0.8; stroke-linecap: square"/>
     </g>
     <g id="line2d_6">
      <defs>
       <path id="mb6c24cdfea" d="M 0 0 
L 0 3.5 
" style="stroke: #000000; stroke-width: 0.8"/>
      </defs>
      <g>
       <use xlink:href="#mb6c24cdfea" x="57.6" y="298.944" style="stroke: #000000; stroke-width: 0.8"/>
      </g>
     </g>
     <g id="text_1">
      <!-- 0 -->
      <g transform="translate(52.191875 318.861344)scale(0.17 -0.17)">
       <defs>
        <path id="DejaVuSans-30" d="M 2034 4250 
Q 1547 4250 1301 3770 
Q 1056 3291 1056 2328 
Q 1056 1369 1301 889 
Q 1547 409 2034 409 
Q 2525 409 2770 889 
Q 3016 1369 3016 2328 
Q 3016 3291 2770 3770 
Q 2525 4250 2034 4250 
z
M 2034 4750 
Q 2819 4750 3233 4129 
Q 3647 3509 3647 2328 
Q 3647 1150 3233 529 
Q 2819 -91 2034 -91 
Q 1250 -91 836 529 
Q 422 1150 422 2328 
Q 422 3509 836 4129 
Q 1250 4750 2034 4750 
z
" transform="scale(0.015625)"/>
       </defs>
       <use xlink:href="#DejaVuSans-30"/>
      </g>
     </g>
    </g>
    <g id="xtick_2">
     <g id="line2d_7">
      <path d="M 144.2304 298.944 
L 144.2304 27.648 
" clip-path="url(#pd3d2f8dfdb)" style="fill: none; stroke: #b0b0b0; stroke-width: 0.8; stroke-linecap: square"/>
     </g>
     <g id="line2d_8">
      <g>
       <use xlink:href="#mb6c24cdfea" x="144.2304" y="298.944" style="stroke: #000000; stroke-width: 0.8"/>
      </g>
     </g>
     <g id="text_2">
      <!-- 2 -->
      <g transform="translate(138.822275 318.861344)scale(0.17 -0.17)">
       <defs>
        <path id="DejaVuSans-32" d="M 1228 531 
L 3431 531 
L 3431 0 
L 469 0 
L 469 531 
Q 828 903 1448 1529 
Q 2069 2156 2228 2338 
Q 2531 2678 2651 2914 
Q 2772 3150 2772 3378 
Q 2772 3750 2511 3984 
Q 2250 4219 1831 4219 
Q 1534 4219 1204 4116 
Q 875 4013 500 3803 
L 500 4441 
Q 881 4594 1212 4672 
Q 1544 4750 1819 4750 
Q 2544 4750 2975 4387 
Q 3406 4025 3406 3419 
Q 3406 3131 3298 2873 
Q 3191 2616 2906 2266 
Q 2828 2175 2409 1742 
Q 1991 1309 1228 531 
z
" transform="scale(0.015625)"/>
       </defs>
       <use xlink:href="#DejaVuSans-32"/>
      </g>
     </g>
    </g>
    <g id="xtick_3">
     <g id="line2d_9">
      <path d="M 230.8608 298.944 
L 230.8608 27.648 
" clip-path="url(#pd3d2f8dfdb)" style="fill: none; stroke: #b0b0b0; stroke-width: 0.8; stroke-linecap: square"/>
     </g>
     <g id="line2d_10">
      <g>
       <use xlink:href="#mb6c24cdfea" x="230.8608" y="298.944" style="stroke: #000000; stroke-width: 0.8"/>
      </g>
     </g>
     <g id="text_3">
      <!-- 4 -->
      <g transform="translate(225.452675 318.861344)scale(0.17 -0.17)">
       <defs>
        <path id="DejaVuSans-34" d="M 2419 4116 
L 825 1625 
L 2419 1625 
L 2419 4116 
z
M 2253 4666 
L 3047 4666 
L 3047 1625 
L 3713 1625 
L 3713 1100 
L 3047 1100 
L 3047 0 
L 2419 0 
L 2419 1100 
L 313 1100 
L 313 1709 
L 2253 4666 
z
" transform="scale(0.015625)"/>
       </defs>
       <use xlink:href="#DejaVuSans-34"/>
      </g>
     </g>
    </g>
    <g id="xtick_4">
     <g id="line2d_11">
      <path d="M 317.4912 298.944 
L 317.4912 27.648 
" clip-path="url(#pd3d2f8dfdb)" style="fill: none; stroke: #b0b0b0; stroke-width: 0.8; stroke-linecap: square"/>
     </g>
     <g id="line2d_12">
      <g>
       <use xlink:href="#mb6c24cdfea" x="317.4912" y="298.944" style="stroke: #000000; stroke-width: 0.8"/>
      </g>
     </g>
     <g id="text_4">
      <!-- 6 -->
      <g transform="translate(312.083075 318.861344)scale(0.17 -0.17)">
       <defs>
        <path id="DejaVuSans-36" d="M 2113 2584 
Q 1688 2584 1439 2293 
Q 1191 2003 1191 1497 
Q 1191 994 1439 701 
Q 1688 409 2113 409 
Q 2538 409 2786 701 
Q 3034 994 3034 1497 
Q 3034 2003 2786 2293 
Q 2538 2584 2113 2584 
z
M 3366 4563 
L 3366 3988 
Q 3128 4100 2886 4159 
Q 2644 4219 2406 4219 
Q 1781 4219 1451 3797 
Q 1122 3375 1075 2522 
Q 1259 2794 1537 2939 
Q 1816 3084 2150 3084 
Q 2853 3084 3261 2657 
Q 3669 2231 3669 1497 
Q 3669 778 3244 343 
Q 2819 -91 2113 -91 
Q 1303 -91 875 529 
Q 447 1150 447 2328 
Q 447 3434 972 4092 
Q 1497 4750 2381 4750 
Q 2619 4750 2861 4703 
Q 3103 4656 3366 4563 
z
" transform="scale(0.015625)"/>
       </defs>
       <use xlink:href="#DejaVuSans-36"/>
      </g>
     </g>
    </g>
    <g id="xtick_5">
     <g id="line2d_13">
      <path d="M 100.9152 298.944 
L 100.9152 27.648 
" clip-path="url(#pd3d2f8dfdb)" style="fill: none; stroke: #b0b0b0; stroke-width: 0.8; stroke-linecap: square"/>
     </g>
     <g id="line2d_14">
      <defs>
       <path id="m792369737e" d="M 0 0 
L 0 2 
" style="stroke: #000000; stroke-width: 0.6"/>
      </defs>
      <g>
       <use xlink:href="#m792369737e" x="100.9152" y="298.944" style="stroke: #000000; stroke-width: 0.6"/>
      </g>
     </g>
    </g>
    <g id="xtick_6">
     <g id="line2d_15">
      <path d="M 187.5456 298.944 
L 187.5456 27.648 
" clip-path="url(#pd3d2f8dfdb)" style="fill: none; stroke: #b0b0b0; stroke-width: 0.8; stroke-linecap: square"/>
     </g>
     <g id="line2d_16">
      <g>
       <use xlink:href="#m792369737e" x="187.5456" y="298.944" style="stroke: #000000; stroke-width: 0.6"/>
      </g>
     </g>
    </g>
    <g id="xtick_7">
     <g id="line2d_17">
      <path d="M 274.176 298.944 
L 274.176 27.648 
" clip-path="url(#pd3d2f8dfdb)" style="fill: none; stroke: #b0b0b0; stroke-width: 0.8; stroke-linecap: square"/>
     </g>
     <g id="line2d_18">
      <g>
       <use xlink:href="#m792369737e" x="274.176" y="298.944" style="stroke: #000000; stroke-width: 0.6"/>
      </g>
     </g>
    </g>
    <g id="xtick_8">
     <g id="line2d_19">
      <path d="M 360.8064 298.944 
L 360.8064 27.648 
" clip-path="url(#pd3d2f8dfdb)" style="fill: none; stroke: #b0b0b0; stroke-width: 0.8; stroke-linecap: square"/>
     </g>
     <g id="line2d_20">
      <g>
       <use xlink:href="#m792369737e" x="360.8064" y="298.944" style="stroke: #000000; stroke-width: 0.6"/>
      </g>
     </g>
    </g>
    <g id="text_5">
     <!-- log10(# f-evals / dimension) -->
     <g transform="translate(88.823278 339.314156)scale(0.17 -0.17)">
      <defs>
       <path id="DejaVuSans-6c" d="M 603 4863 
L 1178 4863 
L 1178 0 
L 603 0 
L 603 4863 
z
" transform="scale(0.015625)"/>
       <path id="DejaVuSans-6f" d="M 1959 3097 
Q 1497 3097 1228 2736 
Q 959 2375 959 1747 
Q 959 1119 1226 758 
Q 1494 397 1959 397 
Q 2419 397 2687 759 
Q 2956 1122 2956 1747 
Q 2956 2369 2687 2733 
Q 2419 3097 1959 3097 
z
M 1959 3584 
Q 2709 3584 3137 3096 
Q 3566 2609 3566 1747 
Q 3566 888 3137 398 
Q 2709 -91 1959 -91 
Q 1206 -91 779 398 
Q 353 888 353 1747 
Q 353 2609 779 3096 
Q 1206 3584 1959 3584 
z
" transform="scale(0.015625)"/>
       <path id="DejaVuSans-67" d="M 2906 1791 
Q 2906 2416 2648 2759 
Q 2391 3103 1925 3103 
Q 1463 3103 1205 2759 
Q 947 2416 947 1791 
Q 947 1169 1205 825 
Q 1463 481 1925 481 
Q 2391 481 2648 825 
Q 2906 1169 2906 1791 
z
M 3481 434 
Q 3481 -459 3084 -895 
Q 2688 -1331 1869 -1331 
Q 1566 -1331 1297 -1286 
Q 1028 -1241 775 -1147 
L 775 -588 
Q 1028 -725 1275 -790 
Q 1522 -856 1778 -856 
Q 2344 -856 2625 -561 
Q 2906 -266 2906 331 
L 2906 616 
Q 2728 306 2450 153 
Q 2172 0 1784 0 
Q 1141 0 747 490 
Q 353 981 353 1791 
Q 353 2603 747 3093 
Q 1141 3584 1784 3584 
Q 2172 3584 2450 3431 
Q 2728 3278 2906 2969 
L 2906 3500 
L 3481 3500 
L 3481 434 
z
" transform="scale(0.015625)"/>
       <path id="DejaVuSans-31" d="M 794 531 
L 1825 531 
L 1825 4091 
L 703 3866 
L 703 4441 
L 1819 4666 
L 2450 4666 
L 2450 531 
L 3481 531 
L 3481 0 
L 794 0 
L 794 531 
z
" transform="scale(0.015625)"/>
       <path id="DejaVuSans-28" d="M 1984 4856 
Q 1566 4138 1362 3434 
Q 1159 2731 1159 2009 
Q 1159 1288 1364 580 
Q 1569 -128 1984 -844 
L 1484 -844 
Q 1016 -109 783 600 
Q 550 1309 550 2009 
Q 550 2706 781 3412 
Q 1013 4119 1484 4856 
L 1984 4856 
z
" transform="scale(0.015625)"/>
       <path id="DejaVuSans-23" d="M 3272 2816 
L 2363 2816 
L 2100 1772 
L 3016 1772 
L 3272 2816 
z
M 2803 4594 
L 2478 3297 
L 3391 3297 
L 3719 4594 
L 4219 4594 
L 3897 3297 
L 4872 3297 
L 4872 2816 
L 3775 2816 
L 3519 1772 
L 4513 1772 
L 4513 1294 
L 3397 1294 
L 3072 0 
L 2572 0 
L 2894 1294 
L 1978 1294 
L 1656 0 
L 1153 0 
L 1478 1294 
L 494 1294 
L 494 1772 
L 1594 1772 
L 1856 2816 
L 850 2816 
L 850 3297 
L 1978 3297 
L 2297 4594 
L 2803 4594 
z
" transform="scale(0.015625)"/>
       <path id="DejaVuSans-20" transform="scale(0.015625)"/>
       <path id="DejaVuSans-66" d="M 2375 4863 
L 2375 4384 
L 1825 4384 
Q 1516 4384 1395 4259 
Q 1275 4134 1275 3809 
L 1275 3500 
L 2222 3500 
L 2222 3053 
L 1275 3053 
L 1275 0 
L 697 0 
L 697 3053 
L 147 3053 
L 147 3500 
L 697 3500 
L 697 3744 
Q 697 4328 969 4595 
Q 1241 4863 1831 4863 
L 2375 4863 
z
" transform="scale(0.015625)"/>
       <path id="DejaVuSans-2d" d="M 313 2009 
L 1997 2009 
L 1997 1497 
L 313 1497 
L 313 2009 
z
" transform="scale(0.015625)"/>
       <path id="DejaVuSans-65" d="M 3597 1894 
L 3597 1613 
L 953 1613 
Q 991 1019 1311 708 
Q 1631 397 2203 397 
Q 2534 397 2845 478 
Q 3156 559 3463 722 
L 3463 178 
Q 3153 47 2828 -22 
Q 2503 -91 2169 -91 
Q 1331 -91 842 396 
Q 353 884 353 1716 
Q 353 2575 817 3079 
Q 1281 3584 2069 3584 
Q 2775 3584 3186 3129 
Q 3597 2675 3597 1894 
z
M 3022 2063 
Q 3016 2534 2758 2815 
Q 2500 3097 2075 3097 
Q 1594 3097 1305 2825 
Q 1016 2553 972 2059 
L 3022 2063 
z
" transform="scale(0.015625)"/>
       <path id="DejaVuSans-76" d="M 191 3500 
L 800 3500 
L 1894 563 
L 2988 3500 
L 3597 3500 
L 2284 0 
L 1503 0 
L 191 3500 
z
" transform="scale(0.015625)"/>
       <path id="DejaVuSans-61" d="M 2194 1759 
Q 1497 1759 1228 1600 
Q 959 1441 959 1056 
Q 959 750 1161 570 
Q 1363 391 1709 391 
Q 2188 391 2477 730 
Q 2766 1069 2766 1631 
L 2766 1759 
L 2194 1759 
z
M 3341 1997 
L 3341 0 
L 2766 0 
L 2766 531 
Q 2569 213 2275 61 
Q 1981 -91 1556 -91 
Q 1019 -91 701 211 
Q 384 513 384 1019 
Q 384 1609 779 1909 
Q 1175 2209 1959 2209 
L 2766 2209 
L 2766 2266 
Q 2766 2663 2505 2880 
Q 2244 3097 1772 3097 
Q 1472 3097 1187 3025 
Q 903 2953 641 2809 
L 641 3341 
Q 956 3463 1253 3523 
Q 1550 3584 1831 3584 
Q 2591 3584 2966 3190 
Q 3341 2797 3341 1997 
z
" transform="scale(0.015625)"/>
       <path id="DejaVuSans-73" d="M 2834 3397 
L 2834 2853 
Q 2591 2978 2328 3040 
Q 2066 3103 1784 3103 
Q 1356 3103 1142 2972 
Q 928 2841 928 2578 
Q 928 2378 1081 2264 
Q 1234 2150 1697 2047 
L 1894 2003 
Q 2506 1872 2764 1633 
Q 3022 1394 3022 966 
Q 3022 478 2636 193 
Q 2250 -91 1575 -91 
Q 1294 -91 989 -36 
Q 684 19 347 128 
L 347 722 
Q 666 556 975 473 
Q 1284 391 1588 391 
Q 1994 391 2212 530 
Q 2431 669 2431 922 
Q 2431 1156 2273 1281 
Q 2116 1406 1581 1522 
L 1381 1569 
Q 847 1681 609 1914 
Q 372 2147 372 2553 
Q 372 3047 722 3315 
Q 1072 3584 1716 3584 
Q 2034 3584 2315 3537 
Q 2597 3491 2834 3397 
z
" transform="scale(0.015625)"/>
       <path id="DejaVuSans-2f" d="M 1625 4666 
L 2156 4666 
L 531 -594 
L 0 -594 
L 1625 4666 
z
" transform="scale(0.015625)"/>
       <path id="DejaVuSans-64" d="M 2906 2969 
L 2906 4863 
L 3481 4863 
L 3481 0 
L 2906 0 
L 2906 525 
Q 2725 213 2448 61 
Q 2172 -91 1784 -91 
Q 1150 -91 751 415 
Q 353 922 353 1747 
Q 353 2572 751 3078 
Q 1150 3584 1784 3584 
Q 2172 3584 2448 3432 
Q 2725 3281 2906 2969 
z
M 947 1747 
Q 947 1113 1208 752 
Q 1469 391 1925 391 
Q 2381 391 2643 752 
Q 2906 1113 2906 1747 
Q 2906 2381 2643 2742 
Q 2381 3103 1925 3103 
Q 1469 3103 1208 2742 
Q 947 2381 947 1747 
z
" transform="scale(0.015625)"/>
       <path id="DejaVuSans-69" d="M 603 3500 
L 1178 3500 
L 1178 0 
L 603 0 
L 603 3500 
z
M 603 4863 
L 1178 4863 
L 1178 4134 
L 603 4134 
L 603 4863 
z
" transform="scale(0.015625)"/>
       <path id="DejaVuSans-6d" d="M 3328 2828 
Q 3544 3216 3844 3400 
Q 4144 3584 4550 3584 
Q 5097 3584 5394 3201 
Q 5691 2819 5691 2113 
L 5691 0 
L 5113 0 
L 5113 2094 
Q 5113 2597 4934 2840 
Q 4756 3084 4391 3084 
Q 3944 3084 3684 2787 
Q 3425 2491 3425 1978 
L 3425 0 
L 2847 0 
L 2847 2094 
Q 2847 2600 2669 2842 
Q 2491 3084 2119 3084 
Q 1678 3084 1418 2786 
Q 1159 2488 1159 1978 
L 1159 0 
L 581 0 
L 581 3500 
L 1159 3500 
L 1159 2956 
Q 1356 3278 1631 3431 
Q 1906 3584 2284 3584 
Q 2666 3584 2933 3390 
Q 3200 3197 3328 2828 
z
" transform="scale(0.015625)"/>
       <path id="DejaVuSans-6e" d="M 3513 2113 
L 3513 0 
L 2938 0 
L 2938 2094 
Q 2938 2591 2744 2837 
Q 2550 3084 2163 3084 
Q 1697 3084 1428 2787 
Q 1159 2491 1159 1978 
L 1159 0 
L 581 0 
L 581 3500 
L 1159 3500 
L 1159 2956 
Q 1366 3272 1645 3428 
Q 1925 3584 2291 3584 
Q 2894 3584 3203 3211 
Q 3513 2838 3513 2113 
z
" transform="scale(0.015625)"/>
       <path id="DejaVuSans-29" d="M 513 4856 
L 1013 4856 
Q 1481 4119 1714 3412 
Q 1947 2706 1947 2009 
Q 1947 1309 1714 600 
Q 1481 -109 1013 -844 
L 513 -844 
Q 928 -128 1133 580 
Q 1338 1288 1338 2009 
Q 1338 2731 1133 3434 
Q 928 4138 513 4856 
z
" transform="scale(0.015625)"/>
      </defs>
      <use xlink:href="#DejaVuSans-6c"/>
      <use xlink:href="#DejaVuSans-6f" x="27.783203"/>
      <use xlink:href="#DejaVuSans-67" x="88.964844"/>
      <use xlink:href="#DejaVuSans-31" x="152.441406"/>
      <use xlink:href="#DejaVuSans-30" x="216.064453"/>
      <use xlink:href="#DejaVuSans-28" x="279.6875"/>
      <use xlink:href="#DejaVuSans-23" x="318.701172"/>
      <use xlink:href="#DejaVuSans-20" x="402.490234"/>
      <use xlink:href="#DejaVuSans-66" x="434.277344"/>
      <use xlink:href="#DejaVuSans-2d" x="463.982422"/>
      <use xlink:href="#DejaVuSans-65" x="500.066406"/>
      <use xlink:href="#DejaVuSans-76" x="561.589844"/>
      <use xlink:href="#DejaVuSans-61" x="620.769531"/>
      <use xlink:href="#DejaVuSans-6c" x="682.048828"/>
      <use xlink:href="#DejaVuSans-73" x="709.832031"/>
      <use xlink:href="#DejaVuSans-20" x="761.931641"/>
      <use xlink:href="#DejaVuSans-2f" x="793.71875"/>
      <use xlink:href="#DejaVuSans-20" x="827.410156"/>
      <use xlink:href="#DejaVuSans-64" x="859.197266"/>
      <use xlink:href="#DejaVuSans-69" x="922.673828"/>
      <use xlink:href="#DejaVuSans-6d" x="950.457031"/>
      <use xlink:href="#DejaVuSans-65" x="1047.869141"/>
      <use xlink:href="#DejaVuSans-6e" x="1109.392578"/>
      <use xlink:href="#DejaVuSans-73" x="1172.771484"/>
      <use xlink:href="#DejaVuSans-69" x="1224.871094"/>
      <use xlink:href="#DejaVuSans-6f" x="1252.654297"/>
      <use xlink:href="#DejaVuSans-6e" x="1313.835938"/>
      <use xlink:href="#DejaVuSans-29" x="1377.214844"/>
     </g>
    </g>
   </g>
   <g id="matplotlib.axis_2">
    <g id="ytick_1">
     <g id="line2d_21">
      <path d="M 57.6 298.944 
L 360.8064 298.944 
" clip-path="url(#pd3d2f8dfdb)" style="fill: none; stroke: #b0b0b0; stroke-width: 0.8; stroke-linecap: square"/>
     </g>
     <g id="line2d_22">
      <defs>
       <path id="m78561e1e4d" d="M 0 0 
L -3.5 0 
" style="stroke: #000000; stroke-width: 0.8"/>
      </defs>
      <g>
       <use xlink:href="#m78561e1e4d" x="57.6" y="298.944" style="stroke: #000000; stroke-width: 0.8"/>
      </g>
     </g>
     <g id="text_6">
      <!-- 0.0 -->
      <g transform="translate(25.155 305.02275)scale(0.16 -0.16)">
       <defs>
        <path id="DejaVuSans-2e" d="M 684 794 
L 1344 794 
L 1344 0 
L 684 0 
L 684 794 
z
" transform="scale(0.015625)"/>
       </defs>
       <use xlink:href="#DejaVuSans-30"/>
       <use xlink:href="#DejaVuSans-2e" x="63.623047"/>
       <use xlink:href="#DejaVuSans-30" x="95.410156"/>
      </g>
     </g>
    </g>
    <g id="ytick_2">
     <g id="line2d_23">
      <path d="M 57.6 244.6848 
L 360.8064 244.6848 
" clip-path="url(#pd3d2f8dfdb)" style="fill: none; stroke: #b0b0b0; stroke-width: 0.8; stroke-linecap: square"/>
     </g>
     <g id="line2d_24">
      <g>
       <use xlink:href="#m78561e1e4d" x="57.6" y="244.6848" style="stroke: #000000; stroke-width: 0.8"/>
      </g>
     </g>
     <g id="text_7">
      <!-- 0.2 -->
      <g transform="translate(25.155 250.76355)scale(0.16 -0.16)">
       <use xlink:href="#DejaVuSans-30"/>
       <use xlink:href="#DejaVuSans-2e" x="63.623047"/>
       <use xlink:href="#DejaVuSans-32" x="95.410156"/>
      </g>
     </g>
    </g>
    <g id="ytick_3">
     <g id="line2d_25">
      <path d="M 57.6 190.4256 
L 360.8064 190.4256 
" clip-path="url(#pd3d2f8dfdb)" style="fill: none; stroke: #b0b0b0; stroke-width: 0.8; stroke-linecap: square"/>
     </g>
     <g id="line2d_26">
      <g>
       <use xlink:href="#m78561e1e4d" x="57.6" y="190.4256" style="stroke: #000000; stroke-width: 0.8"/>
      </g>
     </g>
     <g id="text_8">
      <!-- 0.4 -->
      <g transform="translate(25.155 196.50435)scale(0.16 -0.16)">
       <use xlink:href="#DejaVuSans-30"/>
       <use xlink:href="#DejaVuSans-2e" x="63.623047"/>
       <use xlink:href="#DejaVuSans-34" x="95.410156"/>
      </g>
     </g>
    </g>
    <g id="ytick_4">
     <g id="line2d_27">
      <path d="M 57.6 136.1664 
L 360.8064 136.1664 
" clip-path="url(#pd3d2f8dfdb)" style="fill: none; stroke: #b0b0b0; stroke-width: 0.8; stroke-linecap: square"/>
     </g>
     <g id="line2d_28">
      <g>
       <use xlink:href="#m78561e1e4d" x="57.6" y="136.1664" style="stroke: #000000; stroke-width: 0.8"/>
      </g>
     </g>
     <g id="text_9">
      <!-- 0.6 -->
      <g transform="translate(25.155 142.24515)scale(0.16 -0.16)">
       <use xlink:href="#DejaVuSans-30"/>
       <use xlink:href="#DejaVuSans-2e" x="63.623047"/>
       <use xlink:href="#DejaVuSans-36" x="95.410156"/>
      </g>
     </g>
    </g>
    <g id="ytick_5">
     <g id="line2d_29">
      <path d="M 57.6 81.9072 
L 360.8064 81.9072 
" clip-path="url(#pd3d2f8dfdb)" style="fill: none; stroke: #b0b0b0; stroke-width: 0.8; stroke-linecap: square"/>
     </g>
     <g id="line2d_30">
      <g>
       <use xlink:href="#m78561e1e4d" x="57.6" y="81.9072" style="stroke: #000000; stroke-width: 0.8"/>
      </g>
     </g>
     <g id="text_10">
      <!-- 0.8 -->
      <g transform="translate(25.155 87.98595)scale(0.16 -0.16)">
       <defs>
        <path id="DejaVuSans-38" d="M 2034 2216 
Q 1584 2216 1326 1975 
Q 1069 1734 1069 1313 
Q 1069 891 1326 650 
Q 1584 409 2034 409 
Q 2484 409 2743 651 
Q 3003 894 3003 1313 
Q 3003 1734 2745 1975 
Q 2488 2216 2034 2216 
z
M 1403 2484 
Q 997 2584 770 2862 
Q 544 3141 544 3541 
Q 544 4100 942 4425 
Q 1341 4750 2034 4750 
Q 2731 4750 3128 4425 
Q 3525 4100 3525 3541 
Q 3525 3141 3298 2862 
Q 3072 2584 2669 2484 
Q 3125 2378 3379 2068 
Q 3634 1759 3634 1313 
Q 3634 634 3220 271 
Q 2806 -91 2034 -91 
Q 1263 -91 848 271 
Q 434 634 434 1313 
Q 434 1759 690 2068 
Q 947 2378 1403 2484 
z
M 1172 3481 
Q 1172 3119 1398 2916 
Q 1625 2713 2034 2713 
Q 2441 2713 2670 2916 
Q 2900 3119 2900 3481 
Q 2900 3844 2670 4047 
Q 2441 4250 2034 4250 
Q 1625 4250 1398 4047 
Q 1172 3844 1172 3481 
z
" transform="scale(0.015625)"/>
       </defs>
       <use xlink:href="#DejaVuSans-30"/>
       <use xlink:href="#DejaVuSans-2e" x="63.623047"/>
       <use xlink:href="#DejaVuSans-38" x="95.410156"/>
      </g>
     </g>
    </g>
    <g id="ytick_6">
     <g id="line2d_31">
      <path d="M 57.6 27.648 
L 360.8064 27.648 
" clip-path="url(#pd3d2f8dfdb)" style="fill: none; stroke: #b0b0b0; stroke-width: 0.8; stroke-linecap: square"/>
     </g>
     <g id="line2d_32">
      <g>
       <use xlink:href="#m78561e1e4d" x="57.6" y="27.648" style="stroke: #000000; stroke-width: 0.8"/>
      </g>
     </g>
     <g id="text_11">
      <!-- 1.0 -->
      <g transform="translate(25.155 33.72675)scale(0.16 -0.16)">
       <use xlink:href="#DejaVuSans-31"/>
       <use xlink:href="#DejaVuSans-2e" x="63.623047"/>
       <use xlink:href="#DejaVuSans-30" x="95.410156"/>
      </g>
     </g>
    </g>
    <g id="text_12">
     <!-- Fraction of function,target pairs -->
     <g transform="translate(17.619531 297.681)rotate(-90)scale(0.17 -0.17)">
      <defs>
       <path id="DejaVuSans-46" d="M 628 4666 
L 3309 4666 
L 3309 4134 
L 1259 4134 
L 1259 2759 
L 3109 2759 
L 3109 2228 
L 1259 2228 
L 1259 0 
L 628 0 
L 628 4666 
z
" transform="scale(0.015625)"/>
       <path id="DejaVuSans-72" d="M 2631 2963 
Q 2534 3019 2420 3045 
Q 2306 3072 2169 3072 
Q 1681 3072 1420 2755 
Q 1159 2438 1159 1844 
L 1159 0 
L 581 0 
L 581 3500 
L 1159 3500 
L 1159 2956 
Q 1341 3275 1631 3429 
Q 1922 3584 2338 3584 
Q 2397 3584 2469 3576 
Q 2541 3569 2628 3553 
L 2631 2963 
z
" transform="scale(0.015625)"/>
       <path id="DejaVuSans-63" d="M 3122 3366 
L 3122 2828 
Q 2878 2963 2633 3030 
Q 2388 3097 2138 3097 
Q 1578 3097 1268 2742 
Q 959 2388 959 1747 
Q 959 1106 1268 751 
Q 1578 397 2138 397 
Q 2388 397 2633 464 
Q 2878 531 3122 666 
L 3122 134 
Q 2881 22 2623 -34 
Q 2366 -91 2075 -91 
Q 1284 -91 818 406 
Q 353 903 353 1747 
Q 353 2603 823 3093 
Q 1294 3584 2113 3584 
Q 2378 3584 2631 3529 
Q 2884 3475 3122 3366 
z
" transform="scale(0.015625)"/>
       <path id="DejaVuSans-74" d="M 1172 4494 
L 1172 3500 
L 2356 3500 
L 2356 3053 
L 1172 3053 
L 1172 1153 
Q 1172 725 1289 603 
Q 1406 481 1766 481 
L 2356 481 
L 2356 0 
L 1766 0 
Q 1100 0 847 248 
Q 594 497 594 1153 
L 594 3053 
L 172 3053 
L 172 3500 
L 594 3500 
L 594 4494 
L 1172 4494 
z
" transform="scale(0.015625)"/>
       <path id="DejaVuSans-75" d="M 544 1381 
L 544 3500 
L 1119 3500 
L 1119 1403 
Q 1119 906 1312 657 
Q 1506 409 1894 409 
Q 2359 409 2629 706 
Q 2900 1003 2900 1516 
L 2900 3500 
L 3475 3500 
L 3475 0 
L 2900 0 
L 2900 538 
Q 2691 219 2414 64 
Q 2138 -91 1772 -91 
Q 1169 -91 856 284 
Q 544 659 544 1381 
z
M 1991 3584 
L 1991 3584 
z
" transform="scale(0.015625)"/>
       <path id="DejaVuSans-2c" d="M 750 794 
L 1409 794 
L 1409 256 
L 897 -744 
L 494 -744 
L 750 256 
L 750 794 
z
" transform="scale(0.015625)"/>
       <path id="DejaVuSans-70" d="M 1159 525 
L 1159 -1331 
L 581 -1331 
L 581 3500 
L 1159 3500 
L 1159 2969 
Q 1341 3281 1617 3432 
Q 1894 3584 2278 3584 
Q 2916 3584 3314 3078 
Q 3713 2572 3713 1747 
Q 3713 922 3314 415 
Q 2916 -91 2278 -91 
Q 1894 -91 1617 61 
Q 1341 213 1159 525 
z
M 3116 1747 
Q 3116 2381 2855 2742 
Q 2594 3103 2138 3103 
Q 1681 3103 1420 2742 
Q 1159 2381 1159 1747 
Q 1159 1113 1420 752 
Q 1681 391 2138 391 
Q 2594 391 2855 752 
Q 3116 1113 3116 1747 
z
" transform="scale(0.015625)"/>
      </defs>
      <use xlink:href="#DejaVuSans-46"/>
      <use xlink:href="#DejaVuSans-72" x="50.269531"/>
      <use xlink:href="#DejaVuSans-61" x="91.382812"/>
      <use xlink:href="#DejaVuSans-63" x="152.662109"/>
      <use xlink:href="#DejaVuSans-74" x="207.642578"/>
      <use xlink:href="#DejaVuSans-69" x="246.851562"/>
      <use xlink:href="#DejaVuSans-6f" x="274.634766"/>
      <use xlink:href="#DejaVuSans-6e" x="335.816406"/>
      <use xlink:href="#DejaVuSans-20" x="399.195312"/>
      <use xlink:href="#DejaVuSans-6f" x="430.982422"/>
      <use xlink:href="#DejaVuSans-66" x="492.164062"/>
      <use xlink:href="#DejaVuSans-20" x="527.369141"/>
      <use xlink:href="#DejaVuSans-66" x="559.15625"/>
      <use xlink:href="#DejaVuSans-75" x="594.361328"/>
      <use xlink:href="#DejaVuSans-6e" x="657.740234"/>
      <use xlink:href="#DejaVuSans-63" x="721.119141"/>
      <use xlink:href="#DejaVuSans-74" x="776.099609"/>
      <use xlink:href="#DejaVuSans-69" x="815.308594"/>
      <use xlink:href="#DejaVuSans-6f" x="843.091797"/>
      <use xlink:href="#DejaVuSans-6e" x="904.273438"/>
      <use xlink:href="#DejaVuSans-2c" x="967.652344"/>
      <use xlink:href="#DejaVuSans-74" x="999.439453"/>
      <use xlink:href="#DejaVuSans-61" x="1038.648438"/>
      <use xlink:href="#DejaVuSans-72" x="1099.927734"/>
      <use xlink:href="#DejaVuSans-67" x="1139.291016"/>
      <use xlink:href="#DejaVuSans-65" x="1202.767578"/>
      <use xlink:href="#DejaVuSans-74" x="1264.291016"/>
      <use xlink:href="#DejaVuSans-20" x="1303.5"/>
      <use xlink:href="#DejaVuSans-70" x="1335.287109"/>
      <use xlink:href="#DejaVuSans-61" x="1398.763672"/>
      <use xlink:href="#DejaVuSans-69" x="1460.042969"/>
      <use xlink:href="#DejaVuSans-72" x="1487.826172"/>
      <use xlink:href="#DejaVuSans-73" x="1528.939453"/>
     </g>
    </g>
   </g>
   <g id="line2d_33">
    <defs>
     <path id="mbe06b134d2" d="M 0 1.5 
C 0.397805 1.5 0.77937 1.341951 1.06066 1.06066 
C 1.341951 0.77937 1.5 0.397805 1.5 0 
C 1.5 -0.397805 1.341951 -0.77937 1.06066 -1.06066 
C 0.77937 -1.341951 0.397805 -1.5 0 -1.5 
C -0.397805 -1.5 -0.77937 -1.341951 -1.06066 -1.06066 
C -1.341951 -0.77937 -1.5 -0.397805 -1.5 0 
C -1.5 0.397805 -1.341951 0.77937 -1.06066 1.06066 
C -0.77937 1.341951 -0.397805 1.5 0 1.5 
z
" style="stroke: #f5deb3"/>
    </defs>
    <g>
     <use xlink:href="#mbe06b134d2" x="112.989468" y="27.648" style="fill: #f5deb3; stroke: #f5deb3"/>
     <use xlink:href="#mbe06b134d2" x="112.989468" y="27.648" style="fill: #f5deb3; stroke: #f5deb3"/>
    </g>
   </g>
   <g id="line2d_34">
    <defs>
     <path id="m6f2ddf30fa" d="M 0 1.5 
C 0.397805 1.5 0.77937 1.341951 1.06066 1.06066 
C 1.341951 0.77937 1.5 0.397805 1.5 0 
C 1.5 -0.397805 1.341951 -0.77937 1.06066 -1.06066 
C 0.77937 -1.341951 0.397805 -1.5 0 -1.5 
C -0.397805 -1.5 -0.77937 -1.341951 -1.06066 -1.06066 
C -1.341951 -0.77937 -1.5 -0.397805 -1.5 0 
C -1.5 0.397805 -1.341951 0.77937 -1.06066 1.06066 
C -0.77937 1.341951 -0.397805 1.5 0 1.5 
z
" style="stroke: #000080"/>
    </defs>
    <g>
     <use xlink:href="#m6f2ddf30fa" x="160.126341" y="27.648" style="fill: #000080; stroke: #000080"/>
     <use xlink:href="#m6f2ddf30fa" x="160.126341" y="27.648" style="fill: #000080; stroke: #000080"/>
    </g>
   </g>
   <g id="line2d_35">
    <path d="M 120.149089 298.944 
L 120.149089 298.234729 
L 124.373813 298.234729 
L 124.373813 297.525459 
L 126.323346 297.525459 
L 126.323346 296.461553 
L 126.613505 296.461553 
L 126.709238 295.752282 
L 127.087372 295.752282 
L 127.087372 295.397647 
L 127.273627 295.397647 
L 127.273627 294.333741 
L 127.549596 294.333741 
L 127.549596 293.979106 
L 128.178203 293.979106 
L 128.178203 293.624471 
L 128.614685 293.624471 
L 128.614685 293.269835 
L 128.871795 293.269835 
L 128.871795 292.9152 
L 129.54072 292.9152 
L 129.622688 291.496659 
L 130.107132 291.496659 
L 130.186674 290.787388 
L 130.4233 290.787388 
L 130.501519 290.078118 
L 130.811181 290.078118 
L 130.811181 289.368847 
L 131.341119 289.368847 
L 131.341119 289.014212 
L 131.63737 289.014212 
L 131.71071 288.304941 
L 131.783764 288.304941 
L 131.856536 285.822494 
L 132.001241 285.822494 
L 132.001241 285.467859 
L 132.144842 285.467859 
L 132.216233 284.403953 
L 132.358208 284.403953 
L 132.428795 282.985412 
L 132.777813 282.985412 
L 132.777813 282.630776 
L 132.984158 282.630776 
L 132.984158 281.921506 
L 133.25581 281.921506 
L 133.25581 281.212235 
L 133.390178 281.212235 
L 133.457005 279.793694 
L 133.589949 279.793694 
L 133.589949 278.020518 
L 133.72196 278.020518 
L 133.72196 277.665882 
L 134.047992 277.665882 
L 134.047992 276.247341 
L 134.176839 276.247341 
L 134.176839 275.538071 
L 134.368469 275.538071 
L 134.368469 275.183435 
L 134.495147 275.183435 
L 134.558167 274.119529 
L 134.87014 274.119529 
L 134.87014 273.764894 
L 135.177024 273.764894 
L 135.177024 273.410259 
L 135.35878 273.410259 
L 135.35878 273.055624 
L 135.478982 273.055624 
L 135.478982 272.700988 
L 135.59842 272.700988 
L 135.59842 271.991718 
L 135.835047 271.991718 
L 135.835047 270.218541 
L 135.952253 270.218541 
L 136.010584 269.154635 
L 136.068734 269.154635 
L 136.068734 268.8 
L 136.413909 268.8 
L 136.470828 267.736094 
L 136.584151 267.736094 
L 136.640557 266.317553 
L 136.696795 266.317553 
L 136.696795 265.608282 
L 136.864507 265.608282 
L 136.864507 265.253647 
L 137.140746 265.253647 
L 137.195511 264.189741 
L 137.304564 264.189741 
L 137.304564 263.125835 
L 137.520791 263.125835 
L 137.627979 262.416565 
L 137.840541 262.416565 
L 137.945929 260.998024 
L 138.206842 260.998024 
L 138.206842 260.643388 
L 138.566146 260.643388 
L 138.667556 259.934118 
L 138.968547 259.934118 
L 139.067817 257.451671 
L 139.215746 257.451671 
L 139.313723 256.387765 
L 139.411192 256.387765 
L 139.459738 255.323859 
L 139.652679 255.323859 
L 139.748412 254.259953 
L 139.796097 254.259953 
L 139.843661 253.196047 
L 139.93843 253.196047 
L 139.93843 252.841412 
L 140.079694 252.841412 
L 140.173284 252.132141 
L 140.312801 252.132141 
L 140.359078 251.068235 
L 140.451292 251.068235 
L 140.49723 250.358965 
L 140.634374 250.358965 
L 140.679868 249.649694 
L 140.770526 249.649694 
L 140.860749 246.812612 
L 140.905699 246.812612 
L 140.905699 246.457976 
L 141.084433 246.457976 
L 141.084433 246.103341 
L 141.261484 246.103341 
L 141.261484 245.748706 
L 141.65386 245.748706 
L 141.696956 244.6848 
L 141.782854 244.6848 
L 141.825656 243.620894 
L 141.953481 243.620894 
L 142.038218 241.493082 
L 142.080444 241.493082 
L 142.164612 240.783812 
L 142.248405 240.783812 
L 142.290162 238.301365 
L 142.41488 238.301365 
L 142.45627 237.592094 
L 142.661862 237.592094 
L 142.702713 236.528188 
L 142.824734 236.528188 
L 142.905644 235.109647 
L 143.02636 235.109647 
L 143.10641 234.045741 
L 143.18612 234.045741 
L 143.265494 233.336471 
L 143.305055 233.336471 
L 143.305055 232.981835 
L 143.462475 232.981835 
L 143.462475 232.6272 
L 143.579681 232.6272 
L 143.657415 229.435482 
L 143.696162 229.435482 
L 143.696162 229.080847 
L 143.811926 229.080847 
L 143.850356 228.371576 
L 144.003296 228.371576 
L 144.079302 226.953035 
L 144.117191 226.953035 
L 144.192739 224.825224 
L 144.2304 224.825224 
L 144.305496 224.115953 
L 144.380294 224.115953 
L 144.454795 223.052047 
L 144.491935 223.052047 
L 144.602918 222.342776 
L 144.639767 222.342776 
L 144.71325 220.5696 
L 144.786447 220.5696 
L 144.85936 218.441788 
L 144.931992 218.441788 
L 145.040416 217.023247 
L 145.076419 217.023247 
L 145.148219 214.895435 
L 145.291002 214.895435 
L 145.397382 213.122259 
L 145.432709 213.122259 
L 145.538293 210.639812 
L 145.608355 210.639812 
L 145.712961 209.930541 
L 145.886021 209.930541 
L 145.989098 208.512 
L 146.023332 208.512 
L 146.125662 206.384188 
L 146.193574 206.384188 
L 146.294984 203.192471 
L 146.328666 203.192471 
L 146.429353 201.419294 
L 146.462796 201.419294 
L 146.562769 198.582212 
L 146.595975 198.582212 
L 146.695245 196.4544 
L 146.826795 196.4544 
L 146.924857 193.262682 
L 146.957431 193.262682 
L 147.054816 192.553412 
L 147.087167 192.553412 
L 147.183884 190.070965 
L 147.216013 190.070965 
L 147.312072 187.588518 
L 147.375841 187.588518 
L 147.439393 185.106071 
L 147.502732 185.106071 
L 147.565858 181.914353 
L 147.785146 181.914353 
L 147.816265 179.786541 
L 147.909315 179.786541 
L 147.971093 178.368 
L 148.063382 178.368 
L 148.124658 175.530918 
L 148.185734 175.530918 
L 148.246613 171.984565 
L 148.337564 171.984565 
L 148.428077 168.083576 
L 148.458151 168.083576 
L 148.548087 165.601129 
L 148.874221 165.601129 
L 148.962194 163.827953 
L 148.991428 163.827953 
L 149.078856 163.118682 
L 149.136916 163.118682 
L 149.194798 161.700141 
L 149.281288 161.700141 
L 149.338728 160.2816 
L 149.395993 160.2816 
L 149.395993 158.508424 
L 149.510002 158.508424 
L 149.595059 156.380612 
L 149.623325 156.380612 
L 149.679732 155.316706 
L 149.73597 155.316706 
L 149.820013 153.898165 
L 149.847944 153.898165 
L 149.931489 151.061082 
L 149.959255 151.061082 
L 150.069911 149.287906 
L 150.152479 149.287906 
L 150.234685 145.741553 
L 150.289291 145.741553 
L 150.398028 141.840565 
L 150.452162 141.840565 
L 150.559965 140.422024 
L 150.72052 140.422024 
L 150.8268 135.811765 
L 150.853277 135.811765 
L 150.932483 132.974682 
L 150.985103 132.974682 
L 151.089903 129.428329 
L 151.142085 129.428329 
L 151.246016 128.719059 
L 151.297768 128.719059 
L 151.375128 126.236612 
L 151.426526 126.236612 
L 151.50336 124.1088 
L 151.554409 124.1088 
L 151.60532 123.399529 
L 151.731998 123.399529 
L 151.807597 120.562447 
L 151.857828 120.562447 
L 151.932924 118.08 
L 151.982822 118.08 
L 152.082223 115.952188 
L 152.131727 115.952188 
L 152.20574 115.242918 
L 152.303973 115.242918 
L 152.352898 114.179012 
L 152.450367 114.179012 
L 152.547334 110.632659 
L 152.595631 110.632659 
L 152.643804 107.440941 
L 152.739781 107.440941 
L 152.811444 106.0224 
L 152.882835 106.0224 
L 152.953957 105.313129 
L 153.02481 105.313129 
L 153.071898 102.476047 
L 153.165721 102.476047 
L 153.259079 98.929694 
L 153.282346 98.929694 
L 153.375128 95.028706 
L 153.398253 95.028706 
L 153.444416 93.9648 
L 153.536404 93.9648 
L 153.627945 91.836988 
L 153.673549 91.836988 
L 153.719042 89.709176 
L 153.8097 89.709176 
L 153.899924 85.098918 
L 153.922412 85.098918 
L 153.967309 83.680376 
L 154.034453 83.680376 
L 154.123607 80.843294 
L 154.168026 80.843294 
L 154.256552 77.651576 
L 154.300658 77.651576 
L 154.388563 75.523765 
L 154.432362 75.523765 
L 154.432362 75.169129 
L 154.563149 75.169129 
L 154.628204 73.750588 
L 154.714595 73.750588 
L 154.80059 71.268141 
L 154.886195 71.268141 
L 154.992656 70.204235 
L 155.098517 70.204235 
L 155.161749 68.431059 
L 155.22477 68.431059 
L 155.30847 65.239341 
L 155.391799 65.239341 
L 155.454055 64.530071 
L 155.577951 64.530071 
L 155.680579 62.756894 
L 155.721473 62.756894 
L 155.823323 60.274447 
L 155.843627 60.274447 
L 155.904407 57.792 
L 156.085579 57.792 
L 156.185481 53.891012 
L 156.245169 53.891012 
L 156.34423 52.117835 
L 156.383708 52.117835 
L 156.462418 50.699294 
L 156.599372 50.699294 
L 156.677186 48.216847 
L 156.715973 48.216847 
L 156.735336 46.089035 
L 156.8511 46.089035 
L 156.908716 45.025129 
L 157.004352 45.025129 
L 157.080512 42.897318 
L 157.137431 42.897318 
L 157.231914 41.833412 
L 157.30716 41.833412 
L 157.400797 39.7056 
L 157.456756 39.7056 
L 157.475372 38.641694 
L 157.715719 38.641694 
L 157.789059 36.159247 
L 157.898535 36.159247 
L 157.971166 35.449976 
L 158.0976 35.449976 
L 158.0976 35.095341 
L 158.223191 35.095341 
L 158.294582 33.6768 
L 158.383441 33.6768 
L 158.401163 32.967529 
L 158.559911 32.967529 
L 158.559911 32.612894 
L 158.752135 32.612894 
L 158.786875 31.194353 
L 159.096679 31.194353 
L 159.14782 30.485082 
L 159.249688 30.485082 
L 159.317295 29.066541 
L 159.552023 29.066541 
L 159.552023 28.357271 
L 160.012872 28.357271 
L 160.012872 28.002635 
L 160.126341 28.002635 
L 160.126341 27.648 
L 360.8064 27.648 
L 360.8064 27.648 
" style="fill: none; stroke: #000080; stroke-width: 1.5; stroke-linecap: square"/>
   </g>
   <g id="line2d_36">
    <defs>
     <path id="m5fbd548269" d="M 0 6 
C 1.591219 6 3.117479 5.367802 4.242641 4.242641 
C 5.367802 3.117479 6 1.591219 6 0 
C 6 -1.591219 5.367802 -3.117479 4.242641 -4.242641 
C 3.117479 -5.367802 1.591219 -6 0 -6 
C -1.591219 -6 -3.117479 -5.367802 -4.242641 -4.242641 
C -5.367802 -3.117479 -6 -1.591219 -6 0 
C -6 1.591219 -5.367802 3.117479 -4.242641 4.242641 
C -3.117479 5.367802 -1.591219 6 0 6 
z
" style="stroke: #000080; stroke-width: 1.5"/>
    </defs>
    <g>
     <use xlink:href="#m5fbd548269" x="151.089903" y="130.1376" style="fill-opacity: 0; stroke: #000080; stroke-width: 1.5"/>
     <use xlink:href="#m5fbd548269" x="160.126341" y="28.002635" style="fill-opacity: 0; stroke: #000080; stroke-width: 1.5"/>
     <use xlink:href="#m5fbd548269" x="160.126341" y="27.648" style="fill-opacity: 0; stroke: #000080; stroke-width: 1.5"/>
     <use xlink:href="#m5fbd548269" x="160.126341" y="27.648" style="fill-opacity: 0; stroke: #000080; stroke-width: 1.5"/>
     <use xlink:href="#m5fbd548269" x="360.8064" y="27.648" style="fill-opacity: 0; stroke: #000080; stroke-width: 1.5"/>
    </g>
   </g>
   <g id="line2d_37">
    <path style="fill: none; stroke: #000080; stroke-width: 1.5; stroke-linecap: square"/>
    <g/>
   </g>
   <g id="line2d_38">
    <defs>
     <path id="m519605cd33" d="M 0 1.5 
C 0.397805 1.5 0.77937 1.341951 1.06066 1.06066 
C 1.341951 0.77937 1.5 0.397805 1.5 0 
C 1.5 -0.397805 1.341951 -0.77937 1.06066 -1.06066 
C 0.77937 -1.341951 0.397805 -1.5 0 -1.5 
C -0.397805 -1.5 -0.77937 -1.341951 -1.06066 -1.06066 
C -1.341951 -0.77937 -1.5 -0.397805 -1.5 0 
C -1.5 0.397805 -1.341951 0.77937 -1.06066 1.06066 
C -0.77937 1.341951 -0.397805 1.5 0 1.5 
z
" style="stroke: #ff00ff"/>
    </defs>
    <g>
     <use xlink:href="#m519605cd33" x="162.549177" y="27.648" style="fill: #ff00ff; stroke: #ff00ff"/>
     <use xlink:href="#m519605cd33" x="162.549177" y="27.648" style="fill: #ff00ff; stroke: #ff00ff"/>
    </g>
   </g>
   <g id="line2d_39">
    <path d="M 124.588805 298.944 
L 124.588805 298.589365 
L 125.829577 298.589365 
L 125.829577 298.234729 
L 128.614685 298.234729 
L 128.614685 297.880094 
L 129.458394 297.880094 
L 129.458394 297.525459 
L 130.344755 297.525459 
L 130.344755 295.752282 
L 130.501519 295.752282 
L 130.501519 295.043012 
L 130.656987 295.043012 
L 130.656987 292.9152 
L 131.929028 292.9152 
L 131.929028 292.205929 
L 132.428795 292.205929 
L 132.428795 291.496659 
L 132.56918 291.496659 
L 132.56918 291.142024 
L 132.915628 291.142024 
L 132.915628 290.432753 
L 133.523594 290.432753 
L 133.589949 289.014212 
L 134.047992 289.014212 
L 134.047992 288.659576 
L 134.304809 288.659576 
L 134.304809 288.304941 
L 134.620977 288.304941 
L 134.620977 287.950306 
L 134.993495 287.950306 
L 134.993495 287.241035 
L 135.237805 287.241035 
L 135.237805 286.531765 
L 135.35878 286.531765 
L 135.35878 286.177129 
L 135.478982 286.177129 
L 135.478982 285.822494 
L 135.717106 285.822494 
L 135.717106 285.467859 
L 135.835047 285.467859 
L 135.835047 284.403953 
L 136.068734 284.403953 
L 136.068734 282.985412 
L 136.242113 282.985412 
L 136.242113 282.276141 
L 136.640557 282.276141 
L 136.640557 281.921506 
L 136.752866 281.921506 
L 136.752866 281.212235 
L 136.97549 281.212235 
L 136.97549 280.8576 
L 137.627979 280.8576 
L 137.627979 279.793694 
L 137.787626 279.793694 
L 137.893309 278.729788 
L 137.998402 278.729788 
L 137.998402 278.020518 
L 138.154948 278.020518 
L 138.154948 277.311247 
L 138.310202 277.311247 
L 138.412998 276.601976 
L 138.464186 276.601976 
L 138.515235 275.892706 
L 138.968547 275.892706 
L 139.067817 273.764894 
L 139.215746 273.764894 
L 139.215746 273.410259 
L 139.411192 273.410259 
L 139.508159 271.637082 
L 139.891105 271.637082 
L 139.891105 269.863906 
L 140.26641 269.863906 
L 140.26641 269.154635 
L 140.451292 269.154635 
L 140.451292 268.8 
L 140.725251 268.8 
L 140.815692 267.736094 
L 141.039908 267.736094 
L 141.128852 266.317553 
L 141.173167 266.317553 
L 141.261484 265.253647 
L 141.349389 265.253647 
L 141.436884 263.480471 
L 141.523975 263.480471 
L 141.523975 262.416565 
L 141.739954 262.416565 
L 141.782854 261.707294 
L 141.868361 261.707294 
L 141.868361 261.352659 
L 142.080444 261.352659 
L 142.080444 260.998024 
L 142.248405 260.998024 
L 142.248405 260.643388 
L 142.41488 260.643388 
L 142.45627 259.224847 
L 142.538777 259.224847 
L 142.620923 257.806306 
L 142.661862 257.806306 
L 142.743475 256.7424 
L 142.784148 256.7424 
L 142.784148 256.387765 
L 142.905644 256.387765 
L 142.945969 255.323859 
L 143.02636 255.323859 
L 143.10641 253.905318 
L 143.146307 253.905318 
L 143.146307 253.550682 
L 143.305055 253.550682 
L 143.305055 253.196047 
L 143.423243 253.196047 
L 143.462475 252.486776 
L 143.618588 252.486776 
L 143.696162 251.422871 
L 143.734829 251.422871 
L 143.773417 250.358965 
L 143.888708 250.358965 
L 143.965177 249.295059 
L 144.117191 249.295059 
L 144.192739 247.876518 
L 144.305496 247.876518 
L 144.305496 247.521882 
L 144.417581 247.521882 
L 144.454795 245.394071 
L 144.639767 245.394071 
L 144.749884 243.266259 
L 144.85936 243.266259 
L 144.895711 241.493082 
L 145.040416 241.493082 
L 145.148219 239.719906 
L 145.291002 239.719906 
L 145.397382 237.946729 
L 145.46797 237.946729 
L 145.573357 236.528188 
L 145.712961 236.528188 
L 145.782376 235.818918 
L 145.886021 235.818918 
L 145.989098 233.336471 
L 146.125662 233.336471 
L 146.227438 229.790118 
L 146.395851 229.790118 
L 146.496179 228.726212 
L 146.529503 228.726212 
L 146.562769 227.662306 
L 146.826795 227.662306 
L 146.892226 226.5984 
L 146.989949 226.5984 
L 147.054816 225.534494 
L 147.119461 225.534494 
L 147.216013 222.697412 
L 147.248088 222.697412 
L 147.343984 221.988141 
L 147.407644 221.988141 
L 147.502732 220.924235 
L 147.534321 220.924235 
L 147.534321 218.087153 
L 147.691478 218.087153 
L 147.785146 217.023247 
L 147.816265 217.023247 
L 147.816265 216.668612 
L 147.971093 216.668612 
L 148.03267 214.895435 
L 148.094045 214.895435 
L 148.094045 213.831529 
L 148.216198 213.831529 
L 148.246613 211.703718 
L 148.337564 211.703718 
L 148.367783 210.285176 
L 148.458151 210.285176 
L 148.518156 207.802729 
L 148.607806 207.802729 
L 148.697031 206.029553 
L 148.726679 206.029553 
L 148.815343 204.611012 
L 148.874221 204.611012 
L 148.962194 201.773929 
L 148.991428 201.773929 
L 149.020615 201.064659 
L 149.107908 201.064659 
L 149.136916 200.355388 
L 149.252502 200.355388 
L 149.31003 199.291482 
L 149.42456 199.291482 
L 149.481565 197.518306 
L 149.566749 197.518306 
L 149.65155 193.971953 
L 149.820013 193.971953 
L 149.903682 189.716329 
L 149.98698 189.716329 
L 150.097474 188.652424 
L 150.152479 188.652424 
L 150.262008 186.169976 
L 150.343738 186.169976 
L 150.452162 183.332894 
L 150.506141 183.332894 
L 150.559965 181.914353 
L 150.693856 181.914353 
L 150.747146 180.850447 
L 150.8268 180.850447 
L 150.8268 180.495812 
L 150.958812 180.495812 
L 151.063758 178.368 
L 151.116012 178.368 
L 151.194122 175.885553 
L 151.246016 175.885553 
L 151.27191 174.467012 
L 151.375128 174.467012 
L 151.477784 170.566024 
L 151.50336 170.566024 
L 151.60532 167.728941 
L 151.630724 167.728941 
L 151.656094 166.665035 
L 151.757231 166.665035 
L 151.832729 164.182588 
L 151.882893 164.182588 
L 151.95789 162.054776 
L 152.032588 162.054776 
L 152.106991 160.636235 
L 152.15643 160.636235 
L 152.25492 155.316706 
L 152.377312 155.316706 
L 152.426047 153.543529 
L 152.547334 153.543529 
L 152.571498 152.834259 
L 152.667844 152.834259 
L 152.763699 149.997176 
L 152.787587 149.997176 
L 152.835271 147.514729 
L 152.953957 147.514729 
L 152.977604 146.096188 
L 153.071898 146.096188 
L 153.165721 142.904471 
L 153.189104 142.904471 
L 153.282346 139.003482 
L 153.328795 139.003482 
L 153.421349 137.939576 
L 153.467455 137.939576 
L 153.559331 132.265412 
L 153.650761 132.265412 
L 153.741748 129.782965 
L 153.8097 129.782965 
L 153.899924 128.364424 
L 153.922412 128.364424 
L 153.944874 126.945882 
L 154.034453 126.945882 
L 154.079083 125.172706 
L 154.14583 125.172706 
L 154.168026 121.271718 
L 154.278618 121.271718 
L 154.278618 119.143906 
L 154.410475 119.143906 
L 154.476059 114.533647 
L 154.671449 114.533647 
L 154.757642 111.341929 
L 154.80059 111.341929 
L 154.907535 109.214118 
L 154.928852 109.214118 
L 155.035072 108.150212 
L 155.056244 108.150212 
L 155.161749 104.603859 
L 155.24573 104.603859 
L 155.30847 99.638965 
L 155.454055 99.638965 
L 155.474761 98.575059 
L 155.619069 98.575059 
L 155.721473 96.801882 
L 155.741887 96.801882 
L 155.843627 93.255529 
L 155.863909 93.255529 
L 155.964992 90.418447 
L 155.985143 90.418447 
L 156.085579 88.645271 
L 156.105602 88.645271 
L 156.205398 87.226729 
L 156.225294 87.226729 
L 156.245169 86.517459 
L 156.363979 86.517459 
L 156.462418 82.616471 
L 156.521235 82.616471 
L 156.521235 82.261835 
L 156.657763 82.261835 
L 156.75468 80.488659 
L 156.793307 80.488659 
L 156.88953 76.942306 
L 156.908716 76.942306 
L 156.966156 75.169129 
L 157.023421 75.169129 
L 157.118477 73.041318 
L 157.137431 73.041318 
L 157.194177 69.8496 
L 157.269574 69.8496 
L 157.325925 68.785694 
L 157.53111 68.785694 
L 157.642093 63.111529 
L 157.660526 63.111529 
L 157.770751 61.692988 
L 157.807349 61.692988 
L 157.898535 59.919812 
L 157.934885 59.919812 
L 158.007377 55.309553 
L 158.0976 55.309553 
L 158.187393 53.181741 
L 158.25892 53.181741 
L 158.312387 52.117835 
L 158.418868 52.117835 
L 158.52475 48.571482 
L 158.665004 48.571482 
L 158.717331 47.862212 
L 158.856162 47.862212 
L 158.925196 45.025129 
L 159.011133 45.025129 
L 159.113741 42.897318 
L 159.181837 42.897318 
L 159.283522 40.414871 
L 159.300416 40.414871 
L 159.334159 38.996329 
L 159.451784 38.996329 
L 159.485256 37.932424 
L 159.568678 37.932424 
L 159.585318 36.868518 
L 159.833168 36.868518 
L 159.931401 36.159247 
L 159.947723 36.159247 
L 160.045361 34.740706 
L 160.061585 34.740706 
L 160.061585 34.386071 
L 160.351247 34.386071 
L 160.399093 33.322165 
L 160.620781 33.322165 
L 160.620781 32.967529 
L 160.746296 32.967529 
L 160.761927 32.258259 
L 161.087207 32.258259 
L 161.194395 30.839718 
L 161.209658 30.839718 
L 161.209658 30.485082 
L 161.467251 30.485082 
L 161.467251 29.775812 
L 161.602209 29.775812 
L 161.617145 29.066541 
L 161.765853 29.066541 
L 161.765853 28.711906 
L 162.103487 28.711906 
L 162.103487 28.357271 
L 162.349204 28.357271 
L 162.349204 28.002635 
L 162.549177 28.002635 
L 162.549177 27.648 
L 360.8064 27.648 
L 360.8064 27.648 
" style="fill: none; stroke: #ff00ff; stroke-width: 1.5; stroke-linecap: square"/>
   </g>
   <g id="line2d_40">
    <defs>
     <path id="m5b09d3ac7d" d="M -0 8.485281 
L 5.091169 0 
L 0 -8.485281 
L -5.091169 -0 
z
" style="stroke: #ff00ff; stroke-width: 1.5; stroke-linejoin: miter"/>
    </defs>
    <g>
     <use xlink:href="#m5b09d3ac7d" x="153.513449" y="135.102494" style="fill-opacity: 0; stroke: #ff00ff; stroke-width: 1.5; stroke-linejoin: miter"/>
     <use xlink:href="#m5b09d3ac7d" x="162.549177" y="28.002635" style="fill-opacity: 0; stroke: #ff00ff; stroke-width: 1.5; stroke-linejoin: miter"/>
     <use xlink:href="#m5b09d3ac7d" x="162.549177" y="27.648" style="fill-opacity: 0; stroke: #ff00ff; stroke-width: 1.5; stroke-linejoin: miter"/>
     <use xlink:href="#m5b09d3ac7d" x="162.549177" y="27.648" style="fill-opacity: 0; stroke: #ff00ff; stroke-width: 1.5; stroke-linejoin: miter"/>
     <use xlink:href="#m5b09d3ac7d" x="360.8064" y="27.648" style="fill-opacity: 0; stroke: #ff00ff; stroke-width: 1.5; stroke-linejoin: miter"/>
    </g>
   </g>
   <g id="line2d_41">
    <path style="fill: none; stroke: #ff00ff; stroke-width: 1.5; stroke-linecap: square"/>
    <g/>
   </g>
   <g id="line2d_42">
    <defs>
     <path id="m9f0bfbf72a" d="M 0 1.5 
C 0.397805 1.5 0.77937 1.341951 1.06066 1.06066 
C 1.341951 0.77937 1.5 0.397805 1.5 0 
C 1.5 -0.397805 1.341951 -0.77937 1.06066 -1.06066 
C 0.77937 -1.341951 0.397805 -1.5 0 -1.5 
C -0.397805 -1.5 -0.77937 -1.341951 -1.06066 -1.06066 
C -1.341951 -0.77937 -1.5 -0.397805 -1.5 0 
C -1.5 0.397805 -1.341951 0.77937 -1.06066 1.06066 
C -0.77937 1.341951 -0.397805 1.5 0 1.5 
z
" style="stroke: #ff7500"/>
    </defs>
    <g>
     <use xlink:href="#m9f0bfbf72a" x="167.10711" y="27.648" style="fill: #ff7500; stroke: #ff7500"/>
     <use xlink:href="#m9f0bfbf72a" x="167.10711" y="27.648" style="fill: #ff7500; stroke: #ff7500"/>
    </g>
   </g>
   <g id="line2d_43">
    <path d="M 131.929028 298.944 
L 131.929028 298.589365 
L 132.915628 298.589365 
L 132.915628 298.234729 
L 135.893741 298.234729 
L 135.952253 296.816188 
L 137.195511 296.816188 
L 137.195511 296.461553 
L 137.840541 296.461553 
L 137.945929 294.333741 
L 138.667556 294.333741 
L 138.667556 292.9152 
L 139.067817 292.9152 
L 139.067817 292.205929 
L 139.843661 292.205929 
L 139.843661 291.851294 
L 140.995278 291.851294 
L 140.995278 290.787388 
L 141.217377 290.787388 
L 141.217377 290.432753 
L 141.65386 290.432753 
L 141.65386 289.723482 
L 141.782854 289.723482 
L 141.782854 288.304941 
L 142.164612 288.304941 
L 142.164612 287.595671 
L 142.290162 287.595671 
L 142.290162 287.241035 
L 142.538777 287.241035 
L 142.620923 286.531765 
L 142.702713 286.531765 
L 142.784148 285.822494 
L 142.986208 285.822494 
L 143.02636 284.403953 
L 143.265494 284.403953 
L 143.344534 283.340047 
L 143.540694 283.340047 
L 143.579681 282.630776 
L 143.773417 282.630776 
L 143.773417 282.276141 
L 144.003296 282.276141 
L 144.003296 281.921506 
L 144.155003 281.921506 
L 144.155003 281.566871 
L 144.305496 281.566871 
L 144.380294 280.8576 
L 144.529002 280.8576 
L 144.639767 279.793694 
L 144.71325 279.793694 
L 144.71325 279.439059 
L 145.040416 279.439059 
L 145.148219 278.729788 
L 145.397382 278.729788 
L 145.46797 278.020518 
L 145.678157 278.020518 
L 145.782376 277.311247 
L 145.851536 277.311247 
L 145.851536 276.956612 
L 145.989098 276.956612 
L 145.989098 276.601976 
L 146.159649 276.601976 
L 146.159649 275.892706 
L 146.328666 275.892706 
L 146.328666 275.538071 
L 146.462796 275.538071 
L 146.529503 274.8288 
L 146.595975 274.8288 
L 146.695245 273.410259 
L 146.924857 273.410259 
L 147.022411 272.346353 
L 147.183884 272.346353 
L 147.280107 271.637082 
L 147.407644 271.637082 
L 147.407644 271.282447 
L 147.534321 271.282447 
L 147.534321 270.573176 
L 147.660152 270.573176 
L 147.691478 269.509271 
L 147.878349 269.509271 
L 147.971093 268.445365 
L 148.063382 268.445365 
L 148.155221 266.672188 
L 148.697031 266.672188 
L 148.785835 264.544376 
L 149.049758 264.544376 
L 149.136916 263.835106 
L 149.194798 263.835106 
L 149.252502 263.125835 
L 149.510002 263.125835 
L 149.538397 262.061929 
L 149.73597 262.061929 
L 149.73597 261.707294 
L 149.959255 261.707294 
L 150.014665 260.998024 
L 150.097474 260.998024 
L 150.179921 259.224847 
L 150.398028 259.224847 
L 150.425115 258.160941 
L 150.613636 258.160941 
L 150.693856 256.033129 
L 150.747146 256.033129 
L 150.747146 255.678494 
L 150.958812 255.678494 
L 151.037576 252.841412 
L 151.116012 252.841412 
L 151.116012 252.486776 
L 151.297768 252.486776 
L 151.349377 251.422871 
L 151.426526 251.422871 
L 151.426526 251.068235 
L 151.554409 251.068235 
L 151.630724 249.295059 
L 151.832729 249.295059 
L 151.832729 248.940424 
L 151.982822 248.940424 
L 151.982822 248.231153 
L 152.15643 248.231153 
L 152.20574 247.521882 
L 152.328451 247.521882 
L 152.377312 245.039435 
L 152.450367 245.039435 
L 152.498913 244.330165 
L 152.571498 244.330165 
L 152.619733 243.620894 
L 152.739781 243.620894 
L 152.835271 241.493082 
L 152.859068 241.493082 
L 152.953957 240.783812 
L 152.977604 240.783812 
L 153.02481 239.010635 
L 153.189104 239.010635 
L 153.259079 237.946729 
L 153.375128 237.946729 
L 153.375128 237.592094 
L 153.490466 237.592094 
L 153.58223 235.818918 
L 153.605101 235.818918 
L 153.696309 233.691106 
L 153.741748 233.691106 
L 153.8097 232.981835 
L 153.899924 232.981835 
L 153.922412 232.272565 
L 154.012098 232.272565 
L 154.056781 230.854024 
L 154.190197 230.854024 
L 154.234459 229.080847 
L 154.322673 229.080847 
L 154.388563 226.243765 
L 154.476059 226.243765 
L 154.563149 224.470588 
L 154.606544 224.470588 
L 154.671449 221.633506 
L 154.73613 221.633506 
L 154.843441 219.860329 
L 154.907535 219.860329 
L 155.013876 218.441788 
L 155.077392 218.441788 
L 155.18278 213.831529 
L 155.22477 213.831529 
L 155.329337 210.639812 
L 155.391799 210.639812 
L 155.454055 208.866635 
L 155.516105 208.866635 
L 155.598521 207.448094 
L 155.741887 207.448094 
L 155.762279 204.611012 
L 155.863909 204.611012 
L 155.924624 203.192471 
L 156.165543 203.192471 
L 156.165543 202.837835 
L 156.284856 202.837835 
L 156.383708 198.936847 
L 156.442771 198.936847 
L 156.540799 196.809035 
L 156.618856 196.809035 
L 156.677186 196.099765 
L 156.75468 196.099765 
L 156.8511 191.844141 
L 156.927882 191.844141 
L 157.023421 188.652424 
L 157.080512 188.652424 
L 157.156365 187.233882 
L 157.231914 187.233882 
L 157.30716 183.332894 
L 157.344671 183.332894 
L 157.400797 181.205082 
L 157.456756 181.205082 
L 157.53111 178.722635 
L 157.568177 178.722635 
L 157.678942 177.304094 
L 157.734081 177.304094 
L 157.770751 174.112376 
L 157.862113 174.112376 
L 157.953034 171.629929 
L 157.98928 171.629929 
L 158.0976 169.856753 
L 158.133569 169.856753 
L 158.241064 165.246494 
L 158.25892 165.246494 
L 158.347948 161.700141 
L 158.383441 161.700141 
L 158.489522 159.572329 
L 158.507144 159.572329 
L 158.595008 157.799153 
L 158.752135 157.799153 
L 158.838864 156.025976 
L 158.890711 156.025976 
L 158.976805 153.188894 
L 159.062507 153.188894 
L 159.164837 150.351812 
L 159.181837 150.351812 
L 159.181837 148.933271 
L 159.300416 148.933271 
L 159.401463 144.323012 
L 159.418251 144.323012 
L 159.468527 142.1952 
L 159.535354 142.1952 
L 159.601943 140.776659 
L 159.668298 140.776659 
L 159.717911 137.939576 
L 159.833168 137.939576 
L 159.898714 135.811765 
L 159.947723 135.811765 
L 160.045361 132.974682 
L 160.061585 132.974682 
L 160.110173 130.846871 
L 160.174762 130.846871 
L 160.271232 127.655153 
L 160.287262 127.655153 
L 160.383158 124.1088 
L 160.399093 124.1088 
L 160.494422 120.562447 
L 160.526092 120.562447 
L 160.620781 117.725365 
L 160.652238 117.725365 
L 160.730652 115.242918 
L 160.777545 115.242918 
L 160.855439 111.696565 
L 160.933013 111.696565 
L 161.025681 108.859482 
L 161.13322 108.859482 
L 161.240147 102.476047 
L 161.285788 102.476047 
L 161.36161 100.348235 
L 161.422049 100.348235 
L 161.527352 98.575059 
L 161.542347 98.575059 
L 161.632069 95.737976 
L 161.676769 95.737976 
L 161.751035 93.255529 
L 161.825009 93.255529 
L 161.913396 89.709176 
L 161.942766 89.709176 
L 162.015991 86.872094 
L 162.05979 86.872094 
L 162.147083 84.389647 
L 162.205054 84.389647 
L 162.291676 81.197929 
L 162.435167 81.197929 
L 162.506504 79.779388 
L 162.549177 79.779388 
L 162.648372 77.651576 
L 162.676617 77.651576 
L 162.761101 73.750588 
L 162.8032 73.750588 
L 162.901068 69.8496 
L 162.956765 69.8496 
L 163.040002 66.657882 
L 163.081483 66.657882 
L 163.191653 65.593976 
L 163.205379 65.593976 
L 163.27386 63.466165 
L 163.328465 63.466165 
L 163.437203 59.919812 
L 163.477818 59.919812 
L 163.572247 58.855906 
L 163.65281 58.855906 
L 163.746367 54.954918 
L 163.773012 54.954918 
L 163.773012 54.600282 
L 163.892451 54.600282 
L 163.997986 53.536376 
L 164.037409 53.536376 
L 164.063646 52.472471 
L 164.181259 52.472471 
L 164.285191 47.507576 
L 164.336942 47.507576 
L 164.414303 46.089035 
L 164.478528 46.089035 
L 164.568077 45.025129 
L 164.593584 45.025129 
L 164.593584 43.961224 
L 164.70794 43.961224 
L 164.80901 41.478776 
L 164.821605 41.478776 
L 164.922068 40.060235 
L 164.972099 40.060235 
L 165.071763 38.287059 
L 165.096597 38.287059 
L 165.195605 35.449976 
L 165.404283 35.449976 
L 165.477385 34.740706 
L 165.550204 34.740706 
L 165.610672 32.967529 
L 165.682978 32.967529 
L 165.707018 30.839718 
L 165.826761 30.839718 
L 165.898243 29.775812 
L 165.993131 29.775812 
L 166.099311 29.066541 
L 166.321521 29.066541 
L 166.425869 28.357271 
L 166.621405 28.357271 
L 166.621405 28.002635 
L 167.10711 28.002635 
L 167.10711 27.648 
L 360.8064 27.648 
L 360.8064 27.648 
" style="fill: none; stroke: #ff7500; stroke-width: 1.5; stroke-linecap: square"/>
   </g>
   <g id="line2d_44">
    <defs>
     <path id="m241d212691" d="M 0 -6 
L -1.347084 -1.854102 
L -5.706339 -1.854102 
L -2.179628 0.708204 
L -3.526712 4.854102 
L -0 2.291796 
L 3.526712 4.854102 
L 2.179628 0.708204 
L 5.706339 -1.854102 
L 1.347084 -1.854102 
z
" style="stroke: #ff7500; stroke-width: 1.5; stroke-linejoin: bevel"/>
    </defs>
    <g>
     <use xlink:href="#m241d212691" x="156.831855" y="193.262682" style="fill-opacity: 0; stroke: #ff7500; stroke-width: 1.5; stroke-linejoin: bevel"/>
     <use xlink:href="#m241d212691" x="167.10711" y="28.002635" style="fill-opacity: 0; stroke: #ff7500; stroke-width: 1.5; stroke-linejoin: bevel"/>
     <use xlink:href="#m241d212691" x="167.10711" y="27.648" style="fill-opacity: 0; stroke: #ff7500; stroke-width: 1.5; stroke-linejoin: bevel"/>
     <use xlink:href="#m241d212691" x="167.10711" y="27.648" style="fill-opacity: 0; stroke: #ff7500; stroke-width: 1.5; stroke-linejoin: bevel"/>
     <use xlink:href="#m241d212691" x="360.8064" y="27.648" style="fill-opacity: 0; stroke: #ff7500; stroke-width: 1.5; stroke-linejoin: bevel"/>
    </g>
   </g>
   <g id="line2d_45">
    <path style="fill: none; stroke: #ff7500; stroke-width: 1.5; stroke-linecap: square"/>
    <g/>
   </g>
   <g id="line2d_46">
    <path d="M 360.8064 27.648 
L 380.514816 293.51808 
" style="fill: none; stroke: #ff7500; stroke-width: 1.5; stroke-linecap: square"/>
    <g>
     <use xlink:href="#m241d212691" x="360.8064" y="27.648" style="fill-opacity: 0; stroke: #ff7500; stroke-width: 1.5; stroke-linejoin: bevel"/>
     <use xlink:href="#m241d212691" x="380.514816" y="293.51808" style="fill-opacity: 0; stroke: #ff7500; stroke-width: 1.5; stroke-linejoin: bevel"/>
    </g>
   </g>
   <g id="line2d_47">
    <path d="M 360.8064 27.648 
L 380.514816 206.70336 
" style="fill: none; stroke: #ff00ff; stroke-width: 1.5; stroke-linecap: square"/>
    <g>
     <use xlink:href="#m5b09d3ac7d" x="360.8064" y="27.648" style="fill-opacity: 0; stroke: #ff00ff; stroke-width: 1.5; stroke-linejoin: miter"/>
     <use xlink:href="#m5b09d3ac7d" x="380.514816" y="206.70336" style="fill-opacity: 0; stroke: #ff00ff; stroke-width: 1.5; stroke-linejoin: miter"/>
    </g>
   </g>
   <g id="line2d_48">
    <path d="M 360.8064 27.648 
L 380.514816 119.88864 
" style="fill: none; stroke: #000080; stroke-width: 1.5; stroke-linecap: square"/>
    <g>
     <use xlink:href="#m5fbd548269" x="360.8064" y="27.648" style="fill-opacity: 0; stroke: #000080; stroke-width: 1.5"/>
     <use xlink:href="#m5fbd548269" x="380.514816" y="119.88864" style="fill-opacity: 0; stroke: #000080; stroke-width: 1.5"/>
    </g>
   </g>
   <g id="line2d_49">
    <path d="M 360.8064 298.944 
L 360.8064 27.648 
" style="fill: none; stroke: #000000; stroke-width: 1.5; stroke-linecap: square"/>
   </g>
   <g id="patch_3">
    <path d="M 57.6 298.944 
L 360.8064 298.944 
" style="fill: none; stroke: #000000; stroke-width: 0.8; stroke-linejoin: miter; stroke-linecap: square"/>
   </g>
   <g id="patch_4">
    <path d="M 57.6 27.648 
L 360.8064 27.648 
" style="fill: none; stroke: #000000; stroke-width: 0.8; stroke-linejoin: miter; stroke-linecap: square"/>
   </g>
   <g id="text_13">
    <!-- CMA-ES-20 -->
    <g transform="translate(386.578944 297.381205)scale(0.14 -0.14)">
     <defs>
      <path id="DejaVuSans-43" d="M 4122 4306 
L 4122 3641 
Q 3803 3938 3442 4084 
Q 3081 4231 2675 4231 
Q 1875 4231 1450 3742 
Q 1025 3253 1025 2328 
Q 1025 1406 1450 917 
Q 1875 428 2675 428 
Q 3081 428 3442 575 
Q 3803 722 4122 1019 
L 4122 359 
Q 3791 134 3420 21 
Q 3050 -91 2638 -91 
Q 1578 -91 968 557 
Q 359 1206 359 2328 
Q 359 3453 968 4101 
Q 1578 4750 2638 4750 
Q 3056 4750 3426 4639 
Q 3797 4528 4122 4306 
z
" transform="scale(0.015625)"/>
      <path id="DejaVuSans-4d" d="M 628 4666 
L 1569 4666 
L 2759 1491 
L 3956 4666 
L 4897 4666 
L 4897 0 
L 4281 0 
L 4281 4097 
L 3078 897 
L 2444 897 
L 1241 4097 
L 1241 0 
L 628 0 
L 628 4666 
z
" transform="scale(0.015625)"/>
      <path id="DejaVuSans-41" d="M 2188 4044 
L 1331 1722 
L 3047 1722 
L 2188 4044 
z
M 1831 4666 
L 2547 4666 
L 4325 0 
L 3669 0 
L 3244 1197 
L 1141 1197 
L 716 0 
L 50 0 
L 1831 4666 
z
" transform="scale(0.015625)"/>
      <path id="DejaVuSans-45" d="M 628 4666 
L 3578 4666 
L 3578 4134 
L 1259 4134 
L 1259 2753 
L 3481 2753 
L 3481 2222 
L 1259 2222 
L 1259 531 
L 3634 531 
L 3634 0 
L 628 0 
L 628 4666 
z
" transform="scale(0.015625)"/>
      <path id="DejaVuSans-53" d="M 3425 4513 
L 3425 3897 
Q 3066 4069 2747 4153 
Q 2428 4238 2131 4238 
Q 1616 4238 1336 4038 
Q 1056 3838 1056 3469 
Q 1056 3159 1242 3001 
Q 1428 2844 1947 2747 
L 2328 2669 
Q 3034 2534 3370 2195 
Q 3706 1856 3706 1288 
Q 3706 609 3251 259 
Q 2797 -91 1919 -91 
Q 1588 -91 1214 -16 
Q 841 59 441 206 
L 441 856 
Q 825 641 1194 531 
Q 1563 422 1919 422 
Q 2459 422 2753 634 
Q 3047 847 3047 1241 
Q 3047 1584 2836 1778 
Q 2625 1972 2144 2069 
L 1759 2144 
Q 1053 2284 737 2584 
Q 422 2884 422 3419 
Q 422 4038 858 4394 
Q 1294 4750 2059 4750 
Q 2388 4750 2728 4690 
Q 3069 4631 3425 4513 
z
" transform="scale(0.015625)"/>
     </defs>
     <use xlink:href="#DejaVuSans-43"/>
     <use xlink:href="#DejaVuSans-4d" x="69.824219"/>
     <use xlink:href="#DejaVuSans-41" x="156.103516"/>
     <use xlink:href="#DejaVuSans-2d" x="222.261719"/>
     <use xlink:href="#DejaVuSans-45" x="258.345703"/>
     <use xlink:href="#DejaVuSans-53" x="321.529297"/>
     <use xlink:href="#DejaVuSans-2d" x="385.005859"/>
     <use xlink:href="#DejaVuSans-32" x="421.089844"/>
     <use xlink:href="#DejaVuSans-30" x="484.712891"/>
    </g>
   </g>
   <g id="text_14">
    <!-- ddcma1 -->
    <g transform="translate(386.578944 210.566485)scale(0.14 -0.14)">
     <use xlink:href="#DejaVuSans-64"/>
     <use xlink:href="#DejaVuSans-64" x="63.476562"/>
     <use xlink:href="#DejaVuSans-63" x="126.953125"/>
     <use xlink:href="#DejaVuSans-6d" x="181.933594"/>
     <use xlink:href="#DejaVuSans-61" x="279.345703"/>
     <use xlink:href="#DejaVuSans-31" x="340.625"/>
    </g>
   </g>
   <g id="text_15">
    <!-- cma1 -->
    <g transform="translate(386.578944 123.751765)scale(0.14 -0.14)">
     <use xlink:href="#DejaVuSans-63"/>
     <use xlink:href="#DejaVuSans-6d" x="54.980469"/>
     <use xlink:href="#DejaVuSans-61" x="152.392578"/>
     <use xlink:href="#DejaVuSans-31" x="213.671875"/>
    </g>
   </g>
   <g id="text_16">
    <!-- best 2009 -->
    <g transform="translate(386.578944 36.937045)scale(0.14 -0.14)">
     <defs>
      <path id="DejaVuSans-62" d="M 3116 1747 
Q 3116 2381 2855 2742 
Q 2594 3103 2138 3103 
Q 1681 3103 1420 2742 
Q 1159 2381 1159 1747 
Q 1159 1113 1420 752 
Q 1681 391 2138 391 
Q 2594 391 2855 752 
Q 3116 1113 3116 1747 
z
M 1159 2969 
Q 1341 3281 1617 3432 
Q 1894 3584 2278 3584 
Q 2916 3584 3314 3078 
Q 3713 2572 3713 1747 
Q 3713 922 3314 415 
Q 2916 -91 2278 -91 
Q 1894 -91 1617 61 
Q 1341 213 1159 525 
L 1159 0 
L 581 0 
L 581 4863 
L 1159 4863 
L 1159 2969 
z
" transform="scale(0.015625)"/>
      <path id="DejaVuSans-39" d="M 703 97 
L 703 672 
Q 941 559 1184 500 
Q 1428 441 1663 441 
Q 2288 441 2617 861 
Q 2947 1281 2994 2138 
Q 2813 1869 2534 1725 
Q 2256 1581 1919 1581 
Q 1219 1581 811 2004 
Q 403 2428 403 3163 
Q 403 3881 828 4315 
Q 1253 4750 1959 4750 
Q 2769 4750 3195 4129 
Q 3622 3509 3622 2328 
Q 3622 1225 3098 567 
Q 2575 -91 1691 -91 
Q 1453 -91 1209 -44 
Q 966 3 703 97 
z
M 1959 2075 
Q 2384 2075 2632 2365 
Q 2881 2656 2881 3163 
Q 2881 3666 2632 3958 
Q 2384 4250 1959 4250 
Q 1534 4250 1286 3958 
Q 1038 3666 1038 3163 
Q 1038 2656 1286 2365 
Q 1534 2075 1959 2075 
z
" transform="scale(0.015625)"/>
     </defs>
     <use xlink:href="#DejaVuSans-62"/>
     <use xlink:href="#DejaVuSans-65" x="63.476562"/>
     <use xlink:href="#DejaVuSans-73" x="125"/>
     <use xlink:href="#DejaVuSans-74" x="177.099609"/>
     <use xlink:href="#DejaVuSans-20" x="216.308594"/>
     <use xlink:href="#DejaVuSans-32" x="248.095703"/>
     <use xlink:href="#DejaVuSans-30" x="311.71875"/>
     <use xlink:href="#DejaVuSans-30" x="375.341797"/>
     <use xlink:href="#DejaVuSans-39" x="438.964844"/>
    </g>
   </g>
   <g id="text_17">
    <!-- bbob f2, 5-D -->
    <g transform="translate(60.632064 38.111366)scale(0.102 -0.102)">
     <defs>
      <path id="DejaVuSans-35" d="M 691 4666 
L 3169 4666 
L 3169 4134 
L 1269 4134 
L 1269 2991 
Q 1406 3038 1543 3061 
Q 1681 3084 1819 3084 
Q 2600 3084 3056 2656 
Q 3513 2228 3513 1497 
Q 3513 744 3044 326 
Q 2575 -91 1722 -91 
Q 1428 -91 1123 -41 
Q 819 9 494 109 
L 494 744 
Q 775 591 1075 516 
Q 1375 441 1709 441 
Q 2250 441 2565 725 
Q 2881 1009 2881 1497 
Q 2881 1984 2565 2268 
Q 2250 2553 1709 2553 
Q 1456 2553 1204 2497 
Q 953 2441 691 2322 
L 691 4666 
z
" transform="scale(0.015625)"/>
      <path id="DejaVuSans-44" d="M 1259 4147 
L 1259 519 
L 2022 519 
Q 2988 519 3436 956 
Q 3884 1394 3884 2338 
Q 3884 3275 3436 3711 
Q 2988 4147 2022 4147 
L 1259 4147 
z
M 628 4666 
L 1925 4666 
Q 3281 4666 3915 4102 
Q 4550 3538 4550 2338 
Q 4550 1131 3912 565 
Q 3275 0 1925 0 
L 628 0 
L 628 4666 
z
" transform="scale(0.015625)"/>
     </defs>
     <use xlink:href="#DejaVuSans-62"/>
     <use xlink:href="#DejaVuSans-62" x="63.476562"/>
     <use xlink:href="#DejaVuSans-6f" x="126.953125"/>
     <use xlink:href="#DejaVuSans-62" x="188.134766"/>
     <use xlink:href="#DejaVuSans-20" x="251.611328"/>
     <use xlink:href="#DejaVuSans-66" x="283.398438"/>
     <use xlink:href="#DejaVuSans-32" x="318.603516"/>
     <use xlink:href="#DejaVuSans-2c" x="382.226562"/>
     <use xlink:href="#DejaVuSans-20" x="414.013672"/>
     <use xlink:href="#DejaVuSans-35" x="445.800781"/>
     <use xlink:href="#DejaVuSans-2d" x="509.423828"/>
     <use xlink:href="#DejaVuSans-44" x="545.507812"/>
    </g>
    <!-- 51 targets: 100..1e-08 -->
    <g transform="translate(60.632064 49.533135)scale(0.102 -0.102)">
     <defs>
      <path id="DejaVuSans-3a" d="M 750 794 
L 1409 794 
L 1409 0 
L 750 0 
L 750 794 
z
M 750 3309 
L 1409 3309 
L 1409 2516 
L 750 2516 
L 750 3309 
z
" transform="scale(0.015625)"/>
     </defs>
     <use xlink:href="#DejaVuSans-35"/>
     <use xlink:href="#DejaVuSans-31" x="63.623047"/>
     <use xlink:href="#DejaVuSans-20" x="127.246094"/>
     <use xlink:href="#DejaVuSans-74" x="159.033203"/>
     <use xlink:href="#DejaVuSans-61" x="198.242188"/>
     <use xlink:href="#DejaVuSans-72" x="259.521484"/>
     <use xlink:href="#DejaVuSans-67" x="298.884766"/>
     <use xlink:href="#DejaVuSans-65" x="362.361328"/>
     <use xlink:href="#DejaVuSans-74" x="423.884766"/>
     <use xlink:href="#DejaVuSans-73" x="463.09375"/>
     <use xlink:href="#DejaVuSans-3a" x="515.193359"/>
     <use xlink:href="#DejaVuSans-20" x="548.884766"/>
     <use xlink:href="#DejaVuSans-31" x="580.671875"/>
     <use xlink:href="#DejaVuSans-30" x="644.294922"/>
     <use xlink:href="#DejaVuSans-30" x="707.917969"/>
     <use xlink:href="#DejaVuSans-2e" x="771.541016"/>
     <use xlink:href="#DejaVuSans-2e" x="803.328125"/>
     <use xlink:href="#DejaVuSans-31" x="835.115234"/>
     <use xlink:href="#DejaVuSans-65" x="898.738281"/>
     <use xlink:href="#DejaVuSans-2d" x="960.261719"/>
     <use xlink:href="#DejaVuSans-30" x="996.345703"/>
     <use xlink:href="#DejaVuSans-38" x="1059.96875"/>
    </g>
    <!-- 15 instances -->
    <g transform="translate(60.632064 60.954904)scale(0.102 -0.102)">
     <use xlink:href="#DejaVuSans-31"/>
     <use xlink:href="#DejaVuSans-35" x="63.623047"/>
     <use xlink:href="#DejaVuSans-20" x="127.246094"/>
     <use xlink:href="#DejaVuSans-69" x="159.033203"/>
     <use xlink:href="#DejaVuSans-6e" x="186.816406"/>
     <use xlink:href="#DejaVuSans-73" x="250.195312"/>
     <use xlink:href="#DejaVuSans-74" x="302.294922"/>
     <use xlink:href="#DejaVuSans-61" x="341.503906"/>
     <use xlink:href="#DejaVuSans-6e" x="402.783203"/>
     <use xlink:href="#DejaVuSans-63" x="466.162109"/>
     <use xlink:href="#DejaVuSans-65" x="521.142578"/>
     <use xlink:href="#DejaVuSans-73" x="582.666016"/>
    </g>
   </g>
   <g id="text_18">
    <!-- v2.6 -->
    <g style="fill: #808080" transform="translate(198.292262 294.151352)scale(0.1 -0.1)">
     <use xlink:href="#DejaVuSans-76"/>
     <use xlink:href="#DejaVuSans-32" x="59.179688"/>
     <use xlink:href="#DejaVuSans-2e" x="122.802734"/>
     <use xlink:href="#DejaVuSans-36" x="154.589844"/>
    </g>
   </g>
   <g id="text_19">
    <!-- 2 Ellipsoid separable -->
    <g transform="translate(105.670387 21.648)scale(0.2 -0.2)">
     <use xlink:href="#DejaVuSans-32"/>
     <use xlink:href="#DejaVuSans-20" x="63.623047"/>
     <use xlink:href="#DejaVuSans-45" x="95.410156"/>
     <use xlink:href="#DejaVuSans-6c" x="158.59375"/>
     <use xlink:href="#DejaVuSans-6c" x="186.376953"/>
     <use xlink:href="#DejaVuSans-69" x="214.160156"/>
     <use xlink:href="#DejaVuSans-70" x="241.943359"/>
     <use xlink:href="#DejaVuSans-73" x="305.419922"/>
     <use xlink:href="#DejaVuSans-6f" x="357.519531"/>
     <use xlink:href="#DejaVuSans-69" x="418.701172"/>
     <use xlink:href="#DejaVuSans-64" x="446.484375"/>
     <use xlink:href="#DejaVuSans-20" x="509.960938"/>
     <use xlink:href="#DejaVuSans-73" x="541.748047"/>
     <use xlink:href="#DejaVuSans-65" x="593.847656"/>
     <use xlink:href="#DejaVuSans-70" x="655.371094"/>
     <use xlink:href="#DejaVuSans-61" x="718.847656"/>
     <use xlink:href="#DejaVuSans-72" x="780.126953"/>
     <use xlink:href="#DejaVuSans-61" x="821.240234"/>
     <use xlink:href="#DejaVuSans-62" x="882.519531"/>
     <use xlink:href="#DejaVuSans-6c" x="945.996094"/>
     <use xlink:href="#DejaVuSans-65" x="973.779297"/>
    </g>
   </g>
  </g>
 </g>
 <defs>
  <clipPath id="pd3d2f8dfdb">
   <rect x="57.6" y="27.648" width="303.2064" height="271.296"/>
  </clipPath>
 </defs>
</svg>
