<?xml version="1.0" encoding="utf-8" standalone="no"?>
<!DOCTYPE svg PUBLIC "-//W3C//DTD SVG 1.1//EN"
  "http://www.w3.org/Graphics/SVG/1.1/DTD/svg11.dtd">
<svg xmlns:xlink="http://www.w3.org/1999/xlink" width="460.8pt" height="345.6pt" viewBox="0 0 460.8 345.6" xmlns="http://www.w3.org/2000/svg" version="1.1">
 <metadata>
  <rdf:RDF xmlns:dc="http://purl.org/dc/elements/1.1/" xmlns:cc="http://creativecommons.org/ns#" xmlns:rdf="http://www.w3.org/1999/02/22-rdf-syntax-ns#">
   <cc:Work>
    <dc:type rdf:resource="http://purl.org/dc/dcmitype/StillImage"/>
    <dc:date>2022-03-28T13:44:49.233455</dc:date>
    <dc:format>image/svg+xml</dc:format>
    <dc:creator>
     <cc:Agent>
      <dc:title>Matplotlib v3.5.1, https://matplotlib.org/</dc:title>
     </cc:Agent>
    </dc:creator>
   </cc:Work>
  </rdf:RDF>
 </metadata>
 <defs>
  <style type="text/css">*{stroke-linejoin: round; stroke-linecap: butt}</style>
 </defs>
 <g id="figure_1">
  <g id="patch_1">
   <path d="M 0 345.6 
L 460.8 345.6 
L 460.8 0 
L 0 0 
z
" style="fill: #ffffff"/>
  </g>
  <g id="axes_1">
   <g id="patch_2">
    <path d="M 57.6 298.944 
L 360.8064 298.944 
L 360.8064 27.648 
L 57.6 27.648 
z
" style="fill: #ffffff"/>
   </g>
   <g id="line2d_1">
    <path d="M 78.266603 298.944 
L 78.266603 293.624471 
L 86.307488 293.624471 
L 86.307488 288.304941 
L 92.519847 288.304941 
L 92.519847 282.985412 
L 108.034177 282.985412 
L 108.034177 277.665882 
L 109.037698 277.665882 
L 109.037698 272.346353 
L 150.985103 272.346353 
L 150.985103 267.026824 
L 157.438121 267.026824 
L 157.438121 261.707294 
L 159.535354 261.707294 
L 159.535354 256.387765 
L 162.05979 256.387765 
L 162.05979 251.068235 
L 166.274957 251.068235 
L 166.274957 245.748706 
L 166.367969 245.748706 
L 166.367969 240.429176 
L 166.518139 240.429176 
L 166.518139 235.109647 
L 166.529641 235.109647 
L 166.529641 229.790118 
L 166.541136 229.790118 
L 166.541136 213.831529 
L 166.564105 213.831529 
L 166.564105 208.512 
L 166.575579 208.512 
L 166.575579 197.872941 
L 166.587046 197.872941 
L 166.587046 192.553412 
L 166.598506 192.553412 
L 166.598506 176.594824 
L 166.609959 176.594824 
L 166.609959 171.275294 
L 166.632844 171.275294 
L 166.632844 165.955765 
L 166.644276 165.955765 
L 166.644276 155.316706 
L 166.655701 155.316706 
L 166.655701 149.997176 
L 166.667119 149.997176 
L 166.667119 139.358118 
L 166.678531 139.358118 
L 166.678531 118.08 
L 166.689935 118.08 
L 166.689935 107.440941 
L 166.701332 107.440941 
L 166.701332 80.843294 
L 166.724107 80.843294 
L 166.724107 64.884706 
L 166.735484 64.884706 
L 166.735484 54.245647 
L 166.746854 54.245647 
L 166.746854 48.926118 
L 166.758217 48.926118 
L 166.758217 32.967529 
L 166.769573 32.967529 
L 166.769573 27.648 
L 360.8064 27.648 
" style="fill: none; stroke: #f5deb3; stroke-width: 4; stroke-linecap: square"/>
   </g>
   <g id="line2d_2">
    <defs>
     <path id="mb206161a40" d="M -0 7.778175 
L 7.778175 0 
L 0 -7.778175 
L -7.778175 -0 
z
" style="stroke: #f5deb3; stroke-width: 1.5; stroke-linejoin: miter"/>
    </defs>
    <g>
     <use xlink:href="#mb206161a40" x="109.037698" y="272.346353" style="fill: #f5deb3; stroke: #f5deb3; stroke-width: 1.5; stroke-linejoin: miter"/>
     <use xlink:href="#mb206161a40" x="166.655701" y="155.316706" style="fill: #f5deb3; stroke: #f5deb3; stroke-width: 1.5; stroke-linejoin: miter"/>
     <use xlink:href="#mb206161a40" x="166.769573" y="32.967529" style="fill: #f5deb3; stroke: #f5deb3; stroke-width: 1.5; stroke-linejoin: miter"/>
     <use xlink:href="#mb206161a40" x="166.769573" y="27.648" style="fill: #f5deb3; stroke: #f5deb3; stroke-width: 1.5; stroke-linejoin: miter"/>
     <use xlink:href="#mb206161a40" x="360.8064" y="27.648" style="fill: #f5deb3; stroke: #f5deb3; stroke-width: 1.5; stroke-linejoin: miter"/>
    </g>
   </g>
   <g id="line2d_3">
    <path style="fill: none; stroke: #f5deb3; stroke-width: 4; stroke-linecap: square"/>
    <g/>
   </g>
   <g id="line2d_4">
    <path d="M 360.8064 27.648 
L 380.514816 33.07392 
" style="fill: none; stroke: #f5deb3; stroke-width: 4; stroke-linecap: square"/>
    <g>
     <use xlink:href="#mb206161a40" x="360.8064" y="27.648" style="fill: #f5deb3; stroke: #f5deb3; stroke-width: 1.5; stroke-linejoin: miter"/>
     <use xlink:href="#mb206161a40" x="380.514816" y="33.07392" style="fill: #f5deb3; stroke: #f5deb3; stroke-width: 1.5; stroke-linejoin: miter"/>
    </g>
   </g>
   <g id="matplotlib.axis_1">
    <g id="xtick_1">
     <g id="line2d_5">
      <path d="M 57.6 298.944 
L 57.6 27.648 
" clip-path="url(#p3773cf554c)" style="fill: none; stroke: #b0b0b0; stroke-width: 0.8; stroke-linecap: square"/>
     </g>
     <g id="line2d_6">
      <defs>
       <path id="m39802eaf18" d="M 0 0 
L 0 3.5 
" style="stroke: #000000; stroke-width: 0.8"/>
      </defs>
      <g>
       <use xlink:href="#m39802eaf18" x="57.6" y="298.944" style="stroke: #000000; stroke-width: 0.8"/>
      </g>
     </g>
     <g id="text_1">
      <!-- 0 -->
      <g transform="translate(52.191875 318.861344)scale(0.17 -0.17)">
       <defs>
        <path id="DejaVuSans-30" d="M 2034 4250 
Q 1547 4250 1301 3770 
Q 1056 3291 1056 2328 
Q 1056 1369 1301 889 
Q 1547 409 2034 409 
Q 2525 409 2770 889 
Q 3016 1369 3016 2328 
Q 3016 3291 2770 3770 
Q 2525 4250 2034 4250 
z
M 2034 4750 
Q 2819 4750 3233 4129 
Q 3647 3509 3647 2328 
Q 3647 1150 3233 529 
Q 2819 -91 2034 -91 
Q 1250 -91 836 529 
Q 422 1150 422 2328 
Q 422 3509 836 4129 
Q 1250 4750 2034 4750 
z
" transform="scale(0.015625)"/>
       </defs>
       <use xlink:href="#DejaVuSans-30"/>
      </g>
     </g>
    </g>
    <g id="xtick_2">
     <g id="line2d_7">
      <path d="M 144.2304 298.944 
L 144.2304 27.648 
" clip-path="url(#p3773cf554c)" style="fill: none; stroke: #b0b0b0; stroke-width: 0.8; stroke-linecap: square"/>
     </g>
     <g id="line2d_8">
      <g>
       <use xlink:href="#m39802eaf18" x="144.2304" y="298.944" style="stroke: #000000; stroke-width: 0.8"/>
      </g>
     </g>
     <g id="text_2">
      <!-- 2 -->
      <g transform="translate(138.822275 318.861344)scale(0.17 -0.17)">
       <defs>
        <path id="DejaVuSans-32" d="M 1228 531 
L 3431 531 
L 3431 0 
L 469 0 
L 469 531 
Q 828 903 1448 1529 
Q 2069 2156 2228 2338 
Q 2531 2678 2651 2914 
Q 2772 3150 2772 3378 
Q 2772 3750 2511 3984 
Q 2250 4219 1831 4219 
Q 1534 4219 1204 4116 
Q 875 4013 500 3803 
L 500 4441 
Q 881 4594 1212 4672 
Q 1544 4750 1819 4750 
Q 2544 4750 2975 4387 
Q 3406 4025 3406 3419 
Q 3406 3131 3298 2873 
Q 3191 2616 2906 2266 
Q 2828 2175 2409 1742 
Q 1991 1309 1228 531 
z
" transform="scale(0.015625)"/>
       </defs>
       <use xlink:href="#DejaVuSans-32"/>
      </g>
     </g>
    </g>
    <g id="xtick_3">
     <g id="line2d_9">
      <path d="M 230.8608 298.944 
L 230.8608 27.648 
" clip-path="url(#p3773cf554c)" style="fill: none; stroke: #b0b0b0; stroke-width: 0.8; stroke-linecap: square"/>
     </g>
     <g id="line2d_10">
      <g>
       <use xlink:href="#m39802eaf18" x="230.8608" y="298.944" style="stroke: #000000; stroke-width: 0.8"/>
      </g>
     </g>
     <g id="text_3">
      <!-- 4 -->
      <g transform="translate(225.452675 318.861344)scale(0.17 -0.17)">
       <defs>
        <path id="DejaVuSans-34" d="M 2419 4116 
L 825 1625 
L 2419 1625 
L 2419 4116 
z
M 2253 4666 
L 3047 4666 
L 3047 1625 
L 3713 1625 
L 3713 1100 
L 3047 1100 
L 3047 0 
L 2419 0 
L 2419 1100 
L 313 1100 
L 313 1709 
L 2253 4666 
z
" transform="scale(0.015625)"/>
       </defs>
       <use xlink:href="#DejaVuSans-34"/>
      </g>
     </g>
    </g>
    <g id="xtick_4">
     <g id="line2d_11">
      <path d="M 317.4912 298.944 
L 317.4912 27.648 
" clip-path="url(#p3773cf554c)" style="fill: none; stroke: #b0b0b0; stroke-width: 0.8; stroke-linecap: square"/>
     </g>
     <g id="line2d_12">
      <g>
       <use xlink:href="#m39802eaf18" x="317.4912" y="298.944" style="stroke: #000000; stroke-width: 0.8"/>
      </g>
     </g>
     <g id="text_4">
      <!-- 6 -->
      <g transform="translate(312.083075 318.861344)scale(0.17 -0.17)">
       <defs>
        <path id="DejaVuSans-36" d="M 2113 2584 
Q 1688 2584 1439 2293 
Q 1191 2003 1191 1497 
Q 1191 994 1439 701 
Q 1688 409 2113 409 
Q 2538 409 2786 701 
Q 3034 994 3034 1497 
Q 3034 2003 2786 2293 
Q 2538 2584 2113 2584 
z
M 3366 4563 
L 3366 3988 
Q 3128 4100 2886 4159 
Q 2644 4219 2406 4219 
Q 1781 4219 1451 3797 
Q 1122 3375 1075 2522 
Q 1259 2794 1537 2939 
Q 1816 3084 2150 3084 
Q 2853 3084 3261 2657 
Q 3669 2231 3669 1497 
Q 3669 778 3244 343 
Q 2819 -91 2113 -91 
Q 1303 -91 875 529 
Q 447 1150 447 2328 
Q 447 3434 972 4092 
Q 1497 4750 2381 4750 
Q 2619 4750 2861 4703 
Q 3103 4656 3366 4563 
z
" transform="scale(0.015625)"/>
       </defs>
       <use xlink:href="#DejaVuSans-36"/>
      </g>
     </g>
    </g>
    <g id="xtick_5">
     <g id="line2d_13">
      <path d="M 100.9152 298.944 
L 100.9152 27.648 
" clip-path="url(#p3773cf554c)" style="fill: none; stroke: #b0b0b0; stroke-width: 0.8; stroke-linecap: square"/>
     </g>
     <g id="line2d_14">
      <defs>
       <path id="mfafdc8afde" d="M 0 0 
L 0 2 
" style="stroke: #000000; stroke-width: 0.6"/>
      </defs>
      <g>
       <use xlink:href="#mfafdc8afde" x="100.9152" y="298.944" style="stroke: #000000; stroke-width: 0.6"/>
      </g>
     </g>
    </g>
    <g id="xtick_6">
     <g id="line2d_15">
      <path d="M 187.5456 298.944 
L 187.5456 27.648 
" clip-path="url(#p3773cf554c)" style="fill: none; stroke: #b0b0b0; stroke-width: 0.8; stroke-linecap: square"/>
     </g>
     <g id="line2d_16">
      <g>
       <use xlink:href="#mfafdc8afde" x="187.5456" y="298.944" style="stroke: #000000; stroke-width: 0.6"/>
      </g>
     </g>
    </g>
    <g id="xtick_7">
     <g id="line2d_17">
      <path d="M 274.176 298.944 
L 274.176 27.648 
" clip-path="url(#p3773cf554c)" style="fill: none; stroke: #b0b0b0; stroke-width: 0.8; stroke-linecap: square"/>
     </g>
     <g id="line2d_18">
      <g>
       <use xlink:href="#mfafdc8afde" x="274.176" y="298.944" style="stroke: #000000; stroke-width: 0.6"/>
      </g>
     </g>
    </g>
    <g id="xtick_8">
     <g id="line2d_19">
      <path d="M 360.8064 298.944 
L 360.8064 27.648 
" clip-path="url(#p3773cf554c)" style="fill: none; stroke: #b0b0b0; stroke-width: 0.8; stroke-linecap: square"/>
     </g>
     <g id="line2d_20">
      <g>
       <use xlink:href="#mfafdc8afde" x="360.8064" y="298.944" style="stroke: #000000; stroke-width: 0.6"/>
      </g>
     </g>
    </g>
    <g id="text_5">
     <!-- log10(# f-evals / dimension) -->
     <g transform="translate(88.823278 339.314156)scale(0.17 -0.17)">
      <defs>
       <path id="DejaVuSans-6c" d="M 603 4863 
L 1178 4863 
L 1178 0 
L 603 0 
L 603 4863 
z
" transform="scale(0.015625)"/>
       <path id="DejaVuSans-6f" d="M 1959 3097 
Q 1497 3097 1228 2736 
Q 959 2375 959 1747 
Q 959 1119 1226 758 
Q 1494 397 1959 397 
Q 2419 397 2687 759 
Q 2956 1122 2956 1747 
Q 2956 2369 2687 2733 
Q 2419 3097 1959 3097 
z
M 1959 3584 
Q 2709 3584 3137 3096 
Q 3566 2609 3566 1747 
Q 3566 888 3137 398 
Q 2709 -91 1959 -91 
Q 1206 -91 779 398 
Q 353 888 353 1747 
Q 353 2609 779 3096 
Q 1206 3584 1959 3584 
z
" transform="scale(0.015625)"/>
       <path id="DejaVuSans-67" d="M 2906 1791 
Q 2906 2416 2648 2759 
Q 2391 3103 1925 3103 
Q 1463 3103 1205 2759 
Q 947 2416 947 1791 
Q 947 1169 1205 825 
Q 1463 481 1925 481 
Q 2391 481 2648 825 
Q 2906 1169 2906 1791 
z
M 3481 434 
Q 3481 -459 3084 -895 
Q 2688 -1331 1869 -1331 
Q 1566 -1331 1297 -1286 
Q 1028 -1241 775 -1147 
L 775 -588 
Q 1028 -725 1275 -790 
Q 1522 -856 1778 -856 
Q 2344 -856 2625 -561 
Q 2906 -266 2906 331 
L 2906 616 
Q 2728 306 2450 153 
Q 2172 0 1784 0 
Q 1141 0 747 490 
Q 353 981 353 1791 
Q 353 2603 747 3093 
Q 1141 3584 1784 3584 
Q 2172 3584 2450 3431 
Q 2728 3278 2906 2969 
L 2906 3500 
L 3481 3500 
L 3481 434 
z
" transform="scale(0.015625)"/>
       <path id="DejaVuSans-31" d="M 794 531 
L 1825 531 
L 1825 4091 
L 703 3866 
L 703 4441 
L 1819 4666 
L 2450 4666 
L 2450 531 
L 3481 531 
L 3481 0 
L 794 0 
L 794 531 
z
" transform="scale(0.015625)"/>
       <path id="DejaVuSans-28" d="M 1984 4856 
Q 1566 4138 1362 3434 
Q 1159 2731 1159 2009 
Q 1159 1288 1364 580 
Q 1569 -128 1984 -844 
L 1484 -844 
Q 1016 -109 783 600 
Q 550 1309 550 2009 
Q 550 2706 781 3412 
Q 1013 4119 1484 4856 
L 1984 4856 
z
" transform="scale(0.015625)"/>
       <path id="DejaVuSans-23" d="M 3272 2816 
L 2363 2816 
L 2100 1772 
L 3016 1772 
L 3272 2816 
z
M 2803 4594 
L 2478 3297 
L 3391 3297 
L 3719 4594 
L 4219 4594 
L 3897 3297 
L 4872 3297 
L 4872 2816 
L 3775 2816 
L 3519 1772 
L 4513 1772 
L 4513 1294 
L 3397 1294 
L 3072 0 
L 2572 0 
L 2894 1294 
L 1978 1294 
L 1656 0 
L 1153 0 
L 1478 1294 
L 494 1294 
L 494 1772 
L 1594 1772 
L 1856 2816 
L 850 2816 
L 850 3297 
L 1978 3297 
L 2297 4594 
L 2803 4594 
z
" transform="scale(0.015625)"/>
       <path id="DejaVuSans-20" transform="scale(0.015625)"/>
       <path id="DejaVuSans-66" d="M 2375 4863 
L 2375 4384 
L 1825 4384 
Q 1516 4384 1395 4259 
Q 1275 4134 1275 3809 
L 1275 3500 
L 2222 3500 
L 2222 3053 
L 1275 3053 
L 1275 0 
L 697 0 
L 697 3053 
L 147 3053 
L 147 3500 
L 697 3500 
L 697 3744 
Q 697 4328 969 4595 
Q 1241 4863 1831 4863 
L 2375 4863 
z
" transform="scale(0.015625)"/>
       <path id="DejaVuSans-2d" d="M 313 2009 
L 1997 2009 
L 1997 1497 
L 313 1497 
L 313 2009 
z
" transform="scale(0.015625)"/>
       <path id="DejaVuSans-65" d="M 3597 1894 
L 3597 1613 
L 953 1613 
Q 991 1019 1311 708 
Q 1631 397 2203 397 
Q 2534 397 2845 478 
Q 3156 559 3463 722 
L 3463 178 
Q 3153 47 2828 -22 
Q 2503 -91 2169 -91 
Q 1331 -91 842 396 
Q 353 884 353 1716 
Q 353 2575 817 3079 
Q 1281 3584 2069 3584 
Q 2775 3584 3186 3129 
Q 3597 2675 3597 1894 
z
M 3022 2063 
Q 3016 2534 2758 2815 
Q 2500 3097 2075 3097 
Q 1594 3097 1305 2825 
Q 1016 2553 972 2059 
L 3022 2063 
z
" transform="scale(0.015625)"/>
       <path id="DejaVuSans-76" d="M 191 3500 
L 800 3500 
L 1894 563 
L 2988 3500 
L 3597 3500 
L 2284 0 
L 1503 0 
L 191 3500 
z
" transform="scale(0.015625)"/>
       <path id="DejaVuSans-61" d="M 2194 1759 
Q 1497 1759 1228 1600 
Q 959 1441 959 1056 
Q 959 750 1161 570 
Q 1363 391 1709 391 
Q 2188 391 2477 730 
Q 2766 1069 2766 1631 
L 2766 1759 
L 2194 1759 
z
M 3341 1997 
L 3341 0 
L 2766 0 
L 2766 531 
Q 2569 213 2275 61 
Q 1981 -91 1556 -91 
Q 1019 -91 701 211 
Q 384 513 384 1019 
Q 384 1609 779 1909 
Q 1175 2209 1959 2209 
L 2766 2209 
L 2766 2266 
Q 2766 2663 2505 2880 
Q 2244 3097 1772 3097 
Q 1472 3097 1187 3025 
Q 903 2953 641 2809 
L 641 3341 
Q 956 3463 1253 3523 
Q 1550 3584 1831 3584 
Q 2591 3584 2966 3190 
Q 3341 2797 3341 1997 
z
" transform="scale(0.015625)"/>
       <path id="DejaVuSans-73" d="M 2834 3397 
L 2834 2853 
Q 2591 2978 2328 3040 
Q 2066 3103 1784 3103 
Q 1356 3103 1142 2972 
Q 928 2841 928 2578 
Q 928 2378 1081 2264 
Q 1234 2150 1697 2047 
L 1894 2003 
Q 2506 1872 2764 1633 
Q 3022 1394 3022 966 
Q 3022 478 2636 193 
Q 2250 -91 1575 -91 
Q 1294 -91 989 -36 
Q 684 19 347 128 
L 347 722 
Q 666 556 975 473 
Q 1284 391 1588 391 
Q 1994 391 2212 530 
Q 2431 669 2431 922 
Q 2431 1156 2273 1281 
Q 2116 1406 1581 1522 
L 1381 1569 
Q 847 1681 609 1914 
Q 372 2147 372 2553 
Q 372 3047 722 3315 
Q 1072 3584 1716 3584 
Q 2034 3584 2315 3537 
Q 2597 3491 2834 3397 
z
" transform="scale(0.015625)"/>
       <path id="DejaVuSans-2f" d="M 1625 4666 
L 2156 4666 
L 531 -594 
L 0 -594 
L 1625 4666 
z
" transform="scale(0.015625)"/>
       <path id="DejaVuSans-64" d="M 2906 2969 
L 2906 4863 
L 3481 4863 
L 3481 0 
L 2906 0 
L 2906 525 
Q 2725 213 2448 61 
Q 2172 -91 1784 -91 
Q 1150 -91 751 415 
Q 353 922 353 1747 
Q 353 2572 751 3078 
Q 1150 3584 1784 3584 
Q 2172 3584 2448 3432 
Q 2725 3281 2906 2969 
z
M 947 1747 
Q 947 1113 1208 752 
Q 1469 391 1925 391 
Q 2381 391 2643 752 
Q 2906 1113 2906 1747 
Q 2906 2381 2643 2742 
Q 2381 3103 1925 3103 
Q 1469 3103 1208 2742 
Q 947 2381 947 1747 
z
" transform="scale(0.015625)"/>
       <path id="DejaVuSans-69" d="M 603 3500 
L 1178 3500 
L 1178 0 
L 603 0 
L 603 3500 
z
M 603 4863 
L 1178 4863 
L 1178 4134 
L 603 4134 
L 603 4863 
z
" transform="scale(0.015625)"/>
       <path id="DejaVuSans-6d" d="M 3328 2828 
Q 3544 3216 3844 3400 
Q 4144 3584 4550 3584 
Q 5097 3584 5394 3201 
Q 5691 2819 5691 2113 
L 5691 0 
L 5113 0 
L 5113 2094 
Q 5113 2597 4934 2840 
Q 4756 3084 4391 3084 
Q 3944 3084 3684 2787 
Q 3425 2491 3425 1978 
L 3425 0 
L 2847 0 
L 2847 2094 
Q 2847 2600 2669 2842 
Q 2491 3084 2119 3084 
Q 1678 3084 1418 2786 
Q 1159 2488 1159 1978 
L 1159 0 
L 581 0 
L 581 3500 
L 1159 3500 
L 1159 2956 
Q 1356 3278 1631 3431 
Q 1906 3584 2284 3584 
Q 2666 3584 2933 3390 
Q 3200 3197 3328 2828 
z
" transform="scale(0.015625)"/>
       <path id="DejaVuSans-6e" d="M 3513 2113 
L 3513 0 
L 2938 0 
L 2938 2094 
Q 2938 2591 2744 2837 
Q 2550 3084 2163 3084 
Q 1697 3084 1428 2787 
Q 1159 2491 1159 1978 
L 1159 0 
L 581 0 
L 581 3500 
L 1159 3500 
L 1159 2956 
Q 1366 3272 1645 3428 
Q 1925 3584 2291 3584 
Q 2894 3584 3203 3211 
Q 3513 2838 3513 2113 
z
" transform="scale(0.015625)"/>
       <path id="DejaVuSans-29" d="M 513 4856 
L 1013 4856 
Q 1481 4119 1714 3412 
Q 1947 2706 1947 2009 
Q 1947 1309 1714 600 
Q 1481 -109 1013 -844 
L 513 -844 
Q 928 -128 1133 580 
Q 1338 1288 1338 2009 
Q 1338 2731 1133 3434 
Q 928 4138 513 4856 
z
" transform="scale(0.015625)"/>
      </defs>
      <use xlink:href="#DejaVuSans-6c"/>
      <use xlink:href="#DejaVuSans-6f" x="27.783203"/>
      <use xlink:href="#DejaVuSans-67" x="88.964844"/>
      <use xlink:href="#DejaVuSans-31" x="152.441406"/>
      <use xlink:href="#DejaVuSans-30" x="216.064453"/>
      <use xlink:href="#DejaVuSans-28" x="279.6875"/>
      <use xlink:href="#DejaVuSans-23" x="318.701172"/>
      <use xlink:href="#DejaVuSans-20" x="402.490234"/>
      <use xlink:href="#DejaVuSans-66" x="434.277344"/>
      <use xlink:href="#DejaVuSans-2d" x="463.982422"/>
      <use xlink:href="#DejaVuSans-65" x="500.066406"/>
      <use xlink:href="#DejaVuSans-76" x="561.589844"/>
      <use xlink:href="#DejaVuSans-61" x="620.769531"/>
      <use xlink:href="#DejaVuSans-6c" x="682.048828"/>
      <use xlink:href="#DejaVuSans-73" x="709.832031"/>
      <use xlink:href="#DejaVuSans-20" x="761.931641"/>
      <use xlink:href="#DejaVuSans-2f" x="793.71875"/>
      <use xlink:href="#DejaVuSans-20" x="827.410156"/>
      <use xlink:href="#DejaVuSans-64" x="859.197266"/>
      <use xlink:href="#DejaVuSans-69" x="922.673828"/>
      <use xlink:href="#DejaVuSans-6d" x="950.457031"/>
      <use xlink:href="#DejaVuSans-65" x="1047.869141"/>
      <use xlink:href="#DejaVuSans-6e" x="1109.392578"/>
      <use xlink:href="#DejaVuSans-73" x="1172.771484"/>
      <use xlink:href="#DejaVuSans-69" x="1224.871094"/>
      <use xlink:href="#DejaVuSans-6f" x="1252.654297"/>
      <use xlink:href="#DejaVuSans-6e" x="1313.835938"/>
      <use xlink:href="#DejaVuSans-29" x="1377.214844"/>
     </g>
    </g>
   </g>
   <g id="matplotlib.axis_2">
    <g id="ytick_1">
     <g id="line2d_21">
      <path d="M 57.6 298.944 
L 360.8064 298.944 
" clip-path="url(#p3773cf554c)" style="fill: none; stroke: #b0b0b0; stroke-width: 0.8; stroke-linecap: square"/>
     </g>
     <g id="line2d_22">
      <defs>
       <path id="m7d762a4e6c" d="M 0 0 
L -3.5 0 
" style="stroke: #000000; stroke-width: 0.8"/>
      </defs>
      <g>
       <use xlink:href="#m7d762a4e6c" x="57.6" y="298.944" style="stroke: #000000; stroke-width: 0.8"/>
      </g>
     </g>
     <g id="text_6">
      <!-- 0.0 -->
      <g transform="translate(25.155 305.02275)scale(0.16 -0.16)">
       <defs>
        <path id="DejaVuSans-2e" d="M 684 794 
L 1344 794 
L 1344 0 
L 684 0 
L 684 794 
z
" transform="scale(0.015625)"/>
       </defs>
       <use xlink:href="#DejaVuSans-30"/>
       <use xlink:href="#DejaVuSans-2e" x="63.623047"/>
       <use xlink:href="#DejaVuSans-30" x="95.410156"/>
      </g>
     </g>
    </g>
    <g id="ytick_2">
     <g id="line2d_23">
      <path d="M 57.6 244.6848 
L 360.8064 244.6848 
" clip-path="url(#p3773cf554c)" style="fill: none; stroke: #b0b0b0; stroke-width: 0.8; stroke-linecap: square"/>
     </g>
     <g id="line2d_24">
      <g>
       <use xlink:href="#m7d762a4e6c" x="57.6" y="244.6848" style="stroke: #000000; stroke-width: 0.8"/>
      </g>
     </g>
     <g id="text_7">
      <!-- 0.2 -->
      <g transform="translate(25.155 250.76355)scale(0.16 -0.16)">
       <use xlink:href="#DejaVuSans-30"/>
       <use xlink:href="#DejaVuSans-2e" x="63.623047"/>
       <use xlink:href="#DejaVuSans-32" x="95.410156"/>
      </g>
     </g>
    </g>
    <g id="ytick_3">
     <g id="line2d_25">
      <path d="M 57.6 190.4256 
L 360.8064 190.4256 
" clip-path="url(#p3773cf554c)" style="fill: none; stroke: #b0b0b0; stroke-width: 0.8; stroke-linecap: square"/>
     </g>
     <g id="line2d_26">
      <g>
       <use xlink:href="#m7d762a4e6c" x="57.6" y="190.4256" style="stroke: #000000; stroke-width: 0.8"/>
      </g>
     </g>
     <g id="text_8">
      <!-- 0.4 -->
      <g transform="translate(25.155 196.50435)scale(0.16 -0.16)">
       <use xlink:href="#DejaVuSans-30"/>
       <use xlink:href="#DejaVuSans-2e" x="63.623047"/>
       <use xlink:href="#DejaVuSans-34" x="95.410156"/>
      </g>
     </g>
    </g>
    <g id="ytick_4">
     <g id="line2d_27">
      <path d="M 57.6 136.1664 
L 360.8064 136.1664 
" clip-path="url(#p3773cf554c)" style="fill: none; stroke: #b0b0b0; stroke-width: 0.8; stroke-linecap: square"/>
     </g>
     <g id="line2d_28">
      <g>
       <use xlink:href="#m7d762a4e6c" x="57.6" y="136.1664" style="stroke: #000000; stroke-width: 0.8"/>
      </g>
     </g>
     <g id="text_9">
      <!-- 0.6 -->
      <g transform="translate(25.155 142.24515)scale(0.16 -0.16)">
       <use xlink:href="#DejaVuSans-30"/>
       <use xlink:href="#DejaVuSans-2e" x="63.623047"/>
       <use xlink:href="#DejaVuSans-36" x="95.410156"/>
      </g>
     </g>
    </g>
    <g id="ytick_5">
     <g id="line2d_29">
      <path d="M 57.6 81.9072 
L 360.8064 81.9072 
" clip-path="url(#p3773cf554c)" style="fill: none; stroke: #b0b0b0; stroke-width: 0.8; stroke-linecap: square"/>
     </g>
     <g id="line2d_30">
      <g>
       <use xlink:href="#m7d762a4e6c" x="57.6" y="81.9072" style="stroke: #000000; stroke-width: 0.8"/>
      </g>
     </g>
     <g id="text_10">
      <!-- 0.8 -->
      <g transform="translate(25.155 87.98595)scale(0.16 -0.16)">
       <defs>
        <path id="DejaVuSans-38" d="M 2034 2216 
Q 1584 2216 1326 1975 
Q 1069 1734 1069 1313 
Q 1069 891 1326 650 
Q 1584 409 2034 409 
Q 2484 409 2743 651 
Q 3003 894 3003 1313 
Q 3003 1734 2745 1975 
Q 2488 2216 2034 2216 
z
M 1403 2484 
Q 997 2584 770 2862 
Q 544 3141 544 3541 
Q 544 4100 942 4425 
Q 1341 4750 2034 4750 
Q 2731 4750 3128 4425 
Q 3525 4100 3525 3541 
Q 3525 3141 3298 2862 
Q 3072 2584 2669 2484 
Q 3125 2378 3379 2068 
Q 3634 1759 3634 1313 
Q 3634 634 3220 271 
Q 2806 -91 2034 -91 
Q 1263 -91 848 271 
Q 434 634 434 1313 
Q 434 1759 690 2068 
Q 947 2378 1403 2484 
z
M 1172 3481 
Q 1172 3119 1398 2916 
Q 1625 2713 2034 2713 
Q 2441 2713 2670 2916 
Q 2900 3119 2900 3481 
Q 2900 3844 2670 4047 
Q 2441 4250 2034 4250 
Q 1625 4250 1398 4047 
Q 1172 3844 1172 3481 
z
" transform="scale(0.015625)"/>
       </defs>
       <use xlink:href="#DejaVuSans-30"/>
       <use xlink:href="#DejaVuSans-2e" x="63.623047"/>
       <use xlink:href="#DejaVuSans-38" x="95.410156"/>
      </g>
     </g>
    </g>
    <g id="ytick_6">
     <g id="line2d_31">
      <path d="M 57.6 27.648 
L 360.8064 27.648 
" clip-path="url(#p3773cf554c)" style="fill: none; stroke: #b0b0b0; stroke-width: 0.8; stroke-linecap: square"/>
     </g>
     <g id="line2d_32">
      <g>
       <use xlink:href="#m7d762a4e6c" x="57.6" y="27.648" style="stroke: #000000; stroke-width: 0.8"/>
      </g>
     </g>
     <g id="text_11">
      <!-- 1.0 -->
      <g transform="translate(25.155 33.72675)scale(0.16 -0.16)">
       <use xlink:href="#DejaVuSans-31"/>
       <use xlink:href="#DejaVuSans-2e" x="63.623047"/>
       <use xlink:href="#DejaVuSans-30" x="95.410156"/>
      </g>
     </g>
    </g>
    <g id="text_12">
     <!-- Fraction of function,target pairs -->
     <g transform="translate(17.619531 297.681)rotate(-90)scale(0.17 -0.17)">
      <defs>
       <path id="DejaVuSans-46" d="M 628 4666 
L 3309 4666 
L 3309 4134 
L 1259 4134 
L 1259 2759 
L 3109 2759 
L 3109 2228 
L 1259 2228 
L 1259 0 
L 628 0 
L 628 4666 
z
" transform="scale(0.015625)"/>
       <path id="DejaVuSans-72" d="M 2631 2963 
Q 2534 3019 2420 3045 
Q 2306 3072 2169 3072 
Q 1681 3072 1420 2755 
Q 1159 2438 1159 1844 
L 1159 0 
L 581 0 
L 581 3500 
L 1159 3500 
L 1159 2956 
Q 1341 3275 1631 3429 
Q 1922 3584 2338 3584 
Q 2397 3584 2469 3576 
Q 2541 3569 2628 3553 
L 2631 2963 
z
" transform="scale(0.015625)"/>
       <path id="DejaVuSans-63" d="M 3122 3366 
L 3122 2828 
Q 2878 2963 2633 3030 
Q 2388 3097 2138 3097 
Q 1578 3097 1268 2742 
Q 959 2388 959 1747 
Q 959 1106 1268 751 
Q 1578 397 2138 397 
Q 2388 397 2633 464 
Q 2878 531 3122 666 
L 3122 134 
Q 2881 22 2623 -34 
Q 2366 -91 2075 -91 
Q 1284 -91 818 406 
Q 353 903 353 1747 
Q 353 2603 823 3093 
Q 1294 3584 2113 3584 
Q 2378 3584 2631 3529 
Q 2884 3475 3122 3366 
z
" transform="scale(0.015625)"/>
       <path id="DejaVuSans-74" d="M 1172 4494 
L 1172 3500 
L 2356 3500 
L 2356 3053 
L 1172 3053 
L 1172 1153 
Q 1172 725 1289 603 
Q 1406 481 1766 481 
L 2356 481 
L 2356 0 
L 1766 0 
Q 1100 0 847 248 
Q 594 497 594 1153 
L 594 3053 
L 172 3053 
L 172 3500 
L 594 3500 
L 594 4494 
L 1172 4494 
z
" transform="scale(0.015625)"/>
       <path id="DejaVuSans-75" d="M 544 1381 
L 544 3500 
L 1119 3500 
L 1119 1403 
Q 1119 906 1312 657 
Q 1506 409 1894 409 
Q 2359 409 2629 706 
Q 2900 1003 2900 1516 
L 2900 3500 
L 3475 3500 
L 3475 0 
L 2900 0 
L 2900 538 
Q 2691 219 2414 64 
Q 2138 -91 1772 -91 
Q 1169 -91 856 284 
Q 544 659 544 1381 
z
M 1991 3584 
L 1991 3584 
z
" transform="scale(0.015625)"/>
       <path id="DejaVuSans-2c" d="M 750 794 
L 1409 794 
L 1409 256 
L 897 -744 
L 494 -744 
L 750 256 
L 750 794 
z
" transform="scale(0.015625)"/>
       <path id="DejaVuSans-70" d="M 1159 525 
L 1159 -1331 
L 581 -1331 
L 581 3500 
L 1159 3500 
L 1159 2969 
Q 1341 3281 1617 3432 
Q 1894 3584 2278 3584 
Q 2916 3584 3314 3078 
Q 3713 2572 3713 1747 
Q 3713 922 3314 415 
Q 2916 -91 2278 -91 
Q 1894 -91 1617 61 
Q 1341 213 1159 525 
z
M 3116 1747 
Q 3116 2381 2855 2742 
Q 2594 3103 2138 3103 
Q 1681 3103 1420 2742 
Q 1159 2381 1159 1747 
Q 1159 1113 1420 752 
Q 1681 391 2138 391 
Q 2594 391 2855 752 
Q 3116 1113 3116 1747 
z
" transform="scale(0.015625)"/>
      </defs>
      <use xlink:href="#DejaVuSans-46"/>
      <use xlink:href="#DejaVuSans-72" x="50.269531"/>
      <use xlink:href="#DejaVuSans-61" x="91.382812"/>
      <use xlink:href="#DejaVuSans-63" x="152.662109"/>
      <use xlink:href="#DejaVuSans-74" x="207.642578"/>
      <use xlink:href="#DejaVuSans-69" x="246.851562"/>
      <use xlink:href="#DejaVuSans-6f" x="274.634766"/>
      <use xlink:href="#DejaVuSans-6e" x="335.816406"/>
      <use xlink:href="#DejaVuSans-20" x="399.195312"/>
      <use xlink:href="#DejaVuSans-6f" x="430.982422"/>
      <use xlink:href="#DejaVuSans-66" x="492.164062"/>
      <use xlink:href="#DejaVuSans-20" x="527.369141"/>
      <use xlink:href="#DejaVuSans-66" x="559.15625"/>
      <use xlink:href="#DejaVuSans-75" x="594.361328"/>
      <use xlink:href="#DejaVuSans-6e" x="657.740234"/>
      <use xlink:href="#DejaVuSans-63" x="721.119141"/>
      <use xlink:href="#DejaVuSans-74" x="776.099609"/>
      <use xlink:href="#DejaVuSans-69" x="815.308594"/>
      <use xlink:href="#DejaVuSans-6f" x="843.091797"/>
      <use xlink:href="#DejaVuSans-6e" x="904.273438"/>
      <use xlink:href="#DejaVuSans-2c" x="967.652344"/>
      <use xlink:href="#DejaVuSans-74" x="999.439453"/>
      <use xlink:href="#DejaVuSans-61" x="1038.648438"/>
      <use xlink:href="#DejaVuSans-72" x="1099.927734"/>
      <use xlink:href="#DejaVuSans-67" x="1139.291016"/>
      <use xlink:href="#DejaVuSans-65" x="1202.767578"/>
      <use xlink:href="#DejaVuSans-74" x="1264.291016"/>
      <use xlink:href="#DejaVuSans-20" x="1303.5"/>
      <use xlink:href="#DejaVuSans-70" x="1335.287109"/>
      <use xlink:href="#DejaVuSans-61" x="1398.763672"/>
      <use xlink:href="#DejaVuSans-69" x="1460.042969"/>
      <use xlink:href="#DejaVuSans-72" x="1487.826172"/>
      <use xlink:href="#DejaVuSans-73" x="1528.939453"/>
     </g>
    </g>
   </g>
   <g id="line2d_33">
    <defs>
     <path id="mf0a8a4de40" d="M 0 1.5 
C 0.397805 1.5 0.77937 1.341951 1.06066 1.06066 
C 1.341951 0.77937 1.5 0.397805 1.5 0 
C 1.5 -0.397805 1.341951 -0.77937 1.06066 -1.06066 
C 0.77937 -1.341951 0.397805 -1.5 0 -1.5 
C -0.397805 -1.5 -0.77937 -1.341951 -1.06066 -1.06066 
C -1.341951 -0.77937 -1.5 -0.397805 -1.5 0 
C -1.5 0.397805 -1.341951 0.77937 -1.06066 1.06066 
C -0.77937 1.341951 -0.397805 1.5 0 1.5 
z
" style="stroke: #f5deb3"/>
    </defs>
    <g>
     <use xlink:href="#mf0a8a4de40" x="166.769573" y="27.648" style="fill: #f5deb3; stroke: #f5deb3"/>
     <use xlink:href="#mf0a8a4de40" x="166.769573" y="27.648" style="fill: #f5deb3; stroke: #f5deb3"/>
    </g>
   </g>
   <g id="line2d_34">
    <defs>
     <path id="m7eba6a0f4e" d="M 0 1.5 
C 0.397805 1.5 0.77937 1.341951 1.06066 1.06066 
C 1.341951 0.77937 1.5 0.397805 1.5 0 
C 1.5 -0.397805 1.341951 -0.77937 1.06066 -1.06066 
C 0.77937 -1.341951 0.397805 -1.5 0 -1.5 
C -0.397805 -1.5 -0.77937 -1.341951 -1.06066 -1.06066 
C -1.341951 -0.77937 -1.5 -0.397805 -1.5 0 
C -1.5 0.397805 -1.341951 0.77937 -1.06066 1.06066 
C -0.77937 1.341951 -0.397805 1.5 0 1.5 
z
" style="stroke: #000080"/>
    </defs>
    <g>
     <use xlink:href="#m7eba6a0f4e" x="317.527851" y="27.648" style="fill: #000080; stroke: #000080"/>
     <use xlink:href="#m7eba6a0f4e" x="317.527851" y="27.648" style="fill: #000080; stroke: #000080"/>
    </g>
   </g>
   <g id="line2d_35">
    <path d="M 27.323974 298.944 
L 27.323974 298.234729 
L 47.990577 298.234729 
L 47.990577 297.880094 
L 61.029752 297.880094 
L 61.029752 297.525459 
L 63.929565 297.525459 
L 63.929565 297.170824 
L 66.441498 297.170824 
L 66.441498 296.816188 
L 72.432107 296.816188 
L 72.432107 295.752282 
L 74.068926 295.752282 
L 74.068926 295.397647 
L 76.96874 295.397647 
L 76.96874 295.043012 
L 78.266603 295.043012 
L 78.266603 294.688376 
L 81.696354 294.688376 
L 81.696354 293.624471 
L 82.713442 293.624471 
L 82.713442 293.269835 
L 87.1081 293.269835 
L 87.1081 292.205929 
L 89.323782 292.205929 
L 89.323782 291.851294 
L 93.098709 291.851294 
L 93.098709 291.496659 
L 93.66029 291.496659 
L 93.66029 291.142024 
L 96.241256 291.142024 
L 96.241256 290.078118 
L 97.635342 290.078118 
L 97.635342 289.723482 
L 98.510456 289.723482 
L 98.510456 289.368847 
L 99.346662 289.368847 
L 99.346662 288.659576 
L 99.751228 288.659576 
L 99.751228 288.304941 
L 101.653002 288.304941 
L 101.653002 287.950306 
L 105.850679 287.950306 
L 105.850679 287.241035 
L 106.137884 287.241035 
L 106.137884 286.8864 
L 107.244765 286.8864 
L 107.244765 286.177129 
L 108.29012 286.177129 
L 108.29012 285.467859 
L 108.542628 285.467859 
L 108.542628 284.403953 
L 109.037698 284.403953 
L 109.037698 284.049318 
L 109.990385 284.049318 
L 109.990385 283.694682 
L 110.897141 283.694682 
L 110.897141 283.340047 
L 111.117162 283.340047 
L 111.117162 282.985412 
L 112.589207 282.985412 
L 112.589207 282.630776 
L 113.765312 282.630776 
L 113.765312 282.276141 
L 113.954374 282.276141 
L 113.954374 281.921506 
L 114.141556 281.921506 
L 114.141556 281.566871 
L 116.746385 281.566871 
L 116.746385 281.212235 
L 119.599808 281.212235 
L 119.599808 280.8576 
L 120.682786 280.8576 
L 120.682786 280.148329 
L 121.581803 280.148329 
L 121.581803 279.793694 
L 124.695386 279.793694 
L 124.695386 279.439059 
L 125.011554 279.439059 
L 125.011554 279.084424 
L 125.929373 279.084424 
L 125.929373 278.729788 
L 126.225624 278.729788 
L 126.323346 276.956612 
L 126.613505 276.956612 
L 126.613505 276.601976 
L 127.273627 276.601976 
L 127.366067 275.892706 
L 128.089678 275.892706 
L 128.089678 275.183435 
L 128.266313 275.183435 
L 128.266313 274.8288 
L 128.956723 274.8288 
L 128.956723 274.474165 
L 129.458394 274.474165 
L 129.458394 274.119529 
L 129.7043 274.119529 
L 129.7043 273.764894 
L 130.107132 273.764894 
L 130.107132 273.410259 
L 130.811181 273.410259 
L 130.811181 271.991718 
L 131.563744 271.991718 
L 131.563744 271.637082 
L 132.358208 271.637082 
L 132.358208 271.282447 
L 132.638982 271.282447 
L 132.708526 270.218541 
L 132.915628 270.218541 
L 132.984158 268.445365 
L 133.390178 268.445365 
L 133.390178 267.381459 
L 133.523594 267.381459 
L 133.523594 267.026824 
L 133.72196 267.026824 
L 133.72196 266.672188 
L 134.304809 266.672188 
L 134.304809 266.317553 
L 134.495147 266.317553 
L 134.495147 265.962918 
L 134.808158 265.962918 
L 134.808158 265.608282 
L 135.538796 265.608282 
L 135.538796 265.253647 
L 135.776169 265.253647 
L 135.835047 263.835106 
L 136.640557 263.835106 
L 136.640557 263.480471 
L 137.030737 263.480471 
L 137.085822 262.7712 
L 137.304564 262.7712 
L 137.304564 262.061929 
L 137.466966 262.061929 
L 137.466966 261.707294 
L 137.787626 261.707294 
L 137.787626 261.352659 
L 138.310202 261.352659 
L 138.310202 260.288753 
L 138.818654 260.288753 
L 138.818654 259.579482 
L 139.166565 259.579482 
L 139.166565 259.224847 
L 139.362521 259.224847 
L 139.362521 258.515576 
L 139.93843 258.515576 
L 139.985636 257.806306 
L 140.126547 257.806306 
L 140.219905 256.7424 
L 140.49723 256.7424 
L 140.543056 256.033129 
L 140.725251 256.033129 
L 140.725251 255.323859 
L 141.084433 255.323859 
L 141.084433 254.969224 
L 141.782854 254.969224 
L 141.868361 253.550682 
L 142.122575 253.550682 
L 142.122575 253.196047 
L 142.945969 253.196047 
L 142.945969 252.841412 
L 143.305055 252.841412 
L 143.305055 252.132141 
L 144.2304 252.132141 
L 144.305496 251.068235 
L 144.342932 251.068235 
L 144.342932 250.7136 
L 144.491935 250.7136 
L 144.491935 250.358965 
L 145.712961 250.358965 
L 145.712961 249.649694 
L 146.496179 249.649694 
L 146.595975 248.231153 
L 146.892226 248.231153 
L 146.892226 247.876518 
L 147.407644 247.876518 
L 147.407644 247.521882 
L 147.722752 247.521882 
L 147.722752 246.457976 
L 149.020615 246.457976 
L 149.020615 246.103341 
L 149.395993 246.103341 
L 149.395993 245.394071 
L 150.316534 245.394071 
L 150.316534 245.039435 
L 150.72052 245.039435 
L 150.72052 244.330165 
L 151.089903 244.330165 
L 151.089903 241.493082 
L 154.497869 241.493082 
L 154.497869 241.138447 
L 168.586228 241.138447 
L 168.586228 240.783812 
L 168.719753 240.783812 
L 168.719753 240.429176 
L 168.903083 240.429176 
L 168.903083 240.074541 
L 169.104709 240.074541 
L 169.104709 239.719906 
L 169.726065 239.719906 
L 169.726065 239.365271 
L 170.014887 239.365271 
L 170.014887 239.010635 
L 183.25363 239.010635 
L 183.25363 238.656 
L 184.171448 238.656 
L 184.270221 237.237459 
L 184.581089 237.237459 
L 184.581089 236.528188 
L 184.88257 236.528188 
L 184.88257 235.818918 
L 185.387206 235.818918 
L 185.387206 235.464282 
L 185.601191 235.464282 
L 185.601191 234.755012 
L 185.73008 234.755012 
L 185.73008 234.400376 
L 185.91562 234.400376 
L 185.91562 234.045741 
L 186.592571 234.045741 
L 186.592571 233.691106 
L 186.714865 233.691106 
L 186.781594 232.981835 
L 186.832462 232.981835 
L 186.918235 231.208659 
L 187.37553 231.208659 
L 187.390709 230.499388 
L 187.523013 230.499388 
L 187.564402 229.790118 
L 187.684293 229.790118 
L 187.684293 229.080847 
L 187.829384 229.080847 
L 187.829384 228.726212 
L 187.980719 228.726212 
L 188.07606 227.662306 
L 188.156358 227.662306 
L 188.156358 226.953035 
L 188.481326 226.953035 
L 188.481326 226.243765 
L 188.652374 226.243765 
L 188.666558 225.179859 
L 188.927051 225.179859 
L 188.961978 224.115953 
L 189.159832 224.115953 
L 189.256266 222.697412 
L 189.283728 222.697412 
L 189.355626 221.633506 
L 189.5291 221.633506 
L 189.616925 220.5696 
L 189.744553 220.5696 
L 189.744553 219.151059 
L 190.138717 219.151059 
L 190.181281 218.441788 
L 196.678756 218.441788 
L 196.678756 217.732518 
L 196.952274 217.732518 
L 196.9614 216.668612 
L 197.131682 216.668612 
L 197.131682 215.959341 
L 197.266807 215.959341 
L 197.351887 214.5408 
L 197.392054 214.5408 
L 197.392054 214.186165 
L 197.523114 214.186165 
L 197.523114 213.476894 
L 197.782528 213.476894 
L 197.817428 212.058353 
L 197.954224 212.058353 
L 198.055635 210.994447 
L 198.173616 210.994447 
L 198.248312 208.512 
L 198.299361 208.512 
L 198.38625 207.448094 
L 198.413717 207.448094 
L 198.479053 206.029553 
L 198.575588 206.029553 
L 198.673712 203.901741 
L 198.802374 203.901741 
L 198.818911 202.837835 
L 198.930162 202.837835 
L 199.016237 201.419294 
L 199.053006 201.419294 
L 199.112095 199.646118 
L 199.241844 199.646118 
L 199.247904 198.227576 
L 199.39076 198.227576 
L 199.476753 196.809035 
L 199.506659 196.809035 
L 199.615907 194.681224 
L 199.657454 194.681224 
L 199.756005 192.908047 
L 199.779581 192.908047 
L 199.877497 190.780235 
L 199.914572 190.780235 
L 200.013729 187.943153 
L 200.048601 187.943153 
L 200.150906 186.524612 
L 200.168223 186.524612 
L 200.20473 182.978259 
L 200.311919 182.978259 
L 200.384308 180.850447 
L 200.42609 180.850447 
L 200.42609 180.495812 
L 200.556536 180.495812 
L 200.577248 178.722635 
L 200.691696 178.722635 
L 200.779404 177.304094 
L 200.814745 177.304094 
L 200.898183 176.240188 
L 200.940687 176.240188 
L 200.988619 175.176282 
L 201.067625 175.176282 
L 201.117064 173.048471 
L 201.222829 173.048471 
L 201.230101 171.275294 
L 201.340656 171.275294 
L 201.450566 168.792847 
L 201.459546 168.792847 
L 201.459546 168.438212 
L 201.591959 168.438212 
L 201.670252 167.374306 
L 201.723447 167.374306 
L 201.767662 165.601129 
L 201.83995 165.601129 
L 201.903194 163.827953 
L 202.002897 163.827953 
L 202.098604 161.700141 
L 202.317757 161.700141 
L 202.348612 159.926965 
L 202.563195 159.926965 
L 202.563195 159.217694 
L 206.680434 159.217694 
L 206.680434 158.863059 
L 207.824479 158.863059 
L 207.824479 158.508424 
L 208.386963 158.508424 
L 208.386963 158.153788 
L 216.647244 158.153788 
L 216.647244 156.735247 
L 217.279644 156.735247 
L 217.279644 156.380612 
L 217.750761 156.380612 
L 217.750761 156.025976 
L 217.899719 156.025976 
L 217.944626 154.962071 
L 218.07945 154.962071 
L 218.12245 154.2528 
L 218.202994 154.2528 
L 218.202994 153.898165 
L 218.315473 153.898165 
L 218.389358 152.124988 
L 218.496376 152.124988 
L 218.596291 148.933271 
L 218.625874 148.933271 
L 218.625874 148.578635 
L 218.75592 148.578635 
L 218.75592 147.869365 
L 218.954631 147.869365 
L 219.005573 147.160094 
L 219.128817 147.160094 
L 219.213562 144.677647 
L 219.265201 144.677647 
L 219.265201 143.259106 
L 219.572099 143.259106 
L 219.572099 142.549835 
L 219.716888 142.549835 
L 219.782088 140.776659 
L 219.981039 140.776659 
L 220.06471 139.712753 
L 220.402283 139.712753 
L 220.437674 137.584941 
L 220.605851 137.584941 
L 220.605851 136.1664 
L 221.139429 136.1664 
L 221.240714 135.102494 
L 221.286459 135.102494 
L 221.286459 134.038588 
L 221.498684 134.038588 
L 221.534544 132.974682 
L 221.641715 132.974682 
L 221.667492 131.201506 
L 221.832368 131.201506 
L 221.926975 130.1376 
L 222.009066 130.1376 
L 222.055986 129.073694 
L 222.130937 129.073694 
L 222.177555 128.009788 
L 222.325013 128.009788 
L 222.325013 127.655153 
L 229.535237 127.655153 
L 229.535237 127.300518 
L 234.56136 127.300518 
L 234.56136 126.945882 
L 234.775541 126.945882 
L 234.817964 126.236612 
L 235.287332 126.236612 
L 235.287332 125.881976 
L 242.942987 125.881976 
L 242.942987 125.172706 
L 245.658502 125.172706 
L 245.658502 124.818071 
L 245.937063 124.818071 
L 245.937063 124.463435 
L 246.049155 124.463435 
L 246.049155 123.754165 
L 246.968548 123.754165 
L 246.968548 123.399529 
L 247.687177 123.399529 
L 247.687177 122.690259 
L 247.856376 122.690259 
L 247.856376 121.271718 
L 248.087716 121.271718 
L 248.087716 120.917082 
L 248.23485 120.917082 
L 248.252471 118.789271 
L 248.569791 118.789271 
L 248.579915 118.08 
L 248.713508 118.08 
L 248.770514 116.306824 
L 248.902188 116.306824 
L 248.902188 115.242918 
L 249.061993 115.242918 
L 249.120948 113.824376 
L 249.192502 113.824376 
L 249.263643 112.0512 
L 249.3974 112.0512 
L 249.3974 111.696565 
L 255.812562 111.696565 
L 255.812562 111.341929 
L 256.976922 111.341929 
L 256.976922 110.632659 
L 257.722207 110.632659 
L 257.789573 109.923388 
L 258.107987 109.923388 
L 258.158215 108.504847 
L 259.343585 108.504847 
L 259.442156 107.440941 
L 259.515706 107.440941 
L 259.626758 106.0224 
L 259.656251 106.0224 
L 259.656251 105.313129 
L 259.846029 105.313129 
L 259.846029 104.603859 
L 259.969251 104.603859 
L 260.013554 103.539953 
L 260.177304 103.539953 
L 260.273661 102.476047 
L 260.316626 102.476047 
L 260.385353 100.348235 
L 260.499422 100.348235 
L 260.552046 99.638965 
L 260.706037 99.638965 
L 260.764995 98.575059 
L 260.874808 98.575059 
L 260.903323 97.511153 
L 262.317169 97.511153 
L 262.317169 97.156518 
L 272.361516 97.156518 
L 272.361516 96.447247 
L 279.080487 96.447247 
L 279.150018 82.261835 
L 281.559638 82.261835 
L 281.608436 68.076424 
L 292.630937 68.076424 
L 292.728871 63.8208 
L 292.744482 63.8208 
L 292.800063 54.600282 
L 293.735845 54.600282 
L 293.747294 41.833412 
L 295.530331 41.833412 
L 295.530331 41.478776 
L 302.605503 41.478776 
L 302.686204 40.769506 
L 304.457977 40.769506 
L 304.532959 36.159247 
L 304.680004 36.159247 
L 304.688306 35.095341 
L 305.359034 35.095341 
L 305.359034 34.740706 
L 306.097432 34.740706 
L 306.172438 33.322165 
L 308.797649 33.322165 
L 308.80728 31.548988 
L 312.500632 31.548988 
L 312.550967 29.775812 
L 312.886961 29.775812 
L 312.89031 28.002635 
L 317.527851 28.002635 
L 317.527851 27.648 
L 360.8064 27.648 
L 360.8064 27.648 
" style="fill: none; stroke: #000080; stroke-width: 1.5; stroke-linecap: square"/>
   </g>
   <g id="line2d_36">
    <defs>
     <path id="mec9f45e1a3" d="M 0 6 
C 1.591219 6 3.117479 5.367802 4.242641 4.242641 
C 5.367802 3.117479 6 1.591219 6 0 
C 6 -1.591219 5.367802 -3.117479 4.242641 -4.242641 
C 3.117479 -5.367802 1.591219 -6 0 -6 
C -1.591219 -6 -3.117479 -5.367802 -4.242641 -4.242641 
C -5.367802 -3.117479 -6 -1.591219 -6 0 
C -6 1.591219 -5.367802 3.117479 -4.242641 4.242641 
C -3.117479 5.367802 -1.591219 6 0 6 
z
" style="stroke: #000080; stroke-width: 1.5"/>
    </defs>
    <g>
     <use xlink:href="#mec9f45e1a3" x="126.323346" y="278.020518" style="fill-opacity: 0; stroke: #000080; stroke-width: 1.5"/>
     <use xlink:href="#mec9f45e1a3" x="202.563195" y="159.926965" style="fill-opacity: 0; stroke: #000080; stroke-width: 1.5"/>
     <use xlink:href="#mec9f45e1a3" x="272.361516" y="97.156518" style="fill-opacity: 0; stroke: #000080; stroke-width: 1.5"/>
     <use xlink:href="#mec9f45e1a3" x="317.527851" y="27.648" style="fill-opacity: 0; stroke: #000080; stroke-width: 1.5"/>
     <use xlink:href="#mec9f45e1a3" x="317.527851" y="27.648" style="fill-opacity: 0; stroke: #000080; stroke-width: 1.5"/>
     <use xlink:href="#mec9f45e1a3" x="360.8064" y="27.648" style="fill-opacity: 0; stroke: #000080; stroke-width: 1.5"/>
    </g>
   </g>
   <g id="line2d_37">
    <path style="fill: none; stroke: #000080; stroke-width: 1.5; stroke-linecap: square"/>
    <g/>
   </g>
   <g id="line2d_38">
    <path d="M 304.452665 40.769506 
" clip-path="url(#p3773cf554c)" style="fill: none; stroke: #000080; stroke-width: 1.5; stroke-linecap: square"/>
    <defs>
     <path id="m0eb64a32f6" d="M -12 12 
L 12 -12 
M -12 -12 
L 12 12 
" style="stroke: #000080"/>
    </defs>
    <g clip-path="url(#p3773cf554c)">
     <use xlink:href="#m0eb64a32f6" x="304.452665" y="40.769506" style="fill: #000080; stroke: #000080"/>
    </g>
   </g>
   <g id="line2d_39">
    <defs>
     <path id="m02f29d8083" d="M 0 1.5 
C 0.397805 1.5 0.77937 1.341951 1.06066 1.06066 
C 1.341951 0.77937 1.5 0.397805 1.5 0 
C 1.5 -0.397805 1.341951 -0.77937 1.06066 -1.06066 
C 0.77937 -1.341951 0.397805 -1.5 0 -1.5 
C -0.397805 -1.5 -0.77937 -1.341951 -1.06066 -1.06066 
C -1.341951 -0.77937 -1.5 -0.397805 -1.5 0 
C -1.5 0.397805 -1.341951 0.77937 -1.06066 1.06066 
C -0.77937 1.341951 -0.397805 1.5 0 1.5 
z
" style="stroke: #ff00ff"/>
    </defs>
    <g>
     <use xlink:href="#m02f29d8083" x="275.87292" y="27.648" style="fill: #ff00ff; stroke: #ff00ff"/>
     <use xlink:href="#m02f29d8083" x="275.87292" y="27.648" style="fill: #ff00ff; stroke: #ff00ff"/>
    </g>
   </g>
   <g id="line2d_40">
    <path d="M 27.323974 298.944 
L 27.323974 298.234729 
L 40.363149 298.234729 
L 40.363149 297.880094 
L 53.402323 297.880094 
L 53.402323 297.525459 
L 66.441498 297.525459 
L 66.441498 297.170824 
L 72.432107 297.170824 
L 72.432107 296.816188 
L 76.96874 296.816188 
L 76.96874 296.106918 
L 78.266603 296.106918 
L 78.266603 295.752282 
L 81.696354 295.752282 
L 81.696354 295.397647 
L 86.307488 295.397647 
L 86.307488 294.688376 
L 87.1081 294.688376 
L 87.1081 293.979106 
L 87.876026 293.979106 
L 87.876026 293.624471 
L 90.668036 293.624471 
L 90.668036 292.560565 
L 91.305777 292.560565 
L 91.305777 292.205929 
L 91.922605 292.205929 
L 91.922605 291.142024 
L 97.635342 291.142024 
L 97.635342 290.787388 
L 99.751228 290.787388 
L 99.751228 290.432753 
L 100.9152 290.432753 
L 100.9152 289.723482 
L 102.708132 289.723482 
L 102.708132 289.368847 
L 104.028784 289.368847 
L 104.028784 289.014212 
L 104.344952 289.014212 
L 104.344952 288.659576 
L 104.655893 288.659576 
L 104.655893 288.304941 
L 106.699465 288.304941 
L 106.699465 287.950306 
L 108.791791 287.950306 
L 108.791791 287.595671 
L 109.520071 287.595671 
L 109.520071 287.241035 
L 109.990385 287.241035 
L 109.990385 286.8864 
L 110.221204 286.8864 
L 110.221204 286.177129 
L 110.449226 286.177129 
L 110.449226 285.113224 
L 112.385837 285.113224 
L 112.385837 284.758588 
L 112.589207 284.758588 
L 112.589207 284.403953 
L 112.790402 284.403953 
L 112.790402 284.049318 
L 112.989468 284.049318 
L 112.989468 283.694682 
L 113.954374 283.694682 
L 113.954374 283.340047 
L 114.510421 283.340047 
L 114.510421 282.985412 
L 114.692177 282.985412 
L 114.692177 282.630776 
L 115.575511 282.630776 
L 115.575511 282.276141 
L 116.907859 282.276141 
L 116.907859 281.921506 
L 117.067958 281.921506 
L 117.067958 281.566871 
L 118.000953 281.566871 
L 118.000953 281.212235 
L 118.450653 281.212235 
L 118.450653 280.8576 
L 118.74459 280.8576 
L 118.74459 280.502965 
L 119.876453 280.502965 
L 119.876453 280.148329 
L 120.41783 280.148329 
L 120.41783 279.793694 
L 120.944062 279.793694 
L 120.944062 279.439059 
L 121.201758 279.439059 
L 121.201758 278.729788 
L 121.329295 278.729788 
L 121.329295 278.020518 
L 121.581803 278.020518 
L 121.581803 277.665882 
L 122.913079 277.665882 
L 122.913079 277.311247 
L 125.628382 277.311247 
L 125.628382 276.956612 
L 126.420564 276.956612 
L 126.420564 276.601976 
L 127.911368 276.601976 
L 127.911368 276.247341 
L 128.441306 276.247341 
L 128.441306 275.538071 
L 129.375706 275.538071 
L 129.375706 275.183435 
L 131.783764 275.183435 
L 131.783764 274.8288 
L 132.073179 274.8288 
L 132.073179 274.474165 
L 133.457005 274.474165 
L 133.457005 274.119529 
L 134.112526 274.119529 
L 134.112526 273.764894 
L 134.304809 273.764894 
L 134.304809 273.410259 
L 134.620977 273.410259 
L 134.620977 273.055624 
L 134.808158 273.055624 
L 134.808158 272.700988 
L 134.931919 272.700988 
L 134.931919 272.346353 
L 135.116046 272.346353 
L 135.116046 271.991718 
L 135.657857 271.991718 
L 135.657857 271.637082 
L 136.126705 271.637082 
L 136.126705 271.282447 
L 136.242113 271.282447 
L 136.242113 270.927812 
L 136.356818 270.927812 
L 136.356818 270.573176 
L 136.584151 270.573176 
L 136.640557 269.863906 
L 137.945929 269.863906 
L 137.945929 269.509271 
L 138.464186 269.509271 
L 138.464186 269.154635 
L 138.616919 269.154635 
L 138.616919 268.8 
L 139.117256 268.8 
L 139.215746 268.090729 
L 139.362521 268.090729 
L 139.362521 267.736094 
L 140.219905 267.736094 
L 140.219905 267.381459 
L 140.725251 267.381459 
L 140.815692 266.672188 
L 140.860749 266.672188 
L 140.950542 265.962918 
L 142.331827 265.962918 
L 142.331827 265.608282 
L 143.02636 265.608282 
L 143.02636 265.253647 
L 143.462475 265.253647 
L 143.462475 264.899012 
L 143.773417 264.899012 
L 143.773417 264.544376 
L 145.782376 264.544376 
L 145.782376 264.189741 
L 146.429353 264.189741 
L 146.429353 263.835106 
L 146.761135 263.835106 
L 146.761135 263.480471 
L 149.73597 263.480471 
L 149.73597 263.125835 
L 151.70673 263.125835 
L 151.70673 262.7712 
L 170.355719 262.7712 
L 170.355719 262.416565 
L 170.625857 262.416565 
L 170.625857 262.061929 
L 170.846523 262.061929 
L 170.892171 261.352659 
L 170.964979 261.352659 
L 171.028455 260.643388 
L 172.390182 260.643388 
L 172.490958 259.934118 
L 172.574528 259.934118 
L 172.574528 259.579482 
L 172.937888 259.579482 
L 172.937888 259.224847 
L 173.084536 259.224847 
L 173.084536 258.870212 
L 173.19781 258.870212 
L 173.19781 258.515576 
L 173.730661 258.515576 
L 173.746337 257.097035 
L 174.164733 257.097035 
L 174.203007 256.387765 
L 174.77538 256.387765 
L 174.834629 255.678494 
L 175.280369 255.678494 
L 175.280369 255.323859 
L 176.217092 255.323859 
L 176.217092 254.969224 
L 177.161719 254.969224 
L 177.161719 254.614588 
L 186.228916 254.614588 
L 186.228916 254.259953 
L 186.381628 254.259953 
L 186.481424 253.196047 
L 186.980371 253.196047 
L 187.069333 252.486776 
L 187.123278 252.486776 
L 187.188576 251.068235 
L 187.303258 251.068235 
L 187.394502 250.004329 
L 187.504169 250.004329 
L 187.60195 249.295059 
L 187.624443 249.295059 
L 187.732781 247.167247 
L 187.796001 247.167247 
L 187.796001 246.103341 
L 188.017446 246.103341 
L 188.108951 245.394071 
L 188.301482 245.394071 
L 188.377226 244.6848 
L 188.420372 244.6848 
L 188.506367 243.266259 
L 188.623973 243.266259 
L 188.723187 242.202353 
L 188.740849 242.202353 
L 188.740849 241.847718 
L 188.895562 241.847718 
L 188.979417 240.074541 
L 189.024683 240.074541 
L 189.12873 238.656 
L 189.152925 238.656 
L 189.177088 237.946729 
L 189.321423 237.946729 
L 189.423846 235.109647 
L 189.457863 235.109647 
L 189.515552 233.691106 
L 189.606813 233.691106 
L 189.637135 232.981835 
L 189.774654 232.981835 
L 189.814714 231.917929 
L 189.887937 231.917929 
L 189.960876 229.080847 
L 190.050007 229.080847 
L 190.141995 226.5984 
L 190.171467 226.5984 
L 190.279139 225.534494 
L 190.2954 225.534494 
L 190.357061 224.470588 
L 190.447563 224.470588 
L 190.515156 221.633506 
L 190.560083 221.633506 
L 190.579304 219.860329 
L 190.767278 219.860329 
L 190.789456 218.441788 
L 190.915687 218.441788 
L 190.959669 216.313976 
L 191.174945 216.313976 
L 191.174945 215.604706 
L 191.363232 215.604706 
L 191.400052 214.186165 
L 191.510079 214.186165 
L 191.583074 212.412988 
L 191.628553 212.412988 
L 191.725209 211.703718 
L 191.746286 211.703718 
L 191.809377 210.994447 
L 191.88421 210.994447 
L 191.949818 208.866635 
L 192.047803 208.866635 
L 192.086263 207.448094 
L 192.233459 207.448094 
L 192.318308 206.029553 
L 192.362046 206.029553 
L 192.408587 203.901741 
L 192.553292 203.901741 
L 192.593611 203.192471 
L 192.682582 203.192471 
L 192.682582 202.837835 
L 197.170066 202.837835 
L 197.170066 202.4832 
L 198.715312 202.4832 
L 198.715312 202.128565 
L 199.298329 202.128565 
L 199.298329 201.064659 
L 199.448798 201.064659 
L 199.448798 200.355388 
L 199.651524 200.355388 
L 199.651524 200.000753 
L 200.100788 200.000753 
L 200.19513 198.227576 
L 201.206456 198.227576 
L 201.206456 196.809035 
L 202.209362 196.809035 
L 202.209362 196.4544 
L 202.405049 196.4544 
L 202.454506 195.035859 
L 202.669575 195.035859 
L 202.669575 194.326588 
L 202.798784 194.326588 
L 202.828861 192.908047 
L 203.001705 192.908047 
L 203.001705 192.553412 
L 203.195911 192.553412 
L 203.300411 191.489506 
L 203.36543 191.489506 
L 203.462539 190.070965 
L 203.523783 190.070965 
L 203.559149 189.361694 
L 203.647274 189.361694 
L 203.720664 186.879247 
L 203.830213 186.879247 
L 203.907624 186.169976 
L 204.012958 186.169976 
L 204.012958 185.460706 
L 204.134848 185.460706 
L 204.234273 182.978259 
L 204.246665 182.978259 
L 204.246665 181.559718 
L 204.430028 181.559718 
L 204.456077 180.850447 
L 204.541633 180.850447 
L 204.541633 180.141176 
L 204.669242 180.141176 
L 204.753836 179.077271 
L 204.838051 179.077271 
L 204.838051 178.368 
L 204.953235 178.368 
L 205.027654 177.304094 
L 205.125438 177.304094 
L 205.190346 176.240188 
L 205.246223 176.240188 
L 205.315106 174.821647 
L 205.417232 174.821647 
L 205.437591 174.112376 
L 205.546282 174.112376 
L 205.635662 172.693835 
L 205.828823 172.693835 
L 205.844475 171.629929 
L 207.11349 171.629929 
L 207.11349 171.275294 
L 208.374534 171.275294 
L 208.413037 170.566024 
L 208.641193 170.566024 
L 208.730467 169.147482 
L 208.832671 169.147482 
L 208.832671 168.438212 
L 208.976515 168.438212 
L 208.976515 166.665035 
L 209.374469 166.665035 
L 209.374469 166.3104 
L 209.506052 166.3104 
L 209.587826 165.601129 
L 209.683169 165.601129 
L 209.756093 164.891859 
L 209.855187 164.891859 
L 209.928593 163.473318 
L 210.068872 163.473318 
L 210.099526 162.764047 
L 210.219388 162.764047 
L 210.317198 160.636235 
L 210.464635 160.636235 
L 210.510196 159.572329 
L 210.625272 159.572329 
L 210.625272 159.217694 
L 210.738552 159.217694 
L 210.823885 157.444518 
L 210.883824 157.444518 
L 210.941403 156.735247 
L 211.03446 156.735247 
L 211.113091 154.2528 
L 211.177474 154.2528 
L 211.205305 153.543529 
L 211.305582 153.543529 
L 211.339597 152.124988 
L 211.429653 152.124988 
L 211.522435 149.642541 
L 211.636728 149.642541 
L 211.700388 147.869365 
L 211.778365 147.869365 
L 211.778365 147.160094 
L 211.925121 147.160094 
L 211.97139 146.450824 
L 212.062567 146.450824 
L 212.159405 145.386918 
L 212.177697 145.386918 
L 212.205102 144.323012 
L 212.353611 144.323012 
L 212.424922 142.904471 
L 212.622374 142.904471 
L 212.622374 142.1952 
L 212.750895 142.1952 
L 212.858963 141.131294 
L 217.437742 141.131294 
L 217.437742 139.712753 
L 218.125411 139.712753 
L 218.125411 138.294212 
L 218.590514 138.294212 
L 218.590514 137.939576 
L 219.56044 137.939576 
L 219.56044 137.584941 
L 220.191845 137.584941 
L 220.191845 137.230306 
L 220.389158 137.230306 
L 220.431125 136.521035 
L 220.731326 136.521035 
L 220.731326 135.811765 
L 220.854689 135.811765 
L 220.854689 135.457129 
L 221.076244 135.457129 
L 221.172832 134.393224 
L 221.26078 134.393224 
L 221.321476 133.329318 
L 221.499922 133.329318 
L 221.57465 131.556141 
L 221.675464 131.556141 
L 221.704256 130.492235 
L 221.806206 130.492235 
L 221.849384 128.364424 
L 221.985562 128.364424 
L 221.985562 127.655153 
L 222.11597 127.655153 
L 222.216911 125.527341 
L 222.238343 125.527341 
L 222.277572 124.463435 
L 222.375879 124.463435 
L 222.469561 121.626353 
L 222.657284 121.626353 
L 222.732199 119.143906 
L 222.874814 119.143906 
L 222.887465 118.08 
L 223.020352 118.08 
L 223.043739 117.370729 
L 223.169304 117.370729 
L 223.178362 115.597553 
L 223.357494 115.597553 
L 223.445308 114.533647 
L 223.471517 114.533647 
L 223.471517 114.179012 
L 223.598696 114.179012 
L 223.625798 112.760471 
L 228.42225 112.760471 
L 228.42225 112.0512 
L 229.51302 112.0512 
L 229.51302 111.341929 
L 258.357271 111.341929 
L 258.357271 110.987294 
L 259.174217 110.987294 
L 259.174217 110.278024 
L 265.329204 110.278024 
L 265.416372 96.447247 
L 265.520372 96.447247 
L 265.629371 94.319435 
L 265.633934 94.319435 
L 265.738273 87.226729 
L 265.749935 87.226729 
L 265.845552 82.261835 
L 269.126982 82.261835 
L 269.182699 81.552565 
L 269.265039 81.552565 
L 269.279492 80.488659 
L 269.401362 80.488659 
L 269.438665 79.070118 
L 269.521822 79.070118 
L 269.626332 74.105224 
L 269.667447 74.105224 
L 269.758834 69.140329 
L 269.780471 69.140329 
L 269.780471 68.785694 
L 270.526835 68.785694 
L 270.621741 67.367153 
L 270.705089 67.367153 
L 270.816113 60.983718 
L 270.819081 60.983718 
L 270.888795 55.309553 
L 271.977518 55.309553 
L 272.085169 52.472471 
L 272.089247 52.472471 
L 272.193629 45.025129 
L 272.203617 45.025129 
L 272.236471 41.124141 
L 275.631384 41.124141 
L 275.711513 38.287059 
L 275.76895 38.287059 
L 275.87292 27.648 
L 360.8064 27.648 
L 360.8064 27.648 
" style="fill: none; stroke: #ff00ff; stroke-width: 1.5; stroke-linecap: square"/>
   </g>
   <g id="line2d_41">
    <defs>
     <path id="m1abdfff115" d="M -0 8.485281 
L 5.091169 0 
L 0 -8.485281 
L -5.091169 -0 
z
" style="stroke: #ff00ff; stroke-width: 1.5; stroke-linejoin: miter"/>
    </defs>
    <g>
     <use xlink:href="#m1abdfff115" x="112.385837" y="285.113224" style="fill-opacity: 0; stroke: #ff00ff; stroke-width: 1.5; stroke-linejoin: miter"/>
     <use xlink:href="#m1abdfff115" x="189.12873" y="238.656" style="fill-opacity: 0; stroke: #ff00ff; stroke-width: 1.5; stroke-linejoin: miter"/>
     <use xlink:href="#m1abdfff115" x="223.625798" y="112.760471" style="fill-opacity: 0; stroke: #ff00ff; stroke-width: 1.5; stroke-linejoin: miter"/>
     <use xlink:href="#m1abdfff115" x="275.87292" y="28.357271" style="fill-opacity: 0; stroke: #ff00ff; stroke-width: 1.5; stroke-linejoin: miter"/>
     <use xlink:href="#m1abdfff115" x="275.87292" y="27.648" style="fill-opacity: 0; stroke: #ff00ff; stroke-width: 1.5; stroke-linejoin: miter"/>
     <use xlink:href="#m1abdfff115" x="360.8064" y="27.648" style="fill-opacity: 0; stroke: #ff00ff; stroke-width: 1.5; stroke-linejoin: miter"/>
    </g>
   </g>
   <g id="line2d_42">
    <path style="fill: none; stroke: #ff00ff; stroke-width: 1.5; stroke-linecap: square"/>
    <g/>
   </g>
   <g id="line2d_43">
    <defs>
     <path id="mddd0592be1" d="M 0 1.5 
C 0.397805 1.5 0.77937 1.341951 1.06066 1.06066 
C 1.341951 0.77937 1.5 0.397805 1.5 0 
C 1.5 -0.397805 1.341951 -0.77937 1.06066 -1.06066 
C 0.77937 -1.341951 0.397805 -1.5 0 -1.5 
C -0.397805 -1.5 -0.77937 -1.341951 -1.06066 -1.06066 
C -1.341951 -0.77937 -1.5 -0.397805 -1.5 0 
C -1.5 0.397805 -1.341951 0.77937 -1.06066 1.06066 
C -0.77937 1.341951 -0.397805 1.5 0 1.5 
z
" style="stroke: #ff7500"/>
    </defs>
    <g>
     <use xlink:href="#mddd0592be1" x="336.546818" y="27.648" style="fill: #ff7500; stroke: #ff7500"/>
     <use xlink:href="#mddd0592be1" x="336.546818" y="27.648" style="fill: #ff7500; stroke: #ff7500"/>
    </g>
   </g>
   <g id="line2d_44">
    <path d="M 27.323974 298.944 
L 27.323974 298.234729 
L 47.990577 298.234729 
L 47.990577 297.880094 
L 53.402323 297.880094 
L 53.402323 297.170824 
L 70.639174 297.170824 
L 70.639174 296.816188 
L 74.068926 296.816188 
L 74.068926 296.461553 
L 76.96874 296.461553 
L 76.96874 296.106918 
L 78.266603 296.106918 
L 78.266603 295.752282 
L 84.596168 295.752282 
L 84.596168 295.397647 
L 86.307488 295.397647 
L 86.307488 295.043012 
L 88.613828 295.043012 
L 88.613828 294.688376 
L 89.323782 294.688376 
L 89.323782 293.979106 
L 90.007914 293.979106 
L 90.007914 293.269835 
L 91.305777 293.269835 
L 91.305777 292.560565 
L 94.735529 292.560565 
L 94.735529 292.205929 
L 95.250946 292.205929 
L 95.250946 291.851294 
L 95.752617 291.851294 
L 95.752617 291.496659 
L 96.717523 291.496659 
L 96.717523 291.142024 
L 98.510456 291.142024 
L 98.510456 290.432753 
L 100.9152 290.432753 
L 100.9152 290.078118 
L 102.011329 290.078118 
L 102.011329 289.723482 
L 102.362957 289.723482 
L 102.362957 289.014212 
L 104.344952 289.014212 
L 104.344952 288.659576 
L 105.26277 288.659576 
L 105.26277 288.304941 
L 108.29012 288.304941 
L 108.29012 287.595671 
L 108.791791 287.595671 
L 108.791791 287.241035 
L 109.280431 287.241035 
L 109.280431 286.8864 
L 109.520071 286.8864 
L 109.520071 286.177129 
L 109.756698 286.177129 
L 109.756698 285.822494 
L 110.449226 285.822494 
L 110.449226 285.467859 
L 111.762192 285.467859 
L 111.762192 285.113224 
L 112.180244 285.113224 
L 112.180244 284.758588 
L 112.790402 284.758588 
L 112.790402 284.403953 
L 115.917548 284.403953 
L 115.917548 284.049318 
L 118.889854 284.049318 
L 118.889854 283.694682 
L 120.813877 283.694682 
L 120.813877 283.340047 
L 121.073351 283.340047 
L 121.073351 282.985412 
L 121.581803 282.985412 
L 121.581803 282.276141 
L 121.706797 282.276141 
L 121.706797 281.921506 
L 122.19863 281.921506 
L 122.19863 281.566871 
L 122.677931 281.566871 
L 122.677931 280.8576 
L 122.913079 280.8576 
L 122.913079 280.502965 
L 123.029559 280.502965 
L 123.029559 279.793694 
L 125.729248 279.793694 
L 125.729248 279.439059 
L 126.127391 279.439059 
L 126.127391 279.084424 
L 126.517282 279.084424 
L 126.517282 278.729788 
L 126.899255 278.729788 
L 126.899255 278.375153 
L 127.18073 278.375153 
L 127.18073 277.665882 
L 128.266313 277.665882 
L 128.266313 276.956612 
L 130.107132 276.956612 
L 130.186674 276.247341 
L 130.964122 276.247341 
L 130.964122 275.892706 
L 131.856536 275.892706 
L 131.856536 275.538071 
L 132.001241 275.538071 
L 132.001241 275.183435 
L 134.993495 275.183435 
L 134.993495 274.8288 
L 135.177024 274.8288 
L 135.177024 274.474165 
L 135.717106 274.474165 
L 135.717106 273.764894 
L 136.242113 273.764894 
L 136.242113 273.055624 
L 137.520791 273.055624 
L 137.520791 272.700988 
L 137.893309 272.700988 
L 137.893309 272.346353 
L 138.206842 272.346353 
L 138.206842 271.991718 
L 139.362521 271.991718 
L 139.362521 271.637082 
L 140.219905 271.637082 
L 140.219905 271.282447 
L 140.49723 271.282447 
L 140.49723 270.218541 
L 140.950542 270.218541 
L 140.950542 269.863906 
L 141.56737 269.863906 
L 141.56737 269.509271 
L 142.41488 269.509271 
L 142.497568 268.445365 
L 143.10641 268.445365 
L 143.10641 268.090729 
L 143.305055 268.090729 
L 143.305055 267.736094 
L 143.850356 267.736094 
L 143.850356 267.381459 
L 144.155003 267.381459 
L 144.155003 267.026824 
L 144.342932 267.026824 
L 144.342932 266.672188 
L 145.004344 266.672188 
L 145.004344 266.317553 
L 146.728219 266.317553 
L 146.728219 265.962918 
L 147.847333 265.962918 
L 147.847333 265.608282 
L 149.165879 265.608282 
L 149.165879 265.253647 
L 150.613636 265.253647 
L 150.613636 264.899012 
L 156.005274 264.899012 
L 156.005274 264.544376 
L 167.968026 264.544376 
L 167.968026 264.189741 
L 169.104709 264.189741 
L 169.104709 263.835106 
L 170.937709 263.835106 
L 170.937709 263.480471 
L 171.217608 263.480471 
L 171.315934 261.707294 
L 171.634182 261.707294 
L 171.634182 261.352659 
L 172.178481 261.352659 
L 172.212513 260.643388 
L 172.53279 260.643388 
L 172.53279 260.288753 
L 172.699191 260.288753 
L 172.699191 259.934118 
L 173.027642 259.934118 
L 173.027642 259.579482 
L 173.334447 259.579482 
L 173.334447 259.224847 
L 173.533597 259.224847 
L 173.61267 258.515576 
L 174.041731 258.515576 
L 174.041731 258.160941 
L 174.476303 258.160941 
L 174.476303 257.806306 
L 175.701674 257.806306 
L 175.701674 257.451671 
L 176.11375 257.451671 
L 176.11375 257.097035 
L 176.618148 257.097035 
L 176.618148 256.7424 
L 177.083146 256.7424 
L 177.083146 256.387765 
L 186.321495 256.387765 
L 186.321495 255.323859 
L 187.115581 255.323859 
L 187.115581 254.969224 
L 187.56816 254.969224 
L 187.56816 254.614588 
L 187.78486 254.614588 
L 187.78486 254.259953 
L 188.423963 254.259953 
L 188.459835 253.196047 
L 188.846473 253.196047 
L 188.892059 252.132141 
L 189.000323 252.132141 
L 189.000323 251.777506 
L 189.190882 251.777506 
L 189.190882 251.422871 
L 189.417035 251.422871 
L 189.417035 250.7136 
L 189.566307 250.7136 
L 189.566307 250.358965 
L 189.814714 250.358965 
L 189.874645 249.295059 
L 189.950946 249.295059 
L 189.950946 247.876518 
L 190.102626 247.876518 
L 190.164922 246.812612 
L 190.285645 246.812612 
L 190.373254 245.748706 
L 190.437887 245.748706 
L 190.508729 245.039435 
L 190.598506 245.039435 
L 190.687857 243.975529 
L 190.802117 243.975529 
L 190.890508 242.202353 
L 191.062935 242.202353 
L 191.094116 240.783812 
L 191.390853 240.783812 
L 191.467367 239.365271 
L 191.549653 239.365271 
L 191.549653 239.010635 
L 191.725209 239.010635 
L 191.82137 236.882824 
L 191.988479 236.882824 
L 192.038916 235.818918 
L 192.103988 235.818918 
L 192.139387 234.755012 
L 192.239323 234.755012 
L 192.338732 232.6272 
L 192.446318 232.6272 
L 192.446318 231.917929 
L 192.725482 231.917929 
L 192.78253 231.208659 
L 192.9046 231.208659 
L 192.978028 230.144753 
L 193.065203 230.144753 
L 193.076422 229.080847 
L 193.199392 229.080847 
L 193.23279 227.662306 
L 193.327098 227.662306 
L 193.327098 227.307671 
L 193.585397 227.307671 
L 193.677957 225.889129 
L 193.732193 225.889129 
L 193.82673 224.115953 
L 193.910068 224.115953 
L 193.947584 223.406682 
L 194.118139 223.406682 
L 194.118139 222.697412 
L 194.470308 222.697412 
L 194.470308 221.988141 
L 197.65107 221.988141 
L 197.65107 221.278871 
L 198.322712 221.278871 
L 198.322712 220.924235 
L 199.108026 220.924235 
L 199.108026 220.5696 
L 199.867728 220.5696 
L 199.87359 219.860329 
L 201.074957 219.860329 
L 201.074957 219.505694 
L 201.295425 219.505694 
L 201.295425 219.151059 
L 201.890913 219.151059 
L 201.890913 218.796424 
L 202.015105 218.796424 
L 202.015105 218.441788 
L 202.480037 218.441788 
L 202.525904 217.023247 
L 202.684723 217.023247 
L 202.773683 216.313976 
L 202.818841 216.313976 
L 202.818841 215.959341 
L 202.95035 215.959341 
L 202.95035 215.604706 
L 203.146726 215.604706 
L 203.236801 214.186165 
L 203.352444 214.186165 
L 203.448004 212.767624 
L 203.465767 212.767624 
L 203.465767 211.349082 
L 203.833379 211.349082 
L 203.874487 209.930541 
L 204.183073 209.930541 
L 204.183073 209.575906 
L 204.365515 209.575906 
L 204.426961 207.802729 
L 204.616177 207.802729 
L 204.623767 207.093459 
L 204.923385 207.093459 
L 205.000897 206.029553 
L 205.119526 206.029553 
L 205.215364 204.611012 
L 205.255031 204.611012 
L 205.255031 203.901741 
L 205.385195 203.901741 
L 205.385195 203.547106 
L 205.497087 203.547106 
L 205.497087 203.192471 
L 211.475047 203.192471 
L 211.475047 202.128565 
L 211.962145 202.128565 
L 211.962145 201.773929 
L 212.307265 201.773929 
L 212.307265 201.419294 
L 212.494965 201.419294 
L 212.494965 200.710024 
L 212.637248 200.710024 
L 212.702556 200.000753 
L 212.78043 200.000753 
L 212.868757 198.582212 
L 212.895174 198.582212 
L 212.895174 197.872941 
L 213.169857 197.872941 
L 213.256378 196.809035 
L 213.290875 196.809035 
L 213.382559 193.262682 
L 213.438686 193.262682 
L 213.524928 192.553412 
L 213.557049 192.553412 
L 213.593826 191.134871 
L 213.751435 191.134871 
L 213.821371 188.652424 
L 213.951228 188.652424 
L 213.98263 187.588518 
L 214.093043 187.588518 
L 214.202812 184.751435 
L 214.383445 184.751435 
L 214.463672 182.623624 
L 214.594545 182.623624 
L 214.665872 181.205082 
L 214.713865 181.205082 
L 214.753766 180.141176 
L 214.868563 180.141176 
L 214.919554 176.949459 
L 215.020252 176.949459 
L 215.094336 176.240188 
L 215.163796 176.240188 
L 215.2235 174.467012 
L 215.449346 174.467012 
L 215.476641 173.048471 
L 215.568472 173.048471 
L 215.568472 172.693835 
L 223.051719 172.693835 
L 223.051719 172.3392 
L 223.403969 172.3392 
L 223.504366 171.629929 
L 223.65286 171.629929 
L 223.65286 170.920659 
L 223.845041 170.920659 
L 223.928438 170.211388 
L 223.974068 170.211388 
L 224.054196 169.147482 
L 224.202717 169.147482 
L 224.209148 168.438212 
L 224.344225 168.438212 
L 224.44556 167.019671 
L 224.573176 167.019671 
L 224.57843 165.955765 
L 224.707759 165.955765 
L 224.708281 165.246494 
L 224.849675 165.246494 
L 224.905523 164.182588 
L 224.973558 164.182588 
L 225.016212 163.473318 
L 225.162451 163.473318 
L 225.255937 162.054776 
L 225.292898 162.054776 
L 225.376678 160.990871 
L 225.432492 160.990871 
L 225.503653 159.926965 
L 225.550612 159.926965 
L 225.550612 158.153788 
L 225.929459 158.153788 
L 225.996819 157.089882 
L 231.133092 157.089882 
L 231.133092 156.735247 
L 242.734001 156.735247 
L 242.734001 156.025976 
L 244.764328 156.025976 
L 244.764328 155.671341 
L 246.552327 155.671341 
L 246.552327 155.316706 
L 259.313597 155.316706 
L 259.313597 154.962071 
L 267.439982 154.962071 
L 267.439982 154.607435 
L 281.511018 154.607435 
L 281.533015 153.188894 
L 281.652027 153.188894 
L 281.680855 152.124988 
L 281.808243 152.124988 
L 281.878974 149.997176 
L 281.965386 149.997176 
L 281.965386 149.642541 
L 282.148089 149.642541 
L 282.244453 144.677647 
L 282.260788 144.677647 
L 282.368288 142.549835 
L 282.371939 142.549835 
L 282.481469 131.910776 
L 282.483332 131.910776 
L 282.590654 126.945882 
L 282.595032 126.945882 
L 282.621178 124.463435 
L 282.727146 124.463435 
L 282.835251 119.853176 
L 282.844271 119.853176 
L 282.949158 118.789271 
L 283.04607 118.789271 
L 283.119836 117.725365 
L 283.164942 117.725365 
L 283.209055 117.016094 
L 283.895165 117.016094 
L 283.977997 114.888282 
L 284.072387 114.888282 
L 284.090297 113.115106 
L 284.235638 113.115106 
L 284.331861 109.214118 
L 284.358287 109.214118 
L 284.358287 108.859482 
L 284.510379 108.859482 
L 284.5578 106.377035 
L 284.639475 106.377035 
L 284.646959 105.667765 
L 284.851664 105.667765 
L 284.90453 103.894588 
L 294.482498 103.894588 
L 294.482498 103.539953 
L 294.625409 103.539953 
L 294.635404 102.830682 
L 294.774897 102.830682 
L 294.860515 101.412141 
L 294.913551 101.412141 
L 295.017885 98.929694 
L 295.025276 98.929694 
L 295.125436 95.737976 
L 295.162128 95.737976 
L 295.258632 92.900894 
L 295.332846 92.900894 
L 295.438058 89.354541 
L 295.446415 89.354541 
L 295.536122 87.936 
L 295.557963 87.936 
L 295.666404 85.453553 
L 295.742533 85.453553 
L 295.78693 84.744282 
L 295.877999 84.744282 
L 295.890671 83.680376 
L 296.020849 83.680376 
L 296.121882 81.552565 
L 296.161033 81.552565 
L 296.24255 77.651576 
L 296.284936 77.651576 
L 296.284936 77.296941 
L 296.488459 77.296941 
L 296.500268 76.233035 
L 296.663116 76.233035 
L 296.702499 75.169129 
L 296.932757 75.169129 
L 297.030886 74.105224 
L 297.059979 74.105224 
L 297.094457 73.395953 
L 302.515191 73.395953 
L 302.608342 72.332047 
L 302.675497 72.332047 
L 302.770962 71.268141 
L 302.788011 71.268141 
L 302.898286 68.785694 
L 302.93373 68.785694 
L 303.01402 67.367153 
L 303.047738 67.367153 
L 303.12488 65.948612 
L 303.172549 65.948612 
L 303.232939 64.530071 
L 303.367709 64.530071 
L 303.469773 62.047624 
L 303.539331 62.047624 
L 303.64424 60.274447 
L 303.667053 60.274447 
L 303.728983 59.210541 
L 303.834126 59.210541 
L 303.834126 58.855906 
L 303.961298 58.855906 
L 304.047879 58.146635 
L 304.169418 58.146635 
L 304.178567 57.437365 
L 304.813423 57.437365 
L 304.813423 57.082729 
L 307.868209 57.082729 
L 307.868209 56.728094 
L 307.986317 56.728094 
L 307.986317 56.373459 
L 308.137863 56.373459 
L 308.205229 54.954918 
L 308.252555 54.954918 
L 308.317411 53.181741 
L 308.419229 53.181741 
L 308.456474 51.7632 
L 308.605327 51.7632 
L 308.689594 49.280753 
L 308.72204 49.280753 
L 308.827351 47.507576 
L 308.894513 47.507576 
L 308.894513 47.152941 
L 309.194489 47.152941 
L 309.293409 46.443671 
L 309.553005 46.443671 
L 309.553005 46.089035 
L 312.306897 46.089035 
L 312.306897 45.7344 
L 312.421253 45.7344 
L 312.502609 44.670494 
L 312.533925 44.670494 
L 312.559517 43.961224 
L 312.728226 43.961224 
L 312.773683 42.897318 
L 312.848448 42.897318 
L 312.896311 42.188047 
L 312.977378 42.188047 
L 313.056445 41.124141 
L 313.113893 41.124141 
L 313.206342 39.350965 
L 313.300092 39.350965 
L 313.300092 38.996329 
L 313.981627 38.996329 
L 313.981627 38.641694 
L 315.716743 38.641694 
L 315.716743 38.287059 
L 315.871142 38.287059 
L 315.901168 37.223153 
L 316.155162 37.223153 
L 316.191734 36.159247 
L 316.32218 36.159247 
L 316.32218 35.804612 
L 316.449878 35.804612 
L 316.449878 35.449976 
L 316.56872 35.449976 
L 316.56872 35.095341 
L 316.70128 35.095341 
L 316.70128 34.740706 
L 319.051478 34.740706 
L 319.107752 33.6768 
L 319.25499 33.6768 
L 319.25499 33.322165 
L 319.402304 33.322165 
L 319.4922 32.612894 
L 321.200161 32.612894 
L 321.200161 32.258259 
L 321.329672 32.258259 
L 321.42602 31.548988 
L 321.465934 31.548988 
L 321.465934 31.194353 
L 321.942708 31.194353 
L 321.942708 30.839718 
L 323.348783 30.839718 
L 323.348783 30.485082 
L 325.383302 30.485082 
L 325.392221 29.775812 
L 325.545545 29.775812 
L 325.545545 29.421176 
L 325.879133 29.421176 
L 325.958548 28.711906 
L 330.461241 28.711906 
L 330.461241 28.357271 
L 331.908405 28.357271 
L 331.908405 28.002635 
L 336.546818 28.002635 
L 336.546818 27.648 
L 360.8064 27.648 
L 360.8064 27.648 
" style="fill: none; stroke: #ff7500; stroke-width: 1.5; stroke-linecap: square"/>
   </g>
   <g id="line2d_45">
    <defs>
     <path id="m65e0d08389" d="M 0 -6 
L -1.347084 -1.854102 
L -5.706339 -1.854102 
L -2.179628 0.708204 
L -3.526712 4.854102 
L -0 2.291796 
L 3.526712 4.854102 
L 2.179628 0.708204 
L 5.706339 -1.854102 
L 1.347084 -1.854102 
z
" style="stroke: #ff7500; stroke-width: 1.5; stroke-linejoin: bevel"/>
    </defs>
    <g>
     <use xlink:href="#m65e0d08389" x="100.9152" y="290.078118" style="fill-opacity: 0; stroke: #ff7500; stroke-width: 1.5; stroke-linejoin: bevel"/>
     <use xlink:href="#m65e0d08389" x="197.65107" y="221.278871" style="fill-opacity: 0; stroke: #ff7500; stroke-width: 1.5; stroke-linejoin: bevel"/>
     <use xlink:href="#m65e0d08389" x="259.313597" y="154.962071" style="fill-opacity: 0; stroke: #ff7500; stroke-width: 1.5; stroke-linejoin: bevel"/>
     <use xlink:href="#m65e0d08389" x="303.539331" y="61.692988" style="fill-opacity: 0; stroke: #ff7500; stroke-width: 1.5; stroke-linejoin: bevel"/>
     <use xlink:href="#m65e0d08389" x="336.546818" y="27.648" style="fill-opacity: 0; stroke: #ff7500; stroke-width: 1.5; stroke-linejoin: bevel"/>
     <use xlink:href="#m65e0d08389" x="360.8064" y="27.648" style="fill-opacity: 0; stroke: #ff7500; stroke-width: 1.5; stroke-linejoin: bevel"/>
    </g>
   </g>
   <g id="line2d_46">
    <path style="fill: none; stroke: #ff7500; stroke-width: 1.5; stroke-linecap: square"/>
    <g/>
   </g>
   <g id="line2d_47">
    <path d="M 282.228275 146.096188 
" clip-path="url(#p3773cf554c)" style="fill: none; stroke: #ff7500; stroke-width: 1.5; stroke-linecap: square"/>
    <defs>
     <path id="m5d4079b199" d="M -12 12 
L 12 -12 
M -12 -12 
L 12 12 
" style="stroke: #ff7500"/>
    </defs>
    <g clip-path="url(#p3773cf554c)">
     <use xlink:href="#m5d4079b199" x="282.228275" y="146.096188" style="fill: #ff7500; stroke: #ff7500"/>
    </g>
   </g>
   <g id="line2d_48">
    <path d="M 360.8064 27.648 
L 380.514816 293.51808 
" style="fill: none; stroke: #ff7500; stroke-width: 1.5; stroke-linecap: square"/>
    <g>
     <use xlink:href="#m65e0d08389" x="360.8064" y="27.648" style="fill-opacity: 0; stroke: #ff7500; stroke-width: 1.5; stroke-linejoin: bevel"/>
     <use xlink:href="#m65e0d08389" x="380.514816" y="293.51808" style="fill-opacity: 0; stroke: #ff7500; stroke-width: 1.5; stroke-linejoin: bevel"/>
    </g>
   </g>
   <g id="line2d_49">
    <path d="M 360.8064 27.648 
L 380.514816 206.70336 
" style="fill: none; stroke: #000080; stroke-width: 1.5; stroke-linecap: square"/>
    <g>
     <use xlink:href="#mec9f45e1a3" x="360.8064" y="27.648" style="fill-opacity: 0; stroke: #000080; stroke-width: 1.5"/>
     <use xlink:href="#mec9f45e1a3" x="380.514816" y="206.70336" style="fill-opacity: 0; stroke: #000080; stroke-width: 1.5"/>
    </g>
   </g>
   <g id="line2d_50">
    <path d="M 360.8064 27.648 
L 380.514816 119.88864 
" style="fill: none; stroke: #ff00ff; stroke-width: 1.5; stroke-linecap: square"/>
    <g>
     <use xlink:href="#m1abdfff115" x="360.8064" y="27.648" style="fill-opacity: 0; stroke: #ff00ff; stroke-width: 1.5; stroke-linejoin: miter"/>
     <use xlink:href="#m1abdfff115" x="380.514816" y="119.88864" style="fill-opacity: 0; stroke: #ff00ff; stroke-width: 1.5; stroke-linejoin: miter"/>
    </g>
   </g>
   <g id="line2d_51">
    <path d="M 360.8064 298.944 
L 360.8064 27.648 
" style="fill: none; stroke: #000000; stroke-width: 1.5; stroke-linecap: square"/>
   </g>
   <g id="patch_3">
    <path d="M 57.6 298.944 
L 360.8064 298.944 
" style="fill: none; stroke: #000000; stroke-width: 0.8; stroke-linejoin: miter; stroke-linecap: square"/>
   </g>
   <g id="patch_4">
    <path d="M 57.6 27.648 
L 360.8064 27.648 
" style="fill: none; stroke: #000000; stroke-width: 0.8; stroke-linejoin: miter; stroke-linecap: square"/>
   </g>
   <g id="text_13">
    <!-- CMA-ES-20 -->
    <g transform="translate(386.578944 297.381205)scale(0.14 -0.14)">
     <defs>
      <path id="DejaVuSans-43" d="M 4122 4306 
L 4122 3641 
Q 3803 3938 3442 4084 
Q 3081 4231 2675 4231 
Q 1875 4231 1450 3742 
Q 1025 3253 1025 2328 
Q 1025 1406 1450 917 
Q 1875 428 2675 428 
Q 3081 428 3442 575 
Q 3803 722 4122 1019 
L 4122 359 
Q 3791 134 3420 21 
Q 3050 -91 2638 -91 
Q 1578 -91 968 557 
Q 359 1206 359 2328 
Q 359 3453 968 4101 
Q 1578 4750 2638 4750 
Q 3056 4750 3426 4639 
Q 3797 4528 4122 4306 
z
" transform="scale(0.015625)"/>
      <path id="DejaVuSans-4d" d="M 628 4666 
L 1569 4666 
L 2759 1491 
L 3956 4666 
L 4897 4666 
L 4897 0 
L 4281 0 
L 4281 4097 
L 3078 897 
L 2444 897 
L 1241 4097 
L 1241 0 
L 628 0 
L 628 4666 
z
" transform="scale(0.015625)"/>
      <path id="DejaVuSans-41" d="M 2188 4044 
L 1331 1722 
L 3047 1722 
L 2188 4044 
z
M 1831 4666 
L 2547 4666 
L 4325 0 
L 3669 0 
L 3244 1197 
L 1141 1197 
L 716 0 
L 50 0 
L 1831 4666 
z
" transform="scale(0.015625)"/>
      <path id="DejaVuSans-45" d="M 628 4666 
L 3578 4666 
L 3578 4134 
L 1259 4134 
L 1259 2753 
L 3481 2753 
L 3481 2222 
L 1259 2222 
L 1259 531 
L 3634 531 
L 3634 0 
L 628 0 
L 628 4666 
z
" transform="scale(0.015625)"/>
      <path id="DejaVuSans-53" d="M 3425 4513 
L 3425 3897 
Q 3066 4069 2747 4153 
Q 2428 4238 2131 4238 
Q 1616 4238 1336 4038 
Q 1056 3838 1056 3469 
Q 1056 3159 1242 3001 
Q 1428 2844 1947 2747 
L 2328 2669 
Q 3034 2534 3370 2195 
Q 3706 1856 3706 1288 
Q 3706 609 3251 259 
Q 2797 -91 1919 -91 
Q 1588 -91 1214 -16 
Q 841 59 441 206 
L 441 856 
Q 825 641 1194 531 
Q 1563 422 1919 422 
Q 2459 422 2753 634 
Q 3047 847 3047 1241 
Q 3047 1584 2836 1778 
Q 2625 1972 2144 2069 
L 1759 2144 
Q 1053 2284 737 2584 
Q 422 2884 422 3419 
Q 422 4038 858 4394 
Q 1294 4750 2059 4750 
Q 2388 4750 2728 4690 
Q 3069 4631 3425 4513 
z
" transform="scale(0.015625)"/>
     </defs>
     <use xlink:href="#DejaVuSans-43"/>
     <use xlink:href="#DejaVuSans-4d" x="69.824219"/>
     <use xlink:href="#DejaVuSans-41" x="156.103516"/>
     <use xlink:href="#DejaVuSans-2d" x="222.261719"/>
     <use xlink:href="#DejaVuSans-45" x="258.345703"/>
     <use xlink:href="#DejaVuSans-53" x="321.529297"/>
     <use xlink:href="#DejaVuSans-2d" x="385.005859"/>
     <use xlink:href="#DejaVuSans-32" x="421.089844"/>
     <use xlink:href="#DejaVuSans-30" x="484.712891"/>
    </g>
   </g>
   <g id="text_14">
    <!-- cma1 -->
    <g transform="translate(386.578944 210.566485)scale(0.14 -0.14)">
     <use xlink:href="#DejaVuSans-63"/>
     <use xlink:href="#DejaVuSans-6d" x="54.980469"/>
     <use xlink:href="#DejaVuSans-61" x="152.392578"/>
     <use xlink:href="#DejaVuSans-31" x="213.671875"/>
    </g>
   </g>
   <g id="text_15">
    <!-- ddcma1 -->
    <g transform="translate(386.578944 123.751765)scale(0.14 -0.14)">
     <use xlink:href="#DejaVuSans-64"/>
     <use xlink:href="#DejaVuSans-64" x="63.476562"/>
     <use xlink:href="#DejaVuSans-63" x="126.953125"/>
     <use xlink:href="#DejaVuSans-6d" x="181.933594"/>
     <use xlink:href="#DejaVuSans-61" x="279.345703"/>
     <use xlink:href="#DejaVuSans-31" x="340.625"/>
    </g>
   </g>
   <g id="text_16">
    <!-- best 2009 -->
    <g transform="translate(386.578944 36.937045)scale(0.14 -0.14)">
     <defs>
      <path id="DejaVuSans-62" d="M 3116 1747 
Q 3116 2381 2855 2742 
Q 2594 3103 2138 3103 
Q 1681 3103 1420 2742 
Q 1159 2381 1159 1747 
Q 1159 1113 1420 752 
Q 1681 391 2138 391 
Q 2594 391 2855 752 
Q 3116 1113 3116 1747 
z
M 1159 2969 
Q 1341 3281 1617 3432 
Q 1894 3584 2278 3584 
Q 2916 3584 3314 3078 
Q 3713 2572 3713 1747 
Q 3713 922 3314 415 
Q 2916 -91 2278 -91 
Q 1894 -91 1617 61 
Q 1341 213 1159 525 
L 1159 0 
L 581 0 
L 581 4863 
L 1159 4863 
L 1159 2969 
z
" transform="scale(0.015625)"/>
      <path id="DejaVuSans-39" d="M 703 97 
L 703 672 
Q 941 559 1184 500 
Q 1428 441 1663 441 
Q 2288 441 2617 861 
Q 2947 1281 2994 2138 
Q 2813 1869 2534 1725 
Q 2256 1581 1919 1581 
Q 1219 1581 811 2004 
Q 403 2428 403 3163 
Q 403 3881 828 4315 
Q 1253 4750 1959 4750 
Q 2769 4750 3195 4129 
Q 3622 3509 3622 2328 
Q 3622 1225 3098 567 
Q 2575 -91 1691 -91 
Q 1453 -91 1209 -44 
Q 966 3 703 97 
z
M 1959 2075 
Q 2384 2075 2632 2365 
Q 2881 2656 2881 3163 
Q 2881 3666 2632 3958 
Q 2384 4250 1959 4250 
Q 1534 4250 1286 3958 
Q 1038 3666 1038 3163 
Q 1038 2656 1286 2365 
Q 1534 2075 1959 2075 
z
" transform="scale(0.015625)"/>
     </defs>
     <use xlink:href="#DejaVuSans-62"/>
     <use xlink:href="#DejaVuSans-65" x="63.476562"/>
     <use xlink:href="#DejaVuSans-73" x="125"/>
     <use xlink:href="#DejaVuSans-74" x="177.099609"/>
     <use xlink:href="#DejaVuSans-20" x="216.308594"/>
     <use xlink:href="#DejaVuSans-32" x="248.095703"/>
     <use xlink:href="#DejaVuSans-30" x="311.71875"/>
     <use xlink:href="#DejaVuSans-30" x="375.341797"/>
     <use xlink:href="#DejaVuSans-39" x="438.964844"/>
    </g>
   </g>
   <g id="text_17">
    <!-- bbob f3, 5-D -->
    <g transform="translate(60.632064 38.111366)scale(0.102 -0.102)">
     <defs>
      <path id="DejaVuSans-33" d="M 2597 2516 
Q 3050 2419 3304 2112 
Q 3559 1806 3559 1356 
Q 3559 666 3084 287 
Q 2609 -91 1734 -91 
Q 1441 -91 1130 -33 
Q 819 25 488 141 
L 488 750 
Q 750 597 1062 519 
Q 1375 441 1716 441 
Q 2309 441 2620 675 
Q 2931 909 2931 1356 
Q 2931 1769 2642 2001 
Q 2353 2234 1838 2234 
L 1294 2234 
L 1294 2753 
L 1863 2753 
Q 2328 2753 2575 2939 
Q 2822 3125 2822 3475 
Q 2822 3834 2567 4026 
Q 2313 4219 1838 4219 
Q 1578 4219 1281 4162 
Q 984 4106 628 3988 
L 628 4550 
Q 988 4650 1302 4700 
Q 1616 4750 1894 4750 
Q 2613 4750 3031 4423 
Q 3450 4097 3450 3541 
Q 3450 3153 3228 2886 
Q 3006 2619 2597 2516 
z
" transform="scale(0.015625)"/>
      <path id="DejaVuSans-35" d="M 691 4666 
L 3169 4666 
L 3169 4134 
L 1269 4134 
L 1269 2991 
Q 1406 3038 1543 3061 
Q 1681 3084 1819 3084 
Q 2600 3084 3056 2656 
Q 3513 2228 3513 1497 
Q 3513 744 3044 326 
Q 2575 -91 1722 -91 
Q 1428 -91 1123 -41 
Q 819 9 494 109 
L 494 744 
Q 775 591 1075 516 
Q 1375 441 1709 441 
Q 2250 441 2565 725 
Q 2881 1009 2881 1497 
Q 2881 1984 2565 2268 
Q 2250 2553 1709 2553 
Q 1456 2553 1204 2497 
Q 953 2441 691 2322 
L 691 4666 
z
" transform="scale(0.015625)"/>
      <path id="DejaVuSans-44" d="M 1259 4147 
L 1259 519 
L 2022 519 
Q 2988 519 3436 956 
Q 3884 1394 3884 2338 
Q 3884 3275 3436 3711 
Q 2988 4147 2022 4147 
L 1259 4147 
z
M 628 4666 
L 1925 4666 
Q 3281 4666 3915 4102 
Q 4550 3538 4550 2338 
Q 4550 1131 3912 565 
Q 3275 0 1925 0 
L 628 0 
L 628 4666 
z
" transform="scale(0.015625)"/>
     </defs>
     <use xlink:href="#DejaVuSans-62"/>
     <use xlink:href="#DejaVuSans-62" x="63.476562"/>
     <use xlink:href="#DejaVuSans-6f" x="126.953125"/>
     <use xlink:href="#DejaVuSans-62" x="188.134766"/>
     <use xlink:href="#DejaVuSans-20" x="251.611328"/>
     <use xlink:href="#DejaVuSans-66" x="283.398438"/>
     <use xlink:href="#DejaVuSans-33" x="318.603516"/>
     <use xlink:href="#DejaVuSans-2c" x="382.226562"/>
     <use xlink:href="#DejaVuSans-20" x="414.013672"/>
     <use xlink:href="#DejaVuSans-35" x="445.800781"/>
     <use xlink:href="#DejaVuSans-2d" x="509.423828"/>
     <use xlink:href="#DejaVuSans-44" x="545.507812"/>
    </g>
    <!-- 51 targets: 100..1e-08 -->
    <g transform="translate(60.632064 49.533135)scale(0.102 -0.102)">
     <defs>
      <path id="DejaVuSans-3a" d="M 750 794 
L 1409 794 
L 1409 0 
L 750 0 
L 750 794 
z
M 750 3309 
L 1409 3309 
L 1409 2516 
L 750 2516 
L 750 3309 
z
" transform="scale(0.015625)"/>
     </defs>
     <use xlink:href="#DejaVuSans-35"/>
     <use xlink:href="#DejaVuSans-31" x="63.623047"/>
     <use xlink:href="#DejaVuSans-20" x="127.246094"/>
     <use xlink:href="#DejaVuSans-74" x="159.033203"/>
     <use xlink:href="#DejaVuSans-61" x="198.242188"/>
     <use xlink:href="#DejaVuSans-72" x="259.521484"/>
     <use xlink:href="#DejaVuSans-67" x="298.884766"/>
     <use xlink:href="#DejaVuSans-65" x="362.361328"/>
     <use xlink:href="#DejaVuSans-74" x="423.884766"/>
     <use xlink:href="#DejaVuSans-73" x="463.09375"/>
     <use xlink:href="#DejaVuSans-3a" x="515.193359"/>
     <use xlink:href="#DejaVuSans-20" x="548.884766"/>
     <use xlink:href="#DejaVuSans-31" x="580.671875"/>
     <use xlink:href="#DejaVuSans-30" x="644.294922"/>
     <use xlink:href="#DejaVuSans-30" x="707.917969"/>
     <use xlink:href="#DejaVuSans-2e" x="771.541016"/>
     <use xlink:href="#DejaVuSans-2e" x="803.328125"/>
     <use xlink:href="#DejaVuSans-31" x="835.115234"/>
     <use xlink:href="#DejaVuSans-65" x="898.738281"/>
     <use xlink:href="#DejaVuSans-2d" x="960.261719"/>
     <use xlink:href="#DejaVuSans-30" x="996.345703"/>
     <use xlink:href="#DejaVuSans-38" x="1059.96875"/>
    </g>
    <!-- 15 instances -->
    <g transform="translate(60.632064 60.954904)scale(0.102 -0.102)">
     <use xlink:href="#DejaVuSans-31"/>
     <use xlink:href="#DejaVuSans-35" x="63.623047"/>
     <use xlink:href="#DejaVuSans-20" x="127.246094"/>
     <use xlink:href="#DejaVuSans-69" x="159.033203"/>
     <use xlink:href="#DejaVuSans-6e" x="186.816406"/>
     <use xlink:href="#DejaVuSans-73" x="250.195312"/>
     <use xlink:href="#DejaVuSans-74" x="302.294922"/>
     <use xlink:href="#DejaVuSans-61" x="341.503906"/>
     <use xlink:href="#DejaVuSans-6e" x="402.783203"/>
     <use xlink:href="#DejaVuSans-63" x="466.162109"/>
     <use xlink:href="#DejaVuSans-65" x="521.142578"/>
     <use xlink:href="#DejaVuSans-73" x="582.666016"/>
    </g>
   </g>
   <g id="text_18">
    <!-- v2.6 -->
    <g style="fill: #808080" transform="translate(198.292262 294.151352)scale(0.1 -0.1)">
     <use xlink:href="#DejaVuSans-76"/>
     <use xlink:href="#DejaVuSans-32" x="59.179688"/>
     <use xlink:href="#DejaVuSans-2e" x="122.802734"/>
     <use xlink:href="#DejaVuSans-36" x="154.589844"/>
    </g>
   </g>
   <g id="text_19">
    <!-- 3 Rastrigin separable -->
    <g transform="translate(102.792262 21.648)scale(0.2 -0.2)">
     <defs>
      <path id="DejaVuSans-52" d="M 2841 2188 
Q 3044 2119 3236 1894 
Q 3428 1669 3622 1275 
L 4263 0 
L 3584 0 
L 2988 1197 
Q 2756 1666 2539 1819 
Q 2322 1972 1947 1972 
L 1259 1972 
L 1259 0 
L 628 0 
L 628 4666 
L 2053 4666 
Q 2853 4666 3247 4331 
Q 3641 3997 3641 3322 
Q 3641 2881 3436 2590 
Q 3231 2300 2841 2188 
z
M 1259 4147 
L 1259 2491 
L 2053 2491 
Q 2509 2491 2742 2702 
Q 2975 2913 2975 3322 
Q 2975 3731 2742 3939 
Q 2509 4147 2053 4147 
L 1259 4147 
z
" transform="scale(0.015625)"/>
     </defs>
     <use xlink:href="#DejaVuSans-33"/>
     <use xlink:href="#DejaVuSans-20" x="63.623047"/>
     <use xlink:href="#DejaVuSans-52" x="95.410156"/>
     <use xlink:href="#DejaVuSans-61" x="162.642578"/>
     <use xlink:href="#DejaVuSans-73" x="223.921875"/>
     <use xlink:href="#DejaVuSans-74" x="276.021484"/>
     <use xlink:href="#DejaVuSans-72" x="315.230469"/>
     <use xlink:href="#DejaVuSans-69" x="356.34375"/>
     <use xlink:href="#DejaVuSans-67" x="384.126953"/>
     <use xlink:href="#DejaVuSans-69" x="447.603516"/>
     <use xlink:href="#DejaVuSans-6e" x="475.386719"/>
     <use xlink:href="#DejaVuSans-20" x="538.765625"/>
     <use xlink:href="#DejaVuSans-73" x="570.552734"/>
     <use xlink:href="#DejaVuSans-65" x="622.652344"/>
     <use xlink:href="#DejaVuSans-70" x="684.175781"/>
     <use xlink:href="#DejaVuSans-61" x="747.652344"/>
     <use xlink:href="#DejaVuSans-72" x="808.931641"/>
     <use xlink:href="#DejaVuSans-61" x="850.044922"/>
     <use xlink:href="#DejaVuSans-62" x="911.324219"/>
     <use xlink:href="#DejaVuSans-6c" x="974.800781"/>
     <use xlink:href="#DejaVuSans-65" x="1002.583984"/>
    </g>
   </g>
  </g>
 </g>
 <defs>
  <clipPath id="p3773cf554c">
   <rect x="57.6" y="27.648" width="303.2064" height="271.296"/>
  </clipPath>
 </defs>
</svg>
