<?xml version="1.0" encoding="utf-8" standalone="no"?>
<!DOCTYPE svg PUBLIC "-//W3C//DTD SVG 1.1//EN"
  "http://www.w3.org/Graphics/SVG/1.1/DTD/svg11.dtd">
<svg xmlns:xlink="http://www.w3.org/1999/xlink" width="460.8pt" height="345.6pt" viewBox="0 0 460.8 345.6" xmlns="http://www.w3.org/2000/svg" version="1.1">
 <metadata>
  <rdf:RDF xmlns:dc="http://purl.org/dc/elements/1.1/" xmlns:cc="http://creativecommons.org/ns#" xmlns:rdf="http://www.w3.org/1999/02/22-rdf-syntax-ns#">
   <cc:Work>
    <dc:type rdf:resource="http://purl.org/dc/dcmitype/StillImage"/>
    <dc:date>2022-03-16T22:41:23.279155</dc:date>
    <dc:format>image/svg+xml</dc:format>
    <dc:creator>
     <cc:Agent>
      <dc:title>Matplotlib v3.5.1, https://matplotlib.org/</dc:title>
     </cc:Agent>
    </dc:creator>
   </cc:Work>
  </rdf:RDF>
 </metadata>
 <defs>
  <style type="text/css">*{stroke-linejoin: round; stroke-linecap: butt}</style>
 </defs>
 <g id="figure_1">
  <g id="patch_1">
   <path d="M 0 345.6 
L 460.8 345.6 
L 460.8 0 
L 0 0 
z
" style="fill: #ffffff"/>
  </g>
  <g id="axes_1">
   <g id="patch_2">
    <path d="M 57.6 298.944 
L 360.8064 298.944 
L 360.8064 6.912 
L 57.6 6.912 
z
" style="fill: #ffffff"/>
   </g>
   <g id="matplotlib.axis_1">
    <g id="xtick_1">
     <g id="line2d_1">
      <path d="M 57.6 298.944 
L 57.6 6.912 
" clip-path="url(#p10a89c7237)" style="fill: none; stroke: #b0b0b0; stroke-width: 0.8; stroke-linecap: square"/>
     </g>
     <g id="line2d_2">
      <defs>
       <path id="mf588ffad02" d="M 0 0 
L 0 3.5 
" style="stroke: #000000; stroke-width: 0.8"/>
      </defs>
      <g>
       <use xlink:href="#mf588ffad02" x="57.6" y="298.944" style="stroke: #000000; stroke-width: 0.8"/>
      </g>
     </g>
     <g id="text_1">
      <!-- 0 -->
      <g transform="translate(52.191875 318.861344)scale(0.17 -0.17)">
       <defs>
        <path id="DejaVuSans-30" d="M 2034 4250 
Q 1547 4250 1301 3770 
Q 1056 3291 1056 2328 
Q 1056 1369 1301 889 
Q 1547 409 2034 409 
Q 2525 409 2770 889 
Q 3016 1369 3016 2328 
Q 3016 3291 2770 3770 
Q 2525 4250 2034 4250 
z
M 2034 4750 
Q 2819 4750 3233 4129 
Q 3647 3509 3647 2328 
Q 3647 1150 3233 529 
Q 2819 -91 2034 -91 
Q 1250 -91 836 529 
Q 422 1150 422 2328 
Q 422 3509 836 4129 
Q 1250 4750 2034 4750 
z
" transform="scale(0.015625)"/>
       </defs>
       <use xlink:href="#DejaVuSans-30"/>
      </g>
     </g>
    </g>
    <g id="xtick_2">
     <g id="line2d_3">
      <path d="M 144.2304 298.944 
L 144.2304 6.912 
" clip-path="url(#p10a89c7237)" style="fill: none; stroke: #b0b0b0; stroke-width: 0.8; stroke-linecap: square"/>
     </g>
     <g id="line2d_4">
      <g>
       <use xlink:href="#mf588ffad02" x="144.2304" y="298.944" style="stroke: #000000; stroke-width: 0.8"/>
      </g>
     </g>
     <g id="text_2">
      <!-- 2 -->
      <g transform="translate(138.822275 318.861344)scale(0.17 -0.17)">
       <defs>
        <path id="DejaVuSans-32" d="M 1228 531 
L 3431 531 
L 3431 0 
L 469 0 
L 469 531 
Q 828 903 1448 1529 
Q 2069 2156 2228 2338 
Q 2531 2678 2651 2914 
Q 2772 3150 2772 3378 
Q 2772 3750 2511 3984 
Q 2250 4219 1831 4219 
Q 1534 4219 1204 4116 
Q 875 4013 500 3803 
L 500 4441 
Q 881 4594 1212 4672 
Q 1544 4750 1819 4750 
Q 2544 4750 2975 4387 
Q 3406 4025 3406 3419 
Q 3406 3131 3298 2873 
Q 3191 2616 2906 2266 
Q 2828 2175 2409 1742 
Q 1991 1309 1228 531 
z
" transform="scale(0.015625)"/>
       </defs>
       <use xlink:href="#DejaVuSans-32"/>
      </g>
     </g>
    </g>
    <g id="xtick_3">
     <g id="line2d_5">
      <path d="M 230.8608 298.944 
L 230.8608 6.912 
" clip-path="url(#p10a89c7237)" style="fill: none; stroke: #b0b0b0; stroke-width: 0.8; stroke-linecap: square"/>
     </g>
     <g id="line2d_6">
      <g>
       <use xlink:href="#mf588ffad02" x="230.8608" y="298.944" style="stroke: #000000; stroke-width: 0.8"/>
      </g>
     </g>
     <g id="text_3">
      <!-- 4 -->
      <g transform="translate(225.452675 318.861344)scale(0.17 -0.17)">
       <defs>
        <path id="DejaVuSans-34" d="M 2419 4116 
L 825 1625 
L 2419 1625 
L 2419 4116 
z
M 2253 4666 
L 3047 4666 
L 3047 1625 
L 3713 1625 
L 3713 1100 
L 3047 1100 
L 3047 0 
L 2419 0 
L 2419 1100 
L 313 1100 
L 313 1709 
L 2253 4666 
z
" transform="scale(0.015625)"/>
       </defs>
       <use xlink:href="#DejaVuSans-34"/>
      </g>
     </g>
    </g>
    <g id="xtick_4">
     <g id="line2d_7">
      <path d="M 317.4912 298.944 
L 317.4912 6.912 
" clip-path="url(#p10a89c7237)" style="fill: none; stroke: #b0b0b0; stroke-width: 0.8; stroke-linecap: square"/>
     </g>
     <g id="line2d_8">
      <g>
       <use xlink:href="#mf588ffad02" x="317.4912" y="298.944" style="stroke: #000000; stroke-width: 0.8"/>
      </g>
     </g>
     <g id="text_4">
      <!-- 6 -->
      <g transform="translate(312.083075 318.861344)scale(0.17 -0.17)">
       <defs>
        <path id="DejaVuSans-36" d="M 2113 2584 
Q 1688 2584 1439 2293 
Q 1191 2003 1191 1497 
Q 1191 994 1439 701 
Q 1688 409 2113 409 
Q 2538 409 2786 701 
Q 3034 994 3034 1497 
Q 3034 2003 2786 2293 
Q 2538 2584 2113 2584 
z
M 3366 4563 
L 3366 3988 
Q 3128 4100 2886 4159 
Q 2644 4219 2406 4219 
Q 1781 4219 1451 3797 
Q 1122 3375 1075 2522 
Q 1259 2794 1537 2939 
Q 1816 3084 2150 3084 
Q 2853 3084 3261 2657 
Q 3669 2231 3669 1497 
Q 3669 778 3244 343 
Q 2819 -91 2113 -91 
Q 1303 -91 875 529 
Q 447 1150 447 2328 
Q 447 3434 972 4092 
Q 1497 4750 2381 4750 
Q 2619 4750 2861 4703 
Q 3103 4656 3366 4563 
z
" transform="scale(0.015625)"/>
       </defs>
       <use xlink:href="#DejaVuSans-36"/>
      </g>
     </g>
    </g>
    <g id="xtick_5">
     <g id="line2d_9">
      <path d="M 100.9152 298.944 
L 100.9152 6.912 
" clip-path="url(#p10a89c7237)" style="fill: none; stroke: #b0b0b0; stroke-width: 0.8; stroke-linecap: square"/>
     </g>
     <g id="line2d_10">
      <defs>
       <path id="m3353f8c102" d="M 0 0 
L 0 2 
" style="stroke: #000000; stroke-width: 0.6"/>
      </defs>
      <g>
       <use xlink:href="#m3353f8c102" x="100.9152" y="298.944" style="stroke: #000000; stroke-width: 0.6"/>
      </g>
     </g>
    </g>
    <g id="xtick_6">
     <g id="line2d_11">
      <path d="M 187.5456 298.944 
L 187.5456 6.912 
" clip-path="url(#p10a89c7237)" style="fill: none; stroke: #b0b0b0; stroke-width: 0.8; stroke-linecap: square"/>
     </g>
     <g id="line2d_12">
      <g>
       <use xlink:href="#m3353f8c102" x="187.5456" y="298.944" style="stroke: #000000; stroke-width: 0.6"/>
      </g>
     </g>
    </g>
    <g id="xtick_7">
     <g id="line2d_13">
      <path d="M 274.176 298.944 
L 274.176 6.912 
" clip-path="url(#p10a89c7237)" style="fill: none; stroke: #b0b0b0; stroke-width: 0.8; stroke-linecap: square"/>
     </g>
     <g id="line2d_14">
      <g>
       <use xlink:href="#m3353f8c102" x="274.176" y="298.944" style="stroke: #000000; stroke-width: 0.6"/>
      </g>
     </g>
    </g>
    <g id="xtick_8">
     <g id="line2d_15">
      <path d="M 360.8064 298.944 
L 360.8064 6.912 
" clip-path="url(#p10a89c7237)" style="fill: none; stroke: #b0b0b0; stroke-width: 0.8; stroke-linecap: square"/>
     </g>
     <g id="line2d_16">
      <g>
       <use xlink:href="#m3353f8c102" x="360.8064" y="298.944" style="stroke: #000000; stroke-width: 0.6"/>
      </g>
     </g>
    </g>
    <g id="text_5">
     <!-- log10(# f-evals / dimension) -->
     <g transform="translate(88.823278 339.314156)scale(0.17 -0.17)">
      <defs>
       <path id="DejaVuSans-6c" d="M 603 4863 
L 1178 4863 
L 1178 0 
L 603 0 
L 603 4863 
z
" transform="scale(0.015625)"/>
       <path id="DejaVuSans-6f" d="M 1959 3097 
Q 1497 3097 1228 2736 
Q 959 2375 959 1747 
Q 959 1119 1226 758 
Q 1494 397 1959 397 
Q 2419 397 2687 759 
Q 2956 1122 2956 1747 
Q 2956 2369 2687 2733 
Q 2419 3097 1959 3097 
z
M 1959 3584 
Q 2709 3584 3137 3096 
Q 3566 2609 3566 1747 
Q 3566 888 3137 398 
Q 2709 -91 1959 -91 
Q 1206 -91 779 398 
Q 353 888 353 1747 
Q 353 2609 779 3096 
Q 1206 3584 1959 3584 
z
" transform="scale(0.015625)"/>
       <path id="DejaVuSans-67" d="M 2906 1791 
Q 2906 2416 2648 2759 
Q 2391 3103 1925 3103 
Q 1463 3103 1205 2759 
Q 947 2416 947 1791 
Q 947 1169 1205 825 
Q 1463 481 1925 481 
Q 2391 481 2648 825 
Q 2906 1169 2906 1791 
z
M 3481 434 
Q 3481 -459 3084 -895 
Q 2688 -1331 1869 -1331 
Q 1566 -1331 1297 -1286 
Q 1028 -1241 775 -1147 
L 775 -588 
Q 1028 -725 1275 -790 
Q 1522 -856 1778 -856 
Q 2344 -856 2625 -561 
Q 2906 -266 2906 331 
L 2906 616 
Q 2728 306 2450 153 
Q 2172 0 1784 0 
Q 1141 0 747 490 
Q 353 981 353 1791 
Q 353 2603 747 3093 
Q 1141 3584 1784 3584 
Q 2172 3584 2450 3431 
Q 2728 3278 2906 2969 
L 2906 3500 
L 3481 3500 
L 3481 434 
z
" transform="scale(0.015625)"/>
       <path id="DejaVuSans-31" d="M 794 531 
L 1825 531 
L 1825 4091 
L 703 3866 
L 703 4441 
L 1819 4666 
L 2450 4666 
L 2450 531 
L 3481 531 
L 3481 0 
L 794 0 
L 794 531 
z
" transform="scale(0.015625)"/>
       <path id="DejaVuSans-28" d="M 1984 4856 
Q 1566 4138 1362 3434 
Q 1159 2731 1159 2009 
Q 1159 1288 1364 580 
Q 1569 -128 1984 -844 
L 1484 -844 
Q 1016 -109 783 600 
Q 550 1309 550 2009 
Q 550 2706 781 3412 
Q 1013 4119 1484 4856 
L 1984 4856 
z
" transform="scale(0.015625)"/>
       <path id="DejaVuSans-23" d="M 3272 2816 
L 2363 2816 
L 2100 1772 
L 3016 1772 
L 3272 2816 
z
M 2803 4594 
L 2478 3297 
L 3391 3297 
L 3719 4594 
L 4219 4594 
L 3897 3297 
L 4872 3297 
L 4872 2816 
L 3775 2816 
L 3519 1772 
L 4513 1772 
L 4513 1294 
L 3397 1294 
L 3072 0 
L 2572 0 
L 2894 1294 
L 1978 1294 
L 1656 0 
L 1153 0 
L 1478 1294 
L 494 1294 
L 494 1772 
L 1594 1772 
L 1856 2816 
L 850 2816 
L 850 3297 
L 1978 3297 
L 2297 4594 
L 2803 4594 
z
" transform="scale(0.015625)"/>
       <path id="DejaVuSans-20" transform="scale(0.015625)"/>
       <path id="DejaVuSans-66" d="M 2375 4863 
L 2375 4384 
L 1825 4384 
Q 1516 4384 1395 4259 
Q 1275 4134 1275 3809 
L 1275 3500 
L 2222 3500 
L 2222 3053 
L 1275 3053 
L 1275 0 
L 697 0 
L 697 3053 
L 147 3053 
L 147 3500 
L 697 3500 
L 697 3744 
Q 697 4328 969 4595 
Q 1241 4863 1831 4863 
L 2375 4863 
z
" transform="scale(0.015625)"/>
       <path id="DejaVuSans-2d" d="M 313 2009 
L 1997 2009 
L 1997 1497 
L 313 1497 
L 313 2009 
z
" transform="scale(0.015625)"/>
       <path id="DejaVuSans-65" d="M 3597 1894 
L 3597 1613 
L 953 1613 
Q 991 1019 1311 708 
Q 1631 397 2203 397 
Q 2534 397 2845 478 
Q 3156 559 3463 722 
L 3463 178 
Q 3153 47 2828 -22 
Q 2503 -91 2169 -91 
Q 1331 -91 842 396 
Q 353 884 353 1716 
Q 353 2575 817 3079 
Q 1281 3584 2069 3584 
Q 2775 3584 3186 3129 
Q 3597 2675 3597 1894 
z
M 3022 2063 
Q 3016 2534 2758 2815 
Q 2500 3097 2075 3097 
Q 1594 3097 1305 2825 
Q 1016 2553 972 2059 
L 3022 2063 
z
" transform="scale(0.015625)"/>
       <path id="DejaVuSans-76" d="M 191 3500 
L 800 3500 
L 1894 563 
L 2988 3500 
L 3597 3500 
L 2284 0 
L 1503 0 
L 191 3500 
z
" transform="scale(0.015625)"/>
       <path id="DejaVuSans-61" d="M 2194 1759 
Q 1497 1759 1228 1600 
Q 959 1441 959 1056 
Q 959 750 1161 570 
Q 1363 391 1709 391 
Q 2188 391 2477 730 
Q 2766 1069 2766 1631 
L 2766 1759 
L 2194 1759 
z
M 3341 1997 
L 3341 0 
L 2766 0 
L 2766 531 
Q 2569 213 2275 61 
Q 1981 -91 1556 -91 
Q 1019 -91 701 211 
Q 384 513 384 1019 
Q 384 1609 779 1909 
Q 1175 2209 1959 2209 
L 2766 2209 
L 2766 2266 
Q 2766 2663 2505 2880 
Q 2244 3097 1772 3097 
Q 1472 3097 1187 3025 
Q 903 2953 641 2809 
L 641 3341 
Q 956 3463 1253 3523 
Q 1550 3584 1831 3584 
Q 2591 3584 2966 3190 
Q 3341 2797 3341 1997 
z
" transform="scale(0.015625)"/>
       <path id="DejaVuSans-73" d="M 2834 3397 
L 2834 2853 
Q 2591 2978 2328 3040 
Q 2066 3103 1784 3103 
Q 1356 3103 1142 2972 
Q 928 2841 928 2578 
Q 928 2378 1081 2264 
Q 1234 2150 1697 2047 
L 1894 2003 
Q 2506 1872 2764 1633 
Q 3022 1394 3022 966 
Q 3022 478 2636 193 
Q 2250 -91 1575 -91 
Q 1294 -91 989 -36 
Q 684 19 347 128 
L 347 722 
Q 666 556 975 473 
Q 1284 391 1588 391 
Q 1994 391 2212 530 
Q 2431 669 2431 922 
Q 2431 1156 2273 1281 
Q 2116 1406 1581 1522 
L 1381 1569 
Q 847 1681 609 1914 
Q 372 2147 372 2553 
Q 372 3047 722 3315 
Q 1072 3584 1716 3584 
Q 2034 3584 2315 3537 
Q 2597 3491 2834 3397 
z
" transform="scale(0.015625)"/>
       <path id="DejaVuSans-2f" d="M 1625 4666 
L 2156 4666 
L 531 -594 
L 0 -594 
L 1625 4666 
z
" transform="scale(0.015625)"/>
       <path id="DejaVuSans-64" d="M 2906 2969 
L 2906 4863 
L 3481 4863 
L 3481 0 
L 2906 0 
L 2906 525 
Q 2725 213 2448 61 
Q 2172 -91 1784 -91 
Q 1150 -91 751 415 
Q 353 922 353 1747 
Q 353 2572 751 3078 
Q 1150 3584 1784 3584 
Q 2172 3584 2448 3432 
Q 2725 3281 2906 2969 
z
M 947 1747 
Q 947 1113 1208 752 
Q 1469 391 1925 391 
Q 2381 391 2643 752 
Q 2906 1113 2906 1747 
Q 2906 2381 2643 2742 
Q 2381 3103 1925 3103 
Q 1469 3103 1208 2742 
Q 947 2381 947 1747 
z
" transform="scale(0.015625)"/>
       <path id="DejaVuSans-69" d="M 603 3500 
L 1178 3500 
L 1178 0 
L 603 0 
L 603 3500 
z
M 603 4863 
L 1178 4863 
L 1178 4134 
L 603 4134 
L 603 4863 
z
" transform="scale(0.015625)"/>
       <path id="DejaVuSans-6d" d="M 3328 2828 
Q 3544 3216 3844 3400 
Q 4144 3584 4550 3584 
Q 5097 3584 5394 3201 
Q 5691 2819 5691 2113 
L 5691 0 
L 5113 0 
L 5113 2094 
Q 5113 2597 4934 2840 
Q 4756 3084 4391 3084 
Q 3944 3084 3684 2787 
Q 3425 2491 3425 1978 
L 3425 0 
L 2847 0 
L 2847 2094 
Q 2847 2600 2669 2842 
Q 2491 3084 2119 3084 
Q 1678 3084 1418 2786 
Q 1159 2488 1159 1978 
L 1159 0 
L 581 0 
L 581 3500 
L 1159 3500 
L 1159 2956 
Q 1356 3278 1631 3431 
Q 1906 3584 2284 3584 
Q 2666 3584 2933 3390 
Q 3200 3197 3328 2828 
z
" transform="scale(0.015625)"/>
       <path id="DejaVuSans-6e" d="M 3513 2113 
L 3513 0 
L 2938 0 
L 2938 2094 
Q 2938 2591 2744 2837 
Q 2550 3084 2163 3084 
Q 1697 3084 1428 2787 
Q 1159 2491 1159 1978 
L 1159 0 
L 581 0 
L 581 3500 
L 1159 3500 
L 1159 2956 
Q 1366 3272 1645 3428 
Q 1925 3584 2291 3584 
Q 2894 3584 3203 3211 
Q 3513 2838 3513 2113 
z
" transform="scale(0.015625)"/>
       <path id="DejaVuSans-29" d="M 513 4856 
L 1013 4856 
Q 1481 4119 1714 3412 
Q 1947 2706 1947 2009 
Q 1947 1309 1714 600 
Q 1481 -109 1013 -844 
L 513 -844 
Q 928 -128 1133 580 
Q 1338 1288 1338 2009 
Q 1338 2731 1133 3434 
Q 928 4138 513 4856 
z
" transform="scale(0.015625)"/>
      </defs>
      <use xlink:href="#DejaVuSans-6c"/>
      <use xlink:href="#DejaVuSans-6f" x="27.783203"/>
      <use xlink:href="#DejaVuSans-67" x="88.964844"/>
      <use xlink:href="#DejaVuSans-31" x="152.441406"/>
      <use xlink:href="#DejaVuSans-30" x="216.064453"/>
      <use xlink:href="#DejaVuSans-28" x="279.6875"/>
      <use xlink:href="#DejaVuSans-23" x="318.701172"/>
      <use xlink:href="#DejaVuSans-20" x="402.490234"/>
      <use xlink:href="#DejaVuSans-66" x="434.277344"/>
      <use xlink:href="#DejaVuSans-2d" x="463.982422"/>
      <use xlink:href="#DejaVuSans-65" x="500.066406"/>
      <use xlink:href="#DejaVuSans-76" x="561.589844"/>
      <use xlink:href="#DejaVuSans-61" x="620.769531"/>
      <use xlink:href="#DejaVuSans-6c" x="682.048828"/>
      <use xlink:href="#DejaVuSans-73" x="709.832031"/>
      <use xlink:href="#DejaVuSans-20" x="761.931641"/>
      <use xlink:href="#DejaVuSans-2f" x="793.71875"/>
      <use xlink:href="#DejaVuSans-20" x="827.410156"/>
      <use xlink:href="#DejaVuSans-64" x="859.197266"/>
      <use xlink:href="#DejaVuSans-69" x="922.673828"/>
      <use xlink:href="#DejaVuSans-6d" x="950.457031"/>
      <use xlink:href="#DejaVuSans-65" x="1047.869141"/>
      <use xlink:href="#DejaVuSans-6e" x="1109.392578"/>
      <use xlink:href="#DejaVuSans-73" x="1172.771484"/>
      <use xlink:href="#DejaVuSans-69" x="1224.871094"/>
      <use xlink:href="#DejaVuSans-6f" x="1252.654297"/>
      <use xlink:href="#DejaVuSans-6e" x="1313.835938"/>
      <use xlink:href="#DejaVuSans-29" x="1377.214844"/>
     </g>
    </g>
   </g>
   <g id="matplotlib.axis_2">
    <g id="ytick_1">
     <g id="line2d_17">
      <path d="M 57.6 298.944 
L 360.8064 298.944 
" clip-path="url(#p10a89c7237)" style="fill: none; stroke: #b0b0b0; stroke-width: 0.8; stroke-linecap: square"/>
     </g>
     <g id="line2d_18">
      <defs>
       <path id="m9388b88aa3" d="M 0 0 
L -3.5 0 
" style="stroke: #000000; stroke-width: 0.8"/>
      </defs>
      <g>
       <use xlink:href="#m9388b88aa3" x="57.6" y="298.944" style="stroke: #000000; stroke-width: 0.8"/>
      </g>
     </g>
     <g id="text_6">
      <!-- 0.0 -->
      <g transform="translate(25.155 305.02275)scale(0.16 -0.16)">
       <defs>
        <path id="DejaVuSans-2e" d="M 684 794 
L 1344 794 
L 1344 0 
L 684 0 
L 684 794 
z
" transform="scale(0.015625)"/>
       </defs>
       <use xlink:href="#DejaVuSans-30"/>
       <use xlink:href="#DejaVuSans-2e" x="63.623047"/>
       <use xlink:href="#DejaVuSans-30" x="95.410156"/>
      </g>
     </g>
    </g>
    <g id="ytick_2">
     <g id="line2d_19">
      <path d="M 57.6 240.5376 
L 360.8064 240.5376 
" clip-path="url(#p10a89c7237)" style="fill: none; stroke: #b0b0b0; stroke-width: 0.8; stroke-linecap: square"/>
     </g>
     <g id="line2d_20">
      <g>
       <use xlink:href="#m9388b88aa3" x="57.6" y="240.5376" style="stroke: #000000; stroke-width: 0.8"/>
      </g>
     </g>
     <g id="text_7">
      <!-- 0.2 -->
      <g transform="translate(25.155 246.61635)scale(0.16 -0.16)">
       <use xlink:href="#DejaVuSans-30"/>
       <use xlink:href="#DejaVuSans-2e" x="63.623047"/>
       <use xlink:href="#DejaVuSans-32" x="95.410156"/>
      </g>
     </g>
    </g>
    <g id="ytick_3">
     <g id="line2d_21">
      <path d="M 57.6 182.1312 
L 360.8064 182.1312 
" clip-path="url(#p10a89c7237)" style="fill: none; stroke: #b0b0b0; stroke-width: 0.8; stroke-linecap: square"/>
     </g>
     <g id="line2d_22">
      <g>
       <use xlink:href="#m9388b88aa3" x="57.6" y="182.1312" style="stroke: #000000; stroke-width: 0.8"/>
      </g>
     </g>
     <g id="text_8">
      <!-- 0.4 -->
      <g transform="translate(25.155 188.20995)scale(0.16 -0.16)">
       <use xlink:href="#DejaVuSans-30"/>
       <use xlink:href="#DejaVuSans-2e" x="63.623047"/>
       <use xlink:href="#DejaVuSans-34" x="95.410156"/>
      </g>
     </g>
    </g>
    <g id="ytick_4">
     <g id="line2d_23">
      <path d="M 57.6 123.7248 
L 360.8064 123.7248 
" clip-path="url(#p10a89c7237)" style="fill: none; stroke: #b0b0b0; stroke-width: 0.8; stroke-linecap: square"/>
     </g>
     <g id="line2d_24">
      <g>
       <use xlink:href="#m9388b88aa3" x="57.6" y="123.7248" style="stroke: #000000; stroke-width: 0.8"/>
      </g>
     </g>
     <g id="text_9">
      <!-- 0.6 -->
      <g transform="translate(25.155 129.80355)scale(0.16 -0.16)">
       <use xlink:href="#DejaVuSans-30"/>
       <use xlink:href="#DejaVuSans-2e" x="63.623047"/>
       <use xlink:href="#DejaVuSans-36" x="95.410156"/>
      </g>
     </g>
    </g>
    <g id="ytick_5">
     <g id="line2d_25">
      <path d="M 57.6 65.3184 
L 360.8064 65.3184 
" clip-path="url(#p10a89c7237)" style="fill: none; stroke: #b0b0b0; stroke-width: 0.8; stroke-linecap: square"/>
     </g>
     <g id="line2d_26">
      <g>
       <use xlink:href="#m9388b88aa3" x="57.6" y="65.3184" style="stroke: #000000; stroke-width: 0.8"/>
      </g>
     </g>
     <g id="text_10">
      <!-- 0.8 -->
      <g transform="translate(25.155 71.39715)scale(0.16 -0.16)">
       <defs>
        <path id="DejaVuSans-38" d="M 2034 2216 
Q 1584 2216 1326 1975 
Q 1069 1734 1069 1313 
Q 1069 891 1326 650 
Q 1584 409 2034 409 
Q 2484 409 2743 651 
Q 3003 894 3003 1313 
Q 3003 1734 2745 1975 
Q 2488 2216 2034 2216 
z
M 1403 2484 
Q 997 2584 770 2862 
Q 544 3141 544 3541 
Q 544 4100 942 4425 
Q 1341 4750 2034 4750 
Q 2731 4750 3128 4425 
Q 3525 4100 3525 3541 
Q 3525 3141 3298 2862 
Q 3072 2584 2669 2484 
Q 3125 2378 3379 2068 
Q 3634 1759 3634 1313 
Q 3634 634 3220 271 
Q 2806 -91 2034 -91 
Q 1263 -91 848 271 
Q 434 634 434 1313 
Q 434 1759 690 2068 
Q 947 2378 1403 2484 
z
M 1172 3481 
Q 1172 3119 1398 2916 
Q 1625 2713 2034 2713 
Q 2441 2713 2670 2916 
Q 2900 3119 2900 3481 
Q 2900 3844 2670 4047 
Q 2441 4250 2034 4250 
Q 1625 4250 1398 4047 
Q 1172 3844 1172 3481 
z
" transform="scale(0.015625)"/>
       </defs>
       <use xlink:href="#DejaVuSans-30"/>
       <use xlink:href="#DejaVuSans-2e" x="63.623047"/>
       <use xlink:href="#DejaVuSans-38" x="95.410156"/>
      </g>
     </g>
    </g>
    <g id="ytick_6">
     <g id="line2d_27">
      <path d="M 57.6 6.912 
L 360.8064 6.912 
" clip-path="url(#p10a89c7237)" style="fill: none; stroke: #b0b0b0; stroke-width: 0.8; stroke-linecap: square"/>
     </g>
     <g id="line2d_28">
      <g>
       <use xlink:href="#m9388b88aa3" x="57.6" y="6.912" style="stroke: #000000; stroke-width: 0.8"/>
      </g>
     </g>
     <g id="text_11">
      <!-- 1.0 -->
      <g transform="translate(25.155 12.99075)scale(0.16 -0.16)">
       <use xlink:href="#DejaVuSans-31"/>
       <use xlink:href="#DejaVuSans-2e" x="63.623047"/>
       <use xlink:href="#DejaVuSans-30" x="95.410156"/>
      </g>
     </g>
    </g>
    <g id="text_12">
     <!-- Fraction of function,target pairs -->
     <g transform="translate(17.619531 287.313)rotate(-90)scale(0.17 -0.17)">
      <defs>
       <path id="DejaVuSans-46" d="M 628 4666 
L 3309 4666 
L 3309 4134 
L 1259 4134 
L 1259 2759 
L 3109 2759 
L 3109 2228 
L 1259 2228 
L 1259 0 
L 628 0 
L 628 4666 
z
" transform="scale(0.015625)"/>
       <path id="DejaVuSans-72" d="M 2631 2963 
Q 2534 3019 2420 3045 
Q 2306 3072 2169 3072 
Q 1681 3072 1420 2755 
Q 1159 2438 1159 1844 
L 1159 0 
L 581 0 
L 581 3500 
L 1159 3500 
L 1159 2956 
Q 1341 3275 1631 3429 
Q 1922 3584 2338 3584 
Q 2397 3584 2469 3576 
Q 2541 3569 2628 3553 
L 2631 2963 
z
" transform="scale(0.015625)"/>
       <path id="DejaVuSans-63" d="M 3122 3366 
L 3122 2828 
Q 2878 2963 2633 3030 
Q 2388 3097 2138 3097 
Q 1578 3097 1268 2742 
Q 959 2388 959 1747 
Q 959 1106 1268 751 
Q 1578 397 2138 397 
Q 2388 397 2633 464 
Q 2878 531 3122 666 
L 3122 134 
Q 2881 22 2623 -34 
Q 2366 -91 2075 -91 
Q 1284 -91 818 406 
Q 353 903 353 1747 
Q 353 2603 823 3093 
Q 1294 3584 2113 3584 
Q 2378 3584 2631 3529 
Q 2884 3475 3122 3366 
z
" transform="scale(0.015625)"/>
       <path id="DejaVuSans-74" d="M 1172 4494 
L 1172 3500 
L 2356 3500 
L 2356 3053 
L 1172 3053 
L 1172 1153 
Q 1172 725 1289 603 
Q 1406 481 1766 481 
L 2356 481 
L 2356 0 
L 1766 0 
Q 1100 0 847 248 
Q 594 497 594 1153 
L 594 3053 
L 172 3053 
L 172 3500 
L 594 3500 
L 594 4494 
L 1172 4494 
z
" transform="scale(0.015625)"/>
       <path id="DejaVuSans-75" d="M 544 1381 
L 544 3500 
L 1119 3500 
L 1119 1403 
Q 1119 906 1312 657 
Q 1506 409 1894 409 
Q 2359 409 2629 706 
Q 2900 1003 2900 1516 
L 2900 3500 
L 3475 3500 
L 3475 0 
L 2900 0 
L 2900 538 
Q 2691 219 2414 64 
Q 2138 -91 1772 -91 
Q 1169 -91 856 284 
Q 544 659 544 1381 
z
M 1991 3584 
L 1991 3584 
z
" transform="scale(0.015625)"/>
       <path id="DejaVuSans-2c" d="M 750 794 
L 1409 794 
L 1409 256 
L 897 -744 
L 494 -744 
L 750 256 
L 750 794 
z
" transform="scale(0.015625)"/>
       <path id="DejaVuSans-70" d="M 1159 525 
L 1159 -1331 
L 581 -1331 
L 581 3500 
L 1159 3500 
L 1159 2969 
Q 1341 3281 1617 3432 
Q 1894 3584 2278 3584 
Q 2916 3584 3314 3078 
Q 3713 2572 3713 1747 
Q 3713 922 3314 415 
Q 2916 -91 2278 -91 
Q 1894 -91 1617 61 
Q 1341 213 1159 525 
z
M 3116 1747 
Q 3116 2381 2855 2742 
Q 2594 3103 2138 3103 
Q 1681 3103 1420 2742 
Q 1159 2381 1159 1747 
Q 1159 1113 1420 752 
Q 1681 391 2138 391 
Q 2594 391 2855 752 
Q 3116 1113 3116 1747 
z
" transform="scale(0.015625)"/>
      </defs>
      <use xlink:href="#DejaVuSans-46"/>
      <use xlink:href="#DejaVuSans-72" x="50.269531"/>
      <use xlink:href="#DejaVuSans-61" x="91.382812"/>
      <use xlink:href="#DejaVuSans-63" x="152.662109"/>
      <use xlink:href="#DejaVuSans-74" x="207.642578"/>
      <use xlink:href="#DejaVuSans-69" x="246.851562"/>
      <use xlink:href="#DejaVuSans-6f" x="274.634766"/>
      <use xlink:href="#DejaVuSans-6e" x="335.816406"/>
      <use xlink:href="#DejaVuSans-20" x="399.195312"/>
      <use xlink:href="#DejaVuSans-6f" x="430.982422"/>
      <use xlink:href="#DejaVuSans-66" x="492.164062"/>
      <use xlink:href="#DejaVuSans-20" x="527.369141"/>
      <use xlink:href="#DejaVuSans-66" x="559.15625"/>
      <use xlink:href="#DejaVuSans-75" x="594.361328"/>
      <use xlink:href="#DejaVuSans-6e" x="657.740234"/>
      <use xlink:href="#DejaVuSans-63" x="721.119141"/>
      <use xlink:href="#DejaVuSans-74" x="776.099609"/>
      <use xlink:href="#DejaVuSans-69" x="815.308594"/>
      <use xlink:href="#DejaVuSans-6f" x="843.091797"/>
      <use xlink:href="#DejaVuSans-6e" x="904.273438"/>
      <use xlink:href="#DejaVuSans-2c" x="967.652344"/>
      <use xlink:href="#DejaVuSans-74" x="999.439453"/>
      <use xlink:href="#DejaVuSans-61" x="1038.648438"/>
      <use xlink:href="#DejaVuSans-72" x="1099.927734"/>
      <use xlink:href="#DejaVuSans-67" x="1139.291016"/>
      <use xlink:href="#DejaVuSans-65" x="1202.767578"/>
      <use xlink:href="#DejaVuSans-74" x="1264.291016"/>
      <use xlink:href="#DejaVuSans-20" x="1303.5"/>
      <use xlink:href="#DejaVuSans-70" x="1335.287109"/>
      <use xlink:href="#DejaVuSans-61" x="1398.763672"/>
      <use xlink:href="#DejaVuSans-69" x="1460.042969"/>
      <use xlink:href="#DejaVuSans-72" x="1487.826172"/>
      <use xlink:href="#DejaVuSans-73" x="1528.939453"/>
     </g>
    </g>
   </g>
   <g id="line2d_29">
    <defs>
     <path id="mb2cc6d68f4" d="M 0 1.5 
C 0.397805 1.5 0.77937 1.341951 1.06066 1.06066 
C 1.341951 0.77937 1.5 0.397805 1.5 0 
C 1.5 -0.397805 1.341951 -0.77937 1.06066 -1.06066 
C 0.77937 -1.341951 0.397805 -1.5 0 -1.5 
C -0.397805 -1.5 -0.77937 -1.341951 -1.06066 -1.06066 
C -1.341951 -0.77937 -1.5 -0.397805 -1.5 0 
C -1.5 0.397805 -1.341951 0.77937 -1.06066 1.06066 
C -0.77937 1.341951 -0.397805 1.5 0 1.5 
z
" style="stroke: #000080"/>
    </defs>
    <g>
     <use xlink:href="#mb2cc6d68f4" x="205.021711" y="150.064941" style="fill: #000080; stroke: #000080"/>
     <use xlink:href="#mb2cc6d68f4" x="205.021711" y="150.064941" style="fill: #000080; stroke: #000080"/>
    </g>
   </g>
   <g id="line2d_30">
    <path d="M 81.166416 298.944 
L 81.166416 295.508329 
L 115.314838 295.508329 
L 115.314838 292.072659 
L 117.772007 292.072659 
L 117.772007 282.910871 
L 120.28394 282.910871 
L 120.28394 278.329976 
L 122.499621 278.329976 
L 122.499621 272.603859 
L 124.481616 272.603859 
L 124.481616 270.313412 
L 125.011554 270.313412 
L 125.011554 263.442071 
L 126.028642 263.442071 
L 126.028642 261.151624 
L 126.517282 261.151624 
L 126.517282 254.280282 
L 126.756923 254.280282 
L 126.756923 251.989835 
L 126.993549 251.989835 
L 126.993549 247.408941 
L 128.57149 247.408941 
L 128.57149 246.263718 
L 129.417095 246.263718 
L 129.417095 245.118494 
L 134.304809 245.118494 
L 134.304809 243.973271 
L 134.620977 243.973271 
L 134.620977 239.392376 
L 135.835047 239.392376 
L 135.835047 238.247153 
L 139.435481 238.247153 
L 139.435481 233.666259 
L 140.032723 233.666259 
L 140.032723 232.521035 
L 140.838234 232.521035 
L 140.838234 231.375812 
L 141.825656 231.375812 
L 141.825656 230.230588 
L 142.352625 230.230588 
L 142.352625 225.649694 
L 142.661862 225.649694 
L 142.661862 224.504471 
L 143.166224 224.504471 
L 143.166224 223.359247 
L 144.324223 223.359247 
L 144.324223 222.214024 
L 144.602918 222.214024 
L 144.602918 221.0688 
L 148.800595 221.0688 
L 148.800595 220.496188 
L 149.31003 220.496188 
L 149.31003 219.350965 
L 150.425115 219.350965 
L 150.425115 218.778353 
L 150.8268 218.778353 
L 150.8268 215.915294 
L 153.305585 215.915294 
L 153.305585 215.342682 
L 153.421349 215.342682 
L 153.421349 209.043953 
L 155.339761 209.043953 
L 155.339761 205.035671 
L 155.598521 205.035671 
L 155.598521 204.463059 
L 156.403417 204.463059 
L 156.403417 203.890447 
L 156.648044 203.890447 
L 156.648044 198.736941 
L 156.793307 198.736941 
L 156.793307 198.164329 
L 157.032948 198.164329 
L 157.032948 197.591718 
L 157.734081 197.591718 
L 157.734081 196.446494 
L 161.087207 196.446494 
L 161.087207 194.156047 
L 162.634233 194.156047 
L 162.634233 191.8656 
L 162.915008 191.8656 
L 162.915008 191.292988 
L 163.832826 191.292988 
L 163.832826 189.002541 
L 164.676244 189.002541 
L 164.676244 186.139482 
L 165.300233 186.139482 
L 165.300233 185.566871 
L 167.084795 185.566871 
L 167.084795 184.994259 
L 167.689013 184.994259 
L 167.689013 182.1312 
L 168.79126 182.1312 
L 168.79126 180.413365 
L 169.662898 180.413365 
L 169.662898 175.259859 
L 170.28522 175.259859 
L 170.28522 174.114635 
L 170.472634 174.114635 
L 170.472634 173.542024 
L 170.7503 173.542024 
L 170.7503 172.3968 
L 173.422332 172.3968 
L 173.422332 171.251576 
L 173.581081 171.251576 
L 173.581081 170.678965 
L 174.107176 170.678965 
L 174.107176 169.533741 
L 174.600249 169.533741 
L 174.600249 167.815906 
L 176.435674 167.815906 
L 176.435674 167.243294 
L 178.107831 167.243294 
L 178.107831 166.670682 
L 180.23528 166.670682 
L 180.23528 165.525459 
L 180.714669 165.525459 
L 180.714669 163.807624 
L 181.063041 163.807624 
L 181.063041 163.235012 
L 182.895758 163.235012 
L 182.895758 162.6624 
L 183.616414 162.6624 
L 183.616414 161.517176 
L 185.226169 161.517176 
L 185.226169 160.944565 
L 185.864265 160.944565 
L 185.864265 160.371953 
L 187.630062 160.371953 
L 187.630062 159.226729 
L 187.871955 159.226729 
L 187.871955 158.081506 
L 189.466358 158.081506 
L 189.466358 157.508894 
L 189.685885 157.508894 
L 189.685885 156.363671 
L 190.865296 156.363671 
L 190.865296 155.791059 
L 191.139237 155.791059 
L 191.139237 155.218447 
L 193.861723 155.218447 
L 193.861723 154.645835 
L 194.095576 154.645835 
L 194.095576 154.073224 
L 194.267433 154.073224 
L 194.267433 153.500612 
L 195.416002 153.500612 
L 195.416002 152.928 
L 196.799916 152.928 
L 196.799916 152.355388 
L 197.948815 152.355388 
L 197.948815 151.782776 
L 199.929187 151.782776 
L 199.929187 151.210165 
L 201.026326 151.210165 
L 201.026326 150.637553 
L 205.021711 150.637553 
L 205.021711 150.064941 
L 360.8064 150.064941 
L 360.8064 150.064941 
" style="fill: none; stroke: #000080; stroke-width: 1.5; stroke-linecap: square"/>
   </g>
   <g id="line2d_31">
    <defs>
     <path id="mdb329be477" d="M 0 6 
C 1.591219 6 3.117479 5.367802 4.242641 4.242641 
C 5.367802 3.117479 6 1.591219 6 0 
C 6 -1.591219 5.367802 -3.117479 4.242641 -4.242641 
C 3.117479 -5.367802 1.591219 -6 0 -6 
C -1.591219 -6 -3.117479 -5.367802 -4.242641 -4.242641 
C -5.367802 -3.117479 -6 -1.591219 -6 0 
C -6 1.591219 -5.367802 3.117479 -4.242641 4.242641 
C -3.117479 5.367802 -1.591219 6 0 6 
z
" style="stroke: #000080; stroke-width: 1.5"/>
    </defs>
    <g>
     <use xlink:href="#mdb329be477" x="155.339761" y="209.043953" style="fill-opacity: 0; stroke: #000080; stroke-width: 1.5"/>
     <use xlink:href="#mdb329be477" x="205.021711" y="150.637553" style="fill-opacity: 0; stroke: #000080; stroke-width: 1.5"/>
     <use xlink:href="#mdb329be477" x="205.021711" y="150.064941" style="fill-opacity: 0; stroke: #000080; stroke-width: 1.5"/>
     <use xlink:href="#mdb329be477" x="205.021711" y="150.064941" style="fill-opacity: 0; stroke: #000080; stroke-width: 1.5"/>
     <use xlink:href="#mdb329be477" x="360.8064" y="150.064941" style="fill-opacity: 0; stroke: #000080; stroke-width: 1.5"/>
    </g>
   </g>
   <g id="line2d_32">
    <path style="fill: none; stroke: #000080; stroke-width: 1.5; stroke-linecap: square"/>
    <g/>
   </g>
   <g id="line2d_33">
    <path d="M 144.786447 221.0688 
" clip-path="url(#p10a89c7237)" style="fill: none; stroke: #000080; stroke-width: 1.5; stroke-linecap: square"/>
    <defs>
     <path id="mde72ef880f" d="M -12 12 
L 12 -12 
M -12 -12 
L 12 12 
" style="stroke: #000080"/>
    </defs>
    <g clip-path="url(#p10a89c7237)">
     <use xlink:href="#mde72ef880f" x="144.786447" y="221.0688" style="fill: #000080; stroke: #000080"/>
    </g>
   </g>
   <g id="line2d_34">
    <defs>
     <path id="mb242cb2ed9" d="M 0 1.5 
C 0.397805 1.5 0.77937 1.341951 1.06066 1.06066 
C 1.341951 0.77937 1.5 0.397805 1.5 0 
C 1.5 -0.397805 1.341951 -0.77937 1.06066 -1.06066 
C 0.77937 -1.341951 0.397805 -1.5 0 -1.5 
C -0.397805 -1.5 -0.77937 -1.341951 -1.06066 -1.06066 
C -1.341951 -0.77937 -1.5 -0.397805 -1.5 0 
C -1.5 0.397805 -1.341951 0.77937 -1.06066 1.06066 
C -0.77937 1.341951 -0.397805 1.5 0 1.5 
z
" style="stroke: #ff00ff"/>
    </defs>
    <g>
     <use xlink:href="#mb242cb2ed9" x="198.913721" y="172.969412" style="fill: #ff00ff; stroke: #ff00ff"/>
     <use xlink:href="#mb242cb2ed9" x="198.913721" y="172.969412" style="fill: #ff00ff; stroke: #ff00ff"/>
    </g>
   </g>
   <g id="line2d_35">
    <path d="M 120.28394 298.944 
L 120.28394 295.508329 
L 121.265635 295.508329 
L 121.265635 293.217882 
L 122.499621 293.217882 
L 122.499621 290.927435 
L 123.374735 290.927435 
L 123.374735 285.201318 
L 124.481616 285.201318 
L 124.481616 280.620424 
L 124.748451 280.620424 
L 124.748451 279.4752 
L 126.517282 279.4752 
L 126.517282 277.184753 
L 126.756923 277.184753 
L 126.756923 273.749082 
L 127.227236 273.749082 
L 127.227236 270.313412 
L 130.226319 270.313412 
L 130.226319 265.732518 
L 132.287354 265.732518 
L 132.287354 258.861176 
L 132.638982 258.861176 
L 132.638982 255.425506 
L 137.38594 255.425506 
L 137.38594 254.280282 
L 139.796097 254.280282 
L 139.796097 243.973271 
L 140.838234 243.973271 
L 140.838234 242.828047 
L 142.966099 242.828047 
L 142.966099 234.811482 
L 143.066428 234.811482 
L 143.066428 233.666259 
L 144.324223 233.666259 
L 144.324223 230.230588 
L 150.892922 230.230588 
L 150.892922 229.085365 
L 151.920429 229.085365 
L 151.920429 228.512753 
L 152.595631 228.512753 
L 152.595631 227.367529 
L 152.715833 227.367529 
L 152.715833 224.504471 
L 154.486967 224.504471 
L 154.486967 223.931859 
L 155.495444 223.931859 
L 155.495444 219.350965 
L 156.937458 219.350965 
L 156.937458 215.915294 
L 157.595929 215.915294 
L 157.595929 214.770071 
L 162.132562 214.770071 
L 162.132562 214.197459 
L 163.932096 214.197459 
L 163.932096 205.035671 
L 164.865624 205.035671 
L 164.865624 203.317835 
L 165.300233 203.317835 
L 165.300233 201.6 
L 168.142969 201.6 
L 168.142969 201.027388 
L 169.735764 201.027388 
L 169.735764 197.019106 
L 170.425955 197.019106 
L 170.425955 195.873882 
L 170.7503 195.873882 
L 170.7503 195.301271 
L 173.141258 195.301271 
L 173.141258 194.728659 
L 173.18167 194.728659 
L 173.18167 193.010824 
L 174.164733 193.010824 
L 174.164733 188.429929 
L 174.712223 188.429929 
L 174.712223 186.712094 
L 176.905149 186.712094 
L 176.905149 186.139482 
L 176.938239 186.139482 
L 176.938239 185.566871 
L 177.747115 185.566871 
L 177.747115 183.849035 
L 180.755196 183.849035 
L 180.755196 180.985976 
L 181.142526 180.985976 
L 181.142526 179.840753 
L 183.347923 179.840753 
L 183.347923 177.550306 
L 185.626206 177.550306 
L 185.626206 175.832471 
L 187.658132 175.832471 
L 187.658132 174.114635 
L 191.162533 174.114635 
L 191.162533 173.542024 
L 198.913721 173.542024 
L 198.913721 172.969412 
L 360.8064 172.969412 
" style="fill: none; stroke: #ff00ff; stroke-width: 1.5; stroke-linecap: square"/>
   </g>
   <g id="line2d_36">
    <defs>
     <path id="mcc2139b839" d="M -0 8.485281 
L 5.091169 0 
L 0 -8.485281 
L -5.091169 -0 
z
" style="stroke: #ff00ff; stroke-width: 1.5; stroke-linejoin: miter"/>
    </defs>
    <g>
     <use xlink:href="#mcc2139b839" x="163.932096" y="214.197459" style="fill-opacity: 0; stroke: #ff00ff; stroke-width: 1.5; stroke-linejoin: miter"/>
     <use xlink:href="#mcc2139b839" x="198.913721" y="173.542024" style="fill-opacity: 0; stroke: #ff00ff; stroke-width: 1.5; stroke-linejoin: miter"/>
     <use xlink:href="#mcc2139b839" x="198.913721" y="172.969412" style="fill-opacity: 0; stroke: #ff00ff; stroke-width: 1.5; stroke-linejoin: miter"/>
     <use xlink:href="#mcc2139b839" x="198.913721" y="172.969412" style="fill-opacity: 0; stroke: #ff00ff; stroke-width: 1.5; stroke-linejoin: miter"/>
     <use xlink:href="#mcc2139b839" x="360.8064" y="172.969412" style="fill-opacity: 0; stroke: #ff00ff; stroke-width: 1.5; stroke-linejoin: miter"/>
    </g>
   </g>
   <g id="line2d_37">
    <path style="fill: none; stroke: #ff00ff; stroke-width: 1.5; stroke-linecap: square"/>
    <g/>
   </g>
   <g id="line2d_38">
    <path d="M 144.786447 230.230588 
" clip-path="url(#p10a89c7237)" style="fill: none; stroke: #ff00ff; stroke-width: 1.5; stroke-linecap: square"/>
    <defs>
     <path id="m571619e4cf" d="M -12 12 
L 12 -12 
M -12 -12 
L 12 12 
" style="stroke: #ff00ff"/>
    </defs>
    <g clip-path="url(#p10a89c7237)">
     <use xlink:href="#m571619e4cf" x="144.786447" y="230.230588" style="fill: #ff00ff; stroke: #ff00ff"/>
    </g>
   </g>
   <g id="line2d_39">
    <defs>
     <path id="md8225a4592" d="M 0 1.5 
C 0.397805 1.5 0.77937 1.341951 1.06066 1.06066 
C 1.341951 0.77937 1.5 0.397805 1.5 0 
C 1.5 -0.397805 1.341951 -0.77937 1.06066 -1.06066 
C 0.77937 -1.341951 0.397805 -1.5 0 -1.5 
C -0.397805 -1.5 -0.77937 -1.341951 -1.06066 -1.06066 
C -1.341951 -0.77937 -1.5 -0.397805 -1.5 0 
C -1.5 0.397805 -1.341951 0.77937 -1.06066 1.06066 
C -0.77937 1.341951 -0.397805 1.5 0 1.5 
z
" style="stroke: #ff7500"/>
    </defs>
    <g>
     <use xlink:href="#md8225a4592" x="202.695656" y="207.326118" style="fill: #ff7500; stroke: #ff7500"/>
     <use xlink:href="#md8225a4592" x="202.695656" y="207.326118" style="fill: #ff7500; stroke: #ff7500"/>
    </g>
   </g>
   <g id="line2d_40">
    <path d="M 119.599808 298.944 
L 119.599808 293.217882 
L 121.265635 293.217882 
L 121.265635 290.927435 
L 125.011554 290.927435 
L 125.011554 289.782212 
L 126.028642 289.782212 
L 126.028642 288.636988 
L 127.227236 288.636988 
L 127.227236 287.491765 
L 127.911368 287.491765 
L 127.911368 285.201318 
L 130.811181 285.201318 
L 130.811181 282.910871 
L 131.002163 282.910871 
L 131.002163 273.749082 
L 131.929028 273.749082 
L 131.929028 270.313412 
L 132.109044 270.313412 
L 132.109044 268.022965 
L 133.154399 268.022965 
L 133.154399 266.877741 
L 134.304809 266.877741 
L 134.304809 265.732518 
L 135.237805 265.732518 
L 135.237805 264.587294 
L 136.97549 264.587294 
L 136.97549 261.151624 
L 137.113304 261.151624 
L 137.113304 257.715953 
L 138.692823 257.715953 
L 138.692823 251.989835 
L 139.191172 251.989835 
L 139.191172 250.844612 
L 141.825656 250.844612 
L 141.825656 247.408941 
L 141.932237 247.408941 
L 141.932237 246.263718 
L 143.166224 246.263718 
L 143.166224 245.118494 
L 143.657415 245.118494 
L 143.657415 243.973271 
L 144.510478 243.973271 
L 144.510478 242.828047 
L 144.602918 242.828047 
L 144.602918 241.682824 
L 144.786447 241.682824 
L 144.786447 240.5376 
L 152.16877 240.5376 
L 152.16877 239.392376 
L 152.474656 239.392376 
L 152.474656 238.819765 
L 153.305585 238.819765 
L 153.305585 238.247153 
L 153.650761 238.247153 
L 153.650761 237.674541 
L 154.322673 237.674541 
L 154.322673 236.529318 
L 154.377597 236.529318 
L 154.377597 234.811482 
L 155.024477 234.811482 
L 155.024477 231.375812 
L 155.235253 231.375812 
L 155.235253 230.8032 
L 156.403417 230.8032 
L 156.403417 227.940141 
L 157.269574 227.940141 
L 157.269574 226.794918 
L 157.734081 226.794918 
L 157.734081 226.222306 
L 163.191653 226.222306 
L 163.191653 225.649694 
L 163.22595 225.649694 
L 163.22595 225.077082 
L 163.632702 225.077082 
L 163.632702 221.641412 
L 164.548924 221.641412 
L 164.548924 220.496188 
L 168.248209 220.496188 
L 168.248209 219.923576 
L 169.516314 219.923576 
L 169.516314 217.060518 
L 170.167131 217.060518 
L 170.167131 216.487906 
L 170.190808 216.487906 
L 170.190808 215.915294 
L 173.7385 215.915294 
L 173.7385 215.342682 
L 173.991531 215.342682 
L 173.991531 214.197459 
L 177.395487 214.197459 
L 177.395487 213.624847 
L 177.60406 213.624847 
L 177.60406 213.052235 
L 180.633351 213.052235 
L 180.633351 211.907012 
L 180.687602 211.907012 
L 180.687602 211.3344 
L 183.558372 211.3344 
L 183.558372 210.761788 
L 185.532226 210.761788 
L 185.532226 210.189176 
L 191.092558 210.189176 
L 191.092558 209.616565 
L 192.632408 209.616565 
L 192.632408 209.043953 
L 198.867407 209.043953 
L 198.867407 208.471341 
L 201.927731 208.471341 
L 201.927731 207.898729 
L 202.695656 207.898729 
L 202.695656 207.326118 
L 360.8064 207.326118 
" style="fill: none; stroke: #ff7500; stroke-width: 1.5; stroke-linecap: square"/>
   </g>
   <g id="line2d_41">
    <defs>
     <path id="mf9eadff8c6" d="M 0 -6 
L -1.347084 -1.854102 
L -5.706339 -1.854102 
L -2.179628 0.708204 
L -3.526712 4.854102 
L -0 2.291796 
L 3.526712 4.854102 
L 2.179628 0.708204 
L 5.706339 -1.854102 
L 1.347084 -1.854102 
z
" style="stroke: #ff7500; stroke-width: 1.5; stroke-linejoin: bevel"/>
    </defs>
    <g>
     <use xlink:href="#mf9eadff8c6" x="139.191172" y="251.989835" style="fill-opacity: 0; stroke: #ff7500; stroke-width: 1.5; stroke-linejoin: bevel"/>
     <use xlink:href="#mf9eadff8c6" x="202.695656" y="207.898729" style="fill-opacity: 0; stroke: #ff7500; stroke-width: 1.5; stroke-linejoin: bevel"/>
     <use xlink:href="#mf9eadff8c6" x="202.695656" y="207.326118" style="fill-opacity: 0; stroke: #ff7500; stroke-width: 1.5; stroke-linejoin: bevel"/>
     <use xlink:href="#mf9eadff8c6" x="202.695656" y="207.326118" style="fill-opacity: 0; stroke: #ff7500; stroke-width: 1.5; stroke-linejoin: bevel"/>
     <use xlink:href="#mf9eadff8c6" x="360.8064" y="207.326118" style="fill-opacity: 0; stroke: #ff7500; stroke-width: 1.5; stroke-linejoin: bevel"/>
    </g>
   </g>
   <g id="line2d_42">
    <path style="fill: none; stroke: #ff7500; stroke-width: 1.5; stroke-linecap: square"/>
    <g/>
   </g>
   <g id="line2d_43">
    <path d="M 144.786447 240.5376 
" clip-path="url(#p10a89c7237)" style="fill: none; stroke: #ff7500; stroke-width: 1.5; stroke-linecap: square"/>
    <defs>
     <path id="m8d607dc24e" d="M -12 12 
L 12 -12 
M -12 -12 
L 12 12 
" style="stroke: #ff7500"/>
    </defs>
    <g clip-path="url(#p10a89c7237)">
     <use xlink:href="#m8d607dc24e" x="144.786447" y="240.5376" style="fill: #ff7500; stroke: #ff7500"/>
    </g>
   </g>
   <g id="line2d_44">
    <defs>
     <path id="mb45c8ac877" d="M 0 1.5 
C 0.397805 1.5 0.77937 1.341951 1.06066 1.06066 
C 1.341951 0.77937 1.5 0.397805 1.5 0 
C 1.5 -0.397805 1.341951 -0.77937 1.06066 -1.06066 
C 0.77937 -1.341951 0.397805 -1.5 0 -1.5 
C -0.397805 -1.5 -0.77937 -1.341951 -1.06066 -1.06066 
C -1.341951 -0.77937 -1.5 -0.397805 -1.5 0 
C -1.5 0.397805 -1.341951 0.77937 -1.06066 1.06066 
C -0.77937 1.341951 -0.397805 1.5 0 1.5 
z
" style="stroke: #6495ed"/>
    </defs>
    <g>
     <use xlink:href="#mb45c8ac877" x="201.927731" y="144.338824" style="fill: #6495ed; stroke: #6495ed"/>
     <use xlink:href="#mb45c8ac877" x="201.927731" y="144.338824" style="fill: #6495ed; stroke: #6495ed"/>
    </g>
   </g>
   <g id="line2d_45">
    <path d="M 44.560826 298.944 
L 44.560826 297.798776 
L 65.227428 297.798776 
L 65.227428 296.653553 
L 70.639174 296.653553 
L 70.639174 292.072659 
L 83.678349 292.072659 
L 83.678349 284.056094 
L 87.876026 284.056094 
L 87.876026 280.620424 
L 95.503454 280.620424 
L 95.503454 279.4752 
L 96.717523 279.4752 
L 96.717523 277.184753 
L 97.857967 277.184753 
L 97.857967 274.894306 
L 108.542628 274.894306 
L 108.542628 272.603859 
L 117.384126 272.603859 
L 117.384126 271.458635 
L 118.524569 271.458635 
L 118.524569 270.313412 
L 118.889854 270.313412 
L 118.889854 268.022965 
L 121.581803 268.022965 
L 121.581803 266.877741 
L 124.748451 266.877741 
L 124.748451 265.732518 
L 126.993549 265.732518 
L 126.993549 264.587294 
L 127.911368 264.587294 
L 127.911368 263.442071 
L 128.999044 263.442071 
L 128.999044 262.296847 
L 130.027253 262.296847 
L 130.027253 260.0064 
L 131.929028 260.0064 
L 131.929028 258.861176 
L 132.812362 258.861176 
L 132.812362 257.715953 
L 132.984158 257.715953 
L 132.984158 253.135059 
L 133.154399 253.135059 
L 133.154399 251.989835 
L 133.656071 251.989835 
L 133.656071 249.699388 
L 133.983236 249.699388 
L 133.983236 248.554165 
L 134.463557 248.554165 
L 134.463557 247.408941 
L 135.538796 247.408941 
L 135.538796 246.263718 
L 136.126705 246.263718 
L 136.126705 245.118494 
L 137.38594 245.118494 
L 137.38594 240.5376 
L 138.438609 240.5376 
L 138.438609 237.101929 
L 139.191172 237.101929 
L 139.191172 235.956706 
L 139.556456 235.956706 
L 139.556456 234.811482 
L 141.062184 234.811482 
L 141.062184 230.230588 
L 141.825656 230.230588 
L 141.825656 229.085365 
L 142.038218 229.085365 
L 142.038218 227.940141 
L 142.763822 227.940141 
L 142.865233 219.923576 
L 143.166224 219.923576 
L 143.166224 218.778353 
L 143.657415 218.778353 
L 143.657415 209.616565 
L 143.850356 209.616565 
L 143.850356 208.471341 
L 144.694906 208.471341 
L 144.786447 202.745224 
L 152.894708 202.745224 
L 152.894708 202.172612 
L 154.486967 202.172612 
L 154.486967 201.027388 
L 154.918196 201.027388 
L 154.918196 198.736941 
L 156.055505 198.736941 
L 156.055505 197.019106 
L 156.403417 197.019106 
L 156.501649 194.728659 
L 156.84148 194.728659 
L 156.88953 193.010824 
L 157.269574 193.010824 
L 157.269574 183.276424 
L 157.825621 183.276424 
L 157.825621 182.1312 
L 163.294355 182.1312 
L 163.294355 181.558588 
L 164.802709 181.558588 
L 164.834193 179.840753 
L 165.084184 179.840753 
L 165.084184 176.977694 
L 165.45305 176.977694 
L 165.45305 176.405082 
L 169.467197 176.405082 
L 169.467197 175.832471 
L 170.167131 175.832471 
L 170.167131 175.259859 
L 170.402572 175.259859 
L 170.402572 174.687247 
L 170.588827 174.687247 
L 170.588827 172.3968 
L 174.506426 172.3968 
L 174.506426 171.824188 
L 174.693607 171.824188 
L 174.693607 170.678965 
L 174.842022 170.678965 
L 174.842022 165.525459 
L 178.18534 165.525459 
L 178.18534 164.952847 
L 178.308695 164.952847 
L 178.308695 159.799341 
L 178.476998 159.799341 
L 178.476998 159.226729 
L 180.996545 159.226729 
L 180.996545 158.654118 
L 181.234837 158.654118 
L 181.234837 156.363671 
L 183.766492 156.363671 
L 183.766492 155.218447 
L 185.997499 155.218447 
L 185.997499 152.928 
L 187.991745 152.928 
L 187.991745 151.210165 
L 189.727809 151.210165 
L 189.794695 149.492329 
L 191.439858 149.492329 
L 191.439858 148.919718 
L 192.952643 148.919718 
L 192.952643 148.347106 
L 194.234505 148.347106 
L 194.234505 147.774494 
L 194.352776 147.774494 
L 194.352776 147.201882 
L 195.655878 147.201882 
L 195.655878 146.056659 
L 199.097849 146.056659 
L 199.097849 145.484047 
L 200.031173 145.484047 
L 200.031173 144.911435 
L 201.927731 144.911435 
L 201.927731 144.338824 
L 360.8064 144.338824 
L 360.8064 144.338824 
" style="fill: none; stroke: #6495ed; stroke-width: 1.5; stroke-linecap: square"/>
   </g>
   <g id="line2d_46">
    <defs>
     <path id="m4dc585900f" d="M -0 6 
L 6 -6 
L -6 -6 
z
" style="stroke: #6495ed; stroke-width: 1.5; stroke-linejoin: miter"/>
    </defs>
    <g>
     <use xlink:href="#m4dc585900f" x="128.999044" y="262.296847" style="fill-opacity: 0; stroke: #6495ed; stroke-width: 1.5; stroke-linejoin: miter"/>
     <use xlink:href="#m4dc585900f" x="157.269574" y="193.010824" style="fill-opacity: 0; stroke: #6495ed; stroke-width: 1.5; stroke-linejoin: miter"/>
     <use xlink:href="#m4dc585900f" x="201.927731" y="144.911435" style="fill-opacity: 0; stroke: #6495ed; stroke-width: 1.5; stroke-linejoin: miter"/>
     <use xlink:href="#m4dc585900f" x="201.927731" y="144.338824" style="fill-opacity: 0; stroke: #6495ed; stroke-width: 1.5; stroke-linejoin: miter"/>
     <use xlink:href="#m4dc585900f" x="201.927731" y="144.338824" style="fill-opacity: 0; stroke: #6495ed; stroke-width: 1.5; stroke-linejoin: miter"/>
     <use xlink:href="#m4dc585900f" x="360.8064" y="144.338824" style="fill-opacity: 0; stroke: #6495ed; stroke-width: 1.5; stroke-linejoin: miter"/>
    </g>
   </g>
   <g id="line2d_47">
    <path style="fill: none; stroke: #6495ed; stroke-width: 1.5; stroke-linecap: square"/>
    <g/>
   </g>
   <g id="line2d_48">
    <path d="M 144.786447 202.745224 
" clip-path="url(#p10a89c7237)" style="fill: none; stroke: #6495ed; stroke-width: 1.5; stroke-linecap: square"/>
    <defs>
     <path id="m7027a07ff6" d="M -12 12 
L 12 -12 
M -12 -12 
L 12 12 
" style="stroke: #6495ed"/>
    </defs>
    <g clip-path="url(#p10a89c7237)">
     <use xlink:href="#m7027a07ff6" x="144.786447" y="202.745224" style="fill: #6495ed; stroke: #6495ed"/>
    </g>
   </g>
   <g id="line2d_49">
    <defs>
     <path id="mf05a1e09e5" d="M 0 1.5 
C 0.397805 1.5 0.77937 1.341951 1.06066 1.06066 
C 1.341951 0.77937 1.5 0.397805 1.5 0 
C 1.5 -0.397805 1.341951 -0.77937 1.06066 -1.06066 
C 0.77937 -1.341951 0.397805 -1.5 0 -1.5 
C -0.397805 -1.5 -0.77937 -1.341951 -1.06066 -1.06066 
C -1.341951 -0.77937 -1.5 -0.397805 -1.5 0 
C -1.5 0.397805 -1.341951 0.77937 -1.06066 1.06066 
C -0.77937 1.341951 -0.397805 1.5 0 1.5 
z
" style="stroke: #ff0000"/>
    </defs>
    <g>
     <use xlink:href="#mf05a1e09e5" x="201.927731" y="87.077647" style="fill: #ff0000; stroke: #ff0000"/>
     <use xlink:href="#mf05a1e09e5" x="201.927731" y="87.077647" style="fill: #ff0000; stroke: #ff0000"/>
    </g>
   </g>
   <g id="line2d_50">
    <path d="M 44.560826 298.944 
L 44.560826 250.844612 
L 65.227428 250.844612 
L 65.227428 249.699388 
L 70.639174 249.699388 
L 70.639174 246.263718 
L 74.836851 246.263718 
L 74.836851 245.118494 
L 85.894031 245.118494 
L 85.894031 241.682824 
L 87.876026 241.682824 
L 87.876026 239.392376 
L 94.205591 239.392376 
L 94.205591 235.956706 
L 95.503454 235.956706 
L 95.503454 234.811482 
L 96.717523 234.811482 
L 96.717523 233.666259 
L 97.857967 233.666259 
L 97.857967 229.085365 
L 101.833019 229.085365 
L 101.833019 225.649694 
L 103.544339 225.649694 
L 103.544339 217.633129 
L 105.850679 217.633129 
L 105.850679 216.487906 
L 106.560633 216.487906 
L 106.560633 215.342682 
L 109.159456 215.342682 
L 109.159456 208.471341 
L 115.747307 208.471341 
L 115.747307 207.326118 
L 118.152051 207.326118 
L 118.152051 206.180894 
L 119.944983 206.180894 
L 119.944983 205.035671 
L 120.28394 205.035671 
L 120.28394 202.745224 
L 121.892744 202.745224 
L 121.892744 201.6 
L 123.08753 201.6 
L 123.08753 200.454776 
L 124.481616 200.454776 
L 124.481616 199.309553 
L 125.271028 199.309553 
L 125.271028 191.292988 
L 125.779479 191.292988 
L 125.779479 190.147765 
L 126.274549 190.147765 
L 126.274549 189.002541 
L 127.686077 189.002541 
L 127.686077 187.857318 
L 128.786481 187.857318 
L 128.786481 185.566871 
L 128.999044 185.566871 
L 128.999044 183.276424 
L 129.826058 183.276424 
L 129.826058 178.695529 
L 131.747272 178.695529 
L 131.747272 177.550306 
L 131.929028 177.550306 
L 131.929028 174.114635 
L 132.287354 174.114635 
L 132.287354 169.533741 
L 132.984158 169.533741 
L 132.984158 167.243294 
L 134.14471 167.243294 
L 134.14471 160.371953 
L 136.126705 160.371953 
L 136.126705 152.355388 
L 136.696795 152.355388 
L 136.696795 151.210165 
L 137.38594 151.210165 
L 137.38594 147.774494 
L 137.654681 147.774494 
L 137.654681 145.484047 
L 138.310202 145.484047 
L 138.310202 144.338824 
L 138.566146 144.338824 
L 138.566146 142.048376 
L 138.692823 142.048376 
L 138.692823 140.903153 
L 140.26641 140.903153 
L 140.26641 139.757929 
L 141.825656 139.757929 
L 141.825656 131.741365 
L 143.066428 131.741365 
L 143.066428 130.596141 
L 143.364242 130.596141 
L 143.364242 129.450918 
L 144.602918 129.450918 
L 144.602918 127.160471 
L 151.54166 127.160471 
L 151.54166 126.015247 
L 152.835271 126.015247 
L 152.835271 125.442635 
L 153.247435 125.442635 
L 153.247435 123.152188 
L 153.989717 123.152188 
L 153.989717 120.289129 
L 154.486967 120.289129 
L 154.595705 117.426071 
L 154.971412 117.426071 
L 154.971412 116.853459 
L 155.701037 116.853459 
L 155.701037 116.280847 
L 156.403417 116.280847 
L 156.403417 109.982118 
L 156.985263 109.982118 
L 156.985263 109.409506 
L 157.734081 109.409506 
L 157.734081 108.836894 
L 161.504837 108.836894 
L 161.504837 108.264282 
L 162.527853 108.264282 
L 162.527853 107.691671 
L 162.984551 107.691671 
L 162.984551 107.119059 
L 163.294355 107.119059 
L 163.294355 106.546447 
L 163.59914 106.546447 
L 163.59914 105.973835 
L 164.516958 105.973835 
L 164.516958 101.965553 
L 165.392072 101.965553 
L 165.392072 100.820329 
L 168.714635 100.820329 
L 168.714635 100.247718 
L 169.491772 100.247718 
L 169.491772 99.675106 
L 170.167131 99.675106 
L 170.167131 97.384659 
L 173.221995 97.384659 
L 173.221995 96.812047 
L 173.620559 96.812047 
L 173.620559 96.239435 
L 174.506426 96.239435 
L 174.506426 95.094212 
L 175.02591 95.094212 
L 175.02591 94.5216 
L 177.475981 94.5216 
L 177.475981 93.948988 
L 178.03 93.948988 
L 178.03 92.803765 
L 183.881127 92.803765 
L 183.881127 91.658541 
L 185.812768 91.658541 
L 185.812768 89.940706 
L 186.099348 89.940706 
L 186.099348 89.368094 
L 189.643866 89.368094 
L 189.643866 88.795482 
L 189.877969 88.795482 
L 189.877969 88.222871 
L 197.921744 88.222871 
L 197.921744 87.650259 
L 201.927731 87.650259 
L 201.927731 87.077647 
L 360.8064 87.077647 
L 360.8064 87.077647 
" style="fill: none; stroke: #ff0000; stroke-width: 1.5; stroke-linecap: square"/>
   </g>
   <g id="line2d_51">
    <defs>
     <path id="m8c56a11882" d="M 0 -6 
L -5.196152 -3 
L -5.196152 3 
L -0 6 
L 5.196152 3 
L 5.196152 -3 
z
" style="stroke: #ff0000; stroke-width: 1.5; stroke-linejoin: miter"/>
    </defs>
    <g>
     <use xlink:href="#m8c56a11882" x="85.894031" y="241.682824" style="fill-opacity: 0; stroke: #ff0000; stroke-width: 1.5; stroke-linejoin: miter"/>
     <use xlink:href="#m8c56a11882" x="143.364242" y="130.596141" style="fill-opacity: 0; stroke: #ff0000; stroke-width: 1.5; stroke-linejoin: miter"/>
     <use xlink:href="#m8c56a11882" x="201.927731" y="87.650259" style="fill-opacity: 0; stroke: #ff0000; stroke-width: 1.5; stroke-linejoin: miter"/>
     <use xlink:href="#m8c56a11882" x="201.927731" y="87.077647" style="fill-opacity: 0; stroke: #ff0000; stroke-width: 1.5; stroke-linejoin: miter"/>
     <use xlink:href="#m8c56a11882" x="201.927731" y="87.077647" style="fill-opacity: 0; stroke: #ff0000; stroke-width: 1.5; stroke-linejoin: miter"/>
     <use xlink:href="#m8c56a11882" x="360.8064" y="87.077647" style="fill-opacity: 0; stroke: #ff0000; stroke-width: 1.5; stroke-linejoin: miter"/>
    </g>
   </g>
   <g id="line2d_52">
    <path style="fill: none; stroke: #ff0000; stroke-width: 1.5; stroke-linecap: square"/>
    <g/>
   </g>
   <g id="line2d_53">
    <path d="M 144.786447 127.160471 
" clip-path="url(#p10a89c7237)" style="fill: none; stroke: #ff0000; stroke-width: 1.5; stroke-linecap: square"/>
    <defs>
     <path id="m8c12d84fa4" d="M -12 12 
L 12 -12 
M -12 -12 
L 12 12 
" style="stroke: #ff0000"/>
    </defs>
    <g clip-path="url(#p10a89c7237)">
     <use xlink:href="#m8c12d84fa4" x="144.786447" y="127.160471" style="fill: #ff0000; stroke: #ff0000"/>
    </g>
   </g>
   <g id="line2d_54">
    <path d="M 360.8064 207.326118 
L 380.514816 293.10336 
" style="fill: none; stroke: #ff7500; stroke-width: 1.5; stroke-linecap: square"/>
    <g>
     <use xlink:href="#mf9eadff8c6" x="360.8064" y="207.326118" style="fill-opacity: 0; stroke: #ff7500; stroke-width: 1.5; stroke-linejoin: bevel"/>
     <use xlink:href="#mf9eadff8c6" x="380.514816" y="293.10336" style="fill-opacity: 0; stroke: #ff7500; stroke-width: 1.5; stroke-linejoin: bevel"/>
    </g>
   </g>
   <g id="line2d_55">
    <path d="M 360.8064 172.969412 
L 380.514816 223.01568 
" style="fill: none; stroke: #ff00ff; stroke-width: 1.5; stroke-linecap: square"/>
    <g>
     <use xlink:href="#mcc2139b839" x="360.8064" y="172.969412" style="fill-opacity: 0; stroke: #ff00ff; stroke-width: 1.5; stroke-linejoin: miter"/>
     <use xlink:href="#mcc2139b839" x="380.514816" y="223.01568" style="fill-opacity: 0; stroke: #ff00ff; stroke-width: 1.5; stroke-linejoin: miter"/>
    </g>
   </g>
   <g id="line2d_56">
    <path d="M 360.8064 150.064941 
L 380.514816 152.928 
" style="fill: none; stroke: #000080; stroke-width: 1.5; stroke-linecap: square"/>
    <g>
     <use xlink:href="#mdb329be477" x="360.8064" y="150.064941" style="fill-opacity: 0; stroke: #000080; stroke-width: 1.5"/>
     <use xlink:href="#mdb329be477" x="380.514816" y="152.928" style="fill-opacity: 0; stroke: #000080; stroke-width: 1.5"/>
    </g>
   </g>
   <g id="line2d_57">
    <path d="M 360.8064 144.338824 
L 380.514816 82.84032 
" style="fill: none; stroke: #6495ed; stroke-width: 1.5; stroke-linecap: square"/>
    <g>
     <use xlink:href="#m4dc585900f" x="360.8064" y="144.338824" style="fill-opacity: 0; stroke: #6495ed; stroke-width: 1.5; stroke-linejoin: miter"/>
     <use xlink:href="#m4dc585900f" x="380.514816" y="82.84032" style="fill-opacity: 0; stroke: #6495ed; stroke-width: 1.5; stroke-linejoin: miter"/>
    </g>
   </g>
   <g id="line2d_58">
    <path d="M 360.8064 87.077647 
L 380.514816 12.75264 
" style="fill: none; stroke: #ff0000; stroke-width: 1.5; stroke-linecap: square"/>
    <g>
     <use xlink:href="#m8c56a11882" x="360.8064" y="87.077647" style="fill-opacity: 0; stroke: #ff0000; stroke-width: 1.5; stroke-linejoin: miter"/>
     <use xlink:href="#m8c56a11882" x="380.514816" y="12.75264" style="fill-opacity: 0; stroke: #ff0000; stroke-width: 1.5; stroke-linejoin: miter"/>
    </g>
   </g>
   <g id="line2d_59">
    <path d="M 360.8064 298.944 
L 360.8064 6.912 
" style="fill: none; stroke: #000000; stroke-width: 1.5; stroke-linecap: square"/>
   </g>
   <g id="patch_3">
    <path d="M 57.6 298.944 
L 360.8064 298.944 
" style="fill: none; stroke: #000000; stroke-width: 0.8; stroke-linejoin: miter; stroke-linecap: square"/>
   </g>
   <g id="patch_4">
    <path d="M 57.6 6.912 
L 360.8064 6.912 
" style="fill: none; stroke: #000000; stroke-width: 0.8; stroke-linejoin: miter; stroke-linecap: square"/>
   </g>
   <g id="text_13">
    <!-- f12 -->
    <g transform="translate(386.578944 296.966485)scale(0.14 -0.14)">
     <use xlink:href="#DejaVuSans-66"/>
     <use xlink:href="#DejaVuSans-31" x="35.205078"/>
     <use xlink:href="#DejaVuSans-32" x="98.828125"/>
    </g>
   </g>
   <g id="text_14">
    <!-- f11 -->
    <g transform="translate(386.578944 226.878805)scale(0.14 -0.14)">
     <use xlink:href="#DejaVuSans-66"/>
     <use xlink:href="#DejaVuSans-31" x="35.205078"/>
     <use xlink:href="#DejaVuSans-31" x="98.828125"/>
    </g>
   </g>
   <g id="text_15">
    <!-- f10 -->
    <g transform="translate(386.578944 156.791125)scale(0.14 -0.14)">
     <use xlink:href="#DejaVuSans-66"/>
     <use xlink:href="#DejaVuSans-31" x="35.205078"/>
     <use xlink:href="#DejaVuSans-30" x="98.828125"/>
    </g>
   </g>
   <g id="text_16">
    <!-- f13 -->
    <g transform="translate(386.578944 86.703445)scale(0.14 -0.14)">
     <defs>
      <path id="DejaVuSans-33" d="M 2597 2516 
Q 3050 2419 3304 2112 
Q 3559 1806 3559 1356 
Q 3559 666 3084 287 
Q 2609 -91 1734 -91 
Q 1441 -91 1130 -33 
Q 819 25 488 141 
L 488 750 
Q 750 597 1062 519 
Q 1375 441 1716 441 
Q 2309 441 2620 675 
Q 2931 909 2931 1356 
Q 2931 1769 2642 2001 
Q 2353 2234 1838 2234 
L 1294 2234 
L 1294 2753 
L 1863 2753 
Q 2328 2753 2575 2939 
Q 2822 3125 2822 3475 
Q 2822 3834 2567 4026 
Q 2313 4219 1838 4219 
Q 1578 4219 1281 4162 
Q 984 4106 628 3988 
L 628 4550 
Q 988 4650 1302 4700 
Q 1616 4750 1894 4750 
Q 2613 4750 3031 4423 
Q 3450 4097 3450 3541 
Q 3450 3153 3228 2886 
Q 3006 2619 2597 2516 
z
" transform="scale(0.015625)"/>
     </defs>
     <use xlink:href="#DejaVuSans-66"/>
     <use xlink:href="#DejaVuSans-31" x="35.205078"/>
     <use xlink:href="#DejaVuSans-33" x="98.828125"/>
    </g>
   </g>
   <g id="text_17">
    <!-- f14 -->
    <g transform="translate(386.578944 16.615765)scale(0.14 -0.14)">
     <use xlink:href="#DejaVuSans-66"/>
     <use xlink:href="#DejaVuSans-31" x="35.205078"/>
     <use xlink:href="#DejaVuSans-34" x="98.828125"/>
    </g>
   </g>
   <g id="text_18">
    <!-- bbob -->
    <g transform="translate(60.632064 17.582726)scale(0.102 -0.102)">
     <defs>
      <path id="DejaVuSans-62" d="M 3116 1747 
Q 3116 2381 2855 2742 
Q 2594 3103 2138 3103 
Q 1681 3103 1420 2742 
Q 1159 2381 1159 1747 
Q 1159 1113 1420 752 
Q 1681 391 2138 391 
Q 2594 391 2855 752 
Q 3116 1113 3116 1747 
z
M 1159 2969 
Q 1341 3281 1617 3432 
Q 1894 3584 2278 3584 
Q 2916 3584 3314 3078 
Q 3713 2572 3713 1747 
Q 3713 922 3314 415 
Q 2916 -91 2278 -91 
Q 1894 -91 1617 61 
Q 1341 213 1159 525 
L 1159 0 
L 581 0 
L 581 4863 
L 1159 4863 
L 1159 2969 
z
" transform="scale(0.015625)"/>
     </defs>
     <use xlink:href="#DejaVuSans-62"/>
     <use xlink:href="#DejaVuSans-62" x="63.476562"/>
     <use xlink:href="#DejaVuSans-6f" x="126.953125"/>
     <use xlink:href="#DejaVuSans-62" x="188.134766"/>
    </g>
    <!-- Ill-conditioned functions, 2-D -->
    <g transform="translate(60.632064 29.004495)scale(0.102 -0.102)">
     <defs>
      <path id="DejaVuSans-49" d="M 628 4666 
L 1259 4666 
L 1259 0 
L 628 0 
L 628 4666 
z
" transform="scale(0.015625)"/>
      <path id="DejaVuSans-44" d="M 1259 4147 
L 1259 519 
L 2022 519 
Q 2988 519 3436 956 
Q 3884 1394 3884 2338 
Q 3884 3275 3436 3711 
Q 2988 4147 2022 4147 
L 1259 4147 
z
M 628 4666 
L 1925 4666 
Q 3281 4666 3915 4102 
Q 4550 3538 4550 2338 
Q 4550 1131 3912 565 
Q 3275 0 1925 0 
L 628 0 
L 628 4666 
z
" transform="scale(0.015625)"/>
     </defs>
     <use xlink:href="#DejaVuSans-49"/>
     <use xlink:href="#DejaVuSans-6c" x="29.492188"/>
     <use xlink:href="#DejaVuSans-6c" x="57.275391"/>
     <use xlink:href="#DejaVuSans-2d" x="85.058594"/>
     <use xlink:href="#DejaVuSans-63" x="121.142578"/>
     <use xlink:href="#DejaVuSans-6f" x="176.123047"/>
     <use xlink:href="#DejaVuSans-6e" x="237.304688"/>
     <use xlink:href="#DejaVuSans-64" x="300.683594"/>
     <use xlink:href="#DejaVuSans-69" x="364.160156"/>
     <use xlink:href="#DejaVuSans-74" x="391.943359"/>
     <use xlink:href="#DejaVuSans-69" x="431.152344"/>
     <use xlink:href="#DejaVuSans-6f" x="458.935547"/>
     <use xlink:href="#DejaVuSans-6e" x="520.117188"/>
     <use xlink:href="#DejaVuSans-65" x="583.496094"/>
     <use xlink:href="#DejaVuSans-64" x="645.019531"/>
     <use xlink:href="#DejaVuSans-20" x="708.496094"/>
     <use xlink:href="#DejaVuSans-66" x="740.283203"/>
     <use xlink:href="#DejaVuSans-75" x="775.488281"/>
     <use xlink:href="#DejaVuSans-6e" x="838.867188"/>
     <use xlink:href="#DejaVuSans-63" x="902.246094"/>
     <use xlink:href="#DejaVuSans-74" x="957.226562"/>
     <use xlink:href="#DejaVuSans-69" x="996.435547"/>
     <use xlink:href="#DejaVuSans-6f" x="1024.21875"/>
     <use xlink:href="#DejaVuSans-6e" x="1085.400391"/>
     <use xlink:href="#DejaVuSans-73" x="1148.779297"/>
     <use xlink:href="#DejaVuSans-2c" x="1200.878906"/>
     <use xlink:href="#DejaVuSans-20" x="1232.666016"/>
     <use xlink:href="#DejaVuSans-32" x="1264.453125"/>
     <use xlink:href="#DejaVuSans-2d" x="1328.076172"/>
     <use xlink:href="#DejaVuSans-44" x="1364.160156"/>
    </g>
    <!-- 51 targets: 100..1e-08 -->
    <g transform="translate(60.632064 40.426264)scale(0.102 -0.102)">
     <defs>
      <path id="DejaVuSans-35" d="M 691 4666 
L 3169 4666 
L 3169 4134 
L 1269 4134 
L 1269 2991 
Q 1406 3038 1543 3061 
Q 1681 3084 1819 3084 
Q 2600 3084 3056 2656 
Q 3513 2228 3513 1497 
Q 3513 744 3044 326 
Q 2575 -91 1722 -91 
Q 1428 -91 1123 -41 
Q 819 9 494 109 
L 494 744 
Q 775 591 1075 516 
Q 1375 441 1709 441 
Q 2250 441 2565 725 
Q 2881 1009 2881 1497 
Q 2881 1984 2565 2268 
Q 2250 2553 1709 2553 
Q 1456 2553 1204 2497 
Q 953 2441 691 2322 
L 691 4666 
z
" transform="scale(0.015625)"/>
      <path id="DejaVuSans-3a" d="M 750 794 
L 1409 794 
L 1409 0 
L 750 0 
L 750 794 
z
M 750 3309 
L 1409 3309 
L 1409 2516 
L 750 2516 
L 750 3309 
z
" transform="scale(0.015625)"/>
     </defs>
     <use xlink:href="#DejaVuSans-35"/>
     <use xlink:href="#DejaVuSans-31" x="63.623047"/>
     <use xlink:href="#DejaVuSans-20" x="127.246094"/>
     <use xlink:href="#DejaVuSans-74" x="159.033203"/>
     <use xlink:href="#DejaVuSans-61" x="198.242188"/>
     <use xlink:href="#DejaVuSans-72" x="259.521484"/>
     <use xlink:href="#DejaVuSans-67" x="298.884766"/>
     <use xlink:href="#DejaVuSans-65" x="362.361328"/>
     <use xlink:href="#DejaVuSans-74" x="423.884766"/>
     <use xlink:href="#DejaVuSans-73" x="463.09375"/>
     <use xlink:href="#DejaVuSans-3a" x="515.193359"/>
     <use xlink:href="#DejaVuSans-20" x="548.884766"/>
     <use xlink:href="#DejaVuSans-31" x="580.671875"/>
     <use xlink:href="#DejaVuSans-30" x="644.294922"/>
     <use xlink:href="#DejaVuSans-30" x="707.917969"/>
     <use xlink:href="#DejaVuSans-2e" x="771.541016"/>
     <use xlink:href="#DejaVuSans-2e" x="803.328125"/>
     <use xlink:href="#DejaVuSans-31" x="835.115234"/>
     <use xlink:href="#DejaVuSans-65" x="898.738281"/>
     <use xlink:href="#DejaVuSans-2d" x="960.261719"/>
     <use xlink:href="#DejaVuSans-30" x="996.345703"/>
     <use xlink:href="#DejaVuSans-38" x="1059.96875"/>
    </g>
    <!-- 5 instances -->
    <g transform="translate(60.632064 51.848032)scale(0.102 -0.102)">
     <use xlink:href="#DejaVuSans-35"/>
     <use xlink:href="#DejaVuSans-20" x="63.623047"/>
     <use xlink:href="#DejaVuSans-69" x="95.410156"/>
     <use xlink:href="#DejaVuSans-6e" x="123.193359"/>
     <use xlink:href="#DejaVuSans-73" x="186.572266"/>
     <use xlink:href="#DejaVuSans-74" x="238.671875"/>
     <use xlink:href="#DejaVuSans-61" x="277.880859"/>
     <use xlink:href="#DejaVuSans-6e" x="339.160156"/>
     <use xlink:href="#DejaVuSans-63" x="402.539062"/>
     <use xlink:href="#DejaVuSans-65" x="457.519531"/>
     <use xlink:href="#DejaVuSans-73" x="519.042969"/>
    </g>
   </g>
   <g id="text_19">
    <!-- v2.6 -->
    <g style="fill: #808080" transform="translate(198.292262 293.943992)scale(0.1 -0.1)">
     <use xlink:href="#DejaVuSans-76"/>
     <use xlink:href="#DejaVuSans-32" x="59.179688"/>
     <use xlink:href="#DejaVuSans-2e" x="122.802734"/>
     <use xlink:href="#DejaVuSans-36" x="154.589844"/>
    </g>
   </g>
  </g>
 </g>
 <defs>
  <clipPath id="p10a89c7237">
   <rect x="57.6" y="6.912" width="303.2064" height="292.032"/>
  </clipPath>
 </defs>
</svg>
