<?xml version="1.0" encoding="utf-8" standalone="no"?>
<!DOCTYPE svg PUBLIC "-//W3C//DTD SVG 1.1//EN"
  "http://www.w3.org/Graphics/SVG/1.1/DTD/svg11.dtd">
<svg xmlns:xlink="http://www.w3.org/1999/xlink" width="460.8pt" height="345.6pt" viewBox="0 0 460.8 345.6" xmlns="http://www.w3.org/2000/svg" version="1.1">
 <metadata>
  <rdf:RDF xmlns:dc="http://purl.org/dc/elements/1.1/" xmlns:cc="http://creativecommons.org/ns#" xmlns:rdf="http://www.w3.org/1999/02/22-rdf-syntax-ns#">
   <cc:Work>
    <dc:type rdf:resource="http://purl.org/dc/dcmitype/StillImage"/>
    <dc:date>2022-03-16T23:17:48.835174</dc:date>
    <dc:format>image/svg+xml</dc:format>
    <dc:creator>
     <cc:Agent>
      <dc:title>Matplotlib v3.5.1, https://matplotlib.org/</dc:title>
     </cc:Agent>
    </dc:creator>
   </cc:Work>
  </rdf:RDF>
 </metadata>
 <defs>
  <style type="text/css">*{stroke-linejoin: round; stroke-linecap: butt}</style>
 </defs>
 <g id="figure_1">
  <g id="patch_1">
   <path d="M 0 345.6 
L 460.8 345.6 
L 460.8 0 
L 0 0 
z
" style="fill: #ffffff"/>
  </g>
  <g id="axes_1">
   <g id="patch_2">
    <path d="M 57.6 298.944 
L 360.8064 298.944 
L 360.8064 27.648 
L 57.6 27.648 
z
" style="fill: #ffffff"/>
   </g>
   <g id="line2d_1">
    <path d="M 76.050921 298.944 
L 76.050921 267.026824 
L 78.266603 267.026824 
L 78.266603 261.707294 
L 85.184077 261.707294 
L 85.184077 256.387765 
L 95.080704 256.387765 
L 95.080704 251.068235 
L 106.791453 251.068235 
L 106.791453 245.748706 
L 148.923146 245.748706 
L 148.923146 240.429176 
L 154.322673 240.429176 
L 154.322673 235.109647 
L 170.84957 235.109647 
L 170.84957 229.790118 
L 182.05006 229.790118 
L 182.05006 224.470588 
L 182.333448 224.470588 
L 182.333448 219.151059 
L 182.473556 219.151059 
L 182.473556 213.831529 
L 182.791093 213.831529 
L 182.791093 208.512 
L 182.943869 208.512 
L 182.943869 203.192471 
L 183.135094 203.192471 
L 183.135094 197.872941 
L 183.214201 197.872941 
L 183.214201 192.553412 
L 183.332241 192.553412 
L 183.332241 187.233882 
L 183.519577 187.233882 
L 183.519577 181.914353 
L 183.620277 181.914353 
L 183.620277 176.594824 
L 183.79713 176.594824 
L 183.79713 171.275294 
L 183.90397 171.275294 
L 183.90397 165.955765 
L 183.972335 165.955765 
L 183.972335 160.636235 
L 184.055555 160.636235 
L 184.055555 155.316706 
L 184.123372 155.316706 
L 184.123372 149.997176 
L 184.153434 149.997176 
L 184.153434 144.677647 
L 184.228381 144.677647 
L 184.228381 139.358118 
L 184.30303 139.358118 
L 184.30303 134.038588 
L 184.399633 134.038588 
L 184.399633 128.719059 
L 184.473607 128.719059 
L 184.473607 123.399529 
L 184.510485 123.399529 
L 184.510485 118.08 
L 184.628012 118.08 
L 184.628012 112.760471 
L 184.657279 112.760471 
L 184.657279 107.440941 
L 184.73753 107.440941 
L 184.73753 102.121412 
L 184.839175 102.121412 
L 184.839175 96.801882 
L 184.918655 96.801882 
L 184.918655 91.482353 
L 185.00498 91.482353 
L 185.00498 86.162824 
L 185.09091 86.162824 
L 185.09091 80.843294 
L 185.14798 80.843294 
L 185.14798 75.523765 
L 185.183561 75.523765 
L 185.183561 70.204235 
L 185.444788 70.204235 
L 185.444788 64.884706 
L 185.750786 64.884706 
L 185.750786 59.565176 
L 186.0858 59.565176 
L 186.0858 54.245647 
L 186.408292 54.245647 
L 186.408292 48.926118 
L 186.692569 48.926118 
L 186.692569 43.606588 
L 186.738443 43.606588 
L 186.738443 38.287059 
L 186.816825 38.287059 
L 186.816825 32.967529 
L 186.888389 32.967529 
L 186.888389 27.648 
L 360.8064 27.648 
" style="fill: none; stroke: #f5deb3; stroke-width: 4; stroke-linecap: square"/>
   </g>
   <g id="line2d_2">
    <defs>
     <path id="m1304670e75" d="M -0 7.778175 
L 7.778175 0 
L 0 -7.778175 
L -7.778175 -0 
z
" style="stroke: #f5deb3; stroke-width: 1.5; stroke-linejoin: miter"/>
    </defs>
    <g>
     <use xlink:href="#m1304670e75" x="182.333448" y="219.151059" style="fill: #f5deb3; stroke: #f5deb3; stroke-width: 1.5; stroke-linejoin: miter"/>
     <use xlink:href="#m1304670e75" x="186.888389" y="32.967529" style="fill: #f5deb3; stroke: #f5deb3; stroke-width: 1.5; stroke-linejoin: miter"/>
     <use xlink:href="#m1304670e75" x="186.888389" y="27.648" style="fill: #f5deb3; stroke: #f5deb3; stroke-width: 1.5; stroke-linejoin: miter"/>
     <use xlink:href="#m1304670e75" x="186.888389" y="27.648" style="fill: #f5deb3; stroke: #f5deb3; stroke-width: 1.5; stroke-linejoin: miter"/>
     <use xlink:href="#m1304670e75" x="360.8064" y="27.648" style="fill: #f5deb3; stroke: #f5deb3; stroke-width: 1.5; stroke-linejoin: miter"/>
    </g>
   </g>
   <g id="line2d_3">
    <path style="fill: none; stroke: #f5deb3; stroke-width: 4; stroke-linecap: square"/>
    <g/>
   </g>
   <g id="line2d_4">
    <path d="M 360.8064 27.648 
L 380.514816 33.07392 
" style="fill: none; stroke: #f5deb3; stroke-width: 4; stroke-linecap: square"/>
    <g>
     <use xlink:href="#m1304670e75" x="360.8064" y="27.648" style="fill: #f5deb3; stroke: #f5deb3; stroke-width: 1.5; stroke-linejoin: miter"/>
     <use xlink:href="#m1304670e75" x="380.514816" y="33.07392" style="fill: #f5deb3; stroke: #f5deb3; stroke-width: 1.5; stroke-linejoin: miter"/>
    </g>
   </g>
   <g id="matplotlib.axis_1">
    <g id="xtick_1">
     <g id="line2d_5">
      <path d="M 57.6 298.944 
L 57.6 27.648 
" clip-path="url(#p08a7b89da4)" style="fill: none; stroke: #b0b0b0; stroke-width: 0.8; stroke-linecap: square"/>
     </g>
     <g id="line2d_6">
      <defs>
       <path id="m0f29c5c815" d="M 0 0 
L 0 3.5 
" style="stroke: #000000; stroke-width: 0.8"/>
      </defs>
      <g>
       <use xlink:href="#m0f29c5c815" x="57.6" y="298.944" style="stroke: #000000; stroke-width: 0.8"/>
      </g>
     </g>
     <g id="text_1">
      <!-- 0 -->
      <g transform="translate(52.191875 318.861344)scale(0.17 -0.17)">
       <defs>
        <path id="DejaVuSans-30" d="M 2034 4250 
Q 1547 4250 1301 3770 
Q 1056 3291 1056 2328 
Q 1056 1369 1301 889 
Q 1547 409 2034 409 
Q 2525 409 2770 889 
Q 3016 1369 3016 2328 
Q 3016 3291 2770 3770 
Q 2525 4250 2034 4250 
z
M 2034 4750 
Q 2819 4750 3233 4129 
Q 3647 3509 3647 2328 
Q 3647 1150 3233 529 
Q 2819 -91 2034 -91 
Q 1250 -91 836 529 
Q 422 1150 422 2328 
Q 422 3509 836 4129 
Q 1250 4750 2034 4750 
z
" transform="scale(0.015625)"/>
       </defs>
       <use xlink:href="#DejaVuSans-30"/>
      </g>
     </g>
    </g>
    <g id="xtick_2">
     <g id="line2d_7">
      <path d="M 144.2304 298.944 
L 144.2304 27.648 
" clip-path="url(#p08a7b89da4)" style="fill: none; stroke: #b0b0b0; stroke-width: 0.8; stroke-linecap: square"/>
     </g>
     <g id="line2d_8">
      <g>
       <use xlink:href="#m0f29c5c815" x="144.2304" y="298.944" style="stroke: #000000; stroke-width: 0.8"/>
      </g>
     </g>
     <g id="text_2">
      <!-- 2 -->
      <g transform="translate(138.822275 318.861344)scale(0.17 -0.17)">
       <defs>
        <path id="DejaVuSans-32" d="M 1228 531 
L 3431 531 
L 3431 0 
L 469 0 
L 469 531 
Q 828 903 1448 1529 
Q 2069 2156 2228 2338 
Q 2531 2678 2651 2914 
Q 2772 3150 2772 3378 
Q 2772 3750 2511 3984 
Q 2250 4219 1831 4219 
Q 1534 4219 1204 4116 
Q 875 4013 500 3803 
L 500 4441 
Q 881 4594 1212 4672 
Q 1544 4750 1819 4750 
Q 2544 4750 2975 4387 
Q 3406 4025 3406 3419 
Q 3406 3131 3298 2873 
Q 3191 2616 2906 2266 
Q 2828 2175 2409 1742 
Q 1991 1309 1228 531 
z
" transform="scale(0.015625)"/>
       </defs>
       <use xlink:href="#DejaVuSans-32"/>
      </g>
     </g>
    </g>
    <g id="xtick_3">
     <g id="line2d_9">
      <path d="M 230.8608 298.944 
L 230.8608 27.648 
" clip-path="url(#p08a7b89da4)" style="fill: none; stroke: #b0b0b0; stroke-width: 0.8; stroke-linecap: square"/>
     </g>
     <g id="line2d_10">
      <g>
       <use xlink:href="#m0f29c5c815" x="230.8608" y="298.944" style="stroke: #000000; stroke-width: 0.8"/>
      </g>
     </g>
     <g id="text_3">
      <!-- 4 -->
      <g transform="translate(225.452675 318.861344)scale(0.17 -0.17)">
       <defs>
        <path id="DejaVuSans-34" d="M 2419 4116 
L 825 1625 
L 2419 1625 
L 2419 4116 
z
M 2253 4666 
L 3047 4666 
L 3047 1625 
L 3713 1625 
L 3713 1100 
L 3047 1100 
L 3047 0 
L 2419 0 
L 2419 1100 
L 313 1100 
L 313 1709 
L 2253 4666 
z
" transform="scale(0.015625)"/>
       </defs>
       <use xlink:href="#DejaVuSans-34"/>
      </g>
     </g>
    </g>
    <g id="xtick_4">
     <g id="line2d_11">
      <path d="M 317.4912 298.944 
L 317.4912 27.648 
" clip-path="url(#p08a7b89da4)" style="fill: none; stroke: #b0b0b0; stroke-width: 0.8; stroke-linecap: square"/>
     </g>
     <g id="line2d_12">
      <g>
       <use xlink:href="#m0f29c5c815" x="317.4912" y="298.944" style="stroke: #000000; stroke-width: 0.8"/>
      </g>
     </g>
     <g id="text_4">
      <!-- 6 -->
      <g transform="translate(312.083075 318.861344)scale(0.17 -0.17)">
       <defs>
        <path id="DejaVuSans-36" d="M 2113 2584 
Q 1688 2584 1439 2293 
Q 1191 2003 1191 1497 
Q 1191 994 1439 701 
Q 1688 409 2113 409 
Q 2538 409 2786 701 
Q 3034 994 3034 1497 
Q 3034 2003 2786 2293 
Q 2538 2584 2113 2584 
z
M 3366 4563 
L 3366 3988 
Q 3128 4100 2886 4159 
Q 2644 4219 2406 4219 
Q 1781 4219 1451 3797 
Q 1122 3375 1075 2522 
Q 1259 2794 1537 2939 
Q 1816 3084 2150 3084 
Q 2853 3084 3261 2657 
Q 3669 2231 3669 1497 
Q 3669 778 3244 343 
Q 2819 -91 2113 -91 
Q 1303 -91 875 529 
Q 447 1150 447 2328 
Q 447 3434 972 4092 
Q 1497 4750 2381 4750 
Q 2619 4750 2861 4703 
Q 3103 4656 3366 4563 
z
" transform="scale(0.015625)"/>
       </defs>
       <use xlink:href="#DejaVuSans-36"/>
      </g>
     </g>
    </g>
    <g id="xtick_5">
     <g id="line2d_13">
      <path d="M 100.9152 298.944 
L 100.9152 27.648 
" clip-path="url(#p08a7b89da4)" style="fill: none; stroke: #b0b0b0; stroke-width: 0.8; stroke-linecap: square"/>
     </g>
     <g id="line2d_14">
      <defs>
       <path id="m85d54b4079" d="M 0 0 
L 0 2 
" style="stroke: #000000; stroke-width: 0.6"/>
      </defs>
      <g>
       <use xlink:href="#m85d54b4079" x="100.9152" y="298.944" style="stroke: #000000; stroke-width: 0.6"/>
      </g>
     </g>
    </g>
    <g id="xtick_6">
     <g id="line2d_15">
      <path d="M 187.5456 298.944 
L 187.5456 27.648 
" clip-path="url(#p08a7b89da4)" style="fill: none; stroke: #b0b0b0; stroke-width: 0.8; stroke-linecap: square"/>
     </g>
     <g id="line2d_16">
      <g>
       <use xlink:href="#m85d54b4079" x="187.5456" y="298.944" style="stroke: #000000; stroke-width: 0.6"/>
      </g>
     </g>
    </g>
    <g id="xtick_7">
     <g id="line2d_17">
      <path d="M 274.176 298.944 
L 274.176 27.648 
" clip-path="url(#p08a7b89da4)" style="fill: none; stroke: #b0b0b0; stroke-width: 0.8; stroke-linecap: square"/>
     </g>
     <g id="line2d_18">
      <g>
       <use xlink:href="#m85d54b4079" x="274.176" y="298.944" style="stroke: #000000; stroke-width: 0.6"/>
      </g>
     </g>
    </g>
    <g id="xtick_8">
     <g id="line2d_19">
      <path d="M 360.8064 298.944 
L 360.8064 27.648 
" clip-path="url(#p08a7b89da4)" style="fill: none; stroke: #b0b0b0; stroke-width: 0.8; stroke-linecap: square"/>
     </g>
     <g id="line2d_20">
      <g>
       <use xlink:href="#m85d54b4079" x="360.8064" y="298.944" style="stroke: #000000; stroke-width: 0.6"/>
      </g>
     </g>
    </g>
    <g id="text_5">
     <!-- log10(# f-evals / dimension) -->
     <g transform="translate(88.823278 339.314156)scale(0.17 -0.17)">
      <defs>
       <path id="DejaVuSans-6c" d="M 603 4863 
L 1178 4863 
L 1178 0 
L 603 0 
L 603 4863 
z
" transform="scale(0.015625)"/>
       <path id="DejaVuSans-6f" d="M 1959 3097 
Q 1497 3097 1228 2736 
Q 959 2375 959 1747 
Q 959 1119 1226 758 
Q 1494 397 1959 397 
Q 2419 397 2687 759 
Q 2956 1122 2956 1747 
Q 2956 2369 2687 2733 
Q 2419 3097 1959 3097 
z
M 1959 3584 
Q 2709 3584 3137 3096 
Q 3566 2609 3566 1747 
Q 3566 888 3137 398 
Q 2709 -91 1959 -91 
Q 1206 -91 779 398 
Q 353 888 353 1747 
Q 353 2609 779 3096 
Q 1206 3584 1959 3584 
z
" transform="scale(0.015625)"/>
       <path id="DejaVuSans-67" d="M 2906 1791 
Q 2906 2416 2648 2759 
Q 2391 3103 1925 3103 
Q 1463 3103 1205 2759 
Q 947 2416 947 1791 
Q 947 1169 1205 825 
Q 1463 481 1925 481 
Q 2391 481 2648 825 
Q 2906 1169 2906 1791 
z
M 3481 434 
Q 3481 -459 3084 -895 
Q 2688 -1331 1869 -1331 
Q 1566 -1331 1297 -1286 
Q 1028 -1241 775 -1147 
L 775 -588 
Q 1028 -725 1275 -790 
Q 1522 -856 1778 -856 
Q 2344 -856 2625 -561 
Q 2906 -266 2906 331 
L 2906 616 
Q 2728 306 2450 153 
Q 2172 0 1784 0 
Q 1141 0 747 490 
Q 353 981 353 1791 
Q 353 2603 747 3093 
Q 1141 3584 1784 3584 
Q 2172 3584 2450 3431 
Q 2728 3278 2906 2969 
L 2906 3500 
L 3481 3500 
L 3481 434 
z
" transform="scale(0.015625)"/>
       <path id="DejaVuSans-31" d="M 794 531 
L 1825 531 
L 1825 4091 
L 703 3866 
L 703 4441 
L 1819 4666 
L 2450 4666 
L 2450 531 
L 3481 531 
L 3481 0 
L 794 0 
L 794 531 
z
" transform="scale(0.015625)"/>
       <path id="DejaVuSans-28" d="M 1984 4856 
Q 1566 4138 1362 3434 
Q 1159 2731 1159 2009 
Q 1159 1288 1364 580 
Q 1569 -128 1984 -844 
L 1484 -844 
Q 1016 -109 783 600 
Q 550 1309 550 2009 
Q 550 2706 781 3412 
Q 1013 4119 1484 4856 
L 1984 4856 
z
" transform="scale(0.015625)"/>
       <path id="DejaVuSans-23" d="M 3272 2816 
L 2363 2816 
L 2100 1772 
L 3016 1772 
L 3272 2816 
z
M 2803 4594 
L 2478 3297 
L 3391 3297 
L 3719 4594 
L 4219 4594 
L 3897 3297 
L 4872 3297 
L 4872 2816 
L 3775 2816 
L 3519 1772 
L 4513 1772 
L 4513 1294 
L 3397 1294 
L 3072 0 
L 2572 0 
L 2894 1294 
L 1978 1294 
L 1656 0 
L 1153 0 
L 1478 1294 
L 494 1294 
L 494 1772 
L 1594 1772 
L 1856 2816 
L 850 2816 
L 850 3297 
L 1978 3297 
L 2297 4594 
L 2803 4594 
z
" transform="scale(0.015625)"/>
       <path id="DejaVuSans-20" transform="scale(0.015625)"/>
       <path id="DejaVuSans-66" d="M 2375 4863 
L 2375 4384 
L 1825 4384 
Q 1516 4384 1395 4259 
Q 1275 4134 1275 3809 
L 1275 3500 
L 2222 3500 
L 2222 3053 
L 1275 3053 
L 1275 0 
L 697 0 
L 697 3053 
L 147 3053 
L 147 3500 
L 697 3500 
L 697 3744 
Q 697 4328 969 4595 
Q 1241 4863 1831 4863 
L 2375 4863 
z
" transform="scale(0.015625)"/>
       <path id="DejaVuSans-2d" d="M 313 2009 
L 1997 2009 
L 1997 1497 
L 313 1497 
L 313 2009 
z
" transform="scale(0.015625)"/>
       <path id="DejaVuSans-65" d="M 3597 1894 
L 3597 1613 
L 953 1613 
Q 991 1019 1311 708 
Q 1631 397 2203 397 
Q 2534 397 2845 478 
Q 3156 559 3463 722 
L 3463 178 
Q 3153 47 2828 -22 
Q 2503 -91 2169 -91 
Q 1331 -91 842 396 
Q 353 884 353 1716 
Q 353 2575 817 3079 
Q 1281 3584 2069 3584 
Q 2775 3584 3186 3129 
Q 3597 2675 3597 1894 
z
M 3022 2063 
Q 3016 2534 2758 2815 
Q 2500 3097 2075 3097 
Q 1594 3097 1305 2825 
Q 1016 2553 972 2059 
L 3022 2063 
z
" transform="scale(0.015625)"/>
       <path id="DejaVuSans-76" d="M 191 3500 
L 800 3500 
L 1894 563 
L 2988 3500 
L 3597 3500 
L 2284 0 
L 1503 0 
L 191 3500 
z
" transform="scale(0.015625)"/>
       <path id="DejaVuSans-61" d="M 2194 1759 
Q 1497 1759 1228 1600 
Q 959 1441 959 1056 
Q 959 750 1161 570 
Q 1363 391 1709 391 
Q 2188 391 2477 730 
Q 2766 1069 2766 1631 
L 2766 1759 
L 2194 1759 
z
M 3341 1997 
L 3341 0 
L 2766 0 
L 2766 531 
Q 2569 213 2275 61 
Q 1981 -91 1556 -91 
Q 1019 -91 701 211 
Q 384 513 384 1019 
Q 384 1609 779 1909 
Q 1175 2209 1959 2209 
L 2766 2209 
L 2766 2266 
Q 2766 2663 2505 2880 
Q 2244 3097 1772 3097 
Q 1472 3097 1187 3025 
Q 903 2953 641 2809 
L 641 3341 
Q 956 3463 1253 3523 
Q 1550 3584 1831 3584 
Q 2591 3584 2966 3190 
Q 3341 2797 3341 1997 
z
" transform="scale(0.015625)"/>
       <path id="DejaVuSans-73" d="M 2834 3397 
L 2834 2853 
Q 2591 2978 2328 3040 
Q 2066 3103 1784 3103 
Q 1356 3103 1142 2972 
Q 928 2841 928 2578 
Q 928 2378 1081 2264 
Q 1234 2150 1697 2047 
L 1894 2003 
Q 2506 1872 2764 1633 
Q 3022 1394 3022 966 
Q 3022 478 2636 193 
Q 2250 -91 1575 -91 
Q 1294 -91 989 -36 
Q 684 19 347 128 
L 347 722 
Q 666 556 975 473 
Q 1284 391 1588 391 
Q 1994 391 2212 530 
Q 2431 669 2431 922 
Q 2431 1156 2273 1281 
Q 2116 1406 1581 1522 
L 1381 1569 
Q 847 1681 609 1914 
Q 372 2147 372 2553 
Q 372 3047 722 3315 
Q 1072 3584 1716 3584 
Q 2034 3584 2315 3537 
Q 2597 3491 2834 3397 
z
" transform="scale(0.015625)"/>
       <path id="DejaVuSans-2f" d="M 1625 4666 
L 2156 4666 
L 531 -594 
L 0 -594 
L 1625 4666 
z
" transform="scale(0.015625)"/>
       <path id="DejaVuSans-64" d="M 2906 2969 
L 2906 4863 
L 3481 4863 
L 3481 0 
L 2906 0 
L 2906 525 
Q 2725 213 2448 61 
Q 2172 -91 1784 -91 
Q 1150 -91 751 415 
Q 353 922 353 1747 
Q 353 2572 751 3078 
Q 1150 3584 1784 3584 
Q 2172 3584 2448 3432 
Q 2725 3281 2906 2969 
z
M 947 1747 
Q 947 1113 1208 752 
Q 1469 391 1925 391 
Q 2381 391 2643 752 
Q 2906 1113 2906 1747 
Q 2906 2381 2643 2742 
Q 2381 3103 1925 3103 
Q 1469 3103 1208 2742 
Q 947 2381 947 1747 
z
" transform="scale(0.015625)"/>
       <path id="DejaVuSans-69" d="M 603 3500 
L 1178 3500 
L 1178 0 
L 603 0 
L 603 3500 
z
M 603 4863 
L 1178 4863 
L 1178 4134 
L 603 4134 
L 603 4863 
z
" transform="scale(0.015625)"/>
       <path id="DejaVuSans-6d" d="M 3328 2828 
Q 3544 3216 3844 3400 
Q 4144 3584 4550 3584 
Q 5097 3584 5394 3201 
Q 5691 2819 5691 2113 
L 5691 0 
L 5113 0 
L 5113 2094 
Q 5113 2597 4934 2840 
Q 4756 3084 4391 3084 
Q 3944 3084 3684 2787 
Q 3425 2491 3425 1978 
L 3425 0 
L 2847 0 
L 2847 2094 
Q 2847 2600 2669 2842 
Q 2491 3084 2119 3084 
Q 1678 3084 1418 2786 
Q 1159 2488 1159 1978 
L 1159 0 
L 581 0 
L 581 3500 
L 1159 3500 
L 1159 2956 
Q 1356 3278 1631 3431 
Q 1906 3584 2284 3584 
Q 2666 3584 2933 3390 
Q 3200 3197 3328 2828 
z
" transform="scale(0.015625)"/>
       <path id="DejaVuSans-6e" d="M 3513 2113 
L 3513 0 
L 2938 0 
L 2938 2094 
Q 2938 2591 2744 2837 
Q 2550 3084 2163 3084 
Q 1697 3084 1428 2787 
Q 1159 2491 1159 1978 
L 1159 0 
L 581 0 
L 581 3500 
L 1159 3500 
L 1159 2956 
Q 1366 3272 1645 3428 
Q 1925 3584 2291 3584 
Q 2894 3584 3203 3211 
Q 3513 2838 3513 2113 
z
" transform="scale(0.015625)"/>
       <path id="DejaVuSans-29" d="M 513 4856 
L 1013 4856 
Q 1481 4119 1714 3412 
Q 1947 2706 1947 2009 
Q 1947 1309 1714 600 
Q 1481 -109 1013 -844 
L 513 -844 
Q 928 -128 1133 580 
Q 1338 1288 1338 2009 
Q 1338 2731 1133 3434 
Q 928 4138 513 4856 
z
" transform="scale(0.015625)"/>
      </defs>
      <use xlink:href="#DejaVuSans-6c"/>
      <use xlink:href="#DejaVuSans-6f" x="27.783203"/>
      <use xlink:href="#DejaVuSans-67" x="88.964844"/>
      <use xlink:href="#DejaVuSans-31" x="152.441406"/>
      <use xlink:href="#DejaVuSans-30" x="216.064453"/>
      <use xlink:href="#DejaVuSans-28" x="279.6875"/>
      <use xlink:href="#DejaVuSans-23" x="318.701172"/>
      <use xlink:href="#DejaVuSans-20" x="402.490234"/>
      <use xlink:href="#DejaVuSans-66" x="434.277344"/>
      <use xlink:href="#DejaVuSans-2d" x="463.982422"/>
      <use xlink:href="#DejaVuSans-65" x="500.066406"/>
      <use xlink:href="#DejaVuSans-76" x="561.589844"/>
      <use xlink:href="#DejaVuSans-61" x="620.769531"/>
      <use xlink:href="#DejaVuSans-6c" x="682.048828"/>
      <use xlink:href="#DejaVuSans-73" x="709.832031"/>
      <use xlink:href="#DejaVuSans-20" x="761.931641"/>
      <use xlink:href="#DejaVuSans-2f" x="793.71875"/>
      <use xlink:href="#DejaVuSans-20" x="827.410156"/>
      <use xlink:href="#DejaVuSans-64" x="859.197266"/>
      <use xlink:href="#DejaVuSans-69" x="922.673828"/>
      <use xlink:href="#DejaVuSans-6d" x="950.457031"/>
      <use xlink:href="#DejaVuSans-65" x="1047.869141"/>
      <use xlink:href="#DejaVuSans-6e" x="1109.392578"/>
      <use xlink:href="#DejaVuSans-73" x="1172.771484"/>
      <use xlink:href="#DejaVuSans-69" x="1224.871094"/>
      <use xlink:href="#DejaVuSans-6f" x="1252.654297"/>
      <use xlink:href="#DejaVuSans-6e" x="1313.835938"/>
      <use xlink:href="#DejaVuSans-29" x="1377.214844"/>
     </g>
    </g>
   </g>
   <g id="matplotlib.axis_2">
    <g id="ytick_1">
     <g id="line2d_21">
      <path d="M 57.6 298.944 
L 360.8064 298.944 
" clip-path="url(#p08a7b89da4)" style="fill: none; stroke: #b0b0b0; stroke-width: 0.8; stroke-linecap: square"/>
     </g>
     <g id="line2d_22">
      <defs>
       <path id="m1c45e7af04" d="M 0 0 
L -3.5 0 
" style="stroke: #000000; stroke-width: 0.8"/>
      </defs>
      <g>
       <use xlink:href="#m1c45e7af04" x="57.6" y="298.944" style="stroke: #000000; stroke-width: 0.8"/>
      </g>
     </g>
     <g id="text_6">
      <!-- 0.0 -->
      <g transform="translate(25.155 305.02275)scale(0.16 -0.16)">
       <defs>
        <path id="DejaVuSans-2e" d="M 684 794 
L 1344 794 
L 1344 0 
L 684 0 
L 684 794 
z
" transform="scale(0.015625)"/>
       </defs>
       <use xlink:href="#DejaVuSans-30"/>
       <use xlink:href="#DejaVuSans-2e" x="63.623047"/>
       <use xlink:href="#DejaVuSans-30" x="95.410156"/>
      </g>
     </g>
    </g>
    <g id="ytick_2">
     <g id="line2d_23">
      <path d="M 57.6 244.6848 
L 360.8064 244.6848 
" clip-path="url(#p08a7b89da4)" style="fill: none; stroke: #b0b0b0; stroke-width: 0.8; stroke-linecap: square"/>
     </g>
     <g id="line2d_24">
      <g>
       <use xlink:href="#m1c45e7af04" x="57.6" y="244.6848" style="stroke: #000000; stroke-width: 0.8"/>
      </g>
     </g>
     <g id="text_7">
      <!-- 0.2 -->
      <g transform="translate(25.155 250.76355)scale(0.16 -0.16)">
       <use xlink:href="#DejaVuSans-30"/>
       <use xlink:href="#DejaVuSans-2e" x="63.623047"/>
       <use xlink:href="#DejaVuSans-32" x="95.410156"/>
      </g>
     </g>
    </g>
    <g id="ytick_3">
     <g id="line2d_25">
      <path d="M 57.6 190.4256 
L 360.8064 190.4256 
" clip-path="url(#p08a7b89da4)" style="fill: none; stroke: #b0b0b0; stroke-width: 0.8; stroke-linecap: square"/>
     </g>
     <g id="line2d_26">
      <g>
       <use xlink:href="#m1c45e7af04" x="57.6" y="190.4256" style="stroke: #000000; stroke-width: 0.8"/>
      </g>
     </g>
     <g id="text_8">
      <!-- 0.4 -->
      <g transform="translate(25.155 196.50435)scale(0.16 -0.16)">
       <use xlink:href="#DejaVuSans-30"/>
       <use xlink:href="#DejaVuSans-2e" x="63.623047"/>
       <use xlink:href="#DejaVuSans-34" x="95.410156"/>
      </g>
     </g>
    </g>
    <g id="ytick_4">
     <g id="line2d_27">
      <path d="M 57.6 136.1664 
L 360.8064 136.1664 
" clip-path="url(#p08a7b89da4)" style="fill: none; stroke: #b0b0b0; stroke-width: 0.8; stroke-linecap: square"/>
     </g>
     <g id="line2d_28">
      <g>
       <use xlink:href="#m1c45e7af04" x="57.6" y="136.1664" style="stroke: #000000; stroke-width: 0.8"/>
      </g>
     </g>
     <g id="text_9">
      <!-- 0.6 -->
      <g transform="translate(25.155 142.24515)scale(0.16 -0.16)">
       <use xlink:href="#DejaVuSans-30"/>
       <use xlink:href="#DejaVuSans-2e" x="63.623047"/>
       <use xlink:href="#DejaVuSans-36" x="95.410156"/>
      </g>
     </g>
    </g>
    <g id="ytick_5">
     <g id="line2d_29">
      <path d="M 57.6 81.9072 
L 360.8064 81.9072 
" clip-path="url(#p08a7b89da4)" style="fill: none; stroke: #b0b0b0; stroke-width: 0.8; stroke-linecap: square"/>
     </g>
     <g id="line2d_30">
      <g>
       <use xlink:href="#m1c45e7af04" x="57.6" y="81.9072" style="stroke: #000000; stroke-width: 0.8"/>
      </g>
     </g>
     <g id="text_10">
      <!-- 0.8 -->
      <g transform="translate(25.155 87.98595)scale(0.16 -0.16)">
       <defs>
        <path id="DejaVuSans-38" d="M 2034 2216 
Q 1584 2216 1326 1975 
Q 1069 1734 1069 1313 
Q 1069 891 1326 650 
Q 1584 409 2034 409 
Q 2484 409 2743 651 
Q 3003 894 3003 1313 
Q 3003 1734 2745 1975 
Q 2488 2216 2034 2216 
z
M 1403 2484 
Q 997 2584 770 2862 
Q 544 3141 544 3541 
Q 544 4100 942 4425 
Q 1341 4750 2034 4750 
Q 2731 4750 3128 4425 
Q 3525 4100 3525 3541 
Q 3525 3141 3298 2862 
Q 3072 2584 2669 2484 
Q 3125 2378 3379 2068 
Q 3634 1759 3634 1313 
Q 3634 634 3220 271 
Q 2806 -91 2034 -91 
Q 1263 -91 848 271 
Q 434 634 434 1313 
Q 434 1759 690 2068 
Q 947 2378 1403 2484 
z
M 1172 3481 
Q 1172 3119 1398 2916 
Q 1625 2713 2034 2713 
Q 2441 2713 2670 2916 
Q 2900 3119 2900 3481 
Q 2900 3844 2670 4047 
Q 2441 4250 2034 4250 
Q 1625 4250 1398 4047 
Q 1172 3844 1172 3481 
z
" transform="scale(0.015625)"/>
       </defs>
       <use xlink:href="#DejaVuSans-30"/>
       <use xlink:href="#DejaVuSans-2e" x="63.623047"/>
       <use xlink:href="#DejaVuSans-38" x="95.410156"/>
      </g>
     </g>
    </g>
    <g id="ytick_6">
     <g id="line2d_31">
      <path d="M 57.6 27.648 
L 360.8064 27.648 
" clip-path="url(#p08a7b89da4)" style="fill: none; stroke: #b0b0b0; stroke-width: 0.8; stroke-linecap: square"/>
     </g>
     <g id="line2d_32">
      <g>
       <use xlink:href="#m1c45e7af04" x="57.6" y="27.648" style="stroke: #000000; stroke-width: 0.8"/>
      </g>
     </g>
     <g id="text_11">
      <!-- 1.0 -->
      <g transform="translate(25.155 33.72675)scale(0.16 -0.16)">
       <use xlink:href="#DejaVuSans-31"/>
       <use xlink:href="#DejaVuSans-2e" x="63.623047"/>
       <use xlink:href="#DejaVuSans-30" x="95.410156"/>
      </g>
     </g>
    </g>
    <g id="text_12">
     <!-- Fraction of function,target pairs -->
     <g transform="translate(17.619531 297.681)rotate(-90)scale(0.17 -0.17)">
      <defs>
       <path id="DejaVuSans-46" d="M 628 4666 
L 3309 4666 
L 3309 4134 
L 1259 4134 
L 1259 2759 
L 3109 2759 
L 3109 2228 
L 1259 2228 
L 1259 0 
L 628 0 
L 628 4666 
z
" transform="scale(0.015625)"/>
       <path id="DejaVuSans-72" d="M 2631 2963 
Q 2534 3019 2420 3045 
Q 2306 3072 2169 3072 
Q 1681 3072 1420 2755 
Q 1159 2438 1159 1844 
L 1159 0 
L 581 0 
L 581 3500 
L 1159 3500 
L 1159 2956 
Q 1341 3275 1631 3429 
Q 1922 3584 2338 3584 
Q 2397 3584 2469 3576 
Q 2541 3569 2628 3553 
L 2631 2963 
z
" transform="scale(0.015625)"/>
       <path id="DejaVuSans-63" d="M 3122 3366 
L 3122 2828 
Q 2878 2963 2633 3030 
Q 2388 3097 2138 3097 
Q 1578 3097 1268 2742 
Q 959 2388 959 1747 
Q 959 1106 1268 751 
Q 1578 397 2138 397 
Q 2388 397 2633 464 
Q 2878 531 3122 666 
L 3122 134 
Q 2881 22 2623 -34 
Q 2366 -91 2075 -91 
Q 1284 -91 818 406 
Q 353 903 353 1747 
Q 353 2603 823 3093 
Q 1294 3584 2113 3584 
Q 2378 3584 2631 3529 
Q 2884 3475 3122 3366 
z
" transform="scale(0.015625)"/>
       <path id="DejaVuSans-74" d="M 1172 4494 
L 1172 3500 
L 2356 3500 
L 2356 3053 
L 1172 3053 
L 1172 1153 
Q 1172 725 1289 603 
Q 1406 481 1766 481 
L 2356 481 
L 2356 0 
L 1766 0 
Q 1100 0 847 248 
Q 594 497 594 1153 
L 594 3053 
L 172 3053 
L 172 3500 
L 594 3500 
L 594 4494 
L 1172 4494 
z
" transform="scale(0.015625)"/>
       <path id="DejaVuSans-75" d="M 544 1381 
L 544 3500 
L 1119 3500 
L 1119 1403 
Q 1119 906 1312 657 
Q 1506 409 1894 409 
Q 2359 409 2629 706 
Q 2900 1003 2900 1516 
L 2900 3500 
L 3475 3500 
L 3475 0 
L 2900 0 
L 2900 538 
Q 2691 219 2414 64 
Q 2138 -91 1772 -91 
Q 1169 -91 856 284 
Q 544 659 544 1381 
z
M 1991 3584 
L 1991 3584 
z
" transform="scale(0.015625)"/>
       <path id="DejaVuSans-2c" d="M 750 794 
L 1409 794 
L 1409 256 
L 897 -744 
L 494 -744 
L 750 256 
L 750 794 
z
" transform="scale(0.015625)"/>
       <path id="DejaVuSans-70" d="M 1159 525 
L 1159 -1331 
L 581 -1331 
L 581 3500 
L 1159 3500 
L 1159 2969 
Q 1341 3281 1617 3432 
Q 1894 3584 2278 3584 
Q 2916 3584 3314 3078 
Q 3713 2572 3713 1747 
Q 3713 922 3314 415 
Q 2916 -91 2278 -91 
Q 1894 -91 1617 61 
Q 1341 213 1159 525 
z
M 3116 1747 
Q 3116 2381 2855 2742 
Q 2594 3103 2138 3103 
Q 1681 3103 1420 2742 
Q 1159 2381 1159 1747 
Q 1159 1113 1420 752 
Q 1681 391 2138 391 
Q 2594 391 2855 752 
Q 3116 1113 3116 1747 
z
" transform="scale(0.015625)"/>
      </defs>
      <use xlink:href="#DejaVuSans-46"/>
      <use xlink:href="#DejaVuSans-72" x="50.269531"/>
      <use xlink:href="#DejaVuSans-61" x="91.382812"/>
      <use xlink:href="#DejaVuSans-63" x="152.662109"/>
      <use xlink:href="#DejaVuSans-74" x="207.642578"/>
      <use xlink:href="#DejaVuSans-69" x="246.851562"/>
      <use xlink:href="#DejaVuSans-6f" x="274.634766"/>
      <use xlink:href="#DejaVuSans-6e" x="335.816406"/>
      <use xlink:href="#DejaVuSans-20" x="399.195312"/>
      <use xlink:href="#DejaVuSans-6f" x="430.982422"/>
      <use xlink:href="#DejaVuSans-66" x="492.164062"/>
      <use xlink:href="#DejaVuSans-20" x="527.369141"/>
      <use xlink:href="#DejaVuSans-66" x="559.15625"/>
      <use xlink:href="#DejaVuSans-75" x="594.361328"/>
      <use xlink:href="#DejaVuSans-6e" x="657.740234"/>
      <use xlink:href="#DejaVuSans-63" x="721.119141"/>
      <use xlink:href="#DejaVuSans-74" x="776.099609"/>
      <use xlink:href="#DejaVuSans-69" x="815.308594"/>
      <use xlink:href="#DejaVuSans-6f" x="843.091797"/>
      <use xlink:href="#DejaVuSans-6e" x="904.273438"/>
      <use xlink:href="#DejaVuSans-2c" x="967.652344"/>
      <use xlink:href="#DejaVuSans-74" x="999.439453"/>
      <use xlink:href="#DejaVuSans-61" x="1038.648438"/>
      <use xlink:href="#DejaVuSans-72" x="1099.927734"/>
      <use xlink:href="#DejaVuSans-67" x="1139.291016"/>
      <use xlink:href="#DejaVuSans-65" x="1202.767578"/>
      <use xlink:href="#DejaVuSans-74" x="1264.291016"/>
      <use xlink:href="#DejaVuSans-20" x="1303.5"/>
      <use xlink:href="#DejaVuSans-70" x="1335.287109"/>
      <use xlink:href="#DejaVuSans-61" x="1398.763672"/>
      <use xlink:href="#DejaVuSans-69" x="1460.042969"/>
      <use xlink:href="#DejaVuSans-72" x="1487.826172"/>
      <use xlink:href="#DejaVuSans-73" x="1528.939453"/>
     </g>
    </g>
   </g>
   <g id="line2d_33">
    <defs>
     <path id="m919f206e66" d="M 0 1.5 
C 0.397805 1.5 0.77937 1.341951 1.06066 1.06066 
C 1.341951 0.77937 1.5 0.397805 1.5 0 
C 1.5 -0.397805 1.341951 -0.77937 1.06066 -1.06066 
C 0.77937 -1.341951 0.397805 -1.5 0 -1.5 
C -0.397805 -1.5 -0.77937 -1.341951 -1.06066 -1.06066 
C -1.341951 -0.77937 -1.5 -0.397805 -1.5 0 
C -1.5 0.397805 -1.341951 0.77937 -1.06066 1.06066 
C -0.77937 1.341951 -0.397805 1.5 0 1.5 
z
" style="stroke: #f5deb3"/>
    </defs>
    <g>
     <use xlink:href="#m919f206e66" x="186.888389" y="27.648" style="fill: #f5deb3; stroke: #f5deb3"/>
     <use xlink:href="#m919f206e66" x="186.888389" y="27.648" style="fill: #f5deb3; stroke: #f5deb3"/>
    </g>
   </g>
   <g id="line2d_34">
    <defs>
     <path id="m602e476a1b" d="M 0 1.5 
C 0.397805 1.5 0.77937 1.341951 1.06066 1.06066 
C 1.341951 0.77937 1.5 0.397805 1.5 0 
C 1.5 -0.397805 1.341951 -0.77937 1.06066 -1.06066 
C 0.77937 -1.341951 0.397805 -1.5 0 -1.5 
C -0.397805 -1.5 -0.77937 -1.341951 -1.06066 -1.06066 
C -1.341951 -0.77937 -1.5 -0.397805 -1.5 0 
C -1.5 0.397805 -1.341951 0.77937 -1.06066 1.06066 
C -0.77937 1.341951 -0.397805 1.5 0 1.5 
z
" style="stroke: #000080"/>
    </defs>
    <g>
     <use xlink:href="#m602e476a1b" x="274.682731" y="27.648" style="fill: #000080; stroke: #000080"/>
     <use xlink:href="#m602e476a1b" x="274.682731" y="27.648" style="fill: #000080; stroke: #000080"/>
    </g>
   </g>
   <g id="line2d_35">
    <path d="M 49.972572 298.944 
L 49.972572 294.050033 
L 57.6 294.050033 
L 57.6 292.347784 
L 63.011746 292.347784 
L 63.011746 287.241035 
L 67.209423 287.241035 
L 67.209423 285.326005 
L 70.639174 285.326005 
L 70.639174 284.687661 
L 73.538988 284.687661 
L 73.538988 283.410974 
L 76.050921 283.410974 
L 76.050921 282.347068 
L 80.248597 282.347068 
L 80.248597 280.786673 
L 83.678349 280.786673 
L 83.678349 277.665882 
L 85.184077 277.665882 
L 85.184077 275.608998 
L 86.578163 275.608998 
L 86.578163 273.055624 
L 87.876026 273.055624 
L 87.876026 272.842842 
L 89.090095 272.842842 
L 89.090095 270.431322 
L 90.230539 270.431322 
L 90.230539 270.218541 
L 91.305777 270.218541 
L 91.305777 268.161656 
L 93.287772 268.161656 
L 93.287772 267.523313 
L 94.205591 267.523313 
L 94.205591 267.381459 
L 95.080704 267.381459 
L 95.080704 267.239605 
L 95.916911 267.239605 
L 95.916911 267.026824 
L 96.717523 267.026824 
L 96.717523 265.324574 
L 97.485448 265.324574 
L 97.485448 263.835106 
L 98.223251 263.835106 
L 98.223251 263.480471 
L 98.933205 263.480471 
L 98.933205 263.267689 
L 100.277459 263.196762 
L 100.277459 263.125835 
L 100.9152 263.125835 
L 100.9152 262.416565 
L 101.532027 262.416565 
L 101.532027 260.572461 
L 102.12927 260.572461 
L 102.12927 258.799285 
L 102.708132 258.799285 
L 102.708132 258.657431 
L 103.269713 258.657431 
L 103.269713 258.444649 
L 103.815014 258.444649 
L 103.815014 258.231868 
L 104.344952 258.231868 
L 104.344952 257.94816 
L 104.860369 257.94816 
L 104.860369 256.245911 
L 105.36204 256.245911 
L 105.36204 255.962202 
L 105.850679 255.962202 
L 105.850679 255.607567 
L 106.326946 255.607567 
L 106.326946 255.323859 
L 107.68741 255.323859 
L 107.68741 255.182005 
L 108.542628 255.111078 
L 108.542628 254.685515 
L 109.360651 254.685515 
L 109.360651 254.33088 
L 110.144579 254.33088 
L 110.144579 254.118099 
L 110.524623 254.118099 
L 110.524623 253.905318 
L 111.97238 253.905318 
L 111.97238 253.763464 
L 112.656511 253.763464 
L 112.656511 253.337901 
L 113.316634 253.266974 
L 113.316634 253.196047 
L 115.168444 253.12512 
L 115.168444 252.983266 
L 115.747307 252.983266 
L 115.747307 252.841412 
L 116.030193 252.841412 
L 116.030193 252.628631 
L 117.121023 252.557704 
L 117.121023 252.344922 
L 117.6436 252.273995 
L 117.6436 252.203068 
L 119.830627 252.132141 
L 119.830627 251.91936 
L 120.726585 251.848433 
L 120.726585 251.564725 
L 123.563797 251.493798 
L 123.563797 251.351944 
L 124.119844 251.351944 
L 124.119844 251.139162 
L 126.192937 251.068235 
L 126.192937 250.997308 
L 126.517282 250.997308 
L 126.517282 250.784527 
L 127.458055 250.784527 
L 127.458055 250.571746 
L 128.060076 250.500819 
L 128.060076 250.288038 
L 130.682774 250.288038 
L 130.682774 250.075256 
L 132.287354 250.004329 
L 132.287354 249.791548 
L 132.754746 249.791548 
L 132.754746 249.578767 
L 133.765759 249.578767 
L 133.765759 249.365986 
L 134.41079 249.365986 
L 134.41079 248.940424 
L 134.725196 248.869496 
L 134.828842 248.443934 
L 135.237805 248.443934 
L 135.237805 248.30208 
L 135.538796 248.231153 
L 135.538796 248.089299 
L 135.736814 248.089299 
L 135.736814 247.876518 
L 136.029987 247.876518 
L 136.029987 247.663736 
L 136.790153 247.592809 
L 136.790153 247.521882 
L 137.875736 247.450955 
L 137.875736 247.167247 
L 138.137618 247.167247 
L 138.224108 246.954466 
L 140.26641 246.883539 
L 140.26641 246.812612 
L 142.108542 246.812612 
L 142.108542 246.599831 
L 143.331383 246.528904 
L 143.331383 246.316122 
L 143.462475 246.316122 
L 143.462475 246.103341 
L 143.657415 246.032414 
L 143.657415 245.819633 
L 143.977892 245.748706 
L 143.977892 245.606852 
L 144.10457 245.606852 
L 144.10457 245.394071 
L 146.24998 245.323144 
L 146.24998 245.110362 
L 147.183884 245.110362 
L 147.183884 244.897581 
L 147.607824 244.897581 
L 147.607824 244.755727 
L 149.020615 244.755727 
L 149.020615 244.613873 
L 152.795543 244.542946 
L 152.795543 244.472019 
L 153.150116 244.401092 
L 153.189104 244.117384 
L 153.688725 244.046456 
L 153.726614 243.904602 
L 154.432362 243.833675 
L 154.541415 243.691821 
L 155.112587 243.620894 
L 155.112587 243.549967 
L 155.802997 243.549967 
L 155.802997 243.408113 
L 156.304668 243.337186 
L 156.304668 243.266259 
L 157.394569 243.195332 
L 157.456756 243.053478 
L 158.15751 242.982551 
L 158.15751 242.911624 
L 162.277267 242.840696 
L 162.325256 242.698842 
L 163.351171 242.627915 
L 163.351171 242.556988 
L 164.150838 242.486061 
L 164.150838 242.415134 
L 165.574415 242.415134 
L 165.574415 242.202353 
L 165.735027 242.202353 
L 165.735027 242.060499 
L 166.746854 242.060499 
L 166.746854 241.847718 
L 167.435044 241.776791 
L 167.435044 241.564009 
L 168.221954 241.493082 
L 168.221954 241.422155 
L 168.6034 241.422155 
L 168.6034 241.209374 
L 169.211366 241.209374 
L 169.211366 241.06752 
L 169.327334 241.06752 
L 169.327334 240.854739 
L 169.557146 240.783812 
L 169.557146 240.571031 
L 169.928705 240.500104 
L 169.928705 240.429176 
L 170.056241 240.358249 
L 170.135514 240.145468 
L 170.757955 240.074541 
L 170.84957 239.790833 
L 171.419661 239.719906 
L 171.419661 239.648979 
L 172.271923 239.578052 
L 172.271923 239.436198 
L 173.933441 239.365271 
L 173.933441 239.294344 
L 174.317363 239.223416 
L 174.317363 239.152489 
L 174.891235 239.081562 
L 174.891235 239.010635 
L 176.738821 238.939708 
L 176.738821 238.868781 
L 178.113008 238.797854 
L 178.113008 238.726927 
L 178.38028 238.726927 
L 178.46176 237.592094 
L 178.744191 237.521167 
L 178.824112 237.308386 
L 178.963164 237.308386 
L 179.042162 237.024678 
L 179.179617 237.024678 
L 179.179617 236.811896 
L 180.123969 236.811896 
L 180.123969 236.599115 
L 180.455946 236.599115 
L 180.455946 236.457261 
L 181.234837 236.457261 
L 181.304866 236.173553 
L 181.616811 236.102626 
L 181.616811 236.031699 
L 181.923667 235.960772 
L 181.923667 235.889845 
L 182.742588 235.818918 
L 182.742588 235.747991 
L 183.712756 235.677064 
L 183.712756 235.606136 
L 186.254454 235.535209 
L 186.254454 235.464282 
L 188.777297 235.393355 
L 188.777297 235.322428 
L 189.694277 235.251501 
L 189.733392 235.109647 
L 190.838997 235.03872 
L 190.838997 234.896866 
L 193.717745 234.825939 
L 193.717745 234.755012 
L 194.448598 234.755012 
L 194.483322 234.471304 
L 194.758828 234.400376 
L 194.758828 234.329449 
L 195.741247 234.258522 
L 195.749357 234.116668 
L 196.570398 234.045741 
L 196.570398 233.974814 
L 196.771139 233.903887 
L 196.771139 233.83296 
L 196.946949 233.762033 
L 196.946949 233.691106 
L 197.338479 233.620179 
L 197.338479 233.549252 
L 198.126512 233.478325 
L 198.126512 233.407398 
L 199.012829 233.336471 
L 199.012829 233.265544 
L 200.124579 233.194616 
L 200.124579 233.123689 
L 201.615719 233.052762 
L 201.615719 232.981835 
L 202.730654 232.910908 
L 202.730654 232.839981 
L 203.949094 232.769054 
L 203.949094 232.698127 
L 204.989489 232.6272 
L 204.989489 232.556273 
L 205.937643 232.485346 
L 205.954147 232.343492 
L 206.509142 232.272565 
L 206.509142 232.201638 
L 207.134751 232.130711 
L 207.134751 232.059784 
L 214.892317 232.059784 
L 214.956685 231.634221 
L 216.273524 231.563294 
L 216.382144 231.42144 
L 217.551315 231.42144 
L 217.59706 230.995878 
L 217.72355 230.995878 
L 217.778938 230.641242 
L 217.976495 230.570315 
L 217.996386 230.357534 
L 218.11035 230.286607 
L 218.144899 230.073826 
L 218.489357 230.002899 
L 218.489357 229.931972 
L 221.173881 229.861045 
L 221.219998 229.719191 
L 221.38675 229.648264 
L 221.432349 228.584358 
L 221.734227 228.513431 
L 221.823651 228.300649 
L 222.163223 228.229722 
L 222.163223 228.158795 
L 222.457607 228.087868 
L 222.457607 228.016941 
L 223.893235 228.016941 
L 223.99919 224.328734 
L 224.010926 224.257807 
L 224.120709 217.945299 
L 224.138645 217.874372 
L 224.244123 214.753581 
L 224.260161 214.682654 
L 224.364075 211.987426 
L 224.382666 211.916499 
L 224.482387 210.639812 
L 224.503499 210.568885 
L 224.583333 209.646833 
L 224.629675 209.575906 
L 224.706368 209.150344 
L 224.807853 209.079416 
L 224.870034 208.866635 
L 224.998922 208.795708 
L 225.097993 208.582927 
L 225.371978 208.512 
L 225.371978 208.441073 
L 225.713887 208.441073 
L 225.824031 204.114522 
L 225.834682 204.043595 
L 225.945752 196.950889 
L 225.950637 196.950889 
L 226.051312 193.971953 
L 226.08933 193.901026 
L 226.196501 191.276725 
L 226.201321 191.276725 
L 226.301466 189.858184 
L 226.326219 189.787256 
L 226.432846 184.113092 
L 226.437606 184.113092 
L 226.437606 184.042165 
L 226.54676 176.878532 
L 226.553068 176.807605 
L 226.661556 169.92768 
L 226.67566 169.856753 
L 226.78656 166.806889 
L 226.787339 166.806889 
L 226.89681 163.89888 
L 226.914607 163.827953 
L 227.021804 162.054776 
L 227.037178 161.983849 
L 227.146738 160.352527 
L 227.170404 160.2816 
L 227.273123 159.430475 
L 227.308753 159.359548 
L 227.409214 158.721205 
L 227.425028 158.650278 
L 227.533106 158.153788 
L 227.577956 158.082861 
L 227.584674 157.941007 
L 227.725947 157.87008 
L 227.731873 157.728226 
L 228.046177 157.657299 
L 228.156547 156.380612 
L 228.173192 156.309685 
L 228.280664 153.685384 
L 228.287136 153.685384 
L 228.38538 152.337769 
L 228.407539 152.266842 
L 228.510133 150.990155 
L 228.528597 150.919228 
L 228.638298 149.075125 
L 228.649585 149.004198 
L 228.751572 146.025261 
L 228.767699 145.954334 
L 228.878805 142.266127 
L 228.881592 142.1952 
L 228.987181 140.705732 
L 228.994107 140.634805 
L 229.101823 136.804744 
L 229.117652 136.733816 
L 229.228085 135.457129 
L 229.232188 135.386202 
L 229.341272 133.896734 
L 229.356222 133.825807 
L 229.440263 133.116536 
L 229.484167 133.045609 
L 229.591133 132.265412 
L 229.634018 132.194485 
L 229.649405 131.981704 
L 229.801931 131.910776 
L 229.877403 131.697995 
L 230.056261 131.627068 
L 230.161334 131.272433 
L 230.194496 131.201506 
L 230.295571 130.350381 
L 230.331077 130.279454 
L 230.404459 129.428329 
L 230.459629 129.357402 
L 230.561841 128.293496 
L 230.599393 128.222569 
L 230.70907 127.158664 
L 230.720445 127.158664 
L 230.828793 125.172706 
L 230.833189 125.101779 
L 230.932773 123.966946 
L 230.955871 123.896019 
L 231.066597 122.548405 
L 231.081477 122.477478 
L 231.186539 121.555426 
L 231.211789 121.484499 
L 231.321024 120.988009 
L 231.338149 120.917082 
L 231.421108 120.420593 
L 231.551515 120.349666 
L 231.659401 119.853176 
L 231.754716 119.782249 
L 231.86204 119.498541 
L 231.986483 119.427614 
L 232.088973 119.002052 
L 232.138252 118.931125 
L 232.164013 118.576489 
L 232.271943 118.505562 
L 232.364212 118.150927 
L 232.39718 118.08 
L 232.499761 117.583511 
L 232.514124 117.512584 
L 232.611502 117.157948 
L 232.641187 117.087021 
L 232.746989 116.448678 
L 232.760597 116.377751 
L 232.869113 115.881261 
L 232.892767 115.810334 
L 232.989889 115.526626 
L 233.007239 115.455699 
L 233.116014 115.030136 
L 233.155464 114.959209 
L 233.264491 114.533647 
L 233.486667 114.46272 
L 233.486667 114.391793 
L 233.680899 114.320866 
L 233.691691 114.179012 
L 233.829285 114.108085 
L 233.940343 113.682522 
L 234.000935 113.611595 
L 234.105183 113.469741 
L 234.134186 113.398814 
L 234.230887 113.044179 
L 234.264929 112.973252 
L 234.313529 112.760471 
L 234.484457 112.689544 
L 234.58864 112.0512 
L 234.670753 111.980273 
L 234.781549 111.838419 
L 234.835434 111.767492 
L 234.938705 111.554711 
L 235.364977 111.483784 
L 235.47177 111.341929 
L 235.519802 111.271002 
L 235.556477 111.129148 
L 235.781803 111.058221 
L 235.781803 110.987294 
L 236.075882 110.916367 
L 236.171162 110.490805 
L 236.20659 110.419878 
L 236.243366 110.278024 
L 236.397229 110.207096 
L 236.479274 109.923388 
L 236.56976 109.852461 
L 236.601674 109.710607 
L 237.002207 109.63968 
L 237.08076 109.426899 
L 237.295772 109.355972 
L 237.307349 109.214118 
L 238.001239 109.143191 
L 238.060348 109.001336 
L 238.434643 108.930409 
L 238.434643 108.859482 
L 239.185792 108.788555 
L 239.194652 108.646701 
L 239.87201 108.646701 
L 239.920108 108.43392 
L 240.297115 108.362993 
L 240.297115 108.292066 
L 240.752895 108.221139 
L 240.863754 107.086306 
L 240.895413 107.015379 
L 241.002878 105.880546 
L 241.022251 105.809619 
L 241.112641 104.958494 
L 241.162026 104.887567 
L 241.2568 104.603859 
L 241.376931 104.532932 
L 241.428845 104.391078 
L 241.513392 104.391078 
L 241.618455 102.263266 
L 241.640387 102.192339 
L 241.742636 100.773798 
L 241.772149 100.702871 
L 241.882762 97.653007 
L 241.893927 97.58208 
L 242.004176 94.319435 
L 242.007643 94.248508 
L 242.118608 92.333478 
L 242.126189 92.333478 
L 242.235773 91.482353 
L 242.256314 91.411426 
L 242.327347 90.702155 
L 242.388263 90.631228 
L 242.454061 90.489374 
L 242.564451 90.418447 
L 242.659801 89.638249 
L 242.686908 89.567322 
L 242.783305 88.574344 
L 242.80093 88.503416 
L 242.908978 86.517459 
L 242.914265 86.446532 
L 243.025279 84.035012 
L 243.030533 83.964085 
L 243.137601 82.049054 
L 243.146414 81.978127 
L 243.241789 81.197929 
L 243.29043 81.127002 
L 243.395388 80.70144 
L 243.51929 80.630513 
L 243.629345 80.134024 
L 243.653821 80.063096 
L 243.761515 78.715482 
L 243.772566 78.644555 
L 243.880526 77.013233 
L 243.886802 76.942306 
L 243.991614 75.310984 
L 244.00066 75.240056 
L 244.100499 73.679661 
L 244.116623 73.608734 
L 244.21585 72.473901 
L 244.237727 72.402974 
L 244.307194 72.048339 
L 244.368151 71.977412 
L 244.433178 71.480922 
L 244.544392 71.409995 
L 244.654049 70.487944 
L 244.710591 70.417016 
L 244.817793 69.636819 
L 244.834507 69.565892 
L 244.940118 68.572913 
L 244.959983 68.501986 
L 245.059294 67.792715 
L 245.084039 67.721788 
L 245.184163 67.083445 
L 245.232127 67.012518 
L 245.31199 66.657882 
L 245.413804 66.586955 
L 245.479357 66.445101 
L 245.579124 66.374174 
L 245.670091 65.948612 
L 245.707437 65.877685 
L 245.815919 64.955633 
L 245.859476 64.884706 
L 245.963997 64.246362 
L 245.981127 64.175435 
L 246.069616 63.8208 
L 246.137103 63.749873 
L 246.233728 63.324311 
L 246.300078 63.253384 
L 246.329033 63.040602 
L 246.468218 62.969675 
L 246.5735 62.473186 
L 246.607739 62.402259 
L 246.716835 61.763915 
L 246.777201 61.692988 
L 246.885855 61.338353 
L 246.933145 61.267426 
L 247.021262 61.054645 
L 247.081984 60.983718 
L 247.110289 60.841864 
L 247.305935 60.770936 
L 247.34409 60.629082 
L 247.524925 60.558155 
L 247.553088 60.416301 
L 247.710183 60.345374 
L 247.770767 60.132593 
L 248.023009 60.061666 
L 248.023513 59.919812 
L 248.173497 59.848885 
L 248.264955 59.707031 
L 248.353744 59.636104 
L 248.435219 59.494249 
L 248.49548 59.423322 
L 248.582212 59.139614 
L 248.758604 59.068687 
L 248.758604 58.99776 
L 248.951342 58.926833 
L 249.0255 58.784979 
L 249.550516 58.714052 
L 249.648934 58.004781 
L 249.678475 57.933854 
L 249.770721 57.650146 
L 249.93363 57.579219 
L 250.001076 57.295511 
L 250.07799 57.224584 
L 250.187166 56.869948 
L 250.189635 56.799021 
L 250.297273 55.806042 
L 250.326928 55.735115 
L 250.431349 55.38048 
L 250.487983 55.309553 
L 250.574153 55.096772 
L 250.697104 55.025845 
L 250.792543 54.529355 
L 250.822295 54.458428 
L 250.930268 53.394522 
L 250.944072 53.323595 
L 251.054351 52.259689 
L 251.083906 52.188762 
L 251.169953 51.621346 
L 251.339818 51.550419 
L 251.446129 51.337638 
L 251.467528 51.266711 
L 251.557686 50.415586 
L 251.621226 50.344659 
L 251.723067 49.422607 
L 251.79986 49.35168 
L 251.860124 48.997045 
L 252.020436 48.926118 
L 252.125814 48.500555 
L 252.178383 48.429628 
L 252.241072 47.791285 
L 252.299942 47.720358 
L 252.391397 46.869233 
L 252.432078 46.798306 
L 252.542907 46.372744 
L 252.664895 46.301816 
L 252.769277 45.805327 
L 252.786097 45.7344 
L 252.843288 45.308838 
L 252.964899 45.237911 
L 253.055112 44.812348 
L 253.095154 44.741421 
L 253.095154 44.670494 
L 253.301514 44.599567 
L 253.374791 44.386786 
L 253.42172 44.315859 
L 253.496601 43.819369 
L 253.63707 43.748442 
L 253.731562 43.464734 
L 253.802074 43.393807 
L 253.877489 43.110099 
L 254.044064 43.039172 
L 254.149816 42.613609 
L 254.211533 42.542682 
L 254.264195 42.400828 
L 254.335983 42.329901 
L 254.41234 42.188047 
L 254.584218 42.11712 
L 254.584218 42.046193 
L 254.757532 41.975266 
L 254.860059 41.762485 
L 255.032597 41.691558 
L 255.069167 41.549704 
L 255.315152 41.478776 
L 255.425569 41.336922 
L 255.478671 41.265995 
L 255.579206 40.982287 
L 255.83412 40.91136 
L 255.842099 40.769506 
L 255.994693 40.698579 
L 256.00804 40.556725 
L 256.208907 40.485798 
L 256.306921 40.202089 
L 256.456449 40.131162 
L 256.561984 39.776527 
L 256.570938 39.7056 
L 256.669951 39.138184 
L 256.719818 39.067256 
L 256.719818 38.996329 
L 256.849896 38.925402 
L 256.930368 38.570767 
L 256.991591 38.49984 
L 257.071461 38.074278 
L 257.143551 38.003351 
L 257.219999 37.365007 
L 257.38361 37.29408 
L 257.472505 36.939445 
L 257.578112 36.868518 
L 257.683432 36.584809 
L 257.776173 36.513882 
L 257.867565 36.230174 
L 257.928346 36.159247 
L 258.020631 35.662758 
L 258.063651 35.591831 
L 258.160712 35.379049 
L 258.230071 35.308122 
L 258.31623 35.024414 
L 258.361196 34.953487 
L 258.447047 34.811633 
L 258.615287 34.740706 
L 258.723386 34.315144 
L 258.883389 34.244216 
L 258.883389 34.173289 
L 259.110467 34.102362 
L 259.110467 34.031435 
L 259.279963 33.960508 
L 259.338424 33.818654 
L 259.675535 33.747727 
L 259.675535 33.6768 
L 260.009773 33.605873 
L 260.077294 33.322165 
L 260.258057 33.251238 
L 260.369162 33.038456 
L 260.422515 32.967529 
L 260.464933 32.825675 
L 260.753454 32.754748 
L 260.845256 32.541967 
L 261.008218 32.47104 
L 261.027653 32.329186 
L 261.300276 32.258259 
L 261.404667 32.045478 
L 261.472792 31.974551 
L 261.56692 31.761769 
L 261.720977 31.690842 
L 261.738962 31.548988 
L 261.946961 31.478061 
L 262.049508 31.336207 
L 262.203353 31.26528 
L 262.290484 31.123426 
L 262.555181 31.052499 
L 262.597351 30.910645 
L 262.783142 30.839718 
L 262.804961 30.626936 
L 263.053506 30.556009 
L 263.053506 30.485082 
L 263.38848 30.414155 
L 263.493662 30.272301 
L 263.640354 30.201374 
L 263.640354 30.130447 
L 264.0476 30.05952 
L 264.0476 29.988593 
L 264.593938 29.917666 
L 264.665703 29.704885 
L 265.105976 29.633958 
L 265.172883 29.421176 
L 265.572474 29.350249 
L 265.670296 29.208395 
L 265.905738 29.137468 
L 265.905738 29.066541 
L 266.432429 28.995614 
L 266.432429 28.924687 
L 267.202712 28.85376 
L 267.202712 28.782833 
L 267.867429 28.711906 
L 267.93011 28.570052 
L 268.884929 28.499125 
L 268.944563 28.357271 
L 269.666778 28.286344 
L 269.666778 28.215416 
L 270.746324 28.144489 
L 270.746324 28.073562 
L 272.691857 28.002635 
L 272.691857 27.931708 
L 273.600688 27.860781 
L 273.600688 27.789854 
L 274.682731 27.718927 
L 274.682731 27.648 
L 360.8064 27.648 
L 360.8064 27.648 
" style="fill: none; stroke: #000080; stroke-width: 1.5; stroke-linecap: square"/>
   </g>
   <g id="line2d_36">
    <defs>
     <path id="m5511527848" d="M 0 6 
C 1.591219 6 3.117479 5.367802 4.242641 4.242641 
C 5.367802 3.117479 6 1.591219 6 0 
C 6 -1.591219 5.367802 -3.117479 4.242641 -4.242641 
C 3.117479 -5.367802 1.591219 -6 0 -6 
C -1.591219 -6 -3.117479 -5.367802 -4.242641 -4.242641 
C -5.367802 -3.117479 -6 -1.591219 -6 0 
C -6 1.591219 -5.367802 3.117479 -4.242641 4.242641 
C -3.117479 5.367802 -1.591219 6 0 6 
z
" style="stroke: #000080; stroke-width: 1.5"/>
    </defs>
    <g>
     <use xlink:href="#m5511527848" x="132.287354" y="250.004329" style="fill-opacity: 0; stroke: #000080; stroke-width: 1.5"/>
     <use xlink:href="#m5511527848" x="224.009121" y="224.328734" style="fill-opacity: 0; stroke: #000080; stroke-width: 1.5"/>
     <use xlink:href="#m5511527848" x="241.590826" y="103.043464" style="fill-opacity: 0; stroke: #000080; stroke-width: 1.5"/>
     <use xlink:href="#m5511527848" x="274.682731" y="27.648" style="fill-opacity: 0; stroke: #000080; stroke-width: 1.5"/>
     <use xlink:href="#m5511527848" x="274.682731" y="27.648" style="fill-opacity: 0; stroke: #000080; stroke-width: 1.5"/>
     <use xlink:href="#m5511527848" x="360.8064" y="27.648" style="fill-opacity: 0; stroke: #000080; stroke-width: 1.5"/>
    </g>
   </g>
   <g id="line2d_37">
    <path style="fill: none; stroke: #000080; stroke-width: 1.5; stroke-linecap: square"/>
    <g/>
   </g>
   <g id="line2d_38">
    <path d="M 144.355394 245.394071 
" clip-path="url(#p08a7b89da4)" style="fill: none; stroke: #000080; stroke-width: 1.5; stroke-linecap: square"/>
    <defs>
     <path id="m99419df71a" d="M -12 12 
L 12 -12 
M -12 -12 
L 12 12 
" style="stroke: #000080"/>
    </defs>
    <g clip-path="url(#p08a7b89da4)">
     <use xlink:href="#m99419df71a" x="144.355394" y="245.394071" style="fill: #000080; stroke: #000080"/>
    </g>
   </g>
   <g id="line2d_39">
    <defs>
     <path id="m3745f4e9a8" d="M 0 1.5 
C 0.397805 1.5 0.77937 1.341951 1.06066 1.06066 
C 1.341951 0.77937 1.5 0.397805 1.5 0 
C 1.5 -0.397805 1.341951 -0.77937 1.06066 -1.06066 
C 0.77937 -1.341951 0.397805 -1.5 0 -1.5 
C -0.397805 -1.5 -0.77937 -1.341951 -1.06066 -1.06066 
C -1.341951 -0.77937 -1.5 -0.397805 -1.5 0 
C -1.5 0.397805 -1.341951 0.77937 -1.06066 1.06066 
C -0.77937 1.341951 -0.397805 1.5 0 1.5 
z
" style="stroke: #ff00ff"/>
    </defs>
    <g>
     <use xlink:href="#m3745f4e9a8" x="227.325408" y="27.648" style="fill: #ff00ff; stroke: #ff00ff"/>
     <use xlink:href="#m3745f4e9a8" x="227.325408" y="27.648" style="fill: #ff00ff; stroke: #ff00ff"/>
    </g>
   </g>
   <g id="line2d_40">
    <path d="M 49.972572 298.944 
L 49.972572 292.9152 
L 57.6 292.9152 
L 57.6 282.985412 
L 63.011746 282.985412 
L 63.011746 280.502965 
L 67.209423 280.502965 
L 67.209423 275.538071 
L 70.639174 275.538071 
L 70.639174 272.346353 
L 76.050921 272.346353 
L 76.050921 270.218541 
L 78.266603 270.218541 
L 78.266603 264.899012 
L 82.04153 264.899012 
L 82.04153 257.451671 
L 85.184077 257.451671 
L 85.184077 257.097035 
L 89.090095 257.097035 
L 89.090095 256.033129 
L 103.815014 256.033129 
L 103.815014 255.678494 
L 104.860369 255.678494 
L 104.860369 255.323859 
L 107.68741 255.323859 
L 107.68741 254.969224 
L 108.119879 254.969224 
L 108.119879 254.614588 
L 109.360651 254.614588 
L 109.360651 254.259953 
L 111.97238 254.259953 
L 111.97238 253.196047 
L 112.989468 253.196047 
L 112.989468 252.841412 
L 113.316634 252.841412 
L 113.316634 252.486776 
L 114.265316 252.486776 
L 114.265316 252.132141 
L 114.571202 252.132141 
L 114.571202 251.777506 
L 116.308887 251.777506 
L 116.308887 251.422871 
L 119.366121 251.422871 
L 119.366121 251.068235 
L 121.159053 251.068235 
L 121.159053 250.7136 
L 122.19863 250.7136 
L 122.19863 250.358965 
L 122.598891 250.358965 
L 122.598891 250.004329 
L 126.517282 250.004329 
L 126.517282 249.649694 
L 127.304491 249.649694 
L 127.304491 248.940424 
L 131.440389 248.940424 
L 131.440389 248.585788 
L 132.287354 248.585788 
L 132.287354 248.231153 
L 132.638982 248.231153 
L 132.638982 247.876518 
L 133.434756 247.876518 
L 133.434756 247.167247 
L 133.765759 247.167247 
L 133.765759 246.457976 
L 137.159019 246.457976 
L 137.159019 246.103341 
L 137.340774 246.103341 
L 137.340774 245.748706 
L 138.137618 245.748706 
L 138.137618 245.394071 
L 138.73486 245.394071 
L 138.73486 245.039435 
L 139.150143 245.039435 
L 139.232111 244.330165 
L 141.173167 244.330165 
L 141.173167 243.975529 
L 141.320133 243.975529 
L 141.320133 243.266259 
L 144.417581 243.266259 
L 144.417581 242.911624 
L 147.022411 242.911624 
L 147.022411 242.556988 
L 147.660152 242.556988 
L 147.660152 242.202353 
L 153.111048 242.202353 
L 153.111048 241.847718 
L 170.757955 241.847718 
L 170.757955 241.493082 
L 171.68379 241.493082 
L 171.68379 241.138447 
L 173.033068 241.138447 
L 173.033068 240.783812 
L 173.581081 240.783812 
L 173.686173 239.010635 
L 173.855707 239.010635 
L 173.855707 238.301365 
L 175.02591 238.301365 
L 175.02591 237.946729 
L 175.292401 237.946729 
L 175.292401 236.528188 
L 176.093013 236.528188 
L 176.139064 235.818918 
L 176.413023 235.818918 
L 176.413023 235.464282 
L 176.827712 235.464282 
L 176.827712 234.045741 
L 177.146467 234.045741 
L 177.146467 233.691106 
L 177.556133 233.691106 
L 177.620009 232.981835 
L 177.936177 232.981835 
L 177.936177 232.6272 
L 178.07155 232.6272 
L 178.07155 231.563294 
L 178.288192 231.563294 
L 178.288192 230.854024 
L 178.603505 230.854024 
L 178.603505 230.499388 
L 178.754199 230.499388 
L 178.754199 229.790118 
L 179.06186 229.790118 
L 179.140447 229.080847 
L 179.218706 229.080847 
L 179.257714 228.371576 
L 179.383934 228.371576 
L 179.383934 228.016941 
L 179.557313 228.016941 
L 179.557313 227.307671 
L 180.068066 227.307671 
L 180.068066 226.953035 
L 180.401022 226.953035 
L 180.401022 226.5984 
L 180.583483 226.5984 
L 180.583483 225.179859 
L 185.155102 225.179859 
L 185.155102 224.825224 
L 186.133176 224.825224 
L 186.133176 224.115953 
L 186.764607 224.115953 
L 186.764607 222.342776 
L 187.61445 222.342776 
L 187.61445 221.988141 
L 188.475359 221.988141 
L 188.475359 221.633506 
L 188.736141 221.633506 
L 188.830081 220.5696 
L 188.90023 220.5696 
L 188.98755 219.505694 
L 189.0629 219.505694 
L 189.0629 219.151059 
L 189.224176 219.151059 
L 189.25283 217.023247 
L 189.412493 217.023247 
L 189.508774 215.250071 
L 189.582069 215.250071 
L 189.582069 214.895435 
L 189.916704 214.895435 
L 189.98843 213.476894 
L 190.174739 213.476894 
L 190.240057 212.767624 
L 190.288897 212.767624 
L 190.364619 209.221271 
L 190.499084 209.221271 
L 190.589974 207.802729 
L 190.616623 207.802729 
L 190.691041 206.384188 
L 190.84426 206.384188 
L 190.954438 203.901741 
L 191.001461 203.901741 
L 191.001461 203.547106 
L 191.183216 203.547106 
L 191.214199 201.419294 
L 191.465331 201.419294 
L 191.556748 200.000753 
L 191.607343 200.000753 
L 191.703102 197.518306 
L 191.733241 197.518306 
L 191.733241 197.163671 
L 191.873253 197.163671 
L 191.873253 196.099765 
L 192.032002 196.099765 
L 192.135457 192.908047 
L 192.189421 192.908047 
L 192.277394 192.198776 
L 192.311495 192.198776 
L 192.394056 190.070965 
L 192.649148 190.070965 
L 192.677809 188.297788 
L 192.867779 188.297788 
L 192.943232 186.169976 
L 193.018385 186.169976 
L 193.055849 184.042165 
L 193.191033 184.042165 
L 193.242057 183.332894 
L 193.558997 183.332894 
L 193.658938 180.850447 
L 193.780871 180.850447 
L 193.888597 179.431906 
L 193.973445 179.431906 
L 193.973445 179.077271 
L 198.427787 179.077271 
L 198.427787 177.304094 
L 199.39076 177.304094 
L 199.457456 175.885553 
L 199.586836 175.885553 
L 199.586836 174.467012 
L 199.972963 174.467012 
L 199.972963 174.112376 
L 200.214325 174.112376 
L 200.217523 173.403106 
L 200.351323 173.403106 
L 200.351323 173.048471 
L 200.54083 173.048471 
L 200.64425 171.984565 
L 200.703539 171.984565 
L 200.768851 170.566024 
L 200.92653 170.566024 
L 200.951144 168.792847 
L 201.110357 168.792847 
L 201.110357 168.083576 
L 201.222829 168.083576 
L 201.280324 167.374306 
L 201.397793 167.374306 
L 201.397793 165.955765 
L 201.627587 165.955765 
L 201.627587 164.891859 
L 201.983115 164.891859 
L 202.084713 163.827953 
L 202.194402 163.827953 
L 202.286278 162.409412 
L 202.36345 162.409412 
L 202.423255 161.700141 
L 202.530993 161.700141 
L 202.530993 161.345506 
L 202.657785 161.345506 
L 202.750225 159.926965 
L 202.800456 159.926965 
L 202.800456 157.444518 
L 202.95035 157.444518 
L 203.046869 156.380612 
L 203.197549 156.380612 
L 203.197549 155.671341 
L 203.409191 155.671341 
L 203.438847 154.2528 
L 203.538259 154.2528 
L 203.575737 151.415718 
L 203.754072 151.415718 
L 203.754072 150.706447 
L 203.896585 150.706447 
L 203.990997 148.224 
L 204.022362 148.224 
L 204.090143 146.450824 
L 204.147305 146.450824 
L 204.204294 144.677647 
L 204.294604 144.677647 
L 204.402407 139.358118 
L 204.562962 139.358118 
L 204.656621 134.747859 
L 204.694458 134.747859 
L 204.759864 131.201506 
L 204.81503 131.201506 
L 204.875027 128.364424 
L 205.034089 128.364424 
L 205.083522 125.527341 
L 205.150051 125.527341 
L 205.150051 125.172706 
L 205.299495 125.172706 
L 205.37499 124.463435 
L 205.43323 124.463435 
L 205.534718 122.690259 
L 205.556395 122.690259 
L 205.652434 117.370729 
L 205.783691 117.370729 
L 205.783691 115.597553 
L 206.041145 115.597553 
L 206.123072 113.115106 
L 206.237174 113.115106 
L 206.237174 112.405835 
L 206.477079 112.405835 
L 206.559415 110.987294 
L 206.659562 110.987294 
L 206.738845 109.923388 
L 211.031222 109.923388 
L 211.031222 108.504847 
L 211.589627 108.504847 
L 211.589627 108.150212 
L 211.815334 108.150212 
L 211.903146 107.086306 
L 212.431604 107.086306 
L 212.431604 105.313129 
L 212.800422 105.313129 
L 212.864187 100.702871 
L 213.141249 100.702871 
L 213.157326 99.9936 
L 213.266286 99.9936 
L 213.352366 97.865788 
L 213.444385 97.865788 
L 213.487068 96.447247 
L 213.713092 96.447247 
L 213.769176 95.383341 
L 213.893213 95.383341 
L 213.897848 93.9648 
L 214.008758 93.9648 
L 214.114437 90.063812 
L 214.184561 90.063812 
L 214.184561 88.999906 
L 214.540275 88.999906 
L 214.540275 88.645271 
L 214.657861 88.645271 
L 214.657861 87.936 
L 214.876191 87.936 
L 214.936229 86.517459 
L 215.07606 86.517459 
L 215.161485 84.389647 
L 215.209096 84.389647 
L 215.285312 82.616471 
L 215.351211 82.616471 
L 215.453898 81.552565 
L 215.4951 81.552565 
L 215.519211 78.715482 
L 215.715203 78.715482 
L 215.771227 76.233035 
L 216.01163 76.233035 
L 216.039225 74.105224 
L 216.161534 74.105224 
L 216.18207 73.395953 
L 216.369956 73.395953 
L 216.369956 71.268141 
L 216.650981 71.268141 
L 216.650981 70.558871 
L 216.826332 70.558871 
L 216.867277 68.785694 
L 217.044554 68.785694 
L 217.044554 68.076424 
L 220.907556 68.076424 
L 220.907556 67.367153 
L 221.612621 67.367153 
L 221.612621 66.303247 
L 222.728141 66.303247 
L 222.728141 65.948612 
L 223.0652 65.948612 
L 223.0652 65.593976 
L 223.319707 65.593976 
L 223.422416 64.175435 
L 223.51623 64.175435 
L 223.627087 62.402259 
L 223.798548 62.402259 
L 223.853233 61.338353 
L 224.055997 61.338353 
L 224.158356 59.210541 
L 224.226287 59.210541 
L 224.284192 57.082729 
L 224.540388 57.082729 
L 224.627055 54.954918 
L 224.669803 54.954918 
L 224.756745 53.536376 
L 224.816502 53.536376 
L 224.923415 51.053929 
L 224.928573 51.053929 
L 225.010907 50.344659 
L 225.046815 50.344659 
L 225.06645 49.280753 
L 225.168562 49.280753 
L 225.26168 46.798306 
L 225.297956 46.798306 
L 225.372817 43.961224 
L 225.522484 43.961224 
L 225.596459 41.124141 
L 225.694091 41.124141 
L 225.77397 38.641694 
L 225.953079 38.641694 
L 225.977482 37.223153 
L 226.073162 37.223153 
L 226.148229 36.513882 
L 226.209352 36.513882 
L 226.257468 34.740706 
L 226.338983 34.740706 
L 226.385973 32.258259 
L 226.476436 32.258259 
L 226.476436 31.903624 
L 226.609748 31.903624 
L 226.622321 30.485082 
L 226.785782 30.485082 
L 226.785782 29.421176 
L 227.091655 29.421176 
L 227.091655 28.711906 
L 227.254143 28.711906 
L 227.325408 27.648 
L 360.8064 27.648 
L 360.8064 27.648 
" style="fill: none; stroke: #ff00ff; stroke-width: 1.5; stroke-linecap: square"/>
   </g>
   <g id="line2d_41">
    <defs>
     <path id="m4ba2f3dab1" d="M -0 8.485281 
L 5.091169 0 
L 0 -8.485281 
L -5.091169 -0 
z
" style="stroke: #ff00ff; stroke-width: 1.5; stroke-linejoin: miter"/>
    </defs>
    <g>
     <use xlink:href="#m4ba2f3dab1" x="70.639174" y="275.538071" style="fill-opacity: 0; stroke: #ff00ff; stroke-width: 1.5; stroke-linejoin: miter"/>
     <use xlink:href="#m4ba2f3dab1" x="153.111048" y="242.202353" style="fill-opacity: 0; stroke: #ff00ff; stroke-width: 1.5; stroke-linejoin: miter"/>
     <use xlink:href="#m4ba2f3dab1" x="214.184561" y="90.063812" style="fill-opacity: 0; stroke: #ff00ff; stroke-width: 1.5; stroke-linejoin: miter"/>
     <use xlink:href="#m4ba2f3dab1" x="227.325408" y="28.002635" style="fill-opacity: 0; stroke: #ff00ff; stroke-width: 1.5; stroke-linejoin: miter"/>
     <use xlink:href="#m4ba2f3dab1" x="227.325408" y="27.648" style="fill-opacity: 0; stroke: #ff00ff; stroke-width: 1.5; stroke-linejoin: miter"/>
     <use xlink:href="#m4ba2f3dab1" x="360.8064" y="27.648" style="fill-opacity: 0; stroke: #ff00ff; stroke-width: 1.5; stroke-linejoin: miter"/>
    </g>
   </g>
   <g id="line2d_42">
    <path style="fill: none; stroke: #ff00ff; stroke-width: 1.5; stroke-linecap: square"/>
    <g/>
   </g>
   <g id="line2d_43">
    <path d="M 360.8064 27.648 
L 380.514816 293.51808 
" style="fill: none; stroke: #000080; stroke-width: 1.5; stroke-linecap: square"/>
    <g>
     <use xlink:href="#m5511527848" x="360.8064" y="27.648" style="fill-opacity: 0; stroke: #000080; stroke-width: 1.5"/>
     <use xlink:href="#m5511527848" x="380.514816" y="293.51808" style="fill-opacity: 0; stroke: #000080; stroke-width: 1.5"/>
    </g>
   </g>
   <g id="line2d_44">
    <path d="M 360.8064 27.648 
L 380.514816 163.296 
" style="fill: none; stroke: #ff00ff; stroke-width: 1.5; stroke-linecap: square"/>
    <g>
     <use xlink:href="#m4ba2f3dab1" x="360.8064" y="27.648" style="fill-opacity: 0; stroke: #ff00ff; stroke-width: 1.5; stroke-linejoin: miter"/>
     <use xlink:href="#m4ba2f3dab1" x="380.514816" y="163.296" style="fill-opacity: 0; stroke: #ff00ff; stroke-width: 1.5; stroke-linejoin: miter"/>
    </g>
   </g>
   <g id="line2d_45">
    <path d="M 360.8064 298.944 
L 360.8064 27.648 
" style="fill: none; stroke: #000000; stroke-width: 1.5; stroke-linecap: square"/>
   </g>
   <g id="patch_3">
    <path d="M 57.6 298.944 
L 360.8064 298.944 
" style="fill: none; stroke: #000000; stroke-width: 0.8; stroke-linejoin: miter; stroke-linecap: square"/>
   </g>
   <g id="patch_4">
    <path d="M 57.6 27.648 
L 360.8064 27.648 
" style="fill: none; stroke: #000000; stroke-width: 0.8; stroke-linejoin: miter; stroke-linecap: square"/>
   </g>
   <g id="text_13">
    <!-- ex -->
    <g transform="translate(386.578944 297.381205)scale(0.14 -0.14)">
     <defs>
      <path id="DejaVuSans-78" d="M 3513 3500 
L 2247 1797 
L 3578 0 
L 2900 0 
L 1881 1375 
L 863 0 
L 184 0 
L 1544 1831 
L 300 3500 
L 978 3500 
L 1906 2253 
L 2834 3500 
L 3513 3500 
z
" transform="scale(0.015625)"/>
     </defs>
     <use xlink:href="#DejaVuSans-65"/>
     <use xlink:href="#DejaVuSans-78" x="59.773438"/>
    </g>
   </g>
   <g id="text_14">
    <!-- CMA-ES-20 -->
    <g transform="translate(386.578944 167.159125)scale(0.14 -0.14)">
     <defs>
      <path id="DejaVuSans-43" d="M 4122 4306 
L 4122 3641 
Q 3803 3938 3442 4084 
Q 3081 4231 2675 4231 
Q 1875 4231 1450 3742 
Q 1025 3253 1025 2328 
Q 1025 1406 1450 917 
Q 1875 428 2675 428 
Q 3081 428 3442 575 
Q 3803 722 4122 1019 
L 4122 359 
Q 3791 134 3420 21 
Q 3050 -91 2638 -91 
Q 1578 -91 968 557 
Q 359 1206 359 2328 
Q 359 3453 968 4101 
Q 1578 4750 2638 4750 
Q 3056 4750 3426 4639 
Q 3797 4528 4122 4306 
z
" transform="scale(0.015625)"/>
      <path id="DejaVuSans-4d" d="M 628 4666 
L 1569 4666 
L 2759 1491 
L 3956 4666 
L 4897 4666 
L 4897 0 
L 4281 0 
L 4281 4097 
L 3078 897 
L 2444 897 
L 1241 4097 
L 1241 0 
L 628 0 
L 628 4666 
z
" transform="scale(0.015625)"/>
      <path id="DejaVuSans-41" d="M 2188 4044 
L 1331 1722 
L 3047 1722 
L 2188 4044 
z
M 1831 4666 
L 2547 4666 
L 4325 0 
L 3669 0 
L 3244 1197 
L 1141 1197 
L 716 0 
L 50 0 
L 1831 4666 
z
" transform="scale(0.015625)"/>
      <path id="DejaVuSans-45" d="M 628 4666 
L 3578 4666 
L 3578 4134 
L 1259 4134 
L 1259 2753 
L 3481 2753 
L 3481 2222 
L 1259 2222 
L 1259 531 
L 3634 531 
L 3634 0 
L 628 0 
L 628 4666 
z
" transform="scale(0.015625)"/>
      <path id="DejaVuSans-53" d="M 3425 4513 
L 3425 3897 
Q 3066 4069 2747 4153 
Q 2428 4238 2131 4238 
Q 1616 4238 1336 4038 
Q 1056 3838 1056 3469 
Q 1056 3159 1242 3001 
Q 1428 2844 1947 2747 
L 2328 2669 
Q 3034 2534 3370 2195 
Q 3706 1856 3706 1288 
Q 3706 609 3251 259 
Q 2797 -91 1919 -91 
Q 1588 -91 1214 -16 
Q 841 59 441 206 
L 441 856 
Q 825 641 1194 531 
Q 1563 422 1919 422 
Q 2459 422 2753 634 
Q 3047 847 3047 1241 
Q 3047 1584 2836 1778 
Q 2625 1972 2144 2069 
L 1759 2144 
Q 1053 2284 737 2584 
Q 422 2884 422 3419 
Q 422 4038 858 4394 
Q 1294 4750 2059 4750 
Q 2388 4750 2728 4690 
Q 3069 4631 3425 4513 
z
" transform="scale(0.015625)"/>
     </defs>
     <use xlink:href="#DejaVuSans-43"/>
     <use xlink:href="#DejaVuSans-4d" x="69.824219"/>
     <use xlink:href="#DejaVuSans-41" x="156.103516"/>
     <use xlink:href="#DejaVuSans-2d" x="222.261719"/>
     <use xlink:href="#DejaVuSans-45" x="258.345703"/>
     <use xlink:href="#DejaVuSans-53" x="321.529297"/>
     <use xlink:href="#DejaVuSans-2d" x="385.005859"/>
     <use xlink:href="#DejaVuSans-32" x="421.089844"/>
     <use xlink:href="#DejaVuSans-30" x="484.712891"/>
    </g>
   </g>
   <g id="text_15">
    <!-- best 2009 -->
    <g transform="translate(386.578944 36.937045)scale(0.14 -0.14)">
     <defs>
      <path id="DejaVuSans-62" d="M 3116 1747 
Q 3116 2381 2855 2742 
Q 2594 3103 2138 3103 
Q 1681 3103 1420 2742 
Q 1159 2381 1159 1747 
Q 1159 1113 1420 752 
Q 1681 391 2138 391 
Q 2594 391 2855 752 
Q 3116 1113 3116 1747 
z
M 1159 2969 
Q 1341 3281 1617 3432 
Q 1894 3584 2278 3584 
Q 2916 3584 3314 3078 
Q 3713 2572 3713 1747 
Q 3713 922 3314 415 
Q 2916 -91 2278 -91 
Q 1894 -91 1617 61 
Q 1341 213 1159 525 
L 1159 0 
L 581 0 
L 581 4863 
L 1159 4863 
L 1159 2969 
z
" transform="scale(0.015625)"/>
      <path id="DejaVuSans-39" d="M 703 97 
L 703 672 
Q 941 559 1184 500 
Q 1428 441 1663 441 
Q 2288 441 2617 861 
Q 2947 1281 2994 2138 
Q 2813 1869 2534 1725 
Q 2256 1581 1919 1581 
Q 1219 1581 811 2004 
Q 403 2428 403 3163 
Q 403 3881 828 4315 
Q 1253 4750 1959 4750 
Q 2769 4750 3195 4129 
Q 3622 3509 3622 2328 
Q 3622 1225 3098 567 
Q 2575 -91 1691 -91 
Q 1453 -91 1209 -44 
Q 966 3 703 97 
z
M 1959 2075 
Q 2384 2075 2632 2365 
Q 2881 2656 2881 3163 
Q 2881 3666 2632 3958 
Q 2384 4250 1959 4250 
Q 1534 4250 1286 3958 
Q 1038 3666 1038 3163 
Q 1038 2656 1286 2365 
Q 1534 2075 1959 2075 
z
" transform="scale(0.015625)"/>
     </defs>
     <use xlink:href="#DejaVuSans-62"/>
     <use xlink:href="#DejaVuSans-65" x="63.476562"/>
     <use xlink:href="#DejaVuSans-73" x="125"/>
     <use xlink:href="#DejaVuSans-74" x="177.099609"/>
     <use xlink:href="#DejaVuSans-20" x="216.308594"/>
     <use xlink:href="#DejaVuSans-32" x="248.095703"/>
     <use xlink:href="#DejaVuSans-30" x="311.71875"/>
     <use xlink:href="#DejaVuSans-30" x="375.341797"/>
     <use xlink:href="#DejaVuSans-39" x="438.964844"/>
    </g>
   </g>
   <g id="text_16">
    <!-- bbob f20, 3-D -->
    <g transform="translate(60.632064 38.111366)scale(0.102 -0.102)">
     <defs>
      <path id="DejaVuSans-33" d="M 2597 2516 
Q 3050 2419 3304 2112 
Q 3559 1806 3559 1356 
Q 3559 666 3084 287 
Q 2609 -91 1734 -91 
Q 1441 -91 1130 -33 
Q 819 25 488 141 
L 488 750 
Q 750 597 1062 519 
Q 1375 441 1716 441 
Q 2309 441 2620 675 
Q 2931 909 2931 1356 
Q 2931 1769 2642 2001 
Q 2353 2234 1838 2234 
L 1294 2234 
L 1294 2753 
L 1863 2753 
Q 2328 2753 2575 2939 
Q 2822 3125 2822 3475 
Q 2822 3834 2567 4026 
Q 2313 4219 1838 4219 
Q 1578 4219 1281 4162 
Q 984 4106 628 3988 
L 628 4550 
Q 988 4650 1302 4700 
Q 1616 4750 1894 4750 
Q 2613 4750 3031 4423 
Q 3450 4097 3450 3541 
Q 3450 3153 3228 2886 
Q 3006 2619 2597 2516 
z
" transform="scale(0.015625)"/>
      <path id="DejaVuSans-44" d="M 1259 4147 
L 1259 519 
L 2022 519 
Q 2988 519 3436 956 
Q 3884 1394 3884 2338 
Q 3884 3275 3436 3711 
Q 2988 4147 2022 4147 
L 1259 4147 
z
M 628 4666 
L 1925 4666 
Q 3281 4666 3915 4102 
Q 4550 3538 4550 2338 
Q 4550 1131 3912 565 
Q 3275 0 1925 0 
L 628 0 
L 628 4666 
z
" transform="scale(0.015625)"/>
     </defs>
     <use xlink:href="#DejaVuSans-62"/>
     <use xlink:href="#DejaVuSans-62" x="63.476562"/>
     <use xlink:href="#DejaVuSans-6f" x="126.953125"/>
     <use xlink:href="#DejaVuSans-62" x="188.134766"/>
     <use xlink:href="#DejaVuSans-20" x="251.611328"/>
     <use xlink:href="#DejaVuSans-66" x="283.398438"/>
     <use xlink:href="#DejaVuSans-32" x="318.603516"/>
     <use xlink:href="#DejaVuSans-30" x="382.226562"/>
     <use xlink:href="#DejaVuSans-2c" x="445.849609"/>
     <use xlink:href="#DejaVuSans-20" x="477.636719"/>
     <use xlink:href="#DejaVuSans-33" x="509.423828"/>
     <use xlink:href="#DejaVuSans-2d" x="573.046875"/>
     <use xlink:href="#DejaVuSans-44" x="609.130859"/>
    </g>
    <!-- 51 targets: 100..1e-08 -->
    <g transform="translate(60.632064 49.533135)scale(0.102 -0.102)">
     <defs>
      <path id="DejaVuSans-35" d="M 691 4666 
L 3169 4666 
L 3169 4134 
L 1269 4134 
L 1269 2991 
Q 1406 3038 1543 3061 
Q 1681 3084 1819 3084 
Q 2600 3084 3056 2656 
Q 3513 2228 3513 1497 
Q 3513 744 3044 326 
Q 2575 -91 1722 -91 
Q 1428 -91 1123 -41 
Q 819 9 494 109 
L 494 744 
Q 775 591 1075 516 
Q 1375 441 1709 441 
Q 2250 441 2565 725 
Q 2881 1009 2881 1497 
Q 2881 1984 2565 2268 
Q 2250 2553 1709 2553 
Q 1456 2553 1204 2497 
Q 953 2441 691 2322 
L 691 4666 
z
" transform="scale(0.015625)"/>
      <path id="DejaVuSans-3a" d="M 750 794 
L 1409 794 
L 1409 0 
L 750 0 
L 750 794 
z
M 750 3309 
L 1409 3309 
L 1409 2516 
L 750 2516 
L 750 3309 
z
" transform="scale(0.015625)"/>
     </defs>
     <use xlink:href="#DejaVuSans-35"/>
     <use xlink:href="#DejaVuSans-31" x="63.623047"/>
     <use xlink:href="#DejaVuSans-20" x="127.246094"/>
     <use xlink:href="#DejaVuSans-74" x="159.033203"/>
     <use xlink:href="#DejaVuSans-61" x="198.242188"/>
     <use xlink:href="#DejaVuSans-72" x="259.521484"/>
     <use xlink:href="#DejaVuSans-67" x="298.884766"/>
     <use xlink:href="#DejaVuSans-65" x="362.361328"/>
     <use xlink:href="#DejaVuSans-74" x="423.884766"/>
     <use xlink:href="#DejaVuSans-73" x="463.09375"/>
     <use xlink:href="#DejaVuSans-3a" x="515.193359"/>
     <use xlink:href="#DejaVuSans-20" x="548.884766"/>
     <use xlink:href="#DejaVuSans-31" x="580.671875"/>
     <use xlink:href="#DejaVuSans-30" x="644.294922"/>
     <use xlink:href="#DejaVuSans-30" x="707.917969"/>
     <use xlink:href="#DejaVuSans-2e" x="771.541016"/>
     <use xlink:href="#DejaVuSans-2e" x="803.328125"/>
     <use xlink:href="#DejaVuSans-31" x="835.115234"/>
     <use xlink:href="#DejaVuSans-65" x="898.738281"/>
     <use xlink:href="#DejaVuSans-2d" x="960.261719"/>
     <use xlink:href="#DejaVuSans-30" x="996.345703"/>
     <use xlink:href="#DejaVuSans-38" x="1059.96875"/>
    </g>
    <!-- 25, 15 instances -->
    <g transform="translate(60.632064 60.954904)scale(0.102 -0.102)">
     <use xlink:href="#DejaVuSans-32"/>
     <use xlink:href="#DejaVuSans-35" x="63.623047"/>
     <use xlink:href="#DejaVuSans-2c" x="127.246094"/>
     <use xlink:href="#DejaVuSans-20" x="159.033203"/>
     <use xlink:href="#DejaVuSans-31" x="190.820312"/>
     <use xlink:href="#DejaVuSans-35" x="254.443359"/>
     <use xlink:href="#DejaVuSans-20" x="318.066406"/>
     <use xlink:href="#DejaVuSans-69" x="349.853516"/>
     <use xlink:href="#DejaVuSans-6e" x="377.636719"/>
     <use xlink:href="#DejaVuSans-73" x="441.015625"/>
     <use xlink:href="#DejaVuSans-74" x="493.115234"/>
     <use xlink:href="#DejaVuSans-61" x="532.324219"/>
     <use xlink:href="#DejaVuSans-6e" x="593.603516"/>
     <use xlink:href="#DejaVuSans-63" x="656.982422"/>
     <use xlink:href="#DejaVuSans-65" x="711.962891"/>
     <use xlink:href="#DejaVuSans-73" x="773.486328"/>
    </g>
   </g>
   <g id="text_17">
    <!-- v2.6 -->
    <g style="fill: #808080" transform="translate(198.292262 294.151352)scale(0.1 -0.1)">
     <use xlink:href="#DejaVuSans-76"/>
     <use xlink:href="#DejaVuSans-32" x="59.179688"/>
     <use xlink:href="#DejaVuSans-2e" x="122.802734"/>
     <use xlink:href="#DejaVuSans-36" x="154.589844"/>
    </g>
   </g>
   <g id="text_18">
    <!-- 20 Schwefel x*sin(x) -->
    <g transform="translate(106.189137 21.648)scale(0.2 -0.2)">
     <defs>
      <path id="DejaVuSans-68" d="M 3513 2113 
L 3513 0 
L 2938 0 
L 2938 2094 
Q 2938 2591 2744 2837 
Q 2550 3084 2163 3084 
Q 1697 3084 1428 2787 
Q 1159 2491 1159 1978 
L 1159 0 
L 581 0 
L 581 4863 
L 1159 4863 
L 1159 2956 
Q 1366 3272 1645 3428 
Q 1925 3584 2291 3584 
Q 2894 3584 3203 3211 
Q 3513 2838 3513 2113 
z
" transform="scale(0.015625)"/>
      <path id="DejaVuSans-77" d="M 269 3500 
L 844 3500 
L 1563 769 
L 2278 3500 
L 2956 3500 
L 3675 769 
L 4391 3500 
L 4966 3500 
L 4050 0 
L 3372 0 
L 2619 2869 
L 1863 0 
L 1184 0 
L 269 3500 
z
" transform="scale(0.015625)"/>
      <path id="DejaVuSans-2a" d="M 3009 3897 
L 1888 3291 
L 3009 2681 
L 2828 2375 
L 1778 3009 
L 1778 1831 
L 1422 1831 
L 1422 3009 
L 372 2375 
L 191 2681 
L 1313 3291 
L 191 3897 
L 372 4206 
L 1422 3572 
L 1422 4750 
L 1778 4750 
L 1778 3572 
L 2828 4206 
L 3009 3897 
z
" transform="scale(0.015625)"/>
     </defs>
     <use xlink:href="#DejaVuSans-32"/>
     <use xlink:href="#DejaVuSans-30" x="63.623047"/>
     <use xlink:href="#DejaVuSans-20" x="127.246094"/>
     <use xlink:href="#DejaVuSans-53" x="159.033203"/>
     <use xlink:href="#DejaVuSans-63" x="222.509766"/>
     <use xlink:href="#DejaVuSans-68" x="277.490234"/>
     <use xlink:href="#DejaVuSans-77" x="340.869141"/>
     <use xlink:href="#DejaVuSans-65" x="422.65625"/>
     <use xlink:href="#DejaVuSans-66" x="484.179688"/>
     <use xlink:href="#DejaVuSans-65" x="519.384766"/>
     <use xlink:href="#DejaVuSans-6c" x="580.908203"/>
     <use xlink:href="#DejaVuSans-20" x="608.691406"/>
     <use xlink:href="#DejaVuSans-78" x="640.478516"/>
     <use xlink:href="#DejaVuSans-2a" x="699.658203"/>
     <use xlink:href="#DejaVuSans-73" x="749.658203"/>
     <use xlink:href="#DejaVuSans-69" x="801.757812"/>
     <use xlink:href="#DejaVuSans-6e" x="829.541016"/>
     <use xlink:href="#DejaVuSans-28" x="892.919922"/>
     <use xlink:href="#DejaVuSans-78" x="931.933594"/>
     <use xlink:href="#DejaVuSans-29" x="991.113281"/>
    </g>
   </g>
  </g>
 </g>
 <defs>
  <clipPath id="p08a7b89da4">
   <rect x="57.6" y="27.648" width="303.2064" height="271.296"/>
  </clipPath>
 </defs>
</svg>
