<?xml version="1.0" encoding="utf-8" standalone="no"?>
<!DOCTYPE svg PUBLIC "-//W3C//DTD SVG 1.1//EN"
  "http://www.w3.org/Graphics/SVG/1.1/DTD/svg11.dtd">
<svg xmlns:xlink="http://www.w3.org/1999/xlink" width="460.8pt" height="345.6pt" viewBox="0 0 460.8 345.6" xmlns="http://www.w3.org/2000/svg" version="1.1">
 <metadata>
  <rdf:RDF xmlns:dc="http://purl.org/dc/elements/1.1/" xmlns:cc="http://creativecommons.org/ns#" xmlns:rdf="http://www.w3.org/1999/02/22-rdf-syntax-ns#">
   <cc:Work>
    <dc:type rdf:resource="http://purl.org/dc/dcmitype/StillImage"/>
    <dc:date>2022-03-16T23:17:26.806638</dc:date>
    <dc:format>image/svg+xml</dc:format>
    <dc:creator>
     <cc:Agent>
      <dc:title>Matplotlib v3.5.1, https://matplotlib.org/</dc:title>
     </cc:Agent>
    </dc:creator>
   </cc:Work>
  </rdf:RDF>
 </metadata>
 <defs>
  <style type="text/css">*{stroke-linejoin: round; stroke-linecap: butt}</style>
 </defs>
 <g id="figure_1">
  <g id="patch_1">
   <path d="M 0 345.6 
L 460.8 345.6 
L 460.8 0 
L 0 0 
z
" style="fill: #ffffff"/>
  </g>
  <g id="axes_1">
   <g id="patch_2">
    <path d="M 57.6 298.944 
L 360.8064 298.944 
L 360.8064 27.648 
L 57.6 27.648 
z
" style="fill: #ffffff"/>
   </g>
   <g id="line2d_1">
    <path d="M 80.059535 298.944 
L 80.059535 293.624471 
L 90.007914 293.624471 
L 90.007914 288.304941 
L 94.735529 288.304941 
L 94.735529 282.985412 
L 95.503454 282.985412 
L 95.503454 277.665882 
L 97.18203 277.665882 
L 97.18203 272.346353 
L 111.117162 272.346353 
L 111.117162 267.026824 
L 125.628382 267.026824 
L 125.628382 261.707294 
L 136.92008 261.707294 
L 136.92008 256.387765 
L 139.652679 256.387765 
L 139.652679 251.068235 
L 143.18612 251.068235 
L 143.18612 245.748706 
L 153.200785 245.748706 
L 153.200785 240.429176 
L 163.314829 240.429176 
L 163.314829 235.109647 
L 165.927947 235.109647 
L 165.927947 229.790118 
L 166.379563 229.790118 
L 166.379563 224.470588 
L 170.805345 224.470588 
L 170.805345 219.151059 
L 171.20416 219.151059 
L 171.20416 213.831529 
L 172.076012 213.831529 
L 172.076012 208.512 
L 172.85592 208.512 
L 172.85592 203.192471 
L 173.217966 203.192471 
L 173.217966 197.872941 
L 173.730661 197.872941 
L 173.730661 192.553412 
L 174.875255 192.553412 
L 174.875255 187.233882 
L 174.967261 187.233882 
L 174.967261 181.914353 
L 175.029569 181.914353 
L 175.029569 70.204235 
L 175.701674 70.204235 
L 175.701674 64.884706 
L 175.75456 64.884706 
L 175.75456 59.565176 
L 175.915823 59.565176 
L 175.915823 54.245647 
L 176.94485 54.245647 
L 176.94485 48.926118 
L 177.197622 48.926118 
L 177.197622 43.606588 
L 177.337316 43.606588 
L 177.337316 38.287059 
L 177.427726 38.287059 
L 177.427726 32.967529 
L 177.597677 32.967529 
L 177.597677 27.648 
L 360.8064 27.648 
" style="fill: none; stroke: #f5deb3; stroke-width: 4; stroke-linecap: square"/>
   </g>
   <g id="line2d_2">
    <defs>
     <path id="m8623ba0a5c" d="M -0 7.778175 
L 7.778175 0 
L 0 -7.778175 
L -7.778175 -0 
z
" style="stroke: #f5deb3; stroke-width: 1.5; stroke-linejoin: miter"/>
    </defs>
    <g>
     <use xlink:href="#m8623ba0a5c" x="153.200785" y="240.429176" style="fill: #f5deb3; stroke: #f5deb3; stroke-width: 1.5; stroke-linejoin: miter"/>
     <use xlink:href="#m8623ba0a5c" x="175.029569" y="181.914353" style="fill: #f5deb3; stroke: #f5deb3; stroke-width: 1.5; stroke-linejoin: miter"/>
     <use xlink:href="#m8623ba0a5c" x="177.597677" y="27.648" style="fill: #f5deb3; stroke: #f5deb3; stroke-width: 1.5; stroke-linejoin: miter"/>
     <use xlink:href="#m8623ba0a5c" x="177.597677" y="27.648" style="fill: #f5deb3; stroke: #f5deb3; stroke-width: 1.5; stroke-linejoin: miter"/>
     <use xlink:href="#m8623ba0a5c" x="360.8064" y="27.648" style="fill: #f5deb3; stroke: #f5deb3; stroke-width: 1.5; stroke-linejoin: miter"/>
    </g>
   </g>
   <g id="line2d_3">
    <path style="fill: none; stroke: #f5deb3; stroke-width: 4; stroke-linecap: square"/>
    <g/>
   </g>
   <g id="line2d_4">
    <path d="M 360.8064 27.648 
L 380.514816 33.07392 
" style="fill: none; stroke: #f5deb3; stroke-width: 4; stroke-linecap: square"/>
    <g>
     <use xlink:href="#m8623ba0a5c" x="360.8064" y="27.648" style="fill: #f5deb3; stroke: #f5deb3; stroke-width: 1.5; stroke-linejoin: miter"/>
     <use xlink:href="#m8623ba0a5c" x="380.514816" y="33.07392" style="fill: #f5deb3; stroke: #f5deb3; stroke-width: 1.5; stroke-linejoin: miter"/>
    </g>
   </g>
   <g id="matplotlib.axis_1">
    <g id="xtick_1">
     <g id="line2d_5">
      <path d="M 57.6 298.944 
L 57.6 27.648 
" clip-path="url(#p30d03e6846)" style="fill: none; stroke: #b0b0b0; stroke-width: 0.8; stroke-linecap: square"/>
     </g>
     <g id="line2d_6">
      <defs>
       <path id="m5fc11ec335" d="M 0 0 
L 0 3.5 
" style="stroke: #000000; stroke-width: 0.8"/>
      </defs>
      <g>
       <use xlink:href="#m5fc11ec335" x="57.6" y="298.944" style="stroke: #000000; stroke-width: 0.8"/>
      </g>
     </g>
     <g id="text_1">
      <!-- 0 -->
      <g transform="translate(52.191875 318.861344)scale(0.17 -0.17)">
       <defs>
        <path id="DejaVuSans-30" d="M 2034 4250 
Q 1547 4250 1301 3770 
Q 1056 3291 1056 2328 
Q 1056 1369 1301 889 
Q 1547 409 2034 409 
Q 2525 409 2770 889 
Q 3016 1369 3016 2328 
Q 3016 3291 2770 3770 
Q 2525 4250 2034 4250 
z
M 2034 4750 
Q 2819 4750 3233 4129 
Q 3647 3509 3647 2328 
Q 3647 1150 3233 529 
Q 2819 -91 2034 -91 
Q 1250 -91 836 529 
Q 422 1150 422 2328 
Q 422 3509 836 4129 
Q 1250 4750 2034 4750 
z
" transform="scale(0.015625)"/>
       </defs>
       <use xlink:href="#DejaVuSans-30"/>
      </g>
     </g>
    </g>
    <g id="xtick_2">
     <g id="line2d_7">
      <path d="M 144.2304 298.944 
L 144.2304 27.648 
" clip-path="url(#p30d03e6846)" style="fill: none; stroke: #b0b0b0; stroke-width: 0.8; stroke-linecap: square"/>
     </g>
     <g id="line2d_8">
      <g>
       <use xlink:href="#m5fc11ec335" x="144.2304" y="298.944" style="stroke: #000000; stroke-width: 0.8"/>
      </g>
     </g>
     <g id="text_2">
      <!-- 2 -->
      <g transform="translate(138.822275 318.861344)scale(0.17 -0.17)">
       <defs>
        <path id="DejaVuSans-32" d="M 1228 531 
L 3431 531 
L 3431 0 
L 469 0 
L 469 531 
Q 828 903 1448 1529 
Q 2069 2156 2228 2338 
Q 2531 2678 2651 2914 
Q 2772 3150 2772 3378 
Q 2772 3750 2511 3984 
Q 2250 4219 1831 4219 
Q 1534 4219 1204 4116 
Q 875 4013 500 3803 
L 500 4441 
Q 881 4594 1212 4672 
Q 1544 4750 1819 4750 
Q 2544 4750 2975 4387 
Q 3406 4025 3406 3419 
Q 3406 3131 3298 2873 
Q 3191 2616 2906 2266 
Q 2828 2175 2409 1742 
Q 1991 1309 1228 531 
z
" transform="scale(0.015625)"/>
       </defs>
       <use xlink:href="#DejaVuSans-32"/>
      </g>
     </g>
    </g>
    <g id="xtick_3">
     <g id="line2d_9">
      <path d="M 230.8608 298.944 
L 230.8608 27.648 
" clip-path="url(#p30d03e6846)" style="fill: none; stroke: #b0b0b0; stroke-width: 0.8; stroke-linecap: square"/>
     </g>
     <g id="line2d_10">
      <g>
       <use xlink:href="#m5fc11ec335" x="230.8608" y="298.944" style="stroke: #000000; stroke-width: 0.8"/>
      </g>
     </g>
     <g id="text_3">
      <!-- 4 -->
      <g transform="translate(225.452675 318.861344)scale(0.17 -0.17)">
       <defs>
        <path id="DejaVuSans-34" d="M 2419 4116 
L 825 1625 
L 2419 1625 
L 2419 4116 
z
M 2253 4666 
L 3047 4666 
L 3047 1625 
L 3713 1625 
L 3713 1100 
L 3047 1100 
L 3047 0 
L 2419 0 
L 2419 1100 
L 313 1100 
L 313 1709 
L 2253 4666 
z
" transform="scale(0.015625)"/>
       </defs>
       <use xlink:href="#DejaVuSans-34"/>
      </g>
     </g>
    </g>
    <g id="xtick_4">
     <g id="line2d_11">
      <path d="M 317.4912 298.944 
L 317.4912 27.648 
" clip-path="url(#p30d03e6846)" style="fill: none; stroke: #b0b0b0; stroke-width: 0.8; stroke-linecap: square"/>
     </g>
     <g id="line2d_12">
      <g>
       <use xlink:href="#m5fc11ec335" x="317.4912" y="298.944" style="stroke: #000000; stroke-width: 0.8"/>
      </g>
     </g>
     <g id="text_4">
      <!-- 6 -->
      <g transform="translate(312.083075 318.861344)scale(0.17 -0.17)">
       <defs>
        <path id="DejaVuSans-36" d="M 2113 2584 
Q 1688 2584 1439 2293 
Q 1191 2003 1191 1497 
Q 1191 994 1439 701 
Q 1688 409 2113 409 
Q 2538 409 2786 701 
Q 3034 994 3034 1497 
Q 3034 2003 2786 2293 
Q 2538 2584 2113 2584 
z
M 3366 4563 
L 3366 3988 
Q 3128 4100 2886 4159 
Q 2644 4219 2406 4219 
Q 1781 4219 1451 3797 
Q 1122 3375 1075 2522 
Q 1259 2794 1537 2939 
Q 1816 3084 2150 3084 
Q 2853 3084 3261 2657 
Q 3669 2231 3669 1497 
Q 3669 778 3244 343 
Q 2819 -91 2113 -91 
Q 1303 -91 875 529 
Q 447 1150 447 2328 
Q 447 3434 972 4092 
Q 1497 4750 2381 4750 
Q 2619 4750 2861 4703 
Q 3103 4656 3366 4563 
z
" transform="scale(0.015625)"/>
       </defs>
       <use xlink:href="#DejaVuSans-36"/>
      </g>
     </g>
    </g>
    <g id="xtick_5">
     <g id="line2d_13">
      <path d="M 100.9152 298.944 
L 100.9152 27.648 
" clip-path="url(#p30d03e6846)" style="fill: none; stroke: #b0b0b0; stroke-width: 0.8; stroke-linecap: square"/>
     </g>
     <g id="line2d_14">
      <defs>
       <path id="m20e884584d" d="M 0 0 
L 0 2 
" style="stroke: #000000; stroke-width: 0.6"/>
      </defs>
      <g>
       <use xlink:href="#m20e884584d" x="100.9152" y="298.944" style="stroke: #000000; stroke-width: 0.6"/>
      </g>
     </g>
    </g>
    <g id="xtick_6">
     <g id="line2d_15">
      <path d="M 187.5456 298.944 
L 187.5456 27.648 
" clip-path="url(#p30d03e6846)" style="fill: none; stroke: #b0b0b0; stroke-width: 0.8; stroke-linecap: square"/>
     </g>
     <g id="line2d_16">
      <g>
       <use xlink:href="#m20e884584d" x="187.5456" y="298.944" style="stroke: #000000; stroke-width: 0.6"/>
      </g>
     </g>
    </g>
    <g id="xtick_7">
     <g id="line2d_17">
      <path d="M 274.176 298.944 
L 274.176 27.648 
" clip-path="url(#p30d03e6846)" style="fill: none; stroke: #b0b0b0; stroke-width: 0.8; stroke-linecap: square"/>
     </g>
     <g id="line2d_18">
      <g>
       <use xlink:href="#m20e884584d" x="274.176" y="298.944" style="stroke: #000000; stroke-width: 0.6"/>
      </g>
     </g>
    </g>
    <g id="xtick_8">
     <g id="line2d_19">
      <path d="M 360.8064 298.944 
L 360.8064 27.648 
" clip-path="url(#p30d03e6846)" style="fill: none; stroke: #b0b0b0; stroke-width: 0.8; stroke-linecap: square"/>
     </g>
     <g id="line2d_20">
      <g>
       <use xlink:href="#m20e884584d" x="360.8064" y="298.944" style="stroke: #000000; stroke-width: 0.6"/>
      </g>
     </g>
    </g>
    <g id="text_5">
     <!-- log10(# f-evals / dimension) -->
     <g transform="translate(88.823278 339.314156)scale(0.17 -0.17)">
      <defs>
       <path id="DejaVuSans-6c" d="M 603 4863 
L 1178 4863 
L 1178 0 
L 603 0 
L 603 4863 
z
" transform="scale(0.015625)"/>
       <path id="DejaVuSans-6f" d="M 1959 3097 
Q 1497 3097 1228 2736 
Q 959 2375 959 1747 
Q 959 1119 1226 758 
Q 1494 397 1959 397 
Q 2419 397 2687 759 
Q 2956 1122 2956 1747 
Q 2956 2369 2687 2733 
Q 2419 3097 1959 3097 
z
M 1959 3584 
Q 2709 3584 3137 3096 
Q 3566 2609 3566 1747 
Q 3566 888 3137 398 
Q 2709 -91 1959 -91 
Q 1206 -91 779 398 
Q 353 888 353 1747 
Q 353 2609 779 3096 
Q 1206 3584 1959 3584 
z
" transform="scale(0.015625)"/>
       <path id="DejaVuSans-67" d="M 2906 1791 
Q 2906 2416 2648 2759 
Q 2391 3103 1925 3103 
Q 1463 3103 1205 2759 
Q 947 2416 947 1791 
Q 947 1169 1205 825 
Q 1463 481 1925 481 
Q 2391 481 2648 825 
Q 2906 1169 2906 1791 
z
M 3481 434 
Q 3481 -459 3084 -895 
Q 2688 -1331 1869 -1331 
Q 1566 -1331 1297 -1286 
Q 1028 -1241 775 -1147 
L 775 -588 
Q 1028 -725 1275 -790 
Q 1522 -856 1778 -856 
Q 2344 -856 2625 -561 
Q 2906 -266 2906 331 
L 2906 616 
Q 2728 306 2450 153 
Q 2172 0 1784 0 
Q 1141 0 747 490 
Q 353 981 353 1791 
Q 353 2603 747 3093 
Q 1141 3584 1784 3584 
Q 2172 3584 2450 3431 
Q 2728 3278 2906 2969 
L 2906 3500 
L 3481 3500 
L 3481 434 
z
" transform="scale(0.015625)"/>
       <path id="DejaVuSans-31" d="M 794 531 
L 1825 531 
L 1825 4091 
L 703 3866 
L 703 4441 
L 1819 4666 
L 2450 4666 
L 2450 531 
L 3481 531 
L 3481 0 
L 794 0 
L 794 531 
z
" transform="scale(0.015625)"/>
       <path id="DejaVuSans-28" d="M 1984 4856 
Q 1566 4138 1362 3434 
Q 1159 2731 1159 2009 
Q 1159 1288 1364 580 
Q 1569 -128 1984 -844 
L 1484 -844 
Q 1016 -109 783 600 
Q 550 1309 550 2009 
Q 550 2706 781 3412 
Q 1013 4119 1484 4856 
L 1984 4856 
z
" transform="scale(0.015625)"/>
       <path id="DejaVuSans-23" d="M 3272 2816 
L 2363 2816 
L 2100 1772 
L 3016 1772 
L 3272 2816 
z
M 2803 4594 
L 2478 3297 
L 3391 3297 
L 3719 4594 
L 4219 4594 
L 3897 3297 
L 4872 3297 
L 4872 2816 
L 3775 2816 
L 3519 1772 
L 4513 1772 
L 4513 1294 
L 3397 1294 
L 3072 0 
L 2572 0 
L 2894 1294 
L 1978 1294 
L 1656 0 
L 1153 0 
L 1478 1294 
L 494 1294 
L 494 1772 
L 1594 1772 
L 1856 2816 
L 850 2816 
L 850 3297 
L 1978 3297 
L 2297 4594 
L 2803 4594 
z
" transform="scale(0.015625)"/>
       <path id="DejaVuSans-20" transform="scale(0.015625)"/>
       <path id="DejaVuSans-66" d="M 2375 4863 
L 2375 4384 
L 1825 4384 
Q 1516 4384 1395 4259 
Q 1275 4134 1275 3809 
L 1275 3500 
L 2222 3500 
L 2222 3053 
L 1275 3053 
L 1275 0 
L 697 0 
L 697 3053 
L 147 3053 
L 147 3500 
L 697 3500 
L 697 3744 
Q 697 4328 969 4595 
Q 1241 4863 1831 4863 
L 2375 4863 
z
" transform="scale(0.015625)"/>
       <path id="DejaVuSans-2d" d="M 313 2009 
L 1997 2009 
L 1997 1497 
L 313 1497 
L 313 2009 
z
" transform="scale(0.015625)"/>
       <path id="DejaVuSans-65" d="M 3597 1894 
L 3597 1613 
L 953 1613 
Q 991 1019 1311 708 
Q 1631 397 2203 397 
Q 2534 397 2845 478 
Q 3156 559 3463 722 
L 3463 178 
Q 3153 47 2828 -22 
Q 2503 -91 2169 -91 
Q 1331 -91 842 396 
Q 353 884 353 1716 
Q 353 2575 817 3079 
Q 1281 3584 2069 3584 
Q 2775 3584 3186 3129 
Q 3597 2675 3597 1894 
z
M 3022 2063 
Q 3016 2534 2758 2815 
Q 2500 3097 2075 3097 
Q 1594 3097 1305 2825 
Q 1016 2553 972 2059 
L 3022 2063 
z
" transform="scale(0.015625)"/>
       <path id="DejaVuSans-76" d="M 191 3500 
L 800 3500 
L 1894 563 
L 2988 3500 
L 3597 3500 
L 2284 0 
L 1503 0 
L 191 3500 
z
" transform="scale(0.015625)"/>
       <path id="DejaVuSans-61" d="M 2194 1759 
Q 1497 1759 1228 1600 
Q 959 1441 959 1056 
Q 959 750 1161 570 
Q 1363 391 1709 391 
Q 2188 391 2477 730 
Q 2766 1069 2766 1631 
L 2766 1759 
L 2194 1759 
z
M 3341 1997 
L 3341 0 
L 2766 0 
L 2766 531 
Q 2569 213 2275 61 
Q 1981 -91 1556 -91 
Q 1019 -91 701 211 
Q 384 513 384 1019 
Q 384 1609 779 1909 
Q 1175 2209 1959 2209 
L 2766 2209 
L 2766 2266 
Q 2766 2663 2505 2880 
Q 2244 3097 1772 3097 
Q 1472 3097 1187 3025 
Q 903 2953 641 2809 
L 641 3341 
Q 956 3463 1253 3523 
Q 1550 3584 1831 3584 
Q 2591 3584 2966 3190 
Q 3341 2797 3341 1997 
z
" transform="scale(0.015625)"/>
       <path id="DejaVuSans-73" d="M 2834 3397 
L 2834 2853 
Q 2591 2978 2328 3040 
Q 2066 3103 1784 3103 
Q 1356 3103 1142 2972 
Q 928 2841 928 2578 
Q 928 2378 1081 2264 
Q 1234 2150 1697 2047 
L 1894 2003 
Q 2506 1872 2764 1633 
Q 3022 1394 3022 966 
Q 3022 478 2636 193 
Q 2250 -91 1575 -91 
Q 1294 -91 989 -36 
Q 684 19 347 128 
L 347 722 
Q 666 556 975 473 
Q 1284 391 1588 391 
Q 1994 391 2212 530 
Q 2431 669 2431 922 
Q 2431 1156 2273 1281 
Q 2116 1406 1581 1522 
L 1381 1569 
Q 847 1681 609 1914 
Q 372 2147 372 2553 
Q 372 3047 722 3315 
Q 1072 3584 1716 3584 
Q 2034 3584 2315 3537 
Q 2597 3491 2834 3397 
z
" transform="scale(0.015625)"/>
       <path id="DejaVuSans-2f" d="M 1625 4666 
L 2156 4666 
L 531 -594 
L 0 -594 
L 1625 4666 
z
" transform="scale(0.015625)"/>
       <path id="DejaVuSans-64" d="M 2906 2969 
L 2906 4863 
L 3481 4863 
L 3481 0 
L 2906 0 
L 2906 525 
Q 2725 213 2448 61 
Q 2172 -91 1784 -91 
Q 1150 -91 751 415 
Q 353 922 353 1747 
Q 353 2572 751 3078 
Q 1150 3584 1784 3584 
Q 2172 3584 2448 3432 
Q 2725 3281 2906 2969 
z
M 947 1747 
Q 947 1113 1208 752 
Q 1469 391 1925 391 
Q 2381 391 2643 752 
Q 2906 1113 2906 1747 
Q 2906 2381 2643 2742 
Q 2381 3103 1925 3103 
Q 1469 3103 1208 2742 
Q 947 2381 947 1747 
z
" transform="scale(0.015625)"/>
       <path id="DejaVuSans-69" d="M 603 3500 
L 1178 3500 
L 1178 0 
L 603 0 
L 603 3500 
z
M 603 4863 
L 1178 4863 
L 1178 4134 
L 603 4134 
L 603 4863 
z
" transform="scale(0.015625)"/>
       <path id="DejaVuSans-6d" d="M 3328 2828 
Q 3544 3216 3844 3400 
Q 4144 3584 4550 3584 
Q 5097 3584 5394 3201 
Q 5691 2819 5691 2113 
L 5691 0 
L 5113 0 
L 5113 2094 
Q 5113 2597 4934 2840 
Q 4756 3084 4391 3084 
Q 3944 3084 3684 2787 
Q 3425 2491 3425 1978 
L 3425 0 
L 2847 0 
L 2847 2094 
Q 2847 2600 2669 2842 
Q 2491 3084 2119 3084 
Q 1678 3084 1418 2786 
Q 1159 2488 1159 1978 
L 1159 0 
L 581 0 
L 581 3500 
L 1159 3500 
L 1159 2956 
Q 1356 3278 1631 3431 
Q 1906 3584 2284 3584 
Q 2666 3584 2933 3390 
Q 3200 3197 3328 2828 
z
" transform="scale(0.015625)"/>
       <path id="DejaVuSans-6e" d="M 3513 2113 
L 3513 0 
L 2938 0 
L 2938 2094 
Q 2938 2591 2744 2837 
Q 2550 3084 2163 3084 
Q 1697 3084 1428 2787 
Q 1159 2491 1159 1978 
L 1159 0 
L 581 0 
L 581 3500 
L 1159 3500 
L 1159 2956 
Q 1366 3272 1645 3428 
Q 1925 3584 2291 3584 
Q 2894 3584 3203 3211 
Q 3513 2838 3513 2113 
z
" transform="scale(0.015625)"/>
       <path id="DejaVuSans-29" d="M 513 4856 
L 1013 4856 
Q 1481 4119 1714 3412 
Q 1947 2706 1947 2009 
Q 1947 1309 1714 600 
Q 1481 -109 1013 -844 
L 513 -844 
Q 928 -128 1133 580 
Q 1338 1288 1338 2009 
Q 1338 2731 1133 3434 
Q 928 4138 513 4856 
z
" transform="scale(0.015625)"/>
      </defs>
      <use xlink:href="#DejaVuSans-6c"/>
      <use xlink:href="#DejaVuSans-6f" x="27.783203"/>
      <use xlink:href="#DejaVuSans-67" x="88.964844"/>
      <use xlink:href="#DejaVuSans-31" x="152.441406"/>
      <use xlink:href="#DejaVuSans-30" x="216.064453"/>
      <use xlink:href="#DejaVuSans-28" x="279.6875"/>
      <use xlink:href="#DejaVuSans-23" x="318.701172"/>
      <use xlink:href="#DejaVuSans-20" x="402.490234"/>
      <use xlink:href="#DejaVuSans-66" x="434.277344"/>
      <use xlink:href="#DejaVuSans-2d" x="463.982422"/>
      <use xlink:href="#DejaVuSans-65" x="500.066406"/>
      <use xlink:href="#DejaVuSans-76" x="561.589844"/>
      <use xlink:href="#DejaVuSans-61" x="620.769531"/>
      <use xlink:href="#DejaVuSans-6c" x="682.048828"/>
      <use xlink:href="#DejaVuSans-73" x="709.832031"/>
      <use xlink:href="#DejaVuSans-20" x="761.931641"/>
      <use xlink:href="#DejaVuSans-2f" x="793.71875"/>
      <use xlink:href="#DejaVuSans-20" x="827.410156"/>
      <use xlink:href="#DejaVuSans-64" x="859.197266"/>
      <use xlink:href="#DejaVuSans-69" x="922.673828"/>
      <use xlink:href="#DejaVuSans-6d" x="950.457031"/>
      <use xlink:href="#DejaVuSans-65" x="1047.869141"/>
      <use xlink:href="#DejaVuSans-6e" x="1109.392578"/>
      <use xlink:href="#DejaVuSans-73" x="1172.771484"/>
      <use xlink:href="#DejaVuSans-69" x="1224.871094"/>
      <use xlink:href="#DejaVuSans-6f" x="1252.654297"/>
      <use xlink:href="#DejaVuSans-6e" x="1313.835938"/>
      <use xlink:href="#DejaVuSans-29" x="1377.214844"/>
     </g>
    </g>
   </g>
   <g id="matplotlib.axis_2">
    <g id="ytick_1">
     <g id="line2d_21">
      <path d="M 57.6 298.944 
L 360.8064 298.944 
" clip-path="url(#p30d03e6846)" style="fill: none; stroke: #b0b0b0; stroke-width: 0.8; stroke-linecap: square"/>
     </g>
     <g id="line2d_22">
      <defs>
       <path id="m8f918430c2" d="M 0 0 
L -3.5 0 
" style="stroke: #000000; stroke-width: 0.8"/>
      </defs>
      <g>
       <use xlink:href="#m8f918430c2" x="57.6" y="298.944" style="stroke: #000000; stroke-width: 0.8"/>
      </g>
     </g>
     <g id="text_6">
      <!-- 0.0 -->
      <g transform="translate(25.155 305.02275)scale(0.16 -0.16)">
       <defs>
        <path id="DejaVuSans-2e" d="M 684 794 
L 1344 794 
L 1344 0 
L 684 0 
L 684 794 
z
" transform="scale(0.015625)"/>
       </defs>
       <use xlink:href="#DejaVuSans-30"/>
       <use xlink:href="#DejaVuSans-2e" x="63.623047"/>
       <use xlink:href="#DejaVuSans-30" x="95.410156"/>
      </g>
     </g>
    </g>
    <g id="ytick_2">
     <g id="line2d_23">
      <path d="M 57.6 244.6848 
L 360.8064 244.6848 
" clip-path="url(#p30d03e6846)" style="fill: none; stroke: #b0b0b0; stroke-width: 0.8; stroke-linecap: square"/>
     </g>
     <g id="line2d_24">
      <g>
       <use xlink:href="#m8f918430c2" x="57.6" y="244.6848" style="stroke: #000000; stroke-width: 0.8"/>
      </g>
     </g>
     <g id="text_7">
      <!-- 0.2 -->
      <g transform="translate(25.155 250.76355)scale(0.16 -0.16)">
       <use xlink:href="#DejaVuSans-30"/>
       <use xlink:href="#DejaVuSans-2e" x="63.623047"/>
       <use xlink:href="#DejaVuSans-32" x="95.410156"/>
      </g>
     </g>
    </g>
    <g id="ytick_3">
     <g id="line2d_25">
      <path d="M 57.6 190.4256 
L 360.8064 190.4256 
" clip-path="url(#p30d03e6846)" style="fill: none; stroke: #b0b0b0; stroke-width: 0.8; stroke-linecap: square"/>
     </g>
     <g id="line2d_26">
      <g>
       <use xlink:href="#m8f918430c2" x="57.6" y="190.4256" style="stroke: #000000; stroke-width: 0.8"/>
      </g>
     </g>
     <g id="text_8">
      <!-- 0.4 -->
      <g transform="translate(25.155 196.50435)scale(0.16 -0.16)">
       <use xlink:href="#DejaVuSans-30"/>
       <use xlink:href="#DejaVuSans-2e" x="63.623047"/>
       <use xlink:href="#DejaVuSans-34" x="95.410156"/>
      </g>
     </g>
    </g>
    <g id="ytick_4">
     <g id="line2d_27">
      <path d="M 57.6 136.1664 
L 360.8064 136.1664 
" clip-path="url(#p30d03e6846)" style="fill: none; stroke: #b0b0b0; stroke-width: 0.8; stroke-linecap: square"/>
     </g>
     <g id="line2d_28">
      <g>
       <use xlink:href="#m8f918430c2" x="57.6" y="136.1664" style="stroke: #000000; stroke-width: 0.8"/>
      </g>
     </g>
     <g id="text_9">
      <!-- 0.6 -->
      <g transform="translate(25.155 142.24515)scale(0.16 -0.16)">
       <use xlink:href="#DejaVuSans-30"/>
       <use xlink:href="#DejaVuSans-2e" x="63.623047"/>
       <use xlink:href="#DejaVuSans-36" x="95.410156"/>
      </g>
     </g>
    </g>
    <g id="ytick_5">
     <g id="line2d_29">
      <path d="M 57.6 81.9072 
L 360.8064 81.9072 
" clip-path="url(#p30d03e6846)" style="fill: none; stroke: #b0b0b0; stroke-width: 0.8; stroke-linecap: square"/>
     </g>
     <g id="line2d_30">
      <g>
       <use xlink:href="#m8f918430c2" x="57.6" y="81.9072" style="stroke: #000000; stroke-width: 0.8"/>
      </g>
     </g>
     <g id="text_10">
      <!-- 0.8 -->
      <g transform="translate(25.155 87.98595)scale(0.16 -0.16)">
       <defs>
        <path id="DejaVuSans-38" d="M 2034 2216 
Q 1584 2216 1326 1975 
Q 1069 1734 1069 1313 
Q 1069 891 1326 650 
Q 1584 409 2034 409 
Q 2484 409 2743 651 
Q 3003 894 3003 1313 
Q 3003 1734 2745 1975 
Q 2488 2216 2034 2216 
z
M 1403 2484 
Q 997 2584 770 2862 
Q 544 3141 544 3541 
Q 544 4100 942 4425 
Q 1341 4750 2034 4750 
Q 2731 4750 3128 4425 
Q 3525 4100 3525 3541 
Q 3525 3141 3298 2862 
Q 3072 2584 2669 2484 
Q 3125 2378 3379 2068 
Q 3634 1759 3634 1313 
Q 3634 634 3220 271 
Q 2806 -91 2034 -91 
Q 1263 -91 848 271 
Q 434 634 434 1313 
Q 434 1759 690 2068 
Q 947 2378 1403 2484 
z
M 1172 3481 
Q 1172 3119 1398 2916 
Q 1625 2713 2034 2713 
Q 2441 2713 2670 2916 
Q 2900 3119 2900 3481 
Q 2900 3844 2670 4047 
Q 2441 4250 2034 4250 
Q 1625 4250 1398 4047 
Q 1172 3844 1172 3481 
z
" transform="scale(0.015625)"/>
       </defs>
       <use xlink:href="#DejaVuSans-30"/>
       <use xlink:href="#DejaVuSans-2e" x="63.623047"/>
       <use xlink:href="#DejaVuSans-38" x="95.410156"/>
      </g>
     </g>
    </g>
    <g id="ytick_6">
     <g id="line2d_31">
      <path d="M 57.6 27.648 
L 360.8064 27.648 
" clip-path="url(#p30d03e6846)" style="fill: none; stroke: #b0b0b0; stroke-width: 0.8; stroke-linecap: square"/>
     </g>
     <g id="line2d_32">
      <g>
       <use xlink:href="#m8f918430c2" x="57.6" y="27.648" style="stroke: #000000; stroke-width: 0.8"/>
      </g>
     </g>
     <g id="text_11">
      <!-- 1.0 -->
      <g transform="translate(25.155 33.72675)scale(0.16 -0.16)">
       <use xlink:href="#DejaVuSans-31"/>
       <use xlink:href="#DejaVuSans-2e" x="63.623047"/>
       <use xlink:href="#DejaVuSans-30" x="95.410156"/>
      </g>
     </g>
    </g>
    <g id="text_12">
     <!-- Fraction of function,target pairs -->
     <g transform="translate(17.619531 297.681)rotate(-90)scale(0.17 -0.17)">
      <defs>
       <path id="DejaVuSans-46" d="M 628 4666 
L 3309 4666 
L 3309 4134 
L 1259 4134 
L 1259 2759 
L 3109 2759 
L 3109 2228 
L 1259 2228 
L 1259 0 
L 628 0 
L 628 4666 
z
" transform="scale(0.015625)"/>
       <path id="DejaVuSans-72" d="M 2631 2963 
Q 2534 3019 2420 3045 
Q 2306 3072 2169 3072 
Q 1681 3072 1420 2755 
Q 1159 2438 1159 1844 
L 1159 0 
L 581 0 
L 581 3500 
L 1159 3500 
L 1159 2956 
Q 1341 3275 1631 3429 
Q 1922 3584 2338 3584 
Q 2397 3584 2469 3576 
Q 2541 3569 2628 3553 
L 2631 2963 
z
" transform="scale(0.015625)"/>
       <path id="DejaVuSans-63" d="M 3122 3366 
L 3122 2828 
Q 2878 2963 2633 3030 
Q 2388 3097 2138 3097 
Q 1578 3097 1268 2742 
Q 959 2388 959 1747 
Q 959 1106 1268 751 
Q 1578 397 2138 397 
Q 2388 397 2633 464 
Q 2878 531 3122 666 
L 3122 134 
Q 2881 22 2623 -34 
Q 2366 -91 2075 -91 
Q 1284 -91 818 406 
Q 353 903 353 1747 
Q 353 2603 823 3093 
Q 1294 3584 2113 3584 
Q 2378 3584 2631 3529 
Q 2884 3475 3122 3366 
z
" transform="scale(0.015625)"/>
       <path id="DejaVuSans-74" d="M 1172 4494 
L 1172 3500 
L 2356 3500 
L 2356 3053 
L 1172 3053 
L 1172 1153 
Q 1172 725 1289 603 
Q 1406 481 1766 481 
L 2356 481 
L 2356 0 
L 1766 0 
Q 1100 0 847 248 
Q 594 497 594 1153 
L 594 3053 
L 172 3053 
L 172 3500 
L 594 3500 
L 594 4494 
L 1172 4494 
z
" transform="scale(0.015625)"/>
       <path id="DejaVuSans-75" d="M 544 1381 
L 544 3500 
L 1119 3500 
L 1119 1403 
Q 1119 906 1312 657 
Q 1506 409 1894 409 
Q 2359 409 2629 706 
Q 2900 1003 2900 1516 
L 2900 3500 
L 3475 3500 
L 3475 0 
L 2900 0 
L 2900 538 
Q 2691 219 2414 64 
Q 2138 -91 1772 -91 
Q 1169 -91 856 284 
Q 544 659 544 1381 
z
M 1991 3584 
L 1991 3584 
z
" transform="scale(0.015625)"/>
       <path id="DejaVuSans-2c" d="M 750 794 
L 1409 794 
L 1409 256 
L 897 -744 
L 494 -744 
L 750 256 
L 750 794 
z
" transform="scale(0.015625)"/>
       <path id="DejaVuSans-70" d="M 1159 525 
L 1159 -1331 
L 581 -1331 
L 581 3500 
L 1159 3500 
L 1159 2969 
Q 1341 3281 1617 3432 
Q 1894 3584 2278 3584 
Q 2916 3584 3314 3078 
Q 3713 2572 3713 1747 
Q 3713 922 3314 415 
Q 2916 -91 2278 -91 
Q 1894 -91 1617 61 
Q 1341 213 1159 525 
z
M 3116 1747 
Q 3116 2381 2855 2742 
Q 2594 3103 2138 3103 
Q 1681 3103 1420 2742 
Q 1159 2381 1159 1747 
Q 1159 1113 1420 752 
Q 1681 391 2138 391 
Q 2594 391 2855 752 
Q 3116 1113 3116 1747 
z
" transform="scale(0.015625)"/>
      </defs>
      <use xlink:href="#DejaVuSans-46"/>
      <use xlink:href="#DejaVuSans-72" x="50.269531"/>
      <use xlink:href="#DejaVuSans-61" x="91.382812"/>
      <use xlink:href="#DejaVuSans-63" x="152.662109"/>
      <use xlink:href="#DejaVuSans-74" x="207.642578"/>
      <use xlink:href="#DejaVuSans-69" x="246.851562"/>
      <use xlink:href="#DejaVuSans-6f" x="274.634766"/>
      <use xlink:href="#DejaVuSans-6e" x="335.816406"/>
      <use xlink:href="#DejaVuSans-20" x="399.195312"/>
      <use xlink:href="#DejaVuSans-6f" x="430.982422"/>
      <use xlink:href="#DejaVuSans-66" x="492.164062"/>
      <use xlink:href="#DejaVuSans-20" x="527.369141"/>
      <use xlink:href="#DejaVuSans-66" x="559.15625"/>
      <use xlink:href="#DejaVuSans-75" x="594.361328"/>
      <use xlink:href="#DejaVuSans-6e" x="657.740234"/>
      <use xlink:href="#DejaVuSans-63" x="721.119141"/>
      <use xlink:href="#DejaVuSans-74" x="776.099609"/>
      <use xlink:href="#DejaVuSans-69" x="815.308594"/>
      <use xlink:href="#DejaVuSans-6f" x="843.091797"/>
      <use xlink:href="#DejaVuSans-6e" x="904.273438"/>
      <use xlink:href="#DejaVuSans-2c" x="967.652344"/>
      <use xlink:href="#DejaVuSans-74" x="999.439453"/>
      <use xlink:href="#DejaVuSans-61" x="1038.648438"/>
      <use xlink:href="#DejaVuSans-72" x="1099.927734"/>
      <use xlink:href="#DejaVuSans-67" x="1139.291016"/>
      <use xlink:href="#DejaVuSans-65" x="1202.767578"/>
      <use xlink:href="#DejaVuSans-74" x="1264.291016"/>
      <use xlink:href="#DejaVuSans-20" x="1303.5"/>
      <use xlink:href="#DejaVuSans-70" x="1335.287109"/>
      <use xlink:href="#DejaVuSans-61" x="1398.763672"/>
      <use xlink:href="#DejaVuSans-69" x="1460.042969"/>
      <use xlink:href="#DejaVuSans-72" x="1487.826172"/>
      <use xlink:href="#DejaVuSans-73" x="1528.939453"/>
     </g>
    </g>
   </g>
   <g id="line2d_33">
    <defs>
     <path id="m4c6a1e3f39" d="M 0 1.5 
C 0.397805 1.5 0.77937 1.341951 1.06066 1.06066 
C 1.341951 0.77937 1.5 0.397805 1.5 0 
C 1.5 -0.397805 1.341951 -0.77937 1.06066 -1.06066 
C 0.77937 -1.341951 0.397805 -1.5 0 -1.5 
C -0.397805 -1.5 -0.77937 -1.341951 -1.06066 -1.06066 
C -1.341951 -0.77937 -1.5 -0.397805 -1.5 0 
C -1.5 0.397805 -1.341951 0.77937 -1.06066 1.06066 
C -0.77937 1.341951 -0.397805 1.5 0 1.5 
z
" style="stroke: #f5deb3"/>
    </defs>
    <g>
     <use xlink:href="#m4c6a1e3f39" x="177.597677" y="27.648" style="fill: #f5deb3; stroke: #f5deb3"/>
     <use xlink:href="#m4c6a1e3f39" x="177.597677" y="27.648" style="fill: #f5deb3; stroke: #f5deb3"/>
    </g>
   </g>
   <g id="line2d_34">
    <defs>
     <path id="m0218d2e7a1" d="M 0 1.5 
C 0.397805 1.5 0.77937 1.341951 1.06066 1.06066 
C 1.341951 0.77937 1.5 0.397805 1.5 0 
C 1.5 -0.397805 1.341951 -0.77937 1.06066 -1.06066 
C 0.77937 -1.341951 0.397805 -1.5 0 -1.5 
C -0.397805 -1.5 -0.77937 -1.341951 -1.06066 -1.06066 
C -1.341951 -0.77937 -1.5 -0.397805 -1.5 0 
C -1.5 0.397805 -1.341951 0.77937 -1.06066 1.06066 
C -0.77937 1.341951 -0.397805 1.5 0 1.5 
z
" style="stroke: #000080"/>
    </defs>
    <g>
     <use xlink:href="#m0218d2e7a1" x="252.957442" y="27.648" style="fill: #000080; stroke: #000080"/>
     <use xlink:href="#m0218d2e7a1" x="252.957442" y="27.648" style="fill: #000080; stroke: #000080"/>
    </g>
   </g>
   <g id="line2d_35">
    <path d="M 34.951403 298.944 
L 34.951403 298.731219 
L 44.560826 298.731219 
L 44.560826 298.518438 
L 71.556993 298.518438 
L 71.556993 298.305656 
L 78.266603 298.234729 
L 78.266603 298.021948 
L 80.621116 298.021948 
L 80.621116 297.596386 
L 82.211771 297.596386 
L 82.211771 297.383605 
L 84.596168 297.383605 
L 84.596168 297.099896 
L 85.471281 297.099896 
L 85.471281 296.887115 
L 85.894031 296.887115 
L 85.894031 296.674334 
L 87.495981 296.674334 
L 87.495981 296.461553 
L 87.876026 296.461553 
L 87.876026 296.035991 
L 89.323782 295.965064 
L 89.323782 295.752282 
L 90.989609 295.681355 
L 90.989609 295.468574 
L 92.811505 295.468574 
L 92.811505 295.043012 
L 93.381595 295.043012 
L 93.381595 294.830231 
L 96.95121 294.759304 
L 96.95121 294.546522 
L 97.18203 294.546522 
L 97.18203 293.695398 
L 97.410051 293.695398 
L 97.410051 293.482616 
L 98.077987 293.411689 
L 98.077987 293.198908 
L 98.510456 293.198908 
L 98.510456 293.057054 
L 98.933205 293.057054 
L 98.933205 292.844273 
L 99.346662 292.773346 
L 99.346662 292.560565 
L 99.550033 292.560565 
L 99.550033 291.922221 
L 99.751228 291.922221 
L 99.751228 291.70944 
L 99.950294 291.70944 
L 99.950294 290.858315 
L 101.471247 290.858315 
L 101.471247 290.361826 
L 102.187964 290.290899 
L 102.187964 290.219972 
L 103.047088 290.219972 
L 103.047088 290.007191 
L 103.380045 290.007191 
L 103.380045 289.581628 
L 103.707211 289.510701 
L 103.707211 289.085139 
L 104.187532 289.085139 
L 104.187532 288.872358 
L 104.655893 288.872358 
L 104.655893 288.659576 
L 104.961779 288.588649 
L 104.961779 288.446795 
L 105.26277 288.446795 
L 105.26277 288.021233 
L 106.279859 288.021233 
L 106.279859 287.808452 
L 106.699465 287.737525 
L 106.699465 287.524744 
L 106.974091 287.524744 
L 106.974091 287.311962 
L 107.109915 287.311962 
L 107.109915 286.8864 
L 107.643612 286.8864 
L 107.643612 286.531765 
L 107.904887 286.531765 
L 107.904887 286.318984 
L 108.034177 286.318984 
L 108.034177 286.106202 
L 108.791791 286.035275 
L 108.791791 285.822494 
L 109.756698 285.751567 
L 109.756698 285.396932 
L 110.221204 285.396932 
L 110.221204 285.184151 
L 110.562208 285.113224 
L 110.562208 284.900442 
L 110.786158 284.900442 
L 110.786158 284.687661 
L 111.226215 284.687661 
L 111.226215 284.47488 
L 111.86758 284.403953 
L 111.86758 284.191172 
L 112.076599 284.191172 
L 112.076599 283.978391 
L 112.385837 283.978391 
L 112.385837 283.765609 
L 112.589207 283.765609 
L 112.589207 283.552828 
L 112.890198 283.481901 
L 112.989468 283.198193 
L 113.381389 283.198193 
L 113.381389 282.488922 
L 113.57433 282.488922 
L 113.57433 282.347068 
L 113.860081 282.347068 
L 113.954374 281.992433 
L 114.048198 281.992433 
L 114.141556 281.283162 
L 114.234452 281.283162 
L 114.326893 280.999454 
L 114.692177 280.928527 
L 114.692177 280.8576 
L 115.050503 280.786673 
L 115.050503 280.573892 
L 115.314838 280.573892 
L 115.314838 280.219256 
L 115.747307 280.219256 
L 115.83262 279.793694 
L 116.002095 279.722767 
L 116.002095 279.580913 
L 116.665126 279.580913 
L 116.746385 279.155351 
L 116.907859 279.084424 
L 116.988079 278.729788 
L 117.067958 278.729788 
L 117.067958 278.375153 
L 117.695068 278.375153 
L 117.695068 278.162372 
L 118.076654 278.162372 
L 118.152051 277.736809 
L 118.227147 277.736809 
L 118.227147 277.524028 
L 118.450653 277.524028 
L 118.450653 277.311247 
L 118.598196 277.311247 
L 118.598196 276.885685 
L 119.034004 276.814758 
L 119.105667 276.389195 
L 119.24818 276.389195 
L 119.24818 276.105487 
L 119.389621 276.105487 
L 119.459944 275.821779 
L 119.876453 275.821779 
L 119.944983 275.254362 
L 120.0813 275.254362 
L 120.0813 275.112508 
L 120.28394 275.112508 
L 120.28394 274.970654 
L 120.41783 274.970654 
L 120.41783 274.686946 
L 120.813877 274.616019 
L 120.879082 274.474165 
L 121.137664 274.403238 
L 121.201758 274.119529 
L 121.265635 274.119529 
L 121.329295 273.62304 
L 121.768984 273.552113 
L 121.830966 272.771915 
L 122.076872 272.771915 
L 122.076872 272.346353 
L 122.439807 272.275426 
L 122.439807 272.062645 
L 122.559246 272.062645 
L 122.618682 271.849864 
L 122.677931 271.849864 
L 122.677931 271.637082 
L 122.854567 271.637082 
L 122.854567 271.566155 
L 122.913079 271.424301 
L 123.08753 271.353374 
L 123.08753 271.069666 
L 123.374735 270.998739 
L 123.374735 270.785958 
L 123.657621 270.715031 
L 123.657621 270.644104 
L 123.825333 270.644104 
L 123.936316 270.147614 
L 124.481616 270.147614 
L 124.588805 269.651125 
L 124.854134 269.580198 
L 124.906754 269.438344 
L 125.063736 269.438344 
L 125.167667 268.516292 
L 125.425011 268.445365 
L 125.425011 268.374438 
L 125.678882 268.374438 
L 125.779479 267.877948 
L 125.879541 267.807021 
L 125.929373 267.310532 
L 126.078082 267.310532 
L 126.176572 266.743115 
L 126.372018 266.672188 
L 126.372018 266.246626 
L 126.517282 266.246626 
L 126.517282 266.033845 
L 126.661432 266.033845 
L 126.709238 265.750136 
L 126.899255 265.679209 
L 126.899255 265.324574 
L 127.040519 265.324574 
L 127.134109 264.757158 
L 127.227236 264.686231 
L 127.227236 264.615304 
L 127.412117 264.615304 
L 127.503881 264.402522 
L 127.549596 264.402522 
L 127.640693 263.906033 
L 127.686077 263.906033 
L 127.686077 263.764179 
L 127.866525 263.764179 
L 127.866525 263.551398 
L 128.000734 263.551398 
L 128.089678 262.700273 
L 128.178203 262.700273 
L 128.266313 262.345638 
L 128.354013 262.274711 
L 128.354013 262.203784 
L 128.484801 262.203784 
L 128.57149 261.920075 
L 128.914307 261.920075 
L 128.999044 261.423586 
L 129.125437 261.423586 
L 129.125437 261.210805 
L 129.292652 261.139878 
L 129.375706 260.35968 
L 129.987186 260.288753 
L 130.027253 259.863191 
L 130.226319 259.792264 
L 130.265881 259.650409 
L 130.344755 259.650409 
L 130.4233 259.012066 
L 130.540507 259.012066 
L 130.540507 258.657431 
L 130.811181 258.586504 
L 130.887807 258.231868 
L 130.926003 258.231868 
L 131.002163 257.167962 
L 131.153565 257.167962 
L 131.153565 257.026108 
L 131.341119 257.026108 
L 131.341119 256.671473 
L 131.63737 256.600546 
L 131.747272 256.316838 
L 131.929028 256.245911 
L 132.037244 256.033129 
L 132.109044 256.033129 
L 132.109044 255.678494 
L 132.322814 255.607567 
L 132.322814 255.53664 
L 132.499119 255.465713 
L 132.604114 255.182005 
L 132.673786 255.182005 
L 132.777813 254.827369 
L 132.812362 254.827369 
L 132.881269 254.189026 
L 132.949924 254.189026 
L 132.984158 253.976245 
L 133.086488 253.976245 
L 133.154399 253.550682 
L 133.222067 253.550682 
L 133.222067 253.12512 
L 133.589949 253.054193 
L 133.656071 252.344922 
L 133.853052 252.344922 
L 133.950775 251.777506 
L 134.015642 251.706579 
L 134.112526 251.210089 
L 134.272898 251.139162 
L 134.336666 250.855454 
L 134.431915 250.784527 
L 134.431915 250.642673 
L 134.620977 250.571746 
L 134.683578 250.004329 
L 134.993495 249.933402 
L 134.993495 249.862475 
L 135.268121 249.791548 
L 135.298389 249.50784 
L 135.418977 249.436913 
L 135.478982 249.295059 
L 135.687504 249.224132 
L 135.776169 249.011351 
L 135.864417 249.011351 
L 135.893741 248.585788 
L 136.010584 248.585788 
L 136.039681 248.089299 
L 136.299553 248.018372 
L 136.356818 247.734664 
L 136.470828 247.734664 
L 136.470828 247.521882 
L 136.612375 247.450955 
L 136.640557 247.09632 
L 136.836659 247.09632 
L 136.836659 246.883539 
L 136.97549 246.812612 
L 136.97549 246.741685 
L 137.113304 246.741685 
L 137.195511 246.245195 
L 137.439996 246.245195 
L 137.439996 246.032414 
L 137.574461 246.032414 
L 137.601239 245.535925 
L 137.866944 245.464998 
L 137.866944 245.394071 
L 138.232735 245.323144 
L 138.258593 245.181289 
L 138.438609 245.110362 
L 138.515235 244.472019 
L 138.616919 244.472019 
L 138.642255 244.259238 
L 138.743257 244.259238 
L 138.743257 244.117384 
L 139.043049 244.046456 
L 139.141927 243.691821 
L 139.459738 243.620894 
L 139.556456 243.124405 
L 139.604629 243.124405 
L 139.604629 242.911624 
L 139.796097 242.840696 
L 139.843661 242.556988 
L 140.126547 242.486061 
L 140.126547 242.27328 
L 140.359078 242.202353 
L 140.359078 242.131426 
L 140.58877 242.131426 
L 140.611586 241.918645 
L 141.239443 241.847718 
L 141.239443 241.422155 
L 141.48048 241.422155 
L 141.48048 241.280301 
L 141.696956 241.280301 
L 141.761416 240.996593 
L 142.101521 240.925666 
L 142.101521 240.712885 
L 142.47693 240.641958 
L 142.47693 240.429176 
L 142.661862 240.429176 
L 142.661862 240.216395 
L 142.925817 240.145468 
L 143.006295 239.86176 
L 143.344534 239.790833 
L 143.344534 239.719906 
L 143.984246 239.719906 
L 143.984246 239.081562 
L 144.098256 239.081562 
L 144.117191 238.797854 
L 144.491935 238.726927 
L 144.491935 238.656 
L 145.816988 238.585073 
L 145.920443 238.372292 
L 151.782431 238.301365 
L 151.845283 237.946729 
L 152.20574 237.946729 
L 152.20574 237.733948 
L 152.727811 237.663021 
L 152.727811 237.592094 
L 153.142309 237.521167 
L 153.142309 237.45024 
L 153.328795 237.379313 
L 153.409804 237.237459 
L 153.88867 237.237459 
L 153.88867 237.024678 
L 154.123607 236.953751 
L 154.123607 236.811896 
L 154.639024 236.740969 
L 154.639024 236.670042 
L 154.928852 236.599115 
L 154.992656 236.315407 
L 155.151225 236.315407 
L 155.151225 236.102626 
L 155.97507 236.031699 
L 156.055505 235.889845 
L 156.245169 235.818918 
L 156.245169 235.747991 
L 156.423104 235.677064 
L 156.452597 235.535209 
L 156.831855 235.464282 
L 156.831855 235.393355 
L 157.156365 235.393355 
L 157.156365 235.251501 
L 157.419468 235.180574 
L 157.475372 235.03872 
L 158.088598 234.967793 
L 158.088598 234.896866 
L 162.66956 234.896866 
L 162.66956 234.684085 
L 163.095289 234.613158 
L 163.095289 234.542231 
L 163.719684 234.542231 
L 163.779668 234.045741 
L 164.440019 233.974814 
L 164.440019 233.903887 
L 165.034451 233.83296 
L 165.034451 233.620179 
L 165.471304 233.549252 
L 165.471304 233.336471 
L 165.713024 233.336471 
L 165.713024 232.910908 
L 165.96353 232.839981 
L 165.96353 232.769054 
L 166.075768 232.769054 
L 166.181484 231.847002 
L 166.552624 231.776075 
L 166.552624 231.705148 
L 166.888401 231.634221 
L 166.888401 231.563294 
L 167.123829 231.492367 
L 167.123829 231.42144 
L 168.699272 231.350513 
L 168.699272 231.137732 
L 169.209704 231.137732 
L 169.314117 230.924951 
L 169.909499 230.854024 
L 169.909499 230.783096 
L 170.745706 230.712169 
L 170.745706 230.641242 
L 171.235523 230.570315 
L 171.235523 230.499388 
L 171.651706 230.499388 
L 171.743437 230.21568 
L 172.293095 230.144753 
L 172.385971 229.790118 
L 172.432238 229.790118 
L 172.516068 229.506409 
L 172.851813 229.435482 
L 172.851813 229.364555 
L 173.890727 229.293628 
L 173.890727 229.080847 
L 176.691985 229.080847 
L 176.788874 228.371576 
L 176.858725 228.300649 
L 176.858725 228.087868 
L 177.122474 228.087868 
L 177.178047 227.733233 
L 177.314646 227.733233 
L 177.314646 227.520452 
L 177.664594 227.449525 
L 177.705899 227.165816 
L 177.791399 227.165816 
L 177.791399 226.953035 
L 178.296396 226.882108 
L 178.296396 226.811181 
L 179.777501 226.740254 
L 179.777501 226.669327 
L 180.606166 226.669327 
L 180.663208 226.314692 
L 181.089573 226.243765 
L 181.14517 225.960056 
L 181.630555 225.889129 
L 181.738447 225.463567 
L 182.131345 225.39264 
L 182.183951 225.108932 
L 182.799165 225.038005 
L 182.910204 224.470588 
L 182.939064 224.399661 
L 182.960679 224.257807 
L 183.116059 224.257807 
L 183.215779 223.477609 
L 183.354976 223.477609 
L 183.460455 222.839266 
L 183.60018 222.839266 
L 183.697374 222.129995 
L 183.833065 222.129995 
L 183.833065 221.988141 
L 185.078761 221.917214 
L 185.078761 221.846287 
L 185.597018 221.77536 
L 185.597018 221.704433 
L 186.550968 221.633506 
L 186.550968 221.207944 
L 186.881245 221.137016 
L 186.947387 220.853308 
L 187.001683 220.853308 
L 187.042302 220.5696 
L 187.991745 220.498673 
L 188.092513 220.144038 
L 188.239941 220.073111 
L 188.342998 213.831529 
L 188.359219 213.831529 
L 188.468793 212.12928 
L 188.502792 212.058353 
L 188.602645 209.150344 
L 188.648826 209.079416 
L 188.71435 208.653854 
L 188.776123 208.582927 
L 188.865773 208.228292 
L 189.010767 208.157365 
L 189.010767 208.086438 
L 189.187435 208.015511 
L 189.237363 207.802729 
L 189.318 207.802729 
L 189.40511 207.589948 
L 189.490123 207.519021 
L 189.501994 207.377167 
L 189.969146 207.30624 
L 190.046713 206.10048 
L 190.081267 206.10048 
L 190.184551 204.89472 
L 190.215589 204.823793 
L 190.280766 204.256376 
L 190.376491 204.185449 
L 190.444339 203.830814 
L 190.676712 203.759887 
L 190.722844 203.547106 
L 191.001982 203.476179 
L 191.064495 203.263398 
L 191.154771 203.192471 
L 191.213683 203.050616 
L 191.627039 202.979689 
L 191.708631 202.554127 
L 191.77936 202.554127 
L 191.873751 201.986711 
L 192.058165 201.915784 
L 192.058165 201.844856 
L 192.253975 201.844856 
L 192.284707 201.490221 
L 192.514332 201.419294 
L 192.544641 201.206513 
L 192.771134 201.135586 
L 192.847922 200.780951 
L 193.225837 200.710024 
L 193.313259 200.568169 
L 193.799768 200.497242 
L 193.863068 200.355388 
L 194.270065 200.284461 
L 194.30687 200.142607 
L 194.568988 200.07168 
L 194.668442 199.787972 
L 195.230629 199.717045 
L 195.230629 199.646118 
L 195.467927 199.575191 
L 195.467927 199.504264 
L 195.966219 199.433336 
L 196.052588 199.291482 
L 196.157614 199.220555 
L 196.173079 199.078701 
L 196.500799 199.007774 
L 196.500799 198.936847 
L 197.2466 198.86592 
L 197.2466 198.794993 
L 197.569544 198.724066 
L 197.569544 198.653139 
L 198.383079 198.582212 
L 198.383079 198.511285 
L 198.507436 198.511285 
L 198.567213 198.298504 
L 198.663297 198.227576 
L 198.71635 198.085722 
L 198.925026 198.014795 
L 198.925026 197.943868 
L 199.12633 197.943868 
L 199.233761 197.305525 
L 199.237803 197.305525 
L 199.34661 196.383473 
L 199.351633 196.383473 
L 199.440804 195.603275 
L 199.610955 195.532348 
L 199.720586 188.368715 
L 199.7324 188.368715 
L 199.83154 185.176998 
L 199.852088 185.176998 
L 199.950601 184.3968 
L 200.068913 184.3968 
L 200.117187 184.042165 
L 200.23446 183.971238 
L 200.339574 183.616602 
L 200.36814 183.545675 
L 200.473458 183.403821 
L 200.577248 183.332894 
L 200.672045 182.056207 
L 200.692631 182.056207 
L 200.797083 181.205082 
L 200.830534 181.134155 
L 200.929608 180.921374 
L 200.977569 180.850447 
L 201.081371 178.013365 
L 201.089614 178.013365 
L 201.189158 176.665751 
L 201.210096 176.594824 
L 201.211915 176.452969 
L 201.365938 176.382042 
L 201.474803 176.098334 
L 201.516025 176.027407 
L 201.606219 175.601845 
L 201.672028 175.530918 
L 201.747336 175.105355 
L 201.85666 175.034428 
L 201.966226 173.54496 
L 201.98457 173.474033 
L 202.093396 172.126419 
L 202.152334 172.055492 
L 202.24298 171.700856 
L 202.268798 171.629929 
L 202.379417 171.417148 
L 202.427236 171.346221 
L 202.526752 171.062513 
L 202.772008 170.991586 
L 202.85639 170.707878 
L 202.905507 170.707878 
L 202.905507 170.636951 
L 202.989293 170.424169 
L 203.041367 170.353242 
L 203.122908 170.069534 
L 203.258844 169.998607 
L 203.258844 169.92768 
L 203.539063 169.856753 
L 203.64008 169.573045 
L 203.652069 169.573045 
L 203.760429 167.870795 
L 203.802489 167.799868 
L 203.910777 159.07584 
L 203.923383 159.004913 
L 204.009038 156.025976 
L 204.065405 155.955049 
L 204.168307 154.749289 
L 204.270649 154.749289 
L 204.361668 154.394654 
L 204.503487 154.323727 
L 204.612381 153.898165 
L 204.619213 153.898165 
L 204.711586 149.855322 
L 204.738003 149.784395 
L 204.847802 148.933271 
L 204.891243 148.862344 
L 204.891243 148.791416 
L 205.052889 148.720489 
L 205.147591 148.507708 
L 205.274833 148.436781 
L 205.370615 147.160094 
L 205.391752 147.160094 
L 205.481143 145.386918 
L 205.510845 145.386918 
L 205.599673 144.323012 
L 205.686649 144.252085 
L 205.786069 144.039304 
L 206.047478 143.968376 
L 206.151313 143.046325 
L 206.193245 143.046325 
L 206.299751 142.549835 
L 206.34828 142.478908 
L 206.391157 142.337054 
L 206.838942 142.266127 
L 206.921057 141.840565 
L 207.126117 141.769638 
L 207.126117 141.698711 
L 207.383434 141.627784 
L 207.425326 141.131294 
L 207.52965 141.060367 
L 207.627578 139.003482 
L 207.648912 138.932555 
L 207.757789 137.726795 
L 207.778976 137.726795 
L 207.886467 137.301233 
L 208.028207 137.230306 
L 208.068689 137.088452 
L 208.221606 137.088452 
L 208.317877 135.386202 
L 208.347783 135.315275 
L 208.443412 134.889713 
L 208.475593 134.889713 
L 208.576727 133.75488 
L 208.65161 133.683953 
L 208.728637 133.471172 
L 208.864193 133.400245 
L 208.966277 132.478193 
L 208.989155 132.407266 
L 209.097147 131.768922 
L 209.122256 131.768922 
L 209.217604 130.846871 
L 209.327252 130.775944 
L 209.327252 130.634089 
L 209.448598 130.634089 
L 209.513075 130.350381 
L 209.566833 130.350381 
L 209.674469 129.995746 
L 209.686648 129.924819 
L 209.791297 129.428329 
L 209.815497 129.357402 
L 209.909123 129.073694 
L 210.001144 129.002767 
L 210.105764 128.719059 
L 210.209805 128.648132 
L 210.314955 128.364424 
L 210.348569 128.364424 
L 210.458515 126.094758 
L 210.494096 126.023831 
L 210.582201 124.179727 
L 210.620307 124.1088 
L 210.637954 123.825092 
L 210.856603 123.754165 
L 210.925125 123.470456 
L 210.996103 123.470456 
L 211.105028 121.271718 
L 211.116315 121.200791 
L 211.224548 120.278739 
L 211.39633 120.207812 
L 211.465555 119.995031 
L 211.529796 119.924104 
L 211.624702 119.072979 
L 211.688924 119.002052 
L 211.751889 118.718344 
L 212.0595 118.647416 
L 212.162455 118.08 
L 212.203074 118.009073 
L 212.286069 117.654438 
L 212.358139 117.583511 
L 212.422917 117.441656 
L 212.649634 117.370729 
L 212.735618 117.157948 
L 213.154915 117.087021 
L 213.262132 116.023115 
L 213.274113 115.952188 
L 213.274113 115.881261 
L 213.540523 115.810334 
L 213.64557 105.809619 
L 213.655432 105.809619 
L 213.755638 104.887567 
L 213.82044 104.81664 
L 213.87899 104.107369 
L 213.96555 104.036442 
L 214.063663 100.986579 
L 214.100381 100.986579 
L 214.207827 100.206381 
L 214.239714 100.135454 
L 214.347275 99.426184 
L 214.429009 99.355256 
L 214.518014 98.858767 
L 214.582035 98.858767 
L 214.669431 98.220424 
L 214.746236 98.149496 
L 214.822728 97.865788 
L 214.908137 97.794861 
L 214.989224 97.227445 
L 215.04992 97.156518 
L 215.146888 96.801882 
L 215.302812 96.730955 
L 215.407901 95.808904 
L 215.420301 95.808904 
L 215.508578 94.957779 
L 215.634516 94.886852 
L 215.744497 94.744998 
L 215.749958 94.744998 
L 215.860938 93.752019 
L 215.878885 93.681092 
L 215.960887 93.326456 
L 216.101578 93.255529 
L 216.20723 92.617186 
L 216.315553 92.546259 
L 216.411499 92.262551 
L 216.613173 92.191624 
L 216.710811 91.340499 
L 216.964133 91.269572 
L 217.027032 91.127718 
L 217.131138 91.056791 
L 217.184923 90.844009 
L 217.326441 90.773082 
L 217.326441 90.702155 
L 217.446571 90.702155 
L 217.494486 90.418447 
L 217.563651 90.34752 
L 217.57166 90.134739 
L 217.755292 90.134739 
L 217.847192 86.375605 
L 217.869346 86.375605 
L 217.869346 86.304678 
L 217.968533 85.595407 
L 218.049738 85.52448 
L 218.137254 84.744282 
L 218.166829 84.744282 
L 218.264463 83.11296 
L 218.329028 83.042033 
L 218.43202 82.616471 
L 218.496376 82.616471 
L 218.593403 81.339784 
L 218.621188 81.268856 
L 218.705732 80.772367 
L 218.863727 80.70144 
L 218.971273 80.063096 
L 218.986132 79.992169 
L 219.000979 79.850315 
L 219.125658 79.779388 
L 219.231721 79.353826 
L 219.251956 79.353826 
L 219.357312 78.928264 
L 219.440691 78.857336 
L 219.532292 68.360132 
L 219.583408 68.289205 
L 219.668521 68.005496 
L 219.797675 67.934569 
L 219.900027 64.246362 
L 219.930321 64.246362 
L 219.998474 63.8208 
L 220.127387 63.749873 
L 220.234254 62.61504 
L 220.26765 62.544113 
L 220.344466 62.402259 
L 220.450765 62.331332 
L 220.534331 61.905769 
L 220.57955 61.834842 
L 220.674513 61.338353 
L 220.853729 61.267426 
L 220.853729 61.196499 
L 220.980112 61.125572 
L 221.050276 60.912791 
L 221.19643 60.912791 
L 221.304601 59.707031 
L 221.422409 59.636104 
L 221.533308 58.99776 
L 221.544424 58.926833 
L 221.634343 58.075708 
L 221.671785 58.004781 
L 221.774521 57.792 
L 221.828415 57.721073 
L 221.912148 57.295511 
L 221.948135 57.224584 
L 222.046672 56.869948 
L 222.124054 56.799021 
L 222.220782 56.231605 
L 222.248158 56.160678 
L 222.345435 55.876969 
L 222.590246 55.806042 
L 222.693908 52.472471 
L 222.740311 52.401544 
L 222.817205 52.188762 
L 222.869349 52.117835 
L 222.977495 49.706315 
L 223.017213 49.635388 
L 223.106626 49.280753 
L 223.197596 49.280753 
L 223.300784 48.429628 
L 223.365061 48.358701 
L 223.365061 48.287774 
L 223.528549 48.216847 
L 223.574327 47.933139 
L 223.750019 47.862212 
L 223.827825 47.649431 
L 224.093323 47.578504 
L 224.137211 47.294795 
L 224.37771 47.223868 
L 224.47464 46.656452 
L 224.662569 46.585525 
L 224.773392 46.018108 
L 224.927971 45.947181 
L 225.011335 45.450692 
L 225.18434 45.379765 
L 225.278224 45.237911 
L 225.322213 45.166984 
L 225.41466 43.748442 
L 225.564577 43.677515 
L 225.649888 42.329901 
L 225.711826 42.258974 
L 225.711826 42.188047 
L 225.836812 42.11712 
L 225.940947 41.195068 
L 225.99024 41.124141 
L 225.99024 41.053214 
L 226.130095 40.982287 
L 226.179861 40.840433 
L 226.302744 40.769506 
L 226.370694 40.414871 
L 226.556064 40.343944 
L 226.622399 40.131162 
L 226.679811 40.060235 
L 226.74384 39.847454 
L 226.861709 39.776527 
L 226.958254 39.350965 
L 227.177117 39.280038 
L 227.21369 39.138184 
L 227.349531 39.067256 
L 227.372416 38.783548 
L 227.656038 38.712621 
L 227.755702 38.428913 
L 227.925996 38.357986 
L 228.010896 37.577788 
L 228.146336 37.506861 
L 228.221161 36.726664 
L 228.384307 36.655736 
L 228.472936 36.230174 
L 228.851613 36.159247 
L 228.942239 35.946466 
L 229.197147 35.875539 
L 229.197147 35.804612 
L 229.398289 35.733685 
L 229.438504 35.520904 
L 229.72882 35.449976 
L 229.829043 35.237195 
L 229.884999 35.166268 
L 229.95935 34.953487 
L 230.035176 34.88256 
L 230.050894 34.740706 
L 230.222735 34.669779 
L 230.222735 34.527925 
L 230.424621 34.456998 
L 230.440017 34.315144 
L 230.705151 34.244216 
L 230.794278 34.102362 
L 230.994077 34.031435 
L 231.046677 33.889581 
L 231.269615 33.818654 
L 231.269615 33.747727 
L 231.810661 33.6768 
L 231.810661 33.605873 
L 232.121429 33.534946 
L 232.121429 33.464019 
L 232.731383 33.393092 
L 232.78886 33.251238 
L 232.926395 33.180311 
L 232.96815 33.038456 
L 233.276407 32.967529 
L 233.276407 32.896602 
L 233.451295 32.825675 
L 233.532422 32.683821 
L 233.841919 32.612894 
L 233.841919 32.541967 
L 234.165195 32.47104 
L 234.206653 32.329186 
L 234.560588 32.258259 
L 234.578505 32.116405 
L 234.845533 32.045478 
L 234.896149 31.761769 
L 235.189101 31.690842 
L 235.189101 31.619915 
L 235.864167 31.548988 
L 235.864167 31.478061 
L 236.199274 31.407134 
L 236.199274 31.336207 
L 236.348111 31.26528 
L 236.362298 31.052499 
L 236.697691 30.981572 
L 236.697691 30.910645 
L 237.077561 30.839718 
L 237.179478 30.626936 
L 237.476399 30.556009 
L 237.476399 30.485082 
L 237.606305 30.414155 
L 237.606305 30.343228 
L 237.860345 30.272301 
L 237.860345 30.201374 
L 238.145769 30.130447 
L 238.145769 30.05952 
L 238.466268 29.988593 
L 238.51154 29.633958 
L 238.699731 29.563031 
L 238.780287 29.421176 
L 239.048414 29.350249 
L 239.048414 29.279322 
L 239.822191 29.208395 
L 239.93192 29.066541 
L 240.945261 28.995614 
L 241.043284 28.85376 
L 242.132871 28.782833 
L 242.132871 28.711906 
L 242.872291 28.640979 
L 242.872291 28.570052 
L 243.471688 28.499125 
L 243.471688 28.428198 
L 245.798978 28.357271 
L 245.798978 28.286344 
L 248.697407 28.215416 
L 248.697407 28.144489 
L 249.156403 28.073562 
L 249.156403 28.002635 
L 249.871215 27.931708 
L 249.871215 27.860781 
L 252.427417 27.789854 
L 252.427417 27.718927 
L 360.8064 27.648 
L 360.8064 27.648 
" style="fill: none; stroke: #000080; stroke-width: 1.5; stroke-linecap: square"/>
   </g>
   <g id="line2d_36">
    <defs>
     <path id="m6257dd9066" d="M 0 6 
C 1.591219 6 3.117479 5.367802 4.242641 4.242641 
C 5.367802 3.117479 6 1.591219 6 0 
C 6 -1.591219 5.367802 -3.117479 4.242641 -4.242641 
C 3.117479 -5.367802 1.591219 -6 0 -6 
C -1.591219 -6 -3.117479 -5.367802 -4.242641 -4.242641 
C -5.367802 -3.117479 -6 -1.591219 -6 0 
C -6 1.591219 -5.367802 3.117479 -4.242641 4.242641 
C -3.117479 5.367802 -1.591219 6 0 6 
z
" style="stroke: #000080; stroke-width: 1.5"/>
    </defs>
    <g>
     <use xlink:href="#m6257dd9066" x="130.540507" y="258.728358" style="fill-opacity: 0; stroke: #000080; stroke-width: 1.5"/>
     <use xlink:href="#m6257dd9066" x="199.897019" y="184.751435" style="fill-opacity: 0; stroke: #000080; stroke-width: 1.5"/>
     <use xlink:href="#m6257dd9066" x="244.630631" y="28.357271" style="fill-opacity: 0; stroke: #000080; stroke-width: 1.5"/>
     <use xlink:href="#m6257dd9066" x="252.957442" y="27.648" style="fill-opacity: 0; stroke: #000080; stroke-width: 1.5"/>
     <use xlink:href="#m6257dd9066" x="252.957442" y="27.648" style="fill-opacity: 0; stroke: #000080; stroke-width: 1.5"/>
     <use xlink:href="#m6257dd9066" x="360.8064" y="27.648" style="fill-opacity: 0; stroke: #000080; stroke-width: 1.5"/>
    </g>
   </g>
   <g id="line2d_37">
    <path style="fill: none; stroke: #000080; stroke-width: 1.5; stroke-linecap: square"/>
    <g/>
   </g>
   <g id="line2d_38">
    <path d="M 101.102381 290.858315 
" clip-path="url(#p30d03e6846)" style="fill: none; stroke: #000080; stroke-width: 1.5; stroke-linecap: square"/>
    <defs>
     <path id="m5109b8de1c" d="M -12 12 
L 12 -12 
M -12 -12 
L 12 12 
" style="stroke: #000080"/>
    </defs>
    <g clip-path="url(#p30d03e6846)">
     <use xlink:href="#m5109b8de1c" x="101.102381" y="290.858315" style="fill: #000080; stroke: #000080"/>
    </g>
   </g>
   <g id="line2d_39">
    <defs>
     <path id="m45225a28ab" d="M 0 1.5 
C 0.397805 1.5 0.77937 1.341951 1.06066 1.06066 
C 1.341951 0.77937 1.5 0.397805 1.5 0 
C 1.5 -0.397805 1.341951 -0.77937 1.06066 -1.06066 
C 0.77937 -1.341951 0.397805 -1.5 0 -1.5 
C -0.397805 -1.5 -0.77937 -1.341951 -1.06066 -1.06066 
C -1.341951 -0.77937 -1.5 -0.397805 -1.5 0 
C -1.5 0.397805 -1.341951 0.77937 -1.06066 1.06066 
C -0.77937 1.341951 -0.397805 1.5 0 1.5 
z
" style="stroke: #ff00ff"/>
    </defs>
    <g>
     <use xlink:href="#m45225a28ab" x="179.410043" y="27.648" style="fill: #ff00ff; stroke: #ff00ff"/>
     <use xlink:href="#m45225a28ab" x="179.410043" y="27.648" style="fill: #ff00ff; stroke: #ff00ff"/>
    </g>
   </g>
   <g id="line2d_40">
    <path d="M 47.990577 298.944 
L 47.990577 298.589365 
L 62.535479 298.589365 
L 62.535479 297.525459 
L 68.65718 297.525459 
L 68.65718 297.170824 
L 74.836851 297.170824 
L 74.836851 296.816188 
L 75.574654 296.816188 
L 75.574654 296.461553 
L 77.628862 296.461553 
L 77.628862 294.688376 
L 78.266603 294.688376 
L 78.266603 294.333741 
L 81.696354 294.333741 
L 81.696354 293.624471 
L 83.678349 293.624471 
L 83.678349 293.269835 
L 84.596168 293.269835 
L 84.596168 292.9152 
L 85.038813 292.9152 
L 85.038813 292.205929 
L 87.495981 292.205929 
L 87.495981 291.851294 
L 88.248544 291.851294 
L 88.248544 291.496659 
L 93.381595 291.496659 
L 93.381595 291.142024 
L 93.934916 291.142024 
L 93.934916 290.787388 
L 94.205591 290.787388 
L 94.205591 290.432753 
L 94.472426 290.432753 
L 94.472426 290.078118 
L 95.752617 290.078118 
L 95.752617 289.723482 
L 96.95121 289.723482 
L 96.95121 289.014212 
L 98.295464 289.014212 
L 98.295464 288.659576 
L 98.933205 288.659576 
L 98.933205 288.304941 
L 99.950294 288.304941 
L 99.950294 287.950306 
L 100.147275 287.950306 
L 100.147275 287.595671 
L 100.9152 287.595671 
L 100.9152 287.241035 
L 101.287718 287.241035 
L 101.287718 286.177129 
L 102.708132 286.177129 
L 102.708132 285.822494 
L 104.344952 285.822494 
L 104.344952 285.467859 
L 105.112877 285.467859 
L 105.112877 284.403953 
L 105.99483 284.403953 
L 105.99483 284.049318 
L 106.42077 284.049318 
L 106.42077 283.694682 
L 106.974091 283.694682 
L 106.974091 283.340047 
L 107.5116 283.340047 
L 107.5116 282.985412 
L 107.643612 282.985412 
L 107.643612 282.630776 
L 108.667622 282.630776 
L 108.667622 282.276141 
L 109.280431 282.276141 
L 109.280431 281.921506 
L 109.756698 281.921506 
L 109.756698 281.212235 
L 110.221204 281.212235 
L 110.221204 280.8576 
L 110.335561 280.8576 
L 110.335561 280.502965 
L 110.449226 280.502965 
L 110.449226 280.148329 
L 110.786158 280.148329 
L 110.786158 279.793694 
L 111.762192 279.793694 
L 111.86758 279.084424 
L 111.97238 279.084424 
L 111.97238 278.729788 
L 113.186449 278.729788 
L 113.284172 278.020518 
L 113.57433 278.020518 
L 113.670063 276.956612 
L 114.141556 276.956612 
L 114.141556 276.601976 
L 114.326893 276.601976 
L 114.326893 276.247341 
L 115.227139 276.247341 
L 115.227139 275.892706 
L 115.575511 275.892706 
L 115.575511 275.538071 
L 115.83262 275.538071 
L 115.917548 274.8288 
L 116.002095 274.8288 
L 116.002095 273.764894 
L 116.336531 273.764894 
L 116.336531 273.410259 
L 116.501546 273.410259 
L 116.501546 273.055624 
L 117.305581 273.055624 
L 117.305581 272.700988 
L 117.540239 272.700988 
L 117.540239 272.346353 
L 117.772007 272.346353 
L 117.772007 271.991718 
L 118.076654 271.991718 
L 118.076654 271.282447 
L 118.376446 271.282447 
L 118.376446 270.927812 
L 119.177058 270.927812 
L 119.24818 269.863906 
L 119.459944 269.863906 
L 119.530006 268.8 
L 119.807672 268.8 
L 119.807672 268.445365 
L 120.216635 268.445365 
L 120.216635 268.090729 
L 120.41783 268.090729 
L 120.41783 267.736094 
L 120.813877 267.736094 
L 120.813877 267.381459 
L 121.073351 267.381459 
L 121.073351 266.672188 
L 121.265635 266.672188 
L 121.329295 265.962918 
L 121.581803 265.962918 
L 121.581803 265.608282 
L 121.892744 265.608282 
L 121.892744 265.253647 
L 122.19863 265.253647 
L 122.19863 264.899012 
L 122.971409 264.899012 
L 122.971409 264.544376 
L 123.145323 264.544376 
L 123.145323 264.189741 
L 123.317644 264.189741 
L 123.317644 263.835106 
L 123.601383 263.835106 
L 123.601383 263.125835 
L 123.991562 263.125835 
L 124.101572 262.416565 
L 124.373813 262.416565 
L 124.373813 262.061929 
L 124.748451 262.061929 
L 124.748451 261.352659 
L 124.906754 261.352659 
L 124.906754 260.998024 
L 125.167667 260.998024 
L 125.167667 260.643388 
L 126.028642 260.643388 
L 126.127391 259.934118 
L 126.468985 259.934118 
L 126.468985 259.579482 
L 126.613505 259.579482 
L 126.709238 258.515576 
L 126.804487 258.515576 
L 126.804487 258.160941 
L 127.458055 258.160941 
L 127.549596 257.451671 
L 128.222309 257.451671 
L 128.266313 256.7424 
L 128.39771 256.7424 
L 128.39771 256.387765 
L 128.743679 256.387765 
L 128.829186 255.323859 
L 128.871795 255.323859 
L 128.871795 254.969224 
L 128.999044 254.969224 
L 128.999044 254.614588 
L 129.292652 254.614588 
L 129.334225 253.550682 
L 129.7043 253.550682 
L 129.78556 252.486776 
L 130.027253 252.486776 
L 130.107132 251.777506 
L 130.384069 251.777506 
L 130.46245 251.068235 
L 130.540507 251.068235 
L 130.540507 250.7136 
L 131.228811 250.7136 
L 131.228811 250.358965 
L 131.929028 250.358965 
L 132.037244 249.649694 
L 132.073179 249.649694 
L 132.073179 249.295059 
L 132.428795 249.295059 
L 132.428795 248.940424 
L 132.708526 248.940424 
L 132.708526 248.585788 
L 132.915628 248.585788 
L 133.01833 247.876518 
L 133.689044 247.876518 
L 133.689044 247.521882 
L 133.820365 247.521882 
L 133.885683 246.812612 
L 134.015642 246.812612 
L 134.047992 246.103341 
L 134.993495 246.103341 
L 135.024208 245.394071 
L 135.35878 245.394071 
L 135.35878 244.6848 
L 135.478982 244.6848 
L 135.478982 244.330165 
L 136.44239 244.330165 
L 136.527575 243.266259 
L 136.947806 243.266259 
L 136.97549 242.556988 
L 137.358854 242.556988 
L 137.358854 242.202353 
L 137.493898 242.202353 
L 137.493898 241.847718 
L 137.919637 241.847718 
L 137.945929 241.138447 
L 138.258593 241.138447 
L 138.258593 240.783812 
L 138.515235 240.783812 
L 138.515235 240.074541 
L 138.868751 240.074541 
L 138.868751 239.365271 
L 139.067817 239.365271 
L 139.141927 238.301365 
L 139.191172 238.301365 
L 139.191172 237.946729 
L 139.483965 237.946729 
L 139.483965 237.237459 
L 140.009194 237.237459 
L 140.009194 236.882824 
L 140.679868 236.882824 
L 140.679868 236.528188 
L 140.860749 236.528188 
L 140.950542 235.109647 
L 141.151022 235.109647 
L 141.151022 234.755012 
L 141.761416 234.755012 
L 141.782854 233.691106 
L 141.974701 233.691106 
L 142.059343 232.272565 
L 142.143605 232.272565 
L 142.143605 231.917929 
L 142.290162 231.917929 
L 142.290162 231.208659 
L 142.723105 231.208659 
L 142.723105 230.854024 
L 142.865233 230.854024 
L 142.865233 230.499388 
L 143.18612 230.499388 
L 143.245681 229.790118 
L 143.579681 229.790118 
L 143.579681 229.435482 
L 144.117191 229.435482 
L 144.117191 229.080847 
L 144.249202 229.080847 
L 144.249202 228.726212 
L 144.398947 228.726212 
L 144.398947 228.371576 
L 144.658165 228.371576 
L 144.749884 227.662306 
L 145.237585 227.662306 
L 145.273213 226.5984 
L 145.361989 226.5984 
L 145.361989 226.243765 
L 145.66073 226.243765 
L 145.66073 225.889129 
L 146.108646 225.889129 
L 146.108646 225.534494 
L 146.379077 225.534494 
L 146.379077 225.179859 
L 146.973697 225.179859 
L 146.973697 224.825224 
L 147.423525 224.825224 
L 147.423525 224.470588 
L 148.094045 224.470588 
L 148.170484 216.313976 
L 148.307296 216.313976 
L 148.307296 215.604706 
L 148.44312 215.604706 
L 148.533127 213.476894 
L 157.099504 213.476894 
L 157.099504 213.122259 
L 157.400797 213.122259 
L 157.400797 212.058353 
L 158.812888 212.058353 
L 158.873444 211.349082 
L 159.359426 211.349082 
L 159.359426 210.994447 
L 159.535354 210.994447 
L 159.535354 210.639812 
L 159.68485 210.639812 
L 159.734419 209.930541 
L 159.890533 209.930541 
L 159.890533 209.575906 
L 160.102084 209.575906 
L 160.118259 208.866635 
L 160.557708 208.866635 
L 160.557708 208.512 
L 160.691486 208.512 
L 160.691486 207.802729 
L 160.963953 207.802729 
L 161.017976 206.384188 
L 161.270586 206.384188 
L 161.270586 205.674918 
L 161.452196 205.674918 
L 161.452196 204.611012 
L 162.132562 204.611012 
L 162.219518 203.192471 
L 162.262846 203.192471 
L 162.349204 194.326588 
L 162.392235 194.326588 
L 162.463734 193.617318 
L 162.527853 193.617318 
L 162.527853 193.262682 
L 162.740015 193.262682 
L 162.831214 191.844141 
L 162.866174 191.844141 
L 162.866174 191.489506 
L 162.998429 191.489506 
L 163.102189 189.716329 
L 163.129762 189.716329 
L 163.171045 186.879247 
L 163.301182 186.879247 
L 163.301182 186.524612 
L 163.423645 186.524612 
L 163.450751 176.594824 
L 163.706328 176.594824 
L 163.79962 174.821647 
L 163.846093 174.821647 
L 163.945293 163.473318 
L 164.168227 163.473318 
L 164.187772 162.764047 
L 164.343401 162.764047 
L 164.343401 161.700141 
L 164.497753 161.700141 
L 164.606324 160.636235 
L 164.745905 160.636235 
L 164.764859 152.834259 
L 164.859342 152.834259 
L 164.915805 152.124988 
L 164.978343 152.124988 
L 165.065549 150.351812 
L 165.164721 150.351812 
L 165.170902 148.578635 
L 165.318637 148.578635 
L 165.324768 139.358118 
L 165.50169 139.358118 
L 165.507761 136.875671 
L 165.688991 136.875671 
L 165.688991 136.521035 
L 165.96353 136.521035 
L 166.05809 128.009788 
L 166.087543 128.009788 
L 166.158043 126.236612 
L 166.228279 126.236612 
L 166.274957 124.1088 
L 166.489353 124.1088 
L 166.50663 115.952188 
L 166.746854 115.952188 
L 166.746854 115.597553 
L 166.933472 115.597553 
L 167.01769 106.731671 
L 167.073627 106.731671 
L 167.073627 106.377035 
L 167.212746 106.377035 
L 167.212746 105.667765 
L 167.38933 105.667765 
L 167.471536 95.737976 
L 167.504319 95.737976 
L 167.596893 93.610165 
L 167.850487 93.610165 
L 167.850487 93.255529 
L 167.973351 93.255529 
L 168.021211 91.482353 
L 168.164064 91.482353 
L 168.164064 91.127718 
L 168.29014 91.127718 
L 168.29014 90.773082 
L 168.689024 90.773082 
L 168.689024 90.418447 
L 168.821824 90.418447 
L 168.898015 79.424753 
L 169.174771 79.424753 
L 169.174771 79.070118 
L 169.319074 79.070118 
L 169.417952 77.651576 
L 169.740612 77.651576 
L 169.813178 76.942306 
L 169.967056 76.942306 
L 169.967056 76.233035 
L 170.463308 76.233035 
L 170.463308 67.367153 
L 171.444765 67.367153 
L 171.444765 65.239341 
L 176.41189 65.239341 
L 176.432278 55.664188 
L 176.885267 55.664188 
L 176.885267 55.309553 
L 177.010832 55.309553 
L 177.010832 54.954918 
L 177.308164 54.954918 
L 177.340553 45.7344 
L 177.488828 45.7344 
L 177.488828 45.379765 
L 177.901658 45.379765 
L 177.989401 43.606588 
L 178.169864 43.606588 
L 178.253286 42.188047 
L 178.559072 42.188047 
L 178.646828 31.903624 
L 178.722153 31.903624 
L 178.782196 30.839718 
L 178.865936 30.839718 
L 178.889793 30.130447 
L 178.981956 30.130447 
L 179.06186 28.711906 
L 179.255765 28.711906 
L 179.255765 28.357271 
L 179.410043 28.357271 
L 179.410043 27.648 
L 360.8064 27.648 
L 360.8064 27.648 
" style="fill: none; stroke: #ff00ff; stroke-width: 1.5; stroke-linecap: square"/>
   </g>
   <g id="line2d_41">
    <defs>
     <path id="m7544e6b984" d="M -0 8.485281 
L 5.091169 0 
L 0 -8.485281 
L -5.091169 -0 
z
" style="stroke: #ff00ff; stroke-width: 1.5; stroke-linejoin: miter"/>
    </defs>
    <g>
     <use xlink:href="#m7544e6b984" x="158.873444" y="211.703718" style="fill-opacity: 0; stroke: #ff00ff; stroke-width: 1.5; stroke-linejoin: miter"/>
     <use xlink:href="#m7544e6b984" x="176.885267" y="55.664188" style="fill-opacity: 0; stroke: #ff00ff; stroke-width: 1.5; stroke-linejoin: miter"/>
     <use xlink:href="#m7544e6b984" x="179.410043" y="28.357271" style="fill-opacity: 0; stroke: #ff00ff; stroke-width: 1.5; stroke-linejoin: miter"/>
     <use xlink:href="#m7544e6b984" x="179.410043" y="27.648" style="fill-opacity: 0; stroke: #ff00ff; stroke-width: 1.5; stroke-linejoin: miter"/>
     <use xlink:href="#m7544e6b984" x="179.410043" y="27.648" style="fill-opacity: 0; stroke: #ff00ff; stroke-width: 1.5; stroke-linejoin: miter"/>
     <use xlink:href="#m7544e6b984" x="360.8064" y="27.648" style="fill-opacity: 0; stroke: #ff00ff; stroke-width: 1.5; stroke-linejoin: miter"/>
    </g>
   </g>
   <g id="line2d_42">
    <path style="fill: none; stroke: #ff00ff; stroke-width: 1.5; stroke-linecap: square"/>
    <g/>
   </g>
   <g id="line2d_43">
    <path d="M 360.8064 27.648 
L 380.514816 293.51808 
" style="fill: none; stroke: #000080; stroke-width: 1.5; stroke-linecap: square"/>
    <g>
     <use xlink:href="#m6257dd9066" x="360.8064" y="27.648" style="fill-opacity: 0; stroke: #000080; stroke-width: 1.5"/>
     <use xlink:href="#m6257dd9066" x="380.514816" y="293.51808" style="fill-opacity: 0; stroke: #000080; stroke-width: 1.5"/>
    </g>
   </g>
   <g id="line2d_44">
    <path d="M 360.8064 27.648 
L 380.514816 163.296 
" style="fill: none; stroke: #ff00ff; stroke-width: 1.5; stroke-linecap: square"/>
    <g>
     <use xlink:href="#m7544e6b984" x="360.8064" y="27.648" style="fill-opacity: 0; stroke: #ff00ff; stroke-width: 1.5; stroke-linejoin: miter"/>
     <use xlink:href="#m7544e6b984" x="380.514816" y="163.296" style="fill-opacity: 0; stroke: #ff00ff; stroke-width: 1.5; stroke-linejoin: miter"/>
    </g>
   </g>
   <g id="line2d_45">
    <path d="M 360.8064 298.944 
L 360.8064 27.648 
" style="fill: none; stroke: #000000; stroke-width: 1.5; stroke-linecap: square"/>
   </g>
   <g id="patch_3">
    <path d="M 57.6 298.944 
L 360.8064 298.944 
" style="fill: none; stroke: #000000; stroke-width: 0.8; stroke-linejoin: miter; stroke-linecap: square"/>
   </g>
   <g id="patch_4">
    <path d="M 57.6 27.648 
L 360.8064 27.648 
" style="fill: none; stroke: #000000; stroke-width: 0.8; stroke-linejoin: miter; stroke-linecap: square"/>
   </g>
   <g id="text_13">
    <!-- ex -->
    <g transform="translate(386.578944 297.381205)scale(0.14 -0.14)">
     <defs>
      <path id="DejaVuSans-78" d="M 3513 3500 
L 2247 1797 
L 3578 0 
L 2900 0 
L 1881 1375 
L 863 0 
L 184 0 
L 1544 1831 
L 300 3500 
L 978 3500 
L 1906 2253 
L 2834 3500 
L 3513 3500 
z
" transform="scale(0.015625)"/>
     </defs>
     <use xlink:href="#DejaVuSans-65"/>
     <use xlink:href="#DejaVuSans-78" x="59.773438"/>
    </g>
   </g>
   <g id="text_14">
    <!-- CMA-ES-20 -->
    <g transform="translate(386.578944 167.159125)scale(0.14 -0.14)">
     <defs>
      <path id="DejaVuSans-43" d="M 4122 4306 
L 4122 3641 
Q 3803 3938 3442 4084 
Q 3081 4231 2675 4231 
Q 1875 4231 1450 3742 
Q 1025 3253 1025 2328 
Q 1025 1406 1450 917 
Q 1875 428 2675 428 
Q 3081 428 3442 575 
Q 3803 722 4122 1019 
L 4122 359 
Q 3791 134 3420 21 
Q 3050 -91 2638 -91 
Q 1578 -91 968 557 
Q 359 1206 359 2328 
Q 359 3453 968 4101 
Q 1578 4750 2638 4750 
Q 3056 4750 3426 4639 
Q 3797 4528 4122 4306 
z
" transform="scale(0.015625)"/>
      <path id="DejaVuSans-4d" d="M 628 4666 
L 1569 4666 
L 2759 1491 
L 3956 4666 
L 4897 4666 
L 4897 0 
L 4281 0 
L 4281 4097 
L 3078 897 
L 2444 897 
L 1241 4097 
L 1241 0 
L 628 0 
L 628 4666 
z
" transform="scale(0.015625)"/>
      <path id="DejaVuSans-41" d="M 2188 4044 
L 1331 1722 
L 3047 1722 
L 2188 4044 
z
M 1831 4666 
L 2547 4666 
L 4325 0 
L 3669 0 
L 3244 1197 
L 1141 1197 
L 716 0 
L 50 0 
L 1831 4666 
z
" transform="scale(0.015625)"/>
      <path id="DejaVuSans-45" d="M 628 4666 
L 3578 4666 
L 3578 4134 
L 1259 4134 
L 1259 2753 
L 3481 2753 
L 3481 2222 
L 1259 2222 
L 1259 531 
L 3634 531 
L 3634 0 
L 628 0 
L 628 4666 
z
" transform="scale(0.015625)"/>
      <path id="DejaVuSans-53" d="M 3425 4513 
L 3425 3897 
Q 3066 4069 2747 4153 
Q 2428 4238 2131 4238 
Q 1616 4238 1336 4038 
Q 1056 3838 1056 3469 
Q 1056 3159 1242 3001 
Q 1428 2844 1947 2747 
L 2328 2669 
Q 3034 2534 3370 2195 
Q 3706 1856 3706 1288 
Q 3706 609 3251 259 
Q 2797 -91 1919 -91 
Q 1588 -91 1214 -16 
Q 841 59 441 206 
L 441 856 
Q 825 641 1194 531 
Q 1563 422 1919 422 
Q 2459 422 2753 634 
Q 3047 847 3047 1241 
Q 3047 1584 2836 1778 
Q 2625 1972 2144 2069 
L 1759 2144 
Q 1053 2284 737 2584 
Q 422 2884 422 3419 
Q 422 4038 858 4394 
Q 1294 4750 2059 4750 
Q 2388 4750 2728 4690 
Q 3069 4631 3425 4513 
z
" transform="scale(0.015625)"/>
     </defs>
     <use xlink:href="#DejaVuSans-43"/>
     <use xlink:href="#DejaVuSans-4d" x="69.824219"/>
     <use xlink:href="#DejaVuSans-41" x="156.103516"/>
     <use xlink:href="#DejaVuSans-2d" x="222.261719"/>
     <use xlink:href="#DejaVuSans-45" x="258.345703"/>
     <use xlink:href="#DejaVuSans-53" x="321.529297"/>
     <use xlink:href="#DejaVuSans-2d" x="385.005859"/>
     <use xlink:href="#DejaVuSans-32" x="421.089844"/>
     <use xlink:href="#DejaVuSans-30" x="484.712891"/>
    </g>
   </g>
   <g id="text_15">
    <!-- best 2009 -->
    <g transform="translate(386.578944 36.937045)scale(0.14 -0.14)">
     <defs>
      <path id="DejaVuSans-62" d="M 3116 1747 
Q 3116 2381 2855 2742 
Q 2594 3103 2138 3103 
Q 1681 3103 1420 2742 
Q 1159 2381 1159 1747 
Q 1159 1113 1420 752 
Q 1681 391 2138 391 
Q 2594 391 2855 752 
Q 3116 1113 3116 1747 
z
M 1159 2969 
Q 1341 3281 1617 3432 
Q 1894 3584 2278 3584 
Q 2916 3584 3314 3078 
Q 3713 2572 3713 1747 
Q 3713 922 3314 415 
Q 2916 -91 2278 -91 
Q 1894 -91 1617 61 
Q 1341 213 1159 525 
L 1159 0 
L 581 0 
L 581 4863 
L 1159 4863 
L 1159 2969 
z
" transform="scale(0.015625)"/>
      <path id="DejaVuSans-39" d="M 703 97 
L 703 672 
Q 941 559 1184 500 
Q 1428 441 1663 441 
Q 2288 441 2617 861 
Q 2947 1281 2994 2138 
Q 2813 1869 2534 1725 
Q 2256 1581 1919 1581 
Q 1219 1581 811 2004 
Q 403 2428 403 3163 
Q 403 3881 828 4315 
Q 1253 4750 1959 4750 
Q 2769 4750 3195 4129 
Q 3622 3509 3622 2328 
Q 3622 1225 3098 567 
Q 2575 -91 1691 -91 
Q 1453 -91 1209 -44 
Q 966 3 703 97 
z
M 1959 2075 
Q 2384 2075 2632 2365 
Q 2881 2656 2881 3163 
Q 2881 3666 2632 3958 
Q 2384 4250 1959 4250 
Q 1534 4250 1286 3958 
Q 1038 3666 1038 3163 
Q 1038 2656 1286 2365 
Q 1534 2075 1959 2075 
z
" transform="scale(0.015625)"/>
     </defs>
     <use xlink:href="#DejaVuSans-62"/>
     <use xlink:href="#DejaVuSans-65" x="63.476562"/>
     <use xlink:href="#DejaVuSans-73" x="125"/>
     <use xlink:href="#DejaVuSans-74" x="177.099609"/>
     <use xlink:href="#DejaVuSans-20" x="216.308594"/>
     <use xlink:href="#DejaVuSans-32" x="248.095703"/>
     <use xlink:href="#DejaVuSans-30" x="311.71875"/>
     <use xlink:href="#DejaVuSans-30" x="375.341797"/>
     <use xlink:href="#DejaVuSans-39" x="438.964844"/>
    </g>
   </g>
   <g id="text_16">
    <!-- bbob f7, 10-D -->
    <g transform="translate(60.632064 38.111366)scale(0.102 -0.102)">
     <defs>
      <path id="DejaVuSans-37" d="M 525 4666 
L 3525 4666 
L 3525 4397 
L 1831 0 
L 1172 0 
L 2766 4134 
L 525 4134 
L 525 4666 
z
" transform="scale(0.015625)"/>
      <path id="DejaVuSans-44" d="M 1259 4147 
L 1259 519 
L 2022 519 
Q 2988 519 3436 956 
Q 3884 1394 3884 2338 
Q 3884 3275 3436 3711 
Q 2988 4147 2022 4147 
L 1259 4147 
z
M 628 4666 
L 1925 4666 
Q 3281 4666 3915 4102 
Q 4550 3538 4550 2338 
Q 4550 1131 3912 565 
Q 3275 0 1925 0 
L 628 0 
L 628 4666 
z
" transform="scale(0.015625)"/>
     </defs>
     <use xlink:href="#DejaVuSans-62"/>
     <use xlink:href="#DejaVuSans-62" x="63.476562"/>
     <use xlink:href="#DejaVuSans-6f" x="126.953125"/>
     <use xlink:href="#DejaVuSans-62" x="188.134766"/>
     <use xlink:href="#DejaVuSans-20" x="251.611328"/>
     <use xlink:href="#DejaVuSans-66" x="283.398438"/>
     <use xlink:href="#DejaVuSans-37" x="318.603516"/>
     <use xlink:href="#DejaVuSans-2c" x="382.226562"/>
     <use xlink:href="#DejaVuSans-20" x="414.013672"/>
     <use xlink:href="#DejaVuSans-31" x="445.800781"/>
     <use xlink:href="#DejaVuSans-30" x="509.423828"/>
     <use xlink:href="#DejaVuSans-2d" x="573.046875"/>
     <use xlink:href="#DejaVuSans-44" x="609.130859"/>
    </g>
    <!-- 51 targets: 100..1e-08 -->
    <g transform="translate(60.632064 49.533135)scale(0.102 -0.102)">
     <defs>
      <path id="DejaVuSans-35" d="M 691 4666 
L 3169 4666 
L 3169 4134 
L 1269 4134 
L 1269 2991 
Q 1406 3038 1543 3061 
Q 1681 3084 1819 3084 
Q 2600 3084 3056 2656 
Q 3513 2228 3513 1497 
Q 3513 744 3044 326 
Q 2575 -91 1722 -91 
Q 1428 -91 1123 -41 
Q 819 9 494 109 
L 494 744 
Q 775 591 1075 516 
Q 1375 441 1709 441 
Q 2250 441 2565 725 
Q 2881 1009 2881 1497 
Q 2881 1984 2565 2268 
Q 2250 2553 1709 2553 
Q 1456 2553 1204 2497 
Q 953 2441 691 2322 
L 691 4666 
z
" transform="scale(0.015625)"/>
      <path id="DejaVuSans-3a" d="M 750 794 
L 1409 794 
L 1409 0 
L 750 0 
L 750 794 
z
M 750 3309 
L 1409 3309 
L 1409 2516 
L 750 2516 
L 750 3309 
z
" transform="scale(0.015625)"/>
     </defs>
     <use xlink:href="#DejaVuSans-35"/>
     <use xlink:href="#DejaVuSans-31" x="63.623047"/>
     <use xlink:href="#DejaVuSans-20" x="127.246094"/>
     <use xlink:href="#DejaVuSans-74" x="159.033203"/>
     <use xlink:href="#DejaVuSans-61" x="198.242188"/>
     <use xlink:href="#DejaVuSans-72" x="259.521484"/>
     <use xlink:href="#DejaVuSans-67" x="298.884766"/>
     <use xlink:href="#DejaVuSans-65" x="362.361328"/>
     <use xlink:href="#DejaVuSans-74" x="423.884766"/>
     <use xlink:href="#DejaVuSans-73" x="463.09375"/>
     <use xlink:href="#DejaVuSans-3a" x="515.193359"/>
     <use xlink:href="#DejaVuSans-20" x="548.884766"/>
     <use xlink:href="#DejaVuSans-31" x="580.671875"/>
     <use xlink:href="#DejaVuSans-30" x="644.294922"/>
     <use xlink:href="#DejaVuSans-30" x="707.917969"/>
     <use xlink:href="#DejaVuSans-2e" x="771.541016"/>
     <use xlink:href="#DejaVuSans-2e" x="803.328125"/>
     <use xlink:href="#DejaVuSans-31" x="835.115234"/>
     <use xlink:href="#DejaVuSans-65" x="898.738281"/>
     <use xlink:href="#DejaVuSans-2d" x="960.261719"/>
     <use xlink:href="#DejaVuSans-30" x="996.345703"/>
     <use xlink:href="#DejaVuSans-38" x="1059.96875"/>
    </g>
    <!-- 25, 15 instances -->
    <g transform="translate(60.632064 60.954904)scale(0.102 -0.102)">
     <use xlink:href="#DejaVuSans-32"/>
     <use xlink:href="#DejaVuSans-35" x="63.623047"/>
     <use xlink:href="#DejaVuSans-2c" x="127.246094"/>
     <use xlink:href="#DejaVuSans-20" x="159.033203"/>
     <use xlink:href="#DejaVuSans-31" x="190.820312"/>
     <use xlink:href="#DejaVuSans-35" x="254.443359"/>
     <use xlink:href="#DejaVuSans-20" x="318.066406"/>
     <use xlink:href="#DejaVuSans-69" x="349.853516"/>
     <use xlink:href="#DejaVuSans-6e" x="377.636719"/>
     <use xlink:href="#DejaVuSans-73" x="441.015625"/>
     <use xlink:href="#DejaVuSans-74" x="493.115234"/>
     <use xlink:href="#DejaVuSans-61" x="532.324219"/>
     <use xlink:href="#DejaVuSans-6e" x="593.603516"/>
     <use xlink:href="#DejaVuSans-63" x="656.982422"/>
     <use xlink:href="#DejaVuSans-65" x="711.962891"/>
     <use xlink:href="#DejaVuSans-73" x="773.486328"/>
    </g>
   </g>
   <g id="text_17">
    <!-- v2.6 -->
    <g style="fill: #808080" transform="translate(198.292262 294.151352)scale(0.1 -0.1)">
     <use xlink:href="#DejaVuSans-76"/>
     <use xlink:href="#DejaVuSans-32" x="59.179688"/>
     <use xlink:href="#DejaVuSans-2e" x="122.802734"/>
     <use xlink:href="#DejaVuSans-36" x="154.589844"/>
    </g>
   </g>
   <g id="text_18">
    <!-- 7 Step-ellipsoid -->
    <g transform="translate(131.993825 21.648)scale(0.2 -0.2)">
     <use xlink:href="#DejaVuSans-37"/>
     <use xlink:href="#DejaVuSans-20" x="63.623047"/>
     <use xlink:href="#DejaVuSans-53" x="95.410156"/>
     <use xlink:href="#DejaVuSans-74" x="158.886719"/>
     <use xlink:href="#DejaVuSans-65" x="198.095703"/>
     <use xlink:href="#DejaVuSans-70" x="259.619141"/>
     <use xlink:href="#DejaVuSans-2d" x="323.095703"/>
     <use xlink:href="#DejaVuSans-65" x="359.179688"/>
     <use xlink:href="#DejaVuSans-6c" x="420.703125"/>
     <use xlink:href="#DejaVuSans-6c" x="448.486328"/>
     <use xlink:href="#DejaVuSans-69" x="476.269531"/>
     <use xlink:href="#DejaVuSans-70" x="504.052734"/>
     <use xlink:href="#DejaVuSans-73" x="567.529297"/>
     <use xlink:href="#DejaVuSans-6f" x="619.628906"/>
     <use xlink:href="#DejaVuSans-69" x="680.810547"/>
     <use xlink:href="#DejaVuSans-64" x="708.59375"/>
    </g>
   </g>
  </g>
 </g>
 <defs>
  <clipPath id="p30d03e6846">
   <rect x="57.6" y="27.648" width="303.2064" height="271.296"/>
  </clipPath>
 </defs>
</svg>
