<?xml version="1.0" encoding="utf-8" standalone="no"?>
<!DOCTYPE svg PUBLIC "-//W3C//DTD SVG 1.1//EN"
  "http://www.w3.org/Graphics/SVG/1.1/DTD/svg11.dtd">
<svg xmlns:xlink="http://www.w3.org/1999/xlink" width="460.8pt" height="345.6pt" viewBox="0 0 460.8 345.6" xmlns="http://www.w3.org/2000/svg" version="1.1">
 <metadata>
  <rdf:RDF xmlns:dc="http://purl.org/dc/elements/1.1/" xmlns:cc="http://creativecommons.org/ns#" xmlns:rdf="http://www.w3.org/1999/02/22-rdf-syntax-ns#">
   <cc:Work>
    <dc:type rdf:resource="http://purl.org/dc/dcmitype/StillImage"/>
    <dc:date>2022-03-16T23:17:16.370957</dc:date>
    <dc:format>image/svg+xml</dc:format>
    <dc:creator>
     <cc:Agent>
      <dc:title>Matplotlib v3.5.1, https://matplotlib.org/</dc:title>
     </cc:Agent>
    </dc:creator>
   </cc:Work>
  </rdf:RDF>
 </metadata>
 <defs>
  <style type="text/css">*{stroke-linejoin: round; stroke-linecap: butt}</style>
 </defs>
 <g id="figure_1">
  <g id="patch_1">
   <path d="M 0 345.6 
L 460.8 345.6 
L 460.8 0 
L 0 0 
z
" style="fill: #ffffff"/>
  </g>
  <g id="axes_1">
   <g id="patch_2">
    <path d="M 57.6 298.944 
L 360.8064 298.944 
L 360.8064 27.648 
L 57.6 27.648 
z
" style="fill: #ffffff"/>
   </g>
   <g id="line2d_1">
    <path d="M 34.951403 298.944 
L 34.951403 293.624471 
L 61.029752 293.624471 
L 61.029752 288.304941 
L 71.556993 288.304941 
L 71.556993 277.665882 
L 71.999638 277.665882 
L 71.999638 27.648 
L 360.8064 27.648 
" style="fill: none; stroke: #f5deb3; stroke-width: 4; stroke-linecap: square"/>
   </g>
   <g id="line2d_2">
    <defs>
     <path id="m98c31ea7b4" d="M -0 7.778175 
L 7.778175 0 
L 0 -7.778175 
L -7.778175 -0 
z
" style="stroke: #f5deb3; stroke-width: 1.5; stroke-linejoin: miter"/>
    </defs>
    <g>
     <use xlink:href="#m98c31ea7b4" x="71.556993" y="277.665882" style="fill: #f5deb3; stroke: #f5deb3; stroke-width: 1.5; stroke-linejoin: miter"/>
     <use xlink:href="#m98c31ea7b4" x="71.999638" y="277.665882" style="fill: #f5deb3; stroke: #f5deb3; stroke-width: 1.5; stroke-linejoin: miter"/>
     <use xlink:href="#m98c31ea7b4" x="71.999638" y="27.648" style="fill: #f5deb3; stroke: #f5deb3; stroke-width: 1.5; stroke-linejoin: miter"/>
     <use xlink:href="#m98c31ea7b4" x="71.999638" y="27.648" style="fill: #f5deb3; stroke: #f5deb3; stroke-width: 1.5; stroke-linejoin: miter"/>
     <use xlink:href="#m98c31ea7b4" x="71.999638" y="27.648" style="fill: #f5deb3; stroke: #f5deb3; stroke-width: 1.5; stroke-linejoin: miter"/>
     <use xlink:href="#m98c31ea7b4" x="360.8064" y="27.648" style="fill: #f5deb3; stroke: #f5deb3; stroke-width: 1.5; stroke-linejoin: miter"/>
    </g>
   </g>
   <g id="line2d_3">
    <path style="fill: none; stroke: #f5deb3; stroke-width: 4; stroke-linecap: square"/>
    <g/>
   </g>
   <g id="line2d_4">
    <path d="M 360.8064 27.648 
L 380.514816 33.07392 
" style="fill: none; stroke: #f5deb3; stroke-width: 4; stroke-linecap: square"/>
    <g>
     <use xlink:href="#m98c31ea7b4" x="360.8064" y="27.648" style="fill: #f5deb3; stroke: #f5deb3; stroke-width: 1.5; stroke-linejoin: miter"/>
     <use xlink:href="#m98c31ea7b4" x="380.514816" y="33.07392" style="fill: #f5deb3; stroke: #f5deb3; stroke-width: 1.5; stroke-linejoin: miter"/>
    </g>
   </g>
   <g id="matplotlib.axis_1">
    <g id="xtick_1">
     <g id="line2d_5">
      <path d="M 57.6 298.944 
L 57.6 27.648 
" clip-path="url(#pb225f2b045)" style="fill: none; stroke: #b0b0b0; stroke-width: 0.8; stroke-linecap: square"/>
     </g>
     <g id="line2d_6">
      <defs>
       <path id="m351794bb3d" d="M 0 0 
L 0 3.5 
" style="stroke: #000000; stroke-width: 0.8"/>
      </defs>
      <g>
       <use xlink:href="#m351794bb3d" x="57.6" y="298.944" style="stroke: #000000; stroke-width: 0.8"/>
      </g>
     </g>
     <g id="text_1">
      <!-- 0 -->
      <g transform="translate(52.191875 318.861344)scale(0.17 -0.17)">
       <defs>
        <path id="DejaVuSans-30" d="M 2034 4250 
Q 1547 4250 1301 3770 
Q 1056 3291 1056 2328 
Q 1056 1369 1301 889 
Q 1547 409 2034 409 
Q 2525 409 2770 889 
Q 3016 1369 3016 2328 
Q 3016 3291 2770 3770 
Q 2525 4250 2034 4250 
z
M 2034 4750 
Q 2819 4750 3233 4129 
Q 3647 3509 3647 2328 
Q 3647 1150 3233 529 
Q 2819 -91 2034 -91 
Q 1250 -91 836 529 
Q 422 1150 422 2328 
Q 422 3509 836 4129 
Q 1250 4750 2034 4750 
z
" transform="scale(0.015625)"/>
       </defs>
       <use xlink:href="#DejaVuSans-30"/>
      </g>
     </g>
    </g>
    <g id="xtick_2">
     <g id="line2d_7">
      <path d="M 144.2304 298.944 
L 144.2304 27.648 
" clip-path="url(#pb225f2b045)" style="fill: none; stroke: #b0b0b0; stroke-width: 0.8; stroke-linecap: square"/>
     </g>
     <g id="line2d_8">
      <g>
       <use xlink:href="#m351794bb3d" x="144.2304" y="298.944" style="stroke: #000000; stroke-width: 0.8"/>
      </g>
     </g>
     <g id="text_2">
      <!-- 2 -->
      <g transform="translate(138.822275 318.861344)scale(0.17 -0.17)">
       <defs>
        <path id="DejaVuSans-32" d="M 1228 531 
L 3431 531 
L 3431 0 
L 469 0 
L 469 531 
Q 828 903 1448 1529 
Q 2069 2156 2228 2338 
Q 2531 2678 2651 2914 
Q 2772 3150 2772 3378 
Q 2772 3750 2511 3984 
Q 2250 4219 1831 4219 
Q 1534 4219 1204 4116 
Q 875 4013 500 3803 
L 500 4441 
Q 881 4594 1212 4672 
Q 1544 4750 1819 4750 
Q 2544 4750 2975 4387 
Q 3406 4025 3406 3419 
Q 3406 3131 3298 2873 
Q 3191 2616 2906 2266 
Q 2828 2175 2409 1742 
Q 1991 1309 1228 531 
z
" transform="scale(0.015625)"/>
       </defs>
       <use xlink:href="#DejaVuSans-32"/>
      </g>
     </g>
    </g>
    <g id="xtick_3">
     <g id="line2d_9">
      <path d="M 230.8608 298.944 
L 230.8608 27.648 
" clip-path="url(#pb225f2b045)" style="fill: none; stroke: #b0b0b0; stroke-width: 0.8; stroke-linecap: square"/>
     </g>
     <g id="line2d_10">
      <g>
       <use xlink:href="#m351794bb3d" x="230.8608" y="298.944" style="stroke: #000000; stroke-width: 0.8"/>
      </g>
     </g>
     <g id="text_3">
      <!-- 4 -->
      <g transform="translate(225.452675 318.861344)scale(0.17 -0.17)">
       <defs>
        <path id="DejaVuSans-34" d="M 2419 4116 
L 825 1625 
L 2419 1625 
L 2419 4116 
z
M 2253 4666 
L 3047 4666 
L 3047 1625 
L 3713 1625 
L 3713 1100 
L 3047 1100 
L 3047 0 
L 2419 0 
L 2419 1100 
L 313 1100 
L 313 1709 
L 2253 4666 
z
" transform="scale(0.015625)"/>
       </defs>
       <use xlink:href="#DejaVuSans-34"/>
      </g>
     </g>
    </g>
    <g id="xtick_4">
     <g id="line2d_11">
      <path d="M 317.4912 298.944 
L 317.4912 27.648 
" clip-path="url(#pb225f2b045)" style="fill: none; stroke: #b0b0b0; stroke-width: 0.8; stroke-linecap: square"/>
     </g>
     <g id="line2d_12">
      <g>
       <use xlink:href="#m351794bb3d" x="317.4912" y="298.944" style="stroke: #000000; stroke-width: 0.8"/>
      </g>
     </g>
     <g id="text_4">
      <!-- 6 -->
      <g transform="translate(312.083075 318.861344)scale(0.17 -0.17)">
       <defs>
        <path id="DejaVuSans-36" d="M 2113 2584 
Q 1688 2584 1439 2293 
Q 1191 2003 1191 1497 
Q 1191 994 1439 701 
Q 1688 409 2113 409 
Q 2538 409 2786 701 
Q 3034 994 3034 1497 
Q 3034 2003 2786 2293 
Q 2538 2584 2113 2584 
z
M 3366 4563 
L 3366 3988 
Q 3128 4100 2886 4159 
Q 2644 4219 2406 4219 
Q 1781 4219 1451 3797 
Q 1122 3375 1075 2522 
Q 1259 2794 1537 2939 
Q 1816 3084 2150 3084 
Q 2853 3084 3261 2657 
Q 3669 2231 3669 1497 
Q 3669 778 3244 343 
Q 2819 -91 2113 -91 
Q 1303 -91 875 529 
Q 447 1150 447 2328 
Q 447 3434 972 4092 
Q 1497 4750 2381 4750 
Q 2619 4750 2861 4703 
Q 3103 4656 3366 4563 
z
" transform="scale(0.015625)"/>
       </defs>
       <use xlink:href="#DejaVuSans-36"/>
      </g>
     </g>
    </g>
    <g id="xtick_5">
     <g id="line2d_13">
      <path d="M 100.9152 298.944 
L 100.9152 27.648 
" clip-path="url(#pb225f2b045)" style="fill: none; stroke: #b0b0b0; stroke-width: 0.8; stroke-linecap: square"/>
     </g>
     <g id="line2d_14">
      <defs>
       <path id="m3e3ec24839" d="M 0 0 
L 0 2 
" style="stroke: #000000; stroke-width: 0.6"/>
      </defs>
      <g>
       <use xlink:href="#m3e3ec24839" x="100.9152" y="298.944" style="stroke: #000000; stroke-width: 0.6"/>
      </g>
     </g>
    </g>
    <g id="xtick_6">
     <g id="line2d_15">
      <path d="M 187.5456 298.944 
L 187.5456 27.648 
" clip-path="url(#pb225f2b045)" style="fill: none; stroke: #b0b0b0; stroke-width: 0.8; stroke-linecap: square"/>
     </g>
     <g id="line2d_16">
      <g>
       <use xlink:href="#m3e3ec24839" x="187.5456" y="298.944" style="stroke: #000000; stroke-width: 0.6"/>
      </g>
     </g>
    </g>
    <g id="xtick_7">
     <g id="line2d_17">
      <path d="M 274.176 298.944 
L 274.176 27.648 
" clip-path="url(#pb225f2b045)" style="fill: none; stroke: #b0b0b0; stroke-width: 0.8; stroke-linecap: square"/>
     </g>
     <g id="line2d_18">
      <g>
       <use xlink:href="#m3e3ec24839" x="274.176" y="298.944" style="stroke: #000000; stroke-width: 0.6"/>
      </g>
     </g>
    </g>
    <g id="xtick_8">
     <g id="line2d_19">
      <path d="M 360.8064 298.944 
L 360.8064 27.648 
" clip-path="url(#pb225f2b045)" style="fill: none; stroke: #b0b0b0; stroke-width: 0.8; stroke-linecap: square"/>
     </g>
     <g id="line2d_20">
      <g>
       <use xlink:href="#m3e3ec24839" x="360.8064" y="298.944" style="stroke: #000000; stroke-width: 0.6"/>
      </g>
     </g>
    </g>
    <g id="text_5">
     <!-- log10(# f-evals / dimension) -->
     <g transform="translate(88.823278 339.314156)scale(0.17 -0.17)">
      <defs>
       <path id="DejaVuSans-6c" d="M 603 4863 
L 1178 4863 
L 1178 0 
L 603 0 
L 603 4863 
z
" transform="scale(0.015625)"/>
       <path id="DejaVuSans-6f" d="M 1959 3097 
Q 1497 3097 1228 2736 
Q 959 2375 959 1747 
Q 959 1119 1226 758 
Q 1494 397 1959 397 
Q 2419 397 2687 759 
Q 2956 1122 2956 1747 
Q 2956 2369 2687 2733 
Q 2419 3097 1959 3097 
z
M 1959 3584 
Q 2709 3584 3137 3096 
Q 3566 2609 3566 1747 
Q 3566 888 3137 398 
Q 2709 -91 1959 -91 
Q 1206 -91 779 398 
Q 353 888 353 1747 
Q 353 2609 779 3096 
Q 1206 3584 1959 3584 
z
" transform="scale(0.015625)"/>
       <path id="DejaVuSans-67" d="M 2906 1791 
Q 2906 2416 2648 2759 
Q 2391 3103 1925 3103 
Q 1463 3103 1205 2759 
Q 947 2416 947 1791 
Q 947 1169 1205 825 
Q 1463 481 1925 481 
Q 2391 481 2648 825 
Q 2906 1169 2906 1791 
z
M 3481 434 
Q 3481 -459 3084 -895 
Q 2688 -1331 1869 -1331 
Q 1566 -1331 1297 -1286 
Q 1028 -1241 775 -1147 
L 775 -588 
Q 1028 -725 1275 -790 
Q 1522 -856 1778 -856 
Q 2344 -856 2625 -561 
Q 2906 -266 2906 331 
L 2906 616 
Q 2728 306 2450 153 
Q 2172 0 1784 0 
Q 1141 0 747 490 
Q 353 981 353 1791 
Q 353 2603 747 3093 
Q 1141 3584 1784 3584 
Q 2172 3584 2450 3431 
Q 2728 3278 2906 2969 
L 2906 3500 
L 3481 3500 
L 3481 434 
z
" transform="scale(0.015625)"/>
       <path id="DejaVuSans-31" d="M 794 531 
L 1825 531 
L 1825 4091 
L 703 3866 
L 703 4441 
L 1819 4666 
L 2450 4666 
L 2450 531 
L 3481 531 
L 3481 0 
L 794 0 
L 794 531 
z
" transform="scale(0.015625)"/>
       <path id="DejaVuSans-28" d="M 1984 4856 
Q 1566 4138 1362 3434 
Q 1159 2731 1159 2009 
Q 1159 1288 1364 580 
Q 1569 -128 1984 -844 
L 1484 -844 
Q 1016 -109 783 600 
Q 550 1309 550 2009 
Q 550 2706 781 3412 
Q 1013 4119 1484 4856 
L 1984 4856 
z
" transform="scale(0.015625)"/>
       <path id="DejaVuSans-23" d="M 3272 2816 
L 2363 2816 
L 2100 1772 
L 3016 1772 
L 3272 2816 
z
M 2803 4594 
L 2478 3297 
L 3391 3297 
L 3719 4594 
L 4219 4594 
L 3897 3297 
L 4872 3297 
L 4872 2816 
L 3775 2816 
L 3519 1772 
L 4513 1772 
L 4513 1294 
L 3397 1294 
L 3072 0 
L 2572 0 
L 2894 1294 
L 1978 1294 
L 1656 0 
L 1153 0 
L 1478 1294 
L 494 1294 
L 494 1772 
L 1594 1772 
L 1856 2816 
L 850 2816 
L 850 3297 
L 1978 3297 
L 2297 4594 
L 2803 4594 
z
" transform="scale(0.015625)"/>
       <path id="DejaVuSans-20" transform="scale(0.015625)"/>
       <path id="DejaVuSans-66" d="M 2375 4863 
L 2375 4384 
L 1825 4384 
Q 1516 4384 1395 4259 
Q 1275 4134 1275 3809 
L 1275 3500 
L 2222 3500 
L 2222 3053 
L 1275 3053 
L 1275 0 
L 697 0 
L 697 3053 
L 147 3053 
L 147 3500 
L 697 3500 
L 697 3744 
Q 697 4328 969 4595 
Q 1241 4863 1831 4863 
L 2375 4863 
z
" transform="scale(0.015625)"/>
       <path id="DejaVuSans-2d" d="M 313 2009 
L 1997 2009 
L 1997 1497 
L 313 1497 
L 313 2009 
z
" transform="scale(0.015625)"/>
       <path id="DejaVuSans-65" d="M 3597 1894 
L 3597 1613 
L 953 1613 
Q 991 1019 1311 708 
Q 1631 397 2203 397 
Q 2534 397 2845 478 
Q 3156 559 3463 722 
L 3463 178 
Q 3153 47 2828 -22 
Q 2503 -91 2169 -91 
Q 1331 -91 842 396 
Q 353 884 353 1716 
Q 353 2575 817 3079 
Q 1281 3584 2069 3584 
Q 2775 3584 3186 3129 
Q 3597 2675 3597 1894 
z
M 3022 2063 
Q 3016 2534 2758 2815 
Q 2500 3097 2075 3097 
Q 1594 3097 1305 2825 
Q 1016 2553 972 2059 
L 3022 2063 
z
" transform="scale(0.015625)"/>
       <path id="DejaVuSans-76" d="M 191 3500 
L 800 3500 
L 1894 563 
L 2988 3500 
L 3597 3500 
L 2284 0 
L 1503 0 
L 191 3500 
z
" transform="scale(0.015625)"/>
       <path id="DejaVuSans-61" d="M 2194 1759 
Q 1497 1759 1228 1600 
Q 959 1441 959 1056 
Q 959 750 1161 570 
Q 1363 391 1709 391 
Q 2188 391 2477 730 
Q 2766 1069 2766 1631 
L 2766 1759 
L 2194 1759 
z
M 3341 1997 
L 3341 0 
L 2766 0 
L 2766 531 
Q 2569 213 2275 61 
Q 1981 -91 1556 -91 
Q 1019 -91 701 211 
Q 384 513 384 1019 
Q 384 1609 779 1909 
Q 1175 2209 1959 2209 
L 2766 2209 
L 2766 2266 
Q 2766 2663 2505 2880 
Q 2244 3097 1772 3097 
Q 1472 3097 1187 3025 
Q 903 2953 641 2809 
L 641 3341 
Q 956 3463 1253 3523 
Q 1550 3584 1831 3584 
Q 2591 3584 2966 3190 
Q 3341 2797 3341 1997 
z
" transform="scale(0.015625)"/>
       <path id="DejaVuSans-73" d="M 2834 3397 
L 2834 2853 
Q 2591 2978 2328 3040 
Q 2066 3103 1784 3103 
Q 1356 3103 1142 2972 
Q 928 2841 928 2578 
Q 928 2378 1081 2264 
Q 1234 2150 1697 2047 
L 1894 2003 
Q 2506 1872 2764 1633 
Q 3022 1394 3022 966 
Q 3022 478 2636 193 
Q 2250 -91 1575 -91 
Q 1294 -91 989 -36 
Q 684 19 347 128 
L 347 722 
Q 666 556 975 473 
Q 1284 391 1588 391 
Q 1994 391 2212 530 
Q 2431 669 2431 922 
Q 2431 1156 2273 1281 
Q 2116 1406 1581 1522 
L 1381 1569 
Q 847 1681 609 1914 
Q 372 2147 372 2553 
Q 372 3047 722 3315 
Q 1072 3584 1716 3584 
Q 2034 3584 2315 3537 
Q 2597 3491 2834 3397 
z
" transform="scale(0.015625)"/>
       <path id="DejaVuSans-2f" d="M 1625 4666 
L 2156 4666 
L 531 -594 
L 0 -594 
L 1625 4666 
z
" transform="scale(0.015625)"/>
       <path id="DejaVuSans-64" d="M 2906 2969 
L 2906 4863 
L 3481 4863 
L 3481 0 
L 2906 0 
L 2906 525 
Q 2725 213 2448 61 
Q 2172 -91 1784 -91 
Q 1150 -91 751 415 
Q 353 922 353 1747 
Q 353 2572 751 3078 
Q 1150 3584 1784 3584 
Q 2172 3584 2448 3432 
Q 2725 3281 2906 2969 
z
M 947 1747 
Q 947 1113 1208 752 
Q 1469 391 1925 391 
Q 2381 391 2643 752 
Q 2906 1113 2906 1747 
Q 2906 2381 2643 2742 
Q 2381 3103 1925 3103 
Q 1469 3103 1208 2742 
Q 947 2381 947 1747 
z
" transform="scale(0.015625)"/>
       <path id="DejaVuSans-69" d="M 603 3500 
L 1178 3500 
L 1178 0 
L 603 0 
L 603 3500 
z
M 603 4863 
L 1178 4863 
L 1178 4134 
L 603 4134 
L 603 4863 
z
" transform="scale(0.015625)"/>
       <path id="DejaVuSans-6d" d="M 3328 2828 
Q 3544 3216 3844 3400 
Q 4144 3584 4550 3584 
Q 5097 3584 5394 3201 
Q 5691 2819 5691 2113 
L 5691 0 
L 5113 0 
L 5113 2094 
Q 5113 2597 4934 2840 
Q 4756 3084 4391 3084 
Q 3944 3084 3684 2787 
Q 3425 2491 3425 1978 
L 3425 0 
L 2847 0 
L 2847 2094 
Q 2847 2600 2669 2842 
Q 2491 3084 2119 3084 
Q 1678 3084 1418 2786 
Q 1159 2488 1159 1978 
L 1159 0 
L 581 0 
L 581 3500 
L 1159 3500 
L 1159 2956 
Q 1356 3278 1631 3431 
Q 1906 3584 2284 3584 
Q 2666 3584 2933 3390 
Q 3200 3197 3328 2828 
z
" transform="scale(0.015625)"/>
       <path id="DejaVuSans-6e" d="M 3513 2113 
L 3513 0 
L 2938 0 
L 2938 2094 
Q 2938 2591 2744 2837 
Q 2550 3084 2163 3084 
Q 1697 3084 1428 2787 
Q 1159 2491 1159 1978 
L 1159 0 
L 581 0 
L 581 3500 
L 1159 3500 
L 1159 2956 
Q 1366 3272 1645 3428 
Q 1925 3584 2291 3584 
Q 2894 3584 3203 3211 
Q 3513 2838 3513 2113 
z
" transform="scale(0.015625)"/>
       <path id="DejaVuSans-29" d="M 513 4856 
L 1013 4856 
Q 1481 4119 1714 3412 
Q 1947 2706 1947 2009 
Q 1947 1309 1714 600 
Q 1481 -109 1013 -844 
L 513 -844 
Q 928 -128 1133 580 
Q 1338 1288 1338 2009 
Q 1338 2731 1133 3434 
Q 928 4138 513 4856 
z
" transform="scale(0.015625)"/>
      </defs>
      <use xlink:href="#DejaVuSans-6c"/>
      <use xlink:href="#DejaVuSans-6f" x="27.783203"/>
      <use xlink:href="#DejaVuSans-67" x="88.964844"/>
      <use xlink:href="#DejaVuSans-31" x="152.441406"/>
      <use xlink:href="#DejaVuSans-30" x="216.064453"/>
      <use xlink:href="#DejaVuSans-28" x="279.6875"/>
      <use xlink:href="#DejaVuSans-23" x="318.701172"/>
      <use xlink:href="#DejaVuSans-20" x="402.490234"/>
      <use xlink:href="#DejaVuSans-66" x="434.277344"/>
      <use xlink:href="#DejaVuSans-2d" x="463.982422"/>
      <use xlink:href="#DejaVuSans-65" x="500.066406"/>
      <use xlink:href="#DejaVuSans-76" x="561.589844"/>
      <use xlink:href="#DejaVuSans-61" x="620.769531"/>
      <use xlink:href="#DejaVuSans-6c" x="682.048828"/>
      <use xlink:href="#DejaVuSans-73" x="709.832031"/>
      <use xlink:href="#DejaVuSans-20" x="761.931641"/>
      <use xlink:href="#DejaVuSans-2f" x="793.71875"/>
      <use xlink:href="#DejaVuSans-20" x="827.410156"/>
      <use xlink:href="#DejaVuSans-64" x="859.197266"/>
      <use xlink:href="#DejaVuSans-69" x="922.673828"/>
      <use xlink:href="#DejaVuSans-6d" x="950.457031"/>
      <use xlink:href="#DejaVuSans-65" x="1047.869141"/>
      <use xlink:href="#DejaVuSans-6e" x="1109.392578"/>
      <use xlink:href="#DejaVuSans-73" x="1172.771484"/>
      <use xlink:href="#DejaVuSans-69" x="1224.871094"/>
      <use xlink:href="#DejaVuSans-6f" x="1252.654297"/>
      <use xlink:href="#DejaVuSans-6e" x="1313.835938"/>
      <use xlink:href="#DejaVuSans-29" x="1377.214844"/>
     </g>
    </g>
   </g>
   <g id="matplotlib.axis_2">
    <g id="ytick_1">
     <g id="line2d_21">
      <path d="M 57.6 298.944 
L 360.8064 298.944 
" clip-path="url(#pb225f2b045)" style="fill: none; stroke: #b0b0b0; stroke-width: 0.8; stroke-linecap: square"/>
     </g>
     <g id="line2d_22">
      <defs>
       <path id="m75778afb36" d="M 0 0 
L -3.5 0 
" style="stroke: #000000; stroke-width: 0.8"/>
      </defs>
      <g>
       <use xlink:href="#m75778afb36" x="57.6" y="298.944" style="stroke: #000000; stroke-width: 0.8"/>
      </g>
     </g>
     <g id="text_6">
      <!-- 0.0 -->
      <g transform="translate(25.155 305.02275)scale(0.16 -0.16)">
       <defs>
        <path id="DejaVuSans-2e" d="M 684 794 
L 1344 794 
L 1344 0 
L 684 0 
L 684 794 
z
" transform="scale(0.015625)"/>
       </defs>
       <use xlink:href="#DejaVuSans-30"/>
       <use xlink:href="#DejaVuSans-2e" x="63.623047"/>
       <use xlink:href="#DejaVuSans-30" x="95.410156"/>
      </g>
     </g>
    </g>
    <g id="ytick_2">
     <g id="line2d_23">
      <path d="M 57.6 244.6848 
L 360.8064 244.6848 
" clip-path="url(#pb225f2b045)" style="fill: none; stroke: #b0b0b0; stroke-width: 0.8; stroke-linecap: square"/>
     </g>
     <g id="line2d_24">
      <g>
       <use xlink:href="#m75778afb36" x="57.6" y="244.6848" style="stroke: #000000; stroke-width: 0.8"/>
      </g>
     </g>
     <g id="text_7">
      <!-- 0.2 -->
      <g transform="translate(25.155 250.76355)scale(0.16 -0.16)">
       <use xlink:href="#DejaVuSans-30"/>
       <use xlink:href="#DejaVuSans-2e" x="63.623047"/>
       <use xlink:href="#DejaVuSans-32" x="95.410156"/>
      </g>
     </g>
    </g>
    <g id="ytick_3">
     <g id="line2d_25">
      <path d="M 57.6 190.4256 
L 360.8064 190.4256 
" clip-path="url(#pb225f2b045)" style="fill: none; stroke: #b0b0b0; stroke-width: 0.8; stroke-linecap: square"/>
     </g>
     <g id="line2d_26">
      <g>
       <use xlink:href="#m75778afb36" x="57.6" y="190.4256" style="stroke: #000000; stroke-width: 0.8"/>
      </g>
     </g>
     <g id="text_8">
      <!-- 0.4 -->
      <g transform="translate(25.155 196.50435)scale(0.16 -0.16)">
       <use xlink:href="#DejaVuSans-30"/>
       <use xlink:href="#DejaVuSans-2e" x="63.623047"/>
       <use xlink:href="#DejaVuSans-34" x="95.410156"/>
      </g>
     </g>
    </g>
    <g id="ytick_4">
     <g id="line2d_27">
      <path d="M 57.6 136.1664 
L 360.8064 136.1664 
" clip-path="url(#pb225f2b045)" style="fill: none; stroke: #b0b0b0; stroke-width: 0.8; stroke-linecap: square"/>
     </g>
     <g id="line2d_28">
      <g>
       <use xlink:href="#m75778afb36" x="57.6" y="136.1664" style="stroke: #000000; stroke-width: 0.8"/>
      </g>
     </g>
     <g id="text_9">
      <!-- 0.6 -->
      <g transform="translate(25.155 142.24515)scale(0.16 -0.16)">
       <use xlink:href="#DejaVuSans-30"/>
       <use xlink:href="#DejaVuSans-2e" x="63.623047"/>
       <use xlink:href="#DejaVuSans-36" x="95.410156"/>
      </g>
     </g>
    </g>
    <g id="ytick_5">
     <g id="line2d_29">
      <path d="M 57.6 81.9072 
L 360.8064 81.9072 
" clip-path="url(#pb225f2b045)" style="fill: none; stroke: #b0b0b0; stroke-width: 0.8; stroke-linecap: square"/>
     </g>
     <g id="line2d_30">
      <g>
       <use xlink:href="#m75778afb36" x="57.6" y="81.9072" style="stroke: #000000; stroke-width: 0.8"/>
      </g>
     </g>
     <g id="text_10">
      <!-- 0.8 -->
      <g transform="translate(25.155 87.98595)scale(0.16 -0.16)">
       <defs>
        <path id="DejaVuSans-38" d="M 2034 2216 
Q 1584 2216 1326 1975 
Q 1069 1734 1069 1313 
Q 1069 891 1326 650 
Q 1584 409 2034 409 
Q 2484 409 2743 651 
Q 3003 894 3003 1313 
Q 3003 1734 2745 1975 
Q 2488 2216 2034 2216 
z
M 1403 2484 
Q 997 2584 770 2862 
Q 544 3141 544 3541 
Q 544 4100 942 4425 
Q 1341 4750 2034 4750 
Q 2731 4750 3128 4425 
Q 3525 4100 3525 3541 
Q 3525 3141 3298 2862 
Q 3072 2584 2669 2484 
Q 3125 2378 3379 2068 
Q 3634 1759 3634 1313 
Q 3634 634 3220 271 
Q 2806 -91 2034 -91 
Q 1263 -91 848 271 
Q 434 634 434 1313 
Q 434 1759 690 2068 
Q 947 2378 1403 2484 
z
M 1172 3481 
Q 1172 3119 1398 2916 
Q 1625 2713 2034 2713 
Q 2441 2713 2670 2916 
Q 2900 3119 2900 3481 
Q 2900 3844 2670 4047 
Q 2441 4250 2034 4250 
Q 1625 4250 1398 4047 
Q 1172 3844 1172 3481 
z
" transform="scale(0.015625)"/>
       </defs>
       <use xlink:href="#DejaVuSans-30"/>
       <use xlink:href="#DejaVuSans-2e" x="63.623047"/>
       <use xlink:href="#DejaVuSans-38" x="95.410156"/>
      </g>
     </g>
    </g>
    <g id="ytick_6">
     <g id="line2d_31">
      <path d="M 57.6 27.648 
L 360.8064 27.648 
" clip-path="url(#pb225f2b045)" style="fill: none; stroke: #b0b0b0; stroke-width: 0.8; stroke-linecap: square"/>
     </g>
     <g id="line2d_32">
      <g>
       <use xlink:href="#m75778afb36" x="57.6" y="27.648" style="stroke: #000000; stroke-width: 0.8"/>
      </g>
     </g>
     <g id="text_11">
      <!-- 1.0 -->
      <g transform="translate(25.155 33.72675)scale(0.16 -0.16)">
       <use xlink:href="#DejaVuSans-31"/>
       <use xlink:href="#DejaVuSans-2e" x="63.623047"/>
       <use xlink:href="#DejaVuSans-30" x="95.410156"/>
      </g>
     </g>
    </g>
    <g id="text_12">
     <!-- Fraction of function,target pairs -->
     <g transform="translate(17.619531 297.681)rotate(-90)scale(0.17 -0.17)">
      <defs>
       <path id="DejaVuSans-46" d="M 628 4666 
L 3309 4666 
L 3309 4134 
L 1259 4134 
L 1259 2759 
L 3109 2759 
L 3109 2228 
L 1259 2228 
L 1259 0 
L 628 0 
L 628 4666 
z
" transform="scale(0.015625)"/>
       <path id="DejaVuSans-72" d="M 2631 2963 
Q 2534 3019 2420 3045 
Q 2306 3072 2169 3072 
Q 1681 3072 1420 2755 
Q 1159 2438 1159 1844 
L 1159 0 
L 581 0 
L 581 3500 
L 1159 3500 
L 1159 2956 
Q 1341 3275 1631 3429 
Q 1922 3584 2338 3584 
Q 2397 3584 2469 3576 
Q 2541 3569 2628 3553 
L 2631 2963 
z
" transform="scale(0.015625)"/>
       <path id="DejaVuSans-63" d="M 3122 3366 
L 3122 2828 
Q 2878 2963 2633 3030 
Q 2388 3097 2138 3097 
Q 1578 3097 1268 2742 
Q 959 2388 959 1747 
Q 959 1106 1268 751 
Q 1578 397 2138 397 
Q 2388 397 2633 464 
Q 2878 531 3122 666 
L 3122 134 
Q 2881 22 2623 -34 
Q 2366 -91 2075 -91 
Q 1284 -91 818 406 
Q 353 903 353 1747 
Q 353 2603 823 3093 
Q 1294 3584 2113 3584 
Q 2378 3584 2631 3529 
Q 2884 3475 3122 3366 
z
" transform="scale(0.015625)"/>
       <path id="DejaVuSans-74" d="M 1172 4494 
L 1172 3500 
L 2356 3500 
L 2356 3053 
L 1172 3053 
L 1172 1153 
Q 1172 725 1289 603 
Q 1406 481 1766 481 
L 2356 481 
L 2356 0 
L 1766 0 
Q 1100 0 847 248 
Q 594 497 594 1153 
L 594 3053 
L 172 3053 
L 172 3500 
L 594 3500 
L 594 4494 
L 1172 4494 
z
" transform="scale(0.015625)"/>
       <path id="DejaVuSans-75" d="M 544 1381 
L 544 3500 
L 1119 3500 
L 1119 1403 
Q 1119 906 1312 657 
Q 1506 409 1894 409 
Q 2359 409 2629 706 
Q 2900 1003 2900 1516 
L 2900 3500 
L 3475 3500 
L 3475 0 
L 2900 0 
L 2900 538 
Q 2691 219 2414 64 
Q 2138 -91 1772 -91 
Q 1169 -91 856 284 
Q 544 659 544 1381 
z
M 1991 3584 
L 1991 3584 
z
" transform="scale(0.015625)"/>
       <path id="DejaVuSans-2c" d="M 750 794 
L 1409 794 
L 1409 256 
L 897 -744 
L 494 -744 
L 750 256 
L 750 794 
z
" transform="scale(0.015625)"/>
       <path id="DejaVuSans-70" d="M 1159 525 
L 1159 -1331 
L 581 -1331 
L 581 3500 
L 1159 3500 
L 1159 2969 
Q 1341 3281 1617 3432 
Q 1894 3584 2278 3584 
Q 2916 3584 3314 3078 
Q 3713 2572 3713 1747 
Q 3713 922 3314 415 
Q 2916 -91 2278 -91 
Q 1894 -91 1617 61 
Q 1341 213 1159 525 
z
M 3116 1747 
Q 3116 2381 2855 2742 
Q 2594 3103 2138 3103 
Q 1681 3103 1420 2742 
Q 1159 2381 1159 1747 
Q 1159 1113 1420 752 
Q 1681 391 2138 391 
Q 2594 391 2855 752 
Q 3116 1113 3116 1747 
z
" transform="scale(0.015625)"/>
      </defs>
      <use xlink:href="#DejaVuSans-46"/>
      <use xlink:href="#DejaVuSans-72" x="50.269531"/>
      <use xlink:href="#DejaVuSans-61" x="91.382812"/>
      <use xlink:href="#DejaVuSans-63" x="152.662109"/>
      <use xlink:href="#DejaVuSans-74" x="207.642578"/>
      <use xlink:href="#DejaVuSans-69" x="246.851562"/>
      <use xlink:href="#DejaVuSans-6f" x="274.634766"/>
      <use xlink:href="#DejaVuSans-6e" x="335.816406"/>
      <use xlink:href="#DejaVuSans-20" x="399.195312"/>
      <use xlink:href="#DejaVuSans-6f" x="430.982422"/>
      <use xlink:href="#DejaVuSans-66" x="492.164062"/>
      <use xlink:href="#DejaVuSans-20" x="527.369141"/>
      <use xlink:href="#DejaVuSans-66" x="559.15625"/>
      <use xlink:href="#DejaVuSans-75" x="594.361328"/>
      <use xlink:href="#DejaVuSans-6e" x="657.740234"/>
      <use xlink:href="#DejaVuSans-63" x="721.119141"/>
      <use xlink:href="#DejaVuSans-74" x="776.099609"/>
      <use xlink:href="#DejaVuSans-69" x="815.308594"/>
      <use xlink:href="#DejaVuSans-6f" x="843.091797"/>
      <use xlink:href="#DejaVuSans-6e" x="904.273438"/>
      <use xlink:href="#DejaVuSans-2c" x="967.652344"/>
      <use xlink:href="#DejaVuSans-74" x="999.439453"/>
      <use xlink:href="#DejaVuSans-61" x="1038.648438"/>
      <use xlink:href="#DejaVuSans-72" x="1099.927734"/>
      <use xlink:href="#DejaVuSans-67" x="1139.291016"/>
      <use xlink:href="#DejaVuSans-65" x="1202.767578"/>
      <use xlink:href="#DejaVuSans-74" x="1264.291016"/>
      <use xlink:href="#DejaVuSans-20" x="1303.5"/>
      <use xlink:href="#DejaVuSans-70" x="1335.287109"/>
      <use xlink:href="#DejaVuSans-61" x="1398.763672"/>
      <use xlink:href="#DejaVuSans-69" x="1460.042969"/>
      <use xlink:href="#DejaVuSans-72" x="1487.826172"/>
      <use xlink:href="#DejaVuSans-73" x="1528.939453"/>
     </g>
    </g>
   </g>
   <g id="line2d_33">
    <defs>
     <path id="m0c7e6dd706" d="M 0 1.5 
C 0.397805 1.5 0.77937 1.341951 1.06066 1.06066 
C 1.341951 0.77937 1.5 0.397805 1.5 0 
C 1.5 -0.397805 1.341951 -0.77937 1.06066 -1.06066 
C 0.77937 -1.341951 0.397805 -1.5 0 -1.5 
C -0.397805 -1.5 -0.77937 -1.341951 -1.06066 -1.06066 
C -1.341951 -0.77937 -1.5 -0.397805 -1.5 0 
C -1.5 0.397805 -1.341951 0.77937 -1.06066 1.06066 
C -0.77937 1.341951 -0.397805 1.5 0 1.5 
z
" style="stroke: #f5deb3"/>
    </defs>
    <g>
     <use xlink:href="#m0c7e6dd706" x="71.999638" y="27.648" style="fill: #f5deb3; stroke: #f5deb3"/>
     <use xlink:href="#m0c7e6dd706" x="71.999638" y="27.648" style="fill: #f5deb3; stroke: #f5deb3"/>
    </g>
   </g>
   <g id="line2d_34">
    <defs>
     <path id="m2ce652d351" d="M 0 1.5 
C 0.397805 1.5 0.77937 1.341951 1.06066 1.06066 
C 1.341951 0.77937 1.5 0.397805 1.5 0 
C 1.5 -0.397805 1.341951 -0.77937 1.06066 -1.06066 
C 0.77937 -1.341951 0.397805 -1.5 0 -1.5 
C -0.397805 -1.5 -0.77937 -1.341951 -1.06066 -1.06066 
C -1.341951 -0.77937 -1.5 -0.397805 -1.5 0 
C -1.5 0.397805 -1.341951 0.77937 -1.06066 1.06066 
C -0.77937 1.341951 -0.397805 1.5 0 1.5 
z
" style="stroke: #000080"/>
    </defs>
    <g>
     <use xlink:href="#m2ce652d351" x="179.242608" y="27.648" style="fill: #000080; stroke: #000080"/>
     <use xlink:href="#m2ce652d351" x="179.242608" y="27.648" style="fill: #000080; stroke: #000080"/>
    </g>
   </g>
   <g id="line2d_35">
    <path d="M 1.245626 298.944 
L 1.245626 296.816188 
L 34.951403 296.816188 
L 34.951403 296.603407 
L 37.851216 296.603407 
L 37.851216 296.390626 
L 53.402323 296.390626 
L 53.402323 295.965064 
L 54.542767 295.965064 
L 54.542767 295.752282 
L 55.618005 295.752282 
L 55.618005 295.539501 
L 57.6 295.539501 
L 57.6 295.32672 
L 61.029752 295.32672 
L 61.029752 294.901158 
L 62.535479 294.901158 
L 62.535479 294.688376 
L 63.245433 294.688376 
L 63.245433 294.475595 
L 64.589687 294.475595 
L 64.589687 294.262814 
L 65.844256 294.262814 
L 65.844256 294.050033 
L 67.020361 294.050033 
L 67.020361 293.837252 
L 69.674268 293.837252 
L 69.674268 293.411689 
L 72.432107 293.411689 
L 72.432107 293.198908 
L 74.456807 293.198908 
L 74.456807 292.986127 
L 74.836851 292.986127 
L 74.836851 292.560565 
L 76.629783 292.560565 
L 76.629783 292.347784 
L 77.301696 292.347784 
L 77.301696 292.135002 
L 78.577544 292.135002 
L 78.577544 291.922221 
L 79.184421 291.922221 
L 79.184421 291.70944 
L 80.342421 291.638513 
L 80.342421 291.567586 
L 80.621116 291.567586 
L 80.621116 291.354805 
L 81.955828 291.354805 
L 81.955828 291.000169 
L 82.713442 290.929242 
L 82.713442 290.716461 
L 82.959349 290.716461 
L 82.959349 290.50368 
L 83.678349 290.50368 
L 83.678349 290.290899 
L 84.142855 290.290899 
L 84.142855 290.078118 
L 85.25629 290.078118 
L 85.25629 289.865336 
L 86.510858 289.865336 
L 86.510858 289.652555 
L 87.495981 289.652555 
L 87.495981 289.014212 
L 87.686963 289.014212 
L 87.686963 288.659576 
L 88.248544 288.659576 
L 88.248544 288.446795 
L 88.613828 288.446795 
L 88.613828 288.304941 
L 88.972154 288.304941 
L 88.972154 288.09216 
L 90.340871 288.09216 
L 90.340871 287.879379 
L 90.82951 287.879379 
L 90.82951 287.666598 
L 91.922605 287.595671 
L 91.922605 287.382889 
L 92.073702 287.382889 
L 92.073702 287.170108 
L 92.223596 287.170108 
L 92.223596 286.957327 
L 92.811505 286.957327 
L 92.811505 286.744546 
L 92.955655 286.744546 
L 92.955655 286.673619 
L 92.955655 286.602692 
L 93.521459 286.602692 
L 93.521459 286.389911 
L 93.66029 286.389911 
L 93.66029 286.106202 
L 93.798104 286.106202 
L 93.798104 285.893421 
L 93.934916 285.893421 
L 93.934916 285.68064 
L 94.472426 285.68064 
L 94.472426 285.467859 
L 94.604437 285.467859 
L 94.604437 285.255078 
L 94.735529 285.255078 
L 94.735529 285.042296 
L 95.123409 285.042296 
L 95.123409 284.829515 
L 95.377623 284.758588 
L 95.377623 284.545807 
L 96.120281 284.545807 
L 96.120281 284.403953 
L 96.361458 284.403953 
L 96.361458 284.191172 
L 96.480897 284.191172 
L 96.480897 283.978391 
L 96.599582 283.978391 
L 96.599582 283.765609 
L 96.95121 283.765609 
L 96.95121 283.552828 
L 97.410051 283.481901 
L 97.410051 283.26912 
L 97.523034 283.26912 
L 97.523034 283.056339 
L 97.857967 283.056339 
L 97.968299 282.772631 
L 98.077987 282.772631 
L 98.077987 282.559849 
L 98.617037 282.559849 
L 98.723018 281.921506 
L 98.828405 281.921506 
L 98.828405 281.708725 
L 99.244147 281.708725 
L 99.346662 281.425016 
L 99.448622 281.425016 
L 99.550033 281.141308 
L 100.049042 281.070381 
L 100.049042 280.715746 
L 100.244997 280.715746 
L 100.342215 280.219256 
L 100.820906 280.148329 
L 100.820906 279.935548 
L 101.009023 279.935548 
L 101.009023 279.722767 
L 101.471247 279.722767 
L 101.562344 279.297205 
L 101.653002 279.297205 
L 101.653002 279.013496 
L 102.275664 278.942569 
L 102.362957 278.658861 
L 102.62243 278.658861 
L 102.62243 278.44608 
L 102.878374 278.375153 
L 102.96292 277.878664 
L 103.707211 277.807736 
L 103.707211 277.665882 
L 103.948904 277.665882 
L 103.948904 277.453101 
L 104.344952 277.453101 
L 104.344952 277.24032 
L 104.501065 277.24032 
L 104.501065 277.027539 
L 104.655893 277.027539 
L 104.655893 276.814758 
L 104.809458 276.814758 
L 104.809458 276.601976 
L 105.337272 276.531049 
L 105.337272 276.318268 
L 105.99483 276.247341 
L 106.066493 275.821779 
L 106.350446 275.750852 
L 106.42077 275.112508 
L 106.630177 275.112508 
L 106.699465 274.545092 
L 106.768498 274.545092 
L 106.768498 274.332311 
L 107.177461 274.261384 
L 107.177461 274.048602 
L 107.378656 273.977675 
L 107.445245 273.552113 
L 107.774703 273.552113 
L 107.774703 273.339332 
L 107.904887 273.339332 
L 107.969643 272.913769 
L 108.22646 272.842842 
L 108.22646 272.559134 
L 108.791791 272.488207 
L 108.85357 271.778936 
L 108.915146 271.778936 
L 108.915146 271.566155 
L 109.22004 271.566155 
L 109.280431 271.069666 
L 109.340628 271.069666 
L 109.340628 270.856885 
L 109.520071 270.856885 
L 109.579508 270.289468 
L 109.873904 270.218541 
L 109.932235 269.722052 
L 110.392479 269.722052 
L 110.392479 269.509271 
L 110.562208 269.509271 
L 110.562208 269.296489 
L 110.786158 269.296489 
L 110.786158 268.870927 
L 111.226215 268.8 
L 111.280505 268.303511 
L 111.602996 268.232584 
L 111.709277 267.807021 
L 112.128493 267.807021 
L 112.231853 266.955896 
L 112.283321 266.955896 
L 112.385837 266.530334 
L 112.436886 266.530334 
L 112.53857 265.962918 
L 112.690074 265.962918 
L 112.690074 265.750136 
L 112.939899 265.679209 
L 112.989468 265.18272 
L 113.088217 265.18272 
L 113.088217 264.969939 
L 113.332844 264.969939 
L 113.381389 264.757158 
L 113.52628 264.686231 
L 113.622258 264.402522 
L 113.765312 264.331595 
L 113.860081 263.906033 
L 114.001345 263.906033 
L 114.048198 263.409544 
L 114.234452 263.409544 
L 114.234452 263.196762 
L 114.418881 263.196762 
L 114.464707 262.700273 
L 114.601519 262.700273 
L 114.692177 262.061929 
L 114.916929 261.991002 
L 115.006084 261.707294 
L 115.094818 261.707294 
L 115.094818 261.494513 
L 115.227139 261.494513 
L 115.27104 260.856169 
L 115.358535 260.856169 
L 115.358535 260.643388 
L 115.704505 260.572461 
L 115.747307 260.288753 
L 115.875132 260.288753 
L 115.917548 259.792264 
L 116.044226 259.792264 
L 116.044226 259.579482 
L 116.29505 259.508555 
L 116.29505 259.082993 
L 116.419219 259.082993 
L 116.419219 258.870212 
L 116.583514 258.870212 
L 116.624364 258.373722 
L 116.705799 258.373722 
L 116.786884 258.160941 
L 117.028061 258.090014 
L 117.107771 257.522598 
L 117.226706 257.522598 
L 117.305581 257.238889 
L 117.344894 257.238889 
L 117.423276 256.458692 
L 117.501332 256.458692 
L 117.579066 255.962202 
L 117.617813 255.962202 
L 117.695068 255.465713 
L 117.886828 255.394786 
L 117.962989 255.111078 
L 118.227147 255.040151 
L 118.301945 254.614588 
L 118.487648 254.543661 
L 118.487648 254.401807 
L 118.708098 254.401807 
L 118.817362 253.692536 
L 118.99807 253.621609 
L 118.99807 253.408828 
L 119.141397 253.408828 
L 119.24818 251.990287 
L 119.319033 251.990287 
L 119.424815 251.210089 
L 119.495008 251.139162 
L 119.495008 251.068235 
L 119.634612 251.068235 
L 119.738639 250.075256 
L 119.773187 250.075256 
L 119.876453 249.720621 
L 119.979155 249.720621 
L 119.979155 249.649694 
L 120.0813 249.365986 
L 120.216635 249.295059 
L 120.28394 248.727642 
L 120.41783 248.727642 
L 120.48442 248.30208 
L 120.550775 248.30208 
L 120.64987 247.734664 
L 120.715645 247.663736 
L 120.813877 247.025393 
L 120.846508 247.025393 
L 120.846508 246.954466 
L 120.944062 246.032414 
L 121.008818 246.032414 
L 121.105535 245.464998 
L 121.169739 245.464998 
L 121.265635 243.975529 
L 121.297492 243.975529 
L 121.361044 243.337186 
L 121.455972 243.337186 
L 121.487509 242.911624 
L 121.613129 242.911624 
L 121.613129 242.698842 
L 121.768984 242.698842 
L 121.86188 242.486061 
L 121.923558 242.486061 
L 121.923558 242.344207 
L 122.107385 242.27328 
L 122.168264 241.705864 
L 122.319605 241.634936 
L 122.379802 241.209374 
L 122.439807 241.209374 
L 122.529457 240.145468 
L 122.559246 240.145468 
L 122.588988 239.86176 
L 122.677931 239.86176 
L 122.677931 239.719906 
L 122.825242 239.648979 
L 122.883845 238.939708 
L 122.942266 238.939708 
L 123.029559 238.230438 
L 123.174153 238.230438 
L 123.231681 237.804875 
L 123.460048 237.733948 
L 123.544976 236.599115 
L 123.601383 236.599115 
L 123.657621 236.173553 
L 123.741664 236.173553 
L 123.825333 235.818918 
L 123.880906 235.747991 
L 123.963959 235.03872 
L 124.07413 235.03872 
L 124.156336 234.258522 
L 124.265389 234.187595 
L 124.319679 233.407398 
L 124.454723 233.407398 
L 124.562065 232.485346 
L 124.668797 232.414419 
L 124.721937 232.272565 
L 124.854134 232.272565 
L 124.933009 231.350513 
L 125.037663 231.350513 
L 125.089773 230.286607 
L 125.271028 230.21568 
L 125.373824 229.790118 
L 125.399435 229.790118 
L 125.450553 229.222701 
L 125.552375 229.151774 
L 125.552375 229.080847 
L 125.729248 229.080847 
L 125.829577 228.371576 
L 126.003874 228.300649 
L 126.102752 227.449525 
L 126.151997 227.449525 
L 126.151997 227.236744 
L 126.298963 227.236744 
L 126.372018 225.676348 
L 126.44479 225.605421 
L 126.44479 225.321713 
L 126.589495 225.321713 
L 126.68535 224.683369 
L 126.804487 224.612442 
L 126.899255 223.264828 
L 126.993549 223.193901 
L 127.06396 222.626485 
L 127.18073 222.555558 
L 127.227236 222.129995 
L 127.343 222.059068 
L 127.389106 221.349798 
L 127.458055 221.349798 
L 127.526752 220.640527 
L 127.753948 220.5696 
L 127.844063 220.002184 
L 127.866525 220.002184 
L 127.956104 219.718475 
L 128.000734 219.718475 
L 128.067481 218.583642 
L 128.111848 218.583642 
L 128.222309 217.945299 
L 128.310214 217.874372 
L 128.354013 217.448809 
L 128.528195 217.377882 
L 128.614685 216.243049 
L 128.657782 216.243049 
L 128.743679 215.533779 
L 128.850503 215.462852 
L 128.935527 214.966362 
L 129.020168 214.895435 
L 129.125437 214.186165 
L 129.146421 214.186165 
L 129.146421 214.115238 
L 129.230121 213.405967 
L 129.271832 213.405967 
L 129.375706 212.980405 
L 129.396412 212.980405 
L 129.437756 212.554842 
L 129.520173 212.554842 
L 129.622688 212.12928 
L 129.643124 212.12928 
L 129.744974 211.632791 
L 129.765278 211.632791 
L 129.765278 211.561864 
L 129.826058 211.136301 
L 129.906795 211.136301 
L 130.00723 209.575906 
L 130.087194 209.504979 
L 130.186674 208.937562 
L 130.226319 208.937562 
L 130.305359 208.086438 
L 130.384069 208.015511 
L 130.481995 207.093459 
L 130.501519 207.093459 
L 130.598837 206.455115 
L 130.637624 206.384188 
L 130.734242 205.603991 
L 130.753507 205.603991 
L 130.772751 204.965647 
L 130.906915 204.89472 
L 130.983152 204.256376 
L 131.096932 204.185449 
L 131.191226 202.979689 
L 131.210028 202.979689 
L 131.247576 202.128565 
L 131.341119 202.128565 
L 131.4342 201.419294 
L 131.452761 201.419294 
L 131.563744 200.639096 
L 131.618991 200.639096 
L 131.692402 199.504264 
L 131.801984 199.433336 
L 131.892817 198.582212 
L 131.929028 198.582212 
L 132.037244 197.518306 
L 132.05522 197.518306 
L 132.05522 197.447379 
L 132.144842 196.4544 
L 132.180571 196.4544 
L 132.251827 195.957911 
L 132.305093 195.957911 
L 132.340519 195.461421 
L 132.46399 195.390494 
L 132.56918 193.971953 
L 132.621556 193.971953 
L 132.725872 193.404536 
L 132.743202 193.404536 
L 132.846847 192.198776 
L 132.915628 192.198776 
L 133.01833 190.993016 
L 133.05244 190.993016 
L 133.154399 190.000038 
L 133.188264 190.000038 
L 133.238946 189.503548 
L 133.339903 189.503548 
L 133.44032 188.581496 
L 133.506969 188.581496 
L 133.573382 187.872226 
L 133.623039 187.872226 
L 133.72196 186.453685 
L 133.738397 186.453685 
L 133.836715 185.886268 
L 133.853052 185.886268 
L 133.950775 184.467727 
L 133.983236 184.3968 
L 134.080287 183.474748 
L 134.112526 183.474748 
L 134.192883 182.978259 
L 134.304809 182.907332 
L 134.368469 182.339915 
L 134.447743 182.268988 
L 134.558167 181.134155 
L 134.589598 181.134155 
L 134.683578 180.283031 
L 134.7148 180.283031 
L 134.7148 180.212104 
L 134.823673 179.502833 
L 134.87014 179.431906 
L 134.97812 178.722635 
L 135.008858 178.722635 
L 135.116046 177.658729 
L 135.161798 177.658729 
L 135.252969 176.240188 
L 135.298389 176.240188 
L 135.403945 175.601845 
L 135.418977 175.601845 
L 135.418977 175.530918 
L 135.52386 173.899595 
L 135.568632 173.899595 
L 135.657857 173.261252 
L 135.74666 173.261252 
L 135.849738 171.842711 
L 135.893741 171.842711 
L 135.996018 169.998607 
L 136.039681 169.92768 
L 136.141169 168.863774 
L 136.155623 168.863774 
L 136.213327 168.083576 
L 136.299553 168.012649 
L 136.399653 166.806889 
L 136.413909 166.806889 
L 136.513404 165.672056 
L 136.527575 165.672056 
L 136.626472 164.820932 
L 136.668697 164.750005 
L 136.766857 163.402391 
L 136.850588 163.331464 
L 136.961653 162.905901 
L 137.01694 162.834974 
L 137.12703 160.990871 
L 137.181835 160.919944 
L 137.290966 159.430475 
L 137.304564 159.430475 
L 137.412988 158.579351 
L 137.439996 158.508424 
L 137.507349 157.231736 
L 137.574461 157.160809 
L 137.668018 156.522466 
L 137.694663 156.522466 
L 137.800869 155.600414 
L 137.814102 155.600414 
L 137.919637 154.891144 
L 137.959061 154.820216 
L 138.050729 153.898165 
L 138.076838 153.898165 
L 138.141952 152.976113 
L 138.206842 152.976113 
L 138.297313 152.054061 
L 138.323083 152.054061 
L 138.425808 150.63552 
L 138.438609 150.63552 
L 138.489728 149.642541 
L 138.553431 149.642541 
L 138.642255 148.791416 
L 138.667556 148.791416 
L 138.743257 147.443802 
L 138.83119 147.372875 
L 138.931186 146.450824 
L 138.956102 146.379896 
L 139.055437 145.315991 
L 139.080189 145.245064 
L 139.191172 144.039304 
L 139.264798 143.968376 
L 139.374701 142.691689 
L 139.399036 142.691689 
L 139.508159 142.053346 
L 139.532323 141.982419 
L 139.628669 140.918513 
L 139.652679 140.918513 
L 139.736472 139.570899 
L 139.784187 139.570899 
L 139.891105 137.584941 
L 139.962047 137.584941 
L 140.067962 136.237327 
L 140.14993 136.237327 
L 140.254795 134.676932 
L 140.278019 134.606005 
L 140.382174 133.329318 
L 140.393711 133.329318 
L 140.485756 132.052631 
L 140.543056 132.052631 
L 140.634374 130.988725 
L 140.668505 130.988725 
L 140.770526 129.782965 
L 140.793122 129.782965 
L 140.894472 128.648132 
L 140.91692 128.648132 
L 141.017607 127.158664 
L 141.039908 127.158664 
L 141.13994 126.378466 
L 141.162098 126.307539 
L 141.272495 124.959925 
L 141.305488 124.888998 
L 141.404121 123.612311 
L 141.458695 123.541384 
L 141.56737 121.980988 
L 141.578203 121.980988 
L 141.64307 121.129864 
L 141.707715 121.058936 
L 141.804267 119.569468 
L 141.879022 119.498541 
L 141.985302 118.576489 
L 142.01707 118.576489 
L 142.101521 117.157948 
L 142.143605 117.157948 
L 142.237951 116.094042 
L 142.258853 116.094042 
L 142.342229 115.030136 
L 142.373399 115.030136 
L 142.445931 113.682522 
L 142.528483 113.611595 
L 142.610675 111.625638 
L 142.651636 111.554711 
L 142.733292 111.058221 
L 142.763822 111.058221 
L 142.865233 109.781534 
L 142.905644 109.710607 
L 143.01633 108.362993 
L 143.02636 108.362993 
L 143.116392 107.440941 
L 143.146307 107.440941 
L 143.25559 106.306108 
L 143.295173 106.306108 
L 143.393766 105.029421 
L 143.413423 105.029421 
L 143.5114 103.469026 
L 143.530934 103.469026 
L 143.628302 102.334193 
L 143.657415 102.334193 
L 143.763777 100.702871 
L 143.783051 100.702871 
L 143.888708 99.426184 
L 143.936538 99.426184 
L 144.022326 98.220424 
L 144.079302 98.149496 
L 144.183312 97.298372 
L 144.192739 97.298372 
L 144.27737 95.525195 
L 144.305496 95.525195 
L 144.398947 93.9648 
L 144.491935 93.893873 
L 144.593695 92.191624 
L 144.612137 92.191624 
L 144.722415 91.127718 
L 144.768174 91.056791 
L 144.877544 89.638249 
L 144.91386 89.567322 
L 145.022388 88.148781 
L 145.049423 88.077854 
L 145.121326 87.439511 
L 145.166126 87.439511 
L 145.264312 85.666334 
L 145.282109 85.666334 
L 145.38854 84.673355 
L 145.415054 84.673355 
L 145.503164 84.035012 
L 145.529517 84.035012 
L 145.62583 82.900179 
L 145.652011 82.829252 
L 145.756375 82.119981 
L 145.765046 82.119981 
L 145.868787 80.772367 
L 145.911844 80.70144 
L 146.01478 79.850315 
L 146.040426 79.779388 
L 146.142663 78.573628 
L 146.168136 78.573628 
L 146.27812 76.800452 
L 146.328666 76.729525 
L 146.437719 75.452838 
L 146.479495 75.452838 
L 146.579379 73.821515 
L 146.595975 73.821515 
L 146.703494 72.402974 
L 146.719981 72.402974 
L 146.826795 70.700725 
L 146.843174 70.700725 
L 146.941151 69.8496 
L 146.957431 69.8496 
L 147.062909 68.856621 
L 147.111393 68.785694 
L 147.199956 67.579934 
L 147.240074 67.579934 
L 147.328035 66.870664 
L 147.359919 66.799736 
L 147.455248 66.374174 
L 147.479005 66.303247 
L 147.573734 65.877685 
L 147.597342 65.877685 
L 147.699301 64.175435 
L 147.722752 64.104508 
L 147.746174 63.537092 
L 147.862847 63.466165 
L 147.940229 62.61504 
L 147.978801 62.61504 
L 148.07872 60.770936 
L 148.101703 60.770936 
L 148.178111 60.20352 
L 148.223807 60.20352 
L 148.322436 59.423322 
L 148.352679 59.423322 
L 148.450637 58.217562 
L 148.510666 58.146635 
L 148.615258 56.799021 
L 148.645035 56.799021 
L 148.748884 56.302532 
L 148.763673 56.302532 
L 148.874221 55.876969 
L 148.918259 55.806042 
L 149.013323 54.742136 
L 149.071585 54.671209 
L 149.107908 54.316574 
L 149.230884 54.245647 
L 149.31003 53.252668 
L 149.367382 53.252668 
L 149.445957 52.756179 
L 149.495789 52.685252 
L 149.587985 52.046908 
L 149.630385 52.046908 
L 149.644498 51.834127 
L 149.778038 51.7632 
L 149.868865 51.479492 
L 149.896723 51.479492 
L 149.91759 51.124856 
L 150.035401 51.124856 
L 150.056115 50.912075 
L 150.221009 50.841148 
L 150.255181 50.699294 
L 150.364115 50.628367 
L 150.458918 50.486513 
L 150.58682 50.415586 
L 150.660472 49.848169 
L 150.773735 49.777242 
L 150.840043 49.564461 
L 151.291306 49.493534 
L 151.291306 49.35168 
L 151.611674 49.280753 
L 151.611674 49.209826 
L 151.845283 49.138899 
L 151.845283 49.067972 
L 153.340389 48.997045 
L 153.340389 48.926118 
L 155.995211 48.855191 
L 155.995211 48.784264 
L 156.560344 48.713336 
L 156.604245 48.500555 
L 156.701437 48.429628 
L 156.759513 48.287774 
L 156.831855 48.216847 
L 156.93267 47.720358 
L 157.032948 47.649431 
L 157.113735 47.223868 
L 157.180007 47.223868 
L 157.250754 47.011087 
L 157.339986 46.94016 
L 157.447441 46.585525 
L 157.507906 46.514598 
L 157.600551 45.7344 
L 157.665132 45.7344 
L 157.775329 45.450692 
L 157.816487 45.379765 
L 157.916719 45.096056 
L 157.98928 45.025129 
L 158.084094 44.52864 
L 158.124583 44.457713 
L 158.232129 44.032151 
L 158.272301 43.961224 
L 158.370139 43.181026 
L 158.418868 43.110099 
L 158.507144 42.471755 
L 158.568692 42.400828 
L 158.673735 41.833412 
L 158.686825 41.762485 
L 158.752135 41.265995 
L 158.856162 41.195068 
L 158.942415 40.698579 
L 159.015419 40.627652 
L 159.122267 39.989308 
L 159.177589 39.918381 
L 159.287747 39.138184 
L 159.308857 39.138184 
L 159.351007 38.428913 
L 159.430833 38.428913 
L 159.518669 37.648715 
L 159.560352 37.577788 
L 159.664158 36.868518 
L 159.713781 36.797591 
L 159.783859 36.513882 
L 159.874161 36.442955 
L 159.959956 35.946466 
L 160.065639 35.875539 
L 160.13442 35.520904 
L 160.194901 35.449976 
L 160.303279 35.237195 
L 160.351247 35.166268 
L 160.454761 34.669779 
L 160.494422 34.598852 
L 160.585328 34.244216 
L 160.773641 34.173289 
L 160.882626 33.889581 
L 160.963953 33.818654 
L 160.963953 33.747727 
L 161.209658 33.6768 
L 161.209658 33.605873 
L 161.564818 33.534946 
L 161.643254 33.251238 
L 162.161592 33.180311 
L 162.233972 33.038456 
L 165.118299 32.967529 
L 165.118299 32.896602 
L 165.272594 32.825675 
L 165.346209 32.541967 
L 165.468263 32.47104 
L 165.504725 32.329186 
L 165.832729 32.258259 
L 165.942781 32.045478 
L 166.019732 31.974551 
L 166.049245 31.832696 
L 166.286609 31.761769 
L 166.39115 31.123426 
L 166.420087 31.052499 
L 166.515262 30.768791 
L 166.735484 30.697864 
L 166.752536 30.556009 
L 167.143315 30.485082 
L 167.204428 30.272301 
L 167.292966 30.201374 
L 167.292966 30.130447 
L 167.588743 30.05952 
L 167.588743 29.988593 
L 168.050399 29.917666 
L 168.050399 29.846739 
L 168.575917 29.775812 
L 168.575917 29.704885 
L 170.58651 29.633958 
L 170.58651 29.563031 
L 170.743408 29.492104 
L 170.846523 29.279322 
L 171.014871 29.208395 
L 171.014871 29.137468 
L 171.4691 29.066541 
L 171.47131 28.924687 
L 171.675774 28.85376 
L 171.77174 28.711906 
L 172.000941 28.640979 
L 172.061022 28.499125 
L 172.576613 28.428198 
L 172.576613 28.357271 
L 174.810582 28.286344 
L 174.829082 28.144489 
L 175.552798 28.073562 
L 175.552798 28.002635 
L 176.285672 27.931708 
L 176.285672 27.860781 
L 179.195751 27.789854 
L 179.242608 27.648 
L 360.8064 27.648 
L 360.8064 27.648 
" style="fill: none; stroke: #000080; stroke-width: 1.5; stroke-linecap: square"/>
   </g>
   <g id="line2d_36">
    <defs>
     <path id="m1f682c022b" d="M 0 6 
C 1.591219 6 3.117479 5.367802 4.242641 4.242641 
C 5.367802 3.117479 6 1.591219 6 0 
C 6 -1.591219 5.367802 -3.117479 4.242641 -4.242641 
C 3.117479 -5.367802 1.591219 -6 0 -6 
C -1.591219 -6 -3.117479 -5.367802 -4.242641 -4.242641 
C -5.367802 -3.117479 -6 -1.591219 -6 0 
C -6 1.591219 -5.367802 3.117479 -4.242641 4.242641 
C -3.117479 5.367802 -1.591219 6 0 6 
z
" style="stroke: #000080; stroke-width: 1.5"/>
    </defs>
    <g>
     <use xlink:href="#m1f682c022b" x="116.419219" y="259.082993" style="fill-opacity: 0; stroke: #000080; stroke-width: 1.5"/>
     <use xlink:href="#m1f682c022b" x="143.19606" y="106.873525" style="fill-opacity: 0; stroke: #000080; stroke-width: 1.5"/>
     <use xlink:href="#m1f682c022b" x="179.242608" y="27.718927" style="fill-opacity: 0; stroke: #000080; stroke-width: 1.5"/>
     <use xlink:href="#m1f682c022b" x="179.242608" y="27.648" style="fill-opacity: 0; stroke: #000080; stroke-width: 1.5"/>
     <use xlink:href="#m1f682c022b" x="179.242608" y="27.648" style="fill-opacity: 0; stroke: #000080; stroke-width: 1.5"/>
     <use xlink:href="#m1f682c022b" x="360.8064" y="27.648" style="fill-opacity: 0; stroke: #000080; stroke-width: 1.5"/>
    </g>
   </g>
   <g id="line2d_37">
    <path style="fill: none; stroke: #000080; stroke-width: 1.5; stroke-linecap: square"/>
    <g/>
   </g>
   <g id="line2d_38">
    <path d="M 101.379706 279.722767 
" clip-path="url(#pb225f2b045)" style="fill: none; stroke: #000080; stroke-width: 1.5; stroke-linecap: square"/>
    <defs>
     <path id="m5b7fbc4708" d="M -12 12 
L 12 -12 
M -12 -12 
L 12 12 
" style="stroke: #000080"/>
    </defs>
    <g clip-path="url(#pb225f2b045)">
     <use xlink:href="#m5b7fbc4708" x="101.379706" y="279.722767" style="fill: #000080; stroke: #000080"/>
    </g>
   </g>
   <g id="line2d_39">
    <defs>
     <path id="m2c6e049389" d="M 0 1.5 
C 0.397805 1.5 0.77937 1.341951 1.06066 1.06066 
C 1.341951 0.77937 1.5 0.397805 1.5 0 
C 1.5 -0.397805 1.341951 -0.77937 1.06066 -1.06066 
C 0.77937 -1.341951 0.397805 -1.5 0 -1.5 
C -0.397805 -1.5 -0.77937 -1.341951 -1.06066 -1.06066 
C -1.341951 -0.77937 -1.5 -0.397805 -1.5 0 
C -1.5 0.397805 -1.341951 0.77937 -1.06066 1.06066 
C -0.77937 1.341951 -0.397805 1.5 0 1.5 
z
" style="stroke: #ff00ff"/>
    </defs>
    <g>
     <use xlink:href="#m2c6e049389" x="151.649755" y="27.648" style="fill: #ff00ff; stroke: #ff00ff"/>
     <use xlink:href="#m2c6e049389" x="151.649755" y="27.648" style="fill: #ff00ff; stroke: #ff00ff"/>
    </g>
   </g>
   <g id="line2d_40">
    <path d="M 1.245626 298.944 
L 1.245626 296.816188 
L 40.363149 296.816188 
L 40.363149 296.461553 
L 50.890391 296.461553 
L 50.890391 295.752282 
L 52.188254 295.752282 
L 52.188254 294.688376 
L 53.402323 294.688376 
L 53.402323 294.333741 
L 56.635094 294.333741 
L 56.635094 293.979106 
L 66.441498 293.979106 
L 66.441498 293.624471 
L 69.172597 293.624471 
L 69.172597 293.269835 
L 69.674268 293.269835 
L 69.674268 292.9152 
L 70.162907 292.9152 
L 70.162907 292.560565 
L 70.639174 292.560565 
L 70.639174 291.851294 
L 71.556993 291.851294 
L 71.556993 291.496659 
L 72.432107 291.496659 
L 72.432107 291.142024 
L 75.574654 291.142024 
L 75.574654 290.787388 
L 75.93298 290.787388 
L 75.93298 290.432753 
L 76.96874 290.432753 
L 76.96874 290.078118 
L 77.950435 290.078118 
L 77.950435 289.723482 
L 78.88343 289.723482 
L 78.88343 288.659576 
L 81.433251 288.659576 
L 81.433251 288.304941 
L 83.202082 288.304941 
L 83.202082 287.950306 
L 83.441723 287.950306 
L 83.441723 287.595671 
L 84.596168 287.595671 
L 84.596168 287.241035 
L 84.818792 287.241035 
L 84.818792 286.8864 
L 85.471281 286.8864 
L 85.471281 286.531765 
L 86.712053 286.531765 
L 86.712053 286.177129 
L 87.303041 286.177129 
L 87.303041 285.822494 
L 88.063207 285.822494 
L 88.063207 285.467859 
L 89.14879 285.467859 
L 89.14879 285.113224 
L 90.175129 285.113224 
L 90.175129 284.403953 
L 90.668036 284.403953 
L 90.668036 284.049318 
L 90.989609 284.049318 
L 90.989609 283.694682 
L 91.616719 283.694682 
L 91.616719 283.340047 
L 92.223596 283.340047 
L 92.223596 282.630776 
L 93.798104 282.630776 
L 93.798104 282.276141 
L 94.604437 282.276141 
L 94.604437 281.921506 
L 95.503454 281.921506 
L 95.503454 281.566871 
L 96.361458 281.566871 
L 96.361458 281.212235 
L 96.480897 281.212235 
L 96.480897 280.8576 
L 96.95121 280.8576 
L 96.95121 280.502965 
L 97.18203 280.502965 
L 97.18203 280.148329 
L 97.635342 280.148329 
L 97.635342 279.793694 
L 97.968299 279.793694 
L 98.077987 279.084424 
L 98.18704 279.084424 
L 98.18704 278.729788 
L 99.244147 278.729788 
L 99.244147 278.375153 
L 99.448622 278.375153 
L 99.448622 278.020518 
L 100.049042 278.020518 
L 100.147275 277.311247 
L 100.342215 277.311247 
L 100.342215 276.956612 
L 100.630889 276.956612 
L 100.630889 276.601976 
L 101.195278 276.601976 
L 101.195278 276.247341 
L 101.471247 276.247341 
L 101.471247 275.892706 
L 101.833019 275.892706 
L 101.833019 275.538071 
L 102.708132 275.538071 
L 102.793446 274.474165 
L 103.130882 274.474165 
L 103.130882 273.764894 
L 103.788121 273.764894 
L 103.788121 273.410259 
L 104.108325 273.410259 
L 104.108325 273.055624 
L 104.266406 273.055624 
L 104.266406 272.700988 
L 104.501065 272.700988 
L 104.578638 271.991718 
L 104.732832 271.991718 
L 104.732832 271.637082 
L 104.885773 271.637082 
L 104.885773 271.282447 
L 105.037479 271.282447 
L 105.037479 270.927812 
L 105.705415 270.927812 
L 105.705415 270.573176 
L 106.209005 270.573176 
L 106.279859 269.863906 
L 106.905809 269.863906 
L 106.974091 268.8 
L 107.109915 268.8 
L 107.109915 268.445365 
L 107.244765 268.445365 
L 107.31183 267.736094 
L 107.378656 267.736094 
L 107.378656 267.381459 
L 108.162584 267.381459 
L 108.22646 266.672188 
L 108.29012 266.672188 
L 108.29012 266.317553 
L 108.416798 266.317553 
L 108.416798 265.962918 
L 108.791791 265.962918 
L 108.85357 265.253647 
L 108.976522 265.253647 
L 108.976522 264.899012 
L 109.638757 264.899012 
L 109.638757 264.544376 
L 110.106149 264.544376 
L 110.106149 264.189741 
L 110.221204 264.189741 
L 110.221204 263.835106 
L 110.335561 263.835106 
L 110.335561 263.480471 
L 110.562208 263.480471 
L 110.562208 262.7712 
L 110.841731 262.7712 
L 110.841731 262.416565 
L 111.496112 262.416565 
L 111.54963 261.352659 
L 112.231853 261.352659 
L 112.231853 260.998024 
L 112.790402 260.998024 
L 112.790402 260.643388 
L 113.284172 260.643388 
L 113.284172 260.288753 
L 113.429811 260.288753 
L 113.478107 259.224847 
L 113.57433 259.224847 
L 113.57433 258.515576 
L 113.765312 258.515576 
L 113.765312 257.806306 
L 113.907287 257.806306 
L 114.001345 257.097035 
L 114.234452 257.097035 
L 114.234452 256.7424 
L 114.510421 256.7424 
L 114.556025 256.033129 
L 115.050503 256.033129 
L 115.050503 255.323859 
L 115.183135 255.323859 
L 115.183135 254.969224 
L 115.314838 254.969224 
L 115.358535 254.259953 
L 115.445626 254.259953 
L 115.489021 253.550682 
L 115.618607 253.550682 
L 115.704505 252.486776 
L 115.959869 252.486776 
L 116.044226 251.777506 
L 116.460428 251.777506 
L 116.460428 251.422871 
L 116.624364 251.422871 
L 116.665126 250.358965 
L 116.907859 250.358965 
L 116.907859 250.004329 
L 117.067958 250.004329 
L 117.1475 249.295059 
L 117.226706 249.295059 
L 117.226706 248.940424 
L 117.384126 248.940424 
L 117.384126 248.585788 
L 117.617813 248.585788 
L 117.65648 247.876518 
L 117.924947 247.876518 
L 117.924947 247.521882 
L 118.376446 247.521882 
L 118.413586 246.812612 
L 118.524569 246.812612 
L 118.524569 246.457976 
L 118.74459 246.457976 
L 118.781011 245.748706 
L 118.889854 245.748706 
L 118.889854 245.394071 
L 119.06987 245.394071 
L 119.06987 244.6848 
L 119.319033 244.6848 
L 119.389621 243.620894 
L 119.634612 243.620894 
L 119.738639 241.847718 
L 119.807672 241.847718 
L 119.807672 241.493082 
L 120.013265 241.493082 
L 120.013265 241.138447 
L 120.517626 241.138447 
L 120.517626 240.783812 
L 120.682786 240.783812 
L 120.682786 240.429176 
L 121.073351 240.429176 
L 121.137664 239.365271 
L 121.361044 239.365271 
L 121.361044 238.656 
L 121.675626 238.656 
L 121.737916 237.946729 
L 121.8 237.946729 
L 121.892744 236.528188 
L 121.954321 236.528188 
L 122.046309 235.818918 
L 122.076872 235.818918 
L 122.076872 235.464282 
L 122.379802 235.464282 
L 122.379802 234.755012 
L 122.529457 234.755012 
L 122.618682 233.691106 
L 122.64833 233.691106 
L 122.736994 232.6272 
L 123.174153 232.6272 
L 123.260379 231.563294 
L 123.317644 231.563294 
L 123.403216 230.499388 
L 123.431654 230.499388 
L 123.431654 229.790118 
L 124.07413 229.790118 
L 124.101572 229.080847 
L 124.265389 229.080847 
L 124.373813 228.371576 
L 124.695386 228.371576 
L 124.801367 226.5984 
L 124.854134 226.5984 
L 124.959227 225.889129 
L 125.373824 225.889129 
L 125.425011 225.179859 
L 125.552375 225.179859 
L 125.628382 224.115953 
L 125.779479 224.115953 
L 125.879541 223.406682 
L 125.929373 223.406682 
L 126.003874 222.697412 
L 126.176572 222.697412 
L 126.176572 222.342776 
L 126.44479 222.342776 
L 126.517282 220.924235 
L 126.565455 220.924235 
L 126.565455 220.5696 
L 126.709238 220.5696 
L 126.709238 220.214965 
L 126.851931 220.214965 
L 126.946461 219.505694 
L 126.97002 219.505694 
L 127.017049 218.796424 
L 127.087372 218.796424 
L 127.087372 218.441788 
L 127.273627 218.441788 
L 127.29678 217.732518 
L 127.4351 217.732518 
L 127.458055 217.023247 
L 127.5952 217.023247 
L 127.686077 215.959341 
L 127.776517 215.959341 
L 127.866525 214.186165 
L 127.88896 214.186165 
L 127.88896 213.831529 
L 128.023009 213.831529 
L 128.023009 213.476894 
L 128.200269 213.476894 
L 128.266313 212.767624 
L 128.354013 212.767624 
L 128.354013 212.058353 
L 128.50651 212.058353 
L 128.614685 210.285176 
L 128.636246 210.285176 
L 128.636246 209.575906 
L 128.807846 209.575906 
L 128.829186 208.512 
L 129.062347 208.512 
L 129.062347 208.157365 
L 129.188317 208.157365 
L 129.209231 207.093459 
L 129.520173 207.093459 
L 129.561246 206.029553 
L 129.643124 206.029553 
L 129.643124 205.674918 
L 129.78556 205.674918 
L 129.80582 204.965647 
L 129.906795 204.965647 
L 129.987186 203.547106 
L 130.067235 203.547106 
L 130.067235 202.837835 
L 130.206507 202.837835 
L 130.265881 202.128565 
L 130.364422 202.128565 
L 130.46245 201.419294 
L 130.481995 201.419294 
L 130.579414 200.355388 
L 130.695654 200.355388 
L 130.791976 199.291482 
L 130.811181 199.291482 
L 130.906915 197.872941 
L 130.945072 197.872941 
L 130.945072 197.518306 
L 131.172405 197.518306 
L 131.247576 196.809035 
L 131.285049 196.809035 
L 131.378407 195.390494 
L 131.41562 195.390494 
L 131.41562 194.681224 
L 131.618991 194.681224 
L 131.692402 193.617318 
L 131.783764 193.617318 
L 131.856536 192.553412 
L 132.05522 192.553412 
L 132.073179 191.489506 
L 132.428795 191.489506 
L 132.516659 189.716329 
L 132.673786 189.716329 
L 132.673786 189.361694 
L 132.812362 189.361694 
L 132.898456 188.297788 
L 132.949924 188.297788 
L 133.05244 187.588518 
L 133.086488 187.588518 
L 133.154399 186.169976 
L 133.205173 186.169976 
L 133.272658 184.751435 
L 133.323114 184.751435 
L 133.373435 183.687529 
L 133.556801 183.687529 
L 133.656071 182.978259 
L 133.70551 182.978259 
L 133.72196 182.268988 
L 133.836715 182.268988 
L 133.918257 180.850447 
L 133.999446 180.850447 
L 133.999446 180.495812 
L 134.160781 180.495812 
L 134.208913 179.786541 
L 134.320744 179.786541 
L 134.400219 179.077271 
L 134.463557 179.077271 
L 134.542432 178.013365 
L 134.730392 178.013365 
L 134.839175 177.304094 
L 134.854664 177.304094 
L 134.885604 176.240188 
L 134.97812 176.240188 
L 135.039546 174.821647 
L 135.116046 174.821647 
L 135.14656 174.112376 
L 135.252969 174.112376 
L 135.35878 172.3392 
L 135.508912 172.3392 
L 135.538796 171.275294 
L 135.76142 171.275294 
L 135.864417 169.502118 
L 135.879085 169.502118 
L 135.879085 168.792847 
L 135.996018 168.792847 
L 136.054213 168.083576 
L 136.141169 168.083576 
L 136.141169 167.728941 
L 136.270855 167.728941 
L 136.342518 166.665035 
L 136.527575 166.665035 
L 136.626472 165.601129 
L 136.822719 165.601129 
L 136.906202 163.473318 
L 136.97549 163.473318 
L 137.0583 162.764047 
L 137.12703 162.764047 
L 137.195511 162.054776 
L 137.250116 162.054776 
L 137.358854 160.636235 
L 137.426497 160.636235 
L 137.493898 158.508424 
L 137.614614 158.508424 
L 137.694663 156.380612 
L 137.787626 156.380612 
L 137.880131 154.607435 
L 137.919637 154.607435 
L 137.959061 153.543529 
L 138.076838 153.543529 
L 138.076838 153.188894 
L 138.206842 153.188894 
L 138.310202 152.479624 
L 138.323083 152.479624 
L 138.425808 151.061082 
L 138.540708 151.061082 
L 138.604239 149.287906 
L 138.667556 149.287906 
L 138.768422 147.869365 
L 139.018248 147.869365 
L 139.080189 146.805459 
L 139.141927 146.805459 
L 139.141927 146.450824 
L 139.301504 146.450824 
L 139.399036 143.968376 
L 139.496066 143.968376 
L 139.580558 141.485929 
L 139.628669 141.485929 
L 139.664672 140.422024 
L 139.819894 140.422024 
L 139.914782 139.712753 
L 140.067962 139.712753 
L 140.091418 139.003482 
L 140.196609 139.003482 
L 140.243172 137.939576 
L 140.324381 137.939576 
L 140.428281 136.521035 
L 140.474275 136.521035 
L 140.543056 135.457129 
L 140.611586 135.457129 
L 140.611586 135.102494 
L 140.759217 135.102494 
L 140.838234 132.974682 
L 140.995278 132.974682 
L 141.039908 131.556141 
L 141.106655 131.556141 
L 141.128852 130.846871 
L 141.294496 130.846871 
L 141.404121 129.073694 
L 141.458695 129.073694 
L 141.534833 127.655153 
L 141.578203 127.655153 
L 141.686191 126.591247 
L 141.707715 126.591247 
L 141.814964 125.527341 
L 141.857694 125.527341 
L 141.921606 124.1088 
L 142.01707 124.1088 
L 142.101521 122.690259 
L 142.185595 122.690259 
L 142.279732 121.271718 
L 142.352625 121.271718 
L 142.435586 119.853176 
L 142.47693 119.853176 
L 142.559347 117.725365 
L 142.631166 117.725365 
L 142.733292 115.597553 
L 142.763822 115.597553 
L 142.814596 114.179012 
L 142.925817 114.179012 
L 143.006295 113.115106 
L 143.046405 113.115106 
L 143.156268 111.341929 
L 143.19606 111.341929 
L 143.295173 110.278024 
L 143.364242 110.278024 
L 143.364242 109.923388 
L 143.48206 109.923388 
L 143.550448 108.150212 
L 143.599145 108.150212 
L 143.676798 106.731671 
L 143.715505 106.731671 
L 143.72517 105.667765 
L 143.936538 105.667765 
L 144.012814 103.894588 
L 144.079302 103.894588 
L 144.117191 102.476047 
L 144.202161 102.476047 
L 144.296125 101.412141 
L 144.417581 101.412141 
L 144.519742 98.929694 
L 144.556755 98.929694 
L 144.630562 97.511153 
L 144.694906 97.511153 
L 144.759032 96.447247 
L 144.813822 96.447247 
L 144.922928 94.674071 
L 144.959156 94.674071 
L 145.049423 92.900894 
L 145.184016 92.900894 
L 145.291002 90.418447 
L 145.361989 90.418447 
L 145.423883 88.999906 
L 145.494372 88.999906 
L 145.511953 88.290635 
L 145.608355 88.290635 
L 145.695567 86.872094 
L 145.756375 86.872094 
L 145.808341 85.453553 
L 145.90324 85.453553 
L 146.006223 83.680376 
L 146.023332 83.680376 
L 146.074567 81.9072 
L 146.210514 81.9072 
L 146.311833 79.070118 
L 146.337078 79.070118 
L 146.412609 77.651576 
L 146.462796 77.651576 
L 146.554458 75.8784 
L 146.645676 75.8784 
L 146.752911 74.459859 
L 146.785784 74.459859 
L 146.892226 73.041318 
L 146.916705 73.041318 
L 146.965566 71.977412 
L 147.04672 71.977412 
L 147.119461 70.204235 
L 147.216013 70.204235 
L 147.320055 68.431059 
L 147.351953 68.431059 
L 147.439393 66.657882 
L 147.557979 66.657882 
L 147.652312 64.175435 
L 147.683651 64.175435 
L 147.777358 62.047624 
L 147.878349 62.047624 
L 147.986506 59.919812 
L 148.03267 59.919812 
L 148.139946 58.501271 
L 148.162854 58.501271 
L 148.254209 56.373459 
L 148.284563 56.373459 
L 148.367783 54.245647 
L 148.397954 54.245647 
L 148.458151 53.181741 
L 148.540609 53.181741 
L 148.622706 52.117835 
L 148.697031 52.117835 
L 148.800595 50.344659 
L 148.837444 50.344659 
L 148.947561 48.926118 
L 148.976817 48.926118 
L 149.078856 47.152941 
L 149.093387 47.152941 
L 149.187572 45.379765 
L 149.2669 45.379765 
L 149.367382 43.606588 
L 149.388844 43.606588 
L 149.495789 41.833412 
L 149.595059 41.833412 
L 149.693807 38.287059 
L 149.820013 38.287059 
L 149.889763 36.513882 
L 149.938434 36.513882 
L 150.042308 35.095341 
L 150.193627 35.095341 
L 150.302917 33.6768 
L 150.343738 33.6768 
L 150.452162 32.612894 
L 150.485917 32.612894 
L 150.546523 31.548988 
L 150.700525 31.548988 
L 150.793652 30.485082 
L 150.925895 30.485082 
L 151.004798 29.066541 
L 151.076835 29.066541 
L 151.076835 28.711906 
L 151.586245 28.711906 
L 151.649755 27.648 
L 360.8064 27.648 
L 360.8064 27.648 
" style="fill: none; stroke: #ff00ff; stroke-width: 1.5; stroke-linecap: square"/>
   </g>
   <g id="line2d_41">
    <defs>
     <path id="m2eb8a414d2" d="M -0 8.485281 
L 5.091169 0 
L 0 -8.485281 
L -5.091169 -0 
z
" style="stroke: #ff00ff; stroke-width: 1.5; stroke-linejoin: miter"/>
    </defs>
    <g>
     <use xlink:href="#m2eb8a414d2" x="110.106149" y="264.544376" style="fill-opacity: 0; stroke: #ff00ff; stroke-width: 1.5; stroke-linejoin: miter"/>
     <use xlink:href="#m2eb8a414d2" x="138.667556" y="148.933271" style="fill-opacity: 0; stroke: #ff00ff; stroke-width: 1.5; stroke-linejoin: miter"/>
     <use xlink:href="#m2eb8a414d2" x="151.649755" y="28.002635" style="fill-opacity: 0; stroke: #ff00ff; stroke-width: 1.5; stroke-linejoin: miter"/>
     <use xlink:href="#m2eb8a414d2" x="151.649755" y="27.648" style="fill-opacity: 0; stroke: #ff00ff; stroke-width: 1.5; stroke-linejoin: miter"/>
     <use xlink:href="#m2eb8a414d2" x="151.649755" y="27.648" style="fill-opacity: 0; stroke: #ff00ff; stroke-width: 1.5; stroke-linejoin: miter"/>
     <use xlink:href="#m2eb8a414d2" x="360.8064" y="27.648" style="fill-opacity: 0; stroke: #ff00ff; stroke-width: 1.5; stroke-linejoin: miter"/>
    </g>
   </g>
   <g id="line2d_42">
    <path style="fill: none; stroke: #ff00ff; stroke-width: 1.5; stroke-linecap: square"/>
    <g/>
   </g>
   <g id="line2d_43">
    <path d="M 360.8064 27.648 
L 380.514816 293.51808 
" style="fill: none; stroke: #000080; stroke-width: 1.5; stroke-linecap: square"/>
    <g>
     <use xlink:href="#m1f682c022b" x="360.8064" y="27.648" style="fill-opacity: 0; stroke: #000080; stroke-width: 1.5"/>
     <use xlink:href="#m1f682c022b" x="380.514816" y="293.51808" style="fill-opacity: 0; stroke: #000080; stroke-width: 1.5"/>
    </g>
   </g>
   <g id="line2d_44">
    <path d="M 360.8064 27.648 
L 380.514816 163.296 
" style="fill: none; stroke: #ff00ff; stroke-width: 1.5; stroke-linecap: square"/>
    <g>
     <use xlink:href="#m2eb8a414d2" x="360.8064" y="27.648" style="fill-opacity: 0; stroke: #ff00ff; stroke-width: 1.5; stroke-linejoin: miter"/>
     <use xlink:href="#m2eb8a414d2" x="380.514816" y="163.296" style="fill-opacity: 0; stroke: #ff00ff; stroke-width: 1.5; stroke-linejoin: miter"/>
    </g>
   </g>
   <g id="line2d_45">
    <path d="M 360.8064 298.944 
L 360.8064 27.648 
" style="fill: none; stroke: #000000; stroke-width: 1.5; stroke-linecap: square"/>
   </g>
   <g id="patch_3">
    <path d="M 57.6 298.944 
L 360.8064 298.944 
" style="fill: none; stroke: #000000; stroke-width: 0.8; stroke-linejoin: miter; stroke-linecap: square"/>
   </g>
   <g id="patch_4">
    <path d="M 57.6 27.648 
L 360.8064 27.648 
" style="fill: none; stroke: #000000; stroke-width: 0.8; stroke-linejoin: miter; stroke-linecap: square"/>
   </g>
   <g id="text_13">
    <!-- ex -->
    <g transform="translate(386.578944 297.381205)scale(0.14 -0.14)">
     <defs>
      <path id="DejaVuSans-78" d="M 3513 3500 
L 2247 1797 
L 3578 0 
L 2900 0 
L 1881 1375 
L 863 0 
L 184 0 
L 1544 1831 
L 300 3500 
L 978 3500 
L 1906 2253 
L 2834 3500 
L 3513 3500 
z
" transform="scale(0.015625)"/>
     </defs>
     <use xlink:href="#DejaVuSans-65"/>
     <use xlink:href="#DejaVuSans-78" x="59.773438"/>
    </g>
   </g>
   <g id="text_14">
    <!-- CMA-ES-20 -->
    <g transform="translate(386.578944 167.159125)scale(0.14 -0.14)">
     <defs>
      <path id="DejaVuSans-43" d="M 4122 4306 
L 4122 3641 
Q 3803 3938 3442 4084 
Q 3081 4231 2675 4231 
Q 1875 4231 1450 3742 
Q 1025 3253 1025 2328 
Q 1025 1406 1450 917 
Q 1875 428 2675 428 
Q 3081 428 3442 575 
Q 3803 722 4122 1019 
L 4122 359 
Q 3791 134 3420 21 
Q 3050 -91 2638 -91 
Q 1578 -91 968 557 
Q 359 1206 359 2328 
Q 359 3453 968 4101 
Q 1578 4750 2638 4750 
Q 3056 4750 3426 4639 
Q 3797 4528 4122 4306 
z
" transform="scale(0.015625)"/>
      <path id="DejaVuSans-4d" d="M 628 4666 
L 1569 4666 
L 2759 1491 
L 3956 4666 
L 4897 4666 
L 4897 0 
L 4281 0 
L 4281 4097 
L 3078 897 
L 2444 897 
L 1241 4097 
L 1241 0 
L 628 0 
L 628 4666 
z
" transform="scale(0.015625)"/>
      <path id="DejaVuSans-41" d="M 2188 4044 
L 1331 1722 
L 3047 1722 
L 2188 4044 
z
M 1831 4666 
L 2547 4666 
L 4325 0 
L 3669 0 
L 3244 1197 
L 1141 1197 
L 716 0 
L 50 0 
L 1831 4666 
z
" transform="scale(0.015625)"/>
      <path id="DejaVuSans-45" d="M 628 4666 
L 3578 4666 
L 3578 4134 
L 1259 4134 
L 1259 2753 
L 3481 2753 
L 3481 2222 
L 1259 2222 
L 1259 531 
L 3634 531 
L 3634 0 
L 628 0 
L 628 4666 
z
" transform="scale(0.015625)"/>
      <path id="DejaVuSans-53" d="M 3425 4513 
L 3425 3897 
Q 3066 4069 2747 4153 
Q 2428 4238 2131 4238 
Q 1616 4238 1336 4038 
Q 1056 3838 1056 3469 
Q 1056 3159 1242 3001 
Q 1428 2844 1947 2747 
L 2328 2669 
Q 3034 2534 3370 2195 
Q 3706 1856 3706 1288 
Q 3706 609 3251 259 
Q 2797 -91 1919 -91 
Q 1588 -91 1214 -16 
Q 841 59 441 206 
L 441 856 
Q 825 641 1194 531 
Q 1563 422 1919 422 
Q 2459 422 2753 634 
Q 3047 847 3047 1241 
Q 3047 1584 2836 1778 
Q 2625 1972 2144 2069 
L 1759 2144 
Q 1053 2284 737 2584 
Q 422 2884 422 3419 
Q 422 4038 858 4394 
Q 1294 4750 2059 4750 
Q 2388 4750 2728 4690 
Q 3069 4631 3425 4513 
z
" transform="scale(0.015625)"/>
     </defs>
     <use xlink:href="#DejaVuSans-43"/>
     <use xlink:href="#DejaVuSans-4d" x="69.824219"/>
     <use xlink:href="#DejaVuSans-41" x="156.103516"/>
     <use xlink:href="#DejaVuSans-2d" x="222.261719"/>
     <use xlink:href="#DejaVuSans-45" x="258.345703"/>
     <use xlink:href="#DejaVuSans-53" x="321.529297"/>
     <use xlink:href="#DejaVuSans-2d" x="385.005859"/>
     <use xlink:href="#DejaVuSans-32" x="421.089844"/>
     <use xlink:href="#DejaVuSans-30" x="484.712891"/>
    </g>
   </g>
   <g id="text_15">
    <!-- best 2009 -->
    <g transform="translate(386.578944 36.937045)scale(0.14 -0.14)">
     <defs>
      <path id="DejaVuSans-62" d="M 3116 1747 
Q 3116 2381 2855 2742 
Q 2594 3103 2138 3103 
Q 1681 3103 1420 2742 
Q 1159 2381 1159 1747 
Q 1159 1113 1420 752 
Q 1681 391 2138 391 
Q 2594 391 2855 752 
Q 3116 1113 3116 1747 
z
M 1159 2969 
Q 1341 3281 1617 3432 
Q 1894 3584 2278 3584 
Q 2916 3584 3314 3078 
Q 3713 2572 3713 1747 
Q 3713 922 3314 415 
Q 2916 -91 2278 -91 
Q 1894 -91 1617 61 
Q 1341 213 1159 525 
L 1159 0 
L 581 0 
L 581 4863 
L 1159 4863 
L 1159 2969 
z
" transform="scale(0.015625)"/>
      <path id="DejaVuSans-39" d="M 703 97 
L 703 672 
Q 941 559 1184 500 
Q 1428 441 1663 441 
Q 2288 441 2617 861 
Q 2947 1281 2994 2138 
Q 2813 1869 2534 1725 
Q 2256 1581 1919 1581 
Q 1219 1581 811 2004 
Q 403 2428 403 3163 
Q 403 3881 828 4315 
Q 1253 4750 1959 4750 
Q 2769 4750 3195 4129 
Q 3622 3509 3622 2328 
Q 3622 1225 3098 567 
Q 2575 -91 1691 -91 
Q 1453 -91 1209 -44 
Q 966 3 703 97 
z
M 1959 2075 
Q 2384 2075 2632 2365 
Q 2881 2656 2881 3163 
Q 2881 3666 2632 3958 
Q 2384 4250 1959 4250 
Q 1534 4250 1286 3958 
Q 1038 3666 1038 3163 
Q 1038 2656 1286 2365 
Q 1534 2075 1959 2075 
z
" transform="scale(0.015625)"/>
     </defs>
     <use xlink:href="#DejaVuSans-62"/>
     <use xlink:href="#DejaVuSans-65" x="63.476562"/>
     <use xlink:href="#DejaVuSans-73" x="125"/>
     <use xlink:href="#DejaVuSans-74" x="177.099609"/>
     <use xlink:href="#DejaVuSans-20" x="216.308594"/>
     <use xlink:href="#DejaVuSans-32" x="248.095703"/>
     <use xlink:href="#DejaVuSans-30" x="311.71875"/>
     <use xlink:href="#DejaVuSans-30" x="375.341797"/>
     <use xlink:href="#DejaVuSans-39" x="438.964844"/>
    </g>
   </g>
   <g id="text_16">
    <!-- bbob f1, 20-D -->
    <g transform="translate(60.632064 38.111366)scale(0.102 -0.102)">
     <defs>
      <path id="DejaVuSans-44" d="M 1259 4147 
L 1259 519 
L 2022 519 
Q 2988 519 3436 956 
Q 3884 1394 3884 2338 
Q 3884 3275 3436 3711 
Q 2988 4147 2022 4147 
L 1259 4147 
z
M 628 4666 
L 1925 4666 
Q 3281 4666 3915 4102 
Q 4550 3538 4550 2338 
Q 4550 1131 3912 565 
Q 3275 0 1925 0 
L 628 0 
L 628 4666 
z
" transform="scale(0.015625)"/>
     </defs>
     <use xlink:href="#DejaVuSans-62"/>
     <use xlink:href="#DejaVuSans-62" x="63.476562"/>
     <use xlink:href="#DejaVuSans-6f" x="126.953125"/>
     <use xlink:href="#DejaVuSans-62" x="188.134766"/>
     <use xlink:href="#DejaVuSans-20" x="251.611328"/>
     <use xlink:href="#DejaVuSans-66" x="283.398438"/>
     <use xlink:href="#DejaVuSans-31" x="318.603516"/>
     <use xlink:href="#DejaVuSans-2c" x="382.226562"/>
     <use xlink:href="#DejaVuSans-20" x="414.013672"/>
     <use xlink:href="#DejaVuSans-32" x="445.800781"/>
     <use xlink:href="#DejaVuSans-30" x="509.423828"/>
     <use xlink:href="#DejaVuSans-2d" x="573.046875"/>
     <use xlink:href="#DejaVuSans-44" x="609.130859"/>
    </g>
    <!-- 51 targets: 100..1e-08 -->
    <g transform="translate(60.632064 49.533135)scale(0.102 -0.102)">
     <defs>
      <path id="DejaVuSans-35" d="M 691 4666 
L 3169 4666 
L 3169 4134 
L 1269 4134 
L 1269 2991 
Q 1406 3038 1543 3061 
Q 1681 3084 1819 3084 
Q 2600 3084 3056 2656 
Q 3513 2228 3513 1497 
Q 3513 744 3044 326 
Q 2575 -91 1722 -91 
Q 1428 -91 1123 -41 
Q 819 9 494 109 
L 494 744 
Q 775 591 1075 516 
Q 1375 441 1709 441 
Q 2250 441 2565 725 
Q 2881 1009 2881 1497 
Q 2881 1984 2565 2268 
Q 2250 2553 1709 2553 
Q 1456 2553 1204 2497 
Q 953 2441 691 2322 
L 691 4666 
z
" transform="scale(0.015625)"/>
      <path id="DejaVuSans-3a" d="M 750 794 
L 1409 794 
L 1409 0 
L 750 0 
L 750 794 
z
M 750 3309 
L 1409 3309 
L 1409 2516 
L 750 2516 
L 750 3309 
z
" transform="scale(0.015625)"/>
     </defs>
     <use xlink:href="#DejaVuSans-35"/>
     <use xlink:href="#DejaVuSans-31" x="63.623047"/>
     <use xlink:href="#DejaVuSans-20" x="127.246094"/>
     <use xlink:href="#DejaVuSans-74" x="159.033203"/>
     <use xlink:href="#DejaVuSans-61" x="198.242188"/>
     <use xlink:href="#DejaVuSans-72" x="259.521484"/>
     <use xlink:href="#DejaVuSans-67" x="298.884766"/>
     <use xlink:href="#DejaVuSans-65" x="362.361328"/>
     <use xlink:href="#DejaVuSans-74" x="423.884766"/>
     <use xlink:href="#DejaVuSans-73" x="463.09375"/>
     <use xlink:href="#DejaVuSans-3a" x="515.193359"/>
     <use xlink:href="#DejaVuSans-20" x="548.884766"/>
     <use xlink:href="#DejaVuSans-31" x="580.671875"/>
     <use xlink:href="#DejaVuSans-30" x="644.294922"/>
     <use xlink:href="#DejaVuSans-30" x="707.917969"/>
     <use xlink:href="#DejaVuSans-2e" x="771.541016"/>
     <use xlink:href="#DejaVuSans-2e" x="803.328125"/>
     <use xlink:href="#DejaVuSans-31" x="835.115234"/>
     <use xlink:href="#DejaVuSans-65" x="898.738281"/>
     <use xlink:href="#DejaVuSans-2d" x="960.261719"/>
     <use xlink:href="#DejaVuSans-30" x="996.345703"/>
     <use xlink:href="#DejaVuSans-38" x="1059.96875"/>
    </g>
    <!-- 25, 15 instances -->
    <g transform="translate(60.632064 60.954904)scale(0.102 -0.102)">
     <use xlink:href="#DejaVuSans-32"/>
     <use xlink:href="#DejaVuSans-35" x="63.623047"/>
     <use xlink:href="#DejaVuSans-2c" x="127.246094"/>
     <use xlink:href="#DejaVuSans-20" x="159.033203"/>
     <use xlink:href="#DejaVuSans-31" x="190.820312"/>
     <use xlink:href="#DejaVuSans-35" x="254.443359"/>
     <use xlink:href="#DejaVuSans-20" x="318.066406"/>
     <use xlink:href="#DejaVuSans-69" x="349.853516"/>
     <use xlink:href="#DejaVuSans-6e" x="377.636719"/>
     <use xlink:href="#DejaVuSans-73" x="441.015625"/>
     <use xlink:href="#DejaVuSans-74" x="493.115234"/>
     <use xlink:href="#DejaVuSans-61" x="532.324219"/>
     <use xlink:href="#DejaVuSans-6e" x="593.603516"/>
     <use xlink:href="#DejaVuSans-63" x="656.982422"/>
     <use xlink:href="#DejaVuSans-65" x="711.962891"/>
     <use xlink:href="#DejaVuSans-73" x="773.486328"/>
    </g>
   </g>
   <g id="text_17">
    <!-- v2.6 -->
    <g style="fill: #808080" transform="translate(198.292262 294.151352)scale(0.1 -0.1)">
     <use xlink:href="#DejaVuSans-76"/>
     <use xlink:href="#DejaVuSans-32" x="59.179688"/>
     <use xlink:href="#DejaVuSans-2e" x="122.802734"/>
     <use xlink:href="#DejaVuSans-36" x="154.589844"/>
    </g>
   </g>
   <g id="text_18">
    <!-- 1 Sphere -->
    <g transform="translate(164.436012 21.648)scale(0.2 -0.2)">
     <defs>
      <path id="DejaVuSans-68" d="M 3513 2113 
L 3513 0 
L 2938 0 
L 2938 2094 
Q 2938 2591 2744 2837 
Q 2550 3084 2163 3084 
Q 1697 3084 1428 2787 
Q 1159 2491 1159 1978 
L 1159 0 
L 581 0 
L 581 4863 
L 1159 4863 
L 1159 2956 
Q 1366 3272 1645 3428 
Q 1925 3584 2291 3584 
Q 2894 3584 3203 3211 
Q 3513 2838 3513 2113 
z
" transform="scale(0.015625)"/>
     </defs>
     <use xlink:href="#DejaVuSans-31"/>
     <use xlink:href="#DejaVuSans-20" x="63.623047"/>
     <use xlink:href="#DejaVuSans-53" x="95.410156"/>
     <use xlink:href="#DejaVuSans-70" x="158.886719"/>
     <use xlink:href="#DejaVuSans-68" x="222.363281"/>
     <use xlink:href="#DejaVuSans-65" x="285.742188"/>
     <use xlink:href="#DejaVuSans-72" x="347.265625"/>
     <use xlink:href="#DejaVuSans-65" x="386.128906"/>
    </g>
   </g>
  </g>
 </g>
 <defs>
  <clipPath id="pb225f2b045">
   <rect x="57.6" y="27.648" width="303.2064" height="271.296"/>
  </clipPath>
 </defs>
</svg>
