<?xml version="1.0" encoding="utf-8" standalone="no"?>
<!DOCTYPE svg PUBLIC "-//W3C//DTD SVG 1.1//EN"
  "http://www.w3.org/Graphics/SVG/1.1/DTD/svg11.dtd">
<svg xmlns:xlink="http://www.w3.org/1999/xlink" width="460.8pt" height="345.6pt" viewBox="0 0 460.8 345.6" xmlns="http://www.w3.org/2000/svg" version="1.1">
 <metadata>
  <rdf:RDF xmlns:dc="http://purl.org/dc/elements/1.1/" xmlns:cc="http://creativecommons.org/ns#" xmlns:rdf="http://www.w3.org/1999/02/22-rdf-syntax-ns#">
   <cc:Work>
    <dc:type rdf:resource="http://purl.org/dc/dcmitype/StillImage"/>
    <dc:date>2022-03-23T01:02:48.143498</dc:date>
    <dc:format>image/svg+xml</dc:format>
    <dc:creator>
     <cc:Agent>
      <dc:title>Matplotlib v3.5.1, https://matplotlib.org/</dc:title>
     </cc:Agent>
    </dc:creator>
   </cc:Work>
  </rdf:RDF>
 </metadata>
 <defs>
  <style type="text/css">*{stroke-linejoin: round; stroke-linecap: butt}</style>
 </defs>
 <g id="figure_1">
  <g id="patch_1">
   <path d="M 0 345.6 
L 460.8 345.6 
L 460.8 0 
L 0 0 
z
" style="fill: #ffffff"/>
  </g>
  <g id="axes_1">
   <g id="patch_2">
    <path d="M 57.6 298.944 
L 360.8064 298.944 
L 360.8064 27.648 
L 57.6 27.648 
z
" style="fill: #ffffff"/>
   </g>
   <g id="line2d_1">
    <path d="M 14.2848 298.944 
L 14.2848 277.665882 
L 27.323974 277.665882 
L 27.323974 272.346353 
L 34.951403 272.346353 
L 34.951403 267.026824 
L 57.6 267.026824 
L 57.6 261.707294 
L 91.922605 261.707294 
L 91.922605 256.387765 
L 109.990385 256.387765 
L 109.990385 251.068235 
L 124.101572 251.068235 
L 124.101572 245.748706 
L 142.559347 245.748706 
L 142.559347 240.429176 
L 150.000827 240.429176 
L 150.000827 235.109647 
L 167.240447 235.109647 
L 167.240447 229.790118 
L 193.521154 229.790118 
L 193.521154 224.470588 
L 195.092594 224.470588 
L 195.092594 219.151059 
L 196.880259 219.151059 
L 196.880259 213.831529 
L 211.159254 213.831529 
L 211.159254 208.512 
L 217.792633 208.512 
L 217.792633 203.192471 
L 222.717414 203.192471 
L 222.717414 197.872941 
L 227.409742 197.872941 
L 227.409742 192.553412 
L 242.320904 192.553412 
L 242.320904 187.233882 
L 242.40195 187.233882 
L 242.40195 181.914353 
L 244.020452 181.914353 
L 244.020452 176.594824 
L 244.073927 176.594824 
L 244.073927 171.275294 
L 244.141556 171.275294 
L 244.141556 165.955765 
L 244.226699 165.955765 
L 244.226699 160.636235 
L 244.291203 160.636235 
L 244.291203 155.316706 
L 244.344006 155.316706 
L 244.344006 149.997176 
L 244.397487 149.997176 
L 244.397487 144.677647 
L 244.441953 144.677647 
L 244.441953 139.358118 
L 244.493607 139.358118 
L 244.493607 134.038588 
L 244.544665 134.038588 
L 244.544665 128.719059 
L 244.586881 128.719059 
L 244.586881 123.399529 
L 244.631807 123.399529 
L 244.631807 118.08 
L 244.672745 118.08 
L 244.672745 112.760471 
L 244.721699 112.760471 
L 244.721699 107.440941 
L 244.779055 107.440941 
L 244.779055 102.121412 
L 244.817704 102.121412 
L 244.817704 96.801882 
L 244.849656 96.801882 
L 244.849656 91.482353 
L 244.892622 91.482353 
L 244.892622 86.162824 
L 244.940118 86.162824 
L 244.940118 80.843294 
L 244.975328 80.843294 
L 244.975328 75.523765 
L 245.015437 75.523765 
L 245.015437 70.204235 
L 245.054488 70.204235 
L 245.054488 64.884706 
L 245.093546 64.884706 
L 245.093546 59.565176 
L 245.129704 59.565176 
L 245.129704 54.245647 
L 245.177924 54.245647 
L 245.177924 48.926118 
L 245.235924 48.926118 
L 245.235924 43.606588 
L 245.289552 43.606588 
L 245.289552 38.287059 
L 245.33841 38.287059 
L 245.33841 32.967529 
L 245.379232 32.967529 
L 245.379232 27.648 
L 360.8064 27.648 
" style="fill: none; stroke: #f5deb3; stroke-width: 4; stroke-linecap: square"/>
   </g>
   <g id="line2d_2">
    <defs>
     <path id="m6ab882d523" d="M -0 7.778175 
L 7.778175 0 
L 0 -7.778175 
L -7.778175 -0 
z
" style="stroke: #f5deb3; stroke-width: 1.5; stroke-linejoin: miter"/>
    </defs>
    <g>
     <use xlink:href="#m6ab882d523" x="196.880259" y="219.151059" style="fill: #f5deb3; stroke: #f5deb3; stroke-width: 1.5; stroke-linejoin: miter"/>
     <use xlink:href="#m6ab882d523" x="244.226699" y="165.955765" style="fill: #f5deb3; stroke: #f5deb3; stroke-width: 1.5; stroke-linejoin: miter"/>
     <use xlink:href="#m6ab882d523" x="245.379232" y="32.967529" style="fill: #f5deb3; stroke: #f5deb3; stroke-width: 1.5; stroke-linejoin: miter"/>
     <use xlink:href="#m6ab882d523" x="245.379232" y="27.648" style="fill: #f5deb3; stroke: #f5deb3; stroke-width: 1.5; stroke-linejoin: miter"/>
     <use xlink:href="#m6ab882d523" x="360.8064" y="27.648" style="fill: #f5deb3; stroke: #f5deb3; stroke-width: 1.5; stroke-linejoin: miter"/>
    </g>
   </g>
   <g id="line2d_3">
    <path style="fill: none; stroke: #f5deb3; stroke-width: 4; stroke-linecap: square"/>
    <g/>
   </g>
   <g id="line2d_4">
    <path d="M 360.8064 27.648 
L 380.514816 33.07392 
" style="fill: none; stroke: #f5deb3; stroke-width: 4; stroke-linecap: square"/>
    <g>
     <use xlink:href="#m6ab882d523" x="360.8064" y="27.648" style="fill: #f5deb3; stroke: #f5deb3; stroke-width: 1.5; stroke-linejoin: miter"/>
     <use xlink:href="#m6ab882d523" x="380.514816" y="33.07392" style="fill: #f5deb3; stroke: #f5deb3; stroke-width: 1.5; stroke-linejoin: miter"/>
    </g>
   </g>
   <g id="matplotlib.axis_1">
    <g id="xtick_1">
     <g id="line2d_5">
      <path d="M 57.6 298.944 
L 57.6 27.648 
" clip-path="url(#pf75f3ad165)" style="fill: none; stroke: #b0b0b0; stroke-width: 0.8; stroke-linecap: square"/>
     </g>
     <g id="line2d_6">
      <defs>
       <path id="mc666fb154a" d="M 0 0 
L 0 3.5 
" style="stroke: #000000; stroke-width: 0.8"/>
      </defs>
      <g>
       <use xlink:href="#mc666fb154a" x="57.6" y="298.944" style="stroke: #000000; stroke-width: 0.8"/>
      </g>
     </g>
     <g id="text_1">
      <!-- 0 -->
      <g transform="translate(52.191875 318.861344)scale(0.17 -0.17)">
       <defs>
        <path id="DejaVuSans-30" d="M 2034 4250 
Q 1547 4250 1301 3770 
Q 1056 3291 1056 2328 
Q 1056 1369 1301 889 
Q 1547 409 2034 409 
Q 2525 409 2770 889 
Q 3016 1369 3016 2328 
Q 3016 3291 2770 3770 
Q 2525 4250 2034 4250 
z
M 2034 4750 
Q 2819 4750 3233 4129 
Q 3647 3509 3647 2328 
Q 3647 1150 3233 529 
Q 2819 -91 2034 -91 
Q 1250 -91 836 529 
Q 422 1150 422 2328 
Q 422 3509 836 4129 
Q 1250 4750 2034 4750 
z
" transform="scale(0.015625)"/>
       </defs>
       <use xlink:href="#DejaVuSans-30"/>
      </g>
     </g>
    </g>
    <g id="xtick_2">
     <g id="line2d_7">
      <path d="M 144.2304 298.944 
L 144.2304 27.648 
" clip-path="url(#pf75f3ad165)" style="fill: none; stroke: #b0b0b0; stroke-width: 0.8; stroke-linecap: square"/>
     </g>
     <g id="line2d_8">
      <g>
       <use xlink:href="#mc666fb154a" x="144.2304" y="298.944" style="stroke: #000000; stroke-width: 0.8"/>
      </g>
     </g>
     <g id="text_2">
      <!-- 2 -->
      <g transform="translate(138.822275 318.861344)scale(0.17 -0.17)">
       <defs>
        <path id="DejaVuSans-32" d="M 1228 531 
L 3431 531 
L 3431 0 
L 469 0 
L 469 531 
Q 828 903 1448 1529 
Q 2069 2156 2228 2338 
Q 2531 2678 2651 2914 
Q 2772 3150 2772 3378 
Q 2772 3750 2511 3984 
Q 2250 4219 1831 4219 
Q 1534 4219 1204 4116 
Q 875 4013 500 3803 
L 500 4441 
Q 881 4594 1212 4672 
Q 1544 4750 1819 4750 
Q 2544 4750 2975 4387 
Q 3406 4025 3406 3419 
Q 3406 3131 3298 2873 
Q 3191 2616 2906 2266 
Q 2828 2175 2409 1742 
Q 1991 1309 1228 531 
z
" transform="scale(0.015625)"/>
       </defs>
       <use xlink:href="#DejaVuSans-32"/>
      </g>
     </g>
    </g>
    <g id="xtick_3">
     <g id="line2d_9">
      <path d="M 230.8608 298.944 
L 230.8608 27.648 
" clip-path="url(#pf75f3ad165)" style="fill: none; stroke: #b0b0b0; stroke-width: 0.8; stroke-linecap: square"/>
     </g>
     <g id="line2d_10">
      <g>
       <use xlink:href="#mc666fb154a" x="230.8608" y="298.944" style="stroke: #000000; stroke-width: 0.8"/>
      </g>
     </g>
     <g id="text_3">
      <!-- 4 -->
      <g transform="translate(225.452675 318.861344)scale(0.17 -0.17)">
       <defs>
        <path id="DejaVuSans-34" d="M 2419 4116 
L 825 1625 
L 2419 1625 
L 2419 4116 
z
M 2253 4666 
L 3047 4666 
L 3047 1625 
L 3713 1625 
L 3713 1100 
L 3047 1100 
L 3047 0 
L 2419 0 
L 2419 1100 
L 313 1100 
L 313 1709 
L 2253 4666 
z
" transform="scale(0.015625)"/>
       </defs>
       <use xlink:href="#DejaVuSans-34"/>
      </g>
     </g>
    </g>
    <g id="xtick_4">
     <g id="line2d_11">
      <path d="M 317.4912 298.944 
L 317.4912 27.648 
" clip-path="url(#pf75f3ad165)" style="fill: none; stroke: #b0b0b0; stroke-width: 0.8; stroke-linecap: square"/>
     </g>
     <g id="line2d_12">
      <g>
       <use xlink:href="#mc666fb154a" x="317.4912" y="298.944" style="stroke: #000000; stroke-width: 0.8"/>
      </g>
     </g>
     <g id="text_4">
      <!-- 6 -->
      <g transform="translate(312.083075 318.861344)scale(0.17 -0.17)">
       <defs>
        <path id="DejaVuSans-36" d="M 2113 2584 
Q 1688 2584 1439 2293 
Q 1191 2003 1191 1497 
Q 1191 994 1439 701 
Q 1688 409 2113 409 
Q 2538 409 2786 701 
Q 3034 994 3034 1497 
Q 3034 2003 2786 2293 
Q 2538 2584 2113 2584 
z
M 3366 4563 
L 3366 3988 
Q 3128 4100 2886 4159 
Q 2644 4219 2406 4219 
Q 1781 4219 1451 3797 
Q 1122 3375 1075 2522 
Q 1259 2794 1537 2939 
Q 1816 3084 2150 3084 
Q 2853 3084 3261 2657 
Q 3669 2231 3669 1497 
Q 3669 778 3244 343 
Q 2819 -91 2113 -91 
Q 1303 -91 875 529 
Q 447 1150 447 2328 
Q 447 3434 972 4092 
Q 1497 4750 2381 4750 
Q 2619 4750 2861 4703 
Q 3103 4656 3366 4563 
z
" transform="scale(0.015625)"/>
       </defs>
       <use xlink:href="#DejaVuSans-36"/>
      </g>
     </g>
    </g>
    <g id="xtick_5">
     <g id="line2d_13">
      <path d="M 100.9152 298.944 
L 100.9152 27.648 
" clip-path="url(#pf75f3ad165)" style="fill: none; stroke: #b0b0b0; stroke-width: 0.8; stroke-linecap: square"/>
     </g>
     <g id="line2d_14">
      <defs>
       <path id="m388eaf83d7" d="M 0 0 
L 0 2 
" style="stroke: #000000; stroke-width: 0.6"/>
      </defs>
      <g>
       <use xlink:href="#m388eaf83d7" x="100.9152" y="298.944" style="stroke: #000000; stroke-width: 0.6"/>
      </g>
     </g>
    </g>
    <g id="xtick_6">
     <g id="line2d_15">
      <path d="M 187.5456 298.944 
L 187.5456 27.648 
" clip-path="url(#pf75f3ad165)" style="fill: none; stroke: #b0b0b0; stroke-width: 0.8; stroke-linecap: square"/>
     </g>
     <g id="line2d_16">
      <g>
       <use xlink:href="#m388eaf83d7" x="187.5456" y="298.944" style="stroke: #000000; stroke-width: 0.6"/>
      </g>
     </g>
    </g>
    <g id="xtick_7">
     <g id="line2d_17">
      <path d="M 274.176 298.944 
L 274.176 27.648 
" clip-path="url(#pf75f3ad165)" style="fill: none; stroke: #b0b0b0; stroke-width: 0.8; stroke-linecap: square"/>
     </g>
     <g id="line2d_18">
      <g>
       <use xlink:href="#m388eaf83d7" x="274.176" y="298.944" style="stroke: #000000; stroke-width: 0.6"/>
      </g>
     </g>
    </g>
    <g id="xtick_8">
     <g id="line2d_19">
      <path d="M 360.8064 298.944 
L 360.8064 27.648 
" clip-path="url(#pf75f3ad165)" style="fill: none; stroke: #b0b0b0; stroke-width: 0.8; stroke-linecap: square"/>
     </g>
     <g id="line2d_20">
      <g>
       <use xlink:href="#m388eaf83d7" x="360.8064" y="298.944" style="stroke: #000000; stroke-width: 0.6"/>
      </g>
     </g>
    </g>
    <g id="text_5">
     <!-- log10(# f-evals / dimension) -->
     <g transform="translate(88.823278 339.314156)scale(0.17 -0.17)">
      <defs>
       <path id="DejaVuSans-6c" d="M 603 4863 
L 1178 4863 
L 1178 0 
L 603 0 
L 603 4863 
z
" transform="scale(0.015625)"/>
       <path id="DejaVuSans-6f" d="M 1959 3097 
Q 1497 3097 1228 2736 
Q 959 2375 959 1747 
Q 959 1119 1226 758 
Q 1494 397 1959 397 
Q 2419 397 2687 759 
Q 2956 1122 2956 1747 
Q 2956 2369 2687 2733 
Q 2419 3097 1959 3097 
z
M 1959 3584 
Q 2709 3584 3137 3096 
Q 3566 2609 3566 1747 
Q 3566 888 3137 398 
Q 2709 -91 1959 -91 
Q 1206 -91 779 398 
Q 353 888 353 1747 
Q 353 2609 779 3096 
Q 1206 3584 1959 3584 
z
" transform="scale(0.015625)"/>
       <path id="DejaVuSans-67" d="M 2906 1791 
Q 2906 2416 2648 2759 
Q 2391 3103 1925 3103 
Q 1463 3103 1205 2759 
Q 947 2416 947 1791 
Q 947 1169 1205 825 
Q 1463 481 1925 481 
Q 2391 481 2648 825 
Q 2906 1169 2906 1791 
z
M 3481 434 
Q 3481 -459 3084 -895 
Q 2688 -1331 1869 -1331 
Q 1566 -1331 1297 -1286 
Q 1028 -1241 775 -1147 
L 775 -588 
Q 1028 -725 1275 -790 
Q 1522 -856 1778 -856 
Q 2344 -856 2625 -561 
Q 2906 -266 2906 331 
L 2906 616 
Q 2728 306 2450 153 
Q 2172 0 1784 0 
Q 1141 0 747 490 
Q 353 981 353 1791 
Q 353 2603 747 3093 
Q 1141 3584 1784 3584 
Q 2172 3584 2450 3431 
Q 2728 3278 2906 2969 
L 2906 3500 
L 3481 3500 
L 3481 434 
z
" transform="scale(0.015625)"/>
       <path id="DejaVuSans-31" d="M 794 531 
L 1825 531 
L 1825 4091 
L 703 3866 
L 703 4441 
L 1819 4666 
L 2450 4666 
L 2450 531 
L 3481 531 
L 3481 0 
L 794 0 
L 794 531 
z
" transform="scale(0.015625)"/>
       <path id="DejaVuSans-28" d="M 1984 4856 
Q 1566 4138 1362 3434 
Q 1159 2731 1159 2009 
Q 1159 1288 1364 580 
Q 1569 -128 1984 -844 
L 1484 -844 
Q 1016 -109 783 600 
Q 550 1309 550 2009 
Q 550 2706 781 3412 
Q 1013 4119 1484 4856 
L 1984 4856 
z
" transform="scale(0.015625)"/>
       <path id="DejaVuSans-23" d="M 3272 2816 
L 2363 2816 
L 2100 1772 
L 3016 1772 
L 3272 2816 
z
M 2803 4594 
L 2478 3297 
L 3391 3297 
L 3719 4594 
L 4219 4594 
L 3897 3297 
L 4872 3297 
L 4872 2816 
L 3775 2816 
L 3519 1772 
L 4513 1772 
L 4513 1294 
L 3397 1294 
L 3072 0 
L 2572 0 
L 2894 1294 
L 1978 1294 
L 1656 0 
L 1153 0 
L 1478 1294 
L 494 1294 
L 494 1772 
L 1594 1772 
L 1856 2816 
L 850 2816 
L 850 3297 
L 1978 3297 
L 2297 4594 
L 2803 4594 
z
" transform="scale(0.015625)"/>
       <path id="DejaVuSans-20" transform="scale(0.015625)"/>
       <path id="DejaVuSans-66" d="M 2375 4863 
L 2375 4384 
L 1825 4384 
Q 1516 4384 1395 4259 
Q 1275 4134 1275 3809 
L 1275 3500 
L 2222 3500 
L 2222 3053 
L 1275 3053 
L 1275 0 
L 697 0 
L 697 3053 
L 147 3053 
L 147 3500 
L 697 3500 
L 697 3744 
Q 697 4328 969 4595 
Q 1241 4863 1831 4863 
L 2375 4863 
z
" transform="scale(0.015625)"/>
       <path id="DejaVuSans-2d" d="M 313 2009 
L 1997 2009 
L 1997 1497 
L 313 1497 
L 313 2009 
z
" transform="scale(0.015625)"/>
       <path id="DejaVuSans-65" d="M 3597 1894 
L 3597 1613 
L 953 1613 
Q 991 1019 1311 708 
Q 1631 397 2203 397 
Q 2534 397 2845 478 
Q 3156 559 3463 722 
L 3463 178 
Q 3153 47 2828 -22 
Q 2503 -91 2169 -91 
Q 1331 -91 842 396 
Q 353 884 353 1716 
Q 353 2575 817 3079 
Q 1281 3584 2069 3584 
Q 2775 3584 3186 3129 
Q 3597 2675 3597 1894 
z
M 3022 2063 
Q 3016 2534 2758 2815 
Q 2500 3097 2075 3097 
Q 1594 3097 1305 2825 
Q 1016 2553 972 2059 
L 3022 2063 
z
" transform="scale(0.015625)"/>
       <path id="DejaVuSans-76" d="M 191 3500 
L 800 3500 
L 1894 563 
L 2988 3500 
L 3597 3500 
L 2284 0 
L 1503 0 
L 191 3500 
z
" transform="scale(0.015625)"/>
       <path id="DejaVuSans-61" d="M 2194 1759 
Q 1497 1759 1228 1600 
Q 959 1441 959 1056 
Q 959 750 1161 570 
Q 1363 391 1709 391 
Q 2188 391 2477 730 
Q 2766 1069 2766 1631 
L 2766 1759 
L 2194 1759 
z
M 3341 1997 
L 3341 0 
L 2766 0 
L 2766 531 
Q 2569 213 2275 61 
Q 1981 -91 1556 -91 
Q 1019 -91 701 211 
Q 384 513 384 1019 
Q 384 1609 779 1909 
Q 1175 2209 1959 2209 
L 2766 2209 
L 2766 2266 
Q 2766 2663 2505 2880 
Q 2244 3097 1772 3097 
Q 1472 3097 1187 3025 
Q 903 2953 641 2809 
L 641 3341 
Q 956 3463 1253 3523 
Q 1550 3584 1831 3584 
Q 2591 3584 2966 3190 
Q 3341 2797 3341 1997 
z
" transform="scale(0.015625)"/>
       <path id="DejaVuSans-73" d="M 2834 3397 
L 2834 2853 
Q 2591 2978 2328 3040 
Q 2066 3103 1784 3103 
Q 1356 3103 1142 2972 
Q 928 2841 928 2578 
Q 928 2378 1081 2264 
Q 1234 2150 1697 2047 
L 1894 2003 
Q 2506 1872 2764 1633 
Q 3022 1394 3022 966 
Q 3022 478 2636 193 
Q 2250 -91 1575 -91 
Q 1294 -91 989 -36 
Q 684 19 347 128 
L 347 722 
Q 666 556 975 473 
Q 1284 391 1588 391 
Q 1994 391 2212 530 
Q 2431 669 2431 922 
Q 2431 1156 2273 1281 
Q 2116 1406 1581 1522 
L 1381 1569 
Q 847 1681 609 1914 
Q 372 2147 372 2553 
Q 372 3047 722 3315 
Q 1072 3584 1716 3584 
Q 2034 3584 2315 3537 
Q 2597 3491 2834 3397 
z
" transform="scale(0.015625)"/>
       <path id="DejaVuSans-2f" d="M 1625 4666 
L 2156 4666 
L 531 -594 
L 0 -594 
L 1625 4666 
z
" transform="scale(0.015625)"/>
       <path id="DejaVuSans-64" d="M 2906 2969 
L 2906 4863 
L 3481 4863 
L 3481 0 
L 2906 0 
L 2906 525 
Q 2725 213 2448 61 
Q 2172 -91 1784 -91 
Q 1150 -91 751 415 
Q 353 922 353 1747 
Q 353 2572 751 3078 
Q 1150 3584 1784 3584 
Q 2172 3584 2448 3432 
Q 2725 3281 2906 2969 
z
M 947 1747 
Q 947 1113 1208 752 
Q 1469 391 1925 391 
Q 2381 391 2643 752 
Q 2906 1113 2906 1747 
Q 2906 2381 2643 2742 
Q 2381 3103 1925 3103 
Q 1469 3103 1208 2742 
Q 947 2381 947 1747 
z
" transform="scale(0.015625)"/>
       <path id="DejaVuSans-69" d="M 603 3500 
L 1178 3500 
L 1178 0 
L 603 0 
L 603 3500 
z
M 603 4863 
L 1178 4863 
L 1178 4134 
L 603 4134 
L 603 4863 
z
" transform="scale(0.015625)"/>
       <path id="DejaVuSans-6d" d="M 3328 2828 
Q 3544 3216 3844 3400 
Q 4144 3584 4550 3584 
Q 5097 3584 5394 3201 
Q 5691 2819 5691 2113 
L 5691 0 
L 5113 0 
L 5113 2094 
Q 5113 2597 4934 2840 
Q 4756 3084 4391 3084 
Q 3944 3084 3684 2787 
Q 3425 2491 3425 1978 
L 3425 0 
L 2847 0 
L 2847 2094 
Q 2847 2600 2669 2842 
Q 2491 3084 2119 3084 
Q 1678 3084 1418 2786 
Q 1159 2488 1159 1978 
L 1159 0 
L 581 0 
L 581 3500 
L 1159 3500 
L 1159 2956 
Q 1356 3278 1631 3431 
Q 1906 3584 2284 3584 
Q 2666 3584 2933 3390 
Q 3200 3197 3328 2828 
z
" transform="scale(0.015625)"/>
       <path id="DejaVuSans-6e" d="M 3513 2113 
L 3513 0 
L 2938 0 
L 2938 2094 
Q 2938 2591 2744 2837 
Q 2550 3084 2163 3084 
Q 1697 3084 1428 2787 
Q 1159 2491 1159 1978 
L 1159 0 
L 581 0 
L 581 3500 
L 1159 3500 
L 1159 2956 
Q 1366 3272 1645 3428 
Q 1925 3584 2291 3584 
Q 2894 3584 3203 3211 
Q 3513 2838 3513 2113 
z
" transform="scale(0.015625)"/>
       <path id="DejaVuSans-29" d="M 513 4856 
L 1013 4856 
Q 1481 4119 1714 3412 
Q 1947 2706 1947 2009 
Q 1947 1309 1714 600 
Q 1481 -109 1013 -844 
L 513 -844 
Q 928 -128 1133 580 
Q 1338 1288 1338 2009 
Q 1338 2731 1133 3434 
Q 928 4138 513 4856 
z
" transform="scale(0.015625)"/>
      </defs>
      <use xlink:href="#DejaVuSans-6c"/>
      <use xlink:href="#DejaVuSans-6f" x="27.783203"/>
      <use xlink:href="#DejaVuSans-67" x="88.964844"/>
      <use xlink:href="#DejaVuSans-31" x="152.441406"/>
      <use xlink:href="#DejaVuSans-30" x="216.064453"/>
      <use xlink:href="#DejaVuSans-28" x="279.6875"/>
      <use xlink:href="#DejaVuSans-23" x="318.701172"/>
      <use xlink:href="#DejaVuSans-20" x="402.490234"/>
      <use xlink:href="#DejaVuSans-66" x="434.277344"/>
      <use xlink:href="#DejaVuSans-2d" x="463.982422"/>
      <use xlink:href="#DejaVuSans-65" x="500.066406"/>
      <use xlink:href="#DejaVuSans-76" x="561.589844"/>
      <use xlink:href="#DejaVuSans-61" x="620.769531"/>
      <use xlink:href="#DejaVuSans-6c" x="682.048828"/>
      <use xlink:href="#DejaVuSans-73" x="709.832031"/>
      <use xlink:href="#DejaVuSans-20" x="761.931641"/>
      <use xlink:href="#DejaVuSans-2f" x="793.71875"/>
      <use xlink:href="#DejaVuSans-20" x="827.410156"/>
      <use xlink:href="#DejaVuSans-64" x="859.197266"/>
      <use xlink:href="#DejaVuSans-69" x="922.673828"/>
      <use xlink:href="#DejaVuSans-6d" x="950.457031"/>
      <use xlink:href="#DejaVuSans-65" x="1047.869141"/>
      <use xlink:href="#DejaVuSans-6e" x="1109.392578"/>
      <use xlink:href="#DejaVuSans-73" x="1172.771484"/>
      <use xlink:href="#DejaVuSans-69" x="1224.871094"/>
      <use xlink:href="#DejaVuSans-6f" x="1252.654297"/>
      <use xlink:href="#DejaVuSans-6e" x="1313.835938"/>
      <use xlink:href="#DejaVuSans-29" x="1377.214844"/>
     </g>
    </g>
   </g>
   <g id="matplotlib.axis_2">
    <g id="ytick_1">
     <g id="line2d_21">
      <path d="M 57.6 298.944 
L 360.8064 298.944 
" clip-path="url(#pf75f3ad165)" style="fill: none; stroke: #b0b0b0; stroke-width: 0.8; stroke-linecap: square"/>
     </g>
     <g id="line2d_22">
      <defs>
       <path id="me1f7d30974" d="M 0 0 
L -3.5 0 
" style="stroke: #000000; stroke-width: 0.8"/>
      </defs>
      <g>
       <use xlink:href="#me1f7d30974" x="57.6" y="298.944" style="stroke: #000000; stroke-width: 0.8"/>
      </g>
     </g>
     <g id="text_6">
      <!-- 0.0 -->
      <g transform="translate(25.155 305.02275)scale(0.16 -0.16)">
       <defs>
        <path id="DejaVuSans-2e" d="M 684 794 
L 1344 794 
L 1344 0 
L 684 0 
L 684 794 
z
" transform="scale(0.015625)"/>
       </defs>
       <use xlink:href="#DejaVuSans-30"/>
       <use xlink:href="#DejaVuSans-2e" x="63.623047"/>
       <use xlink:href="#DejaVuSans-30" x="95.410156"/>
      </g>
     </g>
    </g>
    <g id="ytick_2">
     <g id="line2d_23">
      <path d="M 57.6 244.6848 
L 360.8064 244.6848 
" clip-path="url(#pf75f3ad165)" style="fill: none; stroke: #b0b0b0; stroke-width: 0.8; stroke-linecap: square"/>
     </g>
     <g id="line2d_24">
      <g>
       <use xlink:href="#me1f7d30974" x="57.6" y="244.6848" style="stroke: #000000; stroke-width: 0.8"/>
      </g>
     </g>
     <g id="text_7">
      <!-- 0.2 -->
      <g transform="translate(25.155 250.76355)scale(0.16 -0.16)">
       <use xlink:href="#DejaVuSans-30"/>
       <use xlink:href="#DejaVuSans-2e" x="63.623047"/>
       <use xlink:href="#DejaVuSans-32" x="95.410156"/>
      </g>
     </g>
    </g>
    <g id="ytick_3">
     <g id="line2d_25">
      <path d="M 57.6 190.4256 
L 360.8064 190.4256 
" clip-path="url(#pf75f3ad165)" style="fill: none; stroke: #b0b0b0; stroke-width: 0.8; stroke-linecap: square"/>
     </g>
     <g id="line2d_26">
      <g>
       <use xlink:href="#me1f7d30974" x="57.6" y="190.4256" style="stroke: #000000; stroke-width: 0.8"/>
      </g>
     </g>
     <g id="text_8">
      <!-- 0.4 -->
      <g transform="translate(25.155 196.50435)scale(0.16 -0.16)">
       <use xlink:href="#DejaVuSans-30"/>
       <use xlink:href="#DejaVuSans-2e" x="63.623047"/>
       <use xlink:href="#DejaVuSans-34" x="95.410156"/>
      </g>
     </g>
    </g>
    <g id="ytick_4">
     <g id="line2d_27">
      <path d="M 57.6 136.1664 
L 360.8064 136.1664 
" clip-path="url(#pf75f3ad165)" style="fill: none; stroke: #b0b0b0; stroke-width: 0.8; stroke-linecap: square"/>
     </g>
     <g id="line2d_28">
      <g>
       <use xlink:href="#me1f7d30974" x="57.6" y="136.1664" style="stroke: #000000; stroke-width: 0.8"/>
      </g>
     </g>
     <g id="text_9">
      <!-- 0.6 -->
      <g transform="translate(25.155 142.24515)scale(0.16 -0.16)">
       <use xlink:href="#DejaVuSans-30"/>
       <use xlink:href="#DejaVuSans-2e" x="63.623047"/>
       <use xlink:href="#DejaVuSans-36" x="95.410156"/>
      </g>
     </g>
    </g>
    <g id="ytick_5">
     <g id="line2d_29">
      <path d="M 57.6 81.9072 
L 360.8064 81.9072 
" clip-path="url(#pf75f3ad165)" style="fill: none; stroke: #b0b0b0; stroke-width: 0.8; stroke-linecap: square"/>
     </g>
     <g id="line2d_30">
      <g>
       <use xlink:href="#me1f7d30974" x="57.6" y="81.9072" style="stroke: #000000; stroke-width: 0.8"/>
      </g>
     </g>
     <g id="text_10">
      <!-- 0.8 -->
      <g transform="translate(25.155 87.98595)scale(0.16 -0.16)">
       <defs>
        <path id="DejaVuSans-38" d="M 2034 2216 
Q 1584 2216 1326 1975 
Q 1069 1734 1069 1313 
Q 1069 891 1326 650 
Q 1584 409 2034 409 
Q 2484 409 2743 651 
Q 3003 894 3003 1313 
Q 3003 1734 2745 1975 
Q 2488 2216 2034 2216 
z
M 1403 2484 
Q 997 2584 770 2862 
Q 544 3141 544 3541 
Q 544 4100 942 4425 
Q 1341 4750 2034 4750 
Q 2731 4750 3128 4425 
Q 3525 4100 3525 3541 
Q 3525 3141 3298 2862 
Q 3072 2584 2669 2484 
Q 3125 2378 3379 2068 
Q 3634 1759 3634 1313 
Q 3634 634 3220 271 
Q 2806 -91 2034 -91 
Q 1263 -91 848 271 
Q 434 634 434 1313 
Q 434 1759 690 2068 
Q 947 2378 1403 2484 
z
M 1172 3481 
Q 1172 3119 1398 2916 
Q 1625 2713 2034 2713 
Q 2441 2713 2670 2916 
Q 2900 3119 2900 3481 
Q 2900 3844 2670 4047 
Q 2441 4250 2034 4250 
Q 1625 4250 1398 4047 
Q 1172 3844 1172 3481 
z
" transform="scale(0.015625)"/>
       </defs>
       <use xlink:href="#DejaVuSans-30"/>
       <use xlink:href="#DejaVuSans-2e" x="63.623047"/>
       <use xlink:href="#DejaVuSans-38" x="95.410156"/>
      </g>
     </g>
    </g>
    <g id="ytick_6">
     <g id="line2d_31">
      <path d="M 57.6 27.648 
L 360.8064 27.648 
" clip-path="url(#pf75f3ad165)" style="fill: none; stroke: #b0b0b0; stroke-width: 0.8; stroke-linecap: square"/>
     </g>
     <g id="line2d_32">
      <g>
       <use xlink:href="#me1f7d30974" x="57.6" y="27.648" style="stroke: #000000; stroke-width: 0.8"/>
      </g>
     </g>
     <g id="text_11">
      <!-- 1.0 -->
      <g transform="translate(25.155 33.72675)scale(0.16 -0.16)">
       <use xlink:href="#DejaVuSans-31"/>
       <use xlink:href="#DejaVuSans-2e" x="63.623047"/>
       <use xlink:href="#DejaVuSans-30" x="95.410156"/>
      </g>
     </g>
    </g>
    <g id="text_12">
     <!-- Fraction of function,target pairs -->
     <g transform="translate(17.619531 297.681)rotate(-90)scale(0.17 -0.17)">
      <defs>
       <path id="DejaVuSans-46" d="M 628 4666 
L 3309 4666 
L 3309 4134 
L 1259 4134 
L 1259 2759 
L 3109 2759 
L 3109 2228 
L 1259 2228 
L 1259 0 
L 628 0 
L 628 4666 
z
" transform="scale(0.015625)"/>
       <path id="DejaVuSans-72" d="M 2631 2963 
Q 2534 3019 2420 3045 
Q 2306 3072 2169 3072 
Q 1681 3072 1420 2755 
Q 1159 2438 1159 1844 
L 1159 0 
L 581 0 
L 581 3500 
L 1159 3500 
L 1159 2956 
Q 1341 3275 1631 3429 
Q 1922 3584 2338 3584 
Q 2397 3584 2469 3576 
Q 2541 3569 2628 3553 
L 2631 2963 
z
" transform="scale(0.015625)"/>
       <path id="DejaVuSans-63" d="M 3122 3366 
L 3122 2828 
Q 2878 2963 2633 3030 
Q 2388 3097 2138 3097 
Q 1578 3097 1268 2742 
Q 959 2388 959 1747 
Q 959 1106 1268 751 
Q 1578 397 2138 397 
Q 2388 397 2633 464 
Q 2878 531 3122 666 
L 3122 134 
Q 2881 22 2623 -34 
Q 2366 -91 2075 -91 
Q 1284 -91 818 406 
Q 353 903 353 1747 
Q 353 2603 823 3093 
Q 1294 3584 2113 3584 
Q 2378 3584 2631 3529 
Q 2884 3475 3122 3366 
z
" transform="scale(0.015625)"/>
       <path id="DejaVuSans-74" d="M 1172 4494 
L 1172 3500 
L 2356 3500 
L 2356 3053 
L 1172 3053 
L 1172 1153 
Q 1172 725 1289 603 
Q 1406 481 1766 481 
L 2356 481 
L 2356 0 
L 1766 0 
Q 1100 0 847 248 
Q 594 497 594 1153 
L 594 3053 
L 172 3053 
L 172 3500 
L 594 3500 
L 594 4494 
L 1172 4494 
z
" transform="scale(0.015625)"/>
       <path id="DejaVuSans-75" d="M 544 1381 
L 544 3500 
L 1119 3500 
L 1119 1403 
Q 1119 906 1312 657 
Q 1506 409 1894 409 
Q 2359 409 2629 706 
Q 2900 1003 2900 1516 
L 2900 3500 
L 3475 3500 
L 3475 0 
L 2900 0 
L 2900 538 
Q 2691 219 2414 64 
Q 2138 -91 1772 -91 
Q 1169 -91 856 284 
Q 544 659 544 1381 
z
M 1991 3584 
L 1991 3584 
z
" transform="scale(0.015625)"/>
       <path id="DejaVuSans-2c" d="M 750 794 
L 1409 794 
L 1409 256 
L 897 -744 
L 494 -744 
L 750 256 
L 750 794 
z
" transform="scale(0.015625)"/>
       <path id="DejaVuSans-70" d="M 1159 525 
L 1159 -1331 
L 581 -1331 
L 581 3500 
L 1159 3500 
L 1159 2969 
Q 1341 3281 1617 3432 
Q 1894 3584 2278 3584 
Q 2916 3584 3314 3078 
Q 3713 2572 3713 1747 
Q 3713 922 3314 415 
Q 2916 -91 2278 -91 
Q 1894 -91 1617 61 
Q 1341 213 1159 525 
z
M 3116 1747 
Q 3116 2381 2855 2742 
Q 2594 3103 2138 3103 
Q 1681 3103 1420 2742 
Q 1159 2381 1159 1747 
Q 1159 1113 1420 752 
Q 1681 391 2138 391 
Q 2594 391 2855 752 
Q 3116 1113 3116 1747 
z
" transform="scale(0.015625)"/>
      </defs>
      <use xlink:href="#DejaVuSans-46"/>
      <use xlink:href="#DejaVuSans-72" x="50.269531"/>
      <use xlink:href="#DejaVuSans-61" x="91.382812"/>
      <use xlink:href="#DejaVuSans-63" x="152.662109"/>
      <use xlink:href="#DejaVuSans-74" x="207.642578"/>
      <use xlink:href="#DejaVuSans-69" x="246.851562"/>
      <use xlink:href="#DejaVuSans-6f" x="274.634766"/>
      <use xlink:href="#DejaVuSans-6e" x="335.816406"/>
      <use xlink:href="#DejaVuSans-20" x="399.195312"/>
      <use xlink:href="#DejaVuSans-6f" x="430.982422"/>
      <use xlink:href="#DejaVuSans-66" x="492.164062"/>
      <use xlink:href="#DejaVuSans-20" x="527.369141"/>
      <use xlink:href="#DejaVuSans-66" x="559.15625"/>
      <use xlink:href="#DejaVuSans-75" x="594.361328"/>
      <use xlink:href="#DejaVuSans-6e" x="657.740234"/>
      <use xlink:href="#DejaVuSans-63" x="721.119141"/>
      <use xlink:href="#DejaVuSans-74" x="776.099609"/>
      <use xlink:href="#DejaVuSans-69" x="815.308594"/>
      <use xlink:href="#DejaVuSans-6f" x="843.091797"/>
      <use xlink:href="#DejaVuSans-6e" x="904.273438"/>
      <use xlink:href="#DejaVuSans-2c" x="967.652344"/>
      <use xlink:href="#DejaVuSans-74" x="999.439453"/>
      <use xlink:href="#DejaVuSans-61" x="1038.648438"/>
      <use xlink:href="#DejaVuSans-72" x="1099.927734"/>
      <use xlink:href="#DejaVuSans-67" x="1139.291016"/>
      <use xlink:href="#DejaVuSans-65" x="1202.767578"/>
      <use xlink:href="#DejaVuSans-74" x="1264.291016"/>
      <use xlink:href="#DejaVuSans-20" x="1303.5"/>
      <use xlink:href="#DejaVuSans-70" x="1335.287109"/>
      <use xlink:href="#DejaVuSans-61" x="1398.763672"/>
      <use xlink:href="#DejaVuSans-69" x="1460.042969"/>
      <use xlink:href="#DejaVuSans-72" x="1487.826172"/>
      <use xlink:href="#DejaVuSans-73" x="1528.939453"/>
     </g>
    </g>
   </g>
   <g id="line2d_33">
    <defs>
     <path id="m4020e1b714" d="M 0 1.5 
C 0.397805 1.5 0.77937 1.341951 1.06066 1.06066 
C 1.341951 0.77937 1.5 0.397805 1.5 0 
C 1.5 -0.397805 1.341951 -0.77937 1.06066 -1.06066 
C 0.77937 -1.341951 0.397805 -1.5 0 -1.5 
C -0.397805 -1.5 -0.77937 -1.341951 -1.06066 -1.06066 
C -1.341951 -0.77937 -1.5 -0.397805 -1.5 0 
C -1.5 0.397805 -1.341951 0.77937 -1.06066 1.06066 
C -0.77937 1.341951 -0.397805 1.5 0 1.5 
z
" style="stroke: #f5deb3"/>
    </defs>
    <g>
     <use xlink:href="#m4020e1b714" x="245.379232" y="27.648" style="fill: #f5deb3; stroke: #f5deb3"/>
     <use xlink:href="#m4020e1b714" x="245.379232" y="27.648" style="fill: #f5deb3; stroke: #f5deb3"/>
    </g>
   </g>
   <g id="line2d_34">
    <defs>
     <path id="me021645fea" d="M 0 1.5 
C 0.397805 1.5 0.77937 1.341951 1.06066 1.06066 
C 1.341951 0.77937 1.5 0.397805 1.5 0 
C 1.5 -0.397805 1.341951 -0.77937 1.06066 -1.06066 
C 0.77937 -1.341951 0.397805 -1.5 0 -1.5 
C -0.397805 -1.5 -0.77937 -1.341951 -1.06066 -1.06066 
C -1.341951 -0.77937 -1.5 -0.397805 -1.5 0 
C -1.5 0.397805 -1.341951 0.77937 -1.06066 1.06066 
C -0.77937 1.341951 -0.397805 1.5 0 1.5 
z
" style="stroke: #000080"/>
    </defs>
    <g>
     <use xlink:href="#me021645fea" x="347.612041" y="27.648" style="fill: #000080; stroke: #000080"/>
     <use xlink:href="#me021645fea" x="347.612041" y="27.648" style="fill: #000080; stroke: #000080"/>
    </g>
   </g>
   <g id="line2d_35">
    <path d="M 14.2848 298.944 
L 14.2848 275.538071 
L 27.323974 275.538071 
L 27.323974 272.346353 
L 34.951403 272.346353 
L 34.951403 271.282447 
L 44.560826 271.282447 
L 44.560826 270.218541 
L 55.618005 270.218541 
L 55.618005 269.154635 
L 62.535479 269.154635 
L 62.535479 267.026824 
L 63.929565 267.026824 
L 63.929565 265.962918 
L 76.96874 265.962918 
L 76.96874 264.899012 
L 92.223596 264.899012 
L 92.223596 263.835106 
L 98.295464 263.835106 
L 98.295464 262.7712 
L 108.915146 262.7712 
L 108.915146 261.707294 
L 117.305581 261.707294 
L 117.384126 259.579482 
L 118.962067 259.579482 
L 118.962067 258.515576 
L 120.879082 258.515576 
L 120.879082 257.451671 
L 135.717106 257.451671 
L 135.717106 256.387765 
L 163.109086 256.387765 
L 163.109086 255.323859 
L 165.652884 255.323859 
L 165.652884 254.259953 
L 166.848875 254.259953 
L 166.848875 253.196047 
L 169.104709 253.196047 
L 169.104709 252.132141 
L 170.722717 252.132141 
L 170.722717 251.068235 
L 172.148652 251.068235 
L 172.148652 250.004329 
L 178.898732 250.004329 
L 178.898732 248.940424 
L 179.723408 248.940424 
L 179.723408 247.876518 
L 180.630634 247.876518 
L 180.679474 245.748706 
L 182.158919 245.748706 
L 182.158919 244.6848 
L 183.34322 244.6848 
L 183.34322 243.620894 
L 183.699682 243.620894 
L 183.699682 242.556988 
L 183.835357 242.556988 
L 183.835357 241.493082 
L 184.160191 241.493082 
L 184.160191 240.429176 
L 185.927925 240.429176 
L 185.927925 239.365271 
L 190.327878 239.365271 
L 190.327878 238.301365 
L 197.429911 238.301365 
L 197.429911 237.237459 
L 197.568439 237.237459 
L 197.637873 235.109647 
L 197.865312 235.109647 
L 197.865312 234.045741 
L 201.233736 234.045741 
L 201.233736 232.981835 
L 204.059932 232.981835 
L 204.059932 231.917929 
L 204.984527 231.917929 
L 204.984527 230.854024 
L 208.576727 230.854024 
L 208.576727 229.790118 
L 215.818299 229.790118 
L 215.910563 227.662306 
L 216.170299 227.662306 
L 216.170299 226.5984 
L 217.163895 226.5984 
L 217.163895 225.534494 
L 217.282355 225.534494 
L 217.282355 224.470588 
L 217.666735 224.470588 
L 217.666735 223.406682 
L 218.256009 223.406682 
L 218.256009 222.342776 
L 221.128703 222.342776 
L 221.128703 221.278871 
L 233.651838 221.278871 
L 233.651838 220.214965 
L 237.752282 220.214965 
L 237.803334 218.087153 
L 238.643595 218.087153 
L 238.697994 214.895435 
L 238.888758 214.895435 
L 238.888758 213.831529 
L 245.562485 213.831529 
L 245.562485 212.767624 
L 255.888455 212.767624 
L 255.888455 211.703718 
L 261.666006 211.703718 
L 261.666006 210.639812 
L 262.576708 210.639812 
L 262.576708 209.575906 
L 264.461661 209.575906 
L 264.517352 207.448094 
L 268.207604 207.448094 
L 268.254256 205.320282 
L 272.643048 205.320282 
L 272.66155 202.128565 
L 280.663295 202.128565 
L 280.666813 200.000753 
L 282.36404 200.000753 
L 282.367838 197.872941 
L 282.86403 197.872941 
L 282.907151 161.700141 
L 294.351216 161.700141 
L 294.351216 161.345506 
L 297.986388 161.345506 
L 297.986388 160.990871 
L 298.206576 160.990871 
L 298.223396 135.811765 
L 304.15874 135.811765 
L 304.15874 135.457129 
L 306.400582 135.457129 
L 306.400582 135.102494 
L 306.543793 135.102494 
L 306.552459 113.115106 
L 312.298098 113.115106 
L 312.305447 97.865788 
L 316.699885 97.865788 
L 316.704936 85.808188 
L 320.263224 85.808188 
L 320.267985 77.651576 
L 323.200197 77.651576 
L 323.262524 65.948612 
L 325.841573 65.948612 
L 325.84441 60.274447 
L 328.112463 60.274447 
L 328.115634 52.827106 
L 330.138508 52.827106 
L 330.141324 48.571482 
L 331.968294 48.571482 
L 331.969668 44.670494 
L 333.634142 44.670494 
L 333.636506 40.769506 
L 335.165655 40.769506 
L 335.167112 38.287059 
L 336.581139 38.287059 
L 336.582895 35.804612 
L 337.89747 35.804612 
L 337.899213 33.6768 
L 339.128329 33.6768 
L 339.129465 31.548988 
L 340.283018 31.548988 
L 340.28414 29.421176 
L 342.400523 29.421176 
L 342.400523 29.066541 
L 343.375388 29.066541 
L 343.375875 28.357271 
L 345.186328 28.357271 
L 345.186328 28.002635 
L 347.612041 28.002635 
L 347.612041 27.648 
L 360.8064 27.648 
L 360.8064 27.648 
" style="fill: none; stroke: #000080; stroke-width: 1.5; stroke-linecap: square"/>
   </g>
   <g id="line2d_36">
    <defs>
     <path id="m4483ebcb1e" d="M 0 6 
C 1.591219 6 3.117479 5.367802 4.242641 4.242641 
C 5.367802 3.117479 6 1.591219 6 0 
C 6 -1.591219 5.367802 -3.117479 4.242641 -4.242641 
C 3.117479 -5.367802 1.591219 -6 0 -6 
C -1.591219 -6 -3.117479 -5.367802 -4.242641 -4.242641 
C -5.367802 -3.117479 -6 -1.591219 -6 0 
C -6 1.591219 -5.367802 3.117479 -4.242641 4.242641 
C -3.117479 5.367802 -1.591219 6 0 6 
z
" style="stroke: #000080; stroke-width: 1.5"/>
    </defs>
    <g>
     <use xlink:href="#m4483ebcb1e" x="63.929565" y="267.026824" style="fill-opacity: 0; stroke: #000080; stroke-width: 1.5"/>
     <use xlink:href="#m4483ebcb1e" x="135.717106" y="257.451671" style="fill-opacity: 0; stroke: #000080; stroke-width: 1.5"/>
     <use xlink:href="#m4483ebcb1e" x="233.651838" y="220.214965" style="fill-opacity: 0; stroke: #000080; stroke-width: 1.5"/>
     <use xlink:href="#m4483ebcb1e" x="298.223396" y="136.875671" style="fill-opacity: 0; stroke: #000080; stroke-width: 1.5"/>
     <use xlink:href="#m4483ebcb1e" x="347.612041" y="27.648" style="fill-opacity: 0; stroke: #000080; stroke-width: 1.5"/>
     <use xlink:href="#m4483ebcb1e" x="360.8064" y="27.648" style="fill-opacity: 0; stroke: #000080; stroke-width: 1.5"/>
    </g>
   </g>
   <g id="line2d_37">
    <path style="fill: none; stroke: #000080; stroke-width: 1.5; stroke-linecap: square"/>
    <g/>
   </g>
   <g id="line2d_38">
    <path d="M 287.215184 161.700141 
" clip-path="url(#pf75f3ad165)" style="fill: none; stroke: #000080; stroke-width: 1.5; stroke-linecap: square"/>
    <defs>
     <path id="mda959dace2" d="M -12 12 
L 12 -12 
M -12 -12 
L 12 12 
" style="stroke: #000080"/>
    </defs>
    <g clip-path="url(#pf75f3ad165)">
     <use xlink:href="#mda959dace2" x="287.215184" y="161.700141" style="fill: #000080; stroke: #000080"/>
    </g>
   </g>
   <g id="line2d_39">
    <defs>
     <path id="m34d841c160" d="M 0 1.5 
C 0.397805 1.5 0.77937 1.341951 1.06066 1.06066 
C 1.341951 0.77937 1.5 0.397805 1.5 0 
C 1.5 -0.397805 1.341951 -0.77937 1.06066 -1.06066 
C 0.77937 -1.341951 0.397805 -1.5 0 -1.5 
C -0.397805 -1.5 -0.77937 -1.341951 -1.06066 -1.06066 
C -1.341951 -0.77937 -1.5 -0.397805 -1.5 0 
C -1.5 0.397805 -1.341951 0.77937 -1.06066 1.06066 
C -0.77937 1.341951 -0.397805 1.5 0 1.5 
z
" style="stroke: #ff00ff"/>
    </defs>
    <g>
     <use xlink:href="#m34d841c160" x="324.646533" y="203.192471" style="fill: #ff00ff; stroke: #ff00ff"/>
     <use xlink:href="#m34d841c160" x="324.646533" y="203.192471" style="fill: #ff00ff; stroke: #ff00ff"/>
    </g>
   </g>
   <g id="line2d_40">
    <path d="M 14.2848 298.944 
L 14.2848 275.538071 
L 27.323974 275.538071 
L 27.323974 270.218541 
L 34.951403 270.218541 
L 34.951403 269.154635 
L 40.363149 269.154635 
L 40.363149 268.090729 
L 47.990577 268.090729 
L 47.990577 267.026824 
L 66.441498 267.026824 
L 66.441498 265.962918 
L 72.432107 265.962918 
L 72.432107 263.835106 
L 75.574654 263.835106 
L 75.574654 262.7712 
L 82.211771 262.7712 
L 82.211771 261.707294 
L 89.668958 261.707294 
L 89.668958 260.643388 
L 93.381595 260.643388 
L 93.381595 259.579482 
L 94.205591 259.579482 
L 94.205591 258.515576 
L 125.373824 258.515576 
L 125.373824 257.451671 
L 138.868751 257.451671 
L 138.868751 256.387765 
L 143.946089 256.387765 
L 143.946089 255.323859 
L 147.391749 255.323859 
L 147.391749 254.259953 
L 147.878349 254.259953 
L 147.878349 253.196047 
L 166.257466 253.196047 
L 166.257466 252.132141 
L 171.150271 252.132141 
L 171.150271 251.068235 
L 171.642946 251.068235 
L 171.642946 250.004329 
L 172.331145 250.004329 
L 172.331145 248.940424 
L 173.386429 248.940424 
L 173.386429 247.876518 
L 173.703196 247.876518 
L 173.703196 246.812612 
L 174.600249 246.812612 
L 174.600249 245.748706 
L 175.157205 245.748706 
L 175.157205 244.6848 
L 176.058402 244.6848 
L 176.058402 243.620894 
L 176.725451 243.620894 
L 176.725451 242.556988 
L 177.520908 242.556988 
L 177.556133 240.429176 
L 178.821121 240.429176 
L 178.821121 239.365271 
L 178.952275 239.365271 
L 178.952275 237.237459 
L 179.919112 237.237459 
L 179.919112 236.173553 
L 180.249148 236.173553 
L 180.249148 235.109647 
L 180.630634 235.109647 
L 180.630634 234.045741 
L 181.110772 234.045741 
L 181.110772 232.981835 
L 183.246539 232.981835 
L 183.246539 231.917929 
L 183.931346 231.917929 
L 183.931346 230.854024 
L 195.732727 230.854024 
L 195.732727 229.790118 
L 195.957801 229.790118 
L 195.957801 228.726212 
L 196.330578 228.726212 
L 196.390625 226.5984 
L 203.614476 226.5984 
L 203.682409 224.470588 
L 203.865009 224.470588 
L 203.865009 223.406682 
L 204.136405 223.406682 
L 204.136405 222.342776 
L 207.759716 222.342776 
L 207.830239 220.214965 
L 207.93362 220.214965 
L 207.93362 219.151059 
L 212.223857 219.151059 
L 212.223857 218.087153 
L 225.547119 218.087153 
L 225.547119 217.023247 
L 227.931712 217.023247 
L 227.984831 214.895435 
L 228.094326 214.895435 
L 228.094326 213.831529 
L 236.989083 213.831529 
L 237.031952 211.703718 
L 255.386911 211.703718 
L 255.422884 209.575906 
L 262.715943 209.575906 
L 262.715943 208.512 
L 265.43147 208.512 
L 265.43147 207.448094 
L 283.346522 207.448094 
L 283.346522 207.093459 
L 298.419308 207.093459 
L 298.419308 206.384188 
L 302.998597 206.384188 
L 302.998597 205.320282 
L 309.755017 205.320282 
L 309.755017 204.965647 
L 314.715654 204.965647 
L 314.715654 204.611012 
L 316.778529 204.611012 
L 316.778529 203.901741 
L 318.637379 203.901741 
L 318.637379 203.547106 
L 324.646533 203.547106 
L 324.646533 203.192471 
L 360.8064 203.192471 
L 360.8064 203.192471 
" style="fill: none; stroke: #ff00ff; stroke-width: 1.5; stroke-linecap: square"/>
   </g>
   <g id="line2d_41">
    <defs>
     <path id="m5f0b0c11fa" d="M -0 8.485281 
L 5.091169 0 
L 0 -8.485281 
L -5.091169 -0 
z
" style="stroke: #ff00ff; stroke-width: 1.5; stroke-linejoin: miter"/>
    </defs>
    <g>
     <use xlink:href="#m5f0b0c11fa" x="125.373824" y="258.515576" style="fill-opacity: 0; stroke: #ff00ff; stroke-width: 1.5; stroke-linejoin: miter"/>
     <use xlink:href="#m5f0b0c11fa" x="196.330578" y="227.662306" style="fill-opacity: 0; stroke: #ff00ff; stroke-width: 1.5; stroke-linejoin: miter"/>
     <use xlink:href="#m5f0b0c11fa" x="283.346522" y="207.093459" style="fill-opacity: 0; stroke: #ff00ff; stroke-width: 1.5; stroke-linejoin: miter"/>
     <use xlink:href="#m5f0b0c11fa" x="324.646533" y="203.192471" style="fill-opacity: 0; stroke: #ff00ff; stroke-width: 1.5; stroke-linejoin: miter"/>
     <use xlink:href="#m5f0b0c11fa" x="360.8064" y="203.192471" style="fill-opacity: 0; stroke: #ff00ff; stroke-width: 1.5; stroke-linejoin: miter"/>
    </g>
   </g>
   <g id="line2d_42">
    <path style="fill: none; stroke: #ff00ff; stroke-width: 1.5; stroke-linecap: square"/>
    <g/>
   </g>
   <g id="line2d_43">
    <path d="M 274.176019 207.448094 
" clip-path="url(#pf75f3ad165)" style="fill: none; stroke: #ff00ff; stroke-width: 1.5; stroke-linecap: square"/>
    <defs>
     <path id="me184581f22" d="M -12 12 
L 12 -12 
M -12 -12 
L 12 12 
" style="stroke: #ff00ff"/>
    </defs>
    <g clip-path="url(#pf75f3ad165)">
     <use xlink:href="#me184581f22" x="274.176019" y="207.448094" style="fill: #ff00ff; stroke: #ff00ff"/>
    </g>
   </g>
   <g id="line2d_44">
    <defs>
     <path id="mb310a392d9" d="M 0 1.5 
C 0.397805 1.5 0.77937 1.341951 1.06066 1.06066 
C 1.341951 0.77937 1.5 0.397805 1.5 0 
C 1.5 -0.397805 1.341951 -0.77937 1.06066 -1.06066 
C 0.77937 -1.341951 0.397805 -1.5 0 -1.5 
C -0.397805 -1.5 -0.77937 -1.341951 -1.06066 -1.06066 
C -1.341951 -0.77937 -1.5 -0.397805 -1.5 0 
C -1.5 0.397805 -1.341951 0.77937 -1.06066 1.06066 
C -0.77937 1.341951 -0.397805 1.5 0 1.5 
z
" style="stroke: #ff7500"/>
    </defs>
    <g>
     <use xlink:href="#mb310a392d9" x="344.409785" y="27.648" style="fill: #ff7500; stroke: #ff7500"/>
     <use xlink:href="#mb310a392d9" x="344.409785" y="27.648" style="fill: #ff7500; stroke: #ff7500"/>
    </g>
   </g>
   <g id="line2d_45">
    <path d="M 14.2848 298.944 
L 14.2848 275.538071 
L 27.323974 275.538071 
L 27.323974 272.346353 
L 34.951403 272.346353 
L 34.951403 269.154635 
L 47.990577 269.154635 
L 47.990577 268.090729 
L 50.890391 268.090729 
L 50.890391 267.026824 
L 55.618005 267.026824 
L 55.618005 265.962918 
L 59.392932 265.962918 
L 59.392932 262.7712 
L 62.535479 262.7712 
L 62.535479 261.707294 
L 81.166416 261.707294 
L 81.166416 259.579482 
L 84.142855 259.579482 
L 84.142855 258.515576 
L 90.007914 258.515576 
L 90.007914 257.451671 
L 108.667622 257.451671 
L 108.667622 256.387765 
L 108.915146 256.387765 
L 108.915146 255.323859 
L 114.7824 255.323859 
L 114.7824 254.259953 
L 116.419219 254.259953 
L 116.419219 253.196047 
L 135.14656 253.196047 
L 135.14656 252.132141 
L 147.753975 252.132141 
L 147.753975 251.068235 
L 149.959255 251.068235 
L 149.959255 250.004329 
L 152.965784 250.004329 
L 152.965784 248.940424 
L 155.884169 248.940424 
L 155.884169 247.876518 
L 156.550574 247.876518 
L 156.550574 246.812612 
L 157.456756 246.812612 
L 157.456756 245.748706 
L 158.007377 245.748706 
L 158.043518 243.620894 
L 158.463058 243.620894 
L 158.463058 242.556988 
L 158.699905 242.556988 
L 158.699905 241.493082 
L 158.864805 241.493082 
L 158.864805 240.429176 
L 159.139306 240.429176 
L 159.198823 238.301365 
L 159.435025 238.301365 
L 159.435025 237.237459 
L 159.996606 237.237459 
L 159.996606 236.173553 
L 160.375185 236.173553 
L 160.375185 234.045741 
L 160.902022 234.045741 
L 160.902022 232.981835 
L 161.399407 232.981835 
L 161.399407 231.917929 
L 161.88398 231.917929 
L 161.88398 230.854024 
L 162.463734 230.854024 
L 162.499383 228.726212 
L 162.928937 228.726212 
L 162.928937 227.662306 
L 164.168227 227.662306 
L 164.168227 226.5984 
L 165.483464 226.5984 
L 165.483464 225.534494 
L 179.623354 225.534494 
L 179.623354 224.470588 
L 179.854104 224.470588 
L 179.854104 223.406682 
L 180.287923 223.406682 
L 180.287923 222.342776 
L 180.782166 222.342776 
L 180.782166 221.278871 
L 183.805546 221.278871 
L 183.805546 220.214965 
L 193.249467 220.214965 
L 193.249467 219.151059 
L 193.759252 219.151059 
L 193.759252 218.087153 
L 198.606959 218.087153 
L 198.606959 217.023247 
L 201.198264 217.023247 
L 201.198264 215.959341 
L 209.40392 215.959341 
L 209.468551 213.831529 
L 209.643114 213.831529 
L 209.643114 212.767624 
L 209.842541 212.767624 
L 209.842541 211.703718 
L 235.905503 211.703718 
L 235.905503 210.639812 
L 236.027822 210.639812 
L 236.076072 208.512 
L 236.252313 208.512 
L 236.252313 207.448094 
L 236.615025 207.448094 
L 236.615025 206.384188 
L 245.496242 206.384188 
L 245.577547 203.192471 
L 245.637074 203.192471 
L 245.688888 201.064659 
L 245.750877 201.064659 
L 245.860521 196.809035 
L 245.901918 196.809035 
L 246.011445 192.553412 
L 246.067688 192.553412 
L 246.13237 189.361694 
L 246.198329 189.361694 
L 246.289505 186.169976 
L 246.320957 186.169976 
L 246.411625 181.914353 
L 246.443202 181.914353 
L 246.504397 178.722635 
L 246.55878 178.722635 
L 246.64319 174.467012 
L 246.712245 174.467012 
L 246.712245 173.403106 
L 274.501246 173.403106 
L 274.510987 170.920659 
L 274.836662 170.920659 
L 274.836662 170.566024 
L 275.054309 170.566024 
L 275.054309 170.211388 
L 276.736934 170.211388 
L 276.776835 169.502118 
L 278.112925 169.502118 
L 278.218771 165.601129 
L 278.226841 165.601129 
L 278.318968 161.345506 
L 284.005527 161.345506 
L 284.010591 159.217694 
L 285.224284 159.217694 
L 285.264339 158.508424 
L 285.391894 158.508424 
L 285.391894 158.153788 
L 285.807816 158.153788 
L 285.917537 153.543529 
L 285.921406 153.543529 
L 285.954605 151.061082 
L 286.100298 151.061082 
L 286.208331 144.677647 
L 286.212141 144.677647 
L 286.319397 140.776659 
L 286.329979 140.776659 
L 286.406948 136.875671 
L 288.670933 136.875671 
L 288.670933 136.521035 
L 289.444521 136.521035 
L 289.513113 135.102494 
L 292.870102 135.102494 
L 292.873263 134.393224 
L 293.665718 134.393224 
L 293.757925 133.329318 
L 294.034667 133.329318 
L 294.10061 131.556141 
L 294.237585 131.556141 
L 294.338602 129.073694 
L 294.364489 129.073694 
L 294.383525 127.655153 
L 296.436082 127.655153 
L 296.436082 127.300518 
L 297.656396 127.300518 
L 297.762351 125.527341 
L 297.78344 125.527341 
L 297.877774 123.754165 
L 297.902918 123.754165 
L 297.980238 120.562447 
L 298.025412 120.562447 
L 298.127129 117.370729 
L 298.137031 117.370729 
L 298.225471 115.242918 
L 298.256567 115.242918 
L 298.260044 114.533647 
L 299.711734 114.533647 
L 299.768341 113.115106 
L 299.855186 113.115106 
L 299.953654 110.987294 
L 301.545042 110.987294 
L 301.545042 110.632659 
L 302.397458 110.632659 
L 302.397458 110.278024 
L 302.527552 110.278024 
L 302.557701 109.568753 
L 302.644277 109.568753 
L 302.736974 106.377035 
L 302.756668 106.377035 
L 302.862518 104.249224 
L 302.883795 104.249224 
L 302.935459 102.121412 
L 303.350145 102.121412 
L 303.350145 101.766776 
L 304.102792 101.766776 
L 304.112069 101.057506 
L 304.22459 101.057506 
L 304.22459 100.702871 
L 304.652705 100.702871 
L 304.652705 100.348235 
L 304.947893 100.348235 
L 304.974708 99.638965 
L 305.059586 99.638965 
L 305.161347 96.801882 
L 305.204011 96.801882 
L 305.283947 95.383341 
L 305.345617 95.383341 
L 305.442338 92.546259 
L 305.484912 92.546259 
L 305.484912 92.191624 
L 305.844307 92.191624 
L 305.844307 91.836988 
L 306.344467 91.836988 
L 306.344467 91.482353 
L 306.470215 91.482353 
L 306.49601 90.773082 
L 306.602149 90.773082 
L 306.617329 89.354541 
L 308.097182 89.354541 
L 308.097182 88.999906 
L 308.376257 88.999906 
L 308.446805 88.290635 
L 308.491364 88.290635 
L 308.551028 85.453553 
L 308.666496 85.453553 
L 308.775678 84.744282 
L 308.786758 84.744282 
L 308.79184 84.035012 
L 309.612494 84.035012 
L 309.667206 83.325741 
L 309.748054 83.325741 
L 309.776696 82.616471 
L 310.163076 82.616471 
L 310.163076 82.261835 
L 310.296394 82.261835 
L 310.370141 81.197929 
L 310.430304 81.197929 
L 310.534342 79.779388 
L 310.553276 79.779388 
L 310.637784 79.070118 
L 311.235701 79.070118 
L 311.235701 78.715482 
L 311.41859 78.715482 
L 311.473155 77.296941 
L 311.542821 77.296941 
L 311.542821 76.942306 
L 312.304627 76.942306 
L 312.353644 76.233035 
L 312.662489 76.233035 
L 312.662489 75.8784 
L 312.871769 75.8784 
L 312.950449 74.814494 
L 312.985796 74.814494 
L 313.065217 72.686682 
L 313.104307 72.686682 
L 313.210107 70.913506 
L 313.777838 70.913506 
L 313.870482 69.8496 
L 313.935253 69.8496 
L 313.93678 69.140329 
L 314.374543 69.140329 
L 314.47704 68.431059 
L 314.498876 68.431059 
L 314.498876 68.076424 
L 314.700113 68.076424 
L 314.700113 67.721788 
L 315.253983 67.721788 
L 315.364002 65.593976 
L 315.367511 65.593976 
L 315.367511 65.239341 
L 316.301316 65.239341 
L 316.301316 64.884706 
L 316.589815 64.884706 
L 316.681378 63.466165 
L 316.708431 63.466165 
L 316.708431 63.111529 
L 317.260013 63.111529 
L 317.260013 62.756894 
L 317.394293 62.756894 
L 317.45735 61.692988 
L 317.828338 61.692988 
L 317.927512 60.274447 
L 317.942477 60.274447 
L 318.041053 59.210541 
L 318.491993 59.210541 
L 318.576187 58.501271 
L 318.606973 58.501271 
L 318.694382 57.792 
L 319.105722 57.792 
L 319.105722 57.437365 
L 319.598428 57.437365 
L 319.687473 56.018824 
L 319.818568 56.018824 
L 319.818568 55.664188 
L 320.168755 55.664188 
L 320.168755 55.309553 
L 320.589601 55.309553 
L 320.677569 54.245647 
L 321.137626 54.245647 
L 321.240401 53.536376 
L 321.286056 53.536376 
L 321.322858 52.472471 
L 322.269012 52.472471 
L 322.269012 52.117835 
L 322.401616 52.117835 
L 322.401616 51.7632 
L 322.769352 51.7632 
L 322.778796 51.053929 
L 323.197313 51.053929 
L 323.248776 50.344659 
L 323.640064 50.344659 
L 323.682865 49.280753 
L 323.761421 49.280753 
L 323.761421 48.926118 
L 324.272805 48.926118 
L 324.272805 48.571482 
L 324.511002 48.571482 
L 324.592185 47.507576 
L 325.096911 47.507576 
L 325.096911 47.152941 
L 325.25504 47.152941 
L 325.25504 46.798306 
L 325.683762 46.798306 
L 325.683762 46.443671 
L 325.836351 46.443671 
L 325.836351 46.089035 
L 326.30173 46.089035 
L 326.30173 45.7344 
L 326.490124 45.7344 
L 326.550855 45.025129 
L 326.91923 45.025129 
L 327.021574 42.542682 
L 327.313183 42.542682 
L 327.313183 42.188047 
L 327.745634 42.188047 
L 327.810825 41.478776 
L 328.037136 41.478776 
L 328.037136 41.124141 
L 328.306374 41.124141 
L 328.306374 40.769506 
L 328.74698 40.769506 
L 328.855272 39.350965 
L 329.271134 39.350965 
L 329.271134 38.996329 
L 329.469896 38.996329 
L 329.480139 38.287059 
L 329.592659 38.287059 
L 329.592659 37.932424 
L 329.836615 37.932424 
L 329.836615 37.577788 
L 330.453055 37.577788 
L 330.526203 35.804612 
L 330.983996 35.804612 
L 330.983996 35.449976 
L 331.33171 35.449976 
L 331.33171 35.095341 
L 331.985081 35.095341 
L 331.985081 34.740706 
L 332.256499 34.740706 
L 332.256499 34.386071 
L 332.627104 34.386071 
L 332.627104 34.031435 
L 332.755905 34.031435 
L 332.848219 33.322165 
L 332.883241 33.322165 
L 332.883241 32.967529 
L 333.086132 32.967529 
L 333.086132 32.612894 
L 333.29082 32.612894 
L 333.350611 31.903624 
L 333.826768 31.903624 
L 333.881586 31.194353 
L 334.757695 31.194353 
L 334.757695 30.839718 
L 334.907217 30.839718 
L 334.907217 30.485082 
L 335.358966 30.485082 
L 335.358966 30.130447 
L 336.993042 30.130447 
L 337.094766 29.421176 
L 338.123924 29.421176 
L 338.123924 29.066541 
L 341.830797 29.066541 
L 341.830797 28.711906 
L 342.434214 28.711906 
L 342.434214 28.357271 
L 343.233586 28.357271 
L 343.233586 28.002635 
L 344.409785 28.002635 
L 344.409785 27.648 
L 360.8064 27.648 
L 360.8064 27.648 
" style="fill: none; stroke: #ff7500; stroke-width: 1.5; stroke-linecap: square"/>
   </g>
   <g id="line2d_46">
    <defs>
     <path id="m7422d187b6" d="M 0 -6 
L -1.347084 -1.854102 
L -5.706339 -1.854102 
L -2.179628 0.708204 
L -3.526712 4.854102 
L -0 2.291796 
L 3.526712 4.854102 
L 2.179628 0.708204 
L 5.706339 -1.854102 
L 1.347084 -1.854102 
z
" style="stroke: #ff7500; stroke-width: 1.5; stroke-linejoin: bevel"/>
    </defs>
    <g>
     <use xlink:href="#m7422d187b6" x="160.902022" y="232.981835" style="fill-opacity: 0; stroke: #ff7500; stroke-width: 1.5; stroke-linejoin: bevel"/>
     <use xlink:href="#m7422d187b6" x="236.615025" y="206.384188" style="fill-opacity: 0; stroke: #ff7500; stroke-width: 1.5; stroke-linejoin: bevel"/>
     <use xlink:href="#m7422d187b6" x="289.513113" y="135.102494" style="fill-opacity: 0; stroke: #ff7500; stroke-width: 1.5; stroke-linejoin: bevel"/>
     <use xlink:href="#m7422d187b6" x="344.409785" y="27.648" style="fill-opacity: 0; stroke: #ff7500; stroke-width: 1.5; stroke-linejoin: bevel"/>
     <use xlink:href="#m7422d187b6" x="344.409785" y="27.648" style="fill-opacity: 0; stroke: #ff7500; stroke-width: 1.5; stroke-linejoin: bevel"/>
     <use xlink:href="#m7422d187b6" x="360.8064" y="27.648" style="fill-opacity: 0; stroke: #ff7500; stroke-width: 1.5; stroke-linejoin: bevel"/>
    </g>
   </g>
   <g id="line2d_47">
    <path style="fill: none; stroke: #ff7500; stroke-width: 1.5; stroke-linecap: square"/>
    <g/>
   </g>
   <g id="line2d_48">
    <path d="M 283.791453 161.345506 
" clip-path="url(#pf75f3ad165)" style="fill: none; stroke: #ff7500; stroke-width: 1.5; stroke-linecap: square"/>
    <defs>
     <path id="ma382a4fee4" d="M -12 12 
L 12 -12 
M -12 -12 
L 12 12 
" style="stroke: #ff7500"/>
    </defs>
    <g clip-path="url(#pf75f3ad165)">
     <use xlink:href="#ma382a4fee4" x="283.791453" y="161.345506" style="fill: #ff7500; stroke: #ff7500"/>
    </g>
   </g>
   <g id="line2d_49">
    <defs>
     <path id="m3216feb324" d="M 0 1.5 
C 0.397805 1.5 0.77937 1.341951 1.06066 1.06066 
C 1.341951 0.77937 1.5 0.397805 1.5 0 
C 1.5 -0.397805 1.341951 -0.77937 1.06066 -1.06066 
C 0.77937 -1.341951 0.397805 -1.5 0 -1.5 
C -0.397805 -1.5 -0.77937 -1.341951 -1.06066 -1.06066 
C -1.341951 -0.77937 -1.5 -0.397805 -1.5 0 
C -1.5 0.397805 -1.341951 0.77937 -1.06066 1.06066 
C -0.77937 1.341951 -0.397805 1.5 0 1.5 
z
" style="stroke: #6495ed"/>
    </defs>
    <g>
     <use xlink:href="#m3216feb324" x="335.522122" y="192.553412" style="fill: #6495ed; stroke: #6495ed"/>
     <use xlink:href="#m3216feb324" x="335.522122" y="192.553412" style="fill: #6495ed; stroke: #6495ed"/>
    </g>
   </g>
   <g id="line2d_50">
    <path d="M 14.2848 298.944 
L 14.2848 275.538071 
L 27.323974 275.538071 
L 27.323974 273.410259 
L 40.363149 273.410259 
L 40.363149 272.346353 
L 44.560826 272.346353 
L 44.560826 269.154635 
L 53.402323 269.154635 
L 53.402323 268.090729 
L 59.392932 268.090729 
L 59.392932 264.899012 
L 68.65718 264.899012 
L 68.65718 263.835106 
L 73.268314 263.835106 
L 73.268314 262.7712 
L 74.068926 262.7712 
L 74.068926 261.707294 
L 95.752617 261.707294 
L 95.752617 260.643388 
L 97.410051 260.643388 
L 97.410051 258.515576 
L 111.334639 258.515576 
L 111.334639 257.451671 
L 115.314838 257.451671 
L 115.314838 256.387765 
L 120.013265 256.387765 
L 120.013265 255.323859 
L 121.706797 255.323859 
L 121.706797 254.259953 
L 129.125437 254.259953 
L 129.125437 253.196047 
L 142.435586 253.196047 
L 142.435586 252.132141 
L 143.888708 252.132141 
L 143.888708 251.068235 
L 144.731576 251.068235 
L 144.731576 250.004329 
L 145.730339 250.004329 
L 145.730339 248.940424 
L 147.070998 248.940424 
L 147.070998 247.876518 
L 148.844805 247.876518 
L 148.844805 246.812612 
L 150.056115 246.812612 
L 150.056115 245.748706 
L 150.506141 245.748706 
L 150.506141 244.6848 
L 151.50336 244.6848 
L 151.50336 243.620894 
L 152.53524 243.620894 
L 152.53524 242.556988 
L 153.501961 242.556988 
L 153.501961 241.493082 
L 153.662158 241.493082 
L 153.662158 240.429176 
L 154.311669 240.429176 
L 154.311669 239.365271 
L 154.789862 239.365271 
L 154.789862 238.301365 
L 156.035428 238.301365 
L 156.035428 237.237459 
L 157.706532 237.237459 
L 157.816487 235.109647 
L 158.383441 235.109647 
L 158.383441 234.045741 
L 159.384659 234.045741 
L 159.384659 232.981835 
L 159.775628 232.981835 
L 159.775628 231.917929 
L 160.020999 231.917929 
L 160.020999 230.854024 
L 161.459725 230.854024 
L 161.459725 229.790118 
L 163.026155 229.790118 
L 163.026155 228.726212 
L 164.272231 228.726212 
L 164.272231 227.662306 
L 174.053297 227.662306 
L 174.145567 225.534494 
L 193.156165 225.534494 
L 193.156165 224.470588 
L 194.95227 224.470588 
L 194.95227 223.406682 
L 206.896864 223.406682 
L 206.896864 222.342776 
L 207.046896 222.342776 
L 207.046896 221.278871 
L 207.177862 221.278871 
L 207.240034 219.151059 
L 207.459947 219.151059 
L 207.459947 218.087153 
L 207.917066 218.087153 
L 207.917066 217.023247 
L 208.687106 217.023247 
L 208.687106 215.959341 
L 215.069528 215.959341 
L 215.069528 214.895435 
L 215.261042 214.895435 
L 215.356931 212.767624 
L 215.491977 212.767624 
L 215.491977 211.703718 
L 215.665341 211.703718 
L 215.665341 210.639812 
L 215.903898 210.639812 
L 215.903898 209.575906 
L 232.355874 209.575906 
L 232.355874 208.512 
L 243.605921 208.512 
L 243.712052 206.384188 
L 243.919998 206.384188 
L 243.919998 205.320282 
L 244.123161 205.320282 
L 244.123161 204.256376 
L 264.188484 204.256376 
L 264.254426 202.128565 
L 264.474457 202.128565 
L 264.474457 201.064659 
L 283.013406 201.064659 
L 283.119041 199.646118 
L 289.161733 199.646118 
L 289.188463 198.582212 
L 289.576328 198.582212 
L 289.576328 198.227576 
L 292.296606 198.227576 
L 292.296606 197.872941 
L 297.892145 197.872941 
L 297.892145 197.518306 
L 299.746949 197.518306 
L 299.853697 196.809035 
L 300.02606 196.809035 
L 300.02606 196.4544 
L 302.634682 196.4544 
L 302.634682 196.099765 
L 304.015851 196.099765 
L 304.098728 195.390494 
L 306.56055 195.390494 
L 306.56055 195.035859 
L 312.224447 195.035859 
L 312.224447 194.681224 
L 313.745824 194.681224 
L 313.745824 194.326588 
L 315.291564 194.326588 
L 315.291564 193.971953 
L 316.650073 193.971953 
L 316.650073 193.617318 
L 320.167776 193.617318 
L 320.167776 193.262682 
L 329.005136 193.262682 
L 329.005136 192.908047 
L 335.522122 192.908047 
L 335.522122 192.553412 
L 360.8064 192.553412 
L 360.8064 192.553412 
" style="fill: none; stroke: #6495ed; stroke-width: 1.5; stroke-linecap: square"/>
   </g>
   <g id="line2d_51">
    <defs>
     <path id="m17c6d999bd" d="M -0 6 
L 6 -6 
L -6 -6 
z
" style="stroke: #6495ed; stroke-width: 1.5; stroke-linejoin: miter"/>
    </defs>
    <g>
     <use xlink:href="#m17c6d999bd" x="97.410051" y="260.643388" style="fill-opacity: 0; stroke: #6495ed; stroke-width: 1.5; stroke-linejoin: miter"/>
     <use xlink:href="#m17c6d999bd" x="174.145567" y="226.5984" style="fill-opacity: 0; stroke: #6495ed; stroke-width: 1.5; stroke-linejoin: miter"/>
     <use xlink:href="#m17c6d999bd" x="244.123161" y="204.256376" style="fill-opacity: 0; stroke: #6495ed; stroke-width: 1.5; stroke-linejoin: miter"/>
     <use xlink:href="#m17c6d999bd" x="335.522122" y="192.908047" style="fill-opacity: 0; stroke: #6495ed; stroke-width: 1.5; stroke-linejoin: miter"/>
     <use xlink:href="#m17c6d999bd" x="335.522122" y="192.553412" style="fill-opacity: 0; stroke: #6495ed; stroke-width: 1.5; stroke-linejoin: miter"/>
     <use xlink:href="#m17c6d999bd" x="360.8064" y="192.553412" style="fill-opacity: 0; stroke: #6495ed; stroke-width: 1.5; stroke-linejoin: miter"/>
    </g>
   </g>
   <g id="line2d_52">
    <path style="fill: none; stroke: #6495ed; stroke-width: 1.5; stroke-linecap: square"/>
    <g/>
   </g>
   <g id="line2d_53">
    <path d="M 283.262457 199.646118 
" clip-path="url(#pf75f3ad165)" style="fill: none; stroke: #6495ed; stroke-width: 1.5; stroke-linecap: square"/>
    <defs>
     <path id="m6116aa2662" d="M -12 12 
L 12 -12 
M -12 -12 
L 12 12 
" style="stroke: #6495ed"/>
    </defs>
    <g clip-path="url(#pf75f3ad165)">
     <use xlink:href="#m6116aa2662" x="283.262457" y="199.646118" style="fill: #6495ed; stroke: #6495ed"/>
    </g>
   </g>
   <g id="line2d_54">
    <defs>
     <path id="m7d60087853" d="M 0 1.5 
C 0.397805 1.5 0.77937 1.341951 1.06066 1.06066 
C 1.341951 0.77937 1.5 0.397805 1.5 0 
C 1.5 -0.397805 1.341951 -0.77937 1.06066 -1.06066 
C 0.77937 -1.341951 0.397805 -1.5 0 -1.5 
C -0.397805 -1.5 -0.77937 -1.341951 -1.06066 -1.06066 
C -1.341951 -0.77937 -1.5 -0.397805 -1.5 0 
C -1.5 0.397805 -1.341951 0.77937 -1.06066 1.06066 
C -0.77937 1.341951 -0.397805 1.5 0 1.5 
z
" style="stroke: #ff0000"/>
    </defs>
    <g>
     <use xlink:href="#m7d60087853" x="346.214316" y="27.648" style="fill: #ff0000; stroke: #ff0000"/>
     <use xlink:href="#m7d60087853" x="346.214316" y="27.648" style="fill: #ff0000; stroke: #ff0000"/>
    </g>
   </g>
   <g id="line2d_55">
    <path d="M 14.2848 298.944 
L 14.2848 275.892706 
L 27.323974 275.892706 
L 27.323974 273.410259 
L 34.951403 273.410259 
L 34.951403 272.700988 
L 40.363149 272.700988 
L 40.363149 270.573176 
L 44.560826 270.573176 
L 44.560826 269.863906 
L 47.990577 269.863906 
L 47.990577 268.090729 
L 53.402323 268.090729 
L 53.402323 267.736094 
L 55.618005 267.736094 
L 55.618005 267.381459 
L 59.392932 267.381459 
L 59.392932 265.962918 
L 61.029752 265.962918 
L 61.029752 265.608282 
L 62.535479 265.608282 
L 62.535479 264.189741 
L 63.929565 264.189741 
L 63.929565 263.835106 
L 65.227428 263.835106 
L 65.227428 263.125835 
L 73.268314 263.125835 
L 73.268314 262.7712 
L 74.836851 262.7712 
L 74.836851 262.416565 
L 75.574654 262.416565 
L 75.574654 262.061929 
L 76.96874 262.061929 
L 76.96874 261.707294 
L 78.266603 261.707294 
L 78.266603 261.352659 
L 78.88343 261.352659 
L 78.88343 260.998024 
L 80.059535 260.998024 
L 80.059535 260.643388 
L 83.202082 260.643388 
L 83.202082 260.288753 
L 87.876026 260.288753 
L 87.876026 259.934118 
L 90.007914 259.934118 
L 90.007914 259.579482 
L 92.519847 259.579482 
L 92.519847 259.224847 
L 97.18203 259.224847 
L 97.18203 258.515576 
L 100.9152 258.515576 
L 100.9152 258.160941 
L 105.559021 258.160941 
L 105.559021 257.806306 
L 107.643612 257.806306 
L 107.643612 257.451671 
L 108.29012 257.451671 
L 108.29012 257.097035 
L 117.226706 257.097035 
L 117.226706 256.7424 
L 120.28394 256.7424 
L 120.28394 256.387765 
L 122.499621 256.387765 
L 122.499621 256.033129 
L 126.323346 256.033129 
L 126.323346 255.678494 
L 131.153565 255.678494 
L 131.153565 255.323859 
L 140.382174 255.323859 
L 140.474275 254.614588 
L 142.269295 254.614588 
L 142.269295 254.259953 
L 144.565997 254.259953 
L 144.565997 253.905318 
L 148.352679 253.905318 
L 148.352679 253.550682 
L 154.660647 253.550682 
L 154.660647 253.196047 
L 157.382107 253.196047 
L 157.382107 252.841412 
L 158.79555 252.841412 
L 158.79555 252.486776 
L 159.527013 252.486776 
L 159.527013 252.132141 
L 160.351247 252.132141 
L 160.351247 251.777506 
L 164.612692 251.777506 
L 164.612692 251.422871 
L 165.695002 251.422871 
L 165.695002 251.068235 
L 166.251633 251.068235 
L 166.251633 250.7136 
L 166.865825 250.7136 
L 166.865825 250.358965 
L 168.279666 250.358965 
L 168.279666 250.004329 
L 169.15978 250.004329 
L 169.15978 249.649694 
L 169.721213 249.649694 
L 169.721213 249.295059 
L 170.374474 249.295059 
L 170.481956 248.585788 
L 170.514546 248.585788 
L 170.514546 248.231153 
L 171.100737 248.231153 
L 171.141275 247.521882 
L 171.804344 247.521882 
L 171.882365 246.812612 
L 172.033151 246.812612 
L 172.076012 246.103341 
L 172.169963 246.103341 
L 172.169963 245.748706 
L 172.578697 245.748706 
L 172.578697 245.394071 
L 172.752956 245.394071 
L 172.752956 245.039435 
L 173.129118 245.039435 
L 173.129118 244.6848 
L 173.250171 244.6848 
L 173.250171 244.330165 
L 173.765914 244.330165 
L 173.765914 243.975529 
L 173.890727 243.975529 
L 173.910154 243.266259 
L 174.878944 243.266259 
L 174.95257 242.556988 
L 175.218888 242.556988 
L 175.218888 242.202353 
L 175.49934 242.202353 
L 175.49934 241.847718 
L 176.048006 241.847718 
L 176.048006 241.493082 
L 176.513611 241.493082 
L 176.513611 241.138447 
L 176.818842 241.138447 
L 176.818842 240.783812 
L 177.917356 240.783812 
L 177.917356 240.429176 
L 179.264532 240.429176 
L 179.264532 240.074541 
L 179.888049 240.074541 
L 179.888049 239.719906 
L 180.39277 239.719906 
L 180.39277 239.365271 
L 180.886981 239.365271 
L 180.886981 239.010635 
L 181.195331 239.010635 
L 181.195331 238.656 
L 185.204877 238.656 
L 185.204877 238.301365 
L 185.711425 238.301365 
L 185.808643 237.592094 
L 186.105442 237.592094 
L 186.194587 236.882824 
L 186.383629 236.882824 
L 186.383629 236.528188 
L 186.598507 236.528188 
L 186.598507 236.173553 
L 187.038437 236.173553 
L 187.038437 235.818918 
L 187.736506 235.818918 
L 187.736506 235.464282 
L 188.431143 235.464282 
L 188.431143 235.109647 
L 190.762522 235.109647 
L 190.762522 234.400376 
L 191.418434 234.400376 
L 191.418434 234.045741 
L 191.872257 234.045741 
L 191.872257 233.691106 
L 192.688308 233.691106 
L 192.688308 233.336471 
L 193.278616 233.336471 
L 193.336779 232.6272 
L 193.590854 232.6272 
L 193.590854 232.272565 
L 194.352776 232.272565 
L 194.352776 231.563294 
L 194.789144 231.563294 
L 194.851758 230.854024 
L 194.971294 230.854024 
L 194.971294 230.499388 
L 195.573804 230.499388 
L 195.573804 230.144753 
L 196.408249 230.144753 
L 196.408249 229.790118 
L 196.679913 229.790118 
L 196.758463 229.080847 
L 197.444365 229.080847 
L 197.444365 228.726212 
L 199.258 228.726212 
L 199.258 228.016941 
L 200.199931 228.016941 
L 200.223916 227.307671 
L 200.481971 227.307671 
L 200.481971 226.953035 
L 200.77568 226.953035 
L 200.77568 226.5984 
L 201.531237 226.5984 
L 201.531237 226.243765 
L 208.685272 226.243765 
L 208.685272 225.889129 
L 208.916814 225.889129 
L 208.916814 225.534494 
L 209.307148 225.534494 
L 209.307148 225.179859 
L 210.910463 225.179859 
L 210.910463 224.825224 
L 211.025823 224.825224 
L 211.113091 224.115953 
L 211.160863 224.115953 
L 211.160863 223.761318 
L 211.501915 223.761318 
L 211.501915 223.406682 
L 211.819303 223.406682 
L 211.819303 223.052047 
L 212.043139 223.052047 
L 212.043139 222.697412 
L 212.201552 222.697412 
L 212.274957 221.633506 
L 212.433442 221.633506 
L 212.433442 221.278871 
L 212.605502 221.278871 
L 212.658547 220.5696 
L 212.964465 220.5696 
L 212.974691 219.860329 
L 213.356341 219.860329 
L 213.356341 219.505694 
L 213.471429 219.505694 
L 213.471429 219.151059 
L 213.666697 219.151059 
L 213.77151 218.441788 
L 214.137485 218.441788 
L 214.205548 217.732518 
L 215.197565 217.732518 
L 215.197565 217.377882 
L 228.402752 217.377882 
L 228.513685 216.313976 
L 228.668195 216.313976 
L 228.668195 215.959341 
L 231.578152 215.959341 
L 231.667032 214.895435 
L 231.826572 214.895435 
L 231.887767 214.186165 
L 231.967219 214.186165 
L 232.068931 213.122259 
L 232.112807 213.122259 
L 232.196048 212.058353 
L 232.287643 212.058353 
L 232.387296 210.994447 
L 232.411737 210.994447 
L 232.500911 210.285176 
L 232.534156 210.285176 
L 232.589321 209.575906 
L 232.651851 209.575906 
L 232.722866 208.512 
L 232.772383 208.512 
L 232.842776 207.802729 
L 232.885561 207.802729 
L 232.991849 206.384188 
L 233.070628 206.384188 
L 233.169556 205.320282 
L 233.222394 205.320282 
L 233.329935 203.901741 
L 233.386272 203.901741 
L 233.471609 202.837835 
L 238.151133 202.837835 
L 238.234322 202.128565 
L 238.31588 202.128565 
L 238.384731 201.419294 
L 238.494999 201.419294 
L 238.573065 200.710024 
L 238.723277 200.710024 
L 238.802747 200.000753 
L 238.854106 200.000753 
L 238.942332 198.936847 
L 238.985008 198.936847 
L 239.03039 198.227576 
L 239.107604 198.227576 
L 239.161406 197.518306 
L 239.222051 197.518306 
L 239.293078 196.809035 
L 239.341319 196.809035 
L 239.447089 195.745129 
L 239.490301 195.745129 
L 239.600913 194.681224 
L 239.634454 194.681224 
L 239.634454 194.326588 
L 239.745749 194.326588 
L 239.836205 193.262682 
L 239.897626 193.262682 
L 239.968934 192.198776 
L 240.069513 192.198776 
L 240.155445 191.134871 
L 240.193626 191.134871 
L 240.234473 190.4256 
L 240.732983 190.4256 
L 240.825582 188.652424 
L 241.000537 188.652424 
L 241.088446 187.588518 
L 241.126743 187.588518 
L 241.210594 186.524612 
L 241.302929 186.524612 
L 241.362441 185.460706 
L 241.426056 185.460706 
L 241.489458 184.751435 
L 241.538575 184.751435 
L 241.629743 183.687529 
L 241.687067 183.687529 
L 241.769094 182.623624 
L 241.811708 182.623624 
L 241.920592 181.559718 
L 241.953166 181.559718 
L 242.058851 180.495812 
L 242.089426 180.495812 
L 242.185698 179.431906 
L 242.237863 179.431906 
L 242.334299 178.013365 
L 242.441123 178.013365 
L 242.441123 177.658729 
L 248.844785 177.658729 
L 248.844785 177.304094 
L 249.478193 177.304094 
L 249.535651 176.594824 
L 249.801239 176.594824 
L 249.869023 175.885553 
L 249.96091 175.885553 
L 249.96091 175.530918 
L 250.106933 175.530918 
L 250.106933 175.176282 
L 250.449353 175.176282 
L 250.457718 174.467012 
L 250.806187 174.467012 
L 250.806187 174.112376 
L 251.443378 174.112376 
L 251.443378 173.757741 
L 252.329549 173.757741 
L 252.329549 173.403106 
L 253.786677 173.403106 
L 253.871732 172.693835 
L 253.94731 172.693835 
L 253.94731 172.3392 
L 254.088424 172.3392 
L 254.195488 171.275294 
L 254.227618 171.275294 
L 254.32833 169.856753 
L 254.34734 169.856753 
L 254.452997 168.438212 
L 254.467001 168.438212 
L 254.570924 166.665035 
L 254.624559 166.665035 
L 254.727882 165.246494 
L 254.755103 165.246494 
L 254.841579 163.473318 
L 254.882387 163.473318 
L 254.930329 161.700141 
L 254.996878 161.700141 
L 255.077787 160.636235 
L 255.108344 160.636235 
L 255.14387 159.926965 
L 264.29687 159.926965 
L 264.29687 159.572329 
L 264.474835 159.572329 
L 264.474835 159.217694 
L 264.801441 159.217694 
L 264.874774 157.444518 
L 264.94939 157.444518 
L 265.058195 156.025976 
L 265.088775 156.025976 
L 265.176485 154.607435 
L 265.200843 154.607435 
L 265.310468 152.834259 
L 265.32815 152.834259 
L 265.427577 151.415718 
L 265.448859 151.415718 
L 265.535714 149.642541 
L 265.561603 149.642541 
L 265.659748 147.869365 
L 283.637393 147.869365 
L 283.637393 147.514729 
L 292.158741 147.514729 
L 292.158741 147.160094 
L 292.272519 147.160094 
L 292.272519 146.805459 
L 292.484274 146.805459 
L 292.484274 146.450824 
L 292.679271 146.450824 
L 292.787162 145.386918 
L 292.840357 145.386918 
L 292.840357 145.032282 
L 292.979856 145.032282 
L 293.052307 143.613741 
L 293.094171 143.613741 
L 293.155795 142.904471 
L 293.313875 142.904471 
L 293.415816 139.712753 
L 293.53802 139.712753 
L 293.64248 139.003482 
L 293.677563 139.003482 
L 293.719258 137.230306 
L 293.841841 137.230306 
L 293.924614 135.811765 
L 293.977206 135.811765 
L 294.087169 132.620047 
L 294.090895 132.620047 
L 294.108703 131.910776 
L 294.338699 131.910776 
L 294.448169 130.492235 
L 294.467286 130.492235 
L 294.535334 127.300518 
L 294.645792 127.300518 
L 294.755914 126.236612 
L 294.812712 126.236612 
L 294.912951 125.172706 
L 294.968326 125.172706 
L 294.985957 124.463435 
L 295.098101 124.463435 
L 295.133785 123.044894 
L 295.236097 123.044894 
L 295.277826 121.271718 
L 295.392481 121.271718 
L 295.47323 119.143906 
L 295.509269 119.143906 
L 295.609878 117.370729 
L 295.647014 117.370729 
L 295.690048 116.661459 
L 295.860198 116.661459 
L 295.860198 116.306824 
L 296.017144 116.306824 
L 296.102687 115.242918 
L 296.144827 115.242918 
L 296.216274 112.405835 
L 296.268016 112.405835 
L 296.276687 111.696565 
L 296.495312 111.696565 
L 296.59668 110.632659 
L 296.608924 110.632659 
L 296.716223 108.504847 
L 296.723822 108.504847 
L 296.834153 106.377035 
L 296.899487 106.377035 
L 296.899487 106.0224 
L 297.116057 106.0224 
L 297.221306 103.894588 
L 297.312815 103.894588 
L 297.312815 103.539953 
L 297.44661 103.539953 
L 297.44661 103.185318 
L 297.593058 103.185318 
L 297.593058 102.830682 
L 297.95642 102.830682 
L 298.03995 101.766776 
L 298.068723 101.766776 
L 298.159208 100.348235 
L 298.183422 100.348235 
L 298.183422 99.9936 
L 298.639723 99.9936 
L 298.743237 98.929694 
L 302.826284 98.929694 
L 302.826284 98.575059 
L 305.639986 98.575059 
L 305.639986 98.220424 
L 305.841281 98.220424 
L 305.841281 97.865788 
L 306.088357 97.865788 
L 306.17594 96.447247 
L 306.230461 96.447247 
L 306.230461 96.092612 
L 306.371146 96.092612 
L 306.425385 95.383341 
L 306.506348 95.383341 
L 306.611151 93.9648 
L 306.640281 93.9648 
L 306.744452 92.900894 
L 306.766578 92.900894 
L 306.85659 90.773082 
L 306.906706 90.773082 
L 306.992999 88.645271 
L 307.097094 88.645271 
L 307.194357 86.517459 
L 307.223962 86.517459 
L 307.332734 85.453553 
L 307.405561 85.453553 
L 307.512658 83.325741 
L 307.528536 83.325741 
L 307.531887 82.616471 
L 307.672353 82.616471 
L 307.774238 81.197929 
L 307.804756 81.197929 
L 307.804756 80.843294 
L 307.974565 80.843294 
L 308.082249 78.715482 
L 308.254111 78.715482 
L 308.359331 78.006212 
L 308.399462 78.006212 
L 308.403988 77.296941 
L 308.569566 77.296941 
L 308.675942 76.587671 
L 308.68645 76.587671 
L 308.796159 74.814494 
L 308.901837 74.814494 
L 308.965778 73.750588 
L 309.028696 73.750588 
L 309.028696 73.395953 
L 313.610764 73.395953 
L 313.610764 73.041318 
L 313.733099 73.041318 
L 313.736361 72.332047 
L 313.935832 72.332047 
L 314.041913 70.558871 
L 314.120028 70.558871 
L 314.160621 69.8496 
L 314.341735 69.8496 
L 314.381271 68.785694 
L 314.498922 68.785694 
L 314.608709 67.012518 
L 314.61515 67.012518 
L 314.667415 65.239341 
L 314.774876 65.239341 
L 314.883493 64.175435 
L 314.88708 64.175435 
L 314.979979 63.111529 
L 315.116643 63.111529 
L 315.214417 61.692988 
L 315.245261 61.692988 
L 315.317047 60.983718 
L 315.408631 60.983718 
L 315.515374 59.210541 
L 315.642968 59.210541 
L 315.701061 58.501271 
L 315.824622 58.501271 
L 315.824622 58.146635 
L 316.266583 58.146635 
L 316.266583 57.792 
L 318.941355 57.792 
L 318.993456 57.082729 
L 319.100371 57.082729 
L 319.187728 56.018824 
L 319.22107 56.018824 
L 319.22107 55.664188 
L 319.349459 55.664188 
L 319.357966 54.600282 
L 319.529701 54.600282 
L 319.606692 53.891012 
L 319.650775 53.891012 
L 319.76187 51.053929 
L 319.768486 51.053929 
L 319.846743 49.635388 
L 319.925941 49.635388 
L 319.925941 49.280753 
L 320.141646 49.280753 
L 320.231084 47.862212 
L 320.286209 47.862212 
L 320.37212 46.798306 
L 320.42178 46.798306 
L 320.525556 45.7344 
L 320.951254 45.7344 
L 321.027224 45.025129 
L 323.073314 45.025129 
L 323.081581 44.315859 
L 323.432192 44.315859 
L 323.538724 43.606588 
L 323.721128 43.606588 
L 323.810759 42.188047 
L 324.038507 42.188047 
L 324.132663 40.769506 
L 324.245431 40.769506 
L 324.287736 38.996329 
L 324.379253 38.996329 
L 324.394981 38.287059 
L 324.655589 38.287059 
L 324.713917 37.577788 
L 324.981547 37.577788 
L 324.981547 37.223153 
L 326.537956 37.223153 
L 326.602992 36.513882 
L 327.053842 36.513882 
L 327.053842 36.159247 
L 327.33548 36.159247 
L 327.37482 35.449976 
L 327.746619 35.449976 
L 327.746619 35.095341 
L 328.002541 35.095341 
L 328.036959 34.386071 
L 329.396514 34.386071 
L 329.396514 34.031435 
L 329.846594 34.031435 
L 329.846594 33.6768 
L 330.251956 33.6768 
L 330.251956 33.322165 
L 330.662544 33.322165 
L 330.662544 32.967529 
L 332.424578 32.967529 
L 332.424578 32.612894 
L 332.724023 32.612894 
L 332.724023 32.258259 
L 332.879506 32.258259 
L 332.947013 31.548988 
L 333.131677 31.548988 
L 333.131677 31.194353 
L 334.820793 31.194353 
L 334.820793 30.839718 
L 335.106552 30.839718 
L 335.106552 30.485082 
L 335.383493 30.485082 
L 335.383493 30.130447 
L 335.592495 30.130447 
L 335.592495 29.775812 
L 336.188695 29.775812 
L 336.188695 29.421176 
L 336.4219 29.421176 
L 336.468369 28.711906 
L 339.105308 28.711906 
L 339.105308 28.357271 
L 342.565185 28.357271 
L 342.565185 28.002635 
L 346.214316 28.002635 
L 346.214316 27.648 
L 360.8064 27.648 
L 360.8064 27.648 
" style="fill: none; stroke: #ff0000; stroke-width: 1.5; stroke-linecap: square"/>
   </g>
   <g id="line2d_56">
    <defs>
     <path id="md85a35f4f8" d="M 0 -6 
L -5.196152 -3 
L -5.196152 3 
L -0 6 
L 5.196152 3 
L 5.196152 -3 
z
" style="stroke: #ff0000; stroke-width: 1.5; stroke-linejoin: miter"/>
    </defs>
    <g>
     <use xlink:href="#md85a35f4f8" x="63.929565" y="263.835106" style="fill-opacity: 0; stroke: #ff0000; stroke-width: 1.5; stroke-linejoin: miter"/>
     <use xlink:href="#md85a35f4f8" x="181.195331" y="238.656" style="fill-opacity: 0; stroke: #ff0000; stroke-width: 1.5; stroke-linejoin: miter"/>
     <use xlink:href="#md85a35f4f8" x="264.474835" y="159.572329" style="fill-opacity: 0; stroke: #ff0000; stroke-width: 1.5; stroke-linejoin: miter"/>
     <use xlink:href="#md85a35f4f8" x="318.941355" y="57.792" style="fill-opacity: 0; stroke: #ff0000; stroke-width: 1.5; stroke-linejoin: miter"/>
     <use xlink:href="#md85a35f4f8" x="346.214316" y="27.648" style="fill-opacity: 0; stroke: #ff0000; stroke-width: 1.5; stroke-linejoin: miter"/>
     <use xlink:href="#md85a35f4f8" x="360.8064" y="27.648" style="fill-opacity: 0; stroke: #ff0000; stroke-width: 1.5; stroke-linejoin: miter"/>
    </g>
   </g>
   <g id="line2d_57">
    <path style="fill: none; stroke: #ff0000; stroke-width: 1.5; stroke-linecap: square"/>
    <g/>
   </g>
   <g id="line2d_58">
    <path d="M 293.127124 143.259106 
" clip-path="url(#pf75f3ad165)" style="fill: none; stroke: #ff0000; stroke-width: 1.5; stroke-linecap: square"/>
    <defs>
     <path id="m3527cfcde6" d="M -12 12 
L 12 -12 
M -12 -12 
L 12 12 
" style="stroke: #ff0000"/>
    </defs>
    <g clip-path="url(#pf75f3ad165)">
     <use xlink:href="#m3527cfcde6" x="293.127124" y="143.259106" style="fill: #ff0000; stroke: #ff0000"/>
    </g>
   </g>
   <g id="line2d_59">
    <path d="M 360.8064 203.192471 
L 380.514816 293.51808 
" style="fill: none; stroke: #ff00ff; stroke-width: 1.5; stroke-linecap: square"/>
    <g>
     <use xlink:href="#m5f0b0c11fa" x="360.8064" y="203.192471" style="fill-opacity: 0; stroke: #ff00ff; stroke-width: 1.5; stroke-linejoin: miter"/>
     <use xlink:href="#m5f0b0c11fa" x="380.514816" y="293.51808" style="fill-opacity: 0; stroke: #ff00ff; stroke-width: 1.5; stroke-linejoin: miter"/>
    </g>
   </g>
   <g id="line2d_60">
    <path d="M 360.8064 192.553412 
L 380.514816 241.429248 
" style="fill: none; stroke: #6495ed; stroke-width: 1.5; stroke-linecap: square"/>
    <g>
     <use xlink:href="#m17c6d999bd" x="360.8064" y="192.553412" style="fill-opacity: 0; stroke: #6495ed; stroke-width: 1.5; stroke-linejoin: miter"/>
     <use xlink:href="#m17c6d999bd" x="380.514816" y="241.429248" style="fill-opacity: 0; stroke: #6495ed; stroke-width: 1.5; stroke-linejoin: miter"/>
    </g>
   </g>
   <g id="line2d_61">
    <path d="M 360.8064 27.648 
L 380.514816 189.340416 
" style="fill: none; stroke: #000080; stroke-width: 1.5; stroke-linecap: square"/>
    <g>
     <use xlink:href="#m4483ebcb1e" x="360.8064" y="27.648" style="fill-opacity: 0; stroke: #000080; stroke-width: 1.5"/>
     <use xlink:href="#m4483ebcb1e" x="380.514816" y="189.340416" style="fill-opacity: 0; stroke: #000080; stroke-width: 1.5"/>
    </g>
   </g>
   <g id="line2d_62">
    <path d="M 360.8064 27.648 
L 380.514816 137.251584 
" style="fill: none; stroke: #ff0000; stroke-width: 1.5; stroke-linecap: square"/>
    <g>
     <use xlink:href="#md85a35f4f8" x="360.8064" y="27.648" style="fill-opacity: 0; stroke: #ff0000; stroke-width: 1.5; stroke-linejoin: miter"/>
     <use xlink:href="#md85a35f4f8" x="380.514816" y="137.251584" style="fill-opacity: 0; stroke: #ff0000; stroke-width: 1.5; stroke-linejoin: miter"/>
    </g>
   </g>
   <g id="line2d_63">
    <path d="M 360.8064 27.648 
L 380.514816 85.162752 
" style="fill: none; stroke: #ff7500; stroke-width: 1.5; stroke-linecap: square"/>
    <g>
     <use xlink:href="#m7422d187b6" x="360.8064" y="27.648" style="fill-opacity: 0; stroke: #ff7500; stroke-width: 1.5; stroke-linejoin: bevel"/>
     <use xlink:href="#m7422d187b6" x="380.514816" y="85.162752" style="fill-opacity: 0; stroke: #ff7500; stroke-width: 1.5; stroke-linejoin: bevel"/>
    </g>
   </g>
   <g id="line2d_64">
    <path d="M 360.8064 298.944 
L 360.8064 27.648 
" style="fill: none; stroke: #000000; stroke-width: 1.5; stroke-linecap: square"/>
   </g>
   <g id="patch_3">
    <path d="M 57.6 298.944 
L 360.8064 298.944 
" style="fill: none; stroke: #000000; stroke-width: 0.8; stroke-linejoin: miter; stroke-linecap: square"/>
   </g>
   <g id="patch_4">
    <path d="M 57.6 27.648 
L 360.8064 27.648 
" style="fill: none; stroke: #000000; stroke-width: 0.8; stroke-linejoin: miter; stroke-linecap: square"/>
   </g>
   <g id="text_13">
    <!-- old-ddcma1R -->
    <g transform="translate(386.578944 297.381205)scale(0.14 -0.14)">
     <defs>
      <path id="DejaVuSans-52" d="M 2841 2188 
Q 3044 2119 3236 1894 
Q 3428 1669 3622 1275 
L 4263 0 
L 3584 0 
L 2988 1197 
Q 2756 1666 2539 1819 
Q 2322 1972 1947 1972 
L 1259 1972 
L 1259 0 
L 628 0 
L 628 4666 
L 2053 4666 
Q 2853 4666 3247 4331 
Q 3641 3997 3641 3322 
Q 3641 2881 3436 2590 
Q 3231 2300 2841 2188 
z
M 1259 4147 
L 1259 2491 
L 2053 2491 
Q 2509 2491 2742 2702 
Q 2975 2913 2975 3322 
Q 2975 3731 2742 3939 
Q 2509 4147 2053 4147 
L 1259 4147 
z
" transform="scale(0.015625)"/>
     </defs>
     <use xlink:href="#DejaVuSans-6f"/>
     <use xlink:href="#DejaVuSans-6c" x="61.181641"/>
     <use xlink:href="#DejaVuSans-64" x="88.964844"/>
     <use xlink:href="#DejaVuSans-2d" x="152.441406"/>
     <use xlink:href="#DejaVuSans-64" x="188.525391"/>
     <use xlink:href="#DejaVuSans-64" x="252.001953"/>
     <use xlink:href="#DejaVuSans-63" x="315.478516"/>
     <use xlink:href="#DejaVuSans-6d" x="370.458984"/>
     <use xlink:href="#DejaVuSans-61" x="467.871094"/>
     <use xlink:href="#DejaVuSans-31" x="529.150391"/>
     <use xlink:href="#DejaVuSans-52" x="592.773438"/>
    </g>
   </g>
   <g id="text_14">
    <!-- ddcma1R -->
    <g transform="translate(386.578944 245.292373)scale(0.14 -0.14)">
     <use xlink:href="#DejaVuSans-64"/>
     <use xlink:href="#DejaVuSans-64" x="63.476562"/>
     <use xlink:href="#DejaVuSans-63" x="126.953125"/>
     <use xlink:href="#DejaVuSans-6d" x="181.933594"/>
     <use xlink:href="#DejaVuSans-61" x="279.345703"/>
     <use xlink:href="#DejaVuSans-31" x="340.625"/>
     <use xlink:href="#DejaVuSans-52" x="404.248047"/>
    </g>
   </g>
   <g id="text_15">
    <!-- old-ddcma0R -->
    <g transform="translate(386.578944 193.203541)scale(0.14 -0.14)">
     <use xlink:href="#DejaVuSans-6f"/>
     <use xlink:href="#DejaVuSans-6c" x="61.181641"/>
     <use xlink:href="#DejaVuSans-64" x="88.964844"/>
     <use xlink:href="#DejaVuSans-2d" x="152.441406"/>
     <use xlink:href="#DejaVuSans-64" x="188.525391"/>
     <use xlink:href="#DejaVuSans-64" x="252.001953"/>
     <use xlink:href="#DejaVuSans-63" x="315.478516"/>
     <use xlink:href="#DejaVuSans-6d" x="370.458984"/>
     <use xlink:href="#DejaVuSans-61" x="467.871094"/>
     <use xlink:href="#DejaVuSans-30" x="529.150391"/>
     <use xlink:href="#DejaVuSans-52" x="592.773438"/>
    </g>
   </g>
   <g id="text_16">
    <!-- CMA-ES-2019  -->
    <g transform="translate(386.578944 141.114709)scale(0.14 -0.14)">
     <defs>
      <path id="DejaVuSans-43" d="M 4122 4306 
L 4122 3641 
Q 3803 3938 3442 4084 
Q 3081 4231 2675 4231 
Q 1875 4231 1450 3742 
Q 1025 3253 1025 2328 
Q 1025 1406 1450 917 
Q 1875 428 2675 428 
Q 3081 428 3442 575 
Q 3803 722 4122 1019 
L 4122 359 
Q 3791 134 3420 21 
Q 3050 -91 2638 -91 
Q 1578 -91 968 557 
Q 359 1206 359 2328 
Q 359 3453 968 4101 
Q 1578 4750 2638 4750 
Q 3056 4750 3426 4639 
Q 3797 4528 4122 4306 
z
" transform="scale(0.015625)"/>
      <path id="DejaVuSans-4d" d="M 628 4666 
L 1569 4666 
L 2759 1491 
L 3956 4666 
L 4897 4666 
L 4897 0 
L 4281 0 
L 4281 4097 
L 3078 897 
L 2444 897 
L 1241 4097 
L 1241 0 
L 628 0 
L 628 4666 
z
" transform="scale(0.015625)"/>
      <path id="DejaVuSans-41" d="M 2188 4044 
L 1331 1722 
L 3047 1722 
L 2188 4044 
z
M 1831 4666 
L 2547 4666 
L 4325 0 
L 3669 0 
L 3244 1197 
L 1141 1197 
L 716 0 
L 50 0 
L 1831 4666 
z
" transform="scale(0.015625)"/>
      <path id="DejaVuSans-45" d="M 628 4666 
L 3578 4666 
L 3578 4134 
L 1259 4134 
L 1259 2753 
L 3481 2753 
L 3481 2222 
L 1259 2222 
L 1259 531 
L 3634 531 
L 3634 0 
L 628 0 
L 628 4666 
z
" transform="scale(0.015625)"/>
      <path id="DejaVuSans-53" d="M 3425 4513 
L 3425 3897 
Q 3066 4069 2747 4153 
Q 2428 4238 2131 4238 
Q 1616 4238 1336 4038 
Q 1056 3838 1056 3469 
Q 1056 3159 1242 3001 
Q 1428 2844 1947 2747 
L 2328 2669 
Q 3034 2534 3370 2195 
Q 3706 1856 3706 1288 
Q 3706 609 3251 259 
Q 2797 -91 1919 -91 
Q 1588 -91 1214 -16 
Q 841 59 441 206 
L 441 856 
Q 825 641 1194 531 
Q 1563 422 1919 422 
Q 2459 422 2753 634 
Q 3047 847 3047 1241 
Q 3047 1584 2836 1778 
Q 2625 1972 2144 2069 
L 1759 2144 
Q 1053 2284 737 2584 
Q 422 2884 422 3419 
Q 422 4038 858 4394 
Q 1294 4750 2059 4750 
Q 2388 4750 2728 4690 
Q 3069 4631 3425 4513 
z
" transform="scale(0.015625)"/>
      <path id="DejaVuSans-39" d="M 703 97 
L 703 672 
Q 941 559 1184 500 
Q 1428 441 1663 441 
Q 2288 441 2617 861 
Q 2947 1281 2994 2138 
Q 2813 1869 2534 1725 
Q 2256 1581 1919 1581 
Q 1219 1581 811 2004 
Q 403 2428 403 3163 
Q 403 3881 828 4315 
Q 1253 4750 1959 4750 
Q 2769 4750 3195 4129 
Q 3622 3509 3622 2328 
Q 3622 1225 3098 567 
Q 2575 -91 1691 -91 
Q 1453 -91 1209 -44 
Q 966 3 703 97 
z
M 1959 2075 
Q 2384 2075 2632 2365 
Q 2881 2656 2881 3163 
Q 2881 3666 2632 3958 
Q 2384 4250 1959 4250 
Q 1534 4250 1286 3958 
Q 1038 3666 1038 3163 
Q 1038 2656 1286 2365 
Q 1534 2075 1959 2075 
z
" transform="scale(0.015625)"/>
     </defs>
     <use xlink:href="#DejaVuSans-43"/>
     <use xlink:href="#DejaVuSans-4d" x="69.824219"/>
     <use xlink:href="#DejaVuSans-41" x="156.103516"/>
     <use xlink:href="#DejaVuSans-2d" x="222.261719"/>
     <use xlink:href="#DejaVuSans-45" x="258.345703"/>
     <use xlink:href="#DejaVuSans-53" x="321.529297"/>
     <use xlink:href="#DejaVuSans-2d" x="385.005859"/>
     <use xlink:href="#DejaVuSans-32" x="421.089844"/>
     <use xlink:href="#DejaVuSans-30" x="484.712891"/>
     <use xlink:href="#DejaVuSans-31" x="548.335938"/>
     <use xlink:href="#DejaVuSans-39" x="611.958984"/>
     <use xlink:href="#DejaVuSans-20" x="675.582031"/>
    </g>
   </g>
   <g id="text_17">
    <!-- ddcma0R -->
    <g transform="translate(386.578944 89.025877)scale(0.14 -0.14)">
     <use xlink:href="#DejaVuSans-64"/>
     <use xlink:href="#DejaVuSans-64" x="63.476562"/>
     <use xlink:href="#DejaVuSans-63" x="126.953125"/>
     <use xlink:href="#DejaVuSans-6d" x="181.933594"/>
     <use xlink:href="#DejaVuSans-61" x="279.345703"/>
     <use xlink:href="#DejaVuSans-30" x="340.625"/>
     <use xlink:href="#DejaVuSans-52" x="404.248047"/>
    </g>
   </g>
   <g id="text_18">
    <!-- best 2009 -->
    <g transform="translate(386.578944 36.937045)scale(0.14 -0.14)">
     <defs>
      <path id="DejaVuSans-62" d="M 3116 1747 
Q 3116 2381 2855 2742 
Q 2594 3103 2138 3103 
Q 1681 3103 1420 2742 
Q 1159 2381 1159 1747 
Q 1159 1113 1420 752 
Q 1681 391 2138 391 
Q 2594 391 2855 752 
Q 3116 1113 3116 1747 
z
M 1159 2969 
Q 1341 3281 1617 3432 
Q 1894 3584 2278 3584 
Q 2916 3584 3314 3078 
Q 3713 2572 3713 1747 
Q 3713 922 3314 415 
Q 2916 -91 2278 -91 
Q 1894 -91 1617 61 
Q 1341 213 1159 525 
L 1159 0 
L 581 0 
L 581 4863 
L 1159 4863 
L 1159 2969 
z
" transform="scale(0.015625)"/>
     </defs>
     <use xlink:href="#DejaVuSans-62"/>
     <use xlink:href="#DejaVuSans-65" x="63.476562"/>
     <use xlink:href="#DejaVuSans-73" x="125"/>
     <use xlink:href="#DejaVuSans-74" x="177.099609"/>
     <use xlink:href="#DejaVuSans-20" x="216.308594"/>
     <use xlink:href="#DejaVuSans-32" x="248.095703"/>
     <use xlink:href="#DejaVuSans-30" x="311.71875"/>
     <use xlink:href="#DejaVuSans-30" x="375.341797"/>
     <use xlink:href="#DejaVuSans-39" x="438.964844"/>
    </g>
   </g>
   <g id="text_19">
    <!-- bbob f23, 10-D -->
    <g transform="translate(60.632064 38.111366)scale(0.102 -0.102)">
     <defs>
      <path id="DejaVuSans-33" d="M 2597 2516 
Q 3050 2419 3304 2112 
Q 3559 1806 3559 1356 
Q 3559 666 3084 287 
Q 2609 -91 1734 -91 
Q 1441 -91 1130 -33 
Q 819 25 488 141 
L 488 750 
Q 750 597 1062 519 
Q 1375 441 1716 441 
Q 2309 441 2620 675 
Q 2931 909 2931 1356 
Q 2931 1769 2642 2001 
Q 2353 2234 1838 2234 
L 1294 2234 
L 1294 2753 
L 1863 2753 
Q 2328 2753 2575 2939 
Q 2822 3125 2822 3475 
Q 2822 3834 2567 4026 
Q 2313 4219 1838 4219 
Q 1578 4219 1281 4162 
Q 984 4106 628 3988 
L 628 4550 
Q 988 4650 1302 4700 
Q 1616 4750 1894 4750 
Q 2613 4750 3031 4423 
Q 3450 4097 3450 3541 
Q 3450 3153 3228 2886 
Q 3006 2619 2597 2516 
z
" transform="scale(0.015625)"/>
      <path id="DejaVuSans-44" d="M 1259 4147 
L 1259 519 
L 2022 519 
Q 2988 519 3436 956 
Q 3884 1394 3884 2338 
Q 3884 3275 3436 3711 
Q 2988 4147 2022 4147 
L 1259 4147 
z
M 628 4666 
L 1925 4666 
Q 3281 4666 3915 4102 
Q 4550 3538 4550 2338 
Q 4550 1131 3912 565 
Q 3275 0 1925 0 
L 628 0 
L 628 4666 
z
" transform="scale(0.015625)"/>
     </defs>
     <use xlink:href="#DejaVuSans-62"/>
     <use xlink:href="#DejaVuSans-62" x="63.476562"/>
     <use xlink:href="#DejaVuSans-6f" x="126.953125"/>
     <use xlink:href="#DejaVuSans-62" x="188.134766"/>
     <use xlink:href="#DejaVuSans-20" x="251.611328"/>
     <use xlink:href="#DejaVuSans-66" x="283.398438"/>
     <use xlink:href="#DejaVuSans-32" x="318.603516"/>
     <use xlink:href="#DejaVuSans-33" x="382.226562"/>
     <use xlink:href="#DejaVuSans-2c" x="445.849609"/>
     <use xlink:href="#DejaVuSans-20" x="477.636719"/>
     <use xlink:href="#DejaVuSans-31" x="509.423828"/>
     <use xlink:href="#DejaVuSans-30" x="573.046875"/>
     <use xlink:href="#DejaVuSans-2d" x="636.669922"/>
     <use xlink:href="#DejaVuSans-44" x="672.753906"/>
    </g>
    <!-- 51 targets: 100..1e-08 -->
    <g transform="translate(60.632064 49.533135)scale(0.102 -0.102)">
     <defs>
      <path id="DejaVuSans-35" d="M 691 4666 
L 3169 4666 
L 3169 4134 
L 1269 4134 
L 1269 2991 
Q 1406 3038 1543 3061 
Q 1681 3084 1819 3084 
Q 2600 3084 3056 2656 
Q 3513 2228 3513 1497 
Q 3513 744 3044 326 
Q 2575 -91 1722 -91 
Q 1428 -91 1123 -41 
Q 819 9 494 109 
L 494 744 
Q 775 591 1075 516 
Q 1375 441 1709 441 
Q 2250 441 2565 725 
Q 2881 1009 2881 1497 
Q 2881 1984 2565 2268 
Q 2250 2553 1709 2553 
Q 1456 2553 1204 2497 
Q 953 2441 691 2322 
L 691 4666 
z
" transform="scale(0.015625)"/>
      <path id="DejaVuSans-3a" d="M 750 794 
L 1409 794 
L 1409 0 
L 750 0 
L 750 794 
z
M 750 3309 
L 1409 3309 
L 1409 2516 
L 750 2516 
L 750 3309 
z
" transform="scale(0.015625)"/>
     </defs>
     <use xlink:href="#DejaVuSans-35"/>
     <use xlink:href="#DejaVuSans-31" x="63.623047"/>
     <use xlink:href="#DejaVuSans-20" x="127.246094"/>
     <use xlink:href="#DejaVuSans-74" x="159.033203"/>
     <use xlink:href="#DejaVuSans-61" x="198.242188"/>
     <use xlink:href="#DejaVuSans-72" x="259.521484"/>
     <use xlink:href="#DejaVuSans-67" x="298.884766"/>
     <use xlink:href="#DejaVuSans-65" x="362.361328"/>
     <use xlink:href="#DejaVuSans-74" x="423.884766"/>
     <use xlink:href="#DejaVuSans-73" x="463.09375"/>
     <use xlink:href="#DejaVuSans-3a" x="515.193359"/>
     <use xlink:href="#DejaVuSans-20" x="548.884766"/>
     <use xlink:href="#DejaVuSans-31" x="580.671875"/>
     <use xlink:href="#DejaVuSans-30" x="644.294922"/>
     <use xlink:href="#DejaVuSans-30" x="707.917969"/>
     <use xlink:href="#DejaVuSans-2e" x="771.541016"/>
     <use xlink:href="#DejaVuSans-2e" x="803.328125"/>
     <use xlink:href="#DejaVuSans-31" x="835.115234"/>
     <use xlink:href="#DejaVuSans-65" x="898.738281"/>
     <use xlink:href="#DejaVuSans-2d" x="960.261719"/>
     <use xlink:href="#DejaVuSans-30" x="996.345703"/>
     <use xlink:href="#DejaVuSans-38" x="1059.96875"/>
    </g>
    <!-- 5, 15 instances -->
    <g transform="translate(60.632064 60.954904)scale(0.102 -0.102)">
     <use xlink:href="#DejaVuSans-35"/>
     <use xlink:href="#DejaVuSans-2c" x="63.623047"/>
     <use xlink:href="#DejaVuSans-20" x="95.410156"/>
     <use xlink:href="#DejaVuSans-31" x="127.197266"/>
     <use xlink:href="#DejaVuSans-35" x="190.820312"/>
     <use xlink:href="#DejaVuSans-20" x="254.443359"/>
     <use xlink:href="#DejaVuSans-69" x="286.230469"/>
     <use xlink:href="#DejaVuSans-6e" x="314.013672"/>
     <use xlink:href="#DejaVuSans-73" x="377.392578"/>
     <use xlink:href="#DejaVuSans-74" x="429.492188"/>
     <use xlink:href="#DejaVuSans-61" x="468.701172"/>
     <use xlink:href="#DejaVuSans-6e" x="529.980469"/>
     <use xlink:href="#DejaVuSans-63" x="593.359375"/>
     <use xlink:href="#DejaVuSans-65" x="648.339844"/>
     <use xlink:href="#DejaVuSans-73" x="709.863281"/>
    </g>
   </g>
   <g id="text_20">
    <!-- v2.6 -->
    <g style="fill: #808080" transform="translate(198.292262 294.151352)scale(0.1 -0.1)">
     <use xlink:href="#DejaVuSans-76"/>
     <use xlink:href="#DejaVuSans-32" x="59.179688"/>
     <use xlink:href="#DejaVuSans-2e" x="122.802734"/>
     <use xlink:href="#DejaVuSans-36" x="154.589844"/>
    </g>
   </g>
   <g id="text_21">
    <!-- 23 Katsuuras -->
    <g transform="translate(143.536012 21.648)scale(0.2 -0.2)">
     <defs>
      <path id="DejaVuSans-4b" d="M 628 4666 
L 1259 4666 
L 1259 2694 
L 3353 4666 
L 4166 4666 
L 1850 2491 
L 4331 0 
L 3500 0 
L 1259 2247 
L 1259 0 
L 628 0 
L 628 4666 
z
" transform="scale(0.015625)"/>
     </defs>
     <use xlink:href="#DejaVuSans-32"/>
     <use xlink:href="#DejaVuSans-33" x="63.623047"/>
     <use xlink:href="#DejaVuSans-20" x="127.246094"/>
     <use xlink:href="#DejaVuSans-4b" x="159.033203"/>
     <use xlink:href="#DejaVuSans-61" x="222.859375"/>
     <use xlink:href="#DejaVuSans-74" x="284.138672"/>
     <use xlink:href="#DejaVuSans-73" x="323.347656"/>
     <use xlink:href="#DejaVuSans-75" x="375.447266"/>
     <use xlink:href="#DejaVuSans-75" x="438.826172"/>
     <use xlink:href="#DejaVuSans-72" x="502.205078"/>
     <use xlink:href="#DejaVuSans-61" x="543.318359"/>
     <use xlink:href="#DejaVuSans-73" x="604.597656"/>
    </g>
   </g>
  </g>
 </g>
 <defs>
  <clipPath id="pf75f3ad165">
   <rect x="57.6" y="27.648" width="303.2064" height="271.296"/>
  </clipPath>
 </defs>
</svg>
