<?xml version="1.0" encoding="utf-8" standalone="no"?>
<!DOCTYPE svg PUBLIC "-//W3C//DTD SVG 1.1//EN"
  "http://www.w3.org/Graphics/SVG/1.1/DTD/svg11.dtd">
<svg xmlns:xlink="http://www.w3.org/1999/xlink" width="460.8pt" height="345.6pt" viewBox="0 0 460.8 345.6" xmlns="http://www.w3.org/2000/svg" version="1.1">
 <metadata>
  <rdf:RDF xmlns:dc="http://purl.org/dc/elements/1.1/" xmlns:cc="http://creativecommons.org/ns#" xmlns:rdf="http://www.w3.org/1999/02/22-rdf-syntax-ns#">
   <cc:Work>
    <dc:type rdf:resource="http://purl.org/dc/dcmitype/StillImage"/>
    <dc:date>2022-03-23T01:02:45.635717</dc:date>
    <dc:format>image/svg+xml</dc:format>
    <dc:creator>
     <cc:Agent>
      <dc:title>Matplotlib v3.5.1, https://matplotlib.org/</dc:title>
     </cc:Agent>
    </dc:creator>
   </cc:Work>
  </rdf:RDF>
 </metadata>
 <defs>
  <style type="text/css">*{stroke-linejoin: round; stroke-linecap: butt}</style>
 </defs>
 <g id="figure_1">
  <g id="patch_1">
   <path d="M 0 345.6 
L 460.8 345.6 
L 460.8 0 
L 0 0 
z
" style="fill: #ffffff"/>
  </g>
  <g id="axes_1">
   <g id="patch_2">
    <path d="M 57.6 298.944 
L 360.8064 298.944 
L 360.8064 27.648 
L 57.6 27.648 
z
" style="fill: #ffffff"/>
   </g>
   <g id="line2d_1">
    <path d="M -1 293.624471 
L 83.678349 293.624471 
L 83.678349 288.304941 
L 95.814395 288.304941 
L 95.814395 282.985412 
L 99.950294 282.985412 
L 99.950294 277.665882 
L 113.57433 277.665882 
L 113.57433 272.346353 
L 118.962067 272.346353 
L 118.962067 267.026824 
L 135.463998 267.026824 
L 135.463998 261.707294 
L 138.36167 261.707294 
L 138.36167 256.387765 
L 143.046405 256.387765 
L 143.046405 251.068235 
L 161.786209 251.068235 
L 161.786209 245.748706 
L 175.552798 245.748706 
L 175.552798 240.429176 
L 204.876274 240.429176 
L 204.876274 235.109647 
L 204.894048 235.109647 
L 204.894048 229.790118 
L 204.897788 229.790118 
L 204.897788 224.470588 
L 204.90134 224.470588 
L 204.90134 219.151059 
L 204.915354 219.151059 
L 204.915354 213.831529 
L 204.922264 213.831529 
L 204.922264 208.512 
L 204.933838 208.512 
L 204.933838 203.192471 
L 204.942793 203.192471 
L 204.942793 197.872941 
L 204.953794 197.872941 
L 204.953794 192.553412 
L 204.969818 192.553412 
L 204.969818 187.233882 
L 204.977081 187.233882 
L 204.977081 181.914353 
L 204.988434 181.914353 
L 204.988434 176.594824 
L 205.011678 176.594824 
L 205.011678 171.275294 
L 205.019296 171.275294 
L 205.019296 165.955765 
L 205.028211 165.955765 
L 205.028211 160.636235 
L 205.050478 160.636235 
L 205.050478 155.316706 
L 205.056968 155.316706 
L 205.056968 149.997176 
L 205.067162 149.997176 
L 205.067162 144.677647 
L 205.081794 144.677647 
L 205.081794 139.358118 
L 205.092714 139.358118 
L 205.092714 134.038588 
L 205.104553 134.038588 
L 205.104553 128.719059 
L 205.111394 128.719059 
L 205.111394 123.399529 
L 205.127654 123.399529 
L 205.127654 118.08 
L 205.13541 118.08 
L 205.13541 112.760471 
L 205.13984 112.760471 
L 205.13984 107.440941 
L 205.1546 107.440941 
L 205.1546 102.121412 
L 205.161423 102.121412 
L 205.161423 96.801882 
L 205.165479 96.801882 
L 205.165479 91.482353 
L 205.175245 91.482353 
L 205.175245 86.162824 
L 205.184639 86.162824 
L 205.184639 80.843294 
L 205.189978 80.843294 
L 205.189978 75.523765 
L 205.200468 75.523765 
L 205.200468 70.204235 
L 205.209481 70.204235 
L 205.209481 64.884706 
L 205.222165 64.884706 
L 205.222165 59.565176 
L 205.230249 59.565176 
L 205.230249 54.245647 
L 205.237779 54.245647 
L 205.237779 48.926118 
L 205.259066 48.926118 
L 205.259066 43.606588 
L 205.264751 43.606588 
L 205.264751 38.287059 
L 205.270434 38.287059 
L 205.270434 32.967529 
L 205.29498 32.967529 
L 205.29498 27.648 
L 360.8064 27.648 
" style="fill: none; stroke: #f5deb3; stroke-width: 4; stroke-linecap: square"/>
   </g>
   <g id="line2d_2">
    <defs>
     <path id="mb71bcc6ef4" d="M -0 7.778175 
L 7.778175 0 
L 0 -7.778175 
L -7.778175 -0 
z
" style="stroke: #f5deb3; stroke-width: 1.5; stroke-linejoin: miter"/>
    </defs>
    <g>
     <use xlink:href="#mb71bcc6ef4" x="138.36167" y="256.387765" style="fill: #f5deb3; stroke: #f5deb3; stroke-width: 1.5; stroke-linejoin: miter"/>
     <use xlink:href="#mb71bcc6ef4" x="205.104553" y="134.038588" style="fill: #f5deb3; stroke: #f5deb3; stroke-width: 1.5; stroke-linejoin: miter"/>
     <use xlink:href="#mb71bcc6ef4" x="205.29498" y="32.967529" style="fill: #f5deb3; stroke: #f5deb3; stroke-width: 1.5; stroke-linejoin: miter"/>
     <use xlink:href="#mb71bcc6ef4" x="205.29498" y="27.648" style="fill: #f5deb3; stroke: #f5deb3; stroke-width: 1.5; stroke-linejoin: miter"/>
     <use xlink:href="#mb71bcc6ef4" x="360.8064" y="27.648" style="fill: #f5deb3; stroke: #f5deb3; stroke-width: 1.5; stroke-linejoin: miter"/>
    </g>
   </g>
   <g id="line2d_3">
    <path style="fill: none; stroke: #f5deb3; stroke-width: 4; stroke-linecap: square"/>
    <g/>
   </g>
   <g id="line2d_4">
    <path d="M 360.8064 27.648 
L 380.514816 33.07392 
" style="fill: none; stroke: #f5deb3; stroke-width: 4; stroke-linecap: square"/>
    <g>
     <use xlink:href="#mb71bcc6ef4" x="360.8064" y="27.648" style="fill: #f5deb3; stroke: #f5deb3; stroke-width: 1.5; stroke-linejoin: miter"/>
     <use xlink:href="#mb71bcc6ef4" x="380.514816" y="33.07392" style="fill: #f5deb3; stroke: #f5deb3; stroke-width: 1.5; stroke-linejoin: miter"/>
    </g>
   </g>
   <g id="matplotlib.axis_1">
    <g id="xtick_1">
     <g id="line2d_5">
      <path d="M 57.6 298.944 
L 57.6 27.648 
" clip-path="url(#p2972d65ee0)" style="fill: none; stroke: #b0b0b0; stroke-width: 0.8; stroke-linecap: square"/>
     </g>
     <g id="line2d_6">
      <defs>
       <path id="m67133756f5" d="M 0 0 
L 0 3.5 
" style="stroke: #000000; stroke-width: 0.8"/>
      </defs>
      <g>
       <use xlink:href="#m67133756f5" x="57.6" y="298.944" style="stroke: #000000; stroke-width: 0.8"/>
      </g>
     </g>
     <g id="text_1">
      <!-- 0 -->
      <g transform="translate(52.191875 318.861344)scale(0.17 -0.17)">
       <defs>
        <path id="DejaVuSans-30" d="M 2034 4250 
Q 1547 4250 1301 3770 
Q 1056 3291 1056 2328 
Q 1056 1369 1301 889 
Q 1547 409 2034 409 
Q 2525 409 2770 889 
Q 3016 1369 3016 2328 
Q 3016 3291 2770 3770 
Q 2525 4250 2034 4250 
z
M 2034 4750 
Q 2819 4750 3233 4129 
Q 3647 3509 3647 2328 
Q 3647 1150 3233 529 
Q 2819 -91 2034 -91 
Q 1250 -91 836 529 
Q 422 1150 422 2328 
Q 422 3509 836 4129 
Q 1250 4750 2034 4750 
z
" transform="scale(0.015625)"/>
       </defs>
       <use xlink:href="#DejaVuSans-30"/>
      </g>
     </g>
    </g>
    <g id="xtick_2">
     <g id="line2d_7">
      <path d="M 144.2304 298.944 
L 144.2304 27.648 
" clip-path="url(#p2972d65ee0)" style="fill: none; stroke: #b0b0b0; stroke-width: 0.8; stroke-linecap: square"/>
     </g>
     <g id="line2d_8">
      <g>
       <use xlink:href="#m67133756f5" x="144.2304" y="298.944" style="stroke: #000000; stroke-width: 0.8"/>
      </g>
     </g>
     <g id="text_2">
      <!-- 2 -->
      <g transform="translate(138.822275 318.861344)scale(0.17 -0.17)">
       <defs>
        <path id="DejaVuSans-32" d="M 1228 531 
L 3431 531 
L 3431 0 
L 469 0 
L 469 531 
Q 828 903 1448 1529 
Q 2069 2156 2228 2338 
Q 2531 2678 2651 2914 
Q 2772 3150 2772 3378 
Q 2772 3750 2511 3984 
Q 2250 4219 1831 4219 
Q 1534 4219 1204 4116 
Q 875 4013 500 3803 
L 500 4441 
Q 881 4594 1212 4672 
Q 1544 4750 1819 4750 
Q 2544 4750 2975 4387 
Q 3406 4025 3406 3419 
Q 3406 3131 3298 2873 
Q 3191 2616 2906 2266 
Q 2828 2175 2409 1742 
Q 1991 1309 1228 531 
z
" transform="scale(0.015625)"/>
       </defs>
       <use xlink:href="#DejaVuSans-32"/>
      </g>
     </g>
    </g>
    <g id="xtick_3">
     <g id="line2d_9">
      <path d="M 230.8608 298.944 
L 230.8608 27.648 
" clip-path="url(#p2972d65ee0)" style="fill: none; stroke: #b0b0b0; stroke-width: 0.8; stroke-linecap: square"/>
     </g>
     <g id="line2d_10">
      <g>
       <use xlink:href="#m67133756f5" x="230.8608" y="298.944" style="stroke: #000000; stroke-width: 0.8"/>
      </g>
     </g>
     <g id="text_3">
      <!-- 4 -->
      <g transform="translate(225.452675 318.861344)scale(0.17 -0.17)">
       <defs>
        <path id="DejaVuSans-34" d="M 2419 4116 
L 825 1625 
L 2419 1625 
L 2419 4116 
z
M 2253 4666 
L 3047 4666 
L 3047 1625 
L 3713 1625 
L 3713 1100 
L 3047 1100 
L 3047 0 
L 2419 0 
L 2419 1100 
L 313 1100 
L 313 1709 
L 2253 4666 
z
" transform="scale(0.015625)"/>
       </defs>
       <use xlink:href="#DejaVuSans-34"/>
      </g>
     </g>
    </g>
    <g id="xtick_4">
     <g id="line2d_11">
      <path d="M 317.4912 298.944 
L 317.4912 27.648 
" clip-path="url(#p2972d65ee0)" style="fill: none; stroke: #b0b0b0; stroke-width: 0.8; stroke-linecap: square"/>
     </g>
     <g id="line2d_12">
      <g>
       <use xlink:href="#m67133756f5" x="317.4912" y="298.944" style="stroke: #000000; stroke-width: 0.8"/>
      </g>
     </g>
     <g id="text_4">
      <!-- 6 -->
      <g transform="translate(312.083075 318.861344)scale(0.17 -0.17)">
       <defs>
        <path id="DejaVuSans-36" d="M 2113 2584 
Q 1688 2584 1439 2293 
Q 1191 2003 1191 1497 
Q 1191 994 1439 701 
Q 1688 409 2113 409 
Q 2538 409 2786 701 
Q 3034 994 3034 1497 
Q 3034 2003 2786 2293 
Q 2538 2584 2113 2584 
z
M 3366 4563 
L 3366 3988 
Q 3128 4100 2886 4159 
Q 2644 4219 2406 4219 
Q 1781 4219 1451 3797 
Q 1122 3375 1075 2522 
Q 1259 2794 1537 2939 
Q 1816 3084 2150 3084 
Q 2853 3084 3261 2657 
Q 3669 2231 3669 1497 
Q 3669 778 3244 343 
Q 2819 -91 2113 -91 
Q 1303 -91 875 529 
Q 447 1150 447 2328 
Q 447 3434 972 4092 
Q 1497 4750 2381 4750 
Q 2619 4750 2861 4703 
Q 3103 4656 3366 4563 
z
" transform="scale(0.015625)"/>
       </defs>
       <use xlink:href="#DejaVuSans-36"/>
      </g>
     </g>
    </g>
    <g id="xtick_5">
     <g id="line2d_13">
      <path d="M 100.9152 298.944 
L 100.9152 27.648 
" clip-path="url(#p2972d65ee0)" style="fill: none; stroke: #b0b0b0; stroke-width: 0.8; stroke-linecap: square"/>
     </g>
     <g id="line2d_14">
      <defs>
       <path id="mcc98e9ac49" d="M 0 0 
L 0 2 
" style="stroke: #000000; stroke-width: 0.6"/>
      </defs>
      <g>
       <use xlink:href="#mcc98e9ac49" x="100.9152" y="298.944" style="stroke: #000000; stroke-width: 0.6"/>
      </g>
     </g>
    </g>
    <g id="xtick_6">
     <g id="line2d_15">
      <path d="M 187.5456 298.944 
L 187.5456 27.648 
" clip-path="url(#p2972d65ee0)" style="fill: none; stroke: #b0b0b0; stroke-width: 0.8; stroke-linecap: square"/>
     </g>
     <g id="line2d_16">
      <g>
       <use xlink:href="#mcc98e9ac49" x="187.5456" y="298.944" style="stroke: #000000; stroke-width: 0.6"/>
      </g>
     </g>
    </g>
    <g id="xtick_7">
     <g id="line2d_17">
      <path d="M 274.176 298.944 
L 274.176 27.648 
" clip-path="url(#p2972d65ee0)" style="fill: none; stroke: #b0b0b0; stroke-width: 0.8; stroke-linecap: square"/>
     </g>
     <g id="line2d_18">
      <g>
       <use xlink:href="#mcc98e9ac49" x="274.176" y="298.944" style="stroke: #000000; stroke-width: 0.6"/>
      </g>
     </g>
    </g>
    <g id="xtick_8">
     <g id="line2d_19">
      <path d="M 360.8064 298.944 
L 360.8064 27.648 
" clip-path="url(#p2972d65ee0)" style="fill: none; stroke: #b0b0b0; stroke-width: 0.8; stroke-linecap: square"/>
     </g>
     <g id="line2d_20">
      <g>
       <use xlink:href="#mcc98e9ac49" x="360.8064" y="298.944" style="stroke: #000000; stroke-width: 0.6"/>
      </g>
     </g>
    </g>
    <g id="text_5">
     <!-- log10(# f-evals / dimension) -->
     <g transform="translate(88.823278 339.314156)scale(0.17 -0.17)">
      <defs>
       <path id="DejaVuSans-6c" d="M 603 4863 
L 1178 4863 
L 1178 0 
L 603 0 
L 603 4863 
z
" transform="scale(0.015625)"/>
       <path id="DejaVuSans-6f" d="M 1959 3097 
Q 1497 3097 1228 2736 
Q 959 2375 959 1747 
Q 959 1119 1226 758 
Q 1494 397 1959 397 
Q 2419 397 2687 759 
Q 2956 1122 2956 1747 
Q 2956 2369 2687 2733 
Q 2419 3097 1959 3097 
z
M 1959 3584 
Q 2709 3584 3137 3096 
Q 3566 2609 3566 1747 
Q 3566 888 3137 398 
Q 2709 -91 1959 -91 
Q 1206 -91 779 398 
Q 353 888 353 1747 
Q 353 2609 779 3096 
Q 1206 3584 1959 3584 
z
" transform="scale(0.015625)"/>
       <path id="DejaVuSans-67" d="M 2906 1791 
Q 2906 2416 2648 2759 
Q 2391 3103 1925 3103 
Q 1463 3103 1205 2759 
Q 947 2416 947 1791 
Q 947 1169 1205 825 
Q 1463 481 1925 481 
Q 2391 481 2648 825 
Q 2906 1169 2906 1791 
z
M 3481 434 
Q 3481 -459 3084 -895 
Q 2688 -1331 1869 -1331 
Q 1566 -1331 1297 -1286 
Q 1028 -1241 775 -1147 
L 775 -588 
Q 1028 -725 1275 -790 
Q 1522 -856 1778 -856 
Q 2344 -856 2625 -561 
Q 2906 -266 2906 331 
L 2906 616 
Q 2728 306 2450 153 
Q 2172 0 1784 0 
Q 1141 0 747 490 
Q 353 981 353 1791 
Q 353 2603 747 3093 
Q 1141 3584 1784 3584 
Q 2172 3584 2450 3431 
Q 2728 3278 2906 2969 
L 2906 3500 
L 3481 3500 
L 3481 434 
z
" transform="scale(0.015625)"/>
       <path id="DejaVuSans-31" d="M 794 531 
L 1825 531 
L 1825 4091 
L 703 3866 
L 703 4441 
L 1819 4666 
L 2450 4666 
L 2450 531 
L 3481 531 
L 3481 0 
L 794 0 
L 794 531 
z
" transform="scale(0.015625)"/>
       <path id="DejaVuSans-28" d="M 1984 4856 
Q 1566 4138 1362 3434 
Q 1159 2731 1159 2009 
Q 1159 1288 1364 580 
Q 1569 -128 1984 -844 
L 1484 -844 
Q 1016 -109 783 600 
Q 550 1309 550 2009 
Q 550 2706 781 3412 
Q 1013 4119 1484 4856 
L 1984 4856 
z
" transform="scale(0.015625)"/>
       <path id="DejaVuSans-23" d="M 3272 2816 
L 2363 2816 
L 2100 1772 
L 3016 1772 
L 3272 2816 
z
M 2803 4594 
L 2478 3297 
L 3391 3297 
L 3719 4594 
L 4219 4594 
L 3897 3297 
L 4872 3297 
L 4872 2816 
L 3775 2816 
L 3519 1772 
L 4513 1772 
L 4513 1294 
L 3397 1294 
L 3072 0 
L 2572 0 
L 2894 1294 
L 1978 1294 
L 1656 0 
L 1153 0 
L 1478 1294 
L 494 1294 
L 494 1772 
L 1594 1772 
L 1856 2816 
L 850 2816 
L 850 3297 
L 1978 3297 
L 2297 4594 
L 2803 4594 
z
" transform="scale(0.015625)"/>
       <path id="DejaVuSans-20" transform="scale(0.015625)"/>
       <path id="DejaVuSans-66" d="M 2375 4863 
L 2375 4384 
L 1825 4384 
Q 1516 4384 1395 4259 
Q 1275 4134 1275 3809 
L 1275 3500 
L 2222 3500 
L 2222 3053 
L 1275 3053 
L 1275 0 
L 697 0 
L 697 3053 
L 147 3053 
L 147 3500 
L 697 3500 
L 697 3744 
Q 697 4328 969 4595 
Q 1241 4863 1831 4863 
L 2375 4863 
z
" transform="scale(0.015625)"/>
       <path id="DejaVuSans-2d" d="M 313 2009 
L 1997 2009 
L 1997 1497 
L 313 1497 
L 313 2009 
z
" transform="scale(0.015625)"/>
       <path id="DejaVuSans-65" d="M 3597 1894 
L 3597 1613 
L 953 1613 
Q 991 1019 1311 708 
Q 1631 397 2203 397 
Q 2534 397 2845 478 
Q 3156 559 3463 722 
L 3463 178 
Q 3153 47 2828 -22 
Q 2503 -91 2169 -91 
Q 1331 -91 842 396 
Q 353 884 353 1716 
Q 353 2575 817 3079 
Q 1281 3584 2069 3584 
Q 2775 3584 3186 3129 
Q 3597 2675 3597 1894 
z
M 3022 2063 
Q 3016 2534 2758 2815 
Q 2500 3097 2075 3097 
Q 1594 3097 1305 2825 
Q 1016 2553 972 2059 
L 3022 2063 
z
" transform="scale(0.015625)"/>
       <path id="DejaVuSans-76" d="M 191 3500 
L 800 3500 
L 1894 563 
L 2988 3500 
L 3597 3500 
L 2284 0 
L 1503 0 
L 191 3500 
z
" transform="scale(0.015625)"/>
       <path id="DejaVuSans-61" d="M 2194 1759 
Q 1497 1759 1228 1600 
Q 959 1441 959 1056 
Q 959 750 1161 570 
Q 1363 391 1709 391 
Q 2188 391 2477 730 
Q 2766 1069 2766 1631 
L 2766 1759 
L 2194 1759 
z
M 3341 1997 
L 3341 0 
L 2766 0 
L 2766 531 
Q 2569 213 2275 61 
Q 1981 -91 1556 -91 
Q 1019 -91 701 211 
Q 384 513 384 1019 
Q 384 1609 779 1909 
Q 1175 2209 1959 2209 
L 2766 2209 
L 2766 2266 
Q 2766 2663 2505 2880 
Q 2244 3097 1772 3097 
Q 1472 3097 1187 3025 
Q 903 2953 641 2809 
L 641 3341 
Q 956 3463 1253 3523 
Q 1550 3584 1831 3584 
Q 2591 3584 2966 3190 
Q 3341 2797 3341 1997 
z
" transform="scale(0.015625)"/>
       <path id="DejaVuSans-73" d="M 2834 3397 
L 2834 2853 
Q 2591 2978 2328 3040 
Q 2066 3103 1784 3103 
Q 1356 3103 1142 2972 
Q 928 2841 928 2578 
Q 928 2378 1081 2264 
Q 1234 2150 1697 2047 
L 1894 2003 
Q 2506 1872 2764 1633 
Q 3022 1394 3022 966 
Q 3022 478 2636 193 
Q 2250 -91 1575 -91 
Q 1294 -91 989 -36 
Q 684 19 347 128 
L 347 722 
Q 666 556 975 473 
Q 1284 391 1588 391 
Q 1994 391 2212 530 
Q 2431 669 2431 922 
Q 2431 1156 2273 1281 
Q 2116 1406 1581 1522 
L 1381 1569 
Q 847 1681 609 1914 
Q 372 2147 372 2553 
Q 372 3047 722 3315 
Q 1072 3584 1716 3584 
Q 2034 3584 2315 3537 
Q 2597 3491 2834 3397 
z
" transform="scale(0.015625)"/>
       <path id="DejaVuSans-2f" d="M 1625 4666 
L 2156 4666 
L 531 -594 
L 0 -594 
L 1625 4666 
z
" transform="scale(0.015625)"/>
       <path id="DejaVuSans-64" d="M 2906 2969 
L 2906 4863 
L 3481 4863 
L 3481 0 
L 2906 0 
L 2906 525 
Q 2725 213 2448 61 
Q 2172 -91 1784 -91 
Q 1150 -91 751 415 
Q 353 922 353 1747 
Q 353 2572 751 3078 
Q 1150 3584 1784 3584 
Q 2172 3584 2448 3432 
Q 2725 3281 2906 2969 
z
M 947 1747 
Q 947 1113 1208 752 
Q 1469 391 1925 391 
Q 2381 391 2643 752 
Q 2906 1113 2906 1747 
Q 2906 2381 2643 2742 
Q 2381 3103 1925 3103 
Q 1469 3103 1208 2742 
Q 947 2381 947 1747 
z
" transform="scale(0.015625)"/>
       <path id="DejaVuSans-69" d="M 603 3500 
L 1178 3500 
L 1178 0 
L 603 0 
L 603 3500 
z
M 603 4863 
L 1178 4863 
L 1178 4134 
L 603 4134 
L 603 4863 
z
" transform="scale(0.015625)"/>
       <path id="DejaVuSans-6d" d="M 3328 2828 
Q 3544 3216 3844 3400 
Q 4144 3584 4550 3584 
Q 5097 3584 5394 3201 
Q 5691 2819 5691 2113 
L 5691 0 
L 5113 0 
L 5113 2094 
Q 5113 2597 4934 2840 
Q 4756 3084 4391 3084 
Q 3944 3084 3684 2787 
Q 3425 2491 3425 1978 
L 3425 0 
L 2847 0 
L 2847 2094 
Q 2847 2600 2669 2842 
Q 2491 3084 2119 3084 
Q 1678 3084 1418 2786 
Q 1159 2488 1159 1978 
L 1159 0 
L 581 0 
L 581 3500 
L 1159 3500 
L 1159 2956 
Q 1356 3278 1631 3431 
Q 1906 3584 2284 3584 
Q 2666 3584 2933 3390 
Q 3200 3197 3328 2828 
z
" transform="scale(0.015625)"/>
       <path id="DejaVuSans-6e" d="M 3513 2113 
L 3513 0 
L 2938 0 
L 2938 2094 
Q 2938 2591 2744 2837 
Q 2550 3084 2163 3084 
Q 1697 3084 1428 2787 
Q 1159 2491 1159 1978 
L 1159 0 
L 581 0 
L 581 3500 
L 1159 3500 
L 1159 2956 
Q 1366 3272 1645 3428 
Q 1925 3584 2291 3584 
Q 2894 3584 3203 3211 
Q 3513 2838 3513 2113 
z
" transform="scale(0.015625)"/>
       <path id="DejaVuSans-29" d="M 513 4856 
L 1013 4856 
Q 1481 4119 1714 3412 
Q 1947 2706 1947 2009 
Q 1947 1309 1714 600 
Q 1481 -109 1013 -844 
L 513 -844 
Q 928 -128 1133 580 
Q 1338 1288 1338 2009 
Q 1338 2731 1133 3434 
Q 928 4138 513 4856 
z
" transform="scale(0.015625)"/>
      </defs>
      <use xlink:href="#DejaVuSans-6c"/>
      <use xlink:href="#DejaVuSans-6f" x="27.783203"/>
      <use xlink:href="#DejaVuSans-67" x="88.964844"/>
      <use xlink:href="#DejaVuSans-31" x="152.441406"/>
      <use xlink:href="#DejaVuSans-30" x="216.064453"/>
      <use xlink:href="#DejaVuSans-28" x="279.6875"/>
      <use xlink:href="#DejaVuSans-23" x="318.701172"/>
      <use xlink:href="#DejaVuSans-20" x="402.490234"/>
      <use xlink:href="#DejaVuSans-66" x="434.277344"/>
      <use xlink:href="#DejaVuSans-2d" x="463.982422"/>
      <use xlink:href="#DejaVuSans-65" x="500.066406"/>
      <use xlink:href="#DejaVuSans-76" x="561.589844"/>
      <use xlink:href="#DejaVuSans-61" x="620.769531"/>
      <use xlink:href="#DejaVuSans-6c" x="682.048828"/>
      <use xlink:href="#DejaVuSans-73" x="709.832031"/>
      <use xlink:href="#DejaVuSans-20" x="761.931641"/>
      <use xlink:href="#DejaVuSans-2f" x="793.71875"/>
      <use xlink:href="#DejaVuSans-20" x="827.410156"/>
      <use xlink:href="#DejaVuSans-64" x="859.197266"/>
      <use xlink:href="#DejaVuSans-69" x="922.673828"/>
      <use xlink:href="#DejaVuSans-6d" x="950.457031"/>
      <use xlink:href="#DejaVuSans-65" x="1047.869141"/>
      <use xlink:href="#DejaVuSans-6e" x="1109.392578"/>
      <use xlink:href="#DejaVuSans-73" x="1172.771484"/>
      <use xlink:href="#DejaVuSans-69" x="1224.871094"/>
      <use xlink:href="#DejaVuSans-6f" x="1252.654297"/>
      <use xlink:href="#DejaVuSans-6e" x="1313.835938"/>
      <use xlink:href="#DejaVuSans-29" x="1377.214844"/>
     </g>
    </g>
   </g>
   <g id="matplotlib.axis_2">
    <g id="ytick_1">
     <g id="line2d_21">
      <path d="M 57.6 298.944 
L 360.8064 298.944 
" clip-path="url(#p2972d65ee0)" style="fill: none; stroke: #b0b0b0; stroke-width: 0.8; stroke-linecap: square"/>
     </g>
     <g id="line2d_22">
      <defs>
       <path id="m3ff7b33563" d="M 0 0 
L -3.5 0 
" style="stroke: #000000; stroke-width: 0.8"/>
      </defs>
      <g>
       <use xlink:href="#m3ff7b33563" x="57.6" y="298.944" style="stroke: #000000; stroke-width: 0.8"/>
      </g>
     </g>
     <g id="text_6">
      <!-- 0.0 -->
      <g transform="translate(25.155 305.02275)scale(0.16 -0.16)">
       <defs>
        <path id="DejaVuSans-2e" d="M 684 794 
L 1344 794 
L 1344 0 
L 684 0 
L 684 794 
z
" transform="scale(0.015625)"/>
       </defs>
       <use xlink:href="#DejaVuSans-30"/>
       <use xlink:href="#DejaVuSans-2e" x="63.623047"/>
       <use xlink:href="#DejaVuSans-30" x="95.410156"/>
      </g>
     </g>
    </g>
    <g id="ytick_2">
     <g id="line2d_23">
      <path d="M 57.6 244.6848 
L 360.8064 244.6848 
" clip-path="url(#p2972d65ee0)" style="fill: none; stroke: #b0b0b0; stroke-width: 0.8; stroke-linecap: square"/>
     </g>
     <g id="line2d_24">
      <g>
       <use xlink:href="#m3ff7b33563" x="57.6" y="244.6848" style="stroke: #000000; stroke-width: 0.8"/>
      </g>
     </g>
     <g id="text_7">
      <!-- 0.2 -->
      <g transform="translate(25.155 250.76355)scale(0.16 -0.16)">
       <use xlink:href="#DejaVuSans-30"/>
       <use xlink:href="#DejaVuSans-2e" x="63.623047"/>
       <use xlink:href="#DejaVuSans-32" x="95.410156"/>
      </g>
     </g>
    </g>
    <g id="ytick_3">
     <g id="line2d_25">
      <path d="M 57.6 190.4256 
L 360.8064 190.4256 
" clip-path="url(#p2972d65ee0)" style="fill: none; stroke: #b0b0b0; stroke-width: 0.8; stroke-linecap: square"/>
     </g>
     <g id="line2d_26">
      <g>
       <use xlink:href="#m3ff7b33563" x="57.6" y="190.4256" style="stroke: #000000; stroke-width: 0.8"/>
      </g>
     </g>
     <g id="text_8">
      <!-- 0.4 -->
      <g transform="translate(25.155 196.50435)scale(0.16 -0.16)">
       <use xlink:href="#DejaVuSans-30"/>
       <use xlink:href="#DejaVuSans-2e" x="63.623047"/>
       <use xlink:href="#DejaVuSans-34" x="95.410156"/>
      </g>
     </g>
    </g>
    <g id="ytick_4">
     <g id="line2d_27">
      <path d="M 57.6 136.1664 
L 360.8064 136.1664 
" clip-path="url(#p2972d65ee0)" style="fill: none; stroke: #b0b0b0; stroke-width: 0.8; stroke-linecap: square"/>
     </g>
     <g id="line2d_28">
      <g>
       <use xlink:href="#m3ff7b33563" x="57.6" y="136.1664" style="stroke: #000000; stroke-width: 0.8"/>
      </g>
     </g>
     <g id="text_9">
      <!-- 0.6 -->
      <g transform="translate(25.155 142.24515)scale(0.16 -0.16)">
       <use xlink:href="#DejaVuSans-30"/>
       <use xlink:href="#DejaVuSans-2e" x="63.623047"/>
       <use xlink:href="#DejaVuSans-36" x="95.410156"/>
      </g>
     </g>
    </g>
    <g id="ytick_5">
     <g id="line2d_29">
      <path d="M 57.6 81.9072 
L 360.8064 81.9072 
" clip-path="url(#p2972d65ee0)" style="fill: none; stroke: #b0b0b0; stroke-width: 0.8; stroke-linecap: square"/>
     </g>
     <g id="line2d_30">
      <g>
       <use xlink:href="#m3ff7b33563" x="57.6" y="81.9072" style="stroke: #000000; stroke-width: 0.8"/>
      </g>
     </g>
     <g id="text_10">
      <!-- 0.8 -->
      <g transform="translate(25.155 87.98595)scale(0.16 -0.16)">
       <defs>
        <path id="DejaVuSans-38" d="M 2034 2216 
Q 1584 2216 1326 1975 
Q 1069 1734 1069 1313 
Q 1069 891 1326 650 
Q 1584 409 2034 409 
Q 2484 409 2743 651 
Q 3003 894 3003 1313 
Q 3003 1734 2745 1975 
Q 2488 2216 2034 2216 
z
M 1403 2484 
Q 997 2584 770 2862 
Q 544 3141 544 3541 
Q 544 4100 942 4425 
Q 1341 4750 2034 4750 
Q 2731 4750 3128 4425 
Q 3525 4100 3525 3541 
Q 3525 3141 3298 2862 
Q 3072 2584 2669 2484 
Q 3125 2378 3379 2068 
Q 3634 1759 3634 1313 
Q 3634 634 3220 271 
Q 2806 -91 2034 -91 
Q 1263 -91 848 271 
Q 434 634 434 1313 
Q 434 1759 690 2068 
Q 947 2378 1403 2484 
z
M 1172 3481 
Q 1172 3119 1398 2916 
Q 1625 2713 2034 2713 
Q 2441 2713 2670 2916 
Q 2900 3119 2900 3481 
Q 2900 3844 2670 4047 
Q 2441 4250 2034 4250 
Q 1625 4250 1398 4047 
Q 1172 3844 1172 3481 
z
" transform="scale(0.015625)"/>
       </defs>
       <use xlink:href="#DejaVuSans-30"/>
       <use xlink:href="#DejaVuSans-2e" x="63.623047"/>
       <use xlink:href="#DejaVuSans-38" x="95.410156"/>
      </g>
     </g>
    </g>
    <g id="ytick_6">
     <g id="line2d_31">
      <path d="M 57.6 27.648 
L 360.8064 27.648 
" clip-path="url(#p2972d65ee0)" style="fill: none; stroke: #b0b0b0; stroke-width: 0.8; stroke-linecap: square"/>
     </g>
     <g id="line2d_32">
      <g>
       <use xlink:href="#m3ff7b33563" x="57.6" y="27.648" style="stroke: #000000; stroke-width: 0.8"/>
      </g>
     </g>
     <g id="text_11">
      <!-- 1.0 -->
      <g transform="translate(25.155 33.72675)scale(0.16 -0.16)">
       <use xlink:href="#DejaVuSans-31"/>
       <use xlink:href="#DejaVuSans-2e" x="63.623047"/>
       <use xlink:href="#DejaVuSans-30" x="95.410156"/>
      </g>
     </g>
    </g>
    <g id="text_12">
     <!-- Fraction of function,target pairs -->
     <g transform="translate(17.619531 297.681)rotate(-90)scale(0.17 -0.17)">
      <defs>
       <path id="DejaVuSans-46" d="M 628 4666 
L 3309 4666 
L 3309 4134 
L 1259 4134 
L 1259 2759 
L 3109 2759 
L 3109 2228 
L 1259 2228 
L 1259 0 
L 628 0 
L 628 4666 
z
" transform="scale(0.015625)"/>
       <path id="DejaVuSans-72" d="M 2631 2963 
Q 2534 3019 2420 3045 
Q 2306 3072 2169 3072 
Q 1681 3072 1420 2755 
Q 1159 2438 1159 1844 
L 1159 0 
L 581 0 
L 581 3500 
L 1159 3500 
L 1159 2956 
Q 1341 3275 1631 3429 
Q 1922 3584 2338 3584 
Q 2397 3584 2469 3576 
Q 2541 3569 2628 3553 
L 2631 2963 
z
" transform="scale(0.015625)"/>
       <path id="DejaVuSans-63" d="M 3122 3366 
L 3122 2828 
Q 2878 2963 2633 3030 
Q 2388 3097 2138 3097 
Q 1578 3097 1268 2742 
Q 959 2388 959 1747 
Q 959 1106 1268 751 
Q 1578 397 2138 397 
Q 2388 397 2633 464 
Q 2878 531 3122 666 
L 3122 134 
Q 2881 22 2623 -34 
Q 2366 -91 2075 -91 
Q 1284 -91 818 406 
Q 353 903 353 1747 
Q 353 2603 823 3093 
Q 1294 3584 2113 3584 
Q 2378 3584 2631 3529 
Q 2884 3475 3122 3366 
z
" transform="scale(0.015625)"/>
       <path id="DejaVuSans-74" d="M 1172 4494 
L 1172 3500 
L 2356 3500 
L 2356 3053 
L 1172 3053 
L 1172 1153 
Q 1172 725 1289 603 
Q 1406 481 1766 481 
L 2356 481 
L 2356 0 
L 1766 0 
Q 1100 0 847 248 
Q 594 497 594 1153 
L 594 3053 
L 172 3053 
L 172 3500 
L 594 3500 
L 594 4494 
L 1172 4494 
z
" transform="scale(0.015625)"/>
       <path id="DejaVuSans-75" d="M 544 1381 
L 544 3500 
L 1119 3500 
L 1119 1403 
Q 1119 906 1312 657 
Q 1506 409 1894 409 
Q 2359 409 2629 706 
Q 2900 1003 2900 1516 
L 2900 3500 
L 3475 3500 
L 3475 0 
L 2900 0 
L 2900 538 
Q 2691 219 2414 64 
Q 2138 -91 1772 -91 
Q 1169 -91 856 284 
Q 544 659 544 1381 
z
M 1991 3584 
L 1991 3584 
z
" transform="scale(0.015625)"/>
       <path id="DejaVuSans-2c" d="M 750 794 
L 1409 794 
L 1409 256 
L 897 -744 
L 494 -744 
L 750 256 
L 750 794 
z
" transform="scale(0.015625)"/>
       <path id="DejaVuSans-70" d="M 1159 525 
L 1159 -1331 
L 581 -1331 
L 581 3500 
L 1159 3500 
L 1159 2969 
Q 1341 3281 1617 3432 
Q 1894 3584 2278 3584 
Q 2916 3584 3314 3078 
Q 3713 2572 3713 1747 
Q 3713 922 3314 415 
Q 2916 -91 2278 -91 
Q 1894 -91 1617 61 
Q 1341 213 1159 525 
z
M 3116 1747 
Q 3116 2381 2855 2742 
Q 2594 3103 2138 3103 
Q 1681 3103 1420 2742 
Q 1159 2381 1159 1747 
Q 1159 1113 1420 752 
Q 1681 391 2138 391 
Q 2594 391 2855 752 
Q 3116 1113 3116 1747 
z
" transform="scale(0.015625)"/>
      </defs>
      <use xlink:href="#DejaVuSans-46"/>
      <use xlink:href="#DejaVuSans-72" x="50.269531"/>
      <use xlink:href="#DejaVuSans-61" x="91.382812"/>
      <use xlink:href="#DejaVuSans-63" x="152.662109"/>
      <use xlink:href="#DejaVuSans-74" x="207.642578"/>
      <use xlink:href="#DejaVuSans-69" x="246.851562"/>
      <use xlink:href="#DejaVuSans-6f" x="274.634766"/>
      <use xlink:href="#DejaVuSans-6e" x="335.816406"/>
      <use xlink:href="#DejaVuSans-20" x="399.195312"/>
      <use xlink:href="#DejaVuSans-6f" x="430.982422"/>
      <use xlink:href="#DejaVuSans-66" x="492.164062"/>
      <use xlink:href="#DejaVuSans-20" x="527.369141"/>
      <use xlink:href="#DejaVuSans-66" x="559.15625"/>
      <use xlink:href="#DejaVuSans-75" x="594.361328"/>
      <use xlink:href="#DejaVuSans-6e" x="657.740234"/>
      <use xlink:href="#DejaVuSans-63" x="721.119141"/>
      <use xlink:href="#DejaVuSans-74" x="776.099609"/>
      <use xlink:href="#DejaVuSans-69" x="815.308594"/>
      <use xlink:href="#DejaVuSans-6f" x="843.091797"/>
      <use xlink:href="#DejaVuSans-6e" x="904.273438"/>
      <use xlink:href="#DejaVuSans-2c" x="967.652344"/>
      <use xlink:href="#DejaVuSans-74" x="999.439453"/>
      <use xlink:href="#DejaVuSans-61" x="1038.648438"/>
      <use xlink:href="#DejaVuSans-72" x="1099.927734"/>
      <use xlink:href="#DejaVuSans-67" x="1139.291016"/>
      <use xlink:href="#DejaVuSans-65" x="1202.767578"/>
      <use xlink:href="#DejaVuSans-74" x="1264.291016"/>
      <use xlink:href="#DejaVuSans-20" x="1303.5"/>
      <use xlink:href="#DejaVuSans-70" x="1335.287109"/>
      <use xlink:href="#DejaVuSans-61" x="1398.763672"/>
      <use xlink:href="#DejaVuSans-69" x="1460.042969"/>
      <use xlink:href="#DejaVuSans-72" x="1487.826172"/>
      <use xlink:href="#DejaVuSans-73" x="1528.939453"/>
     </g>
    </g>
   </g>
   <g id="line2d_33">
    <defs>
     <path id="m679d05b2d0" d="M 0 1.5 
C 0.397805 1.5 0.77937 1.341951 1.06066 1.06066 
C 1.341951 0.77937 1.5 0.397805 1.5 0 
C 1.5 -0.397805 1.341951 -0.77937 1.06066 -1.06066 
C 0.77937 -1.341951 0.397805 -1.5 0 -1.5 
C -0.397805 -1.5 -0.77937 -1.341951 -1.06066 -1.06066 
C -1.341951 -0.77937 -1.5 -0.397805 -1.5 0 
C -1.5 0.397805 -1.341951 0.77937 -1.06066 1.06066 
C -0.77937 1.341951 -0.397805 1.5 0 1.5 
z
" style="stroke: #f5deb3"/>
    </defs>
    <g>
     <use xlink:href="#m679d05b2d0" x="205.29498" y="27.648" style="fill: #f5deb3; stroke: #f5deb3"/>
     <use xlink:href="#m679d05b2d0" x="205.29498" y="27.648" style="fill: #f5deb3; stroke: #f5deb3"/>
    </g>
   </g>
   <g id="line2d_34">
    <defs>
     <path id="m1bc96bac2a" d="M 0 1.5 
C 0.397805 1.5 0.77937 1.341951 1.06066 1.06066 
C 1.341951 0.77937 1.5 0.397805 1.5 0 
C 1.5 -0.397805 1.341951 -0.77937 1.06066 -1.06066 
C 0.77937 -1.341951 0.397805 -1.5 0 -1.5 
C -0.397805 -1.5 -0.77937 -1.341951 -1.06066 -1.06066 
C -1.341951 -0.77937 -1.5 -0.397805 -1.5 0 
C -1.5 0.397805 -1.341951 0.77937 -1.06066 1.06066 
C -0.77937 1.341951 -0.397805 1.5 0 1.5 
z
" style="stroke: #000080"/>
    </defs>
    <g>
     <use xlink:href="#m1bc96bac2a" x="243.236447" y="27.648" style="fill: #000080; stroke: #000080"/>
     <use xlink:href="#m1bc96bac2a" x="243.236447" y="27.648" style="fill: #000080; stroke: #000080"/>
    </g>
   </g>
   <g id="line2d_35">
    <path d="M -1 293.624471 
L 95.752617 293.624471 
L 95.752617 292.560565 
L 97.009181 292.560565 
L 97.009181 291.496659 
L 100.049042 291.496659 
L 100.049042 290.432753 
L 100.535156 290.432753 
L 100.535156 289.368847 
L 100.868112 289.368847 
L 100.868112 288.304941 
L 101.698168 288.304941 
L 101.698168 287.241035 
L 104.108325 287.241035 
L 104.108325 286.177129 
L 104.771184 286.177129 
L 104.771184 285.113224 
L 104.923814 285.113224 
L 104.923814 284.049318 
L 106.837279 284.049318 
L 106.837279 282.985412 
L 107.345272 282.985412 
L 107.345272 281.921506 
L 107.807334 281.921506 
L 107.807334 280.8576 
L 108.09849 280.8576 
L 108.09849 279.793694 
L 108.22646 279.793694 
L 108.22646 278.729788 
L 111.334639 278.729788 
L 111.334639 277.665882 
L 112.283321 277.665882 
L 112.36026 275.538071 
L 113.57433 275.538071 
L 113.57433 274.474165 
L 114.349932 274.474165 
L 114.349932 273.410259 
L 114.624224 273.410259 
L 114.624224 272.346353 
L 115.811328 272.346353 
L 115.811328 271.282447 
L 118.708098 271.282447 
L 118.708098 270.218541 
L 119.893609 270.218541 
L 119.893609 269.154635 
L 121.297492 269.154635 
L 121.297492 268.090729 
L 122.78117 268.090729 
L 122.78117 267.026824 
L 124.060394 267.026824 
L 124.060394 265.962918 
L 124.508471 265.962918 
L 124.508471 264.899012 
L 124.946123 264.899012 
L 124.946123 263.835106 
L 125.063736 263.835106 
L 125.063736 262.7712 
L 160.530046 262.7712 
L 160.530046 261.707294 
L 161.226814 261.707294 
L 161.226814 260.643388 
L 161.497325 260.643388 
L 161.497325 259.579482 
L 162.214095 259.579482 
L 162.277267 257.451671 
L 172.482581 257.451671 
L 172.482581 256.387765 
L 172.731262 256.387765 
L 172.731262 255.323859 
L 172.895924 255.323859 
L 172.895924 254.259953 
L 173.098732 254.259953 
L 173.098732 253.196047 
L 180.217237 253.196047 
L 180.217237 252.132141 
L 180.400334 252.132141 
L 180.400334 251.068235 
L 180.963877 251.068235 
L 180.963877 250.004329 
L 185.090553 250.004329 
L 185.090553 248.940424 
L 185.674059 248.940424 
L 185.717127 246.812612 
L 189.783007 246.812612 
L 189.87963 240.429176 
L 189.928585 240.429176 
L 190.005907 236.173553 
L 190.050418 236.173553 
L 190.110835 231.917929 
L 190.178828 231.917929 
L 190.286052 225.534494 
L 190.330312 225.534494 
L 190.419328 221.278871 
L 190.456429 221.278871 
L 190.564489 217.023247 
L 190.575702 217.023247 
L 190.681091 210.639812 
L 190.700985 210.639812 
L 190.737931 207.448094 
L 190.816351 207.448094 
L 190.910969 201.064659 
L 206.577778 201.064659 
L 206.676693 192.553412 
L 206.699811 192.553412 
L 206.802651 181.914353 
L 206.827978 181.914353 
L 206.934148 171.275294 
L 206.950081 171.275294 
L 207.0574 160.636235 
L 207.068232 160.636235 
L 207.087713 158.508424 
L 223.924699 158.508424 
L 223.924699 157.444518 
L 224.366156 157.444518 
L 224.366156 156.380612 
L 227.474603 156.380612 
L 227.579542 131.910776 
L 227.587995 131.910776 
L 227.653417 112.760471 
L 230.78342 112.760471 
L 230.892236 84.035012 
L 230.896226 84.035012 
L 230.932945 70.204235 
L 243.168339 70.204235 
L 243.236447 27.648 
L 360.8064 27.648 
L 360.8064 27.648 
" style="fill: none; stroke: #000080; stroke-width: 1.5; stroke-linecap: square"/>
   </g>
   <g id="line2d_36">
    <defs>
     <path id="m43d5bd186f" d="M 0 6 
C 1.591219 6 3.117479 5.367802 4.242641 4.242641 
C 5.367802 3.117479 6 1.591219 6 0 
C 6 -1.591219 5.367802 -3.117479 4.242641 -4.242641 
C 3.117479 -5.367802 1.591219 -6 0 -6 
C -1.591219 -6 -3.117479 -5.367802 -4.242641 -4.242641 
C -5.367802 -3.117479 -6 -1.591219 -6 0 
C -6 1.591219 -5.367802 3.117479 -4.242641 4.242641 
C -3.117479 5.367802 -1.591219 6 0 6 
z
" style="stroke: #000080; stroke-width: 1.5"/>
    </defs>
    <g>
     <use xlink:href="#m43d5bd186f" x="108.22646" y="279.793694" style="fill-opacity: 0; stroke: #000080; stroke-width: 1.5"/>
     <use xlink:href="#m43d5bd186f" x="190.330312" y="225.534494" style="fill-opacity: 0; stroke: #000080; stroke-width: 1.5"/>
     <use xlink:href="#m43d5bd186f" x="243.211585" y="41.478776" style="fill-opacity: 0; stroke: #000080; stroke-width: 1.5"/>
     <use xlink:href="#m43d5bd186f" x="243.236447" y="27.648" style="fill-opacity: 0; stroke: #000080; stroke-width: 1.5"/>
     <use xlink:href="#m43d5bd186f" x="243.236447" y="27.648" style="fill-opacity: 0; stroke: #000080; stroke-width: 1.5"/>
     <use xlink:href="#m43d5bd186f" x="360.8064" y="27.648" style="fill-opacity: 0; stroke: #000080; stroke-width: 1.5"/>
    </g>
   </g>
   <g id="line2d_37">
    <path style="fill: none; stroke: #000080; stroke-width: 1.5; stroke-linecap: square"/>
    <g/>
   </g>
   <g id="line2d_38">
    <defs>
     <path id="md2b37988cf" d="M 0 1.5 
C 0.397805 1.5 0.77937 1.341951 1.06066 1.06066 
C 1.341951 0.77937 1.5 0.397805 1.5 0 
C 1.5 -0.397805 1.341951 -0.77937 1.06066 -1.06066 
C 0.77937 -1.341951 0.397805 -1.5 0 -1.5 
C -0.397805 -1.5 -0.77937 -1.341951 -1.06066 -1.06066 
C -1.341951 -0.77937 -1.5 -0.397805 -1.5 0 
C -1.5 0.397805 -1.341951 0.77937 -1.06066 1.06066 
C -0.77937 1.341951 -0.397805 1.5 0 1.5 
z
" style="stroke: #ff00ff"/>
    </defs>
    <g>
     <use xlink:href="#md2b37988cf" x="262.38768" y="27.648" style="fill: #ff00ff; stroke: #ff00ff"/>
     <use xlink:href="#md2b37988cf" x="262.38768" y="27.648" style="fill: #ff00ff; stroke: #ff00ff"/>
    </g>
   </g>
   <g id="line2d_39">
    <path d="M -1 293.624471 
L 91.846598 293.624471 
L 91.846598 292.560565 
L 92.883718 292.560565 
L 92.883718 291.496659 
L 97.18203 291.496659 
L 97.18203 290.432753 
L 97.466628 290.432753 
L 97.466628 289.368847 
L 98.775785 289.368847 
L 98.775785 288.304941 
L 99.851024 288.304941 
L 99.851024 287.241035 
L 100.342215 287.241035 
L 100.342215 286.177129 
L 101.241555 286.177129 
L 101.241555 284.049318 
L 102.920695 284.049318 
L 102.920695 282.985412 
L 103.585189 282.985412 
L 103.585189 281.921506 
L 103.828446 281.921506 
L 103.828446 280.8576 
L 104.578638 280.8576 
L 104.578638 279.793694 
L 104.885773 279.793694 
L 104.885773 278.729788 
L 107.109915 278.729788 
L 107.109915 277.665882 
L 107.478452 277.665882 
L 107.478452 276.601976 
L 108.542628 276.601976 
L 108.542628 275.538071 
L 109.098675 275.538071 
L 109.098675 274.474165 
L 109.579508 274.474165 
L 109.579508 273.410259 
L 110.534026 273.410259 
L 110.534026 272.346353 
L 111.602996 272.346353 
L 111.602996 271.282447 
L 111.86758 271.282447 
L 111.86758 270.218541 
L 112.36026 270.218541 
L 112.36026 269.154635 
L 112.815401 269.154635 
L 112.815401 268.090729 
L 113.478107 268.090729 
L 113.478107 267.026824 
L 113.717748 267.026824 
L 113.717748 265.962918 
L 114.487578 265.962918 
L 114.487578 264.899012 
L 115.3367 264.899012 
L 115.3367 263.835106 
L 115.597071 263.835106 
L 115.597071 262.7712 
L 116.377921 262.7712 
L 116.377921 261.707294 
L 116.705799 261.707294 
L 116.766645 258.515576 
L 119.669351 258.515576 
L 119.669351 257.451671 
L 122.379802 257.451671 
L 122.379802 256.387765 
L 123.274711 256.387765 
L 123.274711 255.323859 
L 123.47423 255.323859 
L 123.47423 254.259953 
L 157.69734 254.259953 
L 157.69734 253.196047 
L 158.13806 253.196047 
L 158.13806 252.132141 
L 158.601581 252.132141 
L 158.601581 251.068235 
L 158.754308 251.068235 
L 158.754308 250.004329 
L 159.272955 250.004329 
L 159.272955 248.940424 
L 159.674507 248.940424 
L 159.674507 247.876518 
L 161.004485 247.876518 
L 161.004485 246.812612 
L 178.988628 246.812612 
L 179.008628 244.6848 
L 179.102422 244.6848 
L 179.210406 240.429176 
L 179.279863 240.429176 
L 179.325056 238.301365 
L 179.398443 238.301365 
L 179.50763 234.045741 
L 179.62622 234.045741 
L 179.67845 230.854024 
L 179.827186 230.854024 
L 179.92828 227.662306 
L 179.997249 227.662306 
L 180.059666 224.470588 
L 180.156735 224.470588 
L 180.260235 221.278871 
L 180.305208 221.278871 
L 180.390706 219.151059 
L 180.425758 219.151059 
L 180.531889 214.895435 
L 180.570087 214.895435 
L 180.595962 212.767624 
L 180.702494 212.767624 
L 180.749123 209.575906 
L 180.83935 209.575906 
L 180.89435 205.320282 
L 180.979218 205.320282 
L 181.087585 201.064659 
L 193.360961 201.064659 
L 193.448102 194.681224 
L 193.484835 194.681224 
L 193.555695 190.4256 
L 193.612668 190.4256 
L 193.710179 184.042165 
L 193.735916 184.042165 
L 193.811906 178.722635 
L 193.850627 178.722635 
L 193.952603 173.403106 
L 193.98202 173.403106 
L 194.053364 167.019671 
L 194.112169 167.019671 
L 194.209772 160.636235 
L 194.229232 160.636235 
L 194.281903 156.380612 
L 214.806395 156.380612 
L 214.806395 155.316706 
L 217.916853 155.316706 
L 218.02733 138.294212 
L 218.034864 138.294212 
L 218.141416 122.335624 
L 218.147611 122.335624 
L 218.202533 112.760471 
L 239.968152 112.760471 
L 240.059912 70.204235 
L 262.358695 70.204235 
L 262.38768 27.648 
L 360.8064 27.648 
L 360.8064 27.648 
" style="fill: none; stroke: #ff00ff; stroke-width: 1.5; stroke-linecap: square"/>
   </g>
   <g id="line2d_40">
    <defs>
     <path id="m545ff943ac" d="M -0 8.485281 
L 5.091169 0 
L 0 -8.485281 
L -5.091169 -0 
z
" style="stroke: #ff00ff; stroke-width: 1.5; stroke-linejoin: miter"/>
    </defs>
    <g>
     <use xlink:href="#m545ff943ac" x="159.272955" y="250.004329" style="fill-opacity: 0; stroke: #ff00ff; stroke-width: 1.5; stroke-linejoin: miter"/>
     <use xlink:href="#m545ff943ac" x="218.008714" y="141.485929" style="fill-opacity: 0; stroke: #ff00ff; stroke-width: 1.5; stroke-linejoin: miter"/>
     <use xlink:href="#m545ff943ac" x="262.38768" y="28.711906" style="fill-opacity: 0; stroke: #ff00ff; stroke-width: 1.5; stroke-linejoin: miter"/>
     <use xlink:href="#m545ff943ac" x="262.38768" y="27.648" style="fill-opacity: 0; stroke: #ff00ff; stroke-width: 1.5; stroke-linejoin: miter"/>
     <use xlink:href="#m545ff943ac" x="360.8064" y="27.648" style="fill-opacity: 0; stroke: #ff00ff; stroke-width: 1.5; stroke-linejoin: miter"/>
    </g>
   </g>
   <g id="line2d_41">
    <path style="fill: none; stroke: #ff00ff; stroke-width: 1.5; stroke-linecap: square"/>
    <g/>
   </g>
   <g id="line2d_42">
    <defs>
     <path id="m1ec03b455b" d="M 0 1.5 
C 0.397805 1.5 0.77937 1.341951 1.06066 1.06066 
C 1.341951 0.77937 1.5 0.397805 1.5 0 
C 1.5 -0.397805 1.341951 -0.77937 1.06066 -1.06066 
C 0.77937 -1.341951 0.397805 -1.5 0 -1.5 
C -0.397805 -1.5 -0.77937 -1.341951 -1.06066 -1.06066 
C -1.341951 -0.77937 -1.5 -0.397805 -1.5 0 
C -1.5 0.397805 -1.341951 0.77937 -1.06066 1.06066 
C -0.77937 1.341951 -0.397805 1.5 0 1.5 
z
" style="stroke: #ff7500"/>
    </defs>
    <g>
     <use xlink:href="#m1ec03b455b" x="327.329212" y="27.648" style="fill: #ff7500; stroke: #ff7500"/>
     <use xlink:href="#m1ec03b455b" x="327.329212" y="27.648" style="fill: #ff7500; stroke: #ff7500"/>
    </g>
   </g>
   <g id="line2d_43">
    <path d="M -1 293.624471 
L 97.579272 293.624471 
L 97.579272 292.560565 
L 98.456938 292.560565 
L 98.456938 291.496659 
L 101.287718 291.496659 
L 101.287718 290.432753 
L 101.922385 290.432753 
L 101.922385 289.368847 
L 102.449846 289.368847 
L 102.449846 288.304941 
L 102.62243 288.304941 
L 102.62243 287.241035 
L 105.037479 287.241035 
L 105.037479 286.177129 
L 107.244765 286.177129 
L 107.244765 285.113224 
L 109.037698 285.113224 
L 109.037698 284.049318 
L 110.335561 284.049318 
L 110.335561 282.985412 
L 111.442442 282.985412 
L 111.442442 281.921506 
L 112.257605 281.921506 
L 112.309003 279.793694 
L 113.789049 279.793694 
L 113.789049 278.729788 
L 114.349932 278.729788 
L 114.349932 277.665882 
L 116.522071 277.665882 
L 116.522071 276.601976 
L 117.325248 276.601976 
L 117.325248 275.538071 
L 117.848632 275.538071 
L 117.848632 274.474165 
L 119.927874 274.474165 
L 119.927874 273.410259 
L 120.4345 273.410259 
L 120.4345 272.346353 
L 120.682786 272.346353 
L 120.682786 271.282447 
L 121.024972 271.282447 
L 121.024972 270.218541 
L 121.185755 270.218541 
L 121.185755 269.154635 
L 122.898468 269.154635 
L 122.898468 268.090729 
L 123.431654 268.090729 
L 123.431654 265.962918 
L 124.319679 265.962918 
L 124.319679 264.899012 
L 125.271028 264.899012 
L 125.271028 263.835106 
L 126.601504 263.835106 
L 126.601504 261.707294 
L 127.61796 261.707294 
L 127.61796 260.643388 
L 129.0834 260.643388 
L 129.0834 259.579482 
L 129.957079 259.579482 
L 129.957079 258.515576 
L 130.627935 258.515576 
L 130.627935 257.451671 
L 131.162987 257.451671 
L 131.162987 256.387765 
L 131.628183 256.387765 
L 131.628183 255.323859 
L 132.02825 255.323859 
L 132.02825 254.259953 
L 132.949924 254.259953 
L 132.949924 253.196047 
L 133.573382 253.196047 
L 133.573382 252.132141 
L 134.526683 252.132141 
L 134.526683 251.068235 
L 134.722598 251.068235 
L 134.722598 250.004329 
L 135.857079 250.004329 
L 135.930332 247.876518 
L 137.453486 247.876518 
L 137.453486 246.812612 
L 137.747841 246.812612 
L 137.747841 245.748706 
L 137.866944 245.748706 
L 137.866944 244.6848 
L 138.705444 244.6848 
L 138.743257 242.556988 
L 139.28316 242.556988 
L 139.28316 241.493082 
L 139.688636 241.493082 
L 139.688636 240.429176 
L 140.34752 240.429176 
L 140.34752 239.365271 
L 140.770526 239.365271 
L 140.770526 237.237459 
L 141.464143 237.237459 
L 141.464143 236.173553 
L 141.761416 236.173553 
L 141.761416 235.109647 
L 142.206555 235.109647 
L 142.206555 234.045741 
L 142.748564 234.045741 
L 142.748564 232.981835 
L 143.329739 232.981835 
L 143.329739 230.854024 
L 143.638012 230.854024 
L 143.638012 229.790118 
L 143.912638 229.790118 
L 143.912638 228.726212 
L 144.394285 228.726212 
L 144.394285 227.662306 
L 144.538258 227.662306 
L 144.593695 225.534494 
L 144.92746 225.534494 
L 145.017879 222.342776 
L 146.027607 222.342776 
L 146.027607 221.278871 
L 159.631002 221.278871 
L 159.631002 220.214965 
L 159.953841 220.214965 
L 159.953841 219.151059 
L 160.213007 219.151059 
L 160.213007 218.087153 
L 160.474602 218.087153 
L 160.474602 217.023247 
L 160.867096 217.023247 
L 160.867096 215.959341 
L 161.002557 215.959341 
L 161.002557 214.895435 
L 161.43336 214.895435 
L 161.43336 213.831529 
L 162.526075 213.831529 
L 162.526075 212.767624 
L 162.771634 212.767624 
L 162.804952 210.639812 
L 162.927196 210.639812 
L 162.927196 209.575906 
L 163.145254 209.575906 
L 163.145254 208.512 
L 163.450751 208.512 
L 163.547 206.384188 
L 163.701317 206.384188 
L 163.701317 205.320282 
L 164.995505 205.320282 
L 164.995505 204.256376 
L 176.105113 204.256376 
L 176.105113 203.192471 
L 176.296793 203.192471 
L 176.296793 201.064659 
L 176.456037 201.064659 
L 176.456037 200.000753 
L 176.696171 200.000753 
L 176.696171 197.872941 
L 176.859555 197.872941 
L 176.967145 195.745129 
L 176.97622 195.745129 
L 176.97622 194.681224 
L 177.108555 194.681224 
L 177.108555 193.617318 
L 177.25785 193.617318 
L 177.324365 191.489506 
L 177.424504 191.489506 
L 177.424504 189.361694 
L 177.647887 189.361694 
L 177.647887 188.297788 
L 177.770061 188.297788 
L 177.808769 185.106071 
L 178.193847 185.106071 
L 178.254827 182.978259 
L 178.476237 182.978259 
L 178.567411 179.786541 
L 178.670211 179.786541 
L 178.670211 178.722635 
L 178.889048 178.722635 
L 178.931471 176.594824 
L 179.235294 176.594824 
L 179.345429 173.403106 
L 179.513397 173.403106 
L 179.513397 172.3392 
L 179.669874 172.3392 
L 179.779633 169.147482 
L 179.798811 169.147482 
L 179.798811 168.083576 
L 180.105819 168.083576 
L 180.18249 164.891859 
L 180.235974 164.891859 
L 180.298987 162.764047 
L 180.394145 162.764047 
L 180.46143 159.572329 
L 180.59256 159.572329 
L 180.59256 158.508424 
L 200.723001 158.508424 
L 200.723001 157.444518 
L 278.70262 157.444518 
L 278.798955 142.904471 
L 278.93461 142.904471 
L 279.029583 123.399529 
L 279.214501 123.399529 
L 279.308457 104.958494 
L 291.739346 104.958494 
L 291.787582 98.575059 
L 291.855518 98.575059 
L 291.903208 93.255529 
L 291.970923 93.255529 
L 292.044394 83.325741 
L 292.112744 83.325741 
L 292.15803 76.233035 
L 292.252506 76.233035 
L 292.294639 73.041318 
L 299.392842 73.041318 
L 299.473977 70.558871 
L 299.521307 70.558871 
L 299.617997 61.338353 
L 299.640019 61.338353 
L 299.74031 56.373459 
L 299.784854 56.373459 
L 299.815803 54.600282 
L 299.908357 54.600282 
L 299.908357 54.245647 
L 304.895067 54.245647 
L 304.987734 51.408565 
L 305.022232 51.408565 
L 305.114208 45.7344 
L 305.150523 45.7344 
L 305.185859 43.606588 
L 305.307801 43.606588 
L 305.307801 43.251953 
L 309.03973 43.251953 
L 309.140862 41.833412 
L 309.171771 41.833412 
L 309.227642 40.060235 
L 309.288178 40.060235 
L 309.393493 36.159247 
L 309.502277 36.159247 
L 309.502277 35.804612 
L 312.544873 35.804612 
L 312.645921 32.258259 
L 312.677045 32.258259 
L 312.739784 31.194353 
L 315.517527 31.194353 
L 315.521879 30.130447 
L 315.747439 30.130447 
L 315.747439 29.775812 
L 318.106815 29.775812 
L 318.106815 29.421176 
L 320.207582 29.421176 
L 320.207582 29.066541 
L 324.038082 29.066541 
L 324.100774 28.002635 
L 327.329212 28.002635 
L 327.329212 27.648 
L 360.8064 27.648 
L 360.8064 27.648 
" style="fill: none; stroke: #ff7500; stroke-width: 1.5; stroke-linecap: square"/>
   </g>
   <g id="line2d_44">
    <defs>
     <path id="m86ec9ebe70" d="M 0 -6 
L -1.347084 -1.854102 
L -5.706339 -1.854102 
L -2.179628 0.708204 
L -3.526712 4.854102 
L -0 2.291796 
L 3.526712 4.854102 
L 2.179628 0.708204 
L 5.706339 -1.854102 
L 1.347084 -1.854102 
z
" style="stroke: #ff7500; stroke-width: 1.5; stroke-linejoin: bevel"/>
    </defs>
    <g>
     <use xlink:href="#m86ec9ebe70" x="101.287718" y="291.496659" style="fill-opacity: 0; stroke: #ff7500; stroke-width: 1.5; stroke-linejoin: bevel"/>
     <use xlink:href="#m86ec9ebe70" x="180.59256" y="159.572329" style="fill-opacity: 0; stroke: #ff7500; stroke-width: 1.5; stroke-linejoin: bevel"/>
     <use xlink:href="#m86ec9ebe70" x="200.723001" y="157.444518" style="fill-opacity: 0; stroke: #ff7500; stroke-width: 1.5; stroke-linejoin: bevel"/>
     <use xlink:href="#m86ec9ebe70" x="315.747439" y="30.130447" style="fill-opacity: 0; stroke: #ff7500; stroke-width: 1.5; stroke-linejoin: bevel"/>
     <use xlink:href="#m86ec9ebe70" x="327.329212" y="27.648" style="fill-opacity: 0; stroke: #ff7500; stroke-width: 1.5; stroke-linejoin: bevel"/>
     <use xlink:href="#m86ec9ebe70" x="360.8064" y="27.648" style="fill-opacity: 0; stroke: #ff7500; stroke-width: 1.5; stroke-linejoin: bevel"/>
    </g>
   </g>
   <g id="line2d_45">
    <path style="fill: none; stroke: #ff7500; stroke-width: 1.5; stroke-linecap: square"/>
    <g/>
   </g>
   <g id="line2d_46">
    <path d="M 278.928887 142.904471 
" clip-path="url(#p2972d65ee0)" style="fill: none; stroke: #ff7500; stroke-width: 1.5; stroke-linecap: square"/>
    <defs>
     <path id="m2dab1f7e6a" d="M -12 12 
L 12 -12 
M -12 -12 
L 12 12 
" style="stroke: #ff7500"/>
    </defs>
    <g clip-path="url(#p2972d65ee0)">
     <use xlink:href="#m2dab1f7e6a" x="278.928887" y="142.904471" style="fill: #ff7500; stroke: #ff7500"/>
    </g>
   </g>
   <g id="line2d_47">
    <defs>
     <path id="m503e6fcdc0" d="M 0 1.5 
C 0.397805 1.5 0.77937 1.341951 1.06066 1.06066 
C 1.341951 0.77937 1.5 0.397805 1.5 0 
C 1.5 -0.397805 1.341951 -0.77937 1.06066 -1.06066 
C 0.77937 -1.341951 0.397805 -1.5 0 -1.5 
C -0.397805 -1.5 -0.77937 -1.341951 -1.06066 -1.06066 
C -1.341951 -0.77937 -1.5 -0.397805 -1.5 0 
C -1.5 0.397805 -1.341951 0.77937 -1.06066 1.06066 
C -0.77937 1.341951 -0.397805 1.5 0 1.5 
z
" style="stroke: #6495ed"/>
    </defs>
    <g>
     <use xlink:href="#m503e6fcdc0" x="339.992324" y="27.648" style="fill: #6495ed; stroke: #6495ed"/>
     <use xlink:href="#m503e6fcdc0" x="339.992324" y="27.648" style="fill: #6495ed; stroke: #6495ed"/>
    </g>
   </g>
   <g id="line2d_48">
    <path d="M -1 293.624471 
L 96.83473 293.624471 
L 96.83473 292.560565 
L 101.653002 292.560565 
L 101.653002 291.496659 
L 101.788176 291.496659 
L 101.788176 290.432753 
L 102.055643 290.432753 
L 102.055643 289.368847 
L 103.544339 289.368847 
L 103.544339 288.304941 
L 104.384101 288.304941 
L 104.384101 287.241035 
L 105.778187 287.241035 
L 105.778187 286.177129 
L 106.244465 286.177129 
L 106.244465 285.113224 
L 106.595437 285.113224 
L 106.595437 284.049318 
L 108.605229 284.049318 
L 108.605229 282.985412 
L 109.159456 282.985412 
L 109.159456 281.921506 
L 110.813965 281.921506 
L 110.813965 280.8576 
L 111.97238 280.8576 
L 111.97238 279.793694 
L 113.186449 279.793694 
L 113.186449 278.729788 
L 113.598309 278.729788 
L 113.598309 277.665882 
L 114.048198 277.665882 
L 114.048198 276.601976 
L 114.533237 276.601976 
L 114.533237 275.538071 
L 114.759885 275.538071 
L 114.759885 274.474165 
L 115.423891 274.474165 
L 115.423891 273.410259 
L 116.232657 273.410259 
L 116.232657 272.346353 
L 116.726103 272.346353 
L 116.726103 271.282447 
L 117.344894 271.282447 
L 117.344894 270.218541 
L 119.979155 270.218541 
L 119.979155 269.154635 
L 120.132165 269.154635 
L 120.132165 268.090729 
L 120.666335 268.090729 
L 120.666335 267.026824 
L 123.058567 267.026824 
L 123.058567 265.962918 
L 123.559094 265.962918 
L 123.559094 264.899012 
L 124.060394 264.899012 
L 124.060394 263.835106 
L 126.016262 263.835106 
L 126.016262 262.7712 
L 158.689005 262.7712 
L 158.689005 261.707294 
L 158.951018 261.707294 
L 158.951018 260.643388 
L 159.113741 260.643388 
L 159.113741 259.579482 
L 159.353112 259.579482 
L 159.353112 258.515576 
L 159.585318 258.515576 
L 159.68485 256.387765 
L 160.00474 256.387765 
L 160.00474 255.323859 
L 160.136439 255.323859 
L 160.136439 254.259953 
L 160.720869 254.259953 
L 160.720869 253.196047 
L 160.837941 253.196047 
L 160.837941 252.132141 
L 161.056469 252.132141 
L 161.056469 251.068235 
L 161.367285 251.068235 
L 161.367285 250.004329 
L 161.495447 250.004329 
L 161.495447 248.940424 
L 161.819471 248.940424 
L 161.911559 246.812612 
L 162.309673 246.812612 
L 162.397607 244.6848 
L 162.572251 244.6848 
L 162.572251 243.620894 
L 162.776899 243.620894 
L 162.776899 242.556988 
L 162.9724 242.556988 
L 162.9724 241.493082 
L 163.150415 241.493082 
L 163.150415 240.429176 
L 163.330169 240.429176 
L 163.330169 239.365271 
L 163.553736 239.365271 
L 163.553736 238.301365 
L 163.846093 238.301365 
L 163.846093 237.237459 
L 163.983181 237.237459 
L 164.024277 235.109647 
L 164.252774 235.109647 
L 164.252774 234.045741 
L 164.449654 234.045741 
L 164.449654 231.917929 
L 164.588804 231.917929 
L 164.588804 230.854024 
L 164.958041 230.854024 
L 165.050006 227.662306 
L 165.30637 227.662306 
L 165.30637 226.5984 
L 165.459136 226.5984 
L 165.459136 225.534494 
L 165.841676 225.534494 
L 165.948712 222.342776 
L 166.184412 222.342776 
L 166.225357 220.214965 
L 166.422978 220.214965 
L 166.422978 219.151059 
L 166.581313 219.151059 
L 166.597074 217.023247 
L 166.792265 217.023247 
L 166.894041 214.895435 
L 167.054068 214.895435 
L 167.164171 212.767624 
L 167.214132 212.767624 
L 167.214132 211.703718 
L 167.354971 211.703718 
L 167.393449 209.575906 
L 167.470169 209.575906 
L 167.470169 208.512 
L 167.830378 208.512 
L 167.899996 205.320282 
L 168.015899 205.320282 
L 168.015899 204.256376 
L 207.785552 204.256376 
L 207.785552 203.192471 
L 208.417845 203.192471 
L 208.417845 202.128565 
L 231.283094 202.128565 
L 231.283094 201.064659 
L 247.407906 201.064659 
L 247.407906 200.000753 
L 278.167193 200.000753 
L 278.181099 188.297788 
L 278.622592 188.297788 
L 278.669161 180.141176 
L 278.789228 180.141176 
L 278.803667 172.693835 
L 279.153956 172.693835 
L 279.167984 165.601129 
L 280.541297 165.601129 
L 280.541297 165.246494 
L 291.18656 165.246494 
L 291.191774 163.827953 
L 291.432499 163.827953 
L 291.506534 157.444518 
L 291.67955 157.444518 
L 291.749715 147.160094 
L 291.809552 147.160094 
L 291.910668 143.968376 
L 291.926544 143.968376 
L 292.000232 134.747859 
L 292.176083 134.747859 
L 292.179251 132.265412 
L 298.97403 132.265412 
L 299.020689 129.428329 
L 299.135233 129.428329 
L 299.227976 126.236612 
L 299.298055 126.236612 
L 299.350449 120.562447 
L 299.43251 120.562447 
L 299.513161 116.661459 
L 299.554131 116.661459 
L 299.557209 115.242918 
L 299.676047 115.242918 
L 299.678439 114.533647 
L 304.340625 114.533647 
L 304.374288 113.824376 
L 304.463943 113.824376 
L 304.532894 112.0512 
L 304.593095 112.0512 
L 304.626131 109.214118 
L 304.712636 109.214118 
L 304.806863 101.057506 
L 304.832701 101.057506 
L 304.934476 93.255529 
L 304.958383 93.255529 
L 305.025551 91.482353 
L 305.082347 91.482353 
L 305.082347 91.127718 
L 305.206897 91.127718 
L 305.206897 90.773082 
L 308.663333 90.773082 
L 308.763588 87.936 
L 308.789323 87.936 
L 308.887059 86.162824 
L 308.911915 86.162824 
L 309.012065 82.616471 
L 309.029636 82.616471 
L 309.13439 78.715482 
L 309.156512 78.715482 
L 309.23148 76.587671 
L 312.155033 76.587671 
L 312.218594 72.686682 
L 312.276916 72.686682 
L 312.382952 69.140329 
L 312.418829 69.140329 
L 312.521365 66.303247 
L 312.547244 66.303247 
L 312.564134 65.593976 
L 312.748994 65.593976 
L 312.748994 65.239341 
L 314.950071 65.239341 
L 314.950071 64.884706 
L 315.078755 64.884706 
L 315.133607 63.111529 
L 315.199347 63.111529 
L 315.290943 59.210541 
L 315.324789 59.210541 
L 315.394968 56.728094 
L 315.50144 56.728094 
L 315.50144 56.373459 
L 317.577528 56.373459 
L 317.670305 54.954918 
L 317.70224 54.954918 
L 317.793081 52.472471 
L 317.839161 52.472471 
L 317.886256 51.053929 
L 319.854592 51.053929 
L 319.948375 49.990024 
L 319.978544 49.990024 
L 320.087352 47.862212 
L 320.100416 47.862212 
L 320.195957 46.798306 
L 320.22411 46.798306 
L 320.22411 46.443671 
L 321.759056 46.443671 
L 321.857659 45.379765 
L 321.904664 45.379765 
L 322.005933 43.961224 
L 322.029938 43.961224 
L 322.117347 42.542682 
L 322.201757 42.542682 
L 322.201757 42.188047 
L 323.578017 42.188047 
L 323.578017 41.833412 
L 323.700097 41.833412 
L 323.806521 40.414871 
L 323.827912 40.414871 
L 323.851159 39.350965 
L 325.178152 39.350965 
L 325.178152 38.996329 
L 325.477911 38.996329 
L 325.500811 37.932424 
L 326.698953 37.932424 
L 326.698953 37.577788 
L 326.936786 37.577788 
L 327.019986 36.159247 
L 328.191389 36.159247 
L 328.287688 35.449976 
L 328.362612 35.449976 
L 328.398398 34.740706 
L 329.542061 34.740706 
L 329.542061 34.386071 
L 329.695941 34.386071 
L 329.79469 33.6768 
L 330.755642 33.6768 
L 330.860317 32.258259 
L 330.899333 32.258259 
L 331.002765 31.548988 
L 331.888162 31.548988 
L 331.963457 30.839718 
L 333.029228 30.839718 
L 333.029228 30.485082 
L 335.793865 30.485082 
L 335.793865 30.130447 
L 335.959712 30.130447 
L 335.959712 29.775812 
L 336.781673 29.775812 
L 336.781673 29.421176 
L 337.486524 29.421176 
L 337.486524 29.066541 
L 337.601916 29.066541 
L 337.601916 28.711906 
L 338.381155 28.711906 
L 338.381155 28.357271 
L 339.938074 28.357271 
L 339.992324 27.648 
L 360.8064 27.648 
L 360.8064 27.648 
" style="fill: none; stroke: #6495ed; stroke-width: 1.5; stroke-linecap: square"/>
   </g>
   <g id="line2d_49">
    <defs>
     <path id="m37e8d611fe" d="M -0 6 
L 6 -6 
L -6 -6 
z
" style="stroke: #6495ed; stroke-width: 1.5; stroke-linejoin: miter"/>
    </defs>
    <g>
     <use xlink:href="#m37e8d611fe" x="161.495447" y="250.004329" style="fill-opacity: 0; stroke: #6495ed; stroke-width: 1.5; stroke-linejoin: miter"/>
     <use xlink:href="#m37e8d611fe" x="247.407906" y="201.064659" style="fill-opacity: 0; stroke: #6495ed; stroke-width: 1.5; stroke-linejoin: miter"/>
     <use xlink:href="#m37e8d611fe" x="309.23148" y="76.942306" style="fill-opacity: 0; stroke: #6495ed; stroke-width: 1.5; stroke-linejoin: miter"/>
     <use xlink:href="#m37e8d611fe" x="339.992324" y="27.648" style="fill-opacity: 0; stroke: #6495ed; stroke-width: 1.5; stroke-linejoin: miter"/>
     <use xlink:href="#m37e8d611fe" x="360.8064" y="27.648" style="fill-opacity: 0; stroke: #6495ed; stroke-width: 1.5; stroke-linejoin: miter"/>
    </g>
   </g>
   <g id="line2d_50">
    <path style="fill: none; stroke: #6495ed; stroke-width: 1.5; stroke-linecap: square"/>
    <g/>
   </g>
   <g id="line2d_51">
    <path d="M 278.684351 180.141176 
" clip-path="url(#p2972d65ee0)" style="fill: none; stroke: #6495ed; stroke-width: 1.5; stroke-linecap: square"/>
    <defs>
     <path id="m6cd673f0ea" d="M -12 12 
L 12 -12 
M -12 -12 
L 12 12 
" style="stroke: #6495ed"/>
    </defs>
    <g clip-path="url(#p2972d65ee0)">
     <use xlink:href="#m6cd673f0ea" x="278.684351" y="180.141176" style="fill: #6495ed; stroke: #6495ed"/>
    </g>
   </g>
   <g id="line2d_52">
    <defs>
     <path id="mfcf09507bd" d="M 0 1.5 
C 0.397805 1.5 0.77937 1.341951 1.06066 1.06066 
C 1.341951 0.77937 1.5 0.397805 1.5 0 
C 1.5 -0.397805 1.341951 -0.77937 1.06066 -1.06066 
C 0.77937 -1.341951 0.397805 -1.5 0 -1.5 
C -0.397805 -1.5 -0.77937 -1.341951 -1.06066 -1.06066 
C -1.341951 -0.77937 -1.5 -0.397805 -1.5 0 
C -1.5 0.397805 -1.341951 0.77937 -1.06066 1.06066 
C -0.77937 1.341951 -0.397805 1.5 0 1.5 
z
" style="stroke: #ff0000"/>
    </defs>
    <g>
     <use xlink:href="#mfcf09507bd" x="329.725771" y="27.648" style="fill: #ff0000; stroke: #ff0000"/>
     <use xlink:href="#mfcf09507bd" x="329.725771" y="27.648" style="fill: #ff0000; stroke: #ff0000"/>
    </g>
   </g>
   <g id="line2d_53">
    <path d="M -1 293.624471 
L 82.084235 293.624471 
L 82.084235 293.269835 
L 84.257212 293.269835 
L 84.257212 292.9152 
L 84.596168 292.9152 
L 84.596168 292.560565 
L 85.99825 292.560565 
L 85.99825 292.205929 
L 90.340871 292.205929 
L 90.340871 291.851294 
L 90.82951 291.851294 
L 90.82951 291.496659 
L 91.46189 291.496659 
L 91.46189 291.142024 
L 91.846598 291.142024 
L 91.846598 290.787388 
L 92.883718 290.787388 
L 92.883718 290.432753 
L 93.66029 290.432753 
L 93.729323 289.723482 
L 94.272655 289.723482 
L 94.272655 289.368847 
L 94.604437 289.368847 
L 94.604437 289.014212 
L 94.995002 289.014212 
L 94.995002 288.659576 
L 95.814395 288.659576 
L 95.875972 287.950306 
L 97.296386 287.950306 
L 97.296386 287.595671 
L 97.466628 287.595671 
L 97.466628 287.241035 
L 97.746984 287.241035 
L 97.746984 286.177129 
L 98.670102 286.177129 
L 98.670102 285.113224 
L 99.244147 285.113224 
L 99.244147 284.758588 
L 101.009023 284.758588 
L 101.102381 283.340047 
L 102.099854 283.340047 
L 102.099854 282.985412 
L 102.708132 282.985412 
L 102.793446 281.921506 
L 103.666625 281.921506 
L 103.666625 281.566871 
L 104.068596 281.566871 
L 104.068596 281.212235 
L 104.187532 281.212235 
L 104.187532 280.8576 
L 104.539892 280.8576 
L 104.539892 280.502965 
L 104.809458 280.502965 
L 104.809458 280.148329 
L 104.999667 280.148329 
L 104.999667 279.793694 
L 105.150462 279.793694 
L 105.150462 279.439059 
L 105.300058 279.439059 
L 105.300058 279.084424 
L 105.814468 279.084424 
L 105.814468 278.729788 
L 106.455833 278.729788 
L 106.455833 278.375153 
L 107.042125 278.375153 
L 107.042125 278.020518 
L 107.244765 278.020518 
L 107.31183 277.311247 
L 107.378656 277.311247 
L 107.378656 276.956612 
L 107.610695 276.956612 
L 107.610695 276.601976 
L 107.742016 276.601976 
L 107.807334 275.892706 
L 108.001938 275.892706 
L 108.001938 275.538071 
L 108.22646 275.538071 
L 108.22646 275.183435 
L 109.25026 275.183435 
L 109.25026 274.8288 
L 109.490283 274.8288 
L 109.520071 274.119529 
L 109.990385 274.119529 
L 110.019393 273.410259 
L 110.449226 273.410259 
L 110.534026 272.700988 
L 110.924785 272.700988 
L 110.924785 272.346353 
L 111.144484 272.346353 
L 111.144484 271.637082 
L 111.496112 271.637082 
L 111.576332 270.927812 
L 112.283321 270.927812 
L 112.36026 270.218541 
L 112.462359 270.218541 
L 112.462359 269.863906 
L 113.235374 269.863906 
L 113.235374 269.509271 
L 114.094935 269.509271 
L 114.164823 268.8 
L 114.578786 268.8 
L 114.669553 268.090729 
L 114.692177 268.090729 
L 114.7824 267.381459 
L 115.139028 267.381459 
L 115.20515 266.672188 
L 115.423891 266.672188 
L 115.423891 266.317553 
L 115.597071 266.317553 
L 115.597071 265.962918 
L 115.747307 265.962918 
L 115.747307 265.608282 
L 116.086263 265.608282 
L 116.086263 265.253647 
L 116.336531 265.253647 
L 116.398581 264.544376 
L 117.695068 264.544376 
L 117.733577 263.835106 
L 117.886828 263.835106 
L 117.886828 263.480471 
L 118.13323 263.480471 
L 118.152051 262.7712 
L 118.301945 262.7712 
L 118.301945 262.416565 
L 118.671535 262.416565 
L 118.671535 262.061929 
L 118.817362 262.061929 
L 118.817362 261.707294 
L 119.06987 261.707294 
L 119.141397 260.998024 
L 120.250317 260.998024 
L 120.250317 260.643388 
L 120.41783 260.643388 
L 120.41783 260.288753 
L 120.862802 260.288753 
L 120.9116 259.579482 
L 121.201758 259.579482 
L 121.201758 259.224847 
L 121.660021 259.224847 
L 121.660021 258.870212 
L 121.815489 258.870212 
L 121.86188 258.160941 
L 121.954321 258.160941 
L 121.954321 257.806306 
L 122.107385 257.806306 
L 122.213795 256.7424 
L 122.883845 256.7424 
L 122.883845 256.387765 
L 123.530848 256.387765 
L 123.530848 256.033129 
L 123.783545 256.033129 
L 123.783545 255.678494 
L 124.373813 255.678494 
L 124.373813 255.323859 
L 125.526971 255.323859 
L 125.615735 254.614588 
L 126.673395 254.614588 
L 126.673395 254.259953 
L 127.134109 254.259953 
L 127.134109 253.905318 
L 128.441306 253.905318 
L 128.441306 253.550682 
L 128.956723 253.550682 
L 128.956723 253.196047 
L 130.067235 253.196047 
L 130.067235 252.841412 
L 130.452671 252.841412 
L 130.452671 252.486776 
L 130.676331 252.486776 
L 130.676331 252.132141 
L 131.331786 252.132141 
L 131.331786 251.777506 
L 132.428795 251.777506 
L 132.428795 251.422871 
L 132.949924 251.422871 
L 132.949924 250.7136 
L 133.111983 250.7136 
L 133.111983 250.358965 
L 134.376412 250.358965 
L 134.479359 249.649694 
L 135.070183 249.649694 
L 135.070183 249.295059 
L 136.046948 249.295059 
L 136.046948 248.585788 
L 137.01694 248.585788 
L 137.01694 248.231153 
L 138.057259 248.231153 
L 138.057259 247.876518 
L 138.661234 247.876518 
L 138.661234 247.521882 
L 139.307614 247.521882 
L 139.405115 246.812612 
L 140.28962 246.812612 
L 140.28962 246.457976 
L 140.668505 246.457976 
L 140.668505 246.103341 
L 140.781828 246.103341 
L 140.781828 245.748706 
L 141.387718 245.748706 
L 141.387718 245.394071 
L 141.65386 245.394071 
L 141.65386 244.6848 
L 142.47693 244.6848 
L 142.47693 244.330165 
L 142.996254 244.330165 
L 142.996254 243.975529 
L 143.555323 243.975529 
L 143.633158 243.266259 
L 143.922201 243.266259 
L 143.922201 242.911624 
L 144.579851 242.911624 
L 144.579851 242.556988 
L 145.246498 242.556988 
L 145.330965 241.847718 
L 146.010502 241.847718 
L 146.010502 241.493082 
L 159.541606 241.493082 
L 159.541606 241.138447 
L 159.676576 241.138447 
L 159.676576 240.783812 
L 159.957918 240.783812 
L 159.97829 239.719906 
L 160.29327 239.719906 
L 160.29327 239.365271 
L 160.48055 239.365271 
L 160.567577 237.946729 
L 160.728696 237.946729 
L 160.787299 237.237459 
L 161.043005 237.237459 
L 161.091045 236.528188 
L 161.331318 236.528188 
L 161.344577 235.818918 
L 161.467251 235.818918 
L 161.469132 235.109647 
L 161.587261 235.109647 
L 161.613412 234.400376 
L 161.712082 234.400376 
L 161.776959 233.691106 
L 161.966595 233.691106 
L 161.966595 232.981835 
L 162.370732 232.981835 
L 162.370732 232.6272 
L 162.667795 232.6272 
L 162.710104 231.563294 
L 162.913266 231.563294 
L 162.913266 231.208659 
L 163.318239 231.208659 
L 163.377815 230.144753 
L 163.669551 230.144753 
L 163.669551 229.435482 
L 164.037409 229.435482 
L 164.125811 228.726212 
L 164.43038 228.726212 
L 164.459284 228.016941 
L 164.619057 228.016941 
L 164.619057 227.662306 
L 164.904839 227.662306 
L 164.904839 227.307671 
L 165.056225 227.307671 
L 165.112101 226.243765 
L 165.359979 226.243765 
L 165.359979 225.889129 
L 165.506243 225.889129 
L 165.506243 225.534494 
L 165.648366 225.534494 
L 165.648366 225.179859 
L 165.913101 225.179859 
L 165.913101 224.825224 
L 166.069877 224.825224 
L 166.07724 224.115953 
L 166.200508 224.115953 
L 166.200508 223.406682 
L 166.538263 223.406682 
L 166.538263 223.052047 
L 166.704181 223.052047 
L 166.704181 222.342776 
L 167.013488 222.342776 
L 167.013488 221.988141 
L 167.222446 221.988141 
L 167.298486 221.278871 
L 167.422255 221.278871 
L 167.422255 220.924235 
L 177.400326 220.924235 
L 177.400326 220.5696 
L 178.375431 220.5696 
L 178.375431 220.214965 
L 191.153218 220.214965 
L 191.153218 219.860329 
L 191.385102 219.860329 
L 191.434887 219.151059 
L 191.518077 219.151059 
L 191.591041 218.441788 
L 191.666368 218.441788 
L 191.666368 218.087153 
L 191.787995 218.087153 
L 191.87151 217.023247 
L 192.211453 217.023247 
L 192.231626 215.959341 
L 192.372964 215.959341 
L 192.472033 215.250071 
L 192.609786 215.250071 
L 192.711193 214.186165 
L 192.823071 214.186165 
L 192.823071 213.831529 
L 193.019908 213.831529 
L 193.019908 213.476894 
L 193.155118 213.476894 
L 193.173607 212.767624 
L 193.310144 212.767624 
L 193.310144 212.058353 
L 193.462872 212.058353 
L 193.504031 211.349082 
L 193.596651 211.349082 
L 193.596651 210.994447 
L 193.7156 210.994447 
L 193.816624 210.285176 
L 193.858362 210.285176 
L 193.956283 209.575906 
L 194.007722 209.575906 
L 194.075313 208.866635 
L 194.162523 208.866635 
L 194.189631 208.157365 
L 194.285847 208.157365 
L 194.31442 207.448094 
L 194.445231 207.448094 
L 194.537882 206.738824 
L 194.604245 206.738824 
L 194.663933 206.029553 
L 194.884579 206.029553 
L 194.884579 205.674918 
L 202.686406 205.674918 
L 202.686406 205.320282 
L 203.298579 205.320282 
L 203.298579 204.965647 
L 203.588637 204.965647 
L 203.588637 204.611012 
L 204.207721 204.611012 
L 204.207721 204.256376 
L 250.960606 204.256376 
L 250.960606 203.901741 
L 251.098972 203.901741 
L 251.098972 203.547106 
L 264.607557 203.547106 
L 264.69885 202.4832 
L 264.724525 202.4832 
L 264.819298 197.872941 
L 264.98398 197.872941 
L 265.092945 192.553412 
L 265.096908 192.553412 
L 265.207238 188.652424 
L 265.210616 188.652424 
L 265.31907 184.042165 
L 265.33846 184.042165 
L 265.438116 175.885553 
L 265.461442 175.885553 
L 265.464364 174.821647 
L 265.606653 174.821647 
L 265.710421 169.856753 
L 265.720538 169.856753 
L 265.765018 167.374306 
L 265.847602 167.374306 
L 265.870192 165.601129 
L 266.136675 165.601129 
L 266.182211 164.182588 
L 277.696135 164.182588 
L 277.746763 162.409412 
L 277.846397 162.409412 
L 277.949573 159.217694 
L 277.970053 159.217694 
L 278.080674 153.543529 
L 278.082019 153.543529 
L 278.190356 150.351812 
L 278.196194 150.351812 
L 278.300784 143.259106 
L 278.312613 143.259106 
L 278.406718 137.230306 
L 278.436151 137.230306 
L 278.509464 134.393224 
L 278.556734 134.393224 
L 278.648779 130.492235 
L 278.699414 130.492235 
L 278.806204 128.719059 
L 285.40823 128.719059 
L 285.501591 128.009788 
L 285.526836 128.009788 
L 285.584825 125.527341 
L 285.674537 125.527341 
L 285.772191 121.271718 
L 285.790234 121.271718 
L 285.89675 116.661459 
L 285.905142 116.661459 
L 286.015729 112.760471 
L 286.058558 112.760471 
L 286.158934 110.987294 
L 286.17702 110.987294 
L 286.244067 109.923388 
L 286.402178 109.923388 
L 286.402178 109.568753 
L 290.891163 109.568753 
L 290.994629 108.859482 
L 291.006023 108.859482 
L 291.112552 104.249224 
L 291.124342 104.249224 
L 291.228396 100.348235 
L 291.244565 100.348235 
L 291.342251 96.092612 
L 291.36065 96.092612 
L 291.432356 93.610165 
L 291.527698 93.610165 
L 291.539221 92.900894 
L 295.156423 92.900894 
L 295.239528 91.836988 
L 295.274606 91.836988 
L 295.381309 89.354541 
L 295.386269 89.354541 
L 295.492632 84.035012 
L 295.501761 84.035012 
L 295.586768 80.843294 
L 295.612935 80.843294 
L 295.674887 79.424753 
L 298.689134 79.424753 
L 298.792808 76.942306 
L 298.801331 76.942306 
L 298.896986 74.459859 
L 298.914218 74.459859 
L 299.025255 71.268141 
L 299.069774 71.268141 
L 299.128681 70.204235 
L 301.584109 70.204235 
L 301.664446 69.140329 
L 301.704936 69.140329 
L 301.814953 64.175435 
L 301.816563 64.175435 
L 301.8232 63.466165 
L 301.937147 63.466165 
L 301.973673 62.402259 
L 302.060527 62.402259 
L 302.064816 61.692988 
L 303.977858 61.692988 
L 304.025391 60.983718 
L 304.10798 60.983718 
L 304.210749 57.437365 
L 304.230263 57.437365 
L 304.326139 56.018824 
L 304.349462 56.018824 
L 304.430166 53.891012 
L 304.475952 53.891012 
L 304.516596 52.827106 
L 306.291411 52.827106 
L 306.401605 51.053929 
L 306.42197 51.053929 
L 306.512228 49.990024 
L 306.541952 49.990024 
L 306.609122 48.216847 
L 306.656046 48.216847 
L 306.692753 47.507576 
L 308.375726 47.507576 
L 308.483561 46.089035 
L 308.524577 46.089035 
L 308.56553 45.379765 
L 310.035319 45.379765 
L 310.144153 43.606588 
L 310.147344 43.606588 
L 310.245246 41.478776 
L 310.318691 41.478776 
L 310.324382 40.060235 
L 311.728495 40.060235 
L 311.833987 39.350965 
L 311.852221 39.350965 
L 311.909471 37.223153 
L 312.025833 37.223153 
L 312.025833 36.868518 
L 313.207603 36.868518 
L 313.28056 35.804612 
L 313.462844 35.804612 
L 313.509953 34.740706 
L 314.692143 34.740706 
L 314.714831 34.031435 
L 314.825164 34.031435 
L 314.845595 33.322165 
L 316.02298 33.322165 
L 316.120109 31.194353 
L 317.197433 31.194353 
L 317.197433 30.839718 
L 319.47956 30.839718 
L 319.558497 29.421176 
L 321.4588 29.421176 
L 321.4588 29.066541 
L 325.540994 29.066541 
L 325.628318 28.357271 
L 325.735667 28.357271 
L 325.735667 28.002635 
L 329.725771 28.002635 
L 329.725771 27.648 
L 360.8064 27.648 
L 360.8064 27.648 
" style="fill: none; stroke: #ff0000; stroke-width: 1.5; stroke-linecap: square"/>
   </g>
   <g id="line2d_54">
    <defs>
     <path id="m805987a6a9" d="M 0 -6 
L -5.196152 -3 
L -5.196152 3 
L -0 6 
L 5.196152 3 
L 5.196152 -3 
z
" style="stroke: #ff0000; stroke-width: 1.5; stroke-linejoin: miter"/>
    </defs>
    <g>
     <use xlink:href="#m805987a6a9" x="162.667795" y="232.6272" style="fill-opacity: 0; stroke: #ff0000; stroke-width: 1.5; stroke-linejoin: miter"/>
     <use xlink:href="#m805987a6a9" x="265.096908" y="192.553412" style="fill-opacity: 0; stroke: #ff0000; stroke-width: 1.5; stroke-linejoin: miter"/>
     <use xlink:href="#m805987a6a9" x="304.478355" y="53.181741" style="fill-opacity: 0; stroke: #ff0000; stroke-width: 1.5; stroke-linejoin: miter"/>
     <use xlink:href="#m805987a6a9" x="329.725771" y="27.648" style="fill-opacity: 0; stroke: #ff0000; stroke-width: 1.5; stroke-linejoin: miter"/>
     <use xlink:href="#m805987a6a9" x="360.8064" y="27.648" style="fill-opacity: 0; stroke: #ff0000; stroke-width: 1.5; stroke-linejoin: miter"/>
    </g>
   </g>
   <g id="line2d_55">
    <path style="fill: none; stroke: #ff0000; stroke-width: 1.5; stroke-linecap: square"/>
    <g/>
   </g>
   <g id="line2d_56">
    <path d="M 265.192664 189.007059 
" clip-path="url(#p2972d65ee0)" style="fill: none; stroke: #ff0000; stroke-width: 1.5; stroke-linecap: square"/>
    <defs>
     <path id="mfae3b41f61" d="M -12 12 
L 12 -12 
M -12 -12 
L 12 12 
" style="stroke: #ff0000"/>
    </defs>
    <g clip-path="url(#p2972d65ee0)">
     <use xlink:href="#mfae3b41f61" x="265.192664" y="189.007059" style="fill: #ff0000; stroke: #ff0000"/>
    </g>
   </g>
   <g id="line2d_57">
    <path d="M 360.8064 27.648 
L 380.514816 293.51808 
" style="fill: none; stroke: #6495ed; stroke-width: 1.5; stroke-linecap: square"/>
    <g>
     <use xlink:href="#m37e8d611fe" x="360.8064" y="27.648" style="fill-opacity: 0; stroke: #6495ed; stroke-width: 1.5; stroke-linejoin: miter"/>
     <use xlink:href="#m37e8d611fe" x="380.514816" y="293.51808" style="fill-opacity: 0; stroke: #6495ed; stroke-width: 1.5; stroke-linejoin: miter"/>
    </g>
   </g>
   <g id="line2d_58">
    <path d="M 360.8064 27.648 
L 380.514816 241.429248 
" style="fill: none; stroke: #ff0000; stroke-width: 1.5; stroke-linecap: square"/>
    <g>
     <use xlink:href="#m805987a6a9" x="360.8064" y="27.648" style="fill-opacity: 0; stroke: #ff0000; stroke-width: 1.5; stroke-linejoin: miter"/>
     <use xlink:href="#m805987a6a9" x="380.514816" y="241.429248" style="fill-opacity: 0; stroke: #ff0000; stroke-width: 1.5; stroke-linejoin: miter"/>
    </g>
   </g>
   <g id="line2d_59">
    <path d="M 360.8064 27.648 
L 380.514816 189.340416 
" style="fill: none; stroke: #ff7500; stroke-width: 1.5; stroke-linecap: square"/>
    <g>
     <use xlink:href="#m86ec9ebe70" x="360.8064" y="27.648" style="fill-opacity: 0; stroke: #ff7500; stroke-width: 1.5; stroke-linejoin: bevel"/>
     <use xlink:href="#m86ec9ebe70" x="380.514816" y="189.340416" style="fill-opacity: 0; stroke: #ff7500; stroke-width: 1.5; stroke-linejoin: bevel"/>
    </g>
   </g>
   <g id="line2d_60">
    <path d="M 360.8064 27.648 
L 380.514816 137.251584 
" style="fill: none; stroke: #ff00ff; stroke-width: 1.5; stroke-linecap: square"/>
    <g>
     <use xlink:href="#m545ff943ac" x="360.8064" y="27.648" style="fill-opacity: 0; stroke: #ff00ff; stroke-width: 1.5; stroke-linejoin: miter"/>
     <use xlink:href="#m545ff943ac" x="380.514816" y="137.251584" style="fill-opacity: 0; stroke: #ff00ff; stroke-width: 1.5; stroke-linejoin: miter"/>
    </g>
   </g>
   <g id="line2d_61">
    <path d="M 360.8064 27.648 
L 380.514816 85.162752 
" style="fill: none; stroke: #000080; stroke-width: 1.5; stroke-linecap: square"/>
    <g>
     <use xlink:href="#m43d5bd186f" x="360.8064" y="27.648" style="fill-opacity: 0; stroke: #000080; stroke-width: 1.5"/>
     <use xlink:href="#m43d5bd186f" x="380.514816" y="85.162752" style="fill-opacity: 0; stroke: #000080; stroke-width: 1.5"/>
    </g>
   </g>
   <g id="line2d_62">
    <path d="M 360.8064 298.944 
L 360.8064 27.648 
" style="fill: none; stroke: #000000; stroke-width: 1.5; stroke-linecap: square"/>
   </g>
   <g id="patch_3">
    <path d="M 57.6 298.944 
L 360.8064 298.944 
" style="fill: none; stroke: #000000; stroke-width: 0.8; stroke-linejoin: miter; stroke-linecap: square"/>
   </g>
   <g id="patch_4">
    <path d="M 57.6 27.648 
L 360.8064 27.648 
" style="fill: none; stroke: #000000; stroke-width: 0.8; stroke-linejoin: miter; stroke-linecap: square"/>
   </g>
   <g id="text_13">
    <!-- ddcma1R -->
    <g transform="translate(386.578944 297.381205)scale(0.14 -0.14)">
     <defs>
      <path id="DejaVuSans-52" d="M 2841 2188 
Q 3044 2119 3236 1894 
Q 3428 1669 3622 1275 
L 4263 0 
L 3584 0 
L 2988 1197 
Q 2756 1666 2539 1819 
Q 2322 1972 1947 1972 
L 1259 1972 
L 1259 0 
L 628 0 
L 628 4666 
L 2053 4666 
Q 2853 4666 3247 4331 
Q 3641 3997 3641 3322 
Q 3641 2881 3436 2590 
Q 3231 2300 2841 2188 
z
M 1259 4147 
L 1259 2491 
L 2053 2491 
Q 2509 2491 2742 2702 
Q 2975 2913 2975 3322 
Q 2975 3731 2742 3939 
Q 2509 4147 2053 4147 
L 1259 4147 
z
" transform="scale(0.015625)"/>
     </defs>
     <use xlink:href="#DejaVuSans-64"/>
     <use xlink:href="#DejaVuSans-64" x="63.476562"/>
     <use xlink:href="#DejaVuSans-63" x="126.953125"/>
     <use xlink:href="#DejaVuSans-6d" x="181.933594"/>
     <use xlink:href="#DejaVuSans-61" x="279.345703"/>
     <use xlink:href="#DejaVuSans-31" x="340.625"/>
     <use xlink:href="#DejaVuSans-52" x="404.248047"/>
    </g>
   </g>
   <g id="text_14">
    <!-- CMA-ES-2019  -->
    <g transform="translate(386.578944 245.292373)scale(0.14 -0.14)">
     <defs>
      <path id="DejaVuSans-43" d="M 4122 4306 
L 4122 3641 
Q 3803 3938 3442 4084 
Q 3081 4231 2675 4231 
Q 1875 4231 1450 3742 
Q 1025 3253 1025 2328 
Q 1025 1406 1450 917 
Q 1875 428 2675 428 
Q 3081 428 3442 575 
Q 3803 722 4122 1019 
L 4122 359 
Q 3791 134 3420 21 
Q 3050 -91 2638 -91 
Q 1578 -91 968 557 
Q 359 1206 359 2328 
Q 359 3453 968 4101 
Q 1578 4750 2638 4750 
Q 3056 4750 3426 4639 
Q 3797 4528 4122 4306 
z
" transform="scale(0.015625)"/>
      <path id="DejaVuSans-4d" d="M 628 4666 
L 1569 4666 
L 2759 1491 
L 3956 4666 
L 4897 4666 
L 4897 0 
L 4281 0 
L 4281 4097 
L 3078 897 
L 2444 897 
L 1241 4097 
L 1241 0 
L 628 0 
L 628 4666 
z
" transform="scale(0.015625)"/>
      <path id="DejaVuSans-41" d="M 2188 4044 
L 1331 1722 
L 3047 1722 
L 2188 4044 
z
M 1831 4666 
L 2547 4666 
L 4325 0 
L 3669 0 
L 3244 1197 
L 1141 1197 
L 716 0 
L 50 0 
L 1831 4666 
z
" transform="scale(0.015625)"/>
      <path id="DejaVuSans-45" d="M 628 4666 
L 3578 4666 
L 3578 4134 
L 1259 4134 
L 1259 2753 
L 3481 2753 
L 3481 2222 
L 1259 2222 
L 1259 531 
L 3634 531 
L 3634 0 
L 628 0 
L 628 4666 
z
" transform="scale(0.015625)"/>
      <path id="DejaVuSans-53" d="M 3425 4513 
L 3425 3897 
Q 3066 4069 2747 4153 
Q 2428 4238 2131 4238 
Q 1616 4238 1336 4038 
Q 1056 3838 1056 3469 
Q 1056 3159 1242 3001 
Q 1428 2844 1947 2747 
L 2328 2669 
Q 3034 2534 3370 2195 
Q 3706 1856 3706 1288 
Q 3706 609 3251 259 
Q 2797 -91 1919 -91 
Q 1588 -91 1214 -16 
Q 841 59 441 206 
L 441 856 
Q 825 641 1194 531 
Q 1563 422 1919 422 
Q 2459 422 2753 634 
Q 3047 847 3047 1241 
Q 3047 1584 2836 1778 
Q 2625 1972 2144 2069 
L 1759 2144 
Q 1053 2284 737 2584 
Q 422 2884 422 3419 
Q 422 4038 858 4394 
Q 1294 4750 2059 4750 
Q 2388 4750 2728 4690 
Q 3069 4631 3425 4513 
z
" transform="scale(0.015625)"/>
      <path id="DejaVuSans-39" d="M 703 97 
L 703 672 
Q 941 559 1184 500 
Q 1428 441 1663 441 
Q 2288 441 2617 861 
Q 2947 1281 2994 2138 
Q 2813 1869 2534 1725 
Q 2256 1581 1919 1581 
Q 1219 1581 811 2004 
Q 403 2428 403 3163 
Q 403 3881 828 4315 
Q 1253 4750 1959 4750 
Q 2769 4750 3195 4129 
Q 3622 3509 3622 2328 
Q 3622 1225 3098 567 
Q 2575 -91 1691 -91 
Q 1453 -91 1209 -44 
Q 966 3 703 97 
z
M 1959 2075 
Q 2384 2075 2632 2365 
Q 2881 2656 2881 3163 
Q 2881 3666 2632 3958 
Q 2384 4250 1959 4250 
Q 1534 4250 1286 3958 
Q 1038 3666 1038 3163 
Q 1038 2656 1286 2365 
Q 1534 2075 1959 2075 
z
" transform="scale(0.015625)"/>
     </defs>
     <use xlink:href="#DejaVuSans-43"/>
     <use xlink:href="#DejaVuSans-4d" x="69.824219"/>
     <use xlink:href="#DejaVuSans-41" x="156.103516"/>
     <use xlink:href="#DejaVuSans-2d" x="222.261719"/>
     <use xlink:href="#DejaVuSans-45" x="258.345703"/>
     <use xlink:href="#DejaVuSans-53" x="321.529297"/>
     <use xlink:href="#DejaVuSans-2d" x="385.005859"/>
     <use xlink:href="#DejaVuSans-32" x="421.089844"/>
     <use xlink:href="#DejaVuSans-30" x="484.712891"/>
     <use xlink:href="#DejaVuSans-31" x="548.335938"/>
     <use xlink:href="#DejaVuSans-39" x="611.958984"/>
     <use xlink:href="#DejaVuSans-20" x="675.582031"/>
    </g>
   </g>
   <g id="text_15">
    <!-- ddcma0R -->
    <g transform="translate(386.578944 193.203541)scale(0.14 -0.14)">
     <use xlink:href="#DejaVuSans-64"/>
     <use xlink:href="#DejaVuSans-64" x="63.476562"/>
     <use xlink:href="#DejaVuSans-63" x="126.953125"/>
     <use xlink:href="#DejaVuSans-6d" x="181.933594"/>
     <use xlink:href="#DejaVuSans-61" x="279.345703"/>
     <use xlink:href="#DejaVuSans-30" x="340.625"/>
     <use xlink:href="#DejaVuSans-52" x="404.248047"/>
    </g>
   </g>
   <g id="text_16">
    <!-- old-ddcma1R -->
    <g transform="translate(386.578944 141.114709)scale(0.14 -0.14)">
     <use xlink:href="#DejaVuSans-6f"/>
     <use xlink:href="#DejaVuSans-6c" x="61.181641"/>
     <use xlink:href="#DejaVuSans-64" x="88.964844"/>
     <use xlink:href="#DejaVuSans-2d" x="152.441406"/>
     <use xlink:href="#DejaVuSans-64" x="188.525391"/>
     <use xlink:href="#DejaVuSans-64" x="252.001953"/>
     <use xlink:href="#DejaVuSans-63" x="315.478516"/>
     <use xlink:href="#DejaVuSans-6d" x="370.458984"/>
     <use xlink:href="#DejaVuSans-61" x="467.871094"/>
     <use xlink:href="#DejaVuSans-31" x="529.150391"/>
     <use xlink:href="#DejaVuSans-52" x="592.773438"/>
    </g>
   </g>
   <g id="text_17">
    <!-- old-ddcma0R -->
    <g transform="translate(386.578944 89.025877)scale(0.14 -0.14)">
     <use xlink:href="#DejaVuSans-6f"/>
     <use xlink:href="#DejaVuSans-6c" x="61.181641"/>
     <use xlink:href="#DejaVuSans-64" x="88.964844"/>
     <use xlink:href="#DejaVuSans-2d" x="152.441406"/>
     <use xlink:href="#DejaVuSans-64" x="188.525391"/>
     <use xlink:href="#DejaVuSans-64" x="252.001953"/>
     <use xlink:href="#DejaVuSans-63" x="315.478516"/>
     <use xlink:href="#DejaVuSans-6d" x="370.458984"/>
     <use xlink:href="#DejaVuSans-61" x="467.871094"/>
     <use xlink:href="#DejaVuSans-30" x="529.150391"/>
     <use xlink:href="#DejaVuSans-52" x="592.773438"/>
    </g>
   </g>
   <g id="text_18">
    <!-- best 2009 -->
    <g transform="translate(386.578944 36.937045)scale(0.14 -0.14)">
     <defs>
      <path id="DejaVuSans-62" d="M 3116 1747 
Q 3116 2381 2855 2742 
Q 2594 3103 2138 3103 
Q 1681 3103 1420 2742 
Q 1159 2381 1159 1747 
Q 1159 1113 1420 752 
Q 1681 391 2138 391 
Q 2594 391 2855 752 
Q 3116 1113 3116 1747 
z
M 1159 2969 
Q 1341 3281 1617 3432 
Q 1894 3584 2278 3584 
Q 2916 3584 3314 3078 
Q 3713 2572 3713 1747 
Q 3713 922 3314 415 
Q 2916 -91 2278 -91 
Q 1894 -91 1617 61 
Q 1341 213 1159 525 
L 1159 0 
L 581 0 
L 581 4863 
L 1159 4863 
L 1159 2969 
z
" transform="scale(0.015625)"/>
     </defs>
     <use xlink:href="#DejaVuSans-62"/>
     <use xlink:href="#DejaVuSans-65" x="63.476562"/>
     <use xlink:href="#DejaVuSans-73" x="125"/>
     <use xlink:href="#DejaVuSans-74" x="177.099609"/>
     <use xlink:href="#DejaVuSans-20" x="216.308594"/>
     <use xlink:href="#DejaVuSans-32" x="248.095703"/>
     <use xlink:href="#DejaVuSans-30" x="311.71875"/>
     <use xlink:href="#DejaVuSans-30" x="375.341797"/>
     <use xlink:href="#DejaVuSans-39" x="438.964844"/>
    </g>
   </g>
   <g id="text_19">
    <!-- bbob f21, 40-D -->
    <g transform="translate(60.632064 38.111366)scale(0.102 -0.102)">
     <defs>
      <path id="DejaVuSans-44" d="M 1259 4147 
L 1259 519 
L 2022 519 
Q 2988 519 3436 956 
Q 3884 1394 3884 2338 
Q 3884 3275 3436 3711 
Q 2988 4147 2022 4147 
L 1259 4147 
z
M 628 4666 
L 1925 4666 
Q 3281 4666 3915 4102 
Q 4550 3538 4550 2338 
Q 4550 1131 3912 565 
Q 3275 0 1925 0 
L 628 0 
L 628 4666 
z
" transform="scale(0.015625)"/>
     </defs>
     <use xlink:href="#DejaVuSans-62"/>
     <use xlink:href="#DejaVuSans-62" x="63.476562"/>
     <use xlink:href="#DejaVuSans-6f" x="126.953125"/>
     <use xlink:href="#DejaVuSans-62" x="188.134766"/>
     <use xlink:href="#DejaVuSans-20" x="251.611328"/>
     <use xlink:href="#DejaVuSans-66" x="283.398438"/>
     <use xlink:href="#DejaVuSans-32" x="318.603516"/>
     <use xlink:href="#DejaVuSans-31" x="382.226562"/>
     <use xlink:href="#DejaVuSans-2c" x="445.849609"/>
     <use xlink:href="#DejaVuSans-20" x="477.636719"/>
     <use xlink:href="#DejaVuSans-34" x="509.423828"/>
     <use xlink:href="#DejaVuSans-30" x="573.046875"/>
     <use xlink:href="#DejaVuSans-2d" x="636.669922"/>
     <use xlink:href="#DejaVuSans-44" x="672.753906"/>
    </g>
    <!-- 51 targets: 100..1e-08 -->
    <g transform="translate(60.632064 49.533135)scale(0.102 -0.102)">
     <defs>
      <path id="DejaVuSans-35" d="M 691 4666 
L 3169 4666 
L 3169 4134 
L 1269 4134 
L 1269 2991 
Q 1406 3038 1543 3061 
Q 1681 3084 1819 3084 
Q 2600 3084 3056 2656 
Q 3513 2228 3513 1497 
Q 3513 744 3044 326 
Q 2575 -91 1722 -91 
Q 1428 -91 1123 -41 
Q 819 9 494 109 
L 494 744 
Q 775 591 1075 516 
Q 1375 441 1709 441 
Q 2250 441 2565 725 
Q 2881 1009 2881 1497 
Q 2881 1984 2565 2268 
Q 2250 2553 1709 2553 
Q 1456 2553 1204 2497 
Q 953 2441 691 2322 
L 691 4666 
z
" transform="scale(0.015625)"/>
      <path id="DejaVuSans-3a" d="M 750 794 
L 1409 794 
L 1409 0 
L 750 0 
L 750 794 
z
M 750 3309 
L 1409 3309 
L 1409 2516 
L 750 2516 
L 750 3309 
z
" transform="scale(0.015625)"/>
     </defs>
     <use xlink:href="#DejaVuSans-35"/>
     <use xlink:href="#DejaVuSans-31" x="63.623047"/>
     <use xlink:href="#DejaVuSans-20" x="127.246094"/>
     <use xlink:href="#DejaVuSans-74" x="159.033203"/>
     <use xlink:href="#DejaVuSans-61" x="198.242188"/>
     <use xlink:href="#DejaVuSans-72" x="259.521484"/>
     <use xlink:href="#DejaVuSans-67" x="298.884766"/>
     <use xlink:href="#DejaVuSans-65" x="362.361328"/>
     <use xlink:href="#DejaVuSans-74" x="423.884766"/>
     <use xlink:href="#DejaVuSans-73" x="463.09375"/>
     <use xlink:href="#DejaVuSans-3a" x="515.193359"/>
     <use xlink:href="#DejaVuSans-20" x="548.884766"/>
     <use xlink:href="#DejaVuSans-31" x="580.671875"/>
     <use xlink:href="#DejaVuSans-30" x="644.294922"/>
     <use xlink:href="#DejaVuSans-30" x="707.917969"/>
     <use xlink:href="#DejaVuSans-2e" x="771.541016"/>
     <use xlink:href="#DejaVuSans-2e" x="803.328125"/>
     <use xlink:href="#DejaVuSans-31" x="835.115234"/>
     <use xlink:href="#DejaVuSans-65" x="898.738281"/>
     <use xlink:href="#DejaVuSans-2d" x="960.261719"/>
     <use xlink:href="#DejaVuSans-30" x="996.345703"/>
     <use xlink:href="#DejaVuSans-38" x="1059.96875"/>
    </g>
    <!-- 5, 15 instances -->
    <g transform="translate(60.632064 60.954904)scale(0.102 -0.102)">
     <use xlink:href="#DejaVuSans-35"/>
     <use xlink:href="#DejaVuSans-2c" x="63.623047"/>
     <use xlink:href="#DejaVuSans-20" x="95.410156"/>
     <use xlink:href="#DejaVuSans-31" x="127.197266"/>
     <use xlink:href="#DejaVuSans-35" x="190.820312"/>
     <use xlink:href="#DejaVuSans-20" x="254.443359"/>
     <use xlink:href="#DejaVuSans-69" x="286.230469"/>
     <use xlink:href="#DejaVuSans-6e" x="314.013672"/>
     <use xlink:href="#DejaVuSans-73" x="377.392578"/>
     <use xlink:href="#DejaVuSans-74" x="429.492188"/>
     <use xlink:href="#DejaVuSans-61" x="468.701172"/>
     <use xlink:href="#DejaVuSans-6e" x="529.980469"/>
     <use xlink:href="#DejaVuSans-63" x="593.359375"/>
     <use xlink:href="#DejaVuSans-65" x="648.339844"/>
     <use xlink:href="#DejaVuSans-73" x="709.863281"/>
    </g>
   </g>
   <g id="text_20">
    <!-- v2.6 -->
    <g style="fill: #808080" transform="translate(198.292262 294.151352)scale(0.1 -0.1)">
     <use xlink:href="#DejaVuSans-76"/>
     <use xlink:href="#DejaVuSans-32" x="59.179688"/>
     <use xlink:href="#DejaVuSans-2e" x="122.802734"/>
     <use xlink:href="#DejaVuSans-36" x="154.589844"/>
    </g>
   </g>
   <g id="text_21">
    <!-- 21 Gallagher 101 peaks -->
    <g transform="translate(89.7157 21.648)scale(0.2 -0.2)">
     <defs>
      <path id="DejaVuSans-47" d="M 3809 666 
L 3809 1919 
L 2778 1919 
L 2778 2438 
L 4434 2438 
L 4434 434 
Q 4069 175 3628 42 
Q 3188 -91 2688 -91 
Q 1594 -91 976 548 
Q 359 1188 359 2328 
Q 359 3472 976 4111 
Q 1594 4750 2688 4750 
Q 3144 4750 3555 4637 
Q 3966 4525 4313 4306 
L 4313 3634 
Q 3963 3931 3569 4081 
Q 3175 4231 2741 4231 
Q 1884 4231 1454 3753 
Q 1025 3275 1025 2328 
Q 1025 1384 1454 906 
Q 1884 428 2741 428 
Q 3075 428 3337 486 
Q 3600 544 3809 666 
z
" transform="scale(0.015625)"/>
      <path id="DejaVuSans-68" d="M 3513 2113 
L 3513 0 
L 2938 0 
L 2938 2094 
Q 2938 2591 2744 2837 
Q 2550 3084 2163 3084 
Q 1697 3084 1428 2787 
Q 1159 2491 1159 1978 
L 1159 0 
L 581 0 
L 581 4863 
L 1159 4863 
L 1159 2956 
Q 1366 3272 1645 3428 
Q 1925 3584 2291 3584 
Q 2894 3584 3203 3211 
Q 3513 2838 3513 2113 
z
" transform="scale(0.015625)"/>
      <path id="DejaVuSans-6b" d="M 581 4863 
L 1159 4863 
L 1159 1991 
L 2875 3500 
L 3609 3500 
L 1753 1863 
L 3688 0 
L 2938 0 
L 1159 1709 
L 1159 0 
L 581 0 
L 581 4863 
z
" transform="scale(0.015625)"/>
     </defs>
     <use xlink:href="#DejaVuSans-32"/>
     <use xlink:href="#DejaVuSans-31" x="63.623047"/>
     <use xlink:href="#DejaVuSans-20" x="127.246094"/>
     <use xlink:href="#DejaVuSans-47" x="159.033203"/>
     <use xlink:href="#DejaVuSans-61" x="236.523438"/>
     <use xlink:href="#DejaVuSans-6c" x="297.802734"/>
     <use xlink:href="#DejaVuSans-6c" x="325.585938"/>
     <use xlink:href="#DejaVuSans-61" x="353.369141"/>
     <use xlink:href="#DejaVuSans-67" x="414.648438"/>
     <use xlink:href="#DejaVuSans-68" x="478.125"/>
     <use xlink:href="#DejaVuSans-65" x="541.503906"/>
     <use xlink:href="#DejaVuSans-72" x="603.027344"/>
     <use xlink:href="#DejaVuSans-20" x="644.140625"/>
     <use xlink:href="#DejaVuSans-31" x="675.927734"/>
     <use xlink:href="#DejaVuSans-30" x="739.550781"/>
     <use xlink:href="#DejaVuSans-31" x="803.173828"/>
     <use xlink:href="#DejaVuSans-20" x="866.796875"/>
     <use xlink:href="#DejaVuSans-70" x="898.583984"/>
     <use xlink:href="#DejaVuSans-65" x="962.060547"/>
     <use xlink:href="#DejaVuSans-61" x="1023.583984"/>
     <use xlink:href="#DejaVuSans-6b" x="1084.863281"/>
     <use xlink:href="#DejaVuSans-73" x="1142.773438"/>
    </g>
   </g>
  </g>
 </g>
 <defs>
  <clipPath id="p2972d65ee0">
   <rect x="57.6" y="27.648" width="303.2064" height="271.296"/>
  </clipPath>
 </defs>
</svg>
