<?xml version="1.0" encoding="utf-8" standalone="no"?>
<!DOCTYPE svg PUBLIC "-//W3C//DTD SVG 1.1//EN"
  "http://www.w3.org/Graphics/SVG/1.1/DTD/svg11.dtd">
<svg xmlns:xlink="http://www.w3.org/1999/xlink" width="460.8pt" height="345.6pt" viewBox="0 0 460.8 345.6" xmlns="http://www.w3.org/2000/svg" version="1.1">
 <metadata>
  <rdf:RDF xmlns:dc="http://purl.org/dc/elements/1.1/" xmlns:cc="http://creativecommons.org/ns#" xmlns:rdf="http://www.w3.org/1999/02/22-rdf-syntax-ns#">
   <cc:Work>
    <dc:type rdf:resource="http://purl.org/dc/dcmitype/StillImage"/>
    <dc:date>2022-03-23T01:02:27.500239</dc:date>
    <dc:format>image/svg+xml</dc:format>
    <dc:creator>
     <cc:Agent>
      <dc:title>Matplotlib v3.5.1, https://matplotlib.org/</dc:title>
     </cc:Agent>
    </dc:creator>
   </cc:Work>
  </rdf:RDF>
 </metadata>
 <defs>
  <style type="text/css">*{stroke-linejoin: round; stroke-linecap: butt}</style>
 </defs>
 <g id="figure_1">
  <g id="patch_1">
   <path d="M 0 345.6 
L 460.8 345.6 
L 460.8 0 
L 0 0 
z
" style="fill: #ffffff"/>
  </g>
  <g id="axes_1">
   <g id="patch_2">
    <path d="M 57.6 298.944 
L 360.8064 298.944 
L 360.8064 27.648 
L 57.6 27.648 
z
" style="fill: #ffffff"/>
   </g>
   <g id="line2d_1">
    <path d="M 27.323974 298.944 
L 27.323974 282.985412 
L 83.678349 282.985412 
L 83.678349 277.665882 
L 88.613828 277.665882 
L 88.613828 272.346353 
L 94.205591 272.346353 
L 94.205591 267.026824 
L 100.147275 267.026824 
L 100.147275 261.707294 
L 104.961779 261.707294 
L 104.961779 256.387765 
L 107.5116 256.387765 
L 107.5116 251.068235 
L 115.227139 251.068235 
L 115.227139 245.748706 
L 118.450653 245.748706 
L 118.450653 240.429176 
L 123.260379 240.429176 
L 123.260379 235.109647 
L 124.906754 235.109647 
L 124.906754 229.790118 
L 126.323346 229.790118 
L 126.323346 224.470588 
L 127.911368 224.470588 
L 127.911368 219.151059 
L 128.266313 219.151059 
L 128.266313 213.831529 
L 129.041269 213.831529 
L 129.041269 208.512 
L 130.027253 208.512 
L 130.027253 203.192471 
L 130.344755 203.192471 
L 130.344755 197.872941 
L 131.63737 197.872941 
L 131.63737 192.553412 
L 132.144842 192.553412 
L 132.144842 187.233882 
L 132.708526 187.233882 
L 132.708526 181.914353 
L 133.120474 181.914353 
L 133.120474 171.275294 
L 134.176839 171.275294 
L 134.176839 165.955765 
L 134.620977 165.955765 
L 134.620977 160.636235 
L 134.87014 160.636235 
L 134.87014 155.316706 
L 135.893741 155.316706 
L 135.893741 139.358118 
L 136.068734 139.358118 
L 136.068734 123.399529 
L 136.126705 123.399529 
L 136.126705 118.08 
L 136.242113 118.08 
L 136.242113 112.760471 
L 136.696795 112.760471 
L 136.696795 107.440941 
L 136.864507 107.440941 
L 136.864507 102.121412 
L 136.97549 102.121412 
L 136.97549 96.801882 
L 137.195511 96.801882 
L 137.195511 91.482353 
L 137.250116 91.482353 
L 137.250116 86.162824 
L 137.787626 86.162824 
L 137.787626 80.843294 
L 137.840541 80.843294 
L 137.840541 70.204235 
L 138.050729 70.204235 
L 138.050729 64.884706 
L 138.36167 64.884706 
L 138.36167 59.565176 
L 138.515235 59.565176 
L 138.515235 54.245647 
L 138.718057 54.245647 
L 138.718057 27.648 
L 360.8064 27.648 
" style="fill: none; stroke: #f5deb3; stroke-width: 4; stroke-linecap: square"/>
   </g>
   <g id="line2d_2">
    <defs>
     <path id="md5e750763d" d="M -0 7.778175 
L 7.778175 0 
L 0 -7.778175 
L -7.778175 -0 
z
" style="stroke: #f5deb3; stroke-width: 1.5; stroke-linejoin: miter"/>
    </defs>
    <g>
     <use xlink:href="#md5e750763d" x="94.205591" y="272.346353" style="fill: #f5deb3; stroke: #f5deb3; stroke-width: 1.5; stroke-linejoin: miter"/>
     <use xlink:href="#md5e750763d" x="132.708526" y="181.914353" style="fill: #f5deb3; stroke: #f5deb3; stroke-width: 1.5; stroke-linejoin: miter"/>
     <use xlink:href="#md5e750763d" x="138.36167" y="64.884706" style="fill: #f5deb3; stroke: #f5deb3; stroke-width: 1.5; stroke-linejoin: miter"/>
     <use xlink:href="#md5e750763d" x="138.718057" y="27.648" style="fill: #f5deb3; stroke: #f5deb3; stroke-width: 1.5; stroke-linejoin: miter"/>
     <use xlink:href="#md5e750763d" x="138.718057" y="27.648" style="fill: #f5deb3; stroke: #f5deb3; stroke-width: 1.5; stroke-linejoin: miter"/>
     <use xlink:href="#md5e750763d" x="360.8064" y="27.648" style="fill: #f5deb3; stroke: #f5deb3; stroke-width: 1.5; stroke-linejoin: miter"/>
    </g>
   </g>
   <g id="line2d_3">
    <path style="fill: none; stroke: #f5deb3; stroke-width: 4; stroke-linecap: square"/>
    <g/>
   </g>
   <g id="line2d_4">
    <path d="M 360.8064 27.648 
L 380.514816 33.07392 
" style="fill: none; stroke: #f5deb3; stroke-width: 4; stroke-linecap: square"/>
    <g>
     <use xlink:href="#md5e750763d" x="360.8064" y="27.648" style="fill: #f5deb3; stroke: #f5deb3; stroke-width: 1.5; stroke-linejoin: miter"/>
     <use xlink:href="#md5e750763d" x="380.514816" y="33.07392" style="fill: #f5deb3; stroke: #f5deb3; stroke-width: 1.5; stroke-linejoin: miter"/>
    </g>
   </g>
   <g id="matplotlib.axis_1">
    <g id="xtick_1">
     <g id="line2d_5">
      <path d="M 57.6 298.944 
L 57.6 27.648 
" clip-path="url(#pd62a42c8b2)" style="fill: none; stroke: #b0b0b0; stroke-width: 0.8; stroke-linecap: square"/>
     </g>
     <g id="line2d_6">
      <defs>
       <path id="m20c1e76552" d="M 0 0 
L 0 3.5 
" style="stroke: #000000; stroke-width: 0.8"/>
      </defs>
      <g>
       <use xlink:href="#m20c1e76552" x="57.6" y="298.944" style="stroke: #000000; stroke-width: 0.8"/>
      </g>
     </g>
     <g id="text_1">
      <!-- 0 -->
      <g transform="translate(52.191875 318.861344)scale(0.17 -0.17)">
       <defs>
        <path id="DejaVuSans-30" d="M 2034 4250 
Q 1547 4250 1301 3770 
Q 1056 3291 1056 2328 
Q 1056 1369 1301 889 
Q 1547 409 2034 409 
Q 2525 409 2770 889 
Q 3016 1369 3016 2328 
Q 3016 3291 2770 3770 
Q 2525 4250 2034 4250 
z
M 2034 4750 
Q 2819 4750 3233 4129 
Q 3647 3509 3647 2328 
Q 3647 1150 3233 529 
Q 2819 -91 2034 -91 
Q 1250 -91 836 529 
Q 422 1150 422 2328 
Q 422 3509 836 4129 
Q 1250 4750 2034 4750 
z
" transform="scale(0.015625)"/>
       </defs>
       <use xlink:href="#DejaVuSans-30"/>
      </g>
     </g>
    </g>
    <g id="xtick_2">
     <g id="line2d_7">
      <path d="M 144.2304 298.944 
L 144.2304 27.648 
" clip-path="url(#pd62a42c8b2)" style="fill: none; stroke: #b0b0b0; stroke-width: 0.8; stroke-linecap: square"/>
     </g>
     <g id="line2d_8">
      <g>
       <use xlink:href="#m20c1e76552" x="144.2304" y="298.944" style="stroke: #000000; stroke-width: 0.8"/>
      </g>
     </g>
     <g id="text_2">
      <!-- 2 -->
      <g transform="translate(138.822275 318.861344)scale(0.17 -0.17)">
       <defs>
        <path id="DejaVuSans-32" d="M 1228 531 
L 3431 531 
L 3431 0 
L 469 0 
L 469 531 
Q 828 903 1448 1529 
Q 2069 2156 2228 2338 
Q 2531 2678 2651 2914 
Q 2772 3150 2772 3378 
Q 2772 3750 2511 3984 
Q 2250 4219 1831 4219 
Q 1534 4219 1204 4116 
Q 875 4013 500 3803 
L 500 4441 
Q 881 4594 1212 4672 
Q 1544 4750 1819 4750 
Q 2544 4750 2975 4387 
Q 3406 4025 3406 3419 
Q 3406 3131 3298 2873 
Q 3191 2616 2906 2266 
Q 2828 2175 2409 1742 
Q 1991 1309 1228 531 
z
" transform="scale(0.015625)"/>
       </defs>
       <use xlink:href="#DejaVuSans-32"/>
      </g>
     </g>
    </g>
    <g id="xtick_3">
     <g id="line2d_9">
      <path d="M 230.8608 298.944 
L 230.8608 27.648 
" clip-path="url(#pd62a42c8b2)" style="fill: none; stroke: #b0b0b0; stroke-width: 0.8; stroke-linecap: square"/>
     </g>
     <g id="line2d_10">
      <g>
       <use xlink:href="#m20c1e76552" x="230.8608" y="298.944" style="stroke: #000000; stroke-width: 0.8"/>
      </g>
     </g>
     <g id="text_3">
      <!-- 4 -->
      <g transform="translate(225.452675 318.861344)scale(0.17 -0.17)">
       <defs>
        <path id="DejaVuSans-34" d="M 2419 4116 
L 825 1625 
L 2419 1625 
L 2419 4116 
z
M 2253 4666 
L 3047 4666 
L 3047 1625 
L 3713 1625 
L 3713 1100 
L 3047 1100 
L 3047 0 
L 2419 0 
L 2419 1100 
L 313 1100 
L 313 1709 
L 2253 4666 
z
" transform="scale(0.015625)"/>
       </defs>
       <use xlink:href="#DejaVuSans-34"/>
      </g>
     </g>
    </g>
    <g id="xtick_4">
     <g id="line2d_11">
      <path d="M 317.4912 298.944 
L 317.4912 27.648 
" clip-path="url(#pd62a42c8b2)" style="fill: none; stroke: #b0b0b0; stroke-width: 0.8; stroke-linecap: square"/>
     </g>
     <g id="line2d_12">
      <g>
       <use xlink:href="#m20c1e76552" x="317.4912" y="298.944" style="stroke: #000000; stroke-width: 0.8"/>
      </g>
     </g>
     <g id="text_4">
      <!-- 6 -->
      <g transform="translate(312.083075 318.861344)scale(0.17 -0.17)">
       <defs>
        <path id="DejaVuSans-36" d="M 2113 2584 
Q 1688 2584 1439 2293 
Q 1191 2003 1191 1497 
Q 1191 994 1439 701 
Q 1688 409 2113 409 
Q 2538 409 2786 701 
Q 3034 994 3034 1497 
Q 3034 2003 2786 2293 
Q 2538 2584 2113 2584 
z
M 3366 4563 
L 3366 3988 
Q 3128 4100 2886 4159 
Q 2644 4219 2406 4219 
Q 1781 4219 1451 3797 
Q 1122 3375 1075 2522 
Q 1259 2794 1537 2939 
Q 1816 3084 2150 3084 
Q 2853 3084 3261 2657 
Q 3669 2231 3669 1497 
Q 3669 778 3244 343 
Q 2819 -91 2113 -91 
Q 1303 -91 875 529 
Q 447 1150 447 2328 
Q 447 3434 972 4092 
Q 1497 4750 2381 4750 
Q 2619 4750 2861 4703 
Q 3103 4656 3366 4563 
z
" transform="scale(0.015625)"/>
       </defs>
       <use xlink:href="#DejaVuSans-36"/>
      </g>
     </g>
    </g>
    <g id="xtick_5">
     <g id="line2d_13">
      <path d="M 100.9152 298.944 
L 100.9152 27.648 
" clip-path="url(#pd62a42c8b2)" style="fill: none; stroke: #b0b0b0; stroke-width: 0.8; stroke-linecap: square"/>
     </g>
     <g id="line2d_14">
      <defs>
       <path id="m442a3a8f18" d="M 0 0 
L 0 2 
" style="stroke: #000000; stroke-width: 0.6"/>
      </defs>
      <g>
       <use xlink:href="#m442a3a8f18" x="100.9152" y="298.944" style="stroke: #000000; stroke-width: 0.6"/>
      </g>
     </g>
    </g>
    <g id="xtick_6">
     <g id="line2d_15">
      <path d="M 187.5456 298.944 
L 187.5456 27.648 
" clip-path="url(#pd62a42c8b2)" style="fill: none; stroke: #b0b0b0; stroke-width: 0.8; stroke-linecap: square"/>
     </g>
     <g id="line2d_16">
      <g>
       <use xlink:href="#m442a3a8f18" x="187.5456" y="298.944" style="stroke: #000000; stroke-width: 0.6"/>
      </g>
     </g>
    </g>
    <g id="xtick_7">
     <g id="line2d_17">
      <path d="M 274.176 298.944 
L 274.176 27.648 
" clip-path="url(#pd62a42c8b2)" style="fill: none; stroke: #b0b0b0; stroke-width: 0.8; stroke-linecap: square"/>
     </g>
     <g id="line2d_18">
      <g>
       <use xlink:href="#m442a3a8f18" x="274.176" y="298.944" style="stroke: #000000; stroke-width: 0.6"/>
      </g>
     </g>
    </g>
    <g id="xtick_8">
     <g id="line2d_19">
      <path d="M 360.8064 298.944 
L 360.8064 27.648 
" clip-path="url(#pd62a42c8b2)" style="fill: none; stroke: #b0b0b0; stroke-width: 0.8; stroke-linecap: square"/>
     </g>
     <g id="line2d_20">
      <g>
       <use xlink:href="#m442a3a8f18" x="360.8064" y="298.944" style="stroke: #000000; stroke-width: 0.6"/>
      </g>
     </g>
    </g>
    <g id="text_5">
     <!-- log10(# f-evals / dimension) -->
     <g transform="translate(88.823278 339.314156)scale(0.17 -0.17)">
      <defs>
       <path id="DejaVuSans-6c" d="M 603 4863 
L 1178 4863 
L 1178 0 
L 603 0 
L 603 4863 
z
" transform="scale(0.015625)"/>
       <path id="DejaVuSans-6f" d="M 1959 3097 
Q 1497 3097 1228 2736 
Q 959 2375 959 1747 
Q 959 1119 1226 758 
Q 1494 397 1959 397 
Q 2419 397 2687 759 
Q 2956 1122 2956 1747 
Q 2956 2369 2687 2733 
Q 2419 3097 1959 3097 
z
M 1959 3584 
Q 2709 3584 3137 3096 
Q 3566 2609 3566 1747 
Q 3566 888 3137 398 
Q 2709 -91 1959 -91 
Q 1206 -91 779 398 
Q 353 888 353 1747 
Q 353 2609 779 3096 
Q 1206 3584 1959 3584 
z
" transform="scale(0.015625)"/>
       <path id="DejaVuSans-67" d="M 2906 1791 
Q 2906 2416 2648 2759 
Q 2391 3103 1925 3103 
Q 1463 3103 1205 2759 
Q 947 2416 947 1791 
Q 947 1169 1205 825 
Q 1463 481 1925 481 
Q 2391 481 2648 825 
Q 2906 1169 2906 1791 
z
M 3481 434 
Q 3481 -459 3084 -895 
Q 2688 -1331 1869 -1331 
Q 1566 -1331 1297 -1286 
Q 1028 -1241 775 -1147 
L 775 -588 
Q 1028 -725 1275 -790 
Q 1522 -856 1778 -856 
Q 2344 -856 2625 -561 
Q 2906 -266 2906 331 
L 2906 616 
Q 2728 306 2450 153 
Q 2172 0 1784 0 
Q 1141 0 747 490 
Q 353 981 353 1791 
Q 353 2603 747 3093 
Q 1141 3584 1784 3584 
Q 2172 3584 2450 3431 
Q 2728 3278 2906 2969 
L 2906 3500 
L 3481 3500 
L 3481 434 
z
" transform="scale(0.015625)"/>
       <path id="DejaVuSans-31" d="M 794 531 
L 1825 531 
L 1825 4091 
L 703 3866 
L 703 4441 
L 1819 4666 
L 2450 4666 
L 2450 531 
L 3481 531 
L 3481 0 
L 794 0 
L 794 531 
z
" transform="scale(0.015625)"/>
       <path id="DejaVuSans-28" d="M 1984 4856 
Q 1566 4138 1362 3434 
Q 1159 2731 1159 2009 
Q 1159 1288 1364 580 
Q 1569 -128 1984 -844 
L 1484 -844 
Q 1016 -109 783 600 
Q 550 1309 550 2009 
Q 550 2706 781 3412 
Q 1013 4119 1484 4856 
L 1984 4856 
z
" transform="scale(0.015625)"/>
       <path id="DejaVuSans-23" d="M 3272 2816 
L 2363 2816 
L 2100 1772 
L 3016 1772 
L 3272 2816 
z
M 2803 4594 
L 2478 3297 
L 3391 3297 
L 3719 4594 
L 4219 4594 
L 3897 3297 
L 4872 3297 
L 4872 2816 
L 3775 2816 
L 3519 1772 
L 4513 1772 
L 4513 1294 
L 3397 1294 
L 3072 0 
L 2572 0 
L 2894 1294 
L 1978 1294 
L 1656 0 
L 1153 0 
L 1478 1294 
L 494 1294 
L 494 1772 
L 1594 1772 
L 1856 2816 
L 850 2816 
L 850 3297 
L 1978 3297 
L 2297 4594 
L 2803 4594 
z
" transform="scale(0.015625)"/>
       <path id="DejaVuSans-20" transform="scale(0.015625)"/>
       <path id="DejaVuSans-66" d="M 2375 4863 
L 2375 4384 
L 1825 4384 
Q 1516 4384 1395 4259 
Q 1275 4134 1275 3809 
L 1275 3500 
L 2222 3500 
L 2222 3053 
L 1275 3053 
L 1275 0 
L 697 0 
L 697 3053 
L 147 3053 
L 147 3500 
L 697 3500 
L 697 3744 
Q 697 4328 969 4595 
Q 1241 4863 1831 4863 
L 2375 4863 
z
" transform="scale(0.015625)"/>
       <path id="DejaVuSans-2d" d="M 313 2009 
L 1997 2009 
L 1997 1497 
L 313 1497 
L 313 2009 
z
" transform="scale(0.015625)"/>
       <path id="DejaVuSans-65" d="M 3597 1894 
L 3597 1613 
L 953 1613 
Q 991 1019 1311 708 
Q 1631 397 2203 397 
Q 2534 397 2845 478 
Q 3156 559 3463 722 
L 3463 178 
Q 3153 47 2828 -22 
Q 2503 -91 2169 -91 
Q 1331 -91 842 396 
Q 353 884 353 1716 
Q 353 2575 817 3079 
Q 1281 3584 2069 3584 
Q 2775 3584 3186 3129 
Q 3597 2675 3597 1894 
z
M 3022 2063 
Q 3016 2534 2758 2815 
Q 2500 3097 2075 3097 
Q 1594 3097 1305 2825 
Q 1016 2553 972 2059 
L 3022 2063 
z
" transform="scale(0.015625)"/>
       <path id="DejaVuSans-76" d="M 191 3500 
L 800 3500 
L 1894 563 
L 2988 3500 
L 3597 3500 
L 2284 0 
L 1503 0 
L 191 3500 
z
" transform="scale(0.015625)"/>
       <path id="DejaVuSans-61" d="M 2194 1759 
Q 1497 1759 1228 1600 
Q 959 1441 959 1056 
Q 959 750 1161 570 
Q 1363 391 1709 391 
Q 2188 391 2477 730 
Q 2766 1069 2766 1631 
L 2766 1759 
L 2194 1759 
z
M 3341 1997 
L 3341 0 
L 2766 0 
L 2766 531 
Q 2569 213 2275 61 
Q 1981 -91 1556 -91 
Q 1019 -91 701 211 
Q 384 513 384 1019 
Q 384 1609 779 1909 
Q 1175 2209 1959 2209 
L 2766 2209 
L 2766 2266 
Q 2766 2663 2505 2880 
Q 2244 3097 1772 3097 
Q 1472 3097 1187 3025 
Q 903 2953 641 2809 
L 641 3341 
Q 956 3463 1253 3523 
Q 1550 3584 1831 3584 
Q 2591 3584 2966 3190 
Q 3341 2797 3341 1997 
z
" transform="scale(0.015625)"/>
       <path id="DejaVuSans-73" d="M 2834 3397 
L 2834 2853 
Q 2591 2978 2328 3040 
Q 2066 3103 1784 3103 
Q 1356 3103 1142 2972 
Q 928 2841 928 2578 
Q 928 2378 1081 2264 
Q 1234 2150 1697 2047 
L 1894 2003 
Q 2506 1872 2764 1633 
Q 3022 1394 3022 966 
Q 3022 478 2636 193 
Q 2250 -91 1575 -91 
Q 1294 -91 989 -36 
Q 684 19 347 128 
L 347 722 
Q 666 556 975 473 
Q 1284 391 1588 391 
Q 1994 391 2212 530 
Q 2431 669 2431 922 
Q 2431 1156 2273 1281 
Q 2116 1406 1581 1522 
L 1381 1569 
Q 847 1681 609 1914 
Q 372 2147 372 2553 
Q 372 3047 722 3315 
Q 1072 3584 1716 3584 
Q 2034 3584 2315 3537 
Q 2597 3491 2834 3397 
z
" transform="scale(0.015625)"/>
       <path id="DejaVuSans-2f" d="M 1625 4666 
L 2156 4666 
L 531 -594 
L 0 -594 
L 1625 4666 
z
" transform="scale(0.015625)"/>
       <path id="DejaVuSans-64" d="M 2906 2969 
L 2906 4863 
L 3481 4863 
L 3481 0 
L 2906 0 
L 2906 525 
Q 2725 213 2448 61 
Q 2172 -91 1784 -91 
Q 1150 -91 751 415 
Q 353 922 353 1747 
Q 353 2572 751 3078 
Q 1150 3584 1784 3584 
Q 2172 3584 2448 3432 
Q 2725 3281 2906 2969 
z
M 947 1747 
Q 947 1113 1208 752 
Q 1469 391 1925 391 
Q 2381 391 2643 752 
Q 2906 1113 2906 1747 
Q 2906 2381 2643 2742 
Q 2381 3103 1925 3103 
Q 1469 3103 1208 2742 
Q 947 2381 947 1747 
z
" transform="scale(0.015625)"/>
       <path id="DejaVuSans-69" d="M 603 3500 
L 1178 3500 
L 1178 0 
L 603 0 
L 603 3500 
z
M 603 4863 
L 1178 4863 
L 1178 4134 
L 603 4134 
L 603 4863 
z
" transform="scale(0.015625)"/>
       <path id="DejaVuSans-6d" d="M 3328 2828 
Q 3544 3216 3844 3400 
Q 4144 3584 4550 3584 
Q 5097 3584 5394 3201 
Q 5691 2819 5691 2113 
L 5691 0 
L 5113 0 
L 5113 2094 
Q 5113 2597 4934 2840 
Q 4756 3084 4391 3084 
Q 3944 3084 3684 2787 
Q 3425 2491 3425 1978 
L 3425 0 
L 2847 0 
L 2847 2094 
Q 2847 2600 2669 2842 
Q 2491 3084 2119 3084 
Q 1678 3084 1418 2786 
Q 1159 2488 1159 1978 
L 1159 0 
L 581 0 
L 581 3500 
L 1159 3500 
L 1159 2956 
Q 1356 3278 1631 3431 
Q 1906 3584 2284 3584 
Q 2666 3584 2933 3390 
Q 3200 3197 3328 2828 
z
" transform="scale(0.015625)"/>
       <path id="DejaVuSans-6e" d="M 3513 2113 
L 3513 0 
L 2938 0 
L 2938 2094 
Q 2938 2591 2744 2837 
Q 2550 3084 2163 3084 
Q 1697 3084 1428 2787 
Q 1159 2491 1159 1978 
L 1159 0 
L 581 0 
L 581 3500 
L 1159 3500 
L 1159 2956 
Q 1366 3272 1645 3428 
Q 1925 3584 2291 3584 
Q 2894 3584 3203 3211 
Q 3513 2838 3513 2113 
z
" transform="scale(0.015625)"/>
       <path id="DejaVuSans-29" d="M 513 4856 
L 1013 4856 
Q 1481 4119 1714 3412 
Q 1947 2706 1947 2009 
Q 1947 1309 1714 600 
Q 1481 -109 1013 -844 
L 513 -844 
Q 928 -128 1133 580 
Q 1338 1288 1338 2009 
Q 1338 2731 1133 3434 
Q 928 4138 513 4856 
z
" transform="scale(0.015625)"/>
      </defs>
      <use xlink:href="#DejaVuSans-6c"/>
      <use xlink:href="#DejaVuSans-6f" x="27.783203"/>
      <use xlink:href="#DejaVuSans-67" x="88.964844"/>
      <use xlink:href="#DejaVuSans-31" x="152.441406"/>
      <use xlink:href="#DejaVuSans-30" x="216.064453"/>
      <use xlink:href="#DejaVuSans-28" x="279.6875"/>
      <use xlink:href="#DejaVuSans-23" x="318.701172"/>
      <use xlink:href="#DejaVuSans-20" x="402.490234"/>
      <use xlink:href="#DejaVuSans-66" x="434.277344"/>
      <use xlink:href="#DejaVuSans-2d" x="463.982422"/>
      <use xlink:href="#DejaVuSans-65" x="500.066406"/>
      <use xlink:href="#DejaVuSans-76" x="561.589844"/>
      <use xlink:href="#DejaVuSans-61" x="620.769531"/>
      <use xlink:href="#DejaVuSans-6c" x="682.048828"/>
      <use xlink:href="#DejaVuSans-73" x="709.832031"/>
      <use xlink:href="#DejaVuSans-20" x="761.931641"/>
      <use xlink:href="#DejaVuSans-2f" x="793.71875"/>
      <use xlink:href="#DejaVuSans-20" x="827.410156"/>
      <use xlink:href="#DejaVuSans-64" x="859.197266"/>
      <use xlink:href="#DejaVuSans-69" x="922.673828"/>
      <use xlink:href="#DejaVuSans-6d" x="950.457031"/>
      <use xlink:href="#DejaVuSans-65" x="1047.869141"/>
      <use xlink:href="#DejaVuSans-6e" x="1109.392578"/>
      <use xlink:href="#DejaVuSans-73" x="1172.771484"/>
      <use xlink:href="#DejaVuSans-69" x="1224.871094"/>
      <use xlink:href="#DejaVuSans-6f" x="1252.654297"/>
      <use xlink:href="#DejaVuSans-6e" x="1313.835938"/>
      <use xlink:href="#DejaVuSans-29" x="1377.214844"/>
     </g>
    </g>
   </g>
   <g id="matplotlib.axis_2">
    <g id="ytick_1">
     <g id="line2d_21">
      <path d="M 57.6 298.944 
L 360.8064 298.944 
" clip-path="url(#pd62a42c8b2)" style="fill: none; stroke: #b0b0b0; stroke-width: 0.8; stroke-linecap: square"/>
     </g>
     <g id="line2d_22">
      <defs>
       <path id="mb4dec85b1a" d="M 0 0 
L -3.5 0 
" style="stroke: #000000; stroke-width: 0.8"/>
      </defs>
      <g>
       <use xlink:href="#mb4dec85b1a" x="57.6" y="298.944" style="stroke: #000000; stroke-width: 0.8"/>
      </g>
     </g>
     <g id="text_6">
      <!-- 0.0 -->
      <g transform="translate(25.155 305.02275)scale(0.16 -0.16)">
       <defs>
        <path id="DejaVuSans-2e" d="M 684 794 
L 1344 794 
L 1344 0 
L 684 0 
L 684 794 
z
" transform="scale(0.015625)"/>
       </defs>
       <use xlink:href="#DejaVuSans-30"/>
       <use xlink:href="#DejaVuSans-2e" x="63.623047"/>
       <use xlink:href="#DejaVuSans-30" x="95.410156"/>
      </g>
     </g>
    </g>
    <g id="ytick_2">
     <g id="line2d_23">
      <path d="M 57.6 244.6848 
L 360.8064 244.6848 
" clip-path="url(#pd62a42c8b2)" style="fill: none; stroke: #b0b0b0; stroke-width: 0.8; stroke-linecap: square"/>
     </g>
     <g id="line2d_24">
      <g>
       <use xlink:href="#mb4dec85b1a" x="57.6" y="244.6848" style="stroke: #000000; stroke-width: 0.8"/>
      </g>
     </g>
     <g id="text_7">
      <!-- 0.2 -->
      <g transform="translate(25.155 250.76355)scale(0.16 -0.16)">
       <use xlink:href="#DejaVuSans-30"/>
       <use xlink:href="#DejaVuSans-2e" x="63.623047"/>
       <use xlink:href="#DejaVuSans-32" x="95.410156"/>
      </g>
     </g>
    </g>
    <g id="ytick_3">
     <g id="line2d_25">
      <path d="M 57.6 190.4256 
L 360.8064 190.4256 
" clip-path="url(#pd62a42c8b2)" style="fill: none; stroke: #b0b0b0; stroke-width: 0.8; stroke-linecap: square"/>
     </g>
     <g id="line2d_26">
      <g>
       <use xlink:href="#mb4dec85b1a" x="57.6" y="190.4256" style="stroke: #000000; stroke-width: 0.8"/>
      </g>
     </g>
     <g id="text_8">
      <!-- 0.4 -->
      <g transform="translate(25.155 196.50435)scale(0.16 -0.16)">
       <use xlink:href="#DejaVuSans-30"/>
       <use xlink:href="#DejaVuSans-2e" x="63.623047"/>
       <use xlink:href="#DejaVuSans-34" x="95.410156"/>
      </g>
     </g>
    </g>
    <g id="ytick_4">
     <g id="line2d_27">
      <path d="M 57.6 136.1664 
L 360.8064 136.1664 
" clip-path="url(#pd62a42c8b2)" style="fill: none; stroke: #b0b0b0; stroke-width: 0.8; stroke-linecap: square"/>
     </g>
     <g id="line2d_28">
      <g>
       <use xlink:href="#mb4dec85b1a" x="57.6" y="136.1664" style="stroke: #000000; stroke-width: 0.8"/>
      </g>
     </g>
     <g id="text_9">
      <!-- 0.6 -->
      <g transform="translate(25.155 142.24515)scale(0.16 -0.16)">
       <use xlink:href="#DejaVuSans-30"/>
       <use xlink:href="#DejaVuSans-2e" x="63.623047"/>
       <use xlink:href="#DejaVuSans-36" x="95.410156"/>
      </g>
     </g>
    </g>
    <g id="ytick_5">
     <g id="line2d_29">
      <path d="M 57.6 81.9072 
L 360.8064 81.9072 
" clip-path="url(#pd62a42c8b2)" style="fill: none; stroke: #b0b0b0; stroke-width: 0.8; stroke-linecap: square"/>
     </g>
     <g id="line2d_30">
      <g>
       <use xlink:href="#mb4dec85b1a" x="57.6" y="81.9072" style="stroke: #000000; stroke-width: 0.8"/>
      </g>
     </g>
     <g id="text_10">
      <!-- 0.8 -->
      <g transform="translate(25.155 87.98595)scale(0.16 -0.16)">
       <defs>
        <path id="DejaVuSans-38" d="M 2034 2216 
Q 1584 2216 1326 1975 
Q 1069 1734 1069 1313 
Q 1069 891 1326 650 
Q 1584 409 2034 409 
Q 2484 409 2743 651 
Q 3003 894 3003 1313 
Q 3003 1734 2745 1975 
Q 2488 2216 2034 2216 
z
M 1403 2484 
Q 997 2584 770 2862 
Q 544 3141 544 3541 
Q 544 4100 942 4425 
Q 1341 4750 2034 4750 
Q 2731 4750 3128 4425 
Q 3525 4100 3525 3541 
Q 3525 3141 3298 2862 
Q 3072 2584 2669 2484 
Q 3125 2378 3379 2068 
Q 3634 1759 3634 1313 
Q 3634 634 3220 271 
Q 2806 -91 2034 -91 
Q 1263 -91 848 271 
Q 434 634 434 1313 
Q 434 1759 690 2068 
Q 947 2378 1403 2484 
z
M 1172 3481 
Q 1172 3119 1398 2916 
Q 1625 2713 2034 2713 
Q 2441 2713 2670 2916 
Q 2900 3119 2900 3481 
Q 2900 3844 2670 4047 
Q 2441 4250 2034 4250 
Q 1625 4250 1398 4047 
Q 1172 3844 1172 3481 
z
" transform="scale(0.015625)"/>
       </defs>
       <use xlink:href="#DejaVuSans-30"/>
       <use xlink:href="#DejaVuSans-2e" x="63.623047"/>
       <use xlink:href="#DejaVuSans-38" x="95.410156"/>
      </g>
     </g>
    </g>
    <g id="ytick_6">
     <g id="line2d_31">
      <path d="M 57.6 27.648 
L 360.8064 27.648 
" clip-path="url(#pd62a42c8b2)" style="fill: none; stroke: #b0b0b0; stroke-width: 0.8; stroke-linecap: square"/>
     </g>
     <g id="line2d_32">
      <g>
       <use xlink:href="#mb4dec85b1a" x="57.6" y="27.648" style="stroke: #000000; stroke-width: 0.8"/>
      </g>
     </g>
     <g id="text_11">
      <!-- 1.0 -->
      <g transform="translate(25.155 33.72675)scale(0.16 -0.16)">
       <use xlink:href="#DejaVuSans-31"/>
       <use xlink:href="#DejaVuSans-2e" x="63.623047"/>
       <use xlink:href="#DejaVuSans-30" x="95.410156"/>
      </g>
     </g>
    </g>
    <g id="text_12">
     <!-- Fraction of function,target pairs -->
     <g transform="translate(17.619531 297.681)rotate(-90)scale(0.17 -0.17)">
      <defs>
       <path id="DejaVuSans-46" d="M 628 4666 
L 3309 4666 
L 3309 4134 
L 1259 4134 
L 1259 2759 
L 3109 2759 
L 3109 2228 
L 1259 2228 
L 1259 0 
L 628 0 
L 628 4666 
z
" transform="scale(0.015625)"/>
       <path id="DejaVuSans-72" d="M 2631 2963 
Q 2534 3019 2420 3045 
Q 2306 3072 2169 3072 
Q 1681 3072 1420 2755 
Q 1159 2438 1159 1844 
L 1159 0 
L 581 0 
L 581 3500 
L 1159 3500 
L 1159 2956 
Q 1341 3275 1631 3429 
Q 1922 3584 2338 3584 
Q 2397 3584 2469 3576 
Q 2541 3569 2628 3553 
L 2631 2963 
z
" transform="scale(0.015625)"/>
       <path id="DejaVuSans-63" d="M 3122 3366 
L 3122 2828 
Q 2878 2963 2633 3030 
Q 2388 3097 2138 3097 
Q 1578 3097 1268 2742 
Q 959 2388 959 1747 
Q 959 1106 1268 751 
Q 1578 397 2138 397 
Q 2388 397 2633 464 
Q 2878 531 3122 666 
L 3122 134 
Q 2881 22 2623 -34 
Q 2366 -91 2075 -91 
Q 1284 -91 818 406 
Q 353 903 353 1747 
Q 353 2603 823 3093 
Q 1294 3584 2113 3584 
Q 2378 3584 2631 3529 
Q 2884 3475 3122 3366 
z
" transform="scale(0.015625)"/>
       <path id="DejaVuSans-74" d="M 1172 4494 
L 1172 3500 
L 2356 3500 
L 2356 3053 
L 1172 3053 
L 1172 1153 
Q 1172 725 1289 603 
Q 1406 481 1766 481 
L 2356 481 
L 2356 0 
L 1766 0 
Q 1100 0 847 248 
Q 594 497 594 1153 
L 594 3053 
L 172 3053 
L 172 3500 
L 594 3500 
L 594 4494 
L 1172 4494 
z
" transform="scale(0.015625)"/>
       <path id="DejaVuSans-75" d="M 544 1381 
L 544 3500 
L 1119 3500 
L 1119 1403 
Q 1119 906 1312 657 
Q 1506 409 1894 409 
Q 2359 409 2629 706 
Q 2900 1003 2900 1516 
L 2900 3500 
L 3475 3500 
L 3475 0 
L 2900 0 
L 2900 538 
Q 2691 219 2414 64 
Q 2138 -91 1772 -91 
Q 1169 -91 856 284 
Q 544 659 544 1381 
z
M 1991 3584 
L 1991 3584 
z
" transform="scale(0.015625)"/>
       <path id="DejaVuSans-2c" d="M 750 794 
L 1409 794 
L 1409 256 
L 897 -744 
L 494 -744 
L 750 256 
L 750 794 
z
" transform="scale(0.015625)"/>
       <path id="DejaVuSans-70" d="M 1159 525 
L 1159 -1331 
L 581 -1331 
L 581 3500 
L 1159 3500 
L 1159 2969 
Q 1341 3281 1617 3432 
Q 1894 3584 2278 3584 
Q 2916 3584 3314 3078 
Q 3713 2572 3713 1747 
Q 3713 922 3314 415 
Q 2916 -91 2278 -91 
Q 1894 -91 1617 61 
Q 1341 213 1159 525 
z
M 3116 1747 
Q 3116 2381 2855 2742 
Q 2594 3103 2138 3103 
Q 1681 3103 1420 2742 
Q 1159 2381 1159 1747 
Q 1159 1113 1420 752 
Q 1681 391 2138 391 
Q 2594 391 2855 752 
Q 3116 1113 3116 1747 
z
" transform="scale(0.015625)"/>
      </defs>
      <use xlink:href="#DejaVuSans-46"/>
      <use xlink:href="#DejaVuSans-72" x="50.269531"/>
      <use xlink:href="#DejaVuSans-61" x="91.382812"/>
      <use xlink:href="#DejaVuSans-63" x="152.662109"/>
      <use xlink:href="#DejaVuSans-74" x="207.642578"/>
      <use xlink:href="#DejaVuSans-69" x="246.851562"/>
      <use xlink:href="#DejaVuSans-6f" x="274.634766"/>
      <use xlink:href="#DejaVuSans-6e" x="335.816406"/>
      <use xlink:href="#DejaVuSans-20" x="399.195312"/>
      <use xlink:href="#DejaVuSans-6f" x="430.982422"/>
      <use xlink:href="#DejaVuSans-66" x="492.164062"/>
      <use xlink:href="#DejaVuSans-20" x="527.369141"/>
      <use xlink:href="#DejaVuSans-66" x="559.15625"/>
      <use xlink:href="#DejaVuSans-75" x="594.361328"/>
      <use xlink:href="#DejaVuSans-6e" x="657.740234"/>
      <use xlink:href="#DejaVuSans-63" x="721.119141"/>
      <use xlink:href="#DejaVuSans-74" x="776.099609"/>
      <use xlink:href="#DejaVuSans-69" x="815.308594"/>
      <use xlink:href="#DejaVuSans-6f" x="843.091797"/>
      <use xlink:href="#DejaVuSans-6e" x="904.273438"/>
      <use xlink:href="#DejaVuSans-2c" x="967.652344"/>
      <use xlink:href="#DejaVuSans-74" x="999.439453"/>
      <use xlink:href="#DejaVuSans-61" x="1038.648438"/>
      <use xlink:href="#DejaVuSans-72" x="1099.927734"/>
      <use xlink:href="#DejaVuSans-67" x="1139.291016"/>
      <use xlink:href="#DejaVuSans-65" x="1202.767578"/>
      <use xlink:href="#DejaVuSans-74" x="1264.291016"/>
      <use xlink:href="#DejaVuSans-20" x="1303.5"/>
      <use xlink:href="#DejaVuSans-70" x="1335.287109"/>
      <use xlink:href="#DejaVuSans-61" x="1398.763672"/>
      <use xlink:href="#DejaVuSans-69" x="1460.042969"/>
      <use xlink:href="#DejaVuSans-72" x="1487.826172"/>
      <use xlink:href="#DejaVuSans-73" x="1528.939453"/>
     </g>
    </g>
   </g>
   <g id="line2d_33">
    <defs>
     <path id="m782029c090" d="M 0 1.5 
C 0.397805 1.5 0.77937 1.341951 1.06066 1.06066 
C 1.341951 0.77937 1.5 0.397805 1.5 0 
C 1.5 -0.397805 1.341951 -0.77937 1.06066 -1.06066 
C 0.77937 -1.341951 0.397805 -1.5 0 -1.5 
C -0.397805 -1.5 -0.77937 -1.341951 -1.06066 -1.06066 
C -1.341951 -0.77937 -1.5 -0.397805 -1.5 0 
C -1.5 0.397805 -1.341951 0.77937 -1.06066 1.06066 
C -0.77937 1.341951 -0.397805 1.5 0 1.5 
z
" style="stroke: #f5deb3"/>
    </defs>
    <g>
     <use xlink:href="#m782029c090" x="138.718057" y="27.648" style="fill: #f5deb3; stroke: #f5deb3"/>
     <use xlink:href="#m782029c090" x="138.718057" y="27.648" style="fill: #f5deb3; stroke: #f5deb3"/>
    </g>
   </g>
   <g id="line2d_34">
    <defs>
     <path id="m772ed8438c" d="M 0 1.5 
C 0.397805 1.5 0.77937 1.341951 1.06066 1.06066 
C 1.341951 0.77937 1.5 0.397805 1.5 0 
C 1.5 -0.397805 1.341951 -0.77937 1.06066 -1.06066 
C 0.77937 -1.341951 0.397805 -1.5 0 -1.5 
C -0.397805 -1.5 -0.77937 -1.341951 -1.06066 -1.06066 
C -1.341951 -0.77937 -1.5 -0.397805 -1.5 0 
C -1.5 0.397805 -1.341951 0.77937 -1.06066 1.06066 
C -0.77937 1.341951 -0.397805 1.5 0 1.5 
z
" style="stroke: #000080"/>
    </defs>
    <g>
     <use xlink:href="#m772ed8438c" x="172.024567" y="27.648" style="fill: #000080; stroke: #000080"/>
     <use xlink:href="#m772ed8438c" x="172.024567" y="27.648" style="fill: #000080; stroke: #000080"/>
    </g>
   </g>
   <g id="line2d_35">
    <path d="M 27.323974 298.944 
L 27.323974 282.985412 
L 117.848632 282.985412 
L 117.848632 281.921506 
L 118.000953 281.921506 
L 118.000953 279.793694 
L 118.152051 279.793694 
L 118.152051 277.665882 
L 119.459944 277.665882 
L 119.459944 276.601976 
L 120.550775 276.601976 
L 120.550775 275.538071 
L 122.559246 275.538071 
L 122.559246 273.410259 
L 124.046648 273.410259 
L 124.046648 270.218541 
L 124.588805 270.218541 
L 124.588805 269.154635 
L 125.115773 269.154635 
L 125.115773 268.090729 
L 126.517282 268.090729 
L 126.517282 267.026824 
L 127.273627 267.026824 
L 127.273627 263.835106 
L 128.528195 263.835106 
L 128.528195 262.7712 
L 129.7043 262.7712 
L 129.7043 261.707294 
L 131.783764 261.707294 
L 131.783764 260.643388 
L 134.176839 260.643388 
L 134.176839 259.579482 
L 135.835047 259.579482 
L 135.835047 258.515576 
L 136.413909 258.515576 
L 136.413909 257.451671 
L 139.700607 257.451671 
L 139.700607 256.387765 
L 140.49723 256.387765 
L 140.49723 255.323859 
L 141.610664 255.323859 
L 141.610664 254.259953 
L 143.850356 254.259953 
L 143.850356 253.196047 
L 145.326529 253.196047 
L 145.326529 252.132141 
L 146.362288 252.132141 
L 146.362288 251.068235 
L 147.1517 251.068235 
L 147.1517 250.004329 
L 149.281288 250.004329 
L 149.31003 247.876518 
L 149.595059 247.876518 
L 149.595059 246.812612 
L 150.985103 246.812612 
L 150.985103 245.748706 
L 151.782431 245.748706 
L 151.782431 244.6848 
L 152.882835 244.6848 
L 152.906572 242.556988 
L 153.118868 242.556988 
L 153.118868 241.493082 
L 153.490466 241.493082 
L 153.490466 240.429176 
L 153.696309 240.429176 
L 153.696309 239.365271 
L 154.497869 239.365271 
L 154.497869 238.301365 
L 155.391799 238.301365 
L 155.454055 236.173553 
L 155.843627 236.173553 
L 155.843627 235.109647 
L 156.125604 235.109647 
L 156.125604 234.045741 
L 156.599372 234.045741 
L 156.638319 231.917929 
L 156.8511 231.917929 
L 156.8511 230.854024 
L 157.475372 230.854024 
L 157.475372 229.790118 
L 157.660526 229.790118 
L 157.660526 228.726212 
L 158.115593 228.726212 
L 158.115593 227.662306 
L 158.312387 227.662306 
L 158.312387 226.5984 
L 158.52475 226.5984 
L 158.52475 225.534494 
L 158.925196 225.534494 
L 158.925196 224.470588 
L 159.164837 224.470588 
L 159.164837 222.342776 
L 159.283522 222.342776 
L 159.283522 221.278871 
L 159.750914 221.278871 
L 159.750914 220.214965 
L 159.915064 220.214965 
L 159.915064 219.151059 
L 160.190875 219.151059 
L 160.255188 215.959341 
L 160.478568 215.959341 
L 160.510264 213.831529 
L 160.839886 213.831529 
L 160.917524 210.639812 
L 161.13322 210.639812 
L 161.13322 209.575906 
L 161.285788 209.575906 
L 161.376738 206.384188 
L 161.512345 206.384188 
L 161.55733 204.256376 
L 161.646981 204.256376 
L 161.646981 200.000753 
L 161.928087 200.000753 
L 161.928087 198.936847 
L 162.088932 198.936847 
L 162.190578 196.809035 
L 162.349204 196.809035 
L 162.349204 195.745129 
L 162.492258 195.745129 
L 162.492258 192.553412 
L 162.605924 192.553412 
L 162.605924 189.361694 
L 162.775144 189.361694 
L 162.775144 188.297788 
L 162.942856 188.297788 
L 163.053839 184.042165 
L 163.205379 184.042165 
L 163.232801 181.914353 
L 163.3965 181.914353 
L 163.3965 180.850447 
L 163.531835 180.850447 
L 163.625994 177.658729 
L 163.679588 177.658729 
L 163.679588 173.403106 
L 163.839461 173.403106 
L 163.879217 169.147482 
L 164.011136 169.147482 
L 164.011136 168.083576 
L 164.194282 168.083576 
L 164.194282 167.019671 
L 164.311084 167.019671 
L 164.388551 161.700141 
L 164.619057 161.700141 
L 164.669899 159.572329 
L 164.733259 159.572329 
L 164.796406 155.316706 
L 165.009535 155.316706 
L 165.109001 145.741553 
L 165.121398 145.741553 
L 165.121398 144.677647 
L 165.244914 144.677647 
L 165.30637 141.485929 
L 165.489541 141.485929 
L 165.489541 137.230306 
L 165.755007 137.230306 
L 165.790918 131.910776 
L 165.886348 131.910776 
L 165.886348 130.846871 
L 166.122826 130.846871 
L 166.228279 125.527341 
L 166.309891 125.527341 
L 166.40273 123.399529 
L 166.460523 123.399529 
L 166.552624 118.08 
L 166.678531 118.08 
L 166.746854 113.824376 
L 166.995269 113.824376 
L 167.062453 110.632659 
L 167.284683 110.632659 
L 167.394821 106.377035 
L 167.4058 106.377035 
L 167.427738 103.185318 
L 167.689013 103.185318 
L 167.732209 94.674071 
L 167.839765 94.674071 
L 167.904005 90.418447 
L 167.957371 90.418447 
L 167.957371 86.162824 
L 168.17987 86.162824 
L 168.1904 81.9072 
L 168.368511 81.9072 
L 168.368511 80.843294 
L 168.544952 80.843294 
L 168.596533 75.523765 
L 168.709515 75.523765 
L 168.781062 73.395953 
L 168.842171 73.395953 
L 168.842171 72.332047 
L 168.953693 72.332047 
L 169.044448 68.076424 
L 169.333939 68.076424 
L 169.403154 63.8208 
L 169.452437 63.8208 
L 169.452437 61.692988 
L 169.648291 61.692988 
L 169.648291 60.629082 
L 169.764832 60.629082 
L 169.764832 59.565176 
L 169.880655 59.565176 
L 169.986203 55.309553 
L 170.214455 55.309553 
L 170.242793 48.926118 
L 170.402572 48.926118 
L 170.402572 45.7344 
L 170.662815 45.7344 
L 170.736514 40.414871 
L 171.046551 40.414871 
L 171.046551 39.350965 
L 171.163758 39.350965 
L 171.226568 36.159247 
L 171.315934 36.159247 
L 171.369351 32.967529 
L 171.440338 32.967529 
L 171.440338 31.903624 
L 171.625414 31.903624 
L 171.625414 30.839718 
L 172.024567 30.839718 
L 172.024567 27.648 
L 360.8064 27.648 
L 360.8064 27.648 
" style="fill: none; stroke: #000080; stroke-width: 1.5; stroke-linecap: square"/>
   </g>
   <g id="line2d_36">
    <defs>
     <path id="m45ff92db2b" d="M 0 6 
C 1.591219 6 3.117479 5.367802 4.242641 4.242641 
C 5.367802 3.117479 6 1.591219 6 0 
C 6 -1.591219 5.367802 -3.117479 4.242641 -4.242641 
C 3.117479 -5.367802 1.591219 -6 0 -6 
C -1.591219 -6 -3.117479 -5.367802 -4.242641 -4.242641 
C -5.367802 -3.117479 -6 -1.591219 -6 0 
C -6 1.591219 -5.367802 3.117479 -4.242641 4.242641 
C -3.117479 5.367802 -1.591219 6 0 6 
z
" style="stroke: #000080; stroke-width: 1.5"/>
    </defs>
    <g>
     <use xlink:href="#m45ff92db2b" x="126.517282" y="267.026824" style="fill-opacity: 0; stroke: #000080; stroke-width: 1.5"/>
     <use xlink:href="#m45ff92db2b" x="166.678531" y="118.08" style="fill-opacity: 0; stroke: #000080; stroke-width: 1.5"/>
     <use xlink:href="#m45ff92db2b" x="172.024567" y="30.839718" style="fill-opacity: 0; stroke: #000080; stroke-width: 1.5"/>
     <use xlink:href="#m45ff92db2b" x="172.024567" y="27.648" style="fill-opacity: 0; stroke: #000080; stroke-width: 1.5"/>
     <use xlink:href="#m45ff92db2b" x="172.024567" y="27.648" style="fill-opacity: 0; stroke: #000080; stroke-width: 1.5"/>
     <use xlink:href="#m45ff92db2b" x="360.8064" y="27.648" style="fill-opacity: 0; stroke: #000080; stroke-width: 1.5"/>
    </g>
   </g>
   <g id="line2d_37">
    <path style="fill: none; stroke: #000080; stroke-width: 1.5; stroke-linecap: square"/>
    <g/>
   </g>
   <g id="line2d_38">
    <defs>
     <path id="m3a169271dc" d="M 0 1.5 
C 0.397805 1.5 0.77937 1.341951 1.06066 1.06066 
C 1.341951 0.77937 1.5 0.397805 1.5 0 
C 1.5 -0.397805 1.341951 -0.77937 1.06066 -1.06066 
C 0.77937 -1.341951 0.397805 -1.5 0 -1.5 
C -0.397805 -1.5 -0.77937 -1.341951 -1.06066 -1.06066 
C -1.341951 -0.77937 -1.5 -0.397805 -1.5 0 
C -1.5 0.397805 -1.341951 0.77937 -1.06066 1.06066 
C -0.77937 1.341951 -0.397805 1.5 0 1.5 
z
" style="stroke: #ff00ff"/>
    </defs>
    <g>
     <use xlink:href="#m3a169271dc" x="169.589749" y="27.648" style="fill: #ff00ff; stroke: #ff00ff"/>
     <use xlink:href="#m3a169271dc" x="169.589749" y="27.648" style="fill: #ff00ff; stroke: #ff00ff"/>
    </g>
   </g>
   <g id="line2d_39">
    <path d="M 27.323974 298.944 
L 27.323974 282.985412 
L 105.559021 282.985412 
L 105.559021 280.8576 
L 106.137884 280.8576 
L 106.137884 279.793694 
L 109.756698 279.793694 
L 109.756698 278.729788 
L 110.449226 278.729788 
L 110.449226 276.601976 
L 112.790402 276.601976 
L 112.790402 274.474165 
L 115.575511 274.474165 
L 115.575511 273.410259 
L 116.419219 273.410259 
L 116.419219 272.346353 
L 116.583514 272.346353 
L 116.583514 270.218541 
L 117.384126 270.218541 
L 117.384126 269.154635 
L 119.319033 269.154635 
L 119.319033 268.090729 
L 120.013265 268.090729 
L 120.013265 267.026824 
L 121.329295 267.026824 
L 121.329295 265.962918 
L 121.954321 265.962918 
L 121.954321 264.899012 
L 122.076872 264.899012 
L 122.076872 263.835106 
L 122.913079 263.835106 
L 122.913079 262.7712 
L 123.713691 262.7712 
L 123.713691 261.707294 
L 124.481616 261.707294 
L 124.481616 260.643388 
L 125.526971 260.643388 
L 125.526971 259.579482 
L 126.127391 259.579482 
L 126.127391 258.515576 
L 127.366067 258.515576 
L 127.366067 257.451671 
L 129.041269 257.451671 
L 129.041269 256.387765 
L 131.41562 256.387765 
L 131.41562 255.323859 
L 131.856536 255.323859 
L 131.856536 254.259953 
L 134.495147 254.259953 
L 134.495147 253.196047 
L 136.356818 253.196047 
L 136.356818 252.132141 
L 141.782854 252.132141 
L 141.782854 251.068235 
L 143.696162 251.068235 
L 143.696162 250.004329 
L 143.811926 250.004329 
L 143.811926 248.940424 
L 143.926981 248.940424 
L 143.926981 247.876518 
L 144.2304 247.876518 
L 144.2304 246.812612 
L 144.931992 246.812612 
L 144.931992 245.748706 
L 146.761135 245.748706 
L 146.761135 244.6848 
L 147.439393 244.6848 
L 147.439393 243.620894 
L 148.124658 243.620894 
L 148.124658 242.556988 
L 148.458151 242.556988 
L 148.458151 241.493082 
L 149.31003 241.493082 
L 149.31003 240.429176 
L 149.931489 240.429176 
L 149.959255 238.301365 
L 150.179921 238.301365 
L 150.179921 237.237459 
L 150.613636 237.237459 
L 150.613636 236.173553 
L 151.063758 236.173553 
L 151.063758 235.109647 
L 152.401695 235.109647 
L 152.426047 232.981835 
L 152.547334 232.981835 
L 152.571498 230.854024 
L 153.305585 230.854024 
L 153.305585 229.790118 
L 153.444416 229.790118 
L 153.444416 228.726212 
L 153.741748 228.726212 
L 153.741748 227.662306 
L 154.907535 227.662306 
L 155.013876 225.534494 
L 155.056244 225.534494 
L 155.056244 224.470588 
L 155.371001 224.470588 
L 155.474761 221.278871 
L 155.884169 221.278871 
L 155.884169 220.214965 
L 156.225294 220.214965 
L 156.304668 217.023247 
L 156.715973 217.023247 
L 156.715973 215.959341 
L 157.099504 215.959341 
L 157.099504 213.831529 
L 157.623641 213.831529 
L 157.623641 212.767624 
L 157.752425 212.767624 
L 157.752425 211.703718 
L 158.061563 211.703718 
L 158.151527 208.512 
L 158.838864 208.512 
L 158.942415 205.320282 
L 159.198823 205.320282 
L 159.300416 202.128565 
L 159.50197 202.128565 
L 159.568678 200.000753 
L 159.618554 200.000753 
L 159.68485 196.809035 
L 159.833168 196.809035 
L 159.833168 194.681224 
L 160.126341 194.681224 
L 160.126341 193.617318 
L 160.446818 193.617318 
L 160.541906 191.489506 
L 160.652238 191.489506 
L 160.746296 188.297788 
L 160.994842 188.297788 
L 160.994842 186.169976 
L 161.422049 186.169976 
L 161.482294 180.850447 
L 161.572302 180.850447 
L 161.602209 177.658729 
L 161.736206 177.658729 
L 161.839769 174.467012 
L 161.854518 174.467012 
L 161.854518 173.403106 
L 162.015991 173.403106 
L 162.05979 171.275294 
L 162.205054 171.275294 
L 162.291676 169.147482 
L 162.363559 169.147482 
L 162.406556 165.955765 
L 162.478002 165.955765 
L 162.534963 163.827953 
L 162.718906 163.827953 
L 162.775144 159.572329 
L 162.831214 159.572329 
L 162.901068 156.380612 
L 162.998429 156.380612 
L 162.998429 154.2528 
L 163.205379 154.2528 
L 163.27386 148.933271 
L 163.369315 148.933271 
L 163.369315 147.869365 
L 163.545315 147.869365 
L 163.625994 141.485929 
L 163.666204 141.485929 
L 163.692963 139.358118 
L 163.82619 139.358118 
L 163.879217 137.230306 
L 163.95848 137.230306 
L 164.037409 134.038588 
L 164.102932 134.038588 
L 164.142137 131.910776 
L 164.220301 131.910776 
L 164.324018 121.271718 
L 164.336942 121.271718 
L 164.336942 120.207812 
L 164.568077 120.207812 
L 164.568077 119.143906 
L 164.695268 119.143906 
L 164.796406 114.888282 
L 164.884457 114.888282 
L 164.922068 112.760471 
L 165.009535 112.760471 
L 165.084184 108.504847 
L 165.146166 108.504847 
L 165.195605 104.249224 
L 165.30637 104.249224 
L 165.392072 94.674071 
L 165.586508 94.674071 
L 165.670946 88.290635 
L 165.731028 88.290635 
L 165.743021 85.098918 
L 165.850619 85.098918 
L 165.957604 81.9072 
L 165.969454 81.9072 
L 166.063985 78.715482 
L 166.087543 78.715482 
L 166.087543 76.587671 
L 166.204896 76.587671 
L 166.204896 72.332047 
L 166.40273 72.332047 
L 166.483591 65.948612 
L 166.552624 65.948612 
L 166.552624 63.8208 
L 166.758217 63.8208 
L 166.814929 59.565176 
L 166.871471 59.565176 
L 166.972821 57.437365 
L 167.140533 57.437365 
L 167.229371 54.245647 
L 167.262578 54.245647 
L 167.339833 51.053929 
L 167.59146 51.053929 
L 167.689013 47.862212 
L 167.871912 47.862212 
L 167.978675 44.670494 
L 168.1904 44.670494 
L 168.1904 42.542682 
L 168.368511 42.542682 
L 168.4725 39.350965 
L 168.503585 39.350965 
L 168.503585 38.287059 
L 168.729985 38.287059 
L 168.811641 34.031435 
L 168.882801 34.031435 
L 168.882801 32.967529 
L 169.004166 32.967529 
L 169.004166 31.903624 
L 169.15478 31.903624 
L 169.15478 30.839718 
L 169.491772 30.839718 
L 169.589749 27.648 
L 360.8064 27.648 
L 360.8064 27.648 
" style="fill: none; stroke: #ff00ff; stroke-width: 1.5; stroke-linecap: square"/>
   </g>
   <g id="line2d_40">
    <defs>
     <path id="m8f0ad4b856" d="M -0 8.485281 
L 5.091169 0 
L 0 -8.485281 
L -5.091169 -0 
z
" style="stroke: #ff00ff; stroke-width: 1.5; stroke-linejoin: miter"/>
    </defs>
    <g>
     <use xlink:href="#m8f0ad4b856" x="162.831214" y="159.572329" style="fill-opacity: 0; stroke: #ff00ff; stroke-width: 1.5; stroke-linejoin: miter"/>
     <use xlink:href="#m8f0ad4b856" x="169.589749" y="28.711906" style="fill-opacity: 0; stroke: #ff00ff; stroke-width: 1.5; stroke-linejoin: miter"/>
     <use xlink:href="#m8f0ad4b856" x="169.589749" y="27.648" style="fill-opacity: 0; stroke: #ff00ff; stroke-width: 1.5; stroke-linejoin: miter"/>
     <use xlink:href="#m8f0ad4b856" x="169.589749" y="27.648" style="fill-opacity: 0; stroke: #ff00ff; stroke-width: 1.5; stroke-linejoin: miter"/>
     <use xlink:href="#m8f0ad4b856" x="360.8064" y="27.648" style="fill-opacity: 0; stroke: #ff00ff; stroke-width: 1.5; stroke-linejoin: miter"/>
    </g>
   </g>
   <g id="line2d_41">
    <path style="fill: none; stroke: #ff00ff; stroke-width: 1.5; stroke-linecap: square"/>
    <g/>
   </g>
   <g id="line2d_42">
    <defs>
     <path id="m39dba55851" d="M 0 1.5 
C 0.397805 1.5 0.77937 1.341951 1.06066 1.06066 
C 1.341951 0.77937 1.5 0.397805 1.5 0 
C 1.5 -0.397805 1.341951 -0.77937 1.06066 -1.06066 
C 0.77937 -1.341951 0.397805 -1.5 0 -1.5 
C -0.397805 -1.5 -0.77937 -1.341951 -1.06066 -1.06066 
C -1.341951 -0.77937 -1.5 -0.397805 -1.5 0 
C -1.5 0.397805 -1.341951 0.77937 -1.06066 1.06066 
C -0.77937 1.341951 -0.397805 1.5 0 1.5 
z
" style="stroke: #ff7500"/>
    </defs>
    <g>
     <use xlink:href="#m39dba55851" x="174.080256" y="27.648" style="fill: #ff7500; stroke: #ff7500"/>
     <use xlink:href="#m39dba55851" x="174.080256" y="27.648" style="fill: #ff7500; stroke: #ff7500"/>
    </g>
   </g>
   <g id="line2d_43">
    <path d="M 27.323974 298.944 
L 27.323974 282.985412 
L 108.791791 282.985412 
L 108.791791 281.921506 
L 109.037698 281.921506 
L 109.037698 279.793694 
L 111.54963 279.793694 
L 111.54963 276.601976 
L 112.180244 276.601976 
L 112.180244 275.538071 
L 113.954374 275.538071 
L 113.954374 274.474165 
L 117.384126 274.474165 
L 117.384126 273.410259 
L 120.944062 273.410259 
L 120.944062 272.346353 
L 121.706797 272.346353 
L 121.706797 271.282447 
L 123.145323 271.282447 
L 123.145323 270.218541 
L 126.028642 270.218541 
L 126.028642 269.154635 
L 126.420564 269.154635 
L 126.420564 268.090729 
L 126.993549 268.090729 
L 126.993549 267.026824 
L 128.441306 267.026824 
L 128.528195 263.835106 
L 128.614685 263.835106 
L 128.614685 262.7712 
L 129.458394 262.7712 
L 129.458394 261.707294 
L 130.027253 261.707294 
L 130.027253 260.643388 
L 130.501519 260.643388 
L 130.501519 259.579482 
L 133.918257 259.579482 
L 133.918257 258.515576 
L 135.35878 258.515576 
L 135.35878 257.451671 
L 136.068734 257.451671 
L 136.068734 256.387765 
L 144.079302 256.387765 
L 144.079302 255.323859 
L 144.85936 255.323859 
L 144.85936 254.259953 
L 145.954802 254.259953 
L 145.954802 252.132141 
L 146.595975 252.132141 
L 146.595975 251.068235 
L 149.42456 251.068235 
L 149.42456 250.004329 
L 150.316534 250.004329 
L 150.316534 248.940424 
L 151.32359 248.940424 
L 151.426526 246.812612 
L 151.95789 246.812612 
L 151.95789 245.748706 
L 152.643804 245.748706 
L 152.643804 244.6848 
L 153.328795 244.6848 
L 153.328795 243.620894 
L 154.234459 243.620894 
L 154.322673 241.493082 
L 154.497869 241.493082 
L 154.497869 240.429176 
L 155.098517 240.429176 
L 155.098517 239.365271 
L 155.371001 239.365271 
L 155.371001 238.301365 
L 156.085579 238.301365 
L 156.085579 237.237459 
L 156.657763 237.237459 
L 156.657763 236.173553 
L 157.099504 236.173553 
L 157.175281 234.045741 
L 157.30716 234.045741 
L 157.30716 232.981835 
L 158.133569 232.981835 
L 158.223191 230.854024 
L 158.330176 230.854024 
L 158.330176 229.790118 
L 158.976805 229.790118 
L 158.976805 228.726212 
L 159.300416 228.726212 
L 159.300416 227.662306 
L 159.68485 227.662306 
L 159.68485 226.5984 
L 159.816746 226.5984 
L 159.816746 225.534494 
L 160.093991 225.534494 
L 160.093991 224.470588 
L 160.23913 224.470588 
L 160.23913 223.406682 
L 160.430923 223.406682 
L 160.541906 221.278871 
L 160.589271 221.278871 
L 160.589271 220.214965 
L 160.902022 220.214965 
L 160.902022 219.151059 
L 161.025681 219.151059 
L 161.025681 218.087153 
L 161.224909 218.087153 
L 161.240147 215.959341 
L 161.376738 215.959341 
L 161.422049 213.831529 
L 161.497325 213.831529 
L 161.512345 211.703718 
L 161.617145 211.703718 
L 161.617145 210.639812 
L 162.088932 210.639812 
L 162.088932 208.512 
L 162.219518 208.512 
L 162.219518 207.448094 
L 162.334839 207.448094 
L 162.406556 205.320282 
L 162.520739 205.320282 
L 162.534963 202.128565 
L 162.676617 202.128565 
L 162.775144 200.000753 
L 162.789177 200.000753 
L 162.789177 198.936847 
L 162.970663 198.936847 
L 162.970663 197.872941 
L 163.136649 197.872941 
L 163.232801 195.745129 
L 163.27386 195.745129 
L 163.328465 193.617318 
L 163.572247 193.617318 
L 163.639407 191.489506 
L 163.746367 191.489506 
L 163.852722 187.233882 
L 163.971658 187.233882 
L 163.997986 180.850447 
L 164.116009 180.850447 
L 164.116009 179.786541 
L 164.233297 179.786541 
L 164.272231 176.594824 
L 164.388551 176.594824 
L 164.478528 171.275294 
L 164.580835 171.275294 
L 164.580835 170.211388 
L 164.720604 170.211388 
L 164.720604 168.083576 
L 165.034451 168.083576 
L 165.084184 164.891859 
L 165.257222 164.891859 
L 165.367626 159.572329 
L 165.574415 159.572329 
L 165.64686 157.444518 
L 165.766985 157.444518 
L 165.766985 155.316706 
L 165.886348 155.316706 
L 165.969454 153.188894 
L 166.028591 153.188894 
L 166.122826 148.933271 
L 166.193193 148.933271 
L 166.263299 145.741553 
L 166.309891 145.741553 
L 166.414303 142.549835 
L 166.448979 142.549835 
L 166.552624 139.358118 
L 166.598506 139.358118 
L 166.598506 138.294212 
L 166.8036 138.294212 
L 166.8036 137.230306 
L 166.916583 137.230306 
L 167.006483 127.655153 
L 167.051272 127.655153 
L 167.129398 120.207812 
L 167.218289 120.207812 
L 167.229371 115.952188 
L 167.361848 115.952188 
L 167.44965 111.696565 
L 167.580589 111.696565 
L 167.580589 109.568753 
L 167.742992 109.568753 
L 167.850487 105.313129 
L 167.925369 105.313129 
L 167.989318 101.057506 
L 168.169334 101.057506 
L 168.263944 94.674071 
L 168.430973 94.674071 
L 168.493229 92.546259 
L 168.617126 92.546259 
L 168.668509 86.162824 
L 168.79126 86.162824 
L 168.811641 82.971106 
L 169.034386 82.971106 
L 169.034386 80.843294 
L 169.224656 80.843294 
L 169.314117 78.715482 
L 169.343842 78.715482 
L 169.343842 77.651576 
L 169.511408 77.651576 
L 169.619042 71.268141 
L 169.628797 71.268141 
L 169.628797 69.140329 
L 170.033985 69.140329 
L 170.033985 67.012518 
L 170.19554 67.012518 
L 170.28051 63.8208 
L 170.327551 63.8208 
L 170.430628 60.629082 
L 170.635104 60.629082 
L 170.635104 59.565176 
L 170.800764 59.565176 
L 170.864796 57.437365 
L 170.983137 57.437365 
L 171.073664 48.926118 
L 171.502232 48.926118 
L 171.563924 45.7344 
L 171.826049 45.7344 
L 171.90398 41.478776 
L 172.305787 41.478776 
L 172.305787 40.414871 
L 172.732295 40.414871 
L 172.83126 37.223153 
L 173.060174 37.223153 
L 173.060174 32.967529 
L 173.699269 32.967529 
L 173.699269 29.775812 
L 173.941196 29.775812 
L 173.941196 28.711906 
L 174.080256 28.711906 
L 174.080256 27.648 
L 360.8064 27.648 
L 360.8064 27.648 
" style="fill: none; stroke: #ff7500; stroke-width: 1.5; stroke-linecap: square"/>
   </g>
   <g id="line2d_44">
    <defs>
     <path id="m3cddde4d8a" d="M 0 -6 
L -1.347084 -1.854102 
L -5.706339 -1.854102 
L -2.179628 0.708204 
L -3.526712 4.854102 
L -0 2.291796 
L 3.526712 4.854102 
L 2.179628 0.708204 
L 5.706339 -1.854102 
L 1.347084 -1.854102 
z
" style="stroke: #ff7500; stroke-width: 1.5; stroke-linejoin: bevel"/>
    </defs>
    <g>
     <use xlink:href="#m3cddde4d8a" x="156.085579" y="237.237459" style="fill-opacity: 0; stroke: #ff7500; stroke-width: 1.5; stroke-linejoin: bevel"/>
     <use xlink:href="#m3cddde4d8a" x="167.742992" y="107.440941" style="fill-opacity: 0; stroke: #ff7500; stroke-width: 1.5; stroke-linejoin: bevel"/>
     <use xlink:href="#m3cddde4d8a" x="174.080256" y="27.648" style="fill-opacity: 0; stroke: #ff7500; stroke-width: 1.5; stroke-linejoin: bevel"/>
     <use xlink:href="#m3cddde4d8a" x="174.080256" y="27.648" style="fill-opacity: 0; stroke: #ff7500; stroke-width: 1.5; stroke-linejoin: bevel"/>
     <use xlink:href="#m3cddde4d8a" x="174.080256" y="27.648" style="fill-opacity: 0; stroke: #ff7500; stroke-width: 1.5; stroke-linejoin: bevel"/>
     <use xlink:href="#m3cddde4d8a" x="360.8064" y="27.648" style="fill-opacity: 0; stroke: #ff7500; stroke-width: 1.5; stroke-linejoin: bevel"/>
    </g>
   </g>
   <g id="line2d_45">
    <path style="fill: none; stroke: #ff7500; stroke-width: 1.5; stroke-linecap: square"/>
    <g/>
   </g>
   <g id="line2d_46">
    <defs>
     <path id="m25efdda3ac" d="M 0 1.5 
C 0.397805 1.5 0.77937 1.341951 1.06066 1.06066 
C 1.341951 0.77937 1.5 0.397805 1.5 0 
C 1.5 -0.397805 1.341951 -0.77937 1.06066 -1.06066 
C 0.77937 -1.341951 0.397805 -1.5 0 -1.5 
C -0.397805 -1.5 -0.77937 -1.341951 -1.06066 -1.06066 
C -1.341951 -0.77937 -1.5 -0.397805 -1.5 0 
C -1.5 0.397805 -1.341951 0.77937 -1.06066 1.06066 
C -0.77937 1.341951 -0.397805 1.5 0 1.5 
z
" style="stroke: #6495ed"/>
    </defs>
    <g>
     <use xlink:href="#m25efdda3ac" x="174.819834" y="27.648" style="fill: #6495ed; stroke: #6495ed"/>
     <use xlink:href="#m25efdda3ac" x="174.819834" y="27.648" style="fill: #6495ed; stroke: #6495ed"/>
    </g>
   </g>
   <g id="line2d_47">
    <path d="M 27.323974 298.944 
L 27.323974 282.985412 
L 116.253478 282.985412 
L 116.253478 281.921506 
L 118.74459 281.921506 
L 118.74459 279.793694 
L 120.944062 279.793694 
L 120.944062 277.665882 
L 122.19863 277.665882 
L 122.19863 275.538071 
L 123.4884 275.538071 
L 123.4884 274.474165 
L 124.046648 274.474165 
L 124.046648 273.410259 
L 124.481616 273.410259 
L 124.481616 272.346353 
L 124.801367 272.346353 
L 124.801367 271.282447 
L 125.011554 271.282447 
L 125.011554 268.090729 
L 125.829577 268.090729 
L 125.829577 267.026824 
L 126.225624 267.026824 
L 126.225624 265.962918 
L 127.087372 265.962918 
L 127.087372 260.643388 
L 128.089678 260.643388 
L 128.089678 259.579482 
L 128.354013 259.579482 
L 128.354013 258.515576 
L 129.292652 258.515576 
L 129.292652 257.451671 
L 130.579414 257.451671 
L 130.579414 256.387765 
L 134.240933 256.387765 
L 134.240933 255.323859 
L 135.717106 255.323859 
L 135.717106 254.259953 
L 138.868751 254.259953 
L 138.868751 253.196047 
L 139.985636 253.196047 
L 139.985636 252.132141 
L 142.661862 252.132141 
L 142.661862 251.068235 
L 143.811926 251.068235 
L 143.811926 250.004329 
L 144.267986 250.004329 
L 144.267986 248.940424 
L 145.503164 248.940424 
L 145.503164 247.876518 
L 147.216013 247.876518 
L 147.216013 246.812612 
L 147.940229 246.812612 
L 147.940229 245.748706 
L 149.538397 245.748706 
L 149.595059 243.620894 
L 150.262008 243.620894 
L 150.262008 242.556988 
L 150.506141 242.556988 
L 150.559965 240.429176 
L 151.907925 240.429176 
L 151.907925 239.365271 
L 152.057422 239.365271 
L 152.057422 238.301365 
L 152.977604 238.301365 
L 152.977604 237.237459 
L 153.467455 237.237459 
L 153.467455 236.173553 
L 153.696309 236.173553 
L 153.696309 235.109647 
L 154.168026 235.109647 
L 154.168026 232.981835 
L 154.388563 232.981835 
L 154.388563 231.917929 
L 154.606544 231.917929 
L 154.606544 230.854024 
L 154.843441 230.854024 
L 154.843441 229.790118 
L 155.203786 229.790118 
L 155.203786 228.726212 
L 155.474761 228.726212 
L 155.474761 227.662306 
L 155.823323 227.662306 
L 155.904407 223.406682 
L 155.964992 223.406682 
L 155.964992 222.342776 
L 156.560344 222.342776 
L 156.579868 220.214965 
L 157.004352 220.214965 
L 157.004352 219.151059 
L 157.605171 219.151059 
L 157.605171 218.087153 
L 157.734081 218.087153 
L 157.770751 215.959341 
L 158.2053 215.959341 
L 158.25892 213.831529 
L 158.347948 213.831529 
L 158.347948 211.703718 
L 158.559911 211.703718 
L 158.559911 210.639812 
L 158.907961 210.639812 
L 158.907961 209.575906 
L 159.028273 209.575906 
L 159.079601 206.384188 
L 159.451784 206.384188 
L 159.451784 205.320282 
L 159.63515 205.320282 
L 159.717911 203.192471 
L 159.833168 203.192471 
L 159.931401 200.000753 
L 160.012872 200.000753 
L 160.012872 198.936847 
L 160.142495 198.936847 
L 160.206974 196.809035 
L 160.351247 196.809035 
L 160.351247 195.745129 
L 160.478568 195.745129 
L 160.478568 194.681224 
L 160.746296 194.681224 
L 160.746296 193.617318 
L 161.102557 193.617318 
L 161.148532 191.489506 
L 161.422049 191.489506 
L 161.512345 187.233882 
L 161.706511 187.233882 
L 161.706511 185.106071 
L 161.97209 185.106071 
L 162.074367 179.786541 
L 162.132562 179.786541 
L 162.132562 178.722635 
L 162.506504 178.722635 
L 162.605924 176.594824 
L 162.6625 176.594824 
L 162.690724 173.403106 
L 162.845206 173.403106 
L 162.845206 172.3392 
L 162.970663 172.3392 
L 163.053839 170.211388 
L 163.232801 170.211388 
L 163.342092 168.083576 
L 163.3965 168.083576 
L 163.3965 167.019671 
L 163.545315 167.019671 
L 163.639407 163.827953 
L 163.865975 163.827953 
L 163.879217 161.700141 
L 164.063646 161.700141 
L 164.102932 158.508424 
L 164.194282 158.508424 
L 164.233297 155.316706 
L 164.375662 155.316706 
L 164.375662 154.2528 
L 164.542535 154.2528 
L 164.55531 152.124988 
L 164.669899 152.124988 
L 164.669899 151.061082 
L 164.922068 151.061082 
L 165.021997 148.933271 
L 165.084184 148.933271 
L 165.183257 145.741553 
L 165.244914 145.741553 
L 165.330896 141.485929 
L 165.465221 141.485929 
L 165.574415 139.358118 
L 165.64686 139.358118 
L 165.64686 138.294212 
L 165.778956 138.294212 
L 165.814821 136.1664 
L 165.969454 136.1664 
L 166.063985 131.910776 
L 166.228279 131.910776 
L 166.309891 129.782965 
L 166.379563 129.782965 
L 166.47206 124.463435 
L 166.541136 124.463435 
L 166.598506 122.335624 
L 166.780922 122.335624 
L 166.780922 117.016094 
L 166.916583 117.016094 
L 166.984048 114.888282 
L 167.173896 114.888282 
L 167.185004 112.760471 
L 167.460596 112.760471 
L 167.460596 111.696565 
L 167.624034 111.696565 
L 167.624034 106.377035 
L 167.775305 106.377035 
L 167.882616 98.929694 
L 167.936043 98.929694 
L 168.021211 93.610165 
L 168.23246 93.610165 
L 168.295375 91.482353 
L 168.378936 91.482353 
L 168.389355 88.290635 
L 168.586228 88.290635 
L 168.678769 85.098918 
L 168.719753 85.098918 
L 168.760648 80.843294 
L 168.963798 80.843294 
L 168.963798 79.779388 
L 169.184759 79.779388 
L 169.204718 77.651576 
L 169.491772 77.651576 
L 169.501592 73.395953 
L 169.784185 73.395953 
L 169.851766 69.140329 
L 170.242793 69.140329 
L 170.252229 63.8208 
L 170.579558 63.8208 
L 170.579558 62.756894 
L 170.745706 62.756894 
L 170.800764 60.629082 
L 170.92861 60.629082 
L 170.92861 59.565176 
L 171.064631 59.565176 
L 171.064631 58.501271 
L 171.315934 58.501271 
L 171.315934 56.373459 
L 171.721637 56.373459 
L 171.773916 53.181741 
L 171.972982 53.181741 
L 171.972982 48.926118 
L 172.880548 48.926118 
L 172.880548 47.862212 
L 173.052046 47.862212 
L 173.133165 44.670494 
L 173.318423 44.670494 
L 173.318423 43.606588 
L 173.565266 43.606588 
L 173.628445 41.478776 
L 173.762 41.478776 
L 173.762 38.287059 
L 174.05715 38.287059 
L 174.05715 36.159247 
L 174.431028 36.159247 
L 174.431028 34.031435 
L 174.544011 34.031435 
L 174.544011 31.903624 
L 174.715944 31.903624 
L 174.819834 27.648 
L 360.8064 27.648 
L 360.8064 27.648 
" style="fill: none; stroke: #6495ed; stroke-width: 1.5; stroke-linecap: square"/>
   </g>
   <g id="line2d_48">
    <defs>
     <path id="m7700781b7b" d="M -0 6 
L 6 -6 
L -6 -6 
z
" style="stroke: #6495ed; stroke-width: 1.5; stroke-linejoin: miter"/>
    </defs>
    <g>
     <use xlink:href="#m7700781b7b" x="123.4884" y="275.538071" style="fill-opacity: 0; stroke: #6495ed; stroke-width: 1.5; stroke-linejoin: miter"/>
     <use xlink:href="#m7700781b7b" x="162.132562" y="179.786541" style="fill-opacity: 0; stroke: #6495ed; stroke-width: 1.5; stroke-linejoin: miter"/>
     <use xlink:href="#m7700781b7b" x="174.819834" y="30.839718" style="fill-opacity: 0; stroke: #6495ed; stroke-width: 1.5; stroke-linejoin: miter"/>
     <use xlink:href="#m7700781b7b" x="174.819834" y="27.648" style="fill-opacity: 0; stroke: #6495ed; stroke-width: 1.5; stroke-linejoin: miter"/>
     <use xlink:href="#m7700781b7b" x="174.819834" y="27.648" style="fill-opacity: 0; stroke: #6495ed; stroke-width: 1.5; stroke-linejoin: miter"/>
     <use xlink:href="#m7700781b7b" x="360.8064" y="27.648" style="fill-opacity: 0; stroke: #6495ed; stroke-width: 1.5; stroke-linejoin: miter"/>
    </g>
   </g>
   <g id="line2d_49">
    <path style="fill: none; stroke: #6495ed; stroke-width: 1.5; stroke-linecap: square"/>
    <g/>
   </g>
   <g id="line2d_50">
    <defs>
     <path id="m8efd8283ce" d="M 0 1.5 
C 0.397805 1.5 0.77937 1.341951 1.06066 1.06066 
C 1.341951 0.77937 1.5 0.397805 1.5 0 
C 1.5 -0.397805 1.341951 -0.77937 1.06066 -1.06066 
C 0.77937 -1.341951 0.397805 -1.5 0 -1.5 
C -0.397805 -1.5 -0.77937 -1.341951 -1.06066 -1.06066 
C -1.341951 -0.77937 -1.5 -0.397805 -1.5 0 
C -1.5 0.397805 -1.341951 0.77937 -1.06066 1.06066 
C -0.77937 1.341951 -0.397805 1.5 0 1.5 
z
" style="stroke: #ff0000"/>
    </defs>
    <g>
     <use xlink:href="#m8efd8283ce" x="184.81309" y="27.648" style="fill: #ff0000; stroke: #ff0000"/>
     <use xlink:href="#m8efd8283ce" x="184.81309" y="27.648" style="fill: #ff0000; stroke: #ff0000"/>
    </g>
   </g>
   <g id="line2d_51">
    <path d="M 27.323974 298.944 
L 27.323974 282.985412 
L 98.510456 282.985412 
L 98.510456 282.630776 
L 98.933205 282.630776 
L 98.933205 282.276141 
L 104.655893 282.276141 
L 104.655893 281.921506 
L 105.559021 281.921506 
L 105.559021 281.566871 
L 106.974091 281.566871 
L 106.974091 280.8576 
L 107.244765 280.8576 
L 107.244765 280.502965 
L 110.449226 280.502965 
L 110.449226 280.148329 
L 113.186449 280.148329 
L 113.186449 279.793694 
L 113.954374 279.793694 
L 113.954374 278.729788 
L 114.510421 278.729788 
L 114.510421 278.375153 
L 115.227139 278.375153 
L 115.227139 277.665882 
L 115.402131 277.665882 
L 115.402131 277.311247 
L 116.419219 277.311247 
L 116.419219 276.601976 
L 116.746385 276.601976 
L 116.746385 275.538071 
L 117.067958 275.538071 
L 117.067958 274.474165 
L 117.384126 274.474165 
L 117.384126 274.119529 
L 117.540239 274.119529 
L 117.540239 273.764894 
L 117.695068 273.764894 
L 117.695068 273.055624 
L 117.848632 273.055624 
L 117.848632 271.991718 
L 118.000953 271.991718 
L 118.000953 271.282447 
L 118.152051 271.282447 
L 118.152051 270.927812 
L 119.459944 270.927812 
L 119.459944 270.573176 
L 120.149089 270.573176 
L 120.149089 270.218541 
L 120.41783 270.218541 
L 120.41783 269.863906 
L 120.944062 269.863906 
L 120.944062 269.509271 
L 121.581803 269.509271 
L 121.581803 269.154635 
L 122.795872 269.154635 
L 122.795872 268.8 
L 123.145323 268.8 
L 123.145323 267.381459 
L 123.374735 267.381459 
L 123.374735 267.026824 
L 123.4884 267.026824 
L 123.4884 265.253647 
L 123.601383 265.253647 
L 123.601383 264.899012 
L 123.713691 264.899012 
L 123.713691 264.544376 
L 124.046648 264.544376 
L 124.156336 263.480471 
L 124.801367 263.480471 
L 124.801367 263.125835 
L 125.322496 263.125835 
L 125.322496 262.7712 
L 125.526971 262.7712 
L 125.526971 262.416565 
L 126.225624 262.416565 
L 126.225624 261.707294 
L 127.18073 261.707294 
L 127.18073 260.998024 
L 128.178203 260.998024 
L 128.266313 259.934118 
L 129.54072 259.934118 
L 129.54072 259.579482 
L 130.186674 259.579482 
L 130.186674 259.224847 
L 131.489828 259.224847 
L 131.489828 258.870212 
L 131.63737 258.870212 
L 131.63737 258.515576 
L 132.428795 258.515576 
L 132.428795 258.160941 
L 132.56918 258.160941 
L 132.56918 257.806306 
L 133.120474 257.806306 
L 133.188264 257.097035 
L 133.523594 257.097035 
L 133.523594 256.7424 
L 133.853052 256.7424 
L 133.853052 256.387765 
L 134.112526 256.387765 
L 134.112526 256.033129 
L 134.304809 256.033129 
L 134.304809 255.678494 
L 134.993495 255.678494 
L 134.993495 255.323859 
L 136.92008 255.323859 
L 136.92008 254.969224 
L 137.466966 254.969224 
L 137.466966 254.614588 
L 140.032723 254.614588 
L 140.126547 253.196047 
L 140.905699 253.196047 
L 140.905699 252.841412 
L 141.128852 252.841412 
L 141.128852 252.486776 
L 141.953481 252.486776 
L 141.953481 252.132141 
L 142.373399 252.132141 
L 142.373399 251.777506 
L 142.661862 251.777506 
L 142.661862 251.422871 
L 143.18612 251.422871 
L 143.18612 251.068235 
L 144.85936 251.068235 
L 144.85936 250.7136 
L 145.076419 250.7136 
L 145.148219 250.004329 
L 145.291002 250.004329 
L 145.291002 249.649694 
L 145.678157 249.649694 
L 145.678157 249.295059 
L 145.816988 249.295059 
L 145.816988 248.940424 
L 146.695245 248.940424 
L 146.695245 248.585788 
L 147.1517 248.585788 
L 147.1517 248.231153 
L 147.343984 248.231153 
L 147.343984 247.876518 
L 147.502732 247.876518 
L 147.502732 247.521882 
L 147.660152 247.521882 
L 147.660152 247.167247 
L 148.03267 247.167247 
L 148.03267 246.812612 
L 148.185734 246.812612 
L 148.246613 245.394071 
L 148.903591 245.394071 
L 148.903591 245.039435 
L 149.049758 245.039435 
L 149.049758 244.6848 
L 149.223672 244.6848 
L 149.252502 243.620894 
L 149.623325 243.620894 
L 149.623325 243.266259 
L 149.903682 243.266259 
L 150.014665 242.556988 
L 150.289291 242.556988 
L 150.289291 242.202353 
L 150.533072 242.202353 
L 150.533072 241.847718 
L 150.747146 241.847718 
L 150.747146 241.138447 
L 151.27191 241.138447 
L 151.32359 240.429176 
L 151.579882 240.429176 
L 151.579882 239.719906 
L 151.757231 239.719906 
L 151.757231 239.365271 
L 151.907925 239.365271 
L 152.007722 238.301365 
L 152.20574 238.301365 
L 152.20574 237.592094 
L 152.401695 237.592094 
L 152.401695 237.237459 
L 152.667844 237.237459 
L 152.667844 236.882824 
L 152.882835 236.882824 
L 152.930279 236.173553 
L 153.118868 236.173553 
L 153.165721 235.464282 
L 153.259079 235.464282 
L 153.328795 234.755012 
L 153.58223 234.755012 
L 153.627945 234.045741 
L 153.764426 234.045741 
L 153.854866 232.981835 
L 154.056781 232.981835 
L 154.056781 232.6272 
L 154.190197 232.6272 
L 154.190197 231.917929 
L 154.388563 231.917929 
L 154.497869 231.208659 
L 154.584859 231.208659 
L 154.693034 229.080847 
L 155.077392 229.080847 
L 155.077392 228.726212 
L 155.22477 228.726212 
L 155.24573 228.016941 
L 155.433326 228.016941 
L 155.516105 226.953035 
L 155.660098 226.953035 
L 155.721473 225.889129 
L 155.802997 225.889129 
L 155.904407 224.115953 
L 155.944819 224.115953 
L 155.944819 223.052047 
L 156.125604 223.052047 
L 156.125604 222.697412 
L 156.403417 222.697412 
L 156.442771 221.988141 
L 156.560344 221.988141 
L 156.657763 221.278871 
L 156.715973 221.278871 
L 156.793307 220.5696 
L 156.8511 220.5696 
L 156.870325 219.860329 
L 157.023421 219.860329 
L 157.04247 219.151059 
L 157.156365 219.151059 
L 157.156365 218.441788 
L 157.269574 218.441788 
L 157.269574 218.087153 
L 157.456756 218.087153 
L 157.512549 217.023247 
L 157.642093 217.023247 
L 157.660526 216.313976 
L 157.789059 216.313976 
L 157.843876 214.895435 
L 157.916719 214.895435 
L 157.971166 213.476894 
L 158.043518 213.476894 
L 158.133569 212.767624 
L 158.223191 212.767624 
L 158.294582 211.703718 
L 158.347948 211.703718 
L 158.347948 210.994447 
L 158.489522 210.994447 
L 158.595008 210.285176 
L 158.630038 210.285176 
L 158.734741 208.866635 
L 158.821551 208.866635 
L 158.838864 208.157365 
L 158.959618 208.157365 
L 159.045398 205.674918 
L 159.079601 205.674918 
L 159.079601 205.320282 
L 159.334159 205.320282 
L 159.401463 203.547106 
L 159.618554 203.547106 
L 159.651731 202.837835 
L 159.734419 202.837835 
L 159.833168 200.710024 
L 159.964032 200.710024 
L 160.061585 198.582212 
L 160.093991 198.582212 
L 160.190875 196.809035 
L 160.223059 196.809035 
L 160.303279 195.745129 
L 160.335271 195.745129 
L 160.415015 193.262682 
L 160.494422 193.262682 
L 160.573496 192.553412 
L 160.620781 192.553412 
L 160.667947 190.780235 
L 160.777545 190.780235 
L 160.886507 189.007059 
L 160.902022 189.007059 
L 160.933013 187.943153 
L 161.102557 187.943153 
L 161.194395 185.815341 
L 161.224909 185.815341 
L 161.331318 184.042165 
L 161.34647 184.042165 
L 161.406958 182.623624 
L 161.467251 182.623624 
L 161.55733 181.205082 
L 161.602209 181.205082 
L 161.706511 179.431906 
L 161.721364 179.431906 
L 161.810238 178.013365 
L 161.88398 178.013365 
L 161.97209 176.594824 
L 162.001369 176.594824 
L 162.074367 173.757741 
L 162.132562 173.757741 
L 162.233972 172.3392 
L 162.277267 172.3392 
L 162.334839 170.566024 
L 162.420867 170.566024 
L 162.492258 169.502118 
L 162.534963 169.502118 
L 162.620084 167.374306 
L 162.648372 167.374306 
L 162.732982 164.891859 
L 162.761101 164.891859 
L 162.859187 162.054776 
L 162.901068 162.054776 
L 162.970663 160.636235 
L 163.067666 160.636235 
L 163.177917 157.444518 
L 163.260183 157.444518 
L 163.342092 155.316706 
L 163.3965 155.316706 
L 163.504846 152.479624 
L 163.518345 152.479624 
L 163.59914 149.997176 
L 163.65281 149.997176 
L 163.746367 145.741553 
L 163.812909 145.741553 
L 163.91889 143.259106 
L 163.95848 143.259106 
L 164.050532 139.712753 
L 164.116009 139.712753 
L 164.194282 137.939576 
L 164.233297 137.939576 
L 164.285191 137.230306 
L 164.414303 137.230306 
L 164.516958 134.747859 
L 164.55531 134.747859 
L 164.657201 132.265412 
L 164.70794 132.265412 
L 164.80901 130.492235 
L 164.834193 130.492235 
L 164.909539 126.945882 
L 164.9471 126.945882 
L 164.997064 126.236612 
L 165.071763 126.236612 
L 165.170902 124.818071 
L 165.207944 124.818071 
L 165.30637 123.044894 
L 165.367626 123.044894 
L 165.477385 120.917082 
L 165.50169 120.917082 
L 165.598594 118.08 
L 165.622743 118.08 
L 165.731028 114.888282 
L 165.755007 114.888282 
L 165.862536 111.696565 
L 165.886348 111.696565 
L 165.969454 109.214118 
L 166.028591 109.214118 
L 166.122826 108.150212 
L 166.146311 108.150212 
L 166.239959 102.476047 
L 166.309891 102.476047 
L 166.379563 98.929694 
L 166.448979 98.929694 
L 166.518139 96.801882 
L 166.564105 96.801882 
L 166.609959 95.383341 
L 166.678531 95.383341 
L 166.689935 94.674071 
L 166.792265 94.674071 
L 166.894041 90.418447 
L 166.927844 90.418447 
L 167.006483 87.936 
L 167.084795 87.936 
L 167.15166 86.517459 
L 167.196106 86.517459 
L 167.295726 82.971106 
L 167.361848 82.971106 
L 167.460596 82.261835 
L 167.48247 82.261835 
L 167.569712 79.779388 
L 167.613182 79.779388 
L 167.721419 76.942306 
L 167.786064 76.942306 
L 167.893313 72.686682 
L 167.925369 72.686682 
L 168.021211 70.204235 
L 168.063651 70.204235 
L 168.116567 68.785694 
L 168.200924 68.785694 
L 168.295375 67.721788 
L 168.358081 67.721788 
L 168.399768 65.593976 
L 168.4725 65.593976 
L 168.4725 65.239341 
L 168.617126 65.239341 
L 168.719753 64.175435 
L 168.760648 64.175435 
L 168.760648 63.466165 
L 168.903083 63.466165 
L 168.903083 63.111529 
L 169.034386 63.111529 
L 169.034386 62.756894 
L 169.174771 62.756894 
L 169.174771 62.047624 
L 169.442591 62.047624 
L 169.442591 60.629082 
L 169.638546 60.629082 
L 169.638546 60.274447 
L 169.803519 60.274447 
L 169.803519 59.919812 
L 170.138678 59.919812 
L 170.138678 59.210541 
L 170.570284 59.210541 
L 170.570284 58.501271 
L 170.690486 58.501271 
L 170.690486 58.146635 
L 171.660461 58.146635 
L 171.660461 57.792 
L 172.348032 57.792 
L 172.348032 57.437365 
L 173.213936 57.437365 
L 173.213936 57.082729 
L 173.667825 57.082729 
L 173.667825 56.728094 
L 173.933441 56.728094 
L 173.933441 56.373459 
L 175.091672 56.373459 
L 175.091672 56.018824 
L 175.495771 56.018824 
L 175.495771 55.664188 
L 175.982031 55.664188 
L 175.982031 55.309553 
L 176.313034 55.309553 
L 176.313034 54.954918 
L 176.911772 54.954918 
L 176.94485 54.245647 
L 177.285458 54.245647 
L 177.285458 53.891012 
L 177.46634 53.891012 
L 177.530521 53.181741 
L 177.804033 53.181741 
L 177.804033 52.827106 
L 178.123358 52.827106 
L 178.123358 52.472471 
L 178.370071 52.472471 
L 178.425138 51.7632 
L 178.540864 51.7632 
L 178.565137 51.053929 
L 178.931471 51.053929 
L 178.931471 50.699294 
L 179.091369 50.699294 
L 179.091369 50.344659 
L 179.232368 50.344659 
L 179.279134 49.635388 
L 179.407144 49.635388 
L 179.436116 48.571482 
L 179.568815 48.571482 
L 179.568815 48.216847 
L 179.842775 48.216847 
L 179.859766 47.152941 
L 179.961389 47.152941 
L 180.051262 46.089035 
L 180.168573 46.089035 
L 180.168573 45.7344 
L 180.296222 45.7344 
L 180.296222 45.379765 
L 180.576218 45.379765 
L 180.619764 44.315859 
L 180.830615 44.315859 
L 180.89502 42.542682 
L 181.113421 42.542682 
L 181.208509 40.414871 
L 181.423321 40.414871 
L 181.527223 39.350965 
L 181.563454 39.350965 
L 181.563454 38.996329 
L 181.743569 38.996329 
L 181.743569 38.287059 
L 181.997921 38.287059 
L 181.997921 37.577788 
L 182.158919 37.577788 
L 182.233915 36.159247 
L 182.833029 36.159247 
L 182.943869 35.449976 
L 183.08747 35.449976 
L 183.08747 34.740706 
L 183.30555 34.740706 
L 183.357327 33.6768 
L 183.52579 33.6768 
L 183.52579 31.194353 
L 183.835357 31.194353 
L 183.835357 30.839718 
L 184.225388 30.839718 
L 184.225388 30.130447 
L 184.368477 30.130447 
L 184.475083 28.711906 
L 184.616292 28.711906 
L 184.708387 28.002635 
L 184.81309 28.002635 
L 184.81309 27.648 
L 360.8064 27.648 
L 360.8064 27.648 
" style="fill: none; stroke: #ff0000; stroke-width: 1.5; stroke-linecap: square"/>
   </g>
   <g id="line2d_52">
    <defs>
     <path id="m1e41b240f4" d="M 0 -6 
L -5.196152 -3 
L -5.196152 3 
L -0 6 
L 5.196152 3 
L 5.196152 -3 
z
" style="stroke: #ff0000; stroke-width: 1.5; stroke-linejoin: miter"/>
    </defs>
    <g>
     <use xlink:href="#m1e41b240f4" x="155.077392" y="228.726212" style="fill-opacity: 0; stroke: #ff0000; stroke-width: 1.5; stroke-linejoin: miter"/>
     <use xlink:href="#m1e41b240f4" x="167.786064" y="76.587671" style="fill-opacity: 0; stroke: #ff0000; stroke-width: 1.5; stroke-linejoin: miter"/>
     <use xlink:href="#m1e41b240f4" x="184.81309" y="27.648" style="fill-opacity: 0; stroke: #ff0000; stroke-width: 1.5; stroke-linejoin: miter"/>
     <use xlink:href="#m1e41b240f4" x="184.81309" y="27.648" style="fill-opacity: 0; stroke: #ff0000; stroke-width: 1.5; stroke-linejoin: miter"/>
     <use xlink:href="#m1e41b240f4" x="360.8064" y="27.648" style="fill-opacity: 0; stroke: #ff0000; stroke-width: 1.5; stroke-linejoin: miter"/>
    </g>
   </g>
   <g id="line2d_53">
    <path style="fill: none; stroke: #ff0000; stroke-width: 1.5; stroke-linecap: square"/>
    <g/>
   </g>
   <g id="line2d_54">
    <path d="M 360.8064 27.648 
L 380.514816 293.51808 
" style="fill: none; stroke: #ff0000; stroke-width: 1.5; stroke-linecap: square"/>
    <g>
     <use xlink:href="#m1e41b240f4" x="360.8064" y="27.648" style="fill-opacity: 0; stroke: #ff0000; stroke-width: 1.5; stroke-linejoin: miter"/>
     <use xlink:href="#m1e41b240f4" x="380.514816" y="293.51808" style="fill-opacity: 0; stroke: #ff0000; stroke-width: 1.5; stroke-linejoin: miter"/>
    </g>
   </g>
   <g id="line2d_55">
    <path d="M 360.8064 27.648 
L 380.514816 241.429248 
" style="fill: none; stroke: #6495ed; stroke-width: 1.5; stroke-linecap: square"/>
    <g>
     <use xlink:href="#m7700781b7b" x="360.8064" y="27.648" style="fill-opacity: 0; stroke: #6495ed; stroke-width: 1.5; stroke-linejoin: miter"/>
     <use xlink:href="#m7700781b7b" x="380.514816" y="241.429248" style="fill-opacity: 0; stroke: #6495ed; stroke-width: 1.5; stroke-linejoin: miter"/>
    </g>
   </g>
   <g id="line2d_56">
    <path d="M 360.8064 27.648 
L 380.514816 189.340416 
" style="fill: none; stroke: #ff7500; stroke-width: 1.5; stroke-linecap: square"/>
    <g>
     <use xlink:href="#m3cddde4d8a" x="360.8064" y="27.648" style="fill-opacity: 0; stroke: #ff7500; stroke-width: 1.5; stroke-linejoin: bevel"/>
     <use xlink:href="#m3cddde4d8a" x="380.514816" y="189.340416" style="fill-opacity: 0; stroke: #ff7500; stroke-width: 1.5; stroke-linejoin: bevel"/>
    </g>
   </g>
   <g id="line2d_57">
    <path d="M 360.8064 27.648 
L 380.514816 137.251584 
" style="fill: none; stroke: #000080; stroke-width: 1.5; stroke-linecap: square"/>
    <g>
     <use xlink:href="#m45ff92db2b" x="360.8064" y="27.648" style="fill-opacity: 0; stroke: #000080; stroke-width: 1.5"/>
     <use xlink:href="#m45ff92db2b" x="380.514816" y="137.251584" style="fill-opacity: 0; stroke: #000080; stroke-width: 1.5"/>
    </g>
   </g>
   <g id="line2d_58">
    <path d="M 360.8064 27.648 
L 380.514816 85.162752 
" style="fill: none; stroke: #ff00ff; stroke-width: 1.5; stroke-linecap: square"/>
    <g>
     <use xlink:href="#m8f0ad4b856" x="360.8064" y="27.648" style="fill-opacity: 0; stroke: #ff00ff; stroke-width: 1.5; stroke-linejoin: miter"/>
     <use xlink:href="#m8f0ad4b856" x="380.514816" y="85.162752" style="fill-opacity: 0; stroke: #ff00ff; stroke-width: 1.5; stroke-linejoin: miter"/>
    </g>
   </g>
   <g id="line2d_59">
    <path d="M 360.8064 298.944 
L 360.8064 27.648 
" style="fill: none; stroke: #000000; stroke-width: 1.5; stroke-linecap: square"/>
   </g>
   <g id="patch_3">
    <path d="M 57.6 298.944 
L 360.8064 298.944 
" style="fill: none; stroke: #000000; stroke-width: 0.8; stroke-linejoin: miter; stroke-linecap: square"/>
   </g>
   <g id="patch_4">
    <path d="M 57.6 27.648 
L 360.8064 27.648 
" style="fill: none; stroke: #000000; stroke-width: 0.8; stroke-linejoin: miter; stroke-linecap: square"/>
   </g>
   <g id="text_13">
    <!-- CMA-ES-2019  -->
    <g transform="translate(386.578944 297.381205)scale(0.14 -0.14)">
     <defs>
      <path id="DejaVuSans-43" d="M 4122 4306 
L 4122 3641 
Q 3803 3938 3442 4084 
Q 3081 4231 2675 4231 
Q 1875 4231 1450 3742 
Q 1025 3253 1025 2328 
Q 1025 1406 1450 917 
Q 1875 428 2675 428 
Q 3081 428 3442 575 
Q 3803 722 4122 1019 
L 4122 359 
Q 3791 134 3420 21 
Q 3050 -91 2638 -91 
Q 1578 -91 968 557 
Q 359 1206 359 2328 
Q 359 3453 968 4101 
Q 1578 4750 2638 4750 
Q 3056 4750 3426 4639 
Q 3797 4528 4122 4306 
z
" transform="scale(0.015625)"/>
      <path id="DejaVuSans-4d" d="M 628 4666 
L 1569 4666 
L 2759 1491 
L 3956 4666 
L 4897 4666 
L 4897 0 
L 4281 0 
L 4281 4097 
L 3078 897 
L 2444 897 
L 1241 4097 
L 1241 0 
L 628 0 
L 628 4666 
z
" transform="scale(0.015625)"/>
      <path id="DejaVuSans-41" d="M 2188 4044 
L 1331 1722 
L 3047 1722 
L 2188 4044 
z
M 1831 4666 
L 2547 4666 
L 4325 0 
L 3669 0 
L 3244 1197 
L 1141 1197 
L 716 0 
L 50 0 
L 1831 4666 
z
" transform="scale(0.015625)"/>
      <path id="DejaVuSans-45" d="M 628 4666 
L 3578 4666 
L 3578 4134 
L 1259 4134 
L 1259 2753 
L 3481 2753 
L 3481 2222 
L 1259 2222 
L 1259 531 
L 3634 531 
L 3634 0 
L 628 0 
L 628 4666 
z
" transform="scale(0.015625)"/>
      <path id="DejaVuSans-53" d="M 3425 4513 
L 3425 3897 
Q 3066 4069 2747 4153 
Q 2428 4238 2131 4238 
Q 1616 4238 1336 4038 
Q 1056 3838 1056 3469 
Q 1056 3159 1242 3001 
Q 1428 2844 1947 2747 
L 2328 2669 
Q 3034 2534 3370 2195 
Q 3706 1856 3706 1288 
Q 3706 609 3251 259 
Q 2797 -91 1919 -91 
Q 1588 -91 1214 -16 
Q 841 59 441 206 
L 441 856 
Q 825 641 1194 531 
Q 1563 422 1919 422 
Q 2459 422 2753 634 
Q 3047 847 3047 1241 
Q 3047 1584 2836 1778 
Q 2625 1972 2144 2069 
L 1759 2144 
Q 1053 2284 737 2584 
Q 422 2884 422 3419 
Q 422 4038 858 4394 
Q 1294 4750 2059 4750 
Q 2388 4750 2728 4690 
Q 3069 4631 3425 4513 
z
" transform="scale(0.015625)"/>
      <path id="DejaVuSans-39" d="M 703 97 
L 703 672 
Q 941 559 1184 500 
Q 1428 441 1663 441 
Q 2288 441 2617 861 
Q 2947 1281 2994 2138 
Q 2813 1869 2534 1725 
Q 2256 1581 1919 1581 
Q 1219 1581 811 2004 
Q 403 2428 403 3163 
Q 403 3881 828 4315 
Q 1253 4750 1959 4750 
Q 2769 4750 3195 4129 
Q 3622 3509 3622 2328 
Q 3622 1225 3098 567 
Q 2575 -91 1691 -91 
Q 1453 -91 1209 -44 
Q 966 3 703 97 
z
M 1959 2075 
Q 2384 2075 2632 2365 
Q 2881 2656 2881 3163 
Q 2881 3666 2632 3958 
Q 2384 4250 1959 4250 
Q 1534 4250 1286 3958 
Q 1038 3666 1038 3163 
Q 1038 2656 1286 2365 
Q 1534 2075 1959 2075 
z
" transform="scale(0.015625)"/>
     </defs>
     <use xlink:href="#DejaVuSans-43"/>
     <use xlink:href="#DejaVuSans-4d" x="69.824219"/>
     <use xlink:href="#DejaVuSans-41" x="156.103516"/>
     <use xlink:href="#DejaVuSans-2d" x="222.261719"/>
     <use xlink:href="#DejaVuSans-45" x="258.345703"/>
     <use xlink:href="#DejaVuSans-53" x="321.529297"/>
     <use xlink:href="#DejaVuSans-2d" x="385.005859"/>
     <use xlink:href="#DejaVuSans-32" x="421.089844"/>
     <use xlink:href="#DejaVuSans-30" x="484.712891"/>
     <use xlink:href="#DejaVuSans-31" x="548.335938"/>
     <use xlink:href="#DejaVuSans-39" x="611.958984"/>
     <use xlink:href="#DejaVuSans-20" x="675.582031"/>
    </g>
   </g>
   <g id="text_14">
    <!-- ddcma1R -->
    <g transform="translate(386.578944 245.292373)scale(0.14 -0.14)">
     <defs>
      <path id="DejaVuSans-52" d="M 2841 2188 
Q 3044 2119 3236 1894 
Q 3428 1669 3622 1275 
L 4263 0 
L 3584 0 
L 2988 1197 
Q 2756 1666 2539 1819 
Q 2322 1972 1947 1972 
L 1259 1972 
L 1259 0 
L 628 0 
L 628 4666 
L 2053 4666 
Q 2853 4666 3247 4331 
Q 3641 3997 3641 3322 
Q 3641 2881 3436 2590 
Q 3231 2300 2841 2188 
z
M 1259 4147 
L 1259 2491 
L 2053 2491 
Q 2509 2491 2742 2702 
Q 2975 2913 2975 3322 
Q 2975 3731 2742 3939 
Q 2509 4147 2053 4147 
L 1259 4147 
z
" transform="scale(0.015625)"/>
     </defs>
     <use xlink:href="#DejaVuSans-64"/>
     <use xlink:href="#DejaVuSans-64" x="63.476562"/>
     <use xlink:href="#DejaVuSans-63" x="126.953125"/>
     <use xlink:href="#DejaVuSans-6d" x="181.933594"/>
     <use xlink:href="#DejaVuSans-61" x="279.345703"/>
     <use xlink:href="#DejaVuSans-31" x="340.625"/>
     <use xlink:href="#DejaVuSans-52" x="404.248047"/>
    </g>
   </g>
   <g id="text_15">
    <!-- ddcma0R -->
    <g transform="translate(386.578944 193.203541)scale(0.14 -0.14)">
     <use xlink:href="#DejaVuSans-64"/>
     <use xlink:href="#DejaVuSans-64" x="63.476562"/>
     <use xlink:href="#DejaVuSans-63" x="126.953125"/>
     <use xlink:href="#DejaVuSans-6d" x="181.933594"/>
     <use xlink:href="#DejaVuSans-61" x="279.345703"/>
     <use xlink:href="#DejaVuSans-30" x="340.625"/>
     <use xlink:href="#DejaVuSans-52" x="404.248047"/>
    </g>
   </g>
   <g id="text_16">
    <!-- old-ddcma0R -->
    <g transform="translate(386.578944 141.114709)scale(0.14 -0.14)">
     <use xlink:href="#DejaVuSans-6f"/>
     <use xlink:href="#DejaVuSans-6c" x="61.181641"/>
     <use xlink:href="#DejaVuSans-64" x="88.964844"/>
     <use xlink:href="#DejaVuSans-2d" x="152.441406"/>
     <use xlink:href="#DejaVuSans-64" x="188.525391"/>
     <use xlink:href="#DejaVuSans-64" x="252.001953"/>
     <use xlink:href="#DejaVuSans-63" x="315.478516"/>
     <use xlink:href="#DejaVuSans-6d" x="370.458984"/>
     <use xlink:href="#DejaVuSans-61" x="467.871094"/>
     <use xlink:href="#DejaVuSans-30" x="529.150391"/>
     <use xlink:href="#DejaVuSans-52" x="592.773438"/>
    </g>
   </g>
   <g id="text_17">
    <!-- old-ddcma1R -->
    <g transform="translate(386.578944 89.025877)scale(0.14 -0.14)">
     <use xlink:href="#DejaVuSans-6f"/>
     <use xlink:href="#DejaVuSans-6c" x="61.181641"/>
     <use xlink:href="#DejaVuSans-64" x="88.964844"/>
     <use xlink:href="#DejaVuSans-2d" x="152.441406"/>
     <use xlink:href="#DejaVuSans-64" x="188.525391"/>
     <use xlink:href="#DejaVuSans-64" x="252.001953"/>
     <use xlink:href="#DejaVuSans-63" x="315.478516"/>
     <use xlink:href="#DejaVuSans-6d" x="370.458984"/>
     <use xlink:href="#DejaVuSans-61" x="467.871094"/>
     <use xlink:href="#DejaVuSans-31" x="529.150391"/>
     <use xlink:href="#DejaVuSans-52" x="592.773438"/>
    </g>
   </g>
   <g id="text_18">
    <!-- best 2009 -->
    <g transform="translate(386.578944 36.937045)scale(0.14 -0.14)">
     <defs>
      <path id="DejaVuSans-62" d="M 3116 1747 
Q 3116 2381 2855 2742 
Q 2594 3103 2138 3103 
Q 1681 3103 1420 2742 
Q 1159 2381 1159 1747 
Q 1159 1113 1420 752 
Q 1681 391 2138 391 
Q 2594 391 2855 752 
Q 3116 1113 3116 1747 
z
M 1159 2969 
Q 1341 3281 1617 3432 
Q 1894 3584 2278 3584 
Q 2916 3584 3314 3078 
Q 3713 2572 3713 1747 
Q 3713 922 3314 415 
Q 2916 -91 2278 -91 
Q 1894 -91 1617 61 
Q 1341 213 1159 525 
L 1159 0 
L 581 0 
L 581 4863 
L 1159 4863 
L 1159 2969 
z
" transform="scale(0.015625)"/>
     </defs>
     <use xlink:href="#DejaVuSans-62"/>
     <use xlink:href="#DejaVuSans-65" x="63.476562"/>
     <use xlink:href="#DejaVuSans-73" x="125"/>
     <use xlink:href="#DejaVuSans-74" x="177.099609"/>
     <use xlink:href="#DejaVuSans-20" x="216.308594"/>
     <use xlink:href="#DejaVuSans-32" x="248.095703"/>
     <use xlink:href="#DejaVuSans-30" x="311.71875"/>
     <use xlink:href="#DejaVuSans-30" x="375.341797"/>
     <use xlink:href="#DejaVuSans-39" x="438.964844"/>
    </g>
   </g>
   <g id="text_19">
    <!-- bbob f9, 5-D -->
    <g transform="translate(60.632064 38.111366)scale(0.102 -0.102)">
     <defs>
      <path id="DejaVuSans-35" d="M 691 4666 
L 3169 4666 
L 3169 4134 
L 1269 4134 
L 1269 2991 
Q 1406 3038 1543 3061 
Q 1681 3084 1819 3084 
Q 2600 3084 3056 2656 
Q 3513 2228 3513 1497 
Q 3513 744 3044 326 
Q 2575 -91 1722 -91 
Q 1428 -91 1123 -41 
Q 819 9 494 109 
L 494 744 
Q 775 591 1075 516 
Q 1375 441 1709 441 
Q 2250 441 2565 725 
Q 2881 1009 2881 1497 
Q 2881 1984 2565 2268 
Q 2250 2553 1709 2553 
Q 1456 2553 1204 2497 
Q 953 2441 691 2322 
L 691 4666 
z
" transform="scale(0.015625)"/>
      <path id="DejaVuSans-44" d="M 1259 4147 
L 1259 519 
L 2022 519 
Q 2988 519 3436 956 
Q 3884 1394 3884 2338 
Q 3884 3275 3436 3711 
Q 2988 4147 2022 4147 
L 1259 4147 
z
M 628 4666 
L 1925 4666 
Q 3281 4666 3915 4102 
Q 4550 3538 4550 2338 
Q 4550 1131 3912 565 
Q 3275 0 1925 0 
L 628 0 
L 628 4666 
z
" transform="scale(0.015625)"/>
     </defs>
     <use xlink:href="#DejaVuSans-62"/>
     <use xlink:href="#DejaVuSans-62" x="63.476562"/>
     <use xlink:href="#DejaVuSans-6f" x="126.953125"/>
     <use xlink:href="#DejaVuSans-62" x="188.134766"/>
     <use xlink:href="#DejaVuSans-20" x="251.611328"/>
     <use xlink:href="#DejaVuSans-66" x="283.398438"/>
     <use xlink:href="#DejaVuSans-39" x="318.603516"/>
     <use xlink:href="#DejaVuSans-2c" x="382.226562"/>
     <use xlink:href="#DejaVuSans-20" x="414.013672"/>
     <use xlink:href="#DejaVuSans-35" x="445.800781"/>
     <use xlink:href="#DejaVuSans-2d" x="509.423828"/>
     <use xlink:href="#DejaVuSans-44" x="545.507812"/>
    </g>
    <!-- 51 targets: 100..1e-08 -->
    <g transform="translate(60.632064 49.533135)scale(0.102 -0.102)">
     <defs>
      <path id="DejaVuSans-3a" d="M 750 794 
L 1409 794 
L 1409 0 
L 750 0 
L 750 794 
z
M 750 3309 
L 1409 3309 
L 1409 2516 
L 750 2516 
L 750 3309 
z
" transform="scale(0.015625)"/>
     </defs>
     <use xlink:href="#DejaVuSans-35"/>
     <use xlink:href="#DejaVuSans-31" x="63.623047"/>
     <use xlink:href="#DejaVuSans-20" x="127.246094"/>
     <use xlink:href="#DejaVuSans-74" x="159.033203"/>
     <use xlink:href="#DejaVuSans-61" x="198.242188"/>
     <use xlink:href="#DejaVuSans-72" x="259.521484"/>
     <use xlink:href="#DejaVuSans-67" x="298.884766"/>
     <use xlink:href="#DejaVuSans-65" x="362.361328"/>
     <use xlink:href="#DejaVuSans-74" x="423.884766"/>
     <use xlink:href="#DejaVuSans-73" x="463.09375"/>
     <use xlink:href="#DejaVuSans-3a" x="515.193359"/>
     <use xlink:href="#DejaVuSans-20" x="548.884766"/>
     <use xlink:href="#DejaVuSans-31" x="580.671875"/>
     <use xlink:href="#DejaVuSans-30" x="644.294922"/>
     <use xlink:href="#DejaVuSans-30" x="707.917969"/>
     <use xlink:href="#DejaVuSans-2e" x="771.541016"/>
     <use xlink:href="#DejaVuSans-2e" x="803.328125"/>
     <use xlink:href="#DejaVuSans-31" x="835.115234"/>
     <use xlink:href="#DejaVuSans-65" x="898.738281"/>
     <use xlink:href="#DejaVuSans-2d" x="960.261719"/>
     <use xlink:href="#DejaVuSans-30" x="996.345703"/>
     <use xlink:href="#DejaVuSans-38" x="1059.96875"/>
    </g>
    <!-- 5, 15 instances -->
    <g transform="translate(60.632064 60.954904)scale(0.102 -0.102)">
     <use xlink:href="#DejaVuSans-35"/>
     <use xlink:href="#DejaVuSans-2c" x="63.623047"/>
     <use xlink:href="#DejaVuSans-20" x="95.410156"/>
     <use xlink:href="#DejaVuSans-31" x="127.197266"/>
     <use xlink:href="#DejaVuSans-35" x="190.820312"/>
     <use xlink:href="#DejaVuSans-20" x="254.443359"/>
     <use xlink:href="#DejaVuSans-69" x="286.230469"/>
     <use xlink:href="#DejaVuSans-6e" x="314.013672"/>
     <use xlink:href="#DejaVuSans-73" x="377.392578"/>
     <use xlink:href="#DejaVuSans-74" x="429.492188"/>
     <use xlink:href="#DejaVuSans-61" x="468.701172"/>
     <use xlink:href="#DejaVuSans-6e" x="529.980469"/>
     <use xlink:href="#DejaVuSans-63" x="593.359375"/>
     <use xlink:href="#DejaVuSans-65" x="648.339844"/>
     <use xlink:href="#DejaVuSans-73" x="709.863281"/>
    </g>
   </g>
   <g id="text_20">
    <!-- v2.6 -->
    <g style="fill: #808080" transform="translate(198.292262 294.151352)scale(0.1 -0.1)">
     <use xlink:href="#DejaVuSans-76"/>
     <use xlink:href="#DejaVuSans-32" x="59.179688"/>
     <use xlink:href="#DejaVuSans-2e" x="122.802734"/>
     <use xlink:href="#DejaVuSans-36" x="154.589844"/>
    </g>
   </g>
   <g id="text_21">
    <!-- 9 Rosenbrock rotated -->
    <g transform="translate(102.050075 21.648)scale(0.2 -0.2)">
     <defs>
      <path id="DejaVuSans-6b" d="M 581 4863 
L 1159 4863 
L 1159 1991 
L 2875 3500 
L 3609 3500 
L 1753 1863 
L 3688 0 
L 2938 0 
L 1159 1709 
L 1159 0 
L 581 0 
L 581 4863 
z
" transform="scale(0.015625)"/>
     </defs>
     <use xlink:href="#DejaVuSans-39"/>
     <use xlink:href="#DejaVuSans-20" x="63.623047"/>
     <use xlink:href="#DejaVuSans-52" x="95.410156"/>
     <use xlink:href="#DejaVuSans-6f" x="160.392578"/>
     <use xlink:href="#DejaVuSans-73" x="221.574219"/>
     <use xlink:href="#DejaVuSans-65" x="273.673828"/>
     <use xlink:href="#DejaVuSans-6e" x="335.197266"/>
     <use xlink:href="#DejaVuSans-62" x="398.576172"/>
     <use xlink:href="#DejaVuSans-72" x="462.052734"/>
     <use xlink:href="#DejaVuSans-6f" x="500.916016"/>
     <use xlink:href="#DejaVuSans-63" x="562.097656"/>
     <use xlink:href="#DejaVuSans-6b" x="617.078125"/>
     <use xlink:href="#DejaVuSans-20" x="674.988281"/>
     <use xlink:href="#DejaVuSans-72" x="706.775391"/>
     <use xlink:href="#DejaVuSans-6f" x="745.638672"/>
     <use xlink:href="#DejaVuSans-74" x="806.820312"/>
     <use xlink:href="#DejaVuSans-61" x="846.029297"/>
     <use xlink:href="#DejaVuSans-74" x="907.308594"/>
     <use xlink:href="#DejaVuSans-65" x="946.517578"/>
     <use xlink:href="#DejaVuSans-64" x="1008.041016"/>
    </g>
   </g>
  </g>
 </g>
 <defs>
  <clipPath id="pd62a42c8b2">
   <rect x="57.6" y="27.648" width="303.2064" height="271.296"/>
  </clipPath>
 </defs>
</svg>
