<?xml version="1.0" encoding="utf-8" standalone="no"?>
<!DOCTYPE svg PUBLIC "-//W3C//DTD SVG 1.1//EN"
  "http://www.w3.org/Graphics/SVG/1.1/DTD/svg11.dtd">
<svg xmlns:xlink="http://www.w3.org/1999/xlink" width="460.8pt" height="345.6pt" viewBox="0 0 460.8 345.6" xmlns="http://www.w3.org/2000/svg" version="1.1">
 <metadata>
  <rdf:RDF xmlns:dc="http://purl.org/dc/elements/1.1/" xmlns:cc="http://creativecommons.org/ns#" xmlns:rdf="http://www.w3.org/1999/02/22-rdf-syntax-ns#">
   <cc:Work>
    <dc:type rdf:resource="http://purl.org/dc/dcmitype/StillImage"/>
    <dc:date>2022-04-08T17:32:41.740966</dc:date>
    <dc:format>image/svg+xml</dc:format>
    <dc:creator>
     <cc:Agent>
      <dc:title>Matplotlib v3.5.1, https://matplotlib.org/</dc:title>
     </cc:Agent>
    </dc:creator>
   </cc:Work>
  </rdf:RDF>
 </metadata>
 <defs>
  <style type="text/css">*{stroke-linejoin: round; stroke-linecap: butt}</style>
 </defs>
 <g id="figure_1">
  <g id="patch_1">
   <path d="M 0 345.6 
L 460.8 345.6 
L 460.8 0 
L 0 0 
z
" style="fill: #ffffff"/>
  </g>
  <g id="axes_1">
   <g id="patch_2">
    <path d="M 57.6 298.944 
L 360.8064 298.944 
L 360.8064 27.648 
L 57.6 27.648 
z
" style="fill: #ffffff"/>
   </g>
   <g id="line2d_1">
    <path d="M 65.227428 298.944 
L 65.227428 288.304941 
L 74.836851 288.304941 
L 74.836851 267.026824 
L 81.166416 267.026824 
L 81.166416 261.707294 
L 91.305777 261.707294 
L 91.305777 240.429176 
L 97.857967 240.429176 
L 97.857967 235.109647 
L 99.950294 235.109647 
L 99.950294 229.790118 
L 100.9152 229.790118 
L 100.9152 224.470588 
L 106.560633 224.470588 
L 106.560633 219.151059 
L 112.487797 219.151059 
L 112.487797 213.831529 
L 114.418881 213.831529 
L 114.418881 208.512 
L 115.314838 208.512 
L 115.314838 203.192471 
L 115.747307 203.192471 
L 115.747307 197.872941 
L 116.583514 197.872941 
L 116.583514 187.233882 
L 116.988079 187.233882 
L 116.988079 176.594824 
L 127.458055 176.594824 
L 127.458055 171.275294 
L 128.133992 171.275294 
L 128.133992 165.955765 
L 128.354013 165.955765 
L 128.354013 160.636235 
L 128.786481 160.636235 
L 128.786481 155.316706 
L 129.209231 155.316706 
L 129.209231 149.997176 
L 129.417095 149.997176 
L 129.417095 144.677647 
L 129.622688 144.677647 
L 129.622688 128.719059 
L 129.826058 128.719059 
L 129.826058 118.08 
L 130.027253 118.08 
L 130.027253 107.440941 
L 130.226319 107.440941 
L 130.226319 102.121412 
L 130.4233 102.121412 
L 130.4233 96.801882 
L 130.811181 96.801882 
L 130.811181 91.482353 
L 131.191226 91.482353 
L 131.191226 86.162824 
L 131.747272 86.162824 
L 131.747272 80.843294 
L 132.287354 80.843294 
L 132.287354 75.523765 
L 132.46399 75.523765 
L 132.46399 70.204235 
L 132.984158 70.204235 
L 132.984158 64.884706 
L 133.323114 64.884706 
L 133.323114 48.926118 
L 133.656071 48.926118 
L 133.656071 32.967529 
L 133.983236 32.967529 
L 133.983236 27.648 
L 360.8064 27.648 
" style="fill: none; stroke: #f5deb3; stroke-width: 4; stroke-linecap: square"/>
   </g>
   <g id="line2d_2">
    <defs>
     <path id="m0a6de04937" d="M -0 7.778175 
L 7.778175 0 
L 0 -7.778175 
L -7.778175 -0 
z
" style="stroke: #f5deb3; stroke-width: 1.5; stroke-linejoin: miter"/>
    </defs>
    <g>
     <use xlink:href="#m0a6de04937" x="128.786481" y="155.316706" style="fill: #f5deb3; stroke: #f5deb3; stroke-width: 1.5; stroke-linejoin: miter"/>
     <use xlink:href="#m0a6de04937" x="133.983236" y="32.967529" style="fill: #f5deb3; stroke: #f5deb3; stroke-width: 1.5; stroke-linejoin: miter"/>
     <use xlink:href="#m0a6de04937" x="133.983236" y="27.648" style="fill: #f5deb3; stroke: #f5deb3; stroke-width: 1.5; stroke-linejoin: miter"/>
     <use xlink:href="#m0a6de04937" x="133.983236" y="27.648" style="fill: #f5deb3; stroke: #f5deb3; stroke-width: 1.5; stroke-linejoin: miter"/>
     <use xlink:href="#m0a6de04937" x="360.8064" y="27.648" style="fill: #f5deb3; stroke: #f5deb3; stroke-width: 1.5; stroke-linejoin: miter"/>
    </g>
   </g>
   <g id="line2d_3">
    <path style="fill: none; stroke: #f5deb3; stroke-width: 4; stroke-linecap: square"/>
    <g/>
   </g>
   <g id="line2d_4">
    <path d="M 360.8064 27.648 
L 380.514816 33.07392 
" style="fill: none; stroke: #f5deb3; stroke-width: 4; stroke-linecap: square"/>
    <g>
     <use xlink:href="#m0a6de04937" x="360.8064" y="27.648" style="fill: #f5deb3; stroke: #f5deb3; stroke-width: 1.5; stroke-linejoin: miter"/>
     <use xlink:href="#m0a6de04937" x="380.514816" y="33.07392" style="fill: #f5deb3; stroke: #f5deb3; stroke-width: 1.5; stroke-linejoin: miter"/>
    </g>
   </g>
   <g id="matplotlib.axis_1">
    <g id="xtick_1">
     <g id="line2d_5">
      <path d="M 57.6 298.944 
L 57.6 27.648 
" clip-path="url(#p678d4380cc)" style="fill: none; stroke: #b0b0b0; stroke-width: 0.8; stroke-linecap: square"/>
     </g>
     <g id="line2d_6">
      <defs>
       <path id="mc3f37c1e29" d="M 0 0 
L 0 3.5 
" style="stroke: #000000; stroke-width: 0.8"/>
      </defs>
      <g>
       <use xlink:href="#mc3f37c1e29" x="57.6" y="298.944" style="stroke: #000000; stroke-width: 0.8"/>
      </g>
     </g>
     <g id="text_1">
      <!-- 0 -->
      <g transform="translate(52.191875 318.861344)scale(0.17 -0.17)">
       <defs>
        <path id="DejaVuSans-30" d="M 2034 4250 
Q 1547 4250 1301 3770 
Q 1056 3291 1056 2328 
Q 1056 1369 1301 889 
Q 1547 409 2034 409 
Q 2525 409 2770 889 
Q 3016 1369 3016 2328 
Q 3016 3291 2770 3770 
Q 2525 4250 2034 4250 
z
M 2034 4750 
Q 2819 4750 3233 4129 
Q 3647 3509 3647 2328 
Q 3647 1150 3233 529 
Q 2819 -91 2034 -91 
Q 1250 -91 836 529 
Q 422 1150 422 2328 
Q 422 3509 836 4129 
Q 1250 4750 2034 4750 
z
" transform="scale(0.015625)"/>
       </defs>
       <use xlink:href="#DejaVuSans-30"/>
      </g>
     </g>
    </g>
    <g id="xtick_2">
     <g id="line2d_7">
      <path d="M 144.2304 298.944 
L 144.2304 27.648 
" clip-path="url(#p678d4380cc)" style="fill: none; stroke: #b0b0b0; stroke-width: 0.8; stroke-linecap: square"/>
     </g>
     <g id="line2d_8">
      <g>
       <use xlink:href="#mc3f37c1e29" x="144.2304" y="298.944" style="stroke: #000000; stroke-width: 0.8"/>
      </g>
     </g>
     <g id="text_2">
      <!-- 2 -->
      <g transform="translate(138.822275 318.861344)scale(0.17 -0.17)">
       <defs>
        <path id="DejaVuSans-32" d="M 1228 531 
L 3431 531 
L 3431 0 
L 469 0 
L 469 531 
Q 828 903 1448 1529 
Q 2069 2156 2228 2338 
Q 2531 2678 2651 2914 
Q 2772 3150 2772 3378 
Q 2772 3750 2511 3984 
Q 2250 4219 1831 4219 
Q 1534 4219 1204 4116 
Q 875 4013 500 3803 
L 500 4441 
Q 881 4594 1212 4672 
Q 1544 4750 1819 4750 
Q 2544 4750 2975 4387 
Q 3406 4025 3406 3419 
Q 3406 3131 3298 2873 
Q 3191 2616 2906 2266 
Q 2828 2175 2409 1742 
Q 1991 1309 1228 531 
z
" transform="scale(0.015625)"/>
       </defs>
       <use xlink:href="#DejaVuSans-32"/>
      </g>
     </g>
    </g>
    <g id="xtick_3">
     <g id="line2d_9">
      <path d="M 230.8608 298.944 
L 230.8608 27.648 
" clip-path="url(#p678d4380cc)" style="fill: none; stroke: #b0b0b0; stroke-width: 0.8; stroke-linecap: square"/>
     </g>
     <g id="line2d_10">
      <g>
       <use xlink:href="#mc3f37c1e29" x="230.8608" y="298.944" style="stroke: #000000; stroke-width: 0.8"/>
      </g>
     </g>
     <g id="text_3">
      <!-- 4 -->
      <g transform="translate(225.452675 318.861344)scale(0.17 -0.17)">
       <defs>
        <path id="DejaVuSans-34" d="M 2419 4116 
L 825 1625 
L 2419 1625 
L 2419 4116 
z
M 2253 4666 
L 3047 4666 
L 3047 1625 
L 3713 1625 
L 3713 1100 
L 3047 1100 
L 3047 0 
L 2419 0 
L 2419 1100 
L 313 1100 
L 313 1709 
L 2253 4666 
z
" transform="scale(0.015625)"/>
       </defs>
       <use xlink:href="#DejaVuSans-34"/>
      </g>
     </g>
    </g>
    <g id="xtick_4">
     <g id="line2d_11">
      <path d="M 317.4912 298.944 
L 317.4912 27.648 
" clip-path="url(#p678d4380cc)" style="fill: none; stroke: #b0b0b0; stroke-width: 0.8; stroke-linecap: square"/>
     </g>
     <g id="line2d_12">
      <g>
       <use xlink:href="#mc3f37c1e29" x="317.4912" y="298.944" style="stroke: #000000; stroke-width: 0.8"/>
      </g>
     </g>
     <g id="text_4">
      <!-- 6 -->
      <g transform="translate(312.083075 318.861344)scale(0.17 -0.17)">
       <defs>
        <path id="DejaVuSans-36" d="M 2113 2584 
Q 1688 2584 1439 2293 
Q 1191 2003 1191 1497 
Q 1191 994 1439 701 
Q 1688 409 2113 409 
Q 2538 409 2786 701 
Q 3034 994 3034 1497 
Q 3034 2003 2786 2293 
Q 2538 2584 2113 2584 
z
M 3366 4563 
L 3366 3988 
Q 3128 4100 2886 4159 
Q 2644 4219 2406 4219 
Q 1781 4219 1451 3797 
Q 1122 3375 1075 2522 
Q 1259 2794 1537 2939 
Q 1816 3084 2150 3084 
Q 2853 3084 3261 2657 
Q 3669 2231 3669 1497 
Q 3669 778 3244 343 
Q 2819 -91 2113 -91 
Q 1303 -91 875 529 
Q 447 1150 447 2328 
Q 447 3434 972 4092 
Q 1497 4750 2381 4750 
Q 2619 4750 2861 4703 
Q 3103 4656 3366 4563 
z
" transform="scale(0.015625)"/>
       </defs>
       <use xlink:href="#DejaVuSans-36"/>
      </g>
     </g>
    </g>
    <g id="xtick_5">
     <g id="line2d_13">
      <path d="M 100.9152 298.944 
L 100.9152 27.648 
" clip-path="url(#p678d4380cc)" style="fill: none; stroke: #b0b0b0; stroke-width: 0.8; stroke-linecap: square"/>
     </g>
     <g id="line2d_14">
      <defs>
       <path id="m578d355a5d" d="M 0 0 
L 0 2 
" style="stroke: #000000; stroke-width: 0.6"/>
      </defs>
      <g>
       <use xlink:href="#m578d355a5d" x="100.9152" y="298.944" style="stroke: #000000; stroke-width: 0.6"/>
      </g>
     </g>
    </g>
    <g id="xtick_6">
     <g id="line2d_15">
      <path d="M 187.5456 298.944 
L 187.5456 27.648 
" clip-path="url(#p678d4380cc)" style="fill: none; stroke: #b0b0b0; stroke-width: 0.8; stroke-linecap: square"/>
     </g>
     <g id="line2d_16">
      <g>
       <use xlink:href="#m578d355a5d" x="187.5456" y="298.944" style="stroke: #000000; stroke-width: 0.6"/>
      </g>
     </g>
    </g>
    <g id="xtick_7">
     <g id="line2d_17">
      <path d="M 274.176 298.944 
L 274.176 27.648 
" clip-path="url(#p678d4380cc)" style="fill: none; stroke: #b0b0b0; stroke-width: 0.8; stroke-linecap: square"/>
     </g>
     <g id="line2d_18">
      <g>
       <use xlink:href="#m578d355a5d" x="274.176" y="298.944" style="stroke: #000000; stroke-width: 0.6"/>
      </g>
     </g>
    </g>
    <g id="xtick_8">
     <g id="line2d_19">
      <path d="M 360.8064 298.944 
L 360.8064 27.648 
" clip-path="url(#p678d4380cc)" style="fill: none; stroke: #b0b0b0; stroke-width: 0.8; stroke-linecap: square"/>
     </g>
     <g id="line2d_20">
      <g>
       <use xlink:href="#m578d355a5d" x="360.8064" y="298.944" style="stroke: #000000; stroke-width: 0.6"/>
      </g>
     </g>
    </g>
    <g id="text_5">
     <!-- log10(# f-evals / dimension) -->
     <g transform="translate(88.823278 339.314156)scale(0.17 -0.17)">
      <defs>
       <path id="DejaVuSans-6c" d="M 603 4863 
L 1178 4863 
L 1178 0 
L 603 0 
L 603 4863 
z
" transform="scale(0.015625)"/>
       <path id="DejaVuSans-6f" d="M 1959 3097 
Q 1497 3097 1228 2736 
Q 959 2375 959 1747 
Q 959 1119 1226 758 
Q 1494 397 1959 397 
Q 2419 397 2687 759 
Q 2956 1122 2956 1747 
Q 2956 2369 2687 2733 
Q 2419 3097 1959 3097 
z
M 1959 3584 
Q 2709 3584 3137 3096 
Q 3566 2609 3566 1747 
Q 3566 888 3137 398 
Q 2709 -91 1959 -91 
Q 1206 -91 779 398 
Q 353 888 353 1747 
Q 353 2609 779 3096 
Q 1206 3584 1959 3584 
z
" transform="scale(0.015625)"/>
       <path id="DejaVuSans-67" d="M 2906 1791 
Q 2906 2416 2648 2759 
Q 2391 3103 1925 3103 
Q 1463 3103 1205 2759 
Q 947 2416 947 1791 
Q 947 1169 1205 825 
Q 1463 481 1925 481 
Q 2391 481 2648 825 
Q 2906 1169 2906 1791 
z
M 3481 434 
Q 3481 -459 3084 -895 
Q 2688 -1331 1869 -1331 
Q 1566 -1331 1297 -1286 
Q 1028 -1241 775 -1147 
L 775 -588 
Q 1028 -725 1275 -790 
Q 1522 -856 1778 -856 
Q 2344 -856 2625 -561 
Q 2906 -266 2906 331 
L 2906 616 
Q 2728 306 2450 153 
Q 2172 0 1784 0 
Q 1141 0 747 490 
Q 353 981 353 1791 
Q 353 2603 747 3093 
Q 1141 3584 1784 3584 
Q 2172 3584 2450 3431 
Q 2728 3278 2906 2969 
L 2906 3500 
L 3481 3500 
L 3481 434 
z
" transform="scale(0.015625)"/>
       <path id="DejaVuSans-31" d="M 794 531 
L 1825 531 
L 1825 4091 
L 703 3866 
L 703 4441 
L 1819 4666 
L 2450 4666 
L 2450 531 
L 3481 531 
L 3481 0 
L 794 0 
L 794 531 
z
" transform="scale(0.015625)"/>
       <path id="DejaVuSans-28" d="M 1984 4856 
Q 1566 4138 1362 3434 
Q 1159 2731 1159 2009 
Q 1159 1288 1364 580 
Q 1569 -128 1984 -844 
L 1484 -844 
Q 1016 -109 783 600 
Q 550 1309 550 2009 
Q 550 2706 781 3412 
Q 1013 4119 1484 4856 
L 1984 4856 
z
" transform="scale(0.015625)"/>
       <path id="DejaVuSans-23" d="M 3272 2816 
L 2363 2816 
L 2100 1772 
L 3016 1772 
L 3272 2816 
z
M 2803 4594 
L 2478 3297 
L 3391 3297 
L 3719 4594 
L 4219 4594 
L 3897 3297 
L 4872 3297 
L 4872 2816 
L 3775 2816 
L 3519 1772 
L 4513 1772 
L 4513 1294 
L 3397 1294 
L 3072 0 
L 2572 0 
L 2894 1294 
L 1978 1294 
L 1656 0 
L 1153 0 
L 1478 1294 
L 494 1294 
L 494 1772 
L 1594 1772 
L 1856 2816 
L 850 2816 
L 850 3297 
L 1978 3297 
L 2297 4594 
L 2803 4594 
z
" transform="scale(0.015625)"/>
       <path id="DejaVuSans-20" transform="scale(0.015625)"/>
       <path id="DejaVuSans-66" d="M 2375 4863 
L 2375 4384 
L 1825 4384 
Q 1516 4384 1395 4259 
Q 1275 4134 1275 3809 
L 1275 3500 
L 2222 3500 
L 2222 3053 
L 1275 3053 
L 1275 0 
L 697 0 
L 697 3053 
L 147 3053 
L 147 3500 
L 697 3500 
L 697 3744 
Q 697 4328 969 4595 
Q 1241 4863 1831 4863 
L 2375 4863 
z
" transform="scale(0.015625)"/>
       <path id="DejaVuSans-2d" d="M 313 2009 
L 1997 2009 
L 1997 1497 
L 313 1497 
L 313 2009 
z
" transform="scale(0.015625)"/>
       <path id="DejaVuSans-65" d="M 3597 1894 
L 3597 1613 
L 953 1613 
Q 991 1019 1311 708 
Q 1631 397 2203 397 
Q 2534 397 2845 478 
Q 3156 559 3463 722 
L 3463 178 
Q 3153 47 2828 -22 
Q 2503 -91 2169 -91 
Q 1331 -91 842 396 
Q 353 884 353 1716 
Q 353 2575 817 3079 
Q 1281 3584 2069 3584 
Q 2775 3584 3186 3129 
Q 3597 2675 3597 1894 
z
M 3022 2063 
Q 3016 2534 2758 2815 
Q 2500 3097 2075 3097 
Q 1594 3097 1305 2825 
Q 1016 2553 972 2059 
L 3022 2063 
z
" transform="scale(0.015625)"/>
       <path id="DejaVuSans-76" d="M 191 3500 
L 800 3500 
L 1894 563 
L 2988 3500 
L 3597 3500 
L 2284 0 
L 1503 0 
L 191 3500 
z
" transform="scale(0.015625)"/>
       <path id="DejaVuSans-61" d="M 2194 1759 
Q 1497 1759 1228 1600 
Q 959 1441 959 1056 
Q 959 750 1161 570 
Q 1363 391 1709 391 
Q 2188 391 2477 730 
Q 2766 1069 2766 1631 
L 2766 1759 
L 2194 1759 
z
M 3341 1997 
L 3341 0 
L 2766 0 
L 2766 531 
Q 2569 213 2275 61 
Q 1981 -91 1556 -91 
Q 1019 -91 701 211 
Q 384 513 384 1019 
Q 384 1609 779 1909 
Q 1175 2209 1959 2209 
L 2766 2209 
L 2766 2266 
Q 2766 2663 2505 2880 
Q 2244 3097 1772 3097 
Q 1472 3097 1187 3025 
Q 903 2953 641 2809 
L 641 3341 
Q 956 3463 1253 3523 
Q 1550 3584 1831 3584 
Q 2591 3584 2966 3190 
Q 3341 2797 3341 1997 
z
" transform="scale(0.015625)"/>
       <path id="DejaVuSans-73" d="M 2834 3397 
L 2834 2853 
Q 2591 2978 2328 3040 
Q 2066 3103 1784 3103 
Q 1356 3103 1142 2972 
Q 928 2841 928 2578 
Q 928 2378 1081 2264 
Q 1234 2150 1697 2047 
L 1894 2003 
Q 2506 1872 2764 1633 
Q 3022 1394 3022 966 
Q 3022 478 2636 193 
Q 2250 -91 1575 -91 
Q 1294 -91 989 -36 
Q 684 19 347 128 
L 347 722 
Q 666 556 975 473 
Q 1284 391 1588 391 
Q 1994 391 2212 530 
Q 2431 669 2431 922 
Q 2431 1156 2273 1281 
Q 2116 1406 1581 1522 
L 1381 1569 
Q 847 1681 609 1914 
Q 372 2147 372 2553 
Q 372 3047 722 3315 
Q 1072 3584 1716 3584 
Q 2034 3584 2315 3537 
Q 2597 3491 2834 3397 
z
" transform="scale(0.015625)"/>
       <path id="DejaVuSans-2f" d="M 1625 4666 
L 2156 4666 
L 531 -594 
L 0 -594 
L 1625 4666 
z
" transform="scale(0.015625)"/>
       <path id="DejaVuSans-64" d="M 2906 2969 
L 2906 4863 
L 3481 4863 
L 3481 0 
L 2906 0 
L 2906 525 
Q 2725 213 2448 61 
Q 2172 -91 1784 -91 
Q 1150 -91 751 415 
Q 353 922 353 1747 
Q 353 2572 751 3078 
Q 1150 3584 1784 3584 
Q 2172 3584 2448 3432 
Q 2725 3281 2906 2969 
z
M 947 1747 
Q 947 1113 1208 752 
Q 1469 391 1925 391 
Q 2381 391 2643 752 
Q 2906 1113 2906 1747 
Q 2906 2381 2643 2742 
Q 2381 3103 1925 3103 
Q 1469 3103 1208 2742 
Q 947 2381 947 1747 
z
" transform="scale(0.015625)"/>
       <path id="DejaVuSans-69" d="M 603 3500 
L 1178 3500 
L 1178 0 
L 603 0 
L 603 3500 
z
M 603 4863 
L 1178 4863 
L 1178 4134 
L 603 4134 
L 603 4863 
z
" transform="scale(0.015625)"/>
       <path id="DejaVuSans-6d" d="M 3328 2828 
Q 3544 3216 3844 3400 
Q 4144 3584 4550 3584 
Q 5097 3584 5394 3201 
Q 5691 2819 5691 2113 
L 5691 0 
L 5113 0 
L 5113 2094 
Q 5113 2597 4934 2840 
Q 4756 3084 4391 3084 
Q 3944 3084 3684 2787 
Q 3425 2491 3425 1978 
L 3425 0 
L 2847 0 
L 2847 2094 
Q 2847 2600 2669 2842 
Q 2491 3084 2119 3084 
Q 1678 3084 1418 2786 
Q 1159 2488 1159 1978 
L 1159 0 
L 581 0 
L 581 3500 
L 1159 3500 
L 1159 2956 
Q 1356 3278 1631 3431 
Q 1906 3584 2284 3584 
Q 2666 3584 2933 3390 
Q 3200 3197 3328 2828 
z
" transform="scale(0.015625)"/>
       <path id="DejaVuSans-6e" d="M 3513 2113 
L 3513 0 
L 2938 0 
L 2938 2094 
Q 2938 2591 2744 2837 
Q 2550 3084 2163 3084 
Q 1697 3084 1428 2787 
Q 1159 2491 1159 1978 
L 1159 0 
L 581 0 
L 581 3500 
L 1159 3500 
L 1159 2956 
Q 1366 3272 1645 3428 
Q 1925 3584 2291 3584 
Q 2894 3584 3203 3211 
Q 3513 2838 3513 2113 
z
" transform="scale(0.015625)"/>
       <path id="DejaVuSans-29" d="M 513 4856 
L 1013 4856 
Q 1481 4119 1714 3412 
Q 1947 2706 1947 2009 
Q 1947 1309 1714 600 
Q 1481 -109 1013 -844 
L 513 -844 
Q 928 -128 1133 580 
Q 1338 1288 1338 2009 
Q 1338 2731 1133 3434 
Q 928 4138 513 4856 
z
" transform="scale(0.015625)"/>
      </defs>
      <use xlink:href="#DejaVuSans-6c"/>
      <use xlink:href="#DejaVuSans-6f" x="27.783203"/>
      <use xlink:href="#DejaVuSans-67" x="88.964844"/>
      <use xlink:href="#DejaVuSans-31" x="152.441406"/>
      <use xlink:href="#DejaVuSans-30" x="216.064453"/>
      <use xlink:href="#DejaVuSans-28" x="279.6875"/>
      <use xlink:href="#DejaVuSans-23" x="318.701172"/>
      <use xlink:href="#DejaVuSans-20" x="402.490234"/>
      <use xlink:href="#DejaVuSans-66" x="434.277344"/>
      <use xlink:href="#DejaVuSans-2d" x="463.982422"/>
      <use xlink:href="#DejaVuSans-65" x="500.066406"/>
      <use xlink:href="#DejaVuSans-76" x="561.589844"/>
      <use xlink:href="#DejaVuSans-61" x="620.769531"/>
      <use xlink:href="#DejaVuSans-6c" x="682.048828"/>
      <use xlink:href="#DejaVuSans-73" x="709.832031"/>
      <use xlink:href="#DejaVuSans-20" x="761.931641"/>
      <use xlink:href="#DejaVuSans-2f" x="793.71875"/>
      <use xlink:href="#DejaVuSans-20" x="827.410156"/>
      <use xlink:href="#DejaVuSans-64" x="859.197266"/>
      <use xlink:href="#DejaVuSans-69" x="922.673828"/>
      <use xlink:href="#DejaVuSans-6d" x="950.457031"/>
      <use xlink:href="#DejaVuSans-65" x="1047.869141"/>
      <use xlink:href="#DejaVuSans-6e" x="1109.392578"/>
      <use xlink:href="#DejaVuSans-73" x="1172.771484"/>
      <use xlink:href="#DejaVuSans-69" x="1224.871094"/>
      <use xlink:href="#DejaVuSans-6f" x="1252.654297"/>
      <use xlink:href="#DejaVuSans-6e" x="1313.835938"/>
      <use xlink:href="#DejaVuSans-29" x="1377.214844"/>
     </g>
    </g>
   </g>
   <g id="matplotlib.axis_2">
    <g id="ytick_1">
     <g id="line2d_21">
      <path d="M 57.6 298.944 
L 360.8064 298.944 
" clip-path="url(#p678d4380cc)" style="fill: none; stroke: #b0b0b0; stroke-width: 0.8; stroke-linecap: square"/>
     </g>
     <g id="line2d_22">
      <defs>
       <path id="mb971ff7702" d="M 0 0 
L -3.5 0 
" style="stroke: #000000; stroke-width: 0.8"/>
      </defs>
      <g>
       <use xlink:href="#mb971ff7702" x="57.6" y="298.944" style="stroke: #000000; stroke-width: 0.8"/>
      </g>
     </g>
     <g id="text_6">
      <!-- 0.0 -->
      <g transform="translate(25.155 305.02275)scale(0.16 -0.16)">
       <defs>
        <path id="DejaVuSans-2e" d="M 684 794 
L 1344 794 
L 1344 0 
L 684 0 
L 684 794 
z
" transform="scale(0.015625)"/>
       </defs>
       <use xlink:href="#DejaVuSans-30"/>
       <use xlink:href="#DejaVuSans-2e" x="63.623047"/>
       <use xlink:href="#DejaVuSans-30" x="95.410156"/>
      </g>
     </g>
    </g>
    <g id="ytick_2">
     <g id="line2d_23">
      <path d="M 57.6 244.6848 
L 360.8064 244.6848 
" clip-path="url(#p678d4380cc)" style="fill: none; stroke: #b0b0b0; stroke-width: 0.8; stroke-linecap: square"/>
     </g>
     <g id="line2d_24">
      <g>
       <use xlink:href="#mb971ff7702" x="57.6" y="244.6848" style="stroke: #000000; stroke-width: 0.8"/>
      </g>
     </g>
     <g id="text_7">
      <!-- 0.2 -->
      <g transform="translate(25.155 250.76355)scale(0.16 -0.16)">
       <use xlink:href="#DejaVuSans-30"/>
       <use xlink:href="#DejaVuSans-2e" x="63.623047"/>
       <use xlink:href="#DejaVuSans-32" x="95.410156"/>
      </g>
     </g>
    </g>
    <g id="ytick_3">
     <g id="line2d_25">
      <path d="M 57.6 190.4256 
L 360.8064 190.4256 
" clip-path="url(#p678d4380cc)" style="fill: none; stroke: #b0b0b0; stroke-width: 0.8; stroke-linecap: square"/>
     </g>
     <g id="line2d_26">
      <g>
       <use xlink:href="#mb971ff7702" x="57.6" y="190.4256" style="stroke: #000000; stroke-width: 0.8"/>
      </g>
     </g>
     <g id="text_8">
      <!-- 0.4 -->
      <g transform="translate(25.155 196.50435)scale(0.16 -0.16)">
       <use xlink:href="#DejaVuSans-30"/>
       <use xlink:href="#DejaVuSans-2e" x="63.623047"/>
       <use xlink:href="#DejaVuSans-34" x="95.410156"/>
      </g>
     </g>
    </g>
    <g id="ytick_4">
     <g id="line2d_27">
      <path d="M 57.6 136.1664 
L 360.8064 136.1664 
" clip-path="url(#p678d4380cc)" style="fill: none; stroke: #b0b0b0; stroke-width: 0.8; stroke-linecap: square"/>
     </g>
     <g id="line2d_28">
      <g>
       <use xlink:href="#mb971ff7702" x="57.6" y="136.1664" style="stroke: #000000; stroke-width: 0.8"/>
      </g>
     </g>
     <g id="text_9">
      <!-- 0.6 -->
      <g transform="translate(25.155 142.24515)scale(0.16 -0.16)">
       <use xlink:href="#DejaVuSans-30"/>
       <use xlink:href="#DejaVuSans-2e" x="63.623047"/>
       <use xlink:href="#DejaVuSans-36" x="95.410156"/>
      </g>
     </g>
    </g>
    <g id="ytick_5">
     <g id="line2d_29">
      <path d="M 57.6 81.9072 
L 360.8064 81.9072 
" clip-path="url(#p678d4380cc)" style="fill: none; stroke: #b0b0b0; stroke-width: 0.8; stroke-linecap: square"/>
     </g>
     <g id="line2d_30">
      <g>
       <use xlink:href="#mb971ff7702" x="57.6" y="81.9072" style="stroke: #000000; stroke-width: 0.8"/>
      </g>
     </g>
     <g id="text_10">
      <!-- 0.8 -->
      <g transform="translate(25.155 87.98595)scale(0.16 -0.16)">
       <defs>
        <path id="DejaVuSans-38" d="M 2034 2216 
Q 1584 2216 1326 1975 
Q 1069 1734 1069 1313 
Q 1069 891 1326 650 
Q 1584 409 2034 409 
Q 2484 409 2743 651 
Q 3003 894 3003 1313 
Q 3003 1734 2745 1975 
Q 2488 2216 2034 2216 
z
M 1403 2484 
Q 997 2584 770 2862 
Q 544 3141 544 3541 
Q 544 4100 942 4425 
Q 1341 4750 2034 4750 
Q 2731 4750 3128 4425 
Q 3525 4100 3525 3541 
Q 3525 3141 3298 2862 
Q 3072 2584 2669 2484 
Q 3125 2378 3379 2068 
Q 3634 1759 3634 1313 
Q 3634 634 3220 271 
Q 2806 -91 2034 -91 
Q 1263 -91 848 271 
Q 434 634 434 1313 
Q 434 1759 690 2068 
Q 947 2378 1403 2484 
z
M 1172 3481 
Q 1172 3119 1398 2916 
Q 1625 2713 2034 2713 
Q 2441 2713 2670 2916 
Q 2900 3119 2900 3481 
Q 2900 3844 2670 4047 
Q 2441 4250 2034 4250 
Q 1625 4250 1398 4047 
Q 1172 3844 1172 3481 
z
" transform="scale(0.015625)"/>
       </defs>
       <use xlink:href="#DejaVuSans-30"/>
       <use xlink:href="#DejaVuSans-2e" x="63.623047"/>
       <use xlink:href="#DejaVuSans-38" x="95.410156"/>
      </g>
     </g>
    </g>
    <g id="ytick_6">
     <g id="line2d_31">
      <path d="M 57.6 27.648 
L 360.8064 27.648 
" clip-path="url(#p678d4380cc)" style="fill: none; stroke: #b0b0b0; stroke-width: 0.8; stroke-linecap: square"/>
     </g>
     <g id="line2d_32">
      <g>
       <use xlink:href="#mb971ff7702" x="57.6" y="27.648" style="stroke: #000000; stroke-width: 0.8"/>
      </g>
     </g>
     <g id="text_11">
      <!-- 1.0 -->
      <g transform="translate(25.155 33.72675)scale(0.16 -0.16)">
       <use xlink:href="#DejaVuSans-31"/>
       <use xlink:href="#DejaVuSans-2e" x="63.623047"/>
       <use xlink:href="#DejaVuSans-30" x="95.410156"/>
      </g>
     </g>
    </g>
    <g id="text_12">
     <!-- Fraction of function,target pairs -->
     <g transform="translate(17.619531 297.681)rotate(-90)scale(0.17 -0.17)">
      <defs>
       <path id="DejaVuSans-46" d="M 628 4666 
L 3309 4666 
L 3309 4134 
L 1259 4134 
L 1259 2759 
L 3109 2759 
L 3109 2228 
L 1259 2228 
L 1259 0 
L 628 0 
L 628 4666 
z
" transform="scale(0.015625)"/>
       <path id="DejaVuSans-72" d="M 2631 2963 
Q 2534 3019 2420 3045 
Q 2306 3072 2169 3072 
Q 1681 3072 1420 2755 
Q 1159 2438 1159 1844 
L 1159 0 
L 581 0 
L 581 3500 
L 1159 3500 
L 1159 2956 
Q 1341 3275 1631 3429 
Q 1922 3584 2338 3584 
Q 2397 3584 2469 3576 
Q 2541 3569 2628 3553 
L 2631 2963 
z
" transform="scale(0.015625)"/>
       <path id="DejaVuSans-63" d="M 3122 3366 
L 3122 2828 
Q 2878 2963 2633 3030 
Q 2388 3097 2138 3097 
Q 1578 3097 1268 2742 
Q 959 2388 959 1747 
Q 959 1106 1268 751 
Q 1578 397 2138 397 
Q 2388 397 2633 464 
Q 2878 531 3122 666 
L 3122 134 
Q 2881 22 2623 -34 
Q 2366 -91 2075 -91 
Q 1284 -91 818 406 
Q 353 903 353 1747 
Q 353 2603 823 3093 
Q 1294 3584 2113 3584 
Q 2378 3584 2631 3529 
Q 2884 3475 3122 3366 
z
" transform="scale(0.015625)"/>
       <path id="DejaVuSans-74" d="M 1172 4494 
L 1172 3500 
L 2356 3500 
L 2356 3053 
L 1172 3053 
L 1172 1153 
Q 1172 725 1289 603 
Q 1406 481 1766 481 
L 2356 481 
L 2356 0 
L 1766 0 
Q 1100 0 847 248 
Q 594 497 594 1153 
L 594 3053 
L 172 3053 
L 172 3500 
L 594 3500 
L 594 4494 
L 1172 4494 
z
" transform="scale(0.015625)"/>
       <path id="DejaVuSans-75" d="M 544 1381 
L 544 3500 
L 1119 3500 
L 1119 1403 
Q 1119 906 1312 657 
Q 1506 409 1894 409 
Q 2359 409 2629 706 
Q 2900 1003 2900 1516 
L 2900 3500 
L 3475 3500 
L 3475 0 
L 2900 0 
L 2900 538 
Q 2691 219 2414 64 
Q 2138 -91 1772 -91 
Q 1169 -91 856 284 
Q 544 659 544 1381 
z
M 1991 3584 
L 1991 3584 
z
" transform="scale(0.015625)"/>
       <path id="DejaVuSans-2c" d="M 750 794 
L 1409 794 
L 1409 256 
L 897 -744 
L 494 -744 
L 750 256 
L 750 794 
z
" transform="scale(0.015625)"/>
       <path id="DejaVuSans-70" d="M 1159 525 
L 1159 -1331 
L 581 -1331 
L 581 3500 
L 1159 3500 
L 1159 2969 
Q 1341 3281 1617 3432 
Q 1894 3584 2278 3584 
Q 2916 3584 3314 3078 
Q 3713 2572 3713 1747 
Q 3713 922 3314 415 
Q 2916 -91 2278 -91 
Q 1894 -91 1617 61 
Q 1341 213 1159 525 
z
M 3116 1747 
Q 3116 2381 2855 2742 
Q 2594 3103 2138 3103 
Q 1681 3103 1420 2742 
Q 1159 2381 1159 1747 
Q 1159 1113 1420 752 
Q 1681 391 2138 391 
Q 2594 391 2855 752 
Q 3116 1113 3116 1747 
z
" transform="scale(0.015625)"/>
      </defs>
      <use xlink:href="#DejaVuSans-46"/>
      <use xlink:href="#DejaVuSans-72" x="50.269531"/>
      <use xlink:href="#DejaVuSans-61" x="91.382812"/>
      <use xlink:href="#DejaVuSans-63" x="152.662109"/>
      <use xlink:href="#DejaVuSans-74" x="207.642578"/>
      <use xlink:href="#DejaVuSans-69" x="246.851562"/>
      <use xlink:href="#DejaVuSans-6f" x="274.634766"/>
      <use xlink:href="#DejaVuSans-6e" x="335.816406"/>
      <use xlink:href="#DejaVuSans-20" x="399.195312"/>
      <use xlink:href="#DejaVuSans-6f" x="430.982422"/>
      <use xlink:href="#DejaVuSans-66" x="492.164062"/>
      <use xlink:href="#DejaVuSans-20" x="527.369141"/>
      <use xlink:href="#DejaVuSans-66" x="559.15625"/>
      <use xlink:href="#DejaVuSans-75" x="594.361328"/>
      <use xlink:href="#DejaVuSans-6e" x="657.740234"/>
      <use xlink:href="#DejaVuSans-63" x="721.119141"/>
      <use xlink:href="#DejaVuSans-74" x="776.099609"/>
      <use xlink:href="#DejaVuSans-69" x="815.308594"/>
      <use xlink:href="#DejaVuSans-6f" x="843.091797"/>
      <use xlink:href="#DejaVuSans-6e" x="904.273438"/>
      <use xlink:href="#DejaVuSans-2c" x="967.652344"/>
      <use xlink:href="#DejaVuSans-74" x="999.439453"/>
      <use xlink:href="#DejaVuSans-61" x="1038.648438"/>
      <use xlink:href="#DejaVuSans-72" x="1099.927734"/>
      <use xlink:href="#DejaVuSans-67" x="1139.291016"/>
      <use xlink:href="#DejaVuSans-65" x="1202.767578"/>
      <use xlink:href="#DejaVuSans-74" x="1264.291016"/>
      <use xlink:href="#DejaVuSans-20" x="1303.5"/>
      <use xlink:href="#DejaVuSans-70" x="1335.287109"/>
      <use xlink:href="#DejaVuSans-61" x="1398.763672"/>
      <use xlink:href="#DejaVuSans-69" x="1460.042969"/>
      <use xlink:href="#DejaVuSans-72" x="1487.826172"/>
      <use xlink:href="#DejaVuSans-73" x="1528.939453"/>
     </g>
    </g>
   </g>
   <g id="line2d_33">
    <defs>
     <path id="ma90a092c2a" d="M 0 1.5 
C 0.397805 1.5 0.77937 1.341951 1.06066 1.06066 
C 1.341951 0.77937 1.5 0.397805 1.5 0 
C 1.5 -0.397805 1.341951 -0.77937 1.06066 -1.06066 
C 0.77937 -1.341951 0.397805 -1.5 0 -1.5 
C -0.397805 -1.5 -0.77937 -1.341951 -1.06066 -1.06066 
C -1.341951 -0.77937 -1.5 -0.397805 -1.5 0 
C -1.5 0.397805 -1.341951 0.77937 -1.06066 1.06066 
C -0.77937 1.341951 -0.397805 1.5 0 1.5 
z
" style="stroke: #f5deb3"/>
    </defs>
    <g>
     <use xlink:href="#ma90a092c2a" x="133.983236" y="27.648" style="fill: #f5deb3; stroke: #f5deb3"/>
     <use xlink:href="#ma90a092c2a" x="133.983236" y="27.648" style="fill: #f5deb3; stroke: #f5deb3"/>
    </g>
   </g>
   <g id="line2d_34">
    <defs>
     <path id="m42e5678ce3" d="M 0 1.5 
C 0.397805 1.5 0.77937 1.341951 1.06066 1.06066 
C 1.341951 0.77937 1.5 0.397805 1.5 0 
C 1.5 -0.397805 1.341951 -0.77937 1.06066 -1.06066 
C 0.77937 -1.341951 0.397805 -1.5 0 -1.5 
C -0.397805 -1.5 -0.77937 -1.341951 -1.06066 -1.06066 
C -1.341951 -0.77937 -1.5 -0.397805 -1.5 0 
C -1.5 0.397805 -1.341951 0.77937 -1.06066 1.06066 
C -0.77937 1.341951 -0.397805 1.5 0 1.5 
z
" style="stroke: #000080"/>
    </defs>
    <g>
     <use xlink:href="#m42e5678ce3" x="171.669213" y="27.648" style="fill: #000080; stroke: #000080"/>
     <use xlink:href="#m42e5678ce3" x="171.669213" y="27.648" style="fill: #000080; stroke: #000080"/>
    </g>
   </g>
   <g id="line2d_35">
    <path d="M 44.560826 298.944 
L 44.560826 288.659576 
L 57.6 288.659576 
L 57.6 286.531765 
L 65.227428 286.531765 
L 65.227428 281.921506 
L 70.639174 281.921506 
L 70.639174 279.439059 
L 74.836851 279.439059 
L 74.836851 277.665882 
L 85.894031 277.665882 
L 85.894031 276.247341 
L 87.876026 276.247341 
L 87.876026 271.637082 
L 89.668958 271.637082 
L 89.668958 270.573176 
L 95.503454 270.573176 
L 95.503454 270.218541 
L 96.717523 270.218541 
L 96.717523 269.863906 
L 97.857967 269.863906 
L 97.857967 266.672188 
L 100.9152 266.672188 
L 100.9152 265.253647 
L 101.833019 265.253647 
L 101.833019 261.352659 
L 103.544339 261.352659 
L 103.544339 259.934118 
L 105.112877 259.934118 
L 105.112877 259.224847 
L 105.850679 259.224847 
L 105.850679 257.097035 
L 106.560633 257.097035 
L 106.560633 256.7424 
L 108.542628 256.7424 
L 108.542628 253.550682 
L 109.756698 253.550682 
L 109.756698 252.132141 
L 110.897141 252.132141 
L 110.897141 251.777506 
L 111.97238 251.777506 
L 111.97238 251.422871 
L 112.487797 251.422871 
L 112.487797 249.649694 
L 112.989468 249.649694 
L 112.989468 247.521882 
L 113.478107 247.521882 
L 113.478107 247.167247 
L 114.418881 247.167247 
L 114.418881 246.103341 
L 114.872193 246.103341 
L 114.872193 240.429176 
L 116.988079 240.429176 
L 116.988079 239.010635 
L 118.524569 239.010635 
L 118.524569 238.656 
L 120.28394 238.656 
L 120.28394 238.301365 
L 120.944062 238.301365 
L 120.944062 237.946729 
L 121.892744 237.946729 
L 121.892744 236.882824 
L 122.19863 236.882824 
L 122.19863 235.464282 
L 123.374735 235.464282 
L 123.374735 235.109647 
L 123.936316 235.109647 
L 123.936316 234.755012 
L 125.011554 234.755012 
L 125.011554 234.045741 
L 125.526971 234.045741 
L 125.526971 233.336471 
L 126.756923 233.336471 
L 126.756923 232.981835 
L 127.458055 232.981835 
L 127.458055 230.854024 
L 127.686077 230.854024 
L 127.686077 230.144753 
L 128.354013 230.144753 
L 128.354013 229.790118 
L 129.622688 229.790118 
L 129.622688 229.435482 
L 130.226319 229.435482 
L 130.226319 228.016941 
L 131.191226 228.016941 
L 131.191226 227.662306 
L 131.378407 227.662306 
L 131.378407 227.307671 
L 131.747272 227.307671 
L 131.747272 226.953035 
L 132.109044 226.953035 
L 132.109044 226.5984 
L 132.812362 226.5984 
L 132.812362 226.243765 
L 133.154399 226.243765 
L 133.154399 225.889129 
L 133.323114 225.889129 
L 133.323114 225.534494 
L 133.490329 225.534494 
L 133.490329 225.179859 
L 134.620977 225.179859 
L 134.620977 224.825224 
L 135.237805 224.825224 
L 135.237805 223.406682 
L 136.270855 223.406682 
L 136.270855 222.697412 
L 136.413909 222.697412 
L 136.413909 222.342776 
L 137.250116 222.342776 
L 137.250116 220.924235 
L 137.38594 220.924235 
L 137.38594 220.5696 
L 137.520791 220.5696 
L 137.520791 219.860329 
L 138.818654 219.860329 
L 138.818654 219.505694 
L 139.067817 219.505694 
L 139.067817 219.151059 
L 139.191172 219.151059 
L 139.191172 218.796424 
L 139.435481 218.796424 
L 139.435481 218.441788 
L 139.676658 218.441788 
L 139.676658 217.732518 
L 140.032723 217.732518 
L 140.032723 217.023247 
L 140.611586 217.023247 
L 140.611586 216.313976 
L 140.725251 216.313976 
L 140.725251 215.250071 
L 141.173167 215.250071 
L 141.283499 214.5408 
L 141.393187 214.5408 
L 141.393187 212.412988 
L 141.718467 212.412988 
L 141.718467 212.058353 
L 141.932237 212.058353 
L 141.932237 211.703718 
L 142.661862 211.703718 
L 142.763822 210.285176 
L 143.265494 210.285176 
L 143.265494 209.930541 
L 143.462475 209.930541 
L 143.560197 208.512 
L 143.754133 208.512 
L 143.850356 207.802729 
L 143.946089 207.802729 
L 143.946089 207.448094 
L 144.324223 207.448094 
L 144.417581 206.738824 
L 144.968202 206.738824 
L 144.968202 206.384188 
L 145.326529 206.384188 
L 145.326529 206.029553 
L 145.503164 206.029553 
L 145.503164 205.320282 
L 145.851536 205.320282 
L 145.851536 203.547106 
L 146.023332 203.547106 
L 146.023332 202.4832 
L 146.529503 202.4832 
L 146.529503 201.773929 
L 146.695245 201.773929 
L 146.695245 201.419294 
L 146.859539 201.419294 
L 146.941151 200.710024 
L 147.103321 200.710024 
L 147.183884 199.646118 
L 147.264104 199.646118 
L 147.343984 198.582212 
L 147.423525 198.582212 
L 147.423525 196.099765 
L 147.660152 196.099765 
L 147.660152 194.326588 
L 147.816265 194.326588 
L 147.893838 192.553412 
L 148.124658 192.553412 
L 148.124658 190.070965 
L 148.428077 190.070965 
L 148.503173 187.943153 
L 148.57797 187.943153 
L 148.652472 186.879247 
L 148.726679 186.879247 
L 148.726679 186.524612 
L 149.093387 186.524612 
L 149.093387 185.815341 
L 149.238092 185.815341 
L 149.238092 185.460706 
L 149.453084 185.460706 
L 149.453084 185.106071 
L 149.665646 185.106071 
L 149.73597 182.623624 
L 149.806031 182.623624 
L 149.875833 181.205082 
L 150.014665 181.205082 
L 150.014665 180.850447 
L 150.152479 180.850447 
L 150.152479 179.786541 
L 150.289291 179.786541 
L 150.357325 178.368 
L 150.425115 178.368 
L 150.425115 177.658729 
L 150.892922 177.658729 
L 150.892922 175.885553 
L 151.220087 175.885553 
L 151.284843 174.821647 
L 151.349377 174.821647 
L 151.41369 170.566024 
L 151.54166 170.566024 
L 151.60532 168.792847 
L 151.731998 168.792847 
L 151.795018 168.083576 
L 151.982822 168.083576 
L 152.045009 165.955765 
L 152.291722 165.955765 
L 152.352898 165.246494 
L 152.413875 165.246494 
L 152.474656 163.473318 
L 152.655828 163.473318 
L 152.655828 163.118682 
L 152.775647 163.118682 
L 152.835271 161.700141 
L 152.953957 161.700141 
L 153.01302 159.572329 
L 153.071898 159.572329 
L 153.071898 158.508424 
L 153.189104 158.508424 
L 153.247435 157.799153 
L 153.593669 157.799153 
L 153.593669 157.444518 
L 153.707679 157.444518 
L 153.764426 155.316706 
L 153.821002 155.316706 
L 153.877408 153.543529 
L 153.933646 153.543529 
L 153.989717 149.287906 
L 154.101358 149.287906 
L 154.156931 147.514729 
L 154.267588 147.514729 
L 154.267588 146.805459 
L 154.541415 146.805459 
L 154.595705 145.032282 
L 154.703817 145.032282 
L 154.811312 143.968376 
L 154.971412 143.968376 
L 155.077392 142.1952 
L 155.18278 142.1952 
L 155.28758 138.294212 
L 155.547053 138.294212 
L 155.649849 137.584941 
L 155.904407 137.584941 
L 155.954908 133.329318 
L 156.055505 133.329318 
L 156.105602 131.910776 
L 156.452597 131.910776 
L 156.550574 131.201506 
L 156.599372 131.201506 
L 156.599372 130.492235 
L 156.793307 130.492235 
L 156.84148 129.073694 
L 157.032948 129.073694 
L 157.127956 128.009788 
L 157.175281 128.009788 
L 157.222487 126.945882 
L 157.316545 126.945882 
L 157.363398 124.818071 
L 157.456756 124.818071 
L 157.456756 123.754165 
L 157.595929 123.754165 
L 157.595929 123.044894 
L 157.734081 123.044894 
L 157.825621 121.271718 
L 158.007377 121.271718 
L 158.052543 119.498541 
L 158.276759 119.498541 
L 158.276759 118.434635 
L 158.498335 118.434635 
L 158.58624 117.370729 
L 158.847515 117.370729 
L 158.890711 116.306824 
L 159.019705 116.306824 
L 159.062507 114.179012 
L 159.232748 114.179012 
L 159.317295 112.0512 
L 159.359426 112.0512 
L 159.443406 111.341929 
L 159.568678 111.341929 
L 159.61025 110.632659 
L 159.734419 110.632659 
L 159.734419 110.278024 
L 159.857774 110.278024 
L 159.939564 109.214118 
L 160.020999 109.214118 
L 160.020999 107.440941 
L 160.142495 107.440941 
L 160.223059 105.667765 
L 160.303279 105.667765 
L 160.383158 103.539953 
L 160.581385 103.539953 
L 160.660094 100.702871 
L 160.699326 100.702871 
L 160.777545 97.156518 
L 160.816532 97.156518 
L 160.816532 95.737976 
L 160.933013 95.737976 
L 160.933013 93.9648 
L 161.048777 93.9648 
L 161.125559 92.900894 
L 161.467251 92.900894 
L 161.504837 90.063812 
L 161.617145 90.063812 
L 161.617145 87.936 
L 161.765853 87.936 
L 161.876619 85.808188 
L 162.132562 85.808188 
L 162.168843 82.616471 
L 162.38507 82.616471 
L 162.420867 80.488659 
L 162.56338 80.488659 
L 162.66956 76.233035 
L 162.775144 76.233035 
L 162.775144 75.8784 
L 162.984551 75.8784 
L 162.984551 75.523765 
L 163.294355 75.523765 
L 163.362513 73.750588 
L 163.699647 73.750588 
L 163.79962 66.657882 
L 163.899064 66.657882 
L 163.899064 65.948612 
L 164.063646 65.948612 
L 164.09639 64.884706 
L 164.356312 64.884706 
L 164.356312 64.530071 
L 164.516958 64.530071 
L 164.548924 63.111529 
L 164.644495 63.111529 
L 164.70794 60.983718 
L 164.802709 60.983718 
L 164.802709 58.501271 
L 165.021997 58.501271 
L 165.053116 57.082729 
L 165.361509 57.082729 
L 165.361509 56.373459 
L 165.695002 56.373459 
L 165.695002 54.600282 
L 166.169767 54.600282 
L 166.228279 53.181741 
L 166.8036 53.181741 
L 166.83191 52.117835 
L 167.140533 52.117835 
L 167.251516 50.344659 
L 167.279159 50.344659 
L 167.334325 48.926118 
L 167.444174 48.926118 
L 167.444174 48.571482 
L 167.689013 48.571482 
L 167.689013 48.216847 
L 167.850487 48.216847 
L 167.850487 47.152941 
L 167.983997 47.152941 
L 168.010586 43.961224 
L 168.326754 43.961224 
L 168.326754 43.251953 
L 168.91828 43.251953 
L 168.994082 41.833412 
L 169.144777 41.833412 
L 169.169775 40.769506 
L 169.368578 40.769506 
L 169.368578 39.350965 
L 169.808349 39.350965 
L 169.904695 38.287059 
L 169.976632 38.287059 
L 169.976632 37.932424 
L 170.167131 37.932424 
L 170.190808 35.095341 
L 170.332249 35.095341 
L 170.355719 31.548988 
L 170.864796 31.548988 
L 170.864796 30.839718 
L 171.360458 30.839718 
L 171.427048 28.711906 
L 171.647326 28.711906 
L 171.669213 27.648 
L 360.8064 27.648 
L 360.8064 27.648 
" style="fill: none; stroke: #000080; stroke-width: 1.5; stroke-linecap: square"/>
   </g>
   <g id="line2d_36">
    <defs>
     <path id="m4d1bf9800b" d="M 0 6 
C 1.591219 6 3.117479 5.367802 4.242641 4.242641 
C 5.367802 3.117479 6 1.591219 6 0 
C 6 -1.591219 5.367802 -3.117479 4.242641 -4.242641 
C 3.117479 -5.367802 1.591219 -6 0 -6 
C -1.591219 -6 -3.117479 -5.367802 -4.242641 -4.242641 
C -5.367802 -3.117479 -6 -1.591219 -6 0 
C -6 1.591219 -5.367802 3.117479 -4.242641 4.242641 
C -3.117479 5.367802 -1.591219 6 0 6 
z
" style="stroke: #000080; stroke-width: 1.5"/>
    </defs>
    <g>
     <use xlink:href="#m4d1bf9800b" x="116.988079" y="240.429176" style="fill-opacity: 0; stroke: #000080; stroke-width: 1.5"/>
     <use xlink:href="#m4d1bf9800b" x="151.41369" y="171.984565" style="fill-opacity: 0; stroke: #000080; stroke-width: 1.5"/>
     <use xlink:href="#m4d1bf9800b" x="171.669213" y="28.357271" style="fill-opacity: 0; stroke: #000080; stroke-width: 1.5"/>
     <use xlink:href="#m4d1bf9800b" x="171.669213" y="27.648" style="fill-opacity: 0; stroke: #000080; stroke-width: 1.5"/>
     <use xlink:href="#m4d1bf9800b" x="171.669213" y="27.648" style="fill-opacity: 0; stroke: #000080; stroke-width: 1.5"/>
     <use xlink:href="#m4d1bf9800b" x="360.8064" y="27.648" style="fill-opacity: 0; stroke: #000080; stroke-width: 1.5"/>
    </g>
   </g>
   <g id="line2d_37">
    <path style="fill: none; stroke: #000080; stroke-width: 1.5; stroke-linecap: square"/>
    <g/>
   </g>
   <g id="line2d_38">
    <defs>
     <path id="m0d118cf96d" d="M 0 1.5 
C 0.397805 1.5 0.77937 1.341951 1.06066 1.06066 
C 1.341951 0.77937 1.5 0.397805 1.5 0 
C 1.5 -0.397805 1.341951 -0.77937 1.06066 -1.06066 
C 0.77937 -1.341951 0.397805 -1.5 0 -1.5 
C -0.397805 -1.5 -0.77937 -1.341951 -1.06066 -1.06066 
C -1.341951 -0.77937 -1.5 -0.397805 -1.5 0 
C -1.5 0.397805 -1.341951 0.77937 -1.06066 1.06066 
C -0.77937 1.341951 -0.397805 1.5 0 1.5 
z
" style="stroke: #ff00ff"/>
    </defs>
    <g>
     <use xlink:href="#m0d118cf96d" x="172.314244" y="27.648" style="fill: #ff00ff; stroke: #ff00ff"/>
     <use xlink:href="#m0d118cf96d" x="172.314244" y="27.648" style="fill: #ff00ff; stroke: #ff00ff"/>
    </g>
   </g>
   <g id="line2d_39">
    <path d="M 44.560826 298.944 
L 44.560826 288.659576 
L 70.639174 288.659576 
L 70.639174 286.8864 
L 74.836851 286.8864 
L 74.836851 284.758588 
L 78.266603 284.758588 
L 78.266603 282.276141 
L 81.166416 282.276141 
L 81.166416 280.148329 
L 83.678349 280.148329 
L 83.678349 276.956612 
L 87.876026 276.956612 
L 87.876026 274.474165 
L 91.305777 274.474165 
L 91.305777 273.410259 
L 92.811505 273.410259 
L 92.811505 269.509271 
L 95.503454 269.509271 
L 95.503454 267.381459 
L 96.717523 267.381459 
L 96.717523 265.608282 
L 99.950294 265.608282 
L 99.950294 263.125835 
L 101.833019 263.125835 
L 101.833019 258.160941 
L 102.708132 258.160941 
L 102.708132 254.259953 
L 103.544339 254.259953 
L 103.544339 251.422871 
L 104.344952 251.422871 
L 104.344952 249.295059 
L 106.560633 249.295059 
L 106.560633 248.940424 
L 107.904887 248.940424 
L 107.904887 248.585788 
L 110.335561 248.585788 
L 110.335561 246.103341 
L 111.442442 246.103341 
L 111.442442 245.039435 
L 112.487797 245.039435 
L 112.487797 244.6848 
L 112.989468 244.6848 
L 112.989468 243.620894 
L 113.478107 243.620894 
L 113.478107 242.202353 
L 115.747307 242.202353 
L 115.747307 241.493082 
L 116.583514 241.493082 
L 116.583514 240.783812 
L 118.524569 240.783812 
L 118.524569 240.074541 
L 119.24818 240.074541 
L 119.24818 238.301365 
L 119.599808 238.301365 
L 119.599808 236.882824 
L 120.616896 236.882824 
L 120.616896 236.528188 
L 121.265635 236.528188 
L 121.265635 236.173553 
L 121.581803 236.173553 
L 121.581803 235.109647 
L 123.657621 235.109647 
L 123.657621 234.400376 
L 123.936316 234.400376 
L 123.936316 233.336471 
L 124.481616 233.336471 
L 124.481616 232.6272 
L 126.756923 232.6272 
L 126.756923 231.917929 
L 129.417095 231.917929 
L 129.417095 230.854024 
L 129.622688 230.854024 
L 129.622688 230.499388 
L 130.226319 230.499388 
L 130.226319 230.144753 
L 130.4233 230.144753 
L 130.4233 229.790118 
L 130.811181 229.790118 
L 130.811181 229.435482 
L 132.638982 229.435482 
L 132.638982 228.726212 
L 136.555884 228.726212 
L 136.555884 226.5984 
L 137.250116 226.5984 
L 137.250116 226.243765 
L 137.787626 226.243765 
L 137.787626 225.889129 
L 138.310202 225.889129 
L 138.310202 225.534494 
L 138.818654 225.534494 
L 138.818654 225.179859 
L 139.067817 225.179859 
L 139.067817 224.470588 
L 139.435481 224.470588 
L 139.435481 223.761318 
L 139.796097 223.761318 
L 139.796097 223.406682 
L 140.611586 223.406682 
L 140.611586 223.052047 
L 140.838234 223.052047 
L 140.838234 222.697412 
L 141.50224 222.697412 
L 141.50224 222.342776 
L 141.718467 222.342776 
L 141.718467 220.214965 
L 142.45627 220.214965 
L 142.559347 218.441788 
L 143.166224 218.441788 
L 143.166224 218.087153 
L 144.041338 218.087153 
L 144.136106 216.668612 
L 144.2304 216.668612 
L 144.2304 216.313976 
L 144.417581 216.313976 
L 144.510478 215.604706 
L 144.968202 215.604706 
L 144.968202 215.250071 
L 145.237585 215.250071 
L 145.237585 213.831529 
L 145.415054 213.831529 
L 145.503164 211.703718 
L 145.851536 211.703718 
L 145.851536 210.994447 
L 146.023332 210.994447 
L 146.108646 209.930541 
L 146.27812 209.930541 
L 146.27812 208.512 
L 146.446082 208.512 
L 146.446082 207.448094 
L 147.022411 207.448094 
L 147.103321 206.738824 
L 147.343984 206.738824 
L 147.343984 206.384188 
L 147.502732 206.384188 
L 147.502732 206.029553 
L 147.73837 206.029553 
L 147.816265 203.901741 
L 147.893838 203.901741 
L 147.893838 203.547106 
L 148.124658 203.547106 
L 148.124658 203.192471 
L 148.652472 203.192471 
L 148.652472 202.837835 
L 148.874221 202.837835 
L 148.874221 199.291482 
L 149.020615 199.291482 
L 149.020615 197.872941 
L 149.165879 197.872941 
L 149.238092 196.099765 
L 149.381693 196.099765 
L 149.453084 194.681224 
L 149.595059 194.681224 
L 149.595059 193.617318 
L 150.014665 193.617318 
L 150.083698 192.198776 
L 150.152479 192.198776 
L 150.221009 190.780235 
L 150.289291 190.780235 
L 150.289291 190.4256 
L 150.693856 190.4256 
L 150.760445 189.007059 
L 150.958812 189.007059 
L 150.958812 188.652424 
L 151.220087 188.652424 
L 151.284843 185.460706 
L 151.349377 185.460706 
L 151.41369 181.559718 
L 151.54166 181.559718 
L 151.54166 180.850447 
L 151.731998 180.850447 
L 151.731998 180.141176 
L 151.857828 180.141176 
L 151.920429 179.431906 
L 151.982822 179.431906 
L 152.045009 175.530918 
L 152.230346 175.530918 
L 152.230346 175.176282 
L 152.53524 175.176282 
L 152.53524 174.821647 
L 152.655828 174.821647 
L 152.655828 174.467012 
L 152.775647 174.467012 
L 152.835271 172.693835 
L 152.953957 172.693835 
L 153.01302 171.275294 
L 153.247435 171.275294 
L 153.247435 169.147482 
L 153.593669 169.147482 
L 153.593669 167.728941 
L 153.989717 167.728941 
L 154.04562 167.019671 
L 154.101358 167.019671 
L 154.156931 164.891859 
L 154.432362 164.891859 
L 154.486967 162.764047 
L 154.595705 162.764047 
L 154.703817 160.990871 
L 154.918196 160.990871 
L 154.918196 159.926965 
L 155.235253 159.926965 
L 155.28758 158.863059 
L 155.391799 158.863059 
L 155.443693 157.444518 
L 155.547053 157.444518 
L 155.547053 157.089882 
L 155.701037 157.089882 
L 155.752086 154.962071 
L 155.85377 154.962071 
L 155.954908 153.188894 
L 156.005274 153.188894 
L 156.055505 150.351812 
L 156.155566 150.351812 
L 156.255099 148.578635 
L 156.452597 148.578635 
L 156.501649 145.741553 
L 156.599372 145.741553 
L 156.696589 142.549835 
L 156.745011 142.549835 
L 156.84148 141.840565 
L 156.937458 141.840565 
L 157.032948 140.067388 
L 157.080512 140.067388 
L 157.175281 135.457129 
L 157.222487 135.457129 
L 157.222487 134.038588 
L 157.410135 134.038588 
L 157.410135 133.329318 
L 157.642093 133.329318 
L 157.734081 131.556141 
L 157.825621 131.556141 
L 157.825621 131.201506 
L 157.962102 131.201506 
L 157.962102 130.1376 
L 158.0976 130.1376 
L 158.0976 129.428329 
L 158.232129 129.428329 
L 158.321284 127.655153 
L 158.498335 127.655153 
L 158.498335 127.300518 
L 158.630038 127.300518 
L 158.673735 126.236612 
L 158.760826 126.236612 
L 158.847515 123.044894 
L 158.890711 123.044894 
L 158.933807 118.08 
L 159.019705 118.08 
L 159.105212 117.370729 
L 159.275069 117.370729 
L 159.359426 114.179012 
L 159.443406 114.179012 
L 159.443406 113.115106 
L 159.568678 113.115106 
L 159.651731 108.504847 
L 159.775628 108.504847 
L 159.857774 106.731671 
L 159.898714 106.731671 
L 159.898714 106.377035 
L 160.061585 106.377035 
L 160.061585 105.667765 
L 160.223059 105.667765 
L 160.263211 104.249224 
L 160.4627 104.249224 
L 160.541906 102.830682 
L 160.699326 102.830682 
L 160.699326 102.476047 
L 160.855439 102.476047 
L 160.894266 101.057506 
L 161.010268 101.057506 
L 161.087207 97.511153 
L 161.202028 97.511153 
L 161.240147 96.801882 
L 161.316153 96.801882 
L 161.316153 96.092612 
L 161.42959 96.092612 
L 161.504837 92.900894 
L 161.542347 92.900894 
L 161.542347 91.482353 
L 161.876619 91.482353 
L 161.950101 90.063812 
L 162.05979 90.063812 
L 162.096211 88.999906 
L 162.205054 88.999906 
L 162.31327 87.581365 
L 162.420867 87.581365 
L 162.456597 86.517459 
L 162.59884 86.517459 
L 162.634233 84.744282 
L 162.775144 84.744282 
L 162.880139 81.552565 
L 163.122872 81.552565 
L 163.122872 81.197929 
L 163.328465 81.197929 
L 163.3965 79.070118 
L 163.498092 79.070118 
L 163.59914 78.006212 
L 163.632702 78.006212 
L 163.632702 76.587671 
L 163.79962 76.587671 
L 163.899064 75.523765 
L 164.09639 75.523765 
L 164.161708 71.268141 
L 164.259262 71.268141 
L 164.356312 69.494965 
L 164.388551 69.494965 
L 164.388551 68.785694 
L 164.548924 68.785694 
L 164.612692 67.367153 
L 164.865624 67.367153 
L 164.865624 65.593976 
L 165.084184 65.593976 
L 165.084184 64.884706 
L 165.207944 64.884706 
L 165.207944 64.530071 
L 165.422585 64.530071 
L 165.51383 63.466165 
L 165.574415 63.466165 
L 165.604634 62.756894 
L 165.755007 62.756894 
L 165.784938 62.047624 
L 165.904188 62.047624 
L 165.993131 57.437365 
L 166.140442 57.437365 
L 166.140442 57.082729 
L 166.257466 57.082729 
L 166.257466 56.728094 
L 166.460523 56.728094 
L 166.460523 53.891012 
L 167.444174 53.891012 
L 167.444174 53.536376 
L 167.634879 53.536376 
L 167.716022 52.117835 
L 167.957371 52.117835 
L 167.983997 49.635388 
L 168.142969 49.635388 
L 168.221954 41.478776 
L 168.91828 41.478776 
L 168.91828 40.769506 
L 169.169775 40.769506 
L 169.194741 40.060235 
L 169.516314 40.060235 
L 169.516314 39.7056 
L 169.687218 39.7056 
L 169.687218 37.932424 
L 169.856584 37.932424 
L 169.856584 37.577788 
L 170.308749 37.577788 
L 170.37916 36.868518 
L 170.472634 36.868518 
L 170.472634 36.159247 
L 170.6582 36.159247 
L 170.6582 35.095341 
L 170.773255 35.095341 
L 170.773255 34.031435 
L 171.47131 34.031435 
L 171.581513 31.194353 
L 171.756506 31.194353 
L 171.756506 29.421176 
L 172.165703 29.421176 
L 172.271923 28.711906 
L 172.314244 28.711906 
L 172.314244 27.648 
L 360.8064 27.648 
L 360.8064 27.648 
" style="fill: none; stroke: #ff00ff; stroke-width: 1.5; stroke-linecap: square"/>
   </g>
   <g id="line2d_40">
    <defs>
     <path id="m6d158f8042" d="M -0 8.485281 
L 5.091169 0 
L 0 -8.485281 
L -5.091169 -0 
z
" style="stroke: #ff00ff; stroke-width: 1.5; stroke-linejoin: miter"/>
    </defs>
    <g>
     <use xlink:href="#m6d158f8042" x="121.581803" y="235.109647" style="fill-opacity: 0; stroke: #ff00ff; stroke-width: 1.5; stroke-linejoin: miter"/>
     <use xlink:href="#m6d158f8042" x="154.595705" y="162.764047" style="fill-opacity: 0; stroke: #ff00ff; stroke-width: 1.5; stroke-linejoin: miter"/>
     <use xlink:href="#m6d158f8042" x="172.314244" y="28.711906" style="fill-opacity: 0; stroke: #ff00ff; stroke-width: 1.5; stroke-linejoin: miter"/>
     <use xlink:href="#m6d158f8042" x="172.314244" y="27.648" style="fill-opacity: 0; stroke: #ff00ff; stroke-width: 1.5; stroke-linejoin: miter"/>
     <use xlink:href="#m6d158f8042" x="172.314244" y="27.648" style="fill-opacity: 0; stroke: #ff00ff; stroke-width: 1.5; stroke-linejoin: miter"/>
     <use xlink:href="#m6d158f8042" x="360.8064" y="27.648" style="fill-opacity: 0; stroke: #ff00ff; stroke-width: 1.5; stroke-linejoin: miter"/>
    </g>
   </g>
   <g id="line2d_41">
    <path style="fill: none; stroke: #ff00ff; stroke-width: 1.5; stroke-linecap: square"/>
    <g/>
   </g>
   <g id="line2d_42">
    <defs>
     <path id="md7fd84ed6c" d="M 0 1.5 
C 0.397805 1.5 0.77937 1.341951 1.06066 1.06066 
C 1.341951 0.77937 1.5 0.397805 1.5 0 
C 1.5 -0.397805 1.341951 -0.77937 1.06066 -1.06066 
C 0.77937 -1.341951 0.397805 -1.5 0 -1.5 
C -0.397805 -1.5 -0.77937 -1.341951 -1.06066 -1.06066 
C -1.341951 -0.77937 -1.5 -0.397805 -1.5 0 
C -1.5 0.397805 -1.341951 0.77937 -1.06066 1.06066 
C -0.77937 1.341951 -0.397805 1.5 0 1.5 
z
" style="stroke: #ff7500"/>
    </defs>
    <g>
     <use xlink:href="#md7fd84ed6c" x="169.393282" y="27.648" style="fill: #ff7500; stroke: #ff7500"/>
     <use xlink:href="#md7fd84ed6c" x="169.393282" y="27.648" style="fill: #ff7500; stroke: #ff7500"/>
    </g>
   </g>
   <g id="line2d_43">
    <path d="M 44.560826 298.944 
L 44.560826 288.659576 
L 57.6 288.659576 
L 57.6 285.113224 
L 70.639174 285.113224 
L 70.639174 281.566871 
L 74.836851 281.566871 
L 74.836851 280.148329 
L 78.266603 280.148329 
L 78.266603 278.375153 
L 81.166416 278.375153 
L 81.166416 274.8288 
L 83.678349 274.8288 
L 83.678349 274.474165 
L 87.876026 274.474165 
L 87.876026 271.991718 
L 89.668958 271.991718 
L 89.668958 269.863906 
L 91.305777 269.863906 
L 91.305777 269.154635 
L 95.503454 269.154635 
L 95.503454 268.8 
L 96.717523 268.8 
L 96.717523 267.736094 
L 97.857967 267.736094 
L 97.857967 265.253647 
L 98.933205 265.253647 
L 98.933205 262.7712 
L 100.9152 262.7712 
L 100.9152 258.870212 
L 102.708132 258.870212 
L 102.708132 257.806306 
L 104.344952 257.806306 
L 104.344952 257.451671 
L 105.112877 257.451671 
L 105.112877 255.323859 
L 105.850679 255.323859 
L 105.850679 252.841412 
L 106.560633 252.841412 
L 106.560633 252.132141 
L 107.904887 252.132141 
L 107.904887 251.777506 
L 108.542628 251.777506 
L 108.542628 250.358965 
L 109.159456 250.358965 
L 109.159456 248.940424 
L 109.756698 248.940424 
L 109.756698 248.231153 
L 111.97238 248.231153 
L 111.97238 247.876518 
L 113.954374 247.876518 
L 113.954374 245.394071 
L 118.524569 245.394071 
L 118.524569 244.6848 
L 118.889854 244.6848 
L 118.889854 243.975529 
L 119.24818 243.975529 
L 119.24818 240.783812 
L 120.28394 240.783812 
L 120.28394 240.429176 
L 121.581803 240.429176 
L 121.581803 239.719906 
L 121.892744 239.719906 
L 121.892744 239.365271 
L 122.795872 239.365271 
L 122.795872 238.656 
L 123.08753 238.656 
L 123.08753 237.946729 
L 123.374735 237.946729 
L 123.374735 237.592094 
L 124.748451 237.592094 
L 124.748451 237.237459 
L 125.271028 237.237459 
L 125.271028 236.173553 
L 126.274549 236.173553 
L 126.274549 235.818918 
L 126.517282 235.818918 
L 126.517282 235.464282 
L 126.993549 235.464282 
L 126.993549 234.755012 
L 127.686077 234.755012 
L 127.686077 234.045741 
L 129.417095 234.045741 
L 129.417095 233.691106 
L 130.226319 233.691106 
L 130.226319 232.981835 
L 130.4233 232.981835 
L 130.4233 232.6272 
L 130.811181 232.6272 
L 130.811181 231.208659 
L 131.002163 231.208659 
L 131.002163 230.499388 
L 131.747272 230.499388 
L 131.747272 229.790118 
L 132.109044 229.790118 
L 132.109044 227.662306 
L 133.820365 227.662306 
L 133.820365 227.307671 
L 133.983236 227.307671 
L 133.983236 226.5984 
L 134.620977 226.5984 
L 134.620977 225.534494 
L 135.237805 225.534494 
L 135.237805 225.179859 
L 135.835047 225.179859 
L 135.835047 224.825224 
L 135.981441 224.825224 
L 135.981441 223.761318 
L 136.270855 223.761318 
L 136.270855 223.406682 
L 136.413909 223.406682 
L 136.413909 223.052047 
L 137.520791 223.052047 
L 137.520791 222.697412 
L 138.438609 222.697412 
L 138.438609 222.342776 
L 139.067817 222.342776 
L 139.067817 221.278871 
L 139.191172 221.278871 
L 139.191172 220.924235 
L 139.313723 220.924235 
L 139.313723 220.5696 
L 139.435481 220.5696 
L 139.435481 219.505694 
L 139.796097 219.505694 
L 139.796097 219.151059 
L 139.914782 219.151059 
L 139.914782 218.796424 
L 140.26641 218.796424 
L 140.26641 218.441788 
L 140.49723 218.441788 
L 140.49723 218.087153 
L 140.950542 218.087153 
L 140.950542 217.732518 
L 141.610664 217.732518 
L 141.610664 217.377882 
L 142.248405 217.377882 
L 142.352625 216.668612 
L 142.45627 216.668612 
L 142.45627 216.313976 
L 143.166224 216.313976 
L 143.265494 215.604706 
L 143.364242 215.604706 
L 143.364242 215.250071 
L 143.754133 215.250071 
L 143.850356 214.5408 
L 143.946089 214.5408 
L 144.041338 213.831529 
L 144.136106 213.831529 
L 144.136106 211.349082 
L 144.417581 211.349082 
L 144.510478 209.221271 
L 144.602918 209.221271 
L 144.602918 208.866635 
L 145.148219 208.866635 
L 145.148219 208.512 
L 145.415054 208.512 
L 145.415054 208.157365 
L 145.590864 208.157365 
L 145.590864 207.802729 
L 145.851536 207.802729 
L 145.851536 206.029553 
L 146.108646 206.029553 
L 146.108646 204.965647 
L 146.27812 204.965647 
L 146.27812 203.547106 
L 146.446082 203.547106 
L 146.529503 202.128565 
L 147.022411 202.128565 
L 147.022411 200.710024 
L 147.343984 200.710024 
L 147.343984 200.000753 
L 147.660152 200.000753 
L 147.73837 198.936847 
L 147.816265 198.936847 
L 147.816265 197.163671 
L 147.971093 197.163671 
L 148.048032 193.617318 
L 148.124658 193.617318 
L 148.124658 193.262682 
L 148.428077 193.262682 
L 148.428077 192.198776 
L 148.57797 192.198776 
L 148.652472 191.489506 
L 148.726679 191.489506 
L 148.726679 191.134871 
L 148.874221 191.134871 
L 148.947561 190.070965 
L 149.020615 190.070965 
L 149.093387 189.007059 
L 149.165879 189.007059 
L 149.165879 188.652424 
L 149.31003 188.652424 
L 149.31003 187.943153 
L 149.453084 187.943153 
L 149.524205 186.169976 
L 149.595059 186.169976 
L 149.665646 182.268988 
L 149.73597 182.268988 
L 149.806031 180.495812 
L 150.083698 180.495812 
L 150.083698 180.141176 
L 150.221009 180.141176 
L 150.221009 179.077271 
L 150.425115 179.077271 
L 150.492661 178.368 
L 150.760445 178.368 
L 150.8268 177.658729 
L 150.892922 177.658729 
L 150.892922 176.949459 
L 151.024471 176.949459 
L 151.089903 175.530918 
L 151.155108 175.530918 
L 151.220087 173.403106 
L 151.284843 173.403106 
L 151.349377 169.502118 
L 151.41369 169.502118 
L 151.41369 168.438212 
L 151.60532 168.438212 
L 151.668766 166.3104 
L 151.731998 166.3104 
L 151.731998 165.601129 
L 151.920429 165.601129 
L 151.982822 164.537224 
L 152.045009 164.537224 
L 152.045009 163.118682 
L 152.230346 163.118682 
L 152.291722 161.700141 
L 152.352898 161.700141 
L 152.352898 160.990871 
L 152.595631 160.990871 
L 152.595631 160.636235 
L 152.715833 160.636235 
L 152.715833 158.153788 
L 152.835271 158.153788 
L 152.835271 157.799153 
L 152.953957 157.799153 
L 153.01302 156.380612 
L 153.130592 156.380612 
L 153.130592 155.316706 
L 153.247435 155.316706 
L 153.305585 152.834259 
L 153.363556 152.834259 
L 153.421349 151.770353 
L 153.478964 151.770353 
L 153.536404 149.997176 
L 153.650761 149.997176 
L 153.650761 148.933271 
L 153.821002 148.933271 
L 153.877408 148.224 
L 153.933646 148.224 
L 153.989717 147.514729 
L 154.101358 147.514729 
L 154.212341 143.259106 
L 154.377597 143.259106 
L 154.377597 142.904471 
L 154.541415 142.904471 
L 154.649839 141.840565 
L 154.757642 141.840565 
L 154.811312 139.712753 
L 154.918196 139.712753 
L 154.918196 138.648847 
L 155.13016 138.648847 
L 155.18278 135.811765 
L 155.28758 135.811765 
L 155.28758 135.102494 
L 155.443693 135.102494 
L 155.547053 133.329318 
L 155.701037 133.329318 
L 155.752086 131.201506 
L 155.904407 131.201506 
L 156.005274 129.073694 
L 156.055505 129.073694 
L 156.155566 124.818071 
L 156.205398 124.818071 
L 156.205398 124.463435 
L 156.354107 124.463435 
L 156.452597 122.690259 
L 156.501649 122.690259 
L 156.599372 121.626353 
L 156.648044 121.626353 
L 156.648044 119.498541 
L 156.985263 119.498541 
L 157.080512 115.242918 
L 157.127956 115.242918 
L 157.127956 114.888282 
L 157.269574 114.888282 
L 157.316545 113.469741 
L 157.410135 113.469741 
L 157.503261 110.278024 
L 157.549652 110.278024 
L 157.642093 107.795576 
L 157.734081 107.795576 
L 157.825621 107.086306 
L 157.871225 107.086306 
L 157.962102 101.412141 
L 158.007377 101.412141 
L 158.052543 99.638965 
L 158.187393 99.638965 
L 158.232129 98.575059 
L 158.321284 98.575059 
L 158.410018 95.737976 
L 158.498335 95.737976 
L 158.542339 95.028706 
L 158.630038 95.028706 
L 158.717331 94.319435 
L 158.760826 94.319435 
L 158.804221 92.900894 
L 158.976805 92.900894 
L 158.976805 92.546259 
L 159.14782 92.546259 
L 159.190332 91.127718 
L 159.317295 91.127718 
L 159.401463 88.999906 
L 159.527013 88.999906 
L 159.61025 86.517459 
L 159.651731 86.517459 
L 159.651731 85.808188 
L 159.816746 85.808188 
L 159.816746 84.389647 
L 159.939564 84.389647 
L 160.020999 80.488659 
L 160.061585 80.488659 
L 160.142495 78.006212 
L 160.343261 78.006212 
L 160.383158 77.296941 
L 160.4627 77.296941 
L 160.4627 76.587671 
L 160.660094 76.587671 
L 160.738476 74.459859 
L 160.855439 74.459859 
L 160.933013 71.622776 
L 161.010268 71.622776 
L 161.010268 67.721788 
L 161.504837 67.721788 
L 161.504837 67.012518 
L 161.617145 67.012518 
L 161.617145 64.530071 
L 161.728786 64.530071 
L 161.765853 62.047624 
L 162.023298 62.047624 
L 162.023298 61.338353 
L 162.168843 61.338353 
L 162.241195 60.274447 
L 162.704821 60.274447 
L 162.810208 58.855906 
L 162.984551 58.855906 
L 162.984551 57.792 
L 163.191653 57.792 
L 163.191653 57.082729 
L 163.3965 57.082729 
L 163.430425 54.600282 
L 163.531835 54.600282 
L 163.531835 52.117835 
L 163.666204 52.117835 
L 163.699647 49.635388 
L 163.79962 49.635388 
L 163.79962 47.507576 
L 163.997986 47.507576 
L 163.997986 46.443671 
L 164.194282 46.443671 
L 164.194282 45.379765 
L 164.644495 45.379765 
L 164.644495 45.025129 
L 164.959603 45.025129 
L 165.053116 42.897318 
L 165.330896 42.897318 
L 165.330896 42.542682 
L 165.544147 42.542682 
L 165.634805 40.769506 
L 165.904188 40.769506 
L 165.993131 36.868518 
L 166.286609 36.868518 
L 166.286609 35.449976 
L 166.40273 35.449976 
L 166.489353 34.386071 
L 166.632844 34.386071 
L 166.632844 33.6768 
L 166.83191 33.6768 
L 166.83191 32.258259 
L 167.526142 32.258259 
L 167.526142 31.903624 
L 167.661966 31.903624 
L 167.661966 30.839718 
L 168.116567 30.839718 
L 168.116567 29.775812 
L 168.586228 29.775812 
L 168.586228 28.357271 
L 168.714635 28.357271 
L 168.714635 28.002635 
L 169.393282 28.002635 
L 169.393282 27.648 
L 360.8064 27.648 
L 360.8064 27.648 
" style="fill: none; stroke: #ff7500; stroke-width: 1.5; stroke-linecap: square"/>
   </g>
   <g id="line2d_44">
    <defs>
     <path id="m6c415b2586" d="M 0 -6 
L -1.347084 -1.854102 
L -5.706339 -1.854102 
L -2.179628 0.708204 
L -3.526712 4.854102 
L -0 2.291796 
L 3.526712 4.854102 
L 2.179628 0.708204 
L 5.706339 -1.854102 
L 1.347084 -1.854102 
z
" style="stroke: #ff7500; stroke-width: 1.5; stroke-linejoin: bevel"/>
    </defs>
    <g>
     <use xlink:href="#m6c415b2586" x="127.686077" y="234.045741" style="fill-opacity: 0; stroke: #ff7500; stroke-width: 1.5; stroke-linejoin: bevel"/>
     <use xlink:href="#m6c415b2586" x="153.536404" y="149.997176" style="fill-opacity: 0; stroke: #ff7500; stroke-width: 1.5; stroke-linejoin: bevel"/>
     <use xlink:href="#m6c415b2586" x="169.393282" y="28.002635" style="fill-opacity: 0; stroke: #ff7500; stroke-width: 1.5; stroke-linejoin: bevel"/>
     <use xlink:href="#m6c415b2586" x="169.393282" y="27.648" style="fill-opacity: 0; stroke: #ff7500; stroke-width: 1.5; stroke-linejoin: bevel"/>
     <use xlink:href="#m6c415b2586" x="169.393282" y="27.648" style="fill-opacity: 0; stroke: #ff7500; stroke-width: 1.5; stroke-linejoin: bevel"/>
     <use xlink:href="#m6c415b2586" x="360.8064" y="27.648" style="fill-opacity: 0; stroke: #ff7500; stroke-width: 1.5; stroke-linejoin: bevel"/>
    </g>
   </g>
   <g id="line2d_45">
    <path style="fill: none; stroke: #ff7500; stroke-width: 1.5; stroke-linecap: square"/>
    <g/>
   </g>
   <g id="line2d_46">
    <defs>
     <path id="md56bc9ce0a" d="M 0 1.5 
C 0.397805 1.5 0.77937 1.341951 1.06066 1.06066 
C 1.341951 0.77937 1.5 0.397805 1.5 0 
C 1.5 -0.397805 1.341951 -0.77937 1.06066 -1.06066 
C 0.77937 -1.341951 0.397805 -1.5 0 -1.5 
C -0.397805 -1.5 -0.77937 -1.341951 -1.06066 -1.06066 
C -1.341951 -0.77937 -1.5 -0.397805 -1.5 0 
C -1.5 0.397805 -1.341951 0.77937 -1.06066 1.06066 
C -0.77937 1.341951 -0.397805 1.5 0 1.5 
z
" style="stroke: #6495ed"/>
    </defs>
    <g>
     <use xlink:href="#md56bc9ce0a" x="173.699269" y="27.648" style="fill: #6495ed; stroke: #6495ed"/>
     <use xlink:href="#md56bc9ce0a" x="173.699269" y="27.648" style="fill: #6495ed; stroke: #6495ed"/>
    </g>
   </g>
   <g id="line2d_47">
    <path d="M 44.560826 298.944 
L 44.560826 290.432753 
L 57.6 290.432753 
L 57.6 286.177129 
L 65.227428 286.177129 
L 65.227428 285.113224 
L 70.639174 285.113224 
L 70.639174 282.276141 
L 74.836851 282.276141 
L 74.836851 279.084424 
L 78.266603 279.084424 
L 78.266603 276.956612 
L 81.166416 276.956612 
L 81.166416 276.601976 
L 83.678349 276.601976 
L 83.678349 274.119529 
L 85.894031 274.119529 
L 85.894031 273.055624 
L 91.305777 273.055624 
L 91.305777 268.090729 
L 92.811505 268.090729 
L 92.811505 262.7712 
L 95.503454 262.7712 
L 95.503454 260.998024 
L 96.717523 260.998024 
L 96.717523 256.387765 
L 97.857967 256.387765 
L 97.857967 255.678494 
L 98.933205 255.678494 
L 98.933205 255.323859 
L 101.833019 255.323859 
L 101.833019 253.196047 
L 103.544339 253.196047 
L 103.544339 251.068235 
L 105.112877 251.068235 
L 105.112877 246.103341 
L 105.850679 246.103341 
L 105.850679 245.748706 
L 107.244765 245.748706 
L 107.244765 244.330165 
L 109.159456 244.330165 
L 109.159456 243.266259 
L 111.442442 243.266259 
L 111.442442 242.556988 
L 111.97238 242.556988 
L 111.97238 240.783812 
L 112.487797 240.783812 
L 112.487797 239.365271 
L 113.954374 239.365271 
L 113.954374 239.010635 
L 115.314838 239.010635 
L 115.314838 236.528188 
L 118.889854 236.528188 
L 118.889854 236.173553 
L 119.944983 236.173553 
L 119.944983 234.755012 
L 124.481616 234.755012 
L 124.481616 231.917929 
L 124.748451 231.917929 
L 124.748451 230.499388 
L 126.028642 230.499388 
L 126.028642 229.790118 
L 129.622688 229.790118 
L 129.622688 227.307671 
L 129.826058 227.307671 
L 129.826058 225.889129 
L 130.226319 225.889129 
L 130.226319 225.534494 
L 131.378407 225.534494 
L 131.378407 225.179859 
L 133.154399 225.179859 
L 133.154399 224.825224 
L 133.490329 224.825224 
L 133.490329 224.470588 
L 134.620977 224.470588 
L 134.620977 223.406682 
L 135.085483 223.406682 
L 135.085483 221.988141 
L 135.388902 221.988141 
L 135.388902 220.5696 
L 135.538796 220.5696 
L 135.538796 220.214965 
L 135.981441 220.214965 
L 135.981441 219.860329 
L 136.270855 219.860329 
L 136.270855 219.505694 
L 136.836659 219.505694 
L 136.836659 218.796424 
L 137.250116 218.796424 
L 137.250116 218.441788 
L 138.310202 218.441788 
L 138.310202 216.668612 
L 138.438609 216.668612 
L 138.438609 215.604706 
L 138.692823 215.604706 
L 138.692823 213.831529 
L 138.818654 213.831529 
L 138.818654 213.476894 
L 139.067817 213.476894 
L 139.067817 209.930541 
L 139.191172 209.930541 
L 139.191172 209.575906 
L 140.032723 209.575906 
L 140.032723 208.866635 
L 140.49723 208.866635 
L 140.49723 208.512 
L 140.950542 208.512 
L 140.950542 208.157365 
L 141.393187 208.157365 
L 141.393187 207.093459 
L 141.825656 207.093459 
L 141.932237 205.674918 
L 142.038218 205.674918 
L 142.143605 203.547106 
L 142.248405 203.547106 
L 142.352625 201.773929 
L 142.45627 201.773929 
L 142.45627 200.000753 
L 142.763822 200.000753 
L 142.763822 199.646118 
L 142.966099 199.646118 
L 142.966099 199.291482 
L 143.166224 199.291482 
L 143.166224 197.518306 
L 143.560197 197.518306 
L 143.560197 196.809035 
L 143.754133 196.809035 
L 143.754133 196.4544 
L 143.946089 196.4544 
L 143.946089 196.099765 
L 144.136106 196.099765 
L 144.136106 194.326588 
L 144.417581 194.326588 
L 144.417581 193.971953 
L 144.786447 193.971953 
L 144.786447 193.617318 
L 144.968202 193.617318 
L 145.058426 192.553412 
L 145.590864 192.553412 
L 145.590864 191.844141 
L 145.765046 191.844141 
L 145.851536 189.716329 
L 145.93763 189.716329 
L 145.93763 189.361694 
L 146.362288 189.361694 
L 146.446082 188.297788 
L 146.529503 188.297788 
L 146.612557 186.524612 
L 147.264104 186.524612 
L 147.264104 184.751435 
L 147.971093 184.751435 
L 147.971093 184.3968 
L 148.276979 184.3968 
L 148.352679 183.332894 
L 148.503173 183.332894 
L 148.57797 181.559718 
L 148.652472 181.559718 
L 148.726679 180.850447 
L 148.800595 180.850447 
L 148.874221 179.077271 
L 148.947561 179.077271 
L 148.947561 176.594824 
L 149.093387 176.594824 
L 149.165879 175.885553 
L 149.31003 175.885553 
L 149.31003 174.467012 
L 149.524205 174.467012 
L 149.524205 173.757741 
L 149.665646 173.757741 
L 149.73597 172.3392 
L 149.806031 172.3392 
L 149.806031 171.629929 
L 149.945377 171.629929 
L 150.014665 169.502118 
L 150.152479 169.502118 
L 150.152479 169.147482 
L 150.289291 169.147482 
L 150.289291 168.083576 
L 150.425115 168.083576 
L 150.425115 167.728941 
L 150.559965 167.728941 
L 150.559965 167.374306 
L 150.693856 167.374306 
L 150.760445 165.601129 
L 150.8268 165.601129 
L 150.8268 164.537224 
L 151.024471 164.537224 
L 151.024471 163.473318 
L 151.477784 163.473318 
L 151.54166 162.054776 
L 151.60532 162.054776 
L 151.60532 159.926965 
L 151.731998 159.926965 
L 151.795018 155.671341 
L 151.857828 155.671341 
L 151.857828 154.962071 
L 151.982822 154.962071 
L 152.045009 152.834259 
L 152.230346 152.834259 
L 152.230346 151.415718 
L 152.352898 151.415718 
L 152.413875 148.578635 
L 152.655828 148.578635 
L 152.715833 147.514729 
L 152.775647 147.514729 
L 152.775647 147.160094 
L 152.894708 147.160094 
L 152.894708 146.805459 
L 153.01302 146.805459 
L 153.071898 146.096188 
L 153.189104 146.096188 
L 153.247435 144.677647 
L 153.305585 144.677647 
L 153.363556 143.259106 
L 153.478964 143.259106 
L 153.536404 141.840565 
L 153.650761 141.840565 
L 153.650761 141.485929 
L 153.821002 141.485929 
L 153.877408 139.712753 
L 153.933646 139.712753 
L 153.933646 138.648847 
L 154.04562 138.648847 
L 154.04562 137.230306 
L 154.156931 137.230306 
L 154.212341 135.102494 
L 154.322673 135.102494 
L 154.432362 132.974682 
L 154.86483 132.974682 
L 154.971412 130.1376 
L 155.024477 130.1376 
L 155.077392 126.945882 
L 155.18278 126.945882 
L 155.28758 125.172706 
L 155.443693 125.172706 
L 155.495444 123.754165 
L 155.649849 123.754165 
L 155.752086 121.626353 
L 155.85377 121.626353 
L 155.954908 119.498541 
L 156.005274 119.498541 
L 156.055505 116.306824 
L 156.205398 116.306824 
L 156.304668 112.0512 
L 156.354107 112.0512 
L 156.452597 109.214118 
L 156.550574 109.214118 
L 156.550574 108.150212 
L 156.745011 108.150212 
L 156.84148 103.539953 
L 156.985263 103.539953 
L 157.032948 100.702871 
L 157.175281 100.702871 
L 157.269574 98.929694 
L 157.363398 98.929694 
L 157.456756 97.865788 
L 157.503261 97.865788 
L 157.549652 96.447247 
L 157.688143 96.447247 
L 157.779907 92.900894 
L 157.916719 92.900894 
L 158.007377 91.127718 
L 158.0976 91.127718 
L 158.14255 89.709176 
L 158.232129 89.709176 
L 158.232129 88.999906 
L 158.410018 88.999906 
L 158.410018 88.290635 
L 158.630038 88.290635 
L 158.717331 82.971106 
L 158.804221 82.971106 
L 158.804221 81.552565 
L 158.976805 81.552565 
L 158.976805 81.197929 
L 159.105212 81.197929 
L 159.190332 78.360847 
L 159.232748 78.360847 
L 159.232748 77.651576 
L 159.359426 77.651576 
L 159.443406 75.523765 
L 159.485256 75.523765 
L 159.485256 75.169129 
L 159.61025 75.169129 
L 159.693121 70.558871 
L 159.816746 70.558871 
L 159.857774 68.076424 
L 160.223059 68.076424 
L 160.303279 65.239341 
L 160.383158 65.239341 
L 160.383158 64.884706 
L 160.541906 64.884706 
L 160.620781 62.402259 
L 160.738476 62.402259 
L 160.816532 59.210541 
L 160.933013 59.210541 
L 161.010268 57.792 
L 161.125559 57.792 
L 161.125559 56.728094 
L 161.42959 56.728094 
L 161.467251 55.664188 
L 161.542347 55.664188 
L 161.579783 52.117835 
L 161.691646 52.117835 
L 161.691646 51.7632 
L 161.802848 51.7632 
L 161.802848 50.699294 
L 161.986735 50.699294 
L 162.096211 49.280753 
L 162.277267 49.280753 
L 162.349204 47.862212 
L 162.56338 47.862212 
L 162.66956 46.798306 
L 162.740015 46.798306 
L 162.740015 46.443671 
L 162.880139 46.443671 
L 162.880139 46.089035 
L 163.088387 46.089035 
L 163.191653 43.606588 
L 163.632702 43.606588 
L 163.699647 42.542682 
L 163.79962 42.542682 
L 163.832826 41.833412 
L 164.030845 41.833412 
L 164.063646 40.769506 
L 165.238758 40.769506 
L 165.238758 40.414871 
L 166.888401 40.414871 
L 166.888401 40.060235 
L 167.279159 40.060235 
L 167.279159 39.7056 
L 167.661966 39.7056 
L 167.661966 39.350965 
L 167.796816 39.350965 
L 167.796816 38.641694 
L 168.994082 38.641694 
L 168.994082 38.287059 
L 169.144777 38.287059 
L 169.144777 37.932424 
L 169.735764 37.932424 
L 169.735764 36.868518 
L 170.261661 36.868518 
L 170.261661 36.513882 
L 170.472634 36.513882 
L 170.472634 35.804612 
L 170.727317 35.804612 
L 170.727317 35.449976 
L 170.955893 35.449976 
L 171.001277 34.386071 
L 171.226568 34.386071 
L 171.293632 33.6768 
L 171.82171 33.6768 
L 171.82171 33.322165 
L 172.101681 33.322165 
L 172.101681 32.258259 
L 172.3986 32.258259 
L 172.461621 30.839718 
L 172.566188 30.839718 
L 172.566188 30.130447 
L 173.039848 30.130447 
L 173.080478 28.711906 
L 173.699269 28.711906 
L 173.699269 27.648 
L 360.8064 27.648 
L 360.8064 27.648 
" style="fill: none; stroke: #6495ed; stroke-width: 1.5; stroke-linecap: square"/>
   </g>
   <g id="line2d_48">
    <defs>
     <path id="m6342f517a5" d="M -0 6 
L 6 -6 
L -6 -6 
z
" style="stroke: #6495ed; stroke-width: 1.5; stroke-linejoin: miter"/>
    </defs>
    <g>
     <use xlink:href="#m6342f517a5" x="105.112877" y="251.068235" style="fill-opacity: 0; stroke: #6495ed; stroke-width: 1.5; stroke-linejoin: miter"/>
     <use xlink:href="#m6342f517a5" x="153.305585" y="143.968376" style="fill-opacity: 0; stroke: #6495ed; stroke-width: 1.5; stroke-linejoin: miter"/>
     <use xlink:href="#m6342f517a5" x="173.699269" y="28.711906" style="fill-opacity: 0; stroke: #6495ed; stroke-width: 1.5; stroke-linejoin: miter"/>
     <use xlink:href="#m6342f517a5" x="173.699269" y="27.648" style="fill-opacity: 0; stroke: #6495ed; stroke-width: 1.5; stroke-linejoin: miter"/>
     <use xlink:href="#m6342f517a5" x="173.699269" y="27.648" style="fill-opacity: 0; stroke: #6495ed; stroke-width: 1.5; stroke-linejoin: miter"/>
     <use xlink:href="#m6342f517a5" x="360.8064" y="27.648" style="fill-opacity: 0; stroke: #6495ed; stroke-width: 1.5; stroke-linejoin: miter"/>
    </g>
   </g>
   <g id="line2d_49">
    <path style="fill: none; stroke: #6495ed; stroke-width: 1.5; stroke-linecap: square"/>
    <g/>
   </g>
   <g id="line2d_50">
    <path d="M 360.8064 27.648 
L 380.514816 293.51808 
" style="fill: none; stroke: #6495ed; stroke-width: 1.5; stroke-linecap: square"/>
    <g>
     <use xlink:href="#m6342f517a5" x="360.8064" y="27.648" style="fill-opacity: 0; stroke: #6495ed; stroke-width: 1.5; stroke-linejoin: miter"/>
     <use xlink:href="#m6342f517a5" x="380.514816" y="293.51808" style="fill-opacity: 0; stroke: #6495ed; stroke-width: 1.5; stroke-linejoin: miter"/>
    </g>
   </g>
   <g id="line2d_51">
    <path d="M 360.8064 27.648 
L 380.514816 228.40704 
" style="fill: none; stroke: #ff00ff; stroke-width: 1.5; stroke-linecap: square"/>
    <g>
     <use xlink:href="#m6d158f8042" x="360.8064" y="27.648" style="fill-opacity: 0; stroke: #ff00ff; stroke-width: 1.5; stroke-linejoin: miter"/>
     <use xlink:href="#m6d158f8042" x="380.514816" y="228.40704" style="fill-opacity: 0; stroke: #ff00ff; stroke-width: 1.5; stroke-linejoin: miter"/>
    </g>
   </g>
   <g id="line2d_52">
    <path d="M 360.8064 27.648 
L 380.514816 163.296 
" style="fill: none; stroke: #000080; stroke-width: 1.5; stroke-linecap: square"/>
    <g>
     <use xlink:href="#m4d1bf9800b" x="360.8064" y="27.648" style="fill-opacity: 0; stroke: #000080; stroke-width: 1.5"/>
     <use xlink:href="#m4d1bf9800b" x="380.514816" y="163.296" style="fill-opacity: 0; stroke: #000080; stroke-width: 1.5"/>
    </g>
   </g>
   <g id="line2d_53">
    <path d="M 360.8064 27.648 
L 380.514816 98.18496 
" style="fill: none; stroke: #ff7500; stroke-width: 1.5; stroke-linecap: square"/>
    <g>
     <use xlink:href="#m6c415b2586" x="360.8064" y="27.648" style="fill-opacity: 0; stroke: #ff7500; stroke-width: 1.5; stroke-linejoin: bevel"/>
     <use xlink:href="#m6c415b2586" x="380.514816" y="98.18496" style="fill-opacity: 0; stroke: #ff7500; stroke-width: 1.5; stroke-linejoin: bevel"/>
    </g>
   </g>
   <g id="line2d_54">
    <path d="M 360.8064 298.944 
L 360.8064 27.648 
" style="fill: none; stroke: #000000; stroke-width: 1.5; stroke-linecap: square"/>
   </g>
   <g id="patch_3">
    <path d="M 57.6 298.944 
L 360.8064 298.944 
" style="fill: none; stroke: #000000; stroke-width: 0.8; stroke-linejoin: miter; stroke-linecap: square"/>
   </g>
   <g id="patch_4">
    <path d="M 57.6 27.648 
L 360.8064 27.648 
" style="fill: none; stroke: #000000; stroke-width: 0.8; stroke-linejoin: miter; stroke-linecap: square"/>
   </g>
   <g id="text_13">
    <!-- CMA-ES-20 -->
    <g transform="translate(386.578944 297.381205)scale(0.14 -0.14)">
     <defs>
      <path id="DejaVuSans-43" d="M 4122 4306 
L 4122 3641 
Q 3803 3938 3442 4084 
Q 3081 4231 2675 4231 
Q 1875 4231 1450 3742 
Q 1025 3253 1025 2328 
Q 1025 1406 1450 917 
Q 1875 428 2675 428 
Q 3081 428 3442 575 
Q 3803 722 4122 1019 
L 4122 359 
Q 3791 134 3420 21 
Q 3050 -91 2638 -91 
Q 1578 -91 968 557 
Q 359 1206 359 2328 
Q 359 3453 968 4101 
Q 1578 4750 2638 4750 
Q 3056 4750 3426 4639 
Q 3797 4528 4122 4306 
z
" transform="scale(0.015625)"/>
      <path id="DejaVuSans-4d" d="M 628 4666 
L 1569 4666 
L 2759 1491 
L 3956 4666 
L 4897 4666 
L 4897 0 
L 4281 0 
L 4281 4097 
L 3078 897 
L 2444 897 
L 1241 4097 
L 1241 0 
L 628 0 
L 628 4666 
z
" transform="scale(0.015625)"/>
      <path id="DejaVuSans-41" d="M 2188 4044 
L 1331 1722 
L 3047 1722 
L 2188 4044 
z
M 1831 4666 
L 2547 4666 
L 4325 0 
L 3669 0 
L 3244 1197 
L 1141 1197 
L 716 0 
L 50 0 
L 1831 4666 
z
" transform="scale(0.015625)"/>
      <path id="DejaVuSans-45" d="M 628 4666 
L 3578 4666 
L 3578 4134 
L 1259 4134 
L 1259 2753 
L 3481 2753 
L 3481 2222 
L 1259 2222 
L 1259 531 
L 3634 531 
L 3634 0 
L 628 0 
L 628 4666 
z
" transform="scale(0.015625)"/>
      <path id="DejaVuSans-53" d="M 3425 4513 
L 3425 3897 
Q 3066 4069 2747 4153 
Q 2428 4238 2131 4238 
Q 1616 4238 1336 4038 
Q 1056 3838 1056 3469 
Q 1056 3159 1242 3001 
Q 1428 2844 1947 2747 
L 2328 2669 
Q 3034 2534 3370 2195 
Q 3706 1856 3706 1288 
Q 3706 609 3251 259 
Q 2797 -91 1919 -91 
Q 1588 -91 1214 -16 
Q 841 59 441 206 
L 441 856 
Q 825 641 1194 531 
Q 1563 422 1919 422 
Q 2459 422 2753 634 
Q 3047 847 3047 1241 
Q 3047 1584 2836 1778 
Q 2625 1972 2144 2069 
L 1759 2144 
Q 1053 2284 737 2584 
Q 422 2884 422 3419 
Q 422 4038 858 4394 
Q 1294 4750 2059 4750 
Q 2388 4750 2728 4690 
Q 3069 4631 3425 4513 
z
" transform="scale(0.015625)"/>
     </defs>
     <use xlink:href="#DejaVuSans-43"/>
     <use xlink:href="#DejaVuSans-4d" x="69.824219"/>
     <use xlink:href="#DejaVuSans-41" x="156.103516"/>
     <use xlink:href="#DejaVuSans-2d" x="222.261719"/>
     <use xlink:href="#DejaVuSans-45" x="258.345703"/>
     <use xlink:href="#DejaVuSans-53" x="321.529297"/>
     <use xlink:href="#DejaVuSans-2d" x="385.005859"/>
     <use xlink:href="#DejaVuSans-32" x="421.089844"/>
     <use xlink:href="#DejaVuSans-30" x="484.712891"/>
    </g>
   </g>
   <g id="text_14">
    <!-- cma1rep -->
    <g transform="translate(386.578944 232.270165)scale(0.14 -0.14)">
     <use xlink:href="#DejaVuSans-63"/>
     <use xlink:href="#DejaVuSans-6d" x="54.980469"/>
     <use xlink:href="#DejaVuSans-61" x="152.392578"/>
     <use xlink:href="#DejaVuSans-31" x="213.671875"/>
     <use xlink:href="#DejaVuSans-72" x="277.294922"/>
     <use xlink:href="#DejaVuSans-65" x="316.158203"/>
     <use xlink:href="#DejaVuSans-70" x="377.681641"/>
    </g>
   </g>
   <g id="text_15">
    <!-- cma0rep -->
    <g transform="translate(386.578944 167.159125)scale(0.14 -0.14)">
     <use xlink:href="#DejaVuSans-63"/>
     <use xlink:href="#DejaVuSans-6d" x="54.980469"/>
     <use xlink:href="#DejaVuSans-61" x="152.392578"/>
     <use xlink:href="#DejaVuSans-30" x="213.671875"/>
     <use xlink:href="#DejaVuSans-72" x="277.294922"/>
     <use xlink:href="#DejaVuSans-65" x="316.158203"/>
     <use xlink:href="#DejaVuSans-70" x="377.681641"/>
    </g>
   </g>
   <g id="text_16">
    <!-- cma0-no-s -->
    <g transform="translate(386.578944 102.048085)scale(0.14 -0.14)">
     <use xlink:href="#DejaVuSans-63"/>
     <use xlink:href="#DejaVuSans-6d" x="54.980469"/>
     <use xlink:href="#DejaVuSans-61" x="152.392578"/>
     <use xlink:href="#DejaVuSans-30" x="213.671875"/>
     <use xlink:href="#DejaVuSans-2d" x="277.294922"/>
     <use xlink:href="#DejaVuSans-6e" x="313.378906"/>
     <use xlink:href="#DejaVuSans-6f" x="376.757812"/>
     <use xlink:href="#DejaVuSans-2d" x="439.814453"/>
     <use xlink:href="#DejaVuSans-73" x="475.898438"/>
    </g>
   </g>
   <g id="text_17">
    <!-- best 2009 -->
    <g transform="translate(386.578944 36.937045)scale(0.14 -0.14)">
     <defs>
      <path id="DejaVuSans-62" d="M 3116 1747 
Q 3116 2381 2855 2742 
Q 2594 3103 2138 3103 
Q 1681 3103 1420 2742 
Q 1159 2381 1159 1747 
Q 1159 1113 1420 752 
Q 1681 391 2138 391 
Q 2594 391 2855 752 
Q 3116 1113 3116 1747 
z
M 1159 2969 
Q 1341 3281 1617 3432 
Q 1894 3584 2278 3584 
Q 2916 3584 3314 3078 
Q 3713 2572 3713 1747 
Q 3713 922 3314 415 
Q 2916 -91 2278 -91 
Q 1894 -91 1617 61 
Q 1341 213 1159 525 
L 1159 0 
L 581 0 
L 581 4863 
L 1159 4863 
L 1159 2969 
z
" transform="scale(0.015625)"/>
      <path id="DejaVuSans-39" d="M 703 97 
L 703 672 
Q 941 559 1184 500 
Q 1428 441 1663 441 
Q 2288 441 2617 861 
Q 2947 1281 2994 2138 
Q 2813 1869 2534 1725 
Q 2256 1581 1919 1581 
Q 1219 1581 811 2004 
Q 403 2428 403 3163 
Q 403 3881 828 4315 
Q 1253 4750 1959 4750 
Q 2769 4750 3195 4129 
Q 3622 3509 3622 2328 
Q 3622 1225 3098 567 
Q 2575 -91 1691 -91 
Q 1453 -91 1209 -44 
Q 966 3 703 97 
z
M 1959 2075 
Q 2384 2075 2632 2365 
Q 2881 2656 2881 3163 
Q 2881 3666 2632 3958 
Q 2384 4250 1959 4250 
Q 1534 4250 1286 3958 
Q 1038 3666 1038 3163 
Q 1038 2656 1286 2365 
Q 1534 2075 1959 2075 
z
" transform="scale(0.015625)"/>
     </defs>
     <use xlink:href="#DejaVuSans-62"/>
     <use xlink:href="#DejaVuSans-65" x="63.476562"/>
     <use xlink:href="#DejaVuSans-73" x="125"/>
     <use xlink:href="#DejaVuSans-74" x="177.099609"/>
     <use xlink:href="#DejaVuSans-20" x="216.308594"/>
     <use xlink:href="#DejaVuSans-32" x="248.095703"/>
     <use xlink:href="#DejaVuSans-30" x="311.71875"/>
     <use xlink:href="#DejaVuSans-30" x="375.341797"/>
     <use xlink:href="#DejaVuSans-39" x="438.964844"/>
    </g>
   </g>
   <g id="text_18">
    <!-- bbob f8, 2-D -->
    <g transform="translate(60.632064 38.111366)scale(0.102 -0.102)">
     <defs>
      <path id="DejaVuSans-44" d="M 1259 4147 
L 1259 519 
L 2022 519 
Q 2988 519 3436 956 
Q 3884 1394 3884 2338 
Q 3884 3275 3436 3711 
Q 2988 4147 2022 4147 
L 1259 4147 
z
M 628 4666 
L 1925 4666 
Q 3281 4666 3915 4102 
Q 4550 3538 4550 2338 
Q 4550 1131 3912 565 
Q 3275 0 1925 0 
L 628 0 
L 628 4666 
z
" transform="scale(0.015625)"/>
     </defs>
     <use xlink:href="#DejaVuSans-62"/>
     <use xlink:href="#DejaVuSans-62" x="63.476562"/>
     <use xlink:href="#DejaVuSans-6f" x="126.953125"/>
     <use xlink:href="#DejaVuSans-62" x="188.134766"/>
     <use xlink:href="#DejaVuSans-20" x="251.611328"/>
     <use xlink:href="#DejaVuSans-66" x="283.398438"/>
     <use xlink:href="#DejaVuSans-38" x="318.603516"/>
     <use xlink:href="#DejaVuSans-2c" x="382.226562"/>
     <use xlink:href="#DejaVuSans-20" x="414.013672"/>
     <use xlink:href="#DejaVuSans-32" x="445.800781"/>
     <use xlink:href="#DejaVuSans-2d" x="509.423828"/>
     <use xlink:href="#DejaVuSans-44" x="545.507812"/>
    </g>
    <!-- 51 targets: 100..1e-08 -->
    <g transform="translate(60.632064 49.533135)scale(0.102 -0.102)">
     <defs>
      <path id="DejaVuSans-35" d="M 691 4666 
L 3169 4666 
L 3169 4134 
L 1269 4134 
L 1269 2991 
Q 1406 3038 1543 3061 
Q 1681 3084 1819 3084 
Q 2600 3084 3056 2656 
Q 3513 2228 3513 1497 
Q 3513 744 3044 326 
Q 2575 -91 1722 -91 
Q 1428 -91 1123 -41 
Q 819 9 494 109 
L 494 744 
Q 775 591 1075 516 
Q 1375 441 1709 441 
Q 2250 441 2565 725 
Q 2881 1009 2881 1497 
Q 2881 1984 2565 2268 
Q 2250 2553 1709 2553 
Q 1456 2553 1204 2497 
Q 953 2441 691 2322 
L 691 4666 
z
" transform="scale(0.015625)"/>
      <path id="DejaVuSans-3a" d="M 750 794 
L 1409 794 
L 1409 0 
L 750 0 
L 750 794 
z
M 750 3309 
L 1409 3309 
L 1409 2516 
L 750 2516 
L 750 3309 
z
" transform="scale(0.015625)"/>
     </defs>
     <use xlink:href="#DejaVuSans-35"/>
     <use xlink:href="#DejaVuSans-31" x="63.623047"/>
     <use xlink:href="#DejaVuSans-20" x="127.246094"/>
     <use xlink:href="#DejaVuSans-74" x="159.033203"/>
     <use xlink:href="#DejaVuSans-61" x="198.242188"/>
     <use xlink:href="#DejaVuSans-72" x="259.521484"/>
     <use xlink:href="#DejaVuSans-67" x="298.884766"/>
     <use xlink:href="#DejaVuSans-65" x="362.361328"/>
     <use xlink:href="#DejaVuSans-74" x="423.884766"/>
     <use xlink:href="#DejaVuSans-73" x="463.09375"/>
     <use xlink:href="#DejaVuSans-3a" x="515.193359"/>
     <use xlink:href="#DejaVuSans-20" x="548.884766"/>
     <use xlink:href="#DejaVuSans-31" x="580.671875"/>
     <use xlink:href="#DejaVuSans-30" x="644.294922"/>
     <use xlink:href="#DejaVuSans-30" x="707.917969"/>
     <use xlink:href="#DejaVuSans-2e" x="771.541016"/>
     <use xlink:href="#DejaVuSans-2e" x="803.328125"/>
     <use xlink:href="#DejaVuSans-31" x="835.115234"/>
     <use xlink:href="#DejaVuSans-65" x="898.738281"/>
     <use xlink:href="#DejaVuSans-2d" x="960.261719"/>
     <use xlink:href="#DejaVuSans-30" x="996.345703"/>
     <use xlink:href="#DejaVuSans-38" x="1059.96875"/>
    </g>
    <!-- 15 instances -->
    <g transform="translate(60.632064 60.954904)scale(0.102 -0.102)">
     <use xlink:href="#DejaVuSans-31"/>
     <use xlink:href="#DejaVuSans-35" x="63.623047"/>
     <use xlink:href="#DejaVuSans-20" x="127.246094"/>
     <use xlink:href="#DejaVuSans-69" x="159.033203"/>
     <use xlink:href="#DejaVuSans-6e" x="186.816406"/>
     <use xlink:href="#DejaVuSans-73" x="250.195312"/>
     <use xlink:href="#DejaVuSans-74" x="302.294922"/>
     <use xlink:href="#DejaVuSans-61" x="341.503906"/>
     <use xlink:href="#DejaVuSans-6e" x="402.783203"/>
     <use xlink:href="#DejaVuSans-63" x="466.162109"/>
     <use xlink:href="#DejaVuSans-65" x="521.142578"/>
     <use xlink:href="#DejaVuSans-73" x="582.666016"/>
    </g>
   </g>
   <g id="text_19">
    <!-- v2.6 -->
    <g style="fill: #808080" transform="translate(198.292262 294.151352)scale(0.1 -0.1)">
     <use xlink:href="#DejaVuSans-76"/>
     <use xlink:href="#DejaVuSans-32" x="59.179688"/>
     <use xlink:href="#DejaVuSans-2e" x="122.802734"/>
     <use xlink:href="#DejaVuSans-36" x="154.589844"/>
    </g>
   </g>
   <g id="text_20">
    <!-- 8 Rosenbrock original -->
    <g transform="translate(101.14695 21.648)scale(0.2 -0.2)">
     <defs>
      <path id="DejaVuSans-52" d="M 2841 2188 
Q 3044 2119 3236 1894 
Q 3428 1669 3622 1275 
L 4263 0 
L 3584 0 
L 2988 1197 
Q 2756 1666 2539 1819 
Q 2322 1972 1947 1972 
L 1259 1972 
L 1259 0 
L 628 0 
L 628 4666 
L 2053 4666 
Q 2853 4666 3247 4331 
Q 3641 3997 3641 3322 
Q 3641 2881 3436 2590 
Q 3231 2300 2841 2188 
z
M 1259 4147 
L 1259 2491 
L 2053 2491 
Q 2509 2491 2742 2702 
Q 2975 2913 2975 3322 
Q 2975 3731 2742 3939 
Q 2509 4147 2053 4147 
L 1259 4147 
z
" transform="scale(0.015625)"/>
      <path id="DejaVuSans-6b" d="M 581 4863 
L 1159 4863 
L 1159 1991 
L 2875 3500 
L 3609 3500 
L 1753 1863 
L 3688 0 
L 2938 0 
L 1159 1709 
L 1159 0 
L 581 0 
L 581 4863 
z
" transform="scale(0.015625)"/>
     </defs>
     <use xlink:href="#DejaVuSans-38"/>
     <use xlink:href="#DejaVuSans-20" x="63.623047"/>
     <use xlink:href="#DejaVuSans-52" x="95.410156"/>
     <use xlink:href="#DejaVuSans-6f" x="160.392578"/>
     <use xlink:href="#DejaVuSans-73" x="221.574219"/>
     <use xlink:href="#DejaVuSans-65" x="273.673828"/>
     <use xlink:href="#DejaVuSans-6e" x="335.197266"/>
     <use xlink:href="#DejaVuSans-62" x="398.576172"/>
     <use xlink:href="#DejaVuSans-72" x="462.052734"/>
     <use xlink:href="#DejaVuSans-6f" x="500.916016"/>
     <use xlink:href="#DejaVuSans-63" x="562.097656"/>
     <use xlink:href="#DejaVuSans-6b" x="617.078125"/>
     <use xlink:href="#DejaVuSans-20" x="674.988281"/>
     <use xlink:href="#DejaVuSans-6f" x="706.775391"/>
     <use xlink:href="#DejaVuSans-72" x="767.957031"/>
     <use xlink:href="#DejaVuSans-69" x="809.070312"/>
     <use xlink:href="#DejaVuSans-67" x="836.853516"/>
     <use xlink:href="#DejaVuSans-69" x="900.330078"/>
     <use xlink:href="#DejaVuSans-6e" x="928.113281"/>
     <use xlink:href="#DejaVuSans-61" x="991.492188"/>
     <use xlink:href="#DejaVuSans-6c" x="1052.771484"/>
    </g>
   </g>
  </g>
 </g>
 <defs>
  <clipPath id="p678d4380cc">
   <rect x="57.6" y="27.648" width="303.2064" height="271.296"/>
  </clipPath>
 </defs>
</svg>
