<?xml version="1.0" encoding="utf-8" standalone="no"?>
<!DOCTYPE svg PUBLIC "-//W3C//DTD SVG 1.1//EN"
  "http://www.w3.org/Graphics/SVG/1.1/DTD/svg11.dtd">
<svg xmlns:xlink="http://www.w3.org/1999/xlink" width="460.8pt" height="345.6pt" viewBox="0 0 460.8 345.6" xmlns="http://www.w3.org/2000/svg" version="1.1">
 <metadata>
  <rdf:RDF xmlns:dc="http://purl.org/dc/elements/1.1/" xmlns:cc="http://creativecommons.org/ns#" xmlns:rdf="http://www.w3.org/1999/02/22-rdf-syntax-ns#">
   <cc:Work>
    <dc:type rdf:resource="http://purl.org/dc/dcmitype/StillImage"/>
    <dc:date>2022-04-08T17:32:54.038468</dc:date>
    <dc:format>image/svg+xml</dc:format>
    <dc:creator>
     <cc:Agent>
      <dc:title>Matplotlib v3.5.1, https://matplotlib.org/</dc:title>
     </cc:Agent>
    </dc:creator>
   </cc:Work>
  </rdf:RDF>
 </metadata>
 <defs>
  <style type="text/css">*{stroke-linejoin: round; stroke-linecap: butt}</style>
 </defs>
 <g id="figure_1">
  <g id="patch_1">
   <path d="M 0 345.6 
L 460.8 345.6 
L 460.8 0 
L 0 0 
z
" style="fill: #ffffff"/>
  </g>
  <g id="axes_1">
   <g id="patch_2">
    <path d="M 57.6 298.944 
L 360.8064 298.944 
L 360.8064 27.648 
L 57.6 27.648 
z
" style="fill: #ffffff"/>
   </g>
   <g id="line2d_1">
    <path d="M 44.560826 298.944 
L 44.560826 288.304941 
L 57.6 288.304941 
L 57.6 282.985412 
L 70.639174 282.985412 
L 70.639174 277.665882 
L 78.266603 277.665882 
L 78.266603 272.346353 
L 85.894031 272.346353 
L 85.894031 267.026824 
L 97.857967 267.026824 
L 97.857967 261.707294 
L 109.159456 261.707294 
L 109.159456 256.387765 
L 113.954374 256.387765 
L 113.954374 251.068235 
L 116.583514 251.068235 
L 116.583514 245.748706 
L 118.152051 245.748706 
L 118.152051 240.429176 
L 122.499621 240.429176 
L 122.499621 235.109647 
L 125.271028 235.109647 
L 125.271028 229.790118 
L 135.687504 229.790118 
L 135.687504 224.470588 
L 139.556456 224.470588 
L 139.556456 219.151059 
L 141.610664 219.151059 
L 141.610664 213.831529 
L 141.932237 213.831529 
L 141.932237 208.512 
L 145.237585 208.512 
L 145.237585 203.192471 
L 151.982822 203.192471 
L 151.982822 197.872941 
L 153.189104 197.872941 
L 153.189104 192.553412 
L 153.421349 192.553412 
L 153.421349 187.233882 
L 153.989717 187.233882 
L 153.989717 181.914353 
L 154.322673 181.914353 
L 154.322673 176.594824 
L 154.649839 176.594824 
L 154.649839 171.275294 
L 155.13016 171.275294 
L 155.13016 165.955765 
L 155.18278 165.955765 
L 155.18278 160.636235 
L 156.501649 160.636235 
L 156.501649 155.316706 
L 156.648044 155.316706 
L 156.648044 149.997176 
L 156.696589 149.997176 
L 156.696589 144.677647 
L 156.793307 144.677647 
L 156.793307 139.358118 
L 156.84148 139.358118 
L 156.84148 134.038588 
L 156.937458 134.038588 
L 156.937458 128.719059 
L 157.363398 128.719059 
L 157.363398 123.399529 
L 157.503261 123.399529 
L 157.503261 118.08 
L 157.642093 118.08 
L 157.642093 112.760471 
L 157.688143 112.760471 
L 157.688143 107.440941 
L 157.871225 107.440941 
L 157.871225 102.121412 
L 160.142495 102.121412 
L 160.142495 96.801882 
L 162.38507 96.801882 
L 162.38507 91.482353 
L 162.456597 91.482353 
L 162.456597 80.843294 
L 162.56338 80.843294 
L 162.56338 75.523765 
L 162.634233 75.523765 
L 162.634233 70.204235 
L 162.740015 70.204235 
L 162.740015 64.884706 
L 162.775144 64.884706 
L 162.775144 59.565176 
L 162.845206 59.565176 
L 162.845206 54.245647 
L 163.430425 54.245647 
L 163.430425 48.926118 
L 163.464289 48.926118 
L 163.464289 43.606588 
L 163.531835 43.606588 
L 163.531835 32.967529 
L 163.59914 32.967529 
L 163.59914 27.648 
L 360.8064 27.648 
" style="fill: none; stroke: #f5deb3; stroke-width: 4; stroke-linecap: square"/>
   </g>
   <g id="line2d_2">
    <defs>
     <path id="m5fbb998861" d="M -0 7.778175 
L 7.778175 0 
L 0 -7.778175 
L -7.778175 -0 
z
" style="stroke: #f5deb3; stroke-width: 1.5; stroke-linejoin: miter"/>
    </defs>
    <g>
     <use xlink:href="#m5fbb998861" x="135.687504" y="229.790118" style="fill: #f5deb3; stroke: #f5deb3; stroke-width: 1.5; stroke-linejoin: miter"/>
     <use xlink:href="#m5fbb998861" x="162.38507" y="91.482353" style="fill: #f5deb3; stroke: #f5deb3; stroke-width: 1.5; stroke-linejoin: miter"/>
     <use xlink:href="#m5fbb998861" x="163.59914" y="32.967529" style="fill: #f5deb3; stroke: #f5deb3; stroke-width: 1.5; stroke-linejoin: miter"/>
     <use xlink:href="#m5fbb998861" x="163.59914" y="27.648" style="fill: #f5deb3; stroke: #f5deb3; stroke-width: 1.5; stroke-linejoin: miter"/>
     <use xlink:href="#m5fbb998861" x="163.59914" y="27.648" style="fill: #f5deb3; stroke: #f5deb3; stroke-width: 1.5; stroke-linejoin: miter"/>
     <use xlink:href="#m5fbb998861" x="360.8064" y="27.648" style="fill: #f5deb3; stroke: #f5deb3; stroke-width: 1.5; stroke-linejoin: miter"/>
    </g>
   </g>
   <g id="line2d_3">
    <path style="fill: none; stroke: #f5deb3; stroke-width: 4; stroke-linecap: square"/>
    <g/>
   </g>
   <g id="line2d_4">
    <path d="M 360.8064 27.648 
L 380.514816 33.07392 
" style="fill: none; stroke: #f5deb3; stroke-width: 4; stroke-linecap: square"/>
    <g>
     <use xlink:href="#m5fbb998861" x="360.8064" y="27.648" style="fill: #f5deb3; stroke: #f5deb3; stroke-width: 1.5; stroke-linejoin: miter"/>
     <use xlink:href="#m5fbb998861" x="380.514816" y="33.07392" style="fill: #f5deb3; stroke: #f5deb3; stroke-width: 1.5; stroke-linejoin: miter"/>
    </g>
   </g>
   <g id="matplotlib.axis_1">
    <g id="xtick_1">
     <g id="line2d_5">
      <path d="M 57.6 298.944 
L 57.6 27.648 
" clip-path="url(#p757cde1a38)" style="fill: none; stroke: #b0b0b0; stroke-width: 0.8; stroke-linecap: square"/>
     </g>
     <g id="line2d_6">
      <defs>
       <path id="m23ea371a35" d="M 0 0 
L 0 3.5 
" style="stroke: #000000; stroke-width: 0.8"/>
      </defs>
      <g>
       <use xlink:href="#m23ea371a35" x="57.6" y="298.944" style="stroke: #000000; stroke-width: 0.8"/>
      </g>
     </g>
     <g id="text_1">
      <!-- 0 -->
      <g transform="translate(52.191875 318.861344)scale(0.17 -0.17)">
       <defs>
        <path id="DejaVuSans-30" d="M 2034 4250 
Q 1547 4250 1301 3770 
Q 1056 3291 1056 2328 
Q 1056 1369 1301 889 
Q 1547 409 2034 409 
Q 2525 409 2770 889 
Q 3016 1369 3016 2328 
Q 3016 3291 2770 3770 
Q 2525 4250 2034 4250 
z
M 2034 4750 
Q 2819 4750 3233 4129 
Q 3647 3509 3647 2328 
Q 3647 1150 3233 529 
Q 2819 -91 2034 -91 
Q 1250 -91 836 529 
Q 422 1150 422 2328 
Q 422 3509 836 4129 
Q 1250 4750 2034 4750 
z
" transform="scale(0.015625)"/>
       </defs>
       <use xlink:href="#DejaVuSans-30"/>
      </g>
     </g>
    </g>
    <g id="xtick_2">
     <g id="line2d_7">
      <path d="M 144.2304 298.944 
L 144.2304 27.648 
" clip-path="url(#p757cde1a38)" style="fill: none; stroke: #b0b0b0; stroke-width: 0.8; stroke-linecap: square"/>
     </g>
     <g id="line2d_8">
      <g>
       <use xlink:href="#m23ea371a35" x="144.2304" y="298.944" style="stroke: #000000; stroke-width: 0.8"/>
      </g>
     </g>
     <g id="text_2">
      <!-- 2 -->
      <g transform="translate(138.822275 318.861344)scale(0.17 -0.17)">
       <defs>
        <path id="DejaVuSans-32" d="M 1228 531 
L 3431 531 
L 3431 0 
L 469 0 
L 469 531 
Q 828 903 1448 1529 
Q 2069 2156 2228 2338 
Q 2531 2678 2651 2914 
Q 2772 3150 2772 3378 
Q 2772 3750 2511 3984 
Q 2250 4219 1831 4219 
Q 1534 4219 1204 4116 
Q 875 4013 500 3803 
L 500 4441 
Q 881 4594 1212 4672 
Q 1544 4750 1819 4750 
Q 2544 4750 2975 4387 
Q 3406 4025 3406 3419 
Q 3406 3131 3298 2873 
Q 3191 2616 2906 2266 
Q 2828 2175 2409 1742 
Q 1991 1309 1228 531 
z
" transform="scale(0.015625)"/>
       </defs>
       <use xlink:href="#DejaVuSans-32"/>
      </g>
     </g>
    </g>
    <g id="xtick_3">
     <g id="line2d_9">
      <path d="M 230.8608 298.944 
L 230.8608 27.648 
" clip-path="url(#p757cde1a38)" style="fill: none; stroke: #b0b0b0; stroke-width: 0.8; stroke-linecap: square"/>
     </g>
     <g id="line2d_10">
      <g>
       <use xlink:href="#m23ea371a35" x="230.8608" y="298.944" style="stroke: #000000; stroke-width: 0.8"/>
      </g>
     </g>
     <g id="text_3">
      <!-- 4 -->
      <g transform="translate(225.452675 318.861344)scale(0.17 -0.17)">
       <defs>
        <path id="DejaVuSans-34" d="M 2419 4116 
L 825 1625 
L 2419 1625 
L 2419 4116 
z
M 2253 4666 
L 3047 4666 
L 3047 1625 
L 3713 1625 
L 3713 1100 
L 3047 1100 
L 3047 0 
L 2419 0 
L 2419 1100 
L 313 1100 
L 313 1709 
L 2253 4666 
z
" transform="scale(0.015625)"/>
       </defs>
       <use xlink:href="#DejaVuSans-34"/>
      </g>
     </g>
    </g>
    <g id="xtick_4">
     <g id="line2d_11">
      <path d="M 317.4912 298.944 
L 317.4912 27.648 
" clip-path="url(#p757cde1a38)" style="fill: none; stroke: #b0b0b0; stroke-width: 0.8; stroke-linecap: square"/>
     </g>
     <g id="line2d_12">
      <g>
       <use xlink:href="#m23ea371a35" x="317.4912" y="298.944" style="stroke: #000000; stroke-width: 0.8"/>
      </g>
     </g>
     <g id="text_4">
      <!-- 6 -->
      <g transform="translate(312.083075 318.861344)scale(0.17 -0.17)">
       <defs>
        <path id="DejaVuSans-36" d="M 2113 2584 
Q 1688 2584 1439 2293 
Q 1191 2003 1191 1497 
Q 1191 994 1439 701 
Q 1688 409 2113 409 
Q 2538 409 2786 701 
Q 3034 994 3034 1497 
Q 3034 2003 2786 2293 
Q 2538 2584 2113 2584 
z
M 3366 4563 
L 3366 3988 
Q 3128 4100 2886 4159 
Q 2644 4219 2406 4219 
Q 1781 4219 1451 3797 
Q 1122 3375 1075 2522 
Q 1259 2794 1537 2939 
Q 1816 3084 2150 3084 
Q 2853 3084 3261 2657 
Q 3669 2231 3669 1497 
Q 3669 778 3244 343 
Q 2819 -91 2113 -91 
Q 1303 -91 875 529 
Q 447 1150 447 2328 
Q 447 3434 972 4092 
Q 1497 4750 2381 4750 
Q 2619 4750 2861 4703 
Q 3103 4656 3366 4563 
z
" transform="scale(0.015625)"/>
       </defs>
       <use xlink:href="#DejaVuSans-36"/>
      </g>
     </g>
    </g>
    <g id="xtick_5">
     <g id="line2d_13">
      <path d="M 100.9152 298.944 
L 100.9152 27.648 
" clip-path="url(#p757cde1a38)" style="fill: none; stroke: #b0b0b0; stroke-width: 0.8; stroke-linecap: square"/>
     </g>
     <g id="line2d_14">
      <defs>
       <path id="mff0b6358fb" d="M 0 0 
L 0 2 
" style="stroke: #000000; stroke-width: 0.6"/>
      </defs>
      <g>
       <use xlink:href="#mff0b6358fb" x="100.9152" y="298.944" style="stroke: #000000; stroke-width: 0.6"/>
      </g>
     </g>
    </g>
    <g id="xtick_6">
     <g id="line2d_15">
      <path d="M 187.5456 298.944 
L 187.5456 27.648 
" clip-path="url(#p757cde1a38)" style="fill: none; stroke: #b0b0b0; stroke-width: 0.8; stroke-linecap: square"/>
     </g>
     <g id="line2d_16">
      <g>
       <use xlink:href="#mff0b6358fb" x="187.5456" y="298.944" style="stroke: #000000; stroke-width: 0.6"/>
      </g>
     </g>
    </g>
    <g id="xtick_7">
     <g id="line2d_17">
      <path d="M 274.176 298.944 
L 274.176 27.648 
" clip-path="url(#p757cde1a38)" style="fill: none; stroke: #b0b0b0; stroke-width: 0.8; stroke-linecap: square"/>
     </g>
     <g id="line2d_18">
      <g>
       <use xlink:href="#mff0b6358fb" x="274.176" y="298.944" style="stroke: #000000; stroke-width: 0.6"/>
      </g>
     </g>
    </g>
    <g id="xtick_8">
     <g id="line2d_19">
      <path d="M 360.8064 298.944 
L 360.8064 27.648 
" clip-path="url(#p757cde1a38)" style="fill: none; stroke: #b0b0b0; stroke-width: 0.8; stroke-linecap: square"/>
     </g>
     <g id="line2d_20">
      <g>
       <use xlink:href="#mff0b6358fb" x="360.8064" y="298.944" style="stroke: #000000; stroke-width: 0.6"/>
      </g>
     </g>
    </g>
    <g id="text_5">
     <!-- log10(# f-evals / dimension) -->
     <g transform="translate(88.823278 339.314156)scale(0.17 -0.17)">
      <defs>
       <path id="DejaVuSans-6c" d="M 603 4863 
L 1178 4863 
L 1178 0 
L 603 0 
L 603 4863 
z
" transform="scale(0.015625)"/>
       <path id="DejaVuSans-6f" d="M 1959 3097 
Q 1497 3097 1228 2736 
Q 959 2375 959 1747 
Q 959 1119 1226 758 
Q 1494 397 1959 397 
Q 2419 397 2687 759 
Q 2956 1122 2956 1747 
Q 2956 2369 2687 2733 
Q 2419 3097 1959 3097 
z
M 1959 3584 
Q 2709 3584 3137 3096 
Q 3566 2609 3566 1747 
Q 3566 888 3137 398 
Q 2709 -91 1959 -91 
Q 1206 -91 779 398 
Q 353 888 353 1747 
Q 353 2609 779 3096 
Q 1206 3584 1959 3584 
z
" transform="scale(0.015625)"/>
       <path id="DejaVuSans-67" d="M 2906 1791 
Q 2906 2416 2648 2759 
Q 2391 3103 1925 3103 
Q 1463 3103 1205 2759 
Q 947 2416 947 1791 
Q 947 1169 1205 825 
Q 1463 481 1925 481 
Q 2391 481 2648 825 
Q 2906 1169 2906 1791 
z
M 3481 434 
Q 3481 -459 3084 -895 
Q 2688 -1331 1869 -1331 
Q 1566 -1331 1297 -1286 
Q 1028 -1241 775 -1147 
L 775 -588 
Q 1028 -725 1275 -790 
Q 1522 -856 1778 -856 
Q 2344 -856 2625 -561 
Q 2906 -266 2906 331 
L 2906 616 
Q 2728 306 2450 153 
Q 2172 0 1784 0 
Q 1141 0 747 490 
Q 353 981 353 1791 
Q 353 2603 747 3093 
Q 1141 3584 1784 3584 
Q 2172 3584 2450 3431 
Q 2728 3278 2906 2969 
L 2906 3500 
L 3481 3500 
L 3481 434 
z
" transform="scale(0.015625)"/>
       <path id="DejaVuSans-31" d="M 794 531 
L 1825 531 
L 1825 4091 
L 703 3866 
L 703 4441 
L 1819 4666 
L 2450 4666 
L 2450 531 
L 3481 531 
L 3481 0 
L 794 0 
L 794 531 
z
" transform="scale(0.015625)"/>
       <path id="DejaVuSans-28" d="M 1984 4856 
Q 1566 4138 1362 3434 
Q 1159 2731 1159 2009 
Q 1159 1288 1364 580 
Q 1569 -128 1984 -844 
L 1484 -844 
Q 1016 -109 783 600 
Q 550 1309 550 2009 
Q 550 2706 781 3412 
Q 1013 4119 1484 4856 
L 1984 4856 
z
" transform="scale(0.015625)"/>
       <path id="DejaVuSans-23" d="M 3272 2816 
L 2363 2816 
L 2100 1772 
L 3016 1772 
L 3272 2816 
z
M 2803 4594 
L 2478 3297 
L 3391 3297 
L 3719 4594 
L 4219 4594 
L 3897 3297 
L 4872 3297 
L 4872 2816 
L 3775 2816 
L 3519 1772 
L 4513 1772 
L 4513 1294 
L 3397 1294 
L 3072 0 
L 2572 0 
L 2894 1294 
L 1978 1294 
L 1656 0 
L 1153 0 
L 1478 1294 
L 494 1294 
L 494 1772 
L 1594 1772 
L 1856 2816 
L 850 2816 
L 850 3297 
L 1978 3297 
L 2297 4594 
L 2803 4594 
z
" transform="scale(0.015625)"/>
       <path id="DejaVuSans-20" transform="scale(0.015625)"/>
       <path id="DejaVuSans-66" d="M 2375 4863 
L 2375 4384 
L 1825 4384 
Q 1516 4384 1395 4259 
Q 1275 4134 1275 3809 
L 1275 3500 
L 2222 3500 
L 2222 3053 
L 1275 3053 
L 1275 0 
L 697 0 
L 697 3053 
L 147 3053 
L 147 3500 
L 697 3500 
L 697 3744 
Q 697 4328 969 4595 
Q 1241 4863 1831 4863 
L 2375 4863 
z
" transform="scale(0.015625)"/>
       <path id="DejaVuSans-2d" d="M 313 2009 
L 1997 2009 
L 1997 1497 
L 313 1497 
L 313 2009 
z
" transform="scale(0.015625)"/>
       <path id="DejaVuSans-65" d="M 3597 1894 
L 3597 1613 
L 953 1613 
Q 991 1019 1311 708 
Q 1631 397 2203 397 
Q 2534 397 2845 478 
Q 3156 559 3463 722 
L 3463 178 
Q 3153 47 2828 -22 
Q 2503 -91 2169 -91 
Q 1331 -91 842 396 
Q 353 884 353 1716 
Q 353 2575 817 3079 
Q 1281 3584 2069 3584 
Q 2775 3584 3186 3129 
Q 3597 2675 3597 1894 
z
M 3022 2063 
Q 3016 2534 2758 2815 
Q 2500 3097 2075 3097 
Q 1594 3097 1305 2825 
Q 1016 2553 972 2059 
L 3022 2063 
z
" transform="scale(0.015625)"/>
       <path id="DejaVuSans-76" d="M 191 3500 
L 800 3500 
L 1894 563 
L 2988 3500 
L 3597 3500 
L 2284 0 
L 1503 0 
L 191 3500 
z
" transform="scale(0.015625)"/>
       <path id="DejaVuSans-61" d="M 2194 1759 
Q 1497 1759 1228 1600 
Q 959 1441 959 1056 
Q 959 750 1161 570 
Q 1363 391 1709 391 
Q 2188 391 2477 730 
Q 2766 1069 2766 1631 
L 2766 1759 
L 2194 1759 
z
M 3341 1997 
L 3341 0 
L 2766 0 
L 2766 531 
Q 2569 213 2275 61 
Q 1981 -91 1556 -91 
Q 1019 -91 701 211 
Q 384 513 384 1019 
Q 384 1609 779 1909 
Q 1175 2209 1959 2209 
L 2766 2209 
L 2766 2266 
Q 2766 2663 2505 2880 
Q 2244 3097 1772 3097 
Q 1472 3097 1187 3025 
Q 903 2953 641 2809 
L 641 3341 
Q 956 3463 1253 3523 
Q 1550 3584 1831 3584 
Q 2591 3584 2966 3190 
Q 3341 2797 3341 1997 
z
" transform="scale(0.015625)"/>
       <path id="DejaVuSans-73" d="M 2834 3397 
L 2834 2853 
Q 2591 2978 2328 3040 
Q 2066 3103 1784 3103 
Q 1356 3103 1142 2972 
Q 928 2841 928 2578 
Q 928 2378 1081 2264 
Q 1234 2150 1697 2047 
L 1894 2003 
Q 2506 1872 2764 1633 
Q 3022 1394 3022 966 
Q 3022 478 2636 193 
Q 2250 -91 1575 -91 
Q 1294 -91 989 -36 
Q 684 19 347 128 
L 347 722 
Q 666 556 975 473 
Q 1284 391 1588 391 
Q 1994 391 2212 530 
Q 2431 669 2431 922 
Q 2431 1156 2273 1281 
Q 2116 1406 1581 1522 
L 1381 1569 
Q 847 1681 609 1914 
Q 372 2147 372 2553 
Q 372 3047 722 3315 
Q 1072 3584 1716 3584 
Q 2034 3584 2315 3537 
Q 2597 3491 2834 3397 
z
" transform="scale(0.015625)"/>
       <path id="DejaVuSans-2f" d="M 1625 4666 
L 2156 4666 
L 531 -594 
L 0 -594 
L 1625 4666 
z
" transform="scale(0.015625)"/>
       <path id="DejaVuSans-64" d="M 2906 2969 
L 2906 4863 
L 3481 4863 
L 3481 0 
L 2906 0 
L 2906 525 
Q 2725 213 2448 61 
Q 2172 -91 1784 -91 
Q 1150 -91 751 415 
Q 353 922 353 1747 
Q 353 2572 751 3078 
Q 1150 3584 1784 3584 
Q 2172 3584 2448 3432 
Q 2725 3281 2906 2969 
z
M 947 1747 
Q 947 1113 1208 752 
Q 1469 391 1925 391 
Q 2381 391 2643 752 
Q 2906 1113 2906 1747 
Q 2906 2381 2643 2742 
Q 2381 3103 1925 3103 
Q 1469 3103 1208 2742 
Q 947 2381 947 1747 
z
" transform="scale(0.015625)"/>
       <path id="DejaVuSans-69" d="M 603 3500 
L 1178 3500 
L 1178 0 
L 603 0 
L 603 3500 
z
M 603 4863 
L 1178 4863 
L 1178 4134 
L 603 4134 
L 603 4863 
z
" transform="scale(0.015625)"/>
       <path id="DejaVuSans-6d" d="M 3328 2828 
Q 3544 3216 3844 3400 
Q 4144 3584 4550 3584 
Q 5097 3584 5394 3201 
Q 5691 2819 5691 2113 
L 5691 0 
L 5113 0 
L 5113 2094 
Q 5113 2597 4934 2840 
Q 4756 3084 4391 3084 
Q 3944 3084 3684 2787 
Q 3425 2491 3425 1978 
L 3425 0 
L 2847 0 
L 2847 2094 
Q 2847 2600 2669 2842 
Q 2491 3084 2119 3084 
Q 1678 3084 1418 2786 
Q 1159 2488 1159 1978 
L 1159 0 
L 581 0 
L 581 3500 
L 1159 3500 
L 1159 2956 
Q 1356 3278 1631 3431 
Q 1906 3584 2284 3584 
Q 2666 3584 2933 3390 
Q 3200 3197 3328 2828 
z
" transform="scale(0.015625)"/>
       <path id="DejaVuSans-6e" d="M 3513 2113 
L 3513 0 
L 2938 0 
L 2938 2094 
Q 2938 2591 2744 2837 
Q 2550 3084 2163 3084 
Q 1697 3084 1428 2787 
Q 1159 2491 1159 1978 
L 1159 0 
L 581 0 
L 581 3500 
L 1159 3500 
L 1159 2956 
Q 1366 3272 1645 3428 
Q 1925 3584 2291 3584 
Q 2894 3584 3203 3211 
Q 3513 2838 3513 2113 
z
" transform="scale(0.015625)"/>
       <path id="DejaVuSans-29" d="M 513 4856 
L 1013 4856 
Q 1481 4119 1714 3412 
Q 1947 2706 1947 2009 
Q 1947 1309 1714 600 
Q 1481 -109 1013 -844 
L 513 -844 
Q 928 -128 1133 580 
Q 1338 1288 1338 2009 
Q 1338 2731 1133 3434 
Q 928 4138 513 4856 
z
" transform="scale(0.015625)"/>
      </defs>
      <use xlink:href="#DejaVuSans-6c"/>
      <use xlink:href="#DejaVuSans-6f" x="27.783203"/>
      <use xlink:href="#DejaVuSans-67" x="88.964844"/>
      <use xlink:href="#DejaVuSans-31" x="152.441406"/>
      <use xlink:href="#DejaVuSans-30" x="216.064453"/>
      <use xlink:href="#DejaVuSans-28" x="279.6875"/>
      <use xlink:href="#DejaVuSans-23" x="318.701172"/>
      <use xlink:href="#DejaVuSans-20" x="402.490234"/>
      <use xlink:href="#DejaVuSans-66" x="434.277344"/>
      <use xlink:href="#DejaVuSans-2d" x="463.982422"/>
      <use xlink:href="#DejaVuSans-65" x="500.066406"/>
      <use xlink:href="#DejaVuSans-76" x="561.589844"/>
      <use xlink:href="#DejaVuSans-61" x="620.769531"/>
      <use xlink:href="#DejaVuSans-6c" x="682.048828"/>
      <use xlink:href="#DejaVuSans-73" x="709.832031"/>
      <use xlink:href="#DejaVuSans-20" x="761.931641"/>
      <use xlink:href="#DejaVuSans-2f" x="793.71875"/>
      <use xlink:href="#DejaVuSans-20" x="827.410156"/>
      <use xlink:href="#DejaVuSans-64" x="859.197266"/>
      <use xlink:href="#DejaVuSans-69" x="922.673828"/>
      <use xlink:href="#DejaVuSans-6d" x="950.457031"/>
      <use xlink:href="#DejaVuSans-65" x="1047.869141"/>
      <use xlink:href="#DejaVuSans-6e" x="1109.392578"/>
      <use xlink:href="#DejaVuSans-73" x="1172.771484"/>
      <use xlink:href="#DejaVuSans-69" x="1224.871094"/>
      <use xlink:href="#DejaVuSans-6f" x="1252.654297"/>
      <use xlink:href="#DejaVuSans-6e" x="1313.835938"/>
      <use xlink:href="#DejaVuSans-29" x="1377.214844"/>
     </g>
    </g>
   </g>
   <g id="matplotlib.axis_2">
    <g id="ytick_1">
     <g id="line2d_21">
      <path d="M 57.6 298.944 
L 360.8064 298.944 
" clip-path="url(#p757cde1a38)" style="fill: none; stroke: #b0b0b0; stroke-width: 0.8; stroke-linecap: square"/>
     </g>
     <g id="line2d_22">
      <defs>
       <path id="m451843ff52" d="M 0 0 
L -3.5 0 
" style="stroke: #000000; stroke-width: 0.8"/>
      </defs>
      <g>
       <use xlink:href="#m451843ff52" x="57.6" y="298.944" style="stroke: #000000; stroke-width: 0.8"/>
      </g>
     </g>
     <g id="text_6">
      <!-- 0.0 -->
      <g transform="translate(25.155 305.02275)scale(0.16 -0.16)">
       <defs>
        <path id="DejaVuSans-2e" d="M 684 794 
L 1344 794 
L 1344 0 
L 684 0 
L 684 794 
z
" transform="scale(0.015625)"/>
       </defs>
       <use xlink:href="#DejaVuSans-30"/>
       <use xlink:href="#DejaVuSans-2e" x="63.623047"/>
       <use xlink:href="#DejaVuSans-30" x="95.410156"/>
      </g>
     </g>
    </g>
    <g id="ytick_2">
     <g id="line2d_23">
      <path d="M 57.6 244.6848 
L 360.8064 244.6848 
" clip-path="url(#p757cde1a38)" style="fill: none; stroke: #b0b0b0; stroke-width: 0.8; stroke-linecap: square"/>
     </g>
     <g id="line2d_24">
      <g>
       <use xlink:href="#m451843ff52" x="57.6" y="244.6848" style="stroke: #000000; stroke-width: 0.8"/>
      </g>
     </g>
     <g id="text_7">
      <!-- 0.2 -->
      <g transform="translate(25.155 250.76355)scale(0.16 -0.16)">
       <use xlink:href="#DejaVuSans-30"/>
       <use xlink:href="#DejaVuSans-2e" x="63.623047"/>
       <use xlink:href="#DejaVuSans-32" x="95.410156"/>
      </g>
     </g>
    </g>
    <g id="ytick_3">
     <g id="line2d_25">
      <path d="M 57.6 190.4256 
L 360.8064 190.4256 
" clip-path="url(#p757cde1a38)" style="fill: none; stroke: #b0b0b0; stroke-width: 0.8; stroke-linecap: square"/>
     </g>
     <g id="line2d_26">
      <g>
       <use xlink:href="#m451843ff52" x="57.6" y="190.4256" style="stroke: #000000; stroke-width: 0.8"/>
      </g>
     </g>
     <g id="text_8">
      <!-- 0.4 -->
      <g transform="translate(25.155 196.50435)scale(0.16 -0.16)">
       <use xlink:href="#DejaVuSans-30"/>
       <use xlink:href="#DejaVuSans-2e" x="63.623047"/>
       <use xlink:href="#DejaVuSans-34" x="95.410156"/>
      </g>
     </g>
    </g>
    <g id="ytick_4">
     <g id="line2d_27">
      <path d="M 57.6 136.1664 
L 360.8064 136.1664 
" clip-path="url(#p757cde1a38)" style="fill: none; stroke: #b0b0b0; stroke-width: 0.8; stroke-linecap: square"/>
     </g>
     <g id="line2d_28">
      <g>
       <use xlink:href="#m451843ff52" x="57.6" y="136.1664" style="stroke: #000000; stroke-width: 0.8"/>
      </g>
     </g>
     <g id="text_9">
      <!-- 0.6 -->
      <g transform="translate(25.155 142.24515)scale(0.16 -0.16)">
       <use xlink:href="#DejaVuSans-30"/>
       <use xlink:href="#DejaVuSans-2e" x="63.623047"/>
       <use xlink:href="#DejaVuSans-36" x="95.410156"/>
      </g>
     </g>
    </g>
    <g id="ytick_5">
     <g id="line2d_29">
      <path d="M 57.6 81.9072 
L 360.8064 81.9072 
" clip-path="url(#p757cde1a38)" style="fill: none; stroke: #b0b0b0; stroke-width: 0.8; stroke-linecap: square"/>
     </g>
     <g id="line2d_30">
      <g>
       <use xlink:href="#m451843ff52" x="57.6" y="81.9072" style="stroke: #000000; stroke-width: 0.8"/>
      </g>
     </g>
     <g id="text_10">
      <!-- 0.8 -->
      <g transform="translate(25.155 87.98595)scale(0.16 -0.16)">
       <defs>
        <path id="DejaVuSans-38" d="M 2034 2216 
Q 1584 2216 1326 1975 
Q 1069 1734 1069 1313 
Q 1069 891 1326 650 
Q 1584 409 2034 409 
Q 2484 409 2743 651 
Q 3003 894 3003 1313 
Q 3003 1734 2745 1975 
Q 2488 2216 2034 2216 
z
M 1403 2484 
Q 997 2584 770 2862 
Q 544 3141 544 3541 
Q 544 4100 942 4425 
Q 1341 4750 2034 4750 
Q 2731 4750 3128 4425 
Q 3525 4100 3525 3541 
Q 3525 3141 3298 2862 
Q 3072 2584 2669 2484 
Q 3125 2378 3379 2068 
Q 3634 1759 3634 1313 
Q 3634 634 3220 271 
Q 2806 -91 2034 -91 
Q 1263 -91 848 271 
Q 434 634 434 1313 
Q 434 1759 690 2068 
Q 947 2378 1403 2484 
z
M 1172 3481 
Q 1172 3119 1398 2916 
Q 1625 2713 2034 2713 
Q 2441 2713 2670 2916 
Q 2900 3119 2900 3481 
Q 2900 3844 2670 4047 
Q 2441 4250 2034 4250 
Q 1625 4250 1398 4047 
Q 1172 3844 1172 3481 
z
" transform="scale(0.015625)"/>
       </defs>
       <use xlink:href="#DejaVuSans-30"/>
       <use xlink:href="#DejaVuSans-2e" x="63.623047"/>
       <use xlink:href="#DejaVuSans-38" x="95.410156"/>
      </g>
     </g>
    </g>
    <g id="ytick_6">
     <g id="line2d_31">
      <path d="M 57.6 27.648 
L 360.8064 27.648 
" clip-path="url(#p757cde1a38)" style="fill: none; stroke: #b0b0b0; stroke-width: 0.8; stroke-linecap: square"/>
     </g>
     <g id="line2d_32">
      <g>
       <use xlink:href="#m451843ff52" x="57.6" y="27.648" style="stroke: #000000; stroke-width: 0.8"/>
      </g>
     </g>
     <g id="text_11">
      <!-- 1.0 -->
      <g transform="translate(25.155 33.72675)scale(0.16 -0.16)">
       <use xlink:href="#DejaVuSans-31"/>
       <use xlink:href="#DejaVuSans-2e" x="63.623047"/>
       <use xlink:href="#DejaVuSans-30" x="95.410156"/>
      </g>
     </g>
    </g>
    <g id="text_12">
     <!-- Fraction of function,target pairs -->
     <g transform="translate(17.619531 297.681)rotate(-90)scale(0.17 -0.17)">
      <defs>
       <path id="DejaVuSans-46" d="M 628 4666 
L 3309 4666 
L 3309 4134 
L 1259 4134 
L 1259 2759 
L 3109 2759 
L 3109 2228 
L 1259 2228 
L 1259 0 
L 628 0 
L 628 4666 
z
" transform="scale(0.015625)"/>
       <path id="DejaVuSans-72" d="M 2631 2963 
Q 2534 3019 2420 3045 
Q 2306 3072 2169 3072 
Q 1681 3072 1420 2755 
Q 1159 2438 1159 1844 
L 1159 0 
L 581 0 
L 581 3500 
L 1159 3500 
L 1159 2956 
Q 1341 3275 1631 3429 
Q 1922 3584 2338 3584 
Q 2397 3584 2469 3576 
Q 2541 3569 2628 3553 
L 2631 2963 
z
" transform="scale(0.015625)"/>
       <path id="DejaVuSans-63" d="M 3122 3366 
L 3122 2828 
Q 2878 2963 2633 3030 
Q 2388 3097 2138 3097 
Q 1578 3097 1268 2742 
Q 959 2388 959 1747 
Q 959 1106 1268 751 
Q 1578 397 2138 397 
Q 2388 397 2633 464 
Q 2878 531 3122 666 
L 3122 134 
Q 2881 22 2623 -34 
Q 2366 -91 2075 -91 
Q 1284 -91 818 406 
Q 353 903 353 1747 
Q 353 2603 823 3093 
Q 1294 3584 2113 3584 
Q 2378 3584 2631 3529 
Q 2884 3475 3122 3366 
z
" transform="scale(0.015625)"/>
       <path id="DejaVuSans-74" d="M 1172 4494 
L 1172 3500 
L 2356 3500 
L 2356 3053 
L 1172 3053 
L 1172 1153 
Q 1172 725 1289 603 
Q 1406 481 1766 481 
L 2356 481 
L 2356 0 
L 1766 0 
Q 1100 0 847 248 
Q 594 497 594 1153 
L 594 3053 
L 172 3053 
L 172 3500 
L 594 3500 
L 594 4494 
L 1172 4494 
z
" transform="scale(0.015625)"/>
       <path id="DejaVuSans-75" d="M 544 1381 
L 544 3500 
L 1119 3500 
L 1119 1403 
Q 1119 906 1312 657 
Q 1506 409 1894 409 
Q 2359 409 2629 706 
Q 2900 1003 2900 1516 
L 2900 3500 
L 3475 3500 
L 3475 0 
L 2900 0 
L 2900 538 
Q 2691 219 2414 64 
Q 2138 -91 1772 -91 
Q 1169 -91 856 284 
Q 544 659 544 1381 
z
M 1991 3584 
L 1991 3584 
z
" transform="scale(0.015625)"/>
       <path id="DejaVuSans-2c" d="M 750 794 
L 1409 794 
L 1409 256 
L 897 -744 
L 494 -744 
L 750 256 
L 750 794 
z
" transform="scale(0.015625)"/>
       <path id="DejaVuSans-70" d="M 1159 525 
L 1159 -1331 
L 581 -1331 
L 581 3500 
L 1159 3500 
L 1159 2969 
Q 1341 3281 1617 3432 
Q 1894 3584 2278 3584 
Q 2916 3584 3314 3078 
Q 3713 2572 3713 1747 
Q 3713 922 3314 415 
Q 2916 -91 2278 -91 
Q 1894 -91 1617 61 
Q 1341 213 1159 525 
z
M 3116 1747 
Q 3116 2381 2855 2742 
Q 2594 3103 2138 3103 
Q 1681 3103 1420 2742 
Q 1159 2381 1159 1747 
Q 1159 1113 1420 752 
Q 1681 391 2138 391 
Q 2594 391 2855 752 
Q 3116 1113 3116 1747 
z
" transform="scale(0.015625)"/>
      </defs>
      <use xlink:href="#DejaVuSans-46"/>
      <use xlink:href="#DejaVuSans-72" x="50.269531"/>
      <use xlink:href="#DejaVuSans-61" x="91.382812"/>
      <use xlink:href="#DejaVuSans-63" x="152.662109"/>
      <use xlink:href="#DejaVuSans-74" x="207.642578"/>
      <use xlink:href="#DejaVuSans-69" x="246.851562"/>
      <use xlink:href="#DejaVuSans-6f" x="274.634766"/>
      <use xlink:href="#DejaVuSans-6e" x="335.816406"/>
      <use xlink:href="#DejaVuSans-20" x="399.195312"/>
      <use xlink:href="#DejaVuSans-6f" x="430.982422"/>
      <use xlink:href="#DejaVuSans-66" x="492.164062"/>
      <use xlink:href="#DejaVuSans-20" x="527.369141"/>
      <use xlink:href="#DejaVuSans-66" x="559.15625"/>
      <use xlink:href="#DejaVuSans-75" x="594.361328"/>
      <use xlink:href="#DejaVuSans-6e" x="657.740234"/>
      <use xlink:href="#DejaVuSans-63" x="721.119141"/>
      <use xlink:href="#DejaVuSans-74" x="776.099609"/>
      <use xlink:href="#DejaVuSans-69" x="815.308594"/>
      <use xlink:href="#DejaVuSans-6f" x="843.091797"/>
      <use xlink:href="#DejaVuSans-6e" x="904.273438"/>
      <use xlink:href="#DejaVuSans-2c" x="967.652344"/>
      <use xlink:href="#DejaVuSans-74" x="999.439453"/>
      <use xlink:href="#DejaVuSans-61" x="1038.648438"/>
      <use xlink:href="#DejaVuSans-72" x="1099.927734"/>
      <use xlink:href="#DejaVuSans-67" x="1139.291016"/>
      <use xlink:href="#DejaVuSans-65" x="1202.767578"/>
      <use xlink:href="#DejaVuSans-74" x="1264.291016"/>
      <use xlink:href="#DejaVuSans-20" x="1303.5"/>
      <use xlink:href="#DejaVuSans-70" x="1335.287109"/>
      <use xlink:href="#DejaVuSans-61" x="1398.763672"/>
      <use xlink:href="#DejaVuSans-69" x="1460.042969"/>
      <use xlink:href="#DejaVuSans-72" x="1487.826172"/>
      <use xlink:href="#DejaVuSans-73" x="1528.939453"/>
     </g>
    </g>
   </g>
   <g id="line2d_33">
    <defs>
     <path id="m1735aea64b" d="M 0 1.5 
C 0.397805 1.5 0.77937 1.341951 1.06066 1.06066 
C 1.341951 0.77937 1.5 0.397805 1.5 0 
C 1.5 -0.397805 1.341951 -0.77937 1.06066 -1.06066 
C 0.77937 -1.341951 0.397805 -1.5 0 -1.5 
C -0.397805 -1.5 -0.77937 -1.341951 -1.06066 -1.06066 
C -1.341951 -0.77937 -1.5 -0.397805 -1.5 0 
C -1.5 0.397805 -1.341951 0.77937 -1.06066 1.06066 
C -0.77937 1.341951 -0.397805 1.5 0 1.5 
z
" style="stroke: #f5deb3"/>
    </defs>
    <g>
     <use xlink:href="#m1735aea64b" x="163.59914" y="27.648" style="fill: #f5deb3; stroke: #f5deb3"/>
     <use xlink:href="#m1735aea64b" x="163.59914" y="27.648" style="fill: #f5deb3; stroke: #f5deb3"/>
    </g>
   </g>
   <g id="line2d_34">
    <defs>
     <path id="m9b8fd6c8be" d="M 0 1.5 
C 0.397805 1.5 0.77937 1.341951 1.06066 1.06066 
C 1.341951 0.77937 1.5 0.397805 1.5 0 
C 1.5 -0.397805 1.341951 -0.77937 1.06066 -1.06066 
C 0.77937 -1.341951 0.397805 -1.5 0 -1.5 
C -0.397805 -1.5 -0.77937 -1.341951 -1.06066 -1.06066 
C -1.341951 -0.77937 -1.5 -0.397805 -1.5 0 
C -1.5 0.397805 -1.341951 0.77937 -1.06066 1.06066 
C -0.77937 1.341951 -0.397805 1.5 0 1.5 
z
" style="stroke: #000080"/>
    </defs>
    <g>
     <use xlink:href="#m9b8fd6c8be" x="196.794164" y="27.648" style="fill: #000080; stroke: #000080"/>
     <use xlink:href="#m9b8fd6c8be" x="196.794164" y="27.648" style="fill: #000080; stroke: #000080"/>
    </g>
   </g>
   <g id="line2d_35">
    <path d="M 44.560826 298.944 
L 44.560826 291.496659 
L 57.6 291.496659 
L 57.6 283.694682 
L 65.227428 283.694682 
L 65.227428 281.566871 
L 70.639174 281.566871 
L 70.639174 276.956612 
L 74.836851 276.956612 
L 74.836851 276.601976 
L 78.266603 276.601976 
L 78.266603 275.183435 
L 81.166416 275.183435 
L 81.166416 274.8288 
L 83.678349 274.8288 
L 83.678349 273.410259 
L 85.894031 273.410259 
L 85.894031 271.991718 
L 87.876026 271.991718 
L 87.876026 270.573176 
L 89.668958 270.573176 
L 89.668958 269.863906 
L 92.811505 269.863906 
L 92.811505 268.445365 
L 94.205591 268.445365 
L 94.205591 267.736094 
L 95.503454 267.736094 
L 95.503454 267.381459 
L 96.717523 267.381459 
L 96.717523 267.026824 
L 98.933205 267.026824 
L 98.933205 266.317553 
L 103.544339 266.317553 
L 103.544339 264.189741 
L 105.850679 264.189741 
L 105.850679 263.125835 
L 106.560633 263.125835 
L 106.560633 262.416565 
L 109.756698 262.416565 
L 109.756698 261.707294 
L 111.442442 261.707294 
L 111.442442 259.224847 
L 111.97238 259.224847 
L 111.97238 258.870212 
L 112.487797 258.870212 
L 112.487797 257.451671 
L 113.478107 257.451671 
L 113.478107 255.678494 
L 118.152051 255.678494 
L 118.152051 255.323859 
L 118.524569 255.323859 
L 118.524569 254.969224 
L 118.889854 254.969224 
L 118.889854 254.614588 
L 119.599808 254.614588 
L 119.599808 253.550682 
L 120.28394 253.550682 
L 120.28394 253.196047 
L 120.944062 253.196047 
L 120.944062 252.841412 
L 121.892744 252.841412 
L 121.892744 252.486776 
L 123.08753 252.486776 
L 123.08753 251.777506 
L 123.374735 251.777506 
L 123.374735 251.068235 
L 123.936316 251.068235 
L 123.936316 250.7136 
L 124.748451 250.7136 
L 124.748451 246.457976 
L 125.271028 246.457976 
L 125.271028 246.103341 
L 126.993549 246.103341 
L 126.993549 245.039435 
L 128.999044 245.039435 
L 128.999044 244.6848 
L 129.209231 244.6848 
L 129.209231 244.330165 
L 131.002163 244.330165 
L 131.002163 243.975529 
L 131.563744 243.975529 
L 131.563744 243.266259 
L 131.747272 243.266259 
L 131.747272 242.911624 
L 132.638982 242.911624 
L 132.638982 240.783812 
L 132.984158 240.783812 
L 132.984158 240.074541 
L 133.323114 240.074541 
L 133.323114 238.301365 
L 133.656071 238.301365 
L 133.656071 236.528188 
L 134.620977 236.528188 
L 134.620977 235.464282 
L 134.77709 235.464282 
L 134.77709 235.109647 
L 135.085483 235.109647 
L 135.085483 232.981835 
L 135.538796 232.981835 
L 135.538796 232.6272 
L 135.687504 232.6272 
L 135.687504 231.208659 
L 136.126705 231.208659 
L 136.126705 230.854024 
L 136.555884 230.854024 
L 136.555884 230.144753 
L 136.696795 230.144753 
L 136.696795 229.435482 
L 136.836659 229.435482 
L 136.836659 228.371576 
L 137.654681 228.371576 
L 137.654681 227.307671 
L 138.438609 227.307671 
L 138.438609 226.953035 
L 138.566146 226.953035 
L 138.566146 226.5984 
L 139.191172 226.5984 
L 139.191172 226.243765 
L 139.313723 226.243765 
L 139.313723 225.889129 
L 139.435481 225.889129 
L 139.435481 225.534494 
L 139.556456 225.534494 
L 139.556456 223.052047 
L 139.914782 223.052047 
L 139.914782 220.5696 
L 140.382174 220.5696 
L 140.382174 220.214965 
L 140.725251 220.214965 
L 140.725251 219.860329 
L 141.062184 219.860329 
L 141.173167 217.732518 
L 141.283499 217.732518 
L 141.283499 216.313976 
L 141.610664 216.313976 
L 141.610664 215.604706 
L 141.825656 215.604706 
L 141.825656 215.250071 
L 142.038218 215.250071 
L 142.038218 214.895435 
L 142.45627 214.895435 
L 142.45627 213.831529 
L 142.661862 213.831529 
L 142.661862 213.122259 
L 142.865233 213.122259 
L 142.865233 212.767624 
L 143.166224 212.767624 
L 143.166224 212.058353 
L 143.560197 212.058353 
L 143.657415 207.802729 
L 143.754133 207.802729 
L 143.850356 206.029553 
L 144.2304 206.029553 
L 144.324223 203.901741 
L 144.417581 203.901741 
L 144.417581 201.419294 
L 144.602918 201.419294 
L 144.602918 200.710024 
L 144.786447 200.710024 
L 144.786447 200.000753 
L 145.237585 200.000753 
L 145.237585 196.4544 
L 145.590864 196.4544 
L 145.678157 193.971953 
L 145.765046 193.971953 
L 145.765046 192.198776 
L 146.27812 192.198776 
L 146.27812 184.3968 
L 146.446082 184.3968 
L 146.529503 181.914353 
L 146.777571 181.914353 
L 146.777571 180.850447 
L 147.264104 180.850447 
L 147.264104 180.495812 
L 147.423525 180.495812 
L 147.502732 179.431906 
L 147.893838 179.431906 
L 147.971093 175.885553 
L 148.124658 175.885553 
L 148.124658 175.176282 
L 148.352679 175.176282 
L 148.428077 174.112376 
L 148.503173 174.112376 
L 148.57797 173.403106 
L 148.874221 173.403106 
L 148.874221 172.693835 
L 149.381693 172.693835 
L 149.381693 172.3392 
L 149.524205 172.3392 
L 149.524205 167.374306 
L 149.665646 167.374306 
L 149.665646 164.537224 
L 150.152479 164.537224 
L 150.152479 163.118682 
L 150.760445 163.118682 
L 150.760445 162.764047 
L 150.892922 162.764047 
L 150.892922 160.636235 
L 151.089903 160.636235 
L 151.155108 153.188894 
L 151.41369 153.188894 
L 151.41369 152.834259 
L 151.795018 152.834259 
L 151.857828 150.706447 
L 152.045009 150.706447 
L 152.045009 148.224 
L 152.230346 148.224 
L 152.230346 147.869365 
L 152.474656 147.869365 
L 152.53524 146.096188 
L 153.071898 146.096188 
L 153.130592 144.677647 
L 153.421349 144.677647 
L 153.421349 144.323012 
L 153.593669 144.323012 
L 153.650761 143.613741 
L 153.764426 143.613741 
L 153.764426 140.422024 
L 153.933646 140.422024 
L 153.933646 140.067388 
L 154.267588 140.067388 
L 154.267588 139.712753 
L 154.486967 139.712753 
L 154.486967 137.584941 
L 155.391799 137.584941 
L 155.391799 135.811765 
L 156.055505 135.811765 
L 156.155566 134.393224 
L 156.403417 134.393224 
L 156.403417 132.974682 
L 156.648044 132.974682 
L 156.648044 132.620047 
L 156.84148 132.620047 
L 156.88953 129.428329 
L 157.080512 129.428329 
L 157.080512 129.073694 
L 157.269574 129.073694 
L 157.363398 126.945882 
L 157.410135 126.945882 
L 157.503261 123.754165 
L 157.825621 123.754165 
L 157.871225 122.335624 
L 158.052543 122.335624 
L 158.052543 119.498541 
L 158.232129 119.498541 
L 158.232129 118.789271 
L 158.365703 118.789271 
L 158.365703 117.725365 
L 158.58624 117.725365 
L 158.630038 115.597553 
L 158.847515 115.597553 
L 158.847515 114.533647 
L 159.857774 114.533647 
L 159.857774 113.824376 
L 160.263211 113.824376 
L 160.343261 112.405835 
L 160.620781 112.405835 
L 160.620781 112.0512 
L 160.894266 112.0512 
L 160.894266 110.632659 
L 161.125559 110.632659 
L 161.125559 109.568753 
L 161.240147 109.568753 
L 161.240147 109.214118 
L 161.391854 109.214118 
L 161.467251 108.150212 
L 162.810208 108.150212 
L 162.810208 107.795576 
L 165.17708 107.795576 
L 165.17708 107.440941 
L 173.836223 107.440941 
L 173.836223 106.731671 
L 175.442151 106.731671 
L 175.442151 105.667765 
L 175.726373 105.667765 
L 175.796762 104.958494 
L 175.936756 104.958494 
L 175.936756 104.249224 
L 176.213656 104.249224 
L 176.265124 103.539953 
L 176.435674 103.539953 
L 176.435674 102.830682 
L 176.638314 102.830682 
L 176.638314 102.121412 
L 176.855405 102.121412 
L 176.905149 99.638965 
L 177.249723 99.638965 
L 177.314646 98.220424 
L 177.588098 98.220424 
L 177.588098 97.511153 
L 177.715419 97.511153 
L 177.715419 96.801882 
L 178.09229 96.801882 
L 178.09229 95.028706 
L 178.339408 95.028706 
L 178.339408 93.255529 
L 178.779198 93.255529 
L 178.883832 92.191624 
L 178.898732 92.191624 
L 178.928497 91.127718 
L 179.135545 91.127718 
L 179.179617 89.709176 
L 179.311218 89.709176 
L 179.311218 87.226729 
L 180.040051 87.226729 
L 180.040051 86.872094 
L 180.304517 86.872094 
L 180.33214 85.098918 
L 180.538033 85.098918 
L 180.538033 84.389647 
L 180.70114 84.389647 
L 180.795637 79.070118 
L 181.221678 79.070118 
L 181.326697 75.169129 
L 181.586709 75.169129 
L 181.612513 71.622776 
L 181.957455 71.622776 
L 182.033257 69.494965 
L 182.096193 69.494965 
L 182.14639 67.721788 
L 182.604477 67.721788 
L 182.641134 66.303247 
L 183.015807 66.303247 
L 183.039725 63.111529 
L 183.277247 63.111529 
L 183.371423 60.983718 
L 183.418335 60.983718 
L 183.418335 60.629082 
L 183.995068 60.629082 
L 183.995068 59.919812 
L 184.164695 59.919812 
L 184.164695 58.146635 
L 184.377384 58.146635 
L 184.377384 56.373459 
L 190.223749 56.373459 
L 190.223749 55.309553 
L 191.539007 55.309553 
L 191.539007 54.600282 
L 191.840843 54.600282 
L 191.840843 54.245647 
L 192.086263 54.245647 
L 192.086263 52.827106 
L 192.495544 52.827106 
L 192.553292 51.408565 
L 192.789649 51.408565 
L 192.846503 50.344659 
L 192.973799 50.344659 
L 192.973799 47.862212 
L 193.733547 47.862212 
L 193.841543 45.7344 
L 193.922135 45.7344 
L 194.029057 42.542682 
L 194.068997 42.542682 
L 194.068997 38.641694 
L 194.600043 38.641694 
L 194.600043 38.287059 
L 194.786584 38.287059 
L 194.88235 35.449976 
L 195.204355 35.449976 
L 195.204355 35.095341 
L 195.360209 35.095341 
L 195.360209 34.386071 
L 195.783786 34.386071 
L 195.820172 31.194353 
L 195.977037 31.194353 
L 195.977037 30.485082 
L 196.539324 30.485082 
L 196.539324 30.130447 
L 196.690328 30.130447 
L 196.794164 27.648 
L 360.8064 27.648 
L 360.8064 27.648 
" style="fill: none; stroke: #000080; stroke-width: 1.5; stroke-linecap: square"/>
   </g>
   <g id="line2d_36">
    <defs>
     <path id="ma88a3b781b" d="M 0 6 
C 1.591219 6 3.117479 5.367802 4.242641 4.242641 
C 5.367802 3.117479 6 1.591219 6 0 
C 6 -1.591219 5.367802 -3.117479 4.242641 -4.242641 
C 3.117479 -5.367802 1.591219 -6 0 -6 
C -1.591219 -6 -3.117479 -5.367802 -4.242641 -4.242641 
C -5.367802 -3.117479 -6 -1.591219 -6 0 
C -6 1.591219 -5.367802 3.117479 -4.242641 4.242641 
C -3.117479 5.367802 -1.591219 6 0 6 
z
" style="stroke: #000080; stroke-width: 1.5"/>
    </defs>
    <g>
     <use xlink:href="#ma88a3b781b" x="95.503454" y="267.381459" style="fill-opacity: 0; stroke: #000080; stroke-width: 1.5"/>
     <use xlink:href="#ma88a3b781b" x="153.593669" y="143.968376" style="fill-opacity: 0; stroke: #000080; stroke-width: 1.5"/>
     <use xlink:href="#ma88a3b781b" x="184.377384" y="58.146635" style="fill-opacity: 0; stroke: #000080; stroke-width: 1.5"/>
     <use xlink:href="#ma88a3b781b" x="196.794164" y="27.648" style="fill-opacity: 0; stroke: #000080; stroke-width: 1.5"/>
     <use xlink:href="#ma88a3b781b" x="196.794164" y="27.648" style="fill-opacity: 0; stroke: #000080; stroke-width: 1.5"/>
     <use xlink:href="#ma88a3b781b" x="360.8064" y="27.648" style="fill-opacity: 0; stroke: #000080; stroke-width: 1.5"/>
    </g>
   </g>
   <g id="line2d_37">
    <path style="fill: none; stroke: #000080; stroke-width: 1.5; stroke-linecap: square"/>
    <g/>
   </g>
   <g id="line2d_38">
    <defs>
     <path id="ma0b2af3f82" d="M 0 1.5 
C 0.397805 1.5 0.77937 1.341951 1.06066 1.06066 
C 1.341951 0.77937 1.5 0.397805 1.5 0 
C 1.5 -0.397805 1.341951 -0.77937 1.06066 -1.06066 
C 0.77937 -1.341951 0.397805 -1.5 0 -1.5 
C -0.397805 -1.5 -0.77937 -1.341951 -1.06066 -1.06066 
C -1.341951 -0.77937 -1.5 -0.397805 -1.5 0 
C -1.5 0.397805 -1.341951 0.77937 -1.06066 1.06066 
C -0.77937 1.341951 -0.397805 1.5 0 1.5 
z
" style="stroke: #ff00ff"/>
    </defs>
    <g>
     <use xlink:href="#ma0b2af3f82" x="197.175704" y="27.648" style="fill: #ff00ff; stroke: #ff00ff"/>
     <use xlink:href="#ma0b2af3f82" x="197.175704" y="27.648" style="fill: #ff00ff; stroke: #ff00ff"/>
    </g>
   </g>
   <g id="line2d_39">
    <path d="M 44.560826 298.944 
L 44.560826 291.496659 
L 57.6 291.496659 
L 57.6 286.8864 
L 65.227428 286.8864 
L 65.227428 280.8576 
L 70.639174 280.8576 
L 70.639174 277.665882 
L 74.836851 277.665882 
L 74.836851 277.311247 
L 78.266603 277.311247 
L 78.266603 276.247341 
L 81.166416 276.247341 
L 81.166416 275.538071 
L 83.678349 275.538071 
L 83.678349 274.119529 
L 85.894031 274.119529 
L 85.894031 270.218541 
L 87.876026 270.218541 
L 87.876026 267.736094 
L 91.305777 267.736094 
L 91.305777 265.962918 
L 96.717523 265.962918 
L 96.717523 265.608282 
L 98.933205 265.608282 
L 98.933205 260.643388 
L 99.950294 260.643388 
L 99.950294 259.934118 
L 103.544339 259.934118 
L 103.544339 259.224847 
L 107.904887 259.224847 
L 107.904887 257.451671 
L 108.542628 257.451671 
L 108.542628 256.7424 
L 111.97238 256.7424 
L 111.97238 255.678494 
L 112.487797 255.678494 
L 112.487797 253.905318 
L 113.478107 253.905318 
L 113.478107 253.196047 
L 115.314838 253.196047 
L 115.314838 252.841412 
L 115.747307 252.841412 
L 115.747307 250.358965 
L 117.384126 250.358965 
L 117.384126 250.004329 
L 117.772007 250.004329 
L 117.772007 248.585788 
L 118.889854 248.585788 
L 118.889854 247.876518 
L 119.24818 247.876518 
L 119.24818 247.167247 
L 121.581803 247.167247 
L 121.581803 243.620894 
L 123.374735 243.620894 
L 123.374735 243.266259 
L 123.657621 243.266259 
L 123.657621 242.556988 
L 124.481616 242.556988 
L 124.481616 242.202353 
L 125.011554 242.202353 
L 125.011554 241.847718 
L 125.526971 241.847718 
L 125.526971 241.493082 
L 126.028642 241.493082 
L 126.028642 240.429176 
L 126.274549 240.429176 
L 126.274549 239.719906 
L 129.417095 239.719906 
L 129.417095 239.010635 
L 129.622688 239.010635 
L 129.622688 237.237459 
L 130.027253 237.237459 
L 130.027253 236.528188 
L 131.002163 236.528188 
L 131.002163 235.818918 
L 131.191226 235.818918 
L 131.191226 234.755012 
L 131.378407 234.755012 
L 131.378407 233.691106 
L 131.929028 233.691106 
L 131.929028 232.981835 
L 132.984158 232.981835 
L 132.984158 232.272565 
L 133.154399 232.272565 
L 133.154399 231.917929 
L 133.490329 231.917929 
L 133.490329 231.208659 
L 134.14471 231.208659 
L 134.14471 230.499388 
L 134.304809 230.499388 
L 134.304809 229.790118 
L 134.463557 229.790118 
L 134.463557 228.726212 
L 135.237805 228.726212 
L 135.237805 228.371576 
L 135.538796 228.371576 
L 135.538796 226.953035 
L 135.835047 226.953035 
L 135.835047 225.534494 
L 136.555884 225.534494 
L 136.555884 225.179859 
L 136.836659 225.179859 
L 136.836659 224.470588 
L 136.97549 224.470588 
L 136.97549 220.5696 
L 137.520791 220.5696 
L 137.520791 219.505694 
L 138.180913 219.505694 
L 138.180913 217.377882 
L 138.310202 217.377882 
L 138.310202 213.122259 
L 138.438609 213.122259 
L 138.438609 212.412988 
L 138.566146 212.412988 
L 138.566146 210.994447 
L 138.692823 210.994447 
L 138.692823 210.639812 
L 138.818654 210.639812 
L 138.818654 209.575906 
L 139.435481 209.575906 
L 139.435481 208.157365 
L 140.26641 208.157365 
L 140.26641 206.029553 
L 140.49723 206.029553 
L 140.49723 205.320282 
L 140.611586 205.320282 
L 140.611586 203.901741 
L 140.725251 203.901741 
L 140.725251 202.128565 
L 140.838234 202.128565 
L 140.838234 201.773929 
L 141.825656 201.773929 
L 141.932237 199.291482 
L 142.248405 199.291482 
L 142.352625 198.582212 
L 142.45627 198.582212 
L 142.45627 198.227576 
L 142.865233 198.227576 
L 142.966099 195.390494 
L 143.166224 195.390494 
L 143.166224 195.035859 
L 143.364242 195.035859 
L 143.364242 194.326588 
L 143.560197 194.326588 
L 143.560197 192.198776 
L 144.324223 192.198776 
L 144.417581 189.716329 
L 144.510478 189.716329 
L 144.602918 185.106071 
L 144.786447 185.106071 
L 144.786447 184.042165 
L 144.968202 184.042165 
L 145.058426 182.623624 
L 145.415054 182.623624 
L 145.415054 180.495812 
L 145.590864 180.495812 
L 145.590864 179.077271 
L 145.765046 179.077271 
L 145.851536 176.949459 
L 146.27812 176.949459 
L 146.362288 174.821647 
L 146.446082 174.821647 
L 146.446082 172.3392 
L 146.941151 172.3392 
L 146.941151 171.984565 
L 147.423525 171.984565 
L 147.423525 170.920659 
L 147.581606 170.920659 
L 147.660152 168.083576 
L 148.048032 168.083576 
L 148.048032 167.019671 
L 148.352679 167.019671 
L 148.352679 165.246494 
L 148.503173 165.246494 
L 148.503173 163.827953 
L 148.726679 163.827953 
L 148.800595 162.409412 
L 149.020615 162.409412 
L 149.020615 162.054776 
L 149.165879 162.054776 
L 149.165879 160.990871 
L 149.31003 160.990871 
L 149.31003 160.636235 
L 149.453084 160.636235 
L 149.524205 159.217694 
L 149.73597 159.217694 
L 149.806031 157.089882 
L 150.083698 157.089882 
L 150.083698 156.735247 
L 150.221009 156.735247 
L 150.221009 156.025976 
L 150.492661 156.025976 
L 150.559965 153.188894 
L 150.892922 153.188894 
L 150.892922 151.770353 
L 151.024471 151.770353 
L 151.089903 149.997176 
L 151.220087 149.997176 
L 151.220087 148.224 
L 151.60532 148.224 
L 151.60532 146.096188 
L 151.795018 146.096188 
L 151.857828 144.323012 
L 152.106991 144.323012 
L 152.106991 142.904471 
L 152.230346 142.904471 
L 152.291722 140.776659 
L 152.352898 140.776659 
L 152.413875 139.358118 
L 152.474656 139.358118 
L 152.474656 139.003482 
L 152.595631 139.003482 
L 152.595631 138.294212 
L 152.775647 138.294212 
L 152.775647 136.1664 
L 152.894708 136.1664 
L 152.894708 135.811765 
L 153.01302 135.811765 
L 153.01302 135.457129 
L 153.130592 135.457129 
L 153.130592 134.038588 
L 153.363556 134.038588 
L 153.363556 133.683953 
L 153.593669 133.683953 
L 153.593669 131.910776 
L 153.877408 131.910776 
L 153.877408 130.492235 
L 153.989717 130.492235 
L 153.989717 130.1376 
L 154.377597 130.1376 
L 154.486967 127.300518 
L 154.541415 127.300518 
L 154.649839 123.044894 
L 155.024477 123.044894 
L 155.077392 120.207812 
L 155.235253 120.207812 
L 155.235253 119.853176 
L 155.443693 119.853176 
L 155.443693 119.143906 
L 155.649849 119.143906 
L 155.701037 116.306824 
L 155.802997 116.306824 
L 155.904407 111.696565 
L 156.354107 111.696565 
L 156.354107 111.341929 
L 156.599372 111.341929 
L 156.599372 110.632659 
L 156.937458 110.632659 
L 156.937458 110.278024 
L 157.222487 110.278024 
L 157.222487 108.504847 
L 157.363398 108.504847 
L 157.363398 106.731671 
L 157.549652 106.731671 
L 157.595929 103.539953 
L 157.916719 103.539953 
L 157.916719 101.412141 
L 158.052543 101.412141 
L 158.052543 101.057506 
L 158.890711 101.057506 
L 158.890711 100.702871 
L 159.232748 100.702871 
L 159.232748 100.348235 
L 160.18282 100.348235 
L 160.18282 99.9936 
L 168.91828 99.9936 
L 168.91828 99.284329 
L 170.332249 99.284329 
L 170.332249 98.575059 
L 170.519197 98.575059 
L 170.519197 98.220424 
L 170.681267 98.220424 
L 170.704306 97.511153 
L 171.069148 97.511153 
L 171.069148 97.156518 
L 171.315934 97.156518 
L 171.315934 96.447247 
L 171.449192 96.447247 
L 171.47131 94.319435 
L 171.71291 94.319435 
L 171.71291 92.191624 
L 171.88669 92.191624 
L 171.88669 91.127718 
L 172.293095 91.127718 
L 172.314244 88.999906 
L 172.461621 88.999906 
L 172.503517 86.517459 
L 172.937888 86.517459 
L 172.937888 82.971106 
L 173.342453 82.971106 
L 173.422332 81.552565 
L 173.659955 81.552565 
L 173.699269 80.134024 
L 173.855707 80.134024 
L 173.855707 79.424753 
L 174.164733 79.424753 
L 174.164733 78.715482 
L 174.317363 78.715482 
L 174.374282 76.942306 
L 174.487605 76.942306 
L 174.506426 75.169129 
L 174.600249 75.169129 
L 174.693607 72.332047 
L 174.805028 72.332047 
L 174.805028 71.977412 
L 175.080727 71.977412 
L 175.080727 71.268141 
L 175.208017 71.268141 
L 175.280369 68.431059 
L 175.442151 68.431059 
L 175.442151 67.721788 
L 175.602554 67.721788 
L 175.602554 66.303247 
L 175.726373 66.303247 
L 175.726373 65.593976 
L 175.88438 65.593976 
L 175.936756 63.8208 
L 176.36764 63.8208 
L 176.401688 62.047624 
L 176.671876 62.047624 
L 176.671876 60.629082 
L 177.053597 60.629082 
L 177.053597 60.274447 
L 177.379346 60.274447 
L 177.379346 58.855906 
L 178.958215 58.855906 
L 178.958215 57.437365 
L 179.786028 57.437365 
L 179.786028 56.728094 
L 180.33214 56.728094 
L 180.33214 53.181741 
L 181.234837 53.181741 
L 181.339783 51.053929 
L 182.171439 51.053929 
L 182.171439 50.344659 
L 182.457127 50.344659 
L 182.555488 48.571482 
L 182.907797 48.571482 
L 182.907797 47.507576 
L 190.722844 47.507576 
L 190.722844 46.443671 
L 191.26315 46.443671 
L 191.286293 44.315859 
L 192.189421 44.315859 
L 192.189421 43.251953 
L 192.394056 43.251953 
L 192.473842 40.060235 
L 193.343691 40.060235 
L 193.343691 39.7056 
L 194.148623 39.7056 
L 194.148623 38.287059 
L 194.964955 38.287059 
L 194.964955 37.577788 
L 195.241878 37.577788 
L 195.298022 36.513882 
L 195.48397 36.513882 
L 195.48397 36.159247 
L 195.649766 36.159247 
L 195.649766 35.449976 
L 195.88066 35.449976 
L 195.940953 34.386071 
L 196.037023 34.386071 
L 196.037023 32.612894 
L 196.404725 32.612894 
L 196.422337 31.194353 
L 196.539324 31.194353 
L 196.539324 30.130447 
L 196.851604 30.130447 
L 196.851604 28.357271 
L 196.983054 28.357271 
L 196.983054 28.002635 
L 197.175704 28.002635 
L 197.175704 27.648 
L 360.8064 27.648 
L 360.8064 27.648 
" style="fill: none; stroke: #ff00ff; stroke-width: 1.5; stroke-linecap: square"/>
   </g>
   <g id="line2d_40">
    <defs>
     <path id="m6458c20c2f" d="M -0 8.485281 
L 5.091169 0 
L 0 -8.485281 
L -5.091169 -0 
z
" style="stroke: #ff00ff; stroke-width: 1.5; stroke-linejoin: miter"/>
    </defs>
    <g>
     <use xlink:href="#m6458c20c2f" x="99.950294" y="260.643388" style="fill-opacity: 0; stroke: #ff00ff; stroke-width: 1.5; stroke-linejoin: miter"/>
     <use xlink:href="#m6458c20c2f" x="149.806031" y="158.153788" style="fill-opacity: 0; stroke: #ff00ff; stroke-width: 1.5; stroke-linejoin: miter"/>
     <use xlink:href="#m6458c20c2f" x="177.379346" y="60.274447" style="fill-opacity: 0; stroke: #ff00ff; stroke-width: 1.5; stroke-linejoin: miter"/>
     <use xlink:href="#m6458c20c2f" x="197.175704" y="28.002635" style="fill-opacity: 0; stroke: #ff00ff; stroke-width: 1.5; stroke-linejoin: miter"/>
     <use xlink:href="#m6458c20c2f" x="197.175704" y="27.648" style="fill-opacity: 0; stroke: #ff00ff; stroke-width: 1.5; stroke-linejoin: miter"/>
     <use xlink:href="#m6458c20c2f" x="360.8064" y="27.648" style="fill-opacity: 0; stroke: #ff00ff; stroke-width: 1.5; stroke-linejoin: miter"/>
    </g>
   </g>
   <g id="line2d_41">
    <path style="fill: none; stroke: #ff00ff; stroke-width: 1.5; stroke-linecap: square"/>
    <g/>
   </g>
   <g id="line2d_42">
    <defs>
     <path id="m93e60de5b2" d="M 0 1.5 
C 0.397805 1.5 0.77937 1.341951 1.06066 1.06066 
C 1.341951 0.77937 1.5 0.397805 1.5 0 
C 1.5 -0.397805 1.341951 -0.77937 1.06066 -1.06066 
C 0.77937 -1.341951 0.397805 -1.5 0 -1.5 
C -0.397805 -1.5 -0.77937 -1.341951 -1.06066 -1.06066 
C -1.341951 -0.77937 -1.5 -0.397805 -1.5 0 
C -1.5 0.397805 -1.341951 0.77937 -1.06066 1.06066 
C -0.77937 1.341951 -0.397805 1.5 0 1.5 
z
" style="stroke: #ff7500"/>
    </defs>
    <g>
     <use xlink:href="#m93e60de5b2" x="198.083588" y="27.648" style="fill: #ff7500; stroke: #ff7500"/>
     <use xlink:href="#m93e60de5b2" x="198.083588" y="27.648" style="fill: #ff7500; stroke: #ff7500"/>
    </g>
   </g>
   <g id="line2d_43">
    <path d="M 44.560826 298.944 
L 44.560826 291.496659 
L 57.6 291.496659 
L 57.6 287.595671 
L 65.227428 287.595671 
L 65.227428 284.403953 
L 70.639174 284.403953 
L 70.639174 282.630776 
L 74.836851 282.630776 
L 74.836851 280.148329 
L 78.266603 280.148329 
L 78.266603 273.410259 
L 81.166416 273.410259 
L 81.166416 271.282447 
L 83.678349 271.282447 
L 83.678349 270.573176 
L 87.876026 270.573176 
L 87.876026 269.154635 
L 91.305777 269.154635 
L 91.305777 268.090729 
L 92.811505 268.090729 
L 92.811505 266.672188 
L 95.503454 266.672188 
L 95.503454 266.317553 
L 97.857967 266.317553 
L 97.857967 265.608282 
L 98.933205 265.608282 
L 98.933205 265.253647 
L 99.950294 265.253647 
L 99.950294 264.899012 
L 102.708132 264.899012 
L 102.708132 264.544376 
L 103.544339 264.544376 
L 103.544339 260.288753 
L 104.344952 260.288753 
L 104.344952 258.515576 
L 105.112877 258.515576 
L 105.112877 257.806306 
L 105.850679 257.806306 
L 105.850679 257.451671 
L 107.244765 257.451671 
L 107.244765 257.097035 
L 110.335561 257.097035 
L 110.335561 256.7424 
L 110.897141 256.7424 
L 110.897141 256.387765 
L 111.97238 256.387765 
L 111.97238 256.033129 
L 112.487797 256.033129 
L 112.487797 255.323859 
L 112.989468 255.323859 
L 112.989468 253.550682 
L 116.988079 253.550682 
L 116.988079 252.132141 
L 117.384126 252.132141 
L 117.384126 251.777506 
L 118.152051 251.777506 
L 118.152051 251.422871 
L 119.24818 251.422871 
L 119.24818 249.295059 
L 119.599808 249.295059 
L 119.599808 247.521882 
L 120.616896 247.521882 
L 120.616896 247.167247 
L 121.581803 247.167247 
L 121.581803 245.748706 
L 124.481616 245.748706 
L 124.481616 245.394071 
L 125.526971 245.394071 
L 125.526971 245.039435 
L 127.686077 245.039435 
L 127.686077 242.556988 
L 128.999044 242.556988 
L 128.999044 241.847718 
L 129.622688 241.847718 
L 129.622688 240.783812 
L 129.826058 240.783812 
L 129.826058 240.429176 
L 132.109044 240.429176 
L 132.109044 240.074541 
L 132.812362 240.074541 
L 132.812362 239.719906 
L 132.984158 239.719906 
L 132.984158 239.365271 
L 133.154399 239.365271 
L 133.154399 238.301365 
L 133.323114 238.301365 
L 133.323114 236.882824 
L 134.14471 236.882824 
L 134.14471 234.045741 
L 134.304809 234.045741 
L 134.304809 233.691106 
L 134.620977 233.691106 
L 134.620977 232.272565 
L 135.237805 232.272565 
L 135.237805 231.563294 
L 135.835047 231.563294 
L 135.835047 230.144753 
L 135.981441 230.144753 
L 135.981441 229.790118 
L 136.696795 229.790118 
L 136.696795 229.435482 
L 137.113304 229.435482 
L 137.113304 228.371576 
L 137.250116 228.371576 
L 137.250116 228.016941 
L 137.787626 228.016941 
L 137.787626 227.662306 
L 138.310202 227.662306 
L 138.310202 226.953035 
L 138.566146 226.953035 
L 138.566146 226.243765 
L 139.313723 226.243765 
L 139.313723 224.115953 
L 139.676658 224.115953 
L 139.676658 223.406682 
L 140.032723 223.406682 
L 140.032723 222.342776 
L 140.26641 222.342776 
L 140.26641 220.214965 
L 140.725251 220.214965 
L 140.725251 219.860329 
L 141.610664 219.860329 
L 141.718467 217.377882 
L 141.825656 217.377882 
L 141.825656 217.023247 
L 142.038218 217.023247 
L 142.143605 215.604706 
L 142.45627 215.604706 
L 142.559347 207.802729 
L 143.166224 207.802729 
L 143.166224 206.738824 
L 143.462475 206.738824 
L 143.462475 206.384188 
L 143.657415 206.384188 
L 143.754133 204.611012 
L 144.041338 204.611012 
L 144.136106 201.064659 
L 144.324223 201.064659 
L 144.324223 200.000753 
L 144.510478 200.000753 
L 144.510478 198.936847 
L 145.237585 198.936847 
L 145.326529 197.872941 
L 145.590864 197.872941 
L 145.590864 197.163671 
L 146.108646 197.163671 
L 146.193574 196.4544 
L 146.362288 196.4544 
L 146.446082 195.745129 
L 146.529503 195.745129 
L 146.529503 195.390494 
L 146.695245 195.390494 
L 146.695245 194.326588 
L 147.103321 194.326588 
L 147.103321 193.971953 
L 147.343984 193.971953 
L 147.423525 191.134871 
L 147.502732 191.134871 
L 147.502732 186.879247 
L 147.816265 186.879247 
L 147.893838 186.169976 
L 147.971093 186.169976 
L 147.971093 185.815341 
L 148.200973 185.815341 
L 148.200973 185.460706 
L 148.352679 185.460706 
L 148.428077 183.332894 
L 148.874221 183.332894 
L 148.874221 182.978259 
L 149.093387 182.978259 
L 149.165879 179.431906 
L 149.31003 179.431906 
L 149.381693 177.658729 
L 149.524205 177.658729 
L 149.524205 176.240188 
L 149.665646 176.240188 
L 149.665646 175.176282 
L 149.806031 175.176282 
L 149.806031 174.821647 
L 150.152479 174.821647 
L 150.221009 174.112376 
L 150.425115 174.112376 
L 150.425115 173.757741 
L 150.62703 173.757741 
L 150.693856 172.3392 
L 150.8268 172.3392 
L 150.8268 171.984565 
L 151.220087 171.984565 
L 151.220087 171.275294 
L 151.60532 171.275294 
L 151.668766 168.792847 
L 151.731998 168.792847 
L 151.795018 164.891859 
L 152.045009 164.891859 
L 152.106991 163.827953 
L 152.230346 163.827953 
L 152.230346 162.764047 
L 152.715833 162.764047 
L 152.775647 162.054776 
L 152.835271 162.054776 
L 152.894708 160.636235 
L 153.071898 160.636235 
L 153.071898 160.2816 
L 153.305585 160.2816 
L 153.363556 156.735247 
L 153.421349 156.735247 
L 153.478964 151.415718 
L 153.650761 151.415718 
L 153.707679 149.287906 
L 154.267588 149.287906 
L 154.267588 148.224 
L 154.811312 148.224 
L 154.918196 140.776659 
L 154.971412 140.776659 
L 155.077392 139.712753 
L 155.18278 139.712753 
L 155.235253 138.648847 
L 155.391799 138.648847 
L 155.391799 136.875671 
L 155.547053 136.875671 
L 155.598521 135.102494 
L 156.354107 135.102494 
L 156.403417 134.393224 
L 156.501649 134.393224 
L 156.501649 132.620047 
L 156.793307 132.620047 
L 156.793307 131.556141 
L 156.985263 131.556141 
L 156.985263 130.1376 
L 157.269574 130.1376 
L 157.269574 129.782965 
L 157.456756 129.782965 
L 157.456756 129.073694 
L 157.734081 129.073694 
L 157.825621 126.591247 
L 157.916719 126.591247 
L 157.916719 126.236612 
L 158.454228 126.236612 
L 158.454228 125.881976 
L 158.760826 125.881976 
L 158.804221 125.172706 
L 158.933807 125.172706 
L 158.933807 124.463435 
L 159.062507 124.463435 
L 159.062507 123.399529 
L 159.485256 123.399529 
L 159.527013 122.335624 
L 159.693121 122.335624 
L 159.693121 121.626353 
L 159.816746 121.626353 
L 159.816746 120.207812 
L 160.061585 120.207812 
L 160.142495 118.08 
L 171.951446 118.08 
L 171.951446 117.370729 
L 172.250727 117.370729 
L 172.250727 115.952188 
L 173.718895 115.952188 
L 173.718895 114.888282 
L 174.637648 114.888282 
L 174.637648 113.824376 
L 176.738821 113.824376 
L 176.75552 113.115106 
L 177.967504 113.115106 
L 177.967504 112.405835 
L 178.476998 112.405835 
L 178.476998 111.696565 
L 178.719145 111.696565 
L 178.719145 110.987294 
L 179.06186 110.987294 
L 179.06186 110.632659 
L 179.60041 110.632659 
L 179.629086 108.504847 
L 180.123969 108.504847 
L 180.123969 107.440941 
L 181.116069 107.440941 
L 181.221678 106.0224 
L 181.392038 106.0224 
L 181.483135 104.603859 
L 181.638283 104.603859 
L 181.638283 103.539953 
L 181.766602 103.539953 
L 181.817686 102.830682 
L 182.071044 102.830682 
L 182.171439 100.702871 
L 182.221437 100.702871 
L 182.296185 99.284329 
L 182.395389 99.284329 
L 182.46945 98.220424 
L 182.604477 98.220424 
L 182.604477 95.737976 
L 182.787055 95.737976 
L 182.895758 94.319435 
L 183.051672 94.319435 
L 183.051672 93.255529 
L 183.206305 93.255529 
L 183.206305 92.191624 
L 183.336163 92.191624 
L 183.336163 91.836988 
L 183.47681 91.836988 
L 183.52346 90.418447 
L 183.777987 90.418447 
L 183.81243 88.645271 
L 183.972335 88.645271 
L 184.074417 87.581365 
L 184.085726 87.581365 
L 184.085726 87.226729 
L 184.265742 87.226729 
L 184.343961 84.389647 
L 184.410747 84.389647 
L 184.410747 84.035012 
L 184.686501 84.035012 
L 184.697447 82.971106 
L 184.95827 82.971106 
L 184.95827 81.9072 
L 185.087338 81.9072 
L 185.087338 81.552565 
L 185.258062 81.552565 
L 185.258062 80.134024 
L 185.490306 80.134024 
L 185.490306 79.070118 
L 185.761131 79.070118 
L 185.761131 77.296941 
L 185.966836 77.296941 
L 185.966836 75.8784 
L 190.240057 75.8784 
L 190.240057 75.523765 
L 192.386785 75.523765 
L 192.386785 75.169129 
L 192.632408 75.169129 
L 192.632408 73.041318 
L 192.867779 73.041318 
L 192.867779 72.686682 
L 193.079226 72.686682 
L 193.079226 71.622776 
L 193.453943 71.622776 
L 193.529367 70.204235 
L 193.618117 70.204235 
L 193.672525 65.593976 
L 194.022393 65.593976 
L 194.102215 63.466165 
L 194.155243 63.466165 
L 194.155243 62.402259 
L 194.405103 62.402259 
L 194.509322 59.919812 
L 194.773779 59.919812 
L 194.773779 58.855906 
L 194.95227 58.855906 
L 195.053509 53.536376 
L 195.097631 53.536376 
L 195.122797 52.472471 
L 195.291792 52.472471 
L 195.347788 48.571482 
L 195.434563 48.571482 
L 195.490137 46.798306 
L 195.557837 46.798306 
L 195.557837 46.089035 
L 195.674204 46.089035 
L 195.765567 44.670494 
L 195.886698 44.670494 
L 195.910831 41.833412 
L 196.007054 41.833412 
L 196.037023 39.7056 
L 196.150471 39.7056 
L 196.209908 37.223153 
L 196.375337 37.223153 
L 196.463365 35.095341 
L 196.504304 35.095341 
L 196.504304 34.740706 
L 196.707674 34.740706 
L 196.707674 34.386071 
L 196.845868 34.386071 
L 196.845868 31.548988 
L 197.383135 31.548988 
L 197.488772 28.711906 
L 197.986649 28.711906 
L 198.083588 27.648 
L 360.8064 27.648 
L 360.8064 27.648 
" style="fill: none; stroke: #ff7500; stroke-width: 1.5; stroke-linecap: square"/>
   </g>
   <g id="line2d_44">
    <defs>
     <path id="m33ee62abe9" d="M 0 -6 
L -1.347084 -1.854102 
L -5.706339 -1.854102 
L -2.179628 0.708204 
L -3.526712 4.854102 
L -0 2.291796 
L 3.526712 4.854102 
L 2.179628 0.708204 
L 5.706339 -1.854102 
L 1.347084 -1.854102 
z
" style="stroke: #ff7500; stroke-width: 1.5; stroke-linejoin: bevel"/>
    </defs>
    <g>
     <use xlink:href="#m33ee62abe9" x="83.678349" y="270.573176" style="fill-opacity: 0; stroke: #ff7500; stroke-width: 1.5; stroke-linejoin: bevel"/>
     <use xlink:href="#m33ee62abe9" x="149.093387" y="182.978259" style="fill-opacity: 0; stroke: #ff7500; stroke-width: 1.5; stroke-linejoin: bevel"/>
     <use xlink:href="#m33ee62abe9" x="194.773779" y="58.855906" style="fill-opacity: 0; stroke: #ff7500; stroke-width: 1.5; stroke-linejoin: bevel"/>
     <use xlink:href="#m33ee62abe9" x="198.083588" y="28.357271" style="fill-opacity: 0; stroke: #ff7500; stroke-width: 1.5; stroke-linejoin: bevel"/>
     <use xlink:href="#m33ee62abe9" x="198.083588" y="27.648" style="fill-opacity: 0; stroke: #ff7500; stroke-width: 1.5; stroke-linejoin: bevel"/>
     <use xlink:href="#m33ee62abe9" x="360.8064" y="27.648" style="fill-opacity: 0; stroke: #ff7500; stroke-width: 1.5; stroke-linejoin: bevel"/>
    </g>
   </g>
   <g id="line2d_45">
    <path style="fill: none; stroke: #ff7500; stroke-width: 1.5; stroke-linecap: square"/>
    <g/>
   </g>
   <g id="line2d_46">
    <defs>
     <path id="m59c4d996a8" d="M 0 1.5 
C 0.397805 1.5 0.77937 1.341951 1.06066 1.06066 
C 1.341951 0.77937 1.5 0.397805 1.5 0 
C 1.5 -0.397805 1.341951 -0.77937 1.06066 -1.06066 
C 0.77937 -1.341951 0.397805 -1.5 0 -1.5 
C -0.397805 -1.5 -0.77937 -1.341951 -1.06066 -1.06066 
C -1.341951 -0.77937 -1.5 -0.397805 -1.5 0 
C -1.5 0.397805 -1.341951 0.77937 -1.06066 1.06066 
C -0.77937 1.341951 -0.397805 1.5 0 1.5 
z
" style="stroke: #6495ed"/>
    </defs>
    <g>
     <use xlink:href="#m59c4d996a8" x="185.750786" y="27.648" style="fill: #6495ed; stroke: #6495ed"/>
     <use xlink:href="#m59c4d996a8" x="185.750786" y="27.648" style="fill: #6495ed; stroke: #6495ed"/>
    </g>
   </g>
   <g id="line2d_47">
    <path d="M 44.560826 298.944 
L 44.560826 290.787388 
L 57.6 290.787388 
L 57.6 287.241035 
L 65.227428 287.241035 
L 65.227428 283.694682 
L 70.639174 283.694682 
L 70.639174 280.8576 
L 74.836851 280.8576 
L 74.836851 279.084424 
L 78.266603 279.084424 
L 78.266603 277.665882 
L 83.678349 277.665882 
L 83.678349 275.892706 
L 85.894031 275.892706 
L 85.894031 275.183435 
L 87.876026 275.183435 
L 87.876026 272.700988 
L 89.668958 272.700988 
L 89.668958 271.637082 
L 91.305777 271.637082 
L 91.305777 269.509271 
L 92.811505 269.509271 
L 92.811505 266.317553 
L 95.503454 266.317553 
L 95.503454 264.544376 
L 96.717523 264.544376 
L 96.717523 263.480471 
L 98.933205 263.480471 
L 98.933205 263.125835 
L 99.950294 263.125835 
L 99.950294 262.061929 
L 100.9152 262.061929 
L 100.9152 261.352659 
L 103.544339 261.352659 
L 103.544339 260.643388 
L 105.112877 260.643388 
L 105.112877 260.288753 
L 108.542628 260.288753 
L 108.542628 257.806306 
L 112.989468 257.806306 
L 112.989468 256.033129 
L 113.954374 256.033129 
L 113.954374 254.259953 
L 114.872193 254.259953 
L 114.872193 253.550682 
L 116.583514 253.550682 
L 116.583514 252.841412 
L 116.988079 252.841412 
L 116.988079 251.777506 
L 122.499621 251.777506 
L 122.499621 251.068235 
L 122.795872 251.068235 
L 122.795872 250.358965 
L 123.936316 250.358965 
L 123.936316 247.167247 
L 124.210942 247.167247 
L 124.210942 245.748706 
L 124.481616 245.748706 
L 124.481616 245.394071 
L 124.748451 245.394071 
L 124.748451 244.6848 
L 125.011554 244.6848 
L 125.011554 242.911624 
L 126.993549 242.911624 
L 126.993549 242.556988 
L 128.354013 242.556988 
L 128.354013 242.202353 
L 128.786481 242.202353 
L 128.786481 241.138447 
L 129.622688 241.138447 
L 129.622688 239.365271 
L 130.811181 239.365271 
L 130.811181 239.010635 
L 131.747272 239.010635 
L 131.747272 237.592094 
L 132.638982 237.592094 
L 132.638982 237.237459 
L 133.490329 237.237459 
L 133.490329 235.818918 
L 133.983236 235.818918 
L 133.983236 233.691106 
L 134.304809 233.691106 
L 134.304809 232.981835 
L 135.237805 232.981835 
L 135.237805 232.6272 
L 136.413909 232.6272 
L 136.413909 232.272565 
L 137.113304 232.272565 
L 137.113304 231.563294 
L 137.654681 231.563294 
L 137.654681 230.854024 
L 137.919637 230.854024 
L 137.919637 229.435482 
L 138.310202 229.435482 
L 138.310202 226.243765 
L 138.566146 226.243765 
L 138.566146 225.179859 
L 138.692823 225.179859 
L 138.692823 224.825224 
L 138.943648 224.825224 
L 138.943648 224.470588 
L 139.067817 224.470588 
L 139.067817 222.697412 
L 139.191172 222.697412 
L 139.191172 220.924235 
L 139.914782 220.924235 
L 139.914782 219.505694 
L 140.49723 219.505694 
L 140.49723 219.151059 
L 140.725251 219.151059 
L 140.725251 218.087153 
L 141.173167 218.087153 
L 141.173167 216.313976 
L 141.393187 216.313976 
L 141.393187 214.895435 
L 142.038218 214.895435 
L 142.038218 214.186165 
L 142.45627 214.186165 
L 142.45627 213.831529 
L 142.661862 213.831529 
L 142.661862 213.122259 
L 143.066428 213.122259 
L 143.066428 212.412988 
L 143.560197 212.412988 
L 143.657415 209.930541 
L 143.754133 209.930541 
L 143.754133 204.965647 
L 143.946089 204.965647 
L 144.041338 200.710024 
L 144.324223 200.710024 
L 144.417581 198.936847 
L 144.694906 198.936847 
L 144.694906 196.4544 
L 145.058426 196.4544 
L 145.058426 195.035859 
L 145.326529 195.035859 
L 145.415054 192.198776 
L 145.503164 192.198776 
L 145.503164 191.844141 
L 146.362288 191.844141 
L 146.362288 191.134871 
L 146.612557 191.134871 
L 146.612557 187.233882 
L 147.022411 187.233882 
L 147.022411 186.879247 
L 147.264104 186.879247 
L 147.343984 184.3968 
L 147.423525 184.3968 
L 147.423525 184.042165 
L 147.660152 184.042165 
L 147.73837 182.623624 
L 147.816265 182.623624 
L 147.893838 179.431906 
L 148.048032 179.431906 
L 148.048032 177.304094 
L 148.276979 177.304094 
L 148.352679 176.594824 
L 148.428077 176.594824 
L 148.428077 175.885553 
L 148.57797 175.885553 
L 148.57797 175.530918 
L 148.726679 175.530918 
L 148.800595 173.048471 
L 149.093387 173.048471 
L 149.093387 172.693835 
L 149.31003 172.693835 
L 149.31003 171.275294 
L 149.453084 171.275294 
L 149.524205 170.211388 
L 149.665646 170.211388 
L 149.73597 165.246494 
L 149.875833 165.246494 
L 149.875833 164.891859 
L 150.357325 164.891859 
L 150.357325 164.537224 
L 150.492661 164.537224 
L 150.492661 163.827953 
L 150.8268 163.827953 
L 150.892922 160.2816 
L 150.958812 160.2816 
L 151.024471 157.799153 
L 151.089903 157.799153 
L 151.089903 157.444518 
L 151.284843 157.444518 
L 151.349377 154.962071 
L 151.477784 154.962071 
L 151.54166 147.514729 
L 151.731998 147.514729 
L 151.795018 146.096188 
L 151.857828 146.096188 
L 151.920429 144.323012 
L 152.045009 144.323012 
L 152.045009 143.968376 
L 152.230346 143.968376 
L 152.291722 141.131294 
L 152.352898 141.131294 
L 152.413875 136.875671 
L 152.595631 136.875671 
L 152.595631 136.1664 
L 152.953957 136.1664 
L 153.01302 133.683953 
L 153.130592 133.683953 
L 153.189104 131.201506 
L 153.247435 131.201506 
L 153.305585 129.428329 
L 153.593669 129.428329 
L 153.593669 126.945882 
L 153.821002 126.945882 
L 153.877408 124.1088 
L 154.101358 124.1088 
L 154.156931 122.690259 
L 154.541415 122.690259 
L 154.541415 120.562447 
L 154.757642 120.562447 
L 154.757642 119.853176 
L 155.13016 119.853176 
L 155.18278 117.016094 
L 155.339761 117.016094 
L 155.391799 115.242918 
L 155.598521 115.242918 
L 155.701037 112.760471 
L 155.802997 112.760471 
L 155.85377 111.696565 
L 156.105602 111.696565 
L 156.105602 111.341929 
L 156.696589 111.341929 
L 156.745011 109.214118 
L 156.88953 109.214118 
L 156.985263 107.795576 
L 157.080512 107.795576 
L 157.080512 107.440941 
L 157.549652 107.440941 
L 157.642093 106.0224 
L 157.688143 106.0224 
L 157.779907 103.894588 
L 157.916719 103.894588 
L 158.007377 102.830682 
L 158.052543 102.830682 
L 158.052543 102.121412 
L 158.232129 102.121412 
L 158.232129 100.348235 
L 158.410018 100.348235 
L 158.410018 99.638965 
L 158.58624 99.638965 
L 158.58624 98.929694 
L 158.717331 98.929694 
L 158.804221 96.447247 
L 158.847515 96.447247 
L 158.847515 94.319435 
L 159.019705 94.319435 
L 159.105212 92.546259 
L 159.14782 92.546259 
L 159.232748 90.773082 
L 159.443406 90.773082 
L 159.527013 88.645271 
L 159.568678 88.645271 
L 159.568678 87.226729 
L 159.734419 87.226729 
L 159.734419 86.517459 
L 159.857774 86.517459 
L 159.898714 85.098918 
L 160.061585 85.098918 
L 160.061585 84.389647 
L 160.303279 84.389647 
L 160.343261 81.197929 
L 160.581385 81.197929 
L 160.660094 80.488659 
L 160.738476 80.488659 
L 160.738476 79.070118 
L 160.894266 79.070118 
L 160.97168 76.587671 
L 161.010268 76.587671 
L 161.087207 74.105224 
L 161.839769 74.105224 
L 161.839769 73.750588 
L 162.023298 73.750588 
L 162.05979 71.268141 
L 162.56338 71.268141 
L 162.56338 70.913506 
L 162.984551 70.913506 
L 162.984551 70.204235 
L 173.77765 70.204235 
L 173.77765 69.8496 
L 176.954762 69.8496 
L 176.954762 68.785694 
L 177.841883 68.785694 
L 177.920494 67.721788 
L 178.29332 67.721788 
L 178.29332 65.948612 
L 179.032306 65.948612 
L 179.06186 64.175435 
L 179.485266 64.175435 
L 179.485266 62.756894 
L 179.629086 62.756894 
L 179.629086 61.692988 
L 179.913468 61.692988 
L 179.983897 59.919812 
L 180.151859 59.919812 
L 180.151859 59.210541 
L 180.387266 59.210541 
L 180.469652 57.082729 
L 180.633351 57.082729 
L 180.633351 56.373459 
L 180.849423 56.373459 
L 180.943179 49.990024 
L 181.009863 49.990024 
L 181.009863 49.635388 
L 181.142526 49.635388 
L 181.155741 48.571482 
L 181.41811 48.571482 
L 181.431133 46.443671 
L 181.612513 46.443671 
L 181.612513 43.961224 
L 181.944791 43.961224 
L 182.033257 42.542682 
L 182.083622 42.542682 
L 182.083622 41.124141 
L 182.555488 41.124141 
L 182.653338 39.7056 
L 182.714236 39.7056 
L 182.787055 37.223153 
L 183.229982 37.223153 
L 183.229982 36.868518 
L 183.383162 36.868518 
L 183.383162 36.513882 
L 183.535105 36.513882 
L 183.569995 35.449976 
L 183.800956 35.449976 
L 183.81243 34.386071 
L 184.198438 34.386071 
L 184.198438 33.6768 
L 184.620688 33.6768 
L 184.708387 32.967529 
L 184.925864 32.967529 
L 185.012156 30.839718 
L 185.183561 30.839718 
L 185.194222 29.775812 
L 185.605362 29.775812 
L 185.605362 28.357271 
L 185.719719 28.357271 
L 185.750786 27.648 
L 360.8064 27.648 
L 360.8064 27.648 
" style="fill: none; stroke: #6495ed; stroke-width: 1.5; stroke-linecap: square"/>
   </g>
   <g id="line2d_48">
    <defs>
     <path id="m399043d923" d="M -0 6 
L 6 -6 
L -6 -6 
z
" style="stroke: #6495ed; stroke-width: 1.5; stroke-linejoin: miter"/>
    </defs>
    <g>
     <use xlink:href="#m399043d923" x="91.305777" y="269.509271" style="fill-opacity: 0; stroke: #6495ed; stroke-width: 1.5; stroke-linejoin: miter"/>
     <use xlink:href="#m399043d923" x="148.048032" y="179.431906" style="fill-opacity: 0; stroke: #6495ed; stroke-width: 1.5; stroke-linejoin: miter"/>
     <use xlink:href="#m399043d923" x="181.009863" y="49.635388" style="fill-opacity: 0; stroke: #6495ed; stroke-width: 1.5; stroke-linejoin: miter"/>
     <use xlink:href="#m399043d923" x="185.750786" y="27.648" style="fill-opacity: 0; stroke: #6495ed; stroke-width: 1.5; stroke-linejoin: miter"/>
     <use xlink:href="#m399043d923" x="185.750786" y="27.648" style="fill-opacity: 0; stroke: #6495ed; stroke-width: 1.5; stroke-linejoin: miter"/>
     <use xlink:href="#m399043d923" x="360.8064" y="27.648" style="fill-opacity: 0; stroke: #6495ed; stroke-width: 1.5; stroke-linejoin: miter"/>
    </g>
   </g>
   <g id="line2d_49">
    <path style="fill: none; stroke: #6495ed; stroke-width: 1.5; stroke-linecap: square"/>
    <g/>
   </g>
   <g id="line2d_50">
    <path d="M 360.8064 27.648 
L 380.514816 293.51808 
" style="fill: none; stroke: #ff7500; stroke-width: 1.5; stroke-linecap: square"/>
    <g>
     <use xlink:href="#m33ee62abe9" x="360.8064" y="27.648" style="fill-opacity: 0; stroke: #ff7500; stroke-width: 1.5; stroke-linejoin: bevel"/>
     <use xlink:href="#m33ee62abe9" x="380.514816" y="293.51808" style="fill-opacity: 0; stroke: #ff7500; stroke-width: 1.5; stroke-linejoin: bevel"/>
    </g>
   </g>
   <g id="line2d_51">
    <path d="M 360.8064 27.648 
L 380.514816 228.40704 
" style="fill: none; stroke: #ff00ff; stroke-width: 1.5; stroke-linecap: square"/>
    <g>
     <use xlink:href="#m6458c20c2f" x="360.8064" y="27.648" style="fill-opacity: 0; stroke: #ff00ff; stroke-width: 1.5; stroke-linejoin: miter"/>
     <use xlink:href="#m6458c20c2f" x="380.514816" y="228.40704" style="fill-opacity: 0; stroke: #ff00ff; stroke-width: 1.5; stroke-linejoin: miter"/>
    </g>
   </g>
   <g id="line2d_52">
    <path d="M 360.8064 27.648 
L 380.514816 163.296 
" style="fill: none; stroke: #000080; stroke-width: 1.5; stroke-linecap: square"/>
    <g>
     <use xlink:href="#ma88a3b781b" x="360.8064" y="27.648" style="fill-opacity: 0; stroke: #000080; stroke-width: 1.5"/>
     <use xlink:href="#ma88a3b781b" x="380.514816" y="163.296" style="fill-opacity: 0; stroke: #000080; stroke-width: 1.5"/>
    </g>
   </g>
   <g id="line2d_53">
    <path d="M 360.8064 27.648 
L 380.514816 98.18496 
" style="fill: none; stroke: #6495ed; stroke-width: 1.5; stroke-linecap: square"/>
    <g>
     <use xlink:href="#m399043d923" x="360.8064" y="27.648" style="fill-opacity: 0; stroke: #6495ed; stroke-width: 1.5; stroke-linejoin: miter"/>
     <use xlink:href="#m399043d923" x="380.514816" y="98.18496" style="fill-opacity: 0; stroke: #6495ed; stroke-width: 1.5; stroke-linejoin: miter"/>
    </g>
   </g>
   <g id="line2d_54">
    <path d="M 360.8064 298.944 
L 360.8064 27.648 
" style="fill: none; stroke: #000000; stroke-width: 1.5; stroke-linecap: square"/>
   </g>
   <g id="patch_3">
    <path d="M 57.6 298.944 
L 360.8064 298.944 
" style="fill: none; stroke: #000000; stroke-width: 0.8; stroke-linejoin: miter; stroke-linecap: square"/>
   </g>
   <g id="patch_4">
    <path d="M 57.6 27.648 
L 360.8064 27.648 
" style="fill: none; stroke: #000000; stroke-width: 0.8; stroke-linejoin: miter; stroke-linecap: square"/>
   </g>
   <g id="text_13">
    <!-- cma0-no-s -->
    <g transform="translate(386.578944 297.381205)scale(0.14 -0.14)">
     <use xlink:href="#DejaVuSans-63"/>
     <use xlink:href="#DejaVuSans-6d" x="54.980469"/>
     <use xlink:href="#DejaVuSans-61" x="152.392578"/>
     <use xlink:href="#DejaVuSans-30" x="213.671875"/>
     <use xlink:href="#DejaVuSans-2d" x="277.294922"/>
     <use xlink:href="#DejaVuSans-6e" x="313.378906"/>
     <use xlink:href="#DejaVuSans-6f" x="376.757812"/>
     <use xlink:href="#DejaVuSans-2d" x="439.814453"/>
     <use xlink:href="#DejaVuSans-73" x="475.898438"/>
    </g>
   </g>
   <g id="text_14">
    <!-- cma1rep -->
    <g transform="translate(386.578944 232.270165)scale(0.14 -0.14)">
     <use xlink:href="#DejaVuSans-63"/>
     <use xlink:href="#DejaVuSans-6d" x="54.980469"/>
     <use xlink:href="#DejaVuSans-61" x="152.392578"/>
     <use xlink:href="#DejaVuSans-31" x="213.671875"/>
     <use xlink:href="#DejaVuSans-72" x="277.294922"/>
     <use xlink:href="#DejaVuSans-65" x="316.158203"/>
     <use xlink:href="#DejaVuSans-70" x="377.681641"/>
    </g>
   </g>
   <g id="text_15">
    <!-- cma0rep -->
    <g transform="translate(386.578944 167.159125)scale(0.14 -0.14)">
     <use xlink:href="#DejaVuSans-63"/>
     <use xlink:href="#DejaVuSans-6d" x="54.980469"/>
     <use xlink:href="#DejaVuSans-61" x="152.392578"/>
     <use xlink:href="#DejaVuSans-30" x="213.671875"/>
     <use xlink:href="#DejaVuSans-72" x="277.294922"/>
     <use xlink:href="#DejaVuSans-65" x="316.158203"/>
     <use xlink:href="#DejaVuSans-70" x="377.681641"/>
    </g>
   </g>
   <g id="text_16">
    <!-- CMA-ES-20 -->
    <g transform="translate(386.578944 102.048085)scale(0.14 -0.14)">
     <defs>
      <path id="DejaVuSans-43" d="M 4122 4306 
L 4122 3641 
Q 3803 3938 3442 4084 
Q 3081 4231 2675 4231 
Q 1875 4231 1450 3742 
Q 1025 3253 1025 2328 
Q 1025 1406 1450 917 
Q 1875 428 2675 428 
Q 3081 428 3442 575 
Q 3803 722 4122 1019 
L 4122 359 
Q 3791 134 3420 21 
Q 3050 -91 2638 -91 
Q 1578 -91 968 557 
Q 359 1206 359 2328 
Q 359 3453 968 4101 
Q 1578 4750 2638 4750 
Q 3056 4750 3426 4639 
Q 3797 4528 4122 4306 
z
" transform="scale(0.015625)"/>
      <path id="DejaVuSans-4d" d="M 628 4666 
L 1569 4666 
L 2759 1491 
L 3956 4666 
L 4897 4666 
L 4897 0 
L 4281 0 
L 4281 4097 
L 3078 897 
L 2444 897 
L 1241 4097 
L 1241 0 
L 628 0 
L 628 4666 
z
" transform="scale(0.015625)"/>
      <path id="DejaVuSans-41" d="M 2188 4044 
L 1331 1722 
L 3047 1722 
L 2188 4044 
z
M 1831 4666 
L 2547 4666 
L 4325 0 
L 3669 0 
L 3244 1197 
L 1141 1197 
L 716 0 
L 50 0 
L 1831 4666 
z
" transform="scale(0.015625)"/>
      <path id="DejaVuSans-45" d="M 628 4666 
L 3578 4666 
L 3578 4134 
L 1259 4134 
L 1259 2753 
L 3481 2753 
L 3481 2222 
L 1259 2222 
L 1259 531 
L 3634 531 
L 3634 0 
L 628 0 
L 628 4666 
z
" transform="scale(0.015625)"/>
      <path id="DejaVuSans-53" d="M 3425 4513 
L 3425 3897 
Q 3066 4069 2747 4153 
Q 2428 4238 2131 4238 
Q 1616 4238 1336 4038 
Q 1056 3838 1056 3469 
Q 1056 3159 1242 3001 
Q 1428 2844 1947 2747 
L 2328 2669 
Q 3034 2534 3370 2195 
Q 3706 1856 3706 1288 
Q 3706 609 3251 259 
Q 2797 -91 1919 -91 
Q 1588 -91 1214 -16 
Q 841 59 441 206 
L 441 856 
Q 825 641 1194 531 
Q 1563 422 1919 422 
Q 2459 422 2753 634 
Q 3047 847 3047 1241 
Q 3047 1584 2836 1778 
Q 2625 1972 2144 2069 
L 1759 2144 
Q 1053 2284 737 2584 
Q 422 2884 422 3419 
Q 422 4038 858 4394 
Q 1294 4750 2059 4750 
Q 2388 4750 2728 4690 
Q 3069 4631 3425 4513 
z
" transform="scale(0.015625)"/>
     </defs>
     <use xlink:href="#DejaVuSans-43"/>
     <use xlink:href="#DejaVuSans-4d" x="69.824219"/>
     <use xlink:href="#DejaVuSans-41" x="156.103516"/>
     <use xlink:href="#DejaVuSans-2d" x="222.261719"/>
     <use xlink:href="#DejaVuSans-45" x="258.345703"/>
     <use xlink:href="#DejaVuSans-53" x="321.529297"/>
     <use xlink:href="#DejaVuSans-2d" x="385.005859"/>
     <use xlink:href="#DejaVuSans-32" x="421.089844"/>
     <use xlink:href="#DejaVuSans-30" x="484.712891"/>
    </g>
   </g>
   <g id="text_17">
    <!-- best 2009 -->
    <g transform="translate(386.578944 36.937045)scale(0.14 -0.14)">
     <defs>
      <path id="DejaVuSans-62" d="M 3116 1747 
Q 3116 2381 2855 2742 
Q 2594 3103 2138 3103 
Q 1681 3103 1420 2742 
Q 1159 2381 1159 1747 
Q 1159 1113 1420 752 
Q 1681 391 2138 391 
Q 2594 391 2855 752 
Q 3116 1113 3116 1747 
z
M 1159 2969 
Q 1341 3281 1617 3432 
Q 1894 3584 2278 3584 
Q 2916 3584 3314 3078 
Q 3713 2572 3713 1747 
Q 3713 922 3314 415 
Q 2916 -91 2278 -91 
Q 1894 -91 1617 61 
Q 1341 213 1159 525 
L 1159 0 
L 581 0 
L 581 4863 
L 1159 4863 
L 1159 2969 
z
" transform="scale(0.015625)"/>
      <path id="DejaVuSans-39" d="M 703 97 
L 703 672 
Q 941 559 1184 500 
Q 1428 441 1663 441 
Q 2288 441 2617 861 
Q 2947 1281 2994 2138 
Q 2813 1869 2534 1725 
Q 2256 1581 1919 1581 
Q 1219 1581 811 2004 
Q 403 2428 403 3163 
Q 403 3881 828 4315 
Q 1253 4750 1959 4750 
Q 2769 4750 3195 4129 
Q 3622 3509 3622 2328 
Q 3622 1225 3098 567 
Q 2575 -91 1691 -91 
Q 1453 -91 1209 -44 
Q 966 3 703 97 
z
M 1959 2075 
Q 2384 2075 2632 2365 
Q 2881 2656 2881 3163 
Q 2881 3666 2632 3958 
Q 2384 4250 1959 4250 
Q 1534 4250 1286 3958 
Q 1038 3666 1038 3163 
Q 1038 2656 1286 2365 
Q 1534 2075 1959 2075 
z
" transform="scale(0.015625)"/>
     </defs>
     <use xlink:href="#DejaVuSans-62"/>
     <use xlink:href="#DejaVuSans-65" x="63.476562"/>
     <use xlink:href="#DejaVuSans-73" x="125"/>
     <use xlink:href="#DejaVuSans-74" x="177.099609"/>
     <use xlink:href="#DejaVuSans-20" x="216.308594"/>
     <use xlink:href="#DejaVuSans-32" x="248.095703"/>
     <use xlink:href="#DejaVuSans-30" x="311.71875"/>
     <use xlink:href="#DejaVuSans-30" x="375.341797"/>
     <use xlink:href="#DejaVuSans-39" x="438.964844"/>
    </g>
   </g>
   <g id="text_18">
    <!-- bbob f16, 2-D -->
    <g transform="translate(60.632064 38.111366)scale(0.102 -0.102)">
     <defs>
      <path id="DejaVuSans-44" d="M 1259 4147 
L 1259 519 
L 2022 519 
Q 2988 519 3436 956 
Q 3884 1394 3884 2338 
Q 3884 3275 3436 3711 
Q 2988 4147 2022 4147 
L 1259 4147 
z
M 628 4666 
L 1925 4666 
Q 3281 4666 3915 4102 
Q 4550 3538 4550 2338 
Q 4550 1131 3912 565 
Q 3275 0 1925 0 
L 628 0 
L 628 4666 
z
" transform="scale(0.015625)"/>
     </defs>
     <use xlink:href="#DejaVuSans-62"/>
     <use xlink:href="#DejaVuSans-62" x="63.476562"/>
     <use xlink:href="#DejaVuSans-6f" x="126.953125"/>
     <use xlink:href="#DejaVuSans-62" x="188.134766"/>
     <use xlink:href="#DejaVuSans-20" x="251.611328"/>
     <use xlink:href="#DejaVuSans-66" x="283.398438"/>
     <use xlink:href="#DejaVuSans-31" x="318.603516"/>
     <use xlink:href="#DejaVuSans-36" x="382.226562"/>
     <use xlink:href="#DejaVuSans-2c" x="445.849609"/>
     <use xlink:href="#DejaVuSans-20" x="477.636719"/>
     <use xlink:href="#DejaVuSans-32" x="509.423828"/>
     <use xlink:href="#DejaVuSans-2d" x="573.046875"/>
     <use xlink:href="#DejaVuSans-44" x="609.130859"/>
    </g>
    <!-- 51 targets: 100..1e-08 -->
    <g transform="translate(60.632064 49.533135)scale(0.102 -0.102)">
     <defs>
      <path id="DejaVuSans-35" d="M 691 4666 
L 3169 4666 
L 3169 4134 
L 1269 4134 
L 1269 2991 
Q 1406 3038 1543 3061 
Q 1681 3084 1819 3084 
Q 2600 3084 3056 2656 
Q 3513 2228 3513 1497 
Q 3513 744 3044 326 
Q 2575 -91 1722 -91 
Q 1428 -91 1123 -41 
Q 819 9 494 109 
L 494 744 
Q 775 591 1075 516 
Q 1375 441 1709 441 
Q 2250 441 2565 725 
Q 2881 1009 2881 1497 
Q 2881 1984 2565 2268 
Q 2250 2553 1709 2553 
Q 1456 2553 1204 2497 
Q 953 2441 691 2322 
L 691 4666 
z
" transform="scale(0.015625)"/>
      <path id="DejaVuSans-3a" d="M 750 794 
L 1409 794 
L 1409 0 
L 750 0 
L 750 794 
z
M 750 3309 
L 1409 3309 
L 1409 2516 
L 750 2516 
L 750 3309 
z
" transform="scale(0.015625)"/>
     </defs>
     <use xlink:href="#DejaVuSans-35"/>
     <use xlink:href="#DejaVuSans-31" x="63.623047"/>
     <use xlink:href="#DejaVuSans-20" x="127.246094"/>
     <use xlink:href="#DejaVuSans-74" x="159.033203"/>
     <use xlink:href="#DejaVuSans-61" x="198.242188"/>
     <use xlink:href="#DejaVuSans-72" x="259.521484"/>
     <use xlink:href="#DejaVuSans-67" x="298.884766"/>
     <use xlink:href="#DejaVuSans-65" x="362.361328"/>
     <use xlink:href="#DejaVuSans-74" x="423.884766"/>
     <use xlink:href="#DejaVuSans-73" x="463.09375"/>
     <use xlink:href="#DejaVuSans-3a" x="515.193359"/>
     <use xlink:href="#DejaVuSans-20" x="548.884766"/>
     <use xlink:href="#DejaVuSans-31" x="580.671875"/>
     <use xlink:href="#DejaVuSans-30" x="644.294922"/>
     <use xlink:href="#DejaVuSans-30" x="707.917969"/>
     <use xlink:href="#DejaVuSans-2e" x="771.541016"/>
     <use xlink:href="#DejaVuSans-2e" x="803.328125"/>
     <use xlink:href="#DejaVuSans-31" x="835.115234"/>
     <use xlink:href="#DejaVuSans-65" x="898.738281"/>
     <use xlink:href="#DejaVuSans-2d" x="960.261719"/>
     <use xlink:href="#DejaVuSans-30" x="996.345703"/>
     <use xlink:href="#DejaVuSans-38" x="1059.96875"/>
    </g>
    <!-- 15 instances -->
    <g transform="translate(60.632064 60.954904)scale(0.102 -0.102)">
     <use xlink:href="#DejaVuSans-31"/>
     <use xlink:href="#DejaVuSans-35" x="63.623047"/>
     <use xlink:href="#DejaVuSans-20" x="127.246094"/>
     <use xlink:href="#DejaVuSans-69" x="159.033203"/>
     <use xlink:href="#DejaVuSans-6e" x="186.816406"/>
     <use xlink:href="#DejaVuSans-73" x="250.195312"/>
     <use xlink:href="#DejaVuSans-74" x="302.294922"/>
     <use xlink:href="#DejaVuSans-61" x="341.503906"/>
     <use xlink:href="#DejaVuSans-6e" x="402.783203"/>
     <use xlink:href="#DejaVuSans-63" x="466.162109"/>
     <use xlink:href="#DejaVuSans-65" x="521.142578"/>
     <use xlink:href="#DejaVuSans-73" x="582.666016"/>
    </g>
   </g>
   <g id="text_19">
    <!-- v2.6 -->
    <g style="fill: #808080" transform="translate(198.292262 294.151352)scale(0.1 -0.1)">
     <use xlink:href="#DejaVuSans-76"/>
     <use xlink:href="#DejaVuSans-32" x="59.179688"/>
     <use xlink:href="#DejaVuSans-2e" x="122.802734"/>
     <use xlink:href="#DejaVuSans-36" x="154.589844"/>
    </g>
   </g>
   <g id="text_20">
    <!-- 16 Weierstrass -->
    <g transform="translate(135.017262 21.648)scale(0.2 -0.2)">
     <defs>
      <path id="DejaVuSans-57" d="M 213 4666 
L 850 4666 
L 1831 722 
L 2809 4666 
L 3519 4666 
L 4500 722 
L 5478 4666 
L 6119 4666 
L 4947 0 
L 4153 0 
L 3169 4050 
L 2175 0 
L 1381 0 
L 213 4666 
z
" transform="scale(0.015625)"/>
     </defs>
     <use xlink:href="#DejaVuSans-31"/>
     <use xlink:href="#DejaVuSans-36" x="63.623047"/>
     <use xlink:href="#DejaVuSans-20" x="127.246094"/>
     <use xlink:href="#DejaVuSans-57" x="159.033203"/>
     <use xlink:href="#DejaVuSans-65" x="252.035156"/>
     <use xlink:href="#DejaVuSans-69" x="313.558594"/>
     <use xlink:href="#DejaVuSans-65" x="341.341797"/>
     <use xlink:href="#DejaVuSans-72" x="402.865234"/>
     <use xlink:href="#DejaVuSans-73" x="443.978516"/>
     <use xlink:href="#DejaVuSans-74" x="496.078125"/>
     <use xlink:href="#DejaVuSans-72" x="535.287109"/>
     <use xlink:href="#DejaVuSans-61" x="576.400391"/>
     <use xlink:href="#DejaVuSans-73" x="637.679688"/>
     <use xlink:href="#DejaVuSans-73" x="689.779297"/>
    </g>
   </g>
  </g>
 </g>
 <defs>
  <clipPath id="p757cde1a38">
   <rect x="57.6" y="27.648" width="303.2064" height="271.296"/>
  </clipPath>
 </defs>
</svg>
