<?xml version="1.0" encoding="utf-8" standalone="no"?>
<!DOCTYPE svg PUBLIC "-//W3C//DTD SVG 1.1//EN"
  "http://www.w3.org/Graphics/SVG/1.1/DTD/svg11.dtd">
<svg xmlns:xlink="http://www.w3.org/1999/xlink" width="460.8pt" height="345.6pt" viewBox="0 0 460.8 345.6" xmlns="http://www.w3.org/2000/svg" version="1.1">
 <metadata>
  <rdf:RDF xmlns:dc="http://purl.org/dc/elements/1.1/" xmlns:cc="http://creativecommons.org/ns#" xmlns:rdf="http://www.w3.org/1999/02/22-rdf-syntax-ns#">
   <cc:Work>
    <dc:type rdf:resource="http://purl.org/dc/dcmitype/StillImage"/>
    <dc:date>2022-03-16T22:42:20.169081</dc:date>
    <dc:format>image/svg+xml</dc:format>
    <dc:creator>
     <cc:Agent>
      <dc:title>Matplotlib v3.5.1, https://matplotlib.org/</dc:title>
     </cc:Agent>
    </dc:creator>
   </cc:Work>
  </rdf:RDF>
 </metadata>
 <defs>
  <style type="text/css">*{stroke-linejoin: round; stroke-linecap: butt}</style>
 </defs>
 <g id="figure_1">
  <g id="patch_1">
   <path d="M 0 345.6 
L 460.8 345.6 
L 460.8 0 
L 0 0 
z
" style="fill: #ffffff"/>
  </g>
  <g id="axes_1">
   <g id="patch_2">
    <path d="M 57.6 298.944 
L 360.8064 298.944 
L 360.8064 27.648 
L 57.6 27.648 
z
" style="fill: #ffffff"/>
   </g>
   <g id="matplotlib.axis_1">
    <g id="xtick_1">
     <g id="line2d_1">
      <path d="M 57.6 298.944 
L 57.6 27.648 
" clip-path="url(#pec2301cbc9)" style="fill: none; stroke: #b0b0b0; stroke-width: 0.8; stroke-linecap: square"/>
     </g>
     <g id="line2d_2">
      <defs>
       <path id="m122e72cdea" d="M 0 0 
L 0 3.5 
" style="stroke: #000000; stroke-width: 0.8"/>
      </defs>
      <g>
       <use xlink:href="#m122e72cdea" x="57.6" y="298.944" style="stroke: #000000; stroke-width: 0.8"/>
      </g>
     </g>
     <g id="text_1">
      <!-- 0 -->
      <g transform="translate(52.191875 318.861344)scale(0.17 -0.17)">
       <defs>
        <path id="DejaVuSans-30" d="M 2034 4250 
Q 1547 4250 1301 3770 
Q 1056 3291 1056 2328 
Q 1056 1369 1301 889 
Q 1547 409 2034 409 
Q 2525 409 2770 889 
Q 3016 1369 3016 2328 
Q 3016 3291 2770 3770 
Q 2525 4250 2034 4250 
z
M 2034 4750 
Q 2819 4750 3233 4129 
Q 3647 3509 3647 2328 
Q 3647 1150 3233 529 
Q 2819 -91 2034 -91 
Q 1250 -91 836 529 
Q 422 1150 422 2328 
Q 422 3509 836 4129 
Q 1250 4750 2034 4750 
z
" transform="scale(0.015625)"/>
       </defs>
       <use xlink:href="#DejaVuSans-30"/>
      </g>
     </g>
    </g>
    <g id="xtick_2">
     <g id="line2d_3">
      <path d="M 144.2304 298.944 
L 144.2304 27.648 
" clip-path="url(#pec2301cbc9)" style="fill: none; stroke: #b0b0b0; stroke-width: 0.8; stroke-linecap: square"/>
     </g>
     <g id="line2d_4">
      <g>
       <use xlink:href="#m122e72cdea" x="144.2304" y="298.944" style="stroke: #000000; stroke-width: 0.8"/>
      </g>
     </g>
     <g id="text_2">
      <!-- 2 -->
      <g transform="translate(138.822275 318.861344)scale(0.17 -0.17)">
       <defs>
        <path id="DejaVuSans-32" d="M 1228 531 
L 3431 531 
L 3431 0 
L 469 0 
L 469 531 
Q 828 903 1448 1529 
Q 2069 2156 2228 2338 
Q 2531 2678 2651 2914 
Q 2772 3150 2772 3378 
Q 2772 3750 2511 3984 
Q 2250 4219 1831 4219 
Q 1534 4219 1204 4116 
Q 875 4013 500 3803 
L 500 4441 
Q 881 4594 1212 4672 
Q 1544 4750 1819 4750 
Q 2544 4750 2975 4387 
Q 3406 4025 3406 3419 
Q 3406 3131 3298 2873 
Q 3191 2616 2906 2266 
Q 2828 2175 2409 1742 
Q 1991 1309 1228 531 
z
" transform="scale(0.015625)"/>
       </defs>
       <use xlink:href="#DejaVuSans-32"/>
      </g>
     </g>
    </g>
    <g id="xtick_3">
     <g id="line2d_5">
      <path d="M 230.8608 298.944 
L 230.8608 27.648 
" clip-path="url(#pec2301cbc9)" style="fill: none; stroke: #b0b0b0; stroke-width: 0.8; stroke-linecap: square"/>
     </g>
     <g id="line2d_6">
      <g>
       <use xlink:href="#m122e72cdea" x="230.8608" y="298.944" style="stroke: #000000; stroke-width: 0.8"/>
      </g>
     </g>
     <g id="text_3">
      <!-- 4 -->
      <g transform="translate(225.452675 318.861344)scale(0.17 -0.17)">
       <defs>
        <path id="DejaVuSans-34" d="M 2419 4116 
L 825 1625 
L 2419 1625 
L 2419 4116 
z
M 2253 4666 
L 3047 4666 
L 3047 1625 
L 3713 1625 
L 3713 1100 
L 3047 1100 
L 3047 0 
L 2419 0 
L 2419 1100 
L 313 1100 
L 313 1709 
L 2253 4666 
z
" transform="scale(0.015625)"/>
       </defs>
       <use xlink:href="#DejaVuSans-34"/>
      </g>
     </g>
    </g>
    <g id="xtick_4">
     <g id="line2d_7">
      <path d="M 317.4912 298.944 
L 317.4912 27.648 
" clip-path="url(#pec2301cbc9)" style="fill: none; stroke: #b0b0b0; stroke-width: 0.8; stroke-linecap: square"/>
     </g>
     <g id="line2d_8">
      <g>
       <use xlink:href="#m122e72cdea" x="317.4912" y="298.944" style="stroke: #000000; stroke-width: 0.8"/>
      </g>
     </g>
     <g id="text_4">
      <!-- 6 -->
      <g transform="translate(312.083075 318.861344)scale(0.17 -0.17)">
       <defs>
        <path id="DejaVuSans-36" d="M 2113 2584 
Q 1688 2584 1439 2293 
Q 1191 2003 1191 1497 
Q 1191 994 1439 701 
Q 1688 409 2113 409 
Q 2538 409 2786 701 
Q 3034 994 3034 1497 
Q 3034 2003 2786 2293 
Q 2538 2584 2113 2584 
z
M 3366 4563 
L 3366 3988 
Q 3128 4100 2886 4159 
Q 2644 4219 2406 4219 
Q 1781 4219 1451 3797 
Q 1122 3375 1075 2522 
Q 1259 2794 1537 2939 
Q 1816 3084 2150 3084 
Q 2853 3084 3261 2657 
Q 3669 2231 3669 1497 
Q 3669 778 3244 343 
Q 2819 -91 2113 -91 
Q 1303 -91 875 529 
Q 447 1150 447 2328 
Q 447 3434 972 4092 
Q 1497 4750 2381 4750 
Q 2619 4750 2861 4703 
Q 3103 4656 3366 4563 
z
" transform="scale(0.015625)"/>
       </defs>
       <use xlink:href="#DejaVuSans-36"/>
      </g>
     </g>
    </g>
    <g id="xtick_5">
     <g id="line2d_9">
      <path d="M 100.9152 298.944 
L 100.9152 27.648 
" clip-path="url(#pec2301cbc9)" style="fill: none; stroke: #b0b0b0; stroke-width: 0.8; stroke-linecap: square"/>
     </g>
     <g id="line2d_10">
      <defs>
       <path id="m571ccb0046" d="M 0 0 
L 0 2 
" style="stroke: #000000; stroke-width: 0.6"/>
      </defs>
      <g>
       <use xlink:href="#m571ccb0046" x="100.9152" y="298.944" style="stroke: #000000; stroke-width: 0.6"/>
      </g>
     </g>
    </g>
    <g id="xtick_6">
     <g id="line2d_11">
      <path d="M 187.5456 298.944 
L 187.5456 27.648 
" clip-path="url(#pec2301cbc9)" style="fill: none; stroke: #b0b0b0; stroke-width: 0.8; stroke-linecap: square"/>
     </g>
     <g id="line2d_12">
      <g>
       <use xlink:href="#m571ccb0046" x="187.5456" y="298.944" style="stroke: #000000; stroke-width: 0.6"/>
      </g>
     </g>
    </g>
    <g id="xtick_7">
     <g id="line2d_13">
      <path d="M 274.176 298.944 
L 274.176 27.648 
" clip-path="url(#pec2301cbc9)" style="fill: none; stroke: #b0b0b0; stroke-width: 0.8; stroke-linecap: square"/>
     </g>
     <g id="line2d_14">
      <g>
       <use xlink:href="#m571ccb0046" x="274.176" y="298.944" style="stroke: #000000; stroke-width: 0.6"/>
      </g>
     </g>
    </g>
    <g id="xtick_8">
     <g id="line2d_15">
      <path d="M 360.8064 298.944 
L 360.8064 27.648 
" clip-path="url(#pec2301cbc9)" style="fill: none; stroke: #b0b0b0; stroke-width: 0.8; stroke-linecap: square"/>
     </g>
     <g id="line2d_16">
      <g>
       <use xlink:href="#m571ccb0046" x="360.8064" y="298.944" style="stroke: #000000; stroke-width: 0.6"/>
      </g>
     </g>
    </g>
    <g id="text_5">
     <!-- log10(# f-evals / dimension) -->
     <g transform="translate(88.823278 339.314156)scale(0.17 -0.17)">
      <defs>
       <path id="DejaVuSans-6c" d="M 603 4863 
L 1178 4863 
L 1178 0 
L 603 0 
L 603 4863 
z
" transform="scale(0.015625)"/>
       <path id="DejaVuSans-6f" d="M 1959 3097 
Q 1497 3097 1228 2736 
Q 959 2375 959 1747 
Q 959 1119 1226 758 
Q 1494 397 1959 397 
Q 2419 397 2687 759 
Q 2956 1122 2956 1747 
Q 2956 2369 2687 2733 
Q 2419 3097 1959 3097 
z
M 1959 3584 
Q 2709 3584 3137 3096 
Q 3566 2609 3566 1747 
Q 3566 888 3137 398 
Q 2709 -91 1959 -91 
Q 1206 -91 779 398 
Q 353 888 353 1747 
Q 353 2609 779 3096 
Q 1206 3584 1959 3584 
z
" transform="scale(0.015625)"/>
       <path id="DejaVuSans-67" d="M 2906 1791 
Q 2906 2416 2648 2759 
Q 2391 3103 1925 3103 
Q 1463 3103 1205 2759 
Q 947 2416 947 1791 
Q 947 1169 1205 825 
Q 1463 481 1925 481 
Q 2391 481 2648 825 
Q 2906 1169 2906 1791 
z
M 3481 434 
Q 3481 -459 3084 -895 
Q 2688 -1331 1869 -1331 
Q 1566 -1331 1297 -1286 
Q 1028 -1241 775 -1147 
L 775 -588 
Q 1028 -725 1275 -790 
Q 1522 -856 1778 -856 
Q 2344 -856 2625 -561 
Q 2906 -266 2906 331 
L 2906 616 
Q 2728 306 2450 153 
Q 2172 0 1784 0 
Q 1141 0 747 490 
Q 353 981 353 1791 
Q 353 2603 747 3093 
Q 1141 3584 1784 3584 
Q 2172 3584 2450 3431 
Q 2728 3278 2906 2969 
L 2906 3500 
L 3481 3500 
L 3481 434 
z
" transform="scale(0.015625)"/>
       <path id="DejaVuSans-31" d="M 794 531 
L 1825 531 
L 1825 4091 
L 703 3866 
L 703 4441 
L 1819 4666 
L 2450 4666 
L 2450 531 
L 3481 531 
L 3481 0 
L 794 0 
L 794 531 
z
" transform="scale(0.015625)"/>
       <path id="DejaVuSans-28" d="M 1984 4856 
Q 1566 4138 1362 3434 
Q 1159 2731 1159 2009 
Q 1159 1288 1364 580 
Q 1569 -128 1984 -844 
L 1484 -844 
Q 1016 -109 783 600 
Q 550 1309 550 2009 
Q 550 2706 781 3412 
Q 1013 4119 1484 4856 
L 1984 4856 
z
" transform="scale(0.015625)"/>
       <path id="DejaVuSans-23" d="M 3272 2816 
L 2363 2816 
L 2100 1772 
L 3016 1772 
L 3272 2816 
z
M 2803 4594 
L 2478 3297 
L 3391 3297 
L 3719 4594 
L 4219 4594 
L 3897 3297 
L 4872 3297 
L 4872 2816 
L 3775 2816 
L 3519 1772 
L 4513 1772 
L 4513 1294 
L 3397 1294 
L 3072 0 
L 2572 0 
L 2894 1294 
L 1978 1294 
L 1656 0 
L 1153 0 
L 1478 1294 
L 494 1294 
L 494 1772 
L 1594 1772 
L 1856 2816 
L 850 2816 
L 850 3297 
L 1978 3297 
L 2297 4594 
L 2803 4594 
z
" transform="scale(0.015625)"/>
       <path id="DejaVuSans-20" transform="scale(0.015625)"/>
       <path id="DejaVuSans-66" d="M 2375 4863 
L 2375 4384 
L 1825 4384 
Q 1516 4384 1395 4259 
Q 1275 4134 1275 3809 
L 1275 3500 
L 2222 3500 
L 2222 3053 
L 1275 3053 
L 1275 0 
L 697 0 
L 697 3053 
L 147 3053 
L 147 3500 
L 697 3500 
L 697 3744 
Q 697 4328 969 4595 
Q 1241 4863 1831 4863 
L 2375 4863 
z
" transform="scale(0.015625)"/>
       <path id="DejaVuSans-2d" d="M 313 2009 
L 1997 2009 
L 1997 1497 
L 313 1497 
L 313 2009 
z
" transform="scale(0.015625)"/>
       <path id="DejaVuSans-65" d="M 3597 1894 
L 3597 1613 
L 953 1613 
Q 991 1019 1311 708 
Q 1631 397 2203 397 
Q 2534 397 2845 478 
Q 3156 559 3463 722 
L 3463 178 
Q 3153 47 2828 -22 
Q 2503 -91 2169 -91 
Q 1331 -91 842 396 
Q 353 884 353 1716 
Q 353 2575 817 3079 
Q 1281 3584 2069 3584 
Q 2775 3584 3186 3129 
Q 3597 2675 3597 1894 
z
M 3022 2063 
Q 3016 2534 2758 2815 
Q 2500 3097 2075 3097 
Q 1594 3097 1305 2825 
Q 1016 2553 972 2059 
L 3022 2063 
z
" transform="scale(0.015625)"/>
       <path id="DejaVuSans-76" d="M 191 3500 
L 800 3500 
L 1894 563 
L 2988 3500 
L 3597 3500 
L 2284 0 
L 1503 0 
L 191 3500 
z
" transform="scale(0.015625)"/>
       <path id="DejaVuSans-61" d="M 2194 1759 
Q 1497 1759 1228 1600 
Q 959 1441 959 1056 
Q 959 750 1161 570 
Q 1363 391 1709 391 
Q 2188 391 2477 730 
Q 2766 1069 2766 1631 
L 2766 1759 
L 2194 1759 
z
M 3341 1997 
L 3341 0 
L 2766 0 
L 2766 531 
Q 2569 213 2275 61 
Q 1981 -91 1556 -91 
Q 1019 -91 701 211 
Q 384 513 384 1019 
Q 384 1609 779 1909 
Q 1175 2209 1959 2209 
L 2766 2209 
L 2766 2266 
Q 2766 2663 2505 2880 
Q 2244 3097 1772 3097 
Q 1472 3097 1187 3025 
Q 903 2953 641 2809 
L 641 3341 
Q 956 3463 1253 3523 
Q 1550 3584 1831 3584 
Q 2591 3584 2966 3190 
Q 3341 2797 3341 1997 
z
" transform="scale(0.015625)"/>
       <path id="DejaVuSans-73" d="M 2834 3397 
L 2834 2853 
Q 2591 2978 2328 3040 
Q 2066 3103 1784 3103 
Q 1356 3103 1142 2972 
Q 928 2841 928 2578 
Q 928 2378 1081 2264 
Q 1234 2150 1697 2047 
L 1894 2003 
Q 2506 1872 2764 1633 
Q 3022 1394 3022 966 
Q 3022 478 2636 193 
Q 2250 -91 1575 -91 
Q 1294 -91 989 -36 
Q 684 19 347 128 
L 347 722 
Q 666 556 975 473 
Q 1284 391 1588 391 
Q 1994 391 2212 530 
Q 2431 669 2431 922 
Q 2431 1156 2273 1281 
Q 2116 1406 1581 1522 
L 1381 1569 
Q 847 1681 609 1914 
Q 372 2147 372 2553 
Q 372 3047 722 3315 
Q 1072 3584 1716 3584 
Q 2034 3584 2315 3537 
Q 2597 3491 2834 3397 
z
" transform="scale(0.015625)"/>
       <path id="DejaVuSans-2f" d="M 1625 4666 
L 2156 4666 
L 531 -594 
L 0 -594 
L 1625 4666 
z
" transform="scale(0.015625)"/>
       <path id="DejaVuSans-64" d="M 2906 2969 
L 2906 4863 
L 3481 4863 
L 3481 0 
L 2906 0 
L 2906 525 
Q 2725 213 2448 61 
Q 2172 -91 1784 -91 
Q 1150 -91 751 415 
Q 353 922 353 1747 
Q 353 2572 751 3078 
Q 1150 3584 1784 3584 
Q 2172 3584 2448 3432 
Q 2725 3281 2906 2969 
z
M 947 1747 
Q 947 1113 1208 752 
Q 1469 391 1925 391 
Q 2381 391 2643 752 
Q 2906 1113 2906 1747 
Q 2906 2381 2643 2742 
Q 2381 3103 1925 3103 
Q 1469 3103 1208 2742 
Q 947 2381 947 1747 
z
" transform="scale(0.015625)"/>
       <path id="DejaVuSans-69" d="M 603 3500 
L 1178 3500 
L 1178 0 
L 603 0 
L 603 3500 
z
M 603 4863 
L 1178 4863 
L 1178 4134 
L 603 4134 
L 603 4863 
z
" transform="scale(0.015625)"/>
       <path id="DejaVuSans-6d" d="M 3328 2828 
Q 3544 3216 3844 3400 
Q 4144 3584 4550 3584 
Q 5097 3584 5394 3201 
Q 5691 2819 5691 2113 
L 5691 0 
L 5113 0 
L 5113 2094 
Q 5113 2597 4934 2840 
Q 4756 3084 4391 3084 
Q 3944 3084 3684 2787 
Q 3425 2491 3425 1978 
L 3425 0 
L 2847 0 
L 2847 2094 
Q 2847 2600 2669 2842 
Q 2491 3084 2119 3084 
Q 1678 3084 1418 2786 
Q 1159 2488 1159 1978 
L 1159 0 
L 581 0 
L 581 3500 
L 1159 3500 
L 1159 2956 
Q 1356 3278 1631 3431 
Q 1906 3584 2284 3584 
Q 2666 3584 2933 3390 
Q 3200 3197 3328 2828 
z
" transform="scale(0.015625)"/>
       <path id="DejaVuSans-6e" d="M 3513 2113 
L 3513 0 
L 2938 0 
L 2938 2094 
Q 2938 2591 2744 2837 
Q 2550 3084 2163 3084 
Q 1697 3084 1428 2787 
Q 1159 2491 1159 1978 
L 1159 0 
L 581 0 
L 581 3500 
L 1159 3500 
L 1159 2956 
Q 1366 3272 1645 3428 
Q 1925 3584 2291 3584 
Q 2894 3584 3203 3211 
Q 3513 2838 3513 2113 
z
" transform="scale(0.015625)"/>
       <path id="DejaVuSans-29" d="M 513 4856 
L 1013 4856 
Q 1481 4119 1714 3412 
Q 1947 2706 1947 2009 
Q 1947 1309 1714 600 
Q 1481 -109 1013 -844 
L 513 -844 
Q 928 -128 1133 580 
Q 1338 1288 1338 2009 
Q 1338 2731 1133 3434 
Q 928 4138 513 4856 
z
" transform="scale(0.015625)"/>
      </defs>
      <use xlink:href="#DejaVuSans-6c"/>
      <use xlink:href="#DejaVuSans-6f" x="27.783203"/>
      <use xlink:href="#DejaVuSans-67" x="88.964844"/>
      <use xlink:href="#DejaVuSans-31" x="152.441406"/>
      <use xlink:href="#DejaVuSans-30" x="216.064453"/>
      <use xlink:href="#DejaVuSans-28" x="279.6875"/>
      <use xlink:href="#DejaVuSans-23" x="318.701172"/>
      <use xlink:href="#DejaVuSans-20" x="402.490234"/>
      <use xlink:href="#DejaVuSans-66" x="434.277344"/>
      <use xlink:href="#DejaVuSans-2d" x="463.982422"/>
      <use xlink:href="#DejaVuSans-65" x="500.066406"/>
      <use xlink:href="#DejaVuSans-76" x="561.589844"/>
      <use xlink:href="#DejaVuSans-61" x="620.769531"/>
      <use xlink:href="#DejaVuSans-6c" x="682.048828"/>
      <use xlink:href="#DejaVuSans-73" x="709.832031"/>
      <use xlink:href="#DejaVuSans-20" x="761.931641"/>
      <use xlink:href="#DejaVuSans-2f" x="793.71875"/>
      <use xlink:href="#DejaVuSans-20" x="827.410156"/>
      <use xlink:href="#DejaVuSans-64" x="859.197266"/>
      <use xlink:href="#DejaVuSans-69" x="922.673828"/>
      <use xlink:href="#DejaVuSans-6d" x="950.457031"/>
      <use xlink:href="#DejaVuSans-65" x="1047.869141"/>
      <use xlink:href="#DejaVuSans-6e" x="1109.392578"/>
      <use xlink:href="#DejaVuSans-73" x="1172.771484"/>
      <use xlink:href="#DejaVuSans-69" x="1224.871094"/>
      <use xlink:href="#DejaVuSans-6f" x="1252.654297"/>
      <use xlink:href="#DejaVuSans-6e" x="1313.835938"/>
      <use xlink:href="#DejaVuSans-29" x="1377.214844"/>
     </g>
    </g>
   </g>
   <g id="matplotlib.axis_2">
    <g id="ytick_1">
     <g id="line2d_17">
      <path d="M 57.6 298.944 
L 360.8064 298.944 
" clip-path="url(#pec2301cbc9)" style="fill: none; stroke: #b0b0b0; stroke-width: 0.8; stroke-linecap: square"/>
     </g>
     <g id="line2d_18">
      <defs>
       <path id="m4599c6a62d" d="M 0 0 
L -3.5 0 
" style="stroke: #000000; stroke-width: 0.8"/>
      </defs>
      <g>
       <use xlink:href="#m4599c6a62d" x="57.6" y="298.944" style="stroke: #000000; stroke-width: 0.8"/>
      </g>
     </g>
     <g id="text_6">
      <!-- 0.0 -->
      <g transform="translate(25.155 305.02275)scale(0.16 -0.16)">
       <defs>
        <path id="DejaVuSans-2e" d="M 684 794 
L 1344 794 
L 1344 0 
L 684 0 
L 684 794 
z
" transform="scale(0.015625)"/>
       </defs>
       <use xlink:href="#DejaVuSans-30"/>
       <use xlink:href="#DejaVuSans-2e" x="63.623047"/>
       <use xlink:href="#DejaVuSans-30" x="95.410156"/>
      </g>
     </g>
    </g>
    <g id="ytick_2">
     <g id="line2d_19">
      <path d="M 57.6 244.6848 
L 360.8064 244.6848 
" clip-path="url(#pec2301cbc9)" style="fill: none; stroke: #b0b0b0; stroke-width: 0.8; stroke-linecap: square"/>
     </g>
     <g id="line2d_20">
      <g>
       <use xlink:href="#m4599c6a62d" x="57.6" y="244.6848" style="stroke: #000000; stroke-width: 0.8"/>
      </g>
     </g>
     <g id="text_7">
      <!-- 0.2 -->
      <g transform="translate(25.155 250.76355)scale(0.16 -0.16)">
       <use xlink:href="#DejaVuSans-30"/>
       <use xlink:href="#DejaVuSans-2e" x="63.623047"/>
       <use xlink:href="#DejaVuSans-32" x="95.410156"/>
      </g>
     </g>
    </g>
    <g id="ytick_3">
     <g id="line2d_21">
      <path d="M 57.6 190.4256 
L 360.8064 190.4256 
" clip-path="url(#pec2301cbc9)" style="fill: none; stroke: #b0b0b0; stroke-width: 0.8; stroke-linecap: square"/>
     </g>
     <g id="line2d_22">
      <g>
       <use xlink:href="#m4599c6a62d" x="57.6" y="190.4256" style="stroke: #000000; stroke-width: 0.8"/>
      </g>
     </g>
     <g id="text_8">
      <!-- 0.4 -->
      <g transform="translate(25.155 196.50435)scale(0.16 -0.16)">
       <use xlink:href="#DejaVuSans-30"/>
       <use xlink:href="#DejaVuSans-2e" x="63.623047"/>
       <use xlink:href="#DejaVuSans-34" x="95.410156"/>
      </g>
     </g>
    </g>
    <g id="ytick_4">
     <g id="line2d_23">
      <path d="M 57.6 136.1664 
L 360.8064 136.1664 
" clip-path="url(#pec2301cbc9)" style="fill: none; stroke: #b0b0b0; stroke-width: 0.8; stroke-linecap: square"/>
     </g>
     <g id="line2d_24">
      <g>
       <use xlink:href="#m4599c6a62d" x="57.6" y="136.1664" style="stroke: #000000; stroke-width: 0.8"/>
      </g>
     </g>
     <g id="text_9">
      <!-- 0.6 -->
      <g transform="translate(25.155 142.24515)scale(0.16 -0.16)">
       <use xlink:href="#DejaVuSans-30"/>
       <use xlink:href="#DejaVuSans-2e" x="63.623047"/>
       <use xlink:href="#DejaVuSans-36" x="95.410156"/>
      </g>
     </g>
    </g>
    <g id="ytick_5">
     <g id="line2d_25">
      <path d="M 57.6 81.9072 
L 360.8064 81.9072 
" clip-path="url(#pec2301cbc9)" style="fill: none; stroke: #b0b0b0; stroke-width: 0.8; stroke-linecap: square"/>
     </g>
     <g id="line2d_26">
      <g>
       <use xlink:href="#m4599c6a62d" x="57.6" y="81.9072" style="stroke: #000000; stroke-width: 0.8"/>
      </g>
     </g>
     <g id="text_10">
      <!-- 0.8 -->
      <g transform="translate(25.155 87.98595)scale(0.16 -0.16)">
       <defs>
        <path id="DejaVuSans-38" d="M 2034 2216 
Q 1584 2216 1326 1975 
Q 1069 1734 1069 1313 
Q 1069 891 1326 650 
Q 1584 409 2034 409 
Q 2484 409 2743 651 
Q 3003 894 3003 1313 
Q 3003 1734 2745 1975 
Q 2488 2216 2034 2216 
z
M 1403 2484 
Q 997 2584 770 2862 
Q 544 3141 544 3541 
Q 544 4100 942 4425 
Q 1341 4750 2034 4750 
Q 2731 4750 3128 4425 
Q 3525 4100 3525 3541 
Q 3525 3141 3298 2862 
Q 3072 2584 2669 2484 
Q 3125 2378 3379 2068 
Q 3634 1759 3634 1313 
Q 3634 634 3220 271 
Q 2806 -91 2034 -91 
Q 1263 -91 848 271 
Q 434 634 434 1313 
Q 434 1759 690 2068 
Q 947 2378 1403 2484 
z
M 1172 3481 
Q 1172 3119 1398 2916 
Q 1625 2713 2034 2713 
Q 2441 2713 2670 2916 
Q 2900 3119 2900 3481 
Q 2900 3844 2670 4047 
Q 2441 4250 2034 4250 
Q 1625 4250 1398 4047 
Q 1172 3844 1172 3481 
z
" transform="scale(0.015625)"/>
       </defs>
       <use xlink:href="#DejaVuSans-30"/>
       <use xlink:href="#DejaVuSans-2e" x="63.623047"/>
       <use xlink:href="#DejaVuSans-38" x="95.410156"/>
      </g>
     </g>
    </g>
    <g id="ytick_6">
     <g id="line2d_27">
      <path d="M 57.6 27.648 
L 360.8064 27.648 
" clip-path="url(#pec2301cbc9)" style="fill: none; stroke: #b0b0b0; stroke-width: 0.8; stroke-linecap: square"/>
     </g>
     <g id="line2d_28">
      <g>
       <use xlink:href="#m4599c6a62d" x="57.6" y="27.648" style="stroke: #000000; stroke-width: 0.8"/>
      </g>
     </g>
     <g id="text_11">
      <!-- 1.0 -->
      <g transform="translate(25.155 33.72675)scale(0.16 -0.16)">
       <use xlink:href="#DejaVuSans-31"/>
       <use xlink:href="#DejaVuSans-2e" x="63.623047"/>
       <use xlink:href="#DejaVuSans-30" x="95.410156"/>
      </g>
     </g>
    </g>
    <g id="text_12">
     <!-- Fraction of function,target pairs -->
     <g transform="translate(17.619531 297.681)rotate(-90)scale(0.17 -0.17)">
      <defs>
       <path id="DejaVuSans-46" d="M 628 4666 
L 3309 4666 
L 3309 4134 
L 1259 4134 
L 1259 2759 
L 3109 2759 
L 3109 2228 
L 1259 2228 
L 1259 0 
L 628 0 
L 628 4666 
z
" transform="scale(0.015625)"/>
       <path id="DejaVuSans-72" d="M 2631 2963 
Q 2534 3019 2420 3045 
Q 2306 3072 2169 3072 
Q 1681 3072 1420 2755 
Q 1159 2438 1159 1844 
L 1159 0 
L 581 0 
L 581 3500 
L 1159 3500 
L 1159 2956 
Q 1341 3275 1631 3429 
Q 1922 3584 2338 3584 
Q 2397 3584 2469 3576 
Q 2541 3569 2628 3553 
L 2631 2963 
z
" transform="scale(0.015625)"/>
       <path id="DejaVuSans-63" d="M 3122 3366 
L 3122 2828 
Q 2878 2963 2633 3030 
Q 2388 3097 2138 3097 
Q 1578 3097 1268 2742 
Q 959 2388 959 1747 
Q 959 1106 1268 751 
Q 1578 397 2138 397 
Q 2388 397 2633 464 
Q 2878 531 3122 666 
L 3122 134 
Q 2881 22 2623 -34 
Q 2366 -91 2075 -91 
Q 1284 -91 818 406 
Q 353 903 353 1747 
Q 353 2603 823 3093 
Q 1294 3584 2113 3584 
Q 2378 3584 2631 3529 
Q 2884 3475 3122 3366 
z
" transform="scale(0.015625)"/>
       <path id="DejaVuSans-74" d="M 1172 4494 
L 1172 3500 
L 2356 3500 
L 2356 3053 
L 1172 3053 
L 1172 1153 
Q 1172 725 1289 603 
Q 1406 481 1766 481 
L 2356 481 
L 2356 0 
L 1766 0 
Q 1100 0 847 248 
Q 594 497 594 1153 
L 594 3053 
L 172 3053 
L 172 3500 
L 594 3500 
L 594 4494 
L 1172 4494 
z
" transform="scale(0.015625)"/>
       <path id="DejaVuSans-75" d="M 544 1381 
L 544 3500 
L 1119 3500 
L 1119 1403 
Q 1119 906 1312 657 
Q 1506 409 1894 409 
Q 2359 409 2629 706 
Q 2900 1003 2900 1516 
L 2900 3500 
L 3475 3500 
L 3475 0 
L 2900 0 
L 2900 538 
Q 2691 219 2414 64 
Q 2138 -91 1772 -91 
Q 1169 -91 856 284 
Q 544 659 544 1381 
z
M 1991 3584 
L 1991 3584 
z
" transform="scale(0.015625)"/>
       <path id="DejaVuSans-2c" d="M 750 794 
L 1409 794 
L 1409 256 
L 897 -744 
L 494 -744 
L 750 256 
L 750 794 
z
" transform="scale(0.015625)"/>
       <path id="DejaVuSans-70" d="M 1159 525 
L 1159 -1331 
L 581 -1331 
L 581 3500 
L 1159 3500 
L 1159 2969 
Q 1341 3281 1617 3432 
Q 1894 3584 2278 3584 
Q 2916 3584 3314 3078 
Q 3713 2572 3713 1747 
Q 3713 922 3314 415 
Q 2916 -91 2278 -91 
Q 1894 -91 1617 61 
Q 1341 213 1159 525 
z
M 3116 1747 
Q 3116 2381 2855 2742 
Q 2594 3103 2138 3103 
Q 1681 3103 1420 2742 
Q 1159 2381 1159 1747 
Q 1159 1113 1420 752 
Q 1681 391 2138 391 
Q 2594 391 2855 752 
Q 3116 1113 3116 1747 
z
" transform="scale(0.015625)"/>
      </defs>
      <use xlink:href="#DejaVuSans-46"/>
      <use xlink:href="#DejaVuSans-72" x="50.269531"/>
      <use xlink:href="#DejaVuSans-61" x="91.382812"/>
      <use xlink:href="#DejaVuSans-63" x="152.662109"/>
      <use xlink:href="#DejaVuSans-74" x="207.642578"/>
      <use xlink:href="#DejaVuSans-69" x="246.851562"/>
      <use xlink:href="#DejaVuSans-6f" x="274.634766"/>
      <use xlink:href="#DejaVuSans-6e" x="335.816406"/>
      <use xlink:href="#DejaVuSans-20" x="399.195312"/>
      <use xlink:href="#DejaVuSans-6f" x="430.982422"/>
      <use xlink:href="#DejaVuSans-66" x="492.164062"/>
      <use xlink:href="#DejaVuSans-20" x="527.369141"/>
      <use xlink:href="#DejaVuSans-66" x="559.15625"/>
      <use xlink:href="#DejaVuSans-75" x="594.361328"/>
      <use xlink:href="#DejaVuSans-6e" x="657.740234"/>
      <use xlink:href="#DejaVuSans-63" x="721.119141"/>
      <use xlink:href="#DejaVuSans-74" x="776.099609"/>
      <use xlink:href="#DejaVuSans-69" x="815.308594"/>
      <use xlink:href="#DejaVuSans-6f" x="843.091797"/>
      <use xlink:href="#DejaVuSans-6e" x="904.273438"/>
      <use xlink:href="#DejaVuSans-2c" x="967.652344"/>
      <use xlink:href="#DejaVuSans-74" x="999.439453"/>
      <use xlink:href="#DejaVuSans-61" x="1038.648438"/>
      <use xlink:href="#DejaVuSans-72" x="1099.927734"/>
      <use xlink:href="#DejaVuSans-67" x="1139.291016"/>
      <use xlink:href="#DejaVuSans-65" x="1202.767578"/>
      <use xlink:href="#DejaVuSans-74" x="1264.291016"/>
      <use xlink:href="#DejaVuSans-20" x="1303.5"/>
      <use xlink:href="#DejaVuSans-70" x="1335.287109"/>
      <use xlink:href="#DejaVuSans-61" x="1398.763672"/>
      <use xlink:href="#DejaVuSans-69" x="1460.042969"/>
      <use xlink:href="#DejaVuSans-72" x="1487.826172"/>
      <use xlink:href="#DejaVuSans-73" x="1528.939453"/>
     </g>
    </g>
   </g>
   <g id="line2d_29">
    <defs>
     <path id="mbbffc77ccf" d="M 0 1.5 
C 0.397805 1.5 0.77937 1.341951 1.06066 1.06066 
C 1.341951 0.77937 1.5 0.397805 1.5 0 
C 1.5 -0.397805 1.341951 -0.77937 1.06066 -1.06066 
C 0.77937 -1.341951 0.397805 -1.5 0 -1.5 
C -0.397805 -1.5 -0.77937 -1.341951 -1.06066 -1.06066 
C -1.341951 -0.77937 -1.5 -0.397805 -1.5 0 
C -1.5 0.397805 -1.341951 0.77937 -1.06066 1.06066 
C -0.77937 1.341951 -0.397805 1.5 0 1.5 
z
" style="stroke: #00bfbf"/>
    </defs>
    <g>
     <use xlink:href="#mbbffc77ccf" x="169.928705" y="27.648" style="fill: #00bfbf; stroke: #00bfbf"/>
     <use xlink:href="#mbbffc77ccf" x="169.928705" y="27.648" style="fill: #00bfbf; stroke: #00bfbf"/>
    </g>
   </g>
   <g id="line2d_30">
    <path d="M 99.950294 298.944 
L 99.950294 294.688376 
L 111.97238 294.688376 
L 111.97238 293.624471 
L 112.989468 293.624471 
L 112.989468 288.304941 
L 120.28394 288.304941 
L 120.28394 286.177129 
L 122.499621 286.177129 
L 122.499621 284.049318 
L 124.481616 284.049318 
L 124.481616 279.793694 
L 125.779479 279.793694 
L 125.779479 276.601976 
L 126.028642 276.601976 
L 126.028642 269.154635 
L 126.993549 269.154635 
L 126.993549 261.707294 
L 128.354013 261.707294 
L 128.354013 246.812612 
L 129.209231 246.812612 
L 129.209231 245.748706 
L 133.154399 245.748706 
L 133.154399 243.620894 
L 133.983236 243.620894 
L 133.983236 240.429176 
L 134.620977 240.429176 
L 134.620977 238.301365 
L 134.931919 238.301365 
L 134.931919 231.917929 
L 135.085483 231.917929 
L 135.085483 229.790118 
L 136.696795 229.790118 
L 136.696795 228.726212 
L 137.113304 228.726212 
L 137.113304 227.662306 
L 137.520791 227.662306 
L 137.520791 223.406682 
L 137.919637 223.406682 
L 137.919637 222.342776 
L 138.050729 222.342776 
L 138.050729 221.278871 
L 138.310202 221.278871 
L 138.310202 220.214965 
L 138.818654 220.214965 
L 138.818654 219.151059 
L 139.556456 219.151059 
L 139.556456 218.087153 
L 140.382174 218.087153 
L 140.382174 211.703718 
L 140.611586 211.703718 
L 140.611586 210.639812 
L 140.950542 210.639812 
L 140.950542 207.448094 
L 142.038218 207.448094 
L 142.038218 206.384188 
L 142.352625 206.384188 
L 142.352625 205.320282 
L 143.066428 205.320282 
L 143.066428 204.256376 
L 143.265494 204.256376 
L 143.265494 203.192471 
L 144.877544 203.192471 
L 144.877544 202.128565 
L 145.503164 202.128565 
L 145.590864 200.000753 
L 145.851536 200.000753 
L 145.851536 196.809035 
L 146.108646 196.809035 
L 146.108646 193.617318 
L 146.362288 193.617318 
L 146.446082 189.361694 
L 146.941151 189.361694 
L 147.022411 184.042165 
L 147.103321 184.042165 
L 147.183884 180.850447 
L 147.264104 180.850447 
L 147.264104 178.722635 
L 147.423525 178.722635 
L 147.423525 177.658729 
L 147.816265 177.658729 
L 147.816265 172.3392 
L 148.352679 172.3392 
L 148.428077 167.019671 
L 148.726679 167.019671 
L 148.726679 163.827953 
L 149.453084 163.827953 
L 149.524205 160.636235 
L 150.014665 160.636235 
L 150.014665 158.508424 
L 150.221009 158.508424 
L 150.221009 154.2528 
L 150.892922 154.2528 
L 150.892922 148.933271 
L 151.920429 148.933271 
L 151.920429 147.869365 
L 152.045009 147.869365 
L 152.045009 146.805459 
L 152.352898 146.805459 
L 152.352898 145.741553 
L 152.775647 145.741553 
L 152.775647 144.677647 
L 152.953957 144.677647 
L 152.953957 142.549835 
L 153.071898 142.549835 
L 153.071898 141.485929 
L 153.305585 141.485929 
L 153.305585 140.422024 
L 153.421349 140.422024 
L 153.478964 130.846871 
L 153.593669 130.846871 
L 153.593669 129.782965 
L 153.877408 129.782965 
L 153.877408 128.719059 
L 153.989717 128.719059 
L 153.989717 125.527341 
L 154.212341 125.527341 
L 154.267588 118.08 
L 154.541415 118.08 
L 154.541415 114.888282 
L 154.811312 114.888282 
L 154.811312 113.824376 
L 155.391799 113.824376 
L 155.391799 110.632659 
L 156.055505 110.632659 
L 156.155566 107.440941 
L 156.550574 107.440941 
L 156.550574 104.249224 
L 156.793307 104.249224 
L 156.88953 101.057506 
L 157.080512 101.057506 
L 157.175281 94.674071 
L 157.456756 94.674071 
L 157.456756 88.290635 
L 158.890711 88.290635 
L 158.890711 85.098918 
L 159.14782 85.098918 
L 159.14782 84.035012 
L 159.568678 84.035012 
L 159.568678 79.779388 
L 159.857774 79.779388 
L 159.857774 78.715482 
L 160.18282 78.715482 
L 160.18282 76.587671 
L 160.343261 76.587671 
L 160.383158 74.459859 
L 160.502345 74.459859 
L 160.502345 73.395953 
L 161.087207 73.395953 
L 161.087207 72.332047 
L 161.316153 72.332047 
L 161.354042 64.884706 
L 161.579783 64.884706 
L 161.654432 60.629082 
L 162.132562 60.629082 
L 162.241195 58.501271 
L 162.349204 58.501271 
L 162.456597 53.181741 
L 162.775144 53.181741 
L 162.775144 48.926118 
L 163.260183 48.926118 
L 163.328465 41.478776 
L 163.73303 41.478776 
L 163.73303 39.350965 
L 163.932096 39.350965 
L 164.030845 36.159247 
L 165.993131 36.159247 
L 165.993131 35.095341 
L 166.972821 35.095341 
L 166.972821 34.031435 
L 167.361848 34.031435 
L 167.361848 32.967529 
L 167.823671 32.967529 
L 167.823671 31.903624 
L 168.714635 31.903624 
L 168.714635 30.839718 
L 169.294273 30.839718 
L 169.368578 28.711906 
L 169.928705 28.711906 
L 169.928705 27.648 
L 360.8064 27.648 
L 360.8064 27.648 
" style="fill: none; stroke: #00bfbf; stroke-width: 1.5; stroke-linecap: square"/>
   </g>
   <g id="line2d_31">
    <defs>
     <path id="m308f67b887" d="M -6 0 
L 6 0 
M 0 6 
L 0 -6 
" style="stroke: #00bfbf; stroke-width: 1.5"/>
    </defs>
    <g>
     <use xlink:href="#m308f67b887" x="145.503164" y="202.128565" style="fill-opacity: 0; stroke: #00bfbf; stroke-width: 1.5"/>
     <use xlink:href="#m308f67b887" x="158.890711" y="88.290635" style="fill-opacity: 0; stroke: #00bfbf; stroke-width: 1.5"/>
     <use xlink:href="#m308f67b887" x="169.928705" y="28.711906" style="fill-opacity: 0; stroke: #00bfbf; stroke-width: 1.5"/>
     <use xlink:href="#m308f67b887" x="169.928705" y="27.648" style="fill-opacity: 0; stroke: #00bfbf; stroke-width: 1.5"/>
     <use xlink:href="#m308f67b887" x="360.8064" y="27.648" style="fill-opacity: 0; stroke: #00bfbf; stroke-width: 1.5"/>
    </g>
   </g>
   <g id="line2d_32">
    <path style="fill: none; stroke: #00bfbf; stroke-width: 1.5; stroke-linecap: square"/>
    <g/>
   </g>
   <g id="line2d_33">
    <defs>
     <path id="mda3f50d939" d="M 0 1.5 
C 0.397805 1.5 0.77937 1.341951 1.06066 1.06066 
C 1.341951 0.77937 1.5 0.397805 1.5 0 
C 1.5 -0.397805 1.341951 -0.77937 1.06066 -1.06066 
C 0.77937 -1.341951 0.397805 -1.5 0 -1.5 
C -0.397805 -1.5 -0.77937 -1.341951 -1.06066 -1.06066 
C -1.341951 -0.77937 -1.5 -0.397805 -1.5 0 
C -1.5 0.397805 -1.341951 0.77937 -1.06066 1.06066 
C -0.77937 1.341951 -0.397805 1.5 0 1.5 
z
" style="stroke: #008000"/>
    </defs>
    <g>
     <use xlink:href="#mda3f50d939" x="233.750937" y="27.648" style="fill: #008000; stroke: #008000"/>
     <use xlink:href="#mda3f50d939" x="233.750937" y="27.648" style="fill: #008000; stroke: #008000"/>
    </g>
   </g>
   <g id="line2d_34">
    <path d="M 123.183753 298.944 
L 123.183753 296.816188 
L 125.695686 296.816188 
L 125.695686 295.752282 
L 130.811181 295.752282 
L 130.811181 294.688376 
L 132.04923 294.688376 
L 132.04923 292.560565 
L 132.168669 292.560565 
L 132.168669 290.432753 
L 132.405295 290.432753 
L 132.405295 288.304941 
L 132.754746 288.304941 
L 132.754746 279.793694 
L 133.983236 279.793694 
L 133.983236 274.474165 
L 134.304809 274.474165 
L 134.304809 273.410259 
L 135.736814 273.410259 
L 135.736814 271.282447 
L 135.932769 271.282447 
L 135.932769 270.218541 
L 136.413909 270.218541 
L 136.413909 269.154635 
L 137.340774 269.154635 
L 137.340774 268.090729 
L 138.310202 268.090729 
L 138.310202 267.026824 
L 139.313723 267.026824 
L 139.313723 265.962918 
L 139.475893 265.962918 
L 139.556456 263.835106 
L 140.188837 263.835106 
L 140.188837 261.707294 
L 140.343665 261.707294 
L 140.343665 259.579482 
L 140.875745 259.579482 
L 140.875745 257.451671 
L 141.538451 257.451671 
L 141.538451 256.387765 
L 141.682602 256.387765 
L 141.682602 253.196047 
L 143.977892 253.196047 
L 143.977892 252.132141 
L 145.851536 252.132141 
L 145.851536 251.068235 
L 146.362288 251.068235 
L 146.362288 250.004329 
L 147.555352 250.004329 
L 147.660152 245.748706 
L 150.515122 245.748706 
L 150.515122 244.6848 
L 150.738275 244.6848 
L 150.738275 243.620894 
L 152.1482 243.620894 
L 152.230346 241.493082 
L 154.027004 241.493082 
L 154.027004 240.429176 
L 154.935952 240.429176 
L 154.935952 239.365271 
L 156.953406 239.365271 
L 156.953406 238.301365 
L 157.61133 238.301365 
L 157.61133 237.237459 
L 158.067574 237.237459 
L 158.067574 236.173553 
L 158.630038 236.173553 
L 158.630038 235.109647 
L 159.373449 235.109647 
L 159.373449 234.045741 
L 159.679334 234.045741 
L 159.679334 232.981835 
L 160.541906 232.981835 
L 160.541906 231.917929 
L 160.855439 231.917929 
L 160.933013 229.790118 
L 161.061595 229.790118 
L 161.061595 228.726212 
L 161.366654 228.726212 
L 161.467251 226.5984 
L 162.229155 226.5984 
L 162.229155 225.534494 
L 162.468491 225.534494 
L 162.515995 222.342776 
L 163.44172 222.342776 
L 163.44172 221.278871 
L 163.688506 221.278871 
L 163.688506 220.214965 
L 163.79962 220.214965 
L 163.79962 219.151059 
L 164.107292 219.151059 
L 164.150838 217.023247 
L 164.855153 217.023247 
L 164.855153 215.959341 
L 165.001222 215.959341 
L 165.001222 214.895435 
L 165.914091 214.895435 
L 165.914091 213.831529 
L 166.841337 213.831529 
L 166.841337 212.767624 
L 167.306762 212.767624 
L 167.306762 211.703718 
L 167.6168 211.703718 
L 167.6168 210.639812 
L 167.992864 210.639812 
L 167.992864 209.575906 
L 168.465585 209.575906 
L 168.465585 208.512 
L 168.689024 208.512 
L 168.689024 207.448094 
L 168.892945 207.448094 
L 168.943582 205.320282 
L 169.044448 205.320282 
L 169.044448 204.256376 
L 169.376816 204.256376 
L 169.376816 203.192471 
L 169.719596 203.192471 
L 169.719596 202.128565 
L 170.308749 202.128565 
L 170.308749 201.064659 
L 170.511445 201.064659 
L 170.511445 200.000753 
L 170.940741 200.000753 
L 170.940741 198.936847 
L 171.345629 198.936847 
L 171.434432 196.809035 
L 171.610792 196.809035 
L 171.610792 195.745129 
L 171.88669 195.745129 
L 171.929885 192.553412 
L 172.015979 192.553412 
L 172.015979 191.489506 
L 172.3986 191.489506 
L 172.3986 190.4256 
L 172.593974 190.4256 
L 172.593974 189.361694 
L 172.828518 189.361694 
L 172.828518 188.297788 
L 173.046626 188.297788 
L 173.046626 187.233882 
L 173.342453 187.233882 
L 173.342453 186.169976 
L 173.686173 186.169976 
L 173.686173 185.106071 
L 173.907565 185.106071 
L 174.010854 182.978259 
L 174.780325 182.978259 
L 174.854337 180.850447 
L 175.013706 180.850447 
L 175.013706 179.786541 
L 175.256283 179.786541 
L 175.316441 176.594824 
L 175.460042 176.594824 
L 175.460042 175.530918 
L 175.755734 175.530918 
L 175.755734 174.467012 
L 175.88438 174.467012 
L 175.88438 173.403106 
L 176.058402 173.403106 
L 176.093013 171.275294 
L 176.276542 171.275294 
L 176.356276 169.147482 
L 176.548521 169.147482 
L 176.548521 168.083576 
L 176.794427 168.083576 
L 176.816624 165.955765 
L 177.04812 165.955765 
L 177.124656 163.827953 
L 177.276801 163.827953 
L 177.298436 161.700141 
L 177.662473 161.700141 
L 177.736555 157.444518 
L 177.799823 157.444518 
L 177.799823 156.380612 
L 177.946625 156.380612 
L 178.019599 152.124988 
L 178.081923 152.124988 
L 178.175024 148.933271 
L 178.195651 148.933271 
L 178.277932 146.805459 
L 178.308695 146.805459 
L 178.318938 144.677647 
L 178.532766 144.677647 
L 178.633741 141.485929 
L 178.973057 141.485929 
L 178.973057 139.358118 
L 179.218706 139.358118 
L 179.218706 138.294212 
L 179.393608 138.294212 
L 179.441905 136.1664 
L 179.538128 136.1664 
L 179.547723 134.038588 
L 179.691068 134.038588 
L 179.767074 131.910776 
L 179.889933 131.910776 
L 179.889933 130.846871 
L 180.179707 130.846871 
L 180.253768 128.719059 
L 180.391852 128.719059 
L 180.391852 127.655153 
L 180.93427 127.655153 
L 181.005425 124.463435 
L 181.33106 124.463435 
L 181.435472 122.335624 
L 181.711104 122.335624 
L 181.711104 121.271718 
L 181.898286 121.271718 
L 181.957455 119.143906 
L 182.041661 119.143906 
L 182.041661 118.08 
L 182.29204 118.08 
L 182.374764 113.824376 
L 182.807233 113.824376 
L 182.911809 111.696565 
L 183.190504 111.696565 
L 183.269378 109.568753 
L 183.535105 109.568753 
L 183.573867 107.440941 
L 183.728124 107.440941 
L 183.789475 105.313129 
L 183.881127 105.313129 
L 183.881127 104.249224 
L 184.295578 104.249224 
L 184.347677 101.057506 
L 184.708387 101.057506 
L 184.788421 97.865788 
L 184.925864 97.865788 
L 184.997802 94.674071 
L 185.14798 94.674071 
L 185.190669 92.546259 
L 185.304035 92.546259 
L 185.304035 91.482353 
L 185.633149 91.482353 
L 185.674752 88.290635 
L 186.058675 88.290635 
L 186.139934 86.162824 
L 186.214115 86.162824 
L 186.308106 84.035012 
L 186.368281 84.035012 
L 186.388297 81.9072 
L 186.50132 81.9072 
L 186.50132 80.843294 
L 186.640005 80.843294 
L 186.725348 78.715482 
L 186.777675 78.715482 
L 186.868898 76.587671 
L 187.030705 76.587671 
L 187.082191 74.459859 
L 187.14635 74.459859 
L 187.14635 73.395953 
L 187.267654 73.395953 
L 187.267654 72.332047 
L 187.426081 72.332047 
L 187.470203 70.204235 
L 194.080076 70.204235 
L 194.080076 69.140329 
L 194.225715 69.140329 
L 194.225715 68.608376 
L 194.517981 68.608376 
L 194.517981 68.076424 
L 195.030357 68.076424 
L 195.030357 67.544471 
L 195.446927 67.544471 
L 195.446927 67.012518 
L 195.619173 67.012518 
L 195.619173 66.480565 
L 195.73719 66.480565 
L 195.73719 65.948612 
L 195.987048 65.948612 
L 195.987048 64.352753 
L 196.170304 64.352753 
L 196.170304 63.8208 
L 196.434068 63.8208 
L 196.504304 62.224941 
L 196.547098 62.224941 
L 196.632393 59.033224 
L 196.801833 59.033224 
L 196.89743 56.905412 
L 196.965961 56.905412 
L 196.984953 54.7776 
L 199.249924 54.7776 
L 199.350628 53.713694 
L 199.513962 53.713694 
L 199.513962 53.181741 
L 199.685758 53.181741 
L 199.685758 52.649788 
L 199.992386 52.649788 
L 200.085984 51.585882 
L 200.19513 51.585882 
L 200.265418 50.521976 
L 200.562815 50.521976 
L 200.562815 49.458071 
L 204.709572 49.458071 
L 204.709572 48.926118 
L 205.28729 48.926118 
L 205.360402 47.862212 
L 205.513017 47.862212 
L 205.604476 46.798306 
L 205.683541 46.798306 
L 205.683541 45.7344 
L 205.890407 45.7344 
L 205.925845 43.606588 
L 206.139415 43.606588 
L 206.139415 43.074635 
L 208.080059 43.074635 
L 208.141002 42.010729 
L 211.622784 42.010729 
L 211.711498 40.414871 
L 211.768678 40.414871 
L 211.84465 38.287059 
L 211.887679 38.287059 
L 211.927179 37.223153 
L 213.628651 37.223153 
L 213.628651 36.6912 
L 216.050251 36.6912 
L 216.050251 36.159247 
L 216.289857 36.159247 
L 216.31433 35.095341 
L 216.418662 35.095341 
L 216.418662 34.563388 
L 217.574201 34.563388 
L 217.574201 34.031435 
L 219.862596 34.031435 
L 219.862596 33.499482 
L 220.046223 33.499482 
L 220.148454 31.903624 
L 220.159533 31.903624 
L 220.159533 31.371671 
L 223.000555 31.371671 
L 223.015786 30.307765 
L 225.664359 30.307765 
L 225.774792 29.243859 
L 225.831405 29.243859 
L 225.831405 28.711906 
L 233.737488 28.711906 
L 233.750937 27.648 
L 360.8064 27.648 
L 360.8064 27.648 
" style="fill: none; stroke: #008000; stroke-width: 1.5; stroke-linecap: square"/>
   </g>
   <g id="line2d_35">
    <defs>
     <path id="m41505f0bd2" d="M -0 6 
L 6 -6 
L -6 -6 
z
" style="stroke: #008000; stroke-width: 1.5; stroke-linejoin: miter"/>
    </defs>
    <g>
     <use xlink:href="#m41505f0bd2" x="179.889933" y="131.910776" style="fill-opacity: 0; stroke: #008000; stroke-width: 1.5; stroke-linejoin: miter"/>
     <use xlink:href="#m41505f0bd2" x="225.831405" y="28.711906" style="fill-opacity: 0; stroke: #008000; stroke-width: 1.5; stroke-linejoin: miter"/>
     <use xlink:href="#m41505f0bd2" x="233.750937" y="27.648" style="fill-opacity: 0; stroke: #008000; stroke-width: 1.5; stroke-linejoin: miter"/>
     <use xlink:href="#m41505f0bd2" x="233.750937" y="27.648" style="fill-opacity: 0; stroke: #008000; stroke-width: 1.5; stroke-linejoin: miter"/>
     <use xlink:href="#m41505f0bd2" x="360.8064" y="27.648" style="fill-opacity: 0; stroke: #008000; stroke-width: 1.5; stroke-linejoin: miter"/>
    </g>
   </g>
   <g id="line2d_36">
    <path style="fill: none; stroke: #008000; stroke-width: 1.5; stroke-linecap: square"/>
    <g/>
   </g>
   <g id="line2d_37">
    <path d="M 187.576926 70.204235 
" clip-path="url(#pec2301cbc9)" style="fill: none; stroke: #008000; stroke-width: 1.5; stroke-linecap: square"/>
    <defs>
     <path id="m5a87922787" d="M -12 12 
L 12 -12 
M -12 -12 
L 12 12 
" style="stroke: #008000"/>
    </defs>
    <g clip-path="url(#pec2301cbc9)">
     <use xlink:href="#m5a87922787" x="187.576926" y="70.204235" style="fill: #008000; stroke: #008000"/>
    </g>
   </g>
   <g id="line2d_38">
    <defs>
     <path id="m892ed6c3f9" d="M 0 1.5 
C 0.397805 1.5 0.77937 1.341951 1.06066 1.06066 
C 1.341951 0.77937 1.5 0.397805 1.5 0 
C 1.5 -0.397805 1.341951 -0.77937 1.06066 -1.06066 
C 0.77937 -1.341951 0.397805 -1.5 0 -1.5 
C -0.397805 -1.5 -0.77937 -1.341951 -1.06066 -1.06066 
C -1.341951 -0.77937 -1.5 -0.397805 -1.5 0 
C -1.5 0.397805 -1.341951 0.77937 -1.06066 1.06066 
C -0.77937 1.341951 -0.397805 1.5 0 1.5 
z
" style="stroke: #0000ff"/>
    </defs>
    <g>
     <use xlink:href="#m892ed6c3f9" x="213.160219" y="27.648" style="fill: #0000ff; stroke: #0000ff"/>
     <use xlink:href="#m892ed6c3f9" x="213.160219" y="27.648" style="fill: #0000ff; stroke: #0000ff"/>
    </g>
   </g>
   <g id="line2d_39">
    <path d="M 132.638982 298.944 
L 132.638982 297.880094 
L 132.915628 297.880094 
L 132.915628 293.624471 
L 133.853052 293.624471 
L 133.853052 292.560565 
L 134.620977 292.560565 
L 134.620977 291.496659 
L 134.993495 291.496659 
L 134.993495 289.368847 
L 135.835047 289.368847 
L 135.835047 288.304941 
L 136.299553 288.304941 
L 136.299553 285.113224 
L 136.413909 285.113224 
L 136.413909 284.049318 
L 137.412988 284.049318 
L 137.520791 281.921506 
L 137.574461 281.921506 
L 137.574461 279.793694 
L 137.734561 279.793694 
L 137.840541 276.601976 
L 137.945929 276.601976 
L 137.945929 274.474165 
L 138.154948 274.474165 
L 138.258593 272.346353 
L 138.515235 272.346353 
L 138.616919 268.090729 
L 138.918715 268.090729 
L 138.918715 267.026824 
L 139.117256 267.026824 
L 139.117256 265.962918 
L 139.604629 265.962918 
L 139.700607 260.643388 
L 140.26641 260.643388 
L 140.26641 259.579482 
L 140.815692 259.579482 
L 140.860749 256.387765 
L 141.868361 256.387765 
L 141.868361 255.323859 
L 142.248405 255.323859 
L 142.331827 253.196047 
L 142.824734 253.196047 
L 142.824734 252.132141 
L 142.945969 252.132141 
L 143.02636 250.004329 
L 143.225848 250.004329 
L 143.225848 248.940424 
L 144.565997 248.940424 
L 144.565997 247.876518 
L 144.749884 247.876518 
L 144.749884 244.6848 
L 145.920443 244.6848 
L 145.920443 243.620894 
L 146.395851 243.620894 
L 146.395851 242.556988 
L 146.562769 242.556988 
L 146.562769 239.365271 
L 147.722752 239.365271 
L 147.722752 238.301365 
L 147.847333 238.301365 
L 147.847333 237.237459 
L 148.785835 237.237459 
L 148.785835 236.173553 
L 149.65155 236.173553 
L 149.65155 235.109647 
L 149.903682 235.109647 
L 149.903682 232.981835 
L 150.262008 232.981835 
L 150.262008 231.917929 
L 154.950144 231.917929 
L 154.971412 229.790118 
L 155.924624 229.790118 
L 155.924624 228.726212 
L 156.540799 228.726212 
L 156.540799 227.662306 
L 156.947029 227.662306 
L 156.947029 226.5984 
L 157.288377 226.5984 
L 157.288377 225.534494 
L 158.07959 225.534494 
L 158.07959 224.470588 
L 158.665004 224.470588 
L 158.752135 222.342776 
L 158.838864 222.342776 
L 158.907961 220.214965 
L 159.334159 220.214965 
L 159.334159 218.087153 
L 159.552023 218.087153 
L 159.552023 217.023247 
L 160.383158 217.023247 
L 160.383158 215.959341 
L 160.808741 215.959341 
L 160.808741 213.831529 
L 160.979404 213.831529 
L 161.056469 208.512 
L 161.117894 208.512 
L 161.117894 207.448094 
L 161.497325 207.448094 
L 161.497325 206.384188 
L 161.957434 206.384188 
L 161.957434 205.320282 
L 162.132562 205.320282 
L 162.132562 203.192471 
L 162.831214 203.192471 
L 162.873158 201.064659 
L 163.314829 201.064659 
L 163.382912 196.809035 
L 163.692963 196.809035 
L 163.692963 194.681224 
L 163.879217 194.681224 
L 163.945293 191.489506 
L 164.024277 191.489506 
L 164.024277 190.4256 
L 164.168227 190.4256 
L 164.181259 188.297788 
L 164.388551 188.297788 
L 164.388551 186.169976 
L 164.909539 186.169976 
L 164.909539 184.042165 
L 165.021997 184.042165 
L 165.021997 182.978259 
L 165.146166 182.978259 
L 165.146166 181.914353 
L 165.379853 181.914353 
L 165.379853 178.722635 
L 165.598594 178.722635 
L 165.682978 175.530918 
L 166.052194 175.530918 
L 166.111072 173.403106 
L 166.239959 173.403106 
L 166.344759 171.275294 
L 166.735484 171.275294 
L 166.8036 167.019671 
L 167.084795 167.019671 
L 167.084795 164.891859 
L 167.251516 164.891859 
L 167.251516 162.764047 
L 167.656552 162.764047 
L 167.656552 161.700141 
L 167.882616 161.700141 
L 167.882616 160.636235 
L 168.010586 160.636235 
L 168.010586 159.572329 
L 168.158793 159.572329 
L 168.158793 158.508424 
L 168.295375 158.508424 
L 168.378936 156.380612 
L 168.801454 156.380612 
L 168.842171 153.188894 
L 169.064557 153.188894 
L 169.134768 149.997176 
L 169.224656 149.997176 
L 169.224656 148.933271 
L 169.764832 148.933271 
L 169.764832 147.869365 
L 169.899889 147.869365 
L 169.9383 144.677647 
L 170.176605 144.677647 
L 170.261661 142.549835 
L 170.411929 142.549835 
L 170.411929 141.485929 
L 170.653583 141.485929 
L 170.653583 140.422024 
L 170.864796 140.422024 
L 170.864796 139.358118 
L 171.010341 139.358118 
L 171.100737 137.230306 
L 171.145773 137.230306 
L 171.145773 136.1664 
L 171.71291 136.1664 
L 171.71291 135.102494 
L 171.938512 135.102494 
L 171.938512 134.038588 
L 172.348032 134.038588 
L 172.348032 132.974682 
L 172.53279 132.974682 
L 172.549496 130.846871 
L 173.350456 130.846871 
L 173.406384 128.719059 
L 173.485993 128.719059 
L 173.485993 127.655153 
L 173.894614 127.655153 
L 173.894614 126.591247 
L 174.103333 126.591247 
L 174.103333 125.527341 
L 174.324962 125.527341 
L 174.324962 124.463435 
L 174.723384 124.463435 
L 174.723384 123.399529 
L 174.937868 123.399529 
L 174.937868 122.335624 
L 175.229752 122.335624 
L 175.229752 121.271718 
L 175.595454 121.271718 
L 175.666334 119.143906 
L 175.88438 119.143906 
L 175.88438 118.08 
L 176.099928 118.08 
L 176.099928 117.016094 
L 176.33353 117.016094 
L 176.442464 114.888282 
L 176.732137 114.888282 
L 176.732137 113.824376 
L 176.905149 113.824376 
L 177.004244 111.696565 
L 177.213919 111.696565 
L 177.239965 109.568753 
L 177.530521 109.568753 
L 177.556133 107.440941 
L 177.873367 107.440941 
L 177.954979 105.313129 
L 178.073625 105.313129 
L 178.117149 103.185318 
L 178.437353 103.185318 
L 178.437353 102.121412 
L 178.60754 102.121412 
L 178.60754 101.057506 
L 178.722153 101.057506 
L 178.722153 99.9936 
L 178.853996 99.9936 
L 178.853996 98.929694 
L 179.114942 98.929694 
L 179.191352 95.737976 
L 179.401344 95.737976 
L 179.499697 93.610165 
L 179.614753 93.610165 
L 179.614753 91.482353 
L 179.797391 91.482353 
L 179.797391 90.418447 
L 180.559863 90.418447 
L 180.614326 88.290635 
L 181.081618 88.290635 
L 181.081618 87.226729 
L 181.22431 87.226729 
L 181.22431 86.162824 
L 181.6563 86.162824 
L 181.6563 85.098918 
L 181.876261 85.098918 
L 181.916902 82.971106 
L 182.288723 82.971106 
L 182.288723 81.9072 
L 182.422579 81.9072 
L 182.422579 80.843294 
L 182.736112 80.843294 
L 182.784633 78.715482 
L 182.862007 78.715482 
L 182.900575 76.587671 
L 183.020593 76.587671 
L 183.063612 74.459859 
L 183.404274 74.459859 
L 183.404274 73.395953 
L 183.52579 73.395953 
L 183.52579 72.332047 
L 183.692757 72.332047 
L 183.692757 71.268141 
L 184.031383 71.268141 
L 184.031383 70.204235 
L 184.247818 70.204235 
L 184.310478 68.076424 
L 184.598699 68.076424 
L 184.629476 65.948612 
L 184.943154 65.948612 
L 184.943154 64.884706 
L 185.157949 64.884706 
L 185.16649 62.756894 
L 185.336501 62.756894 
L 185.336501 61.692988 
L 185.492405 61.692988 
L 185.492405 60.629082 
L 185.634537 60.629082 
L 185.663667 58.501271 
L 185.77147 58.501271 
L 185.77147 57.437365 
L 185.940221 57.437365 
L 186.04238 55.309553 
L 186.184478 55.309553 
L 186.285323 53.181741 
L 186.313462 53.181741 
L 186.313462 52.117835 
L 186.883193 52.117835 
L 186.883193 51.053929 
L 187.19241 51.053929 
L 187.19241 49.990024 
L 191.77936 49.990024 
L 191.77936 48.926118 
L 191.908094 48.926118 
L 191.908094 48.394165 
L 192.053725 48.394165 
L 192.062605 47.330259 
L 192.28032 47.330259 
L 192.29494 46.266353 
L 192.622357 46.266353 
L 192.694031 45.202447 
L 192.828044 45.202447 
L 192.828044 44.670494 
L 193.037126 44.670494 
L 193.079226 43.606588 
L 193.495121 43.606588 
L 193.574477 42.010729 
L 193.864413 42.010729 
L 193.864413 41.478776 
L 194.062346 41.478776 
L 194.062346 40.946824 
L 195.342818 40.946824 
L 195.342818 40.414871 
L 195.74368 40.414871 
L 195.74368 39.882918 
L 196.152853 39.882918 
L 196.259689 38.287059 
L 196.478581 38.287059 
L 196.478581 37.755106 
L 196.70883 37.755106 
L 196.70883 37.223153 
L 197.011509 37.223153 
L 197.011509 36.6912 
L 197.129422 36.6912 
L 197.129422 36.159247 
L 198.160781 36.159247 
L 198.160781 35.627294 
L 198.49798 35.627294 
L 198.49798 35.095341 
L 198.702841 35.095341 
L 198.702841 34.563388 
L 199.203418 34.563388 
L 199.203418 34.031435 
L 199.532538 34.031435 
L 199.532538 33.499482 
L 203.310178 33.499482 
L 203.35082 31.903624 
L 205.049922 31.903624 
L 205.049922 31.371671 
L 205.215364 31.371671 
L 205.215364 30.839718 
L 205.845897 30.839718 
L 205.845897 30.307765 
L 206.186961 30.307765 
L 206.186961 29.775812 
L 207.622403 29.775812 
L 207.622403 29.243859 
L 210.536815 29.243859 
L 210.536815 28.711906 
L 211.703513 28.711906 
L 211.703513 28.179953 
L 213.160219 28.179953 
L 213.160219 27.648 
L 360.8064 27.648 
L 360.8064 27.648 
" style="fill: none; stroke: #0000ff; stroke-width: 1.5; stroke-linecap: square"/>
   </g>
   <g id="line2d_40">
    <defs>
     <path id="m154f2aaccd" d="M 0 -6 
L -1.347084 -1.854102 
L -5.706339 -1.854102 
L -2.179628 0.708204 
L -3.526712 4.854102 
L -0 2.291796 
L 3.526712 4.854102 
L 2.179628 0.708204 
L 5.706339 -1.854102 
L 1.347084 -1.854102 
z
" style="stroke: #0000ff; stroke-width: 1.5; stroke-linejoin: bevel"/>
    </defs>
    <g>
     <use xlink:href="#m154f2aaccd" x="172.549496" y="131.910776" style="fill-opacity: 0; stroke: #0000ff; stroke-width: 1.5; stroke-linejoin: bevel"/>
     <use xlink:href="#m154f2aaccd" x="210.536815" y="29.243859" style="fill-opacity: 0; stroke: #0000ff; stroke-width: 1.5; stroke-linejoin: bevel"/>
     <use xlink:href="#m154f2aaccd" x="213.160219" y="27.648" style="fill-opacity: 0; stroke: #0000ff; stroke-width: 1.5; stroke-linejoin: bevel"/>
     <use xlink:href="#m154f2aaccd" x="213.160219" y="27.648" style="fill-opacity: 0; stroke: #0000ff; stroke-width: 1.5; stroke-linejoin: bevel"/>
     <use xlink:href="#m154f2aaccd" x="360.8064" y="27.648" style="fill-opacity: 0; stroke: #0000ff; stroke-width: 1.5; stroke-linejoin: bevel"/>
    </g>
   </g>
   <g id="line2d_41">
    <path style="fill: none; stroke: #0000ff; stroke-width: 1.5; stroke-linecap: square"/>
    <g/>
   </g>
   <g id="line2d_42">
    <path d="M 187.583186 49.990024 
" clip-path="url(#pec2301cbc9)" style="fill: none; stroke: #0000ff; stroke-width: 1.5; stroke-linecap: square"/>
    <defs>
     <path id="m9ad0b0d2b8" d="M -12 12 
L 12 -12 
M -12 -12 
L 12 12 
" style="stroke: #0000ff"/>
    </defs>
    <g clip-path="url(#pec2301cbc9)">
     <use xlink:href="#m9ad0b0d2b8" x="187.583186" y="49.990024" style="fill: #0000ff; stroke: #0000ff"/>
    </g>
   </g>
   <g id="line2d_43">
    <defs>
     <path id="m342296db87" d="M 0 1.5 
C 0.397805 1.5 0.77937 1.341951 1.06066 1.06066 
C 1.341951 0.77937 1.5 0.397805 1.5 0 
C 1.5 -0.397805 1.341951 -0.77937 1.06066 -1.06066 
C 0.77937 -1.341951 0.397805 -1.5 0 -1.5 
C -0.397805 -1.5 -0.77937 -1.341951 -1.06066 -1.06066 
C -1.341951 -0.77937 -1.5 -0.397805 -1.5 0 
C -1.5 0.397805 -1.341951 0.77937 -1.06066 1.06066 
C -0.77937 1.341951 -0.397805 1.5 0 1.5 
z
" style="stroke: #000000"/>
    </defs>
    <g>
     <use xlink:href="#m342296db87" x="222.595501" y="27.648" style="stroke: #000000"/>
     <use xlink:href="#m342296db87" x="222.595501" y="27.648" style="stroke: #000000"/>
    </g>
   </g>
   <g id="line2d_44">
    <path d="M 135.687504 298.944 
L 135.687504 295.752282 
L 135.893741 295.752282 
L 135.893741 294.688376 
L 136.752866 294.688376 
L 136.780838 292.560565 
L 137.304564 292.560565 
L 137.304564 290.432753 
L 137.493898 290.432753 
L 137.601239 288.304941 
L 137.734561 288.304941 
L 137.734561 287.241035 
L 137.945929 287.241035 
L 137.972183 285.113224 
L 138.128947 285.113224 
L 138.154948 282.985412 
L 138.310202 282.985412 
L 138.36167 280.8576 
L 138.818654 280.8576 
L 138.818654 279.793694 
L 138.943648 279.793694 
L 138.943648 278.729788 
L 139.264798 278.729788 
L 139.362521 276.601976 
L 139.628669 276.601976 
L 139.628669 275.538071 
L 139.77227 275.538071 
L 139.867398 273.410259 
L 140.173284 273.410259 
L 140.196609 271.282447 
L 140.543056 271.282447 
L 140.58877 267.026824 
L 140.747902 267.026824 
L 140.815692 264.899012 
L 140.905699 264.899012 
L 140.905699 263.835106 
L 141.039908 263.835106 
L 141.039908 262.7712 
L 141.239443 262.7712 
L 141.239443 261.707294 
L 141.632274 261.707294 
L 141.632274 260.643388 
L 141.84702 260.643388 
L 141.84702 259.579482 
L 142.164612 259.579482 
L 142.164612 258.515576 
L 142.290162 258.515576 
L 142.290162 257.451671 
L 142.538777 257.451671 
L 142.538777 256.387765 
L 143.205995 256.387765 
L 143.205995 255.323859 
L 143.38393 255.323859 
L 143.38393 254.259953 
L 145.432709 254.259953 
L 145.432709 253.196047 
L 158.656269 253.196047 
L 158.656269 252.132141 
L 159.079601 252.132141 
L 159.079601 251.068235 
L 160.335271 251.068235 
L 160.335271 250.004329 
L 160.730652 250.004329 
L 160.730652 248.940424 
L 161.056469 248.940424 
L 161.056469 247.876518 
L 161.217285 247.876518 
L 161.217285 246.812612 
L 161.54984 246.812612 
L 161.54984 245.748706 
L 162.255632 245.748706 
L 162.306075 243.620894 
L 162.754075 243.620894 
L 162.838212 241.493082 
L 163.026155 241.493082 
L 163.026155 240.429176 
L 163.666204 240.429176 
L 163.666204 239.365271 
L 164.168227 239.365271 
L 164.168227 238.301365 
L 164.478528 238.301365 
L 164.478528 237.237459 
L 164.606324 237.237459 
L 164.606324 236.173553 
L 165.046896 236.173553 
L 165.046896 235.109647 
L 165.550204 235.109647 
L 165.550204 234.045741 
L 166.05809 234.045741 
L 166.093428 230.854024 
L 166.420087 230.854024 
L 166.420087 229.790118 
L 166.541136 229.790118 
L 166.541136 228.726212 
L 166.661411 228.726212 
L 166.661411 227.662306 
L 166.843221 227.662306 
L 166.843221 226.5984 
L 167.400311 226.5984 
L 167.400311 225.534494 
L 167.710623 225.534494 
L 167.726815 223.406682 
L 167.855845 223.406682 
L 167.855845 222.342776 
L 168.164064 222.342776 
L 168.164064 220.214965 
L 168.539786 220.214965 
L 168.539786 219.151059 
L 168.781062 219.151059 
L 168.862497 217.023247 
L 169.134768 217.023247 
L 169.134768 214.895435 
L 169.348792 214.895435 
L 169.348792 213.831529 
L 169.701795 213.831529 
L 169.701795 212.767624 
L 170.014887 212.767624 
L 170.014887 211.703718 
L 170.266375 211.703718 
L 170.313451 205.320282 
L 170.383845 205.320282 
L 170.383845 204.256376 
L 171.159263 204.256376 
L 171.177235 201.064659 
L 171.293632 201.064659 
L 171.307016 198.936847 
L 171.67796 198.936847 
L 171.782615 196.809035 
L 171.882365 196.809035 
L 171.981589 193.617318 
L 172.284629 193.617318 
L 172.284629 192.553412 
L 172.814802 192.553412 
L 172.864133 190.4256 
L 173.434285 190.4256 
L 173.434285 189.361694 
L 173.801101 189.361694 
L 173.840121 187.233882 
L 173.937319 187.233882 
L 173.937319 186.169976 
L 174.59276 186.169976 
L 174.671243 184.042165 
L 175.120826 184.042165 
L 175.193513 181.914353 
L 175.445731 181.914353 
L 175.51361 178.722635 
L 175.807298 178.722635 
L 175.891372 175.530918 
L 175.947214 175.530918 
L 175.947214 174.467012 
L 176.39148 174.467012 
L 176.39148 173.403106 
L 176.648389 173.403106 
L 176.648389 172.3392 
L 176.798869 172.3392 
L 176.798869 171.275294 
L 177.017418 171.275294 
L 177.017418 170.211388 
L 177.178047 170.211388 
L 177.178047 169.147482 
L 177.382575 169.147482 
L 177.45026 167.019671 
L 177.683669 167.019671 
L 177.683669 165.955765 
L 177.895374 165.955765 
L 177.895374 164.891859 
L 178.151275 164.891859 
L 178.151275 163.827953 
L 178.336339 163.827953 
L 178.440406 161.700141 
L 178.7762 161.700141 
L 178.7762 160.636235 
L 178.964153 160.636235 
L 178.964153 159.572329 
L 179.147307 159.572329 
L 179.182551 156.380612 
L 179.640544 156.380612 
L 179.640544 155.316706 
L 179.768971 155.316706 
L 179.768971 154.2528 
L 179.913468 154.2528 
L 179.913468 153.188894 
L 180.096038 153.188894 
L 180.096038 152.124988 
L 180.279621 152.124988 
L 180.35421 149.997176 
L 180.79833 149.997176 
L 180.81986 146.805459 
L 181.155741 146.805459 
L 181.247987 144.677647 
L 181.459752 144.677647 
L 181.459752 143.613741 
L 181.581544 143.613741 
L 181.615092 141.485929 
L 181.707684 141.485929 
L 181.707684 140.422024 
L 182.098706 140.422024 
L 182.14639 137.230306 
L 182.360727 137.230306 
L 182.360727 136.1664 
L 182.572649 136.1664 
L 182.643576 134.038588 
L 182.762814 134.038588 
L 182.762814 132.974682 
L 182.958279 132.974682 
L 183.039725 130.846871 
L 183.23708 130.846871 
L 183.31733 127.655153 
L 183.383162 127.655153 
L 183.383162 126.591247 
L 183.588576 126.591247 
L 183.588576 125.527341 
L 183.706604 125.527341 
L 183.741178 123.399529 
L 183.890268 123.399529 
L 183.990523 120.207812 
L 184.133147 120.207812 
L 184.238849 118.08 
L 184.323878 118.08 
L 184.392961 114.888282 
L 184.631672 114.888282 
L 184.736802 111.696565 
L 184.749902 111.696565 
L 184.749902 110.632659 
L 184.867393 110.632659 
L 184.867393 109.568753 
L 185.115186 109.568753 
L 185.219784 106.377035 
L 185.292022 106.377035 
L 185.378765 103.185318 
L 185.504989 103.185318 
L 185.504989 102.121412 
L 185.630372 102.121412 
L 185.734223 98.929694 
L 185.839564 98.929694 
L 185.899202 96.801882 
L 185.983196 96.801882 
L 186.00975 94.674071 
L 186.154118 94.674071 
L 186.222862 91.482353 
L 186.289345 91.482353 
L 186.305427 89.354541 
L 186.409624 89.354541 
L 186.517221 87.226729 
L 186.562864 87.226729 
L 186.665648 84.035012 
L 186.675502 84.035012 
L 186.752184 81.9072 
L 186.810958 81.9072 
L 186.810958 80.843294 
L 186.922125 80.843294 
L 186.966796 78.715482 
L 187.067403 78.715482 
L 187.177069 76.587671 
L 187.263199 76.587671 
L 187.263199 75.523765 
L 187.402086 75.523765 
L 187.455087 73.395953 
L 193.185459 73.395953 
L 193.223055 71.800094 
L 193.467679 71.800094 
L 193.563551 70.204235 
L 193.720003 70.204235 
L 193.807861 69.140329 
L 193.879196 69.140329 
L 193.879196 65.416659 
L 194.138025 65.416659 
L 194.177735 64.352753 
L 194.292419 64.352753 
L 194.38419 60.097129 
L 194.476816 60.097129 
L 194.476816 57.969318 
L 197.799986 57.969318 
L 197.904398 56.905412 
L 198.070692 56.905412 
L 198.091107 55.841506 
L 198.305732 55.841506 
L 198.305732 55.309553 
L 198.479053 55.309553 
L 198.479053 54.7776 
L 198.630976 54.7776 
L 198.630976 54.245647 
L 198.864315 54.245647 
L 198.903439 52.649788 
L 199.055047 52.649788 
L 199.086648 51.585882 
L 199.203418 51.585882 
L 199.250934 50.521976 
L 199.50367 50.521976 
L 199.50367 49.458071 
L 199.663381 49.458071 
L 199.712706 47.862212 
L 199.83154 47.862212 
L 199.917496 46.266353 
L 199.946709 46.266353 
L 200.036984 44.670494 
L 200.089203 44.670494 
L 200.161491 43.074635 
L 200.232543 43.074635 
L 200.309056 42.010729 
L 200.412806 42.010729 
L 200.412806 41.478776 
L 204.02628 41.478776 
L 204.02628 40.414871 
L 204.30464 40.414871 
L 204.30464 39.882918 
L 206.595211 39.882918 
L 206.595211 39.350965 
L 206.940523 39.350965 
L 206.940523 38.819012 
L 207.452114 38.819012 
L 207.532901 37.755106 
L 207.571867 37.755106 
L 207.676029 36.6912 
L 207.913881 36.6912 
L 207.913881 35.627294 
L 208.036437 35.627294 
L 208.036437 35.095341 
L 208.197147 35.095341 
L 208.197147 34.563388 
L 210.791111 34.563388 
L 210.791111 34.031435 
L 212.760253 34.031435 
L 212.813847 32.435576 
L 213.062596 32.435576 
L 213.062596 31.903624 
L 213.424908 31.903624 
L 213.460047 30.307765 
L 215.595171 30.307765 
L 215.595171 29.775812 
L 217.410459 29.775812 
L 217.410459 29.243859 
L 221.126494 29.243859 
L 221.140376 28.179953 
L 222.595501 28.179953 
L 222.595501 27.648 
L 360.8064 27.648 
L 360.8064 27.648 
" style="fill: none; stroke: #000000; stroke-width: 1.5; stroke-linecap: square"/>
   </g>
   <g id="line2d_45">
    <defs>
     <path id="ma04d93dcff" d="M 0 6 
C 1.591219 6 3.117479 5.367802 4.242641 4.242641 
C 5.367802 3.117479 6 1.591219 6 0 
C 6 -1.591219 5.367802 -3.117479 4.242641 -4.242641 
C 3.117479 -5.367802 1.591219 -6 0 -6 
C -1.591219 -6 -3.117479 -5.367802 -4.242641 -4.242641 
C -5.367802 -3.117479 -6 -1.591219 -6 0 
C -6 1.591219 -5.367802 3.117479 -4.242641 4.242641 
C -3.117479 5.367802 -1.591219 6 0 6 
z
" style="stroke: #000000; stroke-width: 1.5"/>
    </defs>
    <g>
     <use xlink:href="#ma04d93dcff" x="174.671243" y="185.106071" style="fill-opacity: 0; stroke: #000000; stroke-width: 1.5"/>
     <use xlink:href="#ma04d93dcff" x="222.595501" y="28.179953" style="fill-opacity: 0; stroke: #000000; stroke-width: 1.5"/>
     <use xlink:href="#ma04d93dcff" x="222.595501" y="27.648" style="fill-opacity: 0; stroke: #000000; stroke-width: 1.5"/>
     <use xlink:href="#ma04d93dcff" x="222.595501" y="27.648" style="fill-opacity: 0; stroke: #000000; stroke-width: 1.5"/>
     <use xlink:href="#ma04d93dcff" x="360.8064" y="27.648" style="fill-opacity: 0; stroke: #000000; stroke-width: 1.5"/>
    </g>
   </g>
   <g id="line2d_46">
    <path style="fill: none; stroke: #000000; stroke-width: 1.5; stroke-linecap: square"/>
    <g/>
   </g>
   <g id="line2d_47">
    <path d="M 187.56816 73.395953 
" clip-path="url(#pec2301cbc9)" style="fill: none; stroke: #000000; stroke-width: 1.5; stroke-linecap: square"/>
    <defs>
     <path id="m2d203a2304" d="M -12 12 
L 12 -12 
M -12 -12 
L 12 12 
" style="stroke: #000000"/>
    </defs>
    <g clip-path="url(#pec2301cbc9)">
     <use xlink:href="#m2d203a2304" x="187.56816" y="73.395953" style="stroke: #000000"/>
    </g>
   </g>
   <g id="line2d_48">
    <defs>
     <path id="m54ae6430b6" d="M 0 1.5 
C 0.397805 1.5 0.77937 1.341951 1.06066 1.06066 
C 1.341951 0.77937 1.5 0.397805 1.5 0 
C 1.5 -0.397805 1.341951 -0.77937 1.06066 -1.06066 
C 0.77937 -1.341951 0.397805 -1.5 0 -1.5 
C -0.397805 -1.5 -0.77937 -1.341951 -1.06066 -1.06066 
C -1.341951 -0.77937 -1.5 -0.397805 -1.5 0 
C -1.5 0.397805 -1.341951 0.77937 -1.06066 1.06066 
C -0.77937 1.341951 -0.397805 1.5 0 1.5 
z
" style="stroke: #ff0000"/>
    </defs>
    <g>
     <use xlink:href="#m54ae6430b6" x="213.395179" y="27.648" style="fill: #ff0000; stroke: #ff0000"/>
     <use xlink:href="#m54ae6430b6" x="213.395179" y="27.648" style="fill: #ff0000; stroke: #ff0000"/>
    </g>
   </g>
   <g id="line2d_49">
    <path d="M 137.222833 298.944 
L 137.222833 297.880094 
L 137.668018 297.880094 
L 137.668018 296.816188 
L 137.800869 296.816188 
L 137.800869 295.752282 
L 137.945929 295.752282 
L 138.024583 293.624471 
L 138.063788 293.624471 
L 138.167935 291.496659 
L 138.310202 291.496659 
L 138.323083 289.368847 
L 138.65491 289.368847 
L 138.743257 286.177129 
L 138.881255 286.177129 
L 138.918715 282.985412 
L 138.993414 282.985412 
L 139.067817 280.8576 
L 139.141927 280.8576 
L 139.141927 279.793694 
L 139.325934 279.793694 
L 139.325934 278.729788 
L 139.556456 278.729788 
L 139.652679 275.538071 
L 139.843661 275.538071 
L 139.867398 273.410259 
L 140.044477 273.410259 
L 140.14993 270.218541 
L 140.577352 270.218541 
L 140.577352 269.154635 
L 140.702573 269.154635 
L 140.702573 268.090729 
L 140.826966 268.090729 
L 140.826966 267.026824 
L 141.106655 267.026824 
L 141.162098 264.899012 
L 141.283499 264.899012 
L 141.360348 262.7712 
L 141.469591 262.7712 
L 141.55653 259.579482 
L 141.879022 259.579482 
L 141.974701 255.323859 
L 142.112051 255.323859 
L 142.164612 252.132141 
L 142.404519 252.132141 
L 142.404519 251.068235 
L 142.60042 251.068235 
L 142.651636 248.940424 
L 142.855116 248.940424 
L 142.855116 247.876518 
L 143.056419 247.876518 
L 143.056419 246.812612 
L 143.245681 246.812612 
L 143.25559 244.6848 
L 143.462475 244.6848 
L 143.462475 243.620894 
L 143.715505 243.620894 
L 143.744483 241.493082 
L 144.041338 241.493082 
L 144.136106 235.109647 
L 144.324223 235.109647 
L 144.324223 234.045741 
L 144.630562 234.045741 
L 144.676545 231.917929 
L 144.850261 231.917929 
L 144.850261 230.854024 
L 145.282109 230.854024 
L 145.282109 229.790118 
L 145.886021 229.790118 
L 145.886021 228.726212 
L 146.269683 228.726212 
L 146.269683 227.662306 
L 146.562769 227.662306 
L 146.562769 226.5984 
L 146.686993 226.5984 
L 146.761135 224.470588 
L 146.941151 224.470588 
L 146.941151 223.406682 
L 147.447322 223.406682 
L 147.447322 222.342776 
L 147.769567 222.342776 
L 147.769567 221.278871 
L 148.284563 221.278871 
L 148.284563 220.214965 
L 148.659905 220.214965 
L 148.659905 219.151059 
L 149.20202 219.151059 
L 149.20202 218.087153 
L 150.673833 218.087153 
L 150.673833 217.023247 
L 161.624608 217.023247 
L 161.624608 215.959341 
L 162.270058 215.959341 
L 162.270058 214.895435 
L 163.481198 214.895435 
L 163.481198 213.831529 
L 164.304614 213.831529 
L 164.304614 212.767624 
L 164.981465 212.767624 
L 164.981465 211.703718 
L 165.244914 211.703718 
L 165.244914 210.639812 
L 166.446091 210.639812 
L 166.446091 209.575906 
L 166.558365 209.575906 
L 166.667119 207.448094 
L 166.806433 207.448094 
L 166.846048 205.320282 
L 167.435958 205.320282 
L 167.435958 204.256376 
L 168.047747 204.256376 
L 168.068949 202.128565 
L 168.378936 202.128565 
L 168.378936 201.064659 
L 168.676205 201.064659 
L 168.676205 200.000753 
L 168.956219 200.000753 
L 168.956219 198.936847 
L 169.194741 198.936847 
L 169.194741 197.872941 
L 169.400686 197.872941 
L 169.400686 196.809035 
L 169.976632 196.809035 
L 170.064978 194.681224 
L 170.266375 194.681224 
L 170.266375 193.617318 
L 170.397892 193.617318 
L 170.442306 191.489506 
L 171.168251 191.489506 
L 171.275772 188.297788 
L 171.486778 188.297788 
L 171.486778 187.233882 
L 171.940669 187.233882 
L 171.998792 185.106071 
L 172.299442 185.106071 
L 172.299442 184.042165 
L 172.757085 184.042165 
L 172.81686 179.786541 
L 173.118995 179.786541 
L 173.118995 178.722635 
L 173.505842 178.722635 
L 173.505842 177.658729 
L 173.630416 177.658729 
L 173.630416 176.594824 
L 173.808912 176.594824 
L 173.808912 175.530918 
L 173.977992 175.530918 
L 173.977992 174.467012 
L 174.49137 174.467012 
L 174.559024 172.3392 
L 174.617088 172.3392 
L 174.671243 169.147482 
L 175.233372 169.147482 
L 175.318243 165.955765 
L 175.422453 165.955765 
L 175.422453 164.891859 
L 175.756321 164.891859 
L 175.861639 162.764047 
L 176.141363 162.764047 
L 176.211938 159.572329 
L 176.37786 159.572329 
L 176.37786 158.508424 
L 176.587858 158.508424 
L 176.587858 157.444518 
L 176.855405 157.444518 
L 176.855405 156.380612 
L 176.997654 156.380612 
L 177.051954 154.2528 
L 177.26435 154.2528 
L 177.26435 153.188894 
L 177.429336 153.188894 
L 177.429336 152.124988 
L 177.551333 152.124988 
L 177.623197 149.997176 
L 177.774014 149.997176 
L 177.882802 147.869365 
L 177.904798 147.869365 
L 177.904798 146.805459 
L 178.253286 146.805459 
L 178.31945 143.613741 
L 178.452611 143.613741 
L 178.452611 142.549835 
L 178.62266 142.549835 
L 178.687541 140.422024 
L 178.95079 140.422024 
L 178.962669 137.230306 
L 179.32724 137.230306 
L 179.407144 134.038588 
L 179.529968 134.038588 
L 179.577437 130.846871 
L 179.77608 130.846871 
L 179.875327 128.719059 
L 179.962796 128.719059 
L 179.974053 126.591247 
L 180.215848 126.591247 
L 180.243602 124.463435 
L 180.341799 124.463435 
L 180.344558 122.335624 
L 180.471022 122.335624 
L 180.471022 121.271718 
L 180.788903 121.271718 
L 180.788903 120.207812 
L 180.929814 120.207812 
L 180.929814 119.143906 
L 181.074985 119.143906 
L 181.142526 117.016094 
L 181.262442 117.016094 
L 181.262442 115.952188 
L 181.57896 115.952188 
L 181.665302 112.760471 
L 181.764044 112.760471 
L 181.764044 111.696565 
L 181.947325 111.696565 
L 181.947325 110.632659 
L 182.078592 110.632659 
L 182.147644 107.440941 
L 182.195205 107.440941 
L 182.195205 106.377035 
L 182.460825 106.377035 
L 182.460825 105.313129 
L 182.586121 105.313129 
L 182.646017 102.121412 
L 182.810056 102.121412 
L 182.810056 101.057506 
L 183.000244 101.057506 
L 183.079123 97.865788 
L 183.118439 97.865788 
L 183.118439 96.801882 
L 183.276067 96.801882 
L 183.373772 93.610165 
L 183.576965 93.610165 
L 183.639581 90.418447 
L 183.741178 90.418447 
L 183.741178 89.354541 
L 183.884555 89.354541 
L 183.97802 86.162824 
L 184.025714 86.162824 
L 184.025714 85.098918 
L 184.183823 85.098918 
L 184.282531 81.9072 
L 184.353994 81.9072 
L 184.353994 80.843294 
L 184.567871 80.843294 
L 184.678834 78.715482 
L 184.695258 78.715482 
L 184.704012 76.587671 
L 184.981999 76.587671 
L 184.981999 75.523765 
L 185.093768 75.523765 
L 185.182494 73.395953 
L 185.2485 73.395953 
L 185.293082 71.268141 
L 185.52385 71.268141 
L 185.618913 68.076424 
L 185.770436 68.076424 
L 185.866322 65.948612 
L 185.916646 65.948612 
L 185.916646 64.884706 
L 186.103411 64.884706 
L 186.153106 61.692988 
L 186.33153 61.692988 
L 186.393631 59.565176 
L 186.530131 59.565176 
L 186.595539 57.437365 
L 186.751203 57.437365 
L 186.805088 55.309553 
L 186.929901 55.309553 
L 186.929901 54.245647 
L 187.128087 54.245647 
L 187.227838 52.117835 
L 187.395451 52.117835 
L 187.461702 49.990024 
L 194.160538 49.990024 
L 194.160538 49.458071 
L 194.469657 49.458071 
L 194.469657 48.926118 
L 194.725679 48.926118 
L 194.725679 48.394165 
L 195.002325 48.394165 
L 195.002325 47.862212 
L 195.821384 47.862212 
L 195.821384 47.330259 
L 196.585916 47.330259 
L 196.650952 46.266353 
L 197.101711 46.266353 
L 197.180777 44.138541 
L 197.328976 44.138541 
L 197.328976 43.606588 
L 197.511489 43.606588 
L 197.511489 43.074635 
L 197.7076 43.074635 
L 197.7076 42.542682 
L 198.216869 42.542682 
L 198.216869 42.010729 
L 198.368799 42.010729 
L 198.368799 41.478776 
L 198.486942 41.478776 
L 198.486942 40.946824 
L 198.708038 40.946824 
L 198.708038 40.414871 
L 198.871528 40.414871 
L 198.910123 39.350965 
L 199.026969 39.350965 
L 199.059637 38.287059 
L 199.208985 38.287059 
L 199.208985 37.755106 
L 199.63867 37.755106 
L 199.63867 37.223153 
L 199.89458 37.223153 
L 199.990445 35.627294 
L 200.118634 35.627294 
L 200.19465 34.031435 
L 200.282312 34.031435 
L 200.282312 33.499482 
L 205.866153 33.499482 
L 205.866153 32.967529 
L 206.075598 32.967529 
L 206.075598 32.435576 
L 206.583249 32.435576 
L 206.583249 31.903624 
L 206.988766 31.903624 
L 206.988766 31.371671 
L 207.160961 31.371671 
L 207.160961 30.839718 
L 207.315817 30.839718 
L 207.315817 30.307765 
L 207.588727 30.307765 
L 207.588727 29.775812 
L 208.11066 29.775812 
L 208.11066 29.243859 
L 212.304743 29.243859 
L 212.408374 28.179953 
L 213.395179 28.179953 
L 213.395179 27.648 
L 360.8064 27.648 
L 360.8064 27.648 
" style="fill: none; stroke: #ff0000; stroke-width: 1.5; stroke-linecap: square"/>
   </g>
   <g id="line2d_50">
    <defs>
     <path id="mc7828bfb6e" d="M -6 6 
L 6 6 
L 6 -6 
L -6 -6 
z
" style="stroke: #ff0000; stroke-width: 1.5; stroke-linejoin: miter"/>
    </defs>
    <g>
     <use xlink:href="#mc7828bfb6e" x="181.764044" y="112.760471" style="fill-opacity: 0; stroke: #ff0000; stroke-width: 1.5; stroke-linejoin: miter"/>
     <use xlink:href="#mc7828bfb6e" x="213.395179" y="28.179953" style="fill-opacity: 0; stroke: #ff0000; stroke-width: 1.5; stroke-linejoin: miter"/>
     <use xlink:href="#mc7828bfb6e" x="213.395179" y="27.648" style="fill-opacity: 0; stroke: #ff0000; stroke-width: 1.5; stroke-linejoin: miter"/>
     <use xlink:href="#mc7828bfb6e" x="213.395179" y="27.648" style="fill-opacity: 0; stroke: #ff0000; stroke-width: 1.5; stroke-linejoin: miter"/>
     <use xlink:href="#mc7828bfb6e" x="360.8064" y="27.648" style="fill-opacity: 0; stroke: #ff0000; stroke-width: 1.5; stroke-linejoin: miter"/>
    </g>
   </g>
   <g id="line2d_51">
    <path style="fill: none; stroke: #ff0000; stroke-width: 1.5; stroke-linecap: square"/>
    <g/>
   </g>
   <g id="line2d_52">
    <path d="M 187.551243 49.990024 
" clip-path="url(#pec2301cbc9)" style="fill: none; stroke: #ff0000; stroke-width: 1.5; stroke-linecap: square"/>
    <defs>
     <path id="m86d3871084" d="M -12 12 
L 12 -12 
M -12 -12 
L 12 12 
" style="stroke: #ff0000"/>
    </defs>
    <g clip-path="url(#pec2301cbc9)">
     <use xlink:href="#m86d3871084" x="187.551243" y="49.990024" style="fill: #ff0000; stroke: #ff0000"/>
    </g>
   </g>
   <g id="line2d_53">
    <path d="M 360.8064 27.648 
L 380.514816 293.51808 
" style="fill: none; stroke: #008000; stroke-width: 1.5; stroke-linecap: square"/>
    <g>
     <use xlink:href="#m41505f0bd2" x="360.8064" y="27.648" style="fill-opacity: 0; stroke: #008000; stroke-width: 1.5; stroke-linejoin: miter"/>
     <use xlink:href="#m41505f0bd2" x="380.514816" y="293.51808" style="fill-opacity: 0; stroke: #008000; stroke-width: 1.5; stroke-linejoin: miter"/>
    </g>
   </g>
   <g id="line2d_54">
    <path d="M 360.8064 27.648 
L 380.514816 228.40704 
" style="fill: none; stroke: #000000; stroke-width: 1.5; stroke-linecap: square"/>
    <g>
     <use xlink:href="#ma04d93dcff" x="360.8064" y="27.648" style="fill-opacity: 0; stroke: #000000; stroke-width: 1.5"/>
     <use xlink:href="#ma04d93dcff" x="380.514816" y="228.40704" style="fill-opacity: 0; stroke: #000000; stroke-width: 1.5"/>
    </g>
   </g>
   <g id="line2d_55">
    <path d="M 360.8064 27.648 
L 380.514816 163.296 
" style="fill: none; stroke: #ff0000; stroke-width: 1.5; stroke-linecap: square"/>
    <g>
     <use xlink:href="#mc7828bfb6e" x="360.8064" y="27.648" style="fill-opacity: 0; stroke: #ff0000; stroke-width: 1.5; stroke-linejoin: miter"/>
     <use xlink:href="#mc7828bfb6e" x="380.514816" y="163.296" style="fill-opacity: 0; stroke: #ff0000; stroke-width: 1.5; stroke-linejoin: miter"/>
    </g>
   </g>
   <g id="line2d_56">
    <path d="M 360.8064 27.648 
L 380.514816 98.18496 
" style="fill: none; stroke: #0000ff; stroke-width: 1.5; stroke-linecap: square"/>
    <g>
     <use xlink:href="#m154f2aaccd" x="360.8064" y="27.648" style="fill-opacity: 0; stroke: #0000ff; stroke-width: 1.5; stroke-linejoin: bevel"/>
     <use xlink:href="#m154f2aaccd" x="380.514816" y="98.18496" style="fill-opacity: 0; stroke: #0000ff; stroke-width: 1.5; stroke-linejoin: bevel"/>
    </g>
   </g>
   <g id="line2d_57">
    <path d="M 360.8064 27.648 
L 380.514816 33.07392 
" style="fill: none; stroke: #00bfbf; stroke-width: 1.5; stroke-linecap: square"/>
    <g>
     <use xlink:href="#m308f67b887" x="360.8064" y="27.648" style="fill-opacity: 0; stroke: #00bfbf; stroke-width: 1.5"/>
     <use xlink:href="#m308f67b887" x="380.514816" y="33.07392" style="fill-opacity: 0; stroke: #00bfbf; stroke-width: 1.5"/>
    </g>
   </g>
   <g id="line2d_58">
    <path d="M 360.8064 298.944 
L 360.8064 27.648 
" style="fill: none; stroke: #000000; stroke-width: 1.5; stroke-linecap: square"/>
   </g>
   <g id="patch_3">
    <path d="M 57.6 298.944 
L 360.8064 298.944 
" style="fill: none; stroke: #000000; stroke-width: 0.8; stroke-linejoin: miter; stroke-linecap: square"/>
   </g>
   <g id="patch_4">
    <path d="M 57.6 27.648 
L 360.8064 27.648 
" style="fill: none; stroke: #000000; stroke-width: 0.8; stroke-linejoin: miter; stroke-linecap: square"/>
   </g>
   <g id="text_13">
    <!-- 3-D -->
    <g transform="translate(386.578944 297.381205)scale(0.14 -0.14)">
     <defs>
      <path id="DejaVuSans-33" d="M 2597 2516 
Q 3050 2419 3304 2112 
Q 3559 1806 3559 1356 
Q 3559 666 3084 287 
Q 2609 -91 1734 -91 
Q 1441 -91 1130 -33 
Q 819 25 488 141 
L 488 750 
Q 750 597 1062 519 
Q 1375 441 1716 441 
Q 2309 441 2620 675 
Q 2931 909 2931 1356 
Q 2931 1769 2642 2001 
Q 2353 2234 1838 2234 
L 1294 2234 
L 1294 2753 
L 1863 2753 
Q 2328 2753 2575 2939 
Q 2822 3125 2822 3475 
Q 2822 3834 2567 4026 
Q 2313 4219 1838 4219 
Q 1578 4219 1281 4162 
Q 984 4106 628 3988 
L 628 4550 
Q 988 4650 1302 4700 
Q 1616 4750 1894 4750 
Q 2613 4750 3031 4423 
Q 3450 4097 3450 3541 
Q 3450 3153 3228 2886 
Q 3006 2619 2597 2516 
z
" transform="scale(0.015625)"/>
      <path id="DejaVuSans-44" d="M 1259 4147 
L 1259 519 
L 2022 519 
Q 2988 519 3436 956 
Q 3884 1394 3884 2338 
Q 3884 3275 3436 3711 
Q 2988 4147 2022 4147 
L 1259 4147 
z
M 628 4666 
L 1925 4666 
Q 3281 4666 3915 4102 
Q 4550 3538 4550 2338 
Q 4550 1131 3912 565 
Q 3275 0 1925 0 
L 628 0 
L 628 4666 
z
" transform="scale(0.015625)"/>
     </defs>
     <use xlink:href="#DejaVuSans-33"/>
     <use xlink:href="#DejaVuSans-2d" x="63.623047"/>
     <use xlink:href="#DejaVuSans-44" x="99.707031"/>
    </g>
   </g>
   <g id="text_14">
    <!-- 10-D -->
    <g transform="translate(386.578944 232.270165)scale(0.14 -0.14)">
     <use xlink:href="#DejaVuSans-31"/>
     <use xlink:href="#DejaVuSans-30" x="63.623047"/>
     <use xlink:href="#DejaVuSans-2d" x="127.246094"/>
     <use xlink:href="#DejaVuSans-44" x="163.330078"/>
    </g>
   </g>
   <g id="text_15">
    <!-- 20-D -->
    <g transform="translate(386.578944 167.159125)scale(0.14 -0.14)">
     <use xlink:href="#DejaVuSans-32"/>
     <use xlink:href="#DejaVuSans-30" x="63.623047"/>
     <use xlink:href="#DejaVuSans-2d" x="127.246094"/>
     <use xlink:href="#DejaVuSans-44" x="163.330078"/>
    </g>
   </g>
   <g id="text_16">
    <!-- 5-D -->
    <g transform="translate(386.578944 102.048085)scale(0.14 -0.14)">
     <defs>
      <path id="DejaVuSans-35" d="M 691 4666 
L 3169 4666 
L 3169 4134 
L 1269 4134 
L 1269 2991 
Q 1406 3038 1543 3061 
Q 1681 3084 1819 3084 
Q 2600 3084 3056 2656 
Q 3513 2228 3513 1497 
Q 3513 744 3044 326 
Q 2575 -91 1722 -91 
Q 1428 -91 1123 -41 
Q 819 9 494 109 
L 494 744 
Q 775 591 1075 516 
Q 1375 441 1709 441 
Q 2250 441 2565 725 
Q 2881 1009 2881 1497 
Q 2881 1984 2565 2268 
Q 2250 2553 1709 2553 
Q 1456 2553 1204 2497 
Q 953 2441 691 2322 
L 691 4666 
z
" transform="scale(0.015625)"/>
     </defs>
     <use xlink:href="#DejaVuSans-35"/>
     <use xlink:href="#DejaVuSans-2d" x="63.623047"/>
     <use xlink:href="#DejaVuSans-44" x="99.707031"/>
    </g>
   </g>
   <g id="text_17">
    <!-- 2-D -->
    <g transform="translate(386.578944 36.937045)scale(0.14 -0.14)">
     <use xlink:href="#DejaVuSans-32"/>
     <use xlink:href="#DejaVuSans-2d" x="63.623047"/>
     <use xlink:href="#DejaVuSans-44" x="99.707031"/>
    </g>
   </g>
   <g id="text_18">
    <!-- bbob f12 -->
    <g transform="translate(60.632064 38.111366)scale(0.102 -0.102)">
     <defs>
      <path id="DejaVuSans-62" d="M 3116 1747 
Q 3116 2381 2855 2742 
Q 2594 3103 2138 3103 
Q 1681 3103 1420 2742 
Q 1159 2381 1159 1747 
Q 1159 1113 1420 752 
Q 1681 391 2138 391 
Q 2594 391 2855 752 
Q 3116 1113 3116 1747 
z
M 1159 2969 
Q 1341 3281 1617 3432 
Q 1894 3584 2278 3584 
Q 2916 3584 3314 3078 
Q 3713 2572 3713 1747 
Q 3713 922 3314 415 
Q 2916 -91 2278 -91 
Q 1894 -91 1617 61 
Q 1341 213 1159 525 
L 1159 0 
L 581 0 
L 581 4863 
L 1159 4863 
L 1159 2969 
z
" transform="scale(0.015625)"/>
     </defs>
     <use xlink:href="#DejaVuSans-62"/>
     <use xlink:href="#DejaVuSans-62" x="63.476562"/>
     <use xlink:href="#DejaVuSans-6f" x="126.953125"/>
     <use xlink:href="#DejaVuSans-62" x="188.134766"/>
     <use xlink:href="#DejaVuSans-20" x="251.611328"/>
     <use xlink:href="#DejaVuSans-66" x="283.398438"/>
     <use xlink:href="#DejaVuSans-31" x="318.603516"/>
     <use xlink:href="#DejaVuSans-32" x="382.226562"/>
    </g>
    <!-- 51 targets: 100..1e-08 -->
    <g transform="translate(60.632064 49.533135)scale(0.102 -0.102)">
     <defs>
      <path id="DejaVuSans-3a" d="M 750 794 
L 1409 794 
L 1409 0 
L 750 0 
L 750 794 
z
M 750 3309 
L 1409 3309 
L 1409 2516 
L 750 2516 
L 750 3309 
z
" transform="scale(0.015625)"/>
     </defs>
     <use xlink:href="#DejaVuSans-35"/>
     <use xlink:href="#DejaVuSans-31" x="63.623047"/>
     <use xlink:href="#DejaVuSans-20" x="127.246094"/>
     <use xlink:href="#DejaVuSans-74" x="159.033203"/>
     <use xlink:href="#DejaVuSans-61" x="198.242188"/>
     <use xlink:href="#DejaVuSans-72" x="259.521484"/>
     <use xlink:href="#DejaVuSans-67" x="298.884766"/>
     <use xlink:href="#DejaVuSans-65" x="362.361328"/>
     <use xlink:href="#DejaVuSans-74" x="423.884766"/>
     <use xlink:href="#DejaVuSans-73" x="463.09375"/>
     <use xlink:href="#DejaVuSans-3a" x="515.193359"/>
     <use xlink:href="#DejaVuSans-20" x="548.884766"/>
     <use xlink:href="#DejaVuSans-31" x="580.671875"/>
     <use xlink:href="#DejaVuSans-30" x="644.294922"/>
     <use xlink:href="#DejaVuSans-30" x="707.917969"/>
     <use xlink:href="#DejaVuSans-2e" x="771.541016"/>
     <use xlink:href="#DejaVuSans-2e" x="803.328125"/>
     <use xlink:href="#DejaVuSans-31" x="835.115234"/>
     <use xlink:href="#DejaVuSans-65" x="898.738281"/>
     <use xlink:href="#DejaVuSans-2d" x="960.261719"/>
     <use xlink:href="#DejaVuSans-30" x="996.345703"/>
     <use xlink:href="#DejaVuSans-38" x="1059.96875"/>
    </g>
    <!-- 5 instances -->
    <g transform="translate(60.632064 60.954904)scale(0.102 -0.102)">
     <use xlink:href="#DejaVuSans-35"/>
     <use xlink:href="#DejaVuSans-20" x="63.623047"/>
     <use xlink:href="#DejaVuSans-69" x="95.410156"/>
     <use xlink:href="#DejaVuSans-6e" x="123.193359"/>
     <use xlink:href="#DejaVuSans-73" x="186.572266"/>
     <use xlink:href="#DejaVuSans-74" x="238.671875"/>
     <use xlink:href="#DejaVuSans-61" x="277.880859"/>
     <use xlink:href="#DejaVuSans-6e" x="339.160156"/>
     <use xlink:href="#DejaVuSans-63" x="402.539062"/>
     <use xlink:href="#DejaVuSans-65" x="457.519531"/>
     <use xlink:href="#DejaVuSans-73" x="519.042969"/>
    </g>
   </g>
   <g id="text_19">
    <!-- v2.6 -->
    <g style="fill: #808080" transform="translate(198.292262 294.151352)scale(0.1 -0.1)">
     <use xlink:href="#DejaVuSans-76"/>
     <use xlink:href="#DejaVuSans-32" x="59.179688"/>
     <use xlink:href="#DejaVuSans-2e" x="122.802734"/>
     <use xlink:href="#DejaVuSans-36" x="154.589844"/>
    </g>
   </g>
   <g id="text_20">
    <!-- 12 Bent cigar -->
    <g transform="translate(141.986012 21.648)scale(0.2 -0.2)">
     <defs>
      <path id="DejaVuSans-42" d="M 1259 2228 
L 1259 519 
L 2272 519 
Q 2781 519 3026 730 
Q 3272 941 3272 1375 
Q 3272 1813 3026 2020 
Q 2781 2228 2272 2228 
L 1259 2228 
z
M 1259 4147 
L 1259 2741 
L 2194 2741 
Q 2656 2741 2882 2914 
Q 3109 3088 3109 3444 
Q 3109 3797 2882 3972 
Q 2656 4147 2194 4147 
L 1259 4147 
z
M 628 4666 
L 2241 4666 
Q 2963 4666 3353 4366 
Q 3744 4066 3744 3513 
Q 3744 3084 3544 2831 
Q 3344 2578 2956 2516 
Q 3422 2416 3680 2098 
Q 3938 1781 3938 1306 
Q 3938 681 3513 340 
Q 3088 0 2303 0 
L 628 0 
L 628 4666 
z
" transform="scale(0.015625)"/>
     </defs>
     <use xlink:href="#DejaVuSans-31"/>
     <use xlink:href="#DejaVuSans-32" x="63.623047"/>
     <use xlink:href="#DejaVuSans-20" x="127.246094"/>
     <use xlink:href="#DejaVuSans-42" x="159.033203"/>
     <use xlink:href="#DejaVuSans-65" x="227.636719"/>
     <use xlink:href="#DejaVuSans-6e" x="289.160156"/>
     <use xlink:href="#DejaVuSans-74" x="352.539062"/>
     <use xlink:href="#DejaVuSans-20" x="391.748047"/>
     <use xlink:href="#DejaVuSans-63" x="423.535156"/>
     <use xlink:href="#DejaVuSans-69" x="478.515625"/>
     <use xlink:href="#DejaVuSans-67" x="506.298828"/>
     <use xlink:href="#DejaVuSans-61" x="569.775391"/>
     <use xlink:href="#DejaVuSans-72" x="631.054688"/>
    </g>
   </g>
  </g>
 </g>
 <defs>
  <clipPath id="pec2301cbc9">
   <rect x="57.6" y="27.648" width="303.2064" height="271.296"/>
  </clipPath>
 </defs>
</svg>
