<?xml version="1.0" encoding="utf-8" standalone="no"?>
<!DOCTYPE svg PUBLIC "-//W3C//DTD SVG 1.1//EN"
  "http://www.w3.org/Graphics/SVG/1.1/DTD/svg11.dtd">
<svg xmlns:xlink="http://www.w3.org/1999/xlink" width="460.8pt" height="345.6pt" viewBox="0 0 460.8 345.6" xmlns="http://www.w3.org/2000/svg" version="1.1">
 <metadata>
  <rdf:RDF xmlns:dc="http://purl.org/dc/elements/1.1/" xmlns:cc="http://creativecommons.org/ns#" xmlns:rdf="http://www.w3.org/1999/02/22-rdf-syntax-ns#">
   <cc:Work>
    <dc:type rdf:resource="http://purl.org/dc/dcmitype/StillImage"/>
    <dc:date>2022-03-17T00:31:41.469301</dc:date>
    <dc:format>image/svg+xml</dc:format>
    <dc:creator>
     <cc:Agent>
      <dc:title>Matplotlib v3.5.1, https://matplotlib.org/</dc:title>
     </cc:Agent>
    </dc:creator>
   </cc:Work>
  </rdf:RDF>
 </metadata>
 <defs>
  <style type="text/css">*{stroke-linejoin: round; stroke-linecap: butt}</style>
 </defs>
 <g id="figure_1">
  <g id="patch_1">
   <path d="M 0 345.6 
L 460.8 345.6 
L 460.8 0 
L 0 0 
z
" style="fill: #ffffff"/>
  </g>
  <g id="axes_1">
   <g id="patch_2">
    <path d="M 57.6 298.944 
L 360.8064 298.944 
L 360.8064 27.648 
L 57.6 27.648 
z
" style="fill: #ffffff"/>
   </g>
   <g id="line2d_1">
    <path d="M 44.560826 298.944 
L 44.560826 224.470588 
L 103.544339 224.470588 
L 103.544339 219.151059 
L 105.850679 219.151059 
L 105.850679 213.831529 
L 112.989468 213.831529 
L 112.989468 208.512 
L 113.954374 208.512 
L 113.954374 203.192471 
L 120.616896 203.192471 
L 120.616896 197.872941 
L 120.944062 197.872941 
L 120.944062 192.553412 
L 145.678157 192.553412 
L 145.678157 187.233882 
L 145.851536 187.233882 
L 145.851536 181.914353 
L 145.93763 181.914353 
L 145.93763 176.594824 
L 146.27812 176.594824 
L 146.27812 171.275294 
L 146.362288 171.275294 
L 146.362288 165.955765 
L 146.612557 165.955765 
L 146.612557 160.636235 
L 147.022411 160.636235 
L 147.022411 155.316706 
L 147.103321 155.316706 
L 147.103321 149.997176 
L 147.264104 149.997176 
L 147.264104 144.677647 
L 147.502732 144.677647 
L 147.502732 139.358118 
L 147.660152 139.358118 
L 147.660152 134.038588 
L 147.816265 134.038588 
L 147.816265 123.399529 
L 148.124658 123.399529 
L 148.124658 118.08 
L 148.352679 118.08 
L 148.352679 112.760471 
L 148.57797 112.760471 
L 148.57797 107.440941 
L 148.652472 107.440941 
L 148.652472 102.121412 
L 149.093387 102.121412 
L 149.093387 91.482353 
L 149.381693 91.482353 
L 149.381693 86.162824 
L 149.453084 86.162824 
L 149.453084 80.843294 
L 149.665646 80.843294 
L 149.665646 75.523765 
L 149.73597 75.523765 
L 149.73597 70.204235 
L 149.875833 70.204235 
L 149.875833 64.884706 
L 150.221009 64.884706 
L 150.221009 59.565176 
L 150.289291 59.565176 
L 150.289291 54.245647 
L 150.357325 54.245647 
L 150.357325 43.606588 
L 150.425115 43.606588 
L 150.425115 38.287059 
L 150.62703 38.287059 
L 150.62703 32.967529 
L 150.693856 32.967529 
L 150.693856 27.648 
L 360.8064 27.648 
" style="fill: none; stroke: #f5deb3; stroke-width: 4; stroke-linecap: square"/>
   </g>
   <g id="line2d_2">
    <defs>
     <path id="mace855be8a" d="M -0 7.778175 
L 7.778175 0 
L 0 -7.778175 
L -7.778175 -0 
z
" style="stroke: #f5deb3; stroke-width: 1.5; stroke-linejoin: miter"/>
    </defs>
    <g>
     <use xlink:href="#mace855be8a" x="113.954374" y="208.512" style="fill: #f5deb3; stroke: #f5deb3; stroke-width: 1.5; stroke-linejoin: miter"/>
     <use xlink:href="#mace855be8a" x="148.652472" y="102.121412" style="fill: #f5deb3; stroke: #f5deb3; stroke-width: 1.5; stroke-linejoin: miter"/>
     <use xlink:href="#mace855be8a" x="150.693856" y="32.967529" style="fill: #f5deb3; stroke: #f5deb3; stroke-width: 1.5; stroke-linejoin: miter"/>
     <use xlink:href="#mace855be8a" x="150.693856" y="27.648" style="fill: #f5deb3; stroke: #f5deb3; stroke-width: 1.5; stroke-linejoin: miter"/>
     <use xlink:href="#mace855be8a" x="150.693856" y="27.648" style="fill: #f5deb3; stroke: #f5deb3; stroke-width: 1.5; stroke-linejoin: miter"/>
     <use xlink:href="#mace855be8a" x="360.8064" y="27.648" style="fill: #f5deb3; stroke: #f5deb3; stroke-width: 1.5; stroke-linejoin: miter"/>
    </g>
   </g>
   <g id="line2d_3">
    <path style="fill: none; stroke: #f5deb3; stroke-width: 4; stroke-linecap: square"/>
    <g/>
   </g>
   <g id="line2d_4">
    <path d="M 360.8064 27.648 
L 380.514816 33.07392 
" style="fill: none; stroke: #f5deb3; stroke-width: 4; stroke-linecap: square"/>
    <g>
     <use xlink:href="#mace855be8a" x="360.8064" y="27.648" style="fill: #f5deb3; stroke: #f5deb3; stroke-width: 1.5; stroke-linejoin: miter"/>
     <use xlink:href="#mace855be8a" x="380.514816" y="33.07392" style="fill: #f5deb3; stroke: #f5deb3; stroke-width: 1.5; stroke-linejoin: miter"/>
    </g>
   </g>
   <g id="matplotlib.axis_1">
    <g id="xtick_1">
     <g id="line2d_5">
      <path d="M 57.6 298.944 
L 57.6 27.648 
" clip-path="url(#pef722f2943)" style="fill: none; stroke: #b0b0b0; stroke-width: 0.8; stroke-linecap: square"/>
     </g>
     <g id="line2d_6">
      <defs>
       <path id="me8df61717c" d="M 0 0 
L 0 3.5 
" style="stroke: #000000; stroke-width: 0.8"/>
      </defs>
      <g>
       <use xlink:href="#me8df61717c" x="57.6" y="298.944" style="stroke: #000000; stroke-width: 0.8"/>
      </g>
     </g>
     <g id="text_1">
      <!-- 0 -->
      <g transform="translate(52.191875 318.861344)scale(0.17 -0.17)">
       <defs>
        <path id="DejaVuSans-30" d="M 2034 4250 
Q 1547 4250 1301 3770 
Q 1056 3291 1056 2328 
Q 1056 1369 1301 889 
Q 1547 409 2034 409 
Q 2525 409 2770 889 
Q 3016 1369 3016 2328 
Q 3016 3291 2770 3770 
Q 2525 4250 2034 4250 
z
M 2034 4750 
Q 2819 4750 3233 4129 
Q 3647 3509 3647 2328 
Q 3647 1150 3233 529 
Q 2819 -91 2034 -91 
Q 1250 -91 836 529 
Q 422 1150 422 2328 
Q 422 3509 836 4129 
Q 1250 4750 2034 4750 
z
" transform="scale(0.015625)"/>
       </defs>
       <use xlink:href="#DejaVuSans-30"/>
      </g>
     </g>
    </g>
    <g id="xtick_2">
     <g id="line2d_7">
      <path d="M 144.2304 298.944 
L 144.2304 27.648 
" clip-path="url(#pef722f2943)" style="fill: none; stroke: #b0b0b0; stroke-width: 0.8; stroke-linecap: square"/>
     </g>
     <g id="line2d_8">
      <g>
       <use xlink:href="#me8df61717c" x="144.2304" y="298.944" style="stroke: #000000; stroke-width: 0.8"/>
      </g>
     </g>
     <g id="text_2">
      <!-- 2 -->
      <g transform="translate(138.822275 318.861344)scale(0.17 -0.17)">
       <defs>
        <path id="DejaVuSans-32" d="M 1228 531 
L 3431 531 
L 3431 0 
L 469 0 
L 469 531 
Q 828 903 1448 1529 
Q 2069 2156 2228 2338 
Q 2531 2678 2651 2914 
Q 2772 3150 2772 3378 
Q 2772 3750 2511 3984 
Q 2250 4219 1831 4219 
Q 1534 4219 1204 4116 
Q 875 4013 500 3803 
L 500 4441 
Q 881 4594 1212 4672 
Q 1544 4750 1819 4750 
Q 2544 4750 2975 4387 
Q 3406 4025 3406 3419 
Q 3406 3131 3298 2873 
Q 3191 2616 2906 2266 
Q 2828 2175 2409 1742 
Q 1991 1309 1228 531 
z
" transform="scale(0.015625)"/>
       </defs>
       <use xlink:href="#DejaVuSans-32"/>
      </g>
     </g>
    </g>
    <g id="xtick_3">
     <g id="line2d_9">
      <path d="M 230.8608 298.944 
L 230.8608 27.648 
" clip-path="url(#pef722f2943)" style="fill: none; stroke: #b0b0b0; stroke-width: 0.8; stroke-linecap: square"/>
     </g>
     <g id="line2d_10">
      <g>
       <use xlink:href="#me8df61717c" x="230.8608" y="298.944" style="stroke: #000000; stroke-width: 0.8"/>
      </g>
     </g>
     <g id="text_3">
      <!-- 4 -->
      <g transform="translate(225.452675 318.861344)scale(0.17 -0.17)">
       <defs>
        <path id="DejaVuSans-34" d="M 2419 4116 
L 825 1625 
L 2419 1625 
L 2419 4116 
z
M 2253 4666 
L 3047 4666 
L 3047 1625 
L 3713 1625 
L 3713 1100 
L 3047 1100 
L 3047 0 
L 2419 0 
L 2419 1100 
L 313 1100 
L 313 1709 
L 2253 4666 
z
" transform="scale(0.015625)"/>
       </defs>
       <use xlink:href="#DejaVuSans-34"/>
      </g>
     </g>
    </g>
    <g id="xtick_4">
     <g id="line2d_11">
      <path d="M 317.4912 298.944 
L 317.4912 27.648 
" clip-path="url(#pef722f2943)" style="fill: none; stroke: #b0b0b0; stroke-width: 0.8; stroke-linecap: square"/>
     </g>
     <g id="line2d_12">
      <g>
       <use xlink:href="#me8df61717c" x="317.4912" y="298.944" style="stroke: #000000; stroke-width: 0.8"/>
      </g>
     </g>
     <g id="text_4">
      <!-- 6 -->
      <g transform="translate(312.083075 318.861344)scale(0.17 -0.17)">
       <defs>
        <path id="DejaVuSans-36" d="M 2113 2584 
Q 1688 2584 1439 2293 
Q 1191 2003 1191 1497 
Q 1191 994 1439 701 
Q 1688 409 2113 409 
Q 2538 409 2786 701 
Q 3034 994 3034 1497 
Q 3034 2003 2786 2293 
Q 2538 2584 2113 2584 
z
M 3366 4563 
L 3366 3988 
Q 3128 4100 2886 4159 
Q 2644 4219 2406 4219 
Q 1781 4219 1451 3797 
Q 1122 3375 1075 2522 
Q 1259 2794 1537 2939 
Q 1816 3084 2150 3084 
Q 2853 3084 3261 2657 
Q 3669 2231 3669 1497 
Q 3669 778 3244 343 
Q 2819 -91 2113 -91 
Q 1303 -91 875 529 
Q 447 1150 447 2328 
Q 447 3434 972 4092 
Q 1497 4750 2381 4750 
Q 2619 4750 2861 4703 
Q 3103 4656 3366 4563 
z
" transform="scale(0.015625)"/>
       </defs>
       <use xlink:href="#DejaVuSans-36"/>
      </g>
     </g>
    </g>
    <g id="xtick_5">
     <g id="line2d_13">
      <path d="M 100.9152 298.944 
L 100.9152 27.648 
" clip-path="url(#pef722f2943)" style="fill: none; stroke: #b0b0b0; stroke-width: 0.8; stroke-linecap: square"/>
     </g>
     <g id="line2d_14">
      <defs>
       <path id="mb94662d8ff" d="M 0 0 
L 0 2 
" style="stroke: #000000; stroke-width: 0.6"/>
      </defs>
      <g>
       <use xlink:href="#mb94662d8ff" x="100.9152" y="298.944" style="stroke: #000000; stroke-width: 0.6"/>
      </g>
     </g>
    </g>
    <g id="xtick_6">
     <g id="line2d_15">
      <path d="M 187.5456 298.944 
L 187.5456 27.648 
" clip-path="url(#pef722f2943)" style="fill: none; stroke: #b0b0b0; stroke-width: 0.8; stroke-linecap: square"/>
     </g>
     <g id="line2d_16">
      <g>
       <use xlink:href="#mb94662d8ff" x="187.5456" y="298.944" style="stroke: #000000; stroke-width: 0.6"/>
      </g>
     </g>
    </g>
    <g id="xtick_7">
     <g id="line2d_17">
      <path d="M 274.176 298.944 
L 274.176 27.648 
" clip-path="url(#pef722f2943)" style="fill: none; stroke: #b0b0b0; stroke-width: 0.8; stroke-linecap: square"/>
     </g>
     <g id="line2d_18">
      <g>
       <use xlink:href="#mb94662d8ff" x="274.176" y="298.944" style="stroke: #000000; stroke-width: 0.6"/>
      </g>
     </g>
    </g>
    <g id="xtick_8">
     <g id="line2d_19">
      <path d="M 360.8064 298.944 
L 360.8064 27.648 
" clip-path="url(#pef722f2943)" style="fill: none; stroke: #b0b0b0; stroke-width: 0.8; stroke-linecap: square"/>
     </g>
     <g id="line2d_20">
      <g>
       <use xlink:href="#mb94662d8ff" x="360.8064" y="298.944" style="stroke: #000000; stroke-width: 0.6"/>
      </g>
     </g>
    </g>
    <g id="text_5">
     <!-- log10(# f-evals / dimension) -->
     <g transform="translate(88.823278 339.314156)scale(0.17 -0.17)">
      <defs>
       <path id="DejaVuSans-6c" d="M 603 4863 
L 1178 4863 
L 1178 0 
L 603 0 
L 603 4863 
z
" transform="scale(0.015625)"/>
       <path id="DejaVuSans-6f" d="M 1959 3097 
Q 1497 3097 1228 2736 
Q 959 2375 959 1747 
Q 959 1119 1226 758 
Q 1494 397 1959 397 
Q 2419 397 2687 759 
Q 2956 1122 2956 1747 
Q 2956 2369 2687 2733 
Q 2419 3097 1959 3097 
z
M 1959 3584 
Q 2709 3584 3137 3096 
Q 3566 2609 3566 1747 
Q 3566 888 3137 398 
Q 2709 -91 1959 -91 
Q 1206 -91 779 398 
Q 353 888 353 1747 
Q 353 2609 779 3096 
Q 1206 3584 1959 3584 
z
" transform="scale(0.015625)"/>
       <path id="DejaVuSans-67" d="M 2906 1791 
Q 2906 2416 2648 2759 
Q 2391 3103 1925 3103 
Q 1463 3103 1205 2759 
Q 947 2416 947 1791 
Q 947 1169 1205 825 
Q 1463 481 1925 481 
Q 2391 481 2648 825 
Q 2906 1169 2906 1791 
z
M 3481 434 
Q 3481 -459 3084 -895 
Q 2688 -1331 1869 -1331 
Q 1566 -1331 1297 -1286 
Q 1028 -1241 775 -1147 
L 775 -588 
Q 1028 -725 1275 -790 
Q 1522 -856 1778 -856 
Q 2344 -856 2625 -561 
Q 2906 -266 2906 331 
L 2906 616 
Q 2728 306 2450 153 
Q 2172 0 1784 0 
Q 1141 0 747 490 
Q 353 981 353 1791 
Q 353 2603 747 3093 
Q 1141 3584 1784 3584 
Q 2172 3584 2450 3431 
Q 2728 3278 2906 2969 
L 2906 3500 
L 3481 3500 
L 3481 434 
z
" transform="scale(0.015625)"/>
       <path id="DejaVuSans-31" d="M 794 531 
L 1825 531 
L 1825 4091 
L 703 3866 
L 703 4441 
L 1819 4666 
L 2450 4666 
L 2450 531 
L 3481 531 
L 3481 0 
L 794 0 
L 794 531 
z
" transform="scale(0.015625)"/>
       <path id="DejaVuSans-28" d="M 1984 4856 
Q 1566 4138 1362 3434 
Q 1159 2731 1159 2009 
Q 1159 1288 1364 580 
Q 1569 -128 1984 -844 
L 1484 -844 
Q 1016 -109 783 600 
Q 550 1309 550 2009 
Q 550 2706 781 3412 
Q 1013 4119 1484 4856 
L 1984 4856 
z
" transform="scale(0.015625)"/>
       <path id="DejaVuSans-23" d="M 3272 2816 
L 2363 2816 
L 2100 1772 
L 3016 1772 
L 3272 2816 
z
M 2803 4594 
L 2478 3297 
L 3391 3297 
L 3719 4594 
L 4219 4594 
L 3897 3297 
L 4872 3297 
L 4872 2816 
L 3775 2816 
L 3519 1772 
L 4513 1772 
L 4513 1294 
L 3397 1294 
L 3072 0 
L 2572 0 
L 2894 1294 
L 1978 1294 
L 1656 0 
L 1153 0 
L 1478 1294 
L 494 1294 
L 494 1772 
L 1594 1772 
L 1856 2816 
L 850 2816 
L 850 3297 
L 1978 3297 
L 2297 4594 
L 2803 4594 
z
" transform="scale(0.015625)"/>
       <path id="DejaVuSans-20" transform="scale(0.015625)"/>
       <path id="DejaVuSans-66" d="M 2375 4863 
L 2375 4384 
L 1825 4384 
Q 1516 4384 1395 4259 
Q 1275 4134 1275 3809 
L 1275 3500 
L 2222 3500 
L 2222 3053 
L 1275 3053 
L 1275 0 
L 697 0 
L 697 3053 
L 147 3053 
L 147 3500 
L 697 3500 
L 697 3744 
Q 697 4328 969 4595 
Q 1241 4863 1831 4863 
L 2375 4863 
z
" transform="scale(0.015625)"/>
       <path id="DejaVuSans-2d" d="M 313 2009 
L 1997 2009 
L 1997 1497 
L 313 1497 
L 313 2009 
z
" transform="scale(0.015625)"/>
       <path id="DejaVuSans-65" d="M 3597 1894 
L 3597 1613 
L 953 1613 
Q 991 1019 1311 708 
Q 1631 397 2203 397 
Q 2534 397 2845 478 
Q 3156 559 3463 722 
L 3463 178 
Q 3153 47 2828 -22 
Q 2503 -91 2169 -91 
Q 1331 -91 842 396 
Q 353 884 353 1716 
Q 353 2575 817 3079 
Q 1281 3584 2069 3584 
Q 2775 3584 3186 3129 
Q 3597 2675 3597 1894 
z
M 3022 2063 
Q 3016 2534 2758 2815 
Q 2500 3097 2075 3097 
Q 1594 3097 1305 2825 
Q 1016 2553 972 2059 
L 3022 2063 
z
" transform="scale(0.015625)"/>
       <path id="DejaVuSans-76" d="M 191 3500 
L 800 3500 
L 1894 563 
L 2988 3500 
L 3597 3500 
L 2284 0 
L 1503 0 
L 191 3500 
z
" transform="scale(0.015625)"/>
       <path id="DejaVuSans-61" d="M 2194 1759 
Q 1497 1759 1228 1600 
Q 959 1441 959 1056 
Q 959 750 1161 570 
Q 1363 391 1709 391 
Q 2188 391 2477 730 
Q 2766 1069 2766 1631 
L 2766 1759 
L 2194 1759 
z
M 3341 1997 
L 3341 0 
L 2766 0 
L 2766 531 
Q 2569 213 2275 61 
Q 1981 -91 1556 -91 
Q 1019 -91 701 211 
Q 384 513 384 1019 
Q 384 1609 779 1909 
Q 1175 2209 1959 2209 
L 2766 2209 
L 2766 2266 
Q 2766 2663 2505 2880 
Q 2244 3097 1772 3097 
Q 1472 3097 1187 3025 
Q 903 2953 641 2809 
L 641 3341 
Q 956 3463 1253 3523 
Q 1550 3584 1831 3584 
Q 2591 3584 2966 3190 
Q 3341 2797 3341 1997 
z
" transform="scale(0.015625)"/>
       <path id="DejaVuSans-73" d="M 2834 3397 
L 2834 2853 
Q 2591 2978 2328 3040 
Q 2066 3103 1784 3103 
Q 1356 3103 1142 2972 
Q 928 2841 928 2578 
Q 928 2378 1081 2264 
Q 1234 2150 1697 2047 
L 1894 2003 
Q 2506 1872 2764 1633 
Q 3022 1394 3022 966 
Q 3022 478 2636 193 
Q 2250 -91 1575 -91 
Q 1294 -91 989 -36 
Q 684 19 347 128 
L 347 722 
Q 666 556 975 473 
Q 1284 391 1588 391 
Q 1994 391 2212 530 
Q 2431 669 2431 922 
Q 2431 1156 2273 1281 
Q 2116 1406 1581 1522 
L 1381 1569 
Q 847 1681 609 1914 
Q 372 2147 372 2553 
Q 372 3047 722 3315 
Q 1072 3584 1716 3584 
Q 2034 3584 2315 3537 
Q 2597 3491 2834 3397 
z
" transform="scale(0.015625)"/>
       <path id="DejaVuSans-2f" d="M 1625 4666 
L 2156 4666 
L 531 -594 
L 0 -594 
L 1625 4666 
z
" transform="scale(0.015625)"/>
       <path id="DejaVuSans-64" d="M 2906 2969 
L 2906 4863 
L 3481 4863 
L 3481 0 
L 2906 0 
L 2906 525 
Q 2725 213 2448 61 
Q 2172 -91 1784 -91 
Q 1150 -91 751 415 
Q 353 922 353 1747 
Q 353 2572 751 3078 
Q 1150 3584 1784 3584 
Q 2172 3584 2448 3432 
Q 2725 3281 2906 2969 
z
M 947 1747 
Q 947 1113 1208 752 
Q 1469 391 1925 391 
Q 2381 391 2643 752 
Q 2906 1113 2906 1747 
Q 2906 2381 2643 2742 
Q 2381 3103 1925 3103 
Q 1469 3103 1208 2742 
Q 947 2381 947 1747 
z
" transform="scale(0.015625)"/>
       <path id="DejaVuSans-69" d="M 603 3500 
L 1178 3500 
L 1178 0 
L 603 0 
L 603 3500 
z
M 603 4863 
L 1178 4863 
L 1178 4134 
L 603 4134 
L 603 4863 
z
" transform="scale(0.015625)"/>
       <path id="DejaVuSans-6d" d="M 3328 2828 
Q 3544 3216 3844 3400 
Q 4144 3584 4550 3584 
Q 5097 3584 5394 3201 
Q 5691 2819 5691 2113 
L 5691 0 
L 5113 0 
L 5113 2094 
Q 5113 2597 4934 2840 
Q 4756 3084 4391 3084 
Q 3944 3084 3684 2787 
Q 3425 2491 3425 1978 
L 3425 0 
L 2847 0 
L 2847 2094 
Q 2847 2600 2669 2842 
Q 2491 3084 2119 3084 
Q 1678 3084 1418 2786 
Q 1159 2488 1159 1978 
L 1159 0 
L 581 0 
L 581 3500 
L 1159 3500 
L 1159 2956 
Q 1356 3278 1631 3431 
Q 1906 3584 2284 3584 
Q 2666 3584 2933 3390 
Q 3200 3197 3328 2828 
z
" transform="scale(0.015625)"/>
       <path id="DejaVuSans-6e" d="M 3513 2113 
L 3513 0 
L 2938 0 
L 2938 2094 
Q 2938 2591 2744 2837 
Q 2550 3084 2163 3084 
Q 1697 3084 1428 2787 
Q 1159 2491 1159 1978 
L 1159 0 
L 581 0 
L 581 3500 
L 1159 3500 
L 1159 2956 
Q 1366 3272 1645 3428 
Q 1925 3584 2291 3584 
Q 2894 3584 3203 3211 
Q 3513 2838 3513 2113 
z
" transform="scale(0.015625)"/>
       <path id="DejaVuSans-29" d="M 513 4856 
L 1013 4856 
Q 1481 4119 1714 3412 
Q 1947 2706 1947 2009 
Q 1947 1309 1714 600 
Q 1481 -109 1013 -844 
L 513 -844 
Q 928 -128 1133 580 
Q 1338 1288 1338 2009 
Q 1338 2731 1133 3434 
Q 928 4138 513 4856 
z
" transform="scale(0.015625)"/>
      </defs>
      <use xlink:href="#DejaVuSans-6c"/>
      <use xlink:href="#DejaVuSans-6f" x="27.783203"/>
      <use xlink:href="#DejaVuSans-67" x="88.964844"/>
      <use xlink:href="#DejaVuSans-31" x="152.441406"/>
      <use xlink:href="#DejaVuSans-30" x="216.064453"/>
      <use xlink:href="#DejaVuSans-28" x="279.6875"/>
      <use xlink:href="#DejaVuSans-23" x="318.701172"/>
      <use xlink:href="#DejaVuSans-20" x="402.490234"/>
      <use xlink:href="#DejaVuSans-66" x="434.277344"/>
      <use xlink:href="#DejaVuSans-2d" x="463.982422"/>
      <use xlink:href="#DejaVuSans-65" x="500.066406"/>
      <use xlink:href="#DejaVuSans-76" x="561.589844"/>
      <use xlink:href="#DejaVuSans-61" x="620.769531"/>
      <use xlink:href="#DejaVuSans-6c" x="682.048828"/>
      <use xlink:href="#DejaVuSans-73" x="709.832031"/>
      <use xlink:href="#DejaVuSans-20" x="761.931641"/>
      <use xlink:href="#DejaVuSans-2f" x="793.71875"/>
      <use xlink:href="#DejaVuSans-20" x="827.410156"/>
      <use xlink:href="#DejaVuSans-64" x="859.197266"/>
      <use xlink:href="#DejaVuSans-69" x="922.673828"/>
      <use xlink:href="#DejaVuSans-6d" x="950.457031"/>
      <use xlink:href="#DejaVuSans-65" x="1047.869141"/>
      <use xlink:href="#DejaVuSans-6e" x="1109.392578"/>
      <use xlink:href="#DejaVuSans-73" x="1172.771484"/>
      <use xlink:href="#DejaVuSans-69" x="1224.871094"/>
      <use xlink:href="#DejaVuSans-6f" x="1252.654297"/>
      <use xlink:href="#DejaVuSans-6e" x="1313.835938"/>
      <use xlink:href="#DejaVuSans-29" x="1377.214844"/>
     </g>
    </g>
   </g>
   <g id="matplotlib.axis_2">
    <g id="ytick_1">
     <g id="line2d_21">
      <path d="M 57.6 298.944 
L 360.8064 298.944 
" clip-path="url(#pef722f2943)" style="fill: none; stroke: #b0b0b0; stroke-width: 0.8; stroke-linecap: square"/>
     </g>
     <g id="line2d_22">
      <defs>
       <path id="m830ca52a7a" d="M 0 0 
L -3.5 0 
" style="stroke: #000000; stroke-width: 0.8"/>
      </defs>
      <g>
       <use xlink:href="#m830ca52a7a" x="57.6" y="298.944" style="stroke: #000000; stroke-width: 0.8"/>
      </g>
     </g>
     <g id="text_6">
      <!-- 0.0 -->
      <g transform="translate(25.155 305.02275)scale(0.16 -0.16)">
       <defs>
        <path id="DejaVuSans-2e" d="M 684 794 
L 1344 794 
L 1344 0 
L 684 0 
L 684 794 
z
" transform="scale(0.015625)"/>
       </defs>
       <use xlink:href="#DejaVuSans-30"/>
       <use xlink:href="#DejaVuSans-2e" x="63.623047"/>
       <use xlink:href="#DejaVuSans-30" x="95.410156"/>
      </g>
     </g>
    </g>
    <g id="ytick_2">
     <g id="line2d_23">
      <path d="M 57.6 244.6848 
L 360.8064 244.6848 
" clip-path="url(#pef722f2943)" style="fill: none; stroke: #b0b0b0; stroke-width: 0.8; stroke-linecap: square"/>
     </g>
     <g id="line2d_24">
      <g>
       <use xlink:href="#m830ca52a7a" x="57.6" y="244.6848" style="stroke: #000000; stroke-width: 0.8"/>
      </g>
     </g>
     <g id="text_7">
      <!-- 0.2 -->
      <g transform="translate(25.155 250.76355)scale(0.16 -0.16)">
       <use xlink:href="#DejaVuSans-30"/>
       <use xlink:href="#DejaVuSans-2e" x="63.623047"/>
       <use xlink:href="#DejaVuSans-32" x="95.410156"/>
      </g>
     </g>
    </g>
    <g id="ytick_3">
     <g id="line2d_25">
      <path d="M 57.6 190.4256 
L 360.8064 190.4256 
" clip-path="url(#pef722f2943)" style="fill: none; stroke: #b0b0b0; stroke-width: 0.8; stroke-linecap: square"/>
     </g>
     <g id="line2d_26">
      <g>
       <use xlink:href="#m830ca52a7a" x="57.6" y="190.4256" style="stroke: #000000; stroke-width: 0.8"/>
      </g>
     </g>
     <g id="text_8">
      <!-- 0.4 -->
      <g transform="translate(25.155 196.50435)scale(0.16 -0.16)">
       <use xlink:href="#DejaVuSans-30"/>
       <use xlink:href="#DejaVuSans-2e" x="63.623047"/>
       <use xlink:href="#DejaVuSans-34" x="95.410156"/>
      </g>
     </g>
    </g>
    <g id="ytick_4">
     <g id="line2d_27">
      <path d="M 57.6 136.1664 
L 360.8064 136.1664 
" clip-path="url(#pef722f2943)" style="fill: none; stroke: #b0b0b0; stroke-width: 0.8; stroke-linecap: square"/>
     </g>
     <g id="line2d_28">
      <g>
       <use xlink:href="#m830ca52a7a" x="57.6" y="136.1664" style="stroke: #000000; stroke-width: 0.8"/>
      </g>
     </g>
     <g id="text_9">
      <!-- 0.6 -->
      <g transform="translate(25.155 142.24515)scale(0.16 -0.16)">
       <use xlink:href="#DejaVuSans-30"/>
       <use xlink:href="#DejaVuSans-2e" x="63.623047"/>
       <use xlink:href="#DejaVuSans-36" x="95.410156"/>
      </g>
     </g>
    </g>
    <g id="ytick_5">
     <g id="line2d_29">
      <path d="M 57.6 81.9072 
L 360.8064 81.9072 
" clip-path="url(#pef722f2943)" style="fill: none; stroke: #b0b0b0; stroke-width: 0.8; stroke-linecap: square"/>
     </g>
     <g id="line2d_30">
      <g>
       <use xlink:href="#m830ca52a7a" x="57.6" y="81.9072" style="stroke: #000000; stroke-width: 0.8"/>
      </g>
     </g>
     <g id="text_10">
      <!-- 0.8 -->
      <g transform="translate(25.155 87.98595)scale(0.16 -0.16)">
       <defs>
        <path id="DejaVuSans-38" d="M 2034 2216 
Q 1584 2216 1326 1975 
Q 1069 1734 1069 1313 
Q 1069 891 1326 650 
Q 1584 409 2034 409 
Q 2484 409 2743 651 
Q 3003 894 3003 1313 
Q 3003 1734 2745 1975 
Q 2488 2216 2034 2216 
z
M 1403 2484 
Q 997 2584 770 2862 
Q 544 3141 544 3541 
Q 544 4100 942 4425 
Q 1341 4750 2034 4750 
Q 2731 4750 3128 4425 
Q 3525 4100 3525 3541 
Q 3525 3141 3298 2862 
Q 3072 2584 2669 2484 
Q 3125 2378 3379 2068 
Q 3634 1759 3634 1313 
Q 3634 634 3220 271 
Q 2806 -91 2034 -91 
Q 1263 -91 848 271 
Q 434 634 434 1313 
Q 434 1759 690 2068 
Q 947 2378 1403 2484 
z
M 1172 3481 
Q 1172 3119 1398 2916 
Q 1625 2713 2034 2713 
Q 2441 2713 2670 2916 
Q 2900 3119 2900 3481 
Q 2900 3844 2670 4047 
Q 2441 4250 2034 4250 
Q 1625 4250 1398 4047 
Q 1172 3844 1172 3481 
z
" transform="scale(0.015625)"/>
       </defs>
       <use xlink:href="#DejaVuSans-30"/>
       <use xlink:href="#DejaVuSans-2e" x="63.623047"/>
       <use xlink:href="#DejaVuSans-38" x="95.410156"/>
      </g>
     </g>
    </g>
    <g id="ytick_6">
     <g id="line2d_31">
      <path d="M 57.6 27.648 
L 360.8064 27.648 
" clip-path="url(#pef722f2943)" style="fill: none; stroke: #b0b0b0; stroke-width: 0.8; stroke-linecap: square"/>
     </g>
     <g id="line2d_32">
      <g>
       <use xlink:href="#m830ca52a7a" x="57.6" y="27.648" style="stroke: #000000; stroke-width: 0.8"/>
      </g>
     </g>
     <g id="text_11">
      <!-- 1.0 -->
      <g transform="translate(25.155 33.72675)scale(0.16 -0.16)">
       <use xlink:href="#DejaVuSans-31"/>
       <use xlink:href="#DejaVuSans-2e" x="63.623047"/>
       <use xlink:href="#DejaVuSans-30" x="95.410156"/>
      </g>
     </g>
    </g>
    <g id="text_12">
     <!-- Fraction of function,target pairs -->
     <g transform="translate(17.619531 297.681)rotate(-90)scale(0.17 -0.17)">
      <defs>
       <path id="DejaVuSans-46" d="M 628 4666 
L 3309 4666 
L 3309 4134 
L 1259 4134 
L 1259 2759 
L 3109 2759 
L 3109 2228 
L 1259 2228 
L 1259 0 
L 628 0 
L 628 4666 
z
" transform="scale(0.015625)"/>
       <path id="DejaVuSans-72" d="M 2631 2963 
Q 2534 3019 2420 3045 
Q 2306 3072 2169 3072 
Q 1681 3072 1420 2755 
Q 1159 2438 1159 1844 
L 1159 0 
L 581 0 
L 581 3500 
L 1159 3500 
L 1159 2956 
Q 1341 3275 1631 3429 
Q 1922 3584 2338 3584 
Q 2397 3584 2469 3576 
Q 2541 3569 2628 3553 
L 2631 2963 
z
" transform="scale(0.015625)"/>
       <path id="DejaVuSans-63" d="M 3122 3366 
L 3122 2828 
Q 2878 2963 2633 3030 
Q 2388 3097 2138 3097 
Q 1578 3097 1268 2742 
Q 959 2388 959 1747 
Q 959 1106 1268 751 
Q 1578 397 2138 397 
Q 2388 397 2633 464 
Q 2878 531 3122 666 
L 3122 134 
Q 2881 22 2623 -34 
Q 2366 -91 2075 -91 
Q 1284 -91 818 406 
Q 353 903 353 1747 
Q 353 2603 823 3093 
Q 1294 3584 2113 3584 
Q 2378 3584 2631 3529 
Q 2884 3475 3122 3366 
z
" transform="scale(0.015625)"/>
       <path id="DejaVuSans-74" d="M 1172 4494 
L 1172 3500 
L 2356 3500 
L 2356 3053 
L 1172 3053 
L 1172 1153 
Q 1172 725 1289 603 
Q 1406 481 1766 481 
L 2356 481 
L 2356 0 
L 1766 0 
Q 1100 0 847 248 
Q 594 497 594 1153 
L 594 3053 
L 172 3053 
L 172 3500 
L 594 3500 
L 594 4494 
L 1172 4494 
z
" transform="scale(0.015625)"/>
       <path id="DejaVuSans-75" d="M 544 1381 
L 544 3500 
L 1119 3500 
L 1119 1403 
Q 1119 906 1312 657 
Q 1506 409 1894 409 
Q 2359 409 2629 706 
Q 2900 1003 2900 1516 
L 2900 3500 
L 3475 3500 
L 3475 0 
L 2900 0 
L 2900 538 
Q 2691 219 2414 64 
Q 2138 -91 1772 -91 
Q 1169 -91 856 284 
Q 544 659 544 1381 
z
M 1991 3584 
L 1991 3584 
z
" transform="scale(0.015625)"/>
       <path id="DejaVuSans-2c" d="M 750 794 
L 1409 794 
L 1409 256 
L 897 -744 
L 494 -744 
L 750 256 
L 750 794 
z
" transform="scale(0.015625)"/>
       <path id="DejaVuSans-70" d="M 1159 525 
L 1159 -1331 
L 581 -1331 
L 581 3500 
L 1159 3500 
L 1159 2969 
Q 1341 3281 1617 3432 
Q 1894 3584 2278 3584 
Q 2916 3584 3314 3078 
Q 3713 2572 3713 1747 
Q 3713 922 3314 415 
Q 2916 -91 2278 -91 
Q 1894 -91 1617 61 
Q 1341 213 1159 525 
z
M 3116 1747 
Q 3116 2381 2855 2742 
Q 2594 3103 2138 3103 
Q 1681 3103 1420 2742 
Q 1159 2381 1159 1747 
Q 1159 1113 1420 752 
Q 1681 391 2138 391 
Q 2594 391 2855 752 
Q 3116 1113 3116 1747 
z
" transform="scale(0.015625)"/>
      </defs>
      <use xlink:href="#DejaVuSans-46"/>
      <use xlink:href="#DejaVuSans-72" x="50.269531"/>
      <use xlink:href="#DejaVuSans-61" x="91.382812"/>
      <use xlink:href="#DejaVuSans-63" x="152.662109"/>
      <use xlink:href="#DejaVuSans-74" x="207.642578"/>
      <use xlink:href="#DejaVuSans-69" x="246.851562"/>
      <use xlink:href="#DejaVuSans-6f" x="274.634766"/>
      <use xlink:href="#DejaVuSans-6e" x="335.816406"/>
      <use xlink:href="#DejaVuSans-20" x="399.195312"/>
      <use xlink:href="#DejaVuSans-6f" x="430.982422"/>
      <use xlink:href="#DejaVuSans-66" x="492.164062"/>
      <use xlink:href="#DejaVuSans-20" x="527.369141"/>
      <use xlink:href="#DejaVuSans-66" x="559.15625"/>
      <use xlink:href="#DejaVuSans-75" x="594.361328"/>
      <use xlink:href="#DejaVuSans-6e" x="657.740234"/>
      <use xlink:href="#DejaVuSans-63" x="721.119141"/>
      <use xlink:href="#DejaVuSans-74" x="776.099609"/>
      <use xlink:href="#DejaVuSans-69" x="815.308594"/>
      <use xlink:href="#DejaVuSans-6f" x="843.091797"/>
      <use xlink:href="#DejaVuSans-6e" x="904.273438"/>
      <use xlink:href="#DejaVuSans-2c" x="967.652344"/>
      <use xlink:href="#DejaVuSans-74" x="999.439453"/>
      <use xlink:href="#DejaVuSans-61" x="1038.648438"/>
      <use xlink:href="#DejaVuSans-72" x="1099.927734"/>
      <use xlink:href="#DejaVuSans-67" x="1139.291016"/>
      <use xlink:href="#DejaVuSans-65" x="1202.767578"/>
      <use xlink:href="#DejaVuSans-74" x="1264.291016"/>
      <use xlink:href="#DejaVuSans-20" x="1303.5"/>
      <use xlink:href="#DejaVuSans-70" x="1335.287109"/>
      <use xlink:href="#DejaVuSans-61" x="1398.763672"/>
      <use xlink:href="#DejaVuSans-69" x="1460.042969"/>
      <use xlink:href="#DejaVuSans-72" x="1487.826172"/>
      <use xlink:href="#DejaVuSans-73" x="1528.939453"/>
     </g>
    </g>
   </g>
   <g id="line2d_33">
    <defs>
     <path id="m7875854eae" d="M 0 1.5 
C 0.397805 1.5 0.77937 1.341951 1.06066 1.06066 
C 1.341951 0.77937 1.5 0.397805 1.5 0 
C 1.5 -0.397805 1.341951 -0.77937 1.06066 -1.06066 
C 0.77937 -1.341951 0.397805 -1.5 0 -1.5 
C -0.397805 -1.5 -0.77937 -1.341951 -1.06066 -1.06066 
C -1.341951 -0.77937 -1.5 -0.397805 -1.5 0 
C -1.5 0.397805 -1.341951 0.77937 -1.06066 1.06066 
C -0.77937 1.341951 -0.397805 1.5 0 1.5 
z
" style="stroke: #f5deb3"/>
    </defs>
    <g>
     <use xlink:href="#m7875854eae" x="150.693856" y="27.648" style="fill: #f5deb3; stroke: #f5deb3"/>
     <use xlink:href="#m7875854eae" x="150.693856" y="27.648" style="fill: #f5deb3; stroke: #f5deb3"/>
    </g>
   </g>
   <g id="line2d_34">
    <defs>
     <path id="m50497bce45" d="M 0 1.5 
C 0.397805 1.5 0.77937 1.341951 1.06066 1.06066 
C 1.341951 0.77937 1.5 0.397805 1.5 0 
C 1.5 -0.397805 1.341951 -0.77937 1.06066 -1.06066 
C 0.77937 -1.341951 0.397805 -1.5 0 -1.5 
C -0.397805 -1.5 -0.77937 -1.341951 -1.06066 -1.06066 
C -1.341951 -0.77937 -1.5 -0.397805 -1.5 0 
C -1.5 0.397805 -1.341951 0.77937 -1.06066 1.06066 
C -0.77937 1.341951 -0.397805 1.5 0 1.5 
z
" style="stroke: #000080"/>
    </defs>
    <g>
     <use xlink:href="#m50497bce45" x="221.862135" y="27.648" style="fill: #000080; stroke: #000080"/>
     <use xlink:href="#m50497bce45" x="221.862135" y="27.648" style="fill: #000080; stroke: #000080"/>
    </g>
   </g>
   <g id="line2d_35">
    <path d="M 44.560826 298.944 
L 44.560826 224.470588 
L 109.159456 224.470588 
L 109.159456 211.703718 
L 119.944983 211.703718 
L 119.944983 207.448094 
L 132.812362 207.448094 
L 132.812362 203.192471 
L 138.180913 203.192471 
L 138.180913 202.128565 
L 144.602918 202.128565 
L 144.602918 195.745129 
L 145.326529 195.745129 
L 145.326529 189.361694 
L 148.352679 189.361694 
L 148.352679 188.297788 
L 148.947561 188.297788 
L 148.947561 179.786541 
L 150.559965 179.786541 
L 150.559965 178.722635 
L 151.60532 178.722635 
L 151.668766 170.211388 
L 152.106991 170.211388 
L 152.106991 169.147482 
L 152.53524 169.147482 
L 152.53524 167.019671 
L 152.835271 167.019671 
L 152.835271 164.891859 
L 153.130592 164.891859 
L 153.130592 163.827953 
L 154.212341 163.827953 
L 154.212341 162.764047 
L 154.811312 162.764047 
L 154.811312 161.700141 
L 155.598521 161.700141 
L 155.598521 160.636235 
L 156.793307 160.636235 
L 156.793307 159.572329 
L 157.175281 159.572329 
L 157.269574 157.444518 
L 157.549652 157.444518 
L 157.549652 156.380612 
L 157.734081 156.380612 
L 157.734081 155.316706 
L 157.962102 155.316706 
L 157.962102 153.188894 
L 158.14255 153.188894 
L 158.14255 152.124988 
L 158.276759 152.124988 
L 158.276759 151.061082 
L 158.717331 151.061082 
L 158.804221 144.677647 
L 159.14782 144.677647 
L 159.14782 142.549835 
L 159.317295 142.549835 
L 159.317295 141.485929 
L 159.527013 141.485929 
L 159.527013 135.102494 
L 161.316153 135.102494 
L 161.316153 128.719059 
L 162.168843 128.719059 
L 162.168843 126.591247 
L 162.38507 126.591247 
L 162.38507 125.527341 
L 162.56338 125.527341 
L 162.56338 124.463435 
L 162.915008 124.463435 
L 162.949812 120.207812 
L 163.79962 120.207812 
L 163.79962 119.143906 
L 164.194282 119.143906 
L 164.194282 114.888282 
L 168.010586 114.888282 
L 168.010586 113.824376 
L 168.867575 113.824376 
L 168.867575 112.760471 
L 169.144777 112.760471 
L 169.144777 111.696565 
L 169.294273 111.696565 
L 169.294273 110.632659 
L 169.565302 110.632659 
L 169.638546 104.249224 
L 169.880655 104.249224 
L 169.880655 97.865788 
L 170.402572 97.865788 
L 170.402572 96.801882 
L 170.773255 96.801882 
L 170.864796 92.546259 
L 170.887612 92.546259 
L 170.887612 90.418447 
L 177.60406 90.418447 
L 177.60406 89.354541 
L 179.856935 89.354541 
L 179.856935 88.290635 
L 181.483135 88.290635 
L 181.483135 80.843294 
L 181.868631 80.843294 
L 181.868631 68.076424 
L 182.931853 68.076424 
L 182.931853 65.948612 
L 183.194455 65.948612 
L 183.277247 61.692988 
L 184.410747 61.692988 
L 184.410747 60.629082 
L 206.836919 60.629082 
L 206.836919 56.373459 
L 221.668412 56.373459 
L 221.760184 42.542682 
L 221.781533 42.542682 
L 221.862135 27.648 
L 360.8064 27.648 
L 360.8064 27.648 
" style="fill: none; stroke: #000080; stroke-width: 1.5; stroke-linecap: square"/>
   </g>
   <g id="line2d_36">
    <defs>
     <path id="m9d8526e3b8" d="M 0 6 
C 1.591219 6 3.117479 5.367802 4.242641 4.242641 
C 5.367802 3.117479 6 1.591219 6 0 
C 6 -1.591219 5.367802 -3.117479 4.242641 -4.242641 
C 3.117479 -5.367802 1.591219 -6 0 -6 
C -1.591219 -6 -3.117479 -5.367802 -4.242641 -4.242641 
C -5.367802 -3.117479 -6 -1.591219 -6 0 
C -6 1.591219 -5.367802 3.117479 -4.242641 4.242641 
C -3.117479 5.367802 -1.591219 6 0 6 
z
" style="stroke: #000080; stroke-width: 1.5"/>
    </defs>
    <g>
     <use xlink:href="#m9d8526e3b8" x="145.326529" y="189.361694" style="fill-opacity: 0; stroke: #000080; stroke-width: 1.5"/>
     <use xlink:href="#m9d8526e3b8" x="183.194455" y="65.948612" style="fill-opacity: 0; stroke: #000080; stroke-width: 1.5"/>
     <use xlink:href="#m9d8526e3b8" x="221.862135" y="30.839718" style="fill-opacity: 0; stroke: #000080; stroke-width: 1.5"/>
     <use xlink:href="#m9d8526e3b8" x="221.862135" y="27.648" style="fill-opacity: 0; stroke: #000080; stroke-width: 1.5"/>
     <use xlink:href="#m9d8526e3b8" x="221.862135" y="27.648" style="fill-opacity: 0; stroke: #000080; stroke-width: 1.5"/>
     <use xlink:href="#m9d8526e3b8" x="360.8064" y="27.648" style="fill-opacity: 0; stroke: #000080; stroke-width: 1.5"/>
    </g>
   </g>
   <g id="line2d_37">
    <path style="fill: none; stroke: #000080; stroke-width: 1.5; stroke-linecap: square"/>
    <g/>
   </g>
   <g id="line2d_38">
    <defs>
     <path id="mc868c497bc" d="M 0 1.5 
C 0.397805 1.5 0.77937 1.341951 1.06066 1.06066 
C 1.341951 0.77937 1.5 0.397805 1.5 0 
C 1.5 -0.397805 1.341951 -0.77937 1.06066 -1.06066 
C 0.77937 -1.341951 0.397805 -1.5 0 -1.5 
C -0.397805 -1.5 -0.77937 -1.341951 -1.06066 -1.06066 
C -1.341951 -0.77937 -1.5 -0.397805 -1.5 0 
C -1.5 0.397805 -1.341951 0.77937 -1.06066 1.06066 
C -0.77937 1.341951 -0.397805 1.5 0 1.5 
z
" style="stroke: #ff00ff"/>
    </defs>
    <g>
     <use xlink:href="#mc868c497bc" x="228.474217" y="27.648" style="fill: #ff00ff; stroke: #ff00ff"/>
     <use xlink:href="#mc868c497bc" x="228.474217" y="27.648" style="fill: #ff00ff; stroke: #ff00ff"/>
    </g>
   </g>
   <g id="line2d_39">
    <path d="M 44.560826 298.944 
L 44.560826 224.470588 
L 57.6 224.470588 
L 57.6 223.619464 
L 81.166416 223.619464 
L 81.166416 223.406682 
L 87.876026 223.406682 
L 87.876026 223.193901 
L 89.668958 223.193901 
L 89.668958 222.129995 
L 95.503454 222.129995 
L 95.503454 221.491652 
L 97.857967 221.491652 
L 97.857967 221.066089 
L 99.950294 220.995162 
L 99.950294 220.498673 
L 103.544339 220.498673 
L 103.544339 220.285892 
L 105.112877 220.285892 
L 105.112877 220.144038 
L 107.244765 220.144038 
L 107.244765 220.002184 
L 108.542628 220.002184 
L 108.542628 219.789402 
L 111.442442 219.718475 
L 111.442442 219.647548 
L 112.487797 219.576621 
L 112.487797 219.080132 
L 114.418881 219.009205 
L 114.418881 218.867351 
L 116.170056 218.796424 
L 116.170056 218.654569 
L 118.524569 218.583642 
L 118.524569 218.512715 
L 119.24818 218.512715 
L 119.24818 218.299934 
L 119.599808 218.299934 
L 119.599808 218.087153 
L 120.28394 218.087153 
L 120.28394 217.945299 
L 122.19863 217.874372 
L 122.19863 217.803445 
L 123.936316 217.803445 
L 123.936316 214.398946 
L 125.526971 214.328019 
L 125.526971 213.902456 
L 126.028642 213.902456 
L 126.028642 213.264113 
L 126.756923 213.264113 
L 126.756923 213.122259 
L 126.993549 213.122259 
L 126.993549 212.980405 
L 127.911368 212.980405 
L 127.911368 212.696696 
L 128.133992 212.696696 
L 128.133992 212.058353 
L 129.826058 211.987426 
L 129.826058 211.916499 
L 130.027253 211.916499 
L 130.027253 211.561864 
L 130.226319 211.561864 
L 130.226319 210.92352 
L 130.618241 210.92352 
L 130.618241 209.788687 
L 131.563744 209.788687 
L 131.563744 209.646833 
L 131.747272 209.646833 
L 131.747272 209.434052 
L 133.490329 209.363125 
L 133.490329 209.221271 
L 134.14471 209.221271 
L 134.14471 208.157365 
L 134.620977 208.086438 
L 134.620977 207.944584 
L 135.085483 207.873656 
L 135.085483 207.802729 
L 135.388902 207.802729 
L 135.388902 207.660875 
L 135.687504 207.660875 
L 135.687504 207.235313 
L 136.270855 207.164386 
L 136.270855 207.093459 
L 136.555884 207.093459 
L 136.555884 206.951605 
L 136.97549 206.880678 
L 136.97549 206.809751 
L 137.919637 206.738824 
L 137.919637 206.242334 
L 139.313723 206.171407 
L 139.313723 206.10048 
L 140.26641 206.029553 
L 140.26641 205.958626 
L 141.173167 205.887699 
L 141.173167 205.462136 
L 142.038218 205.462136 
L 142.038218 205.320282 
L 142.865233 205.249355 
L 142.865233 205.178428 
L 143.364242 205.178428 
L 143.364242 204.965647 
L 144.602918 204.89472 
L 144.602918 204.752866 
L 145.237585 204.752866 
L 145.237585 203.050616 
L 145.590864 203.050616 
L 145.678157 202.199492 
L 145.93763 202.199492 
L 145.93763 201.773929 
L 146.193574 201.773929 
L 146.193574 197.943868 
L 146.446082 197.872941 
L 146.446082 197.802014 
L 146.612557 197.802014 
L 146.612557 197.66016 
L 146.859539 197.66016 
L 146.859539 196.667181 
L 147.103321 196.667181 
L 147.103321 196.525327 
L 147.423525 196.525327 
L 147.502732 195.886984 
L 147.816265 195.886984 
L 147.893838 195.461421 
L 148.276979 195.461421 
L 148.276979 194.539369 
L 148.874221 194.468442 
L 148.874221 193.759172 
L 149.165879 193.759172 
L 149.165879 193.617318 
L 149.453084 193.546391 
L 149.453084 193.475464 
L 149.806031 193.404536 
L 149.806031 193.333609 
L 149.945377 193.333609 
L 149.945377 193.191755 
L 150.152479 193.191755 
L 150.152479 192.553412 
L 150.559965 192.553412 
L 150.559965 192.411558 
L 150.693856 192.411558 
L 150.693856 192.198776 
L 150.892922 192.198776 
L 150.892922 191.773214 
L 151.284843 191.702287 
L 151.284843 191.63136 
L 151.41369 191.63136 
L 151.41369 191.418579 
L 151.731998 191.347652 
L 151.731998 191.276725 
L 151.857828 191.276725 
L 151.857828 190.993016 
L 152.106991 190.993016 
L 152.106991 190.780235 
L 152.775647 190.709308 
L 152.835271 190.4256 
L 153.650761 190.354673 
L 153.707679 190.141892 
L 153.877408 190.141892 
L 153.877408 190.000038 
L 154.971412 189.929111 
L 154.971412 189.716329 
L 155.13016 189.716329 
L 155.13016 189.574475 
L 156.105602 189.503548 
L 156.105602 189.290767 
L 156.501649 189.21984 
L 156.501649 189.148913 
L 157.363398 189.077986 
L 157.456756 188.155934 
L 157.825621 188.155934 
L 157.825621 187.801299 
L 158.052543 187.801299 
L 158.052543 187.588518 
L 158.232129 187.588518 
L 158.276759 187.162955 
L 158.542339 187.092028 
L 158.630038 185.389779 
L 158.890711 185.318852 
L 158.976805 185.106071 
L 159.190332 185.106071 
L 159.232748 184.893289 
L 159.651731 184.822362 
L 159.651731 184.680508 
L 159.857774 184.680508 
L 159.898714 184.3968 
L 159.980326 184.3968 
L 160.061585 184.042165 
L 160.303279 183.971238 
L 160.303279 183.829384 
L 160.422971 183.829384 
L 160.422971 183.616602 
L 161.010268 183.616602 
L 161.010268 183.403821 
L 161.316153 183.403821 
L 161.316153 182.907332 
L 161.42959 182.907332 
L 161.467251 182.552696 
L 161.691646 182.552696 
L 161.765853 182.127134 
L 161.986735 182.127134 
L 162.096211 181.488791 
L 162.241195 181.417864 
L 162.349204 181.134155 
L 162.38507 181.134155 
L 162.492258 180.566739 
L 162.634233 180.495812 
L 162.704821 180.353958 
L 162.810208 180.353958 
L 162.810208 180.141176 
L 162.984551 180.141176 
L 163.019227 179.644687 
L 163.122872 179.644687 
L 163.22595 178.793562 
L 163.362513 178.722635 
L 163.464289 177.233167 
L 163.632702 177.16224 
L 163.666204 176.736678 
L 163.865975 176.665751 
L 163.899064 176.311115 
L 164.063646 176.311115 
L 164.161708 174.467012 
L 164.259262 174.467012 
L 164.324018 174.041449 
L 164.580835 173.970522 
L 164.580835 173.899595 
L 164.834193 173.828668 
L 164.897003 173.474033 
L 165.146166 173.403106 
L 165.207944 172.977544 
L 165.330896 172.906616 
L 165.392072 172.693835 
L 165.574415 172.693835 
L 165.604634 171.913638 
L 165.755007 171.842711 
L 165.844657 171.346221 
L 165.933882 171.346221 
L 165.993131 171.13344 
L 166.169767 171.13344 
L 166.257466 170.778805 
L 166.40273 170.707878 
L 166.40273 170.636951 
L 166.632844 170.566024 
L 166.632844 170.495096 
L 166.972821 170.424169 
L 166.972821 170.282315 
L 167.526142 170.282315 
L 167.526142 169.856753 
L 167.742992 169.785826 
L 167.742992 169.714899 
L 167.957371 169.643972 
L 168.063651 169.431191 
L 168.195663 169.431191 
L 168.274427 169.005628 
L 168.430973 168.934701 
L 168.430973 168.863774 
L 168.740211 168.792847 
L 168.842171 168.580066 
L 169.194741 168.509139 
L 169.194741 168.367285 
L 169.343842 168.367285 
L 169.343842 168.225431 
L 169.735764 168.154504 
L 169.832482 167.019671 
L 169.880655 167.019671 
L 169.976632 166.523181 
L 170.167131 166.452254 
L 170.167131 166.3104 
L 170.308749 166.3104 
L 170.308749 166.168546 
L 170.449309 166.168546 
L 170.519197 165.884838 
L 170.635104 165.884838 
L 170.681267 165.672056 
L 170.819081 165.601129 
L 170.819081 165.530202 
L 171.181725 165.459275 
L 171.271304 165.246494 
L 171.293632 165.246494 
L 171.293632 164.608151 
L 171.47131 164.608151 
L 171.537509 164.324442 
L 171.71291 164.253515 
L 171.800001 163.331464 
L 171.865055 163.331464 
L 171.972982 162.764047 
L 172.037442 162.764047 
L 172.123046 162.551266 
L 172.356469 162.480339 
L 172.440637 161.700141 
L 172.670177 161.700141 
L 172.690906 161.416433 
L 172.896949 161.345506 
L 172.958324 160.849016 
L 173.080478 160.849016 
L 173.12102 160.352527 
L 173.242125 160.352527 
L 173.342453 159.997892 
L 173.362455 159.997892 
L 173.442249 159.430475 
L 173.521707 159.430475 
L 173.60083 158.011934 
L 173.640268 158.011934 
L 173.640268 157.87008 
L 173.758086 157.87008 
L 173.836223 156.735247 
L 173.894614 156.735247 
L 173.952824 155.955049 
L 174.068707 155.884122 
L 174.107176 155.245779 
L 174.241203 155.245779 
L 174.317363 154.820216 
L 174.412132 154.820216 
L 174.506426 154.536508 
L 174.525228 154.536508 
L 174.581522 153.827238 
L 174.637648 153.827238 
L 174.693607 152.905186 
L 174.878944 152.834259 
L 174.970932 152.266842 
L 175.02591 152.195915 
L 175.117184 151.486645 
L 175.262307 151.415718 
L 175.352444 151.061082 
L 175.442151 150.990155 
L 175.477915 150.777374 
L 175.567027 150.777374 
L 175.620293 149.642541 
L 175.708734 149.571614 
L 175.814319 149.075125 
L 175.88438 149.004198 
L 175.901855 148.791416 
L 176.023726 148.720489 
L 176.075715 146.663605 
L 176.179266 146.663605 
L 176.213656 146.379896 
L 176.469599 146.308969 
L 176.537267 145.954334 
L 176.655103 145.883407 
L 176.75552 145.741553 
L 176.987765 145.670626 
L 177.086427 145.528772 
L 177.184574 145.457845 
L 177.282212 145.103209 
L 177.427726 145.032282 
L 177.427726 144.819501 
L 177.54013 144.819501 
L 177.556133 144.464866 
L 177.731273 144.393939 
L 177.826122 144.252085 
L 177.889089 144.252085 
L 177.904798 143.897449 
L 178.138873 143.826522 
L 178.154375 143.684668 
L 178.308695 143.613741 
L 178.385383 143.40096 
L 178.492224 143.330033 
L 178.537828 143.188179 
L 178.6589 143.117252 
L 178.6589 142.975398 
L 178.898732 142.904471 
L 178.958215 142.620762 
L 179.311218 142.620762 
L 179.412941 142.266127 
L 179.427429 142.266127 
L 179.427429 142.053346 
L 179.614753 141.982419 
L 179.686307 141.698711 
L 179.983897 141.627784 
L 179.983897 141.556856 
L 180.359723 141.485929 
L 180.469652 141.273148 
L 180.70114 141.202221 
L 180.809098 141.060367 
L 180.889661 140.98944 
L 180.996545 140.847586 
L 181.287383 140.776659 
L 181.287383 140.705732 
L 181.612513 140.634805 
L 181.612513 140.563878 
L 183.639581 140.492951 
L 183.697374 140.351096 
L 184.198438 140.280169 
L 184.198438 140.209242 
L 185.001391 140.138315 
L 185.098054 139.854607 
L 185.374543 139.854607 
L 185.374543 139.712753 
L 185.719719 139.641826 
L 185.719719 139.570899 
L 187.573796 139.570899 
L 187.676822 138.506993 
L 187.825678 138.436066 
L 187.918118 138.010504 
L 188.046776 137.939576 
L 188.129022 135.102494 
L 188.192744 135.102494 
L 188.292444 133.967661 
L 188.310515 133.967661 
L 188.382625 131.556141 
L 188.454459 131.485214 
L 188.543867 130.775944 
L 188.570607 130.775944 
L 188.61509 130.066673 
L 188.686043 130.066673 
L 188.774361 129.428329 
L 188.984646 129.357402 
L 189.0629 129.215548 
L 189.29573 129.144621 
L 189.372704 127.938861 
L 189.440862 127.938861 
L 189.551095 126.874955 
L 189.576441 126.874955 
L 189.652278 125.952904 
L 189.711051 125.881976 
L 189.819716 124.959925 
L 189.861343 124.888998 
L 189.911175 124.605289 
L 190.018694 124.534362 
L 190.125601 124.1088 
L 190.150186 124.1088 
L 190.215589 123.328602 
L 190.280766 123.328602 
L 190.36192 122.619332 
L 190.426593 122.619332 
L 190.491043 122.122842 
L 190.841629 122.051915 
L 190.841629 121.980988 
L 191.05357 121.980988 
L 191.115912 120.704301 
L 191.170292 120.704301 
L 191.255429 119.924104 
L 191.309408 119.853176 
L 191.386253 119.214833 
L 191.424558 119.214833 
L 191.508555 116.377751 
L 191.554214 116.377751 
L 191.630067 115.313845 
L 191.69053 115.313845 
L 191.795875 114.604574 
L 191.803377 114.604574 
L 191.900634 113.540668 
L 191.923006 113.540668 
L 192.019647 112.831398 
L 192.056685 112.831398 
L 192.115795 112.0512 
L 192.196768 111.980273 
L 192.306628 109.568753 
L 192.343105 109.497826 
L 192.452116 107.653722 
L 192.459361 107.653722 
L 192.546084 107.157233 
L 192.5821 107.157233 
L 192.646757 106.447962 
L 192.718339 106.377035 
L 192.825202 105.880546 
L 192.832305 105.880546 
L 192.938525 105.384056 
L 192.945585 105.384056 
L 193.0301 104.320151 
L 193.128223 104.249224 
L 193.23279 103.823661 
L 193.288323 103.823661 
L 193.364413 103.256245 
L 193.631734 103.185318 
L 193.733547 102.192339 
L 193.767362 102.192339 
L 193.875165 101.19936 
L 193.89531 101.19936 
L 194.002384 100.561016 
L 194.015725 100.490089 
L 194.115486 99.9936 
L 194.17509 99.922673 
L 194.234505 99.497111 
L 194.287162 99.497111 
L 194.378958 99.071548 
L 194.476816 99.000621 
L 194.554737 98.78784 
L 194.677457 98.716913 
L 194.754554 98.362278 
L 194.850482 98.291351 
L 194.933226 97.865788 
L 195.02193 97.794861 
L 195.129083 94.674071 
L 195.173028 94.603144 
L 195.260611 93.610165 
L 195.291792 93.610165 
L 195.341575 93.113675 
L 195.48397 93.042748 
L 195.594663 92.546259 
L 195.637534 92.475332 
L 195.637534 92.404405 
L 195.898768 92.333478 
L 195.995053 91.907915 
L 196.054981 91.836988 
L 196.054981 91.766061 
L 196.257322 91.695134 
L 196.351793 90.914936 
L 196.428203 90.914936 
L 196.48677 90.489374 
L 196.568458 90.418447 
L 196.638195 90.205666 
L 196.719229 90.205666 
L 196.788411 89.851031 
L 196.926015 89.780104 
L 196.948851 89.638249 
L 197.192608 89.567322 
L 197.192608 89.496395 
L 197.416558 89.425468 
L 197.505397 89.14176 
L 197.59933 89.070833 
L 197.59933 88.999906 
L 197.742093 88.999906 
L 197.813069 88.645271 
L 197.883779 88.574344 
L 197.883779 88.503416 
L 198.18003 88.432489 
L 198.190716 88.290635 
L 198.62367 88.219708 
L 198.62367 88.148781 
L 199.041779 88.077854 
L 199.082574 86.872094 
L 199.17404 86.872094 
L 199.254972 86.233751 
L 199.355649 86.162824 
L 199.450797 84.105939 
L 199.48573 84.105939 
L 199.590142 80.772367 
L 199.614917 80.772367 
L 199.718617 79.49568 
L 199.757971 79.424753 
L 199.855999 79.070118 
L 200.065046 78.999191 
L 200.103683 78.786409 
L 200.267012 78.715482 
L 200.36243 78.360847 
L 200.390961 78.28992 
L 200.485754 77.935285 
L 200.518819 77.935285 
L 200.62236 77.013233 
L 200.6505 76.942306 
L 200.743997 76.516744 
L 200.804522 76.445816 
L 200.906507 75.949327 
L 200.948069 75.8784 
L 201.040102 75.523765 
L 201.113406 75.452838 
L 201.195533 75.027275 
L 201.507072 74.956348 
L 201.583042 74.530786 
L 201.618687 74.530786 
L 201.667588 73.963369 
L 201.844348 73.892442 
L 201.949613 73.395953 
L 201.962729 73.325026 
L 202.049941 72.899464 
L 202.11075 72.899464 
L 202.214538 71.551849 
L 202.292005 71.480922 
L 202.381982 69.707746 
L 202.411879 69.707746 
L 202.514023 66.303247 
L 202.530993 66.23232 
L 202.636712 64.104508 
L 202.657785 64.104508 
L 202.750225 61.692988 
L 202.808815 61.622061 
L 202.917143 60.345374 
L 202.958642 60.274447 
L 203.049619 60.061666 
L 203.090828 59.990739 
L 203.164776 59.565176 
L 203.209824 59.565176 
L 203.307737 58.784979 
L 203.336199 58.784979 
L 203.441541 58.146635 
L 203.457695 58.146635 
L 203.558346 57.153656 
L 203.578411 57.153656 
L 203.67842 56.231605 
L 203.690385 56.231605 
L 203.690385 55.947896 
L 203.817545 55.947896 
L 203.920232 55.522334 
L 203.998843 55.451407 
L 204.088841 54.813064 
L 204.116147 54.813064 
L 204.205587 54.17472 
L 204.28688 54.103793 
L 204.3139 53.891012 
L 204.433094 53.820085 
L 204.532485 53.394522 
L 204.635146 53.323595 
L 204.714607 53.110814 
L 204.752328 53.110814 
L 204.816281 52.827106 
L 204.887502 52.756179 
L 204.99569 52.117835 
L 205.15128 52.046908 
L 205.169718 51.834127 
L 205.531103 51.7632 
L 205.606876 51.479492 
L 205.728913 51.408565 
L 205.746793 51.195784 
L 206.1184 51.124856 
L 206.212782 50.770221 
L 206.451849 50.699294 
L 206.530867 50.486513 
L 206.616382 50.486513 
L 206.65048 50.273732 
L 207.220875 50.202805 
L 207.303317 49.777242 
L 207.385399 49.706315 
L 207.486686 49.280753 
L 207.532251 49.209826 
L 207.577705 48.997045 
L 207.665058 48.926118 
L 207.687639 48.784264 
L 207.997788 48.713336 
L 207.997788 48.642409 
L 208.12421 48.571482 
L 208.168258 48.429628 
L 208.538557 48.358701 
L 208.538557 48.216847 
L 208.792585 48.14592 
L 208.874487 47.933139 
L 209.284654 47.862212 
L 209.388023 47.507576 
L 209.423333 47.436649 
L 209.528868 47.082014 
L 209.56975 47.011087 
L 209.674469 46.514598 
L 209.697661 46.443671 
L 209.795909 46.018108 
L 209.939465 45.947181 
L 210.036461 45.379765 
L 210.081934 45.308838 
L 210.161248 44.883275 
L 210.234599 44.812348 
L 210.307664 44.457713 
L 210.613686 44.386786 
L 210.699037 44.174005 
L 211.103952 44.103078 
L 211.195141 43.961224 
L 211.312496 43.890296 
L 211.400035 43.677515 
L 211.492437 43.606588 
L 211.537154 43.464734 
L 211.717571 43.393807 
L 211.75916 43.110099 
L 213.179008 43.039172 
L 213.243905 42.897318 
L 213.6451 42.826391 
L 213.687331 42.613609 
L 213.839047 42.542682 
L 213.839047 42.471755 
L 214.724514 42.400828 
L 214.748894 42.188047 
L 215.283876 42.11712 
L 215.283876 42.046193 
L 215.601946 41.975266 
L 215.63367 41.833412 
L 216.559336 41.762485 
L 216.641636 41.620631 
L 217.493338 41.549704 
L 217.531584 41.407849 
L 218.353915 41.336922 
L 218.353915 41.265995 
L 218.864438 41.265995 
L 218.974458 35.875539 
L 219.011578 35.804612 
L 219.110206 34.102362 
L 219.152317 34.031435 
L 219.258928 32.754748 
L 219.272865 32.683821 
L 219.378797 31.903624 
L 219.423768 31.832696 
L 219.456563 31.619915 
L 219.645315 31.548988 
L 219.708381 31.26528 
L 219.788189 31.194353 
L 219.852467 30.910645 
L 220.012208 30.839718 
L 220.020578 30.697864 
L 220.458942 30.626936 
L 220.458942 30.556009 
L 222.134826 30.485082 
L 222.239235 29.563031 
L 222.335671 29.492104 
L 222.335671 29.421176 
L 222.49335 29.350249 
L 222.56658 28.924687 
L 222.690423 28.85376 
L 222.778798 28.711906 
L 222.902691 28.640979 
L 222.902691 28.570052 
L 223.037183 28.499125 
L 223.122528 28.286344 
L 223.49769 28.215416 
L 223.49769 28.144489 
L 224.976645 28.073562 
L 224.976645 28.002635 
L 225.324486 27.931708 
L 225.393792 27.789854 
L 228.474217 27.718927 
L 228.474217 27.648 
L 360.8064 27.648 
L 360.8064 27.648 
" style="fill: none; stroke: #ff00ff; stroke-width: 1.5; stroke-linecap: square"/>
   </g>
   <g id="line2d_40">
    <defs>
     <path id="m3483befef5" d="M -0 8.485281 
L 5.091169 0 
L 0 -8.485281 
L -5.091169 -0 
z
" style="stroke: #ff00ff; stroke-width: 1.5; stroke-linejoin: miter"/>
    </defs>
    <g>
     <use xlink:href="#m3483befef5" x="89.668958" y="222.129995" style="fill-opacity: 0; stroke: #ff00ff; stroke-width: 1.5; stroke-linejoin: miter"/>
     <use xlink:href="#m3483befef5" x="179.427429" y="142.266127" style="fill-opacity: 0; stroke: #ff00ff; stroke-width: 1.5; stroke-linejoin: miter"/>
     <use xlink:href="#m3483befef5" x="208.874487" y="48.004066" style="fill-opacity: 0; stroke: #ff00ff; stroke-width: 1.5; stroke-linejoin: miter"/>
     <use xlink:href="#m3483befef5" x="228.474217" y="27.648" style="fill-opacity: 0; stroke: #ff00ff; stroke-width: 1.5; stroke-linejoin: miter"/>
     <use xlink:href="#m3483befef5" x="228.474217" y="27.648" style="fill-opacity: 0; stroke: #ff00ff; stroke-width: 1.5; stroke-linejoin: miter"/>
     <use xlink:href="#m3483befef5" x="360.8064" y="27.648" style="fill-opacity: 0; stroke: #ff00ff; stroke-width: 1.5; stroke-linejoin: miter"/>
    </g>
   </g>
   <g id="line2d_41">
    <path style="fill: none; stroke: #ff00ff; stroke-width: 1.5; stroke-linecap: square"/>
    <g/>
   </g>
   <g id="line2d_42">
    <path d="M 105.850679 220.144038 
" clip-path="url(#pef722f2943)" style="fill: none; stroke: #ff00ff; stroke-width: 1.5; stroke-linecap: square"/>
    <defs>
     <path id="mc62b7c6853" d="M -12 12 
L 12 -12 
M -12 -12 
L 12 12 
" style="stroke: #ff00ff"/>
    </defs>
    <g clip-path="url(#pef722f2943)">
     <use xlink:href="#mc62b7c6853" x="105.850679" y="220.144038" style="fill: #ff00ff; stroke: #ff00ff"/>
    </g>
   </g>
   <g id="line2d_43">
    <defs>
     <path id="mab9a0f2bc8" d="M 0 1.5 
C 0.397805 1.5 0.77937 1.341951 1.06066 1.06066 
C 1.341951 0.77937 1.5 0.397805 1.5 0 
C 1.5 -0.397805 1.341951 -0.77937 1.06066 -1.06066 
C 0.77937 -1.341951 0.397805 -1.5 0 -1.5 
C -0.397805 -1.5 -0.77937 -1.341951 -1.06066 -1.06066 
C -1.341951 -0.77937 -1.5 -0.397805 -1.5 0 
C -1.5 0.397805 -1.341951 0.77937 -1.06066 1.06066 
C -0.77937 1.341951 -0.397805 1.5 0 1.5 
z
" style="stroke: #ff7500"/>
    </defs>
    <g>
     <use xlink:href="#mab9a0f2bc8" x="221.384156" y="27.648" style="fill: #ff7500; stroke: #ff7500"/>
     <use xlink:href="#mab9a0f2bc8" x="221.384156" y="27.648" style="fill: #ff7500; stroke: #ff7500"/>
    </g>
   </g>
   <g id="line2d_44">
    <path d="M 44.560826 298.944 
L 44.560826 224.470588 
L 83.678349 224.470588 
L 83.678349 224.257807 
L 87.876026 224.257807 
L 87.876026 223.619464 
L 107.904887 223.619464 
L 107.904887 223.193901 
L 111.442442 223.122974 
L 111.442442 223.052047 
L 111.97238 223.052047 
L 111.97238 222.768339 
L 117.384126 222.768339 
L 117.384126 220.853308 
L 119.599808 220.782381 
L 119.599808 220.640527 
L 119.944983 220.640527 
L 119.944983 220.356819 
L 122.19863 220.285892 
L 122.19863 220.073111 
L 122.795872 220.073111 
L 122.795872 219.221986 
L 123.374735 219.221986 
L 123.374735 215.391925 
L 123.936316 215.391925 
L 123.936316 215.179144 
L 124.210942 215.179144 
L 124.210942 214.5408 
L 125.011554 214.469873 
L 125.011554 214.398946 
L 125.271028 214.398946 
L 125.271028 213.547821 
L 126.993549 213.476894 
L 126.993549 213.122259 
L 128.133992 213.122259 
L 128.133992 212.271134 
L 128.999044 212.200207 
L 128.999044 212.12928 
L 129.417095 212.12928 
L 129.417095 210.92352 
L 129.622688 210.92352 
L 129.622688 210.710739 
L 130.027253 210.639812 
L 130.027253 205.958626 
L 130.4233 205.958626 
L 130.4233 205.745845 
L 130.811181 205.745845 
L 130.811181 205.249355 
L 131.002163 205.249355 
L 131.002163 205.107501 
L 131.378407 205.107501 
L 131.378407 203.334325 
L 132.109044 203.263398 
L 132.109044 203.121544 
L 132.638982 203.050616 
L 132.638982 202.837835 
L 132.984158 202.837835 
L 132.984158 202.695981 
L 134.14471 202.625054 
L 134.14471 202.4832 
L 134.463557 202.412273 
L 134.463557 201.064659 
L 135.085483 200.993732 
L 135.085483 200.780951 
L 135.237805 200.780951 
L 135.237805 200.07168 
L 135.538796 200.07168 
L 135.538796 199.646118 
L 135.981441 199.646118 
L 135.981441 199.433336 
L 136.270855 199.433336 
L 136.270855 199.220555 
L 136.555884 199.220555 
L 136.555884 199.078701 
L 136.97549 199.078701 
L 136.97549 198.936847 
L 137.250116 198.86592 
L 137.250116 198.794993 
L 137.919637 198.794993 
L 137.919637 198.298504 
L 138.438609 198.227576 
L 138.438609 197.802014 
L 138.566146 197.802014 
L 138.566146 197.66016 
L 139.313723 197.589233 
L 139.313723 197.447379 
L 139.796097 197.447379 
L 139.796097 197.234598 
L 139.914782 197.234598 
L 139.914782 196.809035 
L 140.838234 196.738108 
L 140.838234 196.667181 
L 141.50224 196.596254 
L 141.610664 196.099765 
L 141.718467 196.099765 
L 141.825656 195.886984 
L 142.661862 195.816056 
L 142.661862 195.603275 
L 144.136106 195.532348 
L 144.2304 195.177713 
L 145.058426 195.106786 
L 145.058426 195.035859 
L 146.941151 195.035859 
L 146.941151 194.184734 
L 147.502732 194.184734 
L 147.502732 193.617318 
L 147.816265 193.617318 
L 147.816265 192.978974 
L 148.048032 192.978974 
L 148.048032 192.766193 
L 148.57797 192.695266 
L 148.57797 192.624339 
L 148.874221 192.624339 
L 148.874221 192.340631 
L 149.238092 192.269704 
L 149.31003 191.63136 
L 149.665646 191.560433 
L 149.665646 191.489506 
L 149.875833 191.418579 
L 149.945377 190.567454 
L 150.083698 190.567454 
L 150.152479 186.311831 
L 150.425115 186.311831 
L 150.425115 185.744414 
L 150.62703 185.744414 
L 150.62703 184.751435 
L 150.892922 184.751435 
L 150.958812 184.538654 
L 151.089903 184.467727 
L 151.089903 184.3968 
L 151.349377 184.3968 
L 151.349377 184.113092 
L 151.54166 184.113092 
L 151.60532 183.829384 
L 151.795018 183.758456 
L 151.795018 182.765478 
L 152.045009 182.765478 
L 152.045009 182.623624 
L 152.230346 182.623624 
L 152.230346 182.056207 
L 152.655828 182.056207 
L 152.655828 181.914353 
L 153.01302 181.914353 
L 153.071898 180.566739 
L 153.305585 180.566739 
L 153.363556 179.715614 
L 153.478964 179.644687 
L 153.478964 179.502833 
L 153.707679 179.502833 
L 153.707679 179.360979 
L 153.821002 179.360979 
L 153.877408 178.013365 
L 153.933646 178.013365 
L 153.933646 177.800584 
L 154.267588 177.729656 
L 154.267588 177.587802 
L 154.432362 177.587802 
L 154.486967 177.233167 
L 154.595705 177.233167 
L 154.703817 176.736678 
L 154.918196 176.736678 
L 154.918196 176.452969 
L 155.077392 176.452969 
L 155.18278 176.169261 
L 155.235253 176.169261 
L 155.28758 175.95648 
L 155.443693 175.95648 
L 155.495444 175.601845 
L 155.598521 175.601845 
L 155.649849 175.389064 
L 155.802997 175.318136 
L 155.85377 174.537939 
L 155.954908 174.537939 
L 156.005274 174.254231 
L 156.205398 174.254231 
L 156.304668 172.268273 
L 156.501649 172.268273 
L 156.599372 171.13344 
L 156.793307 171.062513 
L 156.88953 170.140461 
L 157.080512 170.069534 
L 157.080512 169.856753 
L 157.456756 169.785826 
L 157.549652 169.431191 
L 157.825621 169.360264 
L 157.825621 169.289336 
L 158.052543 169.289336 
L 158.14255 169.076555 
L 158.498335 169.005628 
L 158.542339 168.863774 
L 158.630038 168.863774 
L 158.630038 168.650993 
L 159.019705 168.580066 
L 159.105212 167.658014 
L 159.359426 167.587087 
L 159.443406 166.948744 
L 159.568678 166.948744 
L 159.651731 165.884838 
L 159.939564 165.884838 
L 159.980326 164.111661 
L 160.061585 164.111661 
L 160.142495 161.700141 
L 160.223059 161.700141 
L 160.263211 161.345506 
L 160.422971 161.345506 
L 160.422971 160.849016 
L 160.541906 160.849016 
L 160.541906 160.707162 
L 160.660094 160.707162 
L 160.699326 159.785111 
L 160.894266 159.714184 
L 160.97168 158.863059 
L 161.125559 158.792132 
L 161.202028 158.082861 
L 161.240147 158.082861 
L 161.316153 157.87008 
L 161.391854 157.799153 
L 161.391854 157.586372 
L 161.504837 157.586372 
L 161.542347 157.231736 
L 161.617145 157.231736 
L 161.691646 155.813195 
L 161.876619 155.742268 
L 161.950101 155.387633 
L 162.05979 155.387633 
L 162.132562 155.103925 
L 162.31327 155.032998 
L 162.38507 154.394654 
L 162.56338 154.323727 
L 162.634233 153.401675 
L 162.775144 153.330748 
L 162.880139 151.770353 
L 162.949812 151.699426 
L 162.949812 151.628499 
L 163.122872 151.557572 
L 163.122872 151.344791 
L 163.362513 151.273864 
L 163.464289 151.061082 
L 163.498092 151.061082 
L 163.498092 150.919228 
L 163.632702 150.919228 
L 163.73303 149.997176 
L 163.766354 149.997176 
L 163.865975 149.42976 
L 163.932096 149.42976 
L 163.96507 148.649562 
L 164.063646 148.649562 
L 164.161708 147.656584 
L 164.194282 147.656584 
L 164.291668 146.450824 
L 164.356312 146.379896 
L 164.452864 145.528772 
L 164.548924 145.528772 
L 164.644495 145.032282 
L 164.676244 145.032282 
L 164.739583 144.60672 
L 164.802709 144.60672 
L 164.865624 144.323012 
L 164.990826 144.323012 
L 165.021997 143.542814 
L 165.1152 143.542814 
L 165.207944 143.117252 
L 165.330896 143.046325 
L 165.422585 142.762616 
L 165.51383 142.762616 
L 165.574415 141.273148 
L 165.634805 141.273148 
L 165.725029 140.918513 
L 165.784938 140.918513 
L 165.784938 140.776659 
L 165.993131 140.705732 
L 165.993131 140.634805 
L 166.286609 140.563878 
L 166.315707 140.280169 
L 166.460523 140.209242 
L 166.489353 139.925534 
L 166.604233 139.925534 
L 166.661411 139.499972 
L 166.888401 139.429045 
L 166.972821 139.074409 
L 167.000877 139.074409 
L 167.056864 138.790701 
L 167.196106 138.719774 
L 167.306762 138.365139 
L 167.38933 138.294212 
L 167.498859 137.514014 
L 167.580589 137.443087 
L 167.689013 137.088452 
L 167.742992 137.088452 
L 167.769923 136.875671 
L 168.037137 136.875671 
L 168.142969 135.882692 
L 168.221954 135.811765 
L 168.274427 135.528056 
L 168.404973 135.457129 
L 168.404973 135.386202 
L 168.586228 135.315275 
L 168.689024 135.102494 
L 168.765753 135.031567 
L 168.867575 134.889713 
L 168.91828 134.818786 
L 168.943582 134.322296 
L 169.169775 134.322296 
L 169.269439 134.109515 
L 169.393282 134.038588 
L 169.491772 133.896734 
L 169.565302 133.825807 
L 169.662898 133.542099 
L 169.711507 133.542099 
L 169.808349 132.974682 
L 169.832482 132.974682 
L 169.904695 132.478193 
L 170.00055 132.407266 
L 170.048295 132.265412 
L 170.308749 132.194485 
L 170.402572 131.839849 
L 170.472634 131.768922 
L 170.565646 131.556141 
L 170.61198 131.556141 
L 170.6582 131.34336 
L 170.773255 131.272433 
L 170.819081 131.130579 
L 170.887612 131.130579 
L 170.887612 130.846871 
L 171.046551 130.846871 
L 171.136775 130.563162 
L 171.449192 130.492235 
L 171.449192 130.279454 
L 171.756506 130.208527 
L 171.865055 129.995746 
L 171.929885 129.924819 
L 171.929885 129.853892 
L 172.165703 129.853892 
L 172.208263 129.641111 
L 172.3986 129.570184 
L 172.503517 129.073694 
L 172.545321 129.002767 
L 172.649425 128.719059 
L 172.794209 128.719059 
L 172.794209 128.293496 
L 172.91743 128.293496 
L 172.958324 128.009788 
L 173.302386 127.938861 
L 173.362455 127.72608 
L 173.581081 127.655153 
L 173.581081 127.229591 
L 173.718895 127.229591 
L 173.7385 126.874955 
L 173.855707 126.874955 
L 173.87517 126.378466 
L 174.336355 126.307539 
L 174.431028 125.811049 
L 174.468765 125.811049 
L 174.562776 125.527341 
L 174.674972 125.456414 
L 174.73082 125.243633 
L 174.878944 125.172706 
L 174.989276 124.959925 
L 175.080727 124.888998 
L 175.189886 124.676216 
L 175.352444 124.605289 
L 175.352444 124.534362 
L 175.549238 124.463435 
L 175.584799 122.90304 
L 175.691079 122.832113 
L 175.761601 122.264696 
L 175.971592 122.193769 
L 176.041072 121.839134 
L 176.110296 121.839134 
L 176.162047 120.349666 
L 176.282249 120.278739 
L 176.36764 119.782249 
L 176.401688 119.782249 
L 176.435674 119.498541 
L 176.587858 119.498541 
L 176.655103 118.931125 
L 176.705378 118.931125 
L 176.738821 118.363708 
L 176.855405 118.363708 
L 176.888582 117.512584 
L 177.004244 117.441656 
L 177.03716 117.157948 
L 177.151915 117.157948 
L 177.249723 116.732386 
L 177.379346 116.661459 
L 177.475981 116.023115 
L 177.556133 115.952188 
L 177.651866 115.384772 
L 177.699551 115.313845 
L 177.778757 115.030136 
L 177.873367 115.030136 
L 177.967504 114.604574 
L 178.045592 114.533647 
L 178.045592 114.46272 
L 178.231693 114.391793 
L 178.339408 114.179012 
L 178.537828 114.108085 
L 178.613589 113.115106 
L 178.689047 113.115106 
L 178.719145 112.689544 
L 178.898732 112.618616 
L 179.002704 112.122127 
L 179.091369 112.122127 
L 179.164938 111.909346 
L 179.252842 111.838419 
L 179.354881 111.483784 
L 179.369413 111.483784 
L 179.398443 111.058221 
L 179.714853 110.987294 
L 179.771814 110.84544 
L 179.885223 110.774513 
L 179.955757 110.348951 
L 180.137919 110.278024 
L 180.23528 110.136169 
L 180.345937 110.065242 
L 180.359723 109.852461 
L 180.660496 109.781534 
L 180.674054 109.63968 
L 180.795637 109.63968 
L 180.822549 109.426899 
L 180.929814 109.355972 
L 181.036471 109.072264 
L 181.41811 109.001336 
L 181.41811 108.930409 
L 181.728198 108.859482 
L 181.830435 108.504847 
L 182.494073 108.43392 
L 182.494073 108.362993 
L 182.799165 108.292066 
L 182.799165 108.221139 
L 183.453442 108.150212 
L 183.453442 108.079285 
L 183.995068 108.008358 
L 184.029116 107.724649 
L 184.164695 107.653722 
L 184.164695 107.22816 
L 184.299304 107.22816 
L 184.377384 106.731671 
L 184.532577 106.660744 
L 184.620688 106.093327 
L 184.697447 106.093327 
L 184.806563 103.681807 
L 184.828311 103.681807 
L 184.893403 103.185318 
L 184.96906 103.185318 
L 185.044414 102.830682 
L 185.119467 102.759755 
L 185.140856 102.546974 
L 185.236806 102.546974 
L 185.311097 102.334193 
L 185.395644 102.334193 
L 185.458805 101.270287 
L 185.532226 101.270287 
L 185.594932 100.702871 
L 185.667825 100.702871 
L 185.77147 98.716913 
L 185.853977 98.716913 
L 185.925875 97.58208 
L 185.977062 97.58208 
L 186.028112 97.298372 
L 186.099348 97.298372 
L 186.180433 96.021685 
L 186.431592 95.950758 
L 186.471468 95.808904 
L 186.679442 95.737976 
L 186.689288 95.596122 
L 186.816825 95.596122 
L 186.904616 93.822946 
L 187.050029 93.752019 
L 187.14635 92.688113 
L 187.194327 92.688113 
L 187.299446 90.914936 
L 187.366036 90.844009 
L 187.413456 90.489374 
L 187.498512 90.489374 
L 187.60195 89.14176 
L 187.667479 89.070833 
L 187.769995 87.581365 
L 187.779287 87.581365 
L 187.871955 85.240772 
L 187.908895 85.169845 
L 188.019281 83.893158 
L 188.037615 83.822231 
L 188.138139 83.042033 
L 188.165461 83.042033 
L 188.274356 81.056075 
L 188.319544 80.985148 
L 188.427553 80.346805 
L 188.436526 80.346805 
L 188.52602 79.424753 
L 188.712582 79.353826 
L 188.800775 78.857336 
L 188.862265 78.786409 
L 188.949761 78.431774 
L 189.010767 78.360847 
L 189.11489 78.077139 
L 189.132188 78.077139 
L 189.21844 77.793431 
L 189.338532 77.722504 
L 189.432356 77.438795 
L 189.525714 77.367868 
L 189.627033 76.729525 
L 189.660685 76.658598 
L 189.752919 75.665619 
L 189.819716 75.665619 
L 189.911175 75.240056 
L 189.977413 75.169129 
L 190.068111 74.247078 
L 190.1338 74.176151 
L 190.223749 73.254099 
L 190.264493 73.254099 
L 190.370016 72.119266 
L 190.378109 72.119266 
L 190.482999 70.275162 
L 190.507122 70.204235 
L 190.611297 68.64384 
L 190.651211 68.572913 
L 190.722844 67.650861 
L 190.786289 67.579934 
L 190.896806 66.870664 
L 190.904676 66.870664 
L 191.014501 65.452122 
L 191.022322 65.452122 
L 191.131465 64.884706 
L 191.154771 64.884706 
L 191.255429 63.253384 
L 191.309408 63.253384 
L 191.416903 61.125572 
L 191.447503 61.125572 
L 191.546612 60.345374 
L 191.592179 60.274447 
L 191.698075 59.210541 
L 191.713154 59.139614 
L 191.810877 58.572198 
L 191.915552 58.501271 
L 192.019647 57.295511 
L 192.064084 57.295511 
L 192.152644 56.373459 
L 192.182072 56.373459 
L 192.284707 55.947896 
L 192.328523 55.876969 
L 192.408587 55.309553 
L 192.495544 55.238626 
L 192.574902 54.387501 
L 192.632408 54.316574 
L 192.732622 53.678231 
L 192.78253 53.607304 
L 192.889031 53.110814 
L 192.910259 53.039887 
L 193.009007 52.401544 
L 193.121231 52.330616 
L 193.204963 51.975981 
L 193.309105 51.905054 
L 193.364413 51.408565 
L 193.460812 51.337638 
L 193.570381 50.841148 
L 193.590854 50.770221 
L 193.679315 50.55744 
L 193.726776 50.486513 
L 193.814602 49.848169 
L 193.935534 49.848169 
L 194.009056 49.493534 
L 194.075645 49.493534 
L 194.148623 48.926118 
L 194.241095 48.855191 
L 194.346225 48.429628 
L 194.39857 48.358701 
L 194.496327 48.14592 
L 194.567693 48.074993 
L 194.658133 47.720358 
L 194.696761 47.649431 
L 194.792984 47.507576 
L 194.895082 47.436649 
L 194.990298 47.223868 
L 195.198093 47.152941 
L 195.223125 47.011087 
L 195.422191 46.94016 
L 195.446927 46.798306 
L 195.56398 46.798306 
L 195.661989 46.514598 
L 195.741247 46.443671 
L 195.814113 46.089035 
L 195.9048 46.018108 
L 195.989049 45.876254 
L 196.048997 45.876254 
L 196.126644 45.521619 
L 196.286895 45.450692 
L 196.31052 45.237911 
L 196.422337 45.166984 
L 196.463365 45.025129 
L 196.771139 44.954202 
L 196.845868 44.812348 
L 197.170066 44.741421 
L 197.248846 44.52864 
L 197.449922 44.457713 
L 197.449922 44.386786 
L 198.110427 44.315859 
L 198.110427 44.174005 
L 198.366153 44.103078 
L 198.44009 43.961224 
L 198.518986 43.890296 
L 198.518986 43.819369 
L 198.846786 43.748442 
L 198.846786 43.677515 
L 199.031566 43.606588 
L 199.12328 43.393807 
L 199.20443 43.32288 
L 199.310411 42.826391 
L 199.365688 42.755464 
L 199.380735 42.542682 
L 199.5951 42.471755 
L 199.693978 42.046193 
L 199.743223 42.046193 
L 199.782526 41.762485 
L 199.899946 41.691558 
L 199.958382 41.336922 
L 200.060211 41.265995 
L 200.060211 41.195068 
L 200.252658 41.124141 
L 200.35291 40.769506 
L 200.371945 40.698579 
L 200.443156 40.485798 
L 200.594178 40.414871 
L 200.678598 39.918381 
L 200.739333 39.847454 
L 200.84631 39.492819 
L 200.938841 39.421892 
L 201.017136 39.138184 
L 201.07679 39.067256 
L 201.07679 38.996329 
L 201.209186 38.925402 
L 201.272769 38.783548 
L 201.327098 38.712621 
L 201.430793 38.428913 
L 201.542861 38.357986 
L 201.64093 38.074278 
L 201.857539 38.003351 
L 201.932109 37.719642 
L 202.019463 37.648715 
L 202.106413 37.223153 
L 202.171362 37.152226 
L 202.270518 36.939445 
L 202.420412 36.868518 
L 202.467276 36.655736 
L 202.552185 36.584809 
L 202.661997 35.946466 
L 202.687247 35.875539 
L 202.792094 35.449976 
L 202.854722 35.379049 
L 202.954497 35.095341 
L 202.975216 35.095341 
L 203.066114 34.527925 
L 203.107286 34.456998 
L 203.209824 34.173289 
L 203.238434 34.102362 
L 203.315873 33.6768 
L 203.392995 33.605873 
L 203.477868 33.251238 
L 203.558346 33.180311 
L 203.63848 32.754748 
L 203.947783 32.683821 
L 203.959579 32.541967 
L 204.088841 32.47104 
L 204.182296 32.329186 
L 204.337029 32.258259 
L 204.402407 32.045478 
L 204.600988 31.974551 
L 204.600988 31.903624 
L 204.801253 31.832696 
L 204.88376 31.619915 
L 205.066235 31.548988 
L 205.066235 31.478061 
L 205.323881 31.407134 
L 205.393209 31.194353 
L 205.57444 31.123426 
L 205.57444 31.052499 
L 205.921124 30.981572 
L 205.921124 30.910645 
L 206.917698 30.839718 
L 206.917698 30.768791 
L 208.102147 30.697864 
L 208.102147 30.626936 
L 208.306026 30.556009 
L 208.396279 30.343228 
L 208.68894 30.272301 
L 208.698108 30.130447 
L 209.076197 30.05952 
L 209.186669 29.917666 
L 209.361496 29.846739 
L 209.382131 29.704885 
L 209.996582 29.633958 
L 209.996582 29.563031 
L 210.533489 29.492104 
L 210.575013 29.350249 
L 210.865862 29.279322 
L 210.958209 29.137468 
L 211.120077 29.066541 
L 211.120077 28.995614 
L 211.52927 28.924687 
L 211.52927 28.85376 
L 212.119201 28.782833 
L 212.119201 28.711906 
L 212.975664 28.640979 
L 212.975664 28.570052 
L 214.293799 28.499125 
L 214.293799 28.428198 
L 214.615525 28.357271 
L 214.693439 28.215416 
L 216.024742 28.144489 
L 216.024742 28.073562 
L 217.038018 28.002635 
L 217.038018 27.931708 
L 217.990172 27.860781 
L 217.990172 27.789854 
L 221.384156 27.718927 
L 221.384156 27.648 
L 360.8064 27.648 
L 360.8064 27.648 
" style="fill: none; stroke: #ff7500; stroke-width: 1.5; stroke-linecap: square"/>
   </g>
   <g id="line2d_45">
    <defs>
     <path id="m5e58f3d298" d="M 0 -6 
L -1.347084 -1.854102 
L -5.706339 -1.854102 
L -2.179628 0.708204 
L -3.526712 4.854102 
L -0 2.291796 
L 3.526712 4.854102 
L 2.179628 0.708204 
L 5.706339 -1.854102 
L 1.347084 -1.854102 
z
" style="stroke: #ff7500; stroke-width: 1.5; stroke-linejoin: bevel"/>
    </defs>
    <g>
     <use xlink:href="#m5e58f3d298" x="161.202028" y="158.295642" style="fill-opacity: 0; stroke: #ff7500; stroke-width: 1.5; stroke-linejoin: bevel"/>
     <use xlink:href="#m5e58f3d298" x="200.443156" y="40.556725" style="fill-opacity: 0; stroke: #ff7500; stroke-width: 1.5; stroke-linejoin: bevel"/>
     <use xlink:href="#m5e58f3d298" x="221.384156" y="27.648" style="fill-opacity: 0; stroke: #ff7500; stroke-width: 1.5; stroke-linejoin: bevel"/>
     <use xlink:href="#m5e58f3d298" x="221.384156" y="27.648" style="fill-opacity: 0; stroke: #ff7500; stroke-width: 1.5; stroke-linejoin: bevel"/>
     <use xlink:href="#m5e58f3d298" x="360.8064" y="27.648" style="fill-opacity: 0; stroke: #ff7500; stroke-width: 1.5; stroke-linejoin: bevel"/>
    </g>
   </g>
   <g id="line2d_46">
    <path style="fill: none; stroke: #ff7500; stroke-width: 1.5; stroke-linecap: square"/>
    <g/>
   </g>
   <g id="line2d_47">
    <path d="M 105.112877 223.619464 
" clip-path="url(#pef722f2943)" style="fill: none; stroke: #ff7500; stroke-width: 1.5; stroke-linecap: square"/>
    <defs>
     <path id="m2eb4f694b6" d="M -12 12 
L 12 -12 
M -12 -12 
L 12 12 
" style="stroke: #ff7500"/>
    </defs>
    <g clip-path="url(#pef722f2943)">
     <use xlink:href="#m2eb4f694b6" x="105.112877" y="223.619464" style="fill: #ff7500; stroke: #ff7500"/>
    </g>
   </g>
   <g id="line2d_48">
    <defs>
     <path id="mf306ba8916" d="M 0 1.5 
C 0.397805 1.5 0.77937 1.341951 1.06066 1.06066 
C 1.341951 0.77937 1.5 0.397805 1.5 0 
C 1.5 -0.397805 1.341951 -0.77937 1.06066 -1.06066 
C 0.77937 -1.341951 0.397805 -1.5 0 -1.5 
C -0.397805 -1.5 -0.77937 -1.341951 -1.06066 -1.06066 
C -1.341951 -0.77937 -1.5 -0.397805 -1.5 0 
C -1.5 0.397805 -1.341951 0.77937 -1.06066 1.06066 
C -0.77937 1.341951 -0.397805 1.5 0 1.5 
z
" style="stroke: #6495ed"/>
    </defs>
    <g>
     <use xlink:href="#mf306ba8916" x="221.79829" y="27.648" style="fill: #6495ed; stroke: #6495ed"/>
     <use xlink:href="#mf306ba8916" x="221.79829" y="27.648" style="fill: #6495ed; stroke: #6495ed"/>
    </g>
   </g>
   <g id="line2d_49">
    <path d="M 44.560826 298.944 
L 44.560826 224.470588 
L 89.668958 224.470588 
L 89.668958 223.761318 
L 102.708132 223.761318 
L 102.708132 223.406682 
L 105.112877 223.406682 
L 105.112877 223.052047 
L 107.244765 223.052047 
L 107.244765 221.278871 
L 111.442442 221.278871 
L 111.442442 220.924235 
L 113.478107 220.924235 
L 113.478107 220.214965 
L 115.314838 220.214965 
L 115.314838 218.796424 
L 120.616896 218.796424 
L 120.616896 218.441788 
L 121.892744 218.441788 
L 121.892744 217.377882 
L 128.57149 217.377882 
L 128.57149 217.023247 
L 130.226319 217.023247 
L 130.226319 216.668612 
L 130.4233 216.668612 
L 130.4233 215.959341 
L 130.811181 215.959341 
L 130.811181 215.250071 
L 137.919637 215.250071 
L 137.919637 214.895435 
L 139.191172 214.895435 
L 139.191172 213.831529 
L 139.556456 213.831529 
L 139.556456 213.122259 
L 144.2304 213.122259 
L 144.2304 212.767624 
L 144.510478 212.767624 
L 144.510478 212.412988 
L 144.786447 212.412988 
L 144.786447 212.058353 
L 145.237585 212.058353 
L 145.237585 211.703718 
L 145.590864 211.703718 
L 145.590864 210.639812 
L 145.93763 210.639812 
L 146.023332 209.575906 
L 149.73597 209.575906 
L 149.73597 209.221271 
L 150.8268 209.221271 
L 150.8268 208.866635 
L 157.269574 208.866635 
L 157.269574 208.512 
L 164.990826 208.512 
L 164.990826 208.157365 
L 165.664928 208.157365 
L 165.725029 207.448094 
L 169.343842 207.448094 
L 169.343842 207.093459 
L 171.493403 207.093459 
L 171.493403 206.738824 
L 171.647326 206.738824 
L 171.647326 205.320282 
L 173.141258 205.320282 
L 173.221995 204.256376 
L 173.32243 204.256376 
L 173.32243 203.901741 
L 173.659955 203.901741 
L 173.659955 203.192471 
L 175.495771 203.192471 
L 175.495771 202.837835 
L 175.726373 202.837835 
L 175.726373 201.773929 
L 176.162047 201.773929 
L 176.196469 201.064659 
L 176.855405 201.064659 
L 176.855405 200.355388 
L 177.411613 200.355388 
L 177.411613 198.227576 
L 177.572122 198.227576 
L 177.572122 197.518306 
L 177.747115 197.518306 
L 177.747115 196.4544 
L 177.904798 196.4544 
L 177.904798 194.681224 
L 178.719145 194.681224 
L 178.749196 191.844141 
L 178.91362 191.844141 
L 178.91362 191.489506 
L 179.485266 191.489506 
L 179.485266 190.4256 
L 179.729109 190.4256 
L 179.729109 190.070965 
L 179.856935 190.070965 
L 179.871084 187.943153 
L 180.151859 187.943153 
L 180.151859 185.106071 
L 181.586709 185.106071 
L 181.586709 184.751435 
L 181.868631 184.751435 
L 181.881346 184.042165 
L 182.14639 184.042165 
L 182.158919 182.978259 
L 182.345852 182.978259 
L 182.345852 182.268988 
L 182.543221 182.268988 
L 182.592241 180.495812 
L 182.714236 180.495812 
L 182.714236 179.786541 
L 182.955878 179.786541 
L 182.955878 178.368 
L 183.347923 178.368 
L 183.441747 174.467012 
L 183.983705 174.467012 
L 183.983705 173.403106 
L 184.477298 173.403106 
L 184.477298 171.984565 
L 185.022915 171.984565 
L 185.022915 171.275294 
L 185.183561 171.275294 
L 185.183561 170.920659 
L 185.490306 170.920659 
L 185.490306 168.792847 
L 185.750786 168.792847 
L 185.823079 166.665035 
L 185.874547 166.665035 
L 185.895095 165.601129 
L 186.007709 165.601129 
L 186.099348 161.345506 
L 186.34156 161.345506 
L 186.42161 159.572329 
L 186.649872 159.572329 
L 186.69913 157.799153 
L 186.78747 157.799153 
L 186.885142 154.607435 
L 187.04037 154.607435 
L 187.13674 153.898165 
L 187.299446 153.898165 
L 187.356538 152.124988 
L 187.620696 152.124988 
L 187.64878 150.706447 
L 187.973365 150.706447 
L 187.982557 149.642541 
L 189.685885 149.642541 
L 189.685885 149.287906 
L 190.345717 149.287906 
L 190.402367 145.032282 
L 190.491043 145.032282 
L 190.491043 144.323012 
L 191.170292 144.323012 
L 191.170292 142.1952 
L 191.795875 142.1952 
L 191.795875 139.712753 
L 192.299324 139.712753 
L 192.350392 137.939576 
L 192.553292 137.939576 
L 192.553292 136.875671 
L 192.789649 136.875671 
L 192.789649 135.811765 
L 193.267517 135.811765 
L 193.267517 134.747859 
L 194.574168 134.747859 
L 194.574168 130.492235 
L 194.83772 130.492235 
L 194.83772 130.1376 
L 195.002958 130.1376 
L 195.002958 126.945882 
L 195.154207 126.945882 
L 195.204355 125.527341 
L 195.335359 125.527341 
L 195.385027 124.463435 
L 195.698611 124.463435 
L 195.765567 120.917082 
L 195.916859 120.917082 
L 195.916859 119.853176 
L 196.084874 119.853176 
L 196.084874 118.434635 
L 196.221772 118.434635 
L 196.275071 114.533647 
L 196.422337 114.533647 
L 196.422337 110.987294 
L 196.759616 110.987294 
L 196.759616 109.923388 
L 196.880259 109.923388 
L 196.926015 105.667765 
L 197.209498 105.667765 
L 197.282509 104.603859 
L 197.466582 104.603859 
L 197.566231 99.638965 
L 197.59933 99.638965 
L 197.615858 97.511153 
L 197.736622 97.511153 
L 197.845738 95.737976 
L 197.889208 95.737976 
L 197.889208 92.900894 
L 198.350272 92.900894 
L 198.350272 86.517459 
L 199.016237 86.517459 
L 199.016237 85.808188 
L 199.29027 85.808188 
L 199.380735 84.744282 
L 199.540494 84.744282 
L 199.540494 84.389647 
L 199.679179 84.389647 
L 199.708765 81.9072 
L 199.934056 81.9072 
L 199.934056 79.424753 
L 200.122972 79.424753 
L 200.122972 76.942306 
L 201.703073 76.942306 
L 201.756176 74.459859 
L 201.83995 74.459859 
L 201.83995 73.041318 
L 202.249007 73.041318 
L 202.28771 71.268141 
L 202.407611 71.268141 
L 202.407611 70.913506 
L 207.167922 70.913506 
L 207.214264 69.140329 
L 207.441011 69.140329 
L 207.512737 67.721788 
L 207.567974 67.721788 
L 207.574462 67.012518 
L 207.68119 67.012518 
L 207.735935 64.530071 
L 207.80975 64.530071 
L 207.80975 64.175435 
L 207.940619 64.175435 
L 207.940619 60.983718 
L 208.095839 60.983718 
L 208.095839 59.565176 
L 208.868432 59.565176 
L 208.868432 57.082729 
L 209.907977 57.082729 
L 209.959476 54.245647 
L 210.310469 54.245647 
L 210.310469 53.536376 
L 210.469641 53.536376 
L 210.497428 52.472471 
L 210.671546 52.472471 
L 210.740197 49.990024 
L 210.846794 49.990024 
L 210.846794 49.635388 
L 217.885476 49.635388 
L 217.885476 48.216847 
L 218.15907 48.216847 
L 218.15907 47.862212 
L 218.295306 47.862212 
L 218.352086 45.7344 
L 218.901775 45.7344 
L 218.901775 43.961224 
L 219.399566 43.961224 
L 219.399566 43.251953 
L 219.78141 43.251953 
L 219.818664 39.7056 
L 219.951834 39.7056 
L 219.951834 38.287059 
L 220.289771 38.287059 
L 220.339201 34.031435 
L 220.85533 34.031435 
L 220.93202 32.258259 
L 221.273311 32.258259 
L 221.273311 31.548988 
L 221.560777 31.548988 
L 221.560777 30.485082 
L 221.79829 30.485082 
L 221.79829 27.648 
L 360.8064 27.648 
L 360.8064 27.648 
" style="fill: none; stroke: #6495ed; stroke-width: 1.5; stroke-linecap: square"/>
   </g>
   <g id="line2d_50">
    <defs>
     <path id="m75580701c5" d="M -0 6 
L 6 -6 
L -6 -6 
z
" style="stroke: #6495ed; stroke-width: 1.5; stroke-linejoin: miter"/>
    </defs>
    <g>
     <use xlink:href="#m75580701c5" x="121.892744" y="217.377882" style="fill-opacity: 0; stroke: #6495ed; stroke-width: 1.5; stroke-linejoin: miter"/>
     <use xlink:href="#m75580701c5" x="187.04037" y="154.607435" style="fill-opacity: 0; stroke: #6495ed; stroke-width: 1.5; stroke-linejoin: miter"/>
     <use xlink:href="#m75580701c5" x="210.846794" y="49.990024" style="fill-opacity: 0; stroke: #6495ed; stroke-width: 1.5; stroke-linejoin: miter"/>
     <use xlink:href="#m75580701c5" x="221.79829" y="27.648" style="fill-opacity: 0; stroke: #6495ed; stroke-width: 1.5; stroke-linejoin: miter"/>
     <use xlink:href="#m75580701c5" x="221.79829" y="27.648" style="fill-opacity: 0; stroke: #6495ed; stroke-width: 1.5; stroke-linejoin: miter"/>
     <use xlink:href="#m75580701c5" x="360.8064" y="27.648" style="fill-opacity: 0; stroke: #6495ed; stroke-width: 1.5; stroke-linejoin: miter"/>
    </g>
   </g>
   <g id="line2d_51">
    <path style="fill: none; stroke: #6495ed; stroke-width: 1.5; stroke-linecap: square"/>
    <g/>
   </g>
   <g id="line2d_52">
    <path d="M 360.8064 27.648 
L 380.514816 293.51808 
" style="fill: none; stroke: #ff00ff; stroke-width: 1.5; stroke-linecap: square"/>
    <g>
     <use xlink:href="#m3483befef5" x="360.8064" y="27.648" style="fill-opacity: 0; stroke: #ff00ff; stroke-width: 1.5; stroke-linejoin: miter"/>
     <use xlink:href="#m3483befef5" x="380.514816" y="293.51808" style="fill-opacity: 0; stroke: #ff00ff; stroke-width: 1.5; stroke-linejoin: miter"/>
    </g>
   </g>
   <g id="line2d_53">
    <path d="M 360.8064 27.648 
L 380.514816 228.40704 
" style="fill: none; stroke: #000080; stroke-width: 1.5; stroke-linecap: square"/>
    <g>
     <use xlink:href="#m9d8526e3b8" x="360.8064" y="27.648" style="fill-opacity: 0; stroke: #000080; stroke-width: 1.5"/>
     <use xlink:href="#m9d8526e3b8" x="380.514816" y="228.40704" style="fill-opacity: 0; stroke: #000080; stroke-width: 1.5"/>
    </g>
   </g>
   <g id="line2d_54">
    <path d="M 360.8064 27.648 
L 380.514816 163.296 
" style="fill: none; stroke: #6495ed; stroke-width: 1.5; stroke-linecap: square"/>
    <g>
     <use xlink:href="#m75580701c5" x="360.8064" y="27.648" style="fill-opacity: 0; stroke: #6495ed; stroke-width: 1.5; stroke-linejoin: miter"/>
     <use xlink:href="#m75580701c5" x="380.514816" y="163.296" style="fill-opacity: 0; stroke: #6495ed; stroke-width: 1.5; stroke-linejoin: miter"/>
    </g>
   </g>
   <g id="line2d_55">
    <path d="M 360.8064 27.648 
L 380.514816 98.18496 
" style="fill: none; stroke: #ff7500; stroke-width: 1.5; stroke-linecap: square"/>
    <g>
     <use xlink:href="#m5e58f3d298" x="360.8064" y="27.648" style="fill-opacity: 0; stroke: #ff7500; stroke-width: 1.5; stroke-linejoin: bevel"/>
     <use xlink:href="#m5e58f3d298" x="380.514816" y="98.18496" style="fill-opacity: 0; stroke: #ff7500; stroke-width: 1.5; stroke-linejoin: bevel"/>
    </g>
   </g>
   <g id="line2d_56">
    <path d="M 360.8064 298.944 
L 360.8064 27.648 
" style="fill: none; stroke: #000000; stroke-width: 1.5; stroke-linecap: square"/>
   </g>
   <g id="patch_3">
    <path d="M 57.6 298.944 
L 360.8064 298.944 
" style="fill: none; stroke: #000000; stroke-width: 0.8; stroke-linejoin: miter; stroke-linecap: square"/>
   </g>
   <g id="patch_4">
    <path d="M 57.6 27.648 
L 360.8064 27.648 
" style="fill: none; stroke: #000000; stroke-width: 0.8; stroke-linejoin: miter; stroke-linecap: square"/>
   </g>
   <g id="text_13">
    <!-- ex -->
    <g transform="translate(386.578944 297.381205)scale(0.14 -0.14)">
     <defs>
      <path id="DejaVuSans-78" d="M 3513 3500 
L 2247 1797 
L 3578 0 
L 2900 0 
L 1881 1375 
L 863 0 
L 184 0 
L 1544 1831 
L 300 3500 
L 978 3500 
L 1906 2253 
L 2834 3500 
L 3513 3500 
z
" transform="scale(0.015625)"/>
     </defs>
     <use xlink:href="#DejaVuSans-65"/>
     <use xlink:href="#DejaVuSans-78" x="59.773438"/>
    </g>
   </g>
   <g id="text_14">
    <!-- ex -->
    <g transform="translate(386.578944 232.270165)scale(0.14 -0.14)">
     <use xlink:href="#DejaVuSans-65"/>
     <use xlink:href="#DejaVuSans-78" x="59.773438"/>
    </g>
   </g>
   <g id="text_15">
    <!-- CMA-ES-2019 Hansen -->
    <g transform="translate(386.578944 167.159125)scale(0.14 -0.14)">
     <defs>
      <path id="DejaVuSans-43" d="M 4122 4306 
L 4122 3641 
Q 3803 3938 3442 4084 
Q 3081 4231 2675 4231 
Q 1875 4231 1450 3742 
Q 1025 3253 1025 2328 
Q 1025 1406 1450 917 
Q 1875 428 2675 428 
Q 3081 428 3442 575 
Q 3803 722 4122 1019 
L 4122 359 
Q 3791 134 3420 21 
Q 3050 -91 2638 -91 
Q 1578 -91 968 557 
Q 359 1206 359 2328 
Q 359 3453 968 4101 
Q 1578 4750 2638 4750 
Q 3056 4750 3426 4639 
Q 3797 4528 4122 4306 
z
" transform="scale(0.015625)"/>
      <path id="DejaVuSans-4d" d="M 628 4666 
L 1569 4666 
L 2759 1491 
L 3956 4666 
L 4897 4666 
L 4897 0 
L 4281 0 
L 4281 4097 
L 3078 897 
L 2444 897 
L 1241 4097 
L 1241 0 
L 628 0 
L 628 4666 
z
" transform="scale(0.015625)"/>
      <path id="DejaVuSans-41" d="M 2188 4044 
L 1331 1722 
L 3047 1722 
L 2188 4044 
z
M 1831 4666 
L 2547 4666 
L 4325 0 
L 3669 0 
L 3244 1197 
L 1141 1197 
L 716 0 
L 50 0 
L 1831 4666 
z
" transform="scale(0.015625)"/>
      <path id="DejaVuSans-45" d="M 628 4666 
L 3578 4666 
L 3578 4134 
L 1259 4134 
L 1259 2753 
L 3481 2753 
L 3481 2222 
L 1259 2222 
L 1259 531 
L 3634 531 
L 3634 0 
L 628 0 
L 628 4666 
z
" transform="scale(0.015625)"/>
      <path id="DejaVuSans-53" d="M 3425 4513 
L 3425 3897 
Q 3066 4069 2747 4153 
Q 2428 4238 2131 4238 
Q 1616 4238 1336 4038 
Q 1056 3838 1056 3469 
Q 1056 3159 1242 3001 
Q 1428 2844 1947 2747 
L 2328 2669 
Q 3034 2534 3370 2195 
Q 3706 1856 3706 1288 
Q 3706 609 3251 259 
Q 2797 -91 1919 -91 
Q 1588 -91 1214 -16 
Q 841 59 441 206 
L 441 856 
Q 825 641 1194 531 
Q 1563 422 1919 422 
Q 2459 422 2753 634 
Q 3047 847 3047 1241 
Q 3047 1584 2836 1778 
Q 2625 1972 2144 2069 
L 1759 2144 
Q 1053 2284 737 2584 
Q 422 2884 422 3419 
Q 422 4038 858 4394 
Q 1294 4750 2059 4750 
Q 2388 4750 2728 4690 
Q 3069 4631 3425 4513 
z
" transform="scale(0.015625)"/>
      <path id="DejaVuSans-39" d="M 703 97 
L 703 672 
Q 941 559 1184 500 
Q 1428 441 1663 441 
Q 2288 441 2617 861 
Q 2947 1281 2994 2138 
Q 2813 1869 2534 1725 
Q 2256 1581 1919 1581 
Q 1219 1581 811 2004 
Q 403 2428 403 3163 
Q 403 3881 828 4315 
Q 1253 4750 1959 4750 
Q 2769 4750 3195 4129 
Q 3622 3509 3622 2328 
Q 3622 1225 3098 567 
Q 2575 -91 1691 -91 
Q 1453 -91 1209 -44 
Q 966 3 703 97 
z
M 1959 2075 
Q 2384 2075 2632 2365 
Q 2881 2656 2881 3163 
Q 2881 3666 2632 3958 
Q 2384 4250 1959 4250 
Q 1534 4250 1286 3958 
Q 1038 3666 1038 3163 
Q 1038 2656 1286 2365 
Q 1534 2075 1959 2075 
z
" transform="scale(0.015625)"/>
      <path id="DejaVuSans-48" d="M 628 4666 
L 1259 4666 
L 1259 2753 
L 3553 2753 
L 3553 4666 
L 4184 4666 
L 4184 0 
L 3553 0 
L 3553 2222 
L 1259 2222 
L 1259 0 
L 628 0 
L 628 4666 
z
" transform="scale(0.015625)"/>
     </defs>
     <use xlink:href="#DejaVuSans-43"/>
     <use xlink:href="#DejaVuSans-4d" x="69.824219"/>
     <use xlink:href="#DejaVuSans-41" x="156.103516"/>
     <use xlink:href="#DejaVuSans-2d" x="222.261719"/>
     <use xlink:href="#DejaVuSans-45" x="258.345703"/>
     <use xlink:href="#DejaVuSans-53" x="321.529297"/>
     <use xlink:href="#DejaVuSans-2d" x="385.005859"/>
     <use xlink:href="#DejaVuSans-32" x="421.089844"/>
     <use xlink:href="#DejaVuSans-30" x="484.712891"/>
     <use xlink:href="#DejaVuSans-31" x="548.335938"/>
     <use xlink:href="#DejaVuSans-39" x="611.958984"/>
     <use xlink:href="#DejaVuSans-20" x="675.582031"/>
     <use xlink:href="#DejaVuSans-48" x="707.369141"/>
     <use xlink:href="#DejaVuSans-61" x="782.564453"/>
     <use xlink:href="#DejaVuSans-6e" x="843.84375"/>
     <use xlink:href="#DejaVuSans-73" x="907.222656"/>
     <use xlink:href="#DejaVuSans-65" x="959.322266"/>
     <use xlink:href="#DejaVuSans-6e" x="1020.845703"/>
    </g>
   </g>
   <g id="text_16">
    <!-- ex -->
    <g transform="translate(386.578944 102.048085)scale(0.14 -0.14)">
     <use xlink:href="#DejaVuSans-65"/>
     <use xlink:href="#DejaVuSans-78" x="59.773438"/>
    </g>
   </g>
   <g id="text_17">
    <!-- best 2009 -->
    <g transform="translate(386.578944 36.937045)scale(0.14 -0.14)">
     <defs>
      <path id="DejaVuSans-62" d="M 3116 1747 
Q 3116 2381 2855 2742 
Q 2594 3103 2138 3103 
Q 1681 3103 1420 2742 
Q 1159 2381 1159 1747 
Q 1159 1113 1420 752 
Q 1681 391 2138 391 
Q 2594 391 2855 752 
Q 3116 1113 3116 1747 
z
M 1159 2969 
Q 1341 3281 1617 3432 
Q 1894 3584 2278 3584 
Q 2916 3584 3314 3078 
Q 3713 2572 3713 1747 
Q 3713 922 3314 415 
Q 2916 -91 2278 -91 
Q 1894 -91 1617 61 
Q 1341 213 1159 525 
L 1159 0 
L 581 0 
L 581 4863 
L 1159 4863 
L 1159 2969 
z
" transform="scale(0.015625)"/>
     </defs>
     <use xlink:href="#DejaVuSans-62"/>
     <use xlink:href="#DejaVuSans-65" x="63.476562"/>
     <use xlink:href="#DejaVuSans-73" x="125"/>
     <use xlink:href="#DejaVuSans-74" x="177.099609"/>
     <use xlink:href="#DejaVuSans-20" x="216.308594"/>
     <use xlink:href="#DejaVuSans-32" x="248.095703"/>
     <use xlink:href="#DejaVuSans-30" x="311.71875"/>
     <use xlink:href="#DejaVuSans-30" x="375.341797"/>
     <use xlink:href="#DejaVuSans-39" x="438.964844"/>
    </g>
   </g>
   <g id="text_18">
    <!-- bbob f19, 2-D -->
    <g transform="translate(60.632064 38.111366)scale(0.102 -0.102)">
     <defs>
      <path id="DejaVuSans-44" d="M 1259 4147 
L 1259 519 
L 2022 519 
Q 2988 519 3436 956 
Q 3884 1394 3884 2338 
Q 3884 3275 3436 3711 
Q 2988 4147 2022 4147 
L 1259 4147 
z
M 628 4666 
L 1925 4666 
Q 3281 4666 3915 4102 
Q 4550 3538 4550 2338 
Q 4550 1131 3912 565 
Q 3275 0 1925 0 
L 628 0 
L 628 4666 
z
" transform="scale(0.015625)"/>
     </defs>
     <use xlink:href="#DejaVuSans-62"/>
     <use xlink:href="#DejaVuSans-62" x="63.476562"/>
     <use xlink:href="#DejaVuSans-6f" x="126.953125"/>
     <use xlink:href="#DejaVuSans-62" x="188.134766"/>
     <use xlink:href="#DejaVuSans-20" x="251.611328"/>
     <use xlink:href="#DejaVuSans-66" x="283.398438"/>
     <use xlink:href="#DejaVuSans-31" x="318.603516"/>
     <use xlink:href="#DejaVuSans-39" x="382.226562"/>
     <use xlink:href="#DejaVuSans-2c" x="445.849609"/>
     <use xlink:href="#DejaVuSans-20" x="477.636719"/>
     <use xlink:href="#DejaVuSans-32" x="509.423828"/>
     <use xlink:href="#DejaVuSans-2d" x="573.046875"/>
     <use xlink:href="#DejaVuSans-44" x="609.130859"/>
    </g>
    <!-- 51 targets: 100..1e-08 -->
    <g transform="translate(60.632064 49.533135)scale(0.102 -0.102)">
     <defs>
      <path id="DejaVuSans-35" d="M 691 4666 
L 3169 4666 
L 3169 4134 
L 1269 4134 
L 1269 2991 
Q 1406 3038 1543 3061 
Q 1681 3084 1819 3084 
Q 2600 3084 3056 2656 
Q 3513 2228 3513 1497 
Q 3513 744 3044 326 
Q 2575 -91 1722 -91 
Q 1428 -91 1123 -41 
Q 819 9 494 109 
L 494 744 
Q 775 591 1075 516 
Q 1375 441 1709 441 
Q 2250 441 2565 725 
Q 2881 1009 2881 1497 
Q 2881 1984 2565 2268 
Q 2250 2553 1709 2553 
Q 1456 2553 1204 2497 
Q 953 2441 691 2322 
L 691 4666 
z
" transform="scale(0.015625)"/>
      <path id="DejaVuSans-3a" d="M 750 794 
L 1409 794 
L 1409 0 
L 750 0 
L 750 794 
z
M 750 3309 
L 1409 3309 
L 1409 2516 
L 750 2516 
L 750 3309 
z
" transform="scale(0.015625)"/>
     </defs>
     <use xlink:href="#DejaVuSans-35"/>
     <use xlink:href="#DejaVuSans-31" x="63.623047"/>
     <use xlink:href="#DejaVuSans-20" x="127.246094"/>
     <use xlink:href="#DejaVuSans-74" x="159.033203"/>
     <use xlink:href="#DejaVuSans-61" x="198.242188"/>
     <use xlink:href="#DejaVuSans-72" x="259.521484"/>
     <use xlink:href="#DejaVuSans-67" x="298.884766"/>
     <use xlink:href="#DejaVuSans-65" x="362.361328"/>
     <use xlink:href="#DejaVuSans-74" x="423.884766"/>
     <use xlink:href="#DejaVuSans-73" x="463.09375"/>
     <use xlink:href="#DejaVuSans-3a" x="515.193359"/>
     <use xlink:href="#DejaVuSans-20" x="548.884766"/>
     <use xlink:href="#DejaVuSans-31" x="580.671875"/>
     <use xlink:href="#DejaVuSans-30" x="644.294922"/>
     <use xlink:href="#DejaVuSans-30" x="707.917969"/>
     <use xlink:href="#DejaVuSans-2e" x="771.541016"/>
     <use xlink:href="#DejaVuSans-2e" x="803.328125"/>
     <use xlink:href="#DejaVuSans-31" x="835.115234"/>
     <use xlink:href="#DejaVuSans-65" x="898.738281"/>
     <use xlink:href="#DejaVuSans-2d" x="960.261719"/>
     <use xlink:href="#DejaVuSans-30" x="996.345703"/>
     <use xlink:href="#DejaVuSans-38" x="1059.96875"/>
    </g>
    <!-- 25, 5, 15 instances -->
    <g transform="translate(60.632064 60.954904)scale(0.102 -0.102)">
     <use xlink:href="#DejaVuSans-32"/>
     <use xlink:href="#DejaVuSans-35" x="63.623047"/>
     <use xlink:href="#DejaVuSans-2c" x="127.246094"/>
     <use xlink:href="#DejaVuSans-20" x="159.033203"/>
     <use xlink:href="#DejaVuSans-35" x="190.820312"/>
     <use xlink:href="#DejaVuSans-2c" x="254.443359"/>
     <use xlink:href="#DejaVuSans-20" x="286.230469"/>
     <use xlink:href="#DejaVuSans-31" x="318.017578"/>
     <use xlink:href="#DejaVuSans-35" x="381.640625"/>
     <use xlink:href="#DejaVuSans-20" x="445.263672"/>
     <use xlink:href="#DejaVuSans-69" x="477.050781"/>
     <use xlink:href="#DejaVuSans-6e" x="504.833984"/>
     <use xlink:href="#DejaVuSans-73" x="568.212891"/>
     <use xlink:href="#DejaVuSans-74" x="620.3125"/>
     <use xlink:href="#DejaVuSans-61" x="659.521484"/>
     <use xlink:href="#DejaVuSans-6e" x="720.800781"/>
     <use xlink:href="#DejaVuSans-63" x="784.179688"/>
     <use xlink:href="#DejaVuSans-65" x="839.160156"/>
     <use xlink:href="#DejaVuSans-73" x="900.683594"/>
    </g>
   </g>
   <g id="text_19">
    <!-- v2.6 -->
    <g style="fill: #808080" transform="translate(198.292262 294.151352)scale(0.1 -0.1)">
     <use xlink:href="#DejaVuSans-76"/>
     <use xlink:href="#DejaVuSans-32" x="59.179688"/>
     <use xlink:href="#DejaVuSans-2e" x="122.802734"/>
     <use xlink:href="#DejaVuSans-36" x="154.589844"/>
    </g>
   </g>
   <g id="text_20">
    <!-- 19 Griewank-Rosenbrock F8F2 -->
    <g transform="translate(57.101637 21.648)scale(0.2 -0.2)">
     <defs>
      <path id="DejaVuSans-47" d="M 3809 666 
L 3809 1919 
L 2778 1919 
L 2778 2438 
L 4434 2438 
L 4434 434 
Q 4069 175 3628 42 
Q 3188 -91 2688 -91 
Q 1594 -91 976 548 
Q 359 1188 359 2328 
Q 359 3472 976 4111 
Q 1594 4750 2688 4750 
Q 3144 4750 3555 4637 
Q 3966 4525 4313 4306 
L 4313 3634 
Q 3963 3931 3569 4081 
Q 3175 4231 2741 4231 
Q 1884 4231 1454 3753 
Q 1025 3275 1025 2328 
Q 1025 1384 1454 906 
Q 1884 428 2741 428 
Q 3075 428 3337 486 
Q 3600 544 3809 666 
z
" transform="scale(0.015625)"/>
      <path id="DejaVuSans-77" d="M 269 3500 
L 844 3500 
L 1563 769 
L 2278 3500 
L 2956 3500 
L 3675 769 
L 4391 3500 
L 4966 3500 
L 4050 0 
L 3372 0 
L 2619 2869 
L 1863 0 
L 1184 0 
L 269 3500 
z
" transform="scale(0.015625)"/>
      <path id="DejaVuSans-6b" d="M 581 4863 
L 1159 4863 
L 1159 1991 
L 2875 3500 
L 3609 3500 
L 1753 1863 
L 3688 0 
L 2938 0 
L 1159 1709 
L 1159 0 
L 581 0 
L 581 4863 
z
" transform="scale(0.015625)"/>
      <path id="DejaVuSans-52" d="M 2841 2188 
Q 3044 2119 3236 1894 
Q 3428 1669 3622 1275 
L 4263 0 
L 3584 0 
L 2988 1197 
Q 2756 1666 2539 1819 
Q 2322 1972 1947 1972 
L 1259 1972 
L 1259 0 
L 628 0 
L 628 4666 
L 2053 4666 
Q 2853 4666 3247 4331 
Q 3641 3997 3641 3322 
Q 3641 2881 3436 2590 
Q 3231 2300 2841 2188 
z
M 1259 4147 
L 1259 2491 
L 2053 2491 
Q 2509 2491 2742 2702 
Q 2975 2913 2975 3322 
Q 2975 3731 2742 3939 
Q 2509 4147 2053 4147 
L 1259 4147 
z
" transform="scale(0.015625)"/>
     </defs>
     <use xlink:href="#DejaVuSans-31"/>
     <use xlink:href="#DejaVuSans-39" x="63.623047"/>
     <use xlink:href="#DejaVuSans-20" x="127.246094"/>
     <use xlink:href="#DejaVuSans-47" x="159.033203"/>
     <use xlink:href="#DejaVuSans-72" x="236.523438"/>
     <use xlink:href="#DejaVuSans-69" x="277.636719"/>
     <use xlink:href="#DejaVuSans-65" x="305.419922"/>
     <use xlink:href="#DejaVuSans-77" x="366.943359"/>
     <use xlink:href="#DejaVuSans-61" x="448.730469"/>
     <use xlink:href="#DejaVuSans-6e" x="510.009766"/>
     <use xlink:href="#DejaVuSans-6b" x="573.388672"/>
     <use xlink:href="#DejaVuSans-2d" x="631.298828"/>
     <use xlink:href="#DejaVuSans-52" x="667.382812"/>
     <use xlink:href="#DejaVuSans-6f" x="732.365234"/>
     <use xlink:href="#DejaVuSans-73" x="793.546875"/>
     <use xlink:href="#DejaVuSans-65" x="845.646484"/>
     <use xlink:href="#DejaVuSans-6e" x="907.169922"/>
     <use xlink:href="#DejaVuSans-62" x="970.548828"/>
     <use xlink:href="#DejaVuSans-72" x="1034.025391"/>
     <use xlink:href="#DejaVuSans-6f" x="1072.888672"/>
     <use xlink:href="#DejaVuSans-63" x="1134.070312"/>
     <use xlink:href="#DejaVuSans-6b" x="1189.050781"/>
     <use xlink:href="#DejaVuSans-20" x="1246.960938"/>
     <use xlink:href="#DejaVuSans-46" x="1278.748047"/>
     <use xlink:href="#DejaVuSans-38" x="1336.267578"/>
     <use xlink:href="#DejaVuSans-46" x="1399.890625"/>
     <use xlink:href="#DejaVuSans-32" x="1457.410156"/>
    </g>
   </g>
  </g>
 </g>
 <defs>
  <clipPath id="pef722f2943">
   <rect x="57.6" y="27.648" width="303.2064" height="271.296"/>
  </clipPath>
 </defs>
</svg>
