<?xml version="1.0" encoding="utf-8" standalone="no"?>
<!DOCTYPE svg PUBLIC "-//W3C//DTD SVG 1.1//EN"
  "http://www.w3.org/Graphics/SVG/1.1/DTD/svg11.dtd">
<svg xmlns:xlink="http://www.w3.org/1999/xlink" width="460.8pt" height="345.6pt" viewBox="0 0 460.8 345.6" xmlns="http://www.w3.org/2000/svg" version="1.1">
 <metadata>
  <rdf:RDF xmlns:dc="http://purl.org/dc/elements/1.1/" xmlns:cc="http://creativecommons.org/ns#" xmlns:rdf="http://www.w3.org/1999/02/22-rdf-syntax-ns#">
   <cc:Work>
    <dc:type rdf:resource="http://purl.org/dc/dcmitype/StillImage"/>
    <dc:date>2022-03-17T00:31:50.573586</dc:date>
    <dc:format>image/svg+xml</dc:format>
    <dc:creator>
     <cc:Agent>
      <dc:title>Matplotlib v3.5.1, https://matplotlib.org/</dc:title>
     </cc:Agent>
    </dc:creator>
   </cc:Work>
  </rdf:RDF>
 </metadata>
 <defs>
  <style type="text/css">*{stroke-linejoin: round; stroke-linecap: butt}</style>
 </defs>
 <g id="figure_1">
  <g id="patch_1">
   <path d="M 0 345.6 
L 460.8 345.6 
L 460.8 0 
L 0 0 
z
" style="fill: #ffffff"/>
  </g>
  <g id="axes_1">
   <g id="patch_2">
    <path d="M 57.6 298.944 
L 360.8064 298.944 
L 360.8064 27.648 
L 57.6 27.648 
z
" style="fill: #ffffff"/>
   </g>
   <g id="line2d_1">
    <path d="M 14.2848 298.944 
L 14.2848 277.665882 
L 27.323974 277.665882 
L 27.323974 272.346353 
L 34.951403 272.346353 
L 34.951403 267.026824 
L 57.6 267.026824 
L 57.6 261.707294 
L 91.922605 261.707294 
L 91.922605 256.387765 
L 109.990385 256.387765 
L 109.990385 251.068235 
L 124.101572 251.068235 
L 124.101572 245.748706 
L 142.559347 245.748706 
L 142.559347 240.429176 
L 150.000827 240.429176 
L 150.000827 235.109647 
L 167.240447 235.109647 
L 167.240447 229.790118 
L 193.521154 229.790118 
L 193.521154 224.470588 
L 195.092594 224.470588 
L 195.092594 219.151059 
L 196.880259 219.151059 
L 196.880259 213.831529 
L 211.159254 213.831529 
L 211.159254 208.512 
L 217.792633 208.512 
L 217.792633 203.192471 
L 222.717414 203.192471 
L 222.717414 197.872941 
L 227.409742 197.872941 
L 227.409742 192.553412 
L 242.320904 192.553412 
L 242.320904 187.233882 
L 242.40195 187.233882 
L 242.40195 181.914353 
L 244.020452 181.914353 
L 244.020452 176.594824 
L 244.073927 176.594824 
L 244.073927 171.275294 
L 244.141556 171.275294 
L 244.141556 165.955765 
L 244.226699 165.955765 
L 244.226699 160.636235 
L 244.291203 160.636235 
L 244.291203 155.316706 
L 244.344006 155.316706 
L 244.344006 149.997176 
L 244.397487 149.997176 
L 244.397487 144.677647 
L 244.441953 144.677647 
L 244.441953 139.358118 
L 244.493607 139.358118 
L 244.493607 134.038588 
L 244.544665 134.038588 
L 244.544665 128.719059 
L 244.586881 128.719059 
L 244.586881 123.399529 
L 244.631807 123.399529 
L 244.631807 118.08 
L 244.672745 118.08 
L 244.672745 112.760471 
L 244.721699 112.760471 
L 244.721699 107.440941 
L 244.779055 107.440941 
L 244.779055 102.121412 
L 244.817704 102.121412 
L 244.817704 96.801882 
L 244.849656 96.801882 
L 244.849656 91.482353 
L 244.892622 91.482353 
L 244.892622 86.162824 
L 244.940118 86.162824 
L 244.940118 80.843294 
L 244.975328 80.843294 
L 244.975328 75.523765 
L 245.015437 75.523765 
L 245.015437 70.204235 
L 245.054488 70.204235 
L 245.054488 64.884706 
L 245.093546 64.884706 
L 245.093546 59.565176 
L 245.129704 59.565176 
L 245.129704 54.245647 
L 245.177924 54.245647 
L 245.177924 48.926118 
L 245.235924 48.926118 
L 245.235924 43.606588 
L 245.289552 43.606588 
L 245.289552 38.287059 
L 245.33841 38.287059 
L 245.33841 32.967529 
L 245.379232 32.967529 
L 245.379232 27.648 
L 360.8064 27.648 
" style="fill: none; stroke: #f5deb3; stroke-width: 4; stroke-linecap: square"/>
   </g>
   <g id="line2d_2">
    <defs>
     <path id="m97648b32fe" d="M -0 7.778175 
L 7.778175 0 
L 0 -7.778175 
L -7.778175 -0 
z
" style="stroke: #f5deb3; stroke-width: 1.5; stroke-linejoin: miter"/>
    </defs>
    <g>
     <use xlink:href="#m97648b32fe" x="150.000827" y="235.109647" style="fill: #f5deb3; stroke: #f5deb3; stroke-width: 1.5; stroke-linejoin: miter"/>
     <use xlink:href="#m97648b32fe" x="244.397487" y="149.997176" style="fill: #f5deb3; stroke: #f5deb3; stroke-width: 1.5; stroke-linejoin: miter"/>
     <use xlink:href="#m97648b32fe" x="245.129704" y="54.245647" style="fill: #f5deb3; stroke: #f5deb3; stroke-width: 1.5; stroke-linejoin: miter"/>
     <use xlink:href="#m97648b32fe" x="245.379232" y="27.648" style="fill: #f5deb3; stroke: #f5deb3; stroke-width: 1.5; stroke-linejoin: miter"/>
     <use xlink:href="#m97648b32fe" x="360.8064" y="27.648" style="fill: #f5deb3; stroke: #f5deb3; stroke-width: 1.5; stroke-linejoin: miter"/>
    </g>
   </g>
   <g id="line2d_3">
    <path style="fill: none; stroke: #f5deb3; stroke-width: 4; stroke-linecap: square"/>
    <g/>
   </g>
   <g id="line2d_4">
    <path d="M 360.8064 27.648 
L 380.514816 33.07392 
" style="fill: none; stroke: #f5deb3; stroke-width: 4; stroke-linecap: square"/>
    <g>
     <use xlink:href="#m97648b32fe" x="360.8064" y="27.648" style="fill: #f5deb3; stroke: #f5deb3; stroke-width: 1.5; stroke-linejoin: miter"/>
     <use xlink:href="#m97648b32fe" x="380.514816" y="33.07392" style="fill: #f5deb3; stroke: #f5deb3; stroke-width: 1.5; stroke-linejoin: miter"/>
    </g>
   </g>
   <g id="matplotlib.axis_1">
    <g id="xtick_1">
     <g id="line2d_5">
      <path d="M 57.6 298.944 
L 57.6 27.648 
" clip-path="url(#p83a4a31d97)" style="fill: none; stroke: #b0b0b0; stroke-width: 0.8; stroke-linecap: square"/>
     </g>
     <g id="line2d_6">
      <defs>
       <path id="m01c570e028" d="M 0 0 
L 0 3.5 
" style="stroke: #000000; stroke-width: 0.8"/>
      </defs>
      <g>
       <use xlink:href="#m01c570e028" x="57.6" y="298.944" style="stroke: #000000; stroke-width: 0.8"/>
      </g>
     </g>
     <g id="text_1">
      <!-- 0 -->
      <g transform="translate(52.191875 318.861344)scale(0.17 -0.17)">
       <defs>
        <path id="DejaVuSans-30" d="M 2034 4250 
Q 1547 4250 1301 3770 
Q 1056 3291 1056 2328 
Q 1056 1369 1301 889 
Q 1547 409 2034 409 
Q 2525 409 2770 889 
Q 3016 1369 3016 2328 
Q 3016 3291 2770 3770 
Q 2525 4250 2034 4250 
z
M 2034 4750 
Q 2819 4750 3233 4129 
Q 3647 3509 3647 2328 
Q 3647 1150 3233 529 
Q 2819 -91 2034 -91 
Q 1250 -91 836 529 
Q 422 1150 422 2328 
Q 422 3509 836 4129 
Q 1250 4750 2034 4750 
z
" transform="scale(0.015625)"/>
       </defs>
       <use xlink:href="#DejaVuSans-30"/>
      </g>
     </g>
    </g>
    <g id="xtick_2">
     <g id="line2d_7">
      <path d="M 144.2304 298.944 
L 144.2304 27.648 
" clip-path="url(#p83a4a31d97)" style="fill: none; stroke: #b0b0b0; stroke-width: 0.8; stroke-linecap: square"/>
     </g>
     <g id="line2d_8">
      <g>
       <use xlink:href="#m01c570e028" x="144.2304" y="298.944" style="stroke: #000000; stroke-width: 0.8"/>
      </g>
     </g>
     <g id="text_2">
      <!-- 2 -->
      <g transform="translate(138.822275 318.861344)scale(0.17 -0.17)">
       <defs>
        <path id="DejaVuSans-32" d="M 1228 531 
L 3431 531 
L 3431 0 
L 469 0 
L 469 531 
Q 828 903 1448 1529 
Q 2069 2156 2228 2338 
Q 2531 2678 2651 2914 
Q 2772 3150 2772 3378 
Q 2772 3750 2511 3984 
Q 2250 4219 1831 4219 
Q 1534 4219 1204 4116 
Q 875 4013 500 3803 
L 500 4441 
Q 881 4594 1212 4672 
Q 1544 4750 1819 4750 
Q 2544 4750 2975 4387 
Q 3406 4025 3406 3419 
Q 3406 3131 3298 2873 
Q 3191 2616 2906 2266 
Q 2828 2175 2409 1742 
Q 1991 1309 1228 531 
z
" transform="scale(0.015625)"/>
       </defs>
       <use xlink:href="#DejaVuSans-32"/>
      </g>
     </g>
    </g>
    <g id="xtick_3">
     <g id="line2d_9">
      <path d="M 230.8608 298.944 
L 230.8608 27.648 
" clip-path="url(#p83a4a31d97)" style="fill: none; stroke: #b0b0b0; stroke-width: 0.8; stroke-linecap: square"/>
     </g>
     <g id="line2d_10">
      <g>
       <use xlink:href="#m01c570e028" x="230.8608" y="298.944" style="stroke: #000000; stroke-width: 0.8"/>
      </g>
     </g>
     <g id="text_3">
      <!-- 4 -->
      <g transform="translate(225.452675 318.861344)scale(0.17 -0.17)">
       <defs>
        <path id="DejaVuSans-34" d="M 2419 4116 
L 825 1625 
L 2419 1625 
L 2419 4116 
z
M 2253 4666 
L 3047 4666 
L 3047 1625 
L 3713 1625 
L 3713 1100 
L 3047 1100 
L 3047 0 
L 2419 0 
L 2419 1100 
L 313 1100 
L 313 1709 
L 2253 4666 
z
" transform="scale(0.015625)"/>
       </defs>
       <use xlink:href="#DejaVuSans-34"/>
      </g>
     </g>
    </g>
    <g id="xtick_4">
     <g id="line2d_11">
      <path d="M 317.4912 298.944 
L 317.4912 27.648 
" clip-path="url(#p83a4a31d97)" style="fill: none; stroke: #b0b0b0; stroke-width: 0.8; stroke-linecap: square"/>
     </g>
     <g id="line2d_12">
      <g>
       <use xlink:href="#m01c570e028" x="317.4912" y="298.944" style="stroke: #000000; stroke-width: 0.8"/>
      </g>
     </g>
     <g id="text_4">
      <!-- 6 -->
      <g transform="translate(312.083075 318.861344)scale(0.17 -0.17)">
       <defs>
        <path id="DejaVuSans-36" d="M 2113 2584 
Q 1688 2584 1439 2293 
Q 1191 2003 1191 1497 
Q 1191 994 1439 701 
Q 1688 409 2113 409 
Q 2538 409 2786 701 
Q 3034 994 3034 1497 
Q 3034 2003 2786 2293 
Q 2538 2584 2113 2584 
z
M 3366 4563 
L 3366 3988 
Q 3128 4100 2886 4159 
Q 2644 4219 2406 4219 
Q 1781 4219 1451 3797 
Q 1122 3375 1075 2522 
Q 1259 2794 1537 2939 
Q 1816 3084 2150 3084 
Q 2853 3084 3261 2657 
Q 3669 2231 3669 1497 
Q 3669 778 3244 343 
Q 2819 -91 2113 -91 
Q 1303 -91 875 529 
Q 447 1150 447 2328 
Q 447 3434 972 4092 
Q 1497 4750 2381 4750 
Q 2619 4750 2861 4703 
Q 3103 4656 3366 4563 
z
" transform="scale(0.015625)"/>
       </defs>
       <use xlink:href="#DejaVuSans-36"/>
      </g>
     </g>
    </g>
    <g id="xtick_5">
     <g id="line2d_13">
      <path d="M 100.9152 298.944 
L 100.9152 27.648 
" clip-path="url(#p83a4a31d97)" style="fill: none; stroke: #b0b0b0; stroke-width: 0.8; stroke-linecap: square"/>
     </g>
     <g id="line2d_14">
      <defs>
       <path id="m6db9e56be0" d="M 0 0 
L 0 2 
" style="stroke: #000000; stroke-width: 0.6"/>
      </defs>
      <g>
       <use xlink:href="#m6db9e56be0" x="100.9152" y="298.944" style="stroke: #000000; stroke-width: 0.6"/>
      </g>
     </g>
    </g>
    <g id="xtick_6">
     <g id="line2d_15">
      <path d="M 187.5456 298.944 
L 187.5456 27.648 
" clip-path="url(#p83a4a31d97)" style="fill: none; stroke: #b0b0b0; stroke-width: 0.8; stroke-linecap: square"/>
     </g>
     <g id="line2d_16">
      <g>
       <use xlink:href="#m6db9e56be0" x="187.5456" y="298.944" style="stroke: #000000; stroke-width: 0.6"/>
      </g>
     </g>
    </g>
    <g id="xtick_7">
     <g id="line2d_17">
      <path d="M 274.176 298.944 
L 274.176 27.648 
" clip-path="url(#p83a4a31d97)" style="fill: none; stroke: #b0b0b0; stroke-width: 0.8; stroke-linecap: square"/>
     </g>
     <g id="line2d_18">
      <g>
       <use xlink:href="#m6db9e56be0" x="274.176" y="298.944" style="stroke: #000000; stroke-width: 0.6"/>
      </g>
     </g>
    </g>
    <g id="xtick_8">
     <g id="line2d_19">
      <path d="M 360.8064 298.944 
L 360.8064 27.648 
" clip-path="url(#p83a4a31d97)" style="fill: none; stroke: #b0b0b0; stroke-width: 0.8; stroke-linecap: square"/>
     </g>
     <g id="line2d_20">
      <g>
       <use xlink:href="#m6db9e56be0" x="360.8064" y="298.944" style="stroke: #000000; stroke-width: 0.6"/>
      </g>
     </g>
    </g>
    <g id="text_5">
     <!-- log10(# f-evals / dimension) -->
     <g transform="translate(88.823278 339.314156)scale(0.17 -0.17)">
      <defs>
       <path id="DejaVuSans-6c" d="M 603 4863 
L 1178 4863 
L 1178 0 
L 603 0 
L 603 4863 
z
" transform="scale(0.015625)"/>
       <path id="DejaVuSans-6f" d="M 1959 3097 
Q 1497 3097 1228 2736 
Q 959 2375 959 1747 
Q 959 1119 1226 758 
Q 1494 397 1959 397 
Q 2419 397 2687 759 
Q 2956 1122 2956 1747 
Q 2956 2369 2687 2733 
Q 2419 3097 1959 3097 
z
M 1959 3584 
Q 2709 3584 3137 3096 
Q 3566 2609 3566 1747 
Q 3566 888 3137 398 
Q 2709 -91 1959 -91 
Q 1206 -91 779 398 
Q 353 888 353 1747 
Q 353 2609 779 3096 
Q 1206 3584 1959 3584 
z
" transform="scale(0.015625)"/>
       <path id="DejaVuSans-67" d="M 2906 1791 
Q 2906 2416 2648 2759 
Q 2391 3103 1925 3103 
Q 1463 3103 1205 2759 
Q 947 2416 947 1791 
Q 947 1169 1205 825 
Q 1463 481 1925 481 
Q 2391 481 2648 825 
Q 2906 1169 2906 1791 
z
M 3481 434 
Q 3481 -459 3084 -895 
Q 2688 -1331 1869 -1331 
Q 1566 -1331 1297 -1286 
Q 1028 -1241 775 -1147 
L 775 -588 
Q 1028 -725 1275 -790 
Q 1522 -856 1778 -856 
Q 2344 -856 2625 -561 
Q 2906 -266 2906 331 
L 2906 616 
Q 2728 306 2450 153 
Q 2172 0 1784 0 
Q 1141 0 747 490 
Q 353 981 353 1791 
Q 353 2603 747 3093 
Q 1141 3584 1784 3584 
Q 2172 3584 2450 3431 
Q 2728 3278 2906 2969 
L 2906 3500 
L 3481 3500 
L 3481 434 
z
" transform="scale(0.015625)"/>
       <path id="DejaVuSans-31" d="M 794 531 
L 1825 531 
L 1825 4091 
L 703 3866 
L 703 4441 
L 1819 4666 
L 2450 4666 
L 2450 531 
L 3481 531 
L 3481 0 
L 794 0 
L 794 531 
z
" transform="scale(0.015625)"/>
       <path id="DejaVuSans-28" d="M 1984 4856 
Q 1566 4138 1362 3434 
Q 1159 2731 1159 2009 
Q 1159 1288 1364 580 
Q 1569 -128 1984 -844 
L 1484 -844 
Q 1016 -109 783 600 
Q 550 1309 550 2009 
Q 550 2706 781 3412 
Q 1013 4119 1484 4856 
L 1984 4856 
z
" transform="scale(0.015625)"/>
       <path id="DejaVuSans-23" d="M 3272 2816 
L 2363 2816 
L 2100 1772 
L 3016 1772 
L 3272 2816 
z
M 2803 4594 
L 2478 3297 
L 3391 3297 
L 3719 4594 
L 4219 4594 
L 3897 3297 
L 4872 3297 
L 4872 2816 
L 3775 2816 
L 3519 1772 
L 4513 1772 
L 4513 1294 
L 3397 1294 
L 3072 0 
L 2572 0 
L 2894 1294 
L 1978 1294 
L 1656 0 
L 1153 0 
L 1478 1294 
L 494 1294 
L 494 1772 
L 1594 1772 
L 1856 2816 
L 850 2816 
L 850 3297 
L 1978 3297 
L 2297 4594 
L 2803 4594 
z
" transform="scale(0.015625)"/>
       <path id="DejaVuSans-20" transform="scale(0.015625)"/>
       <path id="DejaVuSans-66" d="M 2375 4863 
L 2375 4384 
L 1825 4384 
Q 1516 4384 1395 4259 
Q 1275 4134 1275 3809 
L 1275 3500 
L 2222 3500 
L 2222 3053 
L 1275 3053 
L 1275 0 
L 697 0 
L 697 3053 
L 147 3053 
L 147 3500 
L 697 3500 
L 697 3744 
Q 697 4328 969 4595 
Q 1241 4863 1831 4863 
L 2375 4863 
z
" transform="scale(0.015625)"/>
       <path id="DejaVuSans-2d" d="M 313 2009 
L 1997 2009 
L 1997 1497 
L 313 1497 
L 313 2009 
z
" transform="scale(0.015625)"/>
       <path id="DejaVuSans-65" d="M 3597 1894 
L 3597 1613 
L 953 1613 
Q 991 1019 1311 708 
Q 1631 397 2203 397 
Q 2534 397 2845 478 
Q 3156 559 3463 722 
L 3463 178 
Q 3153 47 2828 -22 
Q 2503 -91 2169 -91 
Q 1331 -91 842 396 
Q 353 884 353 1716 
Q 353 2575 817 3079 
Q 1281 3584 2069 3584 
Q 2775 3584 3186 3129 
Q 3597 2675 3597 1894 
z
M 3022 2063 
Q 3016 2534 2758 2815 
Q 2500 3097 2075 3097 
Q 1594 3097 1305 2825 
Q 1016 2553 972 2059 
L 3022 2063 
z
" transform="scale(0.015625)"/>
       <path id="DejaVuSans-76" d="M 191 3500 
L 800 3500 
L 1894 563 
L 2988 3500 
L 3597 3500 
L 2284 0 
L 1503 0 
L 191 3500 
z
" transform="scale(0.015625)"/>
       <path id="DejaVuSans-61" d="M 2194 1759 
Q 1497 1759 1228 1600 
Q 959 1441 959 1056 
Q 959 750 1161 570 
Q 1363 391 1709 391 
Q 2188 391 2477 730 
Q 2766 1069 2766 1631 
L 2766 1759 
L 2194 1759 
z
M 3341 1997 
L 3341 0 
L 2766 0 
L 2766 531 
Q 2569 213 2275 61 
Q 1981 -91 1556 -91 
Q 1019 -91 701 211 
Q 384 513 384 1019 
Q 384 1609 779 1909 
Q 1175 2209 1959 2209 
L 2766 2209 
L 2766 2266 
Q 2766 2663 2505 2880 
Q 2244 3097 1772 3097 
Q 1472 3097 1187 3025 
Q 903 2953 641 2809 
L 641 3341 
Q 956 3463 1253 3523 
Q 1550 3584 1831 3584 
Q 2591 3584 2966 3190 
Q 3341 2797 3341 1997 
z
" transform="scale(0.015625)"/>
       <path id="DejaVuSans-73" d="M 2834 3397 
L 2834 2853 
Q 2591 2978 2328 3040 
Q 2066 3103 1784 3103 
Q 1356 3103 1142 2972 
Q 928 2841 928 2578 
Q 928 2378 1081 2264 
Q 1234 2150 1697 2047 
L 1894 2003 
Q 2506 1872 2764 1633 
Q 3022 1394 3022 966 
Q 3022 478 2636 193 
Q 2250 -91 1575 -91 
Q 1294 -91 989 -36 
Q 684 19 347 128 
L 347 722 
Q 666 556 975 473 
Q 1284 391 1588 391 
Q 1994 391 2212 530 
Q 2431 669 2431 922 
Q 2431 1156 2273 1281 
Q 2116 1406 1581 1522 
L 1381 1569 
Q 847 1681 609 1914 
Q 372 2147 372 2553 
Q 372 3047 722 3315 
Q 1072 3584 1716 3584 
Q 2034 3584 2315 3537 
Q 2597 3491 2834 3397 
z
" transform="scale(0.015625)"/>
       <path id="DejaVuSans-2f" d="M 1625 4666 
L 2156 4666 
L 531 -594 
L 0 -594 
L 1625 4666 
z
" transform="scale(0.015625)"/>
       <path id="DejaVuSans-64" d="M 2906 2969 
L 2906 4863 
L 3481 4863 
L 3481 0 
L 2906 0 
L 2906 525 
Q 2725 213 2448 61 
Q 2172 -91 1784 -91 
Q 1150 -91 751 415 
Q 353 922 353 1747 
Q 353 2572 751 3078 
Q 1150 3584 1784 3584 
Q 2172 3584 2448 3432 
Q 2725 3281 2906 2969 
z
M 947 1747 
Q 947 1113 1208 752 
Q 1469 391 1925 391 
Q 2381 391 2643 752 
Q 2906 1113 2906 1747 
Q 2906 2381 2643 2742 
Q 2381 3103 1925 3103 
Q 1469 3103 1208 2742 
Q 947 2381 947 1747 
z
" transform="scale(0.015625)"/>
       <path id="DejaVuSans-69" d="M 603 3500 
L 1178 3500 
L 1178 0 
L 603 0 
L 603 3500 
z
M 603 4863 
L 1178 4863 
L 1178 4134 
L 603 4134 
L 603 4863 
z
" transform="scale(0.015625)"/>
       <path id="DejaVuSans-6d" d="M 3328 2828 
Q 3544 3216 3844 3400 
Q 4144 3584 4550 3584 
Q 5097 3584 5394 3201 
Q 5691 2819 5691 2113 
L 5691 0 
L 5113 0 
L 5113 2094 
Q 5113 2597 4934 2840 
Q 4756 3084 4391 3084 
Q 3944 3084 3684 2787 
Q 3425 2491 3425 1978 
L 3425 0 
L 2847 0 
L 2847 2094 
Q 2847 2600 2669 2842 
Q 2491 3084 2119 3084 
Q 1678 3084 1418 2786 
Q 1159 2488 1159 1978 
L 1159 0 
L 581 0 
L 581 3500 
L 1159 3500 
L 1159 2956 
Q 1356 3278 1631 3431 
Q 1906 3584 2284 3584 
Q 2666 3584 2933 3390 
Q 3200 3197 3328 2828 
z
" transform="scale(0.015625)"/>
       <path id="DejaVuSans-6e" d="M 3513 2113 
L 3513 0 
L 2938 0 
L 2938 2094 
Q 2938 2591 2744 2837 
Q 2550 3084 2163 3084 
Q 1697 3084 1428 2787 
Q 1159 2491 1159 1978 
L 1159 0 
L 581 0 
L 581 3500 
L 1159 3500 
L 1159 2956 
Q 1366 3272 1645 3428 
Q 1925 3584 2291 3584 
Q 2894 3584 3203 3211 
Q 3513 2838 3513 2113 
z
" transform="scale(0.015625)"/>
       <path id="DejaVuSans-29" d="M 513 4856 
L 1013 4856 
Q 1481 4119 1714 3412 
Q 1947 2706 1947 2009 
Q 1947 1309 1714 600 
Q 1481 -109 1013 -844 
L 513 -844 
Q 928 -128 1133 580 
Q 1338 1288 1338 2009 
Q 1338 2731 1133 3434 
Q 928 4138 513 4856 
z
" transform="scale(0.015625)"/>
      </defs>
      <use xlink:href="#DejaVuSans-6c"/>
      <use xlink:href="#DejaVuSans-6f" x="27.783203"/>
      <use xlink:href="#DejaVuSans-67" x="88.964844"/>
      <use xlink:href="#DejaVuSans-31" x="152.441406"/>
      <use xlink:href="#DejaVuSans-30" x="216.064453"/>
      <use xlink:href="#DejaVuSans-28" x="279.6875"/>
      <use xlink:href="#DejaVuSans-23" x="318.701172"/>
      <use xlink:href="#DejaVuSans-20" x="402.490234"/>
      <use xlink:href="#DejaVuSans-66" x="434.277344"/>
      <use xlink:href="#DejaVuSans-2d" x="463.982422"/>
      <use xlink:href="#DejaVuSans-65" x="500.066406"/>
      <use xlink:href="#DejaVuSans-76" x="561.589844"/>
      <use xlink:href="#DejaVuSans-61" x="620.769531"/>
      <use xlink:href="#DejaVuSans-6c" x="682.048828"/>
      <use xlink:href="#DejaVuSans-73" x="709.832031"/>
      <use xlink:href="#DejaVuSans-20" x="761.931641"/>
      <use xlink:href="#DejaVuSans-2f" x="793.71875"/>
      <use xlink:href="#DejaVuSans-20" x="827.410156"/>
      <use xlink:href="#DejaVuSans-64" x="859.197266"/>
      <use xlink:href="#DejaVuSans-69" x="922.673828"/>
      <use xlink:href="#DejaVuSans-6d" x="950.457031"/>
      <use xlink:href="#DejaVuSans-65" x="1047.869141"/>
      <use xlink:href="#DejaVuSans-6e" x="1109.392578"/>
      <use xlink:href="#DejaVuSans-73" x="1172.771484"/>
      <use xlink:href="#DejaVuSans-69" x="1224.871094"/>
      <use xlink:href="#DejaVuSans-6f" x="1252.654297"/>
      <use xlink:href="#DejaVuSans-6e" x="1313.835938"/>
      <use xlink:href="#DejaVuSans-29" x="1377.214844"/>
     </g>
    </g>
   </g>
   <g id="matplotlib.axis_2">
    <g id="ytick_1">
     <g id="line2d_21">
      <path d="M 57.6 298.944 
L 360.8064 298.944 
" clip-path="url(#p83a4a31d97)" style="fill: none; stroke: #b0b0b0; stroke-width: 0.8; stroke-linecap: square"/>
     </g>
     <g id="line2d_22">
      <defs>
       <path id="m9a8f7d5232" d="M 0 0 
L -3.5 0 
" style="stroke: #000000; stroke-width: 0.8"/>
      </defs>
      <g>
       <use xlink:href="#m9a8f7d5232" x="57.6" y="298.944" style="stroke: #000000; stroke-width: 0.8"/>
      </g>
     </g>
     <g id="text_6">
      <!-- 0.0 -->
      <g transform="translate(25.155 305.02275)scale(0.16 -0.16)">
       <defs>
        <path id="DejaVuSans-2e" d="M 684 794 
L 1344 794 
L 1344 0 
L 684 0 
L 684 794 
z
" transform="scale(0.015625)"/>
       </defs>
       <use xlink:href="#DejaVuSans-30"/>
       <use xlink:href="#DejaVuSans-2e" x="63.623047"/>
       <use xlink:href="#DejaVuSans-30" x="95.410156"/>
      </g>
     </g>
    </g>
    <g id="ytick_2">
     <g id="line2d_23">
      <path d="M 57.6 244.6848 
L 360.8064 244.6848 
" clip-path="url(#p83a4a31d97)" style="fill: none; stroke: #b0b0b0; stroke-width: 0.8; stroke-linecap: square"/>
     </g>
     <g id="line2d_24">
      <g>
       <use xlink:href="#m9a8f7d5232" x="57.6" y="244.6848" style="stroke: #000000; stroke-width: 0.8"/>
      </g>
     </g>
     <g id="text_7">
      <!-- 0.2 -->
      <g transform="translate(25.155 250.76355)scale(0.16 -0.16)">
       <use xlink:href="#DejaVuSans-30"/>
       <use xlink:href="#DejaVuSans-2e" x="63.623047"/>
       <use xlink:href="#DejaVuSans-32" x="95.410156"/>
      </g>
     </g>
    </g>
    <g id="ytick_3">
     <g id="line2d_25">
      <path d="M 57.6 190.4256 
L 360.8064 190.4256 
" clip-path="url(#p83a4a31d97)" style="fill: none; stroke: #b0b0b0; stroke-width: 0.8; stroke-linecap: square"/>
     </g>
     <g id="line2d_26">
      <g>
       <use xlink:href="#m9a8f7d5232" x="57.6" y="190.4256" style="stroke: #000000; stroke-width: 0.8"/>
      </g>
     </g>
     <g id="text_8">
      <!-- 0.4 -->
      <g transform="translate(25.155 196.50435)scale(0.16 -0.16)">
       <use xlink:href="#DejaVuSans-30"/>
       <use xlink:href="#DejaVuSans-2e" x="63.623047"/>
       <use xlink:href="#DejaVuSans-34" x="95.410156"/>
      </g>
     </g>
    </g>
    <g id="ytick_4">
     <g id="line2d_27">
      <path d="M 57.6 136.1664 
L 360.8064 136.1664 
" clip-path="url(#p83a4a31d97)" style="fill: none; stroke: #b0b0b0; stroke-width: 0.8; stroke-linecap: square"/>
     </g>
     <g id="line2d_28">
      <g>
       <use xlink:href="#m9a8f7d5232" x="57.6" y="136.1664" style="stroke: #000000; stroke-width: 0.8"/>
      </g>
     </g>
     <g id="text_9">
      <!-- 0.6 -->
      <g transform="translate(25.155 142.24515)scale(0.16 -0.16)">
       <use xlink:href="#DejaVuSans-30"/>
       <use xlink:href="#DejaVuSans-2e" x="63.623047"/>
       <use xlink:href="#DejaVuSans-36" x="95.410156"/>
      </g>
     </g>
    </g>
    <g id="ytick_5">
     <g id="line2d_29">
      <path d="M 57.6 81.9072 
L 360.8064 81.9072 
" clip-path="url(#p83a4a31d97)" style="fill: none; stroke: #b0b0b0; stroke-width: 0.8; stroke-linecap: square"/>
     </g>
     <g id="line2d_30">
      <g>
       <use xlink:href="#m9a8f7d5232" x="57.6" y="81.9072" style="stroke: #000000; stroke-width: 0.8"/>
      </g>
     </g>
     <g id="text_10">
      <!-- 0.8 -->
      <g transform="translate(25.155 87.98595)scale(0.16 -0.16)">
       <defs>
        <path id="DejaVuSans-38" d="M 2034 2216 
Q 1584 2216 1326 1975 
Q 1069 1734 1069 1313 
Q 1069 891 1326 650 
Q 1584 409 2034 409 
Q 2484 409 2743 651 
Q 3003 894 3003 1313 
Q 3003 1734 2745 1975 
Q 2488 2216 2034 2216 
z
M 1403 2484 
Q 997 2584 770 2862 
Q 544 3141 544 3541 
Q 544 4100 942 4425 
Q 1341 4750 2034 4750 
Q 2731 4750 3128 4425 
Q 3525 4100 3525 3541 
Q 3525 3141 3298 2862 
Q 3072 2584 2669 2484 
Q 3125 2378 3379 2068 
Q 3634 1759 3634 1313 
Q 3634 634 3220 271 
Q 2806 -91 2034 -91 
Q 1263 -91 848 271 
Q 434 634 434 1313 
Q 434 1759 690 2068 
Q 947 2378 1403 2484 
z
M 1172 3481 
Q 1172 3119 1398 2916 
Q 1625 2713 2034 2713 
Q 2441 2713 2670 2916 
Q 2900 3119 2900 3481 
Q 2900 3844 2670 4047 
Q 2441 4250 2034 4250 
Q 1625 4250 1398 4047 
Q 1172 3844 1172 3481 
z
" transform="scale(0.015625)"/>
       </defs>
       <use xlink:href="#DejaVuSans-30"/>
       <use xlink:href="#DejaVuSans-2e" x="63.623047"/>
       <use xlink:href="#DejaVuSans-38" x="95.410156"/>
      </g>
     </g>
    </g>
    <g id="ytick_6">
     <g id="line2d_31">
      <path d="M 57.6 27.648 
L 360.8064 27.648 
" clip-path="url(#p83a4a31d97)" style="fill: none; stroke: #b0b0b0; stroke-width: 0.8; stroke-linecap: square"/>
     </g>
     <g id="line2d_32">
      <g>
       <use xlink:href="#m9a8f7d5232" x="57.6" y="27.648" style="stroke: #000000; stroke-width: 0.8"/>
      </g>
     </g>
     <g id="text_11">
      <!-- 1.0 -->
      <g transform="translate(25.155 33.72675)scale(0.16 -0.16)">
       <use xlink:href="#DejaVuSans-31"/>
       <use xlink:href="#DejaVuSans-2e" x="63.623047"/>
       <use xlink:href="#DejaVuSans-30" x="95.410156"/>
      </g>
     </g>
    </g>
    <g id="text_12">
     <!-- Fraction of function,target pairs -->
     <g transform="translate(17.619531 297.681)rotate(-90)scale(0.17 -0.17)">
      <defs>
       <path id="DejaVuSans-46" d="M 628 4666 
L 3309 4666 
L 3309 4134 
L 1259 4134 
L 1259 2759 
L 3109 2759 
L 3109 2228 
L 1259 2228 
L 1259 0 
L 628 0 
L 628 4666 
z
" transform="scale(0.015625)"/>
       <path id="DejaVuSans-72" d="M 2631 2963 
Q 2534 3019 2420 3045 
Q 2306 3072 2169 3072 
Q 1681 3072 1420 2755 
Q 1159 2438 1159 1844 
L 1159 0 
L 581 0 
L 581 3500 
L 1159 3500 
L 1159 2956 
Q 1341 3275 1631 3429 
Q 1922 3584 2338 3584 
Q 2397 3584 2469 3576 
Q 2541 3569 2628 3553 
L 2631 2963 
z
" transform="scale(0.015625)"/>
       <path id="DejaVuSans-63" d="M 3122 3366 
L 3122 2828 
Q 2878 2963 2633 3030 
Q 2388 3097 2138 3097 
Q 1578 3097 1268 2742 
Q 959 2388 959 1747 
Q 959 1106 1268 751 
Q 1578 397 2138 397 
Q 2388 397 2633 464 
Q 2878 531 3122 666 
L 3122 134 
Q 2881 22 2623 -34 
Q 2366 -91 2075 -91 
Q 1284 -91 818 406 
Q 353 903 353 1747 
Q 353 2603 823 3093 
Q 1294 3584 2113 3584 
Q 2378 3584 2631 3529 
Q 2884 3475 3122 3366 
z
" transform="scale(0.015625)"/>
       <path id="DejaVuSans-74" d="M 1172 4494 
L 1172 3500 
L 2356 3500 
L 2356 3053 
L 1172 3053 
L 1172 1153 
Q 1172 725 1289 603 
Q 1406 481 1766 481 
L 2356 481 
L 2356 0 
L 1766 0 
Q 1100 0 847 248 
Q 594 497 594 1153 
L 594 3053 
L 172 3053 
L 172 3500 
L 594 3500 
L 594 4494 
L 1172 4494 
z
" transform="scale(0.015625)"/>
       <path id="DejaVuSans-75" d="M 544 1381 
L 544 3500 
L 1119 3500 
L 1119 1403 
Q 1119 906 1312 657 
Q 1506 409 1894 409 
Q 2359 409 2629 706 
Q 2900 1003 2900 1516 
L 2900 3500 
L 3475 3500 
L 3475 0 
L 2900 0 
L 2900 538 
Q 2691 219 2414 64 
Q 2138 -91 1772 -91 
Q 1169 -91 856 284 
Q 544 659 544 1381 
z
M 1991 3584 
L 1991 3584 
z
" transform="scale(0.015625)"/>
       <path id="DejaVuSans-2c" d="M 750 794 
L 1409 794 
L 1409 256 
L 897 -744 
L 494 -744 
L 750 256 
L 750 794 
z
" transform="scale(0.015625)"/>
       <path id="DejaVuSans-70" d="M 1159 525 
L 1159 -1331 
L 581 -1331 
L 581 3500 
L 1159 3500 
L 1159 2969 
Q 1341 3281 1617 3432 
Q 1894 3584 2278 3584 
Q 2916 3584 3314 3078 
Q 3713 2572 3713 1747 
Q 3713 922 3314 415 
Q 2916 -91 2278 -91 
Q 1894 -91 1617 61 
Q 1341 213 1159 525 
z
M 3116 1747 
Q 3116 2381 2855 2742 
Q 2594 3103 2138 3103 
Q 1681 3103 1420 2742 
Q 1159 2381 1159 1747 
Q 1159 1113 1420 752 
Q 1681 391 2138 391 
Q 2594 391 2855 752 
Q 3116 1113 3116 1747 
z
" transform="scale(0.015625)"/>
      </defs>
      <use xlink:href="#DejaVuSans-46"/>
      <use xlink:href="#DejaVuSans-72" x="50.269531"/>
      <use xlink:href="#DejaVuSans-61" x="91.382812"/>
      <use xlink:href="#DejaVuSans-63" x="152.662109"/>
      <use xlink:href="#DejaVuSans-74" x="207.642578"/>
      <use xlink:href="#DejaVuSans-69" x="246.851562"/>
      <use xlink:href="#DejaVuSans-6f" x="274.634766"/>
      <use xlink:href="#DejaVuSans-6e" x="335.816406"/>
      <use xlink:href="#DejaVuSans-20" x="399.195312"/>
      <use xlink:href="#DejaVuSans-6f" x="430.982422"/>
      <use xlink:href="#DejaVuSans-66" x="492.164062"/>
      <use xlink:href="#DejaVuSans-20" x="527.369141"/>
      <use xlink:href="#DejaVuSans-66" x="559.15625"/>
      <use xlink:href="#DejaVuSans-75" x="594.361328"/>
      <use xlink:href="#DejaVuSans-6e" x="657.740234"/>
      <use xlink:href="#DejaVuSans-63" x="721.119141"/>
      <use xlink:href="#DejaVuSans-74" x="776.099609"/>
      <use xlink:href="#DejaVuSans-69" x="815.308594"/>
      <use xlink:href="#DejaVuSans-6f" x="843.091797"/>
      <use xlink:href="#DejaVuSans-6e" x="904.273438"/>
      <use xlink:href="#DejaVuSans-2c" x="967.652344"/>
      <use xlink:href="#DejaVuSans-74" x="999.439453"/>
      <use xlink:href="#DejaVuSans-61" x="1038.648438"/>
      <use xlink:href="#DejaVuSans-72" x="1099.927734"/>
      <use xlink:href="#DejaVuSans-67" x="1139.291016"/>
      <use xlink:href="#DejaVuSans-65" x="1202.767578"/>
      <use xlink:href="#DejaVuSans-74" x="1264.291016"/>
      <use xlink:href="#DejaVuSans-20" x="1303.5"/>
      <use xlink:href="#DejaVuSans-70" x="1335.287109"/>
      <use xlink:href="#DejaVuSans-61" x="1398.763672"/>
      <use xlink:href="#DejaVuSans-69" x="1460.042969"/>
      <use xlink:href="#DejaVuSans-72" x="1487.826172"/>
      <use xlink:href="#DejaVuSans-73" x="1528.939453"/>
     </g>
    </g>
   </g>
   <g id="line2d_33">
    <defs>
     <path id="m67182a3803" d="M 0 1.5 
C 0.397805 1.5 0.77937 1.341951 1.06066 1.06066 
C 1.341951 0.77937 1.5 0.397805 1.5 0 
C 1.5 -0.397805 1.341951 -0.77937 1.06066 -1.06066 
C 0.77937 -1.341951 0.397805 -1.5 0 -1.5 
C -0.397805 -1.5 -0.77937 -1.341951 -1.06066 -1.06066 
C -1.341951 -0.77937 -1.5 -0.397805 -1.5 0 
C -1.5 0.397805 -1.341951 0.77937 -1.06066 1.06066 
C -0.77937 1.341951 -0.397805 1.5 0 1.5 
z
" style="stroke: #f5deb3"/>
    </defs>
    <g>
     <use xlink:href="#m67182a3803" x="245.379232" y="27.648" style="fill: #f5deb3; stroke: #f5deb3"/>
     <use xlink:href="#m67182a3803" x="245.379232" y="27.648" style="fill: #f5deb3; stroke: #f5deb3"/>
    </g>
   </g>
   <g id="line2d_34">
    <defs>
     <path id="mc73f1f5f3f" d="M 0 1.5 
C 0.397805 1.5 0.77937 1.341951 1.06066 1.06066 
C 1.341951 0.77937 1.5 0.397805 1.5 0 
C 1.5 -0.397805 1.341951 -0.77937 1.06066 -1.06066 
C 0.77937 -1.341951 0.397805 -1.5 0 -1.5 
C -0.397805 -1.5 -0.77937 -1.341951 -1.06066 -1.06066 
C -1.341951 -0.77937 -1.5 -0.397805 -1.5 0 
C -1.5 0.397805 -1.341951 0.77937 -1.06066 1.06066 
C -0.77937 1.341951 -0.397805 1.5 0 1.5 
z
" style="stroke: #000080"/>
    </defs>
    <g>
     <use xlink:href="#mc73f1f5f3f" x="288.195907" y="187.233882" style="fill: #000080; stroke: #000080"/>
     <use xlink:href="#mc73f1f5f3f" x="288.195907" y="187.233882" style="fill: #000080; stroke: #000080"/>
    </g>
   </g>
   <g id="line2d_35">
    <path d="M 14.2848 298.944 
L 14.2848 275.538071 
L 27.323974 275.538071 
L 27.323974 272.346353 
L 34.951403 272.346353 
L 34.951403 271.282447 
L 40.363149 271.282447 
L 40.363149 269.154635 
L 47.990577 269.154635 
L 47.990577 268.090729 
L 53.402323 268.090729 
L 53.402323 265.962918 
L 55.618005 265.962918 
L 55.618005 264.899012 
L 67.581941 264.899012 
L 67.581941 263.835106 
L 74.068926 263.835106 
L 74.068926 262.7712 
L 94.472426 262.7712 
L 94.472426 261.707294 
L 104.501065 261.707294 
L 104.501065 260.643388 
L 106.974091 260.643388 
L 106.974091 259.579482 
L 114.961559 259.579482 
L 114.961559 258.515576 
L 116.419219 258.515576 
L 116.419219 257.451671 
L 121.581803 257.451671 
L 121.581803 256.387765 
L 153.478964 256.387765 
L 153.478964 255.323859 
L 157.789059 255.323859 
L 157.789059 254.259953 
L 162.334839 254.259953 
L 162.334839 253.196047 
L 162.949812 253.196047 
L 162.998429 251.068235 
L 163.525091 251.068235 
L 163.525091 250.004329 
L 163.95848 250.004329 
L 163.95848 248.940424 
L 164.580835 248.940424 
L 164.580835 247.876518 
L 164.853058 247.876518 
L 164.853058 246.812612 
L 165.201776 246.812612 
L 165.201776 245.748706 
L 165.701011 245.748706 
L 165.701011 244.6848 
L 165.892297 244.6848 
L 165.892297 243.620894 
L 166.437427 243.620894 
L 166.437427 242.556988 
L 167.925369 242.556988 
L 167.925369 241.493082 
L 168.248209 241.493082 
L 168.248209 240.429176 
L 170.425955 240.429176 
L 170.425955 239.365271 
L 171.226568 239.365271 
L 171.226568 238.301365 
L 172.921523 238.301365 
L 172.921523 237.237459 
L 178.655883 237.237459 
L 178.764203 235.109647 
L 180.66592 235.109647 
L 180.66592 234.045741 
L 188.777885 234.045741 
L 188.777885 232.981835 
L 189.024683 232.981835 
L 189.024683 231.917929 
L 189.206389 231.917929 
L 189.206389 230.854024 
L 190.595307 230.854024 
L 190.595307 229.790118 
L 195.59221 229.790118 
L 195.59221 228.726212 
L 195.738813 228.726212 
L 195.738813 227.662306 
L 195.992651 227.662306 
L 195.992651 226.5984 
L 196.264424 226.5984 
L 196.264424 225.534494 
L 206.449094 225.534494 
L 206.449094 224.470588 
L 210.875118 224.470588 
L 210.875118 223.406682 
L 211.97139 223.406682 
L 211.97139 222.342776 
L 214.102215 222.342776 
L 214.102215 221.278871 
L 214.274274 221.278871 
L 214.36356 218.087153 
L 222.709292 218.087153 
L 222.709292 217.023247 
L 222.87884 217.023247 
L 222.87884 215.959341 
L 231.464455 215.959341 
L 231.513214 215.250071 
L 231.604028 215.179144 
L 231.706999 212.554842 
L 231.999119 212.554842 
L 232.005669 211.065374 
L 232.123189 211.065374 
L 232.123365 210.285176 
L 236.73352 210.285176 
L 236.73352 210.001468 
L 237.392574 210.001468 
L 237.405331 209.575906 
L 240.26291 209.575906 
L 240.32978 208.512 
L 244.22938 208.512 
L 244.328291 206.596969 
L 244.478199 206.526042 
L 244.542302 204.752866 
L 249.182773 204.681939 
L 249.224421 204.398231 
L 251.778979 204.327304 
L 251.814337 202.837835 
L 251.915161 202.837835 
L 251.958355 200.426315 
L 257.128379 200.355388 
L 257.232659 198.085722 
L 257.263424 198.085722 
L 257.263516 197.305525 
L 261.288511 197.234598 
L 261.396914 195.532348 
L 264.69316 195.461421 
L 264.783752 193.830099 
L 267.575129 193.759172 
L 267.652827 192.127849 
L 270.073644 192.056922 
L 270.141626 191.489506 
L 272.282504 191.418579 
L 272.325476 190.780235 
L 274.255723 190.709308 
L 274.306961 190.070965 
L 276.03856 190.000038 
L 276.088093 189.574475 
L 277.704659 189.503548 
L 277.70469 189.290767 
L 279.178791 189.21984 
L 279.212486 188.936132 
L 280.560495 188.865205 
L 280.590469 188.439642 
L 281.861891 188.368715 
L 281.882783 188.226861 
L 283.072359 188.155934 
L 283.09195 187.943153 
L 284.205242 187.872226 
L 284.235429 187.588518 
L 286.319673 187.517591 
L 286.319713 187.375736 
L 288.195907 187.304809 
L 288.195907 187.233882 
L 360.8064 187.233882 
L 360.8064 187.233882 
" style="fill: none; stroke: #000080; stroke-width: 1.5; stroke-linecap: square"/>
   </g>
   <g id="line2d_36">
    <defs>
     <path id="md2f94cc9d5" d="M 0 6 
C 1.591219 6 3.117479 5.367802 4.242641 4.242641 
C 5.367802 3.117479 6 1.591219 6 0 
C 6 -1.591219 5.367802 -3.117479 4.242641 -4.242641 
C 3.117479 -5.367802 1.591219 -6 0 -6 
C -1.591219 -6 -3.117479 -5.367802 -4.242641 -4.242641 
C -5.367802 -3.117479 -6 -1.591219 -6 0 
C -6 1.591219 -5.367802 3.117479 -4.242641 4.242641 
C -3.117479 5.367802 -1.591219 6 0 6 
z
" style="stroke: #000080; stroke-width: 1.5"/>
    </defs>
    <g>
     <use xlink:href="#md2f94cc9d5" x="106.974091" y="260.643388" style="fill-opacity: 0; stroke: #000080; stroke-width: 1.5"/>
     <use xlink:href="#md2f94cc9d5" x="180.66592" y="234.045741" style="fill-opacity: 0; stroke: #000080; stroke-width: 1.5"/>
     <use xlink:href="#md2f94cc9d5" x="267.652827" y="192.269704" style="fill-opacity: 0; stroke: #000080; stroke-width: 1.5"/>
     <use xlink:href="#md2f94cc9d5" x="288.195907" y="187.233882" style="fill-opacity: 0; stroke: #000080; stroke-width: 1.5"/>
     <use xlink:href="#md2f94cc9d5" x="288.195907" y="187.233882" style="fill-opacity: 0; stroke: #000080; stroke-width: 1.5"/>
     <use xlink:href="#md2f94cc9d5" x="360.8064" y="187.233882" style="fill-opacity: 0; stroke: #000080; stroke-width: 1.5"/>
    </g>
   </g>
   <g id="line2d_37">
    <path style="fill: none; stroke: #000080; stroke-width: 1.5; stroke-linecap: square"/>
    <g/>
   </g>
   <g id="line2d_38">
    <path d="M 230.861741 215.959341 
" clip-path="url(#p83a4a31d97)" style="fill: none; stroke: #000080; stroke-width: 1.5; stroke-linecap: square"/>
    <defs>
     <path id="m0d7b73a227" d="M -12 12 
L 12 -12 
M -12 -12 
L 12 12 
" style="stroke: #000080"/>
    </defs>
    <g clip-path="url(#p83a4a31d97)">
     <use xlink:href="#m0d7b73a227" x="230.861741" y="215.959341" style="fill: #000080; stroke: #000080"/>
    </g>
   </g>
   <g id="line2d_39">
    <defs>
     <path id="mae2d57c5aa" d="M 0 1.5 
C 0.397805 1.5 0.77937 1.341951 1.06066 1.06066 
C 1.341951 0.77937 1.5 0.397805 1.5 0 
C 1.5 -0.397805 1.341951 -0.77937 1.06066 -1.06066 
C 0.77937 -1.341951 0.397805 -1.5 0 -1.5 
C -0.397805 -1.5 -0.77937 -1.341951 -1.06066 -1.06066 
C -1.341951 -0.77937 -1.5 -0.397805 -1.5 0 
C -1.5 0.397805 -1.341951 0.77937 -1.06066 1.06066 
C -0.77937 1.341951 -0.397805 1.5 0 1.5 
z
" style="stroke: #ff00ff"/>
    </defs>
    <g>
     <use xlink:href="#mae2d57c5aa" x="272.025263" y="203.192471" style="fill: #ff00ff; stroke: #ff00ff"/>
     <use xlink:href="#mae2d57c5aa" x="272.025263" y="203.192471" style="fill: #ff00ff; stroke: #ff00ff"/>
    </g>
   </g>
   <g id="line2d_40">
    <path d="M 14.2848 298.944 
L 14.2848 275.538071 
L 27.323974 275.538071 
L 27.323974 271.708009 
L 34.951403 271.708009 
L 34.951403 269.580198 
L 40.363149 269.580198 
L 40.363149 268.303511 
L 44.560826 268.303511 
L 44.560826 267.239605 
L 47.990577 267.239605 
L 47.990577 266.814042 
L 50.890391 266.814042 
L 50.890391 266.38848 
L 53.402323 266.38848 
L 53.402323 265.962918 
L 55.618005 265.962918 
L 55.618005 264.899012 
L 57.6 264.899012 
L 57.6 264.686231 
L 59.392932 264.686231 
L 59.392932 264.473449 
L 61.029752 264.473449 
L 61.029752 263.835106 
L 63.929565 263.835106 
L 63.929565 263.409544 
L 67.581941 263.409544 
L 67.581941 262.983981 
L 68.65718 262.983981 
L 68.65718 262.558419 
L 70.639174 262.558419 
L 70.639174 262.345638 
L 76.284608 262.345638 
L 76.284608 261.920075 
L 78.88343 261.920075 
L 78.88343 261.707294 
L 80.621116 261.707294 
L 80.621116 261.494513 
L 81.696354 261.494513 
L 81.696354 261.352659 
L 83.202082 261.281732 
L 83.202082 261.068951 
L 84.142855 261.068951 
L 84.142855 260.927096 
L 85.471281 260.856169 
L 85.471281 260.785242 
L 87.876026 260.714315 
L 87.876026 260.430607 
L 90.340871 260.430607 
L 90.340871 260.005045 
L 93.098709 259.934118 
L 93.098709 259.863191 
L 94.205591 259.863191 
L 94.205591 259.650409 
L 94.995002 259.650409 
L 94.995002 259.224847 
L 95.752617 259.224847 
L 95.752617 259.012066 
L 97.18203 259.012066 
L 97.18203 258.728358 
L 97.857967 258.728358 
L 97.857967 258.515576 
L 99.751228 258.515576 
L 99.751228 258.302795 
L 101.287718 258.231868 
L 101.287718 258.160941 
L 102.362957 258.090014 
L 102.362957 258.019087 
L 103.380045 258.019087 
L 103.380045 257.877233 
L 107.378656 257.806306 
L 107.378656 257.593525 
L 111.442442 257.522598 
L 111.442442 257.451671 
L 115.747307 257.380744 
L 115.747307 257.309816 
L 119.738639 257.309816 
L 119.807672 256.245911 
L 120.879082 256.245911 
L 120.879082 255.820348 
L 121.830966 255.749421 
L 121.892744 255.465713 
L 125.425011 255.394786 
L 125.425011 255.182005 
L 126.225624 255.182005 
L 126.274549 254.827369 
L 126.804487 254.827369 
L 126.804487 254.614588 
L 129.125437 254.543661 
L 129.125437 254.472734 
L 135.478982 254.401807 
L 135.478982 254.189026 
L 138.566146 254.118099 
L 138.566146 254.047172 
L 144.731576 254.047172 
L 144.731576 253.834391 
L 145.83427 253.763464 
L 145.83427 253.550682 
L 146.379077 253.550682 
L 146.379077 253.408828 
L 147.423525 253.337901 
L 147.423525 253.266974 
L 147.675821 253.266974 
L 147.675821 253.054193 
L 147.847333 253.054193 
L 147.847333 252.841412 
L 148.771063 252.770485 
L 148.771063 252.557704 
L 149.395993 252.486776 
L 149.395993 252.415849 
L 150.262008 252.415849 
L 150.262008 252.203068 
L 151.820167 252.132141 
L 151.820167 252.061214 
L 152.727811 252.061214 
L 152.727811 251.848433 
L 153.095398 251.848433 
L 153.095398 251.635652 
L 153.421349 251.635652 
L 153.490466 251.281016 
L 153.775755 251.281016 
L 153.775755 251.068235 
L 154.134722 250.997308 
L 154.14583 250.784527 
L 154.649839 250.784527 
L 154.671449 250.500819 
L 155.329337 250.429892 
L 155.339761 250.288038 
L 155.823323 250.217111 
L 155.884169 249.791548 
L 156.937458 249.720621 
L 156.956595 249.436913 
L 157.260166 249.436913 
L 157.260166 249.295059 
L 157.605171 249.224132 
L 157.605171 249.011351 
L 157.898535 249.011351 
L 157.898535 248.869496 
L 158.223191 248.869496 
L 158.285673 248.585788 
L 158.356828 248.585788 
L 158.356828 248.373007 
L 159.198823 248.30208 
L 159.198823 248.231153 
L 159.568678 248.160226 
L 159.593632 248.018372 
L 159.841374 248.018372 
L 159.890533 247.592809 
L 160.102084 247.521882 
L 160.150567 247.380028 
L 160.620781 247.309101 
L 160.722826 247.025393 
L 160.785349 247.025393 
L 160.785349 246.883539 
L 161.564818 246.883539 
L 161.639526 246.528904 
L 162.052497 246.457976 
L 162.081651 246.316122 
L 162.38507 246.316122 
L 162.38507 246.174268 
L 163.945293 246.174268 
L 163.945293 245.961487 
L 164.233297 245.89056 
L 164.239791 245.748706 
L 164.669899 245.677779 
L 164.764859 245.181289 
L 165.195605 245.181289 
L 165.195605 245.039435 
L 165.701011 244.968508 
L 165.778956 244.826654 
L 165.868492 244.826654 
L 165.868492 244.613873 
L 166.899679 244.542946 
L 166.916583 244.401092 
L 167.079212 244.330165 
L 167.079212 244.259238 
L 167.334325 244.259238 
L 167.334325 244.117384 
L 167.742992 244.046456 
L 167.742992 243.833675 
L 167.999955 243.833675 
L 167.999955 243.620894 
L 168.337202 243.620894 
L 168.337202 243.47904 
L 168.519108 243.408113 
L 168.519108 243.337186 
L 169.074603 243.266259 
L 169.184759 242.982551 
L 169.343842 242.982551 
L 169.343842 242.840696 
L 169.735764 242.769769 
L 169.813178 242.627915 
L 170.346334 242.556988 
L 170.416606 242.27328 
L 170.736514 242.202353 
L 170.736514 242.131426 
L 170.951349 242.060499 
L 170.951349 241.847718 
L 171.594694 241.776791 
L 171.594694 241.705864 
L 172.53279 241.634936 
L 172.53279 241.564009 
L 172.732295 241.564009 
L 172.732295 241.422155 
L 173.133165 241.422155 
L 173.133165 241.209374 
L 173.832324 241.138447 
L 173.832324 241.06752 
L 173.964444 241.06752 
L 173.964444 240.854739 
L 174.513949 240.783812 
L 174.521469 240.641958 
L 174.738254 240.641958 
L 174.738254 240.429176 
L 175.066125 240.358249 
L 175.066125 240.287322 
L 175.298414 240.216395 
L 175.366826 239.932687 
L 175.481488 239.86176 
L 175.481488 239.719906 
L 175.76512 239.648979 
L 175.76512 239.578052 
L 175.919314 239.578052 
L 175.929781 239.152489 
L 176.041072 239.081562 
L 176.041072 238.939708 
L 176.523753 238.868781 
L 176.523753 238.797854 
L 176.695334 238.797854 
L 176.695334 238.585073 
L 176.838794 238.585073 
L 176.94485 238.301365 
L 177.1192 238.230438 
L 177.207402 238.088584 
L 177.626385 238.017656 
L 177.626385 237.946729 
L 178.265613 237.875802 
L 178.265613 237.733948 
L 178.501354 237.733948 
L 178.501354 237.521167 
L 178.83906 237.45024 
L 178.83906 237.379313 
L 179.08842 237.308386 
L 179.164938 237.095605 
L 179.258688 237.024678 
L 179.258688 236.953751 
L 179.609017 236.882824 
L 179.609017 236.811896 
L 179.859766 236.740969 
L 179.933215 236.457261 
L 180.679474 236.386334 
L 180.679474 236.315407 
L 181.597035 236.24448 
L 181.597035 236.031699 
L 182.33841 235.960772 
L 182.417638 235.606136 
L 182.633809 235.535209 
L 182.648457 235.180574 
L 182.840277 235.180574 
L 182.919829 234.896866 
L 183.108916 234.896866 
L 183.108916 234.755012 
L 183.352626 234.755012 
L 183.427703 234.400376 
L 183.614096 234.400376 
L 183.614096 234.258522 
L 183.750387 234.258522 
L 183.750387 234.045741 
L 184.323878 233.974814 
L 184.366249 233.83296 
L 184.559054 233.83296 
L 184.629476 233.549252 
L 184.804387 233.478325 
L 184.804387 233.407398 
L 184.96906 233.407398 
L 184.96906 233.265544 
L 185.226169 233.194616 
L 185.226169 232.981835 
L 185.536413 232.910908 
L 185.603277 232.6272 
L 185.946366 232.556273 
L 186.011791 232.343492 
L 186.188522 232.343492 
L 186.253111 231.847002 
L 186.38563 231.847002 
L 186.449547 231.42144 
L 186.608395 231.350513 
L 186.626182 231.137732 
L 186.810958 231.066805 
L 186.810958 230.995878 
L 187.280377 230.995878 
L 187.34133 230.712169 
L 187.477756 230.641242 
L 187.492854 230.499388 
L 187.954967 230.428461 
L 187.954967 230.357534 
L 188.167281 230.286607 
L 188.232688 230.144753 
L 188.425758 230.073826 
L 188.425758 230.002899 
L 189.365875 229.931972 
L 189.365875 229.861045 
L 189.988981 229.861045 
L 190.076335 229.506409 
L 191.447503 229.435482 
L 191.447503 229.364555 
L 191.818373 229.293628 
L 191.818373 229.222701 
L 192.283245 229.151774 
L 192.283245 229.080847 
L 192.96957 229.00992 
L 192.96957 228.797139 
L 193.223055 228.726212 
L 193.223055 228.655285 
L 193.947584 228.584358 
L 194.03039 228.442504 
L 194.361944 228.371576 
L 194.361944 228.300649 
L 195.801988 228.229722 
L 195.801988 228.158795 
L 196.131412 228.087868 
L 196.131412 228.016941 
L 198.910637 227.946014 
L 198.910637 227.875087 
L 199.153753 227.80416 
L 199.153753 227.733233 
L 200.155718 227.662306 
L 200.184564 227.520452 
L 201.398394 227.449525 
L 201.499906 226.882108 
L 201.599982 226.811181 
L 201.699528 226.5984 
L 202.345186 226.527473 
L 202.399926 226.172838 
L 202.480887 226.172838 
L 202.507231 225.960056 
L 203.192636 225.889129 
L 203.230264 225.676348 
L 203.401095 225.605421 
L 203.401095 225.534494 
L 203.749303 225.534494 
L 203.800111 225.250786 
L 203.951716 225.179859 
L 204.040374 224.896151 
L 205.2161 224.825224 
L 205.2161 224.754296 
L 208.760334 224.683369 
L 208.853287 224.470588 
L 208.902313 224.399661 
L 208.91621 224.257807 
L 209.475588 224.18688 
L 209.517756 224.045026 
L 210.042152 223.974099 
L 210.042152 223.903172 
L 210.42231 223.832245 
L 210.506311 223.690391 
L 210.815151 223.619464 
L 210.893614 223.264828 
L 210.975542 223.264828 
L 211.036079 222.910193 
L 211.359765 222.839266 
L 211.393683 222.697412 
L 214.020888 222.626485 
L 214.07239 222.342776 
L 214.481205 222.271849 
L 214.570858 222.129995 
L 215.264491 222.059068 
L 215.264491 221.988141 
L 216.082192 221.917214 
L 216.082192 221.846287 
L 217.614313 221.846287 
L 217.708795 221.278871 
L 217.74434 221.278871 
L 217.798661 220.924235 
L 218.12282 220.853308 
L 218.164243 220.498673 
L 218.409789 220.427746 
L 218.517054 220.285892 
L 218.818466 220.214965 
L 218.899644 220.073111 
L 219.51442 220.073111 
L 219.552892 219.718475 
L 221.125862 219.647548 
L 221.125862 219.576621 
L 221.627583 219.505694 
L 221.627583 219.434767 
L 221.781838 219.434767 
L 221.892765 218.441788 
L 221.926672 218.370861 
L 221.98918 218.15808 
L 222.095597 218.15808 
L 222.196945 217.590664 
L 222.396541 217.519736 
L 222.429553 217.377882 
L 222.722923 217.306955 
L 222.722923 217.236028 
L 223.089858 217.165101 
L 223.089858 217.094174 
L 224.12349 217.023247 
L 224.12349 216.95232 
L 224.434445 216.881393 
L 224.434445 216.810466 
L 224.888476 216.739539 
L 224.994126 216.597685 
L 225.148184 216.597685 
L 225.213316 216.313976 
L 226.857753 216.243049 
L 226.8838 215.959341 
L 227.132217 215.888414 
L 227.187868 215.675633 
L 227.526893 215.675633 
L 227.601534 215.179144 
L 227.823695 215.108216 
L 227.833641 214.966362 
L 228.070558 214.895435 
L 228.070558 214.824508 
L 228.325634 214.753581 
L 228.325634 214.682654 
L 229.084189 214.611727 
L 229.084189 214.5408 
L 229.545528 214.469873 
L 229.572743 214.328019 
L 229.798216 214.257092 
L 229.903615 214.115238 
L 230.065225 214.044311 
L 230.065225 213.973384 
L 231.396746 213.902456 
L 231.402596 213.760602 
L 232.412949 213.689675 
L 232.412949 213.618748 
L 232.765755 213.547821 
L 232.765755 213.476894 
L 234.284594 213.405967 
L 234.284594 213.33504 
L 235.010106 213.264113 
L 235.116627 213.122259 
L 235.325651 213.051332 
L 235.325651 212.980405 
L 236.361736 212.909478 
L 236.381104 212.767624 
L 236.74398 212.696696 
L 236.788096 212.483915 
L 237.906579 212.412988 
L 237.906579 212.342061 
L 238.49525 212.271134 
L 238.593902 212.058353 
L 239.934707 211.987426 
L 240.040666 211.420009 
L 240.285378 211.349082 
L 240.285378 211.278155 
L 240.989451 211.207228 
L 241.082219 210.994447 
L 241.180185 210.92352 
L 241.27148 210.568885 
L 241.311134 210.497958 
L 241.311134 210.427031 
L 242.128635 210.356104 
L 242.228202 210.143322 
L 242.320801 210.072395 
L 242.400932 209.788687 
L 242.491876 209.71776 
L 242.491876 209.646833 
L 243.156332 209.575906 
L 243.23367 209.221271 
L 243.582882 209.150344 
L 243.639044 209.008489 
L 243.976476 208.937562 
L 243.976476 208.866635 
L 244.373105 208.795708 
L 244.373105 208.724781 
L 244.49871 208.653854 
L 244.49871 208.582927 
L 244.998055 208.512 
L 244.998055 208.441073 
L 245.59337 208.370146 
L 245.5938 208.228292 
L 246.183339 208.157365 
L 246.183339 208.086438 
L 246.614716 208.015511 
L 246.620658 207.873656 
L 247.194267 207.802729 
L 247.194267 207.731802 
L 247.743388 207.660875 
L 247.791556 207.448094 
L 248.370982 207.377167 
L 248.436869 207.235313 
L 249.233349 207.164386 
L 249.315201 207.022532 
L 249.737693 206.951605 
L 249.76395 206.809751 
L 250.213476 206.738824 
L 250.254448 206.596969 
L 250.447892 206.526042 
L 250.45493 206.384188 
L 250.719395 206.313261 
L 250.719395 206.242334 
L 251.181495 206.171407 
L 251.291157 206.029553 
L 251.478492 205.958626 
L 251.478492 205.887699 
L 251.861336 205.816772 
L 251.861336 205.745845 
L 252.529356 205.674918 
L 252.529356 205.603991 
L 253.438873 205.533064 
L 253.438873 205.462136 
L 253.823509 205.391209 
L 253.877655 205.249355 
L 254.607425 205.178428 
L 254.647415 205.036574 
L 255.452783 204.965647 
L 255.452783 204.89472 
L 255.681888 204.823793 
L 255.681888 204.752866 
L 256.18753 204.681939 
L 256.18753 204.611012 
L 257.135734 204.540085 
L 257.135734 204.469158 
L 257.3886 204.398231 
L 257.3886 204.327304 
L 259.156168 204.256376 
L 259.156168 204.185449 
L 259.365796 204.114522 
L 259.365796 204.043595 
L 262.378833 203.972668 
L 262.378833 203.901741 
L 263.274827 203.830814 
L 263.274827 203.759887 
L 264.133061 203.68896 
L 264.133061 203.618033 
L 265.978534 203.547106 
L 265.978534 203.476179 
L 268.535449 203.405252 
L 268.535449 203.334325 
L 272.025263 203.263398 
L 272.025263 203.192471 
L 360.8064 203.192471 
L 360.8064 203.192471 
" style="fill: none; stroke: #ff00ff; stroke-width: 1.5; stroke-linecap: square"/>
   </g>
   <g id="line2d_41">
    <defs>
     <path id="me9b47bfae1" d="M -0 8.485281 
L 5.091169 0 
L 0 -8.485281 
L -5.091169 -0 
z
" style="stroke: #ff00ff; stroke-width: 1.5; stroke-linejoin: miter"/>
    </defs>
    <g>
     <use xlink:href="#me9b47bfae1" x="68.65718" y="262.983981" style="fill-opacity: 0; stroke: #ff00ff; stroke-width: 1.5; stroke-linejoin: miter"/>
     <use xlink:href="#me9b47bfae1" x="138.566146" y="254.118099" style="fill-opacity: 0; stroke: #ff00ff; stroke-width: 1.5; stroke-linejoin: miter"/>
     <use xlink:href="#me9b47bfae1" x="200.463994" y="227.449525" style="fill-opacity: 0; stroke: #ff00ff; stroke-width: 1.5; stroke-linejoin: miter"/>
     <use xlink:href="#me9b47bfae1" x="272.025263" y="203.263398" style="fill-opacity: 0; stroke: #ff00ff; stroke-width: 1.5; stroke-linejoin: miter"/>
     <use xlink:href="#me9b47bfae1" x="272.025263" y="203.192471" style="fill-opacity: 0; stroke: #ff00ff; stroke-width: 1.5; stroke-linejoin: miter"/>
     <use xlink:href="#me9b47bfae1" x="360.8064" y="203.192471" style="fill-opacity: 0; stroke: #ff00ff; stroke-width: 1.5; stroke-linejoin: miter"/>
    </g>
   </g>
   <g id="line2d_42">
    <path style="fill: none; stroke: #ff00ff; stroke-width: 1.5; stroke-linecap: square"/>
    <g/>
   </g>
   <g id="line2d_43">
    <path d="M 144.454795 254.047172 
" clip-path="url(#p83a4a31d97)" style="fill: none; stroke: #ff00ff; stroke-width: 1.5; stroke-linecap: square"/>
    <defs>
     <path id="ma8f54e3049" d="M -12 12 
L 12 -12 
M -12 -12 
L 12 12 
" style="stroke: #ff00ff"/>
    </defs>
    <g clip-path="url(#p83a4a31d97)">
     <use xlink:href="#ma8f54e3049" x="144.454795" y="254.047172" style="fill: #ff00ff; stroke: #ff00ff"/>
    </g>
   </g>
   <g id="line2d_44">
    <defs>
     <path id="m44c496866b" d="M 0 1.5 
C 0.397805 1.5 0.77937 1.341951 1.06066 1.06066 
C 1.341951 0.77937 1.5 0.397805 1.5 0 
C 1.5 -0.397805 1.341951 -0.77937 1.06066 -1.06066 
C 0.77937 -1.341951 0.397805 -1.5 0 -1.5 
C -0.397805 -1.5 -0.77937 -1.341951 -1.06066 -1.06066 
C -1.341951 -0.77937 -1.5 -0.397805 -1.5 0 
C -1.5 0.397805 -1.341951 0.77937 -1.06066 1.06066 
C -0.77937 1.341951 -0.397805 1.5 0 1.5 
z
" style="stroke: #ff7500"/>
    </defs>
    <g>
     <use xlink:href="#m44c496866b" x="265.115317" y="219.151059" style="fill: #ff7500; stroke: #ff7500"/>
     <use xlink:href="#m44c496866b" x="265.115317" y="219.151059" style="fill: #ff7500; stroke: #ff7500"/>
    </g>
   </g>
   <g id="line2d_45">
    <path d="M 14.2848 298.944 
L 14.2848 275.538071 
L 27.323974 275.538071 
L 27.323974 270.856885 
L 40.363149 270.856885 
L 40.363149 270.218541 
L 44.560826 270.218541 
L 44.560826 268.516292 
L 47.990577 268.516292 
L 47.990577 268.303511 
L 50.890391 268.303511 
L 50.890391 267.665167 
L 53.402323 267.665167 
L 53.402323 267.239605 
L 55.618005 267.239605 
L 55.618005 266.38848 
L 57.6 266.38848 
L 57.6 265.750136 
L 59.392932 265.750136 
L 59.392932 265.111793 
L 61.029752 265.111793 
L 61.029752 264.473449 
L 62.535479 264.473449 
L 62.535479 263.835106 
L 65.227428 263.835106 
L 65.227428 263.622325 
L 66.441498 263.622325 
L 66.441498 263.196762 
L 68.65718 263.196762 
L 68.65718 262.983981 
L 71.556993 262.983981 
L 71.556993 262.558419 
L 76.96874 262.558419 
L 76.96874 262.345638 
L 77.628862 262.345638 
L 77.628862 262.132856 
L 79.480672 262.132856 
L 79.480672 261.849148 
L 80.621116 261.778221 
L 80.621116 261.494513 
L 81.166416 261.494513 
L 81.166416 261.281732 
L 81.696354 261.281732 
L 81.696354 261.068951 
L 85.471281 260.998024 
L 85.471281 260.785242 
L 88.972154 260.785242 
L 88.972154 260.643388 
L 90.340871 260.643388 
L 90.340871 260.501534 
L 91.305777 260.501534 
L 91.305777 260.288753 
L 91.616719 260.288753 
L 91.616719 260.075972 
L 92.811505 260.075972 
L 92.811505 259.863191 
L 94.472426 259.863191 
L 94.472426 259.579482 
L 99.346662 259.508555 
L 99.346662 259.366701 
L 103.214303 259.295774 
L 103.214303 259.224847 
L 104.809458 259.224847 
L 104.809458 259.012066 
L 105.850679 259.012066 
L 105.850679 258.870212 
L 107.774703 258.870212 
L 107.774703 258.728358 
L 113.381389 258.728358 
L 113.381389 258.515576 
L 118.450653 258.444649 
L 118.450653 258.231868 
L 122.559246 258.231868 
L 122.559246 258.019087 
L 122.677931 258.019087 
L 122.677931 257.806306 
L 128.354013 257.735379 
L 128.354013 257.522598 
L 129.622688 257.522598 
L 129.622688 257.309816 
L 130.46245 257.309816 
L 130.46245 257.167962 
L 131.63737 257.167962 
L 131.674076 256.529619 
L 132.322814 256.458692 
L 132.428795 256.104056 
L 133.356676 256.033129 
L 133.356676 255.962202 
L 133.556801 255.962202 
L 133.556801 255.749421 
L 135.268121 255.749421 
L 135.268121 255.53664 
L 136.97549 255.53664 
L 136.97549 255.323859 
L 137.574461 255.252932 
L 137.574461 255.040151 
L 138.180913 254.969224 
L 138.180913 254.898296 
L 138.616919 254.898296 
L 138.616919 254.472734 
L 140.103135 254.401807 
L 140.103135 254.33088 
L 142.143605 254.33088 
L 142.143605 254.118099 
L 143.006295 254.047172 
L 143.006295 253.976245 
L 143.869541 253.976245 
L 143.869541 253.763464 
L 145.712961 253.763464 
L 145.712961 253.550682 
L 147.391749 253.479755 
L 147.391749 253.408828 
L 148.874221 253.408828 
L 148.874221 252.983266 
L 149.180344 252.983266 
L 149.180344 252.841412 
L 150.971962 252.770485 
L 150.971962 252.699558 
L 154.245509 252.628631 
L 154.245509 252.557704 
L 155.203786 252.557704 
L 155.203786 252.344922 
L 156.265023 252.273995 
L 156.354107 252.132141 
L 157.194177 252.061214 
L 157.241336 251.777506 
L 158.124583 251.706579 
L 158.124583 251.635652 
L 159.045398 251.564725 
L 159.045398 251.351944 
L 159.317295 251.281016 
L 159.317295 251.068235 
L 159.493615 251.068235 
L 159.493615 250.926381 
L 159.890533 250.855454 
L 159.890533 250.7136 
L 160.053475 250.7136 
L 160.150567 250.288038 
L 160.699326 250.217111 
L 160.699326 250.004329 
L 160.863211 249.933402 
L 160.886507 249.791548 
L 161.025681 249.720621 
L 161.025681 249.649694 
L 161.262981 249.649694 
L 161.262981 249.436913 
L 161.78066 249.365986 
L 161.78066 249.295059 
L 162.05979 249.295059 
L 162.05979 249.082278 
L 162.782162 249.011351 
L 162.782162 248.940424 
L 166.292432 248.940424 
L 166.344759 248.585788 
L 166.922214 248.514861 
L 166.922214 248.373007 
L 167.367347 248.30208 
L 167.367347 248.231153 
L 167.661966 248.160226 
L 167.661966 248.089299 
L 167.999955 248.089299 
L 167.999955 247.876518 
L 168.539786 247.805591 
L 168.647973 247.521882 
L 168.963798 247.450955 
L 169.054505 247.309101 
L 169.15478 247.309101 
L 169.259497 246.954466 
L 169.472115 246.954466 
L 169.575085 246.670758 
L 169.65803 246.599831 
L 169.65803 246.528904 
L 170.162392 246.457976 
L 170.162392 246.387049 
L 170.570284 246.387049 
L 170.570284 246.174268 
L 171.502232 246.103341 
L 171.502232 246.032414 
L 171.682333 246.032414 
L 171.773916 245.748706 
L 172.123046 245.677779 
L 172.123046 245.606852 
L 172.719888 245.535925 
L 172.719888 245.464998 
L 173.274288 245.394071 
L 173.274288 245.323144 
L 173.844019 245.252216 
L 173.844019 245.181289 
L 174.472534 245.110362 
L 174.472534 245.039435 
L 175.616746 244.968508 
L 175.616746 244.897581 
L 177.33408 244.897581 
L 177.33408 244.6848 
L 177.530521 244.6848 
L 177.575318 244.401092 
L 177.724933 244.330165 
L 177.724933 244.259238 
L 177.86078 244.259238 
L 177.926769 243.904602 
L 178.117149 243.833675 
L 178.117149 243.762748 
L 178.955245 243.762748 
L 179.017511 243.47904 
L 179.252842 243.408113 
L 179.252842 243.337186 
L 180.323858 243.337186 
L 180.323858 243.195332 
L 180.491561 243.195332 
L 180.491561 243.053478 
L 180.972549 242.982551 
L 181.052417 242.698842 
L 181.308361 242.698842 
L 181.308361 242.486061 
L 181.625402 242.415134 
L 181.625402 242.344207 
L 181.896592 242.27328 
L 181.97264 241.564009 
L 182.21894 241.493082 
L 182.271302 241.351228 
L 182.840277 241.351228 
L 182.840277 241.138447 
L 183.082701 241.06752 
L 183.082701 240.996593 
L 183.298478 240.996593 
L 183.392548 240.571031 
L 183.53976 240.500104 
L 183.639581 239.932687 
L 183.821604 239.86176 
L 183.821604 239.790833 
L 184.083465 239.790833 
L 184.083465 239.578052 
L 184.241092 239.578052 
L 184.335038 239.152489 
L 184.519325 239.081562 
L 184.552438 238.939708 
L 185.204877 238.868781 
L 185.211267 238.726927 
L 185.569875 238.726927 
L 185.676137 238.159511 
L 185.761131 238.088584 
L 185.858093 237.308386 
L 185.968882 237.237459 
L 185.983196 237.095605 
L 186.437579 237.024678 
L 186.465492 236.811896 
L 186.705032 236.811896 
L 186.78747 236.528188 
L 187.72533 236.457261 
L 187.781145 236.031699 
L 187.953127 235.960772 
L 187.953127 235.889845 
L 188.567044 235.818918 
L 188.666558 235.606136 
L 188.830667 235.535209 
L 188.830667 235.464282 
L 189.415332 235.393355 
L 189.415332 235.322428 
L 189.674129 235.251501 
L 189.674129 235.180574 
L 190.939261 235.180574 
L 190.972216 234.755012 
L 191.439858 234.684085 
L 191.47958 234.258522 
L 191.627039 234.187595 
L 191.705616 233.620179 
L 191.828862 233.549252 
L 191.927477 233.123689 
L 192.256904 233.052762 
L 192.359133 232.769054 
L 192.449217 232.698127 
L 192.535986 232.414419 
L 192.948409 232.343492 
L 192.96957 232.130711 
L 193.156165 232.059784 
L 193.157561 231.917929 
L 193.325714 231.847002 
L 193.423688 231.563294 
L 194.66973 231.492367 
L 194.66973 231.42144 
L 195.477801 231.350513 
L 195.503696 230.995878 
L 196.142135 230.924951 
L 196.142135 230.712169 
L 196.400026 230.641242 
L 196.449308 230.286607 
L 196.567293 230.21568 
L 196.675282 229.719191 
L 196.698425 229.648264 
L 196.789562 229.293628 
L 196.905438 229.222701 
L 196.905438 229.151774 
L 197.272416 229.080847 
L 197.319468 228.797139 
L 197.455477 228.726212 
L 197.540815 228.584358 
L 197.777068 228.513431 
L 197.777068 228.442504 
L 198.039489 228.371576 
L 198.039489 228.229722 
L 198.429545 228.158795 
L 198.513737 228.016941 
L 198.599644 227.946014 
L 198.599644 227.875087 
L 199.133443 227.80416 
L 199.211514 227.662306 
L 199.674244 227.591379 
L 199.72354 227.378598 
L 200.158605 227.307671 
L 200.238292 227.094889 
L 201.128033 227.023962 
L 201.154514 226.882108 
L 202.821346 226.811181 
L 202.821346 226.740254 
L 203.701546 226.669327 
L 203.701546 226.5984 
L 204.575899 226.527473 
L 204.602507 226.385619 
L 205.04176 226.314692 
L 205.057339 226.172838 
L 205.69812 226.101911 
L 205.69812 226.030984 
L 206.000283 225.960056 
L 206.000283 225.889129 
L 206.185564 225.818202 
L 206.185564 225.747275 
L 206.328883 225.747275 
L 206.398754 225.39264 
L 206.485558 225.321713 
L 206.485558 225.250786 
L 206.803834 225.179859 
L 206.803834 225.108932 
L 207.588727 225.038005 
L 207.588727 224.967078 
L 207.955881 224.896151 
L 207.955881 224.825224 
L 208.700552 224.754296 
L 208.700552 224.683369 
L 209.560413 224.612442 
L 209.560413 224.541515 
L 209.773415 224.470588 
L 209.855761 224.115953 
L 210.354166 224.045026 
L 210.403344 223.903172 
L 211.244306 223.832245 
L 211.244306 223.761318 
L 212.229935 223.690391 
L 212.229935 223.619464 
L 212.342539 223.619464 
L 212.395326 223.406682 
L 215.287751 223.335755 
L 215.287751 223.264828 
L 216.283734 223.193901 
L 216.283734 223.122974 
L 219.551519 223.052047 
L 219.551519 222.98112 
L 231.460811 222.910193 
L 231.460811 222.839266 
L 232.584001 222.768339 
L 232.584001 222.697412 
L 233.080662 222.626485 
L 233.080662 222.555558 
L 233.784355 222.484631 
L 233.890501 222.200922 
L 234.029939 222.129995 
L 234.029939 222.059068 
L 234.280987 221.988141 
L 234.300582 221.846287 
L 235.141066 221.77536 
L 235.219415 221.633506 
L 235.528855 221.562579 
L 235.550565 221.420725 
L 236.168372 221.349798 
L 236.185814 221.066089 
L 236.496616 220.995162 
L 236.496616 220.924235 
L 237.138293 220.853308 
L 237.138293 220.782381 
L 238.155218 220.711454 
L 238.155218 220.640527 
L 241.478977 220.5696 
L 241.478977 220.498673 
L 244.852965 220.427746 
L 244.885661 220.285892 
L 245.670491 220.214965 
L 245.670491 220.144038 
L 247.416373 220.073111 
L 247.416373 220.002184 
L 249.646786 219.931256 
L 249.646786 219.860329 
L 254.334003 219.789402 
L 254.334003 219.718475 
L 254.684829 219.647548 
L 254.684829 219.576621 
L 258.36839 219.505694 
L 258.36839 219.434767 
L 260.126995 219.36384 
L 260.126995 219.292913 
L 265.115317 219.221986 
L 265.115317 219.151059 
L 360.8064 219.151059 
L 360.8064 219.151059 
" style="fill: none; stroke: #ff7500; stroke-width: 1.5; stroke-linecap: square"/>
   </g>
   <g id="line2d_46">
    <defs>
     <path id="mb72cbe9822" d="M 0 -6 
L -1.347084 -1.854102 
L -5.706339 -1.854102 
L -2.179628 0.708204 
L -3.526712 4.854102 
L -0 2.291796 
L 3.526712 4.854102 
L 2.179628 0.708204 
L 5.706339 -1.854102 
L 1.347084 -1.854102 
z
" style="stroke: #ff7500; stroke-width: 1.5; stroke-linejoin: bevel"/>
    </defs>
    <g>
     <use xlink:href="#mb72cbe9822" x="66.441498" y="263.196762" style="fill-opacity: 0; stroke: #ff7500; stroke-width: 1.5; stroke-linejoin: bevel"/>
     <use xlink:href="#mb72cbe9822" x="137.574461" y="255.040151" style="fill-opacity: 0; stroke: #ff7500; stroke-width: 1.5; stroke-linejoin: bevel"/>
     <use xlink:href="#mb72cbe9822" x="215.287751" y="223.264828" style="fill-opacity: 0; stroke: #ff7500; stroke-width: 1.5; stroke-linejoin: bevel"/>
     <use xlink:href="#mb72cbe9822" x="265.115317" y="219.151059" style="fill-opacity: 0; stroke: #ff7500; stroke-width: 1.5; stroke-linejoin: bevel"/>
     <use xlink:href="#mb72cbe9822" x="265.115317" y="219.151059" style="fill-opacity: 0; stroke: #ff7500; stroke-width: 1.5; stroke-linejoin: bevel"/>
     <use xlink:href="#mb72cbe9822" x="360.8064" y="219.151059" style="fill-opacity: 0; stroke: #ff7500; stroke-width: 1.5; stroke-linejoin: bevel"/>
    </g>
   </g>
   <g id="line2d_47">
    <path style="fill: none; stroke: #ff7500; stroke-width: 1.5; stroke-linecap: square"/>
    <g/>
   </g>
   <g id="line2d_48">
    <path d="M 144.249202 253.763464 
" clip-path="url(#p83a4a31d97)" style="fill: none; stroke: #ff7500; stroke-width: 1.5; stroke-linecap: square"/>
    <defs>
     <path id="m7916e35914" d="M -12 12 
L 12 -12 
M -12 -12 
L 12 12 
" style="stroke: #ff7500"/>
    </defs>
    <g clip-path="url(#p83a4a31d97)">
     <use xlink:href="#m7916e35914" x="144.249202" y="253.763464" style="fill: #ff7500; stroke: #ff7500"/>
    </g>
   </g>
   <g id="line2d_49">
    <defs>
     <path id="mad49ec1119" d="M 0 1.5 
C 0.397805 1.5 0.77937 1.341951 1.06066 1.06066 
C 1.341951 0.77937 1.5 0.397805 1.5 0 
C 1.5 -0.397805 1.341951 -0.77937 1.06066 -1.06066 
C 0.77937 -1.341951 0.397805 -1.5 0 -1.5 
C -0.397805 -1.5 -0.77937 -1.341951 -1.06066 -1.06066 
C -1.341951 -0.77937 -1.5 -0.397805 -1.5 0 
C -1.5 0.397805 -1.341951 0.77937 -1.06066 1.06066 
C -0.77937 1.341951 -0.397805 1.5 0 1.5 
z
" style="stroke: #6495ed"/>
    </defs>
    <g>
     <use xlink:href="#mad49ec1119" x="348.855669" y="27.648" style="fill: #6495ed; stroke: #6495ed"/>
     <use xlink:href="#mad49ec1119" x="348.855669" y="27.648" style="fill: #6495ed; stroke: #6495ed"/>
    </g>
   </g>
   <g id="line2d_50">
    <path d="M 14.2848 298.944 
L 14.2848 275.892706 
L 27.323974 275.892706 
L 27.323974 273.410259 
L 34.951403 273.410259 
L 34.951403 272.700988 
L 40.363149 272.700988 
L 40.363149 270.573176 
L 44.560826 270.573176 
L 44.560826 269.863906 
L 47.990577 269.863906 
L 47.990577 268.090729 
L 53.402323 268.090729 
L 53.402323 267.736094 
L 55.618005 267.736094 
L 55.618005 267.381459 
L 59.392932 267.381459 
L 59.392932 265.962918 
L 61.029752 265.962918 
L 61.029752 265.608282 
L 62.535479 265.608282 
L 62.535479 264.189741 
L 63.929565 264.189741 
L 63.929565 263.835106 
L 65.227428 263.835106 
L 65.227428 263.125835 
L 73.268314 263.125835 
L 73.268314 262.7712 
L 74.836851 262.7712 
L 74.836851 262.416565 
L 75.574654 262.416565 
L 75.574654 262.061929 
L 76.96874 262.061929 
L 76.96874 261.707294 
L 78.266603 261.707294 
L 78.266603 261.352659 
L 78.88343 261.352659 
L 78.88343 260.998024 
L 80.059535 260.998024 
L 80.059535 260.643388 
L 83.202082 260.643388 
L 83.202082 260.288753 
L 87.876026 260.288753 
L 87.876026 259.934118 
L 90.007914 259.934118 
L 90.007914 259.579482 
L 92.519847 259.579482 
L 92.519847 259.224847 
L 97.18203 259.224847 
L 97.18203 258.515576 
L 100.9152 258.515576 
L 100.9152 258.160941 
L 105.559021 258.160941 
L 105.559021 257.806306 
L 107.643612 257.806306 
L 107.643612 257.451671 
L 108.29012 257.451671 
L 108.29012 257.097035 
L 117.226706 257.097035 
L 117.226706 256.7424 
L 120.28394 256.7424 
L 120.28394 256.387765 
L 122.499621 256.387765 
L 122.499621 256.033129 
L 126.323346 256.033129 
L 126.323346 255.678494 
L 131.153565 255.678494 
L 131.153565 255.323859 
L 140.382174 255.323859 
L 140.474275 254.614588 
L 142.269295 254.614588 
L 142.269295 254.259953 
L 144.565997 254.259953 
L 144.565997 253.905318 
L 148.352679 253.905318 
L 148.352679 253.550682 
L 154.660647 253.550682 
L 154.660647 253.196047 
L 157.382107 253.196047 
L 157.382107 252.841412 
L 158.79555 252.841412 
L 158.79555 252.486776 
L 159.527013 252.486776 
L 159.527013 252.132141 
L 160.351247 252.132141 
L 160.351247 251.777506 
L 164.612692 251.777506 
L 164.612692 251.422871 
L 165.695002 251.422871 
L 165.695002 251.068235 
L 166.251633 251.068235 
L 166.251633 250.7136 
L 166.865825 250.7136 
L 166.865825 250.358965 
L 168.279666 250.358965 
L 168.279666 250.004329 
L 169.15978 250.004329 
L 169.15978 249.649694 
L 169.721213 249.649694 
L 169.721213 249.295059 
L 170.374474 249.295059 
L 170.481956 248.585788 
L 170.514546 248.585788 
L 170.514546 248.231153 
L 171.100737 248.231153 
L 171.141275 247.521882 
L 171.804344 247.521882 
L 171.882365 246.812612 
L 172.033151 246.812612 
L 172.076012 246.103341 
L 172.169963 246.103341 
L 172.169963 245.748706 
L 172.578697 245.748706 
L 172.578697 245.394071 
L 172.752956 245.394071 
L 172.752956 245.039435 
L 173.129118 245.039435 
L 173.129118 244.6848 
L 173.250171 244.6848 
L 173.250171 244.330165 
L 173.765914 244.330165 
L 173.765914 243.975529 
L 173.890727 243.975529 
L 173.910154 243.266259 
L 174.878944 243.266259 
L 174.95257 242.556988 
L 175.218888 242.556988 
L 175.218888 242.202353 
L 175.49934 242.202353 
L 175.49934 241.847718 
L 176.048006 241.847718 
L 176.048006 241.493082 
L 176.513611 241.493082 
L 176.513611 241.138447 
L 176.818842 241.138447 
L 176.818842 240.783812 
L 177.917356 240.783812 
L 177.917356 240.429176 
L 179.264532 240.429176 
L 179.264532 240.074541 
L 179.888049 240.074541 
L 179.888049 239.719906 
L 180.39277 239.719906 
L 180.39277 239.365271 
L 180.886981 239.365271 
L 180.886981 239.010635 
L 181.195331 239.010635 
L 181.195331 238.656 
L 185.204877 238.656 
L 185.204877 238.301365 
L 185.711425 238.301365 
L 185.808643 237.592094 
L 186.105442 237.592094 
L 186.194587 236.882824 
L 186.383629 236.882824 
L 186.383629 236.528188 
L 186.598507 236.528188 
L 186.598507 236.173553 
L 187.038437 236.173553 
L 187.038437 235.818918 
L 187.736506 235.818918 
L 187.736506 235.464282 
L 188.431143 235.464282 
L 188.431143 235.109647 
L 190.762522 235.109647 
L 190.762522 234.400376 
L 191.418434 234.400376 
L 191.418434 234.045741 
L 191.872257 234.045741 
L 191.872257 233.691106 
L 192.688308 233.691106 
L 192.688308 233.336471 
L 193.278616 233.336471 
L 193.336779 232.6272 
L 193.590854 232.6272 
L 193.590854 232.272565 
L 194.352776 232.272565 
L 194.352776 231.563294 
L 194.789144 231.563294 
L 194.851758 230.854024 
L 194.971294 230.854024 
L 194.971294 230.499388 
L 195.573804 230.499388 
L 195.573804 230.144753 
L 196.408249 230.144753 
L 196.408249 229.790118 
L 196.679913 229.790118 
L 196.758463 229.080847 
L 197.444365 229.080847 
L 197.444365 228.726212 
L 199.258 228.726212 
L 199.258 228.016941 
L 200.199931 228.016941 
L 200.223916 227.307671 
L 200.481971 227.307671 
L 200.481971 226.953035 
L 200.77568 226.953035 
L 200.77568 226.5984 
L 201.531237 226.5984 
L 201.531237 226.243765 
L 208.685272 226.243765 
L 208.685272 225.889129 
L 208.916814 225.889129 
L 208.916814 225.534494 
L 209.307148 225.534494 
L 209.307148 225.179859 
L 210.910463 225.179859 
L 210.910463 224.825224 
L 211.025823 224.825224 
L 211.113091 224.115953 
L 211.160863 224.115953 
L 211.160863 223.761318 
L 211.501915 223.761318 
L 211.501915 223.406682 
L 211.819303 223.406682 
L 211.819303 223.052047 
L 212.043139 223.052047 
L 212.043139 222.697412 
L 212.201552 222.697412 
L 212.274957 221.633506 
L 212.433442 221.633506 
L 212.433442 221.278871 
L 212.605502 221.278871 
L 212.658547 220.5696 
L 212.964465 220.5696 
L 212.974691 219.860329 
L 213.356341 219.860329 
L 213.356341 219.505694 
L 213.471429 219.505694 
L 213.471429 219.151059 
L 213.666697 219.151059 
L 213.77151 218.441788 
L 214.137485 218.441788 
L 214.205548 217.732518 
L 215.197565 217.732518 
L 215.197565 217.377882 
L 228.402752 217.377882 
L 228.513685 216.313976 
L 228.668195 216.313976 
L 228.668195 215.959341 
L 231.578152 215.959341 
L 231.667032 214.895435 
L 231.826572 214.895435 
L 231.887767 214.186165 
L 231.967219 214.186165 
L 232.068931 213.122259 
L 232.112807 213.122259 
L 232.196048 212.058353 
L 232.287643 212.058353 
L 232.387296 210.994447 
L 232.411737 210.994447 
L 232.500911 210.285176 
L 232.534156 210.285176 
L 232.589321 209.575906 
L 232.651851 209.575906 
L 232.722866 208.512 
L 232.772383 208.512 
L 232.842776 207.802729 
L 232.885561 207.802729 
L 232.991849 206.384188 
L 233.070628 206.384188 
L 233.169556 205.320282 
L 233.222394 205.320282 
L 233.329935 203.901741 
L 233.386272 203.901741 
L 233.471609 202.837835 
L 238.151133 202.837835 
L 238.234322 202.128565 
L 238.31588 202.128565 
L 238.384731 201.419294 
L 238.494999 201.419294 
L 238.573065 200.710024 
L 238.723277 200.710024 
L 238.802747 200.000753 
L 238.854106 200.000753 
L 238.942332 198.936847 
L 238.985008 198.936847 
L 239.03039 198.227576 
L 239.107604 198.227576 
L 239.161406 197.518306 
L 239.222051 197.518306 
L 239.293078 196.809035 
L 239.341319 196.809035 
L 239.447089 195.745129 
L 239.490301 195.745129 
L 239.600913 194.681224 
L 239.634454 194.681224 
L 239.634454 194.326588 
L 239.745749 194.326588 
L 239.836205 193.262682 
L 239.897626 193.262682 
L 239.968934 192.198776 
L 240.069513 192.198776 
L 240.155445 191.134871 
L 240.193626 191.134871 
L 240.234473 190.4256 
L 240.732983 190.4256 
L 240.825582 188.652424 
L 241.000537 188.652424 
L 241.088446 187.588518 
L 241.126743 187.588518 
L 241.210594 186.524612 
L 241.302929 186.524612 
L 241.362441 185.460706 
L 241.426056 185.460706 
L 241.489458 184.751435 
L 241.538575 184.751435 
L 241.629743 183.687529 
L 241.687067 183.687529 
L 241.769094 182.623624 
L 241.811708 182.623624 
L 241.920592 181.559718 
L 241.953166 181.559718 
L 242.058851 180.495812 
L 242.089426 180.495812 
L 242.185698 179.431906 
L 242.237863 179.431906 
L 242.334299 178.013365 
L 242.441123 178.013365 
L 242.441123 177.658729 
L 248.844785 177.658729 
L 248.844785 177.304094 
L 249.478193 177.304094 
L 249.535651 176.594824 
L 249.801239 176.594824 
L 249.869023 175.885553 
L 249.96091 175.885553 
L 249.96091 175.530918 
L 250.106933 175.530918 
L 250.106933 175.176282 
L 250.449353 175.176282 
L 250.457718 174.467012 
L 250.806187 174.467012 
L 250.806187 174.112376 
L 251.443378 174.112376 
L 251.443378 173.757741 
L 252.329549 173.757741 
L 252.329549 173.403106 
L 253.786677 173.403106 
L 253.871732 172.693835 
L 253.94731 172.693835 
L 253.94731 172.3392 
L 254.088424 172.3392 
L 254.195488 171.275294 
L 254.227618 171.275294 
L 254.32833 169.856753 
L 254.34734 169.856753 
L 254.452997 168.438212 
L 254.467001 168.438212 
L 254.570924 166.665035 
L 254.624559 166.665035 
L 254.727882 165.246494 
L 254.755103 165.246494 
L 254.841579 163.473318 
L 254.882387 163.473318 
L 254.930329 161.700141 
L 254.996878 161.700141 
L 255.077787 160.636235 
L 255.108344 160.636235 
L 255.14387 159.926965 
L 264.29687 159.926965 
L 264.29687 159.572329 
L 264.474835 159.572329 
L 264.474835 159.217694 
L 264.801441 159.217694 
L 264.874774 157.444518 
L 264.94939 157.444518 
L 265.058195 156.025976 
L 265.088775 156.025976 
L 265.176485 154.607435 
L 265.200843 154.607435 
L 265.310468 152.834259 
L 265.32815 152.834259 
L 265.427577 151.415718 
L 265.448859 151.415718 
L 265.535714 149.642541 
L 265.561603 149.642541 
L 265.659748 147.869365 
L 283.637393 147.869365 
L 283.637393 147.514729 
L 292.081989 147.443802 
L 292.18899 146.734532 
L 292.305148 146.663605 
L 292.32166 146.379896 
L 292.674149 146.308969 
L 292.674149 146.238042 
L 292.795777 146.167115 
L 292.83719 145.457845 
L 292.976228 145.386918 
L 293.052307 144.252085 
L 293.128772 144.181158 
L 293.235967 143.188179 
L 293.251055 143.188179 
L 293.35869 141.840565 
L 293.383169 141.769638 
L 293.46854 140.847586 
L 293.597847 140.776659 
L 293.707266 139.074409 
L 293.729792 139.074409 
L 293.839156 138.57792 
L 293.850555 138.506993 
L 293.960785 137.017525 
L 293.967999 136.946598 
L 294.074978 135.457129 
L 294.082566 135.386202 
L 294.192981 134.322296 
L 294.305119 134.251369 
L 294.407489 133.187464 
L 294.448374 133.116536 
L 294.550243 130.846871 
L 294.60903 130.775944 
L 294.690999 130.066673 
L 294.784165 129.995746 
L 294.882785 129.499256 
L 294.911846 129.428329 
L 294.993193 128.222569 
L 295.07964 128.151642 
L 295.185441 126.733101 
L 295.196891 126.662174 
L 295.295151 125.101779 
L 295.344157 125.030852 
L 295.447866 123.399529 
L 295.482851 123.328602 
L 295.592213 121.555426 
L 295.614392 121.484499 
L 295.696329 120.49152 
L 295.848111 120.420593 
L 295.958455 119.143906 
L 295.984958 119.072979 
L 296.081117 118.009073 
L 296.102687 117.938146 
L 296.209942 116.023115 
L 296.22082 115.952188 
L 296.316938 114.604574 
L 296.484518 114.533647 
L 296.587087 113.25696 
L 296.608924 113.186033 
L 296.703845 111.980273 
L 296.736736 111.909346 
L 296.8388 110.987294 
L 296.855592 110.987294 
L 296.880878 110.490805 
L 297.051918 110.490805 
L 297.13031 109.994315 
L 297.191089 109.923388 
L 297.297252 109.143191 
L 297.445622 109.072264 
L 297.554059 108.575774 
L 297.596357 108.504847 
L 297.596357 108.43392 
L 297.988335 108.362993 
L 298.08393 107.511868 
L 298.106132 107.440941 
L 298.206199 107.015379 
L 298.619363 106.944452 
L 298.69055 106.589816 
L 301.344722 106.518889 
L 301.344722 106.447962 
L 305.561257 106.377035 
L 305.666168 106.164254 
L 305.714439 106.093327 
L 305.769796 105.667765 
L 305.839845 105.596838 
L 305.934085 104.745713 
L 305.996254 104.674786 
L 306.101796 103.965515 
L 306.115841 103.894588 
L 306.222823 102.617901 
L 306.270207 102.546974 
L 306.371696 101.553995 
L 306.400076 101.483068 
L 306.50039 100.277308 
L 306.515706 100.206381 
L 306.615712 99.071548 
L 306.629688 99.000621 
L 306.740025 97.511153 
L 306.751705 97.440226 
L 306.857772 95.950758 
L 306.876048 95.879831 
L 306.984987 94.744998 
L 307.001671 94.674071 
L 307.111856 92.971821 
L 307.126784 92.900894 
L 307.23335 91.624207 
L 307.245937 91.55328 
L 307.348132 89.992885 
L 307.36677 89.921958 
L 307.473584 89.283614 
L 307.485733 89.283614 
L 307.590867 87.368584 
L 307.628732 87.297656 
L 307.731049 86.020969 
L 307.780632 85.950042 
L 307.887971 84.602428 
L 307.89823 84.531501 
L 307.99559 83.680376 
L 308.027257 83.609449 
L 308.131213 82.332762 
L 308.17737 82.261835 
L 308.277571 81.765346 
L 308.346455 81.694419 
L 308.444687 80.772367 
L 308.470287 80.70144 
L 308.581281 80.275878 
L 308.595528 80.204951 
L 308.675554 79.779388 
L 308.730529 79.708461 
L 308.806811 79.211972 
L 308.938775 79.141045 
L 309.046063 78.715482 
L 309.084833 78.644555 
L 309.116784 78.360847 
L 309.36177 78.28992 
L 309.434518 78.006212 
L 311.562659 77.935285 
L 311.562659 77.864358 
L 313.301524 77.793431 
L 313.399112 77.367868 
L 313.450256 77.296941 
L 313.558425 77.013233 
L 313.640994 76.942306 
L 313.739613 76.374889 
L 313.806572 76.303962 
L 313.908563 75.8784 
L 313.929987 75.807473 
L 314.034652 75.310984 
L 314.052118 75.240056 
L 314.153154 74.388932 
L 314.18211 74.318005 
L 314.276353 73.041318 
L 314.298533 72.970391 
L 314.403192 72.119266 
L 314.41402 72.048339 
L 314.524711 70.629798 
L 314.551815 70.558871 
L 314.654749 69.636819 
L 314.67669 69.565892 
L 314.780736 68.64384 
L 314.811212 68.572913 
L 314.919491 67.509007 
L 314.959953 67.43808 
L 315.046126 66.728809 
L 315.107985 66.657882 
L 315.213568 65.523049 
L 315.227546 65.452122 
L 315.324599 64.246362 
L 315.375251 64.175435 
L 315.484697 63.466165 
L 315.515228 63.395238 
L 315.609171 62.969675 
L 315.63459 62.898748 
L 315.732667 62.402259 
L 315.913154 62.331332 
L 315.999384 61.834842 
L 316.0902 61.763915 
L 316.0902 61.692988 
L 316.36278 61.622061 
L 316.36278 61.551134 
L 318.999117 61.480207 
L 319.109207 60.770936 
L 319.148668 60.700009 
L 319.252323 60.345374 
L 319.313109 60.274447 
L 319.418187 59.636104 
L 319.458339 59.565176 
L 319.547985 59.068687 
L 319.582454 58.99776 
L 319.690377 58.288489 
L 319.698961 58.217562 
L 319.798361 57.082729 
L 319.819907 57.011802 
L 319.927334 55.735115 
L 319.953079 55.664188 
L 320.057385 54.671209 
L 320.088404 54.600282 
L 320.19812 53.961939 
L 320.2351 53.891012 
L 320.328325 53.323595 
L 320.37121 53.252668 
L 320.476853 52.543398 
L 320.513824 52.472471 
L 320.621221 52.117835 
L 320.635041 52.046908 
L 320.742112 51.550419 
L 320.78954 51.479492 
L 320.834023 51.337638 
L 320.936602 51.266711 
L 321.027224 50.983002 
L 321.300785 50.912075 
L 321.300785 50.841148 
L 321.923556 50.770221 
L 321.923556 50.699294 
L 323.017688 50.628367 
L 323.099463 50.486513 
L 323.210952 50.415586 
L 323.314629 50.060951 
L 323.470606 49.990024 
L 323.53772 49.848169 
L 323.604217 49.777242 
L 323.697424 49.422607 
L 323.734418 49.35168 
L 323.838167 48.642409 
L 323.880404 48.571482 
L 323.983506 47.578504 
L 324.001967 47.507576 
L 324.106437 46.656452 
L 324.121106 46.585525 
L 324.210315 45.876254 
L 324.293144 45.805327 
L 324.399505 45.379765 
L 324.428975 45.308838 
L 324.535758 44.599567 
L 324.56156 44.52864 
L 324.580537 44.386786 
L 324.774828 44.315859 
L 324.883057 43.961224 
L 324.905364 43.890296 
L 324.953101 43.748442 
L 325.045694 43.677515 
L 325.092483 43.535661 
L 325.240427 43.464734 
L 325.351267 43.32288 
L 325.574054 43.251953 
L 325.574054 43.181026 
L 326.883566 43.110099 
L 326.989166 42.684536 
L 327.04039 42.613609 
L 327.150529 41.975266 
L 327.179376 41.904339 
L 327.28201 40.982287 
L 327.369613 40.91136 
L 327.477729 40.485798 
L 327.496098 40.414871 
L 327.565441 39.989308 
L 327.637144 39.918381 
L 327.744169 39.421892 
L 327.787232 39.350965 
L 327.879348 38.925402 
L 327.96162 38.854475 
L 328.015927 38.49984 
L 328.139596 38.428913 
L 328.248912 38.074278 
L 328.490799 38.003351 
L 328.490799 37.932424 
L 329.327214 37.861496 
L 329.404461 37.719642 
L 329.812876 37.648715 
L 329.897608 37.29408 
L 330.085136 37.223153 
L 330.113424 36.868518 
L 330.207833 36.797591 
L 330.287462 36.442955 
L 330.435833 36.372028 
L 330.507557 36.08832 
L 330.567787 36.017393 
L 330.668822 35.733685 
L 330.773669 35.662758 
L 330.852127 35.095341 
L 330.961525 35.024414 
L 331.069849 34.88256 
L 331.901781 34.811633 
L 331.901781 34.740706 
L 332.079775 34.669779 
L 332.079775 34.598852 
L 332.467594 34.527925 
L 332.577701 33.960508 
L 332.59424 33.889581 
L 332.670887 33.534946 
L 332.747034 33.464019 
L 332.810409 32.967529 
L 332.89938 32.896602 
L 332.961108 32.612894 
L 333.035502 32.541967 
L 333.105998 32.258259 
L 333.610797 32.187332 
L 333.610797 32.116405 
L 334.454496 32.045478 
L 334.454496 31.974551 
L 334.623509 31.903624 
L 334.676577 31.619915 
L 334.848055 31.548988 
L 334.955774 31.123426 
L 334.996892 31.052499 
L 335.087894 30.768791 
L 335.152319 30.697864 
L 335.209515 30.485082 
L 335.383391 30.414155 
L 335.453631 30.201374 
L 336.692595 30.130447 
L 336.79818 29.846739 
L 336.867883 29.775812 
L 336.973027 29.563031 
L 337.14625 29.492104 
L 337.213043 29.279322 
L 338.408185 29.208395 
L 338.408185 29.137468 
L 338.690503 29.066541 
L 338.734526 28.924687 
L 340.060435 28.85376 
L 340.162694 28.640979 
L 340.385096 28.570052 
L 340.385096 28.499125 
L 341.865589 28.428198 
L 341.954263 28.215416 
L 343.262816 28.144489 
L 343.262816 28.073562 
L 344.462507 28.002635 
L 344.462507 27.931708 
L 345.587128 27.860781 
L 345.587128 27.789854 
L 348.855669 27.718927 
L 348.855669 27.648 
L 360.8064 27.648 
L 360.8064 27.648 
" style="fill: none; stroke: #6495ed; stroke-width: 1.5; stroke-linecap: square"/>
   </g>
   <g id="line2d_51">
    <defs>
     <path id="m9cfdc0b510" d="M -0 6 
L 6 -6 
L -6 -6 
z
" style="stroke: #6495ed; stroke-width: 1.5; stroke-linejoin: miter"/>
    </defs>
    <g>
     <use xlink:href="#m9cfdc0b510" x="105.559021" y="258.160941" style="fill-opacity: 0; stroke: #6495ed; stroke-width: 1.5; stroke-linejoin: miter"/>
     <use xlink:href="#m9cfdc0b510" x="215.197565" y="217.377882" style="fill-opacity: 0; stroke: #6495ed; stroke-width: 1.5; stroke-linejoin: miter"/>
     <use xlink:href="#m9cfdc0b510" x="255.14387" y="159.926965" style="fill-opacity: 0; stroke: #6495ed; stroke-width: 1.5; stroke-linejoin: miter"/>
     <use xlink:href="#m9cfdc0b510" x="337.213043" y="29.350249" style="fill-opacity: 0; stroke: #6495ed; stroke-width: 1.5; stroke-linejoin: miter"/>
     <use xlink:href="#m9cfdc0b510" x="348.855669" y="27.648" style="fill-opacity: 0; stroke: #6495ed; stroke-width: 1.5; stroke-linejoin: miter"/>
     <use xlink:href="#m9cfdc0b510" x="360.8064" y="27.648" style="fill-opacity: 0; stroke: #6495ed; stroke-width: 1.5; stroke-linejoin: miter"/>
    </g>
   </g>
   <g id="line2d_52">
    <path style="fill: none; stroke: #6495ed; stroke-width: 1.5; stroke-linecap: square"/>
    <g/>
   </g>
   <g id="line2d_53">
    <path d="M 293.127124 144.181158 
" clip-path="url(#p83a4a31d97)" style="fill: none; stroke: #6495ed; stroke-width: 1.5; stroke-linecap: square"/>
    <defs>
     <path id="m4c7b8883e9" d="M -12 12 
L 12 -12 
M -12 -12 
L 12 12 
" style="stroke: #6495ed"/>
    </defs>
    <g clip-path="url(#p83a4a31d97)">
     <use xlink:href="#m4c7b8883e9" x="293.127124" y="144.181158" style="fill: #6495ed; stroke: #6495ed"/>
    </g>
   </g>
   <g id="line2d_54">
    <path d="M 360.8064 219.151059 
L 380.514816 293.51808 
" style="fill: none; stroke: #ff7500; stroke-width: 1.5; stroke-linecap: square"/>
    <g>
     <use xlink:href="#mb72cbe9822" x="360.8064" y="219.151059" style="fill-opacity: 0; stroke: #ff7500; stroke-width: 1.5; stroke-linejoin: bevel"/>
     <use xlink:href="#mb72cbe9822" x="380.514816" y="293.51808" style="fill-opacity: 0; stroke: #ff7500; stroke-width: 1.5; stroke-linejoin: bevel"/>
    </g>
   </g>
   <g id="line2d_55">
    <path d="M 360.8064 203.192471 
L 380.514816 228.40704 
" style="fill: none; stroke: #ff00ff; stroke-width: 1.5; stroke-linecap: square"/>
    <g>
     <use xlink:href="#me9b47bfae1" x="360.8064" y="203.192471" style="fill-opacity: 0; stroke: #ff00ff; stroke-width: 1.5; stroke-linejoin: miter"/>
     <use xlink:href="#me9b47bfae1" x="380.514816" y="228.40704" style="fill-opacity: 0; stroke: #ff00ff; stroke-width: 1.5; stroke-linejoin: miter"/>
    </g>
   </g>
   <g id="line2d_56">
    <path d="M 360.8064 187.233882 
L 380.514816 163.296 
" style="fill: none; stroke: #000080; stroke-width: 1.5; stroke-linecap: square"/>
    <g>
     <use xlink:href="#md2f94cc9d5" x="360.8064" y="187.233882" style="fill-opacity: 0; stroke: #000080; stroke-width: 1.5"/>
     <use xlink:href="#md2f94cc9d5" x="380.514816" y="163.296" style="fill-opacity: 0; stroke: #000080; stroke-width: 1.5"/>
    </g>
   </g>
   <g id="line2d_57">
    <path d="M 360.8064 27.648 
L 380.514816 98.18496 
" style="fill: none; stroke: #6495ed; stroke-width: 1.5; stroke-linecap: square"/>
    <g>
     <use xlink:href="#m9cfdc0b510" x="360.8064" y="27.648" style="fill-opacity: 0; stroke: #6495ed; stroke-width: 1.5; stroke-linejoin: miter"/>
     <use xlink:href="#m9cfdc0b510" x="380.514816" y="98.18496" style="fill-opacity: 0; stroke: #6495ed; stroke-width: 1.5; stroke-linejoin: miter"/>
    </g>
   </g>
   <g id="line2d_58">
    <path d="M 360.8064 298.944 
L 360.8064 27.648 
" style="fill: none; stroke: #000000; stroke-width: 1.5; stroke-linecap: square"/>
   </g>
   <g id="patch_3">
    <path d="M 57.6 298.944 
L 360.8064 298.944 
" style="fill: none; stroke: #000000; stroke-width: 0.8; stroke-linejoin: miter; stroke-linecap: square"/>
   </g>
   <g id="patch_4">
    <path d="M 57.6 27.648 
L 360.8064 27.648 
" style="fill: none; stroke: #000000; stroke-width: 0.8; stroke-linejoin: miter; stroke-linecap: square"/>
   </g>
   <g id="text_13">
    <!-- ex -->
    <g transform="translate(386.578944 297.381205)scale(0.14 -0.14)">
     <defs>
      <path id="DejaVuSans-78" d="M 3513 3500 
L 2247 1797 
L 3578 0 
L 2900 0 
L 1881 1375 
L 863 0 
L 184 0 
L 1544 1831 
L 300 3500 
L 978 3500 
L 1906 2253 
L 2834 3500 
L 3513 3500 
z
" transform="scale(0.015625)"/>
     </defs>
     <use xlink:href="#DejaVuSans-65"/>
     <use xlink:href="#DejaVuSans-78" x="59.773438"/>
    </g>
   </g>
   <g id="text_14">
    <!-- ex -->
    <g transform="translate(386.578944 232.270165)scale(0.14 -0.14)">
     <use xlink:href="#DejaVuSans-65"/>
     <use xlink:href="#DejaVuSans-78" x="59.773438"/>
    </g>
   </g>
   <g id="text_15">
    <!-- ex -->
    <g transform="translate(386.578944 167.159125)scale(0.14 -0.14)">
     <use xlink:href="#DejaVuSans-65"/>
     <use xlink:href="#DejaVuSans-78" x="59.773438"/>
    </g>
   </g>
   <g id="text_16">
    <!-- CMA-ES-2019 Hansen -->
    <g transform="translate(386.578944 102.048085)scale(0.14 -0.14)">
     <defs>
      <path id="DejaVuSans-43" d="M 4122 4306 
L 4122 3641 
Q 3803 3938 3442 4084 
Q 3081 4231 2675 4231 
Q 1875 4231 1450 3742 
Q 1025 3253 1025 2328 
Q 1025 1406 1450 917 
Q 1875 428 2675 428 
Q 3081 428 3442 575 
Q 3803 722 4122 1019 
L 4122 359 
Q 3791 134 3420 21 
Q 3050 -91 2638 -91 
Q 1578 -91 968 557 
Q 359 1206 359 2328 
Q 359 3453 968 4101 
Q 1578 4750 2638 4750 
Q 3056 4750 3426 4639 
Q 3797 4528 4122 4306 
z
" transform="scale(0.015625)"/>
      <path id="DejaVuSans-4d" d="M 628 4666 
L 1569 4666 
L 2759 1491 
L 3956 4666 
L 4897 4666 
L 4897 0 
L 4281 0 
L 4281 4097 
L 3078 897 
L 2444 897 
L 1241 4097 
L 1241 0 
L 628 0 
L 628 4666 
z
" transform="scale(0.015625)"/>
      <path id="DejaVuSans-41" d="M 2188 4044 
L 1331 1722 
L 3047 1722 
L 2188 4044 
z
M 1831 4666 
L 2547 4666 
L 4325 0 
L 3669 0 
L 3244 1197 
L 1141 1197 
L 716 0 
L 50 0 
L 1831 4666 
z
" transform="scale(0.015625)"/>
      <path id="DejaVuSans-45" d="M 628 4666 
L 3578 4666 
L 3578 4134 
L 1259 4134 
L 1259 2753 
L 3481 2753 
L 3481 2222 
L 1259 2222 
L 1259 531 
L 3634 531 
L 3634 0 
L 628 0 
L 628 4666 
z
" transform="scale(0.015625)"/>
      <path id="DejaVuSans-53" d="M 3425 4513 
L 3425 3897 
Q 3066 4069 2747 4153 
Q 2428 4238 2131 4238 
Q 1616 4238 1336 4038 
Q 1056 3838 1056 3469 
Q 1056 3159 1242 3001 
Q 1428 2844 1947 2747 
L 2328 2669 
Q 3034 2534 3370 2195 
Q 3706 1856 3706 1288 
Q 3706 609 3251 259 
Q 2797 -91 1919 -91 
Q 1588 -91 1214 -16 
Q 841 59 441 206 
L 441 856 
Q 825 641 1194 531 
Q 1563 422 1919 422 
Q 2459 422 2753 634 
Q 3047 847 3047 1241 
Q 3047 1584 2836 1778 
Q 2625 1972 2144 2069 
L 1759 2144 
Q 1053 2284 737 2584 
Q 422 2884 422 3419 
Q 422 4038 858 4394 
Q 1294 4750 2059 4750 
Q 2388 4750 2728 4690 
Q 3069 4631 3425 4513 
z
" transform="scale(0.015625)"/>
      <path id="DejaVuSans-39" d="M 703 97 
L 703 672 
Q 941 559 1184 500 
Q 1428 441 1663 441 
Q 2288 441 2617 861 
Q 2947 1281 2994 2138 
Q 2813 1869 2534 1725 
Q 2256 1581 1919 1581 
Q 1219 1581 811 2004 
Q 403 2428 403 3163 
Q 403 3881 828 4315 
Q 1253 4750 1959 4750 
Q 2769 4750 3195 4129 
Q 3622 3509 3622 2328 
Q 3622 1225 3098 567 
Q 2575 -91 1691 -91 
Q 1453 -91 1209 -44 
Q 966 3 703 97 
z
M 1959 2075 
Q 2384 2075 2632 2365 
Q 2881 2656 2881 3163 
Q 2881 3666 2632 3958 
Q 2384 4250 1959 4250 
Q 1534 4250 1286 3958 
Q 1038 3666 1038 3163 
Q 1038 2656 1286 2365 
Q 1534 2075 1959 2075 
z
" transform="scale(0.015625)"/>
      <path id="DejaVuSans-48" d="M 628 4666 
L 1259 4666 
L 1259 2753 
L 3553 2753 
L 3553 4666 
L 4184 4666 
L 4184 0 
L 3553 0 
L 3553 2222 
L 1259 2222 
L 1259 0 
L 628 0 
L 628 4666 
z
" transform="scale(0.015625)"/>
     </defs>
     <use xlink:href="#DejaVuSans-43"/>
     <use xlink:href="#DejaVuSans-4d" x="69.824219"/>
     <use xlink:href="#DejaVuSans-41" x="156.103516"/>
     <use xlink:href="#DejaVuSans-2d" x="222.261719"/>
     <use xlink:href="#DejaVuSans-45" x="258.345703"/>
     <use xlink:href="#DejaVuSans-53" x="321.529297"/>
     <use xlink:href="#DejaVuSans-2d" x="385.005859"/>
     <use xlink:href="#DejaVuSans-32" x="421.089844"/>
     <use xlink:href="#DejaVuSans-30" x="484.712891"/>
     <use xlink:href="#DejaVuSans-31" x="548.335938"/>
     <use xlink:href="#DejaVuSans-39" x="611.958984"/>
     <use xlink:href="#DejaVuSans-20" x="675.582031"/>
     <use xlink:href="#DejaVuSans-48" x="707.369141"/>
     <use xlink:href="#DejaVuSans-61" x="782.564453"/>
     <use xlink:href="#DejaVuSans-6e" x="843.84375"/>
     <use xlink:href="#DejaVuSans-73" x="907.222656"/>
     <use xlink:href="#DejaVuSans-65" x="959.322266"/>
     <use xlink:href="#DejaVuSans-6e" x="1020.845703"/>
    </g>
   </g>
   <g id="text_17">
    <!-- best 2009 -->
    <g transform="translate(386.578944 36.937045)scale(0.14 -0.14)">
     <defs>
      <path id="DejaVuSans-62" d="M 3116 1747 
Q 3116 2381 2855 2742 
Q 2594 3103 2138 3103 
Q 1681 3103 1420 2742 
Q 1159 2381 1159 1747 
Q 1159 1113 1420 752 
Q 1681 391 2138 391 
Q 2594 391 2855 752 
Q 3116 1113 3116 1747 
z
M 1159 2969 
Q 1341 3281 1617 3432 
Q 1894 3584 2278 3584 
Q 2916 3584 3314 3078 
Q 3713 2572 3713 1747 
Q 3713 922 3314 415 
Q 2916 -91 2278 -91 
Q 1894 -91 1617 61 
Q 1341 213 1159 525 
L 1159 0 
L 581 0 
L 581 4863 
L 1159 4863 
L 1159 2969 
z
" transform="scale(0.015625)"/>
     </defs>
     <use xlink:href="#DejaVuSans-62"/>
     <use xlink:href="#DejaVuSans-65" x="63.476562"/>
     <use xlink:href="#DejaVuSans-73" x="125"/>
     <use xlink:href="#DejaVuSans-74" x="177.099609"/>
     <use xlink:href="#DejaVuSans-20" x="216.308594"/>
     <use xlink:href="#DejaVuSans-32" x="248.095703"/>
     <use xlink:href="#DejaVuSans-30" x="311.71875"/>
     <use xlink:href="#DejaVuSans-30" x="375.341797"/>
     <use xlink:href="#DejaVuSans-39" x="438.964844"/>
    </g>
   </g>
   <g id="text_18">
    <!-- bbob f23, 10-D -->
    <g transform="translate(60.632064 38.111366)scale(0.102 -0.102)">
     <defs>
      <path id="DejaVuSans-33" d="M 2597 2516 
Q 3050 2419 3304 2112 
Q 3559 1806 3559 1356 
Q 3559 666 3084 287 
Q 2609 -91 1734 -91 
Q 1441 -91 1130 -33 
Q 819 25 488 141 
L 488 750 
Q 750 597 1062 519 
Q 1375 441 1716 441 
Q 2309 441 2620 675 
Q 2931 909 2931 1356 
Q 2931 1769 2642 2001 
Q 2353 2234 1838 2234 
L 1294 2234 
L 1294 2753 
L 1863 2753 
Q 2328 2753 2575 2939 
Q 2822 3125 2822 3475 
Q 2822 3834 2567 4026 
Q 2313 4219 1838 4219 
Q 1578 4219 1281 4162 
Q 984 4106 628 3988 
L 628 4550 
Q 988 4650 1302 4700 
Q 1616 4750 1894 4750 
Q 2613 4750 3031 4423 
Q 3450 4097 3450 3541 
Q 3450 3153 3228 2886 
Q 3006 2619 2597 2516 
z
" transform="scale(0.015625)"/>
      <path id="DejaVuSans-44" d="M 1259 4147 
L 1259 519 
L 2022 519 
Q 2988 519 3436 956 
Q 3884 1394 3884 2338 
Q 3884 3275 3436 3711 
Q 2988 4147 2022 4147 
L 1259 4147 
z
M 628 4666 
L 1925 4666 
Q 3281 4666 3915 4102 
Q 4550 3538 4550 2338 
Q 4550 1131 3912 565 
Q 3275 0 1925 0 
L 628 0 
L 628 4666 
z
" transform="scale(0.015625)"/>
     </defs>
     <use xlink:href="#DejaVuSans-62"/>
     <use xlink:href="#DejaVuSans-62" x="63.476562"/>
     <use xlink:href="#DejaVuSans-6f" x="126.953125"/>
     <use xlink:href="#DejaVuSans-62" x="188.134766"/>
     <use xlink:href="#DejaVuSans-20" x="251.611328"/>
     <use xlink:href="#DejaVuSans-66" x="283.398438"/>
     <use xlink:href="#DejaVuSans-32" x="318.603516"/>
     <use xlink:href="#DejaVuSans-33" x="382.226562"/>
     <use xlink:href="#DejaVuSans-2c" x="445.849609"/>
     <use xlink:href="#DejaVuSans-20" x="477.636719"/>
     <use xlink:href="#DejaVuSans-31" x="509.423828"/>
     <use xlink:href="#DejaVuSans-30" x="573.046875"/>
     <use xlink:href="#DejaVuSans-2d" x="636.669922"/>
     <use xlink:href="#DejaVuSans-44" x="672.753906"/>
    </g>
    <!-- 51 targets: 100..1e-08 -->
    <g transform="translate(60.632064 49.533135)scale(0.102 -0.102)">
     <defs>
      <path id="DejaVuSans-35" d="M 691 4666 
L 3169 4666 
L 3169 4134 
L 1269 4134 
L 1269 2991 
Q 1406 3038 1543 3061 
Q 1681 3084 1819 3084 
Q 2600 3084 3056 2656 
Q 3513 2228 3513 1497 
Q 3513 744 3044 326 
Q 2575 -91 1722 -91 
Q 1428 -91 1123 -41 
Q 819 9 494 109 
L 494 744 
Q 775 591 1075 516 
Q 1375 441 1709 441 
Q 2250 441 2565 725 
Q 2881 1009 2881 1497 
Q 2881 1984 2565 2268 
Q 2250 2553 1709 2553 
Q 1456 2553 1204 2497 
Q 953 2441 691 2322 
L 691 4666 
z
" transform="scale(0.015625)"/>
      <path id="DejaVuSans-3a" d="M 750 794 
L 1409 794 
L 1409 0 
L 750 0 
L 750 794 
z
M 750 3309 
L 1409 3309 
L 1409 2516 
L 750 2516 
L 750 3309 
z
" transform="scale(0.015625)"/>
     </defs>
     <use xlink:href="#DejaVuSans-35"/>
     <use xlink:href="#DejaVuSans-31" x="63.623047"/>
     <use xlink:href="#DejaVuSans-20" x="127.246094"/>
     <use xlink:href="#DejaVuSans-74" x="159.033203"/>
     <use xlink:href="#DejaVuSans-61" x="198.242188"/>
     <use xlink:href="#DejaVuSans-72" x="259.521484"/>
     <use xlink:href="#DejaVuSans-67" x="298.884766"/>
     <use xlink:href="#DejaVuSans-65" x="362.361328"/>
     <use xlink:href="#DejaVuSans-74" x="423.884766"/>
     <use xlink:href="#DejaVuSans-73" x="463.09375"/>
     <use xlink:href="#DejaVuSans-3a" x="515.193359"/>
     <use xlink:href="#DejaVuSans-20" x="548.884766"/>
     <use xlink:href="#DejaVuSans-31" x="580.671875"/>
     <use xlink:href="#DejaVuSans-30" x="644.294922"/>
     <use xlink:href="#DejaVuSans-30" x="707.917969"/>
     <use xlink:href="#DejaVuSans-2e" x="771.541016"/>
     <use xlink:href="#DejaVuSans-2e" x="803.328125"/>
     <use xlink:href="#DejaVuSans-31" x="835.115234"/>
     <use xlink:href="#DejaVuSans-65" x="898.738281"/>
     <use xlink:href="#DejaVuSans-2d" x="960.261719"/>
     <use xlink:href="#DejaVuSans-30" x="996.345703"/>
     <use xlink:href="#DejaVuSans-38" x="1059.96875"/>
    </g>
    <!-- 25, 5, 15 instances -->
    <g transform="translate(60.632064 60.954904)scale(0.102 -0.102)">
     <use xlink:href="#DejaVuSans-32"/>
     <use xlink:href="#DejaVuSans-35" x="63.623047"/>
     <use xlink:href="#DejaVuSans-2c" x="127.246094"/>
     <use xlink:href="#DejaVuSans-20" x="159.033203"/>
     <use xlink:href="#DejaVuSans-35" x="190.820312"/>
     <use xlink:href="#DejaVuSans-2c" x="254.443359"/>
     <use xlink:href="#DejaVuSans-20" x="286.230469"/>
     <use xlink:href="#DejaVuSans-31" x="318.017578"/>
     <use xlink:href="#DejaVuSans-35" x="381.640625"/>
     <use xlink:href="#DejaVuSans-20" x="445.263672"/>
     <use xlink:href="#DejaVuSans-69" x="477.050781"/>
     <use xlink:href="#DejaVuSans-6e" x="504.833984"/>
     <use xlink:href="#DejaVuSans-73" x="568.212891"/>
     <use xlink:href="#DejaVuSans-74" x="620.3125"/>
     <use xlink:href="#DejaVuSans-61" x="659.521484"/>
     <use xlink:href="#DejaVuSans-6e" x="720.800781"/>
     <use xlink:href="#DejaVuSans-63" x="784.179688"/>
     <use xlink:href="#DejaVuSans-65" x="839.160156"/>
     <use xlink:href="#DejaVuSans-73" x="900.683594"/>
    </g>
   </g>
   <g id="text_19">
    <!-- v2.6 -->
    <g style="fill: #808080" transform="translate(198.292262 294.151352)scale(0.1 -0.1)">
     <use xlink:href="#DejaVuSans-76"/>
     <use xlink:href="#DejaVuSans-32" x="59.179688"/>
     <use xlink:href="#DejaVuSans-2e" x="122.802734"/>
     <use xlink:href="#DejaVuSans-36" x="154.589844"/>
    </g>
   </g>
   <g id="text_20">
    <!-- 23 Katsuuras -->
    <g transform="translate(143.536012 21.648)scale(0.2 -0.2)">
     <defs>
      <path id="DejaVuSans-4b" d="M 628 4666 
L 1259 4666 
L 1259 2694 
L 3353 4666 
L 4166 4666 
L 1850 2491 
L 4331 0 
L 3500 0 
L 1259 2247 
L 1259 0 
L 628 0 
L 628 4666 
z
" transform="scale(0.015625)"/>
     </defs>
     <use xlink:href="#DejaVuSans-32"/>
     <use xlink:href="#DejaVuSans-33" x="63.623047"/>
     <use xlink:href="#DejaVuSans-20" x="127.246094"/>
     <use xlink:href="#DejaVuSans-4b" x="159.033203"/>
     <use xlink:href="#DejaVuSans-61" x="222.859375"/>
     <use xlink:href="#DejaVuSans-74" x="284.138672"/>
     <use xlink:href="#DejaVuSans-73" x="323.347656"/>
     <use xlink:href="#DejaVuSans-75" x="375.447266"/>
     <use xlink:href="#DejaVuSans-75" x="438.826172"/>
     <use xlink:href="#DejaVuSans-72" x="502.205078"/>
     <use xlink:href="#DejaVuSans-61" x="543.318359"/>
     <use xlink:href="#DejaVuSans-73" x="604.597656"/>
    </g>
   </g>
  </g>
 </g>
 <defs>
  <clipPath id="p83a4a31d97">
   <rect x="57.6" y="27.648" width="303.2064" height="271.296"/>
  </clipPath>
 </defs>
</svg>
