<?xml version="1.0" encoding="utf-8" standalone="no"?>
<!DOCTYPE svg PUBLIC "-//W3C//DTD SVG 1.1//EN"
  "http://www.w3.org/Graphics/SVG/1.1/DTD/svg11.dtd">
<svg xmlns:xlink="http://www.w3.org/1999/xlink" width="460.8pt" height="345.6pt" viewBox="0 0 460.8 345.6" xmlns="http://www.w3.org/2000/svg" version="1.1">
 <metadata>
  <rdf:RDF xmlns:dc="http://purl.org/dc/elements/1.1/" xmlns:cc="http://creativecommons.org/ns#" xmlns:rdf="http://www.w3.org/1999/02/22-rdf-syntax-ns#">
   <cc:Work>
    <dc:type rdf:resource="http://purl.org/dc/dcmitype/StillImage"/>
    <dc:date>2022-03-18T14:33:37.787467</dc:date>
    <dc:format>image/svg+xml</dc:format>
    <dc:creator>
     <cc:Agent>
      <dc:title>Matplotlib v3.5.1, https://matplotlib.org/</dc:title>
     </cc:Agent>
    </dc:creator>
   </cc:Work>
  </rdf:RDF>
 </metadata>
 <defs>
  <style type="text/css">*{stroke-linejoin: round; stroke-linecap: butt}</style>
 </defs>
 <g id="figure_1">
  <g id="patch_1">
   <path d="M 0 345.6 
L 460.8 345.6 
L 460.8 0 
L 0 0 
z
" style="fill: #ffffff"/>
  </g>
  <g id="axes_1">
   <g id="patch_2">
    <path d="M 57.6 298.944 
L 360.8064 298.944 
L 360.8064 27.648 
L 57.6 27.648 
z
" style="fill: #ffffff"/>
   </g>
   <g id="line2d_1">
    <path d="M 67.209423 298.944 
L 67.209423 293.624471 
L 80.248597 293.624471 
L 80.248597 288.304941 
L 94.205591 288.304941 
L 94.205591 282.985412 
L 104.344952 282.985412 
L 104.344952 277.665882 
L 105.850679 277.665882 
L 105.850679 272.346353 
L 106.326946 272.346353 
L 106.326946 267.026824 
L 107.244765 267.026824 
L 107.244765 261.707294 
L 157.795157 261.707294 
L 157.795157 256.387765 
L 162.634233 256.387765 
L 162.634233 251.068235 
L 162.751732 251.068235 
L 162.751732 245.748706 
L 162.868502 245.748706 
L 162.868502 240.429176 
L 163.865975 240.429176 
L 163.865975 235.109647 
L 163.932096 235.109647 
L 163.932096 224.470588 
L 164.107292 224.470588 
L 164.107292 219.151059 
L 164.172572 219.151059 
L 164.172572 213.831529 
L 164.686815 213.831529 
L 164.686815 208.512 
L 165.166781 208.512 
L 165.166781 203.192471 
L 165.187374 203.192471 
L 165.187374 192.553412 
L 165.330896 192.553412 
L 165.330896 187.233882 
L 165.695002 187.233882 
L 165.695002 181.914353 
L 165.715025 181.914353 
L 165.715025 171.275294 
L 165.814821 171.275294 
L 165.814821 165.955765 
L 165.953653 165.955765 
L 165.953653 160.636235 
L 166.189291 160.636235 
L 166.189291 155.316706 
L 166.651893 155.316706 
L 166.651893 139.358118 
L 166.670924 139.358118 
L 166.670924 128.719059 
L 167.121972 128.719059 
L 167.121972 123.399529 
L 167.140533 123.399529 
L 167.140533 112.760471 
L 167.159075 112.760471 
L 167.159075 107.440941 
L 167.1776 107.440941 
L 167.1776 102.121412 
L 167.453299 102.121412 
L 167.453299 86.162824 
L 167.580589 86.162824 
L 167.580589 75.523765 
L 167.598703 75.523765 
L 167.598703 70.204235 
L 167.652941 70.204235 
L 167.652941 59.565176 
L 167.689013 59.565176 
L 167.689013 48.926118 
L 167.796816 48.926118 
L 167.796816 32.967529 
L 183.842993 32.967529 
L 183.842993 27.648 
L 360.8064 27.648 
" style="fill: none; stroke: #f5deb3; stroke-width: 4; stroke-linecap: square"/>
   </g>
   <g id="line2d_2">
    <defs>
     <path id="mc42074f83d" d="M -0 7.778175 
L 7.778175 0 
L 0 -7.778175 
L -7.778175 -0 
z
" style="stroke: #f5deb3; stroke-width: 1.5; stroke-linejoin: miter"/>
    </defs>
    <g>
     <use xlink:href="#mc42074f83d" x="164.107292" y="219.151059" style="fill: #f5deb3; stroke: #f5deb3; stroke-width: 1.5; stroke-linejoin: miter"/>
     <use xlink:href="#mc42074f83d" x="167.796816" y="48.926118" style="fill: #f5deb3; stroke: #f5deb3; stroke-width: 1.5; stroke-linejoin: miter"/>
     <use xlink:href="#mc42074f83d" x="183.842993" y="27.648" style="fill: #f5deb3; stroke: #f5deb3; stroke-width: 1.5; stroke-linejoin: miter"/>
     <use xlink:href="#mc42074f83d" x="183.842993" y="27.648" style="fill: #f5deb3; stroke: #f5deb3; stroke-width: 1.5; stroke-linejoin: miter"/>
     <use xlink:href="#mc42074f83d" x="360.8064" y="27.648" style="fill: #f5deb3; stroke: #f5deb3; stroke-width: 1.5; stroke-linejoin: miter"/>
    </g>
   </g>
   <g id="line2d_3">
    <path style="fill: none; stroke: #f5deb3; stroke-width: 4; stroke-linecap: square"/>
    <g/>
   </g>
   <g id="line2d_4">
    <path d="M 360.8064 27.648 
L 380.514816 33.07392 
" style="fill: none; stroke: #f5deb3; stroke-width: 4; stroke-linecap: square"/>
    <g>
     <use xlink:href="#mc42074f83d" x="360.8064" y="27.648" style="fill: #f5deb3; stroke: #f5deb3; stroke-width: 1.5; stroke-linejoin: miter"/>
     <use xlink:href="#mc42074f83d" x="380.514816" y="33.07392" style="fill: #f5deb3; stroke: #f5deb3; stroke-width: 1.5; stroke-linejoin: miter"/>
    </g>
   </g>
   <g id="matplotlib.axis_1">
    <g id="xtick_1">
     <g id="line2d_5">
      <path d="M 57.6 298.944 
L 57.6 27.648 
" clip-path="url(#p971e80afa8)" style="fill: none; stroke: #b0b0b0; stroke-width: 0.8; stroke-linecap: square"/>
     </g>
     <g id="line2d_6">
      <defs>
       <path id="m807bf12dc8" d="M 0 0 
L 0 3.5 
" style="stroke: #000000; stroke-width: 0.8"/>
      </defs>
      <g>
       <use xlink:href="#m807bf12dc8" x="57.6" y="298.944" style="stroke: #000000; stroke-width: 0.8"/>
      </g>
     </g>
     <g id="text_1">
      <!-- 0 -->
      <g transform="translate(52.191875 318.861344)scale(0.17 -0.17)">
       <defs>
        <path id="DejaVuSans-30" d="M 2034 4250 
Q 1547 4250 1301 3770 
Q 1056 3291 1056 2328 
Q 1056 1369 1301 889 
Q 1547 409 2034 409 
Q 2525 409 2770 889 
Q 3016 1369 3016 2328 
Q 3016 3291 2770 3770 
Q 2525 4250 2034 4250 
z
M 2034 4750 
Q 2819 4750 3233 4129 
Q 3647 3509 3647 2328 
Q 3647 1150 3233 529 
Q 2819 -91 2034 -91 
Q 1250 -91 836 529 
Q 422 1150 422 2328 
Q 422 3509 836 4129 
Q 1250 4750 2034 4750 
z
" transform="scale(0.015625)"/>
       </defs>
       <use xlink:href="#DejaVuSans-30"/>
      </g>
     </g>
    </g>
    <g id="xtick_2">
     <g id="line2d_7">
      <path d="M 144.2304 298.944 
L 144.2304 27.648 
" clip-path="url(#p971e80afa8)" style="fill: none; stroke: #b0b0b0; stroke-width: 0.8; stroke-linecap: square"/>
     </g>
     <g id="line2d_8">
      <g>
       <use xlink:href="#m807bf12dc8" x="144.2304" y="298.944" style="stroke: #000000; stroke-width: 0.8"/>
      </g>
     </g>
     <g id="text_2">
      <!-- 2 -->
      <g transform="translate(138.822275 318.861344)scale(0.17 -0.17)">
       <defs>
        <path id="DejaVuSans-32" d="M 1228 531 
L 3431 531 
L 3431 0 
L 469 0 
L 469 531 
Q 828 903 1448 1529 
Q 2069 2156 2228 2338 
Q 2531 2678 2651 2914 
Q 2772 3150 2772 3378 
Q 2772 3750 2511 3984 
Q 2250 4219 1831 4219 
Q 1534 4219 1204 4116 
Q 875 4013 500 3803 
L 500 4441 
Q 881 4594 1212 4672 
Q 1544 4750 1819 4750 
Q 2544 4750 2975 4387 
Q 3406 4025 3406 3419 
Q 3406 3131 3298 2873 
Q 3191 2616 2906 2266 
Q 2828 2175 2409 1742 
Q 1991 1309 1228 531 
z
" transform="scale(0.015625)"/>
       </defs>
       <use xlink:href="#DejaVuSans-32"/>
      </g>
     </g>
    </g>
    <g id="xtick_3">
     <g id="line2d_9">
      <path d="M 230.8608 298.944 
L 230.8608 27.648 
" clip-path="url(#p971e80afa8)" style="fill: none; stroke: #b0b0b0; stroke-width: 0.8; stroke-linecap: square"/>
     </g>
     <g id="line2d_10">
      <g>
       <use xlink:href="#m807bf12dc8" x="230.8608" y="298.944" style="stroke: #000000; stroke-width: 0.8"/>
      </g>
     </g>
     <g id="text_3">
      <!-- 4 -->
      <g transform="translate(225.452675 318.861344)scale(0.17 -0.17)">
       <defs>
        <path id="DejaVuSans-34" d="M 2419 4116 
L 825 1625 
L 2419 1625 
L 2419 4116 
z
M 2253 4666 
L 3047 4666 
L 3047 1625 
L 3713 1625 
L 3713 1100 
L 3047 1100 
L 3047 0 
L 2419 0 
L 2419 1100 
L 313 1100 
L 313 1709 
L 2253 4666 
z
" transform="scale(0.015625)"/>
       </defs>
       <use xlink:href="#DejaVuSans-34"/>
      </g>
     </g>
    </g>
    <g id="xtick_4">
     <g id="line2d_11">
      <path d="M 317.4912 298.944 
L 317.4912 27.648 
" clip-path="url(#p971e80afa8)" style="fill: none; stroke: #b0b0b0; stroke-width: 0.8; stroke-linecap: square"/>
     </g>
     <g id="line2d_12">
      <g>
       <use xlink:href="#m807bf12dc8" x="317.4912" y="298.944" style="stroke: #000000; stroke-width: 0.8"/>
      </g>
     </g>
     <g id="text_4">
      <!-- 6 -->
      <g transform="translate(312.083075 318.861344)scale(0.17 -0.17)">
       <defs>
        <path id="DejaVuSans-36" d="M 2113 2584 
Q 1688 2584 1439 2293 
Q 1191 2003 1191 1497 
Q 1191 994 1439 701 
Q 1688 409 2113 409 
Q 2538 409 2786 701 
Q 3034 994 3034 1497 
Q 3034 2003 2786 2293 
Q 2538 2584 2113 2584 
z
M 3366 4563 
L 3366 3988 
Q 3128 4100 2886 4159 
Q 2644 4219 2406 4219 
Q 1781 4219 1451 3797 
Q 1122 3375 1075 2522 
Q 1259 2794 1537 2939 
Q 1816 3084 2150 3084 
Q 2853 3084 3261 2657 
Q 3669 2231 3669 1497 
Q 3669 778 3244 343 
Q 2819 -91 2113 -91 
Q 1303 -91 875 529 
Q 447 1150 447 2328 
Q 447 3434 972 4092 
Q 1497 4750 2381 4750 
Q 2619 4750 2861 4703 
Q 3103 4656 3366 4563 
z
" transform="scale(0.015625)"/>
       </defs>
       <use xlink:href="#DejaVuSans-36"/>
      </g>
     </g>
    </g>
    <g id="xtick_5">
     <g id="line2d_13">
      <path d="M 100.9152 298.944 
L 100.9152 27.648 
" clip-path="url(#p971e80afa8)" style="fill: none; stroke: #b0b0b0; stroke-width: 0.8; stroke-linecap: square"/>
     </g>
     <g id="line2d_14">
      <defs>
       <path id="mbf3915f392" d="M 0 0 
L 0 2 
" style="stroke: #000000; stroke-width: 0.6"/>
      </defs>
      <g>
       <use xlink:href="#mbf3915f392" x="100.9152" y="298.944" style="stroke: #000000; stroke-width: 0.6"/>
      </g>
     </g>
    </g>
    <g id="xtick_6">
     <g id="line2d_15">
      <path d="M 187.5456 298.944 
L 187.5456 27.648 
" clip-path="url(#p971e80afa8)" style="fill: none; stroke: #b0b0b0; stroke-width: 0.8; stroke-linecap: square"/>
     </g>
     <g id="line2d_16">
      <g>
       <use xlink:href="#mbf3915f392" x="187.5456" y="298.944" style="stroke: #000000; stroke-width: 0.6"/>
      </g>
     </g>
    </g>
    <g id="xtick_7">
     <g id="line2d_17">
      <path d="M 274.176 298.944 
L 274.176 27.648 
" clip-path="url(#p971e80afa8)" style="fill: none; stroke: #b0b0b0; stroke-width: 0.8; stroke-linecap: square"/>
     </g>
     <g id="line2d_18">
      <g>
       <use xlink:href="#mbf3915f392" x="274.176" y="298.944" style="stroke: #000000; stroke-width: 0.6"/>
      </g>
     </g>
    </g>
    <g id="xtick_8">
     <g id="line2d_19">
      <path d="M 360.8064 298.944 
L 360.8064 27.648 
" clip-path="url(#p971e80afa8)" style="fill: none; stroke: #b0b0b0; stroke-width: 0.8; stroke-linecap: square"/>
     </g>
     <g id="line2d_20">
      <g>
       <use xlink:href="#mbf3915f392" x="360.8064" y="298.944" style="stroke: #000000; stroke-width: 0.6"/>
      </g>
     </g>
    </g>
    <g id="text_5">
     <!-- log10(# f-evals / dimension) -->
     <g transform="translate(88.823278 339.314156)scale(0.17 -0.17)">
      <defs>
       <path id="DejaVuSans-6c" d="M 603 4863 
L 1178 4863 
L 1178 0 
L 603 0 
L 603 4863 
z
" transform="scale(0.015625)"/>
       <path id="DejaVuSans-6f" d="M 1959 3097 
Q 1497 3097 1228 2736 
Q 959 2375 959 1747 
Q 959 1119 1226 758 
Q 1494 397 1959 397 
Q 2419 397 2687 759 
Q 2956 1122 2956 1747 
Q 2956 2369 2687 2733 
Q 2419 3097 1959 3097 
z
M 1959 3584 
Q 2709 3584 3137 3096 
Q 3566 2609 3566 1747 
Q 3566 888 3137 398 
Q 2709 -91 1959 -91 
Q 1206 -91 779 398 
Q 353 888 353 1747 
Q 353 2609 779 3096 
Q 1206 3584 1959 3584 
z
" transform="scale(0.015625)"/>
       <path id="DejaVuSans-67" d="M 2906 1791 
Q 2906 2416 2648 2759 
Q 2391 3103 1925 3103 
Q 1463 3103 1205 2759 
Q 947 2416 947 1791 
Q 947 1169 1205 825 
Q 1463 481 1925 481 
Q 2391 481 2648 825 
Q 2906 1169 2906 1791 
z
M 3481 434 
Q 3481 -459 3084 -895 
Q 2688 -1331 1869 -1331 
Q 1566 -1331 1297 -1286 
Q 1028 -1241 775 -1147 
L 775 -588 
Q 1028 -725 1275 -790 
Q 1522 -856 1778 -856 
Q 2344 -856 2625 -561 
Q 2906 -266 2906 331 
L 2906 616 
Q 2728 306 2450 153 
Q 2172 0 1784 0 
Q 1141 0 747 490 
Q 353 981 353 1791 
Q 353 2603 747 3093 
Q 1141 3584 1784 3584 
Q 2172 3584 2450 3431 
Q 2728 3278 2906 2969 
L 2906 3500 
L 3481 3500 
L 3481 434 
z
" transform="scale(0.015625)"/>
       <path id="DejaVuSans-31" d="M 794 531 
L 1825 531 
L 1825 4091 
L 703 3866 
L 703 4441 
L 1819 4666 
L 2450 4666 
L 2450 531 
L 3481 531 
L 3481 0 
L 794 0 
L 794 531 
z
" transform="scale(0.015625)"/>
       <path id="DejaVuSans-28" d="M 1984 4856 
Q 1566 4138 1362 3434 
Q 1159 2731 1159 2009 
Q 1159 1288 1364 580 
Q 1569 -128 1984 -844 
L 1484 -844 
Q 1016 -109 783 600 
Q 550 1309 550 2009 
Q 550 2706 781 3412 
Q 1013 4119 1484 4856 
L 1984 4856 
z
" transform="scale(0.015625)"/>
       <path id="DejaVuSans-23" d="M 3272 2816 
L 2363 2816 
L 2100 1772 
L 3016 1772 
L 3272 2816 
z
M 2803 4594 
L 2478 3297 
L 3391 3297 
L 3719 4594 
L 4219 4594 
L 3897 3297 
L 4872 3297 
L 4872 2816 
L 3775 2816 
L 3519 1772 
L 4513 1772 
L 4513 1294 
L 3397 1294 
L 3072 0 
L 2572 0 
L 2894 1294 
L 1978 1294 
L 1656 0 
L 1153 0 
L 1478 1294 
L 494 1294 
L 494 1772 
L 1594 1772 
L 1856 2816 
L 850 2816 
L 850 3297 
L 1978 3297 
L 2297 4594 
L 2803 4594 
z
" transform="scale(0.015625)"/>
       <path id="DejaVuSans-20" transform="scale(0.015625)"/>
       <path id="DejaVuSans-66" d="M 2375 4863 
L 2375 4384 
L 1825 4384 
Q 1516 4384 1395 4259 
Q 1275 4134 1275 3809 
L 1275 3500 
L 2222 3500 
L 2222 3053 
L 1275 3053 
L 1275 0 
L 697 0 
L 697 3053 
L 147 3053 
L 147 3500 
L 697 3500 
L 697 3744 
Q 697 4328 969 4595 
Q 1241 4863 1831 4863 
L 2375 4863 
z
" transform="scale(0.015625)"/>
       <path id="DejaVuSans-2d" d="M 313 2009 
L 1997 2009 
L 1997 1497 
L 313 1497 
L 313 2009 
z
" transform="scale(0.015625)"/>
       <path id="DejaVuSans-65" d="M 3597 1894 
L 3597 1613 
L 953 1613 
Q 991 1019 1311 708 
Q 1631 397 2203 397 
Q 2534 397 2845 478 
Q 3156 559 3463 722 
L 3463 178 
Q 3153 47 2828 -22 
Q 2503 -91 2169 -91 
Q 1331 -91 842 396 
Q 353 884 353 1716 
Q 353 2575 817 3079 
Q 1281 3584 2069 3584 
Q 2775 3584 3186 3129 
Q 3597 2675 3597 1894 
z
M 3022 2063 
Q 3016 2534 2758 2815 
Q 2500 3097 2075 3097 
Q 1594 3097 1305 2825 
Q 1016 2553 972 2059 
L 3022 2063 
z
" transform="scale(0.015625)"/>
       <path id="DejaVuSans-76" d="M 191 3500 
L 800 3500 
L 1894 563 
L 2988 3500 
L 3597 3500 
L 2284 0 
L 1503 0 
L 191 3500 
z
" transform="scale(0.015625)"/>
       <path id="DejaVuSans-61" d="M 2194 1759 
Q 1497 1759 1228 1600 
Q 959 1441 959 1056 
Q 959 750 1161 570 
Q 1363 391 1709 391 
Q 2188 391 2477 730 
Q 2766 1069 2766 1631 
L 2766 1759 
L 2194 1759 
z
M 3341 1997 
L 3341 0 
L 2766 0 
L 2766 531 
Q 2569 213 2275 61 
Q 1981 -91 1556 -91 
Q 1019 -91 701 211 
Q 384 513 384 1019 
Q 384 1609 779 1909 
Q 1175 2209 1959 2209 
L 2766 2209 
L 2766 2266 
Q 2766 2663 2505 2880 
Q 2244 3097 1772 3097 
Q 1472 3097 1187 3025 
Q 903 2953 641 2809 
L 641 3341 
Q 956 3463 1253 3523 
Q 1550 3584 1831 3584 
Q 2591 3584 2966 3190 
Q 3341 2797 3341 1997 
z
" transform="scale(0.015625)"/>
       <path id="DejaVuSans-73" d="M 2834 3397 
L 2834 2853 
Q 2591 2978 2328 3040 
Q 2066 3103 1784 3103 
Q 1356 3103 1142 2972 
Q 928 2841 928 2578 
Q 928 2378 1081 2264 
Q 1234 2150 1697 2047 
L 1894 2003 
Q 2506 1872 2764 1633 
Q 3022 1394 3022 966 
Q 3022 478 2636 193 
Q 2250 -91 1575 -91 
Q 1294 -91 989 -36 
Q 684 19 347 128 
L 347 722 
Q 666 556 975 473 
Q 1284 391 1588 391 
Q 1994 391 2212 530 
Q 2431 669 2431 922 
Q 2431 1156 2273 1281 
Q 2116 1406 1581 1522 
L 1381 1569 
Q 847 1681 609 1914 
Q 372 2147 372 2553 
Q 372 3047 722 3315 
Q 1072 3584 1716 3584 
Q 2034 3584 2315 3537 
Q 2597 3491 2834 3397 
z
" transform="scale(0.015625)"/>
       <path id="DejaVuSans-2f" d="M 1625 4666 
L 2156 4666 
L 531 -594 
L 0 -594 
L 1625 4666 
z
" transform="scale(0.015625)"/>
       <path id="DejaVuSans-64" d="M 2906 2969 
L 2906 4863 
L 3481 4863 
L 3481 0 
L 2906 0 
L 2906 525 
Q 2725 213 2448 61 
Q 2172 -91 1784 -91 
Q 1150 -91 751 415 
Q 353 922 353 1747 
Q 353 2572 751 3078 
Q 1150 3584 1784 3584 
Q 2172 3584 2448 3432 
Q 2725 3281 2906 2969 
z
M 947 1747 
Q 947 1113 1208 752 
Q 1469 391 1925 391 
Q 2381 391 2643 752 
Q 2906 1113 2906 1747 
Q 2906 2381 2643 2742 
Q 2381 3103 1925 3103 
Q 1469 3103 1208 2742 
Q 947 2381 947 1747 
z
" transform="scale(0.015625)"/>
       <path id="DejaVuSans-69" d="M 603 3500 
L 1178 3500 
L 1178 0 
L 603 0 
L 603 3500 
z
M 603 4863 
L 1178 4863 
L 1178 4134 
L 603 4134 
L 603 4863 
z
" transform="scale(0.015625)"/>
       <path id="DejaVuSans-6d" d="M 3328 2828 
Q 3544 3216 3844 3400 
Q 4144 3584 4550 3584 
Q 5097 3584 5394 3201 
Q 5691 2819 5691 2113 
L 5691 0 
L 5113 0 
L 5113 2094 
Q 5113 2597 4934 2840 
Q 4756 3084 4391 3084 
Q 3944 3084 3684 2787 
Q 3425 2491 3425 1978 
L 3425 0 
L 2847 0 
L 2847 2094 
Q 2847 2600 2669 2842 
Q 2491 3084 2119 3084 
Q 1678 3084 1418 2786 
Q 1159 2488 1159 1978 
L 1159 0 
L 581 0 
L 581 3500 
L 1159 3500 
L 1159 2956 
Q 1356 3278 1631 3431 
Q 1906 3584 2284 3584 
Q 2666 3584 2933 3390 
Q 3200 3197 3328 2828 
z
" transform="scale(0.015625)"/>
       <path id="DejaVuSans-6e" d="M 3513 2113 
L 3513 0 
L 2938 0 
L 2938 2094 
Q 2938 2591 2744 2837 
Q 2550 3084 2163 3084 
Q 1697 3084 1428 2787 
Q 1159 2491 1159 1978 
L 1159 0 
L 581 0 
L 581 3500 
L 1159 3500 
L 1159 2956 
Q 1366 3272 1645 3428 
Q 1925 3584 2291 3584 
Q 2894 3584 3203 3211 
Q 3513 2838 3513 2113 
z
" transform="scale(0.015625)"/>
       <path id="DejaVuSans-29" d="M 513 4856 
L 1013 4856 
Q 1481 4119 1714 3412 
Q 1947 2706 1947 2009 
Q 1947 1309 1714 600 
Q 1481 -109 1013 -844 
L 513 -844 
Q 928 -128 1133 580 
Q 1338 1288 1338 2009 
Q 1338 2731 1133 3434 
Q 928 4138 513 4856 
z
" transform="scale(0.015625)"/>
      </defs>
      <use xlink:href="#DejaVuSans-6c"/>
      <use xlink:href="#DejaVuSans-6f" x="27.783203"/>
      <use xlink:href="#DejaVuSans-67" x="88.964844"/>
      <use xlink:href="#DejaVuSans-31" x="152.441406"/>
      <use xlink:href="#DejaVuSans-30" x="216.064453"/>
      <use xlink:href="#DejaVuSans-28" x="279.6875"/>
      <use xlink:href="#DejaVuSans-23" x="318.701172"/>
      <use xlink:href="#DejaVuSans-20" x="402.490234"/>
      <use xlink:href="#DejaVuSans-66" x="434.277344"/>
      <use xlink:href="#DejaVuSans-2d" x="463.982422"/>
      <use xlink:href="#DejaVuSans-65" x="500.066406"/>
      <use xlink:href="#DejaVuSans-76" x="561.589844"/>
      <use xlink:href="#DejaVuSans-61" x="620.769531"/>
      <use xlink:href="#DejaVuSans-6c" x="682.048828"/>
      <use xlink:href="#DejaVuSans-73" x="709.832031"/>
      <use xlink:href="#DejaVuSans-20" x="761.931641"/>
      <use xlink:href="#DejaVuSans-2f" x="793.71875"/>
      <use xlink:href="#DejaVuSans-20" x="827.410156"/>
      <use xlink:href="#DejaVuSans-64" x="859.197266"/>
      <use xlink:href="#DejaVuSans-69" x="922.673828"/>
      <use xlink:href="#DejaVuSans-6d" x="950.457031"/>
      <use xlink:href="#DejaVuSans-65" x="1047.869141"/>
      <use xlink:href="#DejaVuSans-6e" x="1109.392578"/>
      <use xlink:href="#DejaVuSans-73" x="1172.771484"/>
      <use xlink:href="#DejaVuSans-69" x="1224.871094"/>
      <use xlink:href="#DejaVuSans-6f" x="1252.654297"/>
      <use xlink:href="#DejaVuSans-6e" x="1313.835938"/>
      <use xlink:href="#DejaVuSans-29" x="1377.214844"/>
     </g>
    </g>
   </g>
   <g id="matplotlib.axis_2">
    <g id="ytick_1">
     <g id="line2d_21">
      <path d="M 57.6 298.944 
L 360.8064 298.944 
" clip-path="url(#p971e80afa8)" style="fill: none; stroke: #b0b0b0; stroke-width: 0.8; stroke-linecap: square"/>
     </g>
     <g id="line2d_22">
      <defs>
       <path id="m0e63cacf80" d="M 0 0 
L -3.5 0 
" style="stroke: #000000; stroke-width: 0.8"/>
      </defs>
      <g>
       <use xlink:href="#m0e63cacf80" x="57.6" y="298.944" style="stroke: #000000; stroke-width: 0.8"/>
      </g>
     </g>
     <g id="text_6">
      <!-- 0.0 -->
      <g transform="translate(25.155 305.02275)scale(0.16 -0.16)">
       <defs>
        <path id="DejaVuSans-2e" d="M 684 794 
L 1344 794 
L 1344 0 
L 684 0 
L 684 794 
z
" transform="scale(0.015625)"/>
       </defs>
       <use xlink:href="#DejaVuSans-30"/>
       <use xlink:href="#DejaVuSans-2e" x="63.623047"/>
       <use xlink:href="#DejaVuSans-30" x="95.410156"/>
      </g>
     </g>
    </g>
    <g id="ytick_2">
     <g id="line2d_23">
      <path d="M 57.6 244.6848 
L 360.8064 244.6848 
" clip-path="url(#p971e80afa8)" style="fill: none; stroke: #b0b0b0; stroke-width: 0.8; stroke-linecap: square"/>
     </g>
     <g id="line2d_24">
      <g>
       <use xlink:href="#m0e63cacf80" x="57.6" y="244.6848" style="stroke: #000000; stroke-width: 0.8"/>
      </g>
     </g>
     <g id="text_7">
      <!-- 0.2 -->
      <g transform="translate(25.155 250.76355)scale(0.16 -0.16)">
       <use xlink:href="#DejaVuSans-30"/>
       <use xlink:href="#DejaVuSans-2e" x="63.623047"/>
       <use xlink:href="#DejaVuSans-32" x="95.410156"/>
      </g>
     </g>
    </g>
    <g id="ytick_3">
     <g id="line2d_25">
      <path d="M 57.6 190.4256 
L 360.8064 190.4256 
" clip-path="url(#p971e80afa8)" style="fill: none; stroke: #b0b0b0; stroke-width: 0.8; stroke-linecap: square"/>
     </g>
     <g id="line2d_26">
      <g>
       <use xlink:href="#m0e63cacf80" x="57.6" y="190.4256" style="stroke: #000000; stroke-width: 0.8"/>
      </g>
     </g>
     <g id="text_8">
      <!-- 0.4 -->
      <g transform="translate(25.155 196.50435)scale(0.16 -0.16)">
       <use xlink:href="#DejaVuSans-30"/>
       <use xlink:href="#DejaVuSans-2e" x="63.623047"/>
       <use xlink:href="#DejaVuSans-34" x="95.410156"/>
      </g>
     </g>
    </g>
    <g id="ytick_4">
     <g id="line2d_27">
      <path d="M 57.6 136.1664 
L 360.8064 136.1664 
" clip-path="url(#p971e80afa8)" style="fill: none; stroke: #b0b0b0; stroke-width: 0.8; stroke-linecap: square"/>
     </g>
     <g id="line2d_28">
      <g>
       <use xlink:href="#m0e63cacf80" x="57.6" y="136.1664" style="stroke: #000000; stroke-width: 0.8"/>
      </g>
     </g>
     <g id="text_9">
      <!-- 0.6 -->
      <g transform="translate(25.155 142.24515)scale(0.16 -0.16)">
       <use xlink:href="#DejaVuSans-30"/>
       <use xlink:href="#DejaVuSans-2e" x="63.623047"/>
       <use xlink:href="#DejaVuSans-36" x="95.410156"/>
      </g>
     </g>
    </g>
    <g id="ytick_5">
     <g id="line2d_29">
      <path d="M 57.6 81.9072 
L 360.8064 81.9072 
" clip-path="url(#p971e80afa8)" style="fill: none; stroke: #b0b0b0; stroke-width: 0.8; stroke-linecap: square"/>
     </g>
     <g id="line2d_30">
      <g>
       <use xlink:href="#m0e63cacf80" x="57.6" y="81.9072" style="stroke: #000000; stroke-width: 0.8"/>
      </g>
     </g>
     <g id="text_10">
      <!-- 0.8 -->
      <g transform="translate(25.155 87.98595)scale(0.16 -0.16)">
       <defs>
        <path id="DejaVuSans-38" d="M 2034 2216 
Q 1584 2216 1326 1975 
Q 1069 1734 1069 1313 
Q 1069 891 1326 650 
Q 1584 409 2034 409 
Q 2484 409 2743 651 
Q 3003 894 3003 1313 
Q 3003 1734 2745 1975 
Q 2488 2216 2034 2216 
z
M 1403 2484 
Q 997 2584 770 2862 
Q 544 3141 544 3541 
Q 544 4100 942 4425 
Q 1341 4750 2034 4750 
Q 2731 4750 3128 4425 
Q 3525 4100 3525 3541 
Q 3525 3141 3298 2862 
Q 3072 2584 2669 2484 
Q 3125 2378 3379 2068 
Q 3634 1759 3634 1313 
Q 3634 634 3220 271 
Q 2806 -91 2034 -91 
Q 1263 -91 848 271 
Q 434 634 434 1313 
Q 434 1759 690 2068 
Q 947 2378 1403 2484 
z
M 1172 3481 
Q 1172 3119 1398 2916 
Q 1625 2713 2034 2713 
Q 2441 2713 2670 2916 
Q 2900 3119 2900 3481 
Q 2900 3844 2670 4047 
Q 2441 4250 2034 4250 
Q 1625 4250 1398 4047 
Q 1172 3844 1172 3481 
z
" transform="scale(0.015625)"/>
       </defs>
       <use xlink:href="#DejaVuSans-30"/>
       <use xlink:href="#DejaVuSans-2e" x="63.623047"/>
       <use xlink:href="#DejaVuSans-38" x="95.410156"/>
      </g>
     </g>
    </g>
    <g id="ytick_6">
     <g id="line2d_31">
      <path d="M 57.6 27.648 
L 360.8064 27.648 
" clip-path="url(#p971e80afa8)" style="fill: none; stroke: #b0b0b0; stroke-width: 0.8; stroke-linecap: square"/>
     </g>
     <g id="line2d_32">
      <g>
       <use xlink:href="#m0e63cacf80" x="57.6" y="27.648" style="stroke: #000000; stroke-width: 0.8"/>
      </g>
     </g>
     <g id="text_11">
      <!-- 1.0 -->
      <g transform="translate(25.155 33.72675)scale(0.16 -0.16)">
       <use xlink:href="#DejaVuSans-31"/>
       <use xlink:href="#DejaVuSans-2e" x="63.623047"/>
       <use xlink:href="#DejaVuSans-30" x="95.410156"/>
      </g>
     </g>
    </g>
    <g id="text_12">
     <!-- Fraction of function,target pairs -->
     <g transform="translate(17.619531 297.681)rotate(-90)scale(0.17 -0.17)">
      <defs>
       <path id="DejaVuSans-46" d="M 628 4666 
L 3309 4666 
L 3309 4134 
L 1259 4134 
L 1259 2759 
L 3109 2759 
L 3109 2228 
L 1259 2228 
L 1259 0 
L 628 0 
L 628 4666 
z
" transform="scale(0.015625)"/>
       <path id="DejaVuSans-72" d="M 2631 2963 
Q 2534 3019 2420 3045 
Q 2306 3072 2169 3072 
Q 1681 3072 1420 2755 
Q 1159 2438 1159 1844 
L 1159 0 
L 581 0 
L 581 3500 
L 1159 3500 
L 1159 2956 
Q 1341 3275 1631 3429 
Q 1922 3584 2338 3584 
Q 2397 3584 2469 3576 
Q 2541 3569 2628 3553 
L 2631 2963 
z
" transform="scale(0.015625)"/>
       <path id="DejaVuSans-63" d="M 3122 3366 
L 3122 2828 
Q 2878 2963 2633 3030 
Q 2388 3097 2138 3097 
Q 1578 3097 1268 2742 
Q 959 2388 959 1747 
Q 959 1106 1268 751 
Q 1578 397 2138 397 
Q 2388 397 2633 464 
Q 2878 531 3122 666 
L 3122 134 
Q 2881 22 2623 -34 
Q 2366 -91 2075 -91 
Q 1284 -91 818 406 
Q 353 903 353 1747 
Q 353 2603 823 3093 
Q 1294 3584 2113 3584 
Q 2378 3584 2631 3529 
Q 2884 3475 3122 3366 
z
" transform="scale(0.015625)"/>
       <path id="DejaVuSans-74" d="M 1172 4494 
L 1172 3500 
L 2356 3500 
L 2356 3053 
L 1172 3053 
L 1172 1153 
Q 1172 725 1289 603 
Q 1406 481 1766 481 
L 2356 481 
L 2356 0 
L 1766 0 
Q 1100 0 847 248 
Q 594 497 594 1153 
L 594 3053 
L 172 3053 
L 172 3500 
L 594 3500 
L 594 4494 
L 1172 4494 
z
" transform="scale(0.015625)"/>
       <path id="DejaVuSans-75" d="M 544 1381 
L 544 3500 
L 1119 3500 
L 1119 1403 
Q 1119 906 1312 657 
Q 1506 409 1894 409 
Q 2359 409 2629 706 
Q 2900 1003 2900 1516 
L 2900 3500 
L 3475 3500 
L 3475 0 
L 2900 0 
L 2900 538 
Q 2691 219 2414 64 
Q 2138 -91 1772 -91 
Q 1169 -91 856 284 
Q 544 659 544 1381 
z
M 1991 3584 
L 1991 3584 
z
" transform="scale(0.015625)"/>
       <path id="DejaVuSans-2c" d="M 750 794 
L 1409 794 
L 1409 256 
L 897 -744 
L 494 -744 
L 750 256 
L 750 794 
z
" transform="scale(0.015625)"/>
       <path id="DejaVuSans-70" d="M 1159 525 
L 1159 -1331 
L 581 -1331 
L 581 3500 
L 1159 3500 
L 1159 2969 
Q 1341 3281 1617 3432 
Q 1894 3584 2278 3584 
Q 2916 3584 3314 3078 
Q 3713 2572 3713 1747 
Q 3713 922 3314 415 
Q 2916 -91 2278 -91 
Q 1894 -91 1617 61 
Q 1341 213 1159 525 
z
M 3116 1747 
Q 3116 2381 2855 2742 
Q 2594 3103 2138 3103 
Q 1681 3103 1420 2742 
Q 1159 2381 1159 1747 
Q 1159 1113 1420 752 
Q 1681 391 2138 391 
Q 2594 391 2855 752 
Q 3116 1113 3116 1747 
z
" transform="scale(0.015625)"/>
      </defs>
      <use xlink:href="#DejaVuSans-46"/>
      <use xlink:href="#DejaVuSans-72" x="50.269531"/>
      <use xlink:href="#DejaVuSans-61" x="91.382812"/>
      <use xlink:href="#DejaVuSans-63" x="152.662109"/>
      <use xlink:href="#DejaVuSans-74" x="207.642578"/>
      <use xlink:href="#DejaVuSans-69" x="246.851562"/>
      <use xlink:href="#DejaVuSans-6f" x="274.634766"/>
      <use xlink:href="#DejaVuSans-6e" x="335.816406"/>
      <use xlink:href="#DejaVuSans-20" x="399.195312"/>
      <use xlink:href="#DejaVuSans-6f" x="430.982422"/>
      <use xlink:href="#DejaVuSans-66" x="492.164062"/>
      <use xlink:href="#DejaVuSans-20" x="527.369141"/>
      <use xlink:href="#DejaVuSans-66" x="559.15625"/>
      <use xlink:href="#DejaVuSans-75" x="594.361328"/>
      <use xlink:href="#DejaVuSans-6e" x="657.740234"/>
      <use xlink:href="#DejaVuSans-63" x="721.119141"/>
      <use xlink:href="#DejaVuSans-74" x="776.099609"/>
      <use xlink:href="#DejaVuSans-69" x="815.308594"/>
      <use xlink:href="#DejaVuSans-6f" x="843.091797"/>
      <use xlink:href="#DejaVuSans-6e" x="904.273438"/>
      <use xlink:href="#DejaVuSans-2c" x="967.652344"/>
      <use xlink:href="#DejaVuSans-74" x="999.439453"/>
      <use xlink:href="#DejaVuSans-61" x="1038.648438"/>
      <use xlink:href="#DejaVuSans-72" x="1099.927734"/>
      <use xlink:href="#DejaVuSans-67" x="1139.291016"/>
      <use xlink:href="#DejaVuSans-65" x="1202.767578"/>
      <use xlink:href="#DejaVuSans-74" x="1264.291016"/>
      <use xlink:href="#DejaVuSans-20" x="1303.5"/>
      <use xlink:href="#DejaVuSans-70" x="1335.287109"/>
      <use xlink:href="#DejaVuSans-61" x="1398.763672"/>
      <use xlink:href="#DejaVuSans-69" x="1460.042969"/>
      <use xlink:href="#DejaVuSans-72" x="1487.826172"/>
      <use xlink:href="#DejaVuSans-73" x="1528.939453"/>
     </g>
    </g>
   </g>
   <g id="line2d_33">
    <defs>
     <path id="m99eb2494a6" d="M 0 1.5 
C 0.397805 1.5 0.77937 1.341951 1.06066 1.06066 
C 1.341951 0.77937 1.5 0.397805 1.5 0 
C 1.5 -0.397805 1.341951 -0.77937 1.06066 -1.06066 
C 0.77937 -1.341951 0.397805 -1.5 0 -1.5 
C -0.397805 -1.5 -0.77937 -1.341951 -1.06066 -1.06066 
C -1.341951 -0.77937 -1.5 -0.397805 -1.5 0 
C -1.5 0.397805 -1.341951 0.77937 -1.06066 1.06066 
C -0.77937 1.341951 -0.397805 1.5 0 1.5 
z
" style="stroke: #f5deb3"/>
    </defs>
    <g>
     <use xlink:href="#m99eb2494a6" x="183.842993" y="27.648" style="fill: #f5deb3; stroke: #f5deb3"/>
     <use xlink:href="#m99eb2494a6" x="183.842993" y="27.648" style="fill: #f5deb3; stroke: #f5deb3"/>
    </g>
   </g>
   <g id="line2d_34">
    <defs>
     <path id="mbf8b128fc0" d="M 0 1.5 
C 0.397805 1.5 0.77937 1.341951 1.06066 1.06066 
C 1.341951 0.77937 1.5 0.397805 1.5 0 
C 1.5 -0.397805 1.341951 -0.77937 1.06066 -1.06066 
C 0.77937 -1.341951 0.397805 -1.5 0 -1.5 
C -0.397805 -1.5 -0.77937 -1.341951 -1.06066 -1.06066 
C -1.341951 -0.77937 -1.5 -0.397805 -1.5 0 
C -1.5 0.397805 -1.341951 0.77937 -1.06066 1.06066 
C -0.77937 1.341951 -0.397805 1.5 0 1.5 
z
" style="stroke: #000080"/>
    </defs>
    <g>
     <use xlink:href="#mbf8b128fc0" x="310.710034" y="27.648" style="fill: #000080; stroke: #000080"/>
     <use xlink:href="#mbf8b128fc0" x="310.710034" y="27.648" style="fill: #000080; stroke: #000080"/>
    </g>
   </g>
   <g id="line2d_35">
    <path d="M 36.933397 298.944 
L 36.933397 292.560565 
L 57.6 292.560565 
L 57.6 291.496659 
L 63.011746 291.496659 
L 63.011746 290.432753 
L 83.678349 290.432753 
L 83.678349 287.241035 
L 86.578163 287.241035 
L 86.578163 286.177129 
L 90.230539 286.177129 
L 90.230539 281.921506 
L 96.717523 281.921506 
L 96.717523 280.8576 
L 105.36204 280.8576 
L 105.36204 279.793694 
L 108.119879 279.793694 
L 108.119879 278.729788 
L 111.97238 278.729788 
L 111.97238 277.665882 
L 112.656511 277.665882 
L 112.656511 276.601976 
L 116.030193 276.601976 
L 116.030193 275.538071 
L 119.129494 275.538071 
L 119.129494 274.474165 
L 119.366121 274.474165 
L 119.366121 273.410259 
L 122.19863 273.410259 
L 122.19863 272.346353 
L 122.399825 272.346353 
L 122.399825 271.282447 
L 122.598891 271.282447 
L 122.598891 270.218541 
L 132.522502 270.218541 
L 132.522502 269.154635 
L 133.210806 269.154635 
L 133.210806 268.090729 
L 134.198228 268.090729 
L 134.198228 267.026824 
L 134.41079 267.026824 
L 134.41079 264.899012 
L 136.029987 264.899012 
L 136.029987 263.835106 
L 142.45627 263.835106 
L 142.45627 262.7712 
L 171.434432 262.7712 
L 171.434432 261.707294 
L 182.726392 261.707294 
L 182.726392 260.643388 
L 183.119233 260.643388 
L 183.119233 259.579482 
L 183.426142 259.579482 
L 183.426142 258.515576 
L 190.664497 258.515576 
L 190.664497 257.451671 
L 190.975352 257.451671 
L 190.975352 256.387765 
L 191.203877 256.387765 
L 191.203877 255.323859 
L 194.716045 255.323859 
L 194.716045 254.259953 
L 194.85686 254.259953 
L 194.85686 253.196047 
L 203.038615 253.196047 
L 203.038615 252.132141 
L 203.376785 252.132141 
L 203.376785 251.068235 
L 209.527893 251.068235 
L 209.527893 250.004329 
L 209.823748 250.004329 
L 209.823748 248.940424 
L 209.961381 248.940424 
L 209.961381 247.876518 
L 210.531642 247.876518 
L 210.531642 246.812612 
L 236.940127 246.812612 
L 236.999493 244.6848 
L 239.026815 244.6848 
L 239.0755 242.556988 
L 254.356855 242.556988 
L 254.384887 240.429176 
L 265.422884 240.429176 
L 265.481907 197.872941 
L 272.36628 197.872941 
L 272.404764 155.316706 
L 273.649631 155.316706 
L 273.688603 112.760471 
L 283.343468 112.760471 
L 283.366256 97.156518 
L 286.332299 97.156518 
L 286.350625 81.197929 
L 286.954212 81.197929 
L 286.973277 64.175435 
L 292.35218 64.175435 
L 292.366205 57.082729 
L 294.259897 57.082729 
L 294.270781 51.408565 
L 294.669073 51.408565 
L 294.681831 42.897318 
L 298.418325 42.897318 
L 298.426844 38.641694 
L 299.819133 38.641694 
L 299.825068 35.095341 
L 300.124541 35.095341 
L 300.13401 31.548988 
L 304.111201 31.548988 
L 304.111201 31.194353 
L 304.348365 31.194353 
L 304.351883 30.485082 
L 306.678038 30.485082 
L 306.683051 29.421176 
L 307.593752 29.421176 
L 307.593752 29.066541 
L 307.799894 29.066541 
L 307.801322 28.002635 
L 310.710034 28.002635 
L 310.710034 27.648 
L 360.8064 27.648 
L 360.8064 27.648 
" style="fill: none; stroke: #000080; stroke-width: 1.5; stroke-linecap: square"/>
   </g>
   <g id="line2d_36">
    <defs>
     <path id="m739e2b8c92" d="M 0 6 
C 1.591219 6 3.117479 5.367802 4.242641 4.242641 
C 5.367802 3.117479 6 1.591219 6 0 
C 6 -1.591219 5.367802 -3.117479 4.242641 -4.242641 
C 3.117479 -5.367802 1.591219 -6 0 -6 
C -1.591219 -6 -3.117479 -5.367802 -4.242641 -4.242641 
C -5.367802 -3.117479 -6 -1.591219 -6 0 
C -6 1.591219 -5.367802 3.117479 -4.242641 4.242641 
C -3.117479 5.367802 -1.591219 6 0 6 
z
" style="stroke: #000080; stroke-width: 1.5"/>
    </defs>
    <g>
     <use xlink:href="#m739e2b8c92" x="96.717523" y="281.921506" style="fill-opacity: 0; stroke: #000080; stroke-width: 1.5"/>
     <use xlink:href="#m739e2b8c92" x="203.376785" y="252.132141" style="fill-opacity: 0; stroke: #000080; stroke-width: 1.5"/>
     <use xlink:href="#m739e2b8c92" x="272.382359" y="184.042165" style="fill-opacity: 0; stroke: #000080; stroke-width: 1.5"/>
     <use xlink:href="#m739e2b8c92" x="294.270781" y="51.7632" style="fill-opacity: 0; stroke: #000080; stroke-width: 1.5"/>
     <use xlink:href="#m739e2b8c92" x="310.710034" y="27.648" style="fill-opacity: 0; stroke: #000080; stroke-width: 1.5"/>
     <use xlink:href="#m739e2b8c92" x="360.8064" y="27.648" style="fill-opacity: 0; stroke: #000080; stroke-width: 1.5"/>
    </g>
   </g>
   <g id="line2d_37">
    <path style="fill: none; stroke: #000080; stroke-width: 1.5; stroke-linecap: square"/>
    <g/>
   </g>
   <g id="line2d_38">
    <path d="M 274.176439 112.760471 
" clip-path="url(#p971e80afa8)" style="fill: none; stroke: #000080; stroke-width: 1.5; stroke-linecap: square"/>
    <defs>
     <path id="m40a0eea13b" d="M -12 12 
L 12 -12 
M -12 -12 
L 12 12 
" style="stroke: #000080"/>
    </defs>
    <g clip-path="url(#p971e80afa8)">
     <use xlink:href="#m40a0eea13b" x="274.176439" y="112.760471" style="fill: #000080; stroke: #000080"/>
    </g>
   </g>
   <g id="line2d_39">
    <defs>
     <path id="md6b78f5f42" d="M 0 1.5 
C 0.397805 1.5 0.77937 1.341951 1.06066 1.06066 
C 1.341951 0.77937 1.5 0.397805 1.5 0 
C 1.5 -0.397805 1.341951 -0.77937 1.06066 -1.06066 
C 0.77937 -1.341951 0.397805 -1.5 0 -1.5 
C -0.397805 -1.5 -0.77937 -1.341951 -1.06066 -1.06066 
C -1.341951 -0.77937 -1.5 -0.397805 -1.5 0 
C -1.5 0.397805 -1.341951 0.77937 -1.06066 1.06066 
C -0.77937 1.341951 -0.397805 1.5 0 1.5 
z
" style="stroke: #ff00ff"/>
    </defs>
    <g>
     <use xlink:href="#md6b78f5f42" x="361.293552" y="27.648" style="fill: #ff00ff; stroke: #ff00ff"/>
     <use xlink:href="#md6b78f5f42" x="361.293552" y="27.648" style="fill: #ff00ff; stroke: #ff00ff"/>
    </g>
   </g>
   <g id="line2d_40">
    <path d="M 36.933397 298.944 
L 36.933397 292.560565 
L 57.6 292.560565 
L 57.6 291.851294 
L 63.011746 291.851294 
L 63.011746 290.787388 
L 67.209423 290.787388 
L 67.209423 290.078118 
L 73.538988 290.078118 
L 73.538988 289.723482 
L 76.050921 289.723482 
L 76.050921 289.368847 
L 78.266603 289.368847 
L 78.266603 289.014212 
L 83.678349 289.014212 
L 83.678349 288.659576 
L 86.578163 288.659576 
L 86.578163 287.241035 
L 87.876026 287.241035 
L 87.876026 286.531765 
L 89.090095 286.531765 
L 89.090095 286.177129 
L 92.322865 286.177129 
L 92.322865 285.822494 
L 93.287772 285.822494 
L 93.287772 284.758588 
L 94.205591 284.758588 
L 94.205591 284.403953 
L 98.223251 284.403953 
L 98.223251 283.340047 
L 98.933205 283.340047 
L 98.933205 282.985412 
L 100.9152 282.985412 
L 100.9152 282.630776 
L 103.269713 282.630776 
L 103.269713 282.276141 
L 103.815014 282.276141 
L 103.815014 281.921506 
L 106.326946 281.921506 
L 106.326946 280.502965 
L 106.791453 280.502965 
L 106.791453 280.148329 
L 110.144579 280.148329 
L 110.144579 279.793694 
L 111.620752 279.793694 
L 111.620752 279.439059 
L 112.656511 279.439059 
L 112.656511 279.084424 
L 116.030193 279.084424 
L 116.030193 278.375153 
L 116.308887 278.375153 
L 116.308887 278.020518 
L 117.6436 278.020518 
L 117.6436 277.665882 
L 118.401214 277.665882 
L 118.401214 277.311247 
L 118.64712 277.311247 
L 118.64712 276.601976 
L 118.889854 276.601976 
L 118.889854 275.892706 
L 119.830627 275.892706 
L 119.830627 275.183435 
L 120.058649 275.183435 
L 120.058649 274.8288 
L 122.19863 274.8288 
L 122.19863 274.474165 
L 122.598891 274.474165 
L 122.598891 274.119529 
L 123.750979 274.119529 
L 123.750979 273.764894 
L 124.659926 273.764894 
L 124.659926 272.700988 
L 125.184934 272.700988 
L 125.184934 272.346353 
L 126.028642 272.346353 
L 126.028642 271.991718 
L 126.192937 271.991718 
L 126.192937 271.637082 
L 126.517282 271.637082 
L 126.517282 271.282447 
L 127.149662 271.282447 
L 127.149662 270.927812 
L 127.610376 270.927812 
L 127.610376 270.573176 
L 127.761474 270.573176 
L 127.761474 270.218541 
L 127.911368 270.218541 
L 127.911368 269.509271 
L 131.808053 269.509271 
L 131.808053 268.8 
L 131.929028 268.8 
L 131.929028 268.445365 
L 132.405295 268.445365 
L 132.405295 268.090729 
L 132.869802 268.090729 
L 132.869802 267.026824 
L 133.434756 267.026824 
L 133.434756 266.672188 
L 133.656071 266.672188 
L 133.656071 266.317553 
L 134.304809 266.317553 
L 134.304809 265.962918 
L 136.222928 265.962918 
L 136.222928 265.608282 
L 138.985129 265.608282 
L 138.985129 264.899012 
L 139.954178 264.899012 
L 140.032723 264.189741 
L 140.343665 264.189741 
L 140.343665 263.835106 
L 140.573544 263.835106 
L 140.573544 262.061929 
L 141.825656 262.061929 
L 141.825656 261.352659 
L 143.850356 261.352659 
L 143.914232 260.643388 
L 144.355394 260.643388 
L 144.355394 260.288753 
L 145.561676 260.288753 
L 145.561676 259.934118 
L 146.080251 259.934118 
L 146.080251 259.579482 
L 146.859539 259.579482 
L 146.859539 259.224847 
L 147.130214 259.224847 
L 147.130214 258.870212 
L 147.607824 258.870212 
L 147.607824 258.515576 
L 149.069161 258.515576 
L 149.069161 257.451671 
L 149.31003 257.451671 
L 149.31003 257.097035 
L 149.922224 257.097035 
L 149.922224 256.387765 
L 151.133398 256.387765 
L 151.133398 256.033129 
L 152.312136 256.033129 
L 152.312136 255.678494 
L 152.835271 255.678494 
L 152.835271 254.969224 
L 152.953957 254.969224 
L 152.953957 254.614588 
L 154.359307 254.614588 
L 154.359307 254.259953 
L 154.577625 254.259953 
L 154.577625 253.905318 
L 155.217778 253.905318 
L 155.217778 253.550682 
L 156.072219 253.550682 
L 156.072219 253.196047 
L 156.271636 253.196047 
L 156.271636 251.777506 
L 156.566854 251.777506 
L 156.566854 250.358965 
L 157.642093 250.358965 
L 157.642093 250.004329 
L 159.062507 250.004329 
L 159.062507 248.940424 
L 159.816746 248.940424 
L 159.816746 248.231153 
L 161.290852 248.231153 
L 161.316153 247.521882 
L 169.816397 247.521882 
L 169.816397 247.167247 
L 170.49593 247.167247 
L 170.49593 246.812612 
L 170.864796 246.812612 
L 170.864796 246.457976 
L 170.986161 246.457976 
L 170.986161 246.103341 
L 171.15177 246.103341 
L 171.181725 245.394071 
L 171.698355 245.394071 
L 171.698355 245.039435 
L 172.229507 245.039435 
L 172.229507 244.6848 
L 172.677089 244.6848 
L 172.677089 244.330165 
L 172.924252 244.330165 
L 172.924252 243.975529 
L 173.985085 243.975529 
L 174.087951 243.266259 
L 174.203007 243.266259 
L 174.279322 242.556988 
L 174.681186 242.556988 
L 174.681186 242.202353 
L 174.829699 242.202353 
L 174.829699 241.847718 
L 175.050293 241.847718 
L 175.050293 241.493082 
L 175.304425 241.493082 
L 175.412297 240.074541 
L 175.708734 240.074541 
L 175.708734 239.719906 
L 175.965791 239.719906 
L 175.965791 239.365271 
L 176.627113 239.365271 
L 176.627113 239.010635 
L 178.040396 239.010635 
L 178.040396 238.656 
L 178.883832 238.656 
L 178.883832 238.301365 
L 185.16222 238.301365 
L 185.16222 237.946729 
L 187.701713 237.946729 
L 187.701713 237.592094 
L 188.186685 237.592094 
L 188.186685 237.237459 
L 188.349609 237.237459 
L 188.349609 236.528188 
L 189.166736 236.528188 
L 189.270002 234.755012 
L 189.660685 234.755012 
L 189.660685 234.400376 
L 189.933281 234.400376 
L 189.933281 234.045741 
L 190.087294 234.045741 
L 190.087294 233.691106 
L 190.353821 233.691106 
L 190.353821 233.336471 
L 190.525862 233.336471 
L 190.605968 231.208659 
L 190.659184 231.208659 
L 190.659184 230.854024 
L 191.209038 230.854024 
L 191.209038 230.499388 
L 191.444955 230.499388 
L 191.444955 229.790118 
L 192.184522 229.790118 
L 192.184522 228.371576 
L 192.810989 228.371576 
L 192.914973 226.243765 
L 193.663468 226.243765 
L 193.663468 225.534494 
L 193.897546 225.534494 
L 193.897546 224.115953 
L 194.548256 224.115953 
L 194.612968 222.697412 
L 195.042989 222.697412 
L 195.042989 221.988141 
L 195.704708 221.988141 
L 195.704708 221.633506 
L 197.06451 221.633506 
L 197.06451 221.278871 
L 198.947955 221.278871 
L 198.947955 220.5696 
L 201.550308 220.5696 
L 201.550308 220.214965 
L 208.382821 220.214965 
L 208.382821 219.860329 
L 210.772148 219.860329 
L 210.773972 219.151059 
L 211.295649 219.151059 
L 211.295649 218.796424 
L 213.449132 218.796424 
L 213.449132 218.441788 
L 222.773497 218.441788 
L 222.773497 218.087153 
L 230.176947 218.087153 
L 230.176947 217.377882 
L 235.761035 217.377882 
L 235.761035 217.023247 
L 236.41264 217.023247 
L 236.41264 216.668612 
L 244.746892 216.668612 
L 244.746892 216.313976 
L 244.981308 216.313976 
L 244.981308 214.895435 
L 259.388586 214.895435 
L 259.388586 214.5408 
L 274.400891 214.5408 
L 274.400891 214.186165 
L 275.231563 214.186165 
L 275.231563 213.831529 
L 275.890616 213.831529 
L 275.890616 213.476894 
L 277.017245 213.476894 
L 277.017245 213.122259 
L 285.065394 213.122259 
L 285.134054 211.349082 
L 285.205778 211.349082 
L 285.267705 209.575906 
L 285.925036 209.575906 
L 285.990935 207.802729 
L 286.045264 207.802729 
L 286.110279 204.611012 
L 286.206488 204.611012 
L 286.23039 203.547106 
L 286.531224 203.547106 
L 286.590305 200.000753 
L 286.6597 200.000753 
L 286.747555 196.809035 
L 286.824122 196.809035 
L 286.856809 195.035859 
L 287.102407 195.035859 
L 287.102407 194.681224 
L 288.424776 194.681224 
L 288.517422 192.198776 
L 290.822378 192.198776 
L 290.822378 191.844141 
L 293.475884 191.844141 
L 293.475884 191.489506 
L 294.603055 191.489506 
L 294.709596 190.780235 
L 295.014919 190.780235 
L 295.014919 190.4256 
L 298.097397 190.4256 
L 298.16575 189.361694 
L 298.391914 189.361694 
L 298.456603 188.652424 
L 298.504407 188.652424 
L 298.592203 187.588518 
L 298.634196 187.588518 
L 298.634196 187.233882 
L 298.868032 187.233882 
L 298.939144 185.460706 
L 298.979801 185.460706 
L 299.071055 183.332894 
L 299.207086 183.332894 
L 299.315282 180.850447 
L 299.325035 180.850447 
L 299.421615 179.077271 
L 299.438206 179.077271 
L 299.45673 177.658729 
L 299.590302 177.658729 
L 299.667509 176.240188 
L 299.738713 176.240188 
L 299.738713 175.885553 
L 299.855051 175.885553 
L 299.855051 175.530918 
L 300.306635 175.530918 
L 300.379359 174.467012 
L 300.799846 174.467012 
L 300.799846 174.112376 
L 300.959308 174.112376 
L 301.008484 172.693835 
L 301.096111 172.693835 
L 301.098539 171.984565 
L 301.240273 171.984565 
L 301.240273 171.629929 
L 301.462392 171.629929 
L 301.462657 170.920659 
L 301.592313 170.920659 
L 301.699478 169.147482 
L 301.839741 169.147482 
L 301.916817 166.665035 
L 302.737405 166.665035 
L 302.737405 166.3104 
L 303.449591 166.3104 
L 303.449591 165.955765 
L 303.707757 165.955765 
L 303.707757 165.601129 
L 303.899238 165.601129 
L 303.899238 165.246494 
L 305.93709 165.246494 
L 306.031604 163.827953 
L 306.051957 163.827953 
L 306.111861 162.764047 
L 306.246041 162.764047 
L 306.297932 162.054776 
L 306.416928 162.054776 
L 306.416928 161.700141 
L 306.584071 161.700141 
L 306.671943 160.2816 
L 306.852714 160.2816 
L 306.897092 159.572329 
L 307.009424 159.572329 
L 307.116203 157.089882 
L 307.223711 157.089882 
L 307.263843 156.025976 
L 307.398852 156.025976 
L 307.502106 155.316706 
L 307.512458 155.316706 
L 307.605835 153.898165 
L 307.667172 153.898165 
L 307.77642 152.834259 
L 307.813818 152.834259 
L 307.872254 151.770353 
L 308.001881 151.770353 
L 308.07291 150.351812 
L 308.197026 150.351812 
L 308.24176 149.642541 
L 308.323706 149.642541 
L 308.411445 148.933271 
L 308.446497 148.933271 
L 308.554521 148.224 
L 308.752279 148.224 
L 308.844967 146.096188 
L 308.948818 146.096188 
L 308.949173 145.386918 
L 309.379978 145.386918 
L 309.414959 144.677647 
L 309.536843 144.677647 
L 309.536843 144.323012 
L 309.694404 144.323012 
L 309.750231 143.613741 
L 309.92001 143.613741 
L 309.92001 143.259106 
L 310.916495 143.259106 
L 310.916495 142.904471 
L 311.314559 142.904471 
L 311.402821 141.840565 
L 311.525663 141.840565 
L 311.631557 140.422024 
L 311.808235 140.422024 
L 311.808235 140.067388 
L 311.921005 140.067388 
L 312.022129 138.648847 
L 312.187813 138.648847 
L 312.281852 137.939576 
L 312.304154 137.939576 
L 312.392287 136.521035 
L 312.498733 136.521035 
L 312.555645 135.811765 
L 312.610865 135.811765 
L 312.700682 133.329318 
L 312.838757 133.329318 
L 312.914807 132.265412 
L 313.014686 132.265412 
L 313.014686 131.910776 
L 313.13378 131.910776 
L 313.227937 130.846871 
L 313.286413 130.846871 
L 313.350632 129.073694 
L 313.483327 129.073694 
L 313.507855 128.364424 
L 313.713962 128.364424 
L 313.748882 127.655153 
L 313.833888 127.655153 
L 313.917518 126.945882 
L 313.946157 126.945882 
L 314.027346 125.881976 
L 314.172036 125.881976 
L 314.172036 125.527341 
L 314.456696 125.527341 
L 314.456696 125.172706 
L 315.878192 125.172706 
L 315.985263 124.1088 
L 316.112286 124.1088 
L 316.112286 123.754165 
L 316.258882 123.754165 
L 316.367576 121.626353 
L 316.491331 121.626353 
L 316.594374 120.562447 
L 316.605281 120.562447 
L 316.637487 119.853176 
L 316.752762 119.853176 
L 316.813796 119.143906 
L 316.864282 119.143906 
L 316.925182 117.725365 
L 316.988623 117.725365 
L 317.097272 116.306824 
L 317.108833 116.306824 
L 317.142667 115.242918 
L 317.267935 115.242918 
L 317.289561 114.533647 
L 317.38561 114.533647 
L 317.435844 113.469741 
L 317.505792 113.469741 
L 317.505792 113.115106 
L 317.765186 113.115106 
L 317.84278 112.0512 
L 317.950671 112.0512 
L 317.998279 110.987294 
L 318.093725 110.987294 
L 318.130461 110.278024 
L 318.690791 110.278024 
L 318.721799 109.568753 
L 319.316153 109.568753 
L 319.316153 109.214118 
L 319.469564 109.214118 
L 319.56959 108.504847 
L 320.008737 108.504847 
L 320.045862 107.795576 
L 320.148481 107.795576 
L 320.234156 106.731671 
L 320.327619 106.731671 
L 320.376426 106.0224 
L 320.565105 106.0224 
L 320.66009 105.313129 
L 320.684092 105.313129 
L 320.727128 104.249224 
L 320.816782 104.249224 
L 320.895518 103.539953 
L 320.947635 103.539953 
L 320.996667 102.476047 
L 321.068657 102.476047 
L 321.068657 102.121412 
L 321.23103 102.121412 
L 321.23103 101.766776 
L 321.659277 101.766776 
L 321.659277 101.412141 
L 321.847124 101.412141 
L 321.847124 101.057506 
L 321.987746 101.057506 
L 321.987746 100.702871 
L 322.359639 100.702871 
L 322.359639 100.348235 
L 322.556675 100.348235 
L 322.556675 99.9936 
L 322.671805 99.9936 
L 322.762593 98.929694 
L 322.824447 98.929694 
L 322.876992 97.511153 
L 323.075725 97.511153 
L 323.075725 97.156518 
L 323.211276 97.156518 
L 323.308876 95.737976 
L 323.352127 95.737976 
L 323.433375 93.9648 
L 323.620199 93.9648 
L 323.620199 93.610165 
L 323.745674 93.610165 
L 323.846537 92.900894 
L 323.969939 92.900894 
L 324.075488 91.836988 
L 324.572585 91.836988 
L 324.60882 91.127718 
L 324.98973 91.127718 
L 325.08784 90.418447 
L 325.215841 90.418447 
L 325.215841 90.063812 
L 325.394352 90.063812 
L 325.448545 89.354541 
L 325.538967 89.354541 
L 325.631702 88.645271 
L 325.899708 88.645271 
L 325.899708 88.290635 
L 326.083117 88.290635 
L 326.143766 87.581365 
L 326.211314 87.581365 
L 326.284785 85.808188 
L 326.348732 85.808188 
L 326.348732 85.453553 
L 326.54866 85.453553 
L 326.609976 84.744282 
L 326.752113 84.744282 
L 326.752113 84.389647 
L 327.272305 84.389647 
L 327.272305 84.035012 
L 327.416381 84.035012 
L 327.459976 83.325741 
L 327.546871 83.325741 
L 327.651435 82.261835 
L 327.808625 82.261835 
L 327.829054 81.552565 
L 327.941116 81.552565 
L 328.014063 80.134024 
L 328.116318 80.134024 
L 328.167255 78.715482 
L 328.294378 78.715482 
L 328.294378 78.360847 
L 328.421034 78.360847 
L 328.421034 78.006212 
L 328.590064 78.006212 
L 328.674052 76.942306 
L 328.772568 76.942306 
L 328.772568 76.587671 
L 328.906657 76.587671 
L 328.993752 75.8784 
L 329.19273 75.8784 
L 329.276033 75.169129 
L 329.403089 75.169129 
L 329.47975 74.459859 
L 329.576408 74.459859 
L 329.634446 73.395953 
L 329.812895 73.395953 
L 329.860812 71.977412 
L 330.089074 71.977412 
L 330.089074 71.622776 
L 330.263489 71.622776 
L 330.356102 70.558871 
L 330.388418 70.558871 
L 330.483639 68.785694 
L 330.669011 68.785694 
L 330.709095 68.076424 
L 331.031993 68.076424 
L 331.118811 66.657882 
L 331.522391 66.657882 
L 331.522391 66.303247 
L 331.871798 66.303247 
L 331.916504 65.593976 
L 331.983257 65.593976 
L 332.046963 64.175435 
L 332.481054 64.175435 
L 332.535038 63.111529 
L 332.603868 63.111529 
L 332.603868 62.756894 
L 332.937136 62.756894 
L 332.937136 62.402259 
L 333.092387 62.402259 
L 333.140349 61.338353 
L 333.301722 61.338353 
L 333.363312 60.629082 
L 333.602831 60.629082 
L 333.602831 60.274447 
L 333.779045 60.274447 
L 333.779045 59.919812 
L 333.909429 59.919812 
L 333.937115 59.210541 
L 334.033996 59.210541 
L 334.033996 58.855906 
L 334.289177 58.855906 
L 334.324902 58.146635 
L 334.724732 58.146635 
L 334.791819 57.082729 
L 335.605408 57.082729 
L 335.605408 56.728094 
L 335.768982 56.728094 
L 335.808587 56.018824 
L 336.027135 56.018824 
L 336.091093 55.309553 
L 336.340646 55.309553 
L 336.430413 54.600282 
L 336.54915 54.600282 
L 336.54915 54.245647 
L 336.695369 54.245647 
L 336.695369 53.891012 
L 336.903051 53.891012 
L 336.929244 53.181741 
L 337.176152 53.181741 
L 337.190502 52.472471 
L 337.394828 52.472471 
L 337.452103 51.7632 
L 337.884943 51.7632 
L 337.969165 50.699294 
L 338.338729 50.699294 
L 338.338729 50.344659 
L 338.708276 50.344659 
L 338.708276 49.990024 
L 338.896853 49.990024 
L 338.896853 49.635388 
L 339.106522 49.635388 
L 339.106522 49.280753 
L 339.228799 49.280753 
L 339.311506 48.571482 
L 339.997482 48.571482 
L 340.090033 47.862212 
L 340.146984 47.862212 
L 340.146984 47.507576 
L 340.524519 47.507576 
L 340.558027 46.798306 
L 340.677263 46.798306 
L 340.677263 46.443671 
L 341.006586 46.443671 
L 341.008804 45.7344 
L 341.190384 45.7344 
L 341.280124 44.670494 
L 341.318134 44.670494 
L 341.318134 44.315859 
L 341.559673 44.315859 
L 341.578118 43.606588 
L 341.687571 43.606588 
L 341.687571 43.251953 
L 341.821016 43.251953 
L 341.824327 42.542682 
L 342.326936 42.542682 
L 342.326936 42.188047 
L 342.588856 42.188047 
L 342.588856 41.833412 
L 342.756186 41.833412 
L 342.819736 41.124141 
L 342.917076 41.124141 
L 342.917076 40.769506 
L 343.167603 40.769506 
L 343.167603 40.414871 
L 343.663527 40.414871 
L 343.749968 39.350965 
L 343.875268 39.350965 
L 343.929099 38.641694 
L 345.110746 38.641694 
L 345.110746 38.287059 
L 345.320248 38.287059 
L 345.34514 37.577788 
L 345.525311 37.577788 
L 345.612015 36.513882 
L 345.787406 36.513882 
L 345.787406 36.159247 
L 345.962064 36.159247 
L 345.962064 35.804612 
L 346.572778 35.804612 
L 346.657826 34.740706 
L 346.780025 34.740706 
L 346.780025 34.386071 
L 347.001182 34.386071 
L 347.001182 34.031435 
L 348.025801 34.031435 
L 348.025801 33.6768 
L 348.314389 33.6768 
L 348.314389 33.322165 
L 348.727117 33.322165 
L 348.727117 32.967529 
L 349.278348 32.967529 
L 349.336532 32.258259 
L 349.504341 32.258259 
L 349.504341 31.903624 
L 349.70899 31.903624 
L 349.70899 31.548988 
L 350.357195 31.548988 
L 350.357195 31.194353 
L 350.578497 31.194353 
L 350.578497 30.839718 
L 350.938222 30.839718 
L 350.938222 30.485082 
L 351.299032 30.485082 
L 351.299032 30.130447 
L 351.414557 30.130447 
L 351.414557 29.775812 
L 351.965535 29.775812 
L 351.965535 29.421176 
L 352.226055 29.421176 
L 352.25819 28.711906 
L 352.853841 28.711906 
L 352.853841 28.357271 
L 354.837289 28.357271 
L 354.837289 28.002635 
L 360.8064 28.002635 
L 360.8064 28.002635 
" style="fill: none; stroke: #ff00ff; stroke-width: 1.5; stroke-linecap: square"/>
   </g>
   <g id="line2d_41">
    <defs>
     <path id="m3b4e978809" d="M -0 8.485281 
L 5.091169 0 
L 0 -8.485281 
L -5.091169 -0 
z
" style="stroke: #ff00ff; stroke-width: 1.5; stroke-linejoin: miter"/>
    </defs>
    <g>
     <use xlink:href="#m3b4e978809" x="172.924252" y="244.330165" style="fill-opacity: 0; stroke: #ff00ff; stroke-width: 1.5; stroke-linejoin: miter"/>
     <use xlink:href="#m3b4e978809" x="236.41264" y="217.023247" style="fill-opacity: 0; stroke: #ff00ff; stroke-width: 1.5; stroke-linejoin: miter"/>
     <use xlink:href="#m3b4e978809" x="317.998279" y="111.341929" style="fill-opacity: 0; stroke: #ff00ff; stroke-width: 1.5; stroke-linejoin: miter"/>
     <use xlink:href="#m3b4e978809" x="354.837289" y="28.002635" style="fill-opacity: 0; stroke: #ff00ff; stroke-width: 1.5; stroke-linejoin: miter"/>
     <use xlink:href="#m3b4e978809" x="354.837289" y="28.002635" style="fill-opacity: 0; stroke: #ff00ff; stroke-width: 1.5; stroke-linejoin: miter"/>
     <use xlink:href="#m3b4e978809" x="360.8064" y="28.002635" style="fill-opacity: 0; stroke: #ff00ff; stroke-width: 1.5; stroke-linejoin: miter"/>
    </g>
   </g>
   <g id="line2d_42">
    <path style="fill: none; stroke: #ff00ff; stroke-width: 1.5; stroke-linecap: square"/>
    <g/>
   </g>
   <g id="line2d_43">
    <path d="M 286.523419 203.547106 
" clip-path="url(#p971e80afa8)" style="fill: none; stroke: #ff00ff; stroke-width: 1.5; stroke-linecap: square"/>
    <defs>
     <path id="mf3671a8ce9" d="M -12 12 
L 12 -12 
M -12 -12 
L 12 12 
" style="stroke: #ff00ff"/>
    </defs>
    <g clip-path="url(#p971e80afa8)">
     <use xlink:href="#mf3671a8ce9" x="286.523419" y="203.547106" style="fill: #ff00ff; stroke: #ff00ff"/>
    </g>
   </g>
   <g id="line2d_44">
    <path d="M 360.8064 28.002635 
L 380.514816 293.51808 
" style="fill: none; stroke: #ff00ff; stroke-width: 1.5; stroke-linecap: square"/>
    <g>
     <use xlink:href="#m3b4e978809" x="360.8064" y="28.002635" style="fill-opacity: 0; stroke: #ff00ff; stroke-width: 1.5; stroke-linejoin: miter"/>
     <use xlink:href="#m3b4e978809" x="380.514816" y="293.51808" style="fill-opacity: 0; stroke: #ff00ff; stroke-width: 1.5; stroke-linejoin: miter"/>
    </g>
   </g>
   <g id="line2d_45">
    <path d="M 360.8064 27.648 
L 380.514816 163.296 
" style="fill: none; stroke: #000080; stroke-width: 1.5; stroke-linecap: square"/>
    <g>
     <use xlink:href="#m739e2b8c92" x="360.8064" y="27.648" style="fill-opacity: 0; stroke: #000080; stroke-width: 1.5"/>
     <use xlink:href="#m739e2b8c92" x="380.514816" y="163.296" style="fill-opacity: 0; stroke: #000080; stroke-width: 1.5"/>
    </g>
   </g>
   <g id="line2d_46">
    <path d="M 360.8064 298.944 
L 360.8064 27.648 
" style="fill: none; stroke: #000000; stroke-width: 1.5; stroke-linecap: square"/>
   </g>
   <g id="patch_3">
    <path d="M 57.6 298.944 
L 360.8064 298.944 
" style="fill: none; stroke: #000000; stroke-width: 0.8; stroke-linejoin: miter; stroke-linecap: square"/>
   </g>
   <g id="patch_4">
    <path d="M 57.6 27.648 
L 360.8064 27.648 
" style="fill: none; stroke: #000000; stroke-width: 0.8; stroke-linejoin: miter; stroke-linecap: square"/>
   </g>
   <g id="text_13">
    <!-- CMA-ES-20 -->
    <g transform="translate(386.578944 297.381205)scale(0.14 -0.14)">
     <defs>
      <path id="DejaVuSans-43" d="M 4122 4306 
L 4122 3641 
Q 3803 3938 3442 4084 
Q 3081 4231 2675 4231 
Q 1875 4231 1450 3742 
Q 1025 3253 1025 2328 
Q 1025 1406 1450 917 
Q 1875 428 2675 428 
Q 3081 428 3442 575 
Q 3803 722 4122 1019 
L 4122 359 
Q 3791 134 3420 21 
Q 3050 -91 2638 -91 
Q 1578 -91 968 557 
Q 359 1206 359 2328 
Q 359 3453 968 4101 
Q 1578 4750 2638 4750 
Q 3056 4750 3426 4639 
Q 3797 4528 4122 4306 
z
" transform="scale(0.015625)"/>
      <path id="DejaVuSans-4d" d="M 628 4666 
L 1569 4666 
L 2759 1491 
L 3956 4666 
L 4897 4666 
L 4897 0 
L 4281 0 
L 4281 4097 
L 3078 897 
L 2444 897 
L 1241 4097 
L 1241 0 
L 628 0 
L 628 4666 
z
" transform="scale(0.015625)"/>
      <path id="DejaVuSans-41" d="M 2188 4044 
L 1331 1722 
L 3047 1722 
L 2188 4044 
z
M 1831 4666 
L 2547 4666 
L 4325 0 
L 3669 0 
L 3244 1197 
L 1141 1197 
L 716 0 
L 50 0 
L 1831 4666 
z
" transform="scale(0.015625)"/>
      <path id="DejaVuSans-45" d="M 628 4666 
L 3578 4666 
L 3578 4134 
L 1259 4134 
L 1259 2753 
L 3481 2753 
L 3481 2222 
L 1259 2222 
L 1259 531 
L 3634 531 
L 3634 0 
L 628 0 
L 628 4666 
z
" transform="scale(0.015625)"/>
      <path id="DejaVuSans-53" d="M 3425 4513 
L 3425 3897 
Q 3066 4069 2747 4153 
Q 2428 4238 2131 4238 
Q 1616 4238 1336 4038 
Q 1056 3838 1056 3469 
Q 1056 3159 1242 3001 
Q 1428 2844 1947 2747 
L 2328 2669 
Q 3034 2534 3370 2195 
Q 3706 1856 3706 1288 
Q 3706 609 3251 259 
Q 2797 -91 1919 -91 
Q 1588 -91 1214 -16 
Q 841 59 441 206 
L 441 856 
Q 825 641 1194 531 
Q 1563 422 1919 422 
Q 2459 422 2753 634 
Q 3047 847 3047 1241 
Q 3047 1584 2836 1778 
Q 2625 1972 2144 2069 
L 1759 2144 
Q 1053 2284 737 2584 
Q 422 2884 422 3419 
Q 422 4038 858 4394 
Q 1294 4750 2059 4750 
Q 2388 4750 2728 4690 
Q 3069 4631 3425 4513 
z
" transform="scale(0.015625)"/>
     </defs>
     <use xlink:href="#DejaVuSans-43"/>
     <use xlink:href="#DejaVuSans-4d" x="69.824219"/>
     <use xlink:href="#DejaVuSans-41" x="156.103516"/>
     <use xlink:href="#DejaVuSans-2d" x="222.261719"/>
     <use xlink:href="#DejaVuSans-45" x="258.345703"/>
     <use xlink:href="#DejaVuSans-53" x="321.529297"/>
     <use xlink:href="#DejaVuSans-2d" x="385.005859"/>
     <use xlink:href="#DejaVuSans-32" x="421.089844"/>
     <use xlink:href="#DejaVuSans-30" x="484.712891"/>
    </g>
   </g>
   <g id="text_14">
    <!-- ddcma-0 -->
    <g transform="translate(386.578944 167.159125)scale(0.14 -0.14)">
     <use xlink:href="#DejaVuSans-64"/>
     <use xlink:href="#DejaVuSans-64" x="63.476562"/>
     <use xlink:href="#DejaVuSans-63" x="126.953125"/>
     <use xlink:href="#DejaVuSans-6d" x="181.933594"/>
     <use xlink:href="#DejaVuSans-61" x="279.345703"/>
     <use xlink:href="#DejaVuSans-2d" x="340.625"/>
     <use xlink:href="#DejaVuSans-30" x="376.708984"/>
    </g>
   </g>
   <g id="text_15">
    <!-- best 2009 -->
    <g transform="translate(386.578944 36.937045)scale(0.14 -0.14)">
     <defs>
      <path id="DejaVuSans-62" d="M 3116 1747 
Q 3116 2381 2855 2742 
Q 2594 3103 2138 3103 
Q 1681 3103 1420 2742 
Q 1159 2381 1159 1747 
Q 1159 1113 1420 752 
Q 1681 391 2138 391 
Q 2594 391 2855 752 
Q 3116 1113 3116 1747 
z
M 1159 2969 
Q 1341 3281 1617 3432 
Q 1894 3584 2278 3584 
Q 2916 3584 3314 3078 
Q 3713 2572 3713 1747 
Q 3713 922 3314 415 
Q 2916 -91 2278 -91 
Q 1894 -91 1617 61 
Q 1341 213 1159 525 
L 1159 0 
L 581 0 
L 581 4863 
L 1159 4863 
L 1159 2969 
z
" transform="scale(0.015625)"/>
      <path id="DejaVuSans-39" d="M 703 97 
L 703 672 
Q 941 559 1184 500 
Q 1428 441 1663 441 
Q 2288 441 2617 861 
Q 2947 1281 2994 2138 
Q 2813 1869 2534 1725 
Q 2256 1581 1919 1581 
Q 1219 1581 811 2004 
Q 403 2428 403 3163 
Q 403 3881 828 4315 
Q 1253 4750 1959 4750 
Q 2769 4750 3195 4129 
Q 3622 3509 3622 2328 
Q 3622 1225 3098 567 
Q 2575 -91 1691 -91 
Q 1453 -91 1209 -44 
Q 966 3 703 97 
z
M 1959 2075 
Q 2384 2075 2632 2365 
Q 2881 2656 2881 3163 
Q 2881 3666 2632 3958 
Q 2384 4250 1959 4250 
Q 1534 4250 1286 3958 
Q 1038 3666 1038 3163 
Q 1038 2656 1286 2365 
Q 1534 2075 1959 2075 
z
" transform="scale(0.015625)"/>
     </defs>
     <use xlink:href="#DejaVuSans-62"/>
     <use xlink:href="#DejaVuSans-65" x="63.476562"/>
     <use xlink:href="#DejaVuSans-73" x="125"/>
     <use xlink:href="#DejaVuSans-74" x="177.099609"/>
     <use xlink:href="#DejaVuSans-20" x="216.308594"/>
     <use xlink:href="#DejaVuSans-32" x="248.095703"/>
     <use xlink:href="#DejaVuSans-30" x="311.71875"/>
     <use xlink:href="#DejaVuSans-30" x="375.341797"/>
     <use xlink:href="#DejaVuSans-39" x="438.964844"/>
    </g>
   </g>
   <g id="text_16">
    <!-- bbob f4, 3-D -->
    <g transform="translate(60.632064 38.111366)scale(0.102 -0.102)">
     <defs>
      <path id="DejaVuSans-33" d="M 2597 2516 
Q 3050 2419 3304 2112 
Q 3559 1806 3559 1356 
Q 3559 666 3084 287 
Q 2609 -91 1734 -91 
Q 1441 -91 1130 -33 
Q 819 25 488 141 
L 488 750 
Q 750 597 1062 519 
Q 1375 441 1716 441 
Q 2309 441 2620 675 
Q 2931 909 2931 1356 
Q 2931 1769 2642 2001 
Q 2353 2234 1838 2234 
L 1294 2234 
L 1294 2753 
L 1863 2753 
Q 2328 2753 2575 2939 
Q 2822 3125 2822 3475 
Q 2822 3834 2567 4026 
Q 2313 4219 1838 4219 
Q 1578 4219 1281 4162 
Q 984 4106 628 3988 
L 628 4550 
Q 988 4650 1302 4700 
Q 1616 4750 1894 4750 
Q 2613 4750 3031 4423 
Q 3450 4097 3450 3541 
Q 3450 3153 3228 2886 
Q 3006 2619 2597 2516 
z
" transform="scale(0.015625)"/>
      <path id="DejaVuSans-44" d="M 1259 4147 
L 1259 519 
L 2022 519 
Q 2988 519 3436 956 
Q 3884 1394 3884 2338 
Q 3884 3275 3436 3711 
Q 2988 4147 2022 4147 
L 1259 4147 
z
M 628 4666 
L 1925 4666 
Q 3281 4666 3915 4102 
Q 4550 3538 4550 2338 
Q 4550 1131 3912 565 
Q 3275 0 1925 0 
L 628 0 
L 628 4666 
z
" transform="scale(0.015625)"/>
     </defs>
     <use xlink:href="#DejaVuSans-62"/>
     <use xlink:href="#DejaVuSans-62" x="63.476562"/>
     <use xlink:href="#DejaVuSans-6f" x="126.953125"/>
     <use xlink:href="#DejaVuSans-62" x="188.134766"/>
     <use xlink:href="#DejaVuSans-20" x="251.611328"/>
     <use xlink:href="#DejaVuSans-66" x="283.398438"/>
     <use xlink:href="#DejaVuSans-34" x="318.603516"/>
     <use xlink:href="#DejaVuSans-2c" x="382.226562"/>
     <use xlink:href="#DejaVuSans-20" x="414.013672"/>
     <use xlink:href="#DejaVuSans-33" x="445.800781"/>
     <use xlink:href="#DejaVuSans-2d" x="509.423828"/>
     <use xlink:href="#DejaVuSans-44" x="545.507812"/>
    </g>
    <!-- 51 targets: 100..1e-08 -->
    <g transform="translate(60.632064 49.533135)scale(0.102 -0.102)">
     <defs>
      <path id="DejaVuSans-35" d="M 691 4666 
L 3169 4666 
L 3169 4134 
L 1269 4134 
L 1269 2991 
Q 1406 3038 1543 3061 
Q 1681 3084 1819 3084 
Q 2600 3084 3056 2656 
Q 3513 2228 3513 1497 
Q 3513 744 3044 326 
Q 2575 -91 1722 -91 
Q 1428 -91 1123 -41 
Q 819 9 494 109 
L 494 744 
Q 775 591 1075 516 
Q 1375 441 1709 441 
Q 2250 441 2565 725 
Q 2881 1009 2881 1497 
Q 2881 1984 2565 2268 
Q 2250 2553 1709 2553 
Q 1456 2553 1204 2497 
Q 953 2441 691 2322 
L 691 4666 
z
" transform="scale(0.015625)"/>
      <path id="DejaVuSans-3a" d="M 750 794 
L 1409 794 
L 1409 0 
L 750 0 
L 750 794 
z
M 750 3309 
L 1409 3309 
L 1409 2516 
L 750 2516 
L 750 3309 
z
" transform="scale(0.015625)"/>
     </defs>
     <use xlink:href="#DejaVuSans-35"/>
     <use xlink:href="#DejaVuSans-31" x="63.623047"/>
     <use xlink:href="#DejaVuSans-20" x="127.246094"/>
     <use xlink:href="#DejaVuSans-74" x="159.033203"/>
     <use xlink:href="#DejaVuSans-61" x="198.242188"/>
     <use xlink:href="#DejaVuSans-72" x="259.521484"/>
     <use xlink:href="#DejaVuSans-67" x="298.884766"/>
     <use xlink:href="#DejaVuSans-65" x="362.361328"/>
     <use xlink:href="#DejaVuSans-74" x="423.884766"/>
     <use xlink:href="#DejaVuSans-73" x="463.09375"/>
     <use xlink:href="#DejaVuSans-3a" x="515.193359"/>
     <use xlink:href="#DejaVuSans-20" x="548.884766"/>
     <use xlink:href="#DejaVuSans-31" x="580.671875"/>
     <use xlink:href="#DejaVuSans-30" x="644.294922"/>
     <use xlink:href="#DejaVuSans-30" x="707.917969"/>
     <use xlink:href="#DejaVuSans-2e" x="771.541016"/>
     <use xlink:href="#DejaVuSans-2e" x="803.328125"/>
     <use xlink:href="#DejaVuSans-31" x="835.115234"/>
     <use xlink:href="#DejaVuSans-65" x="898.738281"/>
     <use xlink:href="#DejaVuSans-2d" x="960.261719"/>
     <use xlink:href="#DejaVuSans-30" x="996.345703"/>
     <use xlink:href="#DejaVuSans-38" x="1059.96875"/>
    </g>
    <!-- 5, 15 instances -->
    <g transform="translate(60.632064 60.954904)scale(0.102 -0.102)">
     <use xlink:href="#DejaVuSans-35"/>
     <use xlink:href="#DejaVuSans-2c" x="63.623047"/>
     <use xlink:href="#DejaVuSans-20" x="95.410156"/>
     <use xlink:href="#DejaVuSans-31" x="127.197266"/>
     <use xlink:href="#DejaVuSans-35" x="190.820312"/>
     <use xlink:href="#DejaVuSans-20" x="254.443359"/>
     <use xlink:href="#DejaVuSans-69" x="286.230469"/>
     <use xlink:href="#DejaVuSans-6e" x="314.013672"/>
     <use xlink:href="#DejaVuSans-73" x="377.392578"/>
     <use xlink:href="#DejaVuSans-74" x="429.492188"/>
     <use xlink:href="#DejaVuSans-61" x="468.701172"/>
     <use xlink:href="#DejaVuSans-6e" x="529.980469"/>
     <use xlink:href="#DejaVuSans-63" x="593.359375"/>
     <use xlink:href="#DejaVuSans-65" x="648.339844"/>
     <use xlink:href="#DejaVuSans-73" x="709.863281"/>
    </g>
   </g>
   <g id="text_17">
    <!-- v2.6 -->
    <g style="fill: #808080" transform="translate(198.292262 294.151352)scale(0.1 -0.1)">
     <use xlink:href="#DejaVuSans-76"/>
     <use xlink:href="#DejaVuSans-32" x="59.179688"/>
     <use xlink:href="#DejaVuSans-2e" x="122.802734"/>
     <use xlink:href="#DejaVuSans-36" x="154.589844"/>
    </g>
   </g>
   <g id="text_18">
    <!-- 4 Skew Rastrigin-Bueche separ -->
    <g transform="translate(54.3282 21.648)scale(0.2 -0.2)">
     <defs>
      <path id="DejaVuSans-6b" d="M 581 4863 
L 1159 4863 
L 1159 1991 
L 2875 3500 
L 3609 3500 
L 1753 1863 
L 3688 0 
L 2938 0 
L 1159 1709 
L 1159 0 
L 581 0 
L 581 4863 
z
" transform="scale(0.015625)"/>
      <path id="DejaVuSans-77" d="M 269 3500 
L 844 3500 
L 1563 769 
L 2278 3500 
L 2956 3500 
L 3675 769 
L 4391 3500 
L 4966 3500 
L 4050 0 
L 3372 0 
L 2619 2869 
L 1863 0 
L 1184 0 
L 269 3500 
z
" transform="scale(0.015625)"/>
      <path id="DejaVuSans-52" d="M 2841 2188 
Q 3044 2119 3236 1894 
Q 3428 1669 3622 1275 
L 4263 0 
L 3584 0 
L 2988 1197 
Q 2756 1666 2539 1819 
Q 2322 1972 1947 1972 
L 1259 1972 
L 1259 0 
L 628 0 
L 628 4666 
L 2053 4666 
Q 2853 4666 3247 4331 
Q 3641 3997 3641 3322 
Q 3641 2881 3436 2590 
Q 3231 2300 2841 2188 
z
M 1259 4147 
L 1259 2491 
L 2053 2491 
Q 2509 2491 2742 2702 
Q 2975 2913 2975 3322 
Q 2975 3731 2742 3939 
Q 2509 4147 2053 4147 
L 1259 4147 
z
" transform="scale(0.015625)"/>
      <path id="DejaVuSans-42" d="M 1259 2228 
L 1259 519 
L 2272 519 
Q 2781 519 3026 730 
Q 3272 941 3272 1375 
Q 3272 1813 3026 2020 
Q 2781 2228 2272 2228 
L 1259 2228 
z
M 1259 4147 
L 1259 2741 
L 2194 2741 
Q 2656 2741 2882 2914 
Q 3109 3088 3109 3444 
Q 3109 3797 2882 3972 
Q 2656 4147 2194 4147 
L 1259 4147 
z
M 628 4666 
L 2241 4666 
Q 2963 4666 3353 4366 
Q 3744 4066 3744 3513 
Q 3744 3084 3544 2831 
Q 3344 2578 2956 2516 
Q 3422 2416 3680 2098 
Q 3938 1781 3938 1306 
Q 3938 681 3513 340 
Q 3088 0 2303 0 
L 628 0 
L 628 4666 
z
" transform="scale(0.015625)"/>
      <path id="DejaVuSans-68" d="M 3513 2113 
L 3513 0 
L 2938 0 
L 2938 2094 
Q 2938 2591 2744 2837 
Q 2550 3084 2163 3084 
Q 1697 3084 1428 2787 
Q 1159 2491 1159 1978 
L 1159 0 
L 581 0 
L 581 4863 
L 1159 4863 
L 1159 2956 
Q 1366 3272 1645 3428 
Q 1925 3584 2291 3584 
Q 2894 3584 3203 3211 
Q 3513 2838 3513 2113 
z
" transform="scale(0.015625)"/>
     </defs>
     <use xlink:href="#DejaVuSans-34"/>
     <use xlink:href="#DejaVuSans-20" x="63.623047"/>
     <use xlink:href="#DejaVuSans-53" x="95.410156"/>
     <use xlink:href="#DejaVuSans-6b" x="158.886719"/>
     <use xlink:href="#DejaVuSans-65" x="213.171875"/>
     <use xlink:href="#DejaVuSans-77" x="274.695312"/>
     <use xlink:href="#DejaVuSans-20" x="356.482422"/>
     <use xlink:href="#DejaVuSans-52" x="388.269531"/>
     <use xlink:href="#DejaVuSans-61" x="455.501953"/>
     <use xlink:href="#DejaVuSans-73" x="516.78125"/>
     <use xlink:href="#DejaVuSans-74" x="568.880859"/>
     <use xlink:href="#DejaVuSans-72" x="608.089844"/>
     <use xlink:href="#DejaVuSans-69" x="649.203125"/>
     <use xlink:href="#DejaVuSans-67" x="676.986328"/>
     <use xlink:href="#DejaVuSans-69" x="740.462891"/>
     <use xlink:href="#DejaVuSans-6e" x="768.246094"/>
     <use xlink:href="#DejaVuSans-2d" x="831.625"/>
     <use xlink:href="#DejaVuSans-42" x="864.083984"/>
     <use xlink:href="#DejaVuSans-75" x="932.6875"/>
     <use xlink:href="#DejaVuSans-65" x="996.066406"/>
     <use xlink:href="#DejaVuSans-63" x="1057.589844"/>
     <use xlink:href="#DejaVuSans-68" x="1112.570312"/>
     <use xlink:href="#DejaVuSans-65" x="1175.949219"/>
     <use xlink:href="#DejaVuSans-20" x="1237.472656"/>
     <use xlink:href="#DejaVuSans-73" x="1269.259766"/>
     <use xlink:href="#DejaVuSans-65" x="1321.359375"/>
     <use xlink:href="#DejaVuSans-70" x="1382.882812"/>
     <use xlink:href="#DejaVuSans-61" x="1446.359375"/>
     <use xlink:href="#DejaVuSans-72" x="1507.638672"/>
    </g>
   </g>
  </g>
 </g>
 <defs>
  <clipPath id="p971e80afa8">
   <rect x="57.6" y="27.648" width="303.2064" height="271.296"/>
  </clipPath>
 </defs>
</svg>
