<?xml version="1.0" encoding="utf-8" standalone="no"?>
<!DOCTYPE svg PUBLIC "-//W3C//DTD SVG 1.1//EN"
  "http://www.w3.org/Graphics/SVG/1.1/DTD/svg11.dtd">
<svg xmlns:xlink="http://www.w3.org/1999/xlink" width="460.8pt" height="345.6pt" viewBox="0 0 460.8 345.6" xmlns="http://www.w3.org/2000/svg" version="1.1">
 <metadata>
  <rdf:RDF xmlns:dc="http://purl.org/dc/elements/1.1/" xmlns:cc="http://creativecommons.org/ns#" xmlns:rdf="http://www.w3.org/1999/02/22-rdf-syntax-ns#">
   <cc:Work>
    <dc:type rdf:resource="http://purl.org/dc/dcmitype/StillImage"/>
    <dc:date>2022-03-18T13:11:14.546576</dc:date>
    <dc:format>image/svg+xml</dc:format>
    <dc:creator>
     <cc:Agent>
      <dc:title>Matplotlib v3.5.1, https://matplotlib.org/</dc:title>
     </cc:Agent>
    </dc:creator>
   </cc:Work>
  </rdf:RDF>
 </metadata>
 <defs>
  <style type="text/css">*{stroke-linejoin: round; stroke-linecap: butt}</style>
 </defs>
 <g id="figure_1">
  <g id="patch_1">
   <path d="M 0 345.6 
L 460.8 345.6 
L 460.8 0 
L 0 0 
z
" style="fill: #ffffff"/>
  </g>
  <g id="axes_1">
   <g id="patch_2">
    <path d="M 57.6 298.944 
L 360.8064 298.944 
L 360.8064 6.912 
L 57.6 6.912 
z
" style="fill: #ffffff"/>
   </g>
   <g id="line2d_1">
    <path d="M 14.2848 298.944 
L 14.2848 292.072659 
L 27.323974 292.072659 
L 27.323974 290.927435 
L 34.951403 290.927435 
L 34.951403 289.782212 
L 40.363149 289.782212 
L 40.363149 288.636988 
L 57.6 288.636988 
L 57.6 287.491765 
L 68.65718 287.491765 
L 68.65718 286.346541 
L 78.266603 286.346541 
L 78.266603 281.765647 
L 78.88343 281.765647 
L 78.88343 278.329976 
L 79.480672 278.329976 
L 79.480672 276.039529 
L 83.678349 276.039529 
L 83.678349 274.894306 
L 85.038813 274.894306 
L 85.038813 273.749082 
L 86.307488 273.749082 
L 86.307488 272.603859 
L 90.007914 272.603859 
L 90.007914 271.458635 
L 91.922605 271.458635 
L 91.922605 270.313412 
L 93.098709 270.313412 
L 93.098709 269.168188 
L 95.998523 269.168188 
L 95.998523 268.022965 
L 100.535156 268.022965 
L 100.535156 266.877741 
L 104.655893 266.877741 
L 104.655893 265.732518 
L 105.850679 265.732518 
L 105.850679 264.587294 
L 109.159456 264.587294 
L 109.159456 263.442071 
L 109.990385 263.442071 
L 109.990385 262.296847 
L 118.000953 262.296847 
L 118.000953 261.151624 
L 124.101572 261.151624 
L 124.101572 260.0064 
L 134.495147 260.0064 
L 134.495147 258.861176 
L 135.568632 258.861176 
L 135.568632 257.715953 
L 135.805631 257.715953 
L 135.805631 256.570729 
L 139.289277 256.570729 
L 139.289277 255.425506 
L 140.312801 255.425506 
L 140.312801 254.280282 
L 141.371301 254.280282 
L 141.371301 253.135059 
L 142.559347 253.135059 
L 142.559347 251.989835 
L 150.000827 251.989835 
L 150.000827 250.844612 
L 151.375128 250.844612 
L 151.375128 249.699388 
L 159.367841 249.699388 
L 159.367841 248.554165 
L 163.786321 248.554165 
L 163.85935 246.263718 
L 165.999046 246.263718 
L 165.999046 245.118494 
L 167.240447 245.118494 
L 167.240447 243.973271 
L 171.808687 243.973271 
L 171.916937 241.682824 
L 171.947136 241.682824 
L 171.977286 239.392376 
L 172.067447 239.392376 
L 172.118775 237.101929 
L 172.186995 237.101929 
L 172.229507 234.811482 
L 172.301557 234.811482 
L 172.301557 233.666259 
L 172.470008 233.666259 
L 172.524431 231.375812 
L 172.587032 231.375812 
L 172.587032 230.230588 
L 172.868238 230.230588 
L 172.958324 227.940141 
L 173.011355 227.940141 
L 173.011355 226.794918 
L 173.346455 226.794918 
L 173.442249 224.504471 
L 173.565266 224.504471 
L 173.565266 223.359247 
L 173.75417 223.359247 
L 173.75417 222.214024 
L 173.956698 222.214024 
L 173.956698 221.0688 
L 174.11486 221.0688 
L 174.20683 218.778353 
L 174.472534 218.778353 
L 174.472534 217.633129 
L 174.689881 217.633129 
L 174.782796 215.342682 
L 175.135386 215.342682 
L 175.135386 214.197459 
L 175.273147 214.197459 
L 175.273147 213.052235 
L 175.395557 213.052235 
L 175.395557 211.907012 
L 176.964669 211.907012 
L 176.964669 210.761788 
L 177.220434 210.761788 
L 177.308164 208.471341 
L 178.244035 208.471341 
L 178.244035 207.326118 
L 178.546935 207.326118 
L 178.546935 206.180894 
L 178.661917 206.180894 
L 178.71313 203.890447 
L 179.01159 203.890447 
L 179.111997 201.6 
L 179.311218 201.6 
L 179.311218 200.454776 
L 179.447692 200.454776 
L 179.447692 199.309553 
L 179.568815 199.309553 
L 179.568815 198.164329 
L 179.786028 198.164329 
L 179.871084 195.873882 
L 179.913468 195.873882 
L 179.913468 194.728659 
L 180.13513 194.728659 
L 180.13513 193.583435 
L 180.257464 193.583435 
L 180.285156 191.292988 
L 180.499771 191.292988 
L 180.59256 186.712094 
L 180.630634 186.712094 
L 180.630634 185.566871 
L 180.884301 185.566871 
L 180.916439 183.276424 
L 181.073658 183.276424 
L 181.073658 182.1312 
L 182.518663 182.1312 
L 182.604477 178.695529 
L 184.010964 178.695529 
L 184.031383 176.405082 
L 184.245576 176.405082 
L 184.326111 172.969412 
L 184.426297 172.969412 
L 184.426297 171.824188 
L 188.050439 171.824188 
L 188.147251 166.098071 
L 188.194562 166.098071 
L 188.207279 163.807624 
L 189.848033 163.807624 
L 189.934385 160.371953 
L 193.154769 160.371953 
L 193.235571 156.936282 
L 193.485521 156.936282 
L 193.521154 154.645835 
L 194.343604 154.645835 
L 194.343604 153.500612 
L 194.506724 153.500612 
L 194.600043 151.210165 
L 194.652977 151.210165 
L 194.652977 150.064941 
L 195.092594 150.064941 
L 195.092594 148.919718 
L 195.699831 148.919718 
L 195.699831 147.774494 
L 196.880259 147.774494 
L 196.880259 146.629271 
L 198.460108 146.629271 
L 198.460108 145.484047 
L 211.159254 145.484047 
L 211.159254 144.338824 
L 214.28699 144.338824 
L 214.28699 143.1936 
L 217.792633 143.1936 
L 217.792633 142.048376 
L 222.717414 142.048376 
L 222.717414 140.903153 
L 223.287002 140.903153 
L 223.287002 139.757929 
L 227.409742 139.757929 
L 227.409742 138.612706 
L 227.866315 138.612706 
L 227.866315 137.467482 
L 230.626269 137.467482 
L 230.626269 136.322259 
L 240.625603 136.322259 
L 240.625603 135.177035 
L 242.320904 135.177035 
L 242.40195 132.886588 
L 244.020452 132.886588 
L 244.073927 130.596141 
L 244.141556 130.596141 
L 244.226699 128.305694 
L 244.291203 128.305694 
L 244.397487 124.870024 
L 244.441953 124.870024 
L 244.544665 121.434353 
L 244.586881 121.434353 
L 244.672745 117.998682 
L 244.721699 117.998682 
L 244.817704 114.563012 
L 244.849656 114.563012 
L 244.940118 111.127341 
L 244.975328 111.127341 
L 245.054488 107.691671 
L 245.093546 107.691671 
L 245.177924 104.256 
L 245.235924 104.256 
L 245.33841 100.820329 
L 245.379232 100.820329 
L 245.379232 99.675106 
L 250.967407 99.675106 
L 250.967407 98.529882 
L 259.234423 98.529882 
L 259.234423 97.384659 
L 260.006044 97.384659 
L 260.006044 96.239435 
L 262.930032 96.239435 
L 262.930032 95.094212 
L 263.051535 95.094212 
L 263.051535 93.948988 
L 263.267303 93.948988 
L 263.369422 91.658541 
L 263.483181 91.658541 
L 263.577134 87.077647 
L 263.621033 87.077647 
L 263.712858 82.496753 
L 263.733319 82.496753 
L 263.813343 77.915859 
L 263.846502 77.915859 
L 263.924782 73.334965 
L 263.960076 73.334965 
L 264.063504 67.608847 
L 264.099826 67.608847 
L 264.194369 61.882729 
L 264.22664 61.882729 
L 264.325791 56.156612 
L 264.348832 56.156612 
L 264.348832 55.011388 
L 272.290574 55.011388 
L 272.290574 53.866165 
L 275.003306 53.866165 
L 275.003306 52.720941 
L 295.75262 52.720941 
L 295.75262 51.575718 
L 304.359925 51.575718 
L 304.359925 50.430494 
L 327.888075 50.430494 
L 327.888075 49.285271 
L 355.331455 49.285271 
L 355.339539 6.912 
L 360.8064 6.912 
L 360.8064 6.912 
" style="fill: none; stroke: #f5deb3; stroke-width: 4; stroke-linecap: square"/>
   </g>
   <g id="line2d_2">
    <defs>
     <path id="maf8e90994c" d="M -0 7.778175 
L 7.778175 0 
L 0 -7.778175 
L -7.778175 -0 
z
" style="stroke: #f5deb3; stroke-width: 1.5; stroke-linejoin: miter"/>
    </defs>
    <g>
     <use xlink:href="#maf8e90994c" x="134.495147" y="260.0064" style="fill: #f5deb3; stroke: #f5deb3; stroke-width: 1.5; stroke-linejoin: miter"/>
     <use xlink:href="#maf8e90994c" x="184.426297" y="171.824188" style="fill: #f5deb3; stroke: #f5deb3; stroke-width: 1.5; stroke-linejoin: miter"/>
     <use xlink:href="#maf8e90994c" x="263.621033" y="85.932424" style="fill: #f5deb3; stroke: #f5deb3; stroke-width: 1.5; stroke-linejoin: miter"/>
     <use xlink:href="#maf8e90994c" x="355.33289" y="41.268706" style="fill: #f5deb3; stroke: #f5deb3; stroke-width: 1.5; stroke-linejoin: miter"/>
     <use xlink:href="#maf8e90994c" x="355.339539" y="6.912" style="fill: #f5deb3; stroke: #f5deb3; stroke-width: 1.5; stroke-linejoin: miter"/>
     <use xlink:href="#maf8e90994c" x="360.8064" y="6.912" style="fill: #f5deb3; stroke: #f5deb3; stroke-width: 1.5; stroke-linejoin: miter"/>
    </g>
   </g>
   <g id="line2d_3">
    <path style="fill: none; stroke: #f5deb3; stroke-width: 4; stroke-linecap: square"/>
    <g/>
   </g>
   <g id="line2d_4">
    <path d="M 360.8064 6.912 
L 380.514816 12.75264 
" style="fill: none; stroke: #f5deb3; stroke-width: 4; stroke-linecap: square"/>
    <g>
     <use xlink:href="#maf8e90994c" x="360.8064" y="6.912" style="fill: #f5deb3; stroke: #f5deb3; stroke-width: 1.5; stroke-linejoin: miter"/>
     <use xlink:href="#maf8e90994c" x="380.514816" y="12.75264" style="fill: #f5deb3; stroke: #f5deb3; stroke-width: 1.5; stroke-linejoin: miter"/>
    </g>
   </g>
   <g id="matplotlib.axis_1">
    <g id="xtick_1">
     <g id="line2d_5">
      <path d="M 57.6 298.944 
L 57.6 6.912 
" clip-path="url(#p83ba1c8551)" style="fill: none; stroke: #b0b0b0; stroke-width: 0.8; stroke-linecap: square"/>
     </g>
     <g id="line2d_6">
      <defs>
       <path id="mdf8447f2e4" d="M 0 0 
L 0 3.5 
" style="stroke: #000000; stroke-width: 0.8"/>
      </defs>
      <g>
       <use xlink:href="#mdf8447f2e4" x="57.6" y="298.944" style="stroke: #000000; stroke-width: 0.8"/>
      </g>
     </g>
     <g id="text_1">
      <!-- 0 -->
      <g transform="translate(52.191875 318.861344)scale(0.17 -0.17)">
       <defs>
        <path id="DejaVuSans-30" d="M 2034 4250 
Q 1547 4250 1301 3770 
Q 1056 3291 1056 2328 
Q 1056 1369 1301 889 
Q 1547 409 2034 409 
Q 2525 409 2770 889 
Q 3016 1369 3016 2328 
Q 3016 3291 2770 3770 
Q 2525 4250 2034 4250 
z
M 2034 4750 
Q 2819 4750 3233 4129 
Q 3647 3509 3647 2328 
Q 3647 1150 3233 529 
Q 2819 -91 2034 -91 
Q 1250 -91 836 529 
Q 422 1150 422 2328 
Q 422 3509 836 4129 
Q 1250 4750 2034 4750 
z
" transform="scale(0.015625)"/>
       </defs>
       <use xlink:href="#DejaVuSans-30"/>
      </g>
     </g>
    </g>
    <g id="xtick_2">
     <g id="line2d_7">
      <path d="M 144.2304 298.944 
L 144.2304 6.912 
" clip-path="url(#p83ba1c8551)" style="fill: none; stroke: #b0b0b0; stroke-width: 0.8; stroke-linecap: square"/>
     </g>
     <g id="line2d_8">
      <g>
       <use xlink:href="#mdf8447f2e4" x="144.2304" y="298.944" style="stroke: #000000; stroke-width: 0.8"/>
      </g>
     </g>
     <g id="text_2">
      <!-- 2 -->
      <g transform="translate(138.822275 318.861344)scale(0.17 -0.17)">
       <defs>
        <path id="DejaVuSans-32" d="M 1228 531 
L 3431 531 
L 3431 0 
L 469 0 
L 469 531 
Q 828 903 1448 1529 
Q 2069 2156 2228 2338 
Q 2531 2678 2651 2914 
Q 2772 3150 2772 3378 
Q 2772 3750 2511 3984 
Q 2250 4219 1831 4219 
Q 1534 4219 1204 4116 
Q 875 4013 500 3803 
L 500 4441 
Q 881 4594 1212 4672 
Q 1544 4750 1819 4750 
Q 2544 4750 2975 4387 
Q 3406 4025 3406 3419 
Q 3406 3131 3298 2873 
Q 3191 2616 2906 2266 
Q 2828 2175 2409 1742 
Q 1991 1309 1228 531 
z
" transform="scale(0.015625)"/>
       </defs>
       <use xlink:href="#DejaVuSans-32"/>
      </g>
     </g>
    </g>
    <g id="xtick_3">
     <g id="line2d_9">
      <path d="M 230.8608 298.944 
L 230.8608 6.912 
" clip-path="url(#p83ba1c8551)" style="fill: none; stroke: #b0b0b0; stroke-width: 0.8; stroke-linecap: square"/>
     </g>
     <g id="line2d_10">
      <g>
       <use xlink:href="#mdf8447f2e4" x="230.8608" y="298.944" style="stroke: #000000; stroke-width: 0.8"/>
      </g>
     </g>
     <g id="text_3">
      <!-- 4 -->
      <g transform="translate(225.452675 318.861344)scale(0.17 -0.17)">
       <defs>
        <path id="DejaVuSans-34" d="M 2419 4116 
L 825 1625 
L 2419 1625 
L 2419 4116 
z
M 2253 4666 
L 3047 4666 
L 3047 1625 
L 3713 1625 
L 3713 1100 
L 3047 1100 
L 3047 0 
L 2419 0 
L 2419 1100 
L 313 1100 
L 313 1709 
L 2253 4666 
z
" transform="scale(0.015625)"/>
       </defs>
       <use xlink:href="#DejaVuSans-34"/>
      </g>
     </g>
    </g>
    <g id="xtick_4">
     <g id="line2d_11">
      <path d="M 317.4912 298.944 
L 317.4912 6.912 
" clip-path="url(#p83ba1c8551)" style="fill: none; stroke: #b0b0b0; stroke-width: 0.8; stroke-linecap: square"/>
     </g>
     <g id="line2d_12">
      <g>
       <use xlink:href="#mdf8447f2e4" x="317.4912" y="298.944" style="stroke: #000000; stroke-width: 0.8"/>
      </g>
     </g>
     <g id="text_4">
      <!-- 6 -->
      <g transform="translate(312.083075 318.861344)scale(0.17 -0.17)">
       <defs>
        <path id="DejaVuSans-36" d="M 2113 2584 
Q 1688 2584 1439 2293 
Q 1191 2003 1191 1497 
Q 1191 994 1439 701 
Q 1688 409 2113 409 
Q 2538 409 2786 701 
Q 3034 994 3034 1497 
Q 3034 2003 2786 2293 
Q 2538 2584 2113 2584 
z
M 3366 4563 
L 3366 3988 
Q 3128 4100 2886 4159 
Q 2644 4219 2406 4219 
Q 1781 4219 1451 3797 
Q 1122 3375 1075 2522 
Q 1259 2794 1537 2939 
Q 1816 3084 2150 3084 
Q 2853 3084 3261 2657 
Q 3669 2231 3669 1497 
Q 3669 778 3244 343 
Q 2819 -91 2113 -91 
Q 1303 -91 875 529 
Q 447 1150 447 2328 
Q 447 3434 972 4092 
Q 1497 4750 2381 4750 
Q 2619 4750 2861 4703 
Q 3103 4656 3366 4563 
z
" transform="scale(0.015625)"/>
       </defs>
       <use xlink:href="#DejaVuSans-36"/>
      </g>
     </g>
    </g>
    <g id="xtick_5">
     <g id="line2d_13">
      <path d="M 100.9152 298.944 
L 100.9152 6.912 
" clip-path="url(#p83ba1c8551)" style="fill: none; stroke: #b0b0b0; stroke-width: 0.8; stroke-linecap: square"/>
     </g>
     <g id="line2d_14">
      <defs>
       <path id="mbf9542eb25" d="M 0 0 
L 0 2 
" style="stroke: #000000; stroke-width: 0.6"/>
      </defs>
      <g>
       <use xlink:href="#mbf9542eb25" x="100.9152" y="298.944" style="stroke: #000000; stroke-width: 0.6"/>
      </g>
     </g>
    </g>
    <g id="xtick_6">
     <g id="line2d_15">
      <path d="M 187.5456 298.944 
L 187.5456 6.912 
" clip-path="url(#p83ba1c8551)" style="fill: none; stroke: #b0b0b0; stroke-width: 0.8; stroke-linecap: square"/>
     </g>
     <g id="line2d_16">
      <g>
       <use xlink:href="#mbf9542eb25" x="187.5456" y="298.944" style="stroke: #000000; stroke-width: 0.6"/>
      </g>
     </g>
    </g>
    <g id="xtick_7">
     <g id="line2d_17">
      <path d="M 274.176 298.944 
L 274.176 6.912 
" clip-path="url(#p83ba1c8551)" style="fill: none; stroke: #b0b0b0; stroke-width: 0.8; stroke-linecap: square"/>
     </g>
     <g id="line2d_18">
      <g>
       <use xlink:href="#mbf9542eb25" x="274.176" y="298.944" style="stroke: #000000; stroke-width: 0.6"/>
      </g>
     </g>
    </g>
    <g id="xtick_8">
     <g id="line2d_19">
      <path d="M 360.8064 298.944 
L 360.8064 6.912 
" clip-path="url(#p83ba1c8551)" style="fill: none; stroke: #b0b0b0; stroke-width: 0.8; stroke-linecap: square"/>
     </g>
     <g id="line2d_20">
      <g>
       <use xlink:href="#mbf9542eb25" x="360.8064" y="298.944" style="stroke: #000000; stroke-width: 0.6"/>
      </g>
     </g>
    </g>
    <g id="text_5">
     <!-- log10(# f-evals / dimension) -->
     <g transform="translate(88.823278 339.314156)scale(0.17 -0.17)">
      <defs>
       <path id="DejaVuSans-6c" d="M 603 4863 
L 1178 4863 
L 1178 0 
L 603 0 
L 603 4863 
z
" transform="scale(0.015625)"/>
       <path id="DejaVuSans-6f" d="M 1959 3097 
Q 1497 3097 1228 2736 
Q 959 2375 959 1747 
Q 959 1119 1226 758 
Q 1494 397 1959 397 
Q 2419 397 2687 759 
Q 2956 1122 2956 1747 
Q 2956 2369 2687 2733 
Q 2419 3097 1959 3097 
z
M 1959 3584 
Q 2709 3584 3137 3096 
Q 3566 2609 3566 1747 
Q 3566 888 3137 398 
Q 2709 -91 1959 -91 
Q 1206 -91 779 398 
Q 353 888 353 1747 
Q 353 2609 779 3096 
Q 1206 3584 1959 3584 
z
" transform="scale(0.015625)"/>
       <path id="DejaVuSans-67" d="M 2906 1791 
Q 2906 2416 2648 2759 
Q 2391 3103 1925 3103 
Q 1463 3103 1205 2759 
Q 947 2416 947 1791 
Q 947 1169 1205 825 
Q 1463 481 1925 481 
Q 2391 481 2648 825 
Q 2906 1169 2906 1791 
z
M 3481 434 
Q 3481 -459 3084 -895 
Q 2688 -1331 1869 -1331 
Q 1566 -1331 1297 -1286 
Q 1028 -1241 775 -1147 
L 775 -588 
Q 1028 -725 1275 -790 
Q 1522 -856 1778 -856 
Q 2344 -856 2625 -561 
Q 2906 -266 2906 331 
L 2906 616 
Q 2728 306 2450 153 
Q 2172 0 1784 0 
Q 1141 0 747 490 
Q 353 981 353 1791 
Q 353 2603 747 3093 
Q 1141 3584 1784 3584 
Q 2172 3584 2450 3431 
Q 2728 3278 2906 2969 
L 2906 3500 
L 3481 3500 
L 3481 434 
z
" transform="scale(0.015625)"/>
       <path id="DejaVuSans-31" d="M 794 531 
L 1825 531 
L 1825 4091 
L 703 3866 
L 703 4441 
L 1819 4666 
L 2450 4666 
L 2450 531 
L 3481 531 
L 3481 0 
L 794 0 
L 794 531 
z
" transform="scale(0.015625)"/>
       <path id="DejaVuSans-28" d="M 1984 4856 
Q 1566 4138 1362 3434 
Q 1159 2731 1159 2009 
Q 1159 1288 1364 580 
Q 1569 -128 1984 -844 
L 1484 -844 
Q 1016 -109 783 600 
Q 550 1309 550 2009 
Q 550 2706 781 3412 
Q 1013 4119 1484 4856 
L 1984 4856 
z
" transform="scale(0.015625)"/>
       <path id="DejaVuSans-23" d="M 3272 2816 
L 2363 2816 
L 2100 1772 
L 3016 1772 
L 3272 2816 
z
M 2803 4594 
L 2478 3297 
L 3391 3297 
L 3719 4594 
L 4219 4594 
L 3897 3297 
L 4872 3297 
L 4872 2816 
L 3775 2816 
L 3519 1772 
L 4513 1772 
L 4513 1294 
L 3397 1294 
L 3072 0 
L 2572 0 
L 2894 1294 
L 1978 1294 
L 1656 0 
L 1153 0 
L 1478 1294 
L 494 1294 
L 494 1772 
L 1594 1772 
L 1856 2816 
L 850 2816 
L 850 3297 
L 1978 3297 
L 2297 4594 
L 2803 4594 
z
" transform="scale(0.015625)"/>
       <path id="DejaVuSans-20" transform="scale(0.015625)"/>
       <path id="DejaVuSans-66" d="M 2375 4863 
L 2375 4384 
L 1825 4384 
Q 1516 4384 1395 4259 
Q 1275 4134 1275 3809 
L 1275 3500 
L 2222 3500 
L 2222 3053 
L 1275 3053 
L 1275 0 
L 697 0 
L 697 3053 
L 147 3053 
L 147 3500 
L 697 3500 
L 697 3744 
Q 697 4328 969 4595 
Q 1241 4863 1831 4863 
L 2375 4863 
z
" transform="scale(0.015625)"/>
       <path id="DejaVuSans-2d" d="M 313 2009 
L 1997 2009 
L 1997 1497 
L 313 1497 
L 313 2009 
z
" transform="scale(0.015625)"/>
       <path id="DejaVuSans-65" d="M 3597 1894 
L 3597 1613 
L 953 1613 
Q 991 1019 1311 708 
Q 1631 397 2203 397 
Q 2534 397 2845 478 
Q 3156 559 3463 722 
L 3463 178 
Q 3153 47 2828 -22 
Q 2503 -91 2169 -91 
Q 1331 -91 842 396 
Q 353 884 353 1716 
Q 353 2575 817 3079 
Q 1281 3584 2069 3584 
Q 2775 3584 3186 3129 
Q 3597 2675 3597 1894 
z
M 3022 2063 
Q 3016 2534 2758 2815 
Q 2500 3097 2075 3097 
Q 1594 3097 1305 2825 
Q 1016 2553 972 2059 
L 3022 2063 
z
" transform="scale(0.015625)"/>
       <path id="DejaVuSans-76" d="M 191 3500 
L 800 3500 
L 1894 563 
L 2988 3500 
L 3597 3500 
L 2284 0 
L 1503 0 
L 191 3500 
z
" transform="scale(0.015625)"/>
       <path id="DejaVuSans-61" d="M 2194 1759 
Q 1497 1759 1228 1600 
Q 959 1441 959 1056 
Q 959 750 1161 570 
Q 1363 391 1709 391 
Q 2188 391 2477 730 
Q 2766 1069 2766 1631 
L 2766 1759 
L 2194 1759 
z
M 3341 1997 
L 3341 0 
L 2766 0 
L 2766 531 
Q 2569 213 2275 61 
Q 1981 -91 1556 -91 
Q 1019 -91 701 211 
Q 384 513 384 1019 
Q 384 1609 779 1909 
Q 1175 2209 1959 2209 
L 2766 2209 
L 2766 2266 
Q 2766 2663 2505 2880 
Q 2244 3097 1772 3097 
Q 1472 3097 1187 3025 
Q 903 2953 641 2809 
L 641 3341 
Q 956 3463 1253 3523 
Q 1550 3584 1831 3584 
Q 2591 3584 2966 3190 
Q 3341 2797 3341 1997 
z
" transform="scale(0.015625)"/>
       <path id="DejaVuSans-73" d="M 2834 3397 
L 2834 2853 
Q 2591 2978 2328 3040 
Q 2066 3103 1784 3103 
Q 1356 3103 1142 2972 
Q 928 2841 928 2578 
Q 928 2378 1081 2264 
Q 1234 2150 1697 2047 
L 1894 2003 
Q 2506 1872 2764 1633 
Q 3022 1394 3022 966 
Q 3022 478 2636 193 
Q 2250 -91 1575 -91 
Q 1294 -91 989 -36 
Q 684 19 347 128 
L 347 722 
Q 666 556 975 473 
Q 1284 391 1588 391 
Q 1994 391 2212 530 
Q 2431 669 2431 922 
Q 2431 1156 2273 1281 
Q 2116 1406 1581 1522 
L 1381 1569 
Q 847 1681 609 1914 
Q 372 2147 372 2553 
Q 372 3047 722 3315 
Q 1072 3584 1716 3584 
Q 2034 3584 2315 3537 
Q 2597 3491 2834 3397 
z
" transform="scale(0.015625)"/>
       <path id="DejaVuSans-2f" d="M 1625 4666 
L 2156 4666 
L 531 -594 
L 0 -594 
L 1625 4666 
z
" transform="scale(0.015625)"/>
       <path id="DejaVuSans-64" d="M 2906 2969 
L 2906 4863 
L 3481 4863 
L 3481 0 
L 2906 0 
L 2906 525 
Q 2725 213 2448 61 
Q 2172 -91 1784 -91 
Q 1150 -91 751 415 
Q 353 922 353 1747 
Q 353 2572 751 3078 
Q 1150 3584 1784 3584 
Q 2172 3584 2448 3432 
Q 2725 3281 2906 2969 
z
M 947 1747 
Q 947 1113 1208 752 
Q 1469 391 1925 391 
Q 2381 391 2643 752 
Q 2906 1113 2906 1747 
Q 2906 2381 2643 2742 
Q 2381 3103 1925 3103 
Q 1469 3103 1208 2742 
Q 947 2381 947 1747 
z
" transform="scale(0.015625)"/>
       <path id="DejaVuSans-69" d="M 603 3500 
L 1178 3500 
L 1178 0 
L 603 0 
L 603 3500 
z
M 603 4863 
L 1178 4863 
L 1178 4134 
L 603 4134 
L 603 4863 
z
" transform="scale(0.015625)"/>
       <path id="DejaVuSans-6d" d="M 3328 2828 
Q 3544 3216 3844 3400 
Q 4144 3584 4550 3584 
Q 5097 3584 5394 3201 
Q 5691 2819 5691 2113 
L 5691 0 
L 5113 0 
L 5113 2094 
Q 5113 2597 4934 2840 
Q 4756 3084 4391 3084 
Q 3944 3084 3684 2787 
Q 3425 2491 3425 1978 
L 3425 0 
L 2847 0 
L 2847 2094 
Q 2847 2600 2669 2842 
Q 2491 3084 2119 3084 
Q 1678 3084 1418 2786 
Q 1159 2488 1159 1978 
L 1159 0 
L 581 0 
L 581 3500 
L 1159 3500 
L 1159 2956 
Q 1356 3278 1631 3431 
Q 1906 3584 2284 3584 
Q 2666 3584 2933 3390 
Q 3200 3197 3328 2828 
z
" transform="scale(0.015625)"/>
       <path id="DejaVuSans-6e" d="M 3513 2113 
L 3513 0 
L 2938 0 
L 2938 2094 
Q 2938 2591 2744 2837 
Q 2550 3084 2163 3084 
Q 1697 3084 1428 2787 
Q 1159 2491 1159 1978 
L 1159 0 
L 581 0 
L 581 3500 
L 1159 3500 
L 1159 2956 
Q 1366 3272 1645 3428 
Q 1925 3584 2291 3584 
Q 2894 3584 3203 3211 
Q 3513 2838 3513 2113 
z
" transform="scale(0.015625)"/>
       <path id="DejaVuSans-29" d="M 513 4856 
L 1013 4856 
Q 1481 4119 1714 3412 
Q 1947 2706 1947 2009 
Q 1947 1309 1714 600 
Q 1481 -109 1013 -844 
L 513 -844 
Q 928 -128 1133 580 
Q 1338 1288 1338 2009 
Q 1338 2731 1133 3434 
Q 928 4138 513 4856 
z
" transform="scale(0.015625)"/>
      </defs>
      <use xlink:href="#DejaVuSans-6c"/>
      <use xlink:href="#DejaVuSans-6f" x="27.783203"/>
      <use xlink:href="#DejaVuSans-67" x="88.964844"/>
      <use xlink:href="#DejaVuSans-31" x="152.441406"/>
      <use xlink:href="#DejaVuSans-30" x="216.064453"/>
      <use xlink:href="#DejaVuSans-28" x="279.6875"/>
      <use xlink:href="#DejaVuSans-23" x="318.701172"/>
      <use xlink:href="#DejaVuSans-20" x="402.490234"/>
      <use xlink:href="#DejaVuSans-66" x="434.277344"/>
      <use xlink:href="#DejaVuSans-2d" x="463.982422"/>
      <use xlink:href="#DejaVuSans-65" x="500.066406"/>
      <use xlink:href="#DejaVuSans-76" x="561.589844"/>
      <use xlink:href="#DejaVuSans-61" x="620.769531"/>
      <use xlink:href="#DejaVuSans-6c" x="682.048828"/>
      <use xlink:href="#DejaVuSans-73" x="709.832031"/>
      <use xlink:href="#DejaVuSans-20" x="761.931641"/>
      <use xlink:href="#DejaVuSans-2f" x="793.71875"/>
      <use xlink:href="#DejaVuSans-20" x="827.410156"/>
      <use xlink:href="#DejaVuSans-64" x="859.197266"/>
      <use xlink:href="#DejaVuSans-69" x="922.673828"/>
      <use xlink:href="#DejaVuSans-6d" x="950.457031"/>
      <use xlink:href="#DejaVuSans-65" x="1047.869141"/>
      <use xlink:href="#DejaVuSans-6e" x="1109.392578"/>
      <use xlink:href="#DejaVuSans-73" x="1172.771484"/>
      <use xlink:href="#DejaVuSans-69" x="1224.871094"/>
      <use xlink:href="#DejaVuSans-6f" x="1252.654297"/>
      <use xlink:href="#DejaVuSans-6e" x="1313.835938"/>
      <use xlink:href="#DejaVuSans-29" x="1377.214844"/>
     </g>
    </g>
   </g>
   <g id="matplotlib.axis_2">
    <g id="ytick_1">
     <g id="line2d_21">
      <path d="M 57.6 298.944 
L 360.8064 298.944 
" clip-path="url(#p83ba1c8551)" style="fill: none; stroke: #b0b0b0; stroke-width: 0.8; stroke-linecap: square"/>
     </g>
     <g id="line2d_22">
      <defs>
       <path id="m252f720910" d="M 0 0 
L -3.5 0 
" style="stroke: #000000; stroke-width: 0.8"/>
      </defs>
      <g>
       <use xlink:href="#m252f720910" x="57.6" y="298.944" style="stroke: #000000; stroke-width: 0.8"/>
      </g>
     </g>
     <g id="text_6">
      <!-- 0.0 -->
      <g transform="translate(25.155 305.02275)scale(0.16 -0.16)">
       <defs>
        <path id="DejaVuSans-2e" d="M 684 794 
L 1344 794 
L 1344 0 
L 684 0 
L 684 794 
z
" transform="scale(0.015625)"/>
       </defs>
       <use xlink:href="#DejaVuSans-30"/>
       <use xlink:href="#DejaVuSans-2e" x="63.623047"/>
       <use xlink:href="#DejaVuSans-30" x="95.410156"/>
      </g>
     </g>
    </g>
    <g id="ytick_2">
     <g id="line2d_23">
      <path d="M 57.6 240.5376 
L 360.8064 240.5376 
" clip-path="url(#p83ba1c8551)" style="fill: none; stroke: #b0b0b0; stroke-width: 0.8; stroke-linecap: square"/>
     </g>
     <g id="line2d_24">
      <g>
       <use xlink:href="#m252f720910" x="57.6" y="240.5376" style="stroke: #000000; stroke-width: 0.8"/>
      </g>
     </g>
     <g id="text_7">
      <!-- 0.2 -->
      <g transform="translate(25.155 246.61635)scale(0.16 -0.16)">
       <use xlink:href="#DejaVuSans-30"/>
       <use xlink:href="#DejaVuSans-2e" x="63.623047"/>
       <use xlink:href="#DejaVuSans-32" x="95.410156"/>
      </g>
     </g>
    </g>
    <g id="ytick_3">
     <g id="line2d_25">
      <path d="M 57.6 182.1312 
L 360.8064 182.1312 
" clip-path="url(#p83ba1c8551)" style="fill: none; stroke: #b0b0b0; stroke-width: 0.8; stroke-linecap: square"/>
     </g>
     <g id="line2d_26">
      <g>
       <use xlink:href="#m252f720910" x="57.6" y="182.1312" style="stroke: #000000; stroke-width: 0.8"/>
      </g>
     </g>
     <g id="text_8">
      <!-- 0.4 -->
      <g transform="translate(25.155 188.20995)scale(0.16 -0.16)">
       <use xlink:href="#DejaVuSans-30"/>
       <use xlink:href="#DejaVuSans-2e" x="63.623047"/>
       <use xlink:href="#DejaVuSans-34" x="95.410156"/>
      </g>
     </g>
    </g>
    <g id="ytick_4">
     <g id="line2d_27">
      <path d="M 57.6 123.7248 
L 360.8064 123.7248 
" clip-path="url(#p83ba1c8551)" style="fill: none; stroke: #b0b0b0; stroke-width: 0.8; stroke-linecap: square"/>
     </g>
     <g id="line2d_28">
      <g>
       <use xlink:href="#m252f720910" x="57.6" y="123.7248" style="stroke: #000000; stroke-width: 0.8"/>
      </g>
     </g>
     <g id="text_9">
      <!-- 0.6 -->
      <g transform="translate(25.155 129.80355)scale(0.16 -0.16)">
       <use xlink:href="#DejaVuSans-30"/>
       <use xlink:href="#DejaVuSans-2e" x="63.623047"/>
       <use xlink:href="#DejaVuSans-36" x="95.410156"/>
      </g>
     </g>
    </g>
    <g id="ytick_5">
     <g id="line2d_29">
      <path d="M 57.6 65.3184 
L 360.8064 65.3184 
" clip-path="url(#p83ba1c8551)" style="fill: none; stroke: #b0b0b0; stroke-width: 0.8; stroke-linecap: square"/>
     </g>
     <g id="line2d_30">
      <g>
       <use xlink:href="#m252f720910" x="57.6" y="65.3184" style="stroke: #000000; stroke-width: 0.8"/>
      </g>
     </g>
     <g id="text_10">
      <!-- 0.8 -->
      <g transform="translate(25.155 71.39715)scale(0.16 -0.16)">
       <defs>
        <path id="DejaVuSans-38" d="M 2034 2216 
Q 1584 2216 1326 1975 
Q 1069 1734 1069 1313 
Q 1069 891 1326 650 
Q 1584 409 2034 409 
Q 2484 409 2743 651 
Q 3003 894 3003 1313 
Q 3003 1734 2745 1975 
Q 2488 2216 2034 2216 
z
M 1403 2484 
Q 997 2584 770 2862 
Q 544 3141 544 3541 
Q 544 4100 942 4425 
Q 1341 4750 2034 4750 
Q 2731 4750 3128 4425 
Q 3525 4100 3525 3541 
Q 3525 3141 3298 2862 
Q 3072 2584 2669 2484 
Q 3125 2378 3379 2068 
Q 3634 1759 3634 1313 
Q 3634 634 3220 271 
Q 2806 -91 2034 -91 
Q 1263 -91 848 271 
Q 434 634 434 1313 
Q 434 1759 690 2068 
Q 947 2378 1403 2484 
z
M 1172 3481 
Q 1172 3119 1398 2916 
Q 1625 2713 2034 2713 
Q 2441 2713 2670 2916 
Q 2900 3119 2900 3481 
Q 2900 3844 2670 4047 
Q 2441 4250 2034 4250 
Q 1625 4250 1398 4047 
Q 1172 3844 1172 3481 
z
" transform="scale(0.015625)"/>
       </defs>
       <use xlink:href="#DejaVuSans-30"/>
       <use xlink:href="#DejaVuSans-2e" x="63.623047"/>
       <use xlink:href="#DejaVuSans-38" x="95.410156"/>
      </g>
     </g>
    </g>
    <g id="ytick_6">
     <g id="line2d_31">
      <path d="M 57.6 6.912 
L 360.8064 6.912 
" clip-path="url(#p83ba1c8551)" style="fill: none; stroke: #b0b0b0; stroke-width: 0.8; stroke-linecap: square"/>
     </g>
     <g id="line2d_32">
      <g>
       <use xlink:href="#m252f720910" x="57.6" y="6.912" style="stroke: #000000; stroke-width: 0.8"/>
      </g>
     </g>
     <g id="text_11">
      <!-- 1.0 -->
      <g transform="translate(25.155 12.99075)scale(0.16 -0.16)">
       <use xlink:href="#DejaVuSans-31"/>
       <use xlink:href="#DejaVuSans-2e" x="63.623047"/>
       <use xlink:href="#DejaVuSans-30" x="95.410156"/>
      </g>
     </g>
    </g>
    <g id="text_12">
     <!-- Fraction of function,target pairs -->
     <g transform="translate(17.619531 287.313)rotate(-90)scale(0.17 -0.17)">
      <defs>
       <path id="DejaVuSans-46" d="M 628 4666 
L 3309 4666 
L 3309 4134 
L 1259 4134 
L 1259 2759 
L 3109 2759 
L 3109 2228 
L 1259 2228 
L 1259 0 
L 628 0 
L 628 4666 
z
" transform="scale(0.015625)"/>
       <path id="DejaVuSans-72" d="M 2631 2963 
Q 2534 3019 2420 3045 
Q 2306 3072 2169 3072 
Q 1681 3072 1420 2755 
Q 1159 2438 1159 1844 
L 1159 0 
L 581 0 
L 581 3500 
L 1159 3500 
L 1159 2956 
Q 1341 3275 1631 3429 
Q 1922 3584 2338 3584 
Q 2397 3584 2469 3576 
Q 2541 3569 2628 3553 
L 2631 2963 
z
" transform="scale(0.015625)"/>
       <path id="DejaVuSans-63" d="M 3122 3366 
L 3122 2828 
Q 2878 2963 2633 3030 
Q 2388 3097 2138 3097 
Q 1578 3097 1268 2742 
Q 959 2388 959 1747 
Q 959 1106 1268 751 
Q 1578 397 2138 397 
Q 2388 397 2633 464 
Q 2878 531 3122 666 
L 3122 134 
Q 2881 22 2623 -34 
Q 2366 -91 2075 -91 
Q 1284 -91 818 406 
Q 353 903 353 1747 
Q 353 2603 823 3093 
Q 1294 3584 2113 3584 
Q 2378 3584 2631 3529 
Q 2884 3475 3122 3366 
z
" transform="scale(0.015625)"/>
       <path id="DejaVuSans-74" d="M 1172 4494 
L 1172 3500 
L 2356 3500 
L 2356 3053 
L 1172 3053 
L 1172 1153 
Q 1172 725 1289 603 
Q 1406 481 1766 481 
L 2356 481 
L 2356 0 
L 1766 0 
Q 1100 0 847 248 
Q 594 497 594 1153 
L 594 3053 
L 172 3053 
L 172 3500 
L 594 3500 
L 594 4494 
L 1172 4494 
z
" transform="scale(0.015625)"/>
       <path id="DejaVuSans-75" d="M 544 1381 
L 544 3500 
L 1119 3500 
L 1119 1403 
Q 1119 906 1312 657 
Q 1506 409 1894 409 
Q 2359 409 2629 706 
Q 2900 1003 2900 1516 
L 2900 3500 
L 3475 3500 
L 3475 0 
L 2900 0 
L 2900 538 
Q 2691 219 2414 64 
Q 2138 -91 1772 -91 
Q 1169 -91 856 284 
Q 544 659 544 1381 
z
M 1991 3584 
L 1991 3584 
z
" transform="scale(0.015625)"/>
       <path id="DejaVuSans-2c" d="M 750 794 
L 1409 794 
L 1409 256 
L 897 -744 
L 494 -744 
L 750 256 
L 750 794 
z
" transform="scale(0.015625)"/>
       <path id="DejaVuSans-70" d="M 1159 525 
L 1159 -1331 
L 581 -1331 
L 581 3500 
L 1159 3500 
L 1159 2969 
Q 1341 3281 1617 3432 
Q 1894 3584 2278 3584 
Q 2916 3584 3314 3078 
Q 3713 2572 3713 1747 
Q 3713 922 3314 415 
Q 2916 -91 2278 -91 
Q 1894 -91 1617 61 
Q 1341 213 1159 525 
z
M 3116 1747 
Q 3116 2381 2855 2742 
Q 2594 3103 2138 3103 
Q 1681 3103 1420 2742 
Q 1159 2381 1159 1747 
Q 1159 1113 1420 752 
Q 1681 391 2138 391 
Q 2594 391 2855 752 
Q 3116 1113 3116 1747 
z
" transform="scale(0.015625)"/>
      </defs>
      <use xlink:href="#DejaVuSans-46"/>
      <use xlink:href="#DejaVuSans-72" x="50.269531"/>
      <use xlink:href="#DejaVuSans-61" x="91.382812"/>
      <use xlink:href="#DejaVuSans-63" x="152.662109"/>
      <use xlink:href="#DejaVuSans-74" x="207.642578"/>
      <use xlink:href="#DejaVuSans-69" x="246.851562"/>
      <use xlink:href="#DejaVuSans-6f" x="274.634766"/>
      <use xlink:href="#DejaVuSans-6e" x="335.816406"/>
      <use xlink:href="#DejaVuSans-20" x="399.195312"/>
      <use xlink:href="#DejaVuSans-6f" x="430.982422"/>
      <use xlink:href="#DejaVuSans-66" x="492.164062"/>
      <use xlink:href="#DejaVuSans-20" x="527.369141"/>
      <use xlink:href="#DejaVuSans-66" x="559.15625"/>
      <use xlink:href="#DejaVuSans-75" x="594.361328"/>
      <use xlink:href="#DejaVuSans-6e" x="657.740234"/>
      <use xlink:href="#DejaVuSans-63" x="721.119141"/>
      <use xlink:href="#DejaVuSans-74" x="776.099609"/>
      <use xlink:href="#DejaVuSans-69" x="815.308594"/>
      <use xlink:href="#DejaVuSans-6f" x="843.091797"/>
      <use xlink:href="#DejaVuSans-6e" x="904.273438"/>
      <use xlink:href="#DejaVuSans-2c" x="967.652344"/>
      <use xlink:href="#DejaVuSans-74" x="999.439453"/>
      <use xlink:href="#DejaVuSans-61" x="1038.648438"/>
      <use xlink:href="#DejaVuSans-72" x="1099.927734"/>
      <use xlink:href="#DejaVuSans-67" x="1139.291016"/>
      <use xlink:href="#DejaVuSans-65" x="1202.767578"/>
      <use xlink:href="#DejaVuSans-74" x="1264.291016"/>
      <use xlink:href="#DejaVuSans-20" x="1303.5"/>
      <use xlink:href="#DejaVuSans-70" x="1335.287109"/>
      <use xlink:href="#DejaVuSans-61" x="1398.763672"/>
      <use xlink:href="#DejaVuSans-69" x="1460.042969"/>
      <use xlink:href="#DejaVuSans-72" x="1487.826172"/>
      <use xlink:href="#DejaVuSans-73" x="1528.939453"/>
     </g>
    </g>
   </g>
   <g id="line2d_33">
    <defs>
     <path id="m79db54d03b" d="M 0 1.5 
C 0.397805 1.5 0.77937 1.341951 1.06066 1.06066 
C 1.341951 0.77937 1.5 0.397805 1.5 0 
C 1.5 -0.397805 1.341951 -0.77937 1.06066 -1.06066 
C 0.77937 -1.341951 0.397805 -1.5 0 -1.5 
C -0.397805 -1.5 -0.77937 -1.341951 -1.06066 -1.06066 
C -1.341951 -0.77937 -1.5 -0.397805 -1.5 0 
C -1.5 0.397805 -1.341951 0.77937 -1.06066 1.06066 
C -0.77937 1.341951 -0.397805 1.5 0 1.5 
z
" style="stroke: #f5deb3"/>
    </defs>
    <g>
     <use xlink:href="#m79db54d03b" x="355.339539" y="6.912" style="fill: #f5deb3; stroke: #f5deb3"/>
     <use xlink:href="#m79db54d03b" x="355.339539" y="6.912" style="fill: #f5deb3; stroke: #f5deb3"/>
    </g>
   </g>
   <g id="line2d_34">
    <defs>
     <path id="m3a59b720f6" d="M 0 1.5 
C 0.397805 1.5 0.77937 1.341951 1.06066 1.06066 
C 1.341951 0.77937 1.5 0.397805 1.5 0 
C 1.5 -0.397805 1.341951 -0.77937 1.06066 -1.06066 
C 0.77937 -1.341951 0.397805 -1.5 0 -1.5 
C -0.397805 -1.5 -0.77937 -1.341951 -1.06066 -1.06066 
C -1.341951 -0.77937 -1.5 -0.397805 -1.5 0 
C -1.5 0.397805 -1.341951 0.77937 -1.06066 1.06066 
C -0.77937 1.341951 -0.397805 1.5 0 1.5 
z
" style="stroke: #000080"/>
    </defs>
    <g>
     <use xlink:href="#m3a59b720f6" x="330.625073" y="99.675106" style="fill: #000080; stroke: #000080"/>
     <use xlink:href="#m3a59b720f6" x="330.625073" y="99.675106" style="fill: #000080; stroke: #000080"/>
    </g>
   </g>
   <g id="line2d_35">
    <path d="M 14.2848 298.944 
L 14.2848 291.385525 
L 27.323974 291.385525 
L 27.323974 290.927435 
L 34.951403 290.927435 
L 34.951403 290.469346 
L 40.363149 290.469346 
L 40.363149 289.553167 
L 53.402323 289.553167 
L 53.402323 289.324122 
L 61.029752 289.324122 
L 61.029752 289.095078 
L 62.535479 289.095078 
L 62.535479 288.636988 
L 63.929565 288.636988 
L 63.929565 288.407944 
L 66.441498 288.407944 
L 66.441498 288.178899 
L 70.639174 288.178899 
L 70.639174 287.949854 
L 71.556993 287.949854 
L 71.556993 287.720809 
L 72.432107 287.720809 
L 72.432107 287.26272 
L 75.574654 287.26272 
L 75.574654 286.804631 
L 76.284608 286.804631 
L 76.284608 286.575586 
L 82.211771 286.575586 
L 82.211771 286.117496 
L 82.713442 286.117496 
L 82.713442 285.659407 
L 84.142855 285.659407 
L 84.142855 285.430362 
L 84.596168 285.430362 
L 84.596168 284.972273 
L 85.894031 284.972273 
L 85.894031 284.743228 
L 87.876026 284.743228 
L 87.876026 284.514184 
L 89.323782 284.514184 
L 89.323782 284.056094 
L 89.668958 284.056094 
L 89.668958 283.827049 
L 91.922605 283.827049 
L 91.922605 282.452781 
L 92.519847 282.452781 
L 92.519847 281.994692 
L 93.098709 281.994692 
L 93.098709 281.765647 
L 93.66029 281.765647 
L 93.66029 281.536602 
L 95.752617 281.536602 
L 95.752617 280.849468 
L 97.18203 280.849468 
L 97.18203 280.620424 
L 97.857967 280.620424 
L 97.857967 280.391379 
L 98.723018 280.391379 
L 98.723018 280.162334 
L 98.933205 280.162334 
L 98.933205 279.704245 
L 99.346662 279.704245 
L 99.346662 279.4752 
L 100.726138 279.4752 
L 100.726138 277.871887 
L 100.9152 277.871887 
L 100.9152 277.413798 
L 102.011329 277.413798 
L 102.011329 276.268574 
L 102.362957 276.268574 
L 102.362957 276.039529 
L 102.536336 276.039529 
L 102.536336 275.58144 
L 102.878374 275.58144 
L 102.878374 275.352395 
L 103.544339 275.352395 
L 103.544339 275.123351 
L 104.809458 275.123351 
L 104.809458 274.665261 
L 105.411479 274.665261 
L 105.411479 274.436216 
L 106.137884 274.436216 
L 106.137884 274.207172 
L 106.837279 274.207172 
L 106.837279 273.978127 
L 107.378656 273.978127 
L 107.378656 273.749082 
L 107.5116 273.749082 
L 107.5116 272.832904 
L 107.643612 272.832904 
L 107.643612 271.68768 
L 108.29012 271.68768 
L 108.29012 271.458635 
L 108.542628 271.458635 
L 108.542628 270.542456 
L 108.667622 270.542456 
L 108.667622 270.313412 
L 109.280431 270.313412 
L 109.280431 269.626278 
L 109.520071 269.626278 
L 109.520071 269.168188 
L 109.756698 269.168188 
L 109.756698 268.939144 
L 110.221204 268.939144 
L 110.221204 268.481054 
L 110.335561 268.481054 
L 110.335561 268.252009 
L 110.674517 268.252009 
L 110.674517 268.022965 
L 110.786158 268.022965 
L 110.786158 266.877741 
L 111.117162 266.877741 
L 111.117162 266.648696 
L 111.54963 266.648696 
L 111.54963 266.419652 
L 112.076599 266.419652 
L 112.180244 265.732518 
L 112.790402 265.732518 
L 112.790402 265.503473 
L 113.088217 265.503473 
L 113.186449 265.045384 
L 113.381389 265.045384 
L 113.381389 264.816339 
L 114.692177 264.816339 
L 114.692177 264.587294 
L 115.050503 264.587294 
L 115.050503 264.358249 
L 115.402131 264.358249 
L 115.402131 264.129205 
L 115.747307 264.129205 
L 115.747307 263.90016 
L 116.336531 263.90016 
L 116.336531 263.442071 
L 117.1475 263.442071 
L 117.1475 262.983981 
L 117.617813 262.983981 
L 117.695068 262.296847 
L 117.848632 262.296847 
L 117.848632 262.067802 
L 118.076654 262.067802 
L 118.076654 261.380668 
L 118.962067 261.380668 
L 118.962067 260.235445 
L 119.807672 260.235445 
L 119.876453 259.777355 
L 121.201758 259.777355 
L 121.201758 259.319266 
L 121.39274 259.319266 
L 121.39274 259.090221 
L 123.544976 259.090221 
L 123.544976 258.632132 
L 123.825333 258.632132 
L 123.825333 257.944998 
L 124.156336 257.944998 
L 124.156336 257.486908 
L 124.427792 257.486908 
L 124.427792 257.257864 
L 124.588805 257.257864 
L 124.588805 257.028819 
L 124.801367 257.028819 
L 124.801367 256.570729 
L 124.959227 256.570729 
L 124.959227 256.341685 
L 125.115773 256.341685 
L 125.167667 255.883595 
L 125.373824 255.883595 
L 125.373824 255.654551 
L 125.628382 255.654551 
L 125.628382 255.425506 
L 125.929373 255.425506 
L 125.929373 254.967416 
L 126.274549 254.967416 
L 126.274549 254.738372 
L 127.087372 254.738372 
L 127.087372 254.509327 
L 127.319904 254.509327 
L 127.319904 254.280282 
L 127.549596 254.280282 
L 127.549596 253.822193 
L 127.911368 253.822193 
L 127.911368 253.135059 
L 128.133992 253.135059 
L 128.133992 252.676969 
L 128.999044 252.676969 
L 128.999044 252.447925 
L 129.417095 252.447925 
L 129.417095 251.989835 
L 129.581749 251.989835 
L 129.581749 251.760791 
L 130.226319 251.760791 
L 130.226319 251.531746 
L 130.501519 251.531746 
L 130.579414 251.073656 
L 130.618241 251.073656 
L 130.618241 250.844612 
L 131.078016 250.844612 
L 131.078016 250.615567 
L 131.341119 250.615567 
L 131.341119 250.386522 
L 131.452761 250.386522 
L 131.452761 249.470344 
L 131.783764 249.470344 
L 131.783764 249.012254 
L 131.965169 249.012254 
L 131.965169 248.783209 
L 132.358208 248.783209 
L 132.428795 247.179896 
L 132.743202 247.179896 
L 132.743202 246.950852 
L 133.120474 246.950852 
L 133.120474 246.721807 
L 133.457005 246.721807 
L 133.457005 246.263718 
L 133.589949 246.263718 
L 133.656071 245.805628 
L 134.240933 245.805628 
L 134.240933 245.576584 
L 134.526683 245.576584 
L 134.526683 245.118494 
L 134.901055 245.118494 
L 134.901055 244.889449 
L 135.024208 244.889449 
L 135.116046 243.744226 
L 135.177024 243.744226 
L 135.268121 243.057092 
L 135.298389 243.057092 
L 135.388902 242.140913 
L 135.657857 242.140913 
L 135.657857 241.911868 
L 136.668697 241.911868 
L 136.668697 241.682824 
L 136.836659 241.682824 
L 136.864507 240.5376 
L 137.195511 240.5376 
L 137.304564 240.079511 
L 137.601239 240.079511 
L 137.627979 239.163332 
L 137.893309 239.163332 
L 137.893309 238.705242 
L 138.412998 238.705242 
L 138.412998 238.247153 
L 138.918715 238.247153 
L 138.968547 237.101929 
L 139.240288 237.101929 
L 139.338138 235.727661 
L 139.652679 235.727661 
L 139.652679 235.498616 
L 139.914782 235.498616 
L 139.914782 235.269572 
L 140.079694 235.269572 
L 140.079694 235.040527 
L 140.611586 235.040527 
L 140.702573 234.353393 
L 140.793122 234.353393 
L 140.883238 233.437214 
L 140.972924 233.437214 
L 140.972924 233.208169 
L 141.106655 233.208169 
L 141.106655 232.521035 
L 141.761416 232.521035 
L 141.761416 232.291991 
L 142.164612 232.291991 
L 142.164612 231.375812 
L 142.60042 231.375812 
L 142.60042 230.917722 
L 142.784148 230.917722 
L 142.804452 230.459633 
L 143.126369 230.459633 
L 143.126369 230.001544 
L 143.521169 230.001544 
L 143.521169 229.314409 
L 143.984246 229.314409 
L 143.984246 229.085365 
L 147.1517 229.085365 
L 147.1517 228.85632 
L 147.423525 228.85632 
L 147.423525 228.627275 
L 153.616527 228.627275 
L 153.616527 228.398231 
L 161.437128 228.398231 
L 161.437128 228.169186 
L 161.920743 228.169186 
L 161.920743 227.940141 
L 162.05979 227.940141 
L 162.05979 227.711096 
L 163.294355 227.711096 
L 163.294355 227.482052 
L 163.819551 227.482052 
L 163.819551 227.253007 
L 164.414303 227.253007 
L 164.414303 227.023962 
L 166.040396 227.023962 
L 166.040396 226.794918 
L 166.50663 226.794918 
L 166.50663 226.565873 
L 167.422255 226.565873 
L 167.422255 226.336828 
L 167.575151 226.336828 
L 167.575151 226.107784 
L 168.221954 226.107784 
L 168.221954 225.878739 
L 168.760648 225.878739 
L 168.760648 225.649694 
L 169.15478 225.649694 
L 169.234617 225.191605 
L 170.318152 225.191605 
L 170.318152 224.96256 
L 170.713514 224.96256 
L 170.713514 224.733515 
L 172.636963 224.733515 
L 172.719888 224.275426 
L 174.502663 224.275426 
L 174.502663 224.046381 
L 174.723384 224.046381 
L 174.723384 223.817336 
L 175.02225 223.817336 
L 175.02225 223.588292 
L 175.215265 223.588292 
L 175.215265 223.359247 
L 175.623838 223.359247 
L 175.623838 223.130202 
L 175.828352 223.130202 
L 175.828352 222.901158 
L 176.009838 222.901158 
L 176.009838 222.672113 
L 176.476377 222.672113 
L 176.476377 222.443068 
L 176.828821 222.443068 
L 176.828821 222.214024 
L 177.115925 222.214024 
L 177.115925 221.984979 
L 177.246471 221.984979 
L 177.295193 221.526889 
L 177.447043 221.526889 
L 177.447043 221.0688 
L 177.613631 221.0688 
L 177.718591 220.610711 
L 177.76927 220.610711 
L 177.83558 220.152621 
L 177.885946 220.152621 
L 177.885946 219.923576 
L 178.00815 219.923576 
L 178.054941 219.236442 
L 178.157474 219.236442 
L 178.157474 219.007398 
L 178.382322 219.007398 
L 178.4068 218.320264 
L 178.531754 218.320264 
L 178.531754 217.633129 
L 178.7762 217.633129 
L 178.836071 217.17504 
L 178.931471 217.17504 
L 178.946334 216.716951 
L 179.052999 216.716951 
L 179.132603 215.800772 
L 179.232368 215.800772 
L 179.270374 215.113638 
L 179.485266 215.113638 
L 179.594669 213.510325 
L 179.800231 213.510325 
L 179.800231 212.823191 
L 179.94449 212.823191 
L 179.995142 212.365101 
L 180.417516 212.365101 
L 180.417516 212.136056 
L 181.830435 212.136056 
L 181.830435 211.907012 
L 182.008023 211.907012 
L 182.008023 211.677967 
L 182.429987 211.677967 
L 182.429987 211.448922 
L 182.859594 211.448922 
L 182.859594 211.219878 
L 183.796364 211.219878 
L 183.796364 210.990833 
L 186.517221 210.990833 
L 186.517221 210.761788 
L 186.756108 210.761788 
L 186.756108 210.532744 
L 187.186659 210.532744 
L 187.240269 210.074654 
L 187.607576 210.074654 
L 187.607576 209.845609 
L 188.026617 209.845609 
L 188.026617 209.616565 
L 188.172741 209.616565 
L 188.172741 209.38752 
L 188.443701 209.38752 
L 188.443701 209.158475 
L 189.256266 209.158475 
L 189.256266 208.929431 
L 189.408518 208.929431 
L 189.408518 208.700386 
L 189.540946 208.700386 
L 189.540946 208.471341 
L 194.259536 208.471341 
L 194.355396 207.097073 
L 194.378958 207.097073 
L 194.453376 205.951849 
L 194.524906 205.951849 
L 194.615551 203.661402 
L 194.686468 203.661402 
L 194.769935 202.287134 
L 194.821116 202.287134 
L 194.909077 200.225732 
L 194.948463 200.225732 
L 195.026987 198.622419 
L 195.066126 198.622419 
L 195.159228 197.935285 
L 195.472865 197.935285 
L 195.52094 196.790061 
L 195.595889 196.790061 
L 195.661989 195.415793 
L 195.727857 195.415793 
L 195.812901 193.81248 
L 195.903594 193.81248 
L 195.997453 191.522033 
L 196.080094 191.522033 
L 196.184967 189.91872 
L 196.211094 189.91872 
L 196.259689 189.002541 
L 196.37769 189.002541 
L 196.37769 188.086362 
L 198.677876 188.086362 
L 198.788926 187.170184 
L 198.907553 187.170184 
L 198.913721 186.712094 
L 199.019304 186.712094 
L 199.041779 186.02496 
L 199.148677 186.02496 
L 199.217584 185.337826 
L 199.304371 185.337826 
L 199.39076 184.192602 
L 199.424804 184.192602 
L 199.512634 182.818334 
L 199.547453 182.818334 
L 199.635703 180.985976 
L 199.696936 180.985976 
L 199.780563 179.840753 
L 199.81587 179.840753 
L 199.924316 177.779351 
L 200.00015 177.779351 
L 200.041825 177.321261 
L 202.673784 177.321261 
L 202.673784 177.092216 
L 206.596577 177.092216 
L 206.596577 176.863172 
L 206.758501 176.863172 
L 206.758501 176.634127 
L 206.926429 176.634127 
L 207.0242 176.176038 
L 207.7732 176.176038 
L 207.863485 175.259859 
L 207.998422 175.259859 
L 207.998422 175.030814 
L 208.131768 175.030814 
L 208.131768 174.801769 
L 208.282302 174.801769 
L 208.282302 174.572725 
L 210.505201 174.572725 
L 210.569482 173.198456 
L 210.641261 173.198456 
L 210.726487 172.053233 
L 210.75554 172.053233 
L 210.843523 169.304696 
L 210.891983 169.304696 
L 210.996103 165.869026 
L 211.005294 165.869026 
L 211.018803 164.952847 
L 216.82977 164.952847 
L 216.82977 164.723802 
L 216.973187 164.723802 
L 216.973187 164.494758 
L 221.120812 164.494758 
L 221.120812 164.265713 
L 225.135691 164.265713 
L 225.135691 164.036668 
L 228.165667 164.036668 
L 228.165667 163.807624 
L 230.96529 163.807624 
L 230.995571 163.349534 
L 233.250911 163.349534 
L 233.347579 162.6624 
L 236.146795 162.6624 
L 236.146795 162.433355 
L 236.580358 162.433355 
L 236.580358 162.204311 
L 239.948057 162.204311 
L 239.990367 161.746221 
L 241.674473 161.746221 
L 241.699653 161.288132 
L 242.026668 161.288132 
L 242.135558 152.355388 
L 242.141548 152.355388 
L 242.141548 152.126344 
L 244.836595 152.126344 
L 244.861278 151.668254 
L 250.493394 151.668254 
L 250.493394 151.439209 
L 250.888559 151.439209 
L 250.941355 142.277421 
L 254.727405 142.277421 
L 254.727405 142.048376 
L 255.75941 142.048376 
L 255.867556 137.009393 
L 255.872036 137.009393 
L 255.910572 134.260856 
L 258.701531 134.260856 
L 258.812414 131.970409 
L 258.817607 131.970409 
L 258.896433 126.015247 
L 261.912647 126.015247 
L 261.949328 125.099068 
L 262.991052 125.099068 
L 262.991052 124.870024 
L 267.630702 124.870024 
L 267.630702 124.640979 
L 271.706244 124.640979 
L 271.706244 124.411934 
L 273.270109 124.411934 
L 273.270109 124.182889 
L 274.726019 124.106541 
L 274.726074 123.953845 
L 275.981429 123.953845 
L 275.981429 123.801148 
L 280.176553 123.801148 
L 280.217475 118.380424 
L 281.040793 118.304075 
L 281.085939 113.494136 
L 284.225817 113.494136 
L 284.225828 113.188744 
L 287.490229 113.112395 
L 287.49224 112.959699 
L 288.139612 112.883351 
L 288.139648 112.730654 
L 290.458231 112.654306 
L 290.476058 110.516555 
L 290.966751 110.440207 
L 290.984349 107.538974 
L 295.027902 107.462626 
L 295.027902 107.386278 
L 297.063122 107.309929 
L 297.078723 105.55392 
L 297.431977 105.477572 
L 297.438353 104.485045 
L 301.943309 104.408696 
L 301.956176 103.339821 
L 302.222484 103.339821 
L 302.233574 102.194598 
L 304.827376 102.118249 
L 304.827406 101.965553 
L 305.821485 101.889205 
L 305.824011 101.583812 
L 306.048449 101.507464 
L 306.051452 100.973026 
L 307.974724 100.896678 
L 307.974724 100.820329 
L 309.030437 100.743981 
L 309.031433 100.514936 
L 309.220839 100.438588 
L 309.220839 100.36224 
L 311.936392 100.285892 
L 311.936392 100.209544 
L 317.547049 100.133195 
L 317.547049 100.056847 
L 321.078379 99.980499 
L 321.078379 99.904151 
L 329.59496 99.827802 
L 329.59496 99.751454 
L 360.8064 99.675106 
L 360.8064 99.675106 
" style="fill: none; stroke: #000080; stroke-width: 1.5; stroke-linecap: square"/>
   </g>
   <g id="line2d_36">
    <defs>
     <path id="m51c987cce9" d="M 0 6 
C 1.591219 6 3.117479 5.367802 4.242641 4.242641 
C 5.367802 3.117479 6 1.591219 6 0 
C 6 -1.591219 5.367802 -3.117479 4.242641 -4.242641 
C 3.117479 -5.367802 1.591219 -6 0 -6 
C -1.591219 -6 -3.117479 -5.367802 -4.242641 -4.242641 
C -5.367802 -3.117479 -6 -1.591219 -6 0 
C -6 1.591219 -5.367802 3.117479 -4.242641 4.242641 
C -3.117479 5.367802 -1.591219 6 0 6 
z
" style="stroke: #000080; stroke-width: 1.5"/>
    </defs>
    <g>
     <use xlink:href="#m51c987cce9" x="71.556993" y="287.949854" style="fill-opacity: 0; stroke: #000080; stroke-width: 1.5"/>
     <use xlink:href="#m51c987cce9" x="139.240288" y="236.64384" style="fill-opacity: 0; stroke: #000080; stroke-width: 1.5"/>
     <use xlink:href="#m51c987cce9" x="216.973187" y="164.723802" style="fill-opacity: 0; stroke: #000080; stroke-width: 1.5"/>
     <use xlink:href="#m51c987cce9" x="284.225828" y="113.188744" style="fill-opacity: 0; stroke: #000080; stroke-width: 1.5"/>
     <use xlink:href="#m51c987cce9" x="330.625073" y="99.675106" style="fill-opacity: 0; stroke: #000080; stroke-width: 1.5"/>
     <use xlink:href="#m51c987cce9" x="360.8064" y="99.675106" style="fill-opacity: 0; stroke: #000080; stroke-width: 1.5"/>
    </g>
   </g>
   <g id="line2d_37">
    <path style="fill: none; stroke: #000080; stroke-width: 1.5; stroke-linecap: square"/>
    <g/>
   </g>
   <g id="line2d_38">
    <path d="M 274.176169 124.182889 
" clip-path="url(#p83ba1c8551)" style="fill: none; stroke: #000080; stroke-width: 1.5; stroke-linecap: square"/>
    <defs>
     <path id="mea2292a21e" d="M -12 12 
L 12 -12 
M -12 -12 
L 12 12 
" style="stroke: #000080"/>
    </defs>
    <g clip-path="url(#p83ba1c8551)">
     <use xlink:href="#mea2292a21e" x="274.176169" y="124.182889" style="fill: #000080; stroke: #000080"/>
    </g>
   </g>
   <g id="line2d_39">
    <defs>
     <path id="m4cbba8f510" d="M 0 1.5 
C 0.397805 1.5 0.77937 1.341951 1.06066 1.06066 
C 1.341951 0.77937 1.5 0.397805 1.5 0 
C 1.5 -0.397805 1.341951 -0.77937 1.06066 -1.06066 
C 0.77937 -1.341951 0.397805 -1.5 0 -1.5 
C -0.397805 -1.5 -0.77937 -1.341951 -1.06066 -1.06066 
C -1.341951 -0.77937 -1.5 -0.397805 -1.5 0 
C -1.5 0.397805 -1.341951 0.77937 -1.06066 1.06066 
C -0.77937 1.341951 -0.397805 1.5 0 1.5 
z
" style="stroke: #ff00ff"/>
    </defs>
    <g>
     <use xlink:href="#m4cbba8f510" x="385.957785" y="49.285271" style="fill: #ff00ff; stroke: #ff00ff"/>
     <use xlink:href="#m4cbba8f510" x="385.957785" y="49.285271" style="fill: #ff00ff; stroke: #ff00ff"/>
    </g>
   </g>
   <g id="line2d_40">
    <path d="M 14.2848 298.944 
L 14.2848 291.385525 
L 27.323974 291.385525 
L 27.323974 290.698391 
L 34.951403 290.698391 
L 34.951403 290.545694 
L 40.363149 290.545694 
L 40.363149 290.087605 
L 44.560826 290.087605 
L 44.560826 289.85856 
L 47.990577 289.85856 
L 47.990577 289.476819 
L 55.618005 289.400471 
L 55.618005 289.324122 
L 59.392932 289.247774 
L 59.392932 288.942381 
L 62.535479 288.866033 
L 62.535479 288.56064 
L 65.227428 288.484292 
L 65.227428 288.255247 
L 69.674268 288.178899 
L 69.674268 288.102551 
L 73.268314 288.026202 
L 73.268314 287.720809 
L 74.836851 287.720809 
L 74.836851 287.415416 
L 76.96874 287.339068 
L 76.96874 287.26272 
L 78.266603 287.186372 
L 78.266603 287.033675 
L 80.059535 286.957327 
L 80.059535 286.880979 
L 81.166416 286.880979 
L 81.166416 286.728282 
L 82.713442 286.651934 
L 82.713442 286.117496 
L 84.142855 286.041148 
L 84.142855 285.888452 
L 85.038813 285.812104 
L 85.038813 285.735755 
L 85.894031 285.659407 
L 85.894031 285.506711 
L 87.495981 285.430362 
L 87.495981 285.201318 
L 88.248544 285.124969 
L 88.248544 284.972273 
L 89.323782 284.895925 
L 89.323782 284.819576 
L 91.305777 284.743228 
L 91.305777 284.66688 
L 91.616719 284.66688 
L 91.616719 284.208791 
L 92.519847 284.132442 
L 92.519847 284.056094 
L 93.098709 283.979746 
L 93.098709 283.36896 
L 93.934916 283.292612 
L 93.934916 283.063567 
L 94.735529 282.987219 
L 94.735529 282.452781 
L 95.998523 282.376433 
L 95.998523 282.300085 
L 96.241256 282.300085 
L 96.241256 281.994692 
L 96.480897 281.994692 
L 96.480897 281.841995 
L 96.95121 281.765647 
L 96.95121 281.689299 
L 97.18203 281.689299 
L 97.18203 281.536602 
L 97.857967 281.460254 
L 97.857967 281.231209 
L 98.077987 281.231209 
L 98.077987 281.078513 
L 98.723018 281.002165 
L 98.723018 280.849468 
L 99.346662 280.77312 
L 99.346662 280.696772 
L 99.950294 280.696772 
L 99.950294 280.009638 
L 100.9152 279.933289 
L 100.9152 279.551548 
L 101.287718 279.4752 
L 101.287718 279.246155 
L 101.471247 279.246155 
L 101.471247 279.093459 
L 102.011329 279.017111 
L 102.011329 278.100932 
L 102.362957 278.100932 
L 102.362957 277.261101 
L 102.708132 277.184753 
L 102.708132 277.108405 
L 102.878374 277.108405 
L 102.878374 276.955708 
L 103.047088 276.955708 
L 103.047088 276.497619 
L 103.380045 276.497619 
L 103.380045 276.039529 
L 103.544339 276.039529 
L 103.544339 275.657788 
L 103.868684 275.657788 
L 103.868684 275.428744 
L 104.344952 275.352395 
L 104.344952 275.276047 
L 104.809458 275.199699 
L 104.809458 274.741609 
L 105.559021 274.665261 
L 105.559021 274.512565 
L 105.99483 274.436216 
L 105.99483 274.130824 
L 106.137884 274.130824 
L 106.137884 273.978127 
L 106.279859 273.978127 
L 106.279859 273.596386 
L 106.560633 273.596386 
L 106.560633 273.367341 
L 106.699465 273.367341 
L 106.699465 273.214645 
L 107.378656 273.138296 
L 107.378656 273.061948 
L 107.774703 272.9856 
L 107.774703 272.603859 
L 108.034177 272.527511 
L 108.034177 272.145769 
L 108.29012 272.145769 
L 108.29012 271.916725 
L 108.416798 271.916725 
L 108.416798 271.611332 
L 108.915146 271.611332 
L 108.915146 271.382287 
L 109.037698 271.382287 
L 109.037698 271.153242 
L 109.159456 271.153242 
L 109.159456 271.000546 
L 109.400633 271.000546 
L 109.400633 270.237064 
L 109.520071 270.237064 
L 109.520071 270.008019 
L 109.990385 269.931671 
L 109.990385 269.855322 
L 110.221204 269.778974 
L 110.221204 269.168188 
L 110.335561 269.168188 
L 110.335561 268.557402 
L 110.449226 268.557402 
L 110.449226 268.404706 
L 110.674517 268.328358 
L 110.674517 268.252009 
L 110.786158 268.252009 
L 110.897141 268.022965 
L 111.334639 268.022965 
L 111.442442 267.79392 
L 111.762192 267.717572 
L 111.86758 267.335831 
L 111.97238 267.335831 
L 111.97238 267.183134 
L 112.283321 267.106786 
L 112.385837 266.954089 
L 113.186449 266.877741 
L 113.186449 266.725045 
L 113.57433 266.648696 
L 113.57433 266.572348 
L 113.860081 266.496 
L 113.860081 266.419652 
L 114.048198 266.419652 
L 114.141556 266.114259 
L 114.326893 266.037911 
L 114.326893 265.808866 
L 114.510421 265.808866 
L 114.601519 265.579821 
L 114.7824 265.579821 
L 114.7824 265.350776 
L 115.917548 265.274428 
L 115.917548 265.19808 
L 116.336531 265.19808 
L 116.419219 264.892687 
L 116.746385 264.892687 
L 116.746385 264.739991 
L 117.067958 264.663642 
L 117.067958 264.587294 
L 117.305581 264.510946 
L 117.305581 264.434598 
L 117.462345 264.434598 
L 117.462345 264.281901 
L 117.772007 264.205553 
L 117.772007 264.052856 
L 118.152051 263.976508 
L 118.152051 263.90016 
L 118.450653 263.823812 
L 118.524569 263.518419 
L 118.671535 263.518419 
L 118.74459 263.289374 
L 119.24818 263.213026 
L 119.24818 262.983981 
L 119.944983 262.983981 
L 119.944983 262.831285 
L 120.0813 262.831285 
L 120.149089 262.60224 
L 120.351004 262.525892 
L 120.351004 262.296847 
L 120.813877 262.220499 
L 120.813877 262.144151 
L 121.008818 262.067802 
L 121.008818 261.915106 
L 121.201758 261.838758 
L 121.201758 261.609713 
L 121.455972 261.533365 
L 121.455972 261.457016 
L 121.830966 261.380668 
L 121.892744 260.998927 
L 122.13785 260.922579 
L 122.13785 260.769882 
L 122.319605 260.769882 
L 122.319605 260.540838 
L 122.559246 260.464489 
L 122.559246 260.388141 
L 123.08753 260.311793 
L 123.08753 260.235445 
L 123.544976 260.159096 
L 123.544976 260.082748 
L 123.825333 260.082748 
L 123.825333 259.777355 
L 124.210942 259.701007 
L 124.210942 259.548311 
L 124.854134 259.471962 
L 124.854134 259.395614 
L 125.115773 259.319266 
L 125.115773 259.166569 
L 125.829577 259.090221 
L 125.879541 258.937525 
L 126.517282 258.861176 
L 126.517282 258.784828 
L 126.756923 258.70848 
L 126.756923 258.632132 
L 127.087372 258.555784 
L 127.087372 258.479435 
L 127.366067 258.403087 
L 127.366067 258.250391 
L 127.731351 258.174042 
L 127.731351 258.021346 
L 128.266313 257.944998 
L 128.310214 257.563256 
L 128.484801 257.563256 
L 128.528195 257.334212 
L 128.956723 257.334212 
L 128.956723 257.028819 
L 129.375706 257.028819 
L 129.375706 256.876122 
L 129.663538 256.799774 
L 129.744974 256.570729 
L 129.906795 256.494381 
L 129.947033 256.188988 
L 131.153565 256.11264 
L 131.228811 255.883595 
L 131.63737 255.883595 
L 131.63737 255.654551 
L 131.783764 255.654551 
L 131.783764 255.425506 
L 131.965169 255.425506 
L 132.073179 255.043765 
L 132.358208 254.967416 
L 132.358208 254.891068 
L 132.56918 254.81472 
L 132.56918 254.738372 
L 132.881269 254.662024 
L 132.915628 254.432979 
L 133.188264 254.432979 
L 133.188264 254.280282 
L 133.490329 254.203934 
L 133.523594 253.822193 
L 134.368469 253.745845 
L 134.368469 253.669496 
L 134.683578 253.593148 
L 134.683578 253.287755 
L 134.808158 253.287755 
L 134.808158 253.135059 
L 135.237805 253.135059 
L 135.237805 252.906014 
L 135.628162 252.829666 
L 135.628162 252.753318 
L 135.981441 252.676969 
L 135.981441 252.600621 
L 136.126705 252.524273 
L 136.126705 252.371576 
L 136.612375 252.371576 
L 136.612375 251.989835 
L 136.864507 251.913487 
L 136.864507 251.837139 
L 137.030737 251.760791 
L 137.140746 251.608094 
L 137.304564 251.531746 
L 137.304564 251.455398 
L 137.547645 251.455398 
L 137.654681 251.150005 
L 137.866944 251.073656 
L 137.866944 250.997308 
L 138.180913 250.997308 
L 138.180913 250.844612 
L 138.310202 250.844612 
L 138.335954 250.462871 
L 138.818654 250.386522 
L 138.818654 250.157478 
L 138.943648 250.157478 
L 139.018248 249.699388 
L 139.386872 249.62304 
L 139.386872 249.546692 
L 139.652679 249.470344 
L 139.652679 249.393995 
L 139.843661 249.393995 
L 139.843661 249.241299 
L 140.28962 249.164951 
L 140.382174 248.859558 
L 140.49723 248.783209 
L 140.49723 248.706861 
L 140.657135 248.706861 
L 140.657135 248.401468 
L 140.793122 248.401468 
L 140.838234 248.096075 
L 141.239443 248.019727 
L 141.239443 247.790682 
L 141.545685 247.714334 
L 141.610664 247.561638 
L 142.164612 247.485289 
L 142.269295 247.0272 
L 142.435586 246.950852 
L 142.435586 246.874504 
L 142.702713 246.798155 
L 142.763822 246.645459 
L 143.403597 246.569111 
L 143.462475 246.187369 
L 144.267986 246.111021 
L 144.267986 246.034673 
L 144.565997 245.958325 
L 144.565997 245.881976 
L 145.148219 245.805628 
L 145.148219 245.72928 
L 146.074567 245.652932 
L 146.074567 245.500235 
L 146.395851 245.423887 
L 146.395851 245.347539 
L 148.063382 245.271191 
L 148.063382 245.194842 
L 149.481565 245.118494 
L 149.481565 245.042146 
L 156.185481 244.965798 
L 156.185481 244.889449 
L 158.79555 244.813101 
L 158.79555 244.736753 
L 159.552023 244.660405 
L 159.552023 244.584056 
L 160.351247 244.507708 
L 160.351247 244.43136 
L 161.69908 244.355012 
L 161.69908 244.278664 
L 161.891338 244.202315 
L 161.994053 243.820574 
L 162.613005 243.744226 
L 162.704821 243.362485 
L 162.915008 243.286136 
L 162.970663 243.057092 
L 163.260183 243.057092 
L 163.260183 242.904395 
L 163.484578 242.828047 
L 163.491337 242.599002 
L 163.632702 242.599002 
L 163.639407 241.988216 
L 163.951887 241.988216 
L 163.997986 241.682824 
L 164.2138 241.606475 
L 164.317552 241.453779 
L 164.382108 241.377431 
L 164.382108 241.224734 
L 164.510559 241.224734 
L 164.612692 240.919341 
L 164.663551 240.919341 
L 164.733259 240.308555 
L 164.80901 240.232207 
L 164.897003 239.926814 
L 164.9471 239.850466 
L 165.046896 239.392376 
L 165.096597 239.316028 
L 165.170902 238.934287 
L 165.232599 238.934287 
L 165.238758 238.705242 
L 165.361509 238.705242 
L 165.385963 238.094456 
L 165.670946 238.018108 
L 165.743021 237.254626 
L 165.850619 237.178278 
L 165.957604 236.872885 
L 165.969454 236.872885 
L 166.028591 236.64384 
L 166.146311 236.567492 
L 166.251633 236.109402 
L 166.327333 236.033054 
L 166.344759 235.804009 
L 166.495114 235.804009 
L 166.575579 235.498616 
L 166.649989 235.498616 
L 166.735484 234.887831 
L 166.8036 234.887831 
L 166.899679 234.200696 
L 166.955967 234.124348 
L 166.955967 234.048 
L 167.15166 234.048 
L 167.251516 233.589911 
L 167.334325 233.589911 
L 167.444174 233.055473 
L 167.515233 232.979125 
L 167.553385 232.597384 
L 167.672789 232.521035 
L 167.742992 232.291991 
L 167.807563 232.215642 
L 167.89866 231.757553 
L 167.989318 231.757553 
L 168.095418 231.146767 
L 168.15352 231.146767 
L 168.216699 230.917722 
L 168.415377 230.841374 
L 168.519108 229.925195 
L 168.617126 229.925195 
L 168.704395 229.161713 
L 168.760648 229.161713 
L 168.857418 228.85632 
L 169.15978 228.779972 
L 169.244573 228.245534 
L 169.319074 228.169186 
L 169.408088 227.940141 
L 169.511408 227.940141 
L 169.594634 227.329355 
L 169.687218 227.253007 
L 169.721213 226.947614 
L 169.813178 226.947614 
L 169.909499 226.489525 
L 169.962267 226.489525 
L 170.010109 226.107784 
L 170.124436 226.031435 
L 170.138678 225.878739 
L 170.318152 225.802391 
L 170.374474 225.649694 
L 170.509894 225.573346 
L 170.602722 225.191605 
L 170.983137 225.191605 
L 171.078179 224.96256 
L 171.127772 224.886212 
L 171.141275 224.733515 
L 171.342661 224.733515 
L 171.342661 224.580819 
L 171.682333 224.504471 
L 171.682333 224.428122 
L 171.882365 224.351774 
L 171.882365 224.275426 
L 172.076012 224.199078 
L 172.169963 224.046381 
L 172.578697 223.970033 
L 172.578697 223.893685 
L 173.129118 223.817336 
L 173.221995 223.66464 
L 173.50981 223.588292 
L 173.608724 223.435595 
L 173.890727 223.359247 
L 173.910154 223.130202 
L 174.878944 223.053854 
L 174.95257 222.901158 
L 175.49934 222.824809 
L 175.49934 222.748461 
L 176.302778 222.672113 
L 176.302778 222.595765 
L 176.818842 222.519416 
L 176.818842 222.443068 
L 177.917356 222.36672 
L 177.917356 222.290372 
L 178.237865 222.290372 
L 178.237865 222.061327 
L 178.670965 222.061327 
L 178.698081 221.755934 
L 179.173747 221.755934 
L 179.264532 221.526889 
L 179.340338 221.450541 
L 179.340338 221.297845 
L 179.577437 221.221496 
L 179.577437 221.145148 
L 179.766126 221.0688 
L 179.876741 220.839755 
L 179.997952 220.763407 
L 180.101628 220.305318 
L 180.254692 220.228969 
L 180.293456 219.694532 
L 180.39277 219.618184 
L 180.39277 219.541835 
L 180.529841 219.541835 
L 180.608887 219.083746 
L 180.660496 219.083746 
L 180.660496 218.931049 
L 180.787556 218.931049 
L 180.886981 218.396612 
L 181.055074 218.396612 
L 181.055074 218.091219 
L 181.255873 218.014871 
L 181.308361 217.633129 
L 181.428529 217.633129 
L 181.428529 217.480433 
L 181.689715 217.404085 
L 181.735885 216.793299 
L 181.817686 216.793299 
L 181.817686 216.564254 
L 182.023168 216.487906 
L 182.083622 216.029816 
L 182.323518 216.029816 
L 182.323518 215.87712 
L 182.526034 215.800772 
L 182.526034 215.571727 
L 182.931853 215.495379 
L 182.931853 215.419031 
L 183.063612 215.419031 
L 183.063612 215.266334 
L 183.45578 215.189986 
L 183.514139 214.960941 
L 185.204877 214.884593 
L 185.204877 214.808245 
L 185.808643 214.731896 
L 185.808643 214.655548 
L 186.17841 214.5792 
L 186.194587 214.426504 
L 186.598507 214.350155 
L 186.598507 214.273807 
L 187.038437 214.197459 
L 187.038437 214.121111 
L 187.603826 214.044762 
L 187.603826 213.968414 
L 188.072402 213.892066 
L 188.172741 213.663021 
L 188.746144 213.586673 
L 188.746144 213.510325 
L 190.652806 213.433976 
L 190.762522 213.128584 
L 191.416903 213.052235 
L 191.514649 212.670494 
L 191.872257 212.594146 
L 191.973619 212.365101 
L 192.132017 212.288753 
L 192.139387 211.98336 
L 192.273006 211.907012 
L 192.300785 211.754315 
L 192.414397 211.754315 
L 192.414397 211.601619 
L 192.534544 211.525271 
L 192.626666 211.296226 
L 192.715481 211.219878 
L 192.715481 211.143529 
L 192.836566 211.067181 
L 192.836566 210.914485 
L 193.119833 210.838136 
L 193.156165 210.532744 
L 193.268905 210.456395 
L 193.336779 210.074654 
L 193.43332 209.998306 
L 193.447071 209.692913 
L 193.604491 209.616565 
L 193.691531 209.311172 
L 193.771416 209.234824 
L 193.771416 209.082127 
L 193.96364 209.005779 
L 194.070327 208.624038 
L 194.096904 208.547689 
L 194.096904 208.394993 
L 194.267433 208.394993 
L 194.352776 208.013252 
L 194.514518 207.936904 
L 194.571578 207.707859 
L 194.687755 207.631511 
L 194.789144 207.097073 
L 194.864511 207.020725 
L 194.973829 206.409939 
L 195.066126 206.333591 
L 195.150441 206.104546 
L 195.310476 206.028198 
L 195.367658 205.875501 
L 195.441983 205.875501 
L 195.539398 205.341064 
L 195.581168 205.264715 
L 195.581168 205.035671 
L 195.870995 204.959322 
L 195.870995 204.882974 
L 196.125452 204.806626 
L 196.125452 204.577581 
L 196.247849 204.577581 
L 196.338831 204.348536 
L 196.679913 204.272188 
L 196.758463 204.119492 
L 198.828207 204.043144 
L 198.828207 203.966795 
L 199.258 203.966795 
L 199.258 203.814099 
L 199.698908 203.737751 
L 199.698908 203.661402 
L 200.199931 203.585054 
L 200.223916 203.432358 
L 200.77568 203.356009 
L 200.77568 203.279661 
L 202.482588 203.203313 
L 202.482588 203.126965 
L 203.00584 203.050616 
L 203.071059 202.821572 
L 203.282491 202.745224 
L 203.282491 202.668875 
L 203.610472 202.592527 
L 203.692777 202.439831 
L 203.910777 202.363482 
L 203.972152 202.058089 
L 204.113028 201.981741 
L 204.181519 201.752696 
L 204.246665 201.752696 
L 204.316985 201.065562 
L 204.496612 201.065562 
L 204.567529 200.683821 
L 204.665456 200.683821 
L 204.731214 200.225732 
L 204.942047 200.149384 
L 205.051406 199.614946 
L 205.071423 199.614946 
L 205.176351 198.927812 
L 205.331922 198.851464 
L 205.441224 198.240678 
L 205.58021 198.164329 
L 205.625592 197.782588 
L 205.703136 197.70624 
L 205.811733 197.324499 
L 205.8949 197.248151 
L 205.932453 196.713713 
L 206.071383 196.637365 
L 206.149913 196.255624 
L 206.214176 196.255624 
L 206.299751 195.644838 
L 206.339969 195.644838 
L 206.387703 194.881355 
L 206.570594 194.805007 
L 206.661378 194.270569 
L 206.700151 194.270569 
L 206.725277 193.888828 
L 206.836244 193.888828 
L 206.912324 193.659784 
L 207.000808 193.583435 
L 207.000808 193.354391 
L 207.134751 193.278042 
L 207.1772 192.972649 
L 207.344075 192.972649 
L 207.344075 192.819953 
L 207.818076 192.743605 
L 207.818076 192.667256 
L 208.685272 192.590908 
L 208.685272 192.51456 
L 209.220576 192.438212 
L 209.307148 192.285515 
L 210.910463 192.209167 
L 210.910463 192.132819 
L 211.113091 192.056471 
L 211.160863 191.903774 
L 211.501915 191.827426 
L 211.501915 191.751078 
L 212.043139 191.674729 
L 212.043139 191.598381 
L 212.225883 191.522033 
L 212.274957 191.369336 
L 212.605502 191.292988 
L 212.658547 191.140292 
L 212.974691 191.063944 
L 212.974691 190.987595 
L 213.471429 190.911247 
L 213.471429 190.834899 
L 213.77151 190.758551 
L 213.77151 190.682202 
L 214.205548 190.605854 
L 214.205548 190.529506 
L 214.427657 190.529506 
L 214.498272 190.147765 
L 214.644057 190.071416 
L 214.644057 189.995068 
L 214.7843 189.995068 
L 214.887481 189.766024 
L 214.990537 189.689675 
L 214.990537 189.613327 
L 215.121716 189.536979 
L 215.197565 189.384282 
L 215.307113 189.307934 
L 215.307113 189.155238 
L 215.557017 189.078889 
L 215.644233 188.773496 
L 215.874713 188.697148 
L 215.955071 188.162711 
L 216.226488 188.086362 
L 216.231811 187.933666 
L 216.356268 187.933666 
L 216.356268 187.780969 
L 216.55652 187.704621 
L 216.612371 187.32288 
L 216.905763 187.32288 
L 216.905763 186.864791 
L 217.147134 186.864791 
L 217.228461 186.483049 
L 217.278483 186.406701 
L 217.381596 186.254005 
L 217.471119 186.177656 
L 217.471119 186.101308 
L 217.863341 186.02496 
L 217.863341 185.948612 
L 226.313767 185.872264 
L 226.313767 185.795915 
L 226.669706 185.719567 
L 226.669706 185.643219 
L 227.277523 185.566871 
L 227.277523 185.490522 
L 227.498798 185.414174 
L 227.595046 185.185129 
L 227.842257 185.108781 
L 227.842257 185.032433 
L 228.099773 184.956085 
L 228.099773 184.879736 
L 228.332736 184.803388 
L 228.412611 184.574344 
L 228.668195 184.497995 
L 228.755289 184.345299 
L 229.204955 184.268951 
L 229.204955 184.192602 
L 229.836593 184.116254 
L 229.836593 184.039906 
L 230.06915 183.963558 
L 230.06915 183.887209 
L 230.389548 183.810861 
L 230.452325 183.658165 
L 230.785781 183.581816 
L 230.785781 183.505468 
L 231.634022 183.42912 
L 231.667032 183.276424 
L 231.887767 183.200075 
L 231.996285 182.971031 
L 232.112807 182.894682 
L 232.196048 182.665638 
L 232.324574 182.589289 
L 232.411737 182.360245 
L 232.534156 182.283896 
L 232.589321 182.1312 
L 232.666896 182.054852 
L 232.772383 181.825807 
L 232.885561 181.749459 
L 232.991849 181.444066 
L 233.135249 181.367718 
L 233.222394 181.138673 
L 233.300877 181.062325 
L 233.386272 180.83328 
L 233.471609 180.756932 
L 233.560962 180.604235 
L 233.684731 180.604235 
L 233.684731 180.451539 
L 234.339554 180.375191 
L 234.339554 180.146146 
L 234.587919 180.146146 
L 234.601802 179.764405 
L 234.930424 179.688056 
L 234.994861 179.382664 
L 235.190446 179.306315 
L 235.190446 179.229967 
L 235.367149 179.153619 
L 235.446185 178.848226 
L 235.694712 178.771878 
L 235.793964 178.23744 
L 235.986755 178.161092 
L 235.986755 178.084744 
L 236.125905 178.084744 
L 236.125905 177.855699 
L 236.386855 177.779351 
L 236.466897 177.550306 
L 236.979982 177.473958 
L 236.979982 177.397609 
L 237.347722 177.321261 
L 237.347722 177.244913 
L 238.234322 177.168565 
L 238.31588 177.015868 
L 238.384731 176.93952 
L 238.494999 176.710475 
L 238.573065 176.634127 
L 238.681865 176.481431 
L 238.777324 176.405082 
L 238.88004 176.023341 
L 238.967533 175.946993 
L 239.045127 175.565252 
L 239.115369 175.488904 
L 239.222051 175.030814 
L 239.341319 174.954466 
L 239.447089 174.649073 
L 239.559139 174.572725 
L 239.634454 174.190984 
L 239.773998 174.114635 
L 239.865017 173.885591 
L 239.923091 173.809242 
L 239.968934 173.656546 
L 240.069513 173.580198 
L 240.155445 173.274805 
L 240.234473 173.198456 
L 240.319998 173.04576 
L 240.467552 172.969412 
L 240.467552 172.893064 
L 240.659155 172.816715 
L 240.7669 172.282278 
L 240.821926 172.205929 
L 240.925661 171.900536 
L 240.948782 171.900536 
L 241.000537 171.518795 
L 241.088446 171.442447 
L 241.167465 171.060706 
L 241.237378 170.984358 
L 241.332493 170.602616 
L 241.363625 170.526268 
L 241.445892 170.144527 
L 241.513178 170.068179 
L 241.586607 169.762786 
L 241.635472 169.686438 
L 241.742319 169.228348 
L 241.782889 169.152 
L 241.854226 168.846607 
L 241.953166 168.770259 
L 242.058851 168.541214 
L 242.117987 168.464866 
L 242.185698 168.312169 
L 242.298898 168.235821 
L 242.334299 168.006776 
L 242.816579 167.930428 
L 242.816579 167.85408 
L 243.463218 167.85408 
L 243.463218 167.625035 
L 243.675155 167.625035 
L 243.675155 167.243294 
L 245.743118 167.243294 
L 245.743118 167.014249 
L 246.12694 166.937901 
L 246.18109 166.708856 
L 246.331375 166.708856 
L 246.331375 166.55616 
L 246.545301 166.479812 
L 246.568413 166.250767 
L 246.691255 166.250767 
L 246.785889 165.792678 
L 247.173176 165.716329 
L 247.173176 165.563633 
L 247.362852 165.487285 
L 247.422847 165.181892 
L 247.756878 165.105544 
L 247.849896 164.876499 
L 249.478193 164.800151 
L 249.535651 164.647454 
L 249.869023 164.571106 
L 249.96091 164.418409 
L 250.449353 164.342061 
L 250.457718 164.189365 
L 251.378896 164.113016 
L 251.443378 163.96032 
L 251.725632 163.883972 
L 251.765238 163.654927 
L 252.039016 163.578579 
L 252.115505 163.273186 
L 252.251513 163.196838 
L 252.350147 162.891445 
L 252.390199 162.815096 
L 252.474998 162.6624 
L 252.527275 162.586052 
L 252.589604 162.280659 
L 252.703753 162.204311 
L 252.796709 161.746221 
L 252.820608 161.669873 
L 252.908213 161.135435 
L 252.951165 161.059087 
L 253.038165 160.295605 
L 253.091904 160.219256 
L 253.18756 158.997685 
L 253.219452 158.921336 
L 253.320392 158.005158 
L 253.343749 157.928809 
L 253.44482 156.707238 
L 253.463385 156.630889 
L 253.574223 155.103925 
L 253.590863 155.027576 
L 253.696932 153.882353 
L 253.71352 153.806005 
L 253.823842 152.355388 
L 253.828781 152.27904 
L 253.931369 150.904772 
L 253.94731 150.828424 
L 254.044539 149.301459 
L 254.07074 149.225111 
L 254.180355 147.469101 
L 254.196793 147.392753 
L 254.303893 145.407699 
L 254.320224 145.331351 
L 254.430548 143.880734 
L 254.435706 143.804386 
L 254.532641 142.353769 
L 254.552086 142.277421 
L 254.6557 140.903153 
L 254.678731 140.826805 
L 254.789298 139.757929 
L 254.793568 139.681581 
L 254.895183 138.307313 
L 254.916142 138.230965 
L 255.026837 137.085741 
L 255.041304 137.009393 
L 255.14387 135.864169 
L 255.167602 135.864169 
L 255.274057 135.024339 
L 255.290954 134.947991 
L 255.380986 134.337205 
L 255.422986 134.260856 
L 255.486192 133.573722 
L 255.577824 133.497374 
L 255.684 132.657544 
L 255.690937 132.657544 
L 255.780479 132.275802 
L 255.846336 132.199454 
L 255.897752 131.970409 
L 256.00229 131.894061 
L 256.078604 131.665016 
L 262.864832 131.588668 
L 262.89477 131.283275 
L 263.639618 131.206927 
L 263.712004 130.825186 
L 263.754249 130.748838 
L 263.86096 130.061704 
L 263.971568 129.985355 
L 263.971568 129.909007 
L 264.125456 129.832659 
L 264.21195 129.298221 
L 264.396222 129.221873 
L 264.504333 128.000301 
L 264.539846 127.923953 
L 264.611014 127.542212 
L 264.659121 127.465864 
L 264.750064 126.855078 
L 264.801441 126.778729 
L 264.900849 125.862551 
L 264.93064 125.786202 
L 265.029982 125.404461 
L 265.054316 125.328113 
L 265.164249 123.801148 
L 265.184406 123.7248 
L 265.285317 123.114014 
L 265.312457 123.037666 
L 265.408399 122.579576 
L 265.435961 122.503228 
L 265.536607 121.587049 
L 265.558927 121.510701 
L 265.665693 120.212781 
L 265.677784 120.136433 
L 265.774767 119.449299 
L 266.119708 119.372951 
L 266.177873 119.143906 
L 266.252751 119.067558 
L 266.362958 118.838513 
L 266.384319 118.762165 
L 266.427422 118.53312 
L 266.87941 118.456772 
L 266.949121 118.304075 
L 267.297405 118.227727 
L 267.383572 117.998682 
L 267.623001 117.922334 
L 267.632567 117.769638 
L 267.762877 117.693289 
L 267.837012 117.387896 
L 267.898516 117.311548 
L 267.974395 117.006155 
L 268.024055 116.929807 
L 268.09969 116.471718 
L 268.157675 116.471718 
L 268.172124 116.013628 
L 268.292333 115.93728 
L 268.386359 115.402842 
L 268.419649 115.326494 
L 268.520895 114.792056 
L 268.556281 114.715708 
L 268.65604 114.181271 
L 268.69573 114.104922 
L 268.783607 113.494136 
L 268.82588 113.417788 
L 268.911534 112.807002 
L 268.979426 112.730654 
L 269.064781 112.272565 
L 269.14309 112.196216 
L 269.241334 111.890824 
L 269.310387 111.814475 
L 269.376517 111.356386 
L 269.457555 111.280038 
L 269.534081 110.898296 
L 269.604109 110.821948 
L 269.691983 110.134814 
L 269.793845 110.058466 
L 269.889606 109.524028 
L 269.925506 109.44768 
L 270.033806 108.989591 
L 270.042713 108.989591 
L 270.120891 108.531501 
L 270.166017 108.455153 
L 270.269727 107.997064 
L 270.33059 107.920715 
L 270.391165 107.691671 
L 270.49115 107.615322 
L 270.505263 107.462626 
L 276.673325 107.386278 
L 276.755149 107.157233 
L 276.929992 107.080885 
L 277.037857 106.85184 
L 277.111066 106.775492 
L 277.176775 106.393751 
L 277.254766 106.317402 
L 277.36333 105.55392 
L 277.421898 105.477572 
L 277.474413 105.172179 
L 277.587731 105.095831 
L 277.646309 104.866786 
L 277.701072 104.790438 
L 277.806214 104.103304 
L 277.858658 104.026955 
L 277.939977 103.874259 
L 277.990653 103.797911 
L 278.09879 103.263473 
L 278.201161 103.187125 
L 278.239471 102.95808 
L 278.431062 102.881732 
L 278.494405 102.729035 
L 278.637809 102.652687 
L 278.670235 102.423642 
L 283.637393 102.347294 
L 283.637393 102.270946 
L 284.181673 102.194598 
L 284.279502 101.965553 
L 284.352571 101.889205 
L 284.428848 101.736508 
L 284.488928 101.66016 
L 284.589405 101.354767 
L 284.654322 101.278419 
L 284.763696 100.667633 
L 284.77202 100.591285 
L 284.88015 100.285892 
L 284.890657 100.209544 
L 284.951945 99.827802 
L 285.007969 99.751454 
L 285.094362 99.140668 
L 285.142425 99.06432 
L 285.235823 98.377186 
L 285.34141 98.300838 
L 285.434345 97.842748 
L 285.56049 97.7664 
L 285.609796 97.461007 
L 285.771777 97.384659 
L 285.771777 97.308311 
L 286.041584 97.231962 
L 286.102653 97.079266 
L 286.342338 97.002918 
L 286.342338 96.926569 
L 289.534552 96.850221 
L 289.590203 96.697525 
L 290.004671 96.621176 
L 290.103195 96.239435 
L 290.195418 96.163087 
L 290.297071 95.857694 
L 290.389637 95.781346 
L 290.496262 95.094212 
L 290.51399 95.017864 
L 290.619129 94.636122 
L 290.678678 94.559774 
L 290.749813 94.254381 
L 290.928502 94.178033 
L 290.928502 94.101685 
L 291.206436 94.025336 
L 291.233279 93.796292 
L 292.118661 93.719944 
L 292.18899 93.567247 
L 292.787162 93.490899 
L 292.859263 93.185506 
L 293.014247 93.109158 
L 293.024721 92.880113 
L 293.234629 92.803765 
L 293.333364 92.345675 
L 293.372086 92.269327 
L 293.448393 92.116631 
L 293.644766 92.040282 
L 293.715397 91.582193 
L 293.869199 91.505845 
L 293.962283 91.124104 
L 294.015151 91.047755 
L 294.107778 90.589666 
L 294.138776 90.513318 
L 294.170002 90.055228 
L 294.289111 89.97888 
L 294.397578 89.215398 
L 294.438959 89.139049 
L 294.544421 88.451915 
L 294.562085 88.375567 
L 294.663444 87.917478 
L 294.694273 87.841129 
L 294.800166 87.306692 
L 294.812712 87.230344 
L 294.916175 86.619558 
L 294.948807 86.543209 
L 295.022046 85.932424 
L 295.119128 85.856075 
L 295.218452 85.397986 
L 295.249356 85.321638 
L 295.356645 84.863548 
L 295.420389 84.7872 
L 295.524648 84.329111 
L 295.552366 84.252762 
L 295.634423 83.794673 
L 295.742079 83.718325 
L 295.742079 83.641976 
L 295.879625 83.565628 
L 295.971516 83.031191 
L 296.09949 82.954842 
L 296.190778 82.573101 
L 296.492044 82.496753 
L 296.585372 82.115012 
L 296.650356 82.038664 
L 296.751081 81.809619 
L 296.781436 81.733271 
L 296.78777 81.580574 
L 297.051918 81.504226 
L 297.052342 81.351529 
L 297.522285 81.275181 
L 297.60487 81.122485 
L 297.778156 81.046136 
L 297.888038 80.588047 
L 297.956016 80.511699 
L 298.055212 80.129958 
L 298.070731 80.053609 
L 298.149033 79.671868 
L 298.213093 79.59552 
L 298.278718 79.213779 
L 298.394213 79.137431 
L 298.465779 78.832038 
L 298.536847 78.755689 
L 298.640415 78.450296 
L 298.729676 78.373948 
L 298.737722 78.221252 
L 299.092343 78.144904 
L 299.092343 78.068555 
L 299.367871 77.992207 
L 299.379581 77.839511 
L 299.751143 77.763162 
L 299.770377 77.610466 
L 300.012545 77.534118 
L 300.02646 77.381421 
L 300.366802 77.305073 
L 300.436193 76.99968 
L 300.504583 76.923332 
L 300.590976 76.541591 
L 300.641519 76.465242 
L 300.743652 76.007153 
L 300.76999 75.930805 
L 300.836258 75.778108 
L 301.081088 75.70176 
L 301.147979 75.549064 
L 301.310629 75.472715 
L 301.419298 75.243671 
L 302.918527 75.167322 
L 302.947102 75.014626 
L 303.196028 74.938278 
L 303.294472 74.632885 
L 303.459479 74.556536 
L 303.562704 74.251144 
L 305.205366 74.174795 
L 305.25674 74.022099 
L 305.499946 73.945751 
L 305.578746 73.640358 
L 305.674765 73.564009 
L 305.690317 73.411313 
L 305.871481 73.334965 
L 305.929467 73.10592 
L 306.073013 73.029572 
L 306.103495 72.876875 
L 306.226151 72.800527 
L 306.226151 72.724179 
L 306.366239 72.647831 
L 306.366239 72.571482 
L 306.59362 72.495134 
L 306.689015 72.189741 
L 306.759171 72.113393 
L 306.759171 72.037045 
L 306.957726 71.960696 
L 307.022893 71.426259 
L 307.157896 71.349911 
L 307.264611 70.968169 
L 307.316932 70.891821 
L 307.391008 70.433732 
L 307.546108 70.357384 
L 307.647567 69.975642 
L 307.721123 69.899294 
L 307.824619 69.746598 
L 307.888999 69.670249 
L 307.975357 69.441205 
L 308.074328 69.364856 
L 308.165552 69.21216 
L 308.281561 69.135812 
L 308.310848 68.906767 
L 308.413042 68.830419 
L 308.477982 68.525026 
L 308.663157 68.448678 
L 308.760771 68.295981 
L 308.825439 68.219633 
L 308.829312 68.066936 
L 309.231931 67.990588 
L 309.321389 67.761544 
L 309.397301 67.685195 
L 309.451197 67.532499 
L 309.541601 67.456151 
L 309.541601 67.379802 
L 310.625529 67.303454 
L 310.718345 67.074409 
L 310.912626 66.998061 
L 310.939172 66.692668 
L 311.233949 66.61632 
L 311.233949 66.539972 
L 311.572507 66.463624 
L 311.673047 66.310927 
L 311.852667 66.234579 
L 311.852667 66.158231 
L 312.116774 66.081882 
L 312.219842 65.929186 
L 312.531816 65.852838 
L 312.608912 65.700141 
L 312.893957 65.623793 
L 312.916401 65.471096 
L 313.123586 65.394748 
L 313.123586 65.3184 
L 313.406918 65.242052 
L 313.460686 65.089355 
L 313.610674 65.013007 
L 313.610674 64.936659 
L 313.899016 64.860311 
L 314.002476 64.478569 
L 314.074716 64.402221 
L 314.17571 64.02048 
L 314.2353 63.944132 
L 314.34369 63.791435 
L 314.430222 63.715087 
L 314.532911 63.409694 
L 314.620946 63.333346 
L 314.728656 63.104301 
L 314.791084 63.027953 
L 314.841747 62.798908 
L 314.937461 62.72256 
L 315.01284 62.417167 
L 315.144336 62.340819 
L 315.223763 61.959078 
L 315.285397 61.882729 
L 315.394551 61.730033 
L 315.56121 61.653685 
L 315.653626 61.348292 
L 315.736714 61.271944 
L 315.805804 61.119247 
L 315.963747 61.042899 
L 315.963747 60.966551 
L 318.2417 60.890202 
L 318.2417 60.813854 
L 318.780602 60.737506 
L 318.780602 60.661158 
L 319.225107 60.584809 
L 319.304216 60.279416 
L 319.424175 60.203068 
L 319.474324 59.974024 
L 319.708908 59.897675 
L 319.802464 59.668631 
L 319.830278 59.592282 
L 319.918682 59.363238 
L 320.007125 59.286889 
L 320.066879 59.057845 
L 320.210663 58.981496 
L 320.278965 58.676104 
L 320.461096 58.599755 
L 320.54282 58.294362 
L 320.712975 58.218014 
L 320.801646 57.988969 
L 321.094329 57.912621 
L 321.094329 57.836273 
L 321.651906 57.759925 
L 321.651906 57.683576 
L 323.293371 57.607228 
L 323.387739 57.454532 
L 323.6631 57.378184 
L 323.6631 57.301835 
L 323.836807 57.225487 
L 323.893755 57.072791 
L 323.992237 56.996442 
L 323.992237 56.920094 
L 324.283642 56.843746 
L 324.382052 56.614701 
L 324.404599 56.538353 
L 324.404599 56.462005 
L 324.571209 56.385656 
L 324.678446 56.156612 
L 324.881083 56.080264 
L 324.914646 55.927567 
L 325.432259 55.851219 
L 325.432259 55.774871 
L 326.118689 55.698522 
L 326.118689 55.622174 
L 326.980563 55.545826 
L 327.032381 55.316781 
L 327.2052 55.240433 
L 327.298444 54.93504 
L 327.390279 54.858692 
L 327.49009 54.629647 
L 327.737908 54.553299 
L 327.737908 54.476951 
L 328.077433 54.400602 
L 328.077433 54.324254 
L 328.357593 54.247906 
L 328.372062 54.095209 
L 328.838218 54.018861 
L 328.838218 53.942513 
L 329.371537 53.866165 
L 329.371537 53.789816 
L 329.609476 53.713468 
L 329.609476 53.63712 
L 329.84978 53.560772 
L 329.885084 53.255379 
L 330.038385 53.179031 
L 330.038385 53.102682 
L 330.395598 53.026334 
L 330.395598 52.949986 
L 330.677152 52.873638 
L 330.712154 52.644593 
L 330.856453 52.568245 
L 330.914178 52.415548 
L 332.266456 52.3392 
L 332.333993 52.110155 
L 332.737375 52.033807 
L 332.737375 51.957459 
L 333.201499 51.881111 
L 333.201499 51.804762 
L 334.48521 51.728414 
L 334.519929 51.575718 
L 335.127303 51.499369 
L 335.127303 51.423021 
L 335.4637 51.346673 
L 335.51911 51.193976 
L 336.458495 51.117628 
L 336.458495 51.04128 
L 338.115281 50.964932 
L 338.115281 50.888584 
L 338.577561 50.812235 
L 338.577561 50.735887 
L 340.061104 50.659539 
L 340.061104 50.583191 
L 340.387089 50.506842 
L 340.387089 50.430494 
L 342.741111 50.354146 
L 342.741111 50.277798 
L 353.316184 50.201449 
L 353.316184 50.125101 
L 355.422391 50.048753 
L 355.422391 49.972405 
L 356.011867 49.896056 
L 356.011867 49.819708 
L 360.8064 49.819708 
L 360.8064 49.819708 
" style="fill: none; stroke: #ff00ff; stroke-width: 1.5; stroke-linecap: square"/>
   </g>
   <g id="line2d_41">
    <defs>
     <path id="mfbef88cb2a" d="M -0 8.485281 
L 5.091169 0 
L 0 -8.485281 
L -5.091169 -0 
z
" style="stroke: #ff00ff; stroke-width: 1.5; stroke-linejoin: miter"/>
    </defs>
    <g>
     <use xlink:href="#mfbef88cb2a" x="113.860081" y="266.419652" style="fill-opacity: 0; stroke: #ff00ff; stroke-width: 1.5; stroke-linejoin: miter"/>
     <use xlink:href="#mfbef88cb2a" x="193.749786" y="209.311172" style="fill-opacity: 0; stroke: #ff00ff; stroke-width: 1.5; stroke-linejoin: miter"/>
     <use xlink:href="#mfbef88cb2a" x="252.843308" y="161.517176" style="fill-opacity: 0; stroke: #ff00ff; stroke-width: 1.5; stroke-linejoin: miter"/>
     <use xlink:href="#mfbef88cb2a" x="301.52099" y="75.243671" style="fill-opacity: 0; stroke: #ff00ff; stroke-width: 1.5; stroke-linejoin: miter"/>
     <use xlink:href="#mfbef88cb2a" x="356.011867" y="49.819708" style="fill-opacity: 0; stroke: #ff00ff; stroke-width: 1.5; stroke-linejoin: miter"/>
     <use xlink:href="#mfbef88cb2a" x="360.8064" y="49.819708" style="fill-opacity: 0; stroke: #ff00ff; stroke-width: 1.5; stroke-linejoin: miter"/>
    </g>
   </g>
   <g id="line2d_42">
    <path style="fill: none; stroke: #ff00ff; stroke-width: 1.5; stroke-linecap: square"/>
    <g/>
   </g>
   <g id="line2d_43">
    <path d="M 294.414059 89.215398 
" clip-path="url(#p83ba1c8551)" style="fill: none; stroke: #ff00ff; stroke-width: 1.5; stroke-linecap: square"/>
    <defs>
     <path id="mec4084c772" d="M -12 12 
L 12 -12 
M -12 -12 
L 12 12 
" style="stroke: #ff00ff"/>
    </defs>
    <g clip-path="url(#p83ba1c8551)">
     <use xlink:href="#mec4084c772" x="294.414059" y="89.215398" style="fill: #ff00ff; stroke: #ff00ff"/>
    </g>
   </g>
   <g id="line2d_44">
    <path d="M 360.8064 99.675106 
L 380.514816 293.10336 
" style="fill: none; stroke: #000080; stroke-width: 1.5; stroke-linecap: square"/>
    <g>
     <use xlink:href="#m51c987cce9" x="360.8064" y="99.675106" style="fill-opacity: 0; stroke: #000080; stroke-width: 1.5"/>
     <use xlink:href="#m51c987cce9" x="380.514816" y="293.10336" style="fill-opacity: 0; stroke: #000080; stroke-width: 1.5"/>
    </g>
   </g>
   <g id="line2d_45">
    <path d="M 360.8064 49.819708 
L 380.514816 152.928 
" style="fill: none; stroke: #ff00ff; stroke-width: 1.5; stroke-linecap: square"/>
    <g>
     <use xlink:href="#mfbef88cb2a" x="360.8064" y="49.819708" style="fill-opacity: 0; stroke: #ff00ff; stroke-width: 1.5; stroke-linejoin: miter"/>
     <use xlink:href="#mfbef88cb2a" x="380.514816" y="152.928" style="fill-opacity: 0; stroke: #ff00ff; stroke-width: 1.5; stroke-linejoin: miter"/>
    </g>
   </g>
   <g id="line2d_46">
    <path d="M 360.8064 298.944 
L 360.8064 6.912 
" style="fill: none; stroke: #000000; stroke-width: 1.5; stroke-linecap: square"/>
   </g>
   <g id="patch_3">
    <path d="M 57.6 298.944 
L 360.8064 298.944 
" style="fill: none; stroke: #000000; stroke-width: 0.8; stroke-linejoin: miter; stroke-linecap: square"/>
   </g>
   <g id="patch_4">
    <path d="M 57.6 6.912 
L 360.8064 6.912 
" style="fill: none; stroke: #000000; stroke-width: 0.8; stroke-linejoin: miter; stroke-linecap: square"/>
   </g>
   <g id="text_13">
    <!-- cma-0 -->
    <g transform="translate(386.578944 296.966485)scale(0.14 -0.14)">
     <use xlink:href="#DejaVuSans-63"/>
     <use xlink:href="#DejaVuSans-6d" x="54.980469"/>
     <use xlink:href="#DejaVuSans-61" x="152.392578"/>
     <use xlink:href="#DejaVuSans-2d" x="213.671875"/>
     <use xlink:href="#DejaVuSans-30" x="249.755859"/>
    </g>
   </g>
   <g id="text_14">
    <!-- CMA-ES-20 -->
    <g transform="translate(386.578944 156.791125)scale(0.14 -0.14)">
     <defs>
      <path id="DejaVuSans-43" d="M 4122 4306 
L 4122 3641 
Q 3803 3938 3442 4084 
Q 3081 4231 2675 4231 
Q 1875 4231 1450 3742 
Q 1025 3253 1025 2328 
Q 1025 1406 1450 917 
Q 1875 428 2675 428 
Q 3081 428 3442 575 
Q 3803 722 4122 1019 
L 4122 359 
Q 3791 134 3420 21 
Q 3050 -91 2638 -91 
Q 1578 -91 968 557 
Q 359 1206 359 2328 
Q 359 3453 968 4101 
Q 1578 4750 2638 4750 
Q 3056 4750 3426 4639 
Q 3797 4528 4122 4306 
z
" transform="scale(0.015625)"/>
      <path id="DejaVuSans-4d" d="M 628 4666 
L 1569 4666 
L 2759 1491 
L 3956 4666 
L 4897 4666 
L 4897 0 
L 4281 0 
L 4281 4097 
L 3078 897 
L 2444 897 
L 1241 4097 
L 1241 0 
L 628 0 
L 628 4666 
z
" transform="scale(0.015625)"/>
      <path id="DejaVuSans-41" d="M 2188 4044 
L 1331 1722 
L 3047 1722 
L 2188 4044 
z
M 1831 4666 
L 2547 4666 
L 4325 0 
L 3669 0 
L 3244 1197 
L 1141 1197 
L 716 0 
L 50 0 
L 1831 4666 
z
" transform="scale(0.015625)"/>
      <path id="DejaVuSans-45" d="M 628 4666 
L 3578 4666 
L 3578 4134 
L 1259 4134 
L 1259 2753 
L 3481 2753 
L 3481 2222 
L 1259 2222 
L 1259 531 
L 3634 531 
L 3634 0 
L 628 0 
L 628 4666 
z
" transform="scale(0.015625)"/>
      <path id="DejaVuSans-53" d="M 3425 4513 
L 3425 3897 
Q 3066 4069 2747 4153 
Q 2428 4238 2131 4238 
Q 1616 4238 1336 4038 
Q 1056 3838 1056 3469 
Q 1056 3159 1242 3001 
Q 1428 2844 1947 2747 
L 2328 2669 
Q 3034 2534 3370 2195 
Q 3706 1856 3706 1288 
Q 3706 609 3251 259 
Q 2797 -91 1919 -91 
Q 1588 -91 1214 -16 
Q 841 59 441 206 
L 441 856 
Q 825 641 1194 531 
Q 1563 422 1919 422 
Q 2459 422 2753 634 
Q 3047 847 3047 1241 
Q 3047 1584 2836 1778 
Q 2625 1972 2144 2069 
L 1759 2144 
Q 1053 2284 737 2584 
Q 422 2884 422 3419 
Q 422 4038 858 4394 
Q 1294 4750 2059 4750 
Q 2388 4750 2728 4690 
Q 3069 4631 3425 4513 
z
" transform="scale(0.015625)"/>
     </defs>
     <use xlink:href="#DejaVuSans-43"/>
     <use xlink:href="#DejaVuSans-4d" x="69.824219"/>
     <use xlink:href="#DejaVuSans-41" x="156.103516"/>
     <use xlink:href="#DejaVuSans-2d" x="222.261719"/>
     <use xlink:href="#DejaVuSans-45" x="258.345703"/>
     <use xlink:href="#DejaVuSans-53" x="321.529297"/>
     <use xlink:href="#DejaVuSans-2d" x="385.005859"/>
     <use xlink:href="#DejaVuSans-32" x="421.089844"/>
     <use xlink:href="#DejaVuSans-30" x="484.712891"/>
    </g>
   </g>
   <g id="text_15">
    <!-- best 2009 -->
    <g transform="translate(386.578944 16.615765)scale(0.14 -0.14)">
     <defs>
      <path id="DejaVuSans-62" d="M 3116 1747 
Q 3116 2381 2855 2742 
Q 2594 3103 2138 3103 
Q 1681 3103 1420 2742 
Q 1159 2381 1159 1747 
Q 1159 1113 1420 752 
Q 1681 391 2138 391 
Q 2594 391 2855 752 
Q 3116 1113 3116 1747 
z
M 1159 2969 
Q 1341 3281 1617 3432 
Q 1894 3584 2278 3584 
Q 2916 3584 3314 3078 
Q 3713 2572 3713 1747 
Q 3713 922 3314 415 
Q 2916 -91 2278 -91 
Q 1894 -91 1617 61 
Q 1341 213 1159 525 
L 1159 0 
L 581 0 
L 581 4863 
L 1159 4863 
L 1159 2969 
z
" transform="scale(0.015625)"/>
      <path id="DejaVuSans-39" d="M 703 97 
L 703 672 
Q 941 559 1184 500 
Q 1428 441 1663 441 
Q 2288 441 2617 861 
Q 2947 1281 2994 2138 
Q 2813 1869 2534 1725 
Q 2256 1581 1919 1581 
Q 1219 1581 811 2004 
Q 403 2428 403 3163 
Q 403 3881 828 4315 
Q 1253 4750 1959 4750 
Q 2769 4750 3195 4129 
Q 3622 3509 3622 2328 
Q 3622 1225 3098 567 
Q 2575 -91 1691 -91 
Q 1453 -91 1209 -44 
Q 966 3 703 97 
z
M 1959 2075 
Q 2384 2075 2632 2365 
Q 2881 2656 2881 3163 
Q 2881 3666 2632 3958 
Q 2384 4250 1959 4250 
Q 1534 4250 1286 3958 
Q 1038 3666 1038 3163 
Q 1038 2656 1286 2365 
Q 1534 2075 1959 2075 
z
" transform="scale(0.015625)"/>
     </defs>
     <use xlink:href="#DejaVuSans-62"/>
     <use xlink:href="#DejaVuSans-65" x="63.476562"/>
     <use xlink:href="#DejaVuSans-73" x="125"/>
     <use xlink:href="#DejaVuSans-74" x="177.099609"/>
     <use xlink:href="#DejaVuSans-20" x="216.308594"/>
     <use xlink:href="#DejaVuSans-32" x="248.095703"/>
     <use xlink:href="#DejaVuSans-30" x="311.71875"/>
     <use xlink:href="#DejaVuSans-30" x="375.341797"/>
     <use xlink:href="#DejaVuSans-39" x="438.964844"/>
    </g>
   </g>
   <g id="text_16">
    <!-- bbob f20-f24, 10-D -->
    <g transform="translate(60.632064 17.582726)scale(0.102 -0.102)">
     <defs>
      <path id="DejaVuSans-44" d="M 1259 4147 
L 1259 519 
L 2022 519 
Q 2988 519 3436 956 
Q 3884 1394 3884 2338 
Q 3884 3275 3436 3711 
Q 2988 4147 2022 4147 
L 1259 4147 
z
M 628 4666 
L 1925 4666 
Q 3281 4666 3915 4102 
Q 4550 3538 4550 2338 
Q 4550 1131 3912 565 
Q 3275 0 1925 0 
L 628 0 
L 628 4666 
z
" transform="scale(0.015625)"/>
     </defs>
     <use xlink:href="#DejaVuSans-62"/>
     <use xlink:href="#DejaVuSans-62" x="63.476562"/>
     <use xlink:href="#DejaVuSans-6f" x="126.953125"/>
     <use xlink:href="#DejaVuSans-62" x="188.134766"/>
     <use xlink:href="#DejaVuSans-20" x="251.611328"/>
     <use xlink:href="#DejaVuSans-66" x="283.398438"/>
     <use xlink:href="#DejaVuSans-32" x="318.603516"/>
     <use xlink:href="#DejaVuSans-30" x="382.226562"/>
     <use xlink:href="#DejaVuSans-2d" x="445.849609"/>
     <use xlink:href="#DejaVuSans-66" x="481.933594"/>
     <use xlink:href="#DejaVuSans-32" x="517.138672"/>
     <use xlink:href="#DejaVuSans-34" x="580.761719"/>
     <use xlink:href="#DejaVuSans-2c" x="644.384766"/>
     <use xlink:href="#DejaVuSans-20" x="676.171875"/>
     <use xlink:href="#DejaVuSans-31" x="707.958984"/>
     <use xlink:href="#DejaVuSans-30" x="771.582031"/>
     <use xlink:href="#DejaVuSans-2d" x="835.205078"/>
     <use xlink:href="#DejaVuSans-44" x="871.289062"/>
    </g>
    <!-- 51 targets: 100..1e-08 -->
    <g transform="translate(60.632064 29.004495)scale(0.102 -0.102)">
     <defs>
      <path id="DejaVuSans-35" d="M 691 4666 
L 3169 4666 
L 3169 4134 
L 1269 4134 
L 1269 2991 
Q 1406 3038 1543 3061 
Q 1681 3084 1819 3084 
Q 2600 3084 3056 2656 
Q 3513 2228 3513 1497 
Q 3513 744 3044 326 
Q 2575 -91 1722 -91 
Q 1428 -91 1123 -41 
Q 819 9 494 109 
L 494 744 
Q 775 591 1075 516 
Q 1375 441 1709 441 
Q 2250 441 2565 725 
Q 2881 1009 2881 1497 
Q 2881 1984 2565 2268 
Q 2250 2553 1709 2553 
Q 1456 2553 1204 2497 
Q 953 2441 691 2322 
L 691 4666 
z
" transform="scale(0.015625)"/>
      <path id="DejaVuSans-3a" d="M 750 794 
L 1409 794 
L 1409 0 
L 750 0 
L 750 794 
z
M 750 3309 
L 1409 3309 
L 1409 2516 
L 750 2516 
L 750 3309 
z
" transform="scale(0.015625)"/>
     </defs>
     <use xlink:href="#DejaVuSans-35"/>
     <use xlink:href="#DejaVuSans-31" x="63.623047"/>
     <use xlink:href="#DejaVuSans-20" x="127.246094"/>
     <use xlink:href="#DejaVuSans-74" x="159.033203"/>
     <use xlink:href="#DejaVuSans-61" x="198.242188"/>
     <use xlink:href="#DejaVuSans-72" x="259.521484"/>
     <use xlink:href="#DejaVuSans-67" x="298.884766"/>
     <use xlink:href="#DejaVuSans-65" x="362.361328"/>
     <use xlink:href="#DejaVuSans-74" x="423.884766"/>
     <use xlink:href="#DejaVuSans-73" x="463.09375"/>
     <use xlink:href="#DejaVuSans-3a" x="515.193359"/>
     <use xlink:href="#DejaVuSans-20" x="548.884766"/>
     <use xlink:href="#DejaVuSans-31" x="580.671875"/>
     <use xlink:href="#DejaVuSans-30" x="644.294922"/>
     <use xlink:href="#DejaVuSans-30" x="707.917969"/>
     <use xlink:href="#DejaVuSans-2e" x="771.541016"/>
     <use xlink:href="#DejaVuSans-2e" x="803.328125"/>
     <use xlink:href="#DejaVuSans-31" x="835.115234"/>
     <use xlink:href="#DejaVuSans-65" x="898.738281"/>
     <use xlink:href="#DejaVuSans-2d" x="960.261719"/>
     <use xlink:href="#DejaVuSans-30" x="996.345703"/>
     <use xlink:href="#DejaVuSans-38" x="1059.96875"/>
    </g>
    <!-- 5, 15 instances -->
    <g transform="translate(60.632064 40.426264)scale(0.102 -0.102)">
     <use xlink:href="#DejaVuSans-35"/>
     <use xlink:href="#DejaVuSans-2c" x="63.623047"/>
     <use xlink:href="#DejaVuSans-20" x="95.410156"/>
     <use xlink:href="#DejaVuSans-31" x="127.197266"/>
     <use xlink:href="#DejaVuSans-35" x="190.820312"/>
     <use xlink:href="#DejaVuSans-20" x="254.443359"/>
     <use xlink:href="#DejaVuSans-69" x="286.230469"/>
     <use xlink:href="#DejaVuSans-6e" x="314.013672"/>
     <use xlink:href="#DejaVuSans-73" x="377.392578"/>
     <use xlink:href="#DejaVuSans-74" x="429.492188"/>
     <use xlink:href="#DejaVuSans-61" x="468.701172"/>
     <use xlink:href="#DejaVuSans-6e" x="529.980469"/>
     <use xlink:href="#DejaVuSans-63" x="593.359375"/>
     <use xlink:href="#DejaVuSans-65" x="648.339844"/>
     <use xlink:href="#DejaVuSans-73" x="709.863281"/>
    </g>
   </g>
   <g id="text_17">
    <!-- v2.6 -->
    <g style="fill: #808080" transform="translate(198.292262 293.943992)scale(0.1 -0.1)">
     <use xlink:href="#DejaVuSans-76"/>
     <use xlink:href="#DejaVuSans-32" x="59.179688"/>
     <use xlink:href="#DejaVuSans-2e" x="122.802734"/>
     <use xlink:href="#DejaVuSans-36" x="154.589844"/>
    </g>
   </g>
  </g>
 </g>
 <defs>
  <clipPath id="p83ba1c8551">
   <rect x="57.6" y="6.912" width="303.2064" height="292.032"/>
  </clipPath>
 </defs>
</svg>
