<?xml version="1.0" encoding="utf-8" standalone="no"?>
<!DOCTYPE svg PUBLIC "-//W3C//DTD SVG 1.1//EN"
  "http://www.w3.org/Graphics/SVG/1.1/DTD/svg11.dtd">
<svg xmlns:xlink="http://www.w3.org/1999/xlink" width="460.8pt" height="345.6pt" viewBox="0 0 460.8 345.6" xmlns="http://www.w3.org/2000/svg" version="1.1">
 <metadata>
  <rdf:RDF xmlns:dc="http://purl.org/dc/elements/1.1/" xmlns:cc="http://creativecommons.org/ns#" xmlns:rdf="http://www.w3.org/1999/02/22-rdf-syntax-ns#">
   <cc:Work>
    <dc:type rdf:resource="http://purl.org/dc/dcmitype/StillImage"/>
    <dc:date>2022-03-15T20:00:33.134307</dc:date>
    <dc:format>image/svg+xml</dc:format>
    <dc:creator>
     <cc:Agent>
      <dc:title>Matplotlib v3.5.1, https://matplotlib.org/</dc:title>
     </cc:Agent>
    </dc:creator>
   </cc:Work>
  </rdf:RDF>
 </metadata>
 <defs>
  <style type="text/css">*{stroke-linejoin: round; stroke-linecap: butt}</style>
 </defs>
 <g id="figure_1">
  <g id="patch_1">
   <path d="M 0 345.6 
L 460.8 345.6 
L 460.8 0 
L 0 0 
z
" style="fill: #ffffff"/>
  </g>
  <g id="axes_1">
   <g id="patch_2">
    <path d="M 57.6 298.944 
L 360.8064 298.944 
L 360.8064 6.912 
L 57.6 6.912 
z
" style="fill: #ffffff"/>
   </g>
   <g id="matplotlib.axis_1">
    <g id="xtick_1">
     <g id="line2d_1">
      <path d="M 57.6 298.944 
L 57.6 6.912 
" clip-path="url(#p3b781e9592)" style="fill: none; stroke: #b0b0b0; stroke-width: 0.8; stroke-linecap: square"/>
     </g>
     <g id="line2d_2">
      <defs>
       <path id="m2d6c939c2f" d="M 0 0 
L 0 3.5 
" style="stroke: #000000; stroke-width: 0.8"/>
      </defs>
      <g>
       <use xlink:href="#m2d6c939c2f" x="57.6" y="298.944" style="stroke: #000000; stroke-width: 0.8"/>
      </g>
     </g>
     <g id="text_1">
      <!-- 0 -->
      <g transform="translate(52.191875 318.861344)scale(0.17 -0.17)">
       <defs>
        <path id="DejaVuSans-30" d="M 2034 4250 
Q 1547 4250 1301 3770 
Q 1056 3291 1056 2328 
Q 1056 1369 1301 889 
Q 1547 409 2034 409 
Q 2525 409 2770 889 
Q 3016 1369 3016 2328 
Q 3016 3291 2770 3770 
Q 2525 4250 2034 4250 
z
M 2034 4750 
Q 2819 4750 3233 4129 
Q 3647 3509 3647 2328 
Q 3647 1150 3233 529 
Q 2819 -91 2034 -91 
Q 1250 -91 836 529 
Q 422 1150 422 2328 
Q 422 3509 836 4129 
Q 1250 4750 2034 4750 
z
" transform="scale(0.015625)"/>
       </defs>
       <use xlink:href="#DejaVuSans-30"/>
      </g>
     </g>
    </g>
    <g id="xtick_2">
     <g id="line2d_3">
      <path d="M 144.2304 298.944 
L 144.2304 6.912 
" clip-path="url(#p3b781e9592)" style="fill: none; stroke: #b0b0b0; stroke-width: 0.8; stroke-linecap: square"/>
     </g>
     <g id="line2d_4">
      <g>
       <use xlink:href="#m2d6c939c2f" x="144.2304" y="298.944" style="stroke: #000000; stroke-width: 0.8"/>
      </g>
     </g>
     <g id="text_2">
      <!-- 2 -->
      <g transform="translate(138.822275 318.861344)scale(0.17 -0.17)">
       <defs>
        <path id="DejaVuSans-32" d="M 1228 531 
L 3431 531 
L 3431 0 
L 469 0 
L 469 531 
Q 828 903 1448 1529 
Q 2069 2156 2228 2338 
Q 2531 2678 2651 2914 
Q 2772 3150 2772 3378 
Q 2772 3750 2511 3984 
Q 2250 4219 1831 4219 
Q 1534 4219 1204 4116 
Q 875 4013 500 3803 
L 500 4441 
Q 881 4594 1212 4672 
Q 1544 4750 1819 4750 
Q 2544 4750 2975 4387 
Q 3406 4025 3406 3419 
Q 3406 3131 3298 2873 
Q 3191 2616 2906 2266 
Q 2828 2175 2409 1742 
Q 1991 1309 1228 531 
z
" transform="scale(0.015625)"/>
       </defs>
       <use xlink:href="#DejaVuSans-32"/>
      </g>
     </g>
    </g>
    <g id="xtick_3">
     <g id="line2d_5">
      <path d="M 230.8608 298.944 
L 230.8608 6.912 
" clip-path="url(#p3b781e9592)" style="fill: none; stroke: #b0b0b0; stroke-width: 0.8; stroke-linecap: square"/>
     </g>
     <g id="line2d_6">
      <g>
       <use xlink:href="#m2d6c939c2f" x="230.8608" y="298.944" style="stroke: #000000; stroke-width: 0.8"/>
      </g>
     </g>
     <g id="text_3">
      <!-- 4 -->
      <g transform="translate(225.452675 318.861344)scale(0.17 -0.17)">
       <defs>
        <path id="DejaVuSans-34" d="M 2419 4116 
L 825 1625 
L 2419 1625 
L 2419 4116 
z
M 2253 4666 
L 3047 4666 
L 3047 1625 
L 3713 1625 
L 3713 1100 
L 3047 1100 
L 3047 0 
L 2419 0 
L 2419 1100 
L 313 1100 
L 313 1709 
L 2253 4666 
z
" transform="scale(0.015625)"/>
       </defs>
       <use xlink:href="#DejaVuSans-34"/>
      </g>
     </g>
    </g>
    <g id="xtick_4">
     <g id="line2d_7">
      <path d="M 317.4912 298.944 
L 317.4912 6.912 
" clip-path="url(#p3b781e9592)" style="fill: none; stroke: #b0b0b0; stroke-width: 0.8; stroke-linecap: square"/>
     </g>
     <g id="line2d_8">
      <g>
       <use xlink:href="#m2d6c939c2f" x="317.4912" y="298.944" style="stroke: #000000; stroke-width: 0.8"/>
      </g>
     </g>
     <g id="text_4">
      <!-- 6 -->
      <g transform="translate(312.083075 318.861344)scale(0.17 -0.17)">
       <defs>
        <path id="DejaVuSans-36" d="M 2113 2584 
Q 1688 2584 1439 2293 
Q 1191 2003 1191 1497 
Q 1191 994 1439 701 
Q 1688 409 2113 409 
Q 2538 409 2786 701 
Q 3034 994 3034 1497 
Q 3034 2003 2786 2293 
Q 2538 2584 2113 2584 
z
M 3366 4563 
L 3366 3988 
Q 3128 4100 2886 4159 
Q 2644 4219 2406 4219 
Q 1781 4219 1451 3797 
Q 1122 3375 1075 2522 
Q 1259 2794 1537 2939 
Q 1816 3084 2150 3084 
Q 2853 3084 3261 2657 
Q 3669 2231 3669 1497 
Q 3669 778 3244 343 
Q 2819 -91 2113 -91 
Q 1303 -91 875 529 
Q 447 1150 447 2328 
Q 447 3434 972 4092 
Q 1497 4750 2381 4750 
Q 2619 4750 2861 4703 
Q 3103 4656 3366 4563 
z
" transform="scale(0.015625)"/>
       </defs>
       <use xlink:href="#DejaVuSans-36"/>
      </g>
     </g>
    </g>
    <g id="xtick_5">
     <g id="line2d_9">
      <path d="M 100.9152 298.944 
L 100.9152 6.912 
" clip-path="url(#p3b781e9592)" style="fill: none; stroke: #b0b0b0; stroke-width: 0.8; stroke-linecap: square"/>
     </g>
     <g id="line2d_10">
      <defs>
       <path id="me4b21fe0a3" d="M 0 0 
L 0 2 
" style="stroke: #000000; stroke-width: 0.6"/>
      </defs>
      <g>
       <use xlink:href="#me4b21fe0a3" x="100.9152" y="298.944" style="stroke: #000000; stroke-width: 0.6"/>
      </g>
     </g>
    </g>
    <g id="xtick_6">
     <g id="line2d_11">
      <path d="M 187.5456 298.944 
L 187.5456 6.912 
" clip-path="url(#p3b781e9592)" style="fill: none; stroke: #b0b0b0; stroke-width: 0.8; stroke-linecap: square"/>
     </g>
     <g id="line2d_12">
      <g>
       <use xlink:href="#me4b21fe0a3" x="187.5456" y="298.944" style="stroke: #000000; stroke-width: 0.6"/>
      </g>
     </g>
    </g>
    <g id="xtick_7">
     <g id="line2d_13">
      <path d="M 274.176 298.944 
L 274.176 6.912 
" clip-path="url(#p3b781e9592)" style="fill: none; stroke: #b0b0b0; stroke-width: 0.8; stroke-linecap: square"/>
     </g>
     <g id="line2d_14">
      <g>
       <use xlink:href="#me4b21fe0a3" x="274.176" y="298.944" style="stroke: #000000; stroke-width: 0.6"/>
      </g>
     </g>
    </g>
    <g id="xtick_8">
     <g id="line2d_15">
      <path d="M 360.8064 298.944 
L 360.8064 6.912 
" clip-path="url(#p3b781e9592)" style="fill: none; stroke: #b0b0b0; stroke-width: 0.8; stroke-linecap: square"/>
     </g>
     <g id="line2d_16">
      <g>
       <use xlink:href="#me4b21fe0a3" x="360.8064" y="298.944" style="stroke: #000000; stroke-width: 0.6"/>
      </g>
     </g>
    </g>
    <g id="text_5">
     <!-- log10(# f-evals / dimension) -->
     <g transform="translate(88.823278 339.314156)scale(0.17 -0.17)">
      <defs>
       <path id="DejaVuSans-6c" d="M 603 4863 
L 1178 4863 
L 1178 0 
L 603 0 
L 603 4863 
z
" transform="scale(0.015625)"/>
       <path id="DejaVuSans-6f" d="M 1959 3097 
Q 1497 3097 1228 2736 
Q 959 2375 959 1747 
Q 959 1119 1226 758 
Q 1494 397 1959 397 
Q 2419 397 2687 759 
Q 2956 1122 2956 1747 
Q 2956 2369 2687 2733 
Q 2419 3097 1959 3097 
z
M 1959 3584 
Q 2709 3584 3137 3096 
Q 3566 2609 3566 1747 
Q 3566 888 3137 398 
Q 2709 -91 1959 -91 
Q 1206 -91 779 398 
Q 353 888 353 1747 
Q 353 2609 779 3096 
Q 1206 3584 1959 3584 
z
" transform="scale(0.015625)"/>
       <path id="DejaVuSans-67" d="M 2906 1791 
Q 2906 2416 2648 2759 
Q 2391 3103 1925 3103 
Q 1463 3103 1205 2759 
Q 947 2416 947 1791 
Q 947 1169 1205 825 
Q 1463 481 1925 481 
Q 2391 481 2648 825 
Q 2906 1169 2906 1791 
z
M 3481 434 
Q 3481 -459 3084 -895 
Q 2688 -1331 1869 -1331 
Q 1566 -1331 1297 -1286 
Q 1028 -1241 775 -1147 
L 775 -588 
Q 1028 -725 1275 -790 
Q 1522 -856 1778 -856 
Q 2344 -856 2625 -561 
Q 2906 -266 2906 331 
L 2906 616 
Q 2728 306 2450 153 
Q 2172 0 1784 0 
Q 1141 0 747 490 
Q 353 981 353 1791 
Q 353 2603 747 3093 
Q 1141 3584 1784 3584 
Q 2172 3584 2450 3431 
Q 2728 3278 2906 2969 
L 2906 3500 
L 3481 3500 
L 3481 434 
z
" transform="scale(0.015625)"/>
       <path id="DejaVuSans-31" d="M 794 531 
L 1825 531 
L 1825 4091 
L 703 3866 
L 703 4441 
L 1819 4666 
L 2450 4666 
L 2450 531 
L 3481 531 
L 3481 0 
L 794 0 
L 794 531 
z
" transform="scale(0.015625)"/>
       <path id="DejaVuSans-28" d="M 1984 4856 
Q 1566 4138 1362 3434 
Q 1159 2731 1159 2009 
Q 1159 1288 1364 580 
Q 1569 -128 1984 -844 
L 1484 -844 
Q 1016 -109 783 600 
Q 550 1309 550 2009 
Q 550 2706 781 3412 
Q 1013 4119 1484 4856 
L 1984 4856 
z
" transform="scale(0.015625)"/>
       <path id="DejaVuSans-23" d="M 3272 2816 
L 2363 2816 
L 2100 1772 
L 3016 1772 
L 3272 2816 
z
M 2803 4594 
L 2478 3297 
L 3391 3297 
L 3719 4594 
L 4219 4594 
L 3897 3297 
L 4872 3297 
L 4872 2816 
L 3775 2816 
L 3519 1772 
L 4513 1772 
L 4513 1294 
L 3397 1294 
L 3072 0 
L 2572 0 
L 2894 1294 
L 1978 1294 
L 1656 0 
L 1153 0 
L 1478 1294 
L 494 1294 
L 494 1772 
L 1594 1772 
L 1856 2816 
L 850 2816 
L 850 3297 
L 1978 3297 
L 2297 4594 
L 2803 4594 
z
" transform="scale(0.015625)"/>
       <path id="DejaVuSans-20" transform="scale(0.015625)"/>
       <path id="DejaVuSans-66" d="M 2375 4863 
L 2375 4384 
L 1825 4384 
Q 1516 4384 1395 4259 
Q 1275 4134 1275 3809 
L 1275 3500 
L 2222 3500 
L 2222 3053 
L 1275 3053 
L 1275 0 
L 697 0 
L 697 3053 
L 147 3053 
L 147 3500 
L 697 3500 
L 697 3744 
Q 697 4328 969 4595 
Q 1241 4863 1831 4863 
L 2375 4863 
z
" transform="scale(0.015625)"/>
       <path id="DejaVuSans-2d" d="M 313 2009 
L 1997 2009 
L 1997 1497 
L 313 1497 
L 313 2009 
z
" transform="scale(0.015625)"/>
       <path id="DejaVuSans-65" d="M 3597 1894 
L 3597 1613 
L 953 1613 
Q 991 1019 1311 708 
Q 1631 397 2203 397 
Q 2534 397 2845 478 
Q 3156 559 3463 722 
L 3463 178 
Q 3153 47 2828 -22 
Q 2503 -91 2169 -91 
Q 1331 -91 842 396 
Q 353 884 353 1716 
Q 353 2575 817 3079 
Q 1281 3584 2069 3584 
Q 2775 3584 3186 3129 
Q 3597 2675 3597 1894 
z
M 3022 2063 
Q 3016 2534 2758 2815 
Q 2500 3097 2075 3097 
Q 1594 3097 1305 2825 
Q 1016 2553 972 2059 
L 3022 2063 
z
" transform="scale(0.015625)"/>
       <path id="DejaVuSans-76" d="M 191 3500 
L 800 3500 
L 1894 563 
L 2988 3500 
L 3597 3500 
L 2284 0 
L 1503 0 
L 191 3500 
z
" transform="scale(0.015625)"/>
       <path id="DejaVuSans-61" d="M 2194 1759 
Q 1497 1759 1228 1600 
Q 959 1441 959 1056 
Q 959 750 1161 570 
Q 1363 391 1709 391 
Q 2188 391 2477 730 
Q 2766 1069 2766 1631 
L 2766 1759 
L 2194 1759 
z
M 3341 1997 
L 3341 0 
L 2766 0 
L 2766 531 
Q 2569 213 2275 61 
Q 1981 -91 1556 -91 
Q 1019 -91 701 211 
Q 384 513 384 1019 
Q 384 1609 779 1909 
Q 1175 2209 1959 2209 
L 2766 2209 
L 2766 2266 
Q 2766 2663 2505 2880 
Q 2244 3097 1772 3097 
Q 1472 3097 1187 3025 
Q 903 2953 641 2809 
L 641 3341 
Q 956 3463 1253 3523 
Q 1550 3584 1831 3584 
Q 2591 3584 2966 3190 
Q 3341 2797 3341 1997 
z
" transform="scale(0.015625)"/>
       <path id="DejaVuSans-73" d="M 2834 3397 
L 2834 2853 
Q 2591 2978 2328 3040 
Q 2066 3103 1784 3103 
Q 1356 3103 1142 2972 
Q 928 2841 928 2578 
Q 928 2378 1081 2264 
Q 1234 2150 1697 2047 
L 1894 2003 
Q 2506 1872 2764 1633 
Q 3022 1394 3022 966 
Q 3022 478 2636 193 
Q 2250 -91 1575 -91 
Q 1294 -91 989 -36 
Q 684 19 347 128 
L 347 722 
Q 666 556 975 473 
Q 1284 391 1588 391 
Q 1994 391 2212 530 
Q 2431 669 2431 922 
Q 2431 1156 2273 1281 
Q 2116 1406 1581 1522 
L 1381 1569 
Q 847 1681 609 1914 
Q 372 2147 372 2553 
Q 372 3047 722 3315 
Q 1072 3584 1716 3584 
Q 2034 3584 2315 3537 
Q 2597 3491 2834 3397 
z
" transform="scale(0.015625)"/>
       <path id="DejaVuSans-2f" d="M 1625 4666 
L 2156 4666 
L 531 -594 
L 0 -594 
L 1625 4666 
z
" transform="scale(0.015625)"/>
       <path id="DejaVuSans-64" d="M 2906 2969 
L 2906 4863 
L 3481 4863 
L 3481 0 
L 2906 0 
L 2906 525 
Q 2725 213 2448 61 
Q 2172 -91 1784 -91 
Q 1150 -91 751 415 
Q 353 922 353 1747 
Q 353 2572 751 3078 
Q 1150 3584 1784 3584 
Q 2172 3584 2448 3432 
Q 2725 3281 2906 2969 
z
M 947 1747 
Q 947 1113 1208 752 
Q 1469 391 1925 391 
Q 2381 391 2643 752 
Q 2906 1113 2906 1747 
Q 2906 2381 2643 2742 
Q 2381 3103 1925 3103 
Q 1469 3103 1208 2742 
Q 947 2381 947 1747 
z
" transform="scale(0.015625)"/>
       <path id="DejaVuSans-69" d="M 603 3500 
L 1178 3500 
L 1178 0 
L 603 0 
L 603 3500 
z
M 603 4863 
L 1178 4863 
L 1178 4134 
L 603 4134 
L 603 4863 
z
" transform="scale(0.015625)"/>
       <path id="DejaVuSans-6d" d="M 3328 2828 
Q 3544 3216 3844 3400 
Q 4144 3584 4550 3584 
Q 5097 3584 5394 3201 
Q 5691 2819 5691 2113 
L 5691 0 
L 5113 0 
L 5113 2094 
Q 5113 2597 4934 2840 
Q 4756 3084 4391 3084 
Q 3944 3084 3684 2787 
Q 3425 2491 3425 1978 
L 3425 0 
L 2847 0 
L 2847 2094 
Q 2847 2600 2669 2842 
Q 2491 3084 2119 3084 
Q 1678 3084 1418 2786 
Q 1159 2488 1159 1978 
L 1159 0 
L 581 0 
L 581 3500 
L 1159 3500 
L 1159 2956 
Q 1356 3278 1631 3431 
Q 1906 3584 2284 3584 
Q 2666 3584 2933 3390 
Q 3200 3197 3328 2828 
z
" transform="scale(0.015625)"/>
       <path id="DejaVuSans-6e" d="M 3513 2113 
L 3513 0 
L 2938 0 
L 2938 2094 
Q 2938 2591 2744 2837 
Q 2550 3084 2163 3084 
Q 1697 3084 1428 2787 
Q 1159 2491 1159 1978 
L 1159 0 
L 581 0 
L 581 3500 
L 1159 3500 
L 1159 2956 
Q 1366 3272 1645 3428 
Q 1925 3584 2291 3584 
Q 2894 3584 3203 3211 
Q 3513 2838 3513 2113 
z
" transform="scale(0.015625)"/>
       <path id="DejaVuSans-29" d="M 513 4856 
L 1013 4856 
Q 1481 4119 1714 3412 
Q 1947 2706 1947 2009 
Q 1947 1309 1714 600 
Q 1481 -109 1013 -844 
L 513 -844 
Q 928 -128 1133 580 
Q 1338 1288 1338 2009 
Q 1338 2731 1133 3434 
Q 928 4138 513 4856 
z
" transform="scale(0.015625)"/>
      </defs>
      <use xlink:href="#DejaVuSans-6c"/>
      <use xlink:href="#DejaVuSans-6f" x="27.783203"/>
      <use xlink:href="#DejaVuSans-67" x="88.964844"/>
      <use xlink:href="#DejaVuSans-31" x="152.441406"/>
      <use xlink:href="#DejaVuSans-30" x="216.064453"/>
      <use xlink:href="#DejaVuSans-28" x="279.6875"/>
      <use xlink:href="#DejaVuSans-23" x="318.701172"/>
      <use xlink:href="#DejaVuSans-20" x="402.490234"/>
      <use xlink:href="#DejaVuSans-66" x="434.277344"/>
      <use xlink:href="#DejaVuSans-2d" x="463.982422"/>
      <use xlink:href="#DejaVuSans-65" x="500.066406"/>
      <use xlink:href="#DejaVuSans-76" x="561.589844"/>
      <use xlink:href="#DejaVuSans-61" x="620.769531"/>
      <use xlink:href="#DejaVuSans-6c" x="682.048828"/>
      <use xlink:href="#DejaVuSans-73" x="709.832031"/>
      <use xlink:href="#DejaVuSans-20" x="761.931641"/>
      <use xlink:href="#DejaVuSans-2f" x="793.71875"/>
      <use xlink:href="#DejaVuSans-20" x="827.410156"/>
      <use xlink:href="#DejaVuSans-64" x="859.197266"/>
      <use xlink:href="#DejaVuSans-69" x="922.673828"/>
      <use xlink:href="#DejaVuSans-6d" x="950.457031"/>
      <use xlink:href="#DejaVuSans-65" x="1047.869141"/>
      <use xlink:href="#DejaVuSans-6e" x="1109.392578"/>
      <use xlink:href="#DejaVuSans-73" x="1172.771484"/>
      <use xlink:href="#DejaVuSans-69" x="1224.871094"/>
      <use xlink:href="#DejaVuSans-6f" x="1252.654297"/>
      <use xlink:href="#DejaVuSans-6e" x="1313.835938"/>
      <use xlink:href="#DejaVuSans-29" x="1377.214844"/>
     </g>
    </g>
   </g>
   <g id="matplotlib.axis_2">
    <g id="ytick_1">
     <g id="line2d_17">
      <path d="M 57.6 298.944 
L 360.8064 298.944 
" clip-path="url(#p3b781e9592)" style="fill: none; stroke: #b0b0b0; stroke-width: 0.8; stroke-linecap: square"/>
     </g>
     <g id="line2d_18">
      <defs>
       <path id="m180f8a6769" d="M 0 0 
L -3.5 0 
" style="stroke: #000000; stroke-width: 0.8"/>
      </defs>
      <g>
       <use xlink:href="#m180f8a6769" x="57.6" y="298.944" style="stroke: #000000; stroke-width: 0.8"/>
      </g>
     </g>
     <g id="text_6">
      <!-- 0.0 -->
      <g transform="translate(25.155 305.02275)scale(0.16 -0.16)">
       <defs>
        <path id="DejaVuSans-2e" d="M 684 794 
L 1344 794 
L 1344 0 
L 684 0 
L 684 794 
z
" transform="scale(0.015625)"/>
       </defs>
       <use xlink:href="#DejaVuSans-30"/>
       <use xlink:href="#DejaVuSans-2e" x="63.623047"/>
       <use xlink:href="#DejaVuSans-30" x="95.410156"/>
      </g>
     </g>
    </g>
    <g id="ytick_2">
     <g id="line2d_19">
      <path d="M 57.6 240.5376 
L 360.8064 240.5376 
" clip-path="url(#p3b781e9592)" style="fill: none; stroke: #b0b0b0; stroke-width: 0.8; stroke-linecap: square"/>
     </g>
     <g id="line2d_20">
      <g>
       <use xlink:href="#m180f8a6769" x="57.6" y="240.5376" style="stroke: #000000; stroke-width: 0.8"/>
      </g>
     </g>
     <g id="text_7">
      <!-- 0.2 -->
      <g transform="translate(25.155 246.61635)scale(0.16 -0.16)">
       <use xlink:href="#DejaVuSans-30"/>
       <use xlink:href="#DejaVuSans-2e" x="63.623047"/>
       <use xlink:href="#DejaVuSans-32" x="95.410156"/>
      </g>
     </g>
    </g>
    <g id="ytick_3">
     <g id="line2d_21">
      <path d="M 57.6 182.1312 
L 360.8064 182.1312 
" clip-path="url(#p3b781e9592)" style="fill: none; stroke: #b0b0b0; stroke-width: 0.8; stroke-linecap: square"/>
     </g>
     <g id="line2d_22">
      <g>
       <use xlink:href="#m180f8a6769" x="57.6" y="182.1312" style="stroke: #000000; stroke-width: 0.8"/>
      </g>
     </g>
     <g id="text_8">
      <!-- 0.4 -->
      <g transform="translate(25.155 188.20995)scale(0.16 -0.16)">
       <use xlink:href="#DejaVuSans-30"/>
       <use xlink:href="#DejaVuSans-2e" x="63.623047"/>
       <use xlink:href="#DejaVuSans-34" x="95.410156"/>
      </g>
     </g>
    </g>
    <g id="ytick_4">
     <g id="line2d_23">
      <path d="M 57.6 123.7248 
L 360.8064 123.7248 
" clip-path="url(#p3b781e9592)" style="fill: none; stroke: #b0b0b0; stroke-width: 0.8; stroke-linecap: square"/>
     </g>
     <g id="line2d_24">
      <g>
       <use xlink:href="#m180f8a6769" x="57.6" y="123.7248" style="stroke: #000000; stroke-width: 0.8"/>
      </g>
     </g>
     <g id="text_9">
      <!-- 0.6 -->
      <g transform="translate(25.155 129.80355)scale(0.16 -0.16)">
       <use xlink:href="#DejaVuSans-30"/>
       <use xlink:href="#DejaVuSans-2e" x="63.623047"/>
       <use xlink:href="#DejaVuSans-36" x="95.410156"/>
      </g>
     </g>
    </g>
    <g id="ytick_5">
     <g id="line2d_25">
      <path d="M 57.6 65.3184 
L 360.8064 65.3184 
" clip-path="url(#p3b781e9592)" style="fill: none; stroke: #b0b0b0; stroke-width: 0.8; stroke-linecap: square"/>
     </g>
     <g id="line2d_26">
      <g>
       <use xlink:href="#m180f8a6769" x="57.6" y="65.3184" style="stroke: #000000; stroke-width: 0.8"/>
      </g>
     </g>
     <g id="text_10">
      <!-- 0.8 -->
      <g transform="translate(25.155 71.39715)scale(0.16 -0.16)">
       <defs>
        <path id="DejaVuSans-38" d="M 2034 2216 
Q 1584 2216 1326 1975 
Q 1069 1734 1069 1313 
Q 1069 891 1326 650 
Q 1584 409 2034 409 
Q 2484 409 2743 651 
Q 3003 894 3003 1313 
Q 3003 1734 2745 1975 
Q 2488 2216 2034 2216 
z
M 1403 2484 
Q 997 2584 770 2862 
Q 544 3141 544 3541 
Q 544 4100 942 4425 
Q 1341 4750 2034 4750 
Q 2731 4750 3128 4425 
Q 3525 4100 3525 3541 
Q 3525 3141 3298 2862 
Q 3072 2584 2669 2484 
Q 3125 2378 3379 2068 
Q 3634 1759 3634 1313 
Q 3634 634 3220 271 
Q 2806 -91 2034 -91 
Q 1263 -91 848 271 
Q 434 634 434 1313 
Q 434 1759 690 2068 
Q 947 2378 1403 2484 
z
M 1172 3481 
Q 1172 3119 1398 2916 
Q 1625 2713 2034 2713 
Q 2441 2713 2670 2916 
Q 2900 3119 2900 3481 
Q 2900 3844 2670 4047 
Q 2441 4250 2034 4250 
Q 1625 4250 1398 4047 
Q 1172 3844 1172 3481 
z
" transform="scale(0.015625)"/>
       </defs>
       <use xlink:href="#DejaVuSans-30"/>
       <use xlink:href="#DejaVuSans-2e" x="63.623047"/>
       <use xlink:href="#DejaVuSans-38" x="95.410156"/>
      </g>
     </g>
    </g>
    <g id="ytick_6">
     <g id="line2d_27">
      <path d="M 57.6 6.912 
L 360.8064 6.912 
" clip-path="url(#p3b781e9592)" style="fill: none; stroke: #b0b0b0; stroke-width: 0.8; stroke-linecap: square"/>
     </g>
     <g id="line2d_28">
      <g>
       <use xlink:href="#m180f8a6769" x="57.6" y="6.912" style="stroke: #000000; stroke-width: 0.8"/>
      </g>
     </g>
     <g id="text_11">
      <!-- 1.0 -->
      <g transform="translate(25.155 12.99075)scale(0.16 -0.16)">
       <use xlink:href="#DejaVuSans-31"/>
       <use xlink:href="#DejaVuSans-2e" x="63.623047"/>
       <use xlink:href="#DejaVuSans-30" x="95.410156"/>
      </g>
     </g>
    </g>
    <g id="text_12">
     <!-- Fraction of function,target pairs -->
     <g transform="translate(17.619531 287.313)rotate(-90)scale(0.17 -0.17)">
      <defs>
       <path id="DejaVuSans-46" d="M 628 4666 
L 3309 4666 
L 3309 4134 
L 1259 4134 
L 1259 2759 
L 3109 2759 
L 3109 2228 
L 1259 2228 
L 1259 0 
L 628 0 
L 628 4666 
z
" transform="scale(0.015625)"/>
       <path id="DejaVuSans-72" d="M 2631 2963 
Q 2534 3019 2420 3045 
Q 2306 3072 2169 3072 
Q 1681 3072 1420 2755 
Q 1159 2438 1159 1844 
L 1159 0 
L 581 0 
L 581 3500 
L 1159 3500 
L 1159 2956 
Q 1341 3275 1631 3429 
Q 1922 3584 2338 3584 
Q 2397 3584 2469 3576 
Q 2541 3569 2628 3553 
L 2631 2963 
z
" transform="scale(0.015625)"/>
       <path id="DejaVuSans-63" d="M 3122 3366 
L 3122 2828 
Q 2878 2963 2633 3030 
Q 2388 3097 2138 3097 
Q 1578 3097 1268 2742 
Q 959 2388 959 1747 
Q 959 1106 1268 751 
Q 1578 397 2138 397 
Q 2388 397 2633 464 
Q 2878 531 3122 666 
L 3122 134 
Q 2881 22 2623 -34 
Q 2366 -91 2075 -91 
Q 1284 -91 818 406 
Q 353 903 353 1747 
Q 353 2603 823 3093 
Q 1294 3584 2113 3584 
Q 2378 3584 2631 3529 
Q 2884 3475 3122 3366 
z
" transform="scale(0.015625)"/>
       <path id="DejaVuSans-74" d="M 1172 4494 
L 1172 3500 
L 2356 3500 
L 2356 3053 
L 1172 3053 
L 1172 1153 
Q 1172 725 1289 603 
Q 1406 481 1766 481 
L 2356 481 
L 2356 0 
L 1766 0 
Q 1100 0 847 248 
Q 594 497 594 1153 
L 594 3053 
L 172 3053 
L 172 3500 
L 594 3500 
L 594 4494 
L 1172 4494 
z
" transform="scale(0.015625)"/>
       <path id="DejaVuSans-75" d="M 544 1381 
L 544 3500 
L 1119 3500 
L 1119 1403 
Q 1119 906 1312 657 
Q 1506 409 1894 409 
Q 2359 409 2629 706 
Q 2900 1003 2900 1516 
L 2900 3500 
L 3475 3500 
L 3475 0 
L 2900 0 
L 2900 538 
Q 2691 219 2414 64 
Q 2138 -91 1772 -91 
Q 1169 -91 856 284 
Q 544 659 544 1381 
z
M 1991 3584 
L 1991 3584 
z
" transform="scale(0.015625)"/>
       <path id="DejaVuSans-2c" d="M 750 794 
L 1409 794 
L 1409 256 
L 897 -744 
L 494 -744 
L 750 256 
L 750 794 
z
" transform="scale(0.015625)"/>
       <path id="DejaVuSans-70" d="M 1159 525 
L 1159 -1331 
L 581 -1331 
L 581 3500 
L 1159 3500 
L 1159 2969 
Q 1341 3281 1617 3432 
Q 1894 3584 2278 3584 
Q 2916 3584 3314 3078 
Q 3713 2572 3713 1747 
Q 3713 922 3314 415 
Q 2916 -91 2278 -91 
Q 1894 -91 1617 61 
Q 1341 213 1159 525 
z
M 3116 1747 
Q 3116 2381 2855 2742 
Q 2594 3103 2138 3103 
Q 1681 3103 1420 2742 
Q 1159 2381 1159 1747 
Q 1159 1113 1420 752 
Q 1681 391 2138 391 
Q 2594 391 2855 752 
Q 3116 1113 3116 1747 
z
" transform="scale(0.015625)"/>
      </defs>
      <use xlink:href="#DejaVuSans-46"/>
      <use xlink:href="#DejaVuSans-72" x="50.269531"/>
      <use xlink:href="#DejaVuSans-61" x="91.382812"/>
      <use xlink:href="#DejaVuSans-63" x="152.662109"/>
      <use xlink:href="#DejaVuSans-74" x="207.642578"/>
      <use xlink:href="#DejaVuSans-69" x="246.851562"/>
      <use xlink:href="#DejaVuSans-6f" x="274.634766"/>
      <use xlink:href="#DejaVuSans-6e" x="335.816406"/>
      <use xlink:href="#DejaVuSans-20" x="399.195312"/>
      <use xlink:href="#DejaVuSans-6f" x="430.982422"/>
      <use xlink:href="#DejaVuSans-66" x="492.164062"/>
      <use xlink:href="#DejaVuSans-20" x="527.369141"/>
      <use xlink:href="#DejaVuSans-66" x="559.15625"/>
      <use xlink:href="#DejaVuSans-75" x="594.361328"/>
      <use xlink:href="#DejaVuSans-6e" x="657.740234"/>
      <use xlink:href="#DejaVuSans-63" x="721.119141"/>
      <use xlink:href="#DejaVuSans-74" x="776.099609"/>
      <use xlink:href="#DejaVuSans-69" x="815.308594"/>
      <use xlink:href="#DejaVuSans-6f" x="843.091797"/>
      <use xlink:href="#DejaVuSans-6e" x="904.273438"/>
      <use xlink:href="#DejaVuSans-2c" x="967.652344"/>
      <use xlink:href="#DejaVuSans-74" x="999.439453"/>
      <use xlink:href="#DejaVuSans-61" x="1038.648438"/>
      <use xlink:href="#DejaVuSans-72" x="1099.927734"/>
      <use xlink:href="#DejaVuSans-67" x="1139.291016"/>
      <use xlink:href="#DejaVuSans-65" x="1202.767578"/>
      <use xlink:href="#DejaVuSans-74" x="1264.291016"/>
      <use xlink:href="#DejaVuSans-20" x="1303.5"/>
      <use xlink:href="#DejaVuSans-70" x="1335.287109"/>
      <use xlink:href="#DejaVuSans-61" x="1398.763672"/>
      <use xlink:href="#DejaVuSans-69" x="1460.042969"/>
      <use xlink:href="#DejaVuSans-72" x="1487.826172"/>
      <use xlink:href="#DejaVuSans-73" x="1528.939453"/>
     </g>
    </g>
   </g>
   <g id="line2d_29">
    <defs>
     <path id="mf7723a1246" d="M 0 1.5 
C 0.397805 1.5 0.77937 1.341951 1.06066 1.06066 
C 1.341951 0.77937 1.5 0.397805 1.5 0 
C 1.5 -0.397805 1.341951 -0.77937 1.06066 -1.06066 
C 0.77937 -1.341951 0.397805 -1.5 0 -1.5 
C -0.397805 -1.5 -0.77937 -1.341951 -1.06066 -1.06066 
C -1.341951 -0.77937 -1.5 -0.397805 -1.5 0 
C -1.5 0.397805 -1.341951 0.77937 -1.06066 1.06066 
C -0.77937 1.341951 -0.397805 1.5 0 1.5 
z
" style="stroke: #00bfbf"/>
    </defs>
    <g>
     <use xlink:href="#mf7723a1246" x="168.508761" y="236.195294" style="fill: #00bfbf; stroke: #00bfbf"/>
     <use xlink:href="#mf7723a1246" x="168.508761" y="236.195294" style="fill: #00bfbf; stroke: #00bfbf"/>
    </g>
   </g>
   <g id="line2d_30">
    <path d="M 44.560826 298.944 
L 44.560826 282.815435 
L 57.6 282.815435 
L 57.6 278.711718 
L 65.227428 278.711718 
L 65.227428 276.516706 
L 70.639174 276.516706 
L 70.639174 273.939953 
L 74.836851 273.939953 
L 74.836851 272.842447 
L 78.266603 272.842447 
L 78.266603 272.031247 
L 81.166416 272.031247 
L 81.166416 270.790588 
L 83.678349 270.790588 
L 83.678349 270.122541 
L 85.894031 270.122541 
L 85.894031 268.022965 
L 87.876026 268.022965 
L 87.876026 267.402635 
L 89.668958 267.402635 
L 89.668958 264.778165 
L 91.305777 264.778165 
L 91.305777 264.396424 
L 92.811505 264.396424 
L 92.811505 264.0624 
L 94.205591 264.0624 
L 94.205591 263.632941 
L 95.503454 263.632941 
L 95.503454 262.869459 
L 96.717523 262.869459 
L 96.717523 262.487718 
L 97.857967 262.487718 
L 97.857967 261.485647 
L 98.933205 261.485647 
L 98.933205 259.052047 
L 99.950294 259.052047 
L 99.950294 258.527153 
L 100.9152 258.527153 
L 100.9152 257.668235 
L 101.833019 257.668235 
L 101.833019 257.047906 
L 102.708132 257.047906 
L 102.708132 256.666165 
L 103.544339 256.666165 
L 103.544339 256.284424 
L 105.112877 256.188988 
L 105.112877 255.616376 
L 105.850679 255.616376 
L 105.850679 255.425506 
L 106.560633 255.425506 
L 106.560633 254.685882 
L 107.244765 254.685882 
L 107.244765 254.471153 
L 107.904887 254.471153 
L 107.904887 254.304141 
L 108.542628 254.304141 
L 108.542628 254.113271 
L 109.756698 254.089412 
L 109.756698 253.755388 
L 110.335561 253.755388 
L 110.335561 253.564518 
L 110.897141 253.564518 
L 110.897141 252.968047 
L 111.97238 252.896471 
L 111.97238 251.464941 
L 112.989468 251.369506 
L 112.989468 251.226353 
L 113.954374 251.130918 
L 113.954374 251.035482 
L 114.418881 251.035482 
L 114.418881 250.916188 
L 114.872193 250.916188 
L 114.872193 250.558306 
L 115.314838 250.558306 
L 115.314838 249.341506 
L 116.170056 249.246071 
L 116.170056 248.983624 
L 116.583514 248.983624 
L 116.583514 248.578024 
L 116.988079 248.578024 
L 116.988079 248.411012 
L 117.384126 248.411012 
L 117.384126 248.267859 
L 118.152051 248.267859 
L 118.152051 248.005412 
L 118.524569 248.005412 
L 118.524569 247.886118 
L 118.889854 247.886118 
L 118.889854 247.289647 
L 119.24818 247.289647 
L 119.24818 247.170353 
L 119.944983 247.122635 
L 119.944983 247.003341 
L 120.616896 246.979482 
L 120.616896 246.860188 
L 121.265635 246.812471 
L 121.265635 246.597741 
L 121.892744 246.526165 
L 121.892744 245.881976 
L 122.795872 245.8104 
L 122.795872 245.762682 
L 123.374735 245.691106 
L 123.374735 245.619529 
L 123.657621 245.619529 
L 123.657621 245.380941 
L 123.936316 245.380941 
L 123.936316 244.689035 
L 124.481616 244.689035 
L 124.481616 244.426588 
L 124.748451 244.426588 
L 124.748451 244.283435 
L 125.271028 244.259576 
L 125.271028 244.092565 
L 125.779479 244.092565 
L 125.779479 243.973271 
L 126.028642 243.973271 
L 126.028642 243.7824 
L 126.274549 243.7824 
L 126.274549 243.352941 
L 126.517282 243.352941 
L 126.517282 243.233647 
L 127.911368 243.138212 
L 127.911368 243.018918 
L 128.354013 243.018918 
L 128.354013 242.470165 
L 129.622688 242.374729 
L 129.622688 242.183859 
L 129.826058 242.183859 
L 129.826058 242.016847 
L 130.226319 242.016847 
L 130.226319 241.7544 
L 130.4233 241.7544 
L 130.4233 241.587388 
L 131.191226 241.563529 
L 131.191226 241.468094 
L 131.563744 241.396518 
L 131.563744 241.134071 
L 131.929028 241.086353 
L 131.929028 241.014776 
L 132.812362 240.919341 
L 132.812362 240.776188 
L 133.154399 240.776188 
L 133.154399 240.585318 
L 134.14471 240.489882 
L 134.14471 240.418306 
L 134.304809 240.418306 
L 134.304809 240.203576 
L 134.77709 240.108141 
L 134.77709 240.012706 
L 135.388902 239.964988 
L 135.388902 239.893412 
L 135.687504 239.845694 
L 135.687504 239.630965 
L 136.126705 239.535529 
L 136.126705 239.511671 
L 136.97549 239.416235 
L 136.97549 239.273082 
L 137.787626 239.225365 
L 137.787626 239.129929 
L 138.180913 239.058353 
L 138.180913 239.010635 
L 139.067817 238.9152 
L 139.067817 238.795906 
L 139.914782 238.724329 
L 139.914782 238.652753 
L 140.14993 238.652753 
L 140.14993 238.5096 
L 140.950542 238.438024 
L 140.950542 238.390306 
L 141.718467 238.294871 
L 141.718467 238.247153 
L 142.865233 238.175576 
L 142.865233 238.104 
L 143.754133 238.008565 
L 143.850356 237.913129 
L 144.417581 237.865412 
L 144.417581 237.722259 
L 145.765046 237.650682 
L 145.765046 237.579106 
L 146.612557 237.507529 
L 146.695245 237.435953 
L 147.660152 237.340518 
L 147.660152 237.316659 
L 148.947561 237.221224 
L 148.947561 237.197365 
L 150.221009 237.101929 
L 150.221009 237.078071 
L 151.349377 236.982635 
L 151.349377 236.958776 
L 152.106991 236.863341 
L 152.106991 236.791765 
L 153.071898 236.720188 
L 153.071898 236.672471 
L 154.971412 236.577035 
L 154.971412 236.553176 
L 157.175281 236.457741 
L 157.175281 236.433882 
L 161.617145 236.338447 
L 161.617145 236.314588 
L 168.508761 236.219153 
L 168.508761 236.195294 
L 360.8064 236.195294 
L 360.8064 236.195294 
" style="fill: none; stroke: #00bfbf; stroke-width: 1.5; stroke-linecap: square"/>
   </g>
   <g id="line2d_31">
    <defs>
     <path id="m5f8f793a8b" d="M -6 0 
L 6 0 
M 0 6 
L 0 -6 
" style="stroke: #00bfbf; stroke-width: 1.5"/>
    </defs>
    <g>
     <use xlink:href="#m5f8f793a8b" x="97.857967" y="261.485647" style="fill-opacity: 0; stroke: #00bfbf; stroke-width: 1.5"/>
     <use xlink:href="#m5f8f793a8b" x="126.756923" y="243.233647" style="fill-opacity: 0; stroke: #00bfbf; stroke-width: 1.5"/>
     <use xlink:href="#m5f8f793a8b" x="168.508761" y="236.219153" style="fill-opacity: 0; stroke: #00bfbf; stroke-width: 1.5"/>
     <use xlink:href="#m5f8f793a8b" x="168.508761" y="236.195294" style="fill-opacity: 0; stroke: #00bfbf; stroke-width: 1.5"/>
     <use xlink:href="#m5f8f793a8b" x="360.8064" y="236.195294" style="fill-opacity: 0; stroke: #00bfbf; stroke-width: 1.5"/>
    </g>
   </g>
   <g id="line2d_32">
    <path style="fill: none; stroke: #00bfbf; stroke-width: 1.5; stroke-linecap: square"/>
    <g/>
   </g>
   <g id="line2d_33">
    <path d="M 105.112877 255.616376 
" clip-path="url(#p3b781e9592)" style="fill: none; stroke: #00bfbf; stroke-width: 1.5; stroke-linecap: square"/>
    <defs>
     <path id="ma2eaa914a2" d="M -12 12 
L 12 -12 
M -12 -12 
L 12 12 
" style="stroke: #00bfbf"/>
    </defs>
    <g clip-path="url(#p3b781e9592)">
     <use xlink:href="#ma2eaa914a2" x="105.112877" y="255.616376" style="fill: #00bfbf; stroke: #00bfbf"/>
    </g>
   </g>
   <g id="line2d_34">
    <defs>
     <path id="md9526efb26" d="M 0 1.5 
C 0.397805 1.5 0.77937 1.341951 1.06066 1.06066 
C 1.341951 0.77937 1.5 0.397805 1.5 0 
C 1.5 -0.397805 1.341951 -0.77937 1.06066 -1.06066 
C 0.77937 -1.341951 0.397805 -1.5 0 -1.5 
C -0.397805 -1.5 -0.77937 -1.341951 -1.06066 -1.06066 
C -1.341951 -0.77937 -1.5 -0.397805 -1.5 0 
C -1.5 0.397805 -1.341951 0.77937 -1.06066 1.06066 
C -0.77937 1.341951 -0.397805 1.5 0 1.5 
z
" style="stroke: #008000"/>
    </defs>
    <g>
     <use xlink:href="#md9526efb26" x="171.596158" y="250.987765" style="fill: #008000; stroke: #008000"/>
     <use xlink:href="#md9526efb26" x="171.596158" y="250.987765" style="fill: #008000; stroke: #008000"/>
    </g>
   </g>
   <g id="line2d_35">
    <path d="M 36.933397 298.944 
L 36.933397 285.296753 
L 49.972572 285.296753 
L 49.972572 284.390118 
L 57.6 284.390118 
L 57.6 283.101741 
L 63.011746 283.101741 
L 63.011746 282.385976 
L 67.209423 282.385976 
L 67.209423 281.574776 
L 70.639174 281.574776 
L 70.639174 281.145318 
L 73.538988 281.145318 
L 73.538988 280.668141 
L 76.050921 280.668141 
L 76.050921 280.190965 
L 78.266603 280.190965 
L 78.266603 279.570635 
L 80.248597 279.570635 
L 80.248597 278.998024 
L 82.04153 278.998024 
L 82.04153 278.139106 
L 83.678349 278.139106 
L 83.678349 277.327906 
L 85.184077 277.327906 
L 85.184077 277.184753 
L 86.578163 277.184753 
L 86.578163 276.612141 
L 87.876026 276.612141 
L 87.876026 276.278118 
L 89.090095 276.278118 
L 89.090095 275.991812 
L 90.230539 275.991812 
L 90.230539 275.705506 
L 91.305777 275.705506 
L 91.305777 275.4192 
L 92.322865 275.4192 
L 92.322865 275.180612 
L 93.287772 275.180612 
L 93.287772 274.560282 
L 94.205591 274.560282 
L 94.205591 273.701365 
L 95.080704 273.701365 
L 95.080704 273.271906 
L 95.916911 273.271906 
L 95.916911 272.842447 
L 96.717523 272.842447 
L 96.717523 272.460706 
L 97.485448 272.460706 
L 97.485448 272.269835 
L 98.223251 272.269835 
L 98.223251 272.031247 
L 98.933205 272.031247 
L 98.933205 269.883953 
L 99.617337 269.883953 
L 99.617337 269.7408 
L 100.277459 269.7408 
L 100.277459 269.120471 
L 100.9152 269.120471 
L 100.9152 268.595576 
L 101.532027 268.595576 
L 101.532027 268.070682 
L 102.12927 268.070682 
L 102.12927 267.736659 
L 103.269713 267.688941 
L 103.269713 263.871529 
L 103.815014 263.871529 
L 103.815014 263.442071 
L 104.860369 263.346635 
L 104.860369 263.2512 
L 107.244765 263.155765 
L 107.244765 263.131906 
L 108.119879 263.131906 
L 108.119879 262.941035 
L 109.360651 262.8456 
L 109.360651 262.750165 
L 109.756698 262.750165 
L 109.756698 262.44 
L 110.897141 262.392282 
L 110.897141 262.177553 
L 112.317555 262.082118 
L 112.317555 262.010541 
L 112.656511 262.010541 
L 112.656511 261.867388 
L 112.989468 261.867388 
L 112.989468 261.6288 
L 113.316634 261.6288 
L 113.316634 261.509506 
L 113.954374 261.485647 
L 113.954374 261.294776 
L 114.872193 261.2232 
L 114.872193 260.412 
L 115.460102 260.412 
L 115.460102 260.173412 
L 115.747307 260.173412 
L 115.747307 259.982541 
L 116.030193 259.982541 
L 116.030193 259.672376 
L 116.583514 259.576941 
L 116.583514 259.553082 
L 116.854188 259.553082 
L 116.854188 258.049976 
L 117.121023 258.049976 
L 117.121023 257.859106 
L 118.64712 257.763671 
L 118.64712 257.692094 
L 119.599808 257.596659 
L 119.599808 257.525082 
L 120.28394 257.477365 
L 120.28394 257.405788 
L 120.726585 257.405788 
L 120.726585 257.238776 
L 121.371615 257.1672 
L 121.371615 257.119482 
L 121.789667 257.024047 
L 121.789667 256.976329 
L 121.99526 256.976329 
L 121.99526 256.833176 
L 122.795872 256.7616 
L 122.795872 256.666165 
L 123.374735 256.594588 
L 123.374735 256.236706 
L 123.936316 256.165129 
L 123.936316 255.998118 
L 124.119844 255.998118 
L 124.119844 255.831106 
L 124.3016 255.831106 
L 124.3016 255.664094 
L 124.659926 255.664094 
L 124.659926 255.091482 
L 125.862901 255.019906 
L 125.862901 254.948329 
L 127.304491 254.876753 
L 127.304491 254.805176 
L 128.354013 254.709741 
L 128.354013 254.685882 
L 128.786481 254.638165 
L 128.786481 254.566588 
L 129.209231 254.542729 
L 129.209231 254.375718 
L 129.758512 254.304141 
L 129.758512 254.160988 
L 129.893363 254.160988 
L 129.893363 254.041694 
L 130.160198 254.041694 
L 130.160198 253.779247 
L 131.686295 253.683812 
L 131.686295 253.659953 
L 132.287354 253.564518 
L 132.287354 253.469082 
L 133.323114 253.373647 
L 133.323114 253.325929 
L 133.656071 253.302071 
L 133.656071 253.206635 
L 134.091039 253.182776 
L 134.198228 253.015765 
L 135.538796 252.920329 
L 135.538796 252.896471 
L 136.790153 252.801035 
L 136.790153 252.777176 
L 137.699101 252.7056 
L 137.699101 252.634024 
L 139.556456 252.538588 
L 139.556456 252.490871 
L 140.573544 252.395435 
L 140.649551 252.276141 
L 142.317949 252.180706 
L 142.317949 252.156847 
L 143.133017 252.061412 
L 143.199372 251.942118 
L 145.326529 251.846682 
L 145.385592 251.798965 
L 146.750169 251.703529 
L 146.750169 251.679671 
L 147.397049 251.631953 
L 147.397049 251.560376 
L 149.214052 251.512659 
L 149.214052 251.441082 
L 150.604701 251.345647 
L 150.604701 251.321788 
L 154.432362 251.226353 
L 154.432362 251.202494 
L 157.487772 251.107059 
L 157.487772 251.059341 
L 360.8064 250.987765 
L 360.8064 250.987765 
" style="fill: none; stroke: #008000; stroke-width: 1.5; stroke-linecap: square"/>
   </g>
   <g id="line2d_36">
    <defs>
     <path id="m0ff45411c5" d="M -0 6 
L 6 -6 
L -6 -6 
z
" style="stroke: #008000; stroke-width: 1.5; stroke-linejoin: miter"/>
    </defs>
    <g>
     <use xlink:href="#m0ff45411c5" x="83.678349" y="278.139106" style="fill-opacity: 0; stroke: #008000; stroke-width: 1.5; stroke-linejoin: miter"/>
     <use xlink:href="#m0ff45411c5" x="125.862901" y="254.948329" style="fill-opacity: 0; stroke: #008000; stroke-width: 1.5; stroke-linejoin: miter"/>
     <use xlink:href="#m0ff45411c5" x="171.596158" y="251.011624" style="fill-opacity: 0; stroke: #008000; stroke-width: 1.5; stroke-linejoin: miter"/>
     <use xlink:href="#m0ff45411c5" x="171.596158" y="250.987765" style="fill-opacity: 0; stroke: #008000; stroke-width: 1.5; stroke-linejoin: miter"/>
     <use xlink:href="#m0ff45411c5" x="171.596158" y="250.987765" style="fill-opacity: 0; stroke: #008000; stroke-width: 1.5; stroke-linejoin: miter"/>
     <use xlink:href="#m0ff45411c5" x="360.8064" y="250.987765" style="fill-opacity: 0; stroke: #008000; stroke-width: 1.5; stroke-linejoin: miter"/>
    </g>
   </g>
   <g id="line2d_37">
    <path style="fill: none; stroke: #008000; stroke-width: 1.5; stroke-linecap: square"/>
    <g/>
   </g>
   <g id="line2d_38">
    <path d="M 104.344952 263.346635 
" clip-path="url(#p3b781e9592)" style="fill: none; stroke: #008000; stroke-width: 1.5; stroke-linecap: square"/>
    <defs>
     <path id="mb3556f391b" d="M -12 12 
L 12 -12 
M -12 -12 
L 12 12 
" style="stroke: #008000"/>
    </defs>
    <g clip-path="url(#p3b781e9592)">
     <use xlink:href="#mb3556f391b" x="104.344952" y="263.346635" style="fill: #008000; stroke: #008000"/>
    </g>
   </g>
   <g id="line2d_39">
    <defs>
     <path id="m6d0f2c9dfa" d="M 0 1.5 
C 0.397805 1.5 0.77937 1.341951 1.06066 1.06066 
C 1.341951 0.77937 1.5 0.397805 1.5 0 
C 1.5 -0.397805 1.341951 -0.77937 1.06066 -1.06066 
C 0.77937 -1.341951 0.397805 -1.5 0 -1.5 
C -0.397805 -1.5 -0.77937 -1.341951 -1.06066 -1.06066 
C -1.341951 -0.77937 -1.5 -0.397805 -1.5 0 
C -1.5 0.397805 -1.341951 0.77937 -1.06066 1.06066 
C -0.77937 1.341951 -0.397805 1.5 0 1.5 
z
" style="stroke: #0000ff"/>
    </defs>
    <g>
     <use xlink:href="#m6d0f2c9dfa" x="166.367969" y="259.099765" style="fill: #0000ff; stroke: #0000ff"/>
     <use xlink:href="#m6d0f2c9dfa" x="166.367969" y="259.099765" style="fill: #0000ff; stroke: #0000ff"/>
    </g>
   </g>
   <g id="line2d_40">
    <path d="M 27.323974 298.944 
L 27.323974 289.161882 
L 40.363149 289.161882 
L 40.363149 288.207529 
L 47.990577 288.207529 
L 47.990577 287.491765 
L 53.402323 287.491765 
L 53.402323 287.014588 
L 57.6 287.014588 
L 57.6 286.776 
L 61.029752 286.776 
L 61.029752 286.441976 
L 63.929565 286.441976 
L 63.929565 285.773929 
L 66.441498 285.773929 
L 66.441498 285.583059 
L 70.639174 285.487624 
L 70.639174 285.010447 
L 72.432107 285.010447 
L 72.432107 284.819576 
L 74.068926 284.819576 
L 74.068926 284.580988 
L 75.574654 284.580988 
L 75.574654 284.103812 
L 76.96874 284.103812 
L 76.96874 283.960659 
L 78.266603 283.960659 
L 78.266603 282.910871 
L 80.621116 282.815435 
L 80.621116 282.195106 
L 82.713442 282.147388 
L 82.713442 282.004235 
L 83.678349 282.004235 
L 83.678349 281.813365 
L 84.596168 281.813365 
L 84.596168 281.479341 
L 86.307488 281.479341 
L 86.307488 281.049882 
L 87.1081 281.049882 
L 87.1081 280.859012 
L 88.613828 280.763576 
L 88.613828 280.334118 
L 89.323782 280.334118 
L 89.323782 280.190965 
L 90.007914 280.190965 
L 90.007914 280.047812 
L 91.922605 279.952376 
L 91.922605 279.713788 
L 92.519847 279.713788 
L 92.519847 279.379765 
L 93.098709 279.379765 
L 93.098709 279.141176 
L 94.735529 279.045741 
L 94.735529 278.616282 
L 95.250946 278.616282 
L 95.250946 277.948235 
L 95.752617 277.948235 
L 95.752617 277.566494 
L 97.18203 277.471059 
L 97.18203 277.375624 
L 97.635342 277.375624 
L 97.635342 277.089318 
L 98.510456 276.993882 
L 98.510456 276.612141 
L 98.933205 276.612141 
L 98.933205 276.2304 
L 99.346662 276.2304 
L 99.346662 276.087247 
L 100.535156 276.039529 
L 100.535156 275.848659 
L 100.9152 275.848659 
L 100.9152 273.653647 
L 101.287718 273.653647 
L 101.287718 271.601788 
L 101.653002 271.601788 
L 101.653002 271.076894 
L 102.708132 270.981459 
L 102.708132 270.886024 
L 103.380045 270.790588 
L 103.380045 270.647435 
L 104.344952 270.575859 
L 104.344952 270.504282 
L 105.559021 270.432706 
L 105.559021 270.337271 
L 106.42077 270.337271 
L 106.42077 270.194118 
L 108.29012 270.122541 
L 108.29012 270.050965 
L 109.280431 270.027106 
L 109.280431 269.883953 
L 109.756698 269.883953 
L 109.756698 269.669224 
L 110.449226 269.669224 
L 110.449226 269.478353 
L 111.97238 269.430635 
L 111.97238 269.311341 
L 112.790402 269.239765 
L 112.790402 269.192047 
L 113.57433 269.096612 
L 113.57433 269.072753 
L 114.510421 268.977318 
L 114.510421 268.953459 
L 115.227139 268.905741 
L 115.227139 267.7128 
L 115.402131 267.7128 
L 115.402131 266.472141 
L 115.575511 266.472141 
L 115.575511 266.305129 
L 116.253478 266.209694 
L 116.253478 266.138118 
L 117.695068 266.066541 
L 117.695068 265.994965 
L 118.301945 265.923388 
L 118.301945 265.875671 
L 119.599808 265.780235 
L 119.599808 265.708659 
L 120.28394 265.637082 
L 120.28394 265.589365 
L 121.201758 265.565506 
L 121.201758 265.446212 
L 121.830966 265.374635 
L 121.830966 265.326918 
L 122.795872 265.255341 
L 122.795872 265.207624 
L 123.260379 265.159906 
L 123.260379 264.515718 
L 123.374735 264.515718 
L 123.374735 263.847671 
L 123.4884 263.847671 
L 123.4884 263.728376 
L 123.936316 263.680659 
L 124.046648 263.537506 
L 125.628382 263.465929 
L 125.628382 263.418212 
L 126.709238 263.370494 
L 126.709238 263.275059 
L 127.549596 263.179624 
L 127.549596 263.155765 
L 128.354013 263.084188 
L 128.354013 263.036471 
L 128.871795 262.988753 
L 128.956723 262.153694 
L 129.292652 262.082118 
L 129.375706 261.938965 
L 131.115828 261.891247 
L 131.115828 261.819671 
L 132.001241 261.724235 
L 132.001241 261.581082 
L 132.499119 261.485647 
L 132.499119 261.461788 
L 133.188264 261.414071 
L 133.25581 261.151624 
L 133.589949 261.080047 
L 133.589949 261.032329 
L 135.298389 260.960753 
L 135.298389 260.913035 
L 136.640557 260.8176 
L 136.696795 260.650588 
L 136.752866 260.650588 
L 136.808769 260.507435 
L 138.154948 260.412 
L 138.206842 260.364282 
L 139.652679 260.316565 
L 139.700607 260.149553 
L 141.48048 260.101835 
L 141.48048 260.030259 
L 142.248405 259.982541 
L 142.290162 259.887106 
L 143.811926 259.791671 
L 143.888708 259.648518 
L 145.076419 259.553082 
L 145.184016 259.505365 
L 147.375841 259.409929 
L 147.375841 259.386071 
L 149.252502 259.314494 
L 149.252502 259.266776 
L 156.065535 259.171341 
L 156.065535 259.147482 
L 360.8064 259.099765 
L 360.8064 259.099765 
" style="fill: none; stroke: #0000ff; stroke-width: 1.5; stroke-linecap: square"/>
   </g>
   <g id="line2d_41">
    <defs>
     <path id="m2a7b7d32a6" d="M 0 -6 
L -1.347084 -1.854102 
L -5.706339 -1.854102 
L -2.179628 0.708204 
L -3.526712 4.854102 
L -0 2.291796 
L 3.526712 4.854102 
L 2.179628 0.708204 
L 5.706339 -1.854102 
L 1.347084 -1.854102 
z
" style="stroke: #0000ff; stroke-width: 1.5; stroke-linejoin: bevel"/>
    </defs>
    <g>
     <use xlink:href="#m2a7b7d32a6" x="102.708132" y="270.981459" style="fill-opacity: 0; stroke: #0000ff; stroke-width: 1.5; stroke-linejoin: bevel"/>
     <use xlink:href="#m2a7b7d32a6" x="156.065535" y="259.147482" style="fill-opacity: 0; stroke: #0000ff; stroke-width: 1.5; stroke-linejoin: bevel"/>
     <use xlink:href="#m2a7b7d32a6" x="166.367969" y="259.099765" style="fill-opacity: 0; stroke: #0000ff; stroke-width: 1.5; stroke-linejoin: bevel"/>
     <use xlink:href="#m2a7b7d32a6" x="166.367969" y="259.099765" style="fill-opacity: 0; stroke: #0000ff; stroke-width: 1.5; stroke-linejoin: bevel"/>
     <use xlink:href="#m2a7b7d32a6" x="166.367969" y="259.099765" style="fill-opacity: 0; stroke: #0000ff; stroke-width: 1.5; stroke-linejoin: bevel"/>
     <use xlink:href="#m2a7b7d32a6" x="360.8064" y="259.099765" style="fill-opacity: 0; stroke: #0000ff; stroke-width: 1.5; stroke-linejoin: bevel"/>
    </g>
   </g>
   <g id="line2d_42">
    <path style="fill: none; stroke: #0000ff; stroke-width: 1.5; stroke-linecap: square"/>
    <g/>
   </g>
   <g id="line2d_43">
    <path d="M 103.380045 270.647435 
" clip-path="url(#p3b781e9592)" style="fill: none; stroke: #0000ff; stroke-width: 1.5; stroke-linecap: square"/>
    <defs>
     <path id="mb73f5d46d9" d="M -12 12 
L 12 -12 
M -12 -12 
L 12 12 
" style="stroke: #0000ff"/>
    </defs>
    <g clip-path="url(#p3b781e9592)">
     <use xlink:href="#mb73f5d46d9" x="103.380045" y="270.647435" style="fill: #0000ff; stroke: #0000ff"/>
    </g>
   </g>
   <g id="line2d_44">
    <defs>
     <path id="ma40f3127c3" d="M 0 1.5 
C 0.397805 1.5 0.77937 1.341951 1.06066 1.06066 
C 1.341951 0.77937 1.5 0.397805 1.5 0 
C 1.5 -0.397805 1.341951 -0.77937 1.06066 -1.06066 
C 0.77937 -1.341951 0.397805 -1.5 0 -1.5 
C -0.397805 -1.5 -0.77937 -1.341951 -1.06066 -1.06066 
C -1.341951 -0.77937 -1.5 -0.397805 -1.5 0 
C -1.5 0.397805 -1.341951 0.77937 -1.06066 1.06066 
C -0.77937 1.341951 -0.397805 1.5 0 1.5 
z
" style="stroke: #000000"/>
    </defs>
    <g>
     <use xlink:href="#ma40f3127c3" x="154.746889" y="268.881882" style="stroke: #000000"/>
     <use xlink:href="#ma40f3127c3" x="154.746889" y="268.881882" style="stroke: #000000"/>
    </g>
   </g>
   <g id="line2d_45">
    <path d="M 14.2848 298.944 
L 14.2848 290.927435 
L 27.323974 290.927435 
L 27.323974 290.450259 
L 34.951403 290.450259 
L 34.951403 290.211671 
L 44.560826 290.116235 
L 44.560826 289.734494 
L 47.990577 289.734494 
L 47.990577 289.543624 
L 50.890391 289.543624 
L 50.890391 289.400471 
L 53.402323 289.400471 
L 53.402323 289.257318 
L 61.029752 289.161882 
L 61.029752 289.066447 
L 63.929565 289.066447 
L 63.929565 288.827859 
L 66.441498 288.732424 
L 66.441498 288.636988 
L 67.581941 288.636988 
L 67.581941 288.493835 
L 69.674268 288.3984 
L 69.674268 288.350682 
L 73.268314 288.255247 
L 73.268314 288.159812 
L 76.284608 288.064376 
L 76.284608 287.968941 
L 78.266603 287.921224 
L 78.266603 287.825788 
L 78.88343 287.825788 
L 78.88343 287.682635 
L 81.166416 287.5872 
L 81.166416 287.539482 
L 81.696354 287.539482 
L 81.696354 287.396329 
L 82.211771 287.396329 
L 82.211771 287.253176 
L 84.142855 287.157741 
L 84.142855 287.110024 
L 84.596168 287.110024 
L 84.596168 286.823718 
L 85.894031 286.776 
L 85.894031 286.632847 
L 86.307488 286.632847 
L 86.307488 286.441976 
L 87.1081 286.346541 
L 87.1081 286.298824 
L 87.876026 286.298824 
L 87.876026 286.155671 
L 88.613828 286.155671 
L 88.613828 286.012518 
L 89.323782 286.012518 
L 89.323782 285.821647 
L 90.007914 285.773929 
L 90.007914 285.678494 
L 91.305777 285.630776 
L 91.305777 285.535341 
L 91.922605 285.535341 
L 91.922605 285.344471 
L 92.223596 285.344471 
L 92.223596 284.962729 
L 94.205591 284.915012 
L 94.205591 284.771859 
L 94.472426 284.771859 
L 94.472426 284.008376 
L 95.250946 283.912941 
L 95.250946 283.817506 
L 95.752617 283.722071 
L 95.752617 283.674353 
L 95.998523 283.674353 
L 95.998523 281.574776 
L 96.241256 281.574776 
L 96.241256 279.332047 
L 97.410051 279.236612 
L 97.410051 279.188894 
L 97.635342 279.188894 
L 97.635342 278.854871 
L 98.077987 278.854871 
L 98.077987 277.423341 
L 100.535156 277.327906 
L 100.535156 277.137035 
L 100.726138 277.137035 
L 100.726138 276.946165 
L 105.99483 276.850729 
L 105.99483 276.826871 
L 108.162584 276.755294 
L 108.162584 276.683718 
L 110.106149 276.612141 
L 110.106149 276.445129 
L 110.221204 276.445129 
L 110.221204 276.206541 
L 111.117162 276.206541 
L 111.226215 275.705506 
L 111.762192 275.681647 
L 111.86758 273.963812 
L 112.487797 273.963812 
L 112.487797 273.7968 
L 112.690074 273.7968 
L 112.790402 273.081035 
L 113.954374 272.9856 
L 113.954374 272.937882 
L 117.540239 272.842447 
L 117.617813 272.770871 
L 119.177058 272.747012 
L 119.24818 272.508424 
L 120.216635 272.436847 
L 120.28394 271.983529 
L 120.813877 271.911953 
L 120.813877 271.792659 
L 124.101572 271.721082 
L 124.156336 271.625647 
L 125.322496 271.530212 
L 125.322496 271.434776 
L 126.028642 271.3632 
L 126.078082 271.005318 
L 126.468985 270.9576 
L 126.468985 270.790588 
L 127.087372 270.719012 
L 127.087372 270.552 
L 129.86647 270.480424 
L 129.906795 270.337271 
L 130.46245 270.289553 
L 130.501519 270.1464 
L 131.303758 270.050965 
L 131.303758 270.003247 
L 133.556801 269.931671 
L 133.589949 269.764659 
L 136.668697 269.693082 
L 136.668697 269.549929 
L 141.128852 269.454494 
L 141.128852 269.430635 
L 142.373399 269.3352 
L 142.394151 269.263624 
L 147.816265 269.168188 
L 147.816265 269.144329 
L 150.234685 269.072753 
L 150.234685 269.025035 
L 153.978516 268.953459 
L 153.978516 268.905741 
L 360.8064 268.881882 
L 360.8064 268.881882 
" style="fill: none; stroke: #000000; stroke-width: 1.5; stroke-linecap: square"/>
   </g>
   <g id="line2d_46">
    <defs>
     <path id="mb724d4e1e6" d="M 0 6 
C 1.591219 6 3.117479 5.367802 4.242641 4.242641 
C 5.367802 3.117479 6 1.591219 6 0 
C 6 -1.591219 5.367802 -3.117479 4.242641 -4.242641 
C 3.117479 -5.367802 1.591219 -6 0 -6 
C -1.591219 -6 -3.117479 -5.367802 -4.242641 -4.242641 
C -5.367802 -3.117479 -6 -1.591219 -6 0 
C -6 1.591219 -5.367802 3.117479 -4.242641 4.242641 
C -3.117479 5.367802 -1.591219 6 0 6 
z
" style="stroke: #000000; stroke-width: 1.5"/>
    </defs>
    <g>
     <use xlink:href="#mb724d4e1e6" x="92.223596" y="284.962729" style="fill-opacity: 0; stroke: #000000; stroke-width: 1.5"/>
     <use xlink:href="#mb724d4e1e6" x="154.746889" y="268.905741" style="fill-opacity: 0; stroke: #000000; stroke-width: 1.5"/>
     <use xlink:href="#mb724d4e1e6" x="154.746889" y="268.881882" style="fill-opacity: 0; stroke: #000000; stroke-width: 1.5"/>
     <use xlink:href="#mb724d4e1e6" x="154.746889" y="268.881882" style="fill-opacity: 0; stroke: #000000; stroke-width: 1.5"/>
     <use xlink:href="#mb724d4e1e6" x="154.746889" y="268.881882" style="fill-opacity: 0; stroke: #000000; stroke-width: 1.5"/>
     <use xlink:href="#mb724d4e1e6" x="360.8064" y="268.881882" style="fill-opacity: 0; stroke: #000000; stroke-width: 1.5"/>
    </g>
   </g>
   <g id="line2d_47">
    <path style="fill: none; stroke: #000000; stroke-width: 1.5; stroke-linecap: square"/>
    <g/>
   </g>
   <g id="line2d_48">
    <path d="M 101.102381 276.946165 
" clip-path="url(#p3b781e9592)" style="fill: none; stroke: #000000; stroke-width: 1.5; stroke-linecap: square"/>
    <defs>
     <path id="mbd1a91e77f" d="M -12 12 
L 12 -12 
M -12 -12 
L 12 12 
" style="stroke: #000000"/>
    </defs>
    <g clip-path="url(#p3b781e9592)">
     <use xlink:href="#mbd1a91e77f" x="101.102381" y="276.946165" style="stroke: #000000"/>
    </g>
   </g>
   <g id="line2d_49">
    <defs>
     <path id="m7c33ac3219" d="M 0 1.5 
C 0.397805 1.5 0.77937 1.341951 1.06066 1.06066 
C 1.341951 0.77937 1.5 0.397805 1.5 0 
C 1.5 -0.397805 1.341951 -0.77937 1.06066 -1.06066 
C 0.77937 -1.341951 0.397805 -1.5 0 -1.5 
C -0.397805 -1.5 -0.77937 -1.341951 -1.06066 -1.06066 
C -1.341951 -0.77937 -1.5 -0.397805 -1.5 0 
C -1.5 0.397805 -1.341951 0.77937 -1.06066 1.06066 
C -0.77937 1.341951 -0.397805 1.5 0 1.5 
z
" style="stroke: #ff0000"/>
    </defs>
    <g>
     <use xlink:href="#m7c33ac3219" x="161.832391" y="272.222118" style="fill: #ff0000; stroke: #ff0000"/>
     <use xlink:href="#m7c33ac3219" x="161.832391" y="272.222118" style="fill: #ff0000; stroke: #ff0000"/>
    </g>
   </g>
   <g id="line2d_50">
    <path d="M 1.245626 298.944 
L 1.245626 291.690918 
L 14.2848 291.690918 
L 14.2848 291.452329 
L 27.323974 291.356894 
L 27.323974 291.213741 
L 40.363149 291.118306 
L 40.363149 291.070588 
L 46.353758 290.975153 
L 46.353758 290.927435 
L 52.188254 290.879718 
L 52.188254 290.784282 
L 61.029752 290.688847 
L 61.029752 290.641129 
L 72.432107 290.545694 
L 72.432107 290.497976 
L 75.574654 290.402541 
L 75.574654 290.307106 
L 77.301696 290.211671 
L 77.301696 290.163953 
L 78.88343 290.068518 
L 78.88343 290.0208 
L 82.959349 289.925365 
L 82.959349 289.877647 
L 84.818792 289.782212 
L 84.818792 289.686776 
L 86.510858 289.591341 
L 86.510858 289.543624 
L 88.972154 289.448188 
L 88.972154 289.400471 
L 90.505165 289.352753 
L 90.505165 289.257318 
L 91.148357 289.161882 
L 91.148357 289.114165 
L 91.46189 289.066447 
L 91.46189 288.971012 
L 91.770283 288.923294 
L 91.770283 288.780141 
L 92.519847 288.684706 
L 92.519847 288.636988 
L 93.381595 288.541553 
L 93.381595 288.446118 
L 93.798104 288.350682 
L 93.798104 288.302965 
L 94.07074 288.207529 
L 94.07074 288.159812 
L 94.604437 288.064376 
L 94.604437 287.921224 
L 95.503454 287.825788 
L 95.503454 287.778071 
L 96.599582 287.682635 
L 96.599582 287.634918 
L 97.523034 287.539482 
L 97.523034 287.491765 
L 98.295464 287.396329 
L 98.295464 287.300894 
L 98.723018 287.205459 
L 98.723018 286.966871 
L 99.14107 286.966871 
L 99.14107 286.776 
L 99.851024 286.680565 
L 99.851024 284.628706 
L 100.049042 284.628706 
L 100.049042 282.433694 
L 100.342215 282.338259 
L 100.438933 282.195106 
L 100.630889 282.099671 
L 100.726138 281.9088 
L 100.9152 281.9088 
L 100.9152 279.761506 
L 101.102381 279.761506 
L 101.102381 279.522918 
L 109.815392 279.427482 
L 109.815392 279.403624 
L 110.106149 279.355906 
L 110.106149 279.260471 
L 111.171767 279.165035 
L 111.171767 279.141176 
L 113.088217 279.0696 
L 113.137397 278.974165 
L 113.670063 278.878729 
L 113.765312 277.327906 
L 114.188061 277.232471 
L 114.280729 276.015671 
L 120.047313 275.920235 
L 120.047313 275.896376 
L 121.550424 275.800941 
L 121.613129 275.061318 
L 121.8 274.989741 
L 121.892744 274.560282 
L 121.954321 274.560282 
L 121.954321 274.440988 
L 126.828223 274.345553 
L 126.922873 274.250118 
L 127.134109 274.2024 
L 127.203997 274.059247 
L 127.343 273.987671 
L 127.389106 273.749082 
L 131.153565 273.653647 
L 131.153565 273.629788 
L 131.397023 273.534353 
L 131.489828 273.415059 
L 131.600593 273.367341 
L 131.600593 273.271906 
L 134.947332 273.176471 
L 135.039546 273.033318 
L 137.945929 272.937882 
L 137.945929 272.818588 
L 140.393711 272.723153 
L 140.462787 272.627718 
L 144.445498 272.532282 
L 144.445498 272.508424 
L 149.609197 272.412988 
L 149.609197 272.317553 
L 360.8064 272.222118 
L 360.8064 272.222118 
" style="fill: none; stroke: #ff0000; stroke-width: 1.5; stroke-linecap: square"/>
   </g>
   <g id="line2d_51">
    <defs>
     <path id="m03405ef933" d="M -6 6 
L 6 6 
L 6 -6 
L -6 -6 
z
" style="stroke: #ff0000; stroke-width: 1.5; stroke-linejoin: miter"/>
    </defs>
    <g>
     <use xlink:href="#m03405ef933" x="99.851024" y="284.628706" style="fill-opacity: 0; stroke: #ff0000; stroke-width: 1.5; stroke-linejoin: miter"/>
     <use xlink:href="#m03405ef933" x="161.832391" y="272.245976" style="fill-opacity: 0; stroke: #ff0000; stroke-width: 1.5; stroke-linejoin: miter"/>
     <use xlink:href="#m03405ef933" x="161.832391" y="272.222118" style="fill-opacity: 0; stroke: #ff0000; stroke-width: 1.5; stroke-linejoin: miter"/>
     <use xlink:href="#m03405ef933" x="161.832391" y="272.222118" style="fill-opacity: 0; stroke: #ff0000; stroke-width: 1.5; stroke-linejoin: miter"/>
     <use xlink:href="#m03405ef933" x="161.832391" y="272.222118" style="fill-opacity: 0; stroke: #ff0000; stroke-width: 1.5; stroke-linejoin: miter"/>
     <use xlink:href="#m03405ef933" x="360.8064" y="272.222118" style="fill-opacity: 0; stroke: #ff0000; stroke-width: 1.5; stroke-linejoin: miter"/>
    </g>
   </g>
   <g id="line2d_52">
    <path style="fill: none; stroke: #ff0000; stroke-width: 1.5; stroke-linecap: square"/>
    <g/>
   </g>
   <g id="line2d_53">
    <path d="M 101.379706 279.4752 
" clip-path="url(#p3b781e9592)" style="fill: none; stroke: #ff0000; stroke-width: 1.5; stroke-linecap: square"/>
    <defs>
     <path id="m12c9f83557" d="M -12 12 
L 12 -12 
M -12 -12 
L 12 12 
" style="stroke: #ff0000"/>
    </defs>
    <g clip-path="url(#p3b781e9592)">
     <use xlink:href="#m12c9f83557" x="101.379706" y="279.4752" style="fill: #ff0000; stroke: #ff0000"/>
    </g>
   </g>
   <g id="line2d_54">
    <path d="M 360.8064 272.222118 
L 380.514816 293.10336 
" style="fill: none; stroke: #ff0000; stroke-width: 1.5; stroke-linecap: square"/>
    <g>
     <use xlink:href="#m03405ef933" x="360.8064" y="272.222118" style="fill-opacity: 0; stroke: #ff0000; stroke-width: 1.5; stroke-linejoin: miter"/>
     <use xlink:href="#m03405ef933" x="380.514816" y="293.10336" style="fill-opacity: 0; stroke: #ff0000; stroke-width: 1.5; stroke-linejoin: miter"/>
    </g>
   </g>
   <g id="line2d_55">
    <path d="M 360.8064 268.881882 
L 380.514816 223.01568 
" style="fill: none; stroke: #000000; stroke-width: 1.5; stroke-linecap: square"/>
    <g>
     <use xlink:href="#mb724d4e1e6" x="360.8064" y="268.881882" style="fill-opacity: 0; stroke: #000000; stroke-width: 1.5"/>
     <use xlink:href="#mb724d4e1e6" x="380.514816" y="223.01568" style="fill-opacity: 0; stroke: #000000; stroke-width: 1.5"/>
    </g>
   </g>
   <g id="line2d_56">
    <path d="M 360.8064 259.099765 
L 380.514816 152.928 
" style="fill: none; stroke: #0000ff; stroke-width: 1.5; stroke-linecap: square"/>
    <g>
     <use xlink:href="#m2a7b7d32a6" x="360.8064" y="259.099765" style="fill-opacity: 0; stroke: #0000ff; stroke-width: 1.5; stroke-linejoin: bevel"/>
     <use xlink:href="#m2a7b7d32a6" x="380.514816" y="152.928" style="fill-opacity: 0; stroke: #0000ff; stroke-width: 1.5; stroke-linejoin: bevel"/>
    </g>
   </g>
   <g id="line2d_57">
    <path d="M 360.8064 250.987765 
L 380.514816 82.84032 
" style="fill: none; stroke: #008000; stroke-width: 1.5; stroke-linecap: square"/>
    <g>
     <use xlink:href="#m0ff45411c5" x="360.8064" y="250.987765" style="fill-opacity: 0; stroke: #008000; stroke-width: 1.5; stroke-linejoin: miter"/>
     <use xlink:href="#m0ff45411c5" x="380.514816" y="82.84032" style="fill-opacity: 0; stroke: #008000; stroke-width: 1.5; stroke-linejoin: miter"/>
    </g>
   </g>
   <g id="line2d_58">
    <path d="M 360.8064 236.195294 
L 380.514816 12.75264 
" style="fill: none; stroke: #00bfbf; stroke-width: 1.5; stroke-linecap: square"/>
    <g>
     <use xlink:href="#m5f8f793a8b" x="360.8064" y="236.195294" style="fill-opacity: 0; stroke: #00bfbf; stroke-width: 1.5"/>
     <use xlink:href="#m5f8f793a8b" x="380.514816" y="12.75264" style="fill-opacity: 0; stroke: #00bfbf; stroke-width: 1.5"/>
    </g>
   </g>
   <g id="line2d_59">
    <path d="M 360.8064 298.944 
L 360.8064 6.912 
" style="fill: none; stroke: #000000; stroke-width: 1.5; stroke-linecap: square"/>
   </g>
   <g id="patch_3">
    <path d="M 57.6 298.944 
L 360.8064 298.944 
" style="fill: none; stroke: #000000; stroke-width: 0.8; stroke-linejoin: miter; stroke-linecap: square"/>
   </g>
   <g id="patch_4">
    <path d="M 57.6 6.912 
L 360.8064 6.912 
" style="fill: none; stroke: #000000; stroke-width: 0.8; stroke-linejoin: miter; stroke-linecap: square"/>
   </g>
   <g id="text_13">
    <!-- 20-D -->
    <g transform="translate(386.578944 296.966485)scale(0.14 -0.14)">
     <defs>
      <path id="DejaVuSans-44" d="M 1259 4147 
L 1259 519 
L 2022 519 
Q 2988 519 3436 956 
Q 3884 1394 3884 2338 
Q 3884 3275 3436 3711 
Q 2988 4147 2022 4147 
L 1259 4147 
z
M 628 4666 
L 1925 4666 
Q 3281 4666 3915 4102 
Q 4550 3538 4550 2338 
Q 4550 1131 3912 565 
Q 3275 0 1925 0 
L 628 0 
L 628 4666 
z
" transform="scale(0.015625)"/>
     </defs>
     <use xlink:href="#DejaVuSans-32"/>
     <use xlink:href="#DejaVuSans-30" x="63.623047"/>
     <use xlink:href="#DejaVuSans-2d" x="127.246094"/>
     <use xlink:href="#DejaVuSans-44" x="163.330078"/>
    </g>
   </g>
   <g id="text_14">
    <!-- 10-D -->
    <g transform="translate(386.578944 226.878805)scale(0.14 -0.14)">
     <use xlink:href="#DejaVuSans-31"/>
     <use xlink:href="#DejaVuSans-30" x="63.623047"/>
     <use xlink:href="#DejaVuSans-2d" x="127.246094"/>
     <use xlink:href="#DejaVuSans-44" x="163.330078"/>
    </g>
   </g>
   <g id="text_15">
    <!-- 5-D -->
    <g transform="translate(386.578944 156.791125)scale(0.14 -0.14)">
     <defs>
      <path id="DejaVuSans-35" d="M 691 4666 
L 3169 4666 
L 3169 4134 
L 1269 4134 
L 1269 2991 
Q 1406 3038 1543 3061 
Q 1681 3084 1819 3084 
Q 2600 3084 3056 2656 
Q 3513 2228 3513 1497 
Q 3513 744 3044 326 
Q 2575 -91 1722 -91 
Q 1428 -91 1123 -41 
Q 819 9 494 109 
L 494 744 
Q 775 591 1075 516 
Q 1375 441 1709 441 
Q 2250 441 2565 725 
Q 2881 1009 2881 1497 
Q 2881 1984 2565 2268 
Q 2250 2553 1709 2553 
Q 1456 2553 1204 2497 
Q 953 2441 691 2322 
L 691 4666 
z
" transform="scale(0.015625)"/>
     </defs>
     <use xlink:href="#DejaVuSans-35"/>
     <use xlink:href="#DejaVuSans-2d" x="63.623047"/>
     <use xlink:href="#DejaVuSans-44" x="99.707031"/>
    </g>
   </g>
   <g id="text_16">
    <!-- 3-D -->
    <g transform="translate(386.578944 86.703445)scale(0.14 -0.14)">
     <defs>
      <path id="DejaVuSans-33" d="M 2597 2516 
Q 3050 2419 3304 2112 
Q 3559 1806 3559 1356 
Q 3559 666 3084 287 
Q 2609 -91 1734 -91 
Q 1441 -91 1130 -33 
Q 819 25 488 141 
L 488 750 
Q 750 597 1062 519 
Q 1375 441 1716 441 
Q 2309 441 2620 675 
Q 2931 909 2931 1356 
Q 2931 1769 2642 2001 
Q 2353 2234 1838 2234 
L 1294 2234 
L 1294 2753 
L 1863 2753 
Q 2328 2753 2575 2939 
Q 2822 3125 2822 3475 
Q 2822 3834 2567 4026 
Q 2313 4219 1838 4219 
Q 1578 4219 1281 4162 
Q 984 4106 628 3988 
L 628 4550 
Q 988 4650 1302 4700 
Q 1616 4750 1894 4750 
Q 2613 4750 3031 4423 
Q 3450 4097 3450 3541 
Q 3450 3153 3228 2886 
Q 3006 2619 2597 2516 
z
" transform="scale(0.015625)"/>
     </defs>
     <use xlink:href="#DejaVuSans-33"/>
     <use xlink:href="#DejaVuSans-2d" x="63.623047"/>
     <use xlink:href="#DejaVuSans-44" x="99.707031"/>
    </g>
   </g>
   <g id="text_17">
    <!-- 2-D -->
    <g transform="translate(386.578944 16.615765)scale(0.14 -0.14)">
     <use xlink:href="#DejaVuSans-32"/>
     <use xlink:href="#DejaVuSans-2d" x="63.623047"/>
     <use xlink:href="#DejaVuSans-44" x="99.707031"/>
    </g>
   </g>
   <g id="text_18">
    <!-- bbob f1-f24 -->
    <g transform="translate(60.632064 17.582726)scale(0.102 -0.102)">
     <defs>
      <path id="DejaVuSans-62" d="M 3116 1747 
Q 3116 2381 2855 2742 
Q 2594 3103 2138 3103 
Q 1681 3103 1420 2742 
Q 1159 2381 1159 1747 
Q 1159 1113 1420 752 
Q 1681 391 2138 391 
Q 2594 391 2855 752 
Q 3116 1113 3116 1747 
z
M 1159 2969 
Q 1341 3281 1617 3432 
Q 1894 3584 2278 3584 
Q 2916 3584 3314 3078 
Q 3713 2572 3713 1747 
Q 3713 922 3314 415 
Q 2916 -91 2278 -91 
Q 1894 -91 1617 61 
Q 1341 213 1159 525 
L 1159 0 
L 581 0 
L 581 4863 
L 1159 4863 
L 1159 2969 
z
" transform="scale(0.015625)"/>
     </defs>
     <use xlink:href="#DejaVuSans-62"/>
     <use xlink:href="#DejaVuSans-62" x="63.476562"/>
     <use xlink:href="#DejaVuSans-6f" x="126.953125"/>
     <use xlink:href="#DejaVuSans-62" x="188.134766"/>
     <use xlink:href="#DejaVuSans-20" x="251.611328"/>
     <use xlink:href="#DejaVuSans-66" x="283.398438"/>
     <use xlink:href="#DejaVuSans-31" x="318.603516"/>
     <use xlink:href="#DejaVuSans-2d" x="382.226562"/>
     <use xlink:href="#DejaVuSans-66" x="418.310547"/>
     <use xlink:href="#DejaVuSans-32" x="453.515625"/>
     <use xlink:href="#DejaVuSans-34" x="517.138672"/>
    </g>
    <!-- 51 targets: 100..1e-08 -->
    <g transform="translate(60.632064 29.004495)scale(0.102 -0.102)">
     <defs>
      <path id="DejaVuSans-3a" d="M 750 794 
L 1409 794 
L 1409 0 
L 750 0 
L 750 794 
z
M 750 3309 
L 1409 3309 
L 1409 2516 
L 750 2516 
L 750 3309 
z
" transform="scale(0.015625)"/>
     </defs>
     <use xlink:href="#DejaVuSans-35"/>
     <use xlink:href="#DejaVuSans-31" x="63.623047"/>
     <use xlink:href="#DejaVuSans-20" x="127.246094"/>
     <use xlink:href="#DejaVuSans-74" x="159.033203"/>
     <use xlink:href="#DejaVuSans-61" x="198.242188"/>
     <use xlink:href="#DejaVuSans-72" x="259.521484"/>
     <use xlink:href="#DejaVuSans-67" x="298.884766"/>
     <use xlink:href="#DejaVuSans-65" x="362.361328"/>
     <use xlink:href="#DejaVuSans-74" x="423.884766"/>
     <use xlink:href="#DejaVuSans-73" x="463.09375"/>
     <use xlink:href="#DejaVuSans-3a" x="515.193359"/>
     <use xlink:href="#DejaVuSans-20" x="548.884766"/>
     <use xlink:href="#DejaVuSans-31" x="580.671875"/>
     <use xlink:href="#DejaVuSans-30" x="644.294922"/>
     <use xlink:href="#DejaVuSans-30" x="707.917969"/>
     <use xlink:href="#DejaVuSans-2e" x="771.541016"/>
     <use xlink:href="#DejaVuSans-2e" x="803.328125"/>
     <use xlink:href="#DejaVuSans-31" x="835.115234"/>
     <use xlink:href="#DejaVuSans-65" x="898.738281"/>
     <use xlink:href="#DejaVuSans-2d" x="960.261719"/>
     <use xlink:href="#DejaVuSans-30" x="996.345703"/>
     <use xlink:href="#DejaVuSans-38" x="1059.96875"/>
    </g>
    <!-- 5 instances -->
    <g transform="translate(60.632064 40.426264)scale(0.102 -0.102)">
     <use xlink:href="#DejaVuSans-35"/>
     <use xlink:href="#DejaVuSans-20" x="63.623047"/>
     <use xlink:href="#DejaVuSans-69" x="95.410156"/>
     <use xlink:href="#DejaVuSans-6e" x="123.193359"/>
     <use xlink:href="#DejaVuSans-73" x="186.572266"/>
     <use xlink:href="#DejaVuSans-74" x="238.671875"/>
     <use xlink:href="#DejaVuSans-61" x="277.880859"/>
     <use xlink:href="#DejaVuSans-6e" x="339.160156"/>
     <use xlink:href="#DejaVuSans-63" x="402.539062"/>
     <use xlink:href="#DejaVuSans-65" x="457.519531"/>
     <use xlink:href="#DejaVuSans-73" x="519.042969"/>
    </g>
   </g>
   <g id="text_19">
    <!-- v2.6 -->
    <g style="fill: #808080" transform="translate(198.292262 293.943992)scale(0.1 -0.1)">
     <use xlink:href="#DejaVuSans-76"/>
     <use xlink:href="#DejaVuSans-32" x="59.179688"/>
     <use xlink:href="#DejaVuSans-2e" x="122.802734"/>
     <use xlink:href="#DejaVuSans-36" x="154.589844"/>
    </g>
   </g>
  </g>
 </g>
 <defs>
  <clipPath id="p3b781e9592">
   <rect x="57.6" y="6.912" width="303.2064" height="292.032"/>
  </clipPath>
 </defs>
</svg>
