<?xml version="1.0" encoding="utf-8" standalone="no"?>
<!DOCTYPE svg PUBLIC "-//W3C//DTD SVG 1.1//EN"
  "http://www.w3.org/Graphics/SVG/1.1/DTD/svg11.dtd">
<svg xmlns:xlink="http://www.w3.org/1999/xlink" width="460.8pt" height="345.6pt" viewBox="0 0 460.8 345.6" xmlns="http://www.w3.org/2000/svg" version="1.1">
 <metadata>
  <rdf:RDF xmlns:dc="http://purl.org/dc/elements/1.1/" xmlns:cc="http://creativecommons.org/ns#" xmlns:rdf="http://www.w3.org/1999/02/22-rdf-syntax-ns#">
   <cc:Work>
    <dc:type rdf:resource="http://purl.org/dc/dcmitype/StillImage"/>
    <dc:date>2022-03-17T00:25:28.148463</dc:date>
    <dc:format>image/svg+xml</dc:format>
    <dc:creator>
     <cc:Agent>
      <dc:title>Matplotlib v3.5.1, https://matplotlib.org/</dc:title>
     </cc:Agent>
    </dc:creator>
   </cc:Work>
  </rdf:RDF>
 </metadata>
 <defs>
  <style type="text/css">*{stroke-linejoin: round; stroke-linecap: butt}</style>
 </defs>
 <g id="figure_1">
  <g id="patch_1">
   <path d="M 0 345.6 
L 460.8 345.6 
L 460.8 0 
L 0 0 
z
" style="fill: #ffffff"/>
  </g>
  <g id="axes_1">
   <g id="patch_2">
    <path d="M 34.16 291.28 
L 446.924475 291.28 
L 446.924475 3 
L 34.16 3 
z
" style="fill: #ffffff"/>
   </g>
   <g id="matplotlib.axis_1">
    <g id="xtick_1">
     <g id="line2d_1">
      <path d="M 34.249547 291.28 
L 34.249547 3 
" clip-path="url(#p7b3cb7d1d9)" style="fill: none; stroke: #b0b0b0; stroke-width: 0.8; stroke-linecap: square"/>
     </g>
     <g id="line2d_2">
      <defs>
       <path id="m5176ebd29f" d="M 0 0 
L 0 3.5 
" style="stroke: #000000; stroke-width: 0.8"/>
      </defs>
      <g>
       <use xlink:href="#m5176ebd29f" x="34.249547" y="291.28" style="stroke: #000000; stroke-width: 0.8"/>
      </g>
     </g>
     <g id="text_1">
      <!-- -1 -->
      <g transform="translate(24.279235 313.476875)scale(0.2 -0.2)">
       <defs>
        <path id="DejaVuSans-2d" d="M 313 2009 
L 1997 2009 
L 1997 1497 
L 313 1497 
L 313 2009 
z
" transform="scale(0.015625)"/>
        <path id="DejaVuSans-31" d="M 794 531 
L 1825 531 
L 1825 4091 
L 703 3866 
L 703 4441 
L 1819 4666 
L 2450 4666 
L 2450 531 
L 3481 531 
L 3481 0 
L 794 0 
L 794 531 
z
" transform="scale(0.015625)"/>
       </defs>
       <use xlink:href="#DejaVuSans-2d"/>
       <use xlink:href="#DejaVuSans-31" x="36.083984"/>
      </g>
     </g>
    </g>
    <g id="xtick_2">
     <g id="line2d_3">
      <path d="M 240.542238 291.28 
L 240.542238 3 
" clip-path="url(#p7b3cb7d1d9)" style="fill: none; stroke: #b0b0b0; stroke-width: 0.8; stroke-linecap: square"/>
     </g>
     <g id="line2d_4">
      <g>
       <use xlink:href="#m5176ebd29f" x="240.542238" y="291.28" style="stroke: #000000; stroke-width: 0.8"/>
      </g>
     </g>
     <g id="text_2">
      <!-- 0 -->
      <g transform="translate(234.179738 313.476875)scale(0.2 -0.2)">
       <defs>
        <path id="DejaVuSans-30" d="M 2034 4250 
Q 1547 4250 1301 3770 
Q 1056 3291 1056 2328 
Q 1056 1369 1301 889 
Q 1547 409 2034 409 
Q 2525 409 2770 889 
Q 3016 1369 3016 2328 
Q 3016 3291 2770 3770 
Q 2525 4250 2034 4250 
z
M 2034 4750 
Q 2819 4750 3233 4129 
Q 3647 3509 3647 2328 
Q 3647 1150 3233 529 
Q 2819 -91 2034 -91 
Q 1250 -91 836 529 
Q 422 1150 422 2328 
Q 422 3509 836 4129 
Q 1250 4750 2034 4750 
z
" transform="scale(0.015625)"/>
       </defs>
       <use xlink:href="#DejaVuSans-30"/>
      </g>
     </g>
    </g>
    <g id="xtick_3">
     <g id="line2d_5">
      <path d="M 446.834928 291.28 
L 446.834928 3 
" clip-path="url(#p7b3cb7d1d9)" style="fill: none; stroke: #b0b0b0; stroke-width: 0.8; stroke-linecap: square"/>
     </g>
     <g id="line2d_6">
      <g>
       <use xlink:href="#m5176ebd29f" x="446.834928" y="291.28" style="stroke: #000000; stroke-width: 0.8"/>
      </g>
     </g>
     <g id="text_3">
      <!-- 1 -->
      <g transform="translate(440.472428 313.476875)scale(0.2 -0.2)">
       <use xlink:href="#DejaVuSans-31"/>
      </g>
     </g>
    </g>
    <g id="xtick_4">
     <g id="line2d_7">
      <defs>
       <path id="m173d899830" d="M 0 0 
L 0 2 
" style="stroke: #000000; stroke-width: 0.6"/>
      </defs>
      <g>
       <use xlink:href="#m173d899830" x="96.349835" y="291.28" style="stroke: #000000; stroke-width: 0.6"/>
      </g>
     </g>
    </g>
    <g id="xtick_5">
     <g id="line2d_8">
      <g>
       <use xlink:href="#m173d899830" x="132.676174" y="291.28" style="stroke: #000000; stroke-width: 0.6"/>
      </g>
     </g>
    </g>
    <g id="xtick_6">
     <g id="line2d_9">
      <g>
       <use xlink:href="#m173d899830" x="158.450123" y="291.28" style="stroke: #000000; stroke-width: 0.6"/>
      </g>
     </g>
    </g>
    <g id="xtick_7">
     <g id="line2d_10">
      <g>
       <use xlink:href="#m173d899830" x="178.44195" y="291.28" style="stroke: #000000; stroke-width: 0.6"/>
      </g>
     </g>
    </g>
    <g id="xtick_8">
     <g id="line2d_11">
      <g>
       <use xlink:href="#m173d899830" x="194.776462" y="291.28" style="stroke: #000000; stroke-width: 0.6"/>
      </g>
     </g>
    </g>
    <g id="xtick_9">
     <g id="line2d_12">
      <g>
       <use xlink:href="#m173d899830" x="208.587096" y="291.28" style="stroke: #000000; stroke-width: 0.6"/>
      </g>
     </g>
    </g>
    <g id="xtick_10">
     <g id="line2d_13">
      <g>
       <use xlink:href="#m173d899830" x="220.55041" y="291.28" style="stroke: #000000; stroke-width: 0.6"/>
      </g>
     </g>
    </g>
    <g id="xtick_11">
     <g id="line2d_14">
      <g>
       <use xlink:href="#m173d899830" x="231.102802" y="291.28" style="stroke: #000000; stroke-width: 0.6"/>
      </g>
     </g>
    </g>
    <g id="xtick_12">
     <g id="line2d_15">
      <g>
       <use xlink:href="#m173d899830" x="302.642525" y="291.28" style="stroke: #000000; stroke-width: 0.6"/>
      </g>
     </g>
    </g>
    <g id="xtick_13">
     <g id="line2d_16">
      <g>
       <use xlink:href="#m173d899830" x="338.968865" y="291.28" style="stroke: #000000; stroke-width: 0.6"/>
      </g>
     </g>
    </g>
    <g id="xtick_14">
     <g id="line2d_17">
      <g>
       <use xlink:href="#m173d899830" x="364.742813" y="291.28" style="stroke: #000000; stroke-width: 0.6"/>
      </g>
     </g>
    </g>
    <g id="xtick_15">
     <g id="line2d_18">
      <g>
       <use xlink:href="#m173d899830" x="384.73464" y="291.28" style="stroke: #000000; stroke-width: 0.6"/>
      </g>
     </g>
    </g>
    <g id="xtick_16">
     <g id="line2d_19">
      <g>
       <use xlink:href="#m173d899830" x="401.069153" y="291.28" style="stroke: #000000; stroke-width: 0.6"/>
      </g>
     </g>
    </g>
    <g id="xtick_17">
     <g id="line2d_20">
      <g>
       <use xlink:href="#m173d899830" x="414.879786" y="291.28" style="stroke: #000000; stroke-width: 0.6"/>
      </g>
     </g>
    </g>
    <g id="xtick_18">
     <g id="line2d_21">
      <g>
       <use xlink:href="#m173d899830" x="426.843101" y="291.28" style="stroke: #000000; stroke-width: 0.6"/>
      </g>
     </g>
    </g>
    <g id="xtick_19">
     <g id="line2d_22">
      <g>
       <use xlink:href="#m173d899830" x="437.395492" y="291.28" style="stroke: #000000; stroke-width: 0.6"/>
      </g>
     </g>
    </g>
    <g id="text_4">
     <!-- log10 of FEvals ratio -->
     <g transform="translate(138.23755 336.833125)scale(0.2 -0.2)">
      <defs>
       <path id="DejaVuSans-6c" d="M 603 4863 
L 1178 4863 
L 1178 0 
L 603 0 
L 603 4863 
z
" transform="scale(0.015625)"/>
       <path id="DejaVuSans-6f" d="M 1959 3097 
Q 1497 3097 1228 2736 
Q 959 2375 959 1747 
Q 959 1119 1226 758 
Q 1494 397 1959 397 
Q 2419 397 2687 759 
Q 2956 1122 2956 1747 
Q 2956 2369 2687 2733 
Q 2419 3097 1959 3097 
z
M 1959 3584 
Q 2709 3584 3137 3096 
Q 3566 2609 3566 1747 
Q 3566 888 3137 398 
Q 2709 -91 1959 -91 
Q 1206 -91 779 398 
Q 353 888 353 1747 
Q 353 2609 779 3096 
Q 1206 3584 1959 3584 
z
" transform="scale(0.015625)"/>
       <path id="DejaVuSans-67" d="M 2906 1791 
Q 2906 2416 2648 2759 
Q 2391 3103 1925 3103 
Q 1463 3103 1205 2759 
Q 947 2416 947 1791 
Q 947 1169 1205 825 
Q 1463 481 1925 481 
Q 2391 481 2648 825 
Q 2906 1169 2906 1791 
z
M 3481 434 
Q 3481 -459 3084 -895 
Q 2688 -1331 1869 -1331 
Q 1566 -1331 1297 -1286 
Q 1028 -1241 775 -1147 
L 775 -588 
Q 1028 -725 1275 -790 
Q 1522 -856 1778 -856 
Q 2344 -856 2625 -561 
Q 2906 -266 2906 331 
L 2906 616 
Q 2728 306 2450 153 
Q 2172 0 1784 0 
Q 1141 0 747 490 
Q 353 981 353 1791 
Q 353 2603 747 3093 
Q 1141 3584 1784 3584 
Q 2172 3584 2450 3431 
Q 2728 3278 2906 2969 
L 2906 3500 
L 3481 3500 
L 3481 434 
z
" transform="scale(0.015625)"/>
       <path id="DejaVuSans-20" transform="scale(0.015625)"/>
       <path id="DejaVuSans-66" d="M 2375 4863 
L 2375 4384 
L 1825 4384 
Q 1516 4384 1395 4259 
Q 1275 4134 1275 3809 
L 1275 3500 
L 2222 3500 
L 2222 3053 
L 1275 3053 
L 1275 0 
L 697 0 
L 697 3053 
L 147 3053 
L 147 3500 
L 697 3500 
L 697 3744 
Q 697 4328 969 4595 
Q 1241 4863 1831 4863 
L 2375 4863 
z
" transform="scale(0.015625)"/>
       <path id="DejaVuSans-46" d="M 628 4666 
L 3309 4666 
L 3309 4134 
L 1259 4134 
L 1259 2759 
L 3109 2759 
L 3109 2228 
L 1259 2228 
L 1259 0 
L 628 0 
L 628 4666 
z
" transform="scale(0.015625)"/>
       <path id="DejaVuSans-45" d="M 628 4666 
L 3578 4666 
L 3578 4134 
L 1259 4134 
L 1259 2753 
L 3481 2753 
L 3481 2222 
L 1259 2222 
L 1259 531 
L 3634 531 
L 3634 0 
L 628 0 
L 628 4666 
z
" transform="scale(0.015625)"/>
       <path id="DejaVuSans-76" d="M 191 3500 
L 800 3500 
L 1894 563 
L 2988 3500 
L 3597 3500 
L 2284 0 
L 1503 0 
L 191 3500 
z
" transform="scale(0.015625)"/>
       <path id="DejaVuSans-61" d="M 2194 1759 
Q 1497 1759 1228 1600 
Q 959 1441 959 1056 
Q 959 750 1161 570 
Q 1363 391 1709 391 
Q 2188 391 2477 730 
Q 2766 1069 2766 1631 
L 2766 1759 
L 2194 1759 
z
M 3341 1997 
L 3341 0 
L 2766 0 
L 2766 531 
Q 2569 213 2275 61 
Q 1981 -91 1556 -91 
Q 1019 -91 701 211 
Q 384 513 384 1019 
Q 384 1609 779 1909 
Q 1175 2209 1959 2209 
L 2766 2209 
L 2766 2266 
Q 2766 2663 2505 2880 
Q 2244 3097 1772 3097 
Q 1472 3097 1187 3025 
Q 903 2953 641 2809 
L 641 3341 
Q 956 3463 1253 3523 
Q 1550 3584 1831 3584 
Q 2591 3584 2966 3190 
Q 3341 2797 3341 1997 
z
" transform="scale(0.015625)"/>
       <path id="DejaVuSans-73" d="M 2834 3397 
L 2834 2853 
Q 2591 2978 2328 3040 
Q 2066 3103 1784 3103 
Q 1356 3103 1142 2972 
Q 928 2841 928 2578 
Q 928 2378 1081 2264 
Q 1234 2150 1697 2047 
L 1894 2003 
Q 2506 1872 2764 1633 
Q 3022 1394 3022 966 
Q 3022 478 2636 193 
Q 2250 -91 1575 -91 
Q 1294 -91 989 -36 
Q 684 19 347 128 
L 347 722 
Q 666 556 975 473 
Q 1284 391 1588 391 
Q 1994 391 2212 530 
Q 2431 669 2431 922 
Q 2431 1156 2273 1281 
Q 2116 1406 1581 1522 
L 1381 1569 
Q 847 1681 609 1914 
Q 372 2147 372 2553 
Q 372 3047 722 3315 
Q 1072 3584 1716 3584 
Q 2034 3584 2315 3537 
Q 2597 3491 2834 3397 
z
" transform="scale(0.015625)"/>
       <path id="DejaVuSans-72" d="M 2631 2963 
Q 2534 3019 2420 3045 
Q 2306 3072 2169 3072 
Q 1681 3072 1420 2755 
Q 1159 2438 1159 1844 
L 1159 0 
L 581 0 
L 581 3500 
L 1159 3500 
L 1159 2956 
Q 1341 3275 1631 3429 
Q 1922 3584 2338 3584 
Q 2397 3584 2469 3576 
Q 2541 3569 2628 3553 
L 2631 2963 
z
" transform="scale(0.015625)"/>
       <path id="DejaVuSans-74" d="M 1172 4494 
L 1172 3500 
L 2356 3500 
L 2356 3053 
L 1172 3053 
L 1172 1153 
Q 1172 725 1289 603 
Q 1406 481 1766 481 
L 2356 481 
L 2356 0 
L 1766 0 
Q 1100 0 847 248 
Q 594 497 594 1153 
L 594 3053 
L 172 3053 
L 172 3500 
L 594 3500 
L 594 4494 
L 1172 4494 
z
" transform="scale(0.015625)"/>
       <path id="DejaVuSans-69" d="M 603 3500 
L 1178 3500 
L 1178 0 
L 603 0 
L 603 3500 
z
M 603 4863 
L 1178 4863 
L 1178 4134 
L 603 4134 
L 603 4863 
z
" transform="scale(0.015625)"/>
      </defs>
      <use xlink:href="#DejaVuSans-6c"/>
      <use xlink:href="#DejaVuSans-6f" x="27.783203"/>
      <use xlink:href="#DejaVuSans-67" x="88.964844"/>
      <use xlink:href="#DejaVuSans-31" x="152.441406"/>
      <use xlink:href="#DejaVuSans-30" x="216.064453"/>
      <use xlink:href="#DejaVuSans-20" x="279.6875"/>
      <use xlink:href="#DejaVuSans-6f" x="311.474609"/>
      <use xlink:href="#DejaVuSans-66" x="372.65625"/>
      <use xlink:href="#DejaVuSans-20" x="407.861328"/>
      <use xlink:href="#DejaVuSans-46" x="439.648438"/>
      <use xlink:href="#DejaVuSans-45" x="497.167969"/>
      <use xlink:href="#DejaVuSans-76" x="560.351562"/>
      <use xlink:href="#DejaVuSans-61" x="619.53125"/>
      <use xlink:href="#DejaVuSans-6c" x="680.810547"/>
      <use xlink:href="#DejaVuSans-73" x="708.59375"/>
      <use xlink:href="#DejaVuSans-20" x="760.693359"/>
      <use xlink:href="#DejaVuSans-72" x="792.480469"/>
      <use xlink:href="#DejaVuSans-61" x="833.59375"/>
      <use xlink:href="#DejaVuSans-74" x="894.873047"/>
      <use xlink:href="#DejaVuSans-69" x="934.082031"/>
      <use xlink:href="#DejaVuSans-6f" x="961.865234"/>
     </g>
    </g>
   </g>
   <g id="matplotlib.axis_2">
    <g id="ytick_1">
     <g id="line2d_23">
      <path d="M 34.16 288.453725 
L 446.924475 288.453725 
" clip-path="url(#p7b3cb7d1d9)" style="fill: none; stroke: #b0b0b0; stroke-width: 0.8; stroke-linecap: square"/>
     </g>
     <g id="line2d_24">
      <defs>
       <path id="m21c3bd24fb" d="M 0 0 
L -3.5 0 
" style="stroke: #000000; stroke-width: 0.8"/>
      </defs>
      <g>
       <use xlink:href="#m21c3bd24fb" x="34.16" y="288.453725" style="stroke: #000000; stroke-width: 0.8"/>
      </g>
     </g>
    </g>
    <g id="ytick_2">
     <g id="line2d_25">
      <path d="M 34.16 217.796863 
L 446.924475 217.796863 
" clip-path="url(#p7b3cb7d1d9)" style="fill: none; stroke: #b0b0b0; stroke-width: 0.8; stroke-linecap: square"/>
     </g>
     <g id="line2d_26">
      <g>
       <use xlink:href="#m21c3bd24fb" x="34.16" y="217.796863" style="stroke: #000000; stroke-width: 0.8"/>
      </g>
     </g>
    </g>
    <g id="ytick_3">
     <g id="line2d_27">
      <path d="M 34.16 147.14 
L 446.924475 147.14 
" clip-path="url(#p7b3cb7d1d9)" style="fill: none; stroke: #b0b0b0; stroke-width: 0.8; stroke-linecap: square"/>
     </g>
     <g id="line2d_28">
      <g>
       <use xlink:href="#m21c3bd24fb" x="34.16" y="147.14" style="stroke: #000000; stroke-width: 0.8"/>
      </g>
     </g>
    </g>
    <g id="ytick_4">
     <g id="line2d_29">
      <path d="M 34.16 76.483137 
L 446.924475 76.483137 
" clip-path="url(#p7b3cb7d1d9)" style="fill: none; stroke: #b0b0b0; stroke-width: 0.8; stroke-linecap: square"/>
     </g>
     <g id="line2d_30">
      <g>
       <use xlink:href="#m21c3bd24fb" x="34.16" y="76.483137" style="stroke: #000000; stroke-width: 0.8"/>
      </g>
     </g>
    </g>
    <g id="ytick_5">
     <g id="line2d_31">
      <path d="M 34.16 5.826275 
L 446.924475 5.826275 
" clip-path="url(#p7b3cb7d1d9)" style="fill: none; stroke: #b0b0b0; stroke-width: 0.8; stroke-linecap: square"/>
     </g>
     <g id="line2d_32">
      <g>
       <use xlink:href="#m21c3bd24fb" x="34.16" y="5.826275" style="stroke: #000000; stroke-width: 0.8"/>
      </g>
     </g>
    </g>
    <g id="text_5">
     <!-- proportion of trials -->
     <g transform="translate(19.000625 240.14625)rotate(-90)scale(0.2 -0.2)">
      <defs>
       <path id="DejaVuSans-70" d="M 1159 525 
L 1159 -1331 
L 581 -1331 
L 581 3500 
L 1159 3500 
L 1159 2969 
Q 1341 3281 1617 3432 
Q 1894 3584 2278 3584 
Q 2916 3584 3314 3078 
Q 3713 2572 3713 1747 
Q 3713 922 3314 415 
Q 2916 -91 2278 -91 
Q 1894 -91 1617 61 
Q 1341 213 1159 525 
z
M 3116 1747 
Q 3116 2381 2855 2742 
Q 2594 3103 2138 3103 
Q 1681 3103 1420 2742 
Q 1159 2381 1159 1747 
Q 1159 1113 1420 752 
Q 1681 391 2138 391 
Q 2594 391 2855 752 
Q 3116 1113 3116 1747 
z
" transform="scale(0.015625)"/>
       <path id="DejaVuSans-6e" d="M 3513 2113 
L 3513 0 
L 2938 0 
L 2938 2094 
Q 2938 2591 2744 2837 
Q 2550 3084 2163 3084 
Q 1697 3084 1428 2787 
Q 1159 2491 1159 1978 
L 1159 0 
L 581 0 
L 581 3500 
L 1159 3500 
L 1159 2956 
Q 1366 3272 1645 3428 
Q 1925 3584 2291 3584 
Q 2894 3584 3203 3211 
Q 3513 2838 3513 2113 
z
" transform="scale(0.015625)"/>
      </defs>
      <use xlink:href="#DejaVuSans-70"/>
      <use xlink:href="#DejaVuSans-72" x="63.476562"/>
      <use xlink:href="#DejaVuSans-6f" x="102.339844"/>
      <use xlink:href="#DejaVuSans-70" x="163.521484"/>
      <use xlink:href="#DejaVuSans-6f" x="226.998047"/>
      <use xlink:href="#DejaVuSans-72" x="288.179688"/>
      <use xlink:href="#DejaVuSans-74" x="329.292969"/>
      <use xlink:href="#DejaVuSans-69" x="368.501953"/>
      <use xlink:href="#DejaVuSans-6f" x="396.285156"/>
      <use xlink:href="#DejaVuSans-6e" x="457.466797"/>
      <use xlink:href="#DejaVuSans-20" x="520.845703"/>
      <use xlink:href="#DejaVuSans-6f" x="552.632812"/>
      <use xlink:href="#DejaVuSans-66" x="613.814453"/>
      <use xlink:href="#DejaVuSans-20" x="649.019531"/>
      <use xlink:href="#DejaVuSans-74" x="680.806641"/>
      <use xlink:href="#DejaVuSans-72" x="720.015625"/>
      <use xlink:href="#DejaVuSans-69" x="761.128906"/>
      <use xlink:href="#DejaVuSans-61" x="788.912109"/>
      <use xlink:href="#DejaVuSans-6c" x="850.191406"/>
      <use xlink:href="#DejaVuSans-73" x="877.974609"/>
     </g>
    </g>
   </g>
   <g id="line2d_33">
    <path d="M 34.16 288.453725 
L 185.426663 288.453725 
L 185.426663 287.511634 
L 191.139628 287.511634 
L 191.139628 286.569542 
L 193.379539 286.569542 
L 193.379539 285.627451 
L 193.758363 285.627451 
L 193.758363 284.685359 
L 195.536793 284.685359 
L 195.536793 283.743268 
L 196.264732 283.743268 
L 196.264732 282.801176 
L 196.987979 282.801176 
L 196.987979 281.859085 
L 197.964541 281.859085 
L 197.964541 280.916993 
L 198.433777 280.916993 
L 198.433777 279.974902 
L 201.226297 279.974902 
L 201.226297 279.03281 
L 201.942465 279.03281 
L 201.942465 278.090719 
L 202.945071 278.090719 
L 202.945071 277.148627 
L 203.790283 277.148627 
L 203.790283 276.206536 
L 204.643545 276.206536 
L 204.643545 275.264444 
L 205.073242 275.264444 
L 205.073242 274.322353 
L 205.404529 274.322353 
L 205.404529 273.380261 
L 206.225927 273.380261 
L 206.225927 272.43817 
L 206.939262 272.43817 
L 206.939262 271.496078 
L 207.710171 271.496078 
L 207.710171 270.553987 
L 208.140253 270.553987 
L 208.140253 269.611895 
L 208.377033 269.611895 
L 208.436672 267.727712 
L 209.179173 267.727712 
L 209.179173 266.785621 
L 209.557997 266.785621 
L 209.557997 265.843529 
L 210.365469 265.843529 
L 210.365469 264.901438 
L 210.600479 264.901438 
L 210.600479 263.959346 
L 210.855363 263.959346 
L 210.855363 263.017255 
L 211.073449 263.017255 
L 211.073449 262.075163 
L 211.363702 262.075163 
L 211.363702 261.133072 
L 211.667919 261.133072 
L 211.667919 260.19098 
L 211.796696 260.19098 
L 211.796696 259.248889 
L 212.773258 259.248889 
L 212.773258 258.306797 
L 213.846869 258.306797 
L 213.846869 257.364706 
L 214.233412 257.364706 
L 214.233412 256.422614 
L 214.768289 256.422614 
L 214.768289 255.480523 
L 215.40145 255.480523 
L 215.40145 254.538431 
L 215.719716 254.538431 
L 215.729118 252.654248 
L 216.039116 252.654248 
L 216.039116 251.712157 
L 216.751182 251.712157 
L 216.751182 250.770065 
L 217.328229 250.770065 
L 217.328229 249.827974 
L 217.530177 249.827974 
L 217.530177 248.885882 
L 217.828648 248.885882 
L 217.828648 247.943791 
L 218.006854 247.943791 
L 218.006854 247.001699 
L 218.744706 247.001699 
L 218.744706 246.059608 
L 219.589917 246.059608 
L 219.589917 245.117516 
L 220.030031 245.117516 
L 220.039914 242.291242 
L 220.213247 242.291242 
L 220.213247 241.34915 
L 220.443179 241.34915 
L 220.55041 239.464967 
L 220.872877 239.464967 
L 220.958709 237.580784 
L 221.034644 237.580784 
L 221.034644 236.638693 
L 221.746699 236.638693 
L 221.746699 235.696601 
L 222.099586 235.696601 
L 222.099586 234.75451 
L 222.469947 234.75451 
L 222.469947 233.812418 
L 222.852745 233.812418 
L 222.852745 232.870327 
L 223.131829 232.870327 
L 223.131829 231.928235 
L 223.245389 231.928235 
L 223.245389 230.986144 
L 223.370413 230.986144 
L 223.446508 228.159869 
L 223.537079 228.159869 
L 223.541612 226.275686 
L 223.841296 226.275686 
L 223.939887 224.391503 
L 224.715329 224.391503 
L 224.715329 223.449412 
L 225.174187 223.449412 
L 225.174187 222.50732 
L 225.742995 222.50732 
L 225.781523 220.623137 
L 226.160348 220.623137 
L 226.160348 219.681046 
L 226.427387 219.681046 
L 226.427387 218.738954 
L 226.654997 218.738954 
L 226.731604 215.91268 
L 227.424432 215.91268 
L 227.424432 214.970588 
L 227.574827 214.970588 
L 227.608529 213.086405 
L 227.893093 213.086405 
L 227.982906 211.202222 
L 228.212494 211.202222 
L 228.212494 210.260131 
L 228.361731 210.260131 
L 228.361731 209.318039 
L 228.655586 209.318039 
L 228.736794 207.433856 
L 229.106245 207.433856 
L 229.106245 206.491765 
L 229.501606 206.491765 
L 229.501606 205.549673 
L 230.465135 205.549673 
L 230.537835 203.66549 
L 230.595198 203.66549 
L 230.595198 202.723399 
L 230.783401 202.723399 
L 230.886497 199.897124 
L 230.899415 199.897124 
L 230.976705 198.012941 
L 231.102802 198.012941 
L 231.102802 197.07085 
L 231.707894 197.07085 
L 231.707894 196.128758 
L 232.391914 196.128758 
L 232.501708 194.244575 
L 232.815571 194.244575 
L 232.815571 193.302484 
L 233.037145 193.302484 
L 233.037145 192.360392 
L 233.329811 192.360392 
L 233.329811 191.418301 
L 233.91864 191.418301 
L 233.91864 190.476209 
L 234.632946 190.476209 
L 234.632946 189.534118 
L 234.829273 189.534118 
L 234.829273 188.592026 
L 234.951212 188.592026 
L 234.951212 187.649935 
L 235.270613 187.649935 
L 235.347056 185.765752 
L 235.543791 185.765752 
L 235.63187 183.881569 
L 235.767426 183.881569 
L 235.847437 180.113203 
L 236.159784 180.113203 
L 236.192268 178.22902 
L 236.559725 178.22902 
L 236.559725 177.286928 
L 236.883031 177.286928 
L 236.883031 176.344837 
L 237.045529 176.344837 
L 237.045529 175.402745 
L 237.475227 175.402745 
L 237.555568 172.576471 
L 237.661462 172.576471 
L 237.661462 171.634379 
L 237.859593 171.634379 
L 237.940546 168.808105 
L 238.393651 168.808105 
L 238.434099 166.923922 
L 239.246912 166.923922 
L 239.328836 165.039739 
L 239.67661 165.039739 
L 239.67661 164.097647 
L 240.542238 164.097647 
L 240.542238 161.271373 
L 240.846454 161.271373 
L 240.910172 159.38719 
L 241.211086 159.38719 
L 241.279623 157.503007 
L 241.536105 157.503007 
L 241.536105 156.560915 
L 241.837517 156.560915 
L 241.837517 155.618824 
L 242.601909 155.618824 
L 242.601909 154.676732 
L 242.743621 154.676732 
L 242.782149 152.792549 
L 243.150083 152.792549 
L 243.257348 149.966275 
L 243.488821 149.966275 
L 243.536036 148.082092 
L 243.800479 148.082092 
L 243.800479 147.14 
L 244.169931 147.14 
L 244.169931 146.197908 
L 244.579985 146.197908 
L 244.675086 144.313725 
L 244.898251 144.313725 
L 244.898251 143.371634 
L 245.217652 143.371634 
L 245.299582 141.487451 
L 245.458731 141.487451 
L 245.458731 140.545359 
L 246.040391 140.545359 
L 246.120979 138.661176 
L 246.440676 138.661176 
L 246.506765 136.776993 
L 247.320517 136.776993 
L 247.320517 135.834902 
L 247.565394 135.834902 
L 247.565394 134.89281 
L 247.805248 134.89281 
L 247.836387 133.008627 
L 247.96829 133.008627 
L 248.043764 131.124444 
L 248.331725 131.124444 
L 248.337742 128.29817 
L 248.613796 128.29817 
L 248.613796 127.356078 
L 249.020326 127.356078 
L 249.020326 126.413987 
L 249.932162 126.413987 
L 249.932162 125.471895 
L 250.208201 125.471895 
L 250.260522 123.587712 
L 250.695556 123.587712 
L 250.695556 122.645621 
L 251.733205 122.645621 
L 251.733205 121.703529 
L 252.133544 121.703529 
L 252.209355 119.819346 
L 252.347681 119.819346 
L 252.441899 116.993072 
L 252.548949 116.993072 
L 252.548949 116.05098 
L 252.99825 116.05098 
L 252.99825 115.108889 
L 253.192893 115.108889 
L 253.192893 114.166797 
L 253.741921 114.166797 
L 253.741921 113.224706 
L 254.046155 113.224706 
L 254.046155 112.282614 
L 254.475852 112.282614 
L 254.501571 110.398431 
L 254.643282 110.398431 
L 254.643282 108.514248 
L 254.863367 108.514248 
L 254.863367 107.572157 
L 255.62417 107.572157 
L 255.709414 105.687974 
L 256.460314 105.687974 
L 256.460314 104.745882 
L 256.702954 104.745882 
L 256.702954 103.803791 
L 257.281712 103.803791 
L 257.281712 102.861699 
L 257.542863 102.861699 
L 257.542863 101.919608 
L 257.901906 101.919608 
L 257.91533 100.035425 
L 258.284781 100.035425 
L 258.284781 99.093333 
L 258.599722 99.093333 
L 258.599722 98.151242 
L 259.492457 98.151242 
L 259.492457 97.20915 
L 260.155241 97.20915 
L 260.257973 95.324967 
L 260.853761 95.324967 
L 260.853761 94.382876 
L 261.421254 94.382876 
L 261.421254 93.440784 
L 261.680244 93.440784 
L 261.680244 92.498693 
L 262.747797 92.498693 
L 262.767533 90.61451 
L 263.026881 90.61451 
L 263.026881 89.672418 
L 264.810406 89.672418 
L 264.902654 87.788235 
L 266.62244 87.788235 
L 266.62244 86.846144 
L 266.784903 86.846144 
L 266.784903 85.904052 
L 266.932787 85.904052 
L 266.932787 84.961961 
L 269.062639 84.961961 
L 269.062639 84.019869 
L 269.442524 84.019869 
L 269.442524 82.135686 
L 271.502196 82.135686 
L 271.502196 81.193595 
L 272.014494 81.193595 
L 272.014494 80.251503 
L 272.714572 80.251503 
L 272.714572 79.309412 
L 273.90853 79.309412 
L 273.90853 78.36732 
L 274.187614 78.36732 
L 274.187614 77.425229 
L 277.783172 77.425229 
L 277.783172 76.483137 
L 446.924475 76.483137 
L 446.924475 76.483137 
" clip-path="url(#p7b3cb7d1d9)" style="fill: none; stroke: #000000; stroke-width: 3; stroke-linecap: square"/>
   </g>
   <g id="line2d_34">
    <path clip-path="url(#p7b3cb7d1d9)" style="fill: none; stroke: #000000; stroke-width: 3; stroke-linecap: square"/>
   </g>
   <g id="line2d_35">
    <path d="M 34.16 288.453725 
L 182.839975 288.453725 
L 182.839975 287.197603 
L 186.873727 287.197603 
L 186.873727 285.941481 
L 190.17564 285.941481 
L 190.17564 284.685359 
L 190.789285 284.685359 
L 190.789285 283.429237 
L 194.562128 283.429237 
L 194.562128 282.173115 
L 195.530697 282.173115 
L 195.530697 280.916993 
L 198.500862 280.916993 
L 198.500862 278.404749 
L 204.03725 278.404749 
L 204.03725 277.148627 
L 205.839963 277.148627 
L 205.839963 274.636383 
L 208.812601 274.636383 
L 208.812601 273.380261 
L 209.333838 273.380261 
L 209.333838 272.124139 
L 210.704176 272.124139 
L 210.704176 270.868017 
L 211.85383 270.868017 
L 211.85383 269.611895 
L 212.245045 269.611895 
L 212.292695 265.843529 
L 213.304011 265.843529 
L 213.304011 264.587407 
L 213.825247 264.587407 
L 213.825247 263.331285 
L 214.233412 263.331285 
L 214.233412 262.075163 
L 216.255885 262.075163 
L 216.345239 257.050675 
L 216.736454 257.050675 
L 216.736454 255.794553 
L 216.906326 255.794553 
L 216.906326 254.538431 
L 219.62836 254.538431 
L 219.62836 252.026187 
L 220.242005 252.026187 
L 220.242005 249.513943 
L 220.443179 249.513943 
L 220.443179 248.257821 
L 221.071983 248.257821 
L 221.071983 247.001699 
L 221.183671 247.001699 
L 221.232727 244.489455 
L 221.397735 244.489455 
L 221.397735 243.233333 
L 222.155916 243.233333 
L 222.155916 241.977211 
L 222.269147 241.977211 
L 222.372153 239.464967 
L 222.89339 239.464967 
L 222.89339 238.208845 
L 224.014847 238.208845 
L 224.014847 235.696601 
L 224.983417 235.696601 
L 224.983417 233.184357 
L 225.15831 233.184357 
L 225.229049 229.415991 
L 225.413381 229.415991 
L 225.413381 228.159869 
L 225.67508 228.159869 
L 225.724136 225.647625 
L 225.804596 225.647625 
L 225.804596 224.391503 
L 226.189667 224.391503 
L 226.189667 223.135381 
L 226.305076 223.135381 
L 226.365678 219.367015 
L 226.478334 219.367015 
L 226.57295 216.854771 
L 226.760556 216.854771 
L 226.760556 215.598649 
L 227.851516 215.598649 
L 227.953582 209.318039 
L 229.231365 209.318039 
L 229.315375 205.549673 
L 229.368642 205.549673 
L 229.368642 204.293551 
L 229.49158 204.293551 
L 229.49158 203.037429 
L 229.739839 203.037429 
L 229.739839 201.781307 
L 229.963584 201.781307 
L 229.963584 200.525185 
L 230.105225 200.525185 
L 230.191635 198.012941 
L 230.465877 198.012941 
L 230.465877 196.756819 
L 230.659277 196.756819 
L 230.712871 194.244575 
L 230.796485 194.244575 
L 230.857087 190.476209 
L 230.969743 190.476209 
L 230.969743 189.220087 
L 231.553072 189.220087 
L 231.553072 187.963965 
L 231.885268 187.963965 
L 231.981742 185.451721 
L 232.628617 185.451721 
L 232.628617 184.195599 
L 232.912591 184.195599 
L 232.912591 182.939477 
L 233.232863 182.939477 
L 233.232863 181.683355 
L 233.38843 181.683355 
L 233.48997 176.658867 
L 233.607772 176.658867 
L 233.624078 174.146623 
L 233.826166 174.146623 
L 233.878068 170.378257 
L 234.12065 170.378257 
L 234.12065 167.866013 
L 234.376804 167.866013 
L 234.376804 166.609891 
L 234.732332 166.609891 
L 234.792278 162.841525 
L 234.846637 162.841525 
L 234.846637 161.585403 
L 235.187181 161.585403 
L 235.292682 155.304793 
L 235.464552 155.304793 
L 235.464552 154.048671 
L 235.598782 154.048671 
L 235.598782 152.792549 
L 235.710137 152.792549 
L 235.800826 149.024183 
L 235.822761 149.024183 
L 235.903303 145.255817 
L 236.138807 145.255817 
L 236.138807 142.743573 
L 236.385172 142.743573 
L 236.42454 140.231329 
L 236.785682 140.231329 
L 236.785682 137.719085 
L 237.054039 137.719085 
L 237.054039 136.462963 
L 237.404 136.462963 
L 237.482709 133.950719 
L 237.764837 133.950719 
L 237.816802 128.926231 
L 237.899221 128.926231 
L 237.899221 127.670109 
L 238.093904 127.670109 
L 238.129584 125.157865 
L 238.285359 125.157865 
L 238.285359 123.901743 
L 238.53387 123.901743 
L 238.63144 120.133377 
L 238.944532 120.133377 
L 238.944532 118.877255 
L 239.108739 118.877255 
L 239.183006 116.365011 
L 239.335747 116.365011 
L 239.335747 115.108889 
L 239.573668 115.108889 
L 239.573668 113.852767 
L 239.755847 113.852767 
L 239.864628 110.084401 
L 239.877771 110.084401 
L 239.979827 103.803791 
L 240.037886 103.803791 
L 240.037886 102.547669 
L 240.156896 102.547669 
L 240.220928 98.779303 
L 240.542238 98.779303 
L 240.649597 93.754815 
L 241.099749 93.754815 
L 241.099749 92.498693 
L 241.296472 92.498693 
L 241.323728 89.986449 
L 241.492822 89.986449 
L 241.492822 88.730327 
L 241.886139 88.730327 
L 241.886139 87.474205 
L 242.250969 87.474205 
L 242.275627 83.705839 
L 242.562704 83.705839 
L 242.61176 81.193595 
L 242.928194 81.193595 
L 242.928194 79.937473 
L 243.04466 79.937473 
L 243.04466 78.681351 
L 243.353191 78.681351 
L 243.353191 77.425229 
L 243.512403 77.425229 
L 243.594871 73.656863 
L 243.64818 73.656863 
L 243.686131 68.632375 
L 243.997027 68.632375 
L 243.997027 67.376253 
L 244.266637 67.376253 
L 244.266637 66.120131 
L 244.490617 66.120131 
L 244.490617 64.864009 
L 245.053028 64.864009 
L 245.155903 61.095643 
L 245.649888 61.095643 
L 245.708605 56.071155 
L 246.151173 56.071155 
L 246.151173 54.815033 
L 246.472143 54.815033 
L 246.472143 53.558911 
L 246.76176 53.558911 
L 246.76176 52.302789 
L 246.99379 52.302789 
L 246.99379 51.046667 
L 247.684109 51.046667 
L 247.744711 47.278301 
L 247.857367 47.278301 
L 247.857367 46.022179 
L 248.274373 46.022179 
L 248.323429 43.509935 
L 249.048791 43.509935 
L 249.048791 42.253813 
L 249.359849 42.253813 
L 249.359849 40.997691 
L 249.895899 40.997691 
L 249.895899 38.485447 
L 250.020117 38.485447 
L 250.020117 37.229325 
L 250.160678 37.229325 
L 250.160678 35.973203 
L 250.308239 35.973203 
L 250.308239 33.460959 
L 250.747675 33.460959 
L 250.851503 29.692593 
L 251.65214 29.692593 
L 251.65214 28.436471 
L 252.742558 28.436471 
L 252.742558 27.180349 
L 253.395778 27.180349 
L 253.45638 23.411983 
L 253.549352 23.411983 
L 253.569036 20.899739 
L 254.291624 20.899739 
L 254.291624 19.643617 
L 254.819029 19.643617 
L 254.819029 18.387495 
L 255.571826 18.387495 
L 255.571826 17.131373 
L 255.715717 17.131373 
L 255.715717 15.875251 
L 256.459344 15.875251 
L 256.459344 14.619129 
L 259.244952 14.619129 
L 259.244952 13.363007 
L 259.759119 13.363007 
L 259.759119 12.106885 
L 260.003293 12.106885 
L 260.003293 10.850763 
L 260.562039 10.850763 
L 260.562039 9.594641 
L 261.267426 9.594641 
L 261.267426 8.338519 
L 265.45472 8.338519 
L 265.45472 7.082397 
L 266.273708 7.082397 
L 266.273708 5.826275 
L 446.924475 5.826275 
L 446.924475 5.826275 
" clip-path="url(#p7b3cb7d1d9)" style="fill: none; stroke: #00bfbf; stroke-width: 3; stroke-linecap: square"/>
   </g>
   <g id="line2d_36">
    <path clip-path="url(#p7b3cb7d1d9)" style="fill: none; stroke: #00bfbf; stroke-width: 3; stroke-linecap: square"/>
   </g>
   <g id="line2d_37">
    <path d="M 34.16 288.453725 
L 182.839975 288.453725 
L 182.839975 287.197603 
L 186.873727 287.197603 
L 186.873727 285.941481 
L 190.17564 285.941481 
L 190.17564 284.685359 
L 190.789285 284.685359 
L 190.789285 283.429237 
L 194.562128 283.429237 
L 194.562128 282.173115 
L 195.530697 282.173115 
L 195.530697 280.916993 
L 198.500862 280.916993 
L 198.500862 278.404749 
L 203.326201 278.404749 
L 203.326201 277.148627 
L 204.03725 277.148627 
L 204.03725 275.892505 
L 205.839963 275.892505 
L 205.839963 274.636383 
L 210.704176 274.636383 
L 210.704176 273.380261 
L 212.292695 273.380261 
L 212.292695 270.868017 
L 214.233412 270.868017 
L 214.233412 269.611895 
L 216.255885 269.611895 
L 216.326447 265.843529 
L 219.62836 265.843529 
L 219.62836 263.331285 
L 220.242005 263.331285 
L 220.242005 260.819041 
L 220.443179 260.819041 
L 220.443179 259.562919 
L 222.155916 259.562919 
L 222.155916 258.306797 
L 224.014847 258.306797 
L 224.014847 255.794553 
L 224.983417 255.794553 
L 224.983417 253.282309 
L 226.189667 253.282309 
L 226.189667 252.026187 
L 227.851516 252.026187 
L 227.953582 244.489455 
L 228.408971 244.489455 
L 228.408971 243.233333 
L 228.819021 243.233333 
L 228.819021 241.977211 
L 229.49158 241.977211 
L 229.49158 240.721089 
L 230.014924 240.721089 
L 230.105225 238.208845 
L 230.364616 238.208845 
L 230.417133 235.696601 
L 230.861228 235.696601 
L 230.882539 233.184357 
L 231.187233 233.184357 
L 231.267644 230.672113 
L 231.322524 230.672113 
L 231.322524 229.415991 
L 231.482225 229.415991 
L 231.482225 228.159869 
L 231.885268 228.159869 
L 231.885268 226.903747 
L 232.04427 226.903747 
L 232.141717 223.135381 
L 232.463548 223.135381 
L 232.518428 219.367015 
L 232.77892 219.367015 
L 232.865756 215.598649 
L 232.920636 215.598649 
L 232.920636 214.342527 
L 233.230819 214.342527 
L 233.337621 211.830283 
L 233.48997 211.830283 
L 233.48997 209.318039 
L 233.63949 209.318039 
L 233.739829 205.549673 
L 233.878068 205.549673 
L 233.934482 203.037429 
L 234.107788 203.037429 
L 234.107788 201.781307 
L 234.422901 201.781307 
L 234.492893 199.269063 
L 234.547773 199.269063 
L 234.547773 198.012941 
L 234.846637 198.012941 
L 234.846637 196.756819 
L 235.04141 196.756819 
L 235.124046 194.244575 
L 235.187181 194.244575 
L 235.292682 189.220087 
L 235.366966 189.220087 
L 235.366966 187.963965 
L 235.538021 187.963965 
L 235.616666 185.451721 
L 235.683076 185.451721 
L 235.769425 181.683355 
L 235.800826 181.683355 
L 235.800826 180.427233 
L 235.94956 180.427233 
L 235.94956 179.171111 
L 236.097874 179.171111 
L 236.152754 176.658867 
L 236.244927 176.658867 
L 236.244927 175.402745 
L 236.446172 175.402745 
L 236.446172 174.146623 
L 236.875158 174.146623 
L 236.971947 170.378257 
L 237.110879 170.378257 
L 237.187564 167.866013 
L 237.572669 167.866013 
L 237.627549 165.353769 
L 237.816802 165.353769 
L 237.816802 162.841525 
L 238.068923 162.841525 
L 238.068923 161.585403 
L 238.316284 161.585403 
L 238.316284 160.329281 
L 238.446742 160.329281 
L 238.547687 155.304793 
L 238.611276 155.304793 
L 238.697184 152.792549 
L 238.842679 152.792549 
L 238.920876 149.024183 
L 239.174398 149.024183 
L 239.236509 145.255817 
L 239.402892 145.255817 
L 239.402892 143.999695 
L 239.519426 143.999695 
L 239.614383 138.975207 
L 239.973832 138.975207 
L 239.973832 137.719085 
L 240.156896 137.719085 
L 240.156896 135.206841 
L 240.35987 135.206841 
L 240.433576 131.438475 
L 240.542238 131.438475 
L 240.591273 127.670109 
L 240.927343 127.670109 
L 240.994629 121.389499 
L 241.26802 121.389499 
L 241.369499 116.365011 
L 241.420858 116.365011 
L 241.424379 113.852767 
L 241.551952 113.852767 
L 241.551952 112.596645 
L 241.688766 112.596645 
L 241.783356 110.084401 
L 241.801416 110.084401 
L 241.801416 108.828279 
L 242.021247 108.828279 
L 242.021247 107.572157 
L 242.188183 107.572157 
L 242.243572 105.059913 
L 242.426089 105.059913 
L 242.460102 102.547669 
L 242.642141 102.547669 
L 242.745716 100.035425 
L 242.805826 100.035425 
L 242.885761 96.267059 
L 242.97712 96.267059 
L 242.97712 95.010937 
L 243.117714 95.010937 
L 243.117714 93.754815 
L 243.233916 93.754815 
L 243.233916 92.498693 
L 243.353191 92.498693 
L 243.373977 89.986449 
L 243.512403 89.986449 
L 243.605381 86.218083 
L 243.653867 86.218083 
L 243.686131 82.449717 
L 243.873115 82.449717 
L 243.873115 81.193595 
L 244.079686 81.193595 
L 244.084765 78.681351 
L 244.282128 78.681351 
L 244.311089 76.169107 
L 244.46987 76.169107 
L 244.52475 73.656863 
L 244.949279 73.656863 
L 244.987836 71.144619 
L 245.155903 71.144619 
L 245.258083 67.376253 
L 245.297434 67.376253 
L 245.389264 62.351765 
L 245.566337 62.351765 
L 245.671422 58.583399 
L 245.682539 58.583399 
L 245.737419 53.558911 
L 245.902826 53.558911 
L 245.902826 52.302789 
L 246.208457 52.302789 
L 246.208457 51.046667 
L 246.36556 51.046667 
L 246.44041 48.534423 
L 246.556612 48.534423 
L 246.596963 44.766057 
L 247.102883 44.766057 
L 247.102883 43.509935 
L 247.27371 43.509935 
L 247.334286 40.997691 
L 247.557318 40.997691 
L 247.557318 39.741569 
L 247.704004 39.741569 
L 247.788722 37.229325 
L 248.011033 37.229325 
L 248.011033 35.973203 
L 248.337742 35.973203 
L 248.337742 34.717081 
L 248.465469 34.717081 
L 248.549908 32.204837 
L 248.781312 32.204837 
L 248.781312 30.948715 
L 249.048791 30.948715 
L 249.048791 29.692593 
L 249.458059 29.692593 
L 249.458059 28.436471 
L 249.767522 28.436471 
L 249.767522 27.180349 
L 249.895899 27.180349 
L 249.934877 23.411983 
L 250.020117 23.411983 
L 250.020117 22.155861 
L 250.152627 22.155861 
L 250.207507 18.387495 
L 250.843028 18.387495 
L 250.851503 15.875251 
L 251.0267 15.875251 
L 251.0267 14.619129 
L 253.549352 14.619129 
L 253.549352 13.363007 
L 255.571826 13.363007 
L 255.571826 12.106885 
L 255.715717 12.106885 
L 255.715717 10.850763 
L 259.244952 10.850763 
L 259.244952 9.594641 
L 259.759119 9.594641 
L 259.759119 8.338519 
L 261.267426 8.338519 
L 261.267426 7.082397 
L 265.45472 7.082397 
L 265.45472 5.826275 
L 446.924475 5.826275 
L 446.924475 5.826275 
" clip-path="url(#p7b3cb7d1d9)" style="fill: none; stroke: #bf00bf; stroke-width: 3; stroke-linecap: square"/>
   </g>
   <g id="line2d_38">
    <path clip-path="url(#p7b3cb7d1d9)" style="fill: none; stroke: #bf00bf; stroke-width: 3; stroke-linecap: square"/>
   </g>
   <g id="line2d_39">
    <path d="M 34.16 288.453725 
L 182.839975 288.453725 
L 182.839975 287.197603 
L 186.873727 287.197603 
L 186.873727 285.941481 
L 190.17564 285.941481 
L 190.17564 284.685359 
L 190.789285 284.685359 
L 190.789285 283.429237 
L 194.562128 283.429237 
L 194.562128 282.173115 
L 195.530697 282.173115 
L 195.530697 280.916993 
L 198.500862 280.916993 
L 198.500862 278.404749 
L 203.326201 278.404749 
L 203.326201 277.148627 
L 204.03725 277.148627 
L 204.03725 275.892505 
L 205.839963 275.892505 
L 205.839963 274.636383 
L 210.704176 274.636383 
L 210.704176 273.380261 
L 212.292695 273.380261 
L 212.292695 270.868017 
L 214.233412 270.868017 
L 214.233412 269.611895 
L 216.255885 269.611895 
L 216.326447 265.843529 
L 219.62836 265.843529 
L 219.62836 263.331285 
L 220.242005 263.331285 
L 220.242005 260.819041 
L 220.443179 260.819041 
L 220.443179 259.562919 
L 222.155916 259.562919 
L 222.155916 258.306797 
L 224.014847 258.306797 
L 224.014847 255.794553 
L 224.983417 255.794553 
L 224.983417 253.282309 
L 226.189667 253.282309 
L 226.189667 252.026187 
L 227.078188 252.026187 
L 227.078188 250.770065 
L 227.380659 250.770065 
L 227.380659 249.513943 
L 227.851516 249.513943 
L 227.953582 243.233333 
L 229.137362 243.233333 
L 229.137362 241.977211 
L 229.364877 241.977211 
L 229.364877 240.721089 
L 229.49158 240.721089 
L 229.49158 239.464967 
L 229.667348 239.464967 
L 229.749288 236.952723 
L 230.105225 236.952723 
L 230.105225 235.696601 
L 230.525635 235.696601 
L 230.525635 233.184357 
L 231.299767 233.184357 
L 231.299767 231.928235 
L 231.748577 231.928235 
L 231.748577 230.672113 
L 231.885268 230.672113 
L 231.911693 228.159869 
L 232.332429 228.159869 
L 232.397636 224.391503 
L 232.77892 224.391503 
L 232.812324 218.110893 
L 233.48997 218.110893 
L 233.48997 215.598649 
L 233.735708 215.598649 
L 233.785039 213.086405 
L 233.878068 213.086405 
L 233.965466 209.318039 
L 234.267937 209.318039 
L 234.267937 208.061917 
L 234.386922 208.061917 
L 234.386922 206.805795 
L 234.560042 206.805795 
L 234.651144 203.037429 
L 234.689393 203.037429 
L 234.733801 200.525185 
L 234.846637 200.525185 
L 234.846637 199.269063 
L 235.068523 199.269063 
L 235.068523 198.012941 
L 235.187181 198.012941 
L 235.292682 194.244575 
L 235.499076 194.244575 
L 235.559842 191.732331 
L 235.715394 191.732331 
L 235.800826 186.707843 
L 235.898113 186.707843 
L 235.905366 184.195599 
L 236.071728 184.195599 
L 236.071728 182.939477 
L 236.193906 182.939477 
L 236.193906 181.683355 
L 236.375889 181.683355 
L 236.375889 180.427233 
L 236.517292 180.427233 
L 236.52769 177.914989 
L 236.805833 177.914989 
L 236.830195 174.146623 
L 237.02049 174.146623 
L 237.057693 171.634379 
L 237.33665 171.634379 
L 237.412912 167.866013 
L 237.661482 167.866013 
L 237.661482 166.609891 
L 237.816802 166.609891 
L 237.8778 159.073159 
L 238.035676 159.073159 
L 238.079194 156.560915 
L 238.375178 156.560915 
L 238.375178 155.304793 
L 238.516582 155.304793 
L 238.516582 154.048671 
L 238.805122 154.048671 
L 238.814379 151.536427 
L 238.987228 151.536427 
L 239.024237 149.024183 
L 239.116884 149.024183 
L 239.220098 143.999695 
L 239.251732 143.999695 
L 239.345094 141.487451 
L 239.454181 141.487451 
L 239.454181 140.231329 
L 239.573668 140.231329 
L 239.673189 133.950719 
L 239.790433 133.950719 
L 239.808304 131.438475 
L 240.090568 131.438475 
L 240.198082 126.413987 
L 240.362309 126.413987 
L 240.421372 123.901743 
L 240.503712 123.901743 
L 240.542238 121.389499 
L 240.672316 121.389499 
L 240.723843 118.877255 
L 240.792252 118.877255 
L 240.792252 117.621133 
L 240.965742 117.621133 
L 240.965742 116.365011 
L 241.093773 116.365011 
L 241.093773 115.108889 
L 241.258503 115.108889 
L 241.258503 113.852767 
L 241.5075 113.852767 
L 241.5075 112.596645 
L 241.621079 112.596645 
L 241.621079 111.340523 
L 241.952839 111.340523 
L 242.042535 108.828279 
L 242.094994 108.828279 
L 242.125677 106.316035 
L 242.26708 106.316035 
L 242.341995 103.803791 
L 242.44712 103.803791 
L 242.555621 100.035425 
L 242.642141 100.035425 
L 242.679783 97.523181 
L 242.771939 97.523181 
L 242.868576 95.010937 
L 242.935799 95.010937 
L 242.935799 93.754815 
L 243.101239 93.754815 
L 243.128147 91.242571 
L 243.353191 91.242571 
L 243.451423 86.218083 
L 243.512403 86.218083 
L 243.592826 82.449717 
L 243.684293 82.449717 
L 243.717472 77.425229 
L 243.825697 77.425229 
L 243.881367 71.144619 
L 244.114237 71.144619 
L 244.223928 67.376253 
L 244.645385 67.376253 
L 244.662277 64.864009 
L 244.80368 64.864009 
L 244.80368 63.607887 
L 245.092221 63.607887 
L 245.155903 59.839521 
L 245.675613 59.839521 
L 245.708605 54.815033 
L 245.971695 54.815033 
L 245.971695 53.558911 
L 246.113098 53.558911 
L 246.125017 51.046667 
L 246.401639 51.046667 
L 246.417034 48.534423 
L 246.558437 48.534423 
L 246.558437 47.278301 
L 246.695582 47.278301 
L 246.695582 46.022179 
L 246.846978 46.022179 
L 246.846978 44.766057 
L 247.117039 44.766057 
L 247.128223 42.253813 
L 247.592343 42.253813 
L 247.592343 40.997691 
L 247.733746 40.997691 
L 247.733746 39.741569 
L 247.885104 39.741569 
L 247.885104 38.485447 
L 248.022286 38.485447 
L 248.076985 34.717081 
L 248.315047 34.717081 
L 248.337742 32.204837 
L 248.903026 32.204837 
L 248.903026 30.948715 
L 249.048791 30.948715 
L 249.135689 28.436471 
L 249.5624 28.436471 
L 249.5624 27.180349 
L 249.703803 27.180349 
L 249.703803 25.924227 
L 249.870874 25.924227 
L 249.895899 22.155861 
L 249.992344 22.155861 
L 250.020117 19.643617 
L 250.173378 19.643617 
L 250.173378 18.387495 
L 250.679834 18.387495 
L 250.679834 17.131373 
L 250.851503 17.131373 
L 250.851503 15.875251 
L 253.151488 15.875251 
L 253.151488 14.619129 
L 253.549352 14.619129 
L 253.549352 13.363007 
L 255.571826 13.363007 
L 255.571826 12.106885 
L 255.715717 12.106885 
L 255.715717 10.850763 
L 259.244952 10.850763 
L 259.244952 9.594641 
L 259.759119 9.594641 
L 259.759119 8.338519 
L 261.267426 8.338519 
L 261.267426 7.082397 
L 265.45472 7.082397 
L 265.45472 5.826275 
L 446.924475 5.826275 
L 446.924475 5.826275 
" clip-path="url(#p7b3cb7d1d9)" style="fill: none; stroke: #ff0000; stroke-width: 3; stroke-linecap: square"/>
   </g>
   <g id="line2d_40">
    <path clip-path="url(#p7b3cb7d1d9)" style="fill: none; stroke: #ff0000; stroke-width: 3; stroke-linecap: square"/>
   </g>
   <g id="line2d_41">
    <path d="M 240.542238 291.28 
L 240.542238 3 
" clip-path="url(#p7b3cb7d1d9)" style="fill: none; stroke: #000000; stroke-width: 1.5; stroke-linecap: square"/>
   </g>
   <g id="line2d_42">
    <path d="M 34.16 147.14 
L 446.924475 147.14 
" clip-path="url(#p7b3cb7d1d9)" style="fill: none; stroke-dasharray: 2,3.3; stroke-dashoffset: 0; stroke: #000000; stroke-width: 2"/>
   </g>
   <g id="patch_3">
    <path d="M 34.16 291.28 
L 34.16 3 
" style="fill: none; stroke: #000000; stroke-width: 0.8; stroke-linejoin: miter; stroke-linecap: square"/>
   </g>
   <g id="patch_4">
    <path d="M 446.924475 291.28 
L 446.924475 3 
" style="fill: none; stroke: #000000; stroke-width: 0.8; stroke-linejoin: miter; stroke-linecap: square"/>
   </g>
   <g id="patch_5">
    <path d="M 34.16 291.28 
L 446.924475 291.28 
" style="fill: none; stroke: #000000; stroke-width: 0.8; stroke-linejoin: miter; stroke-linecap: square"/>
   </g>
   <g id="patch_6">
    <path d="M 34.16 3 
L 446.924475 3 
" style="fill: none; stroke: #000000; stroke-width: 0.8; stroke-linejoin: miter; stroke-linecap: square"/>
   </g>
   <g id="text_6">
    <!-- f1-f5,20-D -->
    <g transform="translate(337.500436 285.5144)scale(0.2 -0.2)">
     <defs>
      <path id="DejaVuSans-35" d="M 691 4666 
L 3169 4666 
L 3169 4134 
L 1269 4134 
L 1269 2991 
Q 1406 3038 1543 3061 
Q 1681 3084 1819 3084 
Q 2600 3084 3056 2656 
Q 3513 2228 3513 1497 
Q 3513 744 3044 326 
Q 2575 -91 1722 -91 
Q 1428 -91 1123 -41 
Q 819 9 494 109 
L 494 744 
Q 775 591 1075 516 
Q 1375 441 1709 441 
Q 2250 441 2565 725 
Q 2881 1009 2881 1497 
Q 2881 1984 2565 2268 
Q 2250 2553 1709 2553 
Q 1456 2553 1204 2497 
Q 953 2441 691 2322 
L 691 4666 
z
" transform="scale(0.015625)"/>
      <path id="DejaVuSans-2c" d="M 750 794 
L 1409 794 
L 1409 256 
L 897 -744 
L 494 -744 
L 750 256 
L 750 794 
z
" transform="scale(0.015625)"/>
      <path id="DejaVuSans-32" d="M 1228 531 
L 3431 531 
L 3431 0 
L 469 0 
L 469 531 
Q 828 903 1448 1529 
Q 2069 2156 2228 2338 
Q 2531 2678 2651 2914 
Q 2772 3150 2772 3378 
Q 2772 3750 2511 3984 
Q 2250 4219 1831 4219 
Q 1534 4219 1204 4116 
Q 875 4013 500 3803 
L 500 4441 
Q 881 4594 1212 4672 
Q 1544 4750 1819 4750 
Q 2544 4750 2975 4387 
Q 3406 4025 3406 3419 
Q 3406 3131 3298 2873 
Q 3191 2616 2906 2266 
Q 2828 2175 2409 1742 
Q 1991 1309 1228 531 
z
" transform="scale(0.015625)"/>
      <path id="DejaVuSans-44" d="M 1259 4147 
L 1259 519 
L 2022 519 
Q 2988 519 3436 956 
Q 3884 1394 3884 2338 
Q 3884 3275 3436 3711 
Q 2988 4147 2022 4147 
L 1259 4147 
z
M 628 4666 
L 1925 4666 
Q 3281 4666 3915 4102 
Q 4550 3538 4550 2338 
Q 4550 1131 3912 565 
Q 3275 0 1925 0 
L 628 0 
L 628 4666 
z
" transform="scale(0.015625)"/>
     </defs>
     <use xlink:href="#DejaVuSans-66"/>
     <use xlink:href="#DejaVuSans-31" x="35.205078"/>
     <use xlink:href="#DejaVuSans-2d" x="98.828125"/>
     <use xlink:href="#DejaVuSans-66" x="134.912109"/>
     <use xlink:href="#DejaVuSans-35" x="170.117188"/>
     <use xlink:href="#DejaVuSans-2c" x="233.740234"/>
     <use xlink:href="#DejaVuSans-32" x="265.527344"/>
     <use xlink:href="#DejaVuSans-30" x="329.150391"/>
     <use xlink:href="#DejaVuSans-2d" x="392.773438"/>
     <use xlink:href="#DejaVuSans-44" x="428.857422"/>
    </g>
   </g>
   <g id="text_7">
    <!-- v2.6 -->
    <g style="fill: #808080" transform="translate(229.6313 286.317512)scale(0.1 -0.1)">
     <defs>
      <path id="DejaVuSans-2e" d="M 684 794 
L 1344 794 
L 1344 0 
L 684 0 
L 684 794 
z
" transform="scale(0.015625)"/>
      <path id="DejaVuSans-36" d="M 2113 2584 
Q 1688 2584 1439 2293 
Q 1191 2003 1191 1497 
Q 1191 994 1439 701 
Q 1688 409 2113 409 
Q 2538 409 2786 701 
Q 3034 994 3034 1497 
Q 3034 2003 2786 2293 
Q 2538 2584 2113 2584 
z
M 3366 4563 
L 3366 3988 
Q 3128 4100 2886 4159 
Q 2644 4219 2406 4219 
Q 1781 4219 1451 3797 
Q 1122 3375 1075 2522 
Q 1259 2794 1537 2939 
Q 1816 3084 2150 3084 
Q 2853 3084 3261 2657 
Q 3669 2231 3669 1497 
Q 3669 778 3244 343 
Q 2819 -91 2113 -91 
Q 1303 -91 875 529 
Q 447 1150 447 2328 
Q 447 3434 972 4092 
Q 1497 4750 2381 4750 
Q 2619 4750 2861 4703 
Q 3103 4656 3366 4563 
z
" transform="scale(0.015625)"/>
     </defs>
     <use xlink:href="#DejaVuSans-76"/>
     <use xlink:href="#DejaVuSans-32" x="59.179688"/>
     <use xlink:href="#DejaVuSans-2e" x="122.802734"/>
     <use xlink:href="#DejaVuSans-36" x="154.589844"/>
    </g>
   </g>
   <g id="legend_1">
    <g id="patch_7">
     <path d="M 48.16 136.425 
L 177.381875 136.425 
Q 181.381875 136.425 181.381875 132.425 
L 181.381875 17 
Q 181.381875 13 177.381875 13 
L 48.16 13 
Q 44.16 13 44.16 17 
L 44.16 132.425 
Q 44.16 136.425 48.16 136.425 
z
" style="fill: #ffffff; opacity: 0.2; stroke: #cccccc; stroke-linejoin: miter"/>
    </g>
    <g id="line2d_43">
     <path d="M 52.16 29.196875 
L 72.16 29.196875 
L 92.16 29.196875 
" style="fill: none; stroke: #000000; stroke-width: 3; stroke-linecap: square"/>
    </g>
    <g id="text_8">
     <!-- 1: 3/4 -->
     <g transform="translate(108.16 36.196875)scale(0.2 -0.2)">
      <defs>
       <path id="DejaVuSans-3a" d="M 750 794 
L 1409 794 
L 1409 0 
L 750 0 
L 750 794 
z
M 750 3309 
L 1409 3309 
L 1409 2516 
L 750 2516 
L 750 3309 
z
" transform="scale(0.015625)"/>
       <path id="DejaVuSans-33" d="M 2597 2516 
Q 3050 2419 3304 2112 
Q 3559 1806 3559 1356 
Q 3559 666 3084 287 
Q 2609 -91 1734 -91 
Q 1441 -91 1130 -33 
Q 819 25 488 141 
L 488 750 
Q 750 597 1062 519 
Q 1375 441 1716 441 
Q 2309 441 2620 675 
Q 2931 909 2931 1356 
Q 2931 1769 2642 2001 
Q 2353 2234 1838 2234 
L 1294 2234 
L 1294 2753 
L 1863 2753 
Q 2328 2753 2575 2939 
Q 2822 3125 2822 3475 
Q 2822 3834 2567 4026 
Q 2313 4219 1838 4219 
Q 1578 4219 1281 4162 
Q 984 4106 628 3988 
L 628 4550 
Q 988 4650 1302 4700 
Q 1616 4750 1894 4750 
Q 2613 4750 3031 4423 
Q 3450 4097 3450 3541 
Q 3450 3153 3228 2886 
Q 3006 2619 2597 2516 
z
" transform="scale(0.015625)"/>
       <path id="DejaVuSans-2f" d="M 1625 4666 
L 2156 4666 
L 531 -594 
L 0 -594 
L 1625 4666 
z
" transform="scale(0.015625)"/>
       <path id="DejaVuSans-34" d="M 2419 4116 
L 825 1625 
L 2419 1625 
L 2419 4116 
z
M 2253 4666 
L 3047 4666 
L 3047 1625 
L 3713 1625 
L 3713 1100 
L 3047 1100 
L 3047 0 
L 2419 0 
L 2419 1100 
L 313 1100 
L 313 1709 
L 2253 4666 
z
" transform="scale(0.015625)"/>
      </defs>
      <use xlink:href="#DejaVuSans-31"/>
      <use xlink:href="#DejaVuSans-3a" x="63.623047"/>
      <use xlink:href="#DejaVuSans-20" x="97.314453"/>
      <use xlink:href="#DejaVuSans-33" x="129.101562"/>
      <use xlink:href="#DejaVuSans-2f" x="192.724609"/>
      <use xlink:href="#DejaVuSans-34" x="226.416016"/>
     </g>
    </g>
    <g id="line2d_44">
     <path d="M 52.16 58.553125 
L 72.16 58.553125 
L 92.16 58.553125 
" style="fill: none; stroke: #00bfbf; stroke-width: 3; stroke-linecap: square"/>
    </g>
    <g id="text_9">
     <!-- -1: 3/3 -->
     <g transform="translate(108.16 65.553125)scale(0.2 -0.2)">
      <use xlink:href="#DejaVuSans-2d"/>
      <use xlink:href="#DejaVuSans-31" x="36.083984"/>
      <use xlink:href="#DejaVuSans-3a" x="99.707031"/>
      <use xlink:href="#DejaVuSans-20" x="133.398438"/>
      <use xlink:href="#DejaVuSans-33" x="165.185547"/>
      <use xlink:href="#DejaVuSans-2f" x="228.808594"/>
      <use xlink:href="#DejaVuSans-33" x="262.5"/>
     </g>
    </g>
    <g id="line2d_45">
     <path d="M 52.16 87.909375 
L 72.16 87.909375 
L 92.16 87.909375 
" style="fill: none; stroke: #bf00bf; stroke-width: 3; stroke-linecap: square"/>
    </g>
    <g id="text_10">
     <!-- -4: 3/3 -->
     <g transform="translate(108.16 94.909375)scale(0.2 -0.2)">
      <use xlink:href="#DejaVuSans-2d"/>
      <use xlink:href="#DejaVuSans-34" x="36.083984"/>
      <use xlink:href="#DejaVuSans-3a" x="99.707031"/>
      <use xlink:href="#DejaVuSans-20" x="133.398438"/>
      <use xlink:href="#DejaVuSans-33" x="165.185547"/>
      <use xlink:href="#DejaVuSans-2f" x="228.808594"/>
      <use xlink:href="#DejaVuSans-33" x="262.5"/>
     </g>
    </g>
    <g id="line2d_46">
     <path d="M 52.16 117.265625 
L 72.16 117.265625 
L 92.16 117.265625 
" style="fill: none; stroke: #ff0000; stroke-width: 3; stroke-linecap: square"/>
    </g>
    <g id="text_11">
     <!-- -8: 3/3 -->
     <g transform="translate(108.16 124.265625)scale(0.2 -0.2)">
      <defs>
       <path id="DejaVuSans-38" d="M 2034 2216 
Q 1584 2216 1326 1975 
Q 1069 1734 1069 1313 
Q 1069 891 1326 650 
Q 1584 409 2034 409 
Q 2484 409 2743 651 
Q 3003 894 3003 1313 
Q 3003 1734 2745 1975 
Q 2488 2216 2034 2216 
z
M 1403 2484 
Q 997 2584 770 2862 
Q 544 3141 544 3541 
Q 544 4100 942 4425 
Q 1341 4750 2034 4750 
Q 2731 4750 3128 4425 
Q 3525 4100 3525 3541 
Q 3525 3141 3298 2862 
Q 3072 2584 2669 2484 
Q 3125 2378 3379 2068 
Q 3634 1759 3634 1313 
Q 3634 634 3220 271 
Q 2806 -91 2034 -91 
Q 1263 -91 848 271 
Q 434 634 434 1313 
Q 434 1759 690 2068 
Q 947 2378 1403 2484 
z
M 1172 3481 
Q 1172 3119 1398 2916 
Q 1625 2713 2034 2713 
Q 2441 2713 2670 2916 
Q 2900 3119 2900 3481 
Q 2900 3844 2670 4047 
Q 2441 4250 2034 4250 
Q 1625 4250 1398 4047 
Q 1172 3844 1172 3481 
z
" transform="scale(0.015625)"/>
      </defs>
      <use xlink:href="#DejaVuSans-2d"/>
      <use xlink:href="#DejaVuSans-38" x="36.083984"/>
      <use xlink:href="#DejaVuSans-3a" x="99.707031"/>
      <use xlink:href="#DejaVuSans-20" x="133.398438"/>
      <use xlink:href="#DejaVuSans-33" x="165.185547"/>
      <use xlink:href="#DejaVuSans-2f" x="228.808594"/>
      <use xlink:href="#DejaVuSans-33" x="262.5"/>
     </g>
    </g>
   </g>
  </g>
 </g>
 <defs>
  <clipPath id="p7b3cb7d1d9">
   <rect x="34.16" y="3" width="412.764475" height="288.28"/>
  </clipPath>
 </defs>
</svg>
