<?xml version="1.0" encoding="utf-8" standalone="no"?>
<!DOCTYPE svg PUBLIC "-//W3C//DTD SVG 1.1//EN"
  "http://www.w3.org/Graphics/SVG/1.1/DTD/svg11.dtd">
<svg xmlns:xlink="http://www.w3.org/1999/xlink" width="460.8pt" height="345.6pt" viewBox="0 0 460.8 345.6" xmlns="http://www.w3.org/2000/svg" version="1.1">
 <metadata>
  <rdf:RDF xmlns:dc="http://purl.org/dc/elements/1.1/" xmlns:cc="http://creativecommons.org/ns#" xmlns:rdf="http://www.w3.org/1999/02/22-rdf-syntax-ns#">
   <cc:Work>
    <dc:type rdf:resource="http://purl.org/dc/dcmitype/StillImage"/>
    <dc:date>2022-03-17T00:25:39.652361</dc:date>
    <dc:format>image/svg+xml</dc:format>
    <dc:creator>
     <cc:Agent>
      <dc:title>Matplotlib v3.5.1, https://matplotlib.org/</dc:title>
     </cc:Agent>
    </dc:creator>
   </cc:Work>
  </rdf:RDF>
 </metadata>
 <defs>
  <style type="text/css">*{stroke-linejoin: round; stroke-linecap: butt}</style>
 </defs>
 <g id="figure_1">
  <g id="patch_1">
   <path d="M 0 345.6 
L 460.8 345.6 
L 460.8 0 
L 0 0 
z
" style="fill: #ffffff"/>
  </g>
  <g id="axes_1">
   <g id="patch_2">
    <path d="M 57.6 298.944 
L 360.8064 298.944 
L 360.8064 6.912 
L 57.6 6.912 
z
" style="fill: #ffffff"/>
   </g>
   <g id="line2d_1">
    <path d="M 44.560826 298.944 
L 44.560826 290.354824 
L 57.6 290.354824 
L 57.6 283.197176 
L 65.227428 283.197176 
L 65.227428 276.039529 
L 74.836851 276.039529 
L 74.836851 266.018824 
L 78.266603 266.018824 
L 78.266603 264.587294 
L 81.166416 264.587294 
L 81.166416 263.155765 
L 87.876026 263.155765 
L 87.876026 261.724235 
L 91.305777 261.724235 
L 91.305777 255.998118 
L 92.811505 255.998118 
L 92.811505 253.135059 
L 94.205591 253.135059 
L 94.205591 250.272 
L 95.503454 250.272 
L 95.503454 247.408941 
L 96.717523 247.408941 
L 96.717523 245.977412 
L 97.857967 245.977412 
L 97.857967 244.545882 
L 98.933205 244.545882 
L 98.933205 238.819765 
L 99.950294 238.819765 
L 99.950294 235.956706 
L 100.9152 235.956706 
L 100.9152 233.093647 
L 101.833019 233.093647 
L 101.833019 228.799059 
L 103.544339 228.799059 
L 103.544339 227.367529 
L 106.560633 227.367529 
L 106.560633 224.504471 
L 108.542628 224.504471 
L 108.542628 223.072941 
L 109.159456 223.072941 
L 109.159456 221.641412 
L 109.756698 221.641412 
L 109.756698 220.209882 
L 111.442442 220.209882 
L 111.442442 217.346824 
L 112.487797 217.346824 
L 112.487797 215.915294 
L 112.989468 215.915294 
L 112.989468 213.052235 
L 113.478107 213.052235 
L 113.478107 211.620706 
L 114.418881 211.620706 
L 114.418881 208.757647 
L 114.872193 208.757647 
L 114.872193 207.326118 
L 115.314838 207.326118 
L 115.314838 204.463059 
L 115.747307 204.463059 
L 115.747307 198.736941 
L 116.170056 198.736941 
L 116.170056 197.305412 
L 116.583514 197.305412 
L 116.583514 191.579294 
L 116.988079 191.579294 
L 116.988079 187.284706 
L 117.772007 187.284706 
L 117.772007 185.853176 
L 118.152051 185.853176 
L 118.152051 182.990118 
L 118.889854 182.990118 
L 118.889854 181.558588 
L 119.599808 181.558588 
L 119.599808 180.127059 
L 121.265635 180.127059 
L 121.265635 178.695529 
L 121.581803 178.695529 
L 121.581803 177.264 
L 121.892744 177.264 
L 121.892744 175.832471 
L 122.499621 175.832471 
L 122.499621 174.400941 
L 123.08753 174.400941 
L 123.08753 172.969412 
L 123.374735 172.969412 
L 123.374735 171.537882 
L 123.657621 171.537882 
L 123.657621 170.106353 
L 123.936316 170.106353 
L 123.936316 168.674824 
L 124.210942 168.674824 
L 124.210942 167.243294 
L 125.011554 167.243294 
L 125.011554 164.380235 
L 125.271028 164.380235 
L 125.271028 161.517176 
L 126.028642 161.517176 
L 126.028642 160.085647 
L 126.274549 160.085647 
L 126.274549 157.222588 
L 126.517282 157.222588 
L 126.517282 154.359529 
L 126.993549 154.359529 
L 126.993549 147.201882 
L 127.227236 147.201882 
L 127.227236 141.475765 
L 127.458055 141.475765 
L 127.458055 138.612706 
L 127.911368 138.612706 
L 127.911368 137.181176 
L 128.133992 137.181176 
L 128.133992 135.749647 
L 128.354013 135.749647 
L 128.354013 131.455059 
L 128.786481 131.455059 
L 128.786481 130.023529 
L 128.999044 130.023529 
L 128.999044 122.865882 
L 129.209231 122.865882 
L 129.209231 118.571294 
L 129.417095 118.571294 
L 129.417095 115.708235 
L 129.622688 115.708235 
L 129.622688 108.550588 
L 129.826058 108.550588 
L 129.826058 104.256 
L 130.027253 104.256 
L 130.027253 97.098353 
L 130.226319 97.098353 
L 130.226319 94.235294 
L 130.4233 94.235294 
L 130.4233 91.372235 
L 130.811181 91.372235 
L 130.811181 89.940706 
L 131.191226 89.940706 
L 131.191226 87.077647 
L 131.747272 87.077647 
L 131.747272 84.214588 
L 132.287354 84.214588 
L 132.287354 81.351529 
L 132.46399 81.351529 
L 132.46399 78.488471 
L 132.984158 78.488471 
L 132.984158 75.625412 
L 133.323114 75.625412 
L 133.323114 69.899294 
L 133.656071 69.899294 
L 133.656071 65.604706 
L 133.983236 65.604706 
L 133.983236 64.173176 
L 134.304809 64.173176 
L 134.304809 62.741647 
L 134.77709 62.741647 
L 134.77709 61.310118 
L 135.237805 61.310118 
L 135.237805 59.878588 
L 135.388902 59.878588 
L 135.388902 58.447059 
L 135.538796 58.447059 
L 135.538796 57.015529 
L 136.126705 57.015529 
L 136.126705 55.584 
L 136.555884 55.584 
L 136.555884 54.152471 
L 136.97549 54.152471 
L 136.97549 52.720941 
L 143.066428 52.720941 
L 143.066428 51.289412 
L 143.560197 51.289412 
L 143.560197 49.857882 
L 144.786447 49.857882 
L 144.786447 48.426353 
L 145.590864 48.426353 
L 145.590864 46.994824 
L 145.765046 46.994824 
L 145.765046 19.795765 
L 146.27812 19.795765 
L 146.27812 18.364235 
L 146.777571 18.364235 
L 146.777571 16.932706 
L 147.264104 16.932706 
L 147.264104 15.501176 
L 147.73837 15.501176 
L 147.73837 14.069647 
L 147.893838 14.069647 
L 147.893838 12.638118 
L 148.428077 12.638118 
L 148.428077 11.206588 
L 148.652472 11.206588 
L 148.652472 9.775059 
L 148.874221 9.775059 
L 148.874221 8.343529 
L 149.020615 8.343529 
L 149.020615 6.912 
L 360.8064 6.912 
L 360.8064 6.912 
" style="fill: none; stroke: #f5deb3; stroke-width: 4; stroke-linecap: square"/>
   </g>
   <g id="line2d_2">
    <defs>
     <path id="m278d909a11" d="M -0 7.778175 
L 7.778175 0 
L 0 -7.778175 
L -7.778175 -0 
z
" style="stroke: #f5deb3; stroke-width: 1.5; stroke-linejoin: miter"/>
    </defs>
    <g>
     <use xlink:href="#m278d909a11" x="87.876026" y="261.724235" style="fill: #f5deb3; stroke: #f5deb3; stroke-width: 1.5; stroke-linejoin: miter"/>
     <use xlink:href="#m278d909a11" x="128.999044" y="122.865882" style="fill: #f5deb3; stroke: #f5deb3; stroke-width: 1.5; stroke-linejoin: miter"/>
     <use xlink:href="#m278d909a11" x="145.765046" y="46.994824" style="fill: #f5deb3; stroke: #f5deb3; stroke-width: 1.5; stroke-linejoin: miter"/>
     <use xlink:href="#m278d909a11" x="149.020615" y="6.912" style="fill: #f5deb3; stroke: #f5deb3; stroke-width: 1.5; stroke-linejoin: miter"/>
     <use xlink:href="#m278d909a11" x="149.020615" y="6.912" style="fill: #f5deb3; stroke: #f5deb3; stroke-width: 1.5; stroke-linejoin: miter"/>
     <use xlink:href="#m278d909a11" x="360.8064" y="6.912" style="fill: #f5deb3; stroke: #f5deb3; stroke-width: 1.5; stroke-linejoin: miter"/>
    </g>
   </g>
   <g id="line2d_3">
    <path style="fill: none; stroke: #f5deb3; stroke-width: 4; stroke-linecap: square"/>
    <g/>
   </g>
   <g id="line2d_4">
    <path d="M 360.8064 6.912 
L 380.514816 12.75264 
" style="fill: none; stroke: #f5deb3; stroke-width: 4; stroke-linecap: square"/>
    <g>
     <use xlink:href="#m278d909a11" x="360.8064" y="6.912" style="fill: #f5deb3; stroke: #f5deb3; stroke-width: 1.5; stroke-linejoin: miter"/>
     <use xlink:href="#m278d909a11" x="380.514816" y="12.75264" style="fill: #f5deb3; stroke: #f5deb3; stroke-width: 1.5; stroke-linejoin: miter"/>
    </g>
   </g>
   <g id="matplotlib.axis_1">
    <g id="xtick_1">
     <g id="line2d_5">
      <path d="M 57.6 298.944 
L 57.6 6.912 
" clip-path="url(#pd9f8d1f224)" style="fill: none; stroke: #b0b0b0; stroke-width: 0.8; stroke-linecap: square"/>
     </g>
     <g id="line2d_6">
      <defs>
       <path id="m992bf155ec" d="M 0 0 
L 0 3.5 
" style="stroke: #000000; stroke-width: 0.8"/>
      </defs>
      <g>
       <use xlink:href="#m992bf155ec" x="57.6" y="298.944" style="stroke: #000000; stroke-width: 0.8"/>
      </g>
     </g>
     <g id="text_1">
      <!-- 0 -->
      <g transform="translate(52.191875 318.861344)scale(0.17 -0.17)">
       <defs>
        <path id="DejaVuSans-30" d="M 2034 4250 
Q 1547 4250 1301 3770 
Q 1056 3291 1056 2328 
Q 1056 1369 1301 889 
Q 1547 409 2034 409 
Q 2525 409 2770 889 
Q 3016 1369 3016 2328 
Q 3016 3291 2770 3770 
Q 2525 4250 2034 4250 
z
M 2034 4750 
Q 2819 4750 3233 4129 
Q 3647 3509 3647 2328 
Q 3647 1150 3233 529 
Q 2819 -91 2034 -91 
Q 1250 -91 836 529 
Q 422 1150 422 2328 
Q 422 3509 836 4129 
Q 1250 4750 2034 4750 
z
" transform="scale(0.015625)"/>
       </defs>
       <use xlink:href="#DejaVuSans-30"/>
      </g>
     </g>
    </g>
    <g id="xtick_2">
     <g id="line2d_7">
      <path d="M 144.2304 298.944 
L 144.2304 6.912 
" clip-path="url(#pd9f8d1f224)" style="fill: none; stroke: #b0b0b0; stroke-width: 0.8; stroke-linecap: square"/>
     </g>
     <g id="line2d_8">
      <g>
       <use xlink:href="#m992bf155ec" x="144.2304" y="298.944" style="stroke: #000000; stroke-width: 0.8"/>
      </g>
     </g>
     <g id="text_2">
      <!-- 2 -->
      <g transform="translate(138.822275 318.861344)scale(0.17 -0.17)">
       <defs>
        <path id="DejaVuSans-32" d="M 1228 531 
L 3431 531 
L 3431 0 
L 469 0 
L 469 531 
Q 828 903 1448 1529 
Q 2069 2156 2228 2338 
Q 2531 2678 2651 2914 
Q 2772 3150 2772 3378 
Q 2772 3750 2511 3984 
Q 2250 4219 1831 4219 
Q 1534 4219 1204 4116 
Q 875 4013 500 3803 
L 500 4441 
Q 881 4594 1212 4672 
Q 1544 4750 1819 4750 
Q 2544 4750 2975 4387 
Q 3406 4025 3406 3419 
Q 3406 3131 3298 2873 
Q 3191 2616 2906 2266 
Q 2828 2175 2409 1742 
Q 1991 1309 1228 531 
z
" transform="scale(0.015625)"/>
       </defs>
       <use xlink:href="#DejaVuSans-32"/>
      </g>
     </g>
    </g>
    <g id="xtick_3">
     <g id="line2d_9">
      <path d="M 230.8608 298.944 
L 230.8608 6.912 
" clip-path="url(#pd9f8d1f224)" style="fill: none; stroke: #b0b0b0; stroke-width: 0.8; stroke-linecap: square"/>
     </g>
     <g id="line2d_10">
      <g>
       <use xlink:href="#m992bf155ec" x="230.8608" y="298.944" style="stroke: #000000; stroke-width: 0.8"/>
      </g>
     </g>
     <g id="text_3">
      <!-- 4 -->
      <g transform="translate(225.452675 318.861344)scale(0.17 -0.17)">
       <defs>
        <path id="DejaVuSans-34" d="M 2419 4116 
L 825 1625 
L 2419 1625 
L 2419 4116 
z
M 2253 4666 
L 3047 4666 
L 3047 1625 
L 3713 1625 
L 3713 1100 
L 3047 1100 
L 3047 0 
L 2419 0 
L 2419 1100 
L 313 1100 
L 313 1709 
L 2253 4666 
z
" transform="scale(0.015625)"/>
       </defs>
       <use xlink:href="#DejaVuSans-34"/>
      </g>
     </g>
    </g>
    <g id="xtick_4">
     <g id="line2d_11">
      <path d="M 317.4912 298.944 
L 317.4912 6.912 
" clip-path="url(#pd9f8d1f224)" style="fill: none; stroke: #b0b0b0; stroke-width: 0.8; stroke-linecap: square"/>
     </g>
     <g id="line2d_12">
      <g>
       <use xlink:href="#m992bf155ec" x="317.4912" y="298.944" style="stroke: #000000; stroke-width: 0.8"/>
      </g>
     </g>
     <g id="text_4">
      <!-- 6 -->
      <g transform="translate(312.083075 318.861344)scale(0.17 -0.17)">
       <defs>
        <path id="DejaVuSans-36" d="M 2113 2584 
Q 1688 2584 1439 2293 
Q 1191 2003 1191 1497 
Q 1191 994 1439 701 
Q 1688 409 2113 409 
Q 2538 409 2786 701 
Q 3034 994 3034 1497 
Q 3034 2003 2786 2293 
Q 2538 2584 2113 2584 
z
M 3366 4563 
L 3366 3988 
Q 3128 4100 2886 4159 
Q 2644 4219 2406 4219 
Q 1781 4219 1451 3797 
Q 1122 3375 1075 2522 
Q 1259 2794 1537 2939 
Q 1816 3084 2150 3084 
Q 2853 3084 3261 2657 
Q 3669 2231 3669 1497 
Q 3669 778 3244 343 
Q 2819 -91 2113 -91 
Q 1303 -91 875 529 
Q 447 1150 447 2328 
Q 447 3434 972 4092 
Q 1497 4750 2381 4750 
Q 2619 4750 2861 4703 
Q 3103 4656 3366 4563 
z
" transform="scale(0.015625)"/>
       </defs>
       <use xlink:href="#DejaVuSans-36"/>
      </g>
     </g>
    </g>
    <g id="xtick_5">
     <g id="line2d_13">
      <path d="M 100.9152 298.944 
L 100.9152 6.912 
" clip-path="url(#pd9f8d1f224)" style="fill: none; stroke: #b0b0b0; stroke-width: 0.8; stroke-linecap: square"/>
     </g>
     <g id="line2d_14">
      <defs>
       <path id="m33218ae9a3" d="M 0 0 
L 0 2 
" style="stroke: #000000; stroke-width: 0.6"/>
      </defs>
      <g>
       <use xlink:href="#m33218ae9a3" x="100.9152" y="298.944" style="stroke: #000000; stroke-width: 0.6"/>
      </g>
     </g>
    </g>
    <g id="xtick_6">
     <g id="line2d_15">
      <path d="M 187.5456 298.944 
L 187.5456 6.912 
" clip-path="url(#pd9f8d1f224)" style="fill: none; stroke: #b0b0b0; stroke-width: 0.8; stroke-linecap: square"/>
     </g>
     <g id="line2d_16">
      <g>
       <use xlink:href="#m33218ae9a3" x="187.5456" y="298.944" style="stroke: #000000; stroke-width: 0.6"/>
      </g>
     </g>
    </g>
    <g id="xtick_7">
     <g id="line2d_17">
      <path d="M 274.176 298.944 
L 274.176 6.912 
" clip-path="url(#pd9f8d1f224)" style="fill: none; stroke: #b0b0b0; stroke-width: 0.8; stroke-linecap: square"/>
     </g>
     <g id="line2d_18">
      <g>
       <use xlink:href="#m33218ae9a3" x="274.176" y="298.944" style="stroke: #000000; stroke-width: 0.6"/>
      </g>
     </g>
    </g>
    <g id="xtick_8">
     <g id="line2d_19">
      <path d="M 360.8064 298.944 
L 360.8064 6.912 
" clip-path="url(#pd9f8d1f224)" style="fill: none; stroke: #b0b0b0; stroke-width: 0.8; stroke-linecap: square"/>
     </g>
     <g id="line2d_20">
      <g>
       <use xlink:href="#m33218ae9a3" x="360.8064" y="298.944" style="stroke: #000000; stroke-width: 0.6"/>
      </g>
     </g>
    </g>
    <g id="text_5">
     <!-- log10(# f-evals / dimension) -->
     <g transform="translate(88.823278 339.314156)scale(0.17 -0.17)">
      <defs>
       <path id="DejaVuSans-6c" d="M 603 4863 
L 1178 4863 
L 1178 0 
L 603 0 
L 603 4863 
z
" transform="scale(0.015625)"/>
       <path id="DejaVuSans-6f" d="M 1959 3097 
Q 1497 3097 1228 2736 
Q 959 2375 959 1747 
Q 959 1119 1226 758 
Q 1494 397 1959 397 
Q 2419 397 2687 759 
Q 2956 1122 2956 1747 
Q 2956 2369 2687 2733 
Q 2419 3097 1959 3097 
z
M 1959 3584 
Q 2709 3584 3137 3096 
Q 3566 2609 3566 1747 
Q 3566 888 3137 398 
Q 2709 -91 1959 -91 
Q 1206 -91 779 398 
Q 353 888 353 1747 
Q 353 2609 779 3096 
Q 1206 3584 1959 3584 
z
" transform="scale(0.015625)"/>
       <path id="DejaVuSans-67" d="M 2906 1791 
Q 2906 2416 2648 2759 
Q 2391 3103 1925 3103 
Q 1463 3103 1205 2759 
Q 947 2416 947 1791 
Q 947 1169 1205 825 
Q 1463 481 1925 481 
Q 2391 481 2648 825 
Q 2906 1169 2906 1791 
z
M 3481 434 
Q 3481 -459 3084 -895 
Q 2688 -1331 1869 -1331 
Q 1566 -1331 1297 -1286 
Q 1028 -1241 775 -1147 
L 775 -588 
Q 1028 -725 1275 -790 
Q 1522 -856 1778 -856 
Q 2344 -856 2625 -561 
Q 2906 -266 2906 331 
L 2906 616 
Q 2728 306 2450 153 
Q 2172 0 1784 0 
Q 1141 0 747 490 
Q 353 981 353 1791 
Q 353 2603 747 3093 
Q 1141 3584 1784 3584 
Q 2172 3584 2450 3431 
Q 2728 3278 2906 2969 
L 2906 3500 
L 3481 3500 
L 3481 434 
z
" transform="scale(0.015625)"/>
       <path id="DejaVuSans-31" d="M 794 531 
L 1825 531 
L 1825 4091 
L 703 3866 
L 703 4441 
L 1819 4666 
L 2450 4666 
L 2450 531 
L 3481 531 
L 3481 0 
L 794 0 
L 794 531 
z
" transform="scale(0.015625)"/>
       <path id="DejaVuSans-28" d="M 1984 4856 
Q 1566 4138 1362 3434 
Q 1159 2731 1159 2009 
Q 1159 1288 1364 580 
Q 1569 -128 1984 -844 
L 1484 -844 
Q 1016 -109 783 600 
Q 550 1309 550 2009 
Q 550 2706 781 3412 
Q 1013 4119 1484 4856 
L 1984 4856 
z
" transform="scale(0.015625)"/>
       <path id="DejaVuSans-23" d="M 3272 2816 
L 2363 2816 
L 2100 1772 
L 3016 1772 
L 3272 2816 
z
M 2803 4594 
L 2478 3297 
L 3391 3297 
L 3719 4594 
L 4219 4594 
L 3897 3297 
L 4872 3297 
L 4872 2816 
L 3775 2816 
L 3519 1772 
L 4513 1772 
L 4513 1294 
L 3397 1294 
L 3072 0 
L 2572 0 
L 2894 1294 
L 1978 1294 
L 1656 0 
L 1153 0 
L 1478 1294 
L 494 1294 
L 494 1772 
L 1594 1772 
L 1856 2816 
L 850 2816 
L 850 3297 
L 1978 3297 
L 2297 4594 
L 2803 4594 
z
" transform="scale(0.015625)"/>
       <path id="DejaVuSans-20" transform="scale(0.015625)"/>
       <path id="DejaVuSans-66" d="M 2375 4863 
L 2375 4384 
L 1825 4384 
Q 1516 4384 1395 4259 
Q 1275 4134 1275 3809 
L 1275 3500 
L 2222 3500 
L 2222 3053 
L 1275 3053 
L 1275 0 
L 697 0 
L 697 3053 
L 147 3053 
L 147 3500 
L 697 3500 
L 697 3744 
Q 697 4328 969 4595 
Q 1241 4863 1831 4863 
L 2375 4863 
z
" transform="scale(0.015625)"/>
       <path id="DejaVuSans-2d" d="M 313 2009 
L 1997 2009 
L 1997 1497 
L 313 1497 
L 313 2009 
z
" transform="scale(0.015625)"/>
       <path id="DejaVuSans-65" d="M 3597 1894 
L 3597 1613 
L 953 1613 
Q 991 1019 1311 708 
Q 1631 397 2203 397 
Q 2534 397 2845 478 
Q 3156 559 3463 722 
L 3463 178 
Q 3153 47 2828 -22 
Q 2503 -91 2169 -91 
Q 1331 -91 842 396 
Q 353 884 353 1716 
Q 353 2575 817 3079 
Q 1281 3584 2069 3584 
Q 2775 3584 3186 3129 
Q 3597 2675 3597 1894 
z
M 3022 2063 
Q 3016 2534 2758 2815 
Q 2500 3097 2075 3097 
Q 1594 3097 1305 2825 
Q 1016 2553 972 2059 
L 3022 2063 
z
" transform="scale(0.015625)"/>
       <path id="DejaVuSans-76" d="M 191 3500 
L 800 3500 
L 1894 563 
L 2988 3500 
L 3597 3500 
L 2284 0 
L 1503 0 
L 191 3500 
z
" transform="scale(0.015625)"/>
       <path id="DejaVuSans-61" d="M 2194 1759 
Q 1497 1759 1228 1600 
Q 959 1441 959 1056 
Q 959 750 1161 570 
Q 1363 391 1709 391 
Q 2188 391 2477 730 
Q 2766 1069 2766 1631 
L 2766 1759 
L 2194 1759 
z
M 3341 1997 
L 3341 0 
L 2766 0 
L 2766 531 
Q 2569 213 2275 61 
Q 1981 -91 1556 -91 
Q 1019 -91 701 211 
Q 384 513 384 1019 
Q 384 1609 779 1909 
Q 1175 2209 1959 2209 
L 2766 2209 
L 2766 2266 
Q 2766 2663 2505 2880 
Q 2244 3097 1772 3097 
Q 1472 3097 1187 3025 
Q 903 2953 641 2809 
L 641 3341 
Q 956 3463 1253 3523 
Q 1550 3584 1831 3584 
Q 2591 3584 2966 3190 
Q 3341 2797 3341 1997 
z
" transform="scale(0.015625)"/>
       <path id="DejaVuSans-73" d="M 2834 3397 
L 2834 2853 
Q 2591 2978 2328 3040 
Q 2066 3103 1784 3103 
Q 1356 3103 1142 2972 
Q 928 2841 928 2578 
Q 928 2378 1081 2264 
Q 1234 2150 1697 2047 
L 1894 2003 
Q 2506 1872 2764 1633 
Q 3022 1394 3022 966 
Q 3022 478 2636 193 
Q 2250 -91 1575 -91 
Q 1294 -91 989 -36 
Q 684 19 347 128 
L 347 722 
Q 666 556 975 473 
Q 1284 391 1588 391 
Q 1994 391 2212 530 
Q 2431 669 2431 922 
Q 2431 1156 2273 1281 
Q 2116 1406 1581 1522 
L 1381 1569 
Q 847 1681 609 1914 
Q 372 2147 372 2553 
Q 372 3047 722 3315 
Q 1072 3584 1716 3584 
Q 2034 3584 2315 3537 
Q 2597 3491 2834 3397 
z
" transform="scale(0.015625)"/>
       <path id="DejaVuSans-2f" d="M 1625 4666 
L 2156 4666 
L 531 -594 
L 0 -594 
L 1625 4666 
z
" transform="scale(0.015625)"/>
       <path id="DejaVuSans-64" d="M 2906 2969 
L 2906 4863 
L 3481 4863 
L 3481 0 
L 2906 0 
L 2906 525 
Q 2725 213 2448 61 
Q 2172 -91 1784 -91 
Q 1150 -91 751 415 
Q 353 922 353 1747 
Q 353 2572 751 3078 
Q 1150 3584 1784 3584 
Q 2172 3584 2448 3432 
Q 2725 3281 2906 2969 
z
M 947 1747 
Q 947 1113 1208 752 
Q 1469 391 1925 391 
Q 2381 391 2643 752 
Q 2906 1113 2906 1747 
Q 2906 2381 2643 2742 
Q 2381 3103 1925 3103 
Q 1469 3103 1208 2742 
Q 947 2381 947 1747 
z
" transform="scale(0.015625)"/>
       <path id="DejaVuSans-69" d="M 603 3500 
L 1178 3500 
L 1178 0 
L 603 0 
L 603 3500 
z
M 603 4863 
L 1178 4863 
L 1178 4134 
L 603 4134 
L 603 4863 
z
" transform="scale(0.015625)"/>
       <path id="DejaVuSans-6d" d="M 3328 2828 
Q 3544 3216 3844 3400 
Q 4144 3584 4550 3584 
Q 5097 3584 5394 3201 
Q 5691 2819 5691 2113 
L 5691 0 
L 5113 0 
L 5113 2094 
Q 5113 2597 4934 2840 
Q 4756 3084 4391 3084 
Q 3944 3084 3684 2787 
Q 3425 2491 3425 1978 
L 3425 0 
L 2847 0 
L 2847 2094 
Q 2847 2600 2669 2842 
Q 2491 3084 2119 3084 
Q 1678 3084 1418 2786 
Q 1159 2488 1159 1978 
L 1159 0 
L 581 0 
L 581 3500 
L 1159 3500 
L 1159 2956 
Q 1356 3278 1631 3431 
Q 1906 3584 2284 3584 
Q 2666 3584 2933 3390 
Q 3200 3197 3328 2828 
z
" transform="scale(0.015625)"/>
       <path id="DejaVuSans-6e" d="M 3513 2113 
L 3513 0 
L 2938 0 
L 2938 2094 
Q 2938 2591 2744 2837 
Q 2550 3084 2163 3084 
Q 1697 3084 1428 2787 
Q 1159 2491 1159 1978 
L 1159 0 
L 581 0 
L 581 3500 
L 1159 3500 
L 1159 2956 
Q 1366 3272 1645 3428 
Q 1925 3584 2291 3584 
Q 2894 3584 3203 3211 
Q 3513 2838 3513 2113 
z
" transform="scale(0.015625)"/>
       <path id="DejaVuSans-29" d="M 513 4856 
L 1013 4856 
Q 1481 4119 1714 3412 
Q 1947 2706 1947 2009 
Q 1947 1309 1714 600 
Q 1481 -109 1013 -844 
L 513 -844 
Q 928 -128 1133 580 
Q 1338 1288 1338 2009 
Q 1338 2731 1133 3434 
Q 928 4138 513 4856 
z
" transform="scale(0.015625)"/>
      </defs>
      <use xlink:href="#DejaVuSans-6c"/>
      <use xlink:href="#DejaVuSans-6f" x="27.783203"/>
      <use xlink:href="#DejaVuSans-67" x="88.964844"/>
      <use xlink:href="#DejaVuSans-31" x="152.441406"/>
      <use xlink:href="#DejaVuSans-30" x="216.064453"/>
      <use xlink:href="#DejaVuSans-28" x="279.6875"/>
      <use xlink:href="#DejaVuSans-23" x="318.701172"/>
      <use xlink:href="#DejaVuSans-20" x="402.490234"/>
      <use xlink:href="#DejaVuSans-66" x="434.277344"/>
      <use xlink:href="#DejaVuSans-2d" x="463.982422"/>
      <use xlink:href="#DejaVuSans-65" x="500.066406"/>
      <use xlink:href="#DejaVuSans-76" x="561.589844"/>
      <use xlink:href="#DejaVuSans-61" x="620.769531"/>
      <use xlink:href="#DejaVuSans-6c" x="682.048828"/>
      <use xlink:href="#DejaVuSans-73" x="709.832031"/>
      <use xlink:href="#DejaVuSans-20" x="761.931641"/>
      <use xlink:href="#DejaVuSans-2f" x="793.71875"/>
      <use xlink:href="#DejaVuSans-20" x="827.410156"/>
      <use xlink:href="#DejaVuSans-64" x="859.197266"/>
      <use xlink:href="#DejaVuSans-69" x="922.673828"/>
      <use xlink:href="#DejaVuSans-6d" x="950.457031"/>
      <use xlink:href="#DejaVuSans-65" x="1047.869141"/>
      <use xlink:href="#DejaVuSans-6e" x="1109.392578"/>
      <use xlink:href="#DejaVuSans-73" x="1172.771484"/>
      <use xlink:href="#DejaVuSans-69" x="1224.871094"/>
      <use xlink:href="#DejaVuSans-6f" x="1252.654297"/>
      <use xlink:href="#DejaVuSans-6e" x="1313.835938"/>
      <use xlink:href="#DejaVuSans-29" x="1377.214844"/>
     </g>
    </g>
   </g>
   <g id="matplotlib.axis_2">
    <g id="ytick_1">
     <g id="line2d_21">
      <path d="M 57.6 298.944 
L 360.8064 298.944 
" clip-path="url(#pd9f8d1f224)" style="fill: none; stroke: #b0b0b0; stroke-width: 0.8; stroke-linecap: square"/>
     </g>
     <g id="line2d_22">
      <defs>
       <path id="m0ee97f2a6e" d="M 0 0 
L -3.5 0 
" style="stroke: #000000; stroke-width: 0.8"/>
      </defs>
      <g>
       <use xlink:href="#m0ee97f2a6e" x="57.6" y="298.944" style="stroke: #000000; stroke-width: 0.8"/>
      </g>
     </g>
     <g id="text_6">
      <!-- 0.0 -->
      <g transform="translate(25.155 305.02275)scale(0.16 -0.16)">
       <defs>
        <path id="DejaVuSans-2e" d="M 684 794 
L 1344 794 
L 1344 0 
L 684 0 
L 684 794 
z
" transform="scale(0.015625)"/>
       </defs>
       <use xlink:href="#DejaVuSans-30"/>
       <use xlink:href="#DejaVuSans-2e" x="63.623047"/>
       <use xlink:href="#DejaVuSans-30" x="95.410156"/>
      </g>
     </g>
    </g>
    <g id="ytick_2">
     <g id="line2d_23">
      <path d="M 57.6 240.5376 
L 360.8064 240.5376 
" clip-path="url(#pd9f8d1f224)" style="fill: none; stroke: #b0b0b0; stroke-width: 0.8; stroke-linecap: square"/>
     </g>
     <g id="line2d_24">
      <g>
       <use xlink:href="#m0ee97f2a6e" x="57.6" y="240.5376" style="stroke: #000000; stroke-width: 0.8"/>
      </g>
     </g>
     <g id="text_7">
      <!-- 0.2 -->
      <g transform="translate(25.155 246.61635)scale(0.16 -0.16)">
       <use xlink:href="#DejaVuSans-30"/>
       <use xlink:href="#DejaVuSans-2e" x="63.623047"/>
       <use xlink:href="#DejaVuSans-32" x="95.410156"/>
      </g>
     </g>
    </g>
    <g id="ytick_3">
     <g id="line2d_25">
      <path d="M 57.6 182.1312 
L 360.8064 182.1312 
" clip-path="url(#pd9f8d1f224)" style="fill: none; stroke: #b0b0b0; stroke-width: 0.8; stroke-linecap: square"/>
     </g>
     <g id="line2d_26">
      <g>
       <use xlink:href="#m0ee97f2a6e" x="57.6" y="182.1312" style="stroke: #000000; stroke-width: 0.8"/>
      </g>
     </g>
     <g id="text_8">
      <!-- 0.4 -->
      <g transform="translate(25.155 188.20995)scale(0.16 -0.16)">
       <use xlink:href="#DejaVuSans-30"/>
       <use xlink:href="#DejaVuSans-2e" x="63.623047"/>
       <use xlink:href="#DejaVuSans-34" x="95.410156"/>
      </g>
     </g>
    </g>
    <g id="ytick_4">
     <g id="line2d_27">
      <path d="M 57.6 123.7248 
L 360.8064 123.7248 
" clip-path="url(#pd9f8d1f224)" style="fill: none; stroke: #b0b0b0; stroke-width: 0.8; stroke-linecap: square"/>
     </g>
     <g id="line2d_28">
      <g>
       <use xlink:href="#m0ee97f2a6e" x="57.6" y="123.7248" style="stroke: #000000; stroke-width: 0.8"/>
      </g>
     </g>
     <g id="text_9">
      <!-- 0.6 -->
      <g transform="translate(25.155 129.80355)scale(0.16 -0.16)">
       <use xlink:href="#DejaVuSans-30"/>
       <use xlink:href="#DejaVuSans-2e" x="63.623047"/>
       <use xlink:href="#DejaVuSans-36" x="95.410156"/>
      </g>
     </g>
    </g>
    <g id="ytick_5">
     <g id="line2d_29">
      <path d="M 57.6 65.3184 
L 360.8064 65.3184 
" clip-path="url(#pd9f8d1f224)" style="fill: none; stroke: #b0b0b0; stroke-width: 0.8; stroke-linecap: square"/>
     </g>
     <g id="line2d_30">
      <g>
       <use xlink:href="#m0ee97f2a6e" x="57.6" y="65.3184" style="stroke: #000000; stroke-width: 0.8"/>
      </g>
     </g>
     <g id="text_10">
      <!-- 0.8 -->
      <g transform="translate(25.155 71.39715)scale(0.16 -0.16)">
       <defs>
        <path id="DejaVuSans-38" d="M 2034 2216 
Q 1584 2216 1326 1975 
Q 1069 1734 1069 1313 
Q 1069 891 1326 650 
Q 1584 409 2034 409 
Q 2484 409 2743 651 
Q 3003 894 3003 1313 
Q 3003 1734 2745 1975 
Q 2488 2216 2034 2216 
z
M 1403 2484 
Q 997 2584 770 2862 
Q 544 3141 544 3541 
Q 544 4100 942 4425 
Q 1341 4750 2034 4750 
Q 2731 4750 3128 4425 
Q 3525 4100 3525 3541 
Q 3525 3141 3298 2862 
Q 3072 2584 2669 2484 
Q 3125 2378 3379 2068 
Q 3634 1759 3634 1313 
Q 3634 634 3220 271 
Q 2806 -91 2034 -91 
Q 1263 -91 848 271 
Q 434 634 434 1313 
Q 434 1759 690 2068 
Q 947 2378 1403 2484 
z
M 1172 3481 
Q 1172 3119 1398 2916 
Q 1625 2713 2034 2713 
Q 2441 2713 2670 2916 
Q 2900 3119 2900 3481 
Q 2900 3844 2670 4047 
Q 2441 4250 2034 4250 
Q 1625 4250 1398 4047 
Q 1172 3844 1172 3481 
z
" transform="scale(0.015625)"/>
       </defs>
       <use xlink:href="#DejaVuSans-30"/>
       <use xlink:href="#DejaVuSans-2e" x="63.623047"/>
       <use xlink:href="#DejaVuSans-38" x="95.410156"/>
      </g>
     </g>
    </g>
    <g id="ytick_6">
     <g id="line2d_31">
      <path d="M 57.6 6.912 
L 360.8064 6.912 
" clip-path="url(#pd9f8d1f224)" style="fill: none; stroke: #b0b0b0; stroke-width: 0.8; stroke-linecap: square"/>
     </g>
     <g id="line2d_32">
      <g>
       <use xlink:href="#m0ee97f2a6e" x="57.6" y="6.912" style="stroke: #000000; stroke-width: 0.8"/>
      </g>
     </g>
     <g id="text_11">
      <!-- 1.0 -->
      <g transform="translate(25.155 12.99075)scale(0.16 -0.16)">
       <use xlink:href="#DejaVuSans-31"/>
       <use xlink:href="#DejaVuSans-2e" x="63.623047"/>
       <use xlink:href="#DejaVuSans-30" x="95.410156"/>
      </g>
     </g>
    </g>
    <g id="text_12">
     <!-- Fraction of function,target pairs -->
     <g transform="translate(17.619531 287.313)rotate(-90)scale(0.17 -0.17)">
      <defs>
       <path id="DejaVuSans-46" d="M 628 4666 
L 3309 4666 
L 3309 4134 
L 1259 4134 
L 1259 2759 
L 3109 2759 
L 3109 2228 
L 1259 2228 
L 1259 0 
L 628 0 
L 628 4666 
z
" transform="scale(0.015625)"/>
       <path id="DejaVuSans-72" d="M 2631 2963 
Q 2534 3019 2420 3045 
Q 2306 3072 2169 3072 
Q 1681 3072 1420 2755 
Q 1159 2438 1159 1844 
L 1159 0 
L 581 0 
L 581 3500 
L 1159 3500 
L 1159 2956 
Q 1341 3275 1631 3429 
Q 1922 3584 2338 3584 
Q 2397 3584 2469 3576 
Q 2541 3569 2628 3553 
L 2631 2963 
z
" transform="scale(0.015625)"/>
       <path id="DejaVuSans-63" d="M 3122 3366 
L 3122 2828 
Q 2878 2963 2633 3030 
Q 2388 3097 2138 3097 
Q 1578 3097 1268 2742 
Q 959 2388 959 1747 
Q 959 1106 1268 751 
Q 1578 397 2138 397 
Q 2388 397 2633 464 
Q 2878 531 3122 666 
L 3122 134 
Q 2881 22 2623 -34 
Q 2366 -91 2075 -91 
Q 1284 -91 818 406 
Q 353 903 353 1747 
Q 353 2603 823 3093 
Q 1294 3584 2113 3584 
Q 2378 3584 2631 3529 
Q 2884 3475 3122 3366 
z
" transform="scale(0.015625)"/>
       <path id="DejaVuSans-74" d="M 1172 4494 
L 1172 3500 
L 2356 3500 
L 2356 3053 
L 1172 3053 
L 1172 1153 
Q 1172 725 1289 603 
Q 1406 481 1766 481 
L 2356 481 
L 2356 0 
L 1766 0 
Q 1100 0 847 248 
Q 594 497 594 1153 
L 594 3053 
L 172 3053 
L 172 3500 
L 594 3500 
L 594 4494 
L 1172 4494 
z
" transform="scale(0.015625)"/>
       <path id="DejaVuSans-75" d="M 544 1381 
L 544 3500 
L 1119 3500 
L 1119 1403 
Q 1119 906 1312 657 
Q 1506 409 1894 409 
Q 2359 409 2629 706 
Q 2900 1003 2900 1516 
L 2900 3500 
L 3475 3500 
L 3475 0 
L 2900 0 
L 2900 538 
Q 2691 219 2414 64 
Q 2138 -91 1772 -91 
Q 1169 -91 856 284 
Q 544 659 544 1381 
z
M 1991 3584 
L 1991 3584 
z
" transform="scale(0.015625)"/>
       <path id="DejaVuSans-2c" d="M 750 794 
L 1409 794 
L 1409 256 
L 897 -744 
L 494 -744 
L 750 256 
L 750 794 
z
" transform="scale(0.015625)"/>
       <path id="DejaVuSans-70" d="M 1159 525 
L 1159 -1331 
L 581 -1331 
L 581 3500 
L 1159 3500 
L 1159 2969 
Q 1341 3281 1617 3432 
Q 1894 3584 2278 3584 
Q 2916 3584 3314 3078 
Q 3713 2572 3713 1747 
Q 3713 922 3314 415 
Q 2916 -91 2278 -91 
Q 1894 -91 1617 61 
Q 1341 213 1159 525 
z
M 3116 1747 
Q 3116 2381 2855 2742 
Q 2594 3103 2138 3103 
Q 1681 3103 1420 2742 
Q 1159 2381 1159 1747 
Q 1159 1113 1420 752 
Q 1681 391 2138 391 
Q 2594 391 2855 752 
Q 3116 1113 3116 1747 
z
" transform="scale(0.015625)"/>
      </defs>
      <use xlink:href="#DejaVuSans-46"/>
      <use xlink:href="#DejaVuSans-72" x="50.269531"/>
      <use xlink:href="#DejaVuSans-61" x="91.382812"/>
      <use xlink:href="#DejaVuSans-63" x="152.662109"/>
      <use xlink:href="#DejaVuSans-74" x="207.642578"/>
      <use xlink:href="#DejaVuSans-69" x="246.851562"/>
      <use xlink:href="#DejaVuSans-6f" x="274.634766"/>
      <use xlink:href="#DejaVuSans-6e" x="335.816406"/>
      <use xlink:href="#DejaVuSans-20" x="399.195312"/>
      <use xlink:href="#DejaVuSans-6f" x="430.982422"/>
      <use xlink:href="#DejaVuSans-66" x="492.164062"/>
      <use xlink:href="#DejaVuSans-20" x="527.369141"/>
      <use xlink:href="#DejaVuSans-66" x="559.15625"/>
      <use xlink:href="#DejaVuSans-75" x="594.361328"/>
      <use xlink:href="#DejaVuSans-6e" x="657.740234"/>
      <use xlink:href="#DejaVuSans-63" x="721.119141"/>
      <use xlink:href="#DejaVuSans-74" x="776.099609"/>
      <use xlink:href="#DejaVuSans-69" x="815.308594"/>
      <use xlink:href="#DejaVuSans-6f" x="843.091797"/>
      <use xlink:href="#DejaVuSans-6e" x="904.273438"/>
      <use xlink:href="#DejaVuSans-2c" x="967.652344"/>
      <use xlink:href="#DejaVuSans-74" x="999.439453"/>
      <use xlink:href="#DejaVuSans-61" x="1038.648438"/>
      <use xlink:href="#DejaVuSans-72" x="1099.927734"/>
      <use xlink:href="#DejaVuSans-67" x="1139.291016"/>
      <use xlink:href="#DejaVuSans-65" x="1202.767578"/>
      <use xlink:href="#DejaVuSans-74" x="1264.291016"/>
      <use xlink:href="#DejaVuSans-20" x="1303.5"/>
      <use xlink:href="#DejaVuSans-70" x="1335.287109"/>
      <use xlink:href="#DejaVuSans-61" x="1398.763672"/>
      <use xlink:href="#DejaVuSans-69" x="1460.042969"/>
      <use xlink:href="#DejaVuSans-72" x="1487.826172"/>
      <use xlink:href="#DejaVuSans-73" x="1528.939453"/>
     </g>
    </g>
   </g>
   <g id="line2d_33">
    <defs>
     <path id="m2a9688ea54" d="M 0 1.5 
C 0.397805 1.5 0.77937 1.341951 1.06066 1.06066 
C 1.341951 0.77937 1.5 0.397805 1.5 0 
C 1.5 -0.397805 1.341951 -0.77937 1.06066 -1.06066 
C 0.77937 -1.341951 0.397805 -1.5 0 -1.5 
C -0.397805 -1.5 -0.77937 -1.341951 -1.06066 -1.06066 
C -1.341951 -0.77937 -1.5 -0.397805 -1.5 0 
C -1.5 0.397805 -1.341951 0.77937 -1.06066 1.06066 
C -0.77937 1.341951 -0.397805 1.5 0 1.5 
z
" style="stroke: #f5deb3"/>
    </defs>
    <g>
     <use xlink:href="#m2a9688ea54" x="149.020615" y="6.912" style="fill: #f5deb3; stroke: #f5deb3"/>
     <use xlink:href="#m2a9688ea54" x="149.020615" y="6.912" style="fill: #f5deb3; stroke: #f5deb3"/>
    </g>
   </g>
   <g id="line2d_34">
    <defs>
     <path id="mbcb5ed96ba" d="M 0 1.5 
C 0.397805 1.5 0.77937 1.341951 1.06066 1.06066 
C 1.341951 0.77937 1.5 0.397805 1.5 0 
C 1.5 -0.397805 1.341951 -0.77937 1.06066 -1.06066 
C 0.77937 -1.341951 0.397805 -1.5 0 -1.5 
C -0.397805 -1.5 -0.77937 -1.341951 -1.06066 -1.06066 
C -1.341951 -0.77937 -1.5 -0.397805 -1.5 0 
C -1.5 0.397805 -1.341951 0.77937 -1.06066 1.06066 
C -0.77937 1.341951 -0.397805 1.5 0 1.5 
z
" style="stroke: #000080"/>
    </defs>
    <g>
     <use xlink:href="#mbcb5ed96ba" x="168.248209" y="6.912" style="fill: #000080; stroke: #000080"/>
     <use xlink:href="#mbcb5ed96ba" x="168.248209" y="6.912" style="fill: #000080; stroke: #000080"/>
    </g>
   </g>
   <g id="line2d_35">
    <path d="M 44.560826 298.944 
L 44.560826 279.188894 
L 57.6 279.188894 
L 57.6 273.749082 
L 65.227428 273.749082 
L 65.227428 271.458635 
L 70.639174 271.458635 
L 70.639174 270.886024 
L 74.836851 270.886024 
L 74.836851 266.305129 
L 78.266603 266.305129 
L 78.266603 264.8736 
L 83.678349 264.8736 
L 83.678349 261.724235 
L 85.894031 261.724235 
L 85.894031 260.579012 
L 87.876026 260.579012 
L 87.876026 259.720094 
L 91.305777 259.720094 
L 91.305777 258.574871 
L 92.811505 258.574871 
L 92.811505 254.566588 
L 94.205591 254.566588 
L 94.205591 252.848753 
L 96.717523 252.848753 
L 96.717523 251.130918 
L 97.857967 251.130918 
L 97.857967 250.558306 
L 102.708132 250.558306 
L 102.708132 249.699388 
L 103.544339 249.699388 
L 103.544339 247.695247 
L 105.112877 247.695247 
L 105.112877 246.263718 
L 106.560633 246.263718 
L 106.560633 245.691106 
L 107.904887 245.691106 
L 107.904887 241.396518 
L 108.542628 241.396518 
L 108.542628 241.110212 
L 109.159456 241.110212 
L 109.159456 239.392376 
L 111.97238 239.392376 
L 111.97238 236.529318 
L 112.487797 236.529318 
L 112.487797 234.811482 
L 114.872193 234.811482 
L 114.872193 233.952565 
L 115.747307 233.952565 
L 115.747307 231.948424 
L 116.170056 231.948424 
L 116.170056 231.662118 
L 117.384126 231.662118 
L 117.384126 231.375812 
L 118.889854 231.375812 
L 118.889854 230.8032 
L 119.599808 230.8032 
L 119.599808 227.081224 
L 119.944983 227.081224 
L 119.944983 226.794918 
L 120.28394 226.794918 
L 120.28394 223.645553 
L 120.944062 223.645553 
L 120.944062 223.359247 
L 121.581803 223.359247 
L 121.581803 223.072941 
L 122.795872 223.072941 
L 122.795872 222.786635 
L 123.657621 222.786635 
L 123.657621 222.214024 
L 124.210942 222.214024 
L 124.210942 221.927718 
L 124.481616 221.927718 
L 124.481616 221.641412 
L 125.011554 221.641412 
L 125.011554 221.0688 
L 125.271028 221.0688 
L 125.271028 220.496188 
L 125.779479 220.496188 
L 125.779479 219.923576 
L 126.517282 219.923576 
L 126.517282 212.765929 
L 126.756923 212.765929 
L 126.756923 212.479624 
L 126.993549 212.479624 
L 126.993549 212.193318 
L 127.686077 212.193318 
L 127.686077 211.3344 
L 127.911368 211.3344 
L 127.911368 210.761788 
L 128.133992 210.761788 
L 128.133992 210.189176 
L 128.354013 210.189176 
L 128.354013 209.902871 
L 129.209231 209.902871 
L 129.209231 208.471341 
L 130.027253 208.471341 
L 130.027253 207.612424 
L 130.226319 207.612424 
L 130.226319 206.753506 
L 130.618241 206.753506 
L 130.618241 205.894588 
L 131.002163 205.894588 
L 131.002163 205.608282 
L 131.191226 205.608282 
L 131.191226 205.321976 
L 132.109044 205.321976 
L 132.109044 205.035671 
L 132.46399 205.035671 
L 132.46399 203.890447 
L 132.638982 203.890447 
L 132.638982 203.031529 
L 132.984158 203.031529 
L 132.984158 201.027388 
L 133.820365 201.027388 
L 133.820365 199.882165 
L 134.931919 199.882165 
L 134.931919 199.309553 
L 135.687504 199.309553 
L 135.687504 198.164329 
L 135.835047 198.164329 
L 135.835047 197.591718 
L 136.555884 197.591718 
L 136.555884 197.019106 
L 136.696795 197.019106 
L 136.696795 196.7328 
L 136.836659 196.7328 
L 136.836659 195.014965 
L 137.520791 195.014965 
L 137.520791 194.156047 
L 137.919637 194.156047 
L 137.919637 193.869741 
L 138.180913 193.869741 
L 138.180913 193.583435 
L 138.438609 193.583435 
L 138.438609 192.438212 
L 138.566146 192.438212 
L 138.566146 192.151906 
L 138.818654 192.151906 
L 138.818654 190.720376 
L 138.943648 190.720376 
L 138.943648 190.434071 
L 139.067817 190.434071 
L 139.067817 190.147765 
L 139.435481 190.147765 
L 139.435481 183.562729 
L 139.796097 183.562729 
L 139.796097 180.127059 
L 140.032723 180.127059 
L 140.032723 173.542024 
L 140.14993 173.542024 
L 140.14993 172.3968 
L 140.26641 172.3968 
L 140.26641 171.824188 
L 140.49723 171.824188 
L 140.49723 170.965271 
L 140.950542 170.965271 
L 140.950542 168.674824 
L 141.50224 168.674824 
L 141.50224 168.388518 
L 142.248405 168.388518 
L 142.352625 167.815906 
L 142.45627 167.815906 
L 142.559347 165.811765 
L 142.865233 165.811765 
L 142.865233 165.525459 
L 143.364242 165.525459 
L 143.462475 164.666541 
L 143.560197 164.666541 
L 143.560197 158.081506 
L 143.754133 158.081506 
L 143.850356 156.936282 
L 143.946089 156.936282 
L 143.946089 156.649976 
L 144.2304 156.649976 
L 144.2304 156.077365 
L 144.417581 156.077365 
L 144.510478 154.932141 
L 144.786447 154.932141 
L 144.877544 152.355388 
L 144.968202 152.355388 
L 144.968202 150.637553 
L 145.237585 150.637553 
L 145.326529 150.064941 
L 145.503164 150.064941 
L 145.503164 148.919718 
L 145.765046 148.919718 
L 145.851536 147.774494 
L 146.27812 147.774494 
L 146.27812 146.915576 
L 146.446082 146.915576 
L 146.446082 146.056659 
L 146.695245 146.056659 
L 146.695245 145.770353 
L 146.941151 145.770353 
L 146.941151 145.197741 
L 147.103321 145.197741 
L 147.183884 144.625129 
L 147.660152 144.625129 
L 147.73837 143.479906 
L 147.893838 143.479906 
L 147.893838 143.1936 
L 148.048032 143.1936 
L 148.124658 141.189459 
L 148.200973 141.189459 
L 148.276979 139.471624 
L 148.428077 139.471624 
L 148.428077 137.753788 
L 148.57797 137.753788 
L 148.652472 135.177035 
L 148.726679 135.177035 
L 148.800595 132.600282 
L 149.020615 132.600282 
L 149.093387 130.309835 
L 149.238092 130.309835 
L 149.238092 129.737224 
L 149.524205 129.737224 
L 149.524205 129.164612 
L 149.665646 129.164612 
L 149.73597 128.019388 
L 149.875833 128.019388 
L 149.875833 127.446776 
L 150.152479 127.446776 
L 150.152479 126.587859 
L 150.492661 126.587859 
L 150.492661 126.301553 
L 150.892922 126.301553 
L 150.892922 125.442635 
L 151.024471 125.442635 
L 151.024471 124.011106 
L 151.155108 124.011106 
L 151.220087 122.579576 
L 151.284843 122.579576 
L 151.349377 120.575435 
L 151.41369 120.575435 
L 151.477784 118.571294 
L 151.60532 118.571294 
L 151.60532 115.708235 
L 151.731998 115.708235 
L 151.795018 112.272565 
L 151.857828 112.272565 
L 151.857828 110.554729 
L 152.106991 110.554729 
L 152.106991 109.982118 
L 152.352898 109.982118 
L 152.413875 108.550588 
L 152.595631 108.550588 
L 152.595631 107.691671 
L 152.894708 107.691671 
L 152.894708 105.114918 
L 153.01302 105.114918 
L 153.01302 104.542306 
L 153.247435 104.542306 
L 153.305585 102.251859 
L 153.421349 102.251859 
L 153.478964 100.534024 
L 153.593669 100.534024 
L 153.593669 99.961412 
L 153.707679 99.961412 
L 153.707679 99.675106 
L 153.933646 99.675106 
L 153.933646 99.3888 
L 154.101358 99.3888 
L 154.156931 95.380518 
L 154.267588 95.380518 
L 154.322673 94.235294 
L 154.432362 94.235294 
L 154.432362 93.376376 
L 154.595705 93.376376 
L 154.703817 91.944847 
L 154.757642 91.944847 
L 154.811312 91.085929 
L 154.918196 91.085929 
L 154.918196 90.227012 
L 155.18278 90.227012 
L 155.28758 86.218729 
L 155.391799 86.218729 
L 155.443693 84.500894 
L 155.547053 84.500894 
L 155.649849 81.924141 
L 155.904407 81.924141 
L 156.005274 77.343247 
L 156.055505 77.343247 
L 156.155566 76.198024 
L 156.205398 76.198024 
L 156.205398 75.911718 
L 156.452597 75.911718 
L 156.501649 74.766494 
L 156.793307 74.766494 
L 156.84148 73.334965 
L 156.985263 73.334965 
L 157.080512 64.173176 
L 157.127956 64.173176 
L 157.222487 63.314259 
L 157.269574 63.314259 
L 157.316545 61.310118 
L 157.456756 61.310118 
L 157.549652 58.733365 
L 157.642093 58.733365 
L 157.688143 57.874447 
L 157.825621 57.874447 
L 157.916719 56.442918 
L 158.007377 56.442918 
L 158.0976 54.152471 
L 158.14255 54.152471 
L 158.14255 53.579859 
L 158.276759 53.579859 
L 158.276759 51.862024 
L 158.454228 51.862024 
L 158.498335 50.430494 
L 158.804221 50.430494 
L 158.890711 49.857882 
L 158.976805 49.857882 
L 158.976805 49.285271 
L 159.190332 49.285271 
L 159.275069 47.853741 
L 159.317295 47.853741 
L 159.317295 47.567435 
L 159.443406 47.567435 
L 159.443406 46.994824 
L 159.651731 46.994824 
L 159.651731 46.422212 
L 159.816746 46.422212 
L 159.857774 45.563294 
L 159.980326 45.563294 
L 159.980326 45.276988 
L 160.142495 45.276988 
L 160.223059 43.845459 
L 160.303279 43.845459 
L 160.303279 41.841318 
L 160.422971 41.841318 
L 160.422971 41.268706 
L 160.581385 41.268706 
L 160.620781 37.546729 
L 160.738476 37.546729 
L 160.738476 36.974118 
L 160.855439 36.974118 
L 160.855439 35.828894 
L 161.048777 35.828894 
L 161.125559 35.256282 
L 161.163832 35.256282 
L 161.240147 34.683671 
L 161.278189 34.683671 
L 161.316153 32.965835 
L 161.876619 32.965835 
L 161.986735 32.106918 
L 162.096211 32.106918 
L 162.096211 31.820612 
L 162.277267 31.820612 
L 162.277267 31.534306 
L 162.420867 31.534306 
L 162.420867 29.816471 
L 162.704821 29.816471 
L 162.775144 29.243859 
L 162.984551 29.243859 
L 162.984551 28.671247 
L 163.191653 28.671247 
L 163.260183 26.3808 
L 163.328465 26.3808 
L 163.430425 25.808188 
L 163.531835 25.808188 
L 163.531835 25.521882 
L 163.832826 25.521882 
L 163.865975 23.517741 
L 163.96507 23.517741 
L 164.063646 22.658824 
L 164.129077 22.658824 
L 164.129077 22.086212 
L 164.356312 22.086212 
L 164.388551 19.795765 
L 164.612692 19.795765 
L 164.70794 18.077929 
L 165.053116 18.077929 
L 165.053116 17.505318 
L 165.17708 17.505318 
L 165.17708 17.219012 
L 165.361509 17.219012 
L 165.361509 15.214871 
L 165.483464 15.214871 
L 165.483464 14.355953 
L 165.725029 14.355953 
L 165.755007 13.497035 
L 166.257466 13.497035 
L 166.257466 12.638118 
L 166.8036 12.638118 
L 166.8036 12.351812 
L 166.944723 12.351812 
L 166.944723 11.492894 
L 167.279159 11.492894 
L 167.38933 10.347671 
L 167.661966 10.347671 
L 167.716022 9.488753 
L 168.010586 9.488753 
L 168.010586 7.770918 
L 168.169334 7.770918 
L 168.248209 6.912 
L 360.8064 6.912 
L 360.8064 6.912 
" style="fill: none; stroke: #000080; stroke-width: 1.5; stroke-linecap: square"/>
   </g>
   <g id="line2d_36">
    <defs>
     <path id="m89bce2d70a" d="M 0 6 
C 1.591219 6 3.117479 5.367802 4.242641 4.242641 
C 5.367802 3.117479 6 1.591219 6 0 
C 6 -1.591219 5.367802 -3.117479 4.242641 -4.242641 
C 3.117479 -5.367802 1.591219 -6 0 -6 
C -1.591219 -6 -3.117479 -5.367802 -4.242641 -4.242641 
C -5.367802 -3.117479 -6 -1.591219 -6 0 
C -6 1.591219 -5.367802 3.117479 -4.242641 4.242641 
C -3.117479 5.367802 -1.591219 6 0 6 
z
" style="stroke: #000080; stroke-width: 1.5"/>
    </defs>
    <g>
     <use xlink:href="#m89bce2d70a" x="114.872193" y="233.952565" style="fill-opacity: 0; stroke: #000080; stroke-width: 1.5"/>
     <use xlink:href="#m89bce2d70a" x="153.305585" y="103.397082" style="fill-opacity: 0; stroke: #000080; stroke-width: 1.5"/>
     <use xlink:href="#m89bce2d70a" x="168.248209" y="7.198306" style="fill-opacity: 0; stroke: #000080; stroke-width: 1.5"/>
     <use xlink:href="#m89bce2d70a" x="168.248209" y="6.912" style="fill-opacity: 0; stroke: #000080; stroke-width: 1.5"/>
     <use xlink:href="#m89bce2d70a" x="168.248209" y="6.912" style="fill-opacity: 0; stroke: #000080; stroke-width: 1.5"/>
     <use xlink:href="#m89bce2d70a" x="360.8064" y="6.912" style="fill-opacity: 0; stroke: #000080; stroke-width: 1.5"/>
    </g>
   </g>
   <g id="line2d_37">
    <path style="fill: none; stroke: #000080; stroke-width: 1.5; stroke-linecap: square"/>
    <g/>
   </g>
   <g id="line2d_38">
    <defs>
     <path id="meb77f1fde8" d="M 0 1.5 
C 0.397805 1.5 0.77937 1.341951 1.06066 1.06066 
C 1.341951 0.77937 1.5 0.397805 1.5 0 
C 1.5 -0.397805 1.341951 -0.77937 1.06066 -1.06066 
C 0.77937 -1.341951 0.397805 -1.5 0 -1.5 
C -0.397805 -1.5 -0.77937 -1.341951 -1.06066 -1.06066 
C -1.341951 -0.77937 -1.5 -0.397805 -1.5 0 
C -1.5 0.397805 -1.341951 0.77937 -1.06066 1.06066 
C -0.77937 1.341951 -0.397805 1.5 0 1.5 
z
" style="stroke: #ff00ff"/>
    </defs>
    <g>
     <use xlink:href="#meb77f1fde8" x="173.699269" y="6.912" style="fill: #ff00ff; stroke: #ff00ff"/>
     <use xlink:href="#meb77f1fde8" x="173.699269" y="6.912" style="fill: #ff00ff; stroke: #ff00ff"/>
    </g>
   </g>
   <g id="line2d_39">
    <path d="M 44.560826 298.944 
L 44.560826 282.051953 
L 57.6 282.051953 
L 57.6 278.807153 
L 65.227428 278.807153 
L 65.227428 276.803012 
L 70.639174 276.803012 
L 70.639174 275.466918 
L 74.836851 275.466918 
L 74.836851 273.558212 
L 78.266603 273.558212 
L 78.266603 271.554071 
L 81.166416 271.554071 
L 81.166416 270.981459 
L 83.678349 270.981459 
L 83.678349 269.836235 
L 85.894031 269.836235 
L 85.894031 268.1184 
L 87.876026 268.1184 
L 87.876026 266.496 
L 89.668958 266.496 
L 89.668958 264.587294 
L 91.305777 264.587294 
L 91.305777 261.915106 
L 92.811505 261.915106 
L 92.811505 259.815529 
L 95.503454 259.720094 
L 95.503454 259.147482 
L 96.717523 259.147482 
L 96.717523 256.952471 
L 97.857967 256.952471 
L 97.857967 256.188988 
L 98.933205 256.188988 
L 98.933205 255.425506 
L 99.950294 255.425506 
L 99.950294 254.757459 
L 100.9152 254.757459 
L 100.9152 253.707671 
L 101.833019 253.707671 
L 101.833019 252.944188 
L 102.708132 252.944188 
L 102.708132 251.798965 
L 103.544339 251.798965 
L 103.544339 250.462871 
L 104.344952 250.462871 
L 104.344952 249.890259 
L 105.112877 249.890259 
L 105.112877 248.554165 
L 105.850679 248.554165 
L 105.850679 247.886118 
L 106.560633 247.886118 
L 106.560633 246.740894 
L 107.244765 246.740894 
L 107.244765 245.4048 
L 107.904887 245.4048 
L 107.904887 244.832188 
L 109.159456 244.832188 
L 109.159456 244.164141 
L 109.756698 244.164141 
L 109.756698 243.209788 
L 110.897141 243.114353 
L 110.897141 242.732612 
L 111.442442 242.732612 
L 111.442442 242.350871 
L 111.97238 242.350871 
L 111.97238 241.682824 
L 112.487797 241.682824 
L 112.487797 241.110212 
L 112.989468 241.110212 
L 112.989468 239.774118 
L 113.478107 239.774118 
L 113.478107 239.392376 
L 113.954374 239.392376 
L 113.954374 238.9152 
L 114.418881 238.9152 
L 114.418881 238.438024 
L 114.872193 238.438024 
L 114.872193 237.865412 
L 115.314838 237.865412 
L 115.314838 236.911059 
L 116.170056 236.911059 
L 116.170056 236.624753 
L 116.583514 236.624753 
L 116.583514 234.716047 
L 117.772007 234.716047 
L 117.772007 234.429741 
L 118.889854 234.429741 
L 118.889854 233.284518 
L 119.24818 233.284518 
L 119.24818 232.998212 
L 119.944983 232.998212 
L 119.944983 231.852988 
L 120.28394 231.852988 
L 120.28394 231.566682 
L 120.616896 231.566682 
L 120.616896 231.280376 
L 121.265635 231.280376 
L 121.265635 230.516894 
L 121.892744 230.421459 
L 121.892744 229.467106 
L 122.19863 229.467106 
L 122.19863 228.703624 
L 122.795872 228.703624 
L 122.795872 228.131012 
L 123.08753 228.131012 
L 123.08753 227.844706 
L 123.657621 227.749271 
L 123.657621 227.462965 
L 124.481616 227.462965 
L 124.481616 226.604047 
L 124.748451 226.604047 
L 124.748451 226.222306 
L 125.011554 226.222306 
L 125.011554 225.840565 
L 125.526971 225.840565 
L 125.526971 225.458824 
L 125.779479 225.458824 
L 125.779479 225.267953 
L 126.028642 225.267953 
L 126.028642 224.981647 
L 126.274549 224.981647 
L 126.274549 224.695341 
L 127.227236 224.599906 
L 127.227236 224.504471 
L 127.458055 224.504471 
L 127.458055 224.122729 
L 127.911368 224.122729 
L 127.911368 223.931859 
L 128.133992 223.931859 
L 128.133992 223.072941 
L 128.57149 223.072941 
L 128.57149 222.500329 
L 128.786481 222.500329 
L 128.786481 222.118588 
L 129.209231 222.118588 
L 129.209231 221.0688 
L 129.417095 221.0688 
L 129.417095 220.877929 
L 129.622688 220.877929 
L 129.622688 220.209882 
L 129.826058 220.209882 
L 129.826058 219.828141 
L 130.027253 219.828141 
L 130.027253 218.969224 
L 130.226319 218.969224 
L 130.226319 218.682918 
L 130.4233 218.682918 
L 130.4233 217.728565 
L 131.002163 217.633129 
L 131.002163 217.537694 
L 131.378407 217.537694 
L 131.378407 217.060518 
L 131.563744 217.060518 
L 131.563744 216.869647 
L 131.747272 216.869647 
L 131.747272 216.106165 
L 131.929028 216.106165 
L 131.929028 214.006588 
L 132.109044 214.006588 
L 132.109044 213.624847 
L 132.46399 213.529412 
L 132.46399 213.243106 
L 132.638982 213.243106 
L 132.638982 213.052235 
L 132.984158 213.052235 
L 132.984158 212.288753 
L 133.154399 212.288753 
L 133.154399 212.002447 
L 133.323114 212.002447 
L 133.323114 211.143529 
L 133.490329 211.143529 
L 133.490329 208.185035 
L 133.820365 208.0896 
L 133.820365 207.898729 
L 133.983236 207.898729 
L 133.983236 207.326118 
L 134.304809 207.230682 
L 134.304809 206.944376 
L 134.463557 206.944376 
L 134.463557 206.562635 
L 134.620977 206.562635 
L 134.620977 203.2224 
L 134.931919 203.126965 
L 134.931919 203.031529 
L 135.085483 203.031529 
L 135.085483 199.786729 
L 135.388902 199.691294 
L 135.388902 199.214118 
L 135.687504 199.118682 
L 135.687504 199.023247 
L 135.835047 199.023247 
L 135.835047 198.832376 
L 135.981441 198.832376 
L 135.981441 198.546071 
L 136.126705 198.546071 
L 136.126705 198.3552 
L 136.270855 198.3552 
L 136.270855 198.164329 
L 136.696795 198.068894 
L 136.696795 195.969318 
L 136.836659 195.969318 
L 136.836659 195.683012 
L 136.97549 195.683012 
L 136.97549 195.014965 
L 137.250116 195.014965 
L 137.250116 194.824094 
L 137.38594 194.824094 
L 137.38594 192.533647 
L 137.520791 192.533647 
L 137.520791 192.342776 
L 137.919637 192.247341 
L 137.919637 192.151906 
L 138.050729 192.151906 
L 138.050729 191.483859 
L 138.180913 191.483859 
L 138.180913 188.907106 
L 138.310202 188.907106 
L 138.310202 188.334494 
L 138.438609 188.334494 
L 138.438609 185.662306 
L 138.566146 185.662306 
L 138.566146 184.421647 
L 138.692823 184.421647 
L 138.692823 183.085553 
L 138.818654 183.085553 
L 138.818654 182.703812 
L 138.943648 182.703812 
L 138.943648 180.222494 
L 139.067817 180.222494 
L 139.067817 178.981835 
L 139.191172 178.981835 
L 139.191172 178.409224 
L 139.676658 178.313788 
L 139.676658 178.218353 
L 139.796097 178.218353 
L 139.796097 177.741176 
L 140.032723 177.741176 
L 140.032723 177.454871 
L 140.26641 177.359435 
L 140.26641 177.264 
L 140.49723 177.264 
L 140.49723 176.977694 
L 140.611586 176.977694 
L 140.611586 174.782682 
L 140.725251 174.782682 
L 140.725251 173.732894 
L 140.838234 173.732894 
L 140.838234 172.778541 
L 140.950542 172.778541 
L 140.950542 172.205929 
L 141.283499 172.110494 
L 141.393187 171.347012 
L 141.50224 171.347012 
L 141.610664 170.583529 
L 141.718467 170.583529 
L 141.825656 169.056565 
L 141.932237 169.056565 
L 142.038218 168.102212 
L 142.143605 168.102212 
L 142.248405 166.861553 
L 142.352625 166.861553 
L 142.45627 165.620894 
L 142.559347 165.620894 
L 142.661862 165.143718 
L 142.763822 165.143718 
L 142.763822 163.521318 
L 143.066428 163.425882 
L 143.166224 160.085647 
L 143.265494 160.085647 
L 143.364242 159.703906 
L 143.560197 159.608471 
L 143.657415 159.035859 
L 143.754133 159.035859 
L 143.850356 158.367812 
L 143.946089 158.367812 
L 144.041338 157.890635 
L 144.136106 157.890635 
L 144.2304 156.936282 
L 144.324223 156.936282 
L 144.417581 156.1728 
L 144.786447 156.077365 
L 144.877544 153.977788 
L 144.968202 153.977788 
L 145.058426 153.214306 
L 145.326529 153.118871 
L 145.415054 152.259953 
L 145.503164 152.259953 
L 145.590864 151.878212 
L 145.678157 151.878212 
L 145.765046 150.637553 
L 145.851536 150.637553 
L 145.93763 150.064941 
L 146.108646 149.969506 
L 146.108646 149.778635 
L 146.27812 149.778635 
L 146.362288 148.347106 
L 146.446082 148.347106 
L 146.529503 147.488188 
L 146.612557 147.488188 
L 146.695245 146.724706 
L 146.777571 146.724706 
L 146.859539 145.961224 
L 146.941151 145.961224 
L 147.022411 145.579482 
L 147.103321 145.579482 
L 147.183884 144.911435 
L 147.264104 144.911435 
L 147.343984 144.147953 
L 147.423525 144.147953 
L 147.502732 142.907294 
L 147.581606 142.907294 
L 147.660152 142.525553 
L 147.893838 142.430118 
L 147.971093 141.380329 
L 148.048032 141.380329 
L 148.124658 140.235106 
L 148.276979 140.235106 
L 148.352679 139.853365 
L 148.428077 139.853365 
L 148.503173 138.994447 
L 148.57797 138.994447 
L 148.652472 137.658353 
L 148.726679 137.658353 
L 148.800595 136.990306 
L 148.874221 136.990306 
L 148.947561 135.463341 
L 149.093387 135.367906 
L 149.165879 133.936376 
L 149.238092 133.936376 
L 149.31003 131.8368 
L 149.381693 131.8368 
L 149.453084 131.073318 
L 149.524205 131.073318 
L 149.595059 130.596141 
L 149.665646 130.596141 
L 149.73597 130.118965 
L 149.806031 130.118965 
L 149.875833 129.355482 
L 149.945377 129.355482 
L 150.014665 128.401129 
L 150.152479 128.401129 
L 150.221009 127.160471 
L 150.289291 127.160471 
L 150.357325 126.778729 
L 150.425115 126.778729 
L 150.492661 125.442635 
L 150.62703 125.3472 
L 150.693856 124.488282 
L 150.760445 124.488282 
L 150.8268 123.533929 
L 151.024471 123.438494 
L 151.024471 122.388706 
L 151.155108 122.388706 
L 151.155108 122.1024 
L 151.349377 122.1024 
L 151.41369 121.720659 
L 151.477784 121.720659 
L 151.54166 120.670871 
L 151.60532 120.670871 
L 151.668766 118.953035 
L 151.731998 118.953035 
L 151.795018 116.853459 
L 151.857828 116.853459 
L 151.920429 114.276706 
L 152.045009 114.181271 
L 152.106991 113.226918 
L 152.16877 113.226918 
L 152.230346 111.795388 
L 152.291722 111.795388 
L 152.352898 110.7456 
L 152.413875 110.7456 
L 152.474656 109.886682 
L 152.595631 109.886682 
L 152.655828 109.218635 
L 152.715833 109.218635 
L 152.775647 108.836894 
L 152.835271 108.836894 
L 152.894708 107.691671 
L 152.953957 107.691671 
L 153.01302 107.309929 
L 153.071898 107.309929 
L 153.130592 106.164706 
L 153.189104 106.164706 
L 153.247435 104.828612 
L 153.305585 104.828612 
L 153.363556 103.587953 
L 153.478964 103.587953 
L 153.536404 103.015341 
L 153.593669 103.015341 
L 153.650761 102.251859 
L 153.764426 102.251859 
L 153.821002 101.583812 
L 153.877408 101.583812 
L 153.933646 100.820329 
L 153.989717 100.820329 
L 154.04562 99.770541 
L 154.101358 99.770541 
L 154.212341 98.148141 
L 154.267588 98.148141 
L 154.377597 97.002918 
L 154.432362 97.002918 
L 154.486967 95.571388 
L 154.595705 95.571388 
L 154.703817 95.285082 
L 154.757642 95.285082 
L 154.86483 94.044424 
L 154.918196 94.044424 
L 155.024477 92.803765 
L 155.077392 92.803765 
L 155.18278 90.990494 
L 155.28758 90.895059 
L 155.339761 90.608753 
L 155.443693 90.608753 
L 155.495444 88.890918 
L 155.649849 88.890918 
L 155.752086 86.886776 
L 155.85377 86.791341 
L 155.954908 83.451106 
L 156.005274 83.451106 
L 156.105602 81.351529 
L 156.205398 81.256094 
L 156.304668 79.538259 
L 156.354107 79.538259 
L 156.452597 78.393035 
L 156.501649 78.393035 
L 156.599372 74.861929 
L 156.648044 74.861929 
L 156.745011 73.239529 
L 156.84148 73.144094 
L 156.937458 72.380612 
L 156.985263 72.380612 
L 157.080512 71.139953 
L 157.127956 71.139953 
L 157.222487 68.754071 
L 157.269574 68.754071 
L 157.363398 67.704282 
L 157.456756 67.704282 
L 157.549652 66.559059 
L 157.595929 66.559059 
L 157.688143 65.222965 
L 157.779907 65.127529 
L 157.871225 63.027953 
L 157.916719 63.027953 
L 158.007377 61.023812 
L 158.0976 60.928376 
L 158.187393 59.783153 
L 158.232129 59.783153 
L 158.321284 58.733365 
L 158.365703 58.733365 
L 158.454228 57.969882 
L 158.498335 57.969882 
L 158.58624 55.488565 
L 158.630038 55.488565 
L 158.717331 53.007247 
L 158.804221 53.007247 
L 158.890711 51.862024 
L 158.933807 51.862024 
L 159.019705 50.812235 
L 159.062507 50.812235 
L 159.14782 48.808094 
L 159.190332 48.808094 
L 159.275069 46.613082 
L 159.317295 46.613082 
L 159.401463 46.040471 
L 159.443406 46.040471 
L 159.527013 44.990682 
L 159.568678 44.990682 
L 159.651731 42.891106 
L 159.693121 42.891106 
L 159.734419 42.127624 
L 159.816746 42.127624 
L 159.898714 40.505224 
L 159.939564 40.505224 
L 159.980326 40.028047 
L 160.142495 40.028047 
L 160.223059 39.741741 
L 160.263211 39.741741 
L 160.343261 38.882824 
L 160.383158 38.882824 
L 160.4627 38.214776 
L 160.541906 38.214776 
L 160.620781 36.687812 
L 160.660094 36.687812 
L 160.738476 36.1152 
L 160.777545 36.1152 
L 160.816532 34.301929 
L 160.933013 34.301929 
L 161.010268 31.820612 
L 161.048777 31.820612 
L 161.125559 31.057129 
L 161.278189 31.057129 
L 161.316153 30.484518 
L 161.42959 30.484518 
L 161.467251 29.911906 
L 161.542347 29.911906 
L 161.617145 27.907765 
L 161.728786 27.812329 
L 161.839769 26.953412 
L 161.913396 26.953412 
L 161.986735 26.285365 
L 162.096211 26.285365 
L 162.205054 25.044706 
L 162.31327 24.949271 
L 162.420867 23.613176 
L 162.527853 23.517741 
L 162.56338 22.945129 
L 162.66956 22.945129 
L 162.775144 21.799906 
L 162.880139 21.704471 
L 162.949812 21.5136 
L 163.019227 21.5136 
L 163.122872 20.463812 
L 163.191653 20.463812 
L 163.260183 20.177506 
L 163.3965 20.082071 
L 163.498092 19.509459 
L 163.632702 19.509459 
L 163.699647 18.555106 
L 163.832826 18.459671 
L 163.932096 17.791624 
L 163.96507 17.791624 
L 164.063646 17.028141 
L 164.129077 17.028141 
L 164.2268 16.455529 
L 164.259262 16.455529 
L 164.259262 16.264659 
L 164.420735 16.169224 
L 164.420735 15.882918 
L 164.644495 15.882918 
L 164.739583 15.310306 
L 164.834193 15.214871 
L 164.834193 15.119435 
L 164.990826 15.119435 
L 165.084184 14.642259 
L 165.1152 14.642259 
L 165.207944 14.069647 
L 165.361509 13.974212 
L 165.361509 13.306165 
L 165.784938 13.210729 
L 165.784938 13.115294 
L 166.661411 13.019859 
L 166.661411 12.828988 
L 166.8036 12.828988 
L 166.888401 11.970071 
L 167.471536 11.874635 
L 167.471536 11.7792 
L 167.796816 11.683765 
L 167.904005 11.206588 
L 167.957371 11.206588 
L 167.957371 10.729412 
L 168.300609 10.633976 
L 168.300609 10.347671 
L 169.144777 10.252235 
L 169.144777 10.1568 
L 169.368578 10.061365 
L 169.368578 9.870494 
L 169.735764 9.775059 
L 169.735764 9.488753 
L 170.261661 9.393318 
L 170.261661 9.297882 
L 170.472634 9.297882 
L 170.472634 9.107012 
L 170.955893 9.011576 
L 171.001277 8.725271 
L 171.293632 8.629835 
L 171.293632 8.5344 
L 172.101681 8.438965 
L 172.101681 8.152659 
L 172.461621 8.057224 
L 172.566188 7.580047 
L 173.039848 7.580047 
L 173.080478 7.198306 
L 173.699269 7.198306 
L 173.699269 6.912 
L 360.8064 6.912 
L 360.8064 6.912 
" style="fill: none; stroke: #ff00ff; stroke-width: 1.5; stroke-linecap: square"/>
   </g>
   <g id="line2d_40">
    <defs>
     <path id="mf53c2a85f6" d="M -0 8.485281 
L 5.091169 0 
L 0 -8.485281 
L -5.091169 -0 
z
" style="stroke: #ff00ff; stroke-width: 1.5; stroke-linejoin: miter"/>
    </defs>
    <g>
     <use xlink:href="#mf53c2a85f6" x="95.503454" y="259.147482" style="fill-opacity: 0; stroke: #ff00ff; stroke-width: 1.5; stroke-linejoin: miter"/>
     <use xlink:href="#mf53c2a85f6" x="141.825656" y="169.056565" style="fill-opacity: 0; stroke: #ff00ff; stroke-width: 1.5; stroke-linejoin: miter"/>
     <use xlink:href="#mf53c2a85f6" x="172.3986" y="8.057224" style="fill-opacity: 0; stroke: #ff00ff; stroke-width: 1.5; stroke-linejoin: miter"/>
     <use xlink:href="#mf53c2a85f6" x="173.699269" y="6.912" style="fill-opacity: 0; stroke: #ff00ff; stroke-width: 1.5; stroke-linejoin: miter"/>
     <use xlink:href="#mf53c2a85f6" x="173.699269" y="6.912" style="fill-opacity: 0; stroke: #ff00ff; stroke-width: 1.5; stroke-linejoin: miter"/>
     <use xlink:href="#mf53c2a85f6" x="360.8064" y="6.912" style="fill-opacity: 0; stroke: #ff00ff; stroke-width: 1.5; stroke-linejoin: miter"/>
    </g>
   </g>
   <g id="line2d_41">
    <path style="fill: none; stroke: #ff00ff; stroke-width: 1.5; stroke-linecap: square"/>
    <g/>
   </g>
   <g id="line2d_42">
    <path d="M 360.8064 6.912 
L 380.514816 293.10336 
" style="fill: none; stroke: #ff00ff; stroke-width: 1.5; stroke-linecap: square"/>
    <g>
     <use xlink:href="#mf53c2a85f6" x="360.8064" y="6.912" style="fill-opacity: 0; stroke: #ff00ff; stroke-width: 1.5; stroke-linejoin: miter"/>
     <use xlink:href="#mf53c2a85f6" x="380.514816" y="293.10336" style="fill-opacity: 0; stroke: #ff00ff; stroke-width: 1.5; stroke-linejoin: miter"/>
    </g>
   </g>
   <g id="line2d_43">
    <path d="M 360.8064 6.912 
L 380.514816 152.928 
" style="fill: none; stroke: #000080; stroke-width: 1.5; stroke-linecap: square"/>
    <g>
     <use xlink:href="#m89bce2d70a" x="360.8064" y="6.912" style="fill-opacity: 0; stroke: #000080; stroke-width: 1.5"/>
     <use xlink:href="#m89bce2d70a" x="380.514816" y="152.928" style="fill-opacity: 0; stroke: #000080; stroke-width: 1.5"/>
    </g>
   </g>
   <g id="line2d_44">
    <path d="M 360.8064 298.944 
L 360.8064 6.912 
" style="fill: none; stroke: #000000; stroke-width: 1.5; stroke-linecap: square"/>
   </g>
   <g id="patch_3">
    <path d="M 57.6 298.944 
L 360.8064 298.944 
" style="fill: none; stroke: #000000; stroke-width: 0.8; stroke-linejoin: miter; stroke-linecap: square"/>
   </g>
   <g id="patch_4">
    <path d="M 57.6 6.912 
L 360.8064 6.912 
" style="fill: none; stroke: #000000; stroke-width: 0.8; stroke-linejoin: miter; stroke-linecap: square"/>
   </g>
   <g id="text_13">
    <!-- CMA-ES-20 -->
    <g transform="translate(386.578944 296.966485)scale(0.14 -0.14)">
     <defs>
      <path id="DejaVuSans-43" d="M 4122 4306 
L 4122 3641 
Q 3803 3938 3442 4084 
Q 3081 4231 2675 4231 
Q 1875 4231 1450 3742 
Q 1025 3253 1025 2328 
Q 1025 1406 1450 917 
Q 1875 428 2675 428 
Q 3081 428 3442 575 
Q 3803 722 4122 1019 
L 4122 359 
Q 3791 134 3420 21 
Q 3050 -91 2638 -91 
Q 1578 -91 968 557 
Q 359 1206 359 2328 
Q 359 3453 968 4101 
Q 1578 4750 2638 4750 
Q 3056 4750 3426 4639 
Q 3797 4528 4122 4306 
z
" transform="scale(0.015625)"/>
      <path id="DejaVuSans-4d" d="M 628 4666 
L 1569 4666 
L 2759 1491 
L 3956 4666 
L 4897 4666 
L 4897 0 
L 4281 0 
L 4281 4097 
L 3078 897 
L 2444 897 
L 1241 4097 
L 1241 0 
L 628 0 
L 628 4666 
z
" transform="scale(0.015625)"/>
      <path id="DejaVuSans-41" d="M 2188 4044 
L 1331 1722 
L 3047 1722 
L 2188 4044 
z
M 1831 4666 
L 2547 4666 
L 4325 0 
L 3669 0 
L 3244 1197 
L 1141 1197 
L 716 0 
L 50 0 
L 1831 4666 
z
" transform="scale(0.015625)"/>
      <path id="DejaVuSans-45" d="M 628 4666 
L 3578 4666 
L 3578 4134 
L 1259 4134 
L 1259 2753 
L 3481 2753 
L 3481 2222 
L 1259 2222 
L 1259 531 
L 3634 531 
L 3634 0 
L 628 0 
L 628 4666 
z
" transform="scale(0.015625)"/>
      <path id="DejaVuSans-53" d="M 3425 4513 
L 3425 3897 
Q 3066 4069 2747 4153 
Q 2428 4238 2131 4238 
Q 1616 4238 1336 4038 
Q 1056 3838 1056 3469 
Q 1056 3159 1242 3001 
Q 1428 2844 1947 2747 
L 2328 2669 
Q 3034 2534 3370 2195 
Q 3706 1856 3706 1288 
Q 3706 609 3251 259 
Q 2797 -91 1919 -91 
Q 1588 -91 1214 -16 
Q 841 59 441 206 
L 441 856 
Q 825 641 1194 531 
Q 1563 422 1919 422 
Q 2459 422 2753 634 
Q 3047 847 3047 1241 
Q 3047 1584 2836 1778 
Q 2625 1972 2144 2069 
L 1759 2144 
Q 1053 2284 737 2584 
Q 422 2884 422 3419 
Q 422 4038 858 4394 
Q 1294 4750 2059 4750 
Q 2388 4750 2728 4690 
Q 3069 4631 3425 4513 
z
" transform="scale(0.015625)"/>
     </defs>
     <use xlink:href="#DejaVuSans-43"/>
     <use xlink:href="#DejaVuSans-4d" x="69.824219"/>
     <use xlink:href="#DejaVuSans-41" x="156.103516"/>
     <use xlink:href="#DejaVuSans-2d" x="222.261719"/>
     <use xlink:href="#DejaVuSans-45" x="258.345703"/>
     <use xlink:href="#DejaVuSans-53" x="321.529297"/>
     <use xlink:href="#DejaVuSans-2d" x="385.005859"/>
     <use xlink:href="#DejaVuSans-32" x="421.089844"/>
     <use xlink:href="#DejaVuSans-30" x="484.712891"/>
    </g>
   </g>
   <g id="text_14">
    <!-- ex -->
    <g transform="translate(386.578944 156.791125)scale(0.14 -0.14)">
     <defs>
      <path id="DejaVuSans-78" d="M 3513 3500 
L 2247 1797 
L 3578 0 
L 2900 0 
L 1881 1375 
L 863 0 
L 184 0 
L 1544 1831 
L 300 3500 
L 978 3500 
L 1906 2253 
L 2834 3500 
L 3513 3500 
z
" transform="scale(0.015625)"/>
     </defs>
     <use xlink:href="#DejaVuSans-65"/>
     <use xlink:href="#DejaVuSans-78" x="59.773438"/>
    </g>
   </g>
   <g id="text_15">
    <!-- best 2009 -->
    <g transform="translate(386.578944 16.615765)scale(0.14 -0.14)">
     <defs>
      <path id="DejaVuSans-62" d="M 3116 1747 
Q 3116 2381 2855 2742 
Q 2594 3103 2138 3103 
Q 1681 3103 1420 2742 
Q 1159 2381 1159 1747 
Q 1159 1113 1420 752 
Q 1681 391 2138 391 
Q 2594 391 2855 752 
Q 3116 1113 3116 1747 
z
M 1159 2969 
Q 1341 3281 1617 3432 
Q 1894 3584 2278 3584 
Q 2916 3584 3314 3078 
Q 3713 2572 3713 1747 
Q 3713 922 3314 415 
Q 2916 -91 2278 -91 
Q 1894 -91 1617 61 
Q 1341 213 1159 525 
L 1159 0 
L 581 0 
L 581 4863 
L 1159 4863 
L 1159 2969 
z
" transform="scale(0.015625)"/>
      <path id="DejaVuSans-39" d="M 703 97 
L 703 672 
Q 941 559 1184 500 
Q 1428 441 1663 441 
Q 2288 441 2617 861 
Q 2947 1281 2994 2138 
Q 2813 1869 2534 1725 
Q 2256 1581 1919 1581 
Q 1219 1581 811 2004 
Q 403 2428 403 3163 
Q 403 3881 828 4315 
Q 1253 4750 1959 4750 
Q 2769 4750 3195 4129 
Q 3622 3509 3622 2328 
Q 3622 1225 3098 567 
Q 2575 -91 1691 -91 
Q 1453 -91 1209 -44 
Q 966 3 703 97 
z
M 1959 2075 
Q 2384 2075 2632 2365 
Q 2881 2656 2881 3163 
Q 2881 3666 2632 3958 
Q 2384 4250 1959 4250 
Q 1534 4250 1286 3958 
Q 1038 3666 1038 3163 
Q 1038 2656 1286 2365 
Q 1534 2075 1959 2075 
z
" transform="scale(0.015625)"/>
     </defs>
     <use xlink:href="#DejaVuSans-62"/>
     <use xlink:href="#DejaVuSans-65" x="63.476562"/>
     <use xlink:href="#DejaVuSans-73" x="125"/>
     <use xlink:href="#DejaVuSans-74" x="177.099609"/>
     <use xlink:href="#DejaVuSans-20" x="216.308594"/>
     <use xlink:href="#DejaVuSans-32" x="248.095703"/>
     <use xlink:href="#DejaVuSans-30" x="311.71875"/>
     <use xlink:href="#DejaVuSans-30" x="375.341797"/>
     <use xlink:href="#DejaVuSans-39" x="438.964844"/>
    </g>
   </g>
   <g id="text_16">
    <!-- bbob f6-f9, 2-D -->
    <g transform="translate(60.632064 17.582726)scale(0.102 -0.102)">
     <defs>
      <path id="DejaVuSans-44" d="M 1259 4147 
L 1259 519 
L 2022 519 
Q 2988 519 3436 956 
Q 3884 1394 3884 2338 
Q 3884 3275 3436 3711 
Q 2988 4147 2022 4147 
L 1259 4147 
z
M 628 4666 
L 1925 4666 
Q 3281 4666 3915 4102 
Q 4550 3538 4550 2338 
Q 4550 1131 3912 565 
Q 3275 0 1925 0 
L 628 0 
L 628 4666 
z
" transform="scale(0.015625)"/>
     </defs>
     <use xlink:href="#DejaVuSans-62"/>
     <use xlink:href="#DejaVuSans-62" x="63.476562"/>
     <use xlink:href="#DejaVuSans-6f" x="126.953125"/>
     <use xlink:href="#DejaVuSans-62" x="188.134766"/>
     <use xlink:href="#DejaVuSans-20" x="251.611328"/>
     <use xlink:href="#DejaVuSans-66" x="283.398438"/>
     <use xlink:href="#DejaVuSans-36" x="318.603516"/>
     <use xlink:href="#DejaVuSans-2d" x="382.226562"/>
     <use xlink:href="#DejaVuSans-66" x="418.310547"/>
     <use xlink:href="#DejaVuSans-39" x="453.515625"/>
     <use xlink:href="#DejaVuSans-2c" x="517.138672"/>
     <use xlink:href="#DejaVuSans-20" x="548.925781"/>
     <use xlink:href="#DejaVuSans-32" x="580.712891"/>
     <use xlink:href="#DejaVuSans-2d" x="644.335938"/>
     <use xlink:href="#DejaVuSans-44" x="680.419922"/>
    </g>
    <!-- 51 targets: 100..1e-08 -->
    <g transform="translate(60.632064 29.004495)scale(0.102 -0.102)">
     <defs>
      <path id="DejaVuSans-35" d="M 691 4666 
L 3169 4666 
L 3169 4134 
L 1269 4134 
L 1269 2991 
Q 1406 3038 1543 3061 
Q 1681 3084 1819 3084 
Q 2600 3084 3056 2656 
Q 3513 2228 3513 1497 
Q 3513 744 3044 326 
Q 2575 -91 1722 -91 
Q 1428 -91 1123 -41 
Q 819 9 494 109 
L 494 744 
Q 775 591 1075 516 
Q 1375 441 1709 441 
Q 2250 441 2565 725 
Q 2881 1009 2881 1497 
Q 2881 1984 2565 2268 
Q 2250 2553 1709 2553 
Q 1456 2553 1204 2497 
Q 953 2441 691 2322 
L 691 4666 
z
" transform="scale(0.015625)"/>
      <path id="DejaVuSans-3a" d="M 750 794 
L 1409 794 
L 1409 0 
L 750 0 
L 750 794 
z
M 750 3309 
L 1409 3309 
L 1409 2516 
L 750 2516 
L 750 3309 
z
" transform="scale(0.015625)"/>
     </defs>
     <use xlink:href="#DejaVuSans-35"/>
     <use xlink:href="#DejaVuSans-31" x="63.623047"/>
     <use xlink:href="#DejaVuSans-20" x="127.246094"/>
     <use xlink:href="#DejaVuSans-74" x="159.033203"/>
     <use xlink:href="#DejaVuSans-61" x="198.242188"/>
     <use xlink:href="#DejaVuSans-72" x="259.521484"/>
     <use xlink:href="#DejaVuSans-67" x="298.884766"/>
     <use xlink:href="#DejaVuSans-65" x="362.361328"/>
     <use xlink:href="#DejaVuSans-74" x="423.884766"/>
     <use xlink:href="#DejaVuSans-73" x="463.09375"/>
     <use xlink:href="#DejaVuSans-3a" x="515.193359"/>
     <use xlink:href="#DejaVuSans-20" x="548.884766"/>
     <use xlink:href="#DejaVuSans-31" x="580.671875"/>
     <use xlink:href="#DejaVuSans-30" x="644.294922"/>
     <use xlink:href="#DejaVuSans-30" x="707.917969"/>
     <use xlink:href="#DejaVuSans-2e" x="771.541016"/>
     <use xlink:href="#DejaVuSans-2e" x="803.328125"/>
     <use xlink:href="#DejaVuSans-31" x="835.115234"/>
     <use xlink:href="#DejaVuSans-65" x="898.738281"/>
     <use xlink:href="#DejaVuSans-2d" x="960.261719"/>
     <use xlink:href="#DejaVuSans-30" x="996.345703"/>
     <use xlink:href="#DejaVuSans-38" x="1059.96875"/>
    </g>
    <!-- 5, 15 instances -->
    <g transform="translate(60.632064 40.426264)scale(0.102 -0.102)">
     <use xlink:href="#DejaVuSans-35"/>
     <use xlink:href="#DejaVuSans-2c" x="63.623047"/>
     <use xlink:href="#DejaVuSans-20" x="95.410156"/>
     <use xlink:href="#DejaVuSans-31" x="127.197266"/>
     <use xlink:href="#DejaVuSans-35" x="190.820312"/>
     <use xlink:href="#DejaVuSans-20" x="254.443359"/>
     <use xlink:href="#DejaVuSans-69" x="286.230469"/>
     <use xlink:href="#DejaVuSans-6e" x="314.013672"/>
     <use xlink:href="#DejaVuSans-73" x="377.392578"/>
     <use xlink:href="#DejaVuSans-74" x="429.492188"/>
     <use xlink:href="#DejaVuSans-61" x="468.701172"/>
     <use xlink:href="#DejaVuSans-6e" x="529.980469"/>
     <use xlink:href="#DejaVuSans-63" x="593.359375"/>
     <use xlink:href="#DejaVuSans-65" x="648.339844"/>
     <use xlink:href="#DejaVuSans-73" x="709.863281"/>
    </g>
   </g>
   <g id="text_17">
    <!-- v2.6 -->
    <g style="fill: #808080" transform="translate(198.292262 293.943992)scale(0.1 -0.1)">
     <use xlink:href="#DejaVuSans-76"/>
     <use xlink:href="#DejaVuSans-32" x="59.179688"/>
     <use xlink:href="#DejaVuSans-2e" x="122.802734"/>
     <use xlink:href="#DejaVuSans-36" x="154.589844"/>
    </g>
   </g>
  </g>
 </g>
 <defs>
  <clipPath id="pd9f8d1f224">
   <rect x="57.6" y="6.912" width="303.2064" height="292.032"/>
  </clipPath>
 </defs>
</svg>
