<?xml version="1.0" encoding="utf-8" standalone="no"?>
<!DOCTYPE svg PUBLIC "-//W3C//DTD SVG 1.1//EN"
  "http://www.w3.org/Graphics/SVG/1.1/DTD/svg11.dtd">
<svg xmlns:xlink="http://www.w3.org/1999/xlink" width="460.8pt" height="345.6pt" viewBox="0 0 460.8 345.6" xmlns="http://www.w3.org/2000/svg" version="1.1">
 <metadata>
  <rdf:RDF xmlns:dc="http://purl.org/dc/elements/1.1/" xmlns:cc="http://creativecommons.org/ns#" xmlns:rdf="http://www.w3.org/1999/02/22-rdf-syntax-ns#">
   <cc:Work>
    <dc:type rdf:resource="http://purl.org/dc/dcmitype/StillImage"/>
    <dc:date>2022-03-22T17:03:09.505059</dc:date>
    <dc:format>image/svg+xml</dc:format>
    <dc:creator>
     <cc:Agent>
      <dc:title>Matplotlib v3.5.1, https://matplotlib.org/</dc:title>
     </cc:Agent>
    </dc:creator>
   </cc:Work>
  </rdf:RDF>
 </metadata>
 <defs>
  <style type="text/css">*{stroke-linejoin: round; stroke-linecap: butt}</style>
 </defs>
 <g id="figure_1">
  <g id="patch_1">
   <path d="M 0 345.6 
L 460.8 345.6 
L 460.8 0 
L 0 0 
z
" style="fill: #ffffff"/>
  </g>
  <g id="axes_1">
   <g id="patch_2">
    <path d="M 57.6 298.944 
L 360.8064 298.944 
L 360.8064 27.648 
L 57.6 27.648 
z
" style="fill: #ffffff"/>
   </g>
   <g id="line2d_1">
    <path d="M 34.951403 298.944 
L 34.951403 293.624471 
L 61.029752 293.624471 
L 61.029752 288.304941 
L 71.556993 288.304941 
L 71.556993 277.665882 
L 71.999638 277.665882 
L 71.999638 27.648 
L 360.8064 27.648 
" style="fill: none; stroke: #f5deb3; stroke-width: 4; stroke-linecap: square"/>
   </g>
   <g id="line2d_2">
    <defs>
     <path id="mcad1a99fba" d="M -0 7.778175 
L 7.778175 0 
L 0 -7.778175 
L -7.778175 -0 
z
" style="stroke: #f5deb3; stroke-width: 1.5; stroke-linejoin: miter"/>
    </defs>
    <g>
     <use xlink:href="#mcad1a99fba" x="71.556993" y="277.665882" style="fill: #f5deb3; stroke: #f5deb3; stroke-width: 1.5; stroke-linejoin: miter"/>
     <use xlink:href="#mcad1a99fba" x="71.999638" y="277.665882" style="fill: #f5deb3; stroke: #f5deb3; stroke-width: 1.5; stroke-linejoin: miter"/>
     <use xlink:href="#mcad1a99fba" x="71.999638" y="27.648" style="fill: #f5deb3; stroke: #f5deb3; stroke-width: 1.5; stroke-linejoin: miter"/>
     <use xlink:href="#mcad1a99fba" x="71.999638" y="27.648" style="fill: #f5deb3; stroke: #f5deb3; stroke-width: 1.5; stroke-linejoin: miter"/>
     <use xlink:href="#mcad1a99fba" x="71.999638" y="27.648" style="fill: #f5deb3; stroke: #f5deb3; stroke-width: 1.5; stroke-linejoin: miter"/>
     <use xlink:href="#mcad1a99fba" x="360.8064" y="27.648" style="fill: #f5deb3; stroke: #f5deb3; stroke-width: 1.5; stroke-linejoin: miter"/>
    </g>
   </g>
   <g id="line2d_3">
    <path style="fill: none; stroke: #f5deb3; stroke-width: 4; stroke-linecap: square"/>
    <g/>
   </g>
   <g id="line2d_4">
    <path d="M 360.8064 27.648 
L 380.514816 33.07392 
" style="fill: none; stroke: #f5deb3; stroke-width: 4; stroke-linecap: square"/>
    <g>
     <use xlink:href="#mcad1a99fba" x="360.8064" y="27.648" style="fill: #f5deb3; stroke: #f5deb3; stroke-width: 1.5; stroke-linejoin: miter"/>
     <use xlink:href="#mcad1a99fba" x="380.514816" y="33.07392" style="fill: #f5deb3; stroke: #f5deb3; stroke-width: 1.5; stroke-linejoin: miter"/>
    </g>
   </g>
   <g id="matplotlib.axis_1">
    <g id="xtick_1">
     <g id="line2d_5">
      <path d="M 57.6 298.944 
L 57.6 27.648 
" clip-path="url(#pe497330463)" style="fill: none; stroke: #b0b0b0; stroke-width: 0.8; stroke-linecap: square"/>
     </g>
     <g id="line2d_6">
      <defs>
       <path id="m0e1dbfb685" d="M 0 0 
L 0 3.5 
" style="stroke: #000000; stroke-width: 0.8"/>
      </defs>
      <g>
       <use xlink:href="#m0e1dbfb685" x="57.6" y="298.944" style="stroke: #000000; stroke-width: 0.8"/>
      </g>
     </g>
     <g id="text_1">
      <!-- 0 -->
      <g transform="translate(52.191875 318.861344)scale(0.17 -0.17)">
       <defs>
        <path id="DejaVuSans-30" d="M 2034 4250 
Q 1547 4250 1301 3770 
Q 1056 3291 1056 2328 
Q 1056 1369 1301 889 
Q 1547 409 2034 409 
Q 2525 409 2770 889 
Q 3016 1369 3016 2328 
Q 3016 3291 2770 3770 
Q 2525 4250 2034 4250 
z
M 2034 4750 
Q 2819 4750 3233 4129 
Q 3647 3509 3647 2328 
Q 3647 1150 3233 529 
Q 2819 -91 2034 -91 
Q 1250 -91 836 529 
Q 422 1150 422 2328 
Q 422 3509 836 4129 
Q 1250 4750 2034 4750 
z
" transform="scale(0.015625)"/>
       </defs>
       <use xlink:href="#DejaVuSans-30"/>
      </g>
     </g>
    </g>
    <g id="xtick_2">
     <g id="line2d_7">
      <path d="M 144.2304 298.944 
L 144.2304 27.648 
" clip-path="url(#pe497330463)" style="fill: none; stroke: #b0b0b0; stroke-width: 0.8; stroke-linecap: square"/>
     </g>
     <g id="line2d_8">
      <g>
       <use xlink:href="#m0e1dbfb685" x="144.2304" y="298.944" style="stroke: #000000; stroke-width: 0.8"/>
      </g>
     </g>
     <g id="text_2">
      <!-- 2 -->
      <g transform="translate(138.822275 318.861344)scale(0.17 -0.17)">
       <defs>
        <path id="DejaVuSans-32" d="M 1228 531 
L 3431 531 
L 3431 0 
L 469 0 
L 469 531 
Q 828 903 1448 1529 
Q 2069 2156 2228 2338 
Q 2531 2678 2651 2914 
Q 2772 3150 2772 3378 
Q 2772 3750 2511 3984 
Q 2250 4219 1831 4219 
Q 1534 4219 1204 4116 
Q 875 4013 500 3803 
L 500 4441 
Q 881 4594 1212 4672 
Q 1544 4750 1819 4750 
Q 2544 4750 2975 4387 
Q 3406 4025 3406 3419 
Q 3406 3131 3298 2873 
Q 3191 2616 2906 2266 
Q 2828 2175 2409 1742 
Q 1991 1309 1228 531 
z
" transform="scale(0.015625)"/>
       </defs>
       <use xlink:href="#DejaVuSans-32"/>
      </g>
     </g>
    </g>
    <g id="xtick_3">
     <g id="line2d_9">
      <path d="M 230.8608 298.944 
L 230.8608 27.648 
" clip-path="url(#pe497330463)" style="fill: none; stroke: #b0b0b0; stroke-width: 0.8; stroke-linecap: square"/>
     </g>
     <g id="line2d_10">
      <g>
       <use xlink:href="#m0e1dbfb685" x="230.8608" y="298.944" style="stroke: #000000; stroke-width: 0.8"/>
      </g>
     </g>
     <g id="text_3">
      <!-- 4 -->
      <g transform="translate(225.452675 318.861344)scale(0.17 -0.17)">
       <defs>
        <path id="DejaVuSans-34" d="M 2419 4116 
L 825 1625 
L 2419 1625 
L 2419 4116 
z
M 2253 4666 
L 3047 4666 
L 3047 1625 
L 3713 1625 
L 3713 1100 
L 3047 1100 
L 3047 0 
L 2419 0 
L 2419 1100 
L 313 1100 
L 313 1709 
L 2253 4666 
z
" transform="scale(0.015625)"/>
       </defs>
       <use xlink:href="#DejaVuSans-34"/>
      </g>
     </g>
    </g>
    <g id="xtick_4">
     <g id="line2d_11">
      <path d="M 317.4912 298.944 
L 317.4912 27.648 
" clip-path="url(#pe497330463)" style="fill: none; stroke: #b0b0b0; stroke-width: 0.8; stroke-linecap: square"/>
     </g>
     <g id="line2d_12">
      <g>
       <use xlink:href="#m0e1dbfb685" x="317.4912" y="298.944" style="stroke: #000000; stroke-width: 0.8"/>
      </g>
     </g>
     <g id="text_4">
      <!-- 6 -->
      <g transform="translate(312.083075 318.861344)scale(0.17 -0.17)">
       <defs>
        <path id="DejaVuSans-36" d="M 2113 2584 
Q 1688 2584 1439 2293 
Q 1191 2003 1191 1497 
Q 1191 994 1439 701 
Q 1688 409 2113 409 
Q 2538 409 2786 701 
Q 3034 994 3034 1497 
Q 3034 2003 2786 2293 
Q 2538 2584 2113 2584 
z
M 3366 4563 
L 3366 3988 
Q 3128 4100 2886 4159 
Q 2644 4219 2406 4219 
Q 1781 4219 1451 3797 
Q 1122 3375 1075 2522 
Q 1259 2794 1537 2939 
Q 1816 3084 2150 3084 
Q 2853 3084 3261 2657 
Q 3669 2231 3669 1497 
Q 3669 778 3244 343 
Q 2819 -91 2113 -91 
Q 1303 -91 875 529 
Q 447 1150 447 2328 
Q 447 3434 972 4092 
Q 1497 4750 2381 4750 
Q 2619 4750 2861 4703 
Q 3103 4656 3366 4563 
z
" transform="scale(0.015625)"/>
       </defs>
       <use xlink:href="#DejaVuSans-36"/>
      </g>
     </g>
    </g>
    <g id="xtick_5">
     <g id="line2d_13">
      <path d="M 100.9152 298.944 
L 100.9152 27.648 
" clip-path="url(#pe497330463)" style="fill: none; stroke: #b0b0b0; stroke-width: 0.8; stroke-linecap: square"/>
     </g>
     <g id="line2d_14">
      <defs>
       <path id="m705c431d88" d="M 0 0 
L 0 2 
" style="stroke: #000000; stroke-width: 0.6"/>
      </defs>
      <g>
       <use xlink:href="#m705c431d88" x="100.9152" y="298.944" style="stroke: #000000; stroke-width: 0.6"/>
      </g>
     </g>
    </g>
    <g id="xtick_6">
     <g id="line2d_15">
      <path d="M 187.5456 298.944 
L 187.5456 27.648 
" clip-path="url(#pe497330463)" style="fill: none; stroke: #b0b0b0; stroke-width: 0.8; stroke-linecap: square"/>
     </g>
     <g id="line2d_16">
      <g>
       <use xlink:href="#m705c431d88" x="187.5456" y="298.944" style="stroke: #000000; stroke-width: 0.6"/>
      </g>
     </g>
    </g>
    <g id="xtick_7">
     <g id="line2d_17">
      <path d="M 274.176 298.944 
L 274.176 27.648 
" clip-path="url(#pe497330463)" style="fill: none; stroke: #b0b0b0; stroke-width: 0.8; stroke-linecap: square"/>
     </g>
     <g id="line2d_18">
      <g>
       <use xlink:href="#m705c431d88" x="274.176" y="298.944" style="stroke: #000000; stroke-width: 0.6"/>
      </g>
     </g>
    </g>
    <g id="xtick_8">
     <g id="line2d_19">
      <path d="M 360.8064 298.944 
L 360.8064 27.648 
" clip-path="url(#pe497330463)" style="fill: none; stroke: #b0b0b0; stroke-width: 0.8; stroke-linecap: square"/>
     </g>
     <g id="line2d_20">
      <g>
       <use xlink:href="#m705c431d88" x="360.8064" y="298.944" style="stroke: #000000; stroke-width: 0.6"/>
      </g>
     </g>
    </g>
    <g id="text_5">
     <!-- log10(# f-evals / dimension) -->
     <g transform="translate(88.823278 339.314156)scale(0.17 -0.17)">
      <defs>
       <path id="DejaVuSans-6c" d="M 603 4863 
L 1178 4863 
L 1178 0 
L 603 0 
L 603 4863 
z
" transform="scale(0.015625)"/>
       <path id="DejaVuSans-6f" d="M 1959 3097 
Q 1497 3097 1228 2736 
Q 959 2375 959 1747 
Q 959 1119 1226 758 
Q 1494 397 1959 397 
Q 2419 397 2687 759 
Q 2956 1122 2956 1747 
Q 2956 2369 2687 2733 
Q 2419 3097 1959 3097 
z
M 1959 3584 
Q 2709 3584 3137 3096 
Q 3566 2609 3566 1747 
Q 3566 888 3137 398 
Q 2709 -91 1959 -91 
Q 1206 -91 779 398 
Q 353 888 353 1747 
Q 353 2609 779 3096 
Q 1206 3584 1959 3584 
z
" transform="scale(0.015625)"/>
       <path id="DejaVuSans-67" d="M 2906 1791 
Q 2906 2416 2648 2759 
Q 2391 3103 1925 3103 
Q 1463 3103 1205 2759 
Q 947 2416 947 1791 
Q 947 1169 1205 825 
Q 1463 481 1925 481 
Q 2391 481 2648 825 
Q 2906 1169 2906 1791 
z
M 3481 434 
Q 3481 -459 3084 -895 
Q 2688 -1331 1869 -1331 
Q 1566 -1331 1297 -1286 
Q 1028 -1241 775 -1147 
L 775 -588 
Q 1028 -725 1275 -790 
Q 1522 -856 1778 -856 
Q 2344 -856 2625 -561 
Q 2906 -266 2906 331 
L 2906 616 
Q 2728 306 2450 153 
Q 2172 0 1784 0 
Q 1141 0 747 490 
Q 353 981 353 1791 
Q 353 2603 747 3093 
Q 1141 3584 1784 3584 
Q 2172 3584 2450 3431 
Q 2728 3278 2906 2969 
L 2906 3500 
L 3481 3500 
L 3481 434 
z
" transform="scale(0.015625)"/>
       <path id="DejaVuSans-31" d="M 794 531 
L 1825 531 
L 1825 4091 
L 703 3866 
L 703 4441 
L 1819 4666 
L 2450 4666 
L 2450 531 
L 3481 531 
L 3481 0 
L 794 0 
L 794 531 
z
" transform="scale(0.015625)"/>
       <path id="DejaVuSans-28" d="M 1984 4856 
Q 1566 4138 1362 3434 
Q 1159 2731 1159 2009 
Q 1159 1288 1364 580 
Q 1569 -128 1984 -844 
L 1484 -844 
Q 1016 -109 783 600 
Q 550 1309 550 2009 
Q 550 2706 781 3412 
Q 1013 4119 1484 4856 
L 1984 4856 
z
" transform="scale(0.015625)"/>
       <path id="DejaVuSans-23" d="M 3272 2816 
L 2363 2816 
L 2100 1772 
L 3016 1772 
L 3272 2816 
z
M 2803 4594 
L 2478 3297 
L 3391 3297 
L 3719 4594 
L 4219 4594 
L 3897 3297 
L 4872 3297 
L 4872 2816 
L 3775 2816 
L 3519 1772 
L 4513 1772 
L 4513 1294 
L 3397 1294 
L 3072 0 
L 2572 0 
L 2894 1294 
L 1978 1294 
L 1656 0 
L 1153 0 
L 1478 1294 
L 494 1294 
L 494 1772 
L 1594 1772 
L 1856 2816 
L 850 2816 
L 850 3297 
L 1978 3297 
L 2297 4594 
L 2803 4594 
z
" transform="scale(0.015625)"/>
       <path id="DejaVuSans-20" transform="scale(0.015625)"/>
       <path id="DejaVuSans-66" d="M 2375 4863 
L 2375 4384 
L 1825 4384 
Q 1516 4384 1395 4259 
Q 1275 4134 1275 3809 
L 1275 3500 
L 2222 3500 
L 2222 3053 
L 1275 3053 
L 1275 0 
L 697 0 
L 697 3053 
L 147 3053 
L 147 3500 
L 697 3500 
L 697 3744 
Q 697 4328 969 4595 
Q 1241 4863 1831 4863 
L 2375 4863 
z
" transform="scale(0.015625)"/>
       <path id="DejaVuSans-2d" d="M 313 2009 
L 1997 2009 
L 1997 1497 
L 313 1497 
L 313 2009 
z
" transform="scale(0.015625)"/>
       <path id="DejaVuSans-65" d="M 3597 1894 
L 3597 1613 
L 953 1613 
Q 991 1019 1311 708 
Q 1631 397 2203 397 
Q 2534 397 2845 478 
Q 3156 559 3463 722 
L 3463 178 
Q 3153 47 2828 -22 
Q 2503 -91 2169 -91 
Q 1331 -91 842 396 
Q 353 884 353 1716 
Q 353 2575 817 3079 
Q 1281 3584 2069 3584 
Q 2775 3584 3186 3129 
Q 3597 2675 3597 1894 
z
M 3022 2063 
Q 3016 2534 2758 2815 
Q 2500 3097 2075 3097 
Q 1594 3097 1305 2825 
Q 1016 2553 972 2059 
L 3022 2063 
z
" transform="scale(0.015625)"/>
       <path id="DejaVuSans-76" d="M 191 3500 
L 800 3500 
L 1894 563 
L 2988 3500 
L 3597 3500 
L 2284 0 
L 1503 0 
L 191 3500 
z
" transform="scale(0.015625)"/>
       <path id="DejaVuSans-61" d="M 2194 1759 
Q 1497 1759 1228 1600 
Q 959 1441 959 1056 
Q 959 750 1161 570 
Q 1363 391 1709 391 
Q 2188 391 2477 730 
Q 2766 1069 2766 1631 
L 2766 1759 
L 2194 1759 
z
M 3341 1997 
L 3341 0 
L 2766 0 
L 2766 531 
Q 2569 213 2275 61 
Q 1981 -91 1556 -91 
Q 1019 -91 701 211 
Q 384 513 384 1019 
Q 384 1609 779 1909 
Q 1175 2209 1959 2209 
L 2766 2209 
L 2766 2266 
Q 2766 2663 2505 2880 
Q 2244 3097 1772 3097 
Q 1472 3097 1187 3025 
Q 903 2953 641 2809 
L 641 3341 
Q 956 3463 1253 3523 
Q 1550 3584 1831 3584 
Q 2591 3584 2966 3190 
Q 3341 2797 3341 1997 
z
" transform="scale(0.015625)"/>
       <path id="DejaVuSans-73" d="M 2834 3397 
L 2834 2853 
Q 2591 2978 2328 3040 
Q 2066 3103 1784 3103 
Q 1356 3103 1142 2972 
Q 928 2841 928 2578 
Q 928 2378 1081 2264 
Q 1234 2150 1697 2047 
L 1894 2003 
Q 2506 1872 2764 1633 
Q 3022 1394 3022 966 
Q 3022 478 2636 193 
Q 2250 -91 1575 -91 
Q 1294 -91 989 -36 
Q 684 19 347 128 
L 347 722 
Q 666 556 975 473 
Q 1284 391 1588 391 
Q 1994 391 2212 530 
Q 2431 669 2431 922 
Q 2431 1156 2273 1281 
Q 2116 1406 1581 1522 
L 1381 1569 
Q 847 1681 609 1914 
Q 372 2147 372 2553 
Q 372 3047 722 3315 
Q 1072 3584 1716 3584 
Q 2034 3584 2315 3537 
Q 2597 3491 2834 3397 
z
" transform="scale(0.015625)"/>
       <path id="DejaVuSans-2f" d="M 1625 4666 
L 2156 4666 
L 531 -594 
L 0 -594 
L 1625 4666 
z
" transform="scale(0.015625)"/>
       <path id="DejaVuSans-64" d="M 2906 2969 
L 2906 4863 
L 3481 4863 
L 3481 0 
L 2906 0 
L 2906 525 
Q 2725 213 2448 61 
Q 2172 -91 1784 -91 
Q 1150 -91 751 415 
Q 353 922 353 1747 
Q 353 2572 751 3078 
Q 1150 3584 1784 3584 
Q 2172 3584 2448 3432 
Q 2725 3281 2906 2969 
z
M 947 1747 
Q 947 1113 1208 752 
Q 1469 391 1925 391 
Q 2381 391 2643 752 
Q 2906 1113 2906 1747 
Q 2906 2381 2643 2742 
Q 2381 3103 1925 3103 
Q 1469 3103 1208 2742 
Q 947 2381 947 1747 
z
" transform="scale(0.015625)"/>
       <path id="DejaVuSans-69" d="M 603 3500 
L 1178 3500 
L 1178 0 
L 603 0 
L 603 3500 
z
M 603 4863 
L 1178 4863 
L 1178 4134 
L 603 4134 
L 603 4863 
z
" transform="scale(0.015625)"/>
       <path id="DejaVuSans-6d" d="M 3328 2828 
Q 3544 3216 3844 3400 
Q 4144 3584 4550 3584 
Q 5097 3584 5394 3201 
Q 5691 2819 5691 2113 
L 5691 0 
L 5113 0 
L 5113 2094 
Q 5113 2597 4934 2840 
Q 4756 3084 4391 3084 
Q 3944 3084 3684 2787 
Q 3425 2491 3425 1978 
L 3425 0 
L 2847 0 
L 2847 2094 
Q 2847 2600 2669 2842 
Q 2491 3084 2119 3084 
Q 1678 3084 1418 2786 
Q 1159 2488 1159 1978 
L 1159 0 
L 581 0 
L 581 3500 
L 1159 3500 
L 1159 2956 
Q 1356 3278 1631 3431 
Q 1906 3584 2284 3584 
Q 2666 3584 2933 3390 
Q 3200 3197 3328 2828 
z
" transform="scale(0.015625)"/>
       <path id="DejaVuSans-6e" d="M 3513 2113 
L 3513 0 
L 2938 0 
L 2938 2094 
Q 2938 2591 2744 2837 
Q 2550 3084 2163 3084 
Q 1697 3084 1428 2787 
Q 1159 2491 1159 1978 
L 1159 0 
L 581 0 
L 581 3500 
L 1159 3500 
L 1159 2956 
Q 1366 3272 1645 3428 
Q 1925 3584 2291 3584 
Q 2894 3584 3203 3211 
Q 3513 2838 3513 2113 
z
" transform="scale(0.015625)"/>
       <path id="DejaVuSans-29" d="M 513 4856 
L 1013 4856 
Q 1481 4119 1714 3412 
Q 1947 2706 1947 2009 
Q 1947 1309 1714 600 
Q 1481 -109 1013 -844 
L 513 -844 
Q 928 -128 1133 580 
Q 1338 1288 1338 2009 
Q 1338 2731 1133 3434 
Q 928 4138 513 4856 
z
" transform="scale(0.015625)"/>
      </defs>
      <use xlink:href="#DejaVuSans-6c"/>
      <use xlink:href="#DejaVuSans-6f" x="27.783203"/>
      <use xlink:href="#DejaVuSans-67" x="88.964844"/>
      <use xlink:href="#DejaVuSans-31" x="152.441406"/>
      <use xlink:href="#DejaVuSans-30" x="216.064453"/>
      <use xlink:href="#DejaVuSans-28" x="279.6875"/>
      <use xlink:href="#DejaVuSans-23" x="318.701172"/>
      <use xlink:href="#DejaVuSans-20" x="402.490234"/>
      <use xlink:href="#DejaVuSans-66" x="434.277344"/>
      <use xlink:href="#DejaVuSans-2d" x="463.982422"/>
      <use xlink:href="#DejaVuSans-65" x="500.066406"/>
      <use xlink:href="#DejaVuSans-76" x="561.589844"/>
      <use xlink:href="#DejaVuSans-61" x="620.769531"/>
      <use xlink:href="#DejaVuSans-6c" x="682.048828"/>
      <use xlink:href="#DejaVuSans-73" x="709.832031"/>
      <use xlink:href="#DejaVuSans-20" x="761.931641"/>
      <use xlink:href="#DejaVuSans-2f" x="793.71875"/>
      <use xlink:href="#DejaVuSans-20" x="827.410156"/>
      <use xlink:href="#DejaVuSans-64" x="859.197266"/>
      <use xlink:href="#DejaVuSans-69" x="922.673828"/>
      <use xlink:href="#DejaVuSans-6d" x="950.457031"/>
      <use xlink:href="#DejaVuSans-65" x="1047.869141"/>
      <use xlink:href="#DejaVuSans-6e" x="1109.392578"/>
      <use xlink:href="#DejaVuSans-73" x="1172.771484"/>
      <use xlink:href="#DejaVuSans-69" x="1224.871094"/>
      <use xlink:href="#DejaVuSans-6f" x="1252.654297"/>
      <use xlink:href="#DejaVuSans-6e" x="1313.835938"/>
      <use xlink:href="#DejaVuSans-29" x="1377.214844"/>
     </g>
    </g>
   </g>
   <g id="matplotlib.axis_2">
    <g id="ytick_1">
     <g id="line2d_21">
      <path d="M 57.6 298.944 
L 360.8064 298.944 
" clip-path="url(#pe497330463)" style="fill: none; stroke: #b0b0b0; stroke-width: 0.8; stroke-linecap: square"/>
     </g>
     <g id="line2d_22">
      <defs>
       <path id="m4872bf42f2" d="M 0 0 
L -3.5 0 
" style="stroke: #000000; stroke-width: 0.8"/>
      </defs>
      <g>
       <use xlink:href="#m4872bf42f2" x="57.6" y="298.944" style="stroke: #000000; stroke-width: 0.8"/>
      </g>
     </g>
     <g id="text_6">
      <!-- 0.0 -->
      <g transform="translate(25.155 305.02275)scale(0.16 -0.16)">
       <defs>
        <path id="DejaVuSans-2e" d="M 684 794 
L 1344 794 
L 1344 0 
L 684 0 
L 684 794 
z
" transform="scale(0.015625)"/>
       </defs>
       <use xlink:href="#DejaVuSans-30"/>
       <use xlink:href="#DejaVuSans-2e" x="63.623047"/>
       <use xlink:href="#DejaVuSans-30" x="95.410156"/>
      </g>
     </g>
    </g>
    <g id="ytick_2">
     <g id="line2d_23">
      <path d="M 57.6 244.6848 
L 360.8064 244.6848 
" clip-path="url(#pe497330463)" style="fill: none; stroke: #b0b0b0; stroke-width: 0.8; stroke-linecap: square"/>
     </g>
     <g id="line2d_24">
      <g>
       <use xlink:href="#m4872bf42f2" x="57.6" y="244.6848" style="stroke: #000000; stroke-width: 0.8"/>
      </g>
     </g>
     <g id="text_7">
      <!-- 0.2 -->
      <g transform="translate(25.155 250.76355)scale(0.16 -0.16)">
       <use xlink:href="#DejaVuSans-30"/>
       <use xlink:href="#DejaVuSans-2e" x="63.623047"/>
       <use xlink:href="#DejaVuSans-32" x="95.410156"/>
      </g>
     </g>
    </g>
    <g id="ytick_3">
     <g id="line2d_25">
      <path d="M 57.6 190.4256 
L 360.8064 190.4256 
" clip-path="url(#pe497330463)" style="fill: none; stroke: #b0b0b0; stroke-width: 0.8; stroke-linecap: square"/>
     </g>
     <g id="line2d_26">
      <g>
       <use xlink:href="#m4872bf42f2" x="57.6" y="190.4256" style="stroke: #000000; stroke-width: 0.8"/>
      </g>
     </g>
     <g id="text_8">
      <!-- 0.4 -->
      <g transform="translate(25.155 196.50435)scale(0.16 -0.16)">
       <use xlink:href="#DejaVuSans-30"/>
       <use xlink:href="#DejaVuSans-2e" x="63.623047"/>
       <use xlink:href="#DejaVuSans-34" x="95.410156"/>
      </g>
     </g>
    </g>
    <g id="ytick_4">
     <g id="line2d_27">
      <path d="M 57.6 136.1664 
L 360.8064 136.1664 
" clip-path="url(#pe497330463)" style="fill: none; stroke: #b0b0b0; stroke-width: 0.8; stroke-linecap: square"/>
     </g>
     <g id="line2d_28">
      <g>
       <use xlink:href="#m4872bf42f2" x="57.6" y="136.1664" style="stroke: #000000; stroke-width: 0.8"/>
      </g>
     </g>
     <g id="text_9">
      <!-- 0.6 -->
      <g transform="translate(25.155 142.24515)scale(0.16 -0.16)">
       <use xlink:href="#DejaVuSans-30"/>
       <use xlink:href="#DejaVuSans-2e" x="63.623047"/>
       <use xlink:href="#DejaVuSans-36" x="95.410156"/>
      </g>
     </g>
    </g>
    <g id="ytick_5">
     <g id="line2d_29">
      <path d="M 57.6 81.9072 
L 360.8064 81.9072 
" clip-path="url(#pe497330463)" style="fill: none; stroke: #b0b0b0; stroke-width: 0.8; stroke-linecap: square"/>
     </g>
     <g id="line2d_30">
      <g>
       <use xlink:href="#m4872bf42f2" x="57.6" y="81.9072" style="stroke: #000000; stroke-width: 0.8"/>
      </g>
     </g>
     <g id="text_10">
      <!-- 0.8 -->
      <g transform="translate(25.155 87.98595)scale(0.16 -0.16)">
       <defs>
        <path id="DejaVuSans-38" d="M 2034 2216 
Q 1584 2216 1326 1975 
Q 1069 1734 1069 1313 
Q 1069 891 1326 650 
Q 1584 409 2034 409 
Q 2484 409 2743 651 
Q 3003 894 3003 1313 
Q 3003 1734 2745 1975 
Q 2488 2216 2034 2216 
z
M 1403 2484 
Q 997 2584 770 2862 
Q 544 3141 544 3541 
Q 544 4100 942 4425 
Q 1341 4750 2034 4750 
Q 2731 4750 3128 4425 
Q 3525 4100 3525 3541 
Q 3525 3141 3298 2862 
Q 3072 2584 2669 2484 
Q 3125 2378 3379 2068 
Q 3634 1759 3634 1313 
Q 3634 634 3220 271 
Q 2806 -91 2034 -91 
Q 1263 -91 848 271 
Q 434 634 434 1313 
Q 434 1759 690 2068 
Q 947 2378 1403 2484 
z
M 1172 3481 
Q 1172 3119 1398 2916 
Q 1625 2713 2034 2713 
Q 2441 2713 2670 2916 
Q 2900 3119 2900 3481 
Q 2900 3844 2670 4047 
Q 2441 4250 2034 4250 
Q 1625 4250 1398 4047 
Q 1172 3844 1172 3481 
z
" transform="scale(0.015625)"/>
       </defs>
       <use xlink:href="#DejaVuSans-30"/>
       <use xlink:href="#DejaVuSans-2e" x="63.623047"/>
       <use xlink:href="#DejaVuSans-38" x="95.410156"/>
      </g>
     </g>
    </g>
    <g id="ytick_6">
     <g id="line2d_31">
      <path d="M 57.6 27.648 
L 360.8064 27.648 
" clip-path="url(#pe497330463)" style="fill: none; stroke: #b0b0b0; stroke-width: 0.8; stroke-linecap: square"/>
     </g>
     <g id="line2d_32">
      <g>
       <use xlink:href="#m4872bf42f2" x="57.6" y="27.648" style="stroke: #000000; stroke-width: 0.8"/>
      </g>
     </g>
     <g id="text_11">
      <!-- 1.0 -->
      <g transform="translate(25.155 33.72675)scale(0.16 -0.16)">
       <use xlink:href="#DejaVuSans-31"/>
       <use xlink:href="#DejaVuSans-2e" x="63.623047"/>
       <use xlink:href="#DejaVuSans-30" x="95.410156"/>
      </g>
     </g>
    </g>
    <g id="text_12">
     <!-- Fraction of function,target pairs -->
     <g transform="translate(17.619531 297.681)rotate(-90)scale(0.17 -0.17)">
      <defs>
       <path id="DejaVuSans-46" d="M 628 4666 
L 3309 4666 
L 3309 4134 
L 1259 4134 
L 1259 2759 
L 3109 2759 
L 3109 2228 
L 1259 2228 
L 1259 0 
L 628 0 
L 628 4666 
z
" transform="scale(0.015625)"/>
       <path id="DejaVuSans-72" d="M 2631 2963 
Q 2534 3019 2420 3045 
Q 2306 3072 2169 3072 
Q 1681 3072 1420 2755 
Q 1159 2438 1159 1844 
L 1159 0 
L 581 0 
L 581 3500 
L 1159 3500 
L 1159 2956 
Q 1341 3275 1631 3429 
Q 1922 3584 2338 3584 
Q 2397 3584 2469 3576 
Q 2541 3569 2628 3553 
L 2631 2963 
z
" transform="scale(0.015625)"/>
       <path id="DejaVuSans-63" d="M 3122 3366 
L 3122 2828 
Q 2878 2963 2633 3030 
Q 2388 3097 2138 3097 
Q 1578 3097 1268 2742 
Q 959 2388 959 1747 
Q 959 1106 1268 751 
Q 1578 397 2138 397 
Q 2388 397 2633 464 
Q 2878 531 3122 666 
L 3122 134 
Q 2881 22 2623 -34 
Q 2366 -91 2075 -91 
Q 1284 -91 818 406 
Q 353 903 353 1747 
Q 353 2603 823 3093 
Q 1294 3584 2113 3584 
Q 2378 3584 2631 3529 
Q 2884 3475 3122 3366 
z
" transform="scale(0.015625)"/>
       <path id="DejaVuSans-74" d="M 1172 4494 
L 1172 3500 
L 2356 3500 
L 2356 3053 
L 1172 3053 
L 1172 1153 
Q 1172 725 1289 603 
Q 1406 481 1766 481 
L 2356 481 
L 2356 0 
L 1766 0 
Q 1100 0 847 248 
Q 594 497 594 1153 
L 594 3053 
L 172 3053 
L 172 3500 
L 594 3500 
L 594 4494 
L 1172 4494 
z
" transform="scale(0.015625)"/>
       <path id="DejaVuSans-75" d="M 544 1381 
L 544 3500 
L 1119 3500 
L 1119 1403 
Q 1119 906 1312 657 
Q 1506 409 1894 409 
Q 2359 409 2629 706 
Q 2900 1003 2900 1516 
L 2900 3500 
L 3475 3500 
L 3475 0 
L 2900 0 
L 2900 538 
Q 2691 219 2414 64 
Q 2138 -91 1772 -91 
Q 1169 -91 856 284 
Q 544 659 544 1381 
z
M 1991 3584 
L 1991 3584 
z
" transform="scale(0.015625)"/>
       <path id="DejaVuSans-2c" d="M 750 794 
L 1409 794 
L 1409 256 
L 897 -744 
L 494 -744 
L 750 256 
L 750 794 
z
" transform="scale(0.015625)"/>
       <path id="DejaVuSans-70" d="M 1159 525 
L 1159 -1331 
L 581 -1331 
L 581 3500 
L 1159 3500 
L 1159 2969 
Q 1341 3281 1617 3432 
Q 1894 3584 2278 3584 
Q 2916 3584 3314 3078 
Q 3713 2572 3713 1747 
Q 3713 922 3314 415 
Q 2916 -91 2278 -91 
Q 1894 -91 1617 61 
Q 1341 213 1159 525 
z
M 3116 1747 
Q 3116 2381 2855 2742 
Q 2594 3103 2138 3103 
Q 1681 3103 1420 2742 
Q 1159 2381 1159 1747 
Q 1159 1113 1420 752 
Q 1681 391 2138 391 
Q 2594 391 2855 752 
Q 3116 1113 3116 1747 
z
" transform="scale(0.015625)"/>
      </defs>
      <use xlink:href="#DejaVuSans-46"/>
      <use xlink:href="#DejaVuSans-72" x="50.269531"/>
      <use xlink:href="#DejaVuSans-61" x="91.382812"/>
      <use xlink:href="#DejaVuSans-63" x="152.662109"/>
      <use xlink:href="#DejaVuSans-74" x="207.642578"/>
      <use xlink:href="#DejaVuSans-69" x="246.851562"/>
      <use xlink:href="#DejaVuSans-6f" x="274.634766"/>
      <use xlink:href="#DejaVuSans-6e" x="335.816406"/>
      <use xlink:href="#DejaVuSans-20" x="399.195312"/>
      <use xlink:href="#DejaVuSans-6f" x="430.982422"/>
      <use xlink:href="#DejaVuSans-66" x="492.164062"/>
      <use xlink:href="#DejaVuSans-20" x="527.369141"/>
      <use xlink:href="#DejaVuSans-66" x="559.15625"/>
      <use xlink:href="#DejaVuSans-75" x="594.361328"/>
      <use xlink:href="#DejaVuSans-6e" x="657.740234"/>
      <use xlink:href="#DejaVuSans-63" x="721.119141"/>
      <use xlink:href="#DejaVuSans-74" x="776.099609"/>
      <use xlink:href="#DejaVuSans-69" x="815.308594"/>
      <use xlink:href="#DejaVuSans-6f" x="843.091797"/>
      <use xlink:href="#DejaVuSans-6e" x="904.273438"/>
      <use xlink:href="#DejaVuSans-2c" x="967.652344"/>
      <use xlink:href="#DejaVuSans-74" x="999.439453"/>
      <use xlink:href="#DejaVuSans-61" x="1038.648438"/>
      <use xlink:href="#DejaVuSans-72" x="1099.927734"/>
      <use xlink:href="#DejaVuSans-67" x="1139.291016"/>
      <use xlink:href="#DejaVuSans-65" x="1202.767578"/>
      <use xlink:href="#DejaVuSans-74" x="1264.291016"/>
      <use xlink:href="#DejaVuSans-20" x="1303.5"/>
      <use xlink:href="#DejaVuSans-70" x="1335.287109"/>
      <use xlink:href="#DejaVuSans-61" x="1398.763672"/>
      <use xlink:href="#DejaVuSans-69" x="1460.042969"/>
      <use xlink:href="#DejaVuSans-72" x="1487.826172"/>
      <use xlink:href="#DejaVuSans-73" x="1528.939453"/>
     </g>
    </g>
   </g>
   <g id="line2d_33">
    <defs>
     <path id="m6d1be2762e" d="M 0 1.5 
C 0.397805 1.5 0.77937 1.341951 1.06066 1.06066 
C 1.341951 0.77937 1.5 0.397805 1.5 0 
C 1.5 -0.397805 1.341951 -0.77937 1.06066 -1.06066 
C 0.77937 -1.341951 0.397805 -1.5 0 -1.5 
C -0.397805 -1.5 -0.77937 -1.341951 -1.06066 -1.06066 
C -1.341951 -0.77937 -1.5 -0.397805 -1.5 0 
C -1.5 0.397805 -1.341951 0.77937 -1.06066 1.06066 
C -0.77937 1.341951 -0.397805 1.5 0 1.5 
z
" style="stroke: #f5deb3"/>
    </defs>
    <g>
     <use xlink:href="#m6d1be2762e" x="71.999638" y="27.648" style="fill: #f5deb3; stroke: #f5deb3"/>
     <use xlink:href="#m6d1be2762e" x="71.999638" y="27.648" style="fill: #f5deb3; stroke: #f5deb3"/>
    </g>
   </g>
   <g id="line2d_34">
    <defs>
     <path id="mc734b5a13b" d="M 0 1.5 
C 0.397805 1.5 0.77937 1.341951 1.06066 1.06066 
C 1.341951 0.77937 1.5 0.397805 1.5 0 
C 1.5 -0.397805 1.341951 -0.77937 1.06066 -1.06066 
C 0.77937 -1.341951 0.397805 -1.5 0 -1.5 
C -0.397805 -1.5 -0.77937 -1.341951 -1.06066 -1.06066 
C -1.341951 -0.77937 -1.5 -0.397805 -1.5 0 
C -1.5 0.397805 -1.341951 0.77937 -1.06066 1.06066 
C -0.77937 1.341951 -0.397805 1.5 0 1.5 
z
" style="stroke: #000080"/>
    </defs>
    <g>
     <use xlink:href="#mc734b5a13b" x="149.903682" y="27.648" style="fill: #000080; stroke: #000080"/>
     <use xlink:href="#mc734b5a13b" x="149.903682" y="27.648" style="fill: #000080; stroke: #000080"/>
    </g>
   </g>
   <g id="line2d_35">
    <path d="M 1.245626 298.944 
L 1.245626 296.816188 
L 52.188254 296.816188 
L 52.188254 295.752282 
L 68.127242 295.752282 
L 68.127242 294.688376 
L 73.672879 294.688376 
L 73.672879 293.624471 
L 75.209369 293.624471 
L 75.209369 291.496659 
L 78.577544 291.496659 
L 78.577544 290.432753 
L 79.480672 290.432753 
L 79.480672 289.368847 
L 81.433251 289.368847 
L 81.433251 288.304941 
L 85.471281 288.304941 
L 85.471281 287.241035 
L 86.510858 287.241035 
L 86.510858 286.177129 
L 94.07074 286.177129 
L 94.07074 285.113224 
L 95.250946 285.113224 
L 95.250946 284.049318 
L 96.241256 284.049318 
L 96.241256 282.985412 
L 97.066974 282.985412 
L 97.066974 281.921506 
L 97.968299 281.921506 
L 97.968299 280.8576 
L 98.510456 280.8576 
L 98.510456 279.793694 
L 99.244147 279.793694 
L 99.244147 278.729788 
L 101.653002 278.729788 
L 101.653002 277.665882 
L 102.793446 277.665882 
L 102.793446 276.601976 
L 103.047088 276.601976 
L 103.047088 275.538071 
L 103.625951 275.538071 
L 103.625951 274.474165 
L 104.028784 274.474165 
L 104.028784 273.410259 
L 106.066493 273.410259 
L 106.066493 272.346353 
L 106.974091 272.346353 
L 106.974091 269.154635 
L 107.31183 269.154635 
L 107.378656 267.026824 
L 107.904887 267.026824 
L 107.904887 265.962918 
L 108.09849 265.962918 
L 108.09849 264.899012 
L 110.278469 264.899012 
L 110.278469 263.835106 
L 110.392479 263.835106 
L 110.392479 262.7712 
L 110.841731 262.7712 
L 110.841731 259.579482 
L 111.97238 259.579482 
L 111.97238 258.515576 
L 112.53857 258.515576 
L 112.53857 257.451671 
L 112.840366 257.451671 
L 112.840366 256.387765 
L 114.556025 256.387765 
L 114.556025 255.323859 
L 114.872193 255.323859 
L 114.961559 252.132141 
L 116.253478 252.132141 
L 116.253478 251.068235 
L 116.705799 251.068235 
L 116.705799 250.004329 
L 116.948011 250.004329 
L 116.988079 246.812612 
L 118.487648 246.812612 
L 118.487648 245.748706 
L 118.671535 245.748706 
L 118.671535 244.6848 
L 119.177058 244.6848 
L 119.177058 243.620894 
L 119.319033 243.620894 
L 119.319033 242.556988 
L 119.669351 242.556988 
L 119.669351 241.493082 
L 120.317502 241.493082 
L 120.317502 240.429176 
L 120.583864 240.429176 
L 120.583864 239.365271 
L 120.813877 239.365271 
L 120.879082 236.173553 
L 121.201758 236.173553 
L 121.297492 234.045741 
L 121.39274 234.045741 
L 121.39274 232.981835 
L 122.076872 232.981835 
L 122.076872 231.917929 
L 122.588988 231.917929 
L 122.588988 230.854024 
L 122.707486 230.854024 
L 122.707486 229.790118 
L 122.825242 229.790118 
L 122.825242 228.726212 
L 123.51671 228.726212 
L 123.601383 226.5984 
L 123.769595 226.5984 
L 123.769595 225.534494 
L 124.07413 225.534494 
L 124.07413 224.470588 
L 124.238185 224.470588 
L 124.238185 223.406682 
L 124.427792 223.406682 
L 124.454723 221.278871 
L 124.588805 221.278871 
L 124.588805 220.214965 
L 125.501533 220.214965 
L 125.577745 218.087153 
L 126.003874 218.087153 
L 126.003874 217.023247 
L 126.347698 217.023247 
L 126.396307 213.831529 
L 126.733095 213.831529 
L 126.733095 212.767624 
L 126.922873 212.767624 
L 126.922873 211.703718 
L 127.040519 211.703718 
L 127.040519 209.575906 
L 127.4351 209.575906 
L 127.4351 208.512 
L 127.708728 208.512 
L 127.708728 207.448094 
L 128.15611 207.448094 
L 128.222309 205.320282 
L 128.39771 205.320282 
L 128.39771 204.256376 
L 128.743679 204.256376 
L 128.743679 203.192471 
L 128.935527 203.192471 
L 128.935527 202.128565 
L 129.520173 202.128565 
L 129.54072 198.936847 
L 129.663538 198.936847 
L 129.724648 196.809035 
L 130.00723 196.809035 
L 130.00723 194.681224 
L 130.127049 194.681224 
L 130.127049 193.617318 
L 130.521023 193.617318 
L 130.521023 192.553412 
L 130.695654 192.553412 
L 130.695654 191.489506 
L 130.830367 191.489506 
L 130.830367 190.4256 
L 131.692402 190.4256 
L 131.692402 189.361694 
L 131.910931 189.361694 
L 132.019251 186.169976 
L 132.037244 186.169976 
L 132.037244 185.106071 
L 132.180571 185.106071 
L 132.234038 182.978259 
L 132.305093 182.978259 
L 132.305093 181.914353 
L 132.691164 181.914353 
L 132.691164 180.850447 
L 132.932784 180.850447 
L 133.01833 176.594824 
L 133.188264 176.594824 
L 133.188264 175.530918 
L 133.689044 175.530918 
L 133.689044 174.467012 
L 133.967012 174.467012 
L 133.967012 173.403106 
L 134.272898 173.403106 
L 134.272898 172.3392 
L 134.620977 172.3392 
L 134.730392 169.147482 
L 134.792631 169.147482 
L 134.792631 168.083576 
L 135.070183 168.083576 
L 135.070183 167.019671 
L 135.237805 167.019671 
L 135.298389 164.891859 
L 135.35878 164.891859 
L 135.388902 161.700141 
L 135.52386 161.700141 
L 135.52386 160.636235 
L 135.657857 160.636235 
L 135.76142 158.508424 
L 136.184497 158.508424 
L 136.184497 157.444518 
L 136.413909 157.444518 
L 136.413909 156.380612 
L 136.541735 156.380612 
L 136.584151 153.188894 
L 136.696795 153.188894 
L 136.724851 151.061082 
L 137.01694 151.061082 
L 137.01694 149.997176 
L 137.38594 149.997176 
L 137.480437 146.805459 
L 137.601239 146.805459 
L 137.601239 145.741553 
L 137.734561 145.741553 
L 137.734561 144.677647 
L 138.063788 144.677647 
L 138.063788 143.613741 
L 138.271509 143.613741 
L 138.374515 141.485929 
L 138.476961 141.485929 
L 138.476961 140.422024 
L 138.59155 140.422024 
L 138.692823 137.230306 
L 138.768422 137.230306 
L 138.868751 135.102494 
L 139.104908 135.102494 
L 139.203463 132.974682 
L 139.228021 132.974682 
L 139.264798 130.846871 
L 139.411192 130.846871 
L 139.411192 129.782965 
L 139.640678 129.782965 
L 139.640678 128.719059 
L 140.044477 128.719059 
L 140.114844 126.591247 
L 140.243172 126.591247 
L 140.28962 124.463435 
L 140.405242 124.463435 
L 140.508697 122.335624 
L 140.543056 122.335624 
L 140.543056 121.271718 
L 140.793122 121.271718 
L 140.793122 120.207812 
L 140.939341 120.207812 
L 141.017607 118.08 
L 141.151022 118.08 
L 141.151022 117.016094 
L 141.327451 117.016094 
L 141.436884 114.888282 
L 141.64307 114.888282 
L 141.67542 112.760471 
L 141.772138 112.760471 
L 141.857694 109.568753 
L 141.985302 109.568753 
L 142.01707 107.440941 
L 142.101521 107.440941 
L 142.101521 106.377035 
L 142.227492 106.377035 
L 142.290162 104.249224 
L 142.549065 104.249224 
L 142.549065 103.185318 
L 142.672083 103.185318 
L 142.672083 102.121412 
L 142.956037 102.121412 
L 143.006295 98.929694 
L 143.116392 98.929694 
L 143.19606 95.737976 
L 143.364242 95.737976 
L 143.364242 94.674071 
L 143.550448 94.674071 
L 143.647716 91.482353 
L 143.744483 91.482353 
L 143.83115 89.354541 
L 143.946089 89.354541 
L 144.003296 86.162824 
L 144.06033 86.162824 
L 144.155003 84.035012 
L 144.324223 84.035012 
L 144.398947 80.843294 
L 144.482657 80.843294 
L 144.575234 78.715482 
L 144.841158 78.715482 
L 144.841158 76.587671 
L 145.049423 76.587671 
L 145.076419 73.395953 
L 145.273213 73.395953 
L 145.273213 72.332047 
L 145.494372 72.332047 
L 145.573357 67.012518 
L 145.765046 67.012518 
L 145.83427 63.8208 
L 146.074567 63.8208 
L 146.185098 61.692988 
L 146.27812 61.692988 
L 146.387466 56.373459 
L 146.395851 56.373459 
L 146.487839 52.117835 
L 146.670477 52.117835 
L 146.670477 51.053929 
L 146.859539 51.053929 
L 146.892226 48.926118 
L 147.119461 48.926118 
L 147.135588 45.7344 
L 147.272107 45.7344 
L 147.272107 44.670494 
L 147.439393 44.670494 
L 147.471089 42.542682 
L 147.581606 42.542682 
L 147.613064 40.414871 
L 147.824037 40.414871 
L 147.847333 38.287059 
L 148.03267 38.287059 
L 148.03267 37.223153 
L 148.178111 37.223153 
L 148.276979 32.967529 
L 148.345123 32.967529 
L 148.345123 31.903624 
L 148.57797 31.903624 
L 148.57797 30.839718 
L 149.274095 30.839718 
L 149.274095 29.775812 
L 149.693807 29.775812 
L 149.693807 28.711906 
L 149.903682 28.711906 
L 149.903682 27.648 
L 360.8064 27.648 
L 360.8064 27.648 
" style="fill: none; stroke: #000080; stroke-width: 1.5; stroke-linecap: square"/>
   </g>
   <g id="line2d_36">
    <defs>
     <path id="mf0e78e424d" d="M 0 6 
C 1.591219 6 3.117479 5.367802 4.242641 4.242641 
C 5.367802 3.117479 6 1.591219 6 0 
C 6 -1.591219 5.367802 -3.117479 4.242641 -4.242641 
C 3.117479 -5.367802 1.591219 -6 0 -6 
C -1.591219 -6 -3.117479 -5.367802 -4.242641 -4.242641 
C -5.367802 -3.117479 -6 -1.591219 -6 0 
C -6 1.591219 -5.367802 3.117479 -4.242641 4.242641 
C -3.117479 5.367802 -1.591219 6 0 6 
z
" style="stroke: #000080; stroke-width: 1.5"/>
    </defs>
    <g>
     <use xlink:href="#mf0e78e424d" x="94.07074" y="286.177129" style="fill-opacity: 0; stroke: #000080; stroke-width: 1.5"/>
     <use xlink:href="#mf0e78e424d" x="127.4351" y="208.512" style="fill-opacity: 0; stroke: #000080; stroke-width: 1.5"/>
     <use xlink:href="#mf0e78e424d" x="149.903682" y="28.711906" style="fill-opacity: 0; stroke: #000080; stroke-width: 1.5"/>
     <use xlink:href="#mf0e78e424d" x="149.903682" y="27.648" style="fill-opacity: 0; stroke: #000080; stroke-width: 1.5"/>
     <use xlink:href="#mf0e78e424d" x="149.903682" y="27.648" style="fill-opacity: 0; stroke: #000080; stroke-width: 1.5"/>
     <use xlink:href="#mf0e78e424d" x="360.8064" y="27.648" style="fill-opacity: 0; stroke: #000080; stroke-width: 1.5"/>
    </g>
   </g>
   <g id="line2d_37">
    <path style="fill: none; stroke: #000080; stroke-width: 1.5; stroke-linecap: square"/>
    <g/>
   </g>
   <g id="line2d_38">
    <defs>
     <path id="m6b2f15e64e" d="M 0 1.5 
C 0.397805 1.5 0.77937 1.341951 1.06066 1.06066 
C 1.341951 0.77937 1.5 0.397805 1.5 0 
C 1.5 -0.397805 1.341951 -0.77937 1.06066 -1.06066 
C 0.77937 -1.341951 0.397805 -1.5 0 -1.5 
C -0.397805 -1.5 -0.77937 -1.341951 -1.06066 -1.06066 
C -1.341951 -0.77937 -1.5 -0.397805 -1.5 0 
C -1.5 0.397805 -1.341951 0.77937 -1.06066 1.06066 
C -0.77937 1.341951 -0.397805 1.5 0 1.5 
z
" style="stroke: #ff00ff"/>
    </defs>
    <g>
     <use xlink:href="#m6b2f15e64e" x="170.376818" y="27.648" style="fill: #ff00ff; stroke: #ff00ff"/>
     <use xlink:href="#m6b2f15e64e" x="170.376818" y="27.648" style="fill: #ff00ff; stroke: #ff00ff"/>
    </g>
   </g>
   <g id="line2d_39">
    <path d="M 1.245626 298.944 
L 1.245626 296.816188 
L 79.77233 296.816188 
L 79.77233 295.752282 
L 92.223596 295.752282 
L 92.223596 294.688376 
L 98.933205 294.688376 
L 98.933205 293.624471 
L 99.14107 293.624471 
L 99.14107 292.560565 
L 109.22004 292.560565 
L 109.22004 291.496659 
L 109.638757 291.496659 
L 109.638757 290.432753 
L 120.583864 290.432753 
L 120.583864 287.241035 
L 122.076872 287.241035 
L 122.076872 286.177129 
L 125.804545 286.177129 
L 125.804545 285.113224 
L 126.613505 285.113224 
L 126.613505 284.049318 
L 126.733095 284.049318 
L 126.733095 282.985412 
L 127.06396 282.985412 
L 127.06396 281.921506 
L 127.88896 281.921506 
L 127.88896 280.8576 
L 129.375706 280.8576 
L 129.458394 278.729788 
L 129.987186 278.729788 
L 129.987186 277.665882 
L 130.906915 277.665882 
L 130.906915 276.601976 
L 131.228811 276.601976 
L 131.228811 275.538071 
L 131.783764 275.538071 
L 131.783764 274.474165 
L 132.777813 274.474165 
L 132.777813 273.410259 
L 133.001252 273.410259 
L 133.001252 272.346353 
L 133.406907 272.346353 
L 133.406907 271.282447 
L 134.993495 271.282447 
L 134.993495 270.218541 
L 136.097741 270.218541 
L 136.126705 268.090729 
L 136.598268 268.090729 
L 136.598268 267.026824 
L 136.961653 267.026824 
L 136.961653 265.962918 
L 137.250116 265.962918 
L 137.250116 264.899012 
L 137.681345 264.899012 
L 137.787626 262.7712 
L 137.827326 262.7712 
L 137.827326 261.707294 
L 138.918715 261.707294 
L 138.918715 259.579482 
L 139.166565 259.579482 
L 139.166565 258.515576 
L 139.544394 258.515576 
L 139.592597 256.387765 
L 140.079694 256.387765 
L 140.079694 255.323859 
L 140.405242 255.323859 
L 140.49723 253.196047 
L 141.404121 253.196047 
L 141.415049 251.068235 
L 142.080444 251.068235 
L 142.080444 250.004329 
L 142.538777 250.004329 
L 142.538777 248.940424 
L 142.794303 248.940424 
L 142.834867 246.812612 
L 142.935896 246.812612 
L 142.935896 245.748706 
L 143.334672 245.748706 
L 143.393766 242.556988 
L 144.740732 242.556988 
L 144.740732 241.493082 
L 144.959156 241.493082 
L 144.959156 240.429176 
L 145.40622 240.429176 
L 145.485575 238.301365 
L 145.520737 238.301365 
L 145.520737 237.237459 
L 145.704266 237.237459 
L 145.704266 236.173553 
L 146.159649 236.173553 
L 146.159649 234.045741 
L 146.27812 234.045741 
L 146.311833 231.917929 
L 146.916705 231.917929 
L 146.916705 230.854024 
L 147.04672 230.854024 
L 147.054816 227.662306 
L 147.296097 227.662306 
L 147.296097 226.5984 
L 148.223807 226.5984 
L 148.223807 225.534494 
L 148.503173 225.534494 
L 148.503173 224.470588 
L 148.622706 224.470588 
L 148.622706 222.342776 
L 148.822713 222.342776 
L 148.822713 221.278871 
L 149.20924 221.278871 
L 149.295664 219.151059 
L 149.410282 219.151059 
L 149.410282 218.087153 
L 149.65155 218.087153 
L 149.65155 217.023247 
L 149.806031 217.023247 
L 149.806031 215.959341 
L 150.11812 215.959341 
L 150.11812 214.895435 
L 150.479171 214.895435 
L 150.479171 213.831529 
L 150.8268 213.831529 
L 150.85989 210.639812 
L 151.168122 210.639812 
L 151.278378 207.448094 
L 151.535282 207.448094 
L 151.535282 206.384188 
L 151.901671 206.384188 
L 151.901671 205.320282 
L 152.069827 205.320282 
L 152.16877 203.192471 
L 152.44429 203.192471 
L 152.44429 202.128565 
L 152.655828 202.128565 
L 152.733797 198.936847 
L 153.415577 198.936847 
L 153.501961 195.745129 
L 153.679241 195.745129 
L 153.787077 191.489506 
L 154.034453 191.489506 
L 154.034453 190.4256 
L 154.151382 190.4256 
L 154.151382 189.361694 
L 154.311669 189.361694 
L 154.388563 187.233882 
L 154.552285 187.233882 
L 154.579434 184.042165 
L 154.843441 184.042165 
L 154.843441 182.978259 
L 155.736786 182.978259 
L 155.746987 180.850447 
L 155.89935 180.850447 
L 155.89935 179.786541 
L 156.314566 179.786541 
L 156.368913 177.658729 
L 156.579868 177.658729 
L 156.579868 176.594824 
L 156.691741 176.594824 
L 156.691741 175.530918 
L 156.894328 175.530918 
L 156.894328 174.467012 
L 157.009121 174.467012 
L 157.009121 173.403106 
L 157.203619 173.403106 
L 157.203619 172.3392 
L 157.349354 172.3392 
L 157.428797 170.211388 
L 157.811919 170.211388 
L 157.893986 167.019671 
L 158.016419 167.019671 
L 158.016419 165.955765 
L 158.209775 165.955765 
L 158.209775 164.891859 
L 158.330176 164.891859 
L 158.414443 161.700141 
L 158.590624 161.700141 
L 158.673735 158.508424 
L 158.70862 158.508424 
L 158.70862 156.380612 
L 159.100946 156.380612 
L 159.100946 155.316706 
L 159.518669 155.316706 
L 159.61025 151.061082 
L 159.943644 151.061082 
L 159.943644 149.997176 
L 160.065639 149.997176 
L 160.073744 147.869365 
L 160.206974 147.869365 
L 160.206974 146.805459 
L 160.331275 146.805459 
L 160.331275 145.741553 
L 160.585328 145.741553 
L 160.585328 144.677647 
L 160.742386 144.677647 
L 160.754113 141.485929 
L 160.994842 141.485929 
L 160.994842 140.422024 
L 161.106392 140.422024 
L 161.114061 138.294212 
L 161.221097 138.294212 
L 161.274388 136.1664 
L 161.36161 136.1664 
L 161.36161 135.102494 
L 161.474774 135.102494 
L 161.534851 131.910776 
L 161.913396 131.910776 
L 161.953768 129.782965 
L 162.11803 129.782965 
L 162.11803 128.719059 
L 162.28087 128.719059 
L 162.370732 125.527341 
L 162.420867 125.527341 
L 162.420867 124.463435 
L 162.630697 124.463435 
L 162.630697 123.399529 
L 162.78567 123.399529 
L 162.78567 122.335624 
L 162.925456 122.335624 
L 162.925456 120.207812 
L 163.239651 120.207812 
L 163.321648 115.952188 
L 163.376115 115.952188 
L 163.420254 113.824376 
L 163.802943 113.824376 
L 163.879217 110.632659 
L 163.955184 110.632659 
L 163.955184 109.568753 
L 164.207296 109.568753 
L 164.298142 106.377035 
L 164.369214 106.377035 
L 164.398212 104.249224 
L 164.58721 104.249224 
L 164.692099 102.121412 
L 164.749065 102.121412 
L 164.796406 99.9936 
L 165.065549 99.9936 
L 165.155446 97.865788 
L 165.186345 97.865788 
L 165.284883 93.610165 
L 165.474345 93.610165 
L 165.577439 91.482353 
L 165.622743 91.482353 
L 165.622743 90.418447 
L 165.829745 90.418447 
L 165.91013 88.290635 
L 166.160974 88.290635 
L 166.199045 85.098918 
L 166.457638 85.098918 
L 166.500873 82.971106 
L 166.569843 82.971106 
L 166.58418 80.843294 
L 166.721261 80.843294 
L 166.820591 76.587671 
L 167.087586 76.587671 
L 167.13775 71.268141 
L 167.284683 71.268141 
L 167.328816 69.140329 
L 167.537044 69.140329 
L 167.542492 67.012518 
L 167.829037 67.012518 
L 167.91469 61.692988 
L 168.127132 61.692988 
L 168.203554 57.437365 
L 168.256078 57.437365 
L 168.256078 56.373459 
L 168.386751 56.373459 
L 168.446557 54.245647 
L 168.593957 54.245647 
L 168.699272 52.117835 
L 168.898015 52.117835 
L 168.898015 51.053929 
L 169.009206 51.053929 
L 169.107216 47.862212 
L 169.142275 47.862212 
L 169.149779 44.670494 
L 169.271924 44.670494 
L 169.356214 42.542682 
L 169.383404 42.542682 
L 169.447515 38.287059 
L 169.62392 38.287059 
L 169.62392 37.223153 
L 169.805934 37.223153 
L 169.856584 35.095341 
L 170.033985 35.095341 
L 170.133932 31.903624 
L 170.155281 31.903624 
L 170.197905 29.775812 
L 170.348681 29.775812 
L 170.376818 27.648 
L 360.8064 27.648 
L 360.8064 27.648 
" style="fill: none; stroke: #ff00ff; stroke-width: 1.5; stroke-linecap: square"/>
   </g>
   <g id="line2d_40">
    <defs>
     <path id="mcc3c4c1313" d="M -0 8.485281 
L 5.091169 0 
L 0 -8.485281 
L -5.091169 -0 
z
" style="stroke: #ff00ff; stroke-width: 1.5; stroke-linejoin: miter"/>
    </defs>
    <g>
     <use xlink:href="#mcc3c4c1313" x="109.22004" y="292.560565" style="fill-opacity: 0; stroke: #ff00ff; stroke-width: 1.5; stroke-linejoin: miter"/>
     <use xlink:href="#mcc3c4c1313" x="160.994842" y="140.422024" style="fill-opacity: 0; stroke: #ff00ff; stroke-width: 1.5; stroke-linejoin: miter"/>
     <use xlink:href="#mcc3c4c1313" x="170.376818" y="28.711906" style="fill-opacity: 0; stroke: #ff00ff; stroke-width: 1.5; stroke-linejoin: miter"/>
     <use xlink:href="#mcc3c4c1313" x="170.376818" y="27.648" style="fill-opacity: 0; stroke: #ff00ff; stroke-width: 1.5; stroke-linejoin: miter"/>
     <use xlink:href="#mcc3c4c1313" x="170.376818" y="27.648" style="fill-opacity: 0; stroke: #ff00ff; stroke-width: 1.5; stroke-linejoin: miter"/>
     <use xlink:href="#mcc3c4c1313" x="360.8064" y="27.648" style="fill-opacity: 0; stroke: #ff00ff; stroke-width: 1.5; stroke-linejoin: miter"/>
    </g>
   </g>
   <g id="line2d_41">
    <path style="fill: none; stroke: #ff00ff; stroke-width: 1.5; stroke-linecap: square"/>
    <g/>
   </g>
   <g id="line2d_42">
    <defs>
     <path id="m2ddb25b8a2" d="M 0 1.5 
C 0.397805 1.5 0.77937 1.341951 1.06066 1.06066 
C 1.341951 0.77937 1.5 0.397805 1.5 0 
C 1.5 -0.397805 1.341951 -0.77937 1.06066 -1.06066 
C 0.77937 -1.341951 0.397805 -1.5 0 -1.5 
C -0.397805 -1.5 -0.77937 -1.341951 -1.06066 -1.06066 
C -1.341951 -0.77937 -1.5 -0.397805 -1.5 0 
C -1.5 0.397805 -1.341951 0.77937 -1.06066 1.06066 
C -0.77937 1.341951 -0.397805 1.5 0 1.5 
z
" style="stroke: #ff7500"/>
    </defs>
    <g>
     <use xlink:href="#m2ddb25b8a2" x="179.467933" y="27.648" style="fill: #ff7500; stroke: #ff7500"/>
     <use xlink:href="#m2ddb25b8a2" x="179.467933" y="27.648" style="fill: #ff7500; stroke: #ff7500"/>
    </g>
   </g>
   <g id="line2d_43">
    <path d="M 1.245626 298.944 
L 1.245626 296.816188 
L 65.844256 296.816188 
L 65.844256 294.688376 
L 76.96874 294.688376 
L 76.96874 293.624471 
L 116.211813 293.624471 
L 116.211813 292.560565 
L 117.344894 292.560565 
L 117.344894 291.496659 
L 130.695654 291.496659 
L 130.695654 290.432753 
L 131.563744 290.432753 
L 131.563744 289.368847 
L 132.481562 289.368847 
L 132.481562 288.304941 
L 132.638982 288.304941 
L 132.638982 287.241035 
L 135.298389 287.241035 
L 135.298389 286.177129 
L 135.538796 286.177129 
L 135.538796 284.049318 
L 137.747841 284.049318 
L 137.800869 281.921506 
L 138.050729 281.921506 
L 138.050729 280.8576 
L 138.59155 280.8576 
L 138.59155 279.793694 
L 140.508697 279.793694 
L 140.53161 277.665882 
L 141.632274 277.665882 
L 141.632274 276.601976 
L 142.122575 276.601976 
L 142.122575 275.538071 
L 142.321419 275.538071 
L 142.404519 273.410259 
L 142.723105 273.410259 
L 142.723105 272.346353 
L 142.844994 272.346353 
L 142.844994 271.282447 
L 144.249202 271.282447 
L 144.249202 270.218541 
L 144.37096 270.218541 
L 144.37096 269.154635 
L 146.091614 269.154635 
L 146.159649 265.962918 
L 146.218978 265.962918 
L 146.218978 264.899012 
L 146.562769 264.899012 
L 146.562769 263.835106 
L 147.04672 263.835106 
L 147.04672 262.7712 
L 147.816265 262.7712 
L 147.862847 259.579482 
L 148.741485 259.579482 
L 148.741485 258.515576 
L 149.20202 258.515576 
L 149.274095 256.387765 
L 149.566749 256.387765 
L 149.587985 253.196047 
L 150.593527 253.196047 
L 150.667154 250.004329 
L 151.024471 250.004329 
L 151.050671 247.876518 
L 151.907925 247.876518 
L 151.951652 245.748706 
L 152.088418 245.748706 
L 152.125546 243.620894 
L 152.781618 243.620894 
L 152.781618 242.556988 
L 153.030703 242.556988 
L 153.136452 240.429176 
L 153.235783 240.429176 
L 153.235783 239.365271 
L 154.206807 239.365271 
L 154.251031 236.173553 
L 155.098517 236.173553 
L 155.140696 234.045741 
L 155.350181 234.045741 
L 155.371001 231.917929 
L 155.474761 231.917929 
L 155.474761 230.854024 
L 155.711258 230.854024 
L 155.782649 228.726212 
L 156.388637 228.726212 
L 156.388637 227.662306 
L 156.584746 227.662306 
L 156.584746 226.5984 
L 156.778831 226.5984 
L 156.793307 224.470588 
L 156.923092 224.470588 
L 156.923092 223.406682 
L 157.493969 223.406682 
L 157.493969 222.342776 
L 158.084094 222.342776 
L 158.084094 221.278871 
L 158.209775 221.278871 
L 158.272301 218.087153 
L 158.712976 218.087153 
L 158.712976 217.023247 
L 158.97251 217.023247 
L 158.97251 215.959341 
L 159.152076 215.959341 
L 159.236985 212.767624 
L 159.313076 212.767624 
L 159.346797 209.575906 
L 160.319282 209.575906 
L 160.319282 208.512 
L 160.506304 208.512 
L 160.537954 206.384188 
L 160.746296 206.384188 
L 160.843776 204.256376 
L 161.117894 204.256376 
L 161.117894 203.192471 
L 161.512345 203.192471 
L 161.609678 201.064659 
L 161.695363 201.064659 
L 161.695363 200.000753 
L 161.983075 200.000753 
L 161.983075 198.936847 
L 162.244805 198.936847 
L 162.345614 196.809035 
L 162.392235 196.809035 
L 162.392235 195.745129 
L 162.613005 195.745129 
L 162.613005 194.681224 
L 162.942856 194.681224 
L 163.036541 190.4256 
L 163.133205 190.4256 
L 163.198517 188.297788 
L 163.836144 188.297788 
L 163.836144 187.233882 
L 163.991407 187.233882 
L 164.053812 184.042165 
L 164.311084 184.042165 
L 164.324018 179.786541 
L 164.940845 179.786541 
L 165.021997 176.594824 
L 165.130689 176.594824 
L 165.229519 174.467012 
L 165.321703 174.467012 
L 165.321703 173.403106 
L 165.525963 173.403106 
L 165.583486 171.275294 
L 166.1287 171.275294 
L 166.231199 168.083576 
L 166.692785 168.083576 
L 166.692785 167.019671 
L 166.834738 167.019671 
L 166.834738 165.955765 
L 167.040085 165.955765 
L 167.040085 163.827953 
L 167.215518 163.827953 
L 167.287445 161.700141 
L 167.370096 161.700141 
L 167.433218 159.572329 
L 167.845127 159.572329 
L 167.920031 155.316706 
L 167.970689 155.316706 
L 168.063651 153.188894 
L 168.350254 153.188894 
L 168.446557 151.061082 
L 168.475092 151.061082 
L 168.498408 148.933271 
L 168.793809 148.933271 
L 168.793809 147.869365 
L 168.943582 147.869365 
L 169.039418 145.741553 
L 169.37105 145.741553 
L 169.403154 141.485929 
L 169.616603 141.485929 
L 169.616603 140.422024 
L 169.735764 140.422024 
L 169.837305 138.294212 
L 169.969451 138.294212 
L 169.971845 136.1664 
L 170.15291 136.1664 
L 170.15291 135.102494 
L 170.301693 135.102494 
L 170.40959 132.974682 
L 170.50524 132.974682 
L 170.59346 130.846871 
L 170.83052 130.846871 
L 170.853378 128.719059 
L 170.987673 128.719059 
L 171.071406 126.591247 
L 171.253422 126.591247 
L 171.362682 124.463435 
L 171.67796 124.463435 
L 171.756506 120.207812 
L 171.789136 120.207812 
L 171.789136 119.143906 
L 172.127316 119.143906 
L 172.223136 115.952188 
L 172.271923 115.952188 
L 172.373333 113.824376 
L 172.478391 113.824376 
L 172.580781 110.632659 
L 172.599527 110.632659 
L 172.599527 109.568753 
L 172.995054 109.568753 
L 173.039848 107.440941 
L 173.133165 107.440941 
L 173.183688 104.249224 
L 173.384432 104.249224 
L 173.4522 101.057506 
L 173.521707 101.057506 
L 173.521707 99.9936 
L 173.646176 99.9936 
L 173.646176 98.929694 
L 173.775695 98.929694 
L 173.820621 96.801882 
L 173.908212 96.801882 
L 173.908212 95.737976 
L 174.13022 95.737976 
L 174.214474 91.482353 
L 174.542134 91.482353 
L 174.542134 90.418447 
L 174.719664 90.418447 
L 174.79021 87.226729 
L 174.908429 87.226729 
L 174.980106 82.971106 
L 175.131747 82.971106 
L 175.131747 81.9072 
L 175.256885 81.9072 
L 175.318243 79.779388 
L 175.495771 79.779388 
L 175.495771 78.715482 
L 175.607877 78.715482 
L 175.623838 74.459859 
L 175.905348 74.459859 
L 175.988986 72.332047 
L 176.054937 72.332047 
L 176.086096 70.204235 
L 176.187869 70.204235 
L 176.187869 69.140329 
L 176.36764 69.140329 
L 176.427183 64.884706 
L 176.64671 64.884706 
L 176.718763 59.565176 
L 176.773872 59.565176 
L 176.773872 58.501271 
L 177.005892 58.501271 
L 177.005892 56.373459 
L 177.145377 56.373459 
L 177.189468 53.181741 
L 177.338935 53.181741 
L 177.338935 52.117835 
L 177.458302 52.117835 
L 177.477588 49.990024 
L 177.634351 49.990024 
L 177.690023 47.862212 
L 177.876513 47.862212 
L 177.876513 45.7344 
L 177.987838 45.7344 
L 178.064285 41.478776 
L 178.294858 41.478776 
L 178.383853 39.350965 
L 178.425138 39.350965 
L 178.425138 38.287059 
L 178.601488 38.287059 
L 178.630216 36.159247 
L 178.86892 36.159247 
L 178.964153 30.839718 
L 179.444798 30.839718 
L 179.467933 27.648 
L 360.8064 27.648 
L 360.8064 27.648 
" style="fill: none; stroke: #ff7500; stroke-width: 1.5; stroke-linecap: square"/>
   </g>
   <g id="line2d_44">
    <defs>
     <path id="me4fab85938" d="M 0 -6 
L -1.347084 -1.854102 
L -5.706339 -1.854102 
L -2.179628 0.708204 
L -3.526712 4.854102 
L -0 2.291796 
L 3.526712 4.854102 
L 2.179628 0.708204 
L 5.706339 -1.854102 
L 1.347084 -1.854102 
z
" style="stroke: #ff7500; stroke-width: 1.5; stroke-linejoin: bevel"/>
    </defs>
    <g>
     <use xlink:href="#me4fab85938" x="76.96874" y="294.688376" style="fill-opacity: 0; stroke: #ff7500; stroke-width: 1.5; stroke-linejoin: bevel"/>
     <use xlink:href="#me4fab85938" x="155.098517" y="236.173553" style="fill-opacity: 0; stroke: #ff7500; stroke-width: 1.5; stroke-linejoin: bevel"/>
     <use xlink:href="#me4fab85938" x="174.937868" y="84.035012" style="fill-opacity: 0; stroke: #ff7500; stroke-width: 1.5; stroke-linejoin: bevel"/>
     <use xlink:href="#me4fab85938" x="179.467933" y="27.648" style="fill-opacity: 0; stroke: #ff7500; stroke-width: 1.5; stroke-linejoin: bevel"/>
     <use xlink:href="#me4fab85938" x="179.467933" y="27.648" style="fill-opacity: 0; stroke: #ff7500; stroke-width: 1.5; stroke-linejoin: bevel"/>
     <use xlink:href="#me4fab85938" x="360.8064" y="27.648" style="fill-opacity: 0; stroke: #ff7500; stroke-width: 1.5; stroke-linejoin: bevel"/>
    </g>
   </g>
   <g id="line2d_45">
    <path style="fill: none; stroke: #ff7500; stroke-width: 1.5; stroke-linecap: square"/>
    <g/>
   </g>
   <g id="line2d_46">
    <defs>
     <path id="mdf100ba60f" d="M 0 1.5 
C 0.397805 1.5 0.77937 1.341951 1.06066 1.06066 
C 1.341951 0.77937 1.5 0.397805 1.5 0 
C 1.5 -0.397805 1.341951 -0.77937 1.06066 -1.06066 
C 0.77937 -1.341951 0.397805 -1.5 0 -1.5 
C -0.397805 -1.5 -0.77937 -1.341951 -1.06066 -1.06066 
C -1.341951 -0.77937 -1.5 -0.397805 -1.5 0 
C -1.5 0.397805 -1.341951 0.77937 -1.06066 1.06066 
C -0.77937 1.341951 -0.397805 1.5 0 1.5 
z
" style="stroke: #6495ed"/>
    </defs>
    <g>
     <use xlink:href="#mdf100ba60f" x="151.649755" y="27.648" style="fill: #6495ed; stroke: #6495ed"/>
     <use xlink:href="#mdf100ba60f" x="151.649755" y="27.648" style="fill: #6495ed; stroke: #6495ed"/>
    </g>
   </g>
   <g id="line2d_47">
    <path d="M 1.245626 298.944 
L 1.245626 296.816188 
L 40.363149 296.816188 
L 40.363149 296.461553 
L 50.890391 296.461553 
L 50.890391 295.752282 
L 52.188254 295.752282 
L 52.188254 294.688376 
L 53.402323 294.688376 
L 53.402323 294.333741 
L 56.635094 294.333741 
L 56.635094 293.979106 
L 66.441498 293.979106 
L 66.441498 293.624471 
L 69.172597 293.624471 
L 69.172597 293.269835 
L 69.674268 293.269835 
L 69.674268 292.9152 
L 70.162907 292.9152 
L 70.162907 292.560565 
L 70.639174 292.560565 
L 70.639174 291.851294 
L 71.556993 291.851294 
L 71.556993 291.496659 
L 72.432107 291.496659 
L 72.432107 291.142024 
L 75.574654 291.142024 
L 75.574654 290.787388 
L 75.93298 290.787388 
L 75.93298 290.432753 
L 76.96874 290.432753 
L 76.96874 290.078118 
L 77.950435 290.078118 
L 77.950435 289.723482 
L 78.88343 289.723482 
L 78.88343 288.659576 
L 81.433251 288.659576 
L 81.433251 288.304941 
L 83.202082 288.304941 
L 83.202082 287.950306 
L 83.441723 287.950306 
L 83.441723 287.595671 
L 84.596168 287.595671 
L 84.596168 287.241035 
L 84.818792 287.241035 
L 84.818792 286.8864 
L 85.471281 286.8864 
L 85.471281 286.531765 
L 86.712053 286.531765 
L 86.712053 286.177129 
L 87.303041 286.177129 
L 87.303041 285.822494 
L 88.063207 285.822494 
L 88.063207 285.467859 
L 89.14879 285.467859 
L 89.14879 285.113224 
L 90.175129 285.113224 
L 90.175129 284.403953 
L 90.668036 284.403953 
L 90.668036 284.049318 
L 90.989609 284.049318 
L 90.989609 283.694682 
L 91.616719 283.694682 
L 91.616719 283.340047 
L 92.223596 283.340047 
L 92.223596 282.630776 
L 93.798104 282.630776 
L 93.798104 282.276141 
L 94.604437 282.276141 
L 94.604437 281.921506 
L 95.503454 281.921506 
L 95.503454 281.566871 
L 96.361458 281.566871 
L 96.361458 281.212235 
L 96.480897 281.212235 
L 96.480897 280.8576 
L 96.95121 280.8576 
L 96.95121 280.502965 
L 97.18203 280.502965 
L 97.18203 280.148329 
L 97.635342 280.148329 
L 97.635342 279.793694 
L 97.968299 279.793694 
L 98.077987 279.084424 
L 98.18704 279.084424 
L 98.18704 278.729788 
L 99.244147 278.729788 
L 99.244147 278.375153 
L 99.448622 278.375153 
L 99.448622 278.020518 
L 100.049042 278.020518 
L 100.147275 277.311247 
L 100.342215 277.311247 
L 100.342215 276.956612 
L 100.630889 276.956612 
L 100.630889 276.601976 
L 101.195278 276.601976 
L 101.195278 276.247341 
L 101.471247 276.247341 
L 101.471247 275.892706 
L 101.833019 275.892706 
L 101.833019 275.538071 
L 102.708132 275.538071 
L 102.793446 274.474165 
L 103.130882 274.474165 
L 103.130882 273.764894 
L 103.788121 273.764894 
L 103.788121 273.410259 
L 104.108325 273.410259 
L 104.108325 273.055624 
L 104.266406 273.055624 
L 104.266406 272.700988 
L 104.501065 272.700988 
L 104.578638 271.991718 
L 104.732832 271.991718 
L 104.732832 271.637082 
L 104.885773 271.637082 
L 104.885773 271.282447 
L 105.037479 271.282447 
L 105.037479 270.927812 
L 105.705415 270.927812 
L 105.705415 270.573176 
L 106.209005 270.573176 
L 106.279859 269.863906 
L 106.905809 269.863906 
L 106.974091 268.8 
L 107.109915 268.8 
L 107.109915 268.445365 
L 107.244765 268.445365 
L 107.31183 267.736094 
L 107.378656 267.736094 
L 107.378656 267.381459 
L 108.162584 267.381459 
L 108.22646 266.672188 
L 108.29012 266.672188 
L 108.29012 266.317553 
L 108.416798 266.317553 
L 108.416798 265.962918 
L 108.791791 265.962918 
L 108.85357 265.253647 
L 108.976522 265.253647 
L 108.976522 264.899012 
L 109.638757 264.899012 
L 109.638757 264.544376 
L 110.106149 264.544376 
L 110.106149 264.189741 
L 110.221204 264.189741 
L 110.221204 263.835106 
L 110.335561 263.835106 
L 110.335561 263.480471 
L 110.562208 263.480471 
L 110.562208 262.7712 
L 110.841731 262.7712 
L 110.841731 262.416565 
L 111.496112 262.416565 
L 111.54963 261.352659 
L 112.231853 261.352659 
L 112.231853 260.998024 
L 112.790402 260.998024 
L 112.790402 260.643388 
L 113.284172 260.643388 
L 113.284172 260.288753 
L 113.429811 260.288753 
L 113.478107 259.224847 
L 113.57433 259.224847 
L 113.57433 258.515576 
L 113.765312 258.515576 
L 113.765312 257.806306 
L 113.907287 257.806306 
L 114.001345 257.097035 
L 114.234452 257.097035 
L 114.234452 256.7424 
L 114.510421 256.7424 
L 114.556025 256.033129 
L 115.050503 256.033129 
L 115.050503 255.323859 
L 115.183135 255.323859 
L 115.183135 254.969224 
L 115.314838 254.969224 
L 115.358535 254.259953 
L 115.445626 254.259953 
L 115.489021 253.550682 
L 115.618607 253.550682 
L 115.704505 252.486776 
L 115.959869 252.486776 
L 116.044226 251.777506 
L 116.460428 251.777506 
L 116.460428 251.422871 
L 116.624364 251.422871 
L 116.665126 250.358965 
L 116.907859 250.358965 
L 116.907859 250.004329 
L 117.067958 250.004329 
L 117.1475 249.295059 
L 117.226706 249.295059 
L 117.226706 248.940424 
L 117.384126 248.940424 
L 117.384126 248.585788 
L 117.617813 248.585788 
L 117.65648 247.876518 
L 117.924947 247.876518 
L 117.924947 247.521882 
L 118.376446 247.521882 
L 118.413586 246.812612 
L 118.524569 246.812612 
L 118.524569 246.457976 
L 118.74459 246.457976 
L 118.781011 245.748706 
L 118.889854 245.748706 
L 118.889854 245.394071 
L 119.06987 245.394071 
L 119.06987 244.6848 
L 119.319033 244.6848 
L 119.389621 243.620894 
L 119.634612 243.620894 
L 119.738639 241.847718 
L 119.807672 241.847718 
L 119.807672 241.493082 
L 120.013265 241.493082 
L 120.013265 241.138447 
L 120.517626 241.138447 
L 120.517626 240.783812 
L 120.682786 240.783812 
L 120.682786 240.429176 
L 121.073351 240.429176 
L 121.137664 239.365271 
L 121.361044 239.365271 
L 121.361044 238.656 
L 121.675626 238.656 
L 121.737916 237.946729 
L 121.8 237.946729 
L 121.892744 236.528188 
L 121.954321 236.528188 
L 122.046309 235.818918 
L 122.076872 235.818918 
L 122.076872 235.464282 
L 122.379802 235.464282 
L 122.379802 234.755012 
L 122.529457 234.755012 
L 122.618682 233.691106 
L 122.64833 233.691106 
L 122.736994 232.6272 
L 123.174153 232.6272 
L 123.260379 231.563294 
L 123.317644 231.563294 
L 123.403216 230.499388 
L 123.431654 230.499388 
L 123.431654 229.790118 
L 124.07413 229.790118 
L 124.101572 229.080847 
L 124.265389 229.080847 
L 124.373813 228.371576 
L 124.695386 228.371576 
L 124.801367 226.5984 
L 124.854134 226.5984 
L 124.959227 225.889129 
L 125.373824 225.889129 
L 125.425011 225.179859 
L 125.552375 225.179859 
L 125.628382 224.115953 
L 125.779479 224.115953 
L 125.879541 223.406682 
L 125.929373 223.406682 
L 126.003874 222.697412 
L 126.176572 222.697412 
L 126.176572 222.342776 
L 126.44479 222.342776 
L 126.517282 220.924235 
L 126.565455 220.924235 
L 126.565455 220.5696 
L 126.709238 220.5696 
L 126.709238 220.214965 
L 126.851931 220.214965 
L 126.946461 219.505694 
L 126.97002 219.505694 
L 127.017049 218.796424 
L 127.087372 218.796424 
L 127.087372 218.441788 
L 127.273627 218.441788 
L 127.29678 217.732518 
L 127.4351 217.732518 
L 127.458055 217.023247 
L 127.5952 217.023247 
L 127.686077 215.959341 
L 127.776517 215.959341 
L 127.866525 214.186165 
L 127.88896 214.186165 
L 127.88896 213.831529 
L 128.023009 213.831529 
L 128.023009 213.476894 
L 128.200269 213.476894 
L 128.266313 212.767624 
L 128.354013 212.767624 
L 128.354013 212.058353 
L 128.50651 212.058353 
L 128.614685 210.285176 
L 128.636246 210.285176 
L 128.636246 209.575906 
L 128.807846 209.575906 
L 128.829186 208.512 
L 129.062347 208.512 
L 129.062347 208.157365 
L 129.188317 208.157365 
L 129.209231 207.093459 
L 129.520173 207.093459 
L 129.561246 206.029553 
L 129.643124 206.029553 
L 129.643124 205.674918 
L 129.78556 205.674918 
L 129.80582 204.965647 
L 129.906795 204.965647 
L 129.987186 203.547106 
L 130.067235 203.547106 
L 130.067235 202.837835 
L 130.206507 202.837835 
L 130.265881 202.128565 
L 130.364422 202.128565 
L 130.46245 201.419294 
L 130.481995 201.419294 
L 130.579414 200.355388 
L 130.695654 200.355388 
L 130.791976 199.291482 
L 130.811181 199.291482 
L 130.906915 197.872941 
L 130.945072 197.872941 
L 130.945072 197.518306 
L 131.172405 197.518306 
L 131.247576 196.809035 
L 131.285049 196.809035 
L 131.378407 195.390494 
L 131.41562 195.390494 
L 131.41562 194.681224 
L 131.618991 194.681224 
L 131.692402 193.617318 
L 131.783764 193.617318 
L 131.856536 192.553412 
L 132.05522 192.553412 
L 132.073179 191.489506 
L 132.428795 191.489506 
L 132.516659 189.716329 
L 132.673786 189.716329 
L 132.673786 189.361694 
L 132.812362 189.361694 
L 132.898456 188.297788 
L 132.949924 188.297788 
L 133.05244 187.588518 
L 133.086488 187.588518 
L 133.154399 186.169976 
L 133.205173 186.169976 
L 133.272658 184.751435 
L 133.323114 184.751435 
L 133.373435 183.687529 
L 133.556801 183.687529 
L 133.656071 182.978259 
L 133.70551 182.978259 
L 133.72196 182.268988 
L 133.836715 182.268988 
L 133.918257 180.850447 
L 133.999446 180.850447 
L 133.999446 180.495812 
L 134.160781 180.495812 
L 134.208913 179.786541 
L 134.320744 179.786541 
L 134.400219 179.077271 
L 134.463557 179.077271 
L 134.542432 178.013365 
L 134.730392 178.013365 
L 134.839175 177.304094 
L 134.854664 177.304094 
L 134.885604 176.240188 
L 134.97812 176.240188 
L 135.039546 174.821647 
L 135.116046 174.821647 
L 135.14656 174.112376 
L 135.252969 174.112376 
L 135.35878 172.3392 
L 135.508912 172.3392 
L 135.538796 171.275294 
L 135.76142 171.275294 
L 135.864417 169.502118 
L 135.879085 169.502118 
L 135.879085 168.792847 
L 135.996018 168.792847 
L 136.054213 168.083576 
L 136.141169 168.083576 
L 136.141169 167.728941 
L 136.270855 167.728941 
L 136.342518 166.665035 
L 136.527575 166.665035 
L 136.626472 165.601129 
L 136.822719 165.601129 
L 136.906202 163.473318 
L 136.97549 163.473318 
L 137.0583 162.764047 
L 137.12703 162.764047 
L 137.195511 162.054776 
L 137.250116 162.054776 
L 137.358854 160.636235 
L 137.426497 160.636235 
L 137.493898 158.508424 
L 137.614614 158.508424 
L 137.694663 156.380612 
L 137.787626 156.380612 
L 137.880131 154.607435 
L 137.919637 154.607435 
L 137.959061 153.543529 
L 138.076838 153.543529 
L 138.076838 153.188894 
L 138.206842 153.188894 
L 138.310202 152.479624 
L 138.323083 152.479624 
L 138.425808 151.061082 
L 138.540708 151.061082 
L 138.604239 149.287906 
L 138.667556 149.287906 
L 138.768422 147.869365 
L 139.018248 147.869365 
L 139.080189 146.805459 
L 139.141927 146.805459 
L 139.141927 146.450824 
L 139.301504 146.450824 
L 139.399036 143.968376 
L 139.496066 143.968376 
L 139.580558 141.485929 
L 139.628669 141.485929 
L 139.664672 140.422024 
L 139.819894 140.422024 
L 139.914782 139.712753 
L 140.067962 139.712753 
L 140.091418 139.003482 
L 140.196609 139.003482 
L 140.243172 137.939576 
L 140.324381 137.939576 
L 140.428281 136.521035 
L 140.474275 136.521035 
L 140.543056 135.457129 
L 140.611586 135.457129 
L 140.611586 135.102494 
L 140.759217 135.102494 
L 140.838234 132.974682 
L 140.995278 132.974682 
L 141.039908 131.556141 
L 141.106655 131.556141 
L 141.128852 130.846871 
L 141.294496 130.846871 
L 141.404121 129.073694 
L 141.458695 129.073694 
L 141.534833 127.655153 
L 141.578203 127.655153 
L 141.686191 126.591247 
L 141.707715 126.591247 
L 141.814964 125.527341 
L 141.857694 125.527341 
L 141.921606 124.1088 
L 142.01707 124.1088 
L 142.101521 122.690259 
L 142.185595 122.690259 
L 142.279732 121.271718 
L 142.352625 121.271718 
L 142.435586 119.853176 
L 142.47693 119.853176 
L 142.559347 117.725365 
L 142.631166 117.725365 
L 142.733292 115.597553 
L 142.763822 115.597553 
L 142.814596 114.179012 
L 142.925817 114.179012 
L 143.006295 113.115106 
L 143.046405 113.115106 
L 143.156268 111.341929 
L 143.19606 111.341929 
L 143.295173 110.278024 
L 143.364242 110.278024 
L 143.364242 109.923388 
L 143.48206 109.923388 
L 143.550448 108.150212 
L 143.599145 108.150212 
L 143.676798 106.731671 
L 143.715505 106.731671 
L 143.72517 105.667765 
L 143.936538 105.667765 
L 144.012814 103.894588 
L 144.079302 103.894588 
L 144.117191 102.476047 
L 144.202161 102.476047 
L 144.296125 101.412141 
L 144.417581 101.412141 
L 144.519742 98.929694 
L 144.556755 98.929694 
L 144.630562 97.511153 
L 144.694906 97.511153 
L 144.759032 96.447247 
L 144.813822 96.447247 
L 144.922928 94.674071 
L 144.959156 94.674071 
L 145.049423 92.900894 
L 145.184016 92.900894 
L 145.291002 90.418447 
L 145.361989 90.418447 
L 145.423883 88.999906 
L 145.494372 88.999906 
L 145.511953 88.290635 
L 145.608355 88.290635 
L 145.695567 86.872094 
L 145.756375 86.872094 
L 145.808341 85.453553 
L 145.90324 85.453553 
L 146.006223 83.680376 
L 146.023332 83.680376 
L 146.074567 81.9072 
L 146.210514 81.9072 
L 146.311833 79.070118 
L 146.337078 79.070118 
L 146.412609 77.651576 
L 146.462796 77.651576 
L 146.554458 75.8784 
L 146.645676 75.8784 
L 146.752911 74.459859 
L 146.785784 74.459859 
L 146.892226 73.041318 
L 146.916705 73.041318 
L 146.965566 71.977412 
L 147.04672 71.977412 
L 147.119461 70.204235 
L 147.216013 70.204235 
L 147.320055 68.431059 
L 147.351953 68.431059 
L 147.439393 66.657882 
L 147.557979 66.657882 
L 147.652312 64.175435 
L 147.683651 64.175435 
L 147.777358 62.047624 
L 147.878349 62.047624 
L 147.986506 59.919812 
L 148.03267 59.919812 
L 148.139946 58.501271 
L 148.162854 58.501271 
L 148.254209 56.373459 
L 148.284563 56.373459 
L 148.367783 54.245647 
L 148.397954 54.245647 
L 148.458151 53.181741 
L 148.540609 53.181741 
L 148.622706 52.117835 
L 148.697031 52.117835 
L 148.800595 50.344659 
L 148.837444 50.344659 
L 148.947561 48.926118 
L 148.976817 48.926118 
L 149.078856 47.152941 
L 149.093387 47.152941 
L 149.187572 45.379765 
L 149.2669 45.379765 
L 149.367382 43.606588 
L 149.388844 43.606588 
L 149.495789 41.833412 
L 149.595059 41.833412 
L 149.693807 38.287059 
L 149.820013 38.287059 
L 149.889763 36.513882 
L 149.938434 36.513882 
L 150.042308 35.095341 
L 150.193627 35.095341 
L 150.302917 33.6768 
L 150.343738 33.6768 
L 150.452162 32.612894 
L 150.485917 32.612894 
L 150.546523 31.548988 
L 150.700525 31.548988 
L 150.793652 30.485082 
L 150.925895 30.485082 
L 151.004798 29.066541 
L 151.076835 29.066541 
L 151.076835 28.711906 
L 151.586245 28.711906 
L 151.649755 27.648 
L 360.8064 27.648 
L 360.8064 27.648 
" style="fill: none; stroke: #6495ed; stroke-width: 1.5; stroke-linecap: square"/>
   </g>
   <g id="line2d_48">
    <defs>
     <path id="m42dc9c3f75" d="M -0 6 
L 6 -6 
L -6 -6 
z
" style="stroke: #6495ed; stroke-width: 1.5; stroke-linejoin: miter"/>
    </defs>
    <g>
     <use xlink:href="#m42dc9c3f75" x="124.101572" y="229.080847" style="fill-opacity: 0; stroke: #6495ed; stroke-width: 1.5; stroke-linejoin: miter"/>
     <use xlink:href="#m42dc9c3f75" x="144.239803" y="101.766776" style="fill-opacity: 0; stroke: #6495ed; stroke-width: 1.5; stroke-linejoin: miter"/>
     <use xlink:href="#m42dc9c3f75" x="151.649755" y="28.002635" style="fill-opacity: 0; stroke: #6495ed; stroke-width: 1.5; stroke-linejoin: miter"/>
     <use xlink:href="#m42dc9c3f75" x="151.649755" y="27.648" style="fill-opacity: 0; stroke: #6495ed; stroke-width: 1.5; stroke-linejoin: miter"/>
     <use xlink:href="#m42dc9c3f75" x="151.649755" y="27.648" style="fill-opacity: 0; stroke: #6495ed; stroke-width: 1.5; stroke-linejoin: miter"/>
     <use xlink:href="#m42dc9c3f75" x="360.8064" y="27.648" style="fill-opacity: 0; stroke: #6495ed; stroke-width: 1.5; stroke-linejoin: miter"/>
    </g>
   </g>
   <g id="line2d_49">
    <path style="fill: none; stroke: #6495ed; stroke-width: 1.5; stroke-linecap: square"/>
    <g/>
   </g>
   <g id="line2d_50">
    <path d="M 360.8064 27.648 
L 380.514816 293.51808 
" style="fill: none; stroke: #ff7500; stroke-width: 1.5; stroke-linecap: square"/>
    <g>
     <use xlink:href="#me4fab85938" x="360.8064" y="27.648" style="fill-opacity: 0; stroke: #ff7500; stroke-width: 1.5; stroke-linejoin: bevel"/>
     <use xlink:href="#me4fab85938" x="380.514816" y="293.51808" style="fill-opacity: 0; stroke: #ff7500; stroke-width: 1.5; stroke-linejoin: bevel"/>
    </g>
   </g>
   <g id="line2d_51">
    <path d="M 360.8064 27.648 
L 380.514816 228.40704 
" style="fill: none; stroke: #ff00ff; stroke-width: 1.5; stroke-linecap: square"/>
    <g>
     <use xlink:href="#mcc3c4c1313" x="360.8064" y="27.648" style="fill-opacity: 0; stroke: #ff00ff; stroke-width: 1.5; stroke-linejoin: miter"/>
     <use xlink:href="#mcc3c4c1313" x="380.514816" y="228.40704" style="fill-opacity: 0; stroke: #ff00ff; stroke-width: 1.5; stroke-linejoin: miter"/>
    </g>
   </g>
   <g id="line2d_52">
    <path d="M 360.8064 27.648 
L 380.514816 163.296 
" style="fill: none; stroke: #6495ed; stroke-width: 1.5; stroke-linecap: square"/>
    <g>
     <use xlink:href="#m42dc9c3f75" x="360.8064" y="27.648" style="fill-opacity: 0; stroke: #6495ed; stroke-width: 1.5; stroke-linejoin: miter"/>
     <use xlink:href="#m42dc9c3f75" x="380.514816" y="163.296" style="fill-opacity: 0; stroke: #6495ed; stroke-width: 1.5; stroke-linejoin: miter"/>
    </g>
   </g>
   <g id="line2d_53">
    <path d="M 360.8064 27.648 
L 380.514816 98.18496 
" style="fill: none; stroke: #000080; stroke-width: 1.5; stroke-linecap: square"/>
    <g>
     <use xlink:href="#mf0e78e424d" x="360.8064" y="27.648" style="fill-opacity: 0; stroke: #000080; stroke-width: 1.5"/>
     <use xlink:href="#mf0e78e424d" x="380.514816" y="98.18496" style="fill-opacity: 0; stroke: #000080; stroke-width: 1.5"/>
    </g>
   </g>
   <g id="line2d_54">
    <path d="M 360.8064 298.944 
L 360.8064 27.648 
" style="fill: none; stroke: #000000; stroke-width: 1.5; stroke-linecap: square"/>
   </g>
   <g id="patch_3">
    <path d="M 57.6 298.944 
L 360.8064 298.944 
" style="fill: none; stroke: #000000; stroke-width: 0.8; stroke-linejoin: miter; stroke-linecap: square"/>
   </g>
   <g id="patch_4">
    <path d="M 57.6 27.648 
L 360.8064 27.648 
" style="fill: none; stroke: #000000; stroke-width: 0.8; stroke-linejoin: miter; stroke-linecap: square"/>
   </g>
   <g id="text_13">
    <!-- pop-200 -->
    <g transform="translate(386.578944 297.381205)scale(0.14 -0.14)">
     <use xlink:href="#DejaVuSans-70"/>
     <use xlink:href="#DejaVuSans-6f" x="63.476562"/>
     <use xlink:href="#DejaVuSans-70" x="124.658203"/>
     <use xlink:href="#DejaVuSans-2d" x="188.134766"/>
     <use xlink:href="#DejaVuSans-32" x="224.21875"/>
     <use xlink:href="#DejaVuSans-30" x="287.841797"/>
     <use xlink:href="#DejaVuSans-30" x="351.464844"/>
    </g>
   </g>
   <g id="text_14">
    <!-- pop-100 -->
    <g transform="translate(386.578944 232.270165)scale(0.14 -0.14)">
     <use xlink:href="#DejaVuSans-70"/>
     <use xlink:href="#DejaVuSans-6f" x="63.476562"/>
     <use xlink:href="#DejaVuSans-70" x="124.658203"/>
     <use xlink:href="#DejaVuSans-2d" x="188.134766"/>
     <use xlink:href="#DejaVuSans-31" x="224.21875"/>
     <use xlink:href="#DejaVuSans-30" x="287.841797"/>
     <use xlink:href="#DejaVuSans-30" x="351.464844"/>
    </g>
   </g>
   <g id="text_15">
    <!-- CMA-ES-20 -->
    <g transform="translate(386.578944 167.159125)scale(0.14 -0.14)">
     <defs>
      <path id="DejaVuSans-43" d="M 4122 4306 
L 4122 3641 
Q 3803 3938 3442 4084 
Q 3081 4231 2675 4231 
Q 1875 4231 1450 3742 
Q 1025 3253 1025 2328 
Q 1025 1406 1450 917 
Q 1875 428 2675 428 
Q 3081 428 3442 575 
Q 3803 722 4122 1019 
L 4122 359 
Q 3791 134 3420 21 
Q 3050 -91 2638 -91 
Q 1578 -91 968 557 
Q 359 1206 359 2328 
Q 359 3453 968 4101 
Q 1578 4750 2638 4750 
Q 3056 4750 3426 4639 
Q 3797 4528 4122 4306 
z
" transform="scale(0.015625)"/>
      <path id="DejaVuSans-4d" d="M 628 4666 
L 1569 4666 
L 2759 1491 
L 3956 4666 
L 4897 4666 
L 4897 0 
L 4281 0 
L 4281 4097 
L 3078 897 
L 2444 897 
L 1241 4097 
L 1241 0 
L 628 0 
L 628 4666 
z
" transform="scale(0.015625)"/>
      <path id="DejaVuSans-41" d="M 2188 4044 
L 1331 1722 
L 3047 1722 
L 2188 4044 
z
M 1831 4666 
L 2547 4666 
L 4325 0 
L 3669 0 
L 3244 1197 
L 1141 1197 
L 716 0 
L 50 0 
L 1831 4666 
z
" transform="scale(0.015625)"/>
      <path id="DejaVuSans-45" d="M 628 4666 
L 3578 4666 
L 3578 4134 
L 1259 4134 
L 1259 2753 
L 3481 2753 
L 3481 2222 
L 1259 2222 
L 1259 531 
L 3634 531 
L 3634 0 
L 628 0 
L 628 4666 
z
" transform="scale(0.015625)"/>
      <path id="DejaVuSans-53" d="M 3425 4513 
L 3425 3897 
Q 3066 4069 2747 4153 
Q 2428 4238 2131 4238 
Q 1616 4238 1336 4038 
Q 1056 3838 1056 3469 
Q 1056 3159 1242 3001 
Q 1428 2844 1947 2747 
L 2328 2669 
Q 3034 2534 3370 2195 
Q 3706 1856 3706 1288 
Q 3706 609 3251 259 
Q 2797 -91 1919 -91 
Q 1588 -91 1214 -16 
Q 841 59 441 206 
L 441 856 
Q 825 641 1194 531 
Q 1563 422 1919 422 
Q 2459 422 2753 634 
Q 3047 847 3047 1241 
Q 3047 1584 2836 1778 
Q 2625 1972 2144 2069 
L 1759 2144 
Q 1053 2284 737 2584 
Q 422 2884 422 3419 
Q 422 4038 858 4394 
Q 1294 4750 2059 4750 
Q 2388 4750 2728 4690 
Q 3069 4631 3425 4513 
z
" transform="scale(0.015625)"/>
     </defs>
     <use xlink:href="#DejaVuSans-43"/>
     <use xlink:href="#DejaVuSans-4d" x="69.824219"/>
     <use xlink:href="#DejaVuSans-41" x="156.103516"/>
     <use xlink:href="#DejaVuSans-2d" x="222.261719"/>
     <use xlink:href="#DejaVuSans-45" x="258.345703"/>
     <use xlink:href="#DejaVuSans-53" x="321.529297"/>
     <use xlink:href="#DejaVuSans-2d" x="385.005859"/>
     <use xlink:href="#DejaVuSans-32" x="421.089844"/>
     <use xlink:href="#DejaVuSans-30" x="484.712891"/>
    </g>
   </g>
   <g id="text_16">
    <!-- default -->
    <g transform="translate(386.578944 102.048085)scale(0.14 -0.14)">
     <use xlink:href="#DejaVuSans-64"/>
     <use xlink:href="#DejaVuSans-65" x="63.476562"/>
     <use xlink:href="#DejaVuSans-66" x="125"/>
     <use xlink:href="#DejaVuSans-61" x="160.205078"/>
     <use xlink:href="#DejaVuSans-75" x="221.484375"/>
     <use xlink:href="#DejaVuSans-6c" x="284.863281"/>
     <use xlink:href="#DejaVuSans-74" x="312.646484"/>
    </g>
   </g>
   <g id="text_17">
    <!-- best 2009 -->
    <g transform="translate(386.578944 36.937045)scale(0.14 -0.14)">
     <defs>
      <path id="DejaVuSans-62" d="M 3116 1747 
Q 3116 2381 2855 2742 
Q 2594 3103 2138 3103 
Q 1681 3103 1420 2742 
Q 1159 2381 1159 1747 
Q 1159 1113 1420 752 
Q 1681 391 2138 391 
Q 2594 391 2855 752 
Q 3116 1113 3116 1747 
z
M 1159 2969 
Q 1341 3281 1617 3432 
Q 1894 3584 2278 3584 
Q 2916 3584 3314 3078 
Q 3713 2572 3713 1747 
Q 3713 922 3314 415 
Q 2916 -91 2278 -91 
Q 1894 -91 1617 61 
Q 1341 213 1159 525 
L 1159 0 
L 581 0 
L 581 4863 
L 1159 4863 
L 1159 2969 
z
" transform="scale(0.015625)"/>
      <path id="DejaVuSans-39" d="M 703 97 
L 703 672 
Q 941 559 1184 500 
Q 1428 441 1663 441 
Q 2288 441 2617 861 
Q 2947 1281 2994 2138 
Q 2813 1869 2534 1725 
Q 2256 1581 1919 1581 
Q 1219 1581 811 2004 
Q 403 2428 403 3163 
Q 403 3881 828 4315 
Q 1253 4750 1959 4750 
Q 2769 4750 3195 4129 
Q 3622 3509 3622 2328 
Q 3622 1225 3098 567 
Q 2575 -91 1691 -91 
Q 1453 -91 1209 -44 
Q 966 3 703 97 
z
M 1959 2075 
Q 2384 2075 2632 2365 
Q 2881 2656 2881 3163 
Q 2881 3666 2632 3958 
Q 2384 4250 1959 4250 
Q 1534 4250 1286 3958 
Q 1038 3666 1038 3163 
Q 1038 2656 1286 2365 
Q 1534 2075 1959 2075 
z
" transform="scale(0.015625)"/>
     </defs>
     <use xlink:href="#DejaVuSans-62"/>
     <use xlink:href="#DejaVuSans-65" x="63.476562"/>
     <use xlink:href="#DejaVuSans-73" x="125"/>
     <use xlink:href="#DejaVuSans-74" x="177.099609"/>
     <use xlink:href="#DejaVuSans-20" x="216.308594"/>
     <use xlink:href="#DejaVuSans-32" x="248.095703"/>
     <use xlink:href="#DejaVuSans-30" x="311.71875"/>
     <use xlink:href="#DejaVuSans-30" x="375.341797"/>
     <use xlink:href="#DejaVuSans-39" x="438.964844"/>
    </g>
   </g>
   <g id="text_18">
    <!-- bbob f1, 20-D -->
    <g transform="translate(60.632064 38.111366)scale(0.102 -0.102)">
     <defs>
      <path id="DejaVuSans-44" d="M 1259 4147 
L 1259 519 
L 2022 519 
Q 2988 519 3436 956 
Q 3884 1394 3884 2338 
Q 3884 3275 3436 3711 
Q 2988 4147 2022 4147 
L 1259 4147 
z
M 628 4666 
L 1925 4666 
Q 3281 4666 3915 4102 
Q 4550 3538 4550 2338 
Q 4550 1131 3912 565 
Q 3275 0 1925 0 
L 628 0 
L 628 4666 
z
" transform="scale(0.015625)"/>
     </defs>
     <use xlink:href="#DejaVuSans-62"/>
     <use xlink:href="#DejaVuSans-62" x="63.476562"/>
     <use xlink:href="#DejaVuSans-6f" x="126.953125"/>
     <use xlink:href="#DejaVuSans-62" x="188.134766"/>
     <use xlink:href="#DejaVuSans-20" x="251.611328"/>
     <use xlink:href="#DejaVuSans-66" x="283.398438"/>
     <use xlink:href="#DejaVuSans-31" x="318.603516"/>
     <use xlink:href="#DejaVuSans-2c" x="382.226562"/>
     <use xlink:href="#DejaVuSans-20" x="414.013672"/>
     <use xlink:href="#DejaVuSans-32" x="445.800781"/>
     <use xlink:href="#DejaVuSans-30" x="509.423828"/>
     <use xlink:href="#DejaVuSans-2d" x="573.046875"/>
     <use xlink:href="#DejaVuSans-44" x="609.130859"/>
    </g>
    <!-- 51 targets: 100..1e-08 -->
    <g transform="translate(60.632064 49.533135)scale(0.102 -0.102)">
     <defs>
      <path id="DejaVuSans-35" d="M 691 4666 
L 3169 4666 
L 3169 4134 
L 1269 4134 
L 1269 2991 
Q 1406 3038 1543 3061 
Q 1681 3084 1819 3084 
Q 2600 3084 3056 2656 
Q 3513 2228 3513 1497 
Q 3513 744 3044 326 
Q 2575 -91 1722 -91 
Q 1428 -91 1123 -41 
Q 819 9 494 109 
L 494 744 
Q 775 591 1075 516 
Q 1375 441 1709 441 
Q 2250 441 2565 725 
Q 2881 1009 2881 1497 
Q 2881 1984 2565 2268 
Q 2250 2553 1709 2553 
Q 1456 2553 1204 2497 
Q 953 2441 691 2322 
L 691 4666 
z
" transform="scale(0.015625)"/>
      <path id="DejaVuSans-3a" d="M 750 794 
L 1409 794 
L 1409 0 
L 750 0 
L 750 794 
z
M 750 3309 
L 1409 3309 
L 1409 2516 
L 750 2516 
L 750 3309 
z
" transform="scale(0.015625)"/>
     </defs>
     <use xlink:href="#DejaVuSans-35"/>
     <use xlink:href="#DejaVuSans-31" x="63.623047"/>
     <use xlink:href="#DejaVuSans-20" x="127.246094"/>
     <use xlink:href="#DejaVuSans-74" x="159.033203"/>
     <use xlink:href="#DejaVuSans-61" x="198.242188"/>
     <use xlink:href="#DejaVuSans-72" x="259.521484"/>
     <use xlink:href="#DejaVuSans-67" x="298.884766"/>
     <use xlink:href="#DejaVuSans-65" x="362.361328"/>
     <use xlink:href="#DejaVuSans-74" x="423.884766"/>
     <use xlink:href="#DejaVuSans-73" x="463.09375"/>
     <use xlink:href="#DejaVuSans-3a" x="515.193359"/>
     <use xlink:href="#DejaVuSans-20" x="548.884766"/>
     <use xlink:href="#DejaVuSans-31" x="580.671875"/>
     <use xlink:href="#DejaVuSans-30" x="644.294922"/>
     <use xlink:href="#DejaVuSans-30" x="707.917969"/>
     <use xlink:href="#DejaVuSans-2e" x="771.541016"/>
     <use xlink:href="#DejaVuSans-2e" x="803.328125"/>
     <use xlink:href="#DejaVuSans-31" x="835.115234"/>
     <use xlink:href="#DejaVuSans-65" x="898.738281"/>
     <use xlink:href="#DejaVuSans-2d" x="960.261719"/>
     <use xlink:href="#DejaVuSans-30" x="996.345703"/>
     <use xlink:href="#DejaVuSans-38" x="1059.96875"/>
    </g>
    <!-- 5, 15 instances -->
    <g transform="translate(60.632064 60.954904)scale(0.102 -0.102)">
     <use xlink:href="#DejaVuSans-35"/>
     <use xlink:href="#DejaVuSans-2c" x="63.623047"/>
     <use xlink:href="#DejaVuSans-20" x="95.410156"/>
     <use xlink:href="#DejaVuSans-31" x="127.197266"/>
     <use xlink:href="#DejaVuSans-35" x="190.820312"/>
     <use xlink:href="#DejaVuSans-20" x="254.443359"/>
     <use xlink:href="#DejaVuSans-69" x="286.230469"/>
     <use xlink:href="#DejaVuSans-6e" x="314.013672"/>
     <use xlink:href="#DejaVuSans-73" x="377.392578"/>
     <use xlink:href="#DejaVuSans-74" x="429.492188"/>
     <use xlink:href="#DejaVuSans-61" x="468.701172"/>
     <use xlink:href="#DejaVuSans-6e" x="529.980469"/>
     <use xlink:href="#DejaVuSans-63" x="593.359375"/>
     <use xlink:href="#DejaVuSans-65" x="648.339844"/>
     <use xlink:href="#DejaVuSans-73" x="709.863281"/>
    </g>
   </g>
   <g id="text_19">
    <!-- v2.6 -->
    <g style="fill: #808080" transform="translate(198.292262 294.151352)scale(0.1 -0.1)">
     <use xlink:href="#DejaVuSans-76"/>
     <use xlink:href="#DejaVuSans-32" x="59.179688"/>
     <use xlink:href="#DejaVuSans-2e" x="122.802734"/>
     <use xlink:href="#DejaVuSans-36" x="154.589844"/>
    </g>
   </g>
   <g id="text_20">
    <!-- 1 Sphere -->
    <g transform="translate(164.436012 21.648)scale(0.2 -0.2)">
     <defs>
      <path id="DejaVuSans-68" d="M 3513 2113 
L 3513 0 
L 2938 0 
L 2938 2094 
Q 2938 2591 2744 2837 
Q 2550 3084 2163 3084 
Q 1697 3084 1428 2787 
Q 1159 2491 1159 1978 
L 1159 0 
L 581 0 
L 581 4863 
L 1159 4863 
L 1159 2956 
Q 1366 3272 1645 3428 
Q 1925 3584 2291 3584 
Q 2894 3584 3203 3211 
Q 3513 2838 3513 2113 
z
" transform="scale(0.015625)"/>
     </defs>
     <use xlink:href="#DejaVuSans-31"/>
     <use xlink:href="#DejaVuSans-20" x="63.623047"/>
     <use xlink:href="#DejaVuSans-53" x="95.410156"/>
     <use xlink:href="#DejaVuSans-70" x="158.886719"/>
     <use xlink:href="#DejaVuSans-68" x="222.363281"/>
     <use xlink:href="#DejaVuSans-65" x="285.742188"/>
     <use xlink:href="#DejaVuSans-72" x="347.265625"/>
     <use xlink:href="#DejaVuSans-65" x="386.128906"/>
    </g>
   </g>
  </g>
 </g>
 <defs>
  <clipPath id="pe497330463">
   <rect x="57.6" y="27.648" width="303.2064" height="271.296"/>
  </clipPath>
 </defs>
</svg>
