<?xml version="1.0" encoding="utf-8" standalone="no"?>
<!DOCTYPE svg PUBLIC "-//W3C//DTD SVG 1.1//EN"
  "http://www.w3.org/Graphics/SVG/1.1/DTD/svg11.dtd">
<svg xmlns:xlink="http://www.w3.org/1999/xlink" width="460.8pt" height="345.6pt" viewBox="0 0 460.8 345.6" xmlns="http://www.w3.org/2000/svg" version="1.1">
 <metadata>
  <rdf:RDF xmlns:dc="http://purl.org/dc/elements/1.1/" xmlns:cc="http://creativecommons.org/ns#" xmlns:rdf="http://www.w3.org/1999/02/22-rdf-syntax-ns#">
   <cc:Work>
    <dc:type rdf:resource="http://purl.org/dc/dcmitype/StillImage"/>
    <dc:date>2022-03-22T17:03:25.495635</dc:date>
    <dc:format>image/svg+xml</dc:format>
    <dc:creator>
     <cc:Agent>
      <dc:title>Matplotlib v3.5.1, https://matplotlib.org/</dc:title>
     </cc:Agent>
    </dc:creator>
   </cc:Work>
  </rdf:RDF>
 </metadata>
 <defs>
  <style type="text/css">*{stroke-linejoin: round; stroke-linecap: butt}</style>
 </defs>
 <g id="figure_1">
  <g id="patch_1">
   <path d="M 0 345.6 
L 460.8 345.6 
L 460.8 0 
L 0 0 
z
" style="fill: #ffffff"/>
  </g>
  <g id="axes_1">
   <g id="patch_2">
    <path d="M 57.6 298.944 
L 360.8064 298.944 
L 360.8064 27.648 
L 57.6 27.648 
z
" style="fill: #ffffff"/>
   </g>
   <g id="line2d_1">
    <path d="M 97.857967 298.944 
L 97.857967 293.624471 
L 99.650899 293.624471 
L 99.650899 288.304941 
L 101.922385 288.304941 
L 101.922385 282.985412 
L 104.187532 282.985412 
L 104.187532 277.665882 
L 118.671535 277.665882 
L 118.671535 272.346353 
L 123.145323 272.346353 
L 123.145323 267.026824 
L 123.825333 267.026824 
L 123.825333 261.707294 
L 127.776517 261.707294 
L 127.776517 256.387765 
L 141.436884 256.387765 
L 141.436884 251.068235 
L 142.895549 251.068235 
L 142.895549 245.748706 
L 144.426892 245.748706 
L 144.426892 240.429176 
L 145.773713 240.429176 
L 145.773713 235.109647 
L 146.949293 235.109647 
L 146.949293 229.790118 
L 148.185734 229.790118 
L 148.185734 224.470588 
L 149.158642 224.470588 
L 149.158642 219.151059 
L 150.227848 219.151059 
L 150.227848 213.831529 
L 151.239537 213.831529 
L 151.239537 208.512 
L 152.181101 208.512 
L 152.181101 203.192471 
L 153.113003 203.192471 
L 153.113003 197.872941 
L 153.911171 197.872941 
L 153.911171 192.553412 
L 154.795227 192.553412 
L 154.795227 187.233882 
L 155.731683 187.233882 
L 155.731683 181.914353 
L 159.317295 181.914353 
L 159.317295 176.594824 
L 178.578777 176.594824 
L 178.578777 171.275294 
L 185.67302 171.275294 
L 185.67302 165.955765 
L 186.330527 165.955765 
L 186.330527 160.636235 
L 186.884168 160.636235 
L 186.884168 155.316706 
L 187.352737 155.316706 
L 187.352737 149.997176 
L 187.989908 149.997176 
L 187.989908 144.677647 
L 188.57506 144.677647 
L 188.57506 139.358118 
L 189.095844 139.358118 
L 189.095844 134.038588 
L 189.566307 134.038588 
L 189.566307 128.719059 
L 190.02529 128.719059 
L 190.02529 123.399529 
L 190.478171 123.399529 
L 190.478171 118.08 
L 190.910969 118.08 
L 190.910969 112.760471 
L 191.328649 112.760471 
L 191.328649 107.440941 
L 191.792123 107.440941 
L 191.792123 102.121412 
L 192.228327 102.121412 
L 192.228327 96.801882 
L 192.67399 96.801882 
L 192.67399 91.482353 
L 193.085533 91.482353 
L 193.085533 86.162824 
L 193.485521 86.162824 
L 193.485521 80.843294 
L 193.869118 80.843294 
L 193.869118 75.523765 
L 194.234505 75.523765 
L 194.234505 70.204235 
L 194.548256 70.204235 
L 194.548256 64.884706 
L 194.937037 64.884706 
L 194.937037 59.565176 
L 195.298645 59.565176 
L 195.298645 54.245647 
L 195.665654 54.245647 
L 195.665654 48.926118 
L 195.957199 48.926118 
L 195.957199 43.606588 
L 196.295758 43.606588 
L 196.295758 38.287059 
L 196.601034 38.287059 
L 196.601034 32.967529 
L 196.883694 32.967529 
L 196.883694 27.648 
L 360.8064 27.648 
" style="fill: none; stroke: #f5deb3; stroke-width: 4; stroke-linecap: square"/>
   </g>
   <g id="line2d_2">
    <defs>
     <path id="m7dae0135c7" d="M -0 7.778175 
L 7.778175 0 
L 0 -7.778175 
L -7.778175 -0 
z
" style="stroke: #f5deb3; stroke-width: 1.5; stroke-linejoin: miter"/>
    </defs>
    <g>
     <use xlink:href="#m7dae0135c7" x="146.949293" y="229.790118" style="fill: #f5deb3; stroke: #f5deb3; stroke-width: 1.5; stroke-linejoin: miter"/>
     <use xlink:href="#m7dae0135c7" x="191.792123" y="102.121412" style="fill: #f5deb3; stroke: #f5deb3; stroke-width: 1.5; stroke-linejoin: miter"/>
     <use xlink:href="#m7dae0135c7" x="196.883694" y="32.967529" style="fill: #f5deb3; stroke: #f5deb3; stroke-width: 1.5; stroke-linejoin: miter"/>
     <use xlink:href="#m7dae0135c7" x="196.883694" y="27.648" style="fill: #f5deb3; stroke: #f5deb3; stroke-width: 1.5; stroke-linejoin: miter"/>
     <use xlink:href="#m7dae0135c7" x="360.8064" y="27.648" style="fill: #f5deb3; stroke: #f5deb3; stroke-width: 1.5; stroke-linejoin: miter"/>
    </g>
   </g>
   <g id="line2d_3">
    <path style="fill: none; stroke: #f5deb3; stroke-width: 4; stroke-linecap: square"/>
    <g/>
   </g>
   <g id="line2d_4">
    <path d="M 360.8064 27.648 
L 380.514816 33.07392 
" style="fill: none; stroke: #f5deb3; stroke-width: 4; stroke-linecap: square"/>
    <g>
     <use xlink:href="#m7dae0135c7" x="360.8064" y="27.648" style="fill: #f5deb3; stroke: #f5deb3; stroke-width: 1.5; stroke-linejoin: miter"/>
     <use xlink:href="#m7dae0135c7" x="380.514816" y="33.07392" style="fill: #f5deb3; stroke: #f5deb3; stroke-width: 1.5; stroke-linejoin: miter"/>
    </g>
   </g>
   <g id="matplotlib.axis_1">
    <g id="xtick_1">
     <g id="line2d_5">
      <path d="M 57.6 298.944 
L 57.6 27.648 
" clip-path="url(#p71d3771f38)" style="fill: none; stroke: #b0b0b0; stroke-width: 0.8; stroke-linecap: square"/>
     </g>
     <g id="line2d_6">
      <defs>
       <path id="ma0bee122ee" d="M 0 0 
L 0 3.5 
" style="stroke: #000000; stroke-width: 0.8"/>
      </defs>
      <g>
       <use xlink:href="#ma0bee122ee" x="57.6" y="298.944" style="stroke: #000000; stroke-width: 0.8"/>
      </g>
     </g>
     <g id="text_1">
      <!-- 0 -->
      <g transform="translate(52.191875 318.861344)scale(0.17 -0.17)">
       <defs>
        <path id="DejaVuSans-30" d="M 2034 4250 
Q 1547 4250 1301 3770 
Q 1056 3291 1056 2328 
Q 1056 1369 1301 889 
Q 1547 409 2034 409 
Q 2525 409 2770 889 
Q 3016 1369 3016 2328 
Q 3016 3291 2770 3770 
Q 2525 4250 2034 4250 
z
M 2034 4750 
Q 2819 4750 3233 4129 
Q 3647 3509 3647 2328 
Q 3647 1150 3233 529 
Q 2819 -91 2034 -91 
Q 1250 -91 836 529 
Q 422 1150 422 2328 
Q 422 3509 836 4129 
Q 1250 4750 2034 4750 
z
" transform="scale(0.015625)"/>
       </defs>
       <use xlink:href="#DejaVuSans-30"/>
      </g>
     </g>
    </g>
    <g id="xtick_2">
     <g id="line2d_7">
      <path d="M 144.2304 298.944 
L 144.2304 27.648 
" clip-path="url(#p71d3771f38)" style="fill: none; stroke: #b0b0b0; stroke-width: 0.8; stroke-linecap: square"/>
     </g>
     <g id="line2d_8">
      <g>
       <use xlink:href="#ma0bee122ee" x="144.2304" y="298.944" style="stroke: #000000; stroke-width: 0.8"/>
      </g>
     </g>
     <g id="text_2">
      <!-- 2 -->
      <g transform="translate(138.822275 318.861344)scale(0.17 -0.17)">
       <defs>
        <path id="DejaVuSans-32" d="M 1228 531 
L 3431 531 
L 3431 0 
L 469 0 
L 469 531 
Q 828 903 1448 1529 
Q 2069 2156 2228 2338 
Q 2531 2678 2651 2914 
Q 2772 3150 2772 3378 
Q 2772 3750 2511 3984 
Q 2250 4219 1831 4219 
Q 1534 4219 1204 4116 
Q 875 4013 500 3803 
L 500 4441 
Q 881 4594 1212 4672 
Q 1544 4750 1819 4750 
Q 2544 4750 2975 4387 
Q 3406 4025 3406 3419 
Q 3406 3131 3298 2873 
Q 3191 2616 2906 2266 
Q 2828 2175 2409 1742 
Q 1991 1309 1228 531 
z
" transform="scale(0.015625)"/>
       </defs>
       <use xlink:href="#DejaVuSans-32"/>
      </g>
     </g>
    </g>
    <g id="xtick_3">
     <g id="line2d_9">
      <path d="M 230.8608 298.944 
L 230.8608 27.648 
" clip-path="url(#p71d3771f38)" style="fill: none; stroke: #b0b0b0; stroke-width: 0.8; stroke-linecap: square"/>
     </g>
     <g id="line2d_10">
      <g>
       <use xlink:href="#ma0bee122ee" x="230.8608" y="298.944" style="stroke: #000000; stroke-width: 0.8"/>
      </g>
     </g>
     <g id="text_3">
      <!-- 4 -->
      <g transform="translate(225.452675 318.861344)scale(0.17 -0.17)">
       <defs>
        <path id="DejaVuSans-34" d="M 2419 4116 
L 825 1625 
L 2419 1625 
L 2419 4116 
z
M 2253 4666 
L 3047 4666 
L 3047 1625 
L 3713 1625 
L 3713 1100 
L 3047 1100 
L 3047 0 
L 2419 0 
L 2419 1100 
L 313 1100 
L 313 1709 
L 2253 4666 
z
" transform="scale(0.015625)"/>
       </defs>
       <use xlink:href="#DejaVuSans-34"/>
      </g>
     </g>
    </g>
    <g id="xtick_4">
     <g id="line2d_11">
      <path d="M 317.4912 298.944 
L 317.4912 27.648 
" clip-path="url(#p71d3771f38)" style="fill: none; stroke: #b0b0b0; stroke-width: 0.8; stroke-linecap: square"/>
     </g>
     <g id="line2d_12">
      <g>
       <use xlink:href="#ma0bee122ee" x="317.4912" y="298.944" style="stroke: #000000; stroke-width: 0.8"/>
      </g>
     </g>
     <g id="text_4">
      <!-- 6 -->
      <g transform="translate(312.083075 318.861344)scale(0.17 -0.17)">
       <defs>
        <path id="DejaVuSans-36" d="M 2113 2584 
Q 1688 2584 1439 2293 
Q 1191 2003 1191 1497 
Q 1191 994 1439 701 
Q 1688 409 2113 409 
Q 2538 409 2786 701 
Q 3034 994 3034 1497 
Q 3034 2003 2786 2293 
Q 2538 2584 2113 2584 
z
M 3366 4563 
L 3366 3988 
Q 3128 4100 2886 4159 
Q 2644 4219 2406 4219 
Q 1781 4219 1451 3797 
Q 1122 3375 1075 2522 
Q 1259 2794 1537 2939 
Q 1816 3084 2150 3084 
Q 2853 3084 3261 2657 
Q 3669 2231 3669 1497 
Q 3669 778 3244 343 
Q 2819 -91 2113 -91 
Q 1303 -91 875 529 
Q 447 1150 447 2328 
Q 447 3434 972 4092 
Q 1497 4750 2381 4750 
Q 2619 4750 2861 4703 
Q 3103 4656 3366 4563 
z
" transform="scale(0.015625)"/>
       </defs>
       <use xlink:href="#DejaVuSans-36"/>
      </g>
     </g>
    </g>
    <g id="xtick_5">
     <g id="line2d_13">
      <path d="M 100.9152 298.944 
L 100.9152 27.648 
" clip-path="url(#p71d3771f38)" style="fill: none; stroke: #b0b0b0; stroke-width: 0.8; stroke-linecap: square"/>
     </g>
     <g id="line2d_14">
      <defs>
       <path id="m9939dbe3c8" d="M 0 0 
L 0 2 
" style="stroke: #000000; stroke-width: 0.6"/>
      </defs>
      <g>
       <use xlink:href="#m9939dbe3c8" x="100.9152" y="298.944" style="stroke: #000000; stroke-width: 0.6"/>
      </g>
     </g>
    </g>
    <g id="xtick_6">
     <g id="line2d_15">
      <path d="M 187.5456 298.944 
L 187.5456 27.648 
" clip-path="url(#p71d3771f38)" style="fill: none; stroke: #b0b0b0; stroke-width: 0.8; stroke-linecap: square"/>
     </g>
     <g id="line2d_16">
      <g>
       <use xlink:href="#m9939dbe3c8" x="187.5456" y="298.944" style="stroke: #000000; stroke-width: 0.6"/>
      </g>
     </g>
    </g>
    <g id="xtick_7">
     <g id="line2d_17">
      <path d="M 274.176 298.944 
L 274.176 27.648 
" clip-path="url(#p71d3771f38)" style="fill: none; stroke: #b0b0b0; stroke-width: 0.8; stroke-linecap: square"/>
     </g>
     <g id="line2d_18">
      <g>
       <use xlink:href="#m9939dbe3c8" x="274.176" y="298.944" style="stroke: #000000; stroke-width: 0.6"/>
      </g>
     </g>
    </g>
    <g id="xtick_8">
     <g id="line2d_19">
      <path d="M 360.8064 298.944 
L 360.8064 27.648 
" clip-path="url(#p71d3771f38)" style="fill: none; stroke: #b0b0b0; stroke-width: 0.8; stroke-linecap: square"/>
     </g>
     <g id="line2d_20">
      <g>
       <use xlink:href="#m9939dbe3c8" x="360.8064" y="298.944" style="stroke: #000000; stroke-width: 0.6"/>
      </g>
     </g>
    </g>
    <g id="text_5">
     <!-- log10(# f-evals / dimension) -->
     <g transform="translate(88.823278 339.314156)scale(0.17 -0.17)">
      <defs>
       <path id="DejaVuSans-6c" d="M 603 4863 
L 1178 4863 
L 1178 0 
L 603 0 
L 603 4863 
z
" transform="scale(0.015625)"/>
       <path id="DejaVuSans-6f" d="M 1959 3097 
Q 1497 3097 1228 2736 
Q 959 2375 959 1747 
Q 959 1119 1226 758 
Q 1494 397 1959 397 
Q 2419 397 2687 759 
Q 2956 1122 2956 1747 
Q 2956 2369 2687 2733 
Q 2419 3097 1959 3097 
z
M 1959 3584 
Q 2709 3584 3137 3096 
Q 3566 2609 3566 1747 
Q 3566 888 3137 398 
Q 2709 -91 1959 -91 
Q 1206 -91 779 398 
Q 353 888 353 1747 
Q 353 2609 779 3096 
Q 1206 3584 1959 3584 
z
" transform="scale(0.015625)"/>
       <path id="DejaVuSans-67" d="M 2906 1791 
Q 2906 2416 2648 2759 
Q 2391 3103 1925 3103 
Q 1463 3103 1205 2759 
Q 947 2416 947 1791 
Q 947 1169 1205 825 
Q 1463 481 1925 481 
Q 2391 481 2648 825 
Q 2906 1169 2906 1791 
z
M 3481 434 
Q 3481 -459 3084 -895 
Q 2688 -1331 1869 -1331 
Q 1566 -1331 1297 -1286 
Q 1028 -1241 775 -1147 
L 775 -588 
Q 1028 -725 1275 -790 
Q 1522 -856 1778 -856 
Q 2344 -856 2625 -561 
Q 2906 -266 2906 331 
L 2906 616 
Q 2728 306 2450 153 
Q 2172 0 1784 0 
Q 1141 0 747 490 
Q 353 981 353 1791 
Q 353 2603 747 3093 
Q 1141 3584 1784 3584 
Q 2172 3584 2450 3431 
Q 2728 3278 2906 2969 
L 2906 3500 
L 3481 3500 
L 3481 434 
z
" transform="scale(0.015625)"/>
       <path id="DejaVuSans-31" d="M 794 531 
L 1825 531 
L 1825 4091 
L 703 3866 
L 703 4441 
L 1819 4666 
L 2450 4666 
L 2450 531 
L 3481 531 
L 3481 0 
L 794 0 
L 794 531 
z
" transform="scale(0.015625)"/>
       <path id="DejaVuSans-28" d="M 1984 4856 
Q 1566 4138 1362 3434 
Q 1159 2731 1159 2009 
Q 1159 1288 1364 580 
Q 1569 -128 1984 -844 
L 1484 -844 
Q 1016 -109 783 600 
Q 550 1309 550 2009 
Q 550 2706 781 3412 
Q 1013 4119 1484 4856 
L 1984 4856 
z
" transform="scale(0.015625)"/>
       <path id="DejaVuSans-23" d="M 3272 2816 
L 2363 2816 
L 2100 1772 
L 3016 1772 
L 3272 2816 
z
M 2803 4594 
L 2478 3297 
L 3391 3297 
L 3719 4594 
L 4219 4594 
L 3897 3297 
L 4872 3297 
L 4872 2816 
L 3775 2816 
L 3519 1772 
L 4513 1772 
L 4513 1294 
L 3397 1294 
L 3072 0 
L 2572 0 
L 2894 1294 
L 1978 1294 
L 1656 0 
L 1153 0 
L 1478 1294 
L 494 1294 
L 494 1772 
L 1594 1772 
L 1856 2816 
L 850 2816 
L 850 3297 
L 1978 3297 
L 2297 4594 
L 2803 4594 
z
" transform="scale(0.015625)"/>
       <path id="DejaVuSans-20" transform="scale(0.015625)"/>
       <path id="DejaVuSans-66" d="M 2375 4863 
L 2375 4384 
L 1825 4384 
Q 1516 4384 1395 4259 
Q 1275 4134 1275 3809 
L 1275 3500 
L 2222 3500 
L 2222 3053 
L 1275 3053 
L 1275 0 
L 697 0 
L 697 3053 
L 147 3053 
L 147 3500 
L 697 3500 
L 697 3744 
Q 697 4328 969 4595 
Q 1241 4863 1831 4863 
L 2375 4863 
z
" transform="scale(0.015625)"/>
       <path id="DejaVuSans-2d" d="M 313 2009 
L 1997 2009 
L 1997 1497 
L 313 1497 
L 313 2009 
z
" transform="scale(0.015625)"/>
       <path id="DejaVuSans-65" d="M 3597 1894 
L 3597 1613 
L 953 1613 
Q 991 1019 1311 708 
Q 1631 397 2203 397 
Q 2534 397 2845 478 
Q 3156 559 3463 722 
L 3463 178 
Q 3153 47 2828 -22 
Q 2503 -91 2169 -91 
Q 1331 -91 842 396 
Q 353 884 353 1716 
Q 353 2575 817 3079 
Q 1281 3584 2069 3584 
Q 2775 3584 3186 3129 
Q 3597 2675 3597 1894 
z
M 3022 2063 
Q 3016 2534 2758 2815 
Q 2500 3097 2075 3097 
Q 1594 3097 1305 2825 
Q 1016 2553 972 2059 
L 3022 2063 
z
" transform="scale(0.015625)"/>
       <path id="DejaVuSans-76" d="M 191 3500 
L 800 3500 
L 1894 563 
L 2988 3500 
L 3597 3500 
L 2284 0 
L 1503 0 
L 191 3500 
z
" transform="scale(0.015625)"/>
       <path id="DejaVuSans-61" d="M 2194 1759 
Q 1497 1759 1228 1600 
Q 959 1441 959 1056 
Q 959 750 1161 570 
Q 1363 391 1709 391 
Q 2188 391 2477 730 
Q 2766 1069 2766 1631 
L 2766 1759 
L 2194 1759 
z
M 3341 1997 
L 3341 0 
L 2766 0 
L 2766 531 
Q 2569 213 2275 61 
Q 1981 -91 1556 -91 
Q 1019 -91 701 211 
Q 384 513 384 1019 
Q 384 1609 779 1909 
Q 1175 2209 1959 2209 
L 2766 2209 
L 2766 2266 
Q 2766 2663 2505 2880 
Q 2244 3097 1772 3097 
Q 1472 3097 1187 3025 
Q 903 2953 641 2809 
L 641 3341 
Q 956 3463 1253 3523 
Q 1550 3584 1831 3584 
Q 2591 3584 2966 3190 
Q 3341 2797 3341 1997 
z
" transform="scale(0.015625)"/>
       <path id="DejaVuSans-73" d="M 2834 3397 
L 2834 2853 
Q 2591 2978 2328 3040 
Q 2066 3103 1784 3103 
Q 1356 3103 1142 2972 
Q 928 2841 928 2578 
Q 928 2378 1081 2264 
Q 1234 2150 1697 2047 
L 1894 2003 
Q 2506 1872 2764 1633 
Q 3022 1394 3022 966 
Q 3022 478 2636 193 
Q 2250 -91 1575 -91 
Q 1294 -91 989 -36 
Q 684 19 347 128 
L 347 722 
Q 666 556 975 473 
Q 1284 391 1588 391 
Q 1994 391 2212 530 
Q 2431 669 2431 922 
Q 2431 1156 2273 1281 
Q 2116 1406 1581 1522 
L 1381 1569 
Q 847 1681 609 1914 
Q 372 2147 372 2553 
Q 372 3047 722 3315 
Q 1072 3584 1716 3584 
Q 2034 3584 2315 3537 
Q 2597 3491 2834 3397 
z
" transform="scale(0.015625)"/>
       <path id="DejaVuSans-2f" d="M 1625 4666 
L 2156 4666 
L 531 -594 
L 0 -594 
L 1625 4666 
z
" transform="scale(0.015625)"/>
       <path id="DejaVuSans-64" d="M 2906 2969 
L 2906 4863 
L 3481 4863 
L 3481 0 
L 2906 0 
L 2906 525 
Q 2725 213 2448 61 
Q 2172 -91 1784 -91 
Q 1150 -91 751 415 
Q 353 922 353 1747 
Q 353 2572 751 3078 
Q 1150 3584 1784 3584 
Q 2172 3584 2448 3432 
Q 2725 3281 2906 2969 
z
M 947 1747 
Q 947 1113 1208 752 
Q 1469 391 1925 391 
Q 2381 391 2643 752 
Q 2906 1113 2906 1747 
Q 2906 2381 2643 2742 
Q 2381 3103 1925 3103 
Q 1469 3103 1208 2742 
Q 947 2381 947 1747 
z
" transform="scale(0.015625)"/>
       <path id="DejaVuSans-69" d="M 603 3500 
L 1178 3500 
L 1178 0 
L 603 0 
L 603 3500 
z
M 603 4863 
L 1178 4863 
L 1178 4134 
L 603 4134 
L 603 4863 
z
" transform="scale(0.015625)"/>
       <path id="DejaVuSans-6d" d="M 3328 2828 
Q 3544 3216 3844 3400 
Q 4144 3584 4550 3584 
Q 5097 3584 5394 3201 
Q 5691 2819 5691 2113 
L 5691 0 
L 5113 0 
L 5113 2094 
Q 5113 2597 4934 2840 
Q 4756 3084 4391 3084 
Q 3944 3084 3684 2787 
Q 3425 2491 3425 1978 
L 3425 0 
L 2847 0 
L 2847 2094 
Q 2847 2600 2669 2842 
Q 2491 3084 2119 3084 
Q 1678 3084 1418 2786 
Q 1159 2488 1159 1978 
L 1159 0 
L 581 0 
L 581 3500 
L 1159 3500 
L 1159 2956 
Q 1356 3278 1631 3431 
Q 1906 3584 2284 3584 
Q 2666 3584 2933 3390 
Q 3200 3197 3328 2828 
z
" transform="scale(0.015625)"/>
       <path id="DejaVuSans-6e" d="M 3513 2113 
L 3513 0 
L 2938 0 
L 2938 2094 
Q 2938 2591 2744 2837 
Q 2550 3084 2163 3084 
Q 1697 3084 1428 2787 
Q 1159 2491 1159 1978 
L 1159 0 
L 581 0 
L 581 3500 
L 1159 3500 
L 1159 2956 
Q 1366 3272 1645 3428 
Q 1925 3584 2291 3584 
Q 2894 3584 3203 3211 
Q 3513 2838 3513 2113 
z
" transform="scale(0.015625)"/>
       <path id="DejaVuSans-29" d="M 513 4856 
L 1013 4856 
Q 1481 4119 1714 3412 
Q 1947 2706 1947 2009 
Q 1947 1309 1714 600 
Q 1481 -109 1013 -844 
L 513 -844 
Q 928 -128 1133 580 
Q 1338 1288 1338 2009 
Q 1338 2731 1133 3434 
Q 928 4138 513 4856 
z
" transform="scale(0.015625)"/>
      </defs>
      <use xlink:href="#DejaVuSans-6c"/>
      <use xlink:href="#DejaVuSans-6f" x="27.783203"/>
      <use xlink:href="#DejaVuSans-67" x="88.964844"/>
      <use xlink:href="#DejaVuSans-31" x="152.441406"/>
      <use xlink:href="#DejaVuSans-30" x="216.064453"/>
      <use xlink:href="#DejaVuSans-28" x="279.6875"/>
      <use xlink:href="#DejaVuSans-23" x="318.701172"/>
      <use xlink:href="#DejaVuSans-20" x="402.490234"/>
      <use xlink:href="#DejaVuSans-66" x="434.277344"/>
      <use xlink:href="#DejaVuSans-2d" x="463.982422"/>
      <use xlink:href="#DejaVuSans-65" x="500.066406"/>
      <use xlink:href="#DejaVuSans-76" x="561.589844"/>
      <use xlink:href="#DejaVuSans-61" x="620.769531"/>
      <use xlink:href="#DejaVuSans-6c" x="682.048828"/>
      <use xlink:href="#DejaVuSans-73" x="709.832031"/>
      <use xlink:href="#DejaVuSans-20" x="761.931641"/>
      <use xlink:href="#DejaVuSans-2f" x="793.71875"/>
      <use xlink:href="#DejaVuSans-20" x="827.410156"/>
      <use xlink:href="#DejaVuSans-64" x="859.197266"/>
      <use xlink:href="#DejaVuSans-69" x="922.673828"/>
      <use xlink:href="#DejaVuSans-6d" x="950.457031"/>
      <use xlink:href="#DejaVuSans-65" x="1047.869141"/>
      <use xlink:href="#DejaVuSans-6e" x="1109.392578"/>
      <use xlink:href="#DejaVuSans-73" x="1172.771484"/>
      <use xlink:href="#DejaVuSans-69" x="1224.871094"/>
      <use xlink:href="#DejaVuSans-6f" x="1252.654297"/>
      <use xlink:href="#DejaVuSans-6e" x="1313.835938"/>
      <use xlink:href="#DejaVuSans-29" x="1377.214844"/>
     </g>
    </g>
   </g>
   <g id="matplotlib.axis_2">
    <g id="ytick_1">
     <g id="line2d_21">
      <path d="M 57.6 298.944 
L 360.8064 298.944 
" clip-path="url(#p71d3771f38)" style="fill: none; stroke: #b0b0b0; stroke-width: 0.8; stroke-linecap: square"/>
     </g>
     <g id="line2d_22">
      <defs>
       <path id="m184f429191" d="M 0 0 
L -3.5 0 
" style="stroke: #000000; stroke-width: 0.8"/>
      </defs>
      <g>
       <use xlink:href="#m184f429191" x="57.6" y="298.944" style="stroke: #000000; stroke-width: 0.8"/>
      </g>
     </g>
     <g id="text_6">
      <!-- 0.0 -->
      <g transform="translate(25.155 305.02275)scale(0.16 -0.16)">
       <defs>
        <path id="DejaVuSans-2e" d="M 684 794 
L 1344 794 
L 1344 0 
L 684 0 
L 684 794 
z
" transform="scale(0.015625)"/>
       </defs>
       <use xlink:href="#DejaVuSans-30"/>
       <use xlink:href="#DejaVuSans-2e" x="63.623047"/>
       <use xlink:href="#DejaVuSans-30" x="95.410156"/>
      </g>
     </g>
    </g>
    <g id="ytick_2">
     <g id="line2d_23">
      <path d="M 57.6 244.6848 
L 360.8064 244.6848 
" clip-path="url(#p71d3771f38)" style="fill: none; stroke: #b0b0b0; stroke-width: 0.8; stroke-linecap: square"/>
     </g>
     <g id="line2d_24">
      <g>
       <use xlink:href="#m184f429191" x="57.6" y="244.6848" style="stroke: #000000; stroke-width: 0.8"/>
      </g>
     </g>
     <g id="text_7">
      <!-- 0.2 -->
      <g transform="translate(25.155 250.76355)scale(0.16 -0.16)">
       <use xlink:href="#DejaVuSans-30"/>
       <use xlink:href="#DejaVuSans-2e" x="63.623047"/>
       <use xlink:href="#DejaVuSans-32" x="95.410156"/>
      </g>
     </g>
    </g>
    <g id="ytick_3">
     <g id="line2d_25">
      <path d="M 57.6 190.4256 
L 360.8064 190.4256 
" clip-path="url(#p71d3771f38)" style="fill: none; stroke: #b0b0b0; stroke-width: 0.8; stroke-linecap: square"/>
     </g>
     <g id="line2d_26">
      <g>
       <use xlink:href="#m184f429191" x="57.6" y="190.4256" style="stroke: #000000; stroke-width: 0.8"/>
      </g>
     </g>
     <g id="text_8">
      <!-- 0.4 -->
      <g transform="translate(25.155 196.50435)scale(0.16 -0.16)">
       <use xlink:href="#DejaVuSans-30"/>
       <use xlink:href="#DejaVuSans-2e" x="63.623047"/>
       <use xlink:href="#DejaVuSans-34" x="95.410156"/>
      </g>
     </g>
    </g>
    <g id="ytick_4">
     <g id="line2d_27">
      <path d="M 57.6 136.1664 
L 360.8064 136.1664 
" clip-path="url(#p71d3771f38)" style="fill: none; stroke: #b0b0b0; stroke-width: 0.8; stroke-linecap: square"/>
     </g>
     <g id="line2d_28">
      <g>
       <use xlink:href="#m184f429191" x="57.6" y="136.1664" style="stroke: #000000; stroke-width: 0.8"/>
      </g>
     </g>
     <g id="text_9">
      <!-- 0.6 -->
      <g transform="translate(25.155 142.24515)scale(0.16 -0.16)">
       <use xlink:href="#DejaVuSans-30"/>
       <use xlink:href="#DejaVuSans-2e" x="63.623047"/>
       <use xlink:href="#DejaVuSans-36" x="95.410156"/>
      </g>
     </g>
    </g>
    <g id="ytick_5">
     <g id="line2d_29">
      <path d="M 57.6 81.9072 
L 360.8064 81.9072 
" clip-path="url(#p71d3771f38)" style="fill: none; stroke: #b0b0b0; stroke-width: 0.8; stroke-linecap: square"/>
     </g>
     <g id="line2d_30">
      <g>
       <use xlink:href="#m184f429191" x="57.6" y="81.9072" style="stroke: #000000; stroke-width: 0.8"/>
      </g>
     </g>
     <g id="text_10">
      <!-- 0.8 -->
      <g transform="translate(25.155 87.98595)scale(0.16 -0.16)">
       <defs>
        <path id="DejaVuSans-38" d="M 2034 2216 
Q 1584 2216 1326 1975 
Q 1069 1734 1069 1313 
Q 1069 891 1326 650 
Q 1584 409 2034 409 
Q 2484 409 2743 651 
Q 3003 894 3003 1313 
Q 3003 1734 2745 1975 
Q 2488 2216 2034 2216 
z
M 1403 2484 
Q 997 2584 770 2862 
Q 544 3141 544 3541 
Q 544 4100 942 4425 
Q 1341 4750 2034 4750 
Q 2731 4750 3128 4425 
Q 3525 4100 3525 3541 
Q 3525 3141 3298 2862 
Q 3072 2584 2669 2484 
Q 3125 2378 3379 2068 
Q 3634 1759 3634 1313 
Q 3634 634 3220 271 
Q 2806 -91 2034 -91 
Q 1263 -91 848 271 
Q 434 634 434 1313 
Q 434 1759 690 2068 
Q 947 2378 1403 2484 
z
M 1172 3481 
Q 1172 3119 1398 2916 
Q 1625 2713 2034 2713 
Q 2441 2713 2670 2916 
Q 2900 3119 2900 3481 
Q 2900 3844 2670 4047 
Q 2441 4250 2034 4250 
Q 1625 4250 1398 4047 
Q 1172 3844 1172 3481 
z
" transform="scale(0.015625)"/>
       </defs>
       <use xlink:href="#DejaVuSans-30"/>
       <use xlink:href="#DejaVuSans-2e" x="63.623047"/>
       <use xlink:href="#DejaVuSans-38" x="95.410156"/>
      </g>
     </g>
    </g>
    <g id="ytick_6">
     <g id="line2d_31">
      <path d="M 57.6 27.648 
L 360.8064 27.648 
" clip-path="url(#p71d3771f38)" style="fill: none; stroke: #b0b0b0; stroke-width: 0.8; stroke-linecap: square"/>
     </g>
     <g id="line2d_32">
      <g>
       <use xlink:href="#m184f429191" x="57.6" y="27.648" style="stroke: #000000; stroke-width: 0.8"/>
      </g>
     </g>
     <g id="text_11">
      <!-- 1.0 -->
      <g transform="translate(25.155 33.72675)scale(0.16 -0.16)">
       <use xlink:href="#DejaVuSans-31"/>
       <use xlink:href="#DejaVuSans-2e" x="63.623047"/>
       <use xlink:href="#DejaVuSans-30" x="95.410156"/>
      </g>
     </g>
    </g>
    <g id="text_12">
     <!-- Fraction of function,target pairs -->
     <g transform="translate(17.619531 297.681)rotate(-90)scale(0.17 -0.17)">
      <defs>
       <path id="DejaVuSans-46" d="M 628 4666 
L 3309 4666 
L 3309 4134 
L 1259 4134 
L 1259 2759 
L 3109 2759 
L 3109 2228 
L 1259 2228 
L 1259 0 
L 628 0 
L 628 4666 
z
" transform="scale(0.015625)"/>
       <path id="DejaVuSans-72" d="M 2631 2963 
Q 2534 3019 2420 3045 
Q 2306 3072 2169 3072 
Q 1681 3072 1420 2755 
Q 1159 2438 1159 1844 
L 1159 0 
L 581 0 
L 581 3500 
L 1159 3500 
L 1159 2956 
Q 1341 3275 1631 3429 
Q 1922 3584 2338 3584 
Q 2397 3584 2469 3576 
Q 2541 3569 2628 3553 
L 2631 2963 
z
" transform="scale(0.015625)"/>
       <path id="DejaVuSans-63" d="M 3122 3366 
L 3122 2828 
Q 2878 2963 2633 3030 
Q 2388 3097 2138 3097 
Q 1578 3097 1268 2742 
Q 959 2388 959 1747 
Q 959 1106 1268 751 
Q 1578 397 2138 397 
Q 2388 397 2633 464 
Q 2878 531 3122 666 
L 3122 134 
Q 2881 22 2623 -34 
Q 2366 -91 2075 -91 
Q 1284 -91 818 406 
Q 353 903 353 1747 
Q 353 2603 823 3093 
Q 1294 3584 2113 3584 
Q 2378 3584 2631 3529 
Q 2884 3475 3122 3366 
z
" transform="scale(0.015625)"/>
       <path id="DejaVuSans-74" d="M 1172 4494 
L 1172 3500 
L 2356 3500 
L 2356 3053 
L 1172 3053 
L 1172 1153 
Q 1172 725 1289 603 
Q 1406 481 1766 481 
L 2356 481 
L 2356 0 
L 1766 0 
Q 1100 0 847 248 
Q 594 497 594 1153 
L 594 3053 
L 172 3053 
L 172 3500 
L 594 3500 
L 594 4494 
L 1172 4494 
z
" transform="scale(0.015625)"/>
       <path id="DejaVuSans-75" d="M 544 1381 
L 544 3500 
L 1119 3500 
L 1119 1403 
Q 1119 906 1312 657 
Q 1506 409 1894 409 
Q 2359 409 2629 706 
Q 2900 1003 2900 1516 
L 2900 3500 
L 3475 3500 
L 3475 0 
L 2900 0 
L 2900 538 
Q 2691 219 2414 64 
Q 2138 -91 1772 -91 
Q 1169 -91 856 284 
Q 544 659 544 1381 
z
M 1991 3584 
L 1991 3584 
z
" transform="scale(0.015625)"/>
       <path id="DejaVuSans-2c" d="M 750 794 
L 1409 794 
L 1409 256 
L 897 -744 
L 494 -744 
L 750 256 
L 750 794 
z
" transform="scale(0.015625)"/>
       <path id="DejaVuSans-70" d="M 1159 525 
L 1159 -1331 
L 581 -1331 
L 581 3500 
L 1159 3500 
L 1159 2969 
Q 1341 3281 1617 3432 
Q 1894 3584 2278 3584 
Q 2916 3584 3314 3078 
Q 3713 2572 3713 1747 
Q 3713 922 3314 415 
Q 2916 -91 2278 -91 
Q 1894 -91 1617 61 
Q 1341 213 1159 525 
z
M 3116 1747 
Q 3116 2381 2855 2742 
Q 2594 3103 2138 3103 
Q 1681 3103 1420 2742 
Q 1159 2381 1159 1747 
Q 1159 1113 1420 752 
Q 1681 391 2138 391 
Q 2594 391 2855 752 
Q 3116 1113 3116 1747 
z
" transform="scale(0.015625)"/>
      </defs>
      <use xlink:href="#DejaVuSans-46"/>
      <use xlink:href="#DejaVuSans-72" x="50.269531"/>
      <use xlink:href="#DejaVuSans-61" x="91.382812"/>
      <use xlink:href="#DejaVuSans-63" x="152.662109"/>
      <use xlink:href="#DejaVuSans-74" x="207.642578"/>
      <use xlink:href="#DejaVuSans-69" x="246.851562"/>
      <use xlink:href="#DejaVuSans-6f" x="274.634766"/>
      <use xlink:href="#DejaVuSans-6e" x="335.816406"/>
      <use xlink:href="#DejaVuSans-20" x="399.195312"/>
      <use xlink:href="#DejaVuSans-6f" x="430.982422"/>
      <use xlink:href="#DejaVuSans-66" x="492.164062"/>
      <use xlink:href="#DejaVuSans-20" x="527.369141"/>
      <use xlink:href="#DejaVuSans-66" x="559.15625"/>
      <use xlink:href="#DejaVuSans-75" x="594.361328"/>
      <use xlink:href="#DejaVuSans-6e" x="657.740234"/>
      <use xlink:href="#DejaVuSans-63" x="721.119141"/>
      <use xlink:href="#DejaVuSans-74" x="776.099609"/>
      <use xlink:href="#DejaVuSans-69" x="815.308594"/>
      <use xlink:href="#DejaVuSans-6f" x="843.091797"/>
      <use xlink:href="#DejaVuSans-6e" x="904.273438"/>
      <use xlink:href="#DejaVuSans-2c" x="967.652344"/>
      <use xlink:href="#DejaVuSans-74" x="999.439453"/>
      <use xlink:href="#DejaVuSans-61" x="1038.648438"/>
      <use xlink:href="#DejaVuSans-72" x="1099.927734"/>
      <use xlink:href="#DejaVuSans-67" x="1139.291016"/>
      <use xlink:href="#DejaVuSans-65" x="1202.767578"/>
      <use xlink:href="#DejaVuSans-74" x="1264.291016"/>
      <use xlink:href="#DejaVuSans-20" x="1303.5"/>
      <use xlink:href="#DejaVuSans-70" x="1335.287109"/>
      <use xlink:href="#DejaVuSans-61" x="1398.763672"/>
      <use xlink:href="#DejaVuSans-69" x="1460.042969"/>
      <use xlink:href="#DejaVuSans-72" x="1487.826172"/>
      <use xlink:href="#DejaVuSans-73" x="1528.939453"/>
     </g>
    </g>
   </g>
   <g id="line2d_33">
    <defs>
     <path id="mbcf6c248f9" d="M 0 1.5 
C 0.397805 1.5 0.77937 1.341951 1.06066 1.06066 
C 1.341951 0.77937 1.5 0.397805 1.5 0 
C 1.5 -0.397805 1.341951 -0.77937 1.06066 -1.06066 
C 0.77937 -1.341951 0.397805 -1.5 0 -1.5 
C -0.397805 -1.5 -0.77937 -1.341951 -1.06066 -1.06066 
C -1.341951 -0.77937 -1.5 -0.397805 -1.5 0 
C -1.5 0.397805 -1.341951 0.77937 -1.06066 1.06066 
C -0.77937 1.341951 -0.397805 1.5 0 1.5 
z
" style="stroke: #f5deb3"/>
    </defs>
    <g>
     <use xlink:href="#mbcf6c248f9" x="196.883694" y="27.648" style="fill: #f5deb3; stroke: #f5deb3"/>
     <use xlink:href="#mbcf6c248f9" x="196.883694" y="27.648" style="fill: #f5deb3; stroke: #f5deb3"/>
    </g>
   </g>
   <g id="line2d_34">
    <defs>
     <path id="ma7b0506db1" d="M 0 1.5 
C 0.397805 1.5 0.77937 1.341951 1.06066 1.06066 
C 1.341951 0.77937 1.5 0.397805 1.5 0 
C 1.5 -0.397805 1.341951 -0.77937 1.06066 -1.06066 
C 0.77937 -1.341951 0.397805 -1.5 0 -1.5 
C -0.397805 -1.5 -0.77937 -1.341951 -1.06066 -1.06066 
C -1.341951 -0.77937 -1.5 -0.397805 -1.5 0 
C -1.5 0.397805 -1.341951 0.77937 -1.06066 1.06066 
C -0.77937 1.341951 -0.397805 1.5 0 1.5 
z
" style="stroke: #000080"/>
    </defs>
    <g>
     <use xlink:href="#ma7b0506db1" x="216.18467" y="27.648" style="fill: #000080; stroke: #000080"/>
     <use xlink:href="#ma7b0506db1" x="216.18467" y="27.648" style="fill: #000080; stroke: #000080"/>
    </g>
   </g>
   <g id="line2d_35">
    <path d="M 121.424383 298.944 
L 121.424383 297.880094 
L 124.400822 297.880094 
L 124.400822 296.816188 
L 125.60308 296.816188 
L 125.60308 295.752282 
L 126.396307 295.752282 
L 126.396307 294.688376 
L 126.946461 294.688376 
L 126.946461 293.624471 
L 127.134109 293.624471 
L 127.134109 292.560565 
L 128.657782 292.560565 
L 128.657782 291.496659 
L 129.354977 291.496659 
L 129.354977 290.432753 
L 130.00723 290.432753 
L 130.00723 289.368847 
L 130.305359 289.368847 
L 130.305359 288.304941 
L 131.228811 288.304941 
L 131.228811 287.241035 
L 131.378407 287.241035 
L 131.378407 286.177129 
L 132.073179 286.177129 
L 132.073179 285.113224 
L 132.287354 285.113224 
L 132.287354 284.049318 
L 133.171339 284.049318 
L 133.188264 281.921506 
L 133.30631 281.921506 
L 133.30631 280.8576 
L 133.639562 280.8576 
L 133.639562 279.793694 
L 134.336666 279.793694 
L 134.384351 277.665882 
L 135.687504 277.665882 
L 135.687504 276.601976 
L 136.097741 276.601976 
L 136.097741 275.538071 
L 136.456614 275.538071 
L 136.456614 274.474165 
L 136.738864 274.474165 
L 136.794809 271.282447 
L 137.945929 271.282447 
L 137.998402 269.154635 
L 138.527976 269.154635 
L 138.527976 268.090729 
L 139.496066 268.090729 
L 139.496066 267.026824 
L 140.032723 267.026824 
L 140.032723 265.962918 
L 140.393711 265.962918 
L 140.43979 263.835106 
L 140.508697 263.835106 
L 140.508697 262.7712 
L 140.634374 262.7712 
L 140.634374 261.707294 
L 141.50224 261.707294 
L 141.50224 260.643388 
L 142.651636 260.643388 
L 142.661862 258.515576 
L 142.905644 258.515576 
L 142.905644 257.451671 
L 143.462475 257.451671 
L 143.462475 256.387765 
L 143.984246 256.387765 
L 143.984246 255.323859 
L 144.922928 255.323859 
L 145.013368 253.196047 
L 145.139259 253.196047 
L 145.139259 252.132141 
L 145.432709 252.132141 
L 145.432709 251.068235 
L 145.93763 251.068235 
L 145.93763 250.004329 
L 146.941151 250.004329 
L 146.941151 248.940424 
L 147.216013 248.940424 
L 147.216013 247.876518 
L 147.707122 247.876518 
L 147.707122 246.812612 
L 147.893838 246.812612 
L 147.893838 245.748706 
L 148.397954 245.748706 
L 148.397954 244.6848 
L 149.700841 244.6848 
L 149.721926 242.556988 
L 150.760445 242.556988 
L 150.760445 241.493082 
L 151.426526 241.493082 
L 151.426526 240.429176 
L 152.523139 240.429176 
L 152.523139 239.365271 
L 152.673849 239.365271 
L 152.673849 238.301365 
L 153.821002 238.301365 
L 153.821002 237.237459 
L 155.235253 237.237459 
L 155.235253 236.173553 
L 156.025382 236.173553 
L 156.025382 235.109647 
L 156.937458 235.109647 
L 156.937458 234.045741 
L 157.632869 234.045741 
L 157.632869 232.981835 
L 158.392304 232.981835 
L 158.392304 231.917929 
L 158.782536 231.917929 
L 158.782536 230.854024 
L 159.405662 230.854024 
L 159.405662 229.790118 
L 159.672437 229.790118 
L 159.672437 228.726212 
L 160.283256 228.726212 
L 160.283256 227.662306 
L 160.593212 227.662306 
L 160.593212 226.5984 
L 161.033383 226.5984 
L 161.033383 225.534494 
L 161.523601 225.534494 
L 161.523601 224.470588 
L 161.78436 224.470588 
L 161.78436 223.406682 
L 162.161592 223.406682 
L 162.161592 222.342776 
L 162.56338 222.342776 
L 162.56338 221.278871 
L 162.820714 221.278871 
L 162.820714 220.214965 
L 163.511597 220.214965 
L 163.511597 219.151059 
L 163.789646 219.151059 
L 163.789646 218.087153 
L 163.94859 218.087153 
L 163.94859 217.023247 
L 164.099661 217.023247 
L 164.099661 215.959341 
L 164.2138 215.959341 
L 164.2138 214.895435 
L 164.552117 214.895435 
L 164.552117 213.831529 
L 164.790101 213.831529 
L 164.859342 211.703718 
L 165.330896 211.703718 
L 165.330896 210.639812 
L 165.459136 210.639812 
L 165.459136 209.575906 
L 165.616708 209.575906 
L 165.616708 208.512 
L 165.981296 208.512 
L 165.981296 207.448094 
L 166.309891 207.448094 
L 166.376665 205.320282 
L 166.672826 205.320282 
L 166.672826 204.256376 
L 166.899679 204.256376 
L 166.899679 203.192471 
L 167.364598 203.192471 
L 167.364598 202.128565 
L 167.670084 202.128565 
L 167.670084 201.064659 
L 167.887965 201.064659 
L 167.909348 198.936847 
L 168.250832 198.936847 
L 168.292758 196.809035 
L 168.537202 196.809035 
L 168.624842 194.681224 
L 168.882801 194.681224 
L 168.882801 193.617318 
L 169.167277 193.617318 
L 169.167277 192.553412 
L 169.37105 192.553412 
L 169.393282 190.4256 
L 169.784185 190.4256 
L 169.892679 188.297788 
L 170.079265 188.297788 
L 170.079265 187.233882 
L 170.37916 187.233882 
L 170.37916 186.169976 
L 170.579558 186.169976 
L 170.579558 185.106071 
L 170.7503 185.106071 
L 170.7503 184.042165 
L 170.914954 184.042165 
L 170.914954 182.978259 
L 171.116512 182.978259 
L 171.116512 181.914353 
L 171.38046 181.914353 
L 171.38046 180.850447 
L 171.625414 180.850447 
L 171.625414 179.786541 
L 171.832556 179.786541 
L 171.832556 178.722635 
L 172.137987 178.722635 
L 172.137987 177.658729 
L 172.455328 177.658729 
L 172.455328 176.594824 
L 172.682617 176.594824 
L 172.682617 175.530918 
L 173.094677 175.530918 
L 173.094677 174.467012 
L 173.590958 174.467012 
L 173.590958 173.403106 
L 174.609606 173.403106 
L 174.609606 172.3392 
L 177.374501 172.3392 
L 177.374501 171.275294 
L 177.520908 171.275294 
L 177.520908 170.211388 
L 177.713832 170.211388 
L 177.713832 169.147482 
L 178.040916 169.147482 
L 178.040916 168.083576 
L 178.265613 168.083576 
L 178.371602 165.955765 
L 178.48309 165.955765 
L 178.48309 164.891859 
L 178.675487 164.891859 
L 178.675487 163.827953 
L 178.874886 163.827953 
L 178.874886 162.764047 
L 179.017511 162.764047 
L 179.017511 161.700141 
L 179.235294 161.700141 
L 179.319959 159.572329 
L 179.372318 159.572329 
L 179.372318 158.508424 
L 179.518442 158.508424 
L 179.518442 157.444518 
L 179.653426 157.444518 
L 179.686307 155.316706 
L 179.783186 155.316706 
L 179.783186 154.2528 
L 179.965611 154.2528 
L 180.000761 152.124988 
L 180.168573 152.124988 
L 180.254692 149.997176 
L 180.35421 149.997176 
L 180.46143 147.869365 
L 180.598003 147.869365 
L 180.598003 146.805459 
L 180.73089 146.805459 
L 180.73089 145.741553 
L 180.928477 145.741553 
L 180.981885 143.613741 
L 181.082944 143.613741 
L 181.082944 142.549835 
L 181.250616 142.549835 
L 181.341091 140.422024 
L 181.621537 140.422024 
L 181.621537 139.358118 
L 181.919439 139.358118 
L 181.919439 138.294212 
L 182.136362 138.294212 
L 182.136362 137.230306 
L 182.286235 137.230306 
L 182.286235 136.1664 
L 182.46945 136.1664 
L 182.46945 135.102494 
L 183.209859 135.102494 
L 183.209859 134.038588 
L 183.551395 134.038588 
L 183.551395 132.974682 
L 183.700836 132.974682 
L 183.700836 131.910776 
L 183.830774 131.910776 
L 183.830774 130.846871 
L 183.95982 130.846871 
L 183.95982 129.782965 
L 184.115096 129.782965 
L 184.115096 128.719059 
L 184.246697 128.719059 
L 184.259023 126.591247 
L 184.442943 126.591247 
L 184.442943 125.527341 
L 184.683215 125.527341 
L 184.683215 124.463435 
L 184.917213 124.463435 
L 184.917213 123.399529 
L 185.56047 123.399529 
L 185.56047 122.335624 
L 188.567044 122.335624 
L 188.651487 120.207812 
L 188.773479 120.207812 
L 188.773479 119.143906 
L 188.891184 119.143906 
L 188.979417 117.016094 
L 189.102772 117.016094 
L 189.190021 114.888282 
L 189.308581 114.888282 
L 189.412777 111.696565 
L 189.602597 111.696565 
L 189.602597 110.632659 
L 189.727809 110.632659 
L 189.817215 108.504847 
L 189.881292 108.504847 
L 189.881292 107.440941 
L 190.003843 107.440941 
L 190.096057 105.313129 
L 190.281579 105.313129 
L 190.357061 103.185318 
L 190.48139 103.185318 
L 190.582506 99.9936 
L 190.692632 99.9936 
L 190.692632 98.929694 
L 190.892083 98.929694 
L 190.972216 96.801882 
L 191.055912 96.801882 
L 191.055912 95.737976 
L 191.172619 95.737976 
L 191.245388 93.610165 
L 191.322494 93.610165 
L 191.39392 91.482353 
L 191.508555 91.482353 
L 191.593696 89.354541 
L 191.7026 89.354541 
L 191.751552 87.226729 
L 191.881223 87.226729 
L 191.984765 85.098918 
L 192.212921 85.098918 
L 192.212921 84.035012 
L 192.532379 84.035012 
L 192.532379 82.971106 
L 192.671125 82.971106 
L 192.736905 80.843294 
L 192.903893 80.843294 
L 193.001267 76.587671 
L 193.037126 76.587671 
L 193.128223 73.395953 
L 193.181974 73.395953 
L 193.257106 69.140329 
L 193.295253 69.140329 
L 193.396831 65.948612 
L 193.430568 65.948612 
L 193.507457 63.8208 
L 193.599037 63.8208 
L 193.656899 61.692988 
L 193.724067 61.692988 
L 193.724067 60.629082 
L 193.836158 60.629082 
L 193.836158 59.565176 
L 194.012391 59.565176 
L 194.012391 58.501271 
L 194.171784 58.501271 
L 194.171784 57.437365 
L 194.679388 57.437365 
L 194.679388 56.373459 
L 194.810891 56.373459 
L 194.881713 54.245647 
L 194.931321 54.245647 
L 195.039621 52.117835 
L 195.141021 52.117835 
L 195.141021 51.053929 
L 197.292595 51.053929 
L 197.377001 48.926118 
L 197.419341 48.926118 
L 197.46103 46.798306 
L 197.578926 46.798306 
L 197.634022 44.670494 
L 197.704311 44.670494 
L 197.757949 42.542682 
L 197.821242 42.542682 
L 197.821242 41.478776 
L 207.851983 41.478776 
L 207.939347 38.287059 
L 207.965096 38.287059 
L 208.006031 36.159247 
L 216.006106 36.159247 
L 216.115796 29.775812 
L 216.150367 29.775812 
L 216.18467 27.648 
L 360.8064 27.648 
L 360.8064 27.648 
" style="fill: none; stroke: #000080; stroke-width: 1.5; stroke-linecap: square"/>
   </g>
   <g id="line2d_36">
    <defs>
     <path id="m25d855cc23" d="M 0 6 
C 1.591219 6 3.117479 5.367802 4.242641 4.242641 
C 5.367802 3.117479 6 1.591219 6 0 
C 6 -1.591219 5.367802 -3.117479 4.242641 -4.242641 
C 3.117479 -5.367802 1.591219 -6 0 -6 
C -1.591219 -6 -3.117479 -5.367802 -4.242641 -4.242641 
C -5.367802 -3.117479 -6 -1.591219 -6 0 
C -6 1.591219 -5.367802 3.117479 -4.242641 4.242641 
C -3.117479 5.367802 -1.591219 6 0 6 
z
" style="stroke: #000080; stroke-width: 1.5"/>
    </defs>
    <g>
     <use xlink:href="#m25d855cc23" x="166.376665" y="206.384188" style="fill-opacity: 0; stroke: #000080; stroke-width: 1.5"/>
     <use xlink:href="#m25d855cc23" x="193.396831" y="67.012518" style="fill-opacity: 0; stroke: #000080; stroke-width: 1.5"/>
     <use xlink:href="#m25d855cc23" x="216.18467" y="28.711906" style="fill-opacity: 0; stroke: #000080; stroke-width: 1.5"/>
     <use xlink:href="#m25d855cc23" x="216.18467" y="27.648" style="fill-opacity: 0; stroke: #000080; stroke-width: 1.5"/>
     <use xlink:href="#m25d855cc23" x="360.8064" y="27.648" style="fill-opacity: 0; stroke: #000080; stroke-width: 1.5"/>
    </g>
   </g>
   <g id="line2d_37">
    <path style="fill: none; stroke: #000080; stroke-width: 1.5; stroke-linecap: square"/>
    <g/>
   </g>
   <g id="line2d_38">
    <defs>
     <path id="md78db0dcdc" d="M 0 1.5 
C 0.397805 1.5 0.77937 1.341951 1.06066 1.06066 
C 1.341951 0.77937 1.5 0.397805 1.5 0 
C 1.5 -0.397805 1.341951 -0.77937 1.06066 -1.06066 
C 0.77937 -1.341951 0.397805 -1.5 0 -1.5 
C -0.397805 -1.5 -0.77937 -1.341951 -1.06066 -1.06066 
C -1.341951 -0.77937 -1.5 -0.397805 -1.5 0 
C -1.5 0.397805 -1.341951 0.77937 -1.06066 1.06066 
C -0.77937 1.341951 -0.397805 1.5 0 1.5 
z
" style="stroke: #ff00ff"/>
    </defs>
    <g>
     <use xlink:href="#md78db0dcdc" x="198.709078" y="27.648" style="fill: #ff00ff; stroke: #ff00ff"/>
     <use xlink:href="#md78db0dcdc" x="198.709078" y="27.648" style="fill: #ff00ff; stroke: #ff00ff"/>
    </g>
   </g>
   <g id="line2d_39">
    <path d="M 150.166205 298.944 
L 150.248351 296.816188 
L 150.647102 296.816188 
L 150.647102 295.752282 
L 151.471384 295.752282 
L 151.471384 294.688376 
L 151.951652 294.688376 
L 151.951652 293.624471 
L 152.395603 293.624471 
L 152.395603 292.560565 
L 152.721823 292.560565 
L 152.721823 291.496659 
L 153.696309 291.496659 
L 153.696309 290.432753 
L 154.295151 290.432753 
L 154.295151 289.368847 
L 154.410475 289.368847 
L 154.503318 287.241035 
L 155.30847 287.241035 
L 155.30847 286.177129 
L 155.701037 286.177129 
L 155.701037 285.113224 
L 155.833477 285.113224 
L 155.833477 284.049318 
L 156.055505 284.049318 
L 156.120605 281.921506 
L 157.321235 281.921506 
L 157.325925 279.793694 
L 158.187393 279.793694 
L 158.187393 278.729788 
L 158.365703 278.729788 
L 158.396734 276.601976 
L 158.812888 276.601976 
L 158.812888 275.538071 
L 159.939564 275.538071 
L 159.939564 274.474165 
L 160.391127 274.474165 
L 160.407056 272.346353 
L 161.056469 272.346353 
L 161.056469 271.282447 
L 161.482294 271.282447 
L 161.482294 270.218541 
L 161.97209 270.218541 
L 161.97209 269.154635 
L 162.252024 269.154635 
L 162.302476 267.026824 
L 162.634233 267.026824 
L 162.634233 265.962918 
L 163.036541 265.962918 
L 163.036541 264.899012 
L 163.528464 264.899012 
L 163.609214 262.7712 
L 163.935396 262.7712 
L 163.935396 261.707294 
L 164.148663 261.707294 
L 164.243038 259.579482 
L 165.303302 259.579482 
L 165.303302 258.515576 
L 165.525963 258.515576 
L 165.525963 257.451671 
L 165.835711 257.451671 
L 165.835711 256.387765 
L 166.216591 256.387765 
L 166.283697 254.259953 
L 166.425869 254.259953 
L 166.425869 253.196047 
L 167.232141 253.196047 
L 167.237678 251.068235 
L 167.507048 251.068235 
L 167.596893 248.940424 
L 168.242961 248.940424 
L 168.242961 247.876518 
L 168.423177 247.876518 
L 168.423177 246.812612 
L 168.770857 246.812612 
L 168.867575 244.6848 
L 169.311637 244.6848 
L 169.311637 243.620894 
L 169.687218 243.620894 
L 169.687218 242.556988 
L 170.209728 242.556988 
L 170.209728 241.493082 
L 170.343988 241.493082 
L 170.355719 239.365271 
L 170.61892 239.365271 
L 170.61892 238.301365 
L 170.796182 238.301365 
L 170.796182 237.237459 
L 171.275772 237.237459 
L 171.329302 235.109647 
L 172.322696 235.109647 
L 172.411221 232.981835 
L 172.536968 232.981835 
L 172.545321 230.854024 
L 173.112918 230.854024 
L 173.112918 229.790118 
L 173.308401 229.790118 
L 173.308401 228.726212 
L 173.610697 228.726212 
L 173.689448 225.534494 
L 174.480071 225.534494 
L 174.577774 222.342776 
L 175.302021 222.342776 
L 175.302021 221.278871 
L 175.629155 221.278871 
L 175.629155 220.214965 
L 176.008101 220.214965 
L 176.105113 218.087153 
L 176.648389 218.087153 
L 176.648389 217.023247 
L 177.319506 217.023247 
L 177.319506 215.959341 
L 177.447043 215.959341 
L 177.447043 214.895435 
L 177.865501 214.895435 
L 177.865501 213.831529 
L 178.429719 213.831529 
L 178.4343 211.703718 
L 178.669457 211.703718 
L 178.669457 210.639812 
L 179.100212 210.639812 
L 179.179617 207.448094 
L 179.6663 207.448094 
L 179.6663 206.384188 
L 179.906411 206.384188 
L 179.906411 205.320282 
L 180.487455 205.320282 
L 180.487455 204.256376 
L 180.626558 204.256376 
L 180.626558 203.192471 
L 181.025832 203.192471 
L 181.025832 202.128565 
L 181.251931 202.128565 
L 181.251931 201.064659 
L 181.64858 201.064659 
L 181.64858 198.936847 
L 181.801099 198.936847 
L 181.801099 197.872941 
L 182.386729 197.872941 
L 182.431222 195.745129 
L 182.705722 195.745129 
L 182.766452 193.617318 
L 182.839069 193.617318 
L 182.895758 191.489506 
L 182.954678 191.489506 
L 182.954678 190.4256 
L 183.203936 190.4256 
L 183.266623 188.297788 
L 183.412477 188.297788 
L 183.52346 186.169976 
L 183.60018 186.169976 
L 183.688139 184.042165 
L 183.988251 184.042165 
L 183.995068 181.914353 
L 184.104935 181.914353 
L 184.192818 179.786541 
L 184.449597 179.786541 
L 184.449597 178.722635 
L 184.609696 178.722635 
L 184.609696 177.658729 
L 184.759721 177.658729 
L 184.866308 174.467012 
L 184.943154 174.467012 
L 184.943154 173.403106 
L 185.25275 173.403106 
L 185.355532 170.211388 
L 185.400915 170.211388 
L 185.400915 169.147482 
L 185.518613 169.147482 
L 185.518613 168.083576 
L 185.789033 168.083576 
L 185.851918 164.891859 
L 186.004646 164.891859 
L 186.061728 162.764047 
L 186.182455 162.764047 
L 186.285323 159.572329 
L 186.384629 159.572329 
L 186.483414 157.444518 
L 186.703065 157.444518 
L 186.703065 156.380612 
L 186.88027 156.380612 
L 186.904616 153.188894 
L 187.007491 153.188894 
L 187.007491 152.124988 
L 187.338477 152.124988 
L 187.379326 149.997176 
L 187.456032 149.997176 
L 187.456032 148.933271 
L 187.578491 148.933271 
L 187.578491 147.869365 
L 187.804352 147.869365 
L 187.888587 144.677647 
L 187.920884 144.677647 
L 187.951286 142.549835 
L 188.126287 142.549835 
L 188.158179 140.422024 
L 188.310515 140.422024 
L 188.334883 138.294212 
L 188.530483 138.294212 
L 188.530483 137.230306 
L 188.6506 137.230306 
L 188.65858 135.102494 
L 188.820122 135.102494 
L 188.864019 132.974682 
L 188.932294 132.974682 
L 189.006416 130.846871 
L 189.111428 130.846871 
L 189.111428 129.782965 
L 189.229624 129.782965 
L 189.229624 128.719059 
L 189.343662 128.719059 
L 189.343662 127.655153 
L 189.492667 127.655153 
L 189.586571 124.463435 
L 189.604284 124.463435 
L 189.655641 122.335624 
L 189.722783 122.335624 
L 189.722783 121.271718 
L 189.940183 121.271718 
L 190.02529 119.143906 
L 190.107552 119.143906 
L 190.107552 118.08 
L 190.273445 118.08 
L 190.273445 117.016094 
L 190.435468 117.016094 
L 190.528806 113.824376 
L 190.586507 113.824376 
L 190.673526 110.632659 
L 190.799744 110.632659 
L 190.799744 109.568753 
L 191.12369 109.568753 
L 191.222968 107.440941 
L 191.238433 107.440941 
L 191.305558 104.249224 
L 191.360161 104.249224 
L 191.438328 102.121412 
L 191.599005 102.121412 
L 191.599005 101.057506 
L 191.777858 101.057506 
L 191.834854 97.865788 
L 192.061865 97.865788 
L 192.157061 93.610165 
L 192.36423 93.610165 
L 192.448492 91.482353 
L 192.503495 91.482353 
L 192.503495 90.418447 
L 192.68115 90.418447 
L 192.761157 86.162824 
L 193.07502 86.162824 
L 193.077824 84.035012 
L 193.262659 84.035012 
L 193.355436 79.779388 
L 193.45463 79.779388 
L 193.45463 78.715482 
L 193.681352 78.715482 
L 193.681352 77.651576 
L 193.810558 77.651576 
L 193.881211 75.523765 
L 193.960296 75.523765 
L 193.984358 73.395953 
L 194.086942 73.395953 
L 194.138025 70.204235 
L 194.331149 70.204235 
L 194.379612 68.076424 
L 194.567046 68.076424 
L 194.658133 63.8208 
L 194.708976 63.8208 
L 194.708976 62.756894 
L 194.844102 62.756894 
L 194.928145 60.629082 
L 195.04846 60.629082 
L 195.092594 58.501271 
L 195.301759 58.501271 
L 195.349031 55.309553 
L 195.48952 55.309553 
L 195.525864 53.181741 
L 195.726031 53.181741 
L 195.801988 51.053929 
L 195.870391 51.053929 
L 195.965017 48.926118 
L 196.018447 48.926118 
L 196.10219 45.7344 
L 196.187938 45.7344 
L 196.187938 44.670494 
L 196.354149 44.670494 
L 196.465121 41.478776 
L 196.738857 41.478776 
L 196.829224 39.350965 
L 197.027993 39.350965 
L 197.027993 38.287059 
L 197.209498 38.287059 
L 197.251654 36.159247 
L 197.696088 36.159247 
L 197.704859 34.031435 
L 197.960173 34.031435 
L 198.024946 31.903624 
L 198.0852 31.903624 
L 198.0852 30.839718 
L 198.288737 30.839718 
L 198.288737 29.775812 
L 198.512162 29.775812 
L 198.512162 28.711906 
L 198.709078 28.711906 
L 198.709078 27.648 
L 360.8064 27.648 
L 360.8064 27.648 
" style="fill: none; stroke: #ff00ff; stroke-width: 1.5; stroke-linecap: square"/>
   </g>
   <g id="line2d_40">
    <defs>
     <path id="m11333765cc" d="M -0 8.485281 
L 5.091169 0 
L 0 -8.485281 
L -5.091169 -0 
z
" style="stroke: #ff00ff; stroke-width: 1.5; stroke-linejoin: miter"/>
    </defs>
    <g>
     <use xlink:href="#m11333765cc" x="170.796182" y="238.301365" style="fill-opacity: 0; stroke: #ff00ff; stroke-width: 1.5; stroke-linejoin: miter"/>
     <use xlink:href="#m11333765cc" x="195.092594" y="58.501271" style="fill-opacity: 0; stroke: #ff00ff; stroke-width: 1.5; stroke-linejoin: miter"/>
     <use xlink:href="#m11333765cc" x="198.709078" y="28.711906" style="fill-opacity: 0; stroke: #ff00ff; stroke-width: 1.5; stroke-linejoin: miter"/>
     <use xlink:href="#m11333765cc" x="198.709078" y="27.648" style="fill-opacity: 0; stroke: #ff00ff; stroke-width: 1.5; stroke-linejoin: miter"/>
     <use xlink:href="#m11333765cc" x="360.8064" y="27.648" style="fill-opacity: 0; stroke: #ff00ff; stroke-width: 1.5; stroke-linejoin: miter"/>
    </g>
   </g>
   <g id="line2d_41">
    <path style="fill: none; stroke: #ff00ff; stroke-width: 1.5; stroke-linecap: square"/>
    <g/>
   </g>
   <g id="line2d_42">
    <defs>
     <path id="mdd5bbbbf5a" d="M 0 1.5 
C 0.397805 1.5 0.77937 1.341951 1.06066 1.06066 
C 1.341951 0.77937 1.5 0.397805 1.5 0 
C 1.5 -0.397805 1.341951 -0.77937 1.06066 -1.06066 
C 0.77937 -1.341951 0.397805 -1.5 0 -1.5 
C -0.397805 -1.5 -0.77937 -1.341951 -1.06066 -1.06066 
C -1.341951 -0.77937 -1.5 -0.397805 -1.5 0 
C -1.5 0.397805 -1.341951 0.77937 -1.06066 1.06066 
C -0.77937 1.341951 -0.397805 1.5 0 1.5 
z
" style="stroke: #ff7500"/>
    </defs>
    <g>
     <use xlink:href="#mdd5bbbbf5a" x="206.123306" y="27.648" style="fill: #ff7500; stroke: #ff7500"/>
     <use xlink:href="#mdd5bbbbf5a" x="206.123306" y="27.648" style="fill: #ff7500; stroke: #ff7500"/>
    </g>
   </g>
   <g id="line2d_43">
    <path d="M 158.52475 298.944 
L 158.52475 297.880094 
L 159.976253 297.880094 
L 159.976253 296.816188 
L 161.110227 296.816188 
L 161.110227 295.752282 
L 161.285788 295.752282 
L 161.285788 294.688376 
L 161.474774 294.688376 
L 161.474774 293.624471 
L 161.624608 293.624471 
L 161.624608 292.560565 
L 162.932418 292.560565 
L 162.932418 291.496659 
L 163.098739 291.496659 
L 163.098739 290.432753 
L 163.615928 290.432753 
L 163.615928 289.368847 
L 164.922068 289.368847 
L 164.925199 287.241035 
L 165.266447 287.241035 
L 165.266447 286.177129 
L 166.125763 286.177129 
L 166.125763 285.113224 
L 166.863001 285.113224 
L 166.863001 284.049318 
L 167.257048 284.049318 
L 167.334325 281.921506 
L 167.93871 281.921506 
L 167.93871 280.8576 
L 168.882801 280.8576 
L 168.956219 277.665882 
L 169.892679 277.665882 
L 169.892679 276.601976 
L 170.616607 276.601976 
L 170.616607 275.538071 
L 170.876207 275.538071 
L 170.876207 274.474165 
L 171.102992 274.474165 
L 171.102992 273.410259 
L 171.756506 273.410259 
L 171.756506 272.346353 
L 172.335368 272.346353 
L 172.419631 270.218541 
L 172.674324 270.218541 
L 172.674324 269.154635 
L 173.398404 269.154635 
L 173.398404 267.026824 
L 174.288839 267.026824 
L 174.288839 265.962918 
L 174.562776 265.962918 
L 174.646986 263.835106 
L 174.978272 263.835106 
L 174.978272 262.7712 
L 175.164472 262.7712 
L 175.164472 261.707294 
L 176.053204 261.707294 
L 176.118931 259.579482 
L 176.352298 259.579482 
L 176.376157 257.451671 
L 177.122474 257.451671 
L 177.169885 255.323859 
L 177.631165 255.323859 
L 177.631165 254.259953 
L 177.791399 254.259953 
L 177.791399 253.196047 
L 178.003465 253.196047 
L 178.003465 252.132141 
L 178.268694 252.132141 
L 178.268694 251.068235 
L 178.601488 251.068235 
L 178.601488 250.004329 
L 178.732674 250.004329 
L 178.732674 248.940424 
L 178.907666 248.940424 
L 178.907666 247.876518 
L 179.192819 247.876518 
L 179.192819 246.812612 
L 179.824351 246.812612 
L 179.824351 245.748706 
L 179.983897 245.748706 
L 179.983897 243.620894 
L 180.585752 243.620894 
L 180.585752 242.556988 
L 180.854793 242.556988 
L 180.860161 240.429176 
L 181.255873 240.429176 
L 181.255873 239.365271 
L 181.528519 239.365271 
L 181.528519 238.301365 
L 182.14639 238.301365 
L 182.14639 237.237459 
L 182.294941 237.237459 
L 182.294941 236.173553 
L 182.491612 236.173553 
L 182.491612 235.109647 
L 182.693553 235.109647 
L 182.693553 234.045741 
L 182.933055 234.045741 
L 182.933055 232.981835 
L 183.363202 232.981835 
L 183.437067 230.854024 
L 183.496651 230.854024 
L 183.590898 228.726212 
L 184.016639 228.726212 
L 184.016639 227.662306 
L 184.386286 227.662306 
L 184.386286 226.5984 
L 184.563463 226.5984 
L 184.563463 225.534494 
L 184.938833 225.534494 
L 184.938833 224.470588 
L 185.084122 224.470588 
L 185.106622 222.342776 
L 185.359758 222.342776 
L 185.408293 220.214965 
L 185.639742 220.214965 
L 185.659508 218.087153 
L 185.862207 218.087153 
L 185.862207 217.023247 
L 186.492369 217.023247 
L 186.548984 214.895435 
L 186.643952 214.895435 
L 186.643952 213.831529 
L 186.977463 213.831529 
L 186.977463 212.767624 
L 187.319448 212.767624 
L 187.407772 210.639812 
L 187.644102 210.639812 
L 187.644102 209.575906 
L 187.771854 209.575906 
L 187.803424 206.384188 
L 188.158179 206.384188 
L 188.158179 205.320282 
L 188.539407 205.320282 
L 188.539407 204.256376 
L 188.739083 204.256376 
L 188.772598 201.064659 
L 189.019466 201.064659 
L 189.019466 200.000753 
L 189.228764 200.000753 
L 189.228764 198.936847 
L 189.420441 198.936847 
L 189.530793 196.809035 
L 189.584883 196.809035 
L 189.584883 195.745129 
L 189.753756 195.745129 
L 189.753756 194.681224 
L 190.100984 194.681224 
L 190.19926 191.489506 
L 190.397518 191.489506 
L 190.397518 190.4256 
L 190.508729 190.4256 
L 190.508729 189.361694 
L 190.881058 189.361694 
L 190.881058 188.297788 
L 190.998068 188.297788 
L 190.998068 187.233882 
L 191.137683 187.233882 
L 191.228382 184.042165 
L 191.558774 184.042165 
L 191.654276 181.914353 
L 191.89317 181.914353 
L 191.89317 180.850447 
L 192.078873 180.850447 
L 192.078873 179.786541 
L 192.25544 179.786541 
L 192.316848 176.594824 
L 192.506385 176.594824 
L 192.506385 175.530918 
L 192.679718 175.530918 
L 192.679718 174.467012 
L 192.897525 174.467012 
L 192.960403 170.211388 
L 193.171515 170.211388 
L 193.171515 169.147482 
L 193.343691 169.147482 
L 193.343691 168.083576 
L 193.604491 168.083576 
L 193.604491 167.019671 
L 193.784922 167.019671 
L 193.784922 165.955765 
L 193.898665 165.955765 
L 193.898665 164.891859 
L 194.078304 164.891859 
L 194.156567 162.764047 
L 194.245048 162.764047 
L 194.298989 160.636235 
L 194.47161 160.636235 
L 194.505425 158.508424 
L 194.684537 158.508424 
L 194.684537 157.444518 
L 194.8919 157.444518 
L 194.993464 155.316706 
L 195.042779 155.316706 
L 195.042779 154.2528 
L 195.289923 154.2528 
L 195.337224 151.061082 
L 195.616723 151.061082 
L 195.685801 148.933271 
L 195.929512 148.933271 
L 196.005854 146.805459 
L 196.164158 146.805459 
L 196.273889 143.613741 
L 196.342957 143.613741 
L 196.342957 142.549835 
L 196.508393 142.549835 
L 196.508393 141.485929 
L 196.620785 141.485929 
L 196.679334 139.358118 
L 196.860778 139.358118 
L 196.860778 138.294212 
L 197.006959 138.294212 
L 197.071125 135.102494 
L 197.235365 135.102494 
L 197.235365 134.038588 
L 197.496532 134.038588 
L 197.584443 131.910776 
L 197.777614 131.910776 
L 197.777614 130.846871 
L 197.908736 130.846871 
L 197.969363 127.655153 
L 198.061014 127.655153 
L 198.061014 126.591247 
L 198.267472 126.591247 
L 198.299361 124.463435 
L 198.455369 124.463435 
L 198.475371 122.335624 
L 198.577158 122.335624 
L 198.597553 120.207812 
L 198.795134 120.207812 
L 198.795134 119.143906 
L 198.940429 119.143906 
L 198.972736 117.016094 
L 199.109552 117.016094 
L 199.122264 114.888282 
L 199.355147 114.888282 
L 199.428805 112.760471 
L 199.530052 112.760471 
L 199.548447 110.632659 
L 199.646087 110.632659 
L 199.646087 109.568753 
L 199.780072 109.568753 
L 199.780072 108.504847 
L 199.93941 108.504847 
L 200.023422 105.313129 
L 200.121044 105.313129 
L 200.173992 103.185318 
L 200.243082 103.185318 
L 200.243082 102.121412 
L 200.473458 102.121412 
L 200.571131 99.9936 
L 200.655654 99.9936 
L 200.730002 96.801882 
L 200.848629 96.801882 
L 200.907431 93.610165 
L 201.1463 93.610165 
L 201.161813 90.418447 
L 201.259162 90.418447 
L 201.259162 89.354541 
L 201.473009 89.354541 
L 201.537944 87.226729 
L 201.672915 87.226729 
L 201.752198 85.098918 
L 201.832029 85.098918 
L 201.832029 84.035012 
L 201.949175 84.035012 
L 202.048201 81.9072 
L 202.062553 81.9072 
L 202.131986 78.715482 
L 202.318185 78.715482 
L 202.318185 77.651576 
L 202.464297 77.651576 
L 202.475784 75.523765 
L 202.685144 75.523765 
L 202.712883 72.332047 
L 202.816752 72.332047 
L 202.855556 70.204235 
L 203.117976 70.204235 
L 203.211051 65.948612 
L 203.310992 65.948612 
L 203.310992 64.884706 
L 203.456484 64.884706 
L 203.487141 61.692988 
L 203.5744 61.692988 
L 203.627682 59.565176 
L 203.702343 59.565176 
L 203.702343 58.501271 
L 203.857897 58.501271 
L 203.865009 56.373459 
L 203.970581 56.373459 
L 203.974116 54.245647 
L 204.172194 54.245647 
L 204.258274 51.053929 
L 204.417373 51.053929 
L 204.43731 48.926118 
L 204.606305 48.926118 
L 204.670756 44.670494 
L 204.733855 44.670494 
L 204.733855 43.606588 
L 204.937196 43.606588 
L 204.986388 41.478776 
L 205.065865 41.478776 
L 205.109545 38.287059 
L 205.236677 38.287059 
L 205.312912 35.095341 
L 205.428868 35.095341 
L 205.47099 32.967529 
L 205.679476 32.967529 
L 205.694177 30.839718 
L 205.933868 30.839718 
L 205.986172 28.711906 
L 206.123306 28.711906 
L 206.123306 27.648 
L 360.8064 27.648 
L 360.8064 27.648 
" style="fill: none; stroke: #ff7500; stroke-width: 1.5; stroke-linecap: square"/>
   </g>
   <g id="line2d_44">
    <defs>
     <path id="mb1a10f68d9" d="M 0 -6 
L -1.347084 -1.854102 
L -5.706339 -1.854102 
L -2.179628 0.708204 
L -3.526712 4.854102 
L -0 2.291796 
L 3.526712 4.854102 
L 2.179628 0.708204 
L 5.706339 -1.854102 
L 1.347084 -1.854102 
z
" style="stroke: #ff7500; stroke-width: 1.5; stroke-linejoin: bevel"/>
    </defs>
    <g>
     <use xlink:href="#mb1a10f68d9" x="182.491612" y="235.109647" style="fill-opacity: 0; stroke: #ff7500; stroke-width: 1.5; stroke-linejoin: bevel"/>
     <use xlink:href="#mb1a10f68d9" x="202.131986" y="79.779388" style="fill-opacity: 0; stroke: #ff7500; stroke-width: 1.5; stroke-linejoin: bevel"/>
     <use xlink:href="#mb1a10f68d9" x="206.123306" y="28.711906" style="fill-opacity: 0; stroke: #ff7500; stroke-width: 1.5; stroke-linejoin: bevel"/>
     <use xlink:href="#mb1a10f68d9" x="206.123306" y="27.648" style="fill-opacity: 0; stroke: #ff7500; stroke-width: 1.5; stroke-linejoin: bevel"/>
     <use xlink:href="#mb1a10f68d9" x="360.8064" y="27.648" style="fill-opacity: 0; stroke: #ff7500; stroke-width: 1.5; stroke-linejoin: bevel"/>
    </g>
   </g>
   <g id="line2d_45">
    <path style="fill: none; stroke: #ff7500; stroke-width: 1.5; stroke-linecap: square"/>
    <g/>
   </g>
   <g id="line2d_46">
    <defs>
     <path id="mb2c5a167bb" d="M 0 1.5 
C 0.397805 1.5 0.77937 1.341951 1.06066 1.06066 
C 1.341951 0.77937 1.5 0.397805 1.5 0 
C 1.5 -0.397805 1.341951 -0.77937 1.06066 -1.06066 
C 0.77937 -1.341951 0.397805 -1.5 0 -1.5 
C -0.397805 -1.5 -0.77937 -1.341951 -1.06066 -1.06066 
C -1.341951 -0.77937 -1.5 -0.397805 -1.5 0 
C -1.5 0.397805 -1.341951 0.77937 -1.06066 1.06066 
C -0.77937 1.341951 -0.397805 1.5 0 1.5 
z
" style="stroke: #6495ed"/>
    </defs>
    <g>
     <use xlink:href="#mb2c5a167bb" x="218.947368" y="27.648" style="fill: #6495ed; stroke: #6495ed"/>
     <use xlink:href="#mb2c5a167bb" x="218.947368" y="27.648" style="fill: #6495ed; stroke: #6495ed"/>
    </g>
   </g>
   <g id="line2d_47">
    <path d="M 124.238185 298.944 
L 124.238185 298.589365 
L 125.011554 298.589365 
L 125.011554 298.234729 
L 126.201114 298.234729 
L 126.201114 297.880094 
L 126.565455 297.880094 
L 126.661432 297.170824 
L 126.68535 297.170824 
L 126.733095 296.461553 
L 126.993549 296.461553 
L 126.993549 296.106918 
L 127.29678 296.106918 
L 127.29678 295.752282 
L 127.61796 295.752282 
L 127.61796 295.397647 
L 128.310214 295.397647 
L 128.310214 295.043012 
L 128.807846 295.043012 
L 128.914307 294.333741 
L 128.935527 294.333741 
L 128.977895 293.624471 
L 129.104431 293.624471 
L 129.104431 293.269835 
L 129.60223 293.269835 
L 129.60223 292.9152 
L 129.724648 292.9152 
L 129.765278 292.205929 
L 129.987186 292.205929 
L 130.047255 291.496659 
L 130.4233 291.496659 
L 130.521023 290.432753 
L 130.656987 290.432753 
L 130.714958 289.723482 
L 130.86868 289.723482 
L 130.86868 289.368847 
L 131.115828 289.368847 
L 131.153565 288.304941 
L 131.4342 288.304941 
L 131.4342 287.595671 
L 131.820186 287.595671 
L 131.820186 287.241035 
L 132.09112 287.241035 
L 132.09112 286.8864 
L 132.340519 286.8864 
L 132.340519 286.531765 
L 132.46399 286.531765 
L 132.516659 285.822494 
L 132.673786 285.822494 
L 132.673786 285.467859 
L 132.829612 285.467859 
L 132.829612 285.113224 
L 133.05244 285.113224 
L 133.103489 284.403953 
L 133.25581 284.403953 
L 133.272658 283.694682 
L 133.373435 283.694682 
L 133.373435 283.340047 
L 133.523594 283.340047 
L 133.540205 282.630776 
L 133.754819 282.630776 
L 133.754819 282.276141 
L 133.885683 282.276141 
L 133.885683 281.566871 
L 134.304809 281.566871 
L 134.304809 281.212235 
L 134.652304 281.212235 
L 134.652304 280.8576 
L 135.039546 280.8576 
L 135.039546 280.502965 
L 135.177024 280.502965 
L 135.177024 280.148329 
L 135.538796 280.148329 
L 135.628162 279.084424 
L 135.820345 279.084424 
L 135.893741 277.665882 
L 136.28521 277.665882 
L 136.28521 277.311247 
L 136.541735 277.311247 
L 136.541735 276.956612 
L 136.682752 276.956612 
L 136.682752 276.601976 
L 137.01694 276.601976 
L 137.085822 275.892706 
L 137.195511 275.892706 
L 137.195511 275.538071 
L 137.480437 275.538071 
L 137.480437 275.183435 
L 137.601239 275.183435 
L 137.668018 274.474165 
L 137.721271 274.474165 
L 137.814102 273.055624 
L 137.840541 273.055624 
L 137.840541 272.700988 
L 138.011497 272.700988 
L 138.115933 271.991718 
L 138.323083 271.991718 
L 138.323083 271.637082 
L 138.692823 271.637082 
L 138.793555 270.927812 
L 138.881255 270.927812 
L 138.881255 270.573176 
L 139.043049 270.573176 
L 139.055437 269.863906 
L 139.289277 269.863906 
L 139.362521 268.8 
L 139.459738 268.8 
L 139.459738 268.445365 
L 139.580558 268.445365 
L 139.628669 267.381459 
L 139.760345 267.381459 
L 139.760345 267.026824 
L 140.243172 267.026824 
L 140.243172 266.672188 
L 140.451292 266.672188 
L 140.451292 266.317553 
L 140.600182 266.317553 
L 140.600182 265.962918 
L 140.972924 265.962918 
L 141.073312 264.899012 
L 141.128852 264.899012 
L 141.173167 263.835106 
L 141.283499 263.835106 
L 141.393187 263.125835 
L 141.42597 263.125835 
L 141.42597 262.7712 
L 141.729214 262.7712 
L 141.825656 262.061929 
L 141.900326 262.061929 
L 141.900326 261.707294 
L 142.373399 261.707294 
L 142.41488 260.643388 
L 142.507879 260.643388 
L 142.60042 259.224847 
L 142.956037 259.224847 
L 142.956037 258.870212 
L 143.442869 258.870212 
L 143.491845 258.160941 
L 143.560197 258.160941 
L 143.657415 257.451671 
L 143.802306 257.451671 
L 143.869541 256.7424 
L 144.003296 256.7424 
L 144.003296 256.387765 
L 144.249202 256.387765 
L 144.324223 255.678494 
L 144.408266 255.678494 
L 144.501209 254.614588 
L 144.575234 254.614588 
L 144.575234 254.259953 
L 145.29989 254.259953 
L 145.38854 253.550682 
L 145.423883 253.550682 
L 145.459161 252.841412 
L 145.765046 252.841412 
L 145.842905 252.132141 
L 145.946218 252.132141 
L 145.946218 251.777506 
L 146.529503 251.777506 
L 146.620842 250.7136 
L 146.867716 250.7136 
L 146.973697 250.004329 
L 147.288104 250.004329 
L 147.288104 249.649694 
L 147.399698 249.649694 
L 147.471089 248.940424 
L 148.040353 248.940424 
L 148.063382 248.231153 
L 148.292143 248.231153 
L 148.292143 247.876518 
L 149.259702 247.876518 
L 149.259702 247.521882 
L 149.573831 247.521882 
L 149.573831 247.167247 
L 149.79204 247.167247 
L 149.79204 246.812612 
L 150.049213 246.812612 
L 150.049213 246.457976 
L 150.713857 246.457976 
L 150.713857 246.103341 
L 151.142085 246.103341 
L 151.142085 245.748706 
L 151.317138 245.748706 
L 151.317138 245.394071 
L 151.725684 245.394071 
L 151.725684 245.039435 
L 153.334593 245.039435 
L 153.334593 244.6848 
L 155.88923 244.6848 
L 155.88923 244.330165 
L 157.76159 244.330165 
L 157.76159 243.975529 
L 158.665004 243.975529 
L 158.665004 243.620894 
L 159.186085 243.620894 
L 159.186085 243.266259 
L 159.506146 243.266259 
L 159.506146 242.911624 
L 159.923234 242.911624 
L 159.923234 242.556988 
L 160.4627 242.556988 
L 160.4627 242.202353 
L 160.640448 242.202353 
L 160.640448 241.847718 
L 160.882626 241.847718 
L 160.882626 241.493082 
L 161.224909 241.493082 
L 161.255373 240.783812 
L 161.43336 240.783812 
L 161.43336 240.429176 
L 162.037903 240.429176 
L 162.11803 239.719906 
L 162.150711 239.719906 
L 162.150711 239.365271 
L 162.463734 239.365271 
L 162.463734 239.010635 
L 162.595297 239.010635 
L 162.595297 238.656 
L 162.754075 238.656 
L 162.754075 238.301365 
L 162.901068 238.301365 
L 162.901068 237.946729 
L 163.253342 237.946729 
L 163.267023 237.237459 
L 163.565517 237.237459 
L 163.565517 236.882824 
L 163.686277 236.882824 
L 163.686277 236.528188 
L 163.872597 236.528188 
L 163.872597 236.173553 
L 164.378885 236.173553 
L 164.423951 235.464282 
L 164.846771 235.464282 
L 164.934588 234.755012 
L 165.195605 234.755012 
L 165.195605 234.400376 
L 165.685985 234.400376 
L 165.766985 233.691106 
L 166.178555 233.691106 
L 166.178555 233.336471 
L 166.454752 233.336471 
L 166.454752 232.981835 
L 166.681382 232.981835 
L 166.681382 232.6272 
L 167.056864 232.6272 
L 167.056864 232.272565 
L 167.400311 232.272565 
L 167.400311 231.917929 
L 167.702522 231.917929 
L 167.710623 231.208659 
L 167.997296 231.208659 
L 167.997296 230.854024 
L 168.227208 230.854024 
L 168.227208 230.499388 
L 168.560441 230.499388 
L 168.560441 230.144753 
L 168.735099 230.144753 
L 168.735099 229.790118 
L 169.169775 229.790118 
L 169.169775 229.435482 
L 169.353741 229.435482 
L 169.353741 229.080847 
L 169.866216 229.080847 
L 169.866216 228.726212 
L 170.183708 228.726212 
L 170.183708 228.371576 
L 170.325202 228.371576 
L 170.325202 228.016941 
L 170.616607 228.016941 
L 170.688182 227.307671 
L 170.851093 227.307671 
L 170.851093 226.953035 
L 171.082693 226.953035 
L 171.082693 226.5984 
L 171.201917 226.5984 
L 171.201917 226.243765 
L 171.340435 226.243765 
L 171.340435 225.889129 
L 171.513264 225.889129 
L 171.513264 225.534494 
L 171.66265 225.534494 
L 171.66265 225.179859 
L 171.830387 225.179859 
L 171.86722 224.470588 
L 172.148652 224.470588 
L 172.148652 224.115953 
L 172.358578 224.115953 
L 172.371226 223.406682 
L 172.616174 223.406682 
L 172.616174 223.052047 
L 172.734362 223.052047 
L 172.734362 222.697412 
L 172.878497 222.697412 
L 172.898998 221.988141 
L 173.131142 221.988141 
L 173.21998 221.278871 
L 173.270271 221.278871 
L 173.366453 220.214965 
L 173.460157 220.214965 
L 173.567244 219.151059 
L 173.648145 219.151059 
L 173.705159 218.441788 
L 173.783516 218.441788 
L 173.783516 218.087153 
L 174.008923 218.087153 
L 174.008923 217.732518 
L 174.128301 217.732518 
L 174.18962 217.023247 
L 174.275513 217.023247 
L 174.385645 215.959341 
L 174.463109 215.959341 
L 174.547765 215.250071 
L 174.602121 215.250071 
L 174.665648 214.5408 
L 174.825384 214.5408 
L 174.895535 213.476894 
L 175.014927 213.476894 
L 175.108076 212.058353 
L 175.215265 212.058353 
L 175.218888 211.349082 
L 175.386583 211.349082 
L 175.486845 210.285176 
L 175.502909 210.285176 
L 175.611425 209.221271 
L 175.622065 209.221271 
L 175.680478 208.157365 
L 175.733424 208.157365 
L 175.733424 207.802729 
L 175.891372 207.802729 
L 175.89312 207.093459 
L 176.025461 207.093459 
L 176.110296 206.029553 
L 176.193029 206.029553 
L 176.247984 205.320282 
L 176.374454 205.320282 
L 176.401688 204.611012 
L 176.559207 204.611012 
L 176.576066 203.901741 
L 176.708725 203.901741 
L 176.743833 203.192471 
L 176.916737 203.192471 
L 176.986116 202.128565 
L 177.148646 202.128565 
L 177.148646 201.773929 
L 177.309785 201.773929 
L 177.340553 201.064659 
L 177.453477 201.064659 
L 177.482406 200.000753 
L 177.666184 200.000753 
L 177.666184 199.646118 
L 177.78824 199.646118 
L 177.885946 198.582212 
L 177.986274 198.582212 
L 177.986274 198.227576 
L 178.168316 198.227576 
L 178.168316 197.872941 
L 178.409858 197.872941 
L 178.409858 197.518306 
L 178.568169 197.518306 
L 178.636258 196.809035 
L 178.744691 196.809035 
L 178.744691 196.4544 
L 178.910644 196.4544 
L 178.935931 195.745129 
L 179.100212 195.745129 
L 179.100212 195.390494 
L 179.311218 195.390494 
L 179.394092 194.681224 
L 179.532848 194.681224 
L 179.55156 193.971953 
L 179.764704 193.971953 
L 179.764704 193.617318 
L 180.007783 193.617318 
L 180.054064 192.908047 
L 180.222791 192.908047 
L 180.222791 192.553412 
L 180.347316 192.553412 
L 180.347316 192.198776 
L 180.535303 192.198776 
L 180.535303 191.844141 
L 180.679474 191.844141 
L 180.679474 191.489506 
L 180.854793 191.489506 
L 180.854793 191.134871 
L 181.044446 191.134871 
L 181.108124 190.4256 
L 181.211143 190.4256 
L 181.312291 189.361694 
L 181.462351 189.361694 
L 181.562162 188.297788 
L 181.74997 188.297788 
L 181.783219 187.588518 
L 181.915633 187.588518 
L 181.948591 186.879247 
L 182.082365 186.879247 
L 182.187703 185.815341 
L 182.352051 185.815341 
L 182.404044 185.106071 
L 182.594689 185.106071 
L 182.650898 184.3968 
L 182.728823 184.3968 
L 182.82215 183.332894 
L 182.859594 183.332894 
L 182.859594 182.978259 
L 182.997848 182.978259 
L 183.079123 182.268988 
L 183.155298 182.268988 
L 183.225249 181.559718 
L 183.313797 181.559718 
L 183.347923 180.850447 
L 183.441747 180.850447 
L 183.510643 179.786541 
L 183.592058 179.786541 
L 183.609459 179.077271 
L 183.713524 179.077271 
L 183.765342 178.013365 
L 183.86512 178.013365 
L 183.922225 177.304094 
L 184.113967 177.304094 
L 184.165821 176.240188 
L 184.255662 176.240188 
L 184.355108 174.821647 
L 184.432957 174.821647 
L 184.482833 174.112376 
L 184.61849 174.112376 
L 184.709481 172.693835 
L 184.736802 172.693835 
L 184.835916 171.984565 
L 184.929107 171.984565 
L 184.993852 170.920659 
L 185.08841 170.920659 
L 185.139787 169.502118 
L 185.235743 169.502118 
L 185.326979 167.728941 
L 185.347076 167.728941 
L 185.424093 167.019671 
L 185.508134 167.019671 
L 185.567785 165.601129 
L 185.636619 165.601129 
L 185.725936 164.537224 
L 185.759062 164.537224 
L 185.863236 162.764047 
L 185.873519 162.764047 
L 185.896122 162.054776 
L 186.048492 162.054776 
L 186.134866 160.2816 
L 186.174363 160.2816 
L 186.27325 159.217694 
L 186.293367 159.217694 
L 186.361605 157.444518 
L 186.425603 157.444518 
L 186.51126 156.380612 
L 186.583664 156.380612 
L 186.621243 154.962071 
L 186.748259 154.962071 
L 186.832462 153.543529 
L 186.915317 153.543529 
L 187.008459 152.479624 
L 187.044234 152.479624 
L 187.138663 150.351812 
L 187.263199 150.351812 
L 187.347985 149.642541 
L 187.380275 149.642541 
L 187.476812 148.578635 
L 187.582247 148.578635 
L 187.67869 147.514729 
L 187.719739 147.514729 
L 187.8127 146.805459 
L 187.911662 146.805459 
L 188.018363 145.741553 
L 188.077889 145.741553 
L 188.152716 144.323012 
L 188.260779 144.323012 
L 188.346604 142.904471 
L 188.41678 142.904471 
L 188.505474 141.840565 
L 188.62042 141.840565 
L 188.725837 140.067388 
L 188.76731 140.067388 
L 188.782289 139.358118 
L 188.895562 139.358118 
L 188.973315 137.939576 
L 189.022075 137.939576 
L 189.093245 136.875671 
L 189.152925 136.875671 
L 189.244239 135.457129 
L 189.312863 135.457129 
L 189.399145 134.038588 
L 189.466358 134.038588 
L 189.550249 132.265412 
L 189.584039 132.265412 
L 189.668248 131.556141 
L 189.697633 131.556141 
L 189.789687 130.1376 
L 189.817215 130.1376 
L 189.921955 128.364424 
L 190.015395 128.364424 
L 190.071401 126.945882 
L 190.136259 126.945882 
L 190.221301 125.881976 
L 190.314082 125.881976 
L 190.397518 124.463435 
L 190.445951 124.463435 
L 190.474951 123.754165 
L 190.579304 123.754165 
L 190.648818 121.980988 
L 190.743487 121.980988 
L 190.779954 120.917082 
L 190.867661 120.917082 
L 190.896019 119.853176 
L 190.99572 119.853176 
L 191.081649 118.434635 
L 191.158652 118.434635 
L 191.185025 117.370729 
L 191.337877 117.370729 
L 191.388553 115.952188 
L 191.466603 115.952188 
L 191.557254 114.888282 
L 191.589145 114.888282 
L 191.589145 114.533647 
L 191.724456 114.533647 
L 191.824367 112.760471 
L 191.983279 112.760471 
L 192.020389 112.0512 
L 192.121695 112.0512 
L 192.171042 110.987294 
L 192.247383 110.987294 
L 192.329981 109.923388 
L 192.373692 109.923388 
L 192.436167 109.214118 
L 192.494098 109.214118 
L 192.564821 108.150212 
L 192.655361 108.150212 
L 192.684729 107.086306 
L 192.77612 107.086306 
L 192.822361 105.313129 
L 192.899648 105.313129 
L 192.981551 104.249224 
L 193.025884 104.249224 
L 193.051872 103.539953 
L 193.137309 103.539953 
L 193.244605 101.766776 
L 193.255717 101.766776 
L 193.329173 100.702871 
L 193.372695 100.702871 
L 193.42644 98.929694 
L 193.484149 98.929694 
L 193.566966 97.865788 
L 193.595628 97.865788 
L 193.698314 96.092612 
L 193.735577 96.092612 
L 193.810558 94.319435 
L 193.862396 94.319435 
L 193.926826 92.900894 
L 193.996377 92.900894 
L 194.090263 91.127718 
L 194.145974 91.127718 
L 194.225275 89.709176 
L 194.262168 89.709176 
L 194.341638 88.645271 
L 194.388113 88.645271 
L 194.435125 87.226729 
L 194.516466 87.226729 
L 194.587757 85.808188 
L 194.679388 85.808188 
L 194.716045 84.744282 
L 194.802579 84.744282 
L 194.889354 83.325741 
L 194.929416 83.325741 
L 194.929416 82.971106 
L 195.078104 82.971106 
L 195.127198 82.261835 
L 195.358347 82.261835 
L 195.386267 81.552565 
L 195.477801 81.552565 
L 195.560295 80.843294 
L 195.622847 80.843294 
L 195.622847 80.488659 
L 195.744289 80.488659 
L 195.835918 79.424753 
L 195.942157 79.424753 
L 195.957801 78.715482 
L 196.057374 78.715482 
L 196.065748 78.006212 
L 196.184967 78.006212 
L 196.207534 77.296941 
L 196.298711 77.296941 
L 196.376513 76.233035 
L 196.411772 76.233035 
L 196.487939 75.169129 
L 196.562052 75.169129 
L 196.660224 73.750588 
L 196.705362 73.750588 
L 196.814863 71.622776 
L 196.908869 71.622776 
L 197.011509 69.494965 
L 197.022311 69.494965 
L 197.122074 67.721788 
L 197.14919 67.721788 
L 197.258951 65.948612 
L 197.286992 65.948612 
L 197.387595 63.466165 
L 197.399297 63.466165 
L 197.479899 62.402259 
L 197.522561 62.402259 
L 197.619713 59.919812 
L 197.729507 59.919812 
L 197.823965 58.146635 
L 197.897347 58.146635 
L 197.999063 57.437365 
L 198.036258 57.437365 
L 198.123296 56.373459 
L 198.206199 56.373459 
L 198.259491 55.309553 
L 198.377791 55.309553 
L 198.377791 54.954918 
L 198.514787 54.954918 
L 198.604347 54.245647 
L 198.710636 54.245647 
L 198.710636 53.891012 
L 199.902872 53.891012 
L 200.005486 53.181741 
L 200.05876 53.181741 
L 200.05876 52.827106 
L 200.299031 52.827106 
L 200.299031 52.472471 
L 200.65378 52.472471 
L 200.763572 51.7632 
L 200.884303 51.7632 
L 200.977569 51.053929 
L 201.095107 51.053929 
L 201.195988 50.344659 
L 201.271862 50.344659 
L 201.271862 49.990024 
L 201.43394 49.990024 
L 201.43394 49.635388 
L 201.550457 49.635388 
L 201.610672 48.926118 
L 201.783112 48.926118 
L 201.783112 48.571482 
L 201.928169 48.571482 
L 202.011182 47.862212 
L 202.265788 47.862212 
L 202.362737 47.152941 
L 202.47706 47.152941 
L 202.47706 46.798306 
L 202.590269 46.798306 
L 202.590269 46.443671 
L 202.92462 46.443671 
L 202.92462 46.089035 
L 203.056219 46.089035 
L 203.156984 45.379765 
L 203.245784 45.379765 
L 203.341887 44.670494 
L 203.441137 44.670494 
L 203.543483 43.961224 
L 203.594849 43.961224 
L 203.594849 43.606588 
L 203.798922 43.606588 
L 203.90723 42.542682 
L 203.98197 42.542682 
L 204.032937 41.833412 
L 204.119655 41.833412 
L 204.208302 40.769506 
L 204.276061 40.769506 
L 204.362053 39.7056 
L 204.481326 39.7056 
L 204.576279 38.641694 
L 204.668485 38.641694 
L 204.72178 37.932424 
L 204.808769 37.932424 
L 204.916662 37.223153 
L 204.977826 37.223153 
L 205.082535 36.513882 
L 205.212055 36.513882 
L 205.306327 35.804612 
L 205.450304 35.804612 
L 205.559283 35.095341 
L 206.975713 35.095341 
L 207.085217 34.386071 
L 208.83722 34.386071 
L 208.83722 34.031435 
L 209.135992 34.031435 
L 209.212848 33.322165 
L 209.281396 33.322165 
L 209.281396 32.967529 
L 209.601227 32.967529 
L 209.709825 32.258259 
L 210.738004 32.258259 
L 210.82525 31.548988 
L 212.062056 31.548988 
L 212.172872 30.485082 
L 212.243858 30.485082 
L 212.29036 29.775812 
L 217.2531 29.775812 
L 217.327213 29.066541 
L 217.439662 29.066541 
L 217.537506 28.357271 
L 218.905327 28.357271 
L 218.947368 27.648 
L 360.8064 27.648 
L 360.8064 27.648 
" style="fill: none; stroke: #6495ed; stroke-width: 1.5; stroke-linecap: square"/>
   </g>
   <g id="line2d_48">
    <defs>
     <path id="mf31c74e4fb" d="M -0 6 
L 6 -6 
L -6 -6 
z
" style="stroke: #6495ed; stroke-width: 1.5; stroke-linejoin: miter"/>
    </defs>
    <g>
     <use xlink:href="#mf31c74e4fb" x="183.86512" y="178.013365" style="fill-opacity: 0; stroke: #6495ed; stroke-width: 1.5; stroke-linejoin: miter"/>
     <use xlink:href="#mf31c74e4fb" x="205.306327" y="36.159247" style="fill-opacity: 0; stroke: #6495ed; stroke-width: 1.5; stroke-linejoin: miter"/>
     <use xlink:href="#mf31c74e4fb" x="218.947368" y="27.648" style="fill-opacity: 0; stroke: #6495ed; stroke-width: 1.5; stroke-linejoin: miter"/>
     <use xlink:href="#mf31c74e4fb" x="218.947368" y="27.648" style="fill-opacity: 0; stroke: #6495ed; stroke-width: 1.5; stroke-linejoin: miter"/>
     <use xlink:href="#mf31c74e4fb" x="360.8064" y="27.648" style="fill-opacity: 0; stroke: #6495ed; stroke-width: 1.5; stroke-linejoin: miter"/>
    </g>
   </g>
   <g id="line2d_49">
    <path style="fill: none; stroke: #6495ed; stroke-width: 1.5; stroke-linecap: square"/>
    <g/>
   </g>
   <g id="line2d_50">
    <path d="M 360.8064 27.648 
L 380.514816 293.51808 
" style="fill: none; stroke: #6495ed; stroke-width: 1.5; stroke-linecap: square"/>
    <g>
     <use xlink:href="#mf31c74e4fb" x="360.8064" y="27.648" style="fill-opacity: 0; stroke: #6495ed; stroke-width: 1.5; stroke-linejoin: miter"/>
     <use xlink:href="#mf31c74e4fb" x="380.514816" y="293.51808" style="fill-opacity: 0; stroke: #6495ed; stroke-width: 1.5; stroke-linejoin: miter"/>
    </g>
   </g>
   <g id="line2d_51">
    <path d="M 360.8064 27.648 
L 380.514816 228.40704 
" style="fill: none; stroke: #000080; stroke-width: 1.5; stroke-linecap: square"/>
    <g>
     <use xlink:href="#m25d855cc23" x="360.8064" y="27.648" style="fill-opacity: 0; stroke: #000080; stroke-width: 1.5"/>
     <use xlink:href="#m25d855cc23" x="380.514816" y="228.40704" style="fill-opacity: 0; stroke: #000080; stroke-width: 1.5"/>
    </g>
   </g>
   <g id="line2d_52">
    <path d="M 360.8064 27.648 
L 380.514816 163.296 
" style="fill: none; stroke: #ff7500; stroke-width: 1.5; stroke-linecap: square"/>
    <g>
     <use xlink:href="#mb1a10f68d9" x="360.8064" y="27.648" style="fill-opacity: 0; stroke: #ff7500; stroke-width: 1.5; stroke-linejoin: bevel"/>
     <use xlink:href="#mb1a10f68d9" x="380.514816" y="163.296" style="fill-opacity: 0; stroke: #ff7500; stroke-width: 1.5; stroke-linejoin: bevel"/>
    </g>
   </g>
   <g id="line2d_53">
    <path d="M 360.8064 27.648 
L 380.514816 98.18496 
" style="fill: none; stroke: #ff00ff; stroke-width: 1.5; stroke-linecap: square"/>
    <g>
     <use xlink:href="#m11333765cc" x="360.8064" y="27.648" style="fill-opacity: 0; stroke: #ff00ff; stroke-width: 1.5; stroke-linejoin: miter"/>
     <use xlink:href="#m11333765cc" x="380.514816" y="98.18496" style="fill-opacity: 0; stroke: #ff00ff; stroke-width: 1.5; stroke-linejoin: miter"/>
    </g>
   </g>
   <g id="line2d_54">
    <path d="M 360.8064 298.944 
L 360.8064 27.648 
" style="fill: none; stroke: #000000; stroke-width: 1.5; stroke-linecap: square"/>
   </g>
   <g id="patch_3">
    <path d="M 57.6 298.944 
L 360.8064 298.944 
" style="fill: none; stroke: #000000; stroke-width: 0.8; stroke-linejoin: miter; stroke-linecap: square"/>
   </g>
   <g id="patch_4">
    <path d="M 57.6 27.648 
L 360.8064 27.648 
" style="fill: none; stroke: #000000; stroke-width: 0.8; stroke-linejoin: miter; stroke-linecap: square"/>
   </g>
   <g id="text_13">
    <!-- CMA-ES-20 -->
    <g transform="translate(386.578944 297.381205)scale(0.14 -0.14)">
     <defs>
      <path id="DejaVuSans-43" d="M 4122 4306 
L 4122 3641 
Q 3803 3938 3442 4084 
Q 3081 4231 2675 4231 
Q 1875 4231 1450 3742 
Q 1025 3253 1025 2328 
Q 1025 1406 1450 917 
Q 1875 428 2675 428 
Q 3081 428 3442 575 
Q 3803 722 4122 1019 
L 4122 359 
Q 3791 134 3420 21 
Q 3050 -91 2638 -91 
Q 1578 -91 968 557 
Q 359 1206 359 2328 
Q 359 3453 968 4101 
Q 1578 4750 2638 4750 
Q 3056 4750 3426 4639 
Q 3797 4528 4122 4306 
z
" transform="scale(0.015625)"/>
      <path id="DejaVuSans-4d" d="M 628 4666 
L 1569 4666 
L 2759 1491 
L 3956 4666 
L 4897 4666 
L 4897 0 
L 4281 0 
L 4281 4097 
L 3078 897 
L 2444 897 
L 1241 4097 
L 1241 0 
L 628 0 
L 628 4666 
z
" transform="scale(0.015625)"/>
      <path id="DejaVuSans-41" d="M 2188 4044 
L 1331 1722 
L 3047 1722 
L 2188 4044 
z
M 1831 4666 
L 2547 4666 
L 4325 0 
L 3669 0 
L 3244 1197 
L 1141 1197 
L 716 0 
L 50 0 
L 1831 4666 
z
" transform="scale(0.015625)"/>
      <path id="DejaVuSans-45" d="M 628 4666 
L 3578 4666 
L 3578 4134 
L 1259 4134 
L 1259 2753 
L 3481 2753 
L 3481 2222 
L 1259 2222 
L 1259 531 
L 3634 531 
L 3634 0 
L 628 0 
L 628 4666 
z
" transform="scale(0.015625)"/>
      <path id="DejaVuSans-53" d="M 3425 4513 
L 3425 3897 
Q 3066 4069 2747 4153 
Q 2428 4238 2131 4238 
Q 1616 4238 1336 4038 
Q 1056 3838 1056 3469 
Q 1056 3159 1242 3001 
Q 1428 2844 1947 2747 
L 2328 2669 
Q 3034 2534 3370 2195 
Q 3706 1856 3706 1288 
Q 3706 609 3251 259 
Q 2797 -91 1919 -91 
Q 1588 -91 1214 -16 
Q 841 59 441 206 
L 441 856 
Q 825 641 1194 531 
Q 1563 422 1919 422 
Q 2459 422 2753 634 
Q 3047 847 3047 1241 
Q 3047 1584 2836 1778 
Q 2625 1972 2144 2069 
L 1759 2144 
Q 1053 2284 737 2584 
Q 422 2884 422 3419 
Q 422 4038 858 4394 
Q 1294 4750 2059 4750 
Q 2388 4750 2728 4690 
Q 3069 4631 3425 4513 
z
" transform="scale(0.015625)"/>
     </defs>
     <use xlink:href="#DejaVuSans-43"/>
     <use xlink:href="#DejaVuSans-4d" x="69.824219"/>
     <use xlink:href="#DejaVuSans-41" x="156.103516"/>
     <use xlink:href="#DejaVuSans-2d" x="222.261719"/>
     <use xlink:href="#DejaVuSans-45" x="258.345703"/>
     <use xlink:href="#DejaVuSans-53" x="321.529297"/>
     <use xlink:href="#DejaVuSans-2d" x="385.005859"/>
     <use xlink:href="#DejaVuSans-32" x="421.089844"/>
     <use xlink:href="#DejaVuSans-30" x="484.712891"/>
    </g>
   </g>
   <g id="text_14">
    <!-- default -->
    <g transform="translate(386.578944 232.270165)scale(0.14 -0.14)">
     <use xlink:href="#DejaVuSans-64"/>
     <use xlink:href="#DejaVuSans-65" x="63.476562"/>
     <use xlink:href="#DejaVuSans-66" x="125"/>
     <use xlink:href="#DejaVuSans-61" x="160.205078"/>
     <use xlink:href="#DejaVuSans-75" x="221.484375"/>
     <use xlink:href="#DejaVuSans-6c" x="284.863281"/>
     <use xlink:href="#DejaVuSans-74" x="312.646484"/>
    </g>
   </g>
   <g id="text_15">
    <!-- pop-200 -->
    <g transform="translate(386.578944 167.159125)scale(0.14 -0.14)">
     <use xlink:href="#DejaVuSans-70"/>
     <use xlink:href="#DejaVuSans-6f" x="63.476562"/>
     <use xlink:href="#DejaVuSans-70" x="124.658203"/>
     <use xlink:href="#DejaVuSans-2d" x="188.134766"/>
     <use xlink:href="#DejaVuSans-32" x="224.21875"/>
     <use xlink:href="#DejaVuSans-30" x="287.841797"/>
     <use xlink:href="#DejaVuSans-30" x="351.464844"/>
    </g>
   </g>
   <g id="text_16">
    <!-- pop-100 -->
    <g transform="translate(386.578944 102.048085)scale(0.14 -0.14)">
     <use xlink:href="#DejaVuSans-70"/>
     <use xlink:href="#DejaVuSans-6f" x="63.476562"/>
     <use xlink:href="#DejaVuSans-70" x="124.658203"/>
     <use xlink:href="#DejaVuSans-2d" x="188.134766"/>
     <use xlink:href="#DejaVuSans-31" x="224.21875"/>
     <use xlink:href="#DejaVuSans-30" x="287.841797"/>
     <use xlink:href="#DejaVuSans-30" x="351.464844"/>
    </g>
   </g>
   <g id="text_17">
    <!-- best 2009 -->
    <g transform="translate(386.578944 36.937045)scale(0.14 -0.14)">
     <defs>
      <path id="DejaVuSans-62" d="M 3116 1747 
Q 3116 2381 2855 2742 
Q 2594 3103 2138 3103 
Q 1681 3103 1420 2742 
Q 1159 2381 1159 1747 
Q 1159 1113 1420 752 
Q 1681 391 2138 391 
Q 2594 391 2855 752 
Q 3116 1113 3116 1747 
z
M 1159 2969 
Q 1341 3281 1617 3432 
Q 1894 3584 2278 3584 
Q 2916 3584 3314 3078 
Q 3713 2572 3713 1747 
Q 3713 922 3314 415 
Q 2916 -91 2278 -91 
Q 1894 -91 1617 61 
Q 1341 213 1159 525 
L 1159 0 
L 581 0 
L 581 4863 
L 1159 4863 
L 1159 2969 
z
" transform="scale(0.015625)"/>
      <path id="DejaVuSans-39" d="M 703 97 
L 703 672 
Q 941 559 1184 500 
Q 1428 441 1663 441 
Q 2288 441 2617 861 
Q 2947 1281 2994 2138 
Q 2813 1869 2534 1725 
Q 2256 1581 1919 1581 
Q 1219 1581 811 2004 
Q 403 2428 403 3163 
Q 403 3881 828 4315 
Q 1253 4750 1959 4750 
Q 2769 4750 3195 4129 
Q 3622 3509 3622 2328 
Q 3622 1225 3098 567 
Q 2575 -91 1691 -91 
Q 1453 -91 1209 -44 
Q 966 3 703 97 
z
M 1959 2075 
Q 2384 2075 2632 2365 
Q 2881 2656 2881 3163 
Q 2881 3666 2632 3958 
Q 2384 4250 1959 4250 
Q 1534 4250 1286 3958 
Q 1038 3666 1038 3163 
Q 1038 2656 1286 2365 
Q 1534 2075 1959 2075 
z
" transform="scale(0.015625)"/>
     </defs>
     <use xlink:href="#DejaVuSans-62"/>
     <use xlink:href="#DejaVuSans-65" x="63.476562"/>
     <use xlink:href="#DejaVuSans-73" x="125"/>
     <use xlink:href="#DejaVuSans-74" x="177.099609"/>
     <use xlink:href="#DejaVuSans-20" x="216.308594"/>
     <use xlink:href="#DejaVuSans-32" x="248.095703"/>
     <use xlink:href="#DejaVuSans-30" x="311.71875"/>
     <use xlink:href="#DejaVuSans-30" x="375.341797"/>
     <use xlink:href="#DejaVuSans-39" x="438.964844"/>
    </g>
   </g>
   <g id="text_18">
    <!-- bbob f13, 20-D -->
    <g transform="translate(60.632064 38.111366)scale(0.102 -0.102)">
     <defs>
      <path id="DejaVuSans-33" d="M 2597 2516 
Q 3050 2419 3304 2112 
Q 3559 1806 3559 1356 
Q 3559 666 3084 287 
Q 2609 -91 1734 -91 
Q 1441 -91 1130 -33 
Q 819 25 488 141 
L 488 750 
Q 750 597 1062 519 
Q 1375 441 1716 441 
Q 2309 441 2620 675 
Q 2931 909 2931 1356 
Q 2931 1769 2642 2001 
Q 2353 2234 1838 2234 
L 1294 2234 
L 1294 2753 
L 1863 2753 
Q 2328 2753 2575 2939 
Q 2822 3125 2822 3475 
Q 2822 3834 2567 4026 
Q 2313 4219 1838 4219 
Q 1578 4219 1281 4162 
Q 984 4106 628 3988 
L 628 4550 
Q 988 4650 1302 4700 
Q 1616 4750 1894 4750 
Q 2613 4750 3031 4423 
Q 3450 4097 3450 3541 
Q 3450 3153 3228 2886 
Q 3006 2619 2597 2516 
z
" transform="scale(0.015625)"/>
      <path id="DejaVuSans-44" d="M 1259 4147 
L 1259 519 
L 2022 519 
Q 2988 519 3436 956 
Q 3884 1394 3884 2338 
Q 3884 3275 3436 3711 
Q 2988 4147 2022 4147 
L 1259 4147 
z
M 628 4666 
L 1925 4666 
Q 3281 4666 3915 4102 
Q 4550 3538 4550 2338 
Q 4550 1131 3912 565 
Q 3275 0 1925 0 
L 628 0 
L 628 4666 
z
" transform="scale(0.015625)"/>
     </defs>
     <use xlink:href="#DejaVuSans-62"/>
     <use xlink:href="#DejaVuSans-62" x="63.476562"/>
     <use xlink:href="#DejaVuSans-6f" x="126.953125"/>
     <use xlink:href="#DejaVuSans-62" x="188.134766"/>
     <use xlink:href="#DejaVuSans-20" x="251.611328"/>
     <use xlink:href="#DejaVuSans-66" x="283.398438"/>
     <use xlink:href="#DejaVuSans-31" x="318.603516"/>
     <use xlink:href="#DejaVuSans-33" x="382.226562"/>
     <use xlink:href="#DejaVuSans-2c" x="445.849609"/>
     <use xlink:href="#DejaVuSans-20" x="477.636719"/>
     <use xlink:href="#DejaVuSans-32" x="509.423828"/>
     <use xlink:href="#DejaVuSans-30" x="573.046875"/>
     <use xlink:href="#DejaVuSans-2d" x="636.669922"/>
     <use xlink:href="#DejaVuSans-44" x="672.753906"/>
    </g>
    <!-- 51 targets: 100..1e-08 -->
    <g transform="translate(60.632064 49.533135)scale(0.102 -0.102)">
     <defs>
      <path id="DejaVuSans-35" d="M 691 4666 
L 3169 4666 
L 3169 4134 
L 1269 4134 
L 1269 2991 
Q 1406 3038 1543 3061 
Q 1681 3084 1819 3084 
Q 2600 3084 3056 2656 
Q 3513 2228 3513 1497 
Q 3513 744 3044 326 
Q 2575 -91 1722 -91 
Q 1428 -91 1123 -41 
Q 819 9 494 109 
L 494 744 
Q 775 591 1075 516 
Q 1375 441 1709 441 
Q 2250 441 2565 725 
Q 2881 1009 2881 1497 
Q 2881 1984 2565 2268 
Q 2250 2553 1709 2553 
Q 1456 2553 1204 2497 
Q 953 2441 691 2322 
L 691 4666 
z
" transform="scale(0.015625)"/>
      <path id="DejaVuSans-3a" d="M 750 794 
L 1409 794 
L 1409 0 
L 750 0 
L 750 794 
z
M 750 3309 
L 1409 3309 
L 1409 2516 
L 750 2516 
L 750 3309 
z
" transform="scale(0.015625)"/>
     </defs>
     <use xlink:href="#DejaVuSans-35"/>
     <use xlink:href="#DejaVuSans-31" x="63.623047"/>
     <use xlink:href="#DejaVuSans-20" x="127.246094"/>
     <use xlink:href="#DejaVuSans-74" x="159.033203"/>
     <use xlink:href="#DejaVuSans-61" x="198.242188"/>
     <use xlink:href="#DejaVuSans-72" x="259.521484"/>
     <use xlink:href="#DejaVuSans-67" x="298.884766"/>
     <use xlink:href="#DejaVuSans-65" x="362.361328"/>
     <use xlink:href="#DejaVuSans-74" x="423.884766"/>
     <use xlink:href="#DejaVuSans-73" x="463.09375"/>
     <use xlink:href="#DejaVuSans-3a" x="515.193359"/>
     <use xlink:href="#DejaVuSans-20" x="548.884766"/>
     <use xlink:href="#DejaVuSans-31" x="580.671875"/>
     <use xlink:href="#DejaVuSans-30" x="644.294922"/>
     <use xlink:href="#DejaVuSans-30" x="707.917969"/>
     <use xlink:href="#DejaVuSans-2e" x="771.541016"/>
     <use xlink:href="#DejaVuSans-2e" x="803.328125"/>
     <use xlink:href="#DejaVuSans-31" x="835.115234"/>
     <use xlink:href="#DejaVuSans-65" x="898.738281"/>
     <use xlink:href="#DejaVuSans-2d" x="960.261719"/>
     <use xlink:href="#DejaVuSans-30" x="996.345703"/>
     <use xlink:href="#DejaVuSans-38" x="1059.96875"/>
    </g>
    <!-- 5, 15 instances -->
    <g transform="translate(60.632064 60.954904)scale(0.102 -0.102)">
     <use xlink:href="#DejaVuSans-35"/>
     <use xlink:href="#DejaVuSans-2c" x="63.623047"/>
     <use xlink:href="#DejaVuSans-20" x="95.410156"/>
     <use xlink:href="#DejaVuSans-31" x="127.197266"/>
     <use xlink:href="#DejaVuSans-35" x="190.820312"/>
     <use xlink:href="#DejaVuSans-20" x="254.443359"/>
     <use xlink:href="#DejaVuSans-69" x="286.230469"/>
     <use xlink:href="#DejaVuSans-6e" x="314.013672"/>
     <use xlink:href="#DejaVuSans-73" x="377.392578"/>
     <use xlink:href="#DejaVuSans-74" x="429.492188"/>
     <use xlink:href="#DejaVuSans-61" x="468.701172"/>
     <use xlink:href="#DejaVuSans-6e" x="529.980469"/>
     <use xlink:href="#DejaVuSans-63" x="593.359375"/>
     <use xlink:href="#DejaVuSans-65" x="648.339844"/>
     <use xlink:href="#DejaVuSans-73" x="709.863281"/>
    </g>
   </g>
   <g id="text_19">
    <!-- v2.6 -->
    <g style="fill: #808080" transform="translate(198.292262 294.151352)scale(0.1 -0.1)">
     <use xlink:href="#DejaVuSans-76"/>
     <use xlink:href="#DejaVuSans-32" x="59.179688"/>
     <use xlink:href="#DejaVuSans-2e" x="122.802734"/>
     <use xlink:href="#DejaVuSans-36" x="154.589844"/>
    </g>
   </g>
   <g id="text_20">
    <!-- 13 Sharp ridge -->
    <g transform="translate(135.10945 21.648)scale(0.2 -0.2)">
     <defs>
      <path id="DejaVuSans-68" d="M 3513 2113 
L 3513 0 
L 2938 0 
L 2938 2094 
Q 2938 2591 2744 2837 
Q 2550 3084 2163 3084 
Q 1697 3084 1428 2787 
Q 1159 2491 1159 1978 
L 1159 0 
L 581 0 
L 581 4863 
L 1159 4863 
L 1159 2956 
Q 1366 3272 1645 3428 
Q 1925 3584 2291 3584 
Q 2894 3584 3203 3211 
Q 3513 2838 3513 2113 
z
" transform="scale(0.015625)"/>
     </defs>
     <use xlink:href="#DejaVuSans-31"/>
     <use xlink:href="#DejaVuSans-33" x="63.623047"/>
     <use xlink:href="#DejaVuSans-20" x="127.246094"/>
     <use xlink:href="#DejaVuSans-53" x="159.033203"/>
     <use xlink:href="#DejaVuSans-68" x="222.509766"/>
     <use xlink:href="#DejaVuSans-61" x="285.888672"/>
     <use xlink:href="#DejaVuSans-72" x="347.167969"/>
     <use xlink:href="#DejaVuSans-70" x="388.28125"/>
     <use xlink:href="#DejaVuSans-20" x="451.757812"/>
     <use xlink:href="#DejaVuSans-72" x="483.544922"/>
     <use xlink:href="#DejaVuSans-69" x="524.658203"/>
     <use xlink:href="#DejaVuSans-64" x="552.441406"/>
     <use xlink:href="#DejaVuSans-67" x="615.917969"/>
     <use xlink:href="#DejaVuSans-65" x="679.394531"/>
    </g>
   </g>
  </g>
 </g>
 <defs>
  <clipPath id="p71d3771f38">
   <rect x="57.6" y="27.648" width="303.2064" height="271.296"/>
  </clipPath>
 </defs>
</svg>
