<?xml version="1.0" encoding="utf-8" standalone="no"?>
<!DOCTYPE svg PUBLIC "-//W3C//DTD SVG 1.1//EN"
  "http://www.w3.org/Graphics/SVG/1.1/DTD/svg11.dtd">
<svg xmlns:xlink="http://www.w3.org/1999/xlink" width="460.8pt" height="345.6pt" viewBox="0 0 460.8 345.6" xmlns="http://www.w3.org/2000/svg" version="1.1">
 <metadata>
  <rdf:RDF xmlns:dc="http://purl.org/dc/elements/1.1/" xmlns:cc="http://creativecommons.org/ns#" xmlns:rdf="http://www.w3.org/1999/02/22-rdf-syntax-ns#">
   <cc:Work>
    <dc:type rdf:resource="http://purl.org/dc/dcmitype/StillImage"/>
    <dc:date>2022-03-16T23:16:41.692607</dc:date>
    <dc:format>image/svg+xml</dc:format>
    <dc:creator>
     <cc:Agent>
      <dc:title>Matplotlib v3.5.1, https://matplotlib.org/</dc:title>
     </cc:Agent>
    </dc:creator>
   </cc:Work>
  </rdf:RDF>
 </metadata>
 <defs>
  <style type="text/css">*{stroke-linejoin: round; stroke-linecap: butt}</style>
 </defs>
 <g id="figure_1">
  <g id="patch_1">
   <path d="M 0 345.6 
L 460.8 345.6 
L 460.8 0 
L 0 0 
z
" style="fill: #ffffff"/>
  </g>
  <g id="axes_1">
   <g id="patch_2">
    <path d="M 34.16 291.28 
L 453.192 291.28 
L 453.192 3 
L 34.16 3 
z
" style="fill: #ffffff"/>
   </g>
   <g id="matplotlib.axis_1">
    <g id="xtick_1">
     <g id="line2d_1">
      <path d="M 131.784951 291.28 
L 131.784951 3 
" clip-path="url(#p2642fcccf3)" style="fill: none; stroke: #b0b0b0; stroke-width: 0.8; stroke-linecap: square"/>
     </g>
     <g id="line2d_2">
      <defs>
       <path id="m107b7b5920" d="M 0 0 
L 0 3.5 
" style="stroke: #000000; stroke-width: 0.8"/>
      </defs>
      <g>
       <use xlink:href="#m107b7b5920" x="131.784951" y="291.28" style="stroke: #000000; stroke-width: 0.8"/>
      </g>
     </g>
     <g id="text_1">
      <!-- -2 -->
      <g transform="translate(121.814638 313.476875)scale(0.2 -0.2)">
       <defs>
        <path id="DejaVuSans-2d" d="M 313 2009 
L 1997 2009 
L 1997 1497 
L 313 1497 
L 313 2009 
z
" transform="scale(0.015625)"/>
        <path id="DejaVuSans-32" d="M 1228 531 
L 3431 531 
L 3431 0 
L 469 0 
L 469 531 
Q 828 903 1448 1529 
Q 2069 2156 2228 2338 
Q 2531 2678 2651 2914 
Q 2772 3150 2772 3378 
Q 2772 3750 2511 3984 
Q 2250 4219 1831 4219 
Q 1534 4219 1204 4116 
Q 875 4013 500 3803 
L 500 4441 
Q 881 4594 1212 4672 
Q 1544 4750 1819 4750 
Q 2544 4750 2975 4387 
Q 3406 4025 3406 3419 
Q 3406 3131 3298 2873 
Q 3191 2616 2906 2266 
Q 2828 2175 2409 1742 
Q 1991 1309 1228 531 
z
" transform="scale(0.015625)"/>
       </defs>
       <use xlink:href="#DejaVuSans-2d"/>
       <use xlink:href="#DejaVuSans-32" x="36.083984"/>
      </g>
     </g>
    </g>
    <g id="xtick_2">
     <g id="line2d_3">
      <path d="M 243.676 291.28 
L 243.676 3 
" clip-path="url(#p2642fcccf3)" style="fill: none; stroke: #b0b0b0; stroke-width: 0.8; stroke-linecap: square"/>
     </g>
     <g id="line2d_4">
      <g>
       <use xlink:href="#m107b7b5920" x="243.676" y="291.28" style="stroke: #000000; stroke-width: 0.8"/>
      </g>
     </g>
     <g id="text_2">
      <!-- 0 -->
      <g transform="translate(237.3135 313.476875)scale(0.2 -0.2)">
       <defs>
        <path id="DejaVuSans-30" d="M 2034 4250 
Q 1547 4250 1301 3770 
Q 1056 3291 1056 2328 
Q 1056 1369 1301 889 
Q 1547 409 2034 409 
Q 2525 409 2770 889 
Q 3016 1369 3016 2328 
Q 3016 3291 2770 3770 
Q 2525 4250 2034 4250 
z
M 2034 4750 
Q 2819 4750 3233 4129 
Q 3647 3509 3647 2328 
Q 3647 1150 3233 529 
Q 2819 -91 2034 -91 
Q 1250 -91 836 529 
Q 422 1150 422 2328 
Q 422 3509 836 4129 
Q 1250 4750 2034 4750 
z
" transform="scale(0.015625)"/>
       </defs>
       <use xlink:href="#DejaVuSans-30"/>
      </g>
     </g>
    </g>
    <g id="xtick_3">
     <g id="line2d_5">
      <path d="M 355.567049 291.28 
L 355.567049 3 
" clip-path="url(#p2642fcccf3)" style="fill: none; stroke: #b0b0b0; stroke-width: 0.8; stroke-linecap: square"/>
     </g>
     <g id="line2d_6">
      <g>
       <use xlink:href="#m107b7b5920" x="355.567049" y="291.28" style="stroke: #000000; stroke-width: 0.8"/>
      </g>
     </g>
     <g id="text_3">
      <!-- 2 -->
      <g transform="translate(349.204549 313.476875)scale(0.2 -0.2)">
       <use xlink:href="#DejaVuSans-32"/>
      </g>
     </g>
    </g>
    <g id="text_4">
     <!-- log10 of FEvals ratio -->
     <g transform="translate(141.371312 336.833125)scale(0.2 -0.2)">
      <defs>
       <path id="DejaVuSans-6c" d="M 603 4863 
L 1178 4863 
L 1178 0 
L 603 0 
L 603 4863 
z
" transform="scale(0.015625)"/>
       <path id="DejaVuSans-6f" d="M 1959 3097 
Q 1497 3097 1228 2736 
Q 959 2375 959 1747 
Q 959 1119 1226 758 
Q 1494 397 1959 397 
Q 2419 397 2687 759 
Q 2956 1122 2956 1747 
Q 2956 2369 2687 2733 
Q 2419 3097 1959 3097 
z
M 1959 3584 
Q 2709 3584 3137 3096 
Q 3566 2609 3566 1747 
Q 3566 888 3137 398 
Q 2709 -91 1959 -91 
Q 1206 -91 779 398 
Q 353 888 353 1747 
Q 353 2609 779 3096 
Q 1206 3584 1959 3584 
z
" transform="scale(0.015625)"/>
       <path id="DejaVuSans-67" d="M 2906 1791 
Q 2906 2416 2648 2759 
Q 2391 3103 1925 3103 
Q 1463 3103 1205 2759 
Q 947 2416 947 1791 
Q 947 1169 1205 825 
Q 1463 481 1925 481 
Q 2391 481 2648 825 
Q 2906 1169 2906 1791 
z
M 3481 434 
Q 3481 -459 3084 -895 
Q 2688 -1331 1869 -1331 
Q 1566 -1331 1297 -1286 
Q 1028 -1241 775 -1147 
L 775 -588 
Q 1028 -725 1275 -790 
Q 1522 -856 1778 -856 
Q 2344 -856 2625 -561 
Q 2906 -266 2906 331 
L 2906 616 
Q 2728 306 2450 153 
Q 2172 0 1784 0 
Q 1141 0 747 490 
Q 353 981 353 1791 
Q 353 2603 747 3093 
Q 1141 3584 1784 3584 
Q 2172 3584 2450 3431 
Q 2728 3278 2906 2969 
L 2906 3500 
L 3481 3500 
L 3481 434 
z
" transform="scale(0.015625)"/>
       <path id="DejaVuSans-31" d="M 794 531 
L 1825 531 
L 1825 4091 
L 703 3866 
L 703 4441 
L 1819 4666 
L 2450 4666 
L 2450 531 
L 3481 531 
L 3481 0 
L 794 0 
L 794 531 
z
" transform="scale(0.015625)"/>
       <path id="DejaVuSans-20" transform="scale(0.015625)"/>
       <path id="DejaVuSans-66" d="M 2375 4863 
L 2375 4384 
L 1825 4384 
Q 1516 4384 1395 4259 
Q 1275 4134 1275 3809 
L 1275 3500 
L 2222 3500 
L 2222 3053 
L 1275 3053 
L 1275 0 
L 697 0 
L 697 3053 
L 147 3053 
L 147 3500 
L 697 3500 
L 697 3744 
Q 697 4328 969 4595 
Q 1241 4863 1831 4863 
L 2375 4863 
z
" transform="scale(0.015625)"/>
       <path id="DejaVuSans-46" d="M 628 4666 
L 3309 4666 
L 3309 4134 
L 1259 4134 
L 1259 2759 
L 3109 2759 
L 3109 2228 
L 1259 2228 
L 1259 0 
L 628 0 
L 628 4666 
z
" transform="scale(0.015625)"/>
       <path id="DejaVuSans-45" d="M 628 4666 
L 3578 4666 
L 3578 4134 
L 1259 4134 
L 1259 2753 
L 3481 2753 
L 3481 2222 
L 1259 2222 
L 1259 531 
L 3634 531 
L 3634 0 
L 628 0 
L 628 4666 
z
" transform="scale(0.015625)"/>
       <path id="DejaVuSans-76" d="M 191 3500 
L 800 3500 
L 1894 563 
L 2988 3500 
L 3597 3500 
L 2284 0 
L 1503 0 
L 191 3500 
z
" transform="scale(0.015625)"/>
       <path id="DejaVuSans-61" d="M 2194 1759 
Q 1497 1759 1228 1600 
Q 959 1441 959 1056 
Q 959 750 1161 570 
Q 1363 391 1709 391 
Q 2188 391 2477 730 
Q 2766 1069 2766 1631 
L 2766 1759 
L 2194 1759 
z
M 3341 1997 
L 3341 0 
L 2766 0 
L 2766 531 
Q 2569 213 2275 61 
Q 1981 -91 1556 -91 
Q 1019 -91 701 211 
Q 384 513 384 1019 
Q 384 1609 779 1909 
Q 1175 2209 1959 2209 
L 2766 2209 
L 2766 2266 
Q 2766 2663 2505 2880 
Q 2244 3097 1772 3097 
Q 1472 3097 1187 3025 
Q 903 2953 641 2809 
L 641 3341 
Q 956 3463 1253 3523 
Q 1550 3584 1831 3584 
Q 2591 3584 2966 3190 
Q 3341 2797 3341 1997 
z
" transform="scale(0.015625)"/>
       <path id="DejaVuSans-73" d="M 2834 3397 
L 2834 2853 
Q 2591 2978 2328 3040 
Q 2066 3103 1784 3103 
Q 1356 3103 1142 2972 
Q 928 2841 928 2578 
Q 928 2378 1081 2264 
Q 1234 2150 1697 2047 
L 1894 2003 
Q 2506 1872 2764 1633 
Q 3022 1394 3022 966 
Q 3022 478 2636 193 
Q 2250 -91 1575 -91 
Q 1294 -91 989 -36 
Q 684 19 347 128 
L 347 722 
Q 666 556 975 473 
Q 1284 391 1588 391 
Q 1994 391 2212 530 
Q 2431 669 2431 922 
Q 2431 1156 2273 1281 
Q 2116 1406 1581 1522 
L 1381 1569 
Q 847 1681 609 1914 
Q 372 2147 372 2553 
Q 372 3047 722 3315 
Q 1072 3584 1716 3584 
Q 2034 3584 2315 3537 
Q 2597 3491 2834 3397 
z
" transform="scale(0.015625)"/>
       <path id="DejaVuSans-72" d="M 2631 2963 
Q 2534 3019 2420 3045 
Q 2306 3072 2169 3072 
Q 1681 3072 1420 2755 
Q 1159 2438 1159 1844 
L 1159 0 
L 581 0 
L 581 3500 
L 1159 3500 
L 1159 2956 
Q 1341 3275 1631 3429 
Q 1922 3584 2338 3584 
Q 2397 3584 2469 3576 
Q 2541 3569 2628 3553 
L 2631 2963 
z
" transform="scale(0.015625)"/>
       <path id="DejaVuSans-74" d="M 1172 4494 
L 1172 3500 
L 2356 3500 
L 2356 3053 
L 1172 3053 
L 1172 1153 
Q 1172 725 1289 603 
Q 1406 481 1766 481 
L 2356 481 
L 2356 0 
L 1766 0 
Q 1100 0 847 248 
Q 594 497 594 1153 
L 594 3053 
L 172 3053 
L 172 3500 
L 594 3500 
L 594 4494 
L 1172 4494 
z
" transform="scale(0.015625)"/>
       <path id="DejaVuSans-69" d="M 603 3500 
L 1178 3500 
L 1178 0 
L 603 0 
L 603 3500 
z
M 603 4863 
L 1178 4863 
L 1178 4134 
L 603 4134 
L 603 4863 
z
" transform="scale(0.015625)"/>
      </defs>
      <use xlink:href="#DejaVuSans-6c"/>
      <use xlink:href="#DejaVuSans-6f" x="27.783203"/>
      <use xlink:href="#DejaVuSans-67" x="88.964844"/>
      <use xlink:href="#DejaVuSans-31" x="152.441406"/>
      <use xlink:href="#DejaVuSans-30" x="216.064453"/>
      <use xlink:href="#DejaVuSans-20" x="279.6875"/>
      <use xlink:href="#DejaVuSans-6f" x="311.474609"/>
      <use xlink:href="#DejaVuSans-66" x="372.65625"/>
      <use xlink:href="#DejaVuSans-20" x="407.861328"/>
      <use xlink:href="#DejaVuSans-46" x="439.648438"/>
      <use xlink:href="#DejaVuSans-45" x="497.167969"/>
      <use xlink:href="#DejaVuSans-76" x="560.351562"/>
      <use xlink:href="#DejaVuSans-61" x="619.53125"/>
      <use xlink:href="#DejaVuSans-6c" x="680.810547"/>
      <use xlink:href="#DejaVuSans-73" x="708.59375"/>
      <use xlink:href="#DejaVuSans-20" x="760.693359"/>
      <use xlink:href="#DejaVuSans-72" x="792.480469"/>
      <use xlink:href="#DejaVuSans-61" x="833.59375"/>
      <use xlink:href="#DejaVuSans-74" x="894.873047"/>
      <use xlink:href="#DejaVuSans-69" x="934.082031"/>
      <use xlink:href="#DejaVuSans-6f" x="961.865234"/>
     </g>
    </g>
   </g>
   <g id="matplotlib.axis_2">
    <g id="ytick_1">
     <g id="line2d_7">
      <path d="M 34.16 288.453725 
L 453.192 288.453725 
" clip-path="url(#p2642fcccf3)" style="fill: none; stroke: #b0b0b0; stroke-width: 0.8; stroke-linecap: square"/>
     </g>
     <g id="line2d_8">
      <defs>
       <path id="m0f1f02fa25" d="M 0 0 
L -3.5 0 
" style="stroke: #000000; stroke-width: 0.8"/>
      </defs>
      <g>
       <use xlink:href="#m0f1f02fa25" x="34.16" y="288.453725" style="stroke: #000000; stroke-width: 0.8"/>
      </g>
     </g>
    </g>
    <g id="ytick_2">
     <g id="line2d_9">
      <path d="M 34.16 217.796863 
L 453.192 217.796863 
" clip-path="url(#p2642fcccf3)" style="fill: none; stroke: #b0b0b0; stroke-width: 0.8; stroke-linecap: square"/>
     </g>
     <g id="line2d_10">
      <g>
       <use xlink:href="#m0f1f02fa25" x="34.16" y="217.796863" style="stroke: #000000; stroke-width: 0.8"/>
      </g>
     </g>
    </g>
    <g id="ytick_3">
     <g id="line2d_11">
      <path d="M 34.16 147.14 
L 453.192 147.14 
" clip-path="url(#p2642fcccf3)" style="fill: none; stroke: #b0b0b0; stroke-width: 0.8; stroke-linecap: square"/>
     </g>
     <g id="line2d_12">
      <g>
       <use xlink:href="#m0f1f02fa25" x="34.16" y="147.14" style="stroke: #000000; stroke-width: 0.8"/>
      </g>
     </g>
    </g>
    <g id="ytick_4">
     <g id="line2d_13">
      <path d="M 34.16 76.483137 
L 453.192 76.483137 
" clip-path="url(#p2642fcccf3)" style="fill: none; stroke: #b0b0b0; stroke-width: 0.8; stroke-linecap: square"/>
     </g>
     <g id="line2d_14">
      <g>
       <use xlink:href="#m0f1f02fa25" x="34.16" y="76.483137" style="stroke: #000000; stroke-width: 0.8"/>
      </g>
     </g>
    </g>
    <g id="ytick_5">
     <g id="line2d_15">
      <path d="M 34.16 5.826275 
L 453.192 5.826275 
" clip-path="url(#p2642fcccf3)" style="fill: none; stroke: #b0b0b0; stroke-width: 0.8; stroke-linecap: square"/>
     </g>
     <g id="line2d_16">
      <g>
       <use xlink:href="#m0f1f02fa25" x="34.16" y="5.826275" style="stroke: #000000; stroke-width: 0.8"/>
      </g>
     </g>
    </g>
    <g id="text_5">
     <!-- proportion of trials -->
     <g transform="translate(19.000625 240.14625)rotate(-90)scale(0.2 -0.2)">
      <defs>
       <path id="DejaVuSans-70" d="M 1159 525 
L 1159 -1331 
L 581 -1331 
L 581 3500 
L 1159 3500 
L 1159 2969 
Q 1341 3281 1617 3432 
Q 1894 3584 2278 3584 
Q 2916 3584 3314 3078 
Q 3713 2572 3713 1747 
Q 3713 922 3314 415 
Q 2916 -91 2278 -91 
Q 1894 -91 1617 61 
Q 1341 213 1159 525 
z
M 3116 1747 
Q 3116 2381 2855 2742 
Q 2594 3103 2138 3103 
Q 1681 3103 1420 2742 
Q 1159 2381 1159 1747 
Q 1159 1113 1420 752 
Q 1681 391 2138 391 
Q 2594 391 2855 752 
Q 3116 1113 3116 1747 
z
" transform="scale(0.015625)"/>
       <path id="DejaVuSans-6e" d="M 3513 2113 
L 3513 0 
L 2938 0 
L 2938 2094 
Q 2938 2591 2744 2837 
Q 2550 3084 2163 3084 
Q 1697 3084 1428 2787 
Q 1159 2491 1159 1978 
L 1159 0 
L 581 0 
L 581 3500 
L 1159 3500 
L 1159 2956 
Q 1366 3272 1645 3428 
Q 1925 3584 2291 3584 
Q 2894 3584 3203 3211 
Q 3513 2838 3513 2113 
z
" transform="scale(0.015625)"/>
      </defs>
      <use xlink:href="#DejaVuSans-70"/>
      <use xlink:href="#DejaVuSans-72" x="63.476562"/>
      <use xlink:href="#DejaVuSans-6f" x="102.339844"/>
      <use xlink:href="#DejaVuSans-70" x="163.521484"/>
      <use xlink:href="#DejaVuSans-6f" x="226.998047"/>
      <use xlink:href="#DejaVuSans-72" x="288.179688"/>
      <use xlink:href="#DejaVuSans-74" x="329.292969"/>
      <use xlink:href="#DejaVuSans-69" x="368.501953"/>
      <use xlink:href="#DejaVuSans-6f" x="396.285156"/>
      <use xlink:href="#DejaVuSans-6e" x="457.466797"/>
      <use xlink:href="#DejaVuSans-20" x="520.845703"/>
      <use xlink:href="#DejaVuSans-6f" x="552.632812"/>
      <use xlink:href="#DejaVuSans-66" x="613.814453"/>
      <use xlink:href="#DejaVuSans-20" x="649.019531"/>
      <use xlink:href="#DejaVuSans-74" x="680.806641"/>
      <use xlink:href="#DejaVuSans-72" x="720.015625"/>
      <use xlink:href="#DejaVuSans-69" x="761.128906"/>
      <use xlink:href="#DejaVuSans-61" x="788.912109"/>
      <use xlink:href="#DejaVuSans-6c" x="850.191406"/>
      <use xlink:href="#DejaVuSans-73" x="877.974609"/>
     </g>
    </g>
   </g>
   <g id="line2d_17">
    <path d="M 34.16 288.453725 
L 111.198296 288.359516 
L 111.198296 288.328113 
L 134.344877 288.328113 
L 134.344877 288.233904 
L 134.344877 288.014083 
L 147.742613 287.919874 
L 147.742613 287.888471 
L 153.447961 287.794261 
L 153.447961 287.762858 
L 155.942132 287.762858 
L 155.942132 287.668649 
L 155.942132 287.605843 
L 158.721941 287.605843 
L 158.721941 287.511634 
L 158.721941 287.291813 
L 162.223123 287.197603 
L 162.223123 287.1662 
L 165.703243 287.071991 
L 165.703243 287.009185 
L 166.459358 286.946379 
L 166.459358 286.914976 
L 166.459358 286.600946 
L 167.493422 286.538139 
L 167.493422 286.506736 
L 167.493422 286.475333 
L 170.289242 286.381124 
L 170.289242 286.349721 
L 170.889194 286.349721 
L 170.889194 286.255512 
L 170.889194 285.658854 
L 172.135459 285.627451 
L 172.135459 285.564645 
L 172.135459 285.31342 
L 172.783413 285.282017 
L 172.783413 285.219211 
L 172.783413 285.125002 
L 173.449121 285.093599 
L 173.449121 285.030793 
L 173.518442 284.685359 
L 175.563222 284.622553 
L 175.563222 284.59115 
L 175.563222 284.559747 
L 176.565295 284.465538 
L 176.663863 284.402732 
L 177.17515 284.308523 
L 177.17515 284.27712 
L 179.125222 284.182911 
L 179.125222 284.151508 
L 179.555266 284.151508 
L 179.555266 284.057298 
L 179.555266 283.680462 
L 180.740712 283.586253 
L 180.828203 283.523447 
L 181.355855 283.492044 
L 181.355855 283.429237 
L 181.355855 283.115207 
L 181.708842 283.020998 
L 181.708842 282.989595 
L 183.145387 282.895386 
L 183.145387 282.863983 
L 183.300639 282.863983 
L 183.300639 282.769773 
L 183.300639 282.518549 
L 185.41474 282.42434 
L 185.41474 281.859085 
L 187.730475 281.764876 
L 187.730475 281.482248 
L 188.97674 281.388039 
L 188.97674 281.29383 
L 189.756384 281.199621 
L 189.844576 281.136815 
L 191.238893 281.042606 
L 191.238893 281.011203 
L 192.552205 280.916993 
L 192.652926 280.791381 
L 193.152157 280.728575 
L 193.152157 280.697172 
L 193.152157 280.288932 
L 193.576717 280.194723 
L 193.663688 280.100514 
L 193.943655 280.006305 
L 193.989171 279.912096 
L 194.720238 279.880693 
L 194.720238 279.817887 
L 194.720238 279.786484 
L 194.944492 279.692275 
L 195.046375 279.472453 
L 195.601249 279.378244 
L 195.601249 279.346841 
L 196.199997 279.252632 
L 196.280737 279.189826 
L 196.396547 279.158423 
L 196.396547 279.095617 
L 196.490257 278.184928 
L 196.936499 278.090719 
L 196.968019 278.027913 
L 197.581993 277.99651 
L 197.581993 277.933704 
L 197.606512 277.839495 
L 198.040255 277.745285 
L 198.064788 277.682479 
L 198.197136 277.682479 
L 198.197136 277.58827 
L 198.197136 277.494061 
L 198.81674 277.399852 
L 198.89748 277.27424 
L 199.16584 277.180031 
L 199.259585 277.054418 
L 199.476212 276.960209 
L 199.56126 276.803194 
L 199.817339 276.708985 
L 199.898079 276.614776 
L 200.14192 276.520566 
L 200.248976 275.861102 
L 200.319996 275.766893 
L 200.414047 275.672684 
L 200.754434 275.578475 
L 200.845567 275.515669 
L 201.05889 275.42146 
L 201.100229 275.327251 
L 201.376667 275.233041 
L 201.457406 275.076026 
L 201.783543 274.981817 
L 201.882823 274.730593 
L 202.256021 274.636383 
L 202.256021 274.510771 
L 202.629415 274.416562 
L 202.701847 274.29095 
L 203.003675 274.196741 
L 203.092258 274.071129 
L 203.261176 273.976919 
L 203.261176 273.945516 
L 203.677293 273.851307 
L 203.775068 273.757098 
L 203.971804 273.662889 
L 203.971804 273.631486 
L 204.42001 273.537277 
L 204.42001 273.505874 
L 204.571756 273.474471 
L 204.571756 273.411664 
L 204.571756 273.003425 
L 205.363818 272.909216 
L 205.363818 272.877813 
L 205.563602 272.877813 
L 205.563602 272.783603 
L 205.616943 272.720797 
L 206.001394 272.626588 
L 206.078587 272.500976 
L 206.248065 272.406767 
L 206.248065 272.249752 
L 207.003467 272.155542 
L 207.003467 272.124139 
L 207.183991 272.02993 
L 207.247896 271.967124 
L 207.677702 271.904318 
L 207.677702 271.872915 
L 207.677702 271.810109 
L 207.879337 271.778706 
L 207.879337 271.7159 
L 207.944599 271.653094 
L 208.192849 271.558885 
L 208.192849 271.527481 
L 208.390868 271.496078 
L 208.390868 271.433272 
L 208.439686 271.339063 
L 208.913401 271.30766 
L 208.913401 271.244854 
L 208.913401 271.182048 
L 209.769502 271.087839 
L 209.838186 271.025033 
L 209.993438 271.025033 
L 209.993438 270.930824 
L 209.993438 270.145747 
L 210.447598 270.051538 
L 210.504969 269.988732 
L 210.764831 269.894523 
L 210.764831 269.86312 
L 211.027502 269.831717 
L 211.027502 269.768911 
L 211.027502 269.706105 
L 211.239702 269.643298 
L 211.239702 269.611895 
L 211.3071 269.517686 
L 211.742166 269.423477 
L 211.794027 269.360671 
L 212.107539 269.360671 
L 212.107539 269.266462 
L 212.107539 269.172253 
L 212.70381 269.078044 
L 212.779383 268.983834 
L 212.924316 268.952431 
L 212.924316 268.889625 
L 212.972286 268.826819 
L 213.237828 268.73261 
L 213.277303 268.387176 
L 213.738811 268.292967 
L 213.823322 268.041743 
L 214.203392 267.978937 
L 214.203392 267.947534 
L 214.259106 267.790519 
L 214.423274 267.759115 
L 214.423274 267.696309 
L 214.516188 267.6021 
L 214.667466 267.539294 
L 214.667466 267.507891 
L 214.772875 267.350876 
L 214.8691 267.350876 
L 214.8691 267.256667 
L 214.883165 267.131054 
L 215.038417 267.099651 
L 215.038417 267.036845 
L 215.038417 266.974039 
L 215.744878 266.87983 
L 215.852912 266.785621 
L 216.216676 266.722815 
L 216.216676 266.691412 
L 216.317493 266.5658 
L 216.824915 266.47159 
L 216.899274 266.377381 
L 216.983201 266.377381 
L 216.983201 266.283172 
L 216.983201 264.964244 
L 217.285029 264.870035 
L 217.331799 264.807229 
L 217.500174 264.71302 
L 217.599235 264.587407 
L 217.708534 264.524601 
L 217.708534 264.493198 
L 217.767038 264.336183 
L 218.168648 264.30478 
L 218.168648 264.241974 
L 218.262277 264.053556 
L 218.421303 263.990749 
L 218.421303 263.959346 
L 218.502248 263.770928 
L 218.659509 263.739525 
L 218.659509 263.676719 
L 218.659509 263.645316 
L 218.883709 263.551107 
L 218.883709 263.519704 
L 219.202711 263.425495 
L 219.298937 263.331285 
L 219.414912 263.268479 
L 219.414912 263.237076 
L 219.490251 262.86024 
L 219.736729 262.766031 
L 219.844956 262.577612 
L 220.007788 262.483403 
L 220.07971 262.389194 
L 220.356487 262.294985 
L 220.460098 262.04376 
L 220.560041 261.949551 
L 220.668656 261.823939 
L 220.728574 261.823939 
L 220.728574 261.72973 
L 220.81873 261.541312 
L 221.045592 261.447102 
L 221.154754 261.32149 
L 221.413037 261.290087 
L 221.413037 261.227281 
L 221.464243 260.913251 
L 221.821397 260.819041 
L 221.858863 260.724832 
L 222.089335 260.630623 
L 222.192682 260.473608 
L 222.390875 260.379399 
L 222.477302 260.159577 
L 222.612994 260.065368 
L 222.70671 259.908353 
L 222.775834 259.87695 
L 222.775834 259.814144 
L 222.842675 259.719935 
L 223.010588 259.625725 
L 223.098653 259.217486 
L 223.19638 259.123277 
L 223.307256 258.997664 
L 223.366513 258.903455 
L 223.438946 258.777843 
L 223.561144 258.683634 
L 223.659452 258.558022 
L 223.766181 258.463813 
L 223.814678 258.369603 
L 223.972964 258.306797 
L 223.972964 258.275394 
L 223.993901 258.149782 
L 224.181522 258.055573 
L 224.274792 257.867155 
L 224.473169 257.772946 
L 224.576961 257.584527 
L 224.720618 257.553124 
L 224.720618 257.490318 
L 224.816464 257.207691 
L 224.889935 257.144885 
L 224.889935 257.113481 
L 224.988502 256.862257 
L 225.124689 256.768048 
L 225.222015 256.516824 
L 225.405081 256.422614 
L 225.508852 256.328405 
L 225.54584 256.234196 
L 225.649272 256.045778 
L 225.721692 255.951569 
L 225.826407 255.731747 
L 225.868402 255.637538 
L 225.9511 255.386314 
L 226.041745 255.292105 
L 226.150256 255.009477 
L 226.2887 254.915268 
L 226.388893 254.72685 
L 226.621025 254.632641 
L 226.688792 254.507028 
L 226.834719 254.444222 
L 226.834719 254.412819 
L 226.930565 253.062488 
L 227.25006 252.968279 
L 227.288879 252.87407 
L 227.482673 252.779861 
L 227.590122 252.560039 
L 227.697419 252.497233 
L 227.697419 252.46583 
L 227.72422 252.403024 
L 227.868783 252.308815 
L 227.95727 252.05759 
L 228.051604 251.963381 
L 228.156323 251.680754 
L 228.255991 251.649351 
L 228.255991 251.586545 
L 228.338095 251.398126 
L 228.43397 251.303917 
L 228.538345 251.02129 
L 228.607429 250.927081 
L 228.704628 250.61305 
L 228.779503 250.581647 
L 228.779503 250.518841 
L 228.86466 250.361826 
L 228.94882 250.361826 
L 228.94882 250.267617 
L 229.025105 250.016392 
L 229.150454 249.922183 
L 229.258338 249.48254 
L 229.310719 249.388331 
L 229.420618 249.042898 
L 229.519086 248.948688 
L 229.607311 248.823076 
L 229.696474 248.728867 
L 229.770984 248.509046 
L 229.848805 248.414837 
L 229.946989 248.132209 
L 229.971256 248.038 
L 230.079109 247.661163 
L 230.208005 247.566954 
L 230.293726 247.472745 
L 230.396719 247.378536 
L 230.482121 247.127312 
L 230.536116 247.033102 
L 230.633433 246.59346 
L 230.69149 246.499251 
L 230.786875 246.310832 
L 230.845634 246.216623 
L 230.942738 245.996802 
L 231.129607 245.902593 
L 231.23939 245.682771 
L 231.264555 245.588562 
L 231.361938 245.211725 
L 231.51831 245.117516 
L 231.614156 244.74068 
L 231.710381 244.646471 
L 231.810575 244.363843 
L 231.836272 244.269634 
L 231.938341 244.049813 
L 232.023893 243.955603 
L 232.127255 243.547364 
L 232.17227 243.453155 
L 232.280326 243.20193 
L 232.307931 243.107721 
L 232.394844 242.793691 
L 232.435714 242.699481 
L 232.51082 242.259839 
L 232.569016 242.16563 
L 232.669388 242.040017 
L 232.694193 242.008614 
L 232.694193 241.945808 
L 232.804885 241.568972 
L 232.859901 241.474763 
L 232.960371 241.160732 
L 233.005828 241.066523 
L 233.09915 240.940911 
L 233.13394 240.846702 
L 233.239629 240.532671 
L 233.290464 240.438462 
L 233.366038 240.093028 
L 233.441847 239.998819 
L 233.549939 239.59058 
L 233.586276 239.49637 
L 233.694204 239.088131 
L 233.784619 238.993922 
L 233.894041 238.114636 
L 234.005129 238.020427 
L 234.087153 237.769203 
L 234.145181 237.674993 
L 234.219561 237.455172 
L 234.305623 237.360963 
L 234.408614 236.858514 
L 234.475911 236.764305 
L 234.585519 236.230453 
L 234.625211 236.136244 
L 234.731669 235.853617 
L 234.816327 235.759407 
L 234.922267 235.413974 
L 234.954771 235.319765 
L 235.065352 234.974331 
L 235.127305 234.911525 
L 235.127305 234.880122 
L 235.220292 234.660301 
L 235.294956 234.566092 
L 235.358211 234.314867 
L 235.488699 234.220658 
L 235.584911 233.341373 
L 235.652173 233.247163 
L 235.76151 233.027342 
L 235.791774 232.933133 
L 235.897821 232.619102 
L 235.949466 232.524893 
L 236.055115 232.17946 
L 236.109088 232.085251 
L 236.174706 231.77122 
L 236.256193 231.677011 
L 236.3601 231.394383 
L 236.423566 231.331577 
L 236.423566 231.300174 
L 236.530985 230.954741 
L 236.574786 230.860532 
L 236.659956 230.420889 
L 236.686237 230.420889 
L 236.686237 230.32668 
L 236.760426 230.012649 
L 236.82791 229.91844 
L 236.935169 229.541603 
L 236.963918 229.447394 
L 237.068872 229.007752 
L 237.158035 228.913542 
L 237.268776 228.411094 
L 237.351945 228.316885 
L 237.45763 227.845839 
L 237.550473 227.75163 
L 237.654366 227.280584 
L 237.724955 227.186375 
L 237.83586 226.652523 
L 237.863476 226.558314 
L 237.970142 226.21288 
L 237.999899 226.150074 
L 237.999899 226.118671 
L 238.102936 225.584819 
L 238.141572 225.49061 
L 238.240319 225.145176 
L 238.254318 225.145176 
L 238.254318 225.050967 
L 238.362545 224.485712 
L 238.414726 224.391503 
L 238.525136 224.077473 
L 238.556146 223.983264 
L 238.656227 223.449412 
L 238.713872 223.355203 
L 238.823599 223.009769 
L 238.839513 222.91556 
L 238.938117 222.350305 
L 238.984008 222.256096 
L 239.090912 221.942065 
L 239.148781 221.847856 
L 239.246164 221.282601 
L 239.273484 221.188392 
L 239.377144 220.811556 
L 239.419096 220.717346 
L 239.509785 220.214898 
L 239.53034 220.214898 
L 239.53034 220.120688 
L 239.639643 219.743852 
L 239.732657 219.649643 
L 239.831658 219.21 
L 239.851869 219.115791 
L 239.955611 218.330715 
L 240.001566 218.236505 
L 240.106056 217.702654 
L 240.164785 217.608444 
L 240.272665 217.294414 
L 240.292373 217.200205 
L 240.396045 216.63495 
L 240.43161 216.572144 
L 240.43161 216.540741 
L 240.536564 215.881277 
L 240.570054 215.787068 
L 240.670362 215.316022 
L 240.727316 215.221813 
L 240.831019 214.813573 
L 240.869403 214.719364 
L 240.973569 214.122706 
L 241.003327 214.0599 
L 241.003327 214.028497 
L 241.110437 213.808675 
L 241.116073 213.808675 
L 241.116073 213.714466 
L 241.221942 213.33763 
L 241.286043 213.24342 
L 241.38824 212.835181 
L 241.431621 212.740972 
L 241.538637 212.301329 
L 241.561899 212.269926 
L 241.561899 212.20712 
L 241.666853 211.79888 
L 241.713755 211.704671 
L 241.789328 211.170819 
L 241.84382 211.07661 
L 241.953675 210.731176 
L 241.999692 210.636967 
L 242.107918 210.35434 
L 242.137712 210.260131 
L 242.242527 209.9461 
L 242.287232 209.851891 
L 242.396924 209.255233 
L 242.429735 209.192427 
L 242.429735 209.161024 
L 242.531316 208.81559 
L 242.545711 208.81559 
L 242.545711 208.721381 
L 242.641936 208.344545 
L 242.684155 208.250336 
L 242.792381 207.77929 
L 242.838095 207.685081 
L 242.939019 207.37105 
L 242.985703 207.276841 
L 243.083365 206.774392 
L 243.104283 206.742989 
L 243.104283 206.680183 
L 243.199576 206.146331 
L 243.238207 206.052122 
L 243.330542 205.769495 
L 243.381489 205.706688 
L 243.381489 205.675285 
L 243.448713 205.424061 
L 243.525555 205.329852 
L 243.636461 205.047224 
L 243.676 205.047224 
L 243.676 204.953015 
L 243.786692 188.906057 
L 243.822809 188.843251 
L 243.822809 188.811847 
L 243.928306 188.435011 
L 244.013931 188.340802 
L 244.119501 187.744144 
L 244.157141 187.649935 
L 244.257988 187.304501 
L 244.297891 187.210292 
L 244.401332 186.645037 
L 244.443332 186.550828 
L 244.54503 185.985573 
L 244.59297 185.891364 
L 244.703814 185.388915 
L 244.751966 185.294706 
L 244.861446 184.82366 
L 244.893437 184.729451 
L 245.002708 184.227002 
L 245.047614 184.132793 
L 245.157973 183.661747 
L 245.195047 183.567538 
L 245.298255 183.222105 
L 245.365263 183.127895 
L 245.467104 182.625447 
L 245.522217 182.531237 
L 245.631973 182.060192 
L 245.660517 181.997386 
L 245.660517 181.965983 
L 245.759862 181.369325 
L 245.790101 181.306519 
L 245.790101 181.275115 
L 245.898974 180.80407 
L 245.945812 180.709861 
L 246.050176 180.270218 
L 246.069568 180.176009 
L 246.170171 179.67356 
L 246.215008 179.579351 
L 246.325336 179.26532 
L 246.378431 179.171111 
L 246.483405 178.637259 
L 246.520981 178.54305 
L 246.630668 177.726571 
L 246.6777 177.632362 
L 246.773581 176.815882 
L 246.800995 176.721673 
L 246.901221 176.313434 
L 246.942602 176.219224 
L 247.050776 175.685373 
L 247.077878 175.591163 
L 247.183556 175.24573 
L 247.2047 175.151521 
L 247.299706 174.649072 
L 247.334444 174.554863 
L 247.437217 173.863996 
L 247.470807 173.769786 
L 247.578635 173.110322 
L 247.624695 173.016113 
L 247.734885 172.482261 
L 247.775608 172.388052 
L 247.885954 172.011216 
L 247.90539 171.917007 
L 248.006055 171.383155 
L 248.064339 171.288946 
L 248.164454 170.660885 
L 248.21762 170.566675 
L 248.326289 170.032824 
L 248.42864 169.938614 
L 248.534195 169.624584 
L 248.599632 169.530375 
L 248.71054 168.996523 
L 248.720979 168.996523 
L 248.720979 168.902314 
L 248.81409 168.525477 
L 248.902525 168.431268 
L 249.00719 168.085834 
L 249.052224 167.991625 
L 249.119463 167.237952 
L 249.239354 167.143743 
L 249.347348 166.798309 
L 249.366158 166.7041 
L 249.468633 166.327264 
L 249.535474 166.233054 
L 249.631699 165.57359 
L 249.681612 165.479381 
L 249.792178 164.882723 
L 249.825301 164.788514 
L 249.927754 164.568693 
L 250.019041 164.474484 
L 250.114983 163.972035 
L 250.170902 163.909229 
L 250.170902 163.877826 
L 250.257403 163.626601 
L 250.320864 163.532392 
L 250.425199 163.124153 
L 250.48645 163.061346 
L 250.48645 163.029943 
L 250.552416 162.904331 
L 250.654656 162.810122 
L 250.753005 161.930837 
L 250.778939 161.836627 
L 250.883283 161.302776 
L 250.925839 161.208566 
L 251.034303 160.737521 
L 251.054521 160.706118 
L 251.054521 160.643312 
L 251.131802 160.486296 
L 251.19283 160.392087 
L 251.296885 160.140863 
L 251.316387 160.046654 
L 251.420954 159.512802 
L 251.483069 159.418593 
L 251.589482 159.104562 
L 251.626237 159.073159 
L 251.626237 159.010353 
L 251.73714 158.445098 
L 251.770355 158.350889 
L 251.876228 157.817037 
L 251.979425 157.722828 
L 252.080173 157.314588 
L 252.09788 157.220379 
L 252.208938 156.498109 
L 252.237905 156.4039 
L 252.342071 156.058466 
L 252.422926 155.964257 
L 252.528255 155.744436 
L 252.590334 155.650227 
L 252.694402 155.053569 
L 252.730829 154.990763 
L 252.730829 154.959359 
L 252.823213 154.708135 
L 252.926378 154.613926 
L 253.036976 154.14288 
L 253.062174 154.048671 
L 253.145145 153.734641 
L 253.21307 153.640431 
L 253.318061 153.232192 
L 253.363349 153.137983 
L 253.448452 152.855355 
L 253.527518 152.823952 
L 253.527518 152.761146 
L 253.636717 152.070279 
L 253.672228 151.97607 
L 253.724254 151.756248 
L 253.805199 151.662039 
L 253.903056 151.379412 
L 253.950082 151.316606 
L 253.950082 151.285203 
L 254.010572 151.128187 
L 254.109506 151.033978 
L 254.214961 150.625739 
L 254.290662 150.531529 
L 254.390218 150.154693 
L 254.419989 150.060484 
L 254.528797 149.746453 
L 254.567113 149.683647 
L 254.567113 149.652244 
L 254.676678 149.244004 
L 254.724648 149.181198 
L 254.724648 149.149795 
L 254.815069 148.710153 
L 254.877277 148.615943 
L 254.986236 148.333316 
L 255.060665 148.239107 
L 255.170474 147.673852 
L 255.214411 147.579643 
L 255.290756 147.297015 
L 255.407769 147.202806 
L 255.515728 146.982985 
L 255.570471 146.888776 
L 255.679085 146.606148 
L 255.720231 146.511939 
L 255.827583 146.197908 
L 255.86674 146.103699 
L 255.968634 145.883878 
L 256.057244 145.789669 
L 256.144421 145.193011 
L 256.237195 145.098802 
L 256.341864 144.816174 
L 256.458396 144.721965 
L 256.568586 144.407935 
L 256.633464 144.345129 
L 256.633464 144.313725 
L 256.695742 144.15671 
L 256.771908 144.093904 
L 256.771908 144.062501 
L 256.844681 143.84268 
L 256.955281 143.748471 
L 257.050323 143.560052 
L 257.089518 143.465843 
L 257.192036 143.308828 
L 257.272891 143.214619 
L 257.377845 142.774976 
L 257.508717 142.680767 
L 257.606491 142.335333 
L 257.655526 142.30393 
L 257.655526 142.241124 
L 257.740417 142.084109 
L 257.882814 141.9899 
L 257.957354 141.832885 
L 258.060966 141.738675 
L 258.166136 141.518854 
L 258.224172 141.424645 
L 258.329931 141.236227 
L 258.40318 141.204824 
L 258.40318 141.142017 
L 258.424615 140.890793 
L 258.598729 140.827987 
L 258.598729 140.796584 
L 258.68959 140.545359 
L 258.754043 140.45115 
L 258.855929 140.262732 
L 258.90362 140.168523 
L 259.00073 139.917298 
L 259.066293 139.823089 
L 259.164424 139.509059 
L 259.223608 139.446253 
L 259.223608 139.41485 
L 259.331835 139.226431 
L 259.483217 139.163625 
L 259.483217 139.132222 
L 259.579063 138.849595 
L 259.664673 138.755386 
L 259.720592 138.59837 
L 259.798083 138.504161 
L 259.902139 138.252937 
L 259.994748 138.158728 
L 260.067789 138.033115 
L 260.216201 137.938906 
L 260.299371 137.781891 
L 260.353297 137.687682 
L 260.41811 137.499264 
L 260.517281 137.499264 
L 260.517281 137.405054 
L 260.517281 135.929111 
L 260.739578 135.834902 
L 260.844516 135.677887 
L 260.918891 135.583678 
L 260.998422 135.520871 
L 261.16681 135.426662 
L 261.264935 135.144035 
L 261.340981 135.049826 
L 261.439749 134.955617 
L 261.53892 134.861407 
L 261.64757 134.767198 
L 261.705143 134.672989 
L 261.811348 134.515974 
L 261.880077 134.453168 
L 261.880077 134.421765 
L 261.990267 134.17054 
L 262.059167 134.076331 
L 262.13767 133.887913 
L 262.203287 133.793704 
L 262.241184 133.668092 
L 262.363498 133.573882 
L 262.462065 133.416867 
L 262.601143 133.322658 
L 262.684974 133.228449 
L 262.79678 133.13424 
L 262.897895 132.788806 
L 262.966516 132.694597 
L 263.077208 132.506179 
L 263.194123 132.411969 
L 263.285766 132.254954 
L 263.465965 132.160745 
L 263.575158 132.035133 
L 263.686873 131.972327 
L 263.686873 131.940924 
L 263.795393 131.658296 
L 263.913054 131.564087 
L 263.994178 131.438475 
L 264.199464 131.344266 
L 264.262654 130.936026 
L 264.448192 130.841817 
L 264.535145 130.684802 
L 264.808674 130.590593 
L 264.892333 130.496383 
L 264.963708 130.402174 
L 265.021992 130.276562 
L 265.131369 130.182353 
L 265.234657 129.805516 
L 265.456228 129.711307 
L 265.56226 129.522889 
L 265.694771 129.42868 
L 265.764791 129.271664 
L 265.938963 129.177455 
L 266.027154 128.894828 
L 266.255538 128.800619 
L 266.363991 128.643603 
L 266.420104 128.549394 
L 266.515199 128.329573 
L 266.762663 128.235364 
L 266.776867 128.172558 
L 266.945083 128.078349 
L 267.035246 127.921333 
L 267.229363 127.827124 
L 267.310308 127.701512 
L 267.482137 127.638706 
L 267.482137 127.607303 
L 267.507044 127.324675 
L 267.784539 127.230466 
L 267.800134 127.16766 
L 268.008028 127.073451 
L 268.106997 126.947839 
L 268.254698 126.885033 
L 268.254698 126.85363 
L 268.359652 126.44539 
L 268.56821 126.351181 
L 268.56821 126.319778 
L 268.74841 126.225569 
L 268.74841 126.194166 
L 269.076969 126.099956 
L 269.183352 125.974344 
L 269.264207 125.942941 
L 269.264207 125.880135 
L 269.264207 125.848732 
L 269.551258 125.754523 
L 269.638012 125.597508 
L 269.82278 125.566105 
L 269.82278 125.503298 
L 269.914639 125.409089 
L 270.109492 125.31488 
L 270.162016 125.252074 
L 270.368799 125.220671 
L 270.368799 125.157865 
L 270.447302 124.215773 
L 270.999921 124.121564 
L 271.073104 124.058758 
L 271.372597 123.964549 
L 271.372597 123.933146 
L 271.615064 123.838937 
L 271.71897 123.681922 
L 271.936881 123.587712 
L 271.936881 123.4621 
L 272.169388 123.367891 
L 272.272015 123.210876 
L 272.313583 123.210876 
L 272.313583 123.116667 
L 272.423276 122.959651 
L 272.643596 122.865442 
L 272.643596 122.834039 
L 272.914758 122.73983 
L 273.021996 122.4258 
L 273.241583 122.33159 
L 273.345819 122.143172 
L 273.528678 122.048963 
L 273.613189 121.954754 
L 273.868351 121.860545 
L 273.940001 121.734932 
L 274.114172 121.703529 
L 274.114172 121.640723 
L 274.191183 121.515111 
L 274.30153 121.420902 
L 274.30153 121.389499 
L 274.496807 121.326693 
L 274.496807 121.29529 
L 274.605034 121.169678 
L 274.71058 121.075468 
L 274.71058 121.044065 
L 275.101199 120.949856 
L 275.158838 120.88705 
L 275.244461 120.88705 
L 275.244461 120.792841 
L 275.258008 120.604423 
L 275.652821 120.510214 
L 275.760027 120.416004 
L 276.120835 120.321795 
L 276.228273 120.227586 
L 276.490726 120.133377 
L 276.561873 120.070571 
L 276.771335 119.976362 
L 276.778658 119.913556 
L 277.141517 119.819346 
L 277.184391 119.75654 
L 277.358562 119.75654 
L 277.358562 119.662331 
L 277.449053 119.128479 
L 277.713267 119.03427 
L 277.760172 118.908658 
L 277.904581 118.814449 
L 277.904581 118.783046 
L 278.416298 118.688837 
L 278.416298 118.657434 
L 278.544009 118.657434 
L 278.544009 118.563224 
L 278.544009 118.500418 
L 278.831548 118.437612 
L 278.831548 118.406209 
L 278.831548 118.343403 
L 279.186253 118.249194 
L 279.186253 118.217791 
L 279.303346 118.217791 
L 279.303346 118.123582 
L 279.303346 118.060776 
L 279.612864 117.997969 
L 279.612864 117.966566 
L 279.690776 117.90376 
L 279.90729 117.809551 
L 279.980102 117.683939 
L 280.220317 117.621133 
L 280.220317 117.58973 
L 280.220317 117.558327 
L 280.602952 117.464118 
L 280.703978 117.338505 
L 280.927032 117.244296 
L 281.017006 117.150087 
L 281.289473 117.055878 
L 281.364237 116.993072 
L 281.729406 116.898863 
L 281.807967 116.836057 
L 282.165101 116.741847 
L 282.234224 116.679041 
L 282.780244 116.647638 
L 282.780244 116.584832 
L 282.780244 116.270802 
L 283.110257 116.176593 
L 283.181853 116.082383 
L 283.76394 115.988174 
L 283.849961 115.893965 
L 284.130415 115.831159 
L 284.130415 115.799756 
L 284.227505 115.73695 
L 284.348325 115.705547 
L 284.348325 115.642741 
L 284.424134 115.454322 
L 284.652674 115.360113 
L 284.736217 115.297307 
L 285.095979 115.234501 
L 285.095979 115.203098 
L 285.095979 115.046083 
L 285.3596 114.951874 
L 285.409491 114.889068 
L 285.624677 114.794858 
L 285.624677 114.763455 
L 285.991731 114.669246 
L 285.991731 114.637843 
L 286.475732 114.543634 
L 286.551665 114.480828 
L 286.785343 114.386619 
L 286.785343 114.355216 
L 287.133554 114.261007 
L 287.234316 113.727155 
L 287.498595 113.632946 
L 287.498595 113.601542 
L 287.875788 113.538736 
L 287.875788 113.507333 
L 287.875788 113.444527 
L 288.398047 113.350318 
L 288.4672 113.256109 
L 288.778162 113.1619 
L 288.853486 113.099094 
L 289.066172 113.004885 
L 289.154864 112.910675 
L 289.617675 112.816466 
L 289.644983 112.75366 
L 290.171616 112.659451 
L 290.171616 112.628048 
L 290.802248 112.533839 
L 290.802248 112.502436 
L 290.955453 112.502436 
L 290.955453 112.408227 
L 290.955453 111.62315 
L 291.409356 111.528941 
L 291.449319 111.434732 
L 292.305625 111.340523 
L 292.305625 111.30912 
L 293.165779 111.214911 
L 293.165779 111.152105 
L 293.980056 111.057895 
L 293.980056 111.026492 
L 294.199843 111.026492 
L 294.199843 110.932283 
L 294.272625 110.806671 
L 295.38529 110.712462 
L 295.38529 110.681059 
L 295.672829 110.618253 
L 295.672829 110.58685 
L 295.672829 110.492641 
L 296.469291 110.398431 
L 296.469291 110.367028 
L 297.061598 110.335625 
L 297.061598 110.272819 
L 297.086815 110.084401 
L 297.727306 110.021595 
L 297.727306 109.990192 
L 297.727306 109.86458 
L 297.945216 109.86458 
L 297.945216 109.77037 
L 297.945216 109.738967 
L 299.336889 109.644758 
L 299.336889 109.613355 
L 300.221477 109.519146 
L 300.231352 109.45634 
L 301.218241 109.362131 
L 301.218241 109.330728 
L 301.93726 109.299325 
L 301.93726 109.236519 
L 301.93726 108.73407 
L 303.825342 108.639861 
L 303.880256 108.577054 
L 304.051361 108.577054 
L 304.051361 108.482845 
L 304.051361 108.388636 
L 304.905379 108.294427 
L 304.905379 108.263024 
L 305.524347 108.168815 
L 305.524347 108.137412 
L 305.996145 108.137412 
L 305.996145 108.043203 
L 305.996145 107.980397 
L 307.490175 107.886187 
L 307.490175 107.854784 
L 307.796734 107.854784 
L 307.796734 107.760575 
L 307.796734 107.729172 
L 309.473043 107.634963 
L 309.473043 107.572157 
L 310.54276 107.477948 
L 310.54276 107.446545 
L 311.041124 107.415142 
L 311.041124 107.352336 
L 311.133543 107.132514 
L 312.514111 107.038305 
L 312.514111 107.006902 
L 313.448719 106.912693 
L 313.550207 106.849887 
L 313.902879 106.849887 
L 313.902879 106.755678 
L 313.902879 106.692871 
L 315.216541 106.630065 
L 315.216541 106.598662 
L 315.216541 106.535856 
L 317.159537 106.441647 
L 317.259495 106.347438 
L 318.318897 106.253229 
L 318.318897 106.221826 
L 321.737345 106.127617 
L 321.737345 106.096214 
L 322.365628 106.002004 
L 322.365628 105.970601 
L 324.638015 105.907795 
L 324.638015 105.876392 
L 324.638015 105.593765 
L 327.882405 105.499556 
L 327.882405 105.373943 
L 331.232806 105.279734 
L 331.232806 105.248331 
L 332.688944 105.154122 
L 332.688944 104.965704 
L 334.489533 104.934301 
L 334.489533 104.871495 
L 334.489533 104.840092 
L 335.619822 104.840092 
L 335.619822 104.745882 
L 335.619822 104.683076 
L 338.234907 104.588867 
L 338.234907 104.557464 
L 340.141518 104.526061 
L 340.141518 104.463255 
L 340.141518 104.369046 
L 344.298162 104.274837 
L 344.298162 104.243434 
L 353.007123 104.149224 
L 353.007123 104.117821 
L 359.941603 104.023612 
L 359.941603 103.992209 
L 381.658546 103.898 
L 381.658546 103.866597 
L 453.192 103.803791 
L 453.192 103.803791 
" clip-path="url(#p2642fcccf3)" style="fill: none; stroke: #000000; stroke-width: 3; stroke-linecap: square"/>
   </g>
   <g id="line2d_18">
    <path clip-path="url(#p2642fcccf3)" style="fill: none; stroke: #000000; stroke-width: 3; stroke-linecap: square"/>
   </g>
   <g id="line2d_19">
    <path d="M 34.16 287.289052 
L 83.629465 287.183173 
L 83.629465 287.147879 
L 88.442475 287.042 
L 88.442475 287.006707 
L 105.747103 286.900827 
L 105.747103 286.865534 
L 117.982933 286.759655 
L 118.08265 286.689069 
L 126.080831 286.583189 
L 126.080831 286.547896 
L 133.072501 286.442017 
L 133.072501 286.406723 
L 142.992092 286.300844 
L 142.992092 286.265551 
L 148.813632 286.159672 
L 148.813632 286.124378 
L 152.952454 286.018499 
L 152.952454 285.983206 
L 155.799302 285.877326 
L 155.799302 285.842033 
L 157.25877 285.736154 
L 157.25877 285.700861 
L 158.657253 285.594981 
L 158.691055 285.524395 
L 167.351984 285.418516 
L 167.351984 285.383222 
L 168.573459 285.277343 
L 168.573459 285.24205 
L 171.129068 285.13617 
L 171.139864 285.065584 
L 171.859009 284.959705 
L 171.859009 284.924412 
L 172.453277 284.818532 
L 172.453277 284.783239 
L 173.750949 284.67736 
L 173.750949 284.642067 
L 176.39004 284.536187 
L 176.39004 284.500894 
L 178.000674 284.395015 
L 178.000674 284.359721 
L 180.870559 284.253842 
L 180.870559 284.218549 
L 181.635753 284.112669 
L 181.635753 284.077376 
L 182.929759 283.971497 
L 182.933425 283.900911 
L 184.660584 283.795031 
L 184.660584 283.759738 
L 185.916969 283.653859 
L 185.916969 283.618566 
L 186.30129 283.512686 
L 186.386082 283.4421 
L 189.700522 283.33622 
L 189.700522 283.300927 
L 190.780567 283.195048 
L 190.868868 283.124462 
L 191.62681 283.018582 
L 191.62681 282.983289 
L 192.458922 282.87741 
L 192.564202 282.77153 
L 192.769876 282.665651 
L 192.786784 282.595065 
L 193.280317 282.489185 
L 193.280317 282.453892 
L 194.15821 282.348013 
L 194.15821 282.312719 
L 195.03827 282.20684 
L 195.03827 282.171547 
L 195.618196 282.065667 
L 195.618196 282.030374 
L 197.042202 281.924495 
L 197.146855 281.853909 
L 198.029285 281.748029 
L 198.029285 281.712736 
L 200.347673 281.606857 
L 200.453249 281.53627 
L 201.379117 281.430391 
L 201.379117 281.395098 
L 202.210432 281.289218 
L 202.256021 281.218632 
L 202.543725 281.112753 
L 202.543725 281.07746 
L 203.582526 280.97158 
L 203.666784 280.900994 
L 204.220746 280.795114 
L 204.220746 280.759821 
L 204.766312 280.653942 
L 204.87111 280.548063 
L 206.640821 280.442183 
L 206.640821 280.40689 
L 207.388449 280.301011 
L 207.479898 280.195131 
L 208.930195 280.089252 
L 208.930195 280.053959 
L 210.372305 279.948079 
L 210.372305 279.912786 
L 210.732626 279.806907 
L 210.732626 279.771613 
L 211.987867 279.665734 
L 212.079976 279.595148 
L 212.69005 279.489268 
L 212.728837 279.418682 
L 213.300686 279.312803 
L 213.300686 279.27751 
L 214.322793 279.17163 
L 214.360042 279.065751 
L 216.083882 278.959871 
L 216.083882 278.924578 
L 217.5504 278.818699 
L 217.5504 278.783406 
L 217.898513 278.677526 
L 217.898513 278.642233 
L 218.511808 278.536354 
L 218.511808 278.501061 
L 219.423244 278.395181 
L 219.465484 278.324595 
L 220.356487 278.218715 
L 220.434855 278.077543 
L 221.018785 277.971663 
L 221.018785 277.93637 
L 221.803376 277.830491 
L 221.887039 277.759905 
L 222.043068 277.654025 
L 222.092713 277.548146 
L 223.530064 277.442266 
L 223.530064 277.406973 
L 223.972964 277.336387 
L 223.972964 277.301094 
L 223.972964 277.265801 
L 224.371017 277.159921 
L 224.456843 277.018749 
L 224.704836 276.912869 
L 224.704836 276.877576 
L 225.536657 276.771697 
L 225.580734 276.665817 
L 225.778168 276.559938 
L 225.869155 276.348179 
L 226.065546 276.2423 
L 226.169011 276.13642 
L 226.517109 276.030541 
L 226.517109 275.995248 
L 226.728542 275.889368 
L 226.834719 275.712903 
L 226.930754 275.607023 
L 227.041502 275.395264 
L 227.126278 275.289385 
L 227.234441 275.148212 
L 227.36137 275.042333 
L 227.442475 274.90116 
L 227.580287 274.795281 
L 227.674693 274.654108 
L 227.868783 274.548229 
L 227.956544 274.477643 
L 228.211378 274.371763 
L 228.307705 274.089418 
L 228.462867 273.983539 
L 228.550502 273.736487 
L 228.647961 273.630607 
L 228.753016 273.454142 
L 228.932403 273.348262 
L 229.025105 273.20709 
L 229.180285 273.10121 
L 229.291034 272.960038 
L 229.394646 272.854158 
L 229.505382 272.607106 
L 229.668416 272.501227 
L 229.717285 272.395348 
L 229.904072 272.289468 
L 230.010474 272.148296 
L 230.055825 272.042416 
L 230.159964 271.795364 
L 230.309331 271.689485 
L 230.399061 271.477726 
L 230.470002 271.371847 
L 230.510851 271.195381 
L 230.697565 271.089501 
L 230.780595 270.877743 
L 230.891748 270.771863 
L 230.970778 270.595398 
L 231.066444 270.489518 
L 231.100824 270.242466 
L 231.264555 270.136587 
L 231.368432 269.854242 
L 231.407279 269.748362 
L 231.517211 269.50131 
L 231.590692 269.395431 
L 231.672915 269.183672 
L 231.836272 269.113086 
L 231.836272 269.077793 
L 231.941391 268.901327 
L 232.035948 268.795447 
L 232.135219 268.689568 
L 232.245278 268.583689 
L 232.337836 268.442516 
L 232.377582 268.336637 
L 232.48719 268.124878 
L 232.519216 268.018998 
L 232.624756 267.70136 
L 232.643469 267.595481 
L 232.738214 267.524895 
L 232.816995 267.419015 
L 232.893232 267.207256 
L 232.975186 267.101377 
L 233.023156 267.030791 
L 233.126917 266.924911 
L 233.186991 266.748445 
L 233.282947 266.642566 
L 233.370322 266.4661 
L 233.464949 266.360221 
L 233.557272 266.219048 
L 233.594994 266.113169 
L 233.680287 265.866117 
L 233.76233 265.760238 
L 233.868658 265.513186 
L 233.945062 265.407306 
L 234.040455 265.160254 
L 234.090387 265.054375 
L 234.163555 264.807323 
L 234.279162 264.701443 
L 234.388239 264.454391 
L 234.446226 264.348512 
L 234.555269 264.10146 
L 234.712716 263.995581 
L 234.823745 263.783822 
L 234.981361 263.713236 
L 234.981361 263.677942 
L 235.009929 263.572063 
L 235.144197 263.466184 
L 235.241513 263.219132 
L 235.309893 263.113252 
L 235.407161 262.8662 
L 235.460149 262.760321 
L 235.538651 262.513269 
L 235.618309 262.407389 
L 235.718941 262.160338 
L 235.826774 262.054458 
L 235.920919 261.842699 
L 235.976049 261.772113 
L 235.976049 261.73682 
L 236.086285 261.454475 
L 236.185253 261.348595 
L 236.271385 261.030957 
L 236.395803 260.925078 
L 236.501469 260.748612 
L 236.553103 260.642733 
L 236.637692 260.360387 
L 236.726497 260.254508 
L 236.82791 259.93687 
L 236.902485 259.83099 
L 237.003116 259.407473 
L 237.060042 259.301593 
L 237.149048 258.983955 
L 237.242046 258.878076 
L 237.351945 258.560437 
L 237.419959 258.454558 
L 237.526699 258.207506 
L 237.603207 258.101627 
L 237.678082 257.819282 
L 237.748729 257.713402 
L 237.856363 257.219298 
L 237.929815 257.113419 
L 238.037911 256.725194 
L 238.120941 256.619315 
L 238.214844 256.125211 
L 238.30499 256.019331 
L 238.408725 255.631107 
L 238.49608 255.525228 
L 238.595732 255.242882 
L 238.641781 255.137003 
L 238.717129 254.819365 
L 238.848498 254.713485 
L 238.940539 254.395847 
L 239.026454 254.289968 
L 239.135472 254.007623 
L 239.176144 253.901743 
L 239.277095 253.548812 
L 239.319457 253.442932 
L 239.426176 253.125294 
L 239.458196 253.019415 
L 239.553193 252.560604 
L 239.620929 252.454724 
L 239.724519 252.172379 
L 239.804736 252.0665 
L 239.883767 251.819448 
L 239.974603 251.713569 
L 240.08087 251.254758 
L 240.127896 251.184172 
L 240.127896 251.148878 
L 240.207335 250.866533 
L 240.280227 250.760654 
L 240.367008 250.407722 
L 240.468189 250.301843 
L 240.564404 249.913619 
L 240.601853 249.807739 
L 240.704017 249.419515 
L 240.770507 249.313635 
L 240.864941 248.995997 
L 240.943141 248.890118 
L 241.012588 248.643066 
L 241.099772 248.537186 
L 241.207933 248.078375 
L 241.263368 247.972496 
L 241.364034 247.584271 
L 241.423735 247.478392 
L 241.509968 247.090167 
L 241.603539 246.984288 
L 241.690839 246.56077 
L 241.766505 246.454891 
L 241.875411 246.10196 
L 241.934113 245.99608 
L 242.013684 245.713735 
L 242.107918 245.607856 
L 242.216515 245.219631 
L 242.229333 245.113752 
L 242.329985 244.796113 
L 242.365136 244.690234 
L 242.470138 244.266716 
L 242.533631 244.160837 
L 242.637199 243.737319 
L 242.723061 243.63144 
L 242.833674 243.278509 
L 242.867068 243.172629 
L 242.964822 242.713818 
L 243.044878 242.607939 
L 243.13369 242.360887 
L 243.196359 242.255008 
L 243.292761 241.83149 
L 243.362488 241.72561 
L 243.455548 241.302093 
L 243.524617 241.196213 
L 243.622305 240.702109 
L 243.676 240.702109 
L 243.676 240.59623 
L 243.772608 240.137419 
L 243.80928 240.03154 
L 243.908826 239.608022 
L 243.983559 239.502143 
L 244.08911 238.866866 
L 244.108747 238.760987 
L 244.198533 238.478642 
L 244.270707 238.372762 
L 244.354095 237.949245 
L 244.427816 237.843365 
L 244.5387 237.631606 
L 244.584871 237.525727 
L 244.692197 237.243382 
L 244.752736 237.137502 
L 244.85569 236.713985 
L 244.89944 236.608105 
L 245.008055 236.32576 
L 245.049068 236.219881 
L 245.157973 235.655191 
L 245.178571 235.549311 
L 245.283446 235.302259 
L 245.335341 235.19638 
L 245.444797 234.878742 
L 245.471597 234.772862 
L 245.554418 234.490517 
L 245.632839 234.384638 
L 245.740603 233.678775 
L 245.771294 233.572896 
L 245.876311 233.219964 
L 245.903222 233.114085 
L 246.007786 232.867033 
L 246.045259 232.761153 
L 246.107711 232.655274 
L 246.185518 232.549395 
L 246.288208 232.090584 
L 246.334039 231.984704 
L 246.438613 231.525894 
L 246.503558 231.420014 
L 246.611697 230.855324 
L 246.654848 230.749444 
L 246.760886 230.36122 
L 246.786686 230.255341 
L 246.872889 229.902409 
L 246.944846 229.79653 
L 247.043711 229.549478 
L 247.096978 229.443598 
L 247.203463 228.984788 
L 247.252119 228.878908 
L 247.339703 228.420097 
L 247.405483 228.314218 
L 247.50213 227.8907 
L 247.54825 227.784821 
L 247.642346 227.396596 
L 247.71345 227.290717 
L 247.820375 226.831906 
L 247.851417 226.726027 
L 247.95171 226.337802 
L 248.017644 226.231923 
L 248.110936 225.843698 
L 248.145011 225.737819 
L 248.248132 225.349594 
L 248.271827 225.243715 
L 248.367564 224.96137 
L 248.415354 224.85549 
L 248.517459 224.114334 
L 248.553968 224.008455 
L 248.645122 223.514351 
L 248.67141 223.408472 
L 248.780991 222.773195 
L 248.847196 222.667316 
L 248.95642 222.349678 
L 248.973823 222.243798 
L 249.064146 221.784987 
L 249.131264 221.679108 
L 249.236125 221.008538 
L 249.281273 220.902659 
L 249.389567 220.514434 
L 249.416313 220.408555 
L 249.520453 220.196796 
L 249.545562 220.090917 
L 249.585726 219.914451 
L 249.704444 219.808572 
L 249.813155 219.349761 
L 249.840762 219.243881 
L 249.942365 218.89095 
L 249.994646 218.785071 
L 250.094047 218.290967 
L 250.145469 218.185087 
L 250.23572 217.76157 
L 250.27387 217.65569 
L 250.376279 217.267466 
L 250.39988 217.161586 
L 250.505387 216.843948 
L 250.541482 216.738069 
L 250.646533 216.243965 
L 250.679109 216.138085 
L 250.769375 215.96162 
L 250.833486 215.85574 
L 250.934589 215.467516 
L 251.000897 215.361636 
L 251.104274 214.867532 
L 251.169945 214.761653 
L 251.263978 214.373428 
L 251.331471 214.267549 
L 251.4423 213.985204 
L 251.533165 213.879324 
L 251.636921 213.596979 
L 251.70652 213.4911 
L 251.811735 213.067582 
L 251.841776 212.961703 
L 251.937115 212.679358 
L 252.054532 212.573478 
L 252.161221 212.25584 
L 252.215365 212.149961 
L 252.31735 211.761736 
L 252.39359 211.655857 
L 252.495513 211.479391 
L 252.583127 211.373512 
L 252.68934 211.091166 
L 252.754372 210.985287 
L 252.864604 210.597063 
L 252.933434 210.491183 
L 253.033328 210.173545 
L 253.097474 210.067665 
L 253.207818 209.644148 
L 253.314573 209.538268 
L 253.424033 209.22063 
L 253.517341 209.114751 
L 253.527518 209.008871 
L 253.690767 208.902992 
L 253.797786 208.585354 
L 253.906571 208.479474 
L 254.006289 208.232422 
L 254.097319 208.126543 
L 254.193226 207.98537 
L 254.279802 207.879491 
L 254.375104 207.632439 
L 254.441445 207.52656 
L 254.54427 207.385387 
L 254.602246 207.279508 
L 254.70052 207.138335 
L 254.825289 207.032456 
L 254.898863 206.85599 
L 255.054799 206.75011 
L 255.1297 206.573645 
L 255.214411 206.467765 
L 255.243883 206.361886 
L 255.370921 206.256007 
L 255.472302 206.079541 
L 255.541425 206.008955 
L 255.541425 205.973661 
L 255.572578 205.867782 
L 255.888206 205.761903 
L 255.959229 205.691316 
L 256.243695 205.585437 
L 256.347704 205.338385 
L 256.608071 205.232506 
L 256.718567 205.05604 
L 256.771908 204.95016 
L 256.873736 204.773695 
L 257.112162 204.667815 
L 257.189109 204.526643 
L 257.411335 204.456056 
L 257.411335 204.420763 
L 257.488864 204.314884 
L 257.586403 204.209005 
L 257.679429 204.103125 
L 257.884743 203.997246 
L 257.971672 203.856073 
L 258.088857 203.750194 
L 258.088857 203.714901 
L 258.321235 203.609021 
L 258.40318 203.185504 
L 258.524621 203.079624 
L 258.524621 203.044331 
L 258.808813 202.938452 
L 258.889133 202.832572 
L 259.175574 202.726693 
L 259.267729 202.58552 
L 259.432577 202.479641 
L 259.541373 202.267882 
L 259.749214 202.162003 
L 259.749214 202.126709 
L 260.05447 202.02083 
L 260.134646 201.879657 
L 260.517281 201.773778 
L 260.619727 201.632605 
L 260.808652 201.526726 
L 260.865688 201.45614 
L 261.249904 201.35026 
L 261.338209 201.209088 
L 261.722138 201.103208 
L 261.8113 200.997329 
L 261.972616 200.926743 
L 261.972616 200.89145 
L 261.972616 200.856156 
L 262.392745 200.750277 
L 262.392745 200.714984 
L 262.815245 200.609104 
L 262.815245 200.573811 
L 263.217594 200.467932 
L 263.217594 200.432639 
L 263.42939 200.326759 
L 263.42939 200.291466 
L 264.03949 200.185587 
L 264.119862 200.044414 
L 264.336393 199.938535 
L 264.391908 199.867949 
L 265.157865 199.762069 
L 265.194453 199.691483 
L 265.514384 199.585603 
L 265.619425 199.444431 
L 266.119609 199.338551 
L 266.209772 199.197379 
L 266.384399 199.091499 
L 266.453992 199.020913 
L 267.00727 198.915034 
L 267.111036 198.773861 
L 267.497277 198.667982 
L 267.543002 198.597396 
L 267.842178 198.491516 
L 267.842178 198.456223 
L 268.594519 198.350344 
L 268.677262 198.244464 
L 268.980031 198.138585 
L 268.980031 198.103292 
L 269.403235 197.997412 
L 269.506663 197.891533 
L 269.68146 197.785653 
L 269.68146 197.75036 
L 270.510472 197.644481 
L 270.57483 197.573895 
L 271.112789 197.468015 
L 271.112789 197.397429 
L 271.730897 197.291549 
L 271.824134 197.150377 
L 272.120373 197.044497 
L 272.152719 196.973911 
L 273.252997 196.868032 
L 273.339264 196.762152 
L 273.76089 196.656273 
L 273.809166 196.585687 
L 274.184905 196.479807 
L 274.184905 196.444514 
L 274.595175 196.338635 
L 274.685889 196.232755 
L 275.254276 196.126876 
L 275.254276 196.091583 
L 275.812727 195.985703 
L 275.8629 195.915117 
L 276.580865 195.809238 
L 276.580865 195.773944 
L 277.175527 195.668065 
L 277.175527 195.632772 
L 277.885482 195.526893 
L 277.885482 195.491599 
L 278.748633 195.38572 
L 278.847971 195.279841 
L 279.062417 195.173961 
L 279.062417 195.138668 
L 279.885183 195.032789 
L 279.960361 194.962202 
L 280.639755 194.891616 
L 280.639755 194.856323 
L 280.639755 194.82103 
L 281.463977 194.71515 
L 281.463977 194.679857 
L 282.188374 194.573978 
L 282.188374 194.538685 
L 282.758105 194.432805 
L 282.812404 194.362219 
L 283.415273 194.25634 
L 283.422311 194.185753 
L 284.541531 194.079874 
L 284.591311 193.973994 
L 285.307315 193.868115 
L 285.307315 193.832822 
L 287.862047 193.726942 
L 287.862047 193.691649 
L 289.998453 193.58577 
L 289.998453 193.550477 
L 291.308976 193.444597 
L 291.308976 193.409304 
L 292.249358 193.303425 
L 292.249358 193.268132 
L 292.92776 193.162252 
L 293.021587 193.091666 
L 294.156827 192.985787 
L 294.156827 192.950493 
L 296.1255 192.844614 
L 296.234474 192.774028 
L 296.8492 192.668148 
L 296.8492 192.632855 
L 300.099796 192.526976 
L 300.099796 192.491683 
L 301.282203 192.385803 
L 301.299883 192.279924 
L 301.85165 192.174044 
L 301.960361 192.068165 
L 302.9707 191.962286 
L 303.037096 191.891699 
L 304.359757 191.78582 
L 304.359757 191.750527 
L 304.897716 191.67994 
L 304.897716 191.644647 
L 304.897716 191.609354 
L 306.517658 191.503475 
L 306.517658 191.468182 
L 307.680272 191.362302 
L 307.680272 191.327009 
L 308.506279 191.22113 
L 308.506279 191.185837 
L 310.609622 191.079957 
L 310.707524 190.974078 
L 312.252852 190.868198 
L 312.280439 190.797612 
L 313.503757 190.691733 
L 313.503757 190.656439 
L 314.637371 190.55056 
L 314.681337 190.479974 
L 316.061932 190.374094 
L 316.061932 190.338801 
L 317.714008 190.232922 
L 317.714008 190.197629 
L 319.648856 190.127042 
L 319.648856 190.091749 
L 319.648856 190.056456 
L 323.011242 189.950577 
L 323.011242 189.915284 
L 324.831104 189.809404 
L 324.831104 189.774111 
L 329.779603 189.703525 
L 329.779603 189.668232 
L 329.779603 189.632938 
L 337.825783 189.527059 
L 337.825783 189.491766 
L 349.820104 189.385886 
L 349.820104 189.350593 
L 363.125249 189.244714 
L 363.125249 189.209421 
L 374.172097 189.103541 
L 374.172097 189.068248 
L 386.166418 188.962369 
L 386.166418 188.927076 
L 453.192 188.927076 
L 453.192 188.927076 
" clip-path="url(#p2642fcccf3)" style="fill: none; stroke: #00bfbf; stroke-width: 3; stroke-linecap: square"/>
   </g>
   <g id="line2d_20">
    <path clip-path="url(#p2642fcccf3)" style="fill: none; stroke: #00bfbf; stroke-width: 3; stroke-linecap: square"/>
   </g>
   <g id="line2d_21">
    <path d="M 34.16 286.132717 
L 110.754326 286.025593 
L 110.754326 285.989885 
L 131.740134 285.882762 
L 131.740134 285.847054 
L 139.366467 285.739931 
L 139.366467 285.704223 
L 147.432073 285.597099 
L 147.432073 285.561392 
L 153.182067 285.454268 
L 153.214475 285.382852 
L 157.398843 285.275729 
L 157.398843 285.240021 
L 165.526179 285.132898 
L 165.526179 285.09719 
L 169.00331 284.990066 
L 169.00331 284.954358 
L 172.313044 284.847235 
L 172.313044 284.811527 
L 176.656046 284.704404 
L 176.669187 284.632988 
L 177.778141 284.561572 
L 177.778141 284.525865 
L 177.778141 284.490157 
L 180.13062 284.383033 
L 180.131824 284.311618 
L 181.879251 284.204494 
L 181.879251 284.168786 
L 184.505974 284.061663 
L 184.565006 283.954539 
L 185.984332 283.847416 
L 185.984332 283.811708 
L 190.922208 283.704584 
L 190.922208 283.668877 
L 192.035362 283.561753 
L 192.084551 283.490338 
L 192.530673 283.383214 
L 192.530673 283.347506 
L 194.509773 283.240383 
L 194.509773 283.204675 
L 194.862212 283.097551 
L 194.862212 283.061844 
L 195.597873 282.95472 
L 195.597873 282.919012 
L 196.414217 282.811889 
L 196.414217 282.776181 
L 198.599885 282.669058 
L 198.599885 282.63335 
L 199.980626 282.526226 
L 199.980626 282.490518 
L 203.388026 282.383395 
L 203.411314 282.311979 
L 206.743761 282.204856 
L 206.79546 282.097732 
L 207.185378 281.990609 
L 207.185378 281.954901 
L 208.341278 281.847777 
L 208.341278 281.81207 
L 209.852177 281.704946 
L 209.852177 281.669238 
L 210.491393 281.562115 
L 210.566841 281.490699 
L 211.434348 281.383576 
L 211.434348 281.347868 
L 212.395464 281.240744 
L 212.395464 281.205037 
L 212.687974 281.097913 
L 212.795481 280.99079 
L 213.300368 280.883666 
L 213.300368 280.847958 
L 214.361641 280.740835 
L 214.361641 280.705127 
L 215.021474 280.598004 
L 215.032636 280.526588 
L 215.685981 280.419464 
L 215.685981 280.383757 
L 216.129463 280.276633 
L 216.178597 280.16951 
L 217.095128 280.062386 
L 217.095128 280.026678 
L 217.680422 279.919555 
L 217.680422 279.883847 
L 218.542678 279.776724 
L 218.64167 279.633892 
L 218.976316 279.526769 
L 219.039445 279.455353 
L 219.450003 279.34823 
L 219.450003 279.312522 
L 220.14308 279.205398 
L 220.14308 279.16969 
L 220.424544 279.062567 
L 220.424544 279.026859 
L 220.943888 278.919736 
L 220.988273 278.812612 
L 221.349302 278.705489 
L 221.349302 278.669781 
L 221.78565 278.562657 
L 221.78565 278.52695 
L 223.133045 278.419826 
L 223.170891 278.312703 
L 223.69037 278.205579 
L 223.69037 278.169871 
L 223.983896 278.062748 
L 224.033031 277.991332 
L 224.673577 277.919917 
L 224.673577 277.884209 
L 224.673577 277.848501 
L 225.634082 277.741377 
L 225.731695 277.669962 
L 226.169011 277.562838 
L 226.175483 277.491423 
L 226.728387 277.384299 
L 226.80411 277.277176 
L 227.212027 277.170052 
L 227.212027 277.134344 
L 227.646453 277.027221 
L 227.745832 276.920097 
L 227.914756 276.812974 
L 228.025292 276.741558 
L 228.290054 276.70585 
L 228.290054 276.634435 
L 228.342082 276.527311 
L 229.043397 276.420188 
L 229.115326 276.313064 
L 229.352915 276.205941 
L 229.394646 276.098817 
L 229.676527 275.991694 
L 229.770377 275.88457 
L 229.891944 275.777447 
L 229.98014 275.670323 
L 230.159964 275.598908 
L 230.159964 275.5632 
L 230.266248 275.384661 
L 230.388368 275.277537 
L 230.487971 275.098998 
L 230.589463 274.991875 
L 230.617967 274.920459 
L 230.80384 274.813336 
L 230.876103 274.670504 
L 231.181631 274.563381 
L 231.284939 274.313426 
L 231.329916 274.206303 
L 231.434054 274.099179 
L 231.544804 273.992056 
L 231.624031 273.813516 
L 231.735966 273.706393 
L 231.836272 273.492146 
L 231.926056 273.385022 
L 232.030081 273.206483 
L 232.121156 273.09936 
L 232.210231 272.670866 
L 232.359572 272.563742 
L 232.448725 272.27808 
L 232.722169 272.170956 
L 232.756201 272.028125 
L 233.014337 271.921002 
L 233.036623 271.849586 
L 233.290464 271.77817 
L 233.290464 271.742462 
L 233.392482 271.563923 
L 233.535819 271.4568 
L 233.632651 271.278261 
L 233.824482 271.171137 
L 233.893803 270.992598 
L 233.987221 270.885475 
L 234.062805 270.742643 
L 234.244611 270.63552 
L 234.32631 270.349857 
L 234.519067 270.242734 
L 234.623449 270.099902 
L 234.674427 269.992779 
L 234.744123 269.885655 
L 234.938441 269.778532 
L 235.030704 269.564285 
L 235.093811 269.457162 
L 235.183369 269.278622 
L 235.300298 269.171499 
L 235.381867 269.028668 
L 235.496265 268.921544 
L 235.561926 268.778713 
L 235.694392 268.671589 
L 235.799497 268.385927 
L 235.856041 268.278803 
L 235.888502 268.207388 
L 235.990005 268.135972 
L 235.990005 268.100264 
L 236.088966 267.993141 
L 236.160473 267.886017 
L 236.200284 267.778894 
L 236.355553 267.67177 
L 236.388014 267.600355 
L 236.561045 267.493231 
L 236.667262 267.171861 
L 236.759354 267.064737 
L 236.868627 266.636243 
L 237.109172 266.52912 
L 237.21038 266.350581 
L 237.458611 266.243457 
L 237.535121 266.136334 
L 237.592457 266.02921 
L 237.697512 265.814963 
L 237.795874 265.70784 
L 237.90428 265.493593 
L 237.952491 265.386469 
L 238.013645 265.20793 
L 238.116622 265.100807 
L 238.216872 264.815144 
L 238.254318 264.743728 
L 238.254318 264.708021 
L 238.329193 264.529481 
L 238.438748 264.422358 
L 238.499926 264.315234 
L 238.689321 264.208111 
L 238.793214 263.88674 
L 238.839813 263.815325 
L 238.839813 263.779617 
L 238.918839 263.636786 
L 238.97606 263.529662 
L 239.059408 263.244 
L 239.142552 263.136876 
L 239.246164 262.779798 
L 239.343385 262.672674 
L 239.439765 262.315596 
L 239.53034 262.208473 
L 239.609412 261.887102 
L 239.696698 261.779979 
L 239.798661 261.280069 
L 239.862868 261.172946 
L 239.92045 260.708744 
L 240.013306 260.60162 
L 240.110991 260.494497 
L 240.148537 260.423081 
L 240.148537 260.387373 
L 240.242529 260.030295 
L 240.263111 259.923172 
L 240.362091 259.566093 
L 240.43161 259.45897 
L 240.538723 259.030476 
L 240.607114 258.923353 
L 240.692364 258.566274 
L 240.785845 258.459151 
L 240.876572 258.280612 
L 240.967012 258.173488 
L 241.072725 258.030657 
L 241.172643 257.923533 
L 241.247408 257.459332 
L 241.400951 257.352208 
L 241.483467 256.852299 
L 241.545532 256.780883 
L 241.545532 256.745175 
L 241.648124 256.280973 
L 241.676161 256.17385 
L 241.768518 255.781064 
L 241.829783 255.67394 
L 241.940388 255.174031 
L 241.969149 255.102615 
L 241.969149 255.066907 
L 242.074839 254.674121 
L 242.127908 254.566998 
L 242.232199 254.174212 
L 242.278594 254.067088 
L 242.364024 253.638594 
L 242.414665 253.531471 
L 242.518269 252.960145 
L 242.56884 252.853022 
L 242.674376 252.138865 
L 242.707288 252.031742 
L 242.816431 251.389001 
L 242.848403 251.281878 
L 242.935083 250.781968 
L 242.978239 250.674844 
L 243.068317 250.282058 
L 243.171549 250.174935 
L 243.27439 249.639318 
L 243.33002 249.532194 
L 243.440211 249.175116 
L 243.460027 249.067992 
L 243.555718 248.639498 
L 243.610948 248.532375 
L 243.712058 248.175297 
L 243.780954 248.068173 
L 243.889506 247.675387 
L 243.926485 247.568264 
L 244.025601 247.211185 
L 244.076506 247.104062 
L 244.179145 246.925523 
L 244.210018 246.818399 
L 244.295851 246.31849 
L 244.33976 246.211366 
L 244.440458 245.747164 
L 244.502904 245.640041 
L 244.605351 244.818761 
L 244.628939 244.711637 
L 244.734437 243.961773 
L 244.785637 243.85465 
L 244.880001 243.747526 
L 244.955076 243.640403 
L 245.055305 243.140493 
L 245.126047 243.03337 
L 245.235328 242.53346 
L 245.269806 242.426336 
L 245.377581 242.069258 
L 245.413968 241.962135 
L 245.508738 241.319394 
L 245.566828 241.21227 
L 245.676017 240.640945 
L 245.689908 240.640945 
L 245.689908 240.533822 
L 245.799344 240.248159 
L 245.828214 240.141036 
L 245.906351 239.605418 
L 245.977869 239.498295 
L 246.085215 239.069801 
L 246.101593 238.962677 
L 246.204352 238.42706 
L 246.272566 238.319936 
L 246.376045 237.677195 
L 246.429528 237.570072 
L 246.531402 237.034455 
L 246.56538 236.927331 
L 246.657898 236.534545 
L 246.700223 236.427422 
L 246.793963 235.96322 
L 246.836928 235.856096 
L 246.947736 235.570434 
L 246.980193 235.46331 
L 247.087379 234.784861 
L 247.117659 234.677738 
L 247.216335 233.927874 
L 247.232292 233.82075 
L 247.340228 233.106594 
L 247.363261 232.99947 
L 247.452623 232.642392 
L 247.50196 232.535268 
L 247.607023 232.035359 
L 247.636709 231.928235 
L 247.745759 231.428326 
L 247.786437 231.321202 
L 247.889674 230.714169 
L 247.926823 230.607046 
L 248.027119 230.249967 
L 248.0617 230.142844 
L 248.164454 229.571519 
L 248.188338 229.464395 
L 248.256816 229.000193 
L 248.344043 228.89307 
L 248.439983 228.500284 
L 248.481552 228.39316 
L 248.589715 227.786127 
L 248.653943 227.679004 
L 248.763386 227.25051 
L 248.810142 227.143386 
L 248.903066 226.643477 
L 248.981706 226.536353 
L 249.083674 226.107859 
L 249.129284 226.000736 
L 249.236125 225.572242 
L 249.261404 225.465119 
L 249.359246 225.072333 
L 249.421758 224.965209 
L 249.527911 224.536715 
L 249.585726 224.429592 
L 249.671085 223.893974 
L 249.72736 223.786851 
L 249.828118 223.394065 
L 249.899691 223.286941 
L 250.007782 222.572785 
L 250.034292 222.465661 
L 250.113997 222.037167 
L 250.171573 221.930044 
L 250.279179 221.82292 
L 250.375648 221.715797 
L 250.46067 221.50155 
L 250.539855 221.394426 
L 250.649581 221.073056 
L 250.718854 220.965932 
L 250.81731 220.644562 
L 250.874321 220.537438 
L 250.983373 220.18036 
L 251.019738 220.073237 
L 251.116096 219.894698 
L 251.233662 219.787574 
L 251.344155 219.501911 
L 251.428237 219.394788 
L 251.532582 219.216249 
L 251.699827 219.109125 
L 251.801675 218.966294 
L 251.907813 218.859171 
L 252.01073 218.716339 
L 252.143229 218.609216 
L 252.217584 218.359261 
L 252.342071 218.252138 
L 252.424341 218.109306 
L 252.582884 218.002183 
L 252.693787 217.71652 
L 252.746721 217.609397 
L 252.846498 217.466565 
L 252.93645 217.359442 
L 253.035085 217.180903 
L 253.106032 217.073779 
L 253.21329 216.859532 
L 253.371738 216.752409 
L 253.449356 216.538162 
L 253.645007 216.431038 
L 253.726527 216.252499 
L 253.908819 216.145376 
L 253.999316 215.966837 
L 254.122469 215.859713 
L 254.227763 215.75259 
L 254.411136 215.681174 
L 254.411136 215.645466 
L 254.480457 215.574051 
L 254.869538 215.466927 
L 254.971319 215.324096 
L 255.094724 215.216972 
L 255.205608 215.145557 
L 255.541425 215.074141 
L 255.541425 215.038433 
L 255.541425 215.002725 
L 255.799905 214.895602 
L 255.899823 214.788478 
L 256.281046 214.681355 
L 256.353939 214.574231 
L 256.582732 214.467108 
L 256.582732 214.4314 
L 256.814534 214.324277 
L 256.918294 214.181445 
L 257.057516 214.074322 
L 257.057516 214.038614 
L 257.411335 213.967198 
L 257.411335 213.93149 
L 257.411335 213.895783 
L 257.847371 213.788659 
L 257.950098 213.645828 
L 258.510688 213.538704 
L 258.592057 213.395873 
L 259.029021 213.28875 
L 259.135917 213.217334 
L 259.869327 213.11021 
L 259.890623 213.038795 
L 260.415108 212.931671 
L 260.435508 212.860256 
L 260.666308 212.753132 
L 260.772802 212.646009 
L 261.249904 212.538885 
L 261.330262 212.431762 
L 261.809566 212.324638 
L 261.867498 212.253223 
L 261.972616 212.181807 
L 261.972616 212.146099 
L 262.079706 212.038976 
L 262.574045 211.931852 
L 262.574045 211.896144 
L 262.903392 211.789021 
L 263.007921 211.610482 
L 263.319302 211.503358 
L 263.37803 211.360527 
L 263.697872 211.253403 
L 263.717516 211.181988 
L 264.079281 211.074864 
L 264.168663 210.932033 
L 264.559339 210.82491 
L 264.58559 210.753494 
L 265.512854 210.64637 
L 265.6237 210.503539 
L 265.970206 210.396416 
L 266.016871 210.325 
L 267.372861 210.217876 
L 267.426989 210.110753 
L 267.998886 210.003629 
L 268.0412 209.932214 
L 268.871072 209.82509 
L 268.871072 209.789383 
L 269.646985 209.682259 
L 269.672567 209.610843 
L 270.130739 209.50372 
L 270.130739 209.468012 
L 271.454274 209.360889 
L 271.462501 209.289473 
L 271.824134 209.182349 
L 271.828969 209.110934 
L 272.47355 209.00381 
L 272.508896 208.932395 
L 272.906934 208.825271 
L 272.927344 208.753856 
L 273.668879 208.646732 
L 273.768726 208.503901 
L 274.129755 208.396777 
L 274.184905 208.325362 
L 274.862117 208.218238 
L 274.924626 208.146822 
L 275.208809 208.039699 
L 275.208809 208.003991 
L 275.687143 207.896868 
L 275.784135 207.825452 
L 276.254006 207.718329 
L 276.347993 207.575497 
L 276.78116 207.468374 
L 276.807 207.396958 
L 277.53808 207.289835 
L 277.53808 207.254127 
L 278.283503 207.147003 
L 278.346413 207.03988 
L 279.451795 206.932756 
L 279.482395 206.861341 
L 280.23935 206.754217 
L 280.23935 206.718509 
L 280.859643 206.611386 
L 280.859643 206.575678 
L 282.091522 206.468555 
L 282.091522 206.432847 
L 282.813284 206.325723 
L 282.813284 206.290015 
L 284.689186 206.182892 
L 284.689186 206.147184 
L 285.524783 206.040061 
L 285.524783 206.004353 
L 286.515852 205.897229 
L 286.515852 205.861522 
L 287.203008 205.754398 
L 287.203008 205.71869 
L 288.204327 205.611567 
L 288.284528 205.504443 
L 288.724971 205.39732 
L 288.757435 205.325904 
L 289.837797 205.218781 
L 289.94593 205.075949 
L 291.028417 204.968826 
L 291.087509 204.825995 
L 293.403245 204.718871 
L 293.403245 204.683163 
L 294.836478 204.57604 
L 294.836478 204.540332 
L 296.955844 204.433208 
L 296.955844 204.397501 
L 297.58273 204.290377 
L 297.665778 204.218962 
L 298.762522 204.111838 
L 298.762522 204.07613 
L 299.482287 203.969007 
L 299.482287 203.933299 
L 299.92008 203.826175 
L 299.92008 203.790468 
L 300.718458 203.683344 
L 300.718458 203.647636 
L 303.290803 203.540513 
L 303.290803 203.504805 
L 305.923555 203.397681 
L 305.923555 203.361974 
L 307.035913 203.25485 
L 307.035913 203.219142 
L 310.094143 203.112019 
L 310.094143 203.076311 
L 314.091347 202.969188 
L 314.091347 202.93348 
L 317.009191 202.826356 
L 317.009191 202.790648 
L 318.919669 202.683525 
L 318.919669 202.647817 
L 320.711186 202.540694 
L 320.711186 202.504986 
L 323.292193 202.397862 
L 323.292193 202.362155 
L 326.476731 202.255031 
L 326.476731 202.219323 
L 342.401007 202.1122 
L 342.401007 202.076492 
L 347.484609 201.969368 
L 347.484609 201.933661 
L 359.347472 201.826537 
L 359.347472 201.790829 
L 453.192 201.683706 
L 453.192 201.683706 
" clip-path="url(#p2642fcccf3)" style="fill: none; stroke: #bf00bf; stroke-width: 3; stroke-linecap: square"/>
   </g>
   <g id="line2d_22">
    <path clip-path="url(#p2642fcccf3)" style="fill: none; stroke: #bf00bf; stroke-width: 3; stroke-linecap: square"/>
   </g>
   <g id="line2d_23">
    <path d="M 34.16 286.380838 
L 119.169353 286.27362 
L 119.169353 286.237881 
L 132.152609 286.130662 
L 132.152609 286.094923 
L 148.413094 285.987704 
L 148.413094 285.951965 
L 152.207763 285.844747 
L 152.207763 285.809007 
L 154.850232 285.701789 
L 154.850232 285.66605 
L 169.46433 285.558831 
L 169.46433 285.523092 
L 174.488896 285.415874 
L 174.488896 285.380134 
L 176.71492 285.272916 
L 176.71492 285.237176 
L 180.839281 285.129958 
L 180.839281 285.094219 
L 184.749981 284.987 
L 184.749981 284.951261 
L 186.878773 284.844043 
L 186.878773 284.808303 
L 193.157859 284.701085 
L 193.157859 284.665345 
L 195.027787 284.558127 
L 195.027787 284.522388 
L 195.97084 284.415169 
L 196.033151 284.34369 
L 196.638824 284.236472 
L 196.721985 284.129254 
L 198.91661 284.022036 
L 198.91661 283.986296 
L 199.999906 283.879078 
L 200.100065 283.807599 
L 201.171613 283.700381 
L 201.171613 283.664641 
L 202.960647 283.557423 
L 202.960647 283.521683 
L 205.368892 283.414465 
L 205.368892 283.378726 
L 207.648361 283.271507 
L 207.648361 283.235768 
L 211.05046 283.12855 
L 211.05046 283.09281 
L 212.139805 282.985592 
L 212.139805 282.949853 
L 213.073103 282.842634 
L 213.073103 282.806895 
L 214.158696 282.699676 
L 214.158696 282.663937 
L 214.607588 282.556719 
L 214.607588 282.520979 
L 215.394826 282.413761 
L 215.448246 282.342282 
L 216.222799 282.235064 
L 216.222799 282.199324 
L 217.105692 282.092106 
L 217.105692 282.056367 
L 218.362115 281.949148 
L 218.362115 281.913409 
L 219.368309 281.806191 
L 219.368309 281.770451 
L 219.924877 281.663233 
L 219.971989 281.520275 
L 220.439281 281.413057 
L 220.439281 281.377317 
L 221.00078 281.270099 
L 221.052828 281.162881 
L 221.477861 281.055662 
L 221.486487 280.984184 
L 222.56239 280.876965 
L 222.634817 280.734008 
L 223.038293 280.626789 
L 223.038293 280.59105 
L 223.933776 280.483832 
L 223.972964 280.340874 
L 224.673577 280.233655 
L 224.673577 280.162177 
L 225.222773 280.054958 
L 225.264462 279.983479 
L 225.70842 279.876261 
L 225.804334 279.769043 
L 226.169011 279.661825 
L 226.169011 279.626085 
L 226.539118 279.518867 
L 226.640602 279.447388 
L 226.996893 279.34017 
L 227.083815 279.268691 
L 227.519924 279.161472 
L 227.519924 279.125733 
L 227.836171 279.018515 
L 227.868783 278.911296 
L 228.290054 278.911296 
L 228.290054 278.804078 
L 228.295803 278.732599 
L 228.75811 278.625381 
L 228.75811 278.589641 
L 229.394646 278.482423 
L 229.394646 278.410944 
L 230.129465 278.303726 
L 230.229114 278.089289 
L 230.400394 277.982071 
L 230.4861 277.874853 
L 230.645197 277.767634 
L 230.645197 277.731895 
L 231.257816 277.624677 
L 231.331674 277.481719 
L 231.55393 277.374501 
L 231.646943 277.231543 
L 231.836272 277.160064 
L 231.836272 277.124325 
L 231.93781 276.981367 
L 232.088256 276.874149 
L 232.185873 276.623973 
L 232.334813 276.516754 
L 232.362578 276.373797 
L 232.537894 276.266578 
L 232.582829 276.195099 
L 232.749682 276.087881 
L 232.820542 275.980663 
L 232.936605 275.873444 
L 233.021343 275.694747 
L 233.09915 275.587529 
L 233.154746 275.444571 
L 233.307008 275.337353 
L 233.39438 275.194395 
L 233.557114 275.087177 
L 233.636861 274.944219 
L 233.80398 274.837001 
L 233.863607 274.658304 
L 233.972444 274.551085 
L 234.073107 274.408128 
L 234.165996 274.300909 
L 234.240096 274.193691 
L 234.48879 274.086473 
L 234.593278 273.943515 
L 234.712716 273.836297 
L 234.820608 273.657599 
L 234.931678 273.550381 
L 234.976668 273.478902 
L 235.143853 273.371684 
L 235.213251 273.264466 
L 235.34739 273.157247 
L 235.4562 273.01429 
L 235.514379 272.907071 
L 235.601817 272.692635 
L 235.741355 272.585416 
L 235.840715 272.33524 
L 235.976049 272.228022 
L 236.037686 272.013585 
L 236.227687 271.906367 
L 236.314737 271.763409 
L 236.481087 271.656191 
L 236.583807 271.441754 
L 236.777066 271.334536 
L 236.881917 271.012881 
L 236.967197 270.905663 
L 237.033013 270.726966 
L 237.1453 270.619747 
L 237.239398 270.333832 
L 237.385806 270.226614 
L 237.478595 270.119395 
L 237.578258 270.012177 
L 237.680915 269.83348 
L 237.77906 269.726262 
L 237.88468 269.547564 
L 237.973999 269.440346 
L 238.072566 269.333128 
L 238.151527 269.22591 
L 238.218216 268.975733 
L 238.332402 268.868515 
L 238.420597 268.761297 
L 238.595732 268.654079 
L 238.660276 268.475381 
L 238.793001 268.368163 
L 238.900072 268.117987 
L 238.996018 268.010769 
L 239.089601 267.796332 
L 239.19241 267.689114 
L 239.280165 267.438938 
L 239.412275 267.331719 
L 239.522267 267.117283 
L 239.556947 267.010065 
L 239.598494 266.795628 
L 239.747943 266.68841 
L 239.847844 266.473973 
L 239.890159 266.366755 
L 239.998781 265.937882 
L 240.040717 265.866403 
L 240.040717 265.830663 
L 240.130011 265.473269 
L 240.199103 265.366051 
L 240.308348 264.937177 
L 240.368419 264.829959 
L 240.473669 264.615522 
L 240.502343 264.579783 
L 240.502343 264.508304 
L 240.60798 264.186649 
L 240.672572 264.079431 
L 240.780663 263.579079 
L 240.834417 263.471861 
L 240.943141 263.185945 
L 241.008045 263.078727 
L 241.117792 262.506896 
L 241.185592 262.399677 
L 241.290904 261.899325 
L 241.412513 261.792107 
L 241.520987 261.291755 
L 241.539211 261.184537 
L 241.63217 260.791403 
L 241.683946 260.684185 
L 241.794543 260.36253 
L 241.829063 260.255311 
L 241.930386 259.754959 
L 242.005363 259.647741 
L 242.103858 259.040171 
L 242.164977 258.932952 
L 242.247718 258.396861 
L 242.308486 258.289642 
L 242.419383 257.896509 
L 242.446215 257.78929 
L 242.544948 257.253199 
L 242.637022 257.145981 
L 242.733774 256.717107 
L 242.778734 256.609889 
L 242.888096 256.073797 
L 242.953472 255.966579 
L 243.038669 255.680664 
L 243.090102 255.573445 
L 243.194859 255.073093 
L 243.228241 254.965875 
L 243.315868 254.787178 
L 243.35908 254.67996 
L 243.460909 254.251086 
L 243.495663 254.179607 
L 243.495663 254.143868 
L 243.579069 253.786474 
L 243.662096 253.679255 
L 243.735551 253.250382 
L 243.798491 253.143164 
L 243.907768 252.535593 
L 243.935123 252.428375 
L 244.041678 251.928023 
L 244.102559 251.820805 
L 244.196202 251.248974 
L 244.243141 251.141755 
L 244.339527 250.498446 
L 244.407573 250.391227 
L 244.513905 249.890875 
L 244.537877 249.783657 
L 244.640287 249.068868 
L 244.678386 248.997389 
L 244.678386 248.96165 
L 244.780978 248.497037 
L 244.817209 248.389819 
L 244.925852 247.532073 
L 244.955764 247.424854 
L 245.040969 246.960242 
L 245.109283 246.853023 
L 245.2164 246.45989 
L 245.269806 246.352671 
L 245.37944 245.852319 
L 245.398615 245.745101 
L 245.509331 244.994573 
L 245.585029 244.887354 
L 245.693716 244.172566 
L 245.704565 244.065347 
L 245.805683 243.707953 
L 245.835027 243.600735 
L 245.944091 243.064643 
L 245.974037 242.957425 
L 246.084689 242.314115 
L 246.102188 242.206897 
L 246.175109 241.849502 
L 246.242333 241.742284 
L 246.340444 240.848798 
L 246.401389 240.74158 
L 246.510764 240.026791 
L 246.536432 239.919573 
L 246.639689 239.526439 
L 246.660955 239.419221 
L 246.768672 238.740172 
L 246.815436 238.632953 
L 246.925563 238.061122 
L 246.956762 237.953904 
L 247.067693 237.453552 
L 247.112998 237.346334 
L 247.223837 236.631545 
L 247.237297 236.524327 
L 247.347627 235.988235 
L 247.370697 235.881017 
L 247.479971 235.201968 
L 247.504156 235.094749 
L 247.613964 234.4157 
L 247.652033 234.308482 
L 247.759903 233.665172 
L 247.809917 233.557954 
L 247.919992 232.807425 
L 247.950225 232.700207 
L 248.058886 232.164116 
L 248.096439 232.056897 
L 248.188338 231.592285 
L 248.244577 231.485066 
L 248.347881 231.199151 
L 248.378229 231.091933 
L 248.476209 230.484362 
L 248.531296 230.377144 
L 248.641115 229.662355 
L 248.656047 229.555137 
L 248.755614 229.162003 
L 248.774203 229.054785 
L 248.869541 228.661651 
L 248.937641 228.554433 
L 249.037615 228.08982 
L 249.083215 227.982602 
L 249.184301 227.696686 
L 249.228023 227.589468 
L 249.326129 227.160595 
L 249.383978 227.053376 
L 249.493346 226.695982 
L 249.517044 226.588764 
L 249.618968 226.016933 
L 249.664768 225.909714 
L 249.709563 225.802496 
L 249.811693 225.695278 
L 249.900522 225.445102 
L 249.956535 225.337884 
L 250.054628 224.980489 
L 250.104351 224.873271 
L 250.214849 224.658834 
L 250.293939 224.551616 
L 250.386063 224.372919 
L 250.45898 224.2657 
L 250.541482 224.158482 
L 250.632729 224.051264 
L 250.741471 223.944046 
L 250.868544 223.836827 
L 250.974939 223.586651 
L 251.233662 223.479433 
L 251.332919 223.336475 
L 251.525168 223.229257 
L 251.561692 223.122039 
L 251.800505 223.01482 
L 251.865258 222.836123 
L 252.087297 222.728905 
L 252.150155 222.442989 
L 252.349171 222.335771 
L 252.405648 222.264292 
L 252.583833 222.157074 
L 252.665641 222.049855 
L 252.919028 221.942637 
L 253.028723 221.799679 
L 253.216004 221.692461 
L 253.302423 221.620982 
L 253.692243 221.513764 
L 253.760593 221.442285 
L 253.999316 221.335067 
L 254.068672 221.192109 
L 254.227763 221.084891 
L 254.337404 220.977672 
L 254.617006 220.870454 
L 254.617006 220.834715 
L 255.088829 220.727496 
L 255.088829 220.691757 
L 255.610817 220.584539 
L 255.626231 220.51306 
L 255.902707 220.405841 
L 255.959229 220.334363 
L 256.726079 220.227144 
L 256.771908 220.119926 
L 257.143995 220.012708 
L 257.156135 219.941229 
L 257.508979 219.834011 
L 257.575471 219.726792 
L 257.902197 219.655313 
L 257.902197 219.619574 
L 257.966754 219.548095 
L 258.519156 219.440877 
L 258.606441 219.333658 
L 258.889133 219.22644 
L 258.985074 219.119222 
L 259.431172 219.012004 
L 259.518832 218.940525 
L 260.007351 218.833306 
L 260.049576 218.726088 
L 260.386668 218.61887 
L 260.391236 218.547391 
L 260.77156 218.440173 
L 260.798482 218.368694 
L 261.113995 218.261475 
L 261.148403 218.189997 
L 261.42606 218.082778 
L 261.481406 217.93982 
L 261.918824 217.832602 
L 261.972616 217.725384 
L 262.676766 217.618166 
L 262.73346 217.546687 
L 263.368998 217.439468 
L 263.368998 217.403729 
L 263.745159 217.296511 
L 263.842526 217.225032 
L 264.421552 217.117813 
L 264.421552 217.082074 
L 265.518834 216.974856 
L 265.595539 216.903377 
L 265.873349 216.796159 
L 265.873349 216.760419 
L 266.696684 216.653201 
L 266.800151 216.581722 
L 267.187651 216.474504 
L 267.187651 216.438764 
L 267.566277 216.331546 
L 267.566277 216.295806 
L 268.271553 216.188588 
L 268.271553 216.152849 
L 269.753235 216.04563 
L 269.753235 216.009891 
L 270.369831 215.902673 
L 270.369831 215.866933 
L 270.919794 215.759715 
L 270.919794 215.723976 
L 271.713879 215.616757 
L 271.824134 215.509539 
L 272.29674 215.402321 
L 272.29674 215.366581 
L 272.512506 215.259363 
L 272.512506 215.223623 
L 273.173158 215.116405 
L 273.212902 215.009187 
L 273.600792 214.901969 
L 273.694044 214.83049 
L 273.994188 214.723271 
L 274.096724 214.616053 
L 274.189254 214.508835 
L 274.247575 214.437356 
L 275.220401 214.330138 
L 275.220401 214.294398 
L 275.978635 214.18718 
L 275.978635 214.15144 
L 276.818691 214.044222 
L 276.921544 213.972743 
L 278.269401 213.865525 
L 278.277402 213.794046 
L 279.390304 213.686828 
L 279.448486 213.615349 
L 280.36199 213.508131 
L 280.36199 213.472391 
L 281.036617 213.365173 
L 281.036617 213.329433 
L 283.353558 213.222215 
L 283.353558 213.186476 
L 285.704608 213.079257 
L 285.704608 213.043518 
L 287.467795 212.9363 
L 287.467795 212.90056 
L 288.633587 212.793342 
L 288.633587 212.757602 
L 289.95619 212.650384 
L 289.986265 212.578905 
L 290.419182 212.471687 
L 290.419182 212.435948 
L 291.308868 212.328729 
L 291.308868 212.29299 
L 293.485423 212.185771 
L 293.485423 212.150032 
L 294.523792 212.042814 
L 294.523792 212.007074 
L 295.453694 211.935595 
L 295.453694 211.899856 
L 295.453694 211.864117 
L 296.79827 211.756898 
L 296.79827 211.721159 
L 298.901732 211.613941 
L 298.901732 211.578201 
L 307.073077 211.470983 
L 307.073077 211.435243 
L 309.363175 211.328025 
L 309.363175 211.292286 
L 311.226681 211.185067 
L 311.3061 211.113588 
L 314.871238 211.00637 
L 314.871238 210.970631 
L 318.09012 210.863412 
L 318.09012 210.827673 
L 321.848977 210.720455 
L 321.848977 210.684715 
L 335.553908 210.577497 
L 335.553908 210.541757 
L 340.405744 210.434539 
L 340.405744 210.3988 
L 349.533856 210.291581 
L 349.533856 210.255842 
L 453.192 210.184363 
L 453.192 210.184363 
" clip-path="url(#p2642fcccf3)" style="fill: none; stroke: #ff0000; stroke-width: 3; stroke-linecap: square"/>
   </g>
   <g id="line2d_24">
    <path clip-path="url(#p2642fcccf3)" style="fill: none; stroke: #ff0000; stroke-width: 3; stroke-linecap: square"/>
   </g>
   <g id="line2d_25">
    <path d="M 243.676 291.28 
L 243.676 3 
" clip-path="url(#p2642fcccf3)" style="fill: none; stroke: #000000; stroke-width: 1.5; stroke-linecap: square"/>
   </g>
   <g id="line2d_26">
    <path d="M 34.16 147.14 
L 453.192 147.14 
" clip-path="url(#p2642fcccf3)" style="fill: none; stroke-dasharray: 2,3.3; stroke-dashoffset: 0; stroke: #000000; stroke-width: 2"/>
   </g>
   <g id="patch_3">
    <path d="M 34.16 291.28 
L 34.16 3 
" style="fill: none; stroke: #000000; stroke-width: 0.8; stroke-linejoin: miter; stroke-linecap: square"/>
   </g>
   <g id="patch_4">
    <path d="M 453.192 291.28 
L 453.192 3 
" style="fill: none; stroke: #000000; stroke-width: 0.8; stroke-linejoin: miter; stroke-linecap: square"/>
   </g>
   <g id="patch_5">
    <path d="M 34.16 291.28 
L 453.192 291.28 
" style="fill: none; stroke: #000000; stroke-width: 0.8; stroke-linejoin: miter; stroke-linecap: square"/>
   </g>
   <g id="patch_6">
    <path d="M 34.16 3 
L 453.192 3 
" style="fill: none; stroke: #000000; stroke-width: 0.8; stroke-linejoin: miter; stroke-linecap: square"/>
   </g>
   <g id="text_6">
    <!-- f1-f24,5-D -->
    <g transform="translate(343.64261 285.5144)scale(0.2 -0.2)">
     <defs>
      <path id="DejaVuSans-34" d="M 2419 4116 
L 825 1625 
L 2419 1625 
L 2419 4116 
z
M 2253 4666 
L 3047 4666 
L 3047 1625 
L 3713 1625 
L 3713 1100 
L 3047 1100 
L 3047 0 
L 2419 0 
L 2419 1100 
L 313 1100 
L 313 1709 
L 2253 4666 
z
" transform="scale(0.015625)"/>
      <path id="DejaVuSans-2c" d="M 750 794 
L 1409 794 
L 1409 256 
L 897 -744 
L 494 -744 
L 750 256 
L 750 794 
z
" transform="scale(0.015625)"/>
      <path id="DejaVuSans-35" d="M 691 4666 
L 3169 4666 
L 3169 4134 
L 1269 4134 
L 1269 2991 
Q 1406 3038 1543 3061 
Q 1681 3084 1819 3084 
Q 2600 3084 3056 2656 
Q 3513 2228 3513 1497 
Q 3513 744 3044 326 
Q 2575 -91 1722 -91 
Q 1428 -91 1123 -41 
Q 819 9 494 109 
L 494 744 
Q 775 591 1075 516 
Q 1375 441 1709 441 
Q 2250 441 2565 725 
Q 2881 1009 2881 1497 
Q 2881 1984 2565 2268 
Q 2250 2553 1709 2553 
Q 1456 2553 1204 2497 
Q 953 2441 691 2322 
L 691 4666 
z
" transform="scale(0.015625)"/>
      <path id="DejaVuSans-44" d="M 1259 4147 
L 1259 519 
L 2022 519 
Q 2988 519 3436 956 
Q 3884 1394 3884 2338 
Q 3884 3275 3436 3711 
Q 2988 4147 2022 4147 
L 1259 4147 
z
M 628 4666 
L 1925 4666 
Q 3281 4666 3915 4102 
Q 4550 3538 4550 2338 
Q 4550 1131 3912 565 
Q 3275 0 1925 0 
L 628 0 
L 628 4666 
z
" transform="scale(0.015625)"/>
     </defs>
     <use xlink:href="#DejaVuSans-66"/>
     <use xlink:href="#DejaVuSans-31" x="35.205078"/>
     <use xlink:href="#DejaVuSans-2d" x="98.828125"/>
     <use xlink:href="#DejaVuSans-66" x="134.912109"/>
     <use xlink:href="#DejaVuSans-32" x="170.117188"/>
     <use xlink:href="#DejaVuSans-34" x="233.740234"/>
     <use xlink:href="#DejaVuSans-2c" x="297.363281"/>
     <use xlink:href="#DejaVuSans-35" x="329.150391"/>
     <use xlink:href="#DejaVuSans-2d" x="392.773438"/>
     <use xlink:href="#DejaVuSans-44" x="428.857422"/>
    </g>
   </g>
   <g id="text_7">
    <!-- v2.6 -->
    <g style="fill: #808080" transform="translate(232.765062 286.317512)scale(0.1 -0.1)">
     <defs>
      <path id="DejaVuSans-2e" d="M 684 794 
L 1344 794 
L 1344 0 
L 684 0 
L 684 794 
z
" transform="scale(0.015625)"/>
      <path id="DejaVuSans-36" d="M 2113 2584 
Q 1688 2584 1439 2293 
Q 1191 2003 1191 1497 
Q 1191 994 1439 701 
Q 1688 409 2113 409 
Q 2538 409 2786 701 
Q 3034 994 3034 1497 
Q 3034 2003 2786 2293 
Q 2538 2584 2113 2584 
z
M 3366 4563 
L 3366 3988 
Q 3128 4100 2886 4159 
Q 2644 4219 2406 4219 
Q 1781 4219 1451 3797 
Q 1122 3375 1075 2522 
Q 1259 2794 1537 2939 
Q 1816 3084 2150 3084 
Q 2853 3084 3261 2657 
Q 3669 2231 3669 1497 
Q 3669 778 3244 343 
Q 2819 -91 2113 -91 
Q 1303 -91 875 529 
Q 447 1150 447 2328 
Q 447 3434 972 4092 
Q 1497 4750 2381 4750 
Q 2619 4750 2861 4703 
Q 3103 4656 3366 4563 
z
" transform="scale(0.015625)"/>
     </defs>
     <use xlink:href="#DejaVuSans-76"/>
     <use xlink:href="#DejaVuSans-32" x="59.179688"/>
     <use xlink:href="#DejaVuSans-2e" x="122.802734"/>
     <use xlink:href="#DejaVuSans-36" x="154.589844"/>
    </g>
   </g>
   <g id="legend_1">
    <g id="patch_7">
     <path d="M 48.16 136.425 
L 202.831875 136.425 
Q 206.831875 136.425 206.831875 132.425 
L 206.831875 17 
Q 206.831875 13 202.831875 13 
L 48.16 13 
Q 44.16 13 44.16 17 
L 44.16 132.425 
Q 44.16 136.425 48.16 136.425 
z
" style="fill: #ffffff; opacity: 0.2; stroke: #cccccc; stroke-linejoin: miter"/>
    </g>
    <g id="line2d_27">
     <path d="M 52.16 29.196875 
L 72.16 29.196875 
L 92.16 29.196875 
" style="fill: none; stroke: #000000; stroke-width: 3; stroke-linecap: square"/>
    </g>
    <g id="text_8">
     <!-- 1: 24/24 -->
     <g transform="translate(108.16 36.196875)scale(0.2 -0.2)">
      <defs>
       <path id="DejaVuSans-3a" d="M 750 794 
L 1409 794 
L 1409 0 
L 750 0 
L 750 794 
z
M 750 3309 
L 1409 3309 
L 1409 2516 
L 750 2516 
L 750 3309 
z
" transform="scale(0.015625)"/>
       <path id="DejaVuSans-2f" d="M 1625 4666 
L 2156 4666 
L 531 -594 
L 0 -594 
L 1625 4666 
z
" transform="scale(0.015625)"/>
      </defs>
      <use xlink:href="#DejaVuSans-31"/>
      <use xlink:href="#DejaVuSans-3a" x="63.623047"/>
      <use xlink:href="#DejaVuSans-20" x="97.314453"/>
      <use xlink:href="#DejaVuSans-32" x="129.101562"/>
      <use xlink:href="#DejaVuSans-34" x="192.724609"/>
      <use xlink:href="#DejaVuSans-2f" x="256.347656"/>
      <use xlink:href="#DejaVuSans-32" x="290.039062"/>
      <use xlink:href="#DejaVuSans-34" x="353.662109"/>
     </g>
    </g>
    <g id="line2d_28">
     <path d="M 52.16 58.553125 
L 72.16 58.553125 
L 92.16 58.553125 
" style="fill: none; stroke: #00bfbf; stroke-width: 3; stroke-linecap: square"/>
    </g>
    <g id="text_9">
     <!-- -1: 20/23 -->
     <g transform="translate(108.16 65.553125)scale(0.2 -0.2)">
      <defs>
       <path id="DejaVuSans-33" d="M 2597 2516 
Q 3050 2419 3304 2112 
Q 3559 1806 3559 1356 
Q 3559 666 3084 287 
Q 2609 -91 1734 -91 
Q 1441 -91 1130 -33 
Q 819 25 488 141 
L 488 750 
Q 750 597 1062 519 
Q 1375 441 1716 441 
Q 2309 441 2620 675 
Q 2931 909 2931 1356 
Q 2931 1769 2642 2001 
Q 2353 2234 1838 2234 
L 1294 2234 
L 1294 2753 
L 1863 2753 
Q 2328 2753 2575 2939 
Q 2822 3125 2822 3475 
Q 2822 3834 2567 4026 
Q 2313 4219 1838 4219 
Q 1578 4219 1281 4162 
Q 984 4106 628 3988 
L 628 4550 
Q 988 4650 1302 4700 
Q 1616 4750 1894 4750 
Q 2613 4750 3031 4423 
Q 3450 4097 3450 3541 
Q 3450 3153 3228 2886 
Q 3006 2619 2597 2516 
z
" transform="scale(0.015625)"/>
      </defs>
      <use xlink:href="#DejaVuSans-2d"/>
      <use xlink:href="#DejaVuSans-31" x="36.083984"/>
      <use xlink:href="#DejaVuSans-3a" x="99.707031"/>
      <use xlink:href="#DejaVuSans-20" x="133.398438"/>
      <use xlink:href="#DejaVuSans-32" x="165.185547"/>
      <use xlink:href="#DejaVuSans-30" x="228.808594"/>
      <use xlink:href="#DejaVuSans-2f" x="292.431641"/>
      <use xlink:href="#DejaVuSans-32" x="326.123047"/>
      <use xlink:href="#DejaVuSans-33" x="389.746094"/>
     </g>
    </g>
    <g id="line2d_29">
     <path d="M 52.16 87.909375 
L 72.16 87.909375 
L 92.16 87.909375 
" style="fill: none; stroke: #bf00bf; stroke-width: 3; stroke-linecap: square"/>
    </g>
    <g id="text_10">
     <!-- -4: 19/22 -->
     <g transform="translate(108.16 94.909375)scale(0.2 -0.2)">
      <defs>
       <path id="DejaVuSans-39" d="M 703 97 
L 703 672 
Q 941 559 1184 500 
Q 1428 441 1663 441 
Q 2288 441 2617 861 
Q 2947 1281 2994 2138 
Q 2813 1869 2534 1725 
Q 2256 1581 1919 1581 
Q 1219 1581 811 2004 
Q 403 2428 403 3163 
Q 403 3881 828 4315 
Q 1253 4750 1959 4750 
Q 2769 4750 3195 4129 
Q 3622 3509 3622 2328 
Q 3622 1225 3098 567 
Q 2575 -91 1691 -91 
Q 1453 -91 1209 -44 
Q 966 3 703 97 
z
M 1959 2075 
Q 2384 2075 2632 2365 
Q 2881 2656 2881 3163 
Q 2881 3666 2632 3958 
Q 2384 4250 1959 4250 
Q 1534 4250 1286 3958 
Q 1038 3666 1038 3163 
Q 1038 2656 1286 2365 
Q 1534 2075 1959 2075 
z
" transform="scale(0.015625)"/>
      </defs>
      <use xlink:href="#DejaVuSans-2d"/>
      <use xlink:href="#DejaVuSans-34" x="36.083984"/>
      <use xlink:href="#DejaVuSans-3a" x="99.707031"/>
      <use xlink:href="#DejaVuSans-20" x="133.398438"/>
      <use xlink:href="#DejaVuSans-31" x="165.185547"/>
      <use xlink:href="#DejaVuSans-39" x="228.808594"/>
      <use xlink:href="#DejaVuSans-2f" x="292.431641"/>
      <use xlink:href="#DejaVuSans-32" x="326.123047"/>
      <use xlink:href="#DejaVuSans-32" x="389.746094"/>
     </g>
    </g>
    <g id="line2d_30">
     <path d="M 52.16 117.265625 
L 72.16 117.265625 
L 92.16 117.265625 
" style="fill: none; stroke: #ff0000; stroke-width: 3; stroke-linecap: square"/>
    </g>
    <g id="text_11">
     <!-- -8: 18/22 -->
     <g transform="translate(108.16 124.265625)scale(0.2 -0.2)">
      <defs>
       <path id="DejaVuSans-38" d="M 2034 2216 
Q 1584 2216 1326 1975 
Q 1069 1734 1069 1313 
Q 1069 891 1326 650 
Q 1584 409 2034 409 
Q 2484 409 2743 651 
Q 3003 894 3003 1313 
Q 3003 1734 2745 1975 
Q 2488 2216 2034 2216 
z
M 1403 2484 
Q 997 2584 770 2862 
Q 544 3141 544 3541 
Q 544 4100 942 4425 
Q 1341 4750 2034 4750 
Q 2731 4750 3128 4425 
Q 3525 4100 3525 3541 
Q 3525 3141 3298 2862 
Q 3072 2584 2669 2484 
Q 3125 2378 3379 2068 
Q 3634 1759 3634 1313 
Q 3634 634 3220 271 
Q 2806 -91 2034 -91 
Q 1263 -91 848 271 
Q 434 634 434 1313 
Q 434 1759 690 2068 
Q 947 2378 1403 2484 
z
M 1172 3481 
Q 1172 3119 1398 2916 
Q 1625 2713 2034 2713 
Q 2441 2713 2670 2916 
Q 2900 3119 2900 3481 
Q 2900 3844 2670 4047 
Q 2441 4250 2034 4250 
Q 1625 4250 1398 4047 
Q 1172 3844 1172 3481 
z
" transform="scale(0.015625)"/>
      </defs>
      <use xlink:href="#DejaVuSans-2d"/>
      <use xlink:href="#DejaVuSans-38" x="36.083984"/>
      <use xlink:href="#DejaVuSans-3a" x="99.707031"/>
      <use xlink:href="#DejaVuSans-20" x="133.398438"/>
      <use xlink:href="#DejaVuSans-31" x="165.185547"/>
      <use xlink:href="#DejaVuSans-38" x="228.808594"/>
      <use xlink:href="#DejaVuSans-2f" x="292.431641"/>
      <use xlink:href="#DejaVuSans-32" x="326.123047"/>
      <use xlink:href="#DejaVuSans-32" x="389.746094"/>
     </g>
    </g>
   </g>
  </g>
 </g>
 <defs>
  <clipPath id="p2642fcccf3">
   <rect x="34.16" y="3" width="419.032" height="288.28"/>
  </clipPath>
 </defs>
</svg>
