<?xml version="1.0" encoding="utf-8" standalone="no"?>
<!DOCTYPE svg PUBLIC "-//W3C//DTD SVG 1.1//EN"
  "http://www.w3.org/Graphics/SVG/1.1/DTD/svg11.dtd">
<svg xmlns:xlink="http://www.w3.org/1999/xlink" width="460.8pt" height="345.6pt" viewBox="0 0 460.8 345.6" xmlns="http://www.w3.org/2000/svg" version="1.1">
 <metadata>
  <rdf:RDF xmlns:dc="http://purl.org/dc/elements/1.1/" xmlns:cc="http://creativecommons.org/ns#" xmlns:rdf="http://www.w3.org/1999/02/22-rdf-syntax-ns#">
   <cc:Work>
    <dc:type rdf:resource="http://purl.org/dc/dcmitype/StillImage"/>
    <dc:date>2022-03-16T23:17:05.961069</dc:date>
    <dc:format>image/svg+xml</dc:format>
    <dc:creator>
     <cc:Agent>
      <dc:title>Matplotlib v3.5.1, https://matplotlib.org/</dc:title>
     </cc:Agent>
    </dc:creator>
   </cc:Work>
  </rdf:RDF>
 </metadata>
 <defs>
  <style type="text/css">*{stroke-linejoin: round; stroke-linecap: butt}</style>
 </defs>
 <g id="figure_1">
  <g id="patch_1">
   <path d="M 0 345.6 
L 460.8 345.6 
L 460.8 0 
L 0 0 
z
" style="fill: #ffffff"/>
  </g>
  <g id="axes_1">
   <g id="patch_2">
    <path d="M 57.6 298.944 
L 360.8064 298.944 
L 360.8064 6.912 
L 57.6 6.912 
z
" style="fill: #ffffff"/>
   </g>
   <g id="line2d_1">
    <path d="M 44.560826 298.944 
L 44.560826 287.491765 
L 57.6 287.491765 
L 57.6 281.765647 
L 65.227428 281.765647 
L 65.227428 278.329976 
L 70.639174 278.329976 
L 70.639174 224.504471 
L 74.836851 224.504471 
L 74.836851 222.214024 
L 78.266603 222.214024 
L 78.266603 175.259859 
L 81.166416 175.259859 
L 81.166416 174.114635 
L 83.678349 174.114635 
L 83.678349 172.969412 
L 87.876026 172.969412 
L 87.876026 171.824188 
L 91.305777 171.824188 
L 91.305777 170.678965 
L 92.811505 170.678965 
L 92.811505 169.533741 
L 94.205591 169.533741 
L 94.205591 168.388518 
L 95.503454 168.388518 
L 95.503454 164.952847 
L 96.717523 164.952847 
L 96.717523 163.807624 
L 98.933205 163.807624 
L 98.933205 162.6624 
L 99.950294 162.6624 
L 99.950294 158.081506 
L 100.9152 158.081506 
L 100.9152 155.791059 
L 102.708132 155.791059 
L 102.708132 153.500612 
L 104.344952 153.500612 
L 104.344952 150.064941 
L 105.112877 150.064941 
L 105.112877 142.048376 
L 105.850679 142.048376 
L 105.850679 132.886588 
L 106.560633 132.886588 
L 106.560633 127.160471 
L 107.244765 127.160471 
L 107.244765 116.853459 
L 107.904887 116.853459 
L 107.904887 111.127341 
L 108.542628 111.127341 
L 108.542628 106.546447 
L 115.314838 106.546447 
L 115.314838 105.401224 
L 133.323114 105.401224 
L 133.323114 104.256 
L 134.620977 104.256 
L 134.620977 103.110776 
L 147.816265 103.110776 
L 147.816265 101.965553 
L 149.945377 101.965553 
L 149.945377 100.820329 
L 152.474656 100.820329 
L 152.474656 99.675106 
L 154.432362 99.675106 
L 154.432362 98.529882 
L 157.642093 98.529882 
L 157.642093 97.384659 
L 157.916719 97.384659 
L 157.916719 96.239435 
L 159.232748 96.239435 
L 159.317295 85.932424 
L 159.359426 85.932424 
L 159.401463 81.351529 
L 159.485256 81.351529 
L 159.568678 72.189741 
L 159.61025 72.189741 
L 159.693121 59.592282 
L 159.857774 59.592282 
L 159.939564 57.301835 
L 159.980326 57.301835 
L 160.061585 50.430494 
L 160.102084 50.430494 
L 160.102084 45.8496 
L 160.699326 45.8496 
L 160.738476 42.413929 
L 161.316153 42.413929 
L 161.354042 38.978259 
L 161.504837 38.978259 
L 161.504837 37.833035 
L 161.765853 37.833035 
L 161.765853 36.687812 
L 162.31327 36.687812 
L 162.31327 35.542588 
L 162.810208 35.542588 
L 162.915008 28.671247 
L 163.019227 28.671247 
L 163.053839 22.945129 
L 163.328465 22.945129 
L 163.328465 19.509459 
L 163.565517 19.509459 
L 163.565517 18.364235 
L 163.699647 18.364235 
L 163.79962 12.638118 
L 163.832826 12.638118 
L 163.899064 6.912 
L 360.8064 6.912 
L 360.8064 6.912 
" style="fill: none; stroke: #f5deb3; stroke-width: 4; stroke-linecap: square"/>
   </g>
   <g id="line2d_2">
    <defs>
     <path id="m1ec9460150" d="M -0 7.778175 
L 7.778175 0 
L 0 -7.778175 
L -7.778175 -0 
z
" style="stroke: #f5deb3; stroke-width: 1.5; stroke-linejoin: miter"/>
    </defs>
    <g>
     <use xlink:href="#m1ec9460150" x="78.266603" y="222.214024" style="fill: #f5deb3; stroke: #f5deb3; stroke-width: 1.5; stroke-linejoin: miter"/>
     <use xlink:href="#m1ec9460150" x="115.314838" y="106.546447" style="fill: #f5deb3; stroke: #f5deb3; stroke-width: 1.5; stroke-linejoin: miter"/>
     <use xlink:href="#m1ec9460150" x="163.73303" y="13.783341" style="fill: #f5deb3; stroke: #f5deb3; stroke-width: 1.5; stroke-linejoin: miter"/>
     <use xlink:href="#m1ec9460150" x="163.899064" y="6.912" style="fill: #f5deb3; stroke: #f5deb3; stroke-width: 1.5; stroke-linejoin: miter"/>
     <use xlink:href="#m1ec9460150" x="163.899064" y="6.912" style="fill: #f5deb3; stroke: #f5deb3; stroke-width: 1.5; stroke-linejoin: miter"/>
     <use xlink:href="#m1ec9460150" x="360.8064" y="6.912" style="fill: #f5deb3; stroke: #f5deb3; stroke-width: 1.5; stroke-linejoin: miter"/>
    </g>
   </g>
   <g id="line2d_3">
    <path style="fill: none; stroke: #f5deb3; stroke-width: 4; stroke-linecap: square"/>
    <g/>
   </g>
   <g id="line2d_4">
    <path d="M 360.8064 6.912 
L 380.514816 12.75264 
" style="fill: none; stroke: #f5deb3; stroke-width: 4; stroke-linecap: square"/>
    <g>
     <use xlink:href="#m1ec9460150" x="360.8064" y="6.912" style="fill: #f5deb3; stroke: #f5deb3; stroke-width: 1.5; stroke-linejoin: miter"/>
     <use xlink:href="#m1ec9460150" x="380.514816" y="12.75264" style="fill: #f5deb3; stroke: #f5deb3; stroke-width: 1.5; stroke-linejoin: miter"/>
    </g>
   </g>
   <g id="matplotlib.axis_1">
    <g id="xtick_1">
     <g id="line2d_5">
      <path d="M 57.6 298.944 
L 57.6 6.912 
" clip-path="url(#p49db9856ac)" style="fill: none; stroke: #b0b0b0; stroke-width: 0.8; stroke-linecap: square"/>
     </g>
     <g id="line2d_6">
      <defs>
       <path id="m52e4545a55" d="M 0 0 
L 0 3.5 
" style="stroke: #000000; stroke-width: 0.8"/>
      </defs>
      <g>
       <use xlink:href="#m52e4545a55" x="57.6" y="298.944" style="stroke: #000000; stroke-width: 0.8"/>
      </g>
     </g>
     <g id="text_1">
      <!-- 0 -->
      <g transform="translate(52.191875 318.861344)scale(0.17 -0.17)">
       <defs>
        <path id="DejaVuSans-30" d="M 2034 4250 
Q 1547 4250 1301 3770 
Q 1056 3291 1056 2328 
Q 1056 1369 1301 889 
Q 1547 409 2034 409 
Q 2525 409 2770 889 
Q 3016 1369 3016 2328 
Q 3016 3291 2770 3770 
Q 2525 4250 2034 4250 
z
M 2034 4750 
Q 2819 4750 3233 4129 
Q 3647 3509 3647 2328 
Q 3647 1150 3233 529 
Q 2819 -91 2034 -91 
Q 1250 -91 836 529 
Q 422 1150 422 2328 
Q 422 3509 836 4129 
Q 1250 4750 2034 4750 
z
" transform="scale(0.015625)"/>
       </defs>
       <use xlink:href="#DejaVuSans-30"/>
      </g>
     </g>
    </g>
    <g id="xtick_2">
     <g id="line2d_7">
      <path d="M 144.2304 298.944 
L 144.2304 6.912 
" clip-path="url(#p49db9856ac)" style="fill: none; stroke: #b0b0b0; stroke-width: 0.8; stroke-linecap: square"/>
     </g>
     <g id="line2d_8">
      <g>
       <use xlink:href="#m52e4545a55" x="144.2304" y="298.944" style="stroke: #000000; stroke-width: 0.8"/>
      </g>
     </g>
     <g id="text_2">
      <!-- 2 -->
      <g transform="translate(138.822275 318.861344)scale(0.17 -0.17)">
       <defs>
        <path id="DejaVuSans-32" d="M 1228 531 
L 3431 531 
L 3431 0 
L 469 0 
L 469 531 
Q 828 903 1448 1529 
Q 2069 2156 2228 2338 
Q 2531 2678 2651 2914 
Q 2772 3150 2772 3378 
Q 2772 3750 2511 3984 
Q 2250 4219 1831 4219 
Q 1534 4219 1204 4116 
Q 875 4013 500 3803 
L 500 4441 
Q 881 4594 1212 4672 
Q 1544 4750 1819 4750 
Q 2544 4750 2975 4387 
Q 3406 4025 3406 3419 
Q 3406 3131 3298 2873 
Q 3191 2616 2906 2266 
Q 2828 2175 2409 1742 
Q 1991 1309 1228 531 
z
" transform="scale(0.015625)"/>
       </defs>
       <use xlink:href="#DejaVuSans-32"/>
      </g>
     </g>
    </g>
    <g id="xtick_3">
     <g id="line2d_9">
      <path d="M 230.8608 298.944 
L 230.8608 6.912 
" clip-path="url(#p49db9856ac)" style="fill: none; stroke: #b0b0b0; stroke-width: 0.8; stroke-linecap: square"/>
     </g>
     <g id="line2d_10">
      <g>
       <use xlink:href="#m52e4545a55" x="230.8608" y="298.944" style="stroke: #000000; stroke-width: 0.8"/>
      </g>
     </g>
     <g id="text_3">
      <!-- 4 -->
      <g transform="translate(225.452675 318.861344)scale(0.17 -0.17)">
       <defs>
        <path id="DejaVuSans-34" d="M 2419 4116 
L 825 1625 
L 2419 1625 
L 2419 4116 
z
M 2253 4666 
L 3047 4666 
L 3047 1625 
L 3713 1625 
L 3713 1100 
L 3047 1100 
L 3047 0 
L 2419 0 
L 2419 1100 
L 313 1100 
L 313 1709 
L 2253 4666 
z
" transform="scale(0.015625)"/>
       </defs>
       <use xlink:href="#DejaVuSans-34"/>
      </g>
     </g>
    </g>
    <g id="xtick_4">
     <g id="line2d_11">
      <path d="M 317.4912 298.944 
L 317.4912 6.912 
" clip-path="url(#p49db9856ac)" style="fill: none; stroke: #b0b0b0; stroke-width: 0.8; stroke-linecap: square"/>
     </g>
     <g id="line2d_12">
      <g>
       <use xlink:href="#m52e4545a55" x="317.4912" y="298.944" style="stroke: #000000; stroke-width: 0.8"/>
      </g>
     </g>
     <g id="text_4">
      <!-- 6 -->
      <g transform="translate(312.083075 318.861344)scale(0.17 -0.17)">
       <defs>
        <path id="DejaVuSans-36" d="M 2113 2584 
Q 1688 2584 1439 2293 
Q 1191 2003 1191 1497 
Q 1191 994 1439 701 
Q 1688 409 2113 409 
Q 2538 409 2786 701 
Q 3034 994 3034 1497 
Q 3034 2003 2786 2293 
Q 2538 2584 2113 2584 
z
M 3366 4563 
L 3366 3988 
Q 3128 4100 2886 4159 
Q 2644 4219 2406 4219 
Q 1781 4219 1451 3797 
Q 1122 3375 1075 2522 
Q 1259 2794 1537 2939 
Q 1816 3084 2150 3084 
Q 2853 3084 3261 2657 
Q 3669 2231 3669 1497 
Q 3669 778 3244 343 
Q 2819 -91 2113 -91 
Q 1303 -91 875 529 
Q 447 1150 447 2328 
Q 447 3434 972 4092 
Q 1497 4750 2381 4750 
Q 2619 4750 2861 4703 
Q 3103 4656 3366 4563 
z
" transform="scale(0.015625)"/>
       </defs>
       <use xlink:href="#DejaVuSans-36"/>
      </g>
     </g>
    </g>
    <g id="xtick_5">
     <g id="line2d_13">
      <path d="M 100.9152 298.944 
L 100.9152 6.912 
" clip-path="url(#p49db9856ac)" style="fill: none; stroke: #b0b0b0; stroke-width: 0.8; stroke-linecap: square"/>
     </g>
     <g id="line2d_14">
      <defs>
       <path id="m01d7c01c61" d="M 0 0 
L 0 2 
" style="stroke: #000000; stroke-width: 0.6"/>
      </defs>
      <g>
       <use xlink:href="#m01d7c01c61" x="100.9152" y="298.944" style="stroke: #000000; stroke-width: 0.6"/>
      </g>
     </g>
    </g>
    <g id="xtick_6">
     <g id="line2d_15">
      <path d="M 187.5456 298.944 
L 187.5456 6.912 
" clip-path="url(#p49db9856ac)" style="fill: none; stroke: #b0b0b0; stroke-width: 0.8; stroke-linecap: square"/>
     </g>
     <g id="line2d_16">
      <g>
       <use xlink:href="#m01d7c01c61" x="187.5456" y="298.944" style="stroke: #000000; stroke-width: 0.6"/>
      </g>
     </g>
    </g>
    <g id="xtick_7">
     <g id="line2d_17">
      <path d="M 274.176 298.944 
L 274.176 6.912 
" clip-path="url(#p49db9856ac)" style="fill: none; stroke: #b0b0b0; stroke-width: 0.8; stroke-linecap: square"/>
     </g>
     <g id="line2d_18">
      <g>
       <use xlink:href="#m01d7c01c61" x="274.176" y="298.944" style="stroke: #000000; stroke-width: 0.6"/>
      </g>
     </g>
    </g>
    <g id="xtick_8">
     <g id="line2d_19">
      <path d="M 360.8064 298.944 
L 360.8064 6.912 
" clip-path="url(#p49db9856ac)" style="fill: none; stroke: #b0b0b0; stroke-width: 0.8; stroke-linecap: square"/>
     </g>
     <g id="line2d_20">
      <g>
       <use xlink:href="#m01d7c01c61" x="360.8064" y="298.944" style="stroke: #000000; stroke-width: 0.6"/>
      </g>
     </g>
    </g>
    <g id="text_5">
     <!-- log10(# f-evals / dimension) -->
     <g transform="translate(88.823278 339.314156)scale(0.17 -0.17)">
      <defs>
       <path id="DejaVuSans-6c" d="M 603 4863 
L 1178 4863 
L 1178 0 
L 603 0 
L 603 4863 
z
" transform="scale(0.015625)"/>
       <path id="DejaVuSans-6f" d="M 1959 3097 
Q 1497 3097 1228 2736 
Q 959 2375 959 1747 
Q 959 1119 1226 758 
Q 1494 397 1959 397 
Q 2419 397 2687 759 
Q 2956 1122 2956 1747 
Q 2956 2369 2687 2733 
Q 2419 3097 1959 3097 
z
M 1959 3584 
Q 2709 3584 3137 3096 
Q 3566 2609 3566 1747 
Q 3566 888 3137 398 
Q 2709 -91 1959 -91 
Q 1206 -91 779 398 
Q 353 888 353 1747 
Q 353 2609 779 3096 
Q 1206 3584 1959 3584 
z
" transform="scale(0.015625)"/>
       <path id="DejaVuSans-67" d="M 2906 1791 
Q 2906 2416 2648 2759 
Q 2391 3103 1925 3103 
Q 1463 3103 1205 2759 
Q 947 2416 947 1791 
Q 947 1169 1205 825 
Q 1463 481 1925 481 
Q 2391 481 2648 825 
Q 2906 1169 2906 1791 
z
M 3481 434 
Q 3481 -459 3084 -895 
Q 2688 -1331 1869 -1331 
Q 1566 -1331 1297 -1286 
Q 1028 -1241 775 -1147 
L 775 -588 
Q 1028 -725 1275 -790 
Q 1522 -856 1778 -856 
Q 2344 -856 2625 -561 
Q 2906 -266 2906 331 
L 2906 616 
Q 2728 306 2450 153 
Q 2172 0 1784 0 
Q 1141 0 747 490 
Q 353 981 353 1791 
Q 353 2603 747 3093 
Q 1141 3584 1784 3584 
Q 2172 3584 2450 3431 
Q 2728 3278 2906 2969 
L 2906 3500 
L 3481 3500 
L 3481 434 
z
" transform="scale(0.015625)"/>
       <path id="DejaVuSans-31" d="M 794 531 
L 1825 531 
L 1825 4091 
L 703 3866 
L 703 4441 
L 1819 4666 
L 2450 4666 
L 2450 531 
L 3481 531 
L 3481 0 
L 794 0 
L 794 531 
z
" transform="scale(0.015625)"/>
       <path id="DejaVuSans-28" d="M 1984 4856 
Q 1566 4138 1362 3434 
Q 1159 2731 1159 2009 
Q 1159 1288 1364 580 
Q 1569 -128 1984 -844 
L 1484 -844 
Q 1016 -109 783 600 
Q 550 1309 550 2009 
Q 550 2706 781 3412 
Q 1013 4119 1484 4856 
L 1984 4856 
z
" transform="scale(0.015625)"/>
       <path id="DejaVuSans-23" d="M 3272 2816 
L 2363 2816 
L 2100 1772 
L 3016 1772 
L 3272 2816 
z
M 2803 4594 
L 2478 3297 
L 3391 3297 
L 3719 4594 
L 4219 4594 
L 3897 3297 
L 4872 3297 
L 4872 2816 
L 3775 2816 
L 3519 1772 
L 4513 1772 
L 4513 1294 
L 3397 1294 
L 3072 0 
L 2572 0 
L 2894 1294 
L 1978 1294 
L 1656 0 
L 1153 0 
L 1478 1294 
L 494 1294 
L 494 1772 
L 1594 1772 
L 1856 2816 
L 850 2816 
L 850 3297 
L 1978 3297 
L 2297 4594 
L 2803 4594 
z
" transform="scale(0.015625)"/>
       <path id="DejaVuSans-20" transform="scale(0.015625)"/>
       <path id="DejaVuSans-66" d="M 2375 4863 
L 2375 4384 
L 1825 4384 
Q 1516 4384 1395 4259 
Q 1275 4134 1275 3809 
L 1275 3500 
L 2222 3500 
L 2222 3053 
L 1275 3053 
L 1275 0 
L 697 0 
L 697 3053 
L 147 3053 
L 147 3500 
L 697 3500 
L 697 3744 
Q 697 4328 969 4595 
Q 1241 4863 1831 4863 
L 2375 4863 
z
" transform="scale(0.015625)"/>
       <path id="DejaVuSans-2d" d="M 313 2009 
L 1997 2009 
L 1997 1497 
L 313 1497 
L 313 2009 
z
" transform="scale(0.015625)"/>
       <path id="DejaVuSans-65" d="M 3597 1894 
L 3597 1613 
L 953 1613 
Q 991 1019 1311 708 
Q 1631 397 2203 397 
Q 2534 397 2845 478 
Q 3156 559 3463 722 
L 3463 178 
Q 3153 47 2828 -22 
Q 2503 -91 2169 -91 
Q 1331 -91 842 396 
Q 353 884 353 1716 
Q 353 2575 817 3079 
Q 1281 3584 2069 3584 
Q 2775 3584 3186 3129 
Q 3597 2675 3597 1894 
z
M 3022 2063 
Q 3016 2534 2758 2815 
Q 2500 3097 2075 3097 
Q 1594 3097 1305 2825 
Q 1016 2553 972 2059 
L 3022 2063 
z
" transform="scale(0.015625)"/>
       <path id="DejaVuSans-76" d="M 191 3500 
L 800 3500 
L 1894 563 
L 2988 3500 
L 3597 3500 
L 2284 0 
L 1503 0 
L 191 3500 
z
" transform="scale(0.015625)"/>
       <path id="DejaVuSans-61" d="M 2194 1759 
Q 1497 1759 1228 1600 
Q 959 1441 959 1056 
Q 959 750 1161 570 
Q 1363 391 1709 391 
Q 2188 391 2477 730 
Q 2766 1069 2766 1631 
L 2766 1759 
L 2194 1759 
z
M 3341 1997 
L 3341 0 
L 2766 0 
L 2766 531 
Q 2569 213 2275 61 
Q 1981 -91 1556 -91 
Q 1019 -91 701 211 
Q 384 513 384 1019 
Q 384 1609 779 1909 
Q 1175 2209 1959 2209 
L 2766 2209 
L 2766 2266 
Q 2766 2663 2505 2880 
Q 2244 3097 1772 3097 
Q 1472 3097 1187 3025 
Q 903 2953 641 2809 
L 641 3341 
Q 956 3463 1253 3523 
Q 1550 3584 1831 3584 
Q 2591 3584 2966 3190 
Q 3341 2797 3341 1997 
z
" transform="scale(0.015625)"/>
       <path id="DejaVuSans-73" d="M 2834 3397 
L 2834 2853 
Q 2591 2978 2328 3040 
Q 2066 3103 1784 3103 
Q 1356 3103 1142 2972 
Q 928 2841 928 2578 
Q 928 2378 1081 2264 
Q 1234 2150 1697 2047 
L 1894 2003 
Q 2506 1872 2764 1633 
Q 3022 1394 3022 966 
Q 3022 478 2636 193 
Q 2250 -91 1575 -91 
Q 1294 -91 989 -36 
Q 684 19 347 128 
L 347 722 
Q 666 556 975 473 
Q 1284 391 1588 391 
Q 1994 391 2212 530 
Q 2431 669 2431 922 
Q 2431 1156 2273 1281 
Q 2116 1406 1581 1522 
L 1381 1569 
Q 847 1681 609 1914 
Q 372 2147 372 2553 
Q 372 3047 722 3315 
Q 1072 3584 1716 3584 
Q 2034 3584 2315 3537 
Q 2597 3491 2834 3397 
z
" transform="scale(0.015625)"/>
       <path id="DejaVuSans-2f" d="M 1625 4666 
L 2156 4666 
L 531 -594 
L 0 -594 
L 1625 4666 
z
" transform="scale(0.015625)"/>
       <path id="DejaVuSans-64" d="M 2906 2969 
L 2906 4863 
L 3481 4863 
L 3481 0 
L 2906 0 
L 2906 525 
Q 2725 213 2448 61 
Q 2172 -91 1784 -91 
Q 1150 -91 751 415 
Q 353 922 353 1747 
Q 353 2572 751 3078 
Q 1150 3584 1784 3584 
Q 2172 3584 2448 3432 
Q 2725 3281 2906 2969 
z
M 947 1747 
Q 947 1113 1208 752 
Q 1469 391 1925 391 
Q 2381 391 2643 752 
Q 2906 1113 2906 1747 
Q 2906 2381 2643 2742 
Q 2381 3103 1925 3103 
Q 1469 3103 1208 2742 
Q 947 2381 947 1747 
z
" transform="scale(0.015625)"/>
       <path id="DejaVuSans-69" d="M 603 3500 
L 1178 3500 
L 1178 0 
L 603 0 
L 603 3500 
z
M 603 4863 
L 1178 4863 
L 1178 4134 
L 603 4134 
L 603 4863 
z
" transform="scale(0.015625)"/>
       <path id="DejaVuSans-6d" d="M 3328 2828 
Q 3544 3216 3844 3400 
Q 4144 3584 4550 3584 
Q 5097 3584 5394 3201 
Q 5691 2819 5691 2113 
L 5691 0 
L 5113 0 
L 5113 2094 
Q 5113 2597 4934 2840 
Q 4756 3084 4391 3084 
Q 3944 3084 3684 2787 
Q 3425 2491 3425 1978 
L 3425 0 
L 2847 0 
L 2847 2094 
Q 2847 2600 2669 2842 
Q 2491 3084 2119 3084 
Q 1678 3084 1418 2786 
Q 1159 2488 1159 1978 
L 1159 0 
L 581 0 
L 581 3500 
L 1159 3500 
L 1159 2956 
Q 1356 3278 1631 3431 
Q 1906 3584 2284 3584 
Q 2666 3584 2933 3390 
Q 3200 3197 3328 2828 
z
" transform="scale(0.015625)"/>
       <path id="DejaVuSans-6e" d="M 3513 2113 
L 3513 0 
L 2938 0 
L 2938 2094 
Q 2938 2591 2744 2837 
Q 2550 3084 2163 3084 
Q 1697 3084 1428 2787 
Q 1159 2491 1159 1978 
L 1159 0 
L 581 0 
L 581 3500 
L 1159 3500 
L 1159 2956 
Q 1366 3272 1645 3428 
Q 1925 3584 2291 3584 
Q 2894 3584 3203 3211 
Q 3513 2838 3513 2113 
z
" transform="scale(0.015625)"/>
       <path id="DejaVuSans-29" d="M 513 4856 
L 1013 4856 
Q 1481 4119 1714 3412 
Q 1947 2706 1947 2009 
Q 1947 1309 1714 600 
Q 1481 -109 1013 -844 
L 513 -844 
Q 928 -128 1133 580 
Q 1338 1288 1338 2009 
Q 1338 2731 1133 3434 
Q 928 4138 513 4856 
z
" transform="scale(0.015625)"/>
      </defs>
      <use xlink:href="#DejaVuSans-6c"/>
      <use xlink:href="#DejaVuSans-6f" x="27.783203"/>
      <use xlink:href="#DejaVuSans-67" x="88.964844"/>
      <use xlink:href="#DejaVuSans-31" x="152.441406"/>
      <use xlink:href="#DejaVuSans-30" x="216.064453"/>
      <use xlink:href="#DejaVuSans-28" x="279.6875"/>
      <use xlink:href="#DejaVuSans-23" x="318.701172"/>
      <use xlink:href="#DejaVuSans-20" x="402.490234"/>
      <use xlink:href="#DejaVuSans-66" x="434.277344"/>
      <use xlink:href="#DejaVuSans-2d" x="463.982422"/>
      <use xlink:href="#DejaVuSans-65" x="500.066406"/>
      <use xlink:href="#DejaVuSans-76" x="561.589844"/>
      <use xlink:href="#DejaVuSans-61" x="620.769531"/>
      <use xlink:href="#DejaVuSans-6c" x="682.048828"/>
      <use xlink:href="#DejaVuSans-73" x="709.832031"/>
      <use xlink:href="#DejaVuSans-20" x="761.931641"/>
      <use xlink:href="#DejaVuSans-2f" x="793.71875"/>
      <use xlink:href="#DejaVuSans-20" x="827.410156"/>
      <use xlink:href="#DejaVuSans-64" x="859.197266"/>
      <use xlink:href="#DejaVuSans-69" x="922.673828"/>
      <use xlink:href="#DejaVuSans-6d" x="950.457031"/>
      <use xlink:href="#DejaVuSans-65" x="1047.869141"/>
      <use xlink:href="#DejaVuSans-6e" x="1109.392578"/>
      <use xlink:href="#DejaVuSans-73" x="1172.771484"/>
      <use xlink:href="#DejaVuSans-69" x="1224.871094"/>
      <use xlink:href="#DejaVuSans-6f" x="1252.654297"/>
      <use xlink:href="#DejaVuSans-6e" x="1313.835938"/>
      <use xlink:href="#DejaVuSans-29" x="1377.214844"/>
     </g>
    </g>
   </g>
   <g id="matplotlib.axis_2">
    <g id="ytick_1">
     <g id="line2d_21">
      <path d="M 57.6 298.944 
L 360.8064 298.944 
" clip-path="url(#p49db9856ac)" style="fill: none; stroke: #b0b0b0; stroke-width: 0.8; stroke-linecap: square"/>
     </g>
     <g id="line2d_22">
      <defs>
       <path id="m433f308854" d="M 0 0 
L -3.5 0 
" style="stroke: #000000; stroke-width: 0.8"/>
      </defs>
      <g>
       <use xlink:href="#m433f308854" x="57.6" y="298.944" style="stroke: #000000; stroke-width: 0.8"/>
      </g>
     </g>
     <g id="text_6">
      <!-- 0.0 -->
      <g transform="translate(25.155 305.02275)scale(0.16 -0.16)">
       <defs>
        <path id="DejaVuSans-2e" d="M 684 794 
L 1344 794 
L 1344 0 
L 684 0 
L 684 794 
z
" transform="scale(0.015625)"/>
       </defs>
       <use xlink:href="#DejaVuSans-30"/>
       <use xlink:href="#DejaVuSans-2e" x="63.623047"/>
       <use xlink:href="#DejaVuSans-30" x="95.410156"/>
      </g>
     </g>
    </g>
    <g id="ytick_2">
     <g id="line2d_23">
      <path d="M 57.6 240.5376 
L 360.8064 240.5376 
" clip-path="url(#p49db9856ac)" style="fill: none; stroke: #b0b0b0; stroke-width: 0.8; stroke-linecap: square"/>
     </g>
     <g id="line2d_24">
      <g>
       <use xlink:href="#m433f308854" x="57.6" y="240.5376" style="stroke: #000000; stroke-width: 0.8"/>
      </g>
     </g>
     <g id="text_7">
      <!-- 0.2 -->
      <g transform="translate(25.155 246.61635)scale(0.16 -0.16)">
       <use xlink:href="#DejaVuSans-30"/>
       <use xlink:href="#DejaVuSans-2e" x="63.623047"/>
       <use xlink:href="#DejaVuSans-32" x="95.410156"/>
      </g>
     </g>
    </g>
    <g id="ytick_3">
     <g id="line2d_25">
      <path d="M 57.6 182.1312 
L 360.8064 182.1312 
" clip-path="url(#p49db9856ac)" style="fill: none; stroke: #b0b0b0; stroke-width: 0.8; stroke-linecap: square"/>
     </g>
     <g id="line2d_26">
      <g>
       <use xlink:href="#m433f308854" x="57.6" y="182.1312" style="stroke: #000000; stroke-width: 0.8"/>
      </g>
     </g>
     <g id="text_8">
      <!-- 0.4 -->
      <g transform="translate(25.155 188.20995)scale(0.16 -0.16)">
       <use xlink:href="#DejaVuSans-30"/>
       <use xlink:href="#DejaVuSans-2e" x="63.623047"/>
       <use xlink:href="#DejaVuSans-34" x="95.410156"/>
      </g>
     </g>
    </g>
    <g id="ytick_4">
     <g id="line2d_27">
      <path d="M 57.6 123.7248 
L 360.8064 123.7248 
" clip-path="url(#p49db9856ac)" style="fill: none; stroke: #b0b0b0; stroke-width: 0.8; stroke-linecap: square"/>
     </g>
     <g id="line2d_28">
      <g>
       <use xlink:href="#m433f308854" x="57.6" y="123.7248" style="stroke: #000000; stroke-width: 0.8"/>
      </g>
     </g>
     <g id="text_9">
      <!-- 0.6 -->
      <g transform="translate(25.155 129.80355)scale(0.16 -0.16)">
       <use xlink:href="#DejaVuSans-30"/>
       <use xlink:href="#DejaVuSans-2e" x="63.623047"/>
       <use xlink:href="#DejaVuSans-36" x="95.410156"/>
      </g>
     </g>
    </g>
    <g id="ytick_5">
     <g id="line2d_29">
      <path d="M 57.6 65.3184 
L 360.8064 65.3184 
" clip-path="url(#p49db9856ac)" style="fill: none; stroke: #b0b0b0; stroke-width: 0.8; stroke-linecap: square"/>
     </g>
     <g id="line2d_30">
      <g>
       <use xlink:href="#m433f308854" x="57.6" y="65.3184" style="stroke: #000000; stroke-width: 0.8"/>
      </g>
     </g>
     <g id="text_10">
      <!-- 0.8 -->
      <g transform="translate(25.155 71.39715)scale(0.16 -0.16)">
       <defs>
        <path id="DejaVuSans-38" d="M 2034 2216 
Q 1584 2216 1326 1975 
Q 1069 1734 1069 1313 
Q 1069 891 1326 650 
Q 1584 409 2034 409 
Q 2484 409 2743 651 
Q 3003 894 3003 1313 
Q 3003 1734 2745 1975 
Q 2488 2216 2034 2216 
z
M 1403 2484 
Q 997 2584 770 2862 
Q 544 3141 544 3541 
Q 544 4100 942 4425 
Q 1341 4750 2034 4750 
Q 2731 4750 3128 4425 
Q 3525 4100 3525 3541 
Q 3525 3141 3298 2862 
Q 3072 2584 2669 2484 
Q 3125 2378 3379 2068 
Q 3634 1759 3634 1313 
Q 3634 634 3220 271 
Q 2806 -91 2034 -91 
Q 1263 -91 848 271 
Q 434 634 434 1313 
Q 434 1759 690 2068 
Q 947 2378 1403 2484 
z
M 1172 3481 
Q 1172 3119 1398 2916 
Q 1625 2713 2034 2713 
Q 2441 2713 2670 2916 
Q 2900 3119 2900 3481 
Q 2900 3844 2670 4047 
Q 2441 4250 2034 4250 
Q 1625 4250 1398 4047 
Q 1172 3844 1172 3481 
z
" transform="scale(0.015625)"/>
       </defs>
       <use xlink:href="#DejaVuSans-30"/>
       <use xlink:href="#DejaVuSans-2e" x="63.623047"/>
       <use xlink:href="#DejaVuSans-38" x="95.410156"/>
      </g>
     </g>
    </g>
    <g id="ytick_6">
     <g id="line2d_31">
      <path d="M 57.6 6.912 
L 360.8064 6.912 
" clip-path="url(#p49db9856ac)" style="fill: none; stroke: #b0b0b0; stroke-width: 0.8; stroke-linecap: square"/>
     </g>
     <g id="line2d_32">
      <g>
       <use xlink:href="#m433f308854" x="57.6" y="6.912" style="stroke: #000000; stroke-width: 0.8"/>
      </g>
     </g>
     <g id="text_11">
      <!-- 1.0 -->
      <g transform="translate(25.155 12.99075)scale(0.16 -0.16)">
       <use xlink:href="#DejaVuSans-31"/>
       <use xlink:href="#DejaVuSans-2e" x="63.623047"/>
       <use xlink:href="#DejaVuSans-30" x="95.410156"/>
      </g>
     </g>
    </g>
    <g id="text_12">
     <!-- Fraction of function,target pairs -->
     <g transform="translate(17.619531 287.313)rotate(-90)scale(0.17 -0.17)">
      <defs>
       <path id="DejaVuSans-46" d="M 628 4666 
L 3309 4666 
L 3309 4134 
L 1259 4134 
L 1259 2759 
L 3109 2759 
L 3109 2228 
L 1259 2228 
L 1259 0 
L 628 0 
L 628 4666 
z
" transform="scale(0.015625)"/>
       <path id="DejaVuSans-72" d="M 2631 2963 
Q 2534 3019 2420 3045 
Q 2306 3072 2169 3072 
Q 1681 3072 1420 2755 
Q 1159 2438 1159 1844 
L 1159 0 
L 581 0 
L 581 3500 
L 1159 3500 
L 1159 2956 
Q 1341 3275 1631 3429 
Q 1922 3584 2338 3584 
Q 2397 3584 2469 3576 
Q 2541 3569 2628 3553 
L 2631 2963 
z
" transform="scale(0.015625)"/>
       <path id="DejaVuSans-63" d="M 3122 3366 
L 3122 2828 
Q 2878 2963 2633 3030 
Q 2388 3097 2138 3097 
Q 1578 3097 1268 2742 
Q 959 2388 959 1747 
Q 959 1106 1268 751 
Q 1578 397 2138 397 
Q 2388 397 2633 464 
Q 2878 531 3122 666 
L 3122 134 
Q 2881 22 2623 -34 
Q 2366 -91 2075 -91 
Q 1284 -91 818 406 
Q 353 903 353 1747 
Q 353 2603 823 3093 
Q 1294 3584 2113 3584 
Q 2378 3584 2631 3529 
Q 2884 3475 3122 3366 
z
" transform="scale(0.015625)"/>
       <path id="DejaVuSans-74" d="M 1172 4494 
L 1172 3500 
L 2356 3500 
L 2356 3053 
L 1172 3053 
L 1172 1153 
Q 1172 725 1289 603 
Q 1406 481 1766 481 
L 2356 481 
L 2356 0 
L 1766 0 
Q 1100 0 847 248 
Q 594 497 594 1153 
L 594 3053 
L 172 3053 
L 172 3500 
L 594 3500 
L 594 4494 
L 1172 4494 
z
" transform="scale(0.015625)"/>
       <path id="DejaVuSans-75" d="M 544 1381 
L 544 3500 
L 1119 3500 
L 1119 1403 
Q 1119 906 1312 657 
Q 1506 409 1894 409 
Q 2359 409 2629 706 
Q 2900 1003 2900 1516 
L 2900 3500 
L 3475 3500 
L 3475 0 
L 2900 0 
L 2900 538 
Q 2691 219 2414 64 
Q 2138 -91 1772 -91 
Q 1169 -91 856 284 
Q 544 659 544 1381 
z
M 1991 3584 
L 1991 3584 
z
" transform="scale(0.015625)"/>
       <path id="DejaVuSans-2c" d="M 750 794 
L 1409 794 
L 1409 256 
L 897 -744 
L 494 -744 
L 750 256 
L 750 794 
z
" transform="scale(0.015625)"/>
       <path id="DejaVuSans-70" d="M 1159 525 
L 1159 -1331 
L 581 -1331 
L 581 3500 
L 1159 3500 
L 1159 2969 
Q 1341 3281 1617 3432 
Q 1894 3584 2278 3584 
Q 2916 3584 3314 3078 
Q 3713 2572 3713 1747 
Q 3713 922 3314 415 
Q 2916 -91 2278 -91 
Q 1894 -91 1617 61 
Q 1341 213 1159 525 
z
M 3116 1747 
Q 3116 2381 2855 2742 
Q 2594 3103 2138 3103 
Q 1681 3103 1420 2742 
Q 1159 2381 1159 1747 
Q 1159 1113 1420 752 
Q 1681 391 2138 391 
Q 2594 391 2855 752 
Q 3116 1113 3116 1747 
z
" transform="scale(0.015625)"/>
      </defs>
      <use xlink:href="#DejaVuSans-46"/>
      <use xlink:href="#DejaVuSans-72" x="50.269531"/>
      <use xlink:href="#DejaVuSans-61" x="91.382812"/>
      <use xlink:href="#DejaVuSans-63" x="152.662109"/>
      <use xlink:href="#DejaVuSans-74" x="207.642578"/>
      <use xlink:href="#DejaVuSans-69" x="246.851562"/>
      <use xlink:href="#DejaVuSans-6f" x="274.634766"/>
      <use xlink:href="#DejaVuSans-6e" x="335.816406"/>
      <use xlink:href="#DejaVuSans-20" x="399.195312"/>
      <use xlink:href="#DejaVuSans-6f" x="430.982422"/>
      <use xlink:href="#DejaVuSans-66" x="492.164062"/>
      <use xlink:href="#DejaVuSans-20" x="527.369141"/>
      <use xlink:href="#DejaVuSans-66" x="559.15625"/>
      <use xlink:href="#DejaVuSans-75" x="594.361328"/>
      <use xlink:href="#DejaVuSans-6e" x="657.740234"/>
      <use xlink:href="#DejaVuSans-63" x="721.119141"/>
      <use xlink:href="#DejaVuSans-74" x="776.099609"/>
      <use xlink:href="#DejaVuSans-69" x="815.308594"/>
      <use xlink:href="#DejaVuSans-6f" x="843.091797"/>
      <use xlink:href="#DejaVuSans-6e" x="904.273438"/>
      <use xlink:href="#DejaVuSans-2c" x="967.652344"/>
      <use xlink:href="#DejaVuSans-74" x="999.439453"/>
      <use xlink:href="#DejaVuSans-61" x="1038.648438"/>
      <use xlink:href="#DejaVuSans-72" x="1099.927734"/>
      <use xlink:href="#DejaVuSans-67" x="1139.291016"/>
      <use xlink:href="#DejaVuSans-65" x="1202.767578"/>
      <use xlink:href="#DejaVuSans-74" x="1264.291016"/>
      <use xlink:href="#DejaVuSans-20" x="1303.5"/>
      <use xlink:href="#DejaVuSans-70" x="1335.287109"/>
      <use xlink:href="#DejaVuSans-61" x="1398.763672"/>
      <use xlink:href="#DejaVuSans-69" x="1460.042969"/>
      <use xlink:href="#DejaVuSans-72" x="1487.826172"/>
      <use xlink:href="#DejaVuSans-73" x="1528.939453"/>
     </g>
    </g>
   </g>
   <g id="line2d_33">
    <defs>
     <path id="maaf644d786" d="M 0 1.5 
C 0.397805 1.5 0.77937 1.341951 1.06066 1.06066 
C 1.341951 0.77937 1.5 0.397805 1.5 0 
C 1.5 -0.397805 1.341951 -0.77937 1.06066 -1.06066 
C 0.77937 -1.341951 0.397805 -1.5 0 -1.5 
C -0.397805 -1.5 -0.77937 -1.341951 -1.06066 -1.06066 
C -1.341951 -0.77937 -1.5 -0.397805 -1.5 0 
C -1.5 0.397805 -1.341951 0.77937 -1.06066 1.06066 
C -0.77937 1.341951 -0.397805 1.5 0 1.5 
z
" style="stroke: #f5deb3"/>
    </defs>
    <g>
     <use xlink:href="#maaf644d786" x="163.899064" y="6.912" style="fill: #f5deb3; stroke: #f5deb3"/>
     <use xlink:href="#maaf644d786" x="163.899064" y="6.912" style="fill: #f5deb3; stroke: #f5deb3"/>
    </g>
   </g>
   <g id="line2d_34">
    <defs>
     <path id="mf51095f646" d="M 0 1.5 
C 0.397805 1.5 0.77937 1.341951 1.06066 1.06066 
C 1.341951 0.77937 1.5 0.397805 1.5 0 
C 1.5 -0.397805 1.341951 -0.77937 1.06066 -1.06066 
C 0.77937 -1.341951 0.397805 -1.5 0 -1.5 
C -0.397805 -1.5 -0.77937 -1.341951 -1.06066 -1.06066 
C -1.341951 -0.77937 -1.5 -0.397805 -1.5 0 
C -1.5 0.397805 -1.341951 0.77937 -1.06066 1.06066 
C -0.77937 1.341951 -0.397805 1.5 0 1.5 
z
" style="stroke: #000080"/>
    </defs>
    <g>
     <use xlink:href="#mf51095f646" x="267.413105" y="6.912" style="fill: #000080; stroke: #000080"/>
     <use xlink:href="#mf51095f646" x="267.413105" y="6.912" style="fill: #000080; stroke: #000080"/>
    </g>
   </g>
   <g id="line2d_35">
    <path d="M 44.560826 298.944 
L 44.560826 284.972273 
L 57.6 284.972273 
L 57.6 282.544399 
L 65.227428 282.544399 
L 65.227428 280.849468 
L 70.639174 280.849468 
L 70.639174 280.070716 
L 74.836851 280.070716 
L 74.836851 278.788066 
L 78.266603 278.788066 
L 78.266603 278.009314 
L 81.166416 278.009314 
L 81.166416 277.047326 
L 83.678349 277.047326 
L 83.678349 273.779622 
L 85.894031 273.779622 
L 85.894031 272.237387 
L 87.876026 272.237387 
L 87.876026 271.122703 
L 89.668958 271.122703 
L 89.668958 270.81731 
L 91.305777 270.81731 
L 91.305777 270.328681 
L 92.811505 270.328681 
L 92.811505 269.381963 
L 94.205591 269.381963 
L 94.205591 264.175014 
L 95.503454 264.175014 
L 95.503454 260.43395 
L 96.717523 260.43395 
L 96.717523 259.624659 
L 97.857967 259.624659 
L 97.857967 252.585352 
L 98.933205 252.585352 
L 98.933205 252.264689 
L 99.950294 252.264689 
L 99.950294 252.127262 
L 100.9152 252.127262 
L 100.9152 251.760791 
L 101.833019 251.760791 
L 101.833019 248.477816 
L 102.708132 248.477816 
L 102.708132 247.47002 
L 103.544339 247.47002 
L 103.544339 245.118494 
L 104.344952 245.118494 
L 104.344952 243.301406 
L 105.112877 243.301406 
L 105.112877 242.934935 
L 105.850679 242.934935 
L 105.850679 240.96515 
L 106.560633 240.96515 
L 106.560633 236.750728 
L 107.244765 236.750728 
L 107.244765 233.803686 
L 107.904887 233.803686 
L 107.904887 233.62045 
L 108.542628 233.62045 
L 108.542628 233.16236 
L 109.159456 233.16236 
L 109.159456 232.719541 
L 109.756698 232.719541 
L 109.756698 229.818308 
L 110.335561 229.818308 
L 110.335561 229.009016 
L 110.897141 229.009016 
L 110.897141 226.199401 
L 111.442442 226.199401 
L 111.442442 225.359571 
L 112.487797 225.283223 
L 112.487797 224.870942 
L 112.989468 224.870942 
L 112.989468 224.275426 
L 113.478107 224.275426 
L 113.478107 222.824809 
L 113.954374 222.824809 
L 113.954374 222.580495 
L 114.418881 222.580495 
L 114.418881 221.710125 
L 114.872193 221.710125 
L 114.872193 220.564902 
L 115.314838 220.564902 
L 115.314838 220.396936 
L 115.747307 220.396936 
L 115.747307 220.18316 
L 116.170056 220.18316 
L 116.170056 219.541835 
L 116.583514 219.541835 
L 116.583514 218.839432 
L 116.988079 218.839432 
L 116.988079 218.442421 
L 117.384126 218.442421 
L 117.384126 217.984331 
L 117.772007 217.984331 
L 117.772007 217.678938 
L 118.152051 217.678938 
L 118.152051 217.449894 
L 118.524569 217.449894 
L 118.524569 217.129231 
L 118.889854 217.129231 
L 118.889854 216.136704 
L 119.24818 216.136704 
L 119.24818 215.144177 
L 119.599808 215.144177 
L 119.599808 214.884593 
L 119.944983 214.884593 
L 119.944983 214.59447 
L 120.28394 214.59447 
L 120.28394 213.830987 
L 120.616896 213.830987 
L 120.616896 213.28128 
L 120.944062 213.28128 
L 120.944062 212.83846 
L 121.265635 212.83846 
L 121.265635 211.98336 
L 121.581803 211.98336 
L 121.581803 211.708506 
L 121.892744 211.708506 
L 121.892744 211.418383 
L 122.499621 211.387844 
L 122.499621 208.792004 
L 122.795872 208.792004 
L 122.795872 208.196488 
L 123.08753 208.196488 
L 123.08753 208.043791 
L 123.374735 208.043791 
L 123.374735 207.616241 
L 123.657621 207.616241 
L 123.657621 207.081803 
L 123.936316 207.081803 
L 123.936316 206.745871 
L 124.210942 206.745871 
L 124.210942 206.104546 
L 124.481616 206.104546 
L 124.481616 205.49376 
L 124.748451 205.49376 
L 124.748451 205.325794 
L 125.271028 205.264715 
L 125.271028 205.05094 
L 125.526971 205.05094 
L 125.526971 204.60812 
L 125.779479 204.60812 
L 125.779479 204.302728 
L 126.028642 204.302728 
L 126.028642 203.875177 
L 126.274549 203.875177 
L 126.274549 203.32547 
L 126.517282 203.32547 
L 126.517282 202.928459 
L 126.756923 202.928459 
L 126.756923 202.729954 
L 126.993549 202.729954 
L 126.993549 202.516179 
L 127.227236 202.516179 
L 127.227236 201.737427 
L 127.458055 201.737427 
L 127.458055 201.370955 
L 127.686077 201.370955 
L 127.686077 201.18772 
L 127.911368 201.18772 
L 127.911368 200.515855 
L 128.133992 200.515855 
L 128.133992 200.271541 
L 128.354013 200.271541 
L 128.354013 200.073035 
L 128.57149 200.073035 
L 128.57149 199.798182 
L 128.786481 199.798182 
L 128.786481 199.263744 
L 128.999044 199.263744 
L 128.999044 198.530801 
L 129.417095 198.439183 
L 129.417095 198.011633 
L 129.826058 197.935285 
L 129.826058 197.538274 
L 130.027253 197.538274 
L 130.027253 194.972973 
L 130.226319 194.972973 
L 130.226319 194.835546 
L 130.4233 194.835546 
L 130.4233 194.484344 
L 130.618241 194.484344 
L 130.618241 194.285839 
L 130.811181 194.285839 
L 130.811181 193.720862 
L 131.002163 193.720862 
L 131.002163 193.094807 
L 131.191226 193.094807 
L 131.191226 192.972649 
L 131.378407 192.972649 
L 131.378407 192.270246 
L 131.563744 192.270246 
L 131.563744 191.949583 
L 131.747272 191.949583 
L 131.747272 191.522033 
L 131.929028 191.522033 
L 131.929028 191.140292 
L 132.109044 191.140292 
L 132.109044 190.865438 
L 132.287354 190.865438 
L 132.287354 190.422618 
L 132.46399 190.422618 
L 132.46399 190.193574 
L 132.638982 190.193574 
L 132.638982 189.91872 
L 132.812362 189.91872 
L 132.812362 189.536979 
L 132.984158 189.536979 
L 132.984158 188.666609 
L 133.154399 188.666609 
L 133.154399 188.422295 
L 133.323114 188.422295 
L 133.323114 187.506116 
L 133.490329 187.506116 
L 133.490329 186.941139 
L 133.656071 186.941139 
L 133.656071 186.559398 
L 133.820365 186.559398 
L 133.820365 186.238735 
L 133.983236 186.238735 
L 133.983236 185.826455 
L 134.14471 185.826455 
L 134.14471 185.414174 
L 134.304809 185.414174 
L 134.304809 185.15459 
L 134.463557 185.15459 
L 134.463557 184.650692 
L 134.620977 184.650692 
L 134.620977 184.513265 
L 134.77709 184.513265 
L 134.77709 184.223142 
L 134.931919 184.223142 
L 134.931919 183.963558 
L 135.085483 183.963558 
L 135.085483 183.597086 
L 135.237805 183.597086 
L 135.237805 183.184806 
L 135.388902 183.184806 
L 135.388902 182.482402 
L 135.538796 182.482402 
L 135.538796 182.100661 
L 135.687504 182.100661 
L 135.687504 181.963234 
L 135.835047 181.963234 
L 135.835047 181.215021 
L 135.981441 181.215021 
L 135.981441 180.81801 
L 136.126705 180.81801 
L 136.126705 180.482078 
L 136.270855 180.482078 
L 136.270855 180.253033 
L 136.413909 180.253033 
L 136.413909 180.085067 
L 136.555884 180.085067 
L 136.555884 179.733865 
L 136.696795 179.733865 
L 136.696795 179.443742 
L 136.836659 179.443742 
L 136.836659 178.832956 
L 136.97549 178.832956 
L 136.97549 178.542833 
L 137.113304 178.542833 
L 137.113304 177.3518 
L 137.250116 177.3518 
L 137.250116 177.199104 
L 137.520791 177.122756 
L 137.520791 176.802093 
L 137.654681 176.802093 
L 137.654681 176.542509 
L 137.787626 176.542509 
L 137.787626 176.176038 
L 137.919637 176.176038 
L 137.919637 175.794296 
L 138.050729 175.794296 
L 138.050729 175.473634 
L 138.180913 175.473634 
L 138.180913 175.305668 
L 138.310202 175.305668 
L 138.310202 174.939196 
L 138.438609 174.939196 
L 138.438609 174.801769 
L 138.566146 174.801769 
L 138.566146 174.511646 
L 138.818654 174.420028 
L 138.818654 174.053557 
L 138.943648 174.053557 
L 138.943648 173.778703 
L 139.067817 173.778703 
L 139.067817 173.610737 
L 139.191172 173.610737 
L 139.191172 173.290074 
L 139.313723 173.290074 
L 139.313723 173.091569 
L 139.435481 173.091569 
L 139.435481 172.755637 
L 139.556456 172.755637 
L 139.556456 172.450244 
L 139.676658 172.450244 
L 139.676658 172.297547 
L 139.796097 172.297547 
L 139.796097 171.778379 
L 139.914782 171.778379 
L 139.914782 171.121784 
L 140.032723 171.121784 
L 140.032723 170.8622 
L 140.14993 170.8622 
L 140.14993 170.510999 
L 140.26641 170.510999 
L 140.26641 169.946022 
L 140.382174 169.946022 
L 140.382174 169.487932 
L 140.49723 169.487932 
L 140.49723 169.197809 
L 140.611586 169.197809 
L 140.611586 168.373248 
L 140.725251 168.373248 
L 140.725251 168.144203 
L 140.838234 168.144203 
L 140.838234 167.823541 
L 140.950542 167.823541 
L 140.950542 167.472339 
L 141.062184 167.472339 
L 141.173167 166.831014 
L 141.283499 166.831014 
L 141.393187 166.036992 
L 141.50224 166.036992 
L 141.610664 165.288779 
L 141.718467 165.288779 
L 141.825656 164.418409 
L 141.932237 164.418409 
L 142.038218 161.532446 
L 142.143605 161.532446 
L 142.248405 161.059087 
L 142.45627 160.982739 
L 142.559347 160.49411 
L 142.661862 160.49411 
L 142.763822 159.440504 
L 142.865233 159.440504 
L 142.966099 159.074033 
L 143.066428 159.074033 
L 143.166224 157.501259 
L 143.265494 157.501259 
L 143.364242 157.119518 
L 143.462475 157.119518 
L 143.560197 156.630889 
L 143.657415 156.630889 
L 143.754133 155.424587 
L 143.850356 155.424587 
L 143.946089 154.523678 
L 144.041338 154.523678 
L 144.136106 153.56169 
L 144.2304 153.56169 
L 144.324223 152.844017 
L 144.417581 152.844017 
L 144.510478 151.011659 
L 144.602918 151.011659 
L 144.694906 150.064941 
L 144.877544 149.958054 
L 144.968202 149.591582 
L 145.058426 149.591582 
L 145.148219 148.904448 
L 145.326529 148.8281 
L 145.415054 148.537976 
L 145.503164 148.537976 
L 145.590864 147.713416 
L 145.678157 147.713416 
L 145.765046 147.07209 
L 145.851536 147.07209 
L 145.93763 146.781967 
L 146.023332 146.781967 
L 146.108646 145.682552 
L 146.27812 145.636744 
L 146.362288 144.888531 
L 146.446082 144.888531 
L 146.529503 144.598408 
L 146.612557 144.598408 
L 146.695245 143.850195 
L 146.777571 143.850195 
L 146.859539 143.147791 
L 147.022411 143.040904 
L 147.103321 142.521736 
L 147.183884 142.521736 
L 147.264104 141.941489 
L 147.343984 141.941489 
L 147.423525 141.193276 
L 147.581606 141.086389 
L 147.660152 140.567221 
L 147.73837 140.567221 
L 147.816265 140.109131 
L 147.971093 140.048053 
L 148.048032 139.544154 
L 148.124658 139.544154 
L 148.200973 138.88756 
L 148.276979 138.88756 
L 148.352679 138.307313 
L 148.428077 138.307313 
L 148.503173 138.078268 
L 148.57797 138.078268 
L 148.652472 137.467482 
L 148.726679 137.467482 
L 148.800595 137.11628 
L 148.947561 137.039932 
L 149.020615 136.856696 
L 149.093387 136.856696 
L 149.165879 136.444416 
L 149.238092 136.444416 
L 149.31003 136.047405 
L 149.381693 136.047405 
L 149.453084 135.772552 
L 149.595059 135.757282 
L 149.665646 135.115957 
L 149.73597 135.115957 
L 149.806031 134.703676 
L 149.875833 134.703676 
L 149.945377 134.398283 
L 150.014665 134.398283 
L 150.083698 133.909655 
L 150.152479 133.909655 
L 150.221009 133.25306 
L 150.289291 133.25306 
L 150.357325 133.039285 
L 150.492661 132.962936 
L 150.559965 132.672813 
L 150.62703 132.672813 
L 150.693856 132.291072 
L 150.760445 132.291072 
L 150.8268 131.481781 
L 150.892922 131.481781 
L 150.958812 131.054231 
L 151.089903 131.038961 
L 151.155108 130.519793 
L 151.284843 130.412905 
L 151.349377 129.78685 
L 151.41369 129.78685 
L 151.477784 129.573075 
L 151.54166 129.573075 
L 151.60532 129.084446 
L 151.668766 129.084446 
L 151.731998 128.885941 
L 151.795018 128.885941 
L 151.857828 128.5042 
L 151.982822 128.5042 
L 152.045009 128.091919 
L 152.16877 128.03084 
L 152.230346 127.60329 
L 152.352898 127.572751 
L 152.413875 127.252088 
L 152.53524 127.17574 
L 152.595631 126.839808 
L 152.715833 126.73292 
L 152.775647 126.549685 
L 152.894708 126.503876 
L 152.953957 125.816742 
L 153.01302 125.816742 
L 153.071898 125.404461 
L 153.130592 125.404461 
L 153.189104 125.00745 
L 153.247435 125.00745 
L 153.305585 124.473013 
L 153.421349 124.366125 
L 153.478964 123.816418 
L 153.593669 123.7248 
L 153.650761 123.495755 
L 153.707679 123.495755 
L 153.764426 123.28198 
L 153.821002 123.28198 
L 153.877408 122.152026 
L 153.989717 122.090948 
L 154.04562 121.892442 
L 154.101358 121.892442 
L 154.212341 121.55651 
L 154.267588 121.55651 
L 154.377597 121.220578 
L 154.432362 121.220578 
L 154.541415 120.319669 
L 154.595705 120.319669 
L 154.703817 119.861579 
L 154.811312 119.769961 
L 154.918196 119.40349 
L 155.024477 119.357681 
L 155.13016 119.021749 
L 155.18278 119.021749 
L 155.28758 118.395693 
L 155.339761 118.395693 
L 155.443693 118.0903 
L 155.547053 118.044491 
L 155.649849 117.693289 
L 155.752086 117.586402 
L 155.85377 116.624414 
L 155.954908 116.517527 
L 156.055505 116.212134 
L 156.155566 116.120516 
L 156.255099 115.525 
L 156.354107 115.418112 
L 156.452597 114.807326 
L 156.501649 114.807326 
L 156.599372 114.150731 
L 156.648044 114.150731 
L 156.745011 113.280361 
L 156.793307 113.280361 
L 156.88953 112.47107 
L 156.985263 112.409992 
L 157.080512 111.554891 
L 157.127956 111.554891 
L 157.222487 110.837218 
L 157.269574 110.837218 
L 157.363398 110.211162 
L 157.456756 110.104275 
L 157.549652 109.661455 
L 157.595929 109.661455 
L 157.688143 108.791085 
L 157.734081 108.791085 
L 157.825621 108.378805 
L 157.871225 108.378805 
L 157.962102 107.890176 
L 158.052543 107.813828 
L 158.14255 106.790761 
L 158.187393 106.790761 
L 158.276759 106.378481 
L 158.365703 106.317402 
L 158.454228 105.752425 
L 158.498335 105.752425 
L 158.58624 105.401224 
L 158.673735 105.355415 
L 158.760826 104.744629 
L 158.804221 104.744629 
L 158.890711 104.393427 
L 158.933807 104.393427 
L 159.019705 104.057495 
L 159.062507 104.057495 
L 159.14782 103.4009 
L 159.232748 103.37036 
L 159.317295 103.034428 
L 159.359426 103.034428 
L 159.443406 102.499991 
L 159.485256 102.499991 
L 159.568678 102.10298 
L 159.61025 102.10298 
L 159.693121 101.812856 
L 159.775628 101.751778 
L 159.857774 101.263149 
L 159.980326 101.156262 
L 160.061585 100.911947 
L 160.102084 100.911947 
L 160.18282 100.37751 
L 160.303279 100.270622 
L 160.383158 99.873611 
L 160.422971 99.873611 
L 160.502345 99.50714 
L 160.620781 99.400252 
L 160.699326 99.125399 
L 160.777545 99.125399 
L 160.855439 98.804736 
L 160.97168 98.713118 
L 161.048777 98.148141 
L 161.125559 98.102332 
L 161.202028 97.934366 
L 161.278189 97.888557 
L 161.354042 97.476277 
L 161.467251 97.369389 
L 161.542347 97.216693 
L 161.617145 97.186153 
L 161.691646 96.972378 
L 161.802848 96.89603 
L 161.913396 96.560098 
L 161.986735 96.529559 
L 162.096211 96.086739 
L 162.205054 95.979851 
L 162.31327 95.720267 
L 162.38507 95.628649 
L 162.492258 95.338526 
L 162.56338 95.277448 
L 162.66956 94.804088 
L 162.775144 94.72774 
L 162.880139 94.010067 
L 162.984551 93.933719 
L 163.088387 93.735213 
L 163.122872 93.735213 
L 163.22595 93.475629 
L 163.260183 93.475629 
L 163.362513 92.925922 
L 163.464289 92.849574 
L 163.565517 92.528911 
L 163.666204 92.422024 
L 163.766354 92.070822 
L 163.899064 91.963934 
L 163.997986 91.765429 
L 164.09639 91.70435 
L 164.194282 91.337879 
L 164.324018 91.230991 
L 164.388551 91.032486 
L 164.548924 90.925598 
L 164.644495 90.498048 
L 164.676244 90.498048 
L 164.771172 90.177385 
L 164.834193 90.101037 
L 164.928329 89.749835 
L 164.990826 89.642948 
L 165.084184 89.429173 
L 165.17708 89.322285 
L 165.269521 88.955814 
L 165.361509 88.848926 
L 165.45305 88.635151 
L 165.51383 88.589342 
L 165.604634 88.146522 
L 165.695002 88.070174 
L 165.784938 87.948017 
L 165.874446 87.841129 
L 165.96353 87.764781 
L 166.052194 87.657894 
L 166.140442 87.474658 
L 166.228279 87.39831 
L 166.315707 87.184535 
L 166.460523 87.077647 
L 166.546881 86.909681 
L 166.604233 86.879142 
L 166.689935 86.741715 
L 166.775248 86.726445 
L 166.860176 86.52794 
L 166.972821 86.421052 
L 167.056864 86.222547 
L 167.16834 86.192008 
L 167.279159 85.901884 
L 167.361848 85.810266 
L 167.471536 85.565952 
L 167.580589 85.459064 
L 167.689013 85.19948 
L 167.850487 85.092593 
L 167.930707 84.955166 
L 168.221954 84.863548 
L 168.326754 84.603964 
L 168.456938 84.497077 
L 168.534619 84.34438 
L 168.714635 84.252762 
L 168.816733 84.069527 
L 168.867575 84.054257 
L 168.968849 83.626707 
L 169.044448 83.596168 
L 169.144777 83.397662 
L 169.319074 83.290775 
L 169.417952 83.229696 
L 169.565302 83.122808 
L 169.662898 82.863224 
L 169.832482 82.786876 
L 169.928705 82.649449 
L 170.024438 82.557832 
L 170.119687 82.420405 
L 170.214455 82.328787 
L 170.308749 82.145551 
L 170.49593 82.053933 
L 170.588827 81.885967 
L 170.773255 81.77908 
L 170.864796 81.656922 
L 170.93316 81.611113 
L 171.001277 81.519496 
L 171.226568 81.412608 
L 171.315934 81.30572 
L 171.537509 81.229372 
L 171.647326 81.107215 
L 171.756506 81.015597 
L 171.843395 80.90871 
L 172.015979 80.801822 
L 172.101681 80.740744 
L 172.250727 80.649126 
L 172.356469 80.542238 
L 172.649425 80.435351 
L 172.732295 80.313193 
L 173.039848 80.206306 
L 173.141258 80.160497 
L 173.442249 80.053609 
L 173.521707 79.900913 
L 173.991531 79.794025 
L 174.087951 79.702408 
L 174.355328 79.61079 
L 174.431028 79.549711 
L 174.600249 79.442824 
L 174.693607 79.412284 
L 175.007602 79.305397 
L 175.098964 79.259588 
L 175.352444 79.1527 
L 175.352444 79.137431 
L 175.88438 79.030543 
L 175.936756 79.000004 
L 176.162047 78.908386 
L 176.265124 78.816768 
L 176.655103 78.70988 
L 176.655103 78.694611 
L 177.379346 78.602993 
L 177.379346 78.572454 
L 177.810347 78.465566 
L 177.889089 78.435027 
L 178.262532 78.343409 
L 178.370071 78.28233 
L 178.689047 78.175443 
L 178.764203 78.114364 
L 179.427429 78.007477 
L 179.470823 77.946398 
L 179.771814 77.87005 
L 179.856935 77.625736 
L 180.096038 77.518848 
L 180.110009 77.457769 
L 180.497035 77.366152 
L 180.59256 77.137107 
L 180.674054 77.137107 
L 180.768686 76.953871 
L 180.943179 76.923332 
L 181.036471 76.679017 
L 181.195331 76.679017 
L 181.287383 76.052962 
L 181.365929 76.007153 
L 181.470148 75.640681 
L 181.522042 75.610142 
L 181.612513 75.457446 
L 181.932119 75.350558 
L 182.033257 75.228401 
L 182.133854 75.197862 
L 182.221437 74.83139 
L 182.46945 74.724503 
L 182.579998 74.617615 
L 182.641134 74.571806 
L 182.750681 74.342761 
L 182.871656 74.235874 
L 182.943869 74.159526 
L 183.265442 74.052638 
L 183.359677 73.97629 
L 183.58161 73.869402 
L 183.66272 73.808324 
L 183.800956 73.701436 
L 183.881127 73.564009 
L 184.040451 73.457122 
L 184.085726 73.380774 
L 184.288124 73.273886 
L 184.388512 73.243347 
L 184.543614 73.151729 
L 184.620688 72.999032 
L 184.81744 72.999032 
L 184.91505 72.617291 
L 185.087338 72.525673 
L 185.194222 72.22028 
L 185.406185 72.113393 
L 185.427251 72.037045 
L 185.657429 71.960696 
L 185.73008 71.701112 
L 185.966836 71.594225 
L 186.068851 71.456798 
L 186.109503 71.410989 
L 186.210749 71.059787 
L 186.33153 70.968169 
L 186.441569 70.678046 
L 186.471468 70.601698 
L 186.580694 70.49481 
L 186.679442 70.403192 
L 186.748259 70.311575 
L 186.914345 70.204687 
L 187.021036 70.021451 
L 187.098251 69.914564 
L 187.203908 69.609171 
L 187.328014 69.502283 
L 187.413456 69.273239 
L 187.470203 69.181621 
L 187.536192 69.013655 
L 187.760698 68.906767 
L 187.853458 68.79988 
L 187.982557 68.708262 
L 188.083374 68.616644 
L 188.210911 68.540296 
L 188.310515 68.433408 
L 188.70374 68.32652 
L 188.75673 68.265442 
L 188.94103 68.173824 
L 189.036852 67.975319 
L 189.166736 67.868431 
L 189.261418 67.547768 
L 189.347081 67.440881 
L 189.440862 67.272915 
L 189.559547 67.166027 
L 189.660685 67.0286 
L 189.711051 66.982792 
L 189.786347 66.814825 
L 189.944323 66.723208 
L 190.035181 66.570511 
L 190.150186 66.463624 
L 190.256351 66.326197 
L 190.426593 66.234579 
L 190.491043 66.081882 
L 190.595307 65.990264 
L 190.698996 65.73068 
L 190.794205 65.623793 
L 190.904676 65.394748 
L 190.928264 65.3184 
L 191.037952 65.013007 
L 191.100346 64.90612 
L 191.201295 64.661805 
L 191.317107 64.570187 
L 191.424558 64.249525 
L 191.516173 64.142637 
L 191.622496 64.00521 
L 191.73575 63.898323 
L 191.810877 63.837244 
L 191.967672 63.730357 
L 192.07148 63.516582 
L 192.174719 63.409694 
L 192.284707 63.226458 
L 192.328523 63.119571 
L 192.430364 62.921065 
L 192.5821 62.814178 
L 192.682582 62.630942 
L 192.78253 62.539324 
L 192.881949 62.417167 
L 193.093238 62.31028 
L 193.17012 62.203392 
L 193.385111 62.096504 
L 193.460812 62.020156 
L 193.638539 61.913269 
L 193.713228 61.806381 
L 193.915432 61.699494 
L 193.955614 61.623145 
L 194.247683 61.516258 
L 194.346225 61.42464 
L 194.444253 61.317752 
L 194.535287 61.180326 
L 194.754554 61.073438 
L 194.780182 61.042899 
L 195.229378 60.936011 
L 195.310476 60.798584 
L 195.783786 60.691697 
L 195.892734 60.615349 
L 196.811415 60.508461 
L 196.834391 60.477922 
L 197.371981 60.371034 
L 197.47768 60.340495 
L 197.703763 60.233608 
L 197.813069 60.11145 
L 198.067466 60.004563 
L 198.099696 59.943484 
L 198.366153 59.836597 
L 198.413717 59.790788 
L 198.628889 59.69917 
L 198.738153 59.485395 
L 198.800305 59.424316 
L 198.893151 59.134193 
L 198.939403 59.103654 
L 199.031566 58.615025 
L 199.158827 58.553946 
L 199.254972 58.080587 
L 199.310411 57.9737 
L 199.420802 57.332375 
L 199.530549 57.256026 
L 199.624818 56.965903 
L 199.72354 56.889555 
L 199.81195 56.599432 
L 199.880427 56.553623 
L 199.987532 55.927567 
L 200.050536 55.835949 
L 200.142241 55.622174 
L 200.223916 55.515287 
L 200.333855 55.332051 
L 200.466833 55.225163 
L 200.570661 54.93504 
L 200.706654 54.828152 
L 200.804522 54.568568 
L 200.888005 54.461681 
L 200.957293 54.370063 
L 201.030919 54.263176 
L 201.140821 54.06467 
L 201.299953 53.957783 
L 201.381271 53.881434 
L 201.462239 53.774547 
L 201.569658 53.63712 
L 201.703073 53.530232 
L 201.765012 53.408075 
L 201.866327 53.301188 
L 201.9671 53.117952 
L 202.106413 53.011064 
L 202.184325 52.888907 
L 202.343473 52.78202 
L 202.450248 52.659863 
L 202.552185 52.568245 
L 202.628276 52.430818 
L 202.754416 52.3392 
L 202.842213 52.201773 
L 202.962787 52.094886 
L 203.049619 52.049077 
L 203.258844 51.942189 
L 203.279232 51.89638 
L 203.465767 51.789493 
L 203.550314 51.682605 
L 203.833379 51.575718 
L 203.932045 51.46883 
L 204.143413 51.377212 
L 204.252083 51.300864 
L 204.600988 51.193976 
L 204.691938 51.163437 
L 205.34215 51.05655 
L 205.36405 51.02601 
L 206.455291 50.919123 
L 206.54115 50.888584 
L 206.934484 50.781696 
L 207.031546 50.720617 
L 207.207651 50.61373 
L 207.313186 50.445764 
L 207.483427 50.338876 
L 207.584189 50.262528 
L 207.752007 50.15564 
L 207.838556 50.033483 
L 207.896035 49.926596 
L 208.000959 49.74336 
L 208.152538 49.636472 
L 208.246659 49.514315 
L 208.368316 49.407428 
L 208.461366 49.30054 
L 208.630771 49.193653 
L 208.713379 49.132574 
L 208.995171 49.025687 
L 209.100138 48.964608 
L 209.281692 48.85772 
L 209.367394 48.781372 
L 209.560997 48.674485 
L 209.671568 48.598136 
L 209.674469 48.598136 
L 209.772838 48.308013 
L 209.956618 48.201126 
L 210.064895 47.498722 
L 210.101794 47.391834 
L 210.21206 46.765779 
L 210.262735 46.674161 
L 210.372064 45.83433 
L 210.416733 45.742712 
L 210.525174 45.131927 
L 210.539031 45.101387 
L 210.649525 44.414253 
L 210.679798 44.307366 
L 210.775796 43.559153 
L 210.800402 43.452265 
L 210.909376 42.597165 
L 210.914808 42.597165 
L 211.025823 41.986379 
L 211.050105 41.894761 
L 211.154965 40.764808 
L 211.176403 40.688459 
L 211.285889 40.2151 
L 211.349684 40.108213 
L 211.439691 39.909707 
L 211.54766 39.80282 
L 211.641954 39.527966 
L 211.668063 39.466888 
L 211.751369 39.283652 
L 211.888539 39.176764 
L 211.996533 39.085146 
L 212.213215 38.978259 
L 212.241074 38.94772 
L 212.577183 38.840832 
L 212.602026 38.795023 
L 212.843773 38.688136 
L 212.95131 38.596518 
L 213.342025 38.48963 
L 213.403984 38.443821 
L 213.841372 38.336934 
L 213.841372 38.321664 
L 214.097629 38.214776 
L 214.166293 38.168968 
L 214.544007 38.06208 
L 214.651183 37.985732 
L 214.813018 37.878844 
L 214.828464 37.848305 
L 215.023745 37.802496 
L 215.123887 37.283328 
L 215.191076 37.252789 
L 215.29894 36.443497 
L 215.313992 36.367149 
L 215.419019 35.695285 
L 215.463852 35.618936 
L 215.574408 34.59587 
L 215.601946 34.488983 
L 215.711696 33.710231 
L 215.743236 33.618613 
L 215.854256 32.946748 
L 215.860521 32.900939 
L 215.970853 32.397041 
L 216.035088 32.290153 
L 216.138233 31.98476 
L 216.175227 31.877873 
L 216.283734 31.496132 
L 216.365214 31.404514 
L 216.430144 31.282357 
L 216.651648 31.175469 
L 216.757449 30.931155 
L 216.949557 30.824267 
L 217.059578 30.763189 
L 217.219528 30.656301 
L 217.219528 30.641032 
L 217.72355 30.534144 
L 217.789619 30.28983 
L 218.11282 30.198212 
L 218.175692 30.106594 
L 218.82881 29.999706 
L 218.873335 29.969167 
L 219.023934 29.877549 
L 219.122498 29.282033 
L 219.143552 29.205685 
L 219.243237 28.350584 
L 219.271124 28.335315 
L 219.373602 27.510754 
L 219.390915 27.464945 
L 219.499628 26.334991 
L 219.518545 26.273912 
L 219.624816 25.708936 
L 219.65385 25.632587 
L 219.759361 25.09815 
L 219.794965 24.991262 
L 219.903058 24.548442 
L 219.956873 24.441555 
L 220.055692 24.19724 
L 220.145683 24.090353 
L 220.203782 23.952926 
L 220.380294 23.846039 
L 220.439311 23.739151 
L 220.88892 23.632264 
L 220.968657 23.586455 
L 221.193285 23.494837 
L 221.278008 23.433758 
L 222.366721 23.34214 
L 222.4772 23.143635 
L 222.589954 23.036747 
L 222.677348 22.655006 
L 222.759998 22.548119 
L 222.86676 22.425961 
L 222.91561 22.334344 
L 223.020067 22.07476 
L 223.102649 21.967872 
L 223.207488 21.845715 
L 223.404249 21.738827 
L 223.421019 21.693018 
L 223.64458 21.586131 
L 223.64458 21.570861 
L 224.569759 21.463974 
L 224.62225 21.433434 
L 225.342152 21.326547 
L 225.445291 21.18912 
L 225.642442 21.082232 
L 225.735308 21.051693 
L 225.930681 20.944806 
L 225.939236 20.914266 
L 227.338645 20.807379 
L 227.338645 20.792109 
L 228.377868 20.685222 
L 228.382161 20.654682 
L 230.94058 20.547795 
L 231.048912 20.425638 
L 231.152921 20.31875 
L 231.255436 19.982818 
L 231.437838 19.87593 
L 231.547888 19.753773 
L 231.850146 19.646886 
L 231.850146 19.631616 
L 232.4966 19.524728 
L 232.602358 19.372032 
L 232.632344 19.265144 
L 232.722014 19.158257 
L 232.818889 19.051369 
L 232.910207 18.852864 
L 232.980928 18.745976 
L 233.088183 18.60855 
L 233.193169 18.501662 
L 233.303355 18.318426 
L 233.384134 18.211539 
L 233.472755 18.16573 
L 233.703016 18.058842 
L 233.704633 18.028303 
L 234.167877 17.921416 
L 234.270161 17.783989 
L 234.462205 17.677101 
L 234.555178 17.600753 
L 234.66307 17.493865 
L 234.767289 17.402248 
L 235.007994 17.29536 
L 235.096062 17.203742 
L 236.106272 17.096855 
L 236.184396 17.020506 
L 236.458796 16.913619 
L 236.568834 16.638765 
L 236.656818 16.531878 
L 236.749207 16.272294 
L 236.837723 16.165406 
L 236.837723 16.150136 
L 237.339592 16.043249 
L 237.380872 16.01271 
L 237.654871 15.905822 
L 237.764667 15.508811 
L 237.805025 15.401924 
L 237.913304 15.050722 
L 237.958505 14.943834 
L 238.055001 14.71479 
L 238.172698 14.607902 
L 238.249062 14.501015 
L 238.922734 14.394127 
L 239.032705 13.997116 
L 239.05888 13.890229 
L 239.160196 13.447409 
L 239.224222 13.340521 
L 239.327052 13.035128 
L 239.365992 12.928241 
L 239.472219 12.760275 
L 239.951655 12.653387 
L 239.951655 12.638118 
L 240.214347 12.53123 
L 240.312487 12.225837 
L 240.389726 12.11895 
L 240.497668 11.935714 
L 240.630751 11.828826 
L 240.735097 11.752478 
L 241.227189 11.645591 
L 241.317501 11.538703 
L 241.533136 11.431816 
L 241.598623 11.340198 
L 241.996719 11.23331 
L 242.022199 11.202771 
L 242.562599 11.095883 
L 242.65126 11.034805 
L 244.040068 10.927917 
L 244.13459 10.851569 
L 244.300136 10.744681 
L 244.371821 10.714142 
L 244.820033 10.607255 
L 244.906268 10.546176 
L 245.085511 10.439288 
L 245.19119 10.36294 
L 245.701883 10.256053 
L 245.769706 10.194974 
L 246.08972 10.088087 
L 246.160333 10.057547 
L 246.706575 9.95066 
L 246.812012 9.92012 
L 246.952481 9.813233 
L 247.036262 9.721615 
L 247.704165 9.614728 
L 247.799584 9.52311 
L 247.946174 9.416222 
L 247.985577 9.370413 
L 248.370685 9.263526 
L 248.427703 9.156638 
L 248.558854 9.049751 
L 248.666113 8.927593 
L 248.840518 8.820706 
L 248.855701 8.790167 
L 249.277005 8.683279 
L 249.363382 8.576392 
L 249.937383 8.469504 
L 250.042174 8.362616 
L 250.271483 8.255729 
L 250.273829 8.22519 
L 251.724204 8.118302 
L 251.787701 8.072493 
L 252.528346 7.965606 
L 252.538748 7.935066 
L 253.21028 7.828179 
L 253.21028 7.812909 
L 254.274764 7.706022 
L 254.311844 7.660213 
L 254.865224 7.553325 
L 254.890412 7.522786 
L 255.832375 7.415898 
L 255.908535 7.385359 
L 257.359097 7.278472 
L 257.359097 7.263202 
L 258.163724 7.156314 
L 258.163724 7.141045 
L 259.828008 7.034157 
L 259.828008 7.018888 
L 360.8064 6.912 
L 360.8064 6.912 
" style="fill: none; stroke: #000080; stroke-width: 1.5; stroke-linecap: square"/>
   </g>
   <g id="line2d_36">
    <defs>
     <path id="mb6d5f7beb5" d="M 0 6 
C 1.591219 6 3.117479 5.367802 4.242641 4.242641 
C 5.367802 3.117479 6 1.591219 6 0 
C 6 -1.591219 5.367802 -3.117479 4.242641 -4.242641 
C 3.117479 -5.367802 1.591219 -6 0 -6 
C -1.591219 -6 -3.117479 -5.367802 -4.242641 -4.242641 
C -5.367802 -3.117479 -6 -1.591219 -6 0 
C -6 1.591219 -5.367802 3.117479 -4.242641 4.242641 
C -3.117479 5.367802 -1.591219 6 0 6 
z
" style="stroke: #000080; stroke-width: 1.5"/>
    </defs>
    <g>
     <use xlink:href="#mb6d5f7beb5" x="102.708132" y="247.47002" style="fill-opacity: 0; stroke: #000080; stroke-width: 1.5"/>
     <use xlink:href="#mb6d5f7beb5" x="162.845206" y="94.498696" style="fill-opacity: 0; stroke: #000080; stroke-width: 1.5"/>
     <use xlink:href="#mb6d5f7beb5" x="236.837723" y="16.165406" style="fill-opacity: 0; stroke: #000080; stroke-width: 1.5"/>
     <use xlink:href="#mb6d5f7beb5" x="267.413105" y="6.912" style="fill-opacity: 0; stroke: #000080; stroke-width: 1.5"/>
     <use xlink:href="#mb6d5f7beb5" x="267.413105" y="6.912" style="fill-opacity: 0; stroke: #000080; stroke-width: 1.5"/>
     <use xlink:href="#mb6d5f7beb5" x="360.8064" y="6.912" style="fill-opacity: 0; stroke: #000080; stroke-width: 1.5"/>
    </g>
   </g>
   <g id="line2d_37">
    <path style="fill: none; stroke: #000080; stroke-width: 1.5; stroke-linecap: square"/>
    <g/>
   </g>
   <g id="line2d_38">
    <path d="M 105.112877 242.934935 
" clip-path="url(#p49db9856ac)" style="fill: none; stroke: #000080; stroke-width: 1.5; stroke-linecap: square"/>
    <defs>
     <path id="m2f498aef49" d="M -12 12 
L 12 -12 
M -12 -12 
L 12 12 
" style="stroke: #000080"/>
    </defs>
    <g clip-path="url(#p49db9856ac)">
     <use xlink:href="#m2f498aef49" x="105.112877" y="242.934935" style="fill: #000080; stroke: #000080"/>
    </g>
   </g>
   <g id="line2d_39">
    <defs>
     <path id="m7fdfb36453" d="M 0 1.5 
C 0.397805 1.5 0.77937 1.341951 1.06066 1.06066 
C 1.341951 0.77937 1.5 0.397805 1.5 0 
C 1.5 -0.397805 1.341951 -0.77937 1.06066 -1.06066 
C 0.77937 -1.341951 0.397805 -1.5 0 -1.5 
C -0.397805 -1.5 -0.77937 -1.341951 -1.06066 -1.06066 
C -1.341951 -0.77937 -1.5 -0.397805 -1.5 0 
C -1.5 0.397805 -1.341951 0.77937 -1.06066 1.06066 
C -0.77937 1.341951 -0.397805 1.5 0 1.5 
z
" style="stroke: #ff00ff"/>
    </defs>
    <g>
     <use xlink:href="#m7fdfb36453" x="281.550666" y="6.912" style="fill: #ff00ff; stroke: #ff00ff"/>
     <use xlink:href="#m7fdfb36453" x="281.550666" y="6.912" style="fill: #ff00ff; stroke: #ff00ff"/>
    </g>
   </g>
   <g id="line2d_40">
    <path d="M 44.560826 298.944 
L 44.560826 284.361487 
L 57.6 284.361487 
L 57.6 282.681826 
L 65.227428 282.681826 
L 65.227428 281.231209 
L 70.639174 281.231209 
L 70.639174 279.551548 
L 74.836851 279.551548 
L 74.836851 278.100932 
L 78.266603 278.100932 
L 78.266603 277.490146 
L 81.166416 277.490146 
L 81.166416 276.650315 
L 83.678349 276.650315 
L 83.678349 275.276047 
L 85.894031 275.276047 
L 85.894031 273.443689 
L 87.876026 273.443689 
L 87.876026 272.069421 
L 89.668958 272.069421 
L 89.668958 271.305939 
L 91.305777 271.305939 
L 91.305777 270.160715 
L 94.205591 270.084367 
L 94.205591 269.320885 
L 95.503454 269.320885 
L 95.503454 265.656169 
L 96.717523 265.656169 
L 96.717523 263.747464 
L 97.857967 263.747464 
L 97.857967 259.548311 
L 98.933205 259.548311 
L 98.933205 259.090221 
L 100.9152 259.013873 
L 100.9152 257.868649 
L 101.833019 257.868649 
L 101.833019 253.135059 
L 102.708132 253.135059 
L 102.708132 246.492762 
L 103.544339 246.492762 
L 103.544339 245.958325 
L 104.344952 245.958325 
L 104.344952 245.423887 
L 105.112877 245.423887 
L 105.112877 241.83552 
L 105.850679 241.83552 
L 105.850679 235.804009 
L 106.560633 235.804009 
L 106.560633 225.573346 
L 107.244765 225.573346 
L 107.244765 222.290372 
L 107.904887 222.290372 
L 107.904887 221.755934 
L 108.542628 221.755934 
L 108.542628 221.450541 
L 110.335561 221.374193 
L 110.335561 220.839755 
L 111.442442 220.839755 
L 111.442442 220.610711 
L 111.97238 220.610711 
L 111.97238 220.458014 
L 112.487797 220.458014 
L 112.487797 217.098692 
L 113.954374 217.098692 
L 113.954374 216.258861 
L 114.418881 216.258861 
L 114.418881 215.113638 
L 114.872193 215.113638 
L 114.872193 214.884593 
L 115.747307 214.884593 
L 115.747307 214.5792 
L 116.170056 214.5792 
L 116.170056 214.426504 
L 116.583514 214.426504 
L 116.583514 214.121111 
L 116.988079 214.121111 
L 116.988079 213.815718 
L 117.384126 213.815718 
L 117.384126 213.586673 
L 117.772007 213.586673 
L 117.772007 212.670494 
L 118.524569 212.670494 
L 118.524569 211.677967 
L 118.889854 211.677967 
L 118.889854 211.067181 
L 119.599808 211.067181 
L 119.599808 210.380047 
L 120.28394 210.380047 
L 120.28394 209.082127 
L 120.616896 209.082127 
L 120.616896 208.471341 
L 120.944062 208.471341 
L 120.944062 208.165948 
L 121.265635 208.165948 
L 121.265635 207.631511 
L 121.581803 207.631511 
L 121.581803 207.249769 
L 122.19863 207.173421 
L 122.19863 206.944376 
L 122.499621 206.944376 
L 122.499621 205.570108 
L 122.795872 205.570108 
L 122.795872 202.134438 
L 123.936316 202.058089 
L 123.936316 201.981741 
L 124.481616 201.905393 
L 124.481616 201.294607 
L 124.748451 201.294607 
L 124.748451 201.065562 
L 125.011554 201.065562 
L 125.011554 200.378428 
L 125.271028 200.378428 
L 125.271028 199.996687 
L 125.526971 199.996687 
L 125.526971 199.767642 
L 125.779479 199.767642 
L 125.779479 199.462249 
L 126.028642 199.462249 
L 126.028642 198.775115 
L 126.517282 198.775115 
L 126.517282 198.393374 
L 126.756923 198.393374 
L 126.756923 197.935285 
L 126.993549 197.935285 
L 126.993549 194.957704 
L 127.227236 194.957704 
L 127.227236 194.652311 
L 127.458055 194.652311 
L 127.458055 194.346918 
L 127.911368 194.270569 
L 127.911368 193.965176 
L 128.133992 193.965176 
L 128.133992 193.278042 
L 128.354013 193.278042 
L 128.354013 192.590908 
L 128.786481 192.590908 
L 128.786481 192.438212 
L 129.417095 192.361864 
L 129.417095 191.21664 
L 129.622688 191.21664 
L 129.622688 190.987595 
L 129.826058 190.987595 
L 129.826058 190.224113 
L 130.027253 190.224113 
L 130.027253 189.995068 
L 130.226319 189.995068 
L 130.226319 189.231586 
L 130.618241 189.155238 
L 130.618241 189.002541 
L 130.811181 189.002541 
L 130.811181 188.697148 
L 131.002163 188.697148 
L 131.002163 188.544452 
L 131.191226 188.544452 
L 131.191226 188.086362 
L 131.378407 188.086362 
L 131.378407 187.475576 
L 131.563744 187.475576 
L 131.563744 187.246532 
L 131.747272 187.246532 
L 131.747272 186.02496 
L 132.109044 186.02496 
L 132.109044 185.337826 
L 132.638982 185.337826 
L 132.638982 184.803388 
L 132.984158 184.72704 
L 132.984158 184.421647 
L 133.154399 184.421647 
L 133.154399 184.192602 
L 133.323114 184.192602 
L 133.323114 183.276424 
L 133.983236 183.200075 
L 133.983236 183.123727 
L 134.14471 183.123727 
L 134.14471 182.818334 
L 134.463557 182.818334 
L 134.463557 182.436593 
L 134.931919 182.360245 
L 134.931919 182.1312 
L 135.085483 182.1312 
L 135.085483 181.749459 
L 135.237805 181.749459 
L 135.237805 181.367718 
L 135.388902 181.367718 
L 135.388902 180.985976 
L 135.835047 180.985976 
L 135.835047 180.604235 
L 135.981441 180.604235 
L 135.981441 180.222494 
L 136.126705 180.222494 
L 136.126705 179.917101 
L 136.270855 179.917101 
L 136.270855 179.764405 
L 136.696795 179.764405 
L 136.696795 179.53536 
L 136.836659 179.53536 
L 136.836659 179.382664 
L 137.113304 179.306315 
L 137.113304 179.000922 
L 137.250116 179.000922 
L 137.250116 178.313788 
L 137.38594 178.313788 
L 137.38594 177.626654 
L 137.520791 177.626654 
L 137.520791 177.168565 
L 137.654681 177.168565 
L 137.654681 176.93952 
L 138.050729 176.93952 
L 138.050729 176.710475 
L 138.310202 176.710475 
L 138.310202 175.946993 
L 138.943648 175.870645 
L 138.943648 175.794296 
L 139.313723 175.717948 
L 139.313723 175.336207 
L 139.556456 175.259859 
L 139.556456 174.649073 
L 139.796097 174.649073 
L 139.796097 173.732894 
L 140.14993 173.732894 
L 140.14993 173.427501 
L 140.382174 173.351153 
L 140.382174 173.274805 
L 140.49723 173.274805 
L 140.49723 173.122108 
L 140.611586 173.122108 
L 140.611586 172.893064 
L 140.725251 172.893064 
L 140.725251 172.358626 
L 140.838234 172.358626 
L 140.838234 171.595144 
L 141.062184 171.518795 
L 141.173167 170.831661 
L 141.283499 170.831661 
L 141.393187 170.373572 
L 141.610664 170.373572 
L 141.718467 169.839134 
L 142.143605 169.762786 
L 142.248405 169.075652 
L 142.45627 168.999304 
L 142.559347 167.930428 
L 142.661862 167.930428 
L 142.763822 167.243294 
L 142.865233 167.243294 
L 142.865233 166.632508 
L 143.265494 166.55616 
L 143.364242 165.487285 
L 143.462475 165.487285 
L 143.462475 165.105544 
L 143.657415 165.105544 
L 143.754133 164.571106 
L 143.850356 164.571106 
L 143.946089 163.502231 
L 144.041338 163.502231 
L 144.136106 163.044141 
L 144.2304 163.044141 
L 144.324223 162.357007 
L 144.510478 162.357007 
L 144.602918 161.898918 
L 144.694906 161.898918 
L 144.786447 161.211784 
L 144.877544 161.211784 
L 144.968202 160.830042 
L 145.058426 160.830042 
L 145.148219 160.219256 
L 145.326529 160.219256 
L 145.415054 159.608471 
L 145.503164 159.608471 
L 145.590864 158.005158 
L 145.765046 157.928809 
L 145.851536 157.012631 
L 145.93763 157.012631 
L 146.023332 156.630889 
L 146.27812 156.554541 
L 146.362288 155.562014 
L 146.446082 155.562014 
L 146.529503 154.87488 
L 146.612557 154.87488 
L 146.695245 153.958701 
L 146.777571 153.958701 
L 146.859539 152.737129 
L 147.022411 152.737129 
L 147.103321 152.27904 
L 147.183884 152.27904 
L 147.264104 151.362861 
L 147.343984 151.362861 
L 147.423525 150.752075 
L 147.502732 150.752075 
L 147.581606 150.293986 
L 147.660152 150.293986 
L 147.73837 149.530504 
L 147.893838 149.530504 
L 147.971093 149.072414 
L 148.124658 148.996066 
L 148.200973 147.621798 
L 148.276979 147.621798 
L 148.276979 147.392753 
L 148.503173 147.316405 
L 148.503173 147.163708 
L 148.726679 147.08736 
L 148.800595 146.552922 
L 148.947561 146.552922 
L 149.020615 145.484047 
L 149.165879 145.484047 
L 149.238092 145.255002 
L 149.31003 145.255002 
L 149.381693 144.949609 
L 149.595059 144.873261 
L 149.665646 144.49152 
L 149.73597 144.49152 
L 149.73597 143.498993 
L 149.945377 143.498993 
L 150.014665 142.506466 
L 150.152479 142.506466 
L 150.221009 141.742984 
L 150.289291 141.742984 
L 150.357325 140.826805 
L 150.425115 140.826805 
L 150.492661 140.521412 
L 150.559965 140.521412 
L 150.559965 140.292367 
L 150.693856 140.292367 
L 150.760445 140.063322 
L 151.155108 139.986974 
L 151.155108 139.605233 
L 151.284843 139.605233 
L 151.284843 139.070795 
L 151.54166 138.994447 
L 151.54166 138.460009 
L 151.668766 138.460009 
L 151.668766 137.238438 
L 151.857828 137.162089 
L 151.920429 136.169562 
L 151.982822 136.169562 
L 152.045009 135.558776 
L 152.16877 135.558776 
L 152.16877 135.253384 
L 152.291722 135.253384 
L 152.352898 134.642598 
L 152.413875 134.642598 
L 152.474656 134.413553 
L 152.715833 134.337205 
L 152.715833 134.260856 
L 152.953957 134.184508 
L 153.01302 133.421026 
L 153.130592 133.344678 
L 153.189104 132.962936 
L 153.247435 132.962936 
L 153.305585 132.428499 
L 153.363556 132.428499 
L 153.421349 131.206927 
L 153.536404 131.206927 
L 153.593669 130.672489 
L 153.764426 130.596141 
L 153.821002 130.061704 
L 153.989717 129.985355 
L 153.989717 129.909007 
L 154.101358 129.909007 
L 154.101358 129.221873 
L 154.267588 129.221873 
L 154.377597 128.229346 
L 154.432362 128.229346 
L 154.486967 127.389515 
L 154.703817 127.389515 
L 154.811312 127.160471 
L 154.918196 127.084122 
L 155.024477 126.549685 
L 155.077392 126.549685 
L 155.18278 125.709854 
L 155.235253 125.709854 
L 155.339761 125.251765 
L 155.391799 125.251765 
L 155.495444 124.488282 
L 155.701037 124.488282 
L 155.802997 123.7248 
L 155.85377 123.7248 
L 155.85377 123.114014 
L 156.005274 123.114014 
L 156.055505 122.274184 
L 156.205398 122.197835 
L 156.304668 121.510701 
L 156.354107 121.510701 
L 156.354107 121.358005 
L 156.501649 121.358005 
L 156.599372 120.212781 
L 156.696589 120.212781 
L 156.793307 118.838513 
L 156.84148 118.838513 
L 156.937458 118.456772 
L 156.985263 118.456772 
L 157.080512 117.2352 
L 157.175281 117.2352 
L 157.269574 115.860932 
L 157.503261 115.860932 
L 157.595929 115.097449 
L 157.734081 115.021101 
L 157.779907 114.410315 
L 157.871225 114.410315 
L 157.916719 113.875878 
L 158.052543 113.875878 
L 158.052543 113.494136 
L 158.187393 113.494136 
L 158.276759 112.959699 
L 158.365703 112.959699 
L 158.365703 112.807002 
L 158.498335 112.807002 
L 158.58624 111.661779 
L 158.760826 111.585431 
L 158.847515 111.050993 
L 159.062507 111.050993 
L 159.14782 109.905769 
L 159.275069 109.829421 
L 159.359426 108.989591 
L 159.485256 108.913242 
L 159.527013 108.684198 
L 159.734419 108.607849 
L 159.816746 107.920715 
L 159.898714 107.920715 
L 159.980326 107.615322 
L 160.020999 107.615322 
L 160.102084 105.55392 
L 160.263211 105.477572 
L 160.303279 105.248527 
L 160.581385 105.172179 
L 160.581385 105.095831 
L 160.777545 105.095831 
L 160.855439 104.332348 
L 160.933013 104.256 
L 160.933013 104.026955 
L 161.202028 103.950607 
L 161.278189 103.339821 
L 161.42959 103.263473 
L 161.42959 103.187125 
L 161.579783 103.187125 
L 161.579783 103.034428 
L 161.839769 102.95808 
L 161.839769 102.805384 
L 162.38507 102.729035 
L 162.38507 102.652687 
L 163.191653 102.576339 
L 163.22595 102.423642 
L 163.699647 102.423642 
L 163.699647 102.194598 
L 163.865975 102.194598 
L 163.899064 101.889205 
L 164.063646 101.889205 
L 164.063646 101.736508 
L 164.291668 101.66016 
L 164.291668 101.583812 
L 164.548924 101.507464 
L 164.644495 100.973026 
L 165.269521 100.896678 
L 165.269521 100.591285 
L 165.45305 100.591285 
L 165.45305 100.285892 
L 165.904188 100.285892 
L 165.904188 100.056847 
L 166.689935 100.056847 
L 166.689935 99.904151 
L 167.056864 99.904151 
L 167.056864 99.598758 
L 168.482867 99.522409 
L 168.586228 99.140668 
L 169.294273 99.06432 
L 169.294273 98.987972 
L 169.417952 98.987972 
L 169.417952 98.835275 
L 170.261661 98.758927 
L 170.261661 98.682579 
L 170.61198 98.682579 
L 170.61198 98.529882 
L 170.978599 98.529882 
L 170.978599 98.300838 
L 171.338209 98.224489 
L 171.338209 98.148141 
L 171.493403 98.148141 
L 171.559524 97.079266 
L 171.951446 97.079266 
L 172.037442 96.850221 
L 172.440637 96.773873 
L 172.461621 96.315784 
L 172.91743 96.239435 
L 172.978738 95.628649 
L 173.201843 95.628649 
L 173.201843 95.475953 
L 173.56131 95.475953 
L 173.640268 95.017864 
L 173.87517 94.941515 
L 173.972187 94.025336 
L 173.991531 94.025336 
L 173.991531 93.87264 
L 174.145567 93.87264 
L 174.145567 93.643595 
L 174.693607 93.643595 
L 174.7494 92.956461 
L 174.989276 92.956461 
L 175.098964 92.498372 
L 175.280369 92.422024 
L 175.388379 91.811238 
L 175.424244 91.811238 
L 175.477915 91.505845 
L 175.549238 91.505845 
L 175.567027 90.742362 
L 175.673408 90.742362 
L 175.761601 90.360621 
L 175.971592 90.360621 
L 175.971592 90.055228 
L 176.144812 90.055228 
L 176.247984 89.749835 
L 176.299358 89.673487 
L 176.401688 89.139049 
L 176.452644 89.139049 
L 176.452644 88.910005 
L 176.62151 88.833656 
L 176.62151 88.757308 
L 176.805529 88.68096 
L 176.855405 87.459388 
L 177.10282 87.459388 
L 177.10282 87.077647 
L 177.282212 87.001299 
L 177.363192 86.237816 
L 177.60406 86.161468 
L 177.699551 85.779727 
L 177.794559 85.779727 
L 177.857632 85.245289 
L 177.920494 85.245289 
L 177.967504 84.7872 
L 178.076737 84.7872 
L 178.076737 84.481807 
L 178.200804 84.481807 
L 178.200804 84.329111 
L 178.370071 84.329111 
L 178.415971 83.412932 
L 178.507438 83.412932 
L 178.613589 82.954842 
L 178.809153 82.954842 
L 178.853996 82.344056 
L 179.07662 82.267708 
L 179.135545 81.809619 
L 179.614753 81.809619 
L 179.614753 81.580574 
L 180.040051 81.580574 
L 180.040051 81.275181 
L 182.787055 81.198833 
L 182.787055 80.969788 
L 184.488367 80.89344 
L 184.488367 80.817092 
L 185.33227 80.817092 
L 185.33227 80.664395 
L 185.79213 80.664395 
L 185.79213 80.435351 
L 186.007709 80.435351 
L 186.007709 80.129958 
L 186.42161 80.129958 
L 186.51126 79.671868 
L 186.57079 79.671868 
L 186.57079 79.366475 
L 186.748259 79.366475 
L 186.855894 78.984734 
L 187.098251 78.984734 
L 187.098251 78.755689 
L 187.695494 78.679341 
L 187.742092 78.144904 
L 187.973365 78.068555 
L 187.973365 77.992207 
L 188.119902 77.992207 
L 188.156358 77.763162 
L 188.274356 77.763162 
L 188.355616 77.381421 
L 188.597309 77.305073 
L 188.659467 76.99968 
L 188.712582 76.99968 
L 188.791974 75.778108 
L 189.123541 75.778108 
L 189.209833 75.472715 
L 189.389767 75.472715 
L 189.491819 74.632885 
L 189.601754 74.556536 
L 189.601754 74.480188 
L 189.719432 74.480188 
L 189.786347 73.945751 
L 190.026939 73.869402 
L 190.117399 73.258616 
L 190.264493 73.258616 
L 190.31327 73.029572 
L 190.434661 73.029572 
L 190.434661 72.571482 
L 190.595307 72.571482 
L 190.698996 71.884348 
L 190.786289 71.884348 
L 190.786289 71.731652 
L 190.967512 71.731652 
L 190.967512 71.426259 
L 191.084767 71.426259 
L 191.147005 70.968169 
L 191.224515 70.968169 
L 191.247706 70.586428 
L 191.363232 70.586428 
L 191.470421 69.135812 
L 191.577002 69.059464 
L 191.577002 68.830419 
L 191.915552 68.754071 
L 192.004812 67.608847 
L 192.137913 67.608847 
L 192.137913 67.227106 
L 192.51722 67.227106 
L 192.62523 66.310927 
L 192.846503 66.234579 
L 192.889031 65.776489 
L 193.058188 65.776489 
L 193.121231 64.936659 
L 193.17012 64.936659 
L 193.17012 64.554918 
L 193.322947 64.554918 
L 193.412674 64.02048 
L 193.658938 63.944132 
L 193.767362 63.027953 
L 193.841543 63.027953 
L 193.841543 62.72256 
L 194.108852 62.72256 
L 194.208122 62.188122 
L 194.333116 62.111774 
L 194.333116 62.035426 
L 194.574168 62.035426 
L 194.574168 61.653685 
L 194.983966 61.577336 
L 195.053509 61.119247 
L 195.391226 61.042899 
L 195.416002 60.813854 
L 197.090955 60.813854 
L 197.090955 60.584809 
L 198.254701 60.508461 
L 198.360861 59.821327 
L 198.476949 59.744979 
L 198.529481 59.210541 
L 198.75371 59.210541 
L 198.75371 58.905148 
L 198.908581 58.905148 
L 198.939403 58.676104 
L 199.12328 58.676104 
L 199.194306 57.988969 
L 199.405787 57.912621 
L 199.405787 57.683576 
L 199.629766 57.683576 
L 199.684113 56.691049 
L 199.777618 56.691049 
L 199.81195 55.851219 
L 199.968104 55.774871 
L 200.021484 55.393129 
L 200.333855 55.316781 
L 200.40521 55.011388 
L 200.514099 55.011388 
L 200.561245 54.171558 
L 200.678598 54.095209 
L 200.678598 53.713468 
L 200.948069 53.63712 
L 200.98954 53.102682 
L 201.085951 53.026334 
L 201.177313 52.720941 
L 201.313531 52.644593 
L 201.399294 51.881111 
L 201.444277 51.881111 
L 201.444277 51.728414 
L 205.682345 51.652066 
L 205.682345 51.423021 
L 206.009449 51.423021 
L 206.009449 51.270325 
L 206.544576 51.193976 
L 206.582223 51.04128 
L 206.809915 51.04128 
L 206.917698 50.735887 
L 207.001477 50.735887 
L 207.001477 50.354146 
L 207.329622 50.277798 
L 207.329622 50.201449 
L 207.493202 50.201449 
L 207.554991 49.819708 
L 207.771274 49.74336 
L 207.848148 49.590664 
L 207.91197 49.514315 
L 207.975576 48.827181 
L 208.349651 48.750833 
L 208.349651 48.674485 
L 209.22533 48.598136 
L 209.22533 48.44544 
L 209.540557 48.369092 
L 209.55224 48.063699 
L 210.044996 47.987351 
L 210.044996 47.529261 
L 210.39162 47.529261 
L 210.39162 47.14752 
L 210.516854 47.14752 
L 210.516854 46.994824 
L 210.759374 46.918475 
L 210.759374 46.231341 
L 210.950079 46.231341 
L 211.01232 45.696904 
L 211.20584 45.620555 
L 211.240569 44.933421 
L 211.378851 44.933421 
L 211.378851 44.475332 
L 211.607958 44.398984 
L 211.613192 44.169939 
L 211.735777 44.169939 
L 211.785107 43.940894 
L 211.896273 43.864546 
L 211.958035 43.25376 
L 212.017034 43.177412 
L 212.017034 43.024715 
L 212.294146 43.024715 
L 212.387292 42.719322 
L 212.554796 42.642974 
L 212.554796 42.566626 
L 212.683778 42.566626 
L 212.740547 42.261233 
L 212.858473 42.261233 
L 212.858473 41.95584 
L 218.450586 41.879492 
L 218.450586 41.574099 
L 220.914473 41.497751 
L 220.914473 40.734268 
L 222.51828 40.734268 
L 222.537322 39.894438 
L 224.526343 39.818089 
L 224.526343 39.589045 
L 225.592725 39.589045 
L 225.592725 39.130955 
L 225.827718 39.130955 
L 225.827718 38.901911 
L 226.396708 38.901911 
L 226.396708 38.749214 
L 226.929296 38.749214 
L 226.929296 38.520169 
L 227.220312 38.520169 
L 227.220312 38.367473 
L 227.342048 38.367473 
L 227.342048 38.06208 
L 227.521502 38.06208 
L 227.521502 37.680339 
L 228.223758 37.603991 
L 228.223758 37.527642 
L 228.438947 37.527642 
L 228.438947 37.298598 
L 228.611463 37.298598 
L 228.686576 36.916856 
L 228.723493 36.916856 
L 228.82543 36.000678 
L 229.038028 35.924329 
L 229.076331 35.313544 
L 229.333113 35.237195 
L 229.429778 35.084499 
L 229.71383 35.008151 
L 229.779696 34.473713 
L 229.916674 34.397365 
L 229.916674 34.321016 
L 230.208134 34.321016 
L 230.239269 33.786579 
L 230.647019 33.710231 
L 230.667937 33.404838 
L 230.836329 33.328489 
L 230.8843 33.175793 
L 230.961174 33.175793 
L 231.051706 32.488659 
L 231.212097 32.488659 
L 231.272008 31.877873 
L 231.355564 31.877873 
L 231.403144 31.190739 
L 231.5796 31.190739 
L 231.609452 30.732649 
L 231.766074 30.656301 
L 231.784888 29.969167 
L 232.217764 29.892819 
L 232.217764 29.816471 
L 232.518144 29.740122 
L 232.574042 29.587426 
L 232.85953 29.511078 
L 232.90852 29.052988 
L 233.3545 28.97664 
L 233.46211 28.747595 
L 234.054719 28.747595 
L 234.054719 28.365854 
L 234.639233 28.365854 
L 234.639233 27.984113 
L 236.762958 27.907765 
L 236.762958 27.755068 
L 237.939792 27.755068 
L 237.939792 27.144282 
L 239.760406 27.067934 
L 239.804893 26.838889 
L 239.906351 26.838889 
L 239.906351 26.686193 
L 240.148443 26.686193 
L 240.148443 26.457148 
L 240.541571 26.457148 
L 240.59042 25.693666 
L 241.214174 25.693666 
L 241.214174 25.464621 
L 241.50912 25.388273 
L 241.569368 24.930184 
L 241.636851 24.930184 
L 241.636851 24.777487 
L 241.824211 24.777487 
L 241.89602 24.243049 
L 242.320699 24.243049 
L 242.361062 23.861308 
L 242.637685 23.78496 
L 242.637685 23.479567 
L 243.027414 23.403219 
L 243.027414 23.174174 
L 243.34831 23.097826 
L 243.34831 23.021478 
L 243.991926 22.945129 
L 243.991926 22.716085 
L 247.125615 22.639736 
L 247.125615 22.563388 
L 248.616037 22.563388 
L 248.616037 22.410692 
L 248.768409 22.410692 
L 248.843772 22.181647 
L 249.147226 22.181647 
L 249.147226 21.799906 
L 249.807974 21.723558 
L 249.83029 21.494513 
L 251.07331 21.418165 
L 251.150877 21.18912 
L 251.809643 21.18912 
L 251.809643 20.960075 
L 252.46283 20.883727 
L 252.468796 20.731031 
L 252.610216 20.731031 
L 252.653972 20.501986 
L 252.860139 20.501986 
L 252.860139 19.8912 
L 252.979803 19.8912 
L 252.979803 19.585807 
L 253.408485 19.585807 
L 253.436833 19.280414 
L 253.523877 19.280414 
L 253.618937 18.745976 
L 253.850629 18.669628 
L 253.926954 17.600753 
L 254.403822 17.524405 
L 254.421572 16.760922 
L 254.587238 16.684574 
L 254.592034 15.99744 
L 254.771258 15.99744 
L 254.862598 15.463002 
L 255.000997 15.386654 
L 255.006991 15.081261 
L 255.14925 15.081261 
L 255.14925 14.928565 
L 255.29429 14.928565 
L 255.29429 14.775868 
L 258.071623 14.69952 
L 258.071623 14.546824 
L 262.830995 14.546824 
L 262.830995 14.241431 
L 263.227855 14.165082 
L 263.227855 14.088734 
L 263.837802 14.012386 
L 263.837802 13.936038 
L 265.169746 13.859689 
L 265.169746 13.783341 
L 265.290959 13.783341 
L 265.290959 13.554296 
L 265.582675 13.554296 
L 265.582675 13.019859 
L 266.466516 13.019859 
L 266.466516 12.790814 
L 266.866929 12.790814 
L 266.866929 12.638118 
L 267.461015 12.561769 
L 267.514969 12.256376 
L 267.598947 12.256376 
L 267.682685 11.798287 
L 267.903479 11.798287 
L 268.00077 11.263849 
L 268.219562 11.187501 
L 268.219562 11.034805 
L 268.411958 11.034805 
L 268.481088 10.271322 
L 268.707483 10.271322 
L 268.794203 9.889581 
L 268.883392 9.889581 
L 268.883392 9.736885 
L 269.067052 9.660536 
L 269.067052 9.355144 
L 274.456634 9.278795 
L 274.456634 9.202447 
L 275.303337 9.202447 
L 275.303337 8.973402 
L 278.920882 8.897054 
L 278.920882 8.820706 
L 279.541437 8.820706 
L 279.541437 8.438965 
L 280.159151 8.438965 
L 280.175773 8.057224 
L 280.308697 8.057224 
L 280.308697 7.828179 
L 281.166855 7.751831 
L 281.166855 7.599134 
L 281.369046 7.522786 
L 281.369046 7.446438 
L 281.508292 7.446438 
L 281.550666 6.912 
L 360.8064 6.912 
L 360.8064 6.912 
" style="fill: none; stroke: #ff00ff; stroke-width: 1.5; stroke-linecap: square"/>
   </g>
   <g id="line2d_41">
    <defs>
     <path id="mf26e2cfc52" d="M -0 8.485281 
L 5.091169 0 
L 0 -8.485281 
L -5.091169 -0 
z
" style="stroke: #ff00ff; stroke-width: 1.5; stroke-linejoin: miter"/>
    </defs>
    <g>
     <use xlink:href="#mf26e2cfc52" x="133.154399" y="184.192602" style="fill-opacity: 0; stroke: #ff00ff; stroke-width: 1.5; stroke-linejoin: miter"/>
     <use xlink:href="#mf26e2cfc52" x="189.567996" y="74.556536" style="fill-opacity: 0; stroke: #ff00ff; stroke-width: 1.5; stroke-linejoin: miter"/>
     <use xlink:href="#mf26e2cfc52" x="251.150877" y="21.18912" style="fill-opacity: 0; stroke: #ff00ff; stroke-width: 1.5; stroke-linejoin: miter"/>
     <use xlink:href="#mf26e2cfc52" x="281.550666" y="6.912" style="fill-opacity: 0; stroke: #ff00ff; stroke-width: 1.5; stroke-linejoin: miter"/>
     <use xlink:href="#mf26e2cfc52" x="281.550666" y="6.912" style="fill-opacity: 0; stroke: #ff00ff; stroke-width: 1.5; stroke-linejoin: miter"/>
     <use xlink:href="#mf26e2cfc52" x="360.8064" y="6.912" style="fill-opacity: 0; stroke: #ff00ff; stroke-width: 1.5; stroke-linejoin: miter"/>
    </g>
   </g>
   <g id="line2d_42">
    <path style="fill: none; stroke: #ff00ff; stroke-width: 1.5; stroke-linecap: square"/>
    <g/>
   </g>
   <g id="line2d_43">
    <path d="M 360.8064 6.912 
L 380.514816 293.10336 
" style="fill: none; stroke: #ff00ff; stroke-width: 1.5; stroke-linecap: square"/>
    <g>
     <use xlink:href="#mf26e2cfc52" x="360.8064" y="6.912" style="fill-opacity: 0; stroke: #ff00ff; stroke-width: 1.5; stroke-linejoin: miter"/>
     <use xlink:href="#mf26e2cfc52" x="380.514816" y="293.10336" style="fill-opacity: 0; stroke: #ff00ff; stroke-width: 1.5; stroke-linejoin: miter"/>
    </g>
   </g>
   <g id="line2d_44">
    <path d="M 360.8064 6.912 
L 380.514816 152.928 
" style="fill: none; stroke: #000080; stroke-width: 1.5; stroke-linecap: square"/>
    <g>
     <use xlink:href="#mb6d5f7beb5" x="360.8064" y="6.912" style="fill-opacity: 0; stroke: #000080; stroke-width: 1.5"/>
     <use xlink:href="#mb6d5f7beb5" x="380.514816" y="152.928" style="fill-opacity: 0; stroke: #000080; stroke-width: 1.5"/>
    </g>
   </g>
   <g id="line2d_45">
    <path d="M 360.8064 298.944 
L 360.8064 6.912 
" style="fill: none; stroke: #000000; stroke-width: 1.5; stroke-linecap: square"/>
   </g>
   <g id="patch_3">
    <path d="M 57.6 298.944 
L 360.8064 298.944 
" style="fill: none; stroke: #000000; stroke-width: 0.8; stroke-linejoin: miter; stroke-linecap: square"/>
   </g>
   <g id="patch_4">
    <path d="M 57.6 6.912 
L 360.8064 6.912 
" style="fill: none; stroke: #000000; stroke-width: 0.8; stroke-linejoin: miter; stroke-linecap: square"/>
   </g>
   <g id="text_13">
    <!-- CMA-ES-20 -->
    <g transform="translate(386.578944 296.966485)scale(0.14 -0.14)">
     <defs>
      <path id="DejaVuSans-43" d="M 4122 4306 
L 4122 3641 
Q 3803 3938 3442 4084 
Q 3081 4231 2675 4231 
Q 1875 4231 1450 3742 
Q 1025 3253 1025 2328 
Q 1025 1406 1450 917 
Q 1875 428 2675 428 
Q 3081 428 3442 575 
Q 3803 722 4122 1019 
L 4122 359 
Q 3791 134 3420 21 
Q 3050 -91 2638 -91 
Q 1578 -91 968 557 
Q 359 1206 359 2328 
Q 359 3453 968 4101 
Q 1578 4750 2638 4750 
Q 3056 4750 3426 4639 
Q 3797 4528 4122 4306 
z
" transform="scale(0.015625)"/>
      <path id="DejaVuSans-4d" d="M 628 4666 
L 1569 4666 
L 2759 1491 
L 3956 4666 
L 4897 4666 
L 4897 0 
L 4281 0 
L 4281 4097 
L 3078 897 
L 2444 897 
L 1241 4097 
L 1241 0 
L 628 0 
L 628 4666 
z
" transform="scale(0.015625)"/>
      <path id="DejaVuSans-41" d="M 2188 4044 
L 1331 1722 
L 3047 1722 
L 2188 4044 
z
M 1831 4666 
L 2547 4666 
L 4325 0 
L 3669 0 
L 3244 1197 
L 1141 1197 
L 716 0 
L 50 0 
L 1831 4666 
z
" transform="scale(0.015625)"/>
      <path id="DejaVuSans-45" d="M 628 4666 
L 3578 4666 
L 3578 4134 
L 1259 4134 
L 1259 2753 
L 3481 2753 
L 3481 2222 
L 1259 2222 
L 1259 531 
L 3634 531 
L 3634 0 
L 628 0 
L 628 4666 
z
" transform="scale(0.015625)"/>
      <path id="DejaVuSans-53" d="M 3425 4513 
L 3425 3897 
Q 3066 4069 2747 4153 
Q 2428 4238 2131 4238 
Q 1616 4238 1336 4038 
Q 1056 3838 1056 3469 
Q 1056 3159 1242 3001 
Q 1428 2844 1947 2747 
L 2328 2669 
Q 3034 2534 3370 2195 
Q 3706 1856 3706 1288 
Q 3706 609 3251 259 
Q 2797 -91 1919 -91 
Q 1588 -91 1214 -16 
Q 841 59 441 206 
L 441 856 
Q 825 641 1194 531 
Q 1563 422 1919 422 
Q 2459 422 2753 634 
Q 3047 847 3047 1241 
Q 3047 1584 2836 1778 
Q 2625 1972 2144 2069 
L 1759 2144 
Q 1053 2284 737 2584 
Q 422 2884 422 3419 
Q 422 4038 858 4394 
Q 1294 4750 2059 4750 
Q 2388 4750 2728 4690 
Q 3069 4631 3425 4513 
z
" transform="scale(0.015625)"/>
     </defs>
     <use xlink:href="#DejaVuSans-43"/>
     <use xlink:href="#DejaVuSans-4d" x="69.824219"/>
     <use xlink:href="#DejaVuSans-41" x="156.103516"/>
     <use xlink:href="#DejaVuSans-2d" x="222.261719"/>
     <use xlink:href="#DejaVuSans-45" x="258.345703"/>
     <use xlink:href="#DejaVuSans-53" x="321.529297"/>
     <use xlink:href="#DejaVuSans-2d" x="385.005859"/>
     <use xlink:href="#DejaVuSans-32" x="421.089844"/>
     <use xlink:href="#DejaVuSans-30" x="484.712891"/>
    </g>
   </g>
   <g id="text_14">
    <!-- ex -->
    <g transform="translate(386.578944 156.791125)scale(0.14 -0.14)">
     <defs>
      <path id="DejaVuSans-78" d="M 3513 3500 
L 2247 1797 
L 3578 0 
L 2900 0 
L 1881 1375 
L 863 0 
L 184 0 
L 1544 1831 
L 300 3500 
L 978 3500 
L 1906 2253 
L 2834 3500 
L 3513 3500 
z
" transform="scale(0.015625)"/>
     </defs>
     <use xlink:href="#DejaVuSans-65"/>
     <use xlink:href="#DejaVuSans-78" x="59.773438"/>
    </g>
   </g>
   <g id="text_15">
    <!-- best 2009 -->
    <g transform="translate(386.578944 16.615765)scale(0.14 -0.14)">
     <defs>
      <path id="DejaVuSans-62" d="M 3116 1747 
Q 3116 2381 2855 2742 
Q 2594 3103 2138 3103 
Q 1681 3103 1420 2742 
Q 1159 2381 1159 1747 
Q 1159 1113 1420 752 
Q 1681 391 2138 391 
Q 2594 391 2855 752 
Q 3116 1113 3116 1747 
z
M 1159 2969 
Q 1341 3281 1617 3432 
Q 1894 3584 2278 3584 
Q 2916 3584 3314 3078 
Q 3713 2572 3713 1747 
Q 3713 922 3314 415 
Q 2916 -91 2278 -91 
Q 1894 -91 1617 61 
Q 1341 213 1159 525 
L 1159 0 
L 581 0 
L 581 4863 
L 1159 4863 
L 1159 2969 
z
" transform="scale(0.015625)"/>
      <path id="DejaVuSans-39" d="M 703 97 
L 703 672 
Q 941 559 1184 500 
Q 1428 441 1663 441 
Q 2288 441 2617 861 
Q 2947 1281 2994 2138 
Q 2813 1869 2534 1725 
Q 2256 1581 1919 1581 
Q 1219 1581 811 2004 
Q 403 2428 403 3163 
Q 403 3881 828 4315 
Q 1253 4750 1959 4750 
Q 2769 4750 3195 4129 
Q 3622 3509 3622 2328 
Q 3622 1225 3098 567 
Q 2575 -91 1691 -91 
Q 1453 -91 1209 -44 
Q 966 3 703 97 
z
M 1959 2075 
Q 2384 2075 2632 2365 
Q 2881 2656 2881 3163 
Q 2881 3666 2632 3958 
Q 2384 4250 1959 4250 
Q 1534 4250 1286 3958 
Q 1038 3666 1038 3163 
Q 1038 2656 1286 2365 
Q 1534 2075 1959 2075 
z
" transform="scale(0.015625)"/>
     </defs>
     <use xlink:href="#DejaVuSans-62"/>
     <use xlink:href="#DejaVuSans-65" x="63.476562"/>
     <use xlink:href="#DejaVuSans-73" x="125"/>
     <use xlink:href="#DejaVuSans-74" x="177.099609"/>
     <use xlink:href="#DejaVuSans-20" x="216.308594"/>
     <use xlink:href="#DejaVuSans-32" x="248.095703"/>
     <use xlink:href="#DejaVuSans-30" x="311.71875"/>
     <use xlink:href="#DejaVuSans-30" x="375.341797"/>
     <use xlink:href="#DejaVuSans-39" x="438.964844"/>
    </g>
   </g>
   <g id="text_16">
    <!-- bbob f1-f5, 2-D -->
    <g transform="translate(60.632064 17.582726)scale(0.102 -0.102)">
     <defs>
      <path id="DejaVuSans-35" d="M 691 4666 
L 3169 4666 
L 3169 4134 
L 1269 4134 
L 1269 2991 
Q 1406 3038 1543 3061 
Q 1681 3084 1819 3084 
Q 2600 3084 3056 2656 
Q 3513 2228 3513 1497 
Q 3513 744 3044 326 
Q 2575 -91 1722 -91 
Q 1428 -91 1123 -41 
Q 819 9 494 109 
L 494 744 
Q 775 591 1075 516 
Q 1375 441 1709 441 
Q 2250 441 2565 725 
Q 2881 1009 2881 1497 
Q 2881 1984 2565 2268 
Q 2250 2553 1709 2553 
Q 1456 2553 1204 2497 
Q 953 2441 691 2322 
L 691 4666 
z
" transform="scale(0.015625)"/>
      <path id="DejaVuSans-44" d="M 1259 4147 
L 1259 519 
L 2022 519 
Q 2988 519 3436 956 
Q 3884 1394 3884 2338 
Q 3884 3275 3436 3711 
Q 2988 4147 2022 4147 
L 1259 4147 
z
M 628 4666 
L 1925 4666 
Q 3281 4666 3915 4102 
Q 4550 3538 4550 2338 
Q 4550 1131 3912 565 
Q 3275 0 1925 0 
L 628 0 
L 628 4666 
z
" transform="scale(0.015625)"/>
     </defs>
     <use xlink:href="#DejaVuSans-62"/>
     <use xlink:href="#DejaVuSans-62" x="63.476562"/>
     <use xlink:href="#DejaVuSans-6f" x="126.953125"/>
     <use xlink:href="#DejaVuSans-62" x="188.134766"/>
     <use xlink:href="#DejaVuSans-20" x="251.611328"/>
     <use xlink:href="#DejaVuSans-66" x="283.398438"/>
     <use xlink:href="#DejaVuSans-31" x="318.603516"/>
     <use xlink:href="#DejaVuSans-2d" x="382.226562"/>
     <use xlink:href="#DejaVuSans-66" x="418.310547"/>
     <use xlink:href="#DejaVuSans-35" x="453.515625"/>
     <use xlink:href="#DejaVuSans-2c" x="517.138672"/>
     <use xlink:href="#DejaVuSans-20" x="548.925781"/>
     <use xlink:href="#DejaVuSans-32" x="580.712891"/>
     <use xlink:href="#DejaVuSans-2d" x="644.335938"/>
     <use xlink:href="#DejaVuSans-44" x="680.419922"/>
    </g>
    <!-- 51 targets: 100..1e-08 -->
    <g transform="translate(60.632064 29.004495)scale(0.102 -0.102)">
     <defs>
      <path id="DejaVuSans-3a" d="M 750 794 
L 1409 794 
L 1409 0 
L 750 0 
L 750 794 
z
M 750 3309 
L 1409 3309 
L 1409 2516 
L 750 2516 
L 750 3309 
z
" transform="scale(0.015625)"/>
     </defs>
     <use xlink:href="#DejaVuSans-35"/>
     <use xlink:href="#DejaVuSans-31" x="63.623047"/>
     <use xlink:href="#DejaVuSans-20" x="127.246094"/>
     <use xlink:href="#DejaVuSans-74" x="159.033203"/>
     <use xlink:href="#DejaVuSans-61" x="198.242188"/>
     <use xlink:href="#DejaVuSans-72" x="259.521484"/>
     <use xlink:href="#DejaVuSans-67" x="298.884766"/>
     <use xlink:href="#DejaVuSans-65" x="362.361328"/>
     <use xlink:href="#DejaVuSans-74" x="423.884766"/>
     <use xlink:href="#DejaVuSans-73" x="463.09375"/>
     <use xlink:href="#DejaVuSans-3a" x="515.193359"/>
     <use xlink:href="#DejaVuSans-20" x="548.884766"/>
     <use xlink:href="#DejaVuSans-31" x="580.671875"/>
     <use xlink:href="#DejaVuSans-30" x="644.294922"/>
     <use xlink:href="#DejaVuSans-30" x="707.917969"/>
     <use xlink:href="#DejaVuSans-2e" x="771.541016"/>
     <use xlink:href="#DejaVuSans-2e" x="803.328125"/>
     <use xlink:href="#DejaVuSans-31" x="835.115234"/>
     <use xlink:href="#DejaVuSans-65" x="898.738281"/>
     <use xlink:href="#DejaVuSans-2d" x="960.261719"/>
     <use xlink:href="#DejaVuSans-30" x="996.345703"/>
     <use xlink:href="#DejaVuSans-38" x="1059.96875"/>
    </g>
    <!-- 25, 15 instances -->
    <g transform="translate(60.632064 40.426264)scale(0.102 -0.102)">
     <use xlink:href="#DejaVuSans-32"/>
     <use xlink:href="#DejaVuSans-35" x="63.623047"/>
     <use xlink:href="#DejaVuSans-2c" x="127.246094"/>
     <use xlink:href="#DejaVuSans-20" x="159.033203"/>
     <use xlink:href="#DejaVuSans-31" x="190.820312"/>
     <use xlink:href="#DejaVuSans-35" x="254.443359"/>
     <use xlink:href="#DejaVuSans-20" x="318.066406"/>
     <use xlink:href="#DejaVuSans-69" x="349.853516"/>
     <use xlink:href="#DejaVuSans-6e" x="377.636719"/>
     <use xlink:href="#DejaVuSans-73" x="441.015625"/>
     <use xlink:href="#DejaVuSans-74" x="493.115234"/>
     <use xlink:href="#DejaVuSans-61" x="532.324219"/>
     <use xlink:href="#DejaVuSans-6e" x="593.603516"/>
     <use xlink:href="#DejaVuSans-63" x="656.982422"/>
     <use xlink:href="#DejaVuSans-65" x="711.962891"/>
     <use xlink:href="#DejaVuSans-73" x="773.486328"/>
    </g>
   </g>
   <g id="text_17">
    <!-- v2.6 -->
    <g style="fill: #808080" transform="translate(198.292262 293.943992)scale(0.1 -0.1)">
     <use xlink:href="#DejaVuSans-76"/>
     <use xlink:href="#DejaVuSans-32" x="59.179688"/>
     <use xlink:href="#DejaVuSans-2e" x="122.802734"/>
     <use xlink:href="#DejaVuSans-36" x="154.589844"/>
    </g>
   </g>
  </g>
 </g>
 <defs>
  <clipPath id="p49db9856ac">
   <rect x="57.6" y="6.912" width="303.2064" height="292.032"/>
  </clipPath>
 </defs>
</svg>
