<?xml version="1.0" encoding="utf-8" standalone="no"?>
<!DOCTYPE svg PUBLIC "-//W3C//DTD SVG 1.1//EN"
  "http://www.w3.org/Graphics/SVG/1.1/DTD/svg11.dtd">
<svg xmlns:xlink="http://www.w3.org/1999/xlink" width="460.8pt" height="345.6pt" viewBox="0 0 460.8 345.6" xmlns="http://www.w3.org/2000/svg" version="1.1">
 <metadata>
  <rdf:RDF xmlns:dc="http://purl.org/dc/elements/1.1/" xmlns:cc="http://creativecommons.org/ns#" xmlns:rdf="http://www.w3.org/1999/02/22-rdf-syntax-ns#">
   <cc:Work>
    <dc:type rdf:resource="http://purl.org/dc/dcmitype/StillImage"/>
    <dc:date>2022-03-16T23:17:05.432713</dc:date>
    <dc:format>image/svg+xml</dc:format>
    <dc:creator>
     <cc:Agent>
      <dc:title>Matplotlib v3.5.1, https://matplotlib.org/</dc:title>
     </cc:Agent>
    </dc:creator>
   </cc:Work>
  </rdf:RDF>
 </metadata>
 <defs>
  <style type="text/css">*{stroke-linejoin: round; stroke-linecap: butt}</style>
 </defs>
 <g id="figure_1">
  <g id="patch_1">
   <path d="M 0 345.6 
L 460.8 345.6 
L 460.8 0 
L 0 0 
z
" style="fill: #ffffff"/>
  </g>
  <g id="axes_1">
   <g id="patch_2">
    <path d="M 57.6 298.944 
L 360.8064 298.944 
L 360.8064 6.912 
L 57.6 6.912 
z
" style="fill: #ffffff"/>
   </g>
   <g id="line2d_1">
    <path d="M -1 290.927435 
L 24.812042 290.927435 
L 24.812042 289.782212 
L 67.581941 289.782212 
L 67.581941 288.636988 
L 83.678349 288.636988 
L 83.678349 286.346541 
L 85.147866 286.346541 
L 85.147866 285.201318 
L 86.307488 285.201318 
L 86.307488 284.056094 
L 87.495981 284.056094 
L 87.495981 282.910871 
L 88.248544 282.910871 
L 88.248544 281.765647 
L 88.88321 281.765647 
L 88.88321 280.620424 
L 89.839199 280.620424 
L 89.839199 279.4752 
L 90.586777 279.4752 
L 90.586777 277.184753 
L 93.591002 277.184753 
L 93.591002 276.039529 
L 94.995002 276.039529 
L 94.995002 274.894306 
L 95.814395 274.894306 
L 95.814395 273.749082 
L 99.950294 273.749082 
L 99.950294 272.603859 
L 105.668924 272.603859 
L 105.668924 271.458635 
L 108.636452 271.458635 
L 108.636452 270.313412 
L 111.0898 270.313412 
L 111.0898 269.168188 
L 113.57433 269.168188 
L 113.57433 268.022965 
L 118.962067 268.022965 
L 118.962067 266.877741 
L 124.373813 266.877741 
L 124.373813 265.732518 
L 135.290827 265.732518 
L 135.290827 264.587294 
L 135.463998 264.587294 
L 135.463998 263.442071 
L 138.36167 263.442071 
L 138.36167 262.296847 
L 139.374701 262.296847 
L 139.374701 261.151624 
L 143.046405 261.151624 
L 143.046405 260.0064 
L 150.499402 260.0064 
L 150.499402 258.861176 
L 157.196538 258.861176 
L 157.196538 257.715953 
L 157.811919 257.715953 
L 157.811919 256.570729 
L 161.786209 256.570729 
L 161.786209 255.425506 
L 163.372716 255.425506 
L 163.372716 254.280282 
L 164.779061 254.280282 
L 164.779061 253.135059 
L 175.552798 253.135059 
L 175.552798 251.989835 
L 181.316221 251.989835 
L 181.316221 250.844612 
L 182.695379 250.844612 
L 182.695379 249.699388 
L 185.247437 249.699388 
L 185.269743 247.408941 
L 185.961721 247.408941 
L 185.961721 246.263718 
L 186.912886 246.263718 
L 186.912886 245.118494 
L 187.07078 245.118494 
L 187.07078 243.973271 
L 199.483985 243.973271 
L 199.483985 242.828047 
L 203.446793 242.828047 
L 203.446793 241.682824 
L 204.876274 241.682824 
L 204.977081 229.085365 
L 204.988434 229.085365 
L 205.092714 218.778353 
L 205.104553 218.778353 
L 205.209481 203.890447 
L 205.222165 203.890447 
L 205.29498 195.873882 
L 205.84323 195.873882 
L 205.84323 194.728659 
L 209.913419 194.728659 
L 209.913419 193.583435 
L 213.344651 193.583435 
L 213.344651 192.438212 
L 219.557524 192.438212 
L 219.557524 191.292988 
L 220.898427 191.292988 
L 220.898427 190.147765 
L 233.848058 190.147765 
L 233.848058 189.002541 
L 239.938655 189.002541 
L 240.048575 161.517176 
L 240.062161 161.517176 
L 240.1342 144.338824 
L 240.306027 144.338824 
L 240.306027 143.1936 
L 243.743116 143.1936 
L 243.775691 140.903153 
L 246.173923 140.903153 
L 246.173923 139.757929 
L 247.804801 139.757929 
L 247.804801 138.612706 
L 250.362513 138.612706 
L 250.362513 137.467482 
L 250.565037 137.467482 
L 250.565037 136.322259 
L 252.721945 136.322259 
L 252.721945 135.177035 
L 253.358902 135.177035 
L 253.358902 134.031812 
L 253.867109 134.031812 
L 253.867109 132.886588 
L 260.627073 132.886588 
L 260.627073 131.741365 
L 263.56606 131.741365 
L 263.56606 130.596141 
L 269.612826 130.596141 
L 269.612826 129.450918 
L 269.740447 129.450918 
L 269.740447 128.305694 
L 269.889783 128.305694 
L 269.951239 126.015247 
L 270.064799 126.015247 
L 270.156877 123.7248 
L 270.224518 123.7248 
L 270.314191 121.434353 
L 270.383624 121.434353 
L 270.459065 119.143906 
L 270.514001 119.143906 
L 270.593235 116.853459 
L 270.679575 116.853459 
L 270.78933 113.417788 
L 270.845619 113.417788 
L 270.898549 111.127341 
L 270.981468 111.127341 
L 271.058523 108.836894 
L 271.126743 108.836894 
L 271.190286 106.546447 
L 271.270537 106.546447 
L 271.270537 105.401224 
L 278.462397 105.401224 
L 278.462397 104.256 
L 281.310509 104.256 
L 281.310509 103.110776 
L 289.928169 103.110776 
L 289.928169 101.965553 
L 298.758952 101.965553 
L 298.758952 100.820329 
L 318.184022 100.820329 
L 318.184022 99.675106 
L 318.82327 99.675106 
L 318.82327 98.529882 
L 322.450012 98.529882 
L 322.450012 97.384659 
L 326.888427 97.384659 
L 326.888427 96.239435 
L 334.380208 96.239435 
L 334.386404 92.803765 
L 342.323187 92.803765 
L 342.327831 89.368094 
L 343.704805 89.368094 
L 343.704805 88.222871 
L 355.404622 88.222871 
L 355.424599 46.994824 
L 360.8064 46.994824 
L 360.8064 46.994824 
" style="fill: none; stroke: #f5deb3; stroke-width: 4; stroke-linecap: square"/>
   </g>
   <g id="line2d_2">
    <defs>
     <path id="mf14e28c891" d="M -0 7.778175 
L 7.778175 0 
L 0 -7.778175 
L -7.778175 -0 
z
" style="stroke: #f5deb3; stroke-width: 1.5; stroke-linejoin: miter"/>
    </defs>
    <g>
     <use xlink:href="#mf14e28c891" x="67.581941" y="289.782212" style="fill: #f5deb3; stroke: #f5deb3; stroke-width: 1.5; stroke-linejoin: miter"/>
     <use xlink:href="#mf14e28c891" x="181.316221" y="250.844612" style="fill: #f5deb3; stroke: #f5deb3; stroke-width: 1.5; stroke-linejoin: miter"/>
     <use xlink:href="#mf14e28c891" x="239.962934" y="179.840753" style="fill: #f5deb3; stroke: #f5deb3; stroke-width: 1.5; stroke-linejoin: miter"/>
     <use xlink:href="#mf14e28c891" x="298.758952" y="101.965553" style="fill: #f5deb3; stroke: #f5deb3; stroke-width: 1.5; stroke-linejoin: miter"/>
     <use xlink:href="#mf14e28c891" x="355.424599" y="46.994824" style="fill: #f5deb3; stroke: #f5deb3; stroke-width: 1.5; stroke-linejoin: miter"/>
     <use xlink:href="#mf14e28c891" x="360.8064" y="46.994824" style="fill: #f5deb3; stroke: #f5deb3; stroke-width: 1.5; stroke-linejoin: miter"/>
    </g>
   </g>
   <g id="line2d_3">
    <path style="fill: none; stroke: #f5deb3; stroke-width: 4; stroke-linecap: square"/>
    <g/>
   </g>
   <g id="line2d_4">
    <path d="M 360.8064 46.994824 
L 380.514816 12.75264 
" style="fill: none; stroke: #f5deb3; stroke-width: 4; stroke-linecap: square"/>
    <g>
     <use xlink:href="#mf14e28c891" x="360.8064" y="46.994824" style="fill: #f5deb3; stroke: #f5deb3; stroke-width: 1.5; stroke-linejoin: miter"/>
     <use xlink:href="#mf14e28c891" x="380.514816" y="12.75264" style="fill: #f5deb3; stroke: #f5deb3; stroke-width: 1.5; stroke-linejoin: miter"/>
    </g>
   </g>
   <g id="matplotlib.axis_1">
    <g id="xtick_1">
     <g id="line2d_5">
      <path d="M 57.6 298.944 
L 57.6 6.912 
" clip-path="url(#pe6ebf6f2ab)" style="fill: none; stroke: #b0b0b0; stroke-width: 0.8; stroke-linecap: square"/>
     </g>
     <g id="line2d_6">
      <defs>
       <path id="me9a347f38b" d="M 0 0 
L 0 3.5 
" style="stroke: #000000; stroke-width: 0.8"/>
      </defs>
      <g>
       <use xlink:href="#me9a347f38b" x="57.6" y="298.944" style="stroke: #000000; stroke-width: 0.8"/>
      </g>
     </g>
     <g id="text_1">
      <!-- 0 -->
      <g transform="translate(52.191875 318.861344)scale(0.17 -0.17)">
       <defs>
        <path id="DejaVuSans-30" d="M 2034 4250 
Q 1547 4250 1301 3770 
Q 1056 3291 1056 2328 
Q 1056 1369 1301 889 
Q 1547 409 2034 409 
Q 2525 409 2770 889 
Q 3016 1369 3016 2328 
Q 3016 3291 2770 3770 
Q 2525 4250 2034 4250 
z
M 2034 4750 
Q 2819 4750 3233 4129 
Q 3647 3509 3647 2328 
Q 3647 1150 3233 529 
Q 2819 -91 2034 -91 
Q 1250 -91 836 529 
Q 422 1150 422 2328 
Q 422 3509 836 4129 
Q 1250 4750 2034 4750 
z
" transform="scale(0.015625)"/>
       </defs>
       <use xlink:href="#DejaVuSans-30"/>
      </g>
     </g>
    </g>
    <g id="xtick_2">
     <g id="line2d_7">
      <path d="M 144.2304 298.944 
L 144.2304 6.912 
" clip-path="url(#pe6ebf6f2ab)" style="fill: none; stroke: #b0b0b0; stroke-width: 0.8; stroke-linecap: square"/>
     </g>
     <g id="line2d_8">
      <g>
       <use xlink:href="#me9a347f38b" x="144.2304" y="298.944" style="stroke: #000000; stroke-width: 0.8"/>
      </g>
     </g>
     <g id="text_2">
      <!-- 2 -->
      <g transform="translate(138.822275 318.861344)scale(0.17 -0.17)">
       <defs>
        <path id="DejaVuSans-32" d="M 1228 531 
L 3431 531 
L 3431 0 
L 469 0 
L 469 531 
Q 828 903 1448 1529 
Q 2069 2156 2228 2338 
Q 2531 2678 2651 2914 
Q 2772 3150 2772 3378 
Q 2772 3750 2511 3984 
Q 2250 4219 1831 4219 
Q 1534 4219 1204 4116 
Q 875 4013 500 3803 
L 500 4441 
Q 881 4594 1212 4672 
Q 1544 4750 1819 4750 
Q 2544 4750 2975 4387 
Q 3406 4025 3406 3419 
Q 3406 3131 3298 2873 
Q 3191 2616 2906 2266 
Q 2828 2175 2409 1742 
Q 1991 1309 1228 531 
z
" transform="scale(0.015625)"/>
       </defs>
       <use xlink:href="#DejaVuSans-32"/>
      </g>
     </g>
    </g>
    <g id="xtick_3">
     <g id="line2d_9">
      <path d="M 230.8608 298.944 
L 230.8608 6.912 
" clip-path="url(#pe6ebf6f2ab)" style="fill: none; stroke: #b0b0b0; stroke-width: 0.8; stroke-linecap: square"/>
     </g>
     <g id="line2d_10">
      <g>
       <use xlink:href="#me9a347f38b" x="230.8608" y="298.944" style="stroke: #000000; stroke-width: 0.8"/>
      </g>
     </g>
     <g id="text_3">
      <!-- 4 -->
      <g transform="translate(225.452675 318.861344)scale(0.17 -0.17)">
       <defs>
        <path id="DejaVuSans-34" d="M 2419 4116 
L 825 1625 
L 2419 1625 
L 2419 4116 
z
M 2253 4666 
L 3047 4666 
L 3047 1625 
L 3713 1625 
L 3713 1100 
L 3047 1100 
L 3047 0 
L 2419 0 
L 2419 1100 
L 313 1100 
L 313 1709 
L 2253 4666 
z
" transform="scale(0.015625)"/>
       </defs>
       <use xlink:href="#DejaVuSans-34"/>
      </g>
     </g>
    </g>
    <g id="xtick_4">
     <g id="line2d_11">
      <path d="M 317.4912 298.944 
L 317.4912 6.912 
" clip-path="url(#pe6ebf6f2ab)" style="fill: none; stroke: #b0b0b0; stroke-width: 0.8; stroke-linecap: square"/>
     </g>
     <g id="line2d_12">
      <g>
       <use xlink:href="#me9a347f38b" x="317.4912" y="298.944" style="stroke: #000000; stroke-width: 0.8"/>
      </g>
     </g>
     <g id="text_4">
      <!-- 6 -->
      <g transform="translate(312.083075 318.861344)scale(0.17 -0.17)">
       <defs>
        <path id="DejaVuSans-36" d="M 2113 2584 
Q 1688 2584 1439 2293 
Q 1191 2003 1191 1497 
Q 1191 994 1439 701 
Q 1688 409 2113 409 
Q 2538 409 2786 701 
Q 3034 994 3034 1497 
Q 3034 2003 2786 2293 
Q 2538 2584 2113 2584 
z
M 3366 4563 
L 3366 3988 
Q 3128 4100 2886 4159 
Q 2644 4219 2406 4219 
Q 1781 4219 1451 3797 
Q 1122 3375 1075 2522 
Q 1259 2794 1537 2939 
Q 1816 3084 2150 3084 
Q 2853 3084 3261 2657 
Q 3669 2231 3669 1497 
Q 3669 778 3244 343 
Q 2819 -91 2113 -91 
Q 1303 -91 875 529 
Q 447 1150 447 2328 
Q 447 3434 972 4092 
Q 1497 4750 2381 4750 
Q 2619 4750 2861 4703 
Q 3103 4656 3366 4563 
z
" transform="scale(0.015625)"/>
       </defs>
       <use xlink:href="#DejaVuSans-36"/>
      </g>
     </g>
    </g>
    <g id="xtick_5">
     <g id="line2d_13">
      <path d="M 100.9152 298.944 
L 100.9152 6.912 
" clip-path="url(#pe6ebf6f2ab)" style="fill: none; stroke: #b0b0b0; stroke-width: 0.8; stroke-linecap: square"/>
     </g>
     <g id="line2d_14">
      <defs>
       <path id="m89e14632e0" d="M 0 0 
L 0 2 
" style="stroke: #000000; stroke-width: 0.6"/>
      </defs>
      <g>
       <use xlink:href="#m89e14632e0" x="100.9152" y="298.944" style="stroke: #000000; stroke-width: 0.6"/>
      </g>
     </g>
    </g>
    <g id="xtick_6">
     <g id="line2d_15">
      <path d="M 187.5456 298.944 
L 187.5456 6.912 
" clip-path="url(#pe6ebf6f2ab)" style="fill: none; stroke: #b0b0b0; stroke-width: 0.8; stroke-linecap: square"/>
     </g>
     <g id="line2d_16">
      <g>
       <use xlink:href="#m89e14632e0" x="187.5456" y="298.944" style="stroke: #000000; stroke-width: 0.6"/>
      </g>
     </g>
    </g>
    <g id="xtick_7">
     <g id="line2d_17">
      <path d="M 274.176 298.944 
L 274.176 6.912 
" clip-path="url(#pe6ebf6f2ab)" style="fill: none; stroke: #b0b0b0; stroke-width: 0.8; stroke-linecap: square"/>
     </g>
     <g id="line2d_18">
      <g>
       <use xlink:href="#m89e14632e0" x="274.176" y="298.944" style="stroke: #000000; stroke-width: 0.6"/>
      </g>
     </g>
    </g>
    <g id="xtick_8">
     <g id="line2d_19">
      <path d="M 360.8064 298.944 
L 360.8064 6.912 
" clip-path="url(#pe6ebf6f2ab)" style="fill: none; stroke: #b0b0b0; stroke-width: 0.8; stroke-linecap: square"/>
     </g>
     <g id="line2d_20">
      <g>
       <use xlink:href="#m89e14632e0" x="360.8064" y="298.944" style="stroke: #000000; stroke-width: 0.6"/>
      </g>
     </g>
    </g>
    <g id="text_5">
     <!-- log10(# f-evals / dimension) -->
     <g transform="translate(88.823278 339.314156)scale(0.17 -0.17)">
      <defs>
       <path id="DejaVuSans-6c" d="M 603 4863 
L 1178 4863 
L 1178 0 
L 603 0 
L 603 4863 
z
" transform="scale(0.015625)"/>
       <path id="DejaVuSans-6f" d="M 1959 3097 
Q 1497 3097 1228 2736 
Q 959 2375 959 1747 
Q 959 1119 1226 758 
Q 1494 397 1959 397 
Q 2419 397 2687 759 
Q 2956 1122 2956 1747 
Q 2956 2369 2687 2733 
Q 2419 3097 1959 3097 
z
M 1959 3584 
Q 2709 3584 3137 3096 
Q 3566 2609 3566 1747 
Q 3566 888 3137 398 
Q 2709 -91 1959 -91 
Q 1206 -91 779 398 
Q 353 888 353 1747 
Q 353 2609 779 3096 
Q 1206 3584 1959 3584 
z
" transform="scale(0.015625)"/>
       <path id="DejaVuSans-67" d="M 2906 1791 
Q 2906 2416 2648 2759 
Q 2391 3103 1925 3103 
Q 1463 3103 1205 2759 
Q 947 2416 947 1791 
Q 947 1169 1205 825 
Q 1463 481 1925 481 
Q 2391 481 2648 825 
Q 2906 1169 2906 1791 
z
M 3481 434 
Q 3481 -459 3084 -895 
Q 2688 -1331 1869 -1331 
Q 1566 -1331 1297 -1286 
Q 1028 -1241 775 -1147 
L 775 -588 
Q 1028 -725 1275 -790 
Q 1522 -856 1778 -856 
Q 2344 -856 2625 -561 
Q 2906 -266 2906 331 
L 2906 616 
Q 2728 306 2450 153 
Q 2172 0 1784 0 
Q 1141 0 747 490 
Q 353 981 353 1791 
Q 353 2603 747 3093 
Q 1141 3584 1784 3584 
Q 2172 3584 2450 3431 
Q 2728 3278 2906 2969 
L 2906 3500 
L 3481 3500 
L 3481 434 
z
" transform="scale(0.015625)"/>
       <path id="DejaVuSans-31" d="M 794 531 
L 1825 531 
L 1825 4091 
L 703 3866 
L 703 4441 
L 1819 4666 
L 2450 4666 
L 2450 531 
L 3481 531 
L 3481 0 
L 794 0 
L 794 531 
z
" transform="scale(0.015625)"/>
       <path id="DejaVuSans-28" d="M 1984 4856 
Q 1566 4138 1362 3434 
Q 1159 2731 1159 2009 
Q 1159 1288 1364 580 
Q 1569 -128 1984 -844 
L 1484 -844 
Q 1016 -109 783 600 
Q 550 1309 550 2009 
Q 550 2706 781 3412 
Q 1013 4119 1484 4856 
L 1984 4856 
z
" transform="scale(0.015625)"/>
       <path id="DejaVuSans-23" d="M 3272 2816 
L 2363 2816 
L 2100 1772 
L 3016 1772 
L 3272 2816 
z
M 2803 4594 
L 2478 3297 
L 3391 3297 
L 3719 4594 
L 4219 4594 
L 3897 3297 
L 4872 3297 
L 4872 2816 
L 3775 2816 
L 3519 1772 
L 4513 1772 
L 4513 1294 
L 3397 1294 
L 3072 0 
L 2572 0 
L 2894 1294 
L 1978 1294 
L 1656 0 
L 1153 0 
L 1478 1294 
L 494 1294 
L 494 1772 
L 1594 1772 
L 1856 2816 
L 850 2816 
L 850 3297 
L 1978 3297 
L 2297 4594 
L 2803 4594 
z
" transform="scale(0.015625)"/>
       <path id="DejaVuSans-20" transform="scale(0.015625)"/>
       <path id="DejaVuSans-66" d="M 2375 4863 
L 2375 4384 
L 1825 4384 
Q 1516 4384 1395 4259 
Q 1275 4134 1275 3809 
L 1275 3500 
L 2222 3500 
L 2222 3053 
L 1275 3053 
L 1275 0 
L 697 0 
L 697 3053 
L 147 3053 
L 147 3500 
L 697 3500 
L 697 3744 
Q 697 4328 969 4595 
Q 1241 4863 1831 4863 
L 2375 4863 
z
" transform="scale(0.015625)"/>
       <path id="DejaVuSans-2d" d="M 313 2009 
L 1997 2009 
L 1997 1497 
L 313 1497 
L 313 2009 
z
" transform="scale(0.015625)"/>
       <path id="DejaVuSans-65" d="M 3597 1894 
L 3597 1613 
L 953 1613 
Q 991 1019 1311 708 
Q 1631 397 2203 397 
Q 2534 397 2845 478 
Q 3156 559 3463 722 
L 3463 178 
Q 3153 47 2828 -22 
Q 2503 -91 2169 -91 
Q 1331 -91 842 396 
Q 353 884 353 1716 
Q 353 2575 817 3079 
Q 1281 3584 2069 3584 
Q 2775 3584 3186 3129 
Q 3597 2675 3597 1894 
z
M 3022 2063 
Q 3016 2534 2758 2815 
Q 2500 3097 2075 3097 
Q 1594 3097 1305 2825 
Q 1016 2553 972 2059 
L 3022 2063 
z
" transform="scale(0.015625)"/>
       <path id="DejaVuSans-76" d="M 191 3500 
L 800 3500 
L 1894 563 
L 2988 3500 
L 3597 3500 
L 2284 0 
L 1503 0 
L 191 3500 
z
" transform="scale(0.015625)"/>
       <path id="DejaVuSans-61" d="M 2194 1759 
Q 1497 1759 1228 1600 
Q 959 1441 959 1056 
Q 959 750 1161 570 
Q 1363 391 1709 391 
Q 2188 391 2477 730 
Q 2766 1069 2766 1631 
L 2766 1759 
L 2194 1759 
z
M 3341 1997 
L 3341 0 
L 2766 0 
L 2766 531 
Q 2569 213 2275 61 
Q 1981 -91 1556 -91 
Q 1019 -91 701 211 
Q 384 513 384 1019 
Q 384 1609 779 1909 
Q 1175 2209 1959 2209 
L 2766 2209 
L 2766 2266 
Q 2766 2663 2505 2880 
Q 2244 3097 1772 3097 
Q 1472 3097 1187 3025 
Q 903 2953 641 2809 
L 641 3341 
Q 956 3463 1253 3523 
Q 1550 3584 1831 3584 
Q 2591 3584 2966 3190 
Q 3341 2797 3341 1997 
z
" transform="scale(0.015625)"/>
       <path id="DejaVuSans-73" d="M 2834 3397 
L 2834 2853 
Q 2591 2978 2328 3040 
Q 2066 3103 1784 3103 
Q 1356 3103 1142 2972 
Q 928 2841 928 2578 
Q 928 2378 1081 2264 
Q 1234 2150 1697 2047 
L 1894 2003 
Q 2506 1872 2764 1633 
Q 3022 1394 3022 966 
Q 3022 478 2636 193 
Q 2250 -91 1575 -91 
Q 1294 -91 989 -36 
Q 684 19 347 128 
L 347 722 
Q 666 556 975 473 
Q 1284 391 1588 391 
Q 1994 391 2212 530 
Q 2431 669 2431 922 
Q 2431 1156 2273 1281 
Q 2116 1406 1581 1522 
L 1381 1569 
Q 847 1681 609 1914 
Q 372 2147 372 2553 
Q 372 3047 722 3315 
Q 1072 3584 1716 3584 
Q 2034 3584 2315 3537 
Q 2597 3491 2834 3397 
z
" transform="scale(0.015625)"/>
       <path id="DejaVuSans-2f" d="M 1625 4666 
L 2156 4666 
L 531 -594 
L 0 -594 
L 1625 4666 
z
" transform="scale(0.015625)"/>
       <path id="DejaVuSans-64" d="M 2906 2969 
L 2906 4863 
L 3481 4863 
L 3481 0 
L 2906 0 
L 2906 525 
Q 2725 213 2448 61 
Q 2172 -91 1784 -91 
Q 1150 -91 751 415 
Q 353 922 353 1747 
Q 353 2572 751 3078 
Q 1150 3584 1784 3584 
Q 2172 3584 2448 3432 
Q 2725 3281 2906 2969 
z
M 947 1747 
Q 947 1113 1208 752 
Q 1469 391 1925 391 
Q 2381 391 2643 752 
Q 2906 1113 2906 1747 
Q 2906 2381 2643 2742 
Q 2381 3103 1925 3103 
Q 1469 3103 1208 2742 
Q 947 2381 947 1747 
z
" transform="scale(0.015625)"/>
       <path id="DejaVuSans-69" d="M 603 3500 
L 1178 3500 
L 1178 0 
L 603 0 
L 603 3500 
z
M 603 4863 
L 1178 4863 
L 1178 4134 
L 603 4134 
L 603 4863 
z
" transform="scale(0.015625)"/>
       <path id="DejaVuSans-6d" d="M 3328 2828 
Q 3544 3216 3844 3400 
Q 4144 3584 4550 3584 
Q 5097 3584 5394 3201 
Q 5691 2819 5691 2113 
L 5691 0 
L 5113 0 
L 5113 2094 
Q 5113 2597 4934 2840 
Q 4756 3084 4391 3084 
Q 3944 3084 3684 2787 
Q 3425 2491 3425 1978 
L 3425 0 
L 2847 0 
L 2847 2094 
Q 2847 2600 2669 2842 
Q 2491 3084 2119 3084 
Q 1678 3084 1418 2786 
Q 1159 2488 1159 1978 
L 1159 0 
L 581 0 
L 581 3500 
L 1159 3500 
L 1159 2956 
Q 1356 3278 1631 3431 
Q 1906 3584 2284 3584 
Q 2666 3584 2933 3390 
Q 3200 3197 3328 2828 
z
" transform="scale(0.015625)"/>
       <path id="DejaVuSans-6e" d="M 3513 2113 
L 3513 0 
L 2938 0 
L 2938 2094 
Q 2938 2591 2744 2837 
Q 2550 3084 2163 3084 
Q 1697 3084 1428 2787 
Q 1159 2491 1159 1978 
L 1159 0 
L 581 0 
L 581 3500 
L 1159 3500 
L 1159 2956 
Q 1366 3272 1645 3428 
Q 1925 3584 2291 3584 
Q 2894 3584 3203 3211 
Q 3513 2838 3513 2113 
z
" transform="scale(0.015625)"/>
       <path id="DejaVuSans-29" d="M 513 4856 
L 1013 4856 
Q 1481 4119 1714 3412 
Q 1947 2706 1947 2009 
Q 1947 1309 1714 600 
Q 1481 -109 1013 -844 
L 513 -844 
Q 928 -128 1133 580 
Q 1338 1288 1338 2009 
Q 1338 2731 1133 3434 
Q 928 4138 513 4856 
z
" transform="scale(0.015625)"/>
      </defs>
      <use xlink:href="#DejaVuSans-6c"/>
      <use xlink:href="#DejaVuSans-6f" x="27.783203"/>
      <use xlink:href="#DejaVuSans-67" x="88.964844"/>
      <use xlink:href="#DejaVuSans-31" x="152.441406"/>
      <use xlink:href="#DejaVuSans-30" x="216.064453"/>
      <use xlink:href="#DejaVuSans-28" x="279.6875"/>
      <use xlink:href="#DejaVuSans-23" x="318.701172"/>
      <use xlink:href="#DejaVuSans-20" x="402.490234"/>
      <use xlink:href="#DejaVuSans-66" x="434.277344"/>
      <use xlink:href="#DejaVuSans-2d" x="463.982422"/>
      <use xlink:href="#DejaVuSans-65" x="500.066406"/>
      <use xlink:href="#DejaVuSans-76" x="561.589844"/>
      <use xlink:href="#DejaVuSans-61" x="620.769531"/>
      <use xlink:href="#DejaVuSans-6c" x="682.048828"/>
      <use xlink:href="#DejaVuSans-73" x="709.832031"/>
      <use xlink:href="#DejaVuSans-20" x="761.931641"/>
      <use xlink:href="#DejaVuSans-2f" x="793.71875"/>
      <use xlink:href="#DejaVuSans-20" x="827.410156"/>
      <use xlink:href="#DejaVuSans-64" x="859.197266"/>
      <use xlink:href="#DejaVuSans-69" x="922.673828"/>
      <use xlink:href="#DejaVuSans-6d" x="950.457031"/>
      <use xlink:href="#DejaVuSans-65" x="1047.869141"/>
      <use xlink:href="#DejaVuSans-6e" x="1109.392578"/>
      <use xlink:href="#DejaVuSans-73" x="1172.771484"/>
      <use xlink:href="#DejaVuSans-69" x="1224.871094"/>
      <use xlink:href="#DejaVuSans-6f" x="1252.654297"/>
      <use xlink:href="#DejaVuSans-6e" x="1313.835938"/>
      <use xlink:href="#DejaVuSans-29" x="1377.214844"/>
     </g>
    </g>
   </g>
   <g id="matplotlib.axis_2">
    <g id="ytick_1">
     <g id="line2d_21">
      <path d="M 57.6 298.944 
L 360.8064 298.944 
" clip-path="url(#pe6ebf6f2ab)" style="fill: none; stroke: #b0b0b0; stroke-width: 0.8; stroke-linecap: square"/>
     </g>
     <g id="line2d_22">
      <defs>
       <path id="ma35377a940" d="M 0 0 
L -3.5 0 
" style="stroke: #000000; stroke-width: 0.8"/>
      </defs>
      <g>
       <use xlink:href="#ma35377a940" x="57.6" y="298.944" style="stroke: #000000; stroke-width: 0.8"/>
      </g>
     </g>
     <g id="text_6">
      <!-- 0.0 -->
      <g transform="translate(25.155 305.02275)scale(0.16 -0.16)">
       <defs>
        <path id="DejaVuSans-2e" d="M 684 794 
L 1344 794 
L 1344 0 
L 684 0 
L 684 794 
z
" transform="scale(0.015625)"/>
       </defs>
       <use xlink:href="#DejaVuSans-30"/>
       <use xlink:href="#DejaVuSans-2e" x="63.623047"/>
       <use xlink:href="#DejaVuSans-30" x="95.410156"/>
      </g>
     </g>
    </g>
    <g id="ytick_2">
     <g id="line2d_23">
      <path d="M 57.6 240.5376 
L 360.8064 240.5376 
" clip-path="url(#pe6ebf6f2ab)" style="fill: none; stroke: #b0b0b0; stroke-width: 0.8; stroke-linecap: square"/>
     </g>
     <g id="line2d_24">
      <g>
       <use xlink:href="#ma35377a940" x="57.6" y="240.5376" style="stroke: #000000; stroke-width: 0.8"/>
      </g>
     </g>
     <g id="text_7">
      <!-- 0.2 -->
      <g transform="translate(25.155 246.61635)scale(0.16 -0.16)">
       <use xlink:href="#DejaVuSans-30"/>
       <use xlink:href="#DejaVuSans-2e" x="63.623047"/>
       <use xlink:href="#DejaVuSans-32" x="95.410156"/>
      </g>
     </g>
    </g>
    <g id="ytick_3">
     <g id="line2d_25">
      <path d="M 57.6 182.1312 
L 360.8064 182.1312 
" clip-path="url(#pe6ebf6f2ab)" style="fill: none; stroke: #b0b0b0; stroke-width: 0.8; stroke-linecap: square"/>
     </g>
     <g id="line2d_26">
      <g>
       <use xlink:href="#ma35377a940" x="57.6" y="182.1312" style="stroke: #000000; stroke-width: 0.8"/>
      </g>
     </g>
     <g id="text_8">
      <!-- 0.4 -->
      <g transform="translate(25.155 188.20995)scale(0.16 -0.16)">
       <use xlink:href="#DejaVuSans-30"/>
       <use xlink:href="#DejaVuSans-2e" x="63.623047"/>
       <use xlink:href="#DejaVuSans-34" x="95.410156"/>
      </g>
     </g>
    </g>
    <g id="ytick_4">
     <g id="line2d_27">
      <path d="M 57.6 123.7248 
L 360.8064 123.7248 
" clip-path="url(#pe6ebf6f2ab)" style="fill: none; stroke: #b0b0b0; stroke-width: 0.8; stroke-linecap: square"/>
     </g>
     <g id="line2d_28">
      <g>
       <use xlink:href="#ma35377a940" x="57.6" y="123.7248" style="stroke: #000000; stroke-width: 0.8"/>
      </g>
     </g>
     <g id="text_9">
      <!-- 0.6 -->
      <g transform="translate(25.155 129.80355)scale(0.16 -0.16)">
       <use xlink:href="#DejaVuSans-30"/>
       <use xlink:href="#DejaVuSans-2e" x="63.623047"/>
       <use xlink:href="#DejaVuSans-36" x="95.410156"/>
      </g>
     </g>
    </g>
    <g id="ytick_5">
     <g id="line2d_29">
      <path d="M 57.6 65.3184 
L 360.8064 65.3184 
" clip-path="url(#pe6ebf6f2ab)" style="fill: none; stroke: #b0b0b0; stroke-width: 0.8; stroke-linecap: square"/>
     </g>
     <g id="line2d_30">
      <g>
       <use xlink:href="#ma35377a940" x="57.6" y="65.3184" style="stroke: #000000; stroke-width: 0.8"/>
      </g>
     </g>
     <g id="text_10">
      <!-- 0.8 -->
      <g transform="translate(25.155 71.39715)scale(0.16 -0.16)">
       <defs>
        <path id="DejaVuSans-38" d="M 2034 2216 
Q 1584 2216 1326 1975 
Q 1069 1734 1069 1313 
Q 1069 891 1326 650 
Q 1584 409 2034 409 
Q 2484 409 2743 651 
Q 3003 894 3003 1313 
Q 3003 1734 2745 1975 
Q 2488 2216 2034 2216 
z
M 1403 2484 
Q 997 2584 770 2862 
Q 544 3141 544 3541 
Q 544 4100 942 4425 
Q 1341 4750 2034 4750 
Q 2731 4750 3128 4425 
Q 3525 4100 3525 3541 
Q 3525 3141 3298 2862 
Q 3072 2584 2669 2484 
Q 3125 2378 3379 2068 
Q 3634 1759 3634 1313 
Q 3634 634 3220 271 
Q 2806 -91 2034 -91 
Q 1263 -91 848 271 
Q 434 634 434 1313 
Q 434 1759 690 2068 
Q 947 2378 1403 2484 
z
M 1172 3481 
Q 1172 3119 1398 2916 
Q 1625 2713 2034 2713 
Q 2441 2713 2670 2916 
Q 2900 3119 2900 3481 
Q 2900 3844 2670 4047 
Q 2441 4250 2034 4250 
Q 1625 4250 1398 4047 
Q 1172 3844 1172 3481 
z
" transform="scale(0.015625)"/>
       </defs>
       <use xlink:href="#DejaVuSans-30"/>
       <use xlink:href="#DejaVuSans-2e" x="63.623047"/>
       <use xlink:href="#DejaVuSans-38" x="95.410156"/>
      </g>
     </g>
    </g>
    <g id="ytick_6">
     <g id="line2d_31">
      <path d="M 57.6 6.912 
L 360.8064 6.912 
" clip-path="url(#pe6ebf6f2ab)" style="fill: none; stroke: #b0b0b0; stroke-width: 0.8; stroke-linecap: square"/>
     </g>
     <g id="line2d_32">
      <g>
       <use xlink:href="#ma35377a940" x="57.6" y="6.912" style="stroke: #000000; stroke-width: 0.8"/>
      </g>
     </g>
     <g id="text_11">
      <!-- 1.0 -->
      <g transform="translate(25.155 12.99075)scale(0.16 -0.16)">
       <use xlink:href="#DejaVuSans-31"/>
       <use xlink:href="#DejaVuSans-2e" x="63.623047"/>
       <use xlink:href="#DejaVuSans-30" x="95.410156"/>
      </g>
     </g>
    </g>
    <g id="text_12">
     <!-- Fraction of function,target pairs -->
     <g transform="translate(17.619531 287.313)rotate(-90)scale(0.17 -0.17)">
      <defs>
       <path id="DejaVuSans-46" d="M 628 4666 
L 3309 4666 
L 3309 4134 
L 1259 4134 
L 1259 2759 
L 3109 2759 
L 3109 2228 
L 1259 2228 
L 1259 0 
L 628 0 
L 628 4666 
z
" transform="scale(0.015625)"/>
       <path id="DejaVuSans-72" d="M 2631 2963 
Q 2534 3019 2420 3045 
Q 2306 3072 2169 3072 
Q 1681 3072 1420 2755 
Q 1159 2438 1159 1844 
L 1159 0 
L 581 0 
L 581 3500 
L 1159 3500 
L 1159 2956 
Q 1341 3275 1631 3429 
Q 1922 3584 2338 3584 
Q 2397 3584 2469 3576 
Q 2541 3569 2628 3553 
L 2631 2963 
z
" transform="scale(0.015625)"/>
       <path id="DejaVuSans-63" d="M 3122 3366 
L 3122 2828 
Q 2878 2963 2633 3030 
Q 2388 3097 2138 3097 
Q 1578 3097 1268 2742 
Q 959 2388 959 1747 
Q 959 1106 1268 751 
Q 1578 397 2138 397 
Q 2388 397 2633 464 
Q 2878 531 3122 666 
L 3122 134 
Q 2881 22 2623 -34 
Q 2366 -91 2075 -91 
Q 1284 -91 818 406 
Q 353 903 353 1747 
Q 353 2603 823 3093 
Q 1294 3584 2113 3584 
Q 2378 3584 2631 3529 
Q 2884 3475 3122 3366 
z
" transform="scale(0.015625)"/>
       <path id="DejaVuSans-74" d="M 1172 4494 
L 1172 3500 
L 2356 3500 
L 2356 3053 
L 1172 3053 
L 1172 1153 
Q 1172 725 1289 603 
Q 1406 481 1766 481 
L 2356 481 
L 2356 0 
L 1766 0 
Q 1100 0 847 248 
Q 594 497 594 1153 
L 594 3053 
L 172 3053 
L 172 3500 
L 594 3500 
L 594 4494 
L 1172 4494 
z
" transform="scale(0.015625)"/>
       <path id="DejaVuSans-75" d="M 544 1381 
L 544 3500 
L 1119 3500 
L 1119 1403 
Q 1119 906 1312 657 
Q 1506 409 1894 409 
Q 2359 409 2629 706 
Q 2900 1003 2900 1516 
L 2900 3500 
L 3475 3500 
L 3475 0 
L 2900 0 
L 2900 538 
Q 2691 219 2414 64 
Q 2138 -91 1772 -91 
Q 1169 -91 856 284 
Q 544 659 544 1381 
z
M 1991 3584 
L 1991 3584 
z
" transform="scale(0.015625)"/>
       <path id="DejaVuSans-2c" d="M 750 794 
L 1409 794 
L 1409 256 
L 897 -744 
L 494 -744 
L 750 256 
L 750 794 
z
" transform="scale(0.015625)"/>
       <path id="DejaVuSans-70" d="M 1159 525 
L 1159 -1331 
L 581 -1331 
L 581 3500 
L 1159 3500 
L 1159 2969 
Q 1341 3281 1617 3432 
Q 1894 3584 2278 3584 
Q 2916 3584 3314 3078 
Q 3713 2572 3713 1747 
Q 3713 922 3314 415 
Q 2916 -91 2278 -91 
Q 1894 -91 1617 61 
Q 1341 213 1159 525 
z
M 3116 1747 
Q 3116 2381 2855 2742 
Q 2594 3103 2138 3103 
Q 1681 3103 1420 2742 
Q 1159 2381 1159 1747 
Q 1159 1113 1420 752 
Q 1681 391 2138 391 
Q 2594 391 2855 752 
Q 3116 1113 3116 1747 
z
" transform="scale(0.015625)"/>
      </defs>
      <use xlink:href="#DejaVuSans-46"/>
      <use xlink:href="#DejaVuSans-72" x="50.269531"/>
      <use xlink:href="#DejaVuSans-61" x="91.382812"/>
      <use xlink:href="#DejaVuSans-63" x="152.662109"/>
      <use xlink:href="#DejaVuSans-74" x="207.642578"/>
      <use xlink:href="#DejaVuSans-69" x="246.851562"/>
      <use xlink:href="#DejaVuSans-6f" x="274.634766"/>
      <use xlink:href="#DejaVuSans-6e" x="335.816406"/>
      <use xlink:href="#DejaVuSans-20" x="399.195312"/>
      <use xlink:href="#DejaVuSans-6f" x="430.982422"/>
      <use xlink:href="#DejaVuSans-66" x="492.164062"/>
      <use xlink:href="#DejaVuSans-20" x="527.369141"/>
      <use xlink:href="#DejaVuSans-66" x="559.15625"/>
      <use xlink:href="#DejaVuSans-75" x="594.361328"/>
      <use xlink:href="#DejaVuSans-6e" x="657.740234"/>
      <use xlink:href="#DejaVuSans-63" x="721.119141"/>
      <use xlink:href="#DejaVuSans-74" x="776.099609"/>
      <use xlink:href="#DejaVuSans-69" x="815.308594"/>
      <use xlink:href="#DejaVuSans-6f" x="843.091797"/>
      <use xlink:href="#DejaVuSans-6e" x="904.273438"/>
      <use xlink:href="#DejaVuSans-2c" x="967.652344"/>
      <use xlink:href="#DejaVuSans-74" x="999.439453"/>
      <use xlink:href="#DejaVuSans-61" x="1038.648438"/>
      <use xlink:href="#DejaVuSans-72" x="1099.927734"/>
      <use xlink:href="#DejaVuSans-67" x="1139.291016"/>
      <use xlink:href="#DejaVuSans-65" x="1202.767578"/>
      <use xlink:href="#DejaVuSans-74" x="1264.291016"/>
      <use xlink:href="#DejaVuSans-20" x="1303.5"/>
      <use xlink:href="#DejaVuSans-70" x="1335.287109"/>
      <use xlink:href="#DejaVuSans-61" x="1398.763672"/>
      <use xlink:href="#DejaVuSans-69" x="1460.042969"/>
      <use xlink:href="#DejaVuSans-72" x="1487.826172"/>
      <use xlink:href="#DejaVuSans-73" x="1528.939453"/>
     </g>
    </g>
   </g>
   <g id="line2d_33">
    <defs>
     <path id="m09696586f2" d="M 0 1.5 
C 0.397805 1.5 0.77937 1.341951 1.06066 1.06066 
C 1.341951 0.77937 1.5 0.397805 1.5 0 
C 1.5 -0.397805 1.341951 -0.77937 1.06066 -1.06066 
C 0.77937 -1.341951 0.397805 -1.5 0 -1.5 
C -0.397805 -1.5 -0.77937 -1.341951 -1.06066 -1.06066 
C -1.341951 -0.77937 -1.5 -0.397805 -1.5 0 
C -1.5 0.397805 -1.341951 0.77937 -1.06066 1.06066 
C -0.77937 1.341951 -0.397805 1.5 0 1.5 
z
" style="stroke: #f5deb3"/>
    </defs>
    <g>
     <use xlink:href="#m09696586f2" x="355.424599" y="46.994824" style="fill: #f5deb3; stroke: #f5deb3"/>
     <use xlink:href="#m09696586f2" x="355.424599" y="46.994824" style="fill: #f5deb3; stroke: #f5deb3"/>
    </g>
   </g>
   <g id="line2d_34">
    <defs>
     <path id="m8e6853e998" d="M 0 1.5 
C 0.397805 1.5 0.77937 1.341951 1.06066 1.06066 
C 1.341951 0.77937 1.5 0.397805 1.5 0 
C 1.5 -0.397805 1.341951 -0.77937 1.06066 -1.06066 
C 0.77937 -1.341951 0.397805 -1.5 0 -1.5 
C -0.397805 -1.5 -0.77937 -1.341951 -1.06066 -1.06066 
C -1.341951 -0.77937 -1.5 -0.397805 -1.5 0 
C -1.5 0.397805 -1.341951 0.77937 -1.06066 1.06066 
C -0.77937 1.341951 -0.397805 1.5 0 1.5 
z
" style="stroke: #ff00ff"/>
    </defs>
    <g>
     <use xlink:href="#m8e6853e998" x="369.976067" y="127.160471" style="fill: #ff00ff; stroke: #ff00ff"/>
     <use xlink:href="#m8e6853e998" x="369.976067" y="127.160471" style="fill: #ff00ff; stroke: #ff00ff"/>
    </g>
   </g>
   <g id="line2d_35">
    <path d="M -1 291.080132 
L 1.245626 291.080132 
L 1.245626 290.698391 
L 18.482477 290.622042 
L 18.482477 290.545694 
L 21.912228 290.545694 
L 21.912228 290.392998 
L 27.323974 290.316649 
L 27.323974 290.163953 
L 31.521651 290.163953 
L 31.521651 290.011256 
L 40.363149 289.934908 
L 40.363149 289.85856 
L 47.990577 289.782212 
L 47.990577 289.705864 
L 57.6 289.629515 
L 57.6 289.553167 
L 82.084235 289.476819 
L 82.084235 289.400471 
L 84.257212 289.324122 
L 84.257212 289.247774 
L 85.147866 289.171426 
L 85.147866 289.095078 
L 86.101895 289.018729 
L 86.101895 288.866033 
L 89.497162 288.789685 
L 89.497162 288.713336 
L 90.668036 288.636988 
L 90.668036 288.56064 
L 91.46189 288.484292 
L 91.46189 288.407944 
L 92.223596 288.331595 
L 92.223596 288.255247 
L 93.027318 288.178899 
L 93.027318 288.102551 
L 93.66029 288.026202 
L 93.729323 287.873506 
L 94.604437 287.797158 
L 94.604437 287.720809 
L 94.930469 287.720809 
L 94.995002 287.491765 
L 95.814395 287.415416 
L 95.875972 287.186372 
L 96.301453 287.110024 
L 96.301453 287.033675 
L 96.599582 287.033675 
L 96.599582 286.880979 
L 97.239295 286.804631 
L 97.296386 286.575586 
L 97.746984 286.499238 
L 97.746984 286.270193 
L 98.077987 286.193845 
L 98.077987 286.117496 
L 98.403267 286.117496 
L 98.403267 285.9648 
L 98.670102 285.9648 
L 98.670102 285.735755 
L 99.244147 285.659407 
L 99.244147 285.583059 
L 100.583083 285.506711 
L 100.583083 285.430362 
L 101.05576 285.354014 
L 101.148887 284.972273 
L 101.653002 284.895925 
L 101.653002 284.819576 
L 102.099854 284.743228 
L 102.099854 284.66688 
L 102.62243 284.590532 
L 102.708132 284.285139 
L 102.750837 284.285139 
L 102.793446 284.056094 
L 103.666625 283.979746 
L 103.666625 283.903398 
L 104.068596 283.827049 
L 104.068596 283.750701 
L 104.539892 283.674353 
L 104.539892 283.598005 
L 104.732832 283.598005 
L 104.809458 282.834522 
L 104.999667 282.834522 
L 104.999667 282.681826 
L 105.150462 282.605478 
L 105.150462 282.529129 
L 105.595727 282.452781 
L 105.632361 282.300085 
L 105.814468 282.300085 
L 105.814468 282.07104 
L 106.455833 281.994692 
L 106.560633 281.841995 
L 106.768498 281.765647 
L 106.768498 281.612951 
L 107.244765 281.536602 
L 107.31183 281.383906 
L 107.445245 281.307558 
L 107.478452 281.078513 
L 107.610695 281.078513 
L 107.709271 280.849468 
L 107.774703 280.77312 
L 107.807334 280.620424 
L 108.22646 280.544075 
L 108.22646 280.391379 
L 108.353566 280.391379 
L 108.385208 280.009638 
L 108.573955 279.933289 
L 108.573955 279.856941 
L 108.729809 279.856941 
L 108.822706 279.322504 
L 108.884383 279.322504 
L 108.976522 278.940762 
L 109.068211 278.940762 
L 109.068211 278.788066 
L 109.25026 278.711718 
L 109.340628 278.329976 
L 109.520071 278.253628 
L 109.520071 277.948235 
L 109.638757 277.948235 
L 109.727282 277.490146 
L 109.990385 277.413798 
L 110.019393 277.108405 
L 110.192506 277.108405 
L 110.249859 276.573967 
L 110.449226 276.497619 
L 110.534026 276.115878 
L 110.702489 276.115878 
L 110.786158 275.276047 
L 110.924785 275.199699 
L 111.034955 274.970654 
L 111.144484 274.970654 
L 111.253379 274.665261 
L 111.307591 274.665261 
L 111.361647 274.054475 
L 111.469296 274.054475 
L 111.576332 273.214645 
L 111.682763 273.214645 
L 111.762192 272.832904 
L 112.102564 272.756555 
L 112.128493 272.603859 
L 112.36026 272.527511 
L 112.462359 272.298466 
L 112.563906 272.222118 
L 112.589207 271.611332 
L 112.939899 271.611332 
L 112.939899 271.458635 
L 113.235374 271.382287 
L 113.235374 271.229591 
L 113.598309 271.153242 
L 113.693921 270.847849 
L 113.883699 270.771501 
L 113.883699 270.695153 
L 114.094935 270.695153 
L 114.188061 269.855322 
L 114.326893 269.778974 
L 114.418881 269.473581 
L 114.578786 269.397233 
L 114.669553 269.244536 
L 114.692177 269.244536 
L 114.7824 268.939144 
L 114.961559 268.862795 
L 114.961559 268.786447 
L 115.20515 268.710099 
L 115.20515 268.557402 
L 115.423891 268.481054 
L 115.423891 268.404706 
L 115.747307 268.328358 
L 115.747307 268.252009 
L 116.086263 268.175661 
L 116.086263 268.099313 
L 116.336531 268.022965 
L 116.398581 267.870268 
L 116.786884 267.79392 
L 116.786884 267.717572 
L 117.04802 267.641224 
L 117.107771 267.412179 
L 117.733577 267.335831 
L 117.733577 267.259482 
L 117.981981 267.183134 
L 117.981981 267.106786 
L 118.152051 267.030438 
L 118.152051 266.954089 
L 118.301945 266.877741 
L 118.320598 266.725045 
L 118.817362 266.648696 
L 118.907933 266.496 
L 119.06987 266.419652 
L 119.177058 266.190607 
L 119.669351 266.114259 
L 119.669351 266.037911 
L 120.250317 265.961562 
L 120.250317 265.885214 
L 120.63339 265.808866 
L 120.63339 265.732518 
L 120.862802 265.656169 
L 120.9116 265.503473 
L 121.660021 265.427125 
L 121.722363 265.274428 
L 121.86188 265.19808 
L 121.954321 265.045384 
L 122.183453 264.969035 
L 122.213795 264.739991 
L 122.883845 264.663642 
L 122.883845 264.587294 
L 123.530848 264.510946 
L 123.530848 264.434598 
L 124.197305 264.358249 
L 124.306121 264.205553 
L 124.441262 264.129205 
L 124.441262 264.052856 
L 125.526971 263.976508 
L 125.615735 263.823812 
L 127.134109 263.747464 
L 127.134109 263.671115 
L 128.956723 263.594767 
L 128.956723 263.518419 
L 130.067235 263.442071 
L 130.067235 263.365722 
L 130.676331 263.289374 
L 130.676331 263.213026 
L 132.384709 263.136678 
L 132.4376 262.907633 
L 132.949924 262.907633 
L 132.949924 262.754936 
L 133.795812 262.678588 
L 133.795812 262.60224 
L 134.376412 262.525892 
L 134.479359 262.373195 
L 134.628814 262.296847 
L 134.667947 262.144151 
L 135.388902 262.067802 
L 135.388902 261.991454 
L 136.046948 261.915106 
L 136.046948 261.762409 
L 137.439996 261.686061 
L 137.439996 261.609713 
L 138.057259 261.533365 
L 138.057259 261.457016 
L 139.074004 261.380668 
L 139.074004 261.30432 
L 139.374701 261.227972 
L 139.405115 261.075275 
L 140.53161 260.998927 
L 140.53161 260.922579 
L 140.781828 260.846231 
L 140.781828 260.769882 
L 141.387718 260.693534 
L 141.387718 260.617186 
L 141.65386 260.617186 
L 141.65386 260.464489 
L 142.996254 260.388141 
L 142.996254 260.311793 
L 143.623446 260.235445 
L 143.633158 260.082748 
L 144.300811 260.0064 
L 144.300811 259.930052 
L 145.246498 259.853704 
L 145.330965 259.701007 
L 154.126386 259.624659 
L 154.126386 259.548311 
L 159.541606 259.471962 
L 159.541606 259.395614 
L 159.833168 259.319266 
L 159.833168 259.242918 
L 159.970143 259.166569 
L 160.077795 258.937525 
L 160.377179 258.861176 
L 160.48055 258.632132 
L 160.567577 258.555784 
L 160.567577 258.479435 
L 160.787299 258.403087 
L 160.787299 258.326739 
L 161.091045 258.250391 
L 161.106392 258.097694 
L 161.344577 258.021346 
L 161.344577 257.944998 
L 161.469132 257.868649 
L 161.469132 257.792301 
L 161.613412 257.715953 
L 161.712082 257.486908 
L 161.966595 257.41056 
L 161.966595 257.257864 
L 162.370732 257.181515 
L 162.370732 257.105167 
L 162.667795 257.028819 
L 162.710104 256.799774 
L 163.318239 256.723426 
L 163.377815 256.494381 
L 163.669551 256.494381 
L 163.669551 256.341685 
L 164.125811 256.265336 
L 164.125811 256.188988 
L 164.459284 256.11264 
L 164.459284 256.036292 
L 164.904839 255.959944 
L 164.904839 255.883595 
L 165.112101 255.807247 
L 165.112101 255.654551 
L 165.506243 255.578202 
L 165.506243 255.501854 
L 165.913101 255.425506 
L 165.913101 255.349158 
L 166.07724 255.272809 
L 166.07724 255.196461 
L 166.200508 255.196461 
L 166.200508 255.043765 
L 166.538263 254.967416 
L 166.538263 254.891068 
L 166.704181 254.891068 
L 166.704181 254.738372 
L 167.222446 254.662024 
L 167.298486 254.509327 
L 168.44396 254.432979 
L 168.44396 254.356631 
L 170.877348 254.280282 
L 170.877348 254.203934 
L 172.314244 254.127586 
L 172.314244 254.051238 
L 173.236088 253.974889 
L 173.236088 253.898541 
L 174.503604 253.822193 
L 174.602121 253.669496 
L 175.451993 253.593148 
L 175.451993 253.5168 
L 175.581246 253.440452 
L 175.581246 253.364104 
L 175.837117 253.287755 
L 175.907094 253.135059 
L 176.094742 253.058711 
L 176.094742 252.982362 
L 176.342916 252.906014 
L 176.342916 252.829666 
L 176.677743 252.753318 
L 176.677743 252.676969 
L 177.400326 252.600621 
L 177.400326 252.524273 
L 178.0222 252.447925 
L 178.0222 252.371576 
L 178.408329 252.295228 
L 178.408329 252.21888 
L 178.95079 252.142532 
L 178.95079 252.066184 
L 179.537168 251.989835 
L 179.537168 251.913487 
L 179.882396 251.837139 
L 179.956461 251.684442 
L 181.314911 251.608094 
L 181.314911 251.531746 
L 181.552463 251.455398 
L 181.589936 251.302701 
L 182.649678 251.226353 
L 182.720923 250.997308 
L 183.350275 250.92096 
L 183.350275 250.844612 
L 183.82447 250.768264 
L 183.82447 250.691915 
L 185.060522 250.615567 
L 185.060522 250.539219 
L 186.444561 250.462871 
L 186.444561 250.386522 
L 189.347936 250.310174 
L 189.347936 250.233826 
L 189.669929 250.157478 
L 189.669929 250.081129 
L 189.9708 250.004781 
L 189.9708 249.928433 
L 191.383185 249.852085 
L 191.434887 249.62304 
L 191.591041 249.546692 
L 191.666368 249.393995 
L 191.846831 249.317647 
L 191.87151 249.164951 
L 192.211453 249.164951 
L 192.231626 248.935906 
L 192.472033 248.859558 
L 192.472033 248.783209 
L 192.701541 248.706861 
L 192.711193 248.554165 
L 193.019908 248.477816 
L 193.019908 248.401468 
L 193.173607 248.32512 
L 193.173607 248.248772 
L 193.310144 248.248772 
L 193.310144 248.096075 
L 193.48895 248.019727 
L 193.596651 247.790682 
L 193.816624 247.714334 
L 193.858362 247.561638 
L 194.007722 247.485289 
L 194.075313 247.332593 
L 194.189631 247.256245 
L 194.285847 247.0272 
L 194.445231 246.950852 
L 194.537882 246.798155 
L 194.663933 246.721807 
L 194.663933 246.645459 
L 195.015292 246.569111 
L 195.015292 246.492762 
L 195.63417 246.416414 
L 195.63417 246.340066 
L 198.465373 246.263718 
L 198.465373 246.187369 
L 199.159841 246.111021 
L 199.159841 246.034673 
L 199.402282 245.958325 
L 199.460035 245.805628 
L 199.658936 245.72928 
L 199.740764 245.500235 
L 199.837903 245.423887 
L 199.908967 245.194842 
L 200.093066 245.118494 
L 200.154756 244.889449 
L 200.346005 244.813101 
L 200.408534 244.584056 
L 200.743531 244.507708 
L 200.743531 244.43136 
L 202.686406 244.355012 
L 202.797112 244.202315 
L 203.298579 244.125967 
L 203.298579 244.049619 
L 203.677023 243.973271 
L 203.677023 243.896922 
L 206.469399 243.820574 
L 206.469399 243.744226 
L 206.737488 243.667878 
L 206.737488 243.591529 
L 207.086382 243.515181 
L 207.178856 243.362485 
L 207.376879 243.286136 
L 207.442481 243.13344 
L 207.604277 243.057092 
L 207.695697 242.828047 
L 207.890932 242.751699 
L 207.890932 242.675351 
L 208.412727 242.599002 
L 208.412727 242.522654 
L 209.127483 242.446306 
L 209.127483 242.369958 
L 209.476174 242.293609 
L 209.485699 242.140913 
L 210.125457 242.064565 
L 210.125457 241.988216 
L 214.344447 241.911868 
L 214.344447 241.83552 
L 216.441484 241.759172 
L 216.46384 241.530127 
L 228.239767 241.453779 
L 228.239767 241.377431 
L 232.375714 241.301082 
L 232.375714 241.224734 
L 233.077025 241.148386 
L 233.077025 241.072038 
L 233.975101 240.995689 
L 233.975101 240.919341 
L 237.667452 240.842993 
L 237.667452 240.766645 
L 246.596367 240.690296 
L 246.596367 240.613948 
L 247.855499 240.5376 
L 247.855499 240.461252 
L 248.65715 240.384904 
L 248.65715 240.308555 
L 250.367832 240.232207 
L 250.367832 240.155859 
L 250.960606 240.079511 
L 251.024539 239.926814 
L 251.319107 239.850466 
L 251.319107 239.774118 
L 252.191896 239.697769 
L 252.191896 239.621421 
L 260.800228 239.545073 
L 260.857651 239.392376 
L 260.984315 239.316028 
L 260.984315 239.23968 
L 261.355708 239.163332 
L 261.355708 239.086984 
L 261.540689 239.010635 
L 261.540689 238.934287 
L 262.021579 238.857939 
L 262.021579 238.781591 
L 262.561001 238.705242 
L 262.624167 238.552546 
L 263.088777 238.476198 
L 263.148364 238.247153 
L 263.278655 238.170805 
L 263.278655 238.094456 
L 263.912004 238.018108 
L 263.931309 237.865412 
L 264.162555 237.789064 
L 264.258625 237.636367 
L 264.603615 237.560019 
L 264.627201 237.407322 
L 264.723849 237.330974 
L 264.820883 236.338447 
L 264.905238 236.262099 
L 265.004208 235.880358 
L 265.035725 235.804009 
L 265.131563 234.964179 
L 265.158766 234.887831 
L 265.266364 233.971652 
L 265.292634 233.895304 
L 265.394153 232.215642 
L 265.421421 232.139294 
L 265.485508 231.299464 
L 265.625282 231.223115 
L 265.731887 230.306936 
L 265.792481 230.230588 
L 265.851827 230.077892 
L 265.926851 230.001544 
L 265.989053 229.772499 
L 270.059449 229.696151 
L 270.059449 229.619802 
L 273.606874 229.543454 
L 273.606874 229.467106 
L 275.601719 229.390758 
L 275.610675 229.238061 
L 276.144219 229.161713 
L 276.173034 229.009016 
L 276.778301 228.932668 
L 276.778301 228.85632 
L 277.14282 228.779972 
L 277.14282 228.703624 
L 277.73284 228.627275 
L 277.790263 228.321882 
L 277.886111 228.245534 
L 277.985983 227.5584 
L 278.004033 227.482052 
L 278.115096 226.489525 
L 278.151621 226.413176 
L 278.254925 225.191605 
L 278.290387 225.115256 
L 278.399134 223.435595 
L 278.436545 223.359247 
L 278.539333 222.672113 
L 278.559744 222.595765 
L 278.648082 221.984979 
L 283.410476 221.908631 
L 283.410476 221.832282 
L 285.324302 221.755934 
L 285.384551 221.450541 
L 285.442016 221.374193 
L 285.550011 220.839755 
L 285.572425 220.763407 
L 285.676196 219.541835 
L 285.69908 219.465487 
L 285.809455 218.47296 
L 285.816285 218.396612 
L 285.926163 216.869647 
L 285.944834 216.793299 
L 286.055784 215.724424 
L 286.080103 215.648075 
L 286.182017 214.655548 
L 286.232599 214.5792 
L 286.322087 214.121111 
L 286.384231 214.044762 
L 286.483471 213.663021 
L 286.534391 213.586673 
L 286.614674 213.28128 
L 287.193992 213.204932 
L 287.2081 212.975887 
L 287.407335 212.899539 
L 287.508298 212.517798 
L 287.710774 212.441449 
L 287.757877 212.136056 
L 287.997128 212.059708 
L 288.081368 211.830664 
L 288.167452 211.754315 
L 288.167452 211.677967 
L 288.359388 211.601619 
L 288.359388 211.525271 
L 288.521657 211.448922 
L 288.521657 211.372574 
L 288.663547 211.296226 
L 288.766938 210.838136 
L 288.880184 210.761788 
L 288.880184 210.68544 
L 289.160064 210.609092 
L 289.202864 210.380047 
L 289.41173 210.303699 
L 289.426803 210.151002 
L 290.213496 210.074654 
L 290.268333 209.921958 
L 290.80667 209.845609 
L 290.903238 209.540216 
L 290.977593 209.463868 
L 291.084286 208.853082 
L 291.097319 208.776734 
L 291.208051 207.326118 
L 291.223373 207.249769 
L 291.33163 205.875501 
L 291.37267 205.799153 
L 291.480933 204.501233 
L 291.498497 204.424885 
L 291.594174 203.814099 
L 291.659131 203.737751 
L 291.760165 203.508706 
L 291.927414 203.432358 
L 291.927414 203.356009 
L 292.304032 203.279661 
L 292.304032 203.203313 
L 292.952079 203.126965 
L 292.952079 203.050616 
L 295.188897 202.974268 
L 295.297845 202.745224 
L 295.313252 202.668875 
L 295.415884 201.905393 
L 295.434122 201.829045 
L 295.53971 200.683821 
L 295.562514 200.607473 
L 295.581389 200.378428 
L 295.780008 200.30208 
L 295.780008 200.225732 
L 298.571316 200.149384 
L 298.680067 199.691294 
L 298.734504 199.614946 
L 298.830525 199.233205 
L 298.882601 199.156856 
L 298.986874 198.164329 
L 299.000498 198.087981 
L 299.068097 197.477195 
L 299.150184 197.400847 
L 299.201647 197.248151 
L 300.083632 197.171802 
L 300.128589 196.942758 
L 300.300801 196.866409 
L 300.393384 196.637365 
L 300.421314 196.561016 
L 300.529879 195.873882 
L 300.555576 195.797534 
L 300.621626 195.492141 
L 300.678117 195.415793 
L 300.772876 195.034052 
L 300.837198 194.957704 
L 300.894586 194.575962 
L 300.951935 194.499614 
L 301.028977 194.194221 
L 301.080866 194.117873 
L 301.080866 194.041525 
L 301.256609 193.965176 
L 301.308428 193.736132 
L 301.465598 193.659784 
L 301.524926 193.507087 
L 301.606825 193.430739 
L 301.712878 192.743605 
L 301.734805 192.667256 
L 301.843289 191.674729 
L 301.864127 191.598381 
L 301.961862 191.21664 
L 302.039073 191.140292 
L 302.092358 190.682202 
L 303.155498 190.605854 
L 303.155498 190.529506 
L 303.968154 190.453158 
L 303.968154 190.376809 
L 304.129087 190.300461 
L 304.240051 189.842372 
L 304.262033 189.766024 
L 304.328026 189.460631 
L 304.394829 189.384282 
L 304.457419 189.155238 
L 304.956536 189.078889 
L 305.03105 188.926193 
L 305.28823 188.849845 
L 305.28823 188.773496 
L 306.280703 188.697148 
L 306.360974 188.239059 
L 306.415787 188.162711 
L 306.522927 187.551925 
L 306.722479 187.475576 
L 306.722479 187.399228 
L 307.71305 187.32288 
L 307.802057 187.093835 
L 307.870542 187.017487 
L 307.938385 186.864791 
L 308.154062 186.788442 
L 308.24039 186.635746 
L 308.291536 186.559398 
L 308.38791 185.948612 
L 308.424076 185.872264 
L 308.518002 184.72704 
L 308.548895 184.650692 
L 308.655875 183.963558 
L 308.688364 183.887209 
L 308.797205 183.123727 
L 308.807115 183.047379 
L 308.91449 182.512941 
L 308.964222 182.436593 
L 309.063138 181.902155 
L 309.174364 181.825807 
L 309.273115 181.596762 
L 309.287509 181.520414 
L 309.379002 181.138673 
L 309.5706 181.062325 
L 309.57532 180.83328 
L 309.791557 180.756932 
L 309.791557 180.680584 
L 310.172385 180.604235 
L 310.259987 180.222494 
L 311.710362 180.146146 
L 311.763958 179.993449 
L 311.843538 179.917101 
L 311.865388 179.611708 
L 312.048015 179.53536 
L 312.048015 179.459012 
L 312.809951 179.382664 
L 312.830826 179.229967 
L 313.02304 179.153619 
L 313.02304 179.077271 
L 313.287371 179.000922 
L 313.383023 178.771878 
L 313.455897 178.695529 
L 313.550553 178.390136 
L 313.739777 178.313788 
L 313.739777 178.23744 
L 313.943274 178.161092 
L 314.039752 177.855699 
L 314.061513 177.779351 
L 314.162408 177.550306 
L 314.247028 177.473958 
L 314.357115 177.015868 
L 314.397841 176.93952 
L 314.491839 176.557779 
L 314.555299 176.481431 
L 314.61421 176.252386 
L 314.715348 176.176038 
L 314.809134 175.412555 
L 314.865646 175.336207 
L 314.962043 174.954466 
L 315.088722 174.878118 
L 315.191489 174.649073 
L 316.083075 174.572725 
L 316.083075 174.496376 
L 317.256351 174.420028 
L 317.359401 174.190984 
L 317.756911 174.114635 
L 317.804649 173.961939 
L 317.900143 173.885591 
L 318.004072 173.656546 
L 318.071088 173.580198 
L 318.177645 173.274805 
L 318.291377 173.198456 
L 318.385908 172.816715 
L 318.428571 172.740367 
L 318.47549 172.358626 
L 318.599551 172.282278 
L 318.633198 171.976885 
L 318.770449 171.900536 
L 318.859543 171.442447 
L 318.920362 171.366099 
L 318.992642 171.060706 
L 319.051687 170.984358 
L 319.147801 170.831661 
L 319.219812 170.755313 
L 319.325393 170.44992 
L 319.558159 170.373572 
L 319.642661 170.144527 
L 319.700879 170.068179 
L 319.700879 169.991831 
L 319.960233 169.915482 
L 319.960233 169.839134 
L 321.390685 169.762786 
L 321.49148 169.457393 
L 321.546199 169.381045 
L 321.60209 169.152 
L 321.791927 169.075652 
L 321.865989 168.846607 
L 321.979219 168.770259 
L 321.979219 168.693911 
L 322.150186 168.617562 
L 322.25359 168.388518 
L 322.326036 168.312169 
L 322.433837 167.777732 
L 322.525235 167.701384 
L 322.63347 167.243294 
L 322.718197 167.166946 
L 322.718197 167.090598 
L 323.035318 167.014249 
L 323.142837 166.785205 
L 323.449011 166.708856 
L 323.449011 166.632508 
L 324.193556 166.55616 
L 324.304194 166.403464 
L 324.437734 166.327115 
L 324.46388 166.174419 
L 324.647597 166.098071 
L 324.73463 165.716329 
L 324.896379 165.639981 
L 324.997413 165.334588 
L 325.023976 165.25824 
L 325.11937 164.800151 
L 325.28579 164.723802 
L 325.362018 164.494758 
L 325.421883 164.418409 
L 325.526448 163.883972 
L 325.612386 163.807624 
L 325.641668 163.502231 
L 325.900897 163.425882 
L 325.928658 163.273186 
L 326.049608 163.196838 
L 326.049608 163.120489 
L 326.274587 163.044141 
L 326.274587 162.967793 
L 326.982529 162.891445 
L 327.087249 162.738748 
L 327.146755 162.6624 
L 327.210964 162.280659 
L 327.400892 162.204311 
L 327.51079 161.822569 
L 327.566137 161.746221 
L 327.675519 161.593525 
L 327.744972 161.517176 
L 327.854014 160.982739 
L 327.880624 160.906391 
L 327.937985 160.524649 
L 328.027009 160.448301 
L 328.13106 160.06656 
L 328.201331 159.990212 
L 328.201331 159.913864 
L 329.155117 159.837515 
L 329.227575 159.608471 
L 329.458399 159.532122 
L 329.464983 159.303078 
L 329.729564 159.226729 
L 329.800858 158.997685 
L 329.981546 158.921336 
L 330.084325 158.615944 
L 330.169016 158.539595 
L 330.17977 158.386899 
L 330.322796 158.310551 
L 330.364001 158.005158 
L 330.541268 157.928809 
L 330.629154 157.699765 
L 331.302854 157.623416 
L 331.302854 157.547068 
L 331.440657 157.47072 
L 331.516801 157.318024 
L 331.724184 157.241675 
L 331.792103 157.088979 
L 331.891104 157.012631 
L 331.974772 156.783586 
L 332.088525 156.707238 
L 332.158889 156.401845 
L 332.267755 156.325496 
L 332.28307 156.020104 
L 332.622425 155.943755 
L 332.622425 155.867407 
L 332.911931 155.791059 
L 332.911931 155.714711 
L 333.141718 155.638362 
L 333.141718 155.562014 
L 333.53849 155.485666 
L 333.59264 155.256621 
L 333.662716 155.180273 
L 333.682479 154.951228 
L 333.858849 154.87488 
L 333.967808 154.493139 
L 333.985495 154.416791 
L 334.082868 153.958701 
L 334.157089 153.882353 
L 334.215864 153.653308 
L 334.30005 153.57696 
L 334.397229 153.347915 
L 334.545289 153.271567 
L 334.545289 153.195219 
L 335.123365 153.118871 
L 335.123365 153.042522 
L 335.45442 152.966174 
L 335.557065 152.813478 
L 335.684365 152.737129 
L 335.722888 152.355388 
L 335.882969 152.27904 
L 335.928851 152.049995 
L 336.618122 151.973647 
L 336.618122 151.897299 
L 336.936939 151.820951 
L 337.029798 151.515558 
L 337.24194 151.439209 
L 337.24194 151.362861 
L 337.408965 151.286513 
L 337.51233 150.904772 
L 337.690631 150.828424 
L 337.738902 150.675727 
L 338.165473 150.599379 
L 338.186061 150.446682 
L 338.363782 150.370334 
L 338.385355 150.141289 
L 338.709502 150.064941 
L 338.789425 149.759548 
L 338.979445 149.6832 
L 338.999274 149.530504 
L 339.542811 149.454155 
L 339.568348 149.225111 
L 339.790181 149.148762 
L 339.875816 148.767021 
L 339.994837 148.690673 
L 340.061654 148.461628 
L 340.393861 148.38528 
L 340.399191 148.232584 
L 340.684261 148.156235 
L 340.684261 148.079887 
L 340.878048 148.003539 
L 340.985107 147.698146 
L 341.123444 147.621798 
L 341.180876 147.392753 
L 341.276843 147.316405 
L 341.31774 147.08736 
L 341.503792 147.011012 
L 341.556726 146.858315 
L 341.942594 146.781967 
L 342.03877 146.552922 
L 342.168771 146.476574 
L 342.267539 146.094833 
L 342.309068 146.018485 
L 342.416119 145.713092 
L 342.464001 145.636744 
L 342.535815 145.331351 
L 342.677667 145.255002 
L 342.751234 145.102306 
L 343.195544 145.025958 
L 343.303359 144.644216 
L 343.450257 144.567868 
L 343.450257 144.49152 
L 343.62639 144.415172 
L 343.62639 144.338824 
L 343.891864 144.262475 
L 343.976957 144.109779 
L 344.140381 144.033431 
L 344.18798 143.880734 
L 344.257646 143.804386 
L 344.257646 143.728038 
L 344.440352 143.651689 
L 344.512164 143.422645 
L 344.639184 143.346296 
L 344.694303 143.1936 
L 344.99512 143.117252 
L 345.103276 142.964555 
L 345.152319 142.888207 
L 345.259301 142.659162 
L 345.564581 142.582814 
L 345.564581 142.506466 
L 345.947261 142.430118 
L 345.947261 142.353769 
L 346.066953 142.277421 
L 346.066953 142.201073 
L 346.315522 142.124725 
L 346.407854 141.972028 
L 346.591333 141.89568 
L 346.591333 141.819332 
L 346.833275 141.742984 
L 346.895388 141.513939 
L 347.106623 141.437591 
L 347.21467 141.208546 
L 347.597036 141.132198 
L 347.673788 140.826805 
L 347.904297 140.750456 
L 347.979801 140.521412 
L 348.160144 140.445064 
L 348.162721 140.292367 
L 348.342094 140.216019 
L 348.342094 140.139671 
L 348.591122 140.063322 
L 348.639053 139.834278 
L 348.722924 139.757929 
L 348.814576 139.528885 
L 348.911374 139.452536 
L 348.976868 139.29984 
L 349.112542 139.223492 
L 349.191695 139.070795 
L 349.274125 138.994447 
L 349.368256 138.689054 
L 349.417867 138.612706 
L 349.417867 138.536358 
L 349.622536 138.460009 
L 349.718701 138.230965 
L 349.879141 138.154616 
L 349.98891 137.696527 
L 350.211739 137.620179 
L 350.305535 137.238438 
L 350.687165 137.162089 
L 350.699352 137.009393 
L 350.880172 136.933045 
L 350.989751 136.704 
L 351.144535 136.627652 
L 351.182367 136.398607 
L 351.475373 136.322259 
L 351.510409 136.169562 
L 351.665037 136.093214 
L 351.692754 135.940518 
L 351.94642 135.864169 
L 352.002086 135.711473 
L 352.303115 135.635125 
L 352.390921 135.482428 
L 352.491517 135.40608 
L 352.491517 135.329732 
L 353.496408 135.253384 
L 353.507189 135.100687 
L 353.670372 135.024339 
L 353.670372 134.947991 
L 354.109759 134.871642 
L 354.109759 134.795294 
L 354.273984 134.718946 
L 354.349756 134.489901 
L 354.451121 134.413553 
L 354.483586 134.260856 
L 354.663337 134.184508 
L 354.690131 134.031812 
L 354.830971 133.955464 
L 354.859879 133.726419 
L 355.036066 133.650071 
L 355.036066 133.573722 
L 355.304692 133.497374 
L 355.334686 133.268329 
L 355.582238 133.191981 
L 355.582238 133.115633 
L 355.882997 133.039285 
L 355.972788 132.81024 
L 356.36977 132.733892 
L 356.36977 132.657544 
L 356.537649 132.581195 
L 356.537649 132.504847 
L 356.747316 132.428499 
L 356.848677 132.199454 
L 356.882948 132.123106 
L 356.962293 131.970409 
L 357.195332 131.894061 
L 357.195332 131.817713 
L 357.351885 131.741365 
L 357.410737 131.51232 
L 357.906141 131.435972 
L 357.941397 131.206927 
L 358.363948 131.130579 
L 358.444678 130.901534 
L 358.855619 130.825186 
L 358.947545 130.519793 
L 359.127964 130.443445 
L 359.127964 130.367096 
L 359.436278 130.290748 
L 359.436278 130.2144 
L 359.819173 130.138052 
L 359.819173 130.061704 
L 360.19865 129.985355 
L 360.19865 129.909007 
L 360.765017 129.832659 
L 360.765017 129.756311 
L 360.8064 129.756311 
" style="fill: none; stroke: #ff00ff; stroke-width: 1.5; stroke-linecap: square"/>
   </g>
   <g id="line2d_36">
    <defs>
     <path id="me021293575" d="M -0 8.485281 
L 5.091169 0 
L 0 -8.485281 
L -5.091169 -0 
z
" style="stroke: #ff00ff; stroke-width: 1.5; stroke-linejoin: miter"/>
    </defs>
    <g>
     <use xlink:href="#me021293575" x="146.010502" y="259.624659" style="fill-opacity: 0; stroke: #ff00ff; stroke-width: 1.5; stroke-linejoin: miter"/>
     <use xlink:href="#me021293575" x="252.546976" y="239.621421" style="fill-opacity: 0; stroke: #ff00ff; stroke-width: 1.5; stroke-linejoin: miter"/>
     <use xlink:href="#me021293575" x="307.870542" y="187.017487" style="fill-opacity: 0; stroke: #ff00ff; stroke-width: 1.5; stroke-linejoin: miter"/>
     <use xlink:href="#me021293575" x="360.765017" y="129.756311" style="fill-opacity: 0; stroke: #ff00ff; stroke-width: 1.5; stroke-linejoin: miter"/>
     <use xlink:href="#me021293575" x="360.8064" y="129.756311" style="fill-opacity: 0; stroke: #ff00ff; stroke-width: 1.5; stroke-linejoin: miter"/>
    </g>
   </g>
   <g id="line2d_37">
    <path style="fill: none; stroke: #ff00ff; stroke-width: 1.5; stroke-linecap: square"/>
    <g/>
   </g>
   <g id="line2d_38">
    <path d="M 287.823966 212.136056 
" clip-path="url(#pe6ebf6f2ab)" style="fill: none; stroke: #ff00ff; stroke-width: 1.5; stroke-linecap: square"/>
    <defs>
     <path id="md492816eb5" d="M -12 12 
L 12 -12 
M -12 -12 
L 12 12 
" style="stroke: #ff00ff"/>
    </defs>
    <g clip-path="url(#pe6ebf6f2ab)">
     <use xlink:href="#md492816eb5" x="287.823966" y="212.136056" style="fill: #ff00ff; stroke: #ff00ff"/>
    </g>
   </g>
   <g id="line2d_39">
    <path d="M 360.8064 129.756311 
L 380.514816 293.10336 
" style="fill: none; stroke: #ff00ff; stroke-width: 1.5; stroke-linecap: square"/>
    <g>
     <use xlink:href="#me021293575" x="360.8064" y="129.756311" style="fill-opacity: 0; stroke: #ff00ff; stroke-width: 1.5; stroke-linejoin: miter"/>
     <use xlink:href="#me021293575" x="380.514816" y="293.10336" style="fill-opacity: 0; stroke: #ff00ff; stroke-width: 1.5; stroke-linejoin: miter"/>
    </g>
   </g>
   <g id="line2d_40">
    <path d="M 360.8064 298.944 
L 360.8064 6.912 
" style="fill: none; stroke: #000000; stroke-width: 1.5; stroke-linecap: square"/>
   </g>
   <g id="patch_3">
    <path d="M 57.6 298.944 
L 360.8064 298.944 
" style="fill: none; stroke: #000000; stroke-width: 0.8; stroke-linejoin: miter; stroke-linecap: square"/>
   </g>
   <g id="patch_4">
    <path d="M 57.6 6.912 
L 360.8064 6.912 
" style="fill: none; stroke: #000000; stroke-width: 0.8; stroke-linejoin: miter; stroke-linecap: square"/>
   </g>
   <g id="text_13">
    <!-- CMA-ES-20 -->
    <g transform="translate(386.578944 296.966485)scale(0.14 -0.14)">
     <defs>
      <path id="DejaVuSans-43" d="M 4122 4306 
L 4122 3641 
Q 3803 3938 3442 4084 
Q 3081 4231 2675 4231 
Q 1875 4231 1450 3742 
Q 1025 3253 1025 2328 
Q 1025 1406 1450 917 
Q 1875 428 2675 428 
Q 3081 428 3442 575 
Q 3803 722 4122 1019 
L 4122 359 
Q 3791 134 3420 21 
Q 3050 -91 2638 -91 
Q 1578 -91 968 557 
Q 359 1206 359 2328 
Q 359 3453 968 4101 
Q 1578 4750 2638 4750 
Q 3056 4750 3426 4639 
Q 3797 4528 4122 4306 
z
" transform="scale(0.015625)"/>
      <path id="DejaVuSans-4d" d="M 628 4666 
L 1569 4666 
L 2759 1491 
L 3956 4666 
L 4897 4666 
L 4897 0 
L 4281 0 
L 4281 4097 
L 3078 897 
L 2444 897 
L 1241 4097 
L 1241 0 
L 628 0 
L 628 4666 
z
" transform="scale(0.015625)"/>
      <path id="DejaVuSans-41" d="M 2188 4044 
L 1331 1722 
L 3047 1722 
L 2188 4044 
z
M 1831 4666 
L 2547 4666 
L 4325 0 
L 3669 0 
L 3244 1197 
L 1141 1197 
L 716 0 
L 50 0 
L 1831 4666 
z
" transform="scale(0.015625)"/>
      <path id="DejaVuSans-45" d="M 628 4666 
L 3578 4666 
L 3578 4134 
L 1259 4134 
L 1259 2753 
L 3481 2753 
L 3481 2222 
L 1259 2222 
L 1259 531 
L 3634 531 
L 3634 0 
L 628 0 
L 628 4666 
z
" transform="scale(0.015625)"/>
      <path id="DejaVuSans-53" d="M 3425 4513 
L 3425 3897 
Q 3066 4069 2747 4153 
Q 2428 4238 2131 4238 
Q 1616 4238 1336 4038 
Q 1056 3838 1056 3469 
Q 1056 3159 1242 3001 
Q 1428 2844 1947 2747 
L 2328 2669 
Q 3034 2534 3370 2195 
Q 3706 1856 3706 1288 
Q 3706 609 3251 259 
Q 2797 -91 1919 -91 
Q 1588 -91 1214 -16 
Q 841 59 441 206 
L 441 856 
Q 825 641 1194 531 
Q 1563 422 1919 422 
Q 2459 422 2753 634 
Q 3047 847 3047 1241 
Q 3047 1584 2836 1778 
Q 2625 1972 2144 2069 
L 1759 2144 
Q 1053 2284 737 2584 
Q 422 2884 422 3419 
Q 422 4038 858 4394 
Q 1294 4750 2059 4750 
Q 2388 4750 2728 4690 
Q 3069 4631 3425 4513 
z
" transform="scale(0.015625)"/>
     </defs>
     <use xlink:href="#DejaVuSans-43"/>
     <use xlink:href="#DejaVuSans-4d" x="69.824219"/>
     <use xlink:href="#DejaVuSans-41" x="156.103516"/>
     <use xlink:href="#DejaVuSans-2d" x="222.261719"/>
     <use xlink:href="#DejaVuSans-45" x="258.345703"/>
     <use xlink:href="#DejaVuSans-53" x="321.529297"/>
     <use xlink:href="#DejaVuSans-2d" x="385.005859"/>
     <use xlink:href="#DejaVuSans-32" x="421.089844"/>
     <use xlink:href="#DejaVuSans-30" x="484.712891"/>
    </g>
   </g>
   <g id="text_14">
    <!-- best 2009 -->
    <g transform="translate(386.578944 16.615765)scale(0.14 -0.14)">
     <defs>
      <path id="DejaVuSans-62" d="M 3116 1747 
Q 3116 2381 2855 2742 
Q 2594 3103 2138 3103 
Q 1681 3103 1420 2742 
Q 1159 2381 1159 1747 
Q 1159 1113 1420 752 
Q 1681 391 2138 391 
Q 2594 391 2855 752 
Q 3116 1113 3116 1747 
z
M 1159 2969 
Q 1341 3281 1617 3432 
Q 1894 3584 2278 3584 
Q 2916 3584 3314 3078 
Q 3713 2572 3713 1747 
Q 3713 922 3314 415 
Q 2916 -91 2278 -91 
Q 1894 -91 1617 61 
Q 1341 213 1159 525 
L 1159 0 
L 581 0 
L 581 4863 
L 1159 4863 
L 1159 2969 
z
" transform="scale(0.015625)"/>
      <path id="DejaVuSans-39" d="M 703 97 
L 703 672 
Q 941 559 1184 500 
Q 1428 441 1663 441 
Q 2288 441 2617 861 
Q 2947 1281 2994 2138 
Q 2813 1869 2534 1725 
Q 2256 1581 1919 1581 
Q 1219 1581 811 2004 
Q 403 2428 403 3163 
Q 403 3881 828 4315 
Q 1253 4750 1959 4750 
Q 2769 4750 3195 4129 
Q 3622 3509 3622 2328 
Q 3622 1225 3098 567 
Q 2575 -91 1691 -91 
Q 1453 -91 1209 -44 
Q 966 3 703 97 
z
M 1959 2075 
Q 2384 2075 2632 2365 
Q 2881 2656 2881 3163 
Q 2881 3666 2632 3958 
Q 2384 4250 1959 4250 
Q 1534 4250 1286 3958 
Q 1038 3666 1038 3163 
Q 1038 2656 1286 2365 
Q 1534 2075 1959 2075 
z
" transform="scale(0.015625)"/>
     </defs>
     <use xlink:href="#DejaVuSans-62"/>
     <use xlink:href="#DejaVuSans-65" x="63.476562"/>
     <use xlink:href="#DejaVuSans-73" x="125"/>
     <use xlink:href="#DejaVuSans-74" x="177.099609"/>
     <use xlink:href="#DejaVuSans-20" x="216.308594"/>
     <use xlink:href="#DejaVuSans-32" x="248.095703"/>
     <use xlink:href="#DejaVuSans-30" x="311.71875"/>
     <use xlink:href="#DejaVuSans-30" x="375.341797"/>
     <use xlink:href="#DejaVuSans-39" x="438.964844"/>
    </g>
   </g>
   <g id="text_15">
    <!-- bbob f20-f24, 40-D -->
    <g transform="translate(60.632064 17.582726)scale(0.102 -0.102)">
     <defs>
      <path id="DejaVuSans-44" d="M 1259 4147 
L 1259 519 
L 2022 519 
Q 2988 519 3436 956 
Q 3884 1394 3884 2338 
Q 3884 3275 3436 3711 
Q 2988 4147 2022 4147 
L 1259 4147 
z
M 628 4666 
L 1925 4666 
Q 3281 4666 3915 4102 
Q 4550 3538 4550 2338 
Q 4550 1131 3912 565 
Q 3275 0 1925 0 
L 628 0 
L 628 4666 
z
" transform="scale(0.015625)"/>
     </defs>
     <use xlink:href="#DejaVuSans-62"/>
     <use xlink:href="#DejaVuSans-62" x="63.476562"/>
     <use xlink:href="#DejaVuSans-6f" x="126.953125"/>
     <use xlink:href="#DejaVuSans-62" x="188.134766"/>
     <use xlink:href="#DejaVuSans-20" x="251.611328"/>
     <use xlink:href="#DejaVuSans-66" x="283.398438"/>
     <use xlink:href="#DejaVuSans-32" x="318.603516"/>
     <use xlink:href="#DejaVuSans-30" x="382.226562"/>
     <use xlink:href="#DejaVuSans-2d" x="445.849609"/>
     <use xlink:href="#DejaVuSans-66" x="481.933594"/>
     <use xlink:href="#DejaVuSans-32" x="517.138672"/>
     <use xlink:href="#DejaVuSans-34" x="580.761719"/>
     <use xlink:href="#DejaVuSans-2c" x="644.384766"/>
     <use xlink:href="#DejaVuSans-20" x="676.171875"/>
     <use xlink:href="#DejaVuSans-34" x="707.958984"/>
     <use xlink:href="#DejaVuSans-30" x="771.582031"/>
     <use xlink:href="#DejaVuSans-2d" x="835.205078"/>
     <use xlink:href="#DejaVuSans-44" x="871.289062"/>
    </g>
    <!-- 51 targets: 100..1e-08 -->
    <g transform="translate(60.632064 29.004495)scale(0.102 -0.102)">
     <defs>
      <path id="DejaVuSans-35" d="M 691 4666 
L 3169 4666 
L 3169 4134 
L 1269 4134 
L 1269 2991 
Q 1406 3038 1543 3061 
Q 1681 3084 1819 3084 
Q 2600 3084 3056 2656 
Q 3513 2228 3513 1497 
Q 3513 744 3044 326 
Q 2575 -91 1722 -91 
Q 1428 -91 1123 -41 
Q 819 9 494 109 
L 494 744 
Q 775 591 1075 516 
Q 1375 441 1709 441 
Q 2250 441 2565 725 
Q 2881 1009 2881 1497 
Q 2881 1984 2565 2268 
Q 2250 2553 1709 2553 
Q 1456 2553 1204 2497 
Q 953 2441 691 2322 
L 691 4666 
z
" transform="scale(0.015625)"/>
      <path id="DejaVuSans-3a" d="M 750 794 
L 1409 794 
L 1409 0 
L 750 0 
L 750 794 
z
M 750 3309 
L 1409 3309 
L 1409 2516 
L 750 2516 
L 750 3309 
z
" transform="scale(0.015625)"/>
     </defs>
     <use xlink:href="#DejaVuSans-35"/>
     <use xlink:href="#DejaVuSans-31" x="63.623047"/>
     <use xlink:href="#DejaVuSans-20" x="127.246094"/>
     <use xlink:href="#DejaVuSans-74" x="159.033203"/>
     <use xlink:href="#DejaVuSans-61" x="198.242188"/>
     <use xlink:href="#DejaVuSans-72" x="259.521484"/>
     <use xlink:href="#DejaVuSans-67" x="298.884766"/>
     <use xlink:href="#DejaVuSans-65" x="362.361328"/>
     <use xlink:href="#DejaVuSans-74" x="423.884766"/>
     <use xlink:href="#DejaVuSans-73" x="463.09375"/>
     <use xlink:href="#DejaVuSans-3a" x="515.193359"/>
     <use xlink:href="#DejaVuSans-20" x="548.884766"/>
     <use xlink:href="#DejaVuSans-31" x="580.671875"/>
     <use xlink:href="#DejaVuSans-30" x="644.294922"/>
     <use xlink:href="#DejaVuSans-30" x="707.917969"/>
     <use xlink:href="#DejaVuSans-2e" x="771.541016"/>
     <use xlink:href="#DejaVuSans-2e" x="803.328125"/>
     <use xlink:href="#DejaVuSans-31" x="835.115234"/>
     <use xlink:href="#DejaVuSans-65" x="898.738281"/>
     <use xlink:href="#DejaVuSans-2d" x="960.261719"/>
     <use xlink:href="#DejaVuSans-30" x="996.345703"/>
     <use xlink:href="#DejaVuSans-38" x="1059.96875"/>
    </g>
    <!-- 15 instances -->
    <g transform="translate(60.632064 40.426264)scale(0.102 -0.102)">
     <use xlink:href="#DejaVuSans-31"/>
     <use xlink:href="#DejaVuSans-35" x="63.623047"/>
     <use xlink:href="#DejaVuSans-20" x="127.246094"/>
     <use xlink:href="#DejaVuSans-69" x="159.033203"/>
     <use xlink:href="#DejaVuSans-6e" x="186.816406"/>
     <use xlink:href="#DejaVuSans-73" x="250.195312"/>
     <use xlink:href="#DejaVuSans-74" x="302.294922"/>
     <use xlink:href="#DejaVuSans-61" x="341.503906"/>
     <use xlink:href="#DejaVuSans-6e" x="402.783203"/>
     <use xlink:href="#DejaVuSans-63" x="466.162109"/>
     <use xlink:href="#DejaVuSans-65" x="521.142578"/>
     <use xlink:href="#DejaVuSans-73" x="582.666016"/>
    </g>
   </g>
   <g id="text_16">
    <!-- v2.6 -->
    <g style="fill: #808080" transform="translate(198.292262 293.943992)scale(0.1 -0.1)">
     <use xlink:href="#DejaVuSans-76"/>
     <use xlink:href="#DejaVuSans-32" x="59.179688"/>
     <use xlink:href="#DejaVuSans-2e" x="122.802734"/>
     <use xlink:href="#DejaVuSans-36" x="154.589844"/>
    </g>
   </g>
  </g>
 </g>
 <defs>
  <clipPath id="pe6ebf6f2ab">
   <rect x="57.6" y="6.912" width="303.2064" height="292.032"/>
  </clipPath>
 </defs>
</svg>
