<?xml version="1.0" encoding="utf-8" standalone="no"?>
<!DOCTYPE svg PUBLIC "-//W3C//DTD SVG 1.1//EN"
  "http://www.w3.org/Graphics/SVG/1.1/DTD/svg11.dtd">
<svg xmlns:xlink="http://www.w3.org/1999/xlink" width="460.8pt" height="345.6pt" viewBox="0 0 460.8 345.6" xmlns="http://www.w3.org/2000/svg" version="1.1">
 <metadata>
  <rdf:RDF xmlns:dc="http://purl.org/dc/elements/1.1/" xmlns:cc="http://creativecommons.org/ns#" xmlns:rdf="http://www.w3.org/1999/02/22-rdf-syntax-ns#">
   <cc:Work>
    <dc:type rdf:resource="http://purl.org/dc/dcmitype/StillImage"/>
    <dc:date>2022-03-21T13:14:10.190578</dc:date>
    <dc:format>image/svg+xml</dc:format>
    <dc:creator>
     <cc:Agent>
      <dc:title>Matplotlib v3.5.1, https://matplotlib.org/</dc:title>
     </cc:Agent>
    </dc:creator>
   </cc:Work>
  </rdf:RDF>
 </metadata>
 <defs>
  <style type="text/css">*{stroke-linejoin: round; stroke-linecap: butt}</style>
 </defs>
 <g id="figure_1">
  <g id="patch_1">
   <path d="M 0 345.6 
L 460.8 345.6 
L 460.8 0 
L 0 0 
z
" style="fill: #ffffff"/>
  </g>
  <g id="axes_1">
   <g id="patch_2">
    <path d="M 57.6 298.944 
L 360.8064 298.944 
L 360.8064 27.648 
L 57.6 27.648 
z
" style="fill: #ffffff"/>
   </g>
   <g id="line2d_1">
    <path d="M 14.2848 298.944 
L 14.2848 293.624471 
L 68.65718 293.624471 
L 68.65718 288.304941 
L 78.266603 288.304941 
L 78.266603 282.985412 
L 85.038813 282.985412 
L 85.038813 277.665882 
L 95.998523 277.665882 
L 95.998523 272.346353 
L 100.535156 272.346353 
L 100.535156 267.026824 
L 109.159456 267.026824 
L 109.159456 261.707294 
L 135.568632 261.707294 
L 135.568632 256.387765 
L 140.312801 256.387765 
L 140.312801 251.068235 
L 163.786321 251.068235 
L 163.786321 245.748706 
L 163.85935 245.748706 
L 163.85935 240.429176 
L 178.244035 240.429176 
L 178.244035 235.109647 
L 178.546935 235.109647 
L 178.546935 229.790118 
L 178.661917 229.790118 
L 178.661917 224.470588 
L 178.71313 224.470588 
L 178.71313 219.151059 
L 179.01159 219.151059 
L 179.01159 213.831529 
L 179.111997 213.831529 
L 179.111997 208.512 
L 179.311218 208.512 
L 179.311218 203.192471 
L 179.447692 203.192471 
L 179.447692 197.872941 
L 179.568815 197.872941 
L 179.568815 192.553412 
L 179.786028 192.553412 
L 179.786028 187.233882 
L 179.871084 187.233882 
L 179.871084 181.914353 
L 179.913468 181.914353 
L 179.913468 176.594824 
L 180.13513 176.594824 
L 180.13513 171.275294 
L 180.257464 171.275294 
L 180.257464 165.955765 
L 180.285156 165.955765 
L 180.285156 160.636235 
L 180.499771 160.636235 
L 180.499771 155.316706 
L 180.527109 155.316706 
L 180.527109 149.997176 
L 180.546222 149.997176 
L 180.546222 144.677647 
L 180.59256 144.677647 
L 180.59256 139.358118 
L 180.630634 139.358118 
L 180.630634 134.038588 
L 180.884301 134.038588 
L 180.884301 128.719059 
L 180.916439 128.719059 
L 180.916439 123.399529 
L 181.073658 123.399529 
L 181.073658 118.08 
L 184.010964 118.08 
L 184.010964 112.760471 
L 184.031383 112.760471 
L 184.031383 107.440941 
L 184.245576 107.440941 
L 184.245576 102.121412 
L 184.30154 102.121412 
L 184.30154 96.801882 
L 184.326111 96.801882 
L 184.326111 91.482353 
L 184.426297 91.482353 
L 184.426297 86.162824 
L 188.050439 86.162824 
L 188.050439 80.843294 
L 188.065084 80.843294 
L 188.065084 75.523765 
L 188.097994 75.523765 
L 188.097994 70.204235 
L 188.118077 70.204235 
L 188.118077 64.884706 
L 188.147251 64.884706 
L 188.147251 59.565176 
L 188.194562 59.565176 
L 188.194562 54.245647 
L 188.207279 54.245647 
L 188.207279 48.926118 
L 193.154769 48.926118 
L 193.154769 43.606588 
L 193.202178 43.606588 
L 193.202178 38.287059 
L 193.235571 38.287059 
L 193.235571 32.967529 
L 193.485521 32.967529 
L 193.485521 27.648 
L 360.8064 27.648 
" style="fill: none; stroke: #f5deb3; stroke-width: 4; stroke-linecap: square"/>
   </g>
   <g id="line2d_2">
    <defs>
     <path id="mba148c0bed" d="M -0 7.778175 
L 7.778175 0 
L 0 -7.778175 
L -7.778175 -0 
z
" style="stroke: #f5deb3; stroke-width: 1.5; stroke-linejoin: miter"/>
    </defs>
    <g>
     <use xlink:href="#mba148c0bed" x="109.159456" y="261.707294" style="fill: #f5deb3; stroke: #f5deb3; stroke-width: 1.5; stroke-linejoin: miter"/>
     <use xlink:href="#mba148c0bed" x="180.285156" y="165.955765" style="fill: #f5deb3; stroke: #f5deb3; stroke-width: 1.5; stroke-linejoin: miter"/>
     <use xlink:href="#mba148c0bed" x="193.235571" y="32.967529" style="fill: #f5deb3; stroke: #f5deb3; stroke-width: 1.5; stroke-linejoin: miter"/>
     <use xlink:href="#mba148c0bed" x="193.485521" y="27.648" style="fill: #f5deb3; stroke: #f5deb3; stroke-width: 1.5; stroke-linejoin: miter"/>
     <use xlink:href="#mba148c0bed" x="193.485521" y="27.648" style="fill: #f5deb3; stroke: #f5deb3; stroke-width: 1.5; stroke-linejoin: miter"/>
     <use xlink:href="#mba148c0bed" x="360.8064" y="27.648" style="fill: #f5deb3; stroke: #f5deb3; stroke-width: 1.5; stroke-linejoin: miter"/>
    </g>
   </g>
   <g id="line2d_3">
    <path style="fill: none; stroke: #f5deb3; stroke-width: 4; stroke-linecap: square"/>
    <g/>
   </g>
   <g id="line2d_4">
    <path d="M 360.8064 27.648 
L 380.514816 33.07392 
" style="fill: none; stroke: #f5deb3; stroke-width: 4; stroke-linecap: square"/>
    <g>
     <use xlink:href="#mba148c0bed" x="360.8064" y="27.648" style="fill: #f5deb3; stroke: #f5deb3; stroke-width: 1.5; stroke-linejoin: miter"/>
     <use xlink:href="#mba148c0bed" x="380.514816" y="33.07392" style="fill: #f5deb3; stroke: #f5deb3; stroke-width: 1.5; stroke-linejoin: miter"/>
    </g>
   </g>
   <g id="matplotlib.axis_1">
    <g id="xtick_1">
     <g id="line2d_5">
      <path d="M 57.6 298.944 
L 57.6 27.648 
" clip-path="url(#pd635199ab1)" style="fill: none; stroke: #b0b0b0; stroke-width: 0.8; stroke-linecap: square"/>
     </g>
     <g id="line2d_6">
      <defs>
       <path id="m6459304eba" d="M 0 0 
L 0 3.5 
" style="stroke: #000000; stroke-width: 0.8"/>
      </defs>
      <g>
       <use xlink:href="#m6459304eba" x="57.6" y="298.944" style="stroke: #000000; stroke-width: 0.8"/>
      </g>
     </g>
     <g id="text_1">
      <!-- 0 -->
      <g transform="translate(52.191875 318.861344)scale(0.17 -0.17)">
       <defs>
        <path id="DejaVuSans-30" d="M 2034 4250 
Q 1547 4250 1301 3770 
Q 1056 3291 1056 2328 
Q 1056 1369 1301 889 
Q 1547 409 2034 409 
Q 2525 409 2770 889 
Q 3016 1369 3016 2328 
Q 3016 3291 2770 3770 
Q 2525 4250 2034 4250 
z
M 2034 4750 
Q 2819 4750 3233 4129 
Q 3647 3509 3647 2328 
Q 3647 1150 3233 529 
Q 2819 -91 2034 -91 
Q 1250 -91 836 529 
Q 422 1150 422 2328 
Q 422 3509 836 4129 
Q 1250 4750 2034 4750 
z
" transform="scale(0.015625)"/>
       </defs>
       <use xlink:href="#DejaVuSans-30"/>
      </g>
     </g>
    </g>
    <g id="xtick_2">
     <g id="line2d_7">
      <path d="M 144.2304 298.944 
L 144.2304 27.648 
" clip-path="url(#pd635199ab1)" style="fill: none; stroke: #b0b0b0; stroke-width: 0.8; stroke-linecap: square"/>
     </g>
     <g id="line2d_8">
      <g>
       <use xlink:href="#m6459304eba" x="144.2304" y="298.944" style="stroke: #000000; stroke-width: 0.8"/>
      </g>
     </g>
     <g id="text_2">
      <!-- 2 -->
      <g transform="translate(138.822275 318.861344)scale(0.17 -0.17)">
       <defs>
        <path id="DejaVuSans-32" d="M 1228 531 
L 3431 531 
L 3431 0 
L 469 0 
L 469 531 
Q 828 903 1448 1529 
Q 2069 2156 2228 2338 
Q 2531 2678 2651 2914 
Q 2772 3150 2772 3378 
Q 2772 3750 2511 3984 
Q 2250 4219 1831 4219 
Q 1534 4219 1204 4116 
Q 875 4013 500 3803 
L 500 4441 
Q 881 4594 1212 4672 
Q 1544 4750 1819 4750 
Q 2544 4750 2975 4387 
Q 3406 4025 3406 3419 
Q 3406 3131 3298 2873 
Q 3191 2616 2906 2266 
Q 2828 2175 2409 1742 
Q 1991 1309 1228 531 
z
" transform="scale(0.015625)"/>
       </defs>
       <use xlink:href="#DejaVuSans-32"/>
      </g>
     </g>
    </g>
    <g id="xtick_3">
     <g id="line2d_9">
      <path d="M 230.8608 298.944 
L 230.8608 27.648 
" clip-path="url(#pd635199ab1)" style="fill: none; stroke: #b0b0b0; stroke-width: 0.8; stroke-linecap: square"/>
     </g>
     <g id="line2d_10">
      <g>
       <use xlink:href="#m6459304eba" x="230.8608" y="298.944" style="stroke: #000000; stroke-width: 0.8"/>
      </g>
     </g>
     <g id="text_3">
      <!-- 4 -->
      <g transform="translate(225.452675 318.861344)scale(0.17 -0.17)">
       <defs>
        <path id="DejaVuSans-34" d="M 2419 4116 
L 825 1625 
L 2419 1625 
L 2419 4116 
z
M 2253 4666 
L 3047 4666 
L 3047 1625 
L 3713 1625 
L 3713 1100 
L 3047 1100 
L 3047 0 
L 2419 0 
L 2419 1100 
L 313 1100 
L 313 1709 
L 2253 4666 
z
" transform="scale(0.015625)"/>
       </defs>
       <use xlink:href="#DejaVuSans-34"/>
      </g>
     </g>
    </g>
    <g id="xtick_4">
     <g id="line2d_11">
      <path d="M 317.4912 298.944 
L 317.4912 27.648 
" clip-path="url(#pd635199ab1)" style="fill: none; stroke: #b0b0b0; stroke-width: 0.8; stroke-linecap: square"/>
     </g>
     <g id="line2d_12">
      <g>
       <use xlink:href="#m6459304eba" x="317.4912" y="298.944" style="stroke: #000000; stroke-width: 0.8"/>
      </g>
     </g>
     <g id="text_4">
      <!-- 6 -->
      <g transform="translate(312.083075 318.861344)scale(0.17 -0.17)">
       <defs>
        <path id="DejaVuSans-36" d="M 2113 2584 
Q 1688 2584 1439 2293 
Q 1191 2003 1191 1497 
Q 1191 994 1439 701 
Q 1688 409 2113 409 
Q 2538 409 2786 701 
Q 3034 994 3034 1497 
Q 3034 2003 2786 2293 
Q 2538 2584 2113 2584 
z
M 3366 4563 
L 3366 3988 
Q 3128 4100 2886 4159 
Q 2644 4219 2406 4219 
Q 1781 4219 1451 3797 
Q 1122 3375 1075 2522 
Q 1259 2794 1537 2939 
Q 1816 3084 2150 3084 
Q 2853 3084 3261 2657 
Q 3669 2231 3669 1497 
Q 3669 778 3244 343 
Q 2819 -91 2113 -91 
Q 1303 -91 875 529 
Q 447 1150 447 2328 
Q 447 3434 972 4092 
Q 1497 4750 2381 4750 
Q 2619 4750 2861 4703 
Q 3103 4656 3366 4563 
z
" transform="scale(0.015625)"/>
       </defs>
       <use xlink:href="#DejaVuSans-36"/>
      </g>
     </g>
    </g>
    <g id="xtick_5">
     <g id="line2d_13">
      <path d="M 100.9152 298.944 
L 100.9152 27.648 
" clip-path="url(#pd635199ab1)" style="fill: none; stroke: #b0b0b0; stroke-width: 0.8; stroke-linecap: square"/>
     </g>
     <g id="line2d_14">
      <defs>
       <path id="m32d6e76a27" d="M 0 0 
L 0 2 
" style="stroke: #000000; stroke-width: 0.6"/>
      </defs>
      <g>
       <use xlink:href="#m32d6e76a27" x="100.9152" y="298.944" style="stroke: #000000; stroke-width: 0.6"/>
      </g>
     </g>
    </g>
    <g id="xtick_6">
     <g id="line2d_15">
      <path d="M 187.5456 298.944 
L 187.5456 27.648 
" clip-path="url(#pd635199ab1)" style="fill: none; stroke: #b0b0b0; stroke-width: 0.8; stroke-linecap: square"/>
     </g>
     <g id="line2d_16">
      <g>
       <use xlink:href="#m32d6e76a27" x="187.5456" y="298.944" style="stroke: #000000; stroke-width: 0.6"/>
      </g>
     </g>
    </g>
    <g id="xtick_7">
     <g id="line2d_17">
      <path d="M 274.176 298.944 
L 274.176 27.648 
" clip-path="url(#pd635199ab1)" style="fill: none; stroke: #b0b0b0; stroke-width: 0.8; stroke-linecap: square"/>
     </g>
     <g id="line2d_18">
      <g>
       <use xlink:href="#m32d6e76a27" x="274.176" y="298.944" style="stroke: #000000; stroke-width: 0.6"/>
      </g>
     </g>
    </g>
    <g id="xtick_8">
     <g id="line2d_19">
      <path d="M 360.8064 298.944 
L 360.8064 27.648 
" clip-path="url(#pd635199ab1)" style="fill: none; stroke: #b0b0b0; stroke-width: 0.8; stroke-linecap: square"/>
     </g>
     <g id="line2d_20">
      <g>
       <use xlink:href="#m32d6e76a27" x="360.8064" y="298.944" style="stroke: #000000; stroke-width: 0.6"/>
      </g>
     </g>
    </g>
    <g id="text_5">
     <!-- log10(# f-evals / dimension) -->
     <g transform="translate(88.823278 339.314156)scale(0.17 -0.17)">
      <defs>
       <path id="DejaVuSans-6c" d="M 603 4863 
L 1178 4863 
L 1178 0 
L 603 0 
L 603 4863 
z
" transform="scale(0.015625)"/>
       <path id="DejaVuSans-6f" d="M 1959 3097 
Q 1497 3097 1228 2736 
Q 959 2375 959 1747 
Q 959 1119 1226 758 
Q 1494 397 1959 397 
Q 2419 397 2687 759 
Q 2956 1122 2956 1747 
Q 2956 2369 2687 2733 
Q 2419 3097 1959 3097 
z
M 1959 3584 
Q 2709 3584 3137 3096 
Q 3566 2609 3566 1747 
Q 3566 888 3137 398 
Q 2709 -91 1959 -91 
Q 1206 -91 779 398 
Q 353 888 353 1747 
Q 353 2609 779 3096 
Q 1206 3584 1959 3584 
z
" transform="scale(0.015625)"/>
       <path id="DejaVuSans-67" d="M 2906 1791 
Q 2906 2416 2648 2759 
Q 2391 3103 1925 3103 
Q 1463 3103 1205 2759 
Q 947 2416 947 1791 
Q 947 1169 1205 825 
Q 1463 481 1925 481 
Q 2391 481 2648 825 
Q 2906 1169 2906 1791 
z
M 3481 434 
Q 3481 -459 3084 -895 
Q 2688 -1331 1869 -1331 
Q 1566 -1331 1297 -1286 
Q 1028 -1241 775 -1147 
L 775 -588 
Q 1028 -725 1275 -790 
Q 1522 -856 1778 -856 
Q 2344 -856 2625 -561 
Q 2906 -266 2906 331 
L 2906 616 
Q 2728 306 2450 153 
Q 2172 0 1784 0 
Q 1141 0 747 490 
Q 353 981 353 1791 
Q 353 2603 747 3093 
Q 1141 3584 1784 3584 
Q 2172 3584 2450 3431 
Q 2728 3278 2906 2969 
L 2906 3500 
L 3481 3500 
L 3481 434 
z
" transform="scale(0.015625)"/>
       <path id="DejaVuSans-31" d="M 794 531 
L 1825 531 
L 1825 4091 
L 703 3866 
L 703 4441 
L 1819 4666 
L 2450 4666 
L 2450 531 
L 3481 531 
L 3481 0 
L 794 0 
L 794 531 
z
" transform="scale(0.015625)"/>
       <path id="DejaVuSans-28" d="M 1984 4856 
Q 1566 4138 1362 3434 
Q 1159 2731 1159 2009 
Q 1159 1288 1364 580 
Q 1569 -128 1984 -844 
L 1484 -844 
Q 1016 -109 783 600 
Q 550 1309 550 2009 
Q 550 2706 781 3412 
Q 1013 4119 1484 4856 
L 1984 4856 
z
" transform="scale(0.015625)"/>
       <path id="DejaVuSans-23" d="M 3272 2816 
L 2363 2816 
L 2100 1772 
L 3016 1772 
L 3272 2816 
z
M 2803 4594 
L 2478 3297 
L 3391 3297 
L 3719 4594 
L 4219 4594 
L 3897 3297 
L 4872 3297 
L 4872 2816 
L 3775 2816 
L 3519 1772 
L 4513 1772 
L 4513 1294 
L 3397 1294 
L 3072 0 
L 2572 0 
L 2894 1294 
L 1978 1294 
L 1656 0 
L 1153 0 
L 1478 1294 
L 494 1294 
L 494 1772 
L 1594 1772 
L 1856 2816 
L 850 2816 
L 850 3297 
L 1978 3297 
L 2297 4594 
L 2803 4594 
z
" transform="scale(0.015625)"/>
       <path id="DejaVuSans-20" transform="scale(0.015625)"/>
       <path id="DejaVuSans-66" d="M 2375 4863 
L 2375 4384 
L 1825 4384 
Q 1516 4384 1395 4259 
Q 1275 4134 1275 3809 
L 1275 3500 
L 2222 3500 
L 2222 3053 
L 1275 3053 
L 1275 0 
L 697 0 
L 697 3053 
L 147 3053 
L 147 3500 
L 697 3500 
L 697 3744 
Q 697 4328 969 4595 
Q 1241 4863 1831 4863 
L 2375 4863 
z
" transform="scale(0.015625)"/>
       <path id="DejaVuSans-2d" d="M 313 2009 
L 1997 2009 
L 1997 1497 
L 313 1497 
L 313 2009 
z
" transform="scale(0.015625)"/>
       <path id="DejaVuSans-65" d="M 3597 1894 
L 3597 1613 
L 953 1613 
Q 991 1019 1311 708 
Q 1631 397 2203 397 
Q 2534 397 2845 478 
Q 3156 559 3463 722 
L 3463 178 
Q 3153 47 2828 -22 
Q 2503 -91 2169 -91 
Q 1331 -91 842 396 
Q 353 884 353 1716 
Q 353 2575 817 3079 
Q 1281 3584 2069 3584 
Q 2775 3584 3186 3129 
Q 3597 2675 3597 1894 
z
M 3022 2063 
Q 3016 2534 2758 2815 
Q 2500 3097 2075 3097 
Q 1594 3097 1305 2825 
Q 1016 2553 972 2059 
L 3022 2063 
z
" transform="scale(0.015625)"/>
       <path id="DejaVuSans-76" d="M 191 3500 
L 800 3500 
L 1894 563 
L 2988 3500 
L 3597 3500 
L 2284 0 
L 1503 0 
L 191 3500 
z
" transform="scale(0.015625)"/>
       <path id="DejaVuSans-61" d="M 2194 1759 
Q 1497 1759 1228 1600 
Q 959 1441 959 1056 
Q 959 750 1161 570 
Q 1363 391 1709 391 
Q 2188 391 2477 730 
Q 2766 1069 2766 1631 
L 2766 1759 
L 2194 1759 
z
M 3341 1997 
L 3341 0 
L 2766 0 
L 2766 531 
Q 2569 213 2275 61 
Q 1981 -91 1556 -91 
Q 1019 -91 701 211 
Q 384 513 384 1019 
Q 384 1609 779 1909 
Q 1175 2209 1959 2209 
L 2766 2209 
L 2766 2266 
Q 2766 2663 2505 2880 
Q 2244 3097 1772 3097 
Q 1472 3097 1187 3025 
Q 903 2953 641 2809 
L 641 3341 
Q 956 3463 1253 3523 
Q 1550 3584 1831 3584 
Q 2591 3584 2966 3190 
Q 3341 2797 3341 1997 
z
" transform="scale(0.015625)"/>
       <path id="DejaVuSans-73" d="M 2834 3397 
L 2834 2853 
Q 2591 2978 2328 3040 
Q 2066 3103 1784 3103 
Q 1356 3103 1142 2972 
Q 928 2841 928 2578 
Q 928 2378 1081 2264 
Q 1234 2150 1697 2047 
L 1894 2003 
Q 2506 1872 2764 1633 
Q 3022 1394 3022 966 
Q 3022 478 2636 193 
Q 2250 -91 1575 -91 
Q 1294 -91 989 -36 
Q 684 19 347 128 
L 347 722 
Q 666 556 975 473 
Q 1284 391 1588 391 
Q 1994 391 2212 530 
Q 2431 669 2431 922 
Q 2431 1156 2273 1281 
Q 2116 1406 1581 1522 
L 1381 1569 
Q 847 1681 609 1914 
Q 372 2147 372 2553 
Q 372 3047 722 3315 
Q 1072 3584 1716 3584 
Q 2034 3584 2315 3537 
Q 2597 3491 2834 3397 
z
" transform="scale(0.015625)"/>
       <path id="DejaVuSans-2f" d="M 1625 4666 
L 2156 4666 
L 531 -594 
L 0 -594 
L 1625 4666 
z
" transform="scale(0.015625)"/>
       <path id="DejaVuSans-64" d="M 2906 2969 
L 2906 4863 
L 3481 4863 
L 3481 0 
L 2906 0 
L 2906 525 
Q 2725 213 2448 61 
Q 2172 -91 1784 -91 
Q 1150 -91 751 415 
Q 353 922 353 1747 
Q 353 2572 751 3078 
Q 1150 3584 1784 3584 
Q 2172 3584 2448 3432 
Q 2725 3281 2906 2969 
z
M 947 1747 
Q 947 1113 1208 752 
Q 1469 391 1925 391 
Q 2381 391 2643 752 
Q 2906 1113 2906 1747 
Q 2906 2381 2643 2742 
Q 2381 3103 1925 3103 
Q 1469 3103 1208 2742 
Q 947 2381 947 1747 
z
" transform="scale(0.015625)"/>
       <path id="DejaVuSans-69" d="M 603 3500 
L 1178 3500 
L 1178 0 
L 603 0 
L 603 3500 
z
M 603 4863 
L 1178 4863 
L 1178 4134 
L 603 4134 
L 603 4863 
z
" transform="scale(0.015625)"/>
       <path id="DejaVuSans-6d" d="M 3328 2828 
Q 3544 3216 3844 3400 
Q 4144 3584 4550 3584 
Q 5097 3584 5394 3201 
Q 5691 2819 5691 2113 
L 5691 0 
L 5113 0 
L 5113 2094 
Q 5113 2597 4934 2840 
Q 4756 3084 4391 3084 
Q 3944 3084 3684 2787 
Q 3425 2491 3425 1978 
L 3425 0 
L 2847 0 
L 2847 2094 
Q 2847 2600 2669 2842 
Q 2491 3084 2119 3084 
Q 1678 3084 1418 2786 
Q 1159 2488 1159 1978 
L 1159 0 
L 581 0 
L 581 3500 
L 1159 3500 
L 1159 2956 
Q 1356 3278 1631 3431 
Q 1906 3584 2284 3584 
Q 2666 3584 2933 3390 
Q 3200 3197 3328 2828 
z
" transform="scale(0.015625)"/>
       <path id="DejaVuSans-6e" d="M 3513 2113 
L 3513 0 
L 2938 0 
L 2938 2094 
Q 2938 2591 2744 2837 
Q 2550 3084 2163 3084 
Q 1697 3084 1428 2787 
Q 1159 2491 1159 1978 
L 1159 0 
L 581 0 
L 581 3500 
L 1159 3500 
L 1159 2956 
Q 1366 3272 1645 3428 
Q 1925 3584 2291 3584 
Q 2894 3584 3203 3211 
Q 3513 2838 3513 2113 
z
" transform="scale(0.015625)"/>
       <path id="DejaVuSans-29" d="M 513 4856 
L 1013 4856 
Q 1481 4119 1714 3412 
Q 1947 2706 1947 2009 
Q 1947 1309 1714 600 
Q 1481 -109 1013 -844 
L 513 -844 
Q 928 -128 1133 580 
Q 1338 1288 1338 2009 
Q 1338 2731 1133 3434 
Q 928 4138 513 4856 
z
" transform="scale(0.015625)"/>
      </defs>
      <use xlink:href="#DejaVuSans-6c"/>
      <use xlink:href="#DejaVuSans-6f" x="27.783203"/>
      <use xlink:href="#DejaVuSans-67" x="88.964844"/>
      <use xlink:href="#DejaVuSans-31" x="152.441406"/>
      <use xlink:href="#DejaVuSans-30" x="216.064453"/>
      <use xlink:href="#DejaVuSans-28" x="279.6875"/>
      <use xlink:href="#DejaVuSans-23" x="318.701172"/>
      <use xlink:href="#DejaVuSans-20" x="402.490234"/>
      <use xlink:href="#DejaVuSans-66" x="434.277344"/>
      <use xlink:href="#DejaVuSans-2d" x="463.982422"/>
      <use xlink:href="#DejaVuSans-65" x="500.066406"/>
      <use xlink:href="#DejaVuSans-76" x="561.589844"/>
      <use xlink:href="#DejaVuSans-61" x="620.769531"/>
      <use xlink:href="#DejaVuSans-6c" x="682.048828"/>
      <use xlink:href="#DejaVuSans-73" x="709.832031"/>
      <use xlink:href="#DejaVuSans-20" x="761.931641"/>
      <use xlink:href="#DejaVuSans-2f" x="793.71875"/>
      <use xlink:href="#DejaVuSans-20" x="827.410156"/>
      <use xlink:href="#DejaVuSans-64" x="859.197266"/>
      <use xlink:href="#DejaVuSans-69" x="922.673828"/>
      <use xlink:href="#DejaVuSans-6d" x="950.457031"/>
      <use xlink:href="#DejaVuSans-65" x="1047.869141"/>
      <use xlink:href="#DejaVuSans-6e" x="1109.392578"/>
      <use xlink:href="#DejaVuSans-73" x="1172.771484"/>
      <use xlink:href="#DejaVuSans-69" x="1224.871094"/>
      <use xlink:href="#DejaVuSans-6f" x="1252.654297"/>
      <use xlink:href="#DejaVuSans-6e" x="1313.835938"/>
      <use xlink:href="#DejaVuSans-29" x="1377.214844"/>
     </g>
    </g>
   </g>
   <g id="matplotlib.axis_2">
    <g id="ytick_1">
     <g id="line2d_21">
      <path d="M 57.6 298.944 
L 360.8064 298.944 
" clip-path="url(#pd635199ab1)" style="fill: none; stroke: #b0b0b0; stroke-width: 0.8; stroke-linecap: square"/>
     </g>
     <g id="line2d_22">
      <defs>
       <path id="me1e298717b" d="M 0 0 
L -3.5 0 
" style="stroke: #000000; stroke-width: 0.8"/>
      </defs>
      <g>
       <use xlink:href="#me1e298717b" x="57.6" y="298.944" style="stroke: #000000; stroke-width: 0.8"/>
      </g>
     </g>
     <g id="text_6">
      <!-- 0.0 -->
      <g transform="translate(25.155 305.02275)scale(0.16 -0.16)">
       <defs>
        <path id="DejaVuSans-2e" d="M 684 794 
L 1344 794 
L 1344 0 
L 684 0 
L 684 794 
z
" transform="scale(0.015625)"/>
       </defs>
       <use xlink:href="#DejaVuSans-30"/>
       <use xlink:href="#DejaVuSans-2e" x="63.623047"/>
       <use xlink:href="#DejaVuSans-30" x="95.410156"/>
      </g>
     </g>
    </g>
    <g id="ytick_2">
     <g id="line2d_23">
      <path d="M 57.6 244.6848 
L 360.8064 244.6848 
" clip-path="url(#pd635199ab1)" style="fill: none; stroke: #b0b0b0; stroke-width: 0.8; stroke-linecap: square"/>
     </g>
     <g id="line2d_24">
      <g>
       <use xlink:href="#me1e298717b" x="57.6" y="244.6848" style="stroke: #000000; stroke-width: 0.8"/>
      </g>
     </g>
     <g id="text_7">
      <!-- 0.2 -->
      <g transform="translate(25.155 250.76355)scale(0.16 -0.16)">
       <use xlink:href="#DejaVuSans-30"/>
       <use xlink:href="#DejaVuSans-2e" x="63.623047"/>
       <use xlink:href="#DejaVuSans-32" x="95.410156"/>
      </g>
     </g>
    </g>
    <g id="ytick_3">
     <g id="line2d_25">
      <path d="M 57.6 190.4256 
L 360.8064 190.4256 
" clip-path="url(#pd635199ab1)" style="fill: none; stroke: #b0b0b0; stroke-width: 0.8; stroke-linecap: square"/>
     </g>
     <g id="line2d_26">
      <g>
       <use xlink:href="#me1e298717b" x="57.6" y="190.4256" style="stroke: #000000; stroke-width: 0.8"/>
      </g>
     </g>
     <g id="text_8">
      <!-- 0.4 -->
      <g transform="translate(25.155 196.50435)scale(0.16 -0.16)">
       <use xlink:href="#DejaVuSans-30"/>
       <use xlink:href="#DejaVuSans-2e" x="63.623047"/>
       <use xlink:href="#DejaVuSans-34" x="95.410156"/>
      </g>
     </g>
    </g>
    <g id="ytick_4">
     <g id="line2d_27">
      <path d="M 57.6 136.1664 
L 360.8064 136.1664 
" clip-path="url(#pd635199ab1)" style="fill: none; stroke: #b0b0b0; stroke-width: 0.8; stroke-linecap: square"/>
     </g>
     <g id="line2d_28">
      <g>
       <use xlink:href="#me1e298717b" x="57.6" y="136.1664" style="stroke: #000000; stroke-width: 0.8"/>
      </g>
     </g>
     <g id="text_9">
      <!-- 0.6 -->
      <g transform="translate(25.155 142.24515)scale(0.16 -0.16)">
       <use xlink:href="#DejaVuSans-30"/>
       <use xlink:href="#DejaVuSans-2e" x="63.623047"/>
       <use xlink:href="#DejaVuSans-36" x="95.410156"/>
      </g>
     </g>
    </g>
    <g id="ytick_5">
     <g id="line2d_29">
      <path d="M 57.6 81.9072 
L 360.8064 81.9072 
" clip-path="url(#pd635199ab1)" style="fill: none; stroke: #b0b0b0; stroke-width: 0.8; stroke-linecap: square"/>
     </g>
     <g id="line2d_30">
      <g>
       <use xlink:href="#me1e298717b" x="57.6" y="81.9072" style="stroke: #000000; stroke-width: 0.8"/>
      </g>
     </g>
     <g id="text_10">
      <!-- 0.8 -->
      <g transform="translate(25.155 87.98595)scale(0.16 -0.16)">
       <defs>
        <path id="DejaVuSans-38" d="M 2034 2216 
Q 1584 2216 1326 1975 
Q 1069 1734 1069 1313 
Q 1069 891 1326 650 
Q 1584 409 2034 409 
Q 2484 409 2743 651 
Q 3003 894 3003 1313 
Q 3003 1734 2745 1975 
Q 2488 2216 2034 2216 
z
M 1403 2484 
Q 997 2584 770 2862 
Q 544 3141 544 3541 
Q 544 4100 942 4425 
Q 1341 4750 2034 4750 
Q 2731 4750 3128 4425 
Q 3525 4100 3525 3541 
Q 3525 3141 3298 2862 
Q 3072 2584 2669 2484 
Q 3125 2378 3379 2068 
Q 3634 1759 3634 1313 
Q 3634 634 3220 271 
Q 2806 -91 2034 -91 
Q 1263 -91 848 271 
Q 434 634 434 1313 
Q 434 1759 690 2068 
Q 947 2378 1403 2484 
z
M 1172 3481 
Q 1172 3119 1398 2916 
Q 1625 2713 2034 2713 
Q 2441 2713 2670 2916 
Q 2900 3119 2900 3481 
Q 2900 3844 2670 4047 
Q 2441 4250 2034 4250 
Q 1625 4250 1398 4047 
Q 1172 3844 1172 3481 
z
" transform="scale(0.015625)"/>
       </defs>
       <use xlink:href="#DejaVuSans-30"/>
       <use xlink:href="#DejaVuSans-2e" x="63.623047"/>
       <use xlink:href="#DejaVuSans-38" x="95.410156"/>
      </g>
     </g>
    </g>
    <g id="ytick_6">
     <g id="line2d_31">
      <path d="M 57.6 27.648 
L 360.8064 27.648 
" clip-path="url(#pd635199ab1)" style="fill: none; stroke: #b0b0b0; stroke-width: 0.8; stroke-linecap: square"/>
     </g>
     <g id="line2d_32">
      <g>
       <use xlink:href="#me1e298717b" x="57.6" y="27.648" style="stroke: #000000; stroke-width: 0.8"/>
      </g>
     </g>
     <g id="text_11">
      <!-- 1.0 -->
      <g transform="translate(25.155 33.72675)scale(0.16 -0.16)">
       <use xlink:href="#DejaVuSans-31"/>
       <use xlink:href="#DejaVuSans-2e" x="63.623047"/>
       <use xlink:href="#DejaVuSans-30" x="95.410156"/>
      </g>
     </g>
    </g>
    <g id="text_12">
     <!-- Fraction of function,target pairs -->
     <g transform="translate(17.619531 297.681)rotate(-90)scale(0.17 -0.17)">
      <defs>
       <path id="DejaVuSans-46" d="M 628 4666 
L 3309 4666 
L 3309 4134 
L 1259 4134 
L 1259 2759 
L 3109 2759 
L 3109 2228 
L 1259 2228 
L 1259 0 
L 628 0 
L 628 4666 
z
" transform="scale(0.015625)"/>
       <path id="DejaVuSans-72" d="M 2631 2963 
Q 2534 3019 2420 3045 
Q 2306 3072 2169 3072 
Q 1681 3072 1420 2755 
Q 1159 2438 1159 1844 
L 1159 0 
L 581 0 
L 581 3500 
L 1159 3500 
L 1159 2956 
Q 1341 3275 1631 3429 
Q 1922 3584 2338 3584 
Q 2397 3584 2469 3576 
Q 2541 3569 2628 3553 
L 2631 2963 
z
" transform="scale(0.015625)"/>
       <path id="DejaVuSans-63" d="M 3122 3366 
L 3122 2828 
Q 2878 2963 2633 3030 
Q 2388 3097 2138 3097 
Q 1578 3097 1268 2742 
Q 959 2388 959 1747 
Q 959 1106 1268 751 
Q 1578 397 2138 397 
Q 2388 397 2633 464 
Q 2878 531 3122 666 
L 3122 134 
Q 2881 22 2623 -34 
Q 2366 -91 2075 -91 
Q 1284 -91 818 406 
Q 353 903 353 1747 
Q 353 2603 823 3093 
Q 1294 3584 2113 3584 
Q 2378 3584 2631 3529 
Q 2884 3475 3122 3366 
z
" transform="scale(0.015625)"/>
       <path id="DejaVuSans-74" d="M 1172 4494 
L 1172 3500 
L 2356 3500 
L 2356 3053 
L 1172 3053 
L 1172 1153 
Q 1172 725 1289 603 
Q 1406 481 1766 481 
L 2356 481 
L 2356 0 
L 1766 0 
Q 1100 0 847 248 
Q 594 497 594 1153 
L 594 3053 
L 172 3053 
L 172 3500 
L 594 3500 
L 594 4494 
L 1172 4494 
z
" transform="scale(0.015625)"/>
       <path id="DejaVuSans-75" d="M 544 1381 
L 544 3500 
L 1119 3500 
L 1119 1403 
Q 1119 906 1312 657 
Q 1506 409 1894 409 
Q 2359 409 2629 706 
Q 2900 1003 2900 1516 
L 2900 3500 
L 3475 3500 
L 3475 0 
L 2900 0 
L 2900 538 
Q 2691 219 2414 64 
Q 2138 -91 1772 -91 
Q 1169 -91 856 284 
Q 544 659 544 1381 
z
M 1991 3584 
L 1991 3584 
z
" transform="scale(0.015625)"/>
       <path id="DejaVuSans-2c" d="M 750 794 
L 1409 794 
L 1409 256 
L 897 -744 
L 494 -744 
L 750 256 
L 750 794 
z
" transform="scale(0.015625)"/>
       <path id="DejaVuSans-70" d="M 1159 525 
L 1159 -1331 
L 581 -1331 
L 581 3500 
L 1159 3500 
L 1159 2969 
Q 1341 3281 1617 3432 
Q 1894 3584 2278 3584 
Q 2916 3584 3314 3078 
Q 3713 2572 3713 1747 
Q 3713 922 3314 415 
Q 2916 -91 2278 -91 
Q 1894 -91 1617 61 
Q 1341 213 1159 525 
z
M 3116 1747 
Q 3116 2381 2855 2742 
Q 2594 3103 2138 3103 
Q 1681 3103 1420 2742 
Q 1159 2381 1159 1747 
Q 1159 1113 1420 752 
Q 1681 391 2138 391 
Q 2594 391 2855 752 
Q 3116 1113 3116 1747 
z
" transform="scale(0.015625)"/>
      </defs>
      <use xlink:href="#DejaVuSans-46"/>
      <use xlink:href="#DejaVuSans-72" x="50.269531"/>
      <use xlink:href="#DejaVuSans-61" x="91.382812"/>
      <use xlink:href="#DejaVuSans-63" x="152.662109"/>
      <use xlink:href="#DejaVuSans-74" x="207.642578"/>
      <use xlink:href="#DejaVuSans-69" x="246.851562"/>
      <use xlink:href="#DejaVuSans-6f" x="274.634766"/>
      <use xlink:href="#DejaVuSans-6e" x="335.816406"/>
      <use xlink:href="#DejaVuSans-20" x="399.195312"/>
      <use xlink:href="#DejaVuSans-6f" x="430.982422"/>
      <use xlink:href="#DejaVuSans-66" x="492.164062"/>
      <use xlink:href="#DejaVuSans-20" x="527.369141"/>
      <use xlink:href="#DejaVuSans-66" x="559.15625"/>
      <use xlink:href="#DejaVuSans-75" x="594.361328"/>
      <use xlink:href="#DejaVuSans-6e" x="657.740234"/>
      <use xlink:href="#DejaVuSans-63" x="721.119141"/>
      <use xlink:href="#DejaVuSans-74" x="776.099609"/>
      <use xlink:href="#DejaVuSans-69" x="815.308594"/>
      <use xlink:href="#DejaVuSans-6f" x="843.091797"/>
      <use xlink:href="#DejaVuSans-6e" x="904.273438"/>
      <use xlink:href="#DejaVuSans-2c" x="967.652344"/>
      <use xlink:href="#DejaVuSans-74" x="999.439453"/>
      <use xlink:href="#DejaVuSans-61" x="1038.648438"/>
      <use xlink:href="#DejaVuSans-72" x="1099.927734"/>
      <use xlink:href="#DejaVuSans-67" x="1139.291016"/>
      <use xlink:href="#DejaVuSans-65" x="1202.767578"/>
      <use xlink:href="#DejaVuSans-74" x="1264.291016"/>
      <use xlink:href="#DejaVuSans-20" x="1303.5"/>
      <use xlink:href="#DejaVuSans-70" x="1335.287109"/>
      <use xlink:href="#DejaVuSans-61" x="1398.763672"/>
      <use xlink:href="#DejaVuSans-69" x="1460.042969"/>
      <use xlink:href="#DejaVuSans-72" x="1487.826172"/>
      <use xlink:href="#DejaVuSans-73" x="1528.939453"/>
     </g>
    </g>
   </g>
   <g id="line2d_33">
    <defs>
     <path id="m78187b21d6" d="M 0 1.5 
C 0.397805 1.5 0.77937 1.341951 1.06066 1.06066 
C 1.341951 0.77937 1.5 0.397805 1.5 0 
C 1.5 -0.397805 1.341951 -0.77937 1.06066 -1.06066 
C 0.77937 -1.341951 0.397805 -1.5 0 -1.5 
C -0.397805 -1.5 -0.77937 -1.341951 -1.06066 -1.06066 
C -1.341951 -0.77937 -1.5 -0.397805 -1.5 0 
C -1.5 0.397805 -1.341951 0.77937 -1.06066 1.06066 
C -0.77937 1.341951 -0.397805 1.5 0 1.5 
z
" style="stroke: #f5deb3"/>
    </defs>
    <g>
     <use xlink:href="#m78187b21d6" x="193.485521" y="27.648" style="fill: #f5deb3; stroke: #f5deb3"/>
     <use xlink:href="#m78187b21d6" x="193.485521" y="27.648" style="fill: #f5deb3; stroke: #f5deb3"/>
    </g>
   </g>
   <g id="line2d_34">
    <defs>
     <path id="m194ccb8548" d="M 0 1.5 
C 0.397805 1.5 0.77937 1.341951 1.06066 1.06066 
C 1.341951 0.77937 1.5 0.397805 1.5 0 
C 1.5 -0.397805 1.341951 -0.77937 1.06066 -1.06066 
C 0.77937 -1.341951 0.397805 -1.5 0 -1.5 
C -0.397805 -1.5 -0.77937 -1.341951 -1.06066 -1.06066 
C -1.341951 -0.77937 -1.5 -0.397805 -1.5 0 
C -1.5 0.397805 -1.341951 0.77937 -1.06066 1.06066 
C -0.77937 1.341951 -0.397805 1.5 0 1.5 
z
" style="stroke: #000080"/>
    </defs>
    <g>
     <use xlink:href="#m194ccb8548" x="300.369134" y="27.648" style="fill: #000080; stroke: #000080"/>
     <use xlink:href="#m194ccb8548" x="300.369134" y="27.648" style="fill: #000080; stroke: #000080"/>
    </g>
   </g>
   <g id="line2d_35">
    <path d="M 14.2848 298.944 
L 14.2848 293.624471 
L 50.890391 293.624471 
L 50.890391 292.560565 
L 61.029752 292.560565 
L 61.029752 291.496659 
L 72.432107 291.496659 
L 72.432107 290.432753 
L 84.142855 290.432753 
L 84.142855 289.368847 
L 85.894031 289.368847 
L 85.894031 287.241035 
L 95.998523 287.241035 
L 95.998523 285.113224 
L 98.295464 285.113224 
L 98.295464 284.049318 
L 100.9152 284.049318 
L 100.9152 282.985412 
L 104.028784 282.985412 
L 104.028784 281.921506 
L 105.112877 281.921506 
L 105.112877 280.8576 
L 105.411479 280.8576 
L 105.411479 279.793694 
L 107.643612 279.793694 
L 107.643612 278.729788 
L 109.756698 278.729788 
L 109.756698 277.665882 
L 111.117162 277.665882 
L 111.226215 274.474165 
L 111.442442 274.474165 
L 111.442442 272.346353 
L 112.180244 272.346353 
L 112.180244 271.282447 
L 113.284172 271.282447 
L 113.284172 269.154635 
L 114.510421 269.154635 
L 114.510421 268.090729 
L 115.314838 268.090729 
L 115.314838 267.026824 
L 116.419219 267.026824 
L 116.419219 265.962918 
L 119.876453 265.962918 
L 119.876453 264.899012 
L 121.137664 264.899012 
L 121.137664 263.835106 
L 123.08753 263.835106 
L 123.08753 262.7712 
L 123.202939 262.7712 
L 123.202939 261.707294 
L 125.115773 261.707294 
L 125.115773 260.643388 
L 163.308007 260.643388 
L 163.308007 259.579482 
L 164.324018 259.579482 
L 164.324018 258.515576 
L 175.627383 258.515576 
L 175.627383 257.451671 
L 175.988986 257.451671 
L 176.00289 255.323859 
L 176.227395 255.323859 
L 176.271976 253.196047 
L 183.146981 253.196047 
L 183.146981 250.004329 
L 183.362027 250.004329 
L 183.362027 248.940424 
L 183.502482 248.940424 
L 183.502482 247.876518 
L 188.57417 247.876518 
L 188.57417 246.812612 
L 203.51976 246.812612 
L 203.51976 245.748706 
L 203.644077 245.748706 
L 203.733398 241.493082 
L 203.776312 241.493082 
L 203.882382 237.237459 
L 203.903682 237.237459 
L 203.971367 234.045741 
L 204.028629 234.045741 
L 204.127837 227.662306 
L 204.141077 227.662306 
L 204.224974 221.278871 
L 204.266783 221.278871 
L 204.357821 211.703718 
L 204.385507 211.703718 
L 204.430795 204.256376 
L 214.450625 204.256376 
L 214.452875 202.128565 
L 237.871881 202.128565 
L 237.980421 163.827953 
L 237.984672 163.827953 
L 237.999094 157.444518 
L 238.855459 157.444518 
L 238.965332 126.591247 
L 238.9679 126.591247 
L 238.98684 114.888282 
L 243.445882 114.888282 
L 243.539499 70.204235 
L 274.610715 70.204235 
L 274.631695 61.338353 
L 276.725898 61.338353 
L 276.741219 51.7632 
L 276.853464 51.7632 
L 276.870946 42.542682 
L 277.533722 42.542682 
L 277.544766 36.159247 
L 287.43534 36.159247 
L 287.444578 33.6768 
L 288.533304 33.6768 
L 288.609739 29.775812 
L 288.971808 29.775812 
L 288.973393 28.711906 
L 295.781848 28.711906 
L 295.781848 28.357271 
L 296.03312 28.357271 
L 296.03312 28.002635 
L 300.369134 28.002635 
L 300.369134 27.648 
L 360.8064 27.648 
L 360.8064 27.648 
" style="fill: none; stroke: #000080; stroke-width: 1.5; stroke-linecap: square"/>
   </g>
   <g id="line2d_36">
    <defs>
     <path id="mbc7d6e713c" d="M 0 6 
C 1.591219 6 3.117479 5.367802 4.242641 4.242641 
C 5.367802 3.117479 6 1.591219 6 0 
C 6 -1.591219 5.367802 -3.117479 4.242641 -4.242641 
C 3.117479 -5.367802 1.591219 -6 0 -6 
C -1.591219 -6 -3.117479 -5.367802 -4.242641 -4.242641 
C -5.367802 -3.117479 -6 -1.591219 -6 0 
C -6 1.591219 -5.367802 3.117479 -4.242641 4.242641 
C -3.117479 5.367802 -1.591219 6 0 6 
z
" style="stroke: #000080; stroke-width: 1.5"/>
    </defs>
    <g>
     <use xlink:href="#mbc7d6e713c" x="113.284172" y="269.154635" style="fill-opacity: 0; stroke: #000080; stroke-width: 1.5"/>
     <use xlink:href="#mbc7d6e713c" x="203.873697" y="239.365271" style="fill-opacity: 0; stroke: #000080; stroke-width: 1.5"/>
     <use xlink:href="#mbc7d6e713c" x="243.495152" y="95.737976" style="fill-opacity: 0; stroke: #000080; stroke-width: 1.5"/>
     <use xlink:href="#mbc7d6e713c" x="300.369134" y="27.648" style="fill-opacity: 0; stroke: #000080; stroke-width: 1.5"/>
     <use xlink:href="#mbc7d6e713c" x="300.369134" y="27.648" style="fill-opacity: 0; stroke: #000080; stroke-width: 1.5"/>
     <use xlink:href="#mbc7d6e713c" x="360.8064" y="27.648" style="fill-opacity: 0; stroke: #000080; stroke-width: 1.5"/>
    </g>
   </g>
   <g id="line2d_37">
    <path style="fill: none; stroke: #000080; stroke-width: 1.5; stroke-linecap: square"/>
    <g/>
   </g>
   <g id="line2d_38">
    <path d="M 274.176019 70.204235 
" clip-path="url(#pd635199ab1)" style="fill: none; stroke: #000080; stroke-width: 1.5; stroke-linecap: square"/>
    <defs>
     <path id="m8a16b8d2cb" d="M -12 12 
L 12 -12 
M -12 -12 
L 12 12 
" style="stroke: #000080"/>
    </defs>
    <g clip-path="url(#pd635199ab1)">
     <use xlink:href="#m8a16b8d2cb" x="274.176019" y="70.204235" style="fill: #000080; stroke: #000080"/>
    </g>
   </g>
   <g id="line2d_39">
    <defs>
     <path id="md22d4dce0e" d="M 0 1.5 
C 0.397805 1.5 0.77937 1.341951 1.06066 1.06066 
C 1.341951 0.77937 1.5 0.397805 1.5 0 
C 1.5 -0.397805 1.341951 -0.77937 1.06066 -1.06066 
C 0.77937 -1.341951 0.397805 -1.5 0 -1.5 
C -0.397805 -1.5 -0.77937 -1.341951 -1.06066 -1.06066 
C -1.341951 -0.77937 -1.5 -0.397805 -1.5 0 
C -1.5 0.397805 -1.341951 0.77937 -1.06066 1.06066 
C -0.77937 1.341951 -0.397805 1.5 0 1.5 
z
" style="stroke: #ff00ff"/>
    </defs>
    <g>
     <use xlink:href="#md22d4dce0e" x="301.667285" y="27.648" style="fill: #ff00ff; stroke: #ff00ff"/>
     <use xlink:href="#md22d4dce0e" x="301.667285" y="27.648" style="fill: #ff00ff; stroke: #ff00ff"/>
    </g>
   </g>
   <g id="line2d_40">
    <path d="M 14.2848 298.944 
L 14.2848 293.624471 
L 76.284608 293.624471 
L 76.284608 292.560565 
L 77.628862 292.560565 
L 77.628862 291.496659 
L 98.723018 291.496659 
L 98.723018 290.432753 
L 99.346662 290.432753 
L 99.346662 289.368847 
L 99.751228 289.368847 
L 99.751228 287.241035 
L 102.536336 287.241035 
L 102.536336 286.177129 
L 104.961779 286.177129 
L 104.961779 285.113224 
L 105.411479 285.113224 
L 105.411479 284.049318 
L 105.99483 284.049318 
L 105.99483 282.985412 
L 107.643612 282.985412 
L 107.643612 281.921506 
L 108.542628 281.921506 
L 108.542628 280.8576 
L 109.280431 280.8576 
L 109.280431 279.793694 
L 110.562208 279.793694 
L 110.562208 278.729788 
L 110.786158 278.729788 
L 110.786158 277.665882 
L 112.385837 277.665882 
L 112.385837 276.601976 
L 113.478107 276.601976 
L 113.478107 274.474165 
L 113.954374 274.474165 
L 113.954374 273.410259 
L 115.402131 273.410259 
L 115.402131 272.346353 
L 115.917548 272.346353 
L 115.917548 271.282447 
L 117.462345 271.282447 
L 117.462345 270.218541 
L 118.671535 270.218541 
L 118.671535 269.154635 
L 119.530006 269.154635 
L 119.530006 268.090729 
L 121.008818 268.090729 
L 121.008818 267.026824 
L 121.518993 267.026824 
L 121.518993 265.962918 
L 121.892744 265.962918 
L 121.892744 264.899012 
L 122.19863 264.899012 
L 122.19863 263.835106 
L 124.156336 263.835106 
L 124.156336 262.7712 
L 126.127391 262.7712 
L 126.127391 261.707294 
L 128.999044 261.707294 
L 128.999044 258.515576 
L 131.674076 258.515576 
L 131.674076 257.451671 
L 132.708526 257.451671 
L 132.708526 256.387765 
L 133.086488 256.387765 
L 133.086488 255.323859 
L 134.112526 255.323859 
L 134.112526 253.196047 
L 135.054871 253.196047 
L 135.054871 252.132141 
L 135.776169 252.132141 
L 135.776169 251.068235 
L 136.696795 251.068235 
L 136.696795 250.004329 
L 138.438609 250.004329 
L 138.540708 246.812612 
L 139.604629 246.812612 
L 139.604629 244.6848 
L 140.126547 244.6848 
L 140.126547 242.556988 
L 141.039908 242.556988 
L 141.039908 240.429176 
L 141.523975 240.429176 
L 141.523975 239.365271 
L 142.331827 239.365271 
L 142.331827 238.301365 
L 142.844994 238.301365 
L 142.844994 236.173553 
L 143.18612 236.173553 
L 143.18612 234.045741 
L 143.657415 234.045741 
L 143.657415 232.981835 
L 144.473374 232.981835 
L 144.473374 228.726212 
L 145.555833 228.726212 
L 145.555833 226.5984 
L 145.782376 226.5984 
L 145.782376 225.534494 
L 146.108646 225.534494 
L 146.108646 224.470588 
L 146.261241 224.470588 
L 146.261241 222.342776 
L 147.550096 222.342776 
L 147.550096 221.278871 
L 148.185734 221.278871 
L 148.185734 219.151059 
L 148.83008 219.151059 
L 148.932916 217.023247 
L 159.435025 217.023247 
L 159.435025 215.959341 
L 160.263211 215.959341 
L 160.263211 214.895435 
L 172.11023 214.895435 
L 172.11023 213.831529 
L 172.314244 213.831529 
L 172.411221 211.703718 
L 172.465815 211.703718 
L 172.465815 210.639812 
L 185.479812 210.639812 
L 185.479812 209.575906 
L 195.004223 209.575906 
L 195.072431 205.320282 
L 195.28556 205.320282 
L 195.320433 203.192471 
L 195.506161 203.192471 
L 195.506161 202.128565 
L 195.683971 202.128565 
L 195.774072 200.000753 
L 195.825018 200.000753 
L 195.887905 197.872941 
L 195.946972 197.872941 
L 196.03822 193.617318 
L 196.075313 193.617318 
L 196.180213 186.169976 
L 196.221772 186.169976 
L 196.256138 180.850447 
L 196.360037 180.850447 
L 196.404725 172.3392 
L 196.475071 172.3392 
L 196.576607 163.827953 
L 200.745862 163.827953 
L 200.788711 161.700141 
L 210.254861 161.700141 
L 210.308786 154.2528 
L 210.375976 154.2528 
L 210.484096 148.933271 
L 210.491874 148.933271 
L 210.58607 138.294212 
L 210.615893 138.294212 
L 210.71112 127.655153 
L 210.75554 127.655153 
L 210.850609 114.888282 
L 230.730929 114.888282 
L 230.744941 112.760471 
L 252.24065 112.760471 
L 252.304716 70.204235 
L 274.185667 70.204235 
L 274.198448 62.756894 
L 274.457764 62.756894 
L 274.47762 54.600282 
L 274.795734 54.600282 
L 274.814382 45.025129 
L 279.27961 45.025129 
L 279.293459 35.804612 
L 287.219378 35.804612 
L 287.226796 34.031435 
L 287.359609 34.031435 
L 287.366552 32.967529 
L 287.533818 32.967529 
L 287.537082 31.548988 
L 289.93891 31.548988 
L 289.946591 29.066541 
L 294.942639 29.066541 
L 294.942639 28.711906 
L 295.056244 28.711906 
L 295.056244 28.357271 
L 296.707446 28.357271 
L 296.707446 28.002635 
L 301.667285 28.002635 
L 301.667285 27.648 
L 360.8064 27.648 
L 360.8064 27.648 
" style="fill: none; stroke: #ff00ff; stroke-width: 1.5; stroke-linecap: square"/>
   </g>
   <g id="line2d_41">
    <defs>
     <path id="m5405e5d8e8" d="M -0 8.485281 
L 5.091169 0 
L 0 -8.485281 
L -5.091169 -0 
z
" style="stroke: #ff00ff; stroke-width: 1.5; stroke-linejoin: miter"/>
    </defs>
    <g>
     <use xlink:href="#m5405e5d8e8" x="136.696795" y="251.068235" style="fill-opacity: 0; stroke: #ff00ff; stroke-width: 1.5; stroke-linejoin: miter"/>
     <use xlink:href="#m5405e5d8e8" x="210.254861" y="158.508424" style="fill-opacity: 0; stroke: #ff00ff; stroke-width: 1.5; stroke-linejoin: miter"/>
     <use xlink:href="#m5405e5d8e8" x="252.304716" y="70.204235" style="fill-opacity: 0; stroke: #ff00ff; stroke-width: 1.5; stroke-linejoin: miter"/>
     <use xlink:href="#m5405e5d8e8" x="301.667285" y="27.648" style="fill-opacity: 0; stroke: #ff00ff; stroke-width: 1.5; stroke-linejoin: miter"/>
     <use xlink:href="#m5405e5d8e8" x="301.667285" y="27.648" style="fill-opacity: 0; stroke: #ff00ff; stroke-width: 1.5; stroke-linejoin: miter"/>
     <use xlink:href="#m5405e5d8e8" x="360.8064" y="27.648" style="fill-opacity: 0; stroke: #ff00ff; stroke-width: 1.5; stroke-linejoin: miter"/>
    </g>
   </g>
   <g id="line2d_42">
    <path style="fill: none; stroke: #ff00ff; stroke-width: 1.5; stroke-linecap: square"/>
    <g/>
   </g>
   <g id="line2d_43">
    <path d="M 274.176019 70.204235 
" clip-path="url(#pd635199ab1)" style="fill: none; stroke: #ff00ff; stroke-width: 1.5; stroke-linecap: square"/>
    <defs>
     <path id="me028b85979" d="M -12 12 
L 12 -12 
M -12 -12 
L 12 12 
" style="stroke: #ff00ff"/>
    </defs>
    <g clip-path="url(#pd635199ab1)">
     <use xlink:href="#me028b85979" x="274.176019" y="70.204235" style="fill: #ff00ff; stroke: #ff00ff"/>
    </g>
   </g>
   <g id="line2d_44">
    <defs>
     <path id="m5ad77d1a83" d="M 0 1.5 
C 0.397805 1.5 0.77937 1.341951 1.06066 1.06066 
C 1.341951 0.77937 1.5 0.397805 1.5 0 
C 1.5 -0.397805 1.341951 -0.77937 1.06066 -1.06066 
C 0.77937 -1.341951 0.397805 -1.5 0 -1.5 
C -0.397805 -1.5 -0.77937 -1.341951 -1.06066 -1.06066 
C -1.341951 -0.77937 -1.5 -0.397805 -1.5 0 
C -1.5 0.397805 -1.341951 0.77937 -1.06066 1.06066 
C -0.77937 1.341951 -0.397805 1.5 0 1.5 
z
" style="stroke: #ff7500"/>
    </defs>
    <g>
     <use xlink:href="#m5ad77d1a83" x="308.401057" y="27.648" style="fill: #ff7500; stroke: #ff7500"/>
     <use xlink:href="#m5ad77d1a83" x="308.401057" y="27.648" style="fill: #ff7500; stroke: #ff7500"/>
    </g>
   </g>
   <g id="line2d_45">
    <path d="M 14.2848 298.944 
L 14.2848 293.624471 
L 71.556993 293.624471 
L 71.556993 291.496659 
L 74.068926 291.496659 
L 74.068926 290.432753 
L 87.1081 290.432753 
L 87.1081 289.368847 
L 90.989609 289.368847 
L 90.989609 288.304941 
L 92.223596 288.304941 
L 92.223596 286.177129 
L 96.717523 286.177129 
L 96.717523 285.113224 
L 98.933205 285.113224 
L 98.933205 284.049318 
L 100.342215 284.049318 
L 100.342215 282.985412 
L 100.535156 282.985412 
L 100.535156 281.921506 
L 103.214303 281.921506 
L 103.214303 280.8576 
L 105.26277 280.8576 
L 105.26277 279.793694 
L 106.137884 279.793694 
L 106.137884 278.729788 
L 107.774703 278.729788 
L 107.774703 277.665882 
L 108.542628 277.665882 
L 108.542628 276.601976 
L 109.756698 276.601976 
L 109.756698 274.474165 
L 110.674517 274.474165 
L 110.674517 272.346353 
L 112.283321 272.346353 
L 112.283321 271.282447 
L 112.690074 271.282447 
L 112.690074 270.218541 
L 113.478107 270.218541 
L 113.478107 269.154635 
L 115.402131 269.154635 
L 115.402131 267.026824 
L 115.575511 267.026824 
L 115.575511 265.962918 
L 116.907859 265.962918 
L 116.907859 264.899012 
L 117.226706 264.899012 
L 117.226706 263.835106 
L 117.462345 263.835106 
L 117.540239 261.707294 
L 119.669351 261.707294 
L 119.669351 260.643388 
L 120.550775 260.643388 
L 120.550775 259.579482 
L 121.39274 259.579482 
L 121.39274 258.515576 
L 123.374735 258.515576 
L 123.374735 257.451671 
L 124.210942 257.451671 
L 124.210942 256.387765 
L 125.063736 256.387765 
L 125.063736 255.323859 
L 126.946461 255.323859 
L 126.946461 253.196047 
L 127.227236 253.196047 
L 127.319904 250.004329 
L 129.906795 250.004329 
L 129.906795 247.876518 
L 132.251827 247.876518 
L 132.251827 245.748706 
L 133.754819 245.748706 
L 133.754819 244.6848 
L 135.237805 244.6848 
L 135.237805 243.620894 
L 135.59842 243.620894 
L 135.59842 242.556988 
L 136.97549 242.556988 
L 136.97549 241.493082 
L 138.050729 241.493082 
L 138.050729 240.429176 
L 139.362521 240.429176 
L 139.362521 239.365271 
L 139.580558 239.365271 
L 139.580558 238.301365 
L 140.793122 238.301365 
L 140.793122 237.237459 
L 141.56737 237.237459 
L 141.56737 236.173553 
L 142.143605 236.173553 
L 142.143605 234.045741 
L 142.865233 234.045741 
L 142.865233 231.917929 
L 144.192739 231.917929 
L 144.192739 230.854024 
L 145.765046 230.854024 
L 145.765046 229.790118 
L 147.119461 229.790118 
L 147.119461 228.726212 
L 147.534321 228.726212 
L 147.534321 227.662306 
L 148.800595 227.662306 
L 148.800595 226.5984 
L 149.495789 226.5984 
L 149.495789 225.534494 
L 149.637443 225.534494 
L 149.693807 223.406682 
L 150.546523 223.406682 
L 150.573397 220.214965 
L 151.32359 220.214965 
L 151.32359 217.023247 
L 151.982822 217.023247 
L 151.982822 215.959341 
L 152.119363 215.959341 
L 152.119363 213.831529 
L 152.426047 213.831529 
L 152.426047 211.703718 
L 152.882835 211.703718 
L 152.882835 208.512 
L 153.409804 208.512 
L 153.409804 207.448094 
L 162.970663 207.448094 
L 162.970663 205.320282 
L 163.585698 205.320282 
L 163.585698 204.256376 
L 164.181259 204.256376 
L 164.181259 203.192471 
L 164.561694 203.192471 
L 164.561694 202.128565 
L 197.353004 202.128565 
L 197.371981 200.000753 
L 230.322691 200.000753 
L 230.335075 197.872941 
L 240.195688 197.872941 
L 240.306112 159.572329 
L 240.314991 159.572329 
L 240.31795 155.316706 
L 240.503866 155.316706 
L 240.612277 127.655153 
L 240.620341 127.655153 
L 240.640373 112.760471 
L 248.485655 112.760471 
L 248.561203 70.204235 
L 287.220159 70.204235 
L 287.2305 60.983718 
L 288.700386 60.983718 
L 288.733959 46.089035 
L 289.474373 46.089035 
L 289.482938 36.868518 
L 300.257744 36.868518 
L 300.261806 35.095341 
L 301.011613 35.095341 
L 301.029119 30.130447 
L 301.421375 30.130447 
L 301.422237 29.066541 
L 307.885934 29.066541 
L 307.885934 28.711906 
L 308.400413 28.711906 
L 308.401057 27.648 
L 360.8064 27.648 
L 360.8064 27.648 
" style="fill: none; stroke: #ff7500; stroke-width: 1.5; stroke-linecap: square"/>
   </g>
   <g id="line2d_46">
    <defs>
     <path id="m5088e59968" d="M 0 -6 
L -1.347084 -1.854102 
L -5.706339 -1.854102 
L -2.179628 0.708204 
L -3.526712 4.854102 
L -0 2.291796 
L 3.526712 4.854102 
L 2.179628 0.708204 
L 5.706339 -1.854102 
L 1.347084 -1.854102 
z
" style="stroke: #ff7500; stroke-width: 1.5; stroke-linejoin: bevel"/>
    </defs>
    <g>
     <use xlink:href="#m5088e59968" x="148.800595" y="226.5984" style="fill-opacity: 0; stroke: #ff7500; stroke-width: 1.5; stroke-linejoin: bevel"/>
     <use xlink:href="#m5088e59968" x="240.284581" y="173.403106" style="fill-opacity: 0; stroke: #ff7500; stroke-width: 1.5; stroke-linejoin: bevel"/>
     <use xlink:href="#m5088e59968" x="248.561203" y="71.268141" style="fill-opacity: 0; stroke: #ff7500; stroke-width: 1.5; stroke-linejoin: bevel"/>
     <use xlink:href="#m5088e59968" x="308.401057" y="27.648" style="fill-opacity: 0; stroke: #ff7500; stroke-width: 1.5; stroke-linejoin: bevel"/>
     <use xlink:href="#m5088e59968" x="308.401057" y="27.648" style="fill-opacity: 0; stroke: #ff7500; stroke-width: 1.5; stroke-linejoin: bevel"/>
     <use xlink:href="#m5088e59968" x="360.8064" y="27.648" style="fill-opacity: 0; stroke: #ff7500; stroke-width: 1.5; stroke-linejoin: bevel"/>
    </g>
   </g>
   <g id="line2d_47">
    <path style="fill: none; stroke: #ff7500; stroke-width: 1.5; stroke-linecap: square"/>
    <g/>
   </g>
   <g id="line2d_48">
    <path d="M 287.215184 70.204235 
" clip-path="url(#pd635199ab1)" style="fill: none; stroke: #ff7500; stroke-width: 1.5; stroke-linecap: square"/>
    <defs>
     <path id="mcf347ad957" d="M -12 12 
L 12 -12 
M -12 -12 
L 12 12 
" style="stroke: #ff7500"/>
    </defs>
    <g clip-path="url(#pd635199ab1)">
     <use xlink:href="#mcf347ad957" x="287.215184" y="70.204235" style="fill: #ff7500; stroke: #ff7500"/>
    </g>
   </g>
   <g id="line2d_49">
    <defs>
     <path id="m587ec19f9e" d="M 0 1.5 
C 0.397805 1.5 0.77937 1.341951 1.06066 1.06066 
C 1.341951 0.77937 1.5 0.397805 1.5 0 
C 1.5 -0.397805 1.341951 -0.77937 1.06066 -1.06066 
C 0.77937 -1.341951 0.397805 -1.5 0 -1.5 
C -0.397805 -1.5 -0.77937 -1.341951 -1.06066 -1.06066 
C -1.341951 -0.77937 -1.5 -0.397805 -1.5 0 
C -1.5 0.397805 -1.341951 0.77937 -1.06066 1.06066 
C -0.77937 1.341951 -0.397805 1.5 0 1.5 
z
" style="stroke: #6495ed"/>
    </defs>
    <g>
     <use xlink:href="#m587ec19f9e" x="251.30087" y="27.648" style="fill: #6495ed; stroke: #6495ed"/>
     <use xlink:href="#m587ec19f9e" x="251.30087" y="27.648" style="fill: #6495ed; stroke: #6495ed"/>
    </g>
   </g>
   <g id="line2d_50">
    <path d="M 14.2848 298.944 
L 14.2848 293.624471 
L 47.990577 293.624471 
L 47.990577 292.560565 
L 57.6 292.560565 
L 57.6 291.496659 
L 78.88343 291.496659 
L 78.88343 290.432753 
L 87.495981 290.432753 
L 87.495981 289.368847 
L 88.248544 289.368847 
L 88.248544 288.304941 
L 94.735529 288.304941 
L 94.735529 287.241035 
L 99.346662 287.241035 
L 99.346662 286.177129 
L 101.287718 286.177129 
L 101.287718 285.113224 
L 102.362957 285.113224 
L 102.362957 284.049318 
L 102.536336 284.049318 
L 102.536336 282.985412 
L 102.878374 282.985412 
L 102.878374 281.921506 
L 104.655893 281.921506 
L 104.655893 280.8576 
L 105.26277 280.8576 
L 105.26277 278.729788 
L 107.244765 278.729788 
L 107.244765 277.665882 
L 109.159456 277.665882 
L 109.159456 276.601976 
L 109.280431 276.601976 
L 109.280431 275.538071 
L 109.520071 275.538071 
L 109.520071 274.474165 
L 110.449226 274.474165 
L 110.449226 273.410259 
L 111.442442 273.410259 
L 111.442442 272.346353 
L 114.510421 272.346353 
L 114.510421 271.282447 
L 114.692177 271.282447 
L 114.692177 270.218541 
L 115.314838 270.218541 
L 115.402131 268.090729 
L 116.746385 268.090729 
L 116.827295 265.962918 
L 117.540239 265.962918 
L 117.540239 264.899012 
L 119.177058 264.899012 
L 119.177058 263.835106 
L 119.944983 263.835106 
L 119.944983 262.7712 
L 121.201758 262.7712 
L 121.201758 261.707294 
L 124.588805 261.707294 
L 124.588805 260.643388 
L 128.484801 260.643388 
L 128.484801 259.579482 
L 162.219518 259.579482 
L 162.291676 256.387765 
L 162.711865 256.387765 
L 162.711865 255.323859 
L 163.019227 255.323859 
L 163.040002 253.196047 
L 163.819551 253.196047 
L 163.819551 252.132141 
L 175.929781 252.132141 
L 175.929781 251.068235 
L 176.275401 251.068235 
L 176.275401 250.004329 
L 182.658217 250.004329 
L 182.658217 248.940424 
L 182.946272 248.940424 
L 182.946272 247.876518 
L 183.070773 247.876518 
L 183.070773 246.812612 
L 207.226823 246.812612 
L 207.27368 244.6848 
L 211.080817 244.6848 
L 211.080817 242.556988 
L 223.333933 242.556988 
L 223.428002 232.981835 
L 223.447261 232.981835 
L 223.557138 220.214965 
L 223.561575 220.214965 
L 223.659482 197.872941 
L 245.266212 197.872941 
L 245.352869 155.316706 
L 246.192001 155.316706 
L 246.283126 112.760471 
L 250.8362 112.760471 
L 250.906909 70.204235 
L 251.223856 70.204235 
L 251.30087 27.648 
L 360.8064 27.648 
L 360.8064 27.648 
" style="fill: none; stroke: #6495ed; stroke-width: 1.5; stroke-linecap: square"/>
   </g>
   <g id="line2d_51">
    <defs>
     <path id="me3e7e206e6" d="M -0 6 
L 6 -6 
L -6 -6 
z
" style="stroke: #6495ed; stroke-width: 1.5; stroke-linejoin: miter"/>
    </defs>
    <g>
     <use xlink:href="#me3e7e206e6" x="109.280431" y="275.538071" style="fill-opacity: 0; stroke: #6495ed; stroke-width: 1.5; stroke-linejoin: miter"/>
     <use xlink:href="#me3e7e206e6" x="183.070773" y="246.812612" style="fill-opacity: 0; stroke: #6495ed; stroke-width: 1.5; stroke-linejoin: miter"/>
     <use xlink:href="#me3e7e206e6" x="250.906909" y="71.268141" style="fill-opacity: 0; stroke: #6495ed; stroke-width: 1.5; stroke-linejoin: miter"/>
     <use xlink:href="#me3e7e206e6" x="251.30087" y="27.648" style="fill-opacity: 0; stroke: #6495ed; stroke-width: 1.5; stroke-linejoin: miter"/>
     <use xlink:href="#me3e7e206e6" x="251.30087" y="27.648" style="fill-opacity: 0; stroke: #6495ed; stroke-width: 1.5; stroke-linejoin: miter"/>
     <use xlink:href="#me3e7e206e6" x="360.8064" y="27.648" style="fill-opacity: 0; stroke: #6495ed; stroke-width: 1.5; stroke-linejoin: miter"/>
    </g>
   </g>
   <g id="line2d_52">
    <path style="fill: none; stroke: #6495ed; stroke-width: 1.5; stroke-linecap: square"/>
    <g/>
   </g>
   <g id="line2d_53">
    <defs>
     <path id="mc9585a215b" d="M 0 1.5 
C 0.397805 1.5 0.77937 1.341951 1.06066 1.06066 
C 1.341951 0.77937 1.5 0.397805 1.5 0 
C 1.5 -0.397805 1.341951 -0.77937 1.06066 -1.06066 
C 0.77937 -1.341951 0.397805 -1.5 0 -1.5 
C -0.397805 -1.5 -0.77937 -1.341951 -1.06066 -1.06066 
C -1.341951 -0.77937 -1.5 -0.397805 -1.5 0 
C -1.5 0.397805 -1.341951 0.77937 -1.06066 1.06066 
C -0.77937 1.341951 -0.397805 1.5 0 1.5 
z
" style="stroke: #ff0000"/>
    </defs>
    <g>
     <use xlink:href="#mc9585a215b" x="317.384753" y="27.648" style="fill: #ff0000; stroke: #ff0000"/>
     <use xlink:href="#mc9585a215b" x="317.384753" y="27.648" style="fill: #ff0000; stroke: #ff0000"/>
    </g>
   </g>
   <g id="line2d_54">
    <path d="M 14.2848 298.944 
L 14.2848 293.624471 
L 73.268314 293.624471 
L 73.268314 292.560565 
L 74.836851 292.560565 
L 74.836851 292.205929 
L 77.628862 292.205929 
L 77.628862 291.851294 
L 78.266603 291.851294 
L 78.266603 291.496659 
L 82.211771 291.496659 
L 82.211771 291.142024 
L 84.142855 291.142024 
L 84.142855 290.787388 
L 85.038813 290.787388 
L 85.038813 290.432753 
L 85.471281 290.432753 
L 85.471281 290.078118 
L 85.894031 290.078118 
L 85.894031 289.368847 
L 86.307488 289.368847 
L 86.307488 289.014212 
L 87.495981 289.014212 
L 87.495981 288.659576 
L 88.972154 288.659576 
L 88.972154 288.304941 
L 92.811505 288.304941 
L 92.811505 287.950306 
L 93.098709 287.950306 
L 93.098709 287.595671 
L 95.998523 287.595671 
L 95.998523 287.241035 
L 96.95121 287.241035 
L 96.95121 286.8864 
L 98.077987 286.8864 
L 98.077987 286.177129 
L 98.295464 286.177129 
L 98.295464 285.822494 
L 98.723018 285.822494 
L 98.723018 285.113224 
L 99.950294 285.113224 
L 99.950294 284.403953 
L 101.471247 284.403953 
L 101.471247 284.049318 
L 102.011329 284.049318 
L 102.011329 282.985412 
L 102.362957 282.985412 
L 102.362957 282.630776 
L 102.536336 282.630776 
L 102.536336 282.276141 
L 102.878374 282.276141 
L 102.878374 281.921506 
L 103.544339 281.921506 
L 103.544339 281.566871 
L 103.868684 281.566871 
L 103.868684 281.212235 
L 104.655893 281.212235 
L 104.655893 280.8576 
L 104.809458 280.8576 
L 104.809458 280.502965 
L 105.99483 280.502965 
L 105.99483 279.439059 
L 106.137884 279.439059 
L 106.137884 279.084424 
L 106.560633 279.084424 
L 106.560633 278.020518 
L 107.244765 278.020518 
L 107.244765 277.665882 
L 107.378656 277.665882 
L 107.378656 277.311247 
L 108.034177 277.311247 
L 108.034177 276.247341 
L 108.29012 276.247341 
L 108.29012 275.892706 
L 108.416798 275.892706 
L 108.416798 275.183435 
L 109.037698 275.183435 
L 109.037698 274.474165 
L 109.400633 274.474165 
L 109.400633 273.410259 
L 109.520071 273.410259 
L 109.520071 273.055624 
L 110.106149 273.055624 
L 110.106149 272.700988 
L 110.221204 272.700988 
L 110.221204 272.346353 
L 110.335561 272.346353 
L 110.335561 271.991718 
L 112.283321 271.991718 
L 112.283321 271.637082 
L 114.326893 271.637082 
L 114.326893 270.927812 
L 114.510421 270.927812 
L 114.601519 269.863906 
L 116.419219 269.863906 
L 116.419219 269.154635 
L 116.746385 269.154635 
L 116.746385 268.445365 
L 116.907859 268.445365 
L 116.907859 268.090729 
L 118.000953 268.090729 
L 118.000953 267.736094 
L 118.376446 267.736094 
L 118.450653 267.026824 
L 118.671535 267.026824 
L 118.74459 266.317553 
L 120.149089 266.317553 
L 120.149089 265.962918 
L 121.39274 265.962918 
L 121.39274 265.608282 
L 121.706797 265.608282 
L 121.706797 265.253647 
L 121.830966 265.253647 
L 121.830966 264.899012 
L 122.015696 264.899012 
L 122.015696 264.544376 
L 122.13785 264.544376 
L 122.13785 264.189741 
L 122.559246 264.189741 
L 122.559246 263.835106 
L 123.08753 263.835106 
L 123.08753 263.480471 
L 123.202939 263.480471 
L 123.202939 263.125835 
L 123.544976 263.125835 
L 123.544976 262.7712 
L 123.825333 262.7712 
L 123.825333 262.416565 
L 125.011554 262.416565 
L 125.011554 262.061929 
L 126.756923 262.061929 
L 126.756923 261.707294 
L 128.178203 261.707294 
L 128.178203 261.352659 
L 129.906795 261.352659 
L 129.906795 260.998024 
L 162.030602 260.998024 
L 162.030602 260.643388 
L 162.8032 260.643388 
L 162.8032 260.288753 
L 162.915008 260.288753 
L 162.921974 259.579482 
L 163.484578 259.579482 
L 163.491337 258.515576 
L 163.997986 258.515576 
L 163.997986 258.160941 
L 164.20079 258.160941 
L 164.20079 257.806306 
L 164.330481 257.806306 
L 164.330481 257.451671 
L 164.612692 257.451671 
L 164.663551 256.033129 
L 164.80901 256.033129 
L 164.80901 255.678494 
L 164.9471 255.678494 
L 164.9471 255.323859 
L 165.232599 255.323859 
L 165.238758 254.259953 
L 165.670946 254.259953 
L 165.670946 253.196047 
L 166.854526 253.196047 
L 166.939098 252.486776 
L 167.190556 252.486776 
L 167.190556 251.777506 
L 167.515233 251.777506 
L 167.515233 251.422871 
L 167.672789 251.422871 
L 167.672789 251.068235 
L 167.989318 251.068235 
L 167.989318 250.358965 
L 168.498408 250.358965 
L 168.498408 249.295059 
L 168.653109 249.295059 
L 168.653109 248.585788 
L 169.184759 248.585788 
L 169.184759 247.876518 
L 169.550619 247.876518 
L 169.594634 247.167247 
L 169.667764 247.167247 
L 169.667764 246.812612 
L 169.813178 246.812612 
L 169.813178 245.394071 
L 169.962267 245.394071 
L 169.962267 244.330165 
L 170.2758 244.330165 
L 170.318152 243.620894 
L 170.509894 243.620894 
L 170.54708 242.556988 
L 170.983137 242.556988 
L 171.078179 241.493082 
L 171.127772 241.493082 
L 171.127772 241.138447 
L 171.342661 241.138447 
L 171.342661 240.429176 
L 190.684673 240.429176 
L 190.684673 240.074541 
L 191.037952 240.074541 
L 191.037952 239.719906 
L 191.461257 239.719906 
L 191.494836 239.010635 
L 192.139387 239.010635 
L 192.139387 238.656 
L 192.253975 238.656 
L 192.273006 237.946729 
L 192.534544 237.946729 
L 192.626666 236.882824 
L 192.715481 236.882824 
L 192.715481 236.528188 
L 193.24252 236.528188 
L 193.24252 236.173553 
L 193.604491 236.173553 
L 193.604491 235.818918 
L 203.00584 235.818918 
L 203.00584 235.109647 
L 203.857106 235.109647 
L 203.910777 233.691106 
L 204.066187 233.691106 
L 204.138742 232.981835 
L 204.246665 232.981835 
L 204.316985 231.563294 
L 204.496612 231.563294 
L 204.496612 230.499388 
L 204.665456 230.499388 
L 204.713852 228.726212 
L 204.942047 228.726212 
L 205.051406 226.953035 
L 205.071423 226.953035 
L 205.126915 225.179859 
L 205.380093 225.179859 
L 205.380093 224.115953 
L 205.565058 224.115953 
L 205.625592 222.342776 
L 205.696686 222.342776 
L 205.766085 221.278871 
L 205.842341 221.278871 
L 205.932453 218.796424 
L 206.034106 218.796424 
L 206.088238 218.087153 
L 206.149913 218.087153 
L 206.244137 216.668612 
L 206.266403 216.668612 
L 206.299751 215.250071 
L 206.378719 215.250071 
L 206.387703 213.831529 
L 206.582907 213.831529 
L 206.661378 212.767624 
L 206.700151 212.767624 
L 206.725277 210.994447 
L 206.836244 210.994447 
L 206.836244 210.285176 
L 206.996795 210.285176 
L 207.000808 208.866635 
L 207.116149 208.866635 
L 207.1772 207.093459 
L 207.344075 207.093459 
L 207.344075 206.384188 
L 214.427657 206.384188 
L 214.427657 205.320282 
L 214.558332 205.320282 
L 214.558332 204.965647 
L 214.7843 204.965647 
L 214.887481 203.901741 
L 214.912968 203.901741 
L 214.912968 203.547106 
L 215.104771 203.547106 
L 215.104771 203.192471 
L 215.240339 203.192471 
L 215.307113 202.128565 
L 215.50262 202.128565 
L 215.557017 201.064659 
L 215.716325 201.064659 
L 215.716325 200.710024 
L 215.874713 200.710024 
L 215.955071 198.582212 
L 216.226488 198.582212 
L 216.231811 197.872941 
L 216.356268 197.872941 
L 216.356268 197.163671 
L 216.544041 197.163671 
L 216.612371 195.035859 
L 216.905763 195.035859 
L 216.905763 192.908047 
L 217.147134 192.908047 
L 217.228461 191.489506 
L 217.278483 191.489506 
L 217.381596 190.780235 
L 262.772143 190.780235 
L 262.772143 190.4256 
L 262.885722 190.4256 
L 262.893708 189.361694 
L 263.583114 189.361694 
L 263.691684 187.233882 
L 263.72332 187.233882 
L 263.816541 183.332894 
L 263.962149 183.332894 
L 264.038434 180.850447 
L 264.128409 180.850447 
L 264.173603 179.431906 
L 264.307681 179.431906 
L 264.415732 177.304094 
L 264.42161 177.304094 
L 264.527251 173.403106 
L 264.534193 173.403106 
L 264.641548 170.211388 
L 264.658466 170.211388 
L 264.749194 168.083576 
L 264.776219 168.083576 
L 264.886367 164.537224 
L 264.891145 164.537224 
L 264.980116 160.2816 
L 265.049397 160.2816 
L 265.155227 155.316706 
L 265.161273 155.316706 
L 265.219718 153.188894 
L 265.339769 153.188894 
L 265.436799 151.061082 
L 265.492128 151.061082 
L 265.588348 147.160094 
L 265.615262 147.160094 
L 265.692497 144.323012 
L 265.729964 144.323012 
L 265.743987 142.549835 
L 266.010327 142.549835 
L 266.010327 142.1952 
L 266.150571 142.1952 
L 266.245297 140.776659 
L 266.362958 140.776659 
L 266.44661 138.648847 
L 266.906339 138.648847 
L 267.013207 137.230306 
L 276.303487 137.230306 
L 276.336672 136.521035 
L 276.66591 136.521035 
L 276.752737 134.038588 
L 276.784648 134.038588 
L 276.87507 132.265412 
L 276.949157 132.265412 
L 277.029663 130.846871 
L 277.069062 130.846871 
L 277.17979 128.009788 
L 277.183077 128.009788 
L 277.225611 127.300518 
L 277.319674 127.300518 
L 277.430729 123.044894 
L 277.433276 123.044894 
L 277.517523 121.271718 
L 277.585832 121.271718 
L 277.675007 118.08 
L 277.705174 118.08 
L 277.799993 115.242918 
L 277.861334 115.242918 
L 277.928378 114.533647 
L 277.977962 114.533647 
L 278.028168 112.0512 
L 278.095934 112.0512 
L 278.201936 110.987294 
L 278.224581 110.987294 
L 278.333301 108.859482 
L 278.406891 108.859482 
L 278.45718 108.150212 
L 278.662337 108.150212 
L 278.705873 107.440941 
L 278.900201 107.440941 
L 278.986343 106.377035 
L 284.080466 106.377035 
L 284.080944 105.667765 
L 284.206523 105.667765 
L 284.206523 105.313129 
L 284.349373 105.313129 
L 284.443535 103.894588 
L 284.469924 103.894588 
L 284.574107 101.412141 
L 284.606431 101.412141 
L 284.714085 98.575059 
L 284.765378 98.575059 
L 284.872747 96.801882 
L 284.878382 96.801882 
L 284.945707 96.092612 
L 285.030199 96.092612 
L 285.134495 91.127718 
L 285.16565 91.127718 
L 285.254393 88.645271 
L 285.280452 88.645271 
L 285.387458 87.581365 
L 285.408354 87.581365 
L 285.479878 86.517459 
L 285.523242 86.517459 
L 285.614425 85.098918 
L 285.63685 85.098918 
L 285.67912 84.389647 
L 285.840397 84.389647 
L 285.926513 83.680376 
L 286.305453 83.680376 
L 286.305453 83.325741 
L 289.707573 83.325741 
L 289.707573 82.971106 
L 289.833138 82.971106 
L 289.935191 81.552565 
L 289.951886 81.552565 
L 290.001322 80.843294 
L 290.066833 80.843294 
L 290.165419 78.360847 
L 290.187164 78.360847 
L 290.187164 78.006212 
L 290.303641 78.006212 
L 290.40803 75.523765 
L 290.414791 75.523765 
L 290.505882 73.395953 
L 290.530416 73.395953 
L 290.626733 71.622776 
L 290.646658 71.622776 
L 290.736721 70.913506 
L 290.833357 70.913506 
L 290.915681 69.8496 
L 291.014362 69.8496 
L 291.014362 69.494965 
L 291.266896 69.494965 
L 291.278934 68.785694 
L 294.042455 68.785694 
L 294.042455 68.431059 
L 294.15542 68.431059 
L 294.19152 67.367153 
L 294.346858 67.367153 
L 294.434089 65.948612 
L 294.469858 65.948612 
L 294.564491 63.466165 
L 294.609075 63.466165 
L 294.71104 61.338353 
L 294.761324 61.338353 
L 294.854024 59.210541 
L 294.896833 59.210541 
L 294.961952 58.146635 
L 295.093579 58.146635 
L 295.159255 57.437365 
L 295.355278 57.437365 
L 295.355278 57.082729 
L 297.288219 57.082729 
L 297.288219 56.728094 
L 297.579384 56.728094 
L 297.607252 56.018824 
L 297.698378 56.018824 
L 297.711481 55.309553 
L 297.881424 55.309553 
L 297.975885 53.181741 
L 298.034828 53.181741 
L 298.113153 51.053929 
L 298.247669 51.053929 
L 298.356842 48.926118 
L 298.424591 48.926118 
L 298.424591 48.571482 
L 298.550548 48.571482 
L 298.585372 47.862212 
L 300.137704 47.862212 
L 300.137704 47.507576 
L 300.540926 47.507576 
L 300.566847 46.798306 
L 300.666661 46.798306 
L 300.72498 46.089035 
L 300.785079 46.089035 
L 300.785079 45.7344 
L 300.937011 45.7344 
L 301.039997 44.670494 
L 301.058314 44.670494 
L 301.150858 42.897318 
L 301.200583 42.897318 
L 301.200583 42.542682 
L 302.848757 42.542682 
L 302.848757 42.188047 
L 303.019684 42.188047 
L 303.019684 41.833412 
L 303.257169 41.833412 
L 303.359019 41.124141 
L 303.471124 41.124141 
L 303.566218 39.350965 
L 303.664718 39.350965 
L 303.664718 38.996329 
L 305.261677 38.996329 
L 305.368182 37.223153 
L 305.439847 37.223153 
L 305.439847 36.868518 
L 305.576623 36.868518 
L 305.618498 36.159247 
L 305.909781 36.159247 
L 305.909781 35.804612 
L 306.029157 35.804612 
L 306.029157 35.449976 
L 307.240617 35.449976 
L 307.240617 35.095341 
L 307.421591 35.095341 
L 307.447822 34.386071 
L 307.606904 34.386071 
L 307.689823 33.322165 
L 307.802309 33.322165 
L 307.802309 32.967529 
L 308.788509 32.967529 
L 308.788509 32.612894 
L 309.142019 32.612894 
L 309.142019 32.258259 
L 309.279404 32.258259 
L 309.36935 31.548988 
L 311.141326 31.548988 
L 311.141326 31.194353 
L 311.282377 31.194353 
L 311.282377 30.839718 
L 312.453098 30.839718 
L 312.543419 29.775812 
L 313.532848 29.775812 
L 313.640643 29.066541 
L 313.848484 29.066541 
L 313.896654 28.357271 
L 316.633422 28.357271 
L 316.633422 28.002635 
L 317.384753 28.002635 
L 317.384753 27.648 
L 360.8064 27.648 
L 360.8064 27.648 
" style="fill: none; stroke: #ff0000; stroke-width: 1.5; stroke-linecap: square"/>
   </g>
   <g id="line2d_55">
    <defs>
     <path id="m73e4dca4cb" d="M 0 -6 
L -5.196152 -3 
L -5.196152 3 
L -0 6 
L 5.196152 3 
L 5.196152 -3 
z
" style="stroke: #ff0000; stroke-width: 1.5; stroke-linejoin: miter"/>
    </defs>
    <g>
     <use xlink:href="#m73e4dca4cb" x="129.906795" y="261.352659" style="fill-opacity: 0; stroke: #ff0000; stroke-width: 1.5; stroke-linejoin: miter"/>
     <use xlink:href="#m73e4dca4cb" x="217.381596" y="191.134871" style="fill-opacity: 0; stroke: #ff0000; stroke-width: 1.5; stroke-linejoin: miter"/>
     <use xlink:href="#m73e4dca4cb" x="294.042455" y="68.785694" style="fill-opacity: 0; stroke: #ff0000; stroke-width: 1.5; stroke-linejoin: miter"/>
     <use xlink:href="#m73e4dca4cb" x="317.384753" y="27.648" style="fill-opacity: 0; stroke: #ff0000; stroke-width: 1.5; stroke-linejoin: miter"/>
     <use xlink:href="#m73e4dca4cb" x="360.8064" y="27.648" style="fill-opacity: 0; stroke: #ff0000; stroke-width: 1.5; stroke-linejoin: miter"/>
    </g>
   </g>
   <g id="line2d_56">
    <path style="fill: none; stroke: #ff0000; stroke-width: 1.5; stroke-linecap: square"/>
    <g/>
   </g>
   <g id="line2d_57">
    <path d="M 264.030113 181.205082 
" clip-path="url(#pd635199ab1)" style="fill: none; stroke: #ff0000; stroke-width: 1.5; stroke-linecap: square"/>
    <defs>
     <path id="mf93c4e2c99" d="M -12 12 
L 12 -12 
M -12 -12 
L 12 12 
" style="stroke: #ff0000"/>
    </defs>
    <g clip-path="url(#pd635199ab1)">
     <use xlink:href="#mf93c4e2c99" x="264.030113" y="181.205082" style="fill: #ff0000; stroke: #ff0000"/>
    </g>
   </g>
   <g id="line2d_58">
    <path d="M 360.8064 27.648 
L 380.514816 293.51808 
" style="fill: none; stroke: #ff0000; stroke-width: 1.5; stroke-linecap: square"/>
    <g>
     <use xlink:href="#m73e4dca4cb" x="360.8064" y="27.648" style="fill-opacity: 0; stroke: #ff0000; stroke-width: 1.5; stroke-linejoin: miter"/>
     <use xlink:href="#m73e4dca4cb" x="380.514816" y="293.51808" style="fill-opacity: 0; stroke: #ff0000; stroke-width: 1.5; stroke-linejoin: miter"/>
    </g>
   </g>
   <g id="line2d_59">
    <path d="M 360.8064 27.648 
L 380.514816 241.429248 
" style="fill: none; stroke: #ff7500; stroke-width: 1.5; stroke-linecap: square"/>
    <g>
     <use xlink:href="#m5088e59968" x="360.8064" y="27.648" style="fill-opacity: 0; stroke: #ff7500; stroke-width: 1.5; stroke-linejoin: bevel"/>
     <use xlink:href="#m5088e59968" x="380.514816" y="241.429248" style="fill-opacity: 0; stroke: #ff7500; stroke-width: 1.5; stroke-linejoin: bevel"/>
    </g>
   </g>
   <g id="line2d_60">
    <path d="M 360.8064 27.648 
L 380.514816 189.340416 
" style="fill: none; stroke: #ff00ff; stroke-width: 1.5; stroke-linecap: square"/>
    <g>
     <use xlink:href="#m5405e5d8e8" x="360.8064" y="27.648" style="fill-opacity: 0; stroke: #ff00ff; stroke-width: 1.5; stroke-linejoin: miter"/>
     <use xlink:href="#m5405e5d8e8" x="380.514816" y="189.340416" style="fill-opacity: 0; stroke: #ff00ff; stroke-width: 1.5; stroke-linejoin: miter"/>
    </g>
   </g>
   <g id="line2d_61">
    <path d="M 360.8064 27.648 
L 380.514816 137.251584 
" style="fill: none; stroke: #000080; stroke-width: 1.5; stroke-linecap: square"/>
    <g>
     <use xlink:href="#mbc7d6e713c" x="360.8064" y="27.648" style="fill-opacity: 0; stroke: #000080; stroke-width: 1.5"/>
     <use xlink:href="#mbc7d6e713c" x="380.514816" y="137.251584" style="fill-opacity: 0; stroke: #000080; stroke-width: 1.5"/>
    </g>
   </g>
   <g id="line2d_62">
    <path d="M 360.8064 27.648 
L 380.514816 85.162752 
" style="fill: none; stroke: #6495ed; stroke-width: 1.5; stroke-linecap: square"/>
    <g>
     <use xlink:href="#me3e7e206e6" x="360.8064" y="27.648" style="fill-opacity: 0; stroke: #6495ed; stroke-width: 1.5; stroke-linejoin: miter"/>
     <use xlink:href="#me3e7e206e6" x="380.514816" y="85.162752" style="fill-opacity: 0; stroke: #6495ed; stroke-width: 1.5; stroke-linejoin: miter"/>
    </g>
   </g>
   <g id="line2d_63">
    <path d="M 360.8064 298.944 
L 360.8064 27.648 
" style="fill: none; stroke: #000000; stroke-width: 1.5; stroke-linecap: square"/>
   </g>
   <g id="patch_3">
    <path d="M 57.6 298.944 
L 360.8064 298.944 
" style="fill: none; stroke: #000000; stroke-width: 0.8; stroke-linejoin: miter; stroke-linecap: square"/>
   </g>
   <g id="patch_4">
    <path d="M 57.6 27.648 
L 360.8064 27.648 
" style="fill: none; stroke: #000000; stroke-width: 0.8; stroke-linejoin: miter; stroke-linecap: square"/>
   </g>
   <g id="text_13">
    <!-- CMA-ES-2019 -->
    <g transform="translate(386.578944 297.381205)scale(0.14 -0.14)">
     <defs>
      <path id="DejaVuSans-43" d="M 4122 4306 
L 4122 3641 
Q 3803 3938 3442 4084 
Q 3081 4231 2675 4231 
Q 1875 4231 1450 3742 
Q 1025 3253 1025 2328 
Q 1025 1406 1450 917 
Q 1875 428 2675 428 
Q 3081 428 3442 575 
Q 3803 722 4122 1019 
L 4122 359 
Q 3791 134 3420 21 
Q 3050 -91 2638 -91 
Q 1578 -91 968 557 
Q 359 1206 359 2328 
Q 359 3453 968 4101 
Q 1578 4750 2638 4750 
Q 3056 4750 3426 4639 
Q 3797 4528 4122 4306 
z
" transform="scale(0.015625)"/>
      <path id="DejaVuSans-4d" d="M 628 4666 
L 1569 4666 
L 2759 1491 
L 3956 4666 
L 4897 4666 
L 4897 0 
L 4281 0 
L 4281 4097 
L 3078 897 
L 2444 897 
L 1241 4097 
L 1241 0 
L 628 0 
L 628 4666 
z
" transform="scale(0.015625)"/>
      <path id="DejaVuSans-41" d="M 2188 4044 
L 1331 1722 
L 3047 1722 
L 2188 4044 
z
M 1831 4666 
L 2547 4666 
L 4325 0 
L 3669 0 
L 3244 1197 
L 1141 1197 
L 716 0 
L 50 0 
L 1831 4666 
z
" transform="scale(0.015625)"/>
      <path id="DejaVuSans-45" d="M 628 4666 
L 3578 4666 
L 3578 4134 
L 1259 4134 
L 1259 2753 
L 3481 2753 
L 3481 2222 
L 1259 2222 
L 1259 531 
L 3634 531 
L 3634 0 
L 628 0 
L 628 4666 
z
" transform="scale(0.015625)"/>
      <path id="DejaVuSans-53" d="M 3425 4513 
L 3425 3897 
Q 3066 4069 2747 4153 
Q 2428 4238 2131 4238 
Q 1616 4238 1336 4038 
Q 1056 3838 1056 3469 
Q 1056 3159 1242 3001 
Q 1428 2844 1947 2747 
L 2328 2669 
Q 3034 2534 3370 2195 
Q 3706 1856 3706 1288 
Q 3706 609 3251 259 
Q 2797 -91 1919 -91 
Q 1588 -91 1214 -16 
Q 841 59 441 206 
L 441 856 
Q 825 641 1194 531 
Q 1563 422 1919 422 
Q 2459 422 2753 634 
Q 3047 847 3047 1241 
Q 3047 1584 2836 1778 
Q 2625 1972 2144 2069 
L 1759 2144 
Q 1053 2284 737 2584 
Q 422 2884 422 3419 
Q 422 4038 858 4394 
Q 1294 4750 2059 4750 
Q 2388 4750 2728 4690 
Q 3069 4631 3425 4513 
z
" transform="scale(0.015625)"/>
      <path id="DejaVuSans-39" d="M 703 97 
L 703 672 
Q 941 559 1184 500 
Q 1428 441 1663 441 
Q 2288 441 2617 861 
Q 2947 1281 2994 2138 
Q 2813 1869 2534 1725 
Q 2256 1581 1919 1581 
Q 1219 1581 811 2004 
Q 403 2428 403 3163 
Q 403 3881 828 4315 
Q 1253 4750 1959 4750 
Q 2769 4750 3195 4129 
Q 3622 3509 3622 2328 
Q 3622 1225 3098 567 
Q 2575 -91 1691 -91 
Q 1453 -91 1209 -44 
Q 966 3 703 97 
z
M 1959 2075 
Q 2384 2075 2632 2365 
Q 2881 2656 2881 3163 
Q 2881 3666 2632 3958 
Q 2384 4250 1959 4250 
Q 1534 4250 1286 3958 
Q 1038 3666 1038 3163 
Q 1038 2656 1286 2365 
Q 1534 2075 1959 2075 
z
" transform="scale(0.015625)"/>
     </defs>
     <use xlink:href="#DejaVuSans-43"/>
     <use xlink:href="#DejaVuSans-4d" x="69.824219"/>
     <use xlink:href="#DejaVuSans-41" x="156.103516"/>
     <use xlink:href="#DejaVuSans-2d" x="222.261719"/>
     <use xlink:href="#DejaVuSans-45" x="258.345703"/>
     <use xlink:href="#DejaVuSans-53" x="321.529297"/>
     <use xlink:href="#DejaVuSans-2d" x="385.005859"/>
     <use xlink:href="#DejaVuSans-32" x="421.089844"/>
     <use xlink:href="#DejaVuSans-30" x="484.712891"/>
     <use xlink:href="#DejaVuSans-31" x="548.335938"/>
     <use xlink:href="#DejaVuSans-39" x="611.958984"/>
    </g>
   </g>
   <g id="text_14">
    <!-- ddcma-t0r -->
    <g transform="translate(386.578944 245.292373)scale(0.14 -0.14)">
     <use xlink:href="#DejaVuSans-64"/>
     <use xlink:href="#DejaVuSans-64" x="63.476562"/>
     <use xlink:href="#DejaVuSans-63" x="126.953125"/>
     <use xlink:href="#DejaVuSans-6d" x="181.933594"/>
     <use xlink:href="#DejaVuSans-61" x="279.345703"/>
     <use xlink:href="#DejaVuSans-2d" x="340.625"/>
     <use xlink:href="#DejaVuSans-74" x="376.708984"/>
     <use xlink:href="#DejaVuSans-30" x="415.917969"/>
     <use xlink:href="#DejaVuSans-72" x="479.541016"/>
    </g>
   </g>
   <g id="text_15">
    <!-- ddcma-t1 -->
    <g transform="translate(386.578944 193.203541)scale(0.14 -0.14)">
     <use xlink:href="#DejaVuSans-64"/>
     <use xlink:href="#DejaVuSans-64" x="63.476562"/>
     <use xlink:href="#DejaVuSans-63" x="126.953125"/>
     <use xlink:href="#DejaVuSans-6d" x="181.933594"/>
     <use xlink:href="#DejaVuSans-61" x="279.345703"/>
     <use xlink:href="#DejaVuSans-2d" x="340.625"/>
     <use xlink:href="#DejaVuSans-74" x="376.708984"/>
     <use xlink:href="#DejaVuSans-31" x="415.917969"/>
    </g>
   </g>
   <g id="text_16">
    <!-- ddcma-t0 -->
    <g transform="translate(386.578944 141.114709)scale(0.14 -0.14)">
     <use xlink:href="#DejaVuSans-64"/>
     <use xlink:href="#DejaVuSans-64" x="63.476562"/>
     <use xlink:href="#DejaVuSans-63" x="126.953125"/>
     <use xlink:href="#DejaVuSans-6d" x="181.933594"/>
     <use xlink:href="#DejaVuSans-61" x="279.345703"/>
     <use xlink:href="#DejaVuSans-2d" x="340.625"/>
     <use xlink:href="#DejaVuSans-74" x="376.708984"/>
     <use xlink:href="#DejaVuSans-30" x="415.917969"/>
    </g>
   </g>
   <g id="text_17">
    <!-- ddcma-t1r -->
    <g transform="translate(386.578944 89.025877)scale(0.14 -0.14)">
     <use xlink:href="#DejaVuSans-64"/>
     <use xlink:href="#DejaVuSans-64" x="63.476562"/>
     <use xlink:href="#DejaVuSans-63" x="126.953125"/>
     <use xlink:href="#DejaVuSans-6d" x="181.933594"/>
     <use xlink:href="#DejaVuSans-61" x="279.345703"/>
     <use xlink:href="#DejaVuSans-2d" x="340.625"/>
     <use xlink:href="#DejaVuSans-74" x="376.708984"/>
     <use xlink:href="#DejaVuSans-31" x="415.917969"/>
     <use xlink:href="#DejaVuSans-72" x="479.541016"/>
    </g>
   </g>
   <g id="text_18">
    <!-- best 2009 -->
    <g transform="translate(386.578944 36.937045)scale(0.14 -0.14)">
     <defs>
      <path id="DejaVuSans-62" d="M 3116 1747 
Q 3116 2381 2855 2742 
Q 2594 3103 2138 3103 
Q 1681 3103 1420 2742 
Q 1159 2381 1159 1747 
Q 1159 1113 1420 752 
Q 1681 391 2138 391 
Q 2594 391 2855 752 
Q 3116 1113 3116 1747 
z
M 1159 2969 
Q 1341 3281 1617 3432 
Q 1894 3584 2278 3584 
Q 2916 3584 3314 3078 
Q 3713 2572 3713 1747 
Q 3713 922 3314 415 
Q 2916 -91 2278 -91 
Q 1894 -91 1617 61 
Q 1341 213 1159 525 
L 1159 0 
L 581 0 
L 581 4863 
L 1159 4863 
L 1159 2969 
z
" transform="scale(0.015625)"/>
     </defs>
     <use xlink:href="#DejaVuSans-62"/>
     <use xlink:href="#DejaVuSans-65" x="63.476562"/>
     <use xlink:href="#DejaVuSans-73" x="125"/>
     <use xlink:href="#DejaVuSans-74" x="177.099609"/>
     <use xlink:href="#DejaVuSans-20" x="216.308594"/>
     <use xlink:href="#DejaVuSans-32" x="248.095703"/>
     <use xlink:href="#DejaVuSans-30" x="311.71875"/>
     <use xlink:href="#DejaVuSans-30" x="375.341797"/>
     <use xlink:href="#DejaVuSans-39" x="438.964844"/>
    </g>
   </g>
   <g id="text_19">
    <!-- bbob f22, 10-D -->
    <g transform="translate(60.632064 38.111366)scale(0.102 -0.102)">
     <defs>
      <path id="DejaVuSans-44" d="M 1259 4147 
L 1259 519 
L 2022 519 
Q 2988 519 3436 956 
Q 3884 1394 3884 2338 
Q 3884 3275 3436 3711 
Q 2988 4147 2022 4147 
L 1259 4147 
z
M 628 4666 
L 1925 4666 
Q 3281 4666 3915 4102 
Q 4550 3538 4550 2338 
Q 4550 1131 3912 565 
Q 3275 0 1925 0 
L 628 0 
L 628 4666 
z
" transform="scale(0.015625)"/>
     </defs>
     <use xlink:href="#DejaVuSans-62"/>
     <use xlink:href="#DejaVuSans-62" x="63.476562"/>
     <use xlink:href="#DejaVuSans-6f" x="126.953125"/>
     <use xlink:href="#DejaVuSans-62" x="188.134766"/>
     <use xlink:href="#DejaVuSans-20" x="251.611328"/>
     <use xlink:href="#DejaVuSans-66" x="283.398438"/>
     <use xlink:href="#DejaVuSans-32" x="318.603516"/>
     <use xlink:href="#DejaVuSans-32" x="382.226562"/>
     <use xlink:href="#DejaVuSans-2c" x="445.849609"/>
     <use xlink:href="#DejaVuSans-20" x="477.636719"/>
     <use xlink:href="#DejaVuSans-31" x="509.423828"/>
     <use xlink:href="#DejaVuSans-30" x="573.046875"/>
     <use xlink:href="#DejaVuSans-2d" x="636.669922"/>
     <use xlink:href="#DejaVuSans-44" x="672.753906"/>
    </g>
    <!-- 51 targets: 100..1e-08 -->
    <g transform="translate(60.632064 49.533135)scale(0.102 -0.102)">
     <defs>
      <path id="DejaVuSans-35" d="M 691 4666 
L 3169 4666 
L 3169 4134 
L 1269 4134 
L 1269 2991 
Q 1406 3038 1543 3061 
Q 1681 3084 1819 3084 
Q 2600 3084 3056 2656 
Q 3513 2228 3513 1497 
Q 3513 744 3044 326 
Q 2575 -91 1722 -91 
Q 1428 -91 1123 -41 
Q 819 9 494 109 
L 494 744 
Q 775 591 1075 516 
Q 1375 441 1709 441 
Q 2250 441 2565 725 
Q 2881 1009 2881 1497 
Q 2881 1984 2565 2268 
Q 2250 2553 1709 2553 
Q 1456 2553 1204 2497 
Q 953 2441 691 2322 
L 691 4666 
z
" transform="scale(0.015625)"/>
      <path id="DejaVuSans-3a" d="M 750 794 
L 1409 794 
L 1409 0 
L 750 0 
L 750 794 
z
M 750 3309 
L 1409 3309 
L 1409 2516 
L 750 2516 
L 750 3309 
z
" transform="scale(0.015625)"/>
     </defs>
     <use xlink:href="#DejaVuSans-35"/>
     <use xlink:href="#DejaVuSans-31" x="63.623047"/>
     <use xlink:href="#DejaVuSans-20" x="127.246094"/>
     <use xlink:href="#DejaVuSans-74" x="159.033203"/>
     <use xlink:href="#DejaVuSans-61" x="198.242188"/>
     <use xlink:href="#DejaVuSans-72" x="259.521484"/>
     <use xlink:href="#DejaVuSans-67" x="298.884766"/>
     <use xlink:href="#DejaVuSans-65" x="362.361328"/>
     <use xlink:href="#DejaVuSans-74" x="423.884766"/>
     <use xlink:href="#DejaVuSans-73" x="463.09375"/>
     <use xlink:href="#DejaVuSans-3a" x="515.193359"/>
     <use xlink:href="#DejaVuSans-20" x="548.884766"/>
     <use xlink:href="#DejaVuSans-31" x="580.671875"/>
     <use xlink:href="#DejaVuSans-30" x="644.294922"/>
     <use xlink:href="#DejaVuSans-30" x="707.917969"/>
     <use xlink:href="#DejaVuSans-2e" x="771.541016"/>
     <use xlink:href="#DejaVuSans-2e" x="803.328125"/>
     <use xlink:href="#DejaVuSans-31" x="835.115234"/>
     <use xlink:href="#DejaVuSans-65" x="898.738281"/>
     <use xlink:href="#DejaVuSans-2d" x="960.261719"/>
     <use xlink:href="#DejaVuSans-30" x="996.345703"/>
     <use xlink:href="#DejaVuSans-38" x="1059.96875"/>
    </g>
    <!-- 5, 15 instances -->
    <g transform="translate(60.632064 60.954904)scale(0.102 -0.102)">
     <use xlink:href="#DejaVuSans-35"/>
     <use xlink:href="#DejaVuSans-2c" x="63.623047"/>
     <use xlink:href="#DejaVuSans-20" x="95.410156"/>
     <use xlink:href="#DejaVuSans-31" x="127.197266"/>
     <use xlink:href="#DejaVuSans-35" x="190.820312"/>
     <use xlink:href="#DejaVuSans-20" x="254.443359"/>
     <use xlink:href="#DejaVuSans-69" x="286.230469"/>
     <use xlink:href="#DejaVuSans-6e" x="314.013672"/>
     <use xlink:href="#DejaVuSans-73" x="377.392578"/>
     <use xlink:href="#DejaVuSans-74" x="429.492188"/>
     <use xlink:href="#DejaVuSans-61" x="468.701172"/>
     <use xlink:href="#DejaVuSans-6e" x="529.980469"/>
     <use xlink:href="#DejaVuSans-63" x="593.359375"/>
     <use xlink:href="#DejaVuSans-65" x="648.339844"/>
     <use xlink:href="#DejaVuSans-73" x="709.863281"/>
    </g>
   </g>
   <g id="text_20">
    <!-- v2.6 -->
    <g style="fill: #808080" transform="translate(198.292262 294.151352)scale(0.1 -0.1)">
     <use xlink:href="#DejaVuSans-76"/>
     <use xlink:href="#DejaVuSans-32" x="59.179688"/>
     <use xlink:href="#DejaVuSans-2e" x="122.802734"/>
     <use xlink:href="#DejaVuSans-36" x="154.589844"/>
    </g>
   </g>
   <g id="text_21">
    <!-- 22 Gallagher 21 peaks -->
    <g transform="translate(96.0782 21.648)scale(0.2 -0.2)">
     <defs>
      <path id="DejaVuSans-47" d="M 3809 666 
L 3809 1919 
L 2778 1919 
L 2778 2438 
L 4434 2438 
L 4434 434 
Q 4069 175 3628 42 
Q 3188 -91 2688 -91 
Q 1594 -91 976 548 
Q 359 1188 359 2328 
Q 359 3472 976 4111 
Q 1594 4750 2688 4750 
Q 3144 4750 3555 4637 
Q 3966 4525 4313 4306 
L 4313 3634 
Q 3963 3931 3569 4081 
Q 3175 4231 2741 4231 
Q 1884 4231 1454 3753 
Q 1025 3275 1025 2328 
Q 1025 1384 1454 906 
Q 1884 428 2741 428 
Q 3075 428 3337 486 
Q 3600 544 3809 666 
z
" transform="scale(0.015625)"/>
      <path id="DejaVuSans-68" d="M 3513 2113 
L 3513 0 
L 2938 0 
L 2938 2094 
Q 2938 2591 2744 2837 
Q 2550 3084 2163 3084 
Q 1697 3084 1428 2787 
Q 1159 2491 1159 1978 
L 1159 0 
L 581 0 
L 581 4863 
L 1159 4863 
L 1159 2956 
Q 1366 3272 1645 3428 
Q 1925 3584 2291 3584 
Q 2894 3584 3203 3211 
Q 3513 2838 3513 2113 
z
" transform="scale(0.015625)"/>
      <path id="DejaVuSans-6b" d="M 581 4863 
L 1159 4863 
L 1159 1991 
L 2875 3500 
L 3609 3500 
L 1753 1863 
L 3688 0 
L 2938 0 
L 1159 1709 
L 1159 0 
L 581 0 
L 581 4863 
z
" transform="scale(0.015625)"/>
     </defs>
     <use xlink:href="#DejaVuSans-32"/>
     <use xlink:href="#DejaVuSans-32" x="63.623047"/>
     <use xlink:href="#DejaVuSans-20" x="127.246094"/>
     <use xlink:href="#DejaVuSans-47" x="159.033203"/>
     <use xlink:href="#DejaVuSans-61" x="236.523438"/>
     <use xlink:href="#DejaVuSans-6c" x="297.802734"/>
     <use xlink:href="#DejaVuSans-6c" x="325.585938"/>
     <use xlink:href="#DejaVuSans-61" x="353.369141"/>
     <use xlink:href="#DejaVuSans-67" x="414.648438"/>
     <use xlink:href="#DejaVuSans-68" x="478.125"/>
     <use xlink:href="#DejaVuSans-65" x="541.503906"/>
     <use xlink:href="#DejaVuSans-72" x="603.027344"/>
     <use xlink:href="#DejaVuSans-20" x="644.140625"/>
     <use xlink:href="#DejaVuSans-32" x="675.927734"/>
     <use xlink:href="#DejaVuSans-31" x="739.550781"/>
     <use xlink:href="#DejaVuSans-20" x="803.173828"/>
     <use xlink:href="#DejaVuSans-70" x="834.960938"/>
     <use xlink:href="#DejaVuSans-65" x="898.4375"/>
     <use xlink:href="#DejaVuSans-61" x="959.960938"/>
     <use xlink:href="#DejaVuSans-6b" x="1021.240234"/>
     <use xlink:href="#DejaVuSans-73" x="1079.150391"/>
    </g>
   </g>
  </g>
 </g>
 <defs>
  <clipPath id="pd635199ab1">
   <rect x="57.6" y="27.648" width="303.2064" height="271.296"/>
  </clipPath>
 </defs>
</svg>
