<?xml version="1.0" encoding="utf-8" standalone="no"?>
<!DOCTYPE svg PUBLIC "-//W3C//DTD SVG 1.1//EN"
  "http://www.w3.org/Graphics/SVG/1.1/DTD/svg11.dtd">
<svg xmlns:xlink="http://www.w3.org/1999/xlink" width="460.8pt" height="345.6pt" viewBox="0 0 460.8 345.6" xmlns="http://www.w3.org/2000/svg" version="1.1">
 <metadata>
  <rdf:RDF xmlns:dc="http://purl.org/dc/elements/1.1/" xmlns:cc="http://creativecommons.org/ns#" xmlns:rdf="http://www.w3.org/1999/02/22-rdf-syntax-ns#">
   <cc:Work>
    <dc:type rdf:resource="http://purl.org/dc/dcmitype/StillImage"/>
    <dc:date>2022-03-18T14:33:08.083107</dc:date>
    <dc:format>image/svg+xml</dc:format>
    <dc:creator>
     <cc:Agent>
      <dc:title>Matplotlib v3.5.1, https://matplotlib.org/</dc:title>
     </cc:Agent>
    </dc:creator>
   </cc:Work>
  </rdf:RDF>
 </metadata>
 <defs>
  <style type="text/css">*{stroke-linejoin: round; stroke-linecap: butt}</style>
 </defs>
 <g id="figure_1">
  <g id="patch_1">
   <path d="M 0 345.6 
L 460.8 345.6 
L 460.8 0 
L 0 0 
z
" style="fill: #ffffff"/>
  </g>
  <g id="axes_1">
   <g id="patch_2">
    <path d="M 34.16 291.28 
L 453.192 291.28 
L 453.192 3 
L 34.16 3 
z
" style="fill: #ffffff"/>
   </g>
   <g id="matplotlib.axis_1">
    <g id="xtick_1">
     <g id="line2d_1">
      <path d="M 94.926627 291.28 
L 94.926627 3 
" clip-path="url(#p5a3e6670d6)" style="fill: none; stroke: #b0b0b0; stroke-width: 0.8; stroke-linecap: square"/>
     </g>
     <g id="line2d_2">
      <defs>
       <path id="m5dca483203" d="M 0 0 
L 0 3.5 
" style="stroke: #000000; stroke-width: 0.8"/>
      </defs>
      <g>
       <use xlink:href="#m5dca483203" x="94.926627" y="291.28" style="stroke: #000000; stroke-width: 0.8"/>
      </g>
     </g>
     <g id="text_1">
      <!-- -1 -->
      <g transform="translate(84.956315 313.476875)scale(0.2 -0.2)">
       <defs>
        <path id="DejaVuSans-2d" d="M 313 2009 
L 1997 2009 
L 1997 1497 
L 313 1497 
L 313 2009 
z
" transform="scale(0.015625)"/>
        <path id="DejaVuSans-31" d="M 794 531 
L 1825 531 
L 1825 4091 
L 703 3866 
L 703 4441 
L 1819 4666 
L 2450 4666 
L 2450 531 
L 3481 531 
L 3481 0 
L 794 0 
L 794 531 
z
" transform="scale(0.015625)"/>
       </defs>
       <use xlink:href="#DejaVuSans-2d"/>
       <use xlink:href="#DejaVuSans-31" x="36.083984"/>
      </g>
     </g>
    </g>
    <g id="xtick_2">
     <g id="line2d_3">
      <path d="M 243.676 291.28 
L 243.676 3 
" clip-path="url(#p5a3e6670d6)" style="fill: none; stroke: #b0b0b0; stroke-width: 0.8; stroke-linecap: square"/>
     </g>
     <g id="line2d_4">
      <g>
       <use xlink:href="#m5dca483203" x="243.676" y="291.28" style="stroke: #000000; stroke-width: 0.8"/>
      </g>
     </g>
     <g id="text_2">
      <!-- 0 -->
      <g transform="translate(237.3135 313.476875)scale(0.2 -0.2)">
       <defs>
        <path id="DejaVuSans-30" d="M 2034 4250 
Q 1547 4250 1301 3770 
Q 1056 3291 1056 2328 
Q 1056 1369 1301 889 
Q 1547 409 2034 409 
Q 2525 409 2770 889 
Q 3016 1369 3016 2328 
Q 3016 3291 2770 3770 
Q 2525 4250 2034 4250 
z
M 2034 4750 
Q 2819 4750 3233 4129 
Q 3647 3509 3647 2328 
Q 3647 1150 3233 529 
Q 2819 -91 2034 -91 
Q 1250 -91 836 529 
Q 422 1150 422 2328 
Q 422 3509 836 4129 
Q 1250 4750 2034 4750 
z
" transform="scale(0.015625)"/>
       </defs>
       <use xlink:href="#DejaVuSans-30"/>
      </g>
     </g>
    </g>
    <g id="xtick_3">
     <g id="line2d_5">
      <path d="M 392.425373 291.28 
L 392.425373 3 
" clip-path="url(#p5a3e6670d6)" style="fill: none; stroke: #b0b0b0; stroke-width: 0.8; stroke-linecap: square"/>
     </g>
     <g id="line2d_6">
      <g>
       <use xlink:href="#m5dca483203" x="392.425373" y="291.28" style="stroke: #000000; stroke-width: 0.8"/>
      </g>
     </g>
     <g id="text_3">
      <!-- 1 -->
      <g transform="translate(386.062873 313.476875)scale(0.2 -0.2)">
       <use xlink:href="#DejaVuSans-31"/>
      </g>
     </g>
    </g>
    <g id="xtick_4">
     <g id="line2d_7">
      <defs>
       <path id="m336e8e5063" d="M 0 0 
L 0 2 
" style="stroke: #000000; stroke-width: 0.6"/>
      </defs>
      <g>
       <use xlink:href="#m336e8e5063" x="35.7333" y="291.28" style="stroke: #000000; stroke-width: 0.6"/>
      </g>
     </g>
    </g>
    <g id="xtick_5">
     <g id="line2d_8">
      <g>
       <use xlink:href="#m336e8e5063" x="50.148604" y="291.28" style="stroke: #000000; stroke-width: 0.6"/>
      </g>
     </g>
    </g>
    <g id="xtick_6">
     <g id="line2d_9">
      <g>
       <use xlink:href="#m336e8e5063" x="61.926765" y="291.28" style="stroke: #000000; stroke-width: 0.6"/>
      </g>
     </g>
    </g>
    <g id="xtick_7">
     <g id="line2d_10">
      <g>
       <use xlink:href="#m336e8e5063" x="71.885058" y="291.28" style="stroke: #000000; stroke-width: 0.6"/>
      </g>
     </g>
    </g>
    <g id="xtick_8">
     <g id="line2d_11">
      <g>
       <use xlink:href="#m336e8e5063" x="80.511323" y="291.28" style="stroke: #000000; stroke-width: 0.6"/>
      </g>
     </g>
    </g>
    <g id="xtick_9">
     <g id="line2d_12">
      <g>
       <use xlink:href="#m336e8e5063" x="88.120229" y="291.28" style="stroke: #000000; stroke-width: 0.6"/>
      </g>
     </g>
    </g>
    <g id="xtick_10">
     <g id="line2d_13">
      <g>
       <use xlink:href="#m336e8e5063" x="139.70465" y="291.28" style="stroke: #000000; stroke-width: 0.6"/>
      </g>
     </g>
    </g>
    <g id="xtick_11">
     <g id="line2d_14">
      <g>
       <use xlink:href="#m336e8e5063" x="165.898114" y="291.28" style="stroke: #000000; stroke-width: 0.6"/>
      </g>
     </g>
    </g>
    <g id="xtick_12">
     <g id="line2d_15">
      <g>
       <use xlink:href="#m336e8e5063" x="184.482673" y="291.28" style="stroke: #000000; stroke-width: 0.6"/>
      </g>
     </g>
    </g>
    <g id="xtick_13">
     <g id="line2d_16">
      <g>
       <use xlink:href="#m336e8e5063" x="198.897977" y="291.28" style="stroke: #000000; stroke-width: 0.6"/>
      </g>
     </g>
    </g>
    <g id="xtick_14">
     <g id="line2d_17">
      <g>
       <use xlink:href="#m336e8e5063" x="210.676138" y="291.28" style="stroke: #000000; stroke-width: 0.6"/>
      </g>
     </g>
    </g>
    <g id="xtick_15">
     <g id="line2d_18">
      <g>
       <use xlink:href="#m336e8e5063" x="220.634431" y="291.28" style="stroke: #000000; stroke-width: 0.6"/>
      </g>
     </g>
    </g>
    <g id="xtick_16">
     <g id="line2d_19">
      <g>
       <use xlink:href="#m336e8e5063" x="229.260696" y="291.28" style="stroke: #000000; stroke-width: 0.6"/>
      </g>
     </g>
    </g>
    <g id="xtick_17">
     <g id="line2d_20">
      <g>
       <use xlink:href="#m336e8e5063" x="236.869602" y="291.28" style="stroke: #000000; stroke-width: 0.6"/>
      </g>
     </g>
    </g>
    <g id="xtick_18">
     <g id="line2d_21">
      <g>
       <use xlink:href="#m336e8e5063" x="288.454023" y="291.28" style="stroke: #000000; stroke-width: 0.6"/>
      </g>
     </g>
    </g>
    <g id="xtick_19">
     <g id="line2d_22">
      <g>
       <use xlink:href="#m336e8e5063" x="314.647487" y="291.28" style="stroke: #000000; stroke-width: 0.6"/>
      </g>
     </g>
    </g>
    <g id="xtick_20">
     <g id="line2d_23">
      <g>
       <use xlink:href="#m336e8e5063" x="333.232046" y="291.28" style="stroke: #000000; stroke-width: 0.6"/>
      </g>
     </g>
    </g>
    <g id="xtick_21">
     <g id="line2d_24">
      <g>
       <use xlink:href="#m336e8e5063" x="347.64735" y="291.28" style="stroke: #000000; stroke-width: 0.6"/>
      </g>
     </g>
    </g>
    <g id="xtick_22">
     <g id="line2d_25">
      <g>
       <use xlink:href="#m336e8e5063" x="359.425511" y="291.28" style="stroke: #000000; stroke-width: 0.6"/>
      </g>
     </g>
    </g>
    <g id="xtick_23">
     <g id="line2d_26">
      <g>
       <use xlink:href="#m336e8e5063" x="369.383804" y="291.28" style="stroke: #000000; stroke-width: 0.6"/>
      </g>
     </g>
    </g>
    <g id="xtick_24">
     <g id="line2d_27">
      <g>
       <use xlink:href="#m336e8e5063" x="378.010069" y="291.28" style="stroke: #000000; stroke-width: 0.6"/>
      </g>
     </g>
    </g>
    <g id="xtick_25">
     <g id="line2d_28">
      <g>
       <use xlink:href="#m336e8e5063" x="385.618975" y="291.28" style="stroke: #000000; stroke-width: 0.6"/>
      </g>
     </g>
    </g>
    <g id="xtick_26">
     <g id="line2d_29">
      <g>
       <use xlink:href="#m336e8e5063" x="437.203396" y="291.28" style="stroke: #000000; stroke-width: 0.6"/>
      </g>
     </g>
    </g>
    <g id="text_4">
     <!-- log10 of FEvals ratio -->
     <g transform="translate(141.371312 336.833125)scale(0.2 -0.2)">
      <defs>
       <path id="DejaVuSans-6c" d="M 603 4863 
L 1178 4863 
L 1178 0 
L 603 0 
L 603 4863 
z
" transform="scale(0.015625)"/>
       <path id="DejaVuSans-6f" d="M 1959 3097 
Q 1497 3097 1228 2736 
Q 959 2375 959 1747 
Q 959 1119 1226 758 
Q 1494 397 1959 397 
Q 2419 397 2687 759 
Q 2956 1122 2956 1747 
Q 2956 2369 2687 2733 
Q 2419 3097 1959 3097 
z
M 1959 3584 
Q 2709 3584 3137 3096 
Q 3566 2609 3566 1747 
Q 3566 888 3137 398 
Q 2709 -91 1959 -91 
Q 1206 -91 779 398 
Q 353 888 353 1747 
Q 353 2609 779 3096 
Q 1206 3584 1959 3584 
z
" transform="scale(0.015625)"/>
       <path id="DejaVuSans-67" d="M 2906 1791 
Q 2906 2416 2648 2759 
Q 2391 3103 1925 3103 
Q 1463 3103 1205 2759 
Q 947 2416 947 1791 
Q 947 1169 1205 825 
Q 1463 481 1925 481 
Q 2391 481 2648 825 
Q 2906 1169 2906 1791 
z
M 3481 434 
Q 3481 -459 3084 -895 
Q 2688 -1331 1869 -1331 
Q 1566 -1331 1297 -1286 
Q 1028 -1241 775 -1147 
L 775 -588 
Q 1028 -725 1275 -790 
Q 1522 -856 1778 -856 
Q 2344 -856 2625 -561 
Q 2906 -266 2906 331 
L 2906 616 
Q 2728 306 2450 153 
Q 2172 0 1784 0 
Q 1141 0 747 490 
Q 353 981 353 1791 
Q 353 2603 747 3093 
Q 1141 3584 1784 3584 
Q 2172 3584 2450 3431 
Q 2728 3278 2906 2969 
L 2906 3500 
L 3481 3500 
L 3481 434 
z
" transform="scale(0.015625)"/>
       <path id="DejaVuSans-20" transform="scale(0.015625)"/>
       <path id="DejaVuSans-66" d="M 2375 4863 
L 2375 4384 
L 1825 4384 
Q 1516 4384 1395 4259 
Q 1275 4134 1275 3809 
L 1275 3500 
L 2222 3500 
L 2222 3053 
L 1275 3053 
L 1275 0 
L 697 0 
L 697 3053 
L 147 3053 
L 147 3500 
L 697 3500 
L 697 3744 
Q 697 4328 969 4595 
Q 1241 4863 1831 4863 
L 2375 4863 
z
" transform="scale(0.015625)"/>
       <path id="DejaVuSans-46" d="M 628 4666 
L 3309 4666 
L 3309 4134 
L 1259 4134 
L 1259 2759 
L 3109 2759 
L 3109 2228 
L 1259 2228 
L 1259 0 
L 628 0 
L 628 4666 
z
" transform="scale(0.015625)"/>
       <path id="DejaVuSans-45" d="M 628 4666 
L 3578 4666 
L 3578 4134 
L 1259 4134 
L 1259 2753 
L 3481 2753 
L 3481 2222 
L 1259 2222 
L 1259 531 
L 3634 531 
L 3634 0 
L 628 0 
L 628 4666 
z
" transform="scale(0.015625)"/>
       <path id="DejaVuSans-76" d="M 191 3500 
L 800 3500 
L 1894 563 
L 2988 3500 
L 3597 3500 
L 2284 0 
L 1503 0 
L 191 3500 
z
" transform="scale(0.015625)"/>
       <path id="DejaVuSans-61" d="M 2194 1759 
Q 1497 1759 1228 1600 
Q 959 1441 959 1056 
Q 959 750 1161 570 
Q 1363 391 1709 391 
Q 2188 391 2477 730 
Q 2766 1069 2766 1631 
L 2766 1759 
L 2194 1759 
z
M 3341 1997 
L 3341 0 
L 2766 0 
L 2766 531 
Q 2569 213 2275 61 
Q 1981 -91 1556 -91 
Q 1019 -91 701 211 
Q 384 513 384 1019 
Q 384 1609 779 1909 
Q 1175 2209 1959 2209 
L 2766 2209 
L 2766 2266 
Q 2766 2663 2505 2880 
Q 2244 3097 1772 3097 
Q 1472 3097 1187 3025 
Q 903 2953 641 2809 
L 641 3341 
Q 956 3463 1253 3523 
Q 1550 3584 1831 3584 
Q 2591 3584 2966 3190 
Q 3341 2797 3341 1997 
z
" transform="scale(0.015625)"/>
       <path id="DejaVuSans-73" d="M 2834 3397 
L 2834 2853 
Q 2591 2978 2328 3040 
Q 2066 3103 1784 3103 
Q 1356 3103 1142 2972 
Q 928 2841 928 2578 
Q 928 2378 1081 2264 
Q 1234 2150 1697 2047 
L 1894 2003 
Q 2506 1872 2764 1633 
Q 3022 1394 3022 966 
Q 3022 478 2636 193 
Q 2250 -91 1575 -91 
Q 1294 -91 989 -36 
Q 684 19 347 128 
L 347 722 
Q 666 556 975 473 
Q 1284 391 1588 391 
Q 1994 391 2212 530 
Q 2431 669 2431 922 
Q 2431 1156 2273 1281 
Q 2116 1406 1581 1522 
L 1381 1569 
Q 847 1681 609 1914 
Q 372 2147 372 2553 
Q 372 3047 722 3315 
Q 1072 3584 1716 3584 
Q 2034 3584 2315 3537 
Q 2597 3491 2834 3397 
z
" transform="scale(0.015625)"/>
       <path id="DejaVuSans-72" d="M 2631 2963 
Q 2534 3019 2420 3045 
Q 2306 3072 2169 3072 
Q 1681 3072 1420 2755 
Q 1159 2438 1159 1844 
L 1159 0 
L 581 0 
L 581 3500 
L 1159 3500 
L 1159 2956 
Q 1341 3275 1631 3429 
Q 1922 3584 2338 3584 
Q 2397 3584 2469 3576 
Q 2541 3569 2628 3553 
L 2631 2963 
z
" transform="scale(0.015625)"/>
       <path id="DejaVuSans-74" d="M 1172 4494 
L 1172 3500 
L 2356 3500 
L 2356 3053 
L 1172 3053 
L 1172 1153 
Q 1172 725 1289 603 
Q 1406 481 1766 481 
L 2356 481 
L 2356 0 
L 1766 0 
Q 1100 0 847 248 
Q 594 497 594 1153 
L 594 3053 
L 172 3053 
L 172 3500 
L 594 3500 
L 594 4494 
L 1172 4494 
z
" transform="scale(0.015625)"/>
       <path id="DejaVuSans-69" d="M 603 3500 
L 1178 3500 
L 1178 0 
L 603 0 
L 603 3500 
z
M 603 4863 
L 1178 4863 
L 1178 4134 
L 603 4134 
L 603 4863 
z
" transform="scale(0.015625)"/>
      </defs>
      <use xlink:href="#DejaVuSans-6c"/>
      <use xlink:href="#DejaVuSans-6f" x="27.783203"/>
      <use xlink:href="#DejaVuSans-67" x="88.964844"/>
      <use xlink:href="#DejaVuSans-31" x="152.441406"/>
      <use xlink:href="#DejaVuSans-30" x="216.064453"/>
      <use xlink:href="#DejaVuSans-20" x="279.6875"/>
      <use xlink:href="#DejaVuSans-6f" x="311.474609"/>
      <use xlink:href="#DejaVuSans-66" x="372.65625"/>
      <use xlink:href="#DejaVuSans-20" x="407.861328"/>
      <use xlink:href="#DejaVuSans-46" x="439.648438"/>
      <use xlink:href="#DejaVuSans-45" x="497.167969"/>
      <use xlink:href="#DejaVuSans-76" x="560.351562"/>
      <use xlink:href="#DejaVuSans-61" x="619.53125"/>
      <use xlink:href="#DejaVuSans-6c" x="680.810547"/>
      <use xlink:href="#DejaVuSans-73" x="708.59375"/>
      <use xlink:href="#DejaVuSans-20" x="760.693359"/>
      <use xlink:href="#DejaVuSans-72" x="792.480469"/>
      <use xlink:href="#DejaVuSans-61" x="833.59375"/>
      <use xlink:href="#DejaVuSans-74" x="894.873047"/>
      <use xlink:href="#DejaVuSans-69" x="934.082031"/>
      <use xlink:href="#DejaVuSans-6f" x="961.865234"/>
     </g>
    </g>
   </g>
   <g id="matplotlib.axis_2">
    <g id="ytick_1">
     <g id="line2d_30">
      <path d="M 34.16 288.453725 
L 453.192 288.453725 
" clip-path="url(#p5a3e6670d6)" style="fill: none; stroke: #b0b0b0; stroke-width: 0.8; stroke-linecap: square"/>
     </g>
     <g id="line2d_31">
      <defs>
       <path id="maab85f046a" d="M 0 0 
L -3.5 0 
" style="stroke: #000000; stroke-width: 0.8"/>
      </defs>
      <g>
       <use xlink:href="#maab85f046a" x="34.16" y="288.453725" style="stroke: #000000; stroke-width: 0.8"/>
      </g>
     </g>
    </g>
    <g id="ytick_2">
     <g id="line2d_32">
      <path d="M 34.16 217.796863 
L 453.192 217.796863 
" clip-path="url(#p5a3e6670d6)" style="fill: none; stroke: #b0b0b0; stroke-width: 0.8; stroke-linecap: square"/>
     </g>
     <g id="line2d_33">
      <g>
       <use xlink:href="#maab85f046a" x="34.16" y="217.796863" style="stroke: #000000; stroke-width: 0.8"/>
      </g>
     </g>
    </g>
    <g id="ytick_3">
     <g id="line2d_34">
      <path d="M 34.16 147.14 
L 453.192 147.14 
" clip-path="url(#p5a3e6670d6)" style="fill: none; stroke: #b0b0b0; stroke-width: 0.8; stroke-linecap: square"/>
     </g>
     <g id="line2d_35">
      <g>
       <use xlink:href="#maab85f046a" x="34.16" y="147.14" style="stroke: #000000; stroke-width: 0.8"/>
      </g>
     </g>
    </g>
    <g id="ytick_4">
     <g id="line2d_36">
      <path d="M 34.16 76.483137 
L 453.192 76.483137 
" clip-path="url(#p5a3e6670d6)" style="fill: none; stroke: #b0b0b0; stroke-width: 0.8; stroke-linecap: square"/>
     </g>
     <g id="line2d_37">
      <g>
       <use xlink:href="#maab85f046a" x="34.16" y="76.483137" style="stroke: #000000; stroke-width: 0.8"/>
      </g>
     </g>
    </g>
    <g id="ytick_5">
     <g id="line2d_38">
      <path d="M 34.16 5.826275 
L 453.192 5.826275 
" clip-path="url(#p5a3e6670d6)" style="fill: none; stroke: #b0b0b0; stroke-width: 0.8; stroke-linecap: square"/>
     </g>
     <g id="line2d_39">
      <g>
       <use xlink:href="#maab85f046a" x="34.16" y="5.826275" style="stroke: #000000; stroke-width: 0.8"/>
      </g>
     </g>
    </g>
    <g id="text_5">
     <!-- proportion of trials -->
     <g transform="translate(19.000625 240.14625)rotate(-90)scale(0.2 -0.2)">
      <defs>
       <path id="DejaVuSans-70" d="M 1159 525 
L 1159 -1331 
L 581 -1331 
L 581 3500 
L 1159 3500 
L 1159 2969 
Q 1341 3281 1617 3432 
Q 1894 3584 2278 3584 
Q 2916 3584 3314 3078 
Q 3713 2572 3713 1747 
Q 3713 922 3314 415 
Q 2916 -91 2278 -91 
Q 1894 -91 1617 61 
Q 1341 213 1159 525 
z
M 3116 1747 
Q 3116 2381 2855 2742 
Q 2594 3103 2138 3103 
Q 1681 3103 1420 2742 
Q 1159 2381 1159 1747 
Q 1159 1113 1420 752 
Q 1681 391 2138 391 
Q 2594 391 2855 752 
Q 3116 1113 3116 1747 
z
" transform="scale(0.015625)"/>
       <path id="DejaVuSans-6e" d="M 3513 2113 
L 3513 0 
L 2938 0 
L 2938 2094 
Q 2938 2591 2744 2837 
Q 2550 3084 2163 3084 
Q 1697 3084 1428 2787 
Q 1159 2491 1159 1978 
L 1159 0 
L 581 0 
L 581 3500 
L 1159 3500 
L 1159 2956 
Q 1366 3272 1645 3428 
Q 1925 3584 2291 3584 
Q 2894 3584 3203 3211 
Q 3513 2838 3513 2113 
z
" transform="scale(0.015625)"/>
      </defs>
      <use xlink:href="#DejaVuSans-70"/>
      <use xlink:href="#DejaVuSans-72" x="63.476562"/>
      <use xlink:href="#DejaVuSans-6f" x="102.339844"/>
      <use xlink:href="#DejaVuSans-70" x="163.521484"/>
      <use xlink:href="#DejaVuSans-6f" x="226.998047"/>
      <use xlink:href="#DejaVuSans-72" x="288.179688"/>
      <use xlink:href="#DejaVuSans-74" x="329.292969"/>
      <use xlink:href="#DejaVuSans-69" x="368.501953"/>
      <use xlink:href="#DejaVuSans-6f" x="396.285156"/>
      <use xlink:href="#DejaVuSans-6e" x="457.466797"/>
      <use xlink:href="#DejaVuSans-20" x="520.845703"/>
      <use xlink:href="#DejaVuSans-6f" x="552.632812"/>
      <use xlink:href="#DejaVuSans-66" x="613.814453"/>
      <use xlink:href="#DejaVuSans-20" x="649.019531"/>
      <use xlink:href="#DejaVuSans-74" x="680.806641"/>
      <use xlink:href="#DejaVuSans-72" x="720.015625"/>
      <use xlink:href="#DejaVuSans-69" x="761.128906"/>
      <use xlink:href="#DejaVuSans-61" x="788.912109"/>
      <use xlink:href="#DejaVuSans-6c" x="850.191406"/>
      <use xlink:href="#DejaVuSans-73" x="877.974609"/>
     </g>
    </g>
   </g>
   <g id="line2d_40">
    <path d="M 34.16 288.453725 
L 189.869211 288.453725 
L 189.869211 287.511634 
L 193.511439 287.511634 
L 193.511439 286.569542 
L 196.644224 286.569542 
L 196.644224 285.627451 
L 202.862474 285.627451 
L 202.862474 284.685359 
L 203.167466 284.685359 
L 203.167466 283.743268 
L 203.373157 283.743268 
L 203.373157 282.801176 
L 205.37645 282.801176 
L 205.382576 280.916993 
L 207.010401 280.916993 
L 207.010401 279.974902 
L 208.85627 279.974902 
L 208.85627 279.03281 
L 209.396867 279.03281 
L 209.396867 278.090719 
L 209.942027 278.090719 
L 209.942027 277.148627 
L 210.143186 277.148627 
L 210.143186 276.206536 
L 211.605665 276.206536 
L 211.605665 275.264444 
L 211.7279 275.264444 
L 211.7279 274.322353 
L 211.989055 274.322353 
L 211.989055 273.380261 
L 214.477295 273.380261 
L 214.477295 272.43817 
L 214.82031 272.43817 
L 214.923744 269.611895 
L 215.364279 269.611895 
L 215.364279 268.669804 
L 216.553008 268.669804 
L 216.553008 267.727712 
L 216.833274 267.727712 
L 216.833274 266.785621 
L 217.61008 266.785621 
L 217.61008 265.843529 
L 218.216646 265.843529 
L 218.295138 263.959346 
L 219.838515 263.959346 
L 219.838515 263.017255 
L 220.915917 263.017255 
L 220.915917 262.075163 
L 222.602127 262.075163 
L 222.695123 260.19098 
L 223.240282 260.19098 
L 223.240282 259.248889 
L 223.94803 259.248889 
L 224.048702 257.364706 
L 224.458713 257.364706 
L 224.458713 256.422614 
L 224.910232 256.422614 
L 224.976185 254.538431 
L 225.455392 254.538431 
L 225.47712 252.654248 
L 225.865116 252.654248 
L 225.865116 250.770065 
L 225.987803 250.770065 
L 225.987803 249.827974 
L 226.373019 249.827974 
L 226.462006 246.059608 
L 227.043283 246.059608 
L 227.043283 245.117516 
L 227.553965 245.117516 
L 227.553965 244.175425 
L 227.991096 244.175425 
L 227.991096 243.233333 
L 228.379092 243.233333 
L 228.379092 241.34915 
L 228.662534 241.34915 
L 228.701377 239.464967 
L 228.870357 239.464967 
L 228.870357 238.522876 
L 229.557259 238.522876 
L 229.557259 237.580784 
L 230.003245 237.580784 
L 230.05197 235.696601 
L 230.877644 235.696601 
L 230.968312 233.812418 
L 231.133321 233.812418 
L 231.133321 232.870327 
L 231.26758 232.870327 
L 231.26758 231.928235 
L 231.678481 231.928235 
L 231.715608 230.044052 
L 231.834162 230.044052 
L 231.897839 228.159869 
L 232.769998 228.159869 
L 232.769998 227.217778 
L 233.061853 227.217778 
L 233.061853 225.333595 
L 233.177109 225.333595 
L 233.177109 224.391503 
L 233.337476 224.391503 
L 233.337476 223.449412 
L 233.561477 223.449412 
L 233.561477 222.50732 
L 234.101097 222.50732 
L 234.101097 221.565229 
L 234.247227 221.565229 
L 234.347966 219.681046 
L 234.562177 219.681046 
L 234.562177 218.738954 
L 234.679527 218.738954 
L 234.769469 216.854771 
L 234.893126 216.854771 
L 234.893126 215.91268 
L 235.183346 215.91268 
L 235.183346 214.970588 
L 235.900382 214.970588 
L 235.900382 214.028497 
L 236.433107 214.028497 
L 236.433107 213.086405 
L 237.100733 213.086405 
L 237.100733 212.144314 
L 237.332694 212.144314 
L 237.332694 211.202222 
L 237.518864 211.202222 
L 237.518864 210.260131 
L 237.682204 210.260131 
L 237.682204 209.318039 
L 237.843377 209.318039 
L 237.843377 208.375948 
L 238.054975 208.375948 
L 238.115491 206.491765 
L 238.27444 206.491765 
L 238.27444 205.549673 
L 238.65967 205.549673 
L 238.65967 204.607582 
L 239.182502 204.607582 
L 239.182502 203.66549 
L 239.380694 203.66549 
L 239.380694 202.723399 
L 239.671274 202.723399 
L 239.699297 200.839216 
L 239.798775 200.839216 
L 239.874843 198.012941 
L 240.209979 198.012941 
L 240.315378 196.128758 
L 240.48955 196.128758 
L 240.48955 195.186667 
L 240.80437 195.186667 
L 240.909784 193.302484 
L 241.297779 193.302484 
L 241.297779 191.418301 
L 241.708304 191.418301 
L 241.792455 189.534118 
L 241.886383 189.534118 
L 241.886383 188.592026 
L 242.213273 188.592026 
L 242.306316 186.707843 
L 242.475946 186.707843 
L 242.475946 185.765752 
L 242.759658 185.765752 
L 242.759658 184.82366 
L 243.3015 184.82366 
L 243.3015 183.881569 
L 243.676 183.881569 
L 243.676 182.939477 
L 243.957486 182.939477 
L 243.957486 181.997386 
L 244.300169 181.997386 
L 244.33858 180.113203 
L 244.605527 180.113203 
L 244.605527 179.171111 
L 245.214192 179.171111 
L 245.232727 177.286928 
L 245.51661 177.286928 
L 245.621124 175.402745 
L 245.743409 175.402745 
L 245.743409 174.460654 
L 246.209699 174.460654 
L 246.209699 173.518562 
L 246.360108 173.518562 
L 246.360108 171.634379 
L 246.681241 171.634379 
L 246.71661 168.808105 
L 246.808785 168.808105 
L 246.827895 166.923922 
L 247.242993 166.923922 
L 247.338578 165.039739 
L 247.545482 165.039739 
L 247.553225 163.155556 
L 247.746703 163.155556 
L 247.746703 162.213464 
L 247.913652 162.213464 
L 247.913652 161.271373 
L 248.109472 161.271373 
L 248.109472 160.329281 
L 248.424335 160.329281 
L 248.424335 159.38719 
L 248.575218 159.38719 
L 248.575218 157.503007 
L 249.01797 157.503007 
L 249.01797 156.560915 
L 249.341871 156.560915 
L 249.341871 155.618824 
L 249.528653 155.618824 
L 249.528653 154.676732 
L 249.760591 154.676732 
L 249.760591 153.734641 
L 249.927284 153.734641 
L 249.927284 152.792549 
L 250.141495 152.792549 
L 250.141495 151.850458 
L 250.427628 151.850458 
L 250.43783 149.966275 
L 250.652177 149.966275 
L 250.652177 149.024183 
L 250.906013 149.024183 
L 250.906013 148.082092 
L 251.324117 148.082092 
L 251.324117 147.14 
L 251.531946 147.14 
L 251.531946 146.197908 
L 251.739699 146.197908 
L 251.742946 144.313725 
L 252.40843 144.313725 
L 252.40843 143.371634 
L 252.655471 143.371634 
L 252.765358 141.487451 
L 253.146736 141.487451 
L 253.146736 140.545359 
L 253.406584 140.545359 
L 253.406584 139.603268 
L 253.570615 139.603268 
L 253.570615 138.661176 
L 253.745387 138.661176 
L 253.745387 137.719085 
L 254.009881 137.719085 
L 254.009881 136.776993 
L 254.290147 136.776993 
L 254.290147 135.834902 
L 254.798307 135.834902 
L 254.798307 133.950719 
L 254.954344 133.950719 
L 255.054153 131.124444 
L 255.13196 131.124444 
L 255.13196 130.182353 
L 255.604571 130.182353 
L 255.673519 128.29817 
L 255.98368 128.29817 
L 256.057913 126.413987 
L 256.218679 126.413987 
L 256.218679 125.471895 
L 256.696527 125.471895 
L 256.696527 124.529804 
L 257.207209 124.529804 
L 257.295388 122.645621 
L 257.721096 122.645621 
L 257.81968 120.761438 
L 257.903782 120.761438 
L 258.012952 117.935163 
L 258.186938 117.935163 
L 258.273023 115.108889 
L 258.606056 115.108889 
L 258.606056 114.166797 
L 258.76776 114.166797 
L 258.76776 113.224706 
L 259.116738 113.224706 
L 259.210503 110.398431 
L 259.255318 110.398431 
L 259.255318 109.45634 
L 259.437207 109.45634 
L 259.437207 108.514248 
L 260.118892 108.514248 
L 260.118892 107.572157 
L 260.29685 107.572157 
L 260.332027 105.687974 
L 260.66539 105.687974 
L 260.684846 102.861699 
L 261.120032 102.861699 
L 261.120032 101.919608 
L 261.595249 101.919608 
L 261.701239 99.093333 
L 261.863013 99.093333 
L 261.863013 98.151242 
L 262.260559 98.151242 
L 262.260559 97.20915 
L 263.025077 97.20915 
L 263.025077 96.267059 
L 263.346316 96.267059 
L 263.364877 94.382876 
L 263.938602 94.382876 
L 264.042769 92.498693 
L 264.24844 92.498693 
L 264.24844 91.556601 
L 264.450634 91.556601 
L 264.527494 88.730327 
L 264.728034 88.730327 
L 264.749873 85.904052 
L 264.986745 85.904052 
L 264.986745 84.961961 
L 265.574158 84.961961 
L 265.574158 84.019869 
L 266.341981 84.019869 
L 266.341981 83.077778 
L 266.717569 83.077778 
L 266.717569 82.135686 
L 267.257414 82.135686 
L 267.257414 81.193595 
L 267.710756 81.193595 
L 267.710756 80.251503 
L 268.381207 80.251503 
L 268.381207 79.309412 
L 269.251268 79.309412 
L 269.251268 78.36732 
L 269.490572 78.36732 
L 269.556626 76.483137 
L 270.003076 76.483137 
L 270.003076 75.541046 
L 270.633983 75.541046 
L 270.633983 74.598954 
L 270.992989 74.598954 
L 270.992989 73.656863 
L 271.556271 73.656863 
L 271.556271 72.714771 
L 272.12919 72.714771 
L 272.152424 69.888497 
L 272.53169 69.888497 
L 272.553573 68.004314 
L 273.4794 68.004314 
L 273.4794 67.062222 
L 274.038719 67.062222 
L 274.038719 66.120131 
L 274.431432 66.120131 
L 274.519027 64.235948 
L 274.768682 64.235948 
L 274.768682 63.293856 
L 275.143037 63.293856 
L 275.143037 62.351765 
L 275.664475 62.351765 
L 275.664475 61.409673 
L 276.0266 61.409673 
L 276.057666 59.52549 
L 276.675862 59.52549 
L 276.764906 57.641307 
L 278.021766 57.641307 
L 278.095722 55.757124 
L 278.17828 55.757124 
L 278.17828 54.815033 
L 279.165177 54.815033 
L 279.165177 53.872941 
L 279.3402 53.872941 
L 279.3402 52.93085 
L 279.75936 52.93085 
L 279.75936 51.988758 
L 280.052457 51.988758 
L 280.052457 51.046667 
L 280.592276 51.046667 
L 280.592276 50.104575 
L 280.991771 50.104575 
L 280.991771 49.162484 
L 281.381229 49.162484 
L 281.381229 48.220392 
L 281.647625 48.220392 
L 281.647625 47.278301 
L 282.094693 47.278301 
L 282.094693 46.336209 
L 282.523161 46.336209 
L 282.523161 45.394118 
L 282.733382 45.394118 
L 282.733382 44.452026 
L 283.666572 44.452026 
L 283.666572 43.509935 
L 283.8377 43.509935 
L 283.8377 42.567843 
L 284.206416 42.567843 
L 284.206416 41.625752 
L 284.636818 41.625752 
L 284.636818 39.741569 
L 284.961225 39.741569 
L 284.961225 38.799477 
L 285.207057 38.799477 
L 285.207057 37.857386 
L 286.300456 37.857386 
L 286.300456 35.973203 
L 287.922324 35.973203 
L 287.922324 34.08902 
L 289.12347 34.08902 
L 289.12347 33.146928 
L 289.708451 33.146928 
L 289.708451 32.204837 
L 290.775268 32.204837 
L 290.775268 31.262745 
L 291.516257 31.262745 
L 291.516257 30.320654 
L 292.277685 30.320654 
L 292.370436 28.436471 
L 292.492903 28.436471 
L 292.492903 27.494379 
L 293.425786 27.494379 
L 293.425786 26.552288 
L 293.624865 26.552288 
L 293.624865 25.610196 
L 293.872854 25.610196 
L 293.872854 24.668105 
L 295.57326 24.668105 
L 295.684036 22.783922 
L 297.186453 22.783922 
L 297.236897 20.899739 
L 298.858766 20.899739 
L 298.858766 19.957647 
L 299.306462 19.957647 
L 299.306462 19.015556 
L 300.901631 19.015556 
L 300.901631 18.073464 
L 303.807857 18.073464 
L 303.855621 16.189281 
L 304.21523 16.189281 
L 304.21523 15.24719 
L 305.403025 15.24719 
L 305.403025 14.305098 
L 308.716625 14.305098 
L 308.716625 13.363007 
L 308.836739 13.363007 
L 308.836739 12.420915 
L 310.339156 12.420915 
L 310.339156 11.478824 
L 317.367933 11.478824 
L 317.367933 10.536732 
L 320.199457 10.536732 
L 320.199457 9.594641 
L 321.701874 9.594641 
L 321.701874 8.652549 
L 321.869328 8.652549 
L 321.869328 7.710458 
L 328.730651 7.710458 
L 328.730651 6.768366 
L 333.232046 6.768366 
L 333.232046 5.826275 
L 453.192 5.826275 
L 453.192 5.826275 
" clip-path="url(#p5a3e6670d6)" style="fill: none; stroke: #000000; stroke-width: 3; stroke-linecap: square"/>
   </g>
   <g id="line2d_41">
    <path clip-path="url(#p5a3e6670d6)" style="fill: none; stroke: #000000; stroke-width: 3; stroke-linecap: square"/>
   </g>
   <g id="line2d_42">
    <path d="M 34.16 288.453725 
L 153.670293 288.453725 
L 153.670293 287.511634 
L 156.683607 287.511634 
L 156.683607 286.569542 
L 157.018328 286.569542 
L 157.018328 285.627451 
L 161.95654 285.627451 
L 161.95654 284.685359 
L 163.348542 284.685359 
L 163.348542 283.743268 
L 163.607579 283.743268 
L 163.607579 282.801176 
L 165.656546 282.801176 
L 165.656546 281.859085 
L 165.991267 281.859085 
L 165.991267 280.916993 
L 168.460096 280.916993 
L 168.460096 279.974902 
L 170.929479 279.974902 
L 171.040225 278.090719 
L 172.580518 278.090719 
L 172.580518 277.148627 
L 175.80304 277.148627 
L 175.80304 276.206536 
L 177.997335 276.206536 
L 177.997335 275.264444 
L 180.735304 275.264444 
L 180.735304 274.322353 
L 182.13023 274.322353 
L 182.13023 273.380261 
L 183.209938 273.380261 
L 183.209938 272.43817 
L 185.830029 272.43817 
L 185.830029 271.496078 
L 186.413951 271.496078 
L 186.413951 270.553987 
L 190.592844 270.553987 
L 190.592844 269.611895 
L 191.103169 269.611895 
L 191.103169 268.669804 
L 192.346797 268.669804 
L 192.346797 267.727712 
L 197.999741 267.727712 
L 197.999741 266.785621 
L 201.203755 266.785621 
L 201.203755 265.843529 
L 202.636748 265.843529 
L 202.636748 264.901438 
L 202.906903 264.901438 
L 202.906903 263.959346 
L 212.688532 263.959346 
L 212.688532 263.017255 
L 217.157467 263.017255 
L 217.157467 262.075163 
L 217.555696 262.075163 
L 217.555696 261.133072 
L 219.272925 261.133072 
L 219.272925 260.19098 
L 219.442221 260.19098 
L 219.442221 259.248889 
L 220.293666 259.248889 
L 220.379239 257.364706 
L 221.908995 257.364706 
L 221.908995 256.422614 
L 222.72333 256.422614 
L 222.72333 255.480523 
L 223.533357 255.480523 
L 223.533357 254.538431 
L 223.868079 254.538431 
L 223.868079 253.59634 
L 224.475211 253.59634 
L 224.475211 252.654248 
L 224.67331 252.654248 
L 224.67331 251.712157 
L 225.392964 251.712157 
L 225.392964 250.770065 
L 225.676925 250.770065 
L 225.676925 249.827974 
L 225.922334 249.827974 
L 225.922334 248.885882 
L 226.469366 248.885882 
L 226.469366 247.943791 
L 227.337326 247.943791 
L 227.349163 246.059608 
L 227.817952 246.059608 
L 227.817952 245.117516 
L 228.806291 245.117516 
L 228.806291 244.175425 
L 229.125469 244.175425 
L 229.125469 243.233333 
L 230.075295 243.233333 
L 230.075295 242.291242 
L 230.45733 242.291242 
L 230.45733 241.34915 
L 230.674342 241.34915 
L 230.674342 240.407059 
L 230.881934 240.407059 
L 230.881934 239.464967 
L 231.199713 239.464967 
L 231.199713 238.522876 
L 231.486366 238.522876 
L 231.486366 237.580784 
L 231.905159 237.580784 
L 231.944466 235.696601 
L 232.578254 235.696601 
L 232.578254 234.75451 
L 232.884134 234.75451 
L 232.984763 232.870327 
L 233.230609 232.870327 
L 233.230609 231.928235 
L 233.511643 231.928235 
L 233.511643 230.986144 
L 233.921719 230.986144 
L 233.921719 230.044052 
L 234.527399 230.044052 
L 234.527399 229.101961 
L 235.724987 229.101961 
L 235.78804 226.275686 
L 236.160381 226.275686 
L 236.160381 225.333595 
L 236.409806 225.333595 
L 236.409806 224.391503 
L 236.659688 224.391503 
L 236.659688 223.449412 
L 236.812153 223.449412 
L 236.911564 220.623137 
L 237.674968 220.623137 
L 237.749171 218.738954 
L 237.951861 218.738954 
L 237.951861 217.796863 
L 238.440654 217.796863 
L 238.440654 216.854771 
L 238.808349 216.854771 
L 238.808349 215.91268 
L 239.124004 215.91268 
L 239.124004 214.970588 
L 239.290214 214.970588 
L 239.290214 214.028497 
L 239.471024 214.028497 
L 239.471024 213.086405 
L 239.715342 213.086405 
L 239.715342 212.144314 
L 240.341013 212.144314 
L 240.341013 211.202222 
L 240.571128 211.202222 
L 240.604405 209.318039 
L 241.574968 209.318039 
L 241.665322 207.433856 
L 241.686788 207.433856 
L 241.778933 205.549673 
L 241.861973 205.549673 
L 241.861973 204.607582 
L 241.997957 204.607582 
L 241.997957 203.66549 
L 242.195109 203.66549 
L 242.203548 201.781307 
L 242.511986 201.781307 
L 242.511986 200.839216 
L 242.762896 200.839216 
L 242.762896 199.897124 
L 243.046857 199.897124 
L 243.046857 198.955033 
L 243.309097 198.955033 
L 243.309097 198.012941 
L 243.461378 198.012941 
L 243.461378 197.07085 
L 243.676 197.07085 
L 243.676 195.186667 
L 244.735926 195.186667 
L 244.809381 193.302484 
L 244.946124 193.302484 
L 244.946124 192.360392 
L 245.187884 192.360392 
L 245.187884 191.418301 
L 245.885792 191.418301 
L 245.885792 190.476209 
L 246.079504 190.476209 
L 246.13516 187.649935 
L 246.495402 187.649935 
L 246.495402 186.707843 
L 246.697112 186.707843 
L 246.697112 185.765752 
L 246.967087 185.765752 
L 247.019172 183.881569 
L 247.525711 183.881569 
L 247.633556 181.997386 
L 247.666354 181.997386 
L 247.666354 181.055294 
L 247.809672 181.055294 
L 247.809672 180.113203 
L 248.160436 180.113203 
L 248.271181 178.22902 
L 248.569645 178.22902 
L 248.569645 177.286928 
L 248.789698 177.286928 
L 248.873129 175.402745 
L 248.936478 175.402745 
L 248.981866 172.576471 
L 249.162039 172.576471 
L 249.220799 170.692288 
L 249.313952 170.692288 
L 249.411464 168.808105 
L 249.876146 168.808105 
L 249.96161 161.271373 
L 250.29542 161.271373 
L 250.371525 159.38719 
L 250.544845 159.38719 
L 250.544845 158.445098 
L 250.751872 158.445098 
L 250.751872 157.503007 
L 250.898405 157.503007 
L 250.898405 156.560915 
L 251.046603 156.560915 
L 251.046603 155.618824 
L 251.258217 155.618824 
L 251.258217 154.676732 
L 251.39195 154.676732 
L 251.442312 150.908366 
L 251.976738 150.908366 
L 251.976738 149.966275 
L 252.185879 149.966275 
L 252.185879 149.024183 
L 252.575693 149.024183 
L 252.648939 146.197908 
L 252.780052 146.197908 
L 252.787544 144.313725 
L 253.122897 144.313725 
L 253.152393 141.487451 
L 253.33246 141.487451 
L 253.401818 139.603268 
L 253.473467 139.603268 
L 253.473467 138.661176 
L 253.903577 138.661176 
L 253.903577 137.719085 
L 254.276719 137.719085 
L 254.276719 136.776993 
L 254.511661 136.776993 
L 254.511661 135.834902 
L 254.711002 135.834902 
L 254.711002 134.89281 
L 254.92059 134.89281 
L 254.932608 133.008627 
L 255.133224 133.008627 
L 255.216569 131.124444 
L 255.338624 131.124444 
L 255.432666 129.240261 
L 255.940026 129.240261 
L 255.940026 128.29817 
L 256.256292 128.29817 
L 256.347419 126.413987 
L 256.810663 126.413987 
L 256.810663 125.471895 
L 257.083205 125.471895 
L 257.083205 124.529804 
L 257.357597 124.529804 
L 257.357597 123.587712 
L 257.891403 123.587712 
L 257.891403 122.645621 
L 258.136622 122.645621 
L 258.136622 121.703529 
L 258.420583 121.703529 
L 258.420583 120.761438 
L 258.561131 120.761438 
L 258.665114 118.877255 
L 258.790281 118.877255 
L 258.879261 116.993072 
L 258.934549 116.993072 
L 258.934549 116.05098 
L 259.09959 116.05098 
L 259.09959 115.108889 
L 260.206694 115.108889 
L 260.23297 113.224706 
L 260.364888 113.224706 
L 260.364888 111.340523 
L 260.484622 111.340523 
L 260.56161 109.45634 
L 260.694955 109.45634 
L 260.739357 107.572157 
L 261.869127 107.572157 
L 261.869127 106.630065 
L 261.983019 106.630065 
L 261.983019 105.687974 
L 262.117899 105.687974 
L 262.222457 103.803791 
L 262.509899 103.803791 
L 262.509899 102.861699 
L 263.084237 102.861699 
L 263.089944 100.977516 
L 263.355838 100.977516 
L 263.355838 100.035425 
L 263.763417 100.035425 
L 263.763417 99.093333 
L 263.943371 99.093333 
L 263.943371 98.151242 
L 264.35436 98.151242 
L 264.35436 97.20915 
L 265.21054 97.20915 
L 265.298301 94.382876 
L 265.321913 94.382876 
L 265.321913 93.440784 
L 266.062824 93.440784 
L 266.062824 92.498693 
L 266.212812 92.498693 
L 266.212812 91.556601 
L 266.637369 91.556601 
L 266.637369 90.61451 
L 266.950117 90.61451 
L 266.950117 89.672418 
L 267.76322 89.672418 
L 267.76322 88.730327 
L 268.197934 88.730327 
L 268.197934 87.788235 
L 268.502314 87.788235 
L 268.570276 85.904052 
L 268.800793 85.904052 
L 268.819701 84.019869 
L 269.160455 84.019869 
L 269.160455 83.077778 
L 269.321459 83.077778 
L 269.321459 82.135686 
L 269.812321 82.135686 
L 269.812321 81.193595 
L 270.157477 81.193595 
L 270.157477 80.251503 
L 270.774572 80.251503 
L 270.850549 78.36732 
L 270.945701 78.36732 
L 270.945701 77.425229 
L 271.646651 77.425229 
L 271.646651 76.483137 
L 271.898424 76.483137 
L 271.898424 75.541046 
L 272.272969 75.541046 
L 272.272969 74.598954 
L 272.799849 74.598954 
L 272.799849 73.656863 
L 273.626225 73.656863 
L 273.696613 71.77268 
L 273.802675 71.77268 
L 273.802675 70.830588 
L 274.829993 70.830588 
L 274.920292 68.004314 
L 276.409466 68.004314 
L 276.409466 67.062222 
L 277.240067 67.062222 
L 277.240067 66.120131 
L 277.593456 66.120131 
L 277.686967 64.235948 
L 278.38904 64.235948 
L 278.38904 63.293856 
L 278.507827 63.293856 
L 278.507827 62.351765 
L 280.412286 62.351765 
L 280.412286 61.409673 
L 281.630694 61.409673 
L 281.630694 60.467582 
L 282.327189 60.467582 
L 282.327189 59.52549 
L 283.509917 59.52549 
L 283.509917 58.583399 
L 283.816363 58.583399 
L 283.816363 57.641307 
L 285.531202 57.641307 
L 285.531202 56.699216 
L 285.795937 56.699216 
L 285.795937 55.757124 
L 287.020377 55.757124 
L 287.020377 54.815033 
L 287.670292 54.815033 
L 287.670292 53.872941 
L 288.005013 53.872941 
L 288.005013 52.93085 
L 288.758746 52.93085 
L 288.758746 51.988758 
L 288.999951 51.988758 
L 288.999951 51.046667 
L 289.20495 51.046667 
L 289.220557 49.162484 
L 290.702236 49.162484 
L 290.702236 48.220392 
L 292.943226 48.220392 
L 292.943226 47.278301 
L 293.104849 47.278301 
L 293.104849 46.336209 
L 293.799868 46.336209 
L 293.799868 45.394118 
L 294.594265 45.394118 
L 294.594265 44.452026 
L 295.344562 44.452026 
L 295.344562 43.509935 
L 298.982119 43.509935 
L 298.982119 42.567843 
L 299.316841 42.567843 
L 299.316841 41.625752 
L 299.4949 41.625752 
L 299.4949 40.68366 
L 300.08036 40.68366 
L 300.08036 39.741569 
L 304.255053 39.741569 
L 304.255053 38.799477 
L 305.906092 38.799477 
L 305.906092 37.857386 
L 307.190763 37.857386 
L 307.190763 36.915294 
L 308.628684 36.915294 
L 308.628684 35.973203 
L 309.993355 35.973203 
L 309.993355 35.031111 
L 310.525751 35.031111 
L 310.525751 34.08902 
L 312.731324 34.08902 
L 312.731324 33.146928 
L 313.116915 33.146928 
L 313.116915 32.204837 
L 313.816837 32.204837 
L 313.816837 31.262745 
L 316.811361 31.262745 
L 316.811361 30.320654 
L 318.2417 30.320654 
L 318.2417 28.436471 
L 324.342818 28.436471 
L 324.428743 26.552288 
L 325.640032 26.552288 
L 325.640032 25.610196 
L 334.632768 25.610196 
L 334.632768 24.668105 
L 352.89568 24.668105 
L 352.89568 23.726013 
L 364.207507 23.726013 
L 364.217295 21.84183 
L 371.327698 21.84183 
L 371.327698 20.899739 
L 372.765618 20.899739 
L 372.765618 19.957647 
L 374.662685 19.957647 
L 374.662685 19.015556 
L 375.529122 19.015556 
L 375.529122 18.073464 
L 377.953772 18.073464 
L 377.953772 17.131373 
L 380.948295 17.131373 
L 380.948295 16.189281 
L 382.378635 16.189281 
L 382.378635 14.305098 
L 382.639525 14.305098 
L 382.639525 13.363007 
L 384.077446 13.363007 
L 384.077446 12.420915 
L 385.974513 12.420915 
L 385.974513 11.478824 
L 389.265599 11.478824 
L 389.265599 10.536732 
L 389.776967 10.536732 
L 389.776967 9.594641 
L 392.260123 9.594641 
L 392.260123 8.652549 
L 393.690462 8.652549 
L 393.690462 6.768366 
L 401.088794 6.768366 
L 401.088794 5.826275 
L 453.192 5.826275 
L 453.192 5.826275 
" clip-path="url(#p5a3e6670d6)" style="fill: none; stroke: #00bfbf; stroke-width: 3; stroke-linecap: square"/>
   </g>
   <g id="line2d_43">
    <path clip-path="url(#p5a3e6670d6)" style="fill: none; stroke: #00bfbf; stroke-width: 3; stroke-linecap: square"/>
   </g>
   <g id="line2d_44">
    <path d="M 34.16 288.453725 
L 162.04019 288.453725 
L 162.04019 287.511634 
L 163.173571 287.511634 
L 163.173571 286.569542 
L 163.940358 286.569542 
L 163.940358 285.627451 
L 164.133485 285.627451 
L 164.133485 284.685359 
L 166.246906 284.685359 
L 166.246906 283.743268 
L 169.211714 283.743268 
L 169.211714 282.801176 
L 169.368831 282.801176 
L 169.368831 281.859085 
L 172.655368 281.859085 
L 172.655368 280.916993 
L 172.844797 280.916993 
L 172.844797 279.974902 
L 173.978178 279.974902 
L 173.978178 279.03281 
L 174.744964 279.03281 
L 174.744964 278.090719 
L 174.938092 278.090719 
L 174.938092 277.148627 
L 175.525967 277.148627 
L 175.525967 276.206536 
L 177.051513 276.206536 
L 177.051513 275.264444 
L 180.016321 275.264444 
L 180.016321 274.322353 
L 180.173438 274.322353 
L 180.173438 273.380261 
L 180.401973 273.380261 
L 180.401973 272.43817 
L 181.978444 272.43817 
L 181.978444 271.496078 
L 183.131085 271.496078 
L 183.131085 270.553987 
L 184.738831 270.553987 
L 184.809354 268.669804 
L 186.330574 268.669804 
L 186.330574 267.727712 
L 186.638486 267.727712 
L 186.638486 266.785621 
L 189.006112 266.785621 
L 189.006112 265.843529 
L 192.842289 265.843529 
L 192.842289 264.901438 
L 194.061908 264.901438 
L 194.061908 263.959346 
L 194.370748 263.959346 
L 194.370748 263.017255 
L 196.597802 263.017255 
L 196.597802 262.075163 
L 196.892818 262.075163 
L 196.892818 261.133072 
L 197.443093 261.133072 
L 197.443093 260.19098 
L 204.925753 260.19098 
L 204.925753 259.248889 
L 206.062276 259.248889 
L 206.062276 258.306797 
L 206.454211 258.306797 
L 206.454211 257.364706 
L 218.733494 257.364706 
L 218.733494 256.422614 
L 221.462606 256.422614 
L 221.462606 255.480523 
L 224.833846 255.480523 
L 224.833846 254.538431 
L 226.55704 254.538431 
L 226.55704 253.59634 
L 227.337632 253.59634 
L 227.337632 252.654248 
L 227.62514 252.654248 
L 227.62514 251.712157 
L 229.286152 251.712157 
L 229.286152 250.770065 
L 230.532016 250.770065 
L 230.632066 248.885882 
L 232.453312 248.885882 
L 232.453312 247.943791 
L 233.928753 247.943791 
L 233.996433 246.059608 
L 234.156923 246.059608 
L 234.156923 245.117516 
L 234.523375 245.117516 
L 234.523375 244.175425 
L 234.929322 244.175425 
L 234.929322 243.233333 
L 235.080469 243.233333 
L 235.182423 240.407059 
L 236.296933 240.407059 
L 236.296933 239.464967 
L 236.441823 239.464967 
L 236.441823 238.522876 
L 236.725545 238.522876 
L 236.770292 236.638693 
L 236.92939 236.638693 
L 236.987833 234.75451 
L 237.402763 234.75451 
L 237.402763 233.812418 
L 237.720302 233.812418 
L 237.720302 232.870327 
L 238.030398 232.870327 
L 238.030398 231.928235 
L 238.287692 231.928235 
L 238.289462 230.044052 
L 238.429747 230.044052 
L 238.523101 228.159869 
L 238.86011 228.159869 
L 238.86011 227.217778 
L 239.074937 227.217778 
L 239.170935 225.333595 
L 239.562078 225.333595 
L 239.562078 224.391503 
L 239.955143 224.391503 
L 239.955143 223.449412 
L 240.07321 223.449412 
L 240.07321 222.50732 
L 240.299682 222.50732 
L 240.299682 221.565229 
L 240.449414 221.565229 
L 240.449414 220.623137 
L 240.603031 220.623137 
L 240.603031 219.681046 
L 240.926605 219.681046 
L 241.016804 217.796863 
L 241.05745 217.796863 
L 241.05745 216.854771 
L 241.336623 216.854771 
L 241.433282 214.970588 
L 241.589222 214.970588 
L 241.666921 212.144314 
L 241.893393 212.144314 
L 241.893393 211.202222 
L 242.286677 211.202222 
L 242.315928 208.375948 
L 242.520316 208.375948 
L 242.600572 205.549673 
L 242.752868 205.549673 
L 242.786053 203.66549 
L 243.199677 203.66549 
L 243.251829 200.839216 
L 243.846451 200.839216 
L 243.910487 198.955033 
L 244.144125 198.955033 
L 244.144125 198.012941 
L 244.393797 198.012941 
L 244.403545 196.128758 
L 244.559749 196.128758 
L 244.559749 195.186667 
L 244.793388 195.186667 
L 244.793388 194.244575 
L 245.020768 194.244575 
L 245.045961 192.360392 
L 245.459748 192.360392 
L 245.459748 191.418301 
L 245.620009 191.418301 
L 245.68622 189.534118 
L 246.082739 189.534118 
L 246.082739 188.592026 
L 246.313143 188.592026 
L 246.32444 186.707843 
L 246.549226 186.707843 
L 246.549226 185.765752 
L 246.677362 185.765752 
L 246.72584 183.881569 
L 246.89183 183.881569 
L 246.94304 181.997386 
L 247.234455 181.997386 
L 247.234455 181.055294 
L 247.353474 181.055294 
L 247.464248 179.171111 
L 247.574899 179.171111 
L 247.574899 178.22902 
L 247.745731 178.22902 
L 247.745731 177.286928 
L 247.936953 177.286928 
L 248.000819 174.460654 
L 248.133011 174.460654 
L 248.166216 172.576471 
L 248.398013 172.576471 
L 248.45092 170.692288 
L 248.586215 170.692288 
L 248.667643 167.866013 
L 249.105803 167.866013 
L 249.105803 166.923922 
L 249.339442 166.923922 
L 249.360891 164.097647 
L 249.55675 164.097647 
L 249.59453 160.329281 
L 249.672152 160.329281 
L 249.672152 159.38719 
L 250.184385 159.38719 
L 250.192262 157.503007 
L 250.608682 157.503007 
L 250.608682 156.560915 
L 250.818988 156.560915 
L 250.818988 155.618824 
L 251.228923 155.618824 
L 251.228923 154.676732 
L 251.407638 154.676732 
L 251.407638 153.734641 
L 251.614427 153.734641 
L 251.614427 152.792549 
L 251.968754 152.792549 
L 251.968754 151.850458 
L 252.202393 151.850458 
L 252.217343 149.966275 
L 252.347447 149.966275 
L 252.347447 149.024183 
L 252.558112 149.024183 
L 252.637651 147.14 
L 252.731791 147.14 
L 252.731791 146.197908 
L 252.958263 146.197908 
L 252.974499 144.313725 
L 253.132269 144.313725 
L 253.208138 142.429542 
L 253.387357 142.429542 
L 253.387357 140.545359 
L 253.585185 140.545359 
L 253.585185 139.603268 
L 253.91613 139.603268 
L 253.91613 138.661176 
L 254.115674 138.661176 
L 254.115674 137.719085 
L 254.226967 137.719085 
L 254.234679 135.834902 
L 254.483521 135.834902 
L 254.587498 133.950719 
L 254.710296 133.950719 
L 254.710296 133.008627 
L 255.013196 133.008627 
L 255.055939 131.124444 
L 255.208995 131.124444 
L 255.26739 129.240261 
L 255.389022 129.240261 
L 255.389022 128.29817 
L 255.513184 128.29817 
L 255.594751 125.471895 
L 255.644133 125.471895 
L 255.644133 124.529804 
L 255.757906 124.529804 
L 255.858257 121.703529 
L 255.946064 121.703529 
L 255.99522 118.877255 
L 256.181208 118.877255 
L 256.238755 116.993072 
L 256.483854 116.993072 
L 256.483854 116.05098 
L 256.795849 116.05098 
L 256.795849 115.108889 
L 257.000965 115.108889 
L 257.000965 114.166797 
L 257.266949 114.166797 
L 257.306136 112.282614 
L 257.539775 112.282614 
L 257.589685 110.398431 
L 257.742308 110.398431 
L 257.742308 109.45634 
L 258.012313 109.45634 
L 258.113615 107.572157 
L 258.217319 107.572157 
L 258.217319 106.630065 
L 258.937618 106.630065 
L 259.032232 104.745882 
L 259.118144 104.745882 
L 259.118144 103.803791 
L 259.261858 103.803791 
L 259.261858 102.861699 
L 259.47225 102.861699 
L 259.47225 101.919608 
L 259.621217 101.919608 
L 259.715516 99.093333 
L 259.745778 99.093333 
L 259.745778 98.151242 
L 259.974036 98.151242 
L 259.996061 96.267059 
L 260.404311 96.267059 
L 260.404311 95.324967 
L 260.6594 95.324967 
L 260.6594 93.440784 
L 260.790317 93.440784 
L 260.790317 92.498693 
L 261.332602 92.498693 
L 261.332602 91.556601 
L 262.102126 91.556601 
L 262.102126 90.61451 
L 262.444628 90.61451 
L 262.480053 88.730327 
L 263.138869 88.730327 
L 263.138869 87.788235 
L 263.267263 87.788235 
L 263.267263 86.846144 
L 263.380605 86.846144 
L 263.421957 84.961961 
L 263.550043 84.961961 
L 263.617335 83.077778 
L 263.840125 83.077778 
L 263.947995 81.193595 
L 264.073763 81.193595 
L 264.073763 80.251503 
L 264.273007 80.251503 
L 264.273007 79.309412 
L 264.520413 79.309412 
L 264.520413 78.36732 
L 264.83626 78.36732 
L 264.83626 77.425229 
L 264.950416 77.425229 
L 264.950416 76.483137 
L 265.222381 76.483137 
L 265.222381 75.541046 
L 265.871088 75.541046 
L 265.871088 74.598954 
L 266.380954 74.598954 
L 266.380954 73.656863 
L 266.893259 73.656863 
L 266.893259 72.714771 
L 267.246078 72.714771 
L 267.246078 71.77268 
L 267.667171 71.77268 
L 267.667171 70.830588 
L 267.866591 70.830588 
L 267.866591 69.888497 
L 268.319654 69.888497 
L 268.355308 68.004314 
L 268.604645 68.004314 
L 268.604645 67.062222 
L 271.186219 67.062222 
L 271.209025 65.178039 
L 272.603343 65.178039 
L 272.603343 64.235948 
L 273.462778 64.235948 
L 273.462778 63.293856 
L 274.413888 63.293856 
L 274.413888 62.351765 
L 275.138633 62.351765 
L 275.138633 61.409673 
L 275.700105 61.409673 
L 275.700105 60.467582 
L 275.911344 60.467582 
L 275.942347 58.583399 
L 277.228564 58.583399 
L 277.228564 57.641307 
L 278.017108 57.641307 
L 278.017108 56.699216 
L 279.219153 56.699216 
L 279.219153 55.757124 
L 279.586558 55.757124 
L 279.586558 54.815033 
L 280.673499 54.815033 
L 280.747612 51.046667 
L 281.486726 51.046667 
L 281.486726 50.104575 
L 281.679853 50.104575 
L 281.679853 49.162484 
L 282.927252 49.162484 
L 282.927252 48.220392 
L 283.793274 48.220392 
L 283.793274 47.278301 
L 285.375819 47.278301 
L 285.375819 46.336209 
L 286.621247 46.336209 
L 286.621247 45.394118 
L 286.758082 45.394118 
L 286.758082 44.452026 
L 286.915199 44.452026 
L 286.915199 43.509935 
L 290.933685 43.509935 
L 290.933685 42.567843 
L 291.784005 42.567843 
L 291.784005 41.625752 
L 292.067065 41.625752 
L 292.067065 40.68366 
L 292.833852 40.68366 
L 292.917386 38.799477 
L 293.026979 38.799477 
L 293.072335 36.915294 
L 293.684172 36.915294 
L 293.684172 35.973203 
L 293.8773 35.973203 
L 293.8773 35.031111 
L 294.212937 35.031111 
L 294.212937 34.08902 
L 295.140401 34.08902 
L 295.140401 33.146928 
L 295.990721 33.146928 
L 295.990721 32.204837 
L 298.105209 32.204837 
L 298.105209 31.262745 
L 298.262325 31.262745 
L 298.262325 30.320654 
L 298.955529 30.320654 
L 298.955529 29.378562 
L 299.112646 29.378562 
L 299.112646 28.436471 
L 303.677411 28.436471 
L 303.677411 27.494379 
L 304.184855 27.494379 
L 304.184855 26.552288 
L 304.419461 26.552288 
L 304.419461 25.610196 
L 305.269781 25.610196 
L 305.269781 24.668105 
L 315.531981 24.668105 
L 315.531981 23.726013 
L 316.382301 23.726013 
L 316.382301 22.783922 
L 345.171508 22.783922 
L 345.171508 21.84183 
L 348.078384 21.84183 
L 348.078384 20.899739 
L 354.31666 20.899739 
L 354.31666 19.957647 
L 356.518634 19.957647 
L 356.518634 19.015556 
L 357.368955 19.015556 
L 357.368955 18.073464 
L 358.149399 18.073464 
L 358.149399 17.131373 
L 359.425511 17.131373 
L 359.425511 16.189281 
L 360.275831 16.189281 
L 360.275831 15.24719 
L 365.663787 15.24719 
L 365.679379 13.363007 
L 366.214011 13.363007 
L 366.214011 12.420915 
L 366.514107 12.420915 
L 366.514107 11.478824 
L 369.496526 11.478824 
L 369.496526 10.536732 
L 370.346846 10.536732 
L 370.346846 9.594641 
L 377.026505 9.594641 
L 377.026505 8.652549 
L 377.561137 8.652549 
L 377.561137 7.710458 
L 377.876825 7.710458 
L 377.876825 6.768366 
L 378.411458 6.768366 
L 378.411458 5.826275 
L 453.192 5.826275 
L 453.192 5.826275 
" clip-path="url(#p5a3e6670d6)" style="fill: none; stroke: #bf00bf; stroke-width: 3; stroke-linecap: square"/>
   </g>
   <g id="line2d_45">
    <path clip-path="url(#p5a3e6670d6)" style="fill: none; stroke: #bf00bf; stroke-width: 3; stroke-linecap: square"/>
   </g>
   <g id="line2d_46">
    <path d="M 34.16 288.453725 
L 143.259649 288.453725 
L 143.259649 287.511634 
L 169.762887 287.511634 
L 169.762887 286.569542 
L 171.403636 286.569542 
L 171.403636 285.627451 
L 172.959349 285.627451 
L 172.959349 284.685359 
L 173.514969 284.685359 
L 173.514969 283.743268 
L 175.431795 283.743268 
L 175.431795 281.859085 
L 178.882847 281.859085 
L 178.882847 280.916993 
L 181.51726 280.916993 
L 181.51726 279.974902 
L 184.199825 279.974902 
L 184.199825 279.03281 
L 188.903361 279.03281 
L 188.903361 278.090719 
L 189.213007 278.090719 
L 189.317062 276.206536 
L 190.789528 276.206536 
L 190.789528 275.264444 
L 191.184876 275.264444 
L 191.184876 274.322353 
L 193.170184 274.322353 
L 193.170184 273.380261 
L 198.20705 273.380261 
L 198.20705 272.43817 
L 198.880623 272.43817 
L 198.984678 270.553987 
L 200.258049 270.553987 
L 200.258049 269.611895 
L 200.584018 269.611895 
L 200.584018 268.669804 
L 206.893583 268.669804 
L 206.893583 267.727712 
L 207.874666 267.727712 
L 207.874666 266.785621 
L 209.925665 266.785621 
L 209.925665 265.843529 
L 221.061039 265.843529 
L 221.061039 264.901438 
L 227.650743 264.901438 
L 227.698286 263.017255 
L 230.015905 263.017255 
L 230.031398 261.133072 
L 231.014952 261.133072 
L 231.014952 260.19098 
L 232.003873 260.19098 
L 232.003873 259.248889 
L 233.707051 259.248889 
L 233.707051 258.306797 
L 234.230552 258.306797 
L 234.28799 255.480523 
L 234.383051 255.480523 
L 234.383051 254.538431 
L 235.443265 254.538431 
L 235.443265 253.59634 
L 235.703144 253.59634 
L 235.703144 252.654248 
L 236.120961 252.654248 
L 236.120961 251.712157 
L 236.465621 251.712157 
L 236.465621 250.770065 
L 236.60973 250.770065 
L 236.668645 248.885882 
L 237.119987 248.885882 
L 237.119987 247.943791 
L 237.356312 247.943791 
L 237.445233 246.059608 
L 237.604656 246.059608 
L 237.711651 243.233333 
L 237.815707 243.233333 
L 237.918253 240.407059 
L 237.989834 240.407059 
L 237.989834 239.464967 
L 238.24099 239.464967 
L 238.34764 237.580784 
L 238.844799 237.580784 
L 238.844799 236.638693 
L 239.000541 236.638693 
L 239.002163 234.75451 
L 239.335636 234.75451 
L 239.34842 232.870327 
L 239.447177 232.870327 
L 239.490851 230.986144 
L 239.560353 230.986144 
L 239.658454 228.159869 
L 239.805609 228.159869 
L 239.908953 225.333595 
L 239.985311 225.333595 
L 239.985311 224.391503 
L 240.158114 224.391503 
L 240.209979 222.50732 
L 240.296755 222.50732 
L 240.296755 221.565229 
L 240.58271 221.565229 
L 240.58271 220.623137 
L 240.8747 220.623137 
L 240.8747 219.681046 
L 241.036093 219.681046 
L 241.036093 218.738954 
L 241.381341 218.738954 
L 241.381341 217.796863 
L 241.672707 217.796863 
L 241.714814 215.91268 
L 241.826355 215.91268 
L 241.826355 214.970588 
L 242.199557 214.970588 
L 242.199557 214.028497 
L 242.537292 214.028497 
L 242.537292 213.086405 
L 242.67741 213.086405 
L 242.67741 212.144314 
L 243.119251 212.144314 
L 243.119251 211.202222 
L 243.255356 211.202222 
L 243.262772 209.318039 
L 243.398891 209.318039 
L 243.502946 206.491765 
L 243.564266 206.491765 
L 243.564266 205.549673 
L 243.70969 205.549673 
L 243.808515 201.781307 
L 243.937467 201.781307 
L 243.946015 199.897124 
L 244.08248 199.897124 
L 244.08248 198.955033 
L 244.274716 198.955033 
L 244.275202 197.07085 
L 244.475485 197.07085 
L 244.475485 196.128758 
L 245.122352 196.128758 
L 245.122352 195.186667 
L 245.32847 195.186667 
L 245.432526 193.302484 
L 245.497842 193.302484 
L 245.590245 191.418301 
L 245.61224 191.418301 
L 245.718055 185.765752 
L 245.789636 185.765752 
L 245.789636 184.82366 
L 245.936737 184.82366 
L 246.040792 181.055294 
L 246.090346 181.055294 
L 246.174478 179.171111 
L 246.326671 179.171111 
L 246.326671 178.22902 
L 246.498657 178.22902 
L 246.498657 177.286928 
L 246.643414 177.286928 
L 246.705694 174.460654 
L 247.247906 174.460654 
L 247.3542 171.634379 
L 247.399145 171.634379 
L 247.50153 166.923922 
L 247.605411 166.923922 
L 247.605411 165.98183 
L 247.813336 165.98183 
L 247.912389 164.097647 
L 247.9709 164.097647 
L 248.034383 161.271373 
L 248.270263 161.271373 
L 248.367856 158.445098 
L 248.391805 158.445098 
L 248.479398 156.560915 
L 248.756693 156.560915 
L 248.852599 154.676732 
L 248.879312 154.676732 
L 248.879312 153.734641 
L 249.022592 153.734641 
L 249.022592 152.792549 
L 249.190334 152.792549 
L 249.239441 150.908366 
L 249.769796 150.908366 
L 249.769796 149.966275 
L 250.091245 149.966275 
L 250.091245 149.024183 
L 250.392045 149.024183 
L 250.392045 148.082092 
L 250.66919 148.082092 
L 250.760502 146.197908 
L 250.806805 146.197908 
L 250.806805 145.255817 
L 251.140278 145.255817 
L 251.182416 143.371634 
L 251.251819 143.371634 
L 251.251819 142.429542 
L 251.625021 142.429542 
L 251.625021 141.487451 
L 251.962756 141.487451 
L 251.962756 140.545359 
L 252.374974 140.545359 
L 252.392934 138.661176 
L 252.827521 138.661176 
L 252.827521 137.719085 
L 253.251373 137.719085 
L 253.316871 134.89281 
L 253.420926 134.89281 
L 253.50418 133.008627 
L 253.634293 133.008627 
L 253.740505 130.182353 
L 253.746286 130.182353 
L 253.746286 129.240261 
L 254.154573 129.240261 
L 254.184092 126.413987 
L 254.322514 126.413987 
L 254.322514 125.471895 
L 254.443933 125.471895 
L 254.443933 124.529804 
L 254.608043 124.529804 
L 254.684928 121.703529 
L 254.93078 121.703529 
L 254.93078 120.761438 
L 255.384735 120.761438 
L 255.384735 119.819346 
L 255.599942 119.819346 
L 255.675634 116.993072 
L 255.732614 116.993072 
L 255.732614 116.05098 
L 256.079358 116.05098 
L 256.14909 114.166797 
L 256.293147 114.166797 
L 256.40081 109.45634 
L 256.495399 109.45634 
L 256.495399 108.514248 
L 256.659042 108.514248 
L 256.730622 106.630065 
L 256.909485 106.630065 
L 256.981779 102.861699 
L 257.368461 102.861699 
L 257.45735 100.977516 
L 257.77212 100.977516 
L 257.77212 100.035425 
L 258.305925 100.035425 
L 258.399242 97.20915 
L 258.448056 97.20915 
L 258.546397 95.324967 
L 259.440554 95.324967 
L 259.440554 94.382876 
L 259.813745 94.382876 
L 259.813745 93.440784 
L 260.05007 93.440784 
L 260.152775 91.556601 
L 260.335989 91.556601 
L 260.335989 90.61451 
L 260.773371 90.61451 
L 260.773371 89.672418 
L 261.33004 89.672418 
L 261.434095 87.788235 
L 261.6943 87.788235 
L 261.6943 86.846144 
L 261.879839 86.846144 
L 261.983894 84.961961 
L 262.042179 84.961961 
L 262.042179 84.019869 
L 262.283594 84.019869 
L 262.310914 82.135686 
L 262.602712 82.135686 
L 262.602712 81.193595 
L 262.716645 81.193595 
L 262.716645 80.251503 
L 263.154026 80.251503 
L 263.154026 79.309412 
L 264.361913 79.309412 
L 264.361913 78.36732 
L 264.605232 78.36732 
L 264.709287 76.483137 
L 265.056015 76.483137 
L 265.056015 75.541046 
L 267.56661 75.541046 
L 267.56661 74.598954 
L 267.813804 74.598954 
L 267.813804 73.656863 
L 270.130479 73.656863 
L 270.130479 72.714771 
L 270.324083 72.714771 
L 270.324083 71.77268 
L 270.567861 71.77268 
L 270.567861 70.830588 
L 270.873882 70.830588 
L 270.873882 69.888497 
L 272.375082 69.888497 
L 272.375082 68.946405 
L 272.924881 68.946405 
L 272.924881 68.004314 
L 273.599275 68.004314 
L 273.599275 67.062222 
L 273.876175 67.062222 
L 273.876175 66.120131 
L 274.316574 66.120131 
L 274.403507 64.235948 
L 275.650274 64.235948 
L 275.650274 63.293856 
L 275.957323 63.293856 
L 275.957323 62.351765 
L 276.440044 62.351765 
L 276.440044 61.409673 
L 276.784163 61.409673 
L 276.877426 59.52549 
L 277.513037 59.52549 
L 277.513037 58.583399 
L 278.068656 58.583399 
L 278.068656 57.641307 
L 279.985482 57.641307 
L 279.985482 55.757124 
L 282.652327 55.757124 
L 282.652327 54.815033 
L 283.436534 54.815033 
L 283.436534 53.872941 
L 284.197997 53.872941 
L 284.293076 51.988758 
L 284.809163 51.988758 
L 284.809163 51.046667 
L 285.84879 51.046667 
L 285.84879 50.104575 
L 286.404409 50.104575 
L 286.449912 48.220392 
L 288.005625 48.220392 
L 288.005625 47.278301 
L 288.321236 47.278301 
L 288.321236 45.394118 
L 288.561245 45.394118 
L 288.561245 44.452026 
L 290.478071 44.452026 
L 290.507562 41.625752 
L 291.772287 41.625752 
L 291.772287 40.68366 
L 293.457048 40.68366 
L 293.457048 39.741569 
L 293.929123 39.741569 
L 293.929123 38.799477 
L 301.792801 38.799477 
L 301.792801 37.857386 
L 303.949637 37.857386 
L 303.949637 36.915294 
L 322.252412 36.915294 
L 322.252412 35.973203 
L 344.044538 35.973203 
L 344.044538 35.031111 
L 344.763667 35.031111 
L 344.763667 34.08902 
L 346.226394 34.08902 
L 346.226394 33.146928 
L 348.755649 33.146928 
L 348.755649 32.204837 
L 350.165927 32.204837 
L 350.165927 31.262745 
L 350.396399 31.262745 
L 350.396399 30.320654 
L 351.952112 30.320654 
L 351.952112 29.378562 
L 352.380291 29.378562 
L 352.380291 28.436471 
L 352.507731 28.436471 
L 352.507731 27.494379 
L 353.09942 27.494379 
L 353.09942 26.552288 
L 354.424558 26.552288 
L 354.424558 24.668105 
L 354.537127 24.668105 
L 354.562147 22.783922 
L 355.256256 22.783922 
L 355.256256 21.84183 
L 356.718983 21.84183 
L 356.718983 20.899739 
L 356.928661 20.899739 
L 356.928661 19.957647 
L 357.875609 19.957647 
L 357.875609 19.015556 
L 358.50168 19.015556 
L 358.50168 18.073464 
L 360.658516 18.073464 
L 360.658516 17.131373 
L 363.994241 17.131373 
L 363.994241 16.189281 
L 365.264414 16.189281 
L 365.264414 15.24719 
L 367.42125 15.24719 
L 367.42125 14.305098 
L 367.896123 14.305098 
L 367.896123 13.363007 
L 372.329994 13.363007 
L 372.329994 12.420915 
L 374.48683 12.420915 
L 374.48683 11.478824 
L 418.483614 11.478824 
L 418.483614 10.536732 
L 419.202742 10.536732 
L 419.202742 9.594641 
L 420.66547 9.594641 
L 420.66547 8.652549 
L 424.605003 8.652549 
L 424.605003 7.710458 
L 431.367737 7.710458 
L 431.367737 6.768366 
L 438.433317 6.768366 
L 438.433317 5.826275 
L 453.192 5.826275 
L 453.192 5.826275 
" clip-path="url(#p5a3e6670d6)" style="fill: none; stroke: #ff0000; stroke-width: 3; stroke-linecap: square"/>
   </g>
   <g id="line2d_47">
    <path clip-path="url(#p5a3e6670d6)" style="fill: none; stroke: #ff0000; stroke-width: 3; stroke-linecap: square"/>
   </g>
   <g id="line2d_48">
    <path d="M 243.676 291.28 
L 243.676 3 
" clip-path="url(#p5a3e6670d6)" style="fill: none; stroke: #000000; stroke-width: 1.5; stroke-linecap: square"/>
   </g>
   <g id="line2d_49">
    <path d="M 34.16 147.14 
L 453.192 147.14 
" clip-path="url(#p5a3e6670d6)" style="fill: none; stroke-dasharray: 2,3.3; stroke-dashoffset: 0; stroke: #000000; stroke-width: 2"/>
   </g>
   <g id="patch_3">
    <path d="M 34.16 291.28 
L 34.16 3 
" style="fill: none; stroke: #000000; stroke-width: 0.8; stroke-linejoin: miter; stroke-linecap: square"/>
   </g>
   <g id="patch_4">
    <path d="M 453.192 291.28 
L 453.192 3 
" style="fill: none; stroke: #000000; stroke-width: 0.8; stroke-linejoin: miter; stroke-linecap: square"/>
   </g>
   <g id="patch_5">
    <path d="M 34.16 291.28 
L 453.192 291.28 
" style="fill: none; stroke: #000000; stroke-width: 0.8; stroke-linejoin: miter; stroke-linecap: square"/>
   </g>
   <g id="patch_6">
    <path d="M 34.16 3 
L 453.192 3 
" style="fill: none; stroke: #000000; stroke-width: 0.8; stroke-linejoin: miter; stroke-linecap: square"/>
   </g>
   <g id="text_6">
    <!-- f6-f9,5-D -->
    <g transform="translate(356.36761 285.5144)scale(0.2 -0.2)">
     <defs>
      <path id="DejaVuSans-36" d="M 2113 2584 
Q 1688 2584 1439 2293 
Q 1191 2003 1191 1497 
Q 1191 994 1439 701 
Q 1688 409 2113 409 
Q 2538 409 2786 701 
Q 3034 994 3034 1497 
Q 3034 2003 2786 2293 
Q 2538 2584 2113 2584 
z
M 3366 4563 
L 3366 3988 
Q 3128 4100 2886 4159 
Q 2644 4219 2406 4219 
Q 1781 4219 1451 3797 
Q 1122 3375 1075 2522 
Q 1259 2794 1537 2939 
Q 1816 3084 2150 3084 
Q 2853 3084 3261 2657 
Q 3669 2231 3669 1497 
Q 3669 778 3244 343 
Q 2819 -91 2113 -91 
Q 1303 -91 875 529 
Q 447 1150 447 2328 
Q 447 3434 972 4092 
Q 1497 4750 2381 4750 
Q 2619 4750 2861 4703 
Q 3103 4656 3366 4563 
z
" transform="scale(0.015625)"/>
      <path id="DejaVuSans-39" d="M 703 97 
L 703 672 
Q 941 559 1184 500 
Q 1428 441 1663 441 
Q 2288 441 2617 861 
Q 2947 1281 2994 2138 
Q 2813 1869 2534 1725 
Q 2256 1581 1919 1581 
Q 1219 1581 811 2004 
Q 403 2428 403 3163 
Q 403 3881 828 4315 
Q 1253 4750 1959 4750 
Q 2769 4750 3195 4129 
Q 3622 3509 3622 2328 
Q 3622 1225 3098 567 
Q 2575 -91 1691 -91 
Q 1453 -91 1209 -44 
Q 966 3 703 97 
z
M 1959 2075 
Q 2384 2075 2632 2365 
Q 2881 2656 2881 3163 
Q 2881 3666 2632 3958 
Q 2384 4250 1959 4250 
Q 1534 4250 1286 3958 
Q 1038 3666 1038 3163 
Q 1038 2656 1286 2365 
Q 1534 2075 1959 2075 
z
" transform="scale(0.015625)"/>
      <path id="DejaVuSans-2c" d="M 750 794 
L 1409 794 
L 1409 256 
L 897 -744 
L 494 -744 
L 750 256 
L 750 794 
z
" transform="scale(0.015625)"/>
      <path id="DejaVuSans-35" d="M 691 4666 
L 3169 4666 
L 3169 4134 
L 1269 4134 
L 1269 2991 
Q 1406 3038 1543 3061 
Q 1681 3084 1819 3084 
Q 2600 3084 3056 2656 
Q 3513 2228 3513 1497 
Q 3513 744 3044 326 
Q 2575 -91 1722 -91 
Q 1428 -91 1123 -41 
Q 819 9 494 109 
L 494 744 
Q 775 591 1075 516 
Q 1375 441 1709 441 
Q 2250 441 2565 725 
Q 2881 1009 2881 1497 
Q 2881 1984 2565 2268 
Q 2250 2553 1709 2553 
Q 1456 2553 1204 2497 
Q 953 2441 691 2322 
L 691 4666 
z
" transform="scale(0.015625)"/>
      <path id="DejaVuSans-44" d="M 1259 4147 
L 1259 519 
L 2022 519 
Q 2988 519 3436 956 
Q 3884 1394 3884 2338 
Q 3884 3275 3436 3711 
Q 2988 4147 2022 4147 
L 1259 4147 
z
M 628 4666 
L 1925 4666 
Q 3281 4666 3915 4102 
Q 4550 3538 4550 2338 
Q 4550 1131 3912 565 
Q 3275 0 1925 0 
L 628 0 
L 628 4666 
z
" transform="scale(0.015625)"/>
     </defs>
     <use xlink:href="#DejaVuSans-66"/>
     <use xlink:href="#DejaVuSans-36" x="35.205078"/>
     <use xlink:href="#DejaVuSans-2d" x="98.828125"/>
     <use xlink:href="#DejaVuSans-66" x="134.912109"/>
     <use xlink:href="#DejaVuSans-39" x="170.117188"/>
     <use xlink:href="#DejaVuSans-2c" x="233.740234"/>
     <use xlink:href="#DejaVuSans-35" x="265.527344"/>
     <use xlink:href="#DejaVuSans-2d" x="329.150391"/>
     <use xlink:href="#DejaVuSans-44" x="365.234375"/>
    </g>
   </g>
   <g id="text_7">
    <!-- v2.6 -->
    <g style="fill: #808080" transform="translate(232.765062 286.317512)scale(0.1 -0.1)">
     <defs>
      <path id="DejaVuSans-32" d="M 1228 531 
L 3431 531 
L 3431 0 
L 469 0 
L 469 531 
Q 828 903 1448 1529 
Q 2069 2156 2228 2338 
Q 2531 2678 2651 2914 
Q 2772 3150 2772 3378 
Q 2772 3750 2511 3984 
Q 2250 4219 1831 4219 
Q 1534 4219 1204 4116 
Q 875 4013 500 3803 
L 500 4441 
Q 881 4594 1212 4672 
Q 1544 4750 1819 4750 
Q 2544 4750 2975 4387 
Q 3406 4025 3406 3419 
Q 3406 3131 3298 2873 
Q 3191 2616 2906 2266 
Q 2828 2175 2409 1742 
Q 1991 1309 1228 531 
z
" transform="scale(0.015625)"/>
      <path id="DejaVuSans-2e" d="M 684 794 
L 1344 794 
L 1344 0 
L 684 0 
L 684 794 
z
" transform="scale(0.015625)"/>
     </defs>
     <use xlink:href="#DejaVuSans-76"/>
     <use xlink:href="#DejaVuSans-32" x="59.179688"/>
     <use xlink:href="#DejaVuSans-2e" x="122.802734"/>
     <use xlink:href="#DejaVuSans-36" x="154.589844"/>
    </g>
   </g>
   <g id="legend_1">
    <g id="patch_7">
     <path d="M 48.16 136.425 
L 177.381875 136.425 
Q 181.381875 136.425 181.381875 132.425 
L 181.381875 17 
Q 181.381875 13 177.381875 13 
L 48.16 13 
Q 44.16 13 44.16 17 
L 44.16 132.425 
Q 44.16 136.425 48.16 136.425 
z
" style="fill: #ffffff; opacity: 0.2; stroke: #cccccc; stroke-linejoin: miter"/>
    </g>
    <g id="line2d_50">
     <path d="M 52.16 29.196875 
L 72.16 29.196875 
L 92.16 29.196875 
" style="fill: none; stroke: #000000; stroke-width: 3; stroke-linecap: square"/>
    </g>
    <g id="text_8">
     <!-- 1: 4/4 -->
     <g transform="translate(108.16 36.196875)scale(0.2 -0.2)">
      <defs>
       <path id="DejaVuSans-3a" d="M 750 794 
L 1409 794 
L 1409 0 
L 750 0 
L 750 794 
z
M 750 3309 
L 1409 3309 
L 1409 2516 
L 750 2516 
L 750 3309 
z
" transform="scale(0.015625)"/>
       <path id="DejaVuSans-34" d="M 2419 4116 
L 825 1625 
L 2419 1625 
L 2419 4116 
z
M 2253 4666 
L 3047 4666 
L 3047 1625 
L 3713 1625 
L 3713 1100 
L 3047 1100 
L 3047 0 
L 2419 0 
L 2419 1100 
L 313 1100 
L 313 1709 
L 2253 4666 
z
" transform="scale(0.015625)"/>
       <path id="DejaVuSans-2f" d="M 1625 4666 
L 2156 4666 
L 531 -594 
L 0 -594 
L 1625 4666 
z
" transform="scale(0.015625)"/>
      </defs>
      <use xlink:href="#DejaVuSans-31"/>
      <use xlink:href="#DejaVuSans-3a" x="63.623047"/>
      <use xlink:href="#DejaVuSans-20" x="97.314453"/>
      <use xlink:href="#DejaVuSans-34" x="129.101562"/>
      <use xlink:href="#DejaVuSans-2f" x="192.724609"/>
      <use xlink:href="#DejaVuSans-34" x="226.416016"/>
     </g>
    </g>
    <g id="line2d_51">
     <path d="M 52.16 58.553125 
L 72.16 58.553125 
L 92.16 58.553125 
" style="fill: none; stroke: #00bfbf; stroke-width: 3; stroke-linecap: square"/>
    </g>
    <g id="text_9">
     <!-- -1: 4/4 -->
     <g transform="translate(108.16 65.553125)scale(0.2 -0.2)">
      <use xlink:href="#DejaVuSans-2d"/>
      <use xlink:href="#DejaVuSans-31" x="36.083984"/>
      <use xlink:href="#DejaVuSans-3a" x="99.707031"/>
      <use xlink:href="#DejaVuSans-20" x="133.398438"/>
      <use xlink:href="#DejaVuSans-34" x="165.185547"/>
      <use xlink:href="#DejaVuSans-2f" x="228.808594"/>
      <use xlink:href="#DejaVuSans-34" x="262.5"/>
     </g>
    </g>
    <g id="line2d_52">
     <path d="M 52.16 87.909375 
L 72.16 87.909375 
L 92.16 87.909375 
" style="fill: none; stroke: #bf00bf; stroke-width: 3; stroke-linecap: square"/>
    </g>
    <g id="text_10">
     <!-- -4: 4/4 -->
     <g transform="translate(108.16 94.909375)scale(0.2 -0.2)">
      <use xlink:href="#DejaVuSans-2d"/>
      <use xlink:href="#DejaVuSans-34" x="36.083984"/>
      <use xlink:href="#DejaVuSans-3a" x="99.707031"/>
      <use xlink:href="#DejaVuSans-20" x="133.398438"/>
      <use xlink:href="#DejaVuSans-34" x="165.185547"/>
      <use xlink:href="#DejaVuSans-2f" x="228.808594"/>
      <use xlink:href="#DejaVuSans-34" x="262.5"/>
     </g>
    </g>
    <g id="line2d_53">
     <path d="M 52.16 117.265625 
L 72.16 117.265625 
L 92.16 117.265625 
" style="fill: none; stroke: #ff0000; stroke-width: 3; stroke-linecap: square"/>
    </g>
    <g id="text_11">
     <!-- -8: 4/4 -->
     <g transform="translate(108.16 124.265625)scale(0.2 -0.2)">
      <defs>
       <path id="DejaVuSans-38" d="M 2034 2216 
Q 1584 2216 1326 1975 
Q 1069 1734 1069 1313 
Q 1069 891 1326 650 
Q 1584 409 2034 409 
Q 2484 409 2743 651 
Q 3003 894 3003 1313 
Q 3003 1734 2745 1975 
Q 2488 2216 2034 2216 
z
M 1403 2484 
Q 997 2584 770 2862 
Q 544 3141 544 3541 
Q 544 4100 942 4425 
Q 1341 4750 2034 4750 
Q 2731 4750 3128 4425 
Q 3525 4100 3525 3541 
Q 3525 3141 3298 2862 
Q 3072 2584 2669 2484 
Q 3125 2378 3379 2068 
Q 3634 1759 3634 1313 
Q 3634 634 3220 271 
Q 2806 -91 2034 -91 
Q 1263 -91 848 271 
Q 434 634 434 1313 
Q 434 1759 690 2068 
Q 947 2378 1403 2484 
z
M 1172 3481 
Q 1172 3119 1398 2916 
Q 1625 2713 2034 2713 
Q 2441 2713 2670 2916 
Q 2900 3119 2900 3481 
Q 2900 3844 2670 4047 
Q 2441 4250 2034 4250 
Q 1625 4250 1398 4047 
Q 1172 3844 1172 3481 
z
" transform="scale(0.015625)"/>
      </defs>
      <use xlink:href="#DejaVuSans-2d"/>
      <use xlink:href="#DejaVuSans-38" x="36.083984"/>
      <use xlink:href="#DejaVuSans-3a" x="99.707031"/>
      <use xlink:href="#DejaVuSans-20" x="133.398438"/>
      <use xlink:href="#DejaVuSans-34" x="165.185547"/>
      <use xlink:href="#DejaVuSans-2f" x="228.808594"/>
      <use xlink:href="#DejaVuSans-34" x="262.5"/>
     </g>
    </g>
   </g>
  </g>
 </g>
 <defs>
  <clipPath id="p5a3e6670d6">
   <rect x="34.16" y="3" width="419.032" height="288.28"/>
  </clipPath>
 </defs>
</svg>
