<?xml version="1.0" encoding="utf-8" standalone="no"?>
<!DOCTYPE svg PUBLIC "-//W3C//DTD SVG 1.1//EN"
  "http://www.w3.org/Graphics/SVG/1.1/DTD/svg11.dtd">
<svg xmlns:xlink="http://www.w3.org/1999/xlink" width="460.8pt" height="345.6pt" viewBox="0 0 460.8 345.6" xmlns="http://www.w3.org/2000/svg" version="1.1">
 <metadata>
  <rdf:RDF xmlns:dc="http://purl.org/dc/elements/1.1/" xmlns:cc="http://creativecommons.org/ns#" xmlns:rdf="http://www.w3.org/1999/02/22-rdf-syntax-ns#">
   <cc:Work>
    <dc:type rdf:resource="http://purl.org/dc/dcmitype/StillImage"/>
    <dc:date>2022-03-18T14:33:11.969533</dc:date>
    <dc:format>image/svg+xml</dc:format>
    <dc:creator>
     <cc:Agent>
      <dc:title>Matplotlib v3.5.1, https://matplotlib.org/</dc:title>
     </cc:Agent>
    </dc:creator>
   </cc:Work>
  </rdf:RDF>
 </metadata>
 <defs>
  <style type="text/css">*{stroke-linejoin: round; stroke-linecap: butt}</style>
 </defs>
 <g id="figure_1">
  <g id="patch_1">
   <path d="M 0 345.6 
L 460.8 345.6 
L 460.8 0 
L 0 0 
z
" style="fill: #ffffff"/>
  </g>
  <g id="axes_1">
   <g id="patch_2">
    <path d="M 34.16 291.28 
L 453.192 291.28 
L 453.192 3 
L 34.16 3 
z
" style="fill: #ffffff"/>
   </g>
   <g id="matplotlib.axis_1">
    <g id="xtick_1">
     <g id="line2d_1">
      <path d="M 62.511932 291.28 
L 62.511932 3 
" clip-path="url(#p0a6aeab56f)" style="fill: none; stroke: #b0b0b0; stroke-width: 0.8; stroke-linecap: square"/>
     </g>
     <g id="line2d_2">
      <defs>
       <path id="m20e2f94ebb" d="M 0 0 
L 0 3.5 
" style="stroke: #000000; stroke-width: 0.8"/>
      </defs>
      <g>
       <use xlink:href="#m20e2f94ebb" x="62.511932" y="291.28" style="stroke: #000000; stroke-width: 0.8"/>
      </g>
     </g>
     <g id="text_1">
      <!-- -1 -->
      <g transform="translate(52.54162 313.476875)scale(0.2 -0.2)">
       <defs>
        <path id="DejaVuSans-2d" d="M 313 2009 
L 1997 2009 
L 1997 1497 
L 313 1497 
L 313 2009 
z
" transform="scale(0.015625)"/>
        <path id="DejaVuSans-31" d="M 794 531 
L 1825 531 
L 1825 4091 
L 703 3866 
L 703 4441 
L 1819 4666 
L 2450 4666 
L 2450 531 
L 3481 531 
L 3481 0 
L 794 0 
L 794 531 
z
" transform="scale(0.015625)"/>
       </defs>
       <use xlink:href="#DejaVuSans-2d"/>
       <use xlink:href="#DejaVuSans-31" x="36.083984"/>
      </g>
     </g>
    </g>
    <g id="xtick_2">
     <g id="line2d_3">
      <path d="M 243.676 291.28 
L 243.676 3 
" clip-path="url(#p0a6aeab56f)" style="fill: none; stroke: #b0b0b0; stroke-width: 0.8; stroke-linecap: square"/>
     </g>
     <g id="line2d_4">
      <g>
       <use xlink:href="#m20e2f94ebb" x="243.676" y="291.28" style="stroke: #000000; stroke-width: 0.8"/>
      </g>
     </g>
     <g id="text_2">
      <!-- 0 -->
      <g transform="translate(237.3135 313.476875)scale(0.2 -0.2)">
       <defs>
        <path id="DejaVuSans-30" d="M 2034 4250 
Q 1547 4250 1301 3770 
Q 1056 3291 1056 2328 
Q 1056 1369 1301 889 
Q 1547 409 2034 409 
Q 2525 409 2770 889 
Q 3016 1369 3016 2328 
Q 3016 3291 2770 3770 
Q 2525 4250 2034 4250 
z
M 2034 4750 
Q 2819 4750 3233 4129 
Q 3647 3509 3647 2328 
Q 3647 1150 3233 529 
Q 2819 -91 2034 -91 
Q 1250 -91 836 529 
Q 422 1150 422 2328 
Q 422 3509 836 4129 
Q 1250 4750 2034 4750 
z
" transform="scale(0.015625)"/>
       </defs>
       <use xlink:href="#DejaVuSans-30"/>
      </g>
     </g>
    </g>
    <g id="xtick_3">
     <g id="line2d_5">
      <path d="M 424.840068 291.28 
L 424.840068 3 
" clip-path="url(#p0a6aeab56f)" style="fill: none; stroke: #b0b0b0; stroke-width: 0.8; stroke-linecap: square"/>
     </g>
     <g id="line2d_6">
      <g>
       <use xlink:href="#m20e2f94ebb" x="424.840068" y="291.28" style="stroke: #000000; stroke-width: 0.8"/>
      </g>
     </g>
     <g id="text_3">
      <!-- 1 -->
      <g transform="translate(418.477568 313.476875)scale(0.2 -0.2)">
       <use xlink:href="#DejaVuSans-31"/>
      </g>
     </g>
    </g>
    <g id="xtick_4">
     <g id="line2d_7">
      <defs>
       <path id="m2010afc428" d="M 0 0 
L 0 2 
" style="stroke: #000000; stroke-width: 0.6"/>
      </defs>
      <g>
       <use xlink:href="#m2010afc428" x="34.449263" y="291.28" style="stroke: #000000; stroke-width: 0.6"/>
      </g>
     </g>
    </g>
    <g id="xtick_5">
     <g id="line2d_8">
      <g>
       <use xlink:href="#m2010afc428" x="44.95532" y="291.28" style="stroke: #000000; stroke-width: 0.6"/>
      </g>
     </g>
    </g>
    <g id="xtick_6">
     <g id="line2d_9">
      <g>
       <use xlink:href="#m2010afc428" x="54.222319" y="291.28" style="stroke: #000000; stroke-width: 0.6"/>
      </g>
     </g>
    </g>
    <g id="xtick_7">
     <g id="line2d_10">
      <g>
       <use xlink:href="#m2010afc428" x="117.047751" y="291.28" style="stroke: #000000; stroke-width: 0.6"/>
      </g>
     </g>
    </g>
    <g id="xtick_8">
     <g id="line2d_11">
      <g>
       <use xlink:href="#m2010afc428" x="148.94916" y="291.28" style="stroke: #000000; stroke-width: 0.6"/>
      </g>
     </g>
    </g>
    <g id="xtick_9">
     <g id="line2d_12">
      <g>
       <use xlink:href="#m2010afc428" x="171.583569" y="291.28" style="stroke: #000000; stroke-width: 0.6"/>
      </g>
     </g>
    </g>
    <g id="xtick_10">
     <g id="line2d_13">
      <g>
       <use xlink:href="#m2010afc428" x="189.140181" y="291.28" style="stroke: #000000; stroke-width: 0.6"/>
      </g>
     </g>
    </g>
    <g id="xtick_11">
     <g id="line2d_14">
      <g>
       <use xlink:href="#m2010afc428" x="203.484978" y="291.28" style="stroke: #000000; stroke-width: 0.6"/>
      </g>
     </g>
    </g>
    <g id="xtick_12">
     <g id="line2d_15">
      <g>
       <use xlink:href="#m2010afc428" x="215.613331" y="291.28" style="stroke: #000000; stroke-width: 0.6"/>
      </g>
     </g>
    </g>
    <g id="xtick_13">
     <g id="line2d_16">
      <g>
       <use xlink:href="#m2010afc428" x="226.119388" y="291.28" style="stroke: #000000; stroke-width: 0.6"/>
      </g>
     </g>
    </g>
    <g id="xtick_14">
     <g id="line2d_17">
      <g>
       <use xlink:href="#m2010afc428" x="235.386387" y="291.28" style="stroke: #000000; stroke-width: 0.6"/>
      </g>
     </g>
    </g>
    <g id="xtick_15">
     <g id="line2d_18">
      <g>
       <use xlink:href="#m2010afc428" x="298.211819" y="291.28" style="stroke: #000000; stroke-width: 0.6"/>
      </g>
     </g>
    </g>
    <g id="xtick_16">
     <g id="line2d_19">
      <g>
       <use xlink:href="#m2010afc428" x="330.113227" y="291.28" style="stroke: #000000; stroke-width: 0.6"/>
      </g>
     </g>
    </g>
    <g id="xtick_17">
     <g id="line2d_20">
      <g>
       <use xlink:href="#m2010afc428" x="352.747637" y="291.28" style="stroke: #000000; stroke-width: 0.6"/>
      </g>
     </g>
    </g>
    <g id="xtick_18">
     <g id="line2d_21">
      <g>
       <use xlink:href="#m2010afc428" x="370.304249" y="291.28" style="stroke: #000000; stroke-width: 0.6"/>
      </g>
     </g>
    </g>
    <g id="xtick_19">
     <g id="line2d_22">
      <g>
       <use xlink:href="#m2010afc428" x="384.649046" y="291.28" style="stroke: #000000; stroke-width: 0.6"/>
      </g>
     </g>
    </g>
    <g id="xtick_20">
     <g id="line2d_23">
      <g>
       <use xlink:href="#m2010afc428" x="396.777399" y="291.28" style="stroke: #000000; stroke-width: 0.6"/>
      </g>
     </g>
    </g>
    <g id="xtick_21">
     <g id="line2d_24">
      <g>
       <use xlink:href="#m2010afc428" x="407.283456" y="291.28" style="stroke: #000000; stroke-width: 0.6"/>
      </g>
     </g>
    </g>
    <g id="xtick_22">
     <g id="line2d_25">
      <g>
       <use xlink:href="#m2010afc428" x="416.550455" y="291.28" style="stroke: #000000; stroke-width: 0.6"/>
      </g>
     </g>
    </g>
    <g id="text_4">
     <!-- log10 of FEvals ratio -->
     <g transform="translate(141.371312 336.833125)scale(0.2 -0.2)">
      <defs>
       <path id="DejaVuSans-6c" d="M 603 4863 
L 1178 4863 
L 1178 0 
L 603 0 
L 603 4863 
z
" transform="scale(0.015625)"/>
       <path id="DejaVuSans-6f" d="M 1959 3097 
Q 1497 3097 1228 2736 
Q 959 2375 959 1747 
Q 959 1119 1226 758 
Q 1494 397 1959 397 
Q 2419 397 2687 759 
Q 2956 1122 2956 1747 
Q 2956 2369 2687 2733 
Q 2419 3097 1959 3097 
z
M 1959 3584 
Q 2709 3584 3137 3096 
Q 3566 2609 3566 1747 
Q 3566 888 3137 398 
Q 2709 -91 1959 -91 
Q 1206 -91 779 398 
Q 353 888 353 1747 
Q 353 2609 779 3096 
Q 1206 3584 1959 3584 
z
" transform="scale(0.015625)"/>
       <path id="DejaVuSans-67" d="M 2906 1791 
Q 2906 2416 2648 2759 
Q 2391 3103 1925 3103 
Q 1463 3103 1205 2759 
Q 947 2416 947 1791 
Q 947 1169 1205 825 
Q 1463 481 1925 481 
Q 2391 481 2648 825 
Q 2906 1169 2906 1791 
z
M 3481 434 
Q 3481 -459 3084 -895 
Q 2688 -1331 1869 -1331 
Q 1566 -1331 1297 -1286 
Q 1028 -1241 775 -1147 
L 775 -588 
Q 1028 -725 1275 -790 
Q 1522 -856 1778 -856 
Q 2344 -856 2625 -561 
Q 2906 -266 2906 331 
L 2906 616 
Q 2728 306 2450 153 
Q 2172 0 1784 0 
Q 1141 0 747 490 
Q 353 981 353 1791 
Q 353 2603 747 3093 
Q 1141 3584 1784 3584 
Q 2172 3584 2450 3431 
Q 2728 3278 2906 2969 
L 2906 3500 
L 3481 3500 
L 3481 434 
z
" transform="scale(0.015625)"/>
       <path id="DejaVuSans-20" transform="scale(0.015625)"/>
       <path id="DejaVuSans-66" d="M 2375 4863 
L 2375 4384 
L 1825 4384 
Q 1516 4384 1395 4259 
Q 1275 4134 1275 3809 
L 1275 3500 
L 2222 3500 
L 2222 3053 
L 1275 3053 
L 1275 0 
L 697 0 
L 697 3053 
L 147 3053 
L 147 3500 
L 697 3500 
L 697 3744 
Q 697 4328 969 4595 
Q 1241 4863 1831 4863 
L 2375 4863 
z
" transform="scale(0.015625)"/>
       <path id="DejaVuSans-46" d="M 628 4666 
L 3309 4666 
L 3309 4134 
L 1259 4134 
L 1259 2759 
L 3109 2759 
L 3109 2228 
L 1259 2228 
L 1259 0 
L 628 0 
L 628 4666 
z
" transform="scale(0.015625)"/>
       <path id="DejaVuSans-45" d="M 628 4666 
L 3578 4666 
L 3578 4134 
L 1259 4134 
L 1259 2753 
L 3481 2753 
L 3481 2222 
L 1259 2222 
L 1259 531 
L 3634 531 
L 3634 0 
L 628 0 
L 628 4666 
z
" transform="scale(0.015625)"/>
       <path id="DejaVuSans-76" d="M 191 3500 
L 800 3500 
L 1894 563 
L 2988 3500 
L 3597 3500 
L 2284 0 
L 1503 0 
L 191 3500 
z
" transform="scale(0.015625)"/>
       <path id="DejaVuSans-61" d="M 2194 1759 
Q 1497 1759 1228 1600 
Q 959 1441 959 1056 
Q 959 750 1161 570 
Q 1363 391 1709 391 
Q 2188 391 2477 730 
Q 2766 1069 2766 1631 
L 2766 1759 
L 2194 1759 
z
M 3341 1997 
L 3341 0 
L 2766 0 
L 2766 531 
Q 2569 213 2275 61 
Q 1981 -91 1556 -91 
Q 1019 -91 701 211 
Q 384 513 384 1019 
Q 384 1609 779 1909 
Q 1175 2209 1959 2209 
L 2766 2209 
L 2766 2266 
Q 2766 2663 2505 2880 
Q 2244 3097 1772 3097 
Q 1472 3097 1187 3025 
Q 903 2953 641 2809 
L 641 3341 
Q 956 3463 1253 3523 
Q 1550 3584 1831 3584 
Q 2591 3584 2966 3190 
Q 3341 2797 3341 1997 
z
" transform="scale(0.015625)"/>
       <path id="DejaVuSans-73" d="M 2834 3397 
L 2834 2853 
Q 2591 2978 2328 3040 
Q 2066 3103 1784 3103 
Q 1356 3103 1142 2972 
Q 928 2841 928 2578 
Q 928 2378 1081 2264 
Q 1234 2150 1697 2047 
L 1894 2003 
Q 2506 1872 2764 1633 
Q 3022 1394 3022 966 
Q 3022 478 2636 193 
Q 2250 -91 1575 -91 
Q 1294 -91 989 -36 
Q 684 19 347 128 
L 347 722 
Q 666 556 975 473 
Q 1284 391 1588 391 
Q 1994 391 2212 530 
Q 2431 669 2431 922 
Q 2431 1156 2273 1281 
Q 2116 1406 1581 1522 
L 1381 1569 
Q 847 1681 609 1914 
Q 372 2147 372 2553 
Q 372 3047 722 3315 
Q 1072 3584 1716 3584 
Q 2034 3584 2315 3537 
Q 2597 3491 2834 3397 
z
" transform="scale(0.015625)"/>
       <path id="DejaVuSans-72" d="M 2631 2963 
Q 2534 3019 2420 3045 
Q 2306 3072 2169 3072 
Q 1681 3072 1420 2755 
Q 1159 2438 1159 1844 
L 1159 0 
L 581 0 
L 581 3500 
L 1159 3500 
L 1159 2956 
Q 1341 3275 1631 3429 
Q 1922 3584 2338 3584 
Q 2397 3584 2469 3576 
Q 2541 3569 2628 3553 
L 2631 2963 
z
" transform="scale(0.015625)"/>
       <path id="DejaVuSans-74" d="M 1172 4494 
L 1172 3500 
L 2356 3500 
L 2356 3053 
L 1172 3053 
L 1172 1153 
Q 1172 725 1289 603 
Q 1406 481 1766 481 
L 2356 481 
L 2356 0 
L 1766 0 
Q 1100 0 847 248 
Q 594 497 594 1153 
L 594 3053 
L 172 3053 
L 172 3500 
L 594 3500 
L 594 4494 
L 1172 4494 
z
" transform="scale(0.015625)"/>
       <path id="DejaVuSans-69" d="M 603 3500 
L 1178 3500 
L 1178 0 
L 603 0 
L 603 3500 
z
M 603 4863 
L 1178 4863 
L 1178 4134 
L 603 4134 
L 603 4863 
z
" transform="scale(0.015625)"/>
      </defs>
      <use xlink:href="#DejaVuSans-6c"/>
      <use xlink:href="#DejaVuSans-6f" x="27.783203"/>
      <use xlink:href="#DejaVuSans-67" x="88.964844"/>
      <use xlink:href="#DejaVuSans-31" x="152.441406"/>
      <use xlink:href="#DejaVuSans-30" x="216.064453"/>
      <use xlink:href="#DejaVuSans-20" x="279.6875"/>
      <use xlink:href="#DejaVuSans-6f" x="311.474609"/>
      <use xlink:href="#DejaVuSans-66" x="372.65625"/>
      <use xlink:href="#DejaVuSans-20" x="407.861328"/>
      <use xlink:href="#DejaVuSans-46" x="439.648438"/>
      <use xlink:href="#DejaVuSans-45" x="497.167969"/>
      <use xlink:href="#DejaVuSans-76" x="560.351562"/>
      <use xlink:href="#DejaVuSans-61" x="619.53125"/>
      <use xlink:href="#DejaVuSans-6c" x="680.810547"/>
      <use xlink:href="#DejaVuSans-73" x="708.59375"/>
      <use xlink:href="#DejaVuSans-20" x="760.693359"/>
      <use xlink:href="#DejaVuSans-72" x="792.480469"/>
      <use xlink:href="#DejaVuSans-61" x="833.59375"/>
      <use xlink:href="#DejaVuSans-74" x="894.873047"/>
      <use xlink:href="#DejaVuSans-69" x="934.082031"/>
      <use xlink:href="#DejaVuSans-6f" x="961.865234"/>
     </g>
    </g>
   </g>
   <g id="matplotlib.axis_2">
    <g id="ytick_1">
     <g id="line2d_26">
      <path d="M 34.16 288.453725 
L 453.192 288.453725 
" clip-path="url(#p0a6aeab56f)" style="fill: none; stroke: #b0b0b0; stroke-width: 0.8; stroke-linecap: square"/>
     </g>
     <g id="line2d_27">
      <defs>
       <path id="m186c10030e" d="M 0 0 
L -3.5 0 
" style="stroke: #000000; stroke-width: 0.8"/>
      </defs>
      <g>
       <use xlink:href="#m186c10030e" x="34.16" y="288.453725" style="stroke: #000000; stroke-width: 0.8"/>
      </g>
     </g>
    </g>
    <g id="ytick_2">
     <g id="line2d_28">
      <path d="M 34.16 217.796863 
L 453.192 217.796863 
" clip-path="url(#p0a6aeab56f)" style="fill: none; stroke: #b0b0b0; stroke-width: 0.8; stroke-linecap: square"/>
     </g>
     <g id="line2d_29">
      <g>
       <use xlink:href="#m186c10030e" x="34.16" y="217.796863" style="stroke: #000000; stroke-width: 0.8"/>
      </g>
     </g>
    </g>
    <g id="ytick_3">
     <g id="line2d_30">
      <path d="M 34.16 147.14 
L 453.192 147.14 
" clip-path="url(#p0a6aeab56f)" style="fill: none; stroke: #b0b0b0; stroke-width: 0.8; stroke-linecap: square"/>
     </g>
     <g id="line2d_31">
      <g>
       <use xlink:href="#m186c10030e" x="34.16" y="147.14" style="stroke: #000000; stroke-width: 0.8"/>
      </g>
     </g>
    </g>
    <g id="ytick_4">
     <g id="line2d_32">
      <path d="M 34.16 76.483137 
L 453.192 76.483137 
" clip-path="url(#p0a6aeab56f)" style="fill: none; stroke: #b0b0b0; stroke-width: 0.8; stroke-linecap: square"/>
     </g>
     <g id="line2d_33">
      <g>
       <use xlink:href="#m186c10030e" x="34.16" y="76.483137" style="stroke: #000000; stroke-width: 0.8"/>
      </g>
     </g>
    </g>
    <g id="ytick_5">
     <g id="line2d_34">
      <path d="M 34.16 5.826275 
L 453.192 5.826275 
" clip-path="url(#p0a6aeab56f)" style="fill: none; stroke: #b0b0b0; stroke-width: 0.8; stroke-linecap: square"/>
     </g>
     <g id="line2d_35">
      <g>
       <use xlink:href="#m186c10030e" x="34.16" y="5.826275" style="stroke: #000000; stroke-width: 0.8"/>
      </g>
     </g>
    </g>
    <g id="text_5">
     <!-- proportion of trials -->
     <g transform="translate(19.000625 240.14625)rotate(-90)scale(0.2 -0.2)">
      <defs>
       <path id="DejaVuSans-70" d="M 1159 525 
L 1159 -1331 
L 581 -1331 
L 581 3500 
L 1159 3500 
L 1159 2969 
Q 1341 3281 1617 3432 
Q 1894 3584 2278 3584 
Q 2916 3584 3314 3078 
Q 3713 2572 3713 1747 
Q 3713 922 3314 415 
Q 2916 -91 2278 -91 
Q 1894 -91 1617 61 
Q 1341 213 1159 525 
z
M 3116 1747 
Q 3116 2381 2855 2742 
Q 2594 3103 2138 3103 
Q 1681 3103 1420 2742 
Q 1159 2381 1159 1747 
Q 1159 1113 1420 752 
Q 1681 391 2138 391 
Q 2594 391 2855 752 
Q 3116 1113 3116 1747 
z
" transform="scale(0.015625)"/>
       <path id="DejaVuSans-6e" d="M 3513 2113 
L 3513 0 
L 2938 0 
L 2938 2094 
Q 2938 2591 2744 2837 
Q 2550 3084 2163 3084 
Q 1697 3084 1428 2787 
Q 1159 2491 1159 1978 
L 1159 0 
L 581 0 
L 581 3500 
L 1159 3500 
L 1159 2956 
Q 1366 3272 1645 3428 
Q 1925 3584 2291 3584 
Q 2894 3584 3203 3211 
Q 3513 2838 3513 2113 
z
" transform="scale(0.015625)"/>
      </defs>
      <use xlink:href="#DejaVuSans-70"/>
      <use xlink:href="#DejaVuSans-72" x="63.476562"/>
      <use xlink:href="#DejaVuSans-6f" x="102.339844"/>
      <use xlink:href="#DejaVuSans-70" x="163.521484"/>
      <use xlink:href="#DejaVuSans-6f" x="226.998047"/>
      <use xlink:href="#DejaVuSans-72" x="288.179688"/>
      <use xlink:href="#DejaVuSans-74" x="329.292969"/>
      <use xlink:href="#DejaVuSans-69" x="368.501953"/>
      <use xlink:href="#DejaVuSans-6f" x="396.285156"/>
      <use xlink:href="#DejaVuSans-6e" x="457.466797"/>
      <use xlink:href="#DejaVuSans-20" x="520.845703"/>
      <use xlink:href="#DejaVuSans-6f" x="552.632812"/>
      <use xlink:href="#DejaVuSans-66" x="613.814453"/>
      <use xlink:href="#DejaVuSans-20" x="649.019531"/>
      <use xlink:href="#DejaVuSans-74" x="680.806641"/>
      <use xlink:href="#DejaVuSans-72" x="720.015625"/>
      <use xlink:href="#DejaVuSans-69" x="761.128906"/>
      <use xlink:href="#DejaVuSans-61" x="788.912109"/>
      <use xlink:href="#DejaVuSans-6c" x="850.191406"/>
      <use xlink:href="#DejaVuSans-73" x="877.974609"/>
     </g>
    </g>
   </g>
   <g id="line2d_36">
    <path d="M 34.16 288.453725 
L 144.795296 288.453725 
L 144.795296 287.700052 
L 147.097814 287.700052 
L 147.097814 286.946379 
L 149.571997 286.946379 
L 149.571997 286.192706 
L 150.48333 286.192706 
L 150.48333 285.439033 
L 151.660612 285.439033 
L 151.660612 284.685359 
L 155.221263 284.685359 
L 155.221263 283.931686 
L 156.250489 283.931686 
L 156.250489 283.178013 
L 156.739225 283.178013 
L 156.739225 282.42434 
L 157.68567 282.42434 
L 157.68567 281.670667 
L 160.686836 281.670667 
L 160.686836 280.916993 
L 161.780612 280.916993 
L 161.780612 280.16332 
L 162.766562 280.16332 
L 162.766562 279.409647 
L 165.463536 279.409647 
L 165.463536 278.655974 
L 166.518545 278.655974 
L 166.518545 277.902301 
L 167.466497 277.902301 
L 167.552152 276.394954 
L 168.036507 276.394954 
L 168.036507 275.641281 
L 168.982952 275.641281 
L 168.982952 274.887608 
L 172.142029 274.887608 
L 172.243198 273.380261 
L 173.607567 273.380261 
L 173.607567 272.626588 
L 174.063844 272.626588 
L 174.063844 271.872915 
L 174.331813 271.872915 
L 174.331813 271.119242 
L 177.03399 271.119242 
L 177.03399 270.365569 
L 178.92169 270.365569 
L 178.92169 269.611895 
L 181.81069 269.611895 
L 181.81069 268.858222 
L 183.899306 268.858222 
L 183.899306 268.104549 
L 184.296895 268.104549 
L 184.296895 267.350876 
L 184.886251 267.350876 
L 184.886251 266.597203 
L 188.03461 266.597203 
L 188.03461 265.843529 
L 188.489183 265.843529 
L 188.489183 265.089856 
L 192.366634 265.089856 
L 192.366634 264.336183 
L 195.646246 264.336183 
L 195.646246 263.58251 
L 196.32745 263.58251 
L 196.32745 262.828837 
L 198.75921 262.828837 
L 198.75921 262.075163 
L 206.152303 262.075163 
L 206.152303 261.32149 
L 206.54084 261.32149 
L 206.54084 260.567817 
L 210.946388 260.567817 
L 210.946388 259.814144 
L 211.868564 259.814144 
L 211.868564 259.060471 
L 213.457619 259.060471 
L 213.457619 258.306797 
L 214.544362 258.306797 
L 214.544362 257.553124 
L 218.682444 257.553124 
L 218.682444 256.799451 
L 218.876386 256.799451 
L 218.876386 256.045778 
L 219.205398 256.045778 
L 219.205398 255.292105 
L 222.185671 255.292105 
L 222.185671 254.538431 
L 223.002861 254.538431 
L 223.002861 253.784758 
L 223.783031 253.784758 
L 223.783031 253.031085 
L 225.233691 253.031085 
L 225.233691 252.277412 
L 225.449411 252.277412 
L 225.460047 250.770065 
L 225.823046 250.770065 
L 225.823046 250.016392 
L 226.506115 250.016392 
L 226.506115 249.262719 
L 226.85252 249.262719 
L 226.85252 248.509046 
L 227.663447 248.509046 
L 227.663447 247.755373 
L 228.088973 247.755373 
L 228.088973 247.001699 
L 228.32249 247.001699 
L 228.32249 246.248026 
L 229.565715 246.248026 
L 229.565715 245.494353 
L 230.15507 245.494353 
L 230.187344 243.987007 
L 230.37016 243.987007 
L 230.37016 243.233333 
L 230.523522 243.233333 
L 230.523522 242.47966 
L 230.706907 242.47966 
L 230.706907 241.725987 
L 231.214784 241.725987 
L 231.214784 240.972314 
L 231.547647 240.972314 
L 231.547647 240.218641 
L 231.705305 240.218641 
L 231.705305 239.464967 
L 232.106379 239.464967 
L 232.106379 238.711294 
L 232.339897 238.711294 
L 232.339897 237.957621 
L 232.625453 237.957621 
L 232.651751 236.450275 
L 232.946868 236.450275 
L 232.946868 235.696601 
L 233.359472 235.696601 
L 233.359472 234.942928 
L 233.666401 234.942928 
L 233.742911 233.435582 
L 233.886373 233.435582 
L 233.886373 232.681908 
L 234.026079 232.681908 
L 234.026079 231.928235 
L 234.189355 231.928235 
L 234.189355 231.174562 
L 234.387567 231.174562 
L 234.477328 228.913542 
L 234.542219 228.913542 
L 234.542219 228.159869 
L 235.000282 228.159869 
L 235.050685 226.652523 
L 235.232191 226.652523 
L 235.232227 225.145176 
L 235.506273 225.145176 
L 235.585642 223.63783 
L 236.020419 223.63783 
L 236.020419 222.884157 
L 236.253936 222.884157 
L 236.286066 221.37681 
L 236.583042 221.37681 
L 236.583042 220.623137 
L 236.816536 220.623137 
L 236.816536 219.869464 
L 237.048534 219.869464 
L 237.070119 218.362118 
L 237.168499 218.362118 
L 237.264246 215.347425 
L 237.402017 215.347425 
L 237.402017 214.593752 
L 237.620816 214.593752 
L 237.658426 213.086405 
L 237.732643 213.086405 
L 237.822041 210.825386 
L 237.980554 210.825386 
L 237.986818 209.318039 
L 238.301607 209.318039 
L 238.301607 208.564366 
L 238.559625 208.564366 
L 238.559625 207.810693 
L 238.733972 207.810693 
L 238.797745 204.796 
L 239.008854 204.796 
L 239.040313 203.288654 
L 239.146231 203.288654 
L 239.249633 201.027634 
L 239.331287 201.027634 
L 239.331287 200.273961 
L 239.449687 200.273961 
L 239.523679 198.766614 
L 239.577914 198.766614 
L 239.577914 198.012941 
L 239.696006 198.012941 
L 239.788618 195.751922 
L 240.283703 195.751922 
L 240.375708 191.983556 
L 240.444003 191.983556 
L 240.444003 191.229882 
L 240.57547 191.229882 
L 240.57547 190.476209 
L 240.833942 190.476209 
L 240.915066 188.21519 
L 241.244407 188.21519 
L 241.345462 185.200497 
L 241.362913 185.200497 
L 241.473657 183.69315 
L 241.59627 183.69315 
L 241.675832 182.185804 
L 242.16447 182.185804 
L 242.253025 179.924784 
L 242.358749 179.924784 
L 242.358749 179.171111 
L 242.473665 179.171111 
L 242.559973 176.910092 
L 242.62314 176.910092 
L 242.62314 176.156418 
L 243.058001 176.156418 
L 243.163673 174.649072 
L 243.195137 174.649072 
L 243.263976 173.141725 
L 243.348694 173.141725 
L 243.437719 171.634379 
L 243.467764 171.634379 
L 243.471905 170.127033 
L 243.621745 170.127033 
L 243.621745 169.373359 
L 243.778246 169.373359 
L 243.876711 167.11234 
L 243.947774 167.11234 
L 244.02803 165.604993 
L 244.064729 165.604993 
L 244.081166 162.590301 
L 244.302924 162.590301 
L 244.393115 159.575608 
L 244.585799 159.575608 
L 244.585799 158.821935 
L 244.747982 158.821935 
L 244.823156 156.560915 
L 244.861336 156.560915 
L 244.861336 155.807242 
L 244.989866 155.807242 
L 245.075094 152.792549 
L 245.158447 152.792549 
L 245.210171 150.531529 
L 245.296208 150.531529 
L 245.296208 149.777856 
L 245.431801 149.777856 
L 245.491064 148.27051 
L 245.589872 148.27051 
L 245.690863 146.00949 
L 245.87417 146.00949 
L 245.940546 142.241124 
L 246.122162 142.241124 
L 246.157682 140.733778 
L 246.242653 140.733778 
L 246.306528 139.226431 
L 246.50179 139.226431 
L 246.605712 136.965412 
L 246.737952 136.965412 
L 246.795198 135.458065 
L 246.954748 135.458065 
L 246.954748 134.704392 
L 247.089099 134.704392 
L 247.163709 132.443373 
L 247.262733 132.443373 
L 247.333917 130.936026 
L 247.477636 130.936026 
L 247.485206 129.42868 
L 247.617562 129.42868 
L 247.617562 128.675007 
L 247.759252 128.675007 
L 247.834702 126.413987 
L 248.061452 126.413987 
L 248.061452 125.660314 
L 248.210778 125.660314 
L 248.307154 123.399294 
L 248.343428 123.399294 
L 248.410814 121.891948 
L 248.685707 121.891948 
L 248.685707 121.138275 
L 248.841429 121.138275 
L 248.87033 119.630928 
L 249.043363 119.630928 
L 249.154355 116.616235 
L 249.405104 116.616235 
L 249.47998 114.355216 
L 249.585347 114.355216 
L 249.681257 112.847869 
L 249.904048 112.847869 
L 249.948104 109.833176 
L 250.105272 109.833176 
L 250.203668 106.818484 
L 250.336367 106.818484 
L 250.336367 106.06481 
L 250.464047 106.06481 
L 250.553184 104.557464 
L 250.654743 104.557464 
L 250.654743 103.803791 
L 250.930044 103.803791 
L 251.017204 101.542771 
L 251.150114 101.542771 
L 251.150114 100.789098 
L 251.270022 100.789098 
L 251.343645 98.528078 
L 251.421123 98.528078 
L 251.466065 96.267059 
L 251.584267 96.267059 
L 251.687695 94.006039 
L 251.753587 94.006039 
L 251.854328 90.991346 
L 251.883184 90.991346 
L 251.883184 90.237673 
L 252.03249 90.237673 
L 252.080949 87.976654 
L 252.41251 87.976654 
L 252.41251 87.22298 
L 252.535337 87.22298 
L 252.63414 84.961961 
L 252.743358 84.961961 
L 252.843417 81.193595 
L 252.861606 81.193595 
L 252.865003 78.932575 
L 253.022998 78.932575 
L 253.022998 78.178902 
L 253.63324 78.178902 
L 253.726637 76.671556 
L 253.808052 76.671556 
L 253.889006 75.164209 
L 254.053299 75.164209 
L 254.053299 74.410536 
L 254.394415 74.410536 
L 254.437776 72.90319 
L 254.513194 72.90319 
L 254.513194 72.149516 
L 254.926767 72.149516 
L 255.03128 69.134824 
L 255.516987 69.134824 
L 255.519922 67.627477 
L 256.043888 67.627477 
L 256.043888 66.873804 
L 256.215208 66.873804 
L 256.26384 64.612784 
L 257.148426 64.612784 
L 257.148426 63.859111 
L 257.333235 63.859111 
L 257.364371 62.351765 
L 257.493403 62.351765 
L 257.493403 61.598092 
L 257.612875 61.598092 
L 257.715033 60.090745 
L 257.881666 60.090745 
L 257.959353 58.583399 
L 258.126838 58.583399 
L 258.148424 57.076052 
L 258.443581 57.076052 
L 258.443581 56.322379 
L 258.665706 56.322379 
L 258.726439 54.815033 
L 258.888944 54.815033 
L 258.888944 54.061359 
L 259.206049 54.061359 
L 259.227634 52.554013 
L 259.516645 52.554013 
L 259.516645 51.80034 
L 259.829579 51.80034 
L 259.829579 51.046667 
L 260.080636 51.046667 
L 260.080636 50.292993 
L 260.252663 50.292993 
L 260.252663 49.53932 
L 260.754322 49.53932 
L 260.754322 48.785647 
L 263.242774 48.785647 
L 263.242774 48.031974 
L 264.103311 48.031974 
L 264.103311 47.278301 
L 264.321985 47.278301 
L 264.321985 46.524627 
L 264.914238 46.524627 
L 264.914238 45.770954 
L 265.344199 45.770954 
L 265.344199 45.017281 
L 270.197659 45.017281 
L 270.197659 44.263608 
L 270.92282 44.263608 
L 271.028249 42.002588 
L 271.27687 42.002588 
L 271.27687 41.248915 
L 271.531347 41.248915 
L 271.531347 40.495242 
L 272.484443 40.495242 
L 272.484443 39.741569 
L 273.562248 39.741569 
L 273.562248 38.987895 
L 276.816467 38.987895 
L 276.816467 38.234222 
L 277.702481 38.234222 
L 277.702481 37.480549 
L 277.894272 37.480549 
L 277.894272 36.726876 
L 282.291343 36.726876 
L 282.291343 35.973203 
L 282.972547 35.973203 
L 282.972547 35.219529 
L 285.23972 35.219529 
L 285.23972 34.465856 
L 285.404307 34.465856 
L 285.404307 33.712183 
L 286.339331 33.712183 
L 286.339331 32.95851 
L 287.269974 32.95851 
L 287.269974 32.204837 
L 289.571744 32.204837 
L 289.571744 31.451163 
L 292.7974 31.451163 
L 292.7974 30.69749 
L 293.185937 30.69749 
L 293.185937 29.943817 
L 297.02866 29.943817 
L 297.02866 29.190144 
L 297.591485 29.190144 
L 297.618015 27.682797 
L 300.102716 27.682797 
L 300.102716 26.929124 
L 308.378011 26.929124 
L 308.378011 26.175451 
L 309.059215 26.175451 
L 309.059215 25.421778 
L 311.490975 25.421778 
L 311.490975 24.668105 
L 311.965044 24.668105 
L 311.965044 23.914431 
L 316.297068 23.914431 
L 316.297068 23.160758 
L 318.192744 23.160758 
L 318.192744 22.407085 
L 318.884068 22.407085 
L 318.884068 21.653412 
L 319.270549 21.653412 
L 319.272605 20.146065 
L 323.678153 20.146065 
L 323.678153 19.392392 
L 326.189384 19.392392 
L 326.189384 18.638719 
L 330.948021 18.638719 
L 330.948021 17.885046 
L 344.279412 17.885046 
L 344.279412 17.131373 
L 345.357217 17.131373 
L 345.357217 16.377699 
L 349.244838 16.377699 
L 349.244838 15.624026 
L 350.534377 15.624026 
L 350.534377 14.870353 
L 351.581446 14.870353 
L 351.581446 14.11668 
L 352.414031 14.11668 
L 352.414031 13.363007 
L 353.293985 13.363007 
L 353.293985 12.609333 
L 354.300712 12.609333 
L 354.300712 11.85566 
L 355.044631 11.85566 
L 355.044631 11.101987 
L 356.114026 11.101987 
L 356.114026 10.348314 
L 356.393666 10.348314 
L 356.393666 9.594641 
L 357.034689 9.594641 
L 357.034689 8.840967 
L 357.673345 8.840967 
L 357.673345 8.087294 
L 358.297435 8.087294 
L 358.297435 7.333621 
L 364.12499 7.333621 
L 364.12499 6.579948 
L 383.760013 6.579948 
L 383.760013 5.826275 
L 453.192 5.826275 
L 453.192 5.826275 
" clip-path="url(#p0a6aeab56f)" style="fill: none; stroke: #000000; stroke-width: 3; stroke-linecap: square"/>
   </g>
   <g id="line2d_37">
    <path clip-path="url(#p0a6aeab56f)" style="fill: none; stroke: #000000; stroke-width: 3; stroke-linecap: square"/>
   </g>
   <g id="line2d_38">
    <path d="M 34.16 288.453725 
L 83.428157 288.453725 
L 83.428157 287.700052 
L 83.690918 287.700052 
L 83.690918 286.946379 
L 87.247317 286.946379 
L 87.247317 286.192706 
L 92.152159 286.192706 
L 92.152159 285.439033 
L 96.636583 285.439033 
L 96.636583 284.685359 
L 96.794062 284.685359 
L 96.794062 283.931686 
L 103.75791 283.931686 
L 103.75791 283.178013 
L 112.396237 283.178013 
L 112.396237 282.42434 
L 114.575459 282.42434 
L 114.575459 281.670667 
L 115.617788 281.670667 
L 115.617788 280.916993 
L 117.49515 280.916993 
L 117.49515 280.16332 
L 119.407054 280.16332 
L 119.407054 279.409647 
L 128.112069 279.409647 
L 128.112069 278.655974 
L 135.895456 278.655974 
L 135.895456 277.902301 
L 136.192149 277.902301 
L 136.192149 277.148627 
L 139.211737 277.148627 
L 139.211737 276.394954 
L 140.55935 276.394954 
L 140.55935 275.641281 
L 142.727367 275.641281 
L 142.727367 274.887608 
L 142.964385 274.887608 
L 142.964385 274.133935 
L 149.623271 274.133935 
L 149.623271 273.380261 
L 159.16928 273.380261 
L 159.16928 272.626588 
L 166.124295 272.626588 
L 166.124295 271.872915 
L 166.387056 271.872915 
L 166.387056 271.119242 
L 168.701368 271.119242 
L 168.701368 270.365569 
L 169.943455 270.365569 
L 169.943455 269.611895 
L 173.914501 269.611895 
L 173.914501 268.858222 
L 179.332721 268.858222 
L 179.332721 268.104549 
L 179.4902 268.104549 
L 179.4902 267.350876 
L 182.934092 267.350876 
L 182.934092 266.597203 
L 185.506968 266.597203 
L 185.506968 265.843529 
L 185.769729 265.843529 
L 185.769729 265.089856 
L 186.454048 265.089856 
L 186.454048 264.336183 
L 189.326128 264.336183 
L 189.326128 263.58251 
L 192.256571 263.58251 
L 192.256571 262.828837 
L 192.718083 262.828837 
L 192.718083 262.075163 
L 198.715394 262.075163 
L 198.715394 261.32149 
L 198.872873 261.32149 
L 198.872873 260.567817 
L 205.836721 260.567817 
L 205.836721 259.814144 
L 208.567291 259.814144 
L 208.567291 259.060471 
L 209.607674 259.060471 
L 209.607674 258.306797 
L 212.500649 258.306797 
L 212.500649 257.553124 
L 214.679871 257.553124 
L 214.679871 256.799451 
L 215.140883 256.799451 
L 215.140883 256.045778 
L 215.7222 256.045778 
L 215.7222 255.292105 
L 217.599562 255.292105 
L 217.599562 254.538431 
L 218.888287 254.538431 
L 218.888287 253.784758 
L 219.511466 253.784758 
L 219.511466 253.031085 
L 222.890444 253.031085 
L 222.890444 252.277412 
L 223.153206 252.277412 
L 223.255488 250.770065 
L 223.650782 250.770065 
L 223.650782 250.016392 
L 225.423505 250.016392 
L 225.423505 249.262719 
L 226.496115 249.262719 
L 226.496115 248.509046 
L 226.709604 248.509046 
L 226.709604 247.755373 
L 228.216481 247.755373 
L 228.216481 247.001699 
L 228.811369 247.001699 
L 228.811369 246.248026 
L 229.303974 246.248026 
L 229.303974 245.494353 
L 229.716828 245.494353 
L 229.716828 244.74068 
L 229.851752 244.74068 
L 229.851752 243.987007 
L 230.508712 243.987007 
L 230.594418 242.47966 
L 230.990591 242.47966 
L 230.990591 241.725987 
L 231.416746 241.725987 
L 231.491197 239.464967 
L 231.58267 239.464967 
L 231.58267 238.711294 
L 231.793134 238.711294 
L 231.793134 237.957621 
L 232.030973 237.957621 
L 232.032919 236.450275 
L 232.319409 236.450275 
L 232.403857 234.942928 
L 232.56969 234.942928 
L 232.56969 234.189255 
L 233.073302 234.189255 
L 233.073302 233.435582 
L 233.312163 233.435582 
L 233.350299 231.928235 
L 233.910282 231.928235 
L 233.910282 231.174562 
L 234.057033 231.174562 
L 234.057033 230.420889 
L 234.220196 230.420889 
L 234.312472 226.652523 
L 234.332784 226.652523 
L 234.423057 225.145176 
L 234.697652 225.145176 
L 234.769567 223.63783 
L 234.950664 223.63783 
L 235.006014 222.130484 
L 235.17763 222.130484 
L 235.245444 219.869464 
L 235.417827 219.869464 
L 235.417827 219.115791 
L 235.723753 219.115791 
L 235.822186 217.608444 
L 235.999868 217.608444 
L 236.09887 216.101098 
L 236.199418 216.101098 
L 236.256349 213.840078 
L 236.336848 213.840078 
L 236.336848 213.086405 
L 236.631787 213.086405 
L 236.706239 210.825386 
L 236.862569 210.825386 
L 236.862569 210.071712 
L 237.226508 210.071712 
L 237.264644 207.810693 
L 237.453348 207.810693 
L 237.539239 205.549673 
L 237.618898 205.549673 
L 237.618898 204.796 
L 237.801415 204.796 
L 237.876312 202.53498 
L 238.27096 202.53498 
L 238.358885 201.027634 
L 238.513949 201.027634 
L 238.588845 198.012941 
L 238.675816 198.012941 
L 238.757468 195.751922 
L 238.922012 195.751922 
L 239.025713 192.737229 
L 239.046732 192.737229 
L 239.140299 190.476209 
L 239.162209 190.476209 
L 239.237105 188.21519 
L 239.289407 188.21519 
L 239.316149 186.707843 
L 239.638098 186.707843 
L 239.69747 184.446824 
L 239.878517 184.446824 
L 239.952969 178.417438 
L 240.092569 178.417438 
L 240.092569 177.663765 
L 240.303033 177.663765 
L 240.303033 176.910092 
L 240.6694 176.910092 
L 240.6694 176.156418 
L 240.865628 176.156418 
L 240.865628 175.402745 
L 240.994689 175.402745 
L 241.079588 171.634379 
L 241.19773 171.634379 
L 241.272627 169.373359 
L 241.458323 169.373359 
L 241.560918 164.097647 
L 241.599054 164.097647 
L 241.690094 161.836627 
L 241.770147 161.836627 
L 241.865418 160.329281 
L 241.94965 160.329281 
L 241.973189 158.821935 
L 242.103267 158.821935 
L 242.178163 157.314588 
L 242.309193 157.314588 
L 242.402627 155.053569 
L 242.638161 155.053569 
L 242.638161 154.299895 
L 242.81069 154.299895 
L 242.884828 152.038876 
L 243.050887 152.038876 
L 243.159424 149.024183 
L 243.220197 149.024183 
L 243.220197 148.27051 
L 243.406706 148.27051 
L 243.481603 146.763163 
L 243.566059 146.763163 
L 243.676 145.255817 
L 243.690988 145.255817 
L 243.765884 142.241124 
L 243.879919 142.241124 
L 243.972509 139.226431 
L 244.073715 139.226431 
L 244.182165 136.965412 
L 244.413782 136.965412 
L 244.488678 133.950719 
L 244.527201 133.950719 
L 244.527201 133.197046 
L 244.705053 133.197046 
L 244.806178 127.16766 
L 244.867779 127.16766 
L 244.883367 125.660314 
L 244.994206 125.660314 
L 245.086409 124.152967 
L 245.18924 124.152967 
L 245.232935 122.645621 
L 245.40327 122.645621 
L 245.478167 121.138275 
L 245.567583 121.138275 
L 245.568341 119.630928 
L 245.991945 119.630928 
L 245.991945 118.877255 
L 246.158614 118.877255 
L 246.250409 115.862562 
L 246.369079 115.862562 
L 246.369079 115.108889 
L 246.485305 115.108889 
L 246.485305 114.355216 
L 247.036205 114.355216 
L 247.145634 112.094196 
L 247.159848 112.094196 
L 247.246669 109.833176 
L 247.295385 109.833176 
L 247.385337 107.572157 
L 247.579666 107.572157 
L 247.579666 106.06481 
L 248.023225 106.06481 
L 248.085899 103.050118 
L 248.30246 103.050118 
L 248.30246 102.296444 
L 248.650377 102.296444 
L 248.681561 100.789098 
L 249.291949 100.789098 
L 249.291949 100.035425 
L 249.732035 100.035425 
L 249.732035 99.281752 
L 250.447976 99.281752 
L 250.447976 98.528078 
L 250.775363 98.528078 
L 250.775363 97.774405 
L 251.125862 97.774405 
L 251.199119 96.267059 
L 251.652953 96.267059 
L 251.702082 94.759712 
L 251.814669 94.759712 
L 251.814669 94.006039 
L 252.185899 94.006039 
L 252.185899 93.252366 
L 252.302216 93.252366 
L 252.310588 91.74502 
L 252.540442 91.74502 
L 252.540442 90.991346 
L 253.255252 90.991346 
L 253.35097 89.484 
L 253.504104 89.484 
L 253.504104 88.730327 
L 253.694706 88.730327 
L 253.694706 87.976654 
L 253.867552 87.976654 
L 253.867552 87.22298 
L 254.083765 87.22298 
L 254.083765 86.469307 
L 254.61812 86.469307 
L 254.656256 84.961961 
L 254.760308 84.961961 
L 254.760308 84.208288 
L 254.873559 84.208288 
L 254.873559 83.454614 
L 255.626869 83.454614 
L 255.626869 82.700941 
L 256.160068 82.700941 
L 256.160068 81.947268 
L 256.667251 81.947268 
L 256.667251 81.193595 
L 257.02971 81.193595 
L 257.02971 80.439922 
L 257.160276 80.439922 
L 257.160276 79.686248 
L 258.251944 79.686248 
L 258.251944 78.932575 
L 258.779003 78.932575 
L 258.779003 78.178902 
L 258.967927 78.178902 
L 258.967927 77.425229 
L 259.129535 77.425229 
L 259.129535 76.671556 
L 259.269791 76.671556 
L 259.379517 74.410536 
L 259.57015 74.410536 
L 259.63576 72.90319 
L 260.198889 72.90319 
L 260.27644 71.395843 
L 260.419899 71.395843 
L 260.447741 69.888497 
L 260.812115 69.888497 
L 260.826354 68.38115 
L 261.246623 68.38115 
L 261.248091 66.873804 
L 261.449013 66.873804 
L 261.457088 65.366458 
L 261.703944 65.366458 
L 261.703944 64.612784 
L 262.233643 64.612784 
L 262.233643 63.859111 
L 262.377451 63.859111 
L 262.377451 63.105438 
L 262.491341 63.105438 
L 262.491341 62.351765 
L 263.226321 62.351765 
L 263.226321 61.598092 
L 264.103912 61.598092 
L 264.103912 60.844418 
L 264.368704 60.844418 
L 264.368704 60.090745 
L 265.386879 60.090745 
L 265.386879 59.337072 
L 265.63023 59.337072 
L 265.701806 57.076052 
L 265.863371 57.076052 
L 265.863371 56.322379 
L 266.280608 56.322379 
L 266.280608 55.568706 
L 266.579397 55.568706 
L 266.579397 54.815033 
L 266.87816 54.815033 
L 266.87816 54.061359 
L 267.755751 54.061359 
L 267.755751 53.307686 
L 268.443496 53.307686 
L 268.443496 52.554013 
L 268.80578 52.554013 
L 268.80578 51.80034 
L 269.206039 51.80034 
L 269.206039 51.046667 
L 269.321087 51.046667 
L 269.321087 50.292993 
L 273.339953 50.292993 
L 273.339953 49.53932 
L 274.018913 49.53932 
L 274.018913 48.785647 
L 274.409307 48.785647 
L 274.409307 48.031974 
L 274.658159 48.031974 
L 274.658159 47.278301 
L 274.985623 47.278301 
L 274.985623 46.524627 
L 275.414221 46.524627 
L 275.414221 45.770954 
L 275.654436 45.770954 
L 275.654436 45.017281 
L 275.914362 45.017281 
L 275.914362 44.263608 
L 278.31433 44.263608 
L 278.31433 43.509935 
L 278.595304 43.509935 
L 278.595304 42.756261 
L 278.752784 42.756261 
L 278.752784 42.002588 
L 280.021638 42.002588 
L 280.021638 41.248915 
L 280.789815 41.248915 
L 280.789815 40.495242 
L 281.966169 40.495242 
L 281.966169 39.741569 
L 282.189655 39.741569 
L 282.189655 38.987895 
L 282.76901 38.987895 
L 282.76901 38.234222 
L 283.531505 38.234222 
L 283.531505 37.480549 
L 285.012903 37.480549 
L 285.116499 35.973203 
L 285.716632 35.973203 
L 285.716632 35.219529 
L 286.085291 35.219529 
L 286.156882 33.712183 
L 289.085558 33.712183 
L 289.085558 32.95851 
L 289.837938 32.95851 
L 289.837938 32.204837 
L 290.329633 32.204837 
L 290.329633 31.451163 
L 291.370015 31.451163 
L 291.370015 30.69749 
L 294.796894 30.69749 
L 294.796894 29.943817 
L 298.631567 29.943817 
L 298.631567 29.190144 
L 315.574921 29.190144 
L 315.574921 28.436471 
L 318.150871 28.436471 
L 318.150871 27.682797 
L 320.788055 27.682797 
L 320.788055 26.929124 
L 322.396379 26.929124 
L 322.396379 26.175451 
L 322.518072 26.175451 
L 322.584664 24.668105 
L 324.686089 24.668105 
L 324.686089 23.914431 
L 331.581993 23.914431 
L 331.581993 23.160758 
L 332.180371 23.160758 
L 332.180371 22.407085 
L 335.23658 22.407085 
L 335.23658 21.653412 
L 341.128002 21.653412 
L 341.128002 20.899739 
L 341.967338 20.899739 
L 341.967338 20.146065 
L 354.188177 20.146065 
L 354.188177 19.392392 
L 354.619253 19.392392 
L 354.619253 18.638719 
L 354.977971 18.638719 
L 354.977971 17.885046 
L 358.883415 17.885046 
L 358.883415 17.131373 
L 364.892814 17.131373 
L 364.892814 16.377699 
L 370.498897 16.377699 
L 370.498897 15.624026 
L 371.288691 15.624026 
L 371.288691 14.870353 
L 371.53928 14.870353 
L 371.53928 14.11668 
L 372.329073 14.11668 
L 372.329073 13.363007 
L 374.676805 13.363007 
L 374.676805 12.609333 
L 375.194135 12.609333 
L 375.194135 11.85566 
L 376.234518 11.85566 
L 376.234518 11.101987 
L 379.350814 11.101987 
L 379.350814 10.348314 
L 392.002729 10.348314 
L 392.002729 9.594641 
L 400.957319 9.594641 
L 400.957319 8.840967 
L 401.747112 8.840967 
L 401.747112 8.087294 
L 405.652557 8.087294 
L 405.652557 7.333621 
L 421.847248 7.333621 
L 421.847248 6.579948 
L 434.499164 6.579948 
L 434.499164 5.826275 
L 453.192 5.826275 
L 453.192 5.826275 
" clip-path="url(#p0a6aeab56f)" style="fill: none; stroke: #00bfbf; stroke-width: 3; stroke-linecap: square"/>
   </g>
   <g id="line2d_39">
    <path clip-path="url(#p0a6aeab56f)" style="fill: none; stroke: #00bfbf; stroke-width: 3; stroke-linecap: square"/>
   </g>
   <g id="line2d_40">
    <path d="M 34.16 288.453725 
L 159.015913 288.453725 
L 159.015913 287.700052 
L 169.716555 287.700052 
L 169.716555 286.946379 
L 169.865642 286.946379 
L 169.865642 286.192706 
L 178.85367 286.192706 
L 178.85367 285.439033 
L 179.505569 285.439033 
L 179.505569 284.685359 
L 180.190122 284.685359 
L 180.190122 283.931686 
L 180.850952 283.931686 
L 180.850952 283.178013 
L 181.398465 283.178013 
L 181.398465 282.42434 
L 183.753331 282.42434 
L 183.753331 281.670667 
L 188.315455 281.670667 
L 188.315455 280.916993 
L 189.082667 280.916993 
L 189.082667 280.16332 
L 189.605679 280.16332 
L 189.605679 279.409647 
L 190.20432 279.409647 
L 190.20432 278.655974 
L 190.890764 278.655974 
L 190.890764 277.902301 
L 192.52146 277.902301 
L 192.62224 276.394954 
L 193.229986 276.394954 
L 193.229986 275.641281 
L 200.027879 275.641281 
L 200.027879 274.887608 
L 200.654915 274.887608 
L 200.679779 273.380261 
L 202.572674 273.380261 
L 202.572674 272.626588 
L 204.58505 272.626588 
L 204.58505 271.872915 
L 204.92754 271.872915 
L 204.92754 271.119242 
L 208.621715 271.119242 
L 208.621715 270.365569 
L 208.808646 270.365569 
L 208.808646 269.611895 
L 209.431262 269.611895 
L 209.489664 268.104549 
L 210.646683 268.104549 
L 210.646683 267.350876 
L 211.378529 267.350876 
L 211.378529 266.597203 
L 212.189666 266.597203 
L 212.189666 265.843529 
L 213.69567 265.843529 
L 213.69567 265.089856 
L 215.911168 265.089856 
L 215.911168 264.336183 
L 216.377334 264.336183 
L 216.377334 263.58251 
L 216.825457 263.58251 
L 216.825457 262.828837 
L 217.90407 262.828837 
L 217.90407 262.075163 
L 220.101718 262.075163 
L 220.101718 261.32149 
L 220.416572 261.32149 
L 220.416572 260.567817 
L 221.631993 260.567817 
L 221.631993 259.814144 
L 221.829124 259.814144 
L 221.829124 259.060471 
L 225.742424 259.060471 
L 225.742424 258.306797 
L 226.130894 258.306797 
L 226.15008 256.799451 
L 227.077975 256.799451 
L 227.077975 256.045778 
L 227.32126 256.045778 
L 227.32126 255.292105 
L 227.810767 255.292105 
L 227.810767 254.538431 
L 228.450861 254.538431 
L 228.450861 253.784758 
L 228.648286 253.784758 
L 228.648286 253.031085 
L 229.171299 253.031085 
L 229.171299 252.277412 
L 229.821714 252.277412 
L 229.863708 250.770065 
L 230.386721 250.770065 
L 230.386721 250.016392 
L 231.418434 250.016392 
L 231.432694 247.755373 
L 232.18786 247.755373 
L 232.18786 247.001699 
L 232.416561 247.001699 
L 232.437489 245.494353 
L 232.642628 245.494353 
L 232.642628 244.74068 
L 232.795606 244.74068 
L 232.795606 243.987007 
L 233.30669 243.987007 
L 233.403282 241.725987 
L 233.519859 241.725987 
L 233.519859 240.972314 
L 233.700707 240.972314 
L 233.700707 240.218641 
L 233.827096 240.218641 
L 233.827096 239.464967 
L 233.98331 239.464967 
L 234.053164 236.450275 
L 234.202532 236.450275 
L 234.253173 234.189255 
L 234.428599 234.189255 
L 234.497879 232.681908 
L 234.628765 232.681908 
L 234.723947 230.420889 
L 235.00571 230.420889 
L 235.111243 228.159869 
L 235.267457 228.159869 
L 235.311252 225.89885 
L 235.486678 225.89885 
L 235.486678 225.145176 
L 235.620201 225.145176 
L 235.620201 224.391503 
L 235.761552 224.391503 
L 235.846269 221.37681 
L 235.952989 221.37681 
L 236.061977 218.362118 
L 236.139195 218.362118 
L 236.215091 216.101098 
L 236.281737 216.101098 
L 236.365263 214.593752 
L 236.488054 214.593752 
L 236.565495 213.086405 
L 236.86699 213.086405 
L 236.904348 211.579059 
L 237.085377 211.579059 
L 237.172088 210.071712 
L 237.200599 210.071712 
L 237.252342 206.303346 
L 237.328301 206.303346 
L 237.433182 201.781307 
L 237.447714 201.781307 
L 237.547523 199.520288 
L 237.617656 199.520288 
L 237.617656 198.766614 
L 237.733507 198.766614 
L 237.84287 196.505595 
L 237.913902 196.505595 
L 237.937505 194.998248 
L 238.034538 194.998248 
L 238.105967 192.737229 
L 238.195344 192.737229 
L 238.195344 191.983556 
L 238.381944 191.983556 
L 238.491261 188.968863 
L 238.517944 188.968863 
L 238.607004 186.707843 
L 238.727124 186.707843 
L 238.818906 182.939477 
L 238.893369 182.939477 
L 238.988508 179.924784 
L 239.016162 179.924784 
L 239.097995 177.663765 
L 239.182407 177.663765 
L 239.292596 175.402745 
L 239.297981 175.402745 
L 239.400661 173.895399 
L 239.484187 173.895399 
L 239.582056 172.388052 
L 239.702109 172.388052 
L 239.752796 170.880706 
L 239.826454 170.880706 
L 239.826454 170.127033 
L 240.042448 170.127033 
L 240.127862 168.619686 
L 240.185089 168.619686 
L 240.189802 167.11234 
L 240.303199 167.11234 
L 240.35393 164.85132 
L 240.440406 164.85132 
L 240.54559 162.590301 
L 240.552106 162.590301 
L 240.596735 159.575608 
L 240.674407 159.575608 
L 240.754446 156.560915 
L 240.852431 156.560915 
L 240.935159 154.299895 
L 240.998311 154.299895 
L 240.998311 153.546222 
L 241.114752 153.546222 
L 241.202937 151.285203 
L 241.259063 151.285203 
L 241.361023 148.27051 
L 241.379942 148.27051 
L 241.463688 145.255817 
L 241.521324 145.255817 
L 241.604284 141.487451 
L 241.89137 141.487451 
L 241.97863 139.980105 
L 242.01773 139.980105 
L 242.057615 138.472758 
L 242.133336 138.472758 
L 242.242558 135.458065 
L 242.354065 135.458065 
L 242.463405 130.936026 
L 242.473484 130.936026 
L 242.532211 129.42868 
L 242.649413 129.42868 
L 242.698456 127.921333 
L 242.859389 127.921333 
L 242.948208 126.413987 
L 243.090849 126.413987 
L 243.12014 124.906641 
L 243.237772 124.906641 
L 243.237772 124.152967 
L 243.472854 124.152967 
L 243.580167 122.645621 
L 243.626266 122.645621 
L 243.663564 120.384601 
L 243.771735 120.384601 
L 243.795559 118.123582 
L 243.887018 118.123582 
L 243.970989 114.355216 
L 244.104523 114.355216 
L 244.207203 108.32583 
L 244.241234 108.32583 
L 244.290729 106.818484 
L 244.423309 106.818484 
L 244.513745 105.311137 
L 244.559847 105.311137 
L 244.559847 104.557464 
L 244.749626 104.557464 
L 244.836679 101.542771 
L 244.936792 101.542771 
L 245.005522 100.035425 
L 245.06415 100.035425 
L 245.06415 99.281752 
L 245.352133 99.281752 
L 245.450951 95.513386 
L 245.494932 95.513386 
L 245.584309 94.006039 
L 245.658974 94.006039 
L 245.765149 91.74502 
L 245.90691 91.74502 
L 245.90691 90.991346 
L 246.242176 90.991346 
L 246.242176 90.237673 
L 246.502927 90.237673 
L 246.569324 87.22298 
L 246.614509 87.22298 
L 246.641316 85.715634 
L 246.916633 85.715634 
L 246.916633 84.961961 
L 247.068317 84.961961 
L 247.068317 84.208288 
L 247.201333 84.208288 
L 247.272762 81.947268 
L 247.362139 81.947268 
L 247.419506 79.686248 
L 247.565741 79.686248 
L 247.565741 78.932575 
L 247.684739 78.932575 
L 247.770918 76.671556 
L 247.965621 76.671556 
L 248.037049 75.164209 
L 248.126426 75.164209 
L 248.187334 73.656863 
L 248.279396 73.656863 
L 248.374266 72.149516 
L 248.449027 72.149516 
L 248.449027 71.395843 
L 249.14177 71.395843 
L 249.147936 69.888497 
L 249.402756 69.888497 
L 249.402756 69.134824 
L 249.589688 69.134824 
L 249.589688 68.38115 
L 249.882881 68.38115 
L 249.882881 67.627477 
L 250.192421 67.627477 
L 250.192421 66.873804 
L 250.749997 66.873804 
L 250.749997 66.120131 
L 251.270451 66.120131 
L 251.270451 65.366458 
L 251.39975 65.366458 
L 251.39975 64.612784 
L 251.544865 64.612784 
L 251.544865 63.859111 
L 251.757546 63.859111 
L 251.757546 63.105438 
L 251.92235 63.105438 
L 251.92235 62.351765 
L 252.626746 62.351765 
L 252.626746 61.598092 
L 253.815246 61.598092 
L 253.815246 60.844418 
L 253.948821 60.844418 
L 253.948821 60.090745 
L 254.325766 60.090745 
L 254.394496 58.583399 
L 255.58153 58.583399 
L 255.58153 57.829725 
L 255.768462 57.829725 
L 255.768462 57.076052 
L 256.170112 57.076052 
L 256.170112 56.322379 
L 256.767771 56.322379 
L 256.767771 55.568706 
L 257.354595 55.568706 
L 257.426023 54.061359 
L 257.469689 54.061359 
L 257.5154 52.554013 
L 257.838001 52.554013 
L 257.838001 51.80034 
L 258.016336 51.80034 
L 258.016336 51.046667 
L 258.424135 51.046667 
L 258.424135 50.292993 
L 258.685111 50.292993 
L 258.685111 49.53932 
L 258.947148 49.53932 
L 258.947148 48.785647 
L 259.667338 48.785647 
L 259.667338 48.031974 
L 260.536865 48.031974 
L 260.536865 47.278301 
L 260.732235 47.278301 
L 260.732235 46.524627 
L 260.876318 46.524627 
L 260.882759 45.017281 
L 261.188765 45.017281 
L 261.188765 44.263608 
L 261.614615 44.263608 
L 261.614615 43.509935 
L 261.963709 43.509935 
L 261.963709 42.756261 
L 262.571455 42.756261 
L 262.621101 41.248915 
L 263.08166 41.248915 
L 263.08166 40.495242 
L 264.863885 40.495242 
L 264.938241 38.987895 
L 265.436526 38.987895 
L 265.436526 38.234222 
L 265.7157 38.234222 
L 265.7157 37.480549 
L 266.931121 37.480549 
L 266.931121 36.726876 
L 267.061533 36.726876 
L 267.061533 35.973203 
L 269.551086 35.973203 
L 269.551086 35.219529 
L 269.99865 35.219529 
L 269.99865 34.465856 
L 270.782284 34.465856 
L 270.782284 33.712183 
L 270.984054 33.712183 
L 270.984054 32.95851 
L 271.887515 32.95851 
L 271.887515 32.204837 
L 272.199476 32.204837 
L 272.199476 31.451163 
L 273.071696 31.451163 
L 273.109895 29.943817 
L 273.272588 29.943817 
L 273.272588 29.190144 
L 273.926518 29.190144 
L 273.926518 28.436471 
L 274.204656 28.436471 
L 274.204656 27.682797 
L 277.963183 27.682797 
L 277.963183 26.929124 
L 278.150115 26.929124 
L 278.150115 26.175451 
L 278.37825 26.175451 
L 278.37825 25.421778 
L 282.33811 25.421778 
L 282.33811 24.668105 
L 283.103844 24.668105 
L 283.103844 23.914431 
L 284.315246 23.914431 
L 284.315246 23.160758 
L 284.606447 23.160758 
L 284.606447 22.407085 
L 285.530667 22.407085 
L 285.530667 21.653412 
L 287.245538 21.653412 
L 287.245538 20.899739 
L 288.327949 20.899739 
L 288.327949 20.146065 
L 289.443187 20.146065 
L 289.443187 19.392392 
L 291.709441 19.392392 
L 291.709441 18.638719 
L 293.872861 18.638719 
L 293.872861 17.885046 
L 295.491548 17.885046 
L 295.491548 17.131373 
L 297.063529 17.131373 
L 297.063529 16.377699 
L 297.594363 16.377699 
L 297.594363 15.624026 
L 297.801827 15.624026 
L 297.801827 14.870353 
L 298.159205 14.870353 
L 298.159205 14.11668 
L 300.759903 14.11668 
L 300.759903 13.363007 
L 307.425619 13.363007 
L 307.425619 12.609333 
L 310.347904 12.609333 
L 310.347904 11.85566 
L 311.563326 11.85566 
L 311.563326 11.101987 
L 312.11889 11.101987 
L 312.11889 10.348314 
L 312.857187 10.348314 
L 312.857187 9.594641 
L 314.091094 9.594641 
L 314.091094 8.840967 
L 317.7421 8.840967 
L 317.7421 8.087294 
L 321.385304 8.087294 
L 321.385304 7.333621 
L 322.123601 7.333621 
L 322.123601 6.579948 
L 340.123753 6.579948 
L 340.123753 5.826275 
L 453.192 5.826275 
L 453.192 5.826275 
" clip-path="url(#p0a6aeab56f)" style="fill: none; stroke: #bf00bf; stroke-width: 3; stroke-linecap: square"/>
   </g>
   <g id="line2d_41">
    <path clip-path="url(#p0a6aeab56f)" style="fill: none; stroke: #bf00bf; stroke-width: 3; stroke-linecap: square"/>
   </g>
   <g id="line2d_42">
    <path d="M 34.16 288.453725 
L 111.663785 288.453725 
L 111.663785 287.700052 
L 117.560477 287.700052 
L 117.560477 286.946379 
L 139.506449 286.946379 
L 139.506449 286.192706 
L 140.612625 286.192706 
L 140.612625 285.439033 
L 145.634216 285.439033 
L 145.634216 284.685359 
L 146.509317 284.685359 
L 146.509317 283.931686 
L 150.299434 283.931686 
L 150.299434 283.178013 
L 152.091321 283.178013 
L 152.091321 282.42434 
L 153.949067 282.42434 
L 153.949067 281.670667 
L 161.276752 281.670667 
L 161.276752 280.916993 
L 165.67809 280.916993 
L 165.67809 280.16332 
L 167.658906 280.16332 
L 167.658906 279.409647 
L 168.455288 279.409647 
L 168.455288 278.655974 
L 171.161729 278.655974 
L 171.161729 277.902301 
L 171.574782 277.902301 
L 171.574782 277.148627 
L 174.583055 277.148627 
L 174.583055 276.394954 
L 179.248273 276.394954 
L 179.248273 275.641281 
L 180.076688 275.641281 
L 180.076688 274.887608 
L 181.04016 274.887608 
L 181.04016 274.133935 
L 182.897907 274.133935 
L 182.897907 273.380261 
L 187.991428 273.380261 
L 187.991428 272.626588 
L 190.225592 272.626588 
L 190.225592 271.872915 
L 193.520754 271.872915 
L 193.520754 271.119242 
L 196.278651 271.119242 
L 196.303095 269.611895 
L 196.607746 269.611895 
L 196.607746 268.858222 
L 199.648521 268.858222 
L 199.648521 268.104549 
L 200.110569 268.104549 
L 200.203137 266.597203 
L 201.096452 266.597203 
L 201.096452 265.843529 
L 204.313739 265.843529 
L 204.313739 265.089856 
L 206.105626 265.089856 
L 206.18778 263.58251 
L 207.963372 263.58251 
L 207.963372 262.828837 
L 208.669979 262.828837 
L 208.669979 262.075163 
L 209.025527 262.075163 
L 209.056499 260.567817 
L 212.348672 260.567817 
L 212.348672 259.814144 
L 213.922307 259.814144 
L 213.922307 259.060471 
L 214.425059 259.060471 
L 214.425059 258.306797 
L 215.291057 258.306797 
L 215.291057 257.553124 
L 217.75177 257.553124 
L 217.75177 256.799451 
L 220.635895 256.799451 
L 220.635895 256.045778 
L 221.673212 256.045778 
L 221.673212 255.292105 
L 222.712282 255.292105 
L 222.712282 254.538431 
L 223.320718 254.538431 
L 223.320718 253.784758 
L 223.986549 253.784758 
L 223.986549 253.031085 
L 224.540511 253.031085 
L 224.540511 252.277412 
L 225.176034 252.277412 
L 225.251934 250.770065 
L 226.026286 250.770065 
L 226.038992 249.262719 
L 227.604413 249.262719 
L 227.604413 248.509046 
L 227.818638 248.509046 
L 227.818638 247.755373 
L 228.373423 247.755373 
L 228.434628 246.248026 
L 229.151977 246.248026 
L 229.151977 245.494353 
L 229.538322 245.494353 
L 229.538322 244.74068 
L 230.045291 244.74068 
L 230.155461 242.47966 
L 230.525566 242.47966 
L 230.545024 240.972314 
L 232.2997 240.972314 
L 232.2997 240.218641 
L 232.621411 240.218641 
L 232.621411 239.464967 
L 232.76411 239.464967 
L 232.76411 238.711294 
L 232.951941 238.711294 
L 233.027223 236.450275 
L 233.157067 236.450275 
L 233.219052 234.189255 
L 233.356408 234.189255 
L 233.418393 231.928235 
L 233.62568 231.928235 
L 233.687665 229.667216 
L 233.983195 229.667216 
L 234.090993 228.159869 
L 234.623911 228.159869 
L 234.623911 227.406196 
L 234.761762 227.406196 
L 234.825025 224.391503 
L 234.875269 224.391503 
L 234.961103 222.884157 
L 235.024366 222.884157 
L 235.10361 220.623137 
L 235.18255 220.623137 
L 235.293638 217.608444 
L 235.381891 217.608444 
L 235.49013 216.101098 
L 235.603886 216.101098 
L 235.665871 213.840078 
L 235.948122 213.840078 
L 235.948122 213.086405 
L 236.229829 213.086405 
L 236.282561 211.579059 
L 236.42917 211.579059 
L 236.481902 210.071712 
L 236.670343 210.071712 
L 236.751173 207.810693 
L 236.841339 207.810693 
L 236.869684 206.303346 
L 237.04068 206.303346 
L 237.138956 203.288654 
L 237.208582 203.288654 
L 237.318602 198.766614 
L 237.448701 198.766614 
L 237.448701 198.012941 
L 237.587874 198.012941 
L 237.62937 196.505595 
L 237.729678 196.505595 
L 237.816108 194.244575 
L 237.877313 194.244575 
L 237.946994 192.737229 
L 238.000359 192.737229 
L 238.030629 191.229882 
L 238.146335 191.229882 
L 238.240873 188.21519 
L 238.279551 188.21519 
L 238.279551 187.461516 
L 238.393296 187.461516 
L 238.471246 183.69315 
L 238.542697 183.69315 
L 238.542697 182.939477 
L 238.674261 182.939477 
L 238.72938 179.171111 
L 238.81684 179.171111 
L 238.81684 178.417438 
L 238.975212 178.417438 
L 238.981007 176.910092 
L 239.097482 176.910092 
L 239.158687 173.141725 
L 239.228888 173.141725 
L 239.33788 170.127033 
L 239.510579 170.127033 
L 239.598146 166.358667 
L 239.730602 166.358667 
L 239.730602 165.604993 
L 239.968251 165.604993 
L 239.999873 164.097647 
L 240.241715 164.097647 
L 240.262381 162.590301 
L 240.355938 162.590301 
L 240.456503 160.329281 
L 240.578263 160.329281 
L 240.687693 158.821935 
L 240.750058 158.821935 
L 240.846584 155.807242 
L 240.87952 155.807242 
L 240.949399 154.299895 
L 241.090804 154.299895 
L 241.194253 151.285203 
L 241.218671 151.285203 
L 241.249625 149.024183 
L 241.391755 149.024183 
L 241.440361 147.516837 
L 241.552734 147.516837 
L 241.562806 146.00949 
L 241.742385 146.00949 
L 241.766414 143.748471 
L 241.892992 143.748471 
L 241.998629 140.733778 
L 242.185771 140.733778 
L 242.251443 138.472758 
L 242.297947 138.472758 
L 242.394626 135.458065 
L 242.433544 135.458065 
L 242.507015 133.197046 
L 242.615414 133.197046 
L 242.710997 130.936026 
L 242.759542 130.936026 
L 242.837575 127.16766 
L 242.870891 127.16766 
L 242.943212 122.645621 
L 243.023759 122.645621 
L 243.123005 118.877255 
L 243.170096 118.877255 
L 243.231544 115.108889 
L 243.285191 115.108889 
L 243.342894 112.847869 
L 243.42316 112.847869 
L 243.488169 111.340523 
L 243.53451 111.340523 
L 243.53451 110.58685 
L 243.676 110.58685 
L 243.714918 108.32583 
L 243.857361 108.32583 
L 243.910093 106.06481 
L 244.114679 106.06481 
L 244.114679 105.311137 
L 244.2267 105.311137 
L 244.326996 102.296444 
L 244.438346 102.296444 
L 244.541784 100.035425 
L 244.602314 100.035425 
L 244.653133 98.528078 
L 244.746793 98.528078 
L 244.843838 95.513386 
L 245.059325 95.513386 
L 245.12754 93.252366 
L 245.213943 93.252366 
L 245.296356 90.991346 
L 245.359755 90.991346 
L 245.359755 90.237673 
L 245.523735 90.237673 
L 245.599327 87.976654 
L 245.711566 87.976654 
L 245.750484 86.469307 
L 245.868405 86.469307 
L 245.932354 84.961961 
L 246.271052 84.961961 
L 246.271052 84.208288 
L 246.382402 84.208288 
L 246.470225 82.700941 
L 246.531222 82.700941 
L 246.581575 81.193595 
L 246.796278 81.193595 
L 246.891386 79.686248 
L 246.907628 79.686248 
L 246.988077 76.671556 
L 247.028493 76.671556 
L 247.076443 74.410536 
L 247.139842 74.410536 
L 247.158793 72.90319 
L 247.452487 72.90319 
L 247.452487 72.149516 
L 247.634893 72.149516 
L 247.679236 69.134824 
L 247.861107 69.134824 
L 247.861107 68.38115 
L 248.17276 68.38115 
L 248.19996 66.873804 
L 248.31131 66.873804 
L 248.37759 64.612784 
L 249.563646 64.612784 
L 249.563646 63.859111 
L 249.754349 63.859111 
L 249.754349 63.105438 
L 250.208326 63.105438 
L 250.3174 61.598092 
L 250.38353 61.598092 
L 250.42018 60.090745 
L 251.961658 60.090745 
L 251.961658 59.337072 
L 252.137078 59.337072 
L 252.137078 58.583399 
L 252.459917 58.583399 
L 252.459917 57.829725 
L 253.006579 57.829725 
L 253.081059 56.322379 
L 253.74689 56.322379 
L 253.74689 55.568706 
L 254.038045 55.568706 
L 254.038045 54.815033 
L 254.217443 54.815033 
L 254.217443 54.061359 
L 255.110757 54.061359 
L 255.110757 53.307686 
L 255.488777 53.307686 
L 255.488777 52.554013 
L 255.786628 52.554013 
L 255.875298 51.046667 
L 257.364755 51.046667 
L 257.364755 50.292993 
L 257.998015 50.292993 
L 257.998015 49.53932 
L 260.074402 49.53932 
L 260.074402 48.785647 
L 260.650194 48.785647 
L 260.741105 47.278301 
L 262.357603 47.278301 
L 262.357603 46.524627 
L 262.82849 46.524627 
L 262.82849 45.770954 
L 263.401112 45.770954 
L 263.401112 45.017281 
L 264.43399 45.017281 
L 264.43399 44.263608 
L 264.904877 44.263608 
L 264.904877 43.509935 
L 265.409593 43.509935 
L 265.409593 42.756261 
L 266.546886 42.756261 
L 266.546886 42.002588 
L 267.733491 42.002588 
L 267.7607 40.495242 
L 268.231587 40.495242 
L 268.231587 39.741569 
L 269.423395 39.741569 
L 269.423395 38.987895 
L 270.139516 38.987895 
L 270.139516 38.234222 
L 270.805347 38.234222 
L 270.805347 37.480549 
L 271.499782 37.480549 
L 271.499782 36.726876 
L 272.845085 36.726876 
L 272.845085 35.973203 
L 274.423212 35.973203 
L 274.423212 35.219529 
L 274.826493 35.219529 
L 274.826493 34.465856 
L 280.45957 34.465856 
L 280.45957 33.712183 
L 281.83839 33.712183 
L 281.83839 32.95851 
L 284.819158 32.95851 
L 284.819158 32.204837 
L 285.290044 32.204837 
L 285.290044 31.451163 
L 287.735082 31.451163 
L 287.735082 30.69749 
L 288.492858 30.69749 
L 288.492858 29.943817 
L 291.88495 29.943817 
L 291.88495 29.190144 
L 292.090735 29.190144 
L 292.090735 28.436471 
L 294.167122 28.436471 
L 294.167122 27.682797 
L 294.358433 27.682797 
L 294.358433 26.929124 
L 294.620625 26.929124 
L 294.620625 26.175451 
L 297.493832 26.175451 
L 297.493832 25.421778 
L 299.285843 25.421778 
L 299.285843 24.668105 
L 301.077729 24.668105 
L 301.077729 23.914431 
L 302.935476 23.914431 
L 302.935476 23.160758 
L 309.681053 23.160758 
L 309.681053 22.407085 
L 310.263161 22.407085 
L 310.263161 21.653412 
L 314.552289 21.653412 
L 314.552289 20.899739 
L 315.80882 20.899739 
L 315.80882 20.146065 
L 316.645315 20.146065 
L 316.645315 19.392392 
L 319.423898 19.392392 
L 319.423898 18.638719 
L 320.148138 18.638719 
L 320.148138 17.885046 
L 320.474038 17.885046 
L 320.474038 17.131373 
L 322.265925 17.131373 
L 322.265925 16.377699 
L 324.123672 16.377699 
L 324.123672 15.624026 
L 329.063096 15.624026 
L 329.063096 14.870353 
L 331.451357 14.870353 
L 331.451357 14.11668 
L 337.833511 14.11668 
L 337.833511 13.363007 
L 341.336334 13.363007 
L 341.336334 12.609333 
L 345.289503 12.609333 
L 345.289503 11.85566 
L 349.189546 11.85566 
L 349.189546 11.101987 
L 350.08286 11.101987 
L 350.08286 10.348314 
L 350.251292 10.348314 
L 350.251292 9.594641 
L 366.477699 9.594641 
L 366.477699 8.840967 
L 370.377742 8.840967 
L 370.377742 8.087294 
L 371.271056 8.087294 
L 371.271056 7.333621 
L 414.396002 7.333621 
L 414.396002 6.579948 
L 435.584198 6.579948 
L 435.584198 5.826275 
L 453.192 5.826275 
L 453.192 5.826275 
" clip-path="url(#p0a6aeab56f)" style="fill: none; stroke: #ff0000; stroke-width: 3; stroke-linecap: square"/>
   </g>
   <g id="line2d_43">
    <path clip-path="url(#p0a6aeab56f)" style="fill: none; stroke: #ff0000; stroke-width: 3; stroke-linecap: square"/>
   </g>
   <g id="line2d_44">
    <path d="M 243.676 291.28 
L 243.676 3 
" clip-path="url(#p0a6aeab56f)" style="fill: none; stroke: #000000; stroke-width: 1.5; stroke-linecap: square"/>
   </g>
   <g id="line2d_45">
    <path d="M 34.16 147.14 
L 453.192 147.14 
" clip-path="url(#p0a6aeab56f)" style="fill: none; stroke-dasharray: 2,3.3; stroke-dashoffset: 0; stroke: #000000; stroke-width: 2"/>
   </g>
   <g id="patch_3">
    <path d="M 34.16 291.28 
L 34.16 3 
" style="fill: none; stroke: #000000; stroke-width: 0.8; stroke-linejoin: miter; stroke-linecap: square"/>
   </g>
   <g id="patch_4">
    <path d="M 453.192 291.28 
L 453.192 3 
" style="fill: none; stroke: #000000; stroke-width: 0.8; stroke-linejoin: miter; stroke-linecap: square"/>
   </g>
   <g id="patch_5">
    <path d="M 34.16 291.28 
L 453.192 291.28 
" style="fill: none; stroke: #000000; stroke-width: 0.8; stroke-linejoin: miter; stroke-linecap: square"/>
   </g>
   <g id="patch_6">
    <path d="M 34.16 3 
L 453.192 3 
" style="fill: none; stroke: #000000; stroke-width: 0.8; stroke-linejoin: miter; stroke-linecap: square"/>
   </g>
   <g id="text_6">
    <!-- f10-f14,20-D -->
    <g transform="translate(318.19261 285.5144)scale(0.2 -0.2)">
     <defs>
      <path id="DejaVuSans-34" d="M 2419 4116 
L 825 1625 
L 2419 1625 
L 2419 4116 
z
M 2253 4666 
L 3047 4666 
L 3047 1625 
L 3713 1625 
L 3713 1100 
L 3047 1100 
L 3047 0 
L 2419 0 
L 2419 1100 
L 313 1100 
L 313 1709 
L 2253 4666 
z
" transform="scale(0.015625)"/>
      <path id="DejaVuSans-2c" d="M 750 794 
L 1409 794 
L 1409 256 
L 897 -744 
L 494 -744 
L 750 256 
L 750 794 
z
" transform="scale(0.015625)"/>
      <path id="DejaVuSans-32" d="M 1228 531 
L 3431 531 
L 3431 0 
L 469 0 
L 469 531 
Q 828 903 1448 1529 
Q 2069 2156 2228 2338 
Q 2531 2678 2651 2914 
Q 2772 3150 2772 3378 
Q 2772 3750 2511 3984 
Q 2250 4219 1831 4219 
Q 1534 4219 1204 4116 
Q 875 4013 500 3803 
L 500 4441 
Q 881 4594 1212 4672 
Q 1544 4750 1819 4750 
Q 2544 4750 2975 4387 
Q 3406 4025 3406 3419 
Q 3406 3131 3298 2873 
Q 3191 2616 2906 2266 
Q 2828 2175 2409 1742 
Q 1991 1309 1228 531 
z
" transform="scale(0.015625)"/>
      <path id="DejaVuSans-44" d="M 1259 4147 
L 1259 519 
L 2022 519 
Q 2988 519 3436 956 
Q 3884 1394 3884 2338 
Q 3884 3275 3436 3711 
Q 2988 4147 2022 4147 
L 1259 4147 
z
M 628 4666 
L 1925 4666 
Q 3281 4666 3915 4102 
Q 4550 3538 4550 2338 
Q 4550 1131 3912 565 
Q 3275 0 1925 0 
L 628 0 
L 628 4666 
z
" transform="scale(0.015625)"/>
     </defs>
     <use xlink:href="#DejaVuSans-66"/>
     <use xlink:href="#DejaVuSans-31" x="35.205078"/>
     <use xlink:href="#DejaVuSans-30" x="98.828125"/>
     <use xlink:href="#DejaVuSans-2d" x="162.451172"/>
     <use xlink:href="#DejaVuSans-66" x="198.535156"/>
     <use xlink:href="#DejaVuSans-31" x="233.740234"/>
     <use xlink:href="#DejaVuSans-34" x="297.363281"/>
     <use xlink:href="#DejaVuSans-2c" x="360.986328"/>
     <use xlink:href="#DejaVuSans-32" x="392.773438"/>
     <use xlink:href="#DejaVuSans-30" x="456.396484"/>
     <use xlink:href="#DejaVuSans-2d" x="520.019531"/>
     <use xlink:href="#DejaVuSans-44" x="556.103516"/>
    </g>
   </g>
   <g id="text_7">
    <!-- v2.6 -->
    <g style="fill: #808080" transform="translate(232.765062 286.317512)scale(0.1 -0.1)">
     <defs>
      <path id="DejaVuSans-2e" d="M 684 794 
L 1344 794 
L 1344 0 
L 684 0 
L 684 794 
z
" transform="scale(0.015625)"/>
      <path id="DejaVuSans-36" d="M 2113 2584 
Q 1688 2584 1439 2293 
Q 1191 2003 1191 1497 
Q 1191 994 1439 701 
Q 1688 409 2113 409 
Q 2538 409 2786 701 
Q 3034 994 3034 1497 
Q 3034 2003 2786 2293 
Q 2538 2584 2113 2584 
z
M 3366 4563 
L 3366 3988 
Q 3128 4100 2886 4159 
Q 2644 4219 2406 4219 
Q 1781 4219 1451 3797 
Q 1122 3375 1075 2522 
Q 1259 2794 1537 2939 
Q 1816 3084 2150 3084 
Q 2853 3084 3261 2657 
Q 3669 2231 3669 1497 
Q 3669 778 3244 343 
Q 2819 -91 2113 -91 
Q 1303 -91 875 529 
Q 447 1150 447 2328 
Q 447 3434 972 4092 
Q 1497 4750 2381 4750 
Q 2619 4750 2861 4703 
Q 3103 4656 3366 4563 
z
" transform="scale(0.015625)"/>
     </defs>
     <use xlink:href="#DejaVuSans-76"/>
     <use xlink:href="#DejaVuSans-32" x="59.179688"/>
     <use xlink:href="#DejaVuSans-2e" x="122.802734"/>
     <use xlink:href="#DejaVuSans-36" x="154.589844"/>
    </g>
   </g>
   <g id="legend_1">
    <g id="patch_7">
     <path d="M 48.16 136.425 
L 177.381875 136.425 
Q 181.381875 136.425 181.381875 132.425 
L 181.381875 17 
Q 181.381875 13 177.381875 13 
L 48.16 13 
Q 44.16 13 44.16 17 
L 44.16 132.425 
Q 44.16 136.425 48.16 136.425 
z
" style="fill: #ffffff; opacity: 0.2; stroke: #cccccc; stroke-linejoin: miter"/>
    </g>
    <g id="line2d_46">
     <path d="M 52.16 29.196875 
L 72.16 29.196875 
L 92.16 29.196875 
" style="fill: none; stroke: #000000; stroke-width: 3; stroke-linecap: square"/>
    </g>
    <g id="text_8">
     <!-- 1: 5/5 -->
     <g transform="translate(108.16 36.196875)scale(0.2 -0.2)">
      <defs>
       <path id="DejaVuSans-3a" d="M 750 794 
L 1409 794 
L 1409 0 
L 750 0 
L 750 794 
z
M 750 3309 
L 1409 3309 
L 1409 2516 
L 750 2516 
L 750 3309 
z
" transform="scale(0.015625)"/>
       <path id="DejaVuSans-35" d="M 691 4666 
L 3169 4666 
L 3169 4134 
L 1269 4134 
L 1269 2991 
Q 1406 3038 1543 3061 
Q 1681 3084 1819 3084 
Q 2600 3084 3056 2656 
Q 3513 2228 3513 1497 
Q 3513 744 3044 326 
Q 2575 -91 1722 -91 
Q 1428 -91 1123 -41 
Q 819 9 494 109 
L 494 744 
Q 775 591 1075 516 
Q 1375 441 1709 441 
Q 2250 441 2565 725 
Q 2881 1009 2881 1497 
Q 2881 1984 2565 2268 
Q 2250 2553 1709 2553 
Q 1456 2553 1204 2497 
Q 953 2441 691 2322 
L 691 4666 
z
" transform="scale(0.015625)"/>
       <path id="DejaVuSans-2f" d="M 1625 4666 
L 2156 4666 
L 531 -594 
L 0 -594 
L 1625 4666 
z
" transform="scale(0.015625)"/>
      </defs>
      <use xlink:href="#DejaVuSans-31"/>
      <use xlink:href="#DejaVuSans-3a" x="63.623047"/>
      <use xlink:href="#DejaVuSans-20" x="97.314453"/>
      <use xlink:href="#DejaVuSans-35" x="129.101562"/>
      <use xlink:href="#DejaVuSans-2f" x="192.724609"/>
      <use xlink:href="#DejaVuSans-35" x="226.416016"/>
     </g>
    </g>
    <g id="line2d_47">
     <path d="M 52.16 58.553125 
L 72.16 58.553125 
L 92.16 58.553125 
" style="fill: none; stroke: #00bfbf; stroke-width: 3; stroke-linecap: square"/>
    </g>
    <g id="text_9">
     <!-- -1: 5/5 -->
     <g transform="translate(108.16 65.553125)scale(0.2 -0.2)">
      <use xlink:href="#DejaVuSans-2d"/>
      <use xlink:href="#DejaVuSans-31" x="36.083984"/>
      <use xlink:href="#DejaVuSans-3a" x="99.707031"/>
      <use xlink:href="#DejaVuSans-20" x="133.398438"/>
      <use xlink:href="#DejaVuSans-35" x="165.185547"/>
      <use xlink:href="#DejaVuSans-2f" x="228.808594"/>
      <use xlink:href="#DejaVuSans-35" x="262.5"/>
     </g>
    </g>
    <g id="line2d_48">
     <path d="M 52.16 87.909375 
L 72.16 87.909375 
L 92.16 87.909375 
" style="fill: none; stroke: #bf00bf; stroke-width: 3; stroke-linecap: square"/>
    </g>
    <g id="text_10">
     <!-- -4: 5/5 -->
     <g transform="translate(108.16 94.909375)scale(0.2 -0.2)">
      <use xlink:href="#DejaVuSans-2d"/>
      <use xlink:href="#DejaVuSans-34" x="36.083984"/>
      <use xlink:href="#DejaVuSans-3a" x="99.707031"/>
      <use xlink:href="#DejaVuSans-20" x="133.398438"/>
      <use xlink:href="#DejaVuSans-35" x="165.185547"/>
      <use xlink:href="#DejaVuSans-2f" x="228.808594"/>
      <use xlink:href="#DejaVuSans-35" x="262.5"/>
     </g>
    </g>
    <g id="line2d_49">
     <path d="M 52.16 117.265625 
L 72.16 117.265625 
L 92.16 117.265625 
" style="fill: none; stroke: #ff0000; stroke-width: 3; stroke-linecap: square"/>
    </g>
    <g id="text_11">
     <!-- -8: 5/5 -->
     <g transform="translate(108.16 124.265625)scale(0.2 -0.2)">
      <defs>
       <path id="DejaVuSans-38" d="M 2034 2216 
Q 1584 2216 1326 1975 
Q 1069 1734 1069 1313 
Q 1069 891 1326 650 
Q 1584 409 2034 409 
Q 2484 409 2743 651 
Q 3003 894 3003 1313 
Q 3003 1734 2745 1975 
Q 2488 2216 2034 2216 
z
M 1403 2484 
Q 997 2584 770 2862 
Q 544 3141 544 3541 
Q 544 4100 942 4425 
Q 1341 4750 2034 4750 
Q 2731 4750 3128 4425 
Q 3525 4100 3525 3541 
Q 3525 3141 3298 2862 
Q 3072 2584 2669 2484 
Q 3125 2378 3379 2068 
Q 3634 1759 3634 1313 
Q 3634 634 3220 271 
Q 2806 -91 2034 -91 
Q 1263 -91 848 271 
Q 434 634 434 1313 
Q 434 1759 690 2068 
Q 947 2378 1403 2484 
z
M 1172 3481 
Q 1172 3119 1398 2916 
Q 1625 2713 2034 2713 
Q 2441 2713 2670 2916 
Q 2900 3119 2900 3481 
Q 2900 3844 2670 4047 
Q 2441 4250 2034 4250 
Q 1625 4250 1398 4047 
Q 1172 3844 1172 3481 
z
" transform="scale(0.015625)"/>
      </defs>
      <use xlink:href="#DejaVuSans-2d"/>
      <use xlink:href="#DejaVuSans-38" x="36.083984"/>
      <use xlink:href="#DejaVuSans-3a" x="99.707031"/>
      <use xlink:href="#DejaVuSans-20" x="133.398438"/>
      <use xlink:href="#DejaVuSans-35" x="165.185547"/>
      <use xlink:href="#DejaVuSans-2f" x="228.808594"/>
      <use xlink:href="#DejaVuSans-35" x="262.5"/>
     </g>
    </g>
   </g>
  </g>
 </g>
 <defs>
  <clipPath id="p0a6aeab56f">
   <rect x="34.16" y="3" width="419.032" height="288.28"/>
  </clipPath>
 </defs>
</svg>
