<?xml version="1.0" encoding="utf-8" standalone="no"?>
<!DOCTYPE svg PUBLIC "-//W3C//DTD SVG 1.1//EN"
  "http://www.w3.org/Graphics/SVG/1.1/DTD/svg11.dtd">
<svg xmlns:xlink="http://www.w3.org/1999/xlink" width="460.8pt" height="345.6pt" viewBox="0 0 460.8 345.6" xmlns="http://www.w3.org/2000/svg" version="1.1">
 <metadata>
  <rdf:RDF xmlns:dc="http://purl.org/dc/elements/1.1/" xmlns:cc="http://creativecommons.org/ns#" xmlns:rdf="http://www.w3.org/1999/02/22-rdf-syntax-ns#">
   <cc:Work>
    <dc:type rdf:resource="http://purl.org/dc/dcmitype/StillImage"/>
    <dc:date>2022-03-18T14:33:25.291712</dc:date>
    <dc:format>image/svg+xml</dc:format>
    <dc:creator>
     <cc:Agent>
      <dc:title>Matplotlib v3.5.1, https://matplotlib.org/</dc:title>
     </cc:Agent>
    </dc:creator>
   </cc:Work>
  </rdf:RDF>
 </metadata>
 <defs>
  <style type="text/css">*{stroke-linejoin: round; stroke-linecap: butt}</style>
 </defs>
 <g id="figure_1">
  <g id="patch_1">
   <path d="M 0 345.6 
L 460.8 345.6 
L 460.8 0 
L 0 0 
z
" style="fill: #ffffff"/>
  </g>
  <g id="axes_1">
   <g id="patch_2">
    <path d="M 57.6 298.944 
L 360.8064 298.944 
L 360.8064 6.912 
L 57.6 6.912 
z
" style="fill: #ffffff"/>
   </g>
   <g id="line2d_1">
    <path d="M 1.245626 298.944 
L 1.245626 290.927435 
L 21.912228 290.927435 
L 21.912228 289.782212 
L 64.589687 289.782212 
L 64.589687 288.636988 
L 68.65718 288.636988 
L 68.65718 287.491765 
L 72.854856 287.491765 
L 72.854856 286.346541 
L 80.621116 286.346541 
L 80.621116 285.201318 
L 81.433251 285.201318 
L 81.433251 284.056094 
L 82.211771 284.056094 
L 82.211771 282.910871 
L 82.464279 282.910871 
L 82.464279 281.765647 
L 82.959349 281.765647 
L 82.959349 280.620424 
L 83.202082 280.620424 
L 83.202082 279.4752 
L 83.678349 279.4752 
L 83.678349 278.329976 
L 84.142855 278.329976 
L 84.142855 277.184753 
L 85.038813 277.184753 
L 85.038813 276.039529 
L 86.510858 276.039529 
L 86.510858 274.894306 
L 88.063207 274.894306 
L 88.063207 273.749082 
L 90.989609 273.749082 
L 90.989609 272.603859 
L 96.120281 272.603859 
L 96.120281 271.458635 
L 103.625951 271.458635 
L 103.625951 270.313412 
L 105.112877 270.313412 
L 105.112877 269.168188 
L 108.915146 269.168188 
L 108.915146 268.022965 
L 116.419219 268.022965 
L 116.419219 266.877741 
L 116.86762 266.877741 
L 116.86762 265.732518 
L 119.389621 265.732518 
L 119.389621 264.587294 
L 120.317502 264.587294 
L 120.317502 263.442071 
L 129.581749 263.442071 
L 129.581749 262.296847 
L 132.881269 262.296847 
L 132.881269 261.151624 
L 134.916493 261.151624 
L 134.916493 260.0064 
L 140.196609 260.0064 
L 140.196609 258.861176 
L 144.445498 258.861176 
L 144.445498 257.715953 
L 148.697031 257.715953 
L 148.697031 256.570729 
L 150.465671 256.570729 
L 150.553245 254.280282 
L 157.410135 254.280282 
L 157.410135 253.135059 
L 163.3965 253.135059 
L 163.3965 251.989835 
L 163.531835 251.989835 
L 163.531835 250.844612 
L 165.957604 250.844612 
L 165.957604 249.699388 
L 166.521015 249.699388 
L 166.521015 248.554165 
L 166.769573 248.554165 
L 166.769573 247.408941 
L 174.288839 247.408941 
L 174.288839 246.263718 
L 180.720078 246.263718 
L 180.825238 243.973271 
L 180.858819 243.973271 
L 180.904394 241.682824 
L 180.973883 241.682824 
L 181.052417 238.247153 
L 181.092225 238.247153 
L 181.141204 235.956706 
L 181.258501 235.956706 
L 181.343707 232.521035 
L 181.525928 232.521035 
L 181.602196 230.230588 
L 181.680725 230.230588 
L 181.680725 229.085365 
L 181.855908 229.085365 
L 181.902941 226.794918 
L 181.97011 226.794918 
L 181.97011 225.649694 
L 182.099962 225.649694 
L 182.099962 224.504471 
L 182.241399 224.504471 
L 182.241399 223.359247 
L 182.361966 223.359247 
L 182.416403 221.0688 
L 182.646017 221.0688 
L 182.646017 219.923576 
L 182.794322 219.923576 
L 182.83182 217.633129 
L 183.314974 217.633129 
L 183.314974 216.487906 
L 183.511809 216.487906 
L 183.511809 215.342682 
L 183.641896 215.342682 
L 183.641896 214.197459 
L 183.921085 214.197459 
L 183.921085 213.052235 
L 184.11961 213.052235 
L 184.11961 211.907012 
L 185.014308 211.907012 
L 185.10448 207.326118 
L 185.129095 207.326118 
L 185.235743 200.454776 
L 185.280355 200.454776 
L 185.280355 199.309553 
L 190.101805 199.309553 
L 190.101805 198.164329 
L 190.304337 198.164329 
L 190.406406 194.728659 
L 190.572098 194.728659 
L 190.642437 192.438212 
L 190.745867 192.438212 
L 190.812398 190.147765 
L 190.921976 190.147765 
L 190.921976 189.002541 
L 191.102681 189.002541 
L 191.18735 185.566871 
L 191.59673 185.566871 
L 191.704108 182.1312 
L 192.021872 182.1312 
L 192.089957 179.840753 
L 192.170306 179.840753 
L 192.170306 178.695529 
L 192.34602 178.695529 
L 192.34602 177.550306 
L 192.58282 177.550306 
L 192.622357 175.259859 
L 192.712622 175.259859 
L 192.784666 172.969412 
L 192.906722 172.969412 
L 192.906722 171.824188 
L 193.084131 171.824188 
L 193.084131 170.678965 
L 196.167727 170.678965 
L 196.167727 169.533741 
L 199.181136 169.533741 
L 199.276663 166.098071 
L 199.442803 166.098071 
L 199.442803 164.952847 
L 203.275156 164.952847 
L 203.275156 163.807624 
L 203.475045 163.807624 
L 203.475045 162.6624 
L 207.219884 162.6624 
L 207.219884 161.517176 
L 210.415897 161.517176 
L 210.415897 160.371953 
L 213.472377 160.371953 
L 213.472377 159.226729 
L 214.831331 159.226729 
L 214.865921 156.936282 
L 217.065846 156.936282 
L 217.065846 155.791059 
L 223.40998 155.791059 
L 223.486 145.484047 
L 227.370151 145.484047 
L 227.370151 144.338824 
L 227.779871 144.338824 
L 227.779871 143.1936 
L 235.170111 143.1936 
L 235.170111 142.048376 
L 237.583949 142.048376 
L 237.583949 140.903153 
L 242.20408 140.903153 
L 242.20408 139.757929 
L 245.620428 139.757929 
L 245.620428 138.612706 
L 246.507713 138.612706 
L 246.507713 137.467482 
L 246.63392 137.467482 
L 246.63392 136.322259 
L 247.533469 136.322259 
L 247.533469 135.177035 
L 247.673097 135.177035 
L 247.673097 134.031812 
L 247.847228 134.031812 
L 247.847228 132.886588 
L 248.021687 132.886588 
L 248.021687 131.741365 
L 248.165326 131.741365 
L 248.165326 130.596141 
L 248.361264 130.596141 
L 248.470649 128.305694 
L 248.603186 128.305694 
L 248.603186 127.160471 
L 248.730322 127.160471 
L 248.730322 126.015247 
L 250.964047 126.015247 
L 250.964047 124.870024 
L 257.056729 124.870024 
L 257.137153 122.579576 
L 257.196417 122.579576 
L 257.259124 120.289129 
L 257.318351 120.289129 
L 257.379873 117.998682 
L 257.443118 117.998682 
L 257.510577 115.708235 
L 257.571133 115.708235 
L 257.634328 113.417788 
L 257.688615 113.417788 
L 257.751214 111.127341 
L 257.810104 111.127341 
L 257.920863 107.691671 
L 257.975443 107.691671 
L 258.023805 105.401224 
L 258.094967 105.401224 
L 258.094967 104.256 
L 262.7012 104.256 
L 262.7012 103.110776 
L 266.602864 103.110776 
L 266.602864 101.965553 
L 266.968695 101.965553 
L 266.968695 100.820329 
L 275.334653 100.820329 
L 275.334653 99.675106 
L 278.898357 99.675106 
L 278.898357 98.529882 
L 282.413531 98.529882 
L 282.413531 97.384659 
L 282.528082 97.384659 
L 282.528082 96.239435 
L 284.490021 96.239435 
L 284.557171 93.948988 
L 293.164538 93.948988 
L 293.269283 88.222871 
L 293.287392 88.222871 
L 293.386018 80.206306 
L 293.401151 80.206306 
L 293.494217 72.189741 
L 293.51354 72.189741 
L 293.616265 63.027953 
L 293.635966 63.027953 
L 293.743189 53.866165 
L 298.990176 53.866165 
L 298.990176 52.720941 
L 306.192193 52.720941 
L 306.192193 51.575718 
L 314.786024 51.575718 
L 314.786024 50.430494 
L 325.59356 50.430494 
L 325.59356 49.285271 
L 335.441939 49.285271 
L 335.487261 6.912 
L 360.8064 6.912 
L 360.8064 6.912 
" style="fill: none; stroke: #f5deb3; stroke-width: 4; stroke-linecap: square"/>
   </g>
   <g id="line2d_2">
    <defs>
     <path id="m5ac5c16de0" d="M -0 7.778175 
L 7.778175 0 
L 0 -7.778175 
L -7.778175 -0 
z
" style="stroke: #f5deb3; stroke-width: 1.5; stroke-linejoin: miter"/>
    </defs>
    <g>
     <use xlink:href="#m5ac5c16de0" x="105.112877" y="269.168188" style="fill: #f5deb3; stroke: #f5deb3; stroke-width: 1.5; stroke-linejoin: miter"/>
     <use xlink:href="#m5ac5c16de0" x="182.361966" y="223.359247" style="fill: #f5deb3; stroke: #f5deb3; stroke-width: 1.5; stroke-linejoin: miter"/>
     <use xlink:href="#m5ac5c16de0" x="237.583949" y="140.903153" style="fill: #f5deb3; stroke: #f5deb3; stroke-width: 1.5; stroke-linejoin: miter"/>
     <use xlink:href="#m5ac5c16de0" x="293.743189" y="53.866165" style="fill: #f5deb3; stroke: #f5deb3; stroke-width: 1.5; stroke-linejoin: miter"/>
     <use xlink:href="#m5ac5c16de0" x="335.487261" y="6.912" style="fill: #f5deb3; stroke: #f5deb3; stroke-width: 1.5; stroke-linejoin: miter"/>
     <use xlink:href="#m5ac5c16de0" x="360.8064" y="6.912" style="fill: #f5deb3; stroke: #f5deb3; stroke-width: 1.5; stroke-linejoin: miter"/>
    </g>
   </g>
   <g id="line2d_3">
    <path style="fill: none; stroke: #f5deb3; stroke-width: 4; stroke-linecap: square"/>
    <g/>
   </g>
   <g id="line2d_4">
    <path d="M 360.8064 6.912 
L 380.514816 12.75264 
" style="fill: none; stroke: #f5deb3; stroke-width: 4; stroke-linecap: square"/>
    <g>
     <use xlink:href="#m5ac5c16de0" x="360.8064" y="6.912" style="fill: #f5deb3; stroke: #f5deb3; stroke-width: 1.5; stroke-linejoin: miter"/>
     <use xlink:href="#m5ac5c16de0" x="380.514816" y="12.75264" style="fill: #f5deb3; stroke: #f5deb3; stroke-width: 1.5; stroke-linejoin: miter"/>
    </g>
   </g>
   <g id="matplotlib.axis_1">
    <g id="xtick_1">
     <g id="line2d_5">
      <path d="M 57.6 298.944 
L 57.6 6.912 
" clip-path="url(#pd2675768fc)" style="fill: none; stroke: #b0b0b0; stroke-width: 0.8; stroke-linecap: square"/>
     </g>
     <g id="line2d_6">
      <defs>
       <path id="mba4b81a26f" d="M 0 0 
L 0 3.5 
" style="stroke: #000000; stroke-width: 0.8"/>
      </defs>
      <g>
       <use xlink:href="#mba4b81a26f" x="57.6" y="298.944" style="stroke: #000000; stroke-width: 0.8"/>
      </g>
     </g>
     <g id="text_1">
      <!-- 0 -->
      <g transform="translate(52.191875 318.861344)scale(0.17 -0.17)">
       <defs>
        <path id="DejaVuSans-30" d="M 2034 4250 
Q 1547 4250 1301 3770 
Q 1056 3291 1056 2328 
Q 1056 1369 1301 889 
Q 1547 409 2034 409 
Q 2525 409 2770 889 
Q 3016 1369 3016 2328 
Q 3016 3291 2770 3770 
Q 2525 4250 2034 4250 
z
M 2034 4750 
Q 2819 4750 3233 4129 
Q 3647 3509 3647 2328 
Q 3647 1150 3233 529 
Q 2819 -91 2034 -91 
Q 1250 -91 836 529 
Q 422 1150 422 2328 
Q 422 3509 836 4129 
Q 1250 4750 2034 4750 
z
" transform="scale(0.015625)"/>
       </defs>
       <use xlink:href="#DejaVuSans-30"/>
      </g>
     </g>
    </g>
    <g id="xtick_2">
     <g id="line2d_7">
      <path d="M 144.2304 298.944 
L 144.2304 6.912 
" clip-path="url(#pd2675768fc)" style="fill: none; stroke: #b0b0b0; stroke-width: 0.8; stroke-linecap: square"/>
     </g>
     <g id="line2d_8">
      <g>
       <use xlink:href="#mba4b81a26f" x="144.2304" y="298.944" style="stroke: #000000; stroke-width: 0.8"/>
      </g>
     </g>
     <g id="text_2">
      <!-- 2 -->
      <g transform="translate(138.822275 318.861344)scale(0.17 -0.17)">
       <defs>
        <path id="DejaVuSans-32" d="M 1228 531 
L 3431 531 
L 3431 0 
L 469 0 
L 469 531 
Q 828 903 1448 1529 
Q 2069 2156 2228 2338 
Q 2531 2678 2651 2914 
Q 2772 3150 2772 3378 
Q 2772 3750 2511 3984 
Q 2250 4219 1831 4219 
Q 1534 4219 1204 4116 
Q 875 4013 500 3803 
L 500 4441 
Q 881 4594 1212 4672 
Q 1544 4750 1819 4750 
Q 2544 4750 2975 4387 
Q 3406 4025 3406 3419 
Q 3406 3131 3298 2873 
Q 3191 2616 2906 2266 
Q 2828 2175 2409 1742 
Q 1991 1309 1228 531 
z
" transform="scale(0.015625)"/>
       </defs>
       <use xlink:href="#DejaVuSans-32"/>
      </g>
     </g>
    </g>
    <g id="xtick_3">
     <g id="line2d_9">
      <path d="M 230.8608 298.944 
L 230.8608 6.912 
" clip-path="url(#pd2675768fc)" style="fill: none; stroke: #b0b0b0; stroke-width: 0.8; stroke-linecap: square"/>
     </g>
     <g id="line2d_10">
      <g>
       <use xlink:href="#mba4b81a26f" x="230.8608" y="298.944" style="stroke: #000000; stroke-width: 0.8"/>
      </g>
     </g>
     <g id="text_3">
      <!-- 4 -->
      <g transform="translate(225.452675 318.861344)scale(0.17 -0.17)">
       <defs>
        <path id="DejaVuSans-34" d="M 2419 4116 
L 825 1625 
L 2419 1625 
L 2419 4116 
z
M 2253 4666 
L 3047 4666 
L 3047 1625 
L 3713 1625 
L 3713 1100 
L 3047 1100 
L 3047 0 
L 2419 0 
L 2419 1100 
L 313 1100 
L 313 1709 
L 2253 4666 
z
" transform="scale(0.015625)"/>
       </defs>
       <use xlink:href="#DejaVuSans-34"/>
      </g>
     </g>
    </g>
    <g id="xtick_4">
     <g id="line2d_11">
      <path d="M 317.4912 298.944 
L 317.4912 6.912 
" clip-path="url(#pd2675768fc)" style="fill: none; stroke: #b0b0b0; stroke-width: 0.8; stroke-linecap: square"/>
     </g>
     <g id="line2d_12">
      <g>
       <use xlink:href="#mba4b81a26f" x="317.4912" y="298.944" style="stroke: #000000; stroke-width: 0.8"/>
      </g>
     </g>
     <g id="text_4">
      <!-- 6 -->
      <g transform="translate(312.083075 318.861344)scale(0.17 -0.17)">
       <defs>
        <path id="DejaVuSans-36" d="M 2113 2584 
Q 1688 2584 1439 2293 
Q 1191 2003 1191 1497 
Q 1191 994 1439 701 
Q 1688 409 2113 409 
Q 2538 409 2786 701 
Q 3034 994 3034 1497 
Q 3034 2003 2786 2293 
Q 2538 2584 2113 2584 
z
M 3366 4563 
L 3366 3988 
Q 3128 4100 2886 4159 
Q 2644 4219 2406 4219 
Q 1781 4219 1451 3797 
Q 1122 3375 1075 2522 
Q 1259 2794 1537 2939 
Q 1816 3084 2150 3084 
Q 2853 3084 3261 2657 
Q 3669 2231 3669 1497 
Q 3669 778 3244 343 
Q 2819 -91 2113 -91 
Q 1303 -91 875 529 
Q 447 1150 447 2328 
Q 447 3434 972 4092 
Q 1497 4750 2381 4750 
Q 2619 4750 2861 4703 
Q 3103 4656 3366 4563 
z
" transform="scale(0.015625)"/>
       </defs>
       <use xlink:href="#DejaVuSans-36"/>
      </g>
     </g>
    </g>
    <g id="xtick_5">
     <g id="line2d_13">
      <path d="M 100.9152 298.944 
L 100.9152 6.912 
" clip-path="url(#pd2675768fc)" style="fill: none; stroke: #b0b0b0; stroke-width: 0.8; stroke-linecap: square"/>
     </g>
     <g id="line2d_14">
      <defs>
       <path id="mb4e148d758" d="M 0 0 
L 0 2 
" style="stroke: #000000; stroke-width: 0.6"/>
      </defs>
      <g>
       <use xlink:href="#mb4e148d758" x="100.9152" y="298.944" style="stroke: #000000; stroke-width: 0.6"/>
      </g>
     </g>
    </g>
    <g id="xtick_6">
     <g id="line2d_15">
      <path d="M 187.5456 298.944 
L 187.5456 6.912 
" clip-path="url(#pd2675768fc)" style="fill: none; stroke: #b0b0b0; stroke-width: 0.8; stroke-linecap: square"/>
     </g>
     <g id="line2d_16">
      <g>
       <use xlink:href="#mb4e148d758" x="187.5456" y="298.944" style="stroke: #000000; stroke-width: 0.6"/>
      </g>
     </g>
    </g>
    <g id="xtick_7">
     <g id="line2d_17">
      <path d="M 274.176 298.944 
L 274.176 6.912 
" clip-path="url(#pd2675768fc)" style="fill: none; stroke: #b0b0b0; stroke-width: 0.8; stroke-linecap: square"/>
     </g>
     <g id="line2d_18">
      <g>
       <use xlink:href="#mb4e148d758" x="274.176" y="298.944" style="stroke: #000000; stroke-width: 0.6"/>
      </g>
     </g>
    </g>
    <g id="xtick_8">
     <g id="line2d_19">
      <path d="M 360.8064 298.944 
L 360.8064 6.912 
" clip-path="url(#pd2675768fc)" style="fill: none; stroke: #b0b0b0; stroke-width: 0.8; stroke-linecap: square"/>
     </g>
     <g id="line2d_20">
      <g>
       <use xlink:href="#mb4e148d758" x="360.8064" y="298.944" style="stroke: #000000; stroke-width: 0.6"/>
      </g>
     </g>
    </g>
    <g id="text_5">
     <!-- log10(# f-evals / dimension) -->
     <g transform="translate(88.823278 339.314156)scale(0.17 -0.17)">
      <defs>
       <path id="DejaVuSans-6c" d="M 603 4863 
L 1178 4863 
L 1178 0 
L 603 0 
L 603 4863 
z
" transform="scale(0.015625)"/>
       <path id="DejaVuSans-6f" d="M 1959 3097 
Q 1497 3097 1228 2736 
Q 959 2375 959 1747 
Q 959 1119 1226 758 
Q 1494 397 1959 397 
Q 2419 397 2687 759 
Q 2956 1122 2956 1747 
Q 2956 2369 2687 2733 
Q 2419 3097 1959 3097 
z
M 1959 3584 
Q 2709 3584 3137 3096 
Q 3566 2609 3566 1747 
Q 3566 888 3137 398 
Q 2709 -91 1959 -91 
Q 1206 -91 779 398 
Q 353 888 353 1747 
Q 353 2609 779 3096 
Q 1206 3584 1959 3584 
z
" transform="scale(0.015625)"/>
       <path id="DejaVuSans-67" d="M 2906 1791 
Q 2906 2416 2648 2759 
Q 2391 3103 1925 3103 
Q 1463 3103 1205 2759 
Q 947 2416 947 1791 
Q 947 1169 1205 825 
Q 1463 481 1925 481 
Q 2391 481 2648 825 
Q 2906 1169 2906 1791 
z
M 3481 434 
Q 3481 -459 3084 -895 
Q 2688 -1331 1869 -1331 
Q 1566 -1331 1297 -1286 
Q 1028 -1241 775 -1147 
L 775 -588 
Q 1028 -725 1275 -790 
Q 1522 -856 1778 -856 
Q 2344 -856 2625 -561 
Q 2906 -266 2906 331 
L 2906 616 
Q 2728 306 2450 153 
Q 2172 0 1784 0 
Q 1141 0 747 490 
Q 353 981 353 1791 
Q 353 2603 747 3093 
Q 1141 3584 1784 3584 
Q 2172 3584 2450 3431 
Q 2728 3278 2906 2969 
L 2906 3500 
L 3481 3500 
L 3481 434 
z
" transform="scale(0.015625)"/>
       <path id="DejaVuSans-31" d="M 794 531 
L 1825 531 
L 1825 4091 
L 703 3866 
L 703 4441 
L 1819 4666 
L 2450 4666 
L 2450 531 
L 3481 531 
L 3481 0 
L 794 0 
L 794 531 
z
" transform="scale(0.015625)"/>
       <path id="DejaVuSans-28" d="M 1984 4856 
Q 1566 4138 1362 3434 
Q 1159 2731 1159 2009 
Q 1159 1288 1364 580 
Q 1569 -128 1984 -844 
L 1484 -844 
Q 1016 -109 783 600 
Q 550 1309 550 2009 
Q 550 2706 781 3412 
Q 1013 4119 1484 4856 
L 1984 4856 
z
" transform="scale(0.015625)"/>
       <path id="DejaVuSans-23" d="M 3272 2816 
L 2363 2816 
L 2100 1772 
L 3016 1772 
L 3272 2816 
z
M 2803 4594 
L 2478 3297 
L 3391 3297 
L 3719 4594 
L 4219 4594 
L 3897 3297 
L 4872 3297 
L 4872 2816 
L 3775 2816 
L 3519 1772 
L 4513 1772 
L 4513 1294 
L 3397 1294 
L 3072 0 
L 2572 0 
L 2894 1294 
L 1978 1294 
L 1656 0 
L 1153 0 
L 1478 1294 
L 494 1294 
L 494 1772 
L 1594 1772 
L 1856 2816 
L 850 2816 
L 850 3297 
L 1978 3297 
L 2297 4594 
L 2803 4594 
z
" transform="scale(0.015625)"/>
       <path id="DejaVuSans-20" transform="scale(0.015625)"/>
       <path id="DejaVuSans-66" d="M 2375 4863 
L 2375 4384 
L 1825 4384 
Q 1516 4384 1395 4259 
Q 1275 4134 1275 3809 
L 1275 3500 
L 2222 3500 
L 2222 3053 
L 1275 3053 
L 1275 0 
L 697 0 
L 697 3053 
L 147 3053 
L 147 3500 
L 697 3500 
L 697 3744 
Q 697 4328 969 4595 
Q 1241 4863 1831 4863 
L 2375 4863 
z
" transform="scale(0.015625)"/>
       <path id="DejaVuSans-2d" d="M 313 2009 
L 1997 2009 
L 1997 1497 
L 313 1497 
L 313 2009 
z
" transform="scale(0.015625)"/>
       <path id="DejaVuSans-65" d="M 3597 1894 
L 3597 1613 
L 953 1613 
Q 991 1019 1311 708 
Q 1631 397 2203 397 
Q 2534 397 2845 478 
Q 3156 559 3463 722 
L 3463 178 
Q 3153 47 2828 -22 
Q 2503 -91 2169 -91 
Q 1331 -91 842 396 
Q 353 884 353 1716 
Q 353 2575 817 3079 
Q 1281 3584 2069 3584 
Q 2775 3584 3186 3129 
Q 3597 2675 3597 1894 
z
M 3022 2063 
Q 3016 2534 2758 2815 
Q 2500 3097 2075 3097 
Q 1594 3097 1305 2825 
Q 1016 2553 972 2059 
L 3022 2063 
z
" transform="scale(0.015625)"/>
       <path id="DejaVuSans-76" d="M 191 3500 
L 800 3500 
L 1894 563 
L 2988 3500 
L 3597 3500 
L 2284 0 
L 1503 0 
L 191 3500 
z
" transform="scale(0.015625)"/>
       <path id="DejaVuSans-61" d="M 2194 1759 
Q 1497 1759 1228 1600 
Q 959 1441 959 1056 
Q 959 750 1161 570 
Q 1363 391 1709 391 
Q 2188 391 2477 730 
Q 2766 1069 2766 1631 
L 2766 1759 
L 2194 1759 
z
M 3341 1997 
L 3341 0 
L 2766 0 
L 2766 531 
Q 2569 213 2275 61 
Q 1981 -91 1556 -91 
Q 1019 -91 701 211 
Q 384 513 384 1019 
Q 384 1609 779 1909 
Q 1175 2209 1959 2209 
L 2766 2209 
L 2766 2266 
Q 2766 2663 2505 2880 
Q 2244 3097 1772 3097 
Q 1472 3097 1187 3025 
Q 903 2953 641 2809 
L 641 3341 
Q 956 3463 1253 3523 
Q 1550 3584 1831 3584 
Q 2591 3584 2966 3190 
Q 3341 2797 3341 1997 
z
" transform="scale(0.015625)"/>
       <path id="DejaVuSans-73" d="M 2834 3397 
L 2834 2853 
Q 2591 2978 2328 3040 
Q 2066 3103 1784 3103 
Q 1356 3103 1142 2972 
Q 928 2841 928 2578 
Q 928 2378 1081 2264 
Q 1234 2150 1697 2047 
L 1894 2003 
Q 2506 1872 2764 1633 
Q 3022 1394 3022 966 
Q 3022 478 2636 193 
Q 2250 -91 1575 -91 
Q 1294 -91 989 -36 
Q 684 19 347 128 
L 347 722 
Q 666 556 975 473 
Q 1284 391 1588 391 
Q 1994 391 2212 530 
Q 2431 669 2431 922 
Q 2431 1156 2273 1281 
Q 2116 1406 1581 1522 
L 1381 1569 
Q 847 1681 609 1914 
Q 372 2147 372 2553 
Q 372 3047 722 3315 
Q 1072 3584 1716 3584 
Q 2034 3584 2315 3537 
Q 2597 3491 2834 3397 
z
" transform="scale(0.015625)"/>
       <path id="DejaVuSans-2f" d="M 1625 4666 
L 2156 4666 
L 531 -594 
L 0 -594 
L 1625 4666 
z
" transform="scale(0.015625)"/>
       <path id="DejaVuSans-64" d="M 2906 2969 
L 2906 4863 
L 3481 4863 
L 3481 0 
L 2906 0 
L 2906 525 
Q 2725 213 2448 61 
Q 2172 -91 1784 -91 
Q 1150 -91 751 415 
Q 353 922 353 1747 
Q 353 2572 751 3078 
Q 1150 3584 1784 3584 
Q 2172 3584 2448 3432 
Q 2725 3281 2906 2969 
z
M 947 1747 
Q 947 1113 1208 752 
Q 1469 391 1925 391 
Q 2381 391 2643 752 
Q 2906 1113 2906 1747 
Q 2906 2381 2643 2742 
Q 2381 3103 1925 3103 
Q 1469 3103 1208 2742 
Q 947 2381 947 1747 
z
" transform="scale(0.015625)"/>
       <path id="DejaVuSans-69" d="M 603 3500 
L 1178 3500 
L 1178 0 
L 603 0 
L 603 3500 
z
M 603 4863 
L 1178 4863 
L 1178 4134 
L 603 4134 
L 603 4863 
z
" transform="scale(0.015625)"/>
       <path id="DejaVuSans-6d" d="M 3328 2828 
Q 3544 3216 3844 3400 
Q 4144 3584 4550 3584 
Q 5097 3584 5394 3201 
Q 5691 2819 5691 2113 
L 5691 0 
L 5113 0 
L 5113 2094 
Q 5113 2597 4934 2840 
Q 4756 3084 4391 3084 
Q 3944 3084 3684 2787 
Q 3425 2491 3425 1978 
L 3425 0 
L 2847 0 
L 2847 2094 
Q 2847 2600 2669 2842 
Q 2491 3084 2119 3084 
Q 1678 3084 1418 2786 
Q 1159 2488 1159 1978 
L 1159 0 
L 581 0 
L 581 3500 
L 1159 3500 
L 1159 2956 
Q 1356 3278 1631 3431 
Q 1906 3584 2284 3584 
Q 2666 3584 2933 3390 
Q 3200 3197 3328 2828 
z
" transform="scale(0.015625)"/>
       <path id="DejaVuSans-6e" d="M 3513 2113 
L 3513 0 
L 2938 0 
L 2938 2094 
Q 2938 2591 2744 2837 
Q 2550 3084 2163 3084 
Q 1697 3084 1428 2787 
Q 1159 2491 1159 1978 
L 1159 0 
L 581 0 
L 581 3500 
L 1159 3500 
L 1159 2956 
Q 1366 3272 1645 3428 
Q 1925 3584 2291 3584 
Q 2894 3584 3203 3211 
Q 3513 2838 3513 2113 
z
" transform="scale(0.015625)"/>
       <path id="DejaVuSans-29" d="M 513 4856 
L 1013 4856 
Q 1481 4119 1714 3412 
Q 1947 2706 1947 2009 
Q 1947 1309 1714 600 
Q 1481 -109 1013 -844 
L 513 -844 
Q 928 -128 1133 580 
Q 1338 1288 1338 2009 
Q 1338 2731 1133 3434 
Q 928 4138 513 4856 
z
" transform="scale(0.015625)"/>
      </defs>
      <use xlink:href="#DejaVuSans-6c"/>
      <use xlink:href="#DejaVuSans-6f" x="27.783203"/>
      <use xlink:href="#DejaVuSans-67" x="88.964844"/>
      <use xlink:href="#DejaVuSans-31" x="152.441406"/>
      <use xlink:href="#DejaVuSans-30" x="216.064453"/>
      <use xlink:href="#DejaVuSans-28" x="279.6875"/>
      <use xlink:href="#DejaVuSans-23" x="318.701172"/>
      <use xlink:href="#DejaVuSans-20" x="402.490234"/>
      <use xlink:href="#DejaVuSans-66" x="434.277344"/>
      <use xlink:href="#DejaVuSans-2d" x="463.982422"/>
      <use xlink:href="#DejaVuSans-65" x="500.066406"/>
      <use xlink:href="#DejaVuSans-76" x="561.589844"/>
      <use xlink:href="#DejaVuSans-61" x="620.769531"/>
      <use xlink:href="#DejaVuSans-6c" x="682.048828"/>
      <use xlink:href="#DejaVuSans-73" x="709.832031"/>
      <use xlink:href="#DejaVuSans-20" x="761.931641"/>
      <use xlink:href="#DejaVuSans-2f" x="793.71875"/>
      <use xlink:href="#DejaVuSans-20" x="827.410156"/>
      <use xlink:href="#DejaVuSans-64" x="859.197266"/>
      <use xlink:href="#DejaVuSans-69" x="922.673828"/>
      <use xlink:href="#DejaVuSans-6d" x="950.457031"/>
      <use xlink:href="#DejaVuSans-65" x="1047.869141"/>
      <use xlink:href="#DejaVuSans-6e" x="1109.392578"/>
      <use xlink:href="#DejaVuSans-73" x="1172.771484"/>
      <use xlink:href="#DejaVuSans-69" x="1224.871094"/>
      <use xlink:href="#DejaVuSans-6f" x="1252.654297"/>
      <use xlink:href="#DejaVuSans-6e" x="1313.835938"/>
      <use xlink:href="#DejaVuSans-29" x="1377.214844"/>
     </g>
    </g>
   </g>
   <g id="matplotlib.axis_2">
    <g id="ytick_1">
     <g id="line2d_21">
      <path d="M 57.6 298.944 
L 360.8064 298.944 
" clip-path="url(#pd2675768fc)" style="fill: none; stroke: #b0b0b0; stroke-width: 0.8; stroke-linecap: square"/>
     </g>
     <g id="line2d_22">
      <defs>
       <path id="mdd8bd7c4a1" d="M 0 0 
L -3.5 0 
" style="stroke: #000000; stroke-width: 0.8"/>
      </defs>
      <g>
       <use xlink:href="#mdd8bd7c4a1" x="57.6" y="298.944" style="stroke: #000000; stroke-width: 0.8"/>
      </g>
     </g>
     <g id="text_6">
      <!-- 0.0 -->
      <g transform="translate(25.155 305.02275)scale(0.16 -0.16)">
       <defs>
        <path id="DejaVuSans-2e" d="M 684 794 
L 1344 794 
L 1344 0 
L 684 0 
L 684 794 
z
" transform="scale(0.015625)"/>
       </defs>
       <use xlink:href="#DejaVuSans-30"/>
       <use xlink:href="#DejaVuSans-2e" x="63.623047"/>
       <use xlink:href="#DejaVuSans-30" x="95.410156"/>
      </g>
     </g>
    </g>
    <g id="ytick_2">
     <g id="line2d_23">
      <path d="M 57.6 240.5376 
L 360.8064 240.5376 
" clip-path="url(#pd2675768fc)" style="fill: none; stroke: #b0b0b0; stroke-width: 0.8; stroke-linecap: square"/>
     </g>
     <g id="line2d_24">
      <g>
       <use xlink:href="#mdd8bd7c4a1" x="57.6" y="240.5376" style="stroke: #000000; stroke-width: 0.8"/>
      </g>
     </g>
     <g id="text_7">
      <!-- 0.2 -->
      <g transform="translate(25.155 246.61635)scale(0.16 -0.16)">
       <use xlink:href="#DejaVuSans-30"/>
       <use xlink:href="#DejaVuSans-2e" x="63.623047"/>
       <use xlink:href="#DejaVuSans-32" x="95.410156"/>
      </g>
     </g>
    </g>
    <g id="ytick_3">
     <g id="line2d_25">
      <path d="M 57.6 182.1312 
L 360.8064 182.1312 
" clip-path="url(#pd2675768fc)" style="fill: none; stroke: #b0b0b0; stroke-width: 0.8; stroke-linecap: square"/>
     </g>
     <g id="line2d_26">
      <g>
       <use xlink:href="#mdd8bd7c4a1" x="57.6" y="182.1312" style="stroke: #000000; stroke-width: 0.8"/>
      </g>
     </g>
     <g id="text_8">
      <!-- 0.4 -->
      <g transform="translate(25.155 188.20995)scale(0.16 -0.16)">
       <use xlink:href="#DejaVuSans-30"/>
       <use xlink:href="#DejaVuSans-2e" x="63.623047"/>
       <use xlink:href="#DejaVuSans-34" x="95.410156"/>
      </g>
     </g>
    </g>
    <g id="ytick_4">
     <g id="line2d_27">
      <path d="M 57.6 123.7248 
L 360.8064 123.7248 
" clip-path="url(#pd2675768fc)" style="fill: none; stroke: #b0b0b0; stroke-width: 0.8; stroke-linecap: square"/>
     </g>
     <g id="line2d_28">
      <g>
       <use xlink:href="#mdd8bd7c4a1" x="57.6" y="123.7248" style="stroke: #000000; stroke-width: 0.8"/>
      </g>
     </g>
     <g id="text_9">
      <!-- 0.6 -->
      <g transform="translate(25.155 129.80355)scale(0.16 -0.16)">
       <use xlink:href="#DejaVuSans-30"/>
       <use xlink:href="#DejaVuSans-2e" x="63.623047"/>
       <use xlink:href="#DejaVuSans-36" x="95.410156"/>
      </g>
     </g>
    </g>
    <g id="ytick_5">
     <g id="line2d_29">
      <path d="M 57.6 65.3184 
L 360.8064 65.3184 
" clip-path="url(#pd2675768fc)" style="fill: none; stroke: #b0b0b0; stroke-width: 0.8; stroke-linecap: square"/>
     </g>
     <g id="line2d_30">
      <g>
       <use xlink:href="#mdd8bd7c4a1" x="57.6" y="65.3184" style="stroke: #000000; stroke-width: 0.8"/>
      </g>
     </g>
     <g id="text_10">
      <!-- 0.8 -->
      <g transform="translate(25.155 71.39715)scale(0.16 -0.16)">
       <defs>
        <path id="DejaVuSans-38" d="M 2034 2216 
Q 1584 2216 1326 1975 
Q 1069 1734 1069 1313 
Q 1069 891 1326 650 
Q 1584 409 2034 409 
Q 2484 409 2743 651 
Q 3003 894 3003 1313 
Q 3003 1734 2745 1975 
Q 2488 2216 2034 2216 
z
M 1403 2484 
Q 997 2584 770 2862 
Q 544 3141 544 3541 
Q 544 4100 942 4425 
Q 1341 4750 2034 4750 
Q 2731 4750 3128 4425 
Q 3525 4100 3525 3541 
Q 3525 3141 3298 2862 
Q 3072 2584 2669 2484 
Q 3125 2378 3379 2068 
Q 3634 1759 3634 1313 
Q 3634 634 3220 271 
Q 2806 -91 2034 -91 
Q 1263 -91 848 271 
Q 434 634 434 1313 
Q 434 1759 690 2068 
Q 947 2378 1403 2484 
z
M 1172 3481 
Q 1172 3119 1398 2916 
Q 1625 2713 2034 2713 
Q 2441 2713 2670 2916 
Q 2900 3119 2900 3481 
Q 2900 3844 2670 4047 
Q 2441 4250 2034 4250 
Q 1625 4250 1398 4047 
Q 1172 3844 1172 3481 
z
" transform="scale(0.015625)"/>
       </defs>
       <use xlink:href="#DejaVuSans-30"/>
       <use xlink:href="#DejaVuSans-2e" x="63.623047"/>
       <use xlink:href="#DejaVuSans-38" x="95.410156"/>
      </g>
     </g>
    </g>
    <g id="ytick_6">
     <g id="line2d_31">
      <path d="M 57.6 6.912 
L 360.8064 6.912 
" clip-path="url(#pd2675768fc)" style="fill: none; stroke: #b0b0b0; stroke-width: 0.8; stroke-linecap: square"/>
     </g>
     <g id="line2d_32">
      <g>
       <use xlink:href="#mdd8bd7c4a1" x="57.6" y="6.912" style="stroke: #000000; stroke-width: 0.8"/>
      </g>
     </g>
     <g id="text_11">
      <!-- 1.0 -->
      <g transform="translate(25.155 12.99075)scale(0.16 -0.16)">
       <use xlink:href="#DejaVuSans-31"/>
       <use xlink:href="#DejaVuSans-2e" x="63.623047"/>
       <use xlink:href="#DejaVuSans-30" x="95.410156"/>
      </g>
     </g>
    </g>
    <g id="text_12">
     <!-- Fraction of function,target pairs -->
     <g transform="translate(17.619531 287.313)rotate(-90)scale(0.17 -0.17)">
      <defs>
       <path id="DejaVuSans-46" d="M 628 4666 
L 3309 4666 
L 3309 4134 
L 1259 4134 
L 1259 2759 
L 3109 2759 
L 3109 2228 
L 1259 2228 
L 1259 0 
L 628 0 
L 628 4666 
z
" transform="scale(0.015625)"/>
       <path id="DejaVuSans-72" d="M 2631 2963 
Q 2534 3019 2420 3045 
Q 2306 3072 2169 3072 
Q 1681 3072 1420 2755 
Q 1159 2438 1159 1844 
L 1159 0 
L 581 0 
L 581 3500 
L 1159 3500 
L 1159 2956 
Q 1341 3275 1631 3429 
Q 1922 3584 2338 3584 
Q 2397 3584 2469 3576 
Q 2541 3569 2628 3553 
L 2631 2963 
z
" transform="scale(0.015625)"/>
       <path id="DejaVuSans-63" d="M 3122 3366 
L 3122 2828 
Q 2878 2963 2633 3030 
Q 2388 3097 2138 3097 
Q 1578 3097 1268 2742 
Q 959 2388 959 1747 
Q 959 1106 1268 751 
Q 1578 397 2138 397 
Q 2388 397 2633 464 
Q 2878 531 3122 666 
L 3122 134 
Q 2881 22 2623 -34 
Q 2366 -91 2075 -91 
Q 1284 -91 818 406 
Q 353 903 353 1747 
Q 353 2603 823 3093 
Q 1294 3584 2113 3584 
Q 2378 3584 2631 3529 
Q 2884 3475 3122 3366 
z
" transform="scale(0.015625)"/>
       <path id="DejaVuSans-74" d="M 1172 4494 
L 1172 3500 
L 2356 3500 
L 2356 3053 
L 1172 3053 
L 1172 1153 
Q 1172 725 1289 603 
Q 1406 481 1766 481 
L 2356 481 
L 2356 0 
L 1766 0 
Q 1100 0 847 248 
Q 594 497 594 1153 
L 594 3053 
L 172 3053 
L 172 3500 
L 594 3500 
L 594 4494 
L 1172 4494 
z
" transform="scale(0.015625)"/>
       <path id="DejaVuSans-75" d="M 544 1381 
L 544 3500 
L 1119 3500 
L 1119 1403 
Q 1119 906 1312 657 
Q 1506 409 1894 409 
Q 2359 409 2629 706 
Q 2900 1003 2900 1516 
L 2900 3500 
L 3475 3500 
L 3475 0 
L 2900 0 
L 2900 538 
Q 2691 219 2414 64 
Q 2138 -91 1772 -91 
Q 1169 -91 856 284 
Q 544 659 544 1381 
z
M 1991 3584 
L 1991 3584 
z
" transform="scale(0.015625)"/>
       <path id="DejaVuSans-2c" d="M 750 794 
L 1409 794 
L 1409 256 
L 897 -744 
L 494 -744 
L 750 256 
L 750 794 
z
" transform="scale(0.015625)"/>
       <path id="DejaVuSans-70" d="M 1159 525 
L 1159 -1331 
L 581 -1331 
L 581 3500 
L 1159 3500 
L 1159 2969 
Q 1341 3281 1617 3432 
Q 1894 3584 2278 3584 
Q 2916 3584 3314 3078 
Q 3713 2572 3713 1747 
Q 3713 922 3314 415 
Q 2916 -91 2278 -91 
Q 1894 -91 1617 61 
Q 1341 213 1159 525 
z
M 3116 1747 
Q 3116 2381 2855 2742 
Q 2594 3103 2138 3103 
Q 1681 3103 1420 2742 
Q 1159 2381 1159 1747 
Q 1159 1113 1420 752 
Q 1681 391 2138 391 
Q 2594 391 2855 752 
Q 3116 1113 3116 1747 
z
" transform="scale(0.015625)"/>
      </defs>
      <use xlink:href="#DejaVuSans-46"/>
      <use xlink:href="#DejaVuSans-72" x="50.269531"/>
      <use xlink:href="#DejaVuSans-61" x="91.382812"/>
      <use xlink:href="#DejaVuSans-63" x="152.662109"/>
      <use xlink:href="#DejaVuSans-74" x="207.642578"/>
      <use xlink:href="#DejaVuSans-69" x="246.851562"/>
      <use xlink:href="#DejaVuSans-6f" x="274.634766"/>
      <use xlink:href="#DejaVuSans-6e" x="335.816406"/>
      <use xlink:href="#DejaVuSans-20" x="399.195312"/>
      <use xlink:href="#DejaVuSans-6f" x="430.982422"/>
      <use xlink:href="#DejaVuSans-66" x="492.164062"/>
      <use xlink:href="#DejaVuSans-20" x="527.369141"/>
      <use xlink:href="#DejaVuSans-66" x="559.15625"/>
      <use xlink:href="#DejaVuSans-75" x="594.361328"/>
      <use xlink:href="#DejaVuSans-6e" x="657.740234"/>
      <use xlink:href="#DejaVuSans-63" x="721.119141"/>
      <use xlink:href="#DejaVuSans-74" x="776.099609"/>
      <use xlink:href="#DejaVuSans-69" x="815.308594"/>
      <use xlink:href="#DejaVuSans-6f" x="843.091797"/>
      <use xlink:href="#DejaVuSans-6e" x="904.273438"/>
      <use xlink:href="#DejaVuSans-2c" x="967.652344"/>
      <use xlink:href="#DejaVuSans-74" x="999.439453"/>
      <use xlink:href="#DejaVuSans-61" x="1038.648438"/>
      <use xlink:href="#DejaVuSans-72" x="1099.927734"/>
      <use xlink:href="#DejaVuSans-67" x="1139.291016"/>
      <use xlink:href="#DejaVuSans-65" x="1202.767578"/>
      <use xlink:href="#DejaVuSans-74" x="1264.291016"/>
      <use xlink:href="#DejaVuSans-20" x="1303.5"/>
      <use xlink:href="#DejaVuSans-70" x="1335.287109"/>
      <use xlink:href="#DejaVuSans-61" x="1398.763672"/>
      <use xlink:href="#DejaVuSans-69" x="1460.042969"/>
      <use xlink:href="#DejaVuSans-72" x="1487.826172"/>
      <use xlink:href="#DejaVuSans-73" x="1528.939453"/>
     </g>
    </g>
   </g>
   <g id="line2d_33">
    <defs>
     <path id="m9106a3abe0" d="M 0 1.5 
C 0.397805 1.5 0.77937 1.341951 1.06066 1.06066 
C 1.341951 0.77937 1.5 0.397805 1.5 0 
C 1.5 -0.397805 1.341951 -0.77937 1.06066 -1.06066 
C 0.77937 -1.341951 0.397805 -1.5 0 -1.5 
C -0.397805 -1.5 -0.77937 -1.341951 -1.06066 -1.06066 
C -1.341951 -0.77937 -1.5 -0.397805 -1.5 0 
C -1.5 0.397805 -1.341951 0.77937 -1.06066 1.06066 
C -0.77937 1.341951 -0.397805 1.5 0 1.5 
z
" style="stroke: #f5deb3"/>
    </defs>
    <g>
     <use xlink:href="#m9106a3abe0" x="335.487261" y="6.912" style="fill: #f5deb3; stroke: #f5deb3"/>
     <use xlink:href="#m9106a3abe0" x="335.487261" y="6.912" style="fill: #f5deb3; stroke: #f5deb3"/>
    </g>
   </g>
   <g id="line2d_34">
    <defs>
     <path id="m3c06f0521e" d="M 0 1.5 
C 0.397805 1.5 0.77937 1.341951 1.06066 1.06066 
C 1.341951 0.77937 1.5 0.397805 1.5 0 
C 1.5 -0.397805 1.341951 -0.77937 1.06066 -1.06066 
C 0.77937 -1.341951 0.397805 -1.5 0 -1.5 
C -0.397805 -1.5 -0.77937 -1.341951 -1.06066 -1.06066 
C -1.341951 -0.77937 -1.5 -0.397805 -1.5 0 
C -1.5 0.397805 -1.341951 0.77937 -1.06066 1.06066 
C -0.77937 1.341951 -0.397805 1.5 0 1.5 
z
" style="stroke: #000080"/>
    </defs>
    <g>
     <use xlink:href="#m3c06f0521e" x="318.794247" y="186.712094" style="fill: #000080; stroke: #000080"/>
     <use xlink:href="#m3c06f0521e" x="318.794247" y="186.712094" style="fill: #000080; stroke: #000080"/>
    </g>
   </g>
   <g id="line2d_35">
    <path d="M 1.245626 298.944 
L 1.245626 290.927435 
L 14.2848 290.927435 
L 14.2848 290.698391 
L 21.912228 290.698391 
L 21.912228 290.469346 
L 27.323974 290.469346 
L 27.323974 290.011256 
L 31.521651 290.011256 
L 31.521651 289.782212 
L 42.578831 289.782212 
L 42.578831 289.553167 
L 44.560826 289.553167 
L 44.560826 289.324122 
L 71.103681 289.324122 
L 71.103681 289.095078 
L 72.432107 289.095078 
L 72.432107 288.866033 
L 74.456807 288.866033 
L 74.456807 288.636988 
L 79.184421 288.636988 
L 79.184421 288.178899 
L 83.678349 288.178899 
L 83.678349 287.949854 
L 84.142855 287.949854 
L 84.142855 287.720809 
L 88.613828 287.720809 
L 88.613828 287.491765 
L 89.323782 287.491765 
L 89.323782 287.26272 
L 90.505165 287.26272 
L 90.505165 287.033675 
L 92.955655 287.033675 
L 92.955655 286.804631 
L 94.339481 286.804631 
L 94.339481 286.575586 
L 95.123409 286.575586 
L 95.123409 286.117496 
L 97.410051 286.117496 
L 97.410051 285.888452 
L 97.968299 285.888452 
L 97.968299 285.659407 
L 99.650899 285.659407 
L 99.751228 284.972273 
L 100.535156 284.972273 
L 100.535156 283.139915 
L 101.009023 283.139915 
L 101.009023 282.910871 
L 101.287718 282.910871 
L 101.287718 282.681826 
L 101.743226 282.681826 
L 101.743226 282.223736 
L 102.536336 282.223736 
L 102.536336 281.536602 
L 104.344952 281.536602 
L 104.344952 281.307558 
L 104.501065 281.307558 
L 104.501065 280.849468 
L 104.732832 280.849468 
L 104.732832 280.620424 
L 105.559021 280.620424 
L 105.559021 280.391379 
L 105.705415 280.391379 
L 105.705415 280.162334 
L 106.350446 280.162334 
L 106.42077 279.704245 
L 106.490831 279.704245 
L 106.490831 279.4752 
L 106.699465 279.4752 
L 106.699465 279.246155 
L 107.109915 279.246155 
L 107.109915 278.559021 
L 107.378656 278.559021 
L 107.378656 278.329976 
L 107.839908 278.329976 
L 107.839908 278.100932 
L 109.579508 278.100932 
L 109.638757 276.039529 
L 109.756698 276.039529 
L 109.756698 275.123351 
L 109.932235 275.123351 
L 109.932235 274.894306 
L 110.106149 274.894306 
L 110.106149 274.665261 
L 110.278469 274.665261 
L 110.278469 274.436216 
L 110.505802 274.436216 
L 110.505802 274.207172 
L 110.897141 274.207172 
L 110.897141 273.978127 
L 111.171767 273.978127 
L 111.171767 273.749082 
L 111.388617 273.749082 
L 111.388617 273.520038 
L 111.86758 273.520038 
L 111.920053 273.061948 
L 112.024561 273.061948 
L 112.024561 272.832904 
L 112.283321 272.832904 
L 112.283321 272.374814 
L 112.639708 272.374814 
L 112.639708 271.458635 
L 113.038907 271.458635 
L 113.038907 271.229591 
L 113.429811 271.229591 
L 113.429811 271.000546 
L 113.954374 271.000546 
L 113.954374 270.542456 
L 114.094935 270.542456 
L 114.094935 270.313412 
L 114.280729 270.313412 
L 114.280729 270.084367 
L 114.737343 270.084367 
L 114.737343 269.855322 
L 115.050503 269.855322 
L 115.050503 268.481054 
L 115.314838 268.481054 
L 115.314838 268.252009 
L 115.618607 268.252009 
L 115.618607 268.022965 
L 116.128206 268.022965 
L 116.128206 267.79392 
L 116.624364 267.79392 
L 116.624364 267.564875 
L 117.028061 267.564875 
L 117.028061 267.335831 
L 117.305581 267.335831 
L 117.305581 267.106786 
L 117.423276 267.106786 
L 117.423276 266.877741 
L 117.962989 266.877741 
L 117.962989 266.648696 
L 118.413586 266.648696 
L 118.413586 266.419652 
L 118.889854 266.419652 
L 118.889854 266.190607 
L 119.738639 266.190607 
L 119.738639 265.732518 
L 120.28394 265.732518 
L 120.28394 265.503473 
L 120.715645 265.503473 
L 120.715645 265.274428 
L 121.073351 265.274428 
L 121.073351 265.045384 
L 122.379802 265.045384 
L 122.379802 264.816339 
L 124.535287 264.816339 
L 124.535287 264.587294 
L 125.089773 264.587294 
L 125.089773 264.358249 
L 129.125437 264.358249 
L 129.125437 264.129205 
L 129.622688 264.129205 
L 129.622688 263.90016 
L 134.031824 263.90016 
L 134.031824 263.671115 
L 134.240933 263.671115 
L 134.240933 263.442071 
L 135.252969 263.442071 
L 135.252969 263.213026 
L 141.825656 263.213026 
L 141.825656 262.983981 
L 146.006223 262.983981 
L 146.006223 262.754936 
L 149.847944 262.754936 
L 149.847944 262.525892 
L 157.3353 262.525892 
L 157.3353 262.296847 
L 158.638786 262.296847 
L 158.638786 262.067802 
L 159.857774 262.067802 
L 159.939564 261.609713 
L 160.126341 261.609713 
L 160.126341 261.380668 
L 160.577441 261.380668 
L 160.577441 261.151624 
L 160.886507 261.151624 
L 160.886507 260.922579 
L 161.037232 260.922579 
L 161.037232 260.693534 
L 161.31236 260.693534 
L 161.384298 260.235445 
L 161.669327 260.235445 
L 161.725076 259.777355 
L 162.208671 259.777355 
L 162.302476 258.861176 
L 162.435167 258.861176 
L 162.506504 257.944998 
L 162.648372 257.944998 
L 162.754075 257.257864 
L 162.778654 257.257864 
L 162.883629 256.799774 
L 162.918491 256.799774 
L 162.918491 256.570729 
L 163.129762 256.570729 
L 163.184786 255.654551 
L 163.243074 255.654551 
L 163.325057 255.196461 
L 163.365915 255.196461 
L 163.433814 254.509327 
L 163.491337 254.509327 
L 163.585698 254.051238 
L 163.64611 254.051238 
L 163.65616 253.593148 
L 163.832826 253.593148 
L 163.842777 253.135059 
L 164.09639 253.135059 
L 164.194282 251.989835 
L 164.291668 251.989835 
L 164.391772 251.073656 
L 164.507358 251.073656 
L 164.561694 250.386522 
L 164.669899 250.386522 
L 164.70794 249.928433 
L 164.786947 249.928433 
L 164.897003 248.32512 
L 164.940845 248.32512 
L 165.000183 247.637986 
L 165.065549 247.637986 
L 165.084184 247.179896 
L 165.260297 247.179896 
L 165.30637 246.721807 
L 165.55626 246.721807 
L 165.652884 245.576584 
L 165.701011 245.576584 
L 165.701011 244.889449 
L 165.853599 244.889449 
L 165.936849 243.744226 
L 166.066931 243.744226 
L 166.081656 243.286136 
L 166.219513 243.286136 
L 166.286609 242.369958 
L 166.353466 242.369958 
L 166.446091 240.995689 
L 166.587046 240.995689 
L 166.632844 240.5376 
L 166.73264 240.5376 
L 166.73264 240.079511 
L 166.854526 240.079511 
L 166.854526 239.850466 
L 167.054068 239.850466 
L 167.112684 239.392376 
L 167.444174 239.392376 
L 167.444174 239.163332 
L 168.224581 239.163332 
L 168.224581 238.934287 
L 168.337202 238.934287 
L 168.337202 238.705242 
L 169.0218 238.705242 
L 169.0218 238.476198 
L 170.853378 238.476198 
L 170.853378 238.247153 
L 173.078448 238.247153 
L 173.078448 238.018108 
L 173.203859 238.018108 
L 173.302386 237.560019 
L 173.44424 237.560019 
L 173.545479 237.101929 
L 173.679622 237.101929 
L 173.722818 236.64384 
L 174.383751 236.64384 
L 174.406459 236.185751 
L 174.497017 236.185751 
L 174.538378 235.727661 
L 174.801324 235.727661 
L 174.801324 235.498616 
L 174.989276 235.498616 
L 175.029569 235.040527 
L 175.113541 235.040527 
L 175.142661 234.582438 
L 175.751039 234.582438 
L 175.756321 234.124348 
L 176.061866 234.124348 
L 176.061866 233.895304 
L 176.203345 233.895304 
L 176.203345 233.666259 
L 176.693659 233.666259 
L 176.747173 233.208169 
L 177.233457 233.208169 
L 177.233457 232.979125 
L 177.421282 232.979125 
L 177.421282 232.75008 
L 177.705899 232.75008 
L 177.705899 232.521035 
L 178.073625 232.521035 
L 178.073625 232.291991 
L 178.702597 232.291991 
L 178.792684 231.833901 
L 178.97454 231.833901 
L 178.97454 231.604856 
L 179.086945 231.604856 
L 179.086945 231.375812 
L 179.659149 231.375812 
L 179.659149 231.146767 
L 180.414768 231.146767 
L 180.487455 230.459633 
L 180.732242 230.459633 
L 180.788903 229.772499 
L 181.080291 229.772499 
L 181.18742 229.314409 
L 181.390733 229.314409 
L 181.390733 229.085365 
L 181.729479 229.085365 
L 181.75125 228.627275 
L 182.281259 228.627275 
L 182.281259 228.398231 
L 182.538312 228.398231 
L 182.538312 228.169186 
L 182.87889 228.169186 
L 182.87889 227.940141 
L 183.52113 227.940141 
L 183.52113 227.711096 
L 183.651154 227.711096 
L 183.651154 227.482052 
L 184.559054 227.482052 
L 184.559054 227.253007 
L 190.16083 227.253007 
L 190.16083 227.023962 
L 190.297837 227.023962 
L 190.297837 226.794918 
L 191.201295 226.794918 
L 191.201295 226.565873 
L 191.377048 226.565873 
L 191.377048 226.336828 
L 195.952387 226.336828 
L 195.952387 226.107784 
L 196.169511 226.107784 
L 196.169511 225.878739 
L 196.625429 225.878739 
L 196.625429 225.649694 
L 197.857702 225.649694 
L 197.857702 225.420649 
L 198.041104 225.420649 
L 198.041104 225.191605 
L 198.56093 225.191605 
L 198.56093 224.96256 
L 205.509398 224.96256 
L 205.571554 224.504471 
L 205.696328 224.504471 
L 205.769655 222.672113 
L 205.819212 222.672113 
L 205.913685 220.381666 
L 205.943067 220.381666 
L 206.034458 218.778353 
L 206.068221 218.778353 
L 206.173339 215.571727 
L 206.236477 215.571727 
L 206.236477 215.342682 
L 207.73079 215.342682 
L 207.832158 213.052235 
L 207.848787 213.052235 
L 207.940937 210.990833 
L 207.971766 210.990833 
L 208.048142 209.158475 
L 208.095208 209.158475 
L 208.18365 206.638984 
L 208.209381 206.638984 
L 208.228186 205.951849 
L 210.182154 205.951849 
L 210.272572 205.49376 
L 210.412829 205.49376 
L 210.412829 205.264715 
L 210.689694 205.264715 
L 210.689694 205.035671 
L 211.967539 205.035671 
L 211.967539 204.806626 
L 212.988316 204.806626 
L 212.988316 204.577581 
L 214.05654 204.577581 
L 214.05654 204.348536 
L 214.207827 204.348536 
L 214.207827 204.119492 
L 214.359264 204.119492 
L 214.359264 203.890447 
L 216.316368 203.890447 
L 216.423661 200.225732 
L 216.450187 200.225732 
L 216.560141 196.102927 
L 216.58768 196.102927 
L 216.633623 194.270569 
L 216.800597 194.270569 
L 216.800597 194.041525 
L 221.570798 194.041525 
L 221.570798 193.81248 
L 226.289916 193.81248 
L 226.289916 193.583435 
L 230.741723 193.583435 
L 230.741723 193.354391 
L 232.799214 193.354391 
L 232.799214 193.125346 
L 235.748466 193.125346 
L 235.748466 192.896301 
L 238.86259 192.896301 
L 238.86259 192.667256 
L 243.508746 192.667256 
L 243.56398 192.209167 
L 244.092323 192.209167 
L 244.171618 191.751078 
L 246.219003 191.751078 
L 246.219003 191.522033 
L 251.543229 191.522033 
L 251.570807 191.063944 
L 253.897539 191.063944 
L 253.897539 190.834899 
L 254.126173 190.834899 
L 254.126173 190.605854 
L 260.826887 190.605854 
L 260.826887 190.376809 
L 265.676247 190.376809 
L 265.676247 190.147765 
L 267.901286 190.147765 
L 267.923384 189.689675 
L 268.067026 189.689675 
L 268.11887 189.231586 
L 273.176954 189.231586 
L 273.176954 189.002541 
L 281.700713 188.926193 
L 281.700713 188.849845 
L 284.338263 188.773496 
L 284.429383 188.086362 
L 287.780648 188.010014 
L 287.780648 187.933666 
L 291.351308 187.933666 
L 291.351308 187.704621 
L 298.875123 187.628273 
L 298.875123 187.551925 
L 300.009553 187.551925 
L 300.009553 187.32288 
L 300.539233 187.32288 
L 300.539233 187.093835 
L 306.973635 187.093835 
L 306.973635 186.941139 
L 318.794247 186.864791 
L 318.794247 186.712094 
L 360.8064 186.712094 
L 360.8064 186.712094 
" style="fill: none; stroke: #000080; stroke-width: 1.5; stroke-linecap: square"/>
   </g>
   <g id="line2d_36">
    <defs>
     <path id="m685e428e14" d="M 0 6 
C 1.591219 6 3.117479 5.367802 4.242641 4.242641 
C 5.367802 3.117479 6 1.591219 6 0 
C 6 -1.591219 5.367802 -3.117479 4.242641 -4.242641 
C 3.117479 -5.367802 1.591219 -6 0 -6 
C -1.591219 -6 -3.117479 -5.367802 -4.242641 -4.242641 
C -5.367802 -3.117479 -6 -1.591219 -6 0 
C -6 1.591219 -5.367802 3.117479 -4.242641 4.242641 
C -3.117479 5.367802 -1.591219 6 0 6 
z
" style="stroke: #000080; stroke-width: 1.5"/>
    </defs>
    <g>
     <use xlink:href="#m685e428e14" x="112.283321" y="272.374814" style="fill-opacity: 0; stroke: #000080; stroke-width: 1.5"/>
     <use xlink:href="#m685e428e14" x="176.203345" y="233.666259" style="fill-opacity: 0; stroke: #000080; stroke-width: 1.5"/>
     <use xlink:href="#m685e428e14" x="254.126173" y="190.605854" style="fill-opacity: 0; stroke: #000080; stroke-width: 1.5"/>
     <use xlink:href="#m685e428e14" x="318.794247" y="186.712094" style="fill-opacity: 0; stroke: #000080; stroke-width: 1.5"/>
     <use xlink:href="#m685e428e14" x="318.794247" y="186.712094" style="fill-opacity: 0; stroke: #000080; stroke-width: 1.5"/>
     <use xlink:href="#m685e428e14" x="360.8064" y="186.712094" style="fill-opacity: 0; stroke: #000080; stroke-width: 1.5"/>
    </g>
   </g>
   <g id="line2d_37">
    <path style="fill: none; stroke: #000080; stroke-width: 1.5; stroke-linecap: square"/>
    <g/>
   </g>
   <g id="line2d_38">
    <path d="M 274.176047 189.002541 
" clip-path="url(#pd2675768fc)" style="fill: none; stroke: #000080; stroke-width: 1.5; stroke-linecap: square"/>
    <defs>
     <path id="m19b7ac424e" d="M -12 12 
L 12 -12 
M -12 -12 
L 12 12 
" style="stroke: #000080"/>
    </defs>
    <g clip-path="url(#pd2675768fc)">
     <use xlink:href="#m19b7ac424e" x="274.176047" y="189.002541" style="fill: #000080; stroke: #000080"/>
    </g>
   </g>
   <g id="line2d_39">
    <defs>
     <path id="m6192141bea" d="M 0 1.5 
C 0.397805 1.5 0.77937 1.341951 1.06066 1.06066 
C 1.341951 0.77937 1.5 0.397805 1.5 0 
C 1.5 -0.397805 1.341951 -0.77937 1.06066 -1.06066 
C 0.77937 -1.341951 0.397805 -1.5 0 -1.5 
C -0.397805 -1.5 -0.77937 -1.341951 -1.06066 -1.06066 
C -1.341951 -0.77937 -1.5 -0.397805 -1.5 0 
C -1.5 0.397805 -1.341951 0.77937 -1.06066 1.06066 
C -0.77937 1.341951 -0.397805 1.5 0 1.5 
z
" style="stroke: #ff00ff"/>
    </defs>
    <g>
     <use xlink:href="#m6192141bea" x="365.4925" y="132.886588" style="fill: #ff00ff; stroke: #ff00ff"/>
     <use xlink:href="#m6192141bea" x="365.4925" y="132.886588" style="fill: #ff00ff; stroke: #ff00ff"/>
    </g>
   </g>
   <g id="line2d_40">
    <path d="M 1.245626 298.944 
L 1.245626 291.385525 
L 14.2848 291.385525 
L 14.2848 290.774739 
L 27.323974 290.698391 
L 27.323974 290.316649 
L 37.851216 290.240301 
L 37.851216 290.087605 
L 40.363149 290.087605 
L 40.363149 289.85856 
L 42.578831 289.85856 
L 42.578831 289.629515 
L 46.353758 289.553167 
L 46.353758 289.476819 
L 47.990577 289.476819 
L 47.990577 289.324122 
L 50.890391 289.247774 
L 50.890391 289.171426 
L 65.227428 289.095078 
L 65.227428 289.018729 
L 68.65718 288.942381 
L 68.65718 288.866033 
L 72.854856 288.789685 
L 72.854856 288.713336 
L 74.836851 288.713336 
L 74.836851 288.56064 
L 75.93298 288.56064 
L 75.93298 288.407944 
L 77.950435 288.331595 
L 77.950435 288.255247 
L 79.480672 288.178899 
L 79.480672 288.102551 
L 81.166416 288.026202 
L 81.166416 287.949854 
L 83.441723 287.873506 
L 83.441723 287.720809 
L 85.038813 287.644461 
L 85.038813 287.568113 
L 87.1081 287.491765 
L 87.1081 287.415416 
L 88.063207 287.339068 
L 88.063207 287.26272 
L 88.793844 287.186372 
L 88.793844 287.110024 
L 90.175129 287.033675 
L 90.175129 286.957327 
L 91.46189 286.880979 
L 91.46189 286.804631 
L 93.798104 286.728282 
L 93.798104 286.651934 
L 94.07074 286.575586 
L 94.07074 286.499238 
L 94.472426 286.499238 
L 94.472426 286.346541 
L 95.250946 286.270193 
L 95.250946 286.193845 
L 96.361458 286.117496 
L 96.361458 286.041148 
L 96.83473 285.9648 
L 96.83473 285.888452 
L 97.18203 285.812104 
L 97.18203 285.735755 
L 97.857967 285.659407 
L 97.857967 285.583059 
L 98.403267 285.506711 
L 98.510456 284.819576 
L 99.550033 284.743228 
L 99.650899 284.514184 
L 99.751228 284.514184 
L 99.851024 284.285139 
L 100.049042 284.208791 
L 100.147275 284.056094 
L 100.342215 283.979746 
L 100.342215 283.903398 
L 100.630889 283.903398 
L 100.726138 283.598005 
L 101.287718 283.521656 
L 101.287718 283.063567 
L 102.275664 282.987219 
L 102.362957 282.681826 
L 102.96292 282.605478 
L 102.96292 282.452781 
L 103.130882 282.452781 
L 103.130882 282.300085 
L 103.380045 282.223736 
L 103.380045 282.147388 
L 104.266406 282.147388 
L 104.266406 281.994692 
L 104.42317 281.994692 
L 104.42317 281.841995 
L 104.578638 281.841995 
L 104.655893 281.383906 
L 104.732832 281.383906 
L 104.809458 281.078513 
L 104.961779 281.078513 
L 104.961779 280.849468 
L 105.112877 280.849468 
L 105.187973 280.544075 
L 105.705415 280.467727 
L 105.705415 280.162334 
L 105.922892 280.162334 
L 105.922892 280.009638 
L 106.350446 279.933289 
L 106.42077 279.093459 
L 106.490831 279.093459 
L 106.490831 278.482673 
L 106.974091 278.406325 
L 106.974091 278.329976 
L 107.839908 278.253628 
L 107.904887 278.100932 
L 108.29012 278.024584 
L 108.353566 277.719191 
L 108.416798 277.719191 
L 108.479818 276.573967 
L 108.667622 276.497619 
L 108.729809 276.192226 
L 108.85357 276.192226 
L 108.85357 276.039529 
L 109.037698 276.039529 
L 109.037698 275.886833 
L 109.22004 275.810485 
L 109.22004 275.657788 
L 109.460447 275.58144 
L 109.520071 275.199699 
L 110.163764 275.123351 
L 110.221204 274.970654 
L 110.392479 274.970654 
L 110.392479 274.436216 
L 110.562208 274.436216 
L 110.562208 274.28352 
L 110.786158 274.207172 
L 110.897141 273.825431 
L 111.062397 273.749082 
L 111.117162 273.290993 
L 111.496112 273.290993 
L 111.496112 272.9856 
L 111.709277 272.909252 
L 111.762192 272.603859 
L 111.920053 272.603859 
L 112.024561 272.069421 
L 112.487797 271.993073 
L 112.589207 271.382287 
L 112.690074 271.382287 
L 112.790402 270.847849 
L 112.989468 270.771501 
L 112.989468 270.695153 
L 113.235374 270.618805 
L 113.284172 270.084367 
L 113.429811 270.084367 
L 113.52628 269.778974 
L 113.954374 269.778974 
L 113.954374 269.549929 
L 114.188061 269.473581 
L 114.234452 269.244536 
L 114.464707 269.244536 
L 114.464707 268.939144 
L 114.961559 268.862795 
L 115.050503 268.633751 
L 115.314838 268.557402 
L 115.402131 268.404706 
L 115.704505 268.328358 
L 115.704505 268.252009 
L 116.002095 268.175661 
L 116.002095 268.099313 
L 116.907859 268.022965 
L 116.907859 267.946616 
L 117.305581 267.870268 
L 117.305581 267.79392 
L 117.733577 267.717572 
L 117.733577 267.641224 
L 118.339232 267.564875 
L 118.413586 267.335831 
L 118.634901 267.259482 
L 118.634901 267.183134 
L 119.704027 267.106786 
L 119.807672 266.954089 
L 119.979155 266.877741 
L 120.013265 266.725045 
L 120.616896 266.648696 
L 120.682786 266.496 
L 121.008818 266.419652 
L 121.008818 266.343304 
L 121.424383 266.266955 
L 121.424383 266.114259 
L 121.954321 266.037911 
L 122.015696 265.885214 
L 122.588988 265.808866 
L 122.588988 265.732518 
L 123.317644 265.656169 
L 123.317644 265.579821 
L 123.657621 265.579821 
L 123.657621 265.427125 
L 123.825333 265.350776 
L 123.908631 265.19808 
L 124.454723 265.121732 
L 124.481616 264.892687 
L 124.615507 264.892687 
L 124.615507 264.739991 
L 125.373824 264.663642 
L 125.373824 264.587294 
L 125.929373 264.510946 
L 125.929373 264.434598 
L 126.151997 264.358249 
L 126.151997 264.281901 
L 126.733095 264.205553 
L 126.733095 264.129205 
L 127.273627 264.129205 
L 127.319904 263.90016 
L 127.731351 263.823812 
L 127.731351 263.747464 
L 128.310214 263.671115 
L 128.310214 263.594767 
L 129.250988 263.518419 
L 129.250988 263.365722 
L 129.86647 263.289374 
L 129.86647 263.213026 
L 130.540507 263.136678 
L 130.540507 262.983981 
L 130.811181 262.907633 
L 130.811181 262.831285 
L 131.582177 262.754936 
L 131.582177 262.678588 
L 132.340519 262.60224 
L 132.446401 262.373195 
L 133.069471 262.296847 
L 133.086488 262.144151 
L 133.373435 262.067802 
L 133.373435 261.915106 
L 134.22493 261.838758 
L 134.22493 261.762409 
L 134.526683 261.686061 
L 134.526683 261.533365 
L 134.652304 261.533365 
L 134.7148 261.30432 
L 135.131309 261.227972 
L 135.14656 261.075275 
L 136.068734 260.998927 
L 136.170066 260.769882 
L 136.470828 260.693534 
L 136.470828 260.617186 
L 136.892314 260.540838 
L 136.989317 260.311793 
L 137.774373 260.235445 
L 137.774373 260.159096 
L 137.985297 260.082748 
L 138.089879 259.930052 
L 138.348817 259.853704 
L 138.348817 259.777355 
L 138.667556 259.701007 
L 138.667556 259.624659 
L 138.881255 259.548311 
L 138.881255 259.395614 
L 139.532323 259.395614 
L 139.532323 259.242918 
L 139.77227 259.166569 
L 139.77227 259.090221 
L 140.622984 259.013873 
L 140.622984 258.937525 
L 141.095547 258.861176 
L 141.095547 258.784828 
L 141.250467 258.784828 
L 141.360348 258.479435 
L 141.879022 258.403087 
L 141.879022 258.326739 
L 142.185595 258.250391 
L 142.185595 258.174042 
L 142.352625 258.097694 
L 142.383778 257.868649 
L 142.631166 257.792301 
L 142.631166 257.639605 
L 142.915733 257.563256 
L 142.915733 257.486908 
L 143.225848 257.41056 
L 143.225848 257.334212 
L 143.705836 257.257864 
L 143.705836 257.181515 
L 144.704081 257.105167 
L 144.704081 257.028819 
L 150.939069 256.952471 
L 150.939069 256.876122 
L 153.696309 256.799774 
L 153.696309 256.723426 
L 159.787973 256.647078 
L 159.787973 256.570729 
L 160.87098 256.494381 
L 160.979404 256.341685 
L 161.418277 256.265336 
L 161.418277 256.188988 
L 162.270058 256.11264 
L 162.374317 255.883595 
L 162.581118 255.807247 
L 162.613005 255.654551 
L 162.918491 255.578202 
L 162.918491 255.501854 
L 163.256763 255.425506 
L 163.355708 255.196461 
L 163.68962 255.120113 
L 163.68962 255.043765 
L 163.95848 254.967416 
L 163.95848 254.891068 
L 164.6286 254.81472 
L 164.6286 254.738372 
L 164.990826 254.662024 
L 165.053116 254.509327 
L 165.595573 254.432979 
L 165.595573 254.356631 
L 166.228279 254.280282 
L 166.295343 254.127586 
L 166.865825 254.051238 
L 166.865825 253.974889 
L 167.400311 253.898541 
L 167.509777 253.745845 
L 168.381541 253.669496 
L 168.381541 253.593148 
L 168.978946 253.5168 
L 168.978946 253.440452 
L 169.234617 253.364104 
L 169.234617 253.287755 
L 169.694508 253.211407 
L 169.781767 253.058711 
L 170.207364 252.982362 
L 170.207364 252.906014 
L 170.96952 252.829666 
L 170.96952 252.753318 
L 171.828218 252.676969 
L 171.828218 252.600621 
L 172.286746 252.524273 
L 172.286746 252.447925 
L 174.374282 252.371576 
L 174.374282 252.295228 
L 174.803176 252.21888 
L 174.842022 252.066184 
L 175.246037 251.989835 
L 175.246037 251.913487 
L 175.675175 251.837139 
L 175.728136 251.684442 
L 176.365936 251.608094 
L 176.365936 251.531746 
L 176.707052 251.455398 
L 176.730466 251.302701 
L 176.938239 251.226353 
L 177.017418 251.073656 
L 177.226946 250.997308 
L 177.274095 250.844612 
L 177.650274 250.768264 
L 177.650274 250.691915 
L 177.878085 250.615567 
L 177.9252 250.462871 
L 178.053383 250.386522 
L 178.053383 250.310174 
L 178.311769 250.233826 
L 178.311769 250.157478 
L 178.849516 250.081129 
L 178.935931 249.852085 
L 179.007148 249.775736 
L 179.007148 249.699388 
L 179.145837 249.62304 
L 179.186952 249.470344 
L 179.292266 249.393995 
L 179.402794 249.164951 
L 179.411492 249.164951 
L 179.411492 248.935906 
L 179.807328 248.859558 
L 179.864011 248.630513 
L 180.028834 248.554165 
L 180.028834 248.477816 
L 180.41889 248.401468 
L 180.462801 248.248772 
L 180.768686 248.172424 
L 180.768686 248.019727 
L 181.137238 247.943379 
L 181.137238 247.867031 
L 181.362009 247.790682 
L 181.440244 247.561638 
L 181.835532 247.485289 
L 181.934654 247.179896 
L 182.297428 247.103548 
L 182.297428 246.950852 
L 182.63503 246.874504 
L 182.63503 246.721807 
L 182.768877 246.721807 
L 182.768877 246.569111 
L 183.009822 246.492762 
L 183.009822 246.416414 
L 183.270165 246.340066 
L 183.270165 246.263718 
L 183.428874 246.187369 
L 183.428874 246.034673 
L 183.639581 246.034673 
L 183.639581 245.881976 
L 183.958682 245.805628 
L 184.017773 245.652932 
L 184.100417 245.576584 
L 184.100417 245.500235 
L 185.014308 245.423887 
L 185.014308 245.347539 
L 186.78747 245.271191 
L 186.78747 245.194842 
L 187.485307 245.118494 
L 187.485307 245.042146 
L 187.947603 244.965798 
L 188.048608 244.813101 
L 188.745262 244.736753 
L 188.835059 244.584056 
L 190.695814 244.507708 
L 190.695814 244.43136 
L 191.220647 244.355012 
L 191.320955 244.125967 
L 191.375513 244.125967 
L 191.416903 243.896922 
L 191.56789 243.820574 
L 191.661079 243.667878 
L 191.692039 243.667878 
L 191.745534 243.286136 
L 191.852068 243.209788 
L 191.931948 242.751699 
L 192.001843 242.675351 
L 192.075177 242.293609 
L 192.151171 242.293609 
L 192.247383 241.988216 
L 192.375875 241.911868 
L 192.426737 241.453779 
L 192.576342 241.377431 
L 192.685445 241.072038 
L 192.883366 240.995689 
L 192.993524 240.5376 
L 193.025181 240.461252 
L 193.090436 240.079511 
L 193.177791 240.003162 
L 193.238351 239.545073 
L 193.369935 239.468725 
L 193.462872 239.086984 
L 193.482777 239.086984 
L 193.584032 238.781591 
L 193.645341 238.705242 
L 193.741668 238.323501 
L 193.89531 238.323501 
L 193.985026 237.94176 
L 194.045709 237.865412 
L 194.080962 237.636367 
L 194.220658 237.560019 
L 194.289791 237.178278 
L 194.477467 237.101929 
L 194.579993 236.720188 
L 194.69869 236.720188 
L 194.786584 236.491144 
L 194.823033 236.414795 
L 194.86706 236.262099 
L 194.97066 236.185751 
L 195.064865 235.804009 
L 195.110218 235.804009 
L 195.110218 235.574965 
L 195.353379 235.498616 
L 195.41105 235.193224 
L 195.688852 235.116875 
L 195.688852 235.040527 
L 196.133796 234.964179 
L 196.133796 234.887831 
L 197.293156 234.811482 
L 197.293156 234.735134 
L 199.614917 234.658786 
L 199.614917 234.582438 
L 200.498987 234.506089 
L 200.498987 234.429741 
L 201.018055 234.353393 
L 201.018055 234.277045 
L 202.507655 234.200696 
L 202.507655 234.124348 
L 202.84972 234.048 
L 202.84972 233.971652 
L 203.317907 233.895304 
L 203.317907 233.818955 
L 203.857106 233.742607 
L 203.962723 233.589911 
L 204.499286 233.513562 
L 204.596809 233.360866 
L 205.434684 233.284518 
L 205.434684 233.208169 
L 205.719967 233.131821 
L 205.719967 233.055473 
L 205.897382 232.979125 
L 205.928559 232.826428 
L 206.193943 232.75008 
L 206.193943 232.673732 
L 206.681455 232.597384 
L 206.749353 232.444687 
L 210.747322 232.368339 
L 210.747322 232.291991 
L 212.204849 232.215642 
L 212.260299 232.062946 
L 212.404109 231.986598 
L 212.461728 231.833901 
L 212.674135 231.757553 
L 212.776495 231.604856 
L 213.278185 231.528508 
L 213.278185 231.45216 
L 215.146455 231.375812 
L 215.21918 231.070419 
L 215.575892 230.994071 
L 215.684529 230.765026 
L 215.758567 230.688678 
L 215.784998 230.535981 
L 216.03695 230.459633 
L 216.03695 230.383285 
L 216.3127 230.306936 
L 216.382889 230.15424 
L 216.52047 230.077892 
L 216.52047 229.925195 
L 216.632421 229.925195 
L 216.743111 229.619802 
L 216.894502 229.543454 
L 216.989711 229.314409 
L 217.185117 229.238061 
L 217.223801 229.009016 
L 217.376396 228.932668 
L 217.427755 228.703624 
L 217.576234 228.627275 
L 217.603849 228.474579 
L 217.710119 228.398231 
L 217.785661 228.092838 
L 218.077409 228.016489 
L 218.179753 227.787445 
L 218.342208 227.711096 
L 218.411612 227.405704 
L 218.791507 227.329355 
L 218.791507 227.253007 
L 220.987426 227.176659 
L 220.987426 227.100311 
L 221.269396 227.023962 
L 221.312259 226.871266 
L 222.085403 226.794918 
L 222.11028 226.642221 
L 226.702352 226.565873 
L 226.702352 226.413176 
L 227.291515 226.336828 
L 227.388826 226.031435 
L 227.929843 225.955087 
L 228.03933 225.726042 
L 228.127202 225.649694 
L 228.127202 225.420649 
L 228.287927 225.420649 
L 228.287927 225.267953 
L 228.55998 225.191605 
L 228.657835 224.96256 
L 228.722439 224.886212 
L 228.818931 224.733515 
L 228.941406 224.657167 
L 229.037613 224.275426 
L 229.112389 224.275426 
L 229.200229 224.046381 
L 229.35972 223.970033 
L 229.442156 223.740988 
L 229.602634 223.66464 
L 229.677406 223.359247 
L 229.796823 223.282899 
L 229.796823 223.053854 
L 230.340201 222.977506 
L 230.340201 222.901158 
L 230.789746 222.824809 
L 230.789746 222.748461 
L 231.070969 222.672113 
L 231.070969 222.595765 
L 231.221142 222.519416 
L 231.221142 222.443068 
L 231.889815 222.36672 
L 231.966687 222.214024 
L 232.506599 222.137675 
L 232.506599 222.061327 
L 233.592468 221.984979 
L 233.592468 221.908631 
L 234.735701 221.832282 
L 234.836246 221.679586 
L 235.220758 221.603238 
L 235.220758 221.526889 
L 242.255167 221.450541 
L 242.302175 221.297845 
L 243.017805 221.221496 
L 243.07612 221.0688 
L 243.423707 220.992452 
L 243.423707 220.916104 
L 243.769346 220.839755 
L 243.862785 220.687059 
L 244.042915 220.610711 
L 244.119954 220.458014 
L 244.464695 220.381666 
L 244.571503 220.076273 
L 244.717917 219.999925 
L 244.81748 219.694532 
L 244.889632 219.618184 
L 244.987094 219.389139 
L 245.110179 219.312791 
L 245.146701 219.007398 
L 245.296146 218.931049 
L 245.296146 218.778353 
L 245.510753 218.778353 
L 245.510753 218.47296 
L 245.650148 218.396612 
L 245.650148 218.167567 
L 245.922878 218.091219 
L 245.927058 217.938522 
L 246.080299 217.862174 
L 246.183339 217.633129 
L 246.305983 217.556781 
L 246.416686 217.327736 
L 246.588155 217.251388 
L 246.691458 216.945995 
L 246.79206 216.945995 
L 246.79206 216.793299 
L 247.006861 216.716951 
L 247.046171 216.411558 
L 247.219198 216.335209 
L 247.3091 216.182513 
L 252.269214 216.106165 
L 252.269214 216.029816 
L 255.036648 215.953468 
L 255.125623 215.724424 
L 255.510816 215.648075 
L 255.510816 215.571727 
L 255.687418 215.495379 
L 255.703772 215.037289 
L 255.947343 214.960941 
L 255.947343 214.884593 
L 256.081041 214.808245 
L 256.173624 214.5792 
L 256.331102 214.502852 
L 256.438 214.121111 
L 256.606745 214.044762 
L 256.702784 213.815718 
L 256.778069 213.739369 
L 256.778069 213.663021 
L 256.951302 213.586673 
L 257.037675 213.204932 
L 257.16136 213.128584 
L 257.16136 213.052235 
L 257.305511 212.975887 
L 257.305511 212.823191 
L 257.45996 212.746842 
L 257.45996 212.670494 
L 257.593971 212.594146 
L 257.593971 212.441449 
L 257.716703 212.365101 
L 257.716703 212.288753 
L 257.992793 212.212405 
L 258.043306 211.907012 
L 258.975984 211.830664 
L 258.975984 211.754315 
L 259.222597 211.677967 
L 259.222597 211.601619 
L 259.877815 211.525271 
L 259.877815 211.448922 
L 260.34074 211.372574 
L 260.34074 211.296226 
L 261.683921 211.219878 
L 261.697255 210.838136 
L 261.940696 210.761788 
L 261.978114 210.303699 
L 262.137929 210.227351 
L 262.230487 209.234824 
L 262.39135 209.158475 
L 262.467815 208.242296 
L 262.835413 208.165948 
L 262.912786 207.020725 
L 263.083282 206.944376 
L 263.148525 205.875501 
L 263.218528 205.799153 
L 263.328664 204.882974 
L 263.337419 204.806626 
L 263.43999 203.966795 
L 263.469394 203.890447 
L 263.568606 203.585054 
L 263.627642 203.508706 
L 263.733171 203.203313 
L 263.939082 203.126965 
L 263.939082 203.050616 
L 264.459644 202.974268 
L 264.53446 202.592527 
L 264.706702 202.516179 
L 264.800899 202.363482 
L 264.895843 202.287134 
L 264.928011 202.134438 
L 265.027107 202.058089 
L 265.027107 201.981741 
L 265.487023 201.905393 
L 265.487023 201.829045 
L 265.666092 201.752696 
L 265.679306 201.6 
L 265.919471 201.523652 
L 266.012664 201.218259 
L 268.533087 201.141911 
L 268.559844 200.836518 
L 268.840699 200.760169 
L 268.840699 200.683821 
L 268.957617 200.607473 
L 268.973102 200.454776 
L 269.383156 200.378428 
L 269.394936 200.149384 
L 269.611747 200.073035 
L 269.697438 199.843991 
L 269.77504 199.767642 
L 269.826266 199.538598 
L 269.973749 199.462249 
L 270.039655 199.309553 
L 270.092959 199.233205 
L 270.154477 198.927812 
L 270.282792 198.851464 
L 270.393787 198.393374 
L 270.467933 198.317026 
L 270.55803 198.011633 
L 270.599755 197.935285 
L 270.702012 197.629892 
L 270.766141 197.553544 
L 270.838061 197.095454 
L 270.887205 197.019106 
L 270.975833 196.331972 
L 271.045158 196.255624 
L 271.151702 195.492141 
L 271.1576 195.415793 
L 271.263127 194.652311 
L 271.282389 194.575962 
L 271.389052 193.888828 
L 271.417489 193.81248 
L 271.524626 192.972649 
L 271.551323 192.896301 
L 271.656885 192.056471 
L 271.686402 191.980122 
L 271.787762 191.140292 
L 271.81893 191.063944 
L 271.926779 190.224113 
L 271.956384 190.147765 
L 272.050354 189.842372 
L 272.10324 189.766024 
L 272.211951 188.926193 
L 272.240569 188.849845 
L 272.314888 188.391755 
L 272.356668 188.315407 
L 272.466349 187.628273 
L 272.503282 187.551925 
L 272.603843 186.712094 
L 272.649415 186.635746 
L 272.750275 186.02496 
L 272.80707 185.948612 
L 272.910985 185.261478 
L 272.967488 185.185129 
L 273.069455 184.650692 
L 273.122829 184.574344 
L 273.182082 184.345299 
L 274.8537 184.268951 
L 274.934574 184.116254 
L 274.985466 184.039906 
L 275.091624 183.810861 
L 275.109113 183.734513 
L 275.19691 183.505468 
L 275.305117 183.42912 
L 275.337527 183.200075 
L 275.432724 183.123727 
L 275.472194 182.818334 
L 275.556796 182.741986 
L 275.666331 182.436593 
L 275.697517 182.360245 
L 275.776026 182.054852 
L 275.902951 181.978504 
L 275.902951 181.902155 
L 276.04901 181.825807 
L 276.14341 181.673111 
L 276.237356 181.596762 
L 276.343949 181.291369 
L 276.748587 181.215021 
L 276.801859 180.985976 
L 276.973086 180.909628 
L 277.008566 180.680584 
L 277.638573 180.604235 
L 277.638573 180.527887 
L 278.79396 180.451539 
L 278.873966 180.222494 
L 279.545665 180.146146 
L 279.548132 179.993449 
L 281.276549 179.917101 
L 281.276549 179.840753 
L 281.483918 179.764405 
L 281.512776 179.53536 
L 282.187371 179.459012 
L 282.187371 179.382664 
L 282.922424 179.306315 
L 283.021377 179.000922 
L 283.07468 178.924574 
L 283.098144 178.771878 
L 283.242776 178.695529 
L 283.307523 178.390136 
L 283.401505 178.313788 
L 283.470921 178.161092 
L 283.623822 178.084744 
L 283.623822 178.008395 
L 283.921113 177.932047 
L 283.921113 177.855699 
L 285.55503 177.779351 
L 285.648416 177.626654 
L 285.957477 177.550306 
L 285.957477 177.473958 
L 286.253565 177.397609 
L 286.253565 177.321261 
L 286.624417 177.244913 
L 286.735516 176.481431 
L 286.748214 176.405082 
L 286.856094 175.259859 
L 286.863082 175.259859 
L 286.971351 173.809242 
L 286.977886 173.732894 
L 287.084371 171.900536 
L 287.096443 171.824188 
L 287.205221 169.686438 
L 287.216454 169.610089 
L 287.324443 167.85408 
L 287.334806 167.777732 
L 287.442158 165.487285 
L 287.45365 165.410936 
L 287.556198 163.044141 
L 287.569753 162.967793 
L 287.677946 161.288132 
L 287.682374 161.211784 
L 287.768482 159.608471 
L 287.801825 159.532122 
L 287.906918 158.157854 
L 287.924969 158.081506 
L 288.025934 157.012631 
L 288.057061 156.936282 
L 288.166497 155.791059 
L 288.176188 155.714711 
L 288.284109 154.264094 
L 288.300177 154.187746 
L 288.394621 153.347915 
L 288.419641 153.271567 
L 288.527169 152.355388 
L 288.543474 152.27904 
L 288.650865 151.133816 
L 288.678135 151.057468 
L 288.784763 150.293986 
L 288.805691 150.293986 
L 288.911372 149.301459 
L 288.942155 149.225111 
L 289.028421 148.614325 
L 289.097408 148.537976 
L 289.204996 148.003539 
L 289.253702 147.927191 
L 289.358061 147.545449 
L 290.335341 147.469101 
L 290.335341 147.392753 
L 291.790706 147.316405 
L 291.818728 147.163708 
L 292.183931 147.08736 
L 292.195624 146.934664 
L 292.537626 146.858315 
L 292.537626 146.781967 
L 293.121133 146.705619 
L 293.158027 146.476574 
L 293.80101 146.400226 
L 293.80101 146.323878 
L 294.394056 146.247529 
L 294.394056 146.171181 
L 295.577565 146.094833 
L 295.577565 146.018485 
L 295.889621 145.942136 
L 295.984701 145.713092 
L 296.052674 145.636744 
L 296.100341 145.255002 
L 296.53917 145.178654 
L 296.53917 145.102306 
L 296.753149 145.025958 
L 296.753149 144.949609 
L 297.33619 144.873261 
L 297.414134 144.720565 
L 297.477014 144.644216 
L 297.482281 144.49152 
L 297.739016 144.415172 
L 297.739016 144.338824 
L 297.965332 144.262475 
L 298.035683 144.109779 
L 298.381671 144.033431 
L 298.381671 143.957082 
L 298.750233 143.880734 
L 298.803069 143.651689 
L 299.625503 143.575341 
L 299.734511 143.422645 
L 300.224422 143.346296 
L 300.224422 143.269948 
L 304.971286 143.1936 
L 304.971286 143.117252 
L 305.459929 143.040904 
L 305.459929 142.964555 
L 305.645851 142.888207 
L 305.645851 142.811859 
L 306.060321 142.735511 
L 306.060321 142.659162 
L 308.918812 142.582814 
L 308.923438 142.430118 
L 310.178591 142.353769 
L 310.178591 142.277421 
L 310.401688 142.201073 
L 310.401688 142.124725 
L 311.126373 142.048376 
L 311.126373 141.972028 
L 311.375133 141.89568 
L 311.375133 141.819332 
L 311.979467 141.742984 
L 311.979467 141.666635 
L 312.883699 141.590287 
L 312.883699 141.513939 
L 313.564833 141.437591 
L 313.564833 141.361242 
L 314.305548 141.284894 
L 314.305548 141.208546 
L 317.131492 141.132198 
L 317.131492 141.055849 
L 317.476124 140.979501 
L 317.476124 140.903153 
L 317.954178 140.826805 
L 318.028144 140.59776 
L 318.356257 140.521412 
L 318.378189 140.368715 
L 318.587719 140.292367 
L 318.620346 140.139671 
L 322.237119 140.063322 
L 322.312645 139.910626 
L 322.815603 139.834278 
L 322.815603 139.757929 
L 323.319616 139.681581 
L 323.392784 139.528885 
L 323.455899 139.452536 
L 323.455899 139.376188 
L 323.948874 139.29984 
L 323.948874 139.223492 
L 325.672362 139.147144 
L 325.672362 139.070795 
L 325.849014 138.994447 
L 325.924099 138.765402 
L 326.362275 138.689054 
L 326.373942 138.536358 
L 327.044811 138.460009 
L 327.044811 138.383661 
L 327.514189 138.307313 
L 327.514189 138.230965 
L 328.628189 138.154616 
L 328.628189 138.078268 
L 329.37925 138.00192 
L 329.439509 137.849224 
L 330.568584 137.772875 
L 330.568584 137.696527 
L 330.973013 137.620179 
L 330.973013 137.543831 
L 331.221256 137.467482 
L 331.253658 137.314786 
L 331.673883 137.238438 
L 331.696875 137.009393 
L 333.426406 136.933045 
L 333.536703 136.780348 
L 333.850446 136.704 
L 333.872677 136.551304 
L 335.202904 136.474955 
L 335.202904 136.398607 
L 336.106508 136.322259 
L 336.212339 136.093214 
L 337.008054 136.016866 
L 337.008054 135.940518 
L 338.446445 135.864169 
L 338.446445 135.787821 
L 339.303812 135.711473 
L 339.303812 135.635125 
L 341.183313 135.558776 
L 341.183313 135.482428 
L 342.080768 135.40608 
L 342.080768 135.329732 
L 343.497789 135.253384 
L 343.497789 135.177035 
L 345.723328 135.100687 
L 345.723328 135.024339 
L 346.957849 134.947991 
L 346.957849 134.871642 
L 347.705881 134.795294 
L 347.705881 134.718946 
L 348.509484 134.642598 
L 348.509484 134.566249 
L 349.383847 134.489901 
L 349.383847 134.413553 
L 350.784831 134.337205 
L 350.784831 134.260856 
L 351.384642 134.184508 
L 351.384642 134.10816 
L 352.106249 134.031812 
L 352.106249 133.955464 
L 352.480109 133.879115 
L 352.480109 133.802767 
L 353.4335 133.726419 
L 353.4335 133.650071 
L 354.695355 133.573722 
L 354.695355 133.497374 
L 356.703242 133.421026 
L 356.703242 133.344678 
L 360.8064 133.268329 
L 360.8064 133.268329 
" style="fill: none; stroke: #ff00ff; stroke-width: 1.5; stroke-linecap: square"/>
   </g>
   <g id="line2d_41">
    <defs>
     <path id="m58a765ec0b" d="M -0 8.485281 
L 5.091169 0 
L 0 -8.485281 
L -5.091169 -0 
z
" style="stroke: #ff00ff; stroke-width: 1.5; stroke-linejoin: miter"/>
    </defs>
    <g>
     <use xlink:href="#m58a765ec0b" x="81.433251" y="287.873506" style="fill-opacity: 0; stroke: #ff00ff; stroke-width: 1.5; stroke-linejoin: miter"/>
     <use xlink:href="#m58a765ec0b" x="166.295343" y="254.127586" style="fill-opacity: 0; stroke: #ff00ff; stroke-width: 1.5; stroke-linejoin: miter"/>
     <use xlink:href="#m58a765ec0b" x="263.309786" y="205.341064" style="fill-opacity: 0; stroke: #ff00ff; stroke-width: 1.5; stroke-linejoin: miter"/>
     <use xlink:href="#m58a765ec0b" x="328.628189" y="138.078268" style="fill-opacity: 0; stroke: #ff00ff; stroke-width: 1.5; stroke-linejoin: miter"/>
     <use xlink:href="#m58a765ec0b" x="359.684578" y="133.268329" style="fill-opacity: 0; stroke: #ff00ff; stroke-width: 1.5; stroke-linejoin: miter"/>
     <use xlink:href="#m58a765ec0b" x="360.8064" y="133.268329" style="fill-opacity: 0; stroke: #ff00ff; stroke-width: 1.5; stroke-linejoin: miter"/>
    </g>
   </g>
   <g id="line2d_42">
    <path style="fill: none; stroke: #ff00ff; stroke-width: 1.5; stroke-linecap: square"/>
    <g/>
   </g>
   <g id="line2d_43">
    <path d="M 291.622038 147.316405 
" clip-path="url(#pd2675768fc)" style="fill: none; stroke: #ff00ff; stroke-width: 1.5; stroke-linecap: square"/>
    <defs>
     <path id="m24df58ffb5" d="M -12 12 
L 12 -12 
M -12 -12 
L 12 12 
" style="stroke: #ff00ff"/>
    </defs>
    <g clip-path="url(#pd2675768fc)">
     <use xlink:href="#m24df58ffb5" x="291.622038" y="147.316405" style="fill: #ff00ff; stroke: #ff00ff"/>
    </g>
   </g>
   <g id="line2d_44">
    <path d="M 360.8064 186.712094 
L 380.514816 293.10336 
" style="fill: none; stroke: #000080; stroke-width: 1.5; stroke-linecap: square"/>
    <g>
     <use xlink:href="#m685e428e14" x="360.8064" y="186.712094" style="fill-opacity: 0; stroke: #000080; stroke-width: 1.5"/>
     <use xlink:href="#m685e428e14" x="380.514816" y="293.10336" style="fill-opacity: 0; stroke: #000080; stroke-width: 1.5"/>
    </g>
   </g>
   <g id="line2d_45">
    <path d="M 360.8064 133.268329 
L 380.514816 152.928 
" style="fill: none; stroke: #ff00ff; stroke-width: 1.5; stroke-linecap: square"/>
    <g>
     <use xlink:href="#m58a765ec0b" x="360.8064" y="133.268329" style="fill-opacity: 0; stroke: #ff00ff; stroke-width: 1.5; stroke-linejoin: miter"/>
     <use xlink:href="#m58a765ec0b" x="380.514816" y="152.928" style="fill-opacity: 0; stroke: #ff00ff; stroke-width: 1.5; stroke-linejoin: miter"/>
    </g>
   </g>
   <g id="line2d_46">
    <path d="M 360.8064 298.944 
L 360.8064 6.912 
" style="fill: none; stroke: #000000; stroke-width: 1.5; stroke-linecap: square"/>
   </g>
   <g id="patch_3">
    <path d="M 57.6 298.944 
L 360.8064 298.944 
" style="fill: none; stroke: #000000; stroke-width: 0.8; stroke-linejoin: miter; stroke-linecap: square"/>
   </g>
   <g id="patch_4">
    <path d="M 57.6 6.912 
L 360.8064 6.912 
" style="fill: none; stroke: #000000; stroke-width: 0.8; stroke-linejoin: miter; stroke-linecap: square"/>
   </g>
   <g id="text_13">
    <!-- ddcma-0 -->
    <g transform="translate(386.578944 296.966485)scale(0.14 -0.14)">
     <use xlink:href="#DejaVuSans-64"/>
     <use xlink:href="#DejaVuSans-64" x="63.476562"/>
     <use xlink:href="#DejaVuSans-63" x="126.953125"/>
     <use xlink:href="#DejaVuSans-6d" x="181.933594"/>
     <use xlink:href="#DejaVuSans-61" x="279.345703"/>
     <use xlink:href="#DejaVuSans-2d" x="340.625"/>
     <use xlink:href="#DejaVuSans-30" x="376.708984"/>
    </g>
   </g>
   <g id="text_14">
    <!-- CMA-ES-20 -->
    <g transform="translate(386.578944 156.791125)scale(0.14 -0.14)">
     <defs>
      <path id="DejaVuSans-43" d="M 4122 4306 
L 4122 3641 
Q 3803 3938 3442 4084 
Q 3081 4231 2675 4231 
Q 1875 4231 1450 3742 
Q 1025 3253 1025 2328 
Q 1025 1406 1450 917 
Q 1875 428 2675 428 
Q 3081 428 3442 575 
Q 3803 722 4122 1019 
L 4122 359 
Q 3791 134 3420 21 
Q 3050 -91 2638 -91 
Q 1578 -91 968 557 
Q 359 1206 359 2328 
Q 359 3453 968 4101 
Q 1578 4750 2638 4750 
Q 3056 4750 3426 4639 
Q 3797 4528 4122 4306 
z
" transform="scale(0.015625)"/>
      <path id="DejaVuSans-4d" d="M 628 4666 
L 1569 4666 
L 2759 1491 
L 3956 4666 
L 4897 4666 
L 4897 0 
L 4281 0 
L 4281 4097 
L 3078 897 
L 2444 897 
L 1241 4097 
L 1241 0 
L 628 0 
L 628 4666 
z
" transform="scale(0.015625)"/>
      <path id="DejaVuSans-41" d="M 2188 4044 
L 1331 1722 
L 3047 1722 
L 2188 4044 
z
M 1831 4666 
L 2547 4666 
L 4325 0 
L 3669 0 
L 3244 1197 
L 1141 1197 
L 716 0 
L 50 0 
L 1831 4666 
z
" transform="scale(0.015625)"/>
      <path id="DejaVuSans-45" d="M 628 4666 
L 3578 4666 
L 3578 4134 
L 1259 4134 
L 1259 2753 
L 3481 2753 
L 3481 2222 
L 1259 2222 
L 1259 531 
L 3634 531 
L 3634 0 
L 628 0 
L 628 4666 
z
" transform="scale(0.015625)"/>
      <path id="DejaVuSans-53" d="M 3425 4513 
L 3425 3897 
Q 3066 4069 2747 4153 
Q 2428 4238 2131 4238 
Q 1616 4238 1336 4038 
Q 1056 3838 1056 3469 
Q 1056 3159 1242 3001 
Q 1428 2844 1947 2747 
L 2328 2669 
Q 3034 2534 3370 2195 
Q 3706 1856 3706 1288 
Q 3706 609 3251 259 
Q 2797 -91 1919 -91 
Q 1588 -91 1214 -16 
Q 841 59 441 206 
L 441 856 
Q 825 641 1194 531 
Q 1563 422 1919 422 
Q 2459 422 2753 634 
Q 3047 847 3047 1241 
Q 3047 1584 2836 1778 
Q 2625 1972 2144 2069 
L 1759 2144 
Q 1053 2284 737 2584 
Q 422 2884 422 3419 
Q 422 4038 858 4394 
Q 1294 4750 2059 4750 
Q 2388 4750 2728 4690 
Q 3069 4631 3425 4513 
z
" transform="scale(0.015625)"/>
     </defs>
     <use xlink:href="#DejaVuSans-43"/>
     <use xlink:href="#DejaVuSans-4d" x="69.824219"/>
     <use xlink:href="#DejaVuSans-41" x="156.103516"/>
     <use xlink:href="#DejaVuSans-2d" x="222.261719"/>
     <use xlink:href="#DejaVuSans-45" x="258.345703"/>
     <use xlink:href="#DejaVuSans-53" x="321.529297"/>
     <use xlink:href="#DejaVuSans-2d" x="385.005859"/>
     <use xlink:href="#DejaVuSans-32" x="421.089844"/>
     <use xlink:href="#DejaVuSans-30" x="484.712891"/>
    </g>
   </g>
   <g id="text_15">
    <!-- best 2009 -->
    <g transform="translate(386.578944 16.615765)scale(0.14 -0.14)">
     <defs>
      <path id="DejaVuSans-62" d="M 3116 1747 
Q 3116 2381 2855 2742 
Q 2594 3103 2138 3103 
Q 1681 3103 1420 2742 
Q 1159 2381 1159 1747 
Q 1159 1113 1420 752 
Q 1681 391 2138 391 
Q 2594 391 2855 752 
Q 3116 1113 3116 1747 
z
M 1159 2969 
Q 1341 3281 1617 3432 
Q 1894 3584 2278 3584 
Q 2916 3584 3314 3078 
Q 3713 2572 3713 1747 
Q 3713 922 3314 415 
Q 2916 -91 2278 -91 
Q 1894 -91 1617 61 
Q 1341 213 1159 525 
L 1159 0 
L 581 0 
L 581 4863 
L 1159 4863 
L 1159 2969 
z
" transform="scale(0.015625)"/>
      <path id="DejaVuSans-39" d="M 703 97 
L 703 672 
Q 941 559 1184 500 
Q 1428 441 1663 441 
Q 2288 441 2617 861 
Q 2947 1281 2994 2138 
Q 2813 1869 2534 1725 
Q 2256 1581 1919 1581 
Q 1219 1581 811 2004 
Q 403 2428 403 3163 
Q 403 3881 828 4315 
Q 1253 4750 1959 4750 
Q 2769 4750 3195 4129 
Q 3622 3509 3622 2328 
Q 3622 1225 3098 567 
Q 2575 -91 1691 -91 
Q 1453 -91 1209 -44 
Q 966 3 703 97 
z
M 1959 2075 
Q 2384 2075 2632 2365 
Q 2881 2656 2881 3163 
Q 2881 3666 2632 3958 
Q 2384 4250 1959 4250 
Q 1534 4250 1286 3958 
Q 1038 3666 1038 3163 
Q 1038 2656 1286 2365 
Q 1534 2075 1959 2075 
z
" transform="scale(0.015625)"/>
     </defs>
     <use xlink:href="#DejaVuSans-62"/>
     <use xlink:href="#DejaVuSans-65" x="63.476562"/>
     <use xlink:href="#DejaVuSans-73" x="125"/>
     <use xlink:href="#DejaVuSans-74" x="177.099609"/>
     <use xlink:href="#DejaVuSans-20" x="216.308594"/>
     <use xlink:href="#DejaVuSans-32" x="248.095703"/>
     <use xlink:href="#DejaVuSans-30" x="311.71875"/>
     <use xlink:href="#DejaVuSans-30" x="375.341797"/>
     <use xlink:href="#DejaVuSans-39" x="438.964844"/>
    </g>
   </g>
   <g id="text_16">
    <!-- bbob f20-f24, 20-D -->
    <g transform="translate(60.632064 17.582726)scale(0.102 -0.102)">
     <defs>
      <path id="DejaVuSans-44" d="M 1259 4147 
L 1259 519 
L 2022 519 
Q 2988 519 3436 956 
Q 3884 1394 3884 2338 
Q 3884 3275 3436 3711 
Q 2988 4147 2022 4147 
L 1259 4147 
z
M 628 4666 
L 1925 4666 
Q 3281 4666 3915 4102 
Q 4550 3538 4550 2338 
Q 4550 1131 3912 565 
Q 3275 0 1925 0 
L 628 0 
L 628 4666 
z
" transform="scale(0.015625)"/>
     </defs>
     <use xlink:href="#DejaVuSans-62"/>
     <use xlink:href="#DejaVuSans-62" x="63.476562"/>
     <use xlink:href="#DejaVuSans-6f" x="126.953125"/>
     <use xlink:href="#DejaVuSans-62" x="188.134766"/>
     <use xlink:href="#DejaVuSans-20" x="251.611328"/>
     <use xlink:href="#DejaVuSans-66" x="283.398438"/>
     <use xlink:href="#DejaVuSans-32" x="318.603516"/>
     <use xlink:href="#DejaVuSans-30" x="382.226562"/>
     <use xlink:href="#DejaVuSans-2d" x="445.849609"/>
     <use xlink:href="#DejaVuSans-66" x="481.933594"/>
     <use xlink:href="#DejaVuSans-32" x="517.138672"/>
     <use xlink:href="#DejaVuSans-34" x="580.761719"/>
     <use xlink:href="#DejaVuSans-2c" x="644.384766"/>
     <use xlink:href="#DejaVuSans-20" x="676.171875"/>
     <use xlink:href="#DejaVuSans-32" x="707.958984"/>
     <use xlink:href="#DejaVuSans-30" x="771.582031"/>
     <use xlink:href="#DejaVuSans-2d" x="835.205078"/>
     <use xlink:href="#DejaVuSans-44" x="871.289062"/>
    </g>
    <!-- 51 targets: 100..1e-08 -->
    <g transform="translate(60.632064 29.004495)scale(0.102 -0.102)">
     <defs>
      <path id="DejaVuSans-35" d="M 691 4666 
L 3169 4666 
L 3169 4134 
L 1269 4134 
L 1269 2991 
Q 1406 3038 1543 3061 
Q 1681 3084 1819 3084 
Q 2600 3084 3056 2656 
Q 3513 2228 3513 1497 
Q 3513 744 3044 326 
Q 2575 -91 1722 -91 
Q 1428 -91 1123 -41 
Q 819 9 494 109 
L 494 744 
Q 775 591 1075 516 
Q 1375 441 1709 441 
Q 2250 441 2565 725 
Q 2881 1009 2881 1497 
Q 2881 1984 2565 2268 
Q 2250 2553 1709 2553 
Q 1456 2553 1204 2497 
Q 953 2441 691 2322 
L 691 4666 
z
" transform="scale(0.015625)"/>
      <path id="DejaVuSans-3a" d="M 750 794 
L 1409 794 
L 1409 0 
L 750 0 
L 750 794 
z
M 750 3309 
L 1409 3309 
L 1409 2516 
L 750 2516 
L 750 3309 
z
" transform="scale(0.015625)"/>
     </defs>
     <use xlink:href="#DejaVuSans-35"/>
     <use xlink:href="#DejaVuSans-31" x="63.623047"/>
     <use xlink:href="#DejaVuSans-20" x="127.246094"/>
     <use xlink:href="#DejaVuSans-74" x="159.033203"/>
     <use xlink:href="#DejaVuSans-61" x="198.242188"/>
     <use xlink:href="#DejaVuSans-72" x="259.521484"/>
     <use xlink:href="#DejaVuSans-67" x="298.884766"/>
     <use xlink:href="#DejaVuSans-65" x="362.361328"/>
     <use xlink:href="#DejaVuSans-74" x="423.884766"/>
     <use xlink:href="#DejaVuSans-73" x="463.09375"/>
     <use xlink:href="#DejaVuSans-3a" x="515.193359"/>
     <use xlink:href="#DejaVuSans-20" x="548.884766"/>
     <use xlink:href="#DejaVuSans-31" x="580.671875"/>
     <use xlink:href="#DejaVuSans-30" x="644.294922"/>
     <use xlink:href="#DejaVuSans-30" x="707.917969"/>
     <use xlink:href="#DejaVuSans-2e" x="771.541016"/>
     <use xlink:href="#DejaVuSans-2e" x="803.328125"/>
     <use xlink:href="#DejaVuSans-31" x="835.115234"/>
     <use xlink:href="#DejaVuSans-65" x="898.738281"/>
     <use xlink:href="#DejaVuSans-2d" x="960.261719"/>
     <use xlink:href="#DejaVuSans-30" x="996.345703"/>
     <use xlink:href="#DejaVuSans-38" x="1059.96875"/>
    </g>
    <!-- 5, 15 instances -->
    <g transform="translate(60.632064 40.426264)scale(0.102 -0.102)">
     <use xlink:href="#DejaVuSans-35"/>
     <use xlink:href="#DejaVuSans-2c" x="63.623047"/>
     <use xlink:href="#DejaVuSans-20" x="95.410156"/>
     <use xlink:href="#DejaVuSans-31" x="127.197266"/>
     <use xlink:href="#DejaVuSans-35" x="190.820312"/>
     <use xlink:href="#DejaVuSans-20" x="254.443359"/>
     <use xlink:href="#DejaVuSans-69" x="286.230469"/>
     <use xlink:href="#DejaVuSans-6e" x="314.013672"/>
     <use xlink:href="#DejaVuSans-73" x="377.392578"/>
     <use xlink:href="#DejaVuSans-74" x="429.492188"/>
     <use xlink:href="#DejaVuSans-61" x="468.701172"/>
     <use xlink:href="#DejaVuSans-6e" x="529.980469"/>
     <use xlink:href="#DejaVuSans-63" x="593.359375"/>
     <use xlink:href="#DejaVuSans-65" x="648.339844"/>
     <use xlink:href="#DejaVuSans-73" x="709.863281"/>
    </g>
   </g>
   <g id="text_17">
    <!-- v2.6 -->
    <g style="fill: #808080" transform="translate(198.292262 293.943992)scale(0.1 -0.1)">
     <use xlink:href="#DejaVuSans-76"/>
     <use xlink:href="#DejaVuSans-32" x="59.179688"/>
     <use xlink:href="#DejaVuSans-2e" x="122.802734"/>
     <use xlink:href="#DejaVuSans-36" x="154.589844"/>
    </g>
   </g>
  </g>
 </g>
 <defs>
  <clipPath id="pd2675768fc">
   <rect x="57.6" y="6.912" width="303.2064" height="292.032"/>
  </clipPath>
 </defs>
</svg>
