<?xml version="1.0" encoding="utf-8" standalone="no"?>
<!DOCTYPE svg PUBLIC "-//W3C//DTD SVG 1.1//EN"
  "http://www.w3.org/Graphics/SVG/1.1/DTD/svg11.dtd">
<svg xmlns:xlink="http://www.w3.org/1999/xlink" width="460.8pt" height="345.6pt" viewBox="0 0 460.8 345.6" xmlns="http://www.w3.org/2000/svg" version="1.1">
 <metadata>
  <rdf:RDF xmlns:dc="http://purl.org/dc/elements/1.1/" xmlns:cc="http://creativecommons.org/ns#" xmlns:rdf="http://www.w3.org/1999/02/22-rdf-syntax-ns#">
   <cc:Work>
    <dc:type rdf:resource="http://purl.org/dc/dcmitype/StillImage"/>
    <dc:date>2022-03-16T23:35:17.224802</dc:date>
    <dc:format>image/svg+xml</dc:format>
    <dc:creator>
     <cc:Agent>
      <dc:title>Matplotlib v3.5.1, https://matplotlib.org/</dc:title>
     </cc:Agent>
    </dc:creator>
   </cc:Work>
  </rdf:RDF>
 </metadata>
 <defs>
  <style type="text/css">*{stroke-linejoin: round; stroke-linecap: butt}</style>
 </defs>
 <g id="figure_1">
  <g id="patch_1">
   <path d="M 0 345.6 
L 460.8 345.6 
L 460.8 0 
L 0 0 
z
" style="fill: #ffffff"/>
  </g>
  <g id="axes_1">
   <g id="patch_2">
    <path d="M 57.6 298.944 
L 360.8064 298.944 
L 360.8064 27.648 
L 57.6 27.648 
z
" style="fill: #ffffff"/>
   </g>
   <g id="line2d_1">
    <path d="M 36.933397 298.944 
L 36.933397 272.346353 
L 49.972572 272.346353 
L 49.972572 267.026824 
L 63.011746 267.026824 
L 63.011746 261.707294 
L 70.639174 261.707294 
L 70.639174 256.387765 
L 80.248597 256.387765 
L 80.248597 251.068235 
L 86.578163 251.068235 
L 86.578163 245.748706 
L 90.230539 245.748706 
L 90.230539 240.429176 
L 92.322865 240.429176 
L 92.322865 235.109647 
L 95.916911 235.109647 
L 95.916911 229.790118 
L 96.717523 229.790118 
L 96.717523 224.470588 
L 98.933205 224.470588 
L 98.933205 219.151059 
L 99.617337 219.151059 
L 99.617337 213.831529 
L 101.532027 213.831529 
L 101.532027 208.512 
L 102.12927 208.512 
L 102.12927 203.192471 
L 103.269713 203.192471 
L 103.269713 197.872941 
L 105.850679 197.872941 
L 105.850679 192.553412 
L 107.68741 192.553412 
L 107.68741 187.233882 
L 109.360651 187.233882 
L 109.360651 181.914353 
L 111.620752 181.914353 
L 111.620752 176.594824 
L 113.638206 176.594824 
L 113.638206 171.275294 
L 115.747307 171.275294 
L 115.747307 165.955765 
L 117.121023 165.955765 
L 117.121023 160.636235 
L 119.366121 160.636235 
L 119.366121 155.316706 
L 120.28394 155.316706 
L 120.28394 149.997176 
L 121.159053 149.997176 
L 121.159053 144.677647 
L 121.581803 144.677647 
L 121.581803 139.358118 
L 121.99526 139.358118 
L 121.99526 134.038588 
L 122.795872 134.038588 
L 122.795872 128.719059 
L 123.936316 128.719059 
L 123.936316 123.399529 
L 124.481616 123.399529 
L 124.481616 118.08 
L 125.011554 118.08 
L 125.011554 112.760471 
L 125.35673 112.760471 
L 125.35673 107.440941 
L 126.192937 107.440941 
L 126.192937 102.121412 
L 130.292209 102.121412 
L 130.292209 96.801882 
L 132.405295 96.801882 
L 132.405295 91.482353 
L 132.984158 91.482353 
L 132.984158 86.162824 
L 133.545739 86.162824 
L 133.545739 80.843294 
L 133.874812 80.843294 
L 133.874812 75.523765 
L 134.304809 75.523765 
L 134.304809 70.204235 
L 135.136394 70.204235 
L 135.136394 64.884706 
L 135.538796 64.884706 
L 135.538796 59.565176 
L 136.029987 59.565176 
L 136.029987 54.245647 
L 136.413909 54.245647 
L 136.413909 48.926118 
L 137.250116 48.926118 
L 137.250116 43.606588 
L 137.610157 43.606588 
L 137.610157 38.287059 
L 137.963436 38.287059 
L 137.963436 32.967529 
L 138.395904 32.967529 
L 138.395904 27.648 
L 360.8064 27.648 
" style="fill: none; stroke: #f5deb3; stroke-width: 4; stroke-linecap: square"/>
   </g>
   <g id="line2d_2">
    <defs>
     <path id="mb546a7443f" d="M -0 7.778175 
L 7.778175 0 
L 0 -7.778175 
L -7.778175 -0 
z
" style="stroke: #f5deb3; stroke-width: 1.5; stroke-linejoin: miter"/>
    </defs>
    <g>
     <use xlink:href="#mb546a7443f" x="107.68741" y="187.233882" style="fill: #f5deb3; stroke: #f5deb3; stroke-width: 1.5; stroke-linejoin: miter"/>
     <use xlink:href="#mb546a7443f" x="126.192937" y="102.121412" style="fill: #f5deb3; stroke: #f5deb3; stroke-width: 1.5; stroke-linejoin: miter"/>
     <use xlink:href="#mb546a7443f" x="138.395904" y="32.967529" style="fill: #f5deb3; stroke: #f5deb3; stroke-width: 1.5; stroke-linejoin: miter"/>
     <use xlink:href="#mb546a7443f" x="138.395904" y="27.648" style="fill: #f5deb3; stroke: #f5deb3; stroke-width: 1.5; stroke-linejoin: miter"/>
     <use xlink:href="#mb546a7443f" x="138.395904" y="27.648" style="fill: #f5deb3; stroke: #f5deb3; stroke-width: 1.5; stroke-linejoin: miter"/>
     <use xlink:href="#mb546a7443f" x="360.8064" y="27.648" style="fill: #f5deb3; stroke: #f5deb3; stroke-width: 1.5; stroke-linejoin: miter"/>
    </g>
   </g>
   <g id="line2d_3">
    <path style="fill: none; stroke: #f5deb3; stroke-width: 4; stroke-linecap: square"/>
    <g/>
   </g>
   <g id="line2d_4">
    <path d="M 360.8064 27.648 
L 380.514816 33.07392 
" style="fill: none; stroke: #f5deb3; stroke-width: 4; stroke-linecap: square"/>
    <g>
     <use xlink:href="#mb546a7443f" x="360.8064" y="27.648" style="fill: #f5deb3; stroke: #f5deb3; stroke-width: 1.5; stroke-linejoin: miter"/>
     <use xlink:href="#mb546a7443f" x="380.514816" y="33.07392" style="fill: #f5deb3; stroke: #f5deb3; stroke-width: 1.5; stroke-linejoin: miter"/>
    </g>
   </g>
   <g id="matplotlib.axis_1">
    <g id="xtick_1">
     <g id="line2d_5">
      <path d="M 57.6 298.944 
L 57.6 27.648 
" clip-path="url(#pae8dd6c1a7)" style="fill: none; stroke: #b0b0b0; stroke-width: 0.8; stroke-linecap: square"/>
     </g>
     <g id="line2d_6">
      <defs>
       <path id="m361fb40399" d="M 0 0 
L 0 3.5 
" style="stroke: #000000; stroke-width: 0.8"/>
      </defs>
      <g>
       <use xlink:href="#m361fb40399" x="57.6" y="298.944" style="stroke: #000000; stroke-width: 0.8"/>
      </g>
     </g>
     <g id="text_1">
      <!-- 0 -->
      <g transform="translate(52.191875 318.861344)scale(0.17 -0.17)">
       <defs>
        <path id="DejaVuSans-30" d="M 2034 4250 
Q 1547 4250 1301 3770 
Q 1056 3291 1056 2328 
Q 1056 1369 1301 889 
Q 1547 409 2034 409 
Q 2525 409 2770 889 
Q 3016 1369 3016 2328 
Q 3016 3291 2770 3770 
Q 2525 4250 2034 4250 
z
M 2034 4750 
Q 2819 4750 3233 4129 
Q 3647 3509 3647 2328 
Q 3647 1150 3233 529 
Q 2819 -91 2034 -91 
Q 1250 -91 836 529 
Q 422 1150 422 2328 
Q 422 3509 836 4129 
Q 1250 4750 2034 4750 
z
" transform="scale(0.015625)"/>
       </defs>
       <use xlink:href="#DejaVuSans-30"/>
      </g>
     </g>
    </g>
    <g id="xtick_2">
     <g id="line2d_7">
      <path d="M 144.2304 298.944 
L 144.2304 27.648 
" clip-path="url(#pae8dd6c1a7)" style="fill: none; stroke: #b0b0b0; stroke-width: 0.8; stroke-linecap: square"/>
     </g>
     <g id="line2d_8">
      <g>
       <use xlink:href="#m361fb40399" x="144.2304" y="298.944" style="stroke: #000000; stroke-width: 0.8"/>
      </g>
     </g>
     <g id="text_2">
      <!-- 2 -->
      <g transform="translate(138.822275 318.861344)scale(0.17 -0.17)">
       <defs>
        <path id="DejaVuSans-32" d="M 1228 531 
L 3431 531 
L 3431 0 
L 469 0 
L 469 531 
Q 828 903 1448 1529 
Q 2069 2156 2228 2338 
Q 2531 2678 2651 2914 
Q 2772 3150 2772 3378 
Q 2772 3750 2511 3984 
Q 2250 4219 1831 4219 
Q 1534 4219 1204 4116 
Q 875 4013 500 3803 
L 500 4441 
Q 881 4594 1212 4672 
Q 1544 4750 1819 4750 
Q 2544 4750 2975 4387 
Q 3406 4025 3406 3419 
Q 3406 3131 3298 2873 
Q 3191 2616 2906 2266 
Q 2828 2175 2409 1742 
Q 1991 1309 1228 531 
z
" transform="scale(0.015625)"/>
       </defs>
       <use xlink:href="#DejaVuSans-32"/>
      </g>
     </g>
    </g>
    <g id="xtick_3">
     <g id="line2d_9">
      <path d="M 230.8608 298.944 
L 230.8608 27.648 
" clip-path="url(#pae8dd6c1a7)" style="fill: none; stroke: #b0b0b0; stroke-width: 0.8; stroke-linecap: square"/>
     </g>
     <g id="line2d_10">
      <g>
       <use xlink:href="#m361fb40399" x="230.8608" y="298.944" style="stroke: #000000; stroke-width: 0.8"/>
      </g>
     </g>
     <g id="text_3">
      <!-- 4 -->
      <g transform="translate(225.452675 318.861344)scale(0.17 -0.17)">
       <defs>
        <path id="DejaVuSans-34" d="M 2419 4116 
L 825 1625 
L 2419 1625 
L 2419 4116 
z
M 2253 4666 
L 3047 4666 
L 3047 1625 
L 3713 1625 
L 3713 1100 
L 3047 1100 
L 3047 0 
L 2419 0 
L 2419 1100 
L 313 1100 
L 313 1709 
L 2253 4666 
z
" transform="scale(0.015625)"/>
       </defs>
       <use xlink:href="#DejaVuSans-34"/>
      </g>
     </g>
    </g>
    <g id="xtick_4">
     <g id="line2d_11">
      <path d="M 317.4912 298.944 
L 317.4912 27.648 
" clip-path="url(#pae8dd6c1a7)" style="fill: none; stroke: #b0b0b0; stroke-width: 0.8; stroke-linecap: square"/>
     </g>
     <g id="line2d_12">
      <g>
       <use xlink:href="#m361fb40399" x="317.4912" y="298.944" style="stroke: #000000; stroke-width: 0.8"/>
      </g>
     </g>
     <g id="text_4">
      <!-- 6 -->
      <g transform="translate(312.083075 318.861344)scale(0.17 -0.17)">
       <defs>
        <path id="DejaVuSans-36" d="M 2113 2584 
Q 1688 2584 1439 2293 
Q 1191 2003 1191 1497 
Q 1191 994 1439 701 
Q 1688 409 2113 409 
Q 2538 409 2786 701 
Q 3034 994 3034 1497 
Q 3034 2003 2786 2293 
Q 2538 2584 2113 2584 
z
M 3366 4563 
L 3366 3988 
Q 3128 4100 2886 4159 
Q 2644 4219 2406 4219 
Q 1781 4219 1451 3797 
Q 1122 3375 1075 2522 
Q 1259 2794 1537 2939 
Q 1816 3084 2150 3084 
Q 2853 3084 3261 2657 
Q 3669 2231 3669 1497 
Q 3669 778 3244 343 
Q 2819 -91 2113 -91 
Q 1303 -91 875 529 
Q 447 1150 447 2328 
Q 447 3434 972 4092 
Q 1497 4750 2381 4750 
Q 2619 4750 2861 4703 
Q 3103 4656 3366 4563 
z
" transform="scale(0.015625)"/>
       </defs>
       <use xlink:href="#DejaVuSans-36"/>
      </g>
     </g>
    </g>
    <g id="xtick_5">
     <g id="line2d_13">
      <path d="M 100.9152 298.944 
L 100.9152 27.648 
" clip-path="url(#pae8dd6c1a7)" style="fill: none; stroke: #b0b0b0; stroke-width: 0.8; stroke-linecap: square"/>
     </g>
     <g id="line2d_14">
      <defs>
       <path id="m90c077df07" d="M 0 0 
L 0 2 
" style="stroke: #000000; stroke-width: 0.6"/>
      </defs>
      <g>
       <use xlink:href="#m90c077df07" x="100.9152" y="298.944" style="stroke: #000000; stroke-width: 0.6"/>
      </g>
     </g>
    </g>
    <g id="xtick_6">
     <g id="line2d_15">
      <path d="M 187.5456 298.944 
L 187.5456 27.648 
" clip-path="url(#pae8dd6c1a7)" style="fill: none; stroke: #b0b0b0; stroke-width: 0.8; stroke-linecap: square"/>
     </g>
     <g id="line2d_16">
      <g>
       <use xlink:href="#m90c077df07" x="187.5456" y="298.944" style="stroke: #000000; stroke-width: 0.6"/>
      </g>
     </g>
    </g>
    <g id="xtick_7">
     <g id="line2d_17">
      <path d="M 274.176 298.944 
L 274.176 27.648 
" clip-path="url(#pae8dd6c1a7)" style="fill: none; stroke: #b0b0b0; stroke-width: 0.8; stroke-linecap: square"/>
     </g>
     <g id="line2d_18">
      <g>
       <use xlink:href="#m90c077df07" x="274.176" y="298.944" style="stroke: #000000; stroke-width: 0.6"/>
      </g>
     </g>
    </g>
    <g id="xtick_8">
     <g id="line2d_19">
      <path d="M 360.8064 298.944 
L 360.8064 27.648 
" clip-path="url(#pae8dd6c1a7)" style="fill: none; stroke: #b0b0b0; stroke-width: 0.8; stroke-linecap: square"/>
     </g>
     <g id="line2d_20">
      <g>
       <use xlink:href="#m90c077df07" x="360.8064" y="298.944" style="stroke: #000000; stroke-width: 0.6"/>
      </g>
     </g>
    </g>
    <g id="text_5">
     <!-- log10(# f-evals / dimension) -->
     <g transform="translate(88.823278 339.314156)scale(0.17 -0.17)">
      <defs>
       <path id="DejaVuSans-6c" d="M 603 4863 
L 1178 4863 
L 1178 0 
L 603 0 
L 603 4863 
z
" transform="scale(0.015625)"/>
       <path id="DejaVuSans-6f" d="M 1959 3097 
Q 1497 3097 1228 2736 
Q 959 2375 959 1747 
Q 959 1119 1226 758 
Q 1494 397 1959 397 
Q 2419 397 2687 759 
Q 2956 1122 2956 1747 
Q 2956 2369 2687 2733 
Q 2419 3097 1959 3097 
z
M 1959 3584 
Q 2709 3584 3137 3096 
Q 3566 2609 3566 1747 
Q 3566 888 3137 398 
Q 2709 -91 1959 -91 
Q 1206 -91 779 398 
Q 353 888 353 1747 
Q 353 2609 779 3096 
Q 1206 3584 1959 3584 
z
" transform="scale(0.015625)"/>
       <path id="DejaVuSans-67" d="M 2906 1791 
Q 2906 2416 2648 2759 
Q 2391 3103 1925 3103 
Q 1463 3103 1205 2759 
Q 947 2416 947 1791 
Q 947 1169 1205 825 
Q 1463 481 1925 481 
Q 2391 481 2648 825 
Q 2906 1169 2906 1791 
z
M 3481 434 
Q 3481 -459 3084 -895 
Q 2688 -1331 1869 -1331 
Q 1566 -1331 1297 -1286 
Q 1028 -1241 775 -1147 
L 775 -588 
Q 1028 -725 1275 -790 
Q 1522 -856 1778 -856 
Q 2344 -856 2625 -561 
Q 2906 -266 2906 331 
L 2906 616 
Q 2728 306 2450 153 
Q 2172 0 1784 0 
Q 1141 0 747 490 
Q 353 981 353 1791 
Q 353 2603 747 3093 
Q 1141 3584 1784 3584 
Q 2172 3584 2450 3431 
Q 2728 3278 2906 2969 
L 2906 3500 
L 3481 3500 
L 3481 434 
z
" transform="scale(0.015625)"/>
       <path id="DejaVuSans-31" d="M 794 531 
L 1825 531 
L 1825 4091 
L 703 3866 
L 703 4441 
L 1819 4666 
L 2450 4666 
L 2450 531 
L 3481 531 
L 3481 0 
L 794 0 
L 794 531 
z
" transform="scale(0.015625)"/>
       <path id="DejaVuSans-28" d="M 1984 4856 
Q 1566 4138 1362 3434 
Q 1159 2731 1159 2009 
Q 1159 1288 1364 580 
Q 1569 -128 1984 -844 
L 1484 -844 
Q 1016 -109 783 600 
Q 550 1309 550 2009 
Q 550 2706 781 3412 
Q 1013 4119 1484 4856 
L 1984 4856 
z
" transform="scale(0.015625)"/>
       <path id="DejaVuSans-23" d="M 3272 2816 
L 2363 2816 
L 2100 1772 
L 3016 1772 
L 3272 2816 
z
M 2803 4594 
L 2478 3297 
L 3391 3297 
L 3719 4594 
L 4219 4594 
L 3897 3297 
L 4872 3297 
L 4872 2816 
L 3775 2816 
L 3519 1772 
L 4513 1772 
L 4513 1294 
L 3397 1294 
L 3072 0 
L 2572 0 
L 2894 1294 
L 1978 1294 
L 1656 0 
L 1153 0 
L 1478 1294 
L 494 1294 
L 494 1772 
L 1594 1772 
L 1856 2816 
L 850 2816 
L 850 3297 
L 1978 3297 
L 2297 4594 
L 2803 4594 
z
" transform="scale(0.015625)"/>
       <path id="DejaVuSans-20" transform="scale(0.015625)"/>
       <path id="DejaVuSans-66" d="M 2375 4863 
L 2375 4384 
L 1825 4384 
Q 1516 4384 1395 4259 
Q 1275 4134 1275 3809 
L 1275 3500 
L 2222 3500 
L 2222 3053 
L 1275 3053 
L 1275 0 
L 697 0 
L 697 3053 
L 147 3053 
L 147 3500 
L 697 3500 
L 697 3744 
Q 697 4328 969 4595 
Q 1241 4863 1831 4863 
L 2375 4863 
z
" transform="scale(0.015625)"/>
       <path id="DejaVuSans-2d" d="M 313 2009 
L 1997 2009 
L 1997 1497 
L 313 1497 
L 313 2009 
z
" transform="scale(0.015625)"/>
       <path id="DejaVuSans-65" d="M 3597 1894 
L 3597 1613 
L 953 1613 
Q 991 1019 1311 708 
Q 1631 397 2203 397 
Q 2534 397 2845 478 
Q 3156 559 3463 722 
L 3463 178 
Q 3153 47 2828 -22 
Q 2503 -91 2169 -91 
Q 1331 -91 842 396 
Q 353 884 353 1716 
Q 353 2575 817 3079 
Q 1281 3584 2069 3584 
Q 2775 3584 3186 3129 
Q 3597 2675 3597 1894 
z
M 3022 2063 
Q 3016 2534 2758 2815 
Q 2500 3097 2075 3097 
Q 1594 3097 1305 2825 
Q 1016 2553 972 2059 
L 3022 2063 
z
" transform="scale(0.015625)"/>
       <path id="DejaVuSans-76" d="M 191 3500 
L 800 3500 
L 1894 563 
L 2988 3500 
L 3597 3500 
L 2284 0 
L 1503 0 
L 191 3500 
z
" transform="scale(0.015625)"/>
       <path id="DejaVuSans-61" d="M 2194 1759 
Q 1497 1759 1228 1600 
Q 959 1441 959 1056 
Q 959 750 1161 570 
Q 1363 391 1709 391 
Q 2188 391 2477 730 
Q 2766 1069 2766 1631 
L 2766 1759 
L 2194 1759 
z
M 3341 1997 
L 3341 0 
L 2766 0 
L 2766 531 
Q 2569 213 2275 61 
Q 1981 -91 1556 -91 
Q 1019 -91 701 211 
Q 384 513 384 1019 
Q 384 1609 779 1909 
Q 1175 2209 1959 2209 
L 2766 2209 
L 2766 2266 
Q 2766 2663 2505 2880 
Q 2244 3097 1772 3097 
Q 1472 3097 1187 3025 
Q 903 2953 641 2809 
L 641 3341 
Q 956 3463 1253 3523 
Q 1550 3584 1831 3584 
Q 2591 3584 2966 3190 
Q 3341 2797 3341 1997 
z
" transform="scale(0.015625)"/>
       <path id="DejaVuSans-73" d="M 2834 3397 
L 2834 2853 
Q 2591 2978 2328 3040 
Q 2066 3103 1784 3103 
Q 1356 3103 1142 2972 
Q 928 2841 928 2578 
Q 928 2378 1081 2264 
Q 1234 2150 1697 2047 
L 1894 2003 
Q 2506 1872 2764 1633 
Q 3022 1394 3022 966 
Q 3022 478 2636 193 
Q 2250 -91 1575 -91 
Q 1294 -91 989 -36 
Q 684 19 347 128 
L 347 722 
Q 666 556 975 473 
Q 1284 391 1588 391 
Q 1994 391 2212 530 
Q 2431 669 2431 922 
Q 2431 1156 2273 1281 
Q 2116 1406 1581 1522 
L 1381 1569 
Q 847 1681 609 1914 
Q 372 2147 372 2553 
Q 372 3047 722 3315 
Q 1072 3584 1716 3584 
Q 2034 3584 2315 3537 
Q 2597 3491 2834 3397 
z
" transform="scale(0.015625)"/>
       <path id="DejaVuSans-2f" d="M 1625 4666 
L 2156 4666 
L 531 -594 
L 0 -594 
L 1625 4666 
z
" transform="scale(0.015625)"/>
       <path id="DejaVuSans-64" d="M 2906 2969 
L 2906 4863 
L 3481 4863 
L 3481 0 
L 2906 0 
L 2906 525 
Q 2725 213 2448 61 
Q 2172 -91 1784 -91 
Q 1150 -91 751 415 
Q 353 922 353 1747 
Q 353 2572 751 3078 
Q 1150 3584 1784 3584 
Q 2172 3584 2448 3432 
Q 2725 3281 2906 2969 
z
M 947 1747 
Q 947 1113 1208 752 
Q 1469 391 1925 391 
Q 2381 391 2643 752 
Q 2906 1113 2906 1747 
Q 2906 2381 2643 2742 
Q 2381 3103 1925 3103 
Q 1469 3103 1208 2742 
Q 947 2381 947 1747 
z
" transform="scale(0.015625)"/>
       <path id="DejaVuSans-69" d="M 603 3500 
L 1178 3500 
L 1178 0 
L 603 0 
L 603 3500 
z
M 603 4863 
L 1178 4863 
L 1178 4134 
L 603 4134 
L 603 4863 
z
" transform="scale(0.015625)"/>
       <path id="DejaVuSans-6d" d="M 3328 2828 
Q 3544 3216 3844 3400 
Q 4144 3584 4550 3584 
Q 5097 3584 5394 3201 
Q 5691 2819 5691 2113 
L 5691 0 
L 5113 0 
L 5113 2094 
Q 5113 2597 4934 2840 
Q 4756 3084 4391 3084 
Q 3944 3084 3684 2787 
Q 3425 2491 3425 1978 
L 3425 0 
L 2847 0 
L 2847 2094 
Q 2847 2600 2669 2842 
Q 2491 3084 2119 3084 
Q 1678 3084 1418 2786 
Q 1159 2488 1159 1978 
L 1159 0 
L 581 0 
L 581 3500 
L 1159 3500 
L 1159 2956 
Q 1356 3278 1631 3431 
Q 1906 3584 2284 3584 
Q 2666 3584 2933 3390 
Q 3200 3197 3328 2828 
z
" transform="scale(0.015625)"/>
       <path id="DejaVuSans-6e" d="M 3513 2113 
L 3513 0 
L 2938 0 
L 2938 2094 
Q 2938 2591 2744 2837 
Q 2550 3084 2163 3084 
Q 1697 3084 1428 2787 
Q 1159 2491 1159 1978 
L 1159 0 
L 581 0 
L 581 3500 
L 1159 3500 
L 1159 2956 
Q 1366 3272 1645 3428 
Q 1925 3584 2291 3584 
Q 2894 3584 3203 3211 
Q 3513 2838 3513 2113 
z
" transform="scale(0.015625)"/>
       <path id="DejaVuSans-29" d="M 513 4856 
L 1013 4856 
Q 1481 4119 1714 3412 
Q 1947 2706 1947 2009 
Q 1947 1309 1714 600 
Q 1481 -109 1013 -844 
L 513 -844 
Q 928 -128 1133 580 
Q 1338 1288 1338 2009 
Q 1338 2731 1133 3434 
Q 928 4138 513 4856 
z
" transform="scale(0.015625)"/>
      </defs>
      <use xlink:href="#DejaVuSans-6c"/>
      <use xlink:href="#DejaVuSans-6f" x="27.783203"/>
      <use xlink:href="#DejaVuSans-67" x="88.964844"/>
      <use xlink:href="#DejaVuSans-31" x="152.441406"/>
      <use xlink:href="#DejaVuSans-30" x="216.064453"/>
      <use xlink:href="#DejaVuSans-28" x="279.6875"/>
      <use xlink:href="#DejaVuSans-23" x="318.701172"/>
      <use xlink:href="#DejaVuSans-20" x="402.490234"/>
      <use xlink:href="#DejaVuSans-66" x="434.277344"/>
      <use xlink:href="#DejaVuSans-2d" x="463.982422"/>
      <use xlink:href="#DejaVuSans-65" x="500.066406"/>
      <use xlink:href="#DejaVuSans-76" x="561.589844"/>
      <use xlink:href="#DejaVuSans-61" x="620.769531"/>
      <use xlink:href="#DejaVuSans-6c" x="682.048828"/>
      <use xlink:href="#DejaVuSans-73" x="709.832031"/>
      <use xlink:href="#DejaVuSans-20" x="761.931641"/>
      <use xlink:href="#DejaVuSans-2f" x="793.71875"/>
      <use xlink:href="#DejaVuSans-20" x="827.410156"/>
      <use xlink:href="#DejaVuSans-64" x="859.197266"/>
      <use xlink:href="#DejaVuSans-69" x="922.673828"/>
      <use xlink:href="#DejaVuSans-6d" x="950.457031"/>
      <use xlink:href="#DejaVuSans-65" x="1047.869141"/>
      <use xlink:href="#DejaVuSans-6e" x="1109.392578"/>
      <use xlink:href="#DejaVuSans-73" x="1172.771484"/>
      <use xlink:href="#DejaVuSans-69" x="1224.871094"/>
      <use xlink:href="#DejaVuSans-6f" x="1252.654297"/>
      <use xlink:href="#DejaVuSans-6e" x="1313.835938"/>
      <use xlink:href="#DejaVuSans-29" x="1377.214844"/>
     </g>
    </g>
   </g>
   <g id="matplotlib.axis_2">
    <g id="ytick_1">
     <g id="line2d_21">
      <path d="M 57.6 298.944 
L 360.8064 298.944 
" clip-path="url(#pae8dd6c1a7)" style="fill: none; stroke: #b0b0b0; stroke-width: 0.8; stroke-linecap: square"/>
     </g>
     <g id="line2d_22">
      <defs>
       <path id="m3cbc441621" d="M 0 0 
L -3.5 0 
" style="stroke: #000000; stroke-width: 0.8"/>
      </defs>
      <g>
       <use xlink:href="#m3cbc441621" x="57.6" y="298.944" style="stroke: #000000; stroke-width: 0.8"/>
      </g>
     </g>
     <g id="text_6">
      <!-- 0.0 -->
      <g transform="translate(25.155 305.02275)scale(0.16 -0.16)">
       <defs>
        <path id="DejaVuSans-2e" d="M 684 794 
L 1344 794 
L 1344 0 
L 684 0 
L 684 794 
z
" transform="scale(0.015625)"/>
       </defs>
       <use xlink:href="#DejaVuSans-30"/>
       <use xlink:href="#DejaVuSans-2e" x="63.623047"/>
       <use xlink:href="#DejaVuSans-30" x="95.410156"/>
      </g>
     </g>
    </g>
    <g id="ytick_2">
     <g id="line2d_23">
      <path d="M 57.6 244.6848 
L 360.8064 244.6848 
" clip-path="url(#pae8dd6c1a7)" style="fill: none; stroke: #b0b0b0; stroke-width: 0.8; stroke-linecap: square"/>
     </g>
     <g id="line2d_24">
      <g>
       <use xlink:href="#m3cbc441621" x="57.6" y="244.6848" style="stroke: #000000; stroke-width: 0.8"/>
      </g>
     </g>
     <g id="text_7">
      <!-- 0.2 -->
      <g transform="translate(25.155 250.76355)scale(0.16 -0.16)">
       <use xlink:href="#DejaVuSans-30"/>
       <use xlink:href="#DejaVuSans-2e" x="63.623047"/>
       <use xlink:href="#DejaVuSans-32" x="95.410156"/>
      </g>
     </g>
    </g>
    <g id="ytick_3">
     <g id="line2d_25">
      <path d="M 57.6 190.4256 
L 360.8064 190.4256 
" clip-path="url(#pae8dd6c1a7)" style="fill: none; stroke: #b0b0b0; stroke-width: 0.8; stroke-linecap: square"/>
     </g>
     <g id="line2d_26">
      <g>
       <use xlink:href="#m3cbc441621" x="57.6" y="190.4256" style="stroke: #000000; stroke-width: 0.8"/>
      </g>
     </g>
     <g id="text_8">
      <!-- 0.4 -->
      <g transform="translate(25.155 196.50435)scale(0.16 -0.16)">
       <use xlink:href="#DejaVuSans-30"/>
       <use xlink:href="#DejaVuSans-2e" x="63.623047"/>
       <use xlink:href="#DejaVuSans-34" x="95.410156"/>
      </g>
     </g>
    </g>
    <g id="ytick_4">
     <g id="line2d_27">
      <path d="M 57.6 136.1664 
L 360.8064 136.1664 
" clip-path="url(#pae8dd6c1a7)" style="fill: none; stroke: #b0b0b0; stroke-width: 0.8; stroke-linecap: square"/>
     </g>
     <g id="line2d_28">
      <g>
       <use xlink:href="#m3cbc441621" x="57.6" y="136.1664" style="stroke: #000000; stroke-width: 0.8"/>
      </g>
     </g>
     <g id="text_9">
      <!-- 0.6 -->
      <g transform="translate(25.155 142.24515)scale(0.16 -0.16)">
       <use xlink:href="#DejaVuSans-30"/>
       <use xlink:href="#DejaVuSans-2e" x="63.623047"/>
       <use xlink:href="#DejaVuSans-36" x="95.410156"/>
      </g>
     </g>
    </g>
    <g id="ytick_5">
     <g id="line2d_29">
      <path d="M 57.6 81.9072 
L 360.8064 81.9072 
" clip-path="url(#pae8dd6c1a7)" style="fill: none; stroke: #b0b0b0; stroke-width: 0.8; stroke-linecap: square"/>
     </g>
     <g id="line2d_30">
      <g>
       <use xlink:href="#m3cbc441621" x="57.6" y="81.9072" style="stroke: #000000; stroke-width: 0.8"/>
      </g>
     </g>
     <g id="text_10">
      <!-- 0.8 -->
      <g transform="translate(25.155 87.98595)scale(0.16 -0.16)">
       <defs>
        <path id="DejaVuSans-38" d="M 2034 2216 
Q 1584 2216 1326 1975 
Q 1069 1734 1069 1313 
Q 1069 891 1326 650 
Q 1584 409 2034 409 
Q 2484 409 2743 651 
Q 3003 894 3003 1313 
Q 3003 1734 2745 1975 
Q 2488 2216 2034 2216 
z
M 1403 2484 
Q 997 2584 770 2862 
Q 544 3141 544 3541 
Q 544 4100 942 4425 
Q 1341 4750 2034 4750 
Q 2731 4750 3128 4425 
Q 3525 4100 3525 3541 
Q 3525 3141 3298 2862 
Q 3072 2584 2669 2484 
Q 3125 2378 3379 2068 
Q 3634 1759 3634 1313 
Q 3634 634 3220 271 
Q 2806 -91 2034 -91 
Q 1263 -91 848 271 
Q 434 634 434 1313 
Q 434 1759 690 2068 
Q 947 2378 1403 2484 
z
M 1172 3481 
Q 1172 3119 1398 2916 
Q 1625 2713 2034 2713 
Q 2441 2713 2670 2916 
Q 2900 3119 2900 3481 
Q 2900 3844 2670 4047 
Q 2441 4250 2034 4250 
Q 1625 4250 1398 4047 
Q 1172 3844 1172 3481 
z
" transform="scale(0.015625)"/>
       </defs>
       <use xlink:href="#DejaVuSans-30"/>
       <use xlink:href="#DejaVuSans-2e" x="63.623047"/>
       <use xlink:href="#DejaVuSans-38" x="95.410156"/>
      </g>
     </g>
    </g>
    <g id="ytick_6">
     <g id="line2d_31">
      <path d="M 57.6 27.648 
L 360.8064 27.648 
" clip-path="url(#pae8dd6c1a7)" style="fill: none; stroke: #b0b0b0; stroke-width: 0.8; stroke-linecap: square"/>
     </g>
     <g id="line2d_32">
      <g>
       <use xlink:href="#m3cbc441621" x="57.6" y="27.648" style="stroke: #000000; stroke-width: 0.8"/>
      </g>
     </g>
     <g id="text_11">
      <!-- 1.0 -->
      <g transform="translate(25.155 33.72675)scale(0.16 -0.16)">
       <use xlink:href="#DejaVuSans-31"/>
       <use xlink:href="#DejaVuSans-2e" x="63.623047"/>
       <use xlink:href="#DejaVuSans-30" x="95.410156"/>
      </g>
     </g>
    </g>
    <g id="text_12">
     <!-- Fraction of function,target pairs -->
     <g transform="translate(17.619531 297.681)rotate(-90)scale(0.17 -0.17)">
      <defs>
       <path id="DejaVuSans-46" d="M 628 4666 
L 3309 4666 
L 3309 4134 
L 1259 4134 
L 1259 2759 
L 3109 2759 
L 3109 2228 
L 1259 2228 
L 1259 0 
L 628 0 
L 628 4666 
z
" transform="scale(0.015625)"/>
       <path id="DejaVuSans-72" d="M 2631 2963 
Q 2534 3019 2420 3045 
Q 2306 3072 2169 3072 
Q 1681 3072 1420 2755 
Q 1159 2438 1159 1844 
L 1159 0 
L 581 0 
L 581 3500 
L 1159 3500 
L 1159 2956 
Q 1341 3275 1631 3429 
Q 1922 3584 2338 3584 
Q 2397 3584 2469 3576 
Q 2541 3569 2628 3553 
L 2631 2963 
z
" transform="scale(0.015625)"/>
       <path id="DejaVuSans-63" d="M 3122 3366 
L 3122 2828 
Q 2878 2963 2633 3030 
Q 2388 3097 2138 3097 
Q 1578 3097 1268 2742 
Q 959 2388 959 1747 
Q 959 1106 1268 751 
Q 1578 397 2138 397 
Q 2388 397 2633 464 
Q 2878 531 3122 666 
L 3122 134 
Q 2881 22 2623 -34 
Q 2366 -91 2075 -91 
Q 1284 -91 818 406 
Q 353 903 353 1747 
Q 353 2603 823 3093 
Q 1294 3584 2113 3584 
Q 2378 3584 2631 3529 
Q 2884 3475 3122 3366 
z
" transform="scale(0.015625)"/>
       <path id="DejaVuSans-74" d="M 1172 4494 
L 1172 3500 
L 2356 3500 
L 2356 3053 
L 1172 3053 
L 1172 1153 
Q 1172 725 1289 603 
Q 1406 481 1766 481 
L 2356 481 
L 2356 0 
L 1766 0 
Q 1100 0 847 248 
Q 594 497 594 1153 
L 594 3053 
L 172 3053 
L 172 3500 
L 594 3500 
L 594 4494 
L 1172 4494 
z
" transform="scale(0.015625)"/>
       <path id="DejaVuSans-75" d="M 544 1381 
L 544 3500 
L 1119 3500 
L 1119 1403 
Q 1119 906 1312 657 
Q 1506 409 1894 409 
Q 2359 409 2629 706 
Q 2900 1003 2900 1516 
L 2900 3500 
L 3475 3500 
L 3475 0 
L 2900 0 
L 2900 538 
Q 2691 219 2414 64 
Q 2138 -91 1772 -91 
Q 1169 -91 856 284 
Q 544 659 544 1381 
z
M 1991 3584 
L 1991 3584 
z
" transform="scale(0.015625)"/>
       <path id="DejaVuSans-2c" d="M 750 794 
L 1409 794 
L 1409 256 
L 897 -744 
L 494 -744 
L 750 256 
L 750 794 
z
" transform="scale(0.015625)"/>
       <path id="DejaVuSans-70" d="M 1159 525 
L 1159 -1331 
L 581 -1331 
L 581 3500 
L 1159 3500 
L 1159 2969 
Q 1341 3281 1617 3432 
Q 1894 3584 2278 3584 
Q 2916 3584 3314 3078 
Q 3713 2572 3713 1747 
Q 3713 922 3314 415 
Q 2916 -91 2278 -91 
Q 1894 -91 1617 61 
Q 1341 213 1159 525 
z
M 3116 1747 
Q 3116 2381 2855 2742 
Q 2594 3103 2138 3103 
Q 1681 3103 1420 2742 
Q 1159 2381 1159 1747 
Q 1159 1113 1420 752 
Q 1681 391 2138 391 
Q 2594 391 2855 752 
Q 3116 1113 3116 1747 
z
" transform="scale(0.015625)"/>
      </defs>
      <use xlink:href="#DejaVuSans-46"/>
      <use xlink:href="#DejaVuSans-72" x="50.269531"/>
      <use xlink:href="#DejaVuSans-61" x="91.382812"/>
      <use xlink:href="#DejaVuSans-63" x="152.662109"/>
      <use xlink:href="#DejaVuSans-74" x="207.642578"/>
      <use xlink:href="#DejaVuSans-69" x="246.851562"/>
      <use xlink:href="#DejaVuSans-6f" x="274.634766"/>
      <use xlink:href="#DejaVuSans-6e" x="335.816406"/>
      <use xlink:href="#DejaVuSans-20" x="399.195312"/>
      <use xlink:href="#DejaVuSans-6f" x="430.982422"/>
      <use xlink:href="#DejaVuSans-66" x="492.164062"/>
      <use xlink:href="#DejaVuSans-20" x="527.369141"/>
      <use xlink:href="#DejaVuSans-66" x="559.15625"/>
      <use xlink:href="#DejaVuSans-75" x="594.361328"/>
      <use xlink:href="#DejaVuSans-6e" x="657.740234"/>
      <use xlink:href="#DejaVuSans-63" x="721.119141"/>
      <use xlink:href="#DejaVuSans-74" x="776.099609"/>
      <use xlink:href="#DejaVuSans-69" x="815.308594"/>
      <use xlink:href="#DejaVuSans-6f" x="843.091797"/>
      <use xlink:href="#DejaVuSans-6e" x="904.273438"/>
      <use xlink:href="#DejaVuSans-2c" x="967.652344"/>
      <use xlink:href="#DejaVuSans-74" x="999.439453"/>
      <use xlink:href="#DejaVuSans-61" x="1038.648438"/>
      <use xlink:href="#DejaVuSans-72" x="1099.927734"/>
      <use xlink:href="#DejaVuSans-67" x="1139.291016"/>
      <use xlink:href="#DejaVuSans-65" x="1202.767578"/>
      <use xlink:href="#DejaVuSans-74" x="1264.291016"/>
      <use xlink:href="#DejaVuSans-20" x="1303.5"/>
      <use xlink:href="#DejaVuSans-70" x="1335.287109"/>
      <use xlink:href="#DejaVuSans-61" x="1398.763672"/>
      <use xlink:href="#DejaVuSans-69" x="1460.042969"/>
      <use xlink:href="#DejaVuSans-72" x="1487.826172"/>
      <use xlink:href="#DejaVuSans-73" x="1528.939453"/>
     </g>
    </g>
   </g>
   <g id="line2d_33">
    <defs>
     <path id="m88e16adde2" d="M 0 1.5 
C 0.397805 1.5 0.77937 1.341951 1.06066 1.06066 
C 1.341951 0.77937 1.5 0.397805 1.5 0 
C 1.5 -0.397805 1.341951 -0.77937 1.06066 -1.06066 
C 0.77937 -1.341951 0.397805 -1.5 0 -1.5 
C -0.397805 -1.5 -0.77937 -1.341951 -1.06066 -1.06066 
C -1.341951 -0.77937 -1.5 -0.397805 -1.5 0 
C -1.5 0.397805 -1.341951 0.77937 -1.06066 1.06066 
C -0.77937 1.341951 -0.397805 1.5 0 1.5 
z
" style="stroke: #f5deb3"/>
    </defs>
    <g>
     <use xlink:href="#m88e16adde2" x="138.395904" y="27.648" style="fill: #f5deb3; stroke: #f5deb3"/>
     <use xlink:href="#m88e16adde2" x="138.395904" y="27.648" style="fill: #f5deb3; stroke: #f5deb3"/>
    </g>
   </g>
   <g id="line2d_34">
    <defs>
     <path id="m14eb306817" d="M 0 1.5 
C 0.397805 1.5 0.77937 1.341951 1.06066 1.06066 
C 1.341951 0.77937 1.5 0.397805 1.5 0 
C 1.5 -0.397805 1.341951 -0.77937 1.06066 -1.06066 
C 0.77937 -1.341951 0.397805 -1.5 0 -1.5 
C -0.397805 -1.5 -0.77937 -1.341951 -1.06066 -1.06066 
C -1.341951 -0.77937 -1.5 -0.397805 -1.5 0 
C -1.5 0.397805 -1.341951 0.77937 -1.06066 1.06066 
C -0.77937 1.341951 -0.397805 1.5 0 1.5 
z
" style="stroke: #000080"/>
    </defs>
    <g>
     <use xlink:href="#m14eb306817" x="185.660895" y="27.648" style="fill: #000080; stroke: #000080"/>
     <use xlink:href="#m14eb306817" x="185.660895" y="27.648" style="fill: #000080; stroke: #000080"/>
    </g>
   </g>
   <g id="line2d_35">
    <path d="M 36.933397 298.944 
L 36.933397 268.090729 
L 49.972572 268.090729 
L 49.972572 262.983981 
L 57.6 262.983981 
L 57.6 260.643388 
L 63.011746 260.643388 
L 63.011746 257.451671 
L 67.209423 257.451671 
L 67.209423 256.387765 
L 70.639174 256.387765 
L 70.639174 255.749421 
L 73.538988 255.749421 
L 73.538988 255.111078 
L 76.050921 255.111078 
L 76.050921 254.898296 
L 78.266603 254.898296 
L 78.266603 253.196047 
L 80.248597 253.196047 
L 80.248597 251.706579 
L 82.04153 251.706579 
L 82.04153 250.997308 
L 83.678349 250.997308 
L 83.678349 250.7136 
L 85.184077 250.7136 
L 85.184077 250.500819 
L 86.578163 250.500819 
L 86.578163 250.288038 
L 89.090095 250.288038 
L 89.090095 249.365986 
L 90.230539 249.365986 
L 90.230539 248.727642 
L 91.305777 248.727642 
L 91.305777 248.373007 
L 92.322865 248.373007 
L 92.322865 247.734664 
L 94.205591 247.734664 
L 94.205591 246.032414 
L 95.080704 246.032414 
L 95.080704 245.819633 
L 95.916911 245.819633 
L 95.916911 245.606852 
L 96.717523 245.606852 
L 96.717523 244.755727 
L 97.485448 244.755727 
L 97.485448 243.904602 
L 98.223251 243.904602 
L 98.223251 243.762748 
L 98.933205 243.762748 
L 98.933205 243.549967 
L 99.617337 243.549967 
L 99.617337 242.911624 
L 100.277459 242.911624 
L 100.277459 240.996593 
L 100.9152 240.996593 
L 100.9152 240.074541 
L 101.532027 240.074541 
L 101.532027 240.003614 
L 101.532027 239.578052 
L 102.12927 239.578052 
L 102.12927 239.081562 
L 102.708132 239.081562 
L 102.708132 238.443219 
L 103.269713 238.443219 
L 103.269713 238.230438 
L 103.815014 238.230438 
L 103.815014 238.017656 
L 104.860369 238.017656 
L 104.860369 236.173553 
L 105.36204 236.173553 
L 105.36204 236.031699 
L 105.850679 236.031699 
L 105.850679 235.818918 
L 106.326946 235.818918 
L 106.326946 235.606136 
L 106.791453 235.606136 
L 106.791453 235.322428 
L 107.244765 235.322428 
L 107.244765 234.967793 
L 107.68741 234.967793 
L 107.68741 234.542231 
L 108.542628 234.542231 
L 108.542628 233.83296 
L 108.956085 233.83296 
L 108.956085 233.691106 
L 109.360651 233.691106 
L 109.360651 233.407398 
L 109.756698 233.407398 
L 109.756698 233.194616 
L 110.897141 233.123689 
L 110.897141 231.917929 
L 111.262425 231.917929 
L 111.262425 231.705148 
L 111.620752 231.705148 
L 111.620752 231.492367 
L 111.97238 231.492367 
L 111.97238 230.570315 
L 112.317555 230.570315 
L 112.317555 229.931972 
L 112.656511 229.931972 
L 112.656511 229.861045 
L 112.656511 229.577336 
L 112.989468 229.577336 
L 112.989468 228.726212 
L 113.954374 228.655285 
L 113.954374 227.307671 
L 114.571202 227.236744 
L 114.571202 226.5984 
L 114.872193 226.5984 
L 114.872193 226.172838 
L 115.168444 226.172838 
L 115.168444 225.818202 
L 115.460102 225.818202 
L 115.460102 225.39264 
L 115.747307 225.39264 
L 115.747307 224.399661 
L 116.308887 224.328734 
L 116.308887 224.257807 
L 116.583514 224.257807 
L 116.583514 224.045026 
L 116.854188 224.045026 
L 116.854188 223.832245 
L 117.121023 223.832245 
L 117.121023 223.548536 
L 117.384126 223.548536 
L 117.384126 223.122974 
L 117.6436 223.122974 
L 117.6436 222.200922 
L 117.899543 222.200922 
L 117.899543 221.633506 
L 118.152051 221.633506 
L 118.152051 221.278871 
L 118.401214 221.278871 
L 118.401214 220.285892 
L 118.889854 220.214965 
L 118.889854 220.144038 
L 119.129494 220.144038 
L 119.129494 219.292913 
L 119.366121 219.292913 
L 119.366121 218.796424 
L 119.599808 218.796424 
L 119.599808 217.732518 
L 119.830627 217.732518 
L 119.830627 217.165101 
L 120.28394 217.094174 
L 120.28394 216.384904 
L 120.506564 216.384904 
L 120.506564 216.243049 
L 120.944062 216.243049 
L 120.944062 216.030268 
L 121.159053 216.030268 
L 121.159053 215.462852 
L 121.581803 215.462852 
L 121.581803 214.895435 
L 121.789667 214.895435 
L 121.789667 214.682654 
L 121.99526 214.611727 
L 121.99526 214.398946 
L 122.19863 214.398946 
L 122.19863 213.973384 
L 122.399825 213.973384 
L 122.399825 212.909478 
L 122.598891 212.909478 
L 122.598891 212.696696 
L 122.990812 212.696696 
L 122.990812 212.271134 
L 123.183753 212.271134 
L 123.183753 212.058353 
L 123.374735 212.058353 
L 123.374735 211.632791 
L 123.563797 211.632791 
L 123.563797 211.561864 
L 123.563797 211.136301 
L 123.936316 211.136301 
L 123.936316 210.285176 
L 124.119844 210.285176 
L 124.119844 209.292198 
L 124.3016 209.292198 
L 124.3016 208.370146 
L 124.659926 208.370146 
L 124.659926 208.228292 
L 124.836562 208.228292 
L 124.836562 207.660875 
L 125.011554 207.660875 
L 125.011554 207.235313 
L 125.35673 207.235313 
L 125.35673 206.526042 
L 125.526971 206.526042 
L 125.526971 204.89472 
L 125.695686 204.89472 
L 125.695686 203.972668 
L 125.862901 203.972668 
L 125.862901 203.547106 
L 126.028642 203.547106 
L 126.028642 202.695981 
L 126.355808 202.625054 
L 126.355808 201.773929 
L 126.517282 201.773929 
L 126.517282 201.490221 
L 126.677381 201.490221 
L 126.677381 201.27744 
L 126.836129 201.27744 
L 126.836129 201.064659 
L 126.993549 201.064659 
L 126.993549 200.710024 
L 127.304491 200.639096 
L 127.304491 200.426315 
L 127.610376 200.355388 
L 127.610376 200.284461 
L 127.761474 200.284461 
L 127.761474 200.142607 
L 128.207619 200.07168 
L 128.207619 200.000753 
L 128.354013 200.000753 
L 128.354013 199.717045 
L 128.643427 199.717045 
L 128.643427 198.724066 
L 128.786481 198.724066 
L 128.786481 198.014795 
L 128.928456 198.014795 
L 128.928456 197.163671 
L 129.069367 197.163671 
L 129.069367 196.879962 
L 129.209231 196.879962 
L 129.209231 195.745129 
L 129.348062 195.745129 
L 129.348062 195.390494 
L 129.485876 195.390494 
L 129.485876 194.823078 
L 129.758512 194.823078 
L 129.758512 194.468442 
L 129.893363 194.468442 
L 129.893363 193.688245 
L 130.027253 193.688245 
L 130.027253 193.191755 
L 130.4233 193.191755 
L 130.4233 192.056922 
L 130.682774 191.985995 
L 130.682774 191.915068 
L 130.811181 191.915068 
L 130.811181 191.489506 
L 130.938718 191.489506 
L 130.938718 190.993016 
L 131.065395 190.993016 
L 131.065395 190.000038 
L 131.31622 190.000038 
L 131.31622 189.432621 
L 131.563744 189.361694 
L 131.563744 188.226861 
L 131.808053 188.226861 
L 131.808053 188.085007 
L 131.929028 188.085007 
L 131.929028 187.872226 
L 132.04923 187.872226 
L 132.04923 187.375736 
L 132.168669 187.375736 
L 132.168669 187.162955 
L 132.287354 187.162955 
L 132.287354 186.737393 
L 132.638982 186.666466 
L 132.638982 185.673487 
L 132.754746 185.673487 
L 132.754746 185.460706 
L 132.869802 185.460706 
L 132.869802 184.822362 
L 132.984158 184.822362 
L 132.984158 184.538654 
L 133.210806 184.467727 
L 133.210806 184.3968 
L 133.323114 184.3968 
L 133.323114 184.113092 
L 133.434756 184.113092 
L 133.545739 182.765478 
L 133.656071 182.765478 
L 133.765759 180.77952 
L 133.874812 180.77952 
L 133.874812 180.708593 
L 133.983236 180.283031 
L 134.198228 180.212104 
L 134.304809 179.006344 
L 134.516177 179.006344 
L 134.620977 178.155219 
L 134.725196 178.155219 
L 134.828842 177.587802 
L 134.931919 177.587802 
L 135.034434 176.452969 
L 135.136394 176.452969 
L 135.237805 175.530918 
L 135.338671 175.530918 
L 135.438999 174.608866 
L 135.638065 174.608866 
L 135.736814 173.686814 
L 135.932769 173.615887 
L 136.029987 173.048471 
L 136.126705 173.048471 
L 136.222928 171.488075 
L 136.318661 171.488075 
L 136.413909 171.13344 
L 136.508678 171.13344 
L 136.602972 170.069534 
L 136.790153 169.998607 
L 136.790153 169.92768 
L 136.97549 169.92768 
L 137.067478 169.076555 
L 137.159019 169.076555 
L 137.250116 167.303379 
L 137.340774 167.303379 
L 137.430998 166.3104 
L 137.520791 166.3104 
L 137.610157 165.955765 
L 137.699101 165.955765 
L 137.787626 165.175567 
L 137.963436 165.175567 
L 137.963436 165.10464 
L 138.050729 164.253515 
L 138.137618 164.253515 
L 138.224108 163.827953 
L 138.395904 163.827953 
L 138.481218 163.544245 
L 138.818654 163.473318 
L 138.902075 162.409412 
L 138.985129 162.409412 
L 139.067817 162.054776 
L 139.150143 162.054776 
L 139.150143 161.841995 
L 139.313723 161.841995 
L 139.394983 160.849016 
L 139.475893 160.849016 
L 139.475893 159.785111 
L 139.636676 159.785111 
L 139.636676 159.217694 
L 140.032723 159.217694 
L 140.110942 158.650278 
L 140.188837 158.579351 
L 140.26641 158.366569 
L 140.343665 158.366569 
L 140.420604 156.948028 
L 140.649551 156.948028 
L 140.725251 156.522466 
L 140.800648 156.522466 
L 140.875745 155.742268 
L 140.950542 155.742268 
L 141.025043 155.316706 
L 141.099251 155.316706 
L 141.099251 155.245779 
L 141.099251 155.174852 
L 141.465959 155.103925 
L 141.538451 154.678362 
L 141.610664 154.678362 
L 141.682602 153.614456 
L 141.754265 153.614456 
L 141.825656 152.976113 
L 141.896777 152.976113 
L 141.96763 152.054061 
L 142.108542 152.054061 
L 142.178603 151.415718 
L 142.248405 151.415718 
L 142.317949 150.564593 
L 142.45627 150.493666 
L 142.525051 149.784395 
L 142.593581 149.784395 
L 142.661862 149.146052 
L 142.797687 149.146052 
L 142.865233 148.649562 
L 142.932537 148.649562 
L 142.999601 148.365854 
L 143.066428 148.365854 
L 143.133017 147.656584 
L 143.265494 147.585656 
L 143.331383 147.01824 
L 143.397043 147.01824 
L 143.397043 146.876386 
L 143.657415 146.805459 
L 143.657415 146.379896 
L 143.786262 146.379896 
L 143.786262 146.025261 
L 143.914232 146.025261 
L 143.977892 145.103209 
L 144.10457 145.032282 
L 144.16759 144.60672 
L 144.355394 144.535793 
L 144.355394 142.549835 
L 144.479563 142.549835 
L 144.541342 141.698711 
L 144.664294 141.627784 
L 144.725469 141.485929 
L 144.847227 141.415002 
L 144.907812 139.641826 
L 145.0284 139.641826 
L 145.088405 138.719774 
L 145.207843 138.648847 
L 145.26728 138.223285 
L 145.326529 138.223285 
L 145.385592 137.655868 
L 145.561676 137.655868 
L 145.620007 136.804744 
L 145.736128 136.804744 
L 145.79392 136.591962 
L 145.851536 136.591962 
L 145.908976 136.095473 
L 145.966241 136.095473 
L 146.023332 135.811765 
L 146.136998 135.811765 
L 146.136998 135.740838 
L 146.193574 135.528056 
L 146.418192 135.528056 
L 146.47393 134.818786 
L 146.529503 134.818786 
L 146.584913 134.322296 
L 146.695245 134.322296 
L 146.804934 133.825807 
L 146.859539 133.825807 
L 146.968277 133.187464 
L 147.022411 133.187464 
L 147.076389 132.832828 
L 147.183884 132.832828 
L 147.290768 132.265412 
L 147.397049 132.265412 
L 147.502732 131.059652 
L 147.660152 130.988725 
L 147.764371 130.350381 
L 147.816265 130.350381 
L 147.868016 129.073694 
L 147.971093 129.073694 
L 148.022421 127.867934 
L 148.226342 127.797007 
L 148.32748 127.300518 
L 148.377845 127.300518 
L 148.377845 127.229591 
L 148.478174 126.733101 
L 148.627671 126.662174 
L 148.67724 126.094758 
L 148.825169 126.023831 
L 148.923146 125.31456 
L 148.971944 125.31456 
L 149.069161 125.030852 
L 149.117582 125.030852 
L 149.165879 124.605289 
L 149.31003 124.534362 
L 149.40552 123.966946 
L 149.500528 123.966946 
L 149.595059 122.90304 
L 149.642146 122.90304 
L 149.73597 122.122842 
L 149.782707 122.122842 
L 149.829328 121.413572 
L 150.060715 121.342645 
L 150.152479 120.775228 
L 150.289291 120.775228 
L 150.379949 119.002052 
L 150.470172 118.931125 
L 150.559965 118.647416 
L 150.693856 118.576489 
L 150.78259 117.370729 
L 150.8268 117.370729 
L 150.914911 116.306824 
L 151.00261 116.306824 
L 151.089903 115.739407 
L 151.220087 115.66848 
L 151.306379 114.604574 
L 151.435079 114.533647 
L 151.520392 113.115106 
L 151.647641 113.044179 
L 151.731998 112.760471 
L 151.815978 112.689544 
L 151.899585 110.916367 
L 151.94125 110.916367 
L 151.982822 110.348951 
L 152.065693 110.348951 
L 152.1482 109.710607 
L 152.189318 109.710607 
L 152.271285 108.930409 
L 152.312136 108.930409 
L 152.393571 108.575774 
L 152.434157 108.575774 
L 152.474656 107.795576 
L 152.555392 107.724649 
L 152.555392 107.724649 
L 152.635783 107.086306 
L 152.675851 107.086306 
L 152.75573 106.447962 
L 152.953957 106.377035 
L 153.032666 105.667765 
L 153.111048 105.596838 
L 153.189104 105.171275 
L 153.266838 105.100348 
L 153.305585 104.249224 
L 153.459779 104.178296 
L 153.459779 103.894588 
L 153.5746 103.894588 
L 153.650761 103.469026 
L 153.688725 103.469026 
L 153.764426 102.40512 
L 153.839823 102.334193 
L 153.914919 101.979558 
L 153.989717 101.908631 
L 154.064218 101.483068 
L 154.101358 101.483068 
L 154.212341 100.773798 
L 154.24919 100.773798 
L 154.359307 99.922673 
L 154.432362 99.922673 
L 154.541415 99.426184 
L 154.577625 99.426184 
L 154.685842 98.291351 
L 154.757642 98.220424 
L 154.86483 96.234466 
L 154.900425 96.234466 
L 154.900425 96.163539 
L 154.971412 95.667049 
L 155.077392 95.596122 
L 155.147716 94.603144 
L 155.357123 94.532216 
L 155.426411 93.681092 
L 155.495444 93.681092 
L 155.564225 92.900894 
L 155.666927 92.829967 
L 155.769072 92.475332 
L 155.802997 92.475332 
L 155.904407 91.056791 
L 155.971711 90.985864 
L 156.072219 89.283614 
L 156.138926 89.212687 
L 156.238546 88.503416 
L 156.337642 88.503416 
L 156.436218 87.226729 
L 156.468962 87.226729 
L 156.468962 87.155802 
L 156.566854 86.801167 
L 156.599372 86.801167 
L 156.664239 86.020969 
L 156.761123 85.950042 
L 156.793307 84.744282 
L 156.953406 84.673355 
L 157.048816 84.105939 
L 157.080512 84.105939 
L 157.175281 82.474616 
L 157.238196 82.474616 
L 157.238196 82.190908 
L 157.394569 82.190908 
L 157.487772 80.843294 
L 157.518738 80.843294 
L 157.518738 80.772367 
L 157.61133 79.992169 
L 157.672805 79.992169 
L 157.672805 79.921242 
L 157.764644 78.786409 
L 157.795157 78.786409 
L 157.886402 78.077139 
L 157.916719 78.077139 
L 157.977206 77.580649 
L 158.0375 77.580649 
L 158.0976 76.303962 
L 158.217229 76.233035 
L 158.306454 75.027275 
L 158.365703 74.956348 
L 158.424766 74.176151 
L 158.513014 74.105224 
L 158.600851 73.325026 
L 158.630038 73.325026 
L 158.717331 72.615755 
L 158.746339 72.615755 
L 158.833095 72.190193 
L 158.861925 72.119266 
L 158.948151 71.409995 
L 159.033983 71.409995 
L 159.119425 70.842579 
L 159.176172 70.771652 
L 159.232748 70.417016 
L 159.289155 70.417016 
L 159.373449 69.565892 
L 159.429436 69.565892 
L 159.485256 69.140329 
L 159.540912 69.140329 
L 159.624087 68.501986 
L 159.679334 68.501986 
L 159.789344 68.218278 
L 159.844108 68.147351 
L 159.953161 67.225299 
L 160.034538 67.154372 
L 160.142495 66.657882 
L 160.169388 66.657882 
L 160.169388 66.586955 
L 160.249837 66.019539 
L 160.329943 65.948612 
L 160.436223 65.097487 
L 160.489139 65.02656 
L 160.568234 64.600998 
L 160.620781 64.600998 
L 160.725435 63.608019 
L 160.777545 63.608019 
L 160.881333 62.898748 
L 160.933013 62.827821 
L 161.035949 62.331332 
L 161.061595 62.331332 
L 161.163832 61.834842 
L 161.214743 61.763915 
L 161.290852 61.480207 
L 161.366654 61.480207 
L 161.391854 61.267426 
L 161.492316 61.267426 
L 161.592245 60.274447 
L 161.642011 60.20352 
L 161.74115 59.636104 
L 161.765853 59.636104 
L 161.815163 58.430344 
L 161.913396 58.430344 
L 162.011118 57.650146 
L 162.03547 57.650146 
L 162.132562 57.295511 
L 162.180921 57.224584 
L 162.277267 56.089751 
L 162.349204 56.018824 
L 162.444694 55.238626 
L 162.610645 55.167699 
L 162.704821 54.17472 
L 162.798527 54.103793 
L 162.891769 53.678231 
L 162.915008 53.678231 
L 163.007676 53.181741 
L 163.053839 53.181741 
L 163.122872 52.330616 
L 163.214524 52.330616 
L 163.214524 52.259689 
L 163.282972 51.692273 
L 163.351171 51.621346 
L 163.44172 51.053929 
L 163.464289 51.053929 
L 163.554297 50.060951 
L 163.621521 50.060951 
L 163.688506 49.777242 
L 163.755253 49.777242 
L 163.755253 49.635388 
L 163.954085 49.564461 
L 164.063646 48.997045 
L 164.150838 48.926118 
L 164.259262 48.642409 
L 164.345553 48.571482 
L 164.410013 48.074993 
L 164.729041 48.004066 
L 164.834193 47.507576 
L 164.855153 47.507576 
L 164.93876 47.011087 
L 165.042749 47.011087 
L 165.146166 46.372744 
L 165.187374 46.301816 
L 165.290001 45.7344 
L 165.371702 45.663473 
L 165.473332 45.166984 
L 165.493592 45.166984 
L 165.493592 45.096056 
L 165.594566 44.670494 
L 165.654892 44.670494 
L 165.654892 44.599567 
L 165.755007 44.315859 
L 165.794904 44.244932 
L 165.894279 43.606588 
L 165.914091 43.606588 
L 165.933882 43.393807 
L 166.091467 43.32288 
L 166.150222 43.181026 
L 166.286609 43.110099 
L 166.383426 42.400828 
L 166.498953 42.329901 
L 166.594686 41.904339 
L 166.670924 41.833412 
L 166.708927 41.549704 
L 166.8036 41.478776 
L 166.878997 41.053214 
L 166.916583 41.053214 
L 166.991529 40.627652 
L 167.028891 40.627652 
L 167.103392 40.343944 
L 167.214594 40.273016 
L 167.288365 39.776527 
L 167.416772 39.7056 
L 167.471536 39.209111 
L 167.580589 39.138184 
L 167.598703 38.996329 
L 167.76095 38.925402 
L 167.832614 38.783548 
L 167.886182 38.783548 
L 167.975126 38.357986 
L 168.081306 38.287059 
L 168.169334 37.719642 
L 168.239461 37.648715 
L 168.326754 37.29408 
L 168.396298 37.223153 
L 168.465585 36.726664 
L 168.517384 36.726664 
L 168.517384 36.655736 
L 168.620556 36.372028 
L 168.740211 36.301101 
L 168.842171 35.875539 
L 168.926718 35.804612 
L 169.010886 35.591831 
L 169.128092 35.520904 
L 169.211366 35.308122 
L 169.360337 35.237195 
L 169.360337 35.166268 
L 169.508137 35.166268 
L 169.508137 35.095341 
L 169.573454 34.953487 
L 169.638546 34.88256 
L 169.638546 34.740706 
L 169.832482 34.669779 
L 169.832482 34.598852 
L 170.024438 34.527925 
L 170.103845 34.244216 
L 170.214455 34.173289 
L 170.308749 33.960508 
L 170.433743 33.889581 
L 170.526947 33.747727 
L 170.604265 33.6768 
L 170.665892 33.534946 
L 170.895211 33.534946 
L 170.895211 33.464019 
L 170.955893 33.251238 
L 171.046551 33.180311 
L 171.106748 32.967529 
L 171.345629 32.896602 
L 171.449192 32.683821 
L 171.654625 32.612894 
L 171.727453 32.400113 
L 171.987325 32.329186 
L 171.987325 32.258259 
L 172.1586 32.187332 
L 172.229507 32.045478 
L 172.412623 31.974551 
L 172.510491 31.690842 
L 172.62172 31.619915 
L 172.732295 31.26528 
L 173.005923 31.194353 
L 173.046626 30.981572 
L 173.475398 30.910645 
L 173.501874 30.768791 
L 173.77765 30.697864 
L 173.881654 30.414155 
L 174.049442 30.343228 
L 174.049442 30.272301 
L 174.367966 30.201374 
L 174.367966 30.130447 
L 174.743209 30.05952 
L 174.743209 29.988593 
L 175.195931 29.917666 
L 175.26833 29.775812 
L 175.376408 29.704885 
L 175.448117 29.350249 
L 175.790907 29.279322 
L 175.790907 29.208395 
L 176.242267 29.137468 
L 176.344907 28.924687 
L 176.660695 28.85376 
L 176.660695 28.782833 
L 177.609378 28.711906 
L 177.694258 28.570052 
L 178.123358 28.499125 
L 178.123358 28.428198 
L 178.704102 28.357271 
L 178.764203 28.215416 
L 178.923539 28.144489 
L 178.923539 28.073562 
L 181.120481 28.002635 
L 181.120481 27.931708 
L 181.898286 27.860781 
L 181.898286 27.789854 
L 185.660895 27.718927 
L 185.660895 27.648 
L 360.8064 27.648 
L 360.8064 27.648 
" style="fill: none; stroke: #000080; stroke-width: 1.5; stroke-linecap: square"/>
   </g>
   <g id="line2d_36">
    <defs>
     <path id="m635fad024a" d="M 0 6 
C 1.591219 6 3.117479 5.367802 4.242641 4.242641 
C 5.367802 3.117479 6 1.591219 6 0 
C 6 -1.591219 5.367802 -3.117479 4.242641 -4.242641 
C 3.117479 -5.367802 1.591219 -6 0 -6 
C -1.591219 -6 -3.117479 -5.367802 -4.242641 -4.242641 
C -5.367802 -3.117479 -6 -1.591219 -6 0 
C -6 1.591219 -5.367802 3.117479 -4.242641 4.242641 
C -3.117479 5.367802 -1.591219 6 0 6 
z
" style="stroke: #000080; stroke-width: 1.5"/>
    </defs>
    <g>
     <use xlink:href="#m635fad024a" x="95.080704" y="246.032414" style="fill-opacity: 0; stroke: #000080; stroke-width: 1.5"/>
     <use xlink:href="#m635fad024a" x="137.520791" y="166.168546" style="fill-opacity: 0; stroke: #000080; stroke-width: 1.5"/>
     <use xlink:href="#m635fad024a" x="175.790907" y="29.279322" style="fill-opacity: 0; stroke: #000080; stroke-width: 1.5"/>
     <use xlink:href="#m635fad024a" x="185.660895" y="27.648" style="fill-opacity: 0; stroke: #000080; stroke-width: 1.5"/>
     <use xlink:href="#m635fad024a" x="185.660895" y="27.648" style="fill-opacity: 0; stroke: #000080; stroke-width: 1.5"/>
     <use xlink:href="#m635fad024a" x="360.8064" y="27.648" style="fill-opacity: 0; stroke: #000080; stroke-width: 1.5"/>
    </g>
   </g>
   <g id="line2d_37">
    <path style="fill: none; stroke: #000080; stroke-width: 1.5; stroke-linecap: square"/>
    <g/>
   </g>
   <g id="line2d_38">
    <path d="M 104.860369 236.173553 
" clip-path="url(#pae8dd6c1a7)" style="fill: none; stroke: #000080; stroke-width: 1.5; stroke-linecap: square"/>
    <defs>
     <path id="m0ad7664acc" d="M -12 12 
L 12 -12 
M -12 -12 
L 12 12 
" style="stroke: #000080"/>
    </defs>
    <g clip-path="url(#pae8dd6c1a7)">
     <use xlink:href="#m0ad7664acc" x="104.860369" y="236.173553" style="fill: #000080; stroke: #000080"/>
    </g>
   </g>
   <g id="line2d_39">
    <defs>
     <path id="mb2ad1e5d3c" d="M 0 1.5 
C 0.397805 1.5 0.77937 1.341951 1.06066 1.06066 
C 1.341951 0.77937 1.5 0.397805 1.5 0 
C 1.5 -0.397805 1.341951 -0.77937 1.06066 -1.06066 
C 0.77937 -1.341951 0.397805 -1.5 0 -1.5 
C -0.397805 -1.5 -0.77937 -1.341951 -1.06066 -1.06066 
C -1.341951 -0.77937 -1.5 -0.397805 -1.5 0 
C -1.5 0.397805 -1.341951 0.77937 -1.06066 1.06066 
C -0.77937 1.341951 -0.397805 1.5 0 1.5 
z
" style="stroke: #ff00ff"/>
    </defs>
    <g>
     <use xlink:href="#mb2ad1e5d3c" x="164.559567" y="27.648" style="fill: #ff00ff; stroke: #ff00ff"/>
     <use xlink:href="#mb2ad1e5d3c" x="164.559567" y="27.648" style="fill: #ff00ff; stroke: #ff00ff"/>
    </g>
   </g>
   <g id="line2d_40">
    <path d="M 36.933397 298.944 
L 36.933397 271.991718 
L 49.972572 271.991718 
L 49.972572 269.863906 
L 57.6 269.863906 
L 57.6 267.736094 
L 63.011746 267.736094 
L 63.011746 266.317553 
L 67.209423 266.317553 
L 67.209423 262.416565 
L 70.639174 262.416565 
L 70.639174 261.352659 
L 76.050921 261.352659 
L 76.050921 260.288753 
L 80.248597 260.288753 
L 80.248597 259.934118 
L 82.04153 259.934118 
L 82.04153 258.870212 
L 83.678349 258.870212 
L 83.678349 258.160941 
L 85.184077 258.160941 
L 85.184077 256.387765 
L 86.578163 256.387765 
L 86.578163 255.678494 
L 87.876026 255.678494 
L 87.876026 255.323859 
L 91.305777 255.323859 
L 91.305777 254.969224 
L 92.322865 254.969224 
L 92.322865 253.550682 
L 93.287772 253.550682 
L 93.287772 251.777506 
L 94.205591 251.777506 
L 94.205591 251.422871 
L 96.717523 251.422871 
L 96.717523 250.7136 
L 98.933205 250.7136 
L 98.933205 249.649694 
L 100.9152 249.649694 
L 100.9152 248.940424 
L 101.532027 248.940424 
L 101.532027 247.521882 
L 102.12927 247.521882 
L 102.12927 247.167247 
L 104.860369 247.167247 
L 104.860369 246.457976 
L 105.850679 246.457976 
L 105.850679 246.103341 
L 106.326946 246.103341 
L 106.326946 245.394071 
L 106.791453 245.394071 
L 106.791453 244.330165 
L 107.244765 244.330165 
L 107.244765 241.493082 
L 108.542628 241.493082 
L 108.542628 240.429176 
L 108.956085 240.429176 
L 108.956085 239.010635 
L 109.360651 239.010635 
L 109.360651 238.656 
L 109.756698 238.656 
L 109.756698 237.237459 
L 110.897141 237.237459 
L 110.897141 235.109647 
L 111.262425 235.109647 
L 111.262425 233.691106 
L 111.97238 233.691106 
L 111.97238 231.917929 
L 112.317555 231.917929 
L 112.317555 231.563294 
L 112.656511 231.563294 
L 112.656511 231.208659 
L 113.638206 231.208659 
L 113.638206 230.854024 
L 114.571202 230.854024 
L 114.571202 230.499388 
L 115.747307 230.499388 
L 115.747307 229.790118 
L 116.030193 229.790118 
L 116.030193 228.016941 
L 117.121023 228.016941 
L 117.121023 227.662306 
L 117.6436 227.662306 
L 117.6436 225.534494 
L 117.899543 225.534494 
L 117.899543 224.825224 
L 119.129494 224.825224 
L 119.129494 224.115953 
L 119.366121 224.115953 
L 119.366121 223.406682 
L 119.599808 223.406682 
L 119.599808 222.342776 
L 119.830627 222.342776 
L 119.830627 221.988141 
L 120.28394 221.988141 
L 120.28394 221.278871 
L 120.726585 221.278871 
L 120.726585 220.924235 
L 120.944062 220.924235 
L 120.944062 220.5696 
L 121.371615 220.5696 
L 121.371615 219.860329 
L 121.581803 219.860329 
L 121.581803 218.796424 
L 121.789667 218.796424 
L 121.789667 216.313976 
L 122.795872 216.313976 
L 122.795872 215.959341 
L 122.990812 215.959341 
L 122.990812 215.250071 
L 123.936316 215.250071 
L 123.936316 214.895435 
L 124.119844 214.895435 
L 124.119844 214.5408 
L 124.3016 214.5408 
L 124.3016 214.186165 
L 124.659926 214.186165 
L 124.659926 213.476894 
L 125.184934 213.476894 
L 125.184934 213.122259 
L 125.526971 213.122259 
L 125.526971 212.767624 
L 125.695686 212.767624 
L 125.695686 210.994447 
L 126.677381 210.994447 
L 126.677381 210.639812 
L 126.993549 210.639812 
L 126.993549 209.930541 
L 127.458055 209.930541 
L 127.458055 209.575906 
L 127.610376 209.575906 
L 127.610376 209.221271 
L 127.911368 209.221271 
L 127.911368 208.512 
L 128.354013 208.512 
L 128.354013 207.448094 
L 128.499277 207.448094 
L 128.499277 207.093459 
L 128.928456 207.093459 
L 128.928456 206.384188 
L 129.209231 206.384188 
L 129.209231 205.674918 
L 129.485876 205.674918 
L 129.485876 204.611012 
L 129.758512 204.611012 
L 129.758512 204.256376 
L 130.027253 204.256376 
L 130.027253 203.901741 
L 130.160198 203.901741 
L 130.160198 201.419294 
L 130.292209 201.419294 
L 130.292209 201.064659 
L 130.553485 201.064659 
L 130.553485 199.646118 
L 130.811181 199.646118 
L 130.811181 199.291482 
L 131.065395 199.291482 
L 131.065395 196.4544 
L 131.191226 196.4544 
L 131.191226 196.099765 
L 131.31622 196.099765 
L 131.31622 195.390494 
L 131.563744 195.390494 
L 131.563744 194.681224 
L 131.808053 194.681224 
L 131.808053 194.326588 
L 131.929028 194.326588 
L 131.929028 193.262682 
L 132.522502 193.262682 
L 132.522502 192.553412 
L 132.638982 192.553412 
L 132.638982 192.198776 
L 132.869802 192.198776 
L 132.869802 191.134871 
L 132.984158 191.134871 
L 132.984158 190.780235 
L 133.210806 190.780235 
L 133.210806 190.4256 
L 133.545739 190.4256 
L 133.545739 188.652424 
L 133.874812 188.652424 
L 133.983236 186.524612 
L 134.304809 186.524612 
L 134.304809 184.751435 
L 134.725196 184.751435 
L 134.828842 183.332894 
L 134.931919 183.332894 
L 135.034434 181.205082 
L 135.438999 181.205082 
L 135.438999 180.850447 
L 135.638065 180.850447 
L 135.638065 179.786541 
L 136.508678 179.786541 
L 136.602972 178.722635 
L 136.790153 178.722635 
L 136.790153 178.368 
L 137.159019 178.368 
L 137.159019 177.658729 
L 137.430998 177.658729 
L 137.430998 176.949459 
L 137.610157 176.949459 
L 137.699101 176.240188 
L 137.787626 176.240188 
L 137.875736 175.176282 
L 137.963436 175.176282 
L 138.050729 172.693835 
L 138.310202 172.693835 
L 138.310202 172.3392 
L 138.566146 172.3392 
L 138.566146 171.629929 
L 138.902075 171.629929 
L 138.985129 170.920659 
L 139.150143 170.920659 
L 139.232111 169.856753 
L 139.475893 169.856753 
L 139.475893 169.502118 
L 139.636676 169.502118 
L 139.636676 168.792847 
L 139.954178 168.792847 
L 140.032723 167.374306 
L 140.110942 167.374306 
L 140.188837 166.665035 
L 140.26641 166.665035 
L 140.26641 166.3104 
L 140.725251 166.3104 
L 140.800648 165.246494 
L 141.099251 165.246494 
L 141.099251 163.118682 
L 141.393187 163.118682 
L 141.393187 162.764047 
L 141.610664 162.764047 
L 141.682602 162.054776 
L 141.754265 162.054776 
L 141.825656 161.345506 
L 141.896777 161.345506 
L 141.896777 160.990871 
L 142.108542 160.990871 
L 142.178603 159.217694 
L 142.248405 159.217694 
L 142.248405 158.153788 
L 142.387236 158.153788 
L 142.387236 157.799153 
L 142.525051 157.799153 
L 142.525051 157.444518 
L 142.661862 157.444518 
L 142.729897 154.2528 
L 142.865233 154.2528 
L 142.932537 153.543529 
L 143.199372 153.543529 
L 143.199372 152.479624 
L 143.331383 152.479624 
L 143.331383 152.124988 
L 143.721949 152.124988 
L 143.786262 149.287906 
L 143.850356 149.287906 
L 143.850356 148.933271 
L 143.977892 148.933271 
L 143.977892 148.224 
L 144.293001 148.224 
L 144.355394 147.160094 
L 144.417581 147.160094 
L 144.479563 146.096188 
L 144.602918 146.096188 
L 144.602918 145.032282 
L 144.725469 145.032282 
L 144.725469 144.677647 
L 144.968202 144.677647 
L 145.0284 142.904471 
L 145.326529 142.904471 
L 145.385592 140.776659 
L 145.44447 140.776659 
L 145.44447 139.003482 
L 145.79392 139.003482 
L 145.79392 138.648847 
L 145.966241 138.648847 
L 145.966241 138.294212 
L 146.080251 138.294212 
L 146.080251 137.939576 
L 146.362288 137.939576 
L 146.418192 136.875671 
L 146.47393 136.875671 
L 146.529503 135.811765 
L 146.859539 135.811765 
L 146.859539 135.457129 
L 147.022411 135.457129 
L 147.130214 133.683953 
L 147.237402 133.683953 
L 147.290768 132.620047 
L 147.449964 132.620047 
L 147.502732 130.846871 
L 147.607824 130.846871 
L 147.712333 129.428329 
L 147.764371 129.428329 
L 147.764371 129.073694 
L 147.919625 129.073694 
L 148.022421 128.364424 
L 148.124658 128.364424 
L 148.124658 126.945882 
L 148.32748 126.945882 
L 148.428077 124.818071 
L 148.67724 124.818071 
L 148.775988 123.754165 
L 148.874221 123.754165 
L 148.971944 121.626353 
L 149.117582 121.626353 
L 149.117582 121.271718 
L 149.262102 121.271718 
L 149.357835 118.434635 
L 149.40552 118.434635 
L 149.40552 117.370729 
L 149.547853 117.370729 
L 149.547853 116.306824 
L 149.689117 116.306824 
L 149.689117 115.597553 
L 149.875833 115.597553 
L 149.968501 114.888282 
L 150.014665 114.888282 
L 150.106653 114.179012 
L 150.243797 114.179012 
L 150.243797 112.405835 
L 150.425115 112.405835 
L 150.515122 111.696565 
L 150.559965 111.696565 
L 150.559965 111.341929 
L 150.78259 111.341929 
L 150.78259 110.278024 
L 150.958812 110.278024 
L 151.00261 108.504847 
L 151.089903 108.504847 
L 151.089903 107.795576 
L 151.220087 107.795576 
L 151.263283 107.086306 
L 151.392277 107.086306 
L 151.435079 106.377035 
L 151.562904 106.377035 
L 151.60532 105.313129 
L 151.689867 105.313129 
L 151.689867 104.603859 
L 151.857828 104.603859 
L 151.857828 103.894588 
L 152.024303 103.894588 
L 152.024303 103.185318 
L 152.189318 103.185318 
L 152.271285 101.412141 
L 152.312136 101.412141 
L 152.393571 100.702871 
L 152.515067 100.702871 
L 152.555392 98.929694 
L 152.715833 98.929694 
L 152.795543 97.511153 
L 152.874916 97.511153 
L 152.874916 97.156518 
L 152.993353 97.156518 
L 152.993353 96.801882 
L 153.228011 96.801882 
L 153.228011 95.737976 
L 153.344252 95.737976 
L 153.38284 94.674071 
L 153.49813 94.674071 
L 153.536404 93.610165 
L 153.650761 93.610165 
L 153.650761 92.191624 
L 153.764426 92.191624 
L 153.764426 91.836988 
L 153.914919 91.836988 
L 153.914919 91.482353 
L 154.027004 91.482353 
L 154.101358 90.063812 
L 154.322673 90.063812 
L 154.39587 88.290635 
L 154.541415 88.290635 
L 154.613767 86.162824 
L 154.685842 86.162824 
L 154.793439 85.098918 
L 154.829169 85.098918 
L 154.900425 84.389647 
L 155.006805 84.389647 
L 155.077392 83.325741 
L 155.18278 83.325741 
L 155.252711 80.843294 
L 155.322384 80.843294 
L 155.391799 78.360847 
L 155.495444 78.360847 
L 155.598521 76.587671 
L 155.632755 76.587671 
L 155.701037 75.523765 
L 155.802997 75.523765 
L 155.836861 74.459859 
L 156.038776 74.459859 
L 156.138926 71.977412 
L 156.238546 71.977412 
L 156.271636 69.8496 
L 156.403417 69.8496 
L 156.501649 68.785694 
L 156.566854 68.785694 
L 156.631834 68.076424 
L 156.696589 68.076424 
L 156.728884 65.593976 
L 156.921495 65.593976 
L 157.017067 64.884706 
L 157.080512 64.884706 
L 157.175281 61.692988 
L 157.206765 61.692988 
L 157.206765 60.983718 
L 157.332175 60.983718 
L 157.394569 59.210541 
L 157.518738 59.210541 
L 157.518738 58.501271 
L 157.642093 58.501271 
L 157.703468 57.082729 
L 157.795157 57.082729 
L 157.856036 56.373459 
L 157.946987 56.373459 
L 158.007377 55.664188 
L 158.217229 55.664188 
L 158.247018 54.954918 
L 158.395258 54.954918 
L 158.454228 51.408565 
L 158.542339 51.408565 
L 158.600851 49.635388 
L 158.688279 49.635388 
L 158.746339 48.571482 
L 158.890711 48.571482 
L 158.919453 47.152941 
L 159.005416 47.152941 
L 159.005416 46.798306 
L 159.119425 46.798306 
L 159.14782 46.089035 
L 159.260973 46.089035 
L 159.260973 45.025129 
L 159.401463 45.025129 
L 159.401463 44.670494 
L 159.679334 44.670494 
L 159.679334 44.315859 
L 159.898714 44.315859 
L 159.898714 43.606588 
L 160.034538 43.606588 
L 160.142495 42.188047 
L 160.383158 42.188047 
L 160.436223 41.478776 
L 160.699326 41.478776 
L 160.803545 37.577788 
L 161.087207 37.577788 
L 161.138325 36.868518 
L 161.391854 36.868518 
L 161.41702 36.159247 
L 161.815163 36.159247 
L 161.839769 35.449976 
L 162.011118 35.449976 
L 162.108336 34.386071 
L 162.180921 34.386071 
L 162.229155 33.322165 
L 162.39701 33.322165 
L 162.468491 32.258259 
L 162.515995 32.258259 
L 162.56338 31.548988 
L 162.704821 31.548988 
L 162.704821 31.194353 
L 163.168754 31.194353 
L 163.168754 30.839718 
L 163.373849 30.839718 
L 163.373849 30.130447 
L 163.910081 30.130447 
L 164.019898 29.421176 
L 164.237627 29.421176 
L 164.237627 29.066541 
L 164.559567 29.066541 
L 164.559567 27.648 
L 360.8064 27.648 
L 360.8064 27.648 
" style="fill: none; stroke: #ff00ff; stroke-width: 1.5; stroke-linecap: square"/>
   </g>
   <g id="line2d_41">
    <defs>
     <path id="m266a63b219" d="M -0 8.485281 
L 5.091169 0 
L 0 -8.485281 
L -5.091169 -0 
z
" style="stroke: #ff00ff; stroke-width: 1.5; stroke-linejoin: miter"/>
    </defs>
    <g>
     <use xlink:href="#m266a63b219" x="116.030193" y="229.790118" style="fill-opacity: 0; stroke: #ff00ff; stroke-width: 1.5; stroke-linejoin: miter"/>
     <use xlink:href="#m266a63b219" x="151.60532" y="105.313129" style="fill-opacity: 0; stroke: #ff00ff; stroke-width: 1.5; stroke-linejoin: miter"/>
     <use xlink:href="#m266a63b219" x="164.559567" y="29.066541" style="fill-opacity: 0; stroke: #ff00ff; stroke-width: 1.5; stroke-linejoin: miter"/>
     <use xlink:href="#m266a63b219" x="164.559567" y="27.648" style="fill-opacity: 0; stroke: #ff00ff; stroke-width: 1.5; stroke-linejoin: miter"/>
     <use xlink:href="#m266a63b219" x="164.559567" y="27.648" style="fill-opacity: 0; stroke: #ff00ff; stroke-width: 1.5; stroke-linejoin: miter"/>
     <use xlink:href="#m266a63b219" x="360.8064" y="27.648" style="fill-opacity: 0; stroke: #ff00ff; stroke-width: 1.5; stroke-linejoin: miter"/>
    </g>
   </g>
   <g id="line2d_42">
    <path style="fill: none; stroke: #ff00ff; stroke-width: 1.5; stroke-linecap: square"/>
    <g/>
   </g>
   <g id="line2d_43">
    <path d="M 360.8064 27.648 
L 380.514816 293.51808 
" style="fill: none; stroke: #000080; stroke-width: 1.5; stroke-linecap: square"/>
    <g>
     <use xlink:href="#m635fad024a" x="360.8064" y="27.648" style="fill-opacity: 0; stroke: #000080; stroke-width: 1.5"/>
     <use xlink:href="#m635fad024a" x="380.514816" y="293.51808" style="fill-opacity: 0; stroke: #000080; stroke-width: 1.5"/>
    </g>
   </g>
   <g id="line2d_44">
    <path d="M 360.8064 27.648 
L 380.514816 163.296 
" style="fill: none; stroke: #ff00ff; stroke-width: 1.5; stroke-linecap: square"/>
    <g>
     <use xlink:href="#m266a63b219" x="360.8064" y="27.648" style="fill-opacity: 0; stroke: #ff00ff; stroke-width: 1.5; stroke-linejoin: miter"/>
     <use xlink:href="#m266a63b219" x="380.514816" y="163.296" style="fill-opacity: 0; stroke: #ff00ff; stroke-width: 1.5; stroke-linejoin: miter"/>
    </g>
   </g>
   <g id="line2d_45">
    <path d="M 360.8064 298.944 
L 360.8064 27.648 
" style="fill: none; stroke: #000000; stroke-width: 1.5; stroke-linecap: square"/>
   </g>
   <g id="patch_3">
    <path d="M 57.6 298.944 
L 360.8064 298.944 
" style="fill: none; stroke: #000000; stroke-width: 0.8; stroke-linejoin: miter; stroke-linecap: square"/>
   </g>
   <g id="patch_4">
    <path d="M 57.6 27.648 
L 360.8064 27.648 
" style="fill: none; stroke: #000000; stroke-width: 0.8; stroke-linejoin: miter; stroke-linecap: square"/>
   </g>
   <g id="text_13">
    <!-- ex -->
    <g transform="translate(386.578944 297.381205)scale(0.14 -0.14)">
     <defs>
      <path id="DejaVuSans-78" d="M 3513 3500 
L 2247 1797 
L 3578 0 
L 2900 0 
L 1881 1375 
L 863 0 
L 184 0 
L 1544 1831 
L 300 3500 
L 978 3500 
L 1906 2253 
L 2834 3500 
L 3513 3500 
z
" transform="scale(0.015625)"/>
     </defs>
     <use xlink:href="#DejaVuSans-65"/>
     <use xlink:href="#DejaVuSans-78" x="59.773438"/>
    </g>
   </g>
   <g id="text_14">
    <!-- CMA-ES-20 -->
    <g transform="translate(386.578944 167.159125)scale(0.14 -0.14)">
     <defs>
      <path id="DejaVuSans-43" d="M 4122 4306 
L 4122 3641 
Q 3803 3938 3442 4084 
Q 3081 4231 2675 4231 
Q 1875 4231 1450 3742 
Q 1025 3253 1025 2328 
Q 1025 1406 1450 917 
Q 1875 428 2675 428 
Q 3081 428 3442 575 
Q 3803 722 4122 1019 
L 4122 359 
Q 3791 134 3420 21 
Q 3050 -91 2638 -91 
Q 1578 -91 968 557 
Q 359 1206 359 2328 
Q 359 3453 968 4101 
Q 1578 4750 2638 4750 
Q 3056 4750 3426 4639 
Q 3797 4528 4122 4306 
z
" transform="scale(0.015625)"/>
      <path id="DejaVuSans-4d" d="M 628 4666 
L 1569 4666 
L 2759 1491 
L 3956 4666 
L 4897 4666 
L 4897 0 
L 4281 0 
L 4281 4097 
L 3078 897 
L 2444 897 
L 1241 4097 
L 1241 0 
L 628 0 
L 628 4666 
z
" transform="scale(0.015625)"/>
      <path id="DejaVuSans-41" d="M 2188 4044 
L 1331 1722 
L 3047 1722 
L 2188 4044 
z
M 1831 4666 
L 2547 4666 
L 4325 0 
L 3669 0 
L 3244 1197 
L 1141 1197 
L 716 0 
L 50 0 
L 1831 4666 
z
" transform="scale(0.015625)"/>
      <path id="DejaVuSans-45" d="M 628 4666 
L 3578 4666 
L 3578 4134 
L 1259 4134 
L 1259 2753 
L 3481 2753 
L 3481 2222 
L 1259 2222 
L 1259 531 
L 3634 531 
L 3634 0 
L 628 0 
L 628 4666 
z
" transform="scale(0.015625)"/>
      <path id="DejaVuSans-53" d="M 3425 4513 
L 3425 3897 
Q 3066 4069 2747 4153 
Q 2428 4238 2131 4238 
Q 1616 4238 1336 4038 
Q 1056 3838 1056 3469 
Q 1056 3159 1242 3001 
Q 1428 2844 1947 2747 
L 2328 2669 
Q 3034 2534 3370 2195 
Q 3706 1856 3706 1288 
Q 3706 609 3251 259 
Q 2797 -91 1919 -91 
Q 1588 -91 1214 -16 
Q 841 59 441 206 
L 441 856 
Q 825 641 1194 531 
Q 1563 422 1919 422 
Q 2459 422 2753 634 
Q 3047 847 3047 1241 
Q 3047 1584 2836 1778 
Q 2625 1972 2144 2069 
L 1759 2144 
Q 1053 2284 737 2584 
Q 422 2884 422 3419 
Q 422 4038 858 4394 
Q 1294 4750 2059 4750 
Q 2388 4750 2728 4690 
Q 3069 4631 3425 4513 
z
" transform="scale(0.015625)"/>
     </defs>
     <use xlink:href="#DejaVuSans-43"/>
     <use xlink:href="#DejaVuSans-4d" x="69.824219"/>
     <use xlink:href="#DejaVuSans-41" x="156.103516"/>
     <use xlink:href="#DejaVuSans-2d" x="222.261719"/>
     <use xlink:href="#DejaVuSans-45" x="258.345703"/>
     <use xlink:href="#DejaVuSans-53" x="321.529297"/>
     <use xlink:href="#DejaVuSans-2d" x="385.005859"/>
     <use xlink:href="#DejaVuSans-32" x="421.089844"/>
     <use xlink:href="#DejaVuSans-30" x="484.712891"/>
    </g>
   </g>
   <g id="text_15">
    <!-- best 2009 -->
    <g transform="translate(386.578944 36.937045)scale(0.14 -0.14)">
     <defs>
      <path id="DejaVuSans-62" d="M 3116 1747 
Q 3116 2381 2855 2742 
Q 2594 3103 2138 3103 
Q 1681 3103 1420 2742 
Q 1159 2381 1159 1747 
Q 1159 1113 1420 752 
Q 1681 391 2138 391 
Q 2594 391 2855 752 
Q 3116 1113 3116 1747 
z
M 1159 2969 
Q 1341 3281 1617 3432 
Q 1894 3584 2278 3584 
Q 2916 3584 3314 3078 
Q 3713 2572 3713 1747 
Q 3713 922 3314 415 
Q 2916 -91 2278 -91 
Q 1894 -91 1617 61 
Q 1341 213 1159 525 
L 1159 0 
L 581 0 
L 581 4863 
L 1159 4863 
L 1159 2969 
z
" transform="scale(0.015625)"/>
      <path id="DejaVuSans-39" d="M 703 97 
L 703 672 
Q 941 559 1184 500 
Q 1428 441 1663 441 
Q 2288 441 2617 861 
Q 2947 1281 2994 2138 
Q 2813 1869 2534 1725 
Q 2256 1581 1919 1581 
Q 1219 1581 811 2004 
Q 403 2428 403 3163 
Q 403 3881 828 4315 
Q 1253 4750 1959 4750 
Q 2769 4750 3195 4129 
Q 3622 3509 3622 2328 
Q 3622 1225 3098 567 
Q 2575 -91 1691 -91 
Q 1453 -91 1209 -44 
Q 966 3 703 97 
z
M 1959 2075 
Q 2384 2075 2632 2365 
Q 2881 2656 2881 3163 
Q 2881 3666 2632 3958 
Q 2384 4250 1959 4250 
Q 1534 4250 1286 3958 
Q 1038 3666 1038 3163 
Q 1038 2656 1286 2365 
Q 1534 2075 1959 2075 
z
" transform="scale(0.015625)"/>
     </defs>
     <use xlink:href="#DejaVuSans-62"/>
     <use xlink:href="#DejaVuSans-65" x="63.476562"/>
     <use xlink:href="#DejaVuSans-73" x="125"/>
     <use xlink:href="#DejaVuSans-74" x="177.099609"/>
     <use xlink:href="#DejaVuSans-20" x="216.308594"/>
     <use xlink:href="#DejaVuSans-32" x="248.095703"/>
     <use xlink:href="#DejaVuSans-30" x="311.71875"/>
     <use xlink:href="#DejaVuSans-30" x="375.341797"/>
     <use xlink:href="#DejaVuSans-39" x="438.964844"/>
    </g>
   </g>
   <g id="text_16">
    <!-- bbob f14, 3-D -->
    <g transform="translate(60.632064 38.111366)scale(0.102 -0.102)">
     <defs>
      <path id="DejaVuSans-33" d="M 2597 2516 
Q 3050 2419 3304 2112 
Q 3559 1806 3559 1356 
Q 3559 666 3084 287 
Q 2609 -91 1734 -91 
Q 1441 -91 1130 -33 
Q 819 25 488 141 
L 488 750 
Q 750 597 1062 519 
Q 1375 441 1716 441 
Q 2309 441 2620 675 
Q 2931 909 2931 1356 
Q 2931 1769 2642 2001 
Q 2353 2234 1838 2234 
L 1294 2234 
L 1294 2753 
L 1863 2753 
Q 2328 2753 2575 2939 
Q 2822 3125 2822 3475 
Q 2822 3834 2567 4026 
Q 2313 4219 1838 4219 
Q 1578 4219 1281 4162 
Q 984 4106 628 3988 
L 628 4550 
Q 988 4650 1302 4700 
Q 1616 4750 1894 4750 
Q 2613 4750 3031 4423 
Q 3450 4097 3450 3541 
Q 3450 3153 3228 2886 
Q 3006 2619 2597 2516 
z
" transform="scale(0.015625)"/>
      <path id="DejaVuSans-44" d="M 1259 4147 
L 1259 519 
L 2022 519 
Q 2988 519 3436 956 
Q 3884 1394 3884 2338 
Q 3884 3275 3436 3711 
Q 2988 4147 2022 4147 
L 1259 4147 
z
M 628 4666 
L 1925 4666 
Q 3281 4666 3915 4102 
Q 4550 3538 4550 2338 
Q 4550 1131 3912 565 
Q 3275 0 1925 0 
L 628 0 
L 628 4666 
z
" transform="scale(0.015625)"/>
     </defs>
     <use xlink:href="#DejaVuSans-62"/>
     <use xlink:href="#DejaVuSans-62" x="63.476562"/>
     <use xlink:href="#DejaVuSans-6f" x="126.953125"/>
     <use xlink:href="#DejaVuSans-62" x="188.134766"/>
     <use xlink:href="#DejaVuSans-20" x="251.611328"/>
     <use xlink:href="#DejaVuSans-66" x="283.398438"/>
     <use xlink:href="#DejaVuSans-31" x="318.603516"/>
     <use xlink:href="#DejaVuSans-34" x="382.226562"/>
     <use xlink:href="#DejaVuSans-2c" x="445.849609"/>
     <use xlink:href="#DejaVuSans-20" x="477.636719"/>
     <use xlink:href="#DejaVuSans-33" x="509.423828"/>
     <use xlink:href="#DejaVuSans-2d" x="573.046875"/>
     <use xlink:href="#DejaVuSans-44" x="609.130859"/>
    </g>
    <!-- 51 targets: 100..1e-08 -->
    <g transform="translate(60.632064 49.533135)scale(0.102 -0.102)">
     <defs>
      <path id="DejaVuSans-35" d="M 691 4666 
L 3169 4666 
L 3169 4134 
L 1269 4134 
L 1269 2991 
Q 1406 3038 1543 3061 
Q 1681 3084 1819 3084 
Q 2600 3084 3056 2656 
Q 3513 2228 3513 1497 
Q 3513 744 3044 326 
Q 2575 -91 1722 -91 
Q 1428 -91 1123 -41 
Q 819 9 494 109 
L 494 744 
Q 775 591 1075 516 
Q 1375 441 1709 441 
Q 2250 441 2565 725 
Q 2881 1009 2881 1497 
Q 2881 1984 2565 2268 
Q 2250 2553 1709 2553 
Q 1456 2553 1204 2497 
Q 953 2441 691 2322 
L 691 4666 
z
" transform="scale(0.015625)"/>
      <path id="DejaVuSans-3a" d="M 750 794 
L 1409 794 
L 1409 0 
L 750 0 
L 750 794 
z
M 750 3309 
L 1409 3309 
L 1409 2516 
L 750 2516 
L 750 3309 
z
" transform="scale(0.015625)"/>
     </defs>
     <use xlink:href="#DejaVuSans-35"/>
     <use xlink:href="#DejaVuSans-31" x="63.623047"/>
     <use xlink:href="#DejaVuSans-20" x="127.246094"/>
     <use xlink:href="#DejaVuSans-74" x="159.033203"/>
     <use xlink:href="#DejaVuSans-61" x="198.242188"/>
     <use xlink:href="#DejaVuSans-72" x="259.521484"/>
     <use xlink:href="#DejaVuSans-67" x="298.884766"/>
     <use xlink:href="#DejaVuSans-65" x="362.361328"/>
     <use xlink:href="#DejaVuSans-74" x="423.884766"/>
     <use xlink:href="#DejaVuSans-73" x="463.09375"/>
     <use xlink:href="#DejaVuSans-3a" x="515.193359"/>
     <use xlink:href="#DejaVuSans-20" x="548.884766"/>
     <use xlink:href="#DejaVuSans-31" x="580.671875"/>
     <use xlink:href="#DejaVuSans-30" x="644.294922"/>
     <use xlink:href="#DejaVuSans-30" x="707.917969"/>
     <use xlink:href="#DejaVuSans-2e" x="771.541016"/>
     <use xlink:href="#DejaVuSans-2e" x="803.328125"/>
     <use xlink:href="#DejaVuSans-31" x="835.115234"/>
     <use xlink:href="#DejaVuSans-65" x="898.738281"/>
     <use xlink:href="#DejaVuSans-2d" x="960.261719"/>
     <use xlink:href="#DejaVuSans-30" x="996.345703"/>
     <use xlink:href="#DejaVuSans-38" x="1059.96875"/>
    </g>
    <!-- 25, 15 instances -->
    <g transform="translate(60.632064 60.954904)scale(0.102 -0.102)">
     <use xlink:href="#DejaVuSans-32"/>
     <use xlink:href="#DejaVuSans-35" x="63.623047"/>
     <use xlink:href="#DejaVuSans-2c" x="127.246094"/>
     <use xlink:href="#DejaVuSans-20" x="159.033203"/>
     <use xlink:href="#DejaVuSans-31" x="190.820312"/>
     <use xlink:href="#DejaVuSans-35" x="254.443359"/>
     <use xlink:href="#DejaVuSans-20" x="318.066406"/>
     <use xlink:href="#DejaVuSans-69" x="349.853516"/>
     <use xlink:href="#DejaVuSans-6e" x="377.636719"/>
     <use xlink:href="#DejaVuSans-73" x="441.015625"/>
     <use xlink:href="#DejaVuSans-74" x="493.115234"/>
     <use xlink:href="#DejaVuSans-61" x="532.324219"/>
     <use xlink:href="#DejaVuSans-6e" x="593.603516"/>
     <use xlink:href="#DejaVuSans-63" x="656.982422"/>
     <use xlink:href="#DejaVuSans-65" x="711.962891"/>
     <use xlink:href="#DejaVuSans-73" x="773.486328"/>
    </g>
   </g>
   <g id="text_17">
    <!-- v2.6 -->
    <g style="fill: #808080" transform="translate(198.292262 294.151352)scale(0.1 -0.1)">
     <use xlink:href="#DejaVuSans-76"/>
     <use xlink:href="#DejaVuSans-32" x="59.179688"/>
     <use xlink:href="#DejaVuSans-2e" x="122.802734"/>
     <use xlink:href="#DejaVuSans-36" x="154.589844"/>
    </g>
   </g>
   <g id="text_18">
    <!-- 14 Sum of different powers -->
    <g transform="translate(72.964137 21.648)scale(0.2 -0.2)">
     <defs>
      <path id="DejaVuSans-77" d="M 269 3500 
L 844 3500 
L 1563 769 
L 2278 3500 
L 2956 3500 
L 3675 769 
L 4391 3500 
L 4966 3500 
L 4050 0 
L 3372 0 
L 2619 2869 
L 1863 0 
L 1184 0 
L 269 3500 
z
" transform="scale(0.015625)"/>
     </defs>
     <use xlink:href="#DejaVuSans-31"/>
     <use xlink:href="#DejaVuSans-34" x="63.623047"/>
     <use xlink:href="#DejaVuSans-20" x="127.246094"/>
     <use xlink:href="#DejaVuSans-53" x="159.033203"/>
     <use xlink:href="#DejaVuSans-75" x="222.509766"/>
     <use xlink:href="#DejaVuSans-6d" x="285.888672"/>
     <use xlink:href="#DejaVuSans-20" x="383.300781"/>
     <use xlink:href="#DejaVuSans-6f" x="415.087891"/>
     <use xlink:href="#DejaVuSans-66" x="476.269531"/>
     <use xlink:href="#DejaVuSans-20" x="511.474609"/>
     <use xlink:href="#DejaVuSans-64" x="543.261719"/>
     <use xlink:href="#DejaVuSans-69" x="606.738281"/>
     <use xlink:href="#DejaVuSans-66" x="634.521484"/>
     <use xlink:href="#DejaVuSans-66" x="669.726562"/>
     <use xlink:href="#DejaVuSans-65" x="704.931641"/>
     <use xlink:href="#DejaVuSans-72" x="766.455078"/>
     <use xlink:href="#DejaVuSans-65" x="805.318359"/>
     <use xlink:href="#DejaVuSans-6e" x="866.841797"/>
     <use xlink:href="#DejaVuSans-74" x="930.220703"/>
     <use xlink:href="#DejaVuSans-20" x="969.429688"/>
     <use xlink:href="#DejaVuSans-70" x="1001.216797"/>
     <use xlink:href="#DejaVuSans-6f" x="1064.693359"/>
     <use xlink:href="#DejaVuSans-77" x="1125.875"/>
     <use xlink:href="#DejaVuSans-65" x="1207.662109"/>
     <use xlink:href="#DejaVuSans-72" x="1269.185547"/>
     <use xlink:href="#DejaVuSans-73" x="1310.298828"/>
    </g>
   </g>
  </g>
 </g>
 <defs>
  <clipPath id="pae8dd6c1a7">
   <rect x="57.6" y="27.648" width="303.2064" height="271.296"/>
  </clipPath>
 </defs>
</svg>
