<?xml version="1.0" encoding="utf-8" standalone="no"?>
<!DOCTYPE svg PUBLIC "-//W3C//DTD SVG 1.1//EN"
  "http://www.w3.org/Graphics/SVG/1.1/DTD/svg11.dtd">
<svg xmlns:xlink="http://www.w3.org/1999/xlink" width="460.8pt" height="345.6pt" viewBox="0 0 460.8 345.6" xmlns="http://www.w3.org/2000/svg" version="1.1">
 <metadata>
  <rdf:RDF xmlns:dc="http://purl.org/dc/elements/1.1/" xmlns:cc="http://creativecommons.org/ns#" xmlns:rdf="http://www.w3.org/1999/02/22-rdf-syntax-ns#">
   <cc:Work>
    <dc:type rdf:resource="http://purl.org/dc/dcmitype/StillImage"/>
    <dc:date>2022-03-16T23:35:06.858372</dc:date>
    <dc:format>image/svg+xml</dc:format>
    <dc:creator>
     <cc:Agent>
      <dc:title>Matplotlib v3.5.1, https://matplotlib.org/</dc:title>
     </cc:Agent>
    </dc:creator>
   </cc:Work>
  </rdf:RDF>
 </metadata>
 <defs>
  <style type="text/css">*{stroke-linejoin: round; stroke-linecap: butt}</style>
 </defs>
 <g id="figure_1">
  <g id="patch_1">
   <path d="M 0 345.6 
L 460.8 345.6 
L 460.8 0 
L 0 0 
z
" style="fill: #ffffff"/>
  </g>
  <g id="axes_1">
   <g id="patch_2">
    <path d="M 57.6 298.944 
L 360.8064 298.944 
L 360.8064 27.648 
L 57.6 27.648 
z
" style="fill: #ffffff"/>
   </g>
   <g id="line2d_1">
    <path d="M 106.137884 298.944 
L 106.137884 293.624471 
L 114.234452 293.624471 
L 114.234452 288.304941 
L 116.419219 288.304941 
L 116.419219 282.985412 
L 118.076654 282.985412 
L 118.076654 277.665882 
L 119.807672 277.665882 
L 119.807672 272.346353 
L 123.145323 272.346353 
L 123.145323 267.026824 
L 128.045258 267.026824 
L 128.045258 261.707294 
L 138.232735 261.707294 
L 138.232735 256.387765 
L 140.335954 256.387765 
L 140.335954 251.068235 
L 141.65386 251.068235 
L 141.65386 245.748706 
L 142.682299 245.748706 
L 142.682299 240.429176 
L 143.560197 240.429176 
L 143.560197 235.109647 
L 144.380294 235.109647 
L 144.380294 229.790118 
L 145.130294 229.790118 
L 145.130294 224.470588 
L 145.765046 224.470588 
L 145.765046 219.151059 
L 146.261241 219.151059 
L 146.261241 213.831529 
L 146.695245 213.831529 
L 146.695245 208.512 
L 147.1517 208.512 
L 147.1517 203.192471 
L 147.455248 203.192471 
L 147.455248 197.872941 
L 147.660152 197.872941 
L 147.660152 192.553412 
L 147.924778 192.553412 
L 147.924778 187.233882 
L 148.155221 187.233882 
L 148.155221 181.914353 
L 148.322436 181.914353 
L 148.322436 176.594824 
L 148.458151 176.594824 
L 148.458151 171.275294 
L 148.548087 171.275294 
L 148.548087 165.955765 
L 148.68219 165.955765 
L 148.68219 160.636235 
L 148.771063 160.636235 
L 148.771063 155.316706 
L 148.903591 155.316706 
L 148.903591 149.997176 
L 148.962194 149.997176 
L 148.962194 144.677647 
L 149.035192 144.677647 
L 149.035192 139.358118 
L 149.093387 139.358118 
L 149.093387 134.038588 
L 149.180344 134.038588 
L 149.180344 128.719059 
L 149.295664 128.719059 
L 149.295664 123.399529 
L 149.338728 123.399529 
L 149.338728 118.08 
L 149.367382 118.08 
L 149.367382 112.760471 
L 149.381693 112.760471 
L 149.381693 107.440941 
L 149.438827 107.440941 
L 149.438827 102.121412 
L 149.46733 102.121412 
L 149.46733 96.801882 
L 149.510002 96.801882 
L 149.510002 91.482353 
L 149.580909 91.482353 
L 149.580909 86.162824 
L 149.637443 86.162824 
L 149.637443 80.843294 
L 149.665646 80.843294 
L 149.665646 75.523765 
L 149.693807 75.523765 
L 149.693807 70.204235 
L 149.750003 70.204235 
L 149.750003 64.884706 
L 149.764026 64.884706 
L 149.764026 59.565176 
L 149.778038 59.565176 
L 149.778038 54.245647 
L 149.806031 54.245647 
L 149.806031 48.926118 
L 149.847944 48.926118 
L 149.847944 43.606588 
L 149.861894 43.606588 
L 149.861894 38.287059 
L 149.875833 38.287059 
L 149.875833 32.967529 
L 149.889763 32.967529 
L 149.889763 27.648 
L 360.8064 27.648 
" style="fill: none; stroke: #f5deb3; stroke-width: 4; stroke-linecap: square"/>
   </g>
   <g id="line2d_2">
    <defs>
     <path id="m4d1b8f528c" d="M -0 7.778175 
L 7.778175 0 
L 0 -7.778175 
L -7.778175 -0 
z
" style="stroke: #f5deb3; stroke-width: 1.5; stroke-linejoin: miter"/>
    </defs>
    <g>
     <use xlink:href="#m4d1b8f528c" x="148.771063" y="155.316706" style="fill: #f5deb3; stroke: #f5deb3; stroke-width: 1.5; stroke-linejoin: miter"/>
     <use xlink:href="#m4d1b8f528c" x="149.889763" y="32.967529" style="fill: #f5deb3; stroke: #f5deb3; stroke-width: 1.5; stroke-linejoin: miter"/>
     <use xlink:href="#m4d1b8f528c" x="149.889763" y="27.648" style="fill: #f5deb3; stroke: #f5deb3; stroke-width: 1.5; stroke-linejoin: miter"/>
     <use xlink:href="#m4d1b8f528c" x="149.889763" y="27.648" style="fill: #f5deb3; stroke: #f5deb3; stroke-width: 1.5; stroke-linejoin: miter"/>
     <use xlink:href="#m4d1b8f528c" x="360.8064" y="27.648" style="fill: #f5deb3; stroke: #f5deb3; stroke-width: 1.5; stroke-linejoin: miter"/>
    </g>
   </g>
   <g id="line2d_3">
    <path style="fill: none; stroke: #f5deb3; stroke-width: 4; stroke-linecap: square"/>
    <g/>
   </g>
   <g id="line2d_4">
    <path d="M 360.8064 27.648 
L 380.514816 33.07392 
" style="fill: none; stroke: #f5deb3; stroke-width: 4; stroke-linecap: square"/>
    <g>
     <use xlink:href="#m4d1b8f528c" x="360.8064" y="27.648" style="fill: #f5deb3; stroke: #f5deb3; stroke-width: 1.5; stroke-linejoin: miter"/>
     <use xlink:href="#m4d1b8f528c" x="380.514816" y="33.07392" style="fill: #f5deb3; stroke: #f5deb3; stroke-width: 1.5; stroke-linejoin: miter"/>
    </g>
   </g>
   <g id="matplotlib.axis_1">
    <g id="xtick_1">
     <g id="line2d_5">
      <path d="M 57.6 298.944 
L 57.6 27.648 
" clip-path="url(#pe458417cfa)" style="fill: none; stroke: #b0b0b0; stroke-width: 0.8; stroke-linecap: square"/>
     </g>
     <g id="line2d_6">
      <defs>
       <path id="m7d39125321" d="M 0 0 
L 0 3.5 
" style="stroke: #000000; stroke-width: 0.8"/>
      </defs>
      <g>
       <use xlink:href="#m7d39125321" x="57.6" y="298.944" style="stroke: #000000; stroke-width: 0.8"/>
      </g>
     </g>
     <g id="text_1">
      <!-- 0 -->
      <g transform="translate(52.191875 318.861344)scale(0.17 -0.17)">
       <defs>
        <path id="DejaVuSans-30" d="M 2034 4250 
Q 1547 4250 1301 3770 
Q 1056 3291 1056 2328 
Q 1056 1369 1301 889 
Q 1547 409 2034 409 
Q 2525 409 2770 889 
Q 3016 1369 3016 2328 
Q 3016 3291 2770 3770 
Q 2525 4250 2034 4250 
z
M 2034 4750 
Q 2819 4750 3233 4129 
Q 3647 3509 3647 2328 
Q 3647 1150 3233 529 
Q 2819 -91 2034 -91 
Q 1250 -91 836 529 
Q 422 1150 422 2328 
Q 422 3509 836 4129 
Q 1250 4750 2034 4750 
z
" transform="scale(0.015625)"/>
       </defs>
       <use xlink:href="#DejaVuSans-30"/>
      </g>
     </g>
    </g>
    <g id="xtick_2">
     <g id="line2d_7">
      <path d="M 144.2304 298.944 
L 144.2304 27.648 
" clip-path="url(#pe458417cfa)" style="fill: none; stroke: #b0b0b0; stroke-width: 0.8; stroke-linecap: square"/>
     </g>
     <g id="line2d_8">
      <g>
       <use xlink:href="#m7d39125321" x="144.2304" y="298.944" style="stroke: #000000; stroke-width: 0.8"/>
      </g>
     </g>
     <g id="text_2">
      <!-- 2 -->
      <g transform="translate(138.822275 318.861344)scale(0.17 -0.17)">
       <defs>
        <path id="DejaVuSans-32" d="M 1228 531 
L 3431 531 
L 3431 0 
L 469 0 
L 469 531 
Q 828 903 1448 1529 
Q 2069 2156 2228 2338 
Q 2531 2678 2651 2914 
Q 2772 3150 2772 3378 
Q 2772 3750 2511 3984 
Q 2250 4219 1831 4219 
Q 1534 4219 1204 4116 
Q 875 4013 500 3803 
L 500 4441 
Q 881 4594 1212 4672 
Q 1544 4750 1819 4750 
Q 2544 4750 2975 4387 
Q 3406 4025 3406 3419 
Q 3406 3131 3298 2873 
Q 3191 2616 2906 2266 
Q 2828 2175 2409 1742 
Q 1991 1309 1228 531 
z
" transform="scale(0.015625)"/>
       </defs>
       <use xlink:href="#DejaVuSans-32"/>
      </g>
     </g>
    </g>
    <g id="xtick_3">
     <g id="line2d_9">
      <path d="M 230.8608 298.944 
L 230.8608 27.648 
" clip-path="url(#pe458417cfa)" style="fill: none; stroke: #b0b0b0; stroke-width: 0.8; stroke-linecap: square"/>
     </g>
     <g id="line2d_10">
      <g>
       <use xlink:href="#m7d39125321" x="230.8608" y="298.944" style="stroke: #000000; stroke-width: 0.8"/>
      </g>
     </g>
     <g id="text_3">
      <!-- 4 -->
      <g transform="translate(225.452675 318.861344)scale(0.17 -0.17)">
       <defs>
        <path id="DejaVuSans-34" d="M 2419 4116 
L 825 1625 
L 2419 1625 
L 2419 4116 
z
M 2253 4666 
L 3047 4666 
L 3047 1625 
L 3713 1625 
L 3713 1100 
L 3047 1100 
L 3047 0 
L 2419 0 
L 2419 1100 
L 313 1100 
L 313 1709 
L 2253 4666 
z
" transform="scale(0.015625)"/>
       </defs>
       <use xlink:href="#DejaVuSans-34"/>
      </g>
     </g>
    </g>
    <g id="xtick_4">
     <g id="line2d_11">
      <path d="M 317.4912 298.944 
L 317.4912 27.648 
" clip-path="url(#pe458417cfa)" style="fill: none; stroke: #b0b0b0; stroke-width: 0.8; stroke-linecap: square"/>
     </g>
     <g id="line2d_12">
      <g>
       <use xlink:href="#m7d39125321" x="317.4912" y="298.944" style="stroke: #000000; stroke-width: 0.8"/>
      </g>
     </g>
     <g id="text_4">
      <!-- 6 -->
      <g transform="translate(312.083075 318.861344)scale(0.17 -0.17)">
       <defs>
        <path id="DejaVuSans-36" d="M 2113 2584 
Q 1688 2584 1439 2293 
Q 1191 2003 1191 1497 
Q 1191 994 1439 701 
Q 1688 409 2113 409 
Q 2538 409 2786 701 
Q 3034 994 3034 1497 
Q 3034 2003 2786 2293 
Q 2538 2584 2113 2584 
z
M 3366 4563 
L 3366 3988 
Q 3128 4100 2886 4159 
Q 2644 4219 2406 4219 
Q 1781 4219 1451 3797 
Q 1122 3375 1075 2522 
Q 1259 2794 1537 2939 
Q 1816 3084 2150 3084 
Q 2853 3084 3261 2657 
Q 3669 2231 3669 1497 
Q 3669 778 3244 343 
Q 2819 -91 2113 -91 
Q 1303 -91 875 529 
Q 447 1150 447 2328 
Q 447 3434 972 4092 
Q 1497 4750 2381 4750 
Q 2619 4750 2861 4703 
Q 3103 4656 3366 4563 
z
" transform="scale(0.015625)"/>
       </defs>
       <use xlink:href="#DejaVuSans-36"/>
      </g>
     </g>
    </g>
    <g id="xtick_5">
     <g id="line2d_13">
      <path d="M 100.9152 298.944 
L 100.9152 27.648 
" clip-path="url(#pe458417cfa)" style="fill: none; stroke: #b0b0b0; stroke-width: 0.8; stroke-linecap: square"/>
     </g>
     <g id="line2d_14">
      <defs>
       <path id="m23afb8f940" d="M 0 0 
L 0 2 
" style="stroke: #000000; stroke-width: 0.6"/>
      </defs>
      <g>
       <use xlink:href="#m23afb8f940" x="100.9152" y="298.944" style="stroke: #000000; stroke-width: 0.6"/>
      </g>
     </g>
    </g>
    <g id="xtick_6">
     <g id="line2d_15">
      <path d="M 187.5456 298.944 
L 187.5456 27.648 
" clip-path="url(#pe458417cfa)" style="fill: none; stroke: #b0b0b0; stroke-width: 0.8; stroke-linecap: square"/>
     </g>
     <g id="line2d_16">
      <g>
       <use xlink:href="#m23afb8f940" x="187.5456" y="298.944" style="stroke: #000000; stroke-width: 0.6"/>
      </g>
     </g>
    </g>
    <g id="xtick_7">
     <g id="line2d_17">
      <path d="M 274.176 298.944 
L 274.176 27.648 
" clip-path="url(#pe458417cfa)" style="fill: none; stroke: #b0b0b0; stroke-width: 0.8; stroke-linecap: square"/>
     </g>
     <g id="line2d_18">
      <g>
       <use xlink:href="#m23afb8f940" x="274.176" y="298.944" style="stroke: #000000; stroke-width: 0.6"/>
      </g>
     </g>
    </g>
    <g id="xtick_8">
     <g id="line2d_19">
      <path d="M 360.8064 298.944 
L 360.8064 27.648 
" clip-path="url(#pe458417cfa)" style="fill: none; stroke: #b0b0b0; stroke-width: 0.8; stroke-linecap: square"/>
     </g>
     <g id="line2d_20">
      <g>
       <use xlink:href="#m23afb8f940" x="360.8064" y="298.944" style="stroke: #000000; stroke-width: 0.6"/>
      </g>
     </g>
    </g>
    <g id="text_5">
     <!-- log10(# f-evals / dimension) -->
     <g transform="translate(88.823278 339.314156)scale(0.17 -0.17)">
      <defs>
       <path id="DejaVuSans-6c" d="M 603 4863 
L 1178 4863 
L 1178 0 
L 603 0 
L 603 4863 
z
" transform="scale(0.015625)"/>
       <path id="DejaVuSans-6f" d="M 1959 3097 
Q 1497 3097 1228 2736 
Q 959 2375 959 1747 
Q 959 1119 1226 758 
Q 1494 397 1959 397 
Q 2419 397 2687 759 
Q 2956 1122 2956 1747 
Q 2956 2369 2687 2733 
Q 2419 3097 1959 3097 
z
M 1959 3584 
Q 2709 3584 3137 3096 
Q 3566 2609 3566 1747 
Q 3566 888 3137 398 
Q 2709 -91 1959 -91 
Q 1206 -91 779 398 
Q 353 888 353 1747 
Q 353 2609 779 3096 
Q 1206 3584 1959 3584 
z
" transform="scale(0.015625)"/>
       <path id="DejaVuSans-67" d="M 2906 1791 
Q 2906 2416 2648 2759 
Q 2391 3103 1925 3103 
Q 1463 3103 1205 2759 
Q 947 2416 947 1791 
Q 947 1169 1205 825 
Q 1463 481 1925 481 
Q 2391 481 2648 825 
Q 2906 1169 2906 1791 
z
M 3481 434 
Q 3481 -459 3084 -895 
Q 2688 -1331 1869 -1331 
Q 1566 -1331 1297 -1286 
Q 1028 -1241 775 -1147 
L 775 -588 
Q 1028 -725 1275 -790 
Q 1522 -856 1778 -856 
Q 2344 -856 2625 -561 
Q 2906 -266 2906 331 
L 2906 616 
Q 2728 306 2450 153 
Q 2172 0 1784 0 
Q 1141 0 747 490 
Q 353 981 353 1791 
Q 353 2603 747 3093 
Q 1141 3584 1784 3584 
Q 2172 3584 2450 3431 
Q 2728 3278 2906 2969 
L 2906 3500 
L 3481 3500 
L 3481 434 
z
" transform="scale(0.015625)"/>
       <path id="DejaVuSans-31" d="M 794 531 
L 1825 531 
L 1825 4091 
L 703 3866 
L 703 4441 
L 1819 4666 
L 2450 4666 
L 2450 531 
L 3481 531 
L 3481 0 
L 794 0 
L 794 531 
z
" transform="scale(0.015625)"/>
       <path id="DejaVuSans-28" d="M 1984 4856 
Q 1566 4138 1362 3434 
Q 1159 2731 1159 2009 
Q 1159 1288 1364 580 
Q 1569 -128 1984 -844 
L 1484 -844 
Q 1016 -109 783 600 
Q 550 1309 550 2009 
Q 550 2706 781 3412 
Q 1013 4119 1484 4856 
L 1984 4856 
z
" transform="scale(0.015625)"/>
       <path id="DejaVuSans-23" d="M 3272 2816 
L 2363 2816 
L 2100 1772 
L 3016 1772 
L 3272 2816 
z
M 2803 4594 
L 2478 3297 
L 3391 3297 
L 3719 4594 
L 4219 4594 
L 3897 3297 
L 4872 3297 
L 4872 2816 
L 3775 2816 
L 3519 1772 
L 4513 1772 
L 4513 1294 
L 3397 1294 
L 3072 0 
L 2572 0 
L 2894 1294 
L 1978 1294 
L 1656 0 
L 1153 0 
L 1478 1294 
L 494 1294 
L 494 1772 
L 1594 1772 
L 1856 2816 
L 850 2816 
L 850 3297 
L 1978 3297 
L 2297 4594 
L 2803 4594 
z
" transform="scale(0.015625)"/>
       <path id="DejaVuSans-20" transform="scale(0.015625)"/>
       <path id="DejaVuSans-66" d="M 2375 4863 
L 2375 4384 
L 1825 4384 
Q 1516 4384 1395 4259 
Q 1275 4134 1275 3809 
L 1275 3500 
L 2222 3500 
L 2222 3053 
L 1275 3053 
L 1275 0 
L 697 0 
L 697 3053 
L 147 3053 
L 147 3500 
L 697 3500 
L 697 3744 
Q 697 4328 969 4595 
Q 1241 4863 1831 4863 
L 2375 4863 
z
" transform="scale(0.015625)"/>
       <path id="DejaVuSans-2d" d="M 313 2009 
L 1997 2009 
L 1997 1497 
L 313 1497 
L 313 2009 
z
" transform="scale(0.015625)"/>
       <path id="DejaVuSans-65" d="M 3597 1894 
L 3597 1613 
L 953 1613 
Q 991 1019 1311 708 
Q 1631 397 2203 397 
Q 2534 397 2845 478 
Q 3156 559 3463 722 
L 3463 178 
Q 3153 47 2828 -22 
Q 2503 -91 2169 -91 
Q 1331 -91 842 396 
Q 353 884 353 1716 
Q 353 2575 817 3079 
Q 1281 3584 2069 3584 
Q 2775 3584 3186 3129 
Q 3597 2675 3597 1894 
z
M 3022 2063 
Q 3016 2534 2758 2815 
Q 2500 3097 2075 3097 
Q 1594 3097 1305 2825 
Q 1016 2553 972 2059 
L 3022 2063 
z
" transform="scale(0.015625)"/>
       <path id="DejaVuSans-76" d="M 191 3500 
L 800 3500 
L 1894 563 
L 2988 3500 
L 3597 3500 
L 2284 0 
L 1503 0 
L 191 3500 
z
" transform="scale(0.015625)"/>
       <path id="DejaVuSans-61" d="M 2194 1759 
Q 1497 1759 1228 1600 
Q 959 1441 959 1056 
Q 959 750 1161 570 
Q 1363 391 1709 391 
Q 2188 391 2477 730 
Q 2766 1069 2766 1631 
L 2766 1759 
L 2194 1759 
z
M 3341 1997 
L 3341 0 
L 2766 0 
L 2766 531 
Q 2569 213 2275 61 
Q 1981 -91 1556 -91 
Q 1019 -91 701 211 
Q 384 513 384 1019 
Q 384 1609 779 1909 
Q 1175 2209 1959 2209 
L 2766 2209 
L 2766 2266 
Q 2766 2663 2505 2880 
Q 2244 3097 1772 3097 
Q 1472 3097 1187 3025 
Q 903 2953 641 2809 
L 641 3341 
Q 956 3463 1253 3523 
Q 1550 3584 1831 3584 
Q 2591 3584 2966 3190 
Q 3341 2797 3341 1997 
z
" transform="scale(0.015625)"/>
       <path id="DejaVuSans-73" d="M 2834 3397 
L 2834 2853 
Q 2591 2978 2328 3040 
Q 2066 3103 1784 3103 
Q 1356 3103 1142 2972 
Q 928 2841 928 2578 
Q 928 2378 1081 2264 
Q 1234 2150 1697 2047 
L 1894 2003 
Q 2506 1872 2764 1633 
Q 3022 1394 3022 966 
Q 3022 478 2636 193 
Q 2250 -91 1575 -91 
Q 1294 -91 989 -36 
Q 684 19 347 128 
L 347 722 
Q 666 556 975 473 
Q 1284 391 1588 391 
Q 1994 391 2212 530 
Q 2431 669 2431 922 
Q 2431 1156 2273 1281 
Q 2116 1406 1581 1522 
L 1381 1569 
Q 847 1681 609 1914 
Q 372 2147 372 2553 
Q 372 3047 722 3315 
Q 1072 3584 1716 3584 
Q 2034 3584 2315 3537 
Q 2597 3491 2834 3397 
z
" transform="scale(0.015625)"/>
       <path id="DejaVuSans-2f" d="M 1625 4666 
L 2156 4666 
L 531 -594 
L 0 -594 
L 1625 4666 
z
" transform="scale(0.015625)"/>
       <path id="DejaVuSans-64" d="M 2906 2969 
L 2906 4863 
L 3481 4863 
L 3481 0 
L 2906 0 
L 2906 525 
Q 2725 213 2448 61 
Q 2172 -91 1784 -91 
Q 1150 -91 751 415 
Q 353 922 353 1747 
Q 353 2572 751 3078 
Q 1150 3584 1784 3584 
Q 2172 3584 2448 3432 
Q 2725 3281 2906 2969 
z
M 947 1747 
Q 947 1113 1208 752 
Q 1469 391 1925 391 
Q 2381 391 2643 752 
Q 2906 1113 2906 1747 
Q 2906 2381 2643 2742 
Q 2381 3103 1925 3103 
Q 1469 3103 1208 2742 
Q 947 2381 947 1747 
z
" transform="scale(0.015625)"/>
       <path id="DejaVuSans-69" d="M 603 3500 
L 1178 3500 
L 1178 0 
L 603 0 
L 603 3500 
z
M 603 4863 
L 1178 4863 
L 1178 4134 
L 603 4134 
L 603 4863 
z
" transform="scale(0.015625)"/>
       <path id="DejaVuSans-6d" d="M 3328 2828 
Q 3544 3216 3844 3400 
Q 4144 3584 4550 3584 
Q 5097 3584 5394 3201 
Q 5691 2819 5691 2113 
L 5691 0 
L 5113 0 
L 5113 2094 
Q 5113 2597 4934 2840 
Q 4756 3084 4391 3084 
Q 3944 3084 3684 2787 
Q 3425 2491 3425 1978 
L 3425 0 
L 2847 0 
L 2847 2094 
Q 2847 2600 2669 2842 
Q 2491 3084 2119 3084 
Q 1678 3084 1418 2786 
Q 1159 2488 1159 1978 
L 1159 0 
L 581 0 
L 581 3500 
L 1159 3500 
L 1159 2956 
Q 1356 3278 1631 3431 
Q 1906 3584 2284 3584 
Q 2666 3584 2933 3390 
Q 3200 3197 3328 2828 
z
" transform="scale(0.015625)"/>
       <path id="DejaVuSans-6e" d="M 3513 2113 
L 3513 0 
L 2938 0 
L 2938 2094 
Q 2938 2591 2744 2837 
Q 2550 3084 2163 3084 
Q 1697 3084 1428 2787 
Q 1159 2491 1159 1978 
L 1159 0 
L 581 0 
L 581 3500 
L 1159 3500 
L 1159 2956 
Q 1366 3272 1645 3428 
Q 1925 3584 2291 3584 
Q 2894 3584 3203 3211 
Q 3513 2838 3513 2113 
z
" transform="scale(0.015625)"/>
       <path id="DejaVuSans-29" d="M 513 4856 
L 1013 4856 
Q 1481 4119 1714 3412 
Q 1947 2706 1947 2009 
Q 1947 1309 1714 600 
Q 1481 -109 1013 -844 
L 513 -844 
Q 928 -128 1133 580 
Q 1338 1288 1338 2009 
Q 1338 2731 1133 3434 
Q 928 4138 513 4856 
z
" transform="scale(0.015625)"/>
      </defs>
      <use xlink:href="#DejaVuSans-6c"/>
      <use xlink:href="#DejaVuSans-6f" x="27.783203"/>
      <use xlink:href="#DejaVuSans-67" x="88.964844"/>
      <use xlink:href="#DejaVuSans-31" x="152.441406"/>
      <use xlink:href="#DejaVuSans-30" x="216.064453"/>
      <use xlink:href="#DejaVuSans-28" x="279.6875"/>
      <use xlink:href="#DejaVuSans-23" x="318.701172"/>
      <use xlink:href="#DejaVuSans-20" x="402.490234"/>
      <use xlink:href="#DejaVuSans-66" x="434.277344"/>
      <use xlink:href="#DejaVuSans-2d" x="463.982422"/>
      <use xlink:href="#DejaVuSans-65" x="500.066406"/>
      <use xlink:href="#DejaVuSans-76" x="561.589844"/>
      <use xlink:href="#DejaVuSans-61" x="620.769531"/>
      <use xlink:href="#DejaVuSans-6c" x="682.048828"/>
      <use xlink:href="#DejaVuSans-73" x="709.832031"/>
      <use xlink:href="#DejaVuSans-20" x="761.931641"/>
      <use xlink:href="#DejaVuSans-2f" x="793.71875"/>
      <use xlink:href="#DejaVuSans-20" x="827.410156"/>
      <use xlink:href="#DejaVuSans-64" x="859.197266"/>
      <use xlink:href="#DejaVuSans-69" x="922.673828"/>
      <use xlink:href="#DejaVuSans-6d" x="950.457031"/>
      <use xlink:href="#DejaVuSans-65" x="1047.869141"/>
      <use xlink:href="#DejaVuSans-6e" x="1109.392578"/>
      <use xlink:href="#DejaVuSans-73" x="1172.771484"/>
      <use xlink:href="#DejaVuSans-69" x="1224.871094"/>
      <use xlink:href="#DejaVuSans-6f" x="1252.654297"/>
      <use xlink:href="#DejaVuSans-6e" x="1313.835938"/>
      <use xlink:href="#DejaVuSans-29" x="1377.214844"/>
     </g>
    </g>
   </g>
   <g id="matplotlib.axis_2">
    <g id="ytick_1">
     <g id="line2d_21">
      <path d="M 57.6 298.944 
L 360.8064 298.944 
" clip-path="url(#pe458417cfa)" style="fill: none; stroke: #b0b0b0; stroke-width: 0.8; stroke-linecap: square"/>
     </g>
     <g id="line2d_22">
      <defs>
       <path id="mf0d42c5e72" d="M 0 0 
L -3.5 0 
" style="stroke: #000000; stroke-width: 0.8"/>
      </defs>
      <g>
       <use xlink:href="#mf0d42c5e72" x="57.6" y="298.944" style="stroke: #000000; stroke-width: 0.8"/>
      </g>
     </g>
     <g id="text_6">
      <!-- 0.0 -->
      <g transform="translate(25.155 305.02275)scale(0.16 -0.16)">
       <defs>
        <path id="DejaVuSans-2e" d="M 684 794 
L 1344 794 
L 1344 0 
L 684 0 
L 684 794 
z
" transform="scale(0.015625)"/>
       </defs>
       <use xlink:href="#DejaVuSans-30"/>
       <use xlink:href="#DejaVuSans-2e" x="63.623047"/>
       <use xlink:href="#DejaVuSans-30" x="95.410156"/>
      </g>
     </g>
    </g>
    <g id="ytick_2">
     <g id="line2d_23">
      <path d="M 57.6 244.6848 
L 360.8064 244.6848 
" clip-path="url(#pe458417cfa)" style="fill: none; stroke: #b0b0b0; stroke-width: 0.8; stroke-linecap: square"/>
     </g>
     <g id="line2d_24">
      <g>
       <use xlink:href="#mf0d42c5e72" x="57.6" y="244.6848" style="stroke: #000000; stroke-width: 0.8"/>
      </g>
     </g>
     <g id="text_7">
      <!-- 0.2 -->
      <g transform="translate(25.155 250.76355)scale(0.16 -0.16)">
       <use xlink:href="#DejaVuSans-30"/>
       <use xlink:href="#DejaVuSans-2e" x="63.623047"/>
       <use xlink:href="#DejaVuSans-32" x="95.410156"/>
      </g>
     </g>
    </g>
    <g id="ytick_3">
     <g id="line2d_25">
      <path d="M 57.6 190.4256 
L 360.8064 190.4256 
" clip-path="url(#pe458417cfa)" style="fill: none; stroke: #b0b0b0; stroke-width: 0.8; stroke-linecap: square"/>
     </g>
     <g id="line2d_26">
      <g>
       <use xlink:href="#mf0d42c5e72" x="57.6" y="190.4256" style="stroke: #000000; stroke-width: 0.8"/>
      </g>
     </g>
     <g id="text_8">
      <!-- 0.4 -->
      <g transform="translate(25.155 196.50435)scale(0.16 -0.16)">
       <use xlink:href="#DejaVuSans-30"/>
       <use xlink:href="#DejaVuSans-2e" x="63.623047"/>
       <use xlink:href="#DejaVuSans-34" x="95.410156"/>
      </g>
     </g>
    </g>
    <g id="ytick_4">
     <g id="line2d_27">
      <path d="M 57.6 136.1664 
L 360.8064 136.1664 
" clip-path="url(#pe458417cfa)" style="fill: none; stroke: #b0b0b0; stroke-width: 0.8; stroke-linecap: square"/>
     </g>
     <g id="line2d_28">
      <g>
       <use xlink:href="#mf0d42c5e72" x="57.6" y="136.1664" style="stroke: #000000; stroke-width: 0.8"/>
      </g>
     </g>
     <g id="text_9">
      <!-- 0.6 -->
      <g transform="translate(25.155 142.24515)scale(0.16 -0.16)">
       <use xlink:href="#DejaVuSans-30"/>
       <use xlink:href="#DejaVuSans-2e" x="63.623047"/>
       <use xlink:href="#DejaVuSans-36" x="95.410156"/>
      </g>
     </g>
    </g>
    <g id="ytick_5">
     <g id="line2d_29">
      <path d="M 57.6 81.9072 
L 360.8064 81.9072 
" clip-path="url(#pe458417cfa)" style="fill: none; stroke: #b0b0b0; stroke-width: 0.8; stroke-linecap: square"/>
     </g>
     <g id="line2d_30">
      <g>
       <use xlink:href="#mf0d42c5e72" x="57.6" y="81.9072" style="stroke: #000000; stroke-width: 0.8"/>
      </g>
     </g>
     <g id="text_10">
      <!-- 0.8 -->
      <g transform="translate(25.155 87.98595)scale(0.16 -0.16)">
       <defs>
        <path id="DejaVuSans-38" d="M 2034 2216 
Q 1584 2216 1326 1975 
Q 1069 1734 1069 1313 
Q 1069 891 1326 650 
Q 1584 409 2034 409 
Q 2484 409 2743 651 
Q 3003 894 3003 1313 
Q 3003 1734 2745 1975 
Q 2488 2216 2034 2216 
z
M 1403 2484 
Q 997 2584 770 2862 
Q 544 3141 544 3541 
Q 544 4100 942 4425 
Q 1341 4750 2034 4750 
Q 2731 4750 3128 4425 
Q 3525 4100 3525 3541 
Q 3525 3141 3298 2862 
Q 3072 2584 2669 2484 
Q 3125 2378 3379 2068 
Q 3634 1759 3634 1313 
Q 3634 634 3220 271 
Q 2806 -91 2034 -91 
Q 1263 -91 848 271 
Q 434 634 434 1313 
Q 434 1759 690 2068 
Q 947 2378 1403 2484 
z
M 1172 3481 
Q 1172 3119 1398 2916 
Q 1625 2713 2034 2713 
Q 2441 2713 2670 2916 
Q 2900 3119 2900 3481 
Q 2900 3844 2670 4047 
Q 2441 4250 2034 4250 
Q 1625 4250 1398 4047 
Q 1172 3844 1172 3481 
z
" transform="scale(0.015625)"/>
       </defs>
       <use xlink:href="#DejaVuSans-30"/>
       <use xlink:href="#DejaVuSans-2e" x="63.623047"/>
       <use xlink:href="#DejaVuSans-38" x="95.410156"/>
      </g>
     </g>
    </g>
    <g id="ytick_6">
     <g id="line2d_31">
      <path d="M 57.6 27.648 
L 360.8064 27.648 
" clip-path="url(#pe458417cfa)" style="fill: none; stroke: #b0b0b0; stroke-width: 0.8; stroke-linecap: square"/>
     </g>
     <g id="line2d_32">
      <g>
       <use xlink:href="#mf0d42c5e72" x="57.6" y="27.648" style="stroke: #000000; stroke-width: 0.8"/>
      </g>
     </g>
     <g id="text_11">
      <!-- 1.0 -->
      <g transform="translate(25.155 33.72675)scale(0.16 -0.16)">
       <use xlink:href="#DejaVuSans-31"/>
       <use xlink:href="#DejaVuSans-2e" x="63.623047"/>
       <use xlink:href="#DejaVuSans-30" x="95.410156"/>
      </g>
     </g>
    </g>
    <g id="text_12">
     <!-- Fraction of function,target pairs -->
     <g transform="translate(17.619531 297.681)rotate(-90)scale(0.17 -0.17)">
      <defs>
       <path id="DejaVuSans-46" d="M 628 4666 
L 3309 4666 
L 3309 4134 
L 1259 4134 
L 1259 2759 
L 3109 2759 
L 3109 2228 
L 1259 2228 
L 1259 0 
L 628 0 
L 628 4666 
z
" transform="scale(0.015625)"/>
       <path id="DejaVuSans-72" d="M 2631 2963 
Q 2534 3019 2420 3045 
Q 2306 3072 2169 3072 
Q 1681 3072 1420 2755 
Q 1159 2438 1159 1844 
L 1159 0 
L 581 0 
L 581 3500 
L 1159 3500 
L 1159 2956 
Q 1341 3275 1631 3429 
Q 1922 3584 2338 3584 
Q 2397 3584 2469 3576 
Q 2541 3569 2628 3553 
L 2631 2963 
z
" transform="scale(0.015625)"/>
       <path id="DejaVuSans-63" d="M 3122 3366 
L 3122 2828 
Q 2878 2963 2633 3030 
Q 2388 3097 2138 3097 
Q 1578 3097 1268 2742 
Q 959 2388 959 1747 
Q 959 1106 1268 751 
Q 1578 397 2138 397 
Q 2388 397 2633 464 
Q 2878 531 3122 666 
L 3122 134 
Q 2881 22 2623 -34 
Q 2366 -91 2075 -91 
Q 1284 -91 818 406 
Q 353 903 353 1747 
Q 353 2603 823 3093 
Q 1294 3584 2113 3584 
Q 2378 3584 2631 3529 
Q 2884 3475 3122 3366 
z
" transform="scale(0.015625)"/>
       <path id="DejaVuSans-74" d="M 1172 4494 
L 1172 3500 
L 2356 3500 
L 2356 3053 
L 1172 3053 
L 1172 1153 
Q 1172 725 1289 603 
Q 1406 481 1766 481 
L 2356 481 
L 2356 0 
L 1766 0 
Q 1100 0 847 248 
Q 594 497 594 1153 
L 594 3053 
L 172 3053 
L 172 3500 
L 594 3500 
L 594 4494 
L 1172 4494 
z
" transform="scale(0.015625)"/>
       <path id="DejaVuSans-75" d="M 544 1381 
L 544 3500 
L 1119 3500 
L 1119 1403 
Q 1119 906 1312 657 
Q 1506 409 1894 409 
Q 2359 409 2629 706 
Q 2900 1003 2900 1516 
L 2900 3500 
L 3475 3500 
L 3475 0 
L 2900 0 
L 2900 538 
Q 2691 219 2414 64 
Q 2138 -91 1772 -91 
Q 1169 -91 856 284 
Q 544 659 544 1381 
z
M 1991 3584 
L 1991 3584 
z
" transform="scale(0.015625)"/>
       <path id="DejaVuSans-2c" d="M 750 794 
L 1409 794 
L 1409 256 
L 897 -744 
L 494 -744 
L 750 256 
L 750 794 
z
" transform="scale(0.015625)"/>
       <path id="DejaVuSans-70" d="M 1159 525 
L 1159 -1331 
L 581 -1331 
L 581 3500 
L 1159 3500 
L 1159 2969 
Q 1341 3281 1617 3432 
Q 1894 3584 2278 3584 
Q 2916 3584 3314 3078 
Q 3713 2572 3713 1747 
Q 3713 922 3314 415 
Q 2916 -91 2278 -91 
Q 1894 -91 1617 61 
Q 1341 213 1159 525 
z
M 3116 1747 
Q 3116 2381 2855 2742 
Q 2594 3103 2138 3103 
Q 1681 3103 1420 2742 
Q 1159 2381 1159 1747 
Q 1159 1113 1420 752 
Q 1681 391 2138 391 
Q 2594 391 2855 752 
Q 3116 1113 3116 1747 
z
" transform="scale(0.015625)"/>
      </defs>
      <use xlink:href="#DejaVuSans-46"/>
      <use xlink:href="#DejaVuSans-72" x="50.269531"/>
      <use xlink:href="#DejaVuSans-61" x="91.382812"/>
      <use xlink:href="#DejaVuSans-63" x="152.662109"/>
      <use xlink:href="#DejaVuSans-74" x="207.642578"/>
      <use xlink:href="#DejaVuSans-69" x="246.851562"/>
      <use xlink:href="#DejaVuSans-6f" x="274.634766"/>
      <use xlink:href="#DejaVuSans-6e" x="335.816406"/>
      <use xlink:href="#DejaVuSans-20" x="399.195312"/>
      <use xlink:href="#DejaVuSans-6f" x="430.982422"/>
      <use xlink:href="#DejaVuSans-66" x="492.164062"/>
      <use xlink:href="#DejaVuSans-20" x="527.369141"/>
      <use xlink:href="#DejaVuSans-66" x="559.15625"/>
      <use xlink:href="#DejaVuSans-75" x="594.361328"/>
      <use xlink:href="#DejaVuSans-6e" x="657.740234"/>
      <use xlink:href="#DejaVuSans-63" x="721.119141"/>
      <use xlink:href="#DejaVuSans-74" x="776.099609"/>
      <use xlink:href="#DejaVuSans-69" x="815.308594"/>
      <use xlink:href="#DejaVuSans-6f" x="843.091797"/>
      <use xlink:href="#DejaVuSans-6e" x="904.273438"/>
      <use xlink:href="#DejaVuSans-2c" x="967.652344"/>
      <use xlink:href="#DejaVuSans-74" x="999.439453"/>
      <use xlink:href="#DejaVuSans-61" x="1038.648438"/>
      <use xlink:href="#DejaVuSans-72" x="1099.927734"/>
      <use xlink:href="#DejaVuSans-67" x="1139.291016"/>
      <use xlink:href="#DejaVuSans-65" x="1202.767578"/>
      <use xlink:href="#DejaVuSans-74" x="1264.291016"/>
      <use xlink:href="#DejaVuSans-20" x="1303.5"/>
      <use xlink:href="#DejaVuSans-70" x="1335.287109"/>
      <use xlink:href="#DejaVuSans-61" x="1398.763672"/>
      <use xlink:href="#DejaVuSans-69" x="1460.042969"/>
      <use xlink:href="#DejaVuSans-72" x="1487.826172"/>
      <use xlink:href="#DejaVuSans-73" x="1528.939453"/>
     </g>
    </g>
   </g>
   <g id="line2d_33">
    <defs>
     <path id="m752991e2b4" d="M 0 1.5 
C 0.397805 1.5 0.77937 1.341951 1.06066 1.06066 
C 1.341951 0.77937 1.5 0.397805 1.5 0 
C 1.5 -0.397805 1.341951 -0.77937 1.06066 -1.06066 
C 0.77937 -1.341951 0.397805 -1.5 0 -1.5 
C -0.397805 -1.5 -0.77937 -1.341951 -1.06066 -1.06066 
C -1.341951 -0.77937 -1.5 -0.397805 -1.5 0 
C -1.5 0.397805 -1.341951 0.77937 -1.06066 1.06066 
C -0.77937 1.341951 -0.397805 1.5 0 1.5 
z
" style="stroke: #f5deb3"/>
    </defs>
    <g>
     <use xlink:href="#m752991e2b4" x="149.889763" y="27.648" style="fill: #f5deb3; stroke: #f5deb3"/>
     <use xlink:href="#m752991e2b4" x="149.889763" y="27.648" style="fill: #f5deb3; stroke: #f5deb3"/>
    </g>
   </g>
   <g id="line2d_34">
    <defs>
     <path id="m6596ce3dc6" d="M 0 1.5 
C 0.397805 1.5 0.77937 1.341951 1.06066 1.06066 
C 1.341951 0.77937 1.5 0.397805 1.5 0 
C 1.5 -0.397805 1.341951 -0.77937 1.06066 -1.06066 
C 0.77937 -1.341951 0.397805 -1.5 0 -1.5 
C -0.397805 -1.5 -0.77937 -1.341951 -1.06066 -1.06066 
C -1.341951 -0.77937 -1.5 -0.397805 -1.5 0 
C -1.5 0.397805 -1.341951 0.77937 -1.06066 1.06066 
C -0.77937 1.341951 -0.397805 1.5 0 1.5 
z
" style="stroke: #000080"/>
    </defs>
    <g>
     <use xlink:href="#m6596ce3dc6" x="199.287247" y="27.648" style="fill: #000080; stroke: #000080"/>
     <use xlink:href="#m6596ce3dc6" x="199.287247" y="27.648" style="fill: #000080; stroke: #000080"/>
    </g>
   </g>
   <g id="line2d_35">
    <path d="M 111.656212 298.944 
L 111.656212 298.731219 
L 112.180244 298.731219 
L 112.180244 298.518438 
L 112.989468 298.518438 
L 112.989468 298.305656 
L 113.57433 298.305656 
L 113.670063 297.667313 
L 114.234452 297.667313 
L 114.234452 297.241751 
L 114.418881 297.241751 
L 114.418881 297.028969 
L 114.872193 297.028969 
L 114.872193 296.816188 
L 115.402131 296.816188 
L 115.402131 296.603407 
L 116.501546 296.603407 
L 116.501546 296.177845 
L 117.1475 296.106918 
L 117.1475 295.894136 
L 117.305581 295.894136 
L 117.305581 295.468574 
L 117.540239 295.468574 
L 117.617813 295.043012 
L 117.695068 295.043012 
L 117.695068 294.830231 
L 117.848632 294.830231 
L 117.848632 294.617449 
L 118.152051 294.546522 
L 118.152051 294.333741 
L 118.450653 294.333741 
L 118.450653 294.12096 
L 118.671535 294.12096 
L 118.671535 293.908179 
L 118.889854 293.908179 
L 118.962067 293.198908 
L 119.177058 293.198908 
L 119.177058 292.986127 
L 119.459944 292.986127 
L 119.530006 292.135002 
L 119.876453 292.064075 
L 119.944983 291.851294 
L 120.013265 291.851294 
L 120.013265 291.70944 
L 120.149089 291.70944 
L 120.149089 291.496659 
L 120.351004 291.496659 
L 120.41783 291.212951 
L 120.48442 291.212951 
L 120.48442 291.000169 
L 120.879082 291.000169 
L 120.879082 290.787388 
L 121.008818 290.787388 
L 121.073351 290.361826 
L 121.201758 290.361826 
L 121.265635 289.723482 
L 121.329295 289.723482 
L 121.329295 289.581628 
L 121.518993 289.581628 
L 121.581803 289.226993 
L 121.644403 289.226993 
L 121.644403 289.085139 
L 121.830966 289.014212 
L 121.830966 288.801431 
L 121.954321 288.801431 
L 121.954321 288.09216 
L 122.13785 288.09216 
L 122.13785 287.950306 
L 122.319605 287.950306 
L 122.319605 287.099181 
L 122.499621 287.099181 
L 122.499621 286.957327 
L 122.736994 286.8864 
L 122.736994 286.673619 
L 122.854567 286.673619 
L 122.913079 286.318984 
L 123.260379 286.248056 
L 123.260379 285.893421 
L 123.431654 285.893421 
L 123.4884 285.538786 
L 123.713691 285.538786 
L 123.769595 284.829515 
L 123.991562 284.758588 
L 123.991562 284.47488 
L 124.156336 284.47488 
L 124.210942 284.049318 
L 124.319679 284.049318 
L 124.319679 283.836536 
L 124.535287 283.836536 
L 124.588805 283.410974 
L 124.748451 283.340047 
L 124.748451 283.198193 
L 125.115773 283.127266 
L 125.115773 283.056339 
L 125.322496 283.056339 
L 125.322496 282.843558 
L 125.47606 282.843558 
L 125.47606 282.417995 
L 125.829577 282.347068 
L 125.829577 282.134287 
L 126.028642 282.06336 
L 126.078082 281.850579 
L 126.468985 281.779652 
L 126.517282 281.354089 
L 126.661432 281.354089 
L 126.756923 280.928527 
L 126.851931 280.928527 
L 126.899255 280.644819 
L 127.319904 280.573892 
L 127.366067 280.148329 
L 127.549596 280.077402 
L 127.549596 280.006475 
L 127.731351 279.935548 
L 127.821575 279.722767 
L 127.956104 279.722767 
L 127.956104 279.65184 
L 127.956104 279.580913 
L 128.089678 279.580913 
L 128.089678 279.368132 
L 128.222309 279.368132 
L 128.310214 279.084424 
L 128.484801 279.013496 
L 128.528195 278.375153 
L 128.743679 278.375153 
L 128.786481 277.878664 
L 129.0834 277.807736 
L 129.167381 277.665882 
L 129.209231 277.665882 
L 129.209231 277.524028 
L 129.458394 277.453101 
L 129.499602 277.169393 
L 129.622688 277.169393 
L 129.7043 276.460122 
L 129.826058 276.389195 
L 129.86647 276.03456 
L 130.265881 275.963633 
L 130.265881 275.750852 
L 130.887807 275.679925 
L 130.926003 275.467144 
L 131.266322 275.396216 
L 131.341119 274.970654 
L 131.929028 274.899727 
L 132.037244 274.686946 
L 132.393534 274.686946 
L 132.428795 274.332311 
L 132.708526 274.261384 
L 132.812362 273.977675 
L 133.01833 273.977675 
L 133.01833 273.835821 
L 133.222067 273.764894 
L 133.222067 273.552113 
L 133.490329 273.481186 
L 133.490329 273.339332 
L 133.78762 273.268405 
L 133.78762 273.055624 
L 134.368469 272.984696 
L 134.368469 272.913769 
L 134.808158 272.842842 
L 134.901055 272.630061 
L 135.054871 272.630061 
L 135.054871 272.41728 
L 135.59842 272.346353 
L 135.59842 272.275426 
L 135.805631 272.204499 
L 135.805631 272.133572 
L 136.242113 272.062645 
L 136.242113 271.849864 
L 137.140746 271.778936 
L 137.140746 271.708009 
L 137.547645 271.708009 
L 137.574461 271.353374 
L 138.10291 271.282447 
L 138.206842 270.998739 
L 138.36167 270.998739 
L 138.36167 270.785958 
L 138.918715 270.785958 
L 138.918715 270.644104 
L 139.313723 270.573176 
L 139.313723 270.502249 
L 139.843661 270.502249 
L 139.843661 270.289468 
L 140.58877 270.289468 
L 140.58877 270.076687 
L 141.039908 270.076687 
L 141.039908 269.934833 
L 141.415049 269.934833 
L 141.50224 269.509271 
L 142.101521 269.509271 
L 142.185595 269.296489 
L 142.865233 269.296489 
L 142.865233 269.083708 
L 143.501625 269.012781 
L 143.501625 268.941854 
L 143.715505 268.870927 
L 143.792681 268.729073 
L 144.136106 268.729073 
L 144.136106 268.516292 
L 144.305496 268.516292 
L 144.324223 268.019802 
L 144.510478 268.019802 
L 144.510478 267.807021 
L 144.804702 267.807021 
L 144.895711 267.523313 
L 145.094395 267.452386 
L 145.094395 267.310532 
L 145.573357 267.310532 
L 145.573357 267.097751 
L 145.93763 267.097751 
L 145.93763 266.955896 
L 146.294984 266.955896 
L 146.294984 266.814042 
L 146.892226 266.743115 
L 146.892226 266.530334 
L 147.087167 266.530334 
L 147.103321 266.104772 
L 147.439393 266.033845 
L 147.439393 265.962918 
L 147.769567 265.891991 
L 147.769567 265.821064 
L 148.261802 265.750136 
L 148.261802 265.679209 
L 148.947561 265.608282 
L 148.947561 265.395501 
L 149.078856 265.395501 
L 149.122418 264.686231 
L 149.46733 264.615304 
L 149.46733 264.189741 
L 149.580909 264.189741 
L 149.580909 264.047887 
L 150.014665 263.97696 
L 150.014665 263.906033 
L 150.998235 263.835106 
L 150.998235 263.764179 
L 152.119363 263.693252 
L 152.218047 263.551398 
L 152.413875 263.480471 
L 152.413875 263.409544 
L 154.245509 263.338616 
L 154.245509 263.125835 
L 154.595705 263.125835 
L 154.693034 262.7712 
L 154.992656 262.7712 
L 154.992656 262.558419 
L 155.443693 262.487492 
L 155.464411 262.132856 
L 155.721473 262.132856 
L 155.792826 261.636367 
L 155.833477 261.636367 
L 155.863909 261.352659 
L 156.095593 261.352659 
L 156.155566 260.998024 
L 156.793307 260.927096 
L 156.87993 260.288753 
L 157.816487 260.217826 
L 157.907629 259.934118 
L 158.196349 259.863191 
L 158.232129 259.579482 
L 158.673735 259.508555 
L 158.752135 259.224847 
L 158.830209 259.15392 
L 158.856162 258.870212 
L 159.435025 258.799285 
L 159.485256 258.373722 
L 159.783859 258.302795 
L 159.874161 257.94816 
L 160.045361 257.877233 
L 160.045361 257.806306 
L 160.1667 257.806306 
L 160.1667 257.664452 
L 160.375185 257.664452 
L 160.399093 257.238889 
L 160.644379 257.167962 
L 160.714996 256.671473 
L 160.863211 256.600546 
L 160.948489 256.245911 
L 161.094883 256.245911 
L 161.194395 255.749421 
L 161.354042 255.678494 
L 161.452196 255.323859 
L 161.594737 255.252932 
L 161.624608 255.111078 
L 161.751035 255.040151 
L 161.817625 254.827369 
L 162.183335 254.756442 
L 162.291676 254.259953 
L 162.478002 254.189026 
L 162.506504 253.763464 
L 162.655437 253.763464 
L 162.732982 253.196047 
L 163.005365 253.12512 
L 163.109086 252.628631 
L 163.239651 252.628631 
L 163.301182 252.132141 
L 163.619284 252.061214 
L 163.692963 251.635652 
L 163.7397 251.635652 
L 163.792971 250.926381 
L 163.984826 250.855454 
L 164.030845 250.288038 
L 164.187772 250.217111 
L 164.246284 249.436913 
L 164.356312 249.436913 
L 164.465701 248.869496 
L 164.484939 248.798569 
L 164.593584 248.373007 
L 164.701605 248.30208 
L 164.790101 247.734664 
L 164.8279 247.734664 
L 164.922068 246.812612 
L 165.065549 246.812612 
L 165.121398 246.032414 
L 165.263372 246.032414 
L 165.263372 245.961487 
L 165.37374 245.464998 
L 165.379853 245.464998 
L 165.471304 244.613873 
L 165.55626 244.542946 
L 165.610672 244.259238 
L 165.676963 244.259238 
L 165.784938 243.691821 
L 165.838694 243.691821 
L 165.939815 242.769769 
L 165.957604 242.698842 
L 166.028591 242.202353 
L 166.087543 242.202353 
L 166.193193 241.422155 
L 166.222436 241.351228 
L 166.327333 240.712885 
L 166.356368 240.712885 
L 166.460523 239.578052 
L 166.495114 239.507125 
L 166.592777 238.868781 
L 166.632844 238.797854 
L 166.729796 237.663021 
L 166.752536 237.663021 
L 166.752536 237.592094 
L 166.860176 236.457261 
L 166.877116 236.457261 
L 166.984048 235.322428 
L 166.995269 235.322428 
L 167.084795 233.83296 
L 167.162782 233.762033 
L 167.268107 233.194616 
L 167.290205 233.194616 
L 167.38933 232.130711 
L 167.444174 232.059784 
L 167.553385 231.350513 
L 167.580589 231.350513 
L 167.689013 229.577336 
L 167.699821 229.577336 
L 167.796816 228.371576 
L 167.829037 228.371576 
L 167.936043 227.307671 
L 167.973351 227.236744 
L 168.079542 226.314692 
L 168.095418 226.243765 
L 168.206184 223.903172 
L 168.211442 223.903172 
L 168.305841 222.555558 
L 168.331979 222.484631 
L 168.436169 221.349798 
L 168.446557 221.349798 
L 168.550116 219.931256 
L 168.560441 219.931256 
L 168.642835 218.796424 
L 168.67364 218.796424 
L 168.770857 216.526758 
L 168.79126 216.455831 
L 168.892945 214.044311 
L 168.903083 214.044311 
L 169.009206 212.554842 
L 169.034386 212.483915 
L 169.144777 210.568885 
L 169.15978 210.568885 
L 169.264469 209.008489 
L 169.279377 208.937562 
L 169.383404 207.731802 
L 169.413021 207.660875 
L 169.516314 205.320282 
L 169.526122 205.320282 
L 169.633672 202.908762 
L 169.648291 202.908762 
L 169.716361 201.490221 
L 169.75999 201.490221 
L 169.866216 198.794993 
L 169.909499 198.724066 
L 170.019663 196.879962 
L 170.038756 196.879962 
L 170.143423 194.964932 
L 170.157651 194.964932 
L 170.266375 193.475464 
L 170.271088 193.475464 
L 170.37916 190.851162 
L 170.402572 190.780235 
L 170.509894 188.723351 
L 170.514546 188.723351 
L 170.598091 186.879247 
L 170.625857 186.879247 
L 170.727317 184.964216 
L 170.741111 184.964216 
L 170.841952 182.907332 
L 170.860229 182.907332 
L 170.96952 180.566739 
L 170.97406 180.566739 
L 171.078179 178.580781 
L 171.091717 178.580781 
L 171.190702 175.95648 
L 171.208643 175.95648 
L 171.208643 175.885553 
L 171.311476 173.403106 
L 171.324847 173.403106 
L 171.427048 171.700856 
L 171.440338 171.700856 
L 171.550721 167.658014 
L 171.563924 167.587087 
L 171.673587 165.246494 
L 171.67796 165.246494 
L 171.786963 161.912922 
L 171.800001 161.912922 
L 171.899659 159.643256 
L 171.912619 159.643256 
L 172.020274 157.160809 
L 172.024567 157.160809 
L 172.127316 154.891144 
L 172.135853 154.891144 
L 172.229507 152.054061 
L 172.250727 152.054061 
L 172.360687 149.287906 
L 172.385971 149.216979 
L 172.495145 146.876386 
L 172.499332 146.876386 
L 172.499332 146.805459 
L 172.607852 143.684668 
L 172.616174 143.684668 
L 172.719888 141.131294 
L 172.740562 141.060367 
L 172.839484 139.003482 
L 172.860027 139.003482 
L 172.962409 137.088452 
L 172.982818 137.088452 
L 173.080478 134.818786 
L 173.104813 134.747859 
L 173.213936 132.903755 
L 173.221995 132.832828 
L 173.326436 131.768922 
L 173.342453 131.697995 
L 173.45021 129.499256 
L 173.474073 129.428329 
L 173.577128 127.371445 
L 173.608724 127.300518 
L 173.711047 126.591247 
L 173.722818 126.591247 
L 173.765914 125.669195 
L 173.844019 125.598268 
L 173.941196 123.683238 
L 173.964444 123.612311 
L 174.072557 122.122842 
L 174.084104 122.051915 
L 174.187707 120.207812 
L 174.199183 120.207812 
L 174.309761 118.292781 
L 174.351535 118.221854 
L 174.449906 116.377751 
L 174.498899 116.306824 
L 174.581522 115.101064 
L 174.622697 115.030136 
L 174.73082 113.186033 
L 174.734538 113.186033 
L 174.834629 110.703586 
L 174.860492 110.703586 
L 174.967261 109.143191 
L 174.974602 109.143191 
L 175.084376 107.582795 
L 175.091672 107.582795 
L 175.200767 106.164254 
L 175.211641 106.093327 
L 175.316441 104.81664 
L 175.32725 104.745713 
L 175.434991 103.539953 
L 175.438571 103.539953 
L 175.549238 100.773798 
L 175.556356 100.702871 
L 175.662797 98.575059 
L 175.673408 98.575059 
L 175.76512 97.511153 
L 175.786221 97.511153 
L 175.894867 95.596122 
L 175.908841 95.525195 
L 176.013311 93.752019 
L 176.030666 93.752019 
L 176.137914 91.907915 
L 176.158601 91.836988 
L 176.265124 90.276593 
L 176.292516 90.205666 
L 176.384671 89.070833 
L 176.40849 88.999906 
L 176.516992 87.510438 
L 176.547396 87.439511 
L 176.651746 85.666334 
L 176.681933 85.595407 
L 176.792206 84.31872 
L 176.802199 84.247793 
L 176.898524 83.042033 
L 176.918392 82.971106 
L 177.024001 81.552565 
L 177.047024 81.481638 
L 177.155184 80.134024 
L 177.168252 80.063096 
L 177.278966 78.644555 
L 177.308164 78.573628 
L 177.363192 77.651576 
L 177.430947 77.580649 
L 177.54013 76.516744 
L 177.552933 76.445816 
L 177.661413 75.8784 
L 177.6932 75.807473 
L 177.794559 75.098202 
L 177.863928 75.027275 
L 177.904798 74.601713 
L 177.986274 74.530786 
L 178.086071 73.963369 
L 178.104724 73.963369 
L 178.104724 73.892442 
L 178.19462 73.325026 
L 178.234779 73.325026 
L 178.234779 73.254099 
L 178.345544 72.828536 
L 178.388444 72.757609 
L 178.486135 72.119266 
L 178.507438 72.119266 
L 178.604514 71.268141 
L 178.634748 71.197214 
L 178.728166 70.558871 
L 178.758202 70.558871 
L 178.856981 69.707746 
L 178.919572 69.636819 
L 179.008628 68.360132 
L 179.103159 68.289205 
L 179.20308 67.579934 
L 179.23822 67.509007 
L 179.343247 66.657882 
L 179.398443 66.586955 
L 179.499697 65.877685 
L 179.519883 65.877685 
L 179.623354 65.02656 
L 179.63768 65.02656 
L 179.717705 64.530071 
L 179.749051 64.530071 
L 179.839942 63.749873 
L 179.910646 63.678946 
L 180.011995 62.969675 
L 180.045657 62.898748 
L 180.154645 62.047624 
L 180.18249 61.976696 
L 180.243602 61.763915 
L 180.348695 61.692988 
L 180.458688 61.267426 
L 180.488824 61.196499 
L 180.598003 60.700009 
L 180.606166 60.629082 
L 180.652356 60.345374 
L 180.763291 60.274447 
L 180.873576 59.636104 
L 180.913763 59.565176 
L 180.98855 59.352395 
L 181.134593 59.281468 
L 181.195331 59.068687 
L 181.303119 58.99776 
L 181.376377 58.784979 
L 181.498707 58.714052 
L 181.576377 58.288489 
L 181.717944 58.217562 
L 181.789607 58.004781 
L 181.934654 57.933854 
L 182.04082 57.508292 
L 182.128837 57.437365 
L 182.23142 57.082729 
L 182.293698 57.011802 
L 182.397862 56.657167 
L 182.412696 56.58624 
L 182.471914 56.231605 
L 182.643576 56.160678 
L 182.745826 55.876969 
L 182.917423 55.806042 
L 182.917423 55.735115 
L 183.070773 55.664188 
L 183.177853 55.451407 
L 183.267804 55.38048 
L 183.336163 55.238626 
L 183.441747 55.167699 
L 183.441747 55.096772 
L 183.738875 55.025845 
L 183.738875 54.954918 
L 183.874269 54.883991 
L 183.9131 54.671209 
L 184.04725 54.600282 
L 184.146674 54.316574 
L 184.198438 54.245647 
L 184.272459 54.103793 
L 184.61849 54.032866 
L 184.695258 53.891012 
L 184.730249 53.891012 
L 184.828311 53.536376 
L 184.997084 53.465449 
L 185.061595 53.252668 
L 185.509182 53.181741 
L 185.611618 53.039887 
L 185.636619 53.039887 
L 185.703128 52.685252 
L 185.868378 52.614325 
L 185.934074 52.472471 
L 186.054602 52.401544 
L 186.115593 52.046908 
L 186.289345 51.975981 
L 186.289345 51.905054 
L 186.423607 51.905054 
L 186.487395 51.621346 
L 186.641979 51.550419 
L 186.641979 51.479492 
L 186.861747 51.408565 
L 186.875397 51.124856 
L 187.2861 51.053929 
L 187.366036 50.699294 
L 187.562523 50.628367 
L 187.673086 50.273732 
L 187.704822 50.202805 
L 187.771854 49.919096 
L 187.847905 49.848169 
L 187.916274 49.564461 
L 187.982557 49.493534 
L 188.04128 49.209826 
L 188.187291 49.138899 
L 188.258062 48.713336 
L 188.342998 48.642409 
L 188.423963 48.14592 
L 188.52602 48.074993 
L 188.600867 47.578504 
L 188.66124 47.507576 
L 188.76731 46.301816 
L 188.781408 46.230889 
L 188.865773 45.308838 
L 188.921807 45.237911 
L 189.002064 44.812348 
L 189.137374 44.741421 
L 189.240801 43.606588 
L 189.25283 43.606588 
L 189.32998 43.251953 
L 189.374411 43.251953 
L 189.468056 42.258974 
L 189.498603 42.258974 
L 189.606813 41.762485 
L 189.625349 41.691558 
L 189.697633 40.840433 
L 189.756265 40.769506 
L 189.866333 39.280038 
L 189.8979 39.209111 
L 190.002193 38.357986 
L 190.028588 38.287059 
L 190.135439 37.648715 
L 190.158374 37.577788 
L 190.266121 36.08832 
L 190.292149 36.017393 
L 190.39105 35.379049 
L 190.4395 35.308122 
L 190.548861 34.527925 
L 190.561685 34.527925 
L 190.662372 34.031435 
L 190.813189 33.960508 
L 190.865296 33.6768 
L 191.100346 33.605873 
L 191.1268 33.322165 
L 191.277039 33.251238 
L 191.377048 32.754748 
L 191.458202 32.754748 
L 191.555734 32.187332 
L 191.608859 32.116405 
L 191.640662 31.761769 
L 191.782364 31.690842 
L 191.866277 31.123426 
L 191.945352 31.052499 
L 192.052245 30.626936 
L 192.080351 30.556009 
L 192.173248 30.130447 
L 192.363502 30.05952 
L 192.443418 29.917666 
L 192.543199 29.846739 
L 192.620921 29.492104 
L 192.686876 29.421176 
L 192.758305 29.279322 
L 193.164539 29.208395 
L 193.24391 29.066541 
L 193.398898 28.995614 
L 193.405787 28.85376 
L 193.705095 28.782833 
L 193.70645 28.640979 
L 193.863068 28.570052 
L 193.887254 28.428198 
L 194.066337 28.357271 
L 194.066337 28.286344 
L 194.419467 28.215416 
L 194.476816 28.073562 
L 195.504929 28.002635 
L 195.504929 27.931708 
L 196.649793 27.860781 
L 196.649793 27.789854 
L 199.287247 27.718927 
L 199.287247 27.648 
L 360.8064 27.648 
L 360.8064 27.648 
" style="fill: none; stroke: #000080; stroke-width: 1.5; stroke-linecap: square"/>
   </g>
   <g id="line2d_36">
    <defs>
     <path id="m9029c32b99" d="M 0 6 
C 1.591219 6 3.117479 5.367802 4.242641 4.242641 
C 5.367802 3.117479 6 1.591219 6 0 
C 6 -1.591219 5.367802 -3.117479 4.242641 -4.242641 
C 3.117479 -5.367802 1.591219 -6 0 -6 
C -1.591219 -6 -3.117479 -5.367802 -4.242641 -4.242641 
C -5.367802 -3.117479 -6 -1.591219 -6 0 
C -6 1.591219 -5.367802 3.117479 -4.242641 4.242641 
C -3.117479 5.367802 -1.591219 6 0 6 
z
" style="stroke: #000080; stroke-width: 1.5"/>
    </defs>
    <g>
     <use xlink:href="#m9029c32b99" x="176.384671" y="89.212687" style="fill-opacity: 0; stroke: #000080; stroke-width: 1.5"/>
     <use xlink:href="#m9029c32b99" x="199.287247" y="27.718927" style="fill-opacity: 0; stroke: #000080; stroke-width: 1.5"/>
     <use xlink:href="#m9029c32b99" x="199.287247" y="27.648" style="fill-opacity: 0; stroke: #000080; stroke-width: 1.5"/>
     <use xlink:href="#m9029c32b99" x="199.287247" y="27.648" style="fill-opacity: 0; stroke: #000080; stroke-width: 1.5"/>
     <use xlink:href="#m9029c32b99" x="360.8064" y="27.648" style="fill-opacity: 0; stroke: #000080; stroke-width: 1.5"/>
    </g>
   </g>
   <g id="line2d_37">
    <path style="fill: none; stroke: #000080; stroke-width: 1.5; stroke-linecap: square"/>
    <g/>
   </g>
   <g id="line2d_38">
    <path d="M 103.047088 298.944 
" clip-path="url(#pe458417cfa)" style="fill: none; stroke: #000080; stroke-width: 1.5; stroke-linecap: square"/>
    <defs>
     <path id="maf934c5fe6" d="M -12 12 
L 12 -12 
M -12 -12 
L 12 12 
" style="stroke: #000080"/>
    </defs>
    <g clip-path="url(#pe458417cfa)">
     <use xlink:href="#maf934c5fe6" x="103.047088" y="298.944" style="fill: #000080; stroke: #000080"/>
    </g>
   </g>
   <g id="line2d_39">
    <defs>
     <path id="m08aafd75c1" d="M 0 1.5 
C 0.397805 1.5 0.77937 1.341951 1.06066 1.06066 
C 1.341951 0.77937 1.5 0.397805 1.5 0 
C 1.5 -0.397805 1.341951 -0.77937 1.06066 -1.06066 
C 0.77937 -1.341951 0.397805 -1.5 0 -1.5 
C -0.397805 -1.5 -0.77937 -1.341951 -1.06066 -1.06066 
C -1.341951 -0.77937 -1.5 -0.397805 -1.5 0 
C -1.5 0.397805 -1.341951 0.77937 -1.06066 1.06066 
C -0.77937 1.341951 -0.397805 1.5 0 1.5 
z
" style="stroke: #ff00ff"/>
    </defs>
    <g>
     <use xlink:href="#m08aafd75c1" x="179.774658" y="27.648" style="fill: #ff00ff; stroke: #ff00ff"/>
     <use xlink:href="#m08aafd75c1" x="179.774658" y="27.648" style="fill: #ff00ff; stroke: #ff00ff"/>
    </g>
   </g>
   <g id="line2d_40">
    <path d="M 112.076599 298.944 
L 112.076599 298.589365 
L 113.670063 298.589365 
L 113.765312 297.880094 
L 114.048198 297.880094 
L 114.048198 297.525459 
L 115.489021 297.525459 
L 115.575511 296.816188 
L 116.827295 296.816188 
L 116.827295 296.106918 
L 117.067958 296.106918 
L 117.067958 295.752282 
L 118.376446 295.752282 
L 118.376446 295.397647 
L 118.671535 295.397647 
L 118.74459 294.333741 
L 119.319033 294.333741 
L 119.319033 293.979106 
L 119.530006 293.979106 
L 119.530006 293.269835 
L 120.0813 293.269835 
L 120.149089 292.205929 
L 120.48442 292.205929 
L 120.48442 291.851294 
L 120.813877 291.851294 
L 120.813877 291.496659 
L 121.39274 291.496659 
L 121.39274 291.142024 
L 121.518993 291.142024 
L 121.518993 290.432753 
L 121.892744 290.432753 
L 121.892744 290.078118 
L 122.319605 290.078118 
L 122.319605 289.723482 
L 122.439807 289.723482 
L 122.439807 289.014212 
L 122.736994 289.014212 
L 122.736994 288.659576 
L 123.431654 288.659576 
L 123.431654 288.304941 
L 123.601383 288.304941 
L 123.601383 287.595671 
L 123.880906 287.595671 
L 123.880906 287.241035 
L 124.210942 287.241035 
L 124.265389 286.531765 
L 125.47606 286.531765 
L 125.47606 286.177129 
L 125.979073 286.177129 
L 126.078082 285.467859 
L 126.176572 285.467859 
L 126.225624 284.758588 
L 126.372018 284.758588 
L 126.420564 284.049318 
L 126.565455 284.049318 
L 126.565455 283.694682 
L 126.851931 283.694682 
L 126.851931 283.340047 
L 126.993549 283.340047 
L 126.993549 282.985412 
L 127.549596 282.985412 
L 127.549596 282.630776 
L 127.776517 282.630776 
L 127.776517 282.276141 
L 127.911368 282.276141 
L 127.956104 281.566871 
L 128.089678 281.566871 
L 128.178203 280.8576 
L 128.354013 280.8576 
L 128.354013 280.502965 
L 128.614685 280.502965 
L 128.614685 280.148329 
L 129.78556 280.148329 
L 129.78556 279.793694 
L 130.027253 279.793694 
L 130.107132 279.084424 
L 130.734242 279.084424 
L 130.811181 278.020518 
L 131.452761 278.020518 
L 131.452761 276.956612 
L 131.63737 276.956612 
L 131.63737 276.247341 
L 131.820186 276.247341 
L 131.820186 275.892706 
L 132.037244 275.892706 
L 132.073179 275.183435 
L 132.358208 275.183435 
L 132.358208 274.8288 
L 132.499119 274.8288 
L 132.499119 274.474165 
L 133.05244 274.474165 
L 133.05244 274.119529 
L 133.490329 274.119529 
L 133.490329 273.764894 
L 133.623039 273.764894 
L 133.623039 273.410259 
L 133.853052 273.410259 
L 133.853052 273.055624 
L 134.208913 273.055624 
L 134.304809 272.346353 
L 134.745971 272.346353 
L 134.745971 271.991718 
L 135.478982 271.991718 
L 135.478982 271.637082 
L 135.628162 271.637082 
L 135.628162 271.282447 
L 135.864417 271.282447 
L 135.864417 270.927812 
L 136.039681 270.927812 
L 136.039681 270.573176 
L 136.155623 270.573176 
L 136.155623 270.218541 
L 136.864507 270.218541 
L 136.947806 269.509271 
L 137.222833 269.509271 
L 137.222833 269.154635 
L 138.642255 269.154635 
L 138.718057 268.445365 
L 139.604629 268.445365 
L 139.604629 268.090729 
L 141.151022 268.090729 
L 141.151022 267.736094 
L 141.589029 267.736094 
L 141.610664 267.026824 
L 144.117191 267.026824 
L 144.173881 266.317553 
L 145.520737 266.317553 
L 145.520737 265.962918 
L 147.054816 265.962918 
L 147.054816 265.608282 
L 148.094045 265.608282 
L 148.094045 265.253647 
L 149.453084 265.253647 
L 149.453084 264.899012 
L 150.533072 264.899012 
L 150.533072 264.544376 
L 150.760445 264.544376 
L 150.760445 264.189741 
L 151.194122 264.189741 
L 151.194122 263.835106 
L 151.832729 263.835106 
L 151.832729 263.480471 
L 152.365109 263.480471 
L 152.365109 263.125835 
L 153.351976 263.125835 
L 153.351976 262.7712 
L 153.490466 262.7712 
L 153.490466 262.416565 
L 154.156931 262.416565 
L 154.156931 262.061929 
L 154.617377 262.061929 
L 154.617377 261.707294 
L 154.854139 261.707294 
L 154.854139 261.352659 
L 156.095593 261.352659 
L 156.095593 260.998024 
L 156.725657 260.998024 
L 156.725657 260.643388 
L 157.852997 260.643388 
L 157.871225 259.934118 
L 158.043518 259.934118 
L 158.052543 259.224847 
L 158.214248 259.224847 
L 158.214248 258.870212 
L 158.577468 258.870212 
L 158.603771 258.160941 
L 158.925196 258.160941 
L 158.968213 257.451671 
L 159.476894 257.451671 
L 159.476894 257.097035 
L 160.438872 257.097035 
L 160.438872 256.7424 
L 160.565603 256.7424 
L 160.565603 256.387765 
L 160.707162 256.387765 
L 160.707162 256.033129 
L 160.863211 256.033129 
L 160.863211 255.678494 
L 161.041081 255.678494 
L 161.041081 255.323859 
L 161.316153 255.323859 
L 161.406958 254.259953 
L 161.773258 254.259953 
L 161.876619 253.550682 
L 162.226747 253.550682 
L 162.291676 252.132141 
L 162.520739 252.132141 
L 162.605924 251.422871 
L 162.683672 251.422871 
L 162.775144 250.7136 
L 162.852198 250.7136 
L 162.852198 250.358965 
L 163.067666 250.358965 
L 163.067666 250.004329 
L 163.430425 250.004329 
L 163.430425 249.649694 
L 163.925494 249.649694 
L 164.030845 248.585788 
L 164.050532 248.585788 
L 164.142137 247.876518 
L 164.239791 247.876518 
L 164.324018 247.167247 
L 164.362764 247.167247 
L 164.414303 246.103341 
L 164.714273 246.103341 
L 164.752225 245.394071 
L 164.965852 245.394071 
L 164.965852 245.039435 
L 165.084184 245.039435 
L 165.109001 244.330165 
L 165.44087 244.330165 
L 165.525963 243.266259 
L 165.604634 243.266259 
L 165.604634 242.911624 
L 165.784938 242.911624 
L 165.838694 241.847718 
L 165.957604 241.847718 
L 166.034495 241.138447 
L 166.245797 241.138447 
L 166.327333 240.074541 
L 166.466293 240.074541 
L 166.575579 238.656 
L 166.707029 238.656 
L 166.718416 237.592094 
L 166.950346 237.592094 
L 167.023292 236.528188 
L 167.179451 236.528188 
L 167.190556 235.818918 
L 167.295726 235.818918 
L 167.328816 234.400376 
L 167.427738 234.400376 
L 167.520688 233.336471 
L 167.558829 233.336471 
L 167.661966 232.6272 
L 167.818303 232.6272 
L 167.920031 231.563294 
L 167.973351 231.563294 
L 168.074246 230.144753 
L 168.200924 230.144753 
L 168.274427 229.080847 
L 168.363297 229.080847 
L 168.425776 228.016941 
L 168.508761 228.016941 
L 168.57076 227.307671 
L 168.653109 227.307671 
L 168.735099 225.534494 
L 168.781062 225.534494 
L 168.857418 224.470588 
L 168.892945 224.470588 
L 168.983993 223.406682 
L 169.014245 223.406682 
L 169.089662 222.342776 
L 169.169775 222.342776 
L 169.264469 220.924235 
L 169.314117 220.924235 
L 169.408088 220.214965 
L 169.462279 220.214965 
L 169.521218 219.151059 
L 169.584862 219.151059 
L 169.682356 217.023247 
L 169.696937 217.023247 
L 169.774511 215.604706 
L 169.933503 215.604706 
L 170.038756 212.767624 
L 170.067359 212.767624 
L 170.138678 210.994447 
L 170.18134 210.994447 
L 170.28522 209.221271 
L 170.336945 209.221271 
L 170.4353 207.448094 
L 170.467971 207.448094 
L 170.574922 205.674918 
L 170.602722 205.674918 
L 170.676656 202.837835 
L 170.727317 202.837835 
L 170.83738 199.291482 
L 170.96952 199.291482 
L 171.073664 196.809035 
L 171.091717 196.809035 
L 171.195189 193.971953 
L 171.222088 193.971953 
L 171.320391 191.844141 
L 171.387122 191.844141 
L 171.458043 189.361694 
L 171.506646 189.361694 
L 171.607866 186.169976 
L 171.629799 186.169976 
L 171.73472 183.687529 
L 171.752151 183.687529 
L 171.856394 178.722635 
L 171.899659 178.722635 
L 171.994493 176.240188 
L 172.067447 176.240188 
L 172.14012 173.757741 
L 172.195505 173.757741 
L 172.297327 169.502118 
L 172.335368 169.502118 
L 172.444836 165.601129 
L 172.465815 165.601129 
L 172.557844 160.636235 
L 172.582865 160.636235 
L 172.607852 158.153788 
L 172.703332 158.153788 
L 172.810685 154.607435 
L 172.83126 154.607435 
L 172.941977 150.706447 
L 172.950152 150.706447 
L 173.027642 144.677647 
L 173.080478 144.677647 
L 173.173594 141.840565 
L 173.193776 141.840565 
L 173.302386 137.584941 
L 173.32243 137.584941 
L 173.426318 130.492235 
L 173.478047 130.492235 
L 173.581081 124.463435 
L 173.624503 124.463435 
L 173.730661 119.853176 
L 173.7385 119.853176 
L 173.847916 116.306824 
L 173.867387 116.306824 
L 173.976058 112.760471 
L 173.983796 112.760471 
L 174.080256 106.377035 
L 174.103333 106.377035 
L 174.199183 102.476047 
L 174.222115 102.476047 
L 174.313562 97.865788 
L 174.336355 97.865788 
L 174.404568 93.610165 
L 174.480071 93.610165 
L 174.589015 90.063812 
L 174.596505 90.063812 
L 174.697331 85.453553 
L 174.715944 85.453553 
L 174.805028 80.843294 
L 174.830931 80.843294 
L 174.941545 75.169129 
L 174.948896 75.169129 
L 175.051511 73.395953 
L 175.073427 73.395953 
L 175.182628 68.431059 
L 175.186257 68.431059 
L 175.273147 63.8208 
L 175.323647 63.8208 
L 175.420661 60.629082 
L 175.463618 60.629082 
L 175.574138 57.437365 
L 175.616746 57.437365 
L 175.722847 54.954918 
L 175.740472 54.954918 
L 175.83887 52.472471 
L 175.859888 52.472471 
L 175.943728 49.990024 
L 175.982031 49.990024 
L 176.048006 49.280753 
L 176.103385 49.280753 
L 176.196469 47.152941 
L 176.265124 47.152941 
L 176.350592 44.670494 
L 176.40849 44.670494 
L 176.472989 43.606588 
L 176.520373 43.606588 
L 176.62151 41.124141 
L 176.661814 41.124141 
L 176.712072 39.350965 
L 176.788874 39.350965 
L 176.848762 38.641694 
L 176.911772 38.641694 
L 176.938239 37.223153 
L 177.083146 37.223153 
L 177.083146 36.868518 
L 177.220434 36.868518 
L 177.311405 36.159247 
L 177.376117 36.159247 
L 177.376117 35.804612 
L 177.635944 35.804612 
L 177.635944 35.095341 
L 177.857632 35.095341 
L 177.914217 34.386071 
L 178.064285 34.386071 
L 178.064285 33.6768 
L 178.179151 33.6768 
L 178.287166 32.967529 
L 178.333269 32.967529 
L 178.333269 32.612894 
L 178.480044 32.612894 
L 178.540864 31.903624 
L 178.764203 31.903624 
L 178.764203 31.194353 
L 178.937417 31.194353 
L 178.993815 30.130447 
L 179.085471 30.130447 
L 179.085471 29.775812 
L 179.296641 29.775812 
L 179.334518 28.711906 
L 179.514118 28.711906 
L 179.588927 28.002635 
L 179.774658 28.002635 
L 179.774658 27.648 
L 360.8064 27.648 
L 360.8064 27.648 
" style="fill: none; stroke: #ff00ff; stroke-width: 1.5; stroke-linecap: square"/>
   </g>
   <g id="line2d_41">
    <defs>
     <path id="m7eaa710190" d="M -0 8.485281 
L 5.091169 0 
L 0 -8.485281 
L -5.091169 -0 
z
" style="stroke: #ff00ff; stroke-width: 1.5; stroke-linejoin: miter"/>
    </defs>
    <g>
     <use xlink:href="#m7eaa710190" x="164.965852" y="245.039435" style="fill-opacity: 0; stroke: #ff00ff; stroke-width: 1.5; stroke-linejoin: miter"/>
     <use xlink:href="#m7eaa710190" x="178.064285" y="33.6768" style="fill-opacity: 0; stroke: #ff00ff; stroke-width: 1.5; stroke-linejoin: miter"/>
     <use xlink:href="#m7eaa710190" x="179.774658" y="27.648" style="fill-opacity: 0; stroke: #ff00ff; stroke-width: 1.5; stroke-linejoin: miter"/>
     <use xlink:href="#m7eaa710190" x="179.774658" y="27.648" style="fill-opacity: 0; stroke: #ff00ff; stroke-width: 1.5; stroke-linejoin: miter"/>
     <use xlink:href="#m7eaa710190" x="360.8064" y="27.648" style="fill-opacity: 0; stroke: #ff00ff; stroke-width: 1.5; stroke-linejoin: miter"/>
    </g>
   </g>
   <g id="line2d_42">
    <path style="fill: none; stroke: #ff00ff; stroke-width: 1.5; stroke-linecap: square"/>
    <g/>
   </g>
   <g id="line2d_43">
    <path d="M 360.8064 27.648 
L 380.514816 293.51808 
" style="fill: none; stroke: #000080; stroke-width: 1.5; stroke-linecap: square"/>
    <g>
     <use xlink:href="#m9029c32b99" x="360.8064" y="27.648" style="fill-opacity: 0; stroke: #000080; stroke-width: 1.5"/>
     <use xlink:href="#m9029c32b99" x="380.514816" y="293.51808" style="fill-opacity: 0; stroke: #000080; stroke-width: 1.5"/>
    </g>
   </g>
   <g id="line2d_44">
    <path d="M 360.8064 27.648 
L 380.514816 163.296 
" style="fill: none; stroke: #ff00ff; stroke-width: 1.5; stroke-linecap: square"/>
    <g>
     <use xlink:href="#m7eaa710190" x="360.8064" y="27.648" style="fill-opacity: 0; stroke: #ff00ff; stroke-width: 1.5; stroke-linejoin: miter"/>
     <use xlink:href="#m7eaa710190" x="380.514816" y="163.296" style="fill-opacity: 0; stroke: #ff00ff; stroke-width: 1.5; stroke-linejoin: miter"/>
    </g>
   </g>
   <g id="line2d_45">
    <path d="M 360.8064 298.944 
L 360.8064 27.648 
" style="fill: none; stroke: #000000; stroke-width: 1.5; stroke-linecap: square"/>
   </g>
   <g id="patch_3">
    <path d="M 57.6 298.944 
L 360.8064 298.944 
" style="fill: none; stroke: #000000; stroke-width: 0.8; stroke-linejoin: miter; stroke-linecap: square"/>
   </g>
   <g id="patch_4">
    <path d="M 57.6 27.648 
L 360.8064 27.648 
" style="fill: none; stroke: #000000; stroke-width: 0.8; stroke-linejoin: miter; stroke-linecap: square"/>
   </g>
   <g id="text_13">
    <!-- ex -->
    <g transform="translate(386.578944 297.381205)scale(0.14 -0.14)">
     <defs>
      <path id="DejaVuSans-78" d="M 3513 3500 
L 2247 1797 
L 3578 0 
L 2900 0 
L 1881 1375 
L 863 0 
L 184 0 
L 1544 1831 
L 300 3500 
L 978 3500 
L 1906 2253 
L 2834 3500 
L 3513 3500 
z
" transform="scale(0.015625)"/>
     </defs>
     <use xlink:href="#DejaVuSans-65"/>
     <use xlink:href="#DejaVuSans-78" x="59.773438"/>
    </g>
   </g>
   <g id="text_14">
    <!-- CMA-ES-20 -->
    <g transform="translate(386.578944 167.159125)scale(0.14 -0.14)">
     <defs>
      <path id="DejaVuSans-43" d="M 4122 4306 
L 4122 3641 
Q 3803 3938 3442 4084 
Q 3081 4231 2675 4231 
Q 1875 4231 1450 3742 
Q 1025 3253 1025 2328 
Q 1025 1406 1450 917 
Q 1875 428 2675 428 
Q 3081 428 3442 575 
Q 3803 722 4122 1019 
L 4122 359 
Q 3791 134 3420 21 
Q 3050 -91 2638 -91 
Q 1578 -91 968 557 
Q 359 1206 359 2328 
Q 359 3453 968 4101 
Q 1578 4750 2638 4750 
Q 3056 4750 3426 4639 
Q 3797 4528 4122 4306 
z
" transform="scale(0.015625)"/>
      <path id="DejaVuSans-4d" d="M 628 4666 
L 1569 4666 
L 2759 1491 
L 3956 4666 
L 4897 4666 
L 4897 0 
L 4281 0 
L 4281 4097 
L 3078 897 
L 2444 897 
L 1241 4097 
L 1241 0 
L 628 0 
L 628 4666 
z
" transform="scale(0.015625)"/>
      <path id="DejaVuSans-41" d="M 2188 4044 
L 1331 1722 
L 3047 1722 
L 2188 4044 
z
M 1831 4666 
L 2547 4666 
L 4325 0 
L 3669 0 
L 3244 1197 
L 1141 1197 
L 716 0 
L 50 0 
L 1831 4666 
z
" transform="scale(0.015625)"/>
      <path id="DejaVuSans-45" d="M 628 4666 
L 3578 4666 
L 3578 4134 
L 1259 4134 
L 1259 2753 
L 3481 2753 
L 3481 2222 
L 1259 2222 
L 1259 531 
L 3634 531 
L 3634 0 
L 628 0 
L 628 4666 
z
" transform="scale(0.015625)"/>
      <path id="DejaVuSans-53" d="M 3425 4513 
L 3425 3897 
Q 3066 4069 2747 4153 
Q 2428 4238 2131 4238 
Q 1616 4238 1336 4038 
Q 1056 3838 1056 3469 
Q 1056 3159 1242 3001 
Q 1428 2844 1947 2747 
L 2328 2669 
Q 3034 2534 3370 2195 
Q 3706 1856 3706 1288 
Q 3706 609 3251 259 
Q 2797 -91 1919 -91 
Q 1588 -91 1214 -16 
Q 841 59 441 206 
L 441 856 
Q 825 641 1194 531 
Q 1563 422 1919 422 
Q 2459 422 2753 634 
Q 3047 847 3047 1241 
Q 3047 1584 2836 1778 
Q 2625 1972 2144 2069 
L 1759 2144 
Q 1053 2284 737 2584 
Q 422 2884 422 3419 
Q 422 4038 858 4394 
Q 1294 4750 2059 4750 
Q 2388 4750 2728 4690 
Q 3069 4631 3425 4513 
z
" transform="scale(0.015625)"/>
     </defs>
     <use xlink:href="#DejaVuSans-43"/>
     <use xlink:href="#DejaVuSans-4d" x="69.824219"/>
     <use xlink:href="#DejaVuSans-41" x="156.103516"/>
     <use xlink:href="#DejaVuSans-2d" x="222.261719"/>
     <use xlink:href="#DejaVuSans-45" x="258.345703"/>
     <use xlink:href="#DejaVuSans-53" x="321.529297"/>
     <use xlink:href="#DejaVuSans-2d" x="385.005859"/>
     <use xlink:href="#DejaVuSans-32" x="421.089844"/>
     <use xlink:href="#DejaVuSans-30" x="484.712891"/>
    </g>
   </g>
   <g id="text_15">
    <!-- best 2009 -->
    <g transform="translate(386.578944 36.937045)scale(0.14 -0.14)">
     <defs>
      <path id="DejaVuSans-62" d="M 3116 1747 
Q 3116 2381 2855 2742 
Q 2594 3103 2138 3103 
Q 1681 3103 1420 2742 
Q 1159 2381 1159 1747 
Q 1159 1113 1420 752 
Q 1681 391 2138 391 
Q 2594 391 2855 752 
Q 3116 1113 3116 1747 
z
M 1159 2969 
Q 1341 3281 1617 3432 
Q 1894 3584 2278 3584 
Q 2916 3584 3314 3078 
Q 3713 2572 3713 1747 
Q 3713 922 3314 415 
Q 2916 -91 2278 -91 
Q 1894 -91 1617 61 
Q 1341 213 1159 525 
L 1159 0 
L 581 0 
L 581 4863 
L 1159 4863 
L 1159 2969 
z
" transform="scale(0.015625)"/>
      <path id="DejaVuSans-39" d="M 703 97 
L 703 672 
Q 941 559 1184 500 
Q 1428 441 1663 441 
Q 2288 441 2617 861 
Q 2947 1281 2994 2138 
Q 2813 1869 2534 1725 
Q 2256 1581 1919 1581 
Q 1219 1581 811 2004 
Q 403 2428 403 3163 
Q 403 3881 828 4315 
Q 1253 4750 1959 4750 
Q 2769 4750 3195 4129 
Q 3622 3509 3622 2328 
Q 3622 1225 3098 567 
Q 2575 -91 1691 -91 
Q 1453 -91 1209 -44 
Q 966 3 703 97 
z
M 1959 2075 
Q 2384 2075 2632 2365 
Q 2881 2656 2881 3163 
Q 2881 3666 2632 3958 
Q 2384 4250 1959 4250 
Q 1534 4250 1286 3958 
Q 1038 3666 1038 3163 
Q 1038 2656 1286 2365 
Q 1534 2075 1959 2075 
z
" transform="scale(0.015625)"/>
     </defs>
     <use xlink:href="#DejaVuSans-62"/>
     <use xlink:href="#DejaVuSans-65" x="63.476562"/>
     <use xlink:href="#DejaVuSans-73" x="125"/>
     <use xlink:href="#DejaVuSans-74" x="177.099609"/>
     <use xlink:href="#DejaVuSans-20" x="216.308594"/>
     <use xlink:href="#DejaVuSans-32" x="248.095703"/>
     <use xlink:href="#DejaVuSans-30" x="311.71875"/>
     <use xlink:href="#DejaVuSans-30" x="375.341797"/>
     <use xlink:href="#DejaVuSans-39" x="438.964844"/>
    </g>
   </g>
   <g id="text_16">
    <!-- bbob f8, 10-D -->
    <g transform="translate(60.632064 38.111366)scale(0.102 -0.102)">
     <defs>
      <path id="DejaVuSans-44" d="M 1259 4147 
L 1259 519 
L 2022 519 
Q 2988 519 3436 956 
Q 3884 1394 3884 2338 
Q 3884 3275 3436 3711 
Q 2988 4147 2022 4147 
L 1259 4147 
z
M 628 4666 
L 1925 4666 
Q 3281 4666 3915 4102 
Q 4550 3538 4550 2338 
Q 4550 1131 3912 565 
Q 3275 0 1925 0 
L 628 0 
L 628 4666 
z
" transform="scale(0.015625)"/>
     </defs>
     <use xlink:href="#DejaVuSans-62"/>
     <use xlink:href="#DejaVuSans-62" x="63.476562"/>
     <use xlink:href="#DejaVuSans-6f" x="126.953125"/>
     <use xlink:href="#DejaVuSans-62" x="188.134766"/>
     <use xlink:href="#DejaVuSans-20" x="251.611328"/>
     <use xlink:href="#DejaVuSans-66" x="283.398438"/>
     <use xlink:href="#DejaVuSans-38" x="318.603516"/>
     <use xlink:href="#DejaVuSans-2c" x="382.226562"/>
     <use xlink:href="#DejaVuSans-20" x="414.013672"/>
     <use xlink:href="#DejaVuSans-31" x="445.800781"/>
     <use xlink:href="#DejaVuSans-30" x="509.423828"/>
     <use xlink:href="#DejaVuSans-2d" x="573.046875"/>
     <use xlink:href="#DejaVuSans-44" x="609.130859"/>
    </g>
    <!-- 51 targets: 100..1e-08 -->
    <g transform="translate(60.632064 49.533135)scale(0.102 -0.102)">
     <defs>
      <path id="DejaVuSans-35" d="M 691 4666 
L 3169 4666 
L 3169 4134 
L 1269 4134 
L 1269 2991 
Q 1406 3038 1543 3061 
Q 1681 3084 1819 3084 
Q 2600 3084 3056 2656 
Q 3513 2228 3513 1497 
Q 3513 744 3044 326 
Q 2575 -91 1722 -91 
Q 1428 -91 1123 -41 
Q 819 9 494 109 
L 494 744 
Q 775 591 1075 516 
Q 1375 441 1709 441 
Q 2250 441 2565 725 
Q 2881 1009 2881 1497 
Q 2881 1984 2565 2268 
Q 2250 2553 1709 2553 
Q 1456 2553 1204 2497 
Q 953 2441 691 2322 
L 691 4666 
z
" transform="scale(0.015625)"/>
      <path id="DejaVuSans-3a" d="M 750 794 
L 1409 794 
L 1409 0 
L 750 0 
L 750 794 
z
M 750 3309 
L 1409 3309 
L 1409 2516 
L 750 2516 
L 750 3309 
z
" transform="scale(0.015625)"/>
     </defs>
     <use xlink:href="#DejaVuSans-35"/>
     <use xlink:href="#DejaVuSans-31" x="63.623047"/>
     <use xlink:href="#DejaVuSans-20" x="127.246094"/>
     <use xlink:href="#DejaVuSans-74" x="159.033203"/>
     <use xlink:href="#DejaVuSans-61" x="198.242188"/>
     <use xlink:href="#DejaVuSans-72" x="259.521484"/>
     <use xlink:href="#DejaVuSans-67" x="298.884766"/>
     <use xlink:href="#DejaVuSans-65" x="362.361328"/>
     <use xlink:href="#DejaVuSans-74" x="423.884766"/>
     <use xlink:href="#DejaVuSans-73" x="463.09375"/>
     <use xlink:href="#DejaVuSans-3a" x="515.193359"/>
     <use xlink:href="#DejaVuSans-20" x="548.884766"/>
     <use xlink:href="#DejaVuSans-31" x="580.671875"/>
     <use xlink:href="#DejaVuSans-30" x="644.294922"/>
     <use xlink:href="#DejaVuSans-30" x="707.917969"/>
     <use xlink:href="#DejaVuSans-2e" x="771.541016"/>
     <use xlink:href="#DejaVuSans-2e" x="803.328125"/>
     <use xlink:href="#DejaVuSans-31" x="835.115234"/>
     <use xlink:href="#DejaVuSans-65" x="898.738281"/>
     <use xlink:href="#DejaVuSans-2d" x="960.261719"/>
     <use xlink:href="#DejaVuSans-30" x="996.345703"/>
     <use xlink:href="#DejaVuSans-38" x="1059.96875"/>
    </g>
    <!-- 25, 15 instances -->
    <g transform="translate(60.632064 60.954904)scale(0.102 -0.102)">
     <use xlink:href="#DejaVuSans-32"/>
     <use xlink:href="#DejaVuSans-35" x="63.623047"/>
     <use xlink:href="#DejaVuSans-2c" x="127.246094"/>
     <use xlink:href="#DejaVuSans-20" x="159.033203"/>
     <use xlink:href="#DejaVuSans-31" x="190.820312"/>
     <use xlink:href="#DejaVuSans-35" x="254.443359"/>
     <use xlink:href="#DejaVuSans-20" x="318.066406"/>
     <use xlink:href="#DejaVuSans-69" x="349.853516"/>
     <use xlink:href="#DejaVuSans-6e" x="377.636719"/>
     <use xlink:href="#DejaVuSans-73" x="441.015625"/>
     <use xlink:href="#DejaVuSans-74" x="493.115234"/>
     <use xlink:href="#DejaVuSans-61" x="532.324219"/>
     <use xlink:href="#DejaVuSans-6e" x="593.603516"/>
     <use xlink:href="#DejaVuSans-63" x="656.982422"/>
     <use xlink:href="#DejaVuSans-65" x="711.962891"/>
     <use xlink:href="#DejaVuSans-73" x="773.486328"/>
    </g>
   </g>
   <g id="text_17">
    <!-- v2.6 -->
    <g style="fill: #808080" transform="translate(198.292262 294.151352)scale(0.1 -0.1)">
     <use xlink:href="#DejaVuSans-76"/>
     <use xlink:href="#DejaVuSans-32" x="59.179688"/>
     <use xlink:href="#DejaVuSans-2e" x="122.802734"/>
     <use xlink:href="#DejaVuSans-36" x="154.589844"/>
    </g>
   </g>
   <g id="text_18">
    <!-- 8 Rosenbrock original -->
    <g transform="translate(101.14695 21.648)scale(0.2 -0.2)">
     <defs>
      <path id="DejaVuSans-52" d="M 2841 2188 
Q 3044 2119 3236 1894 
Q 3428 1669 3622 1275 
L 4263 0 
L 3584 0 
L 2988 1197 
Q 2756 1666 2539 1819 
Q 2322 1972 1947 1972 
L 1259 1972 
L 1259 0 
L 628 0 
L 628 4666 
L 2053 4666 
Q 2853 4666 3247 4331 
Q 3641 3997 3641 3322 
Q 3641 2881 3436 2590 
Q 3231 2300 2841 2188 
z
M 1259 4147 
L 1259 2491 
L 2053 2491 
Q 2509 2491 2742 2702 
Q 2975 2913 2975 3322 
Q 2975 3731 2742 3939 
Q 2509 4147 2053 4147 
L 1259 4147 
z
" transform="scale(0.015625)"/>
      <path id="DejaVuSans-6b" d="M 581 4863 
L 1159 4863 
L 1159 1991 
L 2875 3500 
L 3609 3500 
L 1753 1863 
L 3688 0 
L 2938 0 
L 1159 1709 
L 1159 0 
L 581 0 
L 581 4863 
z
" transform="scale(0.015625)"/>
     </defs>
     <use xlink:href="#DejaVuSans-38"/>
     <use xlink:href="#DejaVuSans-20" x="63.623047"/>
     <use xlink:href="#DejaVuSans-52" x="95.410156"/>
     <use xlink:href="#DejaVuSans-6f" x="160.392578"/>
     <use xlink:href="#DejaVuSans-73" x="221.574219"/>
     <use xlink:href="#DejaVuSans-65" x="273.673828"/>
     <use xlink:href="#DejaVuSans-6e" x="335.197266"/>
     <use xlink:href="#DejaVuSans-62" x="398.576172"/>
     <use xlink:href="#DejaVuSans-72" x="462.052734"/>
     <use xlink:href="#DejaVuSans-6f" x="500.916016"/>
     <use xlink:href="#DejaVuSans-63" x="562.097656"/>
     <use xlink:href="#DejaVuSans-6b" x="617.078125"/>
     <use xlink:href="#DejaVuSans-20" x="674.988281"/>
     <use xlink:href="#DejaVuSans-6f" x="706.775391"/>
     <use xlink:href="#DejaVuSans-72" x="767.957031"/>
     <use xlink:href="#DejaVuSans-69" x="809.070312"/>
     <use xlink:href="#DejaVuSans-67" x="836.853516"/>
     <use xlink:href="#DejaVuSans-69" x="900.330078"/>
     <use xlink:href="#DejaVuSans-6e" x="928.113281"/>
     <use xlink:href="#DejaVuSans-61" x="991.492188"/>
     <use xlink:href="#DejaVuSans-6c" x="1052.771484"/>
    </g>
   </g>
  </g>
 </g>
 <defs>
  <clipPath id="pe458417cfa">
   <rect x="57.6" y="27.648" width="303.2064" height="271.296"/>
  </clipPath>
 </defs>
</svg>
