<?xml version="1.0" encoding="utf-8" standalone="no"?>
<!DOCTYPE svg PUBLIC "-//W3C//DTD SVG 1.1//EN"
  "http://www.w3.org/Graphics/SVG/1.1/DTD/svg11.dtd">
<svg xmlns:xlink="http://www.w3.org/1999/xlink" width="460.8pt" height="345.6pt" viewBox="0 0 460.8 345.6" xmlns="http://www.w3.org/2000/svg" version="1.1">
 <metadata>
  <rdf:RDF xmlns:dc="http://purl.org/dc/elements/1.1/" xmlns:cc="http://creativecommons.org/ns#" xmlns:rdf="http://www.w3.org/1999/02/22-rdf-syntax-ns#">
   <cc:Work>
    <dc:type rdf:resource="http://purl.org/dc/dcmitype/StillImage"/>
    <dc:date>2022-03-16T23:35:18.120408</dc:date>
    <dc:format>image/svg+xml</dc:format>
    <dc:creator>
     <cc:Agent>
      <dc:title>Matplotlib v3.5.1, https://matplotlib.org/</dc:title>
     </cc:Agent>
    </dc:creator>
   </cc:Work>
  </rdf:RDF>
 </metadata>
 <defs>
  <style type="text/css">*{stroke-linejoin: round; stroke-linecap: butt}</style>
 </defs>
 <g id="figure_1">
  <g id="patch_1">
   <path d="M 0 345.6 
L 460.8 345.6 
L 460.8 0 
L 0 0 
z
" style="fill: #ffffff"/>
  </g>
  <g id="axes_1">
   <g id="patch_2">
    <path d="M 57.6 298.944 
L 360.8064 298.944 
L 360.8064 27.648 
L 57.6 27.648 
z
" style="fill: #ffffff"/>
   </g>
   <g id="line2d_1">
    <path d="M 1.245626 298.944 
L 1.245626 288.304941 
L 21.912228 288.304941 
L 21.912228 282.985412 
L 52.188254 282.985412 
L 52.188254 277.665882 
L 71.556993 277.665882 
L 71.556993 272.346353 
L 82.464279 272.346353 
L 82.464279 267.026824 
L 90.505165 267.026824 
L 90.505165 261.707294 
L 97.18203 261.707294 
L 97.18203 256.387765 
L 100.244997 256.387765 
L 100.244997 251.068235 
L 102.62243 251.068235 
L 102.62243 245.748706 
L 104.266406 245.748706 
L 104.266406 240.429176 
L 105.411479 240.429176 
L 105.411479 235.109647 
L 106.350446 235.109647 
L 106.350446 229.790118 
L 107.109915 229.790118 
L 107.109915 224.470588 
L 108.034177 224.470588 
L 108.034177 219.151059 
L 108.791791 219.151059 
L 108.791791 213.831529 
L 109.990385 213.831529 
L 109.990385 208.512 
L 111.54963 208.512 
L 111.54963 203.192471 
L 113.235374 203.192471 
L 113.235374 197.872941 
L 114.601519 197.872941 
L 114.601519 192.553412 
L 116.211813 192.553412 
L 116.211813 187.233882 
L 118.11439 187.233882 
L 118.11439 181.914353 
L 121.265635 181.914353 
L 121.265635 176.594824 
L 124.238185 176.594824 
L 124.238185 171.275294 
L 127.040519 171.275294 
L 127.040519 165.955765 
L 129.86647 165.955765 
L 129.86647 160.636235 
L 133.086488 160.636235 
L 133.086488 155.316706 
L 134.112526 155.316706 
L 134.112526 149.997176 
L 134.901055 149.997176 
L 134.901055 144.677647 
L 135.731889 144.677647 
L 135.731889 139.358118 
L 136.570023 139.358118 
L 136.570023 134.038588 
L 137.345296 134.038588 
L 137.345296 128.719059 
L 138.245669 128.719059 
L 138.245669 123.399529 
L 139.178873 123.399529 
L 139.178873 118.08 
L 139.831781 118.08 
L 139.831781 112.760471 
L 140.58877 112.760471 
L 140.58877 107.440941 
L 141.55653 107.440941 
L 141.55653 102.121412 
L 157.339986 102.121412 
L 157.339986 96.801882 
L 178.00815 96.801882 
L 178.00815 91.482353 
L 179.279134 91.482353 
L 179.279134 86.162824 
L 179.957165 86.162824 
L 179.957165 80.843294 
L 180.634709 80.843294 
L 180.634709 75.523765 
L 181.191376 75.523765 
L 181.191376 70.204235 
L 181.778108 70.204235 
L 181.778108 64.884706 
L 182.392915 64.884706 
L 182.392915 59.565176 
L 182.945071 59.565176 
L 182.945071 54.245647 
L 183.444086 54.245647 
L 183.444086 48.926118 
L 184.043851 48.926118 
L 184.043851 43.606588 
L 184.466222 43.606588 
L 184.466222 38.287059 
L 184.950714 38.287059 
L 184.950714 32.967529 
L 185.427251 32.967529 
L 185.427251 27.648 
L 360.8064 27.648 
" style="fill: none; stroke: #f5deb3; stroke-width: 4; stroke-linecap: square"/>
   </g>
   <g id="line2d_2">
    <defs>
     <path id="m5e68963ad4" d="M -0 7.778175 
L 7.778175 0 
L 0 -7.778175 
L -7.778175 -0 
z
" style="stroke: #f5deb3; stroke-width: 1.5; stroke-linejoin: miter"/>
    </defs>
    <g>
     <use xlink:href="#m5e68963ad4" x="71.556993" y="272.346353" style="fill: #f5deb3; stroke: #f5deb3; stroke-width: 1.5; stroke-linejoin: miter"/>
     <use xlink:href="#m5e68963ad4" x="133.086488" y="155.316706" style="fill: #f5deb3; stroke: #f5deb3; stroke-width: 1.5; stroke-linejoin: miter"/>
     <use xlink:href="#m5e68963ad4" x="178.00815" y="91.482353" style="fill: #f5deb3; stroke: #f5deb3; stroke-width: 1.5; stroke-linejoin: miter"/>
     <use xlink:href="#m5e68963ad4" x="185.427251" y="27.648" style="fill: #f5deb3; stroke: #f5deb3; stroke-width: 1.5; stroke-linejoin: miter"/>
     <use xlink:href="#m5e68963ad4" x="185.427251" y="27.648" style="fill: #f5deb3; stroke: #f5deb3; stroke-width: 1.5; stroke-linejoin: miter"/>
     <use xlink:href="#m5e68963ad4" x="360.8064" y="27.648" style="fill: #f5deb3; stroke: #f5deb3; stroke-width: 1.5; stroke-linejoin: miter"/>
    </g>
   </g>
   <g id="line2d_3">
    <path style="fill: none; stroke: #f5deb3; stroke-width: 4; stroke-linecap: square"/>
    <g/>
   </g>
   <g id="line2d_4">
    <path d="M 360.8064 27.648 
L 380.514816 163.296 
" style="fill: none; stroke: #f5deb3; stroke-width: 4; stroke-linecap: square"/>
    <g>
     <use xlink:href="#m5e68963ad4" x="360.8064" y="27.648" style="fill: #f5deb3; stroke: #f5deb3; stroke-width: 1.5; stroke-linejoin: miter"/>
     <use xlink:href="#m5e68963ad4" x="380.514816" y="163.296" style="fill: #f5deb3; stroke: #f5deb3; stroke-width: 1.5; stroke-linejoin: miter"/>
    </g>
   </g>
   <g id="matplotlib.axis_1">
    <g id="xtick_1">
     <g id="line2d_5">
      <path d="M 57.6 298.944 
L 57.6 27.648 
" clip-path="url(#pb45afa2f4f)" style="fill: none; stroke: #b0b0b0; stroke-width: 0.8; stroke-linecap: square"/>
     </g>
     <g id="line2d_6">
      <defs>
       <path id="m90e757f988" d="M 0 0 
L 0 3.5 
" style="stroke: #000000; stroke-width: 0.8"/>
      </defs>
      <g>
       <use xlink:href="#m90e757f988" x="57.6" y="298.944" style="stroke: #000000; stroke-width: 0.8"/>
      </g>
     </g>
     <g id="text_1">
      <!-- 0 -->
      <g transform="translate(52.191875 318.861344)scale(0.17 -0.17)">
       <defs>
        <path id="DejaVuSans-30" d="M 2034 4250 
Q 1547 4250 1301 3770 
Q 1056 3291 1056 2328 
Q 1056 1369 1301 889 
Q 1547 409 2034 409 
Q 2525 409 2770 889 
Q 3016 1369 3016 2328 
Q 3016 3291 2770 3770 
Q 2525 4250 2034 4250 
z
M 2034 4750 
Q 2819 4750 3233 4129 
Q 3647 3509 3647 2328 
Q 3647 1150 3233 529 
Q 2819 -91 2034 -91 
Q 1250 -91 836 529 
Q 422 1150 422 2328 
Q 422 3509 836 4129 
Q 1250 4750 2034 4750 
z
" transform="scale(0.015625)"/>
       </defs>
       <use xlink:href="#DejaVuSans-30"/>
      </g>
     </g>
    </g>
    <g id="xtick_2">
     <g id="line2d_7">
      <path d="M 144.2304 298.944 
L 144.2304 27.648 
" clip-path="url(#pb45afa2f4f)" style="fill: none; stroke: #b0b0b0; stroke-width: 0.8; stroke-linecap: square"/>
     </g>
     <g id="line2d_8">
      <g>
       <use xlink:href="#m90e757f988" x="144.2304" y="298.944" style="stroke: #000000; stroke-width: 0.8"/>
      </g>
     </g>
     <g id="text_2">
      <!-- 2 -->
      <g transform="translate(138.822275 318.861344)scale(0.17 -0.17)">
       <defs>
        <path id="DejaVuSans-32" d="M 1228 531 
L 3431 531 
L 3431 0 
L 469 0 
L 469 531 
Q 828 903 1448 1529 
Q 2069 2156 2228 2338 
Q 2531 2678 2651 2914 
Q 2772 3150 2772 3378 
Q 2772 3750 2511 3984 
Q 2250 4219 1831 4219 
Q 1534 4219 1204 4116 
Q 875 4013 500 3803 
L 500 4441 
Q 881 4594 1212 4672 
Q 1544 4750 1819 4750 
Q 2544 4750 2975 4387 
Q 3406 4025 3406 3419 
Q 3406 3131 3298 2873 
Q 3191 2616 2906 2266 
Q 2828 2175 2409 1742 
Q 1991 1309 1228 531 
z
" transform="scale(0.015625)"/>
       </defs>
       <use xlink:href="#DejaVuSans-32"/>
      </g>
     </g>
    </g>
    <g id="xtick_3">
     <g id="line2d_9">
      <path d="M 230.8608 298.944 
L 230.8608 27.648 
" clip-path="url(#pb45afa2f4f)" style="fill: none; stroke: #b0b0b0; stroke-width: 0.8; stroke-linecap: square"/>
     </g>
     <g id="line2d_10">
      <g>
       <use xlink:href="#m90e757f988" x="230.8608" y="298.944" style="stroke: #000000; stroke-width: 0.8"/>
      </g>
     </g>
     <g id="text_3">
      <!-- 4 -->
      <g transform="translate(225.452675 318.861344)scale(0.17 -0.17)">
       <defs>
        <path id="DejaVuSans-34" d="M 2419 4116 
L 825 1625 
L 2419 1625 
L 2419 4116 
z
M 2253 4666 
L 3047 4666 
L 3047 1625 
L 3713 1625 
L 3713 1100 
L 3047 1100 
L 3047 0 
L 2419 0 
L 2419 1100 
L 313 1100 
L 313 1709 
L 2253 4666 
z
" transform="scale(0.015625)"/>
       </defs>
       <use xlink:href="#DejaVuSans-34"/>
      </g>
     </g>
    </g>
    <g id="xtick_4">
     <g id="line2d_11">
      <path d="M 317.4912 298.944 
L 317.4912 27.648 
" clip-path="url(#pb45afa2f4f)" style="fill: none; stroke: #b0b0b0; stroke-width: 0.8; stroke-linecap: square"/>
     </g>
     <g id="line2d_12">
      <g>
       <use xlink:href="#m90e757f988" x="317.4912" y="298.944" style="stroke: #000000; stroke-width: 0.8"/>
      </g>
     </g>
     <g id="text_4">
      <!-- 6 -->
      <g transform="translate(312.083075 318.861344)scale(0.17 -0.17)">
       <defs>
        <path id="DejaVuSans-36" d="M 2113 2584 
Q 1688 2584 1439 2293 
Q 1191 2003 1191 1497 
Q 1191 994 1439 701 
Q 1688 409 2113 409 
Q 2538 409 2786 701 
Q 3034 994 3034 1497 
Q 3034 2003 2786 2293 
Q 2538 2584 2113 2584 
z
M 3366 4563 
L 3366 3988 
Q 3128 4100 2886 4159 
Q 2644 4219 2406 4219 
Q 1781 4219 1451 3797 
Q 1122 3375 1075 2522 
Q 1259 2794 1537 2939 
Q 1816 3084 2150 3084 
Q 2853 3084 3261 2657 
Q 3669 2231 3669 1497 
Q 3669 778 3244 343 
Q 2819 -91 2113 -91 
Q 1303 -91 875 529 
Q 447 1150 447 2328 
Q 447 3434 972 4092 
Q 1497 4750 2381 4750 
Q 2619 4750 2861 4703 
Q 3103 4656 3366 4563 
z
" transform="scale(0.015625)"/>
       </defs>
       <use xlink:href="#DejaVuSans-36"/>
      </g>
     </g>
    </g>
    <g id="xtick_5">
     <g id="line2d_13">
      <path d="M 100.9152 298.944 
L 100.9152 27.648 
" clip-path="url(#pb45afa2f4f)" style="fill: none; stroke: #b0b0b0; stroke-width: 0.8; stroke-linecap: square"/>
     </g>
     <g id="line2d_14">
      <defs>
       <path id="meb5e9657a6" d="M 0 0 
L 0 2 
" style="stroke: #000000; stroke-width: 0.6"/>
      </defs>
      <g>
       <use xlink:href="#meb5e9657a6" x="100.9152" y="298.944" style="stroke: #000000; stroke-width: 0.6"/>
      </g>
     </g>
    </g>
    <g id="xtick_6">
     <g id="line2d_15">
      <path d="M 187.5456 298.944 
L 187.5456 27.648 
" clip-path="url(#pb45afa2f4f)" style="fill: none; stroke: #b0b0b0; stroke-width: 0.8; stroke-linecap: square"/>
     </g>
     <g id="line2d_16">
      <g>
       <use xlink:href="#meb5e9657a6" x="187.5456" y="298.944" style="stroke: #000000; stroke-width: 0.6"/>
      </g>
     </g>
    </g>
    <g id="xtick_7">
     <g id="line2d_17">
      <path d="M 274.176 298.944 
L 274.176 27.648 
" clip-path="url(#pb45afa2f4f)" style="fill: none; stroke: #b0b0b0; stroke-width: 0.8; stroke-linecap: square"/>
     </g>
     <g id="line2d_18">
      <g>
       <use xlink:href="#meb5e9657a6" x="274.176" y="298.944" style="stroke: #000000; stroke-width: 0.6"/>
      </g>
     </g>
    </g>
    <g id="xtick_8">
     <g id="line2d_19">
      <path d="M 360.8064 298.944 
L 360.8064 27.648 
" clip-path="url(#pb45afa2f4f)" style="fill: none; stroke: #b0b0b0; stroke-width: 0.8; stroke-linecap: square"/>
     </g>
     <g id="line2d_20">
      <g>
       <use xlink:href="#meb5e9657a6" x="360.8064" y="298.944" style="stroke: #000000; stroke-width: 0.6"/>
      </g>
     </g>
    </g>
    <g id="text_5">
     <!-- log10(# f-evals / dimension) -->
     <g transform="translate(88.823278 339.314156)scale(0.17 -0.17)">
      <defs>
       <path id="DejaVuSans-6c" d="M 603 4863 
L 1178 4863 
L 1178 0 
L 603 0 
L 603 4863 
z
" transform="scale(0.015625)"/>
       <path id="DejaVuSans-6f" d="M 1959 3097 
Q 1497 3097 1228 2736 
Q 959 2375 959 1747 
Q 959 1119 1226 758 
Q 1494 397 1959 397 
Q 2419 397 2687 759 
Q 2956 1122 2956 1747 
Q 2956 2369 2687 2733 
Q 2419 3097 1959 3097 
z
M 1959 3584 
Q 2709 3584 3137 3096 
Q 3566 2609 3566 1747 
Q 3566 888 3137 398 
Q 2709 -91 1959 -91 
Q 1206 -91 779 398 
Q 353 888 353 1747 
Q 353 2609 779 3096 
Q 1206 3584 1959 3584 
z
" transform="scale(0.015625)"/>
       <path id="DejaVuSans-67" d="M 2906 1791 
Q 2906 2416 2648 2759 
Q 2391 3103 1925 3103 
Q 1463 3103 1205 2759 
Q 947 2416 947 1791 
Q 947 1169 1205 825 
Q 1463 481 1925 481 
Q 2391 481 2648 825 
Q 2906 1169 2906 1791 
z
M 3481 434 
Q 3481 -459 3084 -895 
Q 2688 -1331 1869 -1331 
Q 1566 -1331 1297 -1286 
Q 1028 -1241 775 -1147 
L 775 -588 
Q 1028 -725 1275 -790 
Q 1522 -856 1778 -856 
Q 2344 -856 2625 -561 
Q 2906 -266 2906 331 
L 2906 616 
Q 2728 306 2450 153 
Q 2172 0 1784 0 
Q 1141 0 747 490 
Q 353 981 353 1791 
Q 353 2603 747 3093 
Q 1141 3584 1784 3584 
Q 2172 3584 2450 3431 
Q 2728 3278 2906 2969 
L 2906 3500 
L 3481 3500 
L 3481 434 
z
" transform="scale(0.015625)"/>
       <path id="DejaVuSans-31" d="M 794 531 
L 1825 531 
L 1825 4091 
L 703 3866 
L 703 4441 
L 1819 4666 
L 2450 4666 
L 2450 531 
L 3481 531 
L 3481 0 
L 794 0 
L 794 531 
z
" transform="scale(0.015625)"/>
       <path id="DejaVuSans-28" d="M 1984 4856 
Q 1566 4138 1362 3434 
Q 1159 2731 1159 2009 
Q 1159 1288 1364 580 
Q 1569 -128 1984 -844 
L 1484 -844 
Q 1016 -109 783 600 
Q 550 1309 550 2009 
Q 550 2706 781 3412 
Q 1013 4119 1484 4856 
L 1984 4856 
z
" transform="scale(0.015625)"/>
       <path id="DejaVuSans-23" d="M 3272 2816 
L 2363 2816 
L 2100 1772 
L 3016 1772 
L 3272 2816 
z
M 2803 4594 
L 2478 3297 
L 3391 3297 
L 3719 4594 
L 4219 4594 
L 3897 3297 
L 4872 3297 
L 4872 2816 
L 3775 2816 
L 3519 1772 
L 4513 1772 
L 4513 1294 
L 3397 1294 
L 3072 0 
L 2572 0 
L 2894 1294 
L 1978 1294 
L 1656 0 
L 1153 0 
L 1478 1294 
L 494 1294 
L 494 1772 
L 1594 1772 
L 1856 2816 
L 850 2816 
L 850 3297 
L 1978 3297 
L 2297 4594 
L 2803 4594 
z
" transform="scale(0.015625)"/>
       <path id="DejaVuSans-20" transform="scale(0.015625)"/>
       <path id="DejaVuSans-66" d="M 2375 4863 
L 2375 4384 
L 1825 4384 
Q 1516 4384 1395 4259 
Q 1275 4134 1275 3809 
L 1275 3500 
L 2222 3500 
L 2222 3053 
L 1275 3053 
L 1275 0 
L 697 0 
L 697 3053 
L 147 3053 
L 147 3500 
L 697 3500 
L 697 3744 
Q 697 4328 969 4595 
Q 1241 4863 1831 4863 
L 2375 4863 
z
" transform="scale(0.015625)"/>
       <path id="DejaVuSans-2d" d="M 313 2009 
L 1997 2009 
L 1997 1497 
L 313 1497 
L 313 2009 
z
" transform="scale(0.015625)"/>
       <path id="DejaVuSans-65" d="M 3597 1894 
L 3597 1613 
L 953 1613 
Q 991 1019 1311 708 
Q 1631 397 2203 397 
Q 2534 397 2845 478 
Q 3156 559 3463 722 
L 3463 178 
Q 3153 47 2828 -22 
Q 2503 -91 2169 -91 
Q 1331 -91 842 396 
Q 353 884 353 1716 
Q 353 2575 817 3079 
Q 1281 3584 2069 3584 
Q 2775 3584 3186 3129 
Q 3597 2675 3597 1894 
z
M 3022 2063 
Q 3016 2534 2758 2815 
Q 2500 3097 2075 3097 
Q 1594 3097 1305 2825 
Q 1016 2553 972 2059 
L 3022 2063 
z
" transform="scale(0.015625)"/>
       <path id="DejaVuSans-76" d="M 191 3500 
L 800 3500 
L 1894 563 
L 2988 3500 
L 3597 3500 
L 2284 0 
L 1503 0 
L 191 3500 
z
" transform="scale(0.015625)"/>
       <path id="DejaVuSans-61" d="M 2194 1759 
Q 1497 1759 1228 1600 
Q 959 1441 959 1056 
Q 959 750 1161 570 
Q 1363 391 1709 391 
Q 2188 391 2477 730 
Q 2766 1069 2766 1631 
L 2766 1759 
L 2194 1759 
z
M 3341 1997 
L 3341 0 
L 2766 0 
L 2766 531 
Q 2569 213 2275 61 
Q 1981 -91 1556 -91 
Q 1019 -91 701 211 
Q 384 513 384 1019 
Q 384 1609 779 1909 
Q 1175 2209 1959 2209 
L 2766 2209 
L 2766 2266 
Q 2766 2663 2505 2880 
Q 2244 3097 1772 3097 
Q 1472 3097 1187 3025 
Q 903 2953 641 2809 
L 641 3341 
Q 956 3463 1253 3523 
Q 1550 3584 1831 3584 
Q 2591 3584 2966 3190 
Q 3341 2797 3341 1997 
z
" transform="scale(0.015625)"/>
       <path id="DejaVuSans-73" d="M 2834 3397 
L 2834 2853 
Q 2591 2978 2328 3040 
Q 2066 3103 1784 3103 
Q 1356 3103 1142 2972 
Q 928 2841 928 2578 
Q 928 2378 1081 2264 
Q 1234 2150 1697 2047 
L 1894 2003 
Q 2506 1872 2764 1633 
Q 3022 1394 3022 966 
Q 3022 478 2636 193 
Q 2250 -91 1575 -91 
Q 1294 -91 989 -36 
Q 684 19 347 128 
L 347 722 
Q 666 556 975 473 
Q 1284 391 1588 391 
Q 1994 391 2212 530 
Q 2431 669 2431 922 
Q 2431 1156 2273 1281 
Q 2116 1406 1581 1522 
L 1381 1569 
Q 847 1681 609 1914 
Q 372 2147 372 2553 
Q 372 3047 722 3315 
Q 1072 3584 1716 3584 
Q 2034 3584 2315 3537 
Q 2597 3491 2834 3397 
z
" transform="scale(0.015625)"/>
       <path id="DejaVuSans-2f" d="M 1625 4666 
L 2156 4666 
L 531 -594 
L 0 -594 
L 1625 4666 
z
" transform="scale(0.015625)"/>
       <path id="DejaVuSans-64" d="M 2906 2969 
L 2906 4863 
L 3481 4863 
L 3481 0 
L 2906 0 
L 2906 525 
Q 2725 213 2448 61 
Q 2172 -91 1784 -91 
Q 1150 -91 751 415 
Q 353 922 353 1747 
Q 353 2572 751 3078 
Q 1150 3584 1784 3584 
Q 2172 3584 2448 3432 
Q 2725 3281 2906 2969 
z
M 947 1747 
Q 947 1113 1208 752 
Q 1469 391 1925 391 
Q 2381 391 2643 752 
Q 2906 1113 2906 1747 
Q 2906 2381 2643 2742 
Q 2381 3103 1925 3103 
Q 1469 3103 1208 2742 
Q 947 2381 947 1747 
z
" transform="scale(0.015625)"/>
       <path id="DejaVuSans-69" d="M 603 3500 
L 1178 3500 
L 1178 0 
L 603 0 
L 603 3500 
z
M 603 4863 
L 1178 4863 
L 1178 4134 
L 603 4134 
L 603 4863 
z
" transform="scale(0.015625)"/>
       <path id="DejaVuSans-6d" d="M 3328 2828 
Q 3544 3216 3844 3400 
Q 4144 3584 4550 3584 
Q 5097 3584 5394 3201 
Q 5691 2819 5691 2113 
L 5691 0 
L 5113 0 
L 5113 2094 
Q 5113 2597 4934 2840 
Q 4756 3084 4391 3084 
Q 3944 3084 3684 2787 
Q 3425 2491 3425 1978 
L 3425 0 
L 2847 0 
L 2847 2094 
Q 2847 2600 2669 2842 
Q 2491 3084 2119 3084 
Q 1678 3084 1418 2786 
Q 1159 2488 1159 1978 
L 1159 0 
L 581 0 
L 581 3500 
L 1159 3500 
L 1159 2956 
Q 1356 3278 1631 3431 
Q 1906 3584 2284 3584 
Q 2666 3584 2933 3390 
Q 3200 3197 3328 2828 
z
" transform="scale(0.015625)"/>
       <path id="DejaVuSans-6e" d="M 3513 2113 
L 3513 0 
L 2938 0 
L 2938 2094 
Q 2938 2591 2744 2837 
Q 2550 3084 2163 3084 
Q 1697 3084 1428 2787 
Q 1159 2491 1159 1978 
L 1159 0 
L 581 0 
L 581 3500 
L 1159 3500 
L 1159 2956 
Q 1366 3272 1645 3428 
Q 1925 3584 2291 3584 
Q 2894 3584 3203 3211 
Q 3513 2838 3513 2113 
z
" transform="scale(0.015625)"/>
       <path id="DejaVuSans-29" d="M 513 4856 
L 1013 4856 
Q 1481 4119 1714 3412 
Q 1947 2706 1947 2009 
Q 1947 1309 1714 600 
Q 1481 -109 1013 -844 
L 513 -844 
Q 928 -128 1133 580 
Q 1338 1288 1338 2009 
Q 1338 2731 1133 3434 
Q 928 4138 513 4856 
z
" transform="scale(0.015625)"/>
      </defs>
      <use xlink:href="#DejaVuSans-6c"/>
      <use xlink:href="#DejaVuSans-6f" x="27.783203"/>
      <use xlink:href="#DejaVuSans-67" x="88.964844"/>
      <use xlink:href="#DejaVuSans-31" x="152.441406"/>
      <use xlink:href="#DejaVuSans-30" x="216.064453"/>
      <use xlink:href="#DejaVuSans-28" x="279.6875"/>
      <use xlink:href="#DejaVuSans-23" x="318.701172"/>
      <use xlink:href="#DejaVuSans-20" x="402.490234"/>
      <use xlink:href="#DejaVuSans-66" x="434.277344"/>
      <use xlink:href="#DejaVuSans-2d" x="463.982422"/>
      <use xlink:href="#DejaVuSans-65" x="500.066406"/>
      <use xlink:href="#DejaVuSans-76" x="561.589844"/>
      <use xlink:href="#DejaVuSans-61" x="620.769531"/>
      <use xlink:href="#DejaVuSans-6c" x="682.048828"/>
      <use xlink:href="#DejaVuSans-73" x="709.832031"/>
      <use xlink:href="#DejaVuSans-20" x="761.931641"/>
      <use xlink:href="#DejaVuSans-2f" x="793.71875"/>
      <use xlink:href="#DejaVuSans-20" x="827.410156"/>
      <use xlink:href="#DejaVuSans-64" x="859.197266"/>
      <use xlink:href="#DejaVuSans-69" x="922.673828"/>
      <use xlink:href="#DejaVuSans-6d" x="950.457031"/>
      <use xlink:href="#DejaVuSans-65" x="1047.869141"/>
      <use xlink:href="#DejaVuSans-6e" x="1109.392578"/>
      <use xlink:href="#DejaVuSans-73" x="1172.771484"/>
      <use xlink:href="#DejaVuSans-69" x="1224.871094"/>
      <use xlink:href="#DejaVuSans-6f" x="1252.654297"/>
      <use xlink:href="#DejaVuSans-6e" x="1313.835938"/>
      <use xlink:href="#DejaVuSans-29" x="1377.214844"/>
     </g>
    </g>
   </g>
   <g id="matplotlib.axis_2">
    <g id="ytick_1">
     <g id="line2d_21">
      <path d="M 57.6 298.944 
L 360.8064 298.944 
" clip-path="url(#pb45afa2f4f)" style="fill: none; stroke: #b0b0b0; stroke-width: 0.8; stroke-linecap: square"/>
     </g>
     <g id="line2d_22">
      <defs>
       <path id="m42a960bf4f" d="M 0 0 
L -3.5 0 
" style="stroke: #000000; stroke-width: 0.8"/>
      </defs>
      <g>
       <use xlink:href="#m42a960bf4f" x="57.6" y="298.944" style="stroke: #000000; stroke-width: 0.8"/>
      </g>
     </g>
     <g id="text_6">
      <!-- 0.0 -->
      <g transform="translate(25.155 305.02275)scale(0.16 -0.16)">
       <defs>
        <path id="DejaVuSans-2e" d="M 684 794 
L 1344 794 
L 1344 0 
L 684 0 
L 684 794 
z
" transform="scale(0.015625)"/>
       </defs>
       <use xlink:href="#DejaVuSans-30"/>
       <use xlink:href="#DejaVuSans-2e" x="63.623047"/>
       <use xlink:href="#DejaVuSans-30" x="95.410156"/>
      </g>
     </g>
    </g>
    <g id="ytick_2">
     <g id="line2d_23">
      <path d="M 57.6 244.6848 
L 360.8064 244.6848 
" clip-path="url(#pb45afa2f4f)" style="fill: none; stroke: #b0b0b0; stroke-width: 0.8; stroke-linecap: square"/>
     </g>
     <g id="line2d_24">
      <g>
       <use xlink:href="#m42a960bf4f" x="57.6" y="244.6848" style="stroke: #000000; stroke-width: 0.8"/>
      </g>
     </g>
     <g id="text_7">
      <!-- 0.2 -->
      <g transform="translate(25.155 250.76355)scale(0.16 -0.16)">
       <use xlink:href="#DejaVuSans-30"/>
       <use xlink:href="#DejaVuSans-2e" x="63.623047"/>
       <use xlink:href="#DejaVuSans-32" x="95.410156"/>
      </g>
     </g>
    </g>
    <g id="ytick_3">
     <g id="line2d_25">
      <path d="M 57.6 190.4256 
L 360.8064 190.4256 
" clip-path="url(#pb45afa2f4f)" style="fill: none; stroke: #b0b0b0; stroke-width: 0.8; stroke-linecap: square"/>
     </g>
     <g id="line2d_26">
      <g>
       <use xlink:href="#m42a960bf4f" x="57.6" y="190.4256" style="stroke: #000000; stroke-width: 0.8"/>
      </g>
     </g>
     <g id="text_8">
      <!-- 0.4 -->
      <g transform="translate(25.155 196.50435)scale(0.16 -0.16)">
       <use xlink:href="#DejaVuSans-30"/>
       <use xlink:href="#DejaVuSans-2e" x="63.623047"/>
       <use xlink:href="#DejaVuSans-34" x="95.410156"/>
      </g>
     </g>
    </g>
    <g id="ytick_4">
     <g id="line2d_27">
      <path d="M 57.6 136.1664 
L 360.8064 136.1664 
" clip-path="url(#pb45afa2f4f)" style="fill: none; stroke: #b0b0b0; stroke-width: 0.8; stroke-linecap: square"/>
     </g>
     <g id="line2d_28">
      <g>
       <use xlink:href="#m42a960bf4f" x="57.6" y="136.1664" style="stroke: #000000; stroke-width: 0.8"/>
      </g>
     </g>
     <g id="text_9">
      <!-- 0.6 -->
      <g transform="translate(25.155 142.24515)scale(0.16 -0.16)">
       <use xlink:href="#DejaVuSans-30"/>
       <use xlink:href="#DejaVuSans-2e" x="63.623047"/>
       <use xlink:href="#DejaVuSans-36" x="95.410156"/>
      </g>
     </g>
    </g>
    <g id="ytick_5">
     <g id="line2d_29">
      <path d="M 57.6 81.9072 
L 360.8064 81.9072 
" clip-path="url(#pb45afa2f4f)" style="fill: none; stroke: #b0b0b0; stroke-width: 0.8; stroke-linecap: square"/>
     </g>
     <g id="line2d_30">
      <g>
       <use xlink:href="#m42a960bf4f" x="57.6" y="81.9072" style="stroke: #000000; stroke-width: 0.8"/>
      </g>
     </g>
     <g id="text_10">
      <!-- 0.8 -->
      <g transform="translate(25.155 87.98595)scale(0.16 -0.16)">
       <defs>
        <path id="DejaVuSans-38" d="M 2034 2216 
Q 1584 2216 1326 1975 
Q 1069 1734 1069 1313 
Q 1069 891 1326 650 
Q 1584 409 2034 409 
Q 2484 409 2743 651 
Q 3003 894 3003 1313 
Q 3003 1734 2745 1975 
Q 2488 2216 2034 2216 
z
M 1403 2484 
Q 997 2584 770 2862 
Q 544 3141 544 3541 
Q 544 4100 942 4425 
Q 1341 4750 2034 4750 
Q 2731 4750 3128 4425 
Q 3525 4100 3525 3541 
Q 3525 3141 3298 2862 
Q 3072 2584 2669 2484 
Q 3125 2378 3379 2068 
Q 3634 1759 3634 1313 
Q 3634 634 3220 271 
Q 2806 -91 2034 -91 
Q 1263 -91 848 271 
Q 434 634 434 1313 
Q 434 1759 690 2068 
Q 947 2378 1403 2484 
z
M 1172 3481 
Q 1172 3119 1398 2916 
Q 1625 2713 2034 2713 
Q 2441 2713 2670 2916 
Q 2900 3119 2900 3481 
Q 2900 3844 2670 4047 
Q 2441 4250 2034 4250 
Q 1625 4250 1398 4047 
Q 1172 3844 1172 3481 
z
" transform="scale(0.015625)"/>
       </defs>
       <use xlink:href="#DejaVuSans-30"/>
       <use xlink:href="#DejaVuSans-2e" x="63.623047"/>
       <use xlink:href="#DejaVuSans-38" x="95.410156"/>
      </g>
     </g>
    </g>
    <g id="ytick_6">
     <g id="line2d_31">
      <path d="M 57.6 27.648 
L 360.8064 27.648 
" clip-path="url(#pb45afa2f4f)" style="fill: none; stroke: #b0b0b0; stroke-width: 0.8; stroke-linecap: square"/>
     </g>
     <g id="line2d_32">
      <g>
       <use xlink:href="#m42a960bf4f" x="57.6" y="27.648" style="stroke: #000000; stroke-width: 0.8"/>
      </g>
     </g>
     <g id="text_11">
      <!-- 1.0 -->
      <g transform="translate(25.155 33.72675)scale(0.16 -0.16)">
       <use xlink:href="#DejaVuSans-31"/>
       <use xlink:href="#DejaVuSans-2e" x="63.623047"/>
       <use xlink:href="#DejaVuSans-30" x="95.410156"/>
      </g>
     </g>
    </g>
    <g id="text_12">
     <!-- Fraction of function,target pairs -->
     <g transform="translate(17.619531 297.681)rotate(-90)scale(0.17 -0.17)">
      <defs>
       <path id="DejaVuSans-46" d="M 628 4666 
L 3309 4666 
L 3309 4134 
L 1259 4134 
L 1259 2759 
L 3109 2759 
L 3109 2228 
L 1259 2228 
L 1259 0 
L 628 0 
L 628 4666 
z
" transform="scale(0.015625)"/>
       <path id="DejaVuSans-72" d="M 2631 2963 
Q 2534 3019 2420 3045 
Q 2306 3072 2169 3072 
Q 1681 3072 1420 2755 
Q 1159 2438 1159 1844 
L 1159 0 
L 581 0 
L 581 3500 
L 1159 3500 
L 1159 2956 
Q 1341 3275 1631 3429 
Q 1922 3584 2338 3584 
Q 2397 3584 2469 3576 
Q 2541 3569 2628 3553 
L 2631 2963 
z
" transform="scale(0.015625)"/>
       <path id="DejaVuSans-63" d="M 3122 3366 
L 3122 2828 
Q 2878 2963 2633 3030 
Q 2388 3097 2138 3097 
Q 1578 3097 1268 2742 
Q 959 2388 959 1747 
Q 959 1106 1268 751 
Q 1578 397 2138 397 
Q 2388 397 2633 464 
Q 2878 531 3122 666 
L 3122 134 
Q 2881 22 2623 -34 
Q 2366 -91 2075 -91 
Q 1284 -91 818 406 
Q 353 903 353 1747 
Q 353 2603 823 3093 
Q 1294 3584 2113 3584 
Q 2378 3584 2631 3529 
Q 2884 3475 3122 3366 
z
" transform="scale(0.015625)"/>
       <path id="DejaVuSans-74" d="M 1172 4494 
L 1172 3500 
L 2356 3500 
L 2356 3053 
L 1172 3053 
L 1172 1153 
Q 1172 725 1289 603 
Q 1406 481 1766 481 
L 2356 481 
L 2356 0 
L 1766 0 
Q 1100 0 847 248 
Q 594 497 594 1153 
L 594 3053 
L 172 3053 
L 172 3500 
L 594 3500 
L 594 4494 
L 1172 4494 
z
" transform="scale(0.015625)"/>
       <path id="DejaVuSans-75" d="M 544 1381 
L 544 3500 
L 1119 3500 
L 1119 1403 
Q 1119 906 1312 657 
Q 1506 409 1894 409 
Q 2359 409 2629 706 
Q 2900 1003 2900 1516 
L 2900 3500 
L 3475 3500 
L 3475 0 
L 2900 0 
L 2900 538 
Q 2691 219 2414 64 
Q 2138 -91 1772 -91 
Q 1169 -91 856 284 
Q 544 659 544 1381 
z
M 1991 3584 
L 1991 3584 
z
" transform="scale(0.015625)"/>
       <path id="DejaVuSans-2c" d="M 750 794 
L 1409 794 
L 1409 256 
L 897 -744 
L 494 -744 
L 750 256 
L 750 794 
z
" transform="scale(0.015625)"/>
       <path id="DejaVuSans-70" d="M 1159 525 
L 1159 -1331 
L 581 -1331 
L 581 3500 
L 1159 3500 
L 1159 2969 
Q 1341 3281 1617 3432 
Q 1894 3584 2278 3584 
Q 2916 3584 3314 3078 
Q 3713 2572 3713 1747 
Q 3713 922 3314 415 
Q 2916 -91 2278 -91 
Q 1894 -91 1617 61 
Q 1341 213 1159 525 
z
M 3116 1747 
Q 3116 2381 2855 2742 
Q 2594 3103 2138 3103 
Q 1681 3103 1420 2742 
Q 1159 2381 1159 1747 
Q 1159 1113 1420 752 
Q 1681 391 2138 391 
Q 2594 391 2855 752 
Q 3116 1113 3116 1747 
z
" transform="scale(0.015625)"/>
      </defs>
      <use xlink:href="#DejaVuSans-46"/>
      <use xlink:href="#DejaVuSans-72" x="50.269531"/>
      <use xlink:href="#DejaVuSans-61" x="91.382812"/>
      <use xlink:href="#DejaVuSans-63" x="152.662109"/>
      <use xlink:href="#DejaVuSans-74" x="207.642578"/>
      <use xlink:href="#DejaVuSans-69" x="246.851562"/>
      <use xlink:href="#DejaVuSans-6f" x="274.634766"/>
      <use xlink:href="#DejaVuSans-6e" x="335.816406"/>
      <use xlink:href="#DejaVuSans-20" x="399.195312"/>
      <use xlink:href="#DejaVuSans-6f" x="430.982422"/>
      <use xlink:href="#DejaVuSans-66" x="492.164062"/>
      <use xlink:href="#DejaVuSans-20" x="527.369141"/>
      <use xlink:href="#DejaVuSans-66" x="559.15625"/>
      <use xlink:href="#DejaVuSans-75" x="594.361328"/>
      <use xlink:href="#DejaVuSans-6e" x="657.740234"/>
      <use xlink:href="#DejaVuSans-63" x="721.119141"/>
      <use xlink:href="#DejaVuSans-74" x="776.099609"/>
      <use xlink:href="#DejaVuSans-69" x="815.308594"/>
      <use xlink:href="#DejaVuSans-6f" x="843.091797"/>
      <use xlink:href="#DejaVuSans-6e" x="904.273438"/>
      <use xlink:href="#DejaVuSans-2c" x="967.652344"/>
      <use xlink:href="#DejaVuSans-74" x="999.439453"/>
      <use xlink:href="#DejaVuSans-61" x="1038.648438"/>
      <use xlink:href="#DejaVuSans-72" x="1099.927734"/>
      <use xlink:href="#DejaVuSans-67" x="1139.291016"/>
      <use xlink:href="#DejaVuSans-65" x="1202.767578"/>
      <use xlink:href="#DejaVuSans-74" x="1264.291016"/>
      <use xlink:href="#DejaVuSans-20" x="1303.5"/>
      <use xlink:href="#DejaVuSans-70" x="1335.287109"/>
      <use xlink:href="#DejaVuSans-61" x="1398.763672"/>
      <use xlink:href="#DejaVuSans-69" x="1460.042969"/>
      <use xlink:href="#DejaVuSans-72" x="1487.826172"/>
      <use xlink:href="#DejaVuSans-73" x="1528.939453"/>
     </g>
    </g>
   </g>
   <g id="line2d_33">
    <defs>
     <path id="mb92e296325" d="M 0 1.5 
C 0.397805 1.5 0.77937 1.341951 1.06066 1.06066 
C 1.341951 0.77937 1.5 0.397805 1.5 0 
C 1.5 -0.397805 1.341951 -0.77937 1.06066 -1.06066 
C 0.77937 -1.341951 0.397805 -1.5 0 -1.5 
C -0.397805 -1.5 -0.77937 -1.341951 -1.06066 -1.06066 
C -1.341951 -0.77937 -1.5 -0.397805 -1.5 0 
C -1.5 0.397805 -1.341951 0.77937 -1.06066 1.06066 
C -0.77937 1.341951 -0.397805 1.5 0 1.5 
z
" style="stroke: #f5deb3"/>
    </defs>
    <g>
     <use xlink:href="#mb92e296325" x="185.427251" y="27.648" style="fill: #f5deb3; stroke: #f5deb3"/>
     <use xlink:href="#mb92e296325" x="185.427251" y="27.648" style="fill: #f5deb3; stroke: #f5deb3"/>
    </g>
   </g>
   <g id="line2d_34">
    <defs>
     <path id="mdea892984e" d="M 0 1.5 
C 0.397805 1.5 0.77937 1.341951 1.06066 1.06066 
C 1.341951 0.77937 1.5 0.397805 1.5 0 
C 1.5 -0.397805 1.341951 -0.77937 1.06066 -1.06066 
C 0.77937 -1.341951 0.397805 -1.5 0 -1.5 
C -0.397805 -1.5 -0.77937 -1.341951 -1.06066 -1.06066 
C -1.341951 -0.77937 -1.5 -0.397805 -1.5 0 
C -1.5 0.397805 -1.341951 0.77937 -1.06066 1.06066 
C -0.77937 1.341951 -0.397805 1.5 0 1.5 
z
" style="stroke: #000080"/>
    </defs>
    <g>
     <use xlink:href="#mdea892984e" x="191.744781" y="27.648" style="fill: #000080; stroke: #000080"/>
     <use xlink:href="#mdea892984e" x="191.744781" y="27.648" style="fill: #000080; stroke: #000080"/>
    </g>
   </g>
   <g id="line2d_35">
    <path d="M 1.245626 298.944 
L 1.245626 285.113224 
L 14.2848 285.113224 
L 14.2848 284.687661 
L 27.323974 284.687661 
L 27.323974 284.47488 
L 34.951403 284.47488 
L 34.951403 284.262099 
L 44.560826 284.262099 
L 44.560826 283.836536 
L 52.188254 283.836536 
L 52.188254 283.623755 
L 53.402323 283.623755 
L 53.402323 283.198193 
L 54.542767 283.198193 
L 54.542767 282.985412 
L 56.635094 282.985412 
L 56.635094 282.772631 
L 57.6 282.772631 
L 57.6 282.559849 
L 59.392932 282.559849 
L 59.392932 282.134287 
L 61.797677 282.134287 
L 61.797677 281.921506 
L 63.929565 281.921506 
L 63.929565 281.708725 
L 64.589687 281.708725 
L 64.589687 281.283162 
L 65.844256 281.283162 
L 65.844256 280.8576 
L 66.441498 280.8576 
L 66.441498 280.644819 
L 68.65718 280.644819 
L 68.65718 280.432038 
L 70.162907 280.432038 
L 70.162907 280.219256 
L 70.639174 280.219256 
L 70.639174 280.006475 
L 72.854856 280.006475 
L 72.854856 279.793694 
L 74.836851 279.793694 
L 74.836851 279.155351 
L 75.209369 279.155351 
L 75.209369 278.942569 
L 75.93298 278.942569 
L 75.93298 278.517007 
L 76.629783 278.517007 
L 76.629783 278.304226 
L 77.628862 278.304226 
L 77.628862 278.091445 
L 78.266603 278.091445 
L 78.266603 277.878664 
L 78.577544 277.878664 
L 78.577544 277.665882 
L 79.480672 277.665882 
L 79.480672 277.453101 
L 79.77233 277.453101 
L 79.77233 277.24032 
L 80.342421 277.24032 
L 80.342421 277.027539 
L 82.959349 277.027539 
L 82.959349 276.814758 
L 83.441723 276.814758 
L 83.441723 276.601976 
L 83.678349 276.601976 
L 83.678349 276.389195 
L 84.142855 276.389195 
L 84.142855 276.176414 
L 84.370877 276.176414 
L 84.370877 275.963633 
L 84.596168 275.963633 
L 84.596168 275.750852 
L 85.471281 275.750852 
L 85.471281 275.538071 
L 85.894031 275.538071 
L 85.894031 275.325289 
L 87.1081 275.325289 
L 87.1081 275.112508 
L 87.495981 275.112508 
L 87.495981 274.899727 
L 88.432072 274.899727 
L 88.432072 274.474165 
L 88.613828 274.474165 
L 88.613828 274.261384 
L 89.14879 274.190456 
L 89.14879 273.977675 
L 89.668958 273.977675 
L 89.668958 273.764894 
L 89.839199 273.764894 
L 89.839199 273.481186 
L 90.505165 273.481186 
L 90.505165 273.339332 
L 91.46189 273.339332 
L 91.46189 273.126551 
L 91.922605 273.126551 
L 91.922605 272.913769 
L 92.519847 272.913769 
L 92.519847 272.700988 
L 93.521459 272.700988 
L 93.521459 272.275426 
L 93.66029 272.275426 
L 93.66029 272.062645 
L 93.798104 272.062645 
L 93.798104 271.849864 
L 94.07074 271.849864 
L 94.07074 271.637082 
L 94.472426 271.637082 
L 94.472426 271.424301 
L 95.250946 271.353374 
L 95.250946 271.140593 
L 95.503454 271.140593 
L 95.503454 270.856885 
L 96.361458 270.785958 
L 96.361458 270.573176 
L 96.717523 270.573176 
L 96.717523 270.076687 
L 97.523034 270.076687 
L 97.523034 269.863906 
L 97.746984 269.863906 
L 97.746984 269.651125 
L 97.968299 269.651125 
L 97.968299 269.225562 
L 98.933205 269.225562 
L 98.933205 268.8 
L 99.346662 268.729073 
L 99.448622 268.587219 
L 99.550033 268.587219 
L 99.550033 268.374438 
L 99.751228 268.374438 
L 99.851024 268.090729 
L 99.950294 268.090729 
L 99.950294 267.877948 
L 100.342215 267.877948 
L 100.342215 267.452386 
L 100.9152 267.381459 
L 101.009023 267.097751 
L 101.379706 267.097751 
L 101.471247 266.246626 
L 101.922385 266.175699 
L 101.922385 265.962918 
L 102.275664 265.962918 
L 102.362957 265.537355 
L 103.788121 265.466428 
L 103.788121 265.253647 
L 104.028784 265.18272 
L 104.028784 265.111793 
L 104.501065 265.111793 
L 104.501065 264.899012 
L 105.559021 264.828085 
L 105.559021 264.686231 
L 105.99483 264.615304 
L 105.99483 264.402522 
L 106.137884 264.402522 
L 106.137884 264.189741 
L 106.905809 264.118814 
L 106.905809 263.906033 
L 107.109915 263.906033 
L 107.177461 263.267689 
L 107.244765 263.267689 
L 107.244765 262.983981 
L 107.378656 262.983981 
L 107.445245 262.700273 
L 107.709271 262.700273 
L 107.709271 262.487492 
L 107.839908 262.487492 
L 107.839908 262.274711 
L 108.034177 262.274711 
L 108.034177 262.061929 
L 108.667622 262.061929 
L 108.667622 261.849148 
L 108.791791 261.849148 
L 108.791791 261.636367 
L 109.280431 261.56544 
L 109.340628 260.927096 
L 109.400633 260.927096 
L 109.400633 260.501534 
L 109.873904 260.430607 
L 109.873904 260.217826 
L 110.221204 260.146899 
L 110.221204 259.934118 
L 110.505802 259.934118 
L 110.505802 259.721336 
L 110.618446 259.721336 
L 110.618446 259.508555 
L 110.786158 259.437628 
L 110.897141 259.012066 
L 111.442442 259.012066 
L 111.442442 258.799285 
L 111.656212 258.799285 
L 111.656212 258.657431 
L 111.97238 258.657431 
L 112.076599 258.302795 
L 112.128493 258.302795 
L 112.180244 258.019087 
L 112.334649 258.019087 
L 112.334649 257.806306 
L 112.589207 257.806306 
L 112.639708 257.309816 
L 112.890198 257.238889 
L 112.989468 257.097035 
L 113.235374 257.026108 
L 113.332844 256.813327 
L 113.381389 256.813327 
L 113.478107 256.458692 
L 113.717748 256.387765 
L 113.717748 256.174984 
L 113.860081 256.174984 
L 113.907287 255.53664 
L 114.141556 255.53664 
L 114.141556 255.323859 
L 114.372943 255.323859 
L 114.464707 255.040151 
L 114.510421 255.040151 
L 114.556025 254.472734 
L 114.692177 254.472734 
L 114.737343 254.189026 
L 115.006084 254.118099 
L 115.006084 254.047172 
L 115.227139 254.047172 
L 115.227139 253.834391 
L 115.661605 253.834391 
L 115.704505 253.337901 
L 115.83262 253.337901 
L 115.917548 252.486776 
L 116.086263 252.486776 
L 116.170056 252.061214 
L 116.501546 252.061214 
L 116.583514 251.493798 
L 116.705799 251.422871 
L 116.705799 251.210089 
L 117.1475 251.139162 
L 117.187145 250.7136 
L 117.384126 250.7136 
L 117.384126 250.500819 
L 117.617813 250.500819 
L 117.65648 250.075256 
L 117.733577 250.075256 
L 117.733577 249.862475 
L 117.848632 249.862475 
L 117.924947 249.295059 
L 118.038842 249.295059 
L 118.11439 248.940424 
L 118.189637 248.940424 
L 118.189637 248.514861 
L 118.524569 248.443934 
L 118.634901 248.160226 
L 118.74459 248.160226 
L 118.817362 247.734664 
L 119.28364 247.663736 
L 119.389621 247.09632 
L 119.530006 247.09632 
L 119.634612 246.457976 
L 119.807672 246.457976 
L 119.842094 246.032414 
L 120.149089 245.961487 
L 120.149089 245.89056 
L 120.351004 245.89056 
L 120.351004 245.677779 
L 120.583864 245.606852 
L 120.616896 245.252216 
L 120.748446 245.181289 
L 120.748446 244.968508 
L 120.879082 244.968508 
L 120.976468 243.833675 
L 121.39274 243.762748 
L 121.455972 243.195332 
L 121.581803 243.195332 
L 121.581803 242.982551 
L 121.706797 242.982551 
L 121.8 242.415134 
L 121.954321 242.415134 
L 122.046309 241.634936 
L 122.13785 241.634936 
L 122.13785 241.422155 
L 122.439807 241.422155 
L 122.529457 240.712885 
L 122.559246 240.712885 
L 122.559246 240.500104 
L 122.766456 240.500104 
L 122.766456 240.287322 
L 122.942266 240.216395 
L 123.029559 239.932687 
L 123.08753 239.86176 
L 123.145323 239.223416 
L 123.231681 239.152489 
L 123.317644 238.088584 
L 123.460048 238.017656 
L 123.544976 237.166532 
L 123.629523 237.095605 
L 123.685677 236.811896 
L 123.880906 236.811896 
L 123.936316 236.315407 
L 124.156336 236.315407 
L 124.183659 235.889845 
L 124.292554 235.889845 
L 124.319679 235.606136 
L 124.427792 235.606136 
L 124.535287 234.825939 
L 124.588805 234.825939 
L 124.695386 234.258522 
L 124.748451 234.258522 
L 124.748451 234.045741 
L 124.906754 233.974814 
L 124.985409 233.762033 
L 125.037663 233.762033 
L 125.141738 232.698127 
L 125.167667 232.698127 
L 125.271028 232.414419 
L 125.373824 232.343492 
L 125.373824 232.272565 
L 125.552375 232.201638 
L 125.552375 231.988856 
L 125.75438 231.917929 
L 125.829577 231.563294 
L 125.954239 231.492367 
L 125.954239 231.350513 
L 126.078082 231.350513 
L 126.078082 231.137732 
L 126.298963 231.066805 
L 126.396307 230.570315 
L 126.44479 230.570315 
L 126.517282 230.002899 
L 126.589495 230.002899 
L 126.68535 229.222701 
L 126.756923 229.151774 
L 126.851931 228.655285 
L 126.875608 228.655285 
L 126.97002 228.229722 
L 127.017049 228.229722 
L 127.087372 227.307671 
L 127.157434 227.236744 
L 127.157434 227.023962 
L 127.4351 226.953035 
L 127.526752 226.172838 
L 127.549596 226.172838 
L 127.5952 225.534494 
L 127.708728 225.463567 
L 127.79906 224.967078 
L 127.866525 224.967078 
L 127.911368 224.612442 
L 128.023009 224.612442 
L 128.023009 224.399661 
L 128.222309 224.328734 
L 128.310214 224.115953 
L 128.354013 224.115953 
L 128.39771 223.477609 
L 128.5931 223.477609 
L 128.657782 222.626485 
L 128.871795 222.555558 
L 128.977895 221.917214 
L 129.104431 221.917214 
L 129.167381 220.995162 
L 129.458394 220.924235 
L 129.54072 220.640527 
L 129.68393 220.5696 
L 129.7043 220.427746 
L 129.826058 220.427746 
L 129.906795 219.576621 
L 129.987186 219.505694 
L 129.987186 219.434767 
L 130.107132 219.434767 
L 130.16682 219.009205 
L 130.226319 219.009205 
L 130.305359 218.512715 
L 130.364422 218.512715 
L 130.384069 218.087153 
L 130.501519 218.087153 
L 130.598837 216.739539 
L 130.695654 216.739539 
L 130.772751 216.030268 
L 130.849533 215.959341 
L 130.86868 215.675633 
L 131.021155 215.604706 
L 131.115828 215.037289 
L 131.191226 215.037289 
L 131.191226 214.824508 
L 131.359772 214.753581 
L 131.4342 214.5408 
L 131.471303 214.5408 
L 131.545292 213.760602 
L 131.63737 213.760602 
L 131.692402 213.264113 
L 131.929028 213.193186 
L 132.037244 212.554842 
L 132.05522 212.554842 
L 132.126951 212.058353 
L 132.287354 211.987426 
L 132.393534 211.349082 
L 132.534182 211.278155 
L 132.586655 210.852593 
L 132.656392 210.852593 
L 132.760515 210.568885 
L 132.829612 210.497958 
L 132.915628 209.859614 
L 133.001252 209.859614 
L 133.05244 209.434052 
L 133.120474 209.434052 
L 133.222067 209.008489 
L 133.373435 208.937562 
L 133.473674 208.512 
L 133.506969 208.441073 
L 133.606501 208.299219 
L 133.639562 208.228292 
L 133.689044 207.235313 
L 133.820365 207.164386 
L 133.869374 206.951605 
L 134.096413 206.880678 
L 134.176839 205.887699 
L 134.352574 205.816772 
L 134.463557 205.249355 
L 134.495147 205.249355 
L 134.558167 204.89472 
L 134.620977 204.89472 
L 134.730392 204.398231 
L 134.885604 204.327304 
L 134.962732 203.547106 
L 135.222628 203.476179 
L 135.328609 202.625054 
L 135.3437 202.625054 
L 135.433996 202.128565 
L 135.478982 202.128565 
L 135.568632 201.703002 
L 135.657857 201.632075 
L 135.76142 200.851878 
L 135.776169 200.851878 
L 135.835047 200.497242 
L 135.937642 200.426315 
L 136.025138 200.07168 
L 136.097741 200.000753 
L 136.155623 199.504264 
L 136.213327 199.504264 
L 136.299553 198.653139 
L 136.413909 198.653139 
L 136.485031 198.227576 
L 136.598268 198.227576 
L 136.598268 198.014795 
L 136.808769 197.943868 
L 136.822719 197.66016 
L 137.030737 197.589233 
L 137.140746 197.305525 
L 137.250116 197.234598 
L 137.358854 196.4544 
L 137.38594 196.4544 
L 137.493898 195.957911 
L 137.601239 195.957911 
L 137.707972 195.674202 
L 137.761112 195.674202 
L 137.866944 195.177713 
L 137.893309 195.106786 
L 137.985297 194.964932 
L 138.011497 194.964932 
L 138.115933 194.468442 
L 138.154948 194.397515 
L 138.219793 194.255661 
L 138.412998 194.184734 
L 138.515235 194.04288 
L 138.540708 194.04288 
L 138.642255 193.546391 
L 138.755844 193.475464 
L 138.768422 193.191755 
L 138.89375 193.120828 
L 138.968547 192.695266 
L 139.030652 192.695266 
L 139.104908 192.056922 
L 139.178873 191.985995 
L 139.277041 191.418579 
L 139.301504 191.418579 
L 139.386872 191.205798 
L 139.483965 191.205798 
L 139.483965 191.063944 
L 139.676658 190.993016 
L 139.748412 190.638381 
L 139.879255 190.638381 
L 139.985636 189.858184 
L 140.173284 189.787256 
L 140.173284 189.574475 
L 140.405242 189.503548 
L 140.462787 189.007059 
L 140.622984 188.936132 
L 140.657135 188.723351 
L 140.883238 188.652424 
L 140.972924 188.439642 
L 141.017607 188.439642 
L 141.084433 187.801299 
L 141.173167 187.801299 
L 141.206334 187.304809 
L 141.382247 187.233882 
L 141.42597 187.021101 
L 141.513111 187.021101 
L 141.59985 186.524612 
L 141.64307 186.524612 
L 141.729214 185.957195 
L 141.836341 185.957195 
L 141.921606 185.531633 
L 142.038218 185.460706 
L 142.133093 184.467727 
L 142.258853 184.3968 
L 142.363015 183.900311 
L 142.538777 183.829384 
L 142.641404 183.261967 
L 142.945969 183.19104 
L 143.036385 182.623624 
L 143.086429 182.552696 
L 143.086429 182.268988 
L 143.285285 182.198061 
L 143.35439 181.701572 
L 143.423243 181.701572 
L 143.530934 181.346936 
L 143.628302 181.276009 
L 143.696162 180.921374 
L 143.792681 180.921374 
L 143.879127 180.353958 
L 143.907854 180.353958 
L 143.993774 179.857468 
L 144.107726 179.786541 
L 144.117191 179.644687 
L 144.239803 179.644687 
L 144.239803 179.431906 
L 144.648968 179.360979 
L 144.731576 179.148198 
L 144.777313 179.148198 
L 144.88663 178.793562 
L 144.968202 178.793562 
L 145.067425 178.226146 
L 145.103376 178.226146 
L 145.21082 177.800584 
L 145.344267 177.729656 
L 145.44153 177.020386 
L 145.652011 176.949459 
L 145.7477 176.665751 
L 145.782376 176.665751 
L 145.877406 176.382042 
L 146.151158 176.311115 
L 146.202046 175.672772 
L 146.571076 175.672772 
L 146.571076 175.459991 
L 146.834986 175.389064 
L 146.867716 175.176282 
L 147.087167 175.105355 
L 147.167799 174.821647 
L 147.320055 174.75072 
L 147.351953 174.325158 
L 147.455248 174.325158 
L 147.486917 173.899595 
L 147.683651 173.828668 
L 147.746174 173.403106 
L 147.940229 173.332179 
L 147.94795 173.048471 
L 148.276979 173.048471 
L 148.330001 172.764762 
L 148.741485 172.693835 
L 148.741485 172.481054 
L 148.925589 172.410127 
L 148.991428 171.984565 
L 149.107908 171.913638 
L 149.165879 171.346221 
L 149.31003 171.275294 
L 149.35306 170.991586 
L 149.460208 170.991586 
L 149.524205 170.282315 
L 149.778038 170.211388 
L 149.833983 169.643972 
L 150.221009 169.643972 
L 150.221009 169.431191 
L 150.438643 169.360264 
L 150.546523 169.218409 
L 150.600232 169.147482 
L 150.600232 169.005628 
L 150.72718 169.005628 
L 150.72718 168.792847 
L 151.004798 168.72192 
L 151.076835 167.941722 
L 151.246016 167.870795 
L 151.355818 167.658014 
L 151.400845 167.587087 
L 151.471384 166.877816 
L 151.586245 166.806889 
L 151.586245 166.735962 
L 151.700408 166.735962 
L 151.795018 166.168546 
L 152.013941 166.168546 
L 152.113178 165.530202 
L 152.181101 165.530202 
L 152.181101 165.317421 
L 152.419962 165.246494 
L 152.51103 164.962786 
L 152.625753 164.962786 
L 152.715833 164.608151 
L 152.787587 164.537224 
L 152.787587 164.466296 
L 152.906572 164.466296 
L 152.971695 163.827953 
L 153.24161 163.827953 
L 153.305585 163.402391 
L 153.696309 163.331464 
L 153.696309 163.260536 
L 153.860504 163.189609 
L 153.944874 162.905901 
L 154.106923 162.834974 
L 154.206807 162.196631 
L 154.223403 162.196631 
L 154.223403 162.054776 
L 154.443296 161.983849 
L 154.525097 161.132725 
L 154.633615 161.132725 
L 154.633615 160.919944 
L 154.768388 160.849016 
L 154.795227 160.565308 
L 154.880856 160.565308 
L 154.987347 160.139746 
L 155.003269 160.139746 
L 155.003269 159.926965 
L 155.145961 159.926965 
L 155.172267 159.572329 
L 155.266666 159.572329 
L 155.313689 159.288621 
L 155.531586 159.217694 
L 155.624203 158.437496 
L 155.843627 158.366569 
L 155.949864 158.082861 
L 155.970032 158.082861 
L 156.065535 157.657299 
L 156.115606 157.657299 
L 156.220322 156.877101 
L 156.235234 156.877101 
L 156.324459 156.451539 
L 156.472233 156.380612 
L 156.482044 156.238758 
L 156.609116 156.167831 
L 156.696589 155.529487 
L 156.79813 155.45856 
L 156.894328 155.103925 
L 156.975712 155.032998 
L 157.071009 154.607435 
L 157.198899 154.536508 
L 157.293074 154.110946 
L 157.321235 154.110946 
L 157.358718 153.685384 
L 157.43346 153.685384 
L 157.456756 153.04704 
L 157.688143 152.976113 
L 157.770751 152.479624 
L 157.821055 152.479624 
L 157.821055 152.266842 
L 158.020938 152.195915 
L 158.106599 151.770353 
L 158.182914 151.699426 
L 158.249994 150.990155 
L 158.307938 150.919228 
L 158.392304 150.63552 
L 158.533546 150.564593 
L 158.551127 149.997176 
L 158.66937 149.997176 
L 158.769513 149.500687 
L 158.895025 149.500687 
L 158.993977 149.004198 
L 159.011133 149.004198 
L 159.118005 148.082146 
L 159.181837 148.082146 
L 159.262383 147.585656 
L 159.346797 147.514729 
L 159.359426 147.089167 
L 159.535354 147.089167 
L 159.63515 146.521751 
L 159.68485 146.521751 
L 159.787973 145.883407 
L 159.837271 145.883407 
L 159.923234 145.245064 
L 159.980326 145.174136 
L 160.089943 144.323012 
L 160.118259 144.252085 
L 160.20295 143.684668 
L 160.2592 143.613741 
L 160.303279 143.117252 
L 160.466668 143.117252 
L 160.526092 142.549835 
L 160.691486 142.478908 
L 160.797049 141.485929 
L 160.820427 141.485929 
L 160.917524 140.847586 
L 160.948489 140.776659 
L 160.994842 140.422024 
L 161.17912 140.351096 
L 161.274388 139.712753 
L 161.369176 139.641826 
L 161.418277 139.358118 
L 161.508591 139.358118 
L 161.542347 138.861628 
L 161.684209 138.790701 
L 161.791757 138.152358 
L 161.8287 138.081431 
L 161.913396 137.301233 
L 161.953768 137.301233 
L 162.02695 137.017525 
L 162.132562 136.946598 
L 162.179713 136.450108 
L 162.266453 136.379181 
L 162.370732 135.457129 
L 162.445885 135.386202 
L 162.534963 135.031567 
L 162.687199 134.96064 
L 162.725945 134.535078 
L 162.806704 134.464151 
L 162.911524 133.683953 
L 162.946334 133.613026 
L 163.057297 132.903755 
L 163.078029 132.832828 
L 163.119427 132.478193 
L 163.191653 132.478193 
L 163.24992 131.910776 
L 163.420254 131.910776 
L 163.508222 131.130579 
L 163.589059 131.059652 
L 163.676243 130.421308 
L 163.77634 130.350381 
L 163.885835 129.782965 
L 163.941994 129.782965 
L 163.984826 129.286475 
L 164.122545 129.215548 
L 164.181259 128.719059 
L 164.259262 128.719059 
L 164.340172 128.080715 
L 164.420735 128.080715 
L 164.500955 127.72608 
L 164.55531 127.72608 
L 164.650849 127.158664 
L 164.80901 127.087736 
L 164.88132 126.449393 
L 164.965852 126.378466 
L 165.040674 126.023831 
L 165.081079 126.023831 
L 165.180169 125.456414 
L 165.229519 125.385487 
L 165.251069 125.101779 
L 165.361509 125.101779 
L 165.446961 124.463435 
L 165.483464 124.392508 
L 165.583486 123.186748 
L 165.658907 123.186748 
L 165.725029 122.406551 
L 165.802874 122.335624 
L 165.907159 121.484499 
L 166.040396 121.413572 
L 166.143377 120.917082 
L 166.216591 120.917082 
L 166.324427 120.349666 
L 166.333144 120.349666 
L 166.425869 119.924104 
L 166.521015 119.853176 
L 166.629985 119.143906 
L 166.655701 119.072979 
L 166.763896 118.576489 
L 166.792265 118.576489 
L 166.894041 117.938146 
L 166.944723 117.867219 
L 167.034489 117.512584 
L 167.082003 117.512584 
L 167.182228 117.087021 
L 167.23491 117.016094 
L 167.339833 116.448678 
L 167.350843 116.448678 
L 167.433218 115.952188 
L 167.471536 115.881261 
L 167.471536 115.810334 
L 167.645719 115.739407 
L 167.726815 114.888282 
L 167.777995 114.817355 
L 167.863881 114.179012 
L 167.909348 114.108085 
L 168.005271 113.540668 
L 168.100708 113.469741 
L 168.208813 112.760471 
L 168.253455 112.689544 
L 168.337202 112.122127 
L 168.456938 112.0512 
L 168.508761 111.625638 
L 168.575917 111.625638 
L 168.632555 111.058221 
L 168.699272 111.058221 
L 168.806548 110.348951 
L 168.826913 110.348951 
L 168.933465 109.63968 
L 168.968849 109.63968 
L 169.029352 109.143191 
L 169.114734 109.143191 
L 169.219673 108.788555 
L 169.229637 108.717628 
L 169.311637 107.795576 
L 169.368578 107.724649 
L 169.449976 106.802598 
L 169.501592 106.731671 
L 169.577529 106.235181 
L 169.650726 106.235181 
L 169.709079 105.809619 
L 169.769672 105.738692 
L 169.854175 105.384056 
L 169.916704 105.384056 
L 170.026825 103.894588 
L 170.045911 103.823661 
L 170.155281 103.185318 
L 170.178973 103.185318 
L 170.28051 102.192339 
L 170.348681 102.121412 
L 170.430628 101.128433 
L 170.477296 101.057506 
L 170.57724 100.702871 
L 170.625857 100.631944 
L 170.683572 100.348235 
L 170.789307 100.277308 
L 170.894451 99.497111 
L 170.953621 99.426184 
L 171.051073 98.575059 
L 171.073664 98.575059 
L 171.093973 98.078569 
L 171.192946 98.078569 
L 171.266835 97.369299 
L 171.320391 97.298372 
L 171.409314 96.447247 
L 171.49561 96.37632 
L 171.552922 95.950758 
L 171.607866 95.950758 
L 171.691074 95.099633 
L 171.76086 95.028706 
L 171.841228 94.390362 
L 171.884527 94.319435 
L 171.992343 93.113675 
L 172.02886 93.042748 
L 172.123046 92.191624 
L 172.19125 92.120696 
L 172.237998 91.55328 
L 172.316357 91.55328 
L 172.394392 90.631228 
L 172.430137 90.631228 
L 172.511885 89.921958 
L 172.570358 89.851031 
L 172.661879 89.212687 
L 172.682617 89.212687 
L 172.792149 88.148781 
L 172.802449 88.148781 
L 172.90924 86.801167 
L 172.937888 86.73024 
L 173.039848 86.375605 
L 173.084536 86.304678 
L 173.179651 85.453553 
L 173.211921 85.382626 
L 173.32243 84.602428 
L 173.342453 84.602428 
L 173.438268 83.822231 
L 173.474073 83.751304 
L 173.581081 82.687398 
L 173.596882 82.687398 
L 173.703196 81.694419 
L 173.771783 81.623492 
L 173.859601 80.772367 
L 173.894614 80.70144 
L 174.003127 80.346805 
L 174.039803 80.275878 
L 174.147484 79.566607 
L 174.162817 79.566607 
L 174.271704 78.148066 
L 174.334457 78.077139 
L 174.432917 77.296941 
L 174.495135 77.226014 
L 174.602121 75.949327 
L 174.609606 75.949327 
L 174.643251 75.523765 
L 174.721524 75.523765 
L 174.829082 74.67264 
L 174.83278 74.67264 
L 174.937868 74.034296 
L 174.958081 73.963369 
L 175.00577 73.608734 
L 175.080727 73.608734 
L 175.184443 72.26112 
L 175.244228 72.190193 
L 175.339851 71.409995 
L 175.379401 71.339068 
L 175.465405 70.700725 
L 175.506477 70.700725 
L 175.607877 69.707746 
L 175.630928 69.636819 
L 175.729899 68.501986 
L 175.768638 68.431059 
L 175.872138 67.43808 
L 175.905348 67.43808 
L 175.985509 66.870664 
L 176.053204 66.870664 
L 176.146536 65.948612 
L 176.206783 65.877685 
L 176.314743 64.459144 
L 176.31816 64.459144 
L 176.422087 63.8208 
L 176.476377 63.749873 
L 176.582805 62.756894 
L 176.608057 62.756894 
L 176.702031 61.480207 
L 176.73715 61.40928 
L 176.838794 60.770936 
L 176.852084 60.700009 
L 176.949807 59.919812 
L 176.987765 59.919812 
L 177.097904 59.352395 
L 177.15355 59.352395 
L 177.26435 57.933854 
L 177.300058 57.933854 
L 177.395487 56.869948 
L 177.463125 56.799021 
L 177.57372 56.018824 
L 177.584904 55.947896 
L 177.680491 55.025845 
L 177.734443 54.954918 
L 177.840308 54.245647 
L 177.859206 54.17472 
L 177.962808 53.465449 
L 177.970633 53.465449 
L 178.079849 52.188762 
L 178.08296 52.188762 
L 178.191527 50.983002 
L 178.225519 50.983002 
L 178.322522 49.990024 
L 178.353212 49.919096 
L 178.420555 49.422607 
L 178.496789 49.422607 
L 178.60754 48.14592 
L 178.628705 48.074993 
L 178.737181 47.294795 
L 178.74319 47.223868 
L 178.85101 46.159962 
L 178.882341 46.089035 
L 178.990851 45.096056 
L 178.993815 45.096056 
L 179.075145 44.386786 
L 179.128189 44.315859 
L 179.128189 44.244932 
L 179.255765 44.174005 
L 179.356335 43.677515 
L 179.392641 43.606588 
L 179.41584 42.968245 
L 179.527087 42.968245 
L 179.621921 42.542682 
L 179.712 42.542682 
L 179.808747 42.11712 
L 179.893701 42.046193 
L 179.996547 41.620631 
L 180.037248 41.549704 
L 180.101628 41.265995 
L 180.168573 41.265995 
L 180.264391 40.91136 
L 180.30037 40.840433 
L 180.381761 40.273016 
L 180.414768 40.202089 
L 180.486086 39.918381 
L 180.547587 39.847454 
L 180.657783 39.421892 
L 180.710611 39.350965 
L 180.784861 38.854475 
L 180.835991 38.783548 
L 180.940507 38.003351 
L 180.956535 37.932424 
L 181.060386 37.365007 
L 181.092225 37.365007 
L 181.159704 36.726664 
L 181.267696 36.655736 
L 181.35286 36.230174 
L 181.431133 36.159247 
L 181.538877 35.804612 
L 181.577669 35.733685 
L 181.622825 35.308122 
L 181.75125 35.237195 
L 181.858453 34.740706 
L 181.949858 34.669779 
L 182.053419 34.315144 
L 182.106243 34.244216 
L 182.215194 33.747727 
L 182.225181 33.747727 
L 182.225181 33.605873 
L 182.366921 33.534946 
L 182.475609 33.251238 
L 182.545675 33.180311 
L 182.622814 32.967529 
L 182.811266 32.896602 
L 182.917423 32.612894 
L 182.960679 32.541967 
L 183.067193 32.258259 
L 183.111297 32.187332 
L 183.214595 31.832696 
L 183.279608 31.761769 
L 183.279608 31.690842 
L 183.45578 31.619915 
L 183.558372 31.478061 
L 183.697374 31.407134 
L 183.752689 31.26528 
L 183.890268 31.194353 
L 183.988251 30.910645 
L 184.252301 30.839718 
L 184.252301 30.768791 
L 184.44627 30.697864 
L 184.546923 30.343228 
L 184.621786 30.272301 
L 184.621786 30.201374 
L 184.951793 30.130447 
L 185.006774 29.917666 
L 185.201681 29.846739 
L 185.201681 29.775812 
L 185.46511 29.704885 
L 185.53118 29.492104 
L 185.620997 29.421176 
L 185.721791 29.208395 
L 186.433588 29.137468 
L 186.525167 28.995614 
L 186.779634 28.924687 
L 186.779634 28.85376 
L 187.247916 28.782833 
L 187.285146 28.640979 
L 188.071488 28.570052 
L 188.071488 28.499125 
L 188.29606 28.428198 
L 188.375426 28.286344 
L 188.683387 28.215416 
L 188.717885 28.073562 
L 189.224463 28.002635 
L 189.27944 27.860781 
L 189.987329 27.789854 
L 189.987329 27.718927 
L 360.8064 27.648 
L 360.8064 27.648 
" style="fill: none; stroke: #000080; stroke-width: 1.5; stroke-linecap: square"/>
   </g>
   <g id="line2d_36">
    <defs>
     <path id="m7fa2f6b57d" d="M 0 6 
C 1.591219 6 3.117479 5.367802 4.242641 4.242641 
C 5.367802 3.117479 6 1.591219 6 0 
C 6 -1.591219 5.367802 -3.117479 4.242641 -4.242641 
C 3.117479 -5.367802 1.591219 -6 0 -6 
C -1.591219 -6 -3.117479 -5.367802 -4.242641 -4.242641 
C -5.367802 -3.117479 -6 -1.591219 -6 0 
C -6 1.591219 -5.367802 3.117479 -4.242641 4.242641 
C -3.117479 5.367802 -1.591219 6 0 6 
z
" style="stroke: #000080; stroke-width: 1.5"/>
    </defs>
    <g>
     <use xlink:href="#m7fa2f6b57d" x="70.639174" y="280.006475" style="fill-opacity: 0; stroke: #000080; stroke-width: 1.5"/>
     <use xlink:href="#m7fa2f6b57d" x="154.206807" y="162.409412" style="fill-opacity: 0; stroke: #000080; stroke-width: 1.5"/>
     <use xlink:href="#m7fa2f6b57d" x="191.744781" y="27.718927" style="fill-opacity: 0; stroke: #000080; stroke-width: 1.5"/>
     <use xlink:href="#m7fa2f6b57d" x="191.744781" y="27.648" style="fill-opacity: 0; stroke: #000080; stroke-width: 1.5"/>
     <use xlink:href="#m7fa2f6b57d" x="191.744781" y="27.648" style="fill-opacity: 0; stroke: #000080; stroke-width: 1.5"/>
     <use xlink:href="#m7fa2f6b57d" x="360.8064" y="27.648" style="fill-opacity: 0; stroke: #000080; stroke-width: 1.5"/>
    </g>
   </g>
   <g id="line2d_37">
    <path style="fill: none; stroke: #000080; stroke-width: 1.5; stroke-linecap: square"/>
    <g/>
   </g>
   <g id="line2d_38">
    <path d="M 101.471247 266.246626 
" clip-path="url(#pb45afa2f4f)" style="fill: none; stroke: #000080; stroke-width: 1.5; stroke-linecap: square"/>
    <defs>
     <path id="m9e357f184a" d="M -12 12 
L 12 -12 
M -12 -12 
L 12 12 
" style="stroke: #000080"/>
    </defs>
    <g clip-path="url(#pb45afa2f4f)">
     <use xlink:href="#m9e357f184a" x="101.471247" y="266.246626" style="fill: #000080; stroke: #000080"/>
    </g>
   </g>
   <g id="line2d_39">
    <defs>
     <path id="m363c480407" d="M 0 1.5 
C 0.397805 1.5 0.77937 1.341951 1.06066 1.06066 
C 1.341951 0.77937 1.5 0.397805 1.5 0 
C 1.5 -0.397805 1.341951 -0.77937 1.06066 -1.06066 
C 0.77937 -1.341951 0.397805 -1.5 0 -1.5 
C -0.397805 -1.5 -0.77937 -1.341951 -1.06066 -1.06066 
C -1.341951 -0.77937 -1.5 -0.397805 -1.5 0 
C -1.5 0.397805 -1.341951 0.77937 -1.06066 1.06066 
C -0.77937 1.341951 -0.397805 1.5 0 1.5 
z
" style="stroke: #ff00ff"/>
    </defs>
    <g>
     <use xlink:href="#m363c480407" x="180.154645" y="27.648" style="fill: #ff00ff; stroke: #ff00ff"/>
     <use xlink:href="#m363c480407" x="180.154645" y="27.648" style="fill: #ff00ff; stroke: #ff00ff"/>
    </g>
   </g>
   <g id="line2d_40">
    <path d="M 1.245626 298.944 
L 1.245626 286.8864 
L 21.912228 286.8864 
L 21.912228 286.177129 
L 27.323974 286.177129 
L 27.323974 285.467859 
L 34.951403 285.467859 
L 34.951403 285.113224 
L 37.851216 285.113224 
L 37.851216 284.758588 
L 40.363149 284.758588 
L 40.363149 284.403953 
L 50.890391 284.403953 
L 50.890391 283.694682 
L 53.402323 283.694682 
L 53.402323 283.340047 
L 54.542767 283.340047 
L 54.542767 282.630776 
L 56.635094 282.630776 
L 56.635094 282.276141 
L 59.392932 282.276141 
L 59.392932 281.212235 
L 63.245433 281.212235 
L 63.245433 280.8576 
L 67.581941 280.8576 
L 67.581941 280.148329 
L 74.456807 280.148329 
L 74.456807 279.793694 
L 74.836851 279.793694 
L 74.836851 279.084424 
L 75.574654 279.084424 
L 75.574654 278.729788 
L 76.284608 278.729788 
L 76.284608 278.375153 
L 76.96874 278.375153 
L 76.96874 278.020518 
L 78.266603 278.020518 
L 78.266603 277.665882 
L 79.184421 277.665882 
L 79.184421 277.311247 
L 85.471281 277.311247 
L 85.471281 276.956612 
L 85.683844 276.956612 
L 85.683844 276.247341 
L 86.911119 276.247341 
L 86.911119 275.892706 
L 87.495981 275.892706 
L 87.495981 275.538071 
L 87.686963 275.538071 
L 87.686963 274.8288 
L 90.175129 274.8288 
L 90.175129 274.474165 
L 92.073702 274.474165 
L 92.073702 274.119529 
L 92.666241 274.119529 
L 92.666241 273.764894 
L 94.865713 273.764894 
L 94.865713 273.410259 
L 95.123409 273.410259 
L 95.123409 273.055624 
L 96.83473 273.055624 
L 96.83473 272.700988 
L 97.968299 272.700988 
L 97.968299 272.346353 
L 99.448622 272.346353 
L 99.448622 271.991718 
L 100.049042 271.991718 
L 100.049042 271.637082 
L 101.009023 271.637082 
L 101.102381 270.927812 
L 101.195278 270.927812 
L 101.195278 270.573176 
L 101.922385 270.573176 
L 101.922385 270.218541 
L 102.275664 270.218541 
L 102.275664 269.863906 
L 102.878374 269.863906 
L 102.96292 269.154635 
L 103.130882 269.154635 
L 103.130882 268.8 
L 103.544339 268.8 
L 103.544339 268.445365 
L 103.707211 268.445365 
L 103.707211 268.090729 
L 105.559021 268.090729 
L 105.559021 267.381459 
L 105.922892 267.381459 
L 105.922892 267.026824 
L 106.066493 267.026824 
L 106.066493 266.672188 
L 106.279859 266.672188 
L 106.279859 266.317553 
L 106.42077 266.317553 
L 106.42077 265.962918 
L 106.837279 265.962918 
L 106.837279 265.608282 
L 107.042125 265.608282 
L 107.042125 265.253647 
L 107.177461 265.253647 
L 107.244765 264.544376 
L 107.774703 264.544376 
L 107.774703 264.189741 
L 107.969643 264.189741 
L 108.034177 263.480471 
L 108.162584 263.480471 
L 108.162584 263.125835 
L 108.976522 263.125835 
L 108.976522 262.416565 
L 110.106149 262.416565 
L 110.106149 262.061929 
L 110.618446 262.061929 
L 110.618446 261.707294 
L 111.062397 261.707294 
L 111.171767 260.998024 
L 111.280505 260.998024 
L 111.280505 260.643388 
L 111.86758 260.643388 
L 111.86758 260.288753 
L 112.076599 260.288753 
L 112.128493 259.579482 
L 112.589207 259.579482 
L 112.589207 259.224847 
L 112.740305 259.224847 
L 112.740305 258.870212 
L 112.939899 258.870212 
L 112.939899 258.515576 
L 113.088217 258.515576 
L 113.088217 258.160941 
L 113.284172 258.160941 
L 113.284172 257.806306 
L 113.717748 257.806306 
L 113.717748 257.451671 
L 113.860081 257.451671 
L 113.860081 257.097035 
L 114.001345 257.097035 
L 114.094935 256.387765 
L 114.141556 256.387765 
L 114.188061 255.678494 
L 114.556025 255.678494 
L 114.556025 255.323859 
L 114.872193 255.323859 
L 114.916929 254.614588 
L 115.183135 254.614588 
L 115.183135 254.259953 
L 115.314838 254.259953 
L 115.314838 253.905318 
L 115.532315 253.905318 
L 115.532315 253.550682 
L 116.253478 253.550682 
L 116.253478 253.196047 
L 116.583514 253.196047 
L 116.583514 252.841412 
L 116.827295 252.841412 
L 116.827295 252.486776 
L 117.305581 252.486776 
L 117.344894 251.422871 
L 117.462345 251.422871 
L 117.462345 251.068235 
L 118.038842 251.068235 
L 118.038842 250.7136 
L 118.189637 250.7136 
L 118.189637 250.358965 
L 118.413586 250.358965 
L 118.524569 249.295059 
L 118.561419 249.295059 
L 118.561419 248.940424 
L 118.708098 248.940424 
L 118.708098 248.231153 
L 119.212653 248.231153 
L 119.212653 247.876518 
L 119.773187 247.876518 
L 119.842094 247.167247 
L 120.182892 247.167247 
L 120.182892 246.812612 
L 120.384447 246.812612 
L 120.48442 246.103341 
L 120.64987 246.103341 
L 120.682786 245.394071 
L 121.297492 245.394071 
L 121.39274 244.6848 
L 121.455972 244.6848 
L 121.455972 244.330165 
L 121.581803 244.330165 
L 121.581803 243.975529 
L 121.8 243.975529 
L 121.892744 242.911624 
L 121.923558 242.911624 
L 122.015696 241.847718 
L 122.439807 241.847718 
L 122.499621 241.138447 
L 122.559246 241.138447 
L 122.588988 239.719906 
L 123.08753 239.719906 
L 123.116449 238.656 
L 123.260379 238.656 
L 123.260379 238.301365 
L 123.403216 238.301365 
L 123.403216 237.946729 
L 123.601383 237.946729 
L 123.601383 237.592094 
L 123.797484 237.592094 
L 123.825333 236.882824 
L 124.019125 236.882824 
L 124.101572 236.173553 
L 124.562065 236.173553 
L 124.642171 235.109647 
L 124.827769 235.109647 
L 124.933009 233.691106 
L 125.011554 233.691106 
L 125.011554 233.336471 
L 125.245241 233.336471 
L 125.245241 232.981835 
L 125.399435 232.981835 
L 125.399435 232.6272 
L 125.628382 232.6272 
L 125.653649 231.917929 
L 125.979073 231.917929 
L 126.078082 230.499388 
L 126.420564 230.499388 
L 126.420564 230.144753 
L 126.946461 230.144753 
L 126.946461 229.790118 
L 127.110755 229.790118 
L 127.157434 228.726212 
L 127.29678 228.726212 
L 127.389106 228.016941 
L 127.4351 228.016941 
L 127.526752 227.307671 
L 127.549596 227.307671 
L 127.549596 226.953035 
L 127.731351 226.953035 
L 127.731351 226.5984 
L 127.866525 226.5984 
L 127.866525 225.889129 
L 127.978432 225.889129 
L 128.067481 224.470588 
L 128.41952 224.470588 
L 128.41952 224.115953 
L 128.549855 224.115953 
L 128.549855 223.761318 
L 128.700779 223.761318 
L 128.743679 222.697412 
L 129.104431 222.697412 
L 129.104431 222.342776 
L 129.292652 222.342776 
L 129.396412 221.633506 
L 129.479009 221.633506 
L 129.479009 221.278871 
L 129.846275 221.278871 
L 129.86647 220.5696 
L 130.107132 220.5696 
L 130.186674 219.505694 
L 130.226319 219.505694 
L 130.226319 219.151059 
L 130.384069 219.151059 
L 130.481995 218.441788 
L 131.078016 218.441788 
L 131.078016 217.732518 
L 131.303758 217.732518 
L 131.341119 217.023247 
L 131.582177 217.023247 
L 131.582177 216.668612 
L 131.83837 216.668612 
L 131.83837 216.313976 
L 132.09112 216.313976 
L 132.09112 215.959341 
L 132.269599 215.959341 
L 132.358208 214.895435 
L 132.691164 214.895435 
L 132.691164 214.5408 
L 132.846847 214.5408 
L 132.932784 213.476894 
L 133.137444 213.476894 
L 133.137444 213.122259 
L 133.30631 213.122259 
L 133.406907 211.703718 
L 133.490329 211.703718 
L 133.490329 211.349082 
L 133.606501 211.349082 
L 133.639562 210.639812 
L 133.771227 210.639812 
L 133.853052 209.930541 
L 133.918257 209.930541 
L 133.934523 208.866635 
L 134.112526 208.866635 
L 134.14471 208.157365 
L 134.240933 208.157365 
L 134.240933 207.448094 
L 134.384351 207.448094 
L 134.384351 207.093459 
L 134.589598 207.093459 
L 134.589598 206.738824 
L 134.792631 206.738824 
L 134.808158 206.029553 
L 135.085483 206.029553 
L 135.116046 205.320282 
L 135.373847 205.320282 
L 135.478982 204.611012 
L 135.538796 204.611012 
L 135.538796 204.256376 
L 135.981441 204.256376 
L 136.025138 203.547106 
L 136.198918 203.547106 
L 136.198918 203.192471 
L 136.428155 203.192471 
L 136.499223 202.128565 
L 137.0583 202.128565 
L 137.0583 201.773929 
L 137.222833 201.773929 
L 137.304564 201.064659 
L 137.426497 201.064659 
L 137.534223 200.000753 
L 137.654681 200.000753 
L 137.694663 199.291482 
L 137.853747 199.291482 
L 137.932787 198.582212 
L 138.206842 198.582212 
L 138.232735 197.872941 
L 138.438609 197.872941 
L 138.438609 197.518306 
L 139.15425 197.518306 
L 139.166565 196.4544 
L 139.399036 196.4544 
L 139.508159 195.745129 
L 139.784187 195.745129 
L 139.891105 195.035859 
L 140.16161 195.035859 
L 140.243172 193.971953 
L 140.359078 193.971953 
L 140.462787 192.908047 
L 140.49723 192.908047 
L 140.600182 192.198776 
L 140.668505 192.198776 
L 140.713916 190.780235 
L 141.128852 190.780235 
L 141.217377 190.070965 
L 141.469591 190.070965 
L 141.469591 189.716329 
L 141.59985 189.716329 
L 141.59985 189.361694 
L 141.836341 189.361694 
L 141.836341 189.007059 
L 141.964094 189.007059 
L 142.048783 188.297788 
L 142.175106 188.297788 
L 142.175106 187.943153 
L 142.331827 187.943153 
L 142.41488 187.233882 
L 142.794303 187.233882 
L 142.844994 186.524612 
L 142.935896 186.524612 
L 142.935896 186.169976 
L 143.205995 186.169976 
L 143.205995 185.460706 
L 143.560197 185.460706 
L 143.657415 184.751435 
L 143.907854 184.751435 
L 143.946089 184.042165 
L 144.069818 184.042165 
L 144.069818 183.687529 
L 144.305496 183.687529 
L 144.305496 183.332894 
L 144.473374 183.332894 
L 144.501209 182.623624 
L 144.667357 182.623624 
L 144.667357 182.268988 
L 144.841158 182.268988 
L 144.841158 181.914353 
L 144.986282 181.914353 
L 144.995315 181.205082 
L 145.148219 181.205082 
L 145.201889 180.495812 
L 145.503164 180.495812 
L 145.608355 179.431906 
L 145.712961 179.431906 
L 145.808341 178.368 
L 146.108646 178.368 
L 146.108646 178.013365 
L 146.612557 178.013365 
L 146.612557 177.658729 
L 146.777571 177.658729 
L 146.777571 177.304094 
L 147.030517 177.304094 
L 147.030517 176.949459 
L 147.1517 176.949459 
L 147.248088 175.530918 
L 147.280107 175.530918 
L 147.280107 175.176282 
L 147.526429 175.176282 
L 147.526429 174.821647 
L 147.644469 174.821647 
L 147.644469 174.467012 
L 147.761772 174.467012 
L 147.761772 174.112376 
L 148.055709 174.112376 
L 148.139946 173.403106 
L 148.299721 173.403106 
L 148.299721 173.048471 
L 148.555562 173.048471 
L 148.555562 172.693835 
L 148.704447 172.693835 
L 148.77845 171.629929 
L 149.064312 171.629929 
L 149.064312 171.275294 
L 149.20924 171.275294 
L 149.31003 169.856753 
L 149.324384 169.856753 
L 149.417422 169.147482 
L 149.868865 169.147482 
L 149.868865 168.792847 
L 150.179921 168.792847 
L 150.179921 168.438212 
L 150.316534 168.438212 
L 150.377688 167.728941 
L 150.458918 167.728941 
L 150.458918 167.374306 
L 150.640414 167.374306 
L 150.713857 166.3104 
L 150.899521 166.3104 
L 150.952233 165.246494 
L 151.509749 165.246494 
L 151.554409 164.537224 
L 151.801309 164.537224 
L 151.895414 163.473318 
L 152.020159 163.473318 
L 152.051217 162.409412 
L 152.242637 162.409412 
L 152.310095 161.700141 
L 152.462515 161.700141 
L 152.462515 161.345506 
L 152.715833 161.345506 
L 152.733797 160.636235 
L 152.859068 160.636235 
L 152.912502 159.926965 
L 153.177416 159.926965 
L 153.177416 159.572329 
L 153.513449 159.572329 
L 153.530668 158.508424 
L 153.690622 158.508424 
L 153.713361 157.799153 
L 153.944874 157.799153 
L 153.972913 157.089882 
L 154.079083 157.089882 
L 154.079083 156.735247 
L 154.239985 156.735247 
L 154.239985 156.380612 
L 154.497869 156.380612 
L 154.590283 155.671341 
L 154.719981 155.671341 
L 154.784496 154.962071 
L 154.832738 154.962071 
L 154.832738 154.607435 
L 155.140696 154.607435 
L 155.24573 153.898165 
L 155.355388 153.898165 
L 155.448875 153.188894 
L 155.567658 153.188894 
L 155.654974 152.479624 
L 156.030406 152.479624 
L 156.130601 151.061082 
L 156.225294 151.061082 
L 156.255099 150.351812 
L 156.34423 150.351812 
L 156.34423 149.997176 
L 156.53591 149.997176 
L 156.53591 149.642541 
L 156.870325 149.642541 
L 156.961376 148.578635 
L 157.165825 148.578635 
L 157.165825 148.224 
L 157.288377 148.224 
L 157.354037 147.514729 
L 157.503261 147.514729 
L 157.605171 146.450824 
L 157.651312 146.450824 
L 157.752425 145.386918 
L 157.889436 145.386918 
L 157.980225 144.677647 
L 158.25892 144.677647 
L 158.25892 144.323012 
L 158.387873 144.323012 
L 158.387873 143.968376 
L 158.537943 143.968376 
L 158.59939 143.259106 
L 158.976805 143.259106 
L 159.079601 141.485929 
L 159.096679 141.485929 
L 159.130788 140.776659 
L 159.228511 140.776659 
L 159.236985 140.067388 
L 159.359426 140.067388 
L 159.359426 139.712753 
L 159.643442 139.712753 
L 159.660016 139.003482 
L 159.80442 139.003482 
L 159.910978 137.584941 
L 160.174762 137.584941 
L 160.251175 136.521035 
L 160.434898 136.521035 
L 160.474602 135.811765 
L 160.549809 135.811765 
L 160.601093 134.747859 
L 160.675797 134.747859 
L 160.71108 134.038588 
L 161.021829 134.038588 
L 161.060314 132.974682 
L 161.144705 132.974682 
L 161.22872 132.265412 
L 161.388076 132.265412 
L 161.463488 131.556141 
L 161.587261 131.556141 
L 161.658157 130.1376 
L 161.713939 130.1376 
L 161.765853 129.428329 
L 161.942766 129.428329 
L 162.04885 128.364424 
L 162.147083 128.364424 
L 162.255632 127.655153 
L 162.395816 127.655153 
L 162.395816 127.300518 
L 162.552729 127.300518 
L 162.552729 126.945882 
L 162.711865 126.945882 
L 162.711865 126.591247 
L 162.855693 126.591247 
L 162.942856 125.527341 
L 163.001897 125.527341 
L 163.040002 124.818071 
L 163.133205 124.818071 
L 163.205379 124.1088 
L 163.246497 124.1088 
L 163.342092 123.399529 
L 163.362513 123.399529 
L 163.382912 122.335624 
L 163.504846 122.335624 
L 163.609214 121.271718 
L 163.622639 121.271718 
L 163.676243 120.562447 
L 163.852722 120.562447 
L 163.856036 119.498541 
L 164.268989 119.498541 
L 164.372439 118.08 
L 164.391772 118.08 
L 164.484939 117.016094 
L 164.714273 117.016094 
L 164.768016 115.952188 
L 164.962728 115.952188 
L 164.968976 115.242918 
L 165.1028 115.242918 
L 165.1028 114.888282 
L 165.217194 114.888282 
L 165.217194 114.533647 
L 165.35845 114.533647 
L 165.446961 113.115106 
L 165.492579 113.115106 
L 165.574415 112.0512 
L 165.607653 112.0512 
L 165.679971 110.632659 
L 165.740024 110.632659 
L 165.740024 110.278024 
L 165.92201 110.278024 
L 165.92201 109.923388 
L 166.184412 109.923388 
L 166.219513 109.214118 
L 166.365069 109.214118 
L 166.365069 108.859482 
L 166.503751 108.859482 
L 166.609959 107.086306 
L 166.763896 107.086306 
L 166.857352 106.0224 
L 166.925029 106.0224 
L 166.939098 105.313129 
L 167.037287 105.313129 
L 167.126614 104.249224 
L 167.23491 104.249224 
L 167.281921 103.185318 
L 167.353595 103.185318 
L 167.460596 101.766776 
L 167.716022 101.766776 
L 167.807563 100.702871 
L 167.837083 100.702871 
L 167.944044 98.575059 
L 168.002613 98.575059 
L 168.002613 98.220424 
L 168.337202 98.220424 
L 168.420577 96.801882 
L 168.52945 96.801882 
L 168.578496 95.028706 
L 168.681333 95.028706 
L 168.681333 94.674071 
L 168.847255 94.674071 
L 168.867575 93.9648 
L 168.994082 93.9648 
L 169.049477 92.900894 
L 169.112228 92.900894 
L 169.117239 91.836988 
L 169.244573 91.836988 
L 169.279377 91.127718 
L 169.37105 91.127718 
L 169.459819 90.063812 
L 169.548171 90.063812 
L 169.567748 88.999906 
L 169.699366 88.999906 
L 169.718787 88.290635 
L 169.825245 88.290635 
L 169.921505 87.226729 
L 169.952684 87.226729 
L 169.952684 86.872094 
L 170.09592 86.872094 
L 170.114936 86.162824 
L 170.266375 86.162824 
L 170.282865 85.453553 
L 170.423618 85.453553 
L 170.498258 83.680376 
L 170.549402 83.680376 
L 170.549402 83.325741 
L 170.780136 83.325741 
L 170.816793 82.616471 
L 170.942257 82.616471 
L 171.046551 81.9072 
L 171.172743 81.9072 
L 171.172743 81.552565 
L 171.286936 81.552565 
L 171.358235 80.488659 
L 171.435909 80.488659 
L 171.449192 79.779388 
L 171.552922 79.779388 
L 171.638564 79.070118 
L 171.73472 79.070118 
L 171.82388 78.006212 
L 171.856394 78.006212 
L 171.921254 77.296941 
L 172.105956 77.296941 
L 172.11023 76.233035 
L 172.310016 76.233035 
L 172.333257 75.523765 
L 172.449034 75.523765 
L 172.465815 74.814494 
L 172.601609 74.814494 
L 172.659804 73.395953 
L 172.767405 73.395953 
L 172.806568 72.332047 
L 172.905144 72.332047 
L 172.905144 71.977412 
L 173.072359 71.977412 
L 173.092649 71.268141 
L 173.213936 71.268141 
L 173.258213 69.8496 
L 173.394413 69.8496 
L 173.422332 69.140329 
L 173.557354 69.140329 
L 173.628445 68.076424 
L 173.689448 68.076424 
L 173.763957 67.367153 
L 173.869333 67.367153 
L 173.974123 65.593976 
L 174.020509 65.593976 
L 174.118701 64.530071 
L 174.168564 64.530071 
L 174.208741 63.466165 
L 174.391324 63.466165 
L 174.500781 61.338353 
L 174.532743 61.338353 
L 174.5759 60.274447 
L 174.682428 60.274447 
L 174.682428 59.919812 
L 174.817984 59.919812 
L 174.860492 58.855906 
L 174.936029 58.855906 
L 174.996608 58.146635 
L 175.047856 58.146635 
L 175.146298 56.018824 
L 175.209829 56.018824 
L 175.287589 54.600282 
L 175.415284 54.600282 
L 175.415284 54.245647 
L 175.534995 54.245647 
L 175.618519 52.472471 
L 175.646869 52.472471 
L 175.743995 51.408565 
L 175.800275 51.408565 
L 175.856387 50.344659 
L 175.945471 50.344659 
L 175.945471 49.990024 
L 176.134464 49.990024 
L 176.191309 48.926118 
L 176.26855 48.926118 
L 176.328408 47.507576 
L 176.483152 47.507576 
L 176.565952 46.089035 
L 176.616467 46.089035 
L 176.712072 45.025129 
L 176.752182 45.025129 
L 176.817178 44.315859 
L 176.891897 44.315859 
L 176.986116 42.897318 
L 177.025646 42.897318 
L 177.068378 42.188047 
L 177.163352 42.188047 
L 177.269223 41.124141 
L 177.290326 41.124141 
L 177.316266 40.414871 
L 177.406777 40.414871 
L 177.490434 39.7056 
L 177.552933 39.7056 
L 177.578514 38.996329 
L 177.683669 38.996329 
L 177.770852 36.868518 
L 177.808769 36.868518 
L 177.808769 36.513882 
L 178.02532 36.513882 
L 178.13422 35.449976 
L 178.143525 35.449976 
L 178.188434 34.740706 
L 178.294858 34.740706 
L 178.36241 32.967529 
L 178.455661 32.967529 
L 178.463284 32.258259 
L 178.704102 32.258259 
L 178.812146 30.485082 
L 178.833082 30.485082 
L 178.833082 30.130447 
L 178.9597 30.130447 
L 178.999742 29.421176 
L 179.223586 29.421176 
L 179.23822 28.711906 
L 179.370866 28.711906 
L 179.370866 28.357271 
L 179.515559 28.357271 
L 179.515559 28.002635 
L 180.154645 28.002635 
L 180.154645 27.648 
L 360.8064 27.648 
L 360.8064 27.648 
" style="fill: none; stroke: #ff00ff; stroke-width: 1.5; stroke-linecap: square"/>
   </g>
   <g id="line2d_41">
    <defs>
     <path id="md265f5f653" d="M -0 8.485281 
L 5.091169 0 
L 0 -8.485281 
L -5.091169 -0 
z
" style="stroke: #ff00ff; stroke-width: 1.5; stroke-linejoin: miter"/>
    </defs>
    <g>
     <use xlink:href="#md265f5f653" x="128.045258" y="225.179859" style="fill-opacity: 0; stroke: #ff00ff; stroke-width: 1.5; stroke-linejoin: miter"/>
     <use xlink:href="#md265f5f653" x="166.857352" y="106.377035" style="fill-opacity: 0; stroke: #ff00ff; stroke-width: 1.5; stroke-linejoin: miter"/>
     <use xlink:href="#md265f5f653" x="180.154645" y="28.002635" style="fill-opacity: 0; stroke: #ff00ff; stroke-width: 1.5; stroke-linejoin: miter"/>
     <use xlink:href="#md265f5f653" x="180.154645" y="27.648" style="fill-opacity: 0; stroke: #ff00ff; stroke-width: 1.5; stroke-linejoin: miter"/>
     <use xlink:href="#md265f5f653" x="180.154645" y="27.648" style="fill-opacity: 0; stroke: #ff00ff; stroke-width: 1.5; stroke-linejoin: miter"/>
     <use xlink:href="#md265f5f653" x="360.8064" y="27.648" style="fill-opacity: 0; stroke: #ff00ff; stroke-width: 1.5; stroke-linejoin: miter"/>
    </g>
   </g>
   <g id="line2d_42">
    <path style="fill: none; stroke: #ff00ff; stroke-width: 1.5; stroke-linecap: square"/>
    <g/>
   </g>
   <g id="line2d_43">
    <path d="M 360.8064 27.648 
L 380.514816 293.51808 
" style="fill: none; stroke: #000080; stroke-width: 1.5; stroke-linecap: square"/>
    <g>
     <use xlink:href="#m7fa2f6b57d" x="360.8064" y="27.648" style="fill-opacity: 0; stroke: #000080; stroke-width: 1.5"/>
     <use xlink:href="#m7fa2f6b57d" x="380.514816" y="293.51808" style="fill-opacity: 0; stroke: #000080; stroke-width: 1.5"/>
    </g>
   </g>
   <g id="line2d_44">
    <path d="M 360.8064 27.648 
L 380.514816 33.07392 
" style="fill: none; stroke: #ff00ff; stroke-width: 1.5; stroke-linecap: square"/>
    <g>
     <use xlink:href="#md265f5f653" x="360.8064" y="27.648" style="fill-opacity: 0; stroke: #ff00ff; stroke-width: 1.5; stroke-linejoin: miter"/>
     <use xlink:href="#md265f5f653" x="380.514816" y="33.07392" style="fill-opacity: 0; stroke: #ff00ff; stroke-width: 1.5; stroke-linejoin: miter"/>
    </g>
   </g>
   <g id="line2d_45">
    <path d="M 360.8064 298.944 
L 360.8064 27.648 
" style="fill: none; stroke: #000000; stroke-width: 1.5; stroke-linecap: square"/>
   </g>
   <g id="patch_3">
    <path d="M 57.6 298.944 
L 360.8064 298.944 
" style="fill: none; stroke: #000000; stroke-width: 0.8; stroke-linejoin: miter; stroke-linecap: square"/>
   </g>
   <g id="patch_4">
    <path d="M 57.6 27.648 
L 360.8064 27.648 
" style="fill: none; stroke: #000000; stroke-width: 0.8; stroke-linejoin: miter; stroke-linecap: square"/>
   </g>
   <g id="text_13">
    <!-- ex -->
    <g transform="translate(386.578944 297.381205)scale(0.14 -0.14)">
     <defs>
      <path id="DejaVuSans-78" d="M 3513 3500 
L 2247 1797 
L 3578 0 
L 2900 0 
L 1881 1375 
L 863 0 
L 184 0 
L 1544 1831 
L 300 3500 
L 978 3500 
L 1906 2253 
L 2834 3500 
L 3513 3500 
z
" transform="scale(0.015625)"/>
     </defs>
     <use xlink:href="#DejaVuSans-65"/>
     <use xlink:href="#DejaVuSans-78" x="59.773438"/>
    </g>
   </g>
   <g id="text_14">
    <!-- best 2009 -->
    <g transform="translate(386.578944 167.159125)scale(0.14 -0.14)">
     <defs>
      <path id="DejaVuSans-62" d="M 3116 1747 
Q 3116 2381 2855 2742 
Q 2594 3103 2138 3103 
Q 1681 3103 1420 2742 
Q 1159 2381 1159 1747 
Q 1159 1113 1420 752 
Q 1681 391 2138 391 
Q 2594 391 2855 752 
Q 3116 1113 3116 1747 
z
M 1159 2969 
Q 1341 3281 1617 3432 
Q 1894 3584 2278 3584 
Q 2916 3584 3314 3078 
Q 3713 2572 3713 1747 
Q 3713 922 3314 415 
Q 2916 -91 2278 -91 
Q 1894 -91 1617 61 
Q 1341 213 1159 525 
L 1159 0 
L 581 0 
L 581 4863 
L 1159 4863 
L 1159 2969 
z
" transform="scale(0.015625)"/>
      <path id="DejaVuSans-39" d="M 703 97 
L 703 672 
Q 941 559 1184 500 
Q 1428 441 1663 441 
Q 2288 441 2617 861 
Q 2947 1281 2994 2138 
Q 2813 1869 2534 1725 
Q 2256 1581 1919 1581 
Q 1219 1581 811 2004 
Q 403 2428 403 3163 
Q 403 3881 828 4315 
Q 1253 4750 1959 4750 
Q 2769 4750 3195 4129 
Q 3622 3509 3622 2328 
Q 3622 1225 3098 567 
Q 2575 -91 1691 -91 
Q 1453 -91 1209 -44 
Q 966 3 703 97 
z
M 1959 2075 
Q 2384 2075 2632 2365 
Q 2881 2656 2881 3163 
Q 2881 3666 2632 3958 
Q 2384 4250 1959 4250 
Q 1534 4250 1286 3958 
Q 1038 3666 1038 3163 
Q 1038 2656 1286 2365 
Q 1534 2075 1959 2075 
z
" transform="scale(0.015625)"/>
     </defs>
     <use xlink:href="#DejaVuSans-62"/>
     <use xlink:href="#DejaVuSans-65" x="63.476562"/>
     <use xlink:href="#DejaVuSans-73" x="125"/>
     <use xlink:href="#DejaVuSans-74" x="177.099609"/>
     <use xlink:href="#DejaVuSans-20" x="216.308594"/>
     <use xlink:href="#DejaVuSans-32" x="248.095703"/>
     <use xlink:href="#DejaVuSans-30" x="311.71875"/>
     <use xlink:href="#DejaVuSans-30" x="375.341797"/>
     <use xlink:href="#DejaVuSans-39" x="438.964844"/>
    </g>
   </g>
   <g id="text_15">
    <!-- CMA-ES-20 -->
    <g transform="translate(386.578944 36.937045)scale(0.14 -0.14)">
     <defs>
      <path id="DejaVuSans-43" d="M 4122 4306 
L 4122 3641 
Q 3803 3938 3442 4084 
Q 3081 4231 2675 4231 
Q 1875 4231 1450 3742 
Q 1025 3253 1025 2328 
Q 1025 1406 1450 917 
Q 1875 428 2675 428 
Q 3081 428 3442 575 
Q 3803 722 4122 1019 
L 4122 359 
Q 3791 134 3420 21 
Q 3050 -91 2638 -91 
Q 1578 -91 968 557 
Q 359 1206 359 2328 
Q 359 3453 968 4101 
Q 1578 4750 2638 4750 
Q 3056 4750 3426 4639 
Q 3797 4528 4122 4306 
z
" transform="scale(0.015625)"/>
      <path id="DejaVuSans-4d" d="M 628 4666 
L 1569 4666 
L 2759 1491 
L 3956 4666 
L 4897 4666 
L 4897 0 
L 4281 0 
L 4281 4097 
L 3078 897 
L 2444 897 
L 1241 4097 
L 1241 0 
L 628 0 
L 628 4666 
z
" transform="scale(0.015625)"/>
      <path id="DejaVuSans-41" d="M 2188 4044 
L 1331 1722 
L 3047 1722 
L 2188 4044 
z
M 1831 4666 
L 2547 4666 
L 4325 0 
L 3669 0 
L 3244 1197 
L 1141 1197 
L 716 0 
L 50 0 
L 1831 4666 
z
" transform="scale(0.015625)"/>
      <path id="DejaVuSans-45" d="M 628 4666 
L 3578 4666 
L 3578 4134 
L 1259 4134 
L 1259 2753 
L 3481 2753 
L 3481 2222 
L 1259 2222 
L 1259 531 
L 3634 531 
L 3634 0 
L 628 0 
L 628 4666 
z
" transform="scale(0.015625)"/>
      <path id="DejaVuSans-53" d="M 3425 4513 
L 3425 3897 
Q 3066 4069 2747 4153 
Q 2428 4238 2131 4238 
Q 1616 4238 1336 4038 
Q 1056 3838 1056 3469 
Q 1056 3159 1242 3001 
Q 1428 2844 1947 2747 
L 2328 2669 
Q 3034 2534 3370 2195 
Q 3706 1856 3706 1288 
Q 3706 609 3251 259 
Q 2797 -91 1919 -91 
Q 1588 -91 1214 -16 
Q 841 59 441 206 
L 441 856 
Q 825 641 1194 531 
Q 1563 422 1919 422 
Q 2459 422 2753 634 
Q 3047 847 3047 1241 
Q 3047 1584 2836 1778 
Q 2625 1972 2144 2069 
L 1759 2144 
Q 1053 2284 737 2584 
Q 422 2884 422 3419 
Q 422 4038 858 4394 
Q 1294 4750 2059 4750 
Q 2388 4750 2728 4690 
Q 3069 4631 3425 4513 
z
" transform="scale(0.015625)"/>
     </defs>
     <use xlink:href="#DejaVuSans-43"/>
     <use xlink:href="#DejaVuSans-4d" x="69.824219"/>
     <use xlink:href="#DejaVuSans-41" x="156.103516"/>
     <use xlink:href="#DejaVuSans-2d" x="222.261719"/>
     <use xlink:href="#DejaVuSans-45" x="258.345703"/>
     <use xlink:href="#DejaVuSans-53" x="321.529297"/>
     <use xlink:href="#DejaVuSans-2d" x="385.005859"/>
     <use xlink:href="#DejaVuSans-32" x="421.089844"/>
     <use xlink:href="#DejaVuSans-30" x="484.712891"/>
    </g>
   </g>
   <g id="text_16">
    <!-- bbob f14, 20-D -->
    <g transform="translate(60.632064 38.111366)scale(0.102 -0.102)">
     <defs>
      <path id="DejaVuSans-44" d="M 1259 4147 
L 1259 519 
L 2022 519 
Q 2988 519 3436 956 
Q 3884 1394 3884 2338 
Q 3884 3275 3436 3711 
Q 2988 4147 2022 4147 
L 1259 4147 
z
M 628 4666 
L 1925 4666 
Q 3281 4666 3915 4102 
Q 4550 3538 4550 2338 
Q 4550 1131 3912 565 
Q 3275 0 1925 0 
L 628 0 
L 628 4666 
z
" transform="scale(0.015625)"/>
     </defs>
     <use xlink:href="#DejaVuSans-62"/>
     <use xlink:href="#DejaVuSans-62" x="63.476562"/>
     <use xlink:href="#DejaVuSans-6f" x="126.953125"/>
     <use xlink:href="#DejaVuSans-62" x="188.134766"/>
     <use xlink:href="#DejaVuSans-20" x="251.611328"/>
     <use xlink:href="#DejaVuSans-66" x="283.398438"/>
     <use xlink:href="#DejaVuSans-31" x="318.603516"/>
     <use xlink:href="#DejaVuSans-34" x="382.226562"/>
     <use xlink:href="#DejaVuSans-2c" x="445.849609"/>
     <use xlink:href="#DejaVuSans-20" x="477.636719"/>
     <use xlink:href="#DejaVuSans-32" x="509.423828"/>
     <use xlink:href="#DejaVuSans-30" x="573.046875"/>
     <use xlink:href="#DejaVuSans-2d" x="636.669922"/>
     <use xlink:href="#DejaVuSans-44" x="672.753906"/>
    </g>
    <!-- 51 targets: 100..1e-08 -->
    <g transform="translate(60.632064 49.533135)scale(0.102 -0.102)">
     <defs>
      <path id="DejaVuSans-35" d="M 691 4666 
L 3169 4666 
L 3169 4134 
L 1269 4134 
L 1269 2991 
Q 1406 3038 1543 3061 
Q 1681 3084 1819 3084 
Q 2600 3084 3056 2656 
Q 3513 2228 3513 1497 
Q 3513 744 3044 326 
Q 2575 -91 1722 -91 
Q 1428 -91 1123 -41 
Q 819 9 494 109 
L 494 744 
Q 775 591 1075 516 
Q 1375 441 1709 441 
Q 2250 441 2565 725 
Q 2881 1009 2881 1497 
Q 2881 1984 2565 2268 
Q 2250 2553 1709 2553 
Q 1456 2553 1204 2497 
Q 953 2441 691 2322 
L 691 4666 
z
" transform="scale(0.015625)"/>
      <path id="DejaVuSans-3a" d="M 750 794 
L 1409 794 
L 1409 0 
L 750 0 
L 750 794 
z
M 750 3309 
L 1409 3309 
L 1409 2516 
L 750 2516 
L 750 3309 
z
" transform="scale(0.015625)"/>
     </defs>
     <use xlink:href="#DejaVuSans-35"/>
     <use xlink:href="#DejaVuSans-31" x="63.623047"/>
     <use xlink:href="#DejaVuSans-20" x="127.246094"/>
     <use xlink:href="#DejaVuSans-74" x="159.033203"/>
     <use xlink:href="#DejaVuSans-61" x="198.242188"/>
     <use xlink:href="#DejaVuSans-72" x="259.521484"/>
     <use xlink:href="#DejaVuSans-67" x="298.884766"/>
     <use xlink:href="#DejaVuSans-65" x="362.361328"/>
     <use xlink:href="#DejaVuSans-74" x="423.884766"/>
     <use xlink:href="#DejaVuSans-73" x="463.09375"/>
     <use xlink:href="#DejaVuSans-3a" x="515.193359"/>
     <use xlink:href="#DejaVuSans-20" x="548.884766"/>
     <use xlink:href="#DejaVuSans-31" x="580.671875"/>
     <use xlink:href="#DejaVuSans-30" x="644.294922"/>
     <use xlink:href="#DejaVuSans-30" x="707.917969"/>
     <use xlink:href="#DejaVuSans-2e" x="771.541016"/>
     <use xlink:href="#DejaVuSans-2e" x="803.328125"/>
     <use xlink:href="#DejaVuSans-31" x="835.115234"/>
     <use xlink:href="#DejaVuSans-65" x="898.738281"/>
     <use xlink:href="#DejaVuSans-2d" x="960.261719"/>
     <use xlink:href="#DejaVuSans-30" x="996.345703"/>
     <use xlink:href="#DejaVuSans-38" x="1059.96875"/>
    </g>
    <!-- 25, 15 instances -->
    <g transform="translate(60.632064 60.954904)scale(0.102 -0.102)">
     <use xlink:href="#DejaVuSans-32"/>
     <use xlink:href="#DejaVuSans-35" x="63.623047"/>
     <use xlink:href="#DejaVuSans-2c" x="127.246094"/>
     <use xlink:href="#DejaVuSans-20" x="159.033203"/>
     <use xlink:href="#DejaVuSans-31" x="190.820312"/>
     <use xlink:href="#DejaVuSans-35" x="254.443359"/>
     <use xlink:href="#DejaVuSans-20" x="318.066406"/>
     <use xlink:href="#DejaVuSans-69" x="349.853516"/>
     <use xlink:href="#DejaVuSans-6e" x="377.636719"/>
     <use xlink:href="#DejaVuSans-73" x="441.015625"/>
     <use xlink:href="#DejaVuSans-74" x="493.115234"/>
     <use xlink:href="#DejaVuSans-61" x="532.324219"/>
     <use xlink:href="#DejaVuSans-6e" x="593.603516"/>
     <use xlink:href="#DejaVuSans-63" x="656.982422"/>
     <use xlink:href="#DejaVuSans-65" x="711.962891"/>
     <use xlink:href="#DejaVuSans-73" x="773.486328"/>
    </g>
   </g>
   <g id="text_17">
    <!-- v2.6 -->
    <g style="fill: #808080" transform="translate(198.292262 294.151352)scale(0.1 -0.1)">
     <use xlink:href="#DejaVuSans-76"/>
     <use xlink:href="#DejaVuSans-32" x="59.179688"/>
     <use xlink:href="#DejaVuSans-2e" x="122.802734"/>
     <use xlink:href="#DejaVuSans-36" x="154.589844"/>
    </g>
   </g>
   <g id="text_18">
    <!-- 14 Sum of different powers -->
    <g transform="translate(72.964137 21.648)scale(0.2 -0.2)">
     <defs>
      <path id="DejaVuSans-77" d="M 269 3500 
L 844 3500 
L 1563 769 
L 2278 3500 
L 2956 3500 
L 3675 769 
L 4391 3500 
L 4966 3500 
L 4050 0 
L 3372 0 
L 2619 2869 
L 1863 0 
L 1184 0 
L 269 3500 
z
" transform="scale(0.015625)"/>
     </defs>
     <use xlink:href="#DejaVuSans-31"/>
     <use xlink:href="#DejaVuSans-34" x="63.623047"/>
     <use xlink:href="#DejaVuSans-20" x="127.246094"/>
     <use xlink:href="#DejaVuSans-53" x="159.033203"/>
     <use xlink:href="#DejaVuSans-75" x="222.509766"/>
     <use xlink:href="#DejaVuSans-6d" x="285.888672"/>
     <use xlink:href="#DejaVuSans-20" x="383.300781"/>
     <use xlink:href="#DejaVuSans-6f" x="415.087891"/>
     <use xlink:href="#DejaVuSans-66" x="476.269531"/>
     <use xlink:href="#DejaVuSans-20" x="511.474609"/>
     <use xlink:href="#DejaVuSans-64" x="543.261719"/>
     <use xlink:href="#DejaVuSans-69" x="606.738281"/>
     <use xlink:href="#DejaVuSans-66" x="634.521484"/>
     <use xlink:href="#DejaVuSans-66" x="669.726562"/>
     <use xlink:href="#DejaVuSans-65" x="704.931641"/>
     <use xlink:href="#DejaVuSans-72" x="766.455078"/>
     <use xlink:href="#DejaVuSans-65" x="805.318359"/>
     <use xlink:href="#DejaVuSans-6e" x="866.841797"/>
     <use xlink:href="#DejaVuSans-74" x="930.220703"/>
     <use xlink:href="#DejaVuSans-20" x="969.429688"/>
     <use xlink:href="#DejaVuSans-70" x="1001.216797"/>
     <use xlink:href="#DejaVuSans-6f" x="1064.693359"/>
     <use xlink:href="#DejaVuSans-77" x="1125.875"/>
     <use xlink:href="#DejaVuSans-65" x="1207.662109"/>
     <use xlink:href="#DejaVuSans-72" x="1269.185547"/>
     <use xlink:href="#DejaVuSans-73" x="1310.298828"/>
    </g>
   </g>
  </g>
 </g>
 <defs>
  <clipPath id="pb45afa2f4f">
   <rect x="57.6" y="27.648" width="303.2064" height="271.296"/>
  </clipPath>
 </defs>
</svg>
