<?xml version="1.0" encoding="utf-8" standalone="no"?>
<!DOCTYPE svg PUBLIC "-//W3C//DTD SVG 1.1//EN"
  "http://www.w3.org/Graphics/SVG/1.1/DTD/svg11.dtd">
<svg xmlns:xlink="http://www.w3.org/1999/xlink" width="460.8pt" height="345.6pt" viewBox="0 0 460.8 345.6" xmlns="http://www.w3.org/2000/svg" version="1.1">
 <metadata>
  <rdf:RDF xmlns:dc="http://purl.org/dc/elements/1.1/" xmlns:cc="http://creativecommons.org/ns#" xmlns:rdf="http://www.w3.org/1999/02/22-rdf-syntax-ns#">
   <cc:Work>
    <dc:type rdf:resource="http://purl.org/dc/dcmitype/StillImage"/>
    <dc:date>2022-03-16T23:35:34.447703</dc:date>
    <dc:format>image/svg+xml</dc:format>
    <dc:creator>
     <cc:Agent>
      <dc:title>Matplotlib v3.5.1, https://matplotlib.org/</dc:title>
     </cc:Agent>
    </dc:creator>
   </cc:Work>
  </rdf:RDF>
 </metadata>
 <defs>
  <style type="text/css">*{stroke-linejoin: round; stroke-linecap: butt}</style>
 </defs>
 <g id="figure_1">
  <g id="patch_1">
   <path d="M 0 345.6 
L 460.8 345.6 
L 460.8 0 
L 0 0 
z
" style="fill: #ffffff"/>
  </g>
  <g id="axes_1">
   <g id="patch_2">
    <path d="M 57.6 298.944 
L 360.8064 298.944 
L 360.8064 27.648 
L 57.6 27.648 
z
" style="fill: #ffffff"/>
   </g>
   <g id="line2d_1">
    <path d="M 14.2848 298.944 
L 14.2848 277.665882 
L 27.323974 277.665882 
L 27.323974 272.346353 
L 34.951403 272.346353 
L 34.951403 267.026824 
L 57.6 267.026824 
L 57.6 261.707294 
L 91.922605 261.707294 
L 91.922605 256.387765 
L 109.990385 256.387765 
L 109.990385 251.068235 
L 124.101572 251.068235 
L 124.101572 245.748706 
L 142.559347 245.748706 
L 142.559347 240.429176 
L 150.000827 240.429176 
L 150.000827 235.109647 
L 167.240447 235.109647 
L 167.240447 229.790118 
L 193.521154 229.790118 
L 193.521154 224.470588 
L 195.092594 224.470588 
L 195.092594 219.151059 
L 196.880259 219.151059 
L 196.880259 213.831529 
L 211.159254 213.831529 
L 211.159254 208.512 
L 217.792633 208.512 
L 217.792633 203.192471 
L 222.717414 203.192471 
L 222.717414 197.872941 
L 227.409742 197.872941 
L 227.409742 192.553412 
L 242.320904 192.553412 
L 242.320904 187.233882 
L 242.40195 187.233882 
L 242.40195 181.914353 
L 244.020452 181.914353 
L 244.020452 176.594824 
L 244.073927 176.594824 
L 244.073927 171.275294 
L 244.141556 171.275294 
L 244.141556 165.955765 
L 244.226699 165.955765 
L 244.226699 160.636235 
L 244.291203 160.636235 
L 244.291203 155.316706 
L 244.344006 155.316706 
L 244.344006 149.997176 
L 244.397487 149.997176 
L 244.397487 144.677647 
L 244.441953 144.677647 
L 244.441953 139.358118 
L 244.493607 139.358118 
L 244.493607 134.038588 
L 244.544665 134.038588 
L 244.544665 128.719059 
L 244.586881 128.719059 
L 244.586881 123.399529 
L 244.631807 123.399529 
L 244.631807 118.08 
L 244.672745 118.08 
L 244.672745 112.760471 
L 244.721699 112.760471 
L 244.721699 107.440941 
L 244.779055 107.440941 
L 244.779055 102.121412 
L 244.817704 102.121412 
L 244.817704 96.801882 
L 244.849656 96.801882 
L 244.849656 91.482353 
L 244.892622 91.482353 
L 244.892622 86.162824 
L 244.940118 86.162824 
L 244.940118 80.843294 
L 244.975328 80.843294 
L 244.975328 75.523765 
L 245.015437 75.523765 
L 245.015437 70.204235 
L 245.054488 70.204235 
L 245.054488 64.884706 
L 245.093546 64.884706 
L 245.093546 59.565176 
L 245.129704 59.565176 
L 245.129704 54.245647 
L 245.177924 54.245647 
L 245.177924 48.926118 
L 245.235924 48.926118 
L 245.235924 43.606588 
L 245.289552 43.606588 
L 245.289552 38.287059 
L 245.33841 38.287059 
L 245.33841 32.967529 
L 245.379232 32.967529 
L 245.379232 27.648 
L 360.8064 27.648 
" style="fill: none; stroke: #f5deb3; stroke-width: 4; stroke-linecap: square"/>
   </g>
   <g id="line2d_2">
    <defs>
     <path id="mdf4ab1af92" d="M -0 7.778175 
L 7.778175 0 
L 0 -7.778175 
L -7.778175 -0 
z
" style="stroke: #f5deb3; stroke-width: 1.5; stroke-linejoin: miter"/>
    </defs>
    <g>
     <use xlink:href="#mdf4ab1af92" x="109.990385" y="256.387765" style="fill: #f5deb3; stroke: #f5deb3; stroke-width: 1.5; stroke-linejoin: miter"/>
     <use xlink:href="#mdf4ab1af92" x="211.159254" y="208.512" style="fill: #f5deb3; stroke: #f5deb3; stroke-width: 1.5; stroke-linejoin: miter"/>
     <use xlink:href="#mdf4ab1af92" x="244.892622" y="91.482353" style="fill: #f5deb3; stroke: #f5deb3; stroke-width: 1.5; stroke-linejoin: miter"/>
     <use xlink:href="#mdf4ab1af92" x="245.379232" y="27.648" style="fill: #f5deb3; stroke: #f5deb3; stroke-width: 1.5; stroke-linejoin: miter"/>
     <use xlink:href="#mdf4ab1af92" x="245.379232" y="27.648" style="fill: #f5deb3; stroke: #f5deb3; stroke-width: 1.5; stroke-linejoin: miter"/>
     <use xlink:href="#mdf4ab1af92" x="360.8064" y="27.648" style="fill: #f5deb3; stroke: #f5deb3; stroke-width: 1.5; stroke-linejoin: miter"/>
    </g>
   </g>
   <g id="line2d_3">
    <path style="fill: none; stroke: #f5deb3; stroke-width: 4; stroke-linecap: square"/>
    <g/>
   </g>
   <g id="line2d_4">
    <path d="M 360.8064 27.648 
L 380.514816 33.07392 
" style="fill: none; stroke: #f5deb3; stroke-width: 4; stroke-linecap: square"/>
    <g>
     <use xlink:href="#mdf4ab1af92" x="360.8064" y="27.648" style="fill: #f5deb3; stroke: #f5deb3; stroke-width: 1.5; stroke-linejoin: miter"/>
     <use xlink:href="#mdf4ab1af92" x="380.514816" y="33.07392" style="fill: #f5deb3; stroke: #f5deb3; stroke-width: 1.5; stroke-linejoin: miter"/>
    </g>
   </g>
   <g id="matplotlib.axis_1">
    <g id="xtick_1">
     <g id="line2d_5">
      <path d="M 57.6 298.944 
L 57.6 27.648 
" clip-path="url(#pa322fd2448)" style="fill: none; stroke: #b0b0b0; stroke-width: 0.8; stroke-linecap: square"/>
     </g>
     <g id="line2d_6">
      <defs>
       <path id="m4ca8774ae4" d="M 0 0 
L 0 3.5 
" style="stroke: #000000; stroke-width: 0.8"/>
      </defs>
      <g>
       <use xlink:href="#m4ca8774ae4" x="57.6" y="298.944" style="stroke: #000000; stroke-width: 0.8"/>
      </g>
     </g>
     <g id="text_1">
      <!-- 0 -->
      <g transform="translate(52.191875 318.861344)scale(0.17 -0.17)">
       <defs>
        <path id="DejaVuSans-30" d="M 2034 4250 
Q 1547 4250 1301 3770 
Q 1056 3291 1056 2328 
Q 1056 1369 1301 889 
Q 1547 409 2034 409 
Q 2525 409 2770 889 
Q 3016 1369 3016 2328 
Q 3016 3291 2770 3770 
Q 2525 4250 2034 4250 
z
M 2034 4750 
Q 2819 4750 3233 4129 
Q 3647 3509 3647 2328 
Q 3647 1150 3233 529 
Q 2819 -91 2034 -91 
Q 1250 -91 836 529 
Q 422 1150 422 2328 
Q 422 3509 836 4129 
Q 1250 4750 2034 4750 
z
" transform="scale(0.015625)"/>
       </defs>
       <use xlink:href="#DejaVuSans-30"/>
      </g>
     </g>
    </g>
    <g id="xtick_2">
     <g id="line2d_7">
      <path d="M 144.2304 298.944 
L 144.2304 27.648 
" clip-path="url(#pa322fd2448)" style="fill: none; stroke: #b0b0b0; stroke-width: 0.8; stroke-linecap: square"/>
     </g>
     <g id="line2d_8">
      <g>
       <use xlink:href="#m4ca8774ae4" x="144.2304" y="298.944" style="stroke: #000000; stroke-width: 0.8"/>
      </g>
     </g>
     <g id="text_2">
      <!-- 2 -->
      <g transform="translate(138.822275 318.861344)scale(0.17 -0.17)">
       <defs>
        <path id="DejaVuSans-32" d="M 1228 531 
L 3431 531 
L 3431 0 
L 469 0 
L 469 531 
Q 828 903 1448 1529 
Q 2069 2156 2228 2338 
Q 2531 2678 2651 2914 
Q 2772 3150 2772 3378 
Q 2772 3750 2511 3984 
Q 2250 4219 1831 4219 
Q 1534 4219 1204 4116 
Q 875 4013 500 3803 
L 500 4441 
Q 881 4594 1212 4672 
Q 1544 4750 1819 4750 
Q 2544 4750 2975 4387 
Q 3406 4025 3406 3419 
Q 3406 3131 3298 2873 
Q 3191 2616 2906 2266 
Q 2828 2175 2409 1742 
Q 1991 1309 1228 531 
z
" transform="scale(0.015625)"/>
       </defs>
       <use xlink:href="#DejaVuSans-32"/>
      </g>
     </g>
    </g>
    <g id="xtick_3">
     <g id="line2d_9">
      <path d="M 230.8608 298.944 
L 230.8608 27.648 
" clip-path="url(#pa322fd2448)" style="fill: none; stroke: #b0b0b0; stroke-width: 0.8; stroke-linecap: square"/>
     </g>
     <g id="line2d_10">
      <g>
       <use xlink:href="#m4ca8774ae4" x="230.8608" y="298.944" style="stroke: #000000; stroke-width: 0.8"/>
      </g>
     </g>
     <g id="text_3">
      <!-- 4 -->
      <g transform="translate(225.452675 318.861344)scale(0.17 -0.17)">
       <defs>
        <path id="DejaVuSans-34" d="M 2419 4116 
L 825 1625 
L 2419 1625 
L 2419 4116 
z
M 2253 4666 
L 3047 4666 
L 3047 1625 
L 3713 1625 
L 3713 1100 
L 3047 1100 
L 3047 0 
L 2419 0 
L 2419 1100 
L 313 1100 
L 313 1709 
L 2253 4666 
z
" transform="scale(0.015625)"/>
       </defs>
       <use xlink:href="#DejaVuSans-34"/>
      </g>
     </g>
    </g>
    <g id="xtick_4">
     <g id="line2d_11">
      <path d="M 317.4912 298.944 
L 317.4912 27.648 
" clip-path="url(#pa322fd2448)" style="fill: none; stroke: #b0b0b0; stroke-width: 0.8; stroke-linecap: square"/>
     </g>
     <g id="line2d_12">
      <g>
       <use xlink:href="#m4ca8774ae4" x="317.4912" y="298.944" style="stroke: #000000; stroke-width: 0.8"/>
      </g>
     </g>
     <g id="text_4">
      <!-- 6 -->
      <g transform="translate(312.083075 318.861344)scale(0.17 -0.17)">
       <defs>
        <path id="DejaVuSans-36" d="M 2113 2584 
Q 1688 2584 1439 2293 
Q 1191 2003 1191 1497 
Q 1191 994 1439 701 
Q 1688 409 2113 409 
Q 2538 409 2786 701 
Q 3034 994 3034 1497 
Q 3034 2003 2786 2293 
Q 2538 2584 2113 2584 
z
M 3366 4563 
L 3366 3988 
Q 3128 4100 2886 4159 
Q 2644 4219 2406 4219 
Q 1781 4219 1451 3797 
Q 1122 3375 1075 2522 
Q 1259 2794 1537 2939 
Q 1816 3084 2150 3084 
Q 2853 3084 3261 2657 
Q 3669 2231 3669 1497 
Q 3669 778 3244 343 
Q 2819 -91 2113 -91 
Q 1303 -91 875 529 
Q 447 1150 447 2328 
Q 447 3434 972 4092 
Q 1497 4750 2381 4750 
Q 2619 4750 2861 4703 
Q 3103 4656 3366 4563 
z
" transform="scale(0.015625)"/>
       </defs>
       <use xlink:href="#DejaVuSans-36"/>
      </g>
     </g>
    </g>
    <g id="xtick_5">
     <g id="line2d_13">
      <path d="M 100.9152 298.944 
L 100.9152 27.648 
" clip-path="url(#pa322fd2448)" style="fill: none; stroke: #b0b0b0; stroke-width: 0.8; stroke-linecap: square"/>
     </g>
     <g id="line2d_14">
      <defs>
       <path id="m78aa490178" d="M 0 0 
L 0 2 
" style="stroke: #000000; stroke-width: 0.6"/>
      </defs>
      <g>
       <use xlink:href="#m78aa490178" x="100.9152" y="298.944" style="stroke: #000000; stroke-width: 0.6"/>
      </g>
     </g>
    </g>
    <g id="xtick_6">
     <g id="line2d_15">
      <path d="M 187.5456 298.944 
L 187.5456 27.648 
" clip-path="url(#pa322fd2448)" style="fill: none; stroke: #b0b0b0; stroke-width: 0.8; stroke-linecap: square"/>
     </g>
     <g id="line2d_16">
      <g>
       <use xlink:href="#m78aa490178" x="187.5456" y="298.944" style="stroke: #000000; stroke-width: 0.6"/>
      </g>
     </g>
    </g>
    <g id="xtick_7">
     <g id="line2d_17">
      <path d="M 274.176 298.944 
L 274.176 27.648 
" clip-path="url(#pa322fd2448)" style="fill: none; stroke: #b0b0b0; stroke-width: 0.8; stroke-linecap: square"/>
     </g>
     <g id="line2d_18">
      <g>
       <use xlink:href="#m78aa490178" x="274.176" y="298.944" style="stroke: #000000; stroke-width: 0.6"/>
      </g>
     </g>
    </g>
    <g id="xtick_8">
     <g id="line2d_19">
      <path d="M 360.8064 298.944 
L 360.8064 27.648 
" clip-path="url(#pa322fd2448)" style="fill: none; stroke: #b0b0b0; stroke-width: 0.8; stroke-linecap: square"/>
     </g>
     <g id="line2d_20">
      <g>
       <use xlink:href="#m78aa490178" x="360.8064" y="298.944" style="stroke: #000000; stroke-width: 0.6"/>
      </g>
     </g>
    </g>
    <g id="text_5">
     <!-- log10(# f-evals / dimension) -->
     <g transform="translate(88.823278 339.314156)scale(0.17 -0.17)">
      <defs>
       <path id="DejaVuSans-6c" d="M 603 4863 
L 1178 4863 
L 1178 0 
L 603 0 
L 603 4863 
z
" transform="scale(0.015625)"/>
       <path id="DejaVuSans-6f" d="M 1959 3097 
Q 1497 3097 1228 2736 
Q 959 2375 959 1747 
Q 959 1119 1226 758 
Q 1494 397 1959 397 
Q 2419 397 2687 759 
Q 2956 1122 2956 1747 
Q 2956 2369 2687 2733 
Q 2419 3097 1959 3097 
z
M 1959 3584 
Q 2709 3584 3137 3096 
Q 3566 2609 3566 1747 
Q 3566 888 3137 398 
Q 2709 -91 1959 -91 
Q 1206 -91 779 398 
Q 353 888 353 1747 
Q 353 2609 779 3096 
Q 1206 3584 1959 3584 
z
" transform="scale(0.015625)"/>
       <path id="DejaVuSans-67" d="M 2906 1791 
Q 2906 2416 2648 2759 
Q 2391 3103 1925 3103 
Q 1463 3103 1205 2759 
Q 947 2416 947 1791 
Q 947 1169 1205 825 
Q 1463 481 1925 481 
Q 2391 481 2648 825 
Q 2906 1169 2906 1791 
z
M 3481 434 
Q 3481 -459 3084 -895 
Q 2688 -1331 1869 -1331 
Q 1566 -1331 1297 -1286 
Q 1028 -1241 775 -1147 
L 775 -588 
Q 1028 -725 1275 -790 
Q 1522 -856 1778 -856 
Q 2344 -856 2625 -561 
Q 2906 -266 2906 331 
L 2906 616 
Q 2728 306 2450 153 
Q 2172 0 1784 0 
Q 1141 0 747 490 
Q 353 981 353 1791 
Q 353 2603 747 3093 
Q 1141 3584 1784 3584 
Q 2172 3584 2450 3431 
Q 2728 3278 2906 2969 
L 2906 3500 
L 3481 3500 
L 3481 434 
z
" transform="scale(0.015625)"/>
       <path id="DejaVuSans-31" d="M 794 531 
L 1825 531 
L 1825 4091 
L 703 3866 
L 703 4441 
L 1819 4666 
L 2450 4666 
L 2450 531 
L 3481 531 
L 3481 0 
L 794 0 
L 794 531 
z
" transform="scale(0.015625)"/>
       <path id="DejaVuSans-28" d="M 1984 4856 
Q 1566 4138 1362 3434 
Q 1159 2731 1159 2009 
Q 1159 1288 1364 580 
Q 1569 -128 1984 -844 
L 1484 -844 
Q 1016 -109 783 600 
Q 550 1309 550 2009 
Q 550 2706 781 3412 
Q 1013 4119 1484 4856 
L 1984 4856 
z
" transform="scale(0.015625)"/>
       <path id="DejaVuSans-23" d="M 3272 2816 
L 2363 2816 
L 2100 1772 
L 3016 1772 
L 3272 2816 
z
M 2803 4594 
L 2478 3297 
L 3391 3297 
L 3719 4594 
L 4219 4594 
L 3897 3297 
L 4872 3297 
L 4872 2816 
L 3775 2816 
L 3519 1772 
L 4513 1772 
L 4513 1294 
L 3397 1294 
L 3072 0 
L 2572 0 
L 2894 1294 
L 1978 1294 
L 1656 0 
L 1153 0 
L 1478 1294 
L 494 1294 
L 494 1772 
L 1594 1772 
L 1856 2816 
L 850 2816 
L 850 3297 
L 1978 3297 
L 2297 4594 
L 2803 4594 
z
" transform="scale(0.015625)"/>
       <path id="DejaVuSans-20" transform="scale(0.015625)"/>
       <path id="DejaVuSans-66" d="M 2375 4863 
L 2375 4384 
L 1825 4384 
Q 1516 4384 1395 4259 
Q 1275 4134 1275 3809 
L 1275 3500 
L 2222 3500 
L 2222 3053 
L 1275 3053 
L 1275 0 
L 697 0 
L 697 3053 
L 147 3053 
L 147 3500 
L 697 3500 
L 697 3744 
Q 697 4328 969 4595 
Q 1241 4863 1831 4863 
L 2375 4863 
z
" transform="scale(0.015625)"/>
       <path id="DejaVuSans-2d" d="M 313 2009 
L 1997 2009 
L 1997 1497 
L 313 1497 
L 313 2009 
z
" transform="scale(0.015625)"/>
       <path id="DejaVuSans-65" d="M 3597 1894 
L 3597 1613 
L 953 1613 
Q 991 1019 1311 708 
Q 1631 397 2203 397 
Q 2534 397 2845 478 
Q 3156 559 3463 722 
L 3463 178 
Q 3153 47 2828 -22 
Q 2503 -91 2169 -91 
Q 1331 -91 842 396 
Q 353 884 353 1716 
Q 353 2575 817 3079 
Q 1281 3584 2069 3584 
Q 2775 3584 3186 3129 
Q 3597 2675 3597 1894 
z
M 3022 2063 
Q 3016 2534 2758 2815 
Q 2500 3097 2075 3097 
Q 1594 3097 1305 2825 
Q 1016 2553 972 2059 
L 3022 2063 
z
" transform="scale(0.015625)"/>
       <path id="DejaVuSans-76" d="M 191 3500 
L 800 3500 
L 1894 563 
L 2988 3500 
L 3597 3500 
L 2284 0 
L 1503 0 
L 191 3500 
z
" transform="scale(0.015625)"/>
       <path id="DejaVuSans-61" d="M 2194 1759 
Q 1497 1759 1228 1600 
Q 959 1441 959 1056 
Q 959 750 1161 570 
Q 1363 391 1709 391 
Q 2188 391 2477 730 
Q 2766 1069 2766 1631 
L 2766 1759 
L 2194 1759 
z
M 3341 1997 
L 3341 0 
L 2766 0 
L 2766 531 
Q 2569 213 2275 61 
Q 1981 -91 1556 -91 
Q 1019 -91 701 211 
Q 384 513 384 1019 
Q 384 1609 779 1909 
Q 1175 2209 1959 2209 
L 2766 2209 
L 2766 2266 
Q 2766 2663 2505 2880 
Q 2244 3097 1772 3097 
Q 1472 3097 1187 3025 
Q 903 2953 641 2809 
L 641 3341 
Q 956 3463 1253 3523 
Q 1550 3584 1831 3584 
Q 2591 3584 2966 3190 
Q 3341 2797 3341 1997 
z
" transform="scale(0.015625)"/>
       <path id="DejaVuSans-73" d="M 2834 3397 
L 2834 2853 
Q 2591 2978 2328 3040 
Q 2066 3103 1784 3103 
Q 1356 3103 1142 2972 
Q 928 2841 928 2578 
Q 928 2378 1081 2264 
Q 1234 2150 1697 2047 
L 1894 2003 
Q 2506 1872 2764 1633 
Q 3022 1394 3022 966 
Q 3022 478 2636 193 
Q 2250 -91 1575 -91 
Q 1294 -91 989 -36 
Q 684 19 347 128 
L 347 722 
Q 666 556 975 473 
Q 1284 391 1588 391 
Q 1994 391 2212 530 
Q 2431 669 2431 922 
Q 2431 1156 2273 1281 
Q 2116 1406 1581 1522 
L 1381 1569 
Q 847 1681 609 1914 
Q 372 2147 372 2553 
Q 372 3047 722 3315 
Q 1072 3584 1716 3584 
Q 2034 3584 2315 3537 
Q 2597 3491 2834 3397 
z
" transform="scale(0.015625)"/>
       <path id="DejaVuSans-2f" d="M 1625 4666 
L 2156 4666 
L 531 -594 
L 0 -594 
L 1625 4666 
z
" transform="scale(0.015625)"/>
       <path id="DejaVuSans-64" d="M 2906 2969 
L 2906 4863 
L 3481 4863 
L 3481 0 
L 2906 0 
L 2906 525 
Q 2725 213 2448 61 
Q 2172 -91 1784 -91 
Q 1150 -91 751 415 
Q 353 922 353 1747 
Q 353 2572 751 3078 
Q 1150 3584 1784 3584 
Q 2172 3584 2448 3432 
Q 2725 3281 2906 2969 
z
M 947 1747 
Q 947 1113 1208 752 
Q 1469 391 1925 391 
Q 2381 391 2643 752 
Q 2906 1113 2906 1747 
Q 2906 2381 2643 2742 
Q 2381 3103 1925 3103 
Q 1469 3103 1208 2742 
Q 947 2381 947 1747 
z
" transform="scale(0.015625)"/>
       <path id="DejaVuSans-69" d="M 603 3500 
L 1178 3500 
L 1178 0 
L 603 0 
L 603 3500 
z
M 603 4863 
L 1178 4863 
L 1178 4134 
L 603 4134 
L 603 4863 
z
" transform="scale(0.015625)"/>
       <path id="DejaVuSans-6d" d="M 3328 2828 
Q 3544 3216 3844 3400 
Q 4144 3584 4550 3584 
Q 5097 3584 5394 3201 
Q 5691 2819 5691 2113 
L 5691 0 
L 5113 0 
L 5113 2094 
Q 5113 2597 4934 2840 
Q 4756 3084 4391 3084 
Q 3944 3084 3684 2787 
Q 3425 2491 3425 1978 
L 3425 0 
L 2847 0 
L 2847 2094 
Q 2847 2600 2669 2842 
Q 2491 3084 2119 3084 
Q 1678 3084 1418 2786 
Q 1159 2488 1159 1978 
L 1159 0 
L 581 0 
L 581 3500 
L 1159 3500 
L 1159 2956 
Q 1356 3278 1631 3431 
Q 1906 3584 2284 3584 
Q 2666 3584 2933 3390 
Q 3200 3197 3328 2828 
z
" transform="scale(0.015625)"/>
       <path id="DejaVuSans-6e" d="M 3513 2113 
L 3513 0 
L 2938 0 
L 2938 2094 
Q 2938 2591 2744 2837 
Q 2550 3084 2163 3084 
Q 1697 3084 1428 2787 
Q 1159 2491 1159 1978 
L 1159 0 
L 581 0 
L 581 3500 
L 1159 3500 
L 1159 2956 
Q 1366 3272 1645 3428 
Q 1925 3584 2291 3584 
Q 2894 3584 3203 3211 
Q 3513 2838 3513 2113 
z
" transform="scale(0.015625)"/>
       <path id="DejaVuSans-29" d="M 513 4856 
L 1013 4856 
Q 1481 4119 1714 3412 
Q 1947 2706 1947 2009 
Q 1947 1309 1714 600 
Q 1481 -109 1013 -844 
L 513 -844 
Q 928 -128 1133 580 
Q 1338 1288 1338 2009 
Q 1338 2731 1133 3434 
Q 928 4138 513 4856 
z
" transform="scale(0.015625)"/>
      </defs>
      <use xlink:href="#DejaVuSans-6c"/>
      <use xlink:href="#DejaVuSans-6f" x="27.783203"/>
      <use xlink:href="#DejaVuSans-67" x="88.964844"/>
      <use xlink:href="#DejaVuSans-31" x="152.441406"/>
      <use xlink:href="#DejaVuSans-30" x="216.064453"/>
      <use xlink:href="#DejaVuSans-28" x="279.6875"/>
      <use xlink:href="#DejaVuSans-23" x="318.701172"/>
      <use xlink:href="#DejaVuSans-20" x="402.490234"/>
      <use xlink:href="#DejaVuSans-66" x="434.277344"/>
      <use xlink:href="#DejaVuSans-2d" x="463.982422"/>
      <use xlink:href="#DejaVuSans-65" x="500.066406"/>
      <use xlink:href="#DejaVuSans-76" x="561.589844"/>
      <use xlink:href="#DejaVuSans-61" x="620.769531"/>
      <use xlink:href="#DejaVuSans-6c" x="682.048828"/>
      <use xlink:href="#DejaVuSans-73" x="709.832031"/>
      <use xlink:href="#DejaVuSans-20" x="761.931641"/>
      <use xlink:href="#DejaVuSans-2f" x="793.71875"/>
      <use xlink:href="#DejaVuSans-20" x="827.410156"/>
      <use xlink:href="#DejaVuSans-64" x="859.197266"/>
      <use xlink:href="#DejaVuSans-69" x="922.673828"/>
      <use xlink:href="#DejaVuSans-6d" x="950.457031"/>
      <use xlink:href="#DejaVuSans-65" x="1047.869141"/>
      <use xlink:href="#DejaVuSans-6e" x="1109.392578"/>
      <use xlink:href="#DejaVuSans-73" x="1172.771484"/>
      <use xlink:href="#DejaVuSans-69" x="1224.871094"/>
      <use xlink:href="#DejaVuSans-6f" x="1252.654297"/>
      <use xlink:href="#DejaVuSans-6e" x="1313.835938"/>
      <use xlink:href="#DejaVuSans-29" x="1377.214844"/>
     </g>
    </g>
   </g>
   <g id="matplotlib.axis_2">
    <g id="ytick_1">
     <g id="line2d_21">
      <path d="M 57.6 298.944 
L 360.8064 298.944 
" clip-path="url(#pa322fd2448)" style="fill: none; stroke: #b0b0b0; stroke-width: 0.8; stroke-linecap: square"/>
     </g>
     <g id="line2d_22">
      <defs>
       <path id="m642e3e49a1" d="M 0 0 
L -3.5 0 
" style="stroke: #000000; stroke-width: 0.8"/>
      </defs>
      <g>
       <use xlink:href="#m642e3e49a1" x="57.6" y="298.944" style="stroke: #000000; stroke-width: 0.8"/>
      </g>
     </g>
     <g id="text_6">
      <!-- 0.0 -->
      <g transform="translate(25.155 305.02275)scale(0.16 -0.16)">
       <defs>
        <path id="DejaVuSans-2e" d="M 684 794 
L 1344 794 
L 1344 0 
L 684 0 
L 684 794 
z
" transform="scale(0.015625)"/>
       </defs>
       <use xlink:href="#DejaVuSans-30"/>
       <use xlink:href="#DejaVuSans-2e" x="63.623047"/>
       <use xlink:href="#DejaVuSans-30" x="95.410156"/>
      </g>
     </g>
    </g>
    <g id="ytick_2">
     <g id="line2d_23">
      <path d="M 57.6 244.6848 
L 360.8064 244.6848 
" clip-path="url(#pa322fd2448)" style="fill: none; stroke: #b0b0b0; stroke-width: 0.8; stroke-linecap: square"/>
     </g>
     <g id="line2d_24">
      <g>
       <use xlink:href="#m642e3e49a1" x="57.6" y="244.6848" style="stroke: #000000; stroke-width: 0.8"/>
      </g>
     </g>
     <g id="text_7">
      <!-- 0.2 -->
      <g transform="translate(25.155 250.76355)scale(0.16 -0.16)">
       <use xlink:href="#DejaVuSans-30"/>
       <use xlink:href="#DejaVuSans-2e" x="63.623047"/>
       <use xlink:href="#DejaVuSans-32" x="95.410156"/>
      </g>
     </g>
    </g>
    <g id="ytick_3">
     <g id="line2d_25">
      <path d="M 57.6 190.4256 
L 360.8064 190.4256 
" clip-path="url(#pa322fd2448)" style="fill: none; stroke: #b0b0b0; stroke-width: 0.8; stroke-linecap: square"/>
     </g>
     <g id="line2d_26">
      <g>
       <use xlink:href="#m642e3e49a1" x="57.6" y="190.4256" style="stroke: #000000; stroke-width: 0.8"/>
      </g>
     </g>
     <g id="text_8">
      <!-- 0.4 -->
      <g transform="translate(25.155 196.50435)scale(0.16 -0.16)">
       <use xlink:href="#DejaVuSans-30"/>
       <use xlink:href="#DejaVuSans-2e" x="63.623047"/>
       <use xlink:href="#DejaVuSans-34" x="95.410156"/>
      </g>
     </g>
    </g>
    <g id="ytick_4">
     <g id="line2d_27">
      <path d="M 57.6 136.1664 
L 360.8064 136.1664 
" clip-path="url(#pa322fd2448)" style="fill: none; stroke: #b0b0b0; stroke-width: 0.8; stroke-linecap: square"/>
     </g>
     <g id="line2d_28">
      <g>
       <use xlink:href="#m642e3e49a1" x="57.6" y="136.1664" style="stroke: #000000; stroke-width: 0.8"/>
      </g>
     </g>
     <g id="text_9">
      <!-- 0.6 -->
      <g transform="translate(25.155 142.24515)scale(0.16 -0.16)">
       <use xlink:href="#DejaVuSans-30"/>
       <use xlink:href="#DejaVuSans-2e" x="63.623047"/>
       <use xlink:href="#DejaVuSans-36" x="95.410156"/>
      </g>
     </g>
    </g>
    <g id="ytick_5">
     <g id="line2d_29">
      <path d="M 57.6 81.9072 
L 360.8064 81.9072 
" clip-path="url(#pa322fd2448)" style="fill: none; stroke: #b0b0b0; stroke-width: 0.8; stroke-linecap: square"/>
     </g>
     <g id="line2d_30">
      <g>
       <use xlink:href="#m642e3e49a1" x="57.6" y="81.9072" style="stroke: #000000; stroke-width: 0.8"/>
      </g>
     </g>
     <g id="text_10">
      <!-- 0.8 -->
      <g transform="translate(25.155 87.98595)scale(0.16 -0.16)">
       <defs>
        <path id="DejaVuSans-38" d="M 2034 2216 
Q 1584 2216 1326 1975 
Q 1069 1734 1069 1313 
Q 1069 891 1326 650 
Q 1584 409 2034 409 
Q 2484 409 2743 651 
Q 3003 894 3003 1313 
Q 3003 1734 2745 1975 
Q 2488 2216 2034 2216 
z
M 1403 2484 
Q 997 2584 770 2862 
Q 544 3141 544 3541 
Q 544 4100 942 4425 
Q 1341 4750 2034 4750 
Q 2731 4750 3128 4425 
Q 3525 4100 3525 3541 
Q 3525 3141 3298 2862 
Q 3072 2584 2669 2484 
Q 3125 2378 3379 2068 
Q 3634 1759 3634 1313 
Q 3634 634 3220 271 
Q 2806 -91 2034 -91 
Q 1263 -91 848 271 
Q 434 634 434 1313 
Q 434 1759 690 2068 
Q 947 2378 1403 2484 
z
M 1172 3481 
Q 1172 3119 1398 2916 
Q 1625 2713 2034 2713 
Q 2441 2713 2670 2916 
Q 2900 3119 2900 3481 
Q 2900 3844 2670 4047 
Q 2441 4250 2034 4250 
Q 1625 4250 1398 4047 
Q 1172 3844 1172 3481 
z
" transform="scale(0.015625)"/>
       </defs>
       <use xlink:href="#DejaVuSans-30"/>
       <use xlink:href="#DejaVuSans-2e" x="63.623047"/>
       <use xlink:href="#DejaVuSans-38" x="95.410156"/>
      </g>
     </g>
    </g>
    <g id="ytick_6">
     <g id="line2d_31">
      <path d="M 57.6 27.648 
L 360.8064 27.648 
" clip-path="url(#pa322fd2448)" style="fill: none; stroke: #b0b0b0; stroke-width: 0.8; stroke-linecap: square"/>
     </g>
     <g id="line2d_32">
      <g>
       <use xlink:href="#m642e3e49a1" x="57.6" y="27.648" style="stroke: #000000; stroke-width: 0.8"/>
      </g>
     </g>
     <g id="text_11">
      <!-- 1.0 -->
      <g transform="translate(25.155 33.72675)scale(0.16 -0.16)">
       <use xlink:href="#DejaVuSans-31"/>
       <use xlink:href="#DejaVuSans-2e" x="63.623047"/>
       <use xlink:href="#DejaVuSans-30" x="95.410156"/>
      </g>
     </g>
    </g>
    <g id="text_12">
     <!-- Fraction of function,target pairs -->
     <g transform="translate(17.619531 297.681)rotate(-90)scale(0.17 -0.17)">
      <defs>
       <path id="DejaVuSans-46" d="M 628 4666 
L 3309 4666 
L 3309 4134 
L 1259 4134 
L 1259 2759 
L 3109 2759 
L 3109 2228 
L 1259 2228 
L 1259 0 
L 628 0 
L 628 4666 
z
" transform="scale(0.015625)"/>
       <path id="DejaVuSans-72" d="M 2631 2963 
Q 2534 3019 2420 3045 
Q 2306 3072 2169 3072 
Q 1681 3072 1420 2755 
Q 1159 2438 1159 1844 
L 1159 0 
L 581 0 
L 581 3500 
L 1159 3500 
L 1159 2956 
Q 1341 3275 1631 3429 
Q 1922 3584 2338 3584 
Q 2397 3584 2469 3576 
Q 2541 3569 2628 3553 
L 2631 2963 
z
" transform="scale(0.015625)"/>
       <path id="DejaVuSans-63" d="M 3122 3366 
L 3122 2828 
Q 2878 2963 2633 3030 
Q 2388 3097 2138 3097 
Q 1578 3097 1268 2742 
Q 959 2388 959 1747 
Q 959 1106 1268 751 
Q 1578 397 2138 397 
Q 2388 397 2633 464 
Q 2878 531 3122 666 
L 3122 134 
Q 2881 22 2623 -34 
Q 2366 -91 2075 -91 
Q 1284 -91 818 406 
Q 353 903 353 1747 
Q 353 2603 823 3093 
Q 1294 3584 2113 3584 
Q 2378 3584 2631 3529 
Q 2884 3475 3122 3366 
z
" transform="scale(0.015625)"/>
       <path id="DejaVuSans-74" d="M 1172 4494 
L 1172 3500 
L 2356 3500 
L 2356 3053 
L 1172 3053 
L 1172 1153 
Q 1172 725 1289 603 
Q 1406 481 1766 481 
L 2356 481 
L 2356 0 
L 1766 0 
Q 1100 0 847 248 
Q 594 497 594 1153 
L 594 3053 
L 172 3053 
L 172 3500 
L 594 3500 
L 594 4494 
L 1172 4494 
z
" transform="scale(0.015625)"/>
       <path id="DejaVuSans-75" d="M 544 1381 
L 544 3500 
L 1119 3500 
L 1119 1403 
Q 1119 906 1312 657 
Q 1506 409 1894 409 
Q 2359 409 2629 706 
Q 2900 1003 2900 1516 
L 2900 3500 
L 3475 3500 
L 3475 0 
L 2900 0 
L 2900 538 
Q 2691 219 2414 64 
Q 2138 -91 1772 -91 
Q 1169 -91 856 284 
Q 544 659 544 1381 
z
M 1991 3584 
L 1991 3584 
z
" transform="scale(0.015625)"/>
       <path id="DejaVuSans-2c" d="M 750 794 
L 1409 794 
L 1409 256 
L 897 -744 
L 494 -744 
L 750 256 
L 750 794 
z
" transform="scale(0.015625)"/>
       <path id="DejaVuSans-70" d="M 1159 525 
L 1159 -1331 
L 581 -1331 
L 581 3500 
L 1159 3500 
L 1159 2969 
Q 1341 3281 1617 3432 
Q 1894 3584 2278 3584 
Q 2916 3584 3314 3078 
Q 3713 2572 3713 1747 
Q 3713 922 3314 415 
Q 2916 -91 2278 -91 
Q 1894 -91 1617 61 
Q 1341 213 1159 525 
z
M 3116 1747 
Q 3116 2381 2855 2742 
Q 2594 3103 2138 3103 
Q 1681 3103 1420 2742 
Q 1159 2381 1159 1747 
Q 1159 1113 1420 752 
Q 1681 391 2138 391 
Q 2594 391 2855 752 
Q 3116 1113 3116 1747 
z
" transform="scale(0.015625)"/>
      </defs>
      <use xlink:href="#DejaVuSans-46"/>
      <use xlink:href="#DejaVuSans-72" x="50.269531"/>
      <use xlink:href="#DejaVuSans-61" x="91.382812"/>
      <use xlink:href="#DejaVuSans-63" x="152.662109"/>
      <use xlink:href="#DejaVuSans-74" x="207.642578"/>
      <use xlink:href="#DejaVuSans-69" x="246.851562"/>
      <use xlink:href="#DejaVuSans-6f" x="274.634766"/>
      <use xlink:href="#DejaVuSans-6e" x="335.816406"/>
      <use xlink:href="#DejaVuSans-20" x="399.195312"/>
      <use xlink:href="#DejaVuSans-6f" x="430.982422"/>
      <use xlink:href="#DejaVuSans-66" x="492.164062"/>
      <use xlink:href="#DejaVuSans-20" x="527.369141"/>
      <use xlink:href="#DejaVuSans-66" x="559.15625"/>
      <use xlink:href="#DejaVuSans-75" x="594.361328"/>
      <use xlink:href="#DejaVuSans-6e" x="657.740234"/>
      <use xlink:href="#DejaVuSans-63" x="721.119141"/>
      <use xlink:href="#DejaVuSans-74" x="776.099609"/>
      <use xlink:href="#DejaVuSans-69" x="815.308594"/>
      <use xlink:href="#DejaVuSans-6f" x="843.091797"/>
      <use xlink:href="#DejaVuSans-6e" x="904.273438"/>
      <use xlink:href="#DejaVuSans-2c" x="967.652344"/>
      <use xlink:href="#DejaVuSans-74" x="999.439453"/>
      <use xlink:href="#DejaVuSans-61" x="1038.648438"/>
      <use xlink:href="#DejaVuSans-72" x="1099.927734"/>
      <use xlink:href="#DejaVuSans-67" x="1139.291016"/>
      <use xlink:href="#DejaVuSans-65" x="1202.767578"/>
      <use xlink:href="#DejaVuSans-74" x="1264.291016"/>
      <use xlink:href="#DejaVuSans-20" x="1303.5"/>
      <use xlink:href="#DejaVuSans-70" x="1335.287109"/>
      <use xlink:href="#DejaVuSans-61" x="1398.763672"/>
      <use xlink:href="#DejaVuSans-69" x="1460.042969"/>
      <use xlink:href="#DejaVuSans-72" x="1487.826172"/>
      <use xlink:href="#DejaVuSans-73" x="1528.939453"/>
     </g>
    </g>
   </g>
   <g id="line2d_33">
    <defs>
     <path id="m5ef39556a2" d="M 0 1.5 
C 0.397805 1.5 0.77937 1.341951 1.06066 1.06066 
C 1.341951 0.77937 1.5 0.397805 1.5 0 
C 1.5 -0.397805 1.341951 -0.77937 1.06066 -1.06066 
C 0.77937 -1.341951 0.397805 -1.5 0 -1.5 
C -0.397805 -1.5 -0.77937 -1.341951 -1.06066 -1.06066 
C -1.341951 -0.77937 -1.5 -0.397805 -1.5 0 
C -1.5 0.397805 -1.341951 0.77937 -1.06066 1.06066 
C -0.77937 1.341951 -0.397805 1.5 0 1.5 
z
" style="stroke: #f5deb3"/>
    </defs>
    <g>
     <use xlink:href="#m5ef39556a2" x="245.379232" y="27.648" style="fill: #f5deb3; stroke: #f5deb3"/>
     <use xlink:href="#m5ef39556a2" x="245.379232" y="27.648" style="fill: #f5deb3; stroke: #f5deb3"/>
    </g>
   </g>
   <g id="line2d_34">
    <defs>
     <path id="me3be4a3660" d="M 0 1.5 
C 0.397805 1.5 0.77937 1.341951 1.06066 1.06066 
C 1.341951 0.77937 1.5 0.397805 1.5 0 
C 1.5 -0.397805 1.341951 -0.77937 1.06066 -1.06066 
C 0.77937 -1.341951 0.397805 -1.5 0 -1.5 
C -0.397805 -1.5 -0.77937 -1.341951 -1.06066 -1.06066 
C -1.341951 -0.77937 -1.5 -0.397805 -1.5 0 
C -1.5 0.397805 -1.341951 0.77937 -1.06066 1.06066 
C -0.77937 1.341951 -0.397805 1.5 0 1.5 
z
" style="stroke: #000080"/>
    </defs>
    <g>
     <use xlink:href="#me3be4a3660" x="273.972377" y="203.192471" style="fill: #000080; stroke: #000080"/>
     <use xlink:href="#me3be4a3660" x="273.972377" y="203.192471" style="fill: #000080; stroke: #000080"/>
    </g>
   </g>
   <g id="line2d_35">
    <path d="M 14.2848 298.944 
L 14.2848 275.538071 
L 27.323974 275.538071 
L 27.323974 271.708009 
L 34.951403 271.708009 
L 34.951403 269.580198 
L 40.363149 269.580198 
L 40.363149 268.303511 
L 44.560826 268.303511 
L 44.560826 267.239605 
L 47.990577 267.239605 
L 47.990577 266.814042 
L 50.890391 266.814042 
L 50.890391 266.38848 
L 53.402323 266.38848 
L 53.402323 265.962918 
L 55.618005 265.962918 
L 55.618005 264.899012 
L 57.6 264.899012 
L 57.6 264.686231 
L 59.392932 264.686231 
L 59.392932 264.473449 
L 61.029752 264.473449 
L 61.029752 263.835106 
L 63.929565 263.835106 
L 63.929565 263.409544 
L 67.581941 263.409544 
L 67.581941 262.983981 
L 68.65718 262.983981 
L 68.65718 262.558419 
L 70.639174 262.558419 
L 70.639174 262.345638 
L 76.284608 262.345638 
L 76.284608 261.920075 
L 78.88343 261.920075 
L 78.88343 261.707294 
L 80.621116 261.707294 
L 80.621116 261.210805 
L 82.211771 261.210805 
L 82.211771 261.068951 
L 83.202082 261.068951 
L 83.202082 260.856169 
L 84.142855 260.785242 
L 84.142855 260.501534 
L 85.471281 260.430607 
L 85.471281 260.35968 
L 90.340871 260.35968 
L 90.340871 259.934118 
L 93.381595 259.863191 
L 93.381595 259.792264 
L 94.205591 259.792264 
L 94.205591 259.579482 
L 94.995002 259.579482 
L 94.995002 259.15392 
L 95.752617 259.15392 
L 95.752617 258.941139 
L 97.18203 258.941139 
L 97.18203 258.728358 
L 97.857967 258.728358 
L 97.857967 258.515576 
L 99.751228 258.444649 
L 99.751228 258.231868 
L 101.833019 258.160941 
L 101.833019 258.090014 
L 103.380045 258.019087 
L 103.380045 257.806306 
L 105.26277 257.735379 
L 105.26277 257.664452 
L 107.378656 257.664452 
L 107.378656 257.451671 
L 111.226215 257.451671 
L 111.226215 257.309816 
L 114.510421 257.238889 
L 114.510421 257.167962 
L 119.738639 257.097035 
L 119.807672 256.033129 
L 120.879082 256.033129 
L 120.879082 255.607567 
L 121.830966 255.607567 
L 121.892744 255.394786 
L 123.713691 255.323859 
L 123.713691 255.252932 
L 125.425011 255.252932 
L 125.425011 255.040151 
L 126.225624 255.040151 
L 126.225624 254.685515 
L 126.804487 254.685515 
L 126.804487 254.472734 
L 128.266313 254.401807 
L 128.266313 254.33088 
L 130.4233 254.259953 
L 130.4233 254.118099 
L 131.489828 254.047172 
L 131.489828 253.976245 
L 135.478982 253.905318 
L 135.478982 253.692536 
L 144.731576 253.692536 
L 144.731576 253.479755 
L 145.308773 253.479755 
L 145.308773 253.337901 
L 145.83427 253.337901 
L 145.83427 253.12512 
L 147.613064 253.054193 
L 147.675821 252.841412 
L 147.847333 252.841412 
L 147.847333 252.628631 
L 148.771063 252.628631 
L 148.771063 252.415849 
L 149.238092 252.415849 
L 149.238092 252.273995 
L 150.262008 252.203068 
L 150.262008 251.990287 
L 150.693856 251.91936 
L 150.693856 251.848433 
L 151.857828 251.777506 
L 151.857828 251.706579 
L 152.727811 251.706579 
L 152.727811 251.493798 
L 153.095398 251.493798 
L 153.107137 251.210089 
L 153.421349 251.210089 
L 153.467455 250.926381 
L 153.775755 250.926381 
L 153.832297 250.571746 
L 154.134722 250.500819 
L 154.134722 250.429892 
L 154.649839 250.358965 
L 154.649839 250.146184 
L 155.833477 250.146184 
L 155.833477 249.933402 
L 156.956595 249.862475 
L 156.956595 249.649694 
L 157.250754 249.578767 
L 157.250754 249.50784 
L 157.605171 249.436913 
L 157.605171 249.224132 
L 157.898535 249.153205 
L 157.898535 249.011351 
L 158.223191 249.011351 
L 158.285673 248.727642 
L 158.356828 248.727642 
L 158.356828 248.514861 
L 158.638786 248.443934 
L 158.638786 248.30208 
L 158.890711 248.231153 
L 158.890711 248.160226 
L 159.593632 248.089299 
L 159.593632 248.018372 
L 159.841374 247.947445 
L 159.890533 247.521882 
L 160.722826 247.450955 
L 160.785349 247.025393 
L 161.125559 246.954466 
L 161.171478 246.812612 
L 161.564818 246.741685 
L 161.564818 246.528904 
L 162.081651 246.457976 
L 162.081651 246.387049 
L 162.62716 246.316122 
L 162.732982 246.174268 
L 163.504846 246.103341 
L 163.504846 246.032414 
L 163.945293 245.961487 
L 163.945293 245.748706 
L 164.669899 245.677779 
L 164.764859 245.323144 
L 165.392072 245.252216 
L 165.459136 245.110362 
L 165.652884 245.039435 
L 165.652884 244.968508 
L 165.868492 244.897581 
L 165.892297 244.542946 
L 166.523891 244.472019 
L 166.523891 244.401092 
L 167.068041 244.330165 
L 167.068041 244.259238 
L 167.334325 244.259238 
L 167.345339 244.046456 
L 167.742992 244.046456 
L 167.742992 243.833675 
L 167.930707 243.762748 
L 167.999955 243.47904 
L 168.284904 243.408113 
L 168.284904 243.337186 
L 168.913216 243.266259 
L 168.913216 243.195332 
L 169.184759 243.195332 
L 169.184759 242.982551 
L 169.343842 242.982551 
L 169.343842 242.840696 
L 170.19554 242.769769 
L 170.271088 242.486061 
L 170.736514 242.415134 
L 170.736514 242.344207 
L 170.951349 242.27328 
L 170.951349 242.060499 
L 171.096228 242.060499 
L 171.096228 241.918645 
L 171.594694 241.847718 
L 171.594694 241.776791 
L 172.216763 241.705864 
L 172.216763 241.634936 
L 172.995054 241.564009 
L 172.995054 241.493082 
L 173.133165 241.493082 
L 173.189742 241.209374 
L 173.318423 241.138447 
L 173.382435 240.996593 
L 173.785471 240.925666 
L 173.785471 240.854739 
L 173.964444 240.854739 
L 173.964444 240.641958 
L 174.218295 240.571031 
L 174.218295 240.500104 
L 174.738254 240.429176 
L 174.738254 240.216395 
L 175.066125 240.145468 
L 175.066125 240.074541 
L 175.366826 240.074541 
L 175.431409 239.790833 
L 175.595454 239.719906 
L 175.595454 239.648979 
L 175.877386 239.578052 
L 175.929781 239.081562 
L 176.227395 239.010635 
L 176.316452 238.868781 
L 176.695334 238.868781 
L 176.695334 238.797854 
L 176.802199 238.514146 
L 176.838794 238.514146 
L 176.908461 238.301365 
L 177.272471 238.230438 
L 177.272471 238.159511 
L 178.166767 238.088584 
L 178.166767 237.946729 
L 178.394565 237.875802 
L 178.501354 237.592094 
L 178.779198 237.521167 
L 178.83906 237.379313 
L 179.156125 237.379313 
L 179.164938 237.095605 
L 179.583183 237.024678 
L 179.583183 236.953751 
L 179.811585 236.953751 
L 179.811585 236.882824 
L 179.811585 236.811896 
L 180.12676 236.740969 
L 180.12676 236.599115 
L 181.065696 236.528188 
L 181.150457 236.386334 
L 181.597035 236.315407 
L 181.67944 236.031699 
L 181.883888 236.031699 
L 181.883888 235.889845 
L 182.206451 235.818918 
L 182.206451 235.747991 
L 182.33841 235.747991 
L 182.33841 235.535209 
L 182.614259 235.464282 
L 182.648457 235.180574 
L 182.840277 235.180574 
L 182.840277 234.967793 
L 183.352626 234.896866 
L 183.352626 234.684085 
L 183.614096 234.684085 
L 183.614096 234.542231 
L 183.750387 234.542231 
L 183.835357 234.045741 
L 184.042718 233.974814 
L 184.115096 233.762033 
L 184.559054 233.691106 
L 184.578887 233.407398 
L 184.873899 233.336471 
L 184.873899 233.265544 
L 185.226169 233.194616 
L 185.304741 232.839981 
L 185.536413 232.839981 
L 185.536413 232.6272 
L 186.188522 232.556273 
L 186.253111 232.272565 
L 186.38563 232.272565 
L 186.449547 231.917929 
L 186.608395 231.847002 
L 186.622231 231.705148 
L 186.855894 231.634221 
L 186.855894 231.492367 
L 187.280377 231.42144 
L 187.280377 231.208659 
L 187.553123 231.137732 
L 187.598199 230.924951 
L 188.366424 230.854024 
L 188.366424 230.783096 
L 188.673646 230.712169 
L 188.673646 230.641242 
L 189.118351 230.570315 
L 189.159832 230.428461 
L 189.473151 230.357534 
L 189.473151 230.286607 
L 189.988981 230.286607 
L 189.988981 230.073826 
L 190.22538 230.002899 
L 190.22538 229.931972 
L 191.590662 229.861045 
L 191.590662 229.790118 
L 192.653928 229.719191 
L 192.653928 229.648264 
L 192.96957 229.648264 
L 193.014634 229.222701 
L 193.126825 229.151774 
L 193.223055 228.868066 
L 193.286936 228.797139 
L 193.286936 228.726212 
L 194.491126 228.655285 
L 194.491126 228.584358 
L 196.247849 228.513431 
L 196.247849 228.442504 
L 197.890293 228.371576 
L 197.890293 228.300649 
L 198.795134 228.229722 
L 198.795134 228.158795 
L 199.276159 228.087868 
L 199.276159 228.016941 
L 201.163637 227.946014 
L 201.163637 227.875087 
L 201.398394 227.80416 
L 201.499906 227.236744 
L 201.599982 227.165816 
L 201.698641 226.953035 
L 202.288569 226.882108 
L 202.385401 226.456546 
L 202.50808 226.385619 
L 202.50808 226.314692 
L 203.192636 226.314692 
L 203.256396 226.101911 
L 203.374352 226.030984 
L 203.374352 225.960056 
L 203.749303 225.960056 
L 203.838127 225.463567 
L 204.151974 225.39264 
L 204.151974 225.321713 
L 204.566768 225.250786 
L 204.566768 225.179859 
L 206.600677 225.108932 
L 206.600677 225.038005 
L 209.022218 224.967078 
L 209.022218 224.896151 
L 209.438613 224.825224 
L 209.438613 224.754296 
L 210.815151 224.683369 
L 210.876206 224.328734 
L 210.975542 224.328734 
L 211.077048 223.761318 
L 211.47821 223.690391 
L 211.515598 223.406682 
L 212.817283 223.335755 
L 212.817283 223.264828 
L 214.020888 223.264828 
L 214.108174 222.839266 
L 214.481205 222.839266 
L 214.581588 222.555558 
L 215.292916 222.484631 
L 215.292916 222.413704 
L 216.148105 222.342776 
L 216.239179 222.129995 
L 217.614313 222.059068 
L 217.720903 221.420725 
L 217.74434 221.420725 
L 217.798661 220.924235 
L 218.037096 220.853308 
L 218.12282 220.640527 
L 219.51442 220.5696 
L 219.51442 220.356819 
L 219.870021 220.285892 
L 219.934693 220.073111 
L 220.043326 220.002184 
L 220.043326 219.931256 
L 220.587671 219.860329 
L 220.587671 219.789402 
L 221.373256 219.718475 
L 221.44973 219.576621 
L 221.558618 219.505694 
L 221.558618 219.434767 
L 221.781838 219.434767 
L 221.892765 218.370861 
L 221.960518 218.299934 
L 222.067999 218.15808 
L 222.095597 218.087153 
L 222.196945 217.590664 
L 222.225248 217.519736 
L 222.225248 217.448809 
L 222.396541 217.448809 
L 222.458391 217.165101 
L 222.708421 217.094174 
L 222.708421 217.023247 
L 224.160325 216.95232 
L 224.162743 216.810466 
L 224.609928 216.739539 
L 224.711412 216.526758 
L 224.888476 216.455831 
L 224.9715 216.172122 
L 225.174416 216.101195 
L 225.174416 216.030268 
L 225.508904 215.959341 
L 225.517403 215.817487 
L 225.961217 215.74656 
L 225.98439 215.604706 
L 226.675582 215.533779 
L 226.675582 215.462852 
L 226.857753 215.462852 
L 226.932078 215.037289 
L 227.091808 215.037289 
L 227.184666 214.753581 
L 227.436165 214.682654 
L 227.541037 214.328019 
L 227.634166 214.257092 
L 227.682563 214.115238 
L 227.791833 214.044311 
L 227.898931 213.831529 
L 229.100721 213.760602 
L 229.100721 213.689675 
L 229.305344 213.618748 
L 229.305344 213.547821 
L 229.794832 213.476894 
L 229.859225 213.33504 
L 229.956784 213.264113 
L 229.996809 213.051332 
L 231.41703 212.980405 
L 231.431817 212.838551 
L 231.76195 212.767624 
L 231.76195 212.696696 
L 233.505146 212.625769 
L 233.505146 212.554842 
L 234.480837 212.483915 
L 234.480837 212.412988 
L 234.660457 212.342061 
L 234.753987 212.200207 
L 234.898274 212.12928 
L 234.905862 211.987426 
L 235.200456 211.916499 
L 235.200456 211.845572 
L 235.94244 211.845572 
L 235.94244 211.703718 
L 236.095166 211.632791 
L 236.095166 211.561864 
L 236.700449 211.490936 
L 236.700449 211.420009 
L 237.47984 211.349082 
L 237.496108 211.207228 
L 238.840818 211.136301 
L 238.90189 210.92352 
L 239.485663 210.852593 
L 239.485663 210.781666 
L 239.930991 210.710739 
L 240.008652 210.285176 
L 240.260171 210.214249 
L 240.27352 210.072395 
L 241.073258 210.001468 
L 241.073258 209.930541 
L 241.24052 209.859614 
L 241.333247 209.292198 
L 241.377827 209.221271 
L 241.421657 209.079416 
L 242.15115 209.008489 
L 242.205675 208.795708 
L 242.459105 208.724781 
L 242.459105 208.653854 
L 243.330092 208.582927 
L 243.368833 208.370146 
L 244.161324 208.299219 
L 244.161324 208.228292 
L 244.581983 208.157365 
L 244.581983 208.086438 
L 245.852299 208.015511 
L 245.852299 207.944584 
L 246.007241 207.873656 
L 246.068946 207.731802 
L 246.350953 207.660875 
L 246.350953 207.589948 
L 247.075868 207.519021 
L 247.075868 207.448094 
L 247.638817 207.377167 
L 247.685715 207.235313 
L 247.80012 207.164386 
L 247.903648 207.022532 
L 248.305681 206.951605 
L 248.354808 206.738824 
L 248.53527 206.667896 
L 248.53527 206.596969 
L 249.427852 206.526042 
L 249.526308 206.384188 
L 249.764776 206.313261 
L 249.816835 206.171407 
L 250.166482 206.10048 
L 250.166482 206.029553 
L 251.237807 205.958626 
L 251.237807 205.887699 
L 252.278465 205.816772 
L 252.278465 205.745845 
L 252.722063 205.674918 
L 252.722063 205.603991 
L 254.648052 205.533064 
L 254.648052 205.462136 
L 256.164707 205.391209 
L 256.228111 205.249355 
L 256.585336 205.178428 
L 256.585336 205.107501 
L 258.025914 205.036574 
L 258.113732 204.89472 
L 258.397354 204.823793 
L 258.397354 204.752866 
L 258.830328 204.681939 
L 258.883375 204.540085 
L 260.688437 204.469158 
L 260.688437 204.398231 
L 261.062939 204.327304 
L 261.062939 204.256376 
L 261.567753 204.185449 
L 261.567753 204.114522 
L 262.096985 204.043595 
L 262.096985 203.972668 
L 264.941001 203.901741 
L 264.959003 203.759887 
L 265.56083 203.68896 
L 265.56083 203.618033 
L 267.181452 203.547106 
L 267.181452 203.476179 
L 269.254901 203.405252 
L 269.254901 203.334325 
L 273.972377 203.263398 
L 273.972377 203.192471 
L 360.8064 203.192471 
L 360.8064 203.192471 
" style="fill: none; stroke: #000080; stroke-width: 1.5; stroke-linecap: square"/>
   </g>
   <g id="line2d_36">
    <defs>
     <path id="m910e588970" d="M 0 6 
C 1.591219 6 3.117479 5.367802 4.242641 4.242641 
C 5.367802 3.117479 6 1.591219 6 0 
C 6 -1.591219 5.367802 -3.117479 4.242641 -4.242641 
C 3.117479 -5.367802 1.591219 -6 0 -6 
C -1.591219 -6 -3.117479 -5.367802 -4.242641 -4.242641 
C -5.367802 -3.117479 -6 -1.591219 -6 0 
C -6 1.591219 -5.367802 3.117479 -4.242641 4.242641 
C -3.117479 5.367802 -1.591219 6 0 6 
z
" style="stroke: #000080; stroke-width: 1.5"/>
    </defs>
    <g>
     <use xlink:href="#m910e588970" x="82.211771" y="261.068951" style="fill-opacity: 0; stroke: #000080; stroke-width: 1.5"/>
     <use xlink:href="#m910e588970" x="169.184759" y="242.982551" style="fill-opacity: 0; stroke: #000080; stroke-width: 1.5"/>
     <use xlink:href="#m910e588970" x="232.024776" y="212.696696" style="fill-opacity: 0; stroke: #000080; stroke-width: 1.5"/>
     <use xlink:href="#m910e588970" x="273.972377" y="203.263398" style="fill-opacity: 0; stroke: #000080; stroke-width: 1.5"/>
     <use xlink:href="#m910e588970" x="273.972377" y="203.192471" style="fill-opacity: 0; stroke: #000080; stroke-width: 1.5"/>
     <use xlink:href="#m910e588970" x="360.8064" y="203.192471" style="fill-opacity: 0; stroke: #000080; stroke-width: 1.5"/>
    </g>
   </g>
   <g id="line2d_37">
    <path style="fill: none; stroke: #000080; stroke-width: 1.5; stroke-linecap: square"/>
    <g/>
   </g>
   <g id="line2d_38">
    <path d="M 144.454795 253.692536 
" clip-path="url(#pa322fd2448)" style="fill: none; stroke: #000080; stroke-width: 1.5; stroke-linecap: square"/>
    <defs>
     <path id="m669e139630" d="M -12 12 
L 12 -12 
M -12 -12 
L 12 12 
" style="stroke: #000080"/>
    </defs>
    <g clip-path="url(#pa322fd2448)">
     <use xlink:href="#m669e139630" x="144.454795" y="253.692536" style="fill: #000080; stroke: #000080"/>
    </g>
   </g>
   <g id="line2d_39">
    <defs>
     <path id="md129f6f403" d="M 0 1.5 
C 0.397805 1.5 0.77937 1.341951 1.06066 1.06066 
C 1.341951 0.77937 1.5 0.397805 1.5 0 
C 1.5 -0.397805 1.341951 -0.77937 1.06066 -1.06066 
C 0.77937 -1.341951 0.397805 -1.5 0 -1.5 
C -0.397805 -1.5 -0.77937 -1.341951 -1.06066 -1.06066 
C -1.341951 -0.77937 -1.5 -0.397805 -1.5 0 
C -1.5 0.397805 -1.341951 0.77937 -1.06066 1.06066 
C -0.77937 1.341951 -0.397805 1.5 0 1.5 
z
" style="stroke: #ff00ff"/>
    </defs>
    <g>
     <use xlink:href="#md129f6f403" x="347.67203" y="27.648" style="fill: #ff00ff; stroke: #ff00ff"/>
     <use xlink:href="#md129f6f403" x="347.67203" y="27.648" style="fill: #ff00ff; stroke: #ff00ff"/>
    </g>
   </g>
   <g id="line2d_40">
    <path d="M 14.2848 298.944 
L 14.2848 275.892706 
L 27.323974 275.892706 
L 27.323974 273.410259 
L 34.951403 273.410259 
L 34.951403 272.700988 
L 40.363149 272.700988 
L 40.363149 270.573176 
L 44.560826 270.573176 
L 44.560826 269.863906 
L 47.990577 269.863906 
L 47.990577 268.090729 
L 53.402323 268.090729 
L 53.402323 267.736094 
L 55.618005 267.736094 
L 55.618005 267.381459 
L 59.392932 267.381459 
L 59.392932 265.962918 
L 61.029752 265.962918 
L 61.029752 265.608282 
L 62.535479 265.608282 
L 62.535479 264.189741 
L 63.929565 264.189741 
L 63.929565 263.835106 
L 65.227428 263.835106 
L 65.227428 263.125835 
L 73.268314 263.125835 
L 73.268314 262.7712 
L 74.836851 262.7712 
L 74.836851 262.416565 
L 75.574654 262.416565 
L 75.574654 262.061929 
L 76.96874 262.061929 
L 76.96874 261.707294 
L 78.266603 261.707294 
L 78.266603 261.352659 
L 78.88343 261.352659 
L 78.88343 260.998024 
L 80.059535 260.998024 
L 80.059535 260.643388 
L 83.202082 260.643388 
L 83.202082 260.288753 
L 87.876026 260.288753 
L 87.876026 259.934118 
L 90.007914 259.934118 
L 90.007914 259.579482 
L 92.519847 259.579482 
L 92.519847 259.224847 
L 97.18203 259.224847 
L 97.18203 258.515576 
L 100.9152 258.515576 
L 100.9152 258.160941 
L 105.559021 258.160941 
L 105.559021 257.806306 
L 107.643612 257.806306 
L 107.643612 257.451671 
L 108.29012 257.451671 
L 108.29012 257.097035 
L 117.226706 257.097035 
L 117.226706 256.7424 
L 120.28394 256.7424 
L 120.28394 256.387765 
L 122.499621 256.387765 
L 122.499621 256.033129 
L 126.323346 256.033129 
L 126.323346 255.678494 
L 131.153565 255.678494 
L 131.153565 255.323859 
L 140.382174 255.323859 
L 140.474275 254.614588 
L 142.269295 254.614588 
L 142.269295 254.259953 
L 144.565997 254.259953 
L 144.565997 253.905318 
L 148.352679 253.905318 
L 148.352679 253.550682 
L 154.660647 253.550682 
L 154.660647 253.196047 
L 157.382107 253.196047 
L 157.382107 252.841412 
L 158.79555 252.841412 
L 158.79555 252.486776 
L 159.527013 252.486776 
L 159.527013 252.132141 
L 160.351247 252.132141 
L 160.351247 251.777506 
L 164.612692 251.777506 
L 164.612692 251.422871 
L 165.695002 251.422871 
L 165.695002 251.068235 
L 166.251633 251.068235 
L 166.251633 250.7136 
L 166.865825 250.7136 
L 166.865825 250.358965 
L 168.279666 250.358965 
L 168.279666 250.004329 
L 169.15978 250.004329 
L 169.15978 249.649694 
L 169.721213 249.649694 
L 169.721213 249.295059 
L 170.374474 249.295059 
L 170.481956 248.585788 
L 170.514546 248.585788 
L 170.514546 248.231153 
L 171.100737 248.231153 
L 171.141275 247.521882 
L 171.804344 247.521882 
L 171.882365 246.812612 
L 172.033151 246.812612 
L 172.076012 246.103341 
L 172.169963 246.103341 
L 172.169963 245.748706 
L 172.578697 245.748706 
L 172.578697 245.394071 
L 172.752956 245.394071 
L 172.752956 245.039435 
L 173.129118 245.039435 
L 173.129118 244.6848 
L 173.250171 244.6848 
L 173.250171 244.330165 
L 173.765914 244.330165 
L 173.765914 243.975529 
L 173.890727 243.975529 
L 173.910154 243.266259 
L 174.878944 243.266259 
L 174.95257 242.556988 
L 175.218888 242.556988 
L 175.218888 242.202353 
L 175.49934 242.202353 
L 175.49934 241.847718 
L 176.048006 241.847718 
L 176.048006 241.493082 
L 176.513611 241.493082 
L 176.513611 241.138447 
L 176.818842 241.138447 
L 176.818842 240.783812 
L 177.917356 240.783812 
L 177.917356 240.429176 
L 179.264532 240.429176 
L 179.264532 240.074541 
L 179.888049 240.074541 
L 179.888049 239.719906 
L 180.39277 239.719906 
L 180.39277 239.365271 
L 180.886981 239.365271 
L 180.886981 239.010635 
L 181.195331 239.010635 
L 181.195331 238.656 
L 185.204877 238.656 
L 185.204877 238.301365 
L 185.711425 238.301365 
L 185.808643 237.592094 
L 186.105442 237.592094 
L 186.194587 236.882824 
L 186.383629 236.882824 
L 186.383629 236.528188 
L 186.598507 236.528188 
L 186.598507 236.173553 
L 187.038437 236.173553 
L 187.038437 235.818918 
L 187.736506 235.818918 
L 187.736506 235.464282 
L 188.431143 235.464282 
L 188.431143 235.109647 
L 190.762522 235.109647 
L 190.762522 234.400376 
L 191.418434 234.400376 
L 191.418434 234.045741 
L 191.872257 234.045741 
L 191.872257 233.691106 
L 192.688308 233.691106 
L 192.688308 233.336471 
L 193.278616 233.336471 
L 193.336779 232.6272 
L 193.590854 232.6272 
L 193.590854 232.272565 
L 194.352776 232.272565 
L 194.352776 231.563294 
L 194.789144 231.563294 
L 194.851758 230.854024 
L 194.971294 230.854024 
L 194.971294 230.499388 
L 195.573804 230.499388 
L 195.573804 230.144753 
L 196.408249 230.144753 
L 196.408249 229.790118 
L 196.679913 229.790118 
L 196.758463 229.080847 
L 197.444365 229.080847 
L 197.444365 228.726212 
L 199.258 228.726212 
L 199.258 228.016941 
L 200.199931 228.016941 
L 200.223916 227.307671 
L 200.481971 227.307671 
L 200.481971 226.953035 
L 200.77568 226.953035 
L 200.77568 226.5984 
L 201.531237 226.5984 
L 201.531237 226.243765 
L 208.685272 226.243765 
L 208.685272 225.889129 
L 208.916814 225.889129 
L 208.916814 225.534494 
L 209.307148 225.534494 
L 209.307148 225.179859 
L 210.910463 225.179859 
L 210.910463 224.825224 
L 211.025823 224.825224 
L 211.113091 224.115953 
L 211.160863 224.115953 
L 211.160863 223.761318 
L 211.501915 223.761318 
L 211.501915 223.406682 
L 211.819303 223.406682 
L 211.819303 223.052047 
L 212.043139 223.052047 
L 212.043139 222.697412 
L 212.201552 222.697412 
L 212.274957 221.633506 
L 212.433442 221.633506 
L 212.433442 221.278871 
L 212.605502 221.278871 
L 212.658547 220.5696 
L 212.964465 220.5696 
L 212.974691 219.860329 
L 213.356341 219.860329 
L 213.356341 219.505694 
L 213.471429 219.505694 
L 213.471429 219.151059 
L 213.666697 219.151059 
L 213.77151 218.441788 
L 214.137485 218.441788 
L 214.205548 217.732518 
L 215.197565 217.732518 
L 215.197565 217.377882 
L 228.402752 217.377882 
L 228.513685 216.313976 
L 228.668195 216.313976 
L 228.668195 215.959341 
L 231.578152 215.959341 
L 231.667032 214.895435 
L 231.826572 214.895435 
L 231.887767 214.186165 
L 231.967219 214.186165 
L 232.068931 213.122259 
L 232.112807 213.122259 
L 232.196048 212.058353 
L 232.287643 212.058353 
L 232.387296 210.994447 
L 232.411737 210.994447 
L 232.500911 210.285176 
L 232.534156 210.285176 
L 232.589321 209.575906 
L 232.651851 209.575906 
L 232.722866 208.512 
L 232.772383 208.512 
L 232.842776 207.802729 
L 232.885561 207.802729 
L 232.991849 206.384188 
L 233.070628 206.384188 
L 233.169556 205.320282 
L 233.222394 205.320282 
L 233.329935 203.901741 
L 233.386272 203.901741 
L 233.471609 202.837835 
L 238.151133 202.837835 
L 238.234322 202.128565 
L 238.31588 202.128565 
L 238.384731 201.419294 
L 238.494999 201.419294 
L 238.573065 200.710024 
L 238.723277 200.710024 
L 238.802747 200.000753 
L 238.854106 200.000753 
L 238.942332 198.936847 
L 238.985008 198.936847 
L 239.03039 198.227576 
L 239.107604 198.227576 
L 239.161406 197.518306 
L 239.222051 197.518306 
L 239.293078 196.809035 
L 239.341319 196.809035 
L 239.447089 195.745129 
L 239.490301 195.745129 
L 239.600913 194.681224 
L 239.634454 194.681224 
L 239.634454 194.326588 
L 239.745749 194.326588 
L 239.836205 193.262682 
L 239.897626 193.262682 
L 239.968934 192.198776 
L 240.069513 192.198776 
L 240.155445 191.134871 
L 240.193626 191.134871 
L 240.234473 190.4256 
L 240.732983 190.4256 
L 240.825582 188.652424 
L 241.000537 188.652424 
L 241.088446 187.588518 
L 241.126743 187.588518 
L 241.210594 186.524612 
L 241.302929 186.524612 
L 241.362441 185.460706 
L 241.426056 185.460706 
L 241.489458 184.751435 
L 241.538575 184.751435 
L 241.629743 183.687529 
L 241.687067 183.687529 
L 241.769094 182.623624 
L 241.811708 182.623624 
L 241.920592 181.559718 
L 241.953166 181.559718 
L 242.058851 180.495812 
L 242.089426 180.495812 
L 242.185698 179.431906 
L 242.237863 179.431906 
L 242.334299 178.013365 
L 242.441123 178.013365 
L 242.441123 177.658729 
L 248.844785 177.658729 
L 248.844785 177.304094 
L 249.478193 177.304094 
L 249.535651 176.594824 
L 249.801239 176.594824 
L 249.869023 175.885553 
L 249.96091 175.885553 
L 249.96091 175.530918 
L 250.106933 175.530918 
L 250.106933 175.176282 
L 250.449353 175.176282 
L 250.457718 174.467012 
L 250.806187 174.467012 
L 250.806187 174.112376 
L 251.443378 174.112376 
L 251.443378 173.757741 
L 252.329549 173.757741 
L 252.329549 173.403106 
L 253.786677 173.403106 
L 253.871732 172.693835 
L 253.94731 172.693835 
L 253.94731 172.3392 
L 254.088424 172.3392 
L 254.195488 171.275294 
L 254.227618 171.275294 
L 254.32833 169.856753 
L 254.34734 169.856753 
L 254.452997 168.438212 
L 254.467001 168.438212 
L 254.570924 166.665035 
L 254.624559 166.665035 
L 254.727882 165.246494 
L 254.755103 165.246494 
L 254.841579 163.473318 
L 254.882387 163.473318 
L 254.930329 161.700141 
L 254.996878 161.700141 
L 255.077787 160.636235 
L 255.108344 160.636235 
L 255.14387 159.926965 
L 264.29687 159.926965 
L 264.29687 159.572329 
L 264.474835 159.572329 
L 264.474835 159.217694 
L 264.801441 159.217694 
L 264.874774 157.444518 
L 264.94939 157.444518 
L 265.058195 156.025976 
L 265.088775 156.025976 
L 265.176485 154.607435 
L 265.200843 154.607435 
L 265.310468 152.834259 
L 265.32815 152.834259 
L 265.427577 151.415718 
L 265.448859 151.415718 
L 265.535714 149.642541 
L 265.561603 149.642541 
L 265.659748 147.869365 
L 283.637393 147.869365 
L 283.637393 147.514729 
L 292.086106 147.443802 
L 292.194968 147.01824 
L 292.287795 146.947313 
L 292.356379 146.379896 
L 292.679271 146.308969 
L 292.785882 146.096188 
L 292.798902 146.025261 
L 292.860524 145.245064 
L 292.967238 145.174136 
L 293.027062 144.252085 
L 293.103953 144.181158 
L 293.201227 142.762616 
L 293.235967 142.691689 
L 293.339791 140.705732 
L 293.368858 140.634805 
L 293.46854 139.287191 
L 293.483759 139.287191 
L 293.568588 138.719774 
L 293.601358 138.648847 
L 293.711368 137.159379 
L 293.714864 137.088452 
L 293.80856 136.521035 
L 293.868869 136.450108 
L 293.977436 135.031567 
L 293.981375 135.031567 
L 294.081384 133.825807 
L 294.104621 133.75488 
L 294.177637 132.903755 
L 294.338699 132.832828 
L 294.448374 130.917798 
L 294.455557 130.846871 
L 294.558323 128.151642 
L 294.594301 128.080715 
L 294.665349 127.158664 
L 294.798639 127.087736 
L 294.900609 126.236612 
L 294.914663 126.165685 
L 295.017804 124.959925 
L 295.085967 124.888998 
L 295.193253 123.399529 
L 295.205547 123.328602 
L 295.298757 121.69728 
L 295.388888 121.626353 
L 295.496628 120.633374 
L 295.503022 120.562447 
L 295.611346 118.576489 
L 295.628752 118.505562 
L 295.687974 117.867219 
L 295.860198 117.796292 
L 295.954962 117.016094 
L 296.013527 116.945167 
L 296.122333 115.881261 
L 296.128987 115.810334 
L 296.238574 113.25696 
L 296.275199 113.186033 
L 296.320468 112.547689 
L 296.492044 112.476762 
L 296.598811 111.554711 
L 296.626914 111.483784 
L 296.732846 110.065242 
L 296.739384 110.065242 
L 296.819087 109.143191 
L 296.855592 109.143191 
L 296.875982 108.788555 
L 297.078646 108.717628 
L 297.188682 108.008358 
L 297.206027 107.937431 
L 297.316054 107.22816 
L 297.468279 107.157233 
L 297.578425 106.589816 
L 297.596357 106.518889 
L 297.596357 106.447962 
L 298.000331 106.377035 
L 298.102922 104.958494 
L 298.140131 104.887567 
L 298.217412 104.532932 
L 298.627297 104.462005 
L 298.736035 103.965515 
L 298.756992 103.894588 
L 298.756992 103.752734 
L 305.457709 103.681807 
L 305.551785 103.469026 
L 305.640801 103.398099 
L 305.722719 103.114391 
L 305.849935 103.043464 
L 305.904801 102.688828 
L 305.982774 102.617901 
L 306.091288 101.553995 
L 306.108143 101.483068 
L 306.197064 100.702871 
L 306.231155 100.631944 
L 306.3413 99.922673 
L 306.357847 99.851746 
L 306.456955 98.929694 
L 306.482705 98.858767 
L 306.573108 97.511153 
L 306.614834 97.440226 
L 306.723854 96.234466 
L 306.734294 96.163539 
L 306.839402 94.461289 
L 306.880156 94.390362 
L 306.989238 93.539238 
L 306.999273 93.468311 
L 307.109041 92.333478 
L 307.113013 92.262551 
L 307.222014 90.560301 
L 307.236815 90.489374 
L 307.347645 88.928979 
L 307.353512 88.858052 
L 307.454462 87.652292 
L 307.494488 87.581365 
L 307.59746 86.020969 
L 307.619937 85.950042 
L 307.729128 85.382626 
L 307.741356 85.311699 
L 307.842992 84.105939 
L 307.874881 84.035012 
L 307.97643 82.971106 
L 307.997718 82.900179 
L 308.10321 81.836273 
L 308.114832 81.765346 
L 308.204785 81.339784 
L 308.264359 81.268856 
L 308.363652 80.559586 
L 308.378086 80.488659 
L 308.447109 79.708461 
L 308.538797 79.637534 
L 308.621331 78.786409 
L 308.673101 78.715482 
L 308.778802 77.864358 
L 308.900967 77.793431 
L 308.999789 77.580649 
L 309.053102 77.509722 
L 309.141181 76.942306 
L 309.264309 76.871379 
L 309.36177 76.658598 
L 309.406052 76.587671 
L 309.406052 76.516744 
L 309.780078 76.445816 
L 309.780078 76.374889 
L 313.235943 76.303962 
L 313.241411 76.091181 
L 313.380771 76.020254 
L 313.444845 75.807473 
L 313.5198 75.736546 
L 313.62233 75.523765 
L 313.698737 75.452838 
L 313.807874 74.459859 
L 313.813753 74.388932 
L 313.924175 73.679661 
L 313.931335 73.608734 
L 314.041238 72.615755 
L 314.064881 72.544828 
L 314.163049 71.764631 
L 314.205272 71.693704 
L 314.303739 70.913506 
L 314.351262 70.842579 
L 314.450372 69.778673 
L 314.475064 69.707746 
L 314.584583 68.360132 
L 314.611315 68.289205 
L 314.72203 67.012518 
L 314.725421 66.941591 
L 314.834018 65.806758 
L 314.865576 65.735831 
L 314.968463 64.955633 
L 314.986689 64.884706 
L 315.091793 64.033581 
L 315.107015 63.962654 
L 315.213782 62.898748 
L 315.263458 62.827821 
L 315.345423 62.473186 
L 315.379553 62.402259 
L 315.469521 61.763915 
L 315.513433 61.692988 
L 315.615788 61.125572 
L 315.630725 61.054645 
L 315.719414 60.841864 
L 315.883721 60.770936 
L 315.986191 60.345374 
L 316.036406 60.274447 
L 316.102483 60.061666 
L 316.215176 59.990739 
L 316.252672 59.848885 
L 316.382762 59.777958 
L 316.401217 59.636104 
L 318.73665 59.565176 
L 318.73665 59.494249 
L 318.908539 59.423322 
L 318.958862 59.281468 
L 319.02544 59.210541 
L 319.12086 58.855906 
L 319.213247 58.784979 
L 319.315819 58.288489 
L 319.36224 58.217562 
L 319.470926 57.508292 
L 319.49755 57.437365 
L 319.600691 56.657167 
L 319.62657 56.58624 
L 319.69663 56.089751 
L 319.758453 56.018824 
L 319.858297 55.025845 
L 319.87954 54.954918 
L 319.988464 54.17472 
L 320.005741 54.103793 
L 320.115017 53.110814 
L 320.158199 53.039887 
L 320.259293 52.401544 
L 320.297372 52.330616 
L 320.394118 51.550419 
L 320.415544 51.479492 
L 320.514804 50.770221 
L 320.55506 50.699294 
L 320.660833 50.131878 
L 320.740857 50.060951 
L 320.83202 49.635388 
L 320.929366 49.564461 
L 321.003934 49.280753 
L 321.104733 49.209826 
L 321.184838 48.926118 
L 321.23049 48.855191 
L 321.23049 48.784264 
L 322.99581 48.713336 
L 322.99581 48.642409 
L 323.198902 48.571482 
L 323.305761 48.216847 
L 323.355495 48.14592 
L 323.455246 47.720358 
L 323.49839 47.649431 
L 323.605599 46.727379 
L 323.713993 46.656452 
L 323.817935 46.159962 
L 323.83436 46.089035 
L 323.934093 45.450692 
L 323.950365 45.379765 
L 324.046399 44.386786 
L 324.07264 44.315859 
L 324.121363 43.961224 
L 324.217108 43.890296 
L 324.316232 43.393807 
L 324.343919 43.32288 
L 324.450188 42.826391 
L 324.486125 42.755464 
L 324.579443 42.542682 
L 324.614253 42.471755 
L 324.652059 42.258974 
L 324.829152 42.188047 
L 324.829152 42.11712 
L 326.536995 42.046193 
L 326.581261 41.833412 
L 326.702577 41.762485 
L 326.811425 41.549704 
L 326.861839 41.478776 
L 326.966725 40.982287 
L 327.086739 40.91136 
L 327.189094 40.769506 
L 327.255116 40.698579 
L 327.333283 40.202089 
L 327.401081 40.131162 
L 327.49362 39.7056 
L 327.52973 39.634673 
L 327.61263 39.138184 
L 327.657115 39.067256 
L 327.737173 38.783548 
L 327.830147 38.712621 
L 327.915648 38.357986 
L 327.999507 38.287059 
L 328.087881 38.074278 
L 328.173026 38.003351 
L 328.272156 37.861496 
L 329.435877 37.790569 
L 329.435877 37.719642 
L 329.580696 37.648715 
L 329.580696 37.577788 
L 329.848868 37.506861 
L 329.95263 37.010372 
L 330.027778 36.939445 
L 330.092307 36.442955 
L 330.189646 36.372028 
L 330.288223 36.08832 
L 330.314838 36.017393 
L 330.393233 35.449976 
L 330.442987 35.379049 
L 330.535611 35.095341 
L 330.628431 35.024414 
L 330.660055 34.811633 
L 330.851164 34.740706 
L 330.851164 34.669779 
L 330.989146 34.598852 
L 330.989146 34.527925 
L 331.994196 34.456998 
L 332.000006 34.315144 
L 332.384839 34.244216 
L 332.390927 34.102362 
L 332.601498 34.031435 
L 332.705802 33.747727 
L 332.753629 33.6768 
L 332.775929 33.464019 
L 332.889964 33.393092 
L 332.953029 33.251238 
L 333.060538 33.180311 
L 333.077858 33.038456 
L 333.202312 32.967529 
L 333.294966 32.683821 
L 333.40325 32.612894 
L 333.501511 32.400113 
L 334.575524 32.329186 
L 334.683887 32.116405 
L 334.812225 32.045478 
L 334.911977 31.761769 
L 335.018312 31.690842 
L 335.100993 31.194353 
L 335.233544 31.123426 
L 335.233544 31.052499 
L 335.366058 30.981572 
L 335.36845 30.839718 
L 335.682659 30.768791 
L 335.700263 30.626936 
L 336.253002 30.556009 
L 336.360589 30.343228 
L 336.496835 30.272301 
L 336.602465 30.130447 
L 336.98311 30.05952 
L 337.086715 29.775812 
L 337.230824 29.704885 
L 337.230824 29.633958 
L 338.168469 29.563031 
L 338.168469 29.492104 
L 338.697932 29.421176 
L 338.734428 29.279322 
L 338.944215 29.208395 
L 338.944215 29.137468 
L 340.02688 29.066541 
L 340.031469 28.924687 
L 340.222699 28.85376 
L 340.309068 28.640979 
L 341.391001 28.570052 
L 341.391001 28.499125 
L 341.994848 28.428198 
L 341.994848 28.357271 
L 343.143921 28.286344 
L 343.168241 28.144489 
L 344.216583 28.073562 
L 344.216583 28.002635 
L 345.030977 27.931708 
L 345.030977 27.860781 
L 346.765249 27.789854 
L 346.765249 27.718927 
L 360.8064 27.648 
L 360.8064 27.648 
" style="fill: none; stroke: #ff00ff; stroke-width: 1.5; stroke-linecap: square"/>
   </g>
   <g id="line2d_41">
    <defs>
     <path id="mba00d325f2" d="M -0 8.485281 
L 5.091169 0 
L 0 -8.485281 
L -5.091169 -0 
z
" style="stroke: #ff00ff; stroke-width: 1.5; stroke-linejoin: miter"/>
    </defs>
    <g>
     <use xlink:href="#mba00d325f2" x="144.565997" y="254.259953" style="fill-opacity: 0; stroke: #ff00ff; stroke-width: 1.5; stroke-linejoin: miter"/>
     <use xlink:href="#mba00d325f2" x="228.668195" y="216.313976" style="fill-opacity: 0; stroke: #ff00ff; stroke-width: 1.5; stroke-linejoin: miter"/>
     <use xlink:href="#mba00d325f2" x="293.684013" y="137.443087" style="fill-opacity: 0; stroke: #ff00ff; stroke-width: 1.5; stroke-linejoin: miter"/>
     <use xlink:href="#mba00d325f2" x="335.053649" y="31.548988" style="fill-opacity: 0; stroke: #ff00ff; stroke-width: 1.5; stroke-linejoin: miter"/>
     <use xlink:href="#mba00d325f2" x="347.67203" y="27.648" style="fill-opacity: 0; stroke: #ff00ff; stroke-width: 1.5; stroke-linejoin: miter"/>
     <use xlink:href="#mba00d325f2" x="360.8064" y="27.648" style="fill-opacity: 0; stroke: #ff00ff; stroke-width: 1.5; stroke-linejoin: miter"/>
    </g>
   </g>
   <g id="line2d_42">
    <path style="fill: none; stroke: #ff00ff; stroke-width: 1.5; stroke-linecap: square"/>
    <g/>
   </g>
   <g id="line2d_43">
    <path d="M 293.127124 143.755595 
" clip-path="url(#pa322fd2448)" style="fill: none; stroke: #ff00ff; stroke-width: 1.5; stroke-linecap: square"/>
    <defs>
     <path id="m57b5f16071" d="M -12 12 
L 12 -12 
M -12 -12 
L 12 12 
" style="stroke: #ff00ff"/>
    </defs>
    <g clip-path="url(#pa322fd2448)">
     <use xlink:href="#m57b5f16071" x="293.127124" y="143.755595" style="fill: #ff00ff; stroke: #ff00ff"/>
    </g>
   </g>
   <g id="line2d_44">
    <path d="M 360.8064 203.192471 
L 380.514816 293.51808 
" style="fill: none; stroke: #000080; stroke-width: 1.5; stroke-linecap: square"/>
    <g>
     <use xlink:href="#m910e588970" x="360.8064" y="203.192471" style="fill-opacity: 0; stroke: #000080; stroke-width: 1.5"/>
     <use xlink:href="#m910e588970" x="380.514816" y="293.51808" style="fill-opacity: 0; stroke: #000080; stroke-width: 1.5"/>
    </g>
   </g>
   <g id="line2d_45">
    <path d="M 360.8064 27.648 
L 380.514816 163.296 
" style="fill: none; stroke: #ff00ff; stroke-width: 1.5; stroke-linecap: square"/>
    <g>
     <use xlink:href="#mba00d325f2" x="360.8064" y="27.648" style="fill-opacity: 0; stroke: #ff00ff; stroke-width: 1.5; stroke-linejoin: miter"/>
     <use xlink:href="#mba00d325f2" x="380.514816" y="163.296" style="fill-opacity: 0; stroke: #ff00ff; stroke-width: 1.5; stroke-linejoin: miter"/>
    </g>
   </g>
   <g id="line2d_46">
    <path d="M 360.8064 298.944 
L 360.8064 27.648 
" style="fill: none; stroke: #000000; stroke-width: 1.5; stroke-linecap: square"/>
   </g>
   <g id="patch_3">
    <path d="M 57.6 298.944 
L 360.8064 298.944 
" style="fill: none; stroke: #000000; stroke-width: 0.8; stroke-linejoin: miter; stroke-linecap: square"/>
   </g>
   <g id="patch_4">
    <path d="M 57.6 27.648 
L 360.8064 27.648 
" style="fill: none; stroke: #000000; stroke-width: 0.8; stroke-linejoin: miter; stroke-linecap: square"/>
   </g>
   <g id="text_13">
    <!-- ex -->
    <g transform="translate(386.578944 297.381205)scale(0.14 -0.14)">
     <defs>
      <path id="DejaVuSans-78" d="M 3513 3500 
L 2247 1797 
L 3578 0 
L 2900 0 
L 1881 1375 
L 863 0 
L 184 0 
L 1544 1831 
L 300 3500 
L 978 3500 
L 1906 2253 
L 2834 3500 
L 3513 3500 
z
" transform="scale(0.015625)"/>
     </defs>
     <use xlink:href="#DejaVuSans-65"/>
     <use xlink:href="#DejaVuSans-78" x="59.773438"/>
    </g>
   </g>
   <g id="text_14">
    <!-- CMA-ES-20 -->
    <g transform="translate(386.578944 167.159125)scale(0.14 -0.14)">
     <defs>
      <path id="DejaVuSans-43" d="M 4122 4306 
L 4122 3641 
Q 3803 3938 3442 4084 
Q 3081 4231 2675 4231 
Q 1875 4231 1450 3742 
Q 1025 3253 1025 2328 
Q 1025 1406 1450 917 
Q 1875 428 2675 428 
Q 3081 428 3442 575 
Q 3803 722 4122 1019 
L 4122 359 
Q 3791 134 3420 21 
Q 3050 -91 2638 -91 
Q 1578 -91 968 557 
Q 359 1206 359 2328 
Q 359 3453 968 4101 
Q 1578 4750 2638 4750 
Q 3056 4750 3426 4639 
Q 3797 4528 4122 4306 
z
" transform="scale(0.015625)"/>
      <path id="DejaVuSans-4d" d="M 628 4666 
L 1569 4666 
L 2759 1491 
L 3956 4666 
L 4897 4666 
L 4897 0 
L 4281 0 
L 4281 4097 
L 3078 897 
L 2444 897 
L 1241 4097 
L 1241 0 
L 628 0 
L 628 4666 
z
" transform="scale(0.015625)"/>
      <path id="DejaVuSans-41" d="M 2188 4044 
L 1331 1722 
L 3047 1722 
L 2188 4044 
z
M 1831 4666 
L 2547 4666 
L 4325 0 
L 3669 0 
L 3244 1197 
L 1141 1197 
L 716 0 
L 50 0 
L 1831 4666 
z
" transform="scale(0.015625)"/>
      <path id="DejaVuSans-45" d="M 628 4666 
L 3578 4666 
L 3578 4134 
L 1259 4134 
L 1259 2753 
L 3481 2753 
L 3481 2222 
L 1259 2222 
L 1259 531 
L 3634 531 
L 3634 0 
L 628 0 
L 628 4666 
z
" transform="scale(0.015625)"/>
      <path id="DejaVuSans-53" d="M 3425 4513 
L 3425 3897 
Q 3066 4069 2747 4153 
Q 2428 4238 2131 4238 
Q 1616 4238 1336 4038 
Q 1056 3838 1056 3469 
Q 1056 3159 1242 3001 
Q 1428 2844 1947 2747 
L 2328 2669 
Q 3034 2534 3370 2195 
Q 3706 1856 3706 1288 
Q 3706 609 3251 259 
Q 2797 -91 1919 -91 
Q 1588 -91 1214 -16 
Q 841 59 441 206 
L 441 856 
Q 825 641 1194 531 
Q 1563 422 1919 422 
Q 2459 422 2753 634 
Q 3047 847 3047 1241 
Q 3047 1584 2836 1778 
Q 2625 1972 2144 2069 
L 1759 2144 
Q 1053 2284 737 2584 
Q 422 2884 422 3419 
Q 422 4038 858 4394 
Q 1294 4750 2059 4750 
Q 2388 4750 2728 4690 
Q 3069 4631 3425 4513 
z
" transform="scale(0.015625)"/>
     </defs>
     <use xlink:href="#DejaVuSans-43"/>
     <use xlink:href="#DejaVuSans-4d" x="69.824219"/>
     <use xlink:href="#DejaVuSans-41" x="156.103516"/>
     <use xlink:href="#DejaVuSans-2d" x="222.261719"/>
     <use xlink:href="#DejaVuSans-45" x="258.345703"/>
     <use xlink:href="#DejaVuSans-53" x="321.529297"/>
     <use xlink:href="#DejaVuSans-2d" x="385.005859"/>
     <use xlink:href="#DejaVuSans-32" x="421.089844"/>
     <use xlink:href="#DejaVuSans-30" x="484.712891"/>
    </g>
   </g>
   <g id="text_15">
    <!-- best 2009 -->
    <g transform="translate(386.578944 36.937045)scale(0.14 -0.14)">
     <defs>
      <path id="DejaVuSans-62" d="M 3116 1747 
Q 3116 2381 2855 2742 
Q 2594 3103 2138 3103 
Q 1681 3103 1420 2742 
Q 1159 2381 1159 1747 
Q 1159 1113 1420 752 
Q 1681 391 2138 391 
Q 2594 391 2855 752 
Q 3116 1113 3116 1747 
z
M 1159 2969 
Q 1341 3281 1617 3432 
Q 1894 3584 2278 3584 
Q 2916 3584 3314 3078 
Q 3713 2572 3713 1747 
Q 3713 922 3314 415 
Q 2916 -91 2278 -91 
Q 1894 -91 1617 61 
Q 1341 213 1159 525 
L 1159 0 
L 581 0 
L 581 4863 
L 1159 4863 
L 1159 2969 
z
" transform="scale(0.015625)"/>
      <path id="DejaVuSans-39" d="M 703 97 
L 703 672 
Q 941 559 1184 500 
Q 1428 441 1663 441 
Q 2288 441 2617 861 
Q 2947 1281 2994 2138 
Q 2813 1869 2534 1725 
Q 2256 1581 1919 1581 
Q 1219 1581 811 2004 
Q 403 2428 403 3163 
Q 403 3881 828 4315 
Q 1253 4750 1959 4750 
Q 2769 4750 3195 4129 
Q 3622 3509 3622 2328 
Q 3622 1225 3098 567 
Q 2575 -91 1691 -91 
Q 1453 -91 1209 -44 
Q 966 3 703 97 
z
M 1959 2075 
Q 2384 2075 2632 2365 
Q 2881 2656 2881 3163 
Q 2881 3666 2632 3958 
Q 2384 4250 1959 4250 
Q 1534 4250 1286 3958 
Q 1038 3666 1038 3163 
Q 1038 2656 1286 2365 
Q 1534 2075 1959 2075 
z
" transform="scale(0.015625)"/>
     </defs>
     <use xlink:href="#DejaVuSans-62"/>
     <use xlink:href="#DejaVuSans-65" x="63.476562"/>
     <use xlink:href="#DejaVuSans-73" x="125"/>
     <use xlink:href="#DejaVuSans-74" x="177.099609"/>
     <use xlink:href="#DejaVuSans-20" x="216.308594"/>
     <use xlink:href="#DejaVuSans-32" x="248.095703"/>
     <use xlink:href="#DejaVuSans-30" x="311.71875"/>
     <use xlink:href="#DejaVuSans-30" x="375.341797"/>
     <use xlink:href="#DejaVuSans-39" x="438.964844"/>
    </g>
   </g>
   <g id="text_16">
    <!-- bbob f23, 10-D -->
    <g transform="translate(60.632064 38.111366)scale(0.102 -0.102)">
     <defs>
      <path id="DejaVuSans-33" d="M 2597 2516 
Q 3050 2419 3304 2112 
Q 3559 1806 3559 1356 
Q 3559 666 3084 287 
Q 2609 -91 1734 -91 
Q 1441 -91 1130 -33 
Q 819 25 488 141 
L 488 750 
Q 750 597 1062 519 
Q 1375 441 1716 441 
Q 2309 441 2620 675 
Q 2931 909 2931 1356 
Q 2931 1769 2642 2001 
Q 2353 2234 1838 2234 
L 1294 2234 
L 1294 2753 
L 1863 2753 
Q 2328 2753 2575 2939 
Q 2822 3125 2822 3475 
Q 2822 3834 2567 4026 
Q 2313 4219 1838 4219 
Q 1578 4219 1281 4162 
Q 984 4106 628 3988 
L 628 4550 
Q 988 4650 1302 4700 
Q 1616 4750 1894 4750 
Q 2613 4750 3031 4423 
Q 3450 4097 3450 3541 
Q 3450 3153 3228 2886 
Q 3006 2619 2597 2516 
z
" transform="scale(0.015625)"/>
      <path id="DejaVuSans-44" d="M 1259 4147 
L 1259 519 
L 2022 519 
Q 2988 519 3436 956 
Q 3884 1394 3884 2338 
Q 3884 3275 3436 3711 
Q 2988 4147 2022 4147 
L 1259 4147 
z
M 628 4666 
L 1925 4666 
Q 3281 4666 3915 4102 
Q 4550 3538 4550 2338 
Q 4550 1131 3912 565 
Q 3275 0 1925 0 
L 628 0 
L 628 4666 
z
" transform="scale(0.015625)"/>
     </defs>
     <use xlink:href="#DejaVuSans-62"/>
     <use xlink:href="#DejaVuSans-62" x="63.476562"/>
     <use xlink:href="#DejaVuSans-6f" x="126.953125"/>
     <use xlink:href="#DejaVuSans-62" x="188.134766"/>
     <use xlink:href="#DejaVuSans-20" x="251.611328"/>
     <use xlink:href="#DejaVuSans-66" x="283.398438"/>
     <use xlink:href="#DejaVuSans-32" x="318.603516"/>
     <use xlink:href="#DejaVuSans-33" x="382.226562"/>
     <use xlink:href="#DejaVuSans-2c" x="445.849609"/>
     <use xlink:href="#DejaVuSans-20" x="477.636719"/>
     <use xlink:href="#DejaVuSans-31" x="509.423828"/>
     <use xlink:href="#DejaVuSans-30" x="573.046875"/>
     <use xlink:href="#DejaVuSans-2d" x="636.669922"/>
     <use xlink:href="#DejaVuSans-44" x="672.753906"/>
    </g>
    <!-- 51 targets: 100..1e-08 -->
    <g transform="translate(60.632064 49.533135)scale(0.102 -0.102)">
     <defs>
      <path id="DejaVuSans-35" d="M 691 4666 
L 3169 4666 
L 3169 4134 
L 1269 4134 
L 1269 2991 
Q 1406 3038 1543 3061 
Q 1681 3084 1819 3084 
Q 2600 3084 3056 2656 
Q 3513 2228 3513 1497 
Q 3513 744 3044 326 
Q 2575 -91 1722 -91 
Q 1428 -91 1123 -41 
Q 819 9 494 109 
L 494 744 
Q 775 591 1075 516 
Q 1375 441 1709 441 
Q 2250 441 2565 725 
Q 2881 1009 2881 1497 
Q 2881 1984 2565 2268 
Q 2250 2553 1709 2553 
Q 1456 2553 1204 2497 
Q 953 2441 691 2322 
L 691 4666 
z
" transform="scale(0.015625)"/>
      <path id="DejaVuSans-3a" d="M 750 794 
L 1409 794 
L 1409 0 
L 750 0 
L 750 794 
z
M 750 3309 
L 1409 3309 
L 1409 2516 
L 750 2516 
L 750 3309 
z
" transform="scale(0.015625)"/>
     </defs>
     <use xlink:href="#DejaVuSans-35"/>
     <use xlink:href="#DejaVuSans-31" x="63.623047"/>
     <use xlink:href="#DejaVuSans-20" x="127.246094"/>
     <use xlink:href="#DejaVuSans-74" x="159.033203"/>
     <use xlink:href="#DejaVuSans-61" x="198.242188"/>
     <use xlink:href="#DejaVuSans-72" x="259.521484"/>
     <use xlink:href="#DejaVuSans-67" x="298.884766"/>
     <use xlink:href="#DejaVuSans-65" x="362.361328"/>
     <use xlink:href="#DejaVuSans-74" x="423.884766"/>
     <use xlink:href="#DejaVuSans-73" x="463.09375"/>
     <use xlink:href="#DejaVuSans-3a" x="515.193359"/>
     <use xlink:href="#DejaVuSans-20" x="548.884766"/>
     <use xlink:href="#DejaVuSans-31" x="580.671875"/>
     <use xlink:href="#DejaVuSans-30" x="644.294922"/>
     <use xlink:href="#DejaVuSans-30" x="707.917969"/>
     <use xlink:href="#DejaVuSans-2e" x="771.541016"/>
     <use xlink:href="#DejaVuSans-2e" x="803.328125"/>
     <use xlink:href="#DejaVuSans-31" x="835.115234"/>
     <use xlink:href="#DejaVuSans-65" x="898.738281"/>
     <use xlink:href="#DejaVuSans-2d" x="960.261719"/>
     <use xlink:href="#DejaVuSans-30" x="996.345703"/>
     <use xlink:href="#DejaVuSans-38" x="1059.96875"/>
    </g>
    <!-- 25, 15 instances -->
    <g transform="translate(60.632064 60.954904)scale(0.102 -0.102)">
     <use xlink:href="#DejaVuSans-32"/>
     <use xlink:href="#DejaVuSans-35" x="63.623047"/>
     <use xlink:href="#DejaVuSans-2c" x="127.246094"/>
     <use xlink:href="#DejaVuSans-20" x="159.033203"/>
     <use xlink:href="#DejaVuSans-31" x="190.820312"/>
     <use xlink:href="#DejaVuSans-35" x="254.443359"/>
     <use xlink:href="#DejaVuSans-20" x="318.066406"/>
     <use xlink:href="#DejaVuSans-69" x="349.853516"/>
     <use xlink:href="#DejaVuSans-6e" x="377.636719"/>
     <use xlink:href="#DejaVuSans-73" x="441.015625"/>
     <use xlink:href="#DejaVuSans-74" x="493.115234"/>
     <use xlink:href="#DejaVuSans-61" x="532.324219"/>
     <use xlink:href="#DejaVuSans-6e" x="593.603516"/>
     <use xlink:href="#DejaVuSans-63" x="656.982422"/>
     <use xlink:href="#DejaVuSans-65" x="711.962891"/>
     <use xlink:href="#DejaVuSans-73" x="773.486328"/>
    </g>
   </g>
   <g id="text_17">
    <!-- v2.6 -->
    <g style="fill: #808080" transform="translate(198.292262 294.151352)scale(0.1 -0.1)">
     <use xlink:href="#DejaVuSans-76"/>
     <use xlink:href="#DejaVuSans-32" x="59.179688"/>
     <use xlink:href="#DejaVuSans-2e" x="122.802734"/>
     <use xlink:href="#DejaVuSans-36" x="154.589844"/>
    </g>
   </g>
   <g id="text_18">
    <!-- 23 Katsuuras -->
    <g transform="translate(143.536012 21.648)scale(0.2 -0.2)">
     <defs>
      <path id="DejaVuSans-4b" d="M 628 4666 
L 1259 4666 
L 1259 2694 
L 3353 4666 
L 4166 4666 
L 1850 2491 
L 4331 0 
L 3500 0 
L 1259 2247 
L 1259 0 
L 628 0 
L 628 4666 
z
" transform="scale(0.015625)"/>
     </defs>
     <use xlink:href="#DejaVuSans-32"/>
     <use xlink:href="#DejaVuSans-33" x="63.623047"/>
     <use xlink:href="#DejaVuSans-20" x="127.246094"/>
     <use xlink:href="#DejaVuSans-4b" x="159.033203"/>
     <use xlink:href="#DejaVuSans-61" x="222.859375"/>
     <use xlink:href="#DejaVuSans-74" x="284.138672"/>
     <use xlink:href="#DejaVuSans-73" x="323.347656"/>
     <use xlink:href="#DejaVuSans-75" x="375.447266"/>
     <use xlink:href="#DejaVuSans-75" x="438.826172"/>
     <use xlink:href="#DejaVuSans-72" x="502.205078"/>
     <use xlink:href="#DejaVuSans-61" x="543.318359"/>
     <use xlink:href="#DejaVuSans-73" x="604.597656"/>
    </g>
   </g>
  </g>
 </g>
 <defs>
  <clipPath id="pa322fd2448">
   <rect x="57.6" y="27.648" width="303.2064" height="271.296"/>
  </clipPath>
 </defs>
</svg>
