<?xml version="1.0" encoding="utf-8" standalone="no"?>
<!DOCTYPE svg PUBLIC "-//W3C//DTD SVG 1.1//EN"
  "http://www.w3.org/Graphics/SVG/1.1/DTD/svg11.dtd">
<svg xmlns:xlink="http://www.w3.org/1999/xlink" width="460.8pt" height="345.6pt" viewBox="0 0 460.8 345.6" xmlns="http://www.w3.org/2000/svg" version="1.1">
 <metadata>
  <rdf:RDF xmlns:dc="http://purl.org/dc/elements/1.1/" xmlns:cc="http://creativecommons.org/ns#" xmlns:rdf="http://www.w3.org/1999/02/22-rdf-syntax-ns#">
   <cc:Work>
    <dc:type rdf:resource="http://purl.org/dc/dcmitype/StillImage"/>
    <dc:date>2022-03-16T23:35:13.783242</dc:date>
    <dc:format>image/svg+xml</dc:format>
    <dc:creator>
     <cc:Agent>
      <dc:title>Matplotlib v3.5.1, https://matplotlib.org/</dc:title>
     </cc:Agent>
    </dc:creator>
   </cc:Work>
  </rdf:RDF>
 </metadata>
 <defs>
  <style type="text/css">*{stroke-linejoin: round; stroke-linecap: butt}</style>
 </defs>
 <g id="figure_1">
  <g id="patch_1">
   <path d="M 0 345.6 
L 460.8 345.6 
L 460.8 0 
L 0 0 
z
" style="fill: #ffffff"/>
  </g>
  <g id="axes_1">
   <g id="patch_2">
    <path d="M 57.6 298.944 
L 360.8064 298.944 
L 360.8064 27.648 
L 57.6 27.648 
z
" style="fill: #ffffff"/>
   </g>
   <g id="line2d_1">
    <path d="M 109.520071 298.944 
L 109.520071 293.624471 
L 109.756698 293.624471 
L 109.756698 288.304941 
L 110.449226 288.304941 
L 110.449226 282.985412 
L 113.954374 282.985412 
L 113.954374 277.665882 
L 114.141556 277.665882 
L 114.141556 272.346353 
L 115.402131 272.346353 
L 115.402131 267.026824 
L 121.073351 267.026824 
L 121.073351 261.707294 
L 123.145323 261.707294 
L 123.145323 256.387765 
L 126.993549 256.387765 
L 126.993549 251.068235 
L 130.186674 251.068235 
L 130.186674 245.748706 
L 132.499119 245.748706 
L 132.499119 240.429176 
L 134.745971 240.429176 
L 134.745971 235.109647 
L 136.242113 235.109647 
L 136.242113 229.790118 
L 137.304564 229.790118 
L 137.304564 224.470588 
L 138.050729 224.470588 
L 138.050729 219.151059 
L 138.616919 219.151059 
L 138.616919 213.831529 
L 139.117256 213.831529 
L 139.117256 208.512 
L 139.556456 208.512 
L 139.556456 203.192471 
L 139.891105 203.192471 
L 139.891105 197.872941 
L 140.26641 197.872941 
L 140.26641 192.553412 
L 140.634374 192.553412 
L 140.634374 187.233882 
L 140.995278 187.233882 
L 140.995278 181.914353 
L 141.436884 181.914353 
L 141.436884 176.594824 
L 141.953481 176.594824 
L 141.953481 171.275294 
L 142.290162 171.275294 
L 142.290162 165.955765 
L 142.702713 165.955765 
L 142.702713 160.636235 
L 143.146307 160.636235 
L 143.146307 155.316706 
L 143.540694 155.316706 
L 143.540694 149.997176 
L 147.816265 149.997176 
L 147.816265 144.677647 
L 159.931401 144.677647 
L 159.931401 139.358118 
L 160.158636 139.358118 
L 160.158636 134.038588 
L 160.808741 134.038588 
L 160.808741 128.719059 
L 161.270586 128.719059 
L 161.270586 123.399529 
L 161.706511 123.399529 
L 161.706511 118.08 
L 161.986735 118.08 
L 161.986735 112.760471 
L 162.248415 112.760471 
L 162.248415 107.440941 
L 162.478002 107.440941 
L 162.478002 102.121412 
L 162.676617 102.121412 
L 162.676617 96.801882 
L 163.067666 96.801882 
L 163.067666 91.482353 
L 163.518345 91.482353 
L 163.518345 86.162824 
L 163.759694 86.162824 
L 163.759694 80.843294 
L 163.984826 80.843294 
L 163.984826 75.523765 
L 164.194282 75.523765 
L 164.194282 70.204235 
L 164.401432 70.204235 
L 164.401432 64.884706 
L 164.63178 64.884706 
L 164.63178 59.565176 
L 164.821605 59.565176 
L 164.821605 54.245647 
L 164.959603 54.245647 
L 164.959603 48.926118 
L 165.379853 48.926118 
L 165.379853 43.606588 
L 165.574415 43.606588 
L 165.574415 38.287059 
L 165.707018 38.287059 
L 165.707018 32.967529 
L 166.193193 32.967529 
L 166.193193 27.648 
L 360.8064 27.648 
" style="fill: none; stroke: #f5deb3; stroke-width: 4; stroke-linecap: square"/>
   </g>
   <g id="line2d_2">
    <defs>
     <path id="m5f7dcc07d9" d="M -0 7.778175 
L 7.778175 0 
L 0 -7.778175 
L -7.778175 -0 
z
" style="stroke: #f5deb3; stroke-width: 1.5; stroke-linejoin: miter"/>
    </defs>
    <g>
     <use xlink:href="#m5f7dcc07d9" x="138.050729" y="219.151059" style="fill: #f5deb3; stroke: #f5deb3; stroke-width: 1.5; stroke-linejoin: miter"/>
     <use xlink:href="#m5f7dcc07d9" x="162.676617" y="96.801882" style="fill: #f5deb3; stroke: #f5deb3; stroke-width: 1.5; stroke-linejoin: miter"/>
     <use xlink:href="#m5f7dcc07d9" x="166.193193" y="32.967529" style="fill: #f5deb3; stroke: #f5deb3; stroke-width: 1.5; stroke-linejoin: miter"/>
     <use xlink:href="#m5f7dcc07d9" x="166.193193" y="27.648" style="fill: #f5deb3; stroke: #f5deb3; stroke-width: 1.5; stroke-linejoin: miter"/>
     <use xlink:href="#m5f7dcc07d9" x="360.8064" y="27.648" style="fill: #f5deb3; stroke: #f5deb3; stroke-width: 1.5; stroke-linejoin: miter"/>
    </g>
   </g>
   <g id="line2d_3">
    <path style="fill: none; stroke: #f5deb3; stroke-width: 4; stroke-linecap: square"/>
    <g/>
   </g>
   <g id="line2d_4">
    <path d="M 360.8064 27.648 
L 380.514816 33.07392 
" style="fill: none; stroke: #f5deb3; stroke-width: 4; stroke-linecap: square"/>
    <g>
     <use xlink:href="#m5f7dcc07d9" x="360.8064" y="27.648" style="fill: #f5deb3; stroke: #f5deb3; stroke-width: 1.5; stroke-linejoin: miter"/>
     <use xlink:href="#m5f7dcc07d9" x="380.514816" y="33.07392" style="fill: #f5deb3; stroke: #f5deb3; stroke-width: 1.5; stroke-linejoin: miter"/>
    </g>
   </g>
   <g id="matplotlib.axis_1">
    <g id="xtick_1">
     <g id="line2d_5">
      <path d="M 57.6 298.944 
L 57.6 27.648 
" clip-path="url(#p3c28ba0276)" style="fill: none; stroke: #b0b0b0; stroke-width: 0.8; stroke-linecap: square"/>
     </g>
     <g id="line2d_6">
      <defs>
       <path id="m81df813a7b" d="M 0 0 
L 0 3.5 
" style="stroke: #000000; stroke-width: 0.8"/>
      </defs>
      <g>
       <use xlink:href="#m81df813a7b" x="57.6" y="298.944" style="stroke: #000000; stroke-width: 0.8"/>
      </g>
     </g>
     <g id="text_1">
      <!-- 0 -->
      <g transform="translate(52.191875 318.861344)scale(0.17 -0.17)">
       <defs>
        <path id="DejaVuSans-30" d="M 2034 4250 
Q 1547 4250 1301 3770 
Q 1056 3291 1056 2328 
Q 1056 1369 1301 889 
Q 1547 409 2034 409 
Q 2525 409 2770 889 
Q 3016 1369 3016 2328 
Q 3016 3291 2770 3770 
Q 2525 4250 2034 4250 
z
M 2034 4750 
Q 2819 4750 3233 4129 
Q 3647 3509 3647 2328 
Q 3647 1150 3233 529 
Q 2819 -91 2034 -91 
Q 1250 -91 836 529 
Q 422 1150 422 2328 
Q 422 3509 836 4129 
Q 1250 4750 2034 4750 
z
" transform="scale(0.015625)"/>
       </defs>
       <use xlink:href="#DejaVuSans-30"/>
      </g>
     </g>
    </g>
    <g id="xtick_2">
     <g id="line2d_7">
      <path d="M 144.2304 298.944 
L 144.2304 27.648 
" clip-path="url(#p3c28ba0276)" style="fill: none; stroke: #b0b0b0; stroke-width: 0.8; stroke-linecap: square"/>
     </g>
     <g id="line2d_8">
      <g>
       <use xlink:href="#m81df813a7b" x="144.2304" y="298.944" style="stroke: #000000; stroke-width: 0.8"/>
      </g>
     </g>
     <g id="text_2">
      <!-- 2 -->
      <g transform="translate(138.822275 318.861344)scale(0.17 -0.17)">
       <defs>
        <path id="DejaVuSans-32" d="M 1228 531 
L 3431 531 
L 3431 0 
L 469 0 
L 469 531 
Q 828 903 1448 1529 
Q 2069 2156 2228 2338 
Q 2531 2678 2651 2914 
Q 2772 3150 2772 3378 
Q 2772 3750 2511 3984 
Q 2250 4219 1831 4219 
Q 1534 4219 1204 4116 
Q 875 4013 500 3803 
L 500 4441 
Q 881 4594 1212 4672 
Q 1544 4750 1819 4750 
Q 2544 4750 2975 4387 
Q 3406 4025 3406 3419 
Q 3406 3131 3298 2873 
Q 3191 2616 2906 2266 
Q 2828 2175 2409 1742 
Q 1991 1309 1228 531 
z
" transform="scale(0.015625)"/>
       </defs>
       <use xlink:href="#DejaVuSans-32"/>
      </g>
     </g>
    </g>
    <g id="xtick_3">
     <g id="line2d_9">
      <path d="M 230.8608 298.944 
L 230.8608 27.648 
" clip-path="url(#p3c28ba0276)" style="fill: none; stroke: #b0b0b0; stroke-width: 0.8; stroke-linecap: square"/>
     </g>
     <g id="line2d_10">
      <g>
       <use xlink:href="#m81df813a7b" x="230.8608" y="298.944" style="stroke: #000000; stroke-width: 0.8"/>
      </g>
     </g>
     <g id="text_3">
      <!-- 4 -->
      <g transform="translate(225.452675 318.861344)scale(0.17 -0.17)">
       <defs>
        <path id="DejaVuSans-34" d="M 2419 4116 
L 825 1625 
L 2419 1625 
L 2419 4116 
z
M 2253 4666 
L 3047 4666 
L 3047 1625 
L 3713 1625 
L 3713 1100 
L 3047 1100 
L 3047 0 
L 2419 0 
L 2419 1100 
L 313 1100 
L 313 1709 
L 2253 4666 
z
" transform="scale(0.015625)"/>
       </defs>
       <use xlink:href="#DejaVuSans-34"/>
      </g>
     </g>
    </g>
    <g id="xtick_4">
     <g id="line2d_11">
      <path d="M 317.4912 298.944 
L 317.4912 27.648 
" clip-path="url(#p3c28ba0276)" style="fill: none; stroke: #b0b0b0; stroke-width: 0.8; stroke-linecap: square"/>
     </g>
     <g id="line2d_12">
      <g>
       <use xlink:href="#m81df813a7b" x="317.4912" y="298.944" style="stroke: #000000; stroke-width: 0.8"/>
      </g>
     </g>
     <g id="text_4">
      <!-- 6 -->
      <g transform="translate(312.083075 318.861344)scale(0.17 -0.17)">
       <defs>
        <path id="DejaVuSans-36" d="M 2113 2584 
Q 1688 2584 1439 2293 
Q 1191 2003 1191 1497 
Q 1191 994 1439 701 
Q 1688 409 2113 409 
Q 2538 409 2786 701 
Q 3034 994 3034 1497 
Q 3034 2003 2786 2293 
Q 2538 2584 2113 2584 
z
M 3366 4563 
L 3366 3988 
Q 3128 4100 2886 4159 
Q 2644 4219 2406 4219 
Q 1781 4219 1451 3797 
Q 1122 3375 1075 2522 
Q 1259 2794 1537 2939 
Q 1816 3084 2150 3084 
Q 2853 3084 3261 2657 
Q 3669 2231 3669 1497 
Q 3669 778 3244 343 
Q 2819 -91 2113 -91 
Q 1303 -91 875 529 
Q 447 1150 447 2328 
Q 447 3434 972 4092 
Q 1497 4750 2381 4750 
Q 2619 4750 2861 4703 
Q 3103 4656 3366 4563 
z
" transform="scale(0.015625)"/>
       </defs>
       <use xlink:href="#DejaVuSans-36"/>
      </g>
     </g>
    </g>
    <g id="xtick_5">
     <g id="line2d_13">
      <path d="M 100.9152 298.944 
L 100.9152 27.648 
" clip-path="url(#p3c28ba0276)" style="fill: none; stroke: #b0b0b0; stroke-width: 0.8; stroke-linecap: square"/>
     </g>
     <g id="line2d_14">
      <defs>
       <path id="md53b3ef03f" d="M 0 0 
L 0 2 
" style="stroke: #000000; stroke-width: 0.6"/>
      </defs>
      <g>
       <use xlink:href="#md53b3ef03f" x="100.9152" y="298.944" style="stroke: #000000; stroke-width: 0.6"/>
      </g>
     </g>
    </g>
    <g id="xtick_6">
     <g id="line2d_15">
      <path d="M 187.5456 298.944 
L 187.5456 27.648 
" clip-path="url(#p3c28ba0276)" style="fill: none; stroke: #b0b0b0; stroke-width: 0.8; stroke-linecap: square"/>
     </g>
     <g id="line2d_16">
      <g>
       <use xlink:href="#md53b3ef03f" x="187.5456" y="298.944" style="stroke: #000000; stroke-width: 0.6"/>
      </g>
     </g>
    </g>
    <g id="xtick_7">
     <g id="line2d_17">
      <path d="M 274.176 298.944 
L 274.176 27.648 
" clip-path="url(#p3c28ba0276)" style="fill: none; stroke: #b0b0b0; stroke-width: 0.8; stroke-linecap: square"/>
     </g>
     <g id="line2d_18">
      <g>
       <use xlink:href="#md53b3ef03f" x="274.176" y="298.944" style="stroke: #000000; stroke-width: 0.6"/>
      </g>
     </g>
    </g>
    <g id="xtick_8">
     <g id="line2d_19">
      <path d="M 360.8064 298.944 
L 360.8064 27.648 
" clip-path="url(#p3c28ba0276)" style="fill: none; stroke: #b0b0b0; stroke-width: 0.8; stroke-linecap: square"/>
     </g>
     <g id="line2d_20">
      <g>
       <use xlink:href="#md53b3ef03f" x="360.8064" y="298.944" style="stroke: #000000; stroke-width: 0.6"/>
      </g>
     </g>
    </g>
    <g id="text_5">
     <!-- log10(# f-evals / dimension) -->
     <g transform="translate(88.823278 339.314156)scale(0.17 -0.17)">
      <defs>
       <path id="DejaVuSans-6c" d="M 603 4863 
L 1178 4863 
L 1178 0 
L 603 0 
L 603 4863 
z
" transform="scale(0.015625)"/>
       <path id="DejaVuSans-6f" d="M 1959 3097 
Q 1497 3097 1228 2736 
Q 959 2375 959 1747 
Q 959 1119 1226 758 
Q 1494 397 1959 397 
Q 2419 397 2687 759 
Q 2956 1122 2956 1747 
Q 2956 2369 2687 2733 
Q 2419 3097 1959 3097 
z
M 1959 3584 
Q 2709 3584 3137 3096 
Q 3566 2609 3566 1747 
Q 3566 888 3137 398 
Q 2709 -91 1959 -91 
Q 1206 -91 779 398 
Q 353 888 353 1747 
Q 353 2609 779 3096 
Q 1206 3584 1959 3584 
z
" transform="scale(0.015625)"/>
       <path id="DejaVuSans-67" d="M 2906 1791 
Q 2906 2416 2648 2759 
Q 2391 3103 1925 3103 
Q 1463 3103 1205 2759 
Q 947 2416 947 1791 
Q 947 1169 1205 825 
Q 1463 481 1925 481 
Q 2391 481 2648 825 
Q 2906 1169 2906 1791 
z
M 3481 434 
Q 3481 -459 3084 -895 
Q 2688 -1331 1869 -1331 
Q 1566 -1331 1297 -1286 
Q 1028 -1241 775 -1147 
L 775 -588 
Q 1028 -725 1275 -790 
Q 1522 -856 1778 -856 
Q 2344 -856 2625 -561 
Q 2906 -266 2906 331 
L 2906 616 
Q 2728 306 2450 153 
Q 2172 0 1784 0 
Q 1141 0 747 490 
Q 353 981 353 1791 
Q 353 2603 747 3093 
Q 1141 3584 1784 3584 
Q 2172 3584 2450 3431 
Q 2728 3278 2906 2969 
L 2906 3500 
L 3481 3500 
L 3481 434 
z
" transform="scale(0.015625)"/>
       <path id="DejaVuSans-31" d="M 794 531 
L 1825 531 
L 1825 4091 
L 703 3866 
L 703 4441 
L 1819 4666 
L 2450 4666 
L 2450 531 
L 3481 531 
L 3481 0 
L 794 0 
L 794 531 
z
" transform="scale(0.015625)"/>
       <path id="DejaVuSans-28" d="M 1984 4856 
Q 1566 4138 1362 3434 
Q 1159 2731 1159 2009 
Q 1159 1288 1364 580 
Q 1569 -128 1984 -844 
L 1484 -844 
Q 1016 -109 783 600 
Q 550 1309 550 2009 
Q 550 2706 781 3412 
Q 1013 4119 1484 4856 
L 1984 4856 
z
" transform="scale(0.015625)"/>
       <path id="DejaVuSans-23" d="M 3272 2816 
L 2363 2816 
L 2100 1772 
L 3016 1772 
L 3272 2816 
z
M 2803 4594 
L 2478 3297 
L 3391 3297 
L 3719 4594 
L 4219 4594 
L 3897 3297 
L 4872 3297 
L 4872 2816 
L 3775 2816 
L 3519 1772 
L 4513 1772 
L 4513 1294 
L 3397 1294 
L 3072 0 
L 2572 0 
L 2894 1294 
L 1978 1294 
L 1656 0 
L 1153 0 
L 1478 1294 
L 494 1294 
L 494 1772 
L 1594 1772 
L 1856 2816 
L 850 2816 
L 850 3297 
L 1978 3297 
L 2297 4594 
L 2803 4594 
z
" transform="scale(0.015625)"/>
       <path id="DejaVuSans-20" transform="scale(0.015625)"/>
       <path id="DejaVuSans-66" d="M 2375 4863 
L 2375 4384 
L 1825 4384 
Q 1516 4384 1395 4259 
Q 1275 4134 1275 3809 
L 1275 3500 
L 2222 3500 
L 2222 3053 
L 1275 3053 
L 1275 0 
L 697 0 
L 697 3053 
L 147 3053 
L 147 3500 
L 697 3500 
L 697 3744 
Q 697 4328 969 4595 
Q 1241 4863 1831 4863 
L 2375 4863 
z
" transform="scale(0.015625)"/>
       <path id="DejaVuSans-2d" d="M 313 2009 
L 1997 2009 
L 1997 1497 
L 313 1497 
L 313 2009 
z
" transform="scale(0.015625)"/>
       <path id="DejaVuSans-65" d="M 3597 1894 
L 3597 1613 
L 953 1613 
Q 991 1019 1311 708 
Q 1631 397 2203 397 
Q 2534 397 2845 478 
Q 3156 559 3463 722 
L 3463 178 
Q 3153 47 2828 -22 
Q 2503 -91 2169 -91 
Q 1331 -91 842 396 
Q 353 884 353 1716 
Q 353 2575 817 3079 
Q 1281 3584 2069 3584 
Q 2775 3584 3186 3129 
Q 3597 2675 3597 1894 
z
M 3022 2063 
Q 3016 2534 2758 2815 
Q 2500 3097 2075 3097 
Q 1594 3097 1305 2825 
Q 1016 2553 972 2059 
L 3022 2063 
z
" transform="scale(0.015625)"/>
       <path id="DejaVuSans-76" d="M 191 3500 
L 800 3500 
L 1894 563 
L 2988 3500 
L 3597 3500 
L 2284 0 
L 1503 0 
L 191 3500 
z
" transform="scale(0.015625)"/>
       <path id="DejaVuSans-61" d="M 2194 1759 
Q 1497 1759 1228 1600 
Q 959 1441 959 1056 
Q 959 750 1161 570 
Q 1363 391 1709 391 
Q 2188 391 2477 730 
Q 2766 1069 2766 1631 
L 2766 1759 
L 2194 1759 
z
M 3341 1997 
L 3341 0 
L 2766 0 
L 2766 531 
Q 2569 213 2275 61 
Q 1981 -91 1556 -91 
Q 1019 -91 701 211 
Q 384 513 384 1019 
Q 384 1609 779 1909 
Q 1175 2209 1959 2209 
L 2766 2209 
L 2766 2266 
Q 2766 2663 2505 2880 
Q 2244 3097 1772 3097 
Q 1472 3097 1187 3025 
Q 903 2953 641 2809 
L 641 3341 
Q 956 3463 1253 3523 
Q 1550 3584 1831 3584 
Q 2591 3584 2966 3190 
Q 3341 2797 3341 1997 
z
" transform="scale(0.015625)"/>
       <path id="DejaVuSans-73" d="M 2834 3397 
L 2834 2853 
Q 2591 2978 2328 3040 
Q 2066 3103 1784 3103 
Q 1356 3103 1142 2972 
Q 928 2841 928 2578 
Q 928 2378 1081 2264 
Q 1234 2150 1697 2047 
L 1894 2003 
Q 2506 1872 2764 1633 
Q 3022 1394 3022 966 
Q 3022 478 2636 193 
Q 2250 -91 1575 -91 
Q 1294 -91 989 -36 
Q 684 19 347 128 
L 347 722 
Q 666 556 975 473 
Q 1284 391 1588 391 
Q 1994 391 2212 530 
Q 2431 669 2431 922 
Q 2431 1156 2273 1281 
Q 2116 1406 1581 1522 
L 1381 1569 
Q 847 1681 609 1914 
Q 372 2147 372 2553 
Q 372 3047 722 3315 
Q 1072 3584 1716 3584 
Q 2034 3584 2315 3537 
Q 2597 3491 2834 3397 
z
" transform="scale(0.015625)"/>
       <path id="DejaVuSans-2f" d="M 1625 4666 
L 2156 4666 
L 531 -594 
L 0 -594 
L 1625 4666 
z
" transform="scale(0.015625)"/>
       <path id="DejaVuSans-64" d="M 2906 2969 
L 2906 4863 
L 3481 4863 
L 3481 0 
L 2906 0 
L 2906 525 
Q 2725 213 2448 61 
Q 2172 -91 1784 -91 
Q 1150 -91 751 415 
Q 353 922 353 1747 
Q 353 2572 751 3078 
Q 1150 3584 1784 3584 
Q 2172 3584 2448 3432 
Q 2725 3281 2906 2969 
z
M 947 1747 
Q 947 1113 1208 752 
Q 1469 391 1925 391 
Q 2381 391 2643 752 
Q 2906 1113 2906 1747 
Q 2906 2381 2643 2742 
Q 2381 3103 1925 3103 
Q 1469 3103 1208 2742 
Q 947 2381 947 1747 
z
" transform="scale(0.015625)"/>
       <path id="DejaVuSans-69" d="M 603 3500 
L 1178 3500 
L 1178 0 
L 603 0 
L 603 3500 
z
M 603 4863 
L 1178 4863 
L 1178 4134 
L 603 4134 
L 603 4863 
z
" transform="scale(0.015625)"/>
       <path id="DejaVuSans-6d" d="M 3328 2828 
Q 3544 3216 3844 3400 
Q 4144 3584 4550 3584 
Q 5097 3584 5394 3201 
Q 5691 2819 5691 2113 
L 5691 0 
L 5113 0 
L 5113 2094 
Q 5113 2597 4934 2840 
Q 4756 3084 4391 3084 
Q 3944 3084 3684 2787 
Q 3425 2491 3425 1978 
L 3425 0 
L 2847 0 
L 2847 2094 
Q 2847 2600 2669 2842 
Q 2491 3084 2119 3084 
Q 1678 3084 1418 2786 
Q 1159 2488 1159 1978 
L 1159 0 
L 581 0 
L 581 3500 
L 1159 3500 
L 1159 2956 
Q 1356 3278 1631 3431 
Q 1906 3584 2284 3584 
Q 2666 3584 2933 3390 
Q 3200 3197 3328 2828 
z
" transform="scale(0.015625)"/>
       <path id="DejaVuSans-6e" d="M 3513 2113 
L 3513 0 
L 2938 0 
L 2938 2094 
Q 2938 2591 2744 2837 
Q 2550 3084 2163 3084 
Q 1697 3084 1428 2787 
Q 1159 2491 1159 1978 
L 1159 0 
L 581 0 
L 581 3500 
L 1159 3500 
L 1159 2956 
Q 1366 3272 1645 3428 
Q 1925 3584 2291 3584 
Q 2894 3584 3203 3211 
Q 3513 2838 3513 2113 
z
" transform="scale(0.015625)"/>
       <path id="DejaVuSans-29" d="M 513 4856 
L 1013 4856 
Q 1481 4119 1714 3412 
Q 1947 2706 1947 2009 
Q 1947 1309 1714 600 
Q 1481 -109 1013 -844 
L 513 -844 
Q 928 -128 1133 580 
Q 1338 1288 1338 2009 
Q 1338 2731 1133 3434 
Q 928 4138 513 4856 
z
" transform="scale(0.015625)"/>
      </defs>
      <use xlink:href="#DejaVuSans-6c"/>
      <use xlink:href="#DejaVuSans-6f" x="27.783203"/>
      <use xlink:href="#DejaVuSans-67" x="88.964844"/>
      <use xlink:href="#DejaVuSans-31" x="152.441406"/>
      <use xlink:href="#DejaVuSans-30" x="216.064453"/>
      <use xlink:href="#DejaVuSans-28" x="279.6875"/>
      <use xlink:href="#DejaVuSans-23" x="318.701172"/>
      <use xlink:href="#DejaVuSans-20" x="402.490234"/>
      <use xlink:href="#DejaVuSans-66" x="434.277344"/>
      <use xlink:href="#DejaVuSans-2d" x="463.982422"/>
      <use xlink:href="#DejaVuSans-65" x="500.066406"/>
      <use xlink:href="#DejaVuSans-76" x="561.589844"/>
      <use xlink:href="#DejaVuSans-61" x="620.769531"/>
      <use xlink:href="#DejaVuSans-6c" x="682.048828"/>
      <use xlink:href="#DejaVuSans-73" x="709.832031"/>
      <use xlink:href="#DejaVuSans-20" x="761.931641"/>
      <use xlink:href="#DejaVuSans-2f" x="793.71875"/>
      <use xlink:href="#DejaVuSans-20" x="827.410156"/>
      <use xlink:href="#DejaVuSans-64" x="859.197266"/>
      <use xlink:href="#DejaVuSans-69" x="922.673828"/>
      <use xlink:href="#DejaVuSans-6d" x="950.457031"/>
      <use xlink:href="#DejaVuSans-65" x="1047.869141"/>
      <use xlink:href="#DejaVuSans-6e" x="1109.392578"/>
      <use xlink:href="#DejaVuSans-73" x="1172.771484"/>
      <use xlink:href="#DejaVuSans-69" x="1224.871094"/>
      <use xlink:href="#DejaVuSans-6f" x="1252.654297"/>
      <use xlink:href="#DejaVuSans-6e" x="1313.835938"/>
      <use xlink:href="#DejaVuSans-29" x="1377.214844"/>
     </g>
    </g>
   </g>
   <g id="matplotlib.axis_2">
    <g id="ytick_1">
     <g id="line2d_21">
      <path d="M 57.6 298.944 
L 360.8064 298.944 
" clip-path="url(#p3c28ba0276)" style="fill: none; stroke: #b0b0b0; stroke-width: 0.8; stroke-linecap: square"/>
     </g>
     <g id="line2d_22">
      <defs>
       <path id="m3119b06152" d="M 0 0 
L -3.5 0 
" style="stroke: #000000; stroke-width: 0.8"/>
      </defs>
      <g>
       <use xlink:href="#m3119b06152" x="57.6" y="298.944" style="stroke: #000000; stroke-width: 0.8"/>
      </g>
     </g>
     <g id="text_6">
      <!-- 0.0 -->
      <g transform="translate(25.155 305.02275)scale(0.16 -0.16)">
       <defs>
        <path id="DejaVuSans-2e" d="M 684 794 
L 1344 794 
L 1344 0 
L 684 0 
L 684 794 
z
" transform="scale(0.015625)"/>
       </defs>
       <use xlink:href="#DejaVuSans-30"/>
       <use xlink:href="#DejaVuSans-2e" x="63.623047"/>
       <use xlink:href="#DejaVuSans-30" x="95.410156"/>
      </g>
     </g>
    </g>
    <g id="ytick_2">
     <g id="line2d_23">
      <path d="M 57.6 244.6848 
L 360.8064 244.6848 
" clip-path="url(#p3c28ba0276)" style="fill: none; stroke: #b0b0b0; stroke-width: 0.8; stroke-linecap: square"/>
     </g>
     <g id="line2d_24">
      <g>
       <use xlink:href="#m3119b06152" x="57.6" y="244.6848" style="stroke: #000000; stroke-width: 0.8"/>
      </g>
     </g>
     <g id="text_7">
      <!-- 0.2 -->
      <g transform="translate(25.155 250.76355)scale(0.16 -0.16)">
       <use xlink:href="#DejaVuSans-30"/>
       <use xlink:href="#DejaVuSans-2e" x="63.623047"/>
       <use xlink:href="#DejaVuSans-32" x="95.410156"/>
      </g>
     </g>
    </g>
    <g id="ytick_3">
     <g id="line2d_25">
      <path d="M 57.6 190.4256 
L 360.8064 190.4256 
" clip-path="url(#p3c28ba0276)" style="fill: none; stroke: #b0b0b0; stroke-width: 0.8; stroke-linecap: square"/>
     </g>
     <g id="line2d_26">
      <g>
       <use xlink:href="#m3119b06152" x="57.6" y="190.4256" style="stroke: #000000; stroke-width: 0.8"/>
      </g>
     </g>
     <g id="text_8">
      <!-- 0.4 -->
      <g transform="translate(25.155 196.50435)scale(0.16 -0.16)">
       <use xlink:href="#DejaVuSans-30"/>
       <use xlink:href="#DejaVuSans-2e" x="63.623047"/>
       <use xlink:href="#DejaVuSans-34" x="95.410156"/>
      </g>
     </g>
    </g>
    <g id="ytick_4">
     <g id="line2d_27">
      <path d="M 57.6 136.1664 
L 360.8064 136.1664 
" clip-path="url(#p3c28ba0276)" style="fill: none; stroke: #b0b0b0; stroke-width: 0.8; stroke-linecap: square"/>
     </g>
     <g id="line2d_28">
      <g>
       <use xlink:href="#m3119b06152" x="57.6" y="136.1664" style="stroke: #000000; stroke-width: 0.8"/>
      </g>
     </g>
     <g id="text_9">
      <!-- 0.6 -->
      <g transform="translate(25.155 142.24515)scale(0.16 -0.16)">
       <use xlink:href="#DejaVuSans-30"/>
       <use xlink:href="#DejaVuSans-2e" x="63.623047"/>
       <use xlink:href="#DejaVuSans-36" x="95.410156"/>
      </g>
     </g>
    </g>
    <g id="ytick_5">
     <g id="line2d_29">
      <path d="M 57.6 81.9072 
L 360.8064 81.9072 
" clip-path="url(#p3c28ba0276)" style="fill: none; stroke: #b0b0b0; stroke-width: 0.8; stroke-linecap: square"/>
     </g>
     <g id="line2d_30">
      <g>
       <use xlink:href="#m3119b06152" x="57.6" y="81.9072" style="stroke: #000000; stroke-width: 0.8"/>
      </g>
     </g>
     <g id="text_10">
      <!-- 0.8 -->
      <g transform="translate(25.155 87.98595)scale(0.16 -0.16)">
       <defs>
        <path id="DejaVuSans-38" d="M 2034 2216 
Q 1584 2216 1326 1975 
Q 1069 1734 1069 1313 
Q 1069 891 1326 650 
Q 1584 409 2034 409 
Q 2484 409 2743 651 
Q 3003 894 3003 1313 
Q 3003 1734 2745 1975 
Q 2488 2216 2034 2216 
z
M 1403 2484 
Q 997 2584 770 2862 
Q 544 3141 544 3541 
Q 544 4100 942 4425 
Q 1341 4750 2034 4750 
Q 2731 4750 3128 4425 
Q 3525 4100 3525 3541 
Q 3525 3141 3298 2862 
Q 3072 2584 2669 2484 
Q 3125 2378 3379 2068 
Q 3634 1759 3634 1313 
Q 3634 634 3220 271 
Q 2806 -91 2034 -91 
Q 1263 -91 848 271 
Q 434 634 434 1313 
Q 434 1759 690 2068 
Q 947 2378 1403 2484 
z
M 1172 3481 
Q 1172 3119 1398 2916 
Q 1625 2713 2034 2713 
Q 2441 2713 2670 2916 
Q 2900 3119 2900 3481 
Q 2900 3844 2670 4047 
Q 2441 4250 2034 4250 
Q 1625 4250 1398 4047 
Q 1172 3844 1172 3481 
z
" transform="scale(0.015625)"/>
       </defs>
       <use xlink:href="#DejaVuSans-30"/>
       <use xlink:href="#DejaVuSans-2e" x="63.623047"/>
       <use xlink:href="#DejaVuSans-38" x="95.410156"/>
      </g>
     </g>
    </g>
    <g id="ytick_6">
     <g id="line2d_31">
      <path d="M 57.6 27.648 
L 360.8064 27.648 
" clip-path="url(#p3c28ba0276)" style="fill: none; stroke: #b0b0b0; stroke-width: 0.8; stroke-linecap: square"/>
     </g>
     <g id="line2d_32">
      <g>
       <use xlink:href="#m3119b06152" x="57.6" y="27.648" style="stroke: #000000; stroke-width: 0.8"/>
      </g>
     </g>
     <g id="text_11">
      <!-- 1.0 -->
      <g transform="translate(25.155 33.72675)scale(0.16 -0.16)">
       <use xlink:href="#DejaVuSans-31"/>
       <use xlink:href="#DejaVuSans-2e" x="63.623047"/>
       <use xlink:href="#DejaVuSans-30" x="95.410156"/>
      </g>
     </g>
    </g>
    <g id="text_12">
     <!-- Fraction of function,target pairs -->
     <g transform="translate(17.619531 297.681)rotate(-90)scale(0.17 -0.17)">
      <defs>
       <path id="DejaVuSans-46" d="M 628 4666 
L 3309 4666 
L 3309 4134 
L 1259 4134 
L 1259 2759 
L 3109 2759 
L 3109 2228 
L 1259 2228 
L 1259 0 
L 628 0 
L 628 4666 
z
" transform="scale(0.015625)"/>
       <path id="DejaVuSans-72" d="M 2631 2963 
Q 2534 3019 2420 3045 
Q 2306 3072 2169 3072 
Q 1681 3072 1420 2755 
Q 1159 2438 1159 1844 
L 1159 0 
L 581 0 
L 581 3500 
L 1159 3500 
L 1159 2956 
Q 1341 3275 1631 3429 
Q 1922 3584 2338 3584 
Q 2397 3584 2469 3576 
Q 2541 3569 2628 3553 
L 2631 2963 
z
" transform="scale(0.015625)"/>
       <path id="DejaVuSans-63" d="M 3122 3366 
L 3122 2828 
Q 2878 2963 2633 3030 
Q 2388 3097 2138 3097 
Q 1578 3097 1268 2742 
Q 959 2388 959 1747 
Q 959 1106 1268 751 
Q 1578 397 2138 397 
Q 2388 397 2633 464 
Q 2878 531 3122 666 
L 3122 134 
Q 2881 22 2623 -34 
Q 2366 -91 2075 -91 
Q 1284 -91 818 406 
Q 353 903 353 1747 
Q 353 2603 823 3093 
Q 1294 3584 2113 3584 
Q 2378 3584 2631 3529 
Q 2884 3475 3122 3366 
z
" transform="scale(0.015625)"/>
       <path id="DejaVuSans-74" d="M 1172 4494 
L 1172 3500 
L 2356 3500 
L 2356 3053 
L 1172 3053 
L 1172 1153 
Q 1172 725 1289 603 
Q 1406 481 1766 481 
L 2356 481 
L 2356 0 
L 1766 0 
Q 1100 0 847 248 
Q 594 497 594 1153 
L 594 3053 
L 172 3053 
L 172 3500 
L 594 3500 
L 594 4494 
L 1172 4494 
z
" transform="scale(0.015625)"/>
       <path id="DejaVuSans-75" d="M 544 1381 
L 544 3500 
L 1119 3500 
L 1119 1403 
Q 1119 906 1312 657 
Q 1506 409 1894 409 
Q 2359 409 2629 706 
Q 2900 1003 2900 1516 
L 2900 3500 
L 3475 3500 
L 3475 0 
L 2900 0 
L 2900 538 
Q 2691 219 2414 64 
Q 2138 -91 1772 -91 
Q 1169 -91 856 284 
Q 544 659 544 1381 
z
M 1991 3584 
L 1991 3584 
z
" transform="scale(0.015625)"/>
       <path id="DejaVuSans-2c" d="M 750 794 
L 1409 794 
L 1409 256 
L 897 -744 
L 494 -744 
L 750 256 
L 750 794 
z
" transform="scale(0.015625)"/>
       <path id="DejaVuSans-70" d="M 1159 525 
L 1159 -1331 
L 581 -1331 
L 581 3500 
L 1159 3500 
L 1159 2969 
Q 1341 3281 1617 3432 
Q 1894 3584 2278 3584 
Q 2916 3584 3314 3078 
Q 3713 2572 3713 1747 
Q 3713 922 3314 415 
Q 2916 -91 2278 -91 
Q 1894 -91 1617 61 
Q 1341 213 1159 525 
z
M 3116 1747 
Q 3116 2381 2855 2742 
Q 2594 3103 2138 3103 
Q 1681 3103 1420 2742 
Q 1159 2381 1159 1747 
Q 1159 1113 1420 752 
Q 1681 391 2138 391 
Q 2594 391 2855 752 
Q 3116 1113 3116 1747 
z
" transform="scale(0.015625)"/>
      </defs>
      <use xlink:href="#DejaVuSans-46"/>
      <use xlink:href="#DejaVuSans-72" x="50.269531"/>
      <use xlink:href="#DejaVuSans-61" x="91.382812"/>
      <use xlink:href="#DejaVuSans-63" x="152.662109"/>
      <use xlink:href="#DejaVuSans-74" x="207.642578"/>
      <use xlink:href="#DejaVuSans-69" x="246.851562"/>
      <use xlink:href="#DejaVuSans-6f" x="274.634766"/>
      <use xlink:href="#DejaVuSans-6e" x="335.816406"/>
      <use xlink:href="#DejaVuSans-20" x="399.195312"/>
      <use xlink:href="#DejaVuSans-6f" x="430.982422"/>
      <use xlink:href="#DejaVuSans-66" x="492.164062"/>
      <use xlink:href="#DejaVuSans-20" x="527.369141"/>
      <use xlink:href="#DejaVuSans-66" x="559.15625"/>
      <use xlink:href="#DejaVuSans-75" x="594.361328"/>
      <use xlink:href="#DejaVuSans-6e" x="657.740234"/>
      <use xlink:href="#DejaVuSans-63" x="721.119141"/>
      <use xlink:href="#DejaVuSans-74" x="776.099609"/>
      <use xlink:href="#DejaVuSans-69" x="815.308594"/>
      <use xlink:href="#DejaVuSans-6f" x="843.091797"/>
      <use xlink:href="#DejaVuSans-6e" x="904.273438"/>
      <use xlink:href="#DejaVuSans-2c" x="967.652344"/>
      <use xlink:href="#DejaVuSans-74" x="999.439453"/>
      <use xlink:href="#DejaVuSans-61" x="1038.648438"/>
      <use xlink:href="#DejaVuSans-72" x="1099.927734"/>
      <use xlink:href="#DejaVuSans-67" x="1139.291016"/>
      <use xlink:href="#DejaVuSans-65" x="1202.767578"/>
      <use xlink:href="#DejaVuSans-74" x="1264.291016"/>
      <use xlink:href="#DejaVuSans-20" x="1303.5"/>
      <use xlink:href="#DejaVuSans-70" x="1335.287109"/>
      <use xlink:href="#DejaVuSans-61" x="1398.763672"/>
      <use xlink:href="#DejaVuSans-69" x="1460.042969"/>
      <use xlink:href="#DejaVuSans-72" x="1487.826172"/>
      <use xlink:href="#DejaVuSans-73" x="1528.939453"/>
     </g>
    </g>
   </g>
   <g id="line2d_33">
    <defs>
     <path id="m28f89d6999" d="M 0 1.5 
C 0.397805 1.5 0.77937 1.341951 1.06066 1.06066 
C 1.341951 0.77937 1.5 0.397805 1.5 0 
C 1.5 -0.397805 1.341951 -0.77937 1.06066 -1.06066 
C 0.77937 -1.341951 0.397805 -1.5 0 -1.5 
C -0.397805 -1.5 -0.77937 -1.341951 -1.06066 -1.06066 
C -1.341951 -0.77937 -1.5 -0.397805 -1.5 0 
C -1.5 0.397805 -1.341951 0.77937 -1.06066 1.06066 
C -0.77937 1.341951 -0.397805 1.5 0 1.5 
z
" style="stroke: #f5deb3"/>
    </defs>
    <g>
     <use xlink:href="#m28f89d6999" x="166.193193" y="27.648" style="fill: #f5deb3; stroke: #f5deb3"/>
     <use xlink:href="#m28f89d6999" x="166.193193" y="27.648" style="fill: #f5deb3; stroke: #f5deb3"/>
    </g>
   </g>
   <g id="line2d_34">
    <defs>
     <path id="mdce6087e21" d="M 0 1.5 
C 0.397805 1.5 0.77937 1.341951 1.06066 1.06066 
C 1.341951 0.77937 1.5 0.397805 1.5 0 
C 1.5 -0.397805 1.341951 -0.77937 1.06066 -1.06066 
C 0.77937 -1.341951 0.397805 -1.5 0 -1.5 
C -0.397805 -1.5 -0.77937 -1.341951 -1.06066 -1.06066 
C -1.341951 -0.77937 -1.5 -0.397805 -1.5 0 
C -1.5 0.397805 -1.341951 0.77937 -1.06066 1.06066 
C -0.77937 1.341951 -0.397805 1.5 0 1.5 
z
" style="stroke: #000080"/>
    </defs>
    <g>
     <use xlink:href="#mdce6087e21" x="213.969706" y="27.648" style="fill: #000080; stroke: #000080"/>
     <use xlink:href="#mdce6087e21" x="213.969706" y="27.648" style="fill: #000080; stroke: #000080"/>
    </g>
   </g>
   <g id="line2d_35">
    <path d="M 132.638982 298.944 
L 132.638982 298.731219 
L 132.915628 298.731219 
L 132.915628 297.880094 
L 133.120474 297.880094 
L 133.120474 297.454532 
L 133.853052 297.454532 
L 133.853052 296.816188 
L 134.176839 296.745261 
L 134.176839 296.53248 
L 134.620977 296.461553 
L 134.620977 296.248772 
L 134.87014 296.248772 
L 134.87014 295.823209 
L 134.993495 295.823209 
L 135.054871 294.688376 
L 135.237805 294.688376 
L 135.298389 293.979106 
L 135.59842 293.908179 
L 135.657857 293.057054 
L 135.835047 293.057054 
L 135.835047 292.631492 
L 136.068734 292.560565 
L 136.126705 292.418711 
L 136.299553 292.418711 
L 136.356818 291.567586 
L 136.413909 291.567586 
L 136.413909 291.354805 
L 136.527575 291.354805 
L 136.527575 290.50368 
L 136.640557 290.50368 
L 136.696795 290.007191 
L 137.250116 290.007191 
L 137.358854 286.957327 
L 137.412988 286.957327 
L 137.520791 286.035275 
L 137.574461 286.035275 
L 137.627979 285.467859 
L 137.734561 285.467859 
L 137.840541 283.127266 
L 137.945929 283.127266 
L 137.945929 282.630776 
L 138.154948 282.630776 
L 138.258593 279.864621 
L 138.310202 279.864621 
L 138.36167 278.871642 
L 138.515235 278.800715 
L 138.616919 277.594955 
L 138.718057 277.594955 
L 138.768422 276.814758 
L 138.918715 276.743831 
L 138.968547 276.176414 
L 139.067817 276.176414 
L 139.166565 274.474165 
L 139.411192 274.403238 
L 139.459738 274.119529 
L 139.604629 274.119529 
L 139.604629 274.048602 
L 139.700607 272.559134 
L 139.843661 272.559134 
L 139.93843 271.495228 
L 140.032723 271.424301 
L 140.079694 270.715031 
L 140.173284 270.715031 
L 140.26641 268.870927 
L 140.451292 268.8 
L 140.543056 268.303511 
L 140.58877 268.303511 
L 140.679868 267.736094 
L 140.770526 267.736094 
L 140.770526 267.665167 
L 140.860749 266.459407 
L 140.905699 266.459407 
L 140.995278 265.750136 
L 141.039908 265.750136 
L 141.039908 265.679209 
L 141.128852 265.324574 
L 141.261484 265.324574 
L 141.349389 264.402522 
L 141.393187 264.402522 
L 141.48048 263.551398 
L 141.610664 263.480471 
L 141.65386 263.125835 
L 141.825656 263.054908 
L 141.868361 262.345638 
L 141.995897 262.345638 
L 141.995897 262.203784 
L 142.164612 262.132856 
L 142.248405 261.352659 
L 142.290162 261.352659 
L 142.373399 260.572461 
L 142.497568 260.501534 
L 142.579895 260.288753 
L 142.702713 260.288753 
L 142.784148 259.863191 
L 142.824734 259.863191 
L 142.905644 259.295774 
L 142.945969 259.295774 
L 143.02636 258.302795 
L 143.10641 258.231868 
L 143.146307 257.94816 
L 143.225848 257.94816 
L 143.305055 257.026108 
L 143.462475 256.955181 
L 143.501625 256.600546 
L 143.657415 256.600546 
L 143.734829 256.245911 
L 143.850356 256.245911 
L 143.926981 255.607567 
L 144.155003 255.53664 
L 144.2304 255.252932 
L 144.342932 255.182005 
L 144.342932 254.898296 
L 144.454795 254.827369 
L 144.529002 254.614588 
L 144.565997 254.614588 
L 144.602918 254.259953 
L 144.749884 254.259953 
L 144.85936 253.479755 
L 144.895711 253.479755 
L 145.004344 253.196047 
L 145.076419 253.12512 
L 145.148219 252.841412 
L 145.219746 252.841412 
L 145.255407 252.628631 
L 145.397382 252.628631 
L 145.503164 252.344922 
L 145.608355 252.273995 
L 145.712961 251.848433 
L 145.920443 251.777506 
L 145.954802 251.422871 
L 146.294984 251.422871 
L 146.395851 251.068235 
L 146.562769 250.997308 
L 146.662213 250.288038 
L 146.761135 250.288038 
L 146.761135 250.004329 
L 146.989949 249.933402 
L 146.989949 249.791548 
L 147.1517 249.720621 
L 147.216013 249.578767 
L 147.375841 249.50784 
L 147.375841 249.436913 
L 147.597342 249.436913 
L 147.597342 249.295059 
L 147.722752 249.295059 
L 147.753975 248.869496 
L 147.847333 248.869496 
L 147.847333 248.656715 
L 148.367783 248.585788 
L 148.397954 248.443934 
L 148.785835 248.373007 
L 148.785835 248.160226 
L 148.932916 248.160226 
L 148.932916 248.018372 
L 149.566749 247.947445 
L 149.65155 247.592809 
L 149.903682 247.521882 
L 149.98698 246.812612 
L 150.262008 246.812612 
L 150.262008 246.599831 
L 150.398028 246.599831 
L 150.479171 246.316122 
L 150.879716 246.245195 
L 150.879716 246.174268 
L 151.220087 246.103341 
L 151.220087 246.032414 
L 151.452172 245.961487 
L 151.452172 245.748706 
L 152.571498 245.677779 
L 152.667844 245.464998 
L 153.375128 245.394071 
L 153.375128 245.181289 
L 153.787077 245.110362 
L 153.787077 245.039435 
L 154.344662 244.968508 
L 154.454223 244.826654 
L 154.628204 244.755727 
L 154.73613 244.117384 
L 154.950144 244.046456 
L 155.056244 243.195332 
L 155.119618 243.195332 
L 155.140696 242.911624 
L 155.28758 242.840696 
L 155.350181 242.556988 
L 155.577951 242.556988 
L 155.639595 242.131426 
L 155.741887 242.131426 
L 155.741887 242.060499 
L 155.762279 241.776791 
L 155.924624 241.705864 
L 156.025382 240.996593 
L 156.045469 240.996593 
L 156.145584 240.783812 
L 156.225294 240.712885 
L 156.304668 240.003614 
L 156.383708 240.003614 
L 156.462418 239.436198 
L 156.540799 239.436198 
L 156.638319 238.585073 
L 156.735336 238.585073 
L 156.831855 238.301365 
L 156.88953 238.301365 
L 156.947029 237.45024 
L 157.061501 237.379313 
L 157.137431 237.024678 
L 157.231914 236.953751 
L 157.288377 236.670042 
L 157.344671 236.670042 
L 157.438121 236.386334 
L 157.53111 236.386334 
L 157.642093 235.677064 
L 157.770751 235.606136 
L 157.770751 235.393355 
L 158.07959 235.322428 
L 158.151527 234.755012 
L 158.223191 234.684085 
L 158.330176 234.329449 
L 158.365703 234.258522 
L 158.401163 233.762033 
L 158.559911 233.691106 
L 158.665004 233.265544 
L 158.682463 233.265544 
L 158.769513 231.705148 
L 158.838864 231.634221 
L 158.907961 231.066805 
L 159.011133 231.066805 
L 159.113741 230.712169 
L 159.249688 230.712169 
L 159.334159 230.144753 
L 159.384659 230.073826 
L 159.451784 229.790118 
L 159.552023 229.790118 
L 159.568678 229.435482 
L 159.68485 229.364555 
L 159.783859 228.868066 
L 159.816746 228.868066 
L 159.882349 228.584358 
L 159.980326 228.513431 
L 160.045361 227.946014 
L 160.158636 227.875087 
L 160.174762 227.733233 
L 160.287262 227.662306 
L 160.383158 227.307671 
L 160.399093 227.307671 
L 160.494422 226.953035 
L 160.620781 226.882108 
L 160.730652 225.889129 
L 160.808741 225.818202 
L 160.902022 225.108932 
L 160.979404 225.038005 
L 161.087207 223.548536 
L 161.117894 223.548536 
L 161.209658 222.98112 
L 161.255373 222.98112 
L 161.36161 222.626485 
L 161.391854 222.626485 
L 161.497325 222.271849 
L 161.617145 222.200922 
L 161.706511 221.633506 
L 161.765853 221.633506 
L 161.765853 221.491652 
L 161.898693 221.420725 
L 161.957434 220.853308 
L 162.05979 220.853308 
L 162.132562 220.144038 
L 162.463734 220.073111 
L 162.534963 219.718475 
L 162.732982 219.647548 
L 162.831214 219.292913 
L 162.873158 219.292913 
L 162.956765 218.654569 
L 163.026155 218.654569 
L 163.122872 218.087153 
L 163.27386 218.016226 
L 163.382912 216.384904 
L 163.477818 216.384904 
L 163.585698 215.533779 
L 163.625994 215.533779 
L 163.719684 214.469873 
L 163.759694 214.398946 
L 163.812909 214.044311 
L 163.879217 214.044311 
L 163.945293 213.33504 
L 164.024277 213.264113 
L 164.102932 212.554842 
L 164.155187 212.483915 
L 164.246284 211.632791 
L 164.285191 211.632791 
L 164.388551 210.143322 
L 164.401432 210.072395 
L 164.401432 210.072395 
L 164.491347 209.504979 
L 164.568077 209.434052 
L 164.669899 208.795708 
L 164.695268 208.724781 
L 164.771172 208.441073 
L 164.834193 208.370146 
L 164.922068 207.731802 
L 165.021997 207.660875 
L 165.121398 207.235313 
L 165.146166 207.164386 
L 165.244914 206.384188 
L 165.30637 206.313261 
L 165.404283 204.469158 
L 165.44087 204.469158 
L 165.489541 204.256376 
L 165.574415 204.256376 
L 165.682978 203.050616 
L 165.707018 202.979689 
L 165.790918 202.412273 
L 165.850619 202.341346 
L 165.945747 201.490221 
L 165.969454 201.490221 
L 165.969454 201.419294 
L 166.075768 200.000753 
L 166.111072 200.000753 
L 166.216591 199.220555 
L 166.239959 199.220555 
L 166.344759 198.653139 
L 166.367969 198.653139 
L 166.367969 198.582212 
L 166.47206 198.156649 
L 166.552624 198.085722 
L 166.655701 197.376452 
L 166.701332 197.305525 
L 166.8036 195.461421 
L 166.882759 195.390494 
L 166.972821 194.823078 
L 167.006483 194.823078 
L 167.10711 193.688245 
L 167.173896 193.617318 
L 167.284683 192.978974 
L 167.306762 192.908047 
L 167.394821 192.198776 
L 167.44965 192.127849 
L 167.54794 191.844141 
L 167.569712 191.844141 
L 167.678199 191.205798 
L 167.721419 191.205798 
L 167.786064 190.922089 
L 167.850487 190.851162 
L 167.91469 190.283746 
L 168.010586 190.212819 
L 168.074246 189.858184 
L 168.158793 189.858184 
L 168.211442 188.723351 
L 168.295375 188.652424 
L 168.399768 187.730372 
L 168.482867 187.659445 
L 168.586228 187.375736 
L 168.760648 187.304809 
L 168.862497 186.099049 
L 168.872652 186.099049 
L 168.933465 185.531633 
L 169.024318 185.460706 
L 169.134768 184.680508 
L 169.204718 184.609581 
L 169.314117 183.545675 
L 169.373521 183.474748 
L 169.472115 183.049186 
L 169.560409 183.049186 
L 169.560409 182.978259 
L 169.667764 182.339915 
L 169.706651 182.339915 
L 169.813178 181.063228 
L 169.832482 180.992301 
L 169.9383 179.715614 
L 169.94789 179.715614 
L 170.053063 179.502833 
L 170.072123 179.502833 
L 170.176605 178.651708 
L 170.261661 178.651708 
L 170.365099 178.013365 
L 170.383845 177.942438 
L 170.458643 177.233167 
L 170.533144 177.16224 
L 170.616607 176.452969 
L 170.653583 176.452969 
L 170.727317 175.814626 
L 170.819081 175.743699 
L 170.892171 175.318136 
L 170.937709 175.318136 
L 171.010341 174.679793 
L 171.100737 174.608866 
L 171.145773 173.899595 
L 171.253422 173.828668 
L 171.360458 173.119398 
L 171.378239 173.119398 
L 171.484569 172.410127 
L 171.563924 172.3392 
L 171.660461 171.629929 
L 171.71291 171.559002 
L 171.81737 170.707878 
L 171.852062 170.636951 
L 171.938512 169.856753 
L 172.041731 169.785826 
L 172.135853 169.360264 
L 172.152916 169.360264 
L 172.254968 168.650993 
L 172.271923 168.650993 
L 172.356469 167.799868 
L 172.407015 167.799868 
L 172.516068 167.161525 
L 172.53279 167.161525 
L 172.641118 166.3104 
L 172.666028 166.239473 
L 172.757085 165.813911 
L 172.790088 165.813911 
L 172.88875 165.246494 
L 172.962409 165.175567 
L 173.060174 164.537224 
L 173.076419 164.537224 
L 173.165515 163.969807 
L 173.205875 163.89888 
L 173.310406 163.544245 
L 173.350456 163.473318 
L 173.430302 162.834974 
L 173.485993 162.834974 
L 173.588983 162.267558 
L 173.628445 162.196631 
L 173.683553 161.48736 
L 173.808912 161.48736 
L 173.910154 160.494381 
L 173.941196 160.423454 
L 174.003127 159.714184 
L 174.080256 159.714184 
L 174.157069 158.863059 
L 174.210652 158.863059 
L 174.271704 158.224715 
L 174.324962 158.224715 
L 174.40835 157.231736 
L 174.446132 157.160809 
L 174.544011 156.380612 
L 174.574026 156.380612 
L 174.671243 155.45856 
L 174.723384 155.45856 
L 174.827233 154.110946 
L 174.842022 154.110946 
L 174.937868 152.905186 
L 174.967261 152.834259 
L 175.069777 152.408696 
L 175.098964 152.337769 
L 175.200767 151.486645 
L 175.22251 151.486645 
L 175.309232 150.564593 
L 175.352444 150.493666 
L 175.460042 149.571614 
L 175.510044 149.500687 
L 175.616746 148.791416 
L 175.638014 148.791416 
L 175.743995 148.082146 
L 175.76512 148.011219 
L 175.863389 147.727511 
L 175.88438 147.727511 
L 175.947214 147.301948 
L 175.995939 147.301948 
L 176.099928 146.308969 
L 176.127562 146.238042 
L 176.237692 145.245064 
L 176.25827 145.174136 
L 176.360823 144.393939 
L 176.428882 144.323012 
L 176.537267 143.40096 
L 176.604692 143.330033 
L 176.604692 143.259106 
L 176.732137 143.259106 
L 176.825495 142.407981 
L 176.852084 142.407981 
L 176.852084 142.337054 
L 176.94485 141.131294 
L 177.004244 141.060367 
L 177.109374 140.492951 
L 177.12902 140.422024 
L 177.239965 139.641826 
L 177.259475 139.641826 
L 177.363192 138.719774 
L 177.453477 138.648847 
L 177.56253 137.301233 
L 177.613631 137.230306 
L 177.721762 136.804744 
L 177.74078 136.733816 
L 177.766107 136.521035 
L 177.854483 136.521035 
L 177.954979 135.244348 
L 177.973763 135.173421 
L 178.073625 133.825807 
L 178.110937 133.75488 
L 178.216255 133.045609 
L 178.228607 132.974682 
L 178.333269 132.052631 
L 178.431246 131.981704 
L 178.510479 131.556141 
L 178.553005 131.485214 
L 178.661917 130.208527 
L 178.722153 130.208527 
L 178.830093 129.286475 
L 178.853996 129.286475 
L 178.961184 128.860913 
L 179.008628 128.789986 
L 179.114942 127.938861 
L 179.150247 127.867934 
L 179.255765 126.804028 
L 179.296641 126.733101 
L 179.407144 125.811049 
L 179.412941 125.811049 
L 179.517001 124.676216 
L 179.591798 124.605289 
L 179.700586 123.186748 
L 179.717705 123.186748 
L 179.820097 122.264696 
L 179.865426 122.193769 
L 179.961389 121.200791 
L 180.000761 121.129864 
L 180.090447 120.704301 
L 180.123969 120.704301 
L 180.224179 119.782249 
L 180.25192 119.711322 
L 180.356967 118.718344 
L 180.444974 118.647416 
L 180.543493 118.009073 
L 180.559863 118.009073 
L 180.663208 116.803313 
L 180.69031 116.732386 
L 180.79833 116.094042 
L 180.814479 116.023115 
L 180.911087 115.66848 
L 180.92714 115.66848 
L 181.023172 114.817355 
L 181.081618 114.746428 
L 181.18742 113.398814 
L 181.208509 113.327887 
L 181.318841 112.334908 
L 181.386819 112.263981 
L 181.480538 111.129148 
L 181.522042 111.058221 
L 181.630555 110.419878 
L 181.6563 110.419878 
L 181.74869 109.63968 
L 181.774273 109.568753 
L 181.881346 108.150212 
L 181.916902 108.150212 
L 182.008023 107.724649 
L 182.038299 107.724649 
L 182.128837 106.731671 
L 182.153909 106.731671 
L 182.253864 105.313129 
L 182.288723 105.313129 
L 182.387967 104.391078 
L 182.417638 104.320151 
L 182.52112 103.327172 
L 182.560393 103.256245 
L 182.667971 102.121412 
L 182.687465 102.121412 
L 182.784633 100.702871 
L 182.837861 100.631944 
L 182.948674 99.071548 
L 182.967879 99.071548 
L 183.063612 97.723934 
L 183.092238 97.653007 
L 183.201566 96.589101 
L 183.215779 96.518174 
L 183.310263 95.737976 
L 183.380815 95.667049 
L 183.488484 94.106654 
L 183.493151 94.106654 
L 183.590898 93.113675 
L 183.609459 93.113675 
L 183.706604 91.766061 
L 183.729661 91.766061 
L 183.839939 91.127718 
L 183.9131 91.056791 
L 184.013234 89.638249 
L 184.031383 89.638249 
L 184.094768 88.716198 
L 184.162443 88.645271 
L 184.256782 87.155802 
L 184.283649 87.084875 
L 184.390736 85.737261 
L 184.421855 85.737261 
L 184.470653 84.957064 
L 184.54582 84.886136 
L 184.63826 83.396668 
L 184.677739 83.325741 
L 184.769535 81.9072 
L 184.821789 81.836273 
L 184.930188 81.339784 
L 184.943154 81.339784 
L 185.046562 80.275878 
L 185.068034 80.204951 
L 185.16649 79.070118 
L 185.217655 78.999191 
L 185.311097 78.28992 
L 185.336501 78.28992 
L 185.437775 77.509722 
L 185.467211 77.438795 
L 185.567785 76.162108 
L 185.626206 76.091181 
L 185.721791 75.169129 
L 185.746647 75.098202 
L 185.853977 73.892442 
L 185.903308 73.821515 
L 186.013832 72.828536 
L 186.026072 72.757609 
L 186.12371 71.906485 
L 186.160194 71.835558 
L 186.265197 70.558871 
L 186.285323 70.487944 
L 186.393631 69.069402 
L 186.417615 68.998475 
L 186.525167 67.43808 
L 186.545017 67.367153 
L 186.592571 66.870664 
L 186.675502 66.799736 
L 186.785511 65.948612 
L 186.789428 65.948612 
L 186.894881 65.02656 
L 186.953212 64.955633 
L 187.042302 64.459144 
L 187.10403 64.388216 
L 187.207738 63.466165 
L 187.219226 63.466165 
L 187.32611 62.544113 
L 187.360338 62.544113 
L 187.466425 61.622061 
L 187.504169 61.622061 
L 187.598199 60.770936 
L 187.624443 60.700009 
L 187.624443 60.700009 
L 187.717875 60.132593 
L 187.74023 60.132593 
L 187.847905 59.565176 
L 187.881197 59.494249 
L 187.980719 58.926833 
L 188.010106 58.926833 
L 188.105299 58.004781 
L 188.156358 57.933854 
L 188.243567 57.366438 
L 188.348407 57.295511 
L 188.431143 56.940875 
L 188.517089 56.869948 
L 188.616867 56.373459 
L 188.701971 56.373459 
L 188.800775 55.876969 
L 188.842961 55.806042 
L 188.927051 55.309553 
L 189.003805 55.238626 
L 189.097576 54.529355 
L 189.159832 54.458428 
L 189.256266 53.891012 
L 189.297444 53.891012 
L 189.399997 53.110814 
L 189.498603 53.039887 
L 189.569686 52.188762 
L 189.640501 52.117835 
L 189.751246 51.621346 
L 189.754592 51.621346 
L 189.831381 51.124856 
L 189.957566 51.053929 
L 190.0533 50.628367 
L 190.125601 50.55744 
L 190.207426 50.273732 
L 190.2954 50.202805 
L 190.395901 49.848169 
L 190.47978 49.777242 
L 190.576102 49.209826 
L 190.646426 49.138899 
L 190.706949 48.926118 
L 190.776786 48.855191 
L 190.858988 48.429628 
L 190.915687 48.429628 
L 190.915687 48.287774 
L 191.087884 48.216847 
L 191.19045 47.862212 
L 191.277039 47.862212 
L 191.277039 47.791285 
L 191.360161 47.223868 
L 191.455146 47.152941 
L 191.549653 46.656452 
L 191.583074 46.585525 
L 191.649739 46.018108 
L 191.755312 45.947181 
L 191.803377 45.450692 
L 191.872257 45.450692 
L 191.872257 45.379765 
L 191.982536 44.954202 
L 192.080351 44.883275 
L 192.186482 44.315859 
L 192.195299 44.315859 
L 192.286169 43.464734 
L 192.382422 43.393807 
L 192.489759 42.542682 
L 192.495544 42.542682 
L 192.605115 41.691558 
L 192.610864 41.691558 
L 192.662529 41.124141 
L 192.771134 41.053214 
L 192.810989 40.91136 
L 193.073618 40.840433 
L 193.149183 40.485798 
L 193.199392 40.485798 
L 193.199392 40.414871 
L 193.235571 40.202089 
L 193.429192 40.202089 
L 193.538945 39.634673 
L 193.626288 39.634673 
L 193.696958 39.209111 
L 193.794371 39.138184 
L 193.883225 38.783548 
L 193.971662 38.712621 
L 194.022393 38.49984 
L 194.165831 38.428913 
L 194.255586 38.216132 
L 194.431212 38.145205 
L 194.431212 38.074278 
L 194.633628 38.003351 
L 194.713475 37.861496 
L 195.011814 37.790569 
L 195.112735 37.577788 
L 195.213117 37.577788 
L 195.258114 37.365007 
L 195.444455 37.29408 
L 195.449399 37.152226 
L 195.668098 37.081299 
L 195.697391 36.939445 
L 195.845601 36.868518 
L 195.864952 36.726664 
L 196.109947 36.655736 
L 196.19566 36.513882 
L 196.396501 36.442955 
L 196.464536 36.301101 
L 196.585916 36.230174 
L 196.585916 36.159247 
L 196.748086 36.08832 
L 196.748086 36.017393 
L 196.977358 35.946466 
L 196.984193 35.804612 
L 197.210623 35.733685 
L 197.217374 35.591831 
L 197.65107 35.520904 
L 197.65107 35.449976 
L 197.810889 35.379049 
L 197.832677 35.237195 
L 197.975847 35.166268 
L 198.053483 35.024414 
L 198.150079 34.953487 
L 198.209934 34.598852 
L 198.455896 34.527925 
L 198.535775 34.315144 
L 198.661214 34.244216 
L 198.763038 33.960508 
L 198.942482 33.889581 
L 199.016237 33.747727 
L 199.077479 33.6768 
L 199.077479 33.605873 
L 199.292285 33.534946 
L 199.350628 33.322165 
L 199.532538 33.251238 
L 199.60402 32.967529 
L 199.669307 32.896602 
L 199.77369 32.754748 
L 199.875544 32.683821 
L 199.875544 32.612894 
L 200.131646 32.541967 
L 200.237334 32.400113 
L 200.422295 32.329186 
L 200.47535 32.187332 
L 200.547114 32.187332 
L 200.620483 31.903624 
L 200.927761 31.832696 
L 201.007022 31.548988 
L 201.250085 31.478061 
L 201.351496 31.194353 
L 201.443378 31.123426 
L 201.536602 30.981572 
L 201.735838 30.910645 
L 201.795905 30.768791 
L 201.980204 30.697864 
L 202.030789 30.485082 
L 202.684723 30.414155 
L 202.782054 30.05952 
L 202.823852 29.988593 
L 202.823852 29.917666 
L 203.099059 29.846739 
L 203.099059 29.775812 
L 203.274341 29.704885 
L 203.274341 29.633958 
L 203.555936 29.563031 
L 203.555936 29.492104 
L 203.766784 29.421176 
L 203.766784 29.350249 
L 204.234273 29.279322 
L 204.342421 29.137468 
L 204.646518 29.066541 
L 204.646518 28.995614 
L 205.53761 28.924687 
L 205.53761 28.85376 
L 206.695394 28.782833 
L 206.779489 28.640979 
L 207.342105 28.570052 
L 207.38671 28.428198 
L 208.09647 28.357271 
L 208.107823 28.215416 
L 208.615433 28.144489 
L 208.615433 28.073562 
L 209.425097 28.002635 
L 209.518926 27.860781 
L 211.17426 27.789854 
L 211.17426 27.718927 
L 360.8064 27.648 
L 360.8064 27.648 
" style="fill: none; stroke: #000080; stroke-width: 1.5; stroke-linecap: square"/>
   </g>
   <g id="line2d_36">
    <defs>
     <path id="mb0344b0b31" d="M 0 6 
C 1.591219 6 3.117479 5.367802 4.242641 4.242641 
C 5.367802 3.117479 6 1.591219 6 0 
C 6 -1.591219 5.367802 -3.117479 4.242641 -4.242641 
C 3.117479 -5.367802 1.591219 -6 0 -6 
C -1.591219 -6 -3.117479 -5.367802 -4.242641 -4.242641 
C -5.367802 -3.117479 -6 -1.591219 -6 0 
C -6 1.591219 -5.367802 3.117479 -4.242641 4.242641 
C -3.117479 5.367802 -1.591219 6 0 6 
z
" style="stroke: #000080; stroke-width: 1.5"/>
    </defs>
    <g>
     <use xlink:href="#mb0344b0b31" x="182.008023" y="107.866504" style="fill-opacity: 0; stroke: #000080; stroke-width: 1.5"/>
     <use xlink:href="#mb0344b0b31" x="213.969706" y="27.718927" style="fill-opacity: 0; stroke: #000080; stroke-width: 1.5"/>
     <use xlink:href="#mb0344b0b31" x="213.969706" y="27.648" style="fill-opacity: 0; stroke: #000080; stroke-width: 1.5"/>
     <use xlink:href="#mb0344b0b31" x="213.969706" y="27.648" style="fill-opacity: 0; stroke: #000080; stroke-width: 1.5"/>
     <use xlink:href="#mb0344b0b31" x="360.8064" y="27.648" style="fill-opacity: 0; stroke: #000080; stroke-width: 1.5"/>
    </g>
   </g>
   <g id="line2d_37">
    <path style="fill: none; stroke: #000080; stroke-width: 1.5; stroke-linecap: square"/>
    <g/>
   </g>
   <g id="line2d_38">
    <path d="M 103.707211 298.944 
" clip-path="url(#p3c28ba0276)" style="fill: none; stroke: #000080; stroke-width: 1.5; stroke-linecap: square"/>
    <defs>
     <path id="md035fd6cb1" d="M -12 12 
L 12 -12 
M -12 -12 
L 12 12 
" style="stroke: #000080"/>
    </defs>
    <g clip-path="url(#p3c28ba0276)">
     <use xlink:href="#md035fd6cb1" x="103.707211" y="298.944" style="fill: #000080; stroke: #000080"/>
    </g>
   </g>
   <g id="line2d_39">
    <defs>
     <path id="m556d12d536" d="M 0 1.5 
C 0.397805 1.5 0.77937 1.341951 1.06066 1.06066 
C 1.341951 0.77937 1.5 0.397805 1.5 0 
C 1.5 -0.397805 1.341951 -0.77937 1.06066 -1.06066 
C 0.77937 -1.341951 0.397805 -1.5 0 -1.5 
C -0.397805 -1.5 -0.77937 -1.341951 -1.06066 -1.06066 
C -1.341951 -0.77937 -1.5 -0.397805 -1.5 0 
C -1.5 0.397805 -1.341951 0.77937 -1.06066 1.06066 
C -0.77937 1.341951 -0.397805 1.5 0 1.5 
z
" style="stroke: #ff00ff"/>
    </defs>
    <g>
     <use xlink:href="#m556d12d536" x="205.488392" y="27.648" style="fill: #ff00ff; stroke: #ff00ff"/>
     <use xlink:href="#m556d12d536" x="205.488392" y="27.648" style="fill: #ff00ff; stroke: #ff00ff"/>
    </g>
   </g>
   <g id="line2d_40">
    <path d="M 132.428795 298.944 
L 132.428795 298.234729 
L 136.184497 298.234729 
L 136.184497 297.880094 
L 136.299553 297.880094 
L 136.299553 297.170824 
L 137.140746 297.170824 
L 137.140746 296.461553 
L 137.358854 296.461553 
L 137.358854 295.397647 
L 137.681345 295.397647 
L 137.787626 294.333741 
L 137.893309 294.333741 
L 137.893309 293.979106 
L 138.050729 293.979106 
L 138.050729 293.624471 
L 138.258593 293.624471 
L 138.258593 293.269835 
L 138.515235 293.269835 
L 138.566146 292.205929 
L 138.718057 292.205929 
L 138.768422 290.078118 
L 138.868751 290.078118 
L 138.868751 289.723482 
L 139.117256 289.723482 
L 139.117256 289.368847 
L 139.459738 289.368847 
L 139.508159 287.950306 
L 139.652679 287.950306 
L 139.748412 286.8864 
L 139.796097 286.8864 
L 139.796097 286.531765 
L 139.985636 286.531765 
L 139.985636 285.822494 
L 140.126547 285.822494 
L 140.173284 284.758588 
L 140.451292 284.758588 
L 140.49723 283.340047 
L 140.725251 283.340047 
L 140.770526 282.630776 
L 140.860749 282.630776 
L 140.950542 281.566871 
L 140.995278 281.566871 
L 141.084433 280.148329 
L 141.173167 280.148329 
L 141.217377 279.084424 
L 141.48048 279.084424 
L 141.56737 276.956612 
L 141.868361 276.956612 
L 141.910969 274.474165 
L 142.038218 274.474165 
L 142.038218 273.764894 
L 142.331827 273.764894 
L 142.41488 271.637082 
L 142.538777 271.637082 
L 142.579895 270.573176 
L 142.702713 270.573176 
L 142.702713 270.218541 
L 142.905644 270.218541 
L 142.905644 269.509271 
L 143.02636 269.509271 
L 143.02636 269.154635 
L 143.423243 269.154635 
L 143.423243 268.8 
L 143.734829 268.8 
L 143.811926 266.672188 
L 143.888708 266.672188 
L 143.965177 264.544376 
L 144.003296 264.544376 
L 144.003296 264.189741 
L 144.155003 264.189741 
L 144.155003 263.835106 
L 144.342932 263.835106 
L 144.342932 263.480471 
L 144.602918 263.480471 
L 144.71325 262.061929 
L 144.895711 262.061929 
L 144.931992 261.352659 
L 145.184016 261.352659 
L 145.291002 259.934118 
L 145.397382 259.934118 
L 145.503164 258.870212 
L 145.573357 258.870212 
L 145.643288 258.160941 
L 145.886021 258.160941 
L 145.989098 257.097035 
L 146.023332 257.097035 
L 146.057504 255.678494 
L 146.227438 255.678494 
L 146.227438 255.323859 
L 146.429353 255.323859 
L 146.529503 254.259953 
L 146.957431 254.259953 
L 146.957431 253.905318 
L 147.216013 253.905318 
L 147.216013 253.550682 
L 147.471089 253.550682 
L 147.471089 253.196047 
L 147.628773 253.196047 
L 147.628773 252.841412 
L 147.785146 252.841412 
L 147.847333 251.777506 
L 148.03267 251.777506 
L 148.03267 251.422871 
L 148.962194 251.422871 
L 148.962194 251.068235 
L 149.136916 251.068235 
L 149.136916 250.7136 
L 149.252502 250.7136 
L 149.338728 250.004329 
L 149.623325 250.004329 
L 149.623325 249.295059 
L 149.875833 249.295059 
L 149.875833 248.940424 
L 150.932483 248.940424 
L 150.932483 248.585788 
L 151.349377 248.585788 
L 151.375128 247.876518 
L 152.595631 247.876518 
L 152.595631 247.521882 
L 153.696309 247.521882 
L 153.696309 247.167247 
L 154.012098 247.167247 
L 154.012098 246.812612 
L 154.234459 246.812612 
L 154.234459 246.457976 
L 154.693034 246.457976 
L 154.693034 246.103341 
L 154.971412 246.103341 
L 154.971412 245.748706 
L 155.28758 245.748706 
L 155.28758 245.394071 
L 155.454055 245.394071 
L 155.474761 244.6848 
L 155.639595 244.6848 
L 155.639595 243.620894 
L 156.005274 243.620894 
L 156.005274 243.266259 
L 156.205398 243.266259 
L 156.205398 242.911624 
L 156.735336 242.911624 
L 156.735336 242.556988 
L 156.908716 242.556988 
L 157.004352 241.847718 
L 157.04247 241.847718 
L 157.080512 240.074541 
L 157.175281 240.074541 
L 157.194177 239.365271 
L 157.325925 239.365271 
L 157.325925 239.010635 
L 157.475372 239.010635 
L 157.568177 238.301365 
L 157.69734 238.301365 
L 157.789059 236.882824 
L 157.98928 236.882824 
L 158.043518 235.818918 
L 158.133569 235.818918 
L 158.133569 235.464282 
L 158.734741 235.464282 
L 158.734741 235.109647 
L 158.890711 235.109647 
L 158.890711 234.755012 
L 159.011133 234.755012 
L 159.011133 234.400376 
L 159.164837 234.400376 
L 159.164837 233.691106 
L 159.317295 233.691106 
L 159.334159 232.981835 
L 159.585318 232.981835 
L 159.585318 232.6272 
L 159.701388 232.6272 
L 159.783859 231.563294 
L 159.833168 231.563294 
L 159.865969 230.144753 
L 160.029123 230.144753 
L 160.029123 228.726212 
L 160.142495 228.726212 
L 160.206974 228.016941 
L 160.271232 228.016941 
L 160.335271 226.5984 
L 160.636516 226.5984 
L 160.730652 225.889129 
L 160.793149 225.889129 
L 160.902022 223.761318 
L 160.979404 223.761318 
L 161.087207 221.633506 
L 161.102557 221.633506 
L 161.102557 220.924235 
L 161.331318 220.924235 
L 161.331318 219.860329 
L 161.452196 219.860329 
L 161.512345 219.151059 
L 161.617145 219.151059 
L 161.706511 218.087153 
L 161.810238 218.087153 
L 161.810238 217.732518 
L 161.942766 217.732518 
L 162.045202 216.668612 
L 162.088932 216.668612 
L 162.088932 215.604706 
L 162.277267 215.604706 
L 162.349204 214.186165 
L 162.506504 214.186165 
L 162.534963 213.476894 
L 162.6625 213.476894 
L 162.704821 211.703718 
L 162.859187 211.703718 
L 162.956765 210.994447 
L 162.970663 210.994447 
L 162.970663 210.639812 
L 163.191653 210.639812 
L 163.232801 209.575906 
L 163.314829 209.575906 
L 163.423645 208.512 
L 163.531835 208.512 
L 163.531835 208.157365 
L 163.759694 208.157365 
L 163.82619 207.448094 
L 163.945293 207.448094 
L 164.050532 206.738824 
L 164.129077 206.738824 
L 164.220301 205.320282 
L 164.259262 205.320282 
L 164.362764 203.901741 
L 164.401432 203.901741 
L 164.478528 202.837835 
L 164.542535 202.837835 
L 164.593584 200.000753 
L 164.745905 200.000753 
L 164.821605 199.291482 
L 164.859342 199.291482 
L 164.909539 198.227576 
L 165.084184 198.227576 
L 165.096597 197.518306 
L 165.220276 197.518306 
L 165.330896 195.390494 
L 165.50169 195.390494 
L 165.50169 194.681224 
L 165.658907 194.681224 
L 165.695002 193.617318 
L 165.778956 193.617318 
L 165.874446 190.070965 
L 165.91013 190.070965 
L 165.92201 189.361694 
L 166.204896 189.361694 
L 166.309891 187.588518 
L 166.379563 187.588518 
L 166.448979 185.815341 
L 166.552624 185.815341 
L 166.632844 184.3968 
L 166.792265 184.3968 
L 166.792265 184.042165 
L 166.950346 184.042165 
L 166.995269 182.268988 
L 167.095955 182.268988 
L 167.196106 179.786541 
L 167.262578 179.786541 
L 167.372845 178.013365 
L 167.4058 178.013365 
L 167.4058 177.304094 
L 167.54794 177.304094 
L 167.54794 176.949459 
L 167.710623 176.949459 
L 167.753769 176.240188 
L 167.829037 176.240188 
L 167.936043 172.693835 
L 167.957371 172.693835 
L 168.03183 171.629929 
L 168.127132 171.629929 
L 168.127132 170.566024 
L 168.326754 170.566024 
L 168.430973 167.728941 
L 168.52428 167.728941 
L 168.627414 166.665035 
L 168.658244 166.665035 
L 168.699272 165.955765 
L 168.872652 165.955765 
L 168.973898 163.118682 
L 168.983993 163.118682 
L 169.034386 162.054776 
L 169.234617 162.054776 
L 169.304197 160.990871 
L 169.481946 160.990871 
L 169.550619 159.572329 
L 169.599518 159.572329 
L 169.687218 158.153788 
L 169.784185 158.153788 
L 169.793854 157.089882 
L 169.919104 157.089882 
L 170.00533 155.316706 
L 170.157651 155.316706 
L 170.261661 153.188894 
L 170.336945 153.188894 
L 170.383845 151.770353 
L 170.449309 151.770353 
L 170.49593 151.061082 
L 170.570284 151.061082 
L 170.662815 149.287906 
L 170.809925 149.287906 
L 170.809925 148.933271 
L 171.010341 148.933271 
L 171.010341 148.578635 
L 171.136775 148.578635 
L 171.208643 147.160094 
L 171.253422 147.160094 
L 171.280238 146.450824 
L 171.484569 146.450824 
L 171.563924 145.386918 
L 171.67796 145.386918 
L 171.739079 144.677647 
L 171.843395 144.677647 
L 171.947136 143.259106 
L 172.161441 143.259106 
L 172.161441 142.904471 
L 172.3986 142.904471 
L 172.3986 142.549835 
L 172.524431 142.549835 
L 172.632807 141.131294 
L 172.732295 141.131294 
L 172.814802 140.067388 
L 173.003206 140.067388 
L 173.003206 139.712753 
L 173.133165 139.712753 
L 173.133165 139.358118 
L 173.278305 139.358118 
L 173.318423 138.294212 
L 173.390421 138.294212 
L 173.438268 137.230306 
L 173.501874 137.230306 
L 173.604778 135.811765 
L 173.659955 135.811765 
L 173.659955 135.457129 
L 173.816719 135.457129 
L 173.871279 134.393224 
L 174.010854 134.393224 
L 174.087951 133.683953 
L 174.195358 133.683953 
L 174.248833 132.620047 
L 174.347741 132.620047 
L 174.400785 131.556141 
L 174.468765 131.556141 
L 174.468765 131.201506 
L 174.618958 131.201506 
L 174.678701 130.1376 
L 174.738254 130.1376 
L 174.834629 129.073694 
L 174.901062 129.073694 
L 174.959917 128.364424 
L 175.142661 128.364424 
L 175.244228 127.655153 
L 175.273147 127.655153 
L 175.352444 126.236612 
L 175.488631 126.236612 
L 175.567027 125.527341 
L 175.666334 125.527341 
L 175.751039 123.754165 
L 175.849382 123.754165 
L 175.849382 123.399529 
L 175.995939 123.399529 
L 176.009838 122.690259 
L 176.11375 122.690259 
L 176.175823 121.980988 
L 176.237692 121.980988 
L 176.237692 121.626353 
L 176.374454 121.626353 
L 176.476377 119.853176 
L 176.523753 119.853176 
L 176.537267 119.143906 
L 176.698683 119.143906 
L 176.758858 118.434635 
L 176.878635 118.434635 
L 176.951458 117.370729 
L 176.991062 117.370729 
L 177.070019 115.952188 
L 177.194361 115.952188 
L 177.220434 114.888282 
L 177.421282 114.888282 
L 177.530521 113.469741 
L 177.613631 113.469741 
L 177.702725 112.760471 
L 177.766107 112.760471 
L 177.797717 111.696565 
L 177.954979 111.696565 
L 178.036239 110.632659 
L 178.073625 110.632659 
L 178.166767 109.568753 
L 178.197712 109.568753 
L 178.302547 108.150212 
L 178.357812 108.150212 
L 178.437353 106.731671 
L 178.510479 106.731671 
L 178.540864 105.667765 
L 178.667949 105.667765 
L 178.764203 104.603859 
L 178.794182 104.603859 
L 178.883832 103.539953 
L 178.967121 103.539953 
L 179.055953 101.766776 
L 179.162 101.766776 
L 179.214801 101.057506 
L 179.279134 101.057506 
L 179.302473 100.348235 
L 179.401344 100.348235 
L 179.493926 99.284329 
L 179.540047 99.284329 
L 179.591798 98.575059 
L 179.677735 98.575059 
L 179.774658 97.156518 
L 179.825769 97.156518 
L 179.927575 95.737976 
L 180.01761 95.737976 
L 180.051262 95.028706 
L 180.12955 95.028706 
L 180.190835 94.319435 
L 180.263006 94.319435 
L 180.345937 92.546259 
L 180.433996 92.546259 
L 180.516178 91.836988 
L 180.598003 91.836988 
L 180.706553 90.773082 
L 180.738996 90.773082 
L 180.814479 89.709176 
L 180.862845 89.709176 
L 180.969881 88.645271 
L 180.996545 88.645271 
L 181.044446 87.226729 
L 181.176866 87.226729 
L 181.219045 86.517459 
L 181.339783 86.517459 
L 181.433737 85.453553 
L 181.459752 85.453553 
L 181.55311 83.325741 
L 181.625402 83.325741 
L 181.717944 81.552565 
L 181.896592 81.552565 
L 182.002973 80.134024 
L 182.048381 80.134024 
L 182.158919 78.006212 
L 182.233915 78.006212 
L 182.323518 76.587671 
L 182.36816 76.587671 
L 182.471914 75.169129 
L 182.584897 75.169129 
L 182.584897 74.814494 
L 182.716668 74.814494 
L 182.813685 74.105224 
L 182.900575 74.105224 
L 182.972677 73.395953 
L 183.211043 73.395953 
L 183.314974 72.332047 
L 183.324394 72.332047 
L 183.366726 71.622776 
L 183.79866 71.622776 
L 183.881127 70.204235 
L 183.9131 70.204235 
L 183.9131 69.8496 
L 184.166946 69.8496 
L 184.166946 69.494965 
L 184.372931 69.494965 
L 184.479512 68.785694 
L 184.607497 68.785694 
L 184.633869 68.076424 
L 184.725878 68.076424 
L 184.800034 67.012518 
L 184.839175 67.012518 
L 184.839175 66.657882 
L 184.977687 66.657882 
L 185.003545 65.948612 
L 185.119467 65.948612 
L 185.209137 65.239341 
L 185.311097 65.239341 
L 185.395644 64.175435 
L 185.441983 64.175435 
L 185.517565 63.111529 
L 185.725936 63.111529 
L 185.77147 62.047624 
L 185.927925 62.047624 
L 185.997499 61.338353 
L 186.12371 61.338353 
L 186.156144 60.629082 
L 186.445558 60.629082 
L 186.541048 59.919812 
L 186.600485 59.919812 
L 186.600485 59.565176 
L 186.714865 59.565176 
L 186.761992 58.501271 
L 187.173232 58.501271 
L 187.265108 57.082729 
L 187.379326 57.082729 
L 187.451306 56.373459 
L 187.803424 56.373459 
L 187.866408 55.309553 
L 188.181836 55.309553 
L 188.225432 54.245647 
L 188.474165 54.245647 
L 188.513516 53.536376 
L 188.712582 53.536376 
L 188.765547 52.472471 
L 189.010767 52.472471 
L 189.010767 52.117835 
L 189.125271 52.117835 
L 189.183987 51.053929 
L 189.276866 51.053929 
L 189.276866 50.699294 
L 189.393178 50.699294 
L 189.495211 49.280753 
L 189.59332 49.280753 
L 189.647231 48.216847 
L 189.711051 48.216847 
L 189.727809 47.507576 
L 189.934385 47.507576 
L 190.023641 46.443671 
L 190.066466 46.443671 
L 190.066466 46.089035 
L 190.249835 46.089035 
L 190.321387 45.379765 
L 190.534423 45.379765 
L 190.643235 44.315859 
L 190.738725 44.315859 
L 190.757765 43.606588 
L 190.940832 43.606588 
L 191.034827 42.897318 
L 191.159428 42.897318 
L 191.159428 42.542682 
L 191.332494 42.542682 
L 191.421496 41.833412 
L 191.640662 41.833412 
L 191.640662 41.478776 
L 193.24391 41.478776 
L 193.24391 41.124141 
L 194.548256 41.124141 
L 194.548256 40.769506 
L 195.68275 40.769506 
L 195.68275 40.414871 
L 196.37769 40.414871 
L 196.37769 40.060235 
L 196.892853 40.060235 
L 196.892853 39.7056 
L 197.598228 39.7056 
L 197.598228 39.350965 
L 198.132943 39.350965 
L 198.132943 38.996329 
L 198.322712 38.996329 
L 198.322712 38.641694 
L 198.609049 38.641694 
L 198.609049 38.287059 
L 198.785821 38.287059 
L 198.785821 37.932424 
L 199.032588 37.932424 
L 199.032588 37.577788 
L 199.22163 37.577788 
L 199.22163 37.223153 
L 199.526569 37.223153 
L 199.526569 36.868518 
L 200.091135 36.868518 
L 200.091135 36.513882 
L 200.477242 36.513882 
L 200.477242 36.159247 
L 200.827749 36.159247 
L 200.827749 35.804612 
L 201.19189 35.804612 
L 201.19189 35.449976 
L 201.452362 35.449976 
L 201.452362 35.095341 
L 201.716363 35.095341 
L 201.716363 34.740706 
L 202.037756 34.740706 
L 202.037756 34.386071 
L 202.252451 34.386071 
L 202.252451 34.031435 
L 202.580121 34.031435 
L 202.580121 33.6768 
L 202.855556 33.6768 
L 202.855556 33.322165 
L 203.125373 33.322165 
L 203.125373 32.967529 
L 203.264555 32.967529 
L 203.264555 32.612894 
L 203.454465 32.612894 
L 203.454465 32.258259 
L 203.575202 32.258259 
L 203.575202 31.903624 
L 203.827047 31.903624 
L 203.827047 31.548988 
L 204.130174 31.548988 
L 204.130174 31.194353 
L 204.322384 31.194353 
L 204.322384 30.839718 
L 204.53096 30.839718 
L 204.53096 30.485082 
L 204.69345 30.485082 
L 204.791478 29.775812 
L 204.966652 29.775812 
L 205.070682 29.066541 
L 205.205067 29.066541 
L 205.277032 28.357271 
L 205.437591 28.357271 
L 205.488392 27.648 
L 360.8064 27.648 
L 360.8064 27.648 
" style="fill: none; stroke: #ff00ff; stroke-width: 1.5; stroke-linecap: square"/>
   </g>
   <g id="line2d_41">
    <defs>
     <path id="mb0cd7cf91c" d="M -0 8.485281 
L 5.091169 0 
L 0 -8.485281 
L -5.091169 -0 
z
" style="stroke: #ff00ff; stroke-width: 1.5; stroke-linejoin: miter"/>
    </defs>
    <g>
     <use xlink:href="#mb0cd7cf91c" x="178.197712" y="109.214118" style="fill-opacity: 0; stroke: #ff00ff; stroke-width: 1.5; stroke-linejoin: miter"/>
     <use xlink:href="#mb0cd7cf91c" x="205.488392" y="28.002635" style="fill-opacity: 0; stroke: #ff00ff; stroke-width: 1.5; stroke-linejoin: miter"/>
     <use xlink:href="#mb0cd7cf91c" x="205.488392" y="27.648" style="fill-opacity: 0; stroke: #ff00ff; stroke-width: 1.5; stroke-linejoin: miter"/>
     <use xlink:href="#mb0cd7cf91c" x="205.488392" y="27.648" style="fill-opacity: 0; stroke: #ff00ff; stroke-width: 1.5; stroke-linejoin: miter"/>
     <use xlink:href="#mb0cd7cf91c" x="360.8064" y="27.648" style="fill-opacity: 0; stroke: #ff00ff; stroke-width: 1.5; stroke-linejoin: miter"/>
    </g>
   </g>
   <g id="line2d_42">
    <path style="fill: none; stroke: #ff00ff; stroke-width: 1.5; stroke-linecap: square"/>
    <g/>
   </g>
   <g id="line2d_43">
    <path d="M 360.8064 27.648 
L 380.514816 293.51808 
" style="fill: none; stroke: #000080; stroke-width: 1.5; stroke-linecap: square"/>
    <g>
     <use xlink:href="#mb0344b0b31" x="360.8064" y="27.648" style="fill-opacity: 0; stroke: #000080; stroke-width: 1.5"/>
     <use xlink:href="#mb0344b0b31" x="380.514816" y="293.51808" style="fill-opacity: 0; stroke: #000080; stroke-width: 1.5"/>
    </g>
   </g>
   <g id="line2d_44">
    <path d="M 360.8064 27.648 
L 380.514816 163.296 
" style="fill: none; stroke: #ff00ff; stroke-width: 1.5; stroke-linecap: square"/>
    <g>
     <use xlink:href="#mb0cd7cf91c" x="360.8064" y="27.648" style="fill-opacity: 0; stroke: #ff00ff; stroke-width: 1.5; stroke-linejoin: miter"/>
     <use xlink:href="#mb0cd7cf91c" x="380.514816" y="163.296" style="fill-opacity: 0; stroke: #ff00ff; stroke-width: 1.5; stroke-linejoin: miter"/>
    </g>
   </g>
   <g id="line2d_45">
    <path d="M 360.8064 298.944 
L 360.8064 27.648 
" style="fill: none; stroke: #000000; stroke-width: 1.5; stroke-linecap: square"/>
   </g>
   <g id="patch_3">
    <path d="M 57.6 298.944 
L 360.8064 298.944 
" style="fill: none; stroke: #000000; stroke-width: 0.8; stroke-linejoin: miter; stroke-linecap: square"/>
   </g>
   <g id="patch_4">
    <path d="M 57.6 27.648 
L 360.8064 27.648 
" style="fill: none; stroke: #000000; stroke-width: 0.8; stroke-linejoin: miter; stroke-linecap: square"/>
   </g>
   <g id="text_13">
    <!-- ex -->
    <g transform="translate(386.578944 297.381205)scale(0.14 -0.14)">
     <defs>
      <path id="DejaVuSans-78" d="M 3513 3500 
L 2247 1797 
L 3578 0 
L 2900 0 
L 1881 1375 
L 863 0 
L 184 0 
L 1544 1831 
L 300 3500 
L 978 3500 
L 1906 2253 
L 2834 3500 
L 3513 3500 
z
" transform="scale(0.015625)"/>
     </defs>
     <use xlink:href="#DejaVuSans-65"/>
     <use xlink:href="#DejaVuSans-78" x="59.773438"/>
    </g>
   </g>
   <g id="text_14">
    <!-- CMA-ES-20 -->
    <g transform="translate(386.578944 167.159125)scale(0.14 -0.14)">
     <defs>
      <path id="DejaVuSans-43" d="M 4122 4306 
L 4122 3641 
Q 3803 3938 3442 4084 
Q 3081 4231 2675 4231 
Q 1875 4231 1450 3742 
Q 1025 3253 1025 2328 
Q 1025 1406 1450 917 
Q 1875 428 2675 428 
Q 3081 428 3442 575 
Q 3803 722 4122 1019 
L 4122 359 
Q 3791 134 3420 21 
Q 3050 -91 2638 -91 
Q 1578 -91 968 557 
Q 359 1206 359 2328 
Q 359 3453 968 4101 
Q 1578 4750 2638 4750 
Q 3056 4750 3426 4639 
Q 3797 4528 4122 4306 
z
" transform="scale(0.015625)"/>
      <path id="DejaVuSans-4d" d="M 628 4666 
L 1569 4666 
L 2759 1491 
L 3956 4666 
L 4897 4666 
L 4897 0 
L 4281 0 
L 4281 4097 
L 3078 897 
L 2444 897 
L 1241 4097 
L 1241 0 
L 628 0 
L 628 4666 
z
" transform="scale(0.015625)"/>
      <path id="DejaVuSans-41" d="M 2188 4044 
L 1331 1722 
L 3047 1722 
L 2188 4044 
z
M 1831 4666 
L 2547 4666 
L 4325 0 
L 3669 0 
L 3244 1197 
L 1141 1197 
L 716 0 
L 50 0 
L 1831 4666 
z
" transform="scale(0.015625)"/>
      <path id="DejaVuSans-45" d="M 628 4666 
L 3578 4666 
L 3578 4134 
L 1259 4134 
L 1259 2753 
L 3481 2753 
L 3481 2222 
L 1259 2222 
L 1259 531 
L 3634 531 
L 3634 0 
L 628 0 
L 628 4666 
z
" transform="scale(0.015625)"/>
      <path id="DejaVuSans-53" d="M 3425 4513 
L 3425 3897 
Q 3066 4069 2747 4153 
Q 2428 4238 2131 4238 
Q 1616 4238 1336 4038 
Q 1056 3838 1056 3469 
Q 1056 3159 1242 3001 
Q 1428 2844 1947 2747 
L 2328 2669 
Q 3034 2534 3370 2195 
Q 3706 1856 3706 1288 
Q 3706 609 3251 259 
Q 2797 -91 1919 -91 
Q 1588 -91 1214 -16 
Q 841 59 441 206 
L 441 856 
Q 825 641 1194 531 
Q 1563 422 1919 422 
Q 2459 422 2753 634 
Q 3047 847 3047 1241 
Q 3047 1584 2836 1778 
Q 2625 1972 2144 2069 
L 1759 2144 
Q 1053 2284 737 2584 
Q 422 2884 422 3419 
Q 422 4038 858 4394 
Q 1294 4750 2059 4750 
Q 2388 4750 2728 4690 
Q 3069 4631 3425 4513 
z
" transform="scale(0.015625)"/>
     </defs>
     <use xlink:href="#DejaVuSans-43"/>
     <use xlink:href="#DejaVuSans-4d" x="69.824219"/>
     <use xlink:href="#DejaVuSans-41" x="156.103516"/>
     <use xlink:href="#DejaVuSans-2d" x="222.261719"/>
     <use xlink:href="#DejaVuSans-45" x="258.345703"/>
     <use xlink:href="#DejaVuSans-53" x="321.529297"/>
     <use xlink:href="#DejaVuSans-2d" x="385.005859"/>
     <use xlink:href="#DejaVuSans-32" x="421.089844"/>
     <use xlink:href="#DejaVuSans-30" x="484.712891"/>
    </g>
   </g>
   <g id="text_15">
    <!-- best 2009 -->
    <g transform="translate(386.578944 36.937045)scale(0.14 -0.14)">
     <defs>
      <path id="DejaVuSans-62" d="M 3116 1747 
Q 3116 2381 2855 2742 
Q 2594 3103 2138 3103 
Q 1681 3103 1420 2742 
Q 1159 2381 1159 1747 
Q 1159 1113 1420 752 
Q 1681 391 2138 391 
Q 2594 391 2855 752 
Q 3116 1113 3116 1747 
z
M 1159 2969 
Q 1341 3281 1617 3432 
Q 1894 3584 2278 3584 
Q 2916 3584 3314 3078 
Q 3713 2572 3713 1747 
Q 3713 922 3314 415 
Q 2916 -91 2278 -91 
Q 1894 -91 1617 61 
Q 1341 213 1159 525 
L 1159 0 
L 581 0 
L 581 4863 
L 1159 4863 
L 1159 2969 
z
" transform="scale(0.015625)"/>
      <path id="DejaVuSans-39" d="M 703 97 
L 703 672 
Q 941 559 1184 500 
Q 1428 441 1663 441 
Q 2288 441 2617 861 
Q 2947 1281 2994 2138 
Q 2813 1869 2534 1725 
Q 2256 1581 1919 1581 
Q 1219 1581 811 2004 
Q 403 2428 403 3163 
Q 403 3881 828 4315 
Q 1253 4750 1959 4750 
Q 2769 4750 3195 4129 
Q 3622 3509 3622 2328 
Q 3622 1225 3098 567 
Q 2575 -91 1691 -91 
Q 1453 -91 1209 -44 
Q 966 3 703 97 
z
M 1959 2075 
Q 2384 2075 2632 2365 
Q 2881 2656 2881 3163 
Q 2881 3666 2632 3958 
Q 2384 4250 1959 4250 
Q 1534 4250 1286 3958 
Q 1038 3666 1038 3163 
Q 1038 2656 1286 2365 
Q 1534 2075 1959 2075 
z
" transform="scale(0.015625)"/>
     </defs>
     <use xlink:href="#DejaVuSans-62"/>
     <use xlink:href="#DejaVuSans-65" x="63.476562"/>
     <use xlink:href="#DejaVuSans-73" x="125"/>
     <use xlink:href="#DejaVuSans-74" x="177.099609"/>
     <use xlink:href="#DejaVuSans-20" x="216.308594"/>
     <use xlink:href="#DejaVuSans-32" x="248.095703"/>
     <use xlink:href="#DejaVuSans-30" x="311.71875"/>
     <use xlink:href="#DejaVuSans-30" x="375.341797"/>
     <use xlink:href="#DejaVuSans-39" x="438.964844"/>
    </g>
   </g>
   <g id="text_16">
    <!-- bbob f12, 5-D -->
    <g transform="translate(60.632064 38.111366)scale(0.102 -0.102)">
     <defs>
      <path id="DejaVuSans-35" d="M 691 4666 
L 3169 4666 
L 3169 4134 
L 1269 4134 
L 1269 2991 
Q 1406 3038 1543 3061 
Q 1681 3084 1819 3084 
Q 2600 3084 3056 2656 
Q 3513 2228 3513 1497 
Q 3513 744 3044 326 
Q 2575 -91 1722 -91 
Q 1428 -91 1123 -41 
Q 819 9 494 109 
L 494 744 
Q 775 591 1075 516 
Q 1375 441 1709 441 
Q 2250 441 2565 725 
Q 2881 1009 2881 1497 
Q 2881 1984 2565 2268 
Q 2250 2553 1709 2553 
Q 1456 2553 1204 2497 
Q 953 2441 691 2322 
L 691 4666 
z
" transform="scale(0.015625)"/>
      <path id="DejaVuSans-44" d="M 1259 4147 
L 1259 519 
L 2022 519 
Q 2988 519 3436 956 
Q 3884 1394 3884 2338 
Q 3884 3275 3436 3711 
Q 2988 4147 2022 4147 
L 1259 4147 
z
M 628 4666 
L 1925 4666 
Q 3281 4666 3915 4102 
Q 4550 3538 4550 2338 
Q 4550 1131 3912 565 
Q 3275 0 1925 0 
L 628 0 
L 628 4666 
z
" transform="scale(0.015625)"/>
     </defs>
     <use xlink:href="#DejaVuSans-62"/>
     <use xlink:href="#DejaVuSans-62" x="63.476562"/>
     <use xlink:href="#DejaVuSans-6f" x="126.953125"/>
     <use xlink:href="#DejaVuSans-62" x="188.134766"/>
     <use xlink:href="#DejaVuSans-20" x="251.611328"/>
     <use xlink:href="#DejaVuSans-66" x="283.398438"/>
     <use xlink:href="#DejaVuSans-31" x="318.603516"/>
     <use xlink:href="#DejaVuSans-32" x="382.226562"/>
     <use xlink:href="#DejaVuSans-2c" x="445.849609"/>
     <use xlink:href="#DejaVuSans-20" x="477.636719"/>
     <use xlink:href="#DejaVuSans-35" x="509.423828"/>
     <use xlink:href="#DejaVuSans-2d" x="573.046875"/>
     <use xlink:href="#DejaVuSans-44" x="609.130859"/>
    </g>
    <!-- 51 targets: 100..1e-08 -->
    <g transform="translate(60.632064 49.533135)scale(0.102 -0.102)">
     <defs>
      <path id="DejaVuSans-3a" d="M 750 794 
L 1409 794 
L 1409 0 
L 750 0 
L 750 794 
z
M 750 3309 
L 1409 3309 
L 1409 2516 
L 750 2516 
L 750 3309 
z
" transform="scale(0.015625)"/>
     </defs>
     <use xlink:href="#DejaVuSans-35"/>
     <use xlink:href="#DejaVuSans-31" x="63.623047"/>
     <use xlink:href="#DejaVuSans-20" x="127.246094"/>
     <use xlink:href="#DejaVuSans-74" x="159.033203"/>
     <use xlink:href="#DejaVuSans-61" x="198.242188"/>
     <use xlink:href="#DejaVuSans-72" x="259.521484"/>
     <use xlink:href="#DejaVuSans-67" x="298.884766"/>
     <use xlink:href="#DejaVuSans-65" x="362.361328"/>
     <use xlink:href="#DejaVuSans-74" x="423.884766"/>
     <use xlink:href="#DejaVuSans-73" x="463.09375"/>
     <use xlink:href="#DejaVuSans-3a" x="515.193359"/>
     <use xlink:href="#DejaVuSans-20" x="548.884766"/>
     <use xlink:href="#DejaVuSans-31" x="580.671875"/>
     <use xlink:href="#DejaVuSans-30" x="644.294922"/>
     <use xlink:href="#DejaVuSans-30" x="707.917969"/>
     <use xlink:href="#DejaVuSans-2e" x="771.541016"/>
     <use xlink:href="#DejaVuSans-2e" x="803.328125"/>
     <use xlink:href="#DejaVuSans-31" x="835.115234"/>
     <use xlink:href="#DejaVuSans-65" x="898.738281"/>
     <use xlink:href="#DejaVuSans-2d" x="960.261719"/>
     <use xlink:href="#DejaVuSans-30" x="996.345703"/>
     <use xlink:href="#DejaVuSans-38" x="1059.96875"/>
    </g>
    <!-- 25, 15 instances -->
    <g transform="translate(60.632064 60.954904)scale(0.102 -0.102)">
     <use xlink:href="#DejaVuSans-32"/>
     <use xlink:href="#DejaVuSans-35" x="63.623047"/>
     <use xlink:href="#DejaVuSans-2c" x="127.246094"/>
     <use xlink:href="#DejaVuSans-20" x="159.033203"/>
     <use xlink:href="#DejaVuSans-31" x="190.820312"/>
     <use xlink:href="#DejaVuSans-35" x="254.443359"/>
     <use xlink:href="#DejaVuSans-20" x="318.066406"/>
     <use xlink:href="#DejaVuSans-69" x="349.853516"/>
     <use xlink:href="#DejaVuSans-6e" x="377.636719"/>
     <use xlink:href="#DejaVuSans-73" x="441.015625"/>
     <use xlink:href="#DejaVuSans-74" x="493.115234"/>
     <use xlink:href="#DejaVuSans-61" x="532.324219"/>
     <use xlink:href="#DejaVuSans-6e" x="593.603516"/>
     <use xlink:href="#DejaVuSans-63" x="656.982422"/>
     <use xlink:href="#DejaVuSans-65" x="711.962891"/>
     <use xlink:href="#DejaVuSans-73" x="773.486328"/>
    </g>
   </g>
   <g id="text_17">
    <!-- v2.6 -->
    <g style="fill: #808080" transform="translate(198.292262 294.151352)scale(0.1 -0.1)">
     <use xlink:href="#DejaVuSans-76"/>
     <use xlink:href="#DejaVuSans-32" x="59.179688"/>
     <use xlink:href="#DejaVuSans-2e" x="122.802734"/>
     <use xlink:href="#DejaVuSans-36" x="154.589844"/>
    </g>
   </g>
   <g id="text_18">
    <!-- 12 Bent cigar -->
    <g transform="translate(141.986012 21.648)scale(0.2 -0.2)">
     <defs>
      <path id="DejaVuSans-42" d="M 1259 2228 
L 1259 519 
L 2272 519 
Q 2781 519 3026 730 
Q 3272 941 3272 1375 
Q 3272 1813 3026 2020 
Q 2781 2228 2272 2228 
L 1259 2228 
z
M 1259 4147 
L 1259 2741 
L 2194 2741 
Q 2656 2741 2882 2914 
Q 3109 3088 3109 3444 
Q 3109 3797 2882 3972 
Q 2656 4147 2194 4147 
L 1259 4147 
z
M 628 4666 
L 2241 4666 
Q 2963 4666 3353 4366 
Q 3744 4066 3744 3513 
Q 3744 3084 3544 2831 
Q 3344 2578 2956 2516 
Q 3422 2416 3680 2098 
Q 3938 1781 3938 1306 
Q 3938 681 3513 340 
Q 3088 0 2303 0 
L 628 0 
L 628 4666 
z
" transform="scale(0.015625)"/>
     </defs>
     <use xlink:href="#DejaVuSans-31"/>
     <use xlink:href="#DejaVuSans-32" x="63.623047"/>
     <use xlink:href="#DejaVuSans-20" x="127.246094"/>
     <use xlink:href="#DejaVuSans-42" x="159.033203"/>
     <use xlink:href="#DejaVuSans-65" x="227.636719"/>
     <use xlink:href="#DejaVuSans-6e" x="289.160156"/>
     <use xlink:href="#DejaVuSans-74" x="352.539062"/>
     <use xlink:href="#DejaVuSans-20" x="391.748047"/>
     <use xlink:href="#DejaVuSans-63" x="423.535156"/>
     <use xlink:href="#DejaVuSans-69" x="478.515625"/>
     <use xlink:href="#DejaVuSans-67" x="506.298828"/>
     <use xlink:href="#DejaVuSans-61" x="569.775391"/>
     <use xlink:href="#DejaVuSans-72" x="631.054688"/>
    </g>
   </g>
  </g>
 </g>
 <defs>
  <clipPath id="p3c28ba0276">
   <rect x="57.6" y="27.648" width="303.2064" height="271.296"/>
  </clipPath>
 </defs>
</svg>
