<?xml version="1.0" encoding="utf-8" standalone="no"?>
<!DOCTYPE svg PUBLIC "-//W3C//DTD SVG 1.1//EN"
  "http://www.w3.org/Graphics/SVG/1.1/DTD/svg11.dtd">
<svg xmlns:xlink="http://www.w3.org/1999/xlink" width="460.8pt" height="345.6pt" viewBox="0 0 460.8 345.6" xmlns="http://www.w3.org/2000/svg" version="1.1">
 <metadata>
  <rdf:RDF xmlns:dc="http://purl.org/dc/elements/1.1/" xmlns:cc="http://creativecommons.org/ns#" xmlns:rdf="http://www.w3.org/1999/02/22-rdf-syntax-ns#">
   <cc:Work>
    <dc:type rdf:resource="http://purl.org/dc/dcmitype/StillImage"/>
    <dc:date>2022-03-16T23:35:23.494183</dc:date>
    <dc:format>image/svg+xml</dc:format>
    <dc:creator>
     <cc:Agent>
      <dc:title>Matplotlib v3.5.1, https://matplotlib.org/</dc:title>
     </cc:Agent>
    </dc:creator>
   </cc:Work>
  </rdf:RDF>
 </metadata>
 <defs>
  <style type="text/css">*{stroke-linejoin: round; stroke-linecap: butt}</style>
 </defs>
 <g id="figure_1">
  <g id="patch_1">
   <path d="M 0 345.6 
L 460.8 345.6 
L 460.8 0 
L 0 0 
z
" style="fill: #ffffff"/>
  </g>
  <g id="axes_1">
   <g id="patch_2">
    <path d="M 57.6 298.944 
L 360.8064 298.944 
L 360.8064 27.648 
L 57.6 27.648 
z
" style="fill: #ffffff"/>
   </g>
   <g id="line2d_1">
    <path d="M 14.2848 298.944 
L 14.2848 282.985412 
L 27.323974 282.985412 
L 27.323974 277.665882 
L 34.951403 277.665882 
L 34.951403 272.346353 
L 75.574654 272.346353 
L 75.574654 267.026824 
L 97.857967 267.026824 
L 97.857967 261.707294 
L 109.159456 261.707294 
L 109.159456 256.387765 
L 117.226706 256.387765 
L 117.226706 251.068235 
L 122.854567 251.068235 
L 122.854567 245.748706 
L 128.310214 245.748706 
L 128.310214 240.429176 
L 134.14471 240.429176 
L 134.14471 235.109647 
L 139.240288 235.109647 
L 139.240288 229.790118 
L 150.919305 229.790118 
L 150.919305 224.470588 
L 154.223403 224.470588 
L 154.223403 219.151059 
L 159.088142 219.151059 
L 159.088142 213.831529 
L 164.58721 213.831529 
L 164.58721 208.512 
L 167.422255 208.512 
L 167.422255 203.192471 
L 174.122542 203.192471 
L 174.122542 197.872941 
L 176.103385 197.872941 
L 176.103385 192.553412 
L 178.94039 192.553412 
L 178.94039 187.233882 
L 180.720078 187.233882 
L 180.720078 181.914353 
L 182.972677 181.914353 
L 182.972677 176.594824 
L 184.435177 176.594824 
L 184.435177 171.275294 
L 184.919376 171.275294 
L 184.919376 165.955765 
L 187.263199 165.955765 
L 187.263199 160.636235 
L 187.631935 160.636235 
L 187.631935 155.316706 
L 189.054221 155.316706 
L 189.054221 149.997176 
L 191.464312 149.997176 
L 191.464312 144.677647 
L 195.330385 144.677647 
L 195.330385 139.358118 
L 195.600793 139.358118 
L 195.600793 134.038588 
L 195.825018 134.038588 
L 195.825018 128.719059 
L 197.518687 128.719059 
L 197.518687 123.399529 
L 197.847914 123.399529 
L 197.847914 118.08 
L 198.789961 118.08 
L 198.789961 112.760471 
L 200.762641 112.760471 
L 200.762641 107.440941 
L 200.935148 107.440941 
L 200.935148 102.121412 
L 201.103344 102.121412 
L 201.103344 96.801882 
L 202.125488 96.801882 
L 202.125488 91.482353 
L 202.312609 91.482353 
L 202.312609 86.162824 
L 202.931263 86.162824 
L 202.931263 80.843294 
L 203.181169 80.843294 
L 203.181169 75.523765 
L 204.039591 75.523765 
L 204.039591 70.204235 
L 205.579489 70.204235 
L 205.579489 64.884706 
L 205.757513 64.884706 
L 205.757513 59.565176 
L 205.880709 59.565176 
L 205.880709 54.245647 
L 205.995345 54.245647 
L 205.995345 48.926118 
L 206.125408 48.926118 
L 206.125408 43.606588 
L 206.222542 43.606588 
L 206.222542 38.287059 
L 206.320565 38.287059 
L 206.320565 32.967529 
L 206.389085 32.967529 
L 206.389085 27.648 
L 360.8064 27.648 
" style="fill: none; stroke: #f5deb3; stroke-width: 4; stroke-linecap: square"/>
   </g>
   <g id="line2d_2">
    <defs>
     <path id="mba09488eb5" d="M -0 7.778175 
L 7.778175 0 
L 0 -7.778175 
L -7.778175 -0 
z
" style="stroke: #f5deb3; stroke-width: 1.5; stroke-linejoin: miter"/>
    </defs>
    <g>
     <use xlink:href="#mba09488eb5" x="117.226706" y="251.068235" style="fill: #f5deb3; stroke: #f5deb3; stroke-width: 1.5; stroke-linejoin: miter"/>
     <use xlink:href="#mba09488eb5" x="184.435177" y="171.275294" style="fill: #f5deb3; stroke: #f5deb3; stroke-width: 1.5; stroke-linejoin: miter"/>
     <use xlink:href="#mba09488eb5" x="204.039591" y="75.523765" style="fill: #f5deb3; stroke: #f5deb3; stroke-width: 1.5; stroke-linejoin: miter"/>
     <use xlink:href="#mba09488eb5" x="206.389085" y="27.648" style="fill: #f5deb3; stroke: #f5deb3; stroke-width: 1.5; stroke-linejoin: miter"/>
     <use xlink:href="#mba09488eb5" x="206.389085" y="27.648" style="fill: #f5deb3; stroke: #f5deb3; stroke-width: 1.5; stroke-linejoin: miter"/>
     <use xlink:href="#mba09488eb5" x="360.8064" y="27.648" style="fill: #f5deb3; stroke: #f5deb3; stroke-width: 1.5; stroke-linejoin: miter"/>
    </g>
   </g>
   <g id="line2d_3">
    <path style="fill: none; stroke: #f5deb3; stroke-width: 4; stroke-linecap: square"/>
    <g/>
   </g>
   <g id="line2d_4">
    <path d="M 360.8064 27.648 
L 380.514816 33.07392 
" style="fill: none; stroke: #f5deb3; stroke-width: 4; stroke-linecap: square"/>
    <g>
     <use xlink:href="#mba09488eb5" x="360.8064" y="27.648" style="fill: #f5deb3; stroke: #f5deb3; stroke-width: 1.5; stroke-linejoin: miter"/>
     <use xlink:href="#mba09488eb5" x="380.514816" y="33.07392" style="fill: #f5deb3; stroke: #f5deb3; stroke-width: 1.5; stroke-linejoin: miter"/>
    </g>
   </g>
   <g id="matplotlib.axis_1">
    <g id="xtick_1">
     <g id="line2d_5">
      <path d="M 57.6 298.944 
L 57.6 27.648 
" clip-path="url(#p95565d90d0)" style="fill: none; stroke: #b0b0b0; stroke-width: 0.8; stroke-linecap: square"/>
     </g>
     <g id="line2d_6">
      <defs>
       <path id="m93c09ef96a" d="M 0 0 
L 0 3.5 
" style="stroke: #000000; stroke-width: 0.8"/>
      </defs>
      <g>
       <use xlink:href="#m93c09ef96a" x="57.6" y="298.944" style="stroke: #000000; stroke-width: 0.8"/>
      </g>
     </g>
     <g id="text_1">
      <!-- 0 -->
      <g transform="translate(52.191875 318.861344)scale(0.17 -0.17)">
       <defs>
        <path id="DejaVuSans-30" d="M 2034 4250 
Q 1547 4250 1301 3770 
Q 1056 3291 1056 2328 
Q 1056 1369 1301 889 
Q 1547 409 2034 409 
Q 2525 409 2770 889 
Q 3016 1369 3016 2328 
Q 3016 3291 2770 3770 
Q 2525 4250 2034 4250 
z
M 2034 4750 
Q 2819 4750 3233 4129 
Q 3647 3509 3647 2328 
Q 3647 1150 3233 529 
Q 2819 -91 2034 -91 
Q 1250 -91 836 529 
Q 422 1150 422 2328 
Q 422 3509 836 4129 
Q 1250 4750 2034 4750 
z
" transform="scale(0.015625)"/>
       </defs>
       <use xlink:href="#DejaVuSans-30"/>
      </g>
     </g>
    </g>
    <g id="xtick_2">
     <g id="line2d_7">
      <path d="M 144.2304 298.944 
L 144.2304 27.648 
" clip-path="url(#p95565d90d0)" style="fill: none; stroke: #b0b0b0; stroke-width: 0.8; stroke-linecap: square"/>
     </g>
     <g id="line2d_8">
      <g>
       <use xlink:href="#m93c09ef96a" x="144.2304" y="298.944" style="stroke: #000000; stroke-width: 0.8"/>
      </g>
     </g>
     <g id="text_2">
      <!-- 2 -->
      <g transform="translate(138.822275 318.861344)scale(0.17 -0.17)">
       <defs>
        <path id="DejaVuSans-32" d="M 1228 531 
L 3431 531 
L 3431 0 
L 469 0 
L 469 531 
Q 828 903 1448 1529 
Q 2069 2156 2228 2338 
Q 2531 2678 2651 2914 
Q 2772 3150 2772 3378 
Q 2772 3750 2511 3984 
Q 2250 4219 1831 4219 
Q 1534 4219 1204 4116 
Q 875 4013 500 3803 
L 500 4441 
Q 881 4594 1212 4672 
Q 1544 4750 1819 4750 
Q 2544 4750 2975 4387 
Q 3406 4025 3406 3419 
Q 3406 3131 3298 2873 
Q 3191 2616 2906 2266 
Q 2828 2175 2409 1742 
Q 1991 1309 1228 531 
z
" transform="scale(0.015625)"/>
       </defs>
       <use xlink:href="#DejaVuSans-32"/>
      </g>
     </g>
    </g>
    <g id="xtick_3">
     <g id="line2d_9">
      <path d="M 230.8608 298.944 
L 230.8608 27.648 
" clip-path="url(#p95565d90d0)" style="fill: none; stroke: #b0b0b0; stroke-width: 0.8; stroke-linecap: square"/>
     </g>
     <g id="line2d_10">
      <g>
       <use xlink:href="#m93c09ef96a" x="230.8608" y="298.944" style="stroke: #000000; stroke-width: 0.8"/>
      </g>
     </g>
     <g id="text_3">
      <!-- 4 -->
      <g transform="translate(225.452675 318.861344)scale(0.17 -0.17)">
       <defs>
        <path id="DejaVuSans-34" d="M 2419 4116 
L 825 1625 
L 2419 1625 
L 2419 4116 
z
M 2253 4666 
L 3047 4666 
L 3047 1625 
L 3713 1625 
L 3713 1100 
L 3047 1100 
L 3047 0 
L 2419 0 
L 2419 1100 
L 313 1100 
L 313 1709 
L 2253 4666 
z
" transform="scale(0.015625)"/>
       </defs>
       <use xlink:href="#DejaVuSans-34"/>
      </g>
     </g>
    </g>
    <g id="xtick_4">
     <g id="line2d_11">
      <path d="M 317.4912 298.944 
L 317.4912 27.648 
" clip-path="url(#p95565d90d0)" style="fill: none; stroke: #b0b0b0; stroke-width: 0.8; stroke-linecap: square"/>
     </g>
     <g id="line2d_12">
      <g>
       <use xlink:href="#m93c09ef96a" x="317.4912" y="298.944" style="stroke: #000000; stroke-width: 0.8"/>
      </g>
     </g>
     <g id="text_4">
      <!-- 6 -->
      <g transform="translate(312.083075 318.861344)scale(0.17 -0.17)">
       <defs>
        <path id="DejaVuSans-36" d="M 2113 2584 
Q 1688 2584 1439 2293 
Q 1191 2003 1191 1497 
Q 1191 994 1439 701 
Q 1688 409 2113 409 
Q 2538 409 2786 701 
Q 3034 994 3034 1497 
Q 3034 2003 2786 2293 
Q 2538 2584 2113 2584 
z
M 3366 4563 
L 3366 3988 
Q 3128 4100 2886 4159 
Q 2644 4219 2406 4219 
Q 1781 4219 1451 3797 
Q 1122 3375 1075 2522 
Q 1259 2794 1537 2939 
Q 1816 3084 2150 3084 
Q 2853 3084 3261 2657 
Q 3669 2231 3669 1497 
Q 3669 778 3244 343 
Q 2819 -91 2113 -91 
Q 1303 -91 875 529 
Q 447 1150 447 2328 
Q 447 3434 972 4092 
Q 1497 4750 2381 4750 
Q 2619 4750 2861 4703 
Q 3103 4656 3366 4563 
z
" transform="scale(0.015625)"/>
       </defs>
       <use xlink:href="#DejaVuSans-36"/>
      </g>
     </g>
    </g>
    <g id="xtick_5">
     <g id="line2d_13">
      <path d="M 100.9152 298.944 
L 100.9152 27.648 
" clip-path="url(#p95565d90d0)" style="fill: none; stroke: #b0b0b0; stroke-width: 0.8; stroke-linecap: square"/>
     </g>
     <g id="line2d_14">
      <defs>
       <path id="m7468f1644a" d="M 0 0 
L 0 2 
" style="stroke: #000000; stroke-width: 0.6"/>
      </defs>
      <g>
       <use xlink:href="#m7468f1644a" x="100.9152" y="298.944" style="stroke: #000000; stroke-width: 0.6"/>
      </g>
     </g>
    </g>
    <g id="xtick_6">
     <g id="line2d_15">
      <path d="M 187.5456 298.944 
L 187.5456 27.648 
" clip-path="url(#p95565d90d0)" style="fill: none; stroke: #b0b0b0; stroke-width: 0.8; stroke-linecap: square"/>
     </g>
     <g id="line2d_16">
      <g>
       <use xlink:href="#m7468f1644a" x="187.5456" y="298.944" style="stroke: #000000; stroke-width: 0.6"/>
      </g>
     </g>
    </g>
    <g id="xtick_7">
     <g id="line2d_17">
      <path d="M 274.176 298.944 
L 274.176 27.648 
" clip-path="url(#p95565d90d0)" style="fill: none; stroke: #b0b0b0; stroke-width: 0.8; stroke-linecap: square"/>
     </g>
     <g id="line2d_18">
      <g>
       <use xlink:href="#m7468f1644a" x="274.176" y="298.944" style="stroke: #000000; stroke-width: 0.6"/>
      </g>
     </g>
    </g>
    <g id="xtick_8">
     <g id="line2d_19">
      <path d="M 360.8064 298.944 
L 360.8064 27.648 
" clip-path="url(#p95565d90d0)" style="fill: none; stroke: #b0b0b0; stroke-width: 0.8; stroke-linecap: square"/>
     </g>
     <g id="line2d_20">
      <g>
       <use xlink:href="#m7468f1644a" x="360.8064" y="298.944" style="stroke: #000000; stroke-width: 0.6"/>
      </g>
     </g>
    </g>
    <g id="text_5">
     <!-- log10(# f-evals / dimension) -->
     <g transform="translate(88.823278 339.314156)scale(0.17 -0.17)">
      <defs>
       <path id="DejaVuSans-6c" d="M 603 4863 
L 1178 4863 
L 1178 0 
L 603 0 
L 603 4863 
z
" transform="scale(0.015625)"/>
       <path id="DejaVuSans-6f" d="M 1959 3097 
Q 1497 3097 1228 2736 
Q 959 2375 959 1747 
Q 959 1119 1226 758 
Q 1494 397 1959 397 
Q 2419 397 2687 759 
Q 2956 1122 2956 1747 
Q 2956 2369 2687 2733 
Q 2419 3097 1959 3097 
z
M 1959 3584 
Q 2709 3584 3137 3096 
Q 3566 2609 3566 1747 
Q 3566 888 3137 398 
Q 2709 -91 1959 -91 
Q 1206 -91 779 398 
Q 353 888 353 1747 
Q 353 2609 779 3096 
Q 1206 3584 1959 3584 
z
" transform="scale(0.015625)"/>
       <path id="DejaVuSans-67" d="M 2906 1791 
Q 2906 2416 2648 2759 
Q 2391 3103 1925 3103 
Q 1463 3103 1205 2759 
Q 947 2416 947 1791 
Q 947 1169 1205 825 
Q 1463 481 1925 481 
Q 2391 481 2648 825 
Q 2906 1169 2906 1791 
z
M 3481 434 
Q 3481 -459 3084 -895 
Q 2688 -1331 1869 -1331 
Q 1566 -1331 1297 -1286 
Q 1028 -1241 775 -1147 
L 775 -588 
Q 1028 -725 1275 -790 
Q 1522 -856 1778 -856 
Q 2344 -856 2625 -561 
Q 2906 -266 2906 331 
L 2906 616 
Q 2728 306 2450 153 
Q 2172 0 1784 0 
Q 1141 0 747 490 
Q 353 981 353 1791 
Q 353 2603 747 3093 
Q 1141 3584 1784 3584 
Q 2172 3584 2450 3431 
Q 2728 3278 2906 2969 
L 2906 3500 
L 3481 3500 
L 3481 434 
z
" transform="scale(0.015625)"/>
       <path id="DejaVuSans-31" d="M 794 531 
L 1825 531 
L 1825 4091 
L 703 3866 
L 703 4441 
L 1819 4666 
L 2450 4666 
L 2450 531 
L 3481 531 
L 3481 0 
L 794 0 
L 794 531 
z
" transform="scale(0.015625)"/>
       <path id="DejaVuSans-28" d="M 1984 4856 
Q 1566 4138 1362 3434 
Q 1159 2731 1159 2009 
Q 1159 1288 1364 580 
Q 1569 -128 1984 -844 
L 1484 -844 
Q 1016 -109 783 600 
Q 550 1309 550 2009 
Q 550 2706 781 3412 
Q 1013 4119 1484 4856 
L 1984 4856 
z
" transform="scale(0.015625)"/>
       <path id="DejaVuSans-23" d="M 3272 2816 
L 2363 2816 
L 2100 1772 
L 3016 1772 
L 3272 2816 
z
M 2803 4594 
L 2478 3297 
L 3391 3297 
L 3719 4594 
L 4219 4594 
L 3897 3297 
L 4872 3297 
L 4872 2816 
L 3775 2816 
L 3519 1772 
L 4513 1772 
L 4513 1294 
L 3397 1294 
L 3072 0 
L 2572 0 
L 2894 1294 
L 1978 1294 
L 1656 0 
L 1153 0 
L 1478 1294 
L 494 1294 
L 494 1772 
L 1594 1772 
L 1856 2816 
L 850 2816 
L 850 3297 
L 1978 3297 
L 2297 4594 
L 2803 4594 
z
" transform="scale(0.015625)"/>
       <path id="DejaVuSans-20" transform="scale(0.015625)"/>
       <path id="DejaVuSans-66" d="M 2375 4863 
L 2375 4384 
L 1825 4384 
Q 1516 4384 1395 4259 
Q 1275 4134 1275 3809 
L 1275 3500 
L 2222 3500 
L 2222 3053 
L 1275 3053 
L 1275 0 
L 697 0 
L 697 3053 
L 147 3053 
L 147 3500 
L 697 3500 
L 697 3744 
Q 697 4328 969 4595 
Q 1241 4863 1831 4863 
L 2375 4863 
z
" transform="scale(0.015625)"/>
       <path id="DejaVuSans-2d" d="M 313 2009 
L 1997 2009 
L 1997 1497 
L 313 1497 
L 313 2009 
z
" transform="scale(0.015625)"/>
       <path id="DejaVuSans-65" d="M 3597 1894 
L 3597 1613 
L 953 1613 
Q 991 1019 1311 708 
Q 1631 397 2203 397 
Q 2534 397 2845 478 
Q 3156 559 3463 722 
L 3463 178 
Q 3153 47 2828 -22 
Q 2503 -91 2169 -91 
Q 1331 -91 842 396 
Q 353 884 353 1716 
Q 353 2575 817 3079 
Q 1281 3584 2069 3584 
Q 2775 3584 3186 3129 
Q 3597 2675 3597 1894 
z
M 3022 2063 
Q 3016 2534 2758 2815 
Q 2500 3097 2075 3097 
Q 1594 3097 1305 2825 
Q 1016 2553 972 2059 
L 3022 2063 
z
" transform="scale(0.015625)"/>
       <path id="DejaVuSans-76" d="M 191 3500 
L 800 3500 
L 1894 563 
L 2988 3500 
L 3597 3500 
L 2284 0 
L 1503 0 
L 191 3500 
z
" transform="scale(0.015625)"/>
       <path id="DejaVuSans-61" d="M 2194 1759 
Q 1497 1759 1228 1600 
Q 959 1441 959 1056 
Q 959 750 1161 570 
Q 1363 391 1709 391 
Q 2188 391 2477 730 
Q 2766 1069 2766 1631 
L 2766 1759 
L 2194 1759 
z
M 3341 1997 
L 3341 0 
L 2766 0 
L 2766 531 
Q 2569 213 2275 61 
Q 1981 -91 1556 -91 
Q 1019 -91 701 211 
Q 384 513 384 1019 
Q 384 1609 779 1909 
Q 1175 2209 1959 2209 
L 2766 2209 
L 2766 2266 
Q 2766 2663 2505 2880 
Q 2244 3097 1772 3097 
Q 1472 3097 1187 3025 
Q 903 2953 641 2809 
L 641 3341 
Q 956 3463 1253 3523 
Q 1550 3584 1831 3584 
Q 2591 3584 2966 3190 
Q 3341 2797 3341 1997 
z
" transform="scale(0.015625)"/>
       <path id="DejaVuSans-73" d="M 2834 3397 
L 2834 2853 
Q 2591 2978 2328 3040 
Q 2066 3103 1784 3103 
Q 1356 3103 1142 2972 
Q 928 2841 928 2578 
Q 928 2378 1081 2264 
Q 1234 2150 1697 2047 
L 1894 2003 
Q 2506 1872 2764 1633 
Q 3022 1394 3022 966 
Q 3022 478 2636 193 
Q 2250 -91 1575 -91 
Q 1294 -91 989 -36 
Q 684 19 347 128 
L 347 722 
Q 666 556 975 473 
Q 1284 391 1588 391 
Q 1994 391 2212 530 
Q 2431 669 2431 922 
Q 2431 1156 2273 1281 
Q 2116 1406 1581 1522 
L 1381 1569 
Q 847 1681 609 1914 
Q 372 2147 372 2553 
Q 372 3047 722 3315 
Q 1072 3584 1716 3584 
Q 2034 3584 2315 3537 
Q 2597 3491 2834 3397 
z
" transform="scale(0.015625)"/>
       <path id="DejaVuSans-2f" d="M 1625 4666 
L 2156 4666 
L 531 -594 
L 0 -594 
L 1625 4666 
z
" transform="scale(0.015625)"/>
       <path id="DejaVuSans-64" d="M 2906 2969 
L 2906 4863 
L 3481 4863 
L 3481 0 
L 2906 0 
L 2906 525 
Q 2725 213 2448 61 
Q 2172 -91 1784 -91 
Q 1150 -91 751 415 
Q 353 922 353 1747 
Q 353 2572 751 3078 
Q 1150 3584 1784 3584 
Q 2172 3584 2448 3432 
Q 2725 3281 2906 2969 
z
M 947 1747 
Q 947 1113 1208 752 
Q 1469 391 1925 391 
Q 2381 391 2643 752 
Q 2906 1113 2906 1747 
Q 2906 2381 2643 2742 
Q 2381 3103 1925 3103 
Q 1469 3103 1208 2742 
Q 947 2381 947 1747 
z
" transform="scale(0.015625)"/>
       <path id="DejaVuSans-69" d="M 603 3500 
L 1178 3500 
L 1178 0 
L 603 0 
L 603 3500 
z
M 603 4863 
L 1178 4863 
L 1178 4134 
L 603 4134 
L 603 4863 
z
" transform="scale(0.015625)"/>
       <path id="DejaVuSans-6d" d="M 3328 2828 
Q 3544 3216 3844 3400 
Q 4144 3584 4550 3584 
Q 5097 3584 5394 3201 
Q 5691 2819 5691 2113 
L 5691 0 
L 5113 0 
L 5113 2094 
Q 5113 2597 4934 2840 
Q 4756 3084 4391 3084 
Q 3944 3084 3684 2787 
Q 3425 2491 3425 1978 
L 3425 0 
L 2847 0 
L 2847 2094 
Q 2847 2600 2669 2842 
Q 2491 3084 2119 3084 
Q 1678 3084 1418 2786 
Q 1159 2488 1159 1978 
L 1159 0 
L 581 0 
L 581 3500 
L 1159 3500 
L 1159 2956 
Q 1356 3278 1631 3431 
Q 1906 3584 2284 3584 
Q 2666 3584 2933 3390 
Q 3200 3197 3328 2828 
z
" transform="scale(0.015625)"/>
       <path id="DejaVuSans-6e" d="M 3513 2113 
L 3513 0 
L 2938 0 
L 2938 2094 
Q 2938 2591 2744 2837 
Q 2550 3084 2163 3084 
Q 1697 3084 1428 2787 
Q 1159 2491 1159 1978 
L 1159 0 
L 581 0 
L 581 3500 
L 1159 3500 
L 1159 2956 
Q 1366 3272 1645 3428 
Q 1925 3584 2291 3584 
Q 2894 3584 3203 3211 
Q 3513 2838 3513 2113 
z
" transform="scale(0.015625)"/>
       <path id="DejaVuSans-29" d="M 513 4856 
L 1013 4856 
Q 1481 4119 1714 3412 
Q 1947 2706 1947 2009 
Q 1947 1309 1714 600 
Q 1481 -109 1013 -844 
L 513 -844 
Q 928 -128 1133 580 
Q 1338 1288 1338 2009 
Q 1338 2731 1133 3434 
Q 928 4138 513 4856 
z
" transform="scale(0.015625)"/>
      </defs>
      <use xlink:href="#DejaVuSans-6c"/>
      <use xlink:href="#DejaVuSans-6f" x="27.783203"/>
      <use xlink:href="#DejaVuSans-67" x="88.964844"/>
      <use xlink:href="#DejaVuSans-31" x="152.441406"/>
      <use xlink:href="#DejaVuSans-30" x="216.064453"/>
      <use xlink:href="#DejaVuSans-28" x="279.6875"/>
      <use xlink:href="#DejaVuSans-23" x="318.701172"/>
      <use xlink:href="#DejaVuSans-20" x="402.490234"/>
      <use xlink:href="#DejaVuSans-66" x="434.277344"/>
      <use xlink:href="#DejaVuSans-2d" x="463.982422"/>
      <use xlink:href="#DejaVuSans-65" x="500.066406"/>
      <use xlink:href="#DejaVuSans-76" x="561.589844"/>
      <use xlink:href="#DejaVuSans-61" x="620.769531"/>
      <use xlink:href="#DejaVuSans-6c" x="682.048828"/>
      <use xlink:href="#DejaVuSans-73" x="709.832031"/>
      <use xlink:href="#DejaVuSans-20" x="761.931641"/>
      <use xlink:href="#DejaVuSans-2f" x="793.71875"/>
      <use xlink:href="#DejaVuSans-20" x="827.410156"/>
      <use xlink:href="#DejaVuSans-64" x="859.197266"/>
      <use xlink:href="#DejaVuSans-69" x="922.673828"/>
      <use xlink:href="#DejaVuSans-6d" x="950.457031"/>
      <use xlink:href="#DejaVuSans-65" x="1047.869141"/>
      <use xlink:href="#DejaVuSans-6e" x="1109.392578"/>
      <use xlink:href="#DejaVuSans-73" x="1172.771484"/>
      <use xlink:href="#DejaVuSans-69" x="1224.871094"/>
      <use xlink:href="#DejaVuSans-6f" x="1252.654297"/>
      <use xlink:href="#DejaVuSans-6e" x="1313.835938"/>
      <use xlink:href="#DejaVuSans-29" x="1377.214844"/>
     </g>
    </g>
   </g>
   <g id="matplotlib.axis_2">
    <g id="ytick_1">
     <g id="line2d_21">
      <path d="M 57.6 298.944 
L 360.8064 298.944 
" clip-path="url(#p95565d90d0)" style="fill: none; stroke: #b0b0b0; stroke-width: 0.8; stroke-linecap: square"/>
     </g>
     <g id="line2d_22">
      <defs>
       <path id="m0b368f2c64" d="M 0 0 
L -3.5 0 
" style="stroke: #000000; stroke-width: 0.8"/>
      </defs>
      <g>
       <use xlink:href="#m0b368f2c64" x="57.6" y="298.944" style="stroke: #000000; stroke-width: 0.8"/>
      </g>
     </g>
     <g id="text_6">
      <!-- 0.0 -->
      <g transform="translate(25.155 305.02275)scale(0.16 -0.16)">
       <defs>
        <path id="DejaVuSans-2e" d="M 684 794 
L 1344 794 
L 1344 0 
L 684 0 
L 684 794 
z
" transform="scale(0.015625)"/>
       </defs>
       <use xlink:href="#DejaVuSans-30"/>
       <use xlink:href="#DejaVuSans-2e" x="63.623047"/>
       <use xlink:href="#DejaVuSans-30" x="95.410156"/>
      </g>
     </g>
    </g>
    <g id="ytick_2">
     <g id="line2d_23">
      <path d="M 57.6 244.6848 
L 360.8064 244.6848 
" clip-path="url(#p95565d90d0)" style="fill: none; stroke: #b0b0b0; stroke-width: 0.8; stroke-linecap: square"/>
     </g>
     <g id="line2d_24">
      <g>
       <use xlink:href="#m0b368f2c64" x="57.6" y="244.6848" style="stroke: #000000; stroke-width: 0.8"/>
      </g>
     </g>
     <g id="text_7">
      <!-- 0.2 -->
      <g transform="translate(25.155 250.76355)scale(0.16 -0.16)">
       <use xlink:href="#DejaVuSans-30"/>
       <use xlink:href="#DejaVuSans-2e" x="63.623047"/>
       <use xlink:href="#DejaVuSans-32" x="95.410156"/>
      </g>
     </g>
    </g>
    <g id="ytick_3">
     <g id="line2d_25">
      <path d="M 57.6 190.4256 
L 360.8064 190.4256 
" clip-path="url(#p95565d90d0)" style="fill: none; stroke: #b0b0b0; stroke-width: 0.8; stroke-linecap: square"/>
     </g>
     <g id="line2d_26">
      <g>
       <use xlink:href="#m0b368f2c64" x="57.6" y="190.4256" style="stroke: #000000; stroke-width: 0.8"/>
      </g>
     </g>
     <g id="text_8">
      <!-- 0.4 -->
      <g transform="translate(25.155 196.50435)scale(0.16 -0.16)">
       <use xlink:href="#DejaVuSans-30"/>
       <use xlink:href="#DejaVuSans-2e" x="63.623047"/>
       <use xlink:href="#DejaVuSans-34" x="95.410156"/>
      </g>
     </g>
    </g>
    <g id="ytick_4">
     <g id="line2d_27">
      <path d="M 57.6 136.1664 
L 360.8064 136.1664 
" clip-path="url(#p95565d90d0)" style="fill: none; stroke: #b0b0b0; stroke-width: 0.8; stroke-linecap: square"/>
     </g>
     <g id="line2d_28">
      <g>
       <use xlink:href="#m0b368f2c64" x="57.6" y="136.1664" style="stroke: #000000; stroke-width: 0.8"/>
      </g>
     </g>
     <g id="text_9">
      <!-- 0.6 -->
      <g transform="translate(25.155 142.24515)scale(0.16 -0.16)">
       <use xlink:href="#DejaVuSans-30"/>
       <use xlink:href="#DejaVuSans-2e" x="63.623047"/>
       <use xlink:href="#DejaVuSans-36" x="95.410156"/>
      </g>
     </g>
    </g>
    <g id="ytick_5">
     <g id="line2d_29">
      <path d="M 57.6 81.9072 
L 360.8064 81.9072 
" clip-path="url(#p95565d90d0)" style="fill: none; stroke: #b0b0b0; stroke-width: 0.8; stroke-linecap: square"/>
     </g>
     <g id="line2d_30">
      <g>
       <use xlink:href="#m0b368f2c64" x="57.6" y="81.9072" style="stroke: #000000; stroke-width: 0.8"/>
      </g>
     </g>
     <g id="text_10">
      <!-- 0.8 -->
      <g transform="translate(25.155 87.98595)scale(0.16 -0.16)">
       <defs>
        <path id="DejaVuSans-38" d="M 2034 2216 
Q 1584 2216 1326 1975 
Q 1069 1734 1069 1313 
Q 1069 891 1326 650 
Q 1584 409 2034 409 
Q 2484 409 2743 651 
Q 3003 894 3003 1313 
Q 3003 1734 2745 1975 
Q 2488 2216 2034 2216 
z
M 1403 2484 
Q 997 2584 770 2862 
Q 544 3141 544 3541 
Q 544 4100 942 4425 
Q 1341 4750 2034 4750 
Q 2731 4750 3128 4425 
Q 3525 4100 3525 3541 
Q 3525 3141 3298 2862 
Q 3072 2584 2669 2484 
Q 3125 2378 3379 2068 
Q 3634 1759 3634 1313 
Q 3634 634 3220 271 
Q 2806 -91 2034 -91 
Q 1263 -91 848 271 
Q 434 634 434 1313 
Q 434 1759 690 2068 
Q 947 2378 1403 2484 
z
M 1172 3481 
Q 1172 3119 1398 2916 
Q 1625 2713 2034 2713 
Q 2441 2713 2670 2916 
Q 2900 3119 2900 3481 
Q 2900 3844 2670 4047 
Q 2441 4250 2034 4250 
Q 1625 4250 1398 4047 
Q 1172 3844 1172 3481 
z
" transform="scale(0.015625)"/>
       </defs>
       <use xlink:href="#DejaVuSans-30"/>
       <use xlink:href="#DejaVuSans-2e" x="63.623047"/>
       <use xlink:href="#DejaVuSans-38" x="95.410156"/>
      </g>
     </g>
    </g>
    <g id="ytick_6">
     <g id="line2d_31">
      <path d="M 57.6 27.648 
L 360.8064 27.648 
" clip-path="url(#p95565d90d0)" style="fill: none; stroke: #b0b0b0; stroke-width: 0.8; stroke-linecap: square"/>
     </g>
     <g id="line2d_32">
      <g>
       <use xlink:href="#m0b368f2c64" x="57.6" y="27.648" style="stroke: #000000; stroke-width: 0.8"/>
      </g>
     </g>
     <g id="text_11">
      <!-- 1.0 -->
      <g transform="translate(25.155 33.72675)scale(0.16 -0.16)">
       <use xlink:href="#DejaVuSans-31"/>
       <use xlink:href="#DejaVuSans-2e" x="63.623047"/>
       <use xlink:href="#DejaVuSans-30" x="95.410156"/>
      </g>
     </g>
    </g>
    <g id="text_12">
     <!-- Fraction of function,target pairs -->
     <g transform="translate(17.619531 297.681)rotate(-90)scale(0.17 -0.17)">
      <defs>
       <path id="DejaVuSans-46" d="M 628 4666 
L 3309 4666 
L 3309 4134 
L 1259 4134 
L 1259 2759 
L 3109 2759 
L 3109 2228 
L 1259 2228 
L 1259 0 
L 628 0 
L 628 4666 
z
" transform="scale(0.015625)"/>
       <path id="DejaVuSans-72" d="M 2631 2963 
Q 2534 3019 2420 3045 
Q 2306 3072 2169 3072 
Q 1681 3072 1420 2755 
Q 1159 2438 1159 1844 
L 1159 0 
L 581 0 
L 581 3500 
L 1159 3500 
L 1159 2956 
Q 1341 3275 1631 3429 
Q 1922 3584 2338 3584 
Q 2397 3584 2469 3576 
Q 2541 3569 2628 3553 
L 2631 2963 
z
" transform="scale(0.015625)"/>
       <path id="DejaVuSans-63" d="M 3122 3366 
L 3122 2828 
Q 2878 2963 2633 3030 
Q 2388 3097 2138 3097 
Q 1578 3097 1268 2742 
Q 959 2388 959 1747 
Q 959 1106 1268 751 
Q 1578 397 2138 397 
Q 2388 397 2633 464 
Q 2878 531 3122 666 
L 3122 134 
Q 2881 22 2623 -34 
Q 2366 -91 2075 -91 
Q 1284 -91 818 406 
Q 353 903 353 1747 
Q 353 2603 823 3093 
Q 1294 3584 2113 3584 
Q 2378 3584 2631 3529 
Q 2884 3475 3122 3366 
z
" transform="scale(0.015625)"/>
       <path id="DejaVuSans-74" d="M 1172 4494 
L 1172 3500 
L 2356 3500 
L 2356 3053 
L 1172 3053 
L 1172 1153 
Q 1172 725 1289 603 
Q 1406 481 1766 481 
L 2356 481 
L 2356 0 
L 1766 0 
Q 1100 0 847 248 
Q 594 497 594 1153 
L 594 3053 
L 172 3053 
L 172 3500 
L 594 3500 
L 594 4494 
L 1172 4494 
z
" transform="scale(0.015625)"/>
       <path id="DejaVuSans-75" d="M 544 1381 
L 544 3500 
L 1119 3500 
L 1119 1403 
Q 1119 906 1312 657 
Q 1506 409 1894 409 
Q 2359 409 2629 706 
Q 2900 1003 2900 1516 
L 2900 3500 
L 3475 3500 
L 3475 0 
L 2900 0 
L 2900 538 
Q 2691 219 2414 64 
Q 2138 -91 1772 -91 
Q 1169 -91 856 284 
Q 544 659 544 1381 
z
M 1991 3584 
L 1991 3584 
z
" transform="scale(0.015625)"/>
       <path id="DejaVuSans-2c" d="M 750 794 
L 1409 794 
L 1409 256 
L 897 -744 
L 494 -744 
L 750 256 
L 750 794 
z
" transform="scale(0.015625)"/>
       <path id="DejaVuSans-70" d="M 1159 525 
L 1159 -1331 
L 581 -1331 
L 581 3500 
L 1159 3500 
L 1159 2969 
Q 1341 3281 1617 3432 
Q 1894 3584 2278 3584 
Q 2916 3584 3314 3078 
Q 3713 2572 3713 1747 
Q 3713 922 3314 415 
Q 2916 -91 2278 -91 
Q 1894 -91 1617 61 
Q 1341 213 1159 525 
z
M 3116 1747 
Q 3116 2381 2855 2742 
Q 2594 3103 2138 3103 
Q 1681 3103 1420 2742 
Q 1159 2381 1159 1747 
Q 1159 1113 1420 752 
Q 1681 391 2138 391 
Q 2594 391 2855 752 
Q 3116 1113 3116 1747 
z
" transform="scale(0.015625)"/>
      </defs>
      <use xlink:href="#DejaVuSans-46"/>
      <use xlink:href="#DejaVuSans-72" x="50.269531"/>
      <use xlink:href="#DejaVuSans-61" x="91.382812"/>
      <use xlink:href="#DejaVuSans-63" x="152.662109"/>
      <use xlink:href="#DejaVuSans-74" x="207.642578"/>
      <use xlink:href="#DejaVuSans-69" x="246.851562"/>
      <use xlink:href="#DejaVuSans-6f" x="274.634766"/>
      <use xlink:href="#DejaVuSans-6e" x="335.816406"/>
      <use xlink:href="#DejaVuSans-20" x="399.195312"/>
      <use xlink:href="#DejaVuSans-6f" x="430.982422"/>
      <use xlink:href="#DejaVuSans-66" x="492.164062"/>
      <use xlink:href="#DejaVuSans-20" x="527.369141"/>
      <use xlink:href="#DejaVuSans-66" x="559.15625"/>
      <use xlink:href="#DejaVuSans-75" x="594.361328"/>
      <use xlink:href="#DejaVuSans-6e" x="657.740234"/>
      <use xlink:href="#DejaVuSans-63" x="721.119141"/>
      <use xlink:href="#DejaVuSans-74" x="776.099609"/>
      <use xlink:href="#DejaVuSans-69" x="815.308594"/>
      <use xlink:href="#DejaVuSans-6f" x="843.091797"/>
      <use xlink:href="#DejaVuSans-6e" x="904.273438"/>
      <use xlink:href="#DejaVuSans-2c" x="967.652344"/>
      <use xlink:href="#DejaVuSans-74" x="999.439453"/>
      <use xlink:href="#DejaVuSans-61" x="1038.648438"/>
      <use xlink:href="#DejaVuSans-72" x="1099.927734"/>
      <use xlink:href="#DejaVuSans-67" x="1139.291016"/>
      <use xlink:href="#DejaVuSans-65" x="1202.767578"/>
      <use xlink:href="#DejaVuSans-74" x="1264.291016"/>
      <use xlink:href="#DejaVuSans-20" x="1303.5"/>
      <use xlink:href="#DejaVuSans-70" x="1335.287109"/>
      <use xlink:href="#DejaVuSans-61" x="1398.763672"/>
      <use xlink:href="#DejaVuSans-69" x="1460.042969"/>
      <use xlink:href="#DejaVuSans-72" x="1487.826172"/>
      <use xlink:href="#DejaVuSans-73" x="1528.939453"/>
     </g>
    </g>
   </g>
   <g id="line2d_33">
    <defs>
     <path id="m2a56311b80" d="M 0 1.5 
C 0.397805 1.5 0.77937 1.341951 1.06066 1.06066 
C 1.341951 0.77937 1.5 0.397805 1.5 0 
C 1.5 -0.397805 1.341951 -0.77937 1.06066 -1.06066 
C 0.77937 -1.341951 0.397805 -1.5 0 -1.5 
C -0.397805 -1.5 -0.77937 -1.341951 -1.06066 -1.06066 
C -1.341951 -0.77937 -1.5 -0.397805 -1.5 0 
C -1.5 0.397805 -1.341951 0.77937 -1.06066 1.06066 
C -0.77937 1.341951 -0.397805 1.5 0 1.5 
z
" style="stroke: #f5deb3"/>
    </defs>
    <g>
     <use xlink:href="#m2a56311b80" x="206.389085" y="27.648" style="fill: #f5deb3; stroke: #f5deb3"/>
     <use xlink:href="#m2a56311b80" x="206.389085" y="27.648" style="fill: #f5deb3; stroke: #f5deb3"/>
    </g>
   </g>
   <g id="line2d_34">
    <defs>
     <path id="ma3c75d4e16" d="M 0 1.5 
C 0.397805 1.5 0.77937 1.341951 1.06066 1.06066 
C 1.341951 0.77937 1.5 0.397805 1.5 0 
C 1.5 -0.397805 1.341951 -0.77937 1.06066 -1.06066 
C 0.77937 -1.341951 0.397805 -1.5 0 -1.5 
C -0.397805 -1.5 -0.77937 -1.341951 -1.06066 -1.06066 
C -1.341951 -0.77937 -1.5 -0.397805 -1.5 0 
C -1.5 0.397805 -1.341951 0.77937 -1.06066 1.06066 
C -0.77937 1.341951 -0.397805 1.5 0 1.5 
z
" style="stroke: #000080"/>
    </defs>
    <g>
     <use xlink:href="#ma3c75d4e16" x="298.02646" y="155.316706" style="fill: #000080; stroke: #000080"/>
     <use xlink:href="#ma3c75d4e16" x="298.02646" y="155.316706" style="fill: #000080; stroke: #000080"/>
    </g>
   </g>
   <g id="line2d_35">
    <path d="M 14.2848 298.944 
L 14.2848 275.538071 
L 27.323974 275.538071 
L 27.323974 274.474165 
L 34.951403 274.474165 
L 34.951403 274.048602 
L 40.363149 274.048602 
L 40.363149 273.197478 
L 44.560826 273.197478 
L 44.560826 272.771915 
L 47.990577 272.771915 
L 47.990577 272.559134 
L 53.402323 272.559134 
L 53.402323 272.133572 
L 55.618005 272.133572 
L 55.618005 271.920791 
L 57.6 271.920791 
L 57.6 271.069666 
L 59.392932 271.069666 
L 59.392932 270.431322 
L 61.029752 270.431322 
L 61.029752 270.218541 
L 63.929565 270.218541 
L 63.929565 269.792979 
L 65.227428 269.792979 
L 65.227428 269.154635 
L 66.441498 269.154635 
L 66.441498 268.941854 
L 69.674268 268.941854 
L 69.674268 268.729073 
L 71.556993 268.729073 
L 71.556993 268.516292 
L 73.268314 268.516292 
L 73.268314 268.303511 
L 74.068926 268.303511 
L 74.068926 268.090729 
L 75.574654 268.090729 
L 75.574654 267.877948 
L 76.284608 267.877948 
L 76.284608 267.665167 
L 77.628862 267.665167 
L 77.628862 267.452386 
L 79.480672 267.452386 
L 79.480672 266.814042 
L 80.059535 266.814042 
L 80.059535 266.530334 
L 81.166416 266.530334 
L 81.166416 266.317553 
L 81.696354 266.317553 
L 81.696354 266.104772 
L 82.211771 266.104772 
L 82.211771 265.891991 
L 82.713442 265.891991 
L 82.713442 265.466428 
L 85.038813 265.466428 
L 85.038813 264.757158 
L 86.307488 264.757158 
L 86.307488 264.402522 
L 88.972154 264.402522 
L 88.972154 264.189741 
L 89.668958 264.189741 
L 89.668958 263.906033 
L 90.007914 263.906033 
L 90.007914 263.693252 
L 90.340871 263.693252 
L 90.340871 263.480471 
L 90.989609 263.480471 
L 90.989609 263.267689 
L 92.519847 263.267689 
L 92.519847 263.125835 
L 93.381595 263.125835 
L 93.381595 262.913054 
L 93.934916 262.913054 
L 93.934916 262.700273 
L 94.205591 262.700273 
L 94.205591 262.203784 
L 94.472426 262.203784 
L 94.472426 261.991002 
L 98.295464 261.991002 
L 98.295464 261.778221 
L 98.510456 261.778221 
L 98.510456 261.494513 
L 99.346662 261.494513 
L 99.346662 261.068951 
L 99.550033 261.068951 
L 99.550033 260.643388 
L 101.653002 260.572461 
L 101.653002 260.35968 
L 101.833019 260.35968 
L 101.833019 259.934118 
L 102.187964 259.934118 
L 102.187964 259.721336 
L 102.362957 259.721336 
L 102.362957 259.508555 
L 102.536336 259.508555 
L 102.536336 259.295774 
L 102.878374 259.295774 
L 102.878374 259.082993 
L 103.047088 259.082993 
L 103.047088 258.657431 
L 103.214303 258.657431 
L 103.214303 258.444649 
L 104.501065 258.373722 
L 104.501065 257.94816 
L 104.961779 257.94816 
L 104.961779 257.806306 
L 105.112877 257.806306 
L 105.112877 257.664452 
L 105.99483 257.664452 
L 105.99483 257.451671 
L 106.42077 257.451671 
L 106.42077 257.238889 
L 106.560633 257.238889 
L 106.560633 256.7424 
L 107.904887 256.671473 
L 107.904887 256.529619 
L 108.667622 256.529619 
L 108.667622 256.316838 
L 108.915146 256.316838 
L 108.915146 256.104056 
L 109.159456 256.033129 
L 109.159456 255.962202 
L 109.280431 255.962202 
L 109.280431 255.749421 
L 112.180244 255.678494 
L 112.283321 255.111078 
L 112.385837 255.111078 
L 112.385837 254.898296 
L 113.284172 254.898296 
L 113.284172 254.685515 
L 113.860081 254.685515 
L 113.860081 254.472734 
L 114.234452 254.472734 
L 114.326893 254.118099 
L 114.418881 254.118099 
L 114.418881 253.621609 
L 114.692177 253.621609 
L 114.692177 253.408828 
L 115.227139 253.408828 
L 115.227139 253.266974 
L 115.489021 253.196047 
L 115.489021 253.12512 
L 115.83262 253.054193 
L 115.83262 252.912339 
L 116.336531 252.841412 
L 116.336531 252.415849 
L 116.665126 252.415849 
L 116.665126 252.203068 
L 117.1475 252.132141 
L 117.1475 252.061214 
L 117.540239 252.061214 
L 117.617813 251.635652 
L 117.924947 251.635652 
L 118.000953 251.281016 
L 118.076654 251.281016 
L 118.076654 251.068235 
L 118.450653 251.068235 
L 118.450653 250.855454 
L 118.817362 250.855454 
L 118.817362 250.429892 
L 119.177058 250.429892 
L 119.24818 250.004329 
L 119.459944 249.933402 
L 119.459944 249.720621 
L 119.738639 249.720621 
L 119.738639 249.50784 
L 120.013265 249.436913 
L 120.013265 249.224132 
L 120.216635 249.224132 
L 120.28394 248.940424 
L 120.48442 248.940424 
L 120.48442 248.30208 
L 121.137664 248.30208 
L 121.201758 247.947445 
L 121.39274 247.947445 
L 121.39274 247.805591 
L 121.644403 247.805591 
L 121.644403 247.592809 
L 122.259215 247.521882 
L 122.259215 247.450955 
L 122.736994 247.380028 
L 122.795872 247.09632 
L 123.08753 247.09632 
L 123.08753 246.883539 
L 123.657621 246.812612 
L 123.713691 246.528904 
L 123.825333 246.528904 
L 123.825333 246.316122 
L 124.265389 246.316122 
L 124.265389 246.103341 
L 124.588805 246.103341 
L 124.695386 245.748706 
L 124.959227 245.748706 
L 125.063736 245.181289 
L 125.167667 245.181289 
L 125.167667 244.968508 
L 125.322496 244.968508 
L 125.425011 244.6848 
L 125.526971 244.6848 
L 125.577745 244.401092 
L 125.829577 244.330165 
L 125.929373 243.762748 
L 126.225624 243.691821 
L 126.323346 243.337186 
L 126.420564 243.266259 
L 126.517282 242.840696 
L 126.756923 242.769769 
L 126.756923 242.556988 
L 126.946461 242.556988 
L 126.946461 242.344207 
L 127.412117 242.27328 
L 127.412117 242.060499 
L 127.776517 242.060499 
L 127.821575 241.705864 
L 127.956104 241.634936 
L 128.000734 241.493082 
L 128.178203 241.422155 
L 128.266313 240.925666 
L 128.484801 240.925666 
L 128.528195 240.429176 
L 128.786481 240.358249 
L 128.829186 240.216395 
L 129.167381 240.216395 
L 129.250988 239.648979 
L 129.744974 239.578052 
L 129.826058 239.223416 
L 129.906795 239.223416 
L 129.906795 239.010635 
L 130.067235 239.010635 
L 130.067235 238.868781 
L 130.226319 238.868781 
L 130.226319 238.726927 
L 130.344755 238.726927 
L 130.384069 238.372292 
L 130.46245 238.372292 
L 130.46245 238.230438 
L 130.849533 238.230438 
L 130.849533 238.017656 
L 131.191226 237.946729 
L 131.266322 237.521167 
L 131.303758 237.521167 
L 131.378407 237.095605 
L 132.144842 237.095605 
L 132.251827 236.740969 
L 132.287354 236.740969 
L 132.358208 236.315407 
L 132.428795 236.315407 
L 132.428795 236.24448 
L 132.46399 236.031699 
L 132.881269 236.031699 
L 132.949924 235.606136 
L 133.25581 235.606136 
L 133.356676 235.322428 
L 133.457005 235.251501 
L 133.457005 235.109647 
L 133.689044 235.109647 
L 133.689044 234.896866 
L 133.820365 234.896866 
L 133.885683 234.471304 
L 134.047992 234.400376 
L 134.047992 234.187595 
L 134.336666 234.116668 
L 134.400219 233.762033 
L 134.7148 233.762033 
L 134.745971 233.549252 
L 134.839175 233.549252 
L 134.931919 233.052762 
L 134.993495 233.052762 
L 135.085483 232.698127 
L 135.328609 232.6272 
L 135.388902 232.201638 
L 135.805631 232.130711 
L 135.864417 231.847002 
L 135.92302 231.847002 
L 135.952253 231.279586 
L 136.184497 231.279586 
L 136.184497 231.066805 
L 136.385386 230.995878 
L 136.44239 230.570315 
L 136.724851 230.570315 
L 136.724851 230.499388 
L 136.780838 230.357534 
L 136.836659 230.357534 
L 136.864507 230.144753 
L 137.0583 230.144753 
L 137.0583 229.931972 
L 137.195511 229.931972 
L 137.27736 229.577336 
L 137.331728 229.577336 
L 137.358854 229.222701 
L 137.601239 229.151774 
L 137.654681 228.726212 
L 137.814102 228.726212 
L 137.814102 228.513431 
L 138.024583 228.513431 
L 138.050729 228.016941 
L 138.206842 228.016941 
L 138.206842 227.733233 
L 138.335954 227.733233 
L 138.387352 227.307671 
L 138.489728 227.307671 
L 138.59155 226.953035 
L 138.642255 226.953035 
L 138.692823 226.740254 
L 138.818654 226.740254 
L 138.868751 226.314692 
L 139.018248 226.243765 
L 139.018248 226.101911 
L 139.141927 226.101911 
L 139.166565 225.889129 
L 139.338138 225.818202 
L 139.386872 225.463567 
L 139.532323 225.463567 
L 139.604629 225.179859 
L 139.93843 225.108932 
L 140.032723 224.896151 
L 140.14993 224.896151 
L 140.173284 224.399661 
L 140.312801 224.328734 
L 140.312801 224.115953 
L 140.520157 224.115953 
L 140.565927 223.690391 
L 140.657135 223.690391 
L 140.702573 223.052047 
L 140.838234 223.052047 
L 140.838234 222.839266 
L 141.128852 222.768339 
L 141.239443 222.626485 
L 141.371301 222.555558 
L 141.458695 222.200922 
L 141.610664 222.129995 
L 141.610664 222.059068 
L 141.782854 222.059068 
L 141.889677 221.562579 
L 142.290162 221.491652 
L 142.394151 221.349798 
L 142.41488 221.349798 
L 142.435586 220.924235 
L 142.60042 220.853308 
L 142.60042 220.782381 
L 142.723105 220.782381 
L 142.723105 220.498673 
L 142.966099 220.498673 
L 143.046405 220.214965 
L 143.18612 220.144038 
L 143.245681 219.718475 
L 143.305055 219.718475 
L 143.38393 219.221986 
L 143.501625 219.221986 
L 143.501625 219.009205 
L 143.715505 219.009205 
L 143.811926 218.654569 
L 144.117191 218.583642 
L 144.211579 218.299934 
L 144.342932 218.299934 
L 144.417581 217.448809 
L 144.454795 217.448809 
L 144.454795 217.236028 
L 144.621352 217.165101 
L 144.621352 217.094174 
L 144.931992 217.023247 
L 145.040416 216.668612 
L 145.485575 216.597685 
L 145.520737 216.384904 
L 145.886021 216.313976 
L 145.886021 216.101195 
L 146.125662 216.030268 
L 146.227438 215.675633 
L 146.311833 215.675633 
L 146.412609 215.108216 
L 146.429353 215.108216 
L 146.429353 214.895435 
L 146.761135 214.824508 
L 146.843174 214.682654 
L 146.924857 214.611727 
L 146.924857 214.5408 
L 147.232057 214.469873 
L 147.264104 214.186165 
L 147.471089 214.115238 
L 147.534321 213.760602 
L 147.722752 213.689675 
L 147.73837 213.33504 
L 148.03267 213.33504 
L 148.03267 213.193186 
L 148.367783 213.122259 
L 148.382875 212.838551 
L 148.57797 212.767624 
L 148.57797 212.554842 
L 148.859519 212.483915 
L 148.874221 212.12928 
L 149.20924 212.058353 
L 149.20924 211.987426 
L 149.79204 211.916499 
L 149.889763 211.561864 
L 150.000827 211.490936 
L 150.056115 211.349082 
L 150.370903 211.349082 
L 150.370903 211.136301 
L 150.613636 211.065374 
L 150.707193 210.781666 
L 150.879716 210.710739 
L 150.879716 210.568885 
L 151.387991 210.497958 
L 151.426526 210.214249 
L 151.731998 210.214249 
L 151.795018 209.859614 
L 151.945411 209.788687 
L 152.032588 209.504979 
L 152.144083 209.504979 
L 152.193425 209.221271 
L 152.53524 209.150344 
L 152.595631 208.866635 
L 152.751744 208.866635 
L 152.811444 208.582927 
L 152.965784 208.512 
L 152.965784 208.441073 
L 153.095398 208.441073 
L 153.107137 208.015511 
L 153.293969 207.944584 
L 153.375128 207.731802 
L 153.662158 207.660875 
L 153.75309 207.377167 
L 153.88867 207.30624 
L 153.88867 207.235313 
L 154.366625 207.164386 
L 154.388563 206.951605 
L 154.682245 206.880678 
L 154.789862 206.667896 
L 154.982037 206.596969 
L 155.077392 206.455115 
L 155.690811 206.384188 
L 155.690811 206.313261 
L 155.914518 206.242334 
L 155.97507 205.958626 
L 156.225294 205.887699 
L 156.334347 205.745845 
L 156.589623 205.674918 
L 156.648044 205.533064 
L 156.927882 205.462136 
L 156.927882 205.391209 
L 157.222487 205.391209 
L 157.222487 205.178428 
L 157.3353 205.178428 
L 157.3353 204.965647 
L 157.475372 204.965647 
L 157.475372 204.752866 
L 157.724902 204.681939 
L 157.816487 204.540085 
L 157.998331 204.469158 
L 158.088598 204.256376 
L 158.214248 204.256376 
L 158.214248 204.114522 
L 158.356828 204.114522 
L 158.356828 203.972668 
L 158.74344 203.901741 
L 158.74344 203.830814 
L 159.096679 203.759887 
L 159.20731 203.547106 
L 159.418251 203.476179 
L 159.476894 203.334325 
L 159.63515 203.263398 
L 159.668298 203.121544 
L 160.375185 203.050616 
L 160.407056 202.908762 
L 161.504837 202.837835 
L 161.51985 202.695981 
L 161.728786 202.625054 
L 161.728786 202.554127 
L 162.542072 202.4832 
L 162.542072 202.412273 
L 163.64611 202.341346 
L 163.699647 202.199492 
L 164.272231 202.128565 
L 164.272231 202.057638 
L 164.915805 201.986711 
L 164.915805 201.915784 
L 165.30637 201.844856 
L 165.30637 201.773929 
L 166.523891 201.703002 
L 166.598506 201.561148 
L 167.678199 201.490221 
L 167.678199 201.419294 
L 169.628797 201.348367 
L 169.628797 201.27744 
L 171.11426 201.206513 
L 171.11426 201.135586 
L 176.319868 201.064659 
L 176.319868 200.851878 
L 176.991062 200.851878 
L 177.096265 200.568169 
L 177.210661 200.568169 
L 177.210661 200.355388 
L 177.45991 200.284461 
L 177.45991 200.213534 
L 177.645499 200.213534 
L 177.645499 200.000753 
L 177.998778 199.929826 
L 177.998778 199.858899 
L 178.117149 199.858899 
L 178.117149 199.646118 
L 178.46176 199.646118 
L 178.51352 199.433336 
L 178.655883 199.433336 
L 178.655883 199.220555 
L 179.085471 199.220555 
L 179.085471 199.078701 
L 179.493926 199.007774 
L 179.493926 198.794993 
L 180.249148 198.724066 
L 180.33766 198.511285 
L 180.619764 198.511285 
L 180.619764 198.369431 
L 180.765989 198.369431 
L 180.765989 198.298504 
L 180.765989 198.227576 
L 180.945851 198.156649 
L 181.023172 197.943868 
L 181.274261 197.943868 
L 181.358089 197.589233 
L 181.64858 197.518306 
L 181.64858 197.447379 
L 181.855908 197.376452 
L 181.855908 197.305525 
L 182.013073 197.305525 
L 182.013073 197.092744 
L 182.604477 197.021816 
L 182.604477 196.809035 
L 182.881301 196.738108 
L 182.953477 196.4544 
L 183.034944 196.4544 
L 183.044505 196.099765 
L 183.260718 196.099765 
L 183.336163 195.816056 
L 183.474475 195.816056 
L 183.572318 195.461421 
L 183.651154 195.461421 
L 183.725052 195.177713 
L 183.833065 195.106786 
L 183.871982 194.823078 
L 184.004153 194.752151 
L 184.083465 194.468442 
L 184.419634 194.468442 
L 184.419634 194.255661 
L 184.979843 194.184734 
L 184.979843 194.113807 
L 185.412508 194.113807 
L 185.479812 193.901026 
L 185.932024 193.830099 
L 185.932024 193.759172 
L 186.281299 193.688245 
L 186.281299 193.617318 
L 186.632107 193.546391 
L 186.632107 193.475464 
L 187.997255 193.404536 
L 187.997255 193.333609 
L 188.634629 193.262682 
L 188.673646 193.049901 
L 188.820122 192.978974 
L 188.913062 192.766193 
L 188.951507 192.695266 
L 189.035114 192.482485 
L 189.185711 192.411558 
L 189.278582 192.198776 
L 189.355626 192.127849 
L 189.457863 191.773214 
L 189.606813 191.702287 
L 189.690921 191.560433 
L 189.798033 191.489506 
L 189.798033 191.418579 
L 189.992285 191.347652 
L 189.992285 191.276725 
L 190.163285 191.205798 
L 190.244947 190.922089 
L 190.35058 190.851162 
L 190.449176 190.709308 
L 190.590508 190.638381 
L 190.604903 190.496527 
L 190.956531 190.4256 
L 190.956531 190.354673 
L 191.317107 190.283746 
L 191.403117 190.141892 
L 191.534442 190.070965 
L 191.58611 189.858184 
L 192.12317 189.787256 
L 192.170306 189.503548 
L 192.469499 189.432621 
L 192.476737 189.148913 
L 192.793919 189.077986 
L 192.883366 188.794278 
L 193.218882 188.723351 
L 193.24252 188.581496 
L 193.559453 188.510569 
L 193.559453 188.439642 
L 193.956952 188.368715 
L 194.055693 188.155934 
L 194.30687 188.085007 
L 194.407716 187.943153 
L 195.497534 187.872226 
L 195.590983 187.659445 
L 195.800775 187.659445 
L 195.800775 187.446664 
L 196.282167 187.375736 
L 196.282167 187.304809 
L 197.157656 187.233882 
L 197.216249 187.021101 
L 197.443254 187.021101 
L 197.443254 186.80832 
L 198.517937 186.737393 
L 198.517937 186.666466 
L 198.774433 186.595539 
L 198.844722 186.453685 
L 199.021348 186.382758 
L 199.089704 186.099049 
L 199.662393 186.028122 
L 199.662393 185.957195 
L 199.888237 185.886268 
L 199.947682 185.744414 
L 200.200891 185.673487 
L 200.265099 185.389779 
L 200.314782 185.389779 
L 200.399512 184.680508 
L 200.453578 184.680508 
L 200.559362 183.971238 
L 200.693566 183.900311 
L 200.78685 183.474748 
L 201.009781 183.474748 
L 201.112491 182.978259 
L 201.359621 182.907332 
L 201.359621 182.836405 
L 201.554477 182.765478 
L 201.616906 182.552696 
L 201.697755 182.481769 
L 201.804722 182.127134 
L 201.866327 182.056207 
L 201.946113 181.843426 
L 202.043849 181.772499 
L 202.043849 181.701572 
L 202.280835 181.630645 
L 202.378562 181.417864 
L 202.470679 181.346936 
L 202.575891 181.134155 
L 202.647673 181.063228 
L 202.668733 180.921374 
L 202.993431 180.850447 
L 202.993431 180.77952 
L 203.23435 180.708593 
L 203.23435 180.637666 
L 203.444773 180.637666 
L 203.444773 180.495812 
L 203.6856 180.424885 
L 203.6856 180.353958 
L 204.123941 180.283031 
L 204.123941 180.212104 
L 204.454546 180.141176 
L 204.454546 180.070249 
L 205.452119 179.999322 
L 205.473891 179.857468 
L 205.693102 179.786541 
L 205.693102 179.715614 
L 206.059434 179.644687 
L 206.059434 179.502833 
L 206.179278 179.431906 
L 206.179278 179.360979 
L 206.422907 179.290052 
L 206.462174 179.148198 
L 206.915011 179.077271 
L 206.947902 178.935416 
L 207.175875 178.864489 
L 207.214264 178.722635 
L 207.635985 178.651708 
L 207.732076 178.509854 
L 207.979386 178.438927 
L 208.067425 178.155219 
L 208.192754 178.084292 
L 208.279178 177.942438 
L 208.561961 177.871511 
L 208.5675 177.729656 
L 208.856923 177.658729 
L 208.94699 177.516875 
L 209.103128 177.445948 
L 209.199168 177.16224 
L 209.674469 177.091313 
L 209.674469 177.020386 
L 210.134093 176.949459 
L 210.134093 176.878532 
L 210.922954 176.807605 
L 210.922954 176.736678 
L 211.509284 176.665751 
L 211.544509 176.523896 
L 212.121748 176.452969 
L 212.211187 176.311115 
L 212.319366 176.240188 
L 212.319366 176.169261 
L 212.98637 176.098334 
L 212.98637 176.027407 
L 213.466213 175.95648 
L 213.466213 175.885553 
L 213.663412 175.814626 
L 213.663412 175.743699 
L 213.944294 175.672772 
L 214.004304 175.530918 
L 215.787304 175.459991 
L 215.847572 175.034428 
L 216.191235 174.963501 
L 216.291898 174.679793 
L 217.19037 174.608866 
L 217.235448 174.467012 
L 218.819536 174.467012 
L 218.907103 173.54496 
L 218.94471 173.474033 
L 219.044394 172.693835 
L 219.218452 172.622908 
L 219.3021 172.268273 
L 219.528169 172.197346 
L 219.611137 171.700856 
L 219.916526 171.629929 
L 220.007185 171.275294 
L 221.049643 171.204367 
L 221.049643 171.13344 
L 222.120761 171.062513 
L 222.161132 170.778805 
L 222.574765 170.707878 
L 222.574765 170.636951 
L 222.994936 170.566024 
L 223.081326 170.424169 
L 223.295723 170.353242 
L 223.331968 170.211388 
L 223.971084 170.140461 
L 223.971084 170.069534 
L 225.083848 169.998607 
L 225.107872 169.856753 
L 225.22525 169.785826 
L 225.320193 169.643972 
L 225.479378 169.573045 
L 225.479378 169.502118 
L 225.922612 169.431191 
L 225.922612 169.360264 
L 226.710094 169.289336 
L 226.786638 168.792847 
L 227.202497 168.72192 
L 227.220768 168.509139 
L 228.025556 168.438212 
L 228.025556 168.367285 
L 229.005876 168.296358 
L 229.005876 168.225431 
L 230.162896 168.154504 
L 230.162896 168.083576 
L 230.927838 168.012649 
L 230.927838 167.941722 
L 231.139766 167.941722 
L 231.139766 167.799868 
L 231.537365 167.728941 
L 231.626618 167.587087 
L 231.769479 167.51616 
L 231.769479 167.445233 
L 231.967928 167.374306 
L 231.973603 167.232452 
L 232.18448 167.161525 
L 232.18448 167.090598 
L 232.540179 167.019671 
L 232.540179 166.948744 
L 233.054731 166.877816 
L 233.11974 166.735962 
L 233.445393 166.665035 
L 233.445393 166.594108 
L 233.691853 166.523181 
L 233.720314 166.381327 
L 234.0064 166.3104 
L 234.0064 166.239473 
L 234.218459 166.168546 
L 234.218459 166.097619 
L 234.627996 166.026692 
L 234.627996 165.955765 
L 235.091255 165.884838 
L 235.197468 165.672056 
L 235.497419 165.601129 
L 235.565074 165.459275 
L 235.801922 165.388348 
L 235.801922 165.317421 
L 236.429017 165.246494 
L 236.429017 165.175567 
L 236.865495 165.10464 
L 236.917782 164.962786 
L 237.375151 164.891859 
L 237.375151 164.820932 
L 238.095767 164.750005 
L 238.143087 164.537224 
L 238.887653 164.466296 
L 238.915258 164.324442 
L 239.060948 164.253515 
L 239.090729 164.111661 
L 239.382861 164.040734 
L 239.418226 163.827953 
L 239.817284 163.757026 
L 239.817284 163.686099 
L 240.090371 163.615172 
L 240.153838 163.331464 
L 240.235844 163.260536 
L 240.329097 162.976828 
L 240.543483 162.905901 
L 240.640373 162.764047 
L 240.887945 162.69312 
L 240.887945 162.622193 
L 241.230983 162.551266 
L 241.288129 162.409412 
L 241.507304 162.338485 
L 241.507304 162.267558 
L 241.955044 162.196631 
L 241.955044 162.125704 
L 242.233752 162.054776 
L 242.25758 161.912922 
L 242.721087 161.841995 
L 242.819169 161.700141 
L 243.175696 161.629214 
L 243.257238 161.48736 
L 244.566556 161.416433 
L 244.648898 161.274579 
L 245.212517 161.203652 
L 245.212517 161.132725 
L 245.429419 161.061798 
L 245.463293 160.919944 
L 246.073806 160.849016 
L 246.154744 160.636235 
L 247.286567 160.565308 
L 247.286567 160.494381 
L 248.145597 160.423454 
L 248.145597 160.352527 
L 248.347458 160.2816 
L 248.414316 160.068819 
L 248.501422 159.997892 
L 248.501422 159.926965 
L 249.08007 159.856038 
L 249.08007 159.785111 
L 249.463714 159.714184 
L 249.533978 159.572329 
L 249.942909 159.501402 
L 249.942909 159.430475 
L 250.674372 159.359548 
L 250.674372 159.288621 
L 250.984776 159.217694 
L 250.984776 159.146767 
L 252.061886 159.07584 
L 252.061886 159.004913 
L 252.960755 158.933986 
L 252.960755 158.863059 
L 253.792459 158.792132 
L 253.792459 158.721205 
L 254.60471 158.650278 
L 254.60471 158.579351 
L 255.638397 158.508424 
L 255.654466 158.366569 
L 256.522694 158.295642 
L 256.522694 158.224715 
L 257.354268 158.153788 
L 257.354268 158.082861 
L 257.778962 158.011934 
L 257.778962 157.941007 
L 258.197095 157.87008 
L 258.197095 157.799153 
L 259.777321 157.728226 
L 259.777321 157.657299 
L 261.059086 157.586372 
L 261.059086 157.515445 
L 262.516703 157.444518 
L 262.516703 157.373591 
L 263.453833 157.302664 
L 263.453833 157.231736 
L 264.359581 157.160809 
L 264.359581 157.089882 
L 265.304952 157.018955 
L 265.304952 156.948028 
L 267.559947 156.877101 
L 267.63808 156.735247 
L 272.520093 156.66432 
L 272.520093 156.593393 
L 273.021671 156.522466 
L 273.021671 156.451539 
L 274.84358 156.380612 
L 274.84358 156.309685 
L 275.590232 156.238758 
L 275.590232 156.167831 
L 277.168065 156.096904 
L 277.168065 156.025976 
L 278.288244 155.955049 
L 278.288244 155.884122 
L 280.940868 155.813195 
L 280.940868 155.742268 
L 282.763087 155.671341 
L 282.763087 155.600414 
L 289.553624 155.529487 
L 289.553624 155.45856 
L 298.02646 155.387633 
L 298.02646 155.316706 
L 360.8064 155.316706 
L 360.8064 155.316706 
" style="fill: none; stroke: #000080; stroke-width: 1.5; stroke-linecap: square"/>
   </g>
   <g id="line2d_36">
    <defs>
     <path id="mdfda635309" d="M 0 6 
C 1.591219 6 3.117479 5.367802 4.242641 4.242641 
C 5.367802 3.117479 6 1.591219 6 0 
C 6 -1.591219 5.367802 -3.117479 4.242641 -4.242641 
C 3.117479 -5.367802 1.591219 -6 0 -6 
C -1.591219 -6 -3.117479 -5.367802 -4.242641 -4.242641 
C -5.367802 -3.117479 -6 -1.591219 -6 0 
C -6 1.591219 -5.367802 3.117479 -4.242641 4.242641 
C -3.117479 5.367802 -1.591219 6 0 6 
z
" style="stroke: #000080; stroke-width: 1.5"/>
    </defs>
    <g>
     <use xlink:href="#mdfda635309" x="75.574654" y="267.877948" style="fill-opacity: 0; stroke: #000080; stroke-width: 1.5"/>
     <use xlink:href="#mdfda635309" x="158.088598" y="204.256376" style="fill-opacity: 0; stroke: #000080; stroke-width: 1.5"/>
     <use xlink:href="#mdfda635309" x="212.319366" y="176.240188" style="fill-opacity: 0; stroke: #000080; stroke-width: 1.5"/>
     <use xlink:href="#mdfda635309" x="298.02646" y="155.387633" style="fill-opacity: 0; stroke: #000080; stroke-width: 1.5"/>
     <use xlink:href="#mdfda635309" x="298.02646" y="155.316706" style="fill-opacity: 0; stroke: #000080; stroke-width: 1.5"/>
     <use xlink:href="#mdfda635309" x="360.8064" y="155.316706" style="fill-opacity: 0; stroke: #000080; stroke-width: 1.5"/>
    </g>
   </g>
   <g id="line2d_37">
    <path style="fill: none; stroke: #000080; stroke-width: 1.5; stroke-linecap: square"/>
    <g/>
   </g>
   <g id="line2d_38">
    <path d="M 144.454795 217.236028 
" clip-path="url(#p95565d90d0)" style="fill: none; stroke: #000080; stroke-width: 1.5; stroke-linecap: square"/>
    <defs>
     <path id="m29e244ba37" d="M -12 12 
L 12 -12 
M -12 -12 
L 12 12 
" style="stroke: #000080"/>
    </defs>
    <g clip-path="url(#p95565d90d0)">
     <use xlink:href="#m29e244ba37" x="144.454795" y="217.236028" style="fill: #000080; stroke: #000080"/>
    </g>
   </g>
   <g id="line2d_39">
    <defs>
     <path id="m8662615f01" d="M 0 1.5 
C 0.397805 1.5 0.77937 1.341951 1.06066 1.06066 
C 1.341951 0.77937 1.5 0.397805 1.5 0 
C 1.5 -0.397805 1.341951 -0.77937 1.06066 -1.06066 
C 0.77937 -1.341951 0.397805 -1.5 0 -1.5 
C -0.397805 -1.5 -0.77937 -1.341951 -1.06066 -1.06066 
C -1.341951 -0.77937 -1.5 -0.397805 -1.5 0 
C -1.5 0.397805 -1.341951 0.77937 -1.06066 1.06066 
C -0.77937 1.341951 -0.397805 1.5 0 1.5 
z
" style="stroke: #ff00ff"/>
    </defs>
    <g>
     <use xlink:href="#m8662615f01" x="215.867201" y="27.648" style="fill: #ff00ff; stroke: #ff00ff"/>
     <use xlink:href="#m8662615f01" x="215.867201" y="27.648" style="fill: #ff00ff; stroke: #ff00ff"/>
    </g>
   </g>
   <g id="line2d_40">
    <path d="M 14.2848 298.944 
L 14.2848 276.956612 
L 27.323974 276.956612 
L 27.323974 275.183435 
L 34.951403 275.183435 
L 34.951403 274.8288 
L 40.363149 274.8288 
L 40.363149 274.474165 
L 47.990577 274.474165 
L 47.990577 273.055624 
L 55.618005 273.055624 
L 55.618005 272.700988 
L 59.392932 272.700988 
L 59.392932 271.991718 
L 62.535479 271.991718 
L 62.535479 271.637082 
L 65.227428 271.637082 
L 65.227428 271.282447 
L 67.581941 271.282447 
L 67.581941 270.927812 
L 69.674268 270.927812 
L 69.674268 270.218541 
L 72.432107 270.218541 
L 72.432107 269.509271 
L 75.574654 269.509271 
L 75.574654 269.154635 
L 76.284608 269.154635 
L 76.284608 268.8 
L 79.480672 268.8 
L 79.480672 268.445365 
L 80.059535 268.445365 
L 80.059535 267.736094 
L 81.166416 267.736094 
L 81.166416 267.381459 
L 86.712053 267.381459 
L 86.712053 267.026824 
L 88.613828 267.026824 
L 88.613828 266.672188 
L 88.972154 266.672188 
L 88.972154 265.962918 
L 92.223596 265.962918 
L 92.223596 265.608282 
L 93.66029 265.608282 
L 93.66029 265.253647 
L 94.205591 265.253647 
L 94.205591 264.544376 
L 96.480897 264.544376 
L 96.480897 264.189741 
L 96.717523 264.189741 
L 96.717523 263.835106 
L 98.510456 263.835106 
L 98.510456 263.480471 
L 100.147275 263.480471 
L 100.147275 263.125835 
L 100.342215 263.125835 
L 100.342215 262.7712 
L 100.726138 262.7712 
L 100.726138 262.416565 
L 101.102381 262.416565 
L 101.102381 262.061929 
L 102.536336 262.061929 
L 102.536336 261.352659 
L 102.708132 261.352659 
L 102.708132 260.998024 
L 103.047088 260.998024 
L 103.047088 260.643388 
L 103.707211 260.643388 
L 103.707211 260.288753 
L 104.187532 260.288753 
L 104.187532 259.934118 
L 105.112877 259.934118 
L 105.112877 259.579482 
L 105.26277 259.579482 
L 105.26277 259.224847 
L 105.99483 259.224847 
L 105.99483 257.806306 
L 106.837279 257.806306 
L 106.837279 257.451671 
L 108.667622 257.451671 
L 108.667622 257.097035 
L 111.117162 257.097035 
L 111.117162 256.7424 
L 111.86758 256.7424 
L 111.86758 256.033129 
L 112.283321 256.033129 
L 112.283321 255.678494 
L 112.989468 255.678494 
L 112.989468 255.323859 
L 113.381389 255.323859 
L 113.381389 254.969224 
L 114.048198 254.969224 
L 114.048198 254.614588 
L 115.402131 254.614588 
L 115.402131 254.259953 
L 115.661605 254.259953 
L 115.661605 253.550682 
L 116.336531 253.550682 
L 116.336531 253.196047 
L 116.501546 253.196047 
L 116.501546 252.841412 
L 116.665126 252.841412 
L 116.665126 252.486776 
L 117.305581 252.486776 
L 117.305581 252.132141 
L 118.152051 252.132141 
L 118.152051 251.777506 
L 119.530006 251.777506 
L 119.530006 251.422871 
L 119.669351 251.422871 
L 119.669351 251.068235 
L 119.944983 251.068235 
L 119.944983 250.7136 
L 120.748446 250.7136 
L 120.748446 250.358965 
L 120.879082 250.358965 
L 120.879082 249.649694 
L 121.073351 249.649694 
L 121.073351 249.295059 
L 121.39274 249.295059 
L 121.39274 248.940424 
L 121.706797 248.940424 
L 121.706797 248.585788 
L 122.559246 248.585788 
L 122.559246 248.231153 
L 122.854567 248.231153 
L 122.854567 247.876518 
L 123.936316 247.876518 
L 123.936316 247.167247 
L 124.319679 247.167247 
L 124.319679 246.812612 
L 124.748451 246.812612 
L 124.748451 246.457976 
L 125.526971 246.457976 
L 125.526971 246.103341 
L 125.879541 246.103341 
L 125.879541 245.748706 
L 126.127391 245.748706 
L 126.127391 245.394071 
L 126.323346 245.394071 
L 126.420564 244.6848 
L 126.709238 244.6848 
L 126.709238 244.330165 
L 127.134109 244.330165 
L 127.134109 243.975529 
L 127.273627 243.975529 
L 127.273627 243.620894 
L 127.412117 243.620894 
L 127.412117 243.266259 
L 127.640693 243.266259 
L 127.640693 242.911624 
L 128.178203 242.911624 
L 128.178203 242.556988 
L 128.829186 242.556988 
L 128.829186 242.202353 
L 128.956723 242.202353 
L 128.956723 241.847718 
L 129.0834 241.847718 
L 129.0834 241.493082 
L 129.375706 241.493082 
L 129.375706 241.138447 
L 129.581749 241.138447 
L 129.581749 240.783812 
L 130.146945 240.783812 
L 130.146945 240.429176 
L 130.265881 240.429176 
L 130.265881 240.074541 
L 130.501519 240.074541 
L 130.501519 239.719906 
L 130.849533 239.719906 
L 130.849533 239.365271 
L 131.191226 239.365271 
L 131.266322 238.301365 
L 131.63737 238.301365 
L 131.63737 237.946729 
L 132.037244 237.946729 
L 132.037244 237.592094 
L 132.499119 237.592094 
L 132.499119 237.237459 
L 132.638982 237.237459 
L 132.638982 236.173553 
L 132.984158 236.173553 
L 132.984158 235.818918 
L 133.457005 235.818918 
L 133.457005 235.464282 
L 133.853052 235.464282 
L 133.853052 235.109647 
L 134.272898 235.109647 
L 134.272898 234.400376 
L 134.463557 234.400376 
L 134.463557 234.045741 
L 134.683578 234.045741 
L 134.683578 233.691106 
L 135.14656 233.691106 
L 135.14656 233.336471 
L 135.449003 233.336471 
L 135.538796 231.917929 
L 135.835047 231.917929 
L 135.893741 231.208659 
L 136.270855 231.208659 
L 136.270855 230.854024 
L 136.413909 230.854024 
L 136.413909 230.499388 
L 136.555884 230.499388 
L 136.555884 230.144753 
L 136.780838 230.144753 
L 136.780838 229.790118 
L 137.003134 229.790118 
L 137.003134 229.435482 
L 137.601239 229.435482 
L 137.627979 228.726212 
L 137.787626 228.726212 
L 137.787626 228.371576 
L 137.919637 228.371576 
L 137.919637 228.016941 
L 138.10291 228.016941 
L 138.128947 227.307671 
L 138.412998 227.307671 
L 138.412998 226.953035 
L 138.89375 226.953035 
L 138.89375 226.5984 
L 139.117256 226.5984 
L 139.117256 226.243765 
L 139.386872 226.243765 
L 139.483965 225.534494 
L 139.77227 225.534494 
L 139.843661 224.825224 
L 139.962047 224.825224 
L 140.009194 224.115953 
L 140.451292 224.115953 
L 140.451292 223.761318 
L 141.039908 223.761318 
L 141.084433 223.052047 
L 141.239443 223.052047 
L 141.239443 222.697412 
L 141.371301 222.697412 
L 141.371301 222.342776 
L 141.804267 222.342776 
L 141.910969 221.633506 
L 141.932237 221.633506 
L 141.932237 221.278871 
L 142.290162 221.278871 
L 142.290162 220.924235 
L 142.47693 220.924235 
L 142.518184 220.214965 
L 142.620923 220.214965 
L 142.620923 219.505694 
L 142.844994 219.505694 
L 142.844994 219.151059 
L 143.02636 219.151059 
L 143.02636 218.796424 
L 143.166224 218.796424 
L 143.205995 218.087153 
L 143.38393 218.087153 
L 143.403597 217.377882 
L 143.501625 217.377882 
L 143.560197 216.668612 
L 143.850356 216.668612 
L 143.926981 215.604706 
L 144.06033 215.604706 
L 144.06033 215.250071 
L 144.173881 215.250071 
L 144.173881 214.895435 
L 144.749884 214.895435 
L 144.85936 214.186165 
L 144.895711 214.186165 
L 144.895711 213.831529 
L 145.040416 213.831529 
L 145.130294 213.122259 
L 145.415054 213.122259 
L 145.415054 212.767624 
L 145.590864 212.767624 
L 145.695567 212.058353 
L 145.90324 212.058353 
L 145.954802 211.349082 
L 146.108646 211.349082 
L 146.125662 210.639812 
L 146.294984 210.639812 
L 146.294984 210.285176 
L 146.612557 210.285176 
L 146.662213 209.575906 
L 146.777571 209.575906 
L 146.777571 209.221271 
L 146.892226 209.221271 
L 146.892226 208.866635 
L 147.343984 208.866635 
L 147.423525 208.157365 
L 147.502732 208.157365 
L 147.502732 207.802729 
L 147.628773 207.802729 
L 147.628773 207.448094 
L 147.800712 207.448094 
L 147.800712 206.384188 
L 147.955668 206.384188 
L 147.955668 206.029553 
L 148.07872 206.029553 
L 148.07872 205.674918 
L 148.652472 205.674918 
L 148.697031 204.965647 
L 148.785835 204.965647 
L 148.785835 204.611012 
L 149.078856 204.611012 
L 149.078856 203.901741 
L 149.637443 203.901741 
L 149.665646 203.192471 
L 149.750003 203.192471 
L 149.750003 202.4832 
L 150.069911 202.4832 
L 150.069911 202.128565 
L 150.438643 202.128565 
L 150.438643 201.773929 
L 150.787015 201.773929 
L 150.787015 201.419294 
L 151.050671 201.419294 
L 151.050671 201.064659 
L 151.27191 201.064659 
L 151.336488 200.000753 
L 151.426526 200.000753 
L 151.426526 199.646118 
L 151.757231 199.646118 
L 151.757231 199.291482 
L 152.057422 199.291482 
L 152.131727 198.227576 
L 152.25492 198.227576 
L 152.25492 197.872941 
L 152.413875 197.872941 
L 152.450367 197.163671 
L 152.906572 197.163671 
L 153.01302 196.4544 
L 153.259079 196.4544 
L 153.259079 196.099765 
L 153.455939 196.099765 
L 153.455939 195.745129 
L 153.719042 195.745129 
L 153.719042 195.390494 
L 153.877408 195.390494 
L 153.877408 195.035859 
L 154.322673 195.035859 
L 154.432362 193.617318 
L 154.584859 193.617318 
L 154.584859 193.262682 
L 154.757642 193.262682 
L 154.757642 192.908047 
L 155.013876 192.908047 
L 155.013876 192.553412 
L 155.371001 192.553412 
L 155.371001 192.198776 
L 155.516105 192.198776 
L 155.619069 191.489506 
L 155.752086 191.489506 
L 155.752086 191.134871 
L 156.235234 191.134871 
L 156.235234 190.780235 
L 156.403417 190.780235 
L 156.403417 190.4256 
L 157.004352 190.4256 
L 157.071009 189.361694 
L 157.540383 189.361694 
L 157.540383 189.007059 
L 157.816487 189.007059 
L 157.880333 188.297788 
L 159.443406 188.297788 
L 159.443406 187.943153 
L 160.069692 187.943153 
L 160.069692 187.588518 
L 160.730652 187.588518 
L 160.730652 187.233882 
L 161.384298 187.233882 
L 161.384298 186.879247 
L 163.706328 186.879247 
L 163.706328 186.524612 
L 167.999955 186.524612 
L 167.999955 186.169976 
L 179.091369 186.169976 
L 179.091369 185.815341 
L 179.398443 185.815341 
L 179.398443 185.460706 
L 179.97546 185.460706 
L 179.97546 185.106071 
L 180.379007 185.106071 
L 180.379007 184.751435 
L 180.644213 184.751435 
L 180.741697 183.687529 
L 180.961875 183.687529 
L 181.06835 182.978259 
L 181.297875 182.978259 
L 181.350246 182.268988 
L 181.6743 182.268988 
L 181.764044 181.559718 
L 181.845723 181.559718 
L 181.888971 180.850447 
L 182.113777 180.850447 
L 182.201454 179.431906 
L 182.457127 179.431906 
L 182.508831 178.722635 
L 182.648457 178.722635 
L 182.753108 177.304094 
L 182.804006 177.304094 
L 182.852352 176.240188 
L 182.991858 176.240188 
L 182.991858 175.885553 
L 183.118439 175.885553 
L 183.222882 174.821647 
L 183.272526 174.821647 
L 183.333809 173.403106 
L 183.462793 173.403106 
L 183.488484 172.693835 
L 183.60018 172.693835 
L 183.68121 171.629929 
L 183.805546 171.629929 
L 183.858256 170.920659 
L 183.960958 170.920659 
L 184.054045 169.147482 
L 184.078942 169.147482 
L 184.106064 168.438212 
L 184.243334 168.438212 
L 184.335038 167.019671 
L 184.49058 167.019671 
L 184.594298 166.3104 
L 184.677739 166.3104 
L 184.762993 164.891859 
L 184.891237 164.891859 
L 184.97553 163.118682 
L 185.072326 163.118682 
L 185.151541 161.700141 
L 185.209137 161.700141 
L 185.249563 160.990871 
L 185.363983 160.990871 
L 185.469311 159.572329 
L 185.521755 159.572329 
L 185.580319 158.863059 
L 185.705203 158.863059 
L 185.738365 158.153788 
L 185.843683 158.153788 
L 185.843683 157.799153 
L 186.040343 157.799153 
L 186.062746 156.735247 
L 186.222862 156.735247 
L 186.289345 155.671341 
L 186.453534 155.671341 
L 186.467484 154.962071 
L 186.590592 154.962071 
L 186.612349 154.2528 
L 186.763953 154.2528 
L 186.873448 153.188894 
L 187.123278 153.188894 
L 187.188576 152.124988 
L 187.394502 152.124988 
L 187.472092 151.061082 
L 187.555003 151.061082 
L 187.558763 150.351812 
L 187.786717 150.351812 
L 187.803424 149.287906 
L 187.986233 149.287906 
L 188.090686 147.869365 
L 188.125375 147.869365 
L 188.125375 147.514729 
L 188.315933 147.514729 
L 188.315933 147.160094 
L 188.445494 147.160094 
L 188.445494 146.805459 
L 188.606202 146.805459 
L 188.606202 146.450824 
L 188.930547 146.450824 
L 189.007286 145.741553 
L 189.127 145.741553 
L 189.127 145.386918 
L 189.474849 145.386918 
L 189.474849 145.032282 
L 190.094414 145.032282 
L 190.094414 144.677647 
L 190.374873 144.677647 
L 190.374873 144.323012 
L 190.849521 144.323012 
L 190.932978 143.613741 
L 191.358625 143.613741 
L 191.435269 142.549835 
L 191.961722 142.549835 
L 191.961722 142.1952 
L 192.33144 142.1952 
L 192.33144 141.840565 
L 192.758305 141.840565 
L 192.758305 141.485929 
L 193.643981 141.485929 
L 193.643981 141.131294 
L 197.186975 141.131294 
L 197.186975 140.776659 
L 197.380905 140.776659 
L 197.380905 140.422024 
L 197.505397 140.422024 
L 197.505397 140.067388 
L 197.891378 140.067388 
L 197.891378 139.712753 
L 198.06424 139.712753 
L 198.162921 139.003482 
L 198.466425 139.003482 
L 198.566166 137.584941 
L 198.597553 137.584941 
L 198.706999 136.521035 
L 198.717389 136.521035 
L 198.72985 135.457129 
L 198.836466 135.457129 
L 198.916805 134.038588 
L 198.991684 134.038588 
L 199.095813 132.620047 
L 199.103956 132.620047 
L 199.138523 131.910776 
L 199.220618 131.910776 
L 199.308398 130.846871 
L 199.332541 130.846871 
L 199.424804 129.428329 
L 199.667332 129.428329 
L 199.683127 128.364424 
L 199.843285 128.364424 
L 199.869683 127.300518 
L 199.954492 127.300518 
L 200.051504 124.1088 
L 200.143204 124.1088 
L 200.198011 122.335624 
L 200.271795 122.335624 
L 200.371945 120.562447 
L 200.400462 120.562447 
L 200.5056 117.370729 
L 200.526368 117.370729 
L 200.635497 115.597553 
L 200.709457 115.597553 
L 200.80824 112.0512 
L 200.900958 112.0512 
L 201.005183 109.568753 
L 201.042856 109.568753 
L 201.150864 106.731671 
L 201.167285 106.731671 
L 201.258255 105.313129 
L 201.293614 105.313129 
L 201.390285 102.830682 
L 201.423598 102.830682 
L 201.496322 100.348235 
L 201.541967 100.348235 
L 201.631146 97.156518 
L 201.670252 97.156518 
L 201.740261 94.674071 
L 201.783554 94.674071 
L 201.893545 92.546259 
L 201.913714 92.546259 
L 202.009002 89.709176 
L 202.041238 89.709176 
L 202.142812 87.936 
L 202.160121 87.936 
L 202.259336 84.744282 
L 202.299734 84.744282 
L 202.381127 82.971106 
L 202.419559 82.971106 
L 202.525056 80.843294 
L 202.549643 80.843294 
L 202.634182 78.715482 
L 202.673784 78.715482 
L 202.777869 77.296941 
L 202.789584 77.296941 
L 202.848052 76.233035 
L 202.903013 76.233035 
L 203.008321 74.459859 
L 203.02072 74.459859 
L 203.111398 72.332047 
L 203.144264 72.332047 
L 203.207369 70.558871 
L 203.297969 70.558871 
L 203.390564 68.076424 
L 203.461732 68.076424 
L 203.535847 65.239341 
L 203.599257 65.239341 
L 203.703937 64.530071 
L 203.755662 64.530071 
L 203.849991 63.466165 
L 203.907624 63.466165 
L 203.925746 62.756894 
L 204.052894 62.756894 
L 204.052894 62.402259 
L 204.262916 62.402259 
L 204.262916 62.047624 
L 204.374745 62.047624 
L 204.374745 61.692988 
L 204.521807 61.692988 
L 204.53706 60.983718 
L 204.655611 60.983718 
L 204.733477 60.274447 
L 204.841052 60.274447 
L 204.942793 59.210541 
L 205.052147 59.210541 
L 205.160132 58.146635 
L 205.186664 58.146635 
L 205.296811 57.082729 
L 205.371344 57.082729 
L 205.457202 56.018824 
L 213.338206 56.018824 
L 213.378272 55.309553 
L 213.489911 55.309553 
L 213.489911 54.954918 
L 213.602774 54.954918 
L 213.709816 53.536376 
L 213.736014 53.536376 
L 213.814855 51.7632 
L 213.862744 51.7632 
L 213.966936 49.990024 
L 214.036077 49.990024 
L 214.132908 48.216847 
L 214.149837 48.216847 
L 214.232431 46.798306 
L 214.316024 46.798306 
L 214.421798 44.315859 
L 214.466371 44.315859 
L 214.529222 43.251953 
L 214.582482 43.251953 
L 214.688995 40.060235 
L 214.722739 40.060235 
L 214.833315 37.577788 
L 214.868563 37.577788 
L 214.934035 35.804612 
L 214.98135 35.804612 
L 215.0521 32.967529 
L 215.102597 32.967529 
L 215.140382 31.548988 
L 215.247242 31.548988 
L 215.295498 30.130447 
L 215.364221 30.130447 
L 215.448919 29.066541 
L 215.490274 29.066541 
L 215.490274 28.711906 
L 215.63367 28.711906 
L 215.708329 28.002635 
L 215.867201 28.002635 
L 215.867201 27.648 
L 360.8064 27.648 
L 360.8064 27.648 
" style="fill: none; stroke: #ff00ff; stroke-width: 1.5; stroke-linecap: square"/>
   </g>
   <g id="line2d_41">
    <defs>
     <path id="m7ce07f1b06" d="M -0 8.485281 
L 5.091169 0 
L 0 -8.485281 
L -5.091169 -0 
z
" style="stroke: #ff00ff; stroke-width: 1.5; stroke-linejoin: miter"/>
    </defs>
    <g>
     <use xlink:href="#m7ce07f1b06" x="118.152051" y="251.777506" style="fill-opacity: 0; stroke: #ff00ff; stroke-width: 1.5; stroke-linejoin: miter"/>
     <use xlink:href="#m7ce07f1b06" x="188.125375" y="147.869365" style="fill-opacity: 0; stroke: #ff00ff; stroke-width: 1.5; stroke-linejoin: miter"/>
     <use xlink:href="#m7ce07f1b06" x="215.867201" y="28.002635" style="fill-opacity: 0; stroke: #ff00ff; stroke-width: 1.5; stroke-linejoin: miter"/>
     <use xlink:href="#m7ce07f1b06" x="215.867201" y="27.648" style="fill-opacity: 0; stroke: #ff00ff; stroke-width: 1.5; stroke-linejoin: miter"/>
     <use xlink:href="#m7ce07f1b06" x="215.867201" y="27.648" style="fill-opacity: 0; stroke: #ff00ff; stroke-width: 1.5; stroke-linejoin: miter"/>
     <use xlink:href="#m7ce07f1b06" x="360.8064" y="27.648" style="fill-opacity: 0; stroke: #ff00ff; stroke-width: 1.5; stroke-linejoin: miter"/>
    </g>
   </g>
   <g id="line2d_42">
    <path style="fill: none; stroke: #ff00ff; stroke-width: 1.5; stroke-linecap: square"/>
    <g/>
   </g>
   <g id="line2d_43">
    <path d="M 360.8064 155.316706 
L 380.514816 293.51808 
" style="fill: none; stroke: #000080; stroke-width: 1.5; stroke-linecap: square"/>
    <g>
     <use xlink:href="#mdfda635309" x="360.8064" y="155.316706" style="fill-opacity: 0; stroke: #000080; stroke-width: 1.5"/>
     <use xlink:href="#mdfda635309" x="380.514816" y="293.51808" style="fill-opacity: 0; stroke: #000080; stroke-width: 1.5"/>
    </g>
   </g>
   <g id="line2d_44">
    <path d="M 360.8064 27.648 
L 380.514816 163.296 
" style="fill: none; stroke: #ff00ff; stroke-width: 1.5; stroke-linecap: square"/>
    <g>
     <use xlink:href="#m7ce07f1b06" x="360.8064" y="27.648" style="fill-opacity: 0; stroke: #ff00ff; stroke-width: 1.5; stroke-linejoin: miter"/>
     <use xlink:href="#m7ce07f1b06" x="380.514816" y="163.296" style="fill-opacity: 0; stroke: #ff00ff; stroke-width: 1.5; stroke-linejoin: miter"/>
    </g>
   </g>
   <g id="line2d_45">
    <path d="M 360.8064 298.944 
L 360.8064 27.648 
" style="fill: none; stroke: #000000; stroke-width: 1.5; stroke-linecap: square"/>
   </g>
   <g id="patch_3">
    <path d="M 57.6 298.944 
L 360.8064 298.944 
" style="fill: none; stroke: #000000; stroke-width: 0.8; stroke-linejoin: miter; stroke-linecap: square"/>
   </g>
   <g id="patch_4">
    <path d="M 57.6 27.648 
L 360.8064 27.648 
" style="fill: none; stroke: #000000; stroke-width: 0.8; stroke-linejoin: miter; stroke-linecap: square"/>
   </g>
   <g id="text_13">
    <!-- ex -->
    <g transform="translate(386.578944 297.381205)scale(0.14 -0.14)">
     <defs>
      <path id="DejaVuSans-78" d="M 3513 3500 
L 2247 1797 
L 3578 0 
L 2900 0 
L 1881 1375 
L 863 0 
L 184 0 
L 1544 1831 
L 300 3500 
L 978 3500 
L 1906 2253 
L 2834 3500 
L 3513 3500 
z
" transform="scale(0.015625)"/>
     </defs>
     <use xlink:href="#DejaVuSans-65"/>
     <use xlink:href="#DejaVuSans-78" x="59.773438"/>
    </g>
   </g>
   <g id="text_14">
    <!-- CMA-ES-20 -->
    <g transform="translate(386.578944 167.159125)scale(0.14 -0.14)">
     <defs>
      <path id="DejaVuSans-43" d="M 4122 4306 
L 4122 3641 
Q 3803 3938 3442 4084 
Q 3081 4231 2675 4231 
Q 1875 4231 1450 3742 
Q 1025 3253 1025 2328 
Q 1025 1406 1450 917 
Q 1875 428 2675 428 
Q 3081 428 3442 575 
Q 3803 722 4122 1019 
L 4122 359 
Q 3791 134 3420 21 
Q 3050 -91 2638 -91 
Q 1578 -91 968 557 
Q 359 1206 359 2328 
Q 359 3453 968 4101 
Q 1578 4750 2638 4750 
Q 3056 4750 3426 4639 
Q 3797 4528 4122 4306 
z
" transform="scale(0.015625)"/>
      <path id="DejaVuSans-4d" d="M 628 4666 
L 1569 4666 
L 2759 1491 
L 3956 4666 
L 4897 4666 
L 4897 0 
L 4281 0 
L 4281 4097 
L 3078 897 
L 2444 897 
L 1241 4097 
L 1241 0 
L 628 0 
L 628 4666 
z
" transform="scale(0.015625)"/>
      <path id="DejaVuSans-41" d="M 2188 4044 
L 1331 1722 
L 3047 1722 
L 2188 4044 
z
M 1831 4666 
L 2547 4666 
L 4325 0 
L 3669 0 
L 3244 1197 
L 1141 1197 
L 716 0 
L 50 0 
L 1831 4666 
z
" transform="scale(0.015625)"/>
      <path id="DejaVuSans-45" d="M 628 4666 
L 3578 4666 
L 3578 4134 
L 1259 4134 
L 1259 2753 
L 3481 2753 
L 3481 2222 
L 1259 2222 
L 1259 531 
L 3634 531 
L 3634 0 
L 628 0 
L 628 4666 
z
" transform="scale(0.015625)"/>
      <path id="DejaVuSans-53" d="M 3425 4513 
L 3425 3897 
Q 3066 4069 2747 4153 
Q 2428 4238 2131 4238 
Q 1616 4238 1336 4038 
Q 1056 3838 1056 3469 
Q 1056 3159 1242 3001 
Q 1428 2844 1947 2747 
L 2328 2669 
Q 3034 2534 3370 2195 
Q 3706 1856 3706 1288 
Q 3706 609 3251 259 
Q 2797 -91 1919 -91 
Q 1588 -91 1214 -16 
Q 841 59 441 206 
L 441 856 
Q 825 641 1194 531 
Q 1563 422 1919 422 
Q 2459 422 2753 634 
Q 3047 847 3047 1241 
Q 3047 1584 2836 1778 
Q 2625 1972 2144 2069 
L 1759 2144 
Q 1053 2284 737 2584 
Q 422 2884 422 3419 
Q 422 4038 858 4394 
Q 1294 4750 2059 4750 
Q 2388 4750 2728 4690 
Q 3069 4631 3425 4513 
z
" transform="scale(0.015625)"/>
     </defs>
     <use xlink:href="#DejaVuSans-43"/>
     <use xlink:href="#DejaVuSans-4d" x="69.824219"/>
     <use xlink:href="#DejaVuSans-41" x="156.103516"/>
     <use xlink:href="#DejaVuSans-2d" x="222.261719"/>
     <use xlink:href="#DejaVuSans-45" x="258.345703"/>
     <use xlink:href="#DejaVuSans-53" x="321.529297"/>
     <use xlink:href="#DejaVuSans-2d" x="385.005859"/>
     <use xlink:href="#DejaVuSans-32" x="421.089844"/>
     <use xlink:href="#DejaVuSans-30" x="484.712891"/>
    </g>
   </g>
   <g id="text_15">
    <!-- best 2009 -->
    <g transform="translate(386.578944 36.937045)scale(0.14 -0.14)">
     <defs>
      <path id="DejaVuSans-62" d="M 3116 1747 
Q 3116 2381 2855 2742 
Q 2594 3103 2138 3103 
Q 1681 3103 1420 2742 
Q 1159 2381 1159 1747 
Q 1159 1113 1420 752 
Q 1681 391 2138 391 
Q 2594 391 2855 752 
Q 3116 1113 3116 1747 
z
M 1159 2969 
Q 1341 3281 1617 3432 
Q 1894 3584 2278 3584 
Q 2916 3584 3314 3078 
Q 3713 2572 3713 1747 
Q 3713 922 3314 415 
Q 2916 -91 2278 -91 
Q 1894 -91 1617 61 
Q 1341 213 1159 525 
L 1159 0 
L 581 0 
L 581 4863 
L 1159 4863 
L 1159 2969 
z
" transform="scale(0.015625)"/>
      <path id="DejaVuSans-39" d="M 703 97 
L 703 672 
Q 941 559 1184 500 
Q 1428 441 1663 441 
Q 2288 441 2617 861 
Q 2947 1281 2994 2138 
Q 2813 1869 2534 1725 
Q 2256 1581 1919 1581 
Q 1219 1581 811 2004 
Q 403 2428 403 3163 
Q 403 3881 828 4315 
Q 1253 4750 1959 4750 
Q 2769 4750 3195 4129 
Q 3622 3509 3622 2328 
Q 3622 1225 3098 567 
Q 2575 -91 1691 -91 
Q 1453 -91 1209 -44 
Q 966 3 703 97 
z
M 1959 2075 
Q 2384 2075 2632 2365 
Q 2881 2656 2881 3163 
Q 2881 3666 2632 3958 
Q 2384 4250 1959 4250 
Q 1534 4250 1286 3958 
Q 1038 3666 1038 3163 
Q 1038 2656 1286 2365 
Q 1534 2075 1959 2075 
z
" transform="scale(0.015625)"/>
     </defs>
     <use xlink:href="#DejaVuSans-62"/>
     <use xlink:href="#DejaVuSans-65" x="63.476562"/>
     <use xlink:href="#DejaVuSans-73" x="125"/>
     <use xlink:href="#DejaVuSans-74" x="177.099609"/>
     <use xlink:href="#DejaVuSans-20" x="216.308594"/>
     <use xlink:href="#DejaVuSans-32" x="248.095703"/>
     <use xlink:href="#DejaVuSans-30" x="311.71875"/>
     <use xlink:href="#DejaVuSans-30" x="375.341797"/>
     <use xlink:href="#DejaVuSans-39" x="438.964844"/>
    </g>
   </g>
   <g id="text_16">
    <!-- bbob f17, 10-D -->
    <g transform="translate(60.632064 38.111366)scale(0.102 -0.102)">
     <defs>
      <path id="DejaVuSans-37" d="M 525 4666 
L 3525 4666 
L 3525 4397 
L 1831 0 
L 1172 0 
L 2766 4134 
L 525 4134 
L 525 4666 
z
" transform="scale(0.015625)"/>
      <path id="DejaVuSans-44" d="M 1259 4147 
L 1259 519 
L 2022 519 
Q 2988 519 3436 956 
Q 3884 1394 3884 2338 
Q 3884 3275 3436 3711 
Q 2988 4147 2022 4147 
L 1259 4147 
z
M 628 4666 
L 1925 4666 
Q 3281 4666 3915 4102 
Q 4550 3538 4550 2338 
Q 4550 1131 3912 565 
Q 3275 0 1925 0 
L 628 0 
L 628 4666 
z
" transform="scale(0.015625)"/>
     </defs>
     <use xlink:href="#DejaVuSans-62"/>
     <use xlink:href="#DejaVuSans-62" x="63.476562"/>
     <use xlink:href="#DejaVuSans-6f" x="126.953125"/>
     <use xlink:href="#DejaVuSans-62" x="188.134766"/>
     <use xlink:href="#DejaVuSans-20" x="251.611328"/>
     <use xlink:href="#DejaVuSans-66" x="283.398438"/>
     <use xlink:href="#DejaVuSans-31" x="318.603516"/>
     <use xlink:href="#DejaVuSans-37" x="382.226562"/>
     <use xlink:href="#DejaVuSans-2c" x="445.849609"/>
     <use xlink:href="#DejaVuSans-20" x="477.636719"/>
     <use xlink:href="#DejaVuSans-31" x="509.423828"/>
     <use xlink:href="#DejaVuSans-30" x="573.046875"/>
     <use xlink:href="#DejaVuSans-2d" x="636.669922"/>
     <use xlink:href="#DejaVuSans-44" x="672.753906"/>
    </g>
    <!-- 51 targets: 100..1e-08 -->
    <g transform="translate(60.632064 49.533135)scale(0.102 -0.102)">
     <defs>
      <path id="DejaVuSans-35" d="M 691 4666 
L 3169 4666 
L 3169 4134 
L 1269 4134 
L 1269 2991 
Q 1406 3038 1543 3061 
Q 1681 3084 1819 3084 
Q 2600 3084 3056 2656 
Q 3513 2228 3513 1497 
Q 3513 744 3044 326 
Q 2575 -91 1722 -91 
Q 1428 -91 1123 -41 
Q 819 9 494 109 
L 494 744 
Q 775 591 1075 516 
Q 1375 441 1709 441 
Q 2250 441 2565 725 
Q 2881 1009 2881 1497 
Q 2881 1984 2565 2268 
Q 2250 2553 1709 2553 
Q 1456 2553 1204 2497 
Q 953 2441 691 2322 
L 691 4666 
z
" transform="scale(0.015625)"/>
      <path id="DejaVuSans-3a" d="M 750 794 
L 1409 794 
L 1409 0 
L 750 0 
L 750 794 
z
M 750 3309 
L 1409 3309 
L 1409 2516 
L 750 2516 
L 750 3309 
z
" transform="scale(0.015625)"/>
     </defs>
     <use xlink:href="#DejaVuSans-35"/>
     <use xlink:href="#DejaVuSans-31" x="63.623047"/>
     <use xlink:href="#DejaVuSans-20" x="127.246094"/>
     <use xlink:href="#DejaVuSans-74" x="159.033203"/>
     <use xlink:href="#DejaVuSans-61" x="198.242188"/>
     <use xlink:href="#DejaVuSans-72" x="259.521484"/>
     <use xlink:href="#DejaVuSans-67" x="298.884766"/>
     <use xlink:href="#DejaVuSans-65" x="362.361328"/>
     <use xlink:href="#DejaVuSans-74" x="423.884766"/>
     <use xlink:href="#DejaVuSans-73" x="463.09375"/>
     <use xlink:href="#DejaVuSans-3a" x="515.193359"/>
     <use xlink:href="#DejaVuSans-20" x="548.884766"/>
     <use xlink:href="#DejaVuSans-31" x="580.671875"/>
     <use xlink:href="#DejaVuSans-30" x="644.294922"/>
     <use xlink:href="#DejaVuSans-30" x="707.917969"/>
     <use xlink:href="#DejaVuSans-2e" x="771.541016"/>
     <use xlink:href="#DejaVuSans-2e" x="803.328125"/>
     <use xlink:href="#DejaVuSans-31" x="835.115234"/>
     <use xlink:href="#DejaVuSans-65" x="898.738281"/>
     <use xlink:href="#DejaVuSans-2d" x="960.261719"/>
     <use xlink:href="#DejaVuSans-30" x="996.345703"/>
     <use xlink:href="#DejaVuSans-38" x="1059.96875"/>
    </g>
    <!-- 25, 15 instances -->
    <g transform="translate(60.632064 60.954904)scale(0.102 -0.102)">
     <use xlink:href="#DejaVuSans-32"/>
     <use xlink:href="#DejaVuSans-35" x="63.623047"/>
     <use xlink:href="#DejaVuSans-2c" x="127.246094"/>
     <use xlink:href="#DejaVuSans-20" x="159.033203"/>
     <use xlink:href="#DejaVuSans-31" x="190.820312"/>
     <use xlink:href="#DejaVuSans-35" x="254.443359"/>
     <use xlink:href="#DejaVuSans-20" x="318.066406"/>
     <use xlink:href="#DejaVuSans-69" x="349.853516"/>
     <use xlink:href="#DejaVuSans-6e" x="377.636719"/>
     <use xlink:href="#DejaVuSans-73" x="441.015625"/>
     <use xlink:href="#DejaVuSans-74" x="493.115234"/>
     <use xlink:href="#DejaVuSans-61" x="532.324219"/>
     <use xlink:href="#DejaVuSans-6e" x="593.603516"/>
     <use xlink:href="#DejaVuSans-63" x="656.982422"/>
     <use xlink:href="#DejaVuSans-65" x="711.962891"/>
     <use xlink:href="#DejaVuSans-73" x="773.486328"/>
    </g>
   </g>
   <g id="text_17">
    <!-- v2.6 -->
    <g style="fill: #808080" transform="translate(198.292262 294.151352)scale(0.1 -0.1)">
     <use xlink:href="#DejaVuSans-76"/>
     <use xlink:href="#DejaVuSans-32" x="59.179688"/>
     <use xlink:href="#DejaVuSans-2e" x="122.802734"/>
     <use xlink:href="#DejaVuSans-36" x="154.589844"/>
    </g>
   </g>
   <g id="text_18">
    <!-- 17 Schaffer F7, condition 10 -->
    <g transform="translate(67.895387 21.648)scale(0.2 -0.2)">
     <defs>
      <path id="DejaVuSans-68" d="M 3513 2113 
L 3513 0 
L 2938 0 
L 2938 2094 
Q 2938 2591 2744 2837 
Q 2550 3084 2163 3084 
Q 1697 3084 1428 2787 
Q 1159 2491 1159 1978 
L 1159 0 
L 581 0 
L 581 4863 
L 1159 4863 
L 1159 2956 
Q 1366 3272 1645 3428 
Q 1925 3584 2291 3584 
Q 2894 3584 3203 3211 
Q 3513 2838 3513 2113 
z
" transform="scale(0.015625)"/>
     </defs>
     <use xlink:href="#DejaVuSans-31"/>
     <use xlink:href="#DejaVuSans-37" x="63.623047"/>
     <use xlink:href="#DejaVuSans-20" x="127.246094"/>
     <use xlink:href="#DejaVuSans-53" x="159.033203"/>
     <use xlink:href="#DejaVuSans-63" x="222.509766"/>
     <use xlink:href="#DejaVuSans-68" x="277.490234"/>
     <use xlink:href="#DejaVuSans-61" x="340.869141"/>
     <use xlink:href="#DejaVuSans-66" x="402.148438"/>
     <use xlink:href="#DejaVuSans-66" x="437.353516"/>
     <use xlink:href="#DejaVuSans-65" x="472.558594"/>
     <use xlink:href="#DejaVuSans-72" x="534.082031"/>
     <use xlink:href="#DejaVuSans-20" x="575.195312"/>
     <use xlink:href="#DejaVuSans-46" x="606.982422"/>
     <use xlink:href="#DejaVuSans-37" x="664.501953"/>
     <use xlink:href="#DejaVuSans-2c" x="728.125"/>
     <use xlink:href="#DejaVuSans-20" x="759.912109"/>
     <use xlink:href="#DejaVuSans-63" x="791.699219"/>
     <use xlink:href="#DejaVuSans-6f" x="846.679688"/>
     <use xlink:href="#DejaVuSans-6e" x="907.861328"/>
     <use xlink:href="#DejaVuSans-64" x="971.240234"/>
     <use xlink:href="#DejaVuSans-69" x="1034.716797"/>
     <use xlink:href="#DejaVuSans-74" x="1062.5"/>
     <use xlink:href="#DejaVuSans-69" x="1101.708984"/>
     <use xlink:href="#DejaVuSans-6f" x="1129.492188"/>
     <use xlink:href="#DejaVuSans-6e" x="1190.673828"/>
     <use xlink:href="#DejaVuSans-20" x="1254.052734"/>
     <use xlink:href="#DejaVuSans-31" x="1285.839844"/>
     <use xlink:href="#DejaVuSans-30" x="1349.462891"/>
    </g>
   </g>
  </g>
 </g>
 <defs>
  <clipPath id="p95565d90d0">
   <rect x="57.6" y="27.648" width="303.2064" height="271.296"/>
  </clipPath>
 </defs>
</svg>
