<?xml version="1.0" encoding="utf-8" standalone="no"?>
<!DOCTYPE svg PUBLIC "-//W3C//DTD SVG 1.1//EN"
  "http://www.w3.org/Graphics/SVG/1.1/DTD/svg11.dtd">
<svg xmlns:xlink="http://www.w3.org/1999/xlink" width="460.8pt" height="345.6pt" viewBox="0 0 460.8 345.6" xmlns="http://www.w3.org/2000/svg" version="1.1">
 <metadata>
  <rdf:RDF xmlns:dc="http://purl.org/dc/elements/1.1/" xmlns:cc="http://creativecommons.org/ns#" xmlns:rdf="http://www.w3.org/1999/02/22-rdf-syntax-ns#">
   <cc:Work>
    <dc:type rdf:resource="http://purl.org/dc/dcmitype/StillImage"/>
    <dc:date>2022-03-16T23:35:14.359022</dc:date>
    <dc:format>image/svg+xml</dc:format>
    <dc:creator>
     <cc:Agent>
      <dc:title>Matplotlib v3.5.1, https://matplotlib.org/</dc:title>
     </cc:Agent>
    </dc:creator>
   </cc:Work>
  </rdf:RDF>
 </metadata>
 <defs>
  <style type="text/css">*{stroke-linejoin: round; stroke-linecap: butt}</style>
 </defs>
 <g id="figure_1">
  <g id="patch_1">
   <path d="M 0 345.6 
L 460.8 345.6 
L 460.8 0 
L 0 0 
z
" style="fill: #ffffff"/>
  </g>
  <g id="axes_1">
   <g id="patch_2">
    <path d="M 57.6 298.944 
L 360.8064 298.944 
L 360.8064 27.648 
L 57.6 27.648 
z
" style="fill: #ffffff"/>
   </g>
   <g id="line2d_1">
    <path d="M 121.361044 298.944 
L 121.361044 293.624471 
L 121.86188 293.624471 
L 121.86188 288.304941 
L 122.319605 288.304941 
L 122.319605 282.985412 
L 123.174153 282.985412 
L 123.174153 277.665882 
L 129.062347 277.665882 
L 129.062347 272.346353 
L 131.965169 272.346353 
L 131.965169 267.026824 
L 135.628162 267.026824 
L 135.628162 261.707294 
L 137.853747 261.707294 
L 137.853747 256.387765 
L 140.138242 256.387765 
L 140.138242 251.068235 
L 141.610664 251.068235 
L 141.610664 245.748706 
L 143.638012 245.748706 
L 143.638012 240.429176 
L 144.931992 240.429176 
L 144.931992 235.109647 
L 145.920443 235.109647 
L 145.920443 229.790118 
L 147.589476 229.790118 
L 147.589476 224.470588 
L 148.75628 224.470588 
L 148.75628 219.151059 
L 150.152479 219.151059 
L 150.152479 213.831529 
L 150.85989 213.831529 
L 150.85989 208.512 
L 151.362257 208.512 
L 151.362257 203.192471 
L 152.057422 203.192471 
L 152.057422 197.872941 
L 152.438211 197.872941 
L 152.438211 192.553412 
L 152.811444 192.553412 
L 152.811444 187.233882 
L 153.206622 187.233882 
L 153.206622 181.914353 
L 153.627945 181.914353 
L 153.627945 176.594824 
L 154.129165 176.594824 
L 154.129165 171.275294 
L 154.601125 171.275294 
L 154.601125 165.955765 
L 157.916719 165.955765 
L 157.916719 160.636235 
L 160.851552 160.636235 
L 160.851552 155.316706 
L 162.991492 155.316706 
L 162.991492 149.997176 
L 163.28411 149.997176 
L 163.28411 144.677647 
L 165.957604 144.677647 
L 165.957604 139.358118 
L 166.193193 139.358118 
L 166.193193 134.038588 
L 166.451865 134.038588 
L 166.451865 128.719059 
L 166.707029 128.719059 
L 166.707029 123.399529 
L 172.990976 123.399529 
L 172.990976 118.08 
L 178.325593 118.08 
L 178.325593 112.760471 
L 178.563621 112.760471 
L 178.563621 107.440941 
L 178.78819 107.440941 
L 178.78819 102.121412 
L 179.005667 102.121412 
L 179.005667 96.801882 
L 179.207476 96.801882 
L 179.207476 91.482353 
L 179.431773 91.482353 
L 179.431773 86.162824 
L 179.654857 86.162824 
L 179.654857 80.843294 
L 179.872498 80.843294 
L 179.872498 75.523765 
L 180.070865 75.523765 
L 180.070865 70.204235 
L 180.258849 70.204235 
L 180.258849 64.884706 
L 180.440858 64.884706 
L 180.440858 59.565176 
L 180.602085 59.565176 
L 180.602085 54.245647 
L 180.757895 54.245647 
L 180.757895 48.926118 
L 180.911087 48.926118 
L 180.911087 43.606588 
L 181.077638 43.606588 
L 181.077638 38.287059 
L 181.251931 38.287059 
L 181.251931 32.967529 
L 181.607355 32.967529 
L 181.607355 27.648 
L 360.8064 27.648 
" style="fill: none; stroke: #f5deb3; stroke-width: 4; stroke-linecap: square"/>
   </g>
   <g id="line2d_2">
    <defs>
     <path id="mbb48761a31" d="M -0 7.778175 
L 7.778175 0 
L 0 -7.778175 
L -7.778175 -0 
z
" style="stroke: #f5deb3; stroke-width: 1.5; stroke-linejoin: miter"/>
    </defs>
    <g>
     <use xlink:href="#mbb48761a31" x="152.057422" y="203.192471" style="fill: #f5deb3; stroke: #f5deb3; stroke-width: 1.5; stroke-linejoin: miter"/>
     <use xlink:href="#mbb48761a31" x="180.258849" y="64.884706" style="fill: #f5deb3; stroke: #f5deb3; stroke-width: 1.5; stroke-linejoin: miter"/>
     <use xlink:href="#mbb48761a31" x="181.607355" y="27.648" style="fill: #f5deb3; stroke: #f5deb3; stroke-width: 1.5; stroke-linejoin: miter"/>
     <use xlink:href="#mbb48761a31" x="181.607355" y="27.648" style="fill: #f5deb3; stroke: #f5deb3; stroke-width: 1.5; stroke-linejoin: miter"/>
     <use xlink:href="#mbb48761a31" x="360.8064" y="27.648" style="fill: #f5deb3; stroke: #f5deb3; stroke-width: 1.5; stroke-linejoin: miter"/>
    </g>
   </g>
   <g id="line2d_3">
    <path style="fill: none; stroke: #f5deb3; stroke-width: 4; stroke-linecap: square"/>
    <g/>
   </g>
   <g id="line2d_4">
    <path d="M 360.8064 27.648 
L 380.514816 33.07392 
" style="fill: none; stroke: #f5deb3; stroke-width: 4; stroke-linecap: square"/>
    <g>
     <use xlink:href="#mbb48761a31" x="360.8064" y="27.648" style="fill: #f5deb3; stroke: #f5deb3; stroke-width: 1.5; stroke-linejoin: miter"/>
     <use xlink:href="#mbb48761a31" x="380.514816" y="33.07392" style="fill: #f5deb3; stroke: #f5deb3; stroke-width: 1.5; stroke-linejoin: miter"/>
    </g>
   </g>
   <g id="matplotlib.axis_1">
    <g id="xtick_1">
     <g id="line2d_5">
      <path d="M 57.6 298.944 
L 57.6 27.648 
" clip-path="url(#p233119cc8f)" style="fill: none; stroke: #b0b0b0; stroke-width: 0.8; stroke-linecap: square"/>
     </g>
     <g id="line2d_6">
      <defs>
       <path id="m67fa8e8f92" d="M 0 0 
L 0 3.5 
" style="stroke: #000000; stroke-width: 0.8"/>
      </defs>
      <g>
       <use xlink:href="#m67fa8e8f92" x="57.6" y="298.944" style="stroke: #000000; stroke-width: 0.8"/>
      </g>
     </g>
     <g id="text_1">
      <!-- 0 -->
      <g transform="translate(52.191875 318.861344)scale(0.17 -0.17)">
       <defs>
        <path id="DejaVuSans-30" d="M 2034 4250 
Q 1547 4250 1301 3770 
Q 1056 3291 1056 2328 
Q 1056 1369 1301 889 
Q 1547 409 2034 409 
Q 2525 409 2770 889 
Q 3016 1369 3016 2328 
Q 3016 3291 2770 3770 
Q 2525 4250 2034 4250 
z
M 2034 4750 
Q 2819 4750 3233 4129 
Q 3647 3509 3647 2328 
Q 3647 1150 3233 529 
Q 2819 -91 2034 -91 
Q 1250 -91 836 529 
Q 422 1150 422 2328 
Q 422 3509 836 4129 
Q 1250 4750 2034 4750 
z
" transform="scale(0.015625)"/>
       </defs>
       <use xlink:href="#DejaVuSans-30"/>
      </g>
     </g>
    </g>
    <g id="xtick_2">
     <g id="line2d_7">
      <path d="M 144.2304 298.944 
L 144.2304 27.648 
" clip-path="url(#p233119cc8f)" style="fill: none; stroke: #b0b0b0; stroke-width: 0.8; stroke-linecap: square"/>
     </g>
     <g id="line2d_8">
      <g>
       <use xlink:href="#m67fa8e8f92" x="144.2304" y="298.944" style="stroke: #000000; stroke-width: 0.8"/>
      </g>
     </g>
     <g id="text_2">
      <!-- 2 -->
      <g transform="translate(138.822275 318.861344)scale(0.17 -0.17)">
       <defs>
        <path id="DejaVuSans-32" d="M 1228 531 
L 3431 531 
L 3431 0 
L 469 0 
L 469 531 
Q 828 903 1448 1529 
Q 2069 2156 2228 2338 
Q 2531 2678 2651 2914 
Q 2772 3150 2772 3378 
Q 2772 3750 2511 3984 
Q 2250 4219 1831 4219 
Q 1534 4219 1204 4116 
Q 875 4013 500 3803 
L 500 4441 
Q 881 4594 1212 4672 
Q 1544 4750 1819 4750 
Q 2544 4750 2975 4387 
Q 3406 4025 3406 3419 
Q 3406 3131 3298 2873 
Q 3191 2616 2906 2266 
Q 2828 2175 2409 1742 
Q 1991 1309 1228 531 
z
" transform="scale(0.015625)"/>
       </defs>
       <use xlink:href="#DejaVuSans-32"/>
      </g>
     </g>
    </g>
    <g id="xtick_3">
     <g id="line2d_9">
      <path d="M 230.8608 298.944 
L 230.8608 27.648 
" clip-path="url(#p233119cc8f)" style="fill: none; stroke: #b0b0b0; stroke-width: 0.8; stroke-linecap: square"/>
     </g>
     <g id="line2d_10">
      <g>
       <use xlink:href="#m67fa8e8f92" x="230.8608" y="298.944" style="stroke: #000000; stroke-width: 0.8"/>
      </g>
     </g>
     <g id="text_3">
      <!-- 4 -->
      <g transform="translate(225.452675 318.861344)scale(0.17 -0.17)">
       <defs>
        <path id="DejaVuSans-34" d="M 2419 4116 
L 825 1625 
L 2419 1625 
L 2419 4116 
z
M 2253 4666 
L 3047 4666 
L 3047 1625 
L 3713 1625 
L 3713 1100 
L 3047 1100 
L 3047 0 
L 2419 0 
L 2419 1100 
L 313 1100 
L 313 1709 
L 2253 4666 
z
" transform="scale(0.015625)"/>
       </defs>
       <use xlink:href="#DejaVuSans-34"/>
      </g>
     </g>
    </g>
    <g id="xtick_4">
     <g id="line2d_11">
      <path d="M 317.4912 298.944 
L 317.4912 27.648 
" clip-path="url(#p233119cc8f)" style="fill: none; stroke: #b0b0b0; stroke-width: 0.8; stroke-linecap: square"/>
     </g>
     <g id="line2d_12">
      <g>
       <use xlink:href="#m67fa8e8f92" x="317.4912" y="298.944" style="stroke: #000000; stroke-width: 0.8"/>
      </g>
     </g>
     <g id="text_4">
      <!-- 6 -->
      <g transform="translate(312.083075 318.861344)scale(0.17 -0.17)">
       <defs>
        <path id="DejaVuSans-36" d="M 2113 2584 
Q 1688 2584 1439 2293 
Q 1191 2003 1191 1497 
Q 1191 994 1439 701 
Q 1688 409 2113 409 
Q 2538 409 2786 701 
Q 3034 994 3034 1497 
Q 3034 2003 2786 2293 
Q 2538 2584 2113 2584 
z
M 3366 4563 
L 3366 3988 
Q 3128 4100 2886 4159 
Q 2644 4219 2406 4219 
Q 1781 4219 1451 3797 
Q 1122 3375 1075 2522 
Q 1259 2794 1537 2939 
Q 1816 3084 2150 3084 
Q 2853 3084 3261 2657 
Q 3669 2231 3669 1497 
Q 3669 778 3244 343 
Q 2819 -91 2113 -91 
Q 1303 -91 875 529 
Q 447 1150 447 2328 
Q 447 3434 972 4092 
Q 1497 4750 2381 4750 
Q 2619 4750 2861 4703 
Q 3103 4656 3366 4563 
z
" transform="scale(0.015625)"/>
       </defs>
       <use xlink:href="#DejaVuSans-36"/>
      </g>
     </g>
    </g>
    <g id="xtick_5">
     <g id="line2d_13">
      <path d="M 100.9152 298.944 
L 100.9152 27.648 
" clip-path="url(#p233119cc8f)" style="fill: none; stroke: #b0b0b0; stroke-width: 0.8; stroke-linecap: square"/>
     </g>
     <g id="line2d_14">
      <defs>
       <path id="mefbf4470e6" d="M 0 0 
L 0 2 
" style="stroke: #000000; stroke-width: 0.6"/>
      </defs>
      <g>
       <use xlink:href="#mefbf4470e6" x="100.9152" y="298.944" style="stroke: #000000; stroke-width: 0.6"/>
      </g>
     </g>
    </g>
    <g id="xtick_6">
     <g id="line2d_15">
      <path d="M 187.5456 298.944 
L 187.5456 27.648 
" clip-path="url(#p233119cc8f)" style="fill: none; stroke: #b0b0b0; stroke-width: 0.8; stroke-linecap: square"/>
     </g>
     <g id="line2d_16">
      <g>
       <use xlink:href="#mefbf4470e6" x="187.5456" y="298.944" style="stroke: #000000; stroke-width: 0.6"/>
      </g>
     </g>
    </g>
    <g id="xtick_7">
     <g id="line2d_17">
      <path d="M 274.176 298.944 
L 274.176 27.648 
" clip-path="url(#p233119cc8f)" style="fill: none; stroke: #b0b0b0; stroke-width: 0.8; stroke-linecap: square"/>
     </g>
     <g id="line2d_18">
      <g>
       <use xlink:href="#mefbf4470e6" x="274.176" y="298.944" style="stroke: #000000; stroke-width: 0.6"/>
      </g>
     </g>
    </g>
    <g id="xtick_8">
     <g id="line2d_19">
      <path d="M 360.8064 298.944 
L 360.8064 27.648 
" clip-path="url(#p233119cc8f)" style="fill: none; stroke: #b0b0b0; stroke-width: 0.8; stroke-linecap: square"/>
     </g>
     <g id="line2d_20">
      <g>
       <use xlink:href="#mefbf4470e6" x="360.8064" y="298.944" style="stroke: #000000; stroke-width: 0.6"/>
      </g>
     </g>
    </g>
    <g id="text_5">
     <!-- log10(# f-evals / dimension) -->
     <g transform="translate(88.823278 339.314156)scale(0.17 -0.17)">
      <defs>
       <path id="DejaVuSans-6c" d="M 603 4863 
L 1178 4863 
L 1178 0 
L 603 0 
L 603 4863 
z
" transform="scale(0.015625)"/>
       <path id="DejaVuSans-6f" d="M 1959 3097 
Q 1497 3097 1228 2736 
Q 959 2375 959 1747 
Q 959 1119 1226 758 
Q 1494 397 1959 397 
Q 2419 397 2687 759 
Q 2956 1122 2956 1747 
Q 2956 2369 2687 2733 
Q 2419 3097 1959 3097 
z
M 1959 3584 
Q 2709 3584 3137 3096 
Q 3566 2609 3566 1747 
Q 3566 888 3137 398 
Q 2709 -91 1959 -91 
Q 1206 -91 779 398 
Q 353 888 353 1747 
Q 353 2609 779 3096 
Q 1206 3584 1959 3584 
z
" transform="scale(0.015625)"/>
       <path id="DejaVuSans-67" d="M 2906 1791 
Q 2906 2416 2648 2759 
Q 2391 3103 1925 3103 
Q 1463 3103 1205 2759 
Q 947 2416 947 1791 
Q 947 1169 1205 825 
Q 1463 481 1925 481 
Q 2391 481 2648 825 
Q 2906 1169 2906 1791 
z
M 3481 434 
Q 3481 -459 3084 -895 
Q 2688 -1331 1869 -1331 
Q 1566 -1331 1297 -1286 
Q 1028 -1241 775 -1147 
L 775 -588 
Q 1028 -725 1275 -790 
Q 1522 -856 1778 -856 
Q 2344 -856 2625 -561 
Q 2906 -266 2906 331 
L 2906 616 
Q 2728 306 2450 153 
Q 2172 0 1784 0 
Q 1141 0 747 490 
Q 353 981 353 1791 
Q 353 2603 747 3093 
Q 1141 3584 1784 3584 
Q 2172 3584 2450 3431 
Q 2728 3278 2906 2969 
L 2906 3500 
L 3481 3500 
L 3481 434 
z
" transform="scale(0.015625)"/>
       <path id="DejaVuSans-31" d="M 794 531 
L 1825 531 
L 1825 4091 
L 703 3866 
L 703 4441 
L 1819 4666 
L 2450 4666 
L 2450 531 
L 3481 531 
L 3481 0 
L 794 0 
L 794 531 
z
" transform="scale(0.015625)"/>
       <path id="DejaVuSans-28" d="M 1984 4856 
Q 1566 4138 1362 3434 
Q 1159 2731 1159 2009 
Q 1159 1288 1364 580 
Q 1569 -128 1984 -844 
L 1484 -844 
Q 1016 -109 783 600 
Q 550 1309 550 2009 
Q 550 2706 781 3412 
Q 1013 4119 1484 4856 
L 1984 4856 
z
" transform="scale(0.015625)"/>
       <path id="DejaVuSans-23" d="M 3272 2816 
L 2363 2816 
L 2100 1772 
L 3016 1772 
L 3272 2816 
z
M 2803 4594 
L 2478 3297 
L 3391 3297 
L 3719 4594 
L 4219 4594 
L 3897 3297 
L 4872 3297 
L 4872 2816 
L 3775 2816 
L 3519 1772 
L 4513 1772 
L 4513 1294 
L 3397 1294 
L 3072 0 
L 2572 0 
L 2894 1294 
L 1978 1294 
L 1656 0 
L 1153 0 
L 1478 1294 
L 494 1294 
L 494 1772 
L 1594 1772 
L 1856 2816 
L 850 2816 
L 850 3297 
L 1978 3297 
L 2297 4594 
L 2803 4594 
z
" transform="scale(0.015625)"/>
       <path id="DejaVuSans-20" transform="scale(0.015625)"/>
       <path id="DejaVuSans-66" d="M 2375 4863 
L 2375 4384 
L 1825 4384 
Q 1516 4384 1395 4259 
Q 1275 4134 1275 3809 
L 1275 3500 
L 2222 3500 
L 2222 3053 
L 1275 3053 
L 1275 0 
L 697 0 
L 697 3053 
L 147 3053 
L 147 3500 
L 697 3500 
L 697 3744 
Q 697 4328 969 4595 
Q 1241 4863 1831 4863 
L 2375 4863 
z
" transform="scale(0.015625)"/>
       <path id="DejaVuSans-2d" d="M 313 2009 
L 1997 2009 
L 1997 1497 
L 313 1497 
L 313 2009 
z
" transform="scale(0.015625)"/>
       <path id="DejaVuSans-65" d="M 3597 1894 
L 3597 1613 
L 953 1613 
Q 991 1019 1311 708 
Q 1631 397 2203 397 
Q 2534 397 2845 478 
Q 3156 559 3463 722 
L 3463 178 
Q 3153 47 2828 -22 
Q 2503 -91 2169 -91 
Q 1331 -91 842 396 
Q 353 884 353 1716 
Q 353 2575 817 3079 
Q 1281 3584 2069 3584 
Q 2775 3584 3186 3129 
Q 3597 2675 3597 1894 
z
M 3022 2063 
Q 3016 2534 2758 2815 
Q 2500 3097 2075 3097 
Q 1594 3097 1305 2825 
Q 1016 2553 972 2059 
L 3022 2063 
z
" transform="scale(0.015625)"/>
       <path id="DejaVuSans-76" d="M 191 3500 
L 800 3500 
L 1894 563 
L 2988 3500 
L 3597 3500 
L 2284 0 
L 1503 0 
L 191 3500 
z
" transform="scale(0.015625)"/>
       <path id="DejaVuSans-61" d="M 2194 1759 
Q 1497 1759 1228 1600 
Q 959 1441 959 1056 
Q 959 750 1161 570 
Q 1363 391 1709 391 
Q 2188 391 2477 730 
Q 2766 1069 2766 1631 
L 2766 1759 
L 2194 1759 
z
M 3341 1997 
L 3341 0 
L 2766 0 
L 2766 531 
Q 2569 213 2275 61 
Q 1981 -91 1556 -91 
Q 1019 -91 701 211 
Q 384 513 384 1019 
Q 384 1609 779 1909 
Q 1175 2209 1959 2209 
L 2766 2209 
L 2766 2266 
Q 2766 2663 2505 2880 
Q 2244 3097 1772 3097 
Q 1472 3097 1187 3025 
Q 903 2953 641 2809 
L 641 3341 
Q 956 3463 1253 3523 
Q 1550 3584 1831 3584 
Q 2591 3584 2966 3190 
Q 3341 2797 3341 1997 
z
" transform="scale(0.015625)"/>
       <path id="DejaVuSans-73" d="M 2834 3397 
L 2834 2853 
Q 2591 2978 2328 3040 
Q 2066 3103 1784 3103 
Q 1356 3103 1142 2972 
Q 928 2841 928 2578 
Q 928 2378 1081 2264 
Q 1234 2150 1697 2047 
L 1894 2003 
Q 2506 1872 2764 1633 
Q 3022 1394 3022 966 
Q 3022 478 2636 193 
Q 2250 -91 1575 -91 
Q 1294 -91 989 -36 
Q 684 19 347 128 
L 347 722 
Q 666 556 975 473 
Q 1284 391 1588 391 
Q 1994 391 2212 530 
Q 2431 669 2431 922 
Q 2431 1156 2273 1281 
Q 2116 1406 1581 1522 
L 1381 1569 
Q 847 1681 609 1914 
Q 372 2147 372 2553 
Q 372 3047 722 3315 
Q 1072 3584 1716 3584 
Q 2034 3584 2315 3537 
Q 2597 3491 2834 3397 
z
" transform="scale(0.015625)"/>
       <path id="DejaVuSans-2f" d="M 1625 4666 
L 2156 4666 
L 531 -594 
L 0 -594 
L 1625 4666 
z
" transform="scale(0.015625)"/>
       <path id="DejaVuSans-64" d="M 2906 2969 
L 2906 4863 
L 3481 4863 
L 3481 0 
L 2906 0 
L 2906 525 
Q 2725 213 2448 61 
Q 2172 -91 1784 -91 
Q 1150 -91 751 415 
Q 353 922 353 1747 
Q 353 2572 751 3078 
Q 1150 3584 1784 3584 
Q 2172 3584 2448 3432 
Q 2725 3281 2906 2969 
z
M 947 1747 
Q 947 1113 1208 752 
Q 1469 391 1925 391 
Q 2381 391 2643 752 
Q 2906 1113 2906 1747 
Q 2906 2381 2643 2742 
Q 2381 3103 1925 3103 
Q 1469 3103 1208 2742 
Q 947 2381 947 1747 
z
" transform="scale(0.015625)"/>
       <path id="DejaVuSans-69" d="M 603 3500 
L 1178 3500 
L 1178 0 
L 603 0 
L 603 3500 
z
M 603 4863 
L 1178 4863 
L 1178 4134 
L 603 4134 
L 603 4863 
z
" transform="scale(0.015625)"/>
       <path id="DejaVuSans-6d" d="M 3328 2828 
Q 3544 3216 3844 3400 
Q 4144 3584 4550 3584 
Q 5097 3584 5394 3201 
Q 5691 2819 5691 2113 
L 5691 0 
L 5113 0 
L 5113 2094 
Q 5113 2597 4934 2840 
Q 4756 3084 4391 3084 
Q 3944 3084 3684 2787 
Q 3425 2491 3425 1978 
L 3425 0 
L 2847 0 
L 2847 2094 
Q 2847 2600 2669 2842 
Q 2491 3084 2119 3084 
Q 1678 3084 1418 2786 
Q 1159 2488 1159 1978 
L 1159 0 
L 581 0 
L 581 3500 
L 1159 3500 
L 1159 2956 
Q 1356 3278 1631 3431 
Q 1906 3584 2284 3584 
Q 2666 3584 2933 3390 
Q 3200 3197 3328 2828 
z
" transform="scale(0.015625)"/>
       <path id="DejaVuSans-6e" d="M 3513 2113 
L 3513 0 
L 2938 0 
L 2938 2094 
Q 2938 2591 2744 2837 
Q 2550 3084 2163 3084 
Q 1697 3084 1428 2787 
Q 1159 2491 1159 1978 
L 1159 0 
L 581 0 
L 581 3500 
L 1159 3500 
L 1159 2956 
Q 1366 3272 1645 3428 
Q 1925 3584 2291 3584 
Q 2894 3584 3203 3211 
Q 3513 2838 3513 2113 
z
" transform="scale(0.015625)"/>
       <path id="DejaVuSans-29" d="M 513 4856 
L 1013 4856 
Q 1481 4119 1714 3412 
Q 1947 2706 1947 2009 
Q 1947 1309 1714 600 
Q 1481 -109 1013 -844 
L 513 -844 
Q 928 -128 1133 580 
Q 1338 1288 1338 2009 
Q 1338 2731 1133 3434 
Q 928 4138 513 4856 
z
" transform="scale(0.015625)"/>
      </defs>
      <use xlink:href="#DejaVuSans-6c"/>
      <use xlink:href="#DejaVuSans-6f" x="27.783203"/>
      <use xlink:href="#DejaVuSans-67" x="88.964844"/>
      <use xlink:href="#DejaVuSans-31" x="152.441406"/>
      <use xlink:href="#DejaVuSans-30" x="216.064453"/>
      <use xlink:href="#DejaVuSans-28" x="279.6875"/>
      <use xlink:href="#DejaVuSans-23" x="318.701172"/>
      <use xlink:href="#DejaVuSans-20" x="402.490234"/>
      <use xlink:href="#DejaVuSans-66" x="434.277344"/>
      <use xlink:href="#DejaVuSans-2d" x="463.982422"/>
      <use xlink:href="#DejaVuSans-65" x="500.066406"/>
      <use xlink:href="#DejaVuSans-76" x="561.589844"/>
      <use xlink:href="#DejaVuSans-61" x="620.769531"/>
      <use xlink:href="#DejaVuSans-6c" x="682.048828"/>
      <use xlink:href="#DejaVuSans-73" x="709.832031"/>
      <use xlink:href="#DejaVuSans-20" x="761.931641"/>
      <use xlink:href="#DejaVuSans-2f" x="793.71875"/>
      <use xlink:href="#DejaVuSans-20" x="827.410156"/>
      <use xlink:href="#DejaVuSans-64" x="859.197266"/>
      <use xlink:href="#DejaVuSans-69" x="922.673828"/>
      <use xlink:href="#DejaVuSans-6d" x="950.457031"/>
      <use xlink:href="#DejaVuSans-65" x="1047.869141"/>
      <use xlink:href="#DejaVuSans-6e" x="1109.392578"/>
      <use xlink:href="#DejaVuSans-73" x="1172.771484"/>
      <use xlink:href="#DejaVuSans-69" x="1224.871094"/>
      <use xlink:href="#DejaVuSans-6f" x="1252.654297"/>
      <use xlink:href="#DejaVuSans-6e" x="1313.835938"/>
      <use xlink:href="#DejaVuSans-29" x="1377.214844"/>
     </g>
    </g>
   </g>
   <g id="matplotlib.axis_2">
    <g id="ytick_1">
     <g id="line2d_21">
      <path d="M 57.6 298.944 
L 360.8064 298.944 
" clip-path="url(#p233119cc8f)" style="fill: none; stroke: #b0b0b0; stroke-width: 0.8; stroke-linecap: square"/>
     </g>
     <g id="line2d_22">
      <defs>
       <path id="md1fad8f169" d="M 0 0 
L -3.5 0 
" style="stroke: #000000; stroke-width: 0.8"/>
      </defs>
      <g>
       <use xlink:href="#md1fad8f169" x="57.6" y="298.944" style="stroke: #000000; stroke-width: 0.8"/>
      </g>
     </g>
     <g id="text_6">
      <!-- 0.0 -->
      <g transform="translate(25.155 305.02275)scale(0.16 -0.16)">
       <defs>
        <path id="DejaVuSans-2e" d="M 684 794 
L 1344 794 
L 1344 0 
L 684 0 
L 684 794 
z
" transform="scale(0.015625)"/>
       </defs>
       <use xlink:href="#DejaVuSans-30"/>
       <use xlink:href="#DejaVuSans-2e" x="63.623047"/>
       <use xlink:href="#DejaVuSans-30" x="95.410156"/>
      </g>
     </g>
    </g>
    <g id="ytick_2">
     <g id="line2d_23">
      <path d="M 57.6 244.6848 
L 360.8064 244.6848 
" clip-path="url(#p233119cc8f)" style="fill: none; stroke: #b0b0b0; stroke-width: 0.8; stroke-linecap: square"/>
     </g>
     <g id="line2d_24">
      <g>
       <use xlink:href="#md1fad8f169" x="57.6" y="244.6848" style="stroke: #000000; stroke-width: 0.8"/>
      </g>
     </g>
     <g id="text_7">
      <!-- 0.2 -->
      <g transform="translate(25.155 250.76355)scale(0.16 -0.16)">
       <use xlink:href="#DejaVuSans-30"/>
       <use xlink:href="#DejaVuSans-2e" x="63.623047"/>
       <use xlink:href="#DejaVuSans-32" x="95.410156"/>
      </g>
     </g>
    </g>
    <g id="ytick_3">
     <g id="line2d_25">
      <path d="M 57.6 190.4256 
L 360.8064 190.4256 
" clip-path="url(#p233119cc8f)" style="fill: none; stroke: #b0b0b0; stroke-width: 0.8; stroke-linecap: square"/>
     </g>
     <g id="line2d_26">
      <g>
       <use xlink:href="#md1fad8f169" x="57.6" y="190.4256" style="stroke: #000000; stroke-width: 0.8"/>
      </g>
     </g>
     <g id="text_8">
      <!-- 0.4 -->
      <g transform="translate(25.155 196.50435)scale(0.16 -0.16)">
       <use xlink:href="#DejaVuSans-30"/>
       <use xlink:href="#DejaVuSans-2e" x="63.623047"/>
       <use xlink:href="#DejaVuSans-34" x="95.410156"/>
      </g>
     </g>
    </g>
    <g id="ytick_4">
     <g id="line2d_27">
      <path d="M 57.6 136.1664 
L 360.8064 136.1664 
" clip-path="url(#p233119cc8f)" style="fill: none; stroke: #b0b0b0; stroke-width: 0.8; stroke-linecap: square"/>
     </g>
     <g id="line2d_28">
      <g>
       <use xlink:href="#md1fad8f169" x="57.6" y="136.1664" style="stroke: #000000; stroke-width: 0.8"/>
      </g>
     </g>
     <g id="text_9">
      <!-- 0.6 -->
      <g transform="translate(25.155 142.24515)scale(0.16 -0.16)">
       <use xlink:href="#DejaVuSans-30"/>
       <use xlink:href="#DejaVuSans-2e" x="63.623047"/>
       <use xlink:href="#DejaVuSans-36" x="95.410156"/>
      </g>
     </g>
    </g>
    <g id="ytick_5">
     <g id="line2d_29">
      <path d="M 57.6 81.9072 
L 360.8064 81.9072 
" clip-path="url(#p233119cc8f)" style="fill: none; stroke: #b0b0b0; stroke-width: 0.8; stroke-linecap: square"/>
     </g>
     <g id="line2d_30">
      <g>
       <use xlink:href="#md1fad8f169" x="57.6" y="81.9072" style="stroke: #000000; stroke-width: 0.8"/>
      </g>
     </g>
     <g id="text_10">
      <!-- 0.8 -->
      <g transform="translate(25.155 87.98595)scale(0.16 -0.16)">
       <defs>
        <path id="DejaVuSans-38" d="M 2034 2216 
Q 1584 2216 1326 1975 
Q 1069 1734 1069 1313 
Q 1069 891 1326 650 
Q 1584 409 2034 409 
Q 2484 409 2743 651 
Q 3003 894 3003 1313 
Q 3003 1734 2745 1975 
Q 2488 2216 2034 2216 
z
M 1403 2484 
Q 997 2584 770 2862 
Q 544 3141 544 3541 
Q 544 4100 942 4425 
Q 1341 4750 2034 4750 
Q 2731 4750 3128 4425 
Q 3525 4100 3525 3541 
Q 3525 3141 3298 2862 
Q 3072 2584 2669 2484 
Q 3125 2378 3379 2068 
Q 3634 1759 3634 1313 
Q 3634 634 3220 271 
Q 2806 -91 2034 -91 
Q 1263 -91 848 271 
Q 434 634 434 1313 
Q 434 1759 690 2068 
Q 947 2378 1403 2484 
z
M 1172 3481 
Q 1172 3119 1398 2916 
Q 1625 2713 2034 2713 
Q 2441 2713 2670 2916 
Q 2900 3119 2900 3481 
Q 2900 3844 2670 4047 
Q 2441 4250 2034 4250 
Q 1625 4250 1398 4047 
Q 1172 3844 1172 3481 
z
" transform="scale(0.015625)"/>
       </defs>
       <use xlink:href="#DejaVuSans-30"/>
       <use xlink:href="#DejaVuSans-2e" x="63.623047"/>
       <use xlink:href="#DejaVuSans-38" x="95.410156"/>
      </g>
     </g>
    </g>
    <g id="ytick_6">
     <g id="line2d_31">
      <path d="M 57.6 27.648 
L 360.8064 27.648 
" clip-path="url(#p233119cc8f)" style="fill: none; stroke: #b0b0b0; stroke-width: 0.8; stroke-linecap: square"/>
     </g>
     <g id="line2d_32">
      <g>
       <use xlink:href="#md1fad8f169" x="57.6" y="27.648" style="stroke: #000000; stroke-width: 0.8"/>
      </g>
     </g>
     <g id="text_11">
      <!-- 1.0 -->
      <g transform="translate(25.155 33.72675)scale(0.16 -0.16)">
       <use xlink:href="#DejaVuSans-31"/>
       <use xlink:href="#DejaVuSans-2e" x="63.623047"/>
       <use xlink:href="#DejaVuSans-30" x="95.410156"/>
      </g>
     </g>
    </g>
    <g id="text_12">
     <!-- Fraction of function,target pairs -->
     <g transform="translate(17.619531 297.681)rotate(-90)scale(0.17 -0.17)">
      <defs>
       <path id="DejaVuSans-46" d="M 628 4666 
L 3309 4666 
L 3309 4134 
L 1259 4134 
L 1259 2759 
L 3109 2759 
L 3109 2228 
L 1259 2228 
L 1259 0 
L 628 0 
L 628 4666 
z
" transform="scale(0.015625)"/>
       <path id="DejaVuSans-72" d="M 2631 2963 
Q 2534 3019 2420 3045 
Q 2306 3072 2169 3072 
Q 1681 3072 1420 2755 
Q 1159 2438 1159 1844 
L 1159 0 
L 581 0 
L 581 3500 
L 1159 3500 
L 1159 2956 
Q 1341 3275 1631 3429 
Q 1922 3584 2338 3584 
Q 2397 3584 2469 3576 
Q 2541 3569 2628 3553 
L 2631 2963 
z
" transform="scale(0.015625)"/>
       <path id="DejaVuSans-63" d="M 3122 3366 
L 3122 2828 
Q 2878 2963 2633 3030 
Q 2388 3097 2138 3097 
Q 1578 3097 1268 2742 
Q 959 2388 959 1747 
Q 959 1106 1268 751 
Q 1578 397 2138 397 
Q 2388 397 2633 464 
Q 2878 531 3122 666 
L 3122 134 
Q 2881 22 2623 -34 
Q 2366 -91 2075 -91 
Q 1284 -91 818 406 
Q 353 903 353 1747 
Q 353 2603 823 3093 
Q 1294 3584 2113 3584 
Q 2378 3584 2631 3529 
Q 2884 3475 3122 3366 
z
" transform="scale(0.015625)"/>
       <path id="DejaVuSans-74" d="M 1172 4494 
L 1172 3500 
L 2356 3500 
L 2356 3053 
L 1172 3053 
L 1172 1153 
Q 1172 725 1289 603 
Q 1406 481 1766 481 
L 2356 481 
L 2356 0 
L 1766 0 
Q 1100 0 847 248 
Q 594 497 594 1153 
L 594 3053 
L 172 3053 
L 172 3500 
L 594 3500 
L 594 4494 
L 1172 4494 
z
" transform="scale(0.015625)"/>
       <path id="DejaVuSans-75" d="M 544 1381 
L 544 3500 
L 1119 3500 
L 1119 1403 
Q 1119 906 1312 657 
Q 1506 409 1894 409 
Q 2359 409 2629 706 
Q 2900 1003 2900 1516 
L 2900 3500 
L 3475 3500 
L 3475 0 
L 2900 0 
L 2900 538 
Q 2691 219 2414 64 
Q 2138 -91 1772 -91 
Q 1169 -91 856 284 
Q 544 659 544 1381 
z
M 1991 3584 
L 1991 3584 
z
" transform="scale(0.015625)"/>
       <path id="DejaVuSans-2c" d="M 750 794 
L 1409 794 
L 1409 256 
L 897 -744 
L 494 -744 
L 750 256 
L 750 794 
z
" transform="scale(0.015625)"/>
       <path id="DejaVuSans-70" d="M 1159 525 
L 1159 -1331 
L 581 -1331 
L 581 3500 
L 1159 3500 
L 1159 2969 
Q 1341 3281 1617 3432 
Q 1894 3584 2278 3584 
Q 2916 3584 3314 3078 
Q 3713 2572 3713 1747 
Q 3713 922 3314 415 
Q 2916 -91 2278 -91 
Q 1894 -91 1617 61 
Q 1341 213 1159 525 
z
M 3116 1747 
Q 3116 2381 2855 2742 
Q 2594 3103 2138 3103 
Q 1681 3103 1420 2742 
Q 1159 2381 1159 1747 
Q 1159 1113 1420 752 
Q 1681 391 2138 391 
Q 2594 391 2855 752 
Q 3116 1113 3116 1747 
z
" transform="scale(0.015625)"/>
      </defs>
      <use xlink:href="#DejaVuSans-46"/>
      <use xlink:href="#DejaVuSans-72" x="50.269531"/>
      <use xlink:href="#DejaVuSans-61" x="91.382812"/>
      <use xlink:href="#DejaVuSans-63" x="152.662109"/>
      <use xlink:href="#DejaVuSans-74" x="207.642578"/>
      <use xlink:href="#DejaVuSans-69" x="246.851562"/>
      <use xlink:href="#DejaVuSans-6f" x="274.634766"/>
      <use xlink:href="#DejaVuSans-6e" x="335.816406"/>
      <use xlink:href="#DejaVuSans-20" x="399.195312"/>
      <use xlink:href="#DejaVuSans-6f" x="430.982422"/>
      <use xlink:href="#DejaVuSans-66" x="492.164062"/>
      <use xlink:href="#DejaVuSans-20" x="527.369141"/>
      <use xlink:href="#DejaVuSans-66" x="559.15625"/>
      <use xlink:href="#DejaVuSans-75" x="594.361328"/>
      <use xlink:href="#DejaVuSans-6e" x="657.740234"/>
      <use xlink:href="#DejaVuSans-63" x="721.119141"/>
      <use xlink:href="#DejaVuSans-74" x="776.099609"/>
      <use xlink:href="#DejaVuSans-69" x="815.308594"/>
      <use xlink:href="#DejaVuSans-6f" x="843.091797"/>
      <use xlink:href="#DejaVuSans-6e" x="904.273438"/>
      <use xlink:href="#DejaVuSans-2c" x="967.652344"/>
      <use xlink:href="#DejaVuSans-74" x="999.439453"/>
      <use xlink:href="#DejaVuSans-61" x="1038.648438"/>
      <use xlink:href="#DejaVuSans-72" x="1099.927734"/>
      <use xlink:href="#DejaVuSans-67" x="1139.291016"/>
      <use xlink:href="#DejaVuSans-65" x="1202.767578"/>
      <use xlink:href="#DejaVuSans-74" x="1264.291016"/>
      <use xlink:href="#DejaVuSans-20" x="1303.5"/>
      <use xlink:href="#DejaVuSans-70" x="1335.287109"/>
      <use xlink:href="#DejaVuSans-61" x="1398.763672"/>
      <use xlink:href="#DejaVuSans-69" x="1460.042969"/>
      <use xlink:href="#DejaVuSans-72" x="1487.826172"/>
      <use xlink:href="#DejaVuSans-73" x="1528.939453"/>
     </g>
    </g>
   </g>
   <g id="line2d_33">
    <defs>
     <path id="m08639f726f" d="M 0 1.5 
C 0.397805 1.5 0.77937 1.341951 1.06066 1.06066 
C 1.341951 0.77937 1.5 0.397805 1.5 0 
C 1.5 -0.397805 1.341951 -0.77937 1.06066 -1.06066 
C 0.77937 -1.341951 0.397805 -1.5 0 -1.5 
C -0.397805 -1.5 -0.77937 -1.341951 -1.06066 -1.06066 
C -1.341951 -0.77937 -1.5 -0.397805 -1.5 0 
C -1.5 0.397805 -1.341951 0.77937 -1.06066 1.06066 
C -0.77937 1.341951 -0.397805 1.5 0 1.5 
z
" style="stroke: #f5deb3"/>
    </defs>
    <g>
     <use xlink:href="#m08639f726f" x="181.607355" y="27.648" style="fill: #f5deb3; stroke: #f5deb3"/>
     <use xlink:href="#m08639f726f" x="181.607355" y="27.648" style="fill: #f5deb3; stroke: #f5deb3"/>
    </g>
   </g>
   <g id="line2d_34">
    <defs>
     <path id="mace2d4cabb" d="M 0 1.5 
C 0.397805 1.5 0.77937 1.341951 1.06066 1.06066 
C 1.341951 0.77937 1.5 0.397805 1.5 0 
C 1.5 -0.397805 1.341951 -0.77937 1.06066 -1.06066 
C 0.77937 -1.341951 0.397805 -1.5 0 -1.5 
C -0.397805 -1.5 -0.77937 -1.341951 -1.06066 -1.06066 
C -1.341951 -0.77937 -1.5 -0.397805 -1.5 0 
C -1.5 0.397805 -1.341951 0.77937 -1.06066 1.06066 
C -0.77937 1.341951 -0.397805 1.5 0 1.5 
z
" style="stroke: #000080"/>
    </defs>
    <g>
     <use xlink:href="#mace2d4cabb" x="220.561345" y="27.648" style="fill: #000080; stroke: #000080"/>
     <use xlink:href="#mace2d4cabb" x="220.561345" y="27.648" style="fill: #000080; stroke: #000080"/>
    </g>
   </g>
   <g id="line2d_35">
    <path d="M 136.039681 298.944 
L 136.039681 298.731219 
L 136.385386 298.731219 
L 136.385386 298.518438 
L 136.752866 298.518438 
L 136.850588 298.163802 
L 136.97549 298.163802 
L 136.97549 297.951021 
L 137.222833 297.951021 
L 137.222833 297.73824 
L 137.614614 297.667313 
L 137.668018 297.241751 
L 137.800869 297.241751 
L 137.893309 296.958042 
L 137.945929 296.958042 
L 138.050729 296.319699 
L 138.063788 296.319699 
L 138.167935 295.468574 
L 138.245669 295.468574 
L 138.323083 294.546522 
L 138.387352 294.546522 
L 138.451402 293.979106 
L 138.502486 293.979106 
L 138.59155 293.695398 
L 138.65491 293.695398 
L 138.743257 292.418711 
L 138.768422 292.418711 
L 138.868751 291.780367 
L 138.881255 291.780367 
L 138.931186 290.929242 
L 138.993414 290.929242 
L 139.067817 290.219972 
L 139.117256 290.219972 
L 139.166565 289.581628 
L 139.313723 289.510701 
L 139.423341 288.375868 
L 139.435481 288.375868 
L 139.544394 287.311962 
L 139.556456 287.311962 
L 139.652679 286.248056 
L 139.760345 286.248056 
L 139.867398 284.900442 
L 140.044477 284.829515 
L 140.14993 283.694682 
L 140.16161 283.694682 
L 140.243172 282.417995 
L 140.278019 282.417995 
L 140.359078 281.779652 
L 140.428281 281.779652 
L 140.49723 280.999454 
L 140.577352 280.928527 
L 140.668505 280.573892 
L 140.702573 280.573892 
L 140.793122 279.65184 
L 140.815692 279.65184 
L 140.905699 278.304226 
L 140.984104 278.233299 
L 140.995278 277.949591 
L 141.095547 277.949591 
L 141.195285 276.601976 
L 141.283499 276.531049 
L 141.382247 274.8288 
L 141.415049 274.757873 
L 141.523975 274.190456 
L 141.545685 274.190456 
L 141.65386 273.055624 
L 141.696956 273.055624 
L 141.804267 272.062645 
L 141.836341 271.991718 
L 141.942862 270.218541 
L 141.974701 270.218541 
L 142.069896 269.580198 
L 142.112051 269.580198 
L 142.164612 268.587219 
L 142.248405 268.587219 
L 142.352625 268.019802 
L 142.383778 267.948875 
L 142.45627 266.955896 
L 142.497568 266.955896 
L 142.60042 266.317553 
L 142.651636 266.317553 
L 142.682299 265.395501 
L 142.794303 265.395501 
L 142.885449 264.544376 
L 142.915733 264.544376 
L 143.01633 263.835106 
L 143.036385 263.835106 
L 143.126369 262.487492 
L 143.156268 262.487492 
L 143.265494 261.636367 
L 143.324805 261.56544 
L 143.433059 260.998024 
L 143.462475 260.998024 
L 143.530934 259.792264 
L 143.589416 259.792264 
L 143.696162 259.012066 
L 143.715505 259.012066 
L 143.802306 258.160941 
L 143.859951 258.090014 
L 143.955636 257.167962 
L 143.984246 257.097035 
L 144.079302 255.53664 
L 144.117191 255.53664 
L 144.220992 254.543661 
L 144.28675 254.543661 
L 144.389622 253.621609 
L 144.408266 253.550682 
L 144.510478 252.983266 
L 144.547509 252.912339 
L 144.658165 252.132141 
L 144.676545 252.132141 
L 144.676545 252.061214 
L 144.786447 251.210089 
L 144.850261 251.139162 
L 144.895711 250.7136 
L 145.004344 250.642673 
L 145.085409 250.358965 
L 145.148219 250.288038 
L 145.21082 249.933402 
L 145.282109 249.933402 
L 145.379694 248.940424 
L 145.40622 248.869496 
L 145.40622 248.869496 
L 145.494372 248.443934 
L 145.547065 248.373007 
L 145.608355 248.160226 
L 145.686864 248.160226 
L 145.695567 247.876518 
L 145.825631 247.805591 
L 145.90324 247.238174 
L 145.989098 247.167247 
L 146.066037 246.741685 
L 146.125662 246.670758 
L 146.218978 246.103341 
L 146.252796 246.103341 
L 146.27812 245.677779 
L 146.395851 245.606852 
L 146.471147 245.181289 
L 146.562769 245.110362 
L 146.562769 244.897581 
L 146.686993 244.897581 
L 146.769355 244.330165 
L 146.826795 244.330165 
L 146.908549 243.762748 
L 146.941151 243.762748 
L 147.030517 243.337186 
L 147.167799 243.266259 
L 147.272107 242.982551 
L 147.343984 242.911624 
L 147.447322 242.486061 
L 147.510634 242.415134 
L 147.62092 241.705864 
L 147.769567 241.634936 
L 147.839571 241.280301 
L 148.07872 241.209374 
L 148.178111 241.06752 
L 148.254209 240.996593 
L 148.314867 240.358249 
L 148.533127 240.287322 
L 148.630152 240.145468 
L 148.659905 240.145468 
L 148.659905 239.932687 
L 149.027905 239.86176 
L 149.027905 239.790833 
L 149.20202 239.790833 
L 149.302848 239.507125 
L 149.345895 239.436198 
L 149.345895 239.365271 
L 149.637443 239.294344 
L 149.637443 239.223416 
L 149.813023 239.152489 
L 149.813023 239.010635 
L 150.083698 238.939708 
L 150.131871 238.585073 
L 150.370903 238.514146 
L 150.370903 238.443219 
L 150.673833 238.443219 
L 150.673833 238.230438 
L 151.063758 238.159511 
L 151.063758 238.088584 
L 151.769835 238.017656 
L 151.769835 237.946729 
L 152.0015 237.946729 
L 152.0015 237.804875 
L 152.727811 237.733948 
L 152.727811 237.663021 
L 155.685695 237.592094 
L 155.685695 237.521167 
L 155.924624 237.45024 
L 155.924624 237.308386 
L 156.526128 237.237459 
L 156.623723 237.095605 
L 156.720816 237.024678 
L 156.817409 236.599115 
L 157.018655 236.528188 
L 157.018655 236.457261 
L 157.222487 236.457261 
L 157.293074 236.031699 
L 157.475372 235.960772 
L 157.475372 235.889845 
L 157.757008 235.818918 
L 157.757008 235.747991 
L 158.061563 235.677064 
L 158.164985 235.464282 
L 158.285673 235.393355 
L 158.285673 235.322428 
L 158.449812 235.251501 
L 158.449812 235.180574 
L 158.66937 235.109647 
L 158.717331 234.896866 
L 158.899338 234.825939 
L 158.97251 234.684085 
L 159.023989 234.613158 
L 159.023989 234.471304 
L 159.384659 234.400376 
L 159.430833 234.258522 
L 159.655874 234.258522 
L 159.655874 234.045741 
L 159.829064 233.974814 
L 159.886441 233.83296 
L 160.00474 233.762033 
L 160.016936 233.549252 
L 160.190875 233.478325 
L 160.206974 233.336471 
L 160.375185 233.336471 
L 160.446818 232.981835 
L 160.789249 232.910908 
L 160.789249 232.839981 
L 160.960088 232.839981 
L 161.017976 232.556273 
L 161.369176 232.485346 
L 161.410732 232.201638 
L 161.598473 232.130711 
L 161.624608 231.847002 
L 162.172467 231.847002 
L 162.270058 231.492367 
L 162.352794 231.492367 
L 162.352794 231.350513 
L 163.294355 231.279586 
L 163.294355 231.066805 
L 163.464289 231.066805 
L 163.481198 230.712169 
L 164.164968 230.641242 
L 164.194282 230.286607 
L 164.304614 230.286607 
L 164.304614 230.073826 
L 164.80901 230.002899 
L 164.80901 229.931972 
L 164.981465 229.931972 
L 165.031338 229.648264 
L 165.238758 229.577336 
L 165.27874 229.00992 
L 165.419536 228.938993 
L 165.519897 228.513431 
L 165.670946 228.442504 
L 165.743021 228.016941 
L 165.892297 227.946014 
L 165.901215 227.80416 
L 166.090486 227.733233 
L 166.090486 227.520452 
L 166.23704 227.449525 
L 166.338952 227.094889 
L 166.446091 227.023962 
L 166.526766 226.314692 
L 166.558365 226.314692 
L 166.667119 225.747275 
L 166.738327 225.676348 
L 166.846048 224.825224 
L 166.947535 224.754296 
L 167.03169 224.541515 
L 167.090376 224.470588 
L 167.140533 224.257807 
L 167.212746 224.257807 
L 167.306762 223.548536 
L 167.381089 223.477609 
L 167.47427 222.910193 
L 167.534319 222.839266 
L 167.605039 222.484631 
L 167.775305 222.413704 
L 167.866558 221.77536 
L 167.954706 221.704433 
L 168.047747 221.420725 
L 168.068949 221.420725 
L 168.17987 220.782381 
L 168.345034 220.711454 
L 168.378936 220.214965 
L 168.604258 220.144038 
L 168.676205 219.434767 
L 168.930935 219.36384 
L 169.034386 218.796424 
L 169.15978 218.725496 
L 169.234617 218.229007 
L 169.299236 218.15808 
L 169.400686 217.661591 
L 169.427812 217.661591 
L 169.52367 217.094174 
L 169.677494 217.023247 
L 169.77693 216.597685 
L 169.83007 216.597685 
L 169.902292 216.030268 
L 169.976632 216.030268 
L 170.064978 215.462852 
L 170.266375 215.391925 
L 170.369787 214.966362 
L 170.397892 214.895435 
L 170.463308 214.186165 
L 170.533144 214.115238 
L 170.609666 213.547821 
L 170.697398 213.476894 
L 170.715815 213.193186 
L 170.846523 213.122259 
L 170.951349 212.554842 
L 170.964979 212.554842 
L 171.037505 212.12928 
L 171.166005 212.058353 
L 171.275772 211.065374 
L 171.315934 210.994447 
L 171.413749 210.356104 
L 171.449192 210.356104 
L 171.559524 209.646833 
L 171.59689 209.646833 
L 171.706362 209.434052 
L 171.83906 209.363125 
L 171.940669 208.653854 
L 171.998792 208.582927 
L 172.103819 208.157365 
L 172.14012 208.086438 
L 172.212513 207.944584 
L 172.299442 207.873656 
L 172.404912 207.235313 
L 172.467911 207.235313 
L 172.555757 206.738824 
L 172.674324 206.667896 
L 172.783904 205.887699 
L 172.806568 205.816772 
L 172.911288 205.107501 
L 172.954239 205.036574 
L 173.011355 204.752866 
L 173.118995 204.681939 
L 173.230049 203.192471 
L 173.306396 203.121544 
L 173.380438 202.837835 
L 173.505842 202.837835 
L 173.614643 202.128565 
L 173.630416 202.128565 
L 173.7287 201.348367 
L 173.808912 201.27744 
L 173.910154 200.780951 
L 173.929561 200.780951 
L 174.032088 200.142607 
L 174.128301 200.07168 
L 174.23357 199.575191 
L 174.281225 199.504264 
L 174.376176 198.724066 
L 174.417803 198.653139 
L 174.519589 198.014795 
L 174.559024 198.014795 
L 174.645118 197.234598 
L 174.671243 197.234598 
L 174.762394 196.950889 
L 174.817984 196.950889 
L 174.921314 196.241619 
L 174.947058 196.170692 
L 175.051511 195.745129 
L 175.131747 195.674202 
L 175.233372 195.035859 
L 175.247845 195.035859 
L 175.345249 193.830099 
L 175.422453 193.759172 
L 175.422453 193.546391 
L 175.602554 193.546391 
L 175.70697 192.127849 
L 175.726373 192.127849 
L 175.826598 191.205798 
L 175.847631 191.134871 
L 175.948956 190.4256 
L 175.992463 190.354673 
L 176.080907 190.212819 
L 176.141363 190.141892 
L 176.229111 188.581496 
L 176.302778 188.510569 
L 176.388076 188.085007 
L 176.493311 188.085007 
L 176.587858 187.162955 
L 176.698683 187.092028 
L 176.773872 186.453685 
L 176.840456 186.453685 
L 176.949807 185.176998 
L 176.958065 185.106071 
L 177.051954 184.325873 
L 177.133929 184.254946 
L 177.244844 183.616602 
L 177.26435 183.616602 
L 177.35511 182.694551 
L 177.400326 182.623624 
L 177.467947 181.914353 
L 177.551333 181.914353 
L 177.623197 181.063228 
L 177.696375 180.992301 
L 177.794559 179.928395 
L 177.87494 179.857468 
L 177.983147 178.368 
L 178.00034 178.297073 
L 178.096954 177.445948 
L 178.174508 177.375021 
L 178.262532 176.382042 
L 178.287166 176.382042 
L 178.396095 175.318136 
L 178.452611 175.318136 
L 178.553005 174.75072 
L 178.5712 174.75072 
L 178.676994 173.403106 
L 178.687541 173.403106 
L 178.783694 172.622908 
L 178.828598 172.622908 
L 178.931471 172.197346 
L 178.95079 172.126419 
L 179.05743 170.495096 
L 179.070718 170.424169 
L 179.173747 169.785826 
L 179.201614 169.714899 
L 179.28643 169.360264 
L 179.32724 169.289336 
L 179.420186 167.799868 
L 179.463598 167.728941 
L 179.573127 166.239473 
L 179.577437 166.239473 
L 179.639112 165.530202 
L 179.694876 165.459275 
L 179.77608 164.820932 
L 179.847024 164.820932 
L 179.941672 163.473318 
L 179.962796 163.473318 
L 180.066666 161.983849 
L 180.090447 161.912922 
L 180.200566 161.274579 
L 180.201956 161.274579 
L 180.307281 159.856038 
L 180.32938 159.785111 
L 180.41889 158.863059 
L 180.471022 158.863059 
L 180.576218 157.657299 
L 180.589837 157.657299 
L 180.694372 156.948028 
L 180.734944 156.877101 
L 180.831959 155.671341 
L 180.858819 155.600414 
L 180.95787 154.962071 
L 180.975217 154.962071 
L 181.077638 153.04704 
L 181.127979 152.976113 
L 181.208509 152.337769 
L 181.262442 152.337769 
L 181.328006 151.344791 
L 181.389428 151.273864 
L 181.498707 150.63552 
L 181.529814 150.564593 
L 181.635707 149.358833 
L 181.660159 149.358833 
L 181.764044 147.727511 
L 181.813859 147.656584 
L 181.919439 146.450824 
L 181.947325 146.450824 
L 182.05216 145.457845 
L 182.069785 145.386918 
L 182.166432 143.755595 
L 182.195205 143.755595 
L 182.291211 142.762616 
L 182.321035 142.691689 
L 182.431222 141.627784 
L 182.460825 141.556856 
L 182.555488 140.492951 
L 182.586121 140.422024 
L 182.69477 139.216264 
L 182.71302 139.145336 
L 182.810056 137.868649 
L 182.836653 137.797722 
L 182.937862 136.662889 
L 182.993056 136.591962 
L 183.100578 135.173421 
L 183.118439 135.102494 
L 183.177853 134.464151 
L 183.255993 134.393224 
L 183.358502 132.761901 
L 183.373772 132.761901 
L 183.458118 132.194485 
L 183.510643 132.123558 
L 183.614096 129.995746 
L 183.639581 129.924819 
L 183.750387 128.577205 
L 183.779136 128.506278 
L 183.884555 127.442372 
L 183.933625 127.371445 
L 184.034784 125.881976 
L 184.072155 125.811049 
L 184.138785 125.385487 
L 184.183823 125.385487 
L 184.282531 124.250654 
L 184.298186 124.250654 
L 184.406302 123.044894 
L 184.425187 122.973967 
L 184.51159 122.264696 
L 184.549129 122.264696 
L 184.660203 120.846155 
L 184.678834 120.775228 
L 184.749902 119.002052 
L 184.796769 118.931125 
L 184.886904 118.292781 
L 184.919376 118.292781 
L 185.018612 116.945167 
L 185.037967 116.945167 
L 185.147268 115.810334 
L 185.182494 115.739407 
L 185.293082 114.675501 
L 185.313216 114.604574 
L 185.388261 113.824376 
L 185.477712 113.753449 
L 185.582407 112.263981 
L 185.597018 112.193054 
L 185.696903 110.490805 
L 185.7249 110.419878 
L 185.82411 109.214118 
L 185.847801 109.143191 
L 185.939197 107.866504 
L 185.984218 107.866504 
L 186.094269 106.377035 
L 186.103411 106.377035 
L 186.20974 104.745713 
L 186.220844 104.674786 
L 186.33153 103.398099 
L 186.356596 103.327172 
L 186.466488 101.553995 
L 186.491374 101.483068 
L 186.598507 99.780819 
L 186.637044 99.709892 
L 186.734516 98.858767 
L 186.751203 98.858767 
L 186.853942 97.014664 
L 186.889038 96.943736 
L 186.998778 95.383341 
L 187.005555 95.312414 
L 187.111731 94.532216 
L 187.117506 94.532216 
L 187.227838 93.042748 
L 187.267972 92.971821 
L 187.347985 92.333478 
L 187.395451 92.333478 
L 187.504169 91.056791 
L 187.535251 90.985864 
L 187.636615 90.063812 
L 187.655327 89.992885 
L 187.755118 89.212687 
L 187.771854 89.212687 
L 187.867332 88.432489 
L 187.913507 88.361562 
L 188.013777 87.723219 
L 188.029367 87.723219 
L 188.129022 86.659313 
L 188.169101 86.588386 
L 188.279785 84.886136 
L 188.31503 84.815209 
L 188.423065 83.609449 
L 188.449081 83.538522 
L 188.559025 82.687398 
L 188.611535 82.616471 
L 188.722304 81.836273 
L 188.75673 81.765346 
L 188.860511 80.630513 
L 188.881549 80.559586 
L 188.990744 79.850315 
L 189.098442 79.779388 
L 189.194329 78.786409 
L 189.235643 78.786409 
L 189.321423 78.360847 
L 189.352209 78.360847 
L 189.443413 77.438795 
L 189.48079 77.367868 
L 189.539254 76.871379 
L 189.623664 76.800452 
L 189.697633 76.374889 
L 189.748737 76.303962 
L 189.849697 75.240056 
L 189.892919 75.169129 
L 189.999716 74.530786 
L 190.019519 74.459859 
L 190.112476 73.821515 
L 190.14691 73.750588 
L 190.253093 72.970391 
L 190.277512 72.899464 
L 190.31814 72.26112 
L 190.410445 72.190193 
L 190.518368 71.551849 
L 190.536028 71.480922 
L 190.643235 70.629798 
L 190.666356 70.558871 
L 190.7649 70.062381 
L 190.817141 69.991454 
L 190.908609 69.353111 
L 191.049667 69.353111 
L 191.156323 68.431059 
L 191.195099 68.431059 
L 191.291689 67.934569 
L 191.326341 67.863642 
L 191.435269 67.296226 
L 191.442916 67.296226 
L 191.511602 66.728809 
L 191.599763 66.657882 
L 191.66939 66.090466 
L 191.744781 66.019539 
L 191.854313 65.735831 
L 191.861791 65.664904 
L 191.969902 64.742852 
L 192.039657 64.742852 
L 192.115795 64.388216 
L 192.182807 64.388216 
L 192.291286 64.033581 
L 192.351121 63.962654 
L 192.430364 63.182456 
L 192.472395 63.111529 
L 192.580661 62.756894 
L 192.685445 62.685967 
L 192.768284 62.047624 
L 192.86707 61.976696 
L 192.917329 61.692988 
L 193.0076 61.692988 
L 193.112138 60.841864 
L 193.175002 60.841864 
L 193.255717 60.487228 
L 193.318104 60.487228 
L 193.420247 60.132593 
L 193.446384 60.061666 
L 193.546467 59.352395 
L 193.588126 59.352395 
L 193.690852 58.501271 
L 193.730839 58.501271 
L 193.798419 58.075708 
L 193.864413 58.075708 
L 193.931515 57.579219 
L 193.987697 57.579219 
L 194.094248 56.940875 
L 194.13935 56.869948 
L 194.222637 56.373459 
L 194.291105 56.302532 
L 194.368489 55.735115 
L 194.412287 55.735115 
L 194.502826 55.309553 
L 194.546312 55.309553 
L 194.632983 54.529355 
L 194.682607 54.458428 
L 194.785304 53.749158 
L 194.814087 53.749158 
L 194.902717 53.039887 
L 194.945289 53.039887 
L 195.033305 52.117835 
L 195.06991 52.046908 
L 195.17679 51.550419 
L 195.231879 51.479492 
L 195.3223 50.628367 
L 195.385027 50.55744 
L 195.477801 49.564461 
L 195.505545 49.564461 
L 195.581168 48.784264 
L 195.631416 48.784264 
L 195.710193 47.578504 
L 195.781965 47.578504 
L 195.876432 46.585525 
L 195.948777 46.514598 
L 196.054383 45.663473 
L 196.087263 45.592546 
L 196.190314 45.308838 
L 196.236 45.237911 
L 196.34001 44.52864 
L 196.3671 44.457713 
L 196.412946 44.103078 
L 196.505473 44.032151 
L 196.536992 43.535661 
L 196.647474 43.464734 
L 196.744049 43.039172 
L 196.802216 42.968245 
L 196.896286 42.11712 
L 196.960829 42.046193 
L 197.045598 41.478776 
L 197.079059 41.407849 
L 197.188102 40.769506 
L 197.208935 40.698579 
L 197.256145 40.485798 
L 197.358029 40.414871 
L 197.416558 40.131162 
L 197.527541 40.060235 
L 197.635673 39.563746 
L 197.682923 39.492819 
L 197.762321 39.280038 
L 197.860964 39.209111 
L 197.964498 38.854475 
L 198.010391 38.783548 
L 198.071767 38.357986 
L 198.159711 38.287059 
L 198.265344 37.861496 
L 198.276512 37.790569 
L 198.333847 37.577788 
L 198.452209 37.506861 
L 198.559882 37.29408 
L 198.579774 37.223153 
L 198.657567 37.010372 
L 198.715312 36.939445 
L 198.778575 36.584809 
L 198.992708 36.513882 
L 199.072383 36.159247 
L 199.134967 36.08832 
L 199.241844 35.804612 
L 199.296315 35.733685 
L 199.317958 35.520904 
L 199.527564 35.449976 
L 199.622838 35.166268 
L 199.721079 35.095341 
L 199.802637 34.811633 
L 199.985105 34.740706 
L 200.078578 34.386071 
L 200.1302 34.315144 
L 200.179279 34.173289 
L 200.307147 34.102362 
L 200.41328 33.889581 
L 200.510322 33.818654 
L 200.615318 33.393092 
L 200.683745 33.322165 
L 200.683745 33.251238 
L 200.931917 33.180311 
L 200.972041 33.038456 
L 201.047445 33.038456 
L 201.107461 32.754748 
L 201.220101 32.683821 
L 201.309006 32.47104 
L 201.405598 32.400113 
L 201.439783 32.258259 
L 201.605773 32.187332 
L 201.644932 32.045478 
L 202.288139 31.974551 
L 202.341331 31.832696 
L 203.636881 31.761769 
L 203.636881 31.690842 
L 204.16442 31.619915 
L 204.260595 31.26528 
L 204.475973 31.194353 
L 204.553062 31.052499 
L 204.927119 30.981572 
L 204.984899 30.839718 
L 205.089569 30.768791 
L 205.174508 30.414155 
L 205.512293 30.343228 
L 205.529295 30.201374 
L 205.836295 30.130447 
L 205.931391 29.846739 
L 206.581539 29.775812 
L 206.664442 29.492104 
L 206.81802 29.421176 
L 206.81802 29.350249 
L 207.297393 29.279322 
L 207.297393 29.208395 
L 207.604925 29.137468 
L 207.644065 28.995614 
L 207.942528 28.924687 
L 207.984147 28.782833 
L 209.034527 28.711906 
L 209.034527 28.640979 
L 209.543187 28.570052 
L 209.543187 28.499125 
L 209.96319 28.428198 
L 209.96319 28.357271 
L 211.48269 28.286344 
L 211.48269 28.215416 
L 212.016265 28.144489 
L 212.016265 28.073562 
L 213.209321 28.002635 
L 213.209321 27.931708 
L 213.878294 27.860781 
L 213.878294 27.789854 
L 220.561345 27.718927 
L 220.561345 27.648 
L 360.8064 27.648 
L 360.8064 27.648 
" style="fill: none; stroke: #000080; stroke-width: 1.5; stroke-linecap: square"/>
   </g>
   <g id="line2d_36">
    <defs>
     <path id="m91340042cb" d="M 0 6 
C 1.591219 6 3.117479 5.367802 4.242641 4.242641 
C 5.367802 3.117479 6 1.591219 6 0 
C 6 -1.591219 5.367802 -3.117479 4.242641 -4.242641 
C 3.117479 -5.367802 1.591219 -6 0 -6 
C -1.591219 -6 -3.117479 -5.367802 -4.242641 -4.242641 
C -5.367802 -3.117479 -6 -1.591219 -6 0 
C -6 1.591219 -5.367802 3.117479 -4.242641 4.242641 
C -3.117479 5.367802 -1.591219 6 0 6 
z
" style="stroke: #000080; stroke-width: 1.5"/>
    </defs>
    <g>
     <use xlink:href="#m91340042cb" x="183.568833" y="131.414287" style="fill-opacity: 0; stroke: #000080; stroke-width: 1.5"/>
     <use xlink:href="#m91340042cb" x="220.561345" y="27.718927" style="fill-opacity: 0; stroke: #000080; stroke-width: 1.5"/>
     <use xlink:href="#m91340042cb" x="220.561345" y="27.648" style="fill-opacity: 0; stroke: #000080; stroke-width: 1.5"/>
     <use xlink:href="#m91340042cb" x="220.561345" y="27.648" style="fill-opacity: 0; stroke: #000080; stroke-width: 1.5"/>
     <use xlink:href="#m91340042cb" x="360.8064" y="27.648" style="fill-opacity: 0; stroke: #000080; stroke-width: 1.5"/>
    </g>
   </g>
   <g id="line2d_37">
    <path style="fill: none; stroke: #000080; stroke-width: 1.5; stroke-linecap: square"/>
    <g/>
   </g>
   <g id="line2d_38">
    <path d="M 101.471247 298.944 
" clip-path="url(#p233119cc8f)" style="fill: none; stroke: #000080; stroke-width: 1.5; stroke-linecap: square"/>
    <defs>
     <path id="m0ab22ce8a8" d="M -12 12 
L 12 -12 
M -12 -12 
L 12 12 
" style="stroke: #000080"/>
    </defs>
    <g clip-path="url(#p233119cc8f)">
     <use xlink:href="#m0ab22ce8a8" x="101.471247" y="298.944" style="fill: #000080; stroke: #000080"/>
    </g>
   </g>
   <g id="line2d_39">
    <defs>
     <path id="mc537f00b7b" d="M 0 1.5 
C 0.397805 1.5 0.77937 1.341951 1.06066 1.06066 
C 1.341951 0.77937 1.5 0.397805 1.5 0 
C 1.5 -0.397805 1.341951 -0.77937 1.06066 -1.06066 
C 0.77937 -1.341951 0.397805 -1.5 0 -1.5 
C -0.397805 -1.5 -0.77937 -1.341951 -1.06066 -1.06066 
C -1.341951 -0.77937 -1.5 -0.397805 -1.5 0 
C -1.5 0.397805 -1.341951 0.77937 -1.06066 1.06066 
C -0.77937 1.341951 -0.397805 1.5 0 1.5 
z
" style="stroke: #ff00ff"/>
    </defs>
    <g>
     <use xlink:href="#mc537f00b7b" x="196.914015" y="27.648" style="fill: #ff00ff; stroke: #ff00ff"/>
     <use xlink:href="#mc537f00b7b" x="196.914015" y="27.648" style="fill: #ff00ff; stroke: #ff00ff"/>
    </g>
   </g>
   <g id="line2d_40">
    <path d="M 138.59155 298.944 
L 138.59155 298.589365 
L 139.423341 298.589365 
L 139.423341 298.234729 
L 139.628669 298.234729 
L 139.628669 297.880094 
L 140.009194 297.880094 
L 140.103135 297.170824 
L 140.359078 297.170824 
L 140.428281 296.461553 
L 140.725251 296.461553 
L 140.781828 295.752282 
L 140.860749 295.752282 
L 140.961736 294.688376 
L 140.972924 294.688376 
L 140.984104 293.624471 
L 141.106655 293.624471 
L 141.173167 292.9152 
L 141.239443 292.9152 
L 141.294496 292.205929 
L 141.436884 292.205929 
L 141.513111 291.142024 
L 141.65386 291.142024 
L 141.761416 289.723482 
L 141.772138 289.723482 
L 141.782854 288.659576 
L 142.027647 288.659576 
L 142.112051 286.531765 
L 142.248405 286.531765 
L 142.290162 285.113224 
L 142.394151 285.113224 
L 142.497568 283.340047 
L 142.518184 283.340047 
L 142.518184 282.985412 
L 142.641404 282.985412 
L 142.651636 282.276141 
L 142.804452 282.276141 
L 142.885449 281.212235 
L 142.915733 281.212235 
L 143.02636 280.502965 
L 143.076431 280.502965 
L 143.086429 279.793694 
L 143.225848 279.793694 
L 143.314933 278.375153 
L 143.344534 278.375153 
L 143.452675 276.601976 
L 143.491845 276.601976 
L 143.599145 275.183435 
L 143.638012 275.183435 
L 143.676798 274.474165 
L 143.83115 274.474165 
L 143.907854 273.055624 
L 143.965177 273.055624 
L 143.974714 271.991718 
L 144.220992 271.991718 
L 144.314862 269.863906 
L 144.408266 269.863906 
L 144.510478 268.8 
L 144.565997 268.8 
L 144.648968 268.090729 
L 144.731576 268.090729 
L 144.740732 267.381459 
L 144.85936 267.381459 
L 144.968202 266.317553 
L 145.058426 266.317553 
L 145.130294 265.253647 
L 145.219746 265.253647 
L 145.308773 263.125835 
L 145.423883 263.125835 
L 145.511953 262.061929 
L 145.573357 262.061929 
L 145.617094 261.352659 
L 145.704266 261.352659 
L 145.704266 260.643388 
L 145.851536 260.643388 
L 145.920443 259.579482 
L 146.01478 259.579482 
L 146.074567 258.870212 
L 146.142663 258.870212 
L 146.193574 258.160941 
L 146.345485 258.160941 
L 146.387466 257.451671 
L 146.604268 257.451671 
L 146.604268 257.097035 
L 146.802199 257.097035 
L 146.900389 255.678494 
L 146.924857 255.678494 
L 146.924857 255.323859 
L 147.103321 255.323859 
L 147.103321 254.969224 
L 147.216013 254.969224 
L 147.216013 254.614588 
L 147.328035 254.614588 
L 147.391749 253.905318 
L 147.62092 253.905318 
L 147.62092 253.550682 
L 147.746174 253.550682 
L 147.746174 253.196047 
L 147.886095 253.196047 
L 147.963382 252.132141 
L 148.048032 252.132141 
L 148.086384 251.422871 
L 148.261802 251.422871 
L 148.367783 250.358965 
L 148.450637 250.358965 
L 148.450637 250.004329 
L 148.77845 250.004329 
L 148.785835 249.295059 
L 149.057037 249.295059 
L 149.057037 248.585788 
L 149.460208 248.585788 
L 149.474449 247.876518 
L 149.693807 247.876518 
L 149.778038 247.167247 
L 149.903682 247.167247 
L 149.952317 246.103341 
L 150.336941 246.103341 
L 150.336941 245.748706 
L 150.62703 245.748706 
L 150.62703 245.394071 
L 150.932483 245.394071 
L 150.985103 244.6848 
L 151.528902 244.6848 
L 151.528902 244.330165 
L 151.951652 244.330165 
L 151.951652 243.975529 
L 152.631772 243.975529 
L 152.631772 243.620894 
L 153.667854 243.620894 
L 153.667854 243.266259 
L 160.434898 243.266259 
L 160.434898 242.911624 
L 160.97168 242.911624 
L 160.97168 242.556988 
L 162.722426 242.556988 
L 162.722426 242.202353 
L 163.184786 242.202353 
L 163.184786 241.847718 
L 163.64611 241.847718 
L 163.64611 241.493082 
L 164.112741 241.493082 
L 164.112741 241.138447 
L 164.268989 241.138447 
L 164.343401 240.429176 
L 164.63178 240.429176 
L 164.63178 240.074541 
L 164.8279 240.074541 
L 164.900138 239.365271 
L 165.018882 239.365271 
L 165.018882 239.010635 
L 165.136882 239.010635 
L 165.136882 238.656 
L 165.649872 238.656 
L 165.649872 238.301365 
L 166.007914 238.301365 
L 166.114011 237.592094 
L 166.370868 237.592094 
L 166.460523 236.882824 
L 166.558365 236.882824 
L 166.558365 236.528188 
L 167.068041 236.528188 
L 167.068041 236.173553 
L 167.218289 236.173553 
L 167.218289 235.818918 
L 167.422255 235.818918 
L 167.485202 235.109647 
L 167.618609 235.109647 
L 167.618609 234.755012 
L 167.786064 234.755012 
L 167.893313 234.045741 
L 168.029176 234.045741 
L 168.029176 233.691106 
L 168.142969 233.691106 
L 168.142969 233.336471 
L 168.29014 233.336471 
L 168.29014 232.981835 
L 168.500997 232.981835 
L 168.500997 232.6272 
L 168.742767 232.6272 
L 168.837086 231.917929 
L 168.865036 231.917929 
L 168.880264 231.208659 
L 169.062044 231.208659 
L 169.084644 230.499388 
L 169.179765 230.499388 
L 169.179765 230.144753 
L 169.390813 230.144753 
L 169.474573 229.080847 
L 169.670197 229.080847 
L 169.670197 228.726212 
L 169.979025 228.726212 
L 170.060213 228.016941 
L 170.110183 228.016941 
L 170.110183 227.662306 
L 170.320502 227.662306 
L 170.362755 226.5984 
L 170.514546 226.5984 
L 170.598091 225.889129 
L 170.873925 225.889129 
L 170.908122 224.825224 
L 171.075922 224.825224 
L 171.123269 223.761318 
L 171.583711 223.761318 
L 171.664838 222.697412 
L 171.695443 222.697412 
L 171.76086 221.988141 
L 172.011684 221.988141 
L 172.056737 220.5696 
L 172.129451 220.5696 
L 172.237998 219.860329 
L 172.274041 219.860329 
L 172.284629 219.151059 
L 172.50561 219.151059 
L 172.609933 218.441788 
L 172.647348 218.441788 
L 172.717819 217.377882 
L 172.83126 217.377882 
L 172.925616 216.668612 
L 173.003206 216.668612 
L 173.072359 215.604706 
L 173.384432 215.604706 
L 173.474073 214.186165 
L 173.505842 214.186165 
L 173.521707 213.476894 
L 173.760043 213.476894 
L 173.760043 213.122259 
L 173.914037 213.122259 
L 173.945073 211.349082 
L 174.078331 211.349082 
L 174.078331 210.994447 
L 174.225934 210.994447 
L 174.30786 209.930541 
L 174.345844 209.930541 
L 174.345844 209.575906 
L 174.615217 209.575906 
L 174.725243 208.157365 
L 174.758683 208.157365 
L 174.779089 207.093459 
L 175.018589 207.093459 
L 175.058819 205.674918 
L 175.256885 205.674918 
L 175.278564 204.965647 
L 175.377606 204.965647 
L 175.40632 204.256376 
L 175.518959 204.256376 
L 175.611425 203.192471 
L 175.684013 203.192471 
L 175.775673 201.773929 
L 175.915823 201.773929 
L 175.915823 201.419294 
L 176.067061 201.419294 
L 176.168936 200.000753 
L 176.194749 200.000753 
L 176.23426 198.936847 
L 176.314743 198.936847 
L 176.347181 198.227576 
L 176.479765 198.227576 
L 176.576066 197.163671 
L 176.594594 197.163671 
L 176.594594 196.809035 
L 176.708725 196.809035 
L 176.708725 196.4544 
L 176.858725 196.4544 
L 176.96797 194.326588 
L 177.032227 194.326588 
L 177.050311 193.617318 
L 177.243218 193.617318 
L 177.293571 192.553412 
L 177.434167 192.553412 
L 177.501667 191.489506 
L 177.591292 191.489506 
L 177.677313 189.007059 
L 177.777176 189.007059 
L 177.848184 187.943153 
L 177.912648 187.943153 
L 177.912648 187.588518 
L 178.02532 187.588518 
L 178.10317 185.106071 
L 178.236322 185.106071 
L 178.236322 184.751435 
L 178.368539 184.751435 
L 178.368539 184.3968 
L 178.480044 184.3968 
L 178.569685 182.978259 
L 178.661917 182.978259 
L 178.717642 181.559718 
L 178.80616 181.559718 
L 178.80616 181.205082 
L 178.992333 181.205082 
L 179.092843 179.786541 
L 179.106105 179.786541 
L 179.216265 178.368 
L 179.219194 178.368 
L 179.282053 177.304094 
L 179.338883 177.304094 
L 179.36796 176.594824 
L 179.495369 176.594824 
L 179.548682 175.530918 
L 179.609017 175.530918 
L 179.706294 174.467012 
L 179.751898 174.467012 
L 179.841358 173.403106 
L 179.871084 173.403106 
L 179.962796 171.984565 
L 180.00357 171.984565 
L 180.009187 171.275294 
L 180.244989 171.275294 
L 180.322477 169.856753 
L 180.424384 169.856753 
L 180.477871 168.438212 
L 180.574856 168.438212 
L 180.678119 166.665035 
L 180.767338 166.665035 
L 180.779471 165.955765 
L 180.88162 165.955765 
L 180.888321 165.246494 
L 181.0072 165.246494 
L 181.108124 163.827953 
L 181.12004 163.827953 
L 181.215094 161.345506 
L 181.271635 161.345506 
L 181.32146 160.636235 
L 181.450651 160.636235 
L 181.55699 158.863059 
L 181.635707 158.863059 
L 181.715379 157.089882 
L 181.804928 157.089882 
L 181.864815 155.316706 
L 181.953657 155.316706 
L 182.054679 153.188894 
L 182.078592 153.188894 
L 182.186452 152.124988 
L 182.253864 152.124988 
L 182.361966 150.351812 
L 182.392915 150.351812 
L 182.468218 148.224 
L 182.561619 148.224 
L 182.637472 146.096188 
L 182.672847 146.096188 
L 182.772514 144.677647 
L 182.796743 144.677647 
L 182.875273 142.904471 
L 182.948674 142.904471 
L 183.055255 140.776659 
L 183.062419 140.776659 
L 183.144604 138.294212 
L 183.189713 138.294212 
L 183.267804 136.875671 
L 183.318507 136.875671 
L 183.408962 135.102494 
L 183.456949 135.102494 
L 183.560697 132.265412 
L 183.60482 132.265412 
L 183.60482 131.910776 
L 183.722747 131.910776 
L 183.808988 130.492235 
L 183.843375 130.492235 
L 183.919944 128.719059 
L 183.966647 128.719059 
L 183.989387 127.300518 
L 184.083465 127.300518 
L 184.179324 126.236612 
L 184.19619 126.236612 
L 184.257902 123.754165 
L 184.328343 123.754165 
L 184.388512 122.335624 
L 184.44627 122.335624 
L 184.538096 120.207812 
L 184.603099 120.207812 
L 184.683215 118.08 
L 184.7226 118.08 
L 184.810915 116.306824 
L 184.844605 116.306824 
L 184.935592 115.242918 
L 184.956111 115.242918 
L 185.008927 113.115106 
L 185.084122 113.115106 
L 185.185694 112.0512 
L 185.202747 112.0512 
L 185.284598 110.987294 
L 185.315334 110.987294 
L 185.36504 109.923388 
L 185.445138 109.923388 
L 185.541646 108.150212 
L 185.56465 108.150212 
L 185.659508 106.0224 
L 185.760097 106.0224 
L 185.839564 104.249224 
L 185.872491 104.249224 
L 185.973995 102.476047 
L 185.999541 102.476047 
L 186.097317 101.412141 
L 186.141961 101.412141 
L 186.229925 99.9936 
L 186.308441 99.9936 
L 186.417615 97.511153 
L 186.423607 97.511153 
L 186.528146 95.737976 
L 186.546009 95.737976 
L 186.546009 95.383341 
L 186.662691 95.383341 
L 186.772775 92.546259 
L 186.855894 92.546259 
L 186.898776 91.482353 
L 186.982309 91.482353 
L 187.074156 89.709176 
L 187.128087 89.709176 
L 187.229751 87.581365 
L 187.242181 87.581365 
L 187.325159 86.162824 
L 187.381223 86.162824 
L 187.442797 84.744282 
L 187.505112 84.744282 
L 187.598199 83.325741 
L 187.630062 83.325741 
L 187.728124 81.552565 
L 187.793216 81.552565 
L 187.869181 79.424753 
L 187.909817 79.424753 
L 188.018363 78.006212 
L 188.0312 78.006212 
L 188.040364 76.942306 
L 188.150894 76.942306 
L 188.247192 75.169129 
L 188.284307 75.169129 
L 188.365524 73.395953 
L 188.401508 73.395953 
L 188.493851 72.332047 
L 188.527805 72.332047 
L 188.62042 71.622776 
L 188.680731 71.622776 
L 188.789333 70.558871 
L 188.799895 70.558871 
L 188.863142 69.494965 
L 188.968955 69.494965 
L 188.995098 68.785694 
L 189.095844 68.785694 
L 189.190021 67.367153 
L 189.208972 67.367153 
L 189.317144 66.303247 
L 189.347936 66.303247 
L 189.358189 65.593976 
L 189.459562 65.593976 
L 189.561237 64.175435 
L 189.611027 64.175435 
L 189.680008 63.111529 
L 189.784677 63.111529 
L 189.85968 61.338353 
L 189.902879 61.338353 
L 190.00797 59.565176 
L 190.110835 59.565176 
L 190.216405 58.146635 
L 190.248206 58.146635 
L 190.297025 57.082729 
L 190.379727 57.082729 
L 190.475756 56.018824 
L 190.528806 56.018824 
L 190.602504 54.600282 
L 190.640841 54.600282 
L 190.725227 53.181741 
L 190.773617 53.181741 
L 190.869238 51.7632 
L 190.914114 51.7632 
L 190.980054 51.053929 
L 191.074634 51.053929 
L 191.178047 49.280753 
L 191.281667 49.280753 
L 191.386253 48.216847 
L 191.425323 48.216847 
L 191.535964 46.798306 
L 191.561053 46.798306 
L 191.56789 46.089035 
L 191.674678 46.089035 
L 191.7508 44.670494 
L 191.796626 44.670494 
L 191.886451 43.251953 
L 191.962466 43.251953 
L 191.996647 42.188047 
L 192.102511 42.188047 
L 192.168835 41.478776 
L 192.321957 41.478776 
L 192.412945 40.414871 
L 192.478908 40.414871 
L 192.56338 39.7056 
L 192.629537 39.7056 
L 192.727624 38.996329 
L 192.962519 38.996329 
L 192.978732 38.287059 
L 193.192427 38.287059 
L 193.286243 37.577788 
L 193.459438 37.577788 
L 193.459438 37.223153 
L 193.616074 37.223153 
L 193.660297 36.513882 
L 193.79707 36.513882 
L 193.79707 36.159247 
L 193.933525 36.159247 
L 193.940221 35.449976 
L 194.125433 35.449976 
L 194.175751 34.740706 
L 194.312779 34.740706 
L 194.312779 34.386071 
L 194.440342 34.386071 
L 194.502826 33.6768 
L 194.583875 33.6768 
L 194.583875 33.322165 
L 194.719257 33.322165 
L 194.82431 32.612894 
L 194.835167 32.612894 
L 194.932591 31.903624 
L 195.130969 31.903624 
L 195.130969 31.548988 
L 195.269347 31.548988 
L 195.269347 31.194353 
L 195.48952 31.194353 
L 195.48952 30.839718 
L 195.741855 30.839718 
L 195.741855 30.485082 
L 195.861929 30.485082 
L 195.861929 30.130447 
L 196.115316 30.130447 
L 196.115316 29.775812 
L 196.232444 29.775812 
L 196.232444 29.421176 
L 196.401789 29.421176 
L 196.401789 29.066541 
L 196.52474 29.066541 
L 196.52474 28.711906 
L 196.66428 28.711906 
L 196.66428 28.357271 
L 196.826352 28.357271 
L 196.914015 27.648 
L 360.8064 27.648 
L 360.8064 27.648 
" style="fill: none; stroke: #ff00ff; stroke-width: 1.5; stroke-linecap: square"/>
   </g>
   <g id="line2d_41">
    <defs>
     <path id="m83a09be70b" d="M -0 8.485281 
L 5.091169 0 
L 0 -8.485281 
L -5.091169 -0 
z
" style="stroke: #ff00ff; stroke-width: 1.5; stroke-linejoin: miter"/>
    </defs>
    <g>
     <use xlink:href="#m83a09be70b" x="174.771671" y="207.448094" style="fill-opacity: 0; stroke: #ff00ff; stroke-width: 1.5; stroke-linejoin: miter"/>
     <use xlink:href="#m83a09be70b" x="189.095844" y="68.785694" style="fill-opacity: 0; stroke: #ff00ff; stroke-width: 1.5; stroke-linejoin: miter"/>
     <use xlink:href="#m83a09be70b" x="196.914015" y="27.648" style="fill-opacity: 0; stroke: #ff00ff; stroke-width: 1.5; stroke-linejoin: miter"/>
     <use xlink:href="#m83a09be70b" x="196.914015" y="27.648" style="fill-opacity: 0; stroke: #ff00ff; stroke-width: 1.5; stroke-linejoin: miter"/>
     <use xlink:href="#m83a09be70b" x="360.8064" y="27.648" style="fill-opacity: 0; stroke: #ff00ff; stroke-width: 1.5; stroke-linejoin: miter"/>
    </g>
   </g>
   <g id="line2d_42">
    <path style="fill: none; stroke: #ff00ff; stroke-width: 1.5; stroke-linecap: square"/>
    <g/>
   </g>
   <g id="line2d_43">
    <path d="M 360.8064 27.648 
L 380.514816 293.51808 
" style="fill: none; stroke: #000080; stroke-width: 1.5; stroke-linecap: square"/>
    <g>
     <use xlink:href="#m91340042cb" x="360.8064" y="27.648" style="fill-opacity: 0; stroke: #000080; stroke-width: 1.5"/>
     <use xlink:href="#m91340042cb" x="380.514816" y="293.51808" style="fill-opacity: 0; stroke: #000080; stroke-width: 1.5"/>
    </g>
   </g>
   <g id="line2d_44">
    <path d="M 360.8064 27.648 
L 380.514816 163.296 
" style="fill: none; stroke: #ff00ff; stroke-width: 1.5; stroke-linecap: square"/>
    <g>
     <use xlink:href="#m83a09be70b" x="360.8064" y="27.648" style="fill-opacity: 0; stroke: #ff00ff; stroke-width: 1.5; stroke-linejoin: miter"/>
     <use xlink:href="#m83a09be70b" x="380.514816" y="163.296" style="fill-opacity: 0; stroke: #ff00ff; stroke-width: 1.5; stroke-linejoin: miter"/>
    </g>
   </g>
   <g id="line2d_45">
    <path d="M 360.8064 298.944 
L 360.8064 27.648 
" style="fill: none; stroke: #000000; stroke-width: 1.5; stroke-linecap: square"/>
   </g>
   <g id="patch_3">
    <path d="M 57.6 298.944 
L 360.8064 298.944 
" style="fill: none; stroke: #000000; stroke-width: 0.8; stroke-linejoin: miter; stroke-linecap: square"/>
   </g>
   <g id="patch_4">
    <path d="M 57.6 27.648 
L 360.8064 27.648 
" style="fill: none; stroke: #000000; stroke-width: 0.8; stroke-linejoin: miter; stroke-linecap: square"/>
   </g>
   <g id="text_13">
    <!-- ex -->
    <g transform="translate(386.578944 297.381205)scale(0.14 -0.14)">
     <defs>
      <path id="DejaVuSans-78" d="M 3513 3500 
L 2247 1797 
L 3578 0 
L 2900 0 
L 1881 1375 
L 863 0 
L 184 0 
L 1544 1831 
L 300 3500 
L 978 3500 
L 1906 2253 
L 2834 3500 
L 3513 3500 
z
" transform="scale(0.015625)"/>
     </defs>
     <use xlink:href="#DejaVuSans-65"/>
     <use xlink:href="#DejaVuSans-78" x="59.773438"/>
    </g>
   </g>
   <g id="text_14">
    <!-- CMA-ES-20 -->
    <g transform="translate(386.578944 167.159125)scale(0.14 -0.14)">
     <defs>
      <path id="DejaVuSans-43" d="M 4122 4306 
L 4122 3641 
Q 3803 3938 3442 4084 
Q 3081 4231 2675 4231 
Q 1875 4231 1450 3742 
Q 1025 3253 1025 2328 
Q 1025 1406 1450 917 
Q 1875 428 2675 428 
Q 3081 428 3442 575 
Q 3803 722 4122 1019 
L 4122 359 
Q 3791 134 3420 21 
Q 3050 -91 2638 -91 
Q 1578 -91 968 557 
Q 359 1206 359 2328 
Q 359 3453 968 4101 
Q 1578 4750 2638 4750 
Q 3056 4750 3426 4639 
Q 3797 4528 4122 4306 
z
" transform="scale(0.015625)"/>
      <path id="DejaVuSans-4d" d="M 628 4666 
L 1569 4666 
L 2759 1491 
L 3956 4666 
L 4897 4666 
L 4897 0 
L 4281 0 
L 4281 4097 
L 3078 897 
L 2444 897 
L 1241 4097 
L 1241 0 
L 628 0 
L 628 4666 
z
" transform="scale(0.015625)"/>
      <path id="DejaVuSans-41" d="M 2188 4044 
L 1331 1722 
L 3047 1722 
L 2188 4044 
z
M 1831 4666 
L 2547 4666 
L 4325 0 
L 3669 0 
L 3244 1197 
L 1141 1197 
L 716 0 
L 50 0 
L 1831 4666 
z
" transform="scale(0.015625)"/>
      <path id="DejaVuSans-45" d="M 628 4666 
L 3578 4666 
L 3578 4134 
L 1259 4134 
L 1259 2753 
L 3481 2753 
L 3481 2222 
L 1259 2222 
L 1259 531 
L 3634 531 
L 3634 0 
L 628 0 
L 628 4666 
z
" transform="scale(0.015625)"/>
      <path id="DejaVuSans-53" d="M 3425 4513 
L 3425 3897 
Q 3066 4069 2747 4153 
Q 2428 4238 2131 4238 
Q 1616 4238 1336 4038 
Q 1056 3838 1056 3469 
Q 1056 3159 1242 3001 
Q 1428 2844 1947 2747 
L 2328 2669 
Q 3034 2534 3370 2195 
Q 3706 1856 3706 1288 
Q 3706 609 3251 259 
Q 2797 -91 1919 -91 
Q 1588 -91 1214 -16 
Q 841 59 441 206 
L 441 856 
Q 825 641 1194 531 
Q 1563 422 1919 422 
Q 2459 422 2753 634 
Q 3047 847 3047 1241 
Q 3047 1584 2836 1778 
Q 2625 1972 2144 2069 
L 1759 2144 
Q 1053 2284 737 2584 
Q 422 2884 422 3419 
Q 422 4038 858 4394 
Q 1294 4750 2059 4750 
Q 2388 4750 2728 4690 
Q 3069 4631 3425 4513 
z
" transform="scale(0.015625)"/>
     </defs>
     <use xlink:href="#DejaVuSans-43"/>
     <use xlink:href="#DejaVuSans-4d" x="69.824219"/>
     <use xlink:href="#DejaVuSans-41" x="156.103516"/>
     <use xlink:href="#DejaVuSans-2d" x="222.261719"/>
     <use xlink:href="#DejaVuSans-45" x="258.345703"/>
     <use xlink:href="#DejaVuSans-53" x="321.529297"/>
     <use xlink:href="#DejaVuSans-2d" x="385.005859"/>
     <use xlink:href="#DejaVuSans-32" x="421.089844"/>
     <use xlink:href="#DejaVuSans-30" x="484.712891"/>
    </g>
   </g>
   <g id="text_15">
    <!-- best 2009 -->
    <g transform="translate(386.578944 36.937045)scale(0.14 -0.14)">
     <defs>
      <path id="DejaVuSans-62" d="M 3116 1747 
Q 3116 2381 2855 2742 
Q 2594 3103 2138 3103 
Q 1681 3103 1420 2742 
Q 1159 2381 1159 1747 
Q 1159 1113 1420 752 
Q 1681 391 2138 391 
Q 2594 391 2855 752 
Q 3116 1113 3116 1747 
z
M 1159 2969 
Q 1341 3281 1617 3432 
Q 1894 3584 2278 3584 
Q 2916 3584 3314 3078 
Q 3713 2572 3713 1747 
Q 3713 922 3314 415 
Q 2916 -91 2278 -91 
Q 1894 -91 1617 61 
Q 1341 213 1159 525 
L 1159 0 
L 581 0 
L 581 4863 
L 1159 4863 
L 1159 2969 
z
" transform="scale(0.015625)"/>
      <path id="DejaVuSans-39" d="M 703 97 
L 703 672 
Q 941 559 1184 500 
Q 1428 441 1663 441 
Q 2288 441 2617 861 
Q 2947 1281 2994 2138 
Q 2813 1869 2534 1725 
Q 2256 1581 1919 1581 
Q 1219 1581 811 2004 
Q 403 2428 403 3163 
Q 403 3881 828 4315 
Q 1253 4750 1959 4750 
Q 2769 4750 3195 4129 
Q 3622 3509 3622 2328 
Q 3622 1225 3098 567 
Q 2575 -91 1691 -91 
Q 1453 -91 1209 -44 
Q 966 3 703 97 
z
M 1959 2075 
Q 2384 2075 2632 2365 
Q 2881 2656 2881 3163 
Q 2881 3666 2632 3958 
Q 2384 4250 1959 4250 
Q 1534 4250 1286 3958 
Q 1038 3666 1038 3163 
Q 1038 2656 1286 2365 
Q 1534 2075 1959 2075 
z
" transform="scale(0.015625)"/>
     </defs>
     <use xlink:href="#DejaVuSans-62"/>
     <use xlink:href="#DejaVuSans-65" x="63.476562"/>
     <use xlink:href="#DejaVuSans-73" x="125"/>
     <use xlink:href="#DejaVuSans-74" x="177.099609"/>
     <use xlink:href="#DejaVuSans-20" x="216.308594"/>
     <use xlink:href="#DejaVuSans-32" x="248.095703"/>
     <use xlink:href="#DejaVuSans-30" x="311.71875"/>
     <use xlink:href="#DejaVuSans-30" x="375.341797"/>
     <use xlink:href="#DejaVuSans-39" x="438.964844"/>
    </g>
   </g>
   <g id="text_16">
    <!-- bbob f12, 20-D -->
    <g transform="translate(60.632064 38.111366)scale(0.102 -0.102)">
     <defs>
      <path id="DejaVuSans-44" d="M 1259 4147 
L 1259 519 
L 2022 519 
Q 2988 519 3436 956 
Q 3884 1394 3884 2338 
Q 3884 3275 3436 3711 
Q 2988 4147 2022 4147 
L 1259 4147 
z
M 628 4666 
L 1925 4666 
Q 3281 4666 3915 4102 
Q 4550 3538 4550 2338 
Q 4550 1131 3912 565 
Q 3275 0 1925 0 
L 628 0 
L 628 4666 
z
" transform="scale(0.015625)"/>
     </defs>
     <use xlink:href="#DejaVuSans-62"/>
     <use xlink:href="#DejaVuSans-62" x="63.476562"/>
     <use xlink:href="#DejaVuSans-6f" x="126.953125"/>
     <use xlink:href="#DejaVuSans-62" x="188.134766"/>
     <use xlink:href="#DejaVuSans-20" x="251.611328"/>
     <use xlink:href="#DejaVuSans-66" x="283.398438"/>
     <use xlink:href="#DejaVuSans-31" x="318.603516"/>
     <use xlink:href="#DejaVuSans-32" x="382.226562"/>
     <use xlink:href="#DejaVuSans-2c" x="445.849609"/>
     <use xlink:href="#DejaVuSans-20" x="477.636719"/>
     <use xlink:href="#DejaVuSans-32" x="509.423828"/>
     <use xlink:href="#DejaVuSans-30" x="573.046875"/>
     <use xlink:href="#DejaVuSans-2d" x="636.669922"/>
     <use xlink:href="#DejaVuSans-44" x="672.753906"/>
    </g>
    <!-- 51 targets: 100..1e-08 -->
    <g transform="translate(60.632064 49.533135)scale(0.102 -0.102)">
     <defs>
      <path id="DejaVuSans-35" d="M 691 4666 
L 3169 4666 
L 3169 4134 
L 1269 4134 
L 1269 2991 
Q 1406 3038 1543 3061 
Q 1681 3084 1819 3084 
Q 2600 3084 3056 2656 
Q 3513 2228 3513 1497 
Q 3513 744 3044 326 
Q 2575 -91 1722 -91 
Q 1428 -91 1123 -41 
Q 819 9 494 109 
L 494 744 
Q 775 591 1075 516 
Q 1375 441 1709 441 
Q 2250 441 2565 725 
Q 2881 1009 2881 1497 
Q 2881 1984 2565 2268 
Q 2250 2553 1709 2553 
Q 1456 2553 1204 2497 
Q 953 2441 691 2322 
L 691 4666 
z
" transform="scale(0.015625)"/>
      <path id="DejaVuSans-3a" d="M 750 794 
L 1409 794 
L 1409 0 
L 750 0 
L 750 794 
z
M 750 3309 
L 1409 3309 
L 1409 2516 
L 750 2516 
L 750 3309 
z
" transform="scale(0.015625)"/>
     </defs>
     <use xlink:href="#DejaVuSans-35"/>
     <use xlink:href="#DejaVuSans-31" x="63.623047"/>
     <use xlink:href="#DejaVuSans-20" x="127.246094"/>
     <use xlink:href="#DejaVuSans-74" x="159.033203"/>
     <use xlink:href="#DejaVuSans-61" x="198.242188"/>
     <use xlink:href="#DejaVuSans-72" x="259.521484"/>
     <use xlink:href="#DejaVuSans-67" x="298.884766"/>
     <use xlink:href="#DejaVuSans-65" x="362.361328"/>
     <use xlink:href="#DejaVuSans-74" x="423.884766"/>
     <use xlink:href="#DejaVuSans-73" x="463.09375"/>
     <use xlink:href="#DejaVuSans-3a" x="515.193359"/>
     <use xlink:href="#DejaVuSans-20" x="548.884766"/>
     <use xlink:href="#DejaVuSans-31" x="580.671875"/>
     <use xlink:href="#DejaVuSans-30" x="644.294922"/>
     <use xlink:href="#DejaVuSans-30" x="707.917969"/>
     <use xlink:href="#DejaVuSans-2e" x="771.541016"/>
     <use xlink:href="#DejaVuSans-2e" x="803.328125"/>
     <use xlink:href="#DejaVuSans-31" x="835.115234"/>
     <use xlink:href="#DejaVuSans-65" x="898.738281"/>
     <use xlink:href="#DejaVuSans-2d" x="960.261719"/>
     <use xlink:href="#DejaVuSans-30" x="996.345703"/>
     <use xlink:href="#DejaVuSans-38" x="1059.96875"/>
    </g>
    <!-- 25, 15 instances -->
    <g transform="translate(60.632064 60.954904)scale(0.102 -0.102)">
     <use xlink:href="#DejaVuSans-32"/>
     <use xlink:href="#DejaVuSans-35" x="63.623047"/>
     <use xlink:href="#DejaVuSans-2c" x="127.246094"/>
     <use xlink:href="#DejaVuSans-20" x="159.033203"/>
     <use xlink:href="#DejaVuSans-31" x="190.820312"/>
     <use xlink:href="#DejaVuSans-35" x="254.443359"/>
     <use xlink:href="#DejaVuSans-20" x="318.066406"/>
     <use xlink:href="#DejaVuSans-69" x="349.853516"/>
     <use xlink:href="#DejaVuSans-6e" x="377.636719"/>
     <use xlink:href="#DejaVuSans-73" x="441.015625"/>
     <use xlink:href="#DejaVuSans-74" x="493.115234"/>
     <use xlink:href="#DejaVuSans-61" x="532.324219"/>
     <use xlink:href="#DejaVuSans-6e" x="593.603516"/>
     <use xlink:href="#DejaVuSans-63" x="656.982422"/>
     <use xlink:href="#DejaVuSans-65" x="711.962891"/>
     <use xlink:href="#DejaVuSans-73" x="773.486328"/>
    </g>
   </g>
   <g id="text_17">
    <!-- v2.6 -->
    <g style="fill: #808080" transform="translate(198.292262 294.151352)scale(0.1 -0.1)">
     <use xlink:href="#DejaVuSans-76"/>
     <use xlink:href="#DejaVuSans-32" x="59.179688"/>
     <use xlink:href="#DejaVuSans-2e" x="122.802734"/>
     <use xlink:href="#DejaVuSans-36" x="154.589844"/>
    </g>
   </g>
   <g id="text_18">
    <!-- 12 Bent cigar -->
    <g transform="translate(141.986012 21.648)scale(0.2 -0.2)">
     <defs>
      <path id="DejaVuSans-42" d="M 1259 2228 
L 1259 519 
L 2272 519 
Q 2781 519 3026 730 
Q 3272 941 3272 1375 
Q 3272 1813 3026 2020 
Q 2781 2228 2272 2228 
L 1259 2228 
z
M 1259 4147 
L 1259 2741 
L 2194 2741 
Q 2656 2741 2882 2914 
Q 3109 3088 3109 3444 
Q 3109 3797 2882 3972 
Q 2656 4147 2194 4147 
L 1259 4147 
z
M 628 4666 
L 2241 4666 
Q 2963 4666 3353 4366 
Q 3744 4066 3744 3513 
Q 3744 3084 3544 2831 
Q 3344 2578 2956 2516 
Q 3422 2416 3680 2098 
Q 3938 1781 3938 1306 
Q 3938 681 3513 340 
Q 3088 0 2303 0 
L 628 0 
L 628 4666 
z
" transform="scale(0.015625)"/>
     </defs>
     <use xlink:href="#DejaVuSans-31"/>
     <use xlink:href="#DejaVuSans-32" x="63.623047"/>
     <use xlink:href="#DejaVuSans-20" x="127.246094"/>
     <use xlink:href="#DejaVuSans-42" x="159.033203"/>
     <use xlink:href="#DejaVuSans-65" x="227.636719"/>
     <use xlink:href="#DejaVuSans-6e" x="289.160156"/>
     <use xlink:href="#DejaVuSans-74" x="352.539062"/>
     <use xlink:href="#DejaVuSans-20" x="391.748047"/>
     <use xlink:href="#DejaVuSans-63" x="423.535156"/>
     <use xlink:href="#DejaVuSans-69" x="478.515625"/>
     <use xlink:href="#DejaVuSans-67" x="506.298828"/>
     <use xlink:href="#DejaVuSans-61" x="569.775391"/>
     <use xlink:href="#DejaVuSans-72" x="631.054688"/>
    </g>
   </g>
  </g>
 </g>
 <defs>
  <clipPath id="p233119cc8f">
   <rect x="57.6" y="27.648" width="303.2064" height="271.296"/>
  </clipPath>
 </defs>
</svg>
