<?xml version="1.0" encoding="utf-8" standalone="no"?>
<!DOCTYPE svg PUBLIC "-//W3C//DTD SVG 1.1//EN"
  "http://www.w3.org/Graphics/SVG/1.1/DTD/svg11.dtd">
<svg xmlns:xlink="http://www.w3.org/1999/xlink" width="460.8pt" height="345.6pt" viewBox="0 0 460.8 345.6" xmlns="http://www.w3.org/2000/svg" version="1.1">
 <metadata>
  <rdf:RDF xmlns:dc="http://purl.org/dc/elements/1.1/" xmlns:cc="http://creativecommons.org/ns#" xmlns:rdf="http://www.w3.org/1999/02/22-rdf-syntax-ns#">
   <cc:Work>
    <dc:type rdf:resource="http://purl.org/dc/dcmitype/StillImage"/>
    <dc:date>2022-03-16T23:35:35.274547</dc:date>
    <dc:format>image/svg+xml</dc:format>
    <dc:creator>
     <cc:Agent>
      <dc:title>Matplotlib v3.5.1, https://matplotlib.org/</dc:title>
     </cc:Agent>
    </dc:creator>
   </cc:Work>
  </rdf:RDF>
 </metadata>
 <defs>
  <style type="text/css">*{stroke-linejoin: round; stroke-linecap: butt}</style>
 </defs>
 <g id="figure_1">
  <g id="patch_1">
   <path d="M 0 345.6 
L 460.8 345.6 
L 460.8 0 
L 0 0 
z
" style="fill: #ffffff"/>
  </g>
  <g id="axes_1">
   <g id="patch_2">
    <path d="M 57.6 298.944 
L 360.8064 298.944 
L 360.8064 27.648 
L 57.6 27.648 
z
" style="fill: #ffffff"/>
   </g>
   <g id="line2d_1">
    <path d="M 44.560826 298.944 
L 44.560826 282.985412 
L 65.227428 282.985412 
L 65.227428 277.665882 
L 83.678349 277.665882 
L 83.678349 272.346353 
L 98.933205 272.346353 
L 98.933205 267.026824 
L 115.747307 267.026824 
L 115.747307 261.707294 
L 125.526971 261.707294 
L 125.526971 256.387765 
L 150.221009 256.387765 
L 150.221009 251.068235 
L 170.681267 251.068235 
L 170.681267 245.748706 
L 171.603476 245.748706 
L 171.603476 240.429176 
L 186.816825 240.429176 
L 186.816825 235.109647 
L 203.160675 235.109647 
L 203.160675 229.790118 
L 204.752328 229.790118 
L 204.752328 224.470588 
L 210.76485 224.470588 
L 210.76485 219.151059 
L 214.79756 219.151059 
L 214.79756 213.831529 
L 226.509655 213.831529 
L 226.509655 208.512 
L 230.006457 208.512 
L 230.006457 203.192471 
L 230.025149 203.192471 
L 230.025149 197.872941 
L 233.67793 197.872941 
L 233.67793 192.553412 
L 233.81348 192.553412 
L 233.81348 187.233882 
L 233.852833 187.233882 
L 233.852833 181.914353 
L 233.949657 181.914353 
L 233.949657 176.594824 
L 234.032482 176.594824 
L 234.032482 171.275294 
L 234.202559 171.275294 
L 234.202559 165.955765 
L 234.378915 165.955765 
L 234.378915 160.636235 
L 234.432668 160.636235 
L 234.432668 155.316706 
L 234.845076 155.316706 
L 234.845076 144.677647 
L 234.845837 144.677647 
L 234.845837 139.358118 
L 234.846598 139.358118 
L 234.846598 128.719059 
L 234.847359 128.719059 
L 234.847359 54.245647 
L 234.84812 54.245647 
L 234.84812 48.926118 
L 234.848881 48.926118 
L 234.848881 27.648 
L 360.8064 27.648 
" style="fill: none; stroke: #f5deb3; stroke-width: 4; stroke-linecap: square"/>
   </g>
   <g id="line2d_2">
    <defs>
     <path id="m5a2dcf718f" d="M -0 7.778175 
L 7.778175 0 
L 0 -7.778175 
L -7.778175 -0 
z
" style="stroke: #f5deb3; stroke-width: 1.5; stroke-linejoin: miter"/>
    </defs>
    <g>
     <use xlink:href="#m5a2dcf718f" x="125.526971" y="261.707294" style="fill: #f5deb3; stroke: #f5deb3; stroke-width: 1.5; stroke-linejoin: miter"/>
     <use xlink:href="#m5a2dcf718f" x="214.79756" y="213.831529" style="fill: #f5deb3; stroke: #f5deb3; stroke-width: 1.5; stroke-linejoin: miter"/>
     <use xlink:href="#m5a2dcf718f" x="234.846598" y="128.719059" style="fill: #f5deb3; stroke: #f5deb3; stroke-width: 1.5; stroke-linejoin: miter"/>
     <use xlink:href="#m5a2dcf718f" x="234.848881" y="27.648" style="fill: #f5deb3; stroke: #f5deb3; stroke-width: 1.5; stroke-linejoin: miter"/>
     <use xlink:href="#m5a2dcf718f" x="234.848881" y="27.648" style="fill: #f5deb3; stroke: #f5deb3; stroke-width: 1.5; stroke-linejoin: miter"/>
     <use xlink:href="#m5a2dcf718f" x="360.8064" y="27.648" style="fill: #f5deb3; stroke: #f5deb3; stroke-width: 1.5; stroke-linejoin: miter"/>
    </g>
   </g>
   <g id="line2d_3">
    <path style="fill: none; stroke: #f5deb3; stroke-width: 4; stroke-linecap: square"/>
    <g/>
   </g>
   <g id="line2d_4">
    <path d="M 360.8064 27.648 
L 380.514816 33.07392 
" style="fill: none; stroke: #f5deb3; stroke-width: 4; stroke-linecap: square"/>
    <g>
     <use xlink:href="#m5a2dcf718f" x="360.8064" y="27.648" style="fill: #f5deb3; stroke: #f5deb3; stroke-width: 1.5; stroke-linejoin: miter"/>
     <use xlink:href="#m5a2dcf718f" x="380.514816" y="33.07392" style="fill: #f5deb3; stroke: #f5deb3; stroke-width: 1.5; stroke-linejoin: miter"/>
    </g>
   </g>
   <g id="matplotlib.axis_1">
    <g id="xtick_1">
     <g id="line2d_5">
      <path d="M 57.6 298.944 
L 57.6 27.648 
" clip-path="url(#p748d028a04)" style="fill: none; stroke: #b0b0b0; stroke-width: 0.8; stroke-linecap: square"/>
     </g>
     <g id="line2d_6">
      <defs>
       <path id="m69319e2632" d="M 0 0 
L 0 3.5 
" style="stroke: #000000; stroke-width: 0.8"/>
      </defs>
      <g>
       <use xlink:href="#m69319e2632" x="57.6" y="298.944" style="stroke: #000000; stroke-width: 0.8"/>
      </g>
     </g>
     <g id="text_1">
      <!-- 0 -->
      <g transform="translate(52.191875 318.861344)scale(0.17 -0.17)">
       <defs>
        <path id="DejaVuSans-30" d="M 2034 4250 
Q 1547 4250 1301 3770 
Q 1056 3291 1056 2328 
Q 1056 1369 1301 889 
Q 1547 409 2034 409 
Q 2525 409 2770 889 
Q 3016 1369 3016 2328 
Q 3016 3291 2770 3770 
Q 2525 4250 2034 4250 
z
M 2034 4750 
Q 2819 4750 3233 4129 
Q 3647 3509 3647 2328 
Q 3647 1150 3233 529 
Q 2819 -91 2034 -91 
Q 1250 -91 836 529 
Q 422 1150 422 2328 
Q 422 3509 836 4129 
Q 1250 4750 2034 4750 
z
" transform="scale(0.015625)"/>
       </defs>
       <use xlink:href="#DejaVuSans-30"/>
      </g>
     </g>
    </g>
    <g id="xtick_2">
     <g id="line2d_7">
      <path d="M 144.2304 298.944 
L 144.2304 27.648 
" clip-path="url(#p748d028a04)" style="fill: none; stroke: #b0b0b0; stroke-width: 0.8; stroke-linecap: square"/>
     </g>
     <g id="line2d_8">
      <g>
       <use xlink:href="#m69319e2632" x="144.2304" y="298.944" style="stroke: #000000; stroke-width: 0.8"/>
      </g>
     </g>
     <g id="text_2">
      <!-- 2 -->
      <g transform="translate(138.822275 318.861344)scale(0.17 -0.17)">
       <defs>
        <path id="DejaVuSans-32" d="M 1228 531 
L 3431 531 
L 3431 0 
L 469 0 
L 469 531 
Q 828 903 1448 1529 
Q 2069 2156 2228 2338 
Q 2531 2678 2651 2914 
Q 2772 3150 2772 3378 
Q 2772 3750 2511 3984 
Q 2250 4219 1831 4219 
Q 1534 4219 1204 4116 
Q 875 4013 500 3803 
L 500 4441 
Q 881 4594 1212 4672 
Q 1544 4750 1819 4750 
Q 2544 4750 2975 4387 
Q 3406 4025 3406 3419 
Q 3406 3131 3298 2873 
Q 3191 2616 2906 2266 
Q 2828 2175 2409 1742 
Q 1991 1309 1228 531 
z
" transform="scale(0.015625)"/>
       </defs>
       <use xlink:href="#DejaVuSans-32"/>
      </g>
     </g>
    </g>
    <g id="xtick_3">
     <g id="line2d_9">
      <path d="M 230.8608 298.944 
L 230.8608 27.648 
" clip-path="url(#p748d028a04)" style="fill: none; stroke: #b0b0b0; stroke-width: 0.8; stroke-linecap: square"/>
     </g>
     <g id="line2d_10">
      <g>
       <use xlink:href="#m69319e2632" x="230.8608" y="298.944" style="stroke: #000000; stroke-width: 0.8"/>
      </g>
     </g>
     <g id="text_3">
      <!-- 4 -->
      <g transform="translate(225.452675 318.861344)scale(0.17 -0.17)">
       <defs>
        <path id="DejaVuSans-34" d="M 2419 4116 
L 825 1625 
L 2419 1625 
L 2419 4116 
z
M 2253 4666 
L 3047 4666 
L 3047 1625 
L 3713 1625 
L 3713 1100 
L 3047 1100 
L 3047 0 
L 2419 0 
L 2419 1100 
L 313 1100 
L 313 1709 
L 2253 4666 
z
" transform="scale(0.015625)"/>
       </defs>
       <use xlink:href="#DejaVuSans-34"/>
      </g>
     </g>
    </g>
    <g id="xtick_4">
     <g id="line2d_11">
      <path d="M 317.4912 298.944 
L 317.4912 27.648 
" clip-path="url(#p748d028a04)" style="fill: none; stroke: #b0b0b0; stroke-width: 0.8; stroke-linecap: square"/>
     </g>
     <g id="line2d_12">
      <g>
       <use xlink:href="#m69319e2632" x="317.4912" y="298.944" style="stroke: #000000; stroke-width: 0.8"/>
      </g>
     </g>
     <g id="text_4">
      <!-- 6 -->
      <g transform="translate(312.083075 318.861344)scale(0.17 -0.17)">
       <defs>
        <path id="DejaVuSans-36" d="M 2113 2584 
Q 1688 2584 1439 2293 
Q 1191 2003 1191 1497 
Q 1191 994 1439 701 
Q 1688 409 2113 409 
Q 2538 409 2786 701 
Q 3034 994 3034 1497 
Q 3034 2003 2786 2293 
Q 2538 2584 2113 2584 
z
M 3366 4563 
L 3366 3988 
Q 3128 4100 2886 4159 
Q 2644 4219 2406 4219 
Q 1781 4219 1451 3797 
Q 1122 3375 1075 2522 
Q 1259 2794 1537 2939 
Q 1816 3084 2150 3084 
Q 2853 3084 3261 2657 
Q 3669 2231 3669 1497 
Q 3669 778 3244 343 
Q 2819 -91 2113 -91 
Q 1303 -91 875 529 
Q 447 1150 447 2328 
Q 447 3434 972 4092 
Q 1497 4750 2381 4750 
Q 2619 4750 2861 4703 
Q 3103 4656 3366 4563 
z
" transform="scale(0.015625)"/>
       </defs>
       <use xlink:href="#DejaVuSans-36"/>
      </g>
     </g>
    </g>
    <g id="xtick_5">
     <g id="line2d_13">
      <path d="M 100.9152 298.944 
L 100.9152 27.648 
" clip-path="url(#p748d028a04)" style="fill: none; stroke: #b0b0b0; stroke-width: 0.8; stroke-linecap: square"/>
     </g>
     <g id="line2d_14">
      <defs>
       <path id="maf19f68d76" d="M 0 0 
L 0 2 
" style="stroke: #000000; stroke-width: 0.6"/>
      </defs>
      <g>
       <use xlink:href="#maf19f68d76" x="100.9152" y="298.944" style="stroke: #000000; stroke-width: 0.6"/>
      </g>
     </g>
    </g>
    <g id="xtick_6">
     <g id="line2d_15">
      <path d="M 187.5456 298.944 
L 187.5456 27.648 
" clip-path="url(#p748d028a04)" style="fill: none; stroke: #b0b0b0; stroke-width: 0.8; stroke-linecap: square"/>
     </g>
     <g id="line2d_16">
      <g>
       <use xlink:href="#maf19f68d76" x="187.5456" y="298.944" style="stroke: #000000; stroke-width: 0.6"/>
      </g>
     </g>
    </g>
    <g id="xtick_7">
     <g id="line2d_17">
      <path d="M 274.176 298.944 
L 274.176 27.648 
" clip-path="url(#p748d028a04)" style="fill: none; stroke: #b0b0b0; stroke-width: 0.8; stroke-linecap: square"/>
     </g>
     <g id="line2d_18">
      <g>
       <use xlink:href="#maf19f68d76" x="274.176" y="298.944" style="stroke: #000000; stroke-width: 0.6"/>
      </g>
     </g>
    </g>
    <g id="xtick_8">
     <g id="line2d_19">
      <path d="M 360.8064 298.944 
L 360.8064 27.648 
" clip-path="url(#p748d028a04)" style="fill: none; stroke: #b0b0b0; stroke-width: 0.8; stroke-linecap: square"/>
     </g>
     <g id="line2d_20">
      <g>
       <use xlink:href="#maf19f68d76" x="360.8064" y="298.944" style="stroke: #000000; stroke-width: 0.6"/>
      </g>
     </g>
    </g>
    <g id="text_5">
     <!-- log10(# f-evals / dimension) -->
     <g transform="translate(88.823278 339.314156)scale(0.17 -0.17)">
      <defs>
       <path id="DejaVuSans-6c" d="M 603 4863 
L 1178 4863 
L 1178 0 
L 603 0 
L 603 4863 
z
" transform="scale(0.015625)"/>
       <path id="DejaVuSans-6f" d="M 1959 3097 
Q 1497 3097 1228 2736 
Q 959 2375 959 1747 
Q 959 1119 1226 758 
Q 1494 397 1959 397 
Q 2419 397 2687 759 
Q 2956 1122 2956 1747 
Q 2956 2369 2687 2733 
Q 2419 3097 1959 3097 
z
M 1959 3584 
Q 2709 3584 3137 3096 
Q 3566 2609 3566 1747 
Q 3566 888 3137 398 
Q 2709 -91 1959 -91 
Q 1206 -91 779 398 
Q 353 888 353 1747 
Q 353 2609 779 3096 
Q 1206 3584 1959 3584 
z
" transform="scale(0.015625)"/>
       <path id="DejaVuSans-67" d="M 2906 1791 
Q 2906 2416 2648 2759 
Q 2391 3103 1925 3103 
Q 1463 3103 1205 2759 
Q 947 2416 947 1791 
Q 947 1169 1205 825 
Q 1463 481 1925 481 
Q 2391 481 2648 825 
Q 2906 1169 2906 1791 
z
M 3481 434 
Q 3481 -459 3084 -895 
Q 2688 -1331 1869 -1331 
Q 1566 -1331 1297 -1286 
Q 1028 -1241 775 -1147 
L 775 -588 
Q 1028 -725 1275 -790 
Q 1522 -856 1778 -856 
Q 2344 -856 2625 -561 
Q 2906 -266 2906 331 
L 2906 616 
Q 2728 306 2450 153 
Q 2172 0 1784 0 
Q 1141 0 747 490 
Q 353 981 353 1791 
Q 353 2603 747 3093 
Q 1141 3584 1784 3584 
Q 2172 3584 2450 3431 
Q 2728 3278 2906 2969 
L 2906 3500 
L 3481 3500 
L 3481 434 
z
" transform="scale(0.015625)"/>
       <path id="DejaVuSans-31" d="M 794 531 
L 1825 531 
L 1825 4091 
L 703 3866 
L 703 4441 
L 1819 4666 
L 2450 4666 
L 2450 531 
L 3481 531 
L 3481 0 
L 794 0 
L 794 531 
z
" transform="scale(0.015625)"/>
       <path id="DejaVuSans-28" d="M 1984 4856 
Q 1566 4138 1362 3434 
Q 1159 2731 1159 2009 
Q 1159 1288 1364 580 
Q 1569 -128 1984 -844 
L 1484 -844 
Q 1016 -109 783 600 
Q 550 1309 550 2009 
Q 550 2706 781 3412 
Q 1013 4119 1484 4856 
L 1984 4856 
z
" transform="scale(0.015625)"/>
       <path id="DejaVuSans-23" d="M 3272 2816 
L 2363 2816 
L 2100 1772 
L 3016 1772 
L 3272 2816 
z
M 2803 4594 
L 2478 3297 
L 3391 3297 
L 3719 4594 
L 4219 4594 
L 3897 3297 
L 4872 3297 
L 4872 2816 
L 3775 2816 
L 3519 1772 
L 4513 1772 
L 4513 1294 
L 3397 1294 
L 3072 0 
L 2572 0 
L 2894 1294 
L 1978 1294 
L 1656 0 
L 1153 0 
L 1478 1294 
L 494 1294 
L 494 1772 
L 1594 1772 
L 1856 2816 
L 850 2816 
L 850 3297 
L 1978 3297 
L 2297 4594 
L 2803 4594 
z
" transform="scale(0.015625)"/>
       <path id="DejaVuSans-20" transform="scale(0.015625)"/>
       <path id="DejaVuSans-66" d="M 2375 4863 
L 2375 4384 
L 1825 4384 
Q 1516 4384 1395 4259 
Q 1275 4134 1275 3809 
L 1275 3500 
L 2222 3500 
L 2222 3053 
L 1275 3053 
L 1275 0 
L 697 0 
L 697 3053 
L 147 3053 
L 147 3500 
L 697 3500 
L 697 3744 
Q 697 4328 969 4595 
Q 1241 4863 1831 4863 
L 2375 4863 
z
" transform="scale(0.015625)"/>
       <path id="DejaVuSans-2d" d="M 313 2009 
L 1997 2009 
L 1997 1497 
L 313 1497 
L 313 2009 
z
" transform="scale(0.015625)"/>
       <path id="DejaVuSans-65" d="M 3597 1894 
L 3597 1613 
L 953 1613 
Q 991 1019 1311 708 
Q 1631 397 2203 397 
Q 2534 397 2845 478 
Q 3156 559 3463 722 
L 3463 178 
Q 3153 47 2828 -22 
Q 2503 -91 2169 -91 
Q 1331 -91 842 396 
Q 353 884 353 1716 
Q 353 2575 817 3079 
Q 1281 3584 2069 3584 
Q 2775 3584 3186 3129 
Q 3597 2675 3597 1894 
z
M 3022 2063 
Q 3016 2534 2758 2815 
Q 2500 3097 2075 3097 
Q 1594 3097 1305 2825 
Q 1016 2553 972 2059 
L 3022 2063 
z
" transform="scale(0.015625)"/>
       <path id="DejaVuSans-76" d="M 191 3500 
L 800 3500 
L 1894 563 
L 2988 3500 
L 3597 3500 
L 2284 0 
L 1503 0 
L 191 3500 
z
" transform="scale(0.015625)"/>
       <path id="DejaVuSans-61" d="M 2194 1759 
Q 1497 1759 1228 1600 
Q 959 1441 959 1056 
Q 959 750 1161 570 
Q 1363 391 1709 391 
Q 2188 391 2477 730 
Q 2766 1069 2766 1631 
L 2766 1759 
L 2194 1759 
z
M 3341 1997 
L 3341 0 
L 2766 0 
L 2766 531 
Q 2569 213 2275 61 
Q 1981 -91 1556 -91 
Q 1019 -91 701 211 
Q 384 513 384 1019 
Q 384 1609 779 1909 
Q 1175 2209 1959 2209 
L 2766 2209 
L 2766 2266 
Q 2766 2663 2505 2880 
Q 2244 3097 1772 3097 
Q 1472 3097 1187 3025 
Q 903 2953 641 2809 
L 641 3341 
Q 956 3463 1253 3523 
Q 1550 3584 1831 3584 
Q 2591 3584 2966 3190 
Q 3341 2797 3341 1997 
z
" transform="scale(0.015625)"/>
       <path id="DejaVuSans-73" d="M 2834 3397 
L 2834 2853 
Q 2591 2978 2328 3040 
Q 2066 3103 1784 3103 
Q 1356 3103 1142 2972 
Q 928 2841 928 2578 
Q 928 2378 1081 2264 
Q 1234 2150 1697 2047 
L 1894 2003 
Q 2506 1872 2764 1633 
Q 3022 1394 3022 966 
Q 3022 478 2636 193 
Q 2250 -91 1575 -91 
Q 1294 -91 989 -36 
Q 684 19 347 128 
L 347 722 
Q 666 556 975 473 
Q 1284 391 1588 391 
Q 1994 391 2212 530 
Q 2431 669 2431 922 
Q 2431 1156 2273 1281 
Q 2116 1406 1581 1522 
L 1381 1569 
Q 847 1681 609 1914 
Q 372 2147 372 2553 
Q 372 3047 722 3315 
Q 1072 3584 1716 3584 
Q 2034 3584 2315 3537 
Q 2597 3491 2834 3397 
z
" transform="scale(0.015625)"/>
       <path id="DejaVuSans-2f" d="M 1625 4666 
L 2156 4666 
L 531 -594 
L 0 -594 
L 1625 4666 
z
" transform="scale(0.015625)"/>
       <path id="DejaVuSans-64" d="M 2906 2969 
L 2906 4863 
L 3481 4863 
L 3481 0 
L 2906 0 
L 2906 525 
Q 2725 213 2448 61 
Q 2172 -91 1784 -91 
Q 1150 -91 751 415 
Q 353 922 353 1747 
Q 353 2572 751 3078 
Q 1150 3584 1784 3584 
Q 2172 3584 2448 3432 
Q 2725 3281 2906 2969 
z
M 947 1747 
Q 947 1113 1208 752 
Q 1469 391 1925 391 
Q 2381 391 2643 752 
Q 2906 1113 2906 1747 
Q 2906 2381 2643 2742 
Q 2381 3103 1925 3103 
Q 1469 3103 1208 2742 
Q 947 2381 947 1747 
z
" transform="scale(0.015625)"/>
       <path id="DejaVuSans-69" d="M 603 3500 
L 1178 3500 
L 1178 0 
L 603 0 
L 603 3500 
z
M 603 4863 
L 1178 4863 
L 1178 4134 
L 603 4134 
L 603 4863 
z
" transform="scale(0.015625)"/>
       <path id="DejaVuSans-6d" d="M 3328 2828 
Q 3544 3216 3844 3400 
Q 4144 3584 4550 3584 
Q 5097 3584 5394 3201 
Q 5691 2819 5691 2113 
L 5691 0 
L 5113 0 
L 5113 2094 
Q 5113 2597 4934 2840 
Q 4756 3084 4391 3084 
Q 3944 3084 3684 2787 
Q 3425 2491 3425 1978 
L 3425 0 
L 2847 0 
L 2847 2094 
Q 2847 2600 2669 2842 
Q 2491 3084 2119 3084 
Q 1678 3084 1418 2786 
Q 1159 2488 1159 1978 
L 1159 0 
L 581 0 
L 581 3500 
L 1159 3500 
L 1159 2956 
Q 1356 3278 1631 3431 
Q 1906 3584 2284 3584 
Q 2666 3584 2933 3390 
Q 3200 3197 3328 2828 
z
" transform="scale(0.015625)"/>
       <path id="DejaVuSans-6e" d="M 3513 2113 
L 3513 0 
L 2938 0 
L 2938 2094 
Q 2938 2591 2744 2837 
Q 2550 3084 2163 3084 
Q 1697 3084 1428 2787 
Q 1159 2491 1159 1978 
L 1159 0 
L 581 0 
L 581 3500 
L 1159 3500 
L 1159 2956 
Q 1366 3272 1645 3428 
Q 1925 3584 2291 3584 
Q 2894 3584 3203 3211 
Q 3513 2838 3513 2113 
z
" transform="scale(0.015625)"/>
       <path id="DejaVuSans-29" d="M 513 4856 
L 1013 4856 
Q 1481 4119 1714 3412 
Q 1947 2706 1947 2009 
Q 1947 1309 1714 600 
Q 1481 -109 1013 -844 
L 513 -844 
Q 928 -128 1133 580 
Q 1338 1288 1338 2009 
Q 1338 2731 1133 3434 
Q 928 4138 513 4856 
z
" transform="scale(0.015625)"/>
      </defs>
      <use xlink:href="#DejaVuSans-6c"/>
      <use xlink:href="#DejaVuSans-6f" x="27.783203"/>
      <use xlink:href="#DejaVuSans-67" x="88.964844"/>
      <use xlink:href="#DejaVuSans-31" x="152.441406"/>
      <use xlink:href="#DejaVuSans-30" x="216.064453"/>
      <use xlink:href="#DejaVuSans-28" x="279.6875"/>
      <use xlink:href="#DejaVuSans-23" x="318.701172"/>
      <use xlink:href="#DejaVuSans-20" x="402.490234"/>
      <use xlink:href="#DejaVuSans-66" x="434.277344"/>
      <use xlink:href="#DejaVuSans-2d" x="463.982422"/>
      <use xlink:href="#DejaVuSans-65" x="500.066406"/>
      <use xlink:href="#DejaVuSans-76" x="561.589844"/>
      <use xlink:href="#DejaVuSans-61" x="620.769531"/>
      <use xlink:href="#DejaVuSans-6c" x="682.048828"/>
      <use xlink:href="#DejaVuSans-73" x="709.832031"/>
      <use xlink:href="#DejaVuSans-20" x="761.931641"/>
      <use xlink:href="#DejaVuSans-2f" x="793.71875"/>
      <use xlink:href="#DejaVuSans-20" x="827.410156"/>
      <use xlink:href="#DejaVuSans-64" x="859.197266"/>
      <use xlink:href="#DejaVuSans-69" x="922.673828"/>
      <use xlink:href="#DejaVuSans-6d" x="950.457031"/>
      <use xlink:href="#DejaVuSans-65" x="1047.869141"/>
      <use xlink:href="#DejaVuSans-6e" x="1109.392578"/>
      <use xlink:href="#DejaVuSans-73" x="1172.771484"/>
      <use xlink:href="#DejaVuSans-69" x="1224.871094"/>
      <use xlink:href="#DejaVuSans-6f" x="1252.654297"/>
      <use xlink:href="#DejaVuSans-6e" x="1313.835938"/>
      <use xlink:href="#DejaVuSans-29" x="1377.214844"/>
     </g>
    </g>
   </g>
   <g id="matplotlib.axis_2">
    <g id="ytick_1">
     <g id="line2d_21">
      <path d="M 57.6 298.944 
L 360.8064 298.944 
" clip-path="url(#p748d028a04)" style="fill: none; stroke: #b0b0b0; stroke-width: 0.8; stroke-linecap: square"/>
     </g>
     <g id="line2d_22">
      <defs>
       <path id="mc90266ade6" d="M 0 0 
L -3.5 0 
" style="stroke: #000000; stroke-width: 0.8"/>
      </defs>
      <g>
       <use xlink:href="#mc90266ade6" x="57.6" y="298.944" style="stroke: #000000; stroke-width: 0.8"/>
      </g>
     </g>
     <g id="text_6">
      <!-- 0.0 -->
      <g transform="translate(25.155 305.02275)scale(0.16 -0.16)">
       <defs>
        <path id="DejaVuSans-2e" d="M 684 794 
L 1344 794 
L 1344 0 
L 684 0 
L 684 794 
z
" transform="scale(0.015625)"/>
       </defs>
       <use xlink:href="#DejaVuSans-30"/>
       <use xlink:href="#DejaVuSans-2e" x="63.623047"/>
       <use xlink:href="#DejaVuSans-30" x="95.410156"/>
      </g>
     </g>
    </g>
    <g id="ytick_2">
     <g id="line2d_23">
      <path d="M 57.6 244.6848 
L 360.8064 244.6848 
" clip-path="url(#p748d028a04)" style="fill: none; stroke: #b0b0b0; stroke-width: 0.8; stroke-linecap: square"/>
     </g>
     <g id="line2d_24">
      <g>
       <use xlink:href="#mc90266ade6" x="57.6" y="244.6848" style="stroke: #000000; stroke-width: 0.8"/>
      </g>
     </g>
     <g id="text_7">
      <!-- 0.2 -->
      <g transform="translate(25.155 250.76355)scale(0.16 -0.16)">
       <use xlink:href="#DejaVuSans-30"/>
       <use xlink:href="#DejaVuSans-2e" x="63.623047"/>
       <use xlink:href="#DejaVuSans-32" x="95.410156"/>
      </g>
     </g>
    </g>
    <g id="ytick_3">
     <g id="line2d_25">
      <path d="M 57.6 190.4256 
L 360.8064 190.4256 
" clip-path="url(#p748d028a04)" style="fill: none; stroke: #b0b0b0; stroke-width: 0.8; stroke-linecap: square"/>
     </g>
     <g id="line2d_26">
      <g>
       <use xlink:href="#mc90266ade6" x="57.6" y="190.4256" style="stroke: #000000; stroke-width: 0.8"/>
      </g>
     </g>
     <g id="text_8">
      <!-- 0.4 -->
      <g transform="translate(25.155 196.50435)scale(0.16 -0.16)">
       <use xlink:href="#DejaVuSans-30"/>
       <use xlink:href="#DejaVuSans-2e" x="63.623047"/>
       <use xlink:href="#DejaVuSans-34" x="95.410156"/>
      </g>
     </g>
    </g>
    <g id="ytick_4">
     <g id="line2d_27">
      <path d="M 57.6 136.1664 
L 360.8064 136.1664 
" clip-path="url(#p748d028a04)" style="fill: none; stroke: #b0b0b0; stroke-width: 0.8; stroke-linecap: square"/>
     </g>
     <g id="line2d_28">
      <g>
       <use xlink:href="#mc90266ade6" x="57.6" y="136.1664" style="stroke: #000000; stroke-width: 0.8"/>
      </g>
     </g>
     <g id="text_9">
      <!-- 0.6 -->
      <g transform="translate(25.155 142.24515)scale(0.16 -0.16)">
       <use xlink:href="#DejaVuSans-30"/>
       <use xlink:href="#DejaVuSans-2e" x="63.623047"/>
       <use xlink:href="#DejaVuSans-36" x="95.410156"/>
      </g>
     </g>
    </g>
    <g id="ytick_5">
     <g id="line2d_29">
      <path d="M 57.6 81.9072 
L 360.8064 81.9072 
" clip-path="url(#p748d028a04)" style="fill: none; stroke: #b0b0b0; stroke-width: 0.8; stroke-linecap: square"/>
     </g>
     <g id="line2d_30">
      <g>
       <use xlink:href="#mc90266ade6" x="57.6" y="81.9072" style="stroke: #000000; stroke-width: 0.8"/>
      </g>
     </g>
     <g id="text_10">
      <!-- 0.8 -->
      <g transform="translate(25.155 87.98595)scale(0.16 -0.16)">
       <defs>
        <path id="DejaVuSans-38" d="M 2034 2216 
Q 1584 2216 1326 1975 
Q 1069 1734 1069 1313 
Q 1069 891 1326 650 
Q 1584 409 2034 409 
Q 2484 409 2743 651 
Q 3003 894 3003 1313 
Q 3003 1734 2745 1975 
Q 2488 2216 2034 2216 
z
M 1403 2484 
Q 997 2584 770 2862 
Q 544 3141 544 3541 
Q 544 4100 942 4425 
Q 1341 4750 2034 4750 
Q 2731 4750 3128 4425 
Q 3525 4100 3525 3541 
Q 3525 3141 3298 2862 
Q 3072 2584 2669 2484 
Q 3125 2378 3379 2068 
Q 3634 1759 3634 1313 
Q 3634 634 3220 271 
Q 2806 -91 2034 -91 
Q 1263 -91 848 271 
Q 434 634 434 1313 
Q 434 1759 690 2068 
Q 947 2378 1403 2484 
z
M 1172 3481 
Q 1172 3119 1398 2916 
Q 1625 2713 2034 2713 
Q 2441 2713 2670 2916 
Q 2900 3119 2900 3481 
Q 2900 3844 2670 4047 
Q 2441 4250 2034 4250 
Q 1625 4250 1398 4047 
Q 1172 3844 1172 3481 
z
" transform="scale(0.015625)"/>
       </defs>
       <use xlink:href="#DejaVuSans-30"/>
       <use xlink:href="#DejaVuSans-2e" x="63.623047"/>
       <use xlink:href="#DejaVuSans-38" x="95.410156"/>
      </g>
     </g>
    </g>
    <g id="ytick_6">
     <g id="line2d_31">
      <path d="M 57.6 27.648 
L 360.8064 27.648 
" clip-path="url(#p748d028a04)" style="fill: none; stroke: #b0b0b0; stroke-width: 0.8; stroke-linecap: square"/>
     </g>
     <g id="line2d_32">
      <g>
       <use xlink:href="#mc90266ade6" x="57.6" y="27.648" style="stroke: #000000; stroke-width: 0.8"/>
      </g>
     </g>
     <g id="text_11">
      <!-- 1.0 -->
      <g transform="translate(25.155 33.72675)scale(0.16 -0.16)">
       <use xlink:href="#DejaVuSans-31"/>
       <use xlink:href="#DejaVuSans-2e" x="63.623047"/>
       <use xlink:href="#DejaVuSans-30" x="95.410156"/>
      </g>
     </g>
    </g>
    <g id="text_12">
     <!-- Fraction of function,target pairs -->
     <g transform="translate(17.619531 297.681)rotate(-90)scale(0.17 -0.17)">
      <defs>
       <path id="DejaVuSans-46" d="M 628 4666 
L 3309 4666 
L 3309 4134 
L 1259 4134 
L 1259 2759 
L 3109 2759 
L 3109 2228 
L 1259 2228 
L 1259 0 
L 628 0 
L 628 4666 
z
" transform="scale(0.015625)"/>
       <path id="DejaVuSans-72" d="M 2631 2963 
Q 2534 3019 2420 3045 
Q 2306 3072 2169 3072 
Q 1681 3072 1420 2755 
Q 1159 2438 1159 1844 
L 1159 0 
L 581 0 
L 581 3500 
L 1159 3500 
L 1159 2956 
Q 1341 3275 1631 3429 
Q 1922 3584 2338 3584 
Q 2397 3584 2469 3576 
Q 2541 3569 2628 3553 
L 2631 2963 
z
" transform="scale(0.015625)"/>
       <path id="DejaVuSans-63" d="M 3122 3366 
L 3122 2828 
Q 2878 2963 2633 3030 
Q 2388 3097 2138 3097 
Q 1578 3097 1268 2742 
Q 959 2388 959 1747 
Q 959 1106 1268 751 
Q 1578 397 2138 397 
Q 2388 397 2633 464 
Q 2878 531 3122 666 
L 3122 134 
Q 2881 22 2623 -34 
Q 2366 -91 2075 -91 
Q 1284 -91 818 406 
Q 353 903 353 1747 
Q 353 2603 823 3093 
Q 1294 3584 2113 3584 
Q 2378 3584 2631 3529 
Q 2884 3475 3122 3366 
z
" transform="scale(0.015625)"/>
       <path id="DejaVuSans-74" d="M 1172 4494 
L 1172 3500 
L 2356 3500 
L 2356 3053 
L 1172 3053 
L 1172 1153 
Q 1172 725 1289 603 
Q 1406 481 1766 481 
L 2356 481 
L 2356 0 
L 1766 0 
Q 1100 0 847 248 
Q 594 497 594 1153 
L 594 3053 
L 172 3053 
L 172 3500 
L 594 3500 
L 594 4494 
L 1172 4494 
z
" transform="scale(0.015625)"/>
       <path id="DejaVuSans-75" d="M 544 1381 
L 544 3500 
L 1119 3500 
L 1119 1403 
Q 1119 906 1312 657 
Q 1506 409 1894 409 
Q 2359 409 2629 706 
Q 2900 1003 2900 1516 
L 2900 3500 
L 3475 3500 
L 3475 0 
L 2900 0 
L 2900 538 
Q 2691 219 2414 64 
Q 2138 -91 1772 -91 
Q 1169 -91 856 284 
Q 544 659 544 1381 
z
M 1991 3584 
L 1991 3584 
z
" transform="scale(0.015625)"/>
       <path id="DejaVuSans-2c" d="M 750 794 
L 1409 794 
L 1409 256 
L 897 -744 
L 494 -744 
L 750 256 
L 750 794 
z
" transform="scale(0.015625)"/>
       <path id="DejaVuSans-70" d="M 1159 525 
L 1159 -1331 
L 581 -1331 
L 581 3500 
L 1159 3500 
L 1159 2969 
Q 1341 3281 1617 3432 
Q 1894 3584 2278 3584 
Q 2916 3584 3314 3078 
Q 3713 2572 3713 1747 
Q 3713 922 3314 415 
Q 2916 -91 2278 -91 
Q 1894 -91 1617 61 
Q 1341 213 1159 525 
z
M 3116 1747 
Q 3116 2381 2855 2742 
Q 2594 3103 2138 3103 
Q 1681 3103 1420 2742 
Q 1159 2381 1159 1747 
Q 1159 1113 1420 752 
Q 1681 391 2138 391 
Q 2594 391 2855 752 
Q 3116 1113 3116 1747 
z
" transform="scale(0.015625)"/>
      </defs>
      <use xlink:href="#DejaVuSans-46"/>
      <use xlink:href="#DejaVuSans-72" x="50.269531"/>
      <use xlink:href="#DejaVuSans-61" x="91.382812"/>
      <use xlink:href="#DejaVuSans-63" x="152.662109"/>
      <use xlink:href="#DejaVuSans-74" x="207.642578"/>
      <use xlink:href="#DejaVuSans-69" x="246.851562"/>
      <use xlink:href="#DejaVuSans-6f" x="274.634766"/>
      <use xlink:href="#DejaVuSans-6e" x="335.816406"/>
      <use xlink:href="#DejaVuSans-20" x="399.195312"/>
      <use xlink:href="#DejaVuSans-6f" x="430.982422"/>
      <use xlink:href="#DejaVuSans-66" x="492.164062"/>
      <use xlink:href="#DejaVuSans-20" x="527.369141"/>
      <use xlink:href="#DejaVuSans-66" x="559.15625"/>
      <use xlink:href="#DejaVuSans-75" x="594.361328"/>
      <use xlink:href="#DejaVuSans-6e" x="657.740234"/>
      <use xlink:href="#DejaVuSans-63" x="721.119141"/>
      <use xlink:href="#DejaVuSans-74" x="776.099609"/>
      <use xlink:href="#DejaVuSans-69" x="815.308594"/>
      <use xlink:href="#DejaVuSans-6f" x="843.091797"/>
      <use xlink:href="#DejaVuSans-6e" x="904.273438"/>
      <use xlink:href="#DejaVuSans-2c" x="967.652344"/>
      <use xlink:href="#DejaVuSans-74" x="999.439453"/>
      <use xlink:href="#DejaVuSans-61" x="1038.648438"/>
      <use xlink:href="#DejaVuSans-72" x="1099.927734"/>
      <use xlink:href="#DejaVuSans-67" x="1139.291016"/>
      <use xlink:href="#DejaVuSans-65" x="1202.767578"/>
      <use xlink:href="#DejaVuSans-74" x="1264.291016"/>
      <use xlink:href="#DejaVuSans-20" x="1303.5"/>
      <use xlink:href="#DejaVuSans-70" x="1335.287109"/>
      <use xlink:href="#DejaVuSans-61" x="1398.763672"/>
      <use xlink:href="#DejaVuSans-69" x="1460.042969"/>
      <use xlink:href="#DejaVuSans-72" x="1487.826172"/>
      <use xlink:href="#DejaVuSans-73" x="1528.939453"/>
     </g>
    </g>
   </g>
   <g id="line2d_33">
    <defs>
     <path id="m673fc070fc" d="M 0 1.5 
C 0.397805 1.5 0.77937 1.341951 1.06066 1.06066 
C 1.341951 0.77937 1.5 0.397805 1.5 0 
C 1.5 -0.397805 1.341951 -0.77937 1.06066 -1.06066 
C 0.77937 -1.341951 0.397805 -1.5 0 -1.5 
C -0.397805 -1.5 -0.77937 -1.341951 -1.06066 -1.06066 
C -1.341951 -0.77937 -1.5 -0.397805 -1.5 0 
C -1.5 0.397805 -1.341951 0.77937 -1.06066 1.06066 
C -0.77937 1.341951 -0.397805 1.5 0 1.5 
z
" style="stroke: #f5deb3"/>
    </defs>
    <g>
     <use xlink:href="#m673fc070fc" x="234.848881" y="27.648" style="fill: #f5deb3; stroke: #f5deb3"/>
     <use xlink:href="#m673fc070fc" x="234.848881" y="27.648" style="fill: #f5deb3; stroke: #f5deb3"/>
    </g>
   </g>
   <g id="line2d_34">
    <defs>
     <path id="m89b433c2a3" d="M 0 1.5 
C 0.397805 1.5 0.77937 1.341951 1.06066 1.06066 
C 1.341951 0.77937 1.5 0.397805 1.5 0 
C 1.5 -0.397805 1.341951 -0.77937 1.06066 -1.06066 
C 0.77937 -1.341951 0.397805 -1.5 0 -1.5 
C -0.397805 -1.5 -0.77937 -1.341951 -1.06066 -1.06066 
C -1.341951 -0.77937 -1.5 -0.397805 -1.5 0 
C -1.5 0.397805 -1.341951 0.77937 -1.06066 1.06066 
C -0.77937 1.341951 -0.397805 1.5 0 1.5 
z
" style="stroke: #000080"/>
    </defs>
    <g>
     <use xlink:href="#m89b433c2a3" x="292.122669" y="208.512" style="fill: #000080; stroke: #000080"/>
     <use xlink:href="#m89b433c2a3" x="292.122669" y="208.512" style="fill: #000080; stroke: #000080"/>
    </g>
   </g>
   <g id="line2d_35">
    <path d="M 44.560826 298.944 
L 44.560826 284.049318 
L 57.6 284.049318 
L 57.6 281.283162 
L 65.227428 281.283162 
L 65.227428 278.729788 
L 70.639174 278.729788 
L 70.639174 277.453101 
L 74.836851 277.453101 
L 74.836851 275.750852 
L 78.266603 275.750852 
L 78.266603 274.048602 
L 81.166416 274.048602 
L 81.166416 273.62304 
L 83.678349 273.62304 
L 83.678349 272.133572 
L 85.894031 272.133572 
L 85.894031 271.778936 
L 87.876026 271.778936 
L 87.876026 271.495228 
L 89.668958 271.495228 
L 89.668958 271.069666 
L 91.305777 271.069666 
L 91.305777 269.580198 
L 92.811505 269.580198 
L 92.811505 269.154635 
L 94.205591 269.154635 
L 94.205591 268.303511 
L 95.503454 268.303511 
L 95.503454 268.090729 
L 96.717523 268.090729 
L 96.717523 267.877948 
L 100.9152 267.807021 
L 100.9152 267.026824 
L 102.708132 267.026824 
L 102.708132 266.672188 
L 103.544339 266.672188 
L 103.544339 266.38848 
L 104.344952 266.38848 
L 104.344952 266.175699 
L 106.560633 266.175699 
L 106.560633 265.962918 
L 107.244765 265.962918 
L 107.244765 265.679209 
L 109.159456 265.608282 
L 109.159456 265.395501 
L 112.487797 265.324574 
L 112.487797 265.253647 
L 112.989468 265.253647 
L 112.989468 264.828085 
L 113.954374 264.828085 
L 113.954374 264.686231 
L 115.747307 264.686231 
L 115.747307 264.260668 
L 116.583514 264.260668 
L 116.583514 264.047887 
L 118.889854 263.97696 
L 118.889854 263.906033 
L 119.599808 263.835106 
L 119.599808 263.622325 
L 120.616896 263.622325 
L 120.616896 262.983981 
L 121.581803 262.983981 
L 121.581803 262.7712 
L 122.19863 262.7712 
L 122.19863 262.558419 
L 122.795872 262.558419 
L 122.795872 262.132856 
L 123.374735 262.061929 
L 123.374735 261.991002 
L 124.481616 261.991002 
L 124.481616 261.849148 
L 126.993549 261.849148 
L 126.993549 261.423586 
L 127.686077 261.423586 
L 127.686077 260.856169 
L 128.786481 260.785242 
L 128.786481 260.714315 
L 129.417095 260.714315 
L 129.417095 260.572461 
L 131.002163 260.501534 
L 131.002163 260.288753 
L 131.191226 260.288753 
L 131.191226 260.075972 
L 131.929028 260.075972 
L 131.929028 259.934118 
L 132.287354 259.934118 
L 132.287354 259.792264 
L 132.812362 259.792264 
L 132.812362 259.650409 
L 135.388902 259.579482 
L 135.388902 259.082993 
L 136.555884 259.012066 
L 136.555884 258.586504 
L 136.97549 258.586504 
L 136.97549 258.373722 
L 137.654681 258.373722 
L 137.654681 258.231868 
L 138.943648 258.160941 
L 138.943648 257.877233 
L 139.796097 257.877233 
L 139.796097 257.664452 
L 139.914782 257.664452 
L 139.914782 257.097035 
L 140.14993 257.097035 
L 140.14993 256.884254 
L 141.932237 256.813327 
L 141.932237 256.529619 
L 142.763822 256.529619 
L 142.865233 255.891275 
L 143.560197 255.820348 
L 143.657415 255.53664 
L 143.946089 255.53664 
L 143.946089 255.323859 
L 145.148219 255.252932 
L 145.148219 255.182005 
L 145.590864 255.111078 
L 145.590864 254.898296 
L 146.023332 254.827369 
L 146.023332 254.756442 
L 147.423525 254.685515 
L 147.423525 254.614588 
L 148.428077 254.543661 
L 148.428077 254.472734 
L 149.381693 254.472734 
L 149.381693 254.33088 
L 150.221009 254.259953 
L 150.221009 254.189026 
L 150.559965 254.189026 
L 150.559965 253.976245 
L 150.8268 253.976245 
L 150.8268 253.834391 
L 151.024471 253.763464 
L 151.089903 253.621609 
L 151.155108 253.621609 
L 151.155108 253.479755 
L 151.795018 253.408828 
L 151.795018 253.196047 
L 152.291722 253.12512 
L 152.291722 252.841412 
L 152.715833 252.841412 
L 152.715833 252.628631 
L 152.953957 252.628631 
L 152.953957 252.415849 
L 153.363556 252.344922 
L 153.363556 252.273995 
L 153.707679 252.273995 
L 153.707679 252.061214 
L 154.156931 251.990287 
L 154.212341 251.706579 
L 154.649839 251.635652 
L 154.757642 251.493798 
L 155.547053 251.493798 
L 155.547053 251.351944 
L 156.452597 251.281016 
L 156.452597 251.068235 
L 157.642093 250.997308 
L 157.642093 250.926381 
L 158.410018 250.855454 
L 158.410018 250.784527 
L 161.654432 250.7136 
L 161.654432 250.642673 
L 162.349204 250.571746 
L 162.349204 250.500819 
L 163.157294 250.429892 
L 163.260183 250.288038 
L 163.699647 250.217111 
L 163.699647 250.146184 
L 163.96507 250.075256 
L 163.997986 249.933402 
L 166.489353 249.862475 
L 166.489353 249.791548 
L 168.404973 249.791548 
L 168.404973 249.578767 
L 168.867575 249.50784 
L 168.867575 249.295059 
L 169.044448 249.295059 
L 169.06958 248.940424 
L 169.244573 248.940424 
L 169.269439 248.656715 
L 169.589749 248.585788 
L 169.589749 247.947445 
L 170.214455 247.876518 
L 170.214455 247.734664 
L 170.402572 247.663736 
L 170.425955 247.025393 
L 170.588827 246.954466 
L 170.61198 246.812612 
L 171.603476 246.741685 
L 171.603476 246.670758 
L 172.732295 246.599831 
L 172.732295 246.387049 
L 173.262233 246.316122 
L 173.262233 246.245195 
L 173.991531 246.174268 
L 174.049442 245.748706 
L 174.355328 245.677779 
L 174.431028 244.826654 
L 174.525228 244.755727 
L 174.544011 244.542946 
L 174.860492 244.472019 
L 174.878944 244.259238 
L 175.691079 244.188311 
L 175.691079 243.975529 
L 176.282249 243.904602 
L 176.36764 243.762748 
L 177.904798 243.691821 
L 177.983147 243.195332 
L 178.09229 243.195332 
L 178.18534 242.840696 
L 178.339408 242.840696 
L 178.339408 242.698842 
L 178.583321 242.627915 
L 178.583321 242.556988 
L 178.987886 242.556988 
L 178.987886 242.131426 
L 179.179617 242.060499 
L 179.179617 241.634936 
L 179.485266 241.564009 
L 179.485266 241.422155 
L 179.786028 241.351228 
L 179.786028 241.280301 
L 180.040051 241.209374 
L 180.040051 241.138447 
L 181.817686 241.06752 
L 181.919439 240.783812 
L 182.283747 240.712885 
L 182.283747 240.641958 
L 182.919829 240.571031 
L 182.919829 240.500104 
L 184.565667 240.429176 
L 184.598699 240.287322 
L 185.268681 240.216395 
L 185.268681 240.145468 
L 187.328014 240.074541 
L 187.403982 239.294344 
L 187.460757 239.294344 
L 187.536192 238.939708 
L 187.64878 238.868781 
L 187.64878 238.726927 
L 188.192744 238.656 
L 188.210911 238.301365 
L 188.328568 238.301365 
L 188.328568 238.088584 
L 188.499216 238.017656 
L 188.606202 237.875802 
L 188.958488 237.804875 
L 189.028161 237.45024 
L 189.192606 237.45024 
L 189.192606 237.095605 
L 189.415332 237.024678 
L 189.415332 236.953751 
L 189.977413 236.882824 
L 190.068111 236.740969 
L 190.555274 236.670042 
L 190.555274 236.599115 
L 191.069175 236.528188 
L 191.069175 236.457261 
L 191.478054 236.386334 
L 191.478054 236.315407 
L 191.982536 236.24448 
L 192.086263 235.889845 
L 192.62523 235.818918 
L 192.62523 235.747991 
L 193.686103 235.677064 
L 193.740315 235.535209 
L 194.81856 235.464282 
L 194.81856 235.393355 
L 195.116509 235.322428 
L 195.166757 235.180574 
L 195.341575 235.109647 
L 195.341575 235.03872 
L 196.834391 234.967793 
L 196.891708 234.684085 
L 197.000132 234.613158 
L 197.096617 234.471304 
L 198.291925 234.400376 
L 198.334377 233.478325 
L 198.424271 233.478325 
L 198.434818 233.123689 
L 198.56093 233.123689 
L 198.597553 232.839981 
L 199.229718 232.769054 
L 199.229718 232.556273 
L 199.360669 232.485346 
L 199.39577 232.343492 
L 199.48573 232.272565 
L 199.48573 232.201638 
L 199.693978 232.130711 
L 199.693978 232.059784 
L 200.547114 231.988856 
L 200.589477 231.776075 
L 200.767299 231.776075 
L 200.864852 230.924951 
L 200.888005 230.924951 
L 200.984936 230.499388 
L 201.017136 230.499388 
L 201.017136 230.357534 
L 201.131687 230.357534 
L 201.168197 229.364555 
L 201.286366 229.364555 
L 201.358718 228.938993 
L 201.831149 228.868066 
L 201.910208 228.655285 
L 201.98457 228.584358 
L 202.093396 228.087868 
L 202.162715 228.016941 
L 202.162715 227.946014 
L 202.403342 227.875087 
L 202.484288 227.733233 
L 202.683041 227.662306 
L 202.683041 227.591379 
L 202.958642 227.591379 
L 203.066114 227.236744 
L 203.279232 227.165816 
L 203.279232 227.094889 
L 203.998843 227.023962 
L 203.998843 226.953035 
L 205.87148 226.882108 
L 205.87148 226.811181 
L 206.167398 226.740254 
L 206.167398 226.669327 
L 206.769336 226.5984 
L 206.853776 226.314692 
L 207.431209 226.243765 
L 207.457337 226.101911 
L 208.092684 226.030984 
L 208.092684 225.960056 
L 208.299786 225.889129 
L 208.405591 225.605421 
L 208.424201 225.605421 
L 208.52006 225.321713 
L 208.603154 225.250786 
L 208.661409 225.038005 
L 209.028224 224.967078 
L 209.028224 224.896151 
L 209.385077 224.825224 
L 209.405686 224.683369 
L 209.610543 224.612442 
L 209.70635 224.470588 
L 210.522401 224.399661 
L 210.577778 224.257807 
L 211.455531 224.18688 
L 211.455531 224.115953 
L 213.885484 224.045026 
L 213.994162 223.903172 
L 214.058608 223.832245 
L 214.058608 223.761318 
L 214.302873 223.690391 
L 214.391122 223.548536 
L 214.424953 223.548536 
L 214.424953 223.406682 
L 214.582035 223.335755 
L 214.628905 223.122974 
L 216.401765 223.052047 
L 216.401765 222.98112 
L 216.799206 222.98112 
L 216.850778 222.555558 
L 217.355003 222.484631 
L 217.355003 222.413704 
L 217.999492 222.342776 
L 217.999492 222.271849 
L 218.483304 222.200922 
L 218.483304 222.129995 
L 221.133436 222.059068 
L 221.135013 221.917214 
L 222.080903 221.846287 
L 222.173674 221.704433 
L 226.974451 221.633506 
L 226.974451 221.562579 
L 232.652877 221.491652 
L 232.760314 221.278871 
L 233.73695 221.207944 
L 233.751474 221.066089 
L 233.944868 220.995162 
L 233.944868 220.924235 
L 234.122063 220.853308 
L 234.134712 220.711454 
L 234.342212 220.640527 
L 234.407758 220.427746 
L 234.553633 220.356819 
L 234.66307 219.931256 
L 234.727509 219.860329 
L 234.727509 219.789402 
L 235.892982 219.718475 
L 235.998498 219.36384 
L 236.082059 219.292913 
L 236.164541 219.080132 
L 236.228287 219.009205 
L 236.267137 218.796424 
L 237.384197 218.725496 
L 237.384197 218.654569 
L 238.734297 218.583642 
L 238.744197 218.441788 
L 239.339641 218.370861 
L 239.403658 218.229007 
L 239.827681 218.15808 
L 239.827681 218.087153 
L 240.833887 218.016226 
L 240.833887 217.945299 
L 241.398788 217.874372 
L 241.398788 217.803445 
L 243.55924 217.732518 
L 243.55924 217.661591 
L 244.499803 217.590664 
L 244.499803 217.519736 
L 245.229352 217.448809 
L 245.229352 217.377882 
L 245.721957 217.306955 
L 245.721957 217.236028 
L 245.946851 217.165101 
L 246.040679 217.023247 
L 246.446735 216.95232 
L 246.446735 216.881393 
L 246.705359 216.810466 
L 246.8104 216.597685 
L 246.839787 216.526758 
L 246.922869 216.384904 
L 247.530871 216.313976 
L 247.622156 215.959341 
L 248.312749 215.888414 
L 248.41328 215.74656 
L 248.858592 215.675633 
L 248.858592 215.604706 
L 250.861098 215.533779 
L 250.861098 215.462852 
L 252.546174 215.391925 
L 252.546174 215.320998 
L 252.904483 215.250071 
L 252.904483 215.179144 
L 253.438533 215.108216 
L 253.481536 214.895435 
L 254.135537 214.824508 
L 254.150816 214.682654 
L 254.262297 214.611727 
L 254.262297 214.5408 
L 254.721057 214.469873 
L 254.771522 214.328019 
L 255.23646 214.257092 
L 255.23646 214.186165 
L 255.918716 214.115238 
L 255.918716 214.044311 
L 256.638598 213.973384 
L 256.638598 213.902456 
L 258.33043 213.831529 
L 258.33043 213.760602 
L 259.211598 213.689675 
L 259.211598 213.618748 
L 260.177265 213.547821 
L 260.20318 213.405967 
L 260.659979 213.33504 
L 260.659979 213.264113 
L 262.394464 213.193186 
L 262.394464 213.122259 
L 263.106099 213.051332 
L 263.160573 212.838551 
L 263.382248 212.767624 
L 263.489291 212.554842 
L 263.790812 212.483915 
L 263.835683 212.342061 
L 264.087576 212.271134 
L 264.122118 212.12928 
L 264.319312 212.058353 
L 264.319312 211.987426 
L 266.259343 211.916499 
L 266.259343 211.845572 
L 266.797998 211.774645 
L 266.890635 211.561864 
L 268.099898 211.490936 
L 268.099898 211.420009 
L 269.165766 211.349082 
L 269.21346 211.207228 
L 270.188888 211.136301 
L 270.188888 211.065374 
L 272.052387 210.994447 
L 272.052387 210.92352 
L 272.902341 210.852593 
L 272.977876 210.710739 
L 273.296837 210.639812 
L 273.350769 210.497958 
L 275.114858 210.427031 
L 275.114858 210.356104 
L 276.057735 210.285176 
L 276.057735 210.214249 
L 278.294728 210.143322 
L 278.294728 210.072395 
L 278.628458 210.001468 
L 278.706612 209.859614 
L 279.210485 209.788687 
L 279.210485 209.71776 
L 279.563134 209.646833 
L 279.563134 209.575906 
L 280.569617 209.504979 
L 280.569617 209.434052 
L 281.92674 209.363125 
L 281.92674 209.292198 
L 283.071152 209.221271 
L 283.071152 209.150344 
L 284.232927 209.079416 
L 284.232927 209.008489 
L 284.984008 208.937562 
L 284.984008 208.866635 
L 288.62623 208.795708 
L 288.62623 208.724781 
L 290.499793 208.653854 
L 290.499793 208.582927 
L 360.8064 208.512 
L 360.8064 208.512 
" style="fill: none; stroke: #000080; stroke-width: 1.5; stroke-linecap: square"/>
   </g>
   <g id="line2d_36">
    <defs>
     <path id="mc74f3bcb9d" d="M 0 6 
C 1.591219 6 3.117479 5.367802 4.242641 4.242641 
C 5.367802 3.117479 6 1.591219 6 0 
C 6 -1.591219 5.367802 -3.117479 4.242641 -4.242641 
C 3.117479 -5.367802 1.591219 -6 0 -6 
C -1.591219 -6 -3.117479 -5.367802 -4.242641 -4.242641 
C -5.367802 -3.117479 -6 -1.591219 -6 0 
C -6 1.591219 -5.367802 3.117479 -4.242641 4.242641 
C -3.117479 5.367802 -1.591219 6 0 6 
z
" style="stroke: #000080; stroke-width: 1.5"/>
    </defs>
    <g>
     <use xlink:href="#mc74f3bcb9d" x="131.929028" y="259.934118" style="fill-opacity: 0; stroke: #000080; stroke-width: 1.5"/>
     <use xlink:href="#mc74f3bcb9d" x="201.340656" y="229.080847" style="fill-opacity: 0; stroke: #000080; stroke-width: 1.5"/>
     <use xlink:href="#mc74f3bcb9d" x="263.835683" y="212.342061" style="fill-opacity: 0; stroke: #000080; stroke-width: 1.5"/>
     <use xlink:href="#mc74f3bcb9d" x="292.122669" y="208.512" style="fill-opacity: 0; stroke: #000080; stroke-width: 1.5"/>
     <use xlink:href="#mc74f3bcb9d" x="292.122669" y="208.512" style="fill-opacity: 0; stroke: #000080; stroke-width: 1.5"/>
     <use xlink:href="#mc74f3bcb9d" x="360.8064" y="208.512" style="fill-opacity: 0; stroke: #000080; stroke-width: 1.5"/>
    </g>
   </g>
   <g id="line2d_37">
    <path style="fill: none; stroke: #000080; stroke-width: 1.5; stroke-linecap: square"/>
    <g/>
   </g>
   <g id="line2d_38">
    <path d="M 144.786447 255.252932 
" clip-path="url(#p748d028a04)" style="fill: none; stroke: #000080; stroke-width: 1.5; stroke-linecap: square"/>
    <defs>
     <path id="m4c7e8f8adf" d="M -12 12 
L 12 -12 
M -12 -12 
L 12 12 
" style="stroke: #000080"/>
    </defs>
    <g clip-path="url(#p748d028a04)">
     <use xlink:href="#m4c7e8f8adf" x="144.786447" y="255.252932" style="fill: #000080; stroke: #000080"/>
    </g>
   </g>
   <g id="line2d_39">
    <defs>
     <path id="mc78f32d240" d="M 0 1.5 
C 0.397805 1.5 0.77937 1.341951 1.06066 1.06066 
C 1.341951 0.77937 1.5 0.397805 1.5 0 
C 1.5 -0.397805 1.341951 -0.77937 1.06066 -1.06066 
C 0.77937 -1.341951 0.397805 -1.5 0 -1.5 
C -0.397805 -1.5 -0.77937 -1.341951 -1.06066 -1.06066 
C -1.341951 -0.77937 -1.5 -0.397805 -1.5 0 
C -1.5 0.397805 -1.341951 0.77937 -1.06066 1.06066 
C -0.77937 1.341951 -0.397805 1.5 0 1.5 
z
" style="stroke: #ff00ff"/>
    </defs>
    <g>
     <use xlink:href="#mc78f32d240" x="380.146781" y="192.553412" style="fill: #ff00ff; stroke: #ff00ff"/>
     <use xlink:href="#mc78f32d240" x="380.146781" y="192.553412" style="fill: #ff00ff; stroke: #ff00ff"/>
    </g>
   </g>
   <g id="line2d_40">
    <path d="M 44.560826 298.944 
L 44.560826 284.403953 
L 57.6 284.403953 
L 57.6 281.212235 
L 65.227428 281.212235 
L 65.227428 278.729788 
L 70.639174 278.729788 
L 70.639174 278.020518 
L 74.836851 278.020518 
L 74.836851 276.247341 
L 78.266603 276.247341 
L 78.266603 275.538071 
L 81.166416 275.538071 
L 81.166416 274.474165 
L 83.678349 274.474165 
L 83.678349 274.119529 
L 87.876026 274.119529 
L 87.876026 273.055624 
L 91.305777 273.055624 
L 91.305777 270.573176 
L 92.811505 270.573176 
L 92.811505 269.863906 
L 99.950294 269.863906 
L 99.950294 269.509271 
L 100.9152 269.509271 
L 100.9152 268.8 
L 101.833019 268.8 
L 101.833019 268.445365 
L 103.544339 268.445365 
L 103.544339 268.090729 
L 105.112877 268.090729 
L 105.112877 267.736094 
L 108.542628 267.736094 
L 108.542628 267.381459 
L 112.487797 267.381459 
L 112.487797 265.962918 
L 112.989468 265.962918 
L 112.989468 265.608282 
L 118.152051 265.608282 
L 118.152051 264.899012 
L 119.944983 264.899012 
L 119.944983 264.544376 
L 121.265635 264.544376 
L 121.265635 263.835106 
L 121.892744 263.835106 
L 121.892744 263.480471 
L 123.374735 263.480471 
L 123.374735 263.125835 
L 123.936316 263.125835 
L 123.936316 262.416565 
L 124.481616 262.416565 
L 124.481616 262.061929 
L 126.756923 262.061929 
L 126.756923 261.352659 
L 127.227236 261.352659 
L 127.227236 260.643388 
L 129.826058 260.643388 
L 129.826058 260.288753 
L 130.4233 260.288753 
L 130.4233 259.579482 
L 132.287354 259.579482 
L 132.287354 259.224847 
L 134.304809 259.224847 
L 134.304809 258.870212 
L 134.620977 258.870212 
L 134.620977 258.515576 
L 134.77709 258.515576 
L 134.77709 258.160941 
L 139.914782 258.160941 
L 139.914782 255.323859 
L 140.382174 255.323859 
L 140.382174 254.969224 
L 140.838234 254.969224 
L 140.838234 254.614588 
L 141.718467 254.614588 
L 141.718467 254.259953 
L 142.966099 254.259953 
L 142.966099 253.905318 
L 143.462475 253.905318 
L 143.462475 253.550682 
L 144.510478 253.550682 
L 144.510478 253.196047 
L 147.816265 253.196047 
L 147.816265 251.777506 
L 153.01302 251.777506 
L 153.01302 250.358965 
L 153.536404 250.358965 
L 153.536404 250.004329 
L 155.547053 250.004329 
L 155.547053 249.649694 
L 156.304668 249.649694 
L 156.304668 249.295059 
L 161.504837 249.295059 
L 161.504837 248.940424 
L 171.360458 248.940424 
L 171.360458 248.585788 
L 172.208263 248.585788 
L 172.208263 248.231153 
L 172.752956 248.231153 
L 172.752956 247.876518 
L 173.201843 247.876518 
L 173.201843 247.521882 
L 173.640268 247.521882 
L 173.640268 247.167247 
L 174.449906 247.167247 
L 174.449906 245.748706 
L 176.230828 245.748706 
L 176.230828 245.394071 
L 177.443825 245.394071 
L 177.443825 244.330165 
L 179.557313 244.330165 
L 179.557313 243.975529 
L 179.729109 243.975529 
L 179.729109 243.620894 
L 182.543221 243.620894 
L 182.543221 243.266259 
L 183.359677 243.266259 
L 183.359677 242.911624 
L 183.52346 242.911624 
L 183.52346 241.493082 
L 185.215526 241.493082 
L 185.215526 241.138447 
L 185.781803 241.138447 
L 185.781803 240.783812 
L 186.251096 240.783812 
L 186.251096 240.429176 
L 186.57079 240.429176 
L 186.57079 240.074541 
L 188.730254 240.074541 
L 188.730254 239.010635 
L 190.337611 239.010635 
L 190.337611 238.656 
L 192.019647 238.656 
L 192.019647 237.946729 
L 194.168477 237.946729 
L 194.168477 237.592094 
L 194.658133 237.592094 
L 194.658133 237.237459 
L 196.937437 237.237459 
L 196.937437 236.882824 
L 201.778258 236.882824 
L 201.778258 236.528188 
L 209.426272 236.528188 
L 209.426272 236.173553 
L 209.607632 236.173553 
L 209.607632 235.818918 
L 210.494651 235.818918 
L 210.511306 235.109647 
L 210.844068 235.109647 
L 210.941946 232.981835 
L 212.775019 232.981835 
L 212.775019 232.272565 
L 213.720112 232.272565 
L 213.720112 231.563294 
L 214.458724 231.563294 
L 214.458724 230.144753 
L 216.426092 230.144753 
L 216.426092 228.726212 
L 217.358859 228.726212 
L 217.358859 228.016941 
L 218.07017 228.016941 
L 218.131334 226.243765 
L 222.288257 226.243765 
L 222.288257 225.889129 
L 222.972918 225.889129 
L 222.972918 225.179859 
L 223.894143 225.179859 
L 223.894143 224.825224 
L 224.561873 224.825224 
L 224.561873 224.470588 
L 224.899326 224.470588 
L 224.899326 224.115953 
L 225.831405 224.115953 
L 225.831405 223.761318 
L 227.45173 223.761318 
L 227.45173 223.406682 
L 236.536169 223.406682 
L 236.536169 221.988141 
L 291.836975 221.917214 
L 291.836975 221.846287 
L 292.30148 221.77536 
L 292.30148 221.704433 
L 293.131176 221.704433 
L 293.144083 221.349798 
L 293.357068 221.349798 
L 293.394488 221.066089 
L 293.577765 220.995162 
L 293.577765 220.924235 
L 293.961304 220.924235 
L 293.968071 220.5696 
L 294.182696 220.498673 
L 294.287257 220.285892 
L 294.355495 220.214965 
L 294.459647 219.576621 
L 294.530483 219.505694 
L 294.560106 219.080132 
L 294.671235 219.009205 
L 294.773595 218.441788 
L 294.879594 218.370861 
L 294.888947 218.15808 
L 295.054136 218.15808 
L 295.146173 217.448809 
L 295.292023 217.377882 
L 295.388267 216.739539 
L 295.41508 216.739539 
L 295.505613 216.313976 
L 295.564089 216.243049 
L 295.588151 215.888414 
L 295.78653 215.888414 
L 295.882568 215.320998 
L 295.947307 215.250071 
L 296.012708 214.966362 
L 305.103204 214.895435 
L 305.103204 214.824508 
L 306.079253 214.753581 
L 306.079253 214.682654 
L 306.579362 214.611727 
L 306.663945 214.469873 
L 306.871867 214.398946 
L 306.948378 214.115238 
L 307.013042 214.044311 
L 307.070807 213.831529 
L 307.188379 213.760602 
L 307.294969 213.33504 
L 307.35623 213.264113 
L 307.464905 212.909478 
L 307.578661 212.838551 
L 307.657576 212.696696 
L 307.709033 212.625769 
L 307.772305 212.271134 
L 307.83967 212.200207 
L 307.938893 212.058353 
L 307.967051 211.987426 
L 308.07619 211.774645 
L 308.100269 211.703718 
L 308.208378 211.490936 
L 308.345136 211.420009 
L 308.374999 211.207228 
L 308.474999 211.136301 
L 308.503959 210.994447 
L 308.789964 210.92352 
L 308.789964 210.852593 
L 313.706054 210.781666 
L 313.706054 210.710739 
L 314.23539 210.639812 
L 314.23539 210.568885 
L 314.44577 210.497958 
L 314.548929 210.143322 
L 314.66045 210.072395 
L 314.66045 210.001468 
L 314.936005 209.930541 
L 315.038093 209.575906 
L 315.146578 209.504979 
L 315.246643 209.292198 
L 315.321103 209.221271 
L 315.385153 208.937562 
L 315.480537 208.866635 
L 315.565649 208.582927 
L 315.751385 208.512 
L 315.847101 208.228292 
L 316.011674 208.157365 
L 316.011674 208.086438 
L 319.541459 208.015511 
L 319.541459 207.944584 
L 319.765274 207.873656 
L 319.765274 207.802729 
L 319.917136 207.731802 
L 320.014065 207.589948 
L 320.046116 207.519021 
L 320.147237 207.235313 
L 320.194352 207.164386 
L 320.248499 207.022532 
L 320.473089 206.951605 
L 320.51958 206.738824 
L 320.877509 206.667896 
L 320.909512 206.455115 
L 321.117528 206.384188 
L 321.146826 206.242334 
L 323.711117 206.171407 
L 323.711117 206.10048 
L 324.085739 206.029553 
L 324.119996 205.887699 
L 324.284885 205.816772 
L 324.377927 205.674918 
L 324.50944 205.603991 
L 324.50944 205.533064 
L 324.746651 205.462136 
L 324.826084 205.178428 
L 324.997702 205.107501 
L 325.065284 204.89472 
L 325.193855 204.823793 
L 325.27356 204.681939 
L 325.503468 204.611012 
L 325.503468 204.540085 
L 327.753072 204.469158 
L 327.753072 204.398231 
L 327.949719 204.327304 
L 327.950495 204.185449 
L 328.129943 204.114522 
L 328.217353 203.759887 
L 328.668271 203.68896 
L 328.726323 203.547106 
L 330.504345 203.476179 
L 330.504345 203.405252 
L 330.686141 203.334325 
L 330.782413 202.979689 
L 330.909803 202.908762 
L 330.973299 202.766908 
L 331.206214 202.695981 
L 331.278227 202.4832 
L 333.659435 202.412273 
L 333.746631 202.128565 
L 334.232105 202.057638 
L 334.232105 201.986711 
L 335.662273 201.915784 
L 335.662273 201.844856 
L 336.19146 201.773929 
L 336.209718 201.632075 
L 337.50856 201.561148 
L 337.615928 201.27744 
L 337.724162 201.206513 
L 337.775394 201.064659 
L 338.06757 200.993732 
L 338.06757 200.922805 
L 339.247426 200.851878 
L 339.247426 200.780951 
L 339.502467 200.710024 
L 339.612325 200.355388 
L 339.82442 200.284461 
L 339.82442 200.213534 
L 340.773488 200.142607 
L 340.773488 200.07168 
L 341.323685 200.000753 
L 341.422611 199.717045 
L 342.313181 199.646118 
L 342.313181 199.575191 
L 342.46756 199.504264 
L 342.536578 199.362409 
L 342.625425 199.291482 
L 342.702566 199.078701 
L 342.807044 199.007774 
L 342.812406 198.86592 
L 342.9926 198.794993 
L 342.9926 198.724066 
L 343.640412 198.653139 
L 343.732532 198.440358 
L 343.845389 198.369431 
L 343.93124 198.085722 
L 343.97647 198.014795 
L 343.97647 197.943868 
L 344.275668 197.872941 
L 344.362874 197.731087 
L 345.286018 197.66016 
L 345.286018 197.589233 
L 345.56167 197.518306 
L 345.56167 197.447379 
L 346.40543 197.376452 
L 346.40543 197.305525 
L 346.636726 197.234598 
L 346.636726 197.163671 
L 346.940499 197.092744 
L 346.940499 197.021816 
L 347.415069 196.950889 
L 347.449503 196.809035 
L 347.627061 196.738108 
L 347.706492 196.596254 
L 347.75358 196.525327 
L 347.818993 196.312546 
L 348.520995 196.241619 
L 348.520995 196.170692 
L 348.817976 196.099765 
L 348.831726 195.957911 
L 349.637647 195.886984 
L 349.742413 195.745129 
L 350.048513 195.674202 
L 350.048513 195.603275 
L 350.634502 195.532348 
L 350.634502 195.461421 
L 351.689635 195.390494 
L 351.748331 195.24864 
L 352.48882 195.177713 
L 352.515026 195.035859 
L 352.883253 194.964932 
L 352.883253 194.894005 
L 353.878586 194.823078 
L 353.881299 194.681224 
L 355.109812 194.610296 
L 355.115673 194.468442 
L 355.586365 194.397515 
L 355.586365 194.326588 
L 356.528671 194.255661 
L 356.528671 194.184734 
L 357.702754 194.113807 
L 357.702754 194.04288 
L 358.417238 193.971953 
L 358.417238 193.901026 
L 358.863216 193.830099 
L 358.863216 193.759172 
L 360.277863 193.688245 
L 360.277863 193.617318 
L 360.8064 193.546391 
L 360.8064 193.546391 
" style="fill: none; stroke: #ff00ff; stroke-width: 1.5; stroke-linecap: square"/>
   </g>
   <g id="line2d_41">
    <defs>
     <path id="mc9fae3cb4b" d="M -0 8.485281 
L 5.091169 0 
L 0 -8.485281 
L -5.091169 -0 
z
" style="stroke: #ff00ff; stroke-width: 1.5; stroke-linejoin: miter"/>
    </defs>
    <g>
     <use xlink:href="#mc9fae3cb4b" x="101.833019" y="268.445365" style="fill-opacity: 0; stroke: #ff00ff; stroke-width: 1.5; stroke-linejoin: miter"/>
     <use xlink:href="#mc9fae3cb4b" x="174.449906" y="245.748706" style="fill-opacity: 0; stroke: #ff00ff; stroke-width: 1.5; stroke-linejoin: miter"/>
     <use xlink:href="#mc9fae3cb4b" x="236.536169" y="223.406682" style="fill-opacity: 0; stroke: #ff00ff; stroke-width: 1.5; stroke-linejoin: miter"/>
     <use xlink:href="#mc9fae3cb4b" x="325.002107" y="205.036574" style="fill-opacity: 0; stroke: #ff00ff; stroke-width: 1.5; stroke-linejoin: miter"/>
     <use xlink:href="#mc9fae3cb4b" x="360.542953" y="193.546391" style="fill-opacity: 0; stroke: #ff00ff; stroke-width: 1.5; stroke-linejoin: miter"/>
     <use xlink:href="#mc9fae3cb4b" x="360.8064" y="193.546391" style="fill-opacity: 0; stroke: #ff00ff; stroke-width: 1.5; stroke-linejoin: miter"/>
    </g>
   </g>
   <g id="line2d_42">
    <path style="fill: none; stroke: #ff00ff; stroke-width: 1.5; stroke-linecap: square"/>
    <g/>
   </g>
   <g id="line2d_43">
    <path d="M 294.548485 219.292913 
" clip-path="url(#p748d028a04)" style="fill: none; stroke: #ff00ff; stroke-width: 1.5; stroke-linecap: square"/>
    <defs>
     <path id="m524e79c78c" d="M -12 12 
L 12 -12 
M -12 -12 
L 12 12 
" style="stroke: #ff00ff"/>
    </defs>
    <g clip-path="url(#p748d028a04)">
     <use xlink:href="#m524e79c78c" x="294.548485" y="219.292913" style="fill: #ff00ff; stroke: #ff00ff"/>
    </g>
   </g>
   <g id="line2d_44">
    <path d="M 360.8064 208.512 
L 380.514816 293.51808 
" style="fill: none; stroke: #000080; stroke-width: 1.5; stroke-linecap: square"/>
    <g>
     <use xlink:href="#mc74f3bcb9d" x="360.8064" y="208.512" style="fill-opacity: 0; stroke: #000080; stroke-width: 1.5"/>
     <use xlink:href="#mc74f3bcb9d" x="380.514816" y="293.51808" style="fill-opacity: 0; stroke: #000080; stroke-width: 1.5"/>
    </g>
   </g>
   <g id="line2d_45">
    <path d="M 360.8064 193.546391 
L 380.514816 163.296 
" style="fill: none; stroke: #ff00ff; stroke-width: 1.5; stroke-linecap: square"/>
    <g>
     <use xlink:href="#mc9fae3cb4b" x="360.8064" y="193.546391" style="fill-opacity: 0; stroke: #ff00ff; stroke-width: 1.5; stroke-linejoin: miter"/>
     <use xlink:href="#mc9fae3cb4b" x="380.514816" y="163.296" style="fill-opacity: 0; stroke: #ff00ff; stroke-width: 1.5; stroke-linejoin: miter"/>
    </g>
   </g>
   <g id="line2d_46">
    <path d="M 360.8064 298.944 
L 360.8064 27.648 
" style="fill: none; stroke: #000000; stroke-width: 1.5; stroke-linecap: square"/>
   </g>
   <g id="patch_3">
    <path d="M 57.6 298.944 
L 360.8064 298.944 
" style="fill: none; stroke: #000000; stroke-width: 0.8; stroke-linejoin: miter; stroke-linecap: square"/>
   </g>
   <g id="patch_4">
    <path d="M 57.6 27.648 
L 360.8064 27.648 
" style="fill: none; stroke: #000000; stroke-width: 0.8; stroke-linejoin: miter; stroke-linecap: square"/>
   </g>
   <g id="text_13">
    <!-- ex -->
    <g transform="translate(386.578944 297.381205)scale(0.14 -0.14)">
     <defs>
      <path id="DejaVuSans-78" d="M 3513 3500 
L 2247 1797 
L 3578 0 
L 2900 0 
L 1881 1375 
L 863 0 
L 184 0 
L 1544 1831 
L 300 3500 
L 978 3500 
L 1906 2253 
L 2834 3500 
L 3513 3500 
z
" transform="scale(0.015625)"/>
     </defs>
     <use xlink:href="#DejaVuSans-65"/>
     <use xlink:href="#DejaVuSans-78" x="59.773438"/>
    </g>
   </g>
   <g id="text_14">
    <!-- CMA-ES-20 -->
    <g transform="translate(386.578944 167.159125)scale(0.14 -0.14)">
     <defs>
      <path id="DejaVuSans-43" d="M 4122 4306 
L 4122 3641 
Q 3803 3938 3442 4084 
Q 3081 4231 2675 4231 
Q 1875 4231 1450 3742 
Q 1025 3253 1025 2328 
Q 1025 1406 1450 917 
Q 1875 428 2675 428 
Q 3081 428 3442 575 
Q 3803 722 4122 1019 
L 4122 359 
Q 3791 134 3420 21 
Q 3050 -91 2638 -91 
Q 1578 -91 968 557 
Q 359 1206 359 2328 
Q 359 3453 968 4101 
Q 1578 4750 2638 4750 
Q 3056 4750 3426 4639 
Q 3797 4528 4122 4306 
z
" transform="scale(0.015625)"/>
      <path id="DejaVuSans-4d" d="M 628 4666 
L 1569 4666 
L 2759 1491 
L 3956 4666 
L 4897 4666 
L 4897 0 
L 4281 0 
L 4281 4097 
L 3078 897 
L 2444 897 
L 1241 4097 
L 1241 0 
L 628 0 
L 628 4666 
z
" transform="scale(0.015625)"/>
      <path id="DejaVuSans-41" d="M 2188 4044 
L 1331 1722 
L 3047 1722 
L 2188 4044 
z
M 1831 4666 
L 2547 4666 
L 4325 0 
L 3669 0 
L 3244 1197 
L 1141 1197 
L 716 0 
L 50 0 
L 1831 4666 
z
" transform="scale(0.015625)"/>
      <path id="DejaVuSans-45" d="M 628 4666 
L 3578 4666 
L 3578 4134 
L 1259 4134 
L 1259 2753 
L 3481 2753 
L 3481 2222 
L 1259 2222 
L 1259 531 
L 3634 531 
L 3634 0 
L 628 0 
L 628 4666 
z
" transform="scale(0.015625)"/>
      <path id="DejaVuSans-53" d="M 3425 4513 
L 3425 3897 
Q 3066 4069 2747 4153 
Q 2428 4238 2131 4238 
Q 1616 4238 1336 4038 
Q 1056 3838 1056 3469 
Q 1056 3159 1242 3001 
Q 1428 2844 1947 2747 
L 2328 2669 
Q 3034 2534 3370 2195 
Q 3706 1856 3706 1288 
Q 3706 609 3251 259 
Q 2797 -91 1919 -91 
Q 1588 -91 1214 -16 
Q 841 59 441 206 
L 441 856 
Q 825 641 1194 531 
Q 1563 422 1919 422 
Q 2459 422 2753 634 
Q 3047 847 3047 1241 
Q 3047 1584 2836 1778 
Q 2625 1972 2144 2069 
L 1759 2144 
Q 1053 2284 737 2584 
Q 422 2884 422 3419 
Q 422 4038 858 4394 
Q 1294 4750 2059 4750 
Q 2388 4750 2728 4690 
Q 3069 4631 3425 4513 
z
" transform="scale(0.015625)"/>
     </defs>
     <use xlink:href="#DejaVuSans-43"/>
     <use xlink:href="#DejaVuSans-4d" x="69.824219"/>
     <use xlink:href="#DejaVuSans-41" x="156.103516"/>
     <use xlink:href="#DejaVuSans-2d" x="222.261719"/>
     <use xlink:href="#DejaVuSans-45" x="258.345703"/>
     <use xlink:href="#DejaVuSans-53" x="321.529297"/>
     <use xlink:href="#DejaVuSans-2d" x="385.005859"/>
     <use xlink:href="#DejaVuSans-32" x="421.089844"/>
     <use xlink:href="#DejaVuSans-30" x="484.712891"/>
    </g>
   </g>
   <g id="text_15">
    <!-- best 2009 -->
    <g transform="translate(386.578944 36.937045)scale(0.14 -0.14)">
     <defs>
      <path id="DejaVuSans-62" d="M 3116 1747 
Q 3116 2381 2855 2742 
Q 2594 3103 2138 3103 
Q 1681 3103 1420 2742 
Q 1159 2381 1159 1747 
Q 1159 1113 1420 752 
Q 1681 391 2138 391 
Q 2594 391 2855 752 
Q 3116 1113 3116 1747 
z
M 1159 2969 
Q 1341 3281 1617 3432 
Q 1894 3584 2278 3584 
Q 2916 3584 3314 3078 
Q 3713 2572 3713 1747 
Q 3713 922 3314 415 
Q 2916 -91 2278 -91 
Q 1894 -91 1617 61 
Q 1341 213 1159 525 
L 1159 0 
L 581 0 
L 581 4863 
L 1159 4863 
L 1159 2969 
z
" transform="scale(0.015625)"/>
      <path id="DejaVuSans-39" d="M 703 97 
L 703 672 
Q 941 559 1184 500 
Q 1428 441 1663 441 
Q 2288 441 2617 861 
Q 2947 1281 2994 2138 
Q 2813 1869 2534 1725 
Q 2256 1581 1919 1581 
Q 1219 1581 811 2004 
Q 403 2428 403 3163 
Q 403 3881 828 4315 
Q 1253 4750 1959 4750 
Q 2769 4750 3195 4129 
Q 3622 3509 3622 2328 
Q 3622 1225 3098 567 
Q 2575 -91 1691 -91 
Q 1453 -91 1209 -44 
Q 966 3 703 97 
z
M 1959 2075 
Q 2384 2075 2632 2365 
Q 2881 2656 2881 3163 
Q 2881 3666 2632 3958 
Q 2384 4250 1959 4250 
Q 1534 4250 1286 3958 
Q 1038 3666 1038 3163 
Q 1038 2656 1286 2365 
Q 1534 2075 1959 2075 
z
" transform="scale(0.015625)"/>
     </defs>
     <use xlink:href="#DejaVuSans-62"/>
     <use xlink:href="#DejaVuSans-65" x="63.476562"/>
     <use xlink:href="#DejaVuSans-73" x="125"/>
     <use xlink:href="#DejaVuSans-74" x="177.099609"/>
     <use xlink:href="#DejaVuSans-20" x="216.308594"/>
     <use xlink:href="#DejaVuSans-32" x="248.095703"/>
     <use xlink:href="#DejaVuSans-30" x="311.71875"/>
     <use xlink:href="#DejaVuSans-30" x="375.341797"/>
     <use xlink:href="#DejaVuSans-39" x="438.964844"/>
    </g>
   </g>
   <g id="text_16">
    <!-- bbob f24, 2-D -->
    <g transform="translate(60.632064 38.111366)scale(0.102 -0.102)">
     <defs>
      <path id="DejaVuSans-44" d="M 1259 4147 
L 1259 519 
L 2022 519 
Q 2988 519 3436 956 
Q 3884 1394 3884 2338 
Q 3884 3275 3436 3711 
Q 2988 4147 2022 4147 
L 1259 4147 
z
M 628 4666 
L 1925 4666 
Q 3281 4666 3915 4102 
Q 4550 3538 4550 2338 
Q 4550 1131 3912 565 
Q 3275 0 1925 0 
L 628 0 
L 628 4666 
z
" transform="scale(0.015625)"/>
     </defs>
     <use xlink:href="#DejaVuSans-62"/>
     <use xlink:href="#DejaVuSans-62" x="63.476562"/>
     <use xlink:href="#DejaVuSans-6f" x="126.953125"/>
     <use xlink:href="#DejaVuSans-62" x="188.134766"/>
     <use xlink:href="#DejaVuSans-20" x="251.611328"/>
     <use xlink:href="#DejaVuSans-66" x="283.398438"/>
     <use xlink:href="#DejaVuSans-32" x="318.603516"/>
     <use xlink:href="#DejaVuSans-34" x="382.226562"/>
     <use xlink:href="#DejaVuSans-2c" x="445.849609"/>
     <use xlink:href="#DejaVuSans-20" x="477.636719"/>
     <use xlink:href="#DejaVuSans-32" x="509.423828"/>
     <use xlink:href="#DejaVuSans-2d" x="573.046875"/>
     <use xlink:href="#DejaVuSans-44" x="609.130859"/>
    </g>
    <!-- 51 targets: 100..1e-08 -->
    <g transform="translate(60.632064 49.533135)scale(0.102 -0.102)">
     <defs>
      <path id="DejaVuSans-35" d="M 691 4666 
L 3169 4666 
L 3169 4134 
L 1269 4134 
L 1269 2991 
Q 1406 3038 1543 3061 
Q 1681 3084 1819 3084 
Q 2600 3084 3056 2656 
Q 3513 2228 3513 1497 
Q 3513 744 3044 326 
Q 2575 -91 1722 -91 
Q 1428 -91 1123 -41 
Q 819 9 494 109 
L 494 744 
Q 775 591 1075 516 
Q 1375 441 1709 441 
Q 2250 441 2565 725 
Q 2881 1009 2881 1497 
Q 2881 1984 2565 2268 
Q 2250 2553 1709 2553 
Q 1456 2553 1204 2497 
Q 953 2441 691 2322 
L 691 4666 
z
" transform="scale(0.015625)"/>
      <path id="DejaVuSans-3a" d="M 750 794 
L 1409 794 
L 1409 0 
L 750 0 
L 750 794 
z
M 750 3309 
L 1409 3309 
L 1409 2516 
L 750 2516 
L 750 3309 
z
" transform="scale(0.015625)"/>
     </defs>
     <use xlink:href="#DejaVuSans-35"/>
     <use xlink:href="#DejaVuSans-31" x="63.623047"/>
     <use xlink:href="#DejaVuSans-20" x="127.246094"/>
     <use xlink:href="#DejaVuSans-74" x="159.033203"/>
     <use xlink:href="#DejaVuSans-61" x="198.242188"/>
     <use xlink:href="#DejaVuSans-72" x="259.521484"/>
     <use xlink:href="#DejaVuSans-67" x="298.884766"/>
     <use xlink:href="#DejaVuSans-65" x="362.361328"/>
     <use xlink:href="#DejaVuSans-74" x="423.884766"/>
     <use xlink:href="#DejaVuSans-73" x="463.09375"/>
     <use xlink:href="#DejaVuSans-3a" x="515.193359"/>
     <use xlink:href="#DejaVuSans-20" x="548.884766"/>
     <use xlink:href="#DejaVuSans-31" x="580.671875"/>
     <use xlink:href="#DejaVuSans-30" x="644.294922"/>
     <use xlink:href="#DejaVuSans-30" x="707.917969"/>
     <use xlink:href="#DejaVuSans-2e" x="771.541016"/>
     <use xlink:href="#DejaVuSans-2e" x="803.328125"/>
     <use xlink:href="#DejaVuSans-31" x="835.115234"/>
     <use xlink:href="#DejaVuSans-65" x="898.738281"/>
     <use xlink:href="#DejaVuSans-2d" x="960.261719"/>
     <use xlink:href="#DejaVuSans-30" x="996.345703"/>
     <use xlink:href="#DejaVuSans-38" x="1059.96875"/>
    </g>
    <!-- 25, 15 instances -->
    <g transform="translate(60.632064 60.954904)scale(0.102 -0.102)">
     <use xlink:href="#DejaVuSans-32"/>
     <use xlink:href="#DejaVuSans-35" x="63.623047"/>
     <use xlink:href="#DejaVuSans-2c" x="127.246094"/>
     <use xlink:href="#DejaVuSans-20" x="159.033203"/>
     <use xlink:href="#DejaVuSans-31" x="190.820312"/>
     <use xlink:href="#DejaVuSans-35" x="254.443359"/>
     <use xlink:href="#DejaVuSans-20" x="318.066406"/>
     <use xlink:href="#DejaVuSans-69" x="349.853516"/>
     <use xlink:href="#DejaVuSans-6e" x="377.636719"/>
     <use xlink:href="#DejaVuSans-73" x="441.015625"/>
     <use xlink:href="#DejaVuSans-74" x="493.115234"/>
     <use xlink:href="#DejaVuSans-61" x="532.324219"/>
     <use xlink:href="#DejaVuSans-6e" x="593.603516"/>
     <use xlink:href="#DejaVuSans-63" x="656.982422"/>
     <use xlink:href="#DejaVuSans-65" x="711.962891"/>
     <use xlink:href="#DejaVuSans-73" x="773.486328"/>
    </g>
   </g>
   <g id="text_17">
    <!-- v2.6 -->
    <g style="fill: #808080" transform="translate(198.292262 294.151352)scale(0.1 -0.1)">
     <use xlink:href="#DejaVuSans-76"/>
     <use xlink:href="#DejaVuSans-32" x="59.179688"/>
     <use xlink:href="#DejaVuSans-2e" x="122.802734"/>
     <use xlink:href="#DejaVuSans-36" x="154.589844"/>
    </g>
   </g>
   <g id="text_18">
    <!-- 24 Lunacek bi-Rastrigin -->
    <g transform="translate(91.411012 21.648)scale(0.2 -0.2)">
     <defs>
      <path id="DejaVuSans-4c" d="M 628 4666 
L 1259 4666 
L 1259 531 
L 3531 531 
L 3531 0 
L 628 0 
L 628 4666 
z
" transform="scale(0.015625)"/>
      <path id="DejaVuSans-6b" d="M 581 4863 
L 1159 4863 
L 1159 1991 
L 2875 3500 
L 3609 3500 
L 1753 1863 
L 3688 0 
L 2938 0 
L 1159 1709 
L 1159 0 
L 581 0 
L 581 4863 
z
" transform="scale(0.015625)"/>
      <path id="DejaVuSans-52" d="M 2841 2188 
Q 3044 2119 3236 1894 
Q 3428 1669 3622 1275 
L 4263 0 
L 3584 0 
L 2988 1197 
Q 2756 1666 2539 1819 
Q 2322 1972 1947 1972 
L 1259 1972 
L 1259 0 
L 628 0 
L 628 4666 
L 2053 4666 
Q 2853 4666 3247 4331 
Q 3641 3997 3641 3322 
Q 3641 2881 3436 2590 
Q 3231 2300 2841 2188 
z
M 1259 4147 
L 1259 2491 
L 2053 2491 
Q 2509 2491 2742 2702 
Q 2975 2913 2975 3322 
Q 2975 3731 2742 3939 
Q 2509 4147 2053 4147 
L 1259 4147 
z
" transform="scale(0.015625)"/>
     </defs>
     <use xlink:href="#DejaVuSans-32"/>
     <use xlink:href="#DejaVuSans-34" x="63.623047"/>
     <use xlink:href="#DejaVuSans-20" x="127.246094"/>
     <use xlink:href="#DejaVuSans-4c" x="159.033203"/>
     <use xlink:href="#DejaVuSans-75" x="212.996094"/>
     <use xlink:href="#DejaVuSans-6e" x="276.375"/>
     <use xlink:href="#DejaVuSans-61" x="339.753906"/>
     <use xlink:href="#DejaVuSans-63" x="401.033203"/>
     <use xlink:href="#DejaVuSans-65" x="456.013672"/>
     <use xlink:href="#DejaVuSans-6b" x="517.537109"/>
     <use xlink:href="#DejaVuSans-20" x="575.447266"/>
     <use xlink:href="#DejaVuSans-62" x="607.234375"/>
     <use xlink:href="#DejaVuSans-69" x="670.710938"/>
     <use xlink:href="#DejaVuSans-2d" x="698.494141"/>
     <use xlink:href="#DejaVuSans-52" x="734.578125"/>
     <use xlink:href="#DejaVuSans-61" x="801.810547"/>
     <use xlink:href="#DejaVuSans-73" x="863.089844"/>
     <use xlink:href="#DejaVuSans-74" x="915.189453"/>
     <use xlink:href="#DejaVuSans-72" x="954.398438"/>
     <use xlink:href="#DejaVuSans-69" x="995.511719"/>
     <use xlink:href="#DejaVuSans-67" x="1023.294922"/>
     <use xlink:href="#DejaVuSans-69" x="1086.771484"/>
     <use xlink:href="#DejaVuSans-6e" x="1114.554688"/>
    </g>
   </g>
  </g>
 </g>
 <defs>
  <clipPath id="p748d028a04">
   <rect x="57.6" y="27.648" width="303.2064" height="271.296"/>
  </clipPath>
 </defs>
</svg>
