<?xml version="1.0" encoding="utf-8" standalone="no"?>
<!DOCTYPE svg PUBLIC "-//W3C//DTD SVG 1.1//EN"
  "http://www.w3.org/Graphics/SVG/1.1/DTD/svg11.dtd">
<svg xmlns:xlink="http://www.w3.org/1999/xlink" width="460.8pt" height="345.6pt" viewBox="0 0 460.8 345.6" xmlns="http://www.w3.org/2000/svg" version="1.1">
 <metadata>
  <rdf:RDF xmlns:dc="http://purl.org/dc/elements/1.1/" xmlns:cc="http://creativecommons.org/ns#" xmlns:rdf="http://www.w3.org/1999/02/22-rdf-syntax-ns#">
   <cc:Work>
    <dc:type rdf:resource="http://purl.org/dc/dcmitype/StillImage"/>
    <dc:date>2022-03-16T23:35:35.675773</dc:date>
    <dc:format>image/svg+xml</dc:format>
    <dc:creator>
     <cc:Agent>
      <dc:title>Matplotlib v3.5.1, https://matplotlib.org/</dc:title>
     </cc:Agent>
    </dc:creator>
   </cc:Work>
  </rdf:RDF>
 </metadata>
 <defs>
  <style type="text/css">*{stroke-linejoin: round; stroke-linecap: butt}</style>
 </defs>
 <g id="figure_1">
  <g id="patch_1">
   <path d="M 0 345.6 
L 460.8 345.6 
L 460.8 0 
L 0 0 
z
" style="fill: #ffffff"/>
  </g>
  <g id="axes_1">
   <g id="patch_2">
    <path d="M 57.6 298.944 
L 360.8064 298.944 
L 360.8064 27.648 
L 57.6 27.648 
z
" style="fill: #ffffff"/>
   </g>
   <g id="line2d_1">
    <path d="M 36.933397 298.944 
L 36.933397 288.304941 
L 67.209423 288.304941 
L 67.209423 282.985412 
L 85.184077 282.985412 
L 85.184077 277.665882 
L 109.360651 277.665882 
L 109.360651 272.346353 
L 122.990812 272.346353 
L 122.990812 267.026824 
L 148.775988 267.026824 
L 148.775988 261.707294 
L 172.951515 261.707294 
L 172.951515 256.387765 
L 193.260577 256.387765 
L 193.260577 251.068235 
L 199.979439 251.068235 
L 199.979439 245.748706 
L 210.915714 245.748706 
L 210.915714 240.429176 
L 222.727175 240.429176 
L 222.727175 235.109647 
L 230.107239 235.109647 
L 230.107239 229.790118 
L 237.326479 229.790118 
L 237.326479 224.470588 
L 241.665472 224.470588 
L 241.665472 219.151059 
L 254.002146 219.151059 
L 254.002146 213.831529 
L 258.247042 213.831529 
L 258.247042 208.512 
L 269.482511 208.512 
L 269.482511 203.192471 
L 277.47566 203.192471 
L 277.47566 197.872941 
L 277.475712 197.872941 
L 277.475712 192.553412 
L 277.47587 192.553412 
L 277.47587 112.760471 
L 277.476081 112.760471 
L 277.476081 107.440941 
L 277.476133 107.440941 
L 277.476133 102.121412 
L 277.476186 102.121412 
L 277.476186 80.843294 
L 277.476502 80.843294 
L 277.476502 27.648 
L 360.8064 27.648 
" style="fill: none; stroke: #f5deb3; stroke-width: 4; stroke-linecap: square"/>
   </g>
   <g id="line2d_2">
    <defs>
     <path id="mcc58d065f9" d="M -0 7.778175 
L 7.778175 0 
L 0 -7.778175 
L -7.778175 -0 
z
" style="stroke: #f5deb3; stroke-width: 1.5; stroke-linejoin: miter"/>
    </defs>
    <g>
     <use xlink:href="#mcc58d065f9" x="172.951515" y="256.387765" style="fill: #f5deb3; stroke: #f5deb3; stroke-width: 1.5; stroke-linejoin: miter"/>
     <use xlink:href="#mcc58d065f9" x="254.002146" y="213.831529" style="fill: #f5deb3; stroke: #f5deb3; stroke-width: 1.5; stroke-linejoin: miter"/>
     <use xlink:href="#mcc58d065f9" x="277.476133" y="102.121412" style="fill: #f5deb3; stroke: #f5deb3; stroke-width: 1.5; stroke-linejoin: miter"/>
     <use xlink:href="#mcc58d065f9" x="277.476502" y="27.648" style="fill: #f5deb3; stroke: #f5deb3; stroke-width: 1.5; stroke-linejoin: miter"/>
     <use xlink:href="#mcc58d065f9" x="277.476502" y="27.648" style="fill: #f5deb3; stroke: #f5deb3; stroke-width: 1.5; stroke-linejoin: miter"/>
     <use xlink:href="#mcc58d065f9" x="360.8064" y="27.648" style="fill: #f5deb3; stroke: #f5deb3; stroke-width: 1.5; stroke-linejoin: miter"/>
    </g>
   </g>
   <g id="line2d_3">
    <path style="fill: none; stroke: #f5deb3; stroke-width: 4; stroke-linecap: square"/>
    <g/>
   </g>
   <g id="line2d_4">
    <path d="M 360.8064 27.648 
L 380.514816 33.07392 
" style="fill: none; stroke: #f5deb3; stroke-width: 4; stroke-linecap: square"/>
    <g>
     <use xlink:href="#mcc58d065f9" x="360.8064" y="27.648" style="fill: #f5deb3; stroke: #f5deb3; stroke-width: 1.5; stroke-linejoin: miter"/>
     <use xlink:href="#mcc58d065f9" x="380.514816" y="33.07392" style="fill: #f5deb3; stroke: #f5deb3; stroke-width: 1.5; stroke-linejoin: miter"/>
    </g>
   </g>
   <g id="matplotlib.axis_1">
    <g id="xtick_1">
     <g id="line2d_5">
      <path d="M 57.6 298.944 
L 57.6 27.648 
" clip-path="url(#p605de726ef)" style="fill: none; stroke: #b0b0b0; stroke-width: 0.8; stroke-linecap: square"/>
     </g>
     <g id="line2d_6">
      <defs>
       <path id="m28da18247a" d="M 0 0 
L 0 3.5 
" style="stroke: #000000; stroke-width: 0.8"/>
      </defs>
      <g>
       <use xlink:href="#m28da18247a" x="57.6" y="298.944" style="stroke: #000000; stroke-width: 0.8"/>
      </g>
     </g>
     <g id="text_1">
      <!-- 0 -->
      <g transform="translate(52.191875 318.861344)scale(0.17 -0.17)">
       <defs>
        <path id="DejaVuSans-30" d="M 2034 4250 
Q 1547 4250 1301 3770 
Q 1056 3291 1056 2328 
Q 1056 1369 1301 889 
Q 1547 409 2034 409 
Q 2525 409 2770 889 
Q 3016 1369 3016 2328 
Q 3016 3291 2770 3770 
Q 2525 4250 2034 4250 
z
M 2034 4750 
Q 2819 4750 3233 4129 
Q 3647 3509 3647 2328 
Q 3647 1150 3233 529 
Q 2819 -91 2034 -91 
Q 1250 -91 836 529 
Q 422 1150 422 2328 
Q 422 3509 836 4129 
Q 1250 4750 2034 4750 
z
" transform="scale(0.015625)"/>
       </defs>
       <use xlink:href="#DejaVuSans-30"/>
      </g>
     </g>
    </g>
    <g id="xtick_2">
     <g id="line2d_7">
      <path d="M 144.2304 298.944 
L 144.2304 27.648 
" clip-path="url(#p605de726ef)" style="fill: none; stroke: #b0b0b0; stroke-width: 0.8; stroke-linecap: square"/>
     </g>
     <g id="line2d_8">
      <g>
       <use xlink:href="#m28da18247a" x="144.2304" y="298.944" style="stroke: #000000; stroke-width: 0.8"/>
      </g>
     </g>
     <g id="text_2">
      <!-- 2 -->
      <g transform="translate(138.822275 318.861344)scale(0.17 -0.17)">
       <defs>
        <path id="DejaVuSans-32" d="M 1228 531 
L 3431 531 
L 3431 0 
L 469 0 
L 469 531 
Q 828 903 1448 1529 
Q 2069 2156 2228 2338 
Q 2531 2678 2651 2914 
Q 2772 3150 2772 3378 
Q 2772 3750 2511 3984 
Q 2250 4219 1831 4219 
Q 1534 4219 1204 4116 
Q 875 4013 500 3803 
L 500 4441 
Q 881 4594 1212 4672 
Q 1544 4750 1819 4750 
Q 2544 4750 2975 4387 
Q 3406 4025 3406 3419 
Q 3406 3131 3298 2873 
Q 3191 2616 2906 2266 
Q 2828 2175 2409 1742 
Q 1991 1309 1228 531 
z
" transform="scale(0.015625)"/>
       </defs>
       <use xlink:href="#DejaVuSans-32"/>
      </g>
     </g>
    </g>
    <g id="xtick_3">
     <g id="line2d_9">
      <path d="M 230.8608 298.944 
L 230.8608 27.648 
" clip-path="url(#p605de726ef)" style="fill: none; stroke: #b0b0b0; stroke-width: 0.8; stroke-linecap: square"/>
     </g>
     <g id="line2d_10">
      <g>
       <use xlink:href="#m28da18247a" x="230.8608" y="298.944" style="stroke: #000000; stroke-width: 0.8"/>
      </g>
     </g>
     <g id="text_3">
      <!-- 4 -->
      <g transform="translate(225.452675 318.861344)scale(0.17 -0.17)">
       <defs>
        <path id="DejaVuSans-34" d="M 2419 4116 
L 825 1625 
L 2419 1625 
L 2419 4116 
z
M 2253 4666 
L 3047 4666 
L 3047 1625 
L 3713 1625 
L 3713 1100 
L 3047 1100 
L 3047 0 
L 2419 0 
L 2419 1100 
L 313 1100 
L 313 1709 
L 2253 4666 
z
" transform="scale(0.015625)"/>
       </defs>
       <use xlink:href="#DejaVuSans-34"/>
      </g>
     </g>
    </g>
    <g id="xtick_4">
     <g id="line2d_11">
      <path d="M 317.4912 298.944 
L 317.4912 27.648 
" clip-path="url(#p605de726ef)" style="fill: none; stroke: #b0b0b0; stroke-width: 0.8; stroke-linecap: square"/>
     </g>
     <g id="line2d_12">
      <g>
       <use xlink:href="#m28da18247a" x="317.4912" y="298.944" style="stroke: #000000; stroke-width: 0.8"/>
      </g>
     </g>
     <g id="text_4">
      <!-- 6 -->
      <g transform="translate(312.083075 318.861344)scale(0.17 -0.17)">
       <defs>
        <path id="DejaVuSans-36" d="M 2113 2584 
Q 1688 2584 1439 2293 
Q 1191 2003 1191 1497 
Q 1191 994 1439 701 
Q 1688 409 2113 409 
Q 2538 409 2786 701 
Q 3034 994 3034 1497 
Q 3034 2003 2786 2293 
Q 2538 2584 2113 2584 
z
M 3366 4563 
L 3366 3988 
Q 3128 4100 2886 4159 
Q 2644 4219 2406 4219 
Q 1781 4219 1451 3797 
Q 1122 3375 1075 2522 
Q 1259 2794 1537 2939 
Q 1816 3084 2150 3084 
Q 2853 3084 3261 2657 
Q 3669 2231 3669 1497 
Q 3669 778 3244 343 
Q 2819 -91 2113 -91 
Q 1303 -91 875 529 
Q 447 1150 447 2328 
Q 447 3434 972 4092 
Q 1497 4750 2381 4750 
Q 2619 4750 2861 4703 
Q 3103 4656 3366 4563 
z
" transform="scale(0.015625)"/>
       </defs>
       <use xlink:href="#DejaVuSans-36"/>
      </g>
     </g>
    </g>
    <g id="xtick_5">
     <g id="line2d_13">
      <path d="M 100.9152 298.944 
L 100.9152 27.648 
" clip-path="url(#p605de726ef)" style="fill: none; stroke: #b0b0b0; stroke-width: 0.8; stroke-linecap: square"/>
     </g>
     <g id="line2d_14">
      <defs>
       <path id="me4f84b79e1" d="M 0 0 
L 0 2 
" style="stroke: #000000; stroke-width: 0.6"/>
      </defs>
      <g>
       <use xlink:href="#me4f84b79e1" x="100.9152" y="298.944" style="stroke: #000000; stroke-width: 0.6"/>
      </g>
     </g>
    </g>
    <g id="xtick_6">
     <g id="line2d_15">
      <path d="M 187.5456 298.944 
L 187.5456 27.648 
" clip-path="url(#p605de726ef)" style="fill: none; stroke: #b0b0b0; stroke-width: 0.8; stroke-linecap: square"/>
     </g>
     <g id="line2d_16">
      <g>
       <use xlink:href="#me4f84b79e1" x="187.5456" y="298.944" style="stroke: #000000; stroke-width: 0.6"/>
      </g>
     </g>
    </g>
    <g id="xtick_7">
     <g id="line2d_17">
      <path d="M 274.176 298.944 
L 274.176 27.648 
" clip-path="url(#p605de726ef)" style="fill: none; stroke: #b0b0b0; stroke-width: 0.8; stroke-linecap: square"/>
     </g>
     <g id="line2d_18">
      <g>
       <use xlink:href="#me4f84b79e1" x="274.176" y="298.944" style="stroke: #000000; stroke-width: 0.6"/>
      </g>
     </g>
    </g>
    <g id="xtick_8">
     <g id="line2d_19">
      <path d="M 360.8064 298.944 
L 360.8064 27.648 
" clip-path="url(#p605de726ef)" style="fill: none; stroke: #b0b0b0; stroke-width: 0.8; stroke-linecap: square"/>
     </g>
     <g id="line2d_20">
      <g>
       <use xlink:href="#me4f84b79e1" x="360.8064" y="298.944" style="stroke: #000000; stroke-width: 0.6"/>
      </g>
     </g>
    </g>
    <g id="text_5">
     <!-- log10(# f-evals / dimension) -->
     <g transform="translate(88.823278 339.314156)scale(0.17 -0.17)">
      <defs>
       <path id="DejaVuSans-6c" d="M 603 4863 
L 1178 4863 
L 1178 0 
L 603 0 
L 603 4863 
z
" transform="scale(0.015625)"/>
       <path id="DejaVuSans-6f" d="M 1959 3097 
Q 1497 3097 1228 2736 
Q 959 2375 959 1747 
Q 959 1119 1226 758 
Q 1494 397 1959 397 
Q 2419 397 2687 759 
Q 2956 1122 2956 1747 
Q 2956 2369 2687 2733 
Q 2419 3097 1959 3097 
z
M 1959 3584 
Q 2709 3584 3137 3096 
Q 3566 2609 3566 1747 
Q 3566 888 3137 398 
Q 2709 -91 1959 -91 
Q 1206 -91 779 398 
Q 353 888 353 1747 
Q 353 2609 779 3096 
Q 1206 3584 1959 3584 
z
" transform="scale(0.015625)"/>
       <path id="DejaVuSans-67" d="M 2906 1791 
Q 2906 2416 2648 2759 
Q 2391 3103 1925 3103 
Q 1463 3103 1205 2759 
Q 947 2416 947 1791 
Q 947 1169 1205 825 
Q 1463 481 1925 481 
Q 2391 481 2648 825 
Q 2906 1169 2906 1791 
z
M 3481 434 
Q 3481 -459 3084 -895 
Q 2688 -1331 1869 -1331 
Q 1566 -1331 1297 -1286 
Q 1028 -1241 775 -1147 
L 775 -588 
Q 1028 -725 1275 -790 
Q 1522 -856 1778 -856 
Q 2344 -856 2625 -561 
Q 2906 -266 2906 331 
L 2906 616 
Q 2728 306 2450 153 
Q 2172 0 1784 0 
Q 1141 0 747 490 
Q 353 981 353 1791 
Q 353 2603 747 3093 
Q 1141 3584 1784 3584 
Q 2172 3584 2450 3431 
Q 2728 3278 2906 2969 
L 2906 3500 
L 3481 3500 
L 3481 434 
z
" transform="scale(0.015625)"/>
       <path id="DejaVuSans-31" d="M 794 531 
L 1825 531 
L 1825 4091 
L 703 3866 
L 703 4441 
L 1819 4666 
L 2450 4666 
L 2450 531 
L 3481 531 
L 3481 0 
L 794 0 
L 794 531 
z
" transform="scale(0.015625)"/>
       <path id="DejaVuSans-28" d="M 1984 4856 
Q 1566 4138 1362 3434 
Q 1159 2731 1159 2009 
Q 1159 1288 1364 580 
Q 1569 -128 1984 -844 
L 1484 -844 
Q 1016 -109 783 600 
Q 550 1309 550 2009 
Q 550 2706 781 3412 
Q 1013 4119 1484 4856 
L 1984 4856 
z
" transform="scale(0.015625)"/>
       <path id="DejaVuSans-23" d="M 3272 2816 
L 2363 2816 
L 2100 1772 
L 3016 1772 
L 3272 2816 
z
M 2803 4594 
L 2478 3297 
L 3391 3297 
L 3719 4594 
L 4219 4594 
L 3897 3297 
L 4872 3297 
L 4872 2816 
L 3775 2816 
L 3519 1772 
L 4513 1772 
L 4513 1294 
L 3397 1294 
L 3072 0 
L 2572 0 
L 2894 1294 
L 1978 1294 
L 1656 0 
L 1153 0 
L 1478 1294 
L 494 1294 
L 494 1772 
L 1594 1772 
L 1856 2816 
L 850 2816 
L 850 3297 
L 1978 3297 
L 2297 4594 
L 2803 4594 
z
" transform="scale(0.015625)"/>
       <path id="DejaVuSans-20" transform="scale(0.015625)"/>
       <path id="DejaVuSans-66" d="M 2375 4863 
L 2375 4384 
L 1825 4384 
Q 1516 4384 1395 4259 
Q 1275 4134 1275 3809 
L 1275 3500 
L 2222 3500 
L 2222 3053 
L 1275 3053 
L 1275 0 
L 697 0 
L 697 3053 
L 147 3053 
L 147 3500 
L 697 3500 
L 697 3744 
Q 697 4328 969 4595 
Q 1241 4863 1831 4863 
L 2375 4863 
z
" transform="scale(0.015625)"/>
       <path id="DejaVuSans-2d" d="M 313 2009 
L 1997 2009 
L 1997 1497 
L 313 1497 
L 313 2009 
z
" transform="scale(0.015625)"/>
       <path id="DejaVuSans-65" d="M 3597 1894 
L 3597 1613 
L 953 1613 
Q 991 1019 1311 708 
Q 1631 397 2203 397 
Q 2534 397 2845 478 
Q 3156 559 3463 722 
L 3463 178 
Q 3153 47 2828 -22 
Q 2503 -91 2169 -91 
Q 1331 -91 842 396 
Q 353 884 353 1716 
Q 353 2575 817 3079 
Q 1281 3584 2069 3584 
Q 2775 3584 3186 3129 
Q 3597 2675 3597 1894 
z
M 3022 2063 
Q 3016 2534 2758 2815 
Q 2500 3097 2075 3097 
Q 1594 3097 1305 2825 
Q 1016 2553 972 2059 
L 3022 2063 
z
" transform="scale(0.015625)"/>
       <path id="DejaVuSans-76" d="M 191 3500 
L 800 3500 
L 1894 563 
L 2988 3500 
L 3597 3500 
L 2284 0 
L 1503 0 
L 191 3500 
z
" transform="scale(0.015625)"/>
       <path id="DejaVuSans-61" d="M 2194 1759 
Q 1497 1759 1228 1600 
Q 959 1441 959 1056 
Q 959 750 1161 570 
Q 1363 391 1709 391 
Q 2188 391 2477 730 
Q 2766 1069 2766 1631 
L 2766 1759 
L 2194 1759 
z
M 3341 1997 
L 3341 0 
L 2766 0 
L 2766 531 
Q 2569 213 2275 61 
Q 1981 -91 1556 -91 
Q 1019 -91 701 211 
Q 384 513 384 1019 
Q 384 1609 779 1909 
Q 1175 2209 1959 2209 
L 2766 2209 
L 2766 2266 
Q 2766 2663 2505 2880 
Q 2244 3097 1772 3097 
Q 1472 3097 1187 3025 
Q 903 2953 641 2809 
L 641 3341 
Q 956 3463 1253 3523 
Q 1550 3584 1831 3584 
Q 2591 3584 2966 3190 
Q 3341 2797 3341 1997 
z
" transform="scale(0.015625)"/>
       <path id="DejaVuSans-73" d="M 2834 3397 
L 2834 2853 
Q 2591 2978 2328 3040 
Q 2066 3103 1784 3103 
Q 1356 3103 1142 2972 
Q 928 2841 928 2578 
Q 928 2378 1081 2264 
Q 1234 2150 1697 2047 
L 1894 2003 
Q 2506 1872 2764 1633 
Q 3022 1394 3022 966 
Q 3022 478 2636 193 
Q 2250 -91 1575 -91 
Q 1294 -91 989 -36 
Q 684 19 347 128 
L 347 722 
Q 666 556 975 473 
Q 1284 391 1588 391 
Q 1994 391 2212 530 
Q 2431 669 2431 922 
Q 2431 1156 2273 1281 
Q 2116 1406 1581 1522 
L 1381 1569 
Q 847 1681 609 1914 
Q 372 2147 372 2553 
Q 372 3047 722 3315 
Q 1072 3584 1716 3584 
Q 2034 3584 2315 3537 
Q 2597 3491 2834 3397 
z
" transform="scale(0.015625)"/>
       <path id="DejaVuSans-2f" d="M 1625 4666 
L 2156 4666 
L 531 -594 
L 0 -594 
L 1625 4666 
z
" transform="scale(0.015625)"/>
       <path id="DejaVuSans-64" d="M 2906 2969 
L 2906 4863 
L 3481 4863 
L 3481 0 
L 2906 0 
L 2906 525 
Q 2725 213 2448 61 
Q 2172 -91 1784 -91 
Q 1150 -91 751 415 
Q 353 922 353 1747 
Q 353 2572 751 3078 
Q 1150 3584 1784 3584 
Q 2172 3584 2448 3432 
Q 2725 3281 2906 2969 
z
M 947 1747 
Q 947 1113 1208 752 
Q 1469 391 1925 391 
Q 2381 391 2643 752 
Q 2906 1113 2906 1747 
Q 2906 2381 2643 2742 
Q 2381 3103 1925 3103 
Q 1469 3103 1208 2742 
Q 947 2381 947 1747 
z
" transform="scale(0.015625)"/>
       <path id="DejaVuSans-69" d="M 603 3500 
L 1178 3500 
L 1178 0 
L 603 0 
L 603 3500 
z
M 603 4863 
L 1178 4863 
L 1178 4134 
L 603 4134 
L 603 4863 
z
" transform="scale(0.015625)"/>
       <path id="DejaVuSans-6d" d="M 3328 2828 
Q 3544 3216 3844 3400 
Q 4144 3584 4550 3584 
Q 5097 3584 5394 3201 
Q 5691 2819 5691 2113 
L 5691 0 
L 5113 0 
L 5113 2094 
Q 5113 2597 4934 2840 
Q 4756 3084 4391 3084 
Q 3944 3084 3684 2787 
Q 3425 2491 3425 1978 
L 3425 0 
L 2847 0 
L 2847 2094 
Q 2847 2600 2669 2842 
Q 2491 3084 2119 3084 
Q 1678 3084 1418 2786 
Q 1159 2488 1159 1978 
L 1159 0 
L 581 0 
L 581 3500 
L 1159 3500 
L 1159 2956 
Q 1356 3278 1631 3431 
Q 1906 3584 2284 3584 
Q 2666 3584 2933 3390 
Q 3200 3197 3328 2828 
z
" transform="scale(0.015625)"/>
       <path id="DejaVuSans-6e" d="M 3513 2113 
L 3513 0 
L 2938 0 
L 2938 2094 
Q 2938 2591 2744 2837 
Q 2550 3084 2163 3084 
Q 1697 3084 1428 2787 
Q 1159 2491 1159 1978 
L 1159 0 
L 581 0 
L 581 3500 
L 1159 3500 
L 1159 2956 
Q 1366 3272 1645 3428 
Q 1925 3584 2291 3584 
Q 2894 3584 3203 3211 
Q 3513 2838 3513 2113 
z
" transform="scale(0.015625)"/>
       <path id="DejaVuSans-29" d="M 513 4856 
L 1013 4856 
Q 1481 4119 1714 3412 
Q 1947 2706 1947 2009 
Q 1947 1309 1714 600 
Q 1481 -109 1013 -844 
L 513 -844 
Q 928 -128 1133 580 
Q 1338 1288 1338 2009 
Q 1338 2731 1133 3434 
Q 928 4138 513 4856 
z
" transform="scale(0.015625)"/>
      </defs>
      <use xlink:href="#DejaVuSans-6c"/>
      <use xlink:href="#DejaVuSans-6f" x="27.783203"/>
      <use xlink:href="#DejaVuSans-67" x="88.964844"/>
      <use xlink:href="#DejaVuSans-31" x="152.441406"/>
      <use xlink:href="#DejaVuSans-30" x="216.064453"/>
      <use xlink:href="#DejaVuSans-28" x="279.6875"/>
      <use xlink:href="#DejaVuSans-23" x="318.701172"/>
      <use xlink:href="#DejaVuSans-20" x="402.490234"/>
      <use xlink:href="#DejaVuSans-66" x="434.277344"/>
      <use xlink:href="#DejaVuSans-2d" x="463.982422"/>
      <use xlink:href="#DejaVuSans-65" x="500.066406"/>
      <use xlink:href="#DejaVuSans-76" x="561.589844"/>
      <use xlink:href="#DejaVuSans-61" x="620.769531"/>
      <use xlink:href="#DejaVuSans-6c" x="682.048828"/>
      <use xlink:href="#DejaVuSans-73" x="709.832031"/>
      <use xlink:href="#DejaVuSans-20" x="761.931641"/>
      <use xlink:href="#DejaVuSans-2f" x="793.71875"/>
      <use xlink:href="#DejaVuSans-20" x="827.410156"/>
      <use xlink:href="#DejaVuSans-64" x="859.197266"/>
      <use xlink:href="#DejaVuSans-69" x="922.673828"/>
      <use xlink:href="#DejaVuSans-6d" x="950.457031"/>
      <use xlink:href="#DejaVuSans-65" x="1047.869141"/>
      <use xlink:href="#DejaVuSans-6e" x="1109.392578"/>
      <use xlink:href="#DejaVuSans-73" x="1172.771484"/>
      <use xlink:href="#DejaVuSans-69" x="1224.871094"/>
      <use xlink:href="#DejaVuSans-6f" x="1252.654297"/>
      <use xlink:href="#DejaVuSans-6e" x="1313.835938"/>
      <use xlink:href="#DejaVuSans-29" x="1377.214844"/>
     </g>
    </g>
   </g>
   <g id="matplotlib.axis_2">
    <g id="ytick_1">
     <g id="line2d_21">
      <path d="M 57.6 298.944 
L 360.8064 298.944 
" clip-path="url(#p605de726ef)" style="fill: none; stroke: #b0b0b0; stroke-width: 0.8; stroke-linecap: square"/>
     </g>
     <g id="line2d_22">
      <defs>
       <path id="m68fd5fb0fe" d="M 0 0 
L -3.5 0 
" style="stroke: #000000; stroke-width: 0.8"/>
      </defs>
      <g>
       <use xlink:href="#m68fd5fb0fe" x="57.6" y="298.944" style="stroke: #000000; stroke-width: 0.8"/>
      </g>
     </g>
     <g id="text_6">
      <!-- 0.0 -->
      <g transform="translate(25.155 305.02275)scale(0.16 -0.16)">
       <defs>
        <path id="DejaVuSans-2e" d="M 684 794 
L 1344 794 
L 1344 0 
L 684 0 
L 684 794 
z
" transform="scale(0.015625)"/>
       </defs>
       <use xlink:href="#DejaVuSans-30"/>
       <use xlink:href="#DejaVuSans-2e" x="63.623047"/>
       <use xlink:href="#DejaVuSans-30" x="95.410156"/>
      </g>
     </g>
    </g>
    <g id="ytick_2">
     <g id="line2d_23">
      <path d="M 57.6 244.6848 
L 360.8064 244.6848 
" clip-path="url(#p605de726ef)" style="fill: none; stroke: #b0b0b0; stroke-width: 0.8; stroke-linecap: square"/>
     </g>
     <g id="line2d_24">
      <g>
       <use xlink:href="#m68fd5fb0fe" x="57.6" y="244.6848" style="stroke: #000000; stroke-width: 0.8"/>
      </g>
     </g>
     <g id="text_7">
      <!-- 0.2 -->
      <g transform="translate(25.155 250.76355)scale(0.16 -0.16)">
       <use xlink:href="#DejaVuSans-30"/>
       <use xlink:href="#DejaVuSans-2e" x="63.623047"/>
       <use xlink:href="#DejaVuSans-32" x="95.410156"/>
      </g>
     </g>
    </g>
    <g id="ytick_3">
     <g id="line2d_25">
      <path d="M 57.6 190.4256 
L 360.8064 190.4256 
" clip-path="url(#p605de726ef)" style="fill: none; stroke: #b0b0b0; stroke-width: 0.8; stroke-linecap: square"/>
     </g>
     <g id="line2d_26">
      <g>
       <use xlink:href="#m68fd5fb0fe" x="57.6" y="190.4256" style="stroke: #000000; stroke-width: 0.8"/>
      </g>
     </g>
     <g id="text_8">
      <!-- 0.4 -->
      <g transform="translate(25.155 196.50435)scale(0.16 -0.16)">
       <use xlink:href="#DejaVuSans-30"/>
       <use xlink:href="#DejaVuSans-2e" x="63.623047"/>
       <use xlink:href="#DejaVuSans-34" x="95.410156"/>
      </g>
     </g>
    </g>
    <g id="ytick_4">
     <g id="line2d_27">
      <path d="M 57.6 136.1664 
L 360.8064 136.1664 
" clip-path="url(#p605de726ef)" style="fill: none; stroke: #b0b0b0; stroke-width: 0.8; stroke-linecap: square"/>
     </g>
     <g id="line2d_28">
      <g>
       <use xlink:href="#m68fd5fb0fe" x="57.6" y="136.1664" style="stroke: #000000; stroke-width: 0.8"/>
      </g>
     </g>
     <g id="text_9">
      <!-- 0.6 -->
      <g transform="translate(25.155 142.24515)scale(0.16 -0.16)">
       <use xlink:href="#DejaVuSans-30"/>
       <use xlink:href="#DejaVuSans-2e" x="63.623047"/>
       <use xlink:href="#DejaVuSans-36" x="95.410156"/>
      </g>
     </g>
    </g>
    <g id="ytick_5">
     <g id="line2d_29">
      <path d="M 57.6 81.9072 
L 360.8064 81.9072 
" clip-path="url(#p605de726ef)" style="fill: none; stroke: #b0b0b0; stroke-width: 0.8; stroke-linecap: square"/>
     </g>
     <g id="line2d_30">
      <g>
       <use xlink:href="#m68fd5fb0fe" x="57.6" y="81.9072" style="stroke: #000000; stroke-width: 0.8"/>
      </g>
     </g>
     <g id="text_10">
      <!-- 0.8 -->
      <g transform="translate(25.155 87.98595)scale(0.16 -0.16)">
       <defs>
        <path id="DejaVuSans-38" d="M 2034 2216 
Q 1584 2216 1326 1975 
Q 1069 1734 1069 1313 
Q 1069 891 1326 650 
Q 1584 409 2034 409 
Q 2484 409 2743 651 
Q 3003 894 3003 1313 
Q 3003 1734 2745 1975 
Q 2488 2216 2034 2216 
z
M 1403 2484 
Q 997 2584 770 2862 
Q 544 3141 544 3541 
Q 544 4100 942 4425 
Q 1341 4750 2034 4750 
Q 2731 4750 3128 4425 
Q 3525 4100 3525 3541 
Q 3525 3141 3298 2862 
Q 3072 2584 2669 2484 
Q 3125 2378 3379 2068 
Q 3634 1759 3634 1313 
Q 3634 634 3220 271 
Q 2806 -91 2034 -91 
Q 1263 -91 848 271 
Q 434 634 434 1313 
Q 434 1759 690 2068 
Q 947 2378 1403 2484 
z
M 1172 3481 
Q 1172 3119 1398 2916 
Q 1625 2713 2034 2713 
Q 2441 2713 2670 2916 
Q 2900 3119 2900 3481 
Q 2900 3844 2670 4047 
Q 2441 4250 2034 4250 
Q 1625 4250 1398 4047 
Q 1172 3844 1172 3481 
z
" transform="scale(0.015625)"/>
       </defs>
       <use xlink:href="#DejaVuSans-30"/>
       <use xlink:href="#DejaVuSans-2e" x="63.623047"/>
       <use xlink:href="#DejaVuSans-38" x="95.410156"/>
      </g>
     </g>
    </g>
    <g id="ytick_6">
     <g id="line2d_31">
      <path d="M 57.6 27.648 
L 360.8064 27.648 
" clip-path="url(#p605de726ef)" style="fill: none; stroke: #b0b0b0; stroke-width: 0.8; stroke-linecap: square"/>
     </g>
     <g id="line2d_32">
      <g>
       <use xlink:href="#m68fd5fb0fe" x="57.6" y="27.648" style="stroke: #000000; stroke-width: 0.8"/>
      </g>
     </g>
     <g id="text_11">
      <!-- 1.0 -->
      <g transform="translate(25.155 33.72675)scale(0.16 -0.16)">
       <use xlink:href="#DejaVuSans-31"/>
       <use xlink:href="#DejaVuSans-2e" x="63.623047"/>
       <use xlink:href="#DejaVuSans-30" x="95.410156"/>
      </g>
     </g>
    </g>
    <g id="text_12">
     <!-- Fraction of function,target pairs -->
     <g transform="translate(17.619531 297.681)rotate(-90)scale(0.17 -0.17)">
      <defs>
       <path id="DejaVuSans-46" d="M 628 4666 
L 3309 4666 
L 3309 4134 
L 1259 4134 
L 1259 2759 
L 3109 2759 
L 3109 2228 
L 1259 2228 
L 1259 0 
L 628 0 
L 628 4666 
z
" transform="scale(0.015625)"/>
       <path id="DejaVuSans-72" d="M 2631 2963 
Q 2534 3019 2420 3045 
Q 2306 3072 2169 3072 
Q 1681 3072 1420 2755 
Q 1159 2438 1159 1844 
L 1159 0 
L 581 0 
L 581 3500 
L 1159 3500 
L 1159 2956 
Q 1341 3275 1631 3429 
Q 1922 3584 2338 3584 
Q 2397 3584 2469 3576 
Q 2541 3569 2628 3553 
L 2631 2963 
z
" transform="scale(0.015625)"/>
       <path id="DejaVuSans-63" d="M 3122 3366 
L 3122 2828 
Q 2878 2963 2633 3030 
Q 2388 3097 2138 3097 
Q 1578 3097 1268 2742 
Q 959 2388 959 1747 
Q 959 1106 1268 751 
Q 1578 397 2138 397 
Q 2388 397 2633 464 
Q 2878 531 3122 666 
L 3122 134 
Q 2881 22 2623 -34 
Q 2366 -91 2075 -91 
Q 1284 -91 818 406 
Q 353 903 353 1747 
Q 353 2603 823 3093 
Q 1294 3584 2113 3584 
Q 2378 3584 2631 3529 
Q 2884 3475 3122 3366 
z
" transform="scale(0.015625)"/>
       <path id="DejaVuSans-74" d="M 1172 4494 
L 1172 3500 
L 2356 3500 
L 2356 3053 
L 1172 3053 
L 1172 1153 
Q 1172 725 1289 603 
Q 1406 481 1766 481 
L 2356 481 
L 2356 0 
L 1766 0 
Q 1100 0 847 248 
Q 594 497 594 1153 
L 594 3053 
L 172 3053 
L 172 3500 
L 594 3500 
L 594 4494 
L 1172 4494 
z
" transform="scale(0.015625)"/>
       <path id="DejaVuSans-75" d="M 544 1381 
L 544 3500 
L 1119 3500 
L 1119 1403 
Q 1119 906 1312 657 
Q 1506 409 1894 409 
Q 2359 409 2629 706 
Q 2900 1003 2900 1516 
L 2900 3500 
L 3475 3500 
L 3475 0 
L 2900 0 
L 2900 538 
Q 2691 219 2414 64 
Q 2138 -91 1772 -91 
Q 1169 -91 856 284 
Q 544 659 544 1381 
z
M 1991 3584 
L 1991 3584 
z
" transform="scale(0.015625)"/>
       <path id="DejaVuSans-2c" d="M 750 794 
L 1409 794 
L 1409 256 
L 897 -744 
L 494 -744 
L 750 256 
L 750 794 
z
" transform="scale(0.015625)"/>
       <path id="DejaVuSans-70" d="M 1159 525 
L 1159 -1331 
L 581 -1331 
L 581 3500 
L 1159 3500 
L 1159 2969 
Q 1341 3281 1617 3432 
Q 1894 3584 2278 3584 
Q 2916 3584 3314 3078 
Q 3713 2572 3713 1747 
Q 3713 922 3314 415 
Q 2916 -91 2278 -91 
Q 1894 -91 1617 61 
Q 1341 213 1159 525 
z
M 3116 1747 
Q 3116 2381 2855 2742 
Q 2594 3103 2138 3103 
Q 1681 3103 1420 2742 
Q 1159 2381 1159 1747 
Q 1159 1113 1420 752 
Q 1681 391 2138 391 
Q 2594 391 2855 752 
Q 3116 1113 3116 1747 
z
" transform="scale(0.015625)"/>
      </defs>
      <use xlink:href="#DejaVuSans-46"/>
      <use xlink:href="#DejaVuSans-72" x="50.269531"/>
      <use xlink:href="#DejaVuSans-61" x="91.382812"/>
      <use xlink:href="#DejaVuSans-63" x="152.662109"/>
      <use xlink:href="#DejaVuSans-74" x="207.642578"/>
      <use xlink:href="#DejaVuSans-69" x="246.851562"/>
      <use xlink:href="#DejaVuSans-6f" x="274.634766"/>
      <use xlink:href="#DejaVuSans-6e" x="335.816406"/>
      <use xlink:href="#DejaVuSans-20" x="399.195312"/>
      <use xlink:href="#DejaVuSans-6f" x="430.982422"/>
      <use xlink:href="#DejaVuSans-66" x="492.164062"/>
      <use xlink:href="#DejaVuSans-20" x="527.369141"/>
      <use xlink:href="#DejaVuSans-66" x="559.15625"/>
      <use xlink:href="#DejaVuSans-75" x="594.361328"/>
      <use xlink:href="#DejaVuSans-6e" x="657.740234"/>
      <use xlink:href="#DejaVuSans-63" x="721.119141"/>
      <use xlink:href="#DejaVuSans-74" x="776.099609"/>
      <use xlink:href="#DejaVuSans-69" x="815.308594"/>
      <use xlink:href="#DejaVuSans-6f" x="843.091797"/>
      <use xlink:href="#DejaVuSans-6e" x="904.273438"/>
      <use xlink:href="#DejaVuSans-2c" x="967.652344"/>
      <use xlink:href="#DejaVuSans-74" x="999.439453"/>
      <use xlink:href="#DejaVuSans-61" x="1038.648438"/>
      <use xlink:href="#DejaVuSans-72" x="1099.927734"/>
      <use xlink:href="#DejaVuSans-67" x="1139.291016"/>
      <use xlink:href="#DejaVuSans-65" x="1202.767578"/>
      <use xlink:href="#DejaVuSans-74" x="1264.291016"/>
      <use xlink:href="#DejaVuSans-20" x="1303.5"/>
      <use xlink:href="#DejaVuSans-70" x="1335.287109"/>
      <use xlink:href="#DejaVuSans-61" x="1398.763672"/>
      <use xlink:href="#DejaVuSans-69" x="1460.042969"/>
      <use xlink:href="#DejaVuSans-72" x="1487.826172"/>
      <use xlink:href="#DejaVuSans-73" x="1528.939453"/>
     </g>
    </g>
   </g>
   <g id="line2d_33">
    <defs>
     <path id="m5984c2c329" d="M 0 1.5 
C 0.397805 1.5 0.77937 1.341951 1.06066 1.06066 
C 1.341951 0.77937 1.5 0.397805 1.5 0 
C 1.5 -0.397805 1.341951 -0.77937 1.06066 -1.06066 
C 0.77937 -1.341951 0.397805 -1.5 0 -1.5 
C -0.397805 -1.5 -0.77937 -1.341951 -1.06066 -1.06066 
C -1.341951 -0.77937 -1.5 -0.397805 -1.5 0 
C -1.5 0.397805 -1.341951 0.77937 -1.06066 1.06066 
C -0.77937 1.341951 -0.397805 1.5 0 1.5 
z
" style="stroke: #f5deb3"/>
    </defs>
    <g>
     <use xlink:href="#m5984c2c329" x="277.476502" y="27.648" style="fill: #f5deb3; stroke: #f5deb3"/>
     <use xlink:href="#m5984c2c329" x="277.476502" y="27.648" style="fill: #f5deb3; stroke: #f5deb3"/>
    </g>
   </g>
   <g id="line2d_34">
    <defs>
     <path id="mfc062f4c9b" d="M 0 1.5 
C 0.397805 1.5 0.77937 1.341951 1.06066 1.06066 
C 1.341951 0.77937 1.5 0.397805 1.5 0 
C 1.5 -0.397805 1.341951 -0.77937 1.06066 -1.06066 
C 0.77937 -1.341951 0.397805 -1.5 0 -1.5 
C -0.397805 -1.5 -0.77937 -1.341951 -1.06066 -1.06066 
C -1.341951 -0.77937 -1.5 -0.397805 -1.5 0 
C -1.5 0.397805 -1.341951 0.77937 -1.06066 1.06066 
C -0.77937 1.341951 -0.397805 1.5 0 1.5 
z
" style="stroke: #000080"/>
    </defs>
    <g>
     <use xlink:href="#mfc062f4c9b" x="295.354684" y="229.790118" style="fill: #000080; stroke: #000080"/>
     <use xlink:href="#mfc062f4c9b" x="295.354684" y="229.790118" style="fill: #000080; stroke: #000080"/>
    </g>
   </g>
   <g id="line2d_35">
    <path d="M 36.933397 298.944 
L 36.933397 288.304941 
L 49.972572 288.304941 
L 49.972572 285.964348 
L 57.6 285.964348 
L 57.6 284.900442 
L 63.011746 284.900442 
L 63.011746 284.049318 
L 67.209423 284.049318 
L 67.209423 282.559849 
L 70.639174 282.559849 
L 70.639174 282.347068 
L 73.538988 282.347068 
L 73.538988 281.495944 
L 76.050921 281.495944 
L 76.050921 281.283162 
L 78.266603 281.283162 
L 78.266603 280.432038 
L 82.04153 280.432038 
L 82.04153 280.006475 
L 86.578163 280.006475 
L 86.578163 279.509986 
L 91.305777 279.509986 
L 91.305777 279.013496 
L 93.287772 279.013496 
L 93.287772 278.587934 
L 94.205591 278.587934 
L 94.205591 277.949591 
L 95.080704 277.949591 
L 95.080704 277.736809 
L 96.717523 277.665882 
L 96.717523 277.453101 
L 98.933205 277.453101 
L 98.933205 277.027539 
L 99.617337 277.027539 
L 99.617337 276.814758 
L 100.277459 276.814758 
L 100.277459 276.601976 
L 101.532027 276.601976 
L 101.532027 276.176414 
L 102.12927 276.176414 
L 102.12927 275.963633 
L 103.815014 275.963633 
L 103.815014 275.750852 
L 104.344952 275.750852 
L 104.344952 275.467144 
L 106.326946 275.467144 
L 106.326946 275.041581 
L 107.244765 275.041581 
L 107.244765 274.8288 
L 110.144579 274.757873 
L 110.144579 274.545092 
L 112.317555 274.474165 
L 112.317555 274.261384 
L 112.989468 274.261384 
L 112.989468 273.126551 
L 114.265316 273.126551 
L 114.265316 272.700988 
L 115.747307 272.700988 
L 115.747307 272.204499 
L 116.030193 272.204499 
L 116.030193 272.062645 
L 116.308887 272.062645 
L 116.308887 271.920791 
L 118.152051 271.849864 
L 118.152051 271.637082 
L 118.64712 271.637082 
L 118.64712 271.495228 
L 122.399825 271.424301 
L 122.399825 271.140593 
L 122.795872 271.140593 
L 122.795872 270.715031 
L 124.119844 270.644104 
L 124.119844 270.573176 
L 124.3016 270.573176 
L 124.3016 270.147614 
L 125.184934 270.076687 
L 125.184934 270.00576 
L 125.862901 270.00576 
L 125.862901 269.863906 
L 126.355808 269.863906 
L 126.355808 269.651125 
L 126.517282 269.651125 
L 126.517282 269.438344 
L 127.761474 269.367416 
L 127.761474 269.296489 
L 127.911368 269.296489 
L 127.911368 269.083708 
L 128.060076 269.083708 
L 128.060076 268.870927 
L 129.348062 268.8 
L 129.348062 268.729073 
L 130.4233 268.658146 
L 130.4233 268.019802 
L 130.811181 268.019802 
L 130.811181 267.59424 
L 131.563744 267.59424 
L 131.563744 267.310532 
L 132.287354 267.239605 
L 132.287354 267.026824 
L 132.869802 266.955896 
L 132.869802 266.884969 
L 133.765759 266.814042 
L 133.765759 266.743115 
L 134.725196 266.672188 
L 134.725196 266.601261 
L 135.136394 266.601261 
L 135.136394 266.38848 
L 135.638065 266.317553 
L 135.638065 266.246626 
L 136.508678 266.175699 
L 136.602972 265.679209 
L 136.97549 265.679209 
L 137.067478 265.395501 
L 138.566146 265.324574 
L 138.566146 265.253647 
L 139.475893 265.18272 
L 139.475893 264.969939 
L 140.420604 264.969939 
L 140.420604 264.828085 
L 141.173167 264.757158 
L 141.173167 264.686231 
L 143.462475 264.686231 
L 143.462475 264.473449 
L 144.602918 264.402522 
L 144.602918 264.331595 
L 146.24998 264.260668 
L 146.24998 264.189741 
L 148.226342 264.118814 
L 148.226342 264.047887 
L 148.478174 264.047887 
L 148.478174 263.835106 
L 149.595059 263.764179 
L 149.595059 263.622325 
L 150.604701 263.622325 
L 150.604701 263.196762 
L 152.189318 263.125835 
L 152.189318 263.054908 
L 152.352898 263.054908 
L 152.352898 262.842127 
L 153.228011 262.7712 
L 153.228011 262.700273 
L 153.344252 262.700273 
L 153.344252 262.487492 
L 153.802162 262.487492 
L 153.802162 262.345638 
L 154.721776 262.274711 
L 154.721776 262.061929 
L 155.735085 261.991002 
L 155.735085 261.920075 
L 156.038776 261.920075 
L 156.038776 261.707294 
L 156.631834 261.636367 
L 156.631834 261.56544 
L 160.329943 261.494513 
L 160.329943 261.281732 
L 161.492316 261.210805 
L 161.492316 261.139878 
L 162.657792 261.068951 
L 162.657792 260.998024 
L 163.237368 260.998024 
L 163.237368 260.785242 
L 164.150838 260.714315 
L 164.150838 260.501534 
L 167.380174 260.430607 
L 167.380174 260.35968 
L 169.128092 260.288753 
L 169.128092 260.217826 
L 170.324419 260.146899 
L 170.324419 260.075972 
L 171.669213 260.005045 
L 171.669213 259.792264 
L 172.328329 259.721336 
L 172.328329 259.650409 
L 178.144042 259.650409 
L 178.144042 259.437628 
L 179.480453 259.437628 
L 179.480453 259.224847 
L 182.571832 259.15392 
L 182.571832 259.082993 
L 186.914345 259.082993 
L 186.914345 258.657431 
L 187.210292 258.586504 
L 187.267654 258.302795 
L 187.445003 258.302795 
L 187.445003 258.231868 
L 187.501655 258.019087 
L 187.991745 258.019087 
L 188.046776 257.664452 
L 188.325561 257.593525 
L 188.325561 257.522598 
L 188.78317 257.522598 
L 188.824224 257.309816 
L 189.039748 257.238889 
L 189.103349 257.097035 
L 189.761282 257.026108 
L 189.861343 256.884254 
L 190.054397 256.813327 
L 190.054397 256.7424 
L 190.765164 256.671473 
L 190.765164 256.600546 
L 191.131465 256.529619 
L 191.147005 256.033129 
L 191.36835 255.962202 
L 191.434759 255.749421 
L 192.140369 255.678494 
L 192.228571 255.323859 
L 192.374662 255.252932 
L 192.374662 255.182005 
L 192.815728 255.111078 
L 192.815728 255.040151 
L 193.329865 254.969224 
L 193.329865 254.898296 
L 193.618117 254.827369 
L 193.667997 254.685515 
L 194.115486 254.614588 
L 194.115486 254.543661 
L 195.214785 254.472734 
L 195.214785 254.401807 
L 200.294096 254.33088 
L 200.294096 254.259953 
L 200.430516 254.259953 
L 200.487329 253.976245 
L 201.058455 253.905318 
L 201.058455 253.834391 
L 201.256137 253.763464 
L 201.346679 253.621609 
L 201.45775 253.550682 
L 201.45775 253.479755 
L 201.953986 253.408828 
L 201.953986 253.337901 
L 202.420412 253.266974 
L 202.482871 253.054193 
L 202.808815 252.983266 
L 202.814386 252.841412 
L 203.066114 252.770485 
L 203.142896 252.557704 
L 203.262923 252.486776 
L 203.371379 252.344922 
L 204.268845 252.273995 
L 204.363977 252.132141 
L 205.757513 252.061214 
L 205.757513 251.990287 
L 206.488536 251.91936 
L 206.573103 251.351944 
L 206.630029 251.351944 
L 206.630029 251.139162 
L 207.225281 251.139162 
L 207.306607 250.855454 
L 207.472561 250.855454 
L 207.472561 250.642673 
L 207.658601 250.642673 
L 207.738079 250.288038 
L 208.029473 250.217111 
L 208.120009 250.075256 
L 208.274803 250.004329 
L 208.278969 249.862475 
L 208.745914 249.791548 
L 208.812841 249.578767 
L 209.270828 249.50784 
L 209.306359 249.365986 
L 209.762254 249.295059 
L 209.762254 249.224132 
L 210.46686 249.153205 
L 210.46686 249.082278 
L 212.413223 249.011351 
L 212.464979 248.727642 
L 213.347594 248.656715 
L 213.347594 248.585788 
L 213.623949 248.514861 
L 213.714652 248.231153 
L 214.204332 248.160226 
L 214.251393 248.018372 
L 214.514875 247.947445 
L 214.571604 247.805591 
L 215.093466 247.734664 
L 215.190354 247.592809 
L 215.827085 247.521882 
L 215.839631 247.167247 
L 216.295298 247.09632 
L 216.295298 247.025393 
L 216.573413 246.954466 
L 216.573413 246.883539 
L 217.026247 246.812612 
L 217.026247 246.741685 
L 217.277063 246.670758 
L 217.277063 246.599831 
L 218.058409 246.528904 
L 218.058409 246.457976 
L 218.322802 246.457976 
L 218.423884 245.89056 
L 218.46877 245.819633 
L 218.530465 245.606852 
L 218.733471 245.535925 
L 218.799069 245.323144 
L 218.918937 245.252216 
L 219.02864 245.110362 
L 219.129519 245.039435 
L 219.210067 244.897581 
L 219.539161 244.826654 
L 219.539161 244.755727 
L 221.17598 244.6848 
L 221.17598 244.613873 
L 221.714864 244.542946 
L 221.760692 244.330165 
L 222.067398 244.259238 
L 222.067398 244.188311 
L 222.322841 244.117384 
L 222.331724 243.975529 
L 224.826875 243.904602 
L 224.856234 243.762748 
L 225.343413 243.691821 
L 225.413068 243.47904 
L 226.255065 243.408113 
L 226.364483 243.266259 
L 227.014113 243.195332 
L 227.014113 243.124405 
L 228.106525 243.053478 
L 228.165957 242.344207 
L 228.358181 242.27328 
L 228.358181 242.202353 
L 228.715764 242.131426 
L 228.787312 241.989572 
L 230.189298 241.918645 
L 230.237973 241.493082 
L 230.43912 241.422155 
L 230.43912 241.351228 
L 230.771547 241.280301 
L 230.771547 241.209374 
L 232.064873 241.138447 
L 232.064873 241.06752 
L 233.864061 240.996593 
L 233.907841 240.854739 
L 237.852649 240.783812 
L 237.852649 240.712885 
L 238.793001 240.641958 
L 238.833267 240.500104 
L 239.633589 240.429176 
L 239.633589 240.358249 
L 239.880941 240.287322 
L 239.880941 240.216395 
L 240.17445 240.145468 
L 240.17445 240.074541 
L 241.167465 240.003614 
L 241.167465 239.932687 
L 242.282983 239.86176 
L 242.309955 239.719906 
L 242.576228 239.719906 
L 242.621249 239.365271 
L 242.802259 239.294344 
L 242.837125 239.152489 
L 243.455515 239.081562 
L 243.455515 239.010635 
L 243.715345 238.939708 
L 243.715345 238.868781 
L 244.081878 238.797854 
L 244.081878 238.726927 
L 244.622999 238.656 
L 244.622999 238.585073 
L 244.973018 238.514146 
L 244.973018 238.443219 
L 245.529163 238.372292 
L 245.610068 238.159511 
L 246.06766 238.088584 
L 246.06766 238.017656 
L 247.238583 237.946729 
L 247.238583 237.875802 
L 248.184485 237.804875 
L 248.184485 237.733948 
L 248.915353 237.663021 
L 248.961166 237.521167 
L 250.659275 237.45024 
L 250.727881 237.166532 
L 251.239272 237.095605 
L 251.324823 236.882824 
L 251.388732 236.811896 
L 251.445919 236.599115 
L 251.582294 236.528188 
L 251.582294 236.457261 
L 252.076143 236.386334 
L 252.076143 236.315407 
L 253.253521 236.24448 
L 253.253521 236.173553 
L 254.388837 236.102626 
L 254.388837 236.031699 
L 255.529766 235.960772 
L 255.529766 235.889845 
L 256.350643 235.818918 
L 256.350643 235.747991 
L 256.834454 235.677064 
L 256.837607 235.535209 
L 257.515427 235.464282 
L 257.515427 235.393355 
L 257.708428 235.322428 
L 257.771225 235.109647 
L 258.227583 235.03872 
L 258.227583 234.967793 
L 258.739206 234.896866 
L 258.739206 234.825939 
L 259.114936 234.755012 
L 259.21382 234.542231 
L 259.981656 234.471304 
L 259.981656 234.400376 
L 260.710656 234.329449 
L 260.710656 234.258522 
L 261.397248 234.187595 
L 261.398361 234.045741 
L 261.911853 233.974814 
L 261.911853 233.903887 
L 262.558437 233.83296 
L 262.558437 233.762033 
L 263.321156 233.691106 
L 263.358415 233.549252 
L 265.195436 233.478325 
L 265.195436 233.407398 
L 265.858963 233.336471 
L 265.874568 233.194616 
L 266.496486 233.123689 
L 266.496486 233.052762 
L 267.012252 232.981835 
L 267.012252 232.910908 
L 268.134987 232.839981 
L 268.161595 232.698127 
L 268.390521 232.6272 
L 268.390521 232.556273 
L 268.858659 232.485346 
L 268.958221 232.343492 
L 270.993011 232.272565 
L 270.993011 232.201638 
L 272.434434 232.130711 
L 272.434434 232.059784 
L 273.246769 231.988856 
L 273.267378 231.847002 
L 273.864869 231.776075 
L 273.864869 231.705148 
L 274.566092 231.634221 
L 274.566092 231.563294 
L 275.397769 231.492367 
L 275.397769 231.42144 
L 275.889071 231.350513 
L 275.889071 231.279586 
L 278.265816 231.208659 
L 278.265816 231.137732 
L 278.95187 231.066805 
L 278.95187 230.995878 
L 280.53394 230.924951 
L 280.53394 230.854024 
L 282.463654 230.783096 
L 282.463654 230.712169 
L 284.353666 230.641242 
L 284.353666 230.570315 
L 285.412323 230.499388 
L 285.412323 230.428461 
L 286.304512 230.357534 
L 286.304512 230.286607 
L 287.905799 230.21568 
L 287.905799 230.144753 
L 289.960179 230.073826 
L 289.960179 230.002899 
L 290.486083 229.931972 
L 290.486083 229.861045 
L 360.8064 229.790118 
L 360.8064 229.790118 
" style="fill: none; stroke: #000080; stroke-width: 1.5; stroke-linecap: square"/>
   </g>
   <g id="line2d_36">
    <defs>
     <path id="m963972e48b" d="M 0 6 
C 1.591219 6 3.117479 5.367802 4.242641 4.242641 
C 5.367802 3.117479 6 1.591219 6 0 
C 6 -1.591219 5.367802 -3.117479 4.242641 -4.242641 
C 3.117479 -5.367802 1.591219 -6 0 -6 
C -1.591219 -6 -3.117479 -5.367802 -4.242641 -4.242641 
C -5.367802 -3.117479 -6 -1.591219 -6 0 
C -6 1.591219 -5.367802 3.117479 -4.242641 4.242641 
C -3.117479 5.367802 -1.591219 6 0 6 
z
" style="stroke: #000080; stroke-width: 1.5"/>
    </defs>
    <g>
     <use xlink:href="#m963972e48b" x="67.209423" y="282.559849" style="fill-opacity: 0; stroke: #000080; stroke-width: 1.5"/>
     <use xlink:href="#m963972e48b" x="135.136394" y="266.601261" style="fill-opacity: 0; stroke: #000080; stroke-width: 1.5"/>
     <use xlink:href="#m963972e48b" x="229.525276" y="241.989572" style="fill-opacity: 0; stroke: #000080; stroke-width: 1.5"/>
     <use xlink:href="#m963972e48b" x="290.486083" y="229.861045" style="fill-opacity: 0; stroke: #000080; stroke-width: 1.5"/>
     <use xlink:href="#m963972e48b" x="295.354684" y="229.790118" style="fill-opacity: 0; stroke: #000080; stroke-width: 1.5"/>
     <use xlink:href="#m963972e48b" x="360.8064" y="229.790118" style="fill-opacity: 0; stroke: #000080; stroke-width: 1.5"/>
    </g>
   </g>
   <g id="line2d_37">
    <path style="fill: none; stroke: #000080; stroke-width: 1.5; stroke-linecap: square"/>
    <g/>
   </g>
   <g id="line2d_38">
    <path d="M 144.417581 264.402522 
" clip-path="url(#p605de726ef)" style="fill: none; stroke: #000080; stroke-width: 1.5; stroke-linecap: square"/>
    <defs>
     <path id="mbe82ccae23" d="M -12 12 
L 12 -12 
M -12 -12 
L 12 12 
" style="stroke: #000080"/>
    </defs>
    <g clip-path="url(#p605de726ef)">
     <use xlink:href="#mbe82ccae23" x="144.417581" y="264.402522" style="fill: #000080; stroke: #000080"/>
    </g>
   </g>
   <g id="line2d_39">
    <defs>
     <path id="m2bcb44f0b0" d="M 0 1.5 
C 0.397805 1.5 0.77937 1.341951 1.06066 1.06066 
C 1.341951 0.77937 1.5 0.397805 1.5 0 
C 1.5 -0.397805 1.341951 -0.77937 1.06066 -1.06066 
C 0.77937 -1.341951 0.397805 -1.5 0 -1.5 
C -0.397805 -1.5 -0.77937 -1.341951 -1.06066 -1.06066 
C -1.341951 -0.77937 -1.5 -0.397805 -1.5 0 
C -1.5 0.397805 -1.341951 0.77937 -1.06066 1.06066 
C -0.77937 1.341951 -0.397805 1.5 0 1.5 
z
" style="stroke: #ff00ff"/>
    </defs>
    <g>
     <use xlink:href="#m2bcb44f0b0" x="380.931006" y="27.648" style="fill: #ff00ff; stroke: #ff00ff"/>
     <use xlink:href="#m2bcb44f0b0" x="380.931006" y="27.648" style="fill: #ff00ff; stroke: #ff00ff"/>
    </g>
   </g>
   <g id="line2d_40">
    <path d="M 36.933397 298.944 
L 36.933397 288.659576 
L 49.972572 288.659576 
L 49.972572 285.822494 
L 57.6 285.822494 
L 57.6 285.113224 
L 67.209423 285.113224 
L 67.209423 283.694682 
L 70.639174 283.694682 
L 70.639174 283.340047 
L 73.538988 283.340047 
L 73.538988 282.985412 
L 76.050921 282.985412 
L 76.050921 282.630776 
L 78.266603 282.630776 
L 78.266603 281.566871 
L 80.248597 281.566871 
L 80.248597 281.212235 
L 82.04153 281.212235 
L 82.04153 280.502965 
L 89.090095 280.502965 
L 89.090095 280.148329 
L 90.230539 280.148329 
L 90.230539 278.375153 
L 95.080704 278.375153 
L 95.080704 277.665882 
L 95.916911 277.665882 
L 95.916911 277.311247 
L 98.223251 277.311247 
L 98.223251 276.956612 
L 100.277459 276.956612 
L 100.277459 276.247341 
L 100.9152 276.247341 
L 100.9152 275.892706 
L 101.532027 275.892706 
L 101.532027 275.538071 
L 102.708132 275.538071 
L 102.708132 274.8288 
L 111.262425 274.8288 
L 111.262425 271.991718 
L 111.97238 271.991718 
L 111.97238 271.637082 
L 113.638206 271.637082 
L 113.638206 271.282447 
L 115.460102 271.282447 
L 115.460102 270.218541 
L 115.747307 270.218541 
L 115.747307 269.863906 
L 116.030193 269.863906 
L 116.030193 269.154635 
L 117.384126 269.154635 
L 117.384126 268.8 
L 119.599808 268.8 
L 119.599808 268.445365 
L 121.789667 268.445365 
L 121.789667 268.090729 
L 122.399825 268.090729 
L 122.399825 267.736094 
L 124.836562 267.736094 
L 124.836562 267.381459 
L 127.761474 267.381459 
L 127.761474 266.672188 
L 129.622688 266.672188 
L 129.622688 266.317553 
L 129.758512 266.317553 
L 129.758512 265.962918 
L 130.027253 265.962918 
L 130.027253 265.608282 
L 130.938718 265.608282 
L 130.938718 265.253647 
L 133.210806 265.253647 
L 133.210806 264.899012 
L 134.828842 264.899012 
L 134.828842 264.544376 
L 139.636676 264.544376 
L 139.636676 263.835106 
L 140.420604 263.835106 
L 140.420604 263.125835 
L 144.2304 263.125835 
L 144.2304 262.7712 
L 144.417581 262.7712 
L 144.417581 262.416565 
L 145.736128 262.416565 
L 145.736128 262.061929 
L 146.859539 262.061929 
L 146.859539 261.707294 
L 150.958812 261.707294 
L 150.958812 261.352659 
L 151.392277 261.352659 
L 151.392277 260.643388 
L 151.774035 260.643388 
L 151.774035 260.288753 
L 152.595631 260.288753 
L 152.595631 259.934118 
L 154.432362 259.934118 
L 154.432362 259.579482 
L 155.598521 259.579482 
L 155.701037 257.806306 
L 162.984551 257.806306 
L 162.984551 256.7424 
L 167.562457 256.7424 
L 167.562457 256.387765 
L 169.458999 256.387765 
L 169.458999 256.033129 
L 169.622295 256.033129 
L 169.622295 255.678494 
L 174.062287 255.678494 
L 174.062287 254.969224 
L 176.401688 254.969224 
L 176.401688 254.614588 
L 183.774156 254.614588 
L 183.774156 254.259953 
L 185.0265 254.259953 
L 185.0265 253.550682 
L 185.922457 253.550682 
L 185.922457 253.196047 
L 186.058675 253.196047 
L 186.058675 252.841412 
L 186.771142 252.841412 
L 186.771142 252.486776 
L 192.306628 252.486776 
L 192.306628 252.132141 
L 195.938947 252.132141 
L 195.938947 251.777506 
L 196.59367 251.777506 
L 196.59367 251.422871 
L 197.1249 251.422871 
L 197.1249 251.068235 
L 197.331026 251.068235 
L 197.3757 250.358965 
L 197.626869 250.358965 
L 197.626869 250.004329 
L 197.910905 250.004329 
L 198.011829 249.295059 
L 199.708765 249.295059 
L 199.708765 248.940424 
L 200.920371 248.940424 
L 200.920371 248.585788 
L 201.550308 248.585788 
L 201.550308 248.231153 
L 203.374082 248.231153 
L 203.484588 247.521882 
L 204.719641 247.521882 
L 204.794988 246.812612 
L 205.517842 246.812612 
L 205.517842 246.457976 
L 205.662011 246.457976 
L 205.662011 246.103341 
L 206.090344 246.103341 
L 206.092684 245.394071 
L 206.34828 245.394071 
L 206.43118 244.330165 
L 211.45641 244.330165 
L 211.45641 243.975529 
L 212.263838 243.975529 
L 212.263838 243.620894 
L 212.606164 243.620894 
L 212.606164 243.266259 
L 213.266286 243.266259 
L 213.266286 242.556988 
L 215.31829 242.556988 
L 215.31829 242.202353 
L 233.008358 242.202353 
L 233.008358 241.138447 
L 236.364498 241.138447 
L 236.364498 240.783812 
L 236.816718 240.783812 
L 236.816718 240.429176 
L 239.520755 240.429176 
L 239.520755 240.074541 
L 239.72384 240.074541 
L 239.72384 239.719906 
L 263.990467 239.719906 
L 263.990467 237.946729 
L 265.659255 237.946729 
L 265.722751 237.237459 
L 266.695573 237.237459 
L 266.695573 235.818918 
L 267.317912 235.818918 
L 267.317912 235.464282 
L 267.895994 235.464282 
L 267.895994 235.109647 
L 268.389413 235.109647 
L 268.485459 234.045741 
L 268.784643 234.045741 
L 268.784643 232.981835 
L 269.07133 232.981835 
L 269.177138 230.499388 
L 269.248652 230.499388 
L 269.346339 228.371576 
L 269.374041 228.371576 
L 269.469872 225.889129 
L 291.142693 225.818202 
L 291.198208 225.534494 
L 291.258188 225.534494 
L 291.345284 224.470588 
L 291.430375 224.399661 
L 291.513736 223.903172 
L 291.620137 223.832245 
L 291.706293 223.548536 
L 291.764677 223.548536 
L 291.843166 222.413704 
L 291.883768 222.342776 
L 291.986253 221.704433 
L 292.056142 221.633506 
L 292.164371 221.137016 
L 292.170371 221.066089 
L 292.243013 220.498673 
L 292.316858 220.498673 
L 292.316858 220.356819 
L 292.598706 220.285892 
L 292.654178 220.002184 
L 292.86567 219.931256 
L 292.905609 219.718475 
L 293.588805 219.647548 
L 293.588805 219.505694 
L 294.386776 219.505694 
L 294.386776 219.36384 
L 295.264585 219.292913 
L 295.264585 219.221986 
L 295.465032 219.151059 
L 295.569831 218.654569 
L 295.629701 218.654569 
L 295.732831 217.945299 
L 295.742178 217.945299 
L 295.827387 217.661591 
L 295.859948 217.661591 
L 295.962556 216.526758 
L 296.067584 216.455831 
L 296.163243 215.533779 
L 296.194548 215.462852 
L 296.299395 214.044311 
L 296.339627 214.044311 
L 296.433916 213.264113 
L 296.479227 213.264113 
L 296.575832 212.342061 
L 296.595018 212.342061 
L 296.688039 210.781666 
L 296.709761 210.781666 
L 296.815302 209.150344 
L 296.822961 209.150344 
L 296.906344 208.228292 
L 296.950158 208.157365 
L 296.997842 207.519021 
L 297.269052 207.448094 
L 297.335204 207.093459 
L 297.759607 207.022532 
L 297.843244 206.809751 
L 297.943215 206.738824 
L 297.991562 206.171407 
L 304.259986 206.10048 
L 304.362319 205.816772 
L 304.515439 205.745845 
L 304.596556 205.533064 
L 304.689552 205.462136 
L 304.797758 204.681939 
L 304.817005 204.611012 
L 304.924422 204.114522 
L 304.998768 204.043595 
L 305.089995 203.476179 
L 305.134881 203.405252 
L 305.224381 203.121544 
L 305.312474 203.050616 
L 305.363525 202.908762 
L 305.513587 202.837835 
L 305.608102 202.695981 
L 305.675228 202.625054 
L 305.734808 202.4832 
L 306.554655 202.412273 
L 306.561887 202.270419 
L 306.731819 202.199492 
L 306.842479 201.703002 
L 306.895605 201.632075 
L 306.991978 200.639096 
L 307.024886 200.568169 
L 307.13322 199.646118 
L 307.138319 199.575191 
L 307.248911 198.227576 
L 307.268605 198.156649 
L 307.370695 196.525327 
L 307.389328 196.4544 
L 307.481962 194.468442 
L 307.51006 194.397515 
L 307.613194 192.695266 
L 307.643754 192.624339 
L 307.743044 191.773214 
L 307.827218 191.702287 
L 307.933417 191.134871 
L 307.96729 191.063944 
L 308.06132 190.496527 
L 308.116052 190.4256 
L 308.222742 189.858184 
L 312.178883 189.787256 
L 312.268712 189.290767 
L 312.345919 189.21984 
L 312.453013 188.652424 
L 312.479599 188.581496 
L 312.590022 188.297788 
L 312.62929 188.226861 
L 312.681566 187.943153 
L 312.770652 187.872226 
L 312.857706 187.730372 
L 312.995393 187.659445 
L 313.105577 187.517591 
L 313.196622 187.446664 
L 313.196622 187.375736 
L 313.39038 187.304809 
L 313.404918 187.162955 
L 313.586347 187.092028 
L 313.697391 186.80832 
L 313.742148 186.737393 
L 313.835357 186.311831 
L 313.867202 186.240904 
L 313.955497 185.176998 
L 313.993446 185.106071 
L 314.084377 183.758456 
L 314.10724 183.687529 
L 314.210297 182.339915 
L 314.230226 182.268988 
L 314.330841 180.921374 
L 314.357147 180.850447 
L 314.465919 179.57376 
L 314.474482 179.502833 
L 314.585082 178.438927 
L 314.590409 178.368 
L 314.690772 177.800584 
L 314.735669 177.729656 
L 314.843493 177.091313 
L 314.93673 177.020386 
L 315.036346 176.736678 
L 317.531095 176.665751 
L 317.554288 176.523896 
L 317.924456 176.452969 
L 317.991839 176.240188 
L 318.241449 176.169261 
L 318.289145 176.027407 
L 318.652977 175.95648 
L 318.757165 175.601845 
L 318.79687 175.530918 
L 318.906217 174.396085 
L 318.919694 174.325158 
L 319.028331 173.048471 
L 319.083516 172.977544 
L 319.192388 170.991586 
L 319.210962 170.920659 
L 319.321644 169.218409 
L 319.328453 169.147482 
L 319.427906 168.154504 
L 319.45804 168.083576 
L 319.549951 167.374306 
L 319.615036 167.303379 
L 319.711234 166.735962 
L 319.741369 166.665035 
L 319.781661 166.381327 
L 319.971984 166.3104 
L 319.971984 166.239473 
L 321.769698 166.168546 
L 321.769698 166.097619 
L 322.021437 166.026692 
L 322.021437 165.955765 
L 322.182949 165.884838 
L 322.214659 165.672056 
L 322.323231 165.601129 
L 322.323231 165.530202 
L 322.533073 165.459275 
L 322.626049 165.246494 
L 322.802049 165.175567 
L 322.912961 163.757026 
L 322.923163 163.686099 
L 323.033856 161.629214 
L 323.051529 161.558287 
L 323.162088 159.501402 
L 323.173129 159.430475 
L 323.283043 157.941007 
L 323.293622 157.87008 
L 323.395429 156.948028 
L 323.423117 156.877101 
L 323.483638 156.451539 
L 323.592546 156.380612 
L 323.640016 156.238758 
L 323.797828 156.167831 
L 323.880089 156.025976 
L 325.427033 155.955049 
L 325.461208 155.813195 
L 325.638291 155.742268 
L 325.638291 155.671341 
L 325.822112 155.600414 
L 325.931571 155.387633 
L 325.961374 155.316706 
L 326.072479 154.962071 
L 326.099865 154.891144 
L 326.210134 154.110946 
L 326.217064 154.040019 
L 326.324031 152.834259 
L 326.336056 152.763332 
L 326.44569 151.344791 
L 326.458097 151.273864 
L 326.56028 150.068104 
L 326.574067 149.997176 
L 326.684518 148.649562 
L 326.692886 148.578635 
L 326.754815 148.224 
L 326.845006 148.153073 
L 326.904844 147.940292 
L 328.473329 147.869365 
L 328.473329 147.798438 
L 328.664634 147.727511 
L 328.773518 147.585656 
L 328.801114 147.514729 
L 328.903263 147.089167 
L 328.93097 147.01824 
L 329.031946 145.81248 
L 329.045084 145.741553 
L 329.147604 144.181158 
L 329.157654 144.110231 
L 329.252438 142.904471 
L 329.273764 142.833544 
L 329.376629 141.982419 
L 329.388906 141.911492 
L 329.494239 141.415002 
L 329.565187 141.344075 
L 329.64672 140.918513 
L 329.80389 140.847586 
L 329.80389 140.776659 
L 330.857752 140.705732 
L 330.95482 140.492951 
L 331.044609 140.422024 
L 331.044609 140.351096 
L 331.242553 140.280169 
L 331.343009 139.499972 
L 331.368107 139.429045 
L 331.477478 138.081431 
L 331.496477 138.010504 
L 331.606758 136.450108 
L 331.611128 136.379181 
L 331.717892 135.244348 
L 331.727592 135.173421 
L 331.815842 134.606005 
L 331.882603 134.535078 
L 331.973158 134.322296 
L 332.057272 134.251369 
L 332.057272 134.180442 
L 333.037679 134.109515 
L 333.037679 134.038588 
L 333.269566 133.967661 
L 333.379377 133.75488 
L 333.420939 133.683953 
L 333.521607 133.187464 
L 333.535538 133.116536 
L 333.645597 131.839849 
L 333.660026 131.768922 
L 333.766445 130.350381 
L 333.782514 130.279454 
L 333.889384 129.002767 
L 333.936589 128.93184 
L 334.016557 128.080715 
L 334.073263 128.009788 
L 334.159361 127.584226 
L 335.058456 127.513299 
L 335.161839 127.371445 
L 335.338785 127.300518 
L 335.448126 126.733101 
L 335.458791 126.662174 
L 335.559399 125.385487 
L 335.573861 125.31456 
L 335.680003 123.683238 
L 335.702196 123.612311 
L 335.796944 121.910061 
L 335.823363 121.839134 
L 335.92956 121.058936 
L 335.963159 120.988009 
L 336.057168 120.633374 
L 337.01735 120.562447 
L 337.01735 120.49152 
L 337.146404 120.420593 
L 337.257275 119.569468 
L 337.264893 119.498541 
L 337.369195 117.938146 
L 337.382944 117.867219 
L 337.484752 116.661459 
L 337.502979 116.590532 
L 337.604543 115.313845 
L 337.631629 115.242918 
L 337.725066 114.746428 
L 337.811829 114.675501 
L 337.908248 114.46272 
L 338.463993 114.391793 
L 338.463993 114.320866 
L 338.603067 114.249939 
L 338.603067 114.179012 
L 338.753881 114.108085 
L 338.863071 113.327887 
L 338.885244 113.25696 
L 338.995885 111.980273 
L 339.001565 111.909346 
L 339.112215 109.568753 
L 339.125415 109.497826 
L 339.2347 108.504847 
L 339.244527 108.43392 
L 339.338217 107.866504 
L 339.429373 107.795576 
L 339.470895 107.582795 
L 340.161234 107.511868 
L 340.262753 106.944452 
L 340.276968 106.873525 
L 340.384437 105.667765 
L 340.390278 105.596838 
L 340.492444 104.036442 
L 340.557685 103.965515 
L 340.656743 103.256245 
L 340.680413 103.185318 
L 340.791185 102.972536 
L 340.880291 102.901609 
L 340.893397 102.759755 
L 341.504487 102.688828 
L 341.596709 102.476047 
L 341.633407 102.40512 
L 341.737881 101.624922 
L 341.74744 101.553995 
L 341.845428 100.277308 
L 341.864098 100.206381 
L 341.967622 99.071548 
L 341.978978 99.000621 
L 342.072143 98.078569 
L 342.149879 98.007642 
L 342.149879 97.936715 
L 342.766566 97.865788 
L 342.858208 97.653007 
L 342.907012 97.58208 
L 343.015387 96.163539 
L 343.037336 96.092612 
L 343.142969 94.532216 
L 343.151791 94.461289 
L 343.25738 93.042748 
L 343.275279 92.971821 
L 343.375354 92.546259 
L 343.400494 92.475332 
L 343.436579 92.333478 
L 343.593875 92.262551 
L 343.593875 92.191624 
L 344.135036 92.120696 
L 344.225037 91.482353 
L 344.270041 91.411426 
L 344.368481 89.921958 
L 344.38397 89.851031 
L 344.488404 88.928979 
L 344.498668 88.858052 
L 344.561536 88.432489 
L 344.632905 88.361562 
L 344.632905 88.290635 
L 345.14218 88.219708 
L 345.227491 87.794146 
L 345.295572 87.723219 
L 345.398637 86.375605 
L 345.409874 86.304678 
L 345.518053 85.382626 
L 345.599536 85.311699 
L 345.617452 84.886136 
L 345.77622 84.815209 
L 345.798844 84.602428 
L 346.252925 84.531501 
L 346.355571 84.035012 
L 346.375443 83.964085 
L 346.485646 82.403689 
L 346.502038 82.332762 
L 346.607167 80.914221 
L 346.636639 80.843294 
L 346.735828 80.417732 
L 346.861074 80.346805 
L 346.861074 80.275878 
L 347.275745 80.204951 
L 347.367891 79.637534 
L 347.388588 79.566607 
L 347.498767 77.793431 
L 347.50679 77.722504 
L 347.616368 77.013233 
L 347.63056 76.942306 
L 347.740644 76.516744 
L 347.763376 76.445816 
L 347.809963 76.162108 
L 348.220395 76.091181 
L 348.330224 75.594692 
L 348.358042 75.523765 
L 348.466894 74.388932 
L 348.477484 74.318005 
L 348.572468 73.183172 
L 348.593736 73.112245 
L 348.645188 72.757609 
L 349.117671 72.686682 
L 349.225663 72.473901 
L 349.24838 72.402974 
L 349.358753 71.622776 
L 349.377268 71.551849 
L 349.487305 70.558871 
L 349.671746 70.487944 
L 349.69283 70.346089 
L 350.012068 70.275162 
L 350.097286 69.920527 
L 350.137333 69.8496 
L 350.238119 68.64384 
L 350.253366 68.572913 
L 350.346826 67.792715 
L 350.395239 67.721788 
L 350.471308 67.43808 
L 350.850243 67.367153 
L 350.959354 66.870664 
L 350.967167 66.799736 
L 351.056536 66.161393 
L 351.105059 66.090466 
L 351.176835 65.523049 
L 351.267194 65.452122 
L 351.310438 65.310268 
L 351.595291 65.239341 
L 351.699603 64.742852 
L 351.759932 64.671925 
L 351.868346 63.324311 
L 351.879681 63.253384 
L 351.989888 62.827821 
L 352.01452 62.756894 
L 352.095853 62.473186 
L 352.390404 62.402259 
L 352.498115 61.692988 
L 352.513092 61.622061 
L 352.623499 60.629082 
L 352.630858 60.558155 
L 352.735212 59.848885 
L 352.831049 59.777958 
L 352.831049 59.707031 
L 353.1389 59.636104 
L 353.247195 58.714052 
L 353.256333 58.643125 
L 353.366725 58.430344 
L 353.386302 58.359416 
L 353.490455 57.721073 
L 353.795507 57.650146 
L 353.900154 57.295511 
L 353.917717 57.224584 
L 354.005316 56.444386 
L 354.085151 56.373459 
L 354.169246 55.522334 
L 354.212307 55.451407 
L 354.224332 55.309553 
L 354.464123 55.238626 
L 354.573402 54.813064 
L 354.584215 54.742136 
L 354.694347 54.245647 
L 354.708955 54.17472 
L 354.815266 53.678231 
L 354.936561 53.607304 
L 354.936561 53.536376 
L 355.190465 53.465449 
L 355.297688 53.039887 
L 355.30725 52.96896 
L 355.388111 52.188762 
L 355.461678 52.117835 
L 355.474607 51.975981 
L 355.813322 51.905054 
L 355.907257 51.408565 
L 355.932274 51.337638 
L 356.043084 50.273732 
L 356.058468 50.202805 
L 356.12021 49.848169 
L 356.398761 49.777242 
L 356.508308 49.564461 
L 356.550396 49.493534 
L 356.654819 48.784264 
L 356.675446 48.713336 
L 356.73129 48.429628 
L 357.066108 48.358701 
L 357.172622 47.507576 
L 357.178738 47.436649 
L 357.27601 46.727379 
L 357.318552 46.656452 
L 357.351673 46.514598 
L 357.690862 46.443671 
L 357.794254 45.663473 
L 357.813737 45.592546 
L 357.870724 45.237911 
L 358.058573 45.166984 
L 358.148349 45.025129 
L 358.232343 44.954202 
L 358.321624 44.599567 
L 358.409267 44.52864 
L 358.516544 44.315859 
L 358.81042 44.244932 
L 358.887266 43.890296 
L 358.948542 43.819369 
L 359.009598 43.464734 
L 359.285256 43.393807 
L 359.38052 43.039172 
L 359.438249 42.968245 
L 359.489672 42.613609 
L 359.796229 42.542682 
L 359.879929 41.904339 
L 359.919031 41.833412 
L 359.919031 41.762485 
L 360.111826 41.691558 
L 360.111826 41.620631 
L 360.272147 41.549704 
L 360.341104 41.265995 
L 360.400626 41.195068 
L 360.46673 40.840433 
L 360.8064 40.769506 
L 360.8064 40.769506 
" style="fill: none; stroke: #ff00ff; stroke-width: 1.5; stroke-linecap: square"/>
   </g>
   <g id="line2d_41">
    <defs>
     <path id="mf950235ccb" d="M -0 8.485281 
L 5.091169 0 
L 0 -8.485281 
L -5.091169 -0 
z
" style="stroke: #ff00ff; stroke-width: 1.5; stroke-linejoin: miter"/>
    </defs>
    <g>
     <use xlink:href="#mf950235ccb" x="101.532027" y="275.538071" style="fill-opacity: 0; stroke: #ff00ff; stroke-width: 1.5; stroke-linejoin: miter"/>
     <use xlink:href="#mf950235ccb" x="169.622295" y="255.678494" style="fill-opacity: 0; stroke: #ff00ff; stroke-width: 1.5; stroke-linejoin: miter"/>
     <use xlink:href="#mf950235ccb" x="266.695573" y="237.237459" style="fill-opacity: 0; stroke: #ff00ff; stroke-width: 1.5; stroke-linejoin: miter"/>
     <use xlink:href="#mf950235ccb" x="326.393346" y="152.124988" style="fill-opacity: 0; stroke: #ff00ff; stroke-width: 1.5; stroke-linejoin: miter"/>
     <use xlink:href="#mf950235ccb" x="360.798306" y="40.769506" style="fill-opacity: 0; stroke: #ff00ff; stroke-width: 1.5; stroke-linejoin: miter"/>
     <use xlink:href="#mf950235ccb" x="360.8064" y="40.769506" style="fill-opacity: 0; stroke: #ff00ff; stroke-width: 1.5; stroke-linejoin: miter"/>
    </g>
   </g>
   <g id="line2d_42">
    <path style="fill: none; stroke: #ff00ff; stroke-width: 1.5; stroke-linecap: square"/>
    <g/>
   </g>
   <g id="line2d_43">
    <path d="M 291.757931 223.548536 
" clip-path="url(#p605de726ef)" style="fill: none; stroke: #ff00ff; stroke-width: 1.5; stroke-linecap: square"/>
    <defs>
     <path id="mfb3d593b9f" d="M -12 12 
L 12 -12 
M -12 -12 
L 12 12 
" style="stroke: #ff00ff"/>
    </defs>
    <g clip-path="url(#p605de726ef)">
     <use xlink:href="#mfb3d593b9f" x="291.757931" y="223.548536" style="fill: #ff00ff; stroke: #ff00ff"/>
    </g>
   </g>
   <g id="line2d_44">
    <path d="M 360.8064 229.790118 
L 380.514816 293.51808 
" style="fill: none; stroke: #000080; stroke-width: 1.5; stroke-linecap: square"/>
    <g>
     <use xlink:href="#m963972e48b" x="360.8064" y="229.790118" style="fill-opacity: 0; stroke: #000080; stroke-width: 1.5"/>
     <use xlink:href="#m963972e48b" x="380.514816" y="293.51808" style="fill-opacity: 0; stroke: #000080; stroke-width: 1.5"/>
    </g>
   </g>
   <g id="line2d_45">
    <path d="M 360.8064 40.769506 
L 380.514816 163.296 
" style="fill: none; stroke: #ff00ff; stroke-width: 1.5; stroke-linecap: square"/>
    <g>
     <use xlink:href="#mf950235ccb" x="360.8064" y="40.769506" style="fill-opacity: 0; stroke: #ff00ff; stroke-width: 1.5; stroke-linejoin: miter"/>
     <use xlink:href="#mf950235ccb" x="380.514816" y="163.296" style="fill-opacity: 0; stroke: #ff00ff; stroke-width: 1.5; stroke-linejoin: miter"/>
    </g>
   </g>
   <g id="line2d_46">
    <path d="M 360.8064 298.944 
L 360.8064 27.648 
" style="fill: none; stroke: #000000; stroke-width: 1.5; stroke-linecap: square"/>
   </g>
   <g id="patch_3">
    <path d="M 57.6 298.944 
L 360.8064 298.944 
" style="fill: none; stroke: #000000; stroke-width: 0.8; stroke-linejoin: miter; stroke-linecap: square"/>
   </g>
   <g id="patch_4">
    <path d="M 57.6 27.648 
L 360.8064 27.648 
" style="fill: none; stroke: #000000; stroke-width: 0.8; stroke-linejoin: miter; stroke-linecap: square"/>
   </g>
   <g id="text_13">
    <!-- ex -->
    <g transform="translate(386.578944 297.381205)scale(0.14 -0.14)">
     <defs>
      <path id="DejaVuSans-78" d="M 3513 3500 
L 2247 1797 
L 3578 0 
L 2900 0 
L 1881 1375 
L 863 0 
L 184 0 
L 1544 1831 
L 300 3500 
L 978 3500 
L 1906 2253 
L 2834 3500 
L 3513 3500 
z
" transform="scale(0.015625)"/>
     </defs>
     <use xlink:href="#DejaVuSans-65"/>
     <use xlink:href="#DejaVuSans-78" x="59.773438"/>
    </g>
   </g>
   <g id="text_14">
    <!-- CMA-ES-20 -->
    <g transform="translate(386.578944 167.159125)scale(0.14 -0.14)">
     <defs>
      <path id="DejaVuSans-43" d="M 4122 4306 
L 4122 3641 
Q 3803 3938 3442 4084 
Q 3081 4231 2675 4231 
Q 1875 4231 1450 3742 
Q 1025 3253 1025 2328 
Q 1025 1406 1450 917 
Q 1875 428 2675 428 
Q 3081 428 3442 575 
Q 3803 722 4122 1019 
L 4122 359 
Q 3791 134 3420 21 
Q 3050 -91 2638 -91 
Q 1578 -91 968 557 
Q 359 1206 359 2328 
Q 359 3453 968 4101 
Q 1578 4750 2638 4750 
Q 3056 4750 3426 4639 
Q 3797 4528 4122 4306 
z
" transform="scale(0.015625)"/>
      <path id="DejaVuSans-4d" d="M 628 4666 
L 1569 4666 
L 2759 1491 
L 3956 4666 
L 4897 4666 
L 4897 0 
L 4281 0 
L 4281 4097 
L 3078 897 
L 2444 897 
L 1241 4097 
L 1241 0 
L 628 0 
L 628 4666 
z
" transform="scale(0.015625)"/>
      <path id="DejaVuSans-41" d="M 2188 4044 
L 1331 1722 
L 3047 1722 
L 2188 4044 
z
M 1831 4666 
L 2547 4666 
L 4325 0 
L 3669 0 
L 3244 1197 
L 1141 1197 
L 716 0 
L 50 0 
L 1831 4666 
z
" transform="scale(0.015625)"/>
      <path id="DejaVuSans-45" d="M 628 4666 
L 3578 4666 
L 3578 4134 
L 1259 4134 
L 1259 2753 
L 3481 2753 
L 3481 2222 
L 1259 2222 
L 1259 531 
L 3634 531 
L 3634 0 
L 628 0 
L 628 4666 
z
" transform="scale(0.015625)"/>
      <path id="DejaVuSans-53" d="M 3425 4513 
L 3425 3897 
Q 3066 4069 2747 4153 
Q 2428 4238 2131 4238 
Q 1616 4238 1336 4038 
Q 1056 3838 1056 3469 
Q 1056 3159 1242 3001 
Q 1428 2844 1947 2747 
L 2328 2669 
Q 3034 2534 3370 2195 
Q 3706 1856 3706 1288 
Q 3706 609 3251 259 
Q 2797 -91 1919 -91 
Q 1588 -91 1214 -16 
Q 841 59 441 206 
L 441 856 
Q 825 641 1194 531 
Q 1563 422 1919 422 
Q 2459 422 2753 634 
Q 3047 847 3047 1241 
Q 3047 1584 2836 1778 
Q 2625 1972 2144 2069 
L 1759 2144 
Q 1053 2284 737 2584 
Q 422 2884 422 3419 
Q 422 4038 858 4394 
Q 1294 4750 2059 4750 
Q 2388 4750 2728 4690 
Q 3069 4631 3425 4513 
z
" transform="scale(0.015625)"/>
     </defs>
     <use xlink:href="#DejaVuSans-43"/>
     <use xlink:href="#DejaVuSans-4d" x="69.824219"/>
     <use xlink:href="#DejaVuSans-41" x="156.103516"/>
     <use xlink:href="#DejaVuSans-2d" x="222.261719"/>
     <use xlink:href="#DejaVuSans-45" x="258.345703"/>
     <use xlink:href="#DejaVuSans-53" x="321.529297"/>
     <use xlink:href="#DejaVuSans-2d" x="385.005859"/>
     <use xlink:href="#DejaVuSans-32" x="421.089844"/>
     <use xlink:href="#DejaVuSans-30" x="484.712891"/>
    </g>
   </g>
   <g id="text_15">
    <!-- best 2009 -->
    <g transform="translate(386.578944 36.937045)scale(0.14 -0.14)">
     <defs>
      <path id="DejaVuSans-62" d="M 3116 1747 
Q 3116 2381 2855 2742 
Q 2594 3103 2138 3103 
Q 1681 3103 1420 2742 
Q 1159 2381 1159 1747 
Q 1159 1113 1420 752 
Q 1681 391 2138 391 
Q 2594 391 2855 752 
Q 3116 1113 3116 1747 
z
M 1159 2969 
Q 1341 3281 1617 3432 
Q 1894 3584 2278 3584 
Q 2916 3584 3314 3078 
Q 3713 2572 3713 1747 
Q 3713 922 3314 415 
Q 2916 -91 2278 -91 
Q 1894 -91 1617 61 
Q 1341 213 1159 525 
L 1159 0 
L 581 0 
L 581 4863 
L 1159 4863 
L 1159 2969 
z
" transform="scale(0.015625)"/>
      <path id="DejaVuSans-39" d="M 703 97 
L 703 672 
Q 941 559 1184 500 
Q 1428 441 1663 441 
Q 2288 441 2617 861 
Q 2947 1281 2994 2138 
Q 2813 1869 2534 1725 
Q 2256 1581 1919 1581 
Q 1219 1581 811 2004 
Q 403 2428 403 3163 
Q 403 3881 828 4315 
Q 1253 4750 1959 4750 
Q 2769 4750 3195 4129 
Q 3622 3509 3622 2328 
Q 3622 1225 3098 567 
Q 2575 -91 1691 -91 
Q 1453 -91 1209 -44 
Q 966 3 703 97 
z
M 1959 2075 
Q 2384 2075 2632 2365 
Q 2881 2656 2881 3163 
Q 2881 3666 2632 3958 
Q 2384 4250 1959 4250 
Q 1534 4250 1286 3958 
Q 1038 3666 1038 3163 
Q 1038 2656 1286 2365 
Q 1534 2075 1959 2075 
z
" transform="scale(0.015625)"/>
     </defs>
     <use xlink:href="#DejaVuSans-62"/>
     <use xlink:href="#DejaVuSans-65" x="63.476562"/>
     <use xlink:href="#DejaVuSans-73" x="125"/>
     <use xlink:href="#DejaVuSans-74" x="177.099609"/>
     <use xlink:href="#DejaVuSans-20" x="216.308594"/>
     <use xlink:href="#DejaVuSans-32" x="248.095703"/>
     <use xlink:href="#DejaVuSans-30" x="311.71875"/>
     <use xlink:href="#DejaVuSans-30" x="375.341797"/>
     <use xlink:href="#DejaVuSans-39" x="438.964844"/>
    </g>
   </g>
   <g id="text_16">
    <!-- bbob f24, 3-D -->
    <g transform="translate(60.632064 38.111366)scale(0.102 -0.102)">
     <defs>
      <path id="DejaVuSans-33" d="M 2597 2516 
Q 3050 2419 3304 2112 
Q 3559 1806 3559 1356 
Q 3559 666 3084 287 
Q 2609 -91 1734 -91 
Q 1441 -91 1130 -33 
Q 819 25 488 141 
L 488 750 
Q 750 597 1062 519 
Q 1375 441 1716 441 
Q 2309 441 2620 675 
Q 2931 909 2931 1356 
Q 2931 1769 2642 2001 
Q 2353 2234 1838 2234 
L 1294 2234 
L 1294 2753 
L 1863 2753 
Q 2328 2753 2575 2939 
Q 2822 3125 2822 3475 
Q 2822 3834 2567 4026 
Q 2313 4219 1838 4219 
Q 1578 4219 1281 4162 
Q 984 4106 628 3988 
L 628 4550 
Q 988 4650 1302 4700 
Q 1616 4750 1894 4750 
Q 2613 4750 3031 4423 
Q 3450 4097 3450 3541 
Q 3450 3153 3228 2886 
Q 3006 2619 2597 2516 
z
" transform="scale(0.015625)"/>
      <path id="DejaVuSans-44" d="M 1259 4147 
L 1259 519 
L 2022 519 
Q 2988 519 3436 956 
Q 3884 1394 3884 2338 
Q 3884 3275 3436 3711 
Q 2988 4147 2022 4147 
L 1259 4147 
z
M 628 4666 
L 1925 4666 
Q 3281 4666 3915 4102 
Q 4550 3538 4550 2338 
Q 4550 1131 3912 565 
Q 3275 0 1925 0 
L 628 0 
L 628 4666 
z
" transform="scale(0.015625)"/>
     </defs>
     <use xlink:href="#DejaVuSans-62"/>
     <use xlink:href="#DejaVuSans-62" x="63.476562"/>
     <use xlink:href="#DejaVuSans-6f" x="126.953125"/>
     <use xlink:href="#DejaVuSans-62" x="188.134766"/>
     <use xlink:href="#DejaVuSans-20" x="251.611328"/>
     <use xlink:href="#DejaVuSans-66" x="283.398438"/>
     <use xlink:href="#DejaVuSans-32" x="318.603516"/>
     <use xlink:href="#DejaVuSans-34" x="382.226562"/>
     <use xlink:href="#DejaVuSans-2c" x="445.849609"/>
     <use xlink:href="#DejaVuSans-20" x="477.636719"/>
     <use xlink:href="#DejaVuSans-33" x="509.423828"/>
     <use xlink:href="#DejaVuSans-2d" x="573.046875"/>
     <use xlink:href="#DejaVuSans-44" x="609.130859"/>
    </g>
    <!-- 51 targets: 100..1e-08 -->
    <g transform="translate(60.632064 49.533135)scale(0.102 -0.102)">
     <defs>
      <path id="DejaVuSans-35" d="M 691 4666 
L 3169 4666 
L 3169 4134 
L 1269 4134 
L 1269 2991 
Q 1406 3038 1543 3061 
Q 1681 3084 1819 3084 
Q 2600 3084 3056 2656 
Q 3513 2228 3513 1497 
Q 3513 744 3044 326 
Q 2575 -91 1722 -91 
Q 1428 -91 1123 -41 
Q 819 9 494 109 
L 494 744 
Q 775 591 1075 516 
Q 1375 441 1709 441 
Q 2250 441 2565 725 
Q 2881 1009 2881 1497 
Q 2881 1984 2565 2268 
Q 2250 2553 1709 2553 
Q 1456 2553 1204 2497 
Q 953 2441 691 2322 
L 691 4666 
z
" transform="scale(0.015625)"/>
      <path id="DejaVuSans-3a" d="M 750 794 
L 1409 794 
L 1409 0 
L 750 0 
L 750 794 
z
M 750 3309 
L 1409 3309 
L 1409 2516 
L 750 2516 
L 750 3309 
z
" transform="scale(0.015625)"/>
     </defs>
     <use xlink:href="#DejaVuSans-35"/>
     <use xlink:href="#DejaVuSans-31" x="63.623047"/>
     <use xlink:href="#DejaVuSans-20" x="127.246094"/>
     <use xlink:href="#DejaVuSans-74" x="159.033203"/>
     <use xlink:href="#DejaVuSans-61" x="198.242188"/>
     <use xlink:href="#DejaVuSans-72" x="259.521484"/>
     <use xlink:href="#DejaVuSans-67" x="298.884766"/>
     <use xlink:href="#DejaVuSans-65" x="362.361328"/>
     <use xlink:href="#DejaVuSans-74" x="423.884766"/>
     <use xlink:href="#DejaVuSans-73" x="463.09375"/>
     <use xlink:href="#DejaVuSans-3a" x="515.193359"/>
     <use xlink:href="#DejaVuSans-20" x="548.884766"/>
     <use xlink:href="#DejaVuSans-31" x="580.671875"/>
     <use xlink:href="#DejaVuSans-30" x="644.294922"/>
     <use xlink:href="#DejaVuSans-30" x="707.917969"/>
     <use xlink:href="#DejaVuSans-2e" x="771.541016"/>
     <use xlink:href="#DejaVuSans-2e" x="803.328125"/>
     <use xlink:href="#DejaVuSans-31" x="835.115234"/>
     <use xlink:href="#DejaVuSans-65" x="898.738281"/>
     <use xlink:href="#DejaVuSans-2d" x="960.261719"/>
     <use xlink:href="#DejaVuSans-30" x="996.345703"/>
     <use xlink:href="#DejaVuSans-38" x="1059.96875"/>
    </g>
    <!-- 25, 15 instances -->
    <g transform="translate(60.632064 60.954904)scale(0.102 -0.102)">
     <use xlink:href="#DejaVuSans-32"/>
     <use xlink:href="#DejaVuSans-35" x="63.623047"/>
     <use xlink:href="#DejaVuSans-2c" x="127.246094"/>
     <use xlink:href="#DejaVuSans-20" x="159.033203"/>
     <use xlink:href="#DejaVuSans-31" x="190.820312"/>
     <use xlink:href="#DejaVuSans-35" x="254.443359"/>
     <use xlink:href="#DejaVuSans-20" x="318.066406"/>
     <use xlink:href="#DejaVuSans-69" x="349.853516"/>
     <use xlink:href="#DejaVuSans-6e" x="377.636719"/>
     <use xlink:href="#DejaVuSans-73" x="441.015625"/>
     <use xlink:href="#DejaVuSans-74" x="493.115234"/>
     <use xlink:href="#DejaVuSans-61" x="532.324219"/>
     <use xlink:href="#DejaVuSans-6e" x="593.603516"/>
     <use xlink:href="#DejaVuSans-63" x="656.982422"/>
     <use xlink:href="#DejaVuSans-65" x="711.962891"/>
     <use xlink:href="#DejaVuSans-73" x="773.486328"/>
    </g>
   </g>
   <g id="text_17">
    <!-- v2.6 -->
    <g style="fill: #808080" transform="translate(198.292262 294.151352)scale(0.1 -0.1)">
     <use xlink:href="#DejaVuSans-76"/>
     <use xlink:href="#DejaVuSans-32" x="59.179688"/>
     <use xlink:href="#DejaVuSans-2e" x="122.802734"/>
     <use xlink:href="#DejaVuSans-36" x="154.589844"/>
    </g>
   </g>
   <g id="text_18">
    <!-- 24 Lunacek bi-Rastrigin -->
    <g transform="translate(91.411012 21.648)scale(0.2 -0.2)">
     <defs>
      <path id="DejaVuSans-4c" d="M 628 4666 
L 1259 4666 
L 1259 531 
L 3531 531 
L 3531 0 
L 628 0 
L 628 4666 
z
" transform="scale(0.015625)"/>
      <path id="DejaVuSans-6b" d="M 581 4863 
L 1159 4863 
L 1159 1991 
L 2875 3500 
L 3609 3500 
L 1753 1863 
L 3688 0 
L 2938 0 
L 1159 1709 
L 1159 0 
L 581 0 
L 581 4863 
z
" transform="scale(0.015625)"/>
      <path id="DejaVuSans-52" d="M 2841 2188 
Q 3044 2119 3236 1894 
Q 3428 1669 3622 1275 
L 4263 0 
L 3584 0 
L 2988 1197 
Q 2756 1666 2539 1819 
Q 2322 1972 1947 1972 
L 1259 1972 
L 1259 0 
L 628 0 
L 628 4666 
L 2053 4666 
Q 2853 4666 3247 4331 
Q 3641 3997 3641 3322 
Q 3641 2881 3436 2590 
Q 3231 2300 2841 2188 
z
M 1259 4147 
L 1259 2491 
L 2053 2491 
Q 2509 2491 2742 2702 
Q 2975 2913 2975 3322 
Q 2975 3731 2742 3939 
Q 2509 4147 2053 4147 
L 1259 4147 
z
" transform="scale(0.015625)"/>
     </defs>
     <use xlink:href="#DejaVuSans-32"/>
     <use xlink:href="#DejaVuSans-34" x="63.623047"/>
     <use xlink:href="#DejaVuSans-20" x="127.246094"/>
     <use xlink:href="#DejaVuSans-4c" x="159.033203"/>
     <use xlink:href="#DejaVuSans-75" x="212.996094"/>
     <use xlink:href="#DejaVuSans-6e" x="276.375"/>
     <use xlink:href="#DejaVuSans-61" x="339.753906"/>
     <use xlink:href="#DejaVuSans-63" x="401.033203"/>
     <use xlink:href="#DejaVuSans-65" x="456.013672"/>
     <use xlink:href="#DejaVuSans-6b" x="517.537109"/>
     <use xlink:href="#DejaVuSans-20" x="575.447266"/>
     <use xlink:href="#DejaVuSans-62" x="607.234375"/>
     <use xlink:href="#DejaVuSans-69" x="670.710938"/>
     <use xlink:href="#DejaVuSans-2d" x="698.494141"/>
     <use xlink:href="#DejaVuSans-52" x="734.578125"/>
     <use xlink:href="#DejaVuSans-61" x="801.810547"/>
     <use xlink:href="#DejaVuSans-73" x="863.089844"/>
     <use xlink:href="#DejaVuSans-74" x="915.189453"/>
     <use xlink:href="#DejaVuSans-72" x="954.398438"/>
     <use xlink:href="#DejaVuSans-69" x="995.511719"/>
     <use xlink:href="#DejaVuSans-67" x="1023.294922"/>
     <use xlink:href="#DejaVuSans-69" x="1086.771484"/>
     <use xlink:href="#DejaVuSans-6e" x="1114.554688"/>
    </g>
   </g>
  </g>
 </g>
 <defs>
  <clipPath id="p605de726ef">
   <rect x="57.6" y="27.648" width="303.2064" height="271.296"/>
  </clipPath>
 </defs>
</svg>
