<?xml version="1.0" encoding="utf-8" standalone="no"?>
<!DOCTYPE svg PUBLIC "-//W3C//DTD SVG 1.1//EN"
  "http://www.w3.org/Graphics/SVG/1.1/DTD/svg11.dtd">
<svg xmlns:xlink="http://www.w3.org/1999/xlink" width="460.8pt" height="345.6pt" viewBox="0 0 460.8 345.6" xmlns="http://www.w3.org/2000/svg" version="1.1">
 <metadata>
  <rdf:RDF xmlns:dc="http://purl.org/dc/elements/1.1/" xmlns:cc="http://creativecommons.org/ns#" xmlns:rdf="http://www.w3.org/1999/02/22-rdf-syntax-ns#">
   <cc:Work>
    <dc:type rdf:resource="http://purl.org/dc/dcmitype/StillImage"/>
    <dc:date>2022-03-16T23:35:24.379076</dc:date>
    <dc:format>image/svg+xml</dc:format>
    <dc:creator>
     <cc:Agent>
      <dc:title>Matplotlib v3.5.1, https://matplotlib.org/</dc:title>
     </cc:Agent>
    </dc:creator>
   </cc:Work>
  </rdf:RDF>
 </metadata>
 <defs>
  <style type="text/css">*{stroke-linejoin: round; stroke-linecap: butt}</style>
 </defs>
 <g id="figure_1">
  <g id="patch_1">
   <path d="M 0 345.6 
L 460.8 345.6 
L 460.8 0 
L 0 0 
z
" style="fill: #ffffff"/>
  </g>
  <g id="axes_1">
   <g id="patch_2">
    <path d="M 57.6 298.944 
L 360.8064 298.944 
L 360.8064 27.648 
L 57.6 27.648 
z
" style="fill: #ffffff"/>
   </g>
   <g id="line2d_1">
    <path d="M 65.227428 298.944 
L 65.227428 293.624471 
L 70.639174 293.624471 
L 70.639174 288.304941 
L 81.166416 288.304941 
L 81.166416 282.985412 
L 85.894031 282.985412 
L 85.894031 277.665882 
L 89.668958 277.665882 
L 89.668958 272.346353 
L 99.950294 272.346353 
L 99.950294 267.026824 
L 109.756698 267.026824 
L 109.756698 261.707294 
L 116.583514 261.707294 
L 116.583514 256.387765 
L 123.374735 256.387765 
L 123.374735 251.068235 
L 131.929028 251.068235 
L 131.929028 245.748706 
L 136.696795 245.748706 
L 136.696795 240.429176 
L 138.310202 240.429176 
L 138.310202 235.109647 
L 143.850356 235.109647 
L 143.850356 229.790118 
L 146.612557 229.790118 
L 146.612557 224.470588 
L 163.362513 224.470588 
L 163.362513 219.151059 
L 166.860176 219.151059 
L 166.860176 213.831529 
L 167.526142 213.831529 
L 167.526142 208.512 
L 168.430973 208.512 
L 168.430973 203.192471 
L 178.339408 203.192471 
L 178.339408 197.872941 
L 178.613589 197.872941 
L 178.613589 192.553412 
L 178.689047 192.553412 
L 178.689047 187.233882 
L 182.321035 187.233882 
L 182.321035 181.914353 
L 182.457127 181.914353 
L 182.457127 176.594824 
L 182.979872 176.594824 
L 182.979872 171.275294 
L 183.394894 171.275294 
L 183.394894 165.955765 
L 184.576684 165.955765 
L 184.576684 160.636235 
L 185.740436 160.636235 
L 185.740436 155.316706 
L 185.864265 155.316706 
L 185.864265 149.997176 
L 186.311454 149.997176 
L 186.311454 144.677647 
L 186.855894 144.677647 
L 186.855894 139.358118 
L 188.219988 139.358118 
L 188.219988 134.038588 
L 188.364623 134.038588 
L 188.364623 128.719059 
L 188.400609 128.719059 
L 188.400609 123.399529 
L 190.998851 123.399529 
L 190.998851 118.08 
L 191.061374 118.08 
L 191.061374 112.760471 
L 191.270868 112.760471 
L 191.270868 107.440941 
L 191.462785 107.440941 
L 191.462785 102.121412 
L 192.386785 102.121412 
L 192.386785 96.801882 
L 192.473842 96.801882 
L 192.473842 91.482353 
L 192.560499 91.482353 
L 192.560499 86.162824 
L 192.639584 86.162824 
L 192.639584 80.843294 
L 193.267517 80.843294 
L 193.267517 75.523765 
L 193.590854 75.523765 
L 193.590854 70.204235 
L 193.854999 70.204235 
L 193.854999 64.884706 
L 194.161861 64.884706 
L 194.161861 59.565176 
L 194.260852 59.565176 
L 194.260852 54.245647 
L 194.378958 54.245647 
L 194.378958 48.926118 
L 194.476816 48.926118 
L 194.476816 43.606588 
L 194.535287 43.606588 
L 194.535287 38.287059 
L 194.664577 38.287059 
L 194.664577 32.967529 
L 194.72889 32.967529 
L 194.72889 27.648 
L 360.8064 27.648 
" style="fill: none; stroke: #f5deb3; stroke-width: 4; stroke-linecap: square"/>
   </g>
   <g id="line2d_2">
    <defs>
     <path id="mec5025e71d" d="M -0 7.778175 
L 7.778175 0 
L 0 -7.778175 
L -7.778175 -0 
z
" style="stroke: #f5deb3; stroke-width: 1.5; stroke-linejoin: miter"/>
    </defs>
    <g>
     <use xlink:href="#mec5025e71d" x="138.310202" y="240.429176" style="fill: #f5deb3; stroke: #f5deb3; stroke-width: 1.5; stroke-linejoin: miter"/>
     <use xlink:href="#mec5025e71d" x="188.400609" y="123.399529" style="fill: #f5deb3; stroke: #f5deb3; stroke-width: 1.5; stroke-linejoin: miter"/>
     <use xlink:href="#mec5025e71d" x="194.72889" y="27.648" style="fill: #f5deb3; stroke: #f5deb3; stroke-width: 1.5; stroke-linejoin: miter"/>
     <use xlink:href="#mec5025e71d" x="194.72889" y="27.648" style="fill: #f5deb3; stroke: #f5deb3; stroke-width: 1.5; stroke-linejoin: miter"/>
     <use xlink:href="#mec5025e71d" x="360.8064" y="27.648" style="fill: #f5deb3; stroke: #f5deb3; stroke-width: 1.5; stroke-linejoin: miter"/>
    </g>
   </g>
   <g id="line2d_3">
    <path style="fill: none; stroke: #f5deb3; stroke-width: 4; stroke-linecap: square"/>
    <g/>
   </g>
   <g id="line2d_4">
    <path d="M 360.8064 27.648 
L 380.514816 33.07392 
" style="fill: none; stroke: #f5deb3; stroke-width: 4; stroke-linecap: square"/>
    <g>
     <use xlink:href="#mec5025e71d" x="360.8064" y="27.648" style="fill: #f5deb3; stroke: #f5deb3; stroke-width: 1.5; stroke-linejoin: miter"/>
     <use xlink:href="#mec5025e71d" x="380.514816" y="33.07392" style="fill: #f5deb3; stroke: #f5deb3; stroke-width: 1.5; stroke-linejoin: miter"/>
    </g>
   </g>
   <g id="matplotlib.axis_1">
    <g id="xtick_1">
     <g id="line2d_5">
      <path d="M 57.6 298.944 
L 57.6 27.648 
" clip-path="url(#pd189d874ed)" style="fill: none; stroke: #b0b0b0; stroke-width: 0.8; stroke-linecap: square"/>
     </g>
     <g id="line2d_6">
      <defs>
       <path id="m468d38022f" d="M 0 0 
L 0 3.5 
" style="stroke: #000000; stroke-width: 0.8"/>
      </defs>
      <g>
       <use xlink:href="#m468d38022f" x="57.6" y="298.944" style="stroke: #000000; stroke-width: 0.8"/>
      </g>
     </g>
     <g id="text_1">
      <!-- 0 -->
      <g transform="translate(52.191875 318.861344)scale(0.17 -0.17)">
       <defs>
        <path id="DejaVuSans-30" d="M 2034 4250 
Q 1547 4250 1301 3770 
Q 1056 3291 1056 2328 
Q 1056 1369 1301 889 
Q 1547 409 2034 409 
Q 2525 409 2770 889 
Q 3016 1369 3016 2328 
Q 3016 3291 2770 3770 
Q 2525 4250 2034 4250 
z
M 2034 4750 
Q 2819 4750 3233 4129 
Q 3647 3509 3647 2328 
Q 3647 1150 3233 529 
Q 2819 -91 2034 -91 
Q 1250 -91 836 529 
Q 422 1150 422 2328 
Q 422 3509 836 4129 
Q 1250 4750 2034 4750 
z
" transform="scale(0.015625)"/>
       </defs>
       <use xlink:href="#DejaVuSans-30"/>
      </g>
     </g>
    </g>
    <g id="xtick_2">
     <g id="line2d_7">
      <path d="M 144.2304 298.944 
L 144.2304 27.648 
" clip-path="url(#pd189d874ed)" style="fill: none; stroke: #b0b0b0; stroke-width: 0.8; stroke-linecap: square"/>
     </g>
     <g id="line2d_8">
      <g>
       <use xlink:href="#m468d38022f" x="144.2304" y="298.944" style="stroke: #000000; stroke-width: 0.8"/>
      </g>
     </g>
     <g id="text_2">
      <!-- 2 -->
      <g transform="translate(138.822275 318.861344)scale(0.17 -0.17)">
       <defs>
        <path id="DejaVuSans-32" d="M 1228 531 
L 3431 531 
L 3431 0 
L 469 0 
L 469 531 
Q 828 903 1448 1529 
Q 2069 2156 2228 2338 
Q 2531 2678 2651 2914 
Q 2772 3150 2772 3378 
Q 2772 3750 2511 3984 
Q 2250 4219 1831 4219 
Q 1534 4219 1204 4116 
Q 875 4013 500 3803 
L 500 4441 
Q 881 4594 1212 4672 
Q 1544 4750 1819 4750 
Q 2544 4750 2975 4387 
Q 3406 4025 3406 3419 
Q 3406 3131 3298 2873 
Q 3191 2616 2906 2266 
Q 2828 2175 2409 1742 
Q 1991 1309 1228 531 
z
" transform="scale(0.015625)"/>
       </defs>
       <use xlink:href="#DejaVuSans-32"/>
      </g>
     </g>
    </g>
    <g id="xtick_3">
     <g id="line2d_9">
      <path d="M 230.8608 298.944 
L 230.8608 27.648 
" clip-path="url(#pd189d874ed)" style="fill: none; stroke: #b0b0b0; stroke-width: 0.8; stroke-linecap: square"/>
     </g>
     <g id="line2d_10">
      <g>
       <use xlink:href="#m468d38022f" x="230.8608" y="298.944" style="stroke: #000000; stroke-width: 0.8"/>
      </g>
     </g>
     <g id="text_3">
      <!-- 4 -->
      <g transform="translate(225.452675 318.861344)scale(0.17 -0.17)">
       <defs>
        <path id="DejaVuSans-34" d="M 2419 4116 
L 825 1625 
L 2419 1625 
L 2419 4116 
z
M 2253 4666 
L 3047 4666 
L 3047 1625 
L 3713 1625 
L 3713 1100 
L 3047 1100 
L 3047 0 
L 2419 0 
L 2419 1100 
L 313 1100 
L 313 1709 
L 2253 4666 
z
" transform="scale(0.015625)"/>
       </defs>
       <use xlink:href="#DejaVuSans-34"/>
      </g>
     </g>
    </g>
    <g id="xtick_4">
     <g id="line2d_11">
      <path d="M 317.4912 298.944 
L 317.4912 27.648 
" clip-path="url(#pd189d874ed)" style="fill: none; stroke: #b0b0b0; stroke-width: 0.8; stroke-linecap: square"/>
     </g>
     <g id="line2d_12">
      <g>
       <use xlink:href="#m468d38022f" x="317.4912" y="298.944" style="stroke: #000000; stroke-width: 0.8"/>
      </g>
     </g>
     <g id="text_4">
      <!-- 6 -->
      <g transform="translate(312.083075 318.861344)scale(0.17 -0.17)">
       <defs>
        <path id="DejaVuSans-36" d="M 2113 2584 
Q 1688 2584 1439 2293 
Q 1191 2003 1191 1497 
Q 1191 994 1439 701 
Q 1688 409 2113 409 
Q 2538 409 2786 701 
Q 3034 994 3034 1497 
Q 3034 2003 2786 2293 
Q 2538 2584 2113 2584 
z
M 3366 4563 
L 3366 3988 
Q 3128 4100 2886 4159 
Q 2644 4219 2406 4219 
Q 1781 4219 1451 3797 
Q 1122 3375 1075 2522 
Q 1259 2794 1537 2939 
Q 1816 3084 2150 3084 
Q 2853 3084 3261 2657 
Q 3669 2231 3669 1497 
Q 3669 778 3244 343 
Q 2819 -91 2113 -91 
Q 1303 -91 875 529 
Q 447 1150 447 2328 
Q 447 3434 972 4092 
Q 1497 4750 2381 4750 
Q 2619 4750 2861 4703 
Q 3103 4656 3366 4563 
z
" transform="scale(0.015625)"/>
       </defs>
       <use xlink:href="#DejaVuSans-36"/>
      </g>
     </g>
    </g>
    <g id="xtick_5">
     <g id="line2d_13">
      <path d="M 100.9152 298.944 
L 100.9152 27.648 
" clip-path="url(#pd189d874ed)" style="fill: none; stroke: #b0b0b0; stroke-width: 0.8; stroke-linecap: square"/>
     </g>
     <g id="line2d_14">
      <defs>
       <path id="mfe82e6c0a4" d="M 0 0 
L 0 2 
" style="stroke: #000000; stroke-width: 0.6"/>
      </defs>
      <g>
       <use xlink:href="#mfe82e6c0a4" x="100.9152" y="298.944" style="stroke: #000000; stroke-width: 0.6"/>
      </g>
     </g>
    </g>
    <g id="xtick_6">
     <g id="line2d_15">
      <path d="M 187.5456 298.944 
L 187.5456 27.648 
" clip-path="url(#pd189d874ed)" style="fill: none; stroke: #b0b0b0; stroke-width: 0.8; stroke-linecap: square"/>
     </g>
     <g id="line2d_16">
      <g>
       <use xlink:href="#mfe82e6c0a4" x="187.5456" y="298.944" style="stroke: #000000; stroke-width: 0.6"/>
      </g>
     </g>
    </g>
    <g id="xtick_7">
     <g id="line2d_17">
      <path d="M 274.176 298.944 
L 274.176 27.648 
" clip-path="url(#pd189d874ed)" style="fill: none; stroke: #b0b0b0; stroke-width: 0.8; stroke-linecap: square"/>
     </g>
     <g id="line2d_18">
      <g>
       <use xlink:href="#mfe82e6c0a4" x="274.176" y="298.944" style="stroke: #000000; stroke-width: 0.6"/>
      </g>
     </g>
    </g>
    <g id="xtick_8">
     <g id="line2d_19">
      <path d="M 360.8064 298.944 
L 360.8064 27.648 
" clip-path="url(#pd189d874ed)" style="fill: none; stroke: #b0b0b0; stroke-width: 0.8; stroke-linecap: square"/>
     </g>
     <g id="line2d_20">
      <g>
       <use xlink:href="#mfe82e6c0a4" x="360.8064" y="298.944" style="stroke: #000000; stroke-width: 0.6"/>
      </g>
     </g>
    </g>
    <g id="text_5">
     <!-- log10(# f-evals / dimension) -->
     <g transform="translate(88.823278 339.314156)scale(0.17 -0.17)">
      <defs>
       <path id="DejaVuSans-6c" d="M 603 4863 
L 1178 4863 
L 1178 0 
L 603 0 
L 603 4863 
z
" transform="scale(0.015625)"/>
       <path id="DejaVuSans-6f" d="M 1959 3097 
Q 1497 3097 1228 2736 
Q 959 2375 959 1747 
Q 959 1119 1226 758 
Q 1494 397 1959 397 
Q 2419 397 2687 759 
Q 2956 1122 2956 1747 
Q 2956 2369 2687 2733 
Q 2419 3097 1959 3097 
z
M 1959 3584 
Q 2709 3584 3137 3096 
Q 3566 2609 3566 1747 
Q 3566 888 3137 398 
Q 2709 -91 1959 -91 
Q 1206 -91 779 398 
Q 353 888 353 1747 
Q 353 2609 779 3096 
Q 1206 3584 1959 3584 
z
" transform="scale(0.015625)"/>
       <path id="DejaVuSans-67" d="M 2906 1791 
Q 2906 2416 2648 2759 
Q 2391 3103 1925 3103 
Q 1463 3103 1205 2759 
Q 947 2416 947 1791 
Q 947 1169 1205 825 
Q 1463 481 1925 481 
Q 2391 481 2648 825 
Q 2906 1169 2906 1791 
z
M 3481 434 
Q 3481 -459 3084 -895 
Q 2688 -1331 1869 -1331 
Q 1566 -1331 1297 -1286 
Q 1028 -1241 775 -1147 
L 775 -588 
Q 1028 -725 1275 -790 
Q 1522 -856 1778 -856 
Q 2344 -856 2625 -561 
Q 2906 -266 2906 331 
L 2906 616 
Q 2728 306 2450 153 
Q 2172 0 1784 0 
Q 1141 0 747 490 
Q 353 981 353 1791 
Q 353 2603 747 3093 
Q 1141 3584 1784 3584 
Q 2172 3584 2450 3431 
Q 2728 3278 2906 2969 
L 2906 3500 
L 3481 3500 
L 3481 434 
z
" transform="scale(0.015625)"/>
       <path id="DejaVuSans-31" d="M 794 531 
L 1825 531 
L 1825 4091 
L 703 3866 
L 703 4441 
L 1819 4666 
L 2450 4666 
L 2450 531 
L 3481 531 
L 3481 0 
L 794 0 
L 794 531 
z
" transform="scale(0.015625)"/>
       <path id="DejaVuSans-28" d="M 1984 4856 
Q 1566 4138 1362 3434 
Q 1159 2731 1159 2009 
Q 1159 1288 1364 580 
Q 1569 -128 1984 -844 
L 1484 -844 
Q 1016 -109 783 600 
Q 550 1309 550 2009 
Q 550 2706 781 3412 
Q 1013 4119 1484 4856 
L 1984 4856 
z
" transform="scale(0.015625)"/>
       <path id="DejaVuSans-23" d="M 3272 2816 
L 2363 2816 
L 2100 1772 
L 3016 1772 
L 3272 2816 
z
M 2803 4594 
L 2478 3297 
L 3391 3297 
L 3719 4594 
L 4219 4594 
L 3897 3297 
L 4872 3297 
L 4872 2816 
L 3775 2816 
L 3519 1772 
L 4513 1772 
L 4513 1294 
L 3397 1294 
L 3072 0 
L 2572 0 
L 2894 1294 
L 1978 1294 
L 1656 0 
L 1153 0 
L 1478 1294 
L 494 1294 
L 494 1772 
L 1594 1772 
L 1856 2816 
L 850 2816 
L 850 3297 
L 1978 3297 
L 2297 4594 
L 2803 4594 
z
" transform="scale(0.015625)"/>
       <path id="DejaVuSans-20" transform="scale(0.015625)"/>
       <path id="DejaVuSans-66" d="M 2375 4863 
L 2375 4384 
L 1825 4384 
Q 1516 4384 1395 4259 
Q 1275 4134 1275 3809 
L 1275 3500 
L 2222 3500 
L 2222 3053 
L 1275 3053 
L 1275 0 
L 697 0 
L 697 3053 
L 147 3053 
L 147 3500 
L 697 3500 
L 697 3744 
Q 697 4328 969 4595 
Q 1241 4863 1831 4863 
L 2375 4863 
z
" transform="scale(0.015625)"/>
       <path id="DejaVuSans-2d" d="M 313 2009 
L 1997 2009 
L 1997 1497 
L 313 1497 
L 313 2009 
z
" transform="scale(0.015625)"/>
       <path id="DejaVuSans-65" d="M 3597 1894 
L 3597 1613 
L 953 1613 
Q 991 1019 1311 708 
Q 1631 397 2203 397 
Q 2534 397 2845 478 
Q 3156 559 3463 722 
L 3463 178 
Q 3153 47 2828 -22 
Q 2503 -91 2169 -91 
Q 1331 -91 842 396 
Q 353 884 353 1716 
Q 353 2575 817 3079 
Q 1281 3584 2069 3584 
Q 2775 3584 3186 3129 
Q 3597 2675 3597 1894 
z
M 3022 2063 
Q 3016 2534 2758 2815 
Q 2500 3097 2075 3097 
Q 1594 3097 1305 2825 
Q 1016 2553 972 2059 
L 3022 2063 
z
" transform="scale(0.015625)"/>
       <path id="DejaVuSans-76" d="M 191 3500 
L 800 3500 
L 1894 563 
L 2988 3500 
L 3597 3500 
L 2284 0 
L 1503 0 
L 191 3500 
z
" transform="scale(0.015625)"/>
       <path id="DejaVuSans-61" d="M 2194 1759 
Q 1497 1759 1228 1600 
Q 959 1441 959 1056 
Q 959 750 1161 570 
Q 1363 391 1709 391 
Q 2188 391 2477 730 
Q 2766 1069 2766 1631 
L 2766 1759 
L 2194 1759 
z
M 3341 1997 
L 3341 0 
L 2766 0 
L 2766 531 
Q 2569 213 2275 61 
Q 1981 -91 1556 -91 
Q 1019 -91 701 211 
Q 384 513 384 1019 
Q 384 1609 779 1909 
Q 1175 2209 1959 2209 
L 2766 2209 
L 2766 2266 
Q 2766 2663 2505 2880 
Q 2244 3097 1772 3097 
Q 1472 3097 1187 3025 
Q 903 2953 641 2809 
L 641 3341 
Q 956 3463 1253 3523 
Q 1550 3584 1831 3584 
Q 2591 3584 2966 3190 
Q 3341 2797 3341 1997 
z
" transform="scale(0.015625)"/>
       <path id="DejaVuSans-73" d="M 2834 3397 
L 2834 2853 
Q 2591 2978 2328 3040 
Q 2066 3103 1784 3103 
Q 1356 3103 1142 2972 
Q 928 2841 928 2578 
Q 928 2378 1081 2264 
Q 1234 2150 1697 2047 
L 1894 2003 
Q 2506 1872 2764 1633 
Q 3022 1394 3022 966 
Q 3022 478 2636 193 
Q 2250 -91 1575 -91 
Q 1294 -91 989 -36 
Q 684 19 347 128 
L 347 722 
Q 666 556 975 473 
Q 1284 391 1588 391 
Q 1994 391 2212 530 
Q 2431 669 2431 922 
Q 2431 1156 2273 1281 
Q 2116 1406 1581 1522 
L 1381 1569 
Q 847 1681 609 1914 
Q 372 2147 372 2553 
Q 372 3047 722 3315 
Q 1072 3584 1716 3584 
Q 2034 3584 2315 3537 
Q 2597 3491 2834 3397 
z
" transform="scale(0.015625)"/>
       <path id="DejaVuSans-2f" d="M 1625 4666 
L 2156 4666 
L 531 -594 
L 0 -594 
L 1625 4666 
z
" transform="scale(0.015625)"/>
       <path id="DejaVuSans-64" d="M 2906 2969 
L 2906 4863 
L 3481 4863 
L 3481 0 
L 2906 0 
L 2906 525 
Q 2725 213 2448 61 
Q 2172 -91 1784 -91 
Q 1150 -91 751 415 
Q 353 922 353 1747 
Q 353 2572 751 3078 
Q 1150 3584 1784 3584 
Q 2172 3584 2448 3432 
Q 2725 3281 2906 2969 
z
M 947 1747 
Q 947 1113 1208 752 
Q 1469 391 1925 391 
Q 2381 391 2643 752 
Q 2906 1113 2906 1747 
Q 2906 2381 2643 2742 
Q 2381 3103 1925 3103 
Q 1469 3103 1208 2742 
Q 947 2381 947 1747 
z
" transform="scale(0.015625)"/>
       <path id="DejaVuSans-69" d="M 603 3500 
L 1178 3500 
L 1178 0 
L 603 0 
L 603 3500 
z
M 603 4863 
L 1178 4863 
L 1178 4134 
L 603 4134 
L 603 4863 
z
" transform="scale(0.015625)"/>
       <path id="DejaVuSans-6d" d="M 3328 2828 
Q 3544 3216 3844 3400 
Q 4144 3584 4550 3584 
Q 5097 3584 5394 3201 
Q 5691 2819 5691 2113 
L 5691 0 
L 5113 0 
L 5113 2094 
Q 5113 2597 4934 2840 
Q 4756 3084 4391 3084 
Q 3944 3084 3684 2787 
Q 3425 2491 3425 1978 
L 3425 0 
L 2847 0 
L 2847 2094 
Q 2847 2600 2669 2842 
Q 2491 3084 2119 3084 
Q 1678 3084 1418 2786 
Q 1159 2488 1159 1978 
L 1159 0 
L 581 0 
L 581 3500 
L 1159 3500 
L 1159 2956 
Q 1356 3278 1631 3431 
Q 1906 3584 2284 3584 
Q 2666 3584 2933 3390 
Q 3200 3197 3328 2828 
z
" transform="scale(0.015625)"/>
       <path id="DejaVuSans-6e" d="M 3513 2113 
L 3513 0 
L 2938 0 
L 2938 2094 
Q 2938 2591 2744 2837 
Q 2550 3084 2163 3084 
Q 1697 3084 1428 2787 
Q 1159 2491 1159 1978 
L 1159 0 
L 581 0 
L 581 3500 
L 1159 3500 
L 1159 2956 
Q 1366 3272 1645 3428 
Q 1925 3584 2291 3584 
Q 2894 3584 3203 3211 
Q 3513 2838 3513 2113 
z
" transform="scale(0.015625)"/>
       <path id="DejaVuSans-29" d="M 513 4856 
L 1013 4856 
Q 1481 4119 1714 3412 
Q 1947 2706 1947 2009 
Q 1947 1309 1714 600 
Q 1481 -109 1013 -844 
L 513 -844 
Q 928 -128 1133 580 
Q 1338 1288 1338 2009 
Q 1338 2731 1133 3434 
Q 928 4138 513 4856 
z
" transform="scale(0.015625)"/>
      </defs>
      <use xlink:href="#DejaVuSans-6c"/>
      <use xlink:href="#DejaVuSans-6f" x="27.783203"/>
      <use xlink:href="#DejaVuSans-67" x="88.964844"/>
      <use xlink:href="#DejaVuSans-31" x="152.441406"/>
      <use xlink:href="#DejaVuSans-30" x="216.064453"/>
      <use xlink:href="#DejaVuSans-28" x="279.6875"/>
      <use xlink:href="#DejaVuSans-23" x="318.701172"/>
      <use xlink:href="#DejaVuSans-20" x="402.490234"/>
      <use xlink:href="#DejaVuSans-66" x="434.277344"/>
      <use xlink:href="#DejaVuSans-2d" x="463.982422"/>
      <use xlink:href="#DejaVuSans-65" x="500.066406"/>
      <use xlink:href="#DejaVuSans-76" x="561.589844"/>
      <use xlink:href="#DejaVuSans-61" x="620.769531"/>
      <use xlink:href="#DejaVuSans-6c" x="682.048828"/>
      <use xlink:href="#DejaVuSans-73" x="709.832031"/>
      <use xlink:href="#DejaVuSans-20" x="761.931641"/>
      <use xlink:href="#DejaVuSans-2f" x="793.71875"/>
      <use xlink:href="#DejaVuSans-20" x="827.410156"/>
      <use xlink:href="#DejaVuSans-64" x="859.197266"/>
      <use xlink:href="#DejaVuSans-69" x="922.673828"/>
      <use xlink:href="#DejaVuSans-6d" x="950.457031"/>
      <use xlink:href="#DejaVuSans-65" x="1047.869141"/>
      <use xlink:href="#DejaVuSans-6e" x="1109.392578"/>
      <use xlink:href="#DejaVuSans-73" x="1172.771484"/>
      <use xlink:href="#DejaVuSans-69" x="1224.871094"/>
      <use xlink:href="#DejaVuSans-6f" x="1252.654297"/>
      <use xlink:href="#DejaVuSans-6e" x="1313.835938"/>
      <use xlink:href="#DejaVuSans-29" x="1377.214844"/>
     </g>
    </g>
   </g>
   <g id="matplotlib.axis_2">
    <g id="ytick_1">
     <g id="line2d_21">
      <path d="M 57.6 298.944 
L 360.8064 298.944 
" clip-path="url(#pd189d874ed)" style="fill: none; stroke: #b0b0b0; stroke-width: 0.8; stroke-linecap: square"/>
     </g>
     <g id="line2d_22">
      <defs>
       <path id="m4ab0a49104" d="M 0 0 
L -3.5 0 
" style="stroke: #000000; stroke-width: 0.8"/>
      </defs>
      <g>
       <use xlink:href="#m4ab0a49104" x="57.6" y="298.944" style="stroke: #000000; stroke-width: 0.8"/>
      </g>
     </g>
     <g id="text_6">
      <!-- 0.0 -->
      <g transform="translate(25.155 305.02275)scale(0.16 -0.16)">
       <defs>
        <path id="DejaVuSans-2e" d="M 684 794 
L 1344 794 
L 1344 0 
L 684 0 
L 684 794 
z
" transform="scale(0.015625)"/>
       </defs>
       <use xlink:href="#DejaVuSans-30"/>
       <use xlink:href="#DejaVuSans-2e" x="63.623047"/>
       <use xlink:href="#DejaVuSans-30" x="95.410156"/>
      </g>
     </g>
    </g>
    <g id="ytick_2">
     <g id="line2d_23">
      <path d="M 57.6 244.6848 
L 360.8064 244.6848 
" clip-path="url(#pd189d874ed)" style="fill: none; stroke: #b0b0b0; stroke-width: 0.8; stroke-linecap: square"/>
     </g>
     <g id="line2d_24">
      <g>
       <use xlink:href="#m4ab0a49104" x="57.6" y="244.6848" style="stroke: #000000; stroke-width: 0.8"/>
      </g>
     </g>
     <g id="text_7">
      <!-- 0.2 -->
      <g transform="translate(25.155 250.76355)scale(0.16 -0.16)">
       <use xlink:href="#DejaVuSans-30"/>
       <use xlink:href="#DejaVuSans-2e" x="63.623047"/>
       <use xlink:href="#DejaVuSans-32" x="95.410156"/>
      </g>
     </g>
    </g>
    <g id="ytick_3">
     <g id="line2d_25">
      <path d="M 57.6 190.4256 
L 360.8064 190.4256 
" clip-path="url(#pd189d874ed)" style="fill: none; stroke: #b0b0b0; stroke-width: 0.8; stroke-linecap: square"/>
     </g>
     <g id="line2d_26">
      <g>
       <use xlink:href="#m4ab0a49104" x="57.6" y="190.4256" style="stroke: #000000; stroke-width: 0.8"/>
      </g>
     </g>
     <g id="text_8">
      <!-- 0.4 -->
      <g transform="translate(25.155 196.50435)scale(0.16 -0.16)">
       <use xlink:href="#DejaVuSans-30"/>
       <use xlink:href="#DejaVuSans-2e" x="63.623047"/>
       <use xlink:href="#DejaVuSans-34" x="95.410156"/>
      </g>
     </g>
    </g>
    <g id="ytick_4">
     <g id="line2d_27">
      <path d="M 57.6 136.1664 
L 360.8064 136.1664 
" clip-path="url(#pd189d874ed)" style="fill: none; stroke: #b0b0b0; stroke-width: 0.8; stroke-linecap: square"/>
     </g>
     <g id="line2d_28">
      <g>
       <use xlink:href="#m4ab0a49104" x="57.6" y="136.1664" style="stroke: #000000; stroke-width: 0.8"/>
      </g>
     </g>
     <g id="text_9">
      <!-- 0.6 -->
      <g transform="translate(25.155 142.24515)scale(0.16 -0.16)">
       <use xlink:href="#DejaVuSans-30"/>
       <use xlink:href="#DejaVuSans-2e" x="63.623047"/>
       <use xlink:href="#DejaVuSans-36" x="95.410156"/>
      </g>
     </g>
    </g>
    <g id="ytick_5">
     <g id="line2d_29">
      <path d="M 57.6 81.9072 
L 360.8064 81.9072 
" clip-path="url(#pd189d874ed)" style="fill: none; stroke: #b0b0b0; stroke-width: 0.8; stroke-linecap: square"/>
     </g>
     <g id="line2d_30">
      <g>
       <use xlink:href="#m4ab0a49104" x="57.6" y="81.9072" style="stroke: #000000; stroke-width: 0.8"/>
      </g>
     </g>
     <g id="text_10">
      <!-- 0.8 -->
      <g transform="translate(25.155 87.98595)scale(0.16 -0.16)">
       <defs>
        <path id="DejaVuSans-38" d="M 2034 2216 
Q 1584 2216 1326 1975 
Q 1069 1734 1069 1313 
Q 1069 891 1326 650 
Q 1584 409 2034 409 
Q 2484 409 2743 651 
Q 3003 894 3003 1313 
Q 3003 1734 2745 1975 
Q 2488 2216 2034 2216 
z
M 1403 2484 
Q 997 2584 770 2862 
Q 544 3141 544 3541 
Q 544 4100 942 4425 
Q 1341 4750 2034 4750 
Q 2731 4750 3128 4425 
Q 3525 4100 3525 3541 
Q 3525 3141 3298 2862 
Q 3072 2584 2669 2484 
Q 3125 2378 3379 2068 
Q 3634 1759 3634 1313 
Q 3634 634 3220 271 
Q 2806 -91 2034 -91 
Q 1263 -91 848 271 
Q 434 634 434 1313 
Q 434 1759 690 2068 
Q 947 2378 1403 2484 
z
M 1172 3481 
Q 1172 3119 1398 2916 
Q 1625 2713 2034 2713 
Q 2441 2713 2670 2916 
Q 2900 3119 2900 3481 
Q 2900 3844 2670 4047 
Q 2441 4250 2034 4250 
Q 1625 4250 1398 4047 
Q 1172 3844 1172 3481 
z
" transform="scale(0.015625)"/>
       </defs>
       <use xlink:href="#DejaVuSans-30"/>
       <use xlink:href="#DejaVuSans-2e" x="63.623047"/>
       <use xlink:href="#DejaVuSans-38" x="95.410156"/>
      </g>
     </g>
    </g>
    <g id="ytick_6">
     <g id="line2d_31">
      <path d="M 57.6 27.648 
L 360.8064 27.648 
" clip-path="url(#pd189d874ed)" style="fill: none; stroke: #b0b0b0; stroke-width: 0.8; stroke-linecap: square"/>
     </g>
     <g id="line2d_32">
      <g>
       <use xlink:href="#m4ab0a49104" x="57.6" y="27.648" style="stroke: #000000; stroke-width: 0.8"/>
      </g>
     </g>
     <g id="text_11">
      <!-- 1.0 -->
      <g transform="translate(25.155 33.72675)scale(0.16 -0.16)">
       <use xlink:href="#DejaVuSans-31"/>
       <use xlink:href="#DejaVuSans-2e" x="63.623047"/>
       <use xlink:href="#DejaVuSans-30" x="95.410156"/>
      </g>
     </g>
    </g>
    <g id="text_12">
     <!-- Fraction of function,target pairs -->
     <g transform="translate(17.619531 297.681)rotate(-90)scale(0.17 -0.17)">
      <defs>
       <path id="DejaVuSans-46" d="M 628 4666 
L 3309 4666 
L 3309 4134 
L 1259 4134 
L 1259 2759 
L 3109 2759 
L 3109 2228 
L 1259 2228 
L 1259 0 
L 628 0 
L 628 4666 
z
" transform="scale(0.015625)"/>
       <path id="DejaVuSans-72" d="M 2631 2963 
Q 2534 3019 2420 3045 
Q 2306 3072 2169 3072 
Q 1681 3072 1420 2755 
Q 1159 2438 1159 1844 
L 1159 0 
L 581 0 
L 581 3500 
L 1159 3500 
L 1159 2956 
Q 1341 3275 1631 3429 
Q 1922 3584 2338 3584 
Q 2397 3584 2469 3576 
Q 2541 3569 2628 3553 
L 2631 2963 
z
" transform="scale(0.015625)"/>
       <path id="DejaVuSans-63" d="M 3122 3366 
L 3122 2828 
Q 2878 2963 2633 3030 
Q 2388 3097 2138 3097 
Q 1578 3097 1268 2742 
Q 959 2388 959 1747 
Q 959 1106 1268 751 
Q 1578 397 2138 397 
Q 2388 397 2633 464 
Q 2878 531 3122 666 
L 3122 134 
Q 2881 22 2623 -34 
Q 2366 -91 2075 -91 
Q 1284 -91 818 406 
Q 353 903 353 1747 
Q 353 2603 823 3093 
Q 1294 3584 2113 3584 
Q 2378 3584 2631 3529 
Q 2884 3475 3122 3366 
z
" transform="scale(0.015625)"/>
       <path id="DejaVuSans-74" d="M 1172 4494 
L 1172 3500 
L 2356 3500 
L 2356 3053 
L 1172 3053 
L 1172 1153 
Q 1172 725 1289 603 
Q 1406 481 1766 481 
L 2356 481 
L 2356 0 
L 1766 0 
Q 1100 0 847 248 
Q 594 497 594 1153 
L 594 3053 
L 172 3053 
L 172 3500 
L 594 3500 
L 594 4494 
L 1172 4494 
z
" transform="scale(0.015625)"/>
       <path id="DejaVuSans-75" d="M 544 1381 
L 544 3500 
L 1119 3500 
L 1119 1403 
Q 1119 906 1312 657 
Q 1506 409 1894 409 
Q 2359 409 2629 706 
Q 2900 1003 2900 1516 
L 2900 3500 
L 3475 3500 
L 3475 0 
L 2900 0 
L 2900 538 
Q 2691 219 2414 64 
Q 2138 -91 1772 -91 
Q 1169 -91 856 284 
Q 544 659 544 1381 
z
M 1991 3584 
L 1991 3584 
z
" transform="scale(0.015625)"/>
       <path id="DejaVuSans-2c" d="M 750 794 
L 1409 794 
L 1409 256 
L 897 -744 
L 494 -744 
L 750 256 
L 750 794 
z
" transform="scale(0.015625)"/>
       <path id="DejaVuSans-70" d="M 1159 525 
L 1159 -1331 
L 581 -1331 
L 581 3500 
L 1159 3500 
L 1159 2969 
Q 1341 3281 1617 3432 
Q 1894 3584 2278 3584 
Q 2916 3584 3314 3078 
Q 3713 2572 3713 1747 
Q 3713 922 3314 415 
Q 2916 -91 2278 -91 
Q 1894 -91 1617 61 
Q 1341 213 1159 525 
z
M 3116 1747 
Q 3116 2381 2855 2742 
Q 2594 3103 2138 3103 
Q 1681 3103 1420 2742 
Q 1159 2381 1159 1747 
Q 1159 1113 1420 752 
Q 1681 391 2138 391 
Q 2594 391 2855 752 
Q 3116 1113 3116 1747 
z
" transform="scale(0.015625)"/>
      </defs>
      <use xlink:href="#DejaVuSans-46"/>
      <use xlink:href="#DejaVuSans-72" x="50.269531"/>
      <use xlink:href="#DejaVuSans-61" x="91.382812"/>
      <use xlink:href="#DejaVuSans-63" x="152.662109"/>
      <use xlink:href="#DejaVuSans-74" x="207.642578"/>
      <use xlink:href="#DejaVuSans-69" x="246.851562"/>
      <use xlink:href="#DejaVuSans-6f" x="274.634766"/>
      <use xlink:href="#DejaVuSans-6e" x="335.816406"/>
      <use xlink:href="#DejaVuSans-20" x="399.195312"/>
      <use xlink:href="#DejaVuSans-6f" x="430.982422"/>
      <use xlink:href="#DejaVuSans-66" x="492.164062"/>
      <use xlink:href="#DejaVuSans-20" x="527.369141"/>
      <use xlink:href="#DejaVuSans-66" x="559.15625"/>
      <use xlink:href="#DejaVuSans-75" x="594.361328"/>
      <use xlink:href="#DejaVuSans-6e" x="657.740234"/>
      <use xlink:href="#DejaVuSans-63" x="721.119141"/>
      <use xlink:href="#DejaVuSans-74" x="776.099609"/>
      <use xlink:href="#DejaVuSans-69" x="815.308594"/>
      <use xlink:href="#DejaVuSans-6f" x="843.091797"/>
      <use xlink:href="#DejaVuSans-6e" x="904.273438"/>
      <use xlink:href="#DejaVuSans-2c" x="967.652344"/>
      <use xlink:href="#DejaVuSans-74" x="999.439453"/>
      <use xlink:href="#DejaVuSans-61" x="1038.648438"/>
      <use xlink:href="#DejaVuSans-72" x="1099.927734"/>
      <use xlink:href="#DejaVuSans-67" x="1139.291016"/>
      <use xlink:href="#DejaVuSans-65" x="1202.767578"/>
      <use xlink:href="#DejaVuSans-74" x="1264.291016"/>
      <use xlink:href="#DejaVuSans-20" x="1303.5"/>
      <use xlink:href="#DejaVuSans-70" x="1335.287109"/>
      <use xlink:href="#DejaVuSans-61" x="1398.763672"/>
      <use xlink:href="#DejaVuSans-69" x="1460.042969"/>
      <use xlink:href="#DejaVuSans-72" x="1487.826172"/>
      <use xlink:href="#DejaVuSans-73" x="1528.939453"/>
     </g>
    </g>
   </g>
   <g id="line2d_33">
    <defs>
     <path id="m4ba854f2da" d="M 0 1.5 
C 0.397805 1.5 0.77937 1.341951 1.06066 1.06066 
C 1.341951 0.77937 1.5 0.397805 1.5 0 
C 1.5 -0.397805 1.341951 -0.77937 1.06066 -1.06066 
C 0.77937 -1.341951 0.397805 -1.5 0 -1.5 
C -0.397805 -1.5 -0.77937 -1.341951 -1.06066 -1.06066 
C -1.341951 -0.77937 -1.5 -0.397805 -1.5 0 
C -1.5 0.397805 -1.341951 0.77937 -1.06066 1.06066 
C -0.77937 1.341951 -0.397805 1.5 0 1.5 
z
" style="stroke: #f5deb3"/>
    </defs>
    <g>
     <use xlink:href="#m4ba854f2da" x="194.72889" y="27.648" style="fill: #f5deb3; stroke: #f5deb3"/>
     <use xlink:href="#m4ba854f2da" x="194.72889" y="27.648" style="fill: #f5deb3; stroke: #f5deb3"/>
    </g>
   </g>
   <g id="line2d_34">
    <defs>
     <path id="m64122214f4" d="M 0 1.5 
C 0.397805 1.5 0.77937 1.341951 1.06066 1.06066 
C 1.341951 0.77937 1.5 0.397805 1.5 0 
C 1.5 -0.397805 1.341951 -0.77937 1.06066 -1.06066 
C 0.77937 -1.341951 0.397805 -1.5 0 -1.5 
C -0.397805 -1.5 -0.77937 -1.341951 -1.06066 -1.06066 
C -1.341951 -0.77937 -1.5 -0.397805 -1.5 0 
C -1.5 0.397805 -1.341951 0.77937 -1.06066 1.06066 
C -0.77937 1.341951 -0.397805 1.5 0 1.5 
z
" style="stroke: #000080"/>
    </defs>
    <g>
     <use xlink:href="#m64122214f4" x="263.408941" y="27.648" style="fill: #000080; stroke: #000080"/>
     <use xlink:href="#m64122214f4" x="263.408941" y="27.648" style="fill: #000080; stroke: #000080"/>
    </g>
   </g>
   <g id="line2d_35">
    <path d="M 57.6 298.944 
L 57.6 295.539501 
L 65.227428 295.539501 
L 65.227428 292.135002 
L 70.639174 292.135002 
L 70.639174 291.496659 
L 74.836851 291.496659 
L 74.836851 291.071096 
L 78.266603 291.071096 
L 78.266603 288.09216 
L 81.166416 288.09216 
L 81.166416 287.666598 
L 83.678349 287.666598 
L 83.678349 286.177129 
L 85.894031 286.177129 
L 85.894031 284.049318 
L 87.876026 284.049318 
L 87.876026 281.850579 
L 89.668958 281.850579 
L 89.668958 281.070381 
L 91.305777 281.070381 
L 91.305777 279.509986 
L 92.811505 279.509986 
L 92.811505 278.517007 
L 94.205591 278.517007 
L 94.205591 276.814758 
L 96.717523 276.814758 
L 96.717523 275.112508 
L 97.857967 275.112508 
L 97.857967 274.8288 
L 98.933205 274.8288 
L 98.933205 274.616019 
L 99.950294 274.616019 
L 99.950294 274.403238 
L 101.833019 274.332311 
L 101.833019 272.913769 
L 103.544339 272.842842 
L 103.544339 272.41728 
L 104.344952 272.41728 
L 104.344952 272.204499 
L 105.112877 272.204499 
L 105.112877 270.715031 
L 105.850679 270.715031 
L 105.850679 270.289468 
L 106.560633 270.289468 
L 106.560633 269.863906 
L 107.244765 269.863906 
L 107.244765 269.367416 
L 107.904887 269.367416 
L 107.904887 268.587219 
L 109.159456 268.587219 
L 109.159456 267.736094 
L 110.335561 267.736094 
L 110.335561 267.381459 
L 110.897141 267.381459 
L 110.897141 267.097751 
L 111.97238 267.097751 
L 111.97238 265.962918 
L 112.487797 265.962918 
L 112.487797 265.750136 
L 112.989468 265.750136 
L 112.989468 265.608282 
L 113.478107 265.608282 
L 113.478107 265.324574 
L 114.872193 265.324574 
L 114.872193 264.544376 
L 115.314838 264.544376 
L 115.314838 263.693252 
L 115.747307 263.693252 
L 115.747307 263.125835 
L 116.988079 263.125835 
L 116.988079 262.913054 
L 117.384126 262.913054 
L 117.384126 262.7712 
L 118.152051 262.700273 
L 118.152051 262.558419 
L 118.524569 262.558419 
L 118.524569 261.56544 
L 118.889854 261.56544 
L 118.889854 261.352659 
L 119.24818 261.352659 
L 119.24818 261.139878 
L 119.599808 261.139878 
L 119.599808 260.998024 
L 119.944983 260.998024 
L 119.944983 260.35968 
L 120.616896 260.35968 
L 120.616896 259.863191 
L 121.265635 259.792264 
L 121.265635 259.579482 
L 121.581803 259.579482 
L 121.581803 259.295774 
L 122.19863 259.224847 
L 122.19863 259.012066 
L 122.499621 259.012066 
L 122.499621 258.728358 
L 123.08753 258.728358 
L 123.08753 257.238889 
L 123.374735 257.238889 
L 123.374735 256.813327 
L 123.657621 256.813327 
L 123.657621 256.600546 
L 123.936316 256.600546 
L 123.936316 256.033129 
L 124.210942 256.033129 
L 124.210942 255.820348 
L 124.748451 255.749421 
L 124.748451 255.53664 
L 125.011554 255.53664 
L 125.011554 255.111078 
L 125.271028 255.111078 
L 125.271028 254.472734 
L 125.526971 254.472734 
L 125.526971 254.047172 
L 126.028642 253.976245 
L 126.028642 253.763464 
L 126.274549 253.763464 
L 126.274549 252.912339 
L 126.756923 252.912339 
L 126.756923 252.132141 
L 126.993549 252.132141 
L 126.993549 251.351944 
L 127.227236 251.351944 
L 127.227236 250.926381 
L 127.458055 250.926381 
L 127.458055 250.571746 
L 127.686077 250.571746 
L 127.686077 250.358965 
L 127.911368 250.358965 
L 127.911368 250.217111 
L 128.133992 250.217111 
L 128.133992 249.578767 
L 128.57149 249.50784 
L 128.57149 249.082278 
L 128.786481 249.082278 
L 128.786481 248.940424 
L 129.209231 248.940424 
L 129.209231 248.656715 
L 129.417095 248.656715 
L 129.417095 248.30208 
L 129.622688 248.30208 
L 129.622688 248.018372 
L 130.027253 247.947445 
L 130.027253 247.663736 
L 130.811181 247.592809 
L 130.811181 247.521882 
L 131.002163 247.521882 
L 131.002163 247.380028 
L 131.191226 247.380028 
L 131.191226 246.954466 
L 131.378407 246.954466 
L 131.378407 246.670758 
L 131.563744 246.670758 
L 131.563744 246.528904 
L 131.747272 246.528904 
L 131.747272 246.245195 
L 132.287354 246.174268 
L 132.287354 246.032414 
L 132.638982 246.032414 
L 132.638982 245.89056 
L 132.812362 245.89056 
L 132.812362 245.606852 
L 133.323114 245.535925 
L 133.323114 245.323144 
L 133.490329 245.323144 
L 133.490329 244.897581 
L 133.656071 244.897581 
L 133.656071 244.472019 
L 133.983236 244.472019 
L 133.983236 244.188311 
L 134.14471 244.188311 
L 134.14471 243.975529 
L 134.77709 243.975529 
L 134.77709 243.691821 
L 134.931919 243.691821 
L 134.931919 243.408113 
L 136.126705 243.337186 
L 136.126705 243.124405 
L 136.836659 243.053478 
L 136.836659 242.982551 
L 136.97549 242.982551 
L 136.97549 242.556988 
L 137.250116 242.556988 
L 137.250116 242.415134 
L 137.520791 242.415134 
L 137.520791 241.989572 
L 138.050729 241.918645 
L 138.050729 241.847718 
L 138.310202 241.847718 
L 138.310202 241.422155 
L 138.566146 241.351228 
L 138.566146 241.209374 
L 138.692823 241.209374 
L 138.692823 240.996593 
L 139.313723 240.925666 
L 139.313723 240.854739 
L 139.556456 240.854739 
L 139.556456 240.712885 
L 139.676658 240.712885 
L 139.676658 239.648979 
L 140.26641 239.578052 
L 140.26641 239.507125 
L 140.611586 239.436198 
L 140.611586 239.152489 
L 140.725251 239.152489 
L 140.725251 238.797854 
L 141.062184 238.797854 
L 141.173167 237.875802 
L 141.393187 237.875802 
L 141.50224 237.592094 
L 141.610664 237.592094 
L 141.610664 237.45024 
L 141.932237 237.45024 
L 141.932237 237.308386 
L 142.248405 237.308386 
L 142.248405 237.095605 
L 142.45627 237.095605 
L 142.559347 236.528188 
L 143.265494 236.528188 
L 143.364242 235.960772 
L 143.754133 235.889845 
L 143.754133 235.747991 
L 144.136106 235.747991 
L 144.2304 235.03872 
L 144.417581 235.03872 
L 144.417581 234.400376 
L 144.786447 234.400376 
L 144.877544 234.116668 
L 144.968202 234.116668 
L 144.968202 233.974814 
L 145.148219 233.974814 
L 145.237585 233.407398 
L 145.851536 233.336471 
L 145.93763 233.052762 
L 146.446082 232.981835 
L 146.446082 232.839981 
L 146.695245 232.839981 
L 146.695245 232.698127 
L 148.124658 232.6272 
L 148.124658 232.414419 
L 148.352679 232.414419 
L 148.352679 231.492367 
L 148.947561 231.42144 
L 148.947561 231.137732 
L 149.381693 231.066805 
L 149.453084 230.357534 
L 150.014665 230.286607 
L 150.014665 230.21568 
L 150.221009 230.144753 
L 150.221009 229.931972 
L 150.559965 229.861045 
L 150.559965 229.648264 
L 150.760445 229.577336 
L 150.760445 229.00992 
L 150.892922 229.00992 
L 150.958812 228.726212 
L 151.089903 228.655285 
L 151.089903 228.513431 
L 151.60532 228.442504 
L 151.668766 228.229722 
L 151.920429 228.158795 
L 151.982822 228.016941 
L 152.106991 227.946014 
L 152.16877 227.733233 
L 152.291722 227.662306 
L 152.291722 227.520452 
L 152.413875 227.520452 
L 152.413875 227.378598 
L 152.835271 227.307671 
L 152.835271 227.236744 
L 153.071898 227.236744 
L 153.071898 227.094889 
L 153.189104 227.094889 
L 153.189104 226.669327 
L 153.305585 226.669327 
L 153.363556 226.456546 
L 153.650761 226.385619 
L 153.650761 226.314692 
L 153.821002 226.314692 
L 153.877408 225.39264 
L 154.101358 225.321713 
L 154.101358 225.250786 
L 154.267588 225.250786 
L 154.377597 224.896151 
L 154.541415 224.825224 
L 154.649839 224.399661 
L 155.077392 224.399661 
L 155.077392 223.903172 
L 155.495444 223.832245 
L 155.495444 223.690391 
L 155.701037 223.619464 
L 155.701037 223.335755 
L 156.055505 223.264828 
L 156.155566 222.910193 
L 156.452597 222.839266 
L 156.550574 222.697412 
L 156.745011 222.626485 
L 156.793307 222.413704 
L 156.985263 222.413704 
L 157.080512 222.200922 
L 157.316545 222.129995 
L 157.316545 222.059068 
L 157.503261 222.059068 
L 157.503261 221.846287 
L 157.825621 221.846287 
L 157.871225 221.562579 
L 158.052543 221.491652 
L 158.052543 221.349798 
L 158.321284 221.278871 
L 158.410018 221.066089 
L 158.804221 220.995162 
L 158.804221 220.924235 
L 159.485256 220.853308 
L 159.485256 220.782381 
L 160.738476 220.711454 
L 160.738476 220.5696 
L 161.048777 220.498673 
L 161.048777 220.356819 
L 161.354042 220.356819 
L 161.354042 220.214965 
L 161.986735 220.214965 
L 161.986735 219.789402 
L 162.277267 219.789402 
L 162.38507 219.009205 
L 162.492258 218.938278 
L 162.59884 218.654569 
L 162.66956 218.654569 
L 162.66956 218.441788 
L 162.880139 218.441788 
L 162.949812 218.087153 
L 163.3965 218.016226 
L 163.3965 217.945299 
L 163.531835 217.945299 
L 163.565517 217.590664 
L 163.79962 217.519736 
L 163.865975 217.165101 
L 164.09639 217.094174 
L 164.194282 215.74656 
L 164.356312 215.675633 
L 164.420735 215.462852 
L 164.548924 215.462852 
L 164.644495 214.895435 
L 164.802709 214.824508 
L 164.897003 213.902456 
L 164.959603 213.902456 
L 165.053116 213.264113 
L 165.207944 213.193186 
L 165.207944 213.122259 
L 165.361509 213.051332 
L 165.45305 212.909478 
L 165.604634 212.909478 
L 165.695002 212.412988 
L 165.844657 212.342061 
L 165.904188 211.774645 
L 165.96353 211.774645 
L 165.96353 211.561864 
L 166.111072 211.561864 
L 166.199045 211.136301 
L 166.661411 211.065374 
L 166.746854 210.427031 
L 166.860176 210.356104 
L 166.944723 210.143322 
L 167.056864 210.072395 
L 167.056864 210.001468 
L 167.306762 210.001468 
L 167.38933 209.434052 
L 167.526142 209.363125 
L 167.607754 209.079416 
L 167.823671 209.008489 
L 167.823671 208.866635 
L 167.957371 208.866635 
L 168.010586 208.086438 
L 168.221954 208.015511 
L 168.221954 207.944584 
L 168.508761 207.873656 
L 168.611979 207.660875 
L 168.689024 207.589948 
L 168.765753 207.448094 
L 168.91828 207.448094 
L 169.019282 206.738824 
L 169.06958 206.738824 
L 169.119745 206.242334 
L 169.565302 206.171407 
L 169.614163 205.958626 
L 169.880655 205.958626 
L 169.904695 205.674918 
L 170.072123 205.603991 
L 170.167131 205.249355 
L 170.190808 205.249355 
L 170.261661 204.398231 
L 170.37916 204.327304 
L 170.449309 203.830814 
L 170.681267 203.759887 
L 170.7503 203.547106 
L 170.864796 203.476179 
L 170.93316 203.263398 
L 171.046551 203.263398 
L 171.091717 203.050616 
L 171.559524 202.979689 
L 171.625414 202.837835 
L 171.778266 202.766908 
L 171.778266 202.625054 
L 172.440637 202.554127 
L 172.503517 202.412273 
L 172.773594 202.341346 
L 172.876446 202.057638 
L 173.501874 201.986711 
L 173.56131 201.844856 
L 173.679622 201.773929 
L 173.679622 201.632075 
L 174.030158 201.561148 
L 174.030158 201.490221 
L 174.260272 201.419294 
L 174.260272 201.348367 
L 174.431028 201.27744 
L 174.431028 201.206513 
L 174.674972 201.135586 
L 174.73082 200.851878 
L 175.062472 200.780951 
L 175.062472 200.710024 
L 175.477915 200.639096 
L 175.477915 200.000753 
L 175.620293 200.000753 
L 175.620293 199.787972 
L 175.919314 199.787972 
L 175.936756 199.007774 
L 176.075715 198.936847 
L 176.075715 198.86592 
L 176.33353 198.794993 
L 176.36764 198.511285 
L 176.655103 198.440358 
L 176.655103 198.369431 
L 176.838794 198.298504 
L 176.938239 197.518306 
L 176.987765 197.447379 
L 176.987765 197.376452 
L 177.217177 197.305525 
L 177.282212 197.092744 
L 177.45991 197.092744 
L 177.45991 196.879962 
L 177.635944 196.879962 
L 177.635944 196.667181 
L 177.794559 196.596254 
L 177.873367 195.674202 
L 177.998778 195.674202 
L 177.998778 195.461421 
L 178.154375 195.461421 
L 178.154375 195.035859 
L 178.370071 194.964932 
L 178.400683 194.752151 
L 178.568169 194.681224 
L 178.613589 194.539369 
L 178.83906 194.539369 
L 178.83906 194.255661 
L 179.208941 194.255661 
L 179.223586 194.04288 
L 179.412941 194.04288 
L 179.485266 193.546391 
L 179.557313 193.475464 
L 179.643407 193.120828 
L 179.700586 193.120828 
L 179.700586 192.908047 
L 179.828604 192.908047 
L 179.927575 191.985995 
L 179.941672 191.985995 
L 180.011995 191.347652 
L 180.054064 191.347652 
L 180.054064 191.063944 
L 180.193616 190.993016 
L 180.304517 190.638381 
L 180.414768 190.567454 
L 180.510711 189.574475 
L 180.606166 189.503548 
L 180.714669 189.077986 
L 180.768686 189.077986 
L 180.862845 188.439642 
L 180.956535 188.368715 
L 180.956535 188.297788 
L 181.208509 188.297788 
L 181.313602 188.01408 
L 181.855908 187.943153 
L 181.881346 187.659445 
L 182.020644 187.588518 
L 182.020644 187.517591 
L 182.283747 187.446664 
L 182.383017 185.318852 
L 182.395389 185.318852 
L 182.494073 184.325873 
L 182.543221 184.325873 
L 182.653338 183.474748 
L 182.677721 183.474748 
L 182.774938 182.978259 
L 182.859594 182.978259 
L 182.955878 182.339915 
L 182.979872 182.339915 
L 183.075545 181.630645 
L 183.111297 181.559718 
L 183.123199 181.417864 
L 183.324394 181.346936 
L 183.430044 181.063228 
L 183.593219 181.063228 
L 183.628001 180.708593 
L 183.743481 180.637666 
L 183.743481 180.495812 
L 184.017773 180.424885 
L 184.11961 180.070249 
L 184.332807 179.999322 
L 184.432957 179.502833 
L 184.697447 179.431906 
L 184.784791 179.148198 
L 184.839175 179.148198 
L 184.839175 179.006344 
L 185.001391 178.935416 
L 185.001391 178.864489 
L 185.204877 178.864489 
L 185.300502 178.297073 
L 185.395644 178.226146 
L 185.427251 178.013365 
L 185.615787 177.942438 
L 185.688599 177.729656 
L 185.925875 177.658729 
L 185.925875 177.587802 
L 186.271237 177.516875 
L 186.301408 177.375021 
L 186.51126 177.304094 
L 186.620255 176.594824 
L 186.69913 176.523896 
L 186.79726 175.459991 
L 186.865648 175.459991 
L 186.953212 175.176282 
L 187.098251 175.105355 
L 187.175151 174.183304 
L 187.280377 174.183304 
L 187.37553 173.261252 
L 187.422926 173.261252 
L 187.422926 172.906616 
L 187.573796 172.835689 
L 187.583186 172.693835 
L 187.890434 172.622908 
L 187.982557 172.126419 
L 188.055932 172.126419 
L 188.055932 171.913638 
L 188.219988 171.842711 
L 188.328568 170.849732 
L 188.364623 170.849732 
L 188.364623 170.566024 
L 188.52602 170.495096 
L 188.623973 169.998607 
L 188.739083 169.92768 
L 188.844717 169.218409 
L 188.923555 169.147482 
L 188.984646 168.72192 
L 189.166736 168.650993 
L 189.261418 167.870795 
L 189.347081 167.799868 
L 189.449364 166.948744 
L 189.567996 166.877816 
L 189.669089 166.168546 
L 189.769641 166.097619 
L 189.869658 165.033713 
L 189.902879 164.962786 
L 190.002193 164.324442 
L 190.018694 164.324442 
L 190.068111 163.615172 
L 190.182916 163.544245 
L 190.280766 163.331464 
L 190.305149 163.260536 
L 190.410445 162.409412 
L 190.426593 162.338485 
L 190.531213 161.416433 
L 190.611297 161.416433 
L 190.714898 160.849016 
L 190.786289 160.778089 
L 190.888934 159.501402 
L 190.920404 159.430475 
L 191.030139 159.004913 
L 191.05357 159.004913 
L 191.092558 158.792132 
L 191.255429 158.721205 
L 191.324802 158.437496 
L 191.39392 158.366569 
L 191.493311 158.153788 
L 191.539007 158.082861 
L 191.599763 157.728226 
L 191.660323 157.728226 
L 191.765837 157.231736 
L 191.915552 157.160809 
L 192.012231 156.806174 
L 192.167364 156.806174 
L 192.218791 156.451539 
L 192.350392 156.380612 
L 192.408587 156.167831 
L 192.51722 156.096904 
L 192.560499 155.813195 
L 192.653928 155.742268 
L 192.761157 155.245779 
L 192.818097 155.174852 
L 192.903185 154.891144 
L 193.086233 154.820216 
L 193.121231 154.678362 
L 193.378214 154.607435 
L 193.43332 154.465581 
L 193.522523 154.394654 
L 193.522523 154.323727 
L 193.672525 154.2528 
L 193.679315 154.110946 
L 193.828077 154.040019 
L 193.881882 153.543529 
L 193.968988 153.472602 
L 194.055693 153.259821 
L 194.108852 153.188894 
L 194.194916 152.905186 
L 194.64524 152.905186 
L 194.64524 152.763332 
L 194.88235 152.692405 
L 194.958613 152.408696 
L 195.097631 152.337769 
L 195.110218 152.195915 
L 195.52094 152.124988 
L 195.625295 151.699426 
L 195.698611 151.628499 
L 195.698611 151.557572 
L 195.92891 151.486645 
L 196.001054 151.061082 
L 196.138562 150.990155 
L 196.138562 150.919228 
L 196.381218 150.848301 
L 196.48677 150.63552 
L 196.580099 150.564593 
L 196.684543 150.351812 
L 196.983054 150.280885 
L 196.988749 150.139031 
L 197.136202 150.068104 
L 197.181341 149.784395 
L 197.405424 149.713468 
L 197.422123 149.571614 
L 197.571752 149.500687 
L 197.665355 148.436781 
L 197.714722 148.436781 
L 197.823965 147.656584 
L 198.067466 147.585656 
L 198.142584 146.592678 
L 198.185374 146.592678 
L 198.281297 145.954334 
L 198.366153 145.883407 
L 198.455896 145.245064 
L 198.482209 145.245064 
L 198.545212 144.961355 
L 198.675794 144.890428 
L 198.722582 144.464866 
L 198.888005 144.393939 
L 198.913721 144.181158 
L 199.21455 144.110231 
L 199.21455 143.897449 
L 199.370705 143.826522 
L 199.460784 143.613741 
L 199.639659 143.542814 
L 199.743223 143.117252 
L 200.016637 143.046325 
L 200.016637 142.904471 
L 200.219121 142.833544 
L 200.324321 142.620762 
L 200.414704 142.549835 
L 200.490481 142.266127 
L 200.575366 142.1952 
L 200.627053 141.982419 
L 200.975726 141.911492 
L 201.081371 141.627784 
L 201.172756 141.556856 
L 201.263699 141.344075 
L 201.331619 141.273148 
L 201.426297 141.060367 
L 201.484669 140.98944 
L 201.591959 140.705732 
L 201.672028 140.634805 
L 201.769428 140.351096 
L 201.936487 140.280169 
L 201.936487 140.209242 
L 202.054291 140.138315 
L 202.13242 139.925534 
L 202.244702 139.854607 
L 202.352037 139.429045 
L 202.488539 139.358118 
L 202.497037 139.216264 
L 202.808815 139.145336 
L 202.81717 139.003482 
L 202.92545 138.932555 
L 203.033111 138.719774 
L 203.127838 138.648847 
L 203.152471 138.436066 
L 203.785835 138.365139 
L 203.888696 138.223285 
L 204.010606 138.152358 
L 204.010606 138.081431 
L 204.540109 138.010504 
L 204.62756 137.868649 
L 204.850051 137.797722 
L 204.887502 137.584941 
L 205.114351 137.514014 
L 205.162345 137.301233 
L 205.447762 137.230306 
L 205.447762 137.159379 
L 205.635662 137.088452 
L 205.635662 137.017525 
L 205.995345 136.946598 
L 206.079812 136.733816 
L 206.271965 136.662889 
L 206.358662 136.308254 
L 206.420838 136.237327 
L 206.455291 135.953619 
L 206.595894 135.953619 
L 206.694714 134.322296 
L 206.7117 134.322296 
L 206.772721 133.825807 
L 206.897536 133.75488 
L 206.97136 133.187464 
L 207.0649 133.116536 
L 207.164608 132.832828 
L 207.276975 132.761901 
L 207.37229 132.194485 
L 207.577705 132.123558 
L 207.674739 131.839849 
L 207.735935 131.768922 
L 207.755219 131.627068 
L 207.978751 131.556141 
L 208.035804 131.414287 
L 208.349651 131.34336 
L 208.349651 131.201506 
L 208.470646 131.201506 
L 208.550879 130.208527 
L 208.606225 130.1376 
L 208.701163 129.782965 
L 208.777379 129.782965 
L 208.804741 129.357402 
L 208.916814 129.357402 
L 209.019215 127.938861 
L 209.097147 127.938861 
L 209.159857 127.442372 
L 209.323114 127.371445 
L 209.396856 127.158664 
L 209.528868 127.087736 
L 209.616363 126.378466 
L 209.778608 126.307539 
L 209.778608 126.236612 
L 210.268357 126.165685 
L 210.34689 125.952904 
L 210.42231 125.881976 
L 210.42231 125.811049 
L 210.555647 125.740122 
L 210.627478 124.747144 
L 210.762112 124.676216 
L 210.868585 122.193769 
L 210.874029 122.193769 
L 210.966336 121.342645 
L 210.985284 121.342645 
L 211.07974 119.995031 
L 211.098575 119.995031 
L 211.187112 118.718344 
L 211.224548 118.647416 
L 211.328443 117.725365 
L 211.352337 117.725365 
L 211.447613 117.157948 
L 211.49507 117.087021 
L 211.60534 116.448678 
L 211.618425 116.377751 
L 211.720173 116.023115 
L 211.813608 115.952188 
L 211.911733 115.597553 
L 212.034953 115.526626 
L 212.034953 115.455699 
L 212.208145 115.384772 
L 212.258782 115.171991 
L 212.407371 115.101064 
L 212.497462 114.46272 
L 212.549817 114.391793 
L 212.654091 113.966231 
L 212.730687 113.895304 
L 212.799603 113.540668 
L 212.97323 113.469741 
L 213.067925 113.044179 
L 213.111471 112.973252 
L 213.150093 112.689544 
L 213.282256 112.618616 
L 213.282256 112.547689 
L 213.498908 112.476762 
L 213.529655 112.263981 
L 213.715432 112.193054 
L 213.825094 111.625638 
L 213.904027 111.554711 
L 213.904027 111.483784 
L 214.070094 111.412856 
L 214.177713 108.43392 
L 214.218766 108.362993 
L 214.327806 106.660744 
L 214.345918 106.589816 
L 214.451975 104.603859 
L 214.469968 104.532932 
L 214.573094 104.036442 
L 214.624446 103.965515 
L 214.728949 103.114391 
L 214.759965 103.114391 
L 214.868122 102.546974 
L 214.892317 102.476047 
L 214.936229 102.192339 
L 215.15426 102.121412 
L 215.236454 101.837704 
L 215.288182 101.766776 
L 215.395492 101.483068 
L 215.42543 101.483068 
L 215.525588 101.19936 
L 215.574408 101.19936 
L 215.677995 100.419162 
L 215.732729 100.419162 
L 215.818717 99.638965 
L 215.904315 99.568038 
L 216.014391 99.142475 
L 216.041293 99.071548 
L 216.144404 98.575059 
L 216.251043 98.504132 
L 216.322481 98.149496 
L 216.430144 98.078569 
L 216.49687 97.653007 
L 216.599528 97.58208 
L 216.65365 97.440226 
L 216.74351 97.369299 
L 216.74351 97.298372 
L 216.925897 97.227445 
L 217.018396 96.872809 
L 217.10458 96.801882 
L 217.211757 96.163539 
L 217.264149 96.092612 
L 217.308664 95.950758 
L 217.433901 95.879831 
L 217.44542 95.737976 
L 217.680007 95.667049 
L 217.761332 95.454268 
L 217.952848 95.383341 
L 218.02184 95.241487 
L 218.166459 95.17056 
L 218.258583 94.461289 
L 218.280625 94.461289 
L 218.383151 93.9648 
L 218.392278 93.9648 
L 218.492383 93.113675 
L 218.561237 93.042748 
L 218.662248 92.333478 
L 218.755562 92.262551 
L 218.862659 91.695134 
L 218.876892 91.624207 
L 218.935493 91.411426 
L 219.013343 91.340499 
L 219.104935 90.844009 
L 219.166334 90.773082 
L 219.269382 90.205666 
L 219.305925 90.134739 
L 219.409942 89.638249 
L 219.449664 89.638249 
L 219.552892 89.070833 
L 219.59916 88.999906 
L 219.696466 88.574344 
L 219.72369 88.503416 
L 219.786494 88.290635 
L 219.850778 88.219708 
L 219.953514 88.077854 
L 220.003835 88.006927 
L 220.09074 87.865073 
L 220.122394 87.865073 
L 220.213724 87.510438 
L 220.380294 87.439511 
L 220.463846 87.155802 
L 220.5698 87.084875 
L 220.628226 86.73024 
L 220.850526 86.659313 
L 220.933615 86.446532 
L 221.2404 86.375605 
L 221.332718 86.162824 
L 221.41837 86.091896 
L 221.469575 85.950042 
L 221.559235 85.950042 
L 221.594672 85.595407 
L 221.708235 85.52448 
L 221.780009 85.098918 
L 221.836319 85.027991 
L 221.887916 84.886136 
L 222.016292 84.815209 
L 222.109382 84.389647 
L 222.185611 84.31872 
L 222.270445 83.964085 
L 222.33863 83.893158 
L 222.33863 83.822231 
L 222.595793 83.751304 
L 222.659902 83.396668 
L 222.74842 83.396668 
L 222.823551 81.268856 
L 222.869637 81.268856 
L 222.977209 78.928264 
L 223.002936 78.857336 
L 223.081326 78.077139 
L 223.177796 78.006212 
L 223.265324 76.729525 
L 223.351046 76.658598 
L 223.39446 76.374889 
L 223.469845 76.303962 
L 223.478203 76.162108 
L 223.593437 76.091181 
L 223.662516 75.807473 
L 223.787592 75.736546 
L 223.865515 75.452838 
L 224.309081 75.381911 
L 224.416701 75.240056 
L 224.602583 75.169129 
L 224.700714 75.027275 
L 224.774952 74.956348 
L 224.793141 74.743567 
L 224.958632 74.743567 
L 225.044679 74.388932 
L 225.436508 74.318005 
L 225.501652 73.892442 
L 225.552857 73.892442 
L 225.649888 72.899464 
L 225.704404 72.899464 
L 225.814193 71.197214 
L 225.840005 71.126287 
L 225.923346 70.346089 
L 225.966098 70.275162 
L 226.071948 69.353111 
L 226.109522 69.282184 
L 226.198911 69.069402 
L 226.261472 68.998475 
L 226.281879 68.856621 
L 226.526243 68.785694 
L 226.605425 68.572913 
L 226.654892 68.501986 
L 226.725334 68.289205 
L 227.016036 68.218278 
L 227.07134 68.076424 
L 227.288672 68.005496 
L 227.288672 67.934569 
L 227.424651 67.863642 
L 227.424651 67.792715 
L 227.571982 67.721788 
L 227.634613 67.579934 
L 227.710385 67.509007 
L 227.798033 67.296226 
L 227.927095 67.225299 
L 228.032335 66.870664 
L 228.061828 66.799736 
L 228.123939 66.019539 
L 228.228086 65.948612 
L 228.310129 65.523049 
L 228.367132 65.452122 
L 228.41968 65.02656 
L 228.511553 64.955633 
L 228.511553 64.884706 
L 228.735081 64.813779 
L 228.735081 64.742852 
L 228.918477 64.671925 
L 229.010027 64.530071 
L 229.405404 64.459144 
L 229.405404 64.388216 
L 229.686819 64.317289 
L 229.795629 61.834842 
L 229.806574 61.834842 
L 229.90876 58.784979 
L 229.94237 58.714052 
L 230.039893 57.579219 
L 230.078173 57.508292 
L 230.163286 56.58624 
L 230.206186 56.515313 
L 230.290724 56.160678 
L 230.3314 56.089751 
L 230.411525 55.664188 
L 230.50761 55.593261 
L 230.618458 54.883991 
L 230.684085 54.813064 
L 230.684085 54.742136 
L 230.853274 54.671209 
L 230.963045 54.458428 
L 231.098202 54.387501 
L 231.098202 54.316574 
L 231.660001 54.245647 
L 231.762488 53.110814 
L 231.792946 53.110814 
L 231.902723 51.834127 
L 231.91073 51.834127 
L 232.019824 50.628367 
L 232.023361 50.55744 
L 232.117735 50.060951 
L 232.158161 49.990024 
L 232.23176 49.777242 
L 232.315523 49.706315 
L 232.3781 49.35168 
L 232.525033 49.280753 
L 232.525033 49.209826 
L 232.675097 49.138899 
L 232.781558 48.997045 
L 233.084841 48.926118 
L 233.084841 48.855191 
L 233.372615 48.784264 
L 233.473574 48.14592 
L 233.542212 48.074993 
L 233.645512 47.436649 
L 233.662538 47.365722 
L 233.761957 47.011087 
L 233.807048 46.94016 
L 233.868069 46.514598 
L 233.984743 46.443671 
L 234.0571 46.301816 
L 234.219876 46.230889 
L 234.24032 46.089035 
L 235.007239 46.018108 
L 235.0276 45.876254 
L 235.146309 45.805327 
L 235.179982 45.592546 
L 235.288076 45.521619 
L 235.355598 45.166984 
L 235.41845 45.096056 
L 235.525919 44.670494 
L 235.587474 44.599567 
L 235.69253 44.244932 
L 235.804236 44.174005 
L 235.861284 43.890296 
L 236.084196 43.819369 
L 236.084196 43.748442 
L 236.473459 43.677515 
L 236.582023 43.393807 
L 236.63538 43.32288 
L 236.63538 43.251953 
L 237.098097 43.181026 
L 237.098097 43.110099 
L 237.354916 43.039172 
L 237.424052 42.684536 
L 237.520021 42.613609 
L 237.572102 42.400828 
L 237.71377 42.329901 
L 237.726181 42.188047 
L 237.879007 42.11712 
L 237.938501 41.975266 
L 238.037026 41.904339 
L 238.132482 41.691558 
L 238.282056 41.620631 
L 238.371233 41.336922 
L 238.66361 41.265995 
L 238.66361 41.195068 
L 238.986962 41.124141 
L 238.986962 41.053214 
L 239.237483 40.982287 
L 239.347431 40.698579 
L 239.462099 40.627652 
L 239.544681 40.485798 
L 239.597367 40.414871 
L 239.661692 40.273016 
L 240.215491 40.202089 
L 240.281731 39.989308 
L 240.351714 39.918381 
L 240.386892 39.634673 
L 240.484138 39.563746 
L 240.507808 39.350965 
L 240.639702 39.280038 
L 240.722851 39.138184 
L 241.169096 39.067256 
L 241.205493 38.925402 
L 241.44064 38.854475 
L 241.456177 38.641694 
L 241.581076 38.570767 
L 241.675532 38.003351 
L 241.815807 37.932424 
L 241.815807 37.861496 
L 242.441022 37.790569 
L 242.541885 37.435934 
L 242.664322 37.365007 
L 242.739504 37.010372 
L 242.979075 36.939445 
L 243.053012 36.797591 
L 243.101161 36.726664 
L 243.101161 36.655736 
L 243.402955 36.584809 
L 243.513211 35.591831 
L 243.546305 35.520904 
L 243.628073 35.379049 
L 243.698082 35.308122 
L 243.793388 35.024414 
L 243.856658 34.953487 
L 243.966637 34.811633 
L 244.303359 34.740706 
L 244.363104 34.527925 
L 244.448715 34.456998 
L 244.538483 34.102362 
L 244.573908 34.031435 
L 244.616512 33.747727 
L 244.7352 33.6768 
L 244.801662 33.534946 
L 245.249498 33.464019 
L 245.343812 33.180311 
L 245.427684 33.109384 
L 245.534481 32.612894 
L 245.784603 32.541967 
L 245.850858 32.400113 
L 246.277987 32.329186 
L 246.277987 32.258259 
L 246.466851 32.187332 
L 246.549141 32.045478 
L 247.022722 32.045478 
L 247.114915 31.690842 
L 247.337171 31.619915 
L 247.337171 31.548988 
L 247.702244 31.478061 
L 247.733724 31.336207 
L 247.869785 31.26528 
L 247.889577 31.123426 
L 248.29526 31.052499 
L 248.400326 30.839718 
L 248.744068 30.768791 
L 248.74843 30.626936 
L 249.168562 30.556009 
L 249.252607 30.272301 
L 249.943182 30.201374 
L 250.048958 29.917666 
L 250.350418 29.846739 
L 250.399418 29.704885 
L 250.599093 29.633958 
L 250.646137 29.492104 
L 251.130715 29.421176 
L 251.232266 29.279322 
L 251.513602 29.208395 
L 251.513602 29.137468 
L 251.90576 29.066541 
L 251.968648 28.85376 
L 252.095317 28.782833 
L 252.11508 28.640979 
L 253.458066 28.570052 
L 253.458066 28.499125 
L 256.326851 28.428198 
L 256.326851 28.357271 
L 257.048408 28.286344 
L 257.048408 28.215416 
L 258.754514 28.144489 
L 258.754514 28.073562 
L 260.273228 28.002635 
L 260.378304 27.860781 
L 261.088229 27.789854 
L 261.088229 27.718927 
L 360.8064 27.648 
L 360.8064 27.648 
" style="fill: none; stroke: #000080; stroke-width: 1.5; stroke-linecap: square"/>
   </g>
   <g id="line2d_36">
    <defs>
     <path id="mafe74a1ce3" d="M 0 6 
C 1.591219 6 3.117479 5.367802 4.242641 4.242641 
C 5.367802 3.117479 6 1.591219 6 0 
C 6 -1.591219 5.367802 -3.117479 4.242641 -4.242641 
C 3.117479 -5.367802 1.591219 -6 0 -6 
C -1.591219 -6 -3.117479 -5.367802 -4.242641 -4.242641 
C -5.367802 -3.117479 -6 -1.591219 -6 0 
C -6 1.591219 -5.367802 3.117479 -4.242641 4.242641 
C -3.117479 5.367802 -1.591219 6 0 6 
z
" style="stroke: #000080; stroke-width: 1.5"/>
    </defs>
    <g>
     <use xlink:href="#mafe74a1ce3" x="153.071898" y="227.236744" style="fill-opacity: 0; stroke: #000080; stroke-width: 1.5"/>
     <use xlink:href="#mafe74a1ce3" x="208.035804" y="131.414287" style="fill-opacity: 0; stroke: #000080; stroke-width: 1.5"/>
     <use xlink:href="#mafe74a1ce3" x="263.408941" y="27.718927" style="fill-opacity: 0; stroke: #000080; stroke-width: 1.5"/>
     <use xlink:href="#mafe74a1ce3" x="263.408941" y="27.648" style="fill-opacity: 0; stroke: #000080; stroke-width: 1.5"/>
     <use xlink:href="#mafe74a1ce3" x="360.8064" y="27.648" style="fill-opacity: 0; stroke: #000080; stroke-width: 1.5"/>
    </g>
   </g>
   <g id="line2d_37">
    <path style="fill: none; stroke: #000080; stroke-width: 1.5; stroke-linecap: square"/>
    <g/>
   </g>
   <g id="line2d_38">
    <path d="M 105.850679 270.289468 
" clip-path="url(#pd189d874ed)" style="fill: none; stroke: #000080; stroke-width: 1.5; stroke-linecap: square"/>
    <defs>
     <path id="m6900632ca2" d="M -12 12 
L 12 -12 
M -12 -12 
L 12 12 
" style="stroke: #000080"/>
    </defs>
    <g clip-path="url(#pd189d874ed)">
     <use xlink:href="#m6900632ca2" x="105.850679" y="270.289468" style="fill: #000080; stroke: #000080"/>
    </g>
   </g>
   <g id="line2d_39">
    <defs>
     <path id="m38f674f507" d="M 0 1.5 
C 0.397805 1.5 0.77937 1.341951 1.06066 1.06066 
C 1.341951 0.77937 1.5 0.397805 1.5 0 
C 1.5 -0.397805 1.341951 -0.77937 1.06066 -1.06066 
C 0.77937 -1.341951 0.397805 -1.5 0 -1.5 
C -0.397805 -1.5 -0.77937 -1.341951 -1.06066 -1.06066 
C -1.341951 -0.77937 -1.5 -0.397805 -1.5 0 
C -1.5 0.397805 -1.341951 0.77937 -1.06066 1.06066 
C -0.77937 1.341951 -0.397805 1.5 0 1.5 
z
" style="stroke: #ff00ff"/>
    </defs>
    <g>
     <use xlink:href="#m38f674f507" x="209.070207" y="27.648" style="fill: #ff00ff; stroke: #ff00ff"/>
     <use xlink:href="#m38f674f507" x="209.070207" y="27.648" style="fill: #ff00ff; stroke: #ff00ff"/>
    </g>
   </g>
   <g id="line2d_40">
    <path d="M 44.560826 298.944 
L 44.560826 297.170824 
L 57.6 297.170824 
L 57.6 289.723482 
L 65.227428 289.723482 
L 65.227428 286.177129 
L 70.639174 286.177129 
L 70.639174 284.758588 
L 81.166416 284.758588 
L 81.166416 284.403953 
L 83.678349 284.403953 
L 83.678349 283.340047 
L 85.894031 283.340047 
L 85.894031 282.630776 
L 89.668958 282.630776 
L 89.668958 281.212235 
L 91.305777 281.212235 
L 91.305777 279.439059 
L 92.811505 279.439059 
L 92.811505 279.084424 
L 94.205591 279.084424 
L 94.205591 277.665882 
L 96.717523 277.665882 
L 96.717523 276.247341 
L 97.857967 276.247341 
L 97.857967 275.892706 
L 100.9152 275.892706 
L 100.9152 275.538071 
L 101.833019 275.538071 
L 101.833019 274.8288 
L 103.544339 274.8288 
L 103.544339 271.991718 
L 105.112877 271.991718 
L 105.112877 271.637082 
L 105.850679 271.637082 
L 105.850679 269.863906 
L 107.244765 269.863906 
L 107.244765 265.253647 
L 109.756698 265.253647 
L 109.756698 264.189741 
L 110.335561 264.189741 
L 110.335561 262.7712 
L 110.897141 262.7712 
L 110.897141 262.416565 
L 111.442442 262.416565 
L 111.442442 261.707294 
L 112.487797 261.707294 
L 112.487797 261.352659 
L 112.989468 261.352659 
L 112.989468 259.579482 
L 113.954374 259.579482 
L 113.954374 258.870212 
L 114.418881 258.870212 
L 114.418881 257.806306 
L 115.314838 257.806306 
L 115.314838 257.451671 
L 116.988079 257.451671 
L 116.988079 257.097035 
L 118.152051 257.097035 
L 118.152051 256.7424 
L 118.889854 256.7424 
L 118.889854 256.033129 
L 119.944983 256.033129 
L 119.944983 254.969224 
L 120.28394 254.969224 
L 120.28394 254.614588 
L 120.616896 254.614588 
L 120.616896 253.550682 
L 121.581803 253.550682 
L 121.581803 253.196047 
L 122.795872 253.196047 
L 122.795872 252.841412 
L 123.08753 252.841412 
L 123.08753 252.132141 
L 123.936316 252.132141 
L 123.936316 251.777506 
L 124.210942 251.777506 
L 124.210942 251.422871 
L 125.526971 251.422871 
L 125.526971 251.068235 
L 126.028642 251.068235 
L 126.028642 250.358965 
L 126.517282 250.358965 
L 126.517282 249.649694 
L 126.756923 249.649694 
L 126.756923 249.295059 
L 127.458055 249.295059 
L 127.458055 248.940424 
L 127.911368 248.940424 
L 127.911368 247.876518 
L 128.57149 247.876518 
L 128.57149 247.167247 
L 128.786481 247.167247 
L 128.786481 246.457976 
L 129.417095 246.457976 
L 129.417095 246.103341 
L 129.826058 246.103341 
L 129.826058 245.394071 
L 130.4233 245.394071 
L 130.4233 245.039435 
L 131.002163 245.039435 
L 131.002163 243.975529 
L 131.563744 243.975529 
L 131.563744 243.266259 
L 132.287354 243.266259 
L 132.287354 241.847718 
L 132.638982 241.847718 
L 132.638982 241.493082 
L 132.812362 241.493082 
L 132.812362 240.429176 
L 133.154399 240.429176 
L 133.154399 240.074541 
L 134.304809 240.074541 
L 134.304809 239.719906 
L 135.388902 239.719906 
L 135.388902 239.365271 
L 135.687504 239.365271 
L 135.687504 239.010635 
L 136.413909 239.010635 
L 136.413909 238.656 
L 136.836659 238.656 
L 136.836659 238.301365 
L 136.97549 238.301365 
L 136.97549 237.592094 
L 137.250116 237.592094 
L 137.250116 236.882824 
L 138.180913 236.882824 
L 138.180913 235.818918 
L 138.438609 235.818918 
L 138.438609 234.755012 
L 138.692823 234.755012 
L 138.692823 234.400376 
L 138.818654 234.400376 
L 138.818654 234.045741 
L 139.191172 234.045741 
L 139.191172 232.981835 
L 140.49723 232.981835 
L 140.49723 232.6272 
L 140.838234 232.6272 
L 140.838234 231.563294 
L 142.661862 231.563294 
L 142.763822 230.854024 
L 143.657415 230.854024 
L 143.657415 230.499388 
L 144.2304 230.499388 
L 144.324223 229.435482 
L 144.417581 229.435482 
L 144.417581 228.016941 
L 144.786447 228.016941 
L 144.786447 227.662306 
L 145.237585 227.662306 
L 145.326529 226.953035 
L 146.108646 226.953035 
L 146.108646 225.889129 
L 146.529503 225.889129 
L 146.529503 225.534494 
L 147.183884 225.534494 
L 147.183884 224.825224 
L 147.581606 224.825224 
L 147.581606 224.470588 
L 147.73837 224.470588 
L 147.816265 223.761318 
L 148.57797 223.761318 
L 148.57797 221.633506 
L 148.726679 221.633506 
L 148.726679 220.924235 
L 149.020615 220.924235 
L 149.020615 219.860329 
L 150.014665 219.860329 
L 150.014665 219.505694 
L 150.152479 219.505694 
L 150.152479 218.441788 
L 151.41369 218.441788 
L 151.477784 217.732518 
L 151.60532 217.732518 
L 151.60532 216.668612 
L 152.045009 216.668612 
L 152.045009 215.959341 
L 152.230346 215.959341 
L 152.291722 215.250071 
L 152.715833 215.250071 
L 152.715833 214.895435 
L 153.536404 214.895435 
L 153.536404 214.186165 
L 153.764426 214.186165 
L 153.764426 213.122259 
L 153.933646 213.122259 
L 153.933646 212.767624 
L 154.04562 212.767624 
L 154.04562 212.058353 
L 154.212341 212.058353 
L 154.212341 211.703718 
L 154.811312 211.703718 
L 154.86483 210.285176 
L 155.077392 210.285176 
L 155.13016 209.221271 
L 156.937458 209.221271 
L 156.937458 208.866635 
L 157.127956 208.866635 
L 157.127956 207.448094 
L 157.916719 207.448094 
L 157.916719 207.093459 
L 158.760826 207.093459 
L 158.760826 206.738824 
L 159.14782 206.738824 
L 159.14782 205.674918 
L 160.061585 205.674918 
L 160.061585 205.320282 
L 160.422971 205.320282 
L 160.502345 204.611012 
L 160.816532 204.611012 
L 160.816532 203.901741 
L 161.765853 203.901741 
L 161.765853 202.837835 
L 162.168843 202.837835 
L 162.168843 202.4832 
L 163.260183 202.4832 
L 163.260183 202.128565 
L 163.699647 202.128565 
L 163.699647 201.773929 
L 164.420735 201.773929 
L 164.420735 200.355388 
L 164.580835 200.355388 
L 164.580835 200.000753 
L 165.96353 200.000753 
L 165.96353 199.646118 
L 166.546881 199.646118 
L 166.546881 199.291482 
L 166.972821 199.291482 
L 166.972821 198.227576 
L 167.416772 198.227576 
L 167.498859 197.518306 
L 167.823671 197.518306 
L 167.823671 196.809035 
L 168.063651 196.809035 
L 168.090128 196.099765 
L 168.221954 196.099765 
L 168.221954 195.745129 
L 168.867575 195.745129 
L 168.867575 195.390494 
L 169.244573 195.390494 
L 169.244573 195.035859 
L 170.00055 195.035859 
L 170.00055 194.326588 
L 170.332249 194.326588 
L 170.332249 193.971953 
L 170.61198 193.971953 
L 170.681267 193.262682 
L 170.819081 193.262682 
L 170.819081 192.908047 
L 170.955893 192.908047 
L 171.023928 191.134871 
L 171.248949 191.134871 
L 171.248949 190.780235 
L 172.293095 190.780235 
L 172.293095 190.4256 
L 172.545321 190.4256 
L 172.587032 189.361694 
L 172.670177 189.361694 
L 172.773594 188.297788 
L 172.794209 188.297788 
L 172.814802 187.588518 
L 173.141258 187.588518 
L 173.242125 184.042165 
L 173.342453 184.042165 
L 173.422332 183.332894 
L 173.699269 183.332894 
L 173.699269 182.623624 
L 174.010854 182.623624 
L 174.010854 181.205082 
L 174.393216 181.205082 
L 174.393216 180.495812 
L 174.637648 180.495812 
L 174.637648 180.141176 
L 174.878944 180.141176 
L 174.878944 179.431906 
L 175.098964 179.431906 
L 175.208017 177.304094 
L 175.298414 177.304094 
L 175.298414 176.949459 
L 175.51361 176.949459 
L 175.584799 175.885553 
L 175.866889 175.885553 
L 175.936756 173.403106 
L 176.384671 173.403106 
L 176.435674 170.566024 
L 176.722107 170.566024 
L 176.772205 169.502118 
L 177.200883 169.502118 
L 177.200883 169.147482 
L 177.314646 169.147482 
L 177.330842 168.438212 
L 177.45991 168.438212 
L 177.556133 167.019671 
L 177.60406 167.019671 
L 177.683669 165.955765 
L 177.731273 165.955765 
L 177.794559 164.537224 
L 178.014396 164.537224 
L 178.076737 163.118682 
L 178.154375 163.118682 
L 178.169864 162.054776 
L 178.308695 162.054776 
L 178.415971 159.217694 
L 178.446509 159.217694 
L 178.537828 157.444518 
L 178.83906 157.444518 
L 178.91362 156.025976 
L 179.120831 156.025976 
L 179.120831 155.671341 
L 179.614753 155.671341 
L 179.714853 154.607435 
L 179.75759 154.607435 
L 179.800231 153.543529 
L 179.941672 153.543529 
L 179.941672 152.479624 
L 180.054064 152.479624 
L 180.068066 149.287906 
L 180.263006 149.287906 
L 180.304517 147.869365 
L 180.455946 147.869365 
L 180.455946 147.514729 
L 180.578943 147.514729 
L 180.674054 144.677647 
L 180.822549 144.677647 
L 180.889661 143.613741 
L 180.969881 143.613741 
L 181.049761 142.1952 
L 181.129302 142.1952 
L 181.129302 140.776659 
L 181.261129 140.776659 
L 181.326697 139.712753 
L 181.378988 139.712753 
L 181.41811 139.003482 
L 181.496113 139.003482 
L 181.547935 135.102494 
L 181.664017 135.102494 
L 181.728198 131.201506 
L 181.868631 131.201506 
L 181.868631 129.428329 
L 182.020644 129.428329 
L 182.096193 128.719059 
L 182.133854 128.719059 
L 182.133854 128.364424 
L 182.246386 128.364424 
L 182.321035 126.945882 
L 182.407753 126.945882 
L 182.407753 125.881976 
L 182.689901 125.881976 
L 182.787055 123.044894 
L 182.931853 123.044894 
L 182.931853 121.980988 
L 183.135094 121.980988 
L 183.135094 121.626353 
L 183.300836 121.626353 
L 183.300836 121.271718 
L 183.418335 121.271718 
L 183.52346 117.370729 
L 183.81243 117.370729 
L 183.915382 115.597553 
L 184.074417 115.597553 
L 184.142166 113.824376 
L 184.243334 113.824376 
L 184.321646 113.115106 
L 184.510485 113.115106 
L 184.620688 112.0512 
L 184.631672 112.0512 
L 184.708387 111.341929 
L 184.784791 111.341929 
L 184.850033 109.923388 
L 184.947474 109.923388 
L 184.947474 109.568753 
L 185.226169 109.568753 
L 185.226169 109.214118 
L 185.395644 109.214118 
L 185.395644 108.150212 
L 185.553151 108.150212 
L 185.636619 106.731671 
L 185.719719 106.731671 
L 185.781803 104.249224 
L 185.987283 104.249224 
L 186.058675 102.830682 
L 186.119652 102.830682 
L 186.119652 102.476047 
L 186.291356 102.476047 
L 186.291356 102.121412 
L 186.451541 102.121412 
L 186.541048 100.702871 
L 186.590592 100.702871 
L 186.590592 99.9936 
L 186.79726 99.9936 
L 186.79726 99.638965 
L 187.030705 99.638965 
L 187.107881 98.929694 
L 187.507939 98.929694 
L 187.507939 98.220424 
L 187.945762 98.220424 
L 187.954967 96.801882 
L 188.065084 96.801882 
L 188.147251 96.092612 
L 188.210911 96.092612 
L 188.210911 95.737976 
L 188.427553 95.737976 
L 188.534946 94.319435 
L 188.570607 94.319435 
L 188.623973 93.610165 
L 188.72142 93.610165 
L 188.72142 93.255529 
L 188.967211 93.255529 
L 188.967211 92.900894 
L 189.080246 92.900894 
L 189.080246 91.836988 
L 189.25283 91.836988 
L 189.355626 90.063812 
L 189.389767 90.063812 
L 189.457863 88.290635 
L 189.786347 88.290635 
L 189.894579 86.517459 
L 190.150186 86.517459 
L 190.150186 85.098918 
L 190.627272 85.098918 
L 190.627272 84.744282 
L 190.738725 84.744282 
L 190.738725 84.389647 
L 191.014501 84.389647 
L 191.12369 82.616471 
L 191.270868 82.616471 
L 191.301706 81.552565 
L 191.546612 81.552565 
L 191.584592 79.779388 
L 191.967672 79.779388 
L 191.967672 79.070118 
L 192.488313 79.070118 
L 192.488313 78.360847 
L 192.603677 78.360847 
L 192.603677 77.296941 
L 192.810989 77.296941 
L 192.874865 73.395953 
L 193.001971 73.395953 
L 193.001971 73.041318 
L 193.204963 73.041318 
L 193.204963 72.686682 
L 193.42644 72.686682 
L 193.460812 70.913506 
L 193.760604 70.913506 
L 193.841543 69.8496 
L 194.002384 69.8496 
L 194.002384 69.140329 
L 194.418162 69.140329 
L 194.502826 67.367153 
L 194.658133 67.367153 
L 194.72889 66.657882 
L 194.780182 66.657882 
L 194.869609 65.593976 
L 194.914164 65.593976 
L 194.914164 65.239341 
L 195.166757 65.239341 
L 195.166757 64.884706 
L 195.372622 64.884706 
L 195.409811 62.756894 
L 195.674204 62.756894 
L 195.680309 61.692988 
L 195.92891 61.692988 
L 195.92891 60.629082 
L 196.251402 60.629082 
L 196.275071 58.146635 
L 196.469219 58.146635 
L 196.533492 56.728094 
L 196.701894 56.728094 
L 196.776898 53.536376 
L 196.851604 53.536376 
L 196.851604 53.181741 
L 196.97166 53.181741 
L 196.97166 52.117835 
L 197.19824 52.117835 
L 197.19824 51.408565 
L 197.321705 51.408565 
L 197.321705 51.053929 
L 197.483226 51.053929 
L 197.577271 49.280753 
L 197.731149 49.280753 
L 197.731149 48.571482 
L 197.867485 48.571482 
L 197.937991 46.798306 
L 198.15329 46.798306 
L 198.228067 45.025129 
L 198.450628 45.025129 
L 198.487467 44.315859 
L 198.618449 44.315859 
L 198.706999 43.251953 
L 198.74334 43.251953 
L 198.795134 41.833412 
L 199.194306 41.833412 
L 199.29027 39.7056 
L 199.345606 39.7056 
L 199.345606 38.641694 
L 199.669307 38.641694 
L 199.669307 38.287059 
L 200.074713 38.287059 
L 200.074713 37.932424 
L 200.271795 37.932424 
L 200.281356 36.868518 
L 200.715997 36.868518 
L 200.715997 36.159247 
L 201.085951 36.159247 
L 201.085951 35.095341 
L 201.299953 35.095341 
L 201.299953 34.740706 
L 204.722158 34.740706 
L 204.722158 34.031435 
L 206.708304 34.031435 
L 206.749014 32.612894 
L 206.843664 32.612894 
L 206.880717 31.548988 
L 207.319762 31.548988 
L 207.319762 31.194353 
L 207.493202 31.194353 
L 207.493202 30.130447 
L 208.368316 30.130447 
L 208.414898 28.357271 
L 208.934926 28.357271 
L 208.934926 28.002635 
L 209.070207 28.002635 
L 209.070207 27.648 
L 360.8064 27.648 
L 360.8064 27.648 
" style="fill: none; stroke: #ff00ff; stroke-width: 1.5; stroke-linecap: square"/>
   </g>
   <g id="line2d_41">
    <defs>
     <path id="m63ccc2944b" d="M -0 8.485281 
L 5.091169 0 
L 0 -8.485281 
L -5.091169 -0 
z
" style="stroke: #ff00ff; stroke-width: 1.5; stroke-linejoin: miter"/>
    </defs>
    <g>
     <use xlink:href="#m63ccc2944b" x="129.826058" y="245.394071" style="fill-opacity: 0; stroke: #ff00ff; stroke-width: 1.5; stroke-linejoin: miter"/>
     <use xlink:href="#m63ccc2944b" x="181.378988" y="139.712753" style="fill-opacity: 0; stroke: #ff00ff; stroke-width: 1.5; stroke-linejoin: miter"/>
     <use xlink:href="#m63ccc2944b" x="204.722158" y="34.031435" style="fill-opacity: 0; stroke: #ff00ff; stroke-width: 1.5; stroke-linejoin: miter"/>
     <use xlink:href="#m63ccc2944b" x="209.070207" y="27.648" style="fill-opacity: 0; stroke: #ff00ff; stroke-width: 1.5; stroke-linejoin: miter"/>
     <use xlink:href="#m63ccc2944b" x="209.070207" y="27.648" style="fill-opacity: 0; stroke: #ff00ff; stroke-width: 1.5; stroke-linejoin: miter"/>
     <use xlink:href="#m63ccc2944b" x="360.8064" y="27.648" style="fill-opacity: 0; stroke: #ff00ff; stroke-width: 1.5; stroke-linejoin: miter"/>
    </g>
   </g>
   <g id="line2d_42">
    <path style="fill: none; stroke: #ff00ff; stroke-width: 1.5; stroke-linecap: square"/>
    <g/>
   </g>
   <g id="line2d_43">
    <path d="M 360.8064 27.648 
L 380.514816 293.51808 
" style="fill: none; stroke: #000080; stroke-width: 1.5; stroke-linecap: square"/>
    <g>
     <use xlink:href="#mafe74a1ce3" x="360.8064" y="27.648" style="fill-opacity: 0; stroke: #000080; stroke-width: 1.5"/>
     <use xlink:href="#mafe74a1ce3" x="380.514816" y="293.51808" style="fill-opacity: 0; stroke: #000080; stroke-width: 1.5"/>
    </g>
   </g>
   <g id="line2d_44">
    <path d="M 360.8064 27.648 
L 380.514816 163.296 
" style="fill: none; stroke: #ff00ff; stroke-width: 1.5; stroke-linecap: square"/>
    <g>
     <use xlink:href="#m63ccc2944b" x="360.8064" y="27.648" style="fill-opacity: 0; stroke: #ff00ff; stroke-width: 1.5; stroke-linejoin: miter"/>
     <use xlink:href="#m63ccc2944b" x="380.514816" y="163.296" style="fill-opacity: 0; stroke: #ff00ff; stroke-width: 1.5; stroke-linejoin: miter"/>
    </g>
   </g>
   <g id="line2d_45">
    <path d="M 360.8064 298.944 
L 360.8064 27.648 
" style="fill: none; stroke: #000000; stroke-width: 1.5; stroke-linecap: square"/>
   </g>
   <g id="patch_3">
    <path d="M 57.6 298.944 
L 360.8064 298.944 
" style="fill: none; stroke: #000000; stroke-width: 0.8; stroke-linejoin: miter; stroke-linecap: square"/>
   </g>
   <g id="patch_4">
    <path d="M 57.6 27.648 
L 360.8064 27.648 
" style="fill: none; stroke: #000000; stroke-width: 0.8; stroke-linejoin: miter; stroke-linecap: square"/>
   </g>
   <g id="text_13">
    <!-- ex -->
    <g transform="translate(386.578944 297.381205)scale(0.14 -0.14)">
     <defs>
      <path id="DejaVuSans-78" d="M 3513 3500 
L 2247 1797 
L 3578 0 
L 2900 0 
L 1881 1375 
L 863 0 
L 184 0 
L 1544 1831 
L 300 3500 
L 978 3500 
L 1906 2253 
L 2834 3500 
L 3513 3500 
z
" transform="scale(0.015625)"/>
     </defs>
     <use xlink:href="#DejaVuSans-65"/>
     <use xlink:href="#DejaVuSans-78" x="59.773438"/>
    </g>
   </g>
   <g id="text_14">
    <!-- CMA-ES-20 -->
    <g transform="translate(386.578944 167.159125)scale(0.14 -0.14)">
     <defs>
      <path id="DejaVuSans-43" d="M 4122 4306 
L 4122 3641 
Q 3803 3938 3442 4084 
Q 3081 4231 2675 4231 
Q 1875 4231 1450 3742 
Q 1025 3253 1025 2328 
Q 1025 1406 1450 917 
Q 1875 428 2675 428 
Q 3081 428 3442 575 
Q 3803 722 4122 1019 
L 4122 359 
Q 3791 134 3420 21 
Q 3050 -91 2638 -91 
Q 1578 -91 968 557 
Q 359 1206 359 2328 
Q 359 3453 968 4101 
Q 1578 4750 2638 4750 
Q 3056 4750 3426 4639 
Q 3797 4528 4122 4306 
z
" transform="scale(0.015625)"/>
      <path id="DejaVuSans-4d" d="M 628 4666 
L 1569 4666 
L 2759 1491 
L 3956 4666 
L 4897 4666 
L 4897 0 
L 4281 0 
L 4281 4097 
L 3078 897 
L 2444 897 
L 1241 4097 
L 1241 0 
L 628 0 
L 628 4666 
z
" transform="scale(0.015625)"/>
      <path id="DejaVuSans-41" d="M 2188 4044 
L 1331 1722 
L 3047 1722 
L 2188 4044 
z
M 1831 4666 
L 2547 4666 
L 4325 0 
L 3669 0 
L 3244 1197 
L 1141 1197 
L 716 0 
L 50 0 
L 1831 4666 
z
" transform="scale(0.015625)"/>
      <path id="DejaVuSans-45" d="M 628 4666 
L 3578 4666 
L 3578 4134 
L 1259 4134 
L 1259 2753 
L 3481 2753 
L 3481 2222 
L 1259 2222 
L 1259 531 
L 3634 531 
L 3634 0 
L 628 0 
L 628 4666 
z
" transform="scale(0.015625)"/>
      <path id="DejaVuSans-53" d="M 3425 4513 
L 3425 3897 
Q 3066 4069 2747 4153 
Q 2428 4238 2131 4238 
Q 1616 4238 1336 4038 
Q 1056 3838 1056 3469 
Q 1056 3159 1242 3001 
Q 1428 2844 1947 2747 
L 2328 2669 
Q 3034 2534 3370 2195 
Q 3706 1856 3706 1288 
Q 3706 609 3251 259 
Q 2797 -91 1919 -91 
Q 1588 -91 1214 -16 
Q 841 59 441 206 
L 441 856 
Q 825 641 1194 531 
Q 1563 422 1919 422 
Q 2459 422 2753 634 
Q 3047 847 3047 1241 
Q 3047 1584 2836 1778 
Q 2625 1972 2144 2069 
L 1759 2144 
Q 1053 2284 737 2584 
Q 422 2884 422 3419 
Q 422 4038 858 4394 
Q 1294 4750 2059 4750 
Q 2388 4750 2728 4690 
Q 3069 4631 3425 4513 
z
" transform="scale(0.015625)"/>
     </defs>
     <use xlink:href="#DejaVuSans-43"/>
     <use xlink:href="#DejaVuSans-4d" x="69.824219"/>
     <use xlink:href="#DejaVuSans-41" x="156.103516"/>
     <use xlink:href="#DejaVuSans-2d" x="222.261719"/>
     <use xlink:href="#DejaVuSans-45" x="258.345703"/>
     <use xlink:href="#DejaVuSans-53" x="321.529297"/>
     <use xlink:href="#DejaVuSans-2d" x="385.005859"/>
     <use xlink:href="#DejaVuSans-32" x="421.089844"/>
     <use xlink:href="#DejaVuSans-30" x="484.712891"/>
    </g>
   </g>
   <g id="text_15">
    <!-- best 2009 -->
    <g transform="translate(386.578944 36.937045)scale(0.14 -0.14)">
     <defs>
      <path id="DejaVuSans-62" d="M 3116 1747 
Q 3116 2381 2855 2742 
Q 2594 3103 2138 3103 
Q 1681 3103 1420 2742 
Q 1159 2381 1159 1747 
Q 1159 1113 1420 752 
Q 1681 391 2138 391 
Q 2594 391 2855 752 
Q 3116 1113 3116 1747 
z
M 1159 2969 
Q 1341 3281 1617 3432 
Q 1894 3584 2278 3584 
Q 2916 3584 3314 3078 
Q 3713 2572 3713 1747 
Q 3713 922 3314 415 
Q 2916 -91 2278 -91 
Q 1894 -91 1617 61 
Q 1341 213 1159 525 
L 1159 0 
L 581 0 
L 581 4863 
L 1159 4863 
L 1159 2969 
z
" transform="scale(0.015625)"/>
      <path id="DejaVuSans-39" d="M 703 97 
L 703 672 
Q 941 559 1184 500 
Q 1428 441 1663 441 
Q 2288 441 2617 861 
Q 2947 1281 2994 2138 
Q 2813 1869 2534 1725 
Q 2256 1581 1919 1581 
Q 1219 1581 811 2004 
Q 403 2428 403 3163 
Q 403 3881 828 4315 
Q 1253 4750 1959 4750 
Q 2769 4750 3195 4129 
Q 3622 3509 3622 2328 
Q 3622 1225 3098 567 
Q 2575 -91 1691 -91 
Q 1453 -91 1209 -44 
Q 966 3 703 97 
z
M 1959 2075 
Q 2384 2075 2632 2365 
Q 2881 2656 2881 3163 
Q 2881 3666 2632 3958 
Q 2384 4250 1959 4250 
Q 1534 4250 1286 3958 
Q 1038 3666 1038 3163 
Q 1038 2656 1286 2365 
Q 1534 2075 1959 2075 
z
" transform="scale(0.015625)"/>
     </defs>
     <use xlink:href="#DejaVuSans-62"/>
     <use xlink:href="#DejaVuSans-65" x="63.476562"/>
     <use xlink:href="#DejaVuSans-73" x="125"/>
     <use xlink:href="#DejaVuSans-74" x="177.099609"/>
     <use xlink:href="#DejaVuSans-20" x="216.308594"/>
     <use xlink:href="#DejaVuSans-32" x="248.095703"/>
     <use xlink:href="#DejaVuSans-30" x="311.71875"/>
     <use xlink:href="#DejaVuSans-30" x="375.341797"/>
     <use xlink:href="#DejaVuSans-39" x="438.964844"/>
    </g>
   </g>
   <g id="text_16">
    <!-- bbob f18, 2-D -->
    <g transform="translate(60.632064 38.111366)scale(0.102 -0.102)">
     <defs>
      <path id="DejaVuSans-44" d="M 1259 4147 
L 1259 519 
L 2022 519 
Q 2988 519 3436 956 
Q 3884 1394 3884 2338 
Q 3884 3275 3436 3711 
Q 2988 4147 2022 4147 
L 1259 4147 
z
M 628 4666 
L 1925 4666 
Q 3281 4666 3915 4102 
Q 4550 3538 4550 2338 
Q 4550 1131 3912 565 
Q 3275 0 1925 0 
L 628 0 
L 628 4666 
z
" transform="scale(0.015625)"/>
     </defs>
     <use xlink:href="#DejaVuSans-62"/>
     <use xlink:href="#DejaVuSans-62" x="63.476562"/>
     <use xlink:href="#DejaVuSans-6f" x="126.953125"/>
     <use xlink:href="#DejaVuSans-62" x="188.134766"/>
     <use xlink:href="#DejaVuSans-20" x="251.611328"/>
     <use xlink:href="#DejaVuSans-66" x="283.398438"/>
     <use xlink:href="#DejaVuSans-31" x="318.603516"/>
     <use xlink:href="#DejaVuSans-38" x="382.226562"/>
     <use xlink:href="#DejaVuSans-2c" x="445.849609"/>
     <use xlink:href="#DejaVuSans-20" x="477.636719"/>
     <use xlink:href="#DejaVuSans-32" x="509.423828"/>
     <use xlink:href="#DejaVuSans-2d" x="573.046875"/>
     <use xlink:href="#DejaVuSans-44" x="609.130859"/>
    </g>
    <!-- 51 targets: 100..1e-08 -->
    <g transform="translate(60.632064 49.533135)scale(0.102 -0.102)">
     <defs>
      <path id="DejaVuSans-35" d="M 691 4666 
L 3169 4666 
L 3169 4134 
L 1269 4134 
L 1269 2991 
Q 1406 3038 1543 3061 
Q 1681 3084 1819 3084 
Q 2600 3084 3056 2656 
Q 3513 2228 3513 1497 
Q 3513 744 3044 326 
Q 2575 -91 1722 -91 
Q 1428 -91 1123 -41 
Q 819 9 494 109 
L 494 744 
Q 775 591 1075 516 
Q 1375 441 1709 441 
Q 2250 441 2565 725 
Q 2881 1009 2881 1497 
Q 2881 1984 2565 2268 
Q 2250 2553 1709 2553 
Q 1456 2553 1204 2497 
Q 953 2441 691 2322 
L 691 4666 
z
" transform="scale(0.015625)"/>
      <path id="DejaVuSans-3a" d="M 750 794 
L 1409 794 
L 1409 0 
L 750 0 
L 750 794 
z
M 750 3309 
L 1409 3309 
L 1409 2516 
L 750 2516 
L 750 3309 
z
" transform="scale(0.015625)"/>
     </defs>
     <use xlink:href="#DejaVuSans-35"/>
     <use xlink:href="#DejaVuSans-31" x="63.623047"/>
     <use xlink:href="#DejaVuSans-20" x="127.246094"/>
     <use xlink:href="#DejaVuSans-74" x="159.033203"/>
     <use xlink:href="#DejaVuSans-61" x="198.242188"/>
     <use xlink:href="#DejaVuSans-72" x="259.521484"/>
     <use xlink:href="#DejaVuSans-67" x="298.884766"/>
     <use xlink:href="#DejaVuSans-65" x="362.361328"/>
     <use xlink:href="#DejaVuSans-74" x="423.884766"/>
     <use xlink:href="#DejaVuSans-73" x="463.09375"/>
     <use xlink:href="#DejaVuSans-3a" x="515.193359"/>
     <use xlink:href="#DejaVuSans-20" x="548.884766"/>
     <use xlink:href="#DejaVuSans-31" x="580.671875"/>
     <use xlink:href="#DejaVuSans-30" x="644.294922"/>
     <use xlink:href="#DejaVuSans-30" x="707.917969"/>
     <use xlink:href="#DejaVuSans-2e" x="771.541016"/>
     <use xlink:href="#DejaVuSans-2e" x="803.328125"/>
     <use xlink:href="#DejaVuSans-31" x="835.115234"/>
     <use xlink:href="#DejaVuSans-65" x="898.738281"/>
     <use xlink:href="#DejaVuSans-2d" x="960.261719"/>
     <use xlink:href="#DejaVuSans-30" x="996.345703"/>
     <use xlink:href="#DejaVuSans-38" x="1059.96875"/>
    </g>
    <!-- 25, 15 instances -->
    <g transform="translate(60.632064 60.954904)scale(0.102 -0.102)">
     <use xlink:href="#DejaVuSans-32"/>
     <use xlink:href="#DejaVuSans-35" x="63.623047"/>
     <use xlink:href="#DejaVuSans-2c" x="127.246094"/>
     <use xlink:href="#DejaVuSans-20" x="159.033203"/>
     <use xlink:href="#DejaVuSans-31" x="190.820312"/>
     <use xlink:href="#DejaVuSans-35" x="254.443359"/>
     <use xlink:href="#DejaVuSans-20" x="318.066406"/>
     <use xlink:href="#DejaVuSans-69" x="349.853516"/>
     <use xlink:href="#DejaVuSans-6e" x="377.636719"/>
     <use xlink:href="#DejaVuSans-73" x="441.015625"/>
     <use xlink:href="#DejaVuSans-74" x="493.115234"/>
     <use xlink:href="#DejaVuSans-61" x="532.324219"/>
     <use xlink:href="#DejaVuSans-6e" x="593.603516"/>
     <use xlink:href="#DejaVuSans-63" x="656.982422"/>
     <use xlink:href="#DejaVuSans-65" x="711.962891"/>
     <use xlink:href="#DejaVuSans-73" x="773.486328"/>
    </g>
   </g>
   <g id="text_17">
    <!-- v2.6 -->
    <g style="fill: #808080" transform="translate(198.292262 294.151352)scale(0.1 -0.1)">
     <use xlink:href="#DejaVuSans-76"/>
     <use xlink:href="#DejaVuSans-32" x="59.179688"/>
     <use xlink:href="#DejaVuSans-2e" x="122.802734"/>
     <use xlink:href="#DejaVuSans-36" x="154.589844"/>
    </g>
   </g>
   <g id="text_18">
    <!-- 18 Schaffer F7, condition 1000 -->
    <g transform="translate(55.170387 21.648)scale(0.2 -0.2)">
     <defs>
      <path id="DejaVuSans-68" d="M 3513 2113 
L 3513 0 
L 2938 0 
L 2938 2094 
Q 2938 2591 2744 2837 
Q 2550 3084 2163 3084 
Q 1697 3084 1428 2787 
Q 1159 2491 1159 1978 
L 1159 0 
L 581 0 
L 581 4863 
L 1159 4863 
L 1159 2956 
Q 1366 3272 1645 3428 
Q 1925 3584 2291 3584 
Q 2894 3584 3203 3211 
Q 3513 2838 3513 2113 
z
" transform="scale(0.015625)"/>
      <path id="DejaVuSans-37" d="M 525 4666 
L 3525 4666 
L 3525 4397 
L 1831 0 
L 1172 0 
L 2766 4134 
L 525 4134 
L 525 4666 
z
" transform="scale(0.015625)"/>
     </defs>
     <use xlink:href="#DejaVuSans-31"/>
     <use xlink:href="#DejaVuSans-38" x="63.623047"/>
     <use xlink:href="#DejaVuSans-20" x="127.246094"/>
     <use xlink:href="#DejaVuSans-53" x="159.033203"/>
     <use xlink:href="#DejaVuSans-63" x="222.509766"/>
     <use xlink:href="#DejaVuSans-68" x="277.490234"/>
     <use xlink:href="#DejaVuSans-61" x="340.869141"/>
     <use xlink:href="#DejaVuSans-66" x="402.148438"/>
     <use xlink:href="#DejaVuSans-66" x="437.353516"/>
     <use xlink:href="#DejaVuSans-65" x="472.558594"/>
     <use xlink:href="#DejaVuSans-72" x="534.082031"/>
     <use xlink:href="#DejaVuSans-20" x="575.195312"/>
     <use xlink:href="#DejaVuSans-46" x="606.982422"/>
     <use xlink:href="#DejaVuSans-37" x="664.501953"/>
     <use xlink:href="#DejaVuSans-2c" x="728.125"/>
     <use xlink:href="#DejaVuSans-20" x="759.912109"/>
     <use xlink:href="#DejaVuSans-63" x="791.699219"/>
     <use xlink:href="#DejaVuSans-6f" x="846.679688"/>
     <use xlink:href="#DejaVuSans-6e" x="907.861328"/>
     <use xlink:href="#DejaVuSans-64" x="971.240234"/>
     <use xlink:href="#DejaVuSans-69" x="1034.716797"/>
     <use xlink:href="#DejaVuSans-74" x="1062.5"/>
     <use xlink:href="#DejaVuSans-69" x="1101.708984"/>
     <use xlink:href="#DejaVuSans-6f" x="1129.492188"/>
     <use xlink:href="#DejaVuSans-6e" x="1190.673828"/>
     <use xlink:href="#DejaVuSans-20" x="1254.052734"/>
     <use xlink:href="#DejaVuSans-31" x="1285.839844"/>
     <use xlink:href="#DejaVuSans-30" x="1349.462891"/>
     <use xlink:href="#DejaVuSans-30" x="1413.085938"/>
     <use xlink:href="#DejaVuSans-30" x="1476.708984"/>
    </g>
   </g>
  </g>
 </g>
 <defs>
  <clipPath id="pd189d874ed">
   <rect x="57.6" y="27.648" width="303.2064" height="271.296"/>
  </clipPath>
 </defs>
</svg>
