<?xml version="1.0" encoding="utf-8" standalone="no"?>
<!DOCTYPE svg PUBLIC "-//W3C//DTD SVG 1.1//EN"
  "http://www.w3.org/Graphics/SVG/1.1/DTD/svg11.dtd">
<svg xmlns:xlink="http://www.w3.org/1999/xlink" width="460.8pt" height="345.6pt" viewBox="0 0 460.8 345.6" xmlns="http://www.w3.org/2000/svg" version="1.1">
 <metadata>
  <rdf:RDF xmlns:dc="http://purl.org/dc/elements/1.1/" xmlns:cc="http://creativecommons.org/ns#" xmlns:rdf="http://www.w3.org/1999/02/22-rdf-syntax-ns#">
   <cc:Work>
    <dc:type rdf:resource="http://purl.org/dc/dcmitype/StillImage"/>
    <dc:date>2022-03-16T23:35:05.077287</dc:date>
    <dc:format>image/svg+xml</dc:format>
    <dc:creator>
     <cc:Agent>
      <dc:title>Matplotlib v3.5.1, https://matplotlib.org/</dc:title>
     </cc:Agent>
    </dc:creator>
   </cc:Work>
  </rdf:RDF>
 </metadata>
 <defs>
  <style type="text/css">*{stroke-linejoin: round; stroke-linecap: butt}</style>
 </defs>
 <g id="figure_1">
  <g id="patch_1">
   <path d="M 0 345.6 
L 460.8 345.6 
L 460.8 0 
L 0 0 
z
" style="fill: #ffffff"/>
  </g>
  <g id="axes_1">
   <g id="patch_2">
    <path d="M 57.6 298.944 
L 360.8064 298.944 
L 360.8064 27.648 
L 57.6 27.648 
z
" style="fill: #ffffff"/>
   </g>
   <g id="line2d_1">
    <path d="M 80.059535 298.944 
L 80.059535 293.624471 
L 90.007914 293.624471 
L 90.007914 288.304941 
L 94.735529 288.304941 
L 94.735529 282.985412 
L 95.503454 282.985412 
L 95.503454 277.665882 
L 97.18203 277.665882 
L 97.18203 272.346353 
L 111.117162 272.346353 
L 111.117162 267.026824 
L 125.628382 267.026824 
L 125.628382 261.707294 
L 136.92008 261.707294 
L 136.92008 256.387765 
L 139.652679 256.387765 
L 139.652679 251.068235 
L 143.18612 251.068235 
L 143.18612 245.748706 
L 153.200785 245.748706 
L 153.200785 240.429176 
L 163.314829 240.429176 
L 163.314829 235.109647 
L 165.927947 235.109647 
L 165.927947 229.790118 
L 166.379563 229.790118 
L 166.379563 224.470588 
L 170.805345 224.470588 
L 170.805345 219.151059 
L 171.20416 219.151059 
L 171.20416 213.831529 
L 172.076012 213.831529 
L 172.076012 208.512 
L 172.85592 208.512 
L 172.85592 203.192471 
L 173.217966 203.192471 
L 173.217966 197.872941 
L 173.730661 197.872941 
L 173.730661 192.553412 
L 174.875255 192.553412 
L 174.875255 187.233882 
L 174.967261 187.233882 
L 174.967261 181.914353 
L 175.029569 181.914353 
L 175.029569 70.204235 
L 175.701674 70.204235 
L 175.701674 64.884706 
L 175.75456 64.884706 
L 175.75456 59.565176 
L 175.915823 59.565176 
L 175.915823 54.245647 
L 176.94485 54.245647 
L 176.94485 48.926118 
L 177.197622 48.926118 
L 177.197622 43.606588 
L 177.337316 43.606588 
L 177.337316 38.287059 
L 177.427726 38.287059 
L 177.427726 32.967529 
L 177.597677 32.967529 
L 177.597677 27.648 
L 360.8064 27.648 
" style="fill: none; stroke: #f5deb3; stroke-width: 4; stroke-linecap: square"/>
   </g>
   <g id="line2d_2">
    <defs>
     <path id="m99ad9d93ac" d="M -0 7.778175 
L 7.778175 0 
L 0 -7.778175 
L -7.778175 -0 
z
" style="stroke: #f5deb3; stroke-width: 1.5; stroke-linejoin: miter"/>
    </defs>
    <g>
     <use xlink:href="#m99ad9d93ac" x="153.200785" y="245.748706" style="fill: #f5deb3; stroke: #f5deb3; stroke-width: 1.5; stroke-linejoin: miter"/>
     <use xlink:href="#m99ad9d93ac" x="175.029569" y="181.914353" style="fill: #f5deb3; stroke: #f5deb3; stroke-width: 1.5; stroke-linejoin: miter"/>
     <use xlink:href="#m99ad9d93ac" x="177.597677" y="32.967529" style="fill: #f5deb3; stroke: #f5deb3; stroke-width: 1.5; stroke-linejoin: miter"/>
     <use xlink:href="#m99ad9d93ac" x="177.597677" y="27.648" style="fill: #f5deb3; stroke: #f5deb3; stroke-width: 1.5; stroke-linejoin: miter"/>
     <use xlink:href="#m99ad9d93ac" x="360.8064" y="27.648" style="fill: #f5deb3; stroke: #f5deb3; stroke-width: 1.5; stroke-linejoin: miter"/>
    </g>
   </g>
   <g id="line2d_3">
    <path style="fill: none; stroke: #f5deb3; stroke-width: 4; stroke-linecap: square"/>
    <g/>
   </g>
   <g id="line2d_4">
    <path d="M 360.8064 27.648 
L 380.514816 33.07392 
" style="fill: none; stroke: #f5deb3; stroke-width: 4; stroke-linecap: square"/>
    <g>
     <use xlink:href="#m99ad9d93ac" x="360.8064" y="27.648" style="fill: #f5deb3; stroke: #f5deb3; stroke-width: 1.5; stroke-linejoin: miter"/>
     <use xlink:href="#m99ad9d93ac" x="380.514816" y="33.07392" style="fill: #f5deb3; stroke: #f5deb3; stroke-width: 1.5; stroke-linejoin: miter"/>
    </g>
   </g>
   <g id="matplotlib.axis_1">
    <g id="xtick_1">
     <g id="line2d_5">
      <path d="M 57.6 298.944 
L 57.6 27.648 
" clip-path="url(#p46126a0a57)" style="fill: none; stroke: #b0b0b0; stroke-width: 0.8; stroke-linecap: square"/>
     </g>
     <g id="line2d_6">
      <defs>
       <path id="ma8b37b3d16" d="M 0 0 
L 0 3.5 
" style="stroke: #000000; stroke-width: 0.8"/>
      </defs>
      <g>
       <use xlink:href="#ma8b37b3d16" x="57.6" y="298.944" style="stroke: #000000; stroke-width: 0.8"/>
      </g>
     </g>
     <g id="text_1">
      <!-- 0 -->
      <g transform="translate(52.191875 318.861344)scale(0.17 -0.17)">
       <defs>
        <path id="DejaVuSans-30" d="M 2034 4250 
Q 1547 4250 1301 3770 
Q 1056 3291 1056 2328 
Q 1056 1369 1301 889 
Q 1547 409 2034 409 
Q 2525 409 2770 889 
Q 3016 1369 3016 2328 
Q 3016 3291 2770 3770 
Q 2525 4250 2034 4250 
z
M 2034 4750 
Q 2819 4750 3233 4129 
Q 3647 3509 3647 2328 
Q 3647 1150 3233 529 
Q 2819 -91 2034 -91 
Q 1250 -91 836 529 
Q 422 1150 422 2328 
Q 422 3509 836 4129 
Q 1250 4750 2034 4750 
z
" transform="scale(0.015625)"/>
       </defs>
       <use xlink:href="#DejaVuSans-30"/>
      </g>
     </g>
    </g>
    <g id="xtick_2">
     <g id="line2d_7">
      <path d="M 144.2304 298.944 
L 144.2304 27.648 
" clip-path="url(#p46126a0a57)" style="fill: none; stroke: #b0b0b0; stroke-width: 0.8; stroke-linecap: square"/>
     </g>
     <g id="line2d_8">
      <g>
       <use xlink:href="#ma8b37b3d16" x="144.2304" y="298.944" style="stroke: #000000; stroke-width: 0.8"/>
      </g>
     </g>
     <g id="text_2">
      <!-- 2 -->
      <g transform="translate(138.822275 318.861344)scale(0.17 -0.17)">
       <defs>
        <path id="DejaVuSans-32" d="M 1228 531 
L 3431 531 
L 3431 0 
L 469 0 
L 469 531 
Q 828 903 1448 1529 
Q 2069 2156 2228 2338 
Q 2531 2678 2651 2914 
Q 2772 3150 2772 3378 
Q 2772 3750 2511 3984 
Q 2250 4219 1831 4219 
Q 1534 4219 1204 4116 
Q 875 4013 500 3803 
L 500 4441 
Q 881 4594 1212 4672 
Q 1544 4750 1819 4750 
Q 2544 4750 2975 4387 
Q 3406 4025 3406 3419 
Q 3406 3131 3298 2873 
Q 3191 2616 2906 2266 
Q 2828 2175 2409 1742 
Q 1991 1309 1228 531 
z
" transform="scale(0.015625)"/>
       </defs>
       <use xlink:href="#DejaVuSans-32"/>
      </g>
     </g>
    </g>
    <g id="xtick_3">
     <g id="line2d_9">
      <path d="M 230.8608 298.944 
L 230.8608 27.648 
" clip-path="url(#p46126a0a57)" style="fill: none; stroke: #b0b0b0; stroke-width: 0.8; stroke-linecap: square"/>
     </g>
     <g id="line2d_10">
      <g>
       <use xlink:href="#ma8b37b3d16" x="230.8608" y="298.944" style="stroke: #000000; stroke-width: 0.8"/>
      </g>
     </g>
     <g id="text_3">
      <!-- 4 -->
      <g transform="translate(225.452675 318.861344)scale(0.17 -0.17)">
       <defs>
        <path id="DejaVuSans-34" d="M 2419 4116 
L 825 1625 
L 2419 1625 
L 2419 4116 
z
M 2253 4666 
L 3047 4666 
L 3047 1625 
L 3713 1625 
L 3713 1100 
L 3047 1100 
L 3047 0 
L 2419 0 
L 2419 1100 
L 313 1100 
L 313 1709 
L 2253 4666 
z
" transform="scale(0.015625)"/>
       </defs>
       <use xlink:href="#DejaVuSans-34"/>
      </g>
     </g>
    </g>
    <g id="xtick_4">
     <g id="line2d_11">
      <path d="M 317.4912 298.944 
L 317.4912 27.648 
" clip-path="url(#p46126a0a57)" style="fill: none; stroke: #b0b0b0; stroke-width: 0.8; stroke-linecap: square"/>
     </g>
     <g id="line2d_12">
      <g>
       <use xlink:href="#ma8b37b3d16" x="317.4912" y="298.944" style="stroke: #000000; stroke-width: 0.8"/>
      </g>
     </g>
     <g id="text_4">
      <!-- 6 -->
      <g transform="translate(312.083075 318.861344)scale(0.17 -0.17)">
       <defs>
        <path id="DejaVuSans-36" d="M 2113 2584 
Q 1688 2584 1439 2293 
Q 1191 2003 1191 1497 
Q 1191 994 1439 701 
Q 1688 409 2113 409 
Q 2538 409 2786 701 
Q 3034 994 3034 1497 
Q 3034 2003 2786 2293 
Q 2538 2584 2113 2584 
z
M 3366 4563 
L 3366 3988 
Q 3128 4100 2886 4159 
Q 2644 4219 2406 4219 
Q 1781 4219 1451 3797 
Q 1122 3375 1075 2522 
Q 1259 2794 1537 2939 
Q 1816 3084 2150 3084 
Q 2853 3084 3261 2657 
Q 3669 2231 3669 1497 
Q 3669 778 3244 343 
Q 2819 -91 2113 -91 
Q 1303 -91 875 529 
Q 447 1150 447 2328 
Q 447 3434 972 4092 
Q 1497 4750 2381 4750 
Q 2619 4750 2861 4703 
Q 3103 4656 3366 4563 
z
" transform="scale(0.015625)"/>
       </defs>
       <use xlink:href="#DejaVuSans-36"/>
      </g>
     </g>
    </g>
    <g id="xtick_5">
     <g id="line2d_13">
      <path d="M 100.9152 298.944 
L 100.9152 27.648 
" clip-path="url(#p46126a0a57)" style="fill: none; stroke: #b0b0b0; stroke-width: 0.8; stroke-linecap: square"/>
     </g>
     <g id="line2d_14">
      <defs>
       <path id="m9d36857a32" d="M 0 0 
L 0 2 
" style="stroke: #000000; stroke-width: 0.6"/>
      </defs>
      <g>
       <use xlink:href="#m9d36857a32" x="100.9152" y="298.944" style="stroke: #000000; stroke-width: 0.6"/>
      </g>
     </g>
    </g>
    <g id="xtick_6">
     <g id="line2d_15">
      <path d="M 187.5456 298.944 
L 187.5456 27.648 
" clip-path="url(#p46126a0a57)" style="fill: none; stroke: #b0b0b0; stroke-width: 0.8; stroke-linecap: square"/>
     </g>
     <g id="line2d_16">
      <g>
       <use xlink:href="#m9d36857a32" x="187.5456" y="298.944" style="stroke: #000000; stroke-width: 0.6"/>
      </g>
     </g>
    </g>
    <g id="xtick_7">
     <g id="line2d_17">
      <path d="M 274.176 298.944 
L 274.176 27.648 
" clip-path="url(#p46126a0a57)" style="fill: none; stroke: #b0b0b0; stroke-width: 0.8; stroke-linecap: square"/>
     </g>
     <g id="line2d_18">
      <g>
       <use xlink:href="#m9d36857a32" x="274.176" y="298.944" style="stroke: #000000; stroke-width: 0.6"/>
      </g>
     </g>
    </g>
    <g id="xtick_8">
     <g id="line2d_19">
      <path d="M 360.8064 298.944 
L 360.8064 27.648 
" clip-path="url(#p46126a0a57)" style="fill: none; stroke: #b0b0b0; stroke-width: 0.8; stroke-linecap: square"/>
     </g>
     <g id="line2d_20">
      <g>
       <use xlink:href="#m9d36857a32" x="360.8064" y="298.944" style="stroke: #000000; stroke-width: 0.6"/>
      </g>
     </g>
    </g>
    <g id="text_5">
     <!-- log10(# f-evals / dimension) -->
     <g transform="translate(88.823278 339.314156)scale(0.17 -0.17)">
      <defs>
       <path id="DejaVuSans-6c" d="M 603 4863 
L 1178 4863 
L 1178 0 
L 603 0 
L 603 4863 
z
" transform="scale(0.015625)"/>
       <path id="DejaVuSans-6f" d="M 1959 3097 
Q 1497 3097 1228 2736 
Q 959 2375 959 1747 
Q 959 1119 1226 758 
Q 1494 397 1959 397 
Q 2419 397 2687 759 
Q 2956 1122 2956 1747 
Q 2956 2369 2687 2733 
Q 2419 3097 1959 3097 
z
M 1959 3584 
Q 2709 3584 3137 3096 
Q 3566 2609 3566 1747 
Q 3566 888 3137 398 
Q 2709 -91 1959 -91 
Q 1206 -91 779 398 
Q 353 888 353 1747 
Q 353 2609 779 3096 
Q 1206 3584 1959 3584 
z
" transform="scale(0.015625)"/>
       <path id="DejaVuSans-67" d="M 2906 1791 
Q 2906 2416 2648 2759 
Q 2391 3103 1925 3103 
Q 1463 3103 1205 2759 
Q 947 2416 947 1791 
Q 947 1169 1205 825 
Q 1463 481 1925 481 
Q 2391 481 2648 825 
Q 2906 1169 2906 1791 
z
M 3481 434 
Q 3481 -459 3084 -895 
Q 2688 -1331 1869 -1331 
Q 1566 -1331 1297 -1286 
Q 1028 -1241 775 -1147 
L 775 -588 
Q 1028 -725 1275 -790 
Q 1522 -856 1778 -856 
Q 2344 -856 2625 -561 
Q 2906 -266 2906 331 
L 2906 616 
Q 2728 306 2450 153 
Q 2172 0 1784 0 
Q 1141 0 747 490 
Q 353 981 353 1791 
Q 353 2603 747 3093 
Q 1141 3584 1784 3584 
Q 2172 3584 2450 3431 
Q 2728 3278 2906 2969 
L 2906 3500 
L 3481 3500 
L 3481 434 
z
" transform="scale(0.015625)"/>
       <path id="DejaVuSans-31" d="M 794 531 
L 1825 531 
L 1825 4091 
L 703 3866 
L 703 4441 
L 1819 4666 
L 2450 4666 
L 2450 531 
L 3481 531 
L 3481 0 
L 794 0 
L 794 531 
z
" transform="scale(0.015625)"/>
       <path id="DejaVuSans-28" d="M 1984 4856 
Q 1566 4138 1362 3434 
Q 1159 2731 1159 2009 
Q 1159 1288 1364 580 
Q 1569 -128 1984 -844 
L 1484 -844 
Q 1016 -109 783 600 
Q 550 1309 550 2009 
Q 550 2706 781 3412 
Q 1013 4119 1484 4856 
L 1984 4856 
z
" transform="scale(0.015625)"/>
       <path id="DejaVuSans-23" d="M 3272 2816 
L 2363 2816 
L 2100 1772 
L 3016 1772 
L 3272 2816 
z
M 2803 4594 
L 2478 3297 
L 3391 3297 
L 3719 4594 
L 4219 4594 
L 3897 3297 
L 4872 3297 
L 4872 2816 
L 3775 2816 
L 3519 1772 
L 4513 1772 
L 4513 1294 
L 3397 1294 
L 3072 0 
L 2572 0 
L 2894 1294 
L 1978 1294 
L 1656 0 
L 1153 0 
L 1478 1294 
L 494 1294 
L 494 1772 
L 1594 1772 
L 1856 2816 
L 850 2816 
L 850 3297 
L 1978 3297 
L 2297 4594 
L 2803 4594 
z
" transform="scale(0.015625)"/>
       <path id="DejaVuSans-20" transform="scale(0.015625)"/>
       <path id="DejaVuSans-66" d="M 2375 4863 
L 2375 4384 
L 1825 4384 
Q 1516 4384 1395 4259 
Q 1275 4134 1275 3809 
L 1275 3500 
L 2222 3500 
L 2222 3053 
L 1275 3053 
L 1275 0 
L 697 0 
L 697 3053 
L 147 3053 
L 147 3500 
L 697 3500 
L 697 3744 
Q 697 4328 969 4595 
Q 1241 4863 1831 4863 
L 2375 4863 
z
" transform="scale(0.015625)"/>
       <path id="DejaVuSans-2d" d="M 313 2009 
L 1997 2009 
L 1997 1497 
L 313 1497 
L 313 2009 
z
" transform="scale(0.015625)"/>
       <path id="DejaVuSans-65" d="M 3597 1894 
L 3597 1613 
L 953 1613 
Q 991 1019 1311 708 
Q 1631 397 2203 397 
Q 2534 397 2845 478 
Q 3156 559 3463 722 
L 3463 178 
Q 3153 47 2828 -22 
Q 2503 -91 2169 -91 
Q 1331 -91 842 396 
Q 353 884 353 1716 
Q 353 2575 817 3079 
Q 1281 3584 2069 3584 
Q 2775 3584 3186 3129 
Q 3597 2675 3597 1894 
z
M 3022 2063 
Q 3016 2534 2758 2815 
Q 2500 3097 2075 3097 
Q 1594 3097 1305 2825 
Q 1016 2553 972 2059 
L 3022 2063 
z
" transform="scale(0.015625)"/>
       <path id="DejaVuSans-76" d="M 191 3500 
L 800 3500 
L 1894 563 
L 2988 3500 
L 3597 3500 
L 2284 0 
L 1503 0 
L 191 3500 
z
" transform="scale(0.015625)"/>
       <path id="DejaVuSans-61" d="M 2194 1759 
Q 1497 1759 1228 1600 
Q 959 1441 959 1056 
Q 959 750 1161 570 
Q 1363 391 1709 391 
Q 2188 391 2477 730 
Q 2766 1069 2766 1631 
L 2766 1759 
L 2194 1759 
z
M 3341 1997 
L 3341 0 
L 2766 0 
L 2766 531 
Q 2569 213 2275 61 
Q 1981 -91 1556 -91 
Q 1019 -91 701 211 
Q 384 513 384 1019 
Q 384 1609 779 1909 
Q 1175 2209 1959 2209 
L 2766 2209 
L 2766 2266 
Q 2766 2663 2505 2880 
Q 2244 3097 1772 3097 
Q 1472 3097 1187 3025 
Q 903 2953 641 2809 
L 641 3341 
Q 956 3463 1253 3523 
Q 1550 3584 1831 3584 
Q 2591 3584 2966 3190 
Q 3341 2797 3341 1997 
z
" transform="scale(0.015625)"/>
       <path id="DejaVuSans-73" d="M 2834 3397 
L 2834 2853 
Q 2591 2978 2328 3040 
Q 2066 3103 1784 3103 
Q 1356 3103 1142 2972 
Q 928 2841 928 2578 
Q 928 2378 1081 2264 
Q 1234 2150 1697 2047 
L 1894 2003 
Q 2506 1872 2764 1633 
Q 3022 1394 3022 966 
Q 3022 478 2636 193 
Q 2250 -91 1575 -91 
Q 1294 -91 989 -36 
Q 684 19 347 128 
L 347 722 
Q 666 556 975 473 
Q 1284 391 1588 391 
Q 1994 391 2212 530 
Q 2431 669 2431 922 
Q 2431 1156 2273 1281 
Q 2116 1406 1581 1522 
L 1381 1569 
Q 847 1681 609 1914 
Q 372 2147 372 2553 
Q 372 3047 722 3315 
Q 1072 3584 1716 3584 
Q 2034 3584 2315 3537 
Q 2597 3491 2834 3397 
z
" transform="scale(0.015625)"/>
       <path id="DejaVuSans-2f" d="M 1625 4666 
L 2156 4666 
L 531 -594 
L 0 -594 
L 1625 4666 
z
" transform="scale(0.015625)"/>
       <path id="DejaVuSans-64" d="M 2906 2969 
L 2906 4863 
L 3481 4863 
L 3481 0 
L 2906 0 
L 2906 525 
Q 2725 213 2448 61 
Q 2172 -91 1784 -91 
Q 1150 -91 751 415 
Q 353 922 353 1747 
Q 353 2572 751 3078 
Q 1150 3584 1784 3584 
Q 2172 3584 2448 3432 
Q 2725 3281 2906 2969 
z
M 947 1747 
Q 947 1113 1208 752 
Q 1469 391 1925 391 
Q 2381 391 2643 752 
Q 2906 1113 2906 1747 
Q 2906 2381 2643 2742 
Q 2381 3103 1925 3103 
Q 1469 3103 1208 2742 
Q 947 2381 947 1747 
z
" transform="scale(0.015625)"/>
       <path id="DejaVuSans-69" d="M 603 3500 
L 1178 3500 
L 1178 0 
L 603 0 
L 603 3500 
z
M 603 4863 
L 1178 4863 
L 1178 4134 
L 603 4134 
L 603 4863 
z
" transform="scale(0.015625)"/>
       <path id="DejaVuSans-6d" d="M 3328 2828 
Q 3544 3216 3844 3400 
Q 4144 3584 4550 3584 
Q 5097 3584 5394 3201 
Q 5691 2819 5691 2113 
L 5691 0 
L 5113 0 
L 5113 2094 
Q 5113 2597 4934 2840 
Q 4756 3084 4391 3084 
Q 3944 3084 3684 2787 
Q 3425 2491 3425 1978 
L 3425 0 
L 2847 0 
L 2847 2094 
Q 2847 2600 2669 2842 
Q 2491 3084 2119 3084 
Q 1678 3084 1418 2786 
Q 1159 2488 1159 1978 
L 1159 0 
L 581 0 
L 581 3500 
L 1159 3500 
L 1159 2956 
Q 1356 3278 1631 3431 
Q 1906 3584 2284 3584 
Q 2666 3584 2933 3390 
Q 3200 3197 3328 2828 
z
" transform="scale(0.015625)"/>
       <path id="DejaVuSans-6e" d="M 3513 2113 
L 3513 0 
L 2938 0 
L 2938 2094 
Q 2938 2591 2744 2837 
Q 2550 3084 2163 3084 
Q 1697 3084 1428 2787 
Q 1159 2491 1159 1978 
L 1159 0 
L 581 0 
L 581 3500 
L 1159 3500 
L 1159 2956 
Q 1366 3272 1645 3428 
Q 1925 3584 2291 3584 
Q 2894 3584 3203 3211 
Q 3513 2838 3513 2113 
z
" transform="scale(0.015625)"/>
       <path id="DejaVuSans-29" d="M 513 4856 
L 1013 4856 
Q 1481 4119 1714 3412 
Q 1947 2706 1947 2009 
Q 1947 1309 1714 600 
Q 1481 -109 1013 -844 
L 513 -844 
Q 928 -128 1133 580 
Q 1338 1288 1338 2009 
Q 1338 2731 1133 3434 
Q 928 4138 513 4856 
z
" transform="scale(0.015625)"/>
      </defs>
      <use xlink:href="#DejaVuSans-6c"/>
      <use xlink:href="#DejaVuSans-6f" x="27.783203"/>
      <use xlink:href="#DejaVuSans-67" x="88.964844"/>
      <use xlink:href="#DejaVuSans-31" x="152.441406"/>
      <use xlink:href="#DejaVuSans-30" x="216.064453"/>
      <use xlink:href="#DejaVuSans-28" x="279.6875"/>
      <use xlink:href="#DejaVuSans-23" x="318.701172"/>
      <use xlink:href="#DejaVuSans-20" x="402.490234"/>
      <use xlink:href="#DejaVuSans-66" x="434.277344"/>
      <use xlink:href="#DejaVuSans-2d" x="463.982422"/>
      <use xlink:href="#DejaVuSans-65" x="500.066406"/>
      <use xlink:href="#DejaVuSans-76" x="561.589844"/>
      <use xlink:href="#DejaVuSans-61" x="620.769531"/>
      <use xlink:href="#DejaVuSans-6c" x="682.048828"/>
      <use xlink:href="#DejaVuSans-73" x="709.832031"/>
      <use xlink:href="#DejaVuSans-20" x="761.931641"/>
      <use xlink:href="#DejaVuSans-2f" x="793.71875"/>
      <use xlink:href="#DejaVuSans-20" x="827.410156"/>
      <use xlink:href="#DejaVuSans-64" x="859.197266"/>
      <use xlink:href="#DejaVuSans-69" x="922.673828"/>
      <use xlink:href="#DejaVuSans-6d" x="950.457031"/>
      <use xlink:href="#DejaVuSans-65" x="1047.869141"/>
      <use xlink:href="#DejaVuSans-6e" x="1109.392578"/>
      <use xlink:href="#DejaVuSans-73" x="1172.771484"/>
      <use xlink:href="#DejaVuSans-69" x="1224.871094"/>
      <use xlink:href="#DejaVuSans-6f" x="1252.654297"/>
      <use xlink:href="#DejaVuSans-6e" x="1313.835938"/>
      <use xlink:href="#DejaVuSans-29" x="1377.214844"/>
     </g>
    </g>
   </g>
   <g id="matplotlib.axis_2">
    <g id="ytick_1">
     <g id="line2d_21">
      <path d="M 57.6 298.944 
L 360.8064 298.944 
" clip-path="url(#p46126a0a57)" style="fill: none; stroke: #b0b0b0; stroke-width: 0.8; stroke-linecap: square"/>
     </g>
     <g id="line2d_22">
      <defs>
       <path id="m30743ba1b9" d="M 0 0 
L -3.5 0 
" style="stroke: #000000; stroke-width: 0.8"/>
      </defs>
      <g>
       <use xlink:href="#m30743ba1b9" x="57.6" y="298.944" style="stroke: #000000; stroke-width: 0.8"/>
      </g>
     </g>
     <g id="text_6">
      <!-- 0.0 -->
      <g transform="translate(25.155 305.02275)scale(0.16 -0.16)">
       <defs>
        <path id="DejaVuSans-2e" d="M 684 794 
L 1344 794 
L 1344 0 
L 684 0 
L 684 794 
z
" transform="scale(0.015625)"/>
       </defs>
       <use xlink:href="#DejaVuSans-30"/>
       <use xlink:href="#DejaVuSans-2e" x="63.623047"/>
       <use xlink:href="#DejaVuSans-30" x="95.410156"/>
      </g>
     </g>
    </g>
    <g id="ytick_2">
     <g id="line2d_23">
      <path d="M 57.6 244.6848 
L 360.8064 244.6848 
" clip-path="url(#p46126a0a57)" style="fill: none; stroke: #b0b0b0; stroke-width: 0.8; stroke-linecap: square"/>
     </g>
     <g id="line2d_24">
      <g>
       <use xlink:href="#m30743ba1b9" x="57.6" y="244.6848" style="stroke: #000000; stroke-width: 0.8"/>
      </g>
     </g>
     <g id="text_7">
      <!-- 0.2 -->
      <g transform="translate(25.155 250.76355)scale(0.16 -0.16)">
       <use xlink:href="#DejaVuSans-30"/>
       <use xlink:href="#DejaVuSans-2e" x="63.623047"/>
       <use xlink:href="#DejaVuSans-32" x="95.410156"/>
      </g>
     </g>
    </g>
    <g id="ytick_3">
     <g id="line2d_25">
      <path d="M 57.6 190.4256 
L 360.8064 190.4256 
" clip-path="url(#p46126a0a57)" style="fill: none; stroke: #b0b0b0; stroke-width: 0.8; stroke-linecap: square"/>
     </g>
     <g id="line2d_26">
      <g>
       <use xlink:href="#m30743ba1b9" x="57.6" y="190.4256" style="stroke: #000000; stroke-width: 0.8"/>
      </g>
     </g>
     <g id="text_8">
      <!-- 0.4 -->
      <g transform="translate(25.155 196.50435)scale(0.16 -0.16)">
       <use xlink:href="#DejaVuSans-30"/>
       <use xlink:href="#DejaVuSans-2e" x="63.623047"/>
       <use xlink:href="#DejaVuSans-34" x="95.410156"/>
      </g>
     </g>
    </g>
    <g id="ytick_4">
     <g id="line2d_27">
      <path d="M 57.6 136.1664 
L 360.8064 136.1664 
" clip-path="url(#p46126a0a57)" style="fill: none; stroke: #b0b0b0; stroke-width: 0.8; stroke-linecap: square"/>
     </g>
     <g id="line2d_28">
      <g>
       <use xlink:href="#m30743ba1b9" x="57.6" y="136.1664" style="stroke: #000000; stroke-width: 0.8"/>
      </g>
     </g>
     <g id="text_9">
      <!-- 0.6 -->
      <g transform="translate(25.155 142.24515)scale(0.16 -0.16)">
       <use xlink:href="#DejaVuSans-30"/>
       <use xlink:href="#DejaVuSans-2e" x="63.623047"/>
       <use xlink:href="#DejaVuSans-36" x="95.410156"/>
      </g>
     </g>
    </g>
    <g id="ytick_5">
     <g id="line2d_29">
      <path d="M 57.6 81.9072 
L 360.8064 81.9072 
" clip-path="url(#p46126a0a57)" style="fill: none; stroke: #b0b0b0; stroke-width: 0.8; stroke-linecap: square"/>
     </g>
     <g id="line2d_30">
      <g>
       <use xlink:href="#m30743ba1b9" x="57.6" y="81.9072" style="stroke: #000000; stroke-width: 0.8"/>
      </g>
     </g>
     <g id="text_10">
      <!-- 0.8 -->
      <g transform="translate(25.155 87.98595)scale(0.16 -0.16)">
       <defs>
        <path id="DejaVuSans-38" d="M 2034 2216 
Q 1584 2216 1326 1975 
Q 1069 1734 1069 1313 
Q 1069 891 1326 650 
Q 1584 409 2034 409 
Q 2484 409 2743 651 
Q 3003 894 3003 1313 
Q 3003 1734 2745 1975 
Q 2488 2216 2034 2216 
z
M 1403 2484 
Q 997 2584 770 2862 
Q 544 3141 544 3541 
Q 544 4100 942 4425 
Q 1341 4750 2034 4750 
Q 2731 4750 3128 4425 
Q 3525 4100 3525 3541 
Q 3525 3141 3298 2862 
Q 3072 2584 2669 2484 
Q 3125 2378 3379 2068 
Q 3634 1759 3634 1313 
Q 3634 634 3220 271 
Q 2806 -91 2034 -91 
Q 1263 -91 848 271 
Q 434 634 434 1313 
Q 434 1759 690 2068 
Q 947 2378 1403 2484 
z
M 1172 3481 
Q 1172 3119 1398 2916 
Q 1625 2713 2034 2713 
Q 2441 2713 2670 2916 
Q 2900 3119 2900 3481 
Q 2900 3844 2670 4047 
Q 2441 4250 2034 4250 
Q 1625 4250 1398 4047 
Q 1172 3844 1172 3481 
z
" transform="scale(0.015625)"/>
       </defs>
       <use xlink:href="#DejaVuSans-30"/>
       <use xlink:href="#DejaVuSans-2e" x="63.623047"/>
       <use xlink:href="#DejaVuSans-38" x="95.410156"/>
      </g>
     </g>
    </g>
    <g id="ytick_6">
     <g id="line2d_31">
      <path d="M 57.6 27.648 
L 360.8064 27.648 
" clip-path="url(#p46126a0a57)" style="fill: none; stroke: #b0b0b0; stroke-width: 0.8; stroke-linecap: square"/>
     </g>
     <g id="line2d_32">
      <g>
       <use xlink:href="#m30743ba1b9" x="57.6" y="27.648" style="stroke: #000000; stroke-width: 0.8"/>
      </g>
     </g>
     <g id="text_11">
      <!-- 1.0 -->
      <g transform="translate(25.155 33.72675)scale(0.16 -0.16)">
       <use xlink:href="#DejaVuSans-31"/>
       <use xlink:href="#DejaVuSans-2e" x="63.623047"/>
       <use xlink:href="#DejaVuSans-30" x="95.410156"/>
      </g>
     </g>
    </g>
    <g id="text_12">
     <!-- Fraction of function,target pairs -->
     <g transform="translate(17.619531 297.681)rotate(-90)scale(0.17 -0.17)">
      <defs>
       <path id="DejaVuSans-46" d="M 628 4666 
L 3309 4666 
L 3309 4134 
L 1259 4134 
L 1259 2759 
L 3109 2759 
L 3109 2228 
L 1259 2228 
L 1259 0 
L 628 0 
L 628 4666 
z
" transform="scale(0.015625)"/>
       <path id="DejaVuSans-72" d="M 2631 2963 
Q 2534 3019 2420 3045 
Q 2306 3072 2169 3072 
Q 1681 3072 1420 2755 
Q 1159 2438 1159 1844 
L 1159 0 
L 581 0 
L 581 3500 
L 1159 3500 
L 1159 2956 
Q 1341 3275 1631 3429 
Q 1922 3584 2338 3584 
Q 2397 3584 2469 3576 
Q 2541 3569 2628 3553 
L 2631 2963 
z
" transform="scale(0.015625)"/>
       <path id="DejaVuSans-63" d="M 3122 3366 
L 3122 2828 
Q 2878 2963 2633 3030 
Q 2388 3097 2138 3097 
Q 1578 3097 1268 2742 
Q 959 2388 959 1747 
Q 959 1106 1268 751 
Q 1578 397 2138 397 
Q 2388 397 2633 464 
Q 2878 531 3122 666 
L 3122 134 
Q 2881 22 2623 -34 
Q 2366 -91 2075 -91 
Q 1284 -91 818 406 
Q 353 903 353 1747 
Q 353 2603 823 3093 
Q 1294 3584 2113 3584 
Q 2378 3584 2631 3529 
Q 2884 3475 3122 3366 
z
" transform="scale(0.015625)"/>
       <path id="DejaVuSans-74" d="M 1172 4494 
L 1172 3500 
L 2356 3500 
L 2356 3053 
L 1172 3053 
L 1172 1153 
Q 1172 725 1289 603 
Q 1406 481 1766 481 
L 2356 481 
L 2356 0 
L 1766 0 
Q 1100 0 847 248 
Q 594 497 594 1153 
L 594 3053 
L 172 3053 
L 172 3500 
L 594 3500 
L 594 4494 
L 1172 4494 
z
" transform="scale(0.015625)"/>
       <path id="DejaVuSans-75" d="M 544 1381 
L 544 3500 
L 1119 3500 
L 1119 1403 
Q 1119 906 1312 657 
Q 1506 409 1894 409 
Q 2359 409 2629 706 
Q 2900 1003 2900 1516 
L 2900 3500 
L 3475 3500 
L 3475 0 
L 2900 0 
L 2900 538 
Q 2691 219 2414 64 
Q 2138 -91 1772 -91 
Q 1169 -91 856 284 
Q 544 659 544 1381 
z
M 1991 3584 
L 1991 3584 
z
" transform="scale(0.015625)"/>
       <path id="DejaVuSans-2c" d="M 750 794 
L 1409 794 
L 1409 256 
L 897 -744 
L 494 -744 
L 750 256 
L 750 794 
z
" transform="scale(0.015625)"/>
       <path id="DejaVuSans-70" d="M 1159 525 
L 1159 -1331 
L 581 -1331 
L 581 3500 
L 1159 3500 
L 1159 2969 
Q 1341 3281 1617 3432 
Q 1894 3584 2278 3584 
Q 2916 3584 3314 3078 
Q 3713 2572 3713 1747 
Q 3713 922 3314 415 
Q 2916 -91 2278 -91 
Q 1894 -91 1617 61 
Q 1341 213 1159 525 
z
M 3116 1747 
Q 3116 2381 2855 2742 
Q 2594 3103 2138 3103 
Q 1681 3103 1420 2742 
Q 1159 2381 1159 1747 
Q 1159 1113 1420 752 
Q 1681 391 2138 391 
Q 2594 391 2855 752 
Q 3116 1113 3116 1747 
z
" transform="scale(0.015625)"/>
      </defs>
      <use xlink:href="#DejaVuSans-46"/>
      <use xlink:href="#DejaVuSans-72" x="50.269531"/>
      <use xlink:href="#DejaVuSans-61" x="91.382812"/>
      <use xlink:href="#DejaVuSans-63" x="152.662109"/>
      <use xlink:href="#DejaVuSans-74" x="207.642578"/>
      <use xlink:href="#DejaVuSans-69" x="246.851562"/>
      <use xlink:href="#DejaVuSans-6f" x="274.634766"/>
      <use xlink:href="#DejaVuSans-6e" x="335.816406"/>
      <use xlink:href="#DejaVuSans-20" x="399.195312"/>
      <use xlink:href="#DejaVuSans-6f" x="430.982422"/>
      <use xlink:href="#DejaVuSans-66" x="492.164062"/>
      <use xlink:href="#DejaVuSans-20" x="527.369141"/>
      <use xlink:href="#DejaVuSans-66" x="559.15625"/>
      <use xlink:href="#DejaVuSans-75" x="594.361328"/>
      <use xlink:href="#DejaVuSans-6e" x="657.740234"/>
      <use xlink:href="#DejaVuSans-63" x="721.119141"/>
      <use xlink:href="#DejaVuSans-74" x="776.099609"/>
      <use xlink:href="#DejaVuSans-69" x="815.308594"/>
      <use xlink:href="#DejaVuSans-6f" x="843.091797"/>
      <use xlink:href="#DejaVuSans-6e" x="904.273438"/>
      <use xlink:href="#DejaVuSans-2c" x="967.652344"/>
      <use xlink:href="#DejaVuSans-74" x="999.439453"/>
      <use xlink:href="#DejaVuSans-61" x="1038.648438"/>
      <use xlink:href="#DejaVuSans-72" x="1099.927734"/>
      <use xlink:href="#DejaVuSans-67" x="1139.291016"/>
      <use xlink:href="#DejaVuSans-65" x="1202.767578"/>
      <use xlink:href="#DejaVuSans-74" x="1264.291016"/>
      <use xlink:href="#DejaVuSans-20" x="1303.5"/>
      <use xlink:href="#DejaVuSans-70" x="1335.287109"/>
      <use xlink:href="#DejaVuSans-61" x="1398.763672"/>
      <use xlink:href="#DejaVuSans-69" x="1460.042969"/>
      <use xlink:href="#DejaVuSans-72" x="1487.826172"/>
      <use xlink:href="#DejaVuSans-73" x="1528.939453"/>
     </g>
    </g>
   </g>
   <g id="line2d_33">
    <defs>
     <path id="m3a1ee03b11" d="M 0 1.5 
C 0.397805 1.5 0.77937 1.341951 1.06066 1.06066 
C 1.341951 0.77937 1.5 0.397805 1.5 0 
C 1.5 -0.397805 1.341951 -0.77937 1.06066 -1.06066 
C 0.77937 -1.341951 0.397805 -1.5 0 -1.5 
C -0.397805 -1.5 -0.77937 -1.341951 -1.06066 -1.06066 
C -1.341951 -0.77937 -1.5 -0.397805 -1.5 0 
C -1.5 0.397805 -1.341951 0.77937 -1.06066 1.06066 
C -0.77937 1.341951 -0.397805 1.5 0 1.5 
z
" style="stroke: #f5deb3"/>
    </defs>
    <g>
     <use xlink:href="#m3a1ee03b11" x="177.597677" y="27.648" style="fill: #f5deb3; stroke: #f5deb3"/>
     <use xlink:href="#m3a1ee03b11" x="177.597677" y="27.648" style="fill: #f5deb3; stroke: #f5deb3"/>
    </g>
   </g>
   <g id="line2d_34">
    <defs>
     <path id="m8050837fa5" d="M 0 1.5 
C 0.397805 1.5 0.77937 1.341951 1.06066 1.06066 
C 1.341951 0.77937 1.5 0.397805 1.5 0 
C 1.5 -0.397805 1.341951 -0.77937 1.06066 -1.06066 
C 0.77937 -1.341951 0.397805 -1.5 0 -1.5 
C -0.397805 -1.5 -0.77937 -1.341951 -1.06066 -1.06066 
C -1.341951 -0.77937 -1.5 -0.397805 -1.5 0 
C -1.5 0.397805 -1.341951 0.77937 -1.06066 1.06066 
C -0.77937 1.341951 -0.397805 1.5 0 1.5 
z
" style="stroke: #000080"/>
    </defs>
    <g>
     <use xlink:href="#m8050837fa5" x="268.841073" y="27.648" style="fill: #000080; stroke: #000080"/>
     <use xlink:href="#m8050837fa5" x="268.841073" y="27.648" style="fill: #000080; stroke: #000080"/>
    </g>
   </g>
   <g id="line2d_35">
    <path d="M 27.323974 298.944 
L 27.323974 298.731219 
L 55.618005 298.731219 
L 55.618005 298.518438 
L 59.392932 298.518438 
L 59.392932 298.305656 
L 61.029752 298.305656 
L 61.029752 297.880094 
L 70.639174 297.880094 
L 70.639174 297.667313 
L 74.068926 297.667313 
L 74.068926 297.028969 
L 74.836851 297.028969 
L 74.836851 295.965064 
L 76.284608 295.965064 
L 76.284608 295.539501 
L 76.96874 295.539501 
L 76.96874 295.32672 
L 79.480672 295.32672 
L 79.480672 295.113939 
L 81.166416 295.113939 
L 81.166416 294.901158 
L 82.713442 294.901158 
L 82.713442 294.688376 
L 87.1081 294.617449 
L 87.1081 294.404668 
L 87.876026 294.404668 
L 87.876026 294.191887 
L 88.972154 294.191887 
L 88.972154 293.766325 
L 90.007914 293.766325 
L 90.007914 293.624471 
L 90.340871 293.624471 
L 90.340871 293.198908 
L 91.616719 293.127981 
L 91.616719 292.9152 
L 91.922605 292.9152 
L 91.922605 292.702419 
L 92.811505 292.702419 
L 92.811505 292.489638 
L 93.098709 292.489638 
L 93.098709 292.276856 
L 93.381595 292.276856 
L 93.381595 291.993148 
L 95.503454 291.993148 
L 95.503454 291.780367 
L 95.998523 291.780367 
L 95.998523 291.567586 
L 96.241256 291.567586 
L 96.241256 290.929242 
L 96.480897 290.929242 
L 96.480897 290.716461 
L 96.717523 290.716461 
L 96.717523 290.50368 
L 97.18203 290.50368 
L 97.18203 290.290899 
L 97.635342 290.290899 
L 97.635342 290.078118 
L 97.857967 290.078118 
L 97.857967 289.652555 
L 99.14107 289.652555 
L 99.14107 289.439774 
L 99.751228 289.368847 
L 99.751228 289.156066 
L 99.950294 289.156066 
L 99.950294 288.943285 
L 100.147275 288.943285 
L 100.147275 288.730504 
L 100.342215 288.730504 
L 100.342215 288.021233 
L 100.535156 288.021233 
L 100.535156 287.737525 
L 100.726138 287.737525 
L 100.726138 287.241035 
L 101.102381 287.241035 
L 101.102381 287.028254 
L 101.653002 287.028254 
L 101.653002 286.815473 
L 101.833019 286.815473 
L 101.833019 286.602692 
L 102.011329 286.602692 
L 102.011329 285.751567 
L 102.187964 285.751567 
L 102.187964 285.538786 
L 102.362957 285.538786 
L 102.362957 285.326005 
L 102.536336 285.326005 
L 102.536336 284.900442 
L 102.708132 284.900442 
L 102.708132 284.545807 
L 103.868684 284.47488 
L 103.868684 284.262099 
L 104.809458 284.262099 
L 104.809458 284.049318 
L 105.26277 284.049318 
L 105.26277 283.765609 
L 105.705415 283.694682 
L 105.705415 283.552828 
L 106.137884 283.481901 
L 106.137884 283.26912 
L 106.974091 283.198193 
L 106.974091 282.772631 
L 107.109915 282.772631 
L 107.109915 282.488922 
L 107.244765 282.488922 
L 107.244765 282.06336 
L 107.378656 282.06336 
L 107.378656 281.921506 
L 108.034177 281.850579 
L 108.034177 281.637798 
L 108.29012 281.637798 
L 108.29012 281.425016 
L 108.667622 281.354089 
L 108.667622 281.141308 
L 109.159456 281.141308 
L 109.159456 280.928527 
L 110.221204 280.8576 
L 110.221204 280.786673 
L 110.335561 280.786673 
L 110.335561 280.361111 
L 110.674517 280.361111 
L 110.674517 280.148329 
L 111.007473 280.077402 
L 111.117162 279.439059 
L 111.54963 279.368132 
L 111.54963 279.155351 
L 111.762192 279.155351 
L 111.86758 278.942569 
L 111.97238 278.942569 
L 112.076599 278.517007 
L 112.180244 278.517007 
L 112.283321 278.233299 
L 112.890198 278.233299 
L 112.989468 277.949591 
L 113.186449 277.878664 
L 113.284172 277.453101 
L 113.860081 277.382174 
L 113.954374 277.098466 
L 114.141556 277.098466 
L 114.234452 276.531049 
L 114.510421 276.531049 
L 114.510421 276.318268 
L 114.692177 276.318268 
L 114.7824 275.750852 
L 115.050503 275.679925 
L 115.139028 275.467144 
L 115.661605 275.396216 
L 115.747307 274.970654 
L 115.83262 274.899727 
L 115.83262 274.8288 
L 116.002095 274.8288 
L 116.002095 274.757873 
L 116.002095 274.545092 
L 116.336531 274.545092 
L 116.419219 274.119529 
L 116.665126 274.048602 
L 116.746385 273.693967 
L 116.988079 273.62304 
L 116.988079 273.339332 
L 117.1475 273.339332 
L 117.1475 273.126551 
L 117.305581 273.126551 
L 117.305581 272.913769 
L 117.772007 272.842842 
L 117.848632 272.559134 
L 118.076654 272.559134 
L 118.076654 272.346353 
L 118.301945 272.275426 
L 118.301945 271.920791 
L 118.524569 271.849864 
L 118.524569 271.637082 
L 118.889854 271.637082 
L 118.962067 271.140593 
L 119.177058 271.140593 
L 119.24818 270.715031 
L 119.530006 270.644104 
L 119.530006 270.218541 
L 119.876453 270.147614 
L 119.876453 270.076687 
L 120.0813 270.076687 
L 120.0813 269.792979 
L 120.28394 269.792979 
L 120.28394 269.580198 
L 120.41783 269.580198 
L 120.48442 268.870927 
L 120.682786 268.8 
L 120.748446 268.232584 
L 121.073351 268.232584 
L 121.137664 267.665167 
L 121.329295 267.59424 
L 121.39274 267.381459 
L 121.518993 267.381459 
L 121.581803 266.955896 
L 122.259215 266.955896 
L 122.259215 266.743115 
L 122.439807 266.743115 
L 122.439807 266.672188 
L 122.499621 266.459407 
L 122.795872 266.459407 
L 122.795872 266.175699 
L 123.029559 266.175699 
L 123.08753 265.679209 
L 123.145323 265.679209 
L 123.145323 265.466428 
L 123.4884 265.395501 
L 123.4884 265.040866 
L 123.936316 264.969939 
L 124.046648 264.402522 
L 124.535287 264.331595 
L 124.642171 264.189741 
L 124.854134 264.189741 
L 124.854134 264.047887 
L 125.167667 263.97696 
L 125.271028 263.125835 
L 125.322496 263.125835 
L 125.322496 262.913054 
L 125.628382 262.842127 
L 125.729248 262.203784 
L 126.420564 262.132856 
L 126.420564 261.920075 
L 126.756923 261.849148 
L 126.851931 261.56544 
L 126.946461 261.56544 
L 127.040519 261.139878 
L 127.18073 261.139878 
L 127.273627 260.430607 
L 127.458055 260.430607 
L 127.549596 260.075972 
L 127.5952 260.075972 
L 127.686077 259.579482 
L 127.776517 259.579482 
L 127.866525 258.515576 
L 128.089678 258.515576 
L 128.178203 258.160941 
L 128.222309 258.160941 
L 128.266313 257.877233 
L 128.39771 257.877233 
L 128.39771 257.664452 
L 128.700779 257.593525 
L 128.700779 257.522598 
L 128.956723 257.451671 
L 129.041269 257.026108 
L 129.167381 256.955181 
L 129.250988 256.671473 
L 129.375706 256.600546 
L 129.458394 256.245911 
L 129.744974 256.245911 
L 129.78556 255.678494 
L 129.987186 255.607567 
L 129.987186 255.465713 
L 130.305359 255.394786 
L 130.305359 255.111078 
L 130.4233 255.111078 
L 130.46245 254.401807 
L 130.849533 254.401807 
L 130.926003 254.047172 
L 130.964122 254.047172 
L 131.040128 253.408828 
L 131.378407 253.337901 
L 131.452761 252.983266 
L 131.563744 252.912339 
L 131.563744 252.841412 
L 131.747272 252.841412 
L 131.856536 252.486776 
L 132.001241 252.415849 
L 132.109044 252.132141 
L 132.144842 252.132141 
L 132.144842 251.777506 
L 132.322814 251.777506 
L 132.322814 251.706579 
L 132.393534 251.210089 
L 132.743202 251.210089 
L 132.777813 250.997308 
L 132.881269 250.997308 
L 132.984158 250.784527 
L 133.188264 250.7136 
L 133.222067 250.571746 
L 133.390178 250.500819 
L 133.457005 250.217111 
L 133.589949 250.146184 
L 133.589949 249.933402 
L 133.78762 249.862475 
L 133.820365 249.365986 
L 133.950775 249.365986 
L 133.950775 249.153205 
L 134.272898 249.153205 
L 134.336666 248.514861 
L 134.431915 248.443934 
L 134.431915 248.160226 
L 134.745971 248.089299 
L 134.839175 247.592809 
L 135.207439 247.521882 
L 135.298389 247.380028 
L 135.35878 247.380028 
L 135.35878 247.238174 
L 135.508912 247.238174 
L 135.508912 247.025393 
L 135.717106 247.025393 
L 135.776169 246.528904 
L 135.835047 246.528904 
L 135.92302 246.245195 
L 136.010584 246.245195 
L 136.097741 245.961487 
L 136.184497 245.961487 
L 136.270855 245.677779 
L 136.97549 245.606852 
L 137.085822 245.252216 
L 137.27736 245.181289 
L 137.27736 245.110362 
L 137.439996 245.110362 
L 137.439996 244.613873 
L 137.681345 244.542946 
L 137.681345 244.472019 
L 137.840541 244.401092 
L 137.840541 244.401092 
L 137.945929 243.833675 
L 137.998402 243.762748 
L 138.024583 243.620894 
L 138.489728 243.549967 
L 138.59155 243.337186 
L 138.667556 243.337186 
L 138.718057 243.053478 
L 139.264798 242.982551 
L 139.338138 242.840696 
L 139.580558 242.769769 
L 139.652679 242.627915 
L 139.796097 242.556988 
L 139.867398 242.415134 
L 140.243172 242.344207 
L 140.243172 242.202353 
L 140.49723 242.131426 
L 140.58877 241.634936 
L 140.770526 241.564009 
L 140.770526 241.351228 
L 141.305488 241.280301 
L 141.305488 241.209374 
L 142.352625 241.138447 
L 142.352625 240.925666 
L 144.079302 240.854739 
L 144.079302 240.783812 
L 146.512849 240.712885 
L 146.512849 240.500104 
L 147.550096 240.429176 
L 147.550096 240.358249 
L 148.292143 240.287322 
L 148.292143 240.216395 
L 149.223672 240.145468 
L 149.223672 240.074541 
L 149.973123 240.003614 
L 149.973123 239.790833 
L 150.411576 239.790833 
L 150.411576 239.648979 
L 150.800286 239.648979 
L 150.906118 239.294344 
L 150.971962 239.223416 
L 151.076835 239.081562 
L 151.54166 239.010635 
L 151.56715 238.726927 
L 151.719368 238.656 
L 151.769835 238.514146 
L 152.020159 238.443219 
L 152.020159 238.372292 
L 152.279463 238.301365 
L 152.389508 237.804875 
L 152.486788 237.733948 
L 152.55942 237.45024 
L 152.91843 237.379313 
L 152.91843 237.308386 
L 153.259079 237.237459 
L 153.259079 237.166532 
L 153.478964 237.095605 
L 153.559331 236.811896 
L 153.741748 236.811896 
L 153.798392 236.599115 
L 154.000911 236.528188 
L 154.101358 236.315407 
L 154.344662 236.24448 
L 154.377597 236.031699 
L 154.725366 235.960772 
L 154.822028 235.818918 
L 155.203786 235.747991 
L 155.277126 235.606136 
L 155.660098 235.535209 
L 155.660098 235.393355 
L 156.579868 235.322428 
L 156.579868 235.251501 
L 157.09001 235.180574 
L 157.09001 235.109647 
L 158.124583 235.03872 
L 158.124583 234.967793 
L 159.028273 234.896866 
L 159.028273 234.825939 
L 159.535354 234.825939 
L 159.535354 234.400376 
L 159.800309 234.400376 
L 159.800309 234.258522 
L 161.497325 234.187595 
L 161.602209 233.974814 
L 163.060754 233.903887 
L 163.164171 233.691106 
L 163.308007 233.691106 
L 163.308007 233.478325 
L 163.498092 233.407398 
L 163.511597 232.910908 
L 163.971658 232.839981 
L 163.971658 228.158795 
L 164.181259 228.158795 
L 164.265747 226.5984 
L 164.349858 226.5984 
L 164.446443 225.889129 
L 164.574457 225.818202 
L 164.650849 224.754296 
L 164.695268 224.754296 
L 164.777484 223.122974 
L 164.897003 223.052047 
L 164.909539 222.484631 
L 165.096597 222.413704 
L 165.096597 222.059068 
L 165.257222 222.059068 
L 165.337023 221.420725 
L 165.392072 221.420725 
L 165.422585 220.995162 
L 165.586508 220.995162 
L 165.695002 220.427746 
L 165.755007 220.356819 
L 165.778956 220.214965 
L 166.181484 220.144038 
L 166.181484 220.073111 
L 166.724107 220.002184 
L 166.724107 219.931256 
L 167.753769 219.860329 
L 167.753769 219.789402 
L 168.555279 219.789402 
L 168.555279 219.576621 
L 168.719753 219.576621 
L 168.719753 219.434767 
L 169.144777 219.36384 
L 169.144777 218.938278 
L 169.284344 218.867351 
L 169.328985 218.725496 
L 169.677494 218.654569 
L 169.696937 217.306955 
L 169.832482 217.306955 
L 169.832482 217.094174 
L 169.986203 217.023247 
L 169.986203 216.95232 
L 170.124436 216.95232 
L 170.214455 216.455831 
L 170.294635 216.384904 
L 170.374474 215.74656 
L 170.444641 215.74656 
L 170.514546 215.462852 
L 170.672043 215.391925 
L 170.681267 215.250071 
L 170.796182 215.250071 
L 170.883051 214.895435 
L 171.060113 214.824508 
L 171.159263 214.611727 
L 171.244475 214.611727 
L 171.244475 214.5408 
L 171.253422 214.398946 
L 171.786963 214.328019 
L 171.795656 214.044311 
L 172.063164 213.973384 
L 172.063164 213.902456 
L 172.356469 213.831529 
L 172.356469 213.760602 
L 172.868238 213.689675 
L 172.868238 213.618748 
L 173.133165 213.547821 
L 173.133165 213.405967 
L 173.773739 213.33504 
L 173.773739 213.193186 
L 174.049442 213.122259 
L 174.049442 212.838551 
L 174.476303 212.767624 
L 174.525228 212.625769 
L 174.812433 212.554842 
L 174.912111 212.412988 
L 175.029569 212.342061 
L 175.029569 212.271134 
L 175.374013 212.200207 
L 175.374013 212.12928 
L 177.148646 212.12928 
L 177.148646 211.916499 
L 177.594485 211.845572 
L 177.702725 211.349082 
L 177.715419 211.349082 
L 177.804033 210.994447 
L 178.042475 210.92352 
L 178.141974 210.568885 
L 178.268694 210.497958 
L 178.268694 210.285176 
L 178.412915 210.214249 
L 178.486135 210.072395 
L 178.568169 210.001468 
L 178.664933 209.221271 
L 178.824112 209.150344 
L 178.907666 208.866635 
L 179.017511 208.795708 
L 179.06186 208.512 
L 179.167874 208.441073 
L 179.26161 207.802729 
L 179.314132 207.802729 
L 179.41584 206.880678 
L 179.493926 206.809751 
L 179.563065 206.455115 
L 179.669159 206.384188 
L 179.740507 205.958626 
L 179.788869 205.958626 
L 179.879569 205.533064 
L 179.907823 205.533064 
L 179.997952 204.965647 
L 180.056865 204.89472 
L 180.13513 198.369431 
L 180.196396 198.298504 
L 180.285156 196.241619 
L 180.36799 196.170692 
L 180.455946 194.255661 
L 180.505241 194.255661 
L 180.59256 193.262682 
L 180.668632 193.191755 
L 180.755196 192.83712 
L 180.959205 192.766193 
L 180.980551 192.624339 
L 181.153099 192.624339 
L 181.192694 192.411558 
L 181.410292 192.340631 
L 181.511675 192.198776 
L 181.728198 192.127849 
L 181.728198 192.056922 
L 181.873718 191.985995 
L 181.873718 191.915068 
L 182.053419 191.844141 
L 182.128837 191.418579 
L 182.697205 191.347652 
L 182.774938 190.212819 
L 182.818523 190.212819 
L 182.895758 189.503548 
L 182.967879 189.503548 
L 183.075545 188.723351 
L 183.08747 188.723351 
L 183.163611 188.01408 
L 183.239445 187.943153 
L 183.314974 187.659445 
L 183.385509 187.588518 
L 183.493151 187.304809 
L 183.761892 187.233882 
L 183.871982 187.021101 
L 183.942741 186.950174 
L 183.942741 186.879247 
L 184.29036 186.80832 
L 184.397409 186.595539 
L 184.468438 186.524612 
L 184.468438 186.453685 
L 185.050858 186.382758 
L 185.140856 185.957195 
L 185.289901 185.886268 
L 185.357645 185.460706 
L 185.44619 185.389779 
L 185.546876 185.176998 
L 185.592845 185.106071 
L 185.592845 185.035144 
L 185.746647 184.964216 
L 185.746647 184.893289 
L 185.956604 184.822362 
L 185.956604 184.751435 
L 186.634082 184.680508 
L 186.634082 184.609581 
L 186.949329 184.609581 
L 187.055822 183.900311 
L 187.069333 183.900311 
L 187.169394 183.545675 
L 187.190493 183.545675 
L 187.284193 182.978259 
L 187.314688 182.978259 
L 187.403982 182.198061 
L 188.017446 182.127134 
L 188.017446 182.056207 
L 188.534946 182.056207 
L 188.534946 181.914353 
L 188.648826 181.843426 
L 188.705509 181.701572 
L 188.818364 181.630645 
L 188.927051 181.205082 
L 188.932294 181.134155 
L 188.968955 180.992301 
L 189.052485 180.921374 
L 189.163284 180.424885 
L 189.211554 180.353958 
L 189.273435 180.141176 
L 189.600068 180.070249 
L 189.600068 179.999322 
L 190.280766 179.928395 
L 190.280766 179.857468 
L 190.622481 179.786541 
L 190.726021 179.644687 
L 190.934549 179.57376 
L 190.934549 179.502833 
L 191.613406 179.431906 
L 191.613406 179.360979 
L 192.180601 179.290052 
L 192.286169 178.793562 
L 192.33144 178.793562 
L 192.431815 178.084292 
L 192.447768 178.084292 
L 192.546084 177.375021 
L 192.638149 177.304094 
L 192.731194 176.949459 
L 192.816676 176.878532 
L 192.913087 176.665751 
L 193.001971 176.594824 
L 193.001971 176.523896 
L 193.709162 176.523896 
L 193.805164 176.098334 
L 193.861723 176.098334 
L 193.950261 175.530918 
L 193.997045 175.459991 
L 194.041048 175.318136 
L 194.144649 175.247209 
L 194.144649 175.176282 
L 195.034568 175.105355 
L 195.115251 174.892574 
L 195.174282 174.821647 
L 195.255617 174.467012 
L 195.321678 174.396085 
L 195.354 174.254231 
L 195.579941 174.183304 
L 195.631416 174.041449 
L 196.437586 173.970522 
L 196.539324 173.615887 
L 196.571951 173.54496 
L 196.638195 173.261252 
L 196.774595 173.190325 
L 196.791863 173.048471 
L 196.926015 172.977544 
L 196.955697 172.764762 
L 197.1249 172.693835 
L 197.126031 172.551981 
L 197.240983 172.481054 
L 197.349653 170.920659 
L 197.367517 170.849732 
L 197.473241 170.282315 
L 197.543027 170.211388 
L 197.591612 170.069534 
L 197.703763 169.998607 
L 197.721295 169.856753 
L 198.020095 169.785826 
L 198.114718 169.643972 
L 198.338617 169.573045 
L 198.379906 169.076555 
L 198.463267 169.076555 
L 198.548356 168.367285 
L 198.581866 168.367285 
L 198.648707 167.728941 
L 198.998849 167.658014 
L 199.077479 167.51616 
L 199.291278 167.51616 
L 199.400779 166.948744 
L 199.458787 166.877816 
L 199.541488 166.452254 
L 199.721571 166.381327 
L 199.816849 166.026692 
L 199.926265 165.955765 
L 199.982677 165.742984 
L 200.380505 165.672056 
L 200.481971 165.317421 
L 200.498042 165.246494 
L 200.592298 164.962786 
L 201.319864 164.891859 
L 201.426297 164.608151 
L 201.454158 164.608151 
L 201.558943 164.253515 
L 201.616906 164.182588 
L 201.658707 163.969807 
L 201.947863 163.89888 
L 202.05777 162.480339 
L 202.10381 162.480339 
L 202.200733 161.416433 
L 202.25159 161.345506 
L 202.351181 160.990871 
L 202.368299 160.919944 
L 202.368299 160.849016 
L 202.618993 160.778089 
L 202.618993 160.707162 
L 202.843047 160.636235 
L 202.952009 160.2816 
L 203.010801 160.210673 
L 203.11222 159.785111 
L 203.145906 159.714184 
L 203.23435 159.146767 
L 203.358127 159.07584 
L 203.401905 158.863059 
L 203.876856 158.792132 
L 203.951716 158.366569 
L 204.038809 158.295642 
L 204.126279 158.011934 
L 204.216446 157.941007 
L 204.288425 157.728226 
L 204.457609 157.657299 
L 204.457609 157.586372 
L 204.731214 157.515445 
L 204.814779 157.018955 
L 204.958454 156.948028 
L 205.065494 156.735247 
L 205.721756 156.66432 
L 205.766799 156.522466 
L 205.883548 156.451539 
L 205.9897 147.656584 
L 206.012269 147.585656 
L 206.123306 146.876386 
L 206.158308 146.805459 
L 206.237174 146.379896 
L 206.51509 146.308969 
L 206.614334 144.464866 
L 206.632075 144.464866 
L 206.740879 143.046325 
L 206.762565 143.046325 
L 206.853102 142.407981 
L 206.875332 142.407981 
L 206.956618 142.124273 
L 207.074228 142.053346 
L 207.148026 141.769638 
L 207.267747 141.769638 
L 207.362452 141.060367 
L 207.425326 140.98944 
L 207.508831 140.705732 
L 207.586134 140.634805 
L 207.695374 140.209242 
L 207.751364 140.209242 
L 207.751364 140.138315 
L 207.832798 139.996461 
L 207.998422 139.925534 
L 208.105931 139.570899 
L 208.220979 139.499972 
L 208.287923 139.145336 
L 208.681602 139.074409 
L 208.789545 137.159379 
L 208.79988 137.159379 
L 208.908357 135.031567 
L 208.934322 134.96064 
L 209.02402 134.606005 
L 209.158665 134.535078 
L 209.244334 134.180442 
L 209.290576 134.180442 
L 209.401566 133.683953 
L 209.488483 133.613026 
L 209.557494 132.974682 
L 209.808586 132.903755 
L 209.826434 132.761901 
L 209.981749 132.690974 
L 209.981749 132.620047 
L 210.134093 132.54912 
L 210.134093 132.478193 
L 210.685846 132.407266 
L 210.794391 132.265412 
L 211.141017 132.265412 
L 211.200491 131.839849 
L 211.617379 131.768922 
L 211.617379 131.697995 
L 211.910187 131.697995 
L 211.986788 129.641111 
L 212.025227 129.570184 
L 212.115125 129.215548 
L 212.385283 129.144621 
L 212.495964 127.867934 
L 212.511937 127.797007 
L 212.607984 127.371445 
L 212.655577 127.300518 
L 212.761238 127.016809 
L 212.940583 127.016809 
L 212.940583 126.945882 
L 213.049025 125.811049 
L 213.070832 125.740122 
L 213.178045 122.761186 
L 213.241025 122.690259 
L 213.291832 122.477478 
L 213.419204 122.406551 
L 213.518781 121.980988 
L 213.562712 121.910061 
L 213.660596 120.917082 
L 213.702324 120.846155 
L 213.765443 120.562447 
L 214.001538 120.49152 
L 214.110924 119.853176 
L 214.1384 119.782249 
L 214.224689 119.28576 
L 214.255183 119.214833 
L 214.255183 119.143906 
L 214.442522 119.072979 
L 214.50276 118.789271 
L 214.602583 118.718344 
L 214.660087 118.434635 
L 214.844337 118.363708 
L 214.93886 118.221854 
L 215.036401 118.150927 
L 215.13257 117.867219 
L 215.362077 117.796292 
L 215.471526 117.441656 
L 215.634938 117.370729 
L 215.634938 117.299802 
L 216.19944 117.228875 
L 216.269439 117.016094 
L 216.479907 116.945167 
L 216.579443 116.377751 
L 216.61197 116.306824 
L 216.61197 116.235896 
L 216.884421 116.164969 
L 216.988138 115.384772 
L 217.15727 115.313845 
L 217.15727 115.242918 
L 217.270736 115.242918 
L 217.270736 115.171991 
L 217.366955 114.817355 
L 217.390837 114.746428 
L 217.498314 113.966231 
L 217.698573 113.895304 
L 217.78208 113.540668 
L 217.833661 113.469741 
L 217.899719 112.973252 
L 218.260421 112.902325 
L 218.298608 112.760471 
L 218.559066 112.689544 
L 218.644971 112.263981 
L 219.032756 112.193054 
L 219.032756 112.122127 
L 219.251607 112.0512 
L 219.261368 111.909346 
L 219.67159 111.838419 
L 219.763773 101.766776 
L 219.794288 101.695849 
L 219.801739 101.553995 
L 220.01857 101.553995 
L 220.12539 97.440226 
L 220.138034 97.369299 
L 220.223329 96.943736 
L 220.354334 96.943736 
L 220.429487 96.092612 
L 220.503363 96.021685 
L 220.581175 95.596122 
L 220.720364 95.525195 
L 220.809807 95.17056 
L 220.842838 95.099633 
L 220.948277 94.886852 
L 221.021417 94.815925 
L 221.090795 94.390362 
L 221.222511 94.319435 
L 221.272058 94.177581 
L 221.441662 94.106654 
L 221.441662 94.035727 
L 221.582353 93.9648 
L 221.641101 93.681092 
L 221.782752 93.610165 
L 221.782752 93.539238 
L 221.994907 93.468311 
L 221.994907 93.397384 
L 222.812301 93.326456 
L 222.897234 90.702155 
L 222.945718 90.631228 
L 222.945718 90.560301 
L 223.10208 90.560301 
L 223.193072 88.928979 
L 223.215681 88.858052 
L 223.298535 88.574344 
L 223.396698 88.503416 
L 223.492124 87.794146 
L 223.524659 87.723219 
L 223.634362 87.439511 
L 223.70852 87.368584 
L 223.811961 86.73024 
L 224.035278 86.659313 
L 224.035278 86.588386 
L 224.419085 86.517459 
L 224.419085 86.446532 
L 225.499401 86.375605 
L 225.609893 85.879115 
L 225.750618 85.808188 
L 225.822064 85.311699 
L 226.010701 85.240772 
L 226.092562 84.673355 
L 226.393608 84.602428 
L 226.495663 84.460574 
L 226.527427 84.389647 
L 226.629468 84.247793 
L 227.023419 84.176866 
L 227.023419 84.105939 
L 227.857048 84.035012 
L 227.878442 83.893158 
L 228.315945 83.822231 
L 228.422893 83.396668 
L 228.619093 83.325741 
L 228.619093 83.254814 
L 228.95286 83.254814 
L 229.022684 76.729525 
L 229.131887 76.658598 
L 229.215018 73.46688 
L 229.369599 73.395953 
L 229.480051 72.402974 
L 229.574556 72.402974 
L 229.609974 72.048339 
L 230.204238 71.977412 
L 230.20677 71.835558 
L 230.557572 71.764631 
L 230.557572 71.693704 
L 230.756105 71.622776 
L 230.756105 71.551849 
L 230.92915 71.551849 
L 230.98922 69.565892 
L 231.117882 69.565892 
L 231.19806 68.005496 
L 231.310802 67.934569 
L 231.418856 66.657882 
L 231.451698 66.586955 
L 231.513214 66.161393 
L 231.577065 66.090466 
L 231.654772 65.523049 
L 231.713292 65.452122 
L 231.804936 65.02656 
L 232.094318 64.955633 
L 232.183954 64.530071 
L 232.285725 64.459144 
L 232.308034 64.104508 
L 232.438568 64.033581 
L 232.521416 63.749873 
L 232.698314 63.678946 
L 232.807867 62.898748 
L 232.889446 62.827821 
L 232.962263 62.189478 
L 233.078321 62.189478 
L 233.173549 61.267426 
L 233.20131 61.196499 
L 233.270615 60.912791 
L 233.325975 60.841864 
L 233.365865 60.416301 
L 233.492883 60.345374 
L 233.593851 59.990739 
L 233.65881 59.919812 
L 233.677282 59.707031 
L 233.77469 59.707031 
L 233.879128 58.99776 
L 233.933048 58.926833 
L 234.031528 58.430344 
L 234.144668 58.359416 
L 234.214997 58.004781 
L 234.261999 57.933854 
L 234.33455 57.579219 
L 234.530276 57.508292 
L 234.565223 57.295511 
L 234.772027 57.224584 
L 234.836398 57.011802 
L 234.962217 56.940875 
L 235.058928 56.515313 
L 235.099817 56.444386 
L 235.102369 56.302532 
L 235.265465 56.231605 
L 235.343595 55.309553 
L 235.394664 55.238626 
L 235.49286 54.458428 
L 235.560239 54.387501 
L 235.638762 54.032866 
L 235.875266 53.961939 
L 235.947895 53.820085 
L 236.223761 53.749158 
L 236.33335 53.465449 
L 236.425939 53.394522 
L 236.425939 53.323595 
L 236.717818 53.252668 
L 236.819094 52.685252 
L 236.872193 52.614325 
L 236.960269 51.905054 
L 237.029512 51.834127 
L 237.101742 51.195784 
L 237.164818 51.124856 
L 237.267736 50.770221 
L 237.351719 50.699294 
L 237.377147 50.55744 
L 237.474679 50.486513 
L 237.515399 50.273732 
L 237.818545 50.202805 
L 237.818545 50.131878 
L 238.108696 50.060951 
L 238.191308 49.848169 
L 238.31107 49.777242 
L 238.382335 49.422607 
L 238.470914 49.35168 
L 238.523561 49.138899 
L 238.72241 49.067972 
L 238.80435 48.784264 
L 238.925308 48.713336 
L 238.978411 48.500555 
L 239.128464 48.429628 
L 239.187766 47.152941 
L 239.254588 47.082014 
L 239.318894 46.656452 
L 239.385851 46.585525 
L 239.427653 46.443671 
L 239.534837 46.372744 
L 239.611312 46.089035 
L 239.821958 46.018108 
L 239.825229 45.876254 
L 239.977394 45.805327 
L 240.079657 45.663473 
L 240.30429 45.663473 
L 240.361366 45.025129 
L 240.435465 44.954202 
L 240.500485 44.599567 
L 240.590532 44.52864 
L 240.69142 44.315859 
L 240.829125 44.244932 
L 240.866849 43.961224 
L 241.225346 43.890296 
L 241.318795 43.748442 
L 241.465172 43.677515 
L 241.555203 43.32288 
L 241.624648 43.251953 
L 241.698702 43.039172 
L 241.776256 42.968245 
L 241.885868 42.471755 
L 241.989953 42.400828 
L 241.989953 42.329901 
L 242.455957 42.258974 
L 242.561791 42.11712 
L 242.595593 42.046193 
L 242.685804 41.833412 
L 242.792851 41.762485 
L 242.880137 41.620631 
L 242.97127 41.549704 
L 243.082015 40.273016 
L 243.192795 40.202089 
L 243.282915 39.918381 
L 243.41039 39.847454 
L 243.50476 39.563746 
L 243.862408 39.492819 
L 243.951823 39.209111 
L 244.056585 39.138184 
L 244.148055 38.49984 
L 244.240098 38.428913 
L 244.326176 38.003351 
L 244.450998 37.932424 
L 244.530936 37.790569 
L 244.627102 37.719642 
L 244.711252 37.435934 
L 244.872357 37.365007 
L 244.962532 37.081299 
L 245.045197 37.010372 
L 245.045197 36.868518 
L 245.206288 36.797591 
L 245.206288 36.726664 
L 245.419357 36.655736 
L 245.524907 36.442955 
L 245.545343 36.372028 
L 245.613904 36.159247 
L 245.709744 36.08832 
L 245.815636 35.804612 
L 245.939088 35.733685 
L 246.009595 35.449976 
L 246.134291 35.379049 
L 246.224282 35.095341 
L 246.332201 35.024414 
L 246.437861 34.598852 
L 246.498581 34.527925 
L 246.498581 34.456998 
L 247.104764 34.386071 
L 247.176732 34.031435 
L 247.27014 33.960508 
L 247.278788 33.747727 
L 247.636504 33.6768 
L 247.705932 33.534946 
L 248.00918 33.464019 
L 248.00918 33.393092 
L 248.368757 33.322165 
L 248.47135 33.180311 
L 248.594431 33.109384 
L 248.685012 32.896602 
L 248.866612 32.825675 
L 248.866612 32.754748 
L 249.230303 32.683821 
L 249.230303 32.612894 
L 249.461614 32.541967 
L 249.555577 32.329186 
L 249.908019 32.258259 
L 250.011545 31.974551 
L 250.063265 31.903624 
L 250.165674 31.690842 
L 250.928607 31.619915 
L 251.012572 31.407134 
L 251.140447 31.336207 
L 251.140447 31.26528 
L 251.525709 31.194353 
L 251.566678 31.052499 
L 251.682894 30.981572 
L 251.753718 30.697864 
L 251.947136 30.626936 
L 252.055729 30.414155 
L 252.29316 30.343228 
L 252.381153 30.201374 
L 252.894107 30.130447 
L 252.995005 29.846739 
L 253.171766 29.775812 
L 253.195767 29.633958 
L 253.621294 29.563031 
L 253.621294 29.492104 
L 253.891098 29.421176 
L 253.969021 29.208395 
L 254.519007 29.137468 
L 254.519007 29.066541 
L 255.009701 28.995614 
L 255.069582 28.85376 
L 255.393141 28.782833 
L 255.393141 28.711906 
L 256.393634 28.640979 
L 256.393634 28.570052 
L 257.17618 28.499125 
L 257.17618 28.428198 
L 258.798616 28.357271 
L 258.798616 28.286344 
L 259.873732 28.215416 
L 259.873732 28.144489 
L 260.831227 28.073562 
L 260.831227 28.002635 
L 263.714137 27.931708 
L 263.714137 27.860781 
L 267.677424 27.789854 
L 267.677424 27.718927 
L 360.8064 27.648 
L 360.8064 27.648 
" style="fill: none; stroke: #000080; stroke-width: 1.5; stroke-linecap: square"/>
   </g>
   <g id="line2d_36">
    <defs>
     <path id="m124327ca3d" d="M 0 6 
C 1.591219 6 3.117479 5.367802 4.242641 4.242641 
C 5.367802 3.117479 6 1.591219 6 0 
C 6 -1.591219 5.367802 -3.117479 4.242641 -4.242641 
C 3.117479 -5.367802 1.591219 -6 0 -6 
C -1.591219 -6 -3.117479 -5.367802 -4.242641 -4.242641 
C -5.367802 -3.117479 -6 -1.591219 -6 0 
C -6 1.591219 -5.367802 3.117479 -4.242641 4.242641 
C -3.117479 5.367802 -1.591219 6 0 6 
z
" style="stroke: #000080; stroke-width: 1.5"/>
    </defs>
    <g>
     <use xlink:href="#m124327ca3d" x="70.639174" y="297.880094" style="fill-opacity: 0; stroke: #000080; stroke-width: 1.5"/>
     <use xlink:href="#m124327ca3d" x="154.134722" y="236.315407" style="fill-opacity: 0; stroke: #000080; stroke-width: 1.5"/>
     <use xlink:href="#m124327ca3d" x="216.269439" y="117.016094" style="fill-opacity: 0; stroke: #000080; stroke-width: 1.5"/>
     <use xlink:href="#m124327ca3d" x="268.841073" y="27.718927" style="fill-opacity: 0; stroke: #000080; stroke-width: 1.5"/>
     <use xlink:href="#m124327ca3d" x="268.841073" y="27.648" style="fill-opacity: 0; stroke: #000080; stroke-width: 1.5"/>
     <use xlink:href="#m124327ca3d" x="360.8064" y="27.648" style="fill-opacity: 0; stroke: #000080; stroke-width: 1.5"/>
    </g>
   </g>
   <g id="line2d_37">
    <path style="fill: none; stroke: #000080; stroke-width: 1.5; stroke-linecap: square"/>
    <g/>
   </g>
   <g id="line2d_38">
    <path d="M 103.047088 284.47488 
" clip-path="url(#p46126a0a57)" style="fill: none; stroke: #000080; stroke-width: 1.5; stroke-linecap: square"/>
    <defs>
     <path id="m021d9586ab" d="M -12 12 
L 12 -12 
M -12 -12 
L 12 12 
" style="stroke: #000080"/>
    </defs>
    <g clip-path="url(#p46126a0a57)">
     <use xlink:href="#m021d9586ab" x="103.047088" y="284.47488" style="fill: #000080; stroke: #000080"/>
    </g>
   </g>
   <g id="line2d_39">
    <defs>
     <path id="m7f5db16a09" d="M 0 1.5 
C 0.397805 1.5 0.77937 1.341951 1.06066 1.06066 
C 1.341951 0.77937 1.5 0.397805 1.5 0 
C 1.5 -0.397805 1.341951 -0.77937 1.06066 -1.06066 
C 0.77937 -1.341951 0.397805 -1.5 0 -1.5 
C -0.397805 -1.5 -0.77937 -1.341951 -1.06066 -1.06066 
C -1.341951 -0.77937 -1.5 -0.397805 -1.5 0 
C -1.5 0.397805 -1.341951 0.77937 -1.06066 1.06066 
C -0.77937 1.341951 -0.397805 1.5 0 1.5 
z
" style="stroke: #ff00ff"/>
    </defs>
    <g>
     <use xlink:href="#m7f5db16a09" x="179.410043" y="27.648" style="fill: #ff00ff; stroke: #ff00ff"/>
     <use xlink:href="#m7f5db16a09" x="179.410043" y="27.648" style="fill: #ff00ff; stroke: #ff00ff"/>
    </g>
   </g>
   <g id="line2d_40">
    <path d="M 47.990577 298.944 
L 47.990577 298.589365 
L 62.535479 298.589365 
L 62.535479 297.525459 
L 68.65718 297.525459 
L 68.65718 297.170824 
L 74.836851 297.170824 
L 74.836851 296.816188 
L 75.574654 296.816188 
L 75.574654 296.461553 
L 77.628862 296.461553 
L 77.628862 294.688376 
L 78.266603 294.688376 
L 78.266603 294.333741 
L 81.696354 294.333741 
L 81.696354 293.624471 
L 83.678349 293.624471 
L 83.678349 293.269835 
L 84.596168 293.269835 
L 84.596168 292.9152 
L 85.038813 292.9152 
L 85.038813 292.205929 
L 87.495981 292.205929 
L 87.495981 291.851294 
L 88.248544 291.851294 
L 88.248544 291.496659 
L 93.381595 291.496659 
L 93.381595 291.142024 
L 93.934916 291.142024 
L 93.934916 290.787388 
L 94.205591 290.787388 
L 94.205591 290.432753 
L 94.472426 290.432753 
L 94.472426 290.078118 
L 95.752617 290.078118 
L 95.752617 289.723482 
L 96.95121 289.723482 
L 96.95121 289.014212 
L 98.295464 289.014212 
L 98.295464 288.659576 
L 98.933205 288.659576 
L 98.933205 288.304941 
L 99.950294 288.304941 
L 99.950294 287.950306 
L 100.147275 287.950306 
L 100.147275 287.595671 
L 100.9152 287.595671 
L 100.9152 287.241035 
L 101.287718 287.241035 
L 101.287718 286.177129 
L 102.708132 286.177129 
L 102.708132 285.822494 
L 104.344952 285.822494 
L 104.344952 285.467859 
L 105.112877 285.467859 
L 105.112877 284.403953 
L 105.99483 284.403953 
L 105.99483 284.049318 
L 106.42077 284.049318 
L 106.42077 283.694682 
L 106.974091 283.694682 
L 106.974091 283.340047 
L 107.5116 283.340047 
L 107.5116 282.985412 
L 107.643612 282.985412 
L 107.643612 282.630776 
L 108.667622 282.630776 
L 108.667622 282.276141 
L 109.280431 282.276141 
L 109.280431 281.921506 
L 109.756698 281.921506 
L 109.756698 281.212235 
L 110.221204 281.212235 
L 110.221204 280.8576 
L 110.335561 280.8576 
L 110.335561 280.502965 
L 110.449226 280.502965 
L 110.449226 280.148329 
L 110.786158 280.148329 
L 110.786158 279.793694 
L 111.762192 279.793694 
L 111.86758 279.084424 
L 111.97238 279.084424 
L 111.97238 278.729788 
L 113.186449 278.729788 
L 113.284172 278.020518 
L 113.57433 278.020518 
L 113.670063 276.956612 
L 114.141556 276.956612 
L 114.141556 276.601976 
L 114.326893 276.601976 
L 114.326893 276.247341 
L 115.227139 276.247341 
L 115.227139 275.892706 
L 115.575511 275.892706 
L 115.575511 275.538071 
L 115.83262 275.538071 
L 115.917548 274.8288 
L 116.002095 274.8288 
L 116.002095 273.764894 
L 116.336531 273.764894 
L 116.336531 273.410259 
L 116.501546 273.410259 
L 116.501546 273.055624 
L 117.305581 273.055624 
L 117.305581 272.700988 
L 117.540239 272.700988 
L 117.540239 272.346353 
L 117.772007 272.346353 
L 117.772007 271.991718 
L 118.076654 271.991718 
L 118.076654 271.282447 
L 118.376446 271.282447 
L 118.376446 270.927812 
L 119.177058 270.927812 
L 119.24818 269.863906 
L 119.459944 269.863906 
L 119.530006 268.8 
L 119.807672 268.8 
L 119.807672 268.445365 
L 120.216635 268.445365 
L 120.216635 268.090729 
L 120.41783 268.090729 
L 120.41783 267.736094 
L 120.813877 267.736094 
L 120.813877 267.381459 
L 121.073351 267.381459 
L 121.073351 266.672188 
L 121.265635 266.672188 
L 121.329295 265.962918 
L 121.581803 265.962918 
L 121.581803 265.608282 
L 121.892744 265.608282 
L 121.892744 265.253647 
L 122.19863 265.253647 
L 122.19863 264.899012 
L 122.971409 264.899012 
L 122.971409 264.544376 
L 123.145323 264.544376 
L 123.145323 264.189741 
L 123.317644 264.189741 
L 123.317644 263.835106 
L 123.601383 263.835106 
L 123.601383 263.125835 
L 123.991562 263.125835 
L 124.101572 262.416565 
L 124.373813 262.416565 
L 124.373813 262.061929 
L 124.748451 262.061929 
L 124.748451 261.352659 
L 124.906754 261.352659 
L 124.906754 260.998024 
L 125.167667 260.998024 
L 125.167667 260.643388 
L 126.028642 260.643388 
L 126.127391 259.934118 
L 126.468985 259.934118 
L 126.468985 259.579482 
L 126.613505 259.579482 
L 126.709238 258.515576 
L 126.804487 258.515576 
L 126.804487 258.160941 
L 127.458055 258.160941 
L 127.549596 257.451671 
L 128.222309 257.451671 
L 128.266313 256.7424 
L 128.39771 256.7424 
L 128.39771 256.387765 
L 128.743679 256.387765 
L 128.829186 255.323859 
L 128.871795 255.323859 
L 128.871795 254.969224 
L 128.999044 254.969224 
L 128.999044 254.614588 
L 129.292652 254.614588 
L 129.334225 253.550682 
L 129.7043 253.550682 
L 129.78556 252.486776 
L 130.027253 252.486776 
L 130.107132 251.777506 
L 130.384069 251.777506 
L 130.46245 251.068235 
L 130.540507 251.068235 
L 130.540507 250.7136 
L 131.228811 250.7136 
L 131.228811 250.358965 
L 131.929028 250.358965 
L 132.037244 249.649694 
L 132.073179 249.649694 
L 132.073179 249.295059 
L 132.428795 249.295059 
L 132.428795 248.940424 
L 132.708526 248.940424 
L 132.708526 248.585788 
L 132.915628 248.585788 
L 133.01833 247.876518 
L 133.689044 247.876518 
L 133.689044 247.521882 
L 133.820365 247.521882 
L 133.885683 246.812612 
L 134.015642 246.812612 
L 134.047992 246.103341 
L 134.993495 246.103341 
L 135.024208 245.394071 
L 135.35878 245.394071 
L 135.35878 244.6848 
L 135.478982 244.6848 
L 135.478982 244.330165 
L 136.44239 244.330165 
L 136.527575 243.266259 
L 136.947806 243.266259 
L 136.97549 242.556988 
L 137.358854 242.556988 
L 137.358854 242.202353 
L 137.493898 242.202353 
L 137.493898 241.847718 
L 137.919637 241.847718 
L 137.945929 241.138447 
L 138.258593 241.138447 
L 138.258593 240.783812 
L 138.515235 240.783812 
L 138.515235 240.074541 
L 138.868751 240.074541 
L 138.868751 239.365271 
L 139.067817 239.365271 
L 139.141927 238.301365 
L 139.191172 238.301365 
L 139.191172 237.946729 
L 139.483965 237.946729 
L 139.483965 237.237459 
L 140.009194 237.237459 
L 140.009194 236.882824 
L 140.679868 236.882824 
L 140.679868 236.528188 
L 140.860749 236.528188 
L 140.950542 235.109647 
L 141.151022 235.109647 
L 141.151022 234.755012 
L 141.761416 234.755012 
L 141.782854 233.691106 
L 141.974701 233.691106 
L 142.059343 232.272565 
L 142.143605 232.272565 
L 142.143605 231.917929 
L 142.290162 231.917929 
L 142.290162 231.208659 
L 142.723105 231.208659 
L 142.723105 230.854024 
L 142.865233 230.854024 
L 142.865233 230.499388 
L 143.18612 230.499388 
L 143.245681 229.790118 
L 143.579681 229.790118 
L 143.579681 229.435482 
L 144.117191 229.435482 
L 144.117191 229.080847 
L 144.249202 229.080847 
L 144.249202 228.726212 
L 144.398947 228.726212 
L 144.398947 228.371576 
L 144.658165 228.371576 
L 144.749884 227.662306 
L 145.237585 227.662306 
L 145.273213 226.5984 
L 145.361989 226.5984 
L 145.361989 226.243765 
L 145.66073 226.243765 
L 145.66073 225.889129 
L 146.108646 225.889129 
L 146.108646 225.534494 
L 146.379077 225.534494 
L 146.379077 225.179859 
L 146.973697 225.179859 
L 146.973697 224.825224 
L 147.423525 224.825224 
L 147.423525 224.470588 
L 148.094045 224.470588 
L 148.170484 216.313976 
L 148.307296 216.313976 
L 148.307296 215.604706 
L 148.44312 215.604706 
L 148.533127 213.476894 
L 157.099504 213.476894 
L 157.099504 213.122259 
L 157.400797 213.122259 
L 157.400797 212.058353 
L 158.812888 212.058353 
L 158.873444 211.349082 
L 159.359426 211.349082 
L 159.359426 210.994447 
L 159.535354 210.994447 
L 159.535354 210.639812 
L 159.68485 210.639812 
L 159.734419 209.930541 
L 159.890533 209.930541 
L 159.890533 209.575906 
L 160.102084 209.575906 
L 160.118259 208.866635 
L 160.557708 208.866635 
L 160.557708 208.512 
L 160.691486 208.512 
L 160.691486 207.802729 
L 160.963953 207.802729 
L 161.017976 206.384188 
L 161.270586 206.384188 
L 161.270586 205.674918 
L 161.452196 205.674918 
L 161.452196 204.611012 
L 162.132562 204.611012 
L 162.219518 203.192471 
L 162.262846 203.192471 
L 162.349204 194.326588 
L 162.392235 194.326588 
L 162.463734 193.617318 
L 162.527853 193.617318 
L 162.527853 193.262682 
L 162.740015 193.262682 
L 162.831214 191.844141 
L 162.866174 191.844141 
L 162.866174 191.489506 
L 162.998429 191.489506 
L 163.102189 189.716329 
L 163.129762 189.716329 
L 163.171045 186.879247 
L 163.301182 186.879247 
L 163.301182 186.524612 
L 163.423645 186.524612 
L 163.450751 176.594824 
L 163.706328 176.594824 
L 163.79962 174.821647 
L 163.846093 174.821647 
L 163.945293 163.473318 
L 164.168227 163.473318 
L 164.187772 162.764047 
L 164.343401 162.764047 
L 164.343401 161.700141 
L 164.497753 161.700141 
L 164.606324 160.636235 
L 164.745905 160.636235 
L 164.764859 152.834259 
L 164.859342 152.834259 
L 164.915805 152.124988 
L 164.978343 152.124988 
L 165.065549 150.351812 
L 165.164721 150.351812 
L 165.170902 148.578635 
L 165.318637 148.578635 
L 165.324768 139.358118 
L 165.50169 139.358118 
L 165.507761 136.875671 
L 165.688991 136.875671 
L 165.688991 136.521035 
L 165.96353 136.521035 
L 166.05809 128.009788 
L 166.087543 128.009788 
L 166.158043 126.236612 
L 166.228279 126.236612 
L 166.274957 124.1088 
L 166.489353 124.1088 
L 166.50663 115.952188 
L 166.746854 115.952188 
L 166.746854 115.597553 
L 166.933472 115.597553 
L 167.01769 106.731671 
L 167.073627 106.731671 
L 167.073627 106.377035 
L 167.212746 106.377035 
L 167.212746 105.667765 
L 167.38933 105.667765 
L 167.471536 95.737976 
L 167.504319 95.737976 
L 167.596893 93.610165 
L 167.850487 93.610165 
L 167.850487 93.255529 
L 167.973351 93.255529 
L 168.021211 91.482353 
L 168.164064 91.482353 
L 168.164064 91.127718 
L 168.29014 91.127718 
L 168.29014 90.773082 
L 168.689024 90.773082 
L 168.689024 90.418447 
L 168.821824 90.418447 
L 168.898015 79.424753 
L 169.174771 79.424753 
L 169.174771 79.070118 
L 169.319074 79.070118 
L 169.417952 77.651576 
L 169.740612 77.651576 
L 169.813178 76.942306 
L 169.967056 76.942306 
L 169.967056 76.233035 
L 170.463308 76.233035 
L 170.463308 67.367153 
L 171.444765 67.367153 
L 171.444765 65.239341 
L 176.41189 65.239341 
L 176.432278 55.664188 
L 176.885267 55.664188 
L 176.885267 55.309553 
L 177.010832 55.309553 
L 177.010832 54.954918 
L 177.308164 54.954918 
L 177.340553 45.7344 
L 177.488828 45.7344 
L 177.488828 45.379765 
L 177.901658 45.379765 
L 177.989401 43.606588 
L 178.169864 43.606588 
L 178.253286 42.188047 
L 178.559072 42.188047 
L 178.646828 31.903624 
L 178.722153 31.903624 
L 178.782196 30.839718 
L 178.865936 30.839718 
L 178.889793 30.130447 
L 178.981956 30.130447 
L 179.06186 28.711906 
L 179.255765 28.711906 
L 179.255765 28.357271 
L 179.410043 28.357271 
L 179.410043 27.648 
L 360.8064 27.648 
L 360.8064 27.648 
" style="fill: none; stroke: #ff00ff; stroke-width: 1.5; stroke-linecap: square"/>
   </g>
   <g id="line2d_41">
    <defs>
     <path id="mfd1dc4e5e3" d="M -0 8.485281 
L 5.091169 0 
L 0 -8.485281 
L -5.091169 -0 
z
" style="stroke: #ff00ff; stroke-width: 1.5; stroke-linejoin: miter"/>
    </defs>
    <g>
     <use xlink:href="#mfd1dc4e5e3" x="124.748451" y="262.061929" style="fill-opacity: 0; stroke: #ff00ff; stroke-width: 1.5; stroke-linejoin: miter"/>
     <use xlink:href="#mfd1dc4e5e3" x="164.606324" y="160.636235" style="fill-opacity: 0; stroke: #ff00ff; stroke-width: 1.5; stroke-linejoin: miter"/>
     <use xlink:href="#mfd1dc4e5e3" x="179.410043" y="28.357271" style="fill-opacity: 0; stroke: #ff00ff; stroke-width: 1.5; stroke-linejoin: miter"/>
     <use xlink:href="#mfd1dc4e5e3" x="179.410043" y="27.648" style="fill-opacity: 0; stroke: #ff00ff; stroke-width: 1.5; stroke-linejoin: miter"/>
     <use xlink:href="#mfd1dc4e5e3" x="179.410043" y="27.648" style="fill-opacity: 0; stroke: #ff00ff; stroke-width: 1.5; stroke-linejoin: miter"/>
     <use xlink:href="#mfd1dc4e5e3" x="360.8064" y="27.648" style="fill-opacity: 0; stroke: #ff00ff; stroke-width: 1.5; stroke-linejoin: miter"/>
    </g>
   </g>
   <g id="line2d_42">
    <path style="fill: none; stroke: #ff00ff; stroke-width: 1.5; stroke-linecap: square"/>
    <g/>
   </g>
   <g id="line2d_43">
    <path d="M 360.8064 27.648 
L 380.514816 293.51808 
" style="fill: none; stroke: #000080; stroke-width: 1.5; stroke-linecap: square"/>
    <g>
     <use xlink:href="#m124327ca3d" x="360.8064" y="27.648" style="fill-opacity: 0; stroke: #000080; stroke-width: 1.5"/>
     <use xlink:href="#m124327ca3d" x="380.514816" y="293.51808" style="fill-opacity: 0; stroke: #000080; stroke-width: 1.5"/>
    </g>
   </g>
   <g id="line2d_44">
    <path d="M 360.8064 27.648 
L 380.514816 163.296 
" style="fill: none; stroke: #ff00ff; stroke-width: 1.5; stroke-linecap: square"/>
    <g>
     <use xlink:href="#mfd1dc4e5e3" x="360.8064" y="27.648" style="fill-opacity: 0; stroke: #ff00ff; stroke-width: 1.5; stroke-linejoin: miter"/>
     <use xlink:href="#mfd1dc4e5e3" x="380.514816" y="163.296" style="fill-opacity: 0; stroke: #ff00ff; stroke-width: 1.5; stroke-linejoin: miter"/>
    </g>
   </g>
   <g id="line2d_45">
    <path d="M 360.8064 298.944 
L 360.8064 27.648 
" style="fill: none; stroke: #000000; stroke-width: 1.5; stroke-linecap: square"/>
   </g>
   <g id="patch_3">
    <path d="M 57.6 298.944 
L 360.8064 298.944 
" style="fill: none; stroke: #000000; stroke-width: 0.8; stroke-linejoin: miter; stroke-linecap: square"/>
   </g>
   <g id="patch_4">
    <path d="M 57.6 27.648 
L 360.8064 27.648 
" style="fill: none; stroke: #000000; stroke-width: 0.8; stroke-linejoin: miter; stroke-linecap: square"/>
   </g>
   <g id="text_13">
    <!-- ex -->
    <g transform="translate(386.578944 297.381205)scale(0.14 -0.14)">
     <defs>
      <path id="DejaVuSans-78" d="M 3513 3500 
L 2247 1797 
L 3578 0 
L 2900 0 
L 1881 1375 
L 863 0 
L 184 0 
L 1544 1831 
L 300 3500 
L 978 3500 
L 1906 2253 
L 2834 3500 
L 3513 3500 
z
" transform="scale(0.015625)"/>
     </defs>
     <use xlink:href="#DejaVuSans-65"/>
     <use xlink:href="#DejaVuSans-78" x="59.773438"/>
    </g>
   </g>
   <g id="text_14">
    <!-- CMA-ES-20 -->
    <g transform="translate(386.578944 167.159125)scale(0.14 -0.14)">
     <defs>
      <path id="DejaVuSans-43" d="M 4122 4306 
L 4122 3641 
Q 3803 3938 3442 4084 
Q 3081 4231 2675 4231 
Q 1875 4231 1450 3742 
Q 1025 3253 1025 2328 
Q 1025 1406 1450 917 
Q 1875 428 2675 428 
Q 3081 428 3442 575 
Q 3803 722 4122 1019 
L 4122 359 
Q 3791 134 3420 21 
Q 3050 -91 2638 -91 
Q 1578 -91 968 557 
Q 359 1206 359 2328 
Q 359 3453 968 4101 
Q 1578 4750 2638 4750 
Q 3056 4750 3426 4639 
Q 3797 4528 4122 4306 
z
" transform="scale(0.015625)"/>
      <path id="DejaVuSans-4d" d="M 628 4666 
L 1569 4666 
L 2759 1491 
L 3956 4666 
L 4897 4666 
L 4897 0 
L 4281 0 
L 4281 4097 
L 3078 897 
L 2444 897 
L 1241 4097 
L 1241 0 
L 628 0 
L 628 4666 
z
" transform="scale(0.015625)"/>
      <path id="DejaVuSans-41" d="M 2188 4044 
L 1331 1722 
L 3047 1722 
L 2188 4044 
z
M 1831 4666 
L 2547 4666 
L 4325 0 
L 3669 0 
L 3244 1197 
L 1141 1197 
L 716 0 
L 50 0 
L 1831 4666 
z
" transform="scale(0.015625)"/>
      <path id="DejaVuSans-45" d="M 628 4666 
L 3578 4666 
L 3578 4134 
L 1259 4134 
L 1259 2753 
L 3481 2753 
L 3481 2222 
L 1259 2222 
L 1259 531 
L 3634 531 
L 3634 0 
L 628 0 
L 628 4666 
z
" transform="scale(0.015625)"/>
      <path id="DejaVuSans-53" d="M 3425 4513 
L 3425 3897 
Q 3066 4069 2747 4153 
Q 2428 4238 2131 4238 
Q 1616 4238 1336 4038 
Q 1056 3838 1056 3469 
Q 1056 3159 1242 3001 
Q 1428 2844 1947 2747 
L 2328 2669 
Q 3034 2534 3370 2195 
Q 3706 1856 3706 1288 
Q 3706 609 3251 259 
Q 2797 -91 1919 -91 
Q 1588 -91 1214 -16 
Q 841 59 441 206 
L 441 856 
Q 825 641 1194 531 
Q 1563 422 1919 422 
Q 2459 422 2753 634 
Q 3047 847 3047 1241 
Q 3047 1584 2836 1778 
Q 2625 1972 2144 2069 
L 1759 2144 
Q 1053 2284 737 2584 
Q 422 2884 422 3419 
Q 422 4038 858 4394 
Q 1294 4750 2059 4750 
Q 2388 4750 2728 4690 
Q 3069 4631 3425 4513 
z
" transform="scale(0.015625)"/>
     </defs>
     <use xlink:href="#DejaVuSans-43"/>
     <use xlink:href="#DejaVuSans-4d" x="69.824219"/>
     <use xlink:href="#DejaVuSans-41" x="156.103516"/>
     <use xlink:href="#DejaVuSans-2d" x="222.261719"/>
     <use xlink:href="#DejaVuSans-45" x="258.345703"/>
     <use xlink:href="#DejaVuSans-53" x="321.529297"/>
     <use xlink:href="#DejaVuSans-2d" x="385.005859"/>
     <use xlink:href="#DejaVuSans-32" x="421.089844"/>
     <use xlink:href="#DejaVuSans-30" x="484.712891"/>
    </g>
   </g>
   <g id="text_15">
    <!-- best 2009 -->
    <g transform="translate(386.578944 36.937045)scale(0.14 -0.14)">
     <defs>
      <path id="DejaVuSans-62" d="M 3116 1747 
Q 3116 2381 2855 2742 
Q 2594 3103 2138 3103 
Q 1681 3103 1420 2742 
Q 1159 2381 1159 1747 
Q 1159 1113 1420 752 
Q 1681 391 2138 391 
Q 2594 391 2855 752 
Q 3116 1113 3116 1747 
z
M 1159 2969 
Q 1341 3281 1617 3432 
Q 1894 3584 2278 3584 
Q 2916 3584 3314 3078 
Q 3713 2572 3713 1747 
Q 3713 922 3314 415 
Q 2916 -91 2278 -91 
Q 1894 -91 1617 61 
Q 1341 213 1159 525 
L 1159 0 
L 581 0 
L 581 4863 
L 1159 4863 
L 1159 2969 
z
" transform="scale(0.015625)"/>
      <path id="DejaVuSans-39" d="M 703 97 
L 703 672 
Q 941 559 1184 500 
Q 1428 441 1663 441 
Q 2288 441 2617 861 
Q 2947 1281 2994 2138 
Q 2813 1869 2534 1725 
Q 2256 1581 1919 1581 
Q 1219 1581 811 2004 
Q 403 2428 403 3163 
Q 403 3881 828 4315 
Q 1253 4750 1959 4750 
Q 2769 4750 3195 4129 
Q 3622 3509 3622 2328 
Q 3622 1225 3098 567 
Q 2575 -91 1691 -91 
Q 1453 -91 1209 -44 
Q 966 3 703 97 
z
M 1959 2075 
Q 2384 2075 2632 2365 
Q 2881 2656 2881 3163 
Q 2881 3666 2632 3958 
Q 2384 4250 1959 4250 
Q 1534 4250 1286 3958 
Q 1038 3666 1038 3163 
Q 1038 2656 1286 2365 
Q 1534 2075 1959 2075 
z
" transform="scale(0.015625)"/>
     </defs>
     <use xlink:href="#DejaVuSans-62"/>
     <use xlink:href="#DejaVuSans-65" x="63.476562"/>
     <use xlink:href="#DejaVuSans-73" x="125"/>
     <use xlink:href="#DejaVuSans-74" x="177.099609"/>
     <use xlink:href="#DejaVuSans-20" x="216.308594"/>
     <use xlink:href="#DejaVuSans-32" x="248.095703"/>
     <use xlink:href="#DejaVuSans-30" x="311.71875"/>
     <use xlink:href="#DejaVuSans-30" x="375.341797"/>
     <use xlink:href="#DejaVuSans-39" x="438.964844"/>
    </g>
   </g>
   <g id="text_16">
    <!-- bbob f7, 10-D -->
    <g transform="translate(60.632064 38.111366)scale(0.102 -0.102)">
     <defs>
      <path id="DejaVuSans-37" d="M 525 4666 
L 3525 4666 
L 3525 4397 
L 1831 0 
L 1172 0 
L 2766 4134 
L 525 4134 
L 525 4666 
z
" transform="scale(0.015625)"/>
      <path id="DejaVuSans-44" d="M 1259 4147 
L 1259 519 
L 2022 519 
Q 2988 519 3436 956 
Q 3884 1394 3884 2338 
Q 3884 3275 3436 3711 
Q 2988 4147 2022 4147 
L 1259 4147 
z
M 628 4666 
L 1925 4666 
Q 3281 4666 3915 4102 
Q 4550 3538 4550 2338 
Q 4550 1131 3912 565 
Q 3275 0 1925 0 
L 628 0 
L 628 4666 
z
" transform="scale(0.015625)"/>
     </defs>
     <use xlink:href="#DejaVuSans-62"/>
     <use xlink:href="#DejaVuSans-62" x="63.476562"/>
     <use xlink:href="#DejaVuSans-6f" x="126.953125"/>
     <use xlink:href="#DejaVuSans-62" x="188.134766"/>
     <use xlink:href="#DejaVuSans-20" x="251.611328"/>
     <use xlink:href="#DejaVuSans-66" x="283.398438"/>
     <use xlink:href="#DejaVuSans-37" x="318.603516"/>
     <use xlink:href="#DejaVuSans-2c" x="382.226562"/>
     <use xlink:href="#DejaVuSans-20" x="414.013672"/>
     <use xlink:href="#DejaVuSans-31" x="445.800781"/>
     <use xlink:href="#DejaVuSans-30" x="509.423828"/>
     <use xlink:href="#DejaVuSans-2d" x="573.046875"/>
     <use xlink:href="#DejaVuSans-44" x="609.130859"/>
    </g>
    <!-- 51 targets: 100..1e-08 -->
    <g transform="translate(60.632064 49.533135)scale(0.102 -0.102)">
     <defs>
      <path id="DejaVuSans-35" d="M 691 4666 
L 3169 4666 
L 3169 4134 
L 1269 4134 
L 1269 2991 
Q 1406 3038 1543 3061 
Q 1681 3084 1819 3084 
Q 2600 3084 3056 2656 
Q 3513 2228 3513 1497 
Q 3513 744 3044 326 
Q 2575 -91 1722 -91 
Q 1428 -91 1123 -41 
Q 819 9 494 109 
L 494 744 
Q 775 591 1075 516 
Q 1375 441 1709 441 
Q 2250 441 2565 725 
Q 2881 1009 2881 1497 
Q 2881 1984 2565 2268 
Q 2250 2553 1709 2553 
Q 1456 2553 1204 2497 
Q 953 2441 691 2322 
L 691 4666 
z
" transform="scale(0.015625)"/>
      <path id="DejaVuSans-3a" d="M 750 794 
L 1409 794 
L 1409 0 
L 750 0 
L 750 794 
z
M 750 3309 
L 1409 3309 
L 1409 2516 
L 750 2516 
L 750 3309 
z
" transform="scale(0.015625)"/>
     </defs>
     <use xlink:href="#DejaVuSans-35"/>
     <use xlink:href="#DejaVuSans-31" x="63.623047"/>
     <use xlink:href="#DejaVuSans-20" x="127.246094"/>
     <use xlink:href="#DejaVuSans-74" x="159.033203"/>
     <use xlink:href="#DejaVuSans-61" x="198.242188"/>
     <use xlink:href="#DejaVuSans-72" x="259.521484"/>
     <use xlink:href="#DejaVuSans-67" x="298.884766"/>
     <use xlink:href="#DejaVuSans-65" x="362.361328"/>
     <use xlink:href="#DejaVuSans-74" x="423.884766"/>
     <use xlink:href="#DejaVuSans-73" x="463.09375"/>
     <use xlink:href="#DejaVuSans-3a" x="515.193359"/>
     <use xlink:href="#DejaVuSans-20" x="548.884766"/>
     <use xlink:href="#DejaVuSans-31" x="580.671875"/>
     <use xlink:href="#DejaVuSans-30" x="644.294922"/>
     <use xlink:href="#DejaVuSans-30" x="707.917969"/>
     <use xlink:href="#DejaVuSans-2e" x="771.541016"/>
     <use xlink:href="#DejaVuSans-2e" x="803.328125"/>
     <use xlink:href="#DejaVuSans-31" x="835.115234"/>
     <use xlink:href="#DejaVuSans-65" x="898.738281"/>
     <use xlink:href="#DejaVuSans-2d" x="960.261719"/>
     <use xlink:href="#DejaVuSans-30" x="996.345703"/>
     <use xlink:href="#DejaVuSans-38" x="1059.96875"/>
    </g>
    <!-- 25, 15 instances -->
    <g transform="translate(60.632064 60.954904)scale(0.102 -0.102)">
     <use xlink:href="#DejaVuSans-32"/>
     <use xlink:href="#DejaVuSans-35" x="63.623047"/>
     <use xlink:href="#DejaVuSans-2c" x="127.246094"/>
     <use xlink:href="#DejaVuSans-20" x="159.033203"/>
     <use xlink:href="#DejaVuSans-31" x="190.820312"/>
     <use xlink:href="#DejaVuSans-35" x="254.443359"/>
     <use xlink:href="#DejaVuSans-20" x="318.066406"/>
     <use xlink:href="#DejaVuSans-69" x="349.853516"/>
     <use xlink:href="#DejaVuSans-6e" x="377.636719"/>
     <use xlink:href="#DejaVuSans-73" x="441.015625"/>
     <use xlink:href="#DejaVuSans-74" x="493.115234"/>
     <use xlink:href="#DejaVuSans-61" x="532.324219"/>
     <use xlink:href="#DejaVuSans-6e" x="593.603516"/>
     <use xlink:href="#DejaVuSans-63" x="656.982422"/>
     <use xlink:href="#DejaVuSans-65" x="711.962891"/>
     <use xlink:href="#DejaVuSans-73" x="773.486328"/>
    </g>
   </g>
   <g id="text_17">
    <!-- v2.6 -->
    <g style="fill: #808080" transform="translate(198.292262 294.151352)scale(0.1 -0.1)">
     <use xlink:href="#DejaVuSans-76"/>
     <use xlink:href="#DejaVuSans-32" x="59.179688"/>
     <use xlink:href="#DejaVuSans-2e" x="122.802734"/>
     <use xlink:href="#DejaVuSans-36" x="154.589844"/>
    </g>
   </g>
   <g id="text_18">
    <!-- 7 Step-ellipsoid -->
    <g transform="translate(131.993825 21.648)scale(0.2 -0.2)">
     <use xlink:href="#DejaVuSans-37"/>
     <use xlink:href="#DejaVuSans-20" x="63.623047"/>
     <use xlink:href="#DejaVuSans-53" x="95.410156"/>
     <use xlink:href="#DejaVuSans-74" x="158.886719"/>
     <use xlink:href="#DejaVuSans-65" x="198.095703"/>
     <use xlink:href="#DejaVuSans-70" x="259.619141"/>
     <use xlink:href="#DejaVuSans-2d" x="323.095703"/>
     <use xlink:href="#DejaVuSans-65" x="359.179688"/>
     <use xlink:href="#DejaVuSans-6c" x="420.703125"/>
     <use xlink:href="#DejaVuSans-6c" x="448.486328"/>
     <use xlink:href="#DejaVuSans-69" x="476.269531"/>
     <use xlink:href="#DejaVuSans-70" x="504.052734"/>
     <use xlink:href="#DejaVuSans-73" x="567.529297"/>
     <use xlink:href="#DejaVuSans-6f" x="619.628906"/>
     <use xlink:href="#DejaVuSans-69" x="680.810547"/>
     <use xlink:href="#DejaVuSans-64" x="708.59375"/>
    </g>
   </g>
  </g>
 </g>
 <defs>
  <clipPath id="p46126a0a57">
   <rect x="57.6" y="27.648" width="303.2064" height="271.296"/>
  </clipPath>
 </defs>
</svg>
