<?xml version="1.0" encoding="utf-8" standalone="no"?>
<!DOCTYPE svg PUBLIC "-//W3C//DTD SVG 1.1//EN"
  "http://www.w3.org/Graphics/SVG/1.1/DTD/svg11.dtd">
<svg xmlns:xlink="http://www.w3.org/1999/xlink" width="460.8pt" height="345.6pt" viewBox="0 0 460.8 345.6" xmlns="http://www.w3.org/2000/svg" version="1.1">
 <metadata>
  <rdf:RDF xmlns:dc="http://purl.org/dc/elements/1.1/" xmlns:cc="http://creativecommons.org/ns#" xmlns:rdf="http://www.w3.org/1999/02/22-rdf-syntax-ns#">
   <cc:Work>
    <dc:type rdf:resource="http://purl.org/dc/dcmitype/StillImage"/>
    <dc:date>2022-03-16T23:35:04.779980</dc:date>
    <dc:format>image/svg+xml</dc:format>
    <dc:creator>
     <cc:Agent>
      <dc:title>Matplotlib v3.5.1, https://matplotlib.org/</dc:title>
     </cc:Agent>
    </dc:creator>
   </cc:Work>
  </rdf:RDF>
 </metadata>
 <defs>
  <style type="text/css">*{stroke-linejoin: round; stroke-linecap: butt}</style>
 </defs>
 <g id="figure_1">
  <g id="patch_1">
   <path d="M 0 345.6 
L 460.8 345.6 
L 460.8 0 
L 0 0 
z
" style="fill: #ffffff"/>
  </g>
  <g id="axes_1">
   <g id="patch_2">
    <path d="M 57.6 298.944 
L 360.8064 298.944 
L 360.8064 27.648 
L 57.6 27.648 
z
" style="fill: #ffffff"/>
   </g>
   <g id="line2d_1">
    <path d="M 61.029752 298.944 
L 61.029752 293.624471 
L 72.432107 293.624471 
L 72.432107 288.304941 
L 78.266603 288.304941 
L 78.266603 282.985412 
L 83.678349 282.985412 
L 83.678349 277.665882 
L 87.1081 277.665882 
L 87.1081 267.026824 
L 88.613828 267.026824 
L 88.613828 261.707294 
L 102.362957 261.707294 
L 102.362957 256.387765 
L 119.319033 256.387765 
L 119.319033 251.068235 
L 126.993549 251.068235 
L 126.993549 245.748706 
L 136.068734 245.748706 
L 136.068734 240.429176 
L 139.117256 240.429176 
L 139.117256 235.109647 
L 140.860749 235.109647 
L 140.860749 229.790118 
L 158.0976 229.790118 
L 158.0976 224.470588 
L 158.595008 224.470588 
L 158.595008 219.151059 
L 160.23913 219.151059 
L 160.23913 213.831529 
L 160.636516 213.831529 
L 160.636516 208.512 
L 161.071844 208.512 
L 161.071844 203.192471 
L 161.721364 203.192471 
L 161.721364 197.872941 
L 163.150415 197.872941 
L 163.150415 192.553412 
L 164.272231 192.553412 
L 164.272231 187.233882 
L 165.35539 187.233882 
L 165.35539 181.914353 
L 165.670946 181.914353 
L 165.670946 176.594824 
L 165.778956 176.594824 
L 165.778956 75.523765 
L 165.802874 75.523765 
L 165.802874 70.204235 
L 165.933882 70.204235 
L 165.933882 64.884706 
L 165.981296 64.884706 
L 165.981296 59.565176 
L 166.075768 59.565176 
L 166.075768 54.245647 
L 166.47206 54.245647 
L 166.47206 48.926118 
L 167.062453 48.926118 
L 167.062453 43.606588 
L 167.251516 43.606588 
L 167.251516 38.287059 
L 167.383837 38.287059 
L 167.383837 32.967529 
L 167.667378 32.967529 
L 167.667378 27.648 
L 360.8064 27.648 
" style="fill: none; stroke: #f5deb3; stroke-width: 4; stroke-linecap: square"/>
   </g>
   <g id="line2d_2">
    <defs>
     <path id="m18857200cf" d="M -0 7.778175 
L 7.778175 0 
L 0 -7.778175 
L -7.778175 -0 
z
" style="stroke: #f5deb3; stroke-width: 1.5; stroke-linejoin: miter"/>
    </defs>
    <g>
     <use xlink:href="#m18857200cf" x="88.613828" y="261.707294" style="fill: #f5deb3; stroke: #f5deb3; stroke-width: 1.5; stroke-linejoin: miter"/>
     <use xlink:href="#m18857200cf" x="165.670946" y="176.594824" style="fill: #f5deb3; stroke: #f5deb3; stroke-width: 1.5; stroke-linejoin: miter"/>
     <use xlink:href="#m18857200cf" x="167.667378" y="32.967529" style="fill: #f5deb3; stroke: #f5deb3; stroke-width: 1.5; stroke-linejoin: miter"/>
     <use xlink:href="#m18857200cf" x="167.667378" y="27.648" style="fill: #f5deb3; stroke: #f5deb3; stroke-width: 1.5; stroke-linejoin: miter"/>
     <use xlink:href="#m18857200cf" x="360.8064" y="27.648" style="fill: #f5deb3; stroke: #f5deb3; stroke-width: 1.5; stroke-linejoin: miter"/>
    </g>
   </g>
   <g id="line2d_3">
    <path style="fill: none; stroke: #f5deb3; stroke-width: 4; stroke-linecap: square"/>
    <g/>
   </g>
   <g id="line2d_4">
    <path d="M 360.8064 27.648 
L 380.514816 33.07392 
" style="fill: none; stroke: #f5deb3; stroke-width: 4; stroke-linecap: square"/>
    <g>
     <use xlink:href="#m18857200cf" x="360.8064" y="27.648" style="fill: #f5deb3; stroke: #f5deb3; stroke-width: 1.5; stroke-linejoin: miter"/>
     <use xlink:href="#m18857200cf" x="380.514816" y="33.07392" style="fill: #f5deb3; stroke: #f5deb3; stroke-width: 1.5; stroke-linejoin: miter"/>
    </g>
   </g>
   <g id="matplotlib.axis_1">
    <g id="xtick_1">
     <g id="line2d_5">
      <path d="M 57.6 298.944 
L 57.6 27.648 
" clip-path="url(#p9e68bd0211)" style="fill: none; stroke: #b0b0b0; stroke-width: 0.8; stroke-linecap: square"/>
     </g>
     <g id="line2d_6">
      <defs>
       <path id="m8a15361284" d="M 0 0 
L 0 3.5 
" style="stroke: #000000; stroke-width: 0.8"/>
      </defs>
      <g>
       <use xlink:href="#m8a15361284" x="57.6" y="298.944" style="stroke: #000000; stroke-width: 0.8"/>
      </g>
     </g>
     <g id="text_1">
      <!-- 0 -->
      <g transform="translate(52.191875 318.861344)scale(0.17 -0.17)">
       <defs>
        <path id="DejaVuSans-30" d="M 2034 4250 
Q 1547 4250 1301 3770 
Q 1056 3291 1056 2328 
Q 1056 1369 1301 889 
Q 1547 409 2034 409 
Q 2525 409 2770 889 
Q 3016 1369 3016 2328 
Q 3016 3291 2770 3770 
Q 2525 4250 2034 4250 
z
M 2034 4750 
Q 2819 4750 3233 4129 
Q 3647 3509 3647 2328 
Q 3647 1150 3233 529 
Q 2819 -91 2034 -91 
Q 1250 -91 836 529 
Q 422 1150 422 2328 
Q 422 3509 836 4129 
Q 1250 4750 2034 4750 
z
" transform="scale(0.015625)"/>
       </defs>
       <use xlink:href="#DejaVuSans-30"/>
      </g>
     </g>
    </g>
    <g id="xtick_2">
     <g id="line2d_7">
      <path d="M 144.2304 298.944 
L 144.2304 27.648 
" clip-path="url(#p9e68bd0211)" style="fill: none; stroke: #b0b0b0; stroke-width: 0.8; stroke-linecap: square"/>
     </g>
     <g id="line2d_8">
      <g>
       <use xlink:href="#m8a15361284" x="144.2304" y="298.944" style="stroke: #000000; stroke-width: 0.8"/>
      </g>
     </g>
     <g id="text_2">
      <!-- 2 -->
      <g transform="translate(138.822275 318.861344)scale(0.17 -0.17)">
       <defs>
        <path id="DejaVuSans-32" d="M 1228 531 
L 3431 531 
L 3431 0 
L 469 0 
L 469 531 
Q 828 903 1448 1529 
Q 2069 2156 2228 2338 
Q 2531 2678 2651 2914 
Q 2772 3150 2772 3378 
Q 2772 3750 2511 3984 
Q 2250 4219 1831 4219 
Q 1534 4219 1204 4116 
Q 875 4013 500 3803 
L 500 4441 
Q 881 4594 1212 4672 
Q 1544 4750 1819 4750 
Q 2544 4750 2975 4387 
Q 3406 4025 3406 3419 
Q 3406 3131 3298 2873 
Q 3191 2616 2906 2266 
Q 2828 2175 2409 1742 
Q 1991 1309 1228 531 
z
" transform="scale(0.015625)"/>
       </defs>
       <use xlink:href="#DejaVuSans-32"/>
      </g>
     </g>
    </g>
    <g id="xtick_3">
     <g id="line2d_9">
      <path d="M 230.8608 298.944 
L 230.8608 27.648 
" clip-path="url(#p9e68bd0211)" style="fill: none; stroke: #b0b0b0; stroke-width: 0.8; stroke-linecap: square"/>
     </g>
     <g id="line2d_10">
      <g>
       <use xlink:href="#m8a15361284" x="230.8608" y="298.944" style="stroke: #000000; stroke-width: 0.8"/>
      </g>
     </g>
     <g id="text_3">
      <!-- 4 -->
      <g transform="translate(225.452675 318.861344)scale(0.17 -0.17)">
       <defs>
        <path id="DejaVuSans-34" d="M 2419 4116 
L 825 1625 
L 2419 1625 
L 2419 4116 
z
M 2253 4666 
L 3047 4666 
L 3047 1625 
L 3713 1625 
L 3713 1100 
L 3047 1100 
L 3047 0 
L 2419 0 
L 2419 1100 
L 313 1100 
L 313 1709 
L 2253 4666 
z
" transform="scale(0.015625)"/>
       </defs>
       <use xlink:href="#DejaVuSans-34"/>
      </g>
     </g>
    </g>
    <g id="xtick_4">
     <g id="line2d_11">
      <path d="M 317.4912 298.944 
L 317.4912 27.648 
" clip-path="url(#p9e68bd0211)" style="fill: none; stroke: #b0b0b0; stroke-width: 0.8; stroke-linecap: square"/>
     </g>
     <g id="line2d_12">
      <g>
       <use xlink:href="#m8a15361284" x="317.4912" y="298.944" style="stroke: #000000; stroke-width: 0.8"/>
      </g>
     </g>
     <g id="text_4">
      <!-- 6 -->
      <g transform="translate(312.083075 318.861344)scale(0.17 -0.17)">
       <defs>
        <path id="DejaVuSans-36" d="M 2113 2584 
Q 1688 2584 1439 2293 
Q 1191 2003 1191 1497 
Q 1191 994 1439 701 
Q 1688 409 2113 409 
Q 2538 409 2786 701 
Q 3034 994 3034 1497 
Q 3034 2003 2786 2293 
Q 2538 2584 2113 2584 
z
M 3366 4563 
L 3366 3988 
Q 3128 4100 2886 4159 
Q 2644 4219 2406 4219 
Q 1781 4219 1451 3797 
Q 1122 3375 1075 2522 
Q 1259 2794 1537 2939 
Q 1816 3084 2150 3084 
Q 2853 3084 3261 2657 
Q 3669 2231 3669 1497 
Q 3669 778 3244 343 
Q 2819 -91 2113 -91 
Q 1303 -91 875 529 
Q 447 1150 447 2328 
Q 447 3434 972 4092 
Q 1497 4750 2381 4750 
Q 2619 4750 2861 4703 
Q 3103 4656 3366 4563 
z
" transform="scale(0.015625)"/>
       </defs>
       <use xlink:href="#DejaVuSans-36"/>
      </g>
     </g>
    </g>
    <g id="xtick_5">
     <g id="line2d_13">
      <path d="M 100.9152 298.944 
L 100.9152 27.648 
" clip-path="url(#p9e68bd0211)" style="fill: none; stroke: #b0b0b0; stroke-width: 0.8; stroke-linecap: square"/>
     </g>
     <g id="line2d_14">
      <defs>
       <path id="mc45b6d39a8" d="M 0 0 
L 0 2 
" style="stroke: #000000; stroke-width: 0.6"/>
      </defs>
      <g>
       <use xlink:href="#mc45b6d39a8" x="100.9152" y="298.944" style="stroke: #000000; stroke-width: 0.6"/>
      </g>
     </g>
    </g>
    <g id="xtick_6">
     <g id="line2d_15">
      <path d="M 187.5456 298.944 
L 187.5456 27.648 
" clip-path="url(#p9e68bd0211)" style="fill: none; stroke: #b0b0b0; stroke-width: 0.8; stroke-linecap: square"/>
     </g>
     <g id="line2d_16">
      <g>
       <use xlink:href="#mc45b6d39a8" x="187.5456" y="298.944" style="stroke: #000000; stroke-width: 0.6"/>
      </g>
     </g>
    </g>
    <g id="xtick_7">
     <g id="line2d_17">
      <path d="M 274.176 298.944 
L 274.176 27.648 
" clip-path="url(#p9e68bd0211)" style="fill: none; stroke: #b0b0b0; stroke-width: 0.8; stroke-linecap: square"/>
     </g>
     <g id="line2d_18">
      <g>
       <use xlink:href="#mc45b6d39a8" x="274.176" y="298.944" style="stroke: #000000; stroke-width: 0.6"/>
      </g>
     </g>
    </g>
    <g id="xtick_8">
     <g id="line2d_19">
      <path d="M 360.8064 298.944 
L 360.8064 27.648 
" clip-path="url(#p9e68bd0211)" style="fill: none; stroke: #b0b0b0; stroke-width: 0.8; stroke-linecap: square"/>
     </g>
     <g id="line2d_20">
      <g>
       <use xlink:href="#mc45b6d39a8" x="360.8064" y="298.944" style="stroke: #000000; stroke-width: 0.6"/>
      </g>
     </g>
    </g>
    <g id="text_5">
     <!-- log10(# f-evals / dimension) -->
     <g transform="translate(88.823278 339.314156)scale(0.17 -0.17)">
      <defs>
       <path id="DejaVuSans-6c" d="M 603 4863 
L 1178 4863 
L 1178 0 
L 603 0 
L 603 4863 
z
" transform="scale(0.015625)"/>
       <path id="DejaVuSans-6f" d="M 1959 3097 
Q 1497 3097 1228 2736 
Q 959 2375 959 1747 
Q 959 1119 1226 758 
Q 1494 397 1959 397 
Q 2419 397 2687 759 
Q 2956 1122 2956 1747 
Q 2956 2369 2687 2733 
Q 2419 3097 1959 3097 
z
M 1959 3584 
Q 2709 3584 3137 3096 
Q 3566 2609 3566 1747 
Q 3566 888 3137 398 
Q 2709 -91 1959 -91 
Q 1206 -91 779 398 
Q 353 888 353 1747 
Q 353 2609 779 3096 
Q 1206 3584 1959 3584 
z
" transform="scale(0.015625)"/>
       <path id="DejaVuSans-67" d="M 2906 1791 
Q 2906 2416 2648 2759 
Q 2391 3103 1925 3103 
Q 1463 3103 1205 2759 
Q 947 2416 947 1791 
Q 947 1169 1205 825 
Q 1463 481 1925 481 
Q 2391 481 2648 825 
Q 2906 1169 2906 1791 
z
M 3481 434 
Q 3481 -459 3084 -895 
Q 2688 -1331 1869 -1331 
Q 1566 -1331 1297 -1286 
Q 1028 -1241 775 -1147 
L 775 -588 
Q 1028 -725 1275 -790 
Q 1522 -856 1778 -856 
Q 2344 -856 2625 -561 
Q 2906 -266 2906 331 
L 2906 616 
Q 2728 306 2450 153 
Q 2172 0 1784 0 
Q 1141 0 747 490 
Q 353 981 353 1791 
Q 353 2603 747 3093 
Q 1141 3584 1784 3584 
Q 2172 3584 2450 3431 
Q 2728 3278 2906 2969 
L 2906 3500 
L 3481 3500 
L 3481 434 
z
" transform="scale(0.015625)"/>
       <path id="DejaVuSans-31" d="M 794 531 
L 1825 531 
L 1825 4091 
L 703 3866 
L 703 4441 
L 1819 4666 
L 2450 4666 
L 2450 531 
L 3481 531 
L 3481 0 
L 794 0 
L 794 531 
z
" transform="scale(0.015625)"/>
       <path id="DejaVuSans-28" d="M 1984 4856 
Q 1566 4138 1362 3434 
Q 1159 2731 1159 2009 
Q 1159 1288 1364 580 
Q 1569 -128 1984 -844 
L 1484 -844 
Q 1016 -109 783 600 
Q 550 1309 550 2009 
Q 550 2706 781 3412 
Q 1013 4119 1484 4856 
L 1984 4856 
z
" transform="scale(0.015625)"/>
       <path id="DejaVuSans-23" d="M 3272 2816 
L 2363 2816 
L 2100 1772 
L 3016 1772 
L 3272 2816 
z
M 2803 4594 
L 2478 3297 
L 3391 3297 
L 3719 4594 
L 4219 4594 
L 3897 3297 
L 4872 3297 
L 4872 2816 
L 3775 2816 
L 3519 1772 
L 4513 1772 
L 4513 1294 
L 3397 1294 
L 3072 0 
L 2572 0 
L 2894 1294 
L 1978 1294 
L 1656 0 
L 1153 0 
L 1478 1294 
L 494 1294 
L 494 1772 
L 1594 1772 
L 1856 2816 
L 850 2816 
L 850 3297 
L 1978 3297 
L 2297 4594 
L 2803 4594 
z
" transform="scale(0.015625)"/>
       <path id="DejaVuSans-20" transform="scale(0.015625)"/>
       <path id="DejaVuSans-66" d="M 2375 4863 
L 2375 4384 
L 1825 4384 
Q 1516 4384 1395 4259 
Q 1275 4134 1275 3809 
L 1275 3500 
L 2222 3500 
L 2222 3053 
L 1275 3053 
L 1275 0 
L 697 0 
L 697 3053 
L 147 3053 
L 147 3500 
L 697 3500 
L 697 3744 
Q 697 4328 969 4595 
Q 1241 4863 1831 4863 
L 2375 4863 
z
" transform="scale(0.015625)"/>
       <path id="DejaVuSans-2d" d="M 313 2009 
L 1997 2009 
L 1997 1497 
L 313 1497 
L 313 2009 
z
" transform="scale(0.015625)"/>
       <path id="DejaVuSans-65" d="M 3597 1894 
L 3597 1613 
L 953 1613 
Q 991 1019 1311 708 
Q 1631 397 2203 397 
Q 2534 397 2845 478 
Q 3156 559 3463 722 
L 3463 178 
Q 3153 47 2828 -22 
Q 2503 -91 2169 -91 
Q 1331 -91 842 396 
Q 353 884 353 1716 
Q 353 2575 817 3079 
Q 1281 3584 2069 3584 
Q 2775 3584 3186 3129 
Q 3597 2675 3597 1894 
z
M 3022 2063 
Q 3016 2534 2758 2815 
Q 2500 3097 2075 3097 
Q 1594 3097 1305 2825 
Q 1016 2553 972 2059 
L 3022 2063 
z
" transform="scale(0.015625)"/>
       <path id="DejaVuSans-76" d="M 191 3500 
L 800 3500 
L 1894 563 
L 2988 3500 
L 3597 3500 
L 2284 0 
L 1503 0 
L 191 3500 
z
" transform="scale(0.015625)"/>
       <path id="DejaVuSans-61" d="M 2194 1759 
Q 1497 1759 1228 1600 
Q 959 1441 959 1056 
Q 959 750 1161 570 
Q 1363 391 1709 391 
Q 2188 391 2477 730 
Q 2766 1069 2766 1631 
L 2766 1759 
L 2194 1759 
z
M 3341 1997 
L 3341 0 
L 2766 0 
L 2766 531 
Q 2569 213 2275 61 
Q 1981 -91 1556 -91 
Q 1019 -91 701 211 
Q 384 513 384 1019 
Q 384 1609 779 1909 
Q 1175 2209 1959 2209 
L 2766 2209 
L 2766 2266 
Q 2766 2663 2505 2880 
Q 2244 3097 1772 3097 
Q 1472 3097 1187 3025 
Q 903 2953 641 2809 
L 641 3341 
Q 956 3463 1253 3523 
Q 1550 3584 1831 3584 
Q 2591 3584 2966 3190 
Q 3341 2797 3341 1997 
z
" transform="scale(0.015625)"/>
       <path id="DejaVuSans-73" d="M 2834 3397 
L 2834 2853 
Q 2591 2978 2328 3040 
Q 2066 3103 1784 3103 
Q 1356 3103 1142 2972 
Q 928 2841 928 2578 
Q 928 2378 1081 2264 
Q 1234 2150 1697 2047 
L 1894 2003 
Q 2506 1872 2764 1633 
Q 3022 1394 3022 966 
Q 3022 478 2636 193 
Q 2250 -91 1575 -91 
Q 1294 -91 989 -36 
Q 684 19 347 128 
L 347 722 
Q 666 556 975 473 
Q 1284 391 1588 391 
Q 1994 391 2212 530 
Q 2431 669 2431 922 
Q 2431 1156 2273 1281 
Q 2116 1406 1581 1522 
L 1381 1569 
Q 847 1681 609 1914 
Q 372 2147 372 2553 
Q 372 3047 722 3315 
Q 1072 3584 1716 3584 
Q 2034 3584 2315 3537 
Q 2597 3491 2834 3397 
z
" transform="scale(0.015625)"/>
       <path id="DejaVuSans-2f" d="M 1625 4666 
L 2156 4666 
L 531 -594 
L 0 -594 
L 1625 4666 
z
" transform="scale(0.015625)"/>
       <path id="DejaVuSans-64" d="M 2906 2969 
L 2906 4863 
L 3481 4863 
L 3481 0 
L 2906 0 
L 2906 525 
Q 2725 213 2448 61 
Q 2172 -91 1784 -91 
Q 1150 -91 751 415 
Q 353 922 353 1747 
Q 353 2572 751 3078 
Q 1150 3584 1784 3584 
Q 2172 3584 2448 3432 
Q 2725 3281 2906 2969 
z
M 947 1747 
Q 947 1113 1208 752 
Q 1469 391 1925 391 
Q 2381 391 2643 752 
Q 2906 1113 2906 1747 
Q 2906 2381 2643 2742 
Q 2381 3103 1925 3103 
Q 1469 3103 1208 2742 
Q 947 2381 947 1747 
z
" transform="scale(0.015625)"/>
       <path id="DejaVuSans-69" d="M 603 3500 
L 1178 3500 
L 1178 0 
L 603 0 
L 603 3500 
z
M 603 4863 
L 1178 4863 
L 1178 4134 
L 603 4134 
L 603 4863 
z
" transform="scale(0.015625)"/>
       <path id="DejaVuSans-6d" d="M 3328 2828 
Q 3544 3216 3844 3400 
Q 4144 3584 4550 3584 
Q 5097 3584 5394 3201 
Q 5691 2819 5691 2113 
L 5691 0 
L 5113 0 
L 5113 2094 
Q 5113 2597 4934 2840 
Q 4756 3084 4391 3084 
Q 3944 3084 3684 2787 
Q 3425 2491 3425 1978 
L 3425 0 
L 2847 0 
L 2847 2094 
Q 2847 2600 2669 2842 
Q 2491 3084 2119 3084 
Q 1678 3084 1418 2786 
Q 1159 2488 1159 1978 
L 1159 0 
L 581 0 
L 581 3500 
L 1159 3500 
L 1159 2956 
Q 1356 3278 1631 3431 
Q 1906 3584 2284 3584 
Q 2666 3584 2933 3390 
Q 3200 3197 3328 2828 
z
" transform="scale(0.015625)"/>
       <path id="DejaVuSans-6e" d="M 3513 2113 
L 3513 0 
L 2938 0 
L 2938 2094 
Q 2938 2591 2744 2837 
Q 2550 3084 2163 3084 
Q 1697 3084 1428 2787 
Q 1159 2491 1159 1978 
L 1159 0 
L 581 0 
L 581 3500 
L 1159 3500 
L 1159 2956 
Q 1366 3272 1645 3428 
Q 1925 3584 2291 3584 
Q 2894 3584 3203 3211 
Q 3513 2838 3513 2113 
z
" transform="scale(0.015625)"/>
       <path id="DejaVuSans-29" d="M 513 4856 
L 1013 4856 
Q 1481 4119 1714 3412 
Q 1947 2706 1947 2009 
Q 1947 1309 1714 600 
Q 1481 -109 1013 -844 
L 513 -844 
Q 928 -128 1133 580 
Q 1338 1288 1338 2009 
Q 1338 2731 1133 3434 
Q 928 4138 513 4856 
z
" transform="scale(0.015625)"/>
      </defs>
      <use xlink:href="#DejaVuSans-6c"/>
      <use xlink:href="#DejaVuSans-6f" x="27.783203"/>
      <use xlink:href="#DejaVuSans-67" x="88.964844"/>
      <use xlink:href="#DejaVuSans-31" x="152.441406"/>
      <use xlink:href="#DejaVuSans-30" x="216.064453"/>
      <use xlink:href="#DejaVuSans-28" x="279.6875"/>
      <use xlink:href="#DejaVuSans-23" x="318.701172"/>
      <use xlink:href="#DejaVuSans-20" x="402.490234"/>
      <use xlink:href="#DejaVuSans-66" x="434.277344"/>
      <use xlink:href="#DejaVuSans-2d" x="463.982422"/>
      <use xlink:href="#DejaVuSans-65" x="500.066406"/>
      <use xlink:href="#DejaVuSans-76" x="561.589844"/>
      <use xlink:href="#DejaVuSans-61" x="620.769531"/>
      <use xlink:href="#DejaVuSans-6c" x="682.048828"/>
      <use xlink:href="#DejaVuSans-73" x="709.832031"/>
      <use xlink:href="#DejaVuSans-20" x="761.931641"/>
      <use xlink:href="#DejaVuSans-2f" x="793.71875"/>
      <use xlink:href="#DejaVuSans-20" x="827.410156"/>
      <use xlink:href="#DejaVuSans-64" x="859.197266"/>
      <use xlink:href="#DejaVuSans-69" x="922.673828"/>
      <use xlink:href="#DejaVuSans-6d" x="950.457031"/>
      <use xlink:href="#DejaVuSans-65" x="1047.869141"/>
      <use xlink:href="#DejaVuSans-6e" x="1109.392578"/>
      <use xlink:href="#DejaVuSans-73" x="1172.771484"/>
      <use xlink:href="#DejaVuSans-69" x="1224.871094"/>
      <use xlink:href="#DejaVuSans-6f" x="1252.654297"/>
      <use xlink:href="#DejaVuSans-6e" x="1313.835938"/>
      <use xlink:href="#DejaVuSans-29" x="1377.214844"/>
     </g>
    </g>
   </g>
   <g id="matplotlib.axis_2">
    <g id="ytick_1">
     <g id="line2d_21">
      <path d="M 57.6 298.944 
L 360.8064 298.944 
" clip-path="url(#p9e68bd0211)" style="fill: none; stroke: #b0b0b0; stroke-width: 0.8; stroke-linecap: square"/>
     </g>
     <g id="line2d_22">
      <defs>
       <path id="m54aa01a366" d="M 0 0 
L -3.5 0 
" style="stroke: #000000; stroke-width: 0.8"/>
      </defs>
      <g>
       <use xlink:href="#m54aa01a366" x="57.6" y="298.944" style="stroke: #000000; stroke-width: 0.8"/>
      </g>
     </g>
     <g id="text_6">
      <!-- 0.0 -->
      <g transform="translate(25.155 305.02275)scale(0.16 -0.16)">
       <defs>
        <path id="DejaVuSans-2e" d="M 684 794 
L 1344 794 
L 1344 0 
L 684 0 
L 684 794 
z
" transform="scale(0.015625)"/>
       </defs>
       <use xlink:href="#DejaVuSans-30"/>
       <use xlink:href="#DejaVuSans-2e" x="63.623047"/>
       <use xlink:href="#DejaVuSans-30" x="95.410156"/>
      </g>
     </g>
    </g>
    <g id="ytick_2">
     <g id="line2d_23">
      <path d="M 57.6 244.6848 
L 360.8064 244.6848 
" clip-path="url(#p9e68bd0211)" style="fill: none; stroke: #b0b0b0; stroke-width: 0.8; stroke-linecap: square"/>
     </g>
     <g id="line2d_24">
      <g>
       <use xlink:href="#m54aa01a366" x="57.6" y="244.6848" style="stroke: #000000; stroke-width: 0.8"/>
      </g>
     </g>
     <g id="text_7">
      <!-- 0.2 -->
      <g transform="translate(25.155 250.76355)scale(0.16 -0.16)">
       <use xlink:href="#DejaVuSans-30"/>
       <use xlink:href="#DejaVuSans-2e" x="63.623047"/>
       <use xlink:href="#DejaVuSans-32" x="95.410156"/>
      </g>
     </g>
    </g>
    <g id="ytick_3">
     <g id="line2d_25">
      <path d="M 57.6 190.4256 
L 360.8064 190.4256 
" clip-path="url(#p9e68bd0211)" style="fill: none; stroke: #b0b0b0; stroke-width: 0.8; stroke-linecap: square"/>
     </g>
     <g id="line2d_26">
      <g>
       <use xlink:href="#m54aa01a366" x="57.6" y="190.4256" style="stroke: #000000; stroke-width: 0.8"/>
      </g>
     </g>
     <g id="text_8">
      <!-- 0.4 -->
      <g transform="translate(25.155 196.50435)scale(0.16 -0.16)">
       <use xlink:href="#DejaVuSans-30"/>
       <use xlink:href="#DejaVuSans-2e" x="63.623047"/>
       <use xlink:href="#DejaVuSans-34" x="95.410156"/>
      </g>
     </g>
    </g>
    <g id="ytick_4">
     <g id="line2d_27">
      <path d="M 57.6 136.1664 
L 360.8064 136.1664 
" clip-path="url(#p9e68bd0211)" style="fill: none; stroke: #b0b0b0; stroke-width: 0.8; stroke-linecap: square"/>
     </g>
     <g id="line2d_28">
      <g>
       <use xlink:href="#m54aa01a366" x="57.6" y="136.1664" style="stroke: #000000; stroke-width: 0.8"/>
      </g>
     </g>
     <g id="text_9">
      <!-- 0.6 -->
      <g transform="translate(25.155 142.24515)scale(0.16 -0.16)">
       <use xlink:href="#DejaVuSans-30"/>
       <use xlink:href="#DejaVuSans-2e" x="63.623047"/>
       <use xlink:href="#DejaVuSans-36" x="95.410156"/>
      </g>
     </g>
    </g>
    <g id="ytick_5">
     <g id="line2d_29">
      <path d="M 57.6 81.9072 
L 360.8064 81.9072 
" clip-path="url(#p9e68bd0211)" style="fill: none; stroke: #b0b0b0; stroke-width: 0.8; stroke-linecap: square"/>
     </g>
     <g id="line2d_30">
      <g>
       <use xlink:href="#m54aa01a366" x="57.6" y="81.9072" style="stroke: #000000; stroke-width: 0.8"/>
      </g>
     </g>
     <g id="text_10">
      <!-- 0.8 -->
      <g transform="translate(25.155 87.98595)scale(0.16 -0.16)">
       <defs>
        <path id="DejaVuSans-38" d="M 2034 2216 
Q 1584 2216 1326 1975 
Q 1069 1734 1069 1313 
Q 1069 891 1326 650 
Q 1584 409 2034 409 
Q 2484 409 2743 651 
Q 3003 894 3003 1313 
Q 3003 1734 2745 1975 
Q 2488 2216 2034 2216 
z
M 1403 2484 
Q 997 2584 770 2862 
Q 544 3141 544 3541 
Q 544 4100 942 4425 
Q 1341 4750 2034 4750 
Q 2731 4750 3128 4425 
Q 3525 4100 3525 3541 
Q 3525 3141 3298 2862 
Q 3072 2584 2669 2484 
Q 3125 2378 3379 2068 
Q 3634 1759 3634 1313 
Q 3634 634 3220 271 
Q 2806 -91 2034 -91 
Q 1263 -91 848 271 
Q 434 634 434 1313 
Q 434 1759 690 2068 
Q 947 2378 1403 2484 
z
M 1172 3481 
Q 1172 3119 1398 2916 
Q 1625 2713 2034 2713 
Q 2441 2713 2670 2916 
Q 2900 3119 2900 3481 
Q 2900 3844 2670 4047 
Q 2441 4250 2034 4250 
Q 1625 4250 1398 4047 
Q 1172 3844 1172 3481 
z
" transform="scale(0.015625)"/>
       </defs>
       <use xlink:href="#DejaVuSans-30"/>
       <use xlink:href="#DejaVuSans-2e" x="63.623047"/>
       <use xlink:href="#DejaVuSans-38" x="95.410156"/>
      </g>
     </g>
    </g>
    <g id="ytick_6">
     <g id="line2d_31">
      <path d="M 57.6 27.648 
L 360.8064 27.648 
" clip-path="url(#p9e68bd0211)" style="fill: none; stroke: #b0b0b0; stroke-width: 0.8; stroke-linecap: square"/>
     </g>
     <g id="line2d_32">
      <g>
       <use xlink:href="#m54aa01a366" x="57.6" y="27.648" style="stroke: #000000; stroke-width: 0.8"/>
      </g>
     </g>
     <g id="text_11">
      <!-- 1.0 -->
      <g transform="translate(25.155 33.72675)scale(0.16 -0.16)">
       <use xlink:href="#DejaVuSans-31"/>
       <use xlink:href="#DejaVuSans-2e" x="63.623047"/>
       <use xlink:href="#DejaVuSans-30" x="95.410156"/>
      </g>
     </g>
    </g>
    <g id="text_12">
     <!-- Fraction of function,target pairs -->
     <g transform="translate(17.619531 297.681)rotate(-90)scale(0.17 -0.17)">
      <defs>
       <path id="DejaVuSans-46" d="M 628 4666 
L 3309 4666 
L 3309 4134 
L 1259 4134 
L 1259 2759 
L 3109 2759 
L 3109 2228 
L 1259 2228 
L 1259 0 
L 628 0 
L 628 4666 
z
" transform="scale(0.015625)"/>
       <path id="DejaVuSans-72" d="M 2631 2963 
Q 2534 3019 2420 3045 
Q 2306 3072 2169 3072 
Q 1681 3072 1420 2755 
Q 1159 2438 1159 1844 
L 1159 0 
L 581 0 
L 581 3500 
L 1159 3500 
L 1159 2956 
Q 1341 3275 1631 3429 
Q 1922 3584 2338 3584 
Q 2397 3584 2469 3576 
Q 2541 3569 2628 3553 
L 2631 2963 
z
" transform="scale(0.015625)"/>
       <path id="DejaVuSans-63" d="M 3122 3366 
L 3122 2828 
Q 2878 2963 2633 3030 
Q 2388 3097 2138 3097 
Q 1578 3097 1268 2742 
Q 959 2388 959 1747 
Q 959 1106 1268 751 
Q 1578 397 2138 397 
Q 2388 397 2633 464 
Q 2878 531 3122 666 
L 3122 134 
Q 2881 22 2623 -34 
Q 2366 -91 2075 -91 
Q 1284 -91 818 406 
Q 353 903 353 1747 
Q 353 2603 823 3093 
Q 1294 3584 2113 3584 
Q 2378 3584 2631 3529 
Q 2884 3475 3122 3366 
z
" transform="scale(0.015625)"/>
       <path id="DejaVuSans-74" d="M 1172 4494 
L 1172 3500 
L 2356 3500 
L 2356 3053 
L 1172 3053 
L 1172 1153 
Q 1172 725 1289 603 
Q 1406 481 1766 481 
L 2356 481 
L 2356 0 
L 1766 0 
Q 1100 0 847 248 
Q 594 497 594 1153 
L 594 3053 
L 172 3053 
L 172 3500 
L 594 3500 
L 594 4494 
L 1172 4494 
z
" transform="scale(0.015625)"/>
       <path id="DejaVuSans-75" d="M 544 1381 
L 544 3500 
L 1119 3500 
L 1119 1403 
Q 1119 906 1312 657 
Q 1506 409 1894 409 
Q 2359 409 2629 706 
Q 2900 1003 2900 1516 
L 2900 3500 
L 3475 3500 
L 3475 0 
L 2900 0 
L 2900 538 
Q 2691 219 2414 64 
Q 2138 -91 1772 -91 
Q 1169 -91 856 284 
Q 544 659 544 1381 
z
M 1991 3584 
L 1991 3584 
z
" transform="scale(0.015625)"/>
       <path id="DejaVuSans-2c" d="M 750 794 
L 1409 794 
L 1409 256 
L 897 -744 
L 494 -744 
L 750 256 
L 750 794 
z
" transform="scale(0.015625)"/>
       <path id="DejaVuSans-70" d="M 1159 525 
L 1159 -1331 
L 581 -1331 
L 581 3500 
L 1159 3500 
L 1159 2969 
Q 1341 3281 1617 3432 
Q 1894 3584 2278 3584 
Q 2916 3584 3314 3078 
Q 3713 2572 3713 1747 
Q 3713 922 3314 415 
Q 2916 -91 2278 -91 
Q 1894 -91 1617 61 
Q 1341 213 1159 525 
z
M 3116 1747 
Q 3116 2381 2855 2742 
Q 2594 3103 2138 3103 
Q 1681 3103 1420 2742 
Q 1159 2381 1159 1747 
Q 1159 1113 1420 752 
Q 1681 391 2138 391 
Q 2594 391 2855 752 
Q 3116 1113 3116 1747 
z
" transform="scale(0.015625)"/>
      </defs>
      <use xlink:href="#DejaVuSans-46"/>
      <use xlink:href="#DejaVuSans-72" x="50.269531"/>
      <use xlink:href="#DejaVuSans-61" x="91.382812"/>
      <use xlink:href="#DejaVuSans-63" x="152.662109"/>
      <use xlink:href="#DejaVuSans-74" x="207.642578"/>
      <use xlink:href="#DejaVuSans-69" x="246.851562"/>
      <use xlink:href="#DejaVuSans-6f" x="274.634766"/>
      <use xlink:href="#DejaVuSans-6e" x="335.816406"/>
      <use xlink:href="#DejaVuSans-20" x="399.195312"/>
      <use xlink:href="#DejaVuSans-6f" x="430.982422"/>
      <use xlink:href="#DejaVuSans-66" x="492.164062"/>
      <use xlink:href="#DejaVuSans-20" x="527.369141"/>
      <use xlink:href="#DejaVuSans-66" x="559.15625"/>
      <use xlink:href="#DejaVuSans-75" x="594.361328"/>
      <use xlink:href="#DejaVuSans-6e" x="657.740234"/>
      <use xlink:href="#DejaVuSans-63" x="721.119141"/>
      <use xlink:href="#DejaVuSans-74" x="776.099609"/>
      <use xlink:href="#DejaVuSans-69" x="815.308594"/>
      <use xlink:href="#DejaVuSans-6f" x="843.091797"/>
      <use xlink:href="#DejaVuSans-6e" x="904.273438"/>
      <use xlink:href="#DejaVuSans-2c" x="967.652344"/>
      <use xlink:href="#DejaVuSans-74" x="999.439453"/>
      <use xlink:href="#DejaVuSans-61" x="1038.648438"/>
      <use xlink:href="#DejaVuSans-72" x="1099.927734"/>
      <use xlink:href="#DejaVuSans-67" x="1139.291016"/>
      <use xlink:href="#DejaVuSans-65" x="1202.767578"/>
      <use xlink:href="#DejaVuSans-74" x="1264.291016"/>
      <use xlink:href="#DejaVuSans-20" x="1303.5"/>
      <use xlink:href="#DejaVuSans-70" x="1335.287109"/>
      <use xlink:href="#DejaVuSans-61" x="1398.763672"/>
      <use xlink:href="#DejaVuSans-69" x="1460.042969"/>
      <use xlink:href="#DejaVuSans-72" x="1487.826172"/>
      <use xlink:href="#DejaVuSans-73" x="1528.939453"/>
     </g>
    </g>
   </g>
   <g id="line2d_33">
    <defs>
     <path id="mc6cd291058" d="M 0 1.5 
C 0.397805 1.5 0.77937 1.341951 1.06066 1.06066 
C 1.341951 0.77937 1.5 0.397805 1.5 0 
C 1.5 -0.397805 1.341951 -0.77937 1.06066 -1.06066 
C 0.77937 -1.341951 0.397805 -1.5 0 -1.5 
C -0.397805 -1.5 -0.77937 -1.341951 -1.06066 -1.06066 
C -1.341951 -0.77937 -1.5 -0.397805 -1.5 0 
C -1.5 0.397805 -1.341951 0.77937 -1.06066 1.06066 
C -0.77937 1.341951 -0.397805 1.5 0 1.5 
z
" style="stroke: #f5deb3"/>
    </defs>
    <g>
     <use xlink:href="#mc6cd291058" x="167.667378" y="27.648" style="fill: #f5deb3; stroke: #f5deb3"/>
     <use xlink:href="#mc6cd291058" x="167.667378" y="27.648" style="fill: #f5deb3; stroke: #f5deb3"/>
    </g>
   </g>
   <g id="line2d_34">
    <defs>
     <path id="maac1b4f683" d="M 0 1.5 
C 0.397805 1.5 0.77937 1.341951 1.06066 1.06066 
C 1.341951 0.77937 1.5 0.397805 1.5 0 
C 1.5 -0.397805 1.341951 -0.77937 1.06066 -1.06066 
C 0.77937 -1.341951 0.397805 -1.5 0 -1.5 
C -0.397805 -1.5 -0.77937 -1.341951 -1.06066 -1.06066 
C -1.341951 -0.77937 -1.5 -0.397805 -1.5 0 
C -1.5 0.397805 -1.341951 0.77937 -1.06066 1.06066 
C -0.77937 1.341951 -0.397805 1.5 0 1.5 
z
" style="stroke: #000080"/>
    </defs>
    <g>
     <use xlink:href="#maac1b4f683" x="211.477156" y="27.648" style="fill: #000080; stroke: #000080"/>
     <use xlink:href="#maac1b4f683" x="211.477156" y="27.648" style="fill: #000080; stroke: #000080"/>
    </g>
   </g>
   <g id="line2d_35">
    <path d="M 27.323974 298.944 
L 27.323974 290.432753 
L 40.363149 290.432753 
L 40.363149 289.581628 
L 47.990577 289.581628 
L 47.990577 288.730504 
L 53.402323 288.730504 
L 53.402323 288.517722 
L 57.6 288.517722 
L 57.6 287.453816 
L 61.029752 287.453816 
L 61.029752 286.815473 
L 63.929565 286.815473 
L 63.929565 286.602692 
L 66.441498 286.602692 
L 66.441498 285.964348 
L 70.639174 285.964348 
L 70.639174 284.262099 
L 72.432107 284.262099 
L 72.432107 283.410974 
L 74.068926 283.410974 
L 74.068926 281.921506 
L 75.574654 281.921506 
L 75.574654 281.070381 
L 78.266603 281.070381 
L 78.266603 280.8576 
L 79.480672 280.8576 
L 79.480672 280.219256 
L 81.696354 280.219256 
L 81.696354 280.006475 
L 82.713442 280.006475 
L 82.713442 279.793694 
L 83.678349 279.793694 
L 83.678349 279.580913 
L 84.596168 279.580913 
L 84.596168 278.304226 
L 85.471281 278.304226 
L 85.471281 278.091445 
L 86.307488 278.091445 
L 86.307488 277.665882 
L 87.876026 277.665882 
L 87.876026 277.453101 
L 88.613828 277.453101 
L 88.613828 277.098466 
L 89.323782 277.098466 
L 89.323782 276.247341 
L 90.007914 276.247341 
L 90.007914 275.608998 
L 90.668036 275.608998 
L 90.668036 275.183435 
L 91.305777 275.183435 
L 91.305777 274.970654 
L 91.922605 274.970654 
L 91.922605 274.757873 
L 93.66029 274.686946 
L 93.66029 274.616019 
L 94.205591 274.616019 
L 94.205591 274.403238 
L 94.735529 274.403238 
L 94.735529 272.630061 
L 95.752617 272.630061 
L 95.752617 272.133572 
L 96.241256 272.133572 
L 96.241256 271.708009 
L 97.635342 271.637082 
L 97.635342 271.424301 
L 98.077987 271.424301 
L 98.077987 271.21152 
L 99.346662 271.140593 
L 99.346662 271.069666 
L 101.287718 271.069666 
L 101.287718 270.218541 
L 102.011329 270.218541 
L 102.011329 269.792979 
L 102.362957 269.792979 
L 102.362957 269.509271 
L 103.047088 269.509271 
L 103.047088 269.367416 
L 103.707211 269.367416 
L 103.707211 267.665167 
L 104.028784 267.665167 
L 104.028784 266.814042 
L 104.961779 266.743115 
L 104.961779 266.530334 
L 106.42077 266.530334 
L 106.42077 265.253647 
L 106.699465 265.253647 
L 106.699465 265.040866 
L 106.974091 265.040866 
L 106.974091 264.828085 
L 107.244765 264.828085 
L 107.244765 263.764179 
L 108.542628 263.764179 
L 108.542628 263.551398 
L 108.791791 263.551398 
L 108.791791 262.983981 
L 109.037698 262.983981 
L 109.037698 262.700273 
L 109.520071 262.700273 
L 109.520071 262.558419 
L 110.674517 262.558419 
L 110.674517 262.345638 
L 110.897141 262.345638 
L 110.897141 262.132856 
L 111.54963 262.061929 
L 111.54963 261.920075 
L 111.762192 261.920075 
L 111.762192 261.707294 
L 112.790402 261.636367 
L 112.790402 260.927096 
L 113.186449 260.927096 
L 113.186449 260.714315 
L 113.954374 260.714315 
L 113.954374 260.288753 
L 114.141556 260.288753 
L 114.141556 259.224847 
L 114.510421 259.224847 
L 114.510421 258.870212 
L 114.872193 258.870212 
L 114.872193 258.657431 
L 115.050503 258.657431 
L 115.050503 258.444649 
L 115.575511 258.444649 
L 115.575511 258.019087 
L 116.086263 258.019087 
L 116.086263 257.806306 
L 116.253478 257.806306 
L 116.253478 257.593525 
L 116.746385 257.593525 
L 116.746385 257.238889 
L 116.907859 257.238889 
L 116.907859 256.813327 
L 117.226706 256.7424 
L 117.226706 256.245911 
L 118.152051 256.174984 
L 118.152051 255.891275 
L 118.450653 255.891275 
L 118.450653 255.53664 
L 118.74459 255.53664 
L 118.74459 255.323859 
L 119.177058 255.323859 
L 119.177058 255.111078 
L 119.599808 255.040151 
L 119.599808 254.969224 
L 119.876453 254.969224 
L 119.876453 254.756442 
L 120.013265 254.756442 
L 120.013265 254.543661 
L 120.149089 254.543661 
L 120.149089 254.259953 
L 120.550775 254.259953 
L 120.550775 253.834391 
L 120.682786 253.834391 
L 120.682786 253.408828 
L 121.201758 253.408828 
L 121.201758 253.196047 
L 121.706797 253.12512 
L 121.706797 252.912339 
L 121.954321 252.912339 
L 121.954321 252.699558 
L 122.677931 252.628631 
L 122.677931 251.990287 
L 122.913079 251.91936 
L 122.913079 251.848433 
L 123.029559 251.848433 
L 123.029559 251.635652 
L 123.374735 251.564725 
L 123.374735 251.422871 
L 124.046648 251.351944 
L 124.156336 250.217111 
L 124.265389 250.217111 
L 124.373813 249.862475 
L 124.481616 249.862475 
L 124.481616 249.720621 
L 124.695386 249.720621 
L 124.695386 249.578767 
L 125.011554 249.578767 
L 125.011554 249.436913 
L 126.127391 249.365986 
L 126.225624 249.082278 
L 126.420564 249.082278 
L 126.420564 248.656715 
L 126.899255 248.585788 
L 126.899255 248.514861 
L 127.458055 248.443934 
L 127.458055 248.373007 
L 128.528195 248.30208 
L 128.528195 248.089299 
L 128.871795 248.018372 
L 128.871795 247.947445 
L 129.375706 247.876518 
L 129.458394 247.167247 
L 129.54072 247.167247 
L 129.622688 246.883539 
L 129.78556 246.812612 
L 129.78556 246.741685 
L 130.107132 246.670758 
L 130.107132 246.457976 
L 130.656987 246.387049 
L 130.656987 245.748706 
L 130.887807 245.748706 
L 130.964122 245.535925 
L 131.191226 245.535925 
L 131.191226 245.252216 
L 131.563744 245.181289 
L 131.563744 245.110362 
L 131.856536 245.110362 
L 131.856536 244.826654 
L 132.358208 244.755727 
L 132.428795 244.472019 
L 133.25581 244.472019 
L 133.25581 244.259238 
L 133.523594 244.188311 
L 133.523594 244.117384 
L 133.656071 244.117384 
L 133.656071 243.975529 
L 133.78762 243.975529 
L 133.853052 243.691821 
L 134.112526 243.691821 
L 134.112526 243.47904 
L 134.431915 243.47904 
L 134.431915 242.982551 
L 134.683578 242.982551 
L 134.683578 242.769769 
L 135.538796 242.698842 
L 135.538796 242.486061 
L 135.776169 242.415134 
L 135.776169 242.27328 
L 136.010584 242.202353 
L 136.010584 241.776791 
L 136.584151 241.705864 
L 136.584151 241.634936 
L 136.808769 241.634936 
L 136.808769 241.493082 
L 137.030737 241.422155 
L 137.030737 241.351228 
L 137.358854 241.280301 
L 137.358854 241.06752 
L 137.787626 241.06752 
L 137.893309 240.712885 
L 137.945929 240.712885 
L 137.945929 240.287322 
L 138.36167 240.287322 
L 138.464186 240.074541 
L 138.968547 240.003614 
L 138.968547 239.790833 
L 139.215746 239.719906 
L 139.215746 239.648979 
L 139.748412 239.578052 
L 139.843661 239.436198 
L 140.26641 239.365271 
L 140.26641 239.294344 
L 140.770526 239.223416 
L 140.770526 239.081562 
L 140.950542 239.081562 
L 140.950542 238.868781 
L 141.65386 238.797854 
L 141.65386 238.726927 
L 142.206555 238.726927 
L 142.290162 233.620179 
L 142.945969 233.620179 
L 142.945969 233.265544 
L 143.10641 233.265544 
L 143.18612 232.981835 
L 143.657415 232.910908 
L 143.657415 232.839981 
L 144.491935 232.769054 
L 144.602918 230.783096 
L 145.148219 230.712169 
L 145.255407 230.002899 
L 145.326529 229.931972 
L 145.326529 229.719191 
L 145.678157 229.719191 
L 145.782376 228.513431 
L 146.125662 228.513431 
L 146.227438 228.087868 
L 146.294984 228.087868 
L 146.395851 227.591379 
L 146.496179 227.591379 
L 146.529503 227.094889 
L 146.629123 227.094889 
L 146.728219 226.811181 
L 146.892226 226.740254 
L 146.957431 226.456546 
L 147.054816 226.456546 
L 147.1517 225.605421 
L 147.216013 225.605421 
L 147.312072 224.754296 
L 147.597342 224.754296 
L 147.628773 224.470588 
L 147.847333 224.470588 
L 147.847333 224.257807 
L 148.124658 224.18688 
L 148.155221 224.045026 
L 148.276979 224.045026 
L 148.337564 223.761318 
L 148.697031 223.690391 
L 148.697031 223.619464 
L 148.903591 223.619464 
L 148.932916 223.122974 
L 149.049758 223.122974 
L 149.078856 222.768339 
L 149.367382 222.697412 
L 149.453084 221.633506 
L 149.566749 221.633506 
L 149.623325 220.498673 
L 149.79204 220.427746 
L 149.875833 214.611727 
L 149.959255 214.5408 
L 150.069911 213.973384 
L 150.124997 213.973384 
L 150.124997 213.760602 
L 150.370903 213.689675 
L 150.479171 211.845572 
L 150.667154 211.774645 
L 150.773735 211.207228 
L 150.8268 211.207228 
L 150.853277 205.107501 
L 150.985103 205.036574 
L 151.037576 204.398231 
L 151.194122 204.327304 
L 151.297768 203.547106 
L 151.32359 203.547106 
L 151.426526 202.341346 
L 151.528902 202.270419 
L 151.528902 201.844856 
L 151.757231 201.844856 
L 151.832729 201.135586 
L 151.882893 201.135586 
L 151.982822 200.497242 
L 152.25492 200.426315 
L 152.328451 199.078701 
L 152.450367 199.007774 
L 152.450367 198.794993 
L 152.739781 198.724066 
L 152.835271 198.014795 
L 152.859068 198.014795 
L 152.953957 197.376452 
L 153.048369 197.376452 
L 153.048369 197.234598 
L 153.259079 197.163671 
L 153.305585 196.809035 
L 153.375128 196.809035 
L 153.421349 195.745129 
L 153.559331 195.674202 
L 153.605101 195.177713 
L 153.673549 195.177713 
L 153.764426 194.894005 
L 153.8097 194.894005 
L 153.8097 194.823078 
L 153.877408 194.468442 
L 154.056781 194.397515 
L 154.123607 193.475464 
L 154.190197 193.475464 
L 154.300658 192.695266 
L 154.388563 192.624339 
L 154.476059 192.127849 
L 154.606544 192.056922 
L 154.671449 191.63136 
L 154.80059 191.560433 
L 154.907535 190.780235 
L 154.950144 190.780235 
L 155.056244 190.212819 
L 155.098517 190.212819 
L 155.098517 190.000038 
L 155.28758 189.929111 
L 155.391799 189.361694 
L 155.619069 189.290767 
L 155.701037 188.936132 
L 155.762279 188.865205 
L 155.843627 188.581496 
L 155.944819 188.510569 
L 156.005274 187.943153 
L 156.145584 187.872226 
L 156.205398 187.517591 
L 156.403417 187.446664 
L 156.423104 186.666466 
L 156.521235 186.666466 
L 156.560344 186.382758 
L 156.715973 186.311831 
L 156.774003 185.957195 
L 156.985263 185.957195 
L 157.080512 185.673487 
L 157.118477 185.673487 
L 157.213055 180.495812 
L 157.325925 180.495812 
L 157.382107 179.006344 
L 157.456756 179.006344 
L 157.549652 177.304094 
L 157.586683 177.304094 
L 157.586683 177.16224 
L 157.715719 177.16224 
L 157.715719 176.807605 
L 157.862113 176.807605 
L 157.916719 176.311115 
L 158.043518 176.240188 
L 158.133569 176.027407 
L 158.25892 175.95648 
L 158.312387 175.105355 
L 158.383441 175.105355 
L 158.454228 174.75072 
L 158.559911 174.75072 
L 158.595008 174.041449 
L 158.752135 173.970522 
L 158.856162 173.686814 
L 158.890711 173.615887 
L 158.993977 173.261252 
L 159.130788 173.190325 
L 159.215793 172.551981 
L 159.283522 172.551981 
L 159.367841 172.197346 
L 159.435025 172.197346 
L 159.518669 171.771784 
L 159.552023 171.771784 
L 159.601943 171.417148 
L 159.800309 171.346221 
L 159.865969 171.062513 
L 159.964032 171.062513 
L 159.964032 170.849732 
L 160.110173 170.849732 
L 160.110173 170.707878 
L 160.255188 170.707878 
L 160.255188 170.636951 
L 160.271232 170.495096 
L 160.399093 170.424169 
L 160.478568 169.147482 
L 160.652238 169.076555 
L 160.730652 168.438212 
L 160.917524 168.367285 
L 160.979404 167.019671 
L 161.056469 167.019671 
L 161.163832 166.523181 
L 161.209658 166.523181 
L 161.209658 166.452254 
L 161.316153 165.388348 
L 161.376738 165.317421 
L 161.422049 165.10464 
L 161.512345 165.10464 
L 161.617145 164.466296 
L 161.825009 164.395369 
L 161.928087 163.827953 
L 162.088932 163.757026 
L 162.190578 163.402391 
L 162.233972 163.331464 
L 162.291676 163.118682 
L 162.363559 163.047755 
L 162.463734 162.834974 
L 162.492258 162.834974 
L 162.520739 162.480339 
L 162.620084 162.409412 
L 162.676617 161.912922 
L 162.928937 161.841995 
L 163.026155 161.345506 
L 163.164171 161.345506 
L 163.164171 161.203652 
L 163.328465 161.132725 
L 163.382912 160.707162 
L 163.504846 160.636235 
L 163.612572 160.2816 
L 163.746367 160.210673 
L 163.79962 160.068819 
L 164.102932 159.997892 
L 164.142137 159.643256 
L 164.246284 159.643256 
L 164.246284 159.501402 
L 164.401432 159.501402 
L 164.427166 158.792132 
L 164.657201 158.721205 
L 164.720604 158.579351 
L 164.934588 158.508424 
L 165.021997 157.515445 
L 165.133786 157.444518 
L 165.220276 156.522466 
L 165.269521 156.522466 
L 165.367626 156.167831 
L 165.416487 156.096904 
L 165.489541 155.671341 
L 165.586508 155.600414 
L 165.658907 154.891144 
L 165.707018 154.891144 
L 165.766985 154.678362 
L 165.862536 154.678362 
L 165.874446 154.2528 
L 166.063985 154.181873 
L 166.111072 147.656584 
L 166.321521 147.656584 
L 166.344759 146.308969 
L 166.47206 146.238042 
L 166.552624 145.883407 
L 166.735484 145.81248 
L 166.8036 144.181158 
L 166.916583 144.181158 
L 167.006483 142.266127 
L 167.095955 142.1952 
L 167.196106 141.273148 
L 167.306762 141.273148 
L 167.361848 140.98944 
L 167.427738 140.98944 
L 167.515233 140.138315 
L 167.558829 140.138315 
L 167.667378 139.570899 
L 167.699821 139.570899 
L 167.775305 138.861628 
L 167.829037 138.790701 
L 167.936043 138.506993 
L 167.957371 138.506993 
L 167.957371 138.223285 
L 168.074246 138.223285 
L 168.148245 137.584941 
L 168.211442 137.584941 
L 168.211442 137.514014 
L 168.211442 137.443087 
L 168.326754 137.443087 
L 168.378936 136.946598 
L 168.513935 136.875671 
L 168.596533 131.485214 
L 168.658244 131.414287 
L 168.760648 128.860913 
L 168.862497 128.789986 
L 168.943582 128.222569 
L 169.104709 128.151642 
L 169.164778 127.016809 
L 169.264469 127.016809 
L 169.343842 125.740122 
L 169.403154 125.669195 
L 169.491772 125.172706 
L 169.521218 125.172706 
L 169.560409 124.676216 
L 169.638546 124.676216 
L 169.716361 124.250654 
L 169.813178 124.179727 
L 169.909499 123.966946 
L 170.033985 123.966946 
L 170.081645 123.612311 
L 170.19554 123.612311 
L 170.19554 123.470456 
L 170.411929 123.399529 
L 170.514546 122.406551 
L 170.579558 122.335624 
L 170.662815 121.839134 
L 170.727317 121.768207 
L 170.828233 120.917082 
L 170.92861 120.846155 
L 171.028455 120.065958 
L 171.109753 120.065958 
L 171.208643 119.498541 
L 171.280238 119.427614 
L 171.387122 117.725365 
L 171.440338 117.654438 
L 171.546318 116.448678 
L 171.590302 116.377751 
L 171.686704 115.384772 
L 171.79131 115.313845 
L 171.895337 114.604574 
L 171.955755 114.533647 
L 172.058879 113.327887 
L 172.127316 113.25696 
L 172.237998 112.476762 
L 172.33959 112.405835 
L 172.449034 111.980273 
L 172.465815 111.980273 
L 172.557844 111.625638 
L 172.599527 111.625638 
L 172.707472 111.271002 
L 172.724025 111.200075 
L 172.781843 111.058221 
L 172.85592 110.987294 
L 172.946065 110.278024 
L 172.986898 110.278024 
L 173.076419 104.674786 
L 173.133165 104.674786 
L 173.19781 101.837704 
L 173.294362 101.766776 
L 173.334447 100.702871 
L 173.454189 100.631944 
L 173.493935 99.568038 
L 173.596882 99.497111 
L 173.652083 98.433205 
L 173.7385 98.433205 
L 173.793288 97.723934 
L 173.910154 97.723934 
L 173.941196 97.369299 
L 174.049442 97.369299 
L 174.103333 96.943736 
L 174.23357 96.872809 
L 174.332558 96.589101 
L 174.37807 96.589101 
L 174.393216 96.234466 
L 174.581522 96.163539 
L 174.678701 95.879831 
L 174.842022 95.808904 
L 174.893692 95.525195 
L 175.084376 95.454268 
L 175.171736 95.099633 
L 175.345249 95.099633 
L 175.345249 94.957779 
L 175.517176 94.886852 
L 175.609652 94.744998 
L 175.863389 94.674071 
L 175.968112 93.822946 
L 176.023726 93.752019 
L 176.127562 93.326456 
L 176.155155 93.255529 
L 176.237692 92.900894 
L 176.299358 92.829967 
L 176.36764 92.617186 
L 176.577751 92.546259 
L 176.651746 92.333478 
L 176.718763 92.333478 
L 176.772205 91.340499 
L 176.84544 91.340499 
L 176.891897 90.844009 
L 177.004244 90.773082 
L 177.109374 89.921958 
L 177.12902 89.921958 
L 177.226946 89.212687 
L 177.265975 89.14176 
L 177.376117 88.645271 
L 177.472768 88.574344 
L 177.524113 88.290635 
L 177.600869 88.219708 
L 177.709073 88.006927 
L 177.715419 88.006927 
L 177.715419 87.865073 
L 178.02376 87.865073 
L 178.110937 82.403689 
L 178.135771 82.403689 
L 178.228607 81.339784 
L 178.302547 81.268856 
L 178.394565 80.488659 
L 178.455661 80.417732 
L 178.540864 78.573628 
L 178.577262 78.573628 
L 178.67398 78.006212 
L 178.81813 77.935285 
L 178.925523 77.08416 
L 179.032306 77.013233 
L 179.138486 76.800452 
L 179.249919 76.729525 
L 179.360695 76.303962 
L 179.505467 76.233035 
L 179.586055 75.8784 
L 179.717705 75.807473 
L 179.75759 75.665619 
L 179.842775 75.665619 
L 179.94449 75.452838 
L 180.101628 75.381911 
L 180.168573 75.098202 
L 180.240829 75.027275 
L 180.263006 74.885421 
L 180.36799 74.885421 
L 180.406522 74.601713 
L 180.499771 74.530786 
L 180.587114 74.247078 
L 180.684893 74.247078 
L 180.782166 73.963369 
L 180.900377 73.963369 
L 180.900377 73.892442 
L 180.969881 73.679661 
L 181.01785 73.679661 
L 181.118716 72.048339 
L 181.213777 71.977412 
L 181.324079 71.622776 
L 181.329315 71.622776 
L 181.423321 71.05536 
L 181.459752 70.984433 
L 181.563454 70.487944 
L 181.620248 70.417016 
L 181.630555 70.062381 
L 181.820236 69.991454 
L 181.927048 69.707746 
L 182.048381 69.636819 
L 182.048381 69.565892 
L 182.604477 69.494965 
L 182.687465 69.353111 
L 183.347923 69.282184 
L 183.347923 69.211256 
L 183.53976 69.140329 
L 183.628001 68.218278 
L 183.807841 68.147351 
L 183.81243 67.863642 
L 184.058574 67.792715 
L 184.157939 62.969675 
L 184.220899 62.969675 
L 184.328343 61.267426 
L 184.399633 61.196499 
L 184.501641 58.784979 
L 184.54582 58.714052 
L 184.655817 56.302532 
L 184.668973 56.302532 
L 184.773895 55.38048 
L 184.800034 55.38048 
L 184.891237 54.458428 
L 184.947474 54.387501 
L 185.025066 54.032866 
L 185.132303 53.961939 
L 185.132303 53.891012 
L 185.968882 53.820085 
L 185.968882 53.749158 
L 186.293367 53.749158 
L 186.38563 52.330616 
L 186.497342 52.259689 
L 186.600485 51.479492 
L 186.65579 51.408565 
L 186.758069 50.55744 
L 186.793345 50.486513 
L 186.88709 50.131878 
L 186.984247 50.060951 
L 187.053891 49.848169 
L 187.11943 49.777242 
L 187.196243 49.280753 
L 187.72533 49.209826 
L 187.72533 49.138899 
L 188.22906 49.138899 
L 188.243567 48.926118 
L 188.441908 48.855191 
L 188.506367 48.571482 
L 188.634629 48.500555 
L 188.726721 48.004066 
L 188.765547 47.933139 
L 188.864019 47.294795 
L 188.878044 47.294795 
L 188.94103 46.585525 
L 189.031638 46.514598 
L 189.11489 46.089035 
L 189.177088 46.018108 
L 189.270002 45.805327 
L 189.362459 45.7344 
L 189.403406 45.521619 
L 189.488426 45.521619 
L 189.498603 45.308838 
L 189.633768 45.237911 
L 189.744553 44.954202 
L 189.941011 44.883275 
L 190.000542 44.315859 
L 190.056592 44.315859 
L 190.13216 43.961224 
L 190.187821 43.890296 
L 190.2954 43.535661 
L 190.311646 43.464734 
L 190.412061 43.039172 
L 190.492652 42.968245 
L 190.598506 42.613609 
L 190.633659 42.542682 
L 190.633659 42.471755 
L 190.773617 42.400828 
L 190.849521 42.188047 
L 190.962806 42.11712 
L 190.991021 41.904339 
L 191.159428 41.833412 
L 191.236887 41.549704 
L 191.338646 41.478776 
L 191.39392 41.265995 
L 191.549653 41.265995 
L 191.652764 40.91136 
L 191.77936 40.840433 
L 191.872257 40.485798 
L 191.99145 40.414871 
L 192.018164 40.131162 
L 192.17766 40.060235 
L 192.271542 39.918381 
L 192.385331 39.847454 
L 192.437618 39.7056 
L 192.504218 39.7056 
L 192.504218 39.634673 
L 192.5821 39.280038 
L 192.722625 39.209111 
L 192.822361 38.783548 
L 192.881949 38.712621 
L 192.978028 38.49984 
L 193.079226 38.428913 
L 193.157561 38.074278 
L 193.349219 38.003351 
L 193.456691 37.506861 
L 193.511567 37.435934 
L 193.566283 37.152226 
L 194.006387 37.081299 
L 194.006387 37.010372 
L 194.142 37.010372 
L 194.213401 36.442955 
L 194.337049 36.372028 
L 194.371107 36.230174 
L 194.602629 36.159247 
L 194.690328 35.875539 
L 194.782743 35.804612 
L 194.838997 35.591831 
L 194.902717 35.591831 
L 194.928145 35.308122 
L 195.142906 35.237195 
L 195.240628 35.095341 
L 195.322922 35.024414 
L 195.360209 34.88256 
L 195.575031 34.811633 
L 195.653433 34.598852 
L 195.934933 34.527925 
L 196.045405 34.244216 
L 196.090847 34.244216 
L 196.150471 34.031435 
L 196.271523 33.960508 
L 196.32822 33.747727 
L 196.462194 33.747727 
L 196.504304 33.464019 
L 196.766531 33.393092 
L 196.766531 33.322165 
L 197.043328 33.251238 
L 197.043328 33.180311 
L 197.358587 33.109384 
L 197.43436 32.896602 
L 197.560709 32.825675 
L 197.560709 32.754748 
L 197.692797 32.683821 
L 197.730055 32.541967 
L 197.906567 32.47104 
L 198.012548 32.258259 
L 198.70492 32.187332 
L 198.70492 32.116405 
L 198.967099 32.116405 
L 199.040758 31.903624 
L 199.08563 31.832696 
L 199.195318 31.478061 
L 199.272125 31.407134 
L 199.276159 31.26528 
L 199.558383 31.194353 
L 199.558383 31.123426 
L 199.978792 31.052499 
L 200.083408 30.839718 
L 200.093066 30.768791 
L 200.093066 30.697864 
L 200.254572 30.626936 
L 200.269882 30.485082 
L 200.456419 30.414155 
L 200.456419 30.343228 
L 200.949914 30.272301 
L 200.970198 30.130447 
L 201.126205 30.05952 
L 201.200995 29.846739 
L 202.04472 29.775812 
L 202.04472 29.704885 
L 202.386256 29.633958 
L 202.413586 29.492104 
L 202.827191 29.421176 
L 202.880548 29.279322 
L 203.138516 29.208395 
L 203.138516 29.137468 
L 203.404334 29.066541 
L 203.502853 28.924687 
L 203.676026 28.85376 
L 203.749303 28.640979 
L 205.572275 28.570052 
L 205.592467 28.428198 
L 206.086132 28.357271 
L 206.086132 28.286344 
L 206.56991 28.215416 
L 206.56991 28.144489 
L 207.911333 28.073562 
L 207.911333 28.002635 
L 209.340248 27.931708 
L 209.343791 27.789854 
L 211.477156 27.718927 
L 211.477156 27.648 
L 360.8064 27.648 
L 360.8064 27.648 
" style="fill: none; stroke: #000080; stroke-width: 1.5; stroke-linecap: square"/>
   </g>
   <g id="line2d_36">
    <defs>
     <path id="m2db201e3a3" d="M 0 6 
C 1.591219 6 3.117479 5.367802 4.242641 4.242641 
C 5.367802 3.117479 6 1.591219 6 0 
C 6 -1.591219 5.367802 -3.117479 4.242641 -4.242641 
C 3.117479 -5.367802 1.591219 -6 0 -6 
C -1.591219 -6 -3.117479 -5.367802 -4.242641 -4.242641 
C -5.367802 -3.117479 -6 -1.591219 -6 0 
C -6 1.591219 -5.367802 3.117479 -4.242641 4.242641 
C -3.117479 5.367802 -1.591219 6 0 6 
z
" style="stroke: #000080; stroke-width: 1.5"/>
    </defs>
    <g>
     <use xlink:href="#m2db201e3a3" x="142.290162" y="233.83296" style="fill-opacity: 0; stroke: #000080; stroke-width: 1.5"/>
     <use xlink:href="#m2db201e3a3" x="166.758217" y="145.670626" style="fill-opacity: 0; stroke: #000080; stroke-width: 1.5"/>
     <use xlink:href="#m2db201e3a3" x="211.477156" y="27.718927" style="fill-opacity: 0; stroke: #000080; stroke-width: 1.5"/>
     <use xlink:href="#m2db201e3a3" x="211.477156" y="27.648" style="fill-opacity: 0; stroke: #000080; stroke-width: 1.5"/>
     <use xlink:href="#m2db201e3a3" x="211.477156" y="27.648" style="fill-opacity: 0; stroke: #000080; stroke-width: 1.5"/>
     <use xlink:href="#m2db201e3a3" x="360.8064" y="27.648" style="fill-opacity: 0; stroke: #000080; stroke-width: 1.5"/>
    </g>
   </g>
   <g id="line2d_37">
    <path style="fill: none; stroke: #000080; stroke-width: 1.5; stroke-linecap: square"/>
    <g/>
   </g>
   <g id="line2d_38">
    <path d="M 103.707211 267.665167 
" clip-path="url(#p9e68bd0211)" style="fill: none; stroke: #000080; stroke-width: 1.5; stroke-linecap: square"/>
    <defs>
     <path id="m4bb1ae2121" d="M -12 12 
L 12 -12 
M -12 -12 
L 12 12 
" style="stroke: #000080"/>
    </defs>
    <g clip-path="url(#p9e68bd0211)">
     <use xlink:href="#m4bb1ae2121" x="103.707211" y="267.665167" style="fill: #000080; stroke: #000080"/>
    </g>
   </g>
   <g id="line2d_39">
    <defs>
     <path id="m67fb668d5d" d="M 0 1.5 
C 0.397805 1.5 0.77937 1.341951 1.06066 1.06066 
C 1.341951 0.77937 1.5 0.397805 1.5 0 
C 1.5 -0.397805 1.341951 -0.77937 1.06066 -1.06066 
C 0.77937 -1.341951 0.397805 -1.5 0 -1.5 
C -0.397805 -1.5 -0.77937 -1.341951 -1.06066 -1.06066 
C -1.341951 -0.77937 -1.5 -0.397805 -1.5 0 
C -1.5 0.397805 -1.341951 0.77937 -1.06066 1.06066 
C -0.77937 1.341951 -0.397805 1.5 0 1.5 
z
" style="stroke: #ff00ff"/>
    </defs>
    <g>
     <use xlink:href="#m67fb668d5d" x="173.769827" y="27.648" style="fill: #ff00ff; stroke: #ff00ff"/>
     <use xlink:href="#m67fb668d5d" x="173.769827" y="27.648" style="fill: #ff00ff; stroke: #ff00ff"/>
    </g>
   </g>
   <g id="line2d_40">
    <path d="M 27.323974 298.944 
L 27.323974 292.9152 
L 40.363149 292.9152 
L 40.363149 292.560565 
L 47.990577 292.560565 
L 47.990577 291.851294 
L 53.402323 291.851294 
L 53.402323 291.142024 
L 57.6 291.142024 
L 57.6 289.368847 
L 61.029752 289.368847 
L 61.029752 289.014212 
L 66.441498 289.014212 
L 66.441498 288.304941 
L 70.639174 288.304941 
L 70.639174 287.595671 
L 72.432107 287.595671 
L 72.432107 286.8864 
L 75.574654 286.8864 
L 75.574654 286.177129 
L 76.96874 286.177129 
L 76.96874 284.758588 
L 78.266603 284.758588 
L 78.266603 284.049318 
L 80.621116 284.049318 
L 80.621116 283.694682 
L 81.696354 283.694682 
L 81.696354 283.340047 
L 82.713442 283.340047 
L 82.713442 282.630776 
L 83.678349 282.630776 
L 83.678349 282.276141 
L 84.596168 282.276141 
L 84.596168 281.921506 
L 85.471281 281.921506 
L 85.471281 281.212235 
L 87.1081 281.212235 
L 87.1081 280.502965 
L 88.613828 280.502965 
L 88.613828 279.439059 
L 90.007914 279.439059 
L 90.007914 278.729788 
L 90.668036 278.729788 
L 90.668036 278.020518 
L 91.305777 278.020518 
L 91.305777 277.665882 
L 91.922605 277.665882 
L 91.922605 276.956612 
L 93.098709 276.956612 
L 93.098709 276.601976 
L 95.752617 276.601976 
L 95.752617 276.247341 
L 96.717523 276.247341 
L 96.717523 275.538071 
L 97.18203 275.538071 
L 97.18203 274.8288 
L 97.635342 274.8288 
L 97.635342 274.474165 
L 100.147275 274.474165 
L 100.147275 273.410259 
L 100.535156 273.410259 
L 100.535156 273.055624 
L 101.287718 273.055624 
L 101.287718 272.346353 
L 101.653002 272.346353 
L 101.653002 271.991718 
L 103.047088 271.991718 
L 103.047088 271.637082 
L 103.380045 271.637082 
L 103.380045 271.282447 
L 104.655893 271.282447 
L 104.655893 270.927812 
L 105.26277 270.927812 
L 105.26277 270.573176 
L 106.137884 270.573176 
L 106.137884 270.218541 
L 106.42077 270.218541 
L 106.42077 269.154635 
L 107.244765 269.154635 
L 107.244765 268.090729 
L 108.034177 268.090729 
L 108.034177 267.736094 
L 108.29012 267.736094 
L 108.29012 267.026824 
L 108.791791 267.026824 
L 108.791791 265.253647 
L 110.449226 265.253647 
L 110.449226 263.835106 
L 110.674517 263.835106 
L 110.674517 262.416565 
L 112.180244 262.416565 
L 112.180244 261.707294 
L 113.186449 261.707294 
L 113.186449 261.352659 
L 113.765312 261.352659 
L 113.765312 260.643388 
L 113.954374 260.643388 
L 113.954374 260.288753 
L 114.510421 260.288753 
L 114.510421 259.579482 
L 115.050503 259.579482 
L 115.050503 259.224847 
L 115.575511 259.224847 
L 115.575511 258.870212 
L 115.747307 258.870212 
L 115.747307 258.160941 
L 116.583514 258.160941 
L 116.583514 257.806306 
L 116.746385 257.806306 
L 116.746385 257.097035 
L 117.067958 257.097035 
L 117.067958 256.387765 
L 117.848632 256.387765 
L 117.848632 255.678494 
L 118.152051 255.678494 
L 118.152051 255.323859 
L 118.74459 255.323859 
L 118.74459 254.969224 
L 119.738639 254.969224 
L 119.738639 254.614588 
L 120.28394 254.614588 
L 120.28394 253.905318 
L 120.41783 253.905318 
L 120.41783 253.196047 
L 120.550775 253.196047 
L 120.550775 252.841412 
L 121.329295 252.841412 
L 121.329295 252.486776 
L 121.581803 252.486776 
L 121.581803 251.777506 
L 121.706797 251.777506 
L 121.706797 251.422871 
L 121.954321 251.422871 
L 121.954321 250.7136 
L 122.319605 250.7136 
L 122.319605 250.004329 
L 122.559246 250.004329 
L 122.559246 249.649694 
L 122.677931 249.649694 
L 122.677931 249.295059 
L 122.795872 249.295059 
L 122.795872 248.940424 
L 122.913079 248.940424 
L 122.913079 248.231153 
L 123.825333 248.231153 
L 123.825333 247.521882 
L 124.046648 247.521882 
L 124.156336 246.457976 
L 124.265389 246.457976 
L 124.265389 246.103341 
L 124.588805 246.103341 
L 124.588805 245.039435 
L 125.929373 245.039435 
L 125.929373 244.330165 
L 126.420564 244.330165 
L 126.517282 242.911624 
L 127.18073 242.911624 
L 127.18073 242.556988 
L 127.366067 242.556988 
L 127.458055 241.138447 
L 127.731351 241.138447 
L 127.731351 240.783812 
L 128.441306 240.783812 
L 128.441306 240.074541 
L 128.614685 240.074541 
L 128.614685 238.656 
L 128.786481 238.656 
L 128.786481 237.946729 
L 129.292652 237.946729 
L 129.292652 236.882824 
L 129.54072 236.882824 
L 129.54072 236.528188 
L 129.7043 236.528188 
L 129.7043 236.173553 
L 129.947033 236.173553 
L 129.947033 235.818918 
L 130.344755 235.818918 
L 130.4233 233.336471 
L 130.579414 233.336471 
L 130.579414 231.563294 
L 130.887807 231.563294 
L 130.887807 230.499388 
L 131.040128 230.499388 
L 131.040128 229.435482 
L 132.001241 229.435482 
L 132.073179 228.726212 
L 132.144842 228.726212 
L 132.144842 228.371576 
L 132.499119 228.371576 
L 132.499119 227.307671 
L 132.915628 227.307671 
L 132.915628 226.953035 
L 133.120474 226.953035 
L 133.120474 226.243765 
L 133.457005 226.243765 
L 133.523594 225.534494 
L 133.78762 225.534494 
L 133.78762 224.825224 
L 134.240933 224.825224 
L 134.240933 224.115953 
L 134.745971 224.115953 
L 134.745971 223.761318 
L 135.116046 223.761318 
L 135.116046 223.406682 
L 135.298389 223.406682 
L 135.298389 221.633506 
L 135.418977 221.633506 
L 135.418977 221.278871 
L 135.657857 221.278871 
L 135.717106 220.214965 
L 135.776169 220.214965 
L 135.776169 218.796424 
L 136.010584 218.796424 
L 136.010584 218.441788 
L 136.126705 218.441788 
L 136.126705 217.732518 
L 136.640557 217.732518 
L 136.640557 217.377882 
L 136.92008 217.377882 
L 136.97549 214.5408 
L 137.195511 214.5408 
L 137.304564 213.122259 
L 137.358854 213.122259 
L 137.358854 212.767624 
L 137.627979 212.767624 
L 137.681345 210.994447 
L 137.787626 210.994447 
L 137.787626 210.285176 
L 138.10291 210.285176 
L 138.206842 201.773929 
L 138.258593 201.773929 
L 138.36167 193.617318 
L 138.412998 193.617318 
L 138.412998 193.262682 
L 138.566146 193.262682 
L 138.566146 192.908047 
L 138.718057 192.908047 
L 138.718057 192.553412 
L 139.018248 192.553412 
L 139.067817 191.844141 
L 139.411192 191.844141 
L 139.459738 190.4256 
L 139.93843 190.4256 
L 139.93843 189.007059 
L 140.26641 189.007059 
L 140.26641 188.652424 
L 140.451292 188.652424 
L 140.543056 178.722635 
L 140.950542 178.722635 
L 140.950542 178.013365 
L 141.084433 178.013365 
L 141.084433 177.304094 
L 141.261484 177.304094 
L 141.349389 176.594824 
L 141.56737 176.594824 
L 141.56737 168.438212 
L 141.995897 168.438212 
L 142.080444 166.665035 
L 142.538777 166.665035 
L 142.538777 164.537224 
L 142.702713 164.537224 
L 142.702713 163.827953 
L 143.38393 163.827953 
L 143.38393 156.025976 
L 143.850356 156.025976 
L 143.850356 155.316706 
L 143.965177 155.316706 
L 143.965177 154.962071 
L 144.2304 154.962071 
L 144.2304 147.514729 
L 144.380294 147.514729 
L 144.454795 145.386918 
L 144.822939 145.386918 
L 144.822939 145.032282 
L 145.112353 145.032282 
L 145.112353 144.677647 
L 145.255407 144.677647 
L 145.255407 144.323012 
L 145.538293 144.323012 
L 145.573357 140.776659 
L 145.7477 140.776659 
L 145.7477 140.422024 
L 145.920443 140.422024 
L 145.920443 140.067388 
L 146.057504 140.067388 
L 146.057504 139.358118 
L 147.054816 139.358118 
L 147.054816 139.003482 
L 149.223672 139.003482 
L 149.223672 138.648847 
L 149.931489 138.648847 
L 149.931489 138.294212 
L 150.152479 138.294212 
L 150.152479 137.584941 
L 152.25492 137.584941 
L 152.25492 137.230306 
L 152.667844 137.230306 
L 152.667844 136.521035 
L 153.328795 136.521035 
L 153.328795 135.457129 
L 154.971412 135.457129 
L 154.971412 134.747859 
L 156.165543 134.747859 
L 156.165543 127.300518 
L 156.482044 127.300518 
L 156.560344 125.527341 
L 157.137431 125.527341 
L 157.137431 124.818071 
L 157.344671 124.818071 
L 157.344671 124.463435 
L 157.934885 124.463435 
L 157.934885 124.1088 
L 158.061563 124.1088 
L 158.061563 123.754165 
L 158.489522 123.754165 
L 158.542339 122.690259 
L 158.873444 122.690259 
L 158.873444 121.980988 
L 159.300416 121.980988 
L 159.401463 111.696565 
L 159.898714 111.696565 
L 159.996606 110.278024 
L 160.061585 110.278024 
L 160.077795 108.859482 
L 160.478568 108.859482 
L 160.541906 106.377035 
L 160.620781 106.377035 
L 160.620781 105.667765 
L 161.194395 105.667765 
L 161.240147 90.418447 
L 161.512345 90.418447 
L 161.602209 88.290635 
L 161.913396 88.290635 
L 161.913396 87.936 
L 162.103487 87.936 
L 162.161592 79.070118 
L 162.233972 79.070118 
L 162.233972 78.715482 
L 162.605924 78.715482 
L 162.605924 78.006212 
L 162.718906 78.006212 
L 162.775144 63.466165 
L 162.887118 63.466165 
L 162.984551 62.402259 
L 162.998429 62.402259 
L 162.998429 53.536376 
L 163.246497 53.536376 
L 163.328465 45.025129 
L 163.3965 45.025129 
L 163.504846 41.124141 
L 163.518345 41.124141 
L 163.531835 39.350965 
L 163.65281 39.350965 
L 163.65281 38.996329 
L 163.971658 38.996329 
L 163.971658 38.641694 
L 164.401432 38.641694 
L 164.452864 35.449976 
L 164.796406 35.449976 
L 164.796406 33.322165 
L 164.959603 33.322165 
L 164.959603 32.612894 
L 165.071763 32.612894 
L 165.121398 31.548988 
L 165.477385 31.548988 
L 165.574415 30.839718 
L 165.707018 30.839718 
L 165.707018 30.485082 
L 166.052194 30.485082 
L 166.052194 29.775812 
L 173.485993 29.775812 
L 173.485993 29.066541 
L 173.75417 29.066541 
L 173.769827 27.648 
L 360.8064 27.648 
L 360.8064 27.648 
" style="fill: none; stroke: #ff00ff; stroke-width: 1.5; stroke-linecap: square"/>
   </g>
   <g id="line2d_41">
    <defs>
     <path id="ma4c49e5ea7" d="M -0 8.485281 
L 5.091169 0 
L 0 -8.485281 
L -5.091169 -0 
z
" style="stroke: #ff00ff; stroke-width: 1.5; stroke-linejoin: miter"/>
    </defs>
    <g>
     <use xlink:href="#ma4c49e5ea7" x="124.588805" y="246.103341" style="fill-opacity: 0; stroke: #ff00ff; stroke-width: 1.5; stroke-linejoin: miter"/>
     <use xlink:href="#ma4c49e5ea7" x="150.152479" y="138.294212" style="fill-opacity: 0; stroke: #ff00ff; stroke-width: 1.5; stroke-linejoin: miter"/>
     <use xlink:href="#ma4c49e5ea7" x="173.769827" y="28.711906" style="fill-opacity: 0; stroke: #ff00ff; stroke-width: 1.5; stroke-linejoin: miter"/>
     <use xlink:href="#ma4c49e5ea7" x="173.769827" y="27.648" style="fill-opacity: 0; stroke: #ff00ff; stroke-width: 1.5; stroke-linejoin: miter"/>
     <use xlink:href="#ma4c49e5ea7" x="173.769827" y="27.648" style="fill-opacity: 0; stroke: #ff00ff; stroke-width: 1.5; stroke-linejoin: miter"/>
     <use xlink:href="#ma4c49e5ea7" x="360.8064" y="27.648" style="fill-opacity: 0; stroke: #ff00ff; stroke-width: 1.5; stroke-linejoin: miter"/>
    </g>
   </g>
   <g id="line2d_42">
    <path style="fill: none; stroke: #ff00ff; stroke-width: 1.5; stroke-linecap: square"/>
    <g/>
   </g>
   <g id="line2d_43">
    <path d="M 360.8064 27.648 
L 380.514816 293.51808 
" style="fill: none; stroke: #000080; stroke-width: 1.5; stroke-linecap: square"/>
    <g>
     <use xlink:href="#m2db201e3a3" x="360.8064" y="27.648" style="fill-opacity: 0; stroke: #000080; stroke-width: 1.5"/>
     <use xlink:href="#m2db201e3a3" x="380.514816" y="293.51808" style="fill-opacity: 0; stroke: #000080; stroke-width: 1.5"/>
    </g>
   </g>
   <g id="line2d_44">
    <path d="M 360.8064 27.648 
L 380.514816 163.296 
" style="fill: none; stroke: #ff00ff; stroke-width: 1.5; stroke-linecap: square"/>
    <g>
     <use xlink:href="#ma4c49e5ea7" x="360.8064" y="27.648" style="fill-opacity: 0; stroke: #ff00ff; stroke-width: 1.5; stroke-linejoin: miter"/>
     <use xlink:href="#ma4c49e5ea7" x="380.514816" y="163.296" style="fill-opacity: 0; stroke: #ff00ff; stroke-width: 1.5; stroke-linejoin: miter"/>
    </g>
   </g>
   <g id="line2d_45">
    <path d="M 360.8064 298.944 
L 360.8064 27.648 
" style="fill: none; stroke: #000000; stroke-width: 1.5; stroke-linecap: square"/>
   </g>
   <g id="patch_3">
    <path d="M 57.6 298.944 
L 360.8064 298.944 
" style="fill: none; stroke: #000000; stroke-width: 0.8; stroke-linejoin: miter; stroke-linecap: square"/>
   </g>
   <g id="patch_4">
    <path d="M 57.6 27.648 
L 360.8064 27.648 
" style="fill: none; stroke: #000000; stroke-width: 0.8; stroke-linejoin: miter; stroke-linecap: square"/>
   </g>
   <g id="text_13">
    <!-- ex -->
    <g transform="translate(386.578944 297.381205)scale(0.14 -0.14)">
     <defs>
      <path id="DejaVuSans-78" d="M 3513 3500 
L 2247 1797 
L 3578 0 
L 2900 0 
L 1881 1375 
L 863 0 
L 184 0 
L 1544 1831 
L 300 3500 
L 978 3500 
L 1906 2253 
L 2834 3500 
L 3513 3500 
z
" transform="scale(0.015625)"/>
     </defs>
     <use xlink:href="#DejaVuSans-65"/>
     <use xlink:href="#DejaVuSans-78" x="59.773438"/>
    </g>
   </g>
   <g id="text_14">
    <!-- CMA-ES-20 -->
    <g transform="translate(386.578944 167.159125)scale(0.14 -0.14)">
     <defs>
      <path id="DejaVuSans-43" d="M 4122 4306 
L 4122 3641 
Q 3803 3938 3442 4084 
Q 3081 4231 2675 4231 
Q 1875 4231 1450 3742 
Q 1025 3253 1025 2328 
Q 1025 1406 1450 917 
Q 1875 428 2675 428 
Q 3081 428 3442 575 
Q 3803 722 4122 1019 
L 4122 359 
Q 3791 134 3420 21 
Q 3050 -91 2638 -91 
Q 1578 -91 968 557 
Q 359 1206 359 2328 
Q 359 3453 968 4101 
Q 1578 4750 2638 4750 
Q 3056 4750 3426 4639 
Q 3797 4528 4122 4306 
z
" transform="scale(0.015625)"/>
      <path id="DejaVuSans-4d" d="M 628 4666 
L 1569 4666 
L 2759 1491 
L 3956 4666 
L 4897 4666 
L 4897 0 
L 4281 0 
L 4281 4097 
L 3078 897 
L 2444 897 
L 1241 4097 
L 1241 0 
L 628 0 
L 628 4666 
z
" transform="scale(0.015625)"/>
      <path id="DejaVuSans-41" d="M 2188 4044 
L 1331 1722 
L 3047 1722 
L 2188 4044 
z
M 1831 4666 
L 2547 4666 
L 4325 0 
L 3669 0 
L 3244 1197 
L 1141 1197 
L 716 0 
L 50 0 
L 1831 4666 
z
" transform="scale(0.015625)"/>
      <path id="DejaVuSans-45" d="M 628 4666 
L 3578 4666 
L 3578 4134 
L 1259 4134 
L 1259 2753 
L 3481 2753 
L 3481 2222 
L 1259 2222 
L 1259 531 
L 3634 531 
L 3634 0 
L 628 0 
L 628 4666 
z
" transform="scale(0.015625)"/>
      <path id="DejaVuSans-53" d="M 3425 4513 
L 3425 3897 
Q 3066 4069 2747 4153 
Q 2428 4238 2131 4238 
Q 1616 4238 1336 4038 
Q 1056 3838 1056 3469 
Q 1056 3159 1242 3001 
Q 1428 2844 1947 2747 
L 2328 2669 
Q 3034 2534 3370 2195 
Q 3706 1856 3706 1288 
Q 3706 609 3251 259 
Q 2797 -91 1919 -91 
Q 1588 -91 1214 -16 
Q 841 59 441 206 
L 441 856 
Q 825 641 1194 531 
Q 1563 422 1919 422 
Q 2459 422 2753 634 
Q 3047 847 3047 1241 
Q 3047 1584 2836 1778 
Q 2625 1972 2144 2069 
L 1759 2144 
Q 1053 2284 737 2584 
Q 422 2884 422 3419 
Q 422 4038 858 4394 
Q 1294 4750 2059 4750 
Q 2388 4750 2728 4690 
Q 3069 4631 3425 4513 
z
" transform="scale(0.015625)"/>
     </defs>
     <use xlink:href="#DejaVuSans-43"/>
     <use xlink:href="#DejaVuSans-4d" x="69.824219"/>
     <use xlink:href="#DejaVuSans-41" x="156.103516"/>
     <use xlink:href="#DejaVuSans-2d" x="222.261719"/>
     <use xlink:href="#DejaVuSans-45" x="258.345703"/>
     <use xlink:href="#DejaVuSans-53" x="321.529297"/>
     <use xlink:href="#DejaVuSans-2d" x="385.005859"/>
     <use xlink:href="#DejaVuSans-32" x="421.089844"/>
     <use xlink:href="#DejaVuSans-30" x="484.712891"/>
    </g>
   </g>
   <g id="text_15">
    <!-- best 2009 -->
    <g transform="translate(386.578944 36.937045)scale(0.14 -0.14)">
     <defs>
      <path id="DejaVuSans-62" d="M 3116 1747 
Q 3116 2381 2855 2742 
Q 2594 3103 2138 3103 
Q 1681 3103 1420 2742 
Q 1159 2381 1159 1747 
Q 1159 1113 1420 752 
Q 1681 391 2138 391 
Q 2594 391 2855 752 
Q 3116 1113 3116 1747 
z
M 1159 2969 
Q 1341 3281 1617 3432 
Q 1894 3584 2278 3584 
Q 2916 3584 3314 3078 
Q 3713 2572 3713 1747 
Q 3713 922 3314 415 
Q 2916 -91 2278 -91 
Q 1894 -91 1617 61 
Q 1341 213 1159 525 
L 1159 0 
L 581 0 
L 581 4863 
L 1159 4863 
L 1159 2969 
z
" transform="scale(0.015625)"/>
      <path id="DejaVuSans-39" d="M 703 97 
L 703 672 
Q 941 559 1184 500 
Q 1428 441 1663 441 
Q 2288 441 2617 861 
Q 2947 1281 2994 2138 
Q 2813 1869 2534 1725 
Q 2256 1581 1919 1581 
Q 1219 1581 811 2004 
Q 403 2428 403 3163 
Q 403 3881 828 4315 
Q 1253 4750 1959 4750 
Q 2769 4750 3195 4129 
Q 3622 3509 3622 2328 
Q 3622 1225 3098 567 
Q 2575 -91 1691 -91 
Q 1453 -91 1209 -44 
Q 966 3 703 97 
z
M 1959 2075 
Q 2384 2075 2632 2365 
Q 2881 2656 2881 3163 
Q 2881 3666 2632 3958 
Q 2384 4250 1959 4250 
Q 1534 4250 1286 3958 
Q 1038 3666 1038 3163 
Q 1038 2656 1286 2365 
Q 1534 2075 1959 2075 
z
" transform="scale(0.015625)"/>
     </defs>
     <use xlink:href="#DejaVuSans-62"/>
     <use xlink:href="#DejaVuSans-65" x="63.476562"/>
     <use xlink:href="#DejaVuSans-73" x="125"/>
     <use xlink:href="#DejaVuSans-74" x="177.099609"/>
     <use xlink:href="#DejaVuSans-20" x="216.308594"/>
     <use xlink:href="#DejaVuSans-32" x="248.095703"/>
     <use xlink:href="#DejaVuSans-30" x="311.71875"/>
     <use xlink:href="#DejaVuSans-30" x="375.341797"/>
     <use xlink:href="#DejaVuSans-39" x="438.964844"/>
    </g>
   </g>
   <g id="text_16">
    <!-- bbob f7, 5-D -->
    <g transform="translate(60.632064 38.111366)scale(0.102 -0.102)">
     <defs>
      <path id="DejaVuSans-37" d="M 525 4666 
L 3525 4666 
L 3525 4397 
L 1831 0 
L 1172 0 
L 2766 4134 
L 525 4134 
L 525 4666 
z
" transform="scale(0.015625)"/>
      <path id="DejaVuSans-35" d="M 691 4666 
L 3169 4666 
L 3169 4134 
L 1269 4134 
L 1269 2991 
Q 1406 3038 1543 3061 
Q 1681 3084 1819 3084 
Q 2600 3084 3056 2656 
Q 3513 2228 3513 1497 
Q 3513 744 3044 326 
Q 2575 -91 1722 -91 
Q 1428 -91 1123 -41 
Q 819 9 494 109 
L 494 744 
Q 775 591 1075 516 
Q 1375 441 1709 441 
Q 2250 441 2565 725 
Q 2881 1009 2881 1497 
Q 2881 1984 2565 2268 
Q 2250 2553 1709 2553 
Q 1456 2553 1204 2497 
Q 953 2441 691 2322 
L 691 4666 
z
" transform="scale(0.015625)"/>
      <path id="DejaVuSans-44" d="M 1259 4147 
L 1259 519 
L 2022 519 
Q 2988 519 3436 956 
Q 3884 1394 3884 2338 
Q 3884 3275 3436 3711 
Q 2988 4147 2022 4147 
L 1259 4147 
z
M 628 4666 
L 1925 4666 
Q 3281 4666 3915 4102 
Q 4550 3538 4550 2338 
Q 4550 1131 3912 565 
Q 3275 0 1925 0 
L 628 0 
L 628 4666 
z
" transform="scale(0.015625)"/>
     </defs>
     <use xlink:href="#DejaVuSans-62"/>
     <use xlink:href="#DejaVuSans-62" x="63.476562"/>
     <use xlink:href="#DejaVuSans-6f" x="126.953125"/>
     <use xlink:href="#DejaVuSans-62" x="188.134766"/>
     <use xlink:href="#DejaVuSans-20" x="251.611328"/>
     <use xlink:href="#DejaVuSans-66" x="283.398438"/>
     <use xlink:href="#DejaVuSans-37" x="318.603516"/>
     <use xlink:href="#DejaVuSans-2c" x="382.226562"/>
     <use xlink:href="#DejaVuSans-20" x="414.013672"/>
     <use xlink:href="#DejaVuSans-35" x="445.800781"/>
     <use xlink:href="#DejaVuSans-2d" x="509.423828"/>
     <use xlink:href="#DejaVuSans-44" x="545.507812"/>
    </g>
    <!-- 51 targets: 100..1e-08 -->
    <g transform="translate(60.632064 49.533135)scale(0.102 -0.102)">
     <defs>
      <path id="DejaVuSans-3a" d="M 750 794 
L 1409 794 
L 1409 0 
L 750 0 
L 750 794 
z
M 750 3309 
L 1409 3309 
L 1409 2516 
L 750 2516 
L 750 3309 
z
" transform="scale(0.015625)"/>
     </defs>
     <use xlink:href="#DejaVuSans-35"/>
     <use xlink:href="#DejaVuSans-31" x="63.623047"/>
     <use xlink:href="#DejaVuSans-20" x="127.246094"/>
     <use xlink:href="#DejaVuSans-74" x="159.033203"/>
     <use xlink:href="#DejaVuSans-61" x="198.242188"/>
     <use xlink:href="#DejaVuSans-72" x="259.521484"/>
     <use xlink:href="#DejaVuSans-67" x="298.884766"/>
     <use xlink:href="#DejaVuSans-65" x="362.361328"/>
     <use xlink:href="#DejaVuSans-74" x="423.884766"/>
     <use xlink:href="#DejaVuSans-73" x="463.09375"/>
     <use xlink:href="#DejaVuSans-3a" x="515.193359"/>
     <use xlink:href="#DejaVuSans-20" x="548.884766"/>
     <use xlink:href="#DejaVuSans-31" x="580.671875"/>
     <use xlink:href="#DejaVuSans-30" x="644.294922"/>
     <use xlink:href="#DejaVuSans-30" x="707.917969"/>
     <use xlink:href="#DejaVuSans-2e" x="771.541016"/>
     <use xlink:href="#DejaVuSans-2e" x="803.328125"/>
     <use xlink:href="#DejaVuSans-31" x="835.115234"/>
     <use xlink:href="#DejaVuSans-65" x="898.738281"/>
     <use xlink:href="#DejaVuSans-2d" x="960.261719"/>
     <use xlink:href="#DejaVuSans-30" x="996.345703"/>
     <use xlink:href="#DejaVuSans-38" x="1059.96875"/>
    </g>
    <!-- 25, 15 instances -->
    <g transform="translate(60.632064 60.954904)scale(0.102 -0.102)">
     <use xlink:href="#DejaVuSans-32"/>
     <use xlink:href="#DejaVuSans-35" x="63.623047"/>
     <use xlink:href="#DejaVuSans-2c" x="127.246094"/>
     <use xlink:href="#DejaVuSans-20" x="159.033203"/>
     <use xlink:href="#DejaVuSans-31" x="190.820312"/>
     <use xlink:href="#DejaVuSans-35" x="254.443359"/>
     <use xlink:href="#DejaVuSans-20" x="318.066406"/>
     <use xlink:href="#DejaVuSans-69" x="349.853516"/>
     <use xlink:href="#DejaVuSans-6e" x="377.636719"/>
     <use xlink:href="#DejaVuSans-73" x="441.015625"/>
     <use xlink:href="#DejaVuSans-74" x="493.115234"/>
     <use xlink:href="#DejaVuSans-61" x="532.324219"/>
     <use xlink:href="#DejaVuSans-6e" x="593.603516"/>
     <use xlink:href="#DejaVuSans-63" x="656.982422"/>
     <use xlink:href="#DejaVuSans-65" x="711.962891"/>
     <use xlink:href="#DejaVuSans-73" x="773.486328"/>
    </g>
   </g>
   <g id="text_17">
    <!-- v2.6 -->
    <g style="fill: #808080" transform="translate(198.292262 294.151352)scale(0.1 -0.1)">
     <use xlink:href="#DejaVuSans-76"/>
     <use xlink:href="#DejaVuSans-32" x="59.179688"/>
     <use xlink:href="#DejaVuSans-2e" x="122.802734"/>
     <use xlink:href="#DejaVuSans-36" x="154.589844"/>
    </g>
   </g>
   <g id="text_18">
    <!-- 7 Step-ellipsoid -->
    <g transform="translate(131.993825 21.648)scale(0.2 -0.2)">
     <use xlink:href="#DejaVuSans-37"/>
     <use xlink:href="#DejaVuSans-20" x="63.623047"/>
     <use xlink:href="#DejaVuSans-53" x="95.410156"/>
     <use xlink:href="#DejaVuSans-74" x="158.886719"/>
     <use xlink:href="#DejaVuSans-65" x="198.095703"/>
     <use xlink:href="#DejaVuSans-70" x="259.619141"/>
     <use xlink:href="#DejaVuSans-2d" x="323.095703"/>
     <use xlink:href="#DejaVuSans-65" x="359.179688"/>
     <use xlink:href="#DejaVuSans-6c" x="420.703125"/>
     <use xlink:href="#DejaVuSans-6c" x="448.486328"/>
     <use xlink:href="#DejaVuSans-69" x="476.269531"/>
     <use xlink:href="#DejaVuSans-70" x="504.052734"/>
     <use xlink:href="#DejaVuSans-73" x="567.529297"/>
     <use xlink:href="#DejaVuSans-6f" x="619.628906"/>
     <use xlink:href="#DejaVuSans-69" x="680.810547"/>
     <use xlink:href="#DejaVuSans-64" x="708.59375"/>
    </g>
   </g>
  </g>
 </g>
 <defs>
  <clipPath id="p9e68bd0211">
   <rect x="57.6" y="27.648" width="303.2064" height="271.296"/>
  </clipPath>
 </defs>
</svg>
