<?xml version="1.0" encoding="utf-8" standalone="no"?>
<!DOCTYPE svg PUBLIC "-//W3C//DTD SVG 1.1//EN"
  "http://www.w3.org/Graphics/SVG/1.1/DTD/svg11.dtd">
<svg xmlns:xlink="http://www.w3.org/1999/xlink" width="460.8pt" height="345.6pt" viewBox="0 0 460.8 345.6" xmlns="http://www.w3.org/2000/svg" version="1.1">
 <metadata>
  <rdf:RDF xmlns:dc="http://purl.org/dc/elements/1.1/" xmlns:cc="http://creativecommons.org/ns#" xmlns:rdf="http://www.w3.org/1999/02/22-rdf-syntax-ns#">
   <cc:Work>
    <dc:type rdf:resource="http://purl.org/dc/dcmitype/StillImage"/>
    <dc:date>2022-03-16T23:34:55.616259</dc:date>
    <dc:format>image/svg+xml</dc:format>
    <dc:creator>
     <cc:Agent>
      <dc:title>Matplotlib v3.5.1, https://matplotlib.org/</dc:title>
     </cc:Agent>
    </dc:creator>
   </cc:Work>
  </rdf:RDF>
 </metadata>
 <defs>
  <style type="text/css">*{stroke-linejoin: round; stroke-linecap: butt}</style>
 </defs>
 <g id="figure_1">
  <g id="patch_1">
   <path d="M 0 345.6 
L 460.8 345.6 
L 460.8 0 
L 0 0 
z
" style="fill: #ffffff"/>
  </g>
  <g id="axes_1">
   <g id="patch_2">
    <path d="M 57.6 298.944 
L 360.8064 298.944 
L 360.8064 27.648 
L 57.6 27.648 
z
" style="fill: #ffffff"/>
   </g>
   <g id="line2d_1">
    <path d="M 108.542628 298.944 
L 108.542628 293.624471 
L 109.280431 293.624471 
L 109.280431 288.304941 
L 110.221204 288.304941 
L 110.221204 282.985412 
L 110.449226 282.985412 
L 110.449226 267.026824 
L 110.897141 267.026824 
L 110.897141 261.707294 
L 111.334639 261.707294 
L 111.334639 240.429176 
L 111.54963 240.429176 
L 111.54963 208.512 
L 111.762192 208.512 
L 111.762192 176.594824 
L 111.97238 176.594824 
L 111.97238 149.997176 
L 112.180244 149.997176 
L 112.180244 118.08 
L 112.385837 118.08 
L 112.385837 102.121412 
L 112.589207 102.121412 
L 112.589207 64.884706 
L 112.790402 64.884706 
L 112.790402 43.606588 
L 112.989468 43.606588 
L 112.989468 27.648 
L 360.8064 27.648 
" style="fill: none; stroke: #f5deb3; stroke-width: 4; stroke-linecap: square"/>
   </g>
   <g id="line2d_2">
    <defs>
     <path id="me144ebcd0f" d="M -0 7.778175 
L 7.778175 0 
L 0 -7.778175 
L -7.778175 -0 
z
" style="stroke: #f5deb3; stroke-width: 1.5; stroke-linejoin: miter"/>
    </defs>
    <g>
     <use xlink:href="#me144ebcd0f" x="111.97238" y="176.594824" style="fill: #f5deb3; stroke: #f5deb3; stroke-width: 1.5; stroke-linejoin: miter"/>
     <use xlink:href="#me144ebcd0f" x="112.989468" y="43.606588" style="fill: #f5deb3; stroke: #f5deb3; stroke-width: 1.5; stroke-linejoin: miter"/>
     <use xlink:href="#me144ebcd0f" x="112.989468" y="27.648" style="fill: #f5deb3; stroke: #f5deb3; stroke-width: 1.5; stroke-linejoin: miter"/>
     <use xlink:href="#me144ebcd0f" x="112.989468" y="27.648" style="fill: #f5deb3; stroke: #f5deb3; stroke-width: 1.5; stroke-linejoin: miter"/>
     <use xlink:href="#me144ebcd0f" x="360.8064" y="27.648" style="fill: #f5deb3; stroke: #f5deb3; stroke-width: 1.5; stroke-linejoin: miter"/>
    </g>
   </g>
   <g id="line2d_3">
    <path style="fill: none; stroke: #f5deb3; stroke-width: 4; stroke-linecap: square"/>
    <g/>
   </g>
   <g id="line2d_4">
    <path d="M 360.8064 27.648 
L 380.514816 33.07392 
" style="fill: none; stroke: #f5deb3; stroke-width: 4; stroke-linecap: square"/>
    <g>
     <use xlink:href="#me144ebcd0f" x="360.8064" y="27.648" style="fill: #f5deb3; stroke: #f5deb3; stroke-width: 1.5; stroke-linejoin: miter"/>
     <use xlink:href="#me144ebcd0f" x="380.514816" y="33.07392" style="fill: #f5deb3; stroke: #f5deb3; stroke-width: 1.5; stroke-linejoin: miter"/>
    </g>
   </g>
   <g id="matplotlib.axis_1">
    <g id="xtick_1">
     <g id="line2d_5">
      <path d="M 57.6 298.944 
L 57.6 27.648 
" clip-path="url(#p717d203520)" style="fill: none; stroke: #b0b0b0; stroke-width: 0.8; stroke-linecap: square"/>
     </g>
     <g id="line2d_6">
      <defs>
       <path id="m9ee4874bdf" d="M 0 0 
L 0 3.5 
" style="stroke: #000000; stroke-width: 0.8"/>
      </defs>
      <g>
       <use xlink:href="#m9ee4874bdf" x="57.6" y="298.944" style="stroke: #000000; stroke-width: 0.8"/>
      </g>
     </g>
     <g id="text_1">
      <!-- 0 -->
      <g transform="translate(52.191875 318.861344)scale(0.17 -0.17)">
       <defs>
        <path id="DejaVuSans-30" d="M 2034 4250 
Q 1547 4250 1301 3770 
Q 1056 3291 1056 2328 
Q 1056 1369 1301 889 
Q 1547 409 2034 409 
Q 2525 409 2770 889 
Q 3016 1369 3016 2328 
Q 3016 3291 2770 3770 
Q 2525 4250 2034 4250 
z
M 2034 4750 
Q 2819 4750 3233 4129 
Q 3647 3509 3647 2328 
Q 3647 1150 3233 529 
Q 2819 -91 2034 -91 
Q 1250 -91 836 529 
Q 422 1150 422 2328 
Q 422 3509 836 4129 
Q 1250 4750 2034 4750 
z
" transform="scale(0.015625)"/>
       </defs>
       <use xlink:href="#DejaVuSans-30"/>
      </g>
     </g>
    </g>
    <g id="xtick_2">
     <g id="line2d_7">
      <path d="M 144.2304 298.944 
L 144.2304 27.648 
" clip-path="url(#p717d203520)" style="fill: none; stroke: #b0b0b0; stroke-width: 0.8; stroke-linecap: square"/>
     </g>
     <g id="line2d_8">
      <g>
       <use xlink:href="#m9ee4874bdf" x="144.2304" y="298.944" style="stroke: #000000; stroke-width: 0.8"/>
      </g>
     </g>
     <g id="text_2">
      <!-- 2 -->
      <g transform="translate(138.822275 318.861344)scale(0.17 -0.17)">
       <defs>
        <path id="DejaVuSans-32" d="M 1228 531 
L 3431 531 
L 3431 0 
L 469 0 
L 469 531 
Q 828 903 1448 1529 
Q 2069 2156 2228 2338 
Q 2531 2678 2651 2914 
Q 2772 3150 2772 3378 
Q 2772 3750 2511 3984 
Q 2250 4219 1831 4219 
Q 1534 4219 1204 4116 
Q 875 4013 500 3803 
L 500 4441 
Q 881 4594 1212 4672 
Q 1544 4750 1819 4750 
Q 2544 4750 2975 4387 
Q 3406 4025 3406 3419 
Q 3406 3131 3298 2873 
Q 3191 2616 2906 2266 
Q 2828 2175 2409 1742 
Q 1991 1309 1228 531 
z
" transform="scale(0.015625)"/>
       </defs>
       <use xlink:href="#DejaVuSans-32"/>
      </g>
     </g>
    </g>
    <g id="xtick_3">
     <g id="line2d_9">
      <path d="M 230.8608 298.944 
L 230.8608 27.648 
" clip-path="url(#p717d203520)" style="fill: none; stroke: #b0b0b0; stroke-width: 0.8; stroke-linecap: square"/>
     </g>
     <g id="line2d_10">
      <g>
       <use xlink:href="#m9ee4874bdf" x="230.8608" y="298.944" style="stroke: #000000; stroke-width: 0.8"/>
      </g>
     </g>
     <g id="text_3">
      <!-- 4 -->
      <g transform="translate(225.452675 318.861344)scale(0.17 -0.17)">
       <defs>
        <path id="DejaVuSans-34" d="M 2419 4116 
L 825 1625 
L 2419 1625 
L 2419 4116 
z
M 2253 4666 
L 3047 4666 
L 3047 1625 
L 3713 1625 
L 3713 1100 
L 3047 1100 
L 3047 0 
L 2419 0 
L 2419 1100 
L 313 1100 
L 313 1709 
L 2253 4666 
z
" transform="scale(0.015625)"/>
       </defs>
       <use xlink:href="#DejaVuSans-34"/>
      </g>
     </g>
    </g>
    <g id="xtick_4">
     <g id="line2d_11">
      <path d="M 317.4912 298.944 
L 317.4912 27.648 
" clip-path="url(#p717d203520)" style="fill: none; stroke: #b0b0b0; stroke-width: 0.8; stroke-linecap: square"/>
     </g>
     <g id="line2d_12">
      <g>
       <use xlink:href="#m9ee4874bdf" x="317.4912" y="298.944" style="stroke: #000000; stroke-width: 0.8"/>
      </g>
     </g>
     <g id="text_4">
      <!-- 6 -->
      <g transform="translate(312.083075 318.861344)scale(0.17 -0.17)">
       <defs>
        <path id="DejaVuSans-36" d="M 2113 2584 
Q 1688 2584 1439 2293 
Q 1191 2003 1191 1497 
Q 1191 994 1439 701 
Q 1688 409 2113 409 
Q 2538 409 2786 701 
Q 3034 994 3034 1497 
Q 3034 2003 2786 2293 
Q 2538 2584 2113 2584 
z
M 3366 4563 
L 3366 3988 
Q 3128 4100 2886 4159 
Q 2644 4219 2406 4219 
Q 1781 4219 1451 3797 
Q 1122 3375 1075 2522 
Q 1259 2794 1537 2939 
Q 1816 3084 2150 3084 
Q 2853 3084 3261 2657 
Q 3669 2231 3669 1497 
Q 3669 778 3244 343 
Q 2819 -91 2113 -91 
Q 1303 -91 875 529 
Q 447 1150 447 2328 
Q 447 3434 972 4092 
Q 1497 4750 2381 4750 
Q 2619 4750 2861 4703 
Q 3103 4656 3366 4563 
z
" transform="scale(0.015625)"/>
       </defs>
       <use xlink:href="#DejaVuSans-36"/>
      </g>
     </g>
    </g>
    <g id="xtick_5">
     <g id="line2d_13">
      <path d="M 100.9152 298.944 
L 100.9152 27.648 
" clip-path="url(#p717d203520)" style="fill: none; stroke: #b0b0b0; stroke-width: 0.8; stroke-linecap: square"/>
     </g>
     <g id="line2d_14">
      <defs>
       <path id="m8cd0964bac" d="M 0 0 
L 0 2 
" style="stroke: #000000; stroke-width: 0.6"/>
      </defs>
      <g>
       <use xlink:href="#m8cd0964bac" x="100.9152" y="298.944" style="stroke: #000000; stroke-width: 0.6"/>
      </g>
     </g>
    </g>
    <g id="xtick_6">
     <g id="line2d_15">
      <path d="M 187.5456 298.944 
L 187.5456 27.648 
" clip-path="url(#p717d203520)" style="fill: none; stroke: #b0b0b0; stroke-width: 0.8; stroke-linecap: square"/>
     </g>
     <g id="line2d_16">
      <g>
       <use xlink:href="#m8cd0964bac" x="187.5456" y="298.944" style="stroke: #000000; stroke-width: 0.6"/>
      </g>
     </g>
    </g>
    <g id="xtick_7">
     <g id="line2d_17">
      <path d="M 274.176 298.944 
L 274.176 27.648 
" clip-path="url(#p717d203520)" style="fill: none; stroke: #b0b0b0; stroke-width: 0.8; stroke-linecap: square"/>
     </g>
     <g id="line2d_18">
      <g>
       <use xlink:href="#m8cd0964bac" x="274.176" y="298.944" style="stroke: #000000; stroke-width: 0.6"/>
      </g>
     </g>
    </g>
    <g id="xtick_8">
     <g id="line2d_19">
      <path d="M 360.8064 298.944 
L 360.8064 27.648 
" clip-path="url(#p717d203520)" style="fill: none; stroke: #b0b0b0; stroke-width: 0.8; stroke-linecap: square"/>
     </g>
     <g id="line2d_20">
      <g>
       <use xlink:href="#m8cd0964bac" x="360.8064" y="298.944" style="stroke: #000000; stroke-width: 0.6"/>
      </g>
     </g>
    </g>
    <g id="text_5">
     <!-- log10(# f-evals / dimension) -->
     <g transform="translate(88.823278 339.314156)scale(0.17 -0.17)">
      <defs>
       <path id="DejaVuSans-6c" d="M 603 4863 
L 1178 4863 
L 1178 0 
L 603 0 
L 603 4863 
z
" transform="scale(0.015625)"/>
       <path id="DejaVuSans-6f" d="M 1959 3097 
Q 1497 3097 1228 2736 
Q 959 2375 959 1747 
Q 959 1119 1226 758 
Q 1494 397 1959 397 
Q 2419 397 2687 759 
Q 2956 1122 2956 1747 
Q 2956 2369 2687 2733 
Q 2419 3097 1959 3097 
z
M 1959 3584 
Q 2709 3584 3137 3096 
Q 3566 2609 3566 1747 
Q 3566 888 3137 398 
Q 2709 -91 1959 -91 
Q 1206 -91 779 398 
Q 353 888 353 1747 
Q 353 2609 779 3096 
Q 1206 3584 1959 3584 
z
" transform="scale(0.015625)"/>
       <path id="DejaVuSans-67" d="M 2906 1791 
Q 2906 2416 2648 2759 
Q 2391 3103 1925 3103 
Q 1463 3103 1205 2759 
Q 947 2416 947 1791 
Q 947 1169 1205 825 
Q 1463 481 1925 481 
Q 2391 481 2648 825 
Q 2906 1169 2906 1791 
z
M 3481 434 
Q 3481 -459 3084 -895 
Q 2688 -1331 1869 -1331 
Q 1566 -1331 1297 -1286 
Q 1028 -1241 775 -1147 
L 775 -588 
Q 1028 -725 1275 -790 
Q 1522 -856 1778 -856 
Q 2344 -856 2625 -561 
Q 2906 -266 2906 331 
L 2906 616 
Q 2728 306 2450 153 
Q 2172 0 1784 0 
Q 1141 0 747 490 
Q 353 981 353 1791 
Q 353 2603 747 3093 
Q 1141 3584 1784 3584 
Q 2172 3584 2450 3431 
Q 2728 3278 2906 2969 
L 2906 3500 
L 3481 3500 
L 3481 434 
z
" transform="scale(0.015625)"/>
       <path id="DejaVuSans-31" d="M 794 531 
L 1825 531 
L 1825 4091 
L 703 3866 
L 703 4441 
L 1819 4666 
L 2450 4666 
L 2450 531 
L 3481 531 
L 3481 0 
L 794 0 
L 794 531 
z
" transform="scale(0.015625)"/>
       <path id="DejaVuSans-28" d="M 1984 4856 
Q 1566 4138 1362 3434 
Q 1159 2731 1159 2009 
Q 1159 1288 1364 580 
Q 1569 -128 1984 -844 
L 1484 -844 
Q 1016 -109 783 600 
Q 550 1309 550 2009 
Q 550 2706 781 3412 
Q 1013 4119 1484 4856 
L 1984 4856 
z
" transform="scale(0.015625)"/>
       <path id="DejaVuSans-23" d="M 3272 2816 
L 2363 2816 
L 2100 1772 
L 3016 1772 
L 3272 2816 
z
M 2803 4594 
L 2478 3297 
L 3391 3297 
L 3719 4594 
L 4219 4594 
L 3897 3297 
L 4872 3297 
L 4872 2816 
L 3775 2816 
L 3519 1772 
L 4513 1772 
L 4513 1294 
L 3397 1294 
L 3072 0 
L 2572 0 
L 2894 1294 
L 1978 1294 
L 1656 0 
L 1153 0 
L 1478 1294 
L 494 1294 
L 494 1772 
L 1594 1772 
L 1856 2816 
L 850 2816 
L 850 3297 
L 1978 3297 
L 2297 4594 
L 2803 4594 
z
" transform="scale(0.015625)"/>
       <path id="DejaVuSans-20" transform="scale(0.015625)"/>
       <path id="DejaVuSans-66" d="M 2375 4863 
L 2375 4384 
L 1825 4384 
Q 1516 4384 1395 4259 
Q 1275 4134 1275 3809 
L 1275 3500 
L 2222 3500 
L 2222 3053 
L 1275 3053 
L 1275 0 
L 697 0 
L 697 3053 
L 147 3053 
L 147 3500 
L 697 3500 
L 697 3744 
Q 697 4328 969 4595 
Q 1241 4863 1831 4863 
L 2375 4863 
z
" transform="scale(0.015625)"/>
       <path id="DejaVuSans-2d" d="M 313 2009 
L 1997 2009 
L 1997 1497 
L 313 1497 
L 313 2009 
z
" transform="scale(0.015625)"/>
       <path id="DejaVuSans-65" d="M 3597 1894 
L 3597 1613 
L 953 1613 
Q 991 1019 1311 708 
Q 1631 397 2203 397 
Q 2534 397 2845 478 
Q 3156 559 3463 722 
L 3463 178 
Q 3153 47 2828 -22 
Q 2503 -91 2169 -91 
Q 1331 -91 842 396 
Q 353 884 353 1716 
Q 353 2575 817 3079 
Q 1281 3584 2069 3584 
Q 2775 3584 3186 3129 
Q 3597 2675 3597 1894 
z
M 3022 2063 
Q 3016 2534 2758 2815 
Q 2500 3097 2075 3097 
Q 1594 3097 1305 2825 
Q 1016 2553 972 2059 
L 3022 2063 
z
" transform="scale(0.015625)"/>
       <path id="DejaVuSans-76" d="M 191 3500 
L 800 3500 
L 1894 563 
L 2988 3500 
L 3597 3500 
L 2284 0 
L 1503 0 
L 191 3500 
z
" transform="scale(0.015625)"/>
       <path id="DejaVuSans-61" d="M 2194 1759 
Q 1497 1759 1228 1600 
Q 959 1441 959 1056 
Q 959 750 1161 570 
Q 1363 391 1709 391 
Q 2188 391 2477 730 
Q 2766 1069 2766 1631 
L 2766 1759 
L 2194 1759 
z
M 3341 1997 
L 3341 0 
L 2766 0 
L 2766 531 
Q 2569 213 2275 61 
Q 1981 -91 1556 -91 
Q 1019 -91 701 211 
Q 384 513 384 1019 
Q 384 1609 779 1909 
Q 1175 2209 1959 2209 
L 2766 2209 
L 2766 2266 
Q 2766 2663 2505 2880 
Q 2244 3097 1772 3097 
Q 1472 3097 1187 3025 
Q 903 2953 641 2809 
L 641 3341 
Q 956 3463 1253 3523 
Q 1550 3584 1831 3584 
Q 2591 3584 2966 3190 
Q 3341 2797 3341 1997 
z
" transform="scale(0.015625)"/>
       <path id="DejaVuSans-73" d="M 2834 3397 
L 2834 2853 
Q 2591 2978 2328 3040 
Q 2066 3103 1784 3103 
Q 1356 3103 1142 2972 
Q 928 2841 928 2578 
Q 928 2378 1081 2264 
Q 1234 2150 1697 2047 
L 1894 2003 
Q 2506 1872 2764 1633 
Q 3022 1394 3022 966 
Q 3022 478 2636 193 
Q 2250 -91 1575 -91 
Q 1294 -91 989 -36 
Q 684 19 347 128 
L 347 722 
Q 666 556 975 473 
Q 1284 391 1588 391 
Q 1994 391 2212 530 
Q 2431 669 2431 922 
Q 2431 1156 2273 1281 
Q 2116 1406 1581 1522 
L 1381 1569 
Q 847 1681 609 1914 
Q 372 2147 372 2553 
Q 372 3047 722 3315 
Q 1072 3584 1716 3584 
Q 2034 3584 2315 3537 
Q 2597 3491 2834 3397 
z
" transform="scale(0.015625)"/>
       <path id="DejaVuSans-2f" d="M 1625 4666 
L 2156 4666 
L 531 -594 
L 0 -594 
L 1625 4666 
z
" transform="scale(0.015625)"/>
       <path id="DejaVuSans-64" d="M 2906 2969 
L 2906 4863 
L 3481 4863 
L 3481 0 
L 2906 0 
L 2906 525 
Q 2725 213 2448 61 
Q 2172 -91 1784 -91 
Q 1150 -91 751 415 
Q 353 922 353 1747 
Q 353 2572 751 3078 
Q 1150 3584 1784 3584 
Q 2172 3584 2448 3432 
Q 2725 3281 2906 2969 
z
M 947 1747 
Q 947 1113 1208 752 
Q 1469 391 1925 391 
Q 2381 391 2643 752 
Q 2906 1113 2906 1747 
Q 2906 2381 2643 2742 
Q 2381 3103 1925 3103 
Q 1469 3103 1208 2742 
Q 947 2381 947 1747 
z
" transform="scale(0.015625)"/>
       <path id="DejaVuSans-69" d="M 603 3500 
L 1178 3500 
L 1178 0 
L 603 0 
L 603 3500 
z
M 603 4863 
L 1178 4863 
L 1178 4134 
L 603 4134 
L 603 4863 
z
" transform="scale(0.015625)"/>
       <path id="DejaVuSans-6d" d="M 3328 2828 
Q 3544 3216 3844 3400 
Q 4144 3584 4550 3584 
Q 5097 3584 5394 3201 
Q 5691 2819 5691 2113 
L 5691 0 
L 5113 0 
L 5113 2094 
Q 5113 2597 4934 2840 
Q 4756 3084 4391 3084 
Q 3944 3084 3684 2787 
Q 3425 2491 3425 1978 
L 3425 0 
L 2847 0 
L 2847 2094 
Q 2847 2600 2669 2842 
Q 2491 3084 2119 3084 
Q 1678 3084 1418 2786 
Q 1159 2488 1159 1978 
L 1159 0 
L 581 0 
L 581 3500 
L 1159 3500 
L 1159 2956 
Q 1356 3278 1631 3431 
Q 1906 3584 2284 3584 
Q 2666 3584 2933 3390 
Q 3200 3197 3328 2828 
z
" transform="scale(0.015625)"/>
       <path id="DejaVuSans-6e" d="M 3513 2113 
L 3513 0 
L 2938 0 
L 2938 2094 
Q 2938 2591 2744 2837 
Q 2550 3084 2163 3084 
Q 1697 3084 1428 2787 
Q 1159 2491 1159 1978 
L 1159 0 
L 581 0 
L 581 3500 
L 1159 3500 
L 1159 2956 
Q 1366 3272 1645 3428 
Q 1925 3584 2291 3584 
Q 2894 3584 3203 3211 
Q 3513 2838 3513 2113 
z
" transform="scale(0.015625)"/>
       <path id="DejaVuSans-29" d="M 513 4856 
L 1013 4856 
Q 1481 4119 1714 3412 
Q 1947 2706 1947 2009 
Q 1947 1309 1714 600 
Q 1481 -109 1013 -844 
L 513 -844 
Q 928 -128 1133 580 
Q 1338 1288 1338 2009 
Q 1338 2731 1133 3434 
Q 928 4138 513 4856 
z
" transform="scale(0.015625)"/>
      </defs>
      <use xlink:href="#DejaVuSans-6c"/>
      <use xlink:href="#DejaVuSans-6f" x="27.783203"/>
      <use xlink:href="#DejaVuSans-67" x="88.964844"/>
      <use xlink:href="#DejaVuSans-31" x="152.441406"/>
      <use xlink:href="#DejaVuSans-30" x="216.064453"/>
      <use xlink:href="#DejaVuSans-28" x="279.6875"/>
      <use xlink:href="#DejaVuSans-23" x="318.701172"/>
      <use xlink:href="#DejaVuSans-20" x="402.490234"/>
      <use xlink:href="#DejaVuSans-66" x="434.277344"/>
      <use xlink:href="#DejaVuSans-2d" x="463.982422"/>
      <use xlink:href="#DejaVuSans-65" x="500.066406"/>
      <use xlink:href="#DejaVuSans-76" x="561.589844"/>
      <use xlink:href="#DejaVuSans-61" x="620.769531"/>
      <use xlink:href="#DejaVuSans-6c" x="682.048828"/>
      <use xlink:href="#DejaVuSans-73" x="709.832031"/>
      <use xlink:href="#DejaVuSans-20" x="761.931641"/>
      <use xlink:href="#DejaVuSans-2f" x="793.71875"/>
      <use xlink:href="#DejaVuSans-20" x="827.410156"/>
      <use xlink:href="#DejaVuSans-64" x="859.197266"/>
      <use xlink:href="#DejaVuSans-69" x="922.673828"/>
      <use xlink:href="#DejaVuSans-6d" x="950.457031"/>
      <use xlink:href="#DejaVuSans-65" x="1047.869141"/>
      <use xlink:href="#DejaVuSans-6e" x="1109.392578"/>
      <use xlink:href="#DejaVuSans-73" x="1172.771484"/>
      <use xlink:href="#DejaVuSans-69" x="1224.871094"/>
      <use xlink:href="#DejaVuSans-6f" x="1252.654297"/>
      <use xlink:href="#DejaVuSans-6e" x="1313.835938"/>
      <use xlink:href="#DejaVuSans-29" x="1377.214844"/>
     </g>
    </g>
   </g>
   <g id="matplotlib.axis_2">
    <g id="ytick_1">
     <g id="line2d_21">
      <path d="M 57.6 298.944 
L 360.8064 298.944 
" clip-path="url(#p717d203520)" style="fill: none; stroke: #b0b0b0; stroke-width: 0.8; stroke-linecap: square"/>
     </g>
     <g id="line2d_22">
      <defs>
       <path id="ma434578f16" d="M 0 0 
L -3.5 0 
" style="stroke: #000000; stroke-width: 0.8"/>
      </defs>
      <g>
       <use xlink:href="#ma434578f16" x="57.6" y="298.944" style="stroke: #000000; stroke-width: 0.8"/>
      </g>
     </g>
     <g id="text_6">
      <!-- 0.0 -->
      <g transform="translate(25.155 305.02275)scale(0.16 -0.16)">
       <defs>
        <path id="DejaVuSans-2e" d="M 684 794 
L 1344 794 
L 1344 0 
L 684 0 
L 684 794 
z
" transform="scale(0.015625)"/>
       </defs>
       <use xlink:href="#DejaVuSans-30"/>
       <use xlink:href="#DejaVuSans-2e" x="63.623047"/>
       <use xlink:href="#DejaVuSans-30" x="95.410156"/>
      </g>
     </g>
    </g>
    <g id="ytick_2">
     <g id="line2d_23">
      <path d="M 57.6 244.6848 
L 360.8064 244.6848 
" clip-path="url(#p717d203520)" style="fill: none; stroke: #b0b0b0; stroke-width: 0.8; stroke-linecap: square"/>
     </g>
     <g id="line2d_24">
      <g>
       <use xlink:href="#ma434578f16" x="57.6" y="244.6848" style="stroke: #000000; stroke-width: 0.8"/>
      </g>
     </g>
     <g id="text_7">
      <!-- 0.2 -->
      <g transform="translate(25.155 250.76355)scale(0.16 -0.16)">
       <use xlink:href="#DejaVuSans-30"/>
       <use xlink:href="#DejaVuSans-2e" x="63.623047"/>
       <use xlink:href="#DejaVuSans-32" x="95.410156"/>
      </g>
     </g>
    </g>
    <g id="ytick_3">
     <g id="line2d_25">
      <path d="M 57.6 190.4256 
L 360.8064 190.4256 
" clip-path="url(#p717d203520)" style="fill: none; stroke: #b0b0b0; stroke-width: 0.8; stroke-linecap: square"/>
     </g>
     <g id="line2d_26">
      <g>
       <use xlink:href="#ma434578f16" x="57.6" y="190.4256" style="stroke: #000000; stroke-width: 0.8"/>
      </g>
     </g>
     <g id="text_8">
      <!-- 0.4 -->
      <g transform="translate(25.155 196.50435)scale(0.16 -0.16)">
       <use xlink:href="#DejaVuSans-30"/>
       <use xlink:href="#DejaVuSans-2e" x="63.623047"/>
       <use xlink:href="#DejaVuSans-34" x="95.410156"/>
      </g>
     </g>
    </g>
    <g id="ytick_4">
     <g id="line2d_27">
      <path d="M 57.6 136.1664 
L 360.8064 136.1664 
" clip-path="url(#p717d203520)" style="fill: none; stroke: #b0b0b0; stroke-width: 0.8; stroke-linecap: square"/>
     </g>
     <g id="line2d_28">
      <g>
       <use xlink:href="#ma434578f16" x="57.6" y="136.1664" style="stroke: #000000; stroke-width: 0.8"/>
      </g>
     </g>
     <g id="text_9">
      <!-- 0.6 -->
      <g transform="translate(25.155 142.24515)scale(0.16 -0.16)">
       <use xlink:href="#DejaVuSans-30"/>
       <use xlink:href="#DejaVuSans-2e" x="63.623047"/>
       <use xlink:href="#DejaVuSans-36" x="95.410156"/>
      </g>
     </g>
    </g>
    <g id="ytick_5">
     <g id="line2d_29">
      <path d="M 57.6 81.9072 
L 360.8064 81.9072 
" clip-path="url(#p717d203520)" style="fill: none; stroke: #b0b0b0; stroke-width: 0.8; stroke-linecap: square"/>
     </g>
     <g id="line2d_30">
      <g>
       <use xlink:href="#ma434578f16" x="57.6" y="81.9072" style="stroke: #000000; stroke-width: 0.8"/>
      </g>
     </g>
     <g id="text_10">
      <!-- 0.8 -->
      <g transform="translate(25.155 87.98595)scale(0.16 -0.16)">
       <defs>
        <path id="DejaVuSans-38" d="M 2034 2216 
Q 1584 2216 1326 1975 
Q 1069 1734 1069 1313 
Q 1069 891 1326 650 
Q 1584 409 2034 409 
Q 2484 409 2743 651 
Q 3003 894 3003 1313 
Q 3003 1734 2745 1975 
Q 2488 2216 2034 2216 
z
M 1403 2484 
Q 997 2584 770 2862 
Q 544 3141 544 3541 
Q 544 4100 942 4425 
Q 1341 4750 2034 4750 
Q 2731 4750 3128 4425 
Q 3525 4100 3525 3541 
Q 3525 3141 3298 2862 
Q 3072 2584 2669 2484 
Q 3125 2378 3379 2068 
Q 3634 1759 3634 1313 
Q 3634 634 3220 271 
Q 2806 -91 2034 -91 
Q 1263 -91 848 271 
Q 434 634 434 1313 
Q 434 1759 690 2068 
Q 947 2378 1403 2484 
z
M 1172 3481 
Q 1172 3119 1398 2916 
Q 1625 2713 2034 2713 
Q 2441 2713 2670 2916 
Q 2900 3119 2900 3481 
Q 2900 3844 2670 4047 
Q 2441 4250 2034 4250 
Q 1625 4250 1398 4047 
Q 1172 3844 1172 3481 
z
" transform="scale(0.015625)"/>
       </defs>
       <use xlink:href="#DejaVuSans-30"/>
       <use xlink:href="#DejaVuSans-2e" x="63.623047"/>
       <use xlink:href="#DejaVuSans-38" x="95.410156"/>
      </g>
     </g>
    </g>
    <g id="ytick_6">
     <g id="line2d_31">
      <path d="M 57.6 27.648 
L 360.8064 27.648 
" clip-path="url(#p717d203520)" style="fill: none; stroke: #b0b0b0; stroke-width: 0.8; stroke-linecap: square"/>
     </g>
     <g id="line2d_32">
      <g>
       <use xlink:href="#ma434578f16" x="57.6" y="27.648" style="stroke: #000000; stroke-width: 0.8"/>
      </g>
     </g>
     <g id="text_11">
      <!-- 1.0 -->
      <g transform="translate(25.155 33.72675)scale(0.16 -0.16)">
       <use xlink:href="#DejaVuSans-31"/>
       <use xlink:href="#DejaVuSans-2e" x="63.623047"/>
       <use xlink:href="#DejaVuSans-30" x="95.410156"/>
      </g>
     </g>
    </g>
    <g id="text_12">
     <!-- Fraction of function,target pairs -->
     <g transform="translate(17.619531 297.681)rotate(-90)scale(0.17 -0.17)">
      <defs>
       <path id="DejaVuSans-46" d="M 628 4666 
L 3309 4666 
L 3309 4134 
L 1259 4134 
L 1259 2759 
L 3109 2759 
L 3109 2228 
L 1259 2228 
L 1259 0 
L 628 0 
L 628 4666 
z
" transform="scale(0.015625)"/>
       <path id="DejaVuSans-72" d="M 2631 2963 
Q 2534 3019 2420 3045 
Q 2306 3072 2169 3072 
Q 1681 3072 1420 2755 
Q 1159 2438 1159 1844 
L 1159 0 
L 581 0 
L 581 3500 
L 1159 3500 
L 1159 2956 
Q 1341 3275 1631 3429 
Q 1922 3584 2338 3584 
Q 2397 3584 2469 3576 
Q 2541 3569 2628 3553 
L 2631 2963 
z
" transform="scale(0.015625)"/>
       <path id="DejaVuSans-63" d="M 3122 3366 
L 3122 2828 
Q 2878 2963 2633 3030 
Q 2388 3097 2138 3097 
Q 1578 3097 1268 2742 
Q 959 2388 959 1747 
Q 959 1106 1268 751 
Q 1578 397 2138 397 
Q 2388 397 2633 464 
Q 2878 531 3122 666 
L 3122 134 
Q 2881 22 2623 -34 
Q 2366 -91 2075 -91 
Q 1284 -91 818 406 
Q 353 903 353 1747 
Q 353 2603 823 3093 
Q 1294 3584 2113 3584 
Q 2378 3584 2631 3529 
Q 2884 3475 3122 3366 
z
" transform="scale(0.015625)"/>
       <path id="DejaVuSans-74" d="M 1172 4494 
L 1172 3500 
L 2356 3500 
L 2356 3053 
L 1172 3053 
L 1172 1153 
Q 1172 725 1289 603 
Q 1406 481 1766 481 
L 2356 481 
L 2356 0 
L 1766 0 
Q 1100 0 847 248 
Q 594 497 594 1153 
L 594 3053 
L 172 3053 
L 172 3500 
L 594 3500 
L 594 4494 
L 1172 4494 
z
" transform="scale(0.015625)"/>
       <path id="DejaVuSans-75" d="M 544 1381 
L 544 3500 
L 1119 3500 
L 1119 1403 
Q 1119 906 1312 657 
Q 1506 409 1894 409 
Q 2359 409 2629 706 
Q 2900 1003 2900 1516 
L 2900 3500 
L 3475 3500 
L 3475 0 
L 2900 0 
L 2900 538 
Q 2691 219 2414 64 
Q 2138 -91 1772 -91 
Q 1169 -91 856 284 
Q 544 659 544 1381 
z
M 1991 3584 
L 1991 3584 
z
" transform="scale(0.015625)"/>
       <path id="DejaVuSans-2c" d="M 750 794 
L 1409 794 
L 1409 256 
L 897 -744 
L 494 -744 
L 750 256 
L 750 794 
z
" transform="scale(0.015625)"/>
       <path id="DejaVuSans-70" d="M 1159 525 
L 1159 -1331 
L 581 -1331 
L 581 3500 
L 1159 3500 
L 1159 2969 
Q 1341 3281 1617 3432 
Q 1894 3584 2278 3584 
Q 2916 3584 3314 3078 
Q 3713 2572 3713 1747 
Q 3713 922 3314 415 
Q 2916 -91 2278 -91 
Q 1894 -91 1617 61 
Q 1341 213 1159 525 
z
M 3116 1747 
Q 3116 2381 2855 2742 
Q 2594 3103 2138 3103 
Q 1681 3103 1420 2742 
Q 1159 2381 1159 1747 
Q 1159 1113 1420 752 
Q 1681 391 2138 391 
Q 2594 391 2855 752 
Q 3116 1113 3116 1747 
z
" transform="scale(0.015625)"/>
      </defs>
      <use xlink:href="#DejaVuSans-46"/>
      <use xlink:href="#DejaVuSans-72" x="50.269531"/>
      <use xlink:href="#DejaVuSans-61" x="91.382812"/>
      <use xlink:href="#DejaVuSans-63" x="152.662109"/>
      <use xlink:href="#DejaVuSans-74" x="207.642578"/>
      <use xlink:href="#DejaVuSans-69" x="246.851562"/>
      <use xlink:href="#DejaVuSans-6f" x="274.634766"/>
      <use xlink:href="#DejaVuSans-6e" x="335.816406"/>
      <use xlink:href="#DejaVuSans-20" x="399.195312"/>
      <use xlink:href="#DejaVuSans-6f" x="430.982422"/>
      <use xlink:href="#DejaVuSans-66" x="492.164062"/>
      <use xlink:href="#DejaVuSans-20" x="527.369141"/>
      <use xlink:href="#DejaVuSans-66" x="559.15625"/>
      <use xlink:href="#DejaVuSans-75" x="594.361328"/>
      <use xlink:href="#DejaVuSans-6e" x="657.740234"/>
      <use xlink:href="#DejaVuSans-63" x="721.119141"/>
      <use xlink:href="#DejaVuSans-74" x="776.099609"/>
      <use xlink:href="#DejaVuSans-69" x="815.308594"/>
      <use xlink:href="#DejaVuSans-6f" x="843.091797"/>
      <use xlink:href="#DejaVuSans-6e" x="904.273438"/>
      <use xlink:href="#DejaVuSans-2c" x="967.652344"/>
      <use xlink:href="#DejaVuSans-74" x="999.439453"/>
      <use xlink:href="#DejaVuSans-61" x="1038.648438"/>
      <use xlink:href="#DejaVuSans-72" x="1099.927734"/>
      <use xlink:href="#DejaVuSans-67" x="1139.291016"/>
      <use xlink:href="#DejaVuSans-65" x="1202.767578"/>
      <use xlink:href="#DejaVuSans-74" x="1264.291016"/>
      <use xlink:href="#DejaVuSans-20" x="1303.5"/>
      <use xlink:href="#DejaVuSans-70" x="1335.287109"/>
      <use xlink:href="#DejaVuSans-61" x="1398.763672"/>
      <use xlink:href="#DejaVuSans-69" x="1460.042969"/>
      <use xlink:href="#DejaVuSans-72" x="1487.826172"/>
      <use xlink:href="#DejaVuSans-73" x="1528.939453"/>
     </g>
    </g>
   </g>
   <g id="line2d_33">
    <defs>
     <path id="m356a55614f" d="M 0 1.5 
C 0.397805 1.5 0.77937 1.341951 1.06066 1.06066 
C 1.341951 0.77937 1.5 0.397805 1.5 0 
C 1.5 -0.397805 1.341951 -0.77937 1.06066 -1.06066 
C 0.77937 -1.341951 0.397805 -1.5 0 -1.5 
C -0.397805 -1.5 -0.77937 -1.341951 -1.06066 -1.06066 
C -1.341951 -0.77937 -1.5 -0.397805 -1.5 0 
C -1.5 0.397805 -1.341951 0.77937 -1.06066 1.06066 
C -0.77937 1.341951 -0.397805 1.5 0 1.5 
z
" style="stroke: #f5deb3"/>
    </defs>
    <g>
     <use xlink:href="#m356a55614f" x="112.989468" y="27.648" style="fill: #f5deb3; stroke: #f5deb3"/>
     <use xlink:href="#m356a55614f" x="112.989468" y="27.648" style="fill: #f5deb3; stroke: #f5deb3"/>
    </g>
   </g>
   <g id="line2d_34">
    <defs>
     <path id="m2985fe3793" d="M 0 1.5 
C 0.397805 1.5 0.77937 1.341951 1.06066 1.06066 
C 1.341951 0.77937 1.5 0.397805 1.5 0 
C 1.5 -0.397805 1.341951 -0.77937 1.06066 -1.06066 
C 0.77937 -1.341951 0.397805 -1.5 0 -1.5 
C -0.397805 -1.5 -0.77937 -1.341951 -1.06066 -1.06066 
C -1.341951 -0.77937 -1.5 -0.397805 -1.5 0 
C -1.5 0.397805 -1.341951 0.77937 -1.06066 1.06066 
C -0.77937 1.341951 -0.397805 1.5 0 1.5 
z
" style="stroke: #000080"/>
    </defs>
    <g>
     <use xlink:href="#m2985fe3793" x="191.326341" y="27.648" style="fill: #000080; stroke: #000080"/>
     <use xlink:href="#m2985fe3793" x="191.326341" y="27.648" style="fill: #000080; stroke: #000080"/>
    </g>
   </g>
   <g id="line2d_35">
    <path d="M 126.613505 298.944 
L 126.613505 298.731219 
L 128.354013 298.731219 
L 128.354013 298.518438 
L 128.956723 298.518438 
L 128.956723 297.880094 
L 129.54072 297.880094 
L 129.622688 297.454532 
L 130.186674 297.383605 
L 130.186674 297.170824 
L 130.344755 297.170824 
L 130.344755 296.958042 
L 130.579414 296.958042 
L 130.579414 296.745261 
L 130.811181 296.745261 
L 130.811181 295.894136 
L 131.115828 295.823209 
L 131.115828 295.610428 
L 131.266322 295.610428 
L 131.341119 294.759304 
L 131.489828 294.759304 
L 131.563744 294.546522 
L 131.63737 294.546522 
L 131.71071 294.12096 
L 131.856536 294.12096 
L 131.856536 293.695398 
L 132.001241 293.695398 
L 132.001241 293.482616 
L 132.144842 293.482616 
L 132.216233 292.986127 
L 132.287354 292.986127 
L 132.358208 291.70944 
L 132.499119 291.70944 
L 132.56918 291.354805 
L 132.638982 291.354805 
L 132.638982 291.142024 
L 132.984158 291.071096 
L 132.984158 291.000169 
L 133.120474 291.000169 
L 133.120474 290.858315 
L 133.323114 290.858315 
L 133.323114 290.149045 
L 133.457005 290.149045 
L 133.523594 289.510701 
L 133.589949 289.510701 
L 133.589949 289.29792 
L 133.72196 289.29792 
L 133.78762 289.085139 
L 133.983236 289.085139 
L 134.047992 288.659576 
L 134.368469 288.588649 
L 134.431915 288.234014 
L 134.495147 288.234014 
L 134.495147 288.163087 
L 134.558167 287.737525 
L 134.745971 287.666598 
L 134.808158 287.311962 
L 135.054871 287.241035 
L 135.116046 287.028254 
L 135.177024 287.028254 
L 135.177024 286.744546 
L 135.478982 286.744546 
L 135.478982 286.106202 
L 135.59842 286.106202 
L 135.657857 285.751567 
L 135.776169 285.751567 
L 135.776169 285.326005 
L 135.893741 285.326005 
L 135.952253 284.191172 
L 136.010584 284.191172 
L 136.068734 283.907464 
L 136.126705 283.907464 
L 136.184497 283.623755 
L 136.299553 283.623755 
L 136.299553 283.410974 
L 136.470828 283.410974 
L 136.527575 282.559849 
L 136.584151 282.559849 
L 136.640557 281.992433 
L 136.864507 281.992433 
L 136.97549 281.425016 
L 137.140746 281.354089 
L 137.140746 281.070381 
L 137.304564 281.070381 
L 137.304564 280.999454 
L 137.358854 279.935548 
L 137.520791 279.864621 
L 137.574461 279.297205 
L 137.734561 279.297205 
L 137.840541 278.587934 
L 137.893309 278.587934 
L 137.945929 278.375153 
L 138.154948 278.304226 
L 138.154948 277.878664 
L 138.310202 277.878664 
L 138.412998 277.027539 
L 138.566146 276.956612 
L 138.667556 276.318268 
L 138.718057 276.318268 
L 138.818654 275.538071 
L 138.868751 275.538071 
L 138.918715 274.686946 
L 139.018248 274.686946 
L 139.067817 274.119529 
L 139.215746 274.119529 
L 139.215746 273.764894 
L 139.508159 273.693967 
L 139.604629 273.126551 
L 139.748412 273.055624 
L 139.843661 272.630061 
L 139.985636 272.559134 
L 140.079694 271.849864 
L 140.126547 271.849864 
L 140.219905 270.785958 
L 140.26641 270.785958 
L 140.359078 269.863906 
L 140.405242 269.863906 
L 140.49723 269.083708 
L 140.634374 269.012781 
L 140.725251 268.019802 
L 140.815692 267.948875 
L 140.905699 267.097751 
L 140.950542 267.097751 
L 141.039908 265.18272 
L 141.084433 265.18272 
L 141.084433 265.111793 
L 141.173167 264.544376 
L 141.261484 264.544376 
L 141.349389 263.196762 
L 141.393187 263.196762 
L 141.48048 262.700273 
L 141.523975 262.700273 
L 141.610664 261.352659 
L 141.696956 261.281732 
L 141.782854 260.927096 
L 141.868361 260.927096 
L 141.910969 260.35968 
L 142.080444 260.288753 
L 142.080444 259.721336 
L 142.290162 259.650409 
L 142.373399 258.799285 
L 142.41488 258.799285 
L 142.45627 258.302795 
L 142.538777 258.302795 
L 142.620923 257.522598 
L 142.661862 257.522598 
L 142.661862 255.891275 
L 142.824734 255.891275 
L 142.905644 254.33088 
L 142.945969 254.33088 
L 143.02636 253.196047 
L 143.066428 253.196047 
L 143.146307 252.770485 
L 143.225848 252.699558 
L 143.305055 251.564725 
L 143.38393 251.493798 
L 143.462475 250.571746 
L 143.540694 250.571746 
L 143.540694 250.500819 
L 143.540694 249.862475 
L 143.657415 249.862475 
L 143.734829 249.153205 
L 143.850356 249.082278 
L 143.888708 248.798569 
L 143.965177 248.798569 
L 144.003296 248.231153 
L 144.192739 248.160226 
L 144.2304 247.380028 
L 144.342932 247.380028 
L 144.417581 246.599831 
L 144.565997 246.528904 
L 144.602918 246.316122 
L 144.749884 246.245195 
L 144.85936 244.897581 
L 144.895711 244.897581 
L 145.004344 243.762748 
L 145.076419 243.762748 
L 145.184016 242.840696 
L 145.291002 242.769769 
L 145.361989 241.634936 
L 145.432709 241.634936 
L 145.538293 240.216395 
L 145.608355 240.145468 
L 145.712961 238.372292 
L 145.7477 238.372292 
L 145.816988 238.088584 
L 145.886021 238.088584 
L 145.989098 237.095605 
L 146.057504 237.095605 
L 146.159649 236.102626 
L 146.193574 236.102626 
L 146.294984 235.322428 
L 146.362288 235.322428 
L 146.462796 233.620179 
L 146.595975 233.549252 
L 146.695245 232.556273 
L 146.728219 232.556273 
L 146.826795 231.634221 
L 146.859539 231.634221 
L 146.957431 230.712169 
L 147.054816 230.712169 
L 147.1517 230.073826 
L 147.216013 230.002899 
L 147.312072 229.080847 
L 147.407644 229.00992 
L 147.471089 227.875087 
L 147.534321 227.875087 
L 147.534321 227.80416 
L 147.628773 226.172838 
L 147.691478 226.101911 
L 147.785146 224.257807 
L 147.878349 224.18688 
L 147.971093 223.193901 
L 148.063382 223.193901 
L 148.155221 221.917214 
L 148.185734 221.917214 
L 148.276979 220.782381 
L 148.307296 220.782381 
L 148.367783 219.931256 
L 148.458151 219.931256 
L 148.548087 218.512715 
L 148.637595 218.441788 
L 148.697031 217.377882 
L 148.75628 217.377882 
L 148.75628 217.306955 
L 148.844805 216.668612 
L 148.874221 216.668612 
L 148.962194 215.533779 
L 148.991428 215.533779 
L 149.078856 214.966362 
L 149.165879 214.895435 
L 149.252502 213.476894 
L 149.281288 213.476894 
L 149.281288 213.405967 
L 149.338728 212.909478 
L 149.42456 212.838551 
L 149.510002 211.278155 
L 149.566749 211.207228 
L 149.65155 210.072395 
L 149.679732 210.072395 
L 149.764026 208.299219 
L 149.79204 208.299219 
L 149.875833 207.235313 
L 149.903682 207.235313 
L 149.98698 205.674918 
L 150.042308 205.674918 
L 150.152479 204.611012 
L 150.207323 204.540085 
L 150.316534 203.334325 
L 150.398028 203.334325 
L 150.452162 201.844856 
L 150.533072 201.844856 
L 150.613636 201.348367 
L 150.667154 201.348367 
L 150.773735 199.433336 
L 150.8268 199.433336 
L 150.932483 198.298504 
L 150.958812 198.298504 
L 151.063758 195.461421 
L 151.089903 195.461421 
L 151.194122 193.688245 
L 151.220087 193.688245 
L 151.32359 192.269704 
L 151.426526 192.269704 
L 151.528902 190.851162 
L 151.579882 190.780235 
L 151.681429 188.794278 
L 151.70673 188.794278 
L 151.807597 187.375736 
L 151.882893 187.375736 
L 151.982822 186.311831 
L 152.007722 186.311831 
L 152.106991 184.3968 
L 152.131727 184.3968 
L 152.230346 183.19104 
L 152.25492 183.19104 
L 152.352898 181.417864 
L 152.401695 181.417864 
L 152.401695 181.346936 
L 152.498913 179.290052 
L 152.523139 179.290052 
L 152.619733 178.509854 
L 152.643804 178.509854 
L 152.715833 177.091313 
L 152.787587 177.091313 
L 152.882835 175.459991 
L 152.906572 175.459991 
L 153.001222 172.977544 
L 153.02481 172.977544 
L 153.095398 172.268273 
L 153.142309 172.268273 
L 153.235783 170.707878 
L 153.282346 170.707878 
L 153.375128 169.218409 
L 153.398253 169.218409 
L 153.490466 166.594108 
L 153.513449 166.594108 
L 153.605101 165.530202 
L 153.627945 165.530202 
L 153.719042 164.040734 
L 153.787077 163.969807 
L 153.877408 163.047755 
L 153.922412 163.047755 
L 153.989717 161.771068 
L 154.056781 161.700141 
L 154.123607 160.849016 
L 154.168026 160.849016 
L 154.278618 159.643256 
L 154.300658 159.643256 
L 154.410475 157.657299 
L 154.432362 157.657299 
L 154.541415 156.66432 
L 154.584859 156.593393 
L 154.693034 154.040019 
L 154.73613 154.040019 
L 154.843441 151.202936 
L 154.886195 151.202936 
L 154.992656 150.351812 
L 155.013876 150.351812 
L 155.119618 149.146052 
L 155.140696 149.146052 
L 155.24573 148.082146 
L 155.266666 148.082146 
L 155.371001 146.167115 
L 155.391799 146.167115 
L 155.495444 145.103209 
L 155.536743 145.032282 
L 155.639595 142.1952 
L 155.680579 142.1952 
L 155.680579 142.124273 
L 155.782649 140.422024 
L 155.802997 140.422024 
L 155.904407 139.074409 
L 155.944819 139.003482 
L 156.045469 137.017525 
L 156.105602 136.946598 
L 156.205398 134.676932 
L 156.225294 134.676932 
L 156.324459 133.116536 
L 156.34423 133.116536 
L 156.34423 133.045609 
L 156.442771 132.336339 
L 156.462418 132.336339 
L 156.560344 130.1376 
L 156.579868 130.1376 
L 156.677186 129.286475 
L 156.715973 129.215548 
L 156.812591 126.378466 
L 156.831855 126.378466 
L 156.927882 125.172706 
L 156.947029 125.172706 
L 157.04247 123.683238 
L 157.061501 123.683238 
L 157.156365 121.980988 
L 157.175281 121.980988 
L 157.269574 120.136885 
L 157.288377 120.136885 
L 157.382107 117.796292 
L 157.400797 117.796292 
L 157.493969 115.66848 
L 157.512549 115.66848 
L 157.623641 113.966231 
L 157.642093 113.966231 
L 157.734081 111.980273 
L 157.789059 111.980273 
L 157.898535 110.632659 
L 157.916719 110.632659 
L 158.025456 107.937431 
L 158.043518 107.937431 
L 158.133569 106.944452 
L 158.187393 106.873525 
L 158.294582 106.0224 
L 158.312387 106.0224 
L 158.312387 105.951473 
L 158.418868 105.100348 
L 158.436556 105.100348 
L 158.542339 103.61088 
L 158.559911 103.61088 
L 158.647529 102.972536 
L 158.682463 102.972536 
L 158.786875 101.837704 
L 158.838864 101.837704 
L 158.942415 101.057506 
L 158.976805 101.057506 
L 159.079601 99.780819 
L 159.096679 99.780819 
L 159.198823 98.858767 
L 159.232748 98.78784 
L 159.334159 97.298372 
L 159.367841 97.298372 
L 159.367841 97.227445 
L 159.468527 96.660028 
L 159.518669 96.589101 
L 159.618554 95.454268 
L 159.668298 95.454268 
L 159.767393 94.674071 
L 159.783859 94.674071 
L 159.882349 93.681092 
L 159.898714 93.681092 
L 159.996606 92.75904 
L 160.029123 92.688113 
L 160.093991 91.766061 
L 160.142495 91.766061 
L 160.23913 90.205666 
L 160.287262 90.134739 
L 160.351247 89.354541 
L 160.399093 89.354541 
L 160.494422 88.716198 
L 160.541906 88.645271 
L 160.620781 88.219708 
L 160.667947 88.219708 
L 160.777545 87.581365 
L 160.855439 87.581365 
L 160.963953 86.73024 
L 160.979404 86.73024 
L 160.979404 86.659313 
L 161.087207 85.595407 
L 161.102557 85.595407 
L 161.209658 84.531501 
L 161.240147 84.531501 
L 161.34647 83.822231 
L 161.376738 83.751304 
L 161.482294 82.687398 
L 161.497325 82.687398 
L 161.587261 81.9072 
L 161.632069 81.836273 
L 161.706511 81.623492 
L 161.78066 81.552565 
L 161.88398 80.985148 
L 161.913396 80.914221 
L 162.015991 80.275878 
L 162.030602 80.275878 
L 162.132562 79.779388 
L 162.161592 79.779388 
L 162.262846 78.999191 
L 162.306075 78.928264 
L 162.377902 78.502701 
L 162.420867 78.502701 
L 162.520739 77.296941 
L 162.534963 77.296941 
L 162.634233 76.303962 
L 162.690724 76.303962 
L 162.690724 76.233035 
L 162.761101 75.665619 
L 162.817213 75.594692 
L 162.915008 74.885421 
L 162.942856 74.885421 
L 163.053839 73.608734 
L 163.095289 73.537807 
L 163.191653 72.828536 
L 163.232801 72.757609 
L 163.342092 71.551849 
L 163.369315 71.551849 
L 163.464289 70.346089 
L 163.531835 70.275162 
L 163.639407 69.636819 
L 163.65281 69.636819 
L 163.759694 68.360132 
L 163.82619 68.289205 
L 163.932096 67.509007 
L 163.971658 67.43808 
L 164.07675 66.728809 
L 164.102932 66.657882 
L 164.207296 65.948612 
L 164.233297 65.877685 
L 164.324018 65.310268 
L 164.375662 65.239341 
L 164.465701 64.317289 
L 164.491347 64.317289 
L 164.580835 63.395238 
L 164.619057 63.395238 
L 164.695268 62.473186 
L 164.733259 62.473186 
L 164.821605 62.047624 
L 164.871904 62.047624 
L 164.972099 60.700009 
L 164.997064 60.700009 
L 165.096597 59.919812 
L 165.109001 59.919812 
L 165.207944 59.139614 
L 165.232599 59.068687 
L 165.343147 58.288489 
L 165.367626 58.217562 
L 165.477385 57.508292 
L 165.51383 57.508292 
L 165.622743 56.58624 
L 165.658907 56.515313 
L 165.766985 55.522334 
L 165.790918 55.522334 
L 165.898243 54.742136 
L 165.92201 54.671209 
L 166.028591 53.820085 
L 166.052194 53.820085 
L 166.158043 53.252668 
L 166.181484 53.252668 
L 166.274957 52.827106 
L 166.298254 52.827106 
L 166.39115 52.259689 
L 166.425869 52.188762 
L 166.529641 51.550419 
L 166.552624 51.550419 
L 166.552624 51.479492 
L 166.644276 51.337638 
L 166.667119 51.337638 
L 166.667119 51.266711 
L 166.769573 50.912075 
L 166.780922 50.912075 
L 166.860176 50.202805 
L 166.916583 50.131878 
L 166.995269 49.919096 
L 167.10711 49.919096 
L 167.15166 49.564461 
L 167.240447 49.493534 
L 167.350843 49.138899 
L 167.372845 49.067972 
L 167.48247 48.571482 
L 167.526142 48.500555 
L 167.624034 47.933139 
L 167.710623 47.862212 
L 167.818303 47.436649 
L 167.850487 47.436649 
L 167.94671 47.011087 
L 167.978675 46.94016 
L 168.074246 46.727379 
L 168.127132 46.727379 
L 168.17987 46.372744 
L 168.253455 46.301816 
L 168.347644 46.018108 
L 168.378936 45.947181 
L 168.430973 45.592546 
L 168.555279 45.521619 
L 168.596533 45.237911 
L 168.781062 45.166984 
L 168.872652 44.599567 
L 168.923343 44.599567 
L 169.004166 44.315859 
L 169.064557 44.244932 
L 169.174771 43.606588 
L 169.184759 43.606588 
L 169.184759 43.535661 
L 169.284344 43.251953 
L 169.363634 43.181026 
L 169.452437 42.613609 
L 169.521218 42.542682 
L 169.619042 41.904339 
L 169.677494 41.833412 
L 169.784185 41.549704 
L 169.822832 41.549704 
L 169.822832 41.478776 
L 169.928705 40.91136 
L 169.976632 40.840433 
L 170.033985 40.627652 
L 170.119687 40.556725 
L 170.19554 40.060235 
L 170.242793 39.989308 
L 170.346334 39.421892 
L 170.402572 39.350965 
L 170.477296 38.925402 
L 170.570284 38.854475 
L 170.644345 38.49984 
L 170.708911 38.428913 
L 170.800764 38.003351 
L 170.883051 37.932424 
L 170.955893 37.790569 
L 171.0194 37.719642 
L 171.118765 36.939445 
L 171.154768 36.868518 
L 171.208643 36.584809 
L 171.315934 36.513882 
L 171.396002 36.301101 
L 171.537509 36.230174 
L 171.590302 35.946466 
L 171.73036 35.875539 
L 171.765213 35.662758 
L 171.947136 35.591831 
L 172.041731 35.095341 
L 172.212513 35.024414 
L 172.322696 34.740706 
L 172.440637 34.669779 
L 172.53279 34.386071 
L 172.690906 34.315144 
L 172.79833 34.102362 
L 172.839484 34.031435 
L 172.839484 33.960508 
L 172.970575 33.889581 
L 173.060174 33.6768 
L 173.230049 33.605873 
L 173.246148 33.464019 
L 173.430302 33.393092 
L 173.517742 33.180311 
L 173.691413 33.109384 
L 173.785471 32.967529 
L 173.847916 32.896602 
L 173.956698 32.47104 
L 174.317363 32.400113 
L 174.400785 32.116405 
L 174.461224 32.116405 
L 174.544011 31.761769 
L 174.663783 31.690842 
L 174.663783 31.619915 
L 174.878944 31.548988 
L 174.893692 31.407134 
L 175.142661 31.336207 
L 175.236991 31.194353 
L 175.417077 31.123426 
L 175.510044 30.839718 
L 175.595454 30.768791 
L 175.659258 30.485082 
L 176.120657 30.414155 
L 176.230828 30.05952 
L 176.665168 29.988593 
L 176.665168 29.917666 
L 176.958065 29.846739 
L 176.997654 29.633958 
L 177.74078 29.563031 
L 177.829275 29.421176 
L 177.898516 29.350249 
L 177.898516 29.279322 
L 178.284089 29.208395 
L 178.284089 29.137468 
L 178.480044 29.066541 
L 178.486135 28.924687 
L 178.836071 28.85376 
L 178.91362 28.640979 
L 179.273294 28.570052 
L 179.273294 28.499125 
L 179.677735 28.428198 
L 179.689164 28.286344 
L 180.841365 28.215416 
L 180.841365 28.144489 
L 182.20895 28.073562 
L 182.20895 28.002635 
L 183.637266 27.931708 
L 183.637266 27.860781 
L 190.524792 27.789854 
L 190.524792 27.718927 
L 360.8064 27.648 
L 360.8064 27.648 
" style="fill: none; stroke: #000080; stroke-width: 1.5; stroke-linecap: square"/>
   </g>
   <g id="line2d_36">
    <defs>
     <path id="m50c588153e" d="M 0 6 
C 1.591219 6 3.117479 5.367802 4.242641 4.242641 
C 5.367802 3.117479 6 1.591219 6 0 
C 6 -1.591219 5.367802 -3.117479 4.242641 -4.242641 
C 3.117479 -5.367802 1.591219 -6 0 -6 
C -1.591219 -6 -3.117479 -5.367802 -4.242641 -4.242641 
C -5.367802 -3.117479 -6 -1.591219 -6 0 
C -6 1.591219 -5.367802 3.117479 -4.242641 4.242641 
C -3.117479 5.367802 -1.591219 6 0 6 
z
" style="stroke: #000080; stroke-width: 1.5"/>
    </defs>
    <g>
     <use xlink:href="#m50c588153e" x="158.330176" y="105.525911" style="fill-opacity: 0; stroke: #000080; stroke-width: 1.5"/>
     <use xlink:href="#m50c588153e" x="191.326341" y="27.718927" style="fill-opacity: 0; stroke: #000080; stroke-width: 1.5"/>
     <use xlink:href="#m50c588153e" x="191.326341" y="27.648" style="fill-opacity: 0; stroke: #000080; stroke-width: 1.5"/>
     <use xlink:href="#m50c588153e" x="191.326341" y="27.648" style="fill-opacity: 0; stroke: #000080; stroke-width: 1.5"/>
     <use xlink:href="#m50c588153e" x="360.8064" y="27.648" style="fill-opacity: 0; stroke: #000080; stroke-width: 1.5"/>
    </g>
   </g>
   <g id="line2d_37">
    <path style="fill: none; stroke: #000080; stroke-width: 1.5; stroke-linecap: square"/>
    <g/>
   </g>
   <g id="line2d_38">
    <path d="M 103.707211 298.944 
" clip-path="url(#p717d203520)" style="fill: none; stroke: #000080; stroke-width: 1.5; stroke-linecap: square"/>
    <defs>
     <path id="mfa0a3d5ffe" d="M -12 12 
L 12 -12 
M -12 -12 
L 12 12 
" style="stroke: #000080"/>
    </defs>
    <g clip-path="url(#p717d203520)">
     <use xlink:href="#mfa0a3d5ffe" x="103.707211" y="298.944" style="fill: #000080; stroke: #000080"/>
    </g>
   </g>
   <g id="line2d_39">
    <defs>
     <path id="m3b30f6ccb5" d="M 0 1.5 
C 0.397805 1.5 0.77937 1.341951 1.06066 1.06066 
C 1.341951 0.77937 1.5 0.397805 1.5 0 
C 1.5 -0.397805 1.341951 -0.77937 1.06066 -1.06066 
C 0.77937 -1.341951 0.397805 -1.5 0 -1.5 
C -0.397805 -1.5 -0.77937 -1.341951 -1.06066 -1.06066 
C -1.341951 -0.77937 -1.5 -0.397805 -1.5 0 
C -1.5 0.397805 -1.341951 0.77937 -1.06066 1.06066 
C -0.77937 1.341951 -0.397805 1.5 0 1.5 
z
" style="stroke: #ff00ff"/>
    </defs>
    <g>
     <use xlink:href="#m3b30f6ccb5" x="167.10711" y="27.648" style="fill: #ff00ff; stroke: #ff00ff"/>
     <use xlink:href="#m3b30f6ccb5" x="167.10711" y="27.648" style="fill: #ff00ff; stroke: #ff00ff"/>
    </g>
   </g>
   <g id="line2d_40">
    <path d="M 131.929028 298.944 
L 131.929028 298.589365 
L 132.915628 298.589365 
L 132.915628 298.234729 
L 135.893741 298.234729 
L 135.952253 296.816188 
L 137.195511 296.816188 
L 137.195511 296.461553 
L 137.840541 296.461553 
L 137.945929 294.333741 
L 138.667556 294.333741 
L 138.667556 292.9152 
L 139.067817 292.9152 
L 139.067817 292.205929 
L 139.843661 292.205929 
L 139.843661 291.851294 
L 140.995278 291.851294 
L 140.995278 290.787388 
L 141.217377 290.787388 
L 141.217377 290.432753 
L 141.65386 290.432753 
L 141.65386 289.723482 
L 141.782854 289.723482 
L 141.782854 288.304941 
L 142.164612 288.304941 
L 142.164612 287.595671 
L 142.290162 287.595671 
L 142.290162 287.241035 
L 142.538777 287.241035 
L 142.620923 286.531765 
L 142.702713 286.531765 
L 142.784148 285.822494 
L 142.986208 285.822494 
L 143.02636 284.403953 
L 143.265494 284.403953 
L 143.344534 283.340047 
L 143.540694 283.340047 
L 143.579681 282.630776 
L 143.773417 282.630776 
L 143.773417 282.276141 
L 144.003296 282.276141 
L 144.003296 281.921506 
L 144.155003 281.921506 
L 144.155003 281.566871 
L 144.305496 281.566871 
L 144.380294 280.8576 
L 144.529002 280.8576 
L 144.639767 279.793694 
L 144.71325 279.793694 
L 144.71325 279.439059 
L 145.040416 279.439059 
L 145.148219 278.729788 
L 145.397382 278.729788 
L 145.46797 278.020518 
L 145.678157 278.020518 
L 145.782376 277.311247 
L 145.851536 277.311247 
L 145.851536 276.956612 
L 145.989098 276.956612 
L 145.989098 276.601976 
L 146.159649 276.601976 
L 146.159649 275.892706 
L 146.328666 275.892706 
L 146.328666 275.538071 
L 146.462796 275.538071 
L 146.529503 274.8288 
L 146.595975 274.8288 
L 146.695245 273.410259 
L 146.924857 273.410259 
L 147.022411 272.346353 
L 147.183884 272.346353 
L 147.280107 271.637082 
L 147.407644 271.637082 
L 147.407644 271.282447 
L 147.534321 271.282447 
L 147.534321 270.573176 
L 147.660152 270.573176 
L 147.691478 269.509271 
L 147.878349 269.509271 
L 147.971093 268.445365 
L 148.063382 268.445365 
L 148.155221 266.672188 
L 148.697031 266.672188 
L 148.785835 264.544376 
L 149.049758 264.544376 
L 149.136916 263.835106 
L 149.194798 263.835106 
L 149.252502 263.125835 
L 149.510002 263.125835 
L 149.538397 262.061929 
L 149.73597 262.061929 
L 149.73597 261.707294 
L 149.959255 261.707294 
L 150.014665 260.998024 
L 150.097474 260.998024 
L 150.179921 259.224847 
L 150.398028 259.224847 
L 150.425115 258.160941 
L 150.613636 258.160941 
L 150.693856 256.033129 
L 150.747146 256.033129 
L 150.747146 255.678494 
L 150.958812 255.678494 
L 151.037576 252.841412 
L 151.116012 252.841412 
L 151.116012 252.486776 
L 151.297768 252.486776 
L 151.349377 251.422871 
L 151.426526 251.422871 
L 151.426526 251.068235 
L 151.554409 251.068235 
L 151.630724 249.295059 
L 151.832729 249.295059 
L 151.832729 248.940424 
L 151.982822 248.940424 
L 151.982822 248.231153 
L 152.15643 248.231153 
L 152.20574 247.521882 
L 152.328451 247.521882 
L 152.377312 245.039435 
L 152.450367 245.039435 
L 152.498913 244.330165 
L 152.571498 244.330165 
L 152.619733 243.620894 
L 152.739781 243.620894 
L 152.835271 241.493082 
L 152.859068 241.493082 
L 152.953957 240.783812 
L 152.977604 240.783812 
L 153.02481 239.010635 
L 153.189104 239.010635 
L 153.259079 237.946729 
L 153.375128 237.946729 
L 153.375128 237.592094 
L 153.490466 237.592094 
L 153.58223 235.818918 
L 153.605101 235.818918 
L 153.696309 233.691106 
L 153.741748 233.691106 
L 153.8097 232.981835 
L 153.899924 232.981835 
L 153.922412 232.272565 
L 154.012098 232.272565 
L 154.056781 230.854024 
L 154.190197 230.854024 
L 154.234459 229.080847 
L 154.322673 229.080847 
L 154.388563 226.243765 
L 154.476059 226.243765 
L 154.563149 224.470588 
L 154.606544 224.470588 
L 154.671449 221.633506 
L 154.73613 221.633506 
L 154.843441 219.860329 
L 154.907535 219.860329 
L 155.013876 218.441788 
L 155.077392 218.441788 
L 155.18278 213.831529 
L 155.22477 213.831529 
L 155.329337 210.639812 
L 155.391799 210.639812 
L 155.454055 208.866635 
L 155.516105 208.866635 
L 155.598521 207.448094 
L 155.741887 207.448094 
L 155.762279 204.611012 
L 155.863909 204.611012 
L 155.924624 203.192471 
L 156.165543 203.192471 
L 156.165543 202.837835 
L 156.284856 202.837835 
L 156.383708 198.936847 
L 156.442771 198.936847 
L 156.540799 196.809035 
L 156.618856 196.809035 
L 156.677186 196.099765 
L 156.75468 196.099765 
L 156.8511 191.844141 
L 156.927882 191.844141 
L 157.023421 188.652424 
L 157.080512 188.652424 
L 157.156365 187.233882 
L 157.231914 187.233882 
L 157.30716 183.332894 
L 157.344671 183.332894 
L 157.400797 181.205082 
L 157.456756 181.205082 
L 157.53111 178.722635 
L 157.568177 178.722635 
L 157.678942 177.304094 
L 157.734081 177.304094 
L 157.770751 174.112376 
L 157.862113 174.112376 
L 157.953034 171.629929 
L 157.98928 171.629929 
L 158.0976 169.856753 
L 158.133569 169.856753 
L 158.241064 165.246494 
L 158.25892 165.246494 
L 158.347948 161.700141 
L 158.383441 161.700141 
L 158.489522 159.572329 
L 158.507144 159.572329 
L 158.595008 157.799153 
L 158.752135 157.799153 
L 158.838864 156.025976 
L 158.890711 156.025976 
L 158.976805 153.188894 
L 159.062507 153.188894 
L 159.164837 150.351812 
L 159.181837 150.351812 
L 159.181837 148.933271 
L 159.300416 148.933271 
L 159.401463 144.323012 
L 159.418251 144.323012 
L 159.468527 142.1952 
L 159.535354 142.1952 
L 159.601943 140.776659 
L 159.668298 140.776659 
L 159.717911 137.939576 
L 159.833168 137.939576 
L 159.898714 135.811765 
L 159.947723 135.811765 
L 160.045361 132.974682 
L 160.061585 132.974682 
L 160.110173 130.846871 
L 160.174762 130.846871 
L 160.271232 127.655153 
L 160.287262 127.655153 
L 160.383158 124.1088 
L 160.399093 124.1088 
L 160.494422 120.562447 
L 160.526092 120.562447 
L 160.620781 117.725365 
L 160.652238 117.725365 
L 160.730652 115.242918 
L 160.777545 115.242918 
L 160.855439 111.696565 
L 160.933013 111.696565 
L 161.025681 108.859482 
L 161.13322 108.859482 
L 161.240147 102.476047 
L 161.285788 102.476047 
L 161.36161 100.348235 
L 161.422049 100.348235 
L 161.527352 98.575059 
L 161.542347 98.575059 
L 161.632069 95.737976 
L 161.676769 95.737976 
L 161.751035 93.255529 
L 161.825009 93.255529 
L 161.913396 89.709176 
L 161.942766 89.709176 
L 162.015991 86.872094 
L 162.05979 86.872094 
L 162.147083 84.389647 
L 162.205054 84.389647 
L 162.291676 81.197929 
L 162.435167 81.197929 
L 162.506504 79.779388 
L 162.549177 79.779388 
L 162.648372 77.651576 
L 162.676617 77.651576 
L 162.761101 73.750588 
L 162.8032 73.750588 
L 162.901068 69.8496 
L 162.956765 69.8496 
L 163.040002 66.657882 
L 163.081483 66.657882 
L 163.191653 65.593976 
L 163.205379 65.593976 
L 163.27386 63.466165 
L 163.328465 63.466165 
L 163.437203 59.919812 
L 163.477818 59.919812 
L 163.572247 58.855906 
L 163.65281 58.855906 
L 163.746367 54.954918 
L 163.773012 54.954918 
L 163.773012 54.600282 
L 163.892451 54.600282 
L 163.997986 53.536376 
L 164.037409 53.536376 
L 164.063646 52.472471 
L 164.181259 52.472471 
L 164.285191 47.507576 
L 164.336942 47.507576 
L 164.414303 46.089035 
L 164.478528 46.089035 
L 164.568077 45.025129 
L 164.593584 45.025129 
L 164.593584 43.961224 
L 164.70794 43.961224 
L 164.80901 41.478776 
L 164.821605 41.478776 
L 164.922068 40.060235 
L 164.972099 40.060235 
L 165.071763 38.287059 
L 165.096597 38.287059 
L 165.195605 35.449976 
L 165.404283 35.449976 
L 165.477385 34.740706 
L 165.550204 34.740706 
L 165.610672 32.967529 
L 165.682978 32.967529 
L 165.707018 30.839718 
L 165.826761 30.839718 
L 165.898243 29.775812 
L 165.993131 29.775812 
L 166.099311 29.066541 
L 166.321521 29.066541 
L 166.425869 28.357271 
L 166.621405 28.357271 
L 166.621405 28.002635 
L 167.10711 28.002635 
L 167.10711 27.648 
L 360.8064 27.648 
L 360.8064 27.648 
" style="fill: none; stroke: #ff00ff; stroke-width: 1.5; stroke-linecap: square"/>
   </g>
   <g id="line2d_41">
    <defs>
     <path id="m146c515ade" d="M -0 8.485281 
L 5.091169 0 
L 0 -8.485281 
L -5.091169 -0 
z
" style="stroke: #ff00ff; stroke-width: 1.5; stroke-linejoin: miter"/>
    </defs>
    <g>
     <use xlink:href="#m146c515ade" x="158.383441" y="161.345506" style="fill-opacity: 0; stroke: #ff00ff; stroke-width: 1.5; stroke-linejoin: miter"/>
     <use xlink:href="#m146c515ade" x="167.10711" y="28.002635" style="fill-opacity: 0; stroke: #ff00ff; stroke-width: 1.5; stroke-linejoin: miter"/>
     <use xlink:href="#m146c515ade" x="167.10711" y="27.648" style="fill-opacity: 0; stroke: #ff00ff; stroke-width: 1.5; stroke-linejoin: miter"/>
     <use xlink:href="#m146c515ade" x="167.10711" y="27.648" style="fill-opacity: 0; stroke: #ff00ff; stroke-width: 1.5; stroke-linejoin: miter"/>
     <use xlink:href="#m146c515ade" x="360.8064" y="27.648" style="fill-opacity: 0; stroke: #ff00ff; stroke-width: 1.5; stroke-linejoin: miter"/>
    </g>
   </g>
   <g id="line2d_42">
    <path style="fill: none; stroke: #ff00ff; stroke-width: 1.5; stroke-linecap: square"/>
    <g/>
   </g>
   <g id="line2d_43">
    <path d="M 360.8064 27.648 
L 380.514816 293.51808 
" style="fill: none; stroke: #000080; stroke-width: 1.5; stroke-linecap: square"/>
    <g>
     <use xlink:href="#m50c588153e" x="360.8064" y="27.648" style="fill-opacity: 0; stroke: #000080; stroke-width: 1.5"/>
     <use xlink:href="#m50c588153e" x="380.514816" y="293.51808" style="fill-opacity: 0; stroke: #000080; stroke-width: 1.5"/>
    </g>
   </g>
   <g id="line2d_44">
    <path d="M 360.8064 27.648 
L 380.514816 163.296 
" style="fill: none; stroke: #ff00ff; stroke-width: 1.5; stroke-linecap: square"/>
    <g>
     <use xlink:href="#m146c515ade" x="360.8064" y="27.648" style="fill-opacity: 0; stroke: #ff00ff; stroke-width: 1.5; stroke-linejoin: miter"/>
     <use xlink:href="#m146c515ade" x="380.514816" y="163.296" style="fill-opacity: 0; stroke: #ff00ff; stroke-width: 1.5; stroke-linejoin: miter"/>
    </g>
   </g>
   <g id="line2d_45">
    <path d="M 360.8064 298.944 
L 360.8064 27.648 
" style="fill: none; stroke: #000000; stroke-width: 1.5; stroke-linecap: square"/>
   </g>
   <g id="patch_3">
    <path d="M 57.6 298.944 
L 360.8064 298.944 
" style="fill: none; stroke: #000000; stroke-width: 0.8; stroke-linejoin: miter; stroke-linecap: square"/>
   </g>
   <g id="patch_4">
    <path d="M 57.6 27.648 
L 360.8064 27.648 
" style="fill: none; stroke: #000000; stroke-width: 0.8; stroke-linejoin: miter; stroke-linecap: square"/>
   </g>
   <g id="text_13">
    <!-- ex -->
    <g transform="translate(386.578944 297.381205)scale(0.14 -0.14)">
     <defs>
      <path id="DejaVuSans-78" d="M 3513 3500 
L 2247 1797 
L 3578 0 
L 2900 0 
L 1881 1375 
L 863 0 
L 184 0 
L 1544 1831 
L 300 3500 
L 978 3500 
L 1906 2253 
L 2834 3500 
L 3513 3500 
z
" transform="scale(0.015625)"/>
     </defs>
     <use xlink:href="#DejaVuSans-65"/>
     <use xlink:href="#DejaVuSans-78" x="59.773438"/>
    </g>
   </g>
   <g id="text_14">
    <!-- CMA-ES-20 -->
    <g transform="translate(386.578944 167.159125)scale(0.14 -0.14)">
     <defs>
      <path id="DejaVuSans-43" d="M 4122 4306 
L 4122 3641 
Q 3803 3938 3442 4084 
Q 3081 4231 2675 4231 
Q 1875 4231 1450 3742 
Q 1025 3253 1025 2328 
Q 1025 1406 1450 917 
Q 1875 428 2675 428 
Q 3081 428 3442 575 
Q 3803 722 4122 1019 
L 4122 359 
Q 3791 134 3420 21 
Q 3050 -91 2638 -91 
Q 1578 -91 968 557 
Q 359 1206 359 2328 
Q 359 3453 968 4101 
Q 1578 4750 2638 4750 
Q 3056 4750 3426 4639 
Q 3797 4528 4122 4306 
z
" transform="scale(0.015625)"/>
      <path id="DejaVuSans-4d" d="M 628 4666 
L 1569 4666 
L 2759 1491 
L 3956 4666 
L 4897 4666 
L 4897 0 
L 4281 0 
L 4281 4097 
L 3078 897 
L 2444 897 
L 1241 4097 
L 1241 0 
L 628 0 
L 628 4666 
z
" transform="scale(0.015625)"/>
      <path id="DejaVuSans-41" d="M 2188 4044 
L 1331 1722 
L 3047 1722 
L 2188 4044 
z
M 1831 4666 
L 2547 4666 
L 4325 0 
L 3669 0 
L 3244 1197 
L 1141 1197 
L 716 0 
L 50 0 
L 1831 4666 
z
" transform="scale(0.015625)"/>
      <path id="DejaVuSans-45" d="M 628 4666 
L 3578 4666 
L 3578 4134 
L 1259 4134 
L 1259 2753 
L 3481 2753 
L 3481 2222 
L 1259 2222 
L 1259 531 
L 3634 531 
L 3634 0 
L 628 0 
L 628 4666 
z
" transform="scale(0.015625)"/>
      <path id="DejaVuSans-53" d="M 3425 4513 
L 3425 3897 
Q 3066 4069 2747 4153 
Q 2428 4238 2131 4238 
Q 1616 4238 1336 4038 
Q 1056 3838 1056 3469 
Q 1056 3159 1242 3001 
Q 1428 2844 1947 2747 
L 2328 2669 
Q 3034 2534 3370 2195 
Q 3706 1856 3706 1288 
Q 3706 609 3251 259 
Q 2797 -91 1919 -91 
Q 1588 -91 1214 -16 
Q 841 59 441 206 
L 441 856 
Q 825 641 1194 531 
Q 1563 422 1919 422 
Q 2459 422 2753 634 
Q 3047 847 3047 1241 
Q 3047 1584 2836 1778 
Q 2625 1972 2144 2069 
L 1759 2144 
Q 1053 2284 737 2584 
Q 422 2884 422 3419 
Q 422 4038 858 4394 
Q 1294 4750 2059 4750 
Q 2388 4750 2728 4690 
Q 3069 4631 3425 4513 
z
" transform="scale(0.015625)"/>
     </defs>
     <use xlink:href="#DejaVuSans-43"/>
     <use xlink:href="#DejaVuSans-4d" x="69.824219"/>
     <use xlink:href="#DejaVuSans-41" x="156.103516"/>
     <use xlink:href="#DejaVuSans-2d" x="222.261719"/>
     <use xlink:href="#DejaVuSans-45" x="258.345703"/>
     <use xlink:href="#DejaVuSans-53" x="321.529297"/>
     <use xlink:href="#DejaVuSans-2d" x="385.005859"/>
     <use xlink:href="#DejaVuSans-32" x="421.089844"/>
     <use xlink:href="#DejaVuSans-30" x="484.712891"/>
    </g>
   </g>
   <g id="text_15">
    <!-- best 2009 -->
    <g transform="translate(386.578944 36.937045)scale(0.14 -0.14)">
     <defs>
      <path id="DejaVuSans-62" d="M 3116 1747 
Q 3116 2381 2855 2742 
Q 2594 3103 2138 3103 
Q 1681 3103 1420 2742 
Q 1159 2381 1159 1747 
Q 1159 1113 1420 752 
Q 1681 391 2138 391 
Q 2594 391 2855 752 
Q 3116 1113 3116 1747 
z
M 1159 2969 
Q 1341 3281 1617 3432 
Q 1894 3584 2278 3584 
Q 2916 3584 3314 3078 
Q 3713 2572 3713 1747 
Q 3713 922 3314 415 
Q 2916 -91 2278 -91 
Q 1894 -91 1617 61 
Q 1341 213 1159 525 
L 1159 0 
L 581 0 
L 581 4863 
L 1159 4863 
L 1159 2969 
z
" transform="scale(0.015625)"/>
      <path id="DejaVuSans-39" d="M 703 97 
L 703 672 
Q 941 559 1184 500 
Q 1428 441 1663 441 
Q 2288 441 2617 861 
Q 2947 1281 2994 2138 
Q 2813 1869 2534 1725 
Q 2256 1581 1919 1581 
Q 1219 1581 811 2004 
Q 403 2428 403 3163 
Q 403 3881 828 4315 
Q 1253 4750 1959 4750 
Q 2769 4750 3195 4129 
Q 3622 3509 3622 2328 
Q 3622 1225 3098 567 
Q 2575 -91 1691 -91 
Q 1453 -91 1209 -44 
Q 966 3 703 97 
z
M 1959 2075 
Q 2384 2075 2632 2365 
Q 2881 2656 2881 3163 
Q 2881 3666 2632 3958 
Q 2384 4250 1959 4250 
Q 1534 4250 1286 3958 
Q 1038 3666 1038 3163 
Q 1038 2656 1286 2365 
Q 1534 2075 1959 2075 
z
" transform="scale(0.015625)"/>
     </defs>
     <use xlink:href="#DejaVuSans-62"/>
     <use xlink:href="#DejaVuSans-65" x="63.476562"/>
     <use xlink:href="#DejaVuSans-73" x="125"/>
     <use xlink:href="#DejaVuSans-74" x="177.099609"/>
     <use xlink:href="#DejaVuSans-20" x="216.308594"/>
     <use xlink:href="#DejaVuSans-32" x="248.095703"/>
     <use xlink:href="#DejaVuSans-30" x="311.71875"/>
     <use xlink:href="#DejaVuSans-30" x="375.341797"/>
     <use xlink:href="#DejaVuSans-39" x="438.964844"/>
    </g>
   </g>
   <g id="text_16">
    <!-- bbob f2, 5-D -->
    <g transform="translate(60.632064 38.111366)scale(0.102 -0.102)">
     <defs>
      <path id="DejaVuSans-35" d="M 691 4666 
L 3169 4666 
L 3169 4134 
L 1269 4134 
L 1269 2991 
Q 1406 3038 1543 3061 
Q 1681 3084 1819 3084 
Q 2600 3084 3056 2656 
Q 3513 2228 3513 1497 
Q 3513 744 3044 326 
Q 2575 -91 1722 -91 
Q 1428 -91 1123 -41 
Q 819 9 494 109 
L 494 744 
Q 775 591 1075 516 
Q 1375 441 1709 441 
Q 2250 441 2565 725 
Q 2881 1009 2881 1497 
Q 2881 1984 2565 2268 
Q 2250 2553 1709 2553 
Q 1456 2553 1204 2497 
Q 953 2441 691 2322 
L 691 4666 
z
" transform="scale(0.015625)"/>
      <path id="DejaVuSans-44" d="M 1259 4147 
L 1259 519 
L 2022 519 
Q 2988 519 3436 956 
Q 3884 1394 3884 2338 
Q 3884 3275 3436 3711 
Q 2988 4147 2022 4147 
L 1259 4147 
z
M 628 4666 
L 1925 4666 
Q 3281 4666 3915 4102 
Q 4550 3538 4550 2338 
Q 4550 1131 3912 565 
Q 3275 0 1925 0 
L 628 0 
L 628 4666 
z
" transform="scale(0.015625)"/>
     </defs>
     <use xlink:href="#DejaVuSans-62"/>
     <use xlink:href="#DejaVuSans-62" x="63.476562"/>
     <use xlink:href="#DejaVuSans-6f" x="126.953125"/>
     <use xlink:href="#DejaVuSans-62" x="188.134766"/>
     <use xlink:href="#DejaVuSans-20" x="251.611328"/>
     <use xlink:href="#DejaVuSans-66" x="283.398438"/>
     <use xlink:href="#DejaVuSans-32" x="318.603516"/>
     <use xlink:href="#DejaVuSans-2c" x="382.226562"/>
     <use xlink:href="#DejaVuSans-20" x="414.013672"/>
     <use xlink:href="#DejaVuSans-35" x="445.800781"/>
     <use xlink:href="#DejaVuSans-2d" x="509.423828"/>
     <use xlink:href="#DejaVuSans-44" x="545.507812"/>
    </g>
    <!-- 51 targets: 100..1e-08 -->
    <g transform="translate(60.632064 49.533135)scale(0.102 -0.102)">
     <defs>
      <path id="DejaVuSans-3a" d="M 750 794 
L 1409 794 
L 1409 0 
L 750 0 
L 750 794 
z
M 750 3309 
L 1409 3309 
L 1409 2516 
L 750 2516 
L 750 3309 
z
" transform="scale(0.015625)"/>
     </defs>
     <use xlink:href="#DejaVuSans-35"/>
     <use xlink:href="#DejaVuSans-31" x="63.623047"/>
     <use xlink:href="#DejaVuSans-20" x="127.246094"/>
     <use xlink:href="#DejaVuSans-74" x="159.033203"/>
     <use xlink:href="#DejaVuSans-61" x="198.242188"/>
     <use xlink:href="#DejaVuSans-72" x="259.521484"/>
     <use xlink:href="#DejaVuSans-67" x="298.884766"/>
     <use xlink:href="#DejaVuSans-65" x="362.361328"/>
     <use xlink:href="#DejaVuSans-74" x="423.884766"/>
     <use xlink:href="#DejaVuSans-73" x="463.09375"/>
     <use xlink:href="#DejaVuSans-3a" x="515.193359"/>
     <use xlink:href="#DejaVuSans-20" x="548.884766"/>
     <use xlink:href="#DejaVuSans-31" x="580.671875"/>
     <use xlink:href="#DejaVuSans-30" x="644.294922"/>
     <use xlink:href="#DejaVuSans-30" x="707.917969"/>
     <use xlink:href="#DejaVuSans-2e" x="771.541016"/>
     <use xlink:href="#DejaVuSans-2e" x="803.328125"/>
     <use xlink:href="#DejaVuSans-31" x="835.115234"/>
     <use xlink:href="#DejaVuSans-65" x="898.738281"/>
     <use xlink:href="#DejaVuSans-2d" x="960.261719"/>
     <use xlink:href="#DejaVuSans-30" x="996.345703"/>
     <use xlink:href="#DejaVuSans-38" x="1059.96875"/>
    </g>
    <!-- 25, 15 instances -->
    <g transform="translate(60.632064 60.954904)scale(0.102 -0.102)">
     <use xlink:href="#DejaVuSans-32"/>
     <use xlink:href="#DejaVuSans-35" x="63.623047"/>
     <use xlink:href="#DejaVuSans-2c" x="127.246094"/>
     <use xlink:href="#DejaVuSans-20" x="159.033203"/>
     <use xlink:href="#DejaVuSans-31" x="190.820312"/>
     <use xlink:href="#DejaVuSans-35" x="254.443359"/>
     <use xlink:href="#DejaVuSans-20" x="318.066406"/>
     <use xlink:href="#DejaVuSans-69" x="349.853516"/>
     <use xlink:href="#DejaVuSans-6e" x="377.636719"/>
     <use xlink:href="#DejaVuSans-73" x="441.015625"/>
     <use xlink:href="#DejaVuSans-74" x="493.115234"/>
     <use xlink:href="#DejaVuSans-61" x="532.324219"/>
     <use xlink:href="#DejaVuSans-6e" x="593.603516"/>
     <use xlink:href="#DejaVuSans-63" x="656.982422"/>
     <use xlink:href="#DejaVuSans-65" x="711.962891"/>
     <use xlink:href="#DejaVuSans-73" x="773.486328"/>
    </g>
   </g>
   <g id="text_17">
    <!-- v2.6 -->
    <g style="fill: #808080" transform="translate(198.292262 294.151352)scale(0.1 -0.1)">
     <use xlink:href="#DejaVuSans-76"/>
     <use xlink:href="#DejaVuSans-32" x="59.179688"/>
     <use xlink:href="#DejaVuSans-2e" x="122.802734"/>
     <use xlink:href="#DejaVuSans-36" x="154.589844"/>
    </g>
   </g>
   <g id="text_18">
    <!-- 2 Ellipsoid separable -->
    <g transform="translate(105.670387 21.648)scale(0.2 -0.2)">
     <use xlink:href="#DejaVuSans-32"/>
     <use xlink:href="#DejaVuSans-20" x="63.623047"/>
     <use xlink:href="#DejaVuSans-45" x="95.410156"/>
     <use xlink:href="#DejaVuSans-6c" x="158.59375"/>
     <use xlink:href="#DejaVuSans-6c" x="186.376953"/>
     <use xlink:href="#DejaVuSans-69" x="214.160156"/>
     <use xlink:href="#DejaVuSans-70" x="241.943359"/>
     <use xlink:href="#DejaVuSans-73" x="305.419922"/>
     <use xlink:href="#DejaVuSans-6f" x="357.519531"/>
     <use xlink:href="#DejaVuSans-69" x="418.701172"/>
     <use xlink:href="#DejaVuSans-64" x="446.484375"/>
     <use xlink:href="#DejaVuSans-20" x="509.960938"/>
     <use xlink:href="#DejaVuSans-73" x="541.748047"/>
     <use xlink:href="#DejaVuSans-65" x="593.847656"/>
     <use xlink:href="#DejaVuSans-70" x="655.371094"/>
     <use xlink:href="#DejaVuSans-61" x="718.847656"/>
     <use xlink:href="#DejaVuSans-72" x="780.126953"/>
     <use xlink:href="#DejaVuSans-61" x="821.240234"/>
     <use xlink:href="#DejaVuSans-62" x="882.519531"/>
     <use xlink:href="#DejaVuSans-6c" x="945.996094"/>
     <use xlink:href="#DejaVuSans-65" x="973.779297"/>
    </g>
   </g>
  </g>
 </g>
 <defs>
  <clipPath id="p717d203520">
   <rect x="57.6" y="27.648" width="303.2064" height="271.296"/>
  </clipPath>
 </defs>
</svg>
