<?xml version="1.0" encoding="utf-8" standalone="no"?>
<!DOCTYPE svg PUBLIC "-//W3C//DTD SVG 1.1//EN"
  "http://www.w3.org/Graphics/SVG/1.1/DTD/svg11.dtd">
<svg xmlns:xlink="http://www.w3.org/1999/xlink" width="460.8pt" height="345.6pt" viewBox="0 0 460.8 345.6" xmlns="http://www.w3.org/2000/svg" version="1.1">
 <metadata>
  <rdf:RDF xmlns:dc="http://purl.org/dc/elements/1.1/" xmlns:cc="http://creativecommons.org/ns#" xmlns:rdf="http://www.w3.org/1999/02/22-rdf-syntax-ns#">
   <cc:Work>
    <dc:type rdf:resource="http://purl.org/dc/dcmitype/StillImage"/>
    <dc:date>2022-03-16T23:34:49.681350</dc:date>
    <dc:format>image/svg+xml</dc:format>
    <dc:creator>
     <cc:Agent>
      <dc:title>Matplotlib v3.5.1, https://matplotlib.org/</dc:title>
     </cc:Agent>
    </dc:creator>
   </cc:Work>
  </rdf:RDF>
 </metadata>
 <defs>
  <style type="text/css">*{stroke-linejoin: round; stroke-linecap: butt}</style>
 </defs>
 <g id="figure_1">
  <g id="patch_1">
   <path d="M 0 345.6 
L 460.8 345.6 
L 460.8 0 
L 0 0 
z
" style="fill: #ffffff"/>
  </g>
  <g id="axes_1">
   <g id="patch_2">
    <path d="M 57.6 298.944 
L 360.8064 298.944 
L 360.8064 6.912 
L 57.6 6.912 
z
" style="fill: #ffffff"/>
   </g>
   <g id="line2d_1">
    <path d="M 34.951403 298.944 
L 34.951403 297.798776 
L 61.029752 297.798776 
L 61.029752 296.653553 
L 69.172597 296.653553 
L 69.172597 295.508329 
L 70.162907 295.508329 
L 70.162907 294.363106 
L 71.103681 294.363106 
L 71.103681 238.247153 
L 71.556993 238.247153 
L 71.556993 235.956706 
L 71.999638 235.956706 
L 71.999638 182.1312 
L 105.485395 182.1312 
L 105.485395 180.985976 
L 111.280505 180.985976 
L 111.280505 179.840753 
L 111.602996 179.840753 
L 111.602996 178.695529 
L 112.989468 178.695529 
L 113.088217 176.405082 
L 113.137397 176.405082 
L 113.235374 167.243294 
L 113.284172 167.243294 
L 113.381389 154.645835 
L 113.429811 154.645835 
L 113.52628 136.322259 
L 113.57433 136.322259 
L 113.622258 123.7248 
L 113.717748 123.7248 
L 113.717748 122.579576 
L 114.141556 122.579576 
L 114.141556 121.434353 
L 114.510421 121.434353 
L 114.510421 120.289129 
L 125.678882 120.289129 
L 125.678882 119.143906 
L 143.530934 119.143906 
L 143.530934 117.998682 
L 148.397954 117.998682 
L 148.397954 116.853459 
L 152.328451 116.853459 
L 152.328451 115.708235 
L 153.519191 115.708235 
L 153.519191 114.563012 
L 155.954908 114.563012 
L 155.954908 113.417788 
L 157.442781 113.417788 
L 157.442781 112.272565 
L 160.391127 112.272565 
L 160.391127 111.127341 
L 161.713939 111.127341 
L 161.713939 109.982118 
L 166.546881 109.982118 
L 166.546881 108.836894 
L 168.021211 108.836894 
L 168.021211 107.691671 
L 169.237106 107.691671 
L 169.237106 106.546447 
L 169.378463 106.546447 
L 169.481946 49.285271 
L 169.499138 49.285271 
L 169.589749 34.397365 
L 169.628797 34.397365 
L 169.738188 22.945129 
L 169.743035 22.945129 
L 169.752725 18.364235 
L 207.487338 18.364235 
L 207.488315 16.073788 
L 224.293218 16.073788 
L 224.293751 6.912 
L 360.8064 6.912 
L 360.8064 6.912 
" style="fill: none; stroke: #f5deb3; stroke-width: 4; stroke-linecap: square"/>
   </g>
   <g id="line2d_2">
    <defs>
     <path id="mc87834530b" d="M -0 7.778175 
L 7.778175 0 
L 0 -7.778175 
L -7.778175 -0 
z
" style="stroke: #f5deb3; stroke-width: 1.5; stroke-linejoin: miter"/>
    </defs>
    <g>
     <use xlink:href="#mc87834530b" x="105.485395" y="182.1312" style="fill: #f5deb3; stroke: #f5deb3; stroke-width: 1.5; stroke-linejoin: miter"/>
     <use xlink:href="#mc87834530b" x="169.449976" y="80.206306" style="fill: #f5deb3; stroke: #f5deb3; stroke-width: 1.5; stroke-linejoin: miter"/>
     <use xlink:href="#mc87834530b" x="224.293751" y="8.057224" style="fill: #f5deb3; stroke: #f5deb3; stroke-width: 1.5; stroke-linejoin: miter"/>
     <use xlink:href="#mc87834530b" x="224.293751" y="6.912" style="fill: #f5deb3; stroke: #f5deb3; stroke-width: 1.5; stroke-linejoin: miter"/>
     <use xlink:href="#mc87834530b" x="224.293751" y="6.912" style="fill: #f5deb3; stroke: #f5deb3; stroke-width: 1.5; stroke-linejoin: miter"/>
     <use xlink:href="#mc87834530b" x="360.8064" y="6.912" style="fill: #f5deb3; stroke: #f5deb3; stroke-width: 1.5; stroke-linejoin: miter"/>
    </g>
   </g>
   <g id="line2d_3">
    <path style="fill: none; stroke: #f5deb3; stroke-width: 4; stroke-linecap: square"/>
    <g/>
   </g>
   <g id="line2d_4">
    <path d="M 360.8064 6.912 
L 380.514816 12.75264 
" style="fill: none; stroke: #f5deb3; stroke-width: 4; stroke-linecap: square"/>
    <g>
     <use xlink:href="#mc87834530b" x="360.8064" y="6.912" style="fill: #f5deb3; stroke: #f5deb3; stroke-width: 1.5; stroke-linejoin: miter"/>
     <use xlink:href="#mc87834530b" x="380.514816" y="12.75264" style="fill: #f5deb3; stroke: #f5deb3; stroke-width: 1.5; stroke-linejoin: miter"/>
    </g>
   </g>
   <g id="matplotlib.axis_1">
    <g id="xtick_1">
     <g id="line2d_5">
      <path d="M 57.6 298.944 
L 57.6 6.912 
" clip-path="url(#p246a08fe1d)" style="fill: none; stroke: #b0b0b0; stroke-width: 0.8; stroke-linecap: square"/>
     </g>
     <g id="line2d_6">
      <defs>
       <path id="mdfa9358233" d="M 0 0 
L 0 3.5 
" style="stroke: #000000; stroke-width: 0.8"/>
      </defs>
      <g>
       <use xlink:href="#mdfa9358233" x="57.6" y="298.944" style="stroke: #000000; stroke-width: 0.8"/>
      </g>
     </g>
     <g id="text_1">
      <!-- 0 -->
      <g transform="translate(52.191875 318.861344)scale(0.17 -0.17)">
       <defs>
        <path id="DejaVuSans-30" d="M 2034 4250 
Q 1547 4250 1301 3770 
Q 1056 3291 1056 2328 
Q 1056 1369 1301 889 
Q 1547 409 2034 409 
Q 2525 409 2770 889 
Q 3016 1369 3016 2328 
Q 3016 3291 2770 3770 
Q 2525 4250 2034 4250 
z
M 2034 4750 
Q 2819 4750 3233 4129 
Q 3647 3509 3647 2328 
Q 3647 1150 3233 529 
Q 2819 -91 2034 -91 
Q 1250 -91 836 529 
Q 422 1150 422 2328 
Q 422 3509 836 4129 
Q 1250 4750 2034 4750 
z
" transform="scale(0.015625)"/>
       </defs>
       <use xlink:href="#DejaVuSans-30"/>
      </g>
     </g>
    </g>
    <g id="xtick_2">
     <g id="line2d_7">
      <path d="M 144.2304 298.944 
L 144.2304 6.912 
" clip-path="url(#p246a08fe1d)" style="fill: none; stroke: #b0b0b0; stroke-width: 0.8; stroke-linecap: square"/>
     </g>
     <g id="line2d_8">
      <g>
       <use xlink:href="#mdfa9358233" x="144.2304" y="298.944" style="stroke: #000000; stroke-width: 0.8"/>
      </g>
     </g>
     <g id="text_2">
      <!-- 2 -->
      <g transform="translate(138.822275 318.861344)scale(0.17 -0.17)">
       <defs>
        <path id="DejaVuSans-32" d="M 1228 531 
L 3431 531 
L 3431 0 
L 469 0 
L 469 531 
Q 828 903 1448 1529 
Q 2069 2156 2228 2338 
Q 2531 2678 2651 2914 
Q 2772 3150 2772 3378 
Q 2772 3750 2511 3984 
Q 2250 4219 1831 4219 
Q 1534 4219 1204 4116 
Q 875 4013 500 3803 
L 500 4441 
Q 881 4594 1212 4672 
Q 1544 4750 1819 4750 
Q 2544 4750 2975 4387 
Q 3406 4025 3406 3419 
Q 3406 3131 3298 2873 
Q 3191 2616 2906 2266 
Q 2828 2175 2409 1742 
Q 1991 1309 1228 531 
z
" transform="scale(0.015625)"/>
       </defs>
       <use xlink:href="#DejaVuSans-32"/>
      </g>
     </g>
    </g>
    <g id="xtick_3">
     <g id="line2d_9">
      <path d="M 230.8608 298.944 
L 230.8608 6.912 
" clip-path="url(#p246a08fe1d)" style="fill: none; stroke: #b0b0b0; stroke-width: 0.8; stroke-linecap: square"/>
     </g>
     <g id="line2d_10">
      <g>
       <use xlink:href="#mdfa9358233" x="230.8608" y="298.944" style="stroke: #000000; stroke-width: 0.8"/>
      </g>
     </g>
     <g id="text_3">
      <!-- 4 -->
      <g transform="translate(225.452675 318.861344)scale(0.17 -0.17)">
       <defs>
        <path id="DejaVuSans-34" d="M 2419 4116 
L 825 1625 
L 2419 1625 
L 2419 4116 
z
M 2253 4666 
L 3047 4666 
L 3047 1625 
L 3713 1625 
L 3713 1100 
L 3047 1100 
L 3047 0 
L 2419 0 
L 2419 1100 
L 313 1100 
L 313 1709 
L 2253 4666 
z
" transform="scale(0.015625)"/>
       </defs>
       <use xlink:href="#DejaVuSans-34"/>
      </g>
     </g>
    </g>
    <g id="xtick_4">
     <g id="line2d_11">
      <path d="M 317.4912 298.944 
L 317.4912 6.912 
" clip-path="url(#p246a08fe1d)" style="fill: none; stroke: #b0b0b0; stroke-width: 0.8; stroke-linecap: square"/>
     </g>
     <g id="line2d_12">
      <g>
       <use xlink:href="#mdfa9358233" x="317.4912" y="298.944" style="stroke: #000000; stroke-width: 0.8"/>
      </g>
     </g>
     <g id="text_4">
      <!-- 6 -->
      <g transform="translate(312.083075 318.861344)scale(0.17 -0.17)">
       <defs>
        <path id="DejaVuSans-36" d="M 2113 2584 
Q 1688 2584 1439 2293 
Q 1191 2003 1191 1497 
Q 1191 994 1439 701 
Q 1688 409 2113 409 
Q 2538 409 2786 701 
Q 3034 994 3034 1497 
Q 3034 2003 2786 2293 
Q 2538 2584 2113 2584 
z
M 3366 4563 
L 3366 3988 
Q 3128 4100 2886 4159 
Q 2644 4219 2406 4219 
Q 1781 4219 1451 3797 
Q 1122 3375 1075 2522 
Q 1259 2794 1537 2939 
Q 1816 3084 2150 3084 
Q 2853 3084 3261 2657 
Q 3669 2231 3669 1497 
Q 3669 778 3244 343 
Q 2819 -91 2113 -91 
Q 1303 -91 875 529 
Q 447 1150 447 2328 
Q 447 3434 972 4092 
Q 1497 4750 2381 4750 
Q 2619 4750 2861 4703 
Q 3103 4656 3366 4563 
z
" transform="scale(0.015625)"/>
       </defs>
       <use xlink:href="#DejaVuSans-36"/>
      </g>
     </g>
    </g>
    <g id="xtick_5">
     <g id="line2d_13">
      <path d="M 100.9152 298.944 
L 100.9152 6.912 
" clip-path="url(#p246a08fe1d)" style="fill: none; stroke: #b0b0b0; stroke-width: 0.8; stroke-linecap: square"/>
     </g>
     <g id="line2d_14">
      <defs>
       <path id="meaa1329d97" d="M 0 0 
L 0 2 
" style="stroke: #000000; stroke-width: 0.6"/>
      </defs>
      <g>
       <use xlink:href="#meaa1329d97" x="100.9152" y="298.944" style="stroke: #000000; stroke-width: 0.6"/>
      </g>
     </g>
    </g>
    <g id="xtick_6">
     <g id="line2d_15">
      <path d="M 187.5456 298.944 
L 187.5456 6.912 
" clip-path="url(#p246a08fe1d)" style="fill: none; stroke: #b0b0b0; stroke-width: 0.8; stroke-linecap: square"/>
     </g>
     <g id="line2d_16">
      <g>
       <use xlink:href="#meaa1329d97" x="187.5456" y="298.944" style="stroke: #000000; stroke-width: 0.6"/>
      </g>
     </g>
    </g>
    <g id="xtick_7">
     <g id="line2d_17">
      <path d="M 274.176 298.944 
L 274.176 6.912 
" clip-path="url(#p246a08fe1d)" style="fill: none; stroke: #b0b0b0; stroke-width: 0.8; stroke-linecap: square"/>
     </g>
     <g id="line2d_18">
      <g>
       <use xlink:href="#meaa1329d97" x="274.176" y="298.944" style="stroke: #000000; stroke-width: 0.6"/>
      </g>
     </g>
    </g>
    <g id="xtick_8">
     <g id="line2d_19">
      <path d="M 360.8064 298.944 
L 360.8064 6.912 
" clip-path="url(#p246a08fe1d)" style="fill: none; stroke: #b0b0b0; stroke-width: 0.8; stroke-linecap: square"/>
     </g>
     <g id="line2d_20">
      <g>
       <use xlink:href="#meaa1329d97" x="360.8064" y="298.944" style="stroke: #000000; stroke-width: 0.6"/>
      </g>
     </g>
    </g>
    <g id="text_5">
     <!-- log10(# f-evals / dimension) -->
     <g transform="translate(88.823278 339.314156)scale(0.17 -0.17)">
      <defs>
       <path id="DejaVuSans-6c" d="M 603 4863 
L 1178 4863 
L 1178 0 
L 603 0 
L 603 4863 
z
" transform="scale(0.015625)"/>
       <path id="DejaVuSans-6f" d="M 1959 3097 
Q 1497 3097 1228 2736 
Q 959 2375 959 1747 
Q 959 1119 1226 758 
Q 1494 397 1959 397 
Q 2419 397 2687 759 
Q 2956 1122 2956 1747 
Q 2956 2369 2687 2733 
Q 2419 3097 1959 3097 
z
M 1959 3584 
Q 2709 3584 3137 3096 
Q 3566 2609 3566 1747 
Q 3566 888 3137 398 
Q 2709 -91 1959 -91 
Q 1206 -91 779 398 
Q 353 888 353 1747 
Q 353 2609 779 3096 
Q 1206 3584 1959 3584 
z
" transform="scale(0.015625)"/>
       <path id="DejaVuSans-67" d="M 2906 1791 
Q 2906 2416 2648 2759 
Q 2391 3103 1925 3103 
Q 1463 3103 1205 2759 
Q 947 2416 947 1791 
Q 947 1169 1205 825 
Q 1463 481 1925 481 
Q 2391 481 2648 825 
Q 2906 1169 2906 1791 
z
M 3481 434 
Q 3481 -459 3084 -895 
Q 2688 -1331 1869 -1331 
Q 1566 -1331 1297 -1286 
Q 1028 -1241 775 -1147 
L 775 -588 
Q 1028 -725 1275 -790 
Q 1522 -856 1778 -856 
Q 2344 -856 2625 -561 
Q 2906 -266 2906 331 
L 2906 616 
Q 2728 306 2450 153 
Q 2172 0 1784 0 
Q 1141 0 747 490 
Q 353 981 353 1791 
Q 353 2603 747 3093 
Q 1141 3584 1784 3584 
Q 2172 3584 2450 3431 
Q 2728 3278 2906 2969 
L 2906 3500 
L 3481 3500 
L 3481 434 
z
" transform="scale(0.015625)"/>
       <path id="DejaVuSans-31" d="M 794 531 
L 1825 531 
L 1825 4091 
L 703 3866 
L 703 4441 
L 1819 4666 
L 2450 4666 
L 2450 531 
L 3481 531 
L 3481 0 
L 794 0 
L 794 531 
z
" transform="scale(0.015625)"/>
       <path id="DejaVuSans-28" d="M 1984 4856 
Q 1566 4138 1362 3434 
Q 1159 2731 1159 2009 
Q 1159 1288 1364 580 
Q 1569 -128 1984 -844 
L 1484 -844 
Q 1016 -109 783 600 
Q 550 1309 550 2009 
Q 550 2706 781 3412 
Q 1013 4119 1484 4856 
L 1984 4856 
z
" transform="scale(0.015625)"/>
       <path id="DejaVuSans-23" d="M 3272 2816 
L 2363 2816 
L 2100 1772 
L 3016 1772 
L 3272 2816 
z
M 2803 4594 
L 2478 3297 
L 3391 3297 
L 3719 4594 
L 4219 4594 
L 3897 3297 
L 4872 3297 
L 4872 2816 
L 3775 2816 
L 3519 1772 
L 4513 1772 
L 4513 1294 
L 3397 1294 
L 3072 0 
L 2572 0 
L 2894 1294 
L 1978 1294 
L 1656 0 
L 1153 0 
L 1478 1294 
L 494 1294 
L 494 1772 
L 1594 1772 
L 1856 2816 
L 850 2816 
L 850 3297 
L 1978 3297 
L 2297 4594 
L 2803 4594 
z
" transform="scale(0.015625)"/>
       <path id="DejaVuSans-20" transform="scale(0.015625)"/>
       <path id="DejaVuSans-66" d="M 2375 4863 
L 2375 4384 
L 1825 4384 
Q 1516 4384 1395 4259 
Q 1275 4134 1275 3809 
L 1275 3500 
L 2222 3500 
L 2222 3053 
L 1275 3053 
L 1275 0 
L 697 0 
L 697 3053 
L 147 3053 
L 147 3500 
L 697 3500 
L 697 3744 
Q 697 4328 969 4595 
Q 1241 4863 1831 4863 
L 2375 4863 
z
" transform="scale(0.015625)"/>
       <path id="DejaVuSans-2d" d="M 313 2009 
L 1997 2009 
L 1997 1497 
L 313 1497 
L 313 2009 
z
" transform="scale(0.015625)"/>
       <path id="DejaVuSans-65" d="M 3597 1894 
L 3597 1613 
L 953 1613 
Q 991 1019 1311 708 
Q 1631 397 2203 397 
Q 2534 397 2845 478 
Q 3156 559 3463 722 
L 3463 178 
Q 3153 47 2828 -22 
Q 2503 -91 2169 -91 
Q 1331 -91 842 396 
Q 353 884 353 1716 
Q 353 2575 817 3079 
Q 1281 3584 2069 3584 
Q 2775 3584 3186 3129 
Q 3597 2675 3597 1894 
z
M 3022 2063 
Q 3016 2534 2758 2815 
Q 2500 3097 2075 3097 
Q 1594 3097 1305 2825 
Q 1016 2553 972 2059 
L 3022 2063 
z
" transform="scale(0.015625)"/>
       <path id="DejaVuSans-76" d="M 191 3500 
L 800 3500 
L 1894 563 
L 2988 3500 
L 3597 3500 
L 2284 0 
L 1503 0 
L 191 3500 
z
" transform="scale(0.015625)"/>
       <path id="DejaVuSans-61" d="M 2194 1759 
Q 1497 1759 1228 1600 
Q 959 1441 959 1056 
Q 959 750 1161 570 
Q 1363 391 1709 391 
Q 2188 391 2477 730 
Q 2766 1069 2766 1631 
L 2766 1759 
L 2194 1759 
z
M 3341 1997 
L 3341 0 
L 2766 0 
L 2766 531 
Q 2569 213 2275 61 
Q 1981 -91 1556 -91 
Q 1019 -91 701 211 
Q 384 513 384 1019 
Q 384 1609 779 1909 
Q 1175 2209 1959 2209 
L 2766 2209 
L 2766 2266 
Q 2766 2663 2505 2880 
Q 2244 3097 1772 3097 
Q 1472 3097 1187 3025 
Q 903 2953 641 2809 
L 641 3341 
Q 956 3463 1253 3523 
Q 1550 3584 1831 3584 
Q 2591 3584 2966 3190 
Q 3341 2797 3341 1997 
z
" transform="scale(0.015625)"/>
       <path id="DejaVuSans-73" d="M 2834 3397 
L 2834 2853 
Q 2591 2978 2328 3040 
Q 2066 3103 1784 3103 
Q 1356 3103 1142 2972 
Q 928 2841 928 2578 
Q 928 2378 1081 2264 
Q 1234 2150 1697 2047 
L 1894 2003 
Q 2506 1872 2764 1633 
Q 3022 1394 3022 966 
Q 3022 478 2636 193 
Q 2250 -91 1575 -91 
Q 1294 -91 989 -36 
Q 684 19 347 128 
L 347 722 
Q 666 556 975 473 
Q 1284 391 1588 391 
Q 1994 391 2212 530 
Q 2431 669 2431 922 
Q 2431 1156 2273 1281 
Q 2116 1406 1581 1522 
L 1381 1569 
Q 847 1681 609 1914 
Q 372 2147 372 2553 
Q 372 3047 722 3315 
Q 1072 3584 1716 3584 
Q 2034 3584 2315 3537 
Q 2597 3491 2834 3397 
z
" transform="scale(0.015625)"/>
       <path id="DejaVuSans-2f" d="M 1625 4666 
L 2156 4666 
L 531 -594 
L 0 -594 
L 1625 4666 
z
" transform="scale(0.015625)"/>
       <path id="DejaVuSans-64" d="M 2906 2969 
L 2906 4863 
L 3481 4863 
L 3481 0 
L 2906 0 
L 2906 525 
Q 2725 213 2448 61 
Q 2172 -91 1784 -91 
Q 1150 -91 751 415 
Q 353 922 353 1747 
Q 353 2572 751 3078 
Q 1150 3584 1784 3584 
Q 2172 3584 2448 3432 
Q 2725 3281 2906 2969 
z
M 947 1747 
Q 947 1113 1208 752 
Q 1469 391 1925 391 
Q 2381 391 2643 752 
Q 2906 1113 2906 1747 
Q 2906 2381 2643 2742 
Q 2381 3103 1925 3103 
Q 1469 3103 1208 2742 
Q 947 2381 947 1747 
z
" transform="scale(0.015625)"/>
       <path id="DejaVuSans-69" d="M 603 3500 
L 1178 3500 
L 1178 0 
L 603 0 
L 603 3500 
z
M 603 4863 
L 1178 4863 
L 1178 4134 
L 603 4134 
L 603 4863 
z
" transform="scale(0.015625)"/>
       <path id="DejaVuSans-6d" d="M 3328 2828 
Q 3544 3216 3844 3400 
Q 4144 3584 4550 3584 
Q 5097 3584 5394 3201 
Q 5691 2819 5691 2113 
L 5691 0 
L 5113 0 
L 5113 2094 
Q 5113 2597 4934 2840 
Q 4756 3084 4391 3084 
Q 3944 3084 3684 2787 
Q 3425 2491 3425 1978 
L 3425 0 
L 2847 0 
L 2847 2094 
Q 2847 2600 2669 2842 
Q 2491 3084 2119 3084 
Q 1678 3084 1418 2786 
Q 1159 2488 1159 1978 
L 1159 0 
L 581 0 
L 581 3500 
L 1159 3500 
L 1159 2956 
Q 1356 3278 1631 3431 
Q 1906 3584 2284 3584 
Q 2666 3584 2933 3390 
Q 3200 3197 3328 2828 
z
" transform="scale(0.015625)"/>
       <path id="DejaVuSans-6e" d="M 3513 2113 
L 3513 0 
L 2938 0 
L 2938 2094 
Q 2938 2591 2744 2837 
Q 2550 3084 2163 3084 
Q 1697 3084 1428 2787 
Q 1159 2491 1159 1978 
L 1159 0 
L 581 0 
L 581 3500 
L 1159 3500 
L 1159 2956 
Q 1366 3272 1645 3428 
Q 1925 3584 2291 3584 
Q 2894 3584 3203 3211 
Q 3513 2838 3513 2113 
z
" transform="scale(0.015625)"/>
       <path id="DejaVuSans-29" d="M 513 4856 
L 1013 4856 
Q 1481 4119 1714 3412 
Q 1947 2706 1947 2009 
Q 1947 1309 1714 600 
Q 1481 -109 1013 -844 
L 513 -844 
Q 928 -128 1133 580 
Q 1338 1288 1338 2009 
Q 1338 2731 1133 3434 
Q 928 4138 513 4856 
z
" transform="scale(0.015625)"/>
      </defs>
      <use xlink:href="#DejaVuSans-6c"/>
      <use xlink:href="#DejaVuSans-6f" x="27.783203"/>
      <use xlink:href="#DejaVuSans-67" x="88.964844"/>
      <use xlink:href="#DejaVuSans-31" x="152.441406"/>
      <use xlink:href="#DejaVuSans-30" x="216.064453"/>
      <use xlink:href="#DejaVuSans-28" x="279.6875"/>
      <use xlink:href="#DejaVuSans-23" x="318.701172"/>
      <use xlink:href="#DejaVuSans-20" x="402.490234"/>
      <use xlink:href="#DejaVuSans-66" x="434.277344"/>
      <use xlink:href="#DejaVuSans-2d" x="463.982422"/>
      <use xlink:href="#DejaVuSans-65" x="500.066406"/>
      <use xlink:href="#DejaVuSans-76" x="561.589844"/>
      <use xlink:href="#DejaVuSans-61" x="620.769531"/>
      <use xlink:href="#DejaVuSans-6c" x="682.048828"/>
      <use xlink:href="#DejaVuSans-73" x="709.832031"/>
      <use xlink:href="#DejaVuSans-20" x="761.931641"/>
      <use xlink:href="#DejaVuSans-2f" x="793.71875"/>
      <use xlink:href="#DejaVuSans-20" x="827.410156"/>
      <use xlink:href="#DejaVuSans-64" x="859.197266"/>
      <use xlink:href="#DejaVuSans-69" x="922.673828"/>
      <use xlink:href="#DejaVuSans-6d" x="950.457031"/>
      <use xlink:href="#DejaVuSans-65" x="1047.869141"/>
      <use xlink:href="#DejaVuSans-6e" x="1109.392578"/>
      <use xlink:href="#DejaVuSans-73" x="1172.771484"/>
      <use xlink:href="#DejaVuSans-69" x="1224.871094"/>
      <use xlink:href="#DejaVuSans-6f" x="1252.654297"/>
      <use xlink:href="#DejaVuSans-6e" x="1313.835938"/>
      <use xlink:href="#DejaVuSans-29" x="1377.214844"/>
     </g>
    </g>
   </g>
   <g id="matplotlib.axis_2">
    <g id="ytick_1">
     <g id="line2d_21">
      <path d="M 57.6 298.944 
L 360.8064 298.944 
" clip-path="url(#p246a08fe1d)" style="fill: none; stroke: #b0b0b0; stroke-width: 0.8; stroke-linecap: square"/>
     </g>
     <g id="line2d_22">
      <defs>
       <path id="m9f85a439dc" d="M 0 0 
L -3.5 0 
" style="stroke: #000000; stroke-width: 0.8"/>
      </defs>
      <g>
       <use xlink:href="#m9f85a439dc" x="57.6" y="298.944" style="stroke: #000000; stroke-width: 0.8"/>
      </g>
     </g>
     <g id="text_6">
      <!-- 0.0 -->
      <g transform="translate(25.155 305.02275)scale(0.16 -0.16)">
       <defs>
        <path id="DejaVuSans-2e" d="M 684 794 
L 1344 794 
L 1344 0 
L 684 0 
L 684 794 
z
" transform="scale(0.015625)"/>
       </defs>
       <use xlink:href="#DejaVuSans-30"/>
       <use xlink:href="#DejaVuSans-2e" x="63.623047"/>
       <use xlink:href="#DejaVuSans-30" x="95.410156"/>
      </g>
     </g>
    </g>
    <g id="ytick_2">
     <g id="line2d_23">
      <path d="M 57.6 240.5376 
L 360.8064 240.5376 
" clip-path="url(#p246a08fe1d)" style="fill: none; stroke: #b0b0b0; stroke-width: 0.8; stroke-linecap: square"/>
     </g>
     <g id="line2d_24">
      <g>
       <use xlink:href="#m9f85a439dc" x="57.6" y="240.5376" style="stroke: #000000; stroke-width: 0.8"/>
      </g>
     </g>
     <g id="text_7">
      <!-- 0.2 -->
      <g transform="translate(25.155 246.61635)scale(0.16 -0.16)">
       <use xlink:href="#DejaVuSans-30"/>
       <use xlink:href="#DejaVuSans-2e" x="63.623047"/>
       <use xlink:href="#DejaVuSans-32" x="95.410156"/>
      </g>
     </g>
    </g>
    <g id="ytick_3">
     <g id="line2d_25">
      <path d="M 57.6 182.1312 
L 360.8064 182.1312 
" clip-path="url(#p246a08fe1d)" style="fill: none; stroke: #b0b0b0; stroke-width: 0.8; stroke-linecap: square"/>
     </g>
     <g id="line2d_26">
      <g>
       <use xlink:href="#m9f85a439dc" x="57.6" y="182.1312" style="stroke: #000000; stroke-width: 0.8"/>
      </g>
     </g>
     <g id="text_8">
      <!-- 0.4 -->
      <g transform="translate(25.155 188.20995)scale(0.16 -0.16)">
       <use xlink:href="#DejaVuSans-30"/>
       <use xlink:href="#DejaVuSans-2e" x="63.623047"/>
       <use xlink:href="#DejaVuSans-34" x="95.410156"/>
      </g>
     </g>
    </g>
    <g id="ytick_4">
     <g id="line2d_27">
      <path d="M 57.6 123.7248 
L 360.8064 123.7248 
" clip-path="url(#p246a08fe1d)" style="fill: none; stroke: #b0b0b0; stroke-width: 0.8; stroke-linecap: square"/>
     </g>
     <g id="line2d_28">
      <g>
       <use xlink:href="#m9f85a439dc" x="57.6" y="123.7248" style="stroke: #000000; stroke-width: 0.8"/>
      </g>
     </g>
     <g id="text_9">
      <!-- 0.6 -->
      <g transform="translate(25.155 129.80355)scale(0.16 -0.16)">
       <use xlink:href="#DejaVuSans-30"/>
       <use xlink:href="#DejaVuSans-2e" x="63.623047"/>
       <use xlink:href="#DejaVuSans-36" x="95.410156"/>
      </g>
     </g>
    </g>
    <g id="ytick_5">
     <g id="line2d_29">
      <path d="M 57.6 65.3184 
L 360.8064 65.3184 
" clip-path="url(#p246a08fe1d)" style="fill: none; stroke: #b0b0b0; stroke-width: 0.8; stroke-linecap: square"/>
     </g>
     <g id="line2d_30">
      <g>
       <use xlink:href="#m9f85a439dc" x="57.6" y="65.3184" style="stroke: #000000; stroke-width: 0.8"/>
      </g>
     </g>
     <g id="text_10">
      <!-- 0.8 -->
      <g transform="translate(25.155 71.39715)scale(0.16 -0.16)">
       <defs>
        <path id="DejaVuSans-38" d="M 2034 2216 
Q 1584 2216 1326 1975 
Q 1069 1734 1069 1313 
Q 1069 891 1326 650 
Q 1584 409 2034 409 
Q 2484 409 2743 651 
Q 3003 894 3003 1313 
Q 3003 1734 2745 1975 
Q 2488 2216 2034 2216 
z
M 1403 2484 
Q 997 2584 770 2862 
Q 544 3141 544 3541 
Q 544 4100 942 4425 
Q 1341 4750 2034 4750 
Q 2731 4750 3128 4425 
Q 3525 4100 3525 3541 
Q 3525 3141 3298 2862 
Q 3072 2584 2669 2484 
Q 3125 2378 3379 2068 
Q 3634 1759 3634 1313 
Q 3634 634 3220 271 
Q 2806 -91 2034 -91 
Q 1263 -91 848 271 
Q 434 634 434 1313 
Q 434 1759 690 2068 
Q 947 2378 1403 2484 
z
M 1172 3481 
Q 1172 3119 1398 2916 
Q 1625 2713 2034 2713 
Q 2441 2713 2670 2916 
Q 2900 3119 2900 3481 
Q 2900 3844 2670 4047 
Q 2441 4250 2034 4250 
Q 1625 4250 1398 4047 
Q 1172 3844 1172 3481 
z
" transform="scale(0.015625)"/>
       </defs>
       <use xlink:href="#DejaVuSans-30"/>
       <use xlink:href="#DejaVuSans-2e" x="63.623047"/>
       <use xlink:href="#DejaVuSans-38" x="95.410156"/>
      </g>
     </g>
    </g>
    <g id="ytick_6">
     <g id="line2d_31">
      <path d="M 57.6 6.912 
L 360.8064 6.912 
" clip-path="url(#p246a08fe1d)" style="fill: none; stroke: #b0b0b0; stroke-width: 0.8; stroke-linecap: square"/>
     </g>
     <g id="line2d_32">
      <g>
       <use xlink:href="#m9f85a439dc" x="57.6" y="6.912" style="stroke: #000000; stroke-width: 0.8"/>
      </g>
     </g>
     <g id="text_11">
      <!-- 1.0 -->
      <g transform="translate(25.155 12.99075)scale(0.16 -0.16)">
       <use xlink:href="#DejaVuSans-31"/>
       <use xlink:href="#DejaVuSans-2e" x="63.623047"/>
       <use xlink:href="#DejaVuSans-30" x="95.410156"/>
      </g>
     </g>
    </g>
    <g id="text_12">
     <!-- Fraction of function,target pairs -->
     <g transform="translate(17.619531 287.313)rotate(-90)scale(0.17 -0.17)">
      <defs>
       <path id="DejaVuSans-46" d="M 628 4666 
L 3309 4666 
L 3309 4134 
L 1259 4134 
L 1259 2759 
L 3109 2759 
L 3109 2228 
L 1259 2228 
L 1259 0 
L 628 0 
L 628 4666 
z
" transform="scale(0.015625)"/>
       <path id="DejaVuSans-72" d="M 2631 2963 
Q 2534 3019 2420 3045 
Q 2306 3072 2169 3072 
Q 1681 3072 1420 2755 
Q 1159 2438 1159 1844 
L 1159 0 
L 581 0 
L 581 3500 
L 1159 3500 
L 1159 2956 
Q 1341 3275 1631 3429 
Q 1922 3584 2338 3584 
Q 2397 3584 2469 3576 
Q 2541 3569 2628 3553 
L 2631 2963 
z
" transform="scale(0.015625)"/>
       <path id="DejaVuSans-63" d="M 3122 3366 
L 3122 2828 
Q 2878 2963 2633 3030 
Q 2388 3097 2138 3097 
Q 1578 3097 1268 2742 
Q 959 2388 959 1747 
Q 959 1106 1268 751 
Q 1578 397 2138 397 
Q 2388 397 2633 464 
Q 2878 531 3122 666 
L 3122 134 
Q 2881 22 2623 -34 
Q 2366 -91 2075 -91 
Q 1284 -91 818 406 
Q 353 903 353 1747 
Q 353 2603 823 3093 
Q 1294 3584 2113 3584 
Q 2378 3584 2631 3529 
Q 2884 3475 3122 3366 
z
" transform="scale(0.015625)"/>
       <path id="DejaVuSans-74" d="M 1172 4494 
L 1172 3500 
L 2356 3500 
L 2356 3053 
L 1172 3053 
L 1172 1153 
Q 1172 725 1289 603 
Q 1406 481 1766 481 
L 2356 481 
L 2356 0 
L 1766 0 
Q 1100 0 847 248 
Q 594 497 594 1153 
L 594 3053 
L 172 3053 
L 172 3500 
L 594 3500 
L 594 4494 
L 1172 4494 
z
" transform="scale(0.015625)"/>
       <path id="DejaVuSans-75" d="M 544 1381 
L 544 3500 
L 1119 3500 
L 1119 1403 
Q 1119 906 1312 657 
Q 1506 409 1894 409 
Q 2359 409 2629 706 
Q 2900 1003 2900 1516 
L 2900 3500 
L 3475 3500 
L 3475 0 
L 2900 0 
L 2900 538 
Q 2691 219 2414 64 
Q 2138 -91 1772 -91 
Q 1169 -91 856 284 
Q 544 659 544 1381 
z
M 1991 3584 
L 1991 3584 
z
" transform="scale(0.015625)"/>
       <path id="DejaVuSans-2c" d="M 750 794 
L 1409 794 
L 1409 256 
L 897 -744 
L 494 -744 
L 750 256 
L 750 794 
z
" transform="scale(0.015625)"/>
       <path id="DejaVuSans-70" d="M 1159 525 
L 1159 -1331 
L 581 -1331 
L 581 3500 
L 1159 3500 
L 1159 2969 
Q 1341 3281 1617 3432 
Q 1894 3584 2278 3584 
Q 2916 3584 3314 3078 
Q 3713 2572 3713 1747 
Q 3713 922 3314 415 
Q 2916 -91 2278 -91 
Q 1894 -91 1617 61 
Q 1341 213 1159 525 
z
M 3116 1747 
Q 3116 2381 2855 2742 
Q 2594 3103 2138 3103 
Q 1681 3103 1420 2742 
Q 1159 2381 1159 1747 
Q 1159 1113 1420 752 
Q 1681 391 2138 391 
Q 2594 391 2855 752 
Q 3116 1113 3116 1747 
z
" transform="scale(0.015625)"/>
      </defs>
      <use xlink:href="#DejaVuSans-46"/>
      <use xlink:href="#DejaVuSans-72" x="50.269531"/>
      <use xlink:href="#DejaVuSans-61" x="91.382812"/>
      <use xlink:href="#DejaVuSans-63" x="152.662109"/>
      <use xlink:href="#DejaVuSans-74" x="207.642578"/>
      <use xlink:href="#DejaVuSans-69" x="246.851562"/>
      <use xlink:href="#DejaVuSans-6f" x="274.634766"/>
      <use xlink:href="#DejaVuSans-6e" x="335.816406"/>
      <use xlink:href="#DejaVuSans-20" x="399.195312"/>
      <use xlink:href="#DejaVuSans-6f" x="430.982422"/>
      <use xlink:href="#DejaVuSans-66" x="492.164062"/>
      <use xlink:href="#DejaVuSans-20" x="527.369141"/>
      <use xlink:href="#DejaVuSans-66" x="559.15625"/>
      <use xlink:href="#DejaVuSans-75" x="594.361328"/>
      <use xlink:href="#DejaVuSans-6e" x="657.740234"/>
      <use xlink:href="#DejaVuSans-63" x="721.119141"/>
      <use xlink:href="#DejaVuSans-74" x="776.099609"/>
      <use xlink:href="#DejaVuSans-69" x="815.308594"/>
      <use xlink:href="#DejaVuSans-6f" x="843.091797"/>
      <use xlink:href="#DejaVuSans-6e" x="904.273438"/>
      <use xlink:href="#DejaVuSans-2c" x="967.652344"/>
      <use xlink:href="#DejaVuSans-74" x="999.439453"/>
      <use xlink:href="#DejaVuSans-61" x="1038.648438"/>
      <use xlink:href="#DejaVuSans-72" x="1099.927734"/>
      <use xlink:href="#DejaVuSans-67" x="1139.291016"/>
      <use xlink:href="#DejaVuSans-65" x="1202.767578"/>
      <use xlink:href="#DejaVuSans-74" x="1264.291016"/>
      <use xlink:href="#DejaVuSans-20" x="1303.5"/>
      <use xlink:href="#DejaVuSans-70" x="1335.287109"/>
      <use xlink:href="#DejaVuSans-61" x="1398.763672"/>
      <use xlink:href="#DejaVuSans-69" x="1460.042969"/>
      <use xlink:href="#DejaVuSans-72" x="1487.826172"/>
      <use xlink:href="#DejaVuSans-73" x="1528.939453"/>
     </g>
    </g>
   </g>
   <g id="line2d_33">
    <defs>
     <path id="m773ed9f802" d="M 0 1.5 
C 0.397805 1.5 0.77937 1.341951 1.06066 1.06066 
C 1.341951 0.77937 1.5 0.397805 1.5 0 
C 1.5 -0.397805 1.341951 -0.77937 1.06066 -1.06066 
C 0.77937 -1.341951 0.397805 -1.5 0 -1.5 
C -0.397805 -1.5 -0.77937 -1.341951 -1.06066 -1.06066 
C -1.341951 -0.77937 -1.5 -0.397805 -1.5 0 
C -1.5 0.397805 -1.341951 0.77937 -1.06066 1.06066 
C -0.77937 1.341951 -0.397805 1.5 0 1.5 
z
" style="stroke: #f5deb3"/>
    </defs>
    <g>
     <use xlink:href="#m773ed9f802" x="224.293751" y="6.912" style="fill: #f5deb3; stroke: #f5deb3"/>
     <use xlink:href="#m773ed9f802" x="224.293751" y="6.912" style="fill: #f5deb3; stroke: #f5deb3"/>
    </g>
   </g>
   <g id="line2d_34">
    <defs>
     <path id="m763c2f8fb3" d="M 0 1.5 
C 0.397805 1.5 0.77937 1.341951 1.06066 1.06066 
C 1.341951 0.77937 1.5 0.397805 1.5 0 
C 1.5 -0.397805 1.341951 -0.77937 1.06066 -1.06066 
C 0.77937 -1.341951 0.397805 -1.5 0 -1.5 
C -0.397805 -1.5 -0.77937 -1.341951 -1.06066 -1.06066 
C -1.341951 -0.77937 -1.5 -0.397805 -1.5 0 
C -1.5 0.397805 -1.341951 0.77937 -1.06066 1.06066 
C -0.77937 1.341951 -0.397805 1.5 0 1.5 
z
" style="stroke: #000080"/>
    </defs>
    <g>
     <use xlink:href="#m763c2f8fb3" x="289.160371" y="112.272565" style="fill: #000080; stroke: #000080"/>
     <use xlink:href="#m763c2f8fb3" x="289.160371" y="112.272565" style="fill: #000080; stroke: #000080"/>
    </g>
   </g>
   <g id="line2d_35">
    <path d="M 1.245626 298.944 
L 1.245626 298.485911 
L 49.496305 298.394293 
L 49.496305 298.348484 
L 53.402323 298.302675 
L 53.402323 298.211057 
L 56.635094 298.165248 
L 56.635094 298.027821 
L 61.797677 297.936203 
L 61.797677 297.844585 
L 66.441498 297.752968 
L 66.441498 297.707159 
L 70.639174 297.615541 
L 70.639174 297.569732 
L 71.103681 297.569732 
L 71.103681 297.432305 
L 72.432107 297.386496 
L 72.432107 297.294878 
L 74.068926 297.249069 
L 74.068926 297.157451 
L 74.836851 297.111642 
L 74.836851 296.928407 
L 75.574654 296.836789 
L 75.574654 296.79098 
L 76.284608 296.745171 
L 76.284608 296.653553 
L 79.77233 296.561935 
L 79.77233 296.516126 
L 82.211771 296.424508 
L 82.211771 296.378699 
L 82.959349 296.271812 
L 82.959349 296.226003 
L 83.678349 296.226003 
L 83.678349 296.088576 
L 85.25629 296.042767 
L 85.25629 295.90534 
L 85.894031 295.813722 
L 85.894031 295.767913 
L 86.712053 295.676296 
L 86.712053 295.630487 
L 87.495981 295.584678 
L 87.495981 295.49306 
L 87.876026 295.401442 
L 87.876026 295.294554 
L 88.432072 295.202936 
L 88.432072 295.111319 
L 88.793844 295.06551 
L 88.793844 294.928083 
L 89.839199 294.836465 
L 89.839199 294.790656 
L 90.007914 294.790656 
L 90.007914 294.60742 
L 90.668036 294.515802 
L 90.668036 294.469993 
L 91.616719 294.378376 
L 91.616719 294.332567 
L 92.223596 294.240949 
L 92.223596 294.103522 
L 92.666241 294.011904 
L 92.666241 293.966095 
L 93.381595 293.874477 
L 93.381595 293.645432 
L 93.66029 293.645432 
L 93.66029 293.477466 
L 94.07074 293.370579 
L 94.07074 293.355309 
L 94.995002 293.263691 
L 94.995002 293.034647 
L 95.250946 293.034647 
L 95.250946 292.851411 
L 95.503454 292.744523 
L 95.503454 292.652905 
L 95.875972 292.561288 
L 95.875972 292.515479 
L 96.120281 292.46967 
L 96.120281 292.316973 
L 96.717523 292.210086 
L 96.717523 292.118468 
L 96.95121 292.057389 
L 96.95121 291.950502 
L 97.18203 291.950502 
L 97.18203 291.813075 
L 97.857967 291.721457 
L 97.968299 291.56876 
L 98.18704 291.477143 
L 98.295464 291.385525 
L 98.617037 291.278637 
L 98.723018 291.049592 
L 98.933205 290.957975 
L 99.037425 290.774739 
L 99.244147 290.683121 
L 99.346662 290.423537 
L 99.448622 290.423537 
L 99.550033 290.209762 
L 100.049042 290.148683 
L 100.147275 289.995987 
L 100.342215 289.950178 
L 100.342215 289.614246 
L 100.535156 289.614246 
L 100.630889 287.354338 
L 100.820906 287.293259 
L 100.9152 286.514507 
L 101.195278 286.40762 
L 101.287718 286.254923 
L 101.471247 286.163305 
L 101.471247 285.842643 
L 101.743226 285.766295 
L 101.833019 285.659407 
L 102.099854 285.55252 
L 102.187964 285.354014 
L 102.362957 285.354014 
L 102.362957 285.216587 
L 102.536336 285.216587 
L 102.536336 284.987543 
L 102.793446 284.972273 
L 102.878374 282.987219 
L 103.130882 282.92614 
L 103.130882 282.559669 
L 103.380045 282.51386 
L 103.462371 282.345894 
L 103.625951 282.330624 
L 103.707211 281.964152 
L 103.868684 281.918344 
L 103.948904 279.704245 
L 104.028784 279.704245 
L 104.108325 279.536279 
L 104.42317 279.444661 
L 104.501065 279.307234 
L 104.655893 279.276695 
L 104.655893 279.185077 
L 104.809458 279.185077 
L 104.885773 278.559021 
L 105.037479 278.452134 
L 105.112877 276.360192 
L 105.411479 276.329653 
L 105.485395 274.207172 
L 105.778187 274.130824 
L 105.850679 272.1305 
L 106.066493 272.084691 
L 106.137884 271.794568 
L 106.279859 271.748759 
L 106.350446 271.580792 
L 106.42077 271.580792 
L 106.42077 267.77865 
L 106.630177 267.77865 
L 106.699465 265.243889 
L 106.837279 265.152271 
L 106.905809 264.953766 
L 107.177461 264.877417 
L 107.177461 264.724721 
L 107.31183 264.724721 
L 107.31183 262.968712 
L 107.5116 262.907633 
L 107.577722 260.632456 
L 107.904887 260.556107 
L 107.969643 260.44922 
L 108.162584 260.44922 
L 108.162584 258.464166 
L 108.29012 258.464166 
L 108.29012 258.2962 
L 108.479818 258.28093 
L 108.542628 257.792301 
L 108.791791 257.792301 
L 108.85357 257.120437 
L 109.098675 257.013549 
L 109.159456 256.402763 
L 109.340628 256.326415 
L 109.400633 254.265013 
L 109.579508 254.188664 
L 109.638757 253.150328 
L 109.815392 253.058711 
L 109.873904 252.325768 
L 110.163764 252.23415 
L 110.221204 252.127262 
L 110.392479 252.066184 
L 110.392479 251.760791 
L 110.562208 251.714982 
L 110.618446 251.302701 
L 110.674517 251.302701 
L 110.674517 247.546368 
L 110.952388 247.485289 
L 110.952388 247.424211 
L 111.117162 247.424211 
L 111.226215 246.920312 
L 111.54963 246.813425 
L 111.656212 246.706537 
L 111.86758 246.59965 
L 111.97238 246.324796 
L 112.128493 246.263718 
L 112.180244 245.897246 
L 112.334649 245.897246 
L 112.436886 245.515505 
L 112.589207 245.454426 
L 112.639708 245.210112 
L 113.038907 245.118494 
L 113.137397 244.935258 
L 113.284172 244.84364 
L 113.381389 244.110697 
L 113.765312 244.00381 
L 113.812756 243.973271 
L 114.048198 243.866383 
L 114.141556 243.286136 
L 114.372943 243.179249 
L 114.464707 243.087631 
L 114.601519 243.057092 
L 114.692177 242.858586 
L 114.7824 242.751699 
L 114.872193 242.660081 
L 114.961559 242.568463 
L 115.050503 242.354688 
L 115.183135 242.339418 
L 115.27104 242.003486 
L 115.575511 241.896599 
L 115.618607 241.621745 
L 115.747307 241.621745 
L 115.790012 241.163656 
L 116.002095 241.133116 
L 116.086263 240.98042 
L 116.253478 240.873532 
L 116.336531 240.5376 
L 116.377921 240.5376 
L 116.419219 240.216937 
L 116.583514 240.155859 
L 116.665126 239.789387 
L 116.786884 239.758848 
L 116.86762 239.377107 
L 116.948011 239.361837 
L 117.028061 239.193871 
L 117.1475 239.117523 
L 117.1475 239.102253 
L 117.187145 238.262423 
L 117.305581 238.170805 
L 117.384126 237.52948 
L 117.540239 237.483671 
L 117.617813 237.208817 
L 117.65648 237.208817 
L 117.733577 236.689649 
L 117.772007 236.689649 
L 117.772007 236.155211 
L 118.076654 236.094133 
L 118.152051 235.697122 
L 118.339232 235.605504 
L 118.376446 235.284841 
L 118.524569 235.284841 
L 118.598196 234.994718 
L 118.708098 234.948909 
L 118.781011 234.750404 
L 118.889854 234.719864 
L 118.925995 234.292314 
L 119.034004 234.246505 
L 119.034004 234.246505 
L 119.141397 233.895304 
L 119.177058 233.895304 
L 119.24818 233.742607 
L 119.459944 233.63572 
L 119.530006 233.406675 
L 119.599808 233.406675 
L 119.704027 232.200373 
L 119.944983 232.169833 
L 120.013265 231.956058 
L 120.115225 231.89498 
L 120.182892 231.711744 
L 120.451154 231.665935 
L 120.550775 231.543778 
L 120.616896 231.543778 
L 120.715645 231.330003 
L 120.748446 231.330003 
L 120.748446 231.314733 
L 120.813877 231.162037 
L 120.9116 231.100958 
L 121.008818 230.917722 
L 121.201758 230.826104 
L 121.265635 230.658138 
L 121.329295 230.658138 
L 121.39274 230.062622 
L 121.644403 230.016813 
L 121.737916 229.787768 
L 121.892744 229.680881 
L 121.954321 229.512915 
L 122.168264 229.451836 
L 122.168264 229.406027 
L 122.228947 229.28387 
L 122.379802 229.192252 
L 122.469738 229.009016 
L 122.588988 228.917399 
L 122.64833 228.825781 
L 122.795872 228.779972 
L 122.883845 228.550927 
L 122.913079 228.550927 
L 122.971409 228.321882 
L 123.231681 228.230264 
L 123.317644 228.031759 
L 123.403216 227.97068 
L 123.431654 227.741636 
L 123.573201 227.650018 
L 123.657621 227.497321 
L 123.741664 227.390434 
L 123.825333 227.253007 
L 123.936316 227.161389 
L 124.046648 226.7033 
L 124.128974 226.657491 
L 124.210942 226.458985 
L 124.292554 226.428446 
L 124.373813 226.107784 
L 124.642171 226.016166 
L 124.695386 225.802391 
L 124.801367 225.726042 
L 124.906754 225.496998 
L 124.985409 225.420649 
L 125.089773 225.267953 
L 125.167667 225.267953 
L 125.271028 224.94729 
L 125.373824 224.855672 
L 125.47606 224.458662 
L 125.628382 224.382313 
L 125.729248 224.137999 
L 125.929373 224.046381 
L 126.028642 223.893685 
L 126.201114 223.786797 
L 126.274549 223.405056 
L 126.420564 223.343977 
L 126.517282 223.23709 
L 126.565455 223.23709 
L 126.637484 222.931697 
L 126.828223 222.870618 
L 126.828223 222.824809 
L 126.899255 222.702652 
L 126.946461 222.702652 
L 126.946461 222.672113 
L 127.040519 222.412529 
L 127.157434 222.320911 
L 127.250446 222.229293 
L 127.458055 222.122406 
L 127.526752 221.95444 
L 127.5952 221.9239 
L 127.686077 221.710125 
L 127.753948 221.618507 
L 127.844063 221.358923 
L 128.023009 221.282575 
L 128.133992 221.114609 
L 128.310214 221.038261 
L 128.39771 220.717598 
L 128.636246 220.610711 
L 128.722242 220.427475 
L 128.871795 220.335857 
L 128.935527 220.137352 
L 129.062347 220.045734 
L 129.125437 219.923576 
L 129.271832 219.816689 
L 129.375706 219.618184 
L 129.458394 219.526566 
L 129.561246 219.190633 
L 129.68393 219.083746 
L 129.765278 218.976858 
L 129.86647 218.91578 
L 129.86647 218.90051 
L 129.947033 218.732544 
L 130.027253 218.656196 
L 130.027253 218.625656 
L 130.127049 218.381342 
L 130.28563 218.274455 
L 130.384069 218.167567 
L 130.46245 218.06068 
L 130.55997 217.801096 
L 130.791976 217.724747 
L 130.849533 217.388815 
L 130.945072 217.312467 
L 131.040128 217.220849 
L 131.134706 217.113961 
L 131.228811 217.007074 
L 131.247576 217.007074 
L 131.341119 216.823838 
L 131.41562 216.716951 
L 131.508334 216.503176 
L 131.674076 216.396288 
L 131.783764 216.213052 
L 131.856536 216.106165 
L 131.965169 216.075625 
L 132.073179 215.968738 
L 132.162715 215.754963 
L 132.251827 215.693884 
L 132.251827 215.648075 
L 132.340519 215.312143 
L 132.411173 215.235795 
L 132.411173 215.205256 
L 132.516659 214.976211 
L 132.621556 214.884593 
L 132.725872 214.762436 
L 132.812362 214.701357 
L 132.915628 214.457043 
L 132.967049 214.350155 
L 133.035392 214.258537 
L 133.103489 214.258537 
L 133.103489 214.227998 
L 133.205173 213.937875 
L 133.323114 213.830987 
L 133.406907 213.525594 
L 133.473674 213.479785 
L 133.556801 213.021696 
L 133.623039 212.960617 
L 133.623039 212.914808 
L 133.72196 212.762112 
L 133.754819 212.716303 
L 133.836715 212.517798 
L 133.918257 212.42618 
L 134.015642 212.074978 
L 134.112526 211.99863 
L 134.192883 211.723776 
L 134.240933 211.632158 
L 134.336666 211.387844 
L 134.400219 211.342035 
L 134.510922 211.12826 
L 134.558167 211.067181 
L 134.558167 211.021372 
L 134.667947 210.761788 
L 134.683578 210.761788 
L 134.77709 210.380047 
L 134.931919 210.288429 
L 135.039546 210.059384 
L 135.116046 209.998306 
L 135.222628 209.601295 
L 135.283261 209.524947 
L 135.388902 209.311172 
L 135.493953 209.219554 
L 135.59842 208.898891 
L 135.628162 208.837813 
L 135.628162 208.807273 
L 135.731889 208.471341 
L 135.790905 208.379723 
L 135.790905 208.364454 
L 135.893741 208.07433 
L 135.981441 207.967443 
L 136.083243 207.845286 
L 136.097741 207.845286 
L 136.198918 207.478814 
L 136.270855 207.387196 
L 136.371107 207.158152 
L 136.456614 207.081803 
L 136.527575 206.669523 
L 136.612375 206.623714 
L 136.710829 206.303051 
L 136.724851 206.303051 
L 136.822719 205.982389 
L 136.878416 205.90604 
L 136.989317 205.615917 
L 137.030737 205.585378 
L 137.140746 205.112019 
L 137.181835 205.020401 
L 137.27736 204.62339 
L 137.345296 204.516503 
L 137.439996 204.333267 
L 137.520791 204.226379 
L 137.627979 204.043144 
L 137.681345 204.012604 
L 137.787626 203.676672 
L 137.932787 203.585054 
L 137.998402 203.386549 
L 138.089879 203.294931 
L 138.193882 202.668875 
L 138.232735 202.623066 
L 138.335954 202.271864 
L 138.374515 202.164977 
L 138.451402 201.951202 
L 138.489728 201.951202 
L 138.59155 201.706888 
L 138.692823 201.630539 
L 138.793555 201.279337 
L 138.843719 201.17245 
L 138.918715 201.019753 
L 138.980985 200.928136 
L 139.080189 200.668552 
L 139.141927 200.561664 
L 139.240288 200.134114 
L 139.289277 200.088305 
L 139.399036 199.645485 
L 139.435481 199.538598 
L 139.544394 199.187396 
L 139.604629 199.080508 
L 139.700607 198.775115 
L 139.760345 198.668228 
L 139.867398 198.423913 
L 139.902947 198.332296 
L 140.009194 197.70624 
L 140.056223 197.599352 
L 140.16161 197.400847 
L 140.196609 197.29396 
L 140.301214 196.8206 
L 140.34752 196.728983 
L 140.43979 196.377781 
L 140.508697 196.301432 
L 140.600182 195.98077 
L 140.668505 195.904422 
L 140.770526 195.52268 
L 140.849495 195.415793 
L 140.950542 195.034052 
L 140.972924 194.988243 
L 141.073312 194.621771 
L 141.106655 194.560693 
L 141.217377 194.270569 
L 141.239443 194.163682 
L 141.349389 193.843019 
L 141.371301 193.79721 
L 141.458695 193.354391 
L 141.523975 193.308582 
L 141.621472 192.95738 
L 141.65386 192.896301 
L 141.761416 192.697796 
L 141.804267 192.590908 
L 141.910969 192.331324 
L 141.942862 192.224437 
L 142.038218 191.689999 
L 142.069896 191.598381 
L 142.175106 191.140292 
L 142.217026 191.048674 
L 142.311006 190.697472 
L 142.41488 190.621124 
L 142.518184 190.285192 
L 142.549065 190.193574 
L 142.620923 189.91872 
L 142.672083 189.842372 
L 142.763822 189.353743 
L 142.875344 189.277395 
L 142.986208 188.941463 
L 143.01633 188.895654 
L 143.116392 188.468104 
L 143.146307 188.376486 
L 143.25559 187.887857 
L 143.334672 187.780969 
L 143.433059 187.429768 
L 143.48206 187.33815 
L 143.569942 186.803712 
L 143.638012 186.742633 
L 143.638012 186.727364 
L 143.744483 186.238735 
L 143.783051 186.192926 
L 143.888708 185.856994 
L 143.936538 185.750106 
L 144.031834 185.261478 
L 144.098256 185.15459 
L 144.192739 184.696501 
L 144.2304 184.635422 
L 144.324223 184.085715 
L 144.352279 183.978827 
L 144.445498 183.612356 
L 144.501209 183.520738 
L 144.602918 183.154266 
L 144.621352 183.154266 
L 144.731576 182.665638 
L 144.786447 182.55875 
L 144.877544 182.329705 
L 144.941051 182.238088 
L 145.049423 182.024312 
L 145.103376 181.947964 
L 145.21082 181.566223 
L 145.273213 181.459336 
L 145.379694 181.169212 
L 145.415054 181.062325 
L 145.520737 180.619505 
L 145.547065 180.588966 
L 145.643288 180.253033 
L 145.739021 180.161416 
L 145.83427 179.642248 
L 145.894633 179.53536 
L 145.989098 179.10781 
L 146.023332 179.031462 
L 146.125662 178.68026 
L 146.176619 178.573372 
L 146.286554 178.084744 
L 146.379077 178.008395 
L 146.471147 177.519767 
L 146.512849 177.458688 
L 146.620842 176.985329 
L 146.670477 176.893711 
L 146.777571 176.664666 
L 146.843174 176.603588 
L 146.949293 176.252386 
L 147.062909 176.145498 
L 147.159751 175.779027 
L 147.224037 175.672139 
L 147.328035 175.473634 
L 147.415586 175.397286 
L 147.526429 175.168241 
L 147.581606 175.061353 
L 147.691478 174.77123 
L 147.761772 174.694882 
L 147.847333 174.465837 
L 147.94795 174.389489 
L 148.03267 174.114635 
L 148.117009 174.038287 
L 148.216198 173.793973 
L 148.269392 173.732894 
L 148.367783 173.48858 
L 148.458151 173.427501 
L 148.458151 173.412232 
L 148.533127 173.183187 
L 148.645035 173.091569 
L 148.726679 172.831985 
L 148.83008 172.725097 
L 148.903591 172.419704 
L 148.998729 172.343356 
L 149.093387 172.19066 
L 149.151403 172.114312 
L 149.259702 171.885267 
L 149.395993 171.778379 
L 149.481565 171.488256 
L 149.566749 171.427177 
L 149.665646 171.228672 
L 149.742988 171.152324 
L 149.840965 170.89274 
L 149.91759 170.801122 
L 150.021579 170.617886 
L 150.159343 170.510999 
L 150.268832 170.297224 
L 150.350533 170.205606 
L 150.458918 170.068179 
L 150.559965 169.961291 
L 150.647102 169.747516 
L 150.767091 169.640629 
L 150.87311 169.442123 
L 151.017916 169.335236 
L 151.063758 169.213079 
L 151.187626 169.121461 
L 151.297768 168.846607 
L 151.381561 168.73972 
L 151.490576 168.525944 
L 151.624376 168.434327 
L 151.725684 168.220552 
L 151.782431 168.144203 
L 151.882893 167.915159 
L 151.939169 167.808271 
L 151.98905 167.563957 
L 152.094611 167.487608 
L 152.199583 167.273833 
L 152.261059 167.166946 
L 152.359004 166.937901 
L 152.389508 166.907362 
L 152.468586 166.693587 
L 152.595631 166.647778 
L 152.703847 166.327115 
L 152.793554 166.220228 
L 152.894708 165.869026 
L 152.953957 165.762138 
L 153.048369 165.456745 
L 153.107137 165.395667 
L 153.212458 165.105544 
L 153.264899 165.059735 
L 153.334593 164.861229 
L 153.427118 164.784881 
L 153.536404 164.433679 
L 153.570784 164.326792 
L 153.673549 164.128286 
L 153.736074 164.051938 
L 153.843585 163.578579 
L 153.905548 163.486961 
L 154.012098 163.364804 
L 154.051201 163.273186 
L 154.151382 162.952523 
L 154.217873 162.845636 
L 154.322673 162.357007 
L 154.410475 162.25012 
L 154.519655 162.005805 
L 154.579434 161.944727 
L 154.68764 161.730952 
L 154.725366 161.654603 
L 154.827384 161.165975 
L 154.875516 161.059087 
L 154.982037 160.723155 
L 154.997963 160.616267 
L 155.103795 160.356683 
L 155.145961 160.265065 
L 155.240492 159.929133 
L 155.303249 159.822246 
L 155.407382 159.364156 
L 155.459233 159.287808 
L 155.562509 158.921336 
L 155.593381 158.829719 
L 155.695924 158.493786 
L 155.752086 158.432708 
L 155.85884 158.096776 
L 155.914518 157.989888 
L 156.025382 157.577608 
L 156.055505 157.48599 
L 156.165543 157.04317 
L 156.195443 156.936282 
L 156.299717 156.462923 
L 156.359044 156.356036 
L 156.457508 156.004834 
L 156.51634 155.897946 
L 156.623723 155.516205 
L 156.696589 155.424587 
L 156.788483 155.149734 
L 156.827041 155.042846 
L 156.937458 154.798532 
L 156.961376 154.691644 
L 157.071009 154.248824 
L 157.108993 154.141937 
L 157.198899 153.851814 
L 157.246045 153.744926 
L 157.354037 153.286837 
L 157.382107 153.210488 
L 157.484673 152.70659 
L 157.540383 152.599703 
L 157.651312 152.019456 
L 157.665132 151.943108 
L 157.775329 151.622445 
L 157.807349 151.546097 
L 157.916719 151.179625 
L 157.957569 151.072738 
L 158.066071 150.507761 
L 158.088598 150.446682 
L 158.088598 150.416143 
L 158.196349 149.866436 
L 158.21872 149.774818 
L 158.32573 149.118223 
L 158.365703 149.072414 
L 158.476295 148.339471 
L 158.493929 148.308932 
L 158.603771 147.835573 
L 158.638786 147.728685 
L 158.747788 147.163708 
L 158.804221 147.08736 
L 158.912271 146.308608 
L 158.959618 146.20172 
L 159.066782 145.636744 
L 159.079601 145.560395 
L 159.181837 145.025958 
L 159.245455 144.91907 
L 159.355217 144.308284 
L 159.409859 144.201397 
L 159.514496 143.682229 
L 159.539522 143.575341 
L 159.647587 143.132521 
L 159.693121 143.040904 
L 159.800309 142.491196 
L 159.845475 142.399578 
L 159.943644 141.834601 
L 159.996606 141.727714 
L 160.102084 140.964232 
L 160.130381 140.857344 
L 160.23913 140.445064 
L 160.279249 140.338176 
L 160.383158 139.895356 
L 160.411036 139.834278 
L 160.411036 139.819008 
L 160.518179 139.391458 
L 160.545858 139.31511 
L 160.656167 138.85702 
L 160.71108 138.750133 
L 160.820427 138.322583 
L 160.851552 138.215695 
L 160.948489 137.681257 
L 160.990984 137.58964 
L 161.091045 137.284247 
L 161.137049 137.177359 
L 161.247762 136.71927 
L 161.285788 136.612382 
L 161.388076 136.368068 
L 161.440896 136.26118 
L 161.54984 135.971057 
L 161.602209 135.864169 
L 161.695363 135.497698 
L 161.78066 135.39081 
L 161.887659 135.207575 
L 161.953768 135.100687 
L 162.056144 134.734216 
L 162.11803 134.642598 
L 162.223133 134.367744 
L 162.291676 134.306665 
L 162.399397 134.062351 
L 162.442313 133.970733 
L 162.442313 133.955464 
L 162.552729 133.558453 
L 162.630697 133.451565 
L 162.740015 133.146172 
L 162.817213 133.039285 
L 162.925456 132.733892 
L 163.005365 132.627004 
L 163.095289 132.39796 
L 163.167608 132.306342 
L 163.260183 132.092567 
L 163.325057 131.985679 
L 163.433814 131.787174 
L 163.528464 131.710825 
L 163.622639 131.481781 
L 163.706328 131.390163 
L 163.81623 131.145848 
L 163.925494 131.038961 
L 164.027561 130.809916 
L 164.112741 130.703029 
L 164.223551 130.504523 
L 164.336942 130.397636 
L 164.440019 130.19913 
L 164.53934 130.092243 
L 164.625419 129.909007 
L 164.726932 129.80212 
L 164.8279 129.588344 
L 164.934588 129.481457 
L 165.025111 129.313491 
L 165.146166 129.206603 
L 165.257222 128.962289 
L 165.287954 128.855401 
L 165.379853 128.595817 
L 165.462179 128.5042 
L 165.562313 128.275155 
L 165.619726 128.168267 
L 165.728029 127.878144 
L 165.826761 127.771256 
L 165.92201 127.557481 
L 165.993131 127.450594 
L 166.099311 127.236819 
L 166.140442 127.129931 
L 166.239959 126.931426 
L 166.312799 126.839808 
L 166.41141 126.519145 
L 166.477826 126.427528 
L 166.477826 126.412258 
L 166.587046 126.137404 
L 166.624265 126.030517 
L 166.729796 125.832011 
L 166.778085 125.740393 
L 166.882759 125.312843 
L 166.939098 125.236495 
L 167.034489 124.885293 
L 167.093166 124.778406 
L 167.19888 124.61044 
L 167.257048 124.503552 
L 167.353595 124.243968 
L 167.424997 124.13708 
L 167.515233 123.953845 
L 167.569712 123.862227 
L 167.678199 123.678991 
L 167.796816 123.572104 
L 167.887965 123.29725 
L 168.12185 123.190362 
L 168.224581 123.037666 
L 168.352863 122.930778 
L 168.44396 122.732273 
L 168.586228 122.625385 
L 168.696711 122.533768 
L 168.783612 122.44215 
L 168.885337 122.304723 
L 169.001646 122.197835 
L 169.094679 122.075678 
L 169.244573 121.968791 
L 169.351267 121.816094 
L 169.447515 121.709207 
L 169.555515 121.55651 
L 169.755147 121.449623 
L 169.837305 121.373274 
L 170.098298 121.266387 
L 170.190808 121.174769 
L 170.318152 121.067881 
L 170.388529 121.006803 
L 170.681267 120.899915 
L 170.784722 120.762488 
L 170.851093 120.655601 
L 170.92861 120.563983 
L 171.04429 120.457096 
L 171.154768 120.27386 
L 171.278005 120.166972 
L 171.387122 120.090624 
L 171.497818 119.983736 
L 171.599086 119.876849 
L 171.778266 119.769961 
L 171.884527 119.586726 
L 172.069589 119.479838 
L 172.069589 119.449299 
L 172.31213 119.342411 
L 172.411221 119.235524 
L 172.634885 119.128636 
L 172.740562 118.97594 
L 172.923569 118.869052 
L 173.011355 118.777434 
L 173.360456 118.670547 
L 173.470098 118.54839 
L 173.861548 118.441502 
L 173.948949 118.410963 
L 174.372387 118.304075 
L 174.459338 118.258266 
L 174.814283 118.151379 
L 174.84387 118.0903 
L 175.031399 117.983413 
L 175.128107 117.937604 
L 175.440362 117.830716 
L 175.440362 117.815447 
L 175.722847 117.723829 
L 175.722847 117.693289 
L 176.177544 117.586402 
L 176.218809 117.540593 
L 176.634955 117.433705 
L 176.718763 117.372627 
L 177.624791 117.281009 
L 177.701138 117.21993 
L 177.965938 117.128312 
L 178.044034 117.067234 
L 178.304084 116.990886 
L 178.399154 116.883998 
L 178.731171 116.79238 
L 178.7762 116.731302 
L 179.456369 116.624414 
L 179.531408 116.578605 
L 179.805909 116.471718 
L 179.805909 116.456448 
L 181.228258 116.34956 
L 181.279511 116.319021 
L 182.148897 116.212134 
L 182.256356 116.181594 
L 185.857064 116.074707 
L 185.857064 116.059437 
L 186.718797 115.983089 
L 186.767875 115.92201 
L 190.93612 115.815123 
L 190.93612 115.799853 
L 194.022393 115.723505 
L 194.055693 115.662426 
L 196.403551 115.570808 
L 196.403551 115.540269 
L 198.213135 115.433382 
L 198.23979 115.372303 
L 199.479746 115.265416 
L 199.479746 115.250146 
L 202.853472 115.143258 
L 202.853472 115.127989 
L 207.734327 115.021101 
L 207.734327 115.005832 
L 212.181252 114.929483 
L 212.206624 114.837865 
L 221.486303 114.730978 
L 221.486303 114.715708 
L 227.978583 114.63936 
L 228.032335 114.501933 
L 230.091209 114.395046 
L 230.131536 114.364506 
L 231.075526 114.257619 
L 231.105353 114.21181 
L 233.482904 114.104922 
L 233.482904 114.089653 
L 234.071855 113.982765 
L 234.071855 113.967496 
L 238.973278 113.860608 
L 238.973278 113.845338 
L 242.718784 113.738451 
L 242.739454 113.707912 
L 244.553343 113.601024 
L 244.643971 113.539945 
L 246.24256 113.433058 
L 246.24256 113.417788 
L 251.34081 113.310901 
L 251.397721 113.280361 
L 253.502436 113.173474 
L 253.502436 113.158204 
L 257.789236 113.051317 
L 257.789236 113.036047 
L 259.718648 112.92916 
L 259.718648 112.91389 
L 262.708971 112.807002 
L 262.708971 112.791733 
L 266.139616 112.684845 
L 266.139616 112.669576 
L 268.630051 112.562688 
L 268.630051 112.547418 
L 274.642369 112.440531 
L 274.642369 112.425261 
L 286.45418 112.318374 
L 286.45418 112.303104 
L 360.8064 112.272565 
L 360.8064 112.272565 
" style="fill: none; stroke: #000080; stroke-width: 1.5; stroke-linecap: square"/>
   </g>
   <g id="line2d_36">
    <defs>
     <path id="m0ce93f2e56" d="M 0 6 
C 1.591219 6 3.117479 5.367802 4.242641 4.242641 
C 5.367802 3.117479 6 1.591219 6 0 
C 6 -1.591219 5.367802 -3.117479 4.242641 -4.242641 
C 3.117479 -5.367802 1.591219 -6 0 -6 
C -1.591219 -6 -3.117479 -5.367802 -4.242641 -4.242641 
C -5.367802 -3.117479 -6 -1.591219 -6 0 
C -6 1.591219 -5.367802 3.117479 -4.242641 4.242641 
C -3.117479 5.367802 -1.591219 6 0 6 
z
" style="stroke: #000080; stroke-width: 1.5"/>
    </defs>
    <g>
     <use xlink:href="#m0ce93f2e56" x="113.670063" y="244.00381" style="fill-opacity: 0; stroke: #000080; stroke-width: 1.5"/>
     <use xlink:href="#m0ce93f2e56" x="174.686155" y="118.212457" style="fill-opacity: 0; stroke: #000080; stroke-width: 1.5"/>
     <use xlink:href="#m0ce93f2e56" x="263.050482" y="112.776463" style="fill-opacity: 0; stroke: #000080; stroke-width: 1.5"/>
     <use xlink:href="#m0ce93f2e56" x="289.160371" y="112.272565" style="fill-opacity: 0; stroke: #000080; stroke-width: 1.5"/>
     <use xlink:href="#m0ce93f2e56" x="360.8064" y="112.272565" style="fill-opacity: 0; stroke: #000080; stroke-width: 1.5"/>
    </g>
   </g>
   <g id="line2d_37">
    <path style="fill: none; stroke: #000080; stroke-width: 1.5; stroke-linecap: square"/>
    <g/>
   </g>
   <g id="line2d_38">
    <path d="M 101.471247 285.842643 
" clip-path="url(#p246a08fe1d)" style="fill: none; stroke: #000080; stroke-width: 1.5; stroke-linecap: square"/>
    <defs>
     <path id="mb0267c4626" d="M -12 12 
L 12 -12 
M -12 -12 
L 12 12 
" style="stroke: #000080"/>
    </defs>
    <g clip-path="url(#p246a08fe1d)">
     <use xlink:href="#mb0267c4626" x="101.471247" y="285.842643" style="fill: #000080; stroke: #000080"/>
    </g>
   </g>
   <g id="line2d_39">
    <defs>
     <path id="m0eb38cf530" d="M 0 1.5 
C 0.397805 1.5 0.77937 1.341951 1.06066 1.06066 
C 1.341951 0.77937 1.5 0.397805 1.5 0 
C 1.5 -0.397805 1.341951 -0.77937 1.06066 -1.06066 
C 0.77937 -1.341951 0.397805 -1.5 0 -1.5 
C -0.397805 -1.5 -0.77937 -1.341951 -1.06066 -1.06066 
C -1.341951 -0.77937 -1.5 -0.397805 -1.5 0 
C -1.5 0.397805 -1.341951 0.77937 -1.06066 1.06066 
C -0.77937 1.341951 -0.397805 1.5 0 1.5 
z
" style="stroke: #ff00ff"/>
    </defs>
    <g>
     <use xlink:href="#m0eb38cf530" x="361.385668" y="107.691671" style="fill: #ff00ff; stroke: #ff00ff"/>
     <use xlink:href="#m0eb38cf530" x="361.385668" y="107.691671" style="fill: #ff00ff; stroke: #ff00ff"/>
    </g>
   </g>
   <g id="line2d_40">
    <path d="M 1.245626 298.944 
L 1.245626 298.485911 
L 50.890391 298.409562 
L 50.890391 298.256866 
L 52.188254 298.256866 
L 52.188254 298.027821 
L 56.635094 297.951473 
L 56.635094 297.875125 
L 69.172597 297.798776 
L 69.172597 297.722428 
L 70.162907 297.64608 
L 70.162907 297.569732 
L 70.639174 297.569732 
L 70.639174 297.417035 
L 72.432107 297.340687 
L 72.432107 297.264339 
L 75.93298 297.187991 
L 75.93298 297.111642 
L 76.96874 297.035294 
L 76.96874 296.958946 
L 78.88343 296.882598 
L 78.88343 296.653553 
L 79.480672 296.653553 
L 79.480672 296.500856 
L 81.433251 296.424508 
L 81.433251 296.34816 
L 83.202082 296.271812 
L 83.202082 296.195464 
L 84.596168 296.119115 
L 84.596168 296.042767 
L 85.471281 295.966419 
L 85.471281 295.737374 
L 85.894031 295.661026 
L 85.894031 295.584678 
L 86.712053 295.508329 
L 86.712053 295.431981 
L 87.303041 295.431981 
L 87.303041 295.279285 
L 87.495981 295.279285 
L 87.495981 295.126588 
L 87.686963 295.126588 
L 87.686963 294.973892 
L 87.876026 294.973892 
L 87.876026 294.744847 
L 88.248544 294.668499 
L 88.248544 294.592151 
L 89.14879 294.515802 
L 89.14879 294.439454 
L 90.175129 294.363106 
L 90.175129 294.134061 
L 90.505165 294.057713 
L 90.505165 293.75232 
L 90.668036 293.75232 
L 90.668036 293.599624 
L 91.616719 293.523275 
L 91.616719 293.446927 
L 92.223596 293.370579 
L 92.223596 293.217882 
L 92.372304 293.217882 
L 92.372304 292.988838 
L 93.381595 292.912489 
L 93.381595 292.759793 
L 93.66029 292.759793 
L 93.66029 292.607096 
L 93.934916 292.530748 
L 93.934916 292.4544 
L 94.604437 292.378052 
L 94.604437 292.225355 
L 95.377623 292.149007 
L 95.377623 292.072659 
L 95.752617 291.996311 
L 95.752617 291.919962 
L 96.361458 291.843614 
L 96.361458 291.767266 
L 96.717523 291.690918 
L 96.717523 291.461873 
L 97.18203 291.385525 
L 97.18203 291.309176 
L 97.968299 291.232828 
L 98.077987 290.774739 
L 98.18704 290.774739 
L 98.295464 290.469346 
L 98.510456 290.392998 
L 98.510456 290.087605 
L 98.933205 290.011256 
L 99.037425 289.705864 
L 99.14107 289.705864 
L 99.244147 289.171426 
L 99.346662 289.171426 
L 99.448622 288.56064 
L 99.950294 288.484292 
L 100.049042 288.102551 
L 100.147275 288.102551 
L 100.147275 287.949854 
L 100.438933 287.873506 
L 100.535156 287.644461 
L 100.726138 287.568113 
L 100.726138 287.491765 
L 101.195278 287.415416 
L 101.195278 287.26272 
L 101.653002 287.186372 
L 101.743226 283.903398 
L 101.833019 283.903398 
L 101.922385 283.674353 
L 102.099854 283.674353 
L 102.187964 283.445308 
L 102.275664 283.445308 
L 102.362957 282.758174 
L 102.62243 282.758174 
L 102.708132 279.856941 
L 102.793446 279.856941 
L 102.793446 279.551548 
L 103.047088 279.551548 
L 103.130882 276.115878 
L 103.297357 276.039529 
L 103.297357 275.963181 
L 103.625951 275.886833 
L 103.625951 275.352395 
L 103.788121 275.352395 
L 103.788121 271.916725 
L 104.028784 271.840376 
L 104.108325 271.534984 
L 104.266406 271.458635 
L 104.266406 271.382287 
L 104.578638 271.305939 
L 104.655893 271.076894 
L 104.732832 271.076894 
L 104.809458 266.801393 
L 104.885773 266.801393 
L 104.885773 266.648696 
L 105.187973 266.572348 
L 105.187973 263.213026 
L 105.337272 263.213026 
L 105.337272 260.540838 
L 105.485395 260.540838 
L 105.559021 260.082748 
L 105.778187 260.0064 
L 105.778187 259.930052 
L 106.137884 259.930052 
L 106.209005 259.701007 
L 106.279859 259.701007 
L 106.350446 253.440452 
L 106.837279 253.364104 
L 106.905809 253.135059 
L 106.974091 253.135059 
L 106.974091 250.157478 
L 107.177461 250.081129 
L 107.244765 246.798155 
L 107.378656 246.721807 
L 107.378656 246.645459 
L 107.904887 246.645459 
L 107.969643 243.209788 
L 108.09849 243.209788 
L 108.162584 240.232207 
L 108.29012 240.155859 
L 108.29012 240.079511 
L 108.791791 240.003162 
L 108.85357 236.64384 
L 109.638757 236.567492 
L 109.638757 233.131821 
L 110.221204 233.055473 
L 110.221204 232.979125 
L 110.562208 232.902776 
L 110.562208 232.75008 
L 111.496112 232.673732 
L 111.54963 232.444687 
L 112.790402 232.368339 
L 112.790402 232.291991 
L 113.429811 232.215642 
L 113.478107 231.986598 
L 113.57433 231.986598 
L 113.57433 231.833901 
L 113.765312 231.833901 
L 113.765312 231.681205 
L 114.001345 231.604856 
L 114.001345 231.528508 
L 114.510421 231.45216 
L 114.556025 231.299464 
L 115.050503 231.299464 
L 115.050503 231.146767 
L 115.314838 231.070419 
L 115.358535 230.917722 
L 115.489021 230.841374 
L 115.489021 230.765026 
L 115.661605 230.688678 
L 115.704505 230.535981 
L 116.044226 230.459633 
L 116.044226 230.383285 
L 116.624364 230.306936 
L 116.665126 230.077892 
L 117.067958 230.001544 
L 117.1475 229.848847 
L 117.384126 229.772499 
L 117.384126 229.696151 
L 117.65648 229.619802 
L 117.65648 229.543454 
L 118.376446 229.467106 
L 118.413586 229.314409 
L 118.74459 229.238061 
L 118.781011 229.085365 
L 119.06987 229.009016 
L 119.06987 228.85632 
L 119.389621 228.779972 
L 119.389621 228.627275 
L 119.634612 228.627275 
L 119.738639 228.245534 
L 120.013265 228.169186 
L 120.013265 228.092838 
L 120.682786 228.016489 
L 120.682786 227.940141 
L 121.073351 227.940141 
L 121.137664 227.711096 
L 121.361044 227.711096 
L 121.361044 227.5584 
L 121.737916 227.482052 
L 121.830966 227.176659 
L 121.954321 227.100311 
L 122.046309 226.947614 
L 122.379802 226.871266 
L 122.379802 226.718569 
L 122.588988 226.642221 
L 122.64833 226.413176 
L 122.736994 226.413176 
L 122.736994 226.26048 
L 123.202939 226.184132 
L 123.260379 226.031435 
L 123.374735 225.955087 
L 123.431654 225.649694 
L 124.101572 225.573346 
L 124.101572 225.496998 
L 124.373813 225.420649 
L 124.373813 225.344301 
L 124.695386 225.344301 
L 124.801367 224.96256 
L 124.959227 224.886212 
L 124.959227 224.809864 
L 125.425011 224.733515 
L 125.425011 224.657167 
L 125.60308 224.580819 
L 125.628382 224.428122 
L 125.879541 224.351774 
L 125.929373 224.199078 
L 126.176572 224.122729 
L 126.176572 224.046381 
L 126.493149 223.970033 
L 126.565455 223.66464 
L 126.851931 223.588292 
L 126.946461 223.435595 
L 127.017049 223.359247 
L 127.087372 223.206551 
L 127.29678 223.130202 
L 127.29678 223.053854 
L 127.458055 222.977506 
L 127.458055 222.901158 
L 127.640693 222.824809 
L 127.686077 222.672113 
L 127.821575 222.595765 
L 127.88896 222.214024 
L 128.200269 222.137675 
L 128.266313 221.984979 
L 128.354013 221.984979 
L 128.354013 221.832282 
L 128.50651 221.832282 
L 128.614685 221.450541 
L 128.636246 221.450541 
L 128.636246 221.297845 
L 128.829186 221.221496 
L 128.829186 221.0688 
L 129.188317 220.992452 
L 129.209231 220.763407 
L 129.54072 220.687059 
L 129.643124 220.458014 
L 129.80582 220.381666 
L 129.906795 220.228969 
L 129.926925 220.228969 
L 129.987186 219.999925 
L 130.067235 219.999925 
L 130.067235 219.847228 
L 130.265881 219.77088 
L 130.364422 219.618184 
L 130.481995 219.541835 
L 130.579414 219.312791 
L 130.772751 219.236442 
L 130.830367 218.931049 
L 130.906915 218.854701 
L 130.945072 218.702005 
L 131.247576 218.625656 
L 131.341119 218.396612 
L 131.378407 218.396612 
L 131.41562 218.091219 
L 131.655732 218.014871 
L 131.692402 217.862174 
L 131.801984 217.785826 
L 131.856536 217.633129 
L 132.073179 217.556781 
L 132.073179 217.404085 
L 132.446401 217.327736 
L 132.516659 217.022344 
L 132.812362 216.945995 
L 132.898456 216.716951 
L 133.05244 216.640602 
L 133.154399 216.258861 
L 133.205173 216.258861 
L 133.272658 215.953468 
L 133.339903 215.87712 
L 133.373435 215.724424 
L 133.556801 215.648075 
L 133.656071 215.495379 
L 133.70551 215.419031 
L 133.72196 215.266334 
L 133.853052 215.189986 
L 133.918257 214.884593 
L 134.160781 214.808245 
L 134.208913 214.655548 
L 134.400219 214.5792 
L 134.463557 214.426504 
L 134.542432 214.350155 
L 134.542432 214.273807 
L 134.730392 214.273807 
L 134.839175 214.044762 
L 134.87014 213.968414 
L 134.97812 213.739369 
L 135.008858 213.739369 
L 135.116046 213.357628 
L 135.252969 213.28128 
L 135.35878 212.823191 
L 135.52386 212.746842 
L 135.538796 212.594146 
L 135.776169 212.517798 
L 135.879085 211.98336 
L 136.010584 211.907012 
L 136.112229 211.677967 
L 136.25649 211.601619 
L 136.342518 211.143529 
L 136.570023 211.067181 
L 136.626472 210.914485 
L 136.822719 210.914485 
L 136.906202 210.456395 
L 137.0583 210.380047 
L 137.12703 210.151002 
L 137.250116 210.074654 
L 137.358854 209.769261 
L 137.426497 209.692913 
L 137.534223 209.158475 
L 137.614614 209.158475 
L 137.694663 208.624038 
L 137.853747 208.547689 
L 137.959061 207.936904 
L 138.076838 207.860555 
L 138.128947 207.707859 
L 138.219793 207.631511 
L 138.323083 207.326118 
L 138.387352 207.326118 
L 138.425808 207.097073 
L 138.553431 207.020725 
L 138.604239 206.638984 
L 138.730661 206.562635 
L 138.768422 206.333591 
L 138.943648 206.257242 
L 139.018248 206.028198 
L 139.067817 205.951849 
L 139.141927 205.722805 
L 139.228021 205.646456 
L 139.325934 205.341064 
L 139.350333 205.341064 
L 139.399036 205.035671 
L 139.520245 204.959322 
L 139.628669 204.424885 
L 139.664672 204.348536 
L 139.664672 204.272188 
L 139.891105 204.19584 
L 139.914782 204.043144 
L 140.067962 204.043144 
L 140.091418 203.737751 
L 140.20826 203.661402 
L 140.301214 203.279661 
L 140.324381 203.279661 
L 140.428281 202.974268 
L 140.49723 202.89792 
L 140.600182 202.668875 
L 140.622984 202.592527 
L 140.725251 202.363482 
L 140.770526 202.287134 
L 140.838234 201.905393 
L 141.028761 201.829045 
L 141.128852 201.370955 
L 141.239443 201.294607 
L 141.338423 201.065562 
L 141.382247 200.989214 
L 141.48048 200.683821 
L 141.523975 200.607473 
L 141.578203 200.378428 
L 141.67542 200.30208 
L 141.707715 199.996687 
L 141.814964 199.920339 
L 141.921606 199.462249 
L 142.027647 199.385901 
L 142.112051 198.927812 
L 142.237951 198.851464 
L 142.279732 198.546071 
L 142.373399 198.469722 
L 142.47693 198.164329 
L 142.518184 198.087981 
L 142.559347 197.782588 
L 142.631166 197.782588 
L 142.733292 197.248151 
L 142.763822 197.248151 
L 142.814596 196.866409 
L 142.945969 196.790061 
L 143.046405 196.484668 
L 143.086429 196.40832 
L 143.19606 195.873882 
L 143.295173 195.797534 
L 143.364242 195.568489 
L 143.48206 195.568489 
L 143.550448 195.1104 
L 143.599145 195.1104 
L 143.676798 194.805007 
L 143.715505 194.805007 
L 143.72517 194.575962 
L 143.936538 194.575962 
L 144.012814 194.117873 
L 144.079302 194.117873 
L 144.117191 193.81248 
L 144.239803 193.736132 
L 144.296125 193.507087 
L 144.473374 193.430739 
L 144.565997 192.743605 
L 144.630562 192.667256 
L 144.704081 192.438212 
L 144.813822 192.361864 
L 144.922928 191.980122 
L 144.959156 191.980122 
L 145.049423 191.598381 
L 145.184016 191.522033 
L 145.291002 190.911247 
L 145.38854 190.834899 
L 145.494372 190.453158 
L 145.555833 190.376809 
L 145.634561 190.147765 
L 145.678157 190.071416 
L 145.756375 189.842372 
L 145.808341 189.842372 
L 145.90324 189.460631 
L 145.93763 189.384282 
L 146.023332 189.078889 
L 146.048967 189.078889 
L 146.074567 188.773496 
L 146.218978 188.697148 
L 146.311833 188.086362 
L 146.345485 188.010014 
L 146.412609 187.780969 
L 146.471147 187.704621 
L 146.554458 187.399228 
L 146.719981 187.32288 
L 146.8186 186.864791 
L 146.892226 186.788442 
L 146.965566 186.483049 
L 147.054816 186.406701 
L 147.135588 185.948612 
L 147.216013 185.948612 
L 147.320055 185.566871 
L 147.391749 185.490522 
L 147.439393 185.185129 
L 147.557979 185.185129 
L 147.652312 184.650692 
L 147.707122 184.574344 
L 147.777358 184.192602 
L 147.917048 184.116254 
L 147.986506 183.734513 
L 148.055709 183.658165 
L 148.162854 183.352772 
L 148.193355 183.276424 
L 148.299721 182.818334 
L 148.330001 182.818334 
L 148.428077 182.360245 
L 148.540609 182.283896 
L 148.622706 181.978504 
L 148.726679 181.902155 
L 148.837444 181.444066 
L 148.932916 181.367718 
L 149.020615 180.985976 
L 149.078856 180.909628 
L 149.187572 180.375191 
L 149.281288 180.298842 
L 149.388844 179.917101 
L 149.460208 179.840753 
L 149.495789 179.611708 
L 149.602129 179.53536 
L 149.693807 178.848226 
L 149.833983 178.771878 
L 149.938434 178.390136 
L 150.035401 178.313788 
L 150.042308 178.161092 
L 150.24152 178.084744 
L 150.343738 177.703002 
L 150.485917 177.626654 
L 150.546523 177.397609 
L 150.753797 177.321261 
L 150.793652 177.168565 
L 150.925895 177.168565 
L 151.004798 176.863172 
L 151.586245 176.786824 
L 151.649755 176.557779 
L 162.088932 176.481431 
L 162.088932 176.405082 
L 162.761101 176.328734 
L 162.838212 176.176038 
L 163.676243 176.099689 
L 163.676243 176.023341 
L 164.60314 175.946993 
L 164.682588 175.794296 
L 164.915805 175.717948 
L 164.915805 175.6416 
L 165.56534 175.565252 
L 165.56534 175.488904 
L 165.990173 175.412555 
L 165.990173 175.336207 
L 166.350564 175.259859 
L 166.454752 175.107162 
L 166.724107 175.030814 
L 166.724107 174.954466 
L 167.023292 174.878118 
L 167.034489 174.725421 
L 167.334325 174.649073 
L 167.38933 174.496376 
L 167.761848 174.420028 
L 167.786064 174.114635 
L 168.015899 174.038287 
L 168.100708 173.885591 
L 168.229834 173.809242 
L 168.318914 173.503849 
L 168.500997 173.427501 
L 168.609406 173.274805 
L 168.642835 173.198456 
L 168.737655 172.969412 
L 168.770857 172.969412 
L 168.829457 172.740367 
L 169.074603 172.664019 
L 169.112228 172.511322 
L 169.25701 172.434974 
L 169.25701 172.358626 
L 169.528573 172.282278 
L 169.579974 172.129581 
L 169.810763 172.053233 
L 169.87103 171.74784 
L 170.119687 171.671492 
L 170.119687 171.595144 
L 170.339293 171.518795 
L 170.4353 171.289751 
L 170.609666 171.213402 
L 170.720417 170.984358 
L 170.814504 170.908009 
L 170.835094 170.755313 
L 171.091717 170.678965 
L 171.141275 170.526268 
L 171.344887 170.44992 
L 171.451405 170.144527 
L 171.488986 170.068179 
L 171.488986 169.991831 
L 171.682333 169.915482 
L 171.745616 169.762786 
L 171.856394 169.686438 
L 171.869384 169.533741 
L 172.009536 169.457393 
L 172.073871 169.075652 
L 172.146519 168.999304 
L 172.18061 168.770259 
L 172.320583 168.693911 
L 172.348032 168.388518 
L 172.45323 168.312169 
L 172.564102 167.930428 
L 172.591198 167.85408 
L 172.686762 167.395991 
L 172.736429 167.319642 
L 172.736429 167.243294 
L 172.958324 167.166946 
L 173.015428 166.937901 
L 173.11697 166.861553 
L 173.21998 166.479812 
L 173.250171 166.403464 
L 173.340452 166.174419 
L 173.44623 166.098071 
L 173.47606 165.716329 
L 173.602804 165.639981 
L 173.711047 164.952847 
L 173.769827 164.876499 
L 173.859601 164.418409 
L 173.960572 164.342061 
L 174.055224 163.96032 
L 174.172394 163.883972 
L 174.279322 163.273186 
L 174.340151 163.196838 
L 174.415913 162.738748 
L 174.497017 162.6624 
L 174.607735 161.898918 
L 174.652586 161.822569 
L 174.734538 161.593525 
L 174.777234 161.517176 
L 174.886319 161.135435 
L 174.923154 161.059087 
L 175.014927 160.600998 
L 175.077078 160.524649 
L 175.173552 159.913864 
L 175.198954 159.837515 
L 175.30743 159.150381 
L 175.332651 159.074033 
L 175.442151 158.921336 
L 175.465405 158.844988 
L 175.568805 158.539595 
L 175.586575 158.463247 
L 175.691079 157.776113 
L 175.710499 157.699765 
L 175.812564 157.241675 
L 175.875637 157.165327 
L 175.985509 156.783586 
L 176.004627 156.783586 
L 176.112023 156.249148 
L 176.179266 156.1728 
L 176.275401 155.562014 
L 176.311325 155.485666 
L 176.399987 155.027576 
L 176.479765 154.951228 
L 176.579436 154.187746 
L 176.634955 154.111398 
L 176.695334 153.729656 
L 176.753851 153.653308 
L 176.855405 153.042522 
L 176.880293 152.966174 
L 176.971271 152.737129 
L 177.022355 152.660781 
L 177.130657 151.591906 
L 177.164986 151.515558 
L 177.259475 150.523031 
L 177.356727 150.446682 
L 177.46634 149.530504 
L 177.495249 149.454155 
L 177.60406 148.996066 
L 177.61682 148.919718 
L 177.723348 147.545449 
L 177.751864 147.469101 
L 177.854483 146.705619 
L 177.868648 146.705619 
L 177.973763 145.102306 
L 177.987838 145.025958 
L 178.093845 144.109779 
L 178.115596 144.033431 
L 178.219344 143.117252 
L 178.251744 143.040904 
L 178.354746 141.590287 
L 178.370071 141.513939 
L 178.466333 139.986974 
L 178.499832 139.910626 
L 178.610565 138.383661 
L 178.627194 138.307313 
L 178.720649 137.009393 
L 178.741688 136.933045 
L 178.845036 135.40608 
L 178.874886 135.329732 
L 178.984921 134.031812 
L 178.992333 133.955464 
L 179.100212 132.504847 
L 179.110524 132.428499 
L 179.220658 130.977882 
L 179.24407 130.901534 
L 179.354881 129.679962 
L 179.359242 129.603614 
L 179.457815 128.611087 
L 179.480934 128.534739 
L 179.58031 127.007774 
L 179.601844 126.931426 
L 179.709147 125.709854 
L 179.734809 125.633506 
L 179.845608 124.488282 
L 179.861181 124.411934 
L 179.961389 123.419407 
L 179.999356 123.343059 
L 180.104422 122.121487 
L 180.123969 122.045139 
L 180.232506 121.12896 
L 180.249148 121.052612 
L 180.34042 120.289129 
L 180.405147 120.212781 
L 180.503874 119.449299 
L 180.532572 119.372951 
L 180.642856 118.762165 
L 180.706553 118.685816 
L 180.796983 118.151379 
L 180.864187 118.075031 
L 180.973883 117.616941 
L 181.004537 117.540593 
L 181.112097 117.082504 
L 181.158383 117.006155 
L 181.261129 116.471718 
L 181.362009 116.395369 
L 181.437641 116.089976 
L 181.500004 116.013628 
L 181.593163 115.708235 
L 181.620248 115.631887 
L 181.620248 115.555539 
L 188.150894 115.479191 
L 188.150894 115.402842 
L 189.234783 115.326494 
L 189.234783 115.250146 
L 189.647231 115.173798 
L 189.710212 114.944753 
L 189.886276 114.868405 
L 189.965838 114.63936 
L 190.152643 114.563012 
L 190.238427 114.333967 
L 190.448369 114.257619 
L 190.448369 114.181271 
L 191.11669 114.104922 
L 191.11669 114.028574 
L 191.357089 113.952226 
L 191.427619 113.799529 
L 202.274388 113.723181 
L 202.359314 113.570485 
L 202.637977 113.494136 
L 202.697758 113.34144 
L 203.085476 113.265092 
L 203.181579 113.036047 
L 203.648074 112.959699 
L 203.648074 112.883351 
L 203.90723 112.807002 
L 203.90723 112.730654 
L 204.645381 112.654306 
L 204.645381 112.577958 
L 205.327537 112.501609 
L 205.327537 112.425261 
L 205.570471 112.348913 
L 205.570471 112.272565 
L 215.837122 112.196216 
L 215.88389 111.967172 
L 216.309846 111.890824 
L 216.420216 111.738127 
L 216.5923 111.661779 
L 216.5923 111.585431 
L 216.806157 111.509082 
L 216.806157 111.432734 
L 217.053896 111.356386 
L 217.053896 111.280038 
L 217.299189 111.203689 
L 217.385447 111.050993 
L 217.941449 110.974645 
L 217.941449 110.898296 
L 218.720265 110.821948 
L 218.720265 110.7456 
L 227.069154 110.669252 
L 227.069154 110.592904 
L 227.846894 110.516555 
L 227.846894 110.440207 
L 229.953231 110.363859 
L 229.953231 110.287511 
L 239.507772 110.211162 
L 239.507772 110.134814 
L 240.372034 110.058466 
L 240.372034 109.982118 
L 249.883057 109.905769 
L 249.883057 109.829421 
L 279.226801 109.722534 
L 279.226801 109.707264 
L 279.916983 109.615646 
L 279.997229 109.569837 
L 280.848981 109.46295 
L 280.866283 109.43241 
L 292.272303 109.325523 
L 292.343583 109.279714 
L 299.94615 109.172826 
L 299.962758 109.142287 
L 300.49369 109.0354 
L 300.49369 109.02013 
L 305.384184 108.913242 
L 305.384184 108.897973 
L 309.485641 108.791085 
L 309.485641 108.775816 
L 313.192542 108.668928 
L 313.197202 108.638389 
L 316.107819 108.531501 
L 316.107819 108.516232 
L 320.632294 108.409344 
L 320.632294 108.394074 
L 324.560552 108.287187 
L 324.560552 108.271917 
L 327.259703 108.16503 
L 327.259703 108.14976 
L 330.417858 108.042872 
L 330.417858 108.027603 
L 335.969678 107.920715 
L 335.969678 107.905446 
L 341.929181 107.798558 
L 341.929181 107.783288 
L 360.8064 107.70694 
L 360.8064 107.70694 
" style="fill: none; stroke: #ff00ff; stroke-width: 1.5; stroke-linecap: square"/>
   </g>
   <g id="line2d_41">
    <defs>
     <path id="m82b49e7a7b" d="M -0 8.485281 
L 5.091169 0 
L 0 -8.485281 
L -5.091169 -0 
z
" style="stroke: #ff00ff; stroke-width: 1.5; stroke-linejoin: miter"/>
    </defs>
    <g>
     <use xlink:href="#m82b49e7a7b" x="121.361044" y="227.711096" style="fill-opacity: 0; stroke: #ff00ff; stroke-width: 1.5; stroke-linejoin: miter"/>
     <use xlink:href="#m82b49e7a7b" x="179.780344" y="125.328113" style="fill-opacity: 0; stroke: #ff00ff; stroke-width: 1.5; stroke-linejoin: miter"/>
     <use xlink:href="#m82b49e7a7b" x="282.581427" y="109.356062" style="fill-opacity: 0; stroke: #ff00ff; stroke-width: 1.5; stroke-linejoin: miter"/>
     <use xlink:href="#m82b49e7a7b" x="357.579144" y="107.70694" style="fill-opacity: 0; stroke: #ff00ff; stroke-width: 1.5; stroke-linejoin: miter"/>
     <use xlink:href="#m82b49e7a7b" x="360.8064" y="107.70694" style="fill-opacity: 0; stroke: #ff00ff; stroke-width: 1.5; stroke-linejoin: miter"/>
    </g>
   </g>
   <g id="line2d_42">
    <path style="fill: none; stroke: #ff00ff; stroke-width: 1.5; stroke-linecap: square"/>
    <g/>
   </g>
   <g id="line2d_43">
    <path d="M 278.523473 109.753073 
" clip-path="url(#p246a08fe1d)" style="fill: none; stroke: #ff00ff; stroke-width: 1.5; stroke-linecap: square"/>
    <defs>
     <path id="m92f36b4d64" d="M -12 12 
L 12 -12 
M -12 -12 
L 12 12 
" style="stroke: #ff00ff"/>
    </defs>
    <g clip-path="url(#p246a08fe1d)">
     <use xlink:href="#m92f36b4d64" x="278.523473" y="109.753073" style="fill: #ff00ff; stroke: #ff00ff"/>
    </g>
   </g>
   <g id="line2d_44">
    <path d="M 360.8064 112.272565 
L 380.514816 293.10336 
" style="fill: none; stroke: #000080; stroke-width: 1.5; stroke-linecap: square"/>
    <g>
     <use xlink:href="#m0ce93f2e56" x="360.8064" y="112.272565" style="fill-opacity: 0; stroke: #000080; stroke-width: 1.5"/>
     <use xlink:href="#m0ce93f2e56" x="380.514816" y="293.10336" style="fill-opacity: 0; stroke: #000080; stroke-width: 1.5"/>
    </g>
   </g>
   <g id="line2d_45">
    <path d="M 360.8064 107.70694 
L 380.514816 152.928 
" style="fill: none; stroke: #ff00ff; stroke-width: 1.5; stroke-linecap: square"/>
    <g>
     <use xlink:href="#m82b49e7a7b" x="360.8064" y="107.70694" style="fill-opacity: 0; stroke: #ff00ff; stroke-width: 1.5; stroke-linejoin: miter"/>
     <use xlink:href="#m82b49e7a7b" x="380.514816" y="152.928" style="fill-opacity: 0; stroke: #ff00ff; stroke-width: 1.5; stroke-linejoin: miter"/>
    </g>
   </g>
   <g id="line2d_46">
    <path d="M 360.8064 298.944 
L 360.8064 6.912 
" style="fill: none; stroke: #000000; stroke-width: 1.5; stroke-linecap: square"/>
   </g>
   <g id="patch_3">
    <path d="M 57.6 298.944 
L 360.8064 298.944 
" style="fill: none; stroke: #000000; stroke-width: 0.8; stroke-linejoin: miter; stroke-linecap: square"/>
   </g>
   <g id="patch_4">
    <path d="M 57.6 6.912 
L 360.8064 6.912 
" style="fill: none; stroke: #000000; stroke-width: 0.8; stroke-linejoin: miter; stroke-linecap: square"/>
   </g>
   <g id="text_13">
    <!-- ex -->
    <g transform="translate(386.578944 296.966485)scale(0.14 -0.14)">
     <defs>
      <path id="DejaVuSans-78" d="M 3513 3500 
L 2247 1797 
L 3578 0 
L 2900 0 
L 1881 1375 
L 863 0 
L 184 0 
L 1544 1831 
L 300 3500 
L 978 3500 
L 1906 2253 
L 2834 3500 
L 3513 3500 
z
" transform="scale(0.015625)"/>
     </defs>
     <use xlink:href="#DejaVuSans-65"/>
     <use xlink:href="#DejaVuSans-78" x="59.773438"/>
    </g>
   </g>
   <g id="text_14">
    <!-- CMA-ES-20 -->
    <g transform="translate(386.578944 156.791125)scale(0.14 -0.14)">
     <defs>
      <path id="DejaVuSans-43" d="M 4122 4306 
L 4122 3641 
Q 3803 3938 3442 4084 
Q 3081 4231 2675 4231 
Q 1875 4231 1450 3742 
Q 1025 3253 1025 2328 
Q 1025 1406 1450 917 
Q 1875 428 2675 428 
Q 3081 428 3442 575 
Q 3803 722 4122 1019 
L 4122 359 
Q 3791 134 3420 21 
Q 3050 -91 2638 -91 
Q 1578 -91 968 557 
Q 359 1206 359 2328 
Q 359 3453 968 4101 
Q 1578 4750 2638 4750 
Q 3056 4750 3426 4639 
Q 3797 4528 4122 4306 
z
" transform="scale(0.015625)"/>
      <path id="DejaVuSans-4d" d="M 628 4666 
L 1569 4666 
L 2759 1491 
L 3956 4666 
L 4897 4666 
L 4897 0 
L 4281 0 
L 4281 4097 
L 3078 897 
L 2444 897 
L 1241 4097 
L 1241 0 
L 628 0 
L 628 4666 
z
" transform="scale(0.015625)"/>
      <path id="DejaVuSans-41" d="M 2188 4044 
L 1331 1722 
L 3047 1722 
L 2188 4044 
z
M 1831 4666 
L 2547 4666 
L 4325 0 
L 3669 0 
L 3244 1197 
L 1141 1197 
L 716 0 
L 50 0 
L 1831 4666 
z
" transform="scale(0.015625)"/>
      <path id="DejaVuSans-45" d="M 628 4666 
L 3578 4666 
L 3578 4134 
L 1259 4134 
L 1259 2753 
L 3481 2753 
L 3481 2222 
L 1259 2222 
L 1259 531 
L 3634 531 
L 3634 0 
L 628 0 
L 628 4666 
z
" transform="scale(0.015625)"/>
      <path id="DejaVuSans-53" d="M 3425 4513 
L 3425 3897 
Q 3066 4069 2747 4153 
Q 2428 4238 2131 4238 
Q 1616 4238 1336 4038 
Q 1056 3838 1056 3469 
Q 1056 3159 1242 3001 
Q 1428 2844 1947 2747 
L 2328 2669 
Q 3034 2534 3370 2195 
Q 3706 1856 3706 1288 
Q 3706 609 3251 259 
Q 2797 -91 1919 -91 
Q 1588 -91 1214 -16 
Q 841 59 441 206 
L 441 856 
Q 825 641 1194 531 
Q 1563 422 1919 422 
Q 2459 422 2753 634 
Q 3047 847 3047 1241 
Q 3047 1584 2836 1778 
Q 2625 1972 2144 2069 
L 1759 2144 
Q 1053 2284 737 2584 
Q 422 2884 422 3419 
Q 422 4038 858 4394 
Q 1294 4750 2059 4750 
Q 2388 4750 2728 4690 
Q 3069 4631 3425 4513 
z
" transform="scale(0.015625)"/>
     </defs>
     <use xlink:href="#DejaVuSans-43"/>
     <use xlink:href="#DejaVuSans-4d" x="69.824219"/>
     <use xlink:href="#DejaVuSans-41" x="156.103516"/>
     <use xlink:href="#DejaVuSans-2d" x="222.261719"/>
     <use xlink:href="#DejaVuSans-45" x="258.345703"/>
     <use xlink:href="#DejaVuSans-53" x="321.529297"/>
     <use xlink:href="#DejaVuSans-2d" x="385.005859"/>
     <use xlink:href="#DejaVuSans-32" x="421.089844"/>
     <use xlink:href="#DejaVuSans-30" x="484.712891"/>
    </g>
   </g>
   <g id="text_15">
    <!-- best 2009 -->
    <g transform="translate(386.578944 16.615765)scale(0.14 -0.14)">
     <defs>
      <path id="DejaVuSans-62" d="M 3116 1747 
Q 3116 2381 2855 2742 
Q 2594 3103 2138 3103 
Q 1681 3103 1420 2742 
Q 1159 2381 1159 1747 
Q 1159 1113 1420 752 
Q 1681 391 2138 391 
Q 2594 391 2855 752 
Q 3116 1113 3116 1747 
z
M 1159 2969 
Q 1341 3281 1617 3432 
Q 1894 3584 2278 3584 
Q 2916 3584 3314 3078 
Q 3713 2572 3713 1747 
Q 3713 922 3314 415 
Q 2916 -91 2278 -91 
Q 1894 -91 1617 61 
Q 1341 213 1159 525 
L 1159 0 
L 581 0 
L 581 4863 
L 1159 4863 
L 1159 2969 
z
" transform="scale(0.015625)"/>
      <path id="DejaVuSans-39" d="M 703 97 
L 703 672 
Q 941 559 1184 500 
Q 1428 441 1663 441 
Q 2288 441 2617 861 
Q 2947 1281 2994 2138 
Q 2813 1869 2534 1725 
Q 2256 1581 1919 1581 
Q 1219 1581 811 2004 
Q 403 2428 403 3163 
Q 403 3881 828 4315 
Q 1253 4750 1959 4750 
Q 2769 4750 3195 4129 
Q 3622 3509 3622 2328 
Q 3622 1225 3098 567 
Q 2575 -91 1691 -91 
Q 1453 -91 1209 -44 
Q 966 3 703 97 
z
M 1959 2075 
Q 2384 2075 2632 2365 
Q 2881 2656 2881 3163 
Q 2881 3666 2632 3958 
Q 2384 4250 1959 4250 
Q 1534 4250 1286 3958 
Q 1038 3666 1038 3163 
Q 1038 2656 1286 2365 
Q 1534 2075 1959 2075 
z
" transform="scale(0.015625)"/>
     </defs>
     <use xlink:href="#DejaVuSans-62"/>
     <use xlink:href="#DejaVuSans-65" x="63.476562"/>
     <use xlink:href="#DejaVuSans-73" x="125"/>
     <use xlink:href="#DejaVuSans-74" x="177.099609"/>
     <use xlink:href="#DejaVuSans-20" x="216.308594"/>
     <use xlink:href="#DejaVuSans-32" x="248.095703"/>
     <use xlink:href="#DejaVuSans-30" x="311.71875"/>
     <use xlink:href="#DejaVuSans-30" x="375.341797"/>
     <use xlink:href="#DejaVuSans-39" x="438.964844"/>
    </g>
   </g>
   <g id="text_16">
    <!-- bbob f1-f5, 20-D -->
    <g transform="translate(60.632064 17.582726)scale(0.102 -0.102)">
     <defs>
      <path id="DejaVuSans-35" d="M 691 4666 
L 3169 4666 
L 3169 4134 
L 1269 4134 
L 1269 2991 
Q 1406 3038 1543 3061 
Q 1681 3084 1819 3084 
Q 2600 3084 3056 2656 
Q 3513 2228 3513 1497 
Q 3513 744 3044 326 
Q 2575 -91 1722 -91 
Q 1428 -91 1123 -41 
Q 819 9 494 109 
L 494 744 
Q 775 591 1075 516 
Q 1375 441 1709 441 
Q 2250 441 2565 725 
Q 2881 1009 2881 1497 
Q 2881 1984 2565 2268 
Q 2250 2553 1709 2553 
Q 1456 2553 1204 2497 
Q 953 2441 691 2322 
L 691 4666 
z
" transform="scale(0.015625)"/>
      <path id="DejaVuSans-44" d="M 1259 4147 
L 1259 519 
L 2022 519 
Q 2988 519 3436 956 
Q 3884 1394 3884 2338 
Q 3884 3275 3436 3711 
Q 2988 4147 2022 4147 
L 1259 4147 
z
M 628 4666 
L 1925 4666 
Q 3281 4666 3915 4102 
Q 4550 3538 4550 2338 
Q 4550 1131 3912 565 
Q 3275 0 1925 0 
L 628 0 
L 628 4666 
z
" transform="scale(0.015625)"/>
     </defs>
     <use xlink:href="#DejaVuSans-62"/>
     <use xlink:href="#DejaVuSans-62" x="63.476562"/>
     <use xlink:href="#DejaVuSans-6f" x="126.953125"/>
     <use xlink:href="#DejaVuSans-62" x="188.134766"/>
     <use xlink:href="#DejaVuSans-20" x="251.611328"/>
     <use xlink:href="#DejaVuSans-66" x="283.398438"/>
     <use xlink:href="#DejaVuSans-31" x="318.603516"/>
     <use xlink:href="#DejaVuSans-2d" x="382.226562"/>
     <use xlink:href="#DejaVuSans-66" x="418.310547"/>
     <use xlink:href="#DejaVuSans-35" x="453.515625"/>
     <use xlink:href="#DejaVuSans-2c" x="517.138672"/>
     <use xlink:href="#DejaVuSans-20" x="548.925781"/>
     <use xlink:href="#DejaVuSans-32" x="580.712891"/>
     <use xlink:href="#DejaVuSans-30" x="644.335938"/>
     <use xlink:href="#DejaVuSans-2d" x="707.958984"/>
     <use xlink:href="#DejaVuSans-44" x="744.042969"/>
    </g>
    <!-- 51 targets: 100..1e-08 -->
    <g transform="translate(60.632064 29.004495)scale(0.102 -0.102)">
     <defs>
      <path id="DejaVuSans-3a" d="M 750 794 
L 1409 794 
L 1409 0 
L 750 0 
L 750 794 
z
M 750 3309 
L 1409 3309 
L 1409 2516 
L 750 2516 
L 750 3309 
z
" transform="scale(0.015625)"/>
     </defs>
     <use xlink:href="#DejaVuSans-35"/>
     <use xlink:href="#DejaVuSans-31" x="63.623047"/>
     <use xlink:href="#DejaVuSans-20" x="127.246094"/>
     <use xlink:href="#DejaVuSans-74" x="159.033203"/>
     <use xlink:href="#DejaVuSans-61" x="198.242188"/>
     <use xlink:href="#DejaVuSans-72" x="259.521484"/>
     <use xlink:href="#DejaVuSans-67" x="298.884766"/>
     <use xlink:href="#DejaVuSans-65" x="362.361328"/>
     <use xlink:href="#DejaVuSans-74" x="423.884766"/>
     <use xlink:href="#DejaVuSans-73" x="463.09375"/>
     <use xlink:href="#DejaVuSans-3a" x="515.193359"/>
     <use xlink:href="#DejaVuSans-20" x="548.884766"/>
     <use xlink:href="#DejaVuSans-31" x="580.671875"/>
     <use xlink:href="#DejaVuSans-30" x="644.294922"/>
     <use xlink:href="#DejaVuSans-30" x="707.917969"/>
     <use xlink:href="#DejaVuSans-2e" x="771.541016"/>
     <use xlink:href="#DejaVuSans-2e" x="803.328125"/>
     <use xlink:href="#DejaVuSans-31" x="835.115234"/>
     <use xlink:href="#DejaVuSans-65" x="898.738281"/>
     <use xlink:href="#DejaVuSans-2d" x="960.261719"/>
     <use xlink:href="#DejaVuSans-30" x="996.345703"/>
     <use xlink:href="#DejaVuSans-38" x="1059.96875"/>
    </g>
    <!-- 25, 15 instances -->
    <g transform="translate(60.632064 40.426264)scale(0.102 -0.102)">
     <use xlink:href="#DejaVuSans-32"/>
     <use xlink:href="#DejaVuSans-35" x="63.623047"/>
     <use xlink:href="#DejaVuSans-2c" x="127.246094"/>
     <use xlink:href="#DejaVuSans-20" x="159.033203"/>
     <use xlink:href="#DejaVuSans-31" x="190.820312"/>
     <use xlink:href="#DejaVuSans-35" x="254.443359"/>
     <use xlink:href="#DejaVuSans-20" x="318.066406"/>
     <use xlink:href="#DejaVuSans-69" x="349.853516"/>
     <use xlink:href="#DejaVuSans-6e" x="377.636719"/>
     <use xlink:href="#DejaVuSans-73" x="441.015625"/>
     <use xlink:href="#DejaVuSans-74" x="493.115234"/>
     <use xlink:href="#DejaVuSans-61" x="532.324219"/>
     <use xlink:href="#DejaVuSans-6e" x="593.603516"/>
     <use xlink:href="#DejaVuSans-63" x="656.982422"/>
     <use xlink:href="#DejaVuSans-65" x="711.962891"/>
     <use xlink:href="#DejaVuSans-73" x="773.486328"/>
    </g>
   </g>
   <g id="text_17">
    <!-- v2.6 -->
    <g style="fill: #808080" transform="translate(198.292262 293.943992)scale(0.1 -0.1)">
     <use xlink:href="#DejaVuSans-76"/>
     <use xlink:href="#DejaVuSans-32" x="59.179688"/>
     <use xlink:href="#DejaVuSans-2e" x="122.802734"/>
     <use xlink:href="#DejaVuSans-36" x="154.589844"/>
    </g>
   </g>
  </g>
 </g>
 <defs>
  <clipPath id="p246a08fe1d">
   <rect x="57.6" y="6.912" width="303.2064" height="292.032"/>
  </clipPath>
 </defs>
</svg>
