<?xml version="1.0" encoding="utf-8" standalone="no"?>
<!DOCTYPE svg PUBLIC "-//W3C//DTD SVG 1.1//EN"
  "http://www.w3.org/Graphics/SVG/1.1/DTD/svg11.dtd">
<svg xmlns:xlink="http://www.w3.org/1999/xlink" width="460.8pt" height="345.6pt" viewBox="0 0 460.8 345.6" xmlns="http://www.w3.org/2000/svg" version="1.1">
 <metadata>
  <rdf:RDF xmlns:dc="http://purl.org/dc/elements/1.1/" xmlns:cc="http://creativecommons.org/ns#" xmlns:rdf="http://www.w3.org/1999/02/22-rdf-syntax-ns#">
   <cc:Work>
    <dc:type rdf:resource="http://purl.org/dc/dcmitype/StillImage"/>
    <dc:date>2022-03-16T23:34:45.263213</dc:date>
    <dc:format>image/svg+xml</dc:format>
    <dc:creator>
     <cc:Agent>
      <dc:title>Matplotlib v3.5.1, https://matplotlib.org/</dc:title>
     </cc:Agent>
    </dc:creator>
   </cc:Work>
  </rdf:RDF>
 </metadata>
 <defs>
  <style type="text/css">*{stroke-linejoin: round; stroke-linecap: butt}</style>
 </defs>
 <g id="figure_1">
  <g id="patch_1">
   <path d="M 0 345.6 
L 460.8 345.6 
L 460.8 0 
L 0 0 
z
" style="fill: #ffffff"/>
  </g>
  <g id="axes_1">
   <g id="patch_2">
    <path d="M 57.6 298.944 
L 360.8064 298.944 
L 360.8064 6.912 
L 57.6 6.912 
z
" style="fill: #ffffff"/>
   </g>
   <g id="line2d_1">
    <path d="M 36.933397 298.944 
L 36.933397 291.786353 
L 57.6 291.786353 
L 57.6 290.354824 
L 63.011746 290.354824 
L 63.011746 288.923294 
L 67.209423 288.923294 
L 67.209423 287.491765 
L 76.050921 287.491765 
L 76.050921 281.765647 
L 82.04153 281.765647 
L 82.04153 280.334118 
L 85.184077 280.334118 
L 85.184077 278.902588 
L 87.876026 278.902588 
L 87.876026 277.471059 
L 89.090095 277.471059 
L 89.090095 276.039529 
L 90.230539 276.039529 
L 90.230539 274.608 
L 91.305777 274.608 
L 91.305777 273.176471 
L 92.322865 273.176471 
L 92.322865 271.744941 
L 93.287772 271.744941 
L 93.287772 270.313412 
L 94.205591 270.313412 
L 94.205591 268.881882 
L 96.717523 268.881882 
L 96.717523 267.450353 
L 97.485448 267.450353 
L 97.485448 263.155765 
L 98.933205 263.155765 
L 98.933205 261.724235 
L 101.532027 261.724235 
L 101.532027 257.429647 
L 102.12927 257.429647 
L 102.12927 255.998118 
L 103.269713 255.998118 
L 103.269713 254.566588 
L 105.36204 254.566588 
L 105.36204 253.135059 
L 105.850679 253.135059 
L 105.850679 251.703529 
L 106.326946 251.703529 
L 106.326946 248.840471 
L 108.542628 248.840471 
L 108.542628 247.408941 
L 108.956085 247.408941 
L 108.956085 245.977412 
L 109.756698 245.977412 
L 109.756698 244.545882 
L 110.144579 244.545882 
L 110.144579 243.114353 
L 111.262425 243.114353 
L 111.262425 241.682824 
L 112.656511 241.682824 
L 112.656511 240.251294 
L 113.316634 240.251294 
L 113.316634 238.819765 
L 114.265316 238.819765 
L 114.265316 237.388235 
L 115.460102 237.388235 
L 115.460102 234.525176 
L 115.747307 234.525176 
L 115.747307 233.093647 
L 117.121023 233.093647 
L 117.121023 231.662118 
L 117.899543 231.662118 
L 117.899543 230.230588 
L 118.889854 230.230588 
L 118.889854 228.799059 
L 119.129494 228.799059 
L 119.129494 227.367529 
L 121.371615 227.367529 
L 121.371615 225.936 
L 121.581803 225.936 
L 121.581803 224.504471 
L 123.374735 224.504471 
L 123.374735 223.072941 
L 124.119844 223.072941 
L 124.119844 221.641412 
L 124.3016 221.641412 
L 124.3016 220.209882 
L 124.836562 220.209882 
L 124.836562 218.778353 
L 125.695686 218.778353 
L 125.695686 217.346824 
L 126.028642 217.346824 
L 126.028642 215.915294 
L 126.355808 215.915294 
L 126.355808 214.483765 
L 126.517282 214.483765 
L 126.517282 213.052235 
L 127.761474 213.052235 
L 127.761474 211.620706 
L 128.060076 211.620706 
L 128.060076 210.189176 
L 128.207619 210.189176 
L 128.207619 208.757647 
L 128.499277 208.757647 
L 128.499277 207.326118 
L 128.786481 207.326118 
L 128.786481 205.894588 
L 129.348062 205.894588 
L 129.348062 204.463059 
L 129.622688 204.463059 
L 129.622688 203.031529 
L 129.758512 203.031529 
L 129.758512 201.6 
L 130.292209 201.6 
L 130.292209 198.736941 
L 130.553485 198.736941 
L 130.553485 197.305412 
L 130.682774 197.305412 
L 130.682774 195.873882 
L 131.065395 195.873882 
L 131.065395 193.010824 
L 131.440389 193.010824 
L 131.440389 190.147765 
L 131.686295 190.147765 
L 131.686295 188.716235 
L 131.808053 188.716235 
L 131.808053 187.284706 
L 132.168669 187.284706 
L 132.168669 185.853176 
L 132.287354 185.853176 
L 132.287354 181.558588 
L 132.405295 181.558588 
L 132.405295 180.127059 
L 132.638982 180.127059 
L 132.638982 177.264 
L 132.869802 177.264 
L 132.869802 175.832471 
L 132.984158 175.832471 
L 132.984158 171.537882 
L 133.097823 171.537882 
L 133.097823 168.674824 
L 133.210806 168.674824 
L 133.210806 167.243294 
L 133.323114 167.243294 
L 133.323114 165.811765 
L 133.434756 165.811765 
L 133.545739 162.948706 
L 133.656071 162.948706 
L 133.765759 158.654118 
L 133.983236 158.654118 
L 134.091039 150.064941 
L 134.198228 150.064941 
L 134.304809 144.338824 
L 134.41079 144.338824 
L 134.516177 138.612706 
L 134.620977 138.612706 
L 134.725196 134.318118 
L 134.828842 134.318118 
L 134.931919 131.455059 
L 135.034434 131.455059 
L 135.034434 130.023529 
L 135.237805 130.023529 
L 135.237805 127.160471 
L 135.438999 127.160471 
L 135.538796 124.297412 
L 135.638065 124.297412 
L 135.736814 121.434353 
L 135.835047 121.434353 
L 135.835047 120.002824 
L 136.029987 120.002824 
L 136.126705 115.708235 
L 136.222928 115.708235 
L 136.318661 109.982118 
L 136.413909 109.982118 
L 136.413909 107.119059 
L 136.696795 107.119059 
L 136.790153 101.392941 
L 136.88305 101.392941 
L 136.97549 98.529882 
L 137.067478 98.529882 
L 137.159019 95.666824 
L 137.340774 95.666824 
L 137.430998 87.077647 
L 137.520791 87.077647 
L 137.520791 84.214588 
L 137.963436 84.214588 
L 138.050729 81.351529 
L 138.481218 81.351529 
L 138.481218 79.92 
L 138.902075 79.92 
L 138.902075 78.488471 
L 139.313723 78.488471 
L 139.313723 77.056941 
L 139.716555 77.056941 
L 139.716555 75.625412 
L 140.032723 75.625412 
L 140.032723 74.193882 
L 140.26641 74.193882 
L 140.26641 72.762353 
L 140.573544 72.762353 
L 140.573544 71.330824 
L 140.725251 71.330824 
L 140.725251 69.899294 
L 141.025043 69.899294 
L 141.025043 68.467765 
L 141.538451 68.467765 
L 141.538451 67.036235 
L 141.896777 67.036235 
L 141.896777 65.604706 
L 142.317949 65.604706 
L 142.317949 64.173176 
L 142.729897 64.173176 
L 142.729897 62.741647 
L 143.199372 62.741647 
L 143.199372 61.310118 
L 143.657415 61.310118 
L 143.657415 59.878588 
L 143.850356 59.878588 
L 143.850356 58.447059 
L 146.695245 58.447059 
L 146.695245 57.015529 
L 147.502732 57.015529 
L 147.502732 55.584 
L 147.919625 55.584 
L 147.919625 54.152471 
L 148.377845 54.152471 
L 148.377845 52.720941 
L 148.874221 52.720941 
L 148.874221 51.289412 
L 152.434157 51.289412 
L 152.434157 49.857882 
L 152.675851 49.857882 
L 152.675851 48.426353 
L 153.071898 48.426353 
L 153.150116 19.795765 
L 153.536404 19.795765 
L 153.536404 18.364235 
L 154.212341 18.364235 
L 154.212341 16.932706 
L 154.577625 16.932706 
L 154.577625 15.501176 
L 155.112587 15.501176 
L 155.112587 14.069647 
L 155.802997 14.069647 
L 155.802997 12.638118 
L 156.238546 12.638118 
L 156.238546 11.206588 
L 156.857511 11.206588 
L 156.857511 9.775059 
L 157.332175 9.775059 
L 157.332175 8.343529 
L 157.703468 8.343529 
L 157.703468 6.912 
L 360.8064 6.912 
L 360.8064 6.912 
" style="fill: none; stroke: #f5deb3; stroke-width: 4; stroke-linecap: square"/>
   </g>
   <g id="line2d_2">
    <defs>
     <path id="mde13163c40" d="M -0 7.778175 
L 7.778175 0 
L 0 -7.778175 
L -7.778175 -0 
z
" style="stroke: #f5deb3; stroke-width: 1.5; stroke-linejoin: miter"/>
    </defs>
    <g>
     <use xlink:href="#mde13163c40" x="124.836562" y="220.209882" style="fill: #f5deb3; stroke: #f5deb3; stroke-width: 1.5; stroke-linejoin: miter"/>
     <use xlink:href="#mde13163c40" x="136.413909" y="107.119059" style="fill: #f5deb3; stroke: #f5deb3; stroke-width: 1.5; stroke-linejoin: miter"/>
     <use xlink:href="#mde13163c40" x="157.703468" y="8.343529" style="fill: #f5deb3; stroke: #f5deb3; stroke-width: 1.5; stroke-linejoin: miter"/>
     <use xlink:href="#mde13163c40" x="157.703468" y="6.912" style="fill: #f5deb3; stroke: #f5deb3; stroke-width: 1.5; stroke-linejoin: miter"/>
     <use xlink:href="#mde13163c40" x="157.703468" y="6.912" style="fill: #f5deb3; stroke: #f5deb3; stroke-width: 1.5; stroke-linejoin: miter"/>
     <use xlink:href="#mde13163c40" x="360.8064" y="6.912" style="fill: #f5deb3; stroke: #f5deb3; stroke-width: 1.5; stroke-linejoin: miter"/>
    </g>
   </g>
   <g id="line2d_3">
    <path style="fill: none; stroke: #f5deb3; stroke-width: 4; stroke-linecap: square"/>
    <g/>
   </g>
   <g id="line2d_4">
    <path d="M 360.8064 6.912 
L 380.514816 12.75264 
" style="fill: none; stroke: #f5deb3; stroke-width: 4; stroke-linecap: square"/>
    <g>
     <use xlink:href="#mde13163c40" x="360.8064" y="6.912" style="fill: #f5deb3; stroke: #f5deb3; stroke-width: 1.5; stroke-linejoin: miter"/>
     <use xlink:href="#mde13163c40" x="380.514816" y="12.75264" style="fill: #f5deb3; stroke: #f5deb3; stroke-width: 1.5; stroke-linejoin: miter"/>
    </g>
   </g>
   <g id="matplotlib.axis_1">
    <g id="xtick_1">
     <g id="line2d_5">
      <path d="M 57.6 298.944 
L 57.6 6.912 
" clip-path="url(#p1ad25ac3f2)" style="fill: none; stroke: #b0b0b0; stroke-width: 0.8; stroke-linecap: square"/>
     </g>
     <g id="line2d_6">
      <defs>
       <path id="m005ee3ec8f" d="M 0 0 
L 0 3.5 
" style="stroke: #000000; stroke-width: 0.8"/>
      </defs>
      <g>
       <use xlink:href="#m005ee3ec8f" x="57.6" y="298.944" style="stroke: #000000; stroke-width: 0.8"/>
      </g>
     </g>
     <g id="text_1">
      <!-- 0 -->
      <g transform="translate(52.191875 318.861344)scale(0.17 -0.17)">
       <defs>
        <path id="DejaVuSans-30" d="M 2034 4250 
Q 1547 4250 1301 3770 
Q 1056 3291 1056 2328 
Q 1056 1369 1301 889 
Q 1547 409 2034 409 
Q 2525 409 2770 889 
Q 3016 1369 3016 2328 
Q 3016 3291 2770 3770 
Q 2525 4250 2034 4250 
z
M 2034 4750 
Q 2819 4750 3233 4129 
Q 3647 3509 3647 2328 
Q 3647 1150 3233 529 
Q 2819 -91 2034 -91 
Q 1250 -91 836 529 
Q 422 1150 422 2328 
Q 422 3509 836 4129 
Q 1250 4750 2034 4750 
z
" transform="scale(0.015625)"/>
       </defs>
       <use xlink:href="#DejaVuSans-30"/>
      </g>
     </g>
    </g>
    <g id="xtick_2">
     <g id="line2d_7">
      <path d="M 144.2304 298.944 
L 144.2304 6.912 
" clip-path="url(#p1ad25ac3f2)" style="fill: none; stroke: #b0b0b0; stroke-width: 0.8; stroke-linecap: square"/>
     </g>
     <g id="line2d_8">
      <g>
       <use xlink:href="#m005ee3ec8f" x="144.2304" y="298.944" style="stroke: #000000; stroke-width: 0.8"/>
      </g>
     </g>
     <g id="text_2">
      <!-- 2 -->
      <g transform="translate(138.822275 318.861344)scale(0.17 -0.17)">
       <defs>
        <path id="DejaVuSans-32" d="M 1228 531 
L 3431 531 
L 3431 0 
L 469 0 
L 469 531 
Q 828 903 1448 1529 
Q 2069 2156 2228 2338 
Q 2531 2678 2651 2914 
Q 2772 3150 2772 3378 
Q 2772 3750 2511 3984 
Q 2250 4219 1831 4219 
Q 1534 4219 1204 4116 
Q 875 4013 500 3803 
L 500 4441 
Q 881 4594 1212 4672 
Q 1544 4750 1819 4750 
Q 2544 4750 2975 4387 
Q 3406 4025 3406 3419 
Q 3406 3131 3298 2873 
Q 3191 2616 2906 2266 
Q 2828 2175 2409 1742 
Q 1991 1309 1228 531 
z
" transform="scale(0.015625)"/>
       </defs>
       <use xlink:href="#DejaVuSans-32"/>
      </g>
     </g>
    </g>
    <g id="xtick_3">
     <g id="line2d_9">
      <path d="M 230.8608 298.944 
L 230.8608 6.912 
" clip-path="url(#p1ad25ac3f2)" style="fill: none; stroke: #b0b0b0; stroke-width: 0.8; stroke-linecap: square"/>
     </g>
     <g id="line2d_10">
      <g>
       <use xlink:href="#m005ee3ec8f" x="230.8608" y="298.944" style="stroke: #000000; stroke-width: 0.8"/>
      </g>
     </g>
     <g id="text_3">
      <!-- 4 -->
      <g transform="translate(225.452675 318.861344)scale(0.17 -0.17)">
       <defs>
        <path id="DejaVuSans-34" d="M 2419 4116 
L 825 1625 
L 2419 1625 
L 2419 4116 
z
M 2253 4666 
L 3047 4666 
L 3047 1625 
L 3713 1625 
L 3713 1100 
L 3047 1100 
L 3047 0 
L 2419 0 
L 2419 1100 
L 313 1100 
L 313 1709 
L 2253 4666 
z
" transform="scale(0.015625)"/>
       </defs>
       <use xlink:href="#DejaVuSans-34"/>
      </g>
     </g>
    </g>
    <g id="xtick_4">
     <g id="line2d_11">
      <path d="M 317.4912 298.944 
L 317.4912 6.912 
" clip-path="url(#p1ad25ac3f2)" style="fill: none; stroke: #b0b0b0; stroke-width: 0.8; stroke-linecap: square"/>
     </g>
     <g id="line2d_12">
      <g>
       <use xlink:href="#m005ee3ec8f" x="317.4912" y="298.944" style="stroke: #000000; stroke-width: 0.8"/>
      </g>
     </g>
     <g id="text_4">
      <!-- 6 -->
      <g transform="translate(312.083075 318.861344)scale(0.17 -0.17)">
       <defs>
        <path id="DejaVuSans-36" d="M 2113 2584 
Q 1688 2584 1439 2293 
Q 1191 2003 1191 1497 
Q 1191 994 1439 701 
Q 1688 409 2113 409 
Q 2538 409 2786 701 
Q 3034 994 3034 1497 
Q 3034 2003 2786 2293 
Q 2538 2584 2113 2584 
z
M 3366 4563 
L 3366 3988 
Q 3128 4100 2886 4159 
Q 2644 4219 2406 4219 
Q 1781 4219 1451 3797 
Q 1122 3375 1075 2522 
Q 1259 2794 1537 2939 
Q 1816 3084 2150 3084 
Q 2853 3084 3261 2657 
Q 3669 2231 3669 1497 
Q 3669 778 3244 343 
Q 2819 -91 2113 -91 
Q 1303 -91 875 529 
Q 447 1150 447 2328 
Q 447 3434 972 4092 
Q 1497 4750 2381 4750 
Q 2619 4750 2861 4703 
Q 3103 4656 3366 4563 
z
" transform="scale(0.015625)"/>
       </defs>
       <use xlink:href="#DejaVuSans-36"/>
      </g>
     </g>
    </g>
    <g id="xtick_5">
     <g id="line2d_13">
      <path d="M 100.9152 298.944 
L 100.9152 6.912 
" clip-path="url(#p1ad25ac3f2)" style="fill: none; stroke: #b0b0b0; stroke-width: 0.8; stroke-linecap: square"/>
     </g>
     <g id="line2d_14">
      <defs>
       <path id="m531f77b038" d="M 0 0 
L 0 2 
" style="stroke: #000000; stroke-width: 0.6"/>
      </defs>
      <g>
       <use xlink:href="#m531f77b038" x="100.9152" y="298.944" style="stroke: #000000; stroke-width: 0.6"/>
      </g>
     </g>
    </g>
    <g id="xtick_6">
     <g id="line2d_15">
      <path d="M 187.5456 298.944 
L 187.5456 6.912 
" clip-path="url(#p1ad25ac3f2)" style="fill: none; stroke: #b0b0b0; stroke-width: 0.8; stroke-linecap: square"/>
     </g>
     <g id="line2d_16">
      <g>
       <use xlink:href="#m531f77b038" x="187.5456" y="298.944" style="stroke: #000000; stroke-width: 0.6"/>
      </g>
     </g>
    </g>
    <g id="xtick_7">
     <g id="line2d_17">
      <path d="M 274.176 298.944 
L 274.176 6.912 
" clip-path="url(#p1ad25ac3f2)" style="fill: none; stroke: #b0b0b0; stroke-width: 0.8; stroke-linecap: square"/>
     </g>
     <g id="line2d_18">
      <g>
       <use xlink:href="#m531f77b038" x="274.176" y="298.944" style="stroke: #000000; stroke-width: 0.6"/>
      </g>
     </g>
    </g>
    <g id="xtick_8">
     <g id="line2d_19">
      <path d="M 360.8064 298.944 
L 360.8064 6.912 
" clip-path="url(#p1ad25ac3f2)" style="fill: none; stroke: #b0b0b0; stroke-width: 0.8; stroke-linecap: square"/>
     </g>
     <g id="line2d_20">
      <g>
       <use xlink:href="#m531f77b038" x="360.8064" y="298.944" style="stroke: #000000; stroke-width: 0.6"/>
      </g>
     </g>
    </g>
    <g id="text_5">
     <!-- log10(# f-evals / dimension) -->
     <g transform="translate(88.823278 339.314156)scale(0.17 -0.17)">
      <defs>
       <path id="DejaVuSans-6c" d="M 603 4863 
L 1178 4863 
L 1178 0 
L 603 0 
L 603 4863 
z
" transform="scale(0.015625)"/>
       <path id="DejaVuSans-6f" d="M 1959 3097 
Q 1497 3097 1228 2736 
Q 959 2375 959 1747 
Q 959 1119 1226 758 
Q 1494 397 1959 397 
Q 2419 397 2687 759 
Q 2956 1122 2956 1747 
Q 2956 2369 2687 2733 
Q 2419 3097 1959 3097 
z
M 1959 3584 
Q 2709 3584 3137 3096 
Q 3566 2609 3566 1747 
Q 3566 888 3137 398 
Q 2709 -91 1959 -91 
Q 1206 -91 779 398 
Q 353 888 353 1747 
Q 353 2609 779 3096 
Q 1206 3584 1959 3584 
z
" transform="scale(0.015625)"/>
       <path id="DejaVuSans-67" d="M 2906 1791 
Q 2906 2416 2648 2759 
Q 2391 3103 1925 3103 
Q 1463 3103 1205 2759 
Q 947 2416 947 1791 
Q 947 1169 1205 825 
Q 1463 481 1925 481 
Q 2391 481 2648 825 
Q 2906 1169 2906 1791 
z
M 3481 434 
Q 3481 -459 3084 -895 
Q 2688 -1331 1869 -1331 
Q 1566 -1331 1297 -1286 
Q 1028 -1241 775 -1147 
L 775 -588 
Q 1028 -725 1275 -790 
Q 1522 -856 1778 -856 
Q 2344 -856 2625 -561 
Q 2906 -266 2906 331 
L 2906 616 
Q 2728 306 2450 153 
Q 2172 0 1784 0 
Q 1141 0 747 490 
Q 353 981 353 1791 
Q 353 2603 747 3093 
Q 1141 3584 1784 3584 
Q 2172 3584 2450 3431 
Q 2728 3278 2906 2969 
L 2906 3500 
L 3481 3500 
L 3481 434 
z
" transform="scale(0.015625)"/>
       <path id="DejaVuSans-31" d="M 794 531 
L 1825 531 
L 1825 4091 
L 703 3866 
L 703 4441 
L 1819 4666 
L 2450 4666 
L 2450 531 
L 3481 531 
L 3481 0 
L 794 0 
L 794 531 
z
" transform="scale(0.015625)"/>
       <path id="DejaVuSans-28" d="M 1984 4856 
Q 1566 4138 1362 3434 
Q 1159 2731 1159 2009 
Q 1159 1288 1364 580 
Q 1569 -128 1984 -844 
L 1484 -844 
Q 1016 -109 783 600 
Q 550 1309 550 2009 
Q 550 2706 781 3412 
Q 1013 4119 1484 4856 
L 1984 4856 
z
" transform="scale(0.015625)"/>
       <path id="DejaVuSans-23" d="M 3272 2816 
L 2363 2816 
L 2100 1772 
L 3016 1772 
L 3272 2816 
z
M 2803 4594 
L 2478 3297 
L 3391 3297 
L 3719 4594 
L 4219 4594 
L 3897 3297 
L 4872 3297 
L 4872 2816 
L 3775 2816 
L 3519 1772 
L 4513 1772 
L 4513 1294 
L 3397 1294 
L 3072 0 
L 2572 0 
L 2894 1294 
L 1978 1294 
L 1656 0 
L 1153 0 
L 1478 1294 
L 494 1294 
L 494 1772 
L 1594 1772 
L 1856 2816 
L 850 2816 
L 850 3297 
L 1978 3297 
L 2297 4594 
L 2803 4594 
z
" transform="scale(0.015625)"/>
       <path id="DejaVuSans-20" transform="scale(0.015625)"/>
       <path id="DejaVuSans-66" d="M 2375 4863 
L 2375 4384 
L 1825 4384 
Q 1516 4384 1395 4259 
Q 1275 4134 1275 3809 
L 1275 3500 
L 2222 3500 
L 2222 3053 
L 1275 3053 
L 1275 0 
L 697 0 
L 697 3053 
L 147 3053 
L 147 3500 
L 697 3500 
L 697 3744 
Q 697 4328 969 4595 
Q 1241 4863 1831 4863 
L 2375 4863 
z
" transform="scale(0.015625)"/>
       <path id="DejaVuSans-2d" d="M 313 2009 
L 1997 2009 
L 1997 1497 
L 313 1497 
L 313 2009 
z
" transform="scale(0.015625)"/>
       <path id="DejaVuSans-65" d="M 3597 1894 
L 3597 1613 
L 953 1613 
Q 991 1019 1311 708 
Q 1631 397 2203 397 
Q 2534 397 2845 478 
Q 3156 559 3463 722 
L 3463 178 
Q 3153 47 2828 -22 
Q 2503 -91 2169 -91 
Q 1331 -91 842 396 
Q 353 884 353 1716 
Q 353 2575 817 3079 
Q 1281 3584 2069 3584 
Q 2775 3584 3186 3129 
Q 3597 2675 3597 1894 
z
M 3022 2063 
Q 3016 2534 2758 2815 
Q 2500 3097 2075 3097 
Q 1594 3097 1305 2825 
Q 1016 2553 972 2059 
L 3022 2063 
z
" transform="scale(0.015625)"/>
       <path id="DejaVuSans-76" d="M 191 3500 
L 800 3500 
L 1894 563 
L 2988 3500 
L 3597 3500 
L 2284 0 
L 1503 0 
L 191 3500 
z
" transform="scale(0.015625)"/>
       <path id="DejaVuSans-61" d="M 2194 1759 
Q 1497 1759 1228 1600 
Q 959 1441 959 1056 
Q 959 750 1161 570 
Q 1363 391 1709 391 
Q 2188 391 2477 730 
Q 2766 1069 2766 1631 
L 2766 1759 
L 2194 1759 
z
M 3341 1997 
L 3341 0 
L 2766 0 
L 2766 531 
Q 2569 213 2275 61 
Q 1981 -91 1556 -91 
Q 1019 -91 701 211 
Q 384 513 384 1019 
Q 384 1609 779 1909 
Q 1175 2209 1959 2209 
L 2766 2209 
L 2766 2266 
Q 2766 2663 2505 2880 
Q 2244 3097 1772 3097 
Q 1472 3097 1187 3025 
Q 903 2953 641 2809 
L 641 3341 
Q 956 3463 1253 3523 
Q 1550 3584 1831 3584 
Q 2591 3584 2966 3190 
Q 3341 2797 3341 1997 
z
" transform="scale(0.015625)"/>
       <path id="DejaVuSans-73" d="M 2834 3397 
L 2834 2853 
Q 2591 2978 2328 3040 
Q 2066 3103 1784 3103 
Q 1356 3103 1142 2972 
Q 928 2841 928 2578 
Q 928 2378 1081 2264 
Q 1234 2150 1697 2047 
L 1894 2003 
Q 2506 1872 2764 1633 
Q 3022 1394 3022 966 
Q 3022 478 2636 193 
Q 2250 -91 1575 -91 
Q 1294 -91 989 -36 
Q 684 19 347 128 
L 347 722 
Q 666 556 975 473 
Q 1284 391 1588 391 
Q 1994 391 2212 530 
Q 2431 669 2431 922 
Q 2431 1156 2273 1281 
Q 2116 1406 1581 1522 
L 1381 1569 
Q 847 1681 609 1914 
Q 372 2147 372 2553 
Q 372 3047 722 3315 
Q 1072 3584 1716 3584 
Q 2034 3584 2315 3537 
Q 2597 3491 2834 3397 
z
" transform="scale(0.015625)"/>
       <path id="DejaVuSans-2f" d="M 1625 4666 
L 2156 4666 
L 531 -594 
L 0 -594 
L 1625 4666 
z
" transform="scale(0.015625)"/>
       <path id="DejaVuSans-64" d="M 2906 2969 
L 2906 4863 
L 3481 4863 
L 3481 0 
L 2906 0 
L 2906 525 
Q 2725 213 2448 61 
Q 2172 -91 1784 -91 
Q 1150 -91 751 415 
Q 353 922 353 1747 
Q 353 2572 751 3078 
Q 1150 3584 1784 3584 
Q 2172 3584 2448 3432 
Q 2725 3281 2906 2969 
z
M 947 1747 
Q 947 1113 1208 752 
Q 1469 391 1925 391 
Q 2381 391 2643 752 
Q 2906 1113 2906 1747 
Q 2906 2381 2643 2742 
Q 2381 3103 1925 3103 
Q 1469 3103 1208 2742 
Q 947 2381 947 1747 
z
" transform="scale(0.015625)"/>
       <path id="DejaVuSans-69" d="M 603 3500 
L 1178 3500 
L 1178 0 
L 603 0 
L 603 3500 
z
M 603 4863 
L 1178 4863 
L 1178 4134 
L 603 4134 
L 603 4863 
z
" transform="scale(0.015625)"/>
       <path id="DejaVuSans-6d" d="M 3328 2828 
Q 3544 3216 3844 3400 
Q 4144 3584 4550 3584 
Q 5097 3584 5394 3201 
Q 5691 2819 5691 2113 
L 5691 0 
L 5113 0 
L 5113 2094 
Q 5113 2597 4934 2840 
Q 4756 3084 4391 3084 
Q 3944 3084 3684 2787 
Q 3425 2491 3425 1978 
L 3425 0 
L 2847 0 
L 2847 2094 
Q 2847 2600 2669 2842 
Q 2491 3084 2119 3084 
Q 1678 3084 1418 2786 
Q 1159 2488 1159 1978 
L 1159 0 
L 581 0 
L 581 3500 
L 1159 3500 
L 1159 2956 
Q 1356 3278 1631 3431 
Q 1906 3584 2284 3584 
Q 2666 3584 2933 3390 
Q 3200 3197 3328 2828 
z
" transform="scale(0.015625)"/>
       <path id="DejaVuSans-6e" d="M 3513 2113 
L 3513 0 
L 2938 0 
L 2938 2094 
Q 2938 2591 2744 2837 
Q 2550 3084 2163 3084 
Q 1697 3084 1428 2787 
Q 1159 2491 1159 1978 
L 1159 0 
L 581 0 
L 581 3500 
L 1159 3500 
L 1159 2956 
Q 1366 3272 1645 3428 
Q 1925 3584 2291 3584 
Q 2894 3584 3203 3211 
Q 3513 2838 3513 2113 
z
" transform="scale(0.015625)"/>
       <path id="DejaVuSans-29" d="M 513 4856 
L 1013 4856 
Q 1481 4119 1714 3412 
Q 1947 2706 1947 2009 
Q 1947 1309 1714 600 
Q 1481 -109 1013 -844 
L 513 -844 
Q 928 -128 1133 580 
Q 1338 1288 1338 2009 
Q 1338 2731 1133 3434 
Q 928 4138 513 4856 
z
" transform="scale(0.015625)"/>
      </defs>
      <use xlink:href="#DejaVuSans-6c"/>
      <use xlink:href="#DejaVuSans-6f" x="27.783203"/>
      <use xlink:href="#DejaVuSans-67" x="88.964844"/>
      <use xlink:href="#DejaVuSans-31" x="152.441406"/>
      <use xlink:href="#DejaVuSans-30" x="216.064453"/>
      <use xlink:href="#DejaVuSans-28" x="279.6875"/>
      <use xlink:href="#DejaVuSans-23" x="318.701172"/>
      <use xlink:href="#DejaVuSans-20" x="402.490234"/>
      <use xlink:href="#DejaVuSans-66" x="434.277344"/>
      <use xlink:href="#DejaVuSans-2d" x="463.982422"/>
      <use xlink:href="#DejaVuSans-65" x="500.066406"/>
      <use xlink:href="#DejaVuSans-76" x="561.589844"/>
      <use xlink:href="#DejaVuSans-61" x="620.769531"/>
      <use xlink:href="#DejaVuSans-6c" x="682.048828"/>
      <use xlink:href="#DejaVuSans-73" x="709.832031"/>
      <use xlink:href="#DejaVuSans-20" x="761.931641"/>
      <use xlink:href="#DejaVuSans-2f" x="793.71875"/>
      <use xlink:href="#DejaVuSans-20" x="827.410156"/>
      <use xlink:href="#DejaVuSans-64" x="859.197266"/>
      <use xlink:href="#DejaVuSans-69" x="922.673828"/>
      <use xlink:href="#DejaVuSans-6d" x="950.457031"/>
      <use xlink:href="#DejaVuSans-65" x="1047.869141"/>
      <use xlink:href="#DejaVuSans-6e" x="1109.392578"/>
      <use xlink:href="#DejaVuSans-73" x="1172.771484"/>
      <use xlink:href="#DejaVuSans-69" x="1224.871094"/>
      <use xlink:href="#DejaVuSans-6f" x="1252.654297"/>
      <use xlink:href="#DejaVuSans-6e" x="1313.835938"/>
      <use xlink:href="#DejaVuSans-29" x="1377.214844"/>
     </g>
    </g>
   </g>
   <g id="matplotlib.axis_2">
    <g id="ytick_1">
     <g id="line2d_21">
      <path d="M 57.6 298.944 
L 360.8064 298.944 
" clip-path="url(#p1ad25ac3f2)" style="fill: none; stroke: #b0b0b0; stroke-width: 0.8; stroke-linecap: square"/>
     </g>
     <g id="line2d_22">
      <defs>
       <path id="m70e753d744" d="M 0 0 
L -3.5 0 
" style="stroke: #000000; stroke-width: 0.8"/>
      </defs>
      <g>
       <use xlink:href="#m70e753d744" x="57.6" y="298.944" style="stroke: #000000; stroke-width: 0.8"/>
      </g>
     </g>
     <g id="text_6">
      <!-- 0.0 -->
      <g transform="translate(25.155 305.02275)scale(0.16 -0.16)">
       <defs>
        <path id="DejaVuSans-2e" d="M 684 794 
L 1344 794 
L 1344 0 
L 684 0 
L 684 794 
z
" transform="scale(0.015625)"/>
       </defs>
       <use xlink:href="#DejaVuSans-30"/>
       <use xlink:href="#DejaVuSans-2e" x="63.623047"/>
       <use xlink:href="#DejaVuSans-30" x="95.410156"/>
      </g>
     </g>
    </g>
    <g id="ytick_2">
     <g id="line2d_23">
      <path d="M 57.6 240.5376 
L 360.8064 240.5376 
" clip-path="url(#p1ad25ac3f2)" style="fill: none; stroke: #b0b0b0; stroke-width: 0.8; stroke-linecap: square"/>
     </g>
     <g id="line2d_24">
      <g>
       <use xlink:href="#m70e753d744" x="57.6" y="240.5376" style="stroke: #000000; stroke-width: 0.8"/>
      </g>
     </g>
     <g id="text_7">
      <!-- 0.2 -->
      <g transform="translate(25.155 246.61635)scale(0.16 -0.16)">
       <use xlink:href="#DejaVuSans-30"/>
       <use xlink:href="#DejaVuSans-2e" x="63.623047"/>
       <use xlink:href="#DejaVuSans-32" x="95.410156"/>
      </g>
     </g>
    </g>
    <g id="ytick_3">
     <g id="line2d_25">
      <path d="M 57.6 182.1312 
L 360.8064 182.1312 
" clip-path="url(#p1ad25ac3f2)" style="fill: none; stroke: #b0b0b0; stroke-width: 0.8; stroke-linecap: square"/>
     </g>
     <g id="line2d_26">
      <g>
       <use xlink:href="#m70e753d744" x="57.6" y="182.1312" style="stroke: #000000; stroke-width: 0.8"/>
      </g>
     </g>
     <g id="text_8">
      <!-- 0.4 -->
      <g transform="translate(25.155 188.20995)scale(0.16 -0.16)">
       <use xlink:href="#DejaVuSans-30"/>
       <use xlink:href="#DejaVuSans-2e" x="63.623047"/>
       <use xlink:href="#DejaVuSans-34" x="95.410156"/>
      </g>
     </g>
    </g>
    <g id="ytick_4">
     <g id="line2d_27">
      <path d="M 57.6 123.7248 
L 360.8064 123.7248 
" clip-path="url(#p1ad25ac3f2)" style="fill: none; stroke: #b0b0b0; stroke-width: 0.8; stroke-linecap: square"/>
     </g>
     <g id="line2d_28">
      <g>
       <use xlink:href="#m70e753d744" x="57.6" y="123.7248" style="stroke: #000000; stroke-width: 0.8"/>
      </g>
     </g>
     <g id="text_9">
      <!-- 0.6 -->
      <g transform="translate(25.155 129.80355)scale(0.16 -0.16)">
       <use xlink:href="#DejaVuSans-30"/>
       <use xlink:href="#DejaVuSans-2e" x="63.623047"/>
       <use xlink:href="#DejaVuSans-36" x="95.410156"/>
      </g>
     </g>
    </g>
    <g id="ytick_5">
     <g id="line2d_29">
      <path d="M 57.6 65.3184 
L 360.8064 65.3184 
" clip-path="url(#p1ad25ac3f2)" style="fill: none; stroke: #b0b0b0; stroke-width: 0.8; stroke-linecap: square"/>
     </g>
     <g id="line2d_30">
      <g>
       <use xlink:href="#m70e753d744" x="57.6" y="65.3184" style="stroke: #000000; stroke-width: 0.8"/>
      </g>
     </g>
     <g id="text_10">
      <!-- 0.8 -->
      <g transform="translate(25.155 71.39715)scale(0.16 -0.16)">
       <defs>
        <path id="DejaVuSans-38" d="M 2034 2216 
Q 1584 2216 1326 1975 
Q 1069 1734 1069 1313 
Q 1069 891 1326 650 
Q 1584 409 2034 409 
Q 2484 409 2743 651 
Q 3003 894 3003 1313 
Q 3003 1734 2745 1975 
Q 2488 2216 2034 2216 
z
M 1403 2484 
Q 997 2584 770 2862 
Q 544 3141 544 3541 
Q 544 4100 942 4425 
Q 1341 4750 2034 4750 
Q 2731 4750 3128 4425 
Q 3525 4100 3525 3541 
Q 3525 3141 3298 2862 
Q 3072 2584 2669 2484 
Q 3125 2378 3379 2068 
Q 3634 1759 3634 1313 
Q 3634 634 3220 271 
Q 2806 -91 2034 -91 
Q 1263 -91 848 271 
Q 434 634 434 1313 
Q 434 1759 690 2068 
Q 947 2378 1403 2484 
z
M 1172 3481 
Q 1172 3119 1398 2916 
Q 1625 2713 2034 2713 
Q 2441 2713 2670 2916 
Q 2900 3119 2900 3481 
Q 2900 3844 2670 4047 
Q 2441 4250 2034 4250 
Q 1625 4250 1398 4047 
Q 1172 3844 1172 3481 
z
" transform="scale(0.015625)"/>
       </defs>
       <use xlink:href="#DejaVuSans-30"/>
       <use xlink:href="#DejaVuSans-2e" x="63.623047"/>
       <use xlink:href="#DejaVuSans-38" x="95.410156"/>
      </g>
     </g>
    </g>
    <g id="ytick_6">
     <g id="line2d_31">
      <path d="M 57.6 6.912 
L 360.8064 6.912 
" clip-path="url(#p1ad25ac3f2)" style="fill: none; stroke: #b0b0b0; stroke-width: 0.8; stroke-linecap: square"/>
     </g>
     <g id="line2d_32">
      <g>
       <use xlink:href="#m70e753d744" x="57.6" y="6.912" style="stroke: #000000; stroke-width: 0.8"/>
      </g>
     </g>
     <g id="text_11">
      <!-- 1.0 -->
      <g transform="translate(25.155 12.99075)scale(0.16 -0.16)">
       <use xlink:href="#DejaVuSans-31"/>
       <use xlink:href="#DejaVuSans-2e" x="63.623047"/>
       <use xlink:href="#DejaVuSans-30" x="95.410156"/>
      </g>
     </g>
    </g>
    <g id="text_12">
     <!-- Fraction of function,target pairs -->
     <g transform="translate(17.619531 287.313)rotate(-90)scale(0.17 -0.17)">
      <defs>
       <path id="DejaVuSans-46" d="M 628 4666 
L 3309 4666 
L 3309 4134 
L 1259 4134 
L 1259 2759 
L 3109 2759 
L 3109 2228 
L 1259 2228 
L 1259 0 
L 628 0 
L 628 4666 
z
" transform="scale(0.015625)"/>
       <path id="DejaVuSans-72" d="M 2631 2963 
Q 2534 3019 2420 3045 
Q 2306 3072 2169 3072 
Q 1681 3072 1420 2755 
Q 1159 2438 1159 1844 
L 1159 0 
L 581 0 
L 581 3500 
L 1159 3500 
L 1159 2956 
Q 1341 3275 1631 3429 
Q 1922 3584 2338 3584 
Q 2397 3584 2469 3576 
Q 2541 3569 2628 3553 
L 2631 2963 
z
" transform="scale(0.015625)"/>
       <path id="DejaVuSans-63" d="M 3122 3366 
L 3122 2828 
Q 2878 2963 2633 3030 
Q 2388 3097 2138 3097 
Q 1578 3097 1268 2742 
Q 959 2388 959 1747 
Q 959 1106 1268 751 
Q 1578 397 2138 397 
Q 2388 397 2633 464 
Q 2878 531 3122 666 
L 3122 134 
Q 2881 22 2623 -34 
Q 2366 -91 2075 -91 
Q 1284 -91 818 406 
Q 353 903 353 1747 
Q 353 2603 823 3093 
Q 1294 3584 2113 3584 
Q 2378 3584 2631 3529 
Q 2884 3475 3122 3366 
z
" transform="scale(0.015625)"/>
       <path id="DejaVuSans-74" d="M 1172 4494 
L 1172 3500 
L 2356 3500 
L 2356 3053 
L 1172 3053 
L 1172 1153 
Q 1172 725 1289 603 
Q 1406 481 1766 481 
L 2356 481 
L 2356 0 
L 1766 0 
Q 1100 0 847 248 
Q 594 497 594 1153 
L 594 3053 
L 172 3053 
L 172 3500 
L 594 3500 
L 594 4494 
L 1172 4494 
z
" transform="scale(0.015625)"/>
       <path id="DejaVuSans-75" d="M 544 1381 
L 544 3500 
L 1119 3500 
L 1119 1403 
Q 1119 906 1312 657 
Q 1506 409 1894 409 
Q 2359 409 2629 706 
Q 2900 1003 2900 1516 
L 2900 3500 
L 3475 3500 
L 3475 0 
L 2900 0 
L 2900 538 
Q 2691 219 2414 64 
Q 2138 -91 1772 -91 
Q 1169 -91 856 284 
Q 544 659 544 1381 
z
M 1991 3584 
L 1991 3584 
z
" transform="scale(0.015625)"/>
       <path id="DejaVuSans-2c" d="M 750 794 
L 1409 794 
L 1409 256 
L 897 -744 
L 494 -744 
L 750 256 
L 750 794 
z
" transform="scale(0.015625)"/>
       <path id="DejaVuSans-70" d="M 1159 525 
L 1159 -1331 
L 581 -1331 
L 581 3500 
L 1159 3500 
L 1159 2969 
Q 1341 3281 1617 3432 
Q 1894 3584 2278 3584 
Q 2916 3584 3314 3078 
Q 3713 2572 3713 1747 
Q 3713 922 3314 415 
Q 2916 -91 2278 -91 
Q 1894 -91 1617 61 
Q 1341 213 1159 525 
z
M 3116 1747 
Q 3116 2381 2855 2742 
Q 2594 3103 2138 3103 
Q 1681 3103 1420 2742 
Q 1159 2381 1159 1747 
Q 1159 1113 1420 752 
Q 1681 391 2138 391 
Q 2594 391 2855 752 
Q 3116 1113 3116 1747 
z
" transform="scale(0.015625)"/>
      </defs>
      <use xlink:href="#DejaVuSans-46"/>
      <use xlink:href="#DejaVuSans-72" x="50.269531"/>
      <use xlink:href="#DejaVuSans-61" x="91.382812"/>
      <use xlink:href="#DejaVuSans-63" x="152.662109"/>
      <use xlink:href="#DejaVuSans-74" x="207.642578"/>
      <use xlink:href="#DejaVuSans-69" x="246.851562"/>
      <use xlink:href="#DejaVuSans-6f" x="274.634766"/>
      <use xlink:href="#DejaVuSans-6e" x="335.816406"/>
      <use xlink:href="#DejaVuSans-20" x="399.195312"/>
      <use xlink:href="#DejaVuSans-6f" x="430.982422"/>
      <use xlink:href="#DejaVuSans-66" x="492.164062"/>
      <use xlink:href="#DejaVuSans-20" x="527.369141"/>
      <use xlink:href="#DejaVuSans-66" x="559.15625"/>
      <use xlink:href="#DejaVuSans-75" x="594.361328"/>
      <use xlink:href="#DejaVuSans-6e" x="657.740234"/>
      <use xlink:href="#DejaVuSans-63" x="721.119141"/>
      <use xlink:href="#DejaVuSans-74" x="776.099609"/>
      <use xlink:href="#DejaVuSans-69" x="815.308594"/>
      <use xlink:href="#DejaVuSans-6f" x="843.091797"/>
      <use xlink:href="#DejaVuSans-6e" x="904.273438"/>
      <use xlink:href="#DejaVuSans-2c" x="967.652344"/>
      <use xlink:href="#DejaVuSans-74" x="999.439453"/>
      <use xlink:href="#DejaVuSans-61" x="1038.648438"/>
      <use xlink:href="#DejaVuSans-72" x="1099.927734"/>
      <use xlink:href="#DejaVuSans-67" x="1139.291016"/>
      <use xlink:href="#DejaVuSans-65" x="1202.767578"/>
      <use xlink:href="#DejaVuSans-74" x="1264.291016"/>
      <use xlink:href="#DejaVuSans-20" x="1303.5"/>
      <use xlink:href="#DejaVuSans-70" x="1335.287109"/>
      <use xlink:href="#DejaVuSans-61" x="1398.763672"/>
      <use xlink:href="#DejaVuSans-69" x="1460.042969"/>
      <use xlink:href="#DejaVuSans-72" x="1487.826172"/>
      <use xlink:href="#DejaVuSans-73" x="1528.939453"/>
     </g>
    </g>
   </g>
   <g id="line2d_33">
    <defs>
     <path id="m70b1836337" d="M 0 1.5 
C 0.397805 1.5 0.77937 1.341951 1.06066 1.06066 
C 1.341951 0.77937 1.5 0.397805 1.5 0 
C 1.5 -0.397805 1.341951 -0.77937 1.06066 -1.06066 
C 0.77937 -1.341951 0.397805 -1.5 0 -1.5 
C -0.397805 -1.5 -0.77937 -1.341951 -1.06066 -1.06066 
C -1.341951 -0.77937 -1.5 -0.397805 -1.5 0 
C -1.5 0.397805 -1.341951 0.77937 -1.06066 1.06066 
C -0.77937 1.341951 -0.397805 1.5 0 1.5 
z
" style="stroke: #f5deb3"/>
    </defs>
    <g>
     <use xlink:href="#m70b1836337" x="157.703468" y="6.912" style="fill: #f5deb3; stroke: #f5deb3"/>
     <use xlink:href="#m70b1836337" x="157.703468" y="6.912" style="fill: #f5deb3; stroke: #f5deb3"/>
    </g>
   </g>
   <g id="line2d_34">
    <defs>
     <path id="m07e8930abc" d="M 0 1.5 
C 0.397805 1.5 0.77937 1.341951 1.06066 1.06066 
C 1.341951 0.77937 1.5 0.397805 1.5 0 
C 1.5 -0.397805 1.341951 -0.77937 1.06066 -1.06066 
C 0.77937 -1.341951 0.397805 -1.5 0 -1.5 
C -0.397805 -1.5 -0.77937 -1.341951 -1.06066 -1.06066 
C -1.341951 -0.77937 -1.5 -0.397805 -1.5 0 
C -1.5 0.397805 -1.341951 0.77937 -1.06066 1.06066 
C -0.77937 1.341951 -0.397805 1.5 0 1.5 
z
" style="stroke: #000080"/>
    </defs>
    <g>
     <use xlink:href="#m07e8930abc" x="192.538872" y="6.912" style="fill: #000080; stroke: #000080"/>
     <use xlink:href="#m07e8930abc" x="192.538872" y="6.912" style="fill: #000080; stroke: #000080"/>
    </g>
   </g>
   <g id="line2d_35">
    <path d="M 36.933397 298.944 
L 36.933397 289.2096 
L 49.972572 289.2096 
L 49.972572 287.835332 
L 57.6 287.835332 
L 57.6 287.090936 
L 63.011746 287.090936 
L 63.011746 285.945713 
L 67.209423 285.945713 
L 67.209423 285.430362 
L 70.639174 285.430362 
L 70.639174 284.514184 
L 73.538988 284.514184 
L 73.538988 284.170616 
L 76.050921 284.170616 
L 76.050921 283.540744 
L 78.266603 283.540744 
L 78.266603 282.739087 
L 80.248597 282.739087 
L 80.248597 282.338259 
L 82.04153 282.338259 
L 82.04153 282.128301 
L 83.678349 282.128301 
L 83.678349 281.803821 
L 85.184077 281.803821 
L 85.184077 281.689299 
L 86.578163 281.689299 
L 86.578163 281.0976 
L 87.876026 281.0976 
L 87.876026 280.601336 
L 89.090095 280.601336 
L 89.090095 279.876028 
L 90.230539 279.876028 
L 90.230539 279.207981 
L 91.305777 279.207981 
L 91.305777 279.036198 
L 92.322865 279.036198 
L 92.322865 277.890974 
L 93.287772 277.890974 
L 93.287772 277.871887 
L 93.287772 277.642842 
L 94.205591 277.642842 
L 94.205591 277.184753 
L 95.080704 277.184753 
L 95.080704 276.612141 
L 95.916911 276.612141 
L 95.916911 275.734136 
L 96.717523 275.734136 
L 96.717523 274.588913 
L 97.485448 274.493478 
L 97.485448 274.378955 
L 98.223251 274.378955 
L 98.223251 273.672734 
L 98.933205 273.672734 
L 98.933205 273.558212 
L 99.617337 273.558212 
L 99.617337 273.271906 
L 100.277459 273.271906 
L 100.277459 272.050334 
L 100.9152 272.050334 
L 100.9152 271.744941 
L 101.532027 271.744941 
L 101.532027 271.649506 
L 101.532027 271.515896 
L 102.12927 271.515896 
L 102.12927 270.924198 
L 102.708132 270.924198 
L 102.708132 270.06528 
L 103.269713 270.06528 
L 103.269713 269.855322 
L 103.815014 269.855322 
L 103.815014 269.225449 
L 104.344952 269.225449 
L 104.344952 268.748273 
L 104.860369 268.748273 
L 104.860369 268.710099 
L 104.860369 268.003878 
L 105.36204 268.003878 
L 105.36204 267.564875 
L 105.850679 267.564875 
L 105.850679 267.202221 
L 106.326946 267.202221 
L 106.326946 267.183134 
L 106.326946 267.011351 
L 106.791453 267.011351 
L 106.791453 265.866127 
L 107.244765 265.866127 
L 107.244765 265.598908 
L 107.68741 265.598908 
L 107.68741 265.579821 
L 107.68741 265.446212 
L 108.119879 265.446212 
L 108.119879 264.778165 
L 108.542628 264.778165 
L 108.542628 264.644555 
L 108.956085 264.644555 
L 108.956085 264.014682 
L 109.360651 264.014682 
L 109.360651 263.289374 
L 110.144579 263.193939 
L 110.144579 262.60224 
L 110.524623 262.60224 
L 110.524623 262.506805 
L 110.524623 262.163238 
L 110.897141 262.163238 
L 110.897141 261.6288 
L 111.262425 261.6288 
L 111.262425 261.514278 
L 111.620752 261.514278 
L 111.620752 260.788969 
L 112.317555 260.693534 
L 112.317555 260.0064 
L 112.656511 260.0064 
L 112.656511 259.548311 
L 112.989468 259.548311 
L 112.989468 259.300179 
L 113.316634 259.300179 
L 113.316634 258.937525 
L 113.638206 258.937525 
L 113.638206 258.918438 
L 113.638206 258.403087 
L 113.954374 258.403087 
L 113.954374 257.792301 
L 114.265316 257.792301 
L 114.265316 256.857035 
L 114.571202 256.780687 
L 114.571202 256.074466 
L 114.872193 256.074466 
L 114.872193 255.46368 
L 115.168444 255.46368 
L 115.168444 255.234635 
L 115.460102 255.234635 
L 115.460102 254.623849 
L 115.747307 254.623849 
L 115.747307 254.070325 
L 116.030193 254.070325 
L 116.030193 253.688584 
L 116.308887 253.688584 
L 116.308887 253.669496 
L 116.308887 253.19232 
L 116.583514 253.19232 
L 116.583514 252.982362 
L 116.854188 252.982362 
L 116.854188 252.581534 
L 117.121023 252.581534 
L 117.121023 251.932574 
L 117.384126 251.932574 
L 117.384126 251.56992 
L 117.6436 251.56992 
L 117.6436 251.302701 
L 117.899543 251.302701 
L 117.899543 250.539219 
L 118.152051 250.539219 
L 118.152051 250.272 
L 118.401214 250.272 
L 118.401214 250.042955 
L 118.64712 250.042955 
L 118.64712 249.642127 
L 118.889854 249.642127 
L 118.889854 249.489431 
L 119.366121 249.393995 
L 119.366121 249.241299 
L 119.599808 249.241299 
L 119.599808 249.050428 
L 120.058649 249.050428 
L 120.058649 247.428028 
L 120.28394 247.428028 
L 120.28394 247.0272 
L 120.506564 247.0272 
L 120.506564 246.70272 
L 120.726585 246.70272 
L 120.726585 246.607285 
L 120.726585 246.416414 
L 120.944062 246.416414 
L 120.944062 245.633845 
L 121.159053 245.538409 
L 121.159053 245.481148 
L 121.371615 245.481148 
L 121.371615 245.366626 
L 121.581803 245.366626 
L 121.581803 245.099407 
L 121.789667 245.099407 
L 121.789667 244.794014 
L 121.99526 244.75584 
L 121.99526 244.221402 
L 122.19863 244.221402 
L 122.19863 243.706052 
L 122.598891 243.629704 
L 122.598891 243.534268 
L 122.795872 243.534268 
L 122.795872 243.171614 
L 122.990812 243.171614 
L 122.990812 243.13344 
L 122.990812 242.560828 
L 123.183753 242.560828 
L 123.183753 242.064565 
L 123.374735 242.064565 
L 123.374735 241.644649 
L 123.563797 241.644649 
L 123.563797 241.587388 
L 123.563797 241.110212 
L 123.750979 241.110212 
L 123.750979 240.613948 
L 123.936316 240.613948 
L 123.936316 240.423078 
L 124.119844 240.423078 
L 124.119844 240.403991 
L 124.119844 240.155859 
L 124.3016 240.155859 
L 124.3016 240.060424 
L 124.3016 240.041336 
L 124.481616 240.041336 
L 124.481616 239.583247 
L 124.659926 239.583247 
L 124.659926 239.201506 
L 124.836562 239.201506 
L 124.836562 238.686155 
L 125.011554 238.686155 
L 125.011554 238.361675 
L 125.184934 238.361675 
L 125.184934 238.342588 
L 125.184934 237.61728 
L 125.35673 237.61728 
L 125.35673 237.426409 
L 125.526971 237.426409 
L 125.526971 237.235539 
L 125.695686 237.235539 
L 125.695686 236.949233 
L 125.862901 236.853798 
L 125.862901 236.853798 
L 125.862901 236.834711 
L 126.028642 236.834711 
L 126.028642 236.586579 
L 126.192937 236.586579 
L 126.192937 236.414795 
L 126.517282 236.31936 
L 126.517282 235.99488 
L 126.677381 235.99488 
L 126.677381 235.975793 
L 126.677381 235.765835 
L 126.836129 235.6704 
L 126.836129 235.651313 
L 126.993549 235.651313 
L 126.993549 234.849656 
L 127.304491 234.754221 
L 127.304491 234.506089 
L 127.458055 234.506089 
L 127.458055 234.334306 
L 127.610376 234.334306 
L 127.610376 234.028913 
L 127.911368 233.971652 
L 127.911368 233.838042 
L 128.060076 233.838042 
L 128.060076 233.685346 
L 128.207619 233.685346 
L 128.207619 233.322692 
L 128.354013 233.322692 
L 128.354013 232.788254 
L 128.499277 232.788254 
L 128.499277 232.654645 
L 128.643427 232.654645 
L 128.643427 232.463774 
L 128.786481 232.463774 
L 128.786481 232.291991 
L 128.928456 232.291991 
L 128.928456 232.10112 
L 129.069367 232.10112 
L 129.069367 231.738466 
L 129.209231 231.738466 
L 129.209231 231.45216 
L 129.485876 231.394899 
L 129.485876 231.089506 
L 129.622688 231.089506 
L 129.622688 230.535981 
L 129.758512 230.535981 
L 129.758512 230.364198 
L 129.893363 230.364198 
L 129.893363 229.887021 
L 130.027253 229.887021 
L 130.027253 229.715238 
L 130.160198 229.715238 
L 130.160198 229.581628 
L 130.4233 229.486193 
L 130.4233 229.066278 
L 130.553485 229.066278 
L 130.553485 228.837233 
L 130.682774 228.837233 
L 130.682774 228.340969 
L 130.811181 228.340969 
L 130.811181 228.150099 
L 131.065395 228.054664 
L 131.065395 227.844706 
L 131.191226 227.844706 
L 131.191226 227.730184 
L 131.31622 227.730184 
L 131.31622 227.272094 
L 131.563744 227.195746 
L 131.563744 227.119398 
L 131.686295 227.119398 
L 131.686295 225.668781 
L 131.808053 225.668781 
L 131.808053 225.573346 
L 131.808053 225.554259 
L 132.04923 225.516085 
L 132.04923 225.153431 
L 132.168669 225.153431 
L 132.168669 224.96256 
L 132.287354 224.96256 
L 132.287354 224.733515 
L 132.405295 224.733515 
L 132.405295 224.523558 
L 132.522502 224.523558 
L 132.522502 224.256339 
L 132.638982 224.256339 
L 132.638982 223.149289 
L 132.754746 223.149289 
L 132.754746 222.824809 
L 132.869802 222.824809 
L 132.869802 222.557591 
L 132.984158 222.557591 
L 132.984158 222.443068 
L 133.097823 222.443068 
L 133.097823 222.214024 
L 133.210806 222.214024 
L 133.210806 221.889544 
L 133.434756 221.794108 
L 133.545739 221.450541 
L 133.656071 221.450541 
L 133.765759 219.77088 
L 133.983236 219.694532 
L 134.091039 218.873788 
L 134.304809 218.816527 
L 134.41079 217.957609 
L 134.516177 217.957609 
L 134.620977 217.022344 
L 134.828842 216.965082 
L 134.931919 216.354296 
L 135.034434 216.354296 
L 135.034434 216.277948 
L 135.136394 215.495379 
L 135.237805 215.495379 
L 135.338671 215.113638 
L 135.438999 215.113638 
L 135.538796 214.617374 
L 135.638065 214.617374 
L 135.638065 214.5792 
L 135.736814 214.063849 
L 135.835047 214.063849 
L 135.932769 213.720282 
L 136.029987 213.720282 
L 136.029987 213.624847 
L 136.126705 212.269666 
L 136.318661 212.174231 
L 136.413909 211.735228 
L 136.508678 211.735228 
L 136.602972 209.731087 
L 136.696795 209.731087 
L 136.790153 209.101214 
L 136.88305 209.101214 
L 136.88305 209.06304 
L 136.97549 208.624038 
L 137.159019 208.547689 
L 137.250116 208.242296 
L 137.340774 208.242296 
L 137.430998 207.383379 
L 137.520791 207.383379 
L 137.610157 206.982551 
L 137.699101 206.982551 
L 137.787626 206.199981 
L 137.875736 206.199981 
L 137.963436 204.424885 
L 138.050729 204.424885 
L 138.137618 204.081318 
L 138.224108 204.081318 
L 138.310202 203.2224 
L 138.395904 203.2224 
L 138.481218 202.458918 
L 138.566146 202.458918 
L 138.650692 202.058089 
L 138.73486 202.058089 
L 138.818654 200.073035 
L 138.902075 200.073035 
L 138.985129 199.519511 
L 139.067817 199.519511 
L 139.150143 198.908725 
L 139.232111 198.908725 
L 139.313723 198.584245 
L 139.394983 198.584245 
L 139.475893 197.534456 
L 139.556456 197.534456 
L 139.636676 197.05728 
L 139.716555 197.05728 
L 139.716555 197.038193 
L 139.796097 196.40832 
L 139.875304 196.40832 
L 139.954178 196.026579 
L 140.110942 195.969318 
L 140.188837 195.301271 
L 140.26641 195.301271 
L 140.343665 194.900442 
L 140.420604 194.900442 
L 140.420604 194.862268 
L 140.49723 194.46144 
L 140.573544 194.46144 
L 140.649551 193.793393 
L 140.725251 193.793393 
L 140.800648 193.335304 
L 140.875745 193.316216 
L 140.950542 192.457299 
L 141.025043 192.457299 
L 141.099251 192.209167 
L 141.173167 192.209167 
L 141.246793 191.502946 
L 141.320133 191.502946 
L 141.320133 191.445685 
L 141.393187 191.21664 
L 141.465959 191.21664 
L 141.538451 190.968508 
L 141.610664 190.968508 
L 141.682602 190.109591 
L 141.754265 190.109591 
L 141.825656 189.823285 
L 141.896777 189.823285 
L 141.96763 189.078889 
L 142.108542 188.983454 
L 142.178603 188.315407 
L 142.248405 188.315407 
L 142.317949 186.712094 
L 142.387236 186.712094 
L 142.387236 186.654833 
L 142.45627 186.158569 
L 142.525051 186.158569 
L 142.593581 185.471435 
L 142.661862 185.471435 
L 142.729897 185.013346 
L 142.797687 185.013346 
L 142.797687 184.975172 
L 142.865233 184.497995 
L 142.932537 184.497995 
L 142.999601 183.772687 
L 143.133017 183.677252 
L 143.199372 183.123727 
L 143.331383 183.028292 
L 143.397043 182.589289 
L 143.52768 182.532028 
L 143.592659 181.825807 
L 143.721949 181.749459 
L 143.786262 181.043238 
L 143.914232 180.947802 
L 143.977892 180.470626 
L 144.041338 180.470626 
L 144.10457 180.012536 
L 144.16759 180.012536 
L 144.2304 179.229967 
L 144.293001 179.229967 
L 144.293001 179.153619 
L 144.355394 178.905487 
L 144.541342 178.829139 
L 144.602918 178.485572 
L 144.725469 178.390136 
L 144.786447 178.027482 
L 144.847227 178.027482 
L 144.907812 177.683915 
L 144.968202 177.683915 
L 145.0284 177.435784 
L 145.088405 177.435784 
L 145.088405 177.378522 
L 145.148219 177.206739 
L 145.207843 177.206739 
L 145.26728 176.672301 
L 145.326529 176.672301 
L 145.385592 176.156951 
L 145.44447 176.156951 
L 145.44447 176.099689 
L 145.503164 175.450729 
L 145.561676 175.450729 
L 145.620007 175.145336 
L 145.736128 175.088075 
L 145.79392 174.305506 
L 145.851536 174.305506 
L 145.908976 173.809242 
L 146.023332 173.751981 
L 146.080251 173.389327 
L 146.136998 173.389327 
L 146.136998 173.37024 
L 146.193574 172.931238 
L 146.24998 172.931238 
L 146.306218 171.499708 
L 146.362288 171.499708 
L 146.418192 171.137054 
L 146.47393 171.079793 
L 146.47393 171.079793 
L 146.584913 170.640791 
L 146.64016 170.640791 
L 146.750169 169.858221 
L 146.804934 169.858221 
L 146.859539 169.400132 
L 146.968277 169.381045 
L 146.968277 169.381045 
L 147.076389 168.980216 
L 147.130214 168.980216 
L 147.130214 168.961129 
L 147.237402 168.312169 
L 147.290768 168.254908 
L 147.290768 168.254908 
L 147.397049 167.605948 
L 147.555352 167.510513 
L 147.660152 166.689769 
L 147.764371 166.670682 
L 147.868016 166.403464 
L 147.919625 166.403464 
L 147.919625 166.346202 
L 148.022421 164.800151 
L 148.073609 164.800151 
L 148.073609 164.761976 
L 148.175569 164.151191 
L 148.226342 164.151191 
L 148.226342 164.113016 
L 148.32748 163.425882 
L 148.377845 163.425882 
L 148.377845 163.406795 
L 148.478174 162.853271 
L 148.57797 162.757835 
L 148.67724 162.108875 
L 148.726679 162.108875 
L 148.825169 161.345393 
L 148.874221 161.345393 
L 148.971944 160.982739 
L 149.020615 160.982739 
L 149.117582 160.142908 
L 149.214052 160.06656 
L 149.31003 159.589384 
L 149.357835 159.589384 
L 149.453084 158.997685 
L 149.500528 158.997685 
L 149.595059 158.386899 
L 149.689117 158.348725 
L 149.782707 157.623416 
L 149.875833 157.547068 
L 149.968501 157.031718 
L 150.014665 157.031718 
L 150.106653 155.962842 
L 150.152479 155.962842 
L 150.243797 155.161186 
L 150.334674 155.142099 
L 150.425115 154.684009 
L 150.470172 154.684009 
L 150.559965 154.22592 
L 150.604701 154.22592 
L 150.693856 153.653308 
L 150.738275 153.653308 
L 150.738275 153.596047 
L 150.8268 152.794391 
L 150.914911 152.775304 
L 151.00261 152.259953 
L 151.089903 152.221779 
L 151.176793 151.362861 
L 151.220087 151.362861 
L 151.306379 150.962033 
L 151.349377 150.962033 
L 151.435079 150.160376 
L 151.520392 150.084028 
L 151.60532 148.690673 
L 151.647641 148.690673 
L 151.731998 148.098974 
L 151.774035 148.098974 
L 151.857828 147.602711 
L 151.94125 147.526362 
L 152.024303 146.972838 
L 152.065693 146.972838 
L 152.065693 146.915576 
L 152.1482 146.572009 
L 152.189318 146.572009 
L 152.271285 145.751266 
L 152.312136 145.751266 
L 152.393571 145.025958 
L 152.474656 144.930522 
L 152.555392 144.224301 
L 152.595631 144.224301 
L 152.675851 143.651689 
L 152.715833 143.651689 
L 152.795543 143.040904 
L 152.835271 143.040904 
L 152.914478 141.762071 
L 152.993353 141.704809 
L 152.993353 141.666635 
L 153.071898 141.170372 
L 153.111048 141.170372 
L 153.111048 141.151285 
L 153.189104 140.445064 
L 153.228011 140.445064 
L 153.228011 140.349628 
L 153.305585 139.586146 
L 153.421349 139.490711 
L 153.49813 138.899012 
L 153.5746 138.879925 
L 153.5746 138.841751 
L 153.650761 138.116442 
L 153.726614 138.021007 
L 153.802162 137.333873 
L 153.839823 137.333873 
L 153.914919 136.837609 
L 153.952355 136.761261 
L 154.027004 136.093214 
L 154.064218 136.093214 
L 154.138425 135.138861 
L 154.24919 135.043426 
L 154.359307 133.993638 
L 154.39587 133.993638 
L 154.505134 133.172894 
L 154.541415 133.172894 
L 154.649839 132.562108 
L 154.685842 132.562108 
L 154.793439 131.435972 
L 154.829169 131.435972 
L 154.935952 130.233487 
L 154.971412 130.233487 
L 155.077392 129.508179 
L 155.112587 129.508179 
L 155.112587 129.450918 
L 155.217778 128.286607 
L 155.252711 128.286607 
L 155.357123 127.504038 
L 155.391799 127.504038 
L 155.495444 126.664207 
L 155.564225 126.587859 
L 155.666927 125.614419 
L 155.701037 125.614419 
L 155.802997 124.984546 
L 155.836861 124.984546 
L 155.836861 124.965459 
L 155.938089 123.419407 
L 155.971711 123.419407 
L 156.072219 122.808621 
L 156.105602 122.808621 
L 156.205398 122.045139 
L 156.238546 122.045139 
L 156.337642 120.995351 
L 156.403417 120.938089 
L 156.501649 119.945562 
L 156.53428 119.945562 
L 156.53428 119.869214 
L 156.631834 119.239341 
L 156.696589 119.18208 
L 156.793307 118.456772 
L 156.825436 118.456772 
L 156.825436 118.418598 
L 156.921495 117.216113 
L 156.985263 117.120678 
L 157.080512 116.128151 
L 157.112155 116.128151 
L 157.112155 116.051802 
L 157.206765 114.696621 
L 157.238196 114.696621 
L 157.238196 114.658447 
L 157.332175 113.570485 
L 157.363398 113.570485 
L 157.456756 112.062607 
L 157.487772 112.062607 
L 157.487772 112.04352 
L 157.580516 110.879209 
L 157.61133 110.879209 
L 157.61133 110.802861 
L 157.703468 109.848508 
L 157.734081 109.848508 
L 157.825621 109.161374 
L 157.856036 109.161374 
L 157.856036 109.085026 
L 157.946987 108.569675 
L 157.977206 108.569675 
L 157.977206 108.550588 
L 158.067574 107.710758 
L 158.127579 107.653496 
L 158.217229 106.870927 
L 158.247018 106.870927 
L 158.336102 105.8784 
L 158.365703 105.8784 
L 158.454228 104.771351 
L 158.483644 104.771351 
L 158.571617 102.251859 
L 158.630038 102.194598 
L 158.717331 101.412028 
L 158.746339 101.354767 
L 158.833095 100.514936 
L 158.861925 100.514936 
L 158.948151 99.999586 
L 158.976805 99.999586 
L 159.062507 98.778014 
L 159.090988 98.701666 
L 159.176172 98.148141 
L 159.204482 98.148141 
L 159.289155 97.270136 
L 159.317295 97.270136 
L 159.401463 96.525741 
L 159.429436 96.525741 
L 159.513105 95.724085 
L 159.540912 95.647736 
L 159.540912 95.647736 
L 159.651731 94.025336 
L 159.679334 94.006249 
L 159.789344 92.670155 
L 159.816746 92.670155 
L 159.925957 91.2768 
L 159.980326 91.200452 
L 160.088594 90.30336 
L 160.115564 90.30336 
L 160.223059 89.196311 
L 160.249837 89.177224 
L 160.356569 87.917478 
L 160.383158 87.917478 
L 160.489139 86.199642 
L 160.515541 86.199642 
L 160.620781 84.882635 
L 160.646999 84.844461 
L 160.646999 84.844461 
L 160.751508 83.775586 
L 160.777545 83.775586 
L 160.881333 82.134099 
L 160.907191 82.038664 
L 161.010268 81.5424 
L 161.035949 81.5424 
L 161.035949 81.523313 
L 161.138325 80.301741 
L 161.163832 80.301741 
L 161.265517 78.927473 
L 161.290852 78.927473 
L 161.391854 76.942419 
L 161.41702 76.942419 
L 161.41702 76.885158 
L 161.517348 75.587238 
L 161.542347 75.587238 
L 161.642011 74.40384 
L 161.691646 74.327492 
L 161.790524 73.029572 
L 161.815163 73.029572 
L 161.913396 72.170654 
L 161.937874 72.170654 
L 162.03547 71.025431 
L 162.084079 70.968169 
L 162.180921 69.86112 
L 162.205054 69.86112 
L 162.301277 68.658635 
L 162.325256 68.658635 
L 162.325256 68.601374 
L 162.420867 67.246193 
L 162.444694 67.246193 
L 162.539702 66.272753 
L 162.56338 66.272753 
L 162.657792 65.242052 
L 162.704821 65.165704 
L 162.798527 63.829609 
L 162.845206 63.791435 
L 162.938218 62.875256 
L 162.961399 62.875256 
L 162.961399 62.817995 
L 163.053839 61.997252 
L 163.076878 61.997252 
L 163.168754 61.310118 
L 163.191653 61.310118 
L 163.282972 60.298504 
L 163.351171 60.203068 
L 163.44172 59.305976 
L 163.464289 59.305976 
L 163.554297 58.599755 
L 163.576732 58.599755 
L 163.576732 58.50432 
L 163.666204 57.798099 
L 163.688506 57.798099 
L 163.777449 57.244574 
L 163.79962 57.244574 
L 163.910081 56.080264 
L 163.954085 56.023002 
L 163.954085 55.984828 
L 164.063646 55.431304 
L 164.085482 55.431304 
L 164.194282 54.515125 
L 164.215967 54.515125 
L 164.324018 53.598946 
L 164.388551 53.560772 
L 164.495618 52.358287 
L 164.516958 52.358287 
L 164.623299 51.709327 
L 164.644495 51.709327 
L 164.750119 50.984019 
L 164.792203 50.945845 
L 164.897003 49.896056 
L 164.93876 49.876969 
L 165.042749 48.750833 
L 165.063478 48.750833 
L 165.166781 47.853741 
L 165.207944 47.758306 
L 165.31046 47.013911 
L 165.330896 47.013911 
L 165.432746 45.8496 
L 165.45305 45.8496 
L 165.554242 45.047944 
L 165.614697 44.952508 
L 165.695002 44.437158 
L 165.735027 44.437158 
L 165.735027 44.379896 
L 165.834717 43.330108 
L 165.854592 43.330108 
L 165.854592 43.311021 
L 165.953653 42.471191 
L 165.993131 42.375755 
L 166.091467 41.745882 
L 166.111072 41.745882 
L 166.208795 40.963313 
L 166.247742 40.925139 
L 166.247742 40.867878 
L 166.344759 40.314353 
L 166.364103 40.218918 
L 166.460523 39.703567 
L 166.498953 39.665393 
L 166.498953 39.608132 
L 166.594686 38.959172 
L 166.651893 38.901911 
L 166.651893 38.863736 
L 166.746854 38.481995 
L 166.784704 38.443821 
L 166.878997 37.699426 
L 166.954094 37.603991 
L 167.047544 37.317685 
L 167.066179 37.317685 
L 167.066179 37.241336 
L 167.159075 36.802334 
L 167.196106 36.745073 
L 167.306762 36.210635 
L 167.325142 36.210635 
L 167.325142 36.172461 
L 167.435044 35.46624 
L 167.471536 35.389892 
L 167.580589 34.702758 
L 167.598703 34.702758 
L 167.707023 34.244668 
L 167.742992 34.16832 
L 167.850487 33.404838 
L 167.886182 33.309402 
L 167.992864 32.927661 
L 168.010586 32.927661 
L 168.116567 32.393224 
L 168.134173 32.393224 
L 168.134173 32.335962 
L 168.239461 31.457958 
L 168.274427 31.362522 
L 168.378936 30.808998 
L 168.396298 30.808998 
L 168.396298 30.713562 
L 168.482867 30.389082 
L 168.534619 30.293647 
L 168.637696 29.759209 
L 168.689024 29.701948 
L 168.79126 29.282033 
L 168.842171 29.186598 
L 168.943582 28.671247 
L 168.96043 28.671247 
L 168.96043 28.575812 
L 169.061207 27.850504 
L 169.111393 27.831416 
L 169.111393 27.774155 
L 169.211366 27.163369 
L 169.244573 27.144282 
L 169.343842 26.70528 
L 169.376816 26.628932 
L 169.458999 26.209016 
L 169.524487 26.113581 
L 169.622295 25.750927 
L 169.687218 25.655492 
L 169.784185 25.311925 
L 169.864611 25.216489 
L 169.96067 24.987445 
L 170.008516 24.911096 
L 170.008516 24.892009 
L 170.103845 24.453007 
L 170.151329 24.376659 
L 170.261661 24.052179 
L 170.324419 23.975831 
L 170.433743 23.422306 
L 170.464862 23.384132 
L 170.464862 23.326871 
L 170.573376 22.849694 
L 170.604265 22.792433 
L 170.604265 22.754259 
L 170.71198 22.277082 
L 170.742643 22.219821 
L 170.742643 22.181647 
L 170.84957 21.857167 
L 170.895211 21.799906 
L 170.895211 21.761732 
L 171.001277 21.437252 
L 171.046551 21.360904 
L 171.15177 20.960075 
L 171.181725 20.902814 
L 171.271304 20.444725 
L 171.330787 20.349289 
L 171.434432 20.139332 
L 171.493403 20.043896 
L 171.596158 19.833939 
L 171.68379 19.757591 
L 171.68379 19.738504 
L 171.785513 19.528546 
L 171.857838 19.433111 
L 171.958627 19.223153 
L 172.04459 19.184979 
L 172.130162 18.860499 
L 172.186995 18.765064 
L 172.28604 18.59328 
L 172.328329 18.497845 
L 172.412623 18.173365 
L 172.524431 18.077929 
L 172.62172 17.906146 
L 172.649425 17.867972 
L 172.759838 17.600753 
L 172.869606 17.543492 
L 172.869606 17.524405 
L 172.978738 17.199925 
L 173.033068 17.123576 
L 173.033068 17.104489 
L 173.10076 16.818184 
L 173.195121 16.741835 
L 173.195121 16.722748 
L 173.302386 16.531878 
L 173.342453 16.474616 
L 173.448884 16.188311 
L 173.528313 16.092875 
L 173.6337 15.902005 
L 173.699269 15.806569 
L 173.803705 15.615699 
L 173.881654 15.520264 
L 173.985085 15.291219 
L 174.075124 15.214871 
L 174.075124 15.195784 
L 174.1775 15.043087 
L 174.304691 14.947652 
L 174.405829 14.718607 
L 174.443616 14.680433 
L 174.443616 14.661346 
L 174.544011 14.489562 
L 174.668757 14.413214 
L 174.668757 14.394127 
L 174.767961 14.279605 
L 174.829699 14.184169 
L 174.915793 14.05056 
L 175.050293 13.955125 
L 175.159627 13.687906 
L 175.244228 13.592471 
L 175.352444 13.477948 
L 175.519553 13.382513 
L 175.567027 13.306165 
L 175.767465 13.210729 
L 175.837702 13.096207 
L 175.965791 13.000772 
L 176.04685 12.867162 
L 176.196469 12.790814 
L 176.299358 12.695379 
L 176.378996 12.599944 
L 176.390345 12.561769 
L 176.638314 12.466334 
L 176.738821 12.389986 
L 176.960266 12.294551 
L 177.070019 12.180028 
L 177.168252 12.084593 
L 177.265975 11.931896 
L 177.352415 11.836461 
L 177.45991 11.760113 
L 177.545466 11.664678 
L 177.651866 11.569242 
L 177.967504 11.473807 
L 178.07155 11.378372 
L 178.339408 11.282936 
L 178.441423 11.111153 
L 178.633741 11.015718 
L 178.734177 10.882108 
L 178.84404 10.80576 
L 178.84404 10.786673 
L 178.873892 10.748499 
L 179.547723 10.653064 
L 179.586055 10.595802 
L 180.419348 10.500367 
L 180.428504 10.462193 
L 180.737195 10.366758 
L 180.737195 10.347671 
L 181.243605 10.252235 
L 181.33106 10.214061 
L 182.058457 10.118626 
L 182.058457 10.099539 
L 183.597087 10.004104 
L 183.597087 9.985016 
L 185.17645 9.985016 
L 185.254521 8.438965 
L 185.374543 8.343529 
L 185.451798 7.770918 
L 185.500795 7.732744 
L 185.584495 7.522786 
L 185.688599 7.427351 
L 185.77147 7.23648 
L 187.223054 7.179219 
L 187.223054 7.102871 
L 187.80095 7.007435 
L 187.813318 6.969261 
L 360.8064 6.912 
L 360.8064 6.912 
" style="fill: none; stroke: #000080; stroke-width: 1.5; stroke-linecap: square"/>
   </g>
   <g id="line2d_36">
    <defs>
     <path id="m22a39730d1" d="M 0 6 
C 1.591219 6 3.117479 5.367802 4.242641 4.242641 
C 5.367802 3.117479 6 1.591219 6 0 
C 6 -1.591219 5.367802 -3.117479 4.242641 -4.242641 
C 3.117479 -5.367802 1.591219 -6 0 -6 
C -1.591219 -6 -3.117479 -5.367802 -4.242641 -4.242641 
C -5.367802 -3.117479 -6 -1.591219 -6 0 
C -6 1.591219 -5.367802 3.117479 -4.242641 4.242641 
C -3.117479 5.367802 -1.591219 6 0 6 
z
" style="stroke: #000080; stroke-width: 1.5"/>
    </defs>
    <g>
     <use xlink:href="#m22a39730d1" x="102.708132" y="270.06528" style="fill-opacity: 0; stroke: #000080; stroke-width: 1.5"/>
     <use xlink:href="#m22a39730d1" x="144.541342" y="178.714616" style="fill-opacity: 0; stroke: #000080; stroke-width: 1.5"/>
     <use xlink:href="#m22a39730d1" x="169.864611" y="25.178315" style="fill-opacity: 0; stroke: #000080; stroke-width: 1.5"/>
     <use xlink:href="#m22a39730d1" x="192.538872" y="6.912" style="fill-opacity: 0; stroke: #000080; stroke-width: 1.5"/>
     <use xlink:href="#m22a39730d1" x="192.538872" y="6.912" style="fill-opacity: 0; stroke: #000080; stroke-width: 1.5"/>
     <use xlink:href="#m22a39730d1" x="360.8064" y="6.912" style="fill-opacity: 0; stroke: #000080; stroke-width: 1.5"/>
    </g>
   </g>
   <g id="line2d_37">
    <path style="fill: none; stroke: #000080; stroke-width: 1.5; stroke-linecap: square"/>
    <g/>
   </g>
   <g id="line2d_38">
    <path d="M 104.860369 268.003878 
" clip-path="url(#p1ad25ac3f2)" style="fill: none; stroke: #000080; stroke-width: 1.5; stroke-linecap: square"/>
    <defs>
     <path id="m1e2a0b1008" d="M -12 12 
L 12 -12 
M -12 -12 
L 12 12 
" style="stroke: #000080"/>
    </defs>
    <g clip-path="url(#p1ad25ac3f2)">
     <use xlink:href="#m1e2a0b1008" x="104.860369" y="268.003878" style="fill: #000080; stroke: #000080"/>
    </g>
   </g>
   <g id="line2d_39">
    <defs>
     <path id="md5a4eaa5f5" d="M 0 1.5 
C 0.397805 1.5 0.77937 1.341951 1.06066 1.06066 
C 1.341951 0.77937 1.5 0.397805 1.5 0 
C 1.5 -0.397805 1.341951 -0.77937 1.06066 -1.06066 
C 0.77937 -1.341951 0.397805 -1.5 0 -1.5 
C -0.397805 -1.5 -0.77937 -1.341951 -1.06066 -1.06066 
C -1.341951 -0.77937 -1.5 -0.397805 -1.5 0 
C -1.5 0.397805 -1.341951 0.77937 -1.06066 1.06066 
C -0.77937 1.341951 -0.397805 1.5 0 1.5 
z
" style="stroke: #ff00ff"/>
    </defs>
    <g>
     <use xlink:href="#md5a4eaa5f5" x="170.245939" y="6.912" style="fill: #ff00ff; stroke: #ff00ff"/>
     <use xlink:href="#md5a4eaa5f5" x="170.245939" y="6.912" style="fill: #ff00ff; stroke: #ff00ff"/>
    </g>
   </g>
   <g id="line2d_40">
    <path d="M 36.933397 298.944 
L 36.933397 289.400471 
L 49.972572 289.400471 
L 49.972572 288.350682 
L 57.6 288.350682 
L 57.6 287.491765 
L 63.011746 287.491765 
L 63.011746 286.060235 
L 67.209423 286.060235 
L 67.209423 285.869365 
L 70.639174 285.869365 
L 70.639174 285.678494 
L 73.538988 285.678494 
L 73.538988 284.724141 
L 76.050921 284.724141 
L 76.050921 284.151529 
L 78.266603 284.151529 
L 78.266603 283.292612 
L 80.248597 283.292612 
L 80.248597 282.815435 
L 82.04153 282.815435 
L 82.04153 282.433694 
L 83.678349 282.433694 
L 83.678349 282.242824 
L 85.184077 282.242824 
L 85.184077 281.956518 
L 86.578163 281.956518 
L 86.578163 281.383906 
L 87.876026 281.383906 
L 87.876026 281.0976 
L 89.090095 281.0976 
L 89.090095 280.143247 
L 91.305777 280.047812 
L 91.305777 278.998024 
L 92.322865 278.998024 
L 92.322865 278.234541 
L 93.287772 278.234541 
L 93.287772 278.043671 
L 95.080704 278.043671 
L 95.080704 277.280188 
L 96.717523 277.280188 
L 96.717523 276.803012 
L 98.223251 276.707576 
L 98.223251 275.848659 
L 98.933205 275.848659 
L 98.933205 275.657788 
L 100.277459 275.562353 
L 100.277459 275.085176 
L 100.9152 275.085176 
L 100.9152 274.703435 
L 101.532027 274.703435 
L 101.532027 274.226259 
L 102.12927 274.226259 
L 102.12927 273.939953 
L 102.708132 273.939953 
L 102.708132 273.367341 
L 103.269713 273.367341 
L 103.269713 273.176471 
L 103.815014 273.176471 
L 103.815014 272.9856 
L 104.344952 272.9856 
L 104.344952 272.222118 
L 105.36204 272.126682 
L 105.36204 271.554071 
L 105.850679 271.554071 
L 105.850679 270.886024 
L 106.326946 270.886024 
L 106.326946 270.408847 
L 107.244765 270.313412 
L 107.244765 270.217976 
L 107.68741 270.217976 
L 107.68741 269.168188 
L 108.119879 269.168188 
L 108.119879 268.786447 
L 108.542628 268.786447 
L 108.542628 268.595576 
L 108.956085 268.595576 
L 108.956085 267.450353 
L 109.360651 267.450353 
L 109.360651 266.686871 
L 109.756698 266.686871 
L 109.756698 266.209694 
L 110.144579 266.209694 
L 110.144579 265.446212 
L 110.524623 265.446212 
L 110.524623 264.8736 
L 110.897141 264.8736 
L 110.897141 264.682729 
L 111.262425 264.682729 
L 111.262425 263.823812 
L 111.620752 263.823812 
L 111.620752 262.964894 
L 111.97238 262.964894 
L 111.97238 262.105976 
L 112.317555 262.105976 
L 112.317555 261.915106 
L 112.656511 261.915106 
L 112.656511 261.151624 
L 112.989468 261.151624 
L 112.989468 260.483576 
L 113.316634 260.483576 
L 113.316634 260.292706 
L 113.638206 260.292706 
L 113.638206 259.910965 
L 114.265316 259.815529 
L 114.265316 259.052047 
L 114.872193 258.956612 
L 114.872193 258.765741 
L 115.168444 258.765741 
L 115.168444 258.097694 
L 116.030193 258.002259 
L 116.030193 257.429647 
L 116.308887 257.429647 
L 116.308887 257.238776 
L 116.854188 257.143341 
L 116.854188 257.047906 
L 117.384126 256.952471 
L 117.384126 256.7616 
L 117.6436 256.7616 
L 117.6436 256.379859 
L 117.899543 256.379859 
L 117.899543 255.807247 
L 118.152051 255.807247 
L 118.152051 255.425506 
L 118.64712 255.425506 
L 118.64712 254.089412 
L 118.889854 254.089412 
L 118.889854 253.325929 
L 119.366121 253.230494 
L 119.366121 253.039624 
L 119.599808 253.039624 
L 119.599808 252.848753 
L 119.830627 252.848753 
L 119.830627 252.371576 
L 120.506564 252.276141 
L 120.506564 251.417224 
L 121.159053 251.321788 
L 121.159053 250.940047 
L 121.371615 250.940047 
L 121.371615 250.749176 
L 121.581803 250.749176 
L 121.581803 250.558306 
L 121.789667 250.558306 
L 121.789667 250.367435 
L 121.99526 250.367435 
L 121.99526 250.176565 
L 122.19863 250.176565 
L 122.19863 248.554165 
L 122.399825 248.554165 
L 122.399825 247.981553 
L 122.598891 247.981553 
L 122.598891 247.599812 
L 122.795872 247.599812 
L 122.795872 247.313506 
L 122.990812 247.313506 
L 122.990812 247.0272 
L 123.183753 247.0272 
L 123.183753 246.740894 
L 123.374735 246.740894 
L 123.374735 246.550024 
L 123.563797 246.550024 
L 123.563797 245.977412 
L 123.750979 245.977412 
L 123.750979 245.213929 
L 123.936316 245.213929 
L 123.936316 244.927624 
L 124.119844 244.927624 
L 124.119844 244.450447 
L 124.481616 244.355012 
L 124.481616 243.973271 
L 124.659926 243.973271 
L 124.659926 243.7824 
L 124.836562 243.7824 
L 124.836562 243.591529 
L 125.011554 243.591529 
L 125.011554 243.114353 
L 125.184934 243.114353 
L 125.184934 242.255435 
L 125.35673 242.255435 
L 125.35673 241.682824 
L 125.695686 241.587388 
L 125.695686 241.110212 
L 125.862901 241.110212 
L 125.862901 240.728471 
L 126.192937 240.728471 
L 126.192937 240.346729 
L 126.517282 240.346729 
L 126.517282 239.964988 
L 126.677381 239.964988 
L 126.677381 239.583247 
L 127.304491 239.583247 
L 127.304491 239.296941 
L 127.458055 239.296941 
L 127.458055 238.247153 
L 127.911368 238.151718 
L 127.911368 238.056282 
L 128.207619 238.056282 
L 128.207619 237.865412 
L 128.499277 237.769976 
L 128.499277 237.2928 
L 128.786481 237.197365 
L 128.786481 237.101929 
L 128.928456 237.101929 
L 128.928456 236.720188 
L 129.209231 236.624753 
L 129.209231 235.6704 
L 129.348062 235.6704 
L 129.348062 235.479529 
L 129.485876 235.479529 
L 129.485876 235.097788 
L 129.758512 235.002353 
L 129.758512 234.716047 
L 129.893363 234.716047 
L 129.893363 234.334306 
L 130.292209 234.238871 
L 130.292209 233.857129 
L 130.4233 233.857129 
L 130.4233 233.666259 
L 130.553485 233.666259 
L 130.553485 233.475388 
L 130.682774 233.475388 
L 130.682774 233.284518 
L 130.811181 233.284518 
L 130.811181 233.093647 
L 131.065395 233.093647 
L 131.065395 232.807341 
L 131.31622 232.711906 
L 131.31622 232.521035 
L 131.563744 232.4256 
L 131.563744 232.330165 
L 131.686295 232.330165 
L 131.686295 232.043859 
L 131.808053 232.043859 
L 131.808053 231.566682 
L 131.929028 231.566682 
L 131.929028 231.375812 
L 132.04923 231.375812 
L 132.04923 231.184941 
L 132.287354 231.089506 
L 132.287354 230.994071 
L 132.522502 230.898635 
L 132.522502 230.8032 
L 132.638982 230.8032 
L 132.638982 230.516894 
L 132.754746 230.516894 
L 132.754746 230.326024 
L 132.984158 230.230588 
L 132.984158 229.944282 
L 133.097823 229.944282 
L 133.097823 229.467106 
L 133.323114 229.467106 
L 133.323114 229.085365 
L 133.656071 228.989929 
L 133.765759 228.226447 
L 133.874812 228.226447 
L 133.874812 227.940141 
L 134.304809 227.940141 
L 134.304809 227.749271 
L 134.620977 227.749271 
L 134.620977 227.5584 
L 134.931919 227.462965 
L 135.034434 225.936 
L 135.338671 225.840565 
L 135.438999 225.363388 
L 135.538796 225.363388 
L 135.538796 224.981647 
L 135.835047 224.886212 
L 135.932769 224.599906 
L 136.126705 224.599906 
L 136.222928 223.740988 
L 136.413909 223.740988 
L 136.508678 218.682918 
L 136.602972 218.682918 
L 136.696795 218.205741 
L 136.790153 218.205741 
L 136.790153 217.251388 
L 137.067478 217.251388 
L 137.159019 216.487906 
L 137.340774 216.392471 
L 137.340774 216.297035 
L 137.520791 216.297035 
L 137.610157 213.815718 
L 137.699101 213.815718 
L 137.787626 210.857224 
L 137.875736 210.857224 
L 137.963436 210.475482 
L 138.050729 210.475482 
L 138.137618 207.898729 
L 138.310202 207.803294 
L 138.310202 207.612424 
L 138.650692 207.612424 
L 138.73486 207.230682 
L 138.902075 207.230682 
L 138.902075 204.463059 
L 139.150143 204.367624 
L 139.232111 201.122824 
L 139.394983 201.027388 
L 139.475893 198.832376 
L 139.636676 198.736941 
L 139.716555 197.878024 
L 139.796097 197.878024 
L 139.796097 197.687153 
L 140.032723 197.591718 
L 140.110942 197.305412 
L 140.188837 197.305412 
L 140.188837 196.828235 
L 140.573544 196.7328 
L 140.649551 196.541929 
L 140.800648 196.541929 
L 140.875745 196.064753 
L 140.950542 196.064753 
L 141.025043 193.297129 
L 141.173167 193.201694 
L 141.246793 192.915388 
L 141.320133 192.915388 
L 141.393187 192.629082 
L 141.465959 192.629082 
L 141.538451 192.056471 
L 141.610664 192.056471 
L 141.682602 191.674729 
L 141.825656 191.579294 
L 141.825656 191.388424 
L 141.96763 191.388424 
L 141.96763 191.197553 
L 142.178603 191.102118 
L 142.248405 188.716235 
L 142.387236 188.716235 
L 142.45627 187.380141 
L 142.593581 187.380141 
L 142.661862 186.807529 
L 142.729897 186.807529 
L 142.797687 186.139482 
L 142.932537 186.044047 
L 142.999601 185.662306 
L 143.066428 185.662306 
L 143.133017 185.280565 
L 143.199372 185.280565 
L 143.265494 184.230776 
L 143.331383 184.230776 
L 143.397043 183.7536 
L 143.52768 183.658165 
L 143.592659 182.417506 
L 143.721949 182.322071 
L 143.786262 182.1312 
L 143.914232 182.035765 
L 143.977892 181.463153 
L 144.041338 181.463153 
L 144.10457 180.890541 
L 144.2304 180.795106 
L 144.2304 180.699671 
L 144.847227 180.604235 
L 144.907812 177.550306 
L 144.968202 177.550306 
L 145.0284 177.264 
L 145.088405 177.264 
L 145.148219 176.882259 
L 145.207843 176.882259 
L 145.26728 176.309647 
L 145.385592 176.309647 
L 145.44447 175.737035 
L 145.503164 175.737035 
L 145.561676 175.355294 
L 145.620007 175.355294 
L 145.620007 174.973553 
L 145.736128 174.973553 
L 145.79392 174.0192 
L 145.966241 173.923765 
L 146.023332 172.873976 
L 146.136998 172.778541 
L 146.136998 172.683106 
L 146.306218 172.683106 
L 146.306218 172.3968 
L 146.47393 172.3968 
L 146.47393 172.205929 
L 146.64016 172.205929 
L 146.750169 171.537882 
L 146.859539 171.537882 
L 146.913986 170.869835 
L 147.022411 170.869835 
L 147.130214 169.820047 
L 147.237402 169.820047 
L 147.343984 169.056565 
L 147.502732 169.056565 
L 147.607824 168.579388 
L 147.712333 168.579388 
L 147.816265 167.911341 
L 147.868016 167.911341 
L 147.971093 167.434165 
L 148.073609 167.338729 
L 148.073609 167.052424 
L 148.32748 166.956988 
L 148.428077 163.616753 
L 148.478174 163.616753 
L 148.57797 162.948706 
L 148.67724 162.948706 
L 148.775988 162.376094 
L 148.825169 162.376094 
L 148.874221 162.089788 
L 148.971944 162.089788 
L 149.020615 161.803482 
L 149.214052 161.708047 
L 149.262102 161.135435 
L 149.357835 161.135435 
L 149.453084 160.467388 
L 149.595059 160.371953 
L 149.689117 159.513035 
L 149.73597 159.513035 
L 149.829328 158.940424 
L 149.875833 158.940424 
L 149.968501 157.699765 
L 150.014665 157.699765 
L 150.106653 156.840847 
L 150.152479 156.840847 
L 150.243797 155.313882 
L 150.289291 155.313882 
L 150.379949 154.932141 
L 150.470172 154.836706 
L 150.559965 154.359529 
L 150.604701 154.359529 
L 150.693856 153.786918 
L 150.78259 153.691482 
L 150.870907 152.928 
L 150.958812 152.928 
L 151.046307 152.069082 
L 151.133398 152.069082 
L 151.220087 151.496471 
L 151.263283 151.496471 
L 151.349377 150.732988 
L 151.392277 150.732988 
L 151.477784 149.969506 
L 151.520392 149.969506 
L 151.562904 149.396894 
L 151.647641 149.396894 
L 151.689867 148.633412 
L 151.774035 148.633412 
L 151.857828 147.869929 
L 151.94125 147.774494 
L 152.024303 147.392753 
L 152.065693 147.392753 
L 152.1482 146.533835 
L 152.189318 146.533835 
L 152.271285 145.579482 
L 152.312136 145.579482 
L 152.393571 145.102306 
L 152.434157 145.102306 
L 152.515067 143.384471 
L 152.635783 143.289035 
L 152.715833 142.525553 
L 152.75573 142.525553 
L 152.795543 141.952941 
L 152.914478 141.857506 
L 152.993353 140.998588 
L 153.032666 140.998588 
L 153.111048 140.425976 
L 153.150116 140.425976 
L 153.228011 139.376188 
L 153.266838 139.376188 
L 153.344252 139.089882 
L 153.421349 138.994447 
L 153.49813 138.421835 
L 153.5746 138.3264 
L 153.650761 137.753788 
L 153.726614 137.658353 
L 153.802162 136.704 
L 153.839823 136.704 
L 153.914919 135.463341 
L 153.952355 135.463341 
L 154.027004 134.604424 
L 154.064218 134.604424 
L 154.101358 133.936376 
L 154.212341 133.840941 
L 154.322673 132.982024 
L 154.39587 132.886588 
L 154.505134 131.359624 
L 154.613767 131.359624 
L 154.721776 130.2144 
L 154.793439 130.118965 
L 154.900425 128.878306 
L 155.006805 128.782871 
L 155.077392 128.210259 
L 155.217778 128.210259 
L 155.322384 126.9696 
L 155.357123 126.9696 
L 155.460959 125.728941 
L 155.529866 125.633506 
L 155.632755 124.870024 
L 155.701037 124.870024 
L 155.802997 122.675012 
L 155.836861 122.675012 
L 155.938089 121.434353 
L 156.038776 121.434353 
L 156.138926 120.48 
L 156.205398 120.384565 
L 156.304668 119.334776 
L 156.337642 119.334776 
L 156.436218 118.571294 
L 156.468962 118.571294 
L 156.566854 117.330635 
L 156.631834 117.2352 
L 156.728884 115.803671 
L 156.761123 115.803671 
L 156.857511 114.849318 
L 156.88953 114.849318 
L 156.985263 113.322353 
L 157.017067 113.322353 
L 157.112155 111.509082 
L 157.175281 111.413647 
L 157.269574 110.268424 
L 157.332175 110.268424 
L 157.425688 109.409506 
L 157.456756 109.409506 
L 157.549652 107.596235 
L 157.580516 107.596235 
L 157.672805 106.928188 
L 157.703468 106.928188 
L 157.795157 104.733176 
L 157.856036 104.637741 
L 157.946987 103.301647 
L 158.007377 103.301647 
L 158.0976 102.442729 
L 158.127579 102.442729 
L 158.15751 101.965553 
L 158.247018 101.965553 
L 158.336102 100.343153 
L 158.424766 100.247718 
L 158.513014 96.812047 
L 158.542339 96.812047 
L 158.600851 96.144 
L 158.659181 96.144 
L 158.746339 95.094212 
L 158.775302 95.094212 
L 158.861925 94.044424 
L 158.890711 94.044424 
L 158.976805 91.563106 
L 159.005416 91.563106 
L 159.062507 90.799624 
L 159.14782 90.799624 
L 159.232748 88.986353 
L 159.289155 88.890918 
L 159.373449 87.173082 
L 159.401463 87.173082 
L 159.485256 86.027859 
L 159.513105 86.027859 
L 159.624087 83.069365 
L 159.679334 83.069365 
L 159.761902 82.115012 
L 159.816746 82.115012 
L 159.925957 80.397176 
L 159.953161 80.397176 
L 160.061585 79.729129 
L 160.088594 79.729129 
L 160.196243 77.438682 
L 160.249837 77.343247 
L 160.356569 76.388894 
L 160.383158 76.388894 
L 160.489139 74.861929 
L 160.515541 74.861929 
L 160.620781 73.334965 
L 160.673181 73.239529 
L 160.777545 71.808 
L 160.82951 71.808 
L 160.933013 70.567341 
L 160.9588 70.567341 
L 161.061595 68.467765 
L 161.087207 68.467765 
L 161.189305 66.177318 
L 161.240147 66.081882 
L 161.341421 65.127529 
L 161.366654 65.127529 
L 161.467251 61.978165 
L 161.492316 61.978165 
L 161.542347 61.119247 
L 161.617145 61.119247 
L 161.716414 60.069459 
L 161.74115 60.069459 
L 161.815163 58.160753 
L 161.864343 58.160753 
L 161.96232 56.252047 
L 162.03547 56.156612 
L 162.132562 55.488565 
L 162.205054 55.393129 
L 162.277267 54.343341 
L 162.349204 54.343341 
L 162.444694 52.243765 
L 162.468491 52.243765 
L 162.539702 51.193976 
L 162.587027 51.193976 
L 162.657792 49.667012 
L 162.728291 49.667012 
L 162.798527 49.0944 
L 162.845206 49.0944 
L 162.938218 47.949176 
L 162.961399 47.949176 
L 163.053839 46.613082 
L 163.099889 46.613082 
L 163.168754 45.8496 
L 163.214524 45.8496 
L 163.305732 44.418071 
L 163.351171 44.322635 
L 163.44172 43.559153 
L 163.464289 43.559153 
L 163.531835 42.032188 
L 163.621521 41.936753 
L 163.710781 41.077835 
L 163.73303 41.077835 
L 163.821764 39.837176 
L 163.865975 39.837176 
L 163.976048 38.596518 
L 163.997986 38.596518 
L 164.107292 35.447153 
L 164.129077 35.447153 
L 164.237627 34.874541 
L 164.259262 34.874541 
L 164.367065 33.443012 
L 164.388551 33.443012 
L 164.495618 31.438871 
L 164.559567 31.343435 
L 164.665667 30.770824 
L 164.729041 30.770824 
L 164.834193 29.052988 
L 164.855153 29.052988 
L 164.93876 27.907765 
L 164.980424 27.907765 
L 165.084184 27.430588 
L 165.125528 27.335153 
L 165.207944 26.476235 
L 165.249018 26.476235 
L 165.31046 25.521882 
L 165.41242 25.426447 
L 165.51383 23.994918 
L 165.574415 23.899482 
L 165.634805 23.136 
L 165.695002 23.136 
L 165.774966 21.704471 
L 165.854592 21.704471 
L 165.894279 20.940988 
L 165.973402 20.940988 
L 166.071841 20.082071 
L 166.130658 19.986635 
L 166.189291 19.604894 
L 166.267186 19.509459 
L 166.344759 18.841412 
L 166.383426 18.841412 
L 166.479748 17.696188 
L 166.537305 17.600753 
L 166.575579 17.123576 
L 166.670924 17.123576 
L 166.765788 16.550965 
L 166.878997 16.455529 
L 166.972821 15.024 
L 167.066179 15.024 
L 167.103392 14.642259 
L 167.214594 14.642259 
L 167.325142 13.592471 
L 167.343504 13.592471 
L 167.453299 13.210729 
L 167.507957 13.115294 
L 167.598703 12.828988 
L 167.634879 12.828988 
L 167.725016 12.065506 
L 167.778892 11.970071 
L 167.868343 10.443106 
L 167.975126 10.347671 
L 168.028291 9.488753 
L 168.326754 9.488753 
L 168.413644 9.202447 
L 168.551837 9.107012 
L 168.551837 8.916141 
L 168.689024 8.916141 
L 168.757243 8.629835 
L 168.808246 8.629835 
L 168.825216 7.961788 
L 169.227977 7.961788 
L 169.277721 7.675482 
L 169.540824 7.580047 
L 169.540824 7.293741 
L 170.135514 7.198306 
L 170.245939 6.912 
L 360.8064 6.912 
L 360.8064 6.912 
" style="fill: none; stroke: #ff00ff; stroke-width: 1.5; stroke-linecap: square"/>
   </g>
   <g id="line2d_41">
    <defs>
     <path id="m43f846c93a" d="M -0 8.485281 
L 5.091169 0 
L 0 -8.485281 
L -5.091169 -0 
z
" style="stroke: #ff00ff; stroke-width: 1.5; stroke-linejoin: miter"/>
    </defs>
    <g>
     <use xlink:href="#m43f846c93a" x="102.12927" y="273.939953" style="fill-opacity: 0; stroke: #ff00ff; stroke-width: 1.5; stroke-linejoin: miter"/>
     <use xlink:href="#m43f846c93a" x="150.198193" y="156.363671" style="fill-opacity: 0; stroke: #ff00ff; stroke-width: 1.5; stroke-linejoin: miter"/>
     <use xlink:href="#m43f846c93a" x="170.245939" y="7.007435" style="fill-opacity: 0; stroke: #ff00ff; stroke-width: 1.5; stroke-linejoin: miter"/>
     <use xlink:href="#m43f846c93a" x="170.245939" y="6.912" style="fill-opacity: 0; stroke: #ff00ff; stroke-width: 1.5; stroke-linejoin: miter"/>
     <use xlink:href="#m43f846c93a" x="170.245939" y="6.912" style="fill-opacity: 0; stroke: #ff00ff; stroke-width: 1.5; stroke-linejoin: miter"/>
     <use xlink:href="#m43f846c93a" x="360.8064" y="6.912" style="fill-opacity: 0; stroke: #ff00ff; stroke-width: 1.5; stroke-linejoin: miter"/>
    </g>
   </g>
   <g id="line2d_42">
    <path style="fill: none; stroke: #ff00ff; stroke-width: 1.5; stroke-linecap: square"/>
    <g/>
   </g>
   <g id="line2d_43">
    <path d="M 360.8064 6.912 
L 380.514816 293.10336 
" style="fill: none; stroke: #000080; stroke-width: 1.5; stroke-linecap: square"/>
    <g>
     <use xlink:href="#m22a39730d1" x="360.8064" y="6.912" style="fill-opacity: 0; stroke: #000080; stroke-width: 1.5"/>
     <use xlink:href="#m22a39730d1" x="380.514816" y="293.10336" style="fill-opacity: 0; stroke: #000080; stroke-width: 1.5"/>
    </g>
   </g>
   <g id="line2d_44">
    <path d="M 360.8064 6.912 
L 380.514816 152.928 
" style="fill: none; stroke: #ff00ff; stroke-width: 1.5; stroke-linecap: square"/>
    <g>
     <use xlink:href="#m43f846c93a" x="360.8064" y="6.912" style="fill-opacity: 0; stroke: #ff00ff; stroke-width: 1.5; stroke-linejoin: miter"/>
     <use xlink:href="#m43f846c93a" x="380.514816" y="152.928" style="fill-opacity: 0; stroke: #ff00ff; stroke-width: 1.5; stroke-linejoin: miter"/>
    </g>
   </g>
   <g id="line2d_45">
    <path d="M 360.8064 298.944 
L 360.8064 6.912 
" style="fill: none; stroke: #000000; stroke-width: 1.5; stroke-linecap: square"/>
   </g>
   <g id="patch_3">
    <path d="M 57.6 298.944 
L 360.8064 298.944 
" style="fill: none; stroke: #000000; stroke-width: 0.8; stroke-linejoin: miter; stroke-linecap: square"/>
   </g>
   <g id="patch_4">
    <path d="M 57.6 6.912 
L 360.8064 6.912 
" style="fill: none; stroke: #000000; stroke-width: 0.8; stroke-linejoin: miter; stroke-linecap: square"/>
   </g>
   <g id="text_13">
    <!-- ex -->
    <g transform="translate(386.578944 296.966485)scale(0.14 -0.14)">
     <defs>
      <path id="DejaVuSans-78" d="M 3513 3500 
L 2247 1797 
L 3578 0 
L 2900 0 
L 1881 1375 
L 863 0 
L 184 0 
L 1544 1831 
L 300 3500 
L 978 3500 
L 1906 2253 
L 2834 3500 
L 3513 3500 
z
" transform="scale(0.015625)"/>
     </defs>
     <use xlink:href="#DejaVuSans-65"/>
     <use xlink:href="#DejaVuSans-78" x="59.773438"/>
    </g>
   </g>
   <g id="text_14">
    <!-- CMA-ES-20 -->
    <g transform="translate(386.578944 156.791125)scale(0.14 -0.14)">
     <defs>
      <path id="DejaVuSans-43" d="M 4122 4306 
L 4122 3641 
Q 3803 3938 3442 4084 
Q 3081 4231 2675 4231 
Q 1875 4231 1450 3742 
Q 1025 3253 1025 2328 
Q 1025 1406 1450 917 
Q 1875 428 2675 428 
Q 3081 428 3442 575 
Q 3803 722 4122 1019 
L 4122 359 
Q 3791 134 3420 21 
Q 3050 -91 2638 -91 
Q 1578 -91 968 557 
Q 359 1206 359 2328 
Q 359 3453 968 4101 
Q 1578 4750 2638 4750 
Q 3056 4750 3426 4639 
Q 3797 4528 4122 4306 
z
" transform="scale(0.015625)"/>
      <path id="DejaVuSans-4d" d="M 628 4666 
L 1569 4666 
L 2759 1491 
L 3956 4666 
L 4897 4666 
L 4897 0 
L 4281 0 
L 4281 4097 
L 3078 897 
L 2444 897 
L 1241 4097 
L 1241 0 
L 628 0 
L 628 4666 
z
" transform="scale(0.015625)"/>
      <path id="DejaVuSans-41" d="M 2188 4044 
L 1331 1722 
L 3047 1722 
L 2188 4044 
z
M 1831 4666 
L 2547 4666 
L 4325 0 
L 3669 0 
L 3244 1197 
L 1141 1197 
L 716 0 
L 50 0 
L 1831 4666 
z
" transform="scale(0.015625)"/>
      <path id="DejaVuSans-45" d="M 628 4666 
L 3578 4666 
L 3578 4134 
L 1259 4134 
L 1259 2753 
L 3481 2753 
L 3481 2222 
L 1259 2222 
L 1259 531 
L 3634 531 
L 3634 0 
L 628 0 
L 628 4666 
z
" transform="scale(0.015625)"/>
      <path id="DejaVuSans-53" d="M 3425 4513 
L 3425 3897 
Q 3066 4069 2747 4153 
Q 2428 4238 2131 4238 
Q 1616 4238 1336 4038 
Q 1056 3838 1056 3469 
Q 1056 3159 1242 3001 
Q 1428 2844 1947 2747 
L 2328 2669 
Q 3034 2534 3370 2195 
Q 3706 1856 3706 1288 
Q 3706 609 3251 259 
Q 2797 -91 1919 -91 
Q 1588 -91 1214 -16 
Q 841 59 441 206 
L 441 856 
Q 825 641 1194 531 
Q 1563 422 1919 422 
Q 2459 422 2753 634 
Q 3047 847 3047 1241 
Q 3047 1584 2836 1778 
Q 2625 1972 2144 2069 
L 1759 2144 
Q 1053 2284 737 2584 
Q 422 2884 422 3419 
Q 422 4038 858 4394 
Q 1294 4750 2059 4750 
Q 2388 4750 2728 4690 
Q 3069 4631 3425 4513 
z
" transform="scale(0.015625)"/>
     </defs>
     <use xlink:href="#DejaVuSans-43"/>
     <use xlink:href="#DejaVuSans-4d" x="69.824219"/>
     <use xlink:href="#DejaVuSans-41" x="156.103516"/>
     <use xlink:href="#DejaVuSans-2d" x="222.261719"/>
     <use xlink:href="#DejaVuSans-45" x="258.345703"/>
     <use xlink:href="#DejaVuSans-53" x="321.529297"/>
     <use xlink:href="#DejaVuSans-2d" x="385.005859"/>
     <use xlink:href="#DejaVuSans-32" x="421.089844"/>
     <use xlink:href="#DejaVuSans-30" x="484.712891"/>
    </g>
   </g>
   <g id="text_15">
    <!-- best 2009 -->
    <g transform="translate(386.578944 16.615765)scale(0.14 -0.14)">
     <defs>
      <path id="DejaVuSans-62" d="M 3116 1747 
Q 3116 2381 2855 2742 
Q 2594 3103 2138 3103 
Q 1681 3103 1420 2742 
Q 1159 2381 1159 1747 
Q 1159 1113 1420 752 
Q 1681 391 2138 391 
Q 2594 391 2855 752 
Q 3116 1113 3116 1747 
z
M 1159 2969 
Q 1341 3281 1617 3432 
Q 1894 3584 2278 3584 
Q 2916 3584 3314 3078 
Q 3713 2572 3713 1747 
Q 3713 922 3314 415 
Q 2916 -91 2278 -91 
Q 1894 -91 1617 61 
Q 1341 213 1159 525 
L 1159 0 
L 581 0 
L 581 4863 
L 1159 4863 
L 1159 2969 
z
" transform="scale(0.015625)"/>
      <path id="DejaVuSans-39" d="M 703 97 
L 703 672 
Q 941 559 1184 500 
Q 1428 441 1663 441 
Q 2288 441 2617 861 
Q 2947 1281 2994 2138 
Q 2813 1869 2534 1725 
Q 2256 1581 1919 1581 
Q 1219 1581 811 2004 
Q 403 2428 403 3163 
Q 403 3881 828 4315 
Q 1253 4750 1959 4750 
Q 2769 4750 3195 4129 
Q 3622 3509 3622 2328 
Q 3622 1225 3098 567 
Q 2575 -91 1691 -91 
Q 1453 -91 1209 -44 
Q 966 3 703 97 
z
M 1959 2075 
Q 2384 2075 2632 2365 
Q 2881 2656 2881 3163 
Q 2881 3666 2632 3958 
Q 2384 4250 1959 4250 
Q 1534 4250 1286 3958 
Q 1038 3666 1038 3163 
Q 1038 2656 1286 2365 
Q 1534 2075 1959 2075 
z
" transform="scale(0.015625)"/>
     </defs>
     <use xlink:href="#DejaVuSans-62"/>
     <use xlink:href="#DejaVuSans-65" x="63.476562"/>
     <use xlink:href="#DejaVuSans-73" x="125"/>
     <use xlink:href="#DejaVuSans-74" x="177.099609"/>
     <use xlink:href="#DejaVuSans-20" x="216.308594"/>
     <use xlink:href="#DejaVuSans-32" x="248.095703"/>
     <use xlink:href="#DejaVuSans-30" x="311.71875"/>
     <use xlink:href="#DejaVuSans-30" x="375.341797"/>
     <use xlink:href="#DejaVuSans-39" x="438.964844"/>
    </g>
   </g>
   <g id="text_16">
    <!-- bbob f6-f9, 3-D -->
    <g transform="translate(60.632064 17.582726)scale(0.102 -0.102)">
     <defs>
      <path id="DejaVuSans-33" d="M 2597 2516 
Q 3050 2419 3304 2112 
Q 3559 1806 3559 1356 
Q 3559 666 3084 287 
Q 2609 -91 1734 -91 
Q 1441 -91 1130 -33 
Q 819 25 488 141 
L 488 750 
Q 750 597 1062 519 
Q 1375 441 1716 441 
Q 2309 441 2620 675 
Q 2931 909 2931 1356 
Q 2931 1769 2642 2001 
Q 2353 2234 1838 2234 
L 1294 2234 
L 1294 2753 
L 1863 2753 
Q 2328 2753 2575 2939 
Q 2822 3125 2822 3475 
Q 2822 3834 2567 4026 
Q 2313 4219 1838 4219 
Q 1578 4219 1281 4162 
Q 984 4106 628 3988 
L 628 4550 
Q 988 4650 1302 4700 
Q 1616 4750 1894 4750 
Q 2613 4750 3031 4423 
Q 3450 4097 3450 3541 
Q 3450 3153 3228 2886 
Q 3006 2619 2597 2516 
z
" transform="scale(0.015625)"/>
      <path id="DejaVuSans-44" d="M 1259 4147 
L 1259 519 
L 2022 519 
Q 2988 519 3436 956 
Q 3884 1394 3884 2338 
Q 3884 3275 3436 3711 
Q 2988 4147 2022 4147 
L 1259 4147 
z
M 628 4666 
L 1925 4666 
Q 3281 4666 3915 4102 
Q 4550 3538 4550 2338 
Q 4550 1131 3912 565 
Q 3275 0 1925 0 
L 628 0 
L 628 4666 
z
" transform="scale(0.015625)"/>
     </defs>
     <use xlink:href="#DejaVuSans-62"/>
     <use xlink:href="#DejaVuSans-62" x="63.476562"/>
     <use xlink:href="#DejaVuSans-6f" x="126.953125"/>
     <use xlink:href="#DejaVuSans-62" x="188.134766"/>
     <use xlink:href="#DejaVuSans-20" x="251.611328"/>
     <use xlink:href="#DejaVuSans-66" x="283.398438"/>
     <use xlink:href="#DejaVuSans-36" x="318.603516"/>
     <use xlink:href="#DejaVuSans-2d" x="382.226562"/>
     <use xlink:href="#DejaVuSans-66" x="418.310547"/>
     <use xlink:href="#DejaVuSans-39" x="453.515625"/>
     <use xlink:href="#DejaVuSans-2c" x="517.138672"/>
     <use xlink:href="#DejaVuSans-20" x="548.925781"/>
     <use xlink:href="#DejaVuSans-33" x="580.712891"/>
     <use xlink:href="#DejaVuSans-2d" x="644.335938"/>
     <use xlink:href="#DejaVuSans-44" x="680.419922"/>
    </g>
    <!-- 51 targets: 100..1e-08 -->
    <g transform="translate(60.632064 29.004495)scale(0.102 -0.102)">
     <defs>
      <path id="DejaVuSans-35" d="M 691 4666 
L 3169 4666 
L 3169 4134 
L 1269 4134 
L 1269 2991 
Q 1406 3038 1543 3061 
Q 1681 3084 1819 3084 
Q 2600 3084 3056 2656 
Q 3513 2228 3513 1497 
Q 3513 744 3044 326 
Q 2575 -91 1722 -91 
Q 1428 -91 1123 -41 
Q 819 9 494 109 
L 494 744 
Q 775 591 1075 516 
Q 1375 441 1709 441 
Q 2250 441 2565 725 
Q 2881 1009 2881 1497 
Q 2881 1984 2565 2268 
Q 2250 2553 1709 2553 
Q 1456 2553 1204 2497 
Q 953 2441 691 2322 
L 691 4666 
z
" transform="scale(0.015625)"/>
      <path id="DejaVuSans-3a" d="M 750 794 
L 1409 794 
L 1409 0 
L 750 0 
L 750 794 
z
M 750 3309 
L 1409 3309 
L 1409 2516 
L 750 2516 
L 750 3309 
z
" transform="scale(0.015625)"/>
     </defs>
     <use xlink:href="#DejaVuSans-35"/>
     <use xlink:href="#DejaVuSans-31" x="63.623047"/>
     <use xlink:href="#DejaVuSans-20" x="127.246094"/>
     <use xlink:href="#DejaVuSans-74" x="159.033203"/>
     <use xlink:href="#DejaVuSans-61" x="198.242188"/>
     <use xlink:href="#DejaVuSans-72" x="259.521484"/>
     <use xlink:href="#DejaVuSans-67" x="298.884766"/>
     <use xlink:href="#DejaVuSans-65" x="362.361328"/>
     <use xlink:href="#DejaVuSans-74" x="423.884766"/>
     <use xlink:href="#DejaVuSans-73" x="463.09375"/>
     <use xlink:href="#DejaVuSans-3a" x="515.193359"/>
     <use xlink:href="#DejaVuSans-20" x="548.884766"/>
     <use xlink:href="#DejaVuSans-31" x="580.671875"/>
     <use xlink:href="#DejaVuSans-30" x="644.294922"/>
     <use xlink:href="#DejaVuSans-30" x="707.917969"/>
     <use xlink:href="#DejaVuSans-2e" x="771.541016"/>
     <use xlink:href="#DejaVuSans-2e" x="803.328125"/>
     <use xlink:href="#DejaVuSans-31" x="835.115234"/>
     <use xlink:href="#DejaVuSans-65" x="898.738281"/>
     <use xlink:href="#DejaVuSans-2d" x="960.261719"/>
     <use xlink:href="#DejaVuSans-30" x="996.345703"/>
     <use xlink:href="#DejaVuSans-38" x="1059.96875"/>
    </g>
    <!-- 25, 15 instances -->
    <g transform="translate(60.632064 40.426264)scale(0.102 -0.102)">
     <use xlink:href="#DejaVuSans-32"/>
     <use xlink:href="#DejaVuSans-35" x="63.623047"/>
     <use xlink:href="#DejaVuSans-2c" x="127.246094"/>
     <use xlink:href="#DejaVuSans-20" x="159.033203"/>
     <use xlink:href="#DejaVuSans-31" x="190.820312"/>
     <use xlink:href="#DejaVuSans-35" x="254.443359"/>
     <use xlink:href="#DejaVuSans-20" x="318.066406"/>
     <use xlink:href="#DejaVuSans-69" x="349.853516"/>
     <use xlink:href="#DejaVuSans-6e" x="377.636719"/>
     <use xlink:href="#DejaVuSans-73" x="441.015625"/>
     <use xlink:href="#DejaVuSans-74" x="493.115234"/>
     <use xlink:href="#DejaVuSans-61" x="532.324219"/>
     <use xlink:href="#DejaVuSans-6e" x="593.603516"/>
     <use xlink:href="#DejaVuSans-63" x="656.982422"/>
     <use xlink:href="#DejaVuSans-65" x="711.962891"/>
     <use xlink:href="#DejaVuSans-73" x="773.486328"/>
    </g>
   </g>
   <g id="text_17">
    <!-- v2.6 -->
    <g style="fill: #808080" transform="translate(198.292262 293.943992)scale(0.1 -0.1)">
     <use xlink:href="#DejaVuSans-76"/>
     <use xlink:href="#DejaVuSans-32" x="59.179688"/>
     <use xlink:href="#DejaVuSans-2e" x="122.802734"/>
     <use xlink:href="#DejaVuSans-36" x="154.589844"/>
    </g>
   </g>
  </g>
 </g>
 <defs>
  <clipPath id="p1ad25ac3f2">
   <rect x="57.6" y="6.912" width="303.2064" height="292.032"/>
  </clipPath>
 </defs>
</svg>
