<?xml version="1.0" encoding="utf-8" standalone="no"?>
<!DOCTYPE svg PUBLIC "-//W3C//DTD SVG 1.1//EN"
  "http://www.w3.org/Graphics/SVG/1.1/DTD/svg11.dtd">
<svg xmlns:xlink="http://www.w3.org/1999/xlink" width="460.8pt" height="345.6pt" viewBox="0 0 460.8 345.6" xmlns="http://www.w3.org/2000/svg" version="1.1">
 <metadata>
  <rdf:RDF xmlns:dc="http://purl.org/dc/elements/1.1/" xmlns:cc="http://creativecommons.org/ns#" xmlns:rdf="http://www.w3.org/1999/02/22-rdf-syntax-ns#">
   <cc:Work>
    <dc:type rdf:resource="http://purl.org/dc/dcmitype/StillImage"/>
    <dc:date>2022-03-17T01:34:52.158370</dc:date>
    <dc:format>image/svg+xml</dc:format>
    <dc:creator>
     <cc:Agent>
      <dc:title>Matplotlib v3.5.1, https://matplotlib.org/</dc:title>
     </cc:Agent>
    </dc:creator>
   </cc:Work>
  </rdf:RDF>
 </metadata>
 <defs>
  <style type="text/css">*{stroke-linejoin: round; stroke-linecap: butt}</style>
 </defs>
 <g id="figure_1">
  <g id="patch_1">
   <path d="M 0 345.6 
L 460.8 345.6 
L 460.8 0 
L 0 0 
z
" style="fill: #ffffff"/>
  </g>
  <g id="axes_1">
   <g id="patch_2">
    <path d="M 57.6 298.944 
L 360.8064 298.944 
L 360.8064 27.648 
L 57.6 27.648 
z
" style="fill: #ffffff"/>
   </g>
   <g id="line2d_1">
    <path d="M 117.423276 298.944 
L 117.423276 293.624471 
L 117.810359 293.624471 
L 117.810359 288.304941 
L 118.598196 288.304941 
L 118.598196 282.985412 
L 123.85314 282.985412 
L 123.85314 277.665882 
L 128.549855 277.665882 
L 128.549855 272.346353 
L 131.228811 272.346353 
L 131.228811 267.026824 
L 134.479359 267.026824 
L 134.479359 261.707294 
L 138.10291 261.707294 
L 138.10291 256.387765 
L 138.906237 256.387765 
L 138.906237 251.068235 
L 140.301214 251.068235 
L 140.301214 245.748706 
L 146.261241 245.748706 
L 146.261241 240.429176 
L 150.296105 240.429176 
L 150.296105 235.109647 
L 153.159871 235.109647 
L 153.159871 229.790118 
L 155.843627 229.790118 
L 155.843627 224.470588 
L 160.75802 224.470588 
L 160.75802 219.151059 
L 165.749015 219.151059 
L 165.749015 213.831529 
L 169.06958 213.831529 
L 169.06958 208.512 
L 169.875843 208.512 
L 169.875843 203.192471 
L 170.351027 203.192471 
L 170.351027 197.872941 
L 171.021664 197.872941 
L 171.021664 192.553412 
L 171.638564 192.553412 
L 171.638564 187.233882 
L 172.167833 187.233882 
L 172.167833 181.914353 
L 172.653577 181.914353 
L 172.653577 176.594824 
L 173.084536 176.594824 
L 173.084536 171.275294 
L 173.616615 171.275294 
L 173.616615 165.955765 
L 174.053297 165.955765 
L 174.053297 160.636235 
L 174.579648 160.636235 
L 174.579648 155.316706 
L 175.033228 155.316706 
L 175.033228 149.997176 
L 175.570583 149.997176 
L 175.570583 144.677647 
L 175.997677 144.677647 
L 175.997677 139.358118 
L 176.439069 139.358118 
L 176.439069 134.038588 
L 176.795538 134.038588 
L 176.795538 128.719059 
L 177.259475 128.719059 
L 177.259475 123.399529 
L 177.600869 123.399529 
L 177.600869 118.08 
L 178.110937 118.08 
L 178.110937 112.760471 
L 178.377728 112.760471 
L 178.377728 107.440941 
L 178.786691 107.440941 
L 178.786691 102.121412 
L 179.204546 102.121412 
L 179.204546 96.801882 
L 179.583183 96.801882 
L 179.583183 91.482353 
L 179.861181 91.482353 
L 179.861181 86.162824 
L 180.257464 86.162824 
L 180.257464 80.843294 
L 180.614326 80.843294 
L 180.614326 75.523765 
L 180.967213 75.523765 
L 180.967213 70.204235 
L 181.293941 70.204235 
L 181.293941 64.884706 
L 181.609934 64.884706 
L 181.609934 59.565176 
L 181.920707 59.565176 
L 181.920707 54.245647 
L 182.271302 54.245647 
L 182.271302 48.926118 
L 182.643576 48.926118 
L 182.643576 43.606588 
L 182.783421 43.606588 
L 182.783421 38.287059 
L 182.845108 38.287059 
L 182.845108 32.967529 
L 182.951076 32.967529 
L 182.951076 27.648 
L 360.8064 27.648 
" style="fill: none; stroke: #f5deb3; stroke-width: 4; stroke-linecap: square"/>
   </g>
   <g id="line2d_2">
    <defs>
     <path id="mb151225a17" d="M -0 7.778175 
L 7.778175 0 
L 0 -7.778175 
L -7.778175 -0 
z
" style="stroke: #f5deb3; stroke-width: 1.5; stroke-linejoin: miter"/>
    </defs>
    <g>
     <use xlink:href="#mb151225a17" x="171.638564" y="187.233882" style="fill: #f5deb3; stroke: #f5deb3; stroke-width: 1.5; stroke-linejoin: miter"/>
     <use xlink:href="#mb151225a17" x="181.293941" y="70.204235" style="fill: #f5deb3; stroke: #f5deb3; stroke-width: 1.5; stroke-linejoin: miter"/>
     <use xlink:href="#mb151225a17" x="182.951076" y="27.648" style="fill: #f5deb3; stroke: #f5deb3; stroke-width: 1.5; stroke-linejoin: miter"/>
     <use xlink:href="#mb151225a17" x="182.951076" y="27.648" style="fill: #f5deb3; stroke: #f5deb3; stroke-width: 1.5; stroke-linejoin: miter"/>
     <use xlink:href="#mb151225a17" x="360.8064" y="27.648" style="fill: #f5deb3; stroke: #f5deb3; stroke-width: 1.5; stroke-linejoin: miter"/>
    </g>
   </g>
   <g id="line2d_3">
    <path style="fill: none; stroke: #f5deb3; stroke-width: 4; stroke-linecap: square"/>
    <g/>
   </g>
   <g id="line2d_4">
    <path d="M 360.8064 27.648 
L 380.514816 228.40704 
" style="fill: none; stroke: #f5deb3; stroke-width: 4; stroke-linecap: square"/>
    <g>
     <use xlink:href="#mb151225a17" x="360.8064" y="27.648" style="fill: #f5deb3; stroke: #f5deb3; stroke-width: 1.5; stroke-linejoin: miter"/>
     <use xlink:href="#mb151225a17" x="380.514816" y="228.40704" style="fill: #f5deb3; stroke: #f5deb3; stroke-width: 1.5; stroke-linejoin: miter"/>
    </g>
   </g>
   <g id="matplotlib.axis_1">
    <g id="xtick_1">
     <g id="line2d_5">
      <path d="M 57.6 298.944 
L 57.6 27.648 
" clip-path="url(#pa845ae35a9)" style="fill: none; stroke: #b0b0b0; stroke-width: 0.8; stroke-linecap: square"/>
     </g>
     <g id="line2d_6">
      <defs>
       <path id="m8f8405173a" d="M 0 0 
L 0 3.5 
" style="stroke: #000000; stroke-width: 0.8"/>
      </defs>
      <g>
       <use xlink:href="#m8f8405173a" x="57.6" y="298.944" style="stroke: #000000; stroke-width: 0.8"/>
      </g>
     </g>
     <g id="text_1">
      <!-- 0 -->
      <g transform="translate(52.191875 318.861344)scale(0.17 -0.17)">
       <defs>
        <path id="DejaVuSans-30" d="M 2034 4250 
Q 1547 4250 1301 3770 
Q 1056 3291 1056 2328 
Q 1056 1369 1301 889 
Q 1547 409 2034 409 
Q 2525 409 2770 889 
Q 3016 1369 3016 2328 
Q 3016 3291 2770 3770 
Q 2525 4250 2034 4250 
z
M 2034 4750 
Q 2819 4750 3233 4129 
Q 3647 3509 3647 2328 
Q 3647 1150 3233 529 
Q 2819 -91 2034 -91 
Q 1250 -91 836 529 
Q 422 1150 422 2328 
Q 422 3509 836 4129 
Q 1250 4750 2034 4750 
z
" transform="scale(0.015625)"/>
       </defs>
       <use xlink:href="#DejaVuSans-30"/>
      </g>
     </g>
    </g>
    <g id="xtick_2">
     <g id="line2d_7">
      <path d="M 144.2304 298.944 
L 144.2304 27.648 
" clip-path="url(#pa845ae35a9)" style="fill: none; stroke: #b0b0b0; stroke-width: 0.8; stroke-linecap: square"/>
     </g>
     <g id="line2d_8">
      <g>
       <use xlink:href="#m8f8405173a" x="144.2304" y="298.944" style="stroke: #000000; stroke-width: 0.8"/>
      </g>
     </g>
     <g id="text_2">
      <!-- 2 -->
      <g transform="translate(138.822275 318.861344)scale(0.17 -0.17)">
       <defs>
        <path id="DejaVuSans-32" d="M 1228 531 
L 3431 531 
L 3431 0 
L 469 0 
L 469 531 
Q 828 903 1448 1529 
Q 2069 2156 2228 2338 
Q 2531 2678 2651 2914 
Q 2772 3150 2772 3378 
Q 2772 3750 2511 3984 
Q 2250 4219 1831 4219 
Q 1534 4219 1204 4116 
Q 875 4013 500 3803 
L 500 4441 
Q 881 4594 1212 4672 
Q 1544 4750 1819 4750 
Q 2544 4750 2975 4387 
Q 3406 4025 3406 3419 
Q 3406 3131 3298 2873 
Q 3191 2616 2906 2266 
Q 2828 2175 2409 1742 
Q 1991 1309 1228 531 
z
" transform="scale(0.015625)"/>
       </defs>
       <use xlink:href="#DejaVuSans-32"/>
      </g>
     </g>
    </g>
    <g id="xtick_3">
     <g id="line2d_9">
      <path d="M 230.8608 298.944 
L 230.8608 27.648 
" clip-path="url(#pa845ae35a9)" style="fill: none; stroke: #b0b0b0; stroke-width: 0.8; stroke-linecap: square"/>
     </g>
     <g id="line2d_10">
      <g>
       <use xlink:href="#m8f8405173a" x="230.8608" y="298.944" style="stroke: #000000; stroke-width: 0.8"/>
      </g>
     </g>
     <g id="text_3">
      <!-- 4 -->
      <g transform="translate(225.452675 318.861344)scale(0.17 -0.17)">
       <defs>
        <path id="DejaVuSans-34" d="M 2419 4116 
L 825 1625 
L 2419 1625 
L 2419 4116 
z
M 2253 4666 
L 3047 4666 
L 3047 1625 
L 3713 1625 
L 3713 1100 
L 3047 1100 
L 3047 0 
L 2419 0 
L 2419 1100 
L 313 1100 
L 313 1709 
L 2253 4666 
z
" transform="scale(0.015625)"/>
       </defs>
       <use xlink:href="#DejaVuSans-34"/>
      </g>
     </g>
    </g>
    <g id="xtick_4">
     <g id="line2d_11">
      <path d="M 317.4912 298.944 
L 317.4912 27.648 
" clip-path="url(#pa845ae35a9)" style="fill: none; stroke: #b0b0b0; stroke-width: 0.8; stroke-linecap: square"/>
     </g>
     <g id="line2d_12">
      <g>
       <use xlink:href="#m8f8405173a" x="317.4912" y="298.944" style="stroke: #000000; stroke-width: 0.8"/>
      </g>
     </g>
     <g id="text_4">
      <!-- 6 -->
      <g transform="translate(312.083075 318.861344)scale(0.17 -0.17)">
       <defs>
        <path id="DejaVuSans-36" d="M 2113 2584 
Q 1688 2584 1439 2293 
Q 1191 2003 1191 1497 
Q 1191 994 1439 701 
Q 1688 409 2113 409 
Q 2538 409 2786 701 
Q 3034 994 3034 1497 
Q 3034 2003 2786 2293 
Q 2538 2584 2113 2584 
z
M 3366 4563 
L 3366 3988 
Q 3128 4100 2886 4159 
Q 2644 4219 2406 4219 
Q 1781 4219 1451 3797 
Q 1122 3375 1075 2522 
Q 1259 2794 1537 2939 
Q 1816 3084 2150 3084 
Q 2853 3084 3261 2657 
Q 3669 2231 3669 1497 
Q 3669 778 3244 343 
Q 2819 -91 2113 -91 
Q 1303 -91 875 529 
Q 447 1150 447 2328 
Q 447 3434 972 4092 
Q 1497 4750 2381 4750 
Q 2619 4750 2861 4703 
Q 3103 4656 3366 4563 
z
" transform="scale(0.015625)"/>
       </defs>
       <use xlink:href="#DejaVuSans-36"/>
      </g>
     </g>
    </g>
    <g id="xtick_5">
     <g id="line2d_13">
      <path d="M 100.9152 298.944 
L 100.9152 27.648 
" clip-path="url(#pa845ae35a9)" style="fill: none; stroke: #b0b0b0; stroke-width: 0.8; stroke-linecap: square"/>
     </g>
     <g id="line2d_14">
      <defs>
       <path id="mc742b617d1" d="M 0 0 
L 0 2 
" style="stroke: #000000; stroke-width: 0.6"/>
      </defs>
      <g>
       <use xlink:href="#mc742b617d1" x="100.9152" y="298.944" style="stroke: #000000; stroke-width: 0.6"/>
      </g>
     </g>
    </g>
    <g id="xtick_6">
     <g id="line2d_15">
      <path d="M 187.5456 298.944 
L 187.5456 27.648 
" clip-path="url(#pa845ae35a9)" style="fill: none; stroke: #b0b0b0; stroke-width: 0.8; stroke-linecap: square"/>
     </g>
     <g id="line2d_16">
      <g>
       <use xlink:href="#mc742b617d1" x="187.5456" y="298.944" style="stroke: #000000; stroke-width: 0.6"/>
      </g>
     </g>
    </g>
    <g id="xtick_7">
     <g id="line2d_17">
      <path d="M 274.176 298.944 
L 274.176 27.648 
" clip-path="url(#pa845ae35a9)" style="fill: none; stroke: #b0b0b0; stroke-width: 0.8; stroke-linecap: square"/>
     </g>
     <g id="line2d_18">
      <g>
       <use xlink:href="#mc742b617d1" x="274.176" y="298.944" style="stroke: #000000; stroke-width: 0.6"/>
      </g>
     </g>
    </g>
    <g id="xtick_8">
     <g id="line2d_19">
      <path d="M 360.8064 298.944 
L 360.8064 27.648 
" clip-path="url(#pa845ae35a9)" style="fill: none; stroke: #b0b0b0; stroke-width: 0.8; stroke-linecap: square"/>
     </g>
     <g id="line2d_20">
      <g>
       <use xlink:href="#mc742b617d1" x="360.8064" y="298.944" style="stroke: #000000; stroke-width: 0.6"/>
      </g>
     </g>
    </g>
    <g id="text_5">
     <!-- log10(# f-evals / dimension) -->
     <g transform="translate(88.823278 339.314156)scale(0.17 -0.17)">
      <defs>
       <path id="DejaVuSans-6c" d="M 603 4863 
L 1178 4863 
L 1178 0 
L 603 0 
L 603 4863 
z
" transform="scale(0.015625)"/>
       <path id="DejaVuSans-6f" d="M 1959 3097 
Q 1497 3097 1228 2736 
Q 959 2375 959 1747 
Q 959 1119 1226 758 
Q 1494 397 1959 397 
Q 2419 397 2687 759 
Q 2956 1122 2956 1747 
Q 2956 2369 2687 2733 
Q 2419 3097 1959 3097 
z
M 1959 3584 
Q 2709 3584 3137 3096 
Q 3566 2609 3566 1747 
Q 3566 888 3137 398 
Q 2709 -91 1959 -91 
Q 1206 -91 779 398 
Q 353 888 353 1747 
Q 353 2609 779 3096 
Q 1206 3584 1959 3584 
z
" transform="scale(0.015625)"/>
       <path id="DejaVuSans-67" d="M 2906 1791 
Q 2906 2416 2648 2759 
Q 2391 3103 1925 3103 
Q 1463 3103 1205 2759 
Q 947 2416 947 1791 
Q 947 1169 1205 825 
Q 1463 481 1925 481 
Q 2391 481 2648 825 
Q 2906 1169 2906 1791 
z
M 3481 434 
Q 3481 -459 3084 -895 
Q 2688 -1331 1869 -1331 
Q 1566 -1331 1297 -1286 
Q 1028 -1241 775 -1147 
L 775 -588 
Q 1028 -725 1275 -790 
Q 1522 -856 1778 -856 
Q 2344 -856 2625 -561 
Q 2906 -266 2906 331 
L 2906 616 
Q 2728 306 2450 153 
Q 2172 0 1784 0 
Q 1141 0 747 490 
Q 353 981 353 1791 
Q 353 2603 747 3093 
Q 1141 3584 1784 3584 
Q 2172 3584 2450 3431 
Q 2728 3278 2906 2969 
L 2906 3500 
L 3481 3500 
L 3481 434 
z
" transform="scale(0.015625)"/>
       <path id="DejaVuSans-31" d="M 794 531 
L 1825 531 
L 1825 4091 
L 703 3866 
L 703 4441 
L 1819 4666 
L 2450 4666 
L 2450 531 
L 3481 531 
L 3481 0 
L 794 0 
L 794 531 
z
" transform="scale(0.015625)"/>
       <path id="DejaVuSans-28" d="M 1984 4856 
Q 1566 4138 1362 3434 
Q 1159 2731 1159 2009 
Q 1159 1288 1364 580 
Q 1569 -128 1984 -844 
L 1484 -844 
Q 1016 -109 783 600 
Q 550 1309 550 2009 
Q 550 2706 781 3412 
Q 1013 4119 1484 4856 
L 1984 4856 
z
" transform="scale(0.015625)"/>
       <path id="DejaVuSans-23" d="M 3272 2816 
L 2363 2816 
L 2100 1772 
L 3016 1772 
L 3272 2816 
z
M 2803 4594 
L 2478 3297 
L 3391 3297 
L 3719 4594 
L 4219 4594 
L 3897 3297 
L 4872 3297 
L 4872 2816 
L 3775 2816 
L 3519 1772 
L 4513 1772 
L 4513 1294 
L 3397 1294 
L 3072 0 
L 2572 0 
L 2894 1294 
L 1978 1294 
L 1656 0 
L 1153 0 
L 1478 1294 
L 494 1294 
L 494 1772 
L 1594 1772 
L 1856 2816 
L 850 2816 
L 850 3297 
L 1978 3297 
L 2297 4594 
L 2803 4594 
z
" transform="scale(0.015625)"/>
       <path id="DejaVuSans-20" transform="scale(0.015625)"/>
       <path id="DejaVuSans-66" d="M 2375 4863 
L 2375 4384 
L 1825 4384 
Q 1516 4384 1395 4259 
Q 1275 4134 1275 3809 
L 1275 3500 
L 2222 3500 
L 2222 3053 
L 1275 3053 
L 1275 0 
L 697 0 
L 697 3053 
L 147 3053 
L 147 3500 
L 697 3500 
L 697 3744 
Q 697 4328 969 4595 
Q 1241 4863 1831 4863 
L 2375 4863 
z
" transform="scale(0.015625)"/>
       <path id="DejaVuSans-2d" d="M 313 2009 
L 1997 2009 
L 1997 1497 
L 313 1497 
L 313 2009 
z
" transform="scale(0.015625)"/>
       <path id="DejaVuSans-65" d="M 3597 1894 
L 3597 1613 
L 953 1613 
Q 991 1019 1311 708 
Q 1631 397 2203 397 
Q 2534 397 2845 478 
Q 3156 559 3463 722 
L 3463 178 
Q 3153 47 2828 -22 
Q 2503 -91 2169 -91 
Q 1331 -91 842 396 
Q 353 884 353 1716 
Q 353 2575 817 3079 
Q 1281 3584 2069 3584 
Q 2775 3584 3186 3129 
Q 3597 2675 3597 1894 
z
M 3022 2063 
Q 3016 2534 2758 2815 
Q 2500 3097 2075 3097 
Q 1594 3097 1305 2825 
Q 1016 2553 972 2059 
L 3022 2063 
z
" transform="scale(0.015625)"/>
       <path id="DejaVuSans-76" d="M 191 3500 
L 800 3500 
L 1894 563 
L 2988 3500 
L 3597 3500 
L 2284 0 
L 1503 0 
L 191 3500 
z
" transform="scale(0.015625)"/>
       <path id="DejaVuSans-61" d="M 2194 1759 
Q 1497 1759 1228 1600 
Q 959 1441 959 1056 
Q 959 750 1161 570 
Q 1363 391 1709 391 
Q 2188 391 2477 730 
Q 2766 1069 2766 1631 
L 2766 1759 
L 2194 1759 
z
M 3341 1997 
L 3341 0 
L 2766 0 
L 2766 531 
Q 2569 213 2275 61 
Q 1981 -91 1556 -91 
Q 1019 -91 701 211 
Q 384 513 384 1019 
Q 384 1609 779 1909 
Q 1175 2209 1959 2209 
L 2766 2209 
L 2766 2266 
Q 2766 2663 2505 2880 
Q 2244 3097 1772 3097 
Q 1472 3097 1187 3025 
Q 903 2953 641 2809 
L 641 3341 
Q 956 3463 1253 3523 
Q 1550 3584 1831 3584 
Q 2591 3584 2966 3190 
Q 3341 2797 3341 1997 
z
" transform="scale(0.015625)"/>
       <path id="DejaVuSans-73" d="M 2834 3397 
L 2834 2853 
Q 2591 2978 2328 3040 
Q 2066 3103 1784 3103 
Q 1356 3103 1142 2972 
Q 928 2841 928 2578 
Q 928 2378 1081 2264 
Q 1234 2150 1697 2047 
L 1894 2003 
Q 2506 1872 2764 1633 
Q 3022 1394 3022 966 
Q 3022 478 2636 193 
Q 2250 -91 1575 -91 
Q 1294 -91 989 -36 
Q 684 19 347 128 
L 347 722 
Q 666 556 975 473 
Q 1284 391 1588 391 
Q 1994 391 2212 530 
Q 2431 669 2431 922 
Q 2431 1156 2273 1281 
Q 2116 1406 1581 1522 
L 1381 1569 
Q 847 1681 609 1914 
Q 372 2147 372 2553 
Q 372 3047 722 3315 
Q 1072 3584 1716 3584 
Q 2034 3584 2315 3537 
Q 2597 3491 2834 3397 
z
" transform="scale(0.015625)"/>
       <path id="DejaVuSans-2f" d="M 1625 4666 
L 2156 4666 
L 531 -594 
L 0 -594 
L 1625 4666 
z
" transform="scale(0.015625)"/>
       <path id="DejaVuSans-64" d="M 2906 2969 
L 2906 4863 
L 3481 4863 
L 3481 0 
L 2906 0 
L 2906 525 
Q 2725 213 2448 61 
Q 2172 -91 1784 -91 
Q 1150 -91 751 415 
Q 353 922 353 1747 
Q 353 2572 751 3078 
Q 1150 3584 1784 3584 
Q 2172 3584 2448 3432 
Q 2725 3281 2906 2969 
z
M 947 1747 
Q 947 1113 1208 752 
Q 1469 391 1925 391 
Q 2381 391 2643 752 
Q 2906 1113 2906 1747 
Q 2906 2381 2643 2742 
Q 2381 3103 1925 3103 
Q 1469 3103 1208 2742 
Q 947 2381 947 1747 
z
" transform="scale(0.015625)"/>
       <path id="DejaVuSans-69" d="M 603 3500 
L 1178 3500 
L 1178 0 
L 603 0 
L 603 3500 
z
M 603 4863 
L 1178 4863 
L 1178 4134 
L 603 4134 
L 603 4863 
z
" transform="scale(0.015625)"/>
       <path id="DejaVuSans-6d" d="M 3328 2828 
Q 3544 3216 3844 3400 
Q 4144 3584 4550 3584 
Q 5097 3584 5394 3201 
Q 5691 2819 5691 2113 
L 5691 0 
L 5113 0 
L 5113 2094 
Q 5113 2597 4934 2840 
Q 4756 3084 4391 3084 
Q 3944 3084 3684 2787 
Q 3425 2491 3425 1978 
L 3425 0 
L 2847 0 
L 2847 2094 
Q 2847 2600 2669 2842 
Q 2491 3084 2119 3084 
Q 1678 3084 1418 2786 
Q 1159 2488 1159 1978 
L 1159 0 
L 581 0 
L 581 3500 
L 1159 3500 
L 1159 2956 
Q 1356 3278 1631 3431 
Q 1906 3584 2284 3584 
Q 2666 3584 2933 3390 
Q 3200 3197 3328 2828 
z
" transform="scale(0.015625)"/>
       <path id="DejaVuSans-6e" d="M 3513 2113 
L 3513 0 
L 2938 0 
L 2938 2094 
Q 2938 2591 2744 2837 
Q 2550 3084 2163 3084 
Q 1697 3084 1428 2787 
Q 1159 2491 1159 1978 
L 1159 0 
L 581 0 
L 581 3500 
L 1159 3500 
L 1159 2956 
Q 1366 3272 1645 3428 
Q 1925 3584 2291 3584 
Q 2894 3584 3203 3211 
Q 3513 2838 3513 2113 
z
" transform="scale(0.015625)"/>
       <path id="DejaVuSans-29" d="M 513 4856 
L 1013 4856 
Q 1481 4119 1714 3412 
Q 1947 2706 1947 2009 
Q 1947 1309 1714 600 
Q 1481 -109 1013 -844 
L 513 -844 
Q 928 -128 1133 580 
Q 1338 1288 1338 2009 
Q 1338 2731 1133 3434 
Q 928 4138 513 4856 
z
" transform="scale(0.015625)"/>
      </defs>
      <use xlink:href="#DejaVuSans-6c"/>
      <use xlink:href="#DejaVuSans-6f" x="27.783203"/>
      <use xlink:href="#DejaVuSans-67" x="88.964844"/>
      <use xlink:href="#DejaVuSans-31" x="152.441406"/>
      <use xlink:href="#DejaVuSans-30" x="216.064453"/>
      <use xlink:href="#DejaVuSans-28" x="279.6875"/>
      <use xlink:href="#DejaVuSans-23" x="318.701172"/>
      <use xlink:href="#DejaVuSans-20" x="402.490234"/>
      <use xlink:href="#DejaVuSans-66" x="434.277344"/>
      <use xlink:href="#DejaVuSans-2d" x="463.982422"/>
      <use xlink:href="#DejaVuSans-65" x="500.066406"/>
      <use xlink:href="#DejaVuSans-76" x="561.589844"/>
      <use xlink:href="#DejaVuSans-61" x="620.769531"/>
      <use xlink:href="#DejaVuSans-6c" x="682.048828"/>
      <use xlink:href="#DejaVuSans-73" x="709.832031"/>
      <use xlink:href="#DejaVuSans-20" x="761.931641"/>
      <use xlink:href="#DejaVuSans-2f" x="793.71875"/>
      <use xlink:href="#DejaVuSans-20" x="827.410156"/>
      <use xlink:href="#DejaVuSans-64" x="859.197266"/>
      <use xlink:href="#DejaVuSans-69" x="922.673828"/>
      <use xlink:href="#DejaVuSans-6d" x="950.457031"/>
      <use xlink:href="#DejaVuSans-65" x="1047.869141"/>
      <use xlink:href="#DejaVuSans-6e" x="1109.392578"/>
      <use xlink:href="#DejaVuSans-73" x="1172.771484"/>
      <use xlink:href="#DejaVuSans-69" x="1224.871094"/>
      <use xlink:href="#DejaVuSans-6f" x="1252.654297"/>
      <use xlink:href="#DejaVuSans-6e" x="1313.835938"/>
      <use xlink:href="#DejaVuSans-29" x="1377.214844"/>
     </g>
    </g>
   </g>
   <g id="matplotlib.axis_2">
    <g id="ytick_1">
     <g id="line2d_21">
      <path d="M 57.6 298.944 
L 360.8064 298.944 
" clip-path="url(#pa845ae35a9)" style="fill: none; stroke: #b0b0b0; stroke-width: 0.8; stroke-linecap: square"/>
     </g>
     <g id="line2d_22">
      <defs>
       <path id="md4263a517f" d="M 0 0 
L -3.5 0 
" style="stroke: #000000; stroke-width: 0.8"/>
      </defs>
      <g>
       <use xlink:href="#md4263a517f" x="57.6" y="298.944" style="stroke: #000000; stroke-width: 0.8"/>
      </g>
     </g>
     <g id="text_6">
      <!-- 0.0 -->
      <g transform="translate(25.155 305.02275)scale(0.16 -0.16)">
       <defs>
        <path id="DejaVuSans-2e" d="M 684 794 
L 1344 794 
L 1344 0 
L 684 0 
L 684 794 
z
" transform="scale(0.015625)"/>
       </defs>
       <use xlink:href="#DejaVuSans-30"/>
       <use xlink:href="#DejaVuSans-2e" x="63.623047"/>
       <use xlink:href="#DejaVuSans-30" x="95.410156"/>
      </g>
     </g>
    </g>
    <g id="ytick_2">
     <g id="line2d_23">
      <path d="M 57.6 244.6848 
L 360.8064 244.6848 
" clip-path="url(#pa845ae35a9)" style="fill: none; stroke: #b0b0b0; stroke-width: 0.8; stroke-linecap: square"/>
     </g>
     <g id="line2d_24">
      <g>
       <use xlink:href="#md4263a517f" x="57.6" y="244.6848" style="stroke: #000000; stroke-width: 0.8"/>
      </g>
     </g>
     <g id="text_7">
      <!-- 0.2 -->
      <g transform="translate(25.155 250.76355)scale(0.16 -0.16)">
       <use xlink:href="#DejaVuSans-30"/>
       <use xlink:href="#DejaVuSans-2e" x="63.623047"/>
       <use xlink:href="#DejaVuSans-32" x="95.410156"/>
      </g>
     </g>
    </g>
    <g id="ytick_3">
     <g id="line2d_25">
      <path d="M 57.6 190.4256 
L 360.8064 190.4256 
" clip-path="url(#pa845ae35a9)" style="fill: none; stroke: #b0b0b0; stroke-width: 0.8; stroke-linecap: square"/>
     </g>
     <g id="line2d_26">
      <g>
       <use xlink:href="#md4263a517f" x="57.6" y="190.4256" style="stroke: #000000; stroke-width: 0.8"/>
      </g>
     </g>
     <g id="text_8">
      <!-- 0.4 -->
      <g transform="translate(25.155 196.50435)scale(0.16 -0.16)">
       <use xlink:href="#DejaVuSans-30"/>
       <use xlink:href="#DejaVuSans-2e" x="63.623047"/>
       <use xlink:href="#DejaVuSans-34" x="95.410156"/>
      </g>
     </g>
    </g>
    <g id="ytick_4">
     <g id="line2d_27">
      <path d="M 57.6 136.1664 
L 360.8064 136.1664 
" clip-path="url(#pa845ae35a9)" style="fill: none; stroke: #b0b0b0; stroke-width: 0.8; stroke-linecap: square"/>
     </g>
     <g id="line2d_28">
      <g>
       <use xlink:href="#md4263a517f" x="57.6" y="136.1664" style="stroke: #000000; stroke-width: 0.8"/>
      </g>
     </g>
     <g id="text_9">
      <!-- 0.6 -->
      <g transform="translate(25.155 142.24515)scale(0.16 -0.16)">
       <use xlink:href="#DejaVuSans-30"/>
       <use xlink:href="#DejaVuSans-2e" x="63.623047"/>
       <use xlink:href="#DejaVuSans-36" x="95.410156"/>
      </g>
     </g>
    </g>
    <g id="ytick_5">
     <g id="line2d_29">
      <path d="M 57.6 81.9072 
L 360.8064 81.9072 
" clip-path="url(#pa845ae35a9)" style="fill: none; stroke: #b0b0b0; stroke-width: 0.8; stroke-linecap: square"/>
     </g>
     <g id="line2d_30">
      <g>
       <use xlink:href="#md4263a517f" x="57.6" y="81.9072" style="stroke: #000000; stroke-width: 0.8"/>
      </g>
     </g>
     <g id="text_10">
      <!-- 0.8 -->
      <g transform="translate(25.155 87.98595)scale(0.16 -0.16)">
       <defs>
        <path id="DejaVuSans-38" d="M 2034 2216 
Q 1584 2216 1326 1975 
Q 1069 1734 1069 1313 
Q 1069 891 1326 650 
Q 1584 409 2034 409 
Q 2484 409 2743 651 
Q 3003 894 3003 1313 
Q 3003 1734 2745 1975 
Q 2488 2216 2034 2216 
z
M 1403 2484 
Q 997 2584 770 2862 
Q 544 3141 544 3541 
Q 544 4100 942 4425 
Q 1341 4750 2034 4750 
Q 2731 4750 3128 4425 
Q 3525 4100 3525 3541 
Q 3525 3141 3298 2862 
Q 3072 2584 2669 2484 
Q 3125 2378 3379 2068 
Q 3634 1759 3634 1313 
Q 3634 634 3220 271 
Q 2806 -91 2034 -91 
Q 1263 -91 848 271 
Q 434 634 434 1313 
Q 434 1759 690 2068 
Q 947 2378 1403 2484 
z
M 1172 3481 
Q 1172 3119 1398 2916 
Q 1625 2713 2034 2713 
Q 2441 2713 2670 2916 
Q 2900 3119 2900 3481 
Q 2900 3844 2670 4047 
Q 2441 4250 2034 4250 
Q 1625 4250 1398 4047 
Q 1172 3844 1172 3481 
z
" transform="scale(0.015625)"/>
       </defs>
       <use xlink:href="#DejaVuSans-30"/>
       <use xlink:href="#DejaVuSans-2e" x="63.623047"/>
       <use xlink:href="#DejaVuSans-38" x="95.410156"/>
      </g>
     </g>
    </g>
    <g id="ytick_6">
     <g id="line2d_31">
      <path d="M 57.6 27.648 
L 360.8064 27.648 
" clip-path="url(#pa845ae35a9)" style="fill: none; stroke: #b0b0b0; stroke-width: 0.8; stroke-linecap: square"/>
     </g>
     <g id="line2d_32">
      <g>
       <use xlink:href="#md4263a517f" x="57.6" y="27.648" style="stroke: #000000; stroke-width: 0.8"/>
      </g>
     </g>
     <g id="text_11">
      <!-- 1.0 -->
      <g transform="translate(25.155 33.72675)scale(0.16 -0.16)">
       <use xlink:href="#DejaVuSans-31"/>
       <use xlink:href="#DejaVuSans-2e" x="63.623047"/>
       <use xlink:href="#DejaVuSans-30" x="95.410156"/>
      </g>
     </g>
    </g>
    <g id="text_12">
     <!-- Fraction of function,target pairs -->
     <g transform="translate(17.619531 297.681)rotate(-90)scale(0.17 -0.17)">
      <defs>
       <path id="DejaVuSans-46" d="M 628 4666 
L 3309 4666 
L 3309 4134 
L 1259 4134 
L 1259 2759 
L 3109 2759 
L 3109 2228 
L 1259 2228 
L 1259 0 
L 628 0 
L 628 4666 
z
" transform="scale(0.015625)"/>
       <path id="DejaVuSans-72" d="M 2631 2963 
Q 2534 3019 2420 3045 
Q 2306 3072 2169 3072 
Q 1681 3072 1420 2755 
Q 1159 2438 1159 1844 
L 1159 0 
L 581 0 
L 581 3500 
L 1159 3500 
L 1159 2956 
Q 1341 3275 1631 3429 
Q 1922 3584 2338 3584 
Q 2397 3584 2469 3576 
Q 2541 3569 2628 3553 
L 2631 2963 
z
" transform="scale(0.015625)"/>
       <path id="DejaVuSans-63" d="M 3122 3366 
L 3122 2828 
Q 2878 2963 2633 3030 
Q 2388 3097 2138 3097 
Q 1578 3097 1268 2742 
Q 959 2388 959 1747 
Q 959 1106 1268 751 
Q 1578 397 2138 397 
Q 2388 397 2633 464 
Q 2878 531 3122 666 
L 3122 134 
Q 2881 22 2623 -34 
Q 2366 -91 2075 -91 
Q 1284 -91 818 406 
Q 353 903 353 1747 
Q 353 2603 823 3093 
Q 1294 3584 2113 3584 
Q 2378 3584 2631 3529 
Q 2884 3475 3122 3366 
z
" transform="scale(0.015625)"/>
       <path id="DejaVuSans-74" d="M 1172 4494 
L 1172 3500 
L 2356 3500 
L 2356 3053 
L 1172 3053 
L 1172 1153 
Q 1172 725 1289 603 
Q 1406 481 1766 481 
L 2356 481 
L 2356 0 
L 1766 0 
Q 1100 0 847 248 
Q 594 497 594 1153 
L 594 3053 
L 172 3053 
L 172 3500 
L 594 3500 
L 594 4494 
L 1172 4494 
z
" transform="scale(0.015625)"/>
       <path id="DejaVuSans-75" d="M 544 1381 
L 544 3500 
L 1119 3500 
L 1119 1403 
Q 1119 906 1312 657 
Q 1506 409 1894 409 
Q 2359 409 2629 706 
Q 2900 1003 2900 1516 
L 2900 3500 
L 3475 3500 
L 3475 0 
L 2900 0 
L 2900 538 
Q 2691 219 2414 64 
Q 2138 -91 1772 -91 
Q 1169 -91 856 284 
Q 544 659 544 1381 
z
M 1991 3584 
L 1991 3584 
z
" transform="scale(0.015625)"/>
       <path id="DejaVuSans-2c" d="M 750 794 
L 1409 794 
L 1409 256 
L 897 -744 
L 494 -744 
L 750 256 
L 750 794 
z
" transform="scale(0.015625)"/>
       <path id="DejaVuSans-70" d="M 1159 525 
L 1159 -1331 
L 581 -1331 
L 581 3500 
L 1159 3500 
L 1159 2969 
Q 1341 3281 1617 3432 
Q 1894 3584 2278 3584 
Q 2916 3584 3314 3078 
Q 3713 2572 3713 1747 
Q 3713 922 3314 415 
Q 2916 -91 2278 -91 
Q 1894 -91 1617 61 
Q 1341 213 1159 525 
z
M 3116 1747 
Q 3116 2381 2855 2742 
Q 2594 3103 2138 3103 
Q 1681 3103 1420 2742 
Q 1159 2381 1159 1747 
Q 1159 1113 1420 752 
Q 1681 391 2138 391 
Q 2594 391 2855 752 
Q 3116 1113 3116 1747 
z
" transform="scale(0.015625)"/>
      </defs>
      <use xlink:href="#DejaVuSans-46"/>
      <use xlink:href="#DejaVuSans-72" x="50.269531"/>
      <use xlink:href="#DejaVuSans-61" x="91.382812"/>
      <use xlink:href="#DejaVuSans-63" x="152.662109"/>
      <use xlink:href="#DejaVuSans-74" x="207.642578"/>
      <use xlink:href="#DejaVuSans-69" x="246.851562"/>
      <use xlink:href="#DejaVuSans-6f" x="274.634766"/>
      <use xlink:href="#DejaVuSans-6e" x="335.816406"/>
      <use xlink:href="#DejaVuSans-20" x="399.195312"/>
      <use xlink:href="#DejaVuSans-6f" x="430.982422"/>
      <use xlink:href="#DejaVuSans-66" x="492.164062"/>
      <use xlink:href="#DejaVuSans-20" x="527.369141"/>
      <use xlink:href="#DejaVuSans-66" x="559.15625"/>
      <use xlink:href="#DejaVuSans-75" x="594.361328"/>
      <use xlink:href="#DejaVuSans-6e" x="657.740234"/>
      <use xlink:href="#DejaVuSans-63" x="721.119141"/>
      <use xlink:href="#DejaVuSans-74" x="776.099609"/>
      <use xlink:href="#DejaVuSans-69" x="815.308594"/>
      <use xlink:href="#DejaVuSans-6f" x="843.091797"/>
      <use xlink:href="#DejaVuSans-6e" x="904.273438"/>
      <use xlink:href="#DejaVuSans-2c" x="967.652344"/>
      <use xlink:href="#DejaVuSans-74" x="999.439453"/>
      <use xlink:href="#DejaVuSans-61" x="1038.648438"/>
      <use xlink:href="#DejaVuSans-72" x="1099.927734"/>
      <use xlink:href="#DejaVuSans-67" x="1139.291016"/>
      <use xlink:href="#DejaVuSans-65" x="1202.767578"/>
      <use xlink:href="#DejaVuSans-74" x="1264.291016"/>
      <use xlink:href="#DejaVuSans-20" x="1303.5"/>
      <use xlink:href="#DejaVuSans-70" x="1335.287109"/>
      <use xlink:href="#DejaVuSans-61" x="1398.763672"/>
      <use xlink:href="#DejaVuSans-69" x="1460.042969"/>
      <use xlink:href="#DejaVuSans-72" x="1487.826172"/>
      <use xlink:href="#DejaVuSans-73" x="1528.939453"/>
     </g>
    </g>
   </g>
   <g id="line2d_33">
    <defs>
     <path id="m1e853f8f68" d="M 0 1.5 
C 0.397805 1.5 0.77937 1.341951 1.06066 1.06066 
C 1.341951 0.77937 1.5 0.397805 1.5 0 
C 1.5 -0.397805 1.341951 -0.77937 1.06066 -1.06066 
C 0.77937 -1.341951 0.397805 -1.5 0 -1.5 
C -0.397805 -1.5 -0.77937 -1.341951 -1.06066 -1.06066 
C -1.341951 -0.77937 -1.5 -0.397805 -1.5 0 
C -1.5 0.397805 -1.341951 0.77937 -1.06066 1.06066 
C -0.77937 1.341951 -0.397805 1.5 0 1.5 
z
" style="stroke: #f5deb3"/>
    </defs>
    <g>
     <use xlink:href="#m1e853f8f68" x="182.951076" y="27.648" style="fill: #f5deb3; stroke: #f5deb3"/>
     <use xlink:href="#m1e853f8f68" x="182.951076" y="27.648" style="fill: #f5deb3; stroke: #f5deb3"/>
    </g>
   </g>
   <g id="line2d_34">
    <defs>
     <path id="me12b8d76c4" d="M 0 1.5 
C 0.397805 1.5 0.77937 1.341951 1.06066 1.06066 
C 1.341951 0.77937 1.5 0.397805 1.5 0 
C 1.5 -0.397805 1.341951 -0.77937 1.06066 -1.06066 
C 0.77937 -1.341951 0.397805 -1.5 0 -1.5 
C -0.397805 -1.5 -0.77937 -1.341951 -1.06066 -1.06066 
C -1.341951 -0.77937 -1.5 -0.397805 -1.5 0 
C -1.5 0.397805 -1.341951 0.77937 -1.06066 1.06066 
C -0.77937 1.341951 -0.397805 1.5 0 1.5 
z
" style="stroke: #000080"/>
    </defs>
    <g>
     <use xlink:href="#me12b8d76c4" x="169.516314" y="27.648" style="fill: #000080; stroke: #000080"/>
     <use xlink:href="#me12b8d76c4" x="169.516314" y="27.648" style="fill: #000080; stroke: #000080"/>
    </g>
   </g>
   <g id="line2d_35">
    <path d="M 152.27333 298.944 
L 152.27333 297.880094 
L 153.713361 297.880094 
L 153.713361 296.816188 
L 154.14583 296.816188 
L 154.14583 295.752282 
L 154.859485 295.752282 
L 154.859485 294.688376 
L 155.177524 294.688376 
L 155.28758 292.560565 
L 155.593381 292.560565 
L 155.593381 291.496659 
L 155.792826 291.496659 
L 155.792826 290.432753 
L 155.934724 290.432753 
L 155.934724 289.368847 
L 156.314566 289.368847 
L 156.314566 287.241035 
L 156.511445 287.241035 
L 156.531019 284.049318 
L 156.764344 284.049318 
L 156.855908 280.8576 
L 156.903921 280.8576 
L 156.903921 279.793694 
L 157.085262 279.793694 
L 157.137431 277.665882 
L 157.466066 277.665882 
L 157.466066 276.601976 
L 157.646703 276.601976 
L 157.715719 274.474165 
L 157.779907 274.474165 
L 157.784483 272.346353 
L 158.254458 272.346353 
L 158.356828 269.154635 
L 158.559911 269.154635 
L 158.665004 264.899012 
L 158.673735 264.899012 
L 158.673735 263.835106 
L 158.834537 263.835106 
L 158.834537 262.7712 
L 159.053954 262.7712 
L 159.15633 260.643388 
L 159.253921 260.643388 
L 159.308857 257.451671 
L 159.384659 257.451671 
L 159.384659 256.387765 
L 159.614403 256.387765 
L 159.626854 254.259953 
L 159.890533 254.259953 
L 159.890533 253.196047 
L 160.012872 253.196047 
L 160.037244 250.004329 
L 160.271232 250.004329 
L 160.295272 247.876518 
L 160.446818 247.876518 
L 160.494422 245.748706 
L 160.565603 245.748706 
L 160.589271 243.620894 
L 160.699326 243.620894 
L 160.765833 241.493082 
L 160.816532 241.493082 
L 160.882626 238.301365 
L 160.994842 238.301365 
L 160.994842 237.237459 
L 161.114061 237.237459 
L 161.209658 235.109647 
L 161.308567 235.109647 
L 161.34647 231.917929 
L 161.463488 231.917929 
L 161.489811 228.726212 
L 161.684209 228.726212 
L 161.684209 225.534494 
L 161.839769 225.534494 
L 161.839769 224.470588 
L 161.968427 224.470588 
L 161.994053 222.342776 
L 162.092572 222.342776 
L 162.165218 219.151059 
L 162.262846 219.151059 
L 162.342023 215.959341 
L 162.38507 215.959341 
L 162.463734 213.831529 
L 162.499383 213.831529 
L 162.602382 210.639812 
L 162.613005 210.639812 
L 162.66603 207.448094 
L 162.757588 207.448094 
L 162.757588 206.384188 
L 162.876649 206.384188 
L 162.953289 202.128565 
L 163.078029 202.128565 
L 163.140091 198.936847 
L 163.212239 198.936847 
L 163.212239 197.872941 
L 163.338686 197.872941 
L 163.382912 193.617318 
L 163.562152 193.617318 
L 163.672897 189.361694 
L 163.699647 189.361694 
L 163.792971 187.233882 
L 163.852722 187.233882 
L 163.938695 184.042165 
L 163.981535 184.042165 
L 164.030845 181.914353 
L 164.142137 181.914353 
L 164.230049 177.658729 
L 164.340172 177.658729 
L 164.449654 171.275294 
L 164.456074 171.275294 
L 164.523356 169.147482 
L 164.6286 169.147482 
L 164.682588 165.955765 
L 164.764859 165.955765 
L 164.849915 162.764047 
L 164.878182 162.764047 
L 164.912672 159.572329 
L 165.006418 159.572329 
L 165.059334 156.380612 
L 165.167811 156.380612 
L 165.263372 152.124988 
L 165.281812 152.124988 
L 165.392072 147.869365 
L 165.465221 147.869365 
L 165.516864 143.613741 
L 165.634805 143.613741 
L 165.719027 138.294212 
L 165.758002 138.294212 
L 165.862536 134.038588 
L 165.877422 134.038588 
L 165.969454 130.846871 
L 165.990173 130.846871 
L 166.078712 126.591247 
L 166.122826 126.591247 
L 166.216591 121.271718 
L 166.248715 121.271718 
L 166.251633 119.143906 
L 166.417195 119.143906 
L 166.526766 111.696565 
L 166.587046 111.696565 
L 166.661411 108.504847 
L 166.721261 108.504847 
L 166.797933 106.377035 
L 166.854526 106.377035 
L 166.958777 103.185318 
L 167.006483 103.185318 
L 167.037287 99.9936 
L 167.118257 99.9936 
L 167.212746 93.610165 
L 167.237678 93.610165 
L 167.339833 90.418447 
L 167.383837 90.418447 
L 167.479737 85.098918 
L 167.54794 85.098918 
L 167.634879 80.843294 
L 167.691716 80.843294 
L 167.775305 77.651576 
L 167.831719 77.651576 
L 167.871912 74.459859 
L 167.949376 74.459859 
L 168.037137 68.076424 
L 168.103352 68.076424 
L 168.195663 61.692988 
L 168.224581 61.692988 
L 168.303225 58.501271 
L 168.397165 58.501271 
L 168.469907 54.245647 
L 168.511348 54.245647 
L 168.619698 48.926118 
L 168.660811 48.926118 
L 168.770857 43.606588 
L 168.786162 43.606588 
L 168.887874 39.350965 
L 168.928405 39.350965 
L 169.034386 35.095341 
L 169.122249 35.095341 
L 169.13727 32.967529 
L 169.314117 32.967529 
L 169.314117 31.903624 
L 169.449976 31.903624 
L 169.516314 27.648 
L 360.8064 27.648 
L 360.8064 27.648 
" style="fill: none; stroke: #000080; stroke-width: 1.5; stroke-linecap: square"/>
   </g>
   <g id="line2d_36">
    <defs>
     <path id="m7ea0293dd9" d="M 0 6 
C 1.591219 6 3.117479 5.367802 4.242641 4.242641 
C 5.367802 3.117479 6 1.591219 6 0 
C 6 -1.591219 5.367802 -3.117479 4.242641 -4.242641 
C 3.117479 -5.367802 1.591219 -6 0 -6 
C -1.591219 -6 -3.117479 -5.367802 -4.242641 -4.242641 
C -5.367802 -3.117479 -6 -1.591219 -6 0 
C -6 1.591219 -5.367802 3.117479 -4.242641 4.242641 
C -3.117479 5.367802 -1.591219 6 0 6 
z
" style="stroke: #000080; stroke-width: 1.5"/>
    </defs>
    <g>
     <use xlink:href="#m7ea0293dd9" x="165.516864" y="144.677647" style="fill-opacity: 0; stroke: #000080; stroke-width: 1.5"/>
     <use xlink:href="#m7ea0293dd9" x="169.516314" y="28.711906" style="fill-opacity: 0; stroke: #000080; stroke-width: 1.5"/>
     <use xlink:href="#m7ea0293dd9" x="169.516314" y="27.648" style="fill-opacity: 0; stroke: #000080; stroke-width: 1.5"/>
     <use xlink:href="#m7ea0293dd9" x="169.516314" y="27.648" style="fill-opacity: 0; stroke: #000080; stroke-width: 1.5"/>
     <use xlink:href="#m7ea0293dd9" x="360.8064" y="27.648" style="fill-opacity: 0; stroke: #000080; stroke-width: 1.5"/>
    </g>
   </g>
   <g id="line2d_37">
    <path style="fill: none; stroke: #000080; stroke-width: 1.5; stroke-linecap: square"/>
    <g/>
   </g>
   <g id="line2d_38">
    <defs>
     <path id="m64a572299f" d="M 0 1.5 
C 0.397805 1.5 0.77937 1.341951 1.06066 1.06066 
C 1.341951 0.77937 1.5 0.397805 1.5 0 
C 1.5 -0.397805 1.341951 -0.77937 1.06066 -1.06066 
C 0.77937 -1.341951 0.397805 -1.5 0 -1.5 
C -0.397805 -1.5 -0.77937 -1.341951 -1.06066 -1.06066 
C -1.341951 -0.77937 -1.5 -0.397805 -1.5 0 
C -1.5 0.397805 -1.341951 0.77937 -1.06066 1.06066 
C -0.77937 1.341951 -0.397805 1.5 0 1.5 
z
" style="stroke: #ff00ff"/>
    </defs>
    <g>
     <use xlink:href="#m64a572299f" x="188.128111" y="27.648" style="fill: #ff00ff; stroke: #ff00ff"/>
     <use xlink:href="#m64a572299f" x="188.128111" y="27.648" style="fill: #ff00ff; stroke: #ff00ff"/>
    </g>
   </g>
   <g id="line2d_39">
    <path d="M 81.696354 298.944 
L 81.696354 298.731219 
L 146.678736 298.660292 
L 146.678736 298.589365 
L 151.452172 298.518438 
L 151.452172 298.305656 
L 151.982822 298.234729 
L 151.982822 298.021948 
L 152.715833 297.951021 
L 152.715833 297.73824 
L 153.276532 297.667313 
L 153.276532 297.454532 
L 153.8097 297.454532 
L 153.911171 297.170824 
L 154.051201 297.170824 
L 154.151382 296.390626 
L 154.306165 296.390626 
L 154.361137 295.965064 
L 154.492419 295.894136 
L 154.563149 295.255793 
L 154.741511 295.255793 
L 154.763016 294.972085 
L 154.950144 294.972085 
L 155.029775 294.12096 
L 155.214281 294.050033 
L 155.298028 293.553544 
L 155.381403 293.553544 
L 155.407382 293.269835 
L 155.516105 293.269835 
L 155.583096 292.986127 
L 155.639595 292.9152 
L 155.721473 292.489638 
L 155.757183 292.489638 
L 155.818243 292.135002 
L 155.879106 292.135002 
L 155.980108 291.567586 
L 156.020357 291.496659 
L 156.130601 291.071096 
L 156.235234 291.071096 
L 156.304668 290.716461 
L 156.398491 290.716461 
L 156.482044 290.219972 
L 156.540799 290.149045 
L 156.550574 289.865336 
L 156.682039 289.794409 
L 156.783658 289.439774 
L 156.822226 289.439774 
L 156.918301 288.943285 
L 157.104249 288.872358 
L 157.151633 288.446795 
L 157.255461 288.375868 
L 157.283678 287.737525 
L 157.386781 287.737525 
L 157.470719 286.8864 
L 157.517191 286.8864 
L 157.568177 286.248056 
L 157.678942 286.248056 
L 157.789059 284.758588 
L 157.907629 284.687661 
L 157.984753 284.262099 
L 158.020938 284.262099 
L 158.111097 283.694682 
L 158.200825 283.694682 
L 158.290128 283.198193 
L 158.356828 283.198193 
L 158.454228 282.134287 
L 158.498335 282.134287 
L 158.511547 281.921506 
L 158.630038 281.850579 
L 158.70862 281.212235 
L 158.808555 281.212235 
L 158.895025 279.65184 
L 159.041118 279.65184 
L 159.143564 278.658861 
L 159.177589 278.658861 
L 159.275069 277.524028 
L 159.313076 277.524028 
L 159.405662 277.027539 
L 159.451784 277.027539 
L 159.560352 276.105487 
L 159.697255 276.03456 
L 159.792086 275.183435 
L 159.857774 275.183435 
L 159.947723 273.693967 
L 159.996606 273.62304 
L 160.106129 272.771915 
L 160.130381 272.700988 
L 160.23913 271.920791 
L 160.251175 271.920791 
L 160.327278 270.998739 
L 160.391127 270.927812 
L 160.45079 270.431322 
L 160.526092 270.431322 
L 160.597153 269.934833 
L 160.664021 269.934833 
L 160.773641 268.587219 
L 160.777545 268.587219 
L 160.886507 267.381459 
L 160.894266 267.381459 
L 160.987125 266.601261 
L 161.006413 266.601261 
L 161.110227 265.111793 
L 161.152358 265.040866 
L 161.259177 264.544376 
L 161.278189 264.544376 
L 161.384298 263.196762 
L 161.391854 263.196762 
L 161.501081 261.849148 
L 161.508591 261.849148 
L 161.617145 261.068951 
L 161.676769 261.068951 
L 161.78436 260.288753 
L 161.802848 260.288753 
L 161.913396 258.231868 
L 161.935428 258.160941 
L 162.019645 257.380744 
L 162.06708 257.380744 
L 162.168843 255.394786 
L 162.201436 255.394786 
L 162.295277 253.905318 
L 162.334839 253.905318 
L 162.435167 253.12512 
L 162.485131 253.054193 
L 162.581118 252.061214 
L 162.59884 252.061214 
L 162.6625 251.281016 
L 162.775144 251.210089 
L 162.876649 249.649694 
L 162.894094 249.649694 
L 162.998429 247.521882 
L 163.008831 247.521882 
L 163.11598 245.535925 
L 163.129762 245.535925 
L 163.232801 244.897581 
L 163.28411 244.826654 
L 163.389707 243.053478 
L 163.40329 243.053478 
L 163.511597 241.564009 
L 163.535206 241.564009 
L 163.636055 239.932687 
L 163.699647 239.86176 
L 163.809588 237.592094 
L 163.812909 237.592094 
L 163.915587 236.528188 
L 163.938695 236.457261 
L 164.034127 234.755012 
L 164.066923 234.684085 
L 164.132343 233.194616 
L 164.187772 233.123689 
L 164.281952 231.776075 
L 164.317552 231.776075 
L 164.407868 229.506409 
L 164.43038 229.506409 
L 164.53934 227.520452 
L 164.561694 227.449525 
L 164.647672 225.818202 
L 164.688929 225.747275 
L 164.799558 224.115953 
L 164.834193 224.045026 
L 164.931459 222.129995 
L 164.950227 222.129995 
L 165.056225 219.789402 
L 165.081079 219.718475 
L 165.189432 217.165101 
L 165.192519 217.165101 
L 165.303302 214.5408 
L 165.33396 214.469873 
L 165.443915 212.342061 
L 165.465221 212.271134 
L 165.568365 210.92352 
L 165.592552 210.852593 
L 165.695002 207.731802 
L 165.710021 207.731802 
L 165.817807 206.313261 
L 165.829745 206.242334 
L 165.939815 204.327304 
L 165.960567 204.327304 
L 166.063985 202.057638 
L 166.087543 201.986711 
L 166.193193 199.929826 
L 166.20782 199.929826 
L 166.318614 196.525327 
L 166.344759 196.525327 
L 166.437427 195.106786 
L 166.466293 195.106786 
L 166.569843 191.985995 
L 166.60137 191.915068 
L 166.707029 190.212819 
L 166.718416 190.212819 
L 166.829081 187.446664 
L 166.834738 187.446664 
L 166.944723 184.964216 
L 166.964396 184.964216 
L 167.070834 182.765478 
L 167.082003 182.694551 
L 167.182228 180.353958 
L 167.207201 180.283031 
L 167.315036 177.304094 
L 167.320549 177.304094 
L 167.424997 174.963501 
L 167.446912 174.892574 
L 167.550662 172.481054 
L 167.583307 172.410127 
L 167.694418 169.785826 
L 167.69712 169.785826 
L 167.796816 166.097619 
L 167.820987 166.026692 
L 167.930707 162.622193 
L 167.962699 162.622193 
L 168.071598 159.501402 
L 168.074246 159.501402 
L 168.17987 157.373591 
L 168.187768 157.373591 
L 168.297992 154.110946 
L 168.305841 154.110946 
L 168.412777 150.848301 
L 168.420577 150.777374 
L 168.52945 148.082146 
L 168.532034 148.082146 
L 168.640266 145.670626 
L 168.647973 145.670626 
L 168.745323 143.40096 
L 168.763201 143.40096 
L 168.872652 139.925534 
L 168.87519 139.925534 
L 168.983993 136.024546 
L 168.991561 136.024546 
L 169.102202 132.832828 
L 169.119745 132.761901 
L 169.227147 130.279454 
L 169.232127 130.279454 
L 169.338891 126.662174 
L 169.353741 126.591247 
L 169.452437 122.973967 
L 169.472115 122.90304 
L 169.579974 120.420593 
L 169.592191 120.420593 
L 169.592191 120.349666 
L 169.696937 116.945167 
L 169.704223 116.945167 
L 169.808349 113.966231 
L 169.818006 113.895304 
L 169.923905 110.84544 
L 169.931104 110.84544 
L 170.038756 107.937431 
L 170.055447 107.866504 
L 170.157651 105.596838 
L 170.176605 105.525911 
L 170.287574 103.043464 
L 170.296988 103.043464 
L 170.407251 100.064527 
L 170.40959 100.064527 
L 170.516872 97.369299 
L 170.523847 97.369299 
L 170.625857 95.241487 
L 170.6582 95.17056 
L 170.766372 93.893873 
L 170.782429 93.822946 
L 170.887612 92.120696 
L 170.935435 92.049769 
L 171.04429 90.34752 
L 171.048812 90.34752 
L 171.048812 90.276593 
L 171.150271 88.787125 
L 171.172743 88.716198 
L 171.282471 87.723219 
L 171.304786 87.652292 
L 171.387122 86.304678 
L 171.424832 86.233751 
L 171.5309 84.744282 
L 171.550721 84.673355 
L 171.647326 83.822231 
L 171.673587 83.822231 
L 171.773916 82.332762 
L 171.802173 82.261835 
L 171.895337 81.694419 
L 171.914778 81.694419 
L 172.018127 80.985148 
L 172.033151 80.985148 
L 172.129451 79.850315 
L 172.174222 79.779388 
L 172.282512 78.928264 
L 172.305787 78.857336 
L 172.413324 78.148066 
L 172.423834 78.148066 
L 172.423834 78.077139 
L 172.534879 76.871379 
L 172.536968 76.871379 
L 172.641118 75.594692 
L 172.678471 75.523765 
L 172.785966 73.679661 
L 172.82509 73.608734 
L 172.935843 72.332047 
L 172.948109 72.26112 
L 173.052046 71.126287 
L 173.064236 71.05536 
L 173.169555 69.991454 
L 173.201843 69.920527 
L 173.312411 68.998475 
L 173.324433 68.927548 
L 173.42831 67.367153 
L 173.438268 67.296226 
L 173.543499 65.948612 
L 173.559332 65.877685 
L 173.669791 64.742852 
L 173.677657 64.671925 
L 173.787425 63.040602 
L 173.808912 63.040602 
L 173.808912 62.969675 
L 173.91986 61.267426 
L 173.925682 61.267426 
L 174.035946 59.139614 
L 174.059077 59.068687 
L 174.162817 57.650146 
L 174.185793 57.579219 
L 174.288839 56.657167 
L 174.313562 56.58624 
L 174.423472 55.451407 
L 174.451793 55.38048 
L 174.557148 53.961939 
L 174.581522 53.891012 
L 174.680564 52.543398 
L 174.717804 52.472471 
L 174.821684 51.550419 
L 174.842022 51.479492 
L 174.947058 51.124856 
L 174.970932 51.053929 
L 175.071602 50.273732 
L 175.108076 50.202805 
L 175.209829 49.422607 
L 175.242419 49.35168 
L 175.341651 48.713336 
L 175.377606 48.642409 
L 175.483274 48.216847 
L 175.561692 48.14592 
L 175.657489 47.223868 
L 175.714028 47.152941 
L 175.819582 46.656452 
L 175.852885 46.585525 
L 175.957665 45.7344 
L 175.994201 45.663473 
L 176.105113 45.096056 
L 176.110296 45.025129 
L 176.220527 44.599567 
L 176.223961 44.52864 
L 176.263411 44.244932 
L 176.37786 44.174005 
L 176.467905 43.677515 
L 176.493311 43.677515 
L 176.542332 43.464734 
L 176.671876 43.393807 
L 176.773872 42.897318 
L 176.828821 42.826391 
L 176.920047 42.258974 
L 176.991062 42.188047 
L 177.060168 41.904339 
L 177.11265 41.833412 
L 177.213919 41.195068 
L 177.244844 41.124141 
L 177.316266 40.343944 
L 177.406777 40.273016 
L 177.458302 39.989308 
L 177.551333 39.918381 
L 177.651866 39.421892 
L 177.6932 39.350965 
L 177.797717 38.996329 
L 177.848184 38.925402 
L 177.947147 38.357986 
L 178.011273 38.287059 
L 178.109384 37.719642 
L 178.129566 37.648715 
L 178.199258 37.29408 
L 178.288705 37.223153 
L 178.382322 36.655736 
L 178.42361 36.584809 
L 178.476998 36.230174 
L 178.546935 36.159247 
L 178.640789 35.733685 
L 178.780697 35.662758 
L 178.882341 35.308122 
L 178.961184 35.237195 
L 179.007148 35.024414 
L 179.089894 34.953487 
L 179.126718 34.811633 
L 179.235294 34.740706 
L 179.317046 34.527925 
L 179.480934 34.456998 
L 179.558751 34.173289 
L 179.650564 34.102362 
L 179.650564 34.031435 
L 179.797391 33.960508 
L 179.876741 33.605873 
L 180.014803 33.534946 
L 180.041453 33.393092 
L 180.242216 33.322165 
L 180.33628 32.967529 
L 180.398272 32.896602 
L 180.507976 32.47104 
L 180.527109 32.400113 
L 180.618404 32.116405 
L 180.640141 32.045478 
L 180.674054 31.832696 
L 180.844051 31.761769 
L 180.844051 31.690842 
L 180.995213 31.619915 
L 181.100176 31.052499 
L 181.134593 30.981572 
L 181.23089 30.556009 
L 181.440244 30.485082 
L 181.514267 30.272301 
L 181.717944 30.201374 
L 181.717944 30.130447 
L 181.976434 30.05952 
L 181.992867 29.917666 
L 182.51006 29.846739 
L 182.586121 29.633958 
L 182.644796 29.563031 
L 182.644796 29.492104 
L 183.070773 29.421176 
L 183.070773 29.350249 
L 183.209859 29.279322 
L 183.209859 29.208395 
L 183.373772 29.137468 
L 183.373772 29.066541 
L 183.532776 28.995614 
L 183.532776 28.924687 
L 183.905112 28.85376 
L 183.997339 28.570052 
L 184.058574 28.499125 
L 184.058574 28.428198 
L 184.900982 28.357271 
L 184.900982 28.286344 
L 185.19955 28.215416 
L 185.284598 28.073562 
L 186.090204 28.002635 
L 186.146014 27.860781 
L 187.000714 27.789854 
L 187.000714 27.718927 
L 360.8064 27.648 
L 360.8064 27.648 
" style="fill: none; stroke: #ff00ff; stroke-width: 1.5; stroke-linecap: square"/>
   </g>
   <g id="line2d_40">
    <defs>
     <path id="ma7b869722d" d="M -0 8.485281 
L 5.091169 0 
L 0 -8.485281 
L -5.091169 -0 
z
" style="stroke: #ff00ff; stroke-width: 1.5; stroke-linejoin: miter"/>
    </defs>
    <g>
     <use xlink:href="#ma7b869722d" x="169.919104" y="110.987294" style="fill-opacity: 0; stroke: #ff00ff; stroke-width: 1.5; stroke-linejoin: miter"/>
     <use xlink:href="#ma7b869722d" x="188.128111" y="27.718927" style="fill-opacity: 0; stroke: #ff00ff; stroke-width: 1.5; stroke-linejoin: miter"/>
     <use xlink:href="#ma7b869722d" x="188.128111" y="27.648" style="fill-opacity: 0; stroke: #ff00ff; stroke-width: 1.5; stroke-linejoin: miter"/>
     <use xlink:href="#ma7b869722d" x="188.128111" y="27.648" style="fill-opacity: 0; stroke: #ff00ff; stroke-width: 1.5; stroke-linejoin: miter"/>
     <use xlink:href="#ma7b869722d" x="360.8064" y="27.648" style="fill-opacity: 0; stroke: #ff00ff; stroke-width: 1.5; stroke-linejoin: miter"/>
    </g>
   </g>
   <g id="line2d_41">
    <path style="fill: none; stroke: #ff00ff; stroke-width: 1.5; stroke-linecap: square"/>
    <g/>
   </g>
   <g id="line2d_42">
    <path d="M 101.471247 298.660292 
" clip-path="url(#pa845ae35a9)" style="fill: none; stroke: #ff00ff; stroke-width: 1.5; stroke-linecap: square"/>
    <defs>
     <path id="mf368213251" d="M -12 12 
L 12 -12 
M -12 -12 
L 12 12 
" style="stroke: #ff00ff"/>
    </defs>
    <g clip-path="url(#pa845ae35a9)">
     <use xlink:href="#mf368213251" x="101.471247" y="298.660292" style="fill: #ff00ff; stroke: #ff00ff"/>
    </g>
   </g>
   <g id="line2d_43">
    <defs>
     <path id="m3a2d927dcd" d="M 0 1.5 
C 0.397805 1.5 0.77937 1.341951 1.06066 1.06066 
C 1.341951 0.77937 1.5 0.397805 1.5 0 
C 1.5 -0.397805 1.341951 -0.77937 1.06066 -1.06066 
C 0.77937 -1.341951 0.397805 -1.5 0 -1.5 
C -0.397805 -1.5 -0.77937 -1.341951 -1.06066 -1.06066 
C -1.341951 -0.77937 -1.5 -0.397805 -1.5 0 
C -1.5 0.397805 -1.341951 0.77937 -1.06066 1.06066 
C -0.77937 1.341951 -0.397805 1.5 0 1.5 
z
" style="stroke: #ff7500"/>
    </defs>
    <g>
     <use xlink:href="#m3a2d927dcd" x="170.39087" y="27.648" style="fill: #ff7500; stroke: #ff7500"/>
     <use xlink:href="#m3a2d927dcd" x="170.39087" y="27.648" style="fill: #ff7500; stroke: #ff7500"/>
    </g>
   </g>
   <g id="line2d_44">
    <path d="M 151.598964 298.944 
L 151.598964 297.880094 
L 152.236493 297.880094 
L 152.236493 296.816188 
L 153.455939 296.816188 
L 153.553602 294.688376 
L 153.690622 294.688376 
L 153.690622 293.624471 
L 154.140277 293.624471 
L 154.140277 292.560565 
L 154.289641 292.560565 
L 154.289641 291.496659 
L 154.682245 291.496659 
L 154.682245 290.432753 
L 155.271897 290.432753 
L 155.271897 289.368847 
L 155.670341 289.368847 
L 155.777559 287.241035 
L 155.792826 287.241035 
L 155.792826 286.177129 
L 155.939772 286.177129 
L 155.939772 285.113224 
L 156.090587 285.113224 
L 156.090587 284.049318 
L 156.334347 284.049318 
L 156.359044 281.921506 
L 156.472233 281.921506 
L 156.472233 280.8576 
L 156.677186 280.8576 
L 156.677186 279.793694 
L 156.807772 279.793694 
L 156.817409 277.665882 
L 156.93267 277.665882 
L 156.93267 276.601976 
L 157.43346 276.601976 
L 157.438121 274.474165 
L 157.549652 274.474165 
L 157.549652 273.410259 
L 157.701936 273.410259 
L 157.784483 271.282447 
L 158.066071 271.282447 
L 158.147039 269.154635 
L 158.299035 269.154635 
L 158.339064 267.026824 
L 158.458644 267.026824 
L 158.458644 265.962918 
L 158.665004 265.962918 
L 158.682463 262.7712 
L 159.109477 262.7712 
L 159.143564 259.579482 
L 159.363634 259.579482 
L 159.363634 258.515576 
L 159.564516 258.515576 
L 159.564516 257.451671 
L 159.717911 257.451671 
L 159.796198 254.259953 
L 159.841374 254.259953 
L 159.853676 252.132141 
L 160.037244 252.132141 
L 160.114216 250.004329 
L 160.154602 250.004329 
L 160.215018 246.812612 
L 160.355239 246.812612 
L 160.387143 244.6848 
L 160.518179 244.6848 
L 160.597153 242.556988 
L 160.640448 242.556988 
L 160.640448 241.493082 
L 160.851552 241.493082 
L 160.92527 236.173553 
L 161.091045 236.173553 
L 161.18294 232.981835 
L 161.22872 232.981835 
L 161.308567 229.790118 
L 161.497325 229.790118 
L 161.512345 227.662306 
L 161.665604 227.662306 
L 161.728786 224.470588 
L 161.850832 224.470588 
L 161.953768 221.278871 
L 162.04885 221.278871 
L 162.150711 219.151059 
L 162.244805 219.151059 
L 162.342023 214.895435 
L 162.399397 214.895435 
L 162.424443 212.767624 
L 162.534963 212.767624 
L 162.630697 208.512 
L 162.736499 208.512 
L 162.736499 207.448094 
L 162.904554 207.448094 
L 163.012297 204.256376 
L 163.081483 204.256376 
L 163.164171 201.064659 
L 163.195086 201.064659 
L 163.212239 198.936847 
L 163.379514 198.936847 
L 163.471055 195.745129 
L 163.504846 195.745129 
L 163.535206 193.617318 
L 163.629348 193.617318 
L 163.726358 191.489506 
L 163.763025 191.489506 
L 163.872597 187.233882 
L 164.001274 187.233882 
L 164.099661 185.106071 
L 164.142137 185.106071 
L 164.217051 179.786541 
L 164.288429 179.786541 
L 164.378885 177.658729 
L 164.407868 177.658729 
L 164.446443 175.530918 
L 164.532948 175.530918 
L 164.606324 172.3392 
L 164.660376 172.3392 
L 164.660376 171.275294 
L 164.88132 171.275294 
L 164.990826 165.955765 
L 165.034451 165.955765 
L 165.118299 161.700141 
L 165.186345 161.700141 
L 165.217194 159.572329 
L 165.312505 159.572329 
L 165.422585 155.316706 
L 165.495616 155.316706 
L 165.535057 152.124988 
L 165.63782 152.124988 
L 165.734027 146.805459 
L 165.755007 146.805459 
L 165.820792 144.677647 
L 165.936849 144.677647 
L 165.999046 140.422024 
L 166.069877 140.422024 
L 166.093428 137.230306 
L 166.225357 137.230306 
L 166.286609 131.910776 
L 166.382461 131.910776 
L 166.454752 128.719059 
L 166.523891 128.719059 
L 166.60137 124.463435 
L 166.738327 124.463435 
L 166.840394 114.888282 
L 166.857352 114.888282 
L 166.857352 113.824376 
L 167.000877 113.824376 
L 167.073627 110.632659 
L 167.140533 110.632659 
L 167.251516 106.377035 
L 167.317792 106.377035 
L 167.4058 102.121412 
L 167.444174 102.121412 
L 167.520688 97.865788 
L 167.645719 97.865788 
L 167.69712 93.610165 
L 167.769923 93.610165 
L 167.769923 91.482353 
L 167.909348 91.482353 
L 167.986658 85.098918 
L 168.108639 85.098918 
L 168.174603 77.651576 
L 168.240336 77.651576 
L 168.350254 72.332047 
L 168.4725 72.332047 
L 168.575917 68.076424 
L 168.596533 68.076424 
L 168.676205 60.629082 
L 168.732542 60.629082 
L 168.798906 57.437365 
L 168.903083 57.437365 
L 168.986516 49.990024 
L 169.044448 49.990024 
L 169.147278 45.7344 
L 169.234617 45.7344 
L 169.316595 42.542682 
L 169.358688 42.542682 
L 169.454898 37.223153 
L 169.548171 37.223153 
L 169.626359 35.095341 
L 169.750303 35.095341 
L 169.798687 32.967529 
L 169.902292 32.967529 
L 170.012498 30.839718 
L 170.131559 30.839718 
L 170.219181 28.711906 
L 170.39087 28.711906 
L 170.39087 27.648 
L 360.8064 27.648 
L 360.8064 27.648 
" style="fill: none; stroke: #ff7500; stroke-width: 1.5; stroke-linecap: square"/>
   </g>
   <g id="line2d_45">
    <defs>
     <path id="mc94f715509" d="M 0 -6 
L -1.347084 -1.854102 
L -5.706339 -1.854102 
L -2.179628 0.708204 
L -3.526712 4.854102 
L -0 2.291796 
L 3.526712 4.854102 
L 2.179628 0.708204 
L 5.706339 -1.854102 
L 1.347084 -1.854102 
z
" style="stroke: #ff7500; stroke-width: 1.5; stroke-linejoin: bevel"/>
    </defs>
    <g>
     <use xlink:href="#mc94f715509" x="167.073627" y="111.696565" style="fill-opacity: 0; stroke: #ff7500; stroke-width: 1.5; stroke-linejoin: bevel"/>
     <use xlink:href="#mc94f715509" x="170.39087" y="28.711906" style="fill-opacity: 0; stroke: #ff7500; stroke-width: 1.5; stroke-linejoin: bevel"/>
     <use xlink:href="#mc94f715509" x="170.39087" y="27.648" style="fill-opacity: 0; stroke: #ff7500; stroke-width: 1.5; stroke-linejoin: bevel"/>
     <use xlink:href="#mc94f715509" x="170.39087" y="27.648" style="fill-opacity: 0; stroke: #ff7500; stroke-width: 1.5; stroke-linejoin: bevel"/>
     <use xlink:href="#mc94f715509" x="360.8064" y="27.648" style="fill-opacity: 0; stroke: #ff7500; stroke-width: 1.5; stroke-linejoin: bevel"/>
    </g>
   </g>
   <g id="line2d_46">
    <path style="fill: none; stroke: #ff7500; stroke-width: 1.5; stroke-linecap: square"/>
    <g/>
   </g>
   <g id="line2d_47">
    <defs>
     <path id="m6d724dc40c" d="M 0 1.5 
C 0.397805 1.5 0.77937 1.341951 1.06066 1.06066 
C 1.341951 0.77937 1.5 0.397805 1.5 0 
C 1.5 -0.397805 1.341951 -0.77937 1.06066 -1.06066 
C 0.77937 -1.341951 0.397805 -1.5 0 -1.5 
C -0.397805 -1.5 -0.77937 -1.341951 -1.06066 -1.06066 
C -1.341951 -0.77937 -1.5 -0.397805 -1.5 0 
C -1.5 0.397805 -1.341951 0.77937 -1.06066 1.06066 
C -0.77937 1.341951 -0.397805 1.5 0 1.5 
z
" style="stroke: #6495ed"/>
    </defs>
    <g>
     <use xlink:href="#m6d724dc40c" x="169.971845" y="27.648" style="fill: #6495ed; stroke: #6495ed"/>
     <use xlink:href="#m6d724dc40c" x="169.971845" y="27.648" style="fill: #6495ed; stroke: #6495ed"/>
    </g>
   </g>
   <g id="line2d_48">
    <path d="M 151.381561 298.944 
L 151.381561 298.589365 
L 152.733797 298.589365 
L 152.733797 298.234729 
L 152.859068 298.234729 
L 152.859068 297.525459 
L 153.036593 297.525459 
L 153.036593 297.170824 
L 153.559331 297.170824 
L 153.667854 296.461553 
L 153.679241 296.461553 
L 153.679241 296.106918 
L 154.034453 296.106918 
L 154.079083 295.397647 
L 154.289641 295.397647 
L 154.333671 294.333741 
L 154.590283 294.333741 
L 154.590283 293.979106 
L 154.779128 293.979106 
L 154.779128 293.624471 
L 154.944823 293.624471 
L 154.950144 292.9152 
L 155.18278 292.9152 
L 155.18278 292.560565 
L 155.365798 292.560565 
L 155.454055 291.851294 
L 155.685695 291.851294 
L 155.792826 290.787388 
L 155.833477 290.787388 
L 155.833477 290.432753 
L 155.97507 290.432753 
L 155.97507 290.078118 
L 156.115606 290.078118 
L 156.200421 288.659576 
L 156.250135 288.659576 
L 156.304668 287.241035 
L 156.423104 287.241035 
L 156.423104 286.8864 
L 156.570108 286.8864 
L 156.570108 286.531765 
L 156.720816 286.531765 
L 156.783658 284.758588 
L 156.870325 284.758588 
L 156.980488 283.694682 
L 156.990037 283.694682 
L 157.099504 282.276141 
L 157.1469 282.276141 
L 157.198899 281.566871 
L 157.382107 281.566871 
L 157.461411 280.8576 
L 157.512549 280.8576 
L 157.563547 279.793694 
L 157.651312 279.793694 
L 157.76159 278.375153 
L 157.839314 278.375153 
L 157.934885 276.247341 
L 158.039004 276.247341 
L 158.111097 275.538071 
L 158.1605 275.538071 
L 158.24553 274.474165 
L 158.294582 274.474165 
L 158.392304 273.055624 
L 158.454228 273.055624 
L 158.551127 271.991718 
L 158.577468 271.991718 
L 158.673735 270.573176 
L 158.691186 270.573176 
L 158.786875 269.154635 
L 158.81722 269.154635 
L 158.912271 267.736094 
L 158.933807 267.736094 
L 159.019705 266.317553 
L 159.096679 266.317553 
L 159.143564 265.253647 
L 159.253921 265.253647 
L 159.270841 264.544376 
L 159.372047 264.544376 
L 159.476894 263.125835 
L 159.485256 263.125835 
L 159.564516 261.707294 
L 159.606097 261.707294 
L 159.651731 260.998024 
L 159.726167 260.998024 
L 159.829064 259.934118 
L 159.853676 259.934118 
L 159.898714 258.870212 
L 159.988467 258.870212 
L 160.053475 257.097035 
L 160.118259 257.097035 
L 160.223059 255.678494 
L 160.2592 255.678494 
L 160.355239 253.550682 
L 160.399093 253.550682 
L 160.49046 252.486776 
L 160.549809 252.486776 
L 160.656167 251.068235 
L 160.683643 251.068235 
L 160.777545 248.940424 
L 160.894266 248.940424 
L 160.979404 245.748706 
L 161.006413 245.748706 
L 161.052623 244.6848 
L 161.156184 244.6848 
L 161.259177 243.266259 
L 161.300977 243.266259 
L 161.391854 240.074541 
L 161.42959 240.074541 
L 161.516098 238.656 
L 161.590999 238.656 
L 161.691646 236.173553 
L 161.702796 236.173553 
L 161.78066 234.045741 
L 161.821317 234.045741 
L 161.928087 231.563294 
L 161.942766 231.563294 
L 162.02695 229.790118 
L 162.070724 229.790118 
L 162.157966 226.243765 
L 162.194198 226.243765 
L 162.270058 224.825224 
L 162.334839 224.825224 
L 162.43874 222.342776 
L 162.449456 222.342776 
L 162.549177 220.5696 
L 162.570477 220.5696 
L 162.651905 219.151059 
L 162.683672 219.151059 
L 162.761101 215.959341 
L 162.806704 215.959341 
L 162.880139 214.5408 
L 162.935898 214.5408 
L 163.040002 211.349082 
L 163.053839 211.349082 
L 163.143533 208.866635 
L 163.195086 208.866635 
L 163.304595 204.965647 
L 163.325057 204.965647 
L 163.406684 202.4832 
L 163.437203 202.4832 
L 163.531835 199.646118 
L 163.582336 199.646118 
L 163.692963 197.163671 
L 163.726358 197.163671 
L 163.819551 194.681224 
L 163.849408 194.681224 
L 163.945293 193.262682 
L 163.96507 193.262682 
L 164.05709 189.716329 
L 164.080025 189.716329 
L 164.168227 186.169976 
L 164.220301 186.169976 
L 164.324018 184.3968 
L 164.356312 184.3968 
L 164.462492 180.850447 
L 164.529751 180.850447 
L 164.638138 177.304094 
L 164.641317 177.304094 
L 164.749065 173.757741 
L 164.774328 173.757741 
L 164.88132 169.856753 
L 164.903272 169.856753 
L 165.012651 167.374306 
L 165.021997 167.374306 
L 165.121398 163.827953 
L 165.14926 163.827953 
L 165.257222 161.345506 
L 165.269521 161.345506 
L 165.364567 157.089882 
L 165.392072 157.089882 
L 165.498653 154.607435 
L 165.535057 154.607435 
L 165.643847 151.770353 
L 165.649872 151.770353 
L 165.746019 148.578635 
L 165.763991 148.578635 
L 165.874446 145.386918 
L 165.892297 145.386918 
L 165.96353 142.1952 
L 166.004959 142.1952 
L 166.114011 137.230306 
L 166.11695 137.230306 
L 166.199045 134.747859 
L 166.231199 134.747859 
L 166.327333 131.556141 
L 166.350564 131.556141 
L 166.448979 126.591247 
L 166.463408 126.591247 
L 166.561235 123.754165 
L 166.578446 123.754165 
L 166.684234 119.853176 
L 166.721261 119.853176 
L 166.800767 115.242918 
L 166.834738 115.242918 
L 166.941911 113.115106 
L 166.947535 113.115106 
L 167.056864 109.568753 
L 167.070834 109.568753 
L 167.162782 106.377035 
L 167.185004 106.377035 
L 167.292966 102.830682 
L 167.309521 102.830682 
L 167.414029 98.220424 
L 167.435958 98.220424 
L 167.539768 93.610165 
L 167.553385 93.610165 
L 167.63759 91.127718 
L 167.664672 91.127718 
L 167.775305 87.936 
L 167.780685 87.936 
L 167.885291 84.035012 
L 167.89866 84.035012 
L 167.981336 80.843294 
L 168.034484 80.843294 
L 168.12185 77.296941 
L 168.150883 77.296941 
L 168.245585 73.041318 
L 168.266565 73.041318 
L 168.37633 67.721788 
L 168.378936 67.721788 
L 168.482867 64.530071 
L 168.503585 64.530071 
L 168.614553 59.210541 
L 168.62227 59.210541 
L 168.699272 54.245647 
L 168.735099 54.245647 
L 168.844713 50.344659 
L 168.867575 50.344659 
L 168.976423 45.025129 
L 169.006686 45.025129 
L 169.102202 42.897318 
L 169.127258 42.897318 
L 169.234617 40.060235 
L 169.25701 40.060235 
L 169.358688 37.223153 
L 169.368578 37.223153 
L 169.452437 34.740706 
L 169.528573 34.740706 
L 169.638546 32.258259 
L 169.653161 32.258259 
L 169.721213 30.485082 
L 169.813178 30.485082 
L 169.909499 28.357271 
L 169.962267 28.357271 
L 169.971845 27.648 
L 360.8064 27.648 
L 360.8064 27.648 
" style="fill: none; stroke: #6495ed; stroke-width: 1.5; stroke-linecap: square"/>
   </g>
   <g id="line2d_49">
    <defs>
     <path id="m149d6400cb" d="M -0 6 
L 6 -6 
L -6 -6 
z
" style="stroke: #6495ed; stroke-width: 1.5; stroke-linejoin: miter"/>
    </defs>
    <g>
     <use xlink:href="#m149d6400cb" x="165.392072" y="157.089882" style="fill-opacity: 0; stroke: #6495ed; stroke-width: 1.5; stroke-linejoin: miter"/>
     <use xlink:href="#m149d6400cb" x="169.971845" y="28.002635" style="fill-opacity: 0; stroke: #6495ed; stroke-width: 1.5; stroke-linejoin: miter"/>
     <use xlink:href="#m149d6400cb" x="169.971845" y="27.648" style="fill-opacity: 0; stroke: #6495ed; stroke-width: 1.5; stroke-linejoin: miter"/>
     <use xlink:href="#m149d6400cb" x="169.971845" y="27.648" style="fill-opacity: 0; stroke: #6495ed; stroke-width: 1.5; stroke-linejoin: miter"/>
     <use xlink:href="#m149d6400cb" x="360.8064" y="27.648" style="fill-opacity: 0; stroke: #6495ed; stroke-width: 1.5; stroke-linejoin: miter"/>
    </g>
   </g>
   <g id="line2d_50">
    <path style="fill: none; stroke: #6495ed; stroke-width: 1.5; stroke-linecap: square"/>
    <g/>
   </g>
   <g id="line2d_51">
    <path d="M 360.8064 27.648 
L 380.514816 293.51808 
" style="fill: none; stroke: #ff00ff; stroke-width: 1.5; stroke-linecap: square"/>
    <g>
     <use xlink:href="#ma7b869722d" x="360.8064" y="27.648" style="fill-opacity: 0; stroke: #ff00ff; stroke-width: 1.5; stroke-linejoin: miter"/>
     <use xlink:href="#ma7b869722d" x="380.514816" y="293.51808" style="fill-opacity: 0; stroke: #ff00ff; stroke-width: 1.5; stroke-linejoin: miter"/>
    </g>
   </g>
   <g id="line2d_52">
    <path d="M 360.8064 27.648 
L 380.514816 163.296 
" style="fill: none; stroke: #ff7500; stroke-width: 1.5; stroke-linecap: square"/>
    <g>
     <use xlink:href="#mc94f715509" x="360.8064" y="27.648" style="fill-opacity: 0; stroke: #ff7500; stroke-width: 1.5; stroke-linejoin: bevel"/>
     <use xlink:href="#mc94f715509" x="380.514816" y="163.296" style="fill-opacity: 0; stroke: #ff7500; stroke-width: 1.5; stroke-linejoin: bevel"/>
    </g>
   </g>
   <g id="line2d_53">
    <path d="M 360.8064 27.648 
L 380.514816 98.18496 
" style="fill: none; stroke: #6495ed; stroke-width: 1.5; stroke-linecap: square"/>
    <g>
     <use xlink:href="#m149d6400cb" x="360.8064" y="27.648" style="fill-opacity: 0; stroke: #6495ed; stroke-width: 1.5; stroke-linejoin: miter"/>
     <use xlink:href="#m149d6400cb" x="380.514816" y="98.18496" style="fill-opacity: 0; stroke: #6495ed; stroke-width: 1.5; stroke-linejoin: miter"/>
    </g>
   </g>
   <g id="line2d_54">
    <path d="M 360.8064 27.648 
L 380.514816 33.07392 
" style="fill: none; stroke: #000080; stroke-width: 1.5; stroke-linecap: square"/>
    <g>
     <use xlink:href="#m7ea0293dd9" x="360.8064" y="27.648" style="fill-opacity: 0; stroke: #000080; stroke-width: 1.5"/>
     <use xlink:href="#m7ea0293dd9" x="380.514816" y="33.07392" style="fill-opacity: 0; stroke: #000080; stroke-width: 1.5"/>
    </g>
   </g>
   <g id="line2d_55">
    <path d="M 360.8064 298.944 
L 360.8064 27.648 
" style="fill: none; stroke: #000000; stroke-width: 1.5; stroke-linecap: square"/>
   </g>
   <g id="patch_3">
    <path d="M 57.6 298.944 
L 360.8064 298.944 
" style="fill: none; stroke: #000000; stroke-width: 0.8; stroke-linejoin: miter; stroke-linecap: square"/>
   </g>
   <g id="patch_4">
    <path d="M 57.6 27.648 
L 360.8064 27.648 
" style="fill: none; stroke: #000000; stroke-width: 0.8; stroke-linejoin: miter; stroke-linecap: square"/>
   </g>
   <g id="text_13">
    <!-- ex -->
    <g transform="translate(386.578944 297.381205)scale(0.14 -0.14)">
     <defs>
      <path id="DejaVuSans-78" d="M 3513 3500 
L 2247 1797 
L 3578 0 
L 2900 0 
L 1881 1375 
L 863 0 
L 184 0 
L 1544 1831 
L 300 3500 
L 978 3500 
L 1906 2253 
L 2834 3500 
L 3513 3500 
z
" transform="scale(0.015625)"/>
     </defs>
     <use xlink:href="#DejaVuSans-65"/>
     <use xlink:href="#DejaVuSans-78" x="59.773438"/>
    </g>
   </g>
   <g id="text_14">
    <!-- best 2009 -->
    <g transform="translate(386.578944 232.270165)scale(0.14 -0.14)">
     <defs>
      <path id="DejaVuSans-62" d="M 3116 1747 
Q 3116 2381 2855 2742 
Q 2594 3103 2138 3103 
Q 1681 3103 1420 2742 
Q 1159 2381 1159 1747 
Q 1159 1113 1420 752 
Q 1681 391 2138 391 
Q 2594 391 2855 752 
Q 3116 1113 3116 1747 
z
M 1159 2969 
Q 1341 3281 1617 3432 
Q 1894 3584 2278 3584 
Q 2916 3584 3314 3078 
Q 3713 2572 3713 1747 
Q 3713 922 3314 415 
Q 2916 -91 2278 -91 
Q 1894 -91 1617 61 
Q 1341 213 1159 525 
L 1159 0 
L 581 0 
L 581 4863 
L 1159 4863 
L 1159 2969 
z
" transform="scale(0.015625)"/>
      <path id="DejaVuSans-39" d="M 703 97 
L 703 672 
Q 941 559 1184 500 
Q 1428 441 1663 441 
Q 2288 441 2617 861 
Q 2947 1281 2994 2138 
Q 2813 1869 2534 1725 
Q 2256 1581 1919 1581 
Q 1219 1581 811 2004 
Q 403 2428 403 3163 
Q 403 3881 828 4315 
Q 1253 4750 1959 4750 
Q 2769 4750 3195 4129 
Q 3622 3509 3622 2328 
Q 3622 1225 3098 567 
Q 2575 -91 1691 -91 
Q 1453 -91 1209 -44 
Q 966 3 703 97 
z
M 1959 2075 
Q 2384 2075 2632 2365 
Q 2881 2656 2881 3163 
Q 2881 3666 2632 3958 
Q 2384 4250 1959 4250 
Q 1534 4250 1286 3958 
Q 1038 3666 1038 3163 
Q 1038 2656 1286 2365 
Q 1534 2075 1959 2075 
z
" transform="scale(0.015625)"/>
     </defs>
     <use xlink:href="#DejaVuSans-62"/>
     <use xlink:href="#DejaVuSans-65" x="63.476562"/>
     <use xlink:href="#DejaVuSans-73" x="125"/>
     <use xlink:href="#DejaVuSans-74" x="177.099609"/>
     <use xlink:href="#DejaVuSans-20" x="216.308594"/>
     <use xlink:href="#DejaVuSans-32" x="248.095703"/>
     <use xlink:href="#DejaVuSans-30" x="311.71875"/>
     <use xlink:href="#DejaVuSans-30" x="375.341797"/>
     <use xlink:href="#DejaVuSans-39" x="438.964844"/>
    </g>
   </g>
   <g id="text_15">
    <!-- fmin of d -->
    <g transform="translate(386.578944 167.159125)scale(0.14 -0.14)">
     <use xlink:href="#DejaVuSans-66"/>
     <use xlink:href="#DejaVuSans-6d" x="35.205078"/>
     <use xlink:href="#DejaVuSans-69" x="132.617188"/>
     <use xlink:href="#DejaVuSans-6e" x="160.400391"/>
     <use xlink:href="#DejaVuSans-20" x="223.779297"/>
     <use xlink:href="#DejaVuSans-6f" x="255.566406"/>
     <use xlink:href="#DejaVuSans-66" x="316.748047"/>
     <use xlink:href="#DejaVuSans-20" x="351.953125"/>
     <use xlink:href="#DejaVuSans-64" x="383.740234"/>
    </g>
   </g>
   <g id="text_16">
    <!-- CMA-ES-20 -->
    <g transform="translate(386.578944 102.048085)scale(0.14 -0.14)">
     <defs>
      <path id="DejaVuSans-43" d="M 4122 4306 
L 4122 3641 
Q 3803 3938 3442 4084 
Q 3081 4231 2675 4231 
Q 1875 4231 1450 3742 
Q 1025 3253 1025 2328 
Q 1025 1406 1450 917 
Q 1875 428 2675 428 
Q 3081 428 3442 575 
Q 3803 722 4122 1019 
L 4122 359 
Q 3791 134 3420 21 
Q 3050 -91 2638 -91 
Q 1578 -91 968 557 
Q 359 1206 359 2328 
Q 359 3453 968 4101 
Q 1578 4750 2638 4750 
Q 3056 4750 3426 4639 
Q 3797 4528 4122 4306 
z
" transform="scale(0.015625)"/>
      <path id="DejaVuSans-4d" d="M 628 4666 
L 1569 4666 
L 2759 1491 
L 3956 4666 
L 4897 4666 
L 4897 0 
L 4281 0 
L 4281 4097 
L 3078 897 
L 2444 897 
L 1241 4097 
L 1241 0 
L 628 0 
L 628 4666 
z
" transform="scale(0.015625)"/>
      <path id="DejaVuSans-41" d="M 2188 4044 
L 1331 1722 
L 3047 1722 
L 2188 4044 
z
M 1831 4666 
L 2547 4666 
L 4325 0 
L 3669 0 
L 3244 1197 
L 1141 1197 
L 716 0 
L 50 0 
L 1831 4666 
z
" transform="scale(0.015625)"/>
      <path id="DejaVuSans-45" d="M 628 4666 
L 3578 4666 
L 3578 4134 
L 1259 4134 
L 1259 2753 
L 3481 2753 
L 3481 2222 
L 1259 2222 
L 1259 531 
L 3634 531 
L 3634 0 
L 628 0 
L 628 4666 
z
" transform="scale(0.015625)"/>
      <path id="DejaVuSans-53" d="M 3425 4513 
L 3425 3897 
Q 3066 4069 2747 4153 
Q 2428 4238 2131 4238 
Q 1616 4238 1336 4038 
Q 1056 3838 1056 3469 
Q 1056 3159 1242 3001 
Q 1428 2844 1947 2747 
L 2328 2669 
Q 3034 2534 3370 2195 
Q 3706 1856 3706 1288 
Q 3706 609 3251 259 
Q 2797 -91 1919 -91 
Q 1588 -91 1214 -16 
Q 841 59 441 206 
L 441 856 
Q 825 641 1194 531 
Q 1563 422 1919 422 
Q 2459 422 2753 634 
Q 3047 847 3047 1241 
Q 3047 1584 2836 1778 
Q 2625 1972 2144 2069 
L 1759 2144 
Q 1053 2284 737 2584 
Q 422 2884 422 3419 
Q 422 4038 858 4394 
Q 1294 4750 2059 4750 
Q 2388 4750 2728 4690 
Q 3069 4631 3425 4513 
z
" transform="scale(0.015625)"/>
     </defs>
     <use xlink:href="#DejaVuSans-43"/>
     <use xlink:href="#DejaVuSans-4d" x="69.824219"/>
     <use xlink:href="#DejaVuSans-41" x="156.103516"/>
     <use xlink:href="#DejaVuSans-2d" x="222.261719"/>
     <use xlink:href="#DejaVuSans-45" x="258.345703"/>
     <use xlink:href="#DejaVuSans-53" x="321.529297"/>
     <use xlink:href="#DejaVuSans-2d" x="385.005859"/>
     <use xlink:href="#DejaVuSans-32" x="421.089844"/>
     <use xlink:href="#DejaVuSans-30" x="484.712891"/>
    </g>
   </g>
   <g id="text_17">
    <!-- fmin2 of  -->
    <g transform="translate(386.578944 36.937045)scale(0.14 -0.14)">
     <use xlink:href="#DejaVuSans-66"/>
     <use xlink:href="#DejaVuSans-6d" x="35.205078"/>
     <use xlink:href="#DejaVuSans-69" x="132.617188"/>
     <use xlink:href="#DejaVuSans-6e" x="160.400391"/>
     <use xlink:href="#DejaVuSans-32" x="223.779297"/>
     <use xlink:href="#DejaVuSans-20" x="287.402344"/>
     <use xlink:href="#DejaVuSans-6f" x="319.189453"/>
     <use xlink:href="#DejaVuSans-66" x="380.371094"/>
     <use xlink:href="#DejaVuSans-20" x="415.576172"/>
    </g>
   </g>
   <g id="text_18">
    <!-- bbob f11, 20-D -->
    <g transform="translate(60.632064 38.111366)scale(0.102 -0.102)">
     <defs>
      <path id="DejaVuSans-44" d="M 1259 4147 
L 1259 519 
L 2022 519 
Q 2988 519 3436 956 
Q 3884 1394 3884 2338 
Q 3884 3275 3436 3711 
Q 2988 4147 2022 4147 
L 1259 4147 
z
M 628 4666 
L 1925 4666 
Q 3281 4666 3915 4102 
Q 4550 3538 4550 2338 
Q 4550 1131 3912 565 
Q 3275 0 1925 0 
L 628 0 
L 628 4666 
z
" transform="scale(0.015625)"/>
     </defs>
     <use xlink:href="#DejaVuSans-62"/>
     <use xlink:href="#DejaVuSans-62" x="63.476562"/>
     <use xlink:href="#DejaVuSans-6f" x="126.953125"/>
     <use xlink:href="#DejaVuSans-62" x="188.134766"/>
     <use xlink:href="#DejaVuSans-20" x="251.611328"/>
     <use xlink:href="#DejaVuSans-66" x="283.398438"/>
     <use xlink:href="#DejaVuSans-31" x="318.603516"/>
     <use xlink:href="#DejaVuSans-31" x="382.226562"/>
     <use xlink:href="#DejaVuSans-2c" x="445.849609"/>
     <use xlink:href="#DejaVuSans-20" x="477.636719"/>
     <use xlink:href="#DejaVuSans-32" x="509.423828"/>
     <use xlink:href="#DejaVuSans-30" x="573.046875"/>
     <use xlink:href="#DejaVuSans-2d" x="636.669922"/>
     <use xlink:href="#DejaVuSans-44" x="672.753906"/>
    </g>
    <!-- 51 targets: 100..1e-08 -->
    <g transform="translate(60.632064 49.533135)scale(0.102 -0.102)">
     <defs>
      <path id="DejaVuSans-35" d="M 691 4666 
L 3169 4666 
L 3169 4134 
L 1269 4134 
L 1269 2991 
Q 1406 3038 1543 3061 
Q 1681 3084 1819 3084 
Q 2600 3084 3056 2656 
Q 3513 2228 3513 1497 
Q 3513 744 3044 326 
Q 2575 -91 1722 -91 
Q 1428 -91 1123 -41 
Q 819 9 494 109 
L 494 744 
Q 775 591 1075 516 
Q 1375 441 1709 441 
Q 2250 441 2565 725 
Q 2881 1009 2881 1497 
Q 2881 1984 2565 2268 
Q 2250 2553 1709 2553 
Q 1456 2553 1204 2497 
Q 953 2441 691 2322 
L 691 4666 
z
" transform="scale(0.015625)"/>
      <path id="DejaVuSans-3a" d="M 750 794 
L 1409 794 
L 1409 0 
L 750 0 
L 750 794 
z
M 750 3309 
L 1409 3309 
L 1409 2516 
L 750 2516 
L 750 3309 
z
" transform="scale(0.015625)"/>
     </defs>
     <use xlink:href="#DejaVuSans-35"/>
     <use xlink:href="#DejaVuSans-31" x="63.623047"/>
     <use xlink:href="#DejaVuSans-20" x="127.246094"/>
     <use xlink:href="#DejaVuSans-74" x="159.033203"/>
     <use xlink:href="#DejaVuSans-61" x="198.242188"/>
     <use xlink:href="#DejaVuSans-72" x="259.521484"/>
     <use xlink:href="#DejaVuSans-67" x="298.884766"/>
     <use xlink:href="#DejaVuSans-65" x="362.361328"/>
     <use xlink:href="#DejaVuSans-74" x="423.884766"/>
     <use xlink:href="#DejaVuSans-73" x="463.09375"/>
     <use xlink:href="#DejaVuSans-3a" x="515.193359"/>
     <use xlink:href="#DejaVuSans-20" x="548.884766"/>
     <use xlink:href="#DejaVuSans-31" x="580.671875"/>
     <use xlink:href="#DejaVuSans-30" x="644.294922"/>
     <use xlink:href="#DejaVuSans-30" x="707.917969"/>
     <use xlink:href="#DejaVuSans-2e" x="771.541016"/>
     <use xlink:href="#DejaVuSans-2e" x="803.328125"/>
     <use xlink:href="#DejaVuSans-31" x="835.115234"/>
     <use xlink:href="#DejaVuSans-65" x="898.738281"/>
     <use xlink:href="#DejaVuSans-2d" x="960.261719"/>
     <use xlink:href="#DejaVuSans-30" x="996.345703"/>
     <use xlink:href="#DejaVuSans-38" x="1059.96875"/>
    </g>
    <!-- 25, 5, 15 instances -->
    <g transform="translate(60.632064 60.954904)scale(0.102 -0.102)">
     <use xlink:href="#DejaVuSans-32"/>
     <use xlink:href="#DejaVuSans-35" x="63.623047"/>
     <use xlink:href="#DejaVuSans-2c" x="127.246094"/>
     <use xlink:href="#DejaVuSans-20" x="159.033203"/>
     <use xlink:href="#DejaVuSans-35" x="190.820312"/>
     <use xlink:href="#DejaVuSans-2c" x="254.443359"/>
     <use xlink:href="#DejaVuSans-20" x="286.230469"/>
     <use xlink:href="#DejaVuSans-31" x="318.017578"/>
     <use xlink:href="#DejaVuSans-35" x="381.640625"/>
     <use xlink:href="#DejaVuSans-20" x="445.263672"/>
     <use xlink:href="#DejaVuSans-69" x="477.050781"/>
     <use xlink:href="#DejaVuSans-6e" x="504.833984"/>
     <use xlink:href="#DejaVuSans-73" x="568.212891"/>
     <use xlink:href="#DejaVuSans-74" x="620.3125"/>
     <use xlink:href="#DejaVuSans-61" x="659.521484"/>
     <use xlink:href="#DejaVuSans-6e" x="720.800781"/>
     <use xlink:href="#DejaVuSans-63" x="784.179688"/>
     <use xlink:href="#DejaVuSans-65" x="839.160156"/>
     <use xlink:href="#DejaVuSans-73" x="900.683594"/>
    </g>
   </g>
   <g id="text_19">
    <!-- v2.6 -->
    <g style="fill: #808080" transform="translate(198.292262 294.151352)scale(0.1 -0.1)">
     <use xlink:href="#DejaVuSans-76"/>
     <use xlink:href="#DejaVuSans-32" x="59.179688"/>
     <use xlink:href="#DejaVuSans-2e" x="122.802734"/>
     <use xlink:href="#DejaVuSans-36" x="154.589844"/>
    </g>
   </g>
   <g id="text_20">
    <!-- 11 Discus -->
    <g transform="translate(160.567262 21.648)scale(0.2 -0.2)">
     <use xlink:href="#DejaVuSans-31"/>
     <use xlink:href="#DejaVuSans-31" x="63.623047"/>
     <use xlink:href="#DejaVuSans-20" x="127.246094"/>
     <use xlink:href="#DejaVuSans-44" x="159.033203"/>
     <use xlink:href="#DejaVuSans-69" x="236.035156"/>
     <use xlink:href="#DejaVuSans-73" x="263.818359"/>
     <use xlink:href="#DejaVuSans-63" x="315.917969"/>
     <use xlink:href="#DejaVuSans-75" x="370.898438"/>
     <use xlink:href="#DejaVuSans-73" x="434.277344"/>
    </g>
   </g>
  </g>
 </g>
 <defs>
  <clipPath id="pa845ae35a9">
   <rect x="57.6" y="27.648" width="303.2064" height="271.296"/>
  </clipPath>
 </defs>
</svg>
