<?xml version="1.0" encoding="utf-8" standalone="no"?>
<!DOCTYPE svg PUBLIC "-//W3C//DTD SVG 1.1//EN"
  "http://www.w3.org/Graphics/SVG/1.1/DTD/svg11.dtd">
<svg xmlns:xlink="http://www.w3.org/1999/xlink" width="460.8pt" height="345.6pt" viewBox="0 0 460.8 345.6" xmlns="http://www.w3.org/2000/svg" version="1.1">
 <metadata>
  <rdf:RDF xmlns:dc="http://purl.org/dc/elements/1.1/" xmlns:cc="http://creativecommons.org/ns#" xmlns:rdf="http://www.w3.org/1999/02/22-rdf-syntax-ns#">
   <cc:Work>
    <dc:type rdf:resource="http://purl.org/dc/dcmitype/StillImage"/>
    <dc:date>2022-03-17T01:35:12.825054</dc:date>
    <dc:format>image/svg+xml</dc:format>
    <dc:creator>
     <cc:Agent>
      <dc:title>Matplotlib v3.5.1, https://matplotlib.org/</dc:title>
     </cc:Agent>
    </dc:creator>
   </cc:Work>
  </rdf:RDF>
 </metadata>
 <defs>
  <style type="text/css">*{stroke-linejoin: round; stroke-linecap: butt}</style>
 </defs>
 <g id="figure_1">
  <g id="patch_1">
   <path d="M 0 345.6 
L 460.8 345.6 
L 460.8 0 
L 0 0 
z
" style="fill: #ffffff"/>
  </g>
  <g id="axes_1">
   <g id="patch_2">
    <path d="M 57.6 298.944 
L 360.8064 298.944 
L 360.8064 27.648 
L 57.6 27.648 
z
" style="fill: #ffffff"/>
   </g>
   <g id="line2d_1">
    <path d="M 36.933397 298.944 
L 36.933397 272.346353 
L 57.6 272.346353 
L 57.6 267.026824 
L 89.090095 267.026824 
L 89.090095 261.707294 
L 108.119879 261.707294 
L 108.119879 256.387765 
L 119.129494 256.387765 
L 119.129494 251.068235 
L 136.413909 251.068235 
L 136.413909 245.748706 
L 149.968501 245.748706 
L 149.968501 240.429176 
L 158.513014 240.429176 
L 158.513014 235.109647 
L 159.898714 235.109647 
L 159.898714 229.790118 
L 162.56338 229.790118 
L 162.56338 224.470588 
L 163.554297 224.470588 
L 163.554297 219.151059 
L 165.021997 219.151059 
L 165.021997 213.831529 
L 165.874446 213.831529 
L 165.874446 208.512 
L 166.364103 208.512 
L 166.364103 203.192471 
L 168.842171 203.192471 
L 168.842171 197.872941 
L 169.244573 197.872941 
L 169.244573 192.553412 
L 170.542436 192.553412 
L 170.542436 187.233882 
L 170.650504 187.233882 
L 170.650504 181.914353 
L 172.746072 181.914353 
L 172.746072 176.594824 
L 172.842224 176.594824 
L 172.842224 171.275294 
L 181.787904 171.275294 
L 181.787904 165.955765 
L 181.830435 165.955765 
L 181.830435 160.636235 
L 181.898286 160.636235 
L 181.898286 155.316706 
L 181.991182 155.316706 
L 181.991182 149.997176 
L 182.075238 149.997176 
L 182.075238 144.677647 
L 182.117125 144.677647 
L 182.117125 139.358118 
L 182.158919 139.358118 
L 182.158919 134.038588 
L 182.20895 134.038588 
L 182.20895 128.719059 
L 182.283747 128.719059 
L 182.283747 123.399529 
L 182.308614 123.399529 
L 182.308614 118.08 
L 182.440683 118.08 
L 182.440683 112.760471 
L 182.489971 112.760471 
L 182.489971 107.440941 
L 182.53913 107.440941 
L 182.53913 102.121412 
L 182.579998 102.121412 
L 182.579998 96.801882 
L 182.710183 96.801882 
L 182.710183 91.482353 
L 182.774938 91.482353 
L 182.774938 86.162824 
L 182.831418 86.162824 
L 182.831418 80.843294 
L 182.871656 80.843294 
L 182.871656 75.523765 
L 182.911809 75.523765 
L 182.911809 70.204235 
L 183.182598 70.204235 
L 183.182598 64.884706 
L 183.261506 64.884706 
L 183.261506 59.565176 
L 183.292976 59.565176 
L 183.292976 54.245647 
L 183.340084 54.245647 
L 183.340084 48.926118 
L 183.387073 48.926118 
L 183.387073 43.606588 
L 183.433946 43.606588 
L 183.433946 38.287059 
L 183.488484 38.287059 
L 183.488484 32.967529 
L 183.550619 32.967529 
L 183.550619 27.648 
L 360.8064 27.648 
" style="fill: none; stroke: #f5deb3; stroke-width: 4; stroke-linecap: square"/>
   </g>
   <g id="line2d_2">
    <defs>
     <path id="m3d717877e0" d="M -0 7.778175 
L 7.778175 0 
L 0 -7.778175 
L -7.778175 -0 
z
" style="stroke: #f5deb3; stroke-width: 1.5; stroke-linejoin: miter"/>
    </defs>
    <g>
     <use xlink:href="#m3d717877e0" x="119.129494" y="256.387765" style="fill: #f5deb3; stroke: #f5deb3; stroke-width: 1.5; stroke-linejoin: miter"/>
     <use xlink:href="#m3d717877e0" x="170.650504" y="181.914353" style="fill: #f5deb3; stroke: #f5deb3; stroke-width: 1.5; stroke-linejoin: miter"/>
     <use xlink:href="#m3d717877e0" x="183.182598" y="64.884706" style="fill: #f5deb3; stroke: #f5deb3; stroke-width: 1.5; stroke-linejoin: miter"/>
     <use xlink:href="#m3d717877e0" x="183.550619" y="27.648" style="fill: #f5deb3; stroke: #f5deb3; stroke-width: 1.5; stroke-linejoin: miter"/>
     <use xlink:href="#m3d717877e0" x="183.550619" y="27.648" style="fill: #f5deb3; stroke: #f5deb3; stroke-width: 1.5; stroke-linejoin: miter"/>
     <use xlink:href="#m3d717877e0" x="360.8064" y="27.648" style="fill: #f5deb3; stroke: #f5deb3; stroke-width: 1.5; stroke-linejoin: miter"/>
    </g>
   </g>
   <g id="line2d_3">
    <path style="fill: none; stroke: #f5deb3; stroke-width: 4; stroke-linecap: square"/>
    <g/>
   </g>
   <g id="line2d_4">
    <path d="M 360.8064 27.648 
L 380.514816 33.07392 
" style="fill: none; stroke: #f5deb3; stroke-width: 4; stroke-linecap: square"/>
    <g>
     <use xlink:href="#m3d717877e0" x="360.8064" y="27.648" style="fill: #f5deb3; stroke: #f5deb3; stroke-width: 1.5; stroke-linejoin: miter"/>
     <use xlink:href="#m3d717877e0" x="380.514816" y="33.07392" style="fill: #f5deb3; stroke: #f5deb3; stroke-width: 1.5; stroke-linejoin: miter"/>
    </g>
   </g>
   <g id="matplotlib.axis_1">
    <g id="xtick_1">
     <g id="line2d_5">
      <path d="M 57.6 298.944 
L 57.6 27.648 
" clip-path="url(#pb8e4580ae2)" style="fill: none; stroke: #b0b0b0; stroke-width: 0.8; stroke-linecap: square"/>
     </g>
     <g id="line2d_6">
      <defs>
       <path id="m793dbb97ec" d="M 0 0 
L 0 3.5 
" style="stroke: #000000; stroke-width: 0.8"/>
      </defs>
      <g>
       <use xlink:href="#m793dbb97ec" x="57.6" y="298.944" style="stroke: #000000; stroke-width: 0.8"/>
      </g>
     </g>
     <g id="text_1">
      <!-- 0 -->
      <g transform="translate(52.191875 318.861344)scale(0.17 -0.17)">
       <defs>
        <path id="DejaVuSans-30" d="M 2034 4250 
Q 1547 4250 1301 3770 
Q 1056 3291 1056 2328 
Q 1056 1369 1301 889 
Q 1547 409 2034 409 
Q 2525 409 2770 889 
Q 3016 1369 3016 2328 
Q 3016 3291 2770 3770 
Q 2525 4250 2034 4250 
z
M 2034 4750 
Q 2819 4750 3233 4129 
Q 3647 3509 3647 2328 
Q 3647 1150 3233 529 
Q 2819 -91 2034 -91 
Q 1250 -91 836 529 
Q 422 1150 422 2328 
Q 422 3509 836 4129 
Q 1250 4750 2034 4750 
z
" transform="scale(0.015625)"/>
       </defs>
       <use xlink:href="#DejaVuSans-30"/>
      </g>
     </g>
    </g>
    <g id="xtick_2">
     <g id="line2d_7">
      <path d="M 144.2304 298.944 
L 144.2304 27.648 
" clip-path="url(#pb8e4580ae2)" style="fill: none; stroke: #b0b0b0; stroke-width: 0.8; stroke-linecap: square"/>
     </g>
     <g id="line2d_8">
      <g>
       <use xlink:href="#m793dbb97ec" x="144.2304" y="298.944" style="stroke: #000000; stroke-width: 0.8"/>
      </g>
     </g>
     <g id="text_2">
      <!-- 2 -->
      <g transform="translate(138.822275 318.861344)scale(0.17 -0.17)">
       <defs>
        <path id="DejaVuSans-32" d="M 1228 531 
L 3431 531 
L 3431 0 
L 469 0 
L 469 531 
Q 828 903 1448 1529 
Q 2069 2156 2228 2338 
Q 2531 2678 2651 2914 
Q 2772 3150 2772 3378 
Q 2772 3750 2511 3984 
Q 2250 4219 1831 4219 
Q 1534 4219 1204 4116 
Q 875 4013 500 3803 
L 500 4441 
Q 881 4594 1212 4672 
Q 1544 4750 1819 4750 
Q 2544 4750 2975 4387 
Q 3406 4025 3406 3419 
Q 3406 3131 3298 2873 
Q 3191 2616 2906 2266 
Q 2828 2175 2409 1742 
Q 1991 1309 1228 531 
z
" transform="scale(0.015625)"/>
       </defs>
       <use xlink:href="#DejaVuSans-32"/>
      </g>
     </g>
    </g>
    <g id="xtick_3">
     <g id="line2d_9">
      <path d="M 230.8608 298.944 
L 230.8608 27.648 
" clip-path="url(#pb8e4580ae2)" style="fill: none; stroke: #b0b0b0; stroke-width: 0.8; stroke-linecap: square"/>
     </g>
     <g id="line2d_10">
      <g>
       <use xlink:href="#m793dbb97ec" x="230.8608" y="298.944" style="stroke: #000000; stroke-width: 0.8"/>
      </g>
     </g>
     <g id="text_3">
      <!-- 4 -->
      <g transform="translate(225.452675 318.861344)scale(0.17 -0.17)">
       <defs>
        <path id="DejaVuSans-34" d="M 2419 4116 
L 825 1625 
L 2419 1625 
L 2419 4116 
z
M 2253 4666 
L 3047 4666 
L 3047 1625 
L 3713 1625 
L 3713 1100 
L 3047 1100 
L 3047 0 
L 2419 0 
L 2419 1100 
L 313 1100 
L 313 1709 
L 2253 4666 
z
" transform="scale(0.015625)"/>
       </defs>
       <use xlink:href="#DejaVuSans-34"/>
      </g>
     </g>
    </g>
    <g id="xtick_4">
     <g id="line2d_11">
      <path d="M 317.4912 298.944 
L 317.4912 27.648 
" clip-path="url(#pb8e4580ae2)" style="fill: none; stroke: #b0b0b0; stroke-width: 0.8; stroke-linecap: square"/>
     </g>
     <g id="line2d_12">
      <g>
       <use xlink:href="#m793dbb97ec" x="317.4912" y="298.944" style="stroke: #000000; stroke-width: 0.8"/>
      </g>
     </g>
     <g id="text_4">
      <!-- 6 -->
      <g transform="translate(312.083075 318.861344)scale(0.17 -0.17)">
       <defs>
        <path id="DejaVuSans-36" d="M 2113 2584 
Q 1688 2584 1439 2293 
Q 1191 2003 1191 1497 
Q 1191 994 1439 701 
Q 1688 409 2113 409 
Q 2538 409 2786 701 
Q 3034 994 3034 1497 
Q 3034 2003 2786 2293 
Q 2538 2584 2113 2584 
z
M 3366 4563 
L 3366 3988 
Q 3128 4100 2886 4159 
Q 2644 4219 2406 4219 
Q 1781 4219 1451 3797 
Q 1122 3375 1075 2522 
Q 1259 2794 1537 2939 
Q 1816 3084 2150 3084 
Q 2853 3084 3261 2657 
Q 3669 2231 3669 1497 
Q 3669 778 3244 343 
Q 2819 -91 2113 -91 
Q 1303 -91 875 529 
Q 447 1150 447 2328 
Q 447 3434 972 4092 
Q 1497 4750 2381 4750 
Q 2619 4750 2861 4703 
Q 3103 4656 3366 4563 
z
" transform="scale(0.015625)"/>
       </defs>
       <use xlink:href="#DejaVuSans-36"/>
      </g>
     </g>
    </g>
    <g id="xtick_5">
     <g id="line2d_13">
      <path d="M 100.9152 298.944 
L 100.9152 27.648 
" clip-path="url(#pb8e4580ae2)" style="fill: none; stroke: #b0b0b0; stroke-width: 0.8; stroke-linecap: square"/>
     </g>
     <g id="line2d_14">
      <defs>
       <path id="m857e431030" d="M 0 0 
L 0 2 
" style="stroke: #000000; stroke-width: 0.6"/>
      </defs>
      <g>
       <use xlink:href="#m857e431030" x="100.9152" y="298.944" style="stroke: #000000; stroke-width: 0.6"/>
      </g>
     </g>
    </g>
    <g id="xtick_6">
     <g id="line2d_15">
      <path d="M 187.5456 298.944 
L 187.5456 27.648 
" clip-path="url(#pb8e4580ae2)" style="fill: none; stroke: #b0b0b0; stroke-width: 0.8; stroke-linecap: square"/>
     </g>
     <g id="line2d_16">
      <g>
       <use xlink:href="#m857e431030" x="187.5456" y="298.944" style="stroke: #000000; stroke-width: 0.6"/>
      </g>
     </g>
    </g>
    <g id="xtick_7">
     <g id="line2d_17">
      <path d="M 274.176 298.944 
L 274.176 27.648 
" clip-path="url(#pb8e4580ae2)" style="fill: none; stroke: #b0b0b0; stroke-width: 0.8; stroke-linecap: square"/>
     </g>
     <g id="line2d_18">
      <g>
       <use xlink:href="#m857e431030" x="274.176" y="298.944" style="stroke: #000000; stroke-width: 0.6"/>
      </g>
     </g>
    </g>
    <g id="xtick_8">
     <g id="line2d_19">
      <path d="M 360.8064 298.944 
L 360.8064 27.648 
" clip-path="url(#pb8e4580ae2)" style="fill: none; stroke: #b0b0b0; stroke-width: 0.8; stroke-linecap: square"/>
     </g>
     <g id="line2d_20">
      <g>
       <use xlink:href="#m857e431030" x="360.8064" y="298.944" style="stroke: #000000; stroke-width: 0.6"/>
      </g>
     </g>
    </g>
    <g id="text_5">
     <!-- log10(# f-evals / dimension) -->
     <g transform="translate(88.823278 339.314156)scale(0.17 -0.17)">
      <defs>
       <path id="DejaVuSans-6c" d="M 603 4863 
L 1178 4863 
L 1178 0 
L 603 0 
L 603 4863 
z
" transform="scale(0.015625)"/>
       <path id="DejaVuSans-6f" d="M 1959 3097 
Q 1497 3097 1228 2736 
Q 959 2375 959 1747 
Q 959 1119 1226 758 
Q 1494 397 1959 397 
Q 2419 397 2687 759 
Q 2956 1122 2956 1747 
Q 2956 2369 2687 2733 
Q 2419 3097 1959 3097 
z
M 1959 3584 
Q 2709 3584 3137 3096 
Q 3566 2609 3566 1747 
Q 3566 888 3137 398 
Q 2709 -91 1959 -91 
Q 1206 -91 779 398 
Q 353 888 353 1747 
Q 353 2609 779 3096 
Q 1206 3584 1959 3584 
z
" transform="scale(0.015625)"/>
       <path id="DejaVuSans-67" d="M 2906 1791 
Q 2906 2416 2648 2759 
Q 2391 3103 1925 3103 
Q 1463 3103 1205 2759 
Q 947 2416 947 1791 
Q 947 1169 1205 825 
Q 1463 481 1925 481 
Q 2391 481 2648 825 
Q 2906 1169 2906 1791 
z
M 3481 434 
Q 3481 -459 3084 -895 
Q 2688 -1331 1869 -1331 
Q 1566 -1331 1297 -1286 
Q 1028 -1241 775 -1147 
L 775 -588 
Q 1028 -725 1275 -790 
Q 1522 -856 1778 -856 
Q 2344 -856 2625 -561 
Q 2906 -266 2906 331 
L 2906 616 
Q 2728 306 2450 153 
Q 2172 0 1784 0 
Q 1141 0 747 490 
Q 353 981 353 1791 
Q 353 2603 747 3093 
Q 1141 3584 1784 3584 
Q 2172 3584 2450 3431 
Q 2728 3278 2906 2969 
L 2906 3500 
L 3481 3500 
L 3481 434 
z
" transform="scale(0.015625)"/>
       <path id="DejaVuSans-31" d="M 794 531 
L 1825 531 
L 1825 4091 
L 703 3866 
L 703 4441 
L 1819 4666 
L 2450 4666 
L 2450 531 
L 3481 531 
L 3481 0 
L 794 0 
L 794 531 
z
" transform="scale(0.015625)"/>
       <path id="DejaVuSans-28" d="M 1984 4856 
Q 1566 4138 1362 3434 
Q 1159 2731 1159 2009 
Q 1159 1288 1364 580 
Q 1569 -128 1984 -844 
L 1484 -844 
Q 1016 -109 783 600 
Q 550 1309 550 2009 
Q 550 2706 781 3412 
Q 1013 4119 1484 4856 
L 1984 4856 
z
" transform="scale(0.015625)"/>
       <path id="DejaVuSans-23" d="M 3272 2816 
L 2363 2816 
L 2100 1772 
L 3016 1772 
L 3272 2816 
z
M 2803 4594 
L 2478 3297 
L 3391 3297 
L 3719 4594 
L 4219 4594 
L 3897 3297 
L 4872 3297 
L 4872 2816 
L 3775 2816 
L 3519 1772 
L 4513 1772 
L 4513 1294 
L 3397 1294 
L 3072 0 
L 2572 0 
L 2894 1294 
L 1978 1294 
L 1656 0 
L 1153 0 
L 1478 1294 
L 494 1294 
L 494 1772 
L 1594 1772 
L 1856 2816 
L 850 2816 
L 850 3297 
L 1978 3297 
L 2297 4594 
L 2803 4594 
z
" transform="scale(0.015625)"/>
       <path id="DejaVuSans-20" transform="scale(0.015625)"/>
       <path id="DejaVuSans-66" d="M 2375 4863 
L 2375 4384 
L 1825 4384 
Q 1516 4384 1395 4259 
Q 1275 4134 1275 3809 
L 1275 3500 
L 2222 3500 
L 2222 3053 
L 1275 3053 
L 1275 0 
L 697 0 
L 697 3053 
L 147 3053 
L 147 3500 
L 697 3500 
L 697 3744 
Q 697 4328 969 4595 
Q 1241 4863 1831 4863 
L 2375 4863 
z
" transform="scale(0.015625)"/>
       <path id="DejaVuSans-2d" d="M 313 2009 
L 1997 2009 
L 1997 1497 
L 313 1497 
L 313 2009 
z
" transform="scale(0.015625)"/>
       <path id="DejaVuSans-65" d="M 3597 1894 
L 3597 1613 
L 953 1613 
Q 991 1019 1311 708 
Q 1631 397 2203 397 
Q 2534 397 2845 478 
Q 3156 559 3463 722 
L 3463 178 
Q 3153 47 2828 -22 
Q 2503 -91 2169 -91 
Q 1331 -91 842 396 
Q 353 884 353 1716 
Q 353 2575 817 3079 
Q 1281 3584 2069 3584 
Q 2775 3584 3186 3129 
Q 3597 2675 3597 1894 
z
M 3022 2063 
Q 3016 2534 2758 2815 
Q 2500 3097 2075 3097 
Q 1594 3097 1305 2825 
Q 1016 2553 972 2059 
L 3022 2063 
z
" transform="scale(0.015625)"/>
       <path id="DejaVuSans-76" d="M 191 3500 
L 800 3500 
L 1894 563 
L 2988 3500 
L 3597 3500 
L 2284 0 
L 1503 0 
L 191 3500 
z
" transform="scale(0.015625)"/>
       <path id="DejaVuSans-61" d="M 2194 1759 
Q 1497 1759 1228 1600 
Q 959 1441 959 1056 
Q 959 750 1161 570 
Q 1363 391 1709 391 
Q 2188 391 2477 730 
Q 2766 1069 2766 1631 
L 2766 1759 
L 2194 1759 
z
M 3341 1997 
L 3341 0 
L 2766 0 
L 2766 531 
Q 2569 213 2275 61 
Q 1981 -91 1556 -91 
Q 1019 -91 701 211 
Q 384 513 384 1019 
Q 384 1609 779 1909 
Q 1175 2209 1959 2209 
L 2766 2209 
L 2766 2266 
Q 2766 2663 2505 2880 
Q 2244 3097 1772 3097 
Q 1472 3097 1187 3025 
Q 903 2953 641 2809 
L 641 3341 
Q 956 3463 1253 3523 
Q 1550 3584 1831 3584 
Q 2591 3584 2966 3190 
Q 3341 2797 3341 1997 
z
" transform="scale(0.015625)"/>
       <path id="DejaVuSans-73" d="M 2834 3397 
L 2834 2853 
Q 2591 2978 2328 3040 
Q 2066 3103 1784 3103 
Q 1356 3103 1142 2972 
Q 928 2841 928 2578 
Q 928 2378 1081 2264 
Q 1234 2150 1697 2047 
L 1894 2003 
Q 2506 1872 2764 1633 
Q 3022 1394 3022 966 
Q 3022 478 2636 193 
Q 2250 -91 1575 -91 
Q 1294 -91 989 -36 
Q 684 19 347 128 
L 347 722 
Q 666 556 975 473 
Q 1284 391 1588 391 
Q 1994 391 2212 530 
Q 2431 669 2431 922 
Q 2431 1156 2273 1281 
Q 2116 1406 1581 1522 
L 1381 1569 
Q 847 1681 609 1914 
Q 372 2147 372 2553 
Q 372 3047 722 3315 
Q 1072 3584 1716 3584 
Q 2034 3584 2315 3537 
Q 2597 3491 2834 3397 
z
" transform="scale(0.015625)"/>
       <path id="DejaVuSans-2f" d="M 1625 4666 
L 2156 4666 
L 531 -594 
L 0 -594 
L 1625 4666 
z
" transform="scale(0.015625)"/>
       <path id="DejaVuSans-64" d="M 2906 2969 
L 2906 4863 
L 3481 4863 
L 3481 0 
L 2906 0 
L 2906 525 
Q 2725 213 2448 61 
Q 2172 -91 1784 -91 
Q 1150 -91 751 415 
Q 353 922 353 1747 
Q 353 2572 751 3078 
Q 1150 3584 1784 3584 
Q 2172 3584 2448 3432 
Q 2725 3281 2906 2969 
z
M 947 1747 
Q 947 1113 1208 752 
Q 1469 391 1925 391 
Q 2381 391 2643 752 
Q 2906 1113 2906 1747 
Q 2906 2381 2643 2742 
Q 2381 3103 1925 3103 
Q 1469 3103 1208 2742 
Q 947 2381 947 1747 
z
" transform="scale(0.015625)"/>
       <path id="DejaVuSans-69" d="M 603 3500 
L 1178 3500 
L 1178 0 
L 603 0 
L 603 3500 
z
M 603 4863 
L 1178 4863 
L 1178 4134 
L 603 4134 
L 603 4863 
z
" transform="scale(0.015625)"/>
       <path id="DejaVuSans-6d" d="M 3328 2828 
Q 3544 3216 3844 3400 
Q 4144 3584 4550 3584 
Q 5097 3584 5394 3201 
Q 5691 2819 5691 2113 
L 5691 0 
L 5113 0 
L 5113 2094 
Q 5113 2597 4934 2840 
Q 4756 3084 4391 3084 
Q 3944 3084 3684 2787 
Q 3425 2491 3425 1978 
L 3425 0 
L 2847 0 
L 2847 2094 
Q 2847 2600 2669 2842 
Q 2491 3084 2119 3084 
Q 1678 3084 1418 2786 
Q 1159 2488 1159 1978 
L 1159 0 
L 581 0 
L 581 3500 
L 1159 3500 
L 1159 2956 
Q 1356 3278 1631 3431 
Q 1906 3584 2284 3584 
Q 2666 3584 2933 3390 
Q 3200 3197 3328 2828 
z
" transform="scale(0.015625)"/>
       <path id="DejaVuSans-6e" d="M 3513 2113 
L 3513 0 
L 2938 0 
L 2938 2094 
Q 2938 2591 2744 2837 
Q 2550 3084 2163 3084 
Q 1697 3084 1428 2787 
Q 1159 2491 1159 1978 
L 1159 0 
L 581 0 
L 581 3500 
L 1159 3500 
L 1159 2956 
Q 1366 3272 1645 3428 
Q 1925 3584 2291 3584 
Q 2894 3584 3203 3211 
Q 3513 2838 3513 2113 
z
" transform="scale(0.015625)"/>
       <path id="DejaVuSans-29" d="M 513 4856 
L 1013 4856 
Q 1481 4119 1714 3412 
Q 1947 2706 1947 2009 
Q 1947 1309 1714 600 
Q 1481 -109 1013 -844 
L 513 -844 
Q 928 -128 1133 580 
Q 1338 1288 1338 2009 
Q 1338 2731 1133 3434 
Q 928 4138 513 4856 
z
" transform="scale(0.015625)"/>
      </defs>
      <use xlink:href="#DejaVuSans-6c"/>
      <use xlink:href="#DejaVuSans-6f" x="27.783203"/>
      <use xlink:href="#DejaVuSans-67" x="88.964844"/>
      <use xlink:href="#DejaVuSans-31" x="152.441406"/>
      <use xlink:href="#DejaVuSans-30" x="216.064453"/>
      <use xlink:href="#DejaVuSans-28" x="279.6875"/>
      <use xlink:href="#DejaVuSans-23" x="318.701172"/>
      <use xlink:href="#DejaVuSans-20" x="402.490234"/>
      <use xlink:href="#DejaVuSans-66" x="434.277344"/>
      <use xlink:href="#DejaVuSans-2d" x="463.982422"/>
      <use xlink:href="#DejaVuSans-65" x="500.066406"/>
      <use xlink:href="#DejaVuSans-76" x="561.589844"/>
      <use xlink:href="#DejaVuSans-61" x="620.769531"/>
      <use xlink:href="#DejaVuSans-6c" x="682.048828"/>
      <use xlink:href="#DejaVuSans-73" x="709.832031"/>
      <use xlink:href="#DejaVuSans-20" x="761.931641"/>
      <use xlink:href="#DejaVuSans-2f" x="793.71875"/>
      <use xlink:href="#DejaVuSans-20" x="827.410156"/>
      <use xlink:href="#DejaVuSans-64" x="859.197266"/>
      <use xlink:href="#DejaVuSans-69" x="922.673828"/>
      <use xlink:href="#DejaVuSans-6d" x="950.457031"/>
      <use xlink:href="#DejaVuSans-65" x="1047.869141"/>
      <use xlink:href="#DejaVuSans-6e" x="1109.392578"/>
      <use xlink:href="#DejaVuSans-73" x="1172.771484"/>
      <use xlink:href="#DejaVuSans-69" x="1224.871094"/>
      <use xlink:href="#DejaVuSans-6f" x="1252.654297"/>
      <use xlink:href="#DejaVuSans-6e" x="1313.835938"/>
      <use xlink:href="#DejaVuSans-29" x="1377.214844"/>
     </g>
    </g>
   </g>
   <g id="matplotlib.axis_2">
    <g id="ytick_1">
     <g id="line2d_21">
      <path d="M 57.6 298.944 
L 360.8064 298.944 
" clip-path="url(#pb8e4580ae2)" style="fill: none; stroke: #b0b0b0; stroke-width: 0.8; stroke-linecap: square"/>
     </g>
     <g id="line2d_22">
      <defs>
       <path id="m348763c948" d="M 0 0 
L -3.5 0 
" style="stroke: #000000; stroke-width: 0.8"/>
      </defs>
      <g>
       <use xlink:href="#m348763c948" x="57.6" y="298.944" style="stroke: #000000; stroke-width: 0.8"/>
      </g>
     </g>
     <g id="text_6">
      <!-- 0.0 -->
      <g transform="translate(25.155 305.02275)scale(0.16 -0.16)">
       <defs>
        <path id="DejaVuSans-2e" d="M 684 794 
L 1344 794 
L 1344 0 
L 684 0 
L 684 794 
z
" transform="scale(0.015625)"/>
       </defs>
       <use xlink:href="#DejaVuSans-30"/>
       <use xlink:href="#DejaVuSans-2e" x="63.623047"/>
       <use xlink:href="#DejaVuSans-30" x="95.410156"/>
      </g>
     </g>
    </g>
    <g id="ytick_2">
     <g id="line2d_23">
      <path d="M 57.6 244.6848 
L 360.8064 244.6848 
" clip-path="url(#pb8e4580ae2)" style="fill: none; stroke: #b0b0b0; stroke-width: 0.8; stroke-linecap: square"/>
     </g>
     <g id="line2d_24">
      <g>
       <use xlink:href="#m348763c948" x="57.6" y="244.6848" style="stroke: #000000; stroke-width: 0.8"/>
      </g>
     </g>
     <g id="text_7">
      <!-- 0.2 -->
      <g transform="translate(25.155 250.76355)scale(0.16 -0.16)">
       <use xlink:href="#DejaVuSans-30"/>
       <use xlink:href="#DejaVuSans-2e" x="63.623047"/>
       <use xlink:href="#DejaVuSans-32" x="95.410156"/>
      </g>
     </g>
    </g>
    <g id="ytick_3">
     <g id="line2d_25">
      <path d="M 57.6 190.4256 
L 360.8064 190.4256 
" clip-path="url(#pb8e4580ae2)" style="fill: none; stroke: #b0b0b0; stroke-width: 0.8; stroke-linecap: square"/>
     </g>
     <g id="line2d_26">
      <g>
       <use xlink:href="#m348763c948" x="57.6" y="190.4256" style="stroke: #000000; stroke-width: 0.8"/>
      </g>
     </g>
     <g id="text_8">
      <!-- 0.4 -->
      <g transform="translate(25.155 196.50435)scale(0.16 -0.16)">
       <use xlink:href="#DejaVuSans-30"/>
       <use xlink:href="#DejaVuSans-2e" x="63.623047"/>
       <use xlink:href="#DejaVuSans-34" x="95.410156"/>
      </g>
     </g>
    </g>
    <g id="ytick_4">
     <g id="line2d_27">
      <path d="M 57.6 136.1664 
L 360.8064 136.1664 
" clip-path="url(#pb8e4580ae2)" style="fill: none; stroke: #b0b0b0; stroke-width: 0.8; stroke-linecap: square"/>
     </g>
     <g id="line2d_28">
      <g>
       <use xlink:href="#m348763c948" x="57.6" y="136.1664" style="stroke: #000000; stroke-width: 0.8"/>
      </g>
     </g>
     <g id="text_9">
      <!-- 0.6 -->
      <g transform="translate(25.155 142.24515)scale(0.16 -0.16)">
       <use xlink:href="#DejaVuSans-30"/>
       <use xlink:href="#DejaVuSans-2e" x="63.623047"/>
       <use xlink:href="#DejaVuSans-36" x="95.410156"/>
      </g>
     </g>
    </g>
    <g id="ytick_5">
     <g id="line2d_29">
      <path d="M 57.6 81.9072 
L 360.8064 81.9072 
" clip-path="url(#pb8e4580ae2)" style="fill: none; stroke: #b0b0b0; stroke-width: 0.8; stroke-linecap: square"/>
     </g>
     <g id="line2d_30">
      <g>
       <use xlink:href="#m348763c948" x="57.6" y="81.9072" style="stroke: #000000; stroke-width: 0.8"/>
      </g>
     </g>
     <g id="text_10">
      <!-- 0.8 -->
      <g transform="translate(25.155 87.98595)scale(0.16 -0.16)">
       <defs>
        <path id="DejaVuSans-38" d="M 2034 2216 
Q 1584 2216 1326 1975 
Q 1069 1734 1069 1313 
Q 1069 891 1326 650 
Q 1584 409 2034 409 
Q 2484 409 2743 651 
Q 3003 894 3003 1313 
Q 3003 1734 2745 1975 
Q 2488 2216 2034 2216 
z
M 1403 2484 
Q 997 2584 770 2862 
Q 544 3141 544 3541 
Q 544 4100 942 4425 
Q 1341 4750 2034 4750 
Q 2731 4750 3128 4425 
Q 3525 4100 3525 3541 
Q 3525 3141 3298 2862 
Q 3072 2584 2669 2484 
Q 3125 2378 3379 2068 
Q 3634 1759 3634 1313 
Q 3634 634 3220 271 
Q 2806 -91 2034 -91 
Q 1263 -91 848 271 
Q 434 634 434 1313 
Q 434 1759 690 2068 
Q 947 2378 1403 2484 
z
M 1172 3481 
Q 1172 3119 1398 2916 
Q 1625 2713 2034 2713 
Q 2441 2713 2670 2916 
Q 2900 3119 2900 3481 
Q 2900 3844 2670 4047 
Q 2441 4250 2034 4250 
Q 1625 4250 1398 4047 
Q 1172 3844 1172 3481 
z
" transform="scale(0.015625)"/>
       </defs>
       <use xlink:href="#DejaVuSans-30"/>
       <use xlink:href="#DejaVuSans-2e" x="63.623047"/>
       <use xlink:href="#DejaVuSans-38" x="95.410156"/>
      </g>
     </g>
    </g>
    <g id="ytick_6">
     <g id="line2d_31">
      <path d="M 57.6 27.648 
L 360.8064 27.648 
" clip-path="url(#pb8e4580ae2)" style="fill: none; stroke: #b0b0b0; stroke-width: 0.8; stroke-linecap: square"/>
     </g>
     <g id="line2d_32">
      <g>
       <use xlink:href="#m348763c948" x="57.6" y="27.648" style="stroke: #000000; stroke-width: 0.8"/>
      </g>
     </g>
     <g id="text_11">
      <!-- 1.0 -->
      <g transform="translate(25.155 33.72675)scale(0.16 -0.16)">
       <use xlink:href="#DejaVuSans-31"/>
       <use xlink:href="#DejaVuSans-2e" x="63.623047"/>
       <use xlink:href="#DejaVuSans-30" x="95.410156"/>
      </g>
     </g>
    </g>
    <g id="text_12">
     <!-- Fraction of function,target pairs -->
     <g transform="translate(17.619531 297.681)rotate(-90)scale(0.17 -0.17)">
      <defs>
       <path id="DejaVuSans-46" d="M 628 4666 
L 3309 4666 
L 3309 4134 
L 1259 4134 
L 1259 2759 
L 3109 2759 
L 3109 2228 
L 1259 2228 
L 1259 0 
L 628 0 
L 628 4666 
z
" transform="scale(0.015625)"/>
       <path id="DejaVuSans-72" d="M 2631 2963 
Q 2534 3019 2420 3045 
Q 2306 3072 2169 3072 
Q 1681 3072 1420 2755 
Q 1159 2438 1159 1844 
L 1159 0 
L 581 0 
L 581 3500 
L 1159 3500 
L 1159 2956 
Q 1341 3275 1631 3429 
Q 1922 3584 2338 3584 
Q 2397 3584 2469 3576 
Q 2541 3569 2628 3553 
L 2631 2963 
z
" transform="scale(0.015625)"/>
       <path id="DejaVuSans-63" d="M 3122 3366 
L 3122 2828 
Q 2878 2963 2633 3030 
Q 2388 3097 2138 3097 
Q 1578 3097 1268 2742 
Q 959 2388 959 1747 
Q 959 1106 1268 751 
Q 1578 397 2138 397 
Q 2388 397 2633 464 
Q 2878 531 3122 666 
L 3122 134 
Q 2881 22 2623 -34 
Q 2366 -91 2075 -91 
Q 1284 -91 818 406 
Q 353 903 353 1747 
Q 353 2603 823 3093 
Q 1294 3584 2113 3584 
Q 2378 3584 2631 3529 
Q 2884 3475 3122 3366 
z
" transform="scale(0.015625)"/>
       <path id="DejaVuSans-74" d="M 1172 4494 
L 1172 3500 
L 2356 3500 
L 2356 3053 
L 1172 3053 
L 1172 1153 
Q 1172 725 1289 603 
Q 1406 481 1766 481 
L 2356 481 
L 2356 0 
L 1766 0 
Q 1100 0 847 248 
Q 594 497 594 1153 
L 594 3053 
L 172 3053 
L 172 3500 
L 594 3500 
L 594 4494 
L 1172 4494 
z
" transform="scale(0.015625)"/>
       <path id="DejaVuSans-75" d="M 544 1381 
L 544 3500 
L 1119 3500 
L 1119 1403 
Q 1119 906 1312 657 
Q 1506 409 1894 409 
Q 2359 409 2629 706 
Q 2900 1003 2900 1516 
L 2900 3500 
L 3475 3500 
L 3475 0 
L 2900 0 
L 2900 538 
Q 2691 219 2414 64 
Q 2138 -91 1772 -91 
Q 1169 -91 856 284 
Q 544 659 544 1381 
z
M 1991 3584 
L 1991 3584 
z
" transform="scale(0.015625)"/>
       <path id="DejaVuSans-2c" d="M 750 794 
L 1409 794 
L 1409 256 
L 897 -744 
L 494 -744 
L 750 256 
L 750 794 
z
" transform="scale(0.015625)"/>
       <path id="DejaVuSans-70" d="M 1159 525 
L 1159 -1331 
L 581 -1331 
L 581 3500 
L 1159 3500 
L 1159 2969 
Q 1341 3281 1617 3432 
Q 1894 3584 2278 3584 
Q 2916 3584 3314 3078 
Q 3713 2572 3713 1747 
Q 3713 922 3314 415 
Q 2916 -91 2278 -91 
Q 1894 -91 1617 61 
Q 1341 213 1159 525 
z
M 3116 1747 
Q 3116 2381 2855 2742 
Q 2594 3103 2138 3103 
Q 1681 3103 1420 2742 
Q 1159 2381 1159 1747 
Q 1159 1113 1420 752 
Q 1681 391 2138 391 
Q 2594 391 2855 752 
Q 3116 1113 3116 1747 
z
" transform="scale(0.015625)"/>
      </defs>
      <use xlink:href="#DejaVuSans-46"/>
      <use xlink:href="#DejaVuSans-72" x="50.269531"/>
      <use xlink:href="#DejaVuSans-61" x="91.382812"/>
      <use xlink:href="#DejaVuSans-63" x="152.662109"/>
      <use xlink:href="#DejaVuSans-74" x="207.642578"/>
      <use xlink:href="#DejaVuSans-69" x="246.851562"/>
      <use xlink:href="#DejaVuSans-6f" x="274.634766"/>
      <use xlink:href="#DejaVuSans-6e" x="335.816406"/>
      <use xlink:href="#DejaVuSans-20" x="399.195312"/>
      <use xlink:href="#DejaVuSans-6f" x="430.982422"/>
      <use xlink:href="#DejaVuSans-66" x="492.164062"/>
      <use xlink:href="#DejaVuSans-20" x="527.369141"/>
      <use xlink:href="#DejaVuSans-66" x="559.15625"/>
      <use xlink:href="#DejaVuSans-75" x="594.361328"/>
      <use xlink:href="#DejaVuSans-6e" x="657.740234"/>
      <use xlink:href="#DejaVuSans-63" x="721.119141"/>
      <use xlink:href="#DejaVuSans-74" x="776.099609"/>
      <use xlink:href="#DejaVuSans-69" x="815.308594"/>
      <use xlink:href="#DejaVuSans-6f" x="843.091797"/>
      <use xlink:href="#DejaVuSans-6e" x="904.273438"/>
      <use xlink:href="#DejaVuSans-2c" x="967.652344"/>
      <use xlink:href="#DejaVuSans-74" x="999.439453"/>
      <use xlink:href="#DejaVuSans-61" x="1038.648438"/>
      <use xlink:href="#DejaVuSans-72" x="1099.927734"/>
      <use xlink:href="#DejaVuSans-67" x="1139.291016"/>
      <use xlink:href="#DejaVuSans-65" x="1202.767578"/>
      <use xlink:href="#DejaVuSans-74" x="1264.291016"/>
      <use xlink:href="#DejaVuSans-20" x="1303.5"/>
      <use xlink:href="#DejaVuSans-70" x="1335.287109"/>
      <use xlink:href="#DejaVuSans-61" x="1398.763672"/>
      <use xlink:href="#DejaVuSans-69" x="1460.042969"/>
      <use xlink:href="#DejaVuSans-72" x="1487.826172"/>
      <use xlink:href="#DejaVuSans-73" x="1528.939453"/>
     </g>
    </g>
   </g>
   <g id="line2d_33">
    <defs>
     <path id="m13558f3ebd" d="M 0 1.5 
C 0.397805 1.5 0.77937 1.341951 1.06066 1.06066 
C 1.341951 0.77937 1.5 0.397805 1.5 0 
C 1.5 -0.397805 1.341951 -0.77937 1.06066 -1.06066 
C 0.77937 -1.341951 0.397805 -1.5 0 -1.5 
C -0.397805 -1.5 -0.77937 -1.341951 -1.06066 -1.06066 
C -1.341951 -0.77937 -1.5 -0.397805 -1.5 0 
C -1.5 0.397805 -1.341951 0.77937 -1.06066 1.06066 
C -0.77937 1.341951 -0.397805 1.5 0 1.5 
z
" style="stroke: #f5deb3"/>
    </defs>
    <g>
     <use xlink:href="#m13558f3ebd" x="183.550619" y="27.648" style="fill: #f5deb3; stroke: #f5deb3"/>
     <use xlink:href="#m13558f3ebd" x="183.550619" y="27.648" style="fill: #f5deb3; stroke: #f5deb3"/>
    </g>
   </g>
   <g id="line2d_34">
    <defs>
     <path id="m31c6539026" d="M 0 1.5 
C 0.397805 1.5 0.77937 1.341951 1.06066 1.06066 
C 1.341951 0.77937 1.5 0.397805 1.5 0 
C 1.5 -0.397805 1.341951 -0.77937 1.06066 -1.06066 
C 0.77937 -1.341951 0.397805 -1.5 0 -1.5 
C -0.397805 -1.5 -0.77937 -1.341951 -1.06066 -1.06066 
C -1.341951 -0.77937 -1.5 -0.397805 -1.5 0 
C -1.5 0.397805 -1.341951 0.77937 -1.06066 1.06066 
C -0.77937 1.341951 -0.397805 1.5 0 1.5 
z
" style="stroke: #000080"/>
    </defs>
    <g>
     <use xlink:href="#m31c6539026" x="215.391212" y="27.648" style="fill: #000080; stroke: #000080"/>
     <use xlink:href="#m31c6539026" x="215.391212" y="27.648" style="fill: #000080; stroke: #000080"/>
    </g>
   </g>
   <g id="line2d_35">
    <path d="M 36.933397 298.944 
L 36.933397 271.282447 
L 49.972572 271.282447 
L 49.972572 268.090729 
L 82.04153 268.090729 
L 82.04153 265.962918 
L 87.876026 265.962918 
L 87.876026 264.899012 
L 96.717523 264.899012 
L 96.717523 263.835106 
L 100.277459 263.835106 
L 100.277459 262.7712 
L 103.269713 262.7712 
L 103.269713 261.707294 
L 127.458055 261.707294 
L 127.458055 260.643388 
L 129.893363 260.643388 
L 129.893363 258.515576 
L 134.725196 258.515576 
L 134.725196 255.323859 
L 143.331383 255.323859 
L 143.331383 254.259953 
L 146.418192 254.259953 
L 146.418192 253.196047 
L 150.559965 253.196047 
L 150.559965 252.132141 
L 155.18278 252.132141 
L 155.18278 250.004329 
L 156.857511 250.004329 
L 156.857511 248.940424 
L 159.651731 248.940424 
L 159.651731 247.876518 
L 160.515541 247.876518 
L 160.515541 246.812612 
L 161.010268 246.812612 
L 161.010268 245.748706 
L 162.03547 245.748706 
L 162.03547 244.6848 
L 162.325256 244.6848 
L 162.325256 243.620894 
L 162.515995 243.620894 
L 162.515995 242.556988 
L 162.775144 242.556988 
L 162.775144 241.493082 
L 163.305732 241.493082 
L 163.3965 239.365271 
L 163.976048 239.365271 
L 163.976048 238.301365 
L 164.259262 238.301365 
L 164.345553 236.173553 
L 164.729041 236.173553 
L 164.729041 234.045741 
L 165.269521 234.045741 
L 165.269521 232.981835 
L 165.473332 232.981835 
L 165.473332 231.917929 
L 165.894279 231.917929 
L 165.894279 230.854024 
L 166.498953 230.854024 
L 166.498953 229.790118 
L 166.8036 229.790118 
L 166.8036 228.726212 
L 166.991529 228.726212 
L 166.991529 225.534494 
L 167.343504 225.534494 
L 167.343504 224.470588 
L 167.742992 224.470588 
L 167.742992 220.214965 
L 168.534619 220.214965 
L 168.534619 219.151059 
L 168.808246 219.151059 
L 168.808246 218.087153 
L 168.926718 218.087153 
L 168.926718 217.023247 
L 169.508137 217.023247 
L 169.508137 215.959341 
L 169.864611 215.959341 
L 169.864611 214.895435 
L 169.976632 214.895435 
L 169.976632 213.831529 
L 170.214455 213.831529 
L 170.214455 212.767624 
L 170.573376 212.767624 
L 170.573376 211.703718 
L 170.803818 211.703718 
L 170.9104 206.384188 
L 171.271304 206.384188 
L 171.271304 205.320282 
L 171.566857 205.320282 
L 171.566857 204.256376 
L 172.300147 204.256376 
L 172.314244 200.000753 
L 173.24883 200.000753 
L 173.24883 197.872941 
L 173.528313 197.872941 
L 173.528313 195.745129 
L 182.999844 195.745129 
L 182.999844 194.681224 
L 186.328186 194.681224 
L 186.328186 193.617318 
L 187.683048 193.617318 
L 187.757599 190.4256 
L 188.071183 190.4256 
L 188.168495 187.233882 
L 188.385623 187.233882 
L 188.46939 182.978259 
L 188.688994 182.978259 
L 188.688994 181.914353 
L 188.935207 181.914353 
L 188.97593 179.786541 
L 189.10912 179.786541 
L 189.10912 177.658729 
L 189.304298 177.658729 
L 189.389767 175.530918 
L 189.508774 175.530918 
L 189.508774 174.467012 
L 189.643866 174.467012 
L 189.705461 171.275294 
L 189.811379 171.275294 
L 189.894579 169.147482 
L 190.054397 169.147482 
L 190.054397 168.083576 
L 190.315976 168.083576 
L 190.353821 165.955765 
L 190.525862 165.955765 
L 190.595307 162.764047 
L 190.77573 162.764047 
L 190.865296 160.636235 
L 190.980576 160.636235 
L 190.980576 158.508424 
L 191.110724 158.508424 
L 191.110724 155.316706 
L 191.286293 155.316706 
L 191.286293 153.188894 
L 191.60229 153.188894 
L 191.60229 152.124988 
L 191.75832 152.124988 
L 191.838348 149.997176 
L 191.908094 149.997176 
L 191.947833 146.805459 
L 196.667176 146.805459 
L 196.667176 143.613741 
L 196.935533 143.613741 
L 196.984953 140.422024 
L 197.364541 140.422024 
L 197.416558 137.230306 
L 197.557026 137.230306 
L 197.557026 135.102494 
L 197.696453 135.102494 
L 197.696453 132.974682 
L 197.816702 132.974682 
L 197.816702 131.910776 
L 197.928967 131.910776 
L 197.928967 128.719059 
L 198.169339 128.719059 
L 198.169339 126.591247 
L 198.286612 126.591247 
L 198.300777 124.463435 
L 198.410198 124.463435 
L 198.410198 123.399529 
L 198.532978 123.399529 
L 198.557438 121.271718 
L 198.644537 121.271718 
L 198.648012 118.08 
L 198.90001 118.08 
L 198.917148 114.888282 
L 199.094456 114.888282 
L 199.158827 109.568753 
L 199.323826 109.568753 
L 199.323826 107.440941 
L 199.464112 107.440941 
L 199.570299 104.249224 
L 202.191523 104.249224 
L 202.228908 101.057506 
L 202.536647 101.057506 
L 202.545124 98.929694 
L 202.652168 98.929694 
L 202.758606 95.737976 
L 202.872776 95.737976 
L 202.886652 90.418447 
L 203.055119 90.418447 
L 203.162042 87.226729 
L 203.203005 87.226729 
L 203.303667 84.035012 
L 203.441541 84.035012 
L 203.538259 78.715482 
L 203.594449 78.715482 
L 203.693043 75.523765 
L 203.78848 75.523765 
L 203.888696 70.204235 
L 214.105271 70.204235 
L 214.207371 64.884706 
L 214.237742 64.884706 
L 214.302873 61.692988 
L 214.352705 61.692988 
L 214.448974 57.437365 
L 214.511884 57.437365 
L 214.589482 53.181741 
L 214.638562 53.181741 
L 214.728949 47.862212 
L 214.824787 47.862212 
L 214.827728 44.670494 
L 214.952304 44.670494 
L 215.057185 37.223153 
L 215.100713 37.223153 
L 215.162929 35.095341 
L 215.229258 35.095341 
L 215.338336 29.775812 
L 215.384075 29.775812 
L 215.391212 27.648 
L 360.8064 27.648 
L 360.8064 27.648 
" style="fill: none; stroke: #000080; stroke-width: 1.5; stroke-linecap: square"/>
   </g>
   <g id="line2d_36">
    <defs>
     <path id="m4aaab7e485" d="M 0 6 
C 1.591219 6 3.117479 5.367802 4.242641 4.242641 
C 5.367802 3.117479 6 1.591219 6 0 
C 6 -1.591219 5.367802 -3.117479 4.242641 -4.242641 
C 3.117479 -5.367802 1.591219 -6 0 -6 
C -1.591219 -6 -3.117479 -5.367802 -4.242641 -4.242641 
C -5.367802 -3.117479 -6 -1.591219 -6 0 
C -6 1.591219 -5.367802 3.117479 -4.242641 4.242641 
C -3.117479 5.367802 -1.591219 6 0 6 
z
" style="stroke: #000080; stroke-width: 1.5"/>
    </defs>
    <g>
     <use xlink:href="#m4aaab7e485" x="87.876026" y="264.899012" style="fill-opacity: 0; stroke: #000080; stroke-width: 1.5"/>
     <use xlink:href="#m4aaab7e485" x="173.528313" y="197.872941" style="fill-opacity: 0; stroke: #000080; stroke-width: 1.5"/>
     <use xlink:href="#m4aaab7e485" x="203.203005" y="87.226729" style="fill-opacity: 0; stroke: #000080; stroke-width: 1.5"/>
     <use xlink:href="#m4aaab7e485" x="215.391212" y="27.648" style="fill-opacity: 0; stroke: #000080; stroke-width: 1.5"/>
     <use xlink:href="#m4aaab7e485" x="215.391212" y="27.648" style="fill-opacity: 0; stroke: #000080; stroke-width: 1.5"/>
     <use xlink:href="#m4aaab7e485" x="360.8064" y="27.648" style="fill-opacity: 0; stroke: #000080; stroke-width: 1.5"/>
    </g>
   </g>
   <g id="line2d_37">
    <path style="fill: none; stroke: #000080; stroke-width: 1.5; stroke-linecap: square"/>
    <g/>
   </g>
   <g id="line2d_38">
    <defs>
     <path id="m2c5d4e1ce8" d="M 0 1.5 
C 0.397805 1.5 0.77937 1.341951 1.06066 1.06066 
C 1.341951 0.77937 1.5 0.397805 1.5 0 
C 1.5 -0.397805 1.341951 -0.77937 1.06066 -1.06066 
C 0.77937 -1.341951 0.397805 -1.5 0 -1.5 
C -0.397805 -1.5 -0.77937 -1.341951 -1.06066 -1.06066 
C -1.341951 -0.77937 -1.5 -0.397805 -1.5 0 
C -1.5 0.397805 -1.341951 0.77937 -1.06066 1.06066 
C -0.77937 1.341951 -0.397805 1.5 0 1.5 
z
" style="stroke: #ff00ff"/>
    </defs>
    <g>
     <use xlink:href="#m2c5d4e1ce8" x="230.107239" y="27.648" style="fill: #ff00ff; stroke: #ff00ff"/>
     <use xlink:href="#m2c5d4e1ce8" x="230.107239" y="27.648" style="fill: #ff00ff; stroke: #ff00ff"/>
    </g>
   </g>
   <g id="line2d_39">
    <path d="M 36.933397 298.944 
L 36.933397 271.282447 
L 49.972572 271.282447 
L 49.972572 268.090729 
L 57.6 268.090729 
L 57.6 267.239605 
L 67.209423 267.239605 
L 67.209423 266.814042 
L 73.538988 266.814042 
L 73.538988 266.601261 
L 76.050921 266.601261 
L 76.050921 266.175699 
L 78.266603 266.175699 
L 78.266603 265.962918 
L 80.248597 265.962918 
L 80.248597 265.253647 
L 82.04153 265.253647 
L 82.04153 264.402522 
L 85.184077 264.402522 
L 85.184077 263.551398 
L 86.578163 263.551398 
L 86.578163 263.125835 
L 91.305777 263.125835 
L 91.305777 262.274711 
L 93.287772 262.203784 
L 93.287772 262.061929 
L 98.223251 261.991002 
L 98.223251 261.778221 
L 99.617337 261.707294 
L 99.617337 261.281732 
L 103.269713 261.281732 
L 103.269713 260.217826 
L 103.815014 260.217826 
L 103.815014 259.934118 
L 107.68741 259.863191 
L 107.68741 259.792264 
L 109.756698 259.721336 
L 109.756698 259.650409 
L 110.524623 259.650409 
L 110.524623 259.437628 
L 112.317555 259.366701 
L 112.317555 259.15392 
L 112.989468 259.15392 
L 112.989468 259.012066 
L 114.872193 259.012066 
L 114.872193 258.586504 
L 115.460102 258.586504 
L 115.460102 258.373722 
L 117.121023 258.373722 
L 117.121023 258.160941 
L 117.384126 258.160941 
L 117.384126 257.877233 
L 119.129494 257.877233 
L 119.129494 257.238889 
L 119.366121 257.238889 
L 119.366121 257.026108 
L 120.726585 257.026108 
L 120.726585 256.813327 
L 121.371615 256.7424 
L 121.371615 256.671473 
L 122.598891 256.671473 
L 122.598891 256.458692 
L 123.936316 256.387765 
L 123.936316 256.174984 
L 127.304491 256.104056 
L 127.304491 256.033129 
L 128.354013 255.962202 
L 128.354013 255.749421 
L 130.938718 255.678494 
L 130.938718 255.465713 
L 132.287354 255.394786 
L 132.287354 254.969224 
L 132.754746 254.969224 
L 132.754746 254.756442 
L 133.765759 254.685515 
L 133.765759 254.614588 
L 135.932769 254.543661 
L 135.932769 254.33088 
L 136.790153 254.33088 
L 136.790153 254.189026 
L 139.556456 254.118099 
L 139.556456 253.905318 
L 140.110942 253.905318 
L 140.110942 253.692536 
L 140.26641 253.692536 
L 140.26641 253.550682 
L 142.797687 253.479755 
L 142.797687 253.408828 
L 143.657415 253.408828 
L 143.657415 253.196047 
L 146.136998 253.12512 
L 146.136998 253.054193 
L 147.971093 252.983266 
L 147.971093 252.628631 
L 150.198193 252.557704 
L 150.198193 252.486776 
L 151.689867 252.486776 
L 151.689867 252.273995 
L 151.857828 252.273995 
L 151.899585 251.990287 
L 152.515067 251.990287 
L 152.515067 251.777506 
L 153.536404 251.706579 
L 153.536404 251.635652 
L 155.077392 251.564725 
L 155.077392 251.493798 
L 156.105602 251.493798 
L 156.105602 251.281016 
L 156.238546 251.281016 
L 156.238546 251.068235 
L 156.599372 250.997308 
L 156.664239 250.7136 
L 157.518738 250.7136 
L 157.580516 250.075256 
L 157.795157 250.004329 
L 157.856036 249.649694 
L 158.127579 249.649694 
L 158.127579 249.50784 
L 158.336102 249.50784 
L 158.424766 249.224132 
L 158.630038 249.153205 
L 158.630038 249.082278 
L 158.890711 249.011351 
L 158.890711 248.940424 
L 159.401463 248.869496 
L 159.401463 248.798569 
L 159.734419 248.798569 
L 159.734419 248.373007 
L 159.980326 248.373007 
L 159.980326 248.231153 
L 160.223059 248.231153 
L 160.303279 247.592809 
L 160.489139 247.592809 
L 160.541906 247.309101 
L 160.620781 247.309101 
L 160.620781 247.09632 
L 160.881333 247.025393 
L 160.9588 246.741685 
L 161.112783 246.670758 
L 161.112783 246.528904 
L 161.265517 246.528904 
L 161.265517 246.316122 
L 161.542347 246.245195 
L 161.542347 246.174268 
L 161.691646 246.103341 
L 161.74115 245.394071 
L 161.864343 245.323144 
L 161.96232 244.897581 
L 162.325256 244.826654 
L 162.349204 244.613873 
L 162.539702 244.542946 
L 162.634233 244.401092 
L 162.938218 244.401092 
L 163.030771 243.762748 
L 163.214524 243.762748 
L 163.260183 243.195332 
L 163.44172 243.124405 
L 163.44172 243.053478 
L 163.643876 243.053478 
L 163.643876 242.840696 
L 163.865975 242.769769 
L 163.976048 242.344207 
L 164.194282 242.27328 
L 164.280872 242.131426 
L 164.623299 242.131426 
L 164.729041 241.422155 
L 164.876089 241.422155 
L 164.980424 240.996593 
L 165.001222 240.996593 
L 165.104867 240.145468 
L 165.125528 240.145468 
L 165.228492 239.790833 
L 165.392072 239.719906 
L 165.392072 239.578052 
L 165.674958 239.507125 
L 165.755007 238.939708 
L 165.834717 238.939708 
L 165.914091 238.443219 
L 166.012839 238.443219 
L 166.012839 238.301365 
L 166.441278 238.230438 
L 166.479748 237.663021 
L 166.632844 237.592094 
L 166.651893 237.308386 
L 166.8036 237.308386 
L 166.822478 236.599115 
L 166.972821 236.599115 
L 166.991529 236.386334 
L 167.103392 236.386334 
L 167.196106 235.889845 
L 167.233064 235.889845 
L 167.343504 235.251501 
L 167.453299 235.180574 
L 167.507957 234.471304 
L 167.652941 234.471304 
L 167.670986 234.258522 
L 167.814723 234.187595 
L 167.904005 233.762033 
L 167.957371 233.762033 
L 168.045979 233.052762 
L 168.116567 233.052762 
L 168.204431 232.769054 
L 168.309328 232.769054 
L 168.326754 232.414419 
L 168.465585 232.343492 
L 168.465585 232.059784 
L 168.6034 232.059784 
L 168.637696 231.705148 
L 168.842171 231.634221 
L 168.943582 231.137732 
L 168.994082 231.066805 
L 169.044448 230.570315 
L 169.111393 230.570315 
L 169.211366 230.21568 
L 169.261154 230.144753 
L 169.343842 230.002899 
L 169.458999 230.002899 
L 169.491772 229.719191 
L 169.573454 229.719191 
L 169.573454 229.648264 
L 169.671008 228.938993 
L 169.784185 228.868066 
L 169.880655 228.513431 
L 169.896685 228.513431 
L 169.976632 227.875087 
L 170.214455 227.80416 
L 170.27737 226.740254 
L 170.340075 226.740254 
L 170.433743 225.818202 
L 170.542436 225.818202 
L 170.557912 225.605421 
L 170.69663 225.605421 
L 170.803818 224.470588 
L 170.864796 224.399661 
L 170.955893 223.903172 
L 171.061619 223.832245 
L 171.106748 223.052047 
L 171.241492 223.052047 
L 171.315934 222.768339 
L 171.375276 222.697412 
L 171.419661 222.342776 
L 171.508116 222.271849 
L 171.610792 221.137016 
L 171.727453 221.066089 
L 171.814477 220.711454 
L 171.843395 220.711454 
L 171.944262 220.427746 
L 171.972982 220.427746 
L 172.073157 219.647548 
L 172.101681 219.576621 
L 172.201176 218.583642 
L 172.257795 218.512715 
L 172.328329 218.016226 
L 172.370523 218.016226 
L 172.454629 217.023247 
L 172.566188 216.95232 
L 172.649425 216.455831 
L 172.718509 216.384904 
L 172.814802 215.037289 
L 172.85592 214.966362 
L 172.965131 213.476894 
L 173.033068 213.476894 
L 173.087241 213.122259 
L 173.195121 213.051332 
L 173.302386 212.342061 
L 173.315751 212.342061 
L 173.409043 211.136301 
L 173.501874 211.065374 
L 173.581081 210.427031 
L 173.699269 210.427031 
L 173.803705 209.930541 
L 173.84272 209.859614 
L 173.920507 209.221271 
L 174.010854 209.221271 
L 174.036588 208.866635 
L 174.1775 208.795708 
L 174.279322 208.086438 
L 174.304691 208.015511 
L 174.405829 207.519021 
L 174.506426 207.448094 
L 174.518962 206.809751 
L 174.618958 206.809751 
L 174.718424 205.958626 
L 174.743209 205.958626 
L 174.817367 205.320282 
L 174.854337 205.320282 
L 174.940319 204.611012 
L 175.050293 204.540085 
L 175.159627 203.972668 
L 175.171736 203.972668 
L 175.280369 202.837835 
L 175.304425 202.766908 
L 175.412297 201.844856 
L 175.448117 201.844856 
L 175.543305 201.064659 
L 175.602554 200.993732 
L 175.661617 200.426315 
L 175.743995 200.355388 
L 175.849382 199.504264 
L 175.861055 199.504264 
L 175.861055 199.433336 
L 175.965791 198.582212 
L 175.977392 198.582212 
L 176.04685 197.731087 
L 176.162047 197.66016 
L 176.230828 196.525327 
L 176.287954 196.4544 
L 176.36764 195.816056 
L 176.401688 195.816056 
L 176.480894 195.461421 
L 176.57101 195.390494 
L 176.671876 194.823078 
L 176.694218 194.752151 
L 176.794427 194.255661 
L 176.838794 194.184734 
L 176.949256 193.333609 
L 176.99326 193.262682 
L 177.059073 192.908047 
L 177.157362 192.83712 
L 177.265975 192.198776 
L 177.373963 192.127849 
L 177.481335 191.347652 
L 177.534792 191.347652 
L 177.556133 191.063944 
L 177.704841 191.063944 
L 177.810347 190.070965 
L 177.88385 190.000038 
L 177.977934 189.645402 
L 178.102652 189.574475 
L 178.164702 189.432621 
L 178.236837 189.361694 
L 178.318938 189.077986 
L 178.431246 189.007059 
L 178.532766 188.297788 
L 178.542888 188.297788 
L 178.653871 187.943153 
L 178.754199 187.943153 
L 178.863946 187.446664 
L 178.91362 187.375736 
L 179.022444 186.737393 
L 179.071702 186.666466 
L 179.120831 186.311831 
L 179.199172 186.311831 
L 179.296641 185.389779 
L 179.354881 185.318852 
L 179.461189 184.538654 
L 179.547723 184.467727 
L 179.643407 184.042165 
L 179.719606 183.971238 
L 179.814423 183.758456 
L 179.899351 183.687529 
L 180.002634 183.332894 
L 180.096038 183.261967 
L 180.114663 183.120113 
L 180.281466 183.049186 
L 180.391852 182.765478 
L 180.492474 182.694551 
L 180.556226 182.481769 
L 180.773181 182.410842 
L 180.844946 182.268988 
L 180.925357 182.198061 
L 180.925357 182.127134 
L 181.365929 182.056207 
L 181.409423 181.772499 
L 181.608215 181.701572 
L 181.608215 181.559718 
L 181.753809 181.488791 
L 181.855908 181.276009 
L 181.932119 181.205082 
L 181.932119 181.134155 
L 182.142212 181.063228 
L 182.250541 180.708593 
L 182.341718 180.637666 
L 182.399511 180.495812 
L 182.489971 180.424885 
L 182.563662 180.212104 
L 182.726392 180.141176 
L 182.815298 179.786541 
L 183.071568 179.715614 
L 183.071568 179.644687 
L 183.292976 179.57376 
L 183.387073 179.360979 
L 183.566121 179.290052 
L 183.566121 179.219125 
L 183.896359 179.219125 
L 183.964751 178.864489 
L 184.362536 178.793562 
L 184.362536 178.722635 
L 184.547291 178.651708 
L 184.598699 178.509854 
L 184.81744 178.438927 
L 184.81744 178.368 
L 185.598409 178.297073 
L 185.640089 177.942438 
L 185.757683 177.942438 
L 185.833384 177.233167 
L 185.901939 177.233167 
L 185.990689 176.311115 
L 186.14669 176.240188 
L 186.193913 175.885553 
L 186.267881 175.885553 
L 186.348244 175.601845 
L 186.381628 175.601845 
L 186.401629 175.389064 
L 186.560881 175.318136 
L 186.574092 175.176282 
L 186.686007 175.176282 
L 186.764607 174.396085 
L 186.810306 174.325158 
L 186.868898 173.970522 
L 186.940265 173.970522 
L 187.050029 172.906616 
L 187.056466 172.906616 
L 187.056466 172.693835 
L 187.184741 172.622908 
L 187.293092 171.913638 
L 187.356538 171.842711 
L 187.438698 171.275294 
L 187.470203 171.275294 
L 187.564402 170.282315 
L 187.60195 170.282315 
L 187.701713 169.714899 
L 187.738989 169.643972 
L 187.831855 169.218409 
L 187.868873 169.147482 
L 187.936552 168.012649 
L 188.040669 168.012649 
L 188.101647 167.232452 
L 188.192744 167.161525 
L 188.301482 166.097619 
L 188.325561 166.097619 
L 188.415583 165.601129 
L 188.493255 165.530202 
L 188.594344 164.891859 
L 188.736141 164.820932 
L 188.835937 164.253515 
L 188.911896 164.253515 
L 189.004965 163.544245 
L 189.039748 163.544245 
L 189.14947 162.409412 
L 189.201221 162.338485 
L 189.310008 161.629214 
L 189.338532 161.558287 
L 189.446531 161.132725 
L 189.486164 161.061798 
L 189.570812 159.997892 
L 189.638257 159.926965 
L 189.744553 159.501402 
L 189.78913 159.430475 
L 189.877969 159.004913 
L 189.911175 159.004913 
L 190.021443 157.941007 
L 190.174739 157.87008 
L 190.283477 156.238758 
L 190.418521 156.167831 
L 190.5098 156.025976 
L 190.531213 156.025976 
L 190.627272 155.529487 
L 190.680428 155.529487 
L 190.680428 155.45856 
L 190.77573 154.2528 
L 190.875805 154.181873 
L 190.980576 153.756311 
L 191.017109 153.685384 
L 191.126282 153.472602 
L 191.224515 153.401675 
L 191.327367 153.188894 
L 191.516173 153.117967 
L 191.571941 152.905186 
L 191.703102 152.834259 
L 191.783365 152.621478 
L 191.838348 152.550551 
L 191.947833 152.054061 
L 192.096112 151.983134 
L 192.194319 151.486645 
L 192.233459 151.415718 
L 192.292017 151.132009 
L 192.476255 151.061082 
L 192.548487 150.63552 
L 192.6348 150.564593 
L 192.6348 150.493666 
L 192.768284 150.422739 
L 192.863053 150.068104 
L 192.96675 149.997176 
L 193.05117 149.571614 
L 193.167795 149.500687 
L 193.26983 149.146052 
L 193.288323 149.075125 
L 193.366714 148.791416 
L 193.522523 148.720489 
L 193.609034 148.153073 
L 193.649874 148.082146 
L 193.722261 147.585656 
L 193.785372 147.585656 
L 193.893072 146.805459 
L 193.928836 146.734532 
L 194.031278 146.025261 
L 194.0446 146.025261 
L 194.142 145.528772 
L 194.212521 145.457845 
L 194.31781 144.748574 
L 194.339671 144.677647 
L 194.444253 143.968376 
L 194.487658 143.897449 
L 194.591422 143.188179 
L 194.612968 143.117252 
L 194.716045 142.407981 
L 194.741726 142.337054 
L 194.852608 141.060367 
L 194.85686 141.060367 
L 194.93746 140.209242 
L 195.009284 140.138315 
L 195.118605 139.641826 
L 195.135367 139.570899 
L 195.235629 139.216264 
L 195.248124 139.216264 
L 195.322922 138.719774 
L 195.360209 138.719774 
L 195.467515 137.868649 
L 195.541447 137.797722 
L 195.651803 136.733816 
L 195.668098 136.662889 
L 195.773667 136.379181 
L 195.801988 136.308254 
L 195.910831 135.386202 
L 195.918868 135.315275 
L 196.007054 134.606005 
L 196.035026 134.535078 
L 196.12267 134.109515 
L 196.194076 134.109515 
L 196.269157 133.613026 
L 196.312488 133.613026 
L 196.312488 133.542099 
L 196.324288 133.329318 
L 196.457509 133.258391 
L 196.566517 132.832828 
L 196.570398 132.832828 
L 196.674897 132.194485 
L 196.725004 132.123558 
L 196.817161 131.556141 
L 196.84013 131.556141 
L 196.924111 131.130579 
L 196.992544 131.059652 
L 197.098503 130.563162 
L 197.143733 130.492235 
L 197.248846 130.066673 
L 197.256332 130.066673 
L 197.256332 129.995746 
L 197.353376 129.357402 
L 197.412847 129.286475 
L 197.483226 128.860913 
L 197.560709 128.789986 
L 197.670847 128.577205 
L 197.732974 128.506278 
L 197.842111 128.151642 
L 197.874729 128.151642 
L 197.968642 127.797007 
L 197.986649 127.797007 
L 197.986649 127.72608 
L 198.090749 127.442372 
L 198.112215 127.371445 
L 198.215625 126.945882 
L 198.336144 126.874955 
L 198.420753 126.449393 
L 198.529481 126.378466 
L 198.630628 126.094758 
L 198.703534 126.023831 
L 198.779611 125.881976 
L 198.965049 125.811049 
L 199.063887 125.385487 
L 199.16559 125.31456 
L 199.256654 124.959925 
L 199.623168 124.888998 
L 199.623168 124.818071 
L 199.826645 124.747144 
L 199.921069 124.179727 
L 200.03763 124.1088 
L 200.03763 124.037873 
L 200.188727 123.966946 
L 200.188727 123.896019 
L 200.306828 123.825092 
L 200.417867 123.328602 
L 200.452631 123.257675 
L 200.543972 122.973967 
L 200.578503 122.90304 
L 200.578503 122.832113 
L 200.734668 122.761186 
L 200.843217 122.406551 
L 200.880291 122.335624 
L 200.969584 121.839134 
L 201.073735 121.768207 
L 201.174275 121.484499 
L 201.271258 121.413572 
L 201.376763 121.058936 
L 201.39479 120.988009 
L 201.47271 120.704301 
L 201.532429 120.633374 
L 201.603843 119.995031 
L 201.713411 119.924104 
L 201.798844 119.569468 
L 201.848746 119.569468 
L 201.951071 119.214833 
L 201.980204 119.143906 
L 202.070233 118.434635 
L 202.145409 118.363708 
L 202.243267 117.796292 
L 202.280548 117.725365 
L 202.386256 116.661459 
L 202.428941 116.590532 
L 202.53382 116.023115 
L 202.61843 115.952188 
L 202.716663 115.66848 
L 202.755813 115.597553 
L 202.850554 115.030136 
L 202.889426 115.030136 
L 202.994534 113.824376 
L 203.019343 113.753449 
L 203.123729 112.831398 
L 203.151104 112.760471 
L 203.257484 111.129148 
L 203.292811 111.058221 
L 203.401095 109.852461 
L 203.425373 109.781534 
L 203.524855 108.008358 
L 203.591777 107.937431 
L 203.698358 106.944452 
L 203.740822 106.873525 
L 203.849201 105.596838 
L 203.862375 105.596838 
L 203.972676 104.532932 
L 203.988381 104.462005 
L 204.084937 102.830682 
L 204.100549 102.830682 
L 204.20688 101.624922 
L 204.214637 101.624922 
L 204.322898 99.922673 
L 204.330607 99.922673 
L 204.440759 98.007642 
L 204.461181 97.936715 
L 204.555347 97.440226 
L 204.595922 97.369299 
L 204.704536 96.447247 
L 204.73222 96.37632 
L 204.837551 95.596122 
L 204.857547 95.596122 
L 204.954726 94.532216 
L 205.011802 94.461289 
L 205.10819 93.610165 
L 205.140209 93.539238 
L 205.243287 92.900894 
L 205.257966 92.829967 
L 205.345802 91.766061 
L 205.387138 91.695134 
L 205.493706 91.340499 
L 205.515429 91.269572 
L 205.618876 90.844009 
L 205.647643 90.773082 
L 205.697881 90.418447 
L 205.774176 90.34752 
L 205.866745 89.851031 
L 205.911678 89.780104 
L 205.989465 89.14176 
L 206.069275 89.070833 
L 206.174387 88.574344 
L 206.197666 88.503416 
L 206.299751 88.219708 
L 206.325187 88.148781 
L 206.401286 87.865073 
L 206.483954 87.794146 
L 206.586781 87.368584 
L 206.614107 87.368584 
L 206.66864 87.084875 
L 206.894174 87.013948 
L 206.945666 86.801167 
L 207.063789 86.73024 
L 207.163503 86.375605 
L 207.223079 86.304678 
L 207.293443 86.162824 
L 207.457337 86.091896 
L 207.511652 85.879115 
L 207.720923 85.808188 
L 207.768064 85.595407 
L 207.9491 85.52448 
L 207.997788 85.382626 
L 208.09689 85.311699 
L 208.193382 85.098918 
L 208.422134 85.027991 
L 208.519032 84.744282 
L 208.835097 84.673355 
L 208.913794 84.531501 
L 209.070207 84.460574 
L 209.171778 83.751304 
L 209.193614 83.680376 
L 209.294523 81.056075 
L 209.328039 80.985148 
L 209.434109 80.346805 
L 209.439984 80.346805 
L 209.541531 79.353826 
L 209.557105 79.353826 
L 209.667699 77.226014 
L 209.675436 77.155087 
L 209.785338 75.240056 
L 209.791104 75.240056 
L 209.791104 75.169129 
L 209.896513 73.325026 
L 209.915615 73.254099 
L 210.026025 71.126287 
L 210.054474 71.05536 
L 210.164075 69.069402 
L 210.169726 69.069402 
L 210.280532 66.516028 
L 210.297377 66.445101 
L 210.403716 64.317289 
L 210.416733 64.317289 
L 210.526098 62.827821 
L 210.548264 62.756894 
L 210.655033 61.338353 
L 210.686213 61.267426 
L 210.794026 60.061666 
L 210.799492 60.061666 
L 210.908471 58.643125 
L 210.926573 58.572198 
L 211.027623 57.295511 
L 211.077945 57.224584 
L 211.185328 56.373459 
L 211.215642 56.302532 
L 211.325786 55.38048 
L 211.359411 55.309553 
L 211.458169 54.671209 
L 211.479264 54.671209 
L 211.531899 54.103793 
L 211.607086 54.032866 
L 211.676758 53.749158 
L 211.758295 53.678231 
L 211.818785 53.394522 
L 211.952896 53.323595 
L 212.034953 52.898033 
L 212.080953 52.827106 
L 212.16076 52.330616 
L 212.211525 52.259689 
L 212.30592 51.975981 
L 212.349586 51.905054 
L 212.428264 51.621346 
L 212.48331 51.550419 
L 212.581326 51.266711 
L 212.787315 51.195784 
L 212.852758 50.983002 
L 213.601989 50.912075 
L 213.601989 50.841148 
L 213.873112 50.770221 
L 213.961085 50.486513 
L 214.02718 50.415586 
L 214.134281 50.131878 
L 214.28472 50.060951 
L 214.393379 49.635388 
L 214.436968 49.564461 
L 214.531314 49.280753 
L 214.573094 49.209826 
L 214.626676 48.855191 
L 214.730427 48.784264 
L 214.833609 48.14592 
L 214.860051 48.074993 
L 214.965446 47.082014 
L 214.985871 47.011087 
L 215.094915 45.7344 
L 215.107958 45.7344 
L 215.216299 44.812348 
L 215.230698 44.812348 
L 215.230698 44.741421 
L 215.339767 43.961224 
L 215.376936 43.890296 
L 215.482323 43.110099 
L 215.519211 43.039172 
L 215.618167 42.471755 
L 215.684319 42.400828 
L 215.776821 41.620631 
L 215.80895 41.549704 
L 215.854952 41.407849 
L 215.935534 41.407849 
L 216.04336 40.627652 
L 216.059894 40.556725 
L 216.161534 40.060235 
L 216.18891 39.989308 
L 216.296659 39.280038 
L 216.321123 39.209111 
L 216.411905 38.783548 
L 216.465895 38.712621 
L 216.543907 38.357986 
L 216.641636 38.287059 
L 216.733547 37.861496 
L 216.813105 37.790569 
L 216.863318 37.506861 
L 217.000063 37.435934 
L 217.010541 37.29408 
L 217.202039 37.223153 
L 217.202039 37.152226 
L 217.355646 37.081299 
L 217.355646 37.010372 
L 217.589444 36.939445 
L 217.655351 36.797591 
L 217.775166 36.726664 
L 217.775166 36.655736 
L 218.272668 36.584809 
L 218.375237 36.442955 
L 218.590755 36.372028 
L 218.665246 36.230174 
L 218.77405 36.159247 
L 218.84307 35.733685 
L 218.929582 35.662758 
L 219.013343 35.308122 
L 219.077974 35.237195 
L 219.168085 34.811633 
L 219.253118 34.740706 
L 219.349335 34.315144 
L 219.433555 34.244216 
L 219.538016 33.889581 
L 219.570042 33.818654 
L 219.674886 33.393092 
L 219.724823 33.322165 
L 219.827684 32.967529 
L 219.88621 32.896602 
L 219.969184 32.754748 
L 220.029502 32.683821 
L 220.137369 32.258259 
L 220.425666 32.187332 
L 220.518256 31.832696 
L 220.749367 31.761769 
L 220.749367 31.690842 
L 220.999928 31.619915 
L 220.999928 31.548988 
L 221.368064 31.478061 
L 221.380523 31.336207 
L 222.078403 31.26528 
L 222.169196 30.981572 
L 222.438974 30.910645 
L 222.476221 30.768791 
L 222.687518 30.697864 
L 222.778316 30.485082 
L 223.037658 30.414155 
L 223.077533 30.272301 
L 223.261568 30.201374 
L 223.346839 29.917666 
L 223.474489 29.846739 
L 223.580053 29.563031 
L 223.804024 29.492104 
L 223.840488 29.350249 
L 224.177151 29.279322 
L 224.177151 29.208395 
L 224.435681 29.137468 
L 224.435681 29.066541 
L 224.78708 28.995614 
L 224.78708 28.924687 
L 225.529978 28.85376 
L 225.582351 28.640979 
L 226.17238 28.570052 
L 226.237435 28.428198 
L 226.493844 28.357271 
L 226.493844 28.286344 
L 227.807255 28.215416 
L 227.807255 28.144489 
L 228.436094 28.073562 
L 228.447503 27.931708 
L 229.680811 27.860781 
L 229.680811 27.789854 
L 230.107239 27.718927 
L 230.107239 27.648 
L 360.8064 27.648 
L 360.8064 27.648 
" style="fill: none; stroke: #ff00ff; stroke-width: 1.5; stroke-linecap: square"/>
   </g>
   <g id="line2d_40">
    <defs>
     <path id="mbd1bc60955" d="M -0 8.485281 
L 5.091169 0 
L 0 -8.485281 
L -5.091169 -0 
z
" style="stroke: #ff00ff; stroke-width: 1.5; stroke-linejoin: miter"/>
    </defs>
    <g>
     <use xlink:href="#mbd1bc60955" x="127.761474" y="255.962202" style="fill-opacity: 0; stroke: #ff00ff; stroke-width: 1.5; stroke-linejoin: miter"/>
     <use xlink:href="#mbd1bc60955" x="190.21831" y="157.373591" style="fill-opacity: 0; stroke: #ff00ff; stroke-width: 1.5; stroke-linejoin: miter"/>
     <use xlink:href="#mbd1bc60955" x="230.107239" y="27.718927" style="fill-opacity: 0; stroke: #ff00ff; stroke-width: 1.5; stroke-linejoin: miter"/>
     <use xlink:href="#mbd1bc60955" x="230.107239" y="27.648" style="fill-opacity: 0; stroke: #ff00ff; stroke-width: 1.5; stroke-linejoin: miter"/>
     <use xlink:href="#mbd1bc60955" x="230.107239" y="27.648" style="fill-opacity: 0; stroke: #ff00ff; stroke-width: 1.5; stroke-linejoin: miter"/>
     <use xlink:href="#mbd1bc60955" x="360.8064" y="27.648" style="fill-opacity: 0; stroke: #ff00ff; stroke-width: 1.5; stroke-linejoin: miter"/>
    </g>
   </g>
   <g id="line2d_41">
    <path style="fill: none; stroke: #ff00ff; stroke-width: 1.5; stroke-linecap: square"/>
    <g/>
   </g>
   <g id="line2d_42">
    <path d="M 104.860369 259.863191 
" clip-path="url(#pb8e4580ae2)" style="fill: none; stroke: #ff00ff; stroke-width: 1.5; stroke-linecap: square"/>
    <defs>
     <path id="m140152bc85" d="M -12 12 
L 12 -12 
M -12 -12 
L 12 12 
" style="stroke: #ff00ff"/>
    </defs>
    <g clip-path="url(#pb8e4580ae2)">
     <use xlink:href="#m140152bc85" x="104.860369" y="259.863191" style="fill: #ff00ff; stroke: #ff00ff"/>
    </g>
   </g>
   <g id="line2d_43">
    <defs>
     <path id="mf841787f35" d="M 0 1.5 
C 0.397805 1.5 0.77937 1.341951 1.06066 1.06066 
C 1.341951 0.77937 1.5 0.397805 1.5 0 
C 1.5 -0.397805 1.341951 -0.77937 1.06066 -1.06066 
C 0.77937 -1.341951 0.397805 -1.5 0 -1.5 
C -0.397805 -1.5 -0.77937 -1.341951 -1.06066 -1.06066 
C -1.341951 -0.77937 -1.5 -0.397805 -1.5 0 
C -1.5 0.397805 -1.341951 0.77937 -1.06066 1.06066 
C -0.77937 1.341951 -0.397805 1.5 0 1.5 
z
" style="stroke: #ff7500"/>
    </defs>
    <g>
     <use xlink:href="#mf841787f35" x="211.188897" y="27.648" style="fill: #ff7500; stroke: #ff7500"/>
     <use xlink:href="#mf841787f35" x="211.188897" y="27.648" style="fill: #ff7500; stroke: #ff7500"/>
    </g>
   </g>
   <g id="line2d_44">
    <path d="M 36.933397 298.944 
L 36.933397 271.282447 
L 57.6 271.282447 
L 57.6 270.218541 
L 76.050921 270.218541 
L 76.050921 269.154635 
L 85.184077 269.154635 
L 85.184077 267.026824 
L 86.578163 267.026824 
L 86.578163 265.962918 
L 91.305777 265.962918 
L 91.305777 263.835106 
L 105.850679 263.835106 
L 105.850679 261.707294 
L 110.897141 261.707294 
L 110.897141 260.643388 
L 120.506564 260.643388 
L 120.506564 259.579482 
L 129.069367 259.579482 
L 129.069367 258.515576 
L 132.984158 258.515576 
L 132.984158 257.451671 
L 134.620977 257.451671 
L 134.620977 255.323859 
L 135.338671 255.323859 
L 135.338671 254.259953 
L 140.875745 254.259953 
L 140.875745 253.196047 
L 141.610664 253.196047 
L 141.610664 252.132141 
L 151.089903 252.132141 
L 151.089903 251.068235 
L 153.344252 251.068235 
L 153.344252 250.004329 
L 155.147716 250.004329 
L 155.147716 248.940424 
L 155.836861 248.940424 
L 155.836861 247.876518 
L 158.919453 247.876518 
L 158.919453 246.812612 
L 159.176172 246.812612 
L 159.176172 245.748706 
L 160.515541 245.748706 
L 160.515541 244.6848 
L 161.617145 244.6848 
L 161.617145 242.556988 
L 162.253227 242.556988 
L 162.325256 240.429176 
L 162.515995 240.429176 
L 162.515995 239.365271 
L 162.704821 239.365271 
L 162.704821 238.301365 
L 163.030771 238.301365 
L 163.030771 237.237459 
L 163.486831 237.237459 
L 163.486831 234.045741 
L 164.041785 234.045741 
L 164.041785 232.981835 
L 164.345553 232.981835 
L 164.367065 230.854024 
L 165.166781 230.854024 
L 165.269521 226.5984 
L 165.834717 226.5984 
L 165.834717 225.534494 
L 166.344759 225.534494 
L 166.344759 224.470588 
L 166.708927 224.470588 
L 166.8036 222.342776 
L 166.841337 222.342776 
L 166.841337 221.278871 
L 167.325142 221.278871 
L 167.325142 219.151059 
L 167.507957 219.151059 
L 167.507957 218.087153 
L 167.850487 218.087153 
L 167.904005 213.831529 
L 168.344164 213.831529 
L 168.344164 211.703718 
L 168.637696 211.703718 
L 168.637696 210.639812 
L 168.994082 210.639812 
L 169.061207 208.512 
L 169.227977 208.512 
L 169.227977 207.448094 
L 169.409732 207.448094 
L 169.491772 204.256376 
L 169.976632 204.256376 
L 169.976632 203.192471 
L 170.324419 203.192471 
L 170.402572 200.000753 
L 170.71198 200.000753 
L 170.819081 196.809035 
L 171.15177 196.809035 
L 171.256404 193.617318 
L 171.537509 193.617318 
L 171.537509 191.489506 
L 171.843395 191.489506 
L 171.843395 190.4256 
L 172.130162 190.4256 
L 172.130162 189.361694 
L 172.314244 189.361694 
L 172.370523 186.169976 
L 172.440637 186.169976 
L 172.440637 184.042165 
L 172.593974 184.042165 
L 172.593974 182.978259 
L 172.978738 182.978259 
L 172.978738 180.850447 
L 173.141258 180.850447 
L 173.141258 179.786541 
L 173.382435 179.786541 
L 173.475398 176.594824 
L 173.620559 176.594824 
L 173.725432 173.403106 
L 173.985085 173.403106 
L 174.075124 170.211388 
L 174.380595 170.211388 
L 174.380595 168.083576 
L 174.693607 168.083576 
L 174.693607 167.019671 
L 175.001495 167.019671 
L 175.02591 162.764047 
L 175.919314 162.764047 
L 175.919314 161.700141 
L 176.127562 161.700141 
L 176.127562 160.636235 
L 176.378996 160.636235 
L 176.446989 158.508424 
L 179.499697 158.508424 
L 179.499697 157.444518 
L 180.674054 157.444518 
L 180.674054 156.380612 
L 203.583759 156.380612 
L 203.583759 155.316706 
L 204.304897 155.316706 
L 204.304897 154.2528 
L 205.078585 154.2528 
L 205.078585 153.188894 
L 205.216345 153.188894 
L 205.231045 149.997176 
L 205.389567 149.997176 
L 205.404132 144.677647 
L 205.690712 144.677647 
L 205.714597 141.485929 
L 205.819331 141.485929 
L 205.899864 137.230306 
L 205.949433 137.230306 
L 205.949433 136.1664 
L 206.090344 136.1664 
L 206.113727 134.038588 
L 206.237174 134.038588 
L 206.248778 129.782965 
L 206.366734 129.782965 
L 206.366734 127.655153 
L 206.561697 127.655153 
L 206.579943 122.335624 
L 206.813292 122.335624 
L 206.90538 113.824376 
L 206.927772 113.824376 
L 207.014847 109.568753 
L 207.085993 109.568753 
L 207.121466 106.377035 
L 207.19883 106.377035 
L 207.295638 99.9936 
L 207.339477 99.9936 
L 207.346045 96.801882 
L 207.49863 96.801882 
L 207.552827 94.674071 
L 207.619814 94.674071 
L 207.723068 90.418447 
L 207.783039 90.418447 
L 207.838556 87.226729 
L 207.974518 87.226729 
L 208.025251 82.971106 
L 208.107403 82.971106 
L 208.199657 78.715482 
L 208.322657 78.715482 
L 208.382821 72.332047 
L 208.508748 72.332047 
L 208.56832 70.204235 
L 209.659959 70.204235 
L 209.673502 67.012518 
L 209.871652 67.012518 
L 209.972805 58.501271 
L 210.179142 58.501271 
L 210.179142 56.373459 
L 210.373927 56.373459 
L 210.481687 51.053929 
L 210.494651 51.053929 
L 210.55011 48.926118 
L 210.620124 48.926118 
L 210.697205 45.7344 
L 210.737455 45.7344 
L 210.814059 41.478776 
L 210.850427 41.478776 
L 210.904848 38.287059 
L 210.962724 38.287059 
L 211.070765 34.031435 
L 211.115599 34.031435 
L 211.188897 27.648 
L 360.8064 27.648 
L 360.8064 27.648 
" style="fill: none; stroke: #ff7500; stroke-width: 1.5; stroke-linecap: square"/>
   </g>
   <g id="line2d_45">
    <defs>
     <path id="m2c41337b65" d="M 0 -6 
L -1.347084 -1.854102 
L -5.706339 -1.854102 
L -2.179628 0.708204 
L -3.526712 4.854102 
L -0 2.291796 
L 3.526712 4.854102 
L 2.179628 0.708204 
L 5.706339 -1.854102 
L 1.347084 -1.854102 
z
" style="stroke: #ff7500; stroke-width: 1.5; stroke-linejoin: bevel"/>
    </defs>
    <g>
     <use xlink:href="#m2c41337b65" x="135.338671" y="255.323859" style="fill-opacity: 0; stroke: #ff7500; stroke-width: 1.5; stroke-linejoin: bevel"/>
     <use xlink:href="#m2c41337b65" x="205.819331" y="141.485929" style="fill-opacity: 0; stroke: #ff7500; stroke-width: 1.5; stroke-linejoin: bevel"/>
     <use xlink:href="#m2c41337b65" x="211.188897" y="29.775812" style="fill-opacity: 0; stroke: #ff7500; stroke-width: 1.5; stroke-linejoin: bevel"/>
     <use xlink:href="#m2c41337b65" x="211.188897" y="27.648" style="fill-opacity: 0; stroke: #ff7500; stroke-width: 1.5; stroke-linejoin: bevel"/>
     <use xlink:href="#m2c41337b65" x="211.188897" y="27.648" style="fill-opacity: 0; stroke: #ff7500; stroke-width: 1.5; stroke-linejoin: bevel"/>
     <use xlink:href="#m2c41337b65" x="360.8064" y="27.648" style="fill-opacity: 0; stroke: #ff7500; stroke-width: 1.5; stroke-linejoin: bevel"/>
    </g>
   </g>
   <g id="line2d_46">
    <path style="fill: none; stroke: #ff7500; stroke-width: 1.5; stroke-linecap: square"/>
    <g/>
   </g>
   <g id="line2d_47">
    <defs>
     <path id="m0ad688b1fe" d="M 0 1.5 
C 0.397805 1.5 0.77937 1.341951 1.06066 1.06066 
C 1.341951 0.77937 1.5 0.397805 1.5 0 
C 1.5 -0.397805 1.341951 -0.77937 1.06066 -1.06066 
C 0.77937 -1.341951 0.397805 -1.5 0 -1.5 
C -0.397805 -1.5 -0.77937 -1.341951 -1.06066 -1.06066 
C -1.341951 -0.77937 -1.5 -0.397805 -1.5 0 
C -1.5 0.397805 -1.341951 0.77937 -1.06066 1.06066 
C -0.77937 1.341951 -0.397805 1.5 0 1.5 
z
" style="stroke: #6495ed"/>
    </defs>
    <g>
     <use xlink:href="#m0ad688b1fe" x="226.849529" y="27.648" style="fill: #6495ed; stroke: #6495ed"/>
     <use xlink:href="#m0ad688b1fe" x="226.849529" y="27.648" style="fill: #6495ed; stroke: #6495ed"/>
    </g>
   </g>
   <g id="line2d_48">
    <path d="M 36.933397 298.944 
L 36.933397 277.311247 
L 49.972572 277.311247 
L 49.972572 273.764894 
L 57.6 273.764894 
L 57.6 272.700988 
L 63.011746 272.700988 
L 63.011746 271.282447 
L 67.209423 271.282447 
L 67.209423 269.154635 
L 70.639174 269.154635 
L 70.639174 268.445365 
L 73.538988 268.445365 
L 73.538988 267.381459 
L 80.248597 267.381459 
L 80.248597 266.317553 
L 82.04153 266.317553 
L 82.04153 265.253647 
L 83.678349 265.253647 
L 83.678349 264.189741 
L 85.184077 264.189741 
L 85.184077 263.835106 
L 87.876026 263.835106 
L 87.876026 263.480471 
L 89.090095 263.480471 
L 89.090095 263.125835 
L 92.322865 263.125835 
L 92.322865 261.707294 
L 97.485448 261.707294 
L 97.485448 261.352659 
L 100.9152 261.352659 
L 100.9152 260.998024 
L 103.815014 260.998024 
L 103.815014 260.643388 
L 108.956085 260.643388 
L 108.956085 260.288753 
L 109.756698 260.288753 
L 109.756698 259.934118 
L 117.899543 259.934118 
L 117.899543 259.579482 
L 120.506564 259.579482 
L 120.506564 259.224847 
L 124.659926 259.224847 
L 124.659926 258.870212 
L 125.184934 258.870212 
L 125.184934 258.515576 
L 125.526971 258.515576 
L 125.526971 258.160941 
L 125.695686 258.160941 
L 125.695686 257.806306 
L 127.458055 257.806306 
L 127.458055 257.451671 
L 128.786481 257.451671 
L 128.786481 257.097035 
L 129.348062 257.097035 
L 129.348062 256.7424 
L 130.027253 256.7424 
L 130.027253 256.387765 
L 131.808053 256.387765 
L 131.808053 256.033129 
L 135.034434 256.033129 
L 135.034434 255.678494 
L 137.067478 255.678494 
L 137.067478 255.323859 
L 137.699101 255.323859 
L 137.699101 254.614588 
L 139.394983 254.614588 
L 139.394983 254.259953 
L 146.136998 254.259953 
L 146.136998 253.905318 
L 147.183884 253.905318 
L 147.183884 253.196047 
L 148.726679 253.196047 
L 148.726679 252.841412 
L 154.468783 252.841412 
L 154.468783 252.486776 
L 158.0375 252.486776 
L 158.0375 252.132141 
L 158.454228 252.132141 
L 158.454228 251.777506 
L 158.571617 251.777506 
L 158.571617 251.068235 
L 159.14782 251.068235 
L 159.14782 250.358965 
L 159.568678 250.358965 
L 159.596403 249.649694 
L 159.953161 249.649694 
L 159.953161 249.295059 
L 161.888886 249.295059 
L 161.888886 248.940424 
L 162.56338 248.940424 
L 162.587027 248.231153 
L 163.076878 248.231153 
L 163.076878 247.876518 
L 163.191653 247.876518 
L 163.191653 247.521882 
L 163.576732 247.521882 
L 163.576732 247.167247 
L 163.688506 247.167247 
L 163.777449 246.457976 
L 164.107292 246.457976 
L 164.107292 246.103341 
L 164.280872 246.103341 
L 164.345553 245.394071 
L 164.580835 245.394071 
L 164.686815 244.330165 
L 165.228492 244.330165 
L 165.228492 243.975529 
L 165.371702 243.975529 
L 165.371702 243.620894 
L 165.534047 243.620894 
L 165.534047 243.266259 
L 165.715025 243.266259 
L 165.735027 242.202353 
L 167.103392 242.202353 
L 167.159075 241.493082 
L 167.251516 241.493082 
L 167.251516 241.138447 
L 167.471536 241.138447 
L 167.580589 240.429176 
L 168.551837 240.429176 
L 168.551837 240.074541 
L 168.77426 240.074541 
L 168.77426 239.719906 
L 169.111393 239.719906 
L 169.111393 239.365271 
L 169.475392 239.365271 
L 169.475392 239.010635 
L 169.622295 239.010635 
L 169.622295 238.656 
L 170.198694 238.656 
L 170.293066 237.237459 
L 170.340075 237.237459 
L 170.449309 236.528188 
L 170.727317 236.528188 
L 170.727317 236.173553 
L 170.986161 236.173553 
L 170.986161 235.818918 
L 171.15177 235.818918 
L 171.181725 234.755012 
L 171.508116 234.755012 
L 171.508116 233.691106 
L 171.828941 233.691106 
L 171.828941 233.336471 
L 172.215347 233.336471 
L 172.215347 232.272565 
L 172.384567 232.272565 
L 172.384567 231.917929 
L 172.496541 231.917929 
L 172.496541 231.563294 
L 172.924252 231.563294 
L 172.978738 230.854024 
L 173.221995 230.854024 
L 173.262233 230.144753 
L 173.435613 230.144753 
L 173.435613 229.790118 
L 173.7385 229.790118 
L 173.790682 228.726212 
L 174.164733 228.726212 
L 174.164733 228.371576 
L 174.393216 228.371576 
L 174.49388 226.953035 
L 174.668757 226.953035 
L 174.681186 225.889129 
L 174.878944 225.889129 
L 174.964813 224.470588 
L 175.038105 224.470588 
L 175.14751 223.406682 
L 175.256283 223.406682 
L 175.256283 222.697412 
L 175.376408 222.697412 
L 175.483869 221.633506 
L 175.507666 221.633506 
L 175.55517 220.924235 
L 175.661617 220.924235 
L 175.696966 219.860329 
L 175.977392 219.860329 
L 175.977392 219.505694 
L 176.207929 219.505694 
L 176.207929 219.151059 
L 176.548521 219.151059 
L 176.548521 218.796424 
L 176.705378 218.796424 
L 176.805529 218.087153 
L 176.894106 218.087153 
L 176.894106 217.732518 
L 177.124656 217.732518 
L 177.124656 216.668612 
L 177.352415 216.668612 
L 177.352415 216.313976 
L 178.123358 216.313976 
L 178.195651 214.895435 
L 178.47192 214.895435 
L 178.47192 214.5408 
L 179.412941 214.5408 
L 179.499697 213.831529 
L 179.652949 213.831529 
L 179.700586 212.767624 
L 180.049394 212.767624 
L 180.123969 212.058353 
L 180.474219 212.058353 
L 180.510711 210.639812 
L 180.601632 210.639812 
L 180.674054 209.930541 
L 180.978773 209.930541 
L 181.067466 209.221271 
L 181.164546 209.221271 
L 181.261129 208.157365 
L 181.392038 208.157365 
L 181.392038 207.802729 
L 181.608215 207.802729 
L 181.642574 207.093459 
L 181.87287 207.093459 
L 181.87287 206.738824 
L 182.108755 206.738824 
L 182.158919 206.029553 
L 182.407753 206.029553 
L 182.407753 205.674918 
L 182.823359 205.674918 
L 182.823359 205.320282 
L 182.951876 205.320282 
L 183.007827 204.611012 
L 183.150942 204.611012 
L 183.25363 203.547106 
L 183.316545 203.547106 
L 183.316545 203.192471 
L 183.542864 203.192471 
L 183.58161 202.4832 
L 183.697374 202.4832 
L 183.697374 202.128565 
L 183.842993 202.128565 
L 183.949574 201.064659 
L 184.017773 201.064659 
L 184.017773 200.710024 
L 184.168447 200.710024 
L 184.198438 199.291482 
L 184.317924 199.291482 
L 184.317924 198.936847 
L 184.539935 198.936847 
L 184.539935 198.582212 
L 184.744809 198.582212 
L 184.744809 198.227576 
L 184.875344 198.227576 
L 184.875344 197.872941 
L 185.055154 197.872941 
L 185.16222 196.099765 
L 185.219074 196.099765 
L 185.311097 193.617318 
L 185.709351 193.617318 
L 185.79213 192.553412 
L 185.977062 192.553412 
L 186.079022 191.489506 
L 186.133176 191.489506 
L 186.187174 190.4256 
L 186.361605 190.4256 
L 186.461507 188.297788 
L 186.49469 188.297788 
L 186.59389 186.879247 
L 186.718797 186.879247 
L 186.718797 186.169976 
L 186.881894 186.169976 
L 186.966149 185.460706 
L 187.075763 185.460706 
L 187.127126 184.751435 
L 187.229432 184.751435 
L 187.248553 184.042165 
L 187.394502 184.042165 
L 187.489081 182.268988 
L 187.794763 182.268988 
L 187.899666 180.850447 
L 188.113819 180.850447 
L 188.162427 180.141176 
L 188.24115 180.141176 
L 188.3436 178.368 
L 188.487291 178.368 
L 188.58248 177.658729 
L 188.606202 177.658729 
L 188.606202 176.949459 
L 188.818364 176.949459 
L 188.871033 175.530918 
L 189.010767 175.530918 
L 189.010767 174.821647 
L 189.172488 174.821647 
L 189.270002 174.112376 
L 189.367013 174.112376 
L 189.367013 173.757741 
L 189.497472 173.757741 
L 189.604565 172.693835 
L 189.65508 172.693835 
L 189.722225 171.984565 
L 189.766855 171.984565 
L 189.850252 170.211388 
L 189.949843 170.211388 
L 189.949843 169.502118 
L 190.212869 169.502118 
L 190.212869 168.083576 
L 190.386198 168.083576 
L 190.396979 167.019671 
L 190.573967 167.019671 
L 190.653869 165.955765 
L 190.744016 165.955765 
L 190.744016 165.601129 
L 190.907298 165.601129 
L 190.907298 164.537224 
L 191.126282 164.537224 
L 191.198714 163.473318 
L 191.306841 163.473318 
L 191.337621 162.764047 
L 191.541542 162.764047 
L 191.541542 162.409412 
L 191.657804 162.409412 
L 191.75832 161.700141 
L 191.883214 161.700141 
L 191.883214 161.345506 
L 192.017176 161.345506 
L 192.091188 159.926965 
L 192.160005 159.926965 
L 192.26764 158.508424 
L 192.296888 158.508424 
L 192.345535 157.089882 
L 192.514813 157.089882 
L 192.52444 156.380612 
L 192.653928 156.380612 
L 192.73976 154.962071 
L 192.773034 154.962071 
L 192.853597 153.543529 
L 193.065203 153.543529 
L 193.102574 152.479624 
L 193.177094 152.479624 
L 193.26983 150.706447 
L 193.288323 150.706447 
L 193.371315 149.287906 
L 193.485978 149.287906 
L 193.581758 148.224 
L 193.599946 148.224 
L 193.686103 146.805459 
L 193.735803 146.805459 
L 193.834811 145.032282 
L 193.919901 145.032282 
L 193.919901 144.677647 
L 194.03572 144.677647 
L 194.10664 141.131294 
L 194.269626 141.131294 
L 194.357142 138.294212 
L 194.392035 138.294212 
L 194.483322 136.521035 
L 194.504991 136.521035 
L 194.535287 135.811765 
L 194.64309 135.811765 
L 194.716045 134.393224 
L 194.88235 134.393224 
L 194.992409 131.556141 
L 195.02193 131.556141 
L 195.089235 129.428329 
L 195.202268 129.428329 
L 195.268931 128.719059 
L 195.318774 128.719059 
L 195.393292 127.655153 
L 195.508625 127.655153 
L 195.611006 125.527341 
L 195.635495 125.527341 
L 195.733133 123.399529 
L 195.757464 123.399529 
L 195.830267 122.690259 
L 195.938947 122.690259 
L 195.995053 121.271718 
L 196.110743 121.271718 
L 196.170304 119.143906 
L 196.277043 119.143906 
L 196.375337 117.725365 
L 196.430158 117.725365 
L 196.457509 116.661459 
L 196.547098 116.661459 
L 196.578159 115.952188 
L 196.728853 115.952188 
L 196.771139 114.533647 
L 196.905057 114.533647 
L 197.007718 112.0512 
L 197.072069 112.0512 
L 197.132436 111.341929 
L 197.256332 111.341929 
L 197.31984 110.278024 
L 197.383135 110.278024 
L 197.427686 109.568753 
L 197.593818 109.568753 
L 197.685483 108.859482 
L 197.736622 108.859482 
L 197.798532 107.086306 
L 197.860239 107.086306 
L 197.863862 106.377035 
L 198.011829 106.377035 
L 198.022611 105.667765 
L 198.144369 105.667765 
L 198.151506 104.249224 
L 198.286612 104.249224 
L 198.304317 103.539953 
L 198.399637 103.539953 
L 198.459406 102.476047 
L 198.511987 102.476047 
L 198.511987 101.766776 
L 198.634106 101.766776 
L 198.710463 100.348235 
L 198.858817 100.348235 
L 198.951375 99.638965 
L 199.063887 99.638965 
L 199.091062 98.929694 
L 199.374049 98.929694 
L 199.374049 98.220424 
L 199.573607 98.220424 
L 199.58353 97.511153 
L 199.702194 97.511153 
L 199.744862 95.383341 
L 199.816849 95.383341 
L 199.816849 95.028706 
L 200.044084 95.028706 
L 200.079544 93.9648 
L 200.20473 93.9648 
L 200.230307 93.255529 
L 200.35767 93.255529 
L 200.35767 92.546259 
L 200.537687 92.546259 
L 200.537687 92.191624 
L 204.540109 92.191624 
L 204.540109 91.836988 
L 206.029412 91.836988 
L 206.029412 91.482353 
L 211.920316 91.482353 
L 212.023009 90.773082 
L 212.072443 90.773082 
L 212.072443 90.063812 
L 212.309282 90.063812 
L 212.332803 89.354541 
L 212.733152 89.354541 
L 212.798784 88.645271 
L 212.870715 88.645271 
L 212.870715 88.290635 
L 212.986208 88.290635 
L 213.055812 87.226729 
L 213.247104 87.226729 
L 213.312563 85.453553 
L 213.398432 85.453553 
L 213.398432 85.098918 
L 213.51547 85.098918 
L 213.51547 84.389647 
L 213.688112 84.389647 
L 213.713092 83.680376 
L 213.860732 83.680376 
L 213.930264 81.9072 
L 214.15258 81.9072 
L 214.23319 80.843294 
L 214.313455 80.843294 
L 214.313455 80.488659 
L 214.435466 80.488659 
L 214.435466 79.424753 
L 214.574585 79.424753 
L 214.574585 78.360847 
L 214.740771 78.360847 
L 214.811546 77.651576 
L 214.914286 77.651576 
L 214.915749 76.942306 
L 215.546122 76.942306 
L 215.546122 76.587671 
L 215.785208 76.587671 
L 215.866088 75.169129 
L 215.959087 75.169129 
L 216.066779 74.459859 
L 216.212149 74.459859 
L 216.259903 73.395953 
L 216.331985 73.395953 
L 216.383498 72.332047 
L 216.522419 72.332047 
L 216.592166 70.913506 
L 216.650981 70.913506 
L 216.650981 69.8496 
L 217.003993 69.8496 
L 217.055007 68.431059 
L 217.2137 68.431059 
L 217.266732 67.367153 
L 217.374919 67.367153 
L 217.423657 65.948612 
L 217.608479 65.948612 
L 217.613552 64.884706 
L 217.72355 64.884706 
L 217.824134 64.175435 
L 217.916697 64.175435 
L 217.916697 63.111529 
L 219.214726 63.111529 
L 219.214726 62.756894 
L 219.415128 62.756894 
L 219.415128 62.047624 
L 219.685111 62.047624 
L 219.685111 61.692988 
L 220.745073 61.692988 
L 220.823283 60.629082 
L 221.078143 60.629082 
L 221.078143 59.210541 
L 221.40749 59.210541 
L 221.40749 58.855906 
L 221.523216 58.855906 
L 221.523216 58.146635 
L 221.692418 58.146635 
L 221.79626 57.082729 
L 221.876294 57.082729 
L 221.930805 55.664188 
L 222.014285 55.664188 
L 222.014285 55.309553 
L 222.205987 55.309553 
L 222.307039 54.245647 
L 222.388869 54.245647 
L 222.481117 52.827106 
L 222.608924 52.827106 
L 222.687518 52.117835 
L 222.809126 52.117835 
L 222.878265 50.344659 
L 223.068046 50.344659 
L 223.121109 48.926118 
L 223.331874 48.926118 
L 223.438239 48.216847 
L 223.482845 48.216847 
L 223.551405 47.152941 
L 223.6455 47.152941 
L 223.678598 46.089035 
L 223.833201 46.089035 
L 223.941305 44.315859 
L 224.096468 44.315859 
L 224.201288 42.897318 
L 224.273515 42.897318 
L 224.273515 42.188047 
L 224.413609 42.188047 
L 224.477986 41.478776 
L 224.529855 41.478776 
L 224.631421 40.060235 
L 224.692447 40.060235 
L 224.7992 38.641694 
L 224.909654 38.641694 
L 224.909654 38.287059 
L 225.437345 38.287059 
L 225.472449 37.577788 
L 225.561586 37.577788 
L 225.623814 36.159247 
L 225.700692 36.159247 
L 225.766573 35.095341 
L 225.867418 35.095341 
L 225.94168 33.6768 
L 226.024572 33.6768 
L 226.127272 32.967529 
L 226.169966 32.967529 
L 226.243848 31.548988 
L 226.343767 31.548988 
L 226.433639 30.839718 
L 226.464558 30.839718 
L 226.535715 30.130447 
L 226.586152 30.130447 
L 226.682709 29.066541 
L 226.699144 29.066541 
L 226.785782 28.357271 
L 226.830893 28.357271 
L 226.849529 27.648 
L 360.8064 27.648 
L 360.8064 27.648 
" style="fill: none; stroke: #6495ed; stroke-width: 1.5; stroke-linecap: square"/>
   </g>
   <g id="line2d_49">
    <defs>
     <path id="m0d6cbc2372" d="M -0 6 
L 6 -6 
L -6 -6 
z
" style="stroke: #6495ed; stroke-width: 1.5; stroke-linejoin: miter"/>
    </defs>
    <g>
     <use xlink:href="#m0d6cbc2372" x="137.699101" y="254.614588" style="fill-opacity: 0; stroke: #6495ed; stroke-width: 1.5; stroke-linejoin: miter"/>
     <use xlink:href="#m0d6cbc2372" x="190.653869" y="165.955765" style="fill-opacity: 0; stroke: #6495ed; stroke-width: 1.5; stroke-linejoin: miter"/>
     <use xlink:href="#m0d6cbc2372" x="223.833201" y="45.7344" style="fill-opacity: 0; stroke: #6495ed; stroke-width: 1.5; stroke-linejoin: miter"/>
     <use xlink:href="#m0d6cbc2372" x="226.849529" y="27.648" style="fill-opacity: 0; stroke: #6495ed; stroke-width: 1.5; stroke-linejoin: miter"/>
     <use xlink:href="#m0d6cbc2372" x="226.849529" y="27.648" style="fill-opacity: 0; stroke: #6495ed; stroke-width: 1.5; stroke-linejoin: miter"/>
     <use xlink:href="#m0d6cbc2372" x="360.8064" y="27.648" style="fill-opacity: 0; stroke: #6495ed; stroke-width: 1.5; stroke-linejoin: miter"/>
    </g>
   </g>
   <g id="line2d_50">
    <path style="fill: none; stroke: #6495ed; stroke-width: 1.5; stroke-linecap: square"/>
    <g/>
   </g>
   <g id="line2d_51">
    <path d="M 360.8064 27.648 
L 380.514816 293.51808 
" style="fill: none; stroke: #ff00ff; stroke-width: 1.5; stroke-linecap: square"/>
    <g>
     <use xlink:href="#mbd1bc60955" x="360.8064" y="27.648" style="fill-opacity: 0; stroke: #ff00ff; stroke-width: 1.5; stroke-linejoin: miter"/>
     <use xlink:href="#mbd1bc60955" x="380.514816" y="293.51808" style="fill-opacity: 0; stroke: #ff00ff; stroke-width: 1.5; stroke-linejoin: miter"/>
    </g>
   </g>
   <g id="line2d_52">
    <path d="M 360.8064 27.648 
L 380.514816 228.40704 
" style="fill: none; stroke: #6495ed; stroke-width: 1.5; stroke-linecap: square"/>
    <g>
     <use xlink:href="#m0d6cbc2372" x="360.8064" y="27.648" style="fill-opacity: 0; stroke: #6495ed; stroke-width: 1.5; stroke-linejoin: miter"/>
     <use xlink:href="#m0d6cbc2372" x="380.514816" y="228.40704" style="fill-opacity: 0; stroke: #6495ed; stroke-width: 1.5; stroke-linejoin: miter"/>
    </g>
   </g>
   <g id="line2d_53">
    <path d="M 360.8064 27.648 
L 380.514816 163.296 
" style="fill: none; stroke: #000080; stroke-width: 1.5; stroke-linecap: square"/>
    <g>
     <use xlink:href="#m4aaab7e485" x="360.8064" y="27.648" style="fill-opacity: 0; stroke: #000080; stroke-width: 1.5"/>
     <use xlink:href="#m4aaab7e485" x="380.514816" y="163.296" style="fill-opacity: 0; stroke: #000080; stroke-width: 1.5"/>
    </g>
   </g>
   <g id="line2d_54">
    <path d="M 360.8064 27.648 
L 380.514816 98.18496 
" style="fill: none; stroke: #ff7500; stroke-width: 1.5; stroke-linecap: square"/>
    <g>
     <use xlink:href="#m2c41337b65" x="360.8064" y="27.648" style="fill-opacity: 0; stroke: #ff7500; stroke-width: 1.5; stroke-linejoin: bevel"/>
     <use xlink:href="#m2c41337b65" x="380.514816" y="98.18496" style="fill-opacity: 0; stroke: #ff7500; stroke-width: 1.5; stroke-linejoin: bevel"/>
    </g>
   </g>
   <g id="line2d_55">
    <path d="M 360.8064 298.944 
L 360.8064 27.648 
" style="fill: none; stroke: #000000; stroke-width: 1.5; stroke-linecap: square"/>
   </g>
   <g id="patch_3">
    <path d="M 57.6 298.944 
L 360.8064 298.944 
" style="fill: none; stroke: #000000; stroke-width: 0.8; stroke-linejoin: miter; stroke-linecap: square"/>
   </g>
   <g id="patch_4">
    <path d="M 57.6 27.648 
L 360.8064 27.648 
" style="fill: none; stroke: #000000; stroke-width: 0.8; stroke-linejoin: miter; stroke-linecap: square"/>
   </g>
   <g id="text_13">
    <!-- ex -->
    <g transform="translate(386.578944 297.381205)scale(0.14 -0.14)">
     <defs>
      <path id="DejaVuSans-78" d="M 3513 3500 
L 2247 1797 
L 3578 0 
L 2900 0 
L 1881 1375 
L 863 0 
L 184 0 
L 1544 1831 
L 300 3500 
L 978 3500 
L 1906 2253 
L 2834 3500 
L 3513 3500 
z
" transform="scale(0.015625)"/>
     </defs>
     <use xlink:href="#DejaVuSans-65"/>
     <use xlink:href="#DejaVuSans-78" x="59.773438"/>
    </g>
   </g>
   <g id="text_14">
    <!-- CMA-ES-20 -->
    <g transform="translate(386.578944 232.270165)scale(0.14 -0.14)">
     <defs>
      <path id="DejaVuSans-43" d="M 4122 4306 
L 4122 3641 
Q 3803 3938 3442 4084 
Q 3081 4231 2675 4231 
Q 1875 4231 1450 3742 
Q 1025 3253 1025 2328 
Q 1025 1406 1450 917 
Q 1875 428 2675 428 
Q 3081 428 3442 575 
Q 3803 722 4122 1019 
L 4122 359 
Q 3791 134 3420 21 
Q 3050 -91 2638 -91 
Q 1578 -91 968 557 
Q 359 1206 359 2328 
Q 359 3453 968 4101 
Q 1578 4750 2638 4750 
Q 3056 4750 3426 4639 
Q 3797 4528 4122 4306 
z
" transform="scale(0.015625)"/>
      <path id="DejaVuSans-4d" d="M 628 4666 
L 1569 4666 
L 2759 1491 
L 3956 4666 
L 4897 4666 
L 4897 0 
L 4281 0 
L 4281 4097 
L 3078 897 
L 2444 897 
L 1241 4097 
L 1241 0 
L 628 0 
L 628 4666 
z
" transform="scale(0.015625)"/>
      <path id="DejaVuSans-41" d="M 2188 4044 
L 1331 1722 
L 3047 1722 
L 2188 4044 
z
M 1831 4666 
L 2547 4666 
L 4325 0 
L 3669 0 
L 3244 1197 
L 1141 1197 
L 716 0 
L 50 0 
L 1831 4666 
z
" transform="scale(0.015625)"/>
      <path id="DejaVuSans-45" d="M 628 4666 
L 3578 4666 
L 3578 4134 
L 1259 4134 
L 1259 2753 
L 3481 2753 
L 3481 2222 
L 1259 2222 
L 1259 531 
L 3634 531 
L 3634 0 
L 628 0 
L 628 4666 
z
" transform="scale(0.015625)"/>
      <path id="DejaVuSans-53" d="M 3425 4513 
L 3425 3897 
Q 3066 4069 2747 4153 
Q 2428 4238 2131 4238 
Q 1616 4238 1336 4038 
Q 1056 3838 1056 3469 
Q 1056 3159 1242 3001 
Q 1428 2844 1947 2747 
L 2328 2669 
Q 3034 2534 3370 2195 
Q 3706 1856 3706 1288 
Q 3706 609 3251 259 
Q 2797 -91 1919 -91 
Q 1588 -91 1214 -16 
Q 841 59 441 206 
L 441 856 
Q 825 641 1194 531 
Q 1563 422 1919 422 
Q 2459 422 2753 634 
Q 3047 847 3047 1241 
Q 3047 1584 2836 1778 
Q 2625 1972 2144 2069 
L 1759 2144 
Q 1053 2284 737 2584 
Q 422 2884 422 3419 
Q 422 4038 858 4394 
Q 1294 4750 2059 4750 
Q 2388 4750 2728 4690 
Q 3069 4631 3425 4513 
z
" transform="scale(0.015625)"/>
     </defs>
     <use xlink:href="#DejaVuSans-43"/>
     <use xlink:href="#DejaVuSans-4d" x="69.824219"/>
     <use xlink:href="#DejaVuSans-41" x="156.103516"/>
     <use xlink:href="#DejaVuSans-2d" x="222.261719"/>
     <use xlink:href="#DejaVuSans-45" x="258.345703"/>
     <use xlink:href="#DejaVuSans-53" x="321.529297"/>
     <use xlink:href="#DejaVuSans-2d" x="385.005859"/>
     <use xlink:href="#DejaVuSans-32" x="421.089844"/>
     <use xlink:href="#DejaVuSans-30" x="484.712891"/>
    </g>
   </g>
   <g id="text_15">
    <!-- fmin2 of  -->
    <g transform="translate(386.578944 167.159125)scale(0.14 -0.14)">
     <use xlink:href="#DejaVuSans-66"/>
     <use xlink:href="#DejaVuSans-6d" x="35.205078"/>
     <use xlink:href="#DejaVuSans-69" x="132.617188"/>
     <use xlink:href="#DejaVuSans-6e" x="160.400391"/>
     <use xlink:href="#DejaVuSans-32" x="223.779297"/>
     <use xlink:href="#DejaVuSans-20" x="287.402344"/>
     <use xlink:href="#DejaVuSans-6f" x="319.189453"/>
     <use xlink:href="#DejaVuSans-66" x="380.371094"/>
     <use xlink:href="#DejaVuSans-20" x="415.576172"/>
    </g>
   </g>
   <g id="text_16">
    <!-- fmin of d -->
    <g transform="translate(386.578944 102.048085)scale(0.14 -0.14)">
     <use xlink:href="#DejaVuSans-66"/>
     <use xlink:href="#DejaVuSans-6d" x="35.205078"/>
     <use xlink:href="#DejaVuSans-69" x="132.617188"/>
     <use xlink:href="#DejaVuSans-6e" x="160.400391"/>
     <use xlink:href="#DejaVuSans-20" x="223.779297"/>
     <use xlink:href="#DejaVuSans-6f" x="255.566406"/>
     <use xlink:href="#DejaVuSans-66" x="316.748047"/>
     <use xlink:href="#DejaVuSans-20" x="351.953125"/>
     <use xlink:href="#DejaVuSans-64" x="383.740234"/>
    </g>
   </g>
   <g id="text_17">
    <!-- best 2009 -->
    <g transform="translate(386.578944 36.937045)scale(0.14 -0.14)">
     <defs>
      <path id="DejaVuSans-62" d="M 3116 1747 
Q 3116 2381 2855 2742 
Q 2594 3103 2138 3103 
Q 1681 3103 1420 2742 
Q 1159 2381 1159 1747 
Q 1159 1113 1420 752 
Q 1681 391 2138 391 
Q 2594 391 2855 752 
Q 3116 1113 3116 1747 
z
M 1159 2969 
Q 1341 3281 1617 3432 
Q 1894 3584 2278 3584 
Q 2916 3584 3314 3078 
Q 3713 2572 3713 1747 
Q 3713 922 3314 415 
Q 2916 -91 2278 -91 
Q 1894 -91 1617 61 
Q 1341 213 1159 525 
L 1159 0 
L 581 0 
L 581 4863 
L 1159 4863 
L 1159 2969 
z
" transform="scale(0.015625)"/>
      <path id="DejaVuSans-39" d="M 703 97 
L 703 672 
Q 941 559 1184 500 
Q 1428 441 1663 441 
Q 2288 441 2617 861 
Q 2947 1281 2994 2138 
Q 2813 1869 2534 1725 
Q 2256 1581 1919 1581 
Q 1219 1581 811 2004 
Q 403 2428 403 3163 
Q 403 3881 828 4315 
Q 1253 4750 1959 4750 
Q 2769 4750 3195 4129 
Q 3622 3509 3622 2328 
Q 3622 1225 3098 567 
Q 2575 -91 1691 -91 
Q 1453 -91 1209 -44 
Q 966 3 703 97 
z
M 1959 2075 
Q 2384 2075 2632 2365 
Q 2881 2656 2881 3163 
Q 2881 3666 2632 3958 
Q 2384 4250 1959 4250 
Q 1534 4250 1286 3958 
Q 1038 3666 1038 3163 
Q 1038 2656 1286 2365 
Q 1534 2075 1959 2075 
z
" transform="scale(0.015625)"/>
     </defs>
     <use xlink:href="#DejaVuSans-62"/>
     <use xlink:href="#DejaVuSans-65" x="63.476562"/>
     <use xlink:href="#DejaVuSans-73" x="125"/>
     <use xlink:href="#DejaVuSans-74" x="177.099609"/>
     <use xlink:href="#DejaVuSans-20" x="216.308594"/>
     <use xlink:href="#DejaVuSans-32" x="248.095703"/>
     <use xlink:href="#DejaVuSans-30" x="311.71875"/>
     <use xlink:href="#DejaVuSans-30" x="375.341797"/>
     <use xlink:href="#DejaVuSans-39" x="438.964844"/>
    </g>
   </g>
   <g id="text_18">
    <!-- bbob f23, 3-D -->
    <g transform="translate(60.632064 38.111366)scale(0.102 -0.102)">
     <defs>
      <path id="DejaVuSans-33" d="M 2597 2516 
Q 3050 2419 3304 2112 
Q 3559 1806 3559 1356 
Q 3559 666 3084 287 
Q 2609 -91 1734 -91 
Q 1441 -91 1130 -33 
Q 819 25 488 141 
L 488 750 
Q 750 597 1062 519 
Q 1375 441 1716 441 
Q 2309 441 2620 675 
Q 2931 909 2931 1356 
Q 2931 1769 2642 2001 
Q 2353 2234 1838 2234 
L 1294 2234 
L 1294 2753 
L 1863 2753 
Q 2328 2753 2575 2939 
Q 2822 3125 2822 3475 
Q 2822 3834 2567 4026 
Q 2313 4219 1838 4219 
Q 1578 4219 1281 4162 
Q 984 4106 628 3988 
L 628 4550 
Q 988 4650 1302 4700 
Q 1616 4750 1894 4750 
Q 2613 4750 3031 4423 
Q 3450 4097 3450 3541 
Q 3450 3153 3228 2886 
Q 3006 2619 2597 2516 
z
" transform="scale(0.015625)"/>
      <path id="DejaVuSans-44" d="M 1259 4147 
L 1259 519 
L 2022 519 
Q 2988 519 3436 956 
Q 3884 1394 3884 2338 
Q 3884 3275 3436 3711 
Q 2988 4147 2022 4147 
L 1259 4147 
z
M 628 4666 
L 1925 4666 
Q 3281 4666 3915 4102 
Q 4550 3538 4550 2338 
Q 4550 1131 3912 565 
Q 3275 0 1925 0 
L 628 0 
L 628 4666 
z
" transform="scale(0.015625)"/>
     </defs>
     <use xlink:href="#DejaVuSans-62"/>
     <use xlink:href="#DejaVuSans-62" x="63.476562"/>
     <use xlink:href="#DejaVuSans-6f" x="126.953125"/>
     <use xlink:href="#DejaVuSans-62" x="188.134766"/>
     <use xlink:href="#DejaVuSans-20" x="251.611328"/>
     <use xlink:href="#DejaVuSans-66" x="283.398438"/>
     <use xlink:href="#DejaVuSans-32" x="318.603516"/>
     <use xlink:href="#DejaVuSans-33" x="382.226562"/>
     <use xlink:href="#DejaVuSans-2c" x="445.849609"/>
     <use xlink:href="#DejaVuSans-20" x="477.636719"/>
     <use xlink:href="#DejaVuSans-33" x="509.423828"/>
     <use xlink:href="#DejaVuSans-2d" x="573.046875"/>
     <use xlink:href="#DejaVuSans-44" x="609.130859"/>
    </g>
    <!-- 51 targets: 100..1e-08 -->
    <g transform="translate(60.632064 49.533135)scale(0.102 -0.102)">
     <defs>
      <path id="DejaVuSans-35" d="M 691 4666 
L 3169 4666 
L 3169 4134 
L 1269 4134 
L 1269 2991 
Q 1406 3038 1543 3061 
Q 1681 3084 1819 3084 
Q 2600 3084 3056 2656 
Q 3513 2228 3513 1497 
Q 3513 744 3044 326 
Q 2575 -91 1722 -91 
Q 1428 -91 1123 -41 
Q 819 9 494 109 
L 494 744 
Q 775 591 1075 516 
Q 1375 441 1709 441 
Q 2250 441 2565 725 
Q 2881 1009 2881 1497 
Q 2881 1984 2565 2268 
Q 2250 2553 1709 2553 
Q 1456 2553 1204 2497 
Q 953 2441 691 2322 
L 691 4666 
z
" transform="scale(0.015625)"/>
      <path id="DejaVuSans-3a" d="M 750 794 
L 1409 794 
L 1409 0 
L 750 0 
L 750 794 
z
M 750 3309 
L 1409 3309 
L 1409 2516 
L 750 2516 
L 750 3309 
z
" transform="scale(0.015625)"/>
     </defs>
     <use xlink:href="#DejaVuSans-35"/>
     <use xlink:href="#DejaVuSans-31" x="63.623047"/>
     <use xlink:href="#DejaVuSans-20" x="127.246094"/>
     <use xlink:href="#DejaVuSans-74" x="159.033203"/>
     <use xlink:href="#DejaVuSans-61" x="198.242188"/>
     <use xlink:href="#DejaVuSans-72" x="259.521484"/>
     <use xlink:href="#DejaVuSans-67" x="298.884766"/>
     <use xlink:href="#DejaVuSans-65" x="362.361328"/>
     <use xlink:href="#DejaVuSans-74" x="423.884766"/>
     <use xlink:href="#DejaVuSans-73" x="463.09375"/>
     <use xlink:href="#DejaVuSans-3a" x="515.193359"/>
     <use xlink:href="#DejaVuSans-20" x="548.884766"/>
     <use xlink:href="#DejaVuSans-31" x="580.671875"/>
     <use xlink:href="#DejaVuSans-30" x="644.294922"/>
     <use xlink:href="#DejaVuSans-30" x="707.917969"/>
     <use xlink:href="#DejaVuSans-2e" x="771.541016"/>
     <use xlink:href="#DejaVuSans-2e" x="803.328125"/>
     <use xlink:href="#DejaVuSans-31" x="835.115234"/>
     <use xlink:href="#DejaVuSans-65" x="898.738281"/>
     <use xlink:href="#DejaVuSans-2d" x="960.261719"/>
     <use xlink:href="#DejaVuSans-30" x="996.345703"/>
     <use xlink:href="#DejaVuSans-38" x="1059.96875"/>
    </g>
    <!-- 25, 5, 15 instances -->
    <g transform="translate(60.632064 60.954904)scale(0.102 -0.102)">
     <use xlink:href="#DejaVuSans-32"/>
     <use xlink:href="#DejaVuSans-35" x="63.623047"/>
     <use xlink:href="#DejaVuSans-2c" x="127.246094"/>
     <use xlink:href="#DejaVuSans-20" x="159.033203"/>
     <use xlink:href="#DejaVuSans-35" x="190.820312"/>
     <use xlink:href="#DejaVuSans-2c" x="254.443359"/>
     <use xlink:href="#DejaVuSans-20" x="286.230469"/>
     <use xlink:href="#DejaVuSans-31" x="318.017578"/>
     <use xlink:href="#DejaVuSans-35" x="381.640625"/>
     <use xlink:href="#DejaVuSans-20" x="445.263672"/>
     <use xlink:href="#DejaVuSans-69" x="477.050781"/>
     <use xlink:href="#DejaVuSans-6e" x="504.833984"/>
     <use xlink:href="#DejaVuSans-73" x="568.212891"/>
     <use xlink:href="#DejaVuSans-74" x="620.3125"/>
     <use xlink:href="#DejaVuSans-61" x="659.521484"/>
     <use xlink:href="#DejaVuSans-6e" x="720.800781"/>
     <use xlink:href="#DejaVuSans-63" x="784.179688"/>
     <use xlink:href="#DejaVuSans-65" x="839.160156"/>
     <use xlink:href="#DejaVuSans-73" x="900.683594"/>
    </g>
   </g>
   <g id="text_19">
    <!-- v2.6 -->
    <g style="fill: #808080" transform="translate(198.292262 294.151352)scale(0.1 -0.1)">
     <use xlink:href="#DejaVuSans-76"/>
     <use xlink:href="#DejaVuSans-32" x="59.179688"/>
     <use xlink:href="#DejaVuSans-2e" x="122.802734"/>
     <use xlink:href="#DejaVuSans-36" x="154.589844"/>
    </g>
   </g>
   <g id="text_20">
    <!-- 23 Katsuuras -->
    <g transform="translate(143.536012 21.648)scale(0.2 -0.2)">
     <defs>
      <path id="DejaVuSans-4b" d="M 628 4666 
L 1259 4666 
L 1259 2694 
L 3353 4666 
L 4166 4666 
L 1850 2491 
L 4331 0 
L 3500 0 
L 1259 2247 
L 1259 0 
L 628 0 
L 628 4666 
z
" transform="scale(0.015625)"/>
     </defs>
     <use xlink:href="#DejaVuSans-32"/>
     <use xlink:href="#DejaVuSans-33" x="63.623047"/>
     <use xlink:href="#DejaVuSans-20" x="127.246094"/>
     <use xlink:href="#DejaVuSans-4b" x="159.033203"/>
     <use xlink:href="#DejaVuSans-61" x="222.859375"/>
     <use xlink:href="#DejaVuSans-74" x="284.138672"/>
     <use xlink:href="#DejaVuSans-73" x="323.347656"/>
     <use xlink:href="#DejaVuSans-75" x="375.447266"/>
     <use xlink:href="#DejaVuSans-75" x="438.826172"/>
     <use xlink:href="#DejaVuSans-72" x="502.205078"/>
     <use xlink:href="#DejaVuSans-61" x="543.318359"/>
     <use xlink:href="#DejaVuSans-73" x="604.597656"/>
    </g>
   </g>
  </g>
 </g>
 <defs>
  <clipPath id="pb8e4580ae2">
   <rect x="57.6" y="27.648" width="303.2064" height="271.296"/>
  </clipPath>
 </defs>
</svg>
