<?xml version="1.0" encoding="utf-8" standalone="no"?>
<!DOCTYPE svg PUBLIC "-//W3C//DTD SVG 1.1//EN"
  "http://www.w3.org/Graphics/SVG/1.1/DTD/svg11.dtd">
<svg xmlns:xlink="http://www.w3.org/1999/xlink" width="460.8pt" height="345.6pt" viewBox="0 0 460.8 345.6" xmlns="http://www.w3.org/2000/svg" version="1.1">
 <metadata>
  <rdf:RDF xmlns:dc="http://purl.org/dc/elements/1.1/" xmlns:cc="http://creativecommons.org/ns#" xmlns:rdf="http://www.w3.org/1999/02/22-rdf-syntax-ns#">
   <cc:Work>
    <dc:type rdf:resource="http://purl.org/dc/dcmitype/StillImage"/>
    <dc:date>2022-03-17T01:34:49.509217</dc:date>
    <dc:format>image/svg+xml</dc:format>
    <dc:creator>
     <cc:Agent>
      <dc:title>Matplotlib v3.5.1, https://matplotlib.org/</dc:title>
     </cc:Agent>
    </dc:creator>
   </cc:Work>
  </rdf:RDF>
 </metadata>
 <defs>
  <style type="text/css">*{stroke-linejoin: round; stroke-linecap: butt}</style>
 </defs>
 <g id="figure_1">
  <g id="patch_1">
   <path d="M 0 345.6 
L 460.8 345.6 
L 460.8 0 
L 0 0 
z
" style="fill: #ffffff"/>
  </g>
  <g id="axes_1">
   <g id="patch_2">
    <path d="M 57.6 298.944 
L 360.8064 298.944 
L 360.8064 27.648 
L 57.6 27.648 
z
" style="fill: #ffffff"/>
   </g>
   <g id="line2d_1">
    <path d="M 111.97238 298.944 
L 111.97238 293.624471 
L 112.989468 293.624471 
L 112.989468 288.304941 
L 113.954374 288.304941 
L 113.954374 282.985412 
L 118.64712 282.985412 
L 118.64712 277.665882 
L 121.789667 277.665882 
L 121.789667 272.346353 
L 126.028642 272.346353 
L 126.028642 267.026824 
L 127.610376 267.026824 
L 127.610376 261.707294 
L 128.928456 261.707294 
L 128.928456 256.387765 
L 129.348062 256.387765 
L 129.348062 251.068235 
L 130.938718 251.068235 
L 130.938718 245.748706 
L 131.440389 245.748706 
L 131.440389 240.429176 
L 131.808053 240.429176 
L 131.808053 235.109647 
L 132.168669 235.109647 
L 132.168669 229.790118 
L 132.405295 229.790118 
L 132.405295 224.470588 
L 132.984158 224.470588 
L 132.984158 219.151059 
L 133.323114 219.151059 
L 133.323114 213.831529 
L 133.765759 213.831529 
L 133.765759 208.512 
L 133.983236 208.512 
L 133.983236 203.192471 
L 134.198228 203.192471 
L 134.198228 197.872941 
L 134.41079 197.872941 
L 134.41079 192.553412 
L 134.620977 192.553412 
L 134.620977 187.233882 
L 135.136394 187.233882 
L 135.136394 181.914353 
L 135.338671 181.914353 
L 135.338671 176.594824 
L 135.638065 176.594824 
L 135.638065 171.275294 
L 135.835047 171.275294 
L 135.835047 165.955765 
L 136.029987 165.955765 
L 136.029987 160.636235 
L 136.222928 160.636235 
L 136.222928 155.316706 
L 136.508678 155.316706 
L 136.508678 149.997176 
L 136.790153 149.997176 
L 136.790153 144.677647 
L 136.97549 144.677647 
L 136.97549 139.358118 
L 137.250116 139.358118 
L 137.250116 134.038588 
L 137.430998 134.038588 
L 137.430998 128.719059 
L 137.699101 128.719059 
L 137.699101 123.399529 
L 137.875736 123.399529 
L 137.875736 118.08 
L 138.050729 118.08 
L 138.050729 112.760471 
L 138.224108 112.760471 
L 138.224108 107.440941 
L 138.395904 107.440941 
L 138.395904 102.121412 
L 138.73486 102.121412 
L 138.73486 96.801882 
L 138.902075 96.801882 
L 138.902075 91.482353 
L 139.067817 91.482353 
L 139.067817 86.162824 
L 139.232111 86.162824 
L 139.232111 80.843294 
L 139.394983 80.843294 
L 139.394983 75.523765 
L 139.636676 75.523765 
L 139.636676 70.204235 
L 139.796097 70.204235 
L 139.796097 64.884706 
L 140.032723 64.884706 
L 140.032723 59.565176 
L 140.188837 59.565176 
L 140.188837 54.245647 
L 140.343665 54.245647 
L 140.343665 48.926118 
L 140.49723 48.926118 
L 140.49723 43.606588 
L 140.725251 43.606588 
L 140.725251 38.287059 
L 140.950542 38.287059 
L 140.950542 32.967529 
L 141.099251 32.967529 
L 141.099251 27.648 
L 360.8064 27.648 
" style="fill: none; stroke: #f5deb3; stroke-width: 4; stroke-linecap: square"/>
   </g>
   <g id="line2d_2">
    <defs>
     <path id="m951c5bbda8" d="M -0 7.778175 
L 7.778175 0 
L 0 -7.778175 
L -7.778175 -0 
z
" style="stroke: #f5deb3; stroke-width: 1.5; stroke-linejoin: miter"/>
    </defs>
    <g>
     <use xlink:href="#m951c5bbda8" x="134.41079" y="192.553412" style="fill: #f5deb3; stroke: #f5deb3; stroke-width: 1.5; stroke-linejoin: miter"/>
     <use xlink:href="#m951c5bbda8" x="141.099251" y="32.967529" style="fill: #f5deb3; stroke: #f5deb3; stroke-width: 1.5; stroke-linejoin: miter"/>
     <use xlink:href="#m951c5bbda8" x="141.099251" y="27.648" style="fill: #f5deb3; stroke: #f5deb3; stroke-width: 1.5; stroke-linejoin: miter"/>
     <use xlink:href="#m951c5bbda8" x="141.099251" y="27.648" style="fill: #f5deb3; stroke: #f5deb3; stroke-width: 1.5; stroke-linejoin: miter"/>
     <use xlink:href="#m951c5bbda8" x="360.8064" y="27.648" style="fill: #f5deb3; stroke: #f5deb3; stroke-width: 1.5; stroke-linejoin: miter"/>
    </g>
   </g>
   <g id="line2d_3">
    <path style="fill: none; stroke: #f5deb3; stroke-width: 4; stroke-linecap: square"/>
    <g/>
   </g>
   <g id="line2d_4">
    <path d="M 360.8064 27.648 
L 380.514816 33.07392 
" style="fill: none; stroke: #f5deb3; stroke-width: 4; stroke-linecap: square"/>
    <g>
     <use xlink:href="#m951c5bbda8" x="360.8064" y="27.648" style="fill: #f5deb3; stroke: #f5deb3; stroke-width: 1.5; stroke-linejoin: miter"/>
     <use xlink:href="#m951c5bbda8" x="380.514816" y="33.07392" style="fill: #f5deb3; stroke: #f5deb3; stroke-width: 1.5; stroke-linejoin: miter"/>
    </g>
   </g>
   <g id="matplotlib.axis_1">
    <g id="xtick_1">
     <g id="line2d_5">
      <path d="M 57.6 298.944 
L 57.6 27.648 
" clip-path="url(#p947c8b9555)" style="fill: none; stroke: #b0b0b0; stroke-width: 0.8; stroke-linecap: square"/>
     </g>
     <g id="line2d_6">
      <defs>
       <path id="m07c988e2bf" d="M 0 0 
L 0 3.5 
" style="stroke: #000000; stroke-width: 0.8"/>
      </defs>
      <g>
       <use xlink:href="#m07c988e2bf" x="57.6" y="298.944" style="stroke: #000000; stroke-width: 0.8"/>
      </g>
     </g>
     <g id="text_1">
      <!-- 0 -->
      <g transform="translate(52.191875 318.861344)scale(0.17 -0.17)">
       <defs>
        <path id="DejaVuSans-30" d="M 2034 4250 
Q 1547 4250 1301 3770 
Q 1056 3291 1056 2328 
Q 1056 1369 1301 889 
Q 1547 409 2034 409 
Q 2525 409 2770 889 
Q 3016 1369 3016 2328 
Q 3016 3291 2770 3770 
Q 2525 4250 2034 4250 
z
M 2034 4750 
Q 2819 4750 3233 4129 
Q 3647 3509 3647 2328 
Q 3647 1150 3233 529 
Q 2819 -91 2034 -91 
Q 1250 -91 836 529 
Q 422 1150 422 2328 
Q 422 3509 836 4129 
Q 1250 4750 2034 4750 
z
" transform="scale(0.015625)"/>
       </defs>
       <use xlink:href="#DejaVuSans-30"/>
      </g>
     </g>
    </g>
    <g id="xtick_2">
     <g id="line2d_7">
      <path d="M 144.2304 298.944 
L 144.2304 27.648 
" clip-path="url(#p947c8b9555)" style="fill: none; stroke: #b0b0b0; stroke-width: 0.8; stroke-linecap: square"/>
     </g>
     <g id="line2d_8">
      <g>
       <use xlink:href="#m07c988e2bf" x="144.2304" y="298.944" style="stroke: #000000; stroke-width: 0.8"/>
      </g>
     </g>
     <g id="text_2">
      <!-- 2 -->
      <g transform="translate(138.822275 318.861344)scale(0.17 -0.17)">
       <defs>
        <path id="DejaVuSans-32" d="M 1228 531 
L 3431 531 
L 3431 0 
L 469 0 
L 469 531 
Q 828 903 1448 1529 
Q 2069 2156 2228 2338 
Q 2531 2678 2651 2914 
Q 2772 3150 2772 3378 
Q 2772 3750 2511 3984 
Q 2250 4219 1831 4219 
Q 1534 4219 1204 4116 
Q 875 4013 500 3803 
L 500 4441 
Q 881 4594 1212 4672 
Q 1544 4750 1819 4750 
Q 2544 4750 2975 4387 
Q 3406 4025 3406 3419 
Q 3406 3131 3298 2873 
Q 3191 2616 2906 2266 
Q 2828 2175 2409 1742 
Q 1991 1309 1228 531 
z
" transform="scale(0.015625)"/>
       </defs>
       <use xlink:href="#DejaVuSans-32"/>
      </g>
     </g>
    </g>
    <g id="xtick_3">
     <g id="line2d_9">
      <path d="M 230.8608 298.944 
L 230.8608 27.648 
" clip-path="url(#p947c8b9555)" style="fill: none; stroke: #b0b0b0; stroke-width: 0.8; stroke-linecap: square"/>
     </g>
     <g id="line2d_10">
      <g>
       <use xlink:href="#m07c988e2bf" x="230.8608" y="298.944" style="stroke: #000000; stroke-width: 0.8"/>
      </g>
     </g>
     <g id="text_3">
      <!-- 4 -->
      <g transform="translate(225.452675 318.861344)scale(0.17 -0.17)">
       <defs>
        <path id="DejaVuSans-34" d="M 2419 4116 
L 825 1625 
L 2419 1625 
L 2419 4116 
z
M 2253 4666 
L 3047 4666 
L 3047 1625 
L 3713 1625 
L 3713 1100 
L 3047 1100 
L 3047 0 
L 2419 0 
L 2419 1100 
L 313 1100 
L 313 1709 
L 2253 4666 
z
" transform="scale(0.015625)"/>
       </defs>
       <use xlink:href="#DejaVuSans-34"/>
      </g>
     </g>
    </g>
    <g id="xtick_4">
     <g id="line2d_11">
      <path d="M 317.4912 298.944 
L 317.4912 27.648 
" clip-path="url(#p947c8b9555)" style="fill: none; stroke: #b0b0b0; stroke-width: 0.8; stroke-linecap: square"/>
     </g>
     <g id="line2d_12">
      <g>
       <use xlink:href="#m07c988e2bf" x="317.4912" y="298.944" style="stroke: #000000; stroke-width: 0.8"/>
      </g>
     </g>
     <g id="text_4">
      <!-- 6 -->
      <g transform="translate(312.083075 318.861344)scale(0.17 -0.17)">
       <defs>
        <path id="DejaVuSans-36" d="M 2113 2584 
Q 1688 2584 1439 2293 
Q 1191 2003 1191 1497 
Q 1191 994 1439 701 
Q 1688 409 2113 409 
Q 2538 409 2786 701 
Q 3034 994 3034 1497 
Q 3034 2003 2786 2293 
Q 2538 2584 2113 2584 
z
M 3366 4563 
L 3366 3988 
Q 3128 4100 2886 4159 
Q 2644 4219 2406 4219 
Q 1781 4219 1451 3797 
Q 1122 3375 1075 2522 
Q 1259 2794 1537 2939 
Q 1816 3084 2150 3084 
Q 2853 3084 3261 2657 
Q 3669 2231 3669 1497 
Q 3669 778 3244 343 
Q 2819 -91 2113 -91 
Q 1303 -91 875 529 
Q 447 1150 447 2328 
Q 447 3434 972 4092 
Q 1497 4750 2381 4750 
Q 2619 4750 2861 4703 
Q 3103 4656 3366 4563 
z
" transform="scale(0.015625)"/>
       </defs>
       <use xlink:href="#DejaVuSans-36"/>
      </g>
     </g>
    </g>
    <g id="xtick_5">
     <g id="line2d_13">
      <path d="M 100.9152 298.944 
L 100.9152 27.648 
" clip-path="url(#p947c8b9555)" style="fill: none; stroke: #b0b0b0; stroke-width: 0.8; stroke-linecap: square"/>
     </g>
     <g id="line2d_14">
      <defs>
       <path id="m074a30bb86" d="M 0 0 
L 0 2 
" style="stroke: #000000; stroke-width: 0.6"/>
      </defs>
      <g>
       <use xlink:href="#m074a30bb86" x="100.9152" y="298.944" style="stroke: #000000; stroke-width: 0.6"/>
      </g>
     </g>
    </g>
    <g id="xtick_6">
     <g id="line2d_15">
      <path d="M 187.5456 298.944 
L 187.5456 27.648 
" clip-path="url(#p947c8b9555)" style="fill: none; stroke: #b0b0b0; stroke-width: 0.8; stroke-linecap: square"/>
     </g>
     <g id="line2d_16">
      <g>
       <use xlink:href="#m074a30bb86" x="187.5456" y="298.944" style="stroke: #000000; stroke-width: 0.6"/>
      </g>
     </g>
    </g>
    <g id="xtick_7">
     <g id="line2d_17">
      <path d="M 274.176 298.944 
L 274.176 27.648 
" clip-path="url(#p947c8b9555)" style="fill: none; stroke: #b0b0b0; stroke-width: 0.8; stroke-linecap: square"/>
     </g>
     <g id="line2d_18">
      <g>
       <use xlink:href="#m074a30bb86" x="274.176" y="298.944" style="stroke: #000000; stroke-width: 0.6"/>
      </g>
     </g>
    </g>
    <g id="xtick_8">
     <g id="line2d_19">
      <path d="M 360.8064 298.944 
L 360.8064 27.648 
" clip-path="url(#p947c8b9555)" style="fill: none; stroke: #b0b0b0; stroke-width: 0.8; stroke-linecap: square"/>
     </g>
     <g id="line2d_20">
      <g>
       <use xlink:href="#m074a30bb86" x="360.8064" y="298.944" style="stroke: #000000; stroke-width: 0.6"/>
      </g>
     </g>
    </g>
    <g id="text_5">
     <!-- log10(# f-evals / dimension) -->
     <g transform="translate(88.823278 339.314156)scale(0.17 -0.17)">
      <defs>
       <path id="DejaVuSans-6c" d="M 603 4863 
L 1178 4863 
L 1178 0 
L 603 0 
L 603 4863 
z
" transform="scale(0.015625)"/>
       <path id="DejaVuSans-6f" d="M 1959 3097 
Q 1497 3097 1228 2736 
Q 959 2375 959 1747 
Q 959 1119 1226 758 
Q 1494 397 1959 397 
Q 2419 397 2687 759 
Q 2956 1122 2956 1747 
Q 2956 2369 2687 2733 
Q 2419 3097 1959 3097 
z
M 1959 3584 
Q 2709 3584 3137 3096 
Q 3566 2609 3566 1747 
Q 3566 888 3137 398 
Q 2709 -91 1959 -91 
Q 1206 -91 779 398 
Q 353 888 353 1747 
Q 353 2609 779 3096 
Q 1206 3584 1959 3584 
z
" transform="scale(0.015625)"/>
       <path id="DejaVuSans-67" d="M 2906 1791 
Q 2906 2416 2648 2759 
Q 2391 3103 1925 3103 
Q 1463 3103 1205 2759 
Q 947 2416 947 1791 
Q 947 1169 1205 825 
Q 1463 481 1925 481 
Q 2391 481 2648 825 
Q 2906 1169 2906 1791 
z
M 3481 434 
Q 3481 -459 3084 -895 
Q 2688 -1331 1869 -1331 
Q 1566 -1331 1297 -1286 
Q 1028 -1241 775 -1147 
L 775 -588 
Q 1028 -725 1275 -790 
Q 1522 -856 1778 -856 
Q 2344 -856 2625 -561 
Q 2906 -266 2906 331 
L 2906 616 
Q 2728 306 2450 153 
Q 2172 0 1784 0 
Q 1141 0 747 490 
Q 353 981 353 1791 
Q 353 2603 747 3093 
Q 1141 3584 1784 3584 
Q 2172 3584 2450 3431 
Q 2728 3278 2906 2969 
L 2906 3500 
L 3481 3500 
L 3481 434 
z
" transform="scale(0.015625)"/>
       <path id="DejaVuSans-31" d="M 794 531 
L 1825 531 
L 1825 4091 
L 703 3866 
L 703 4441 
L 1819 4666 
L 2450 4666 
L 2450 531 
L 3481 531 
L 3481 0 
L 794 0 
L 794 531 
z
" transform="scale(0.015625)"/>
       <path id="DejaVuSans-28" d="M 1984 4856 
Q 1566 4138 1362 3434 
Q 1159 2731 1159 2009 
Q 1159 1288 1364 580 
Q 1569 -128 1984 -844 
L 1484 -844 
Q 1016 -109 783 600 
Q 550 1309 550 2009 
Q 550 2706 781 3412 
Q 1013 4119 1484 4856 
L 1984 4856 
z
" transform="scale(0.015625)"/>
       <path id="DejaVuSans-23" d="M 3272 2816 
L 2363 2816 
L 2100 1772 
L 3016 1772 
L 3272 2816 
z
M 2803 4594 
L 2478 3297 
L 3391 3297 
L 3719 4594 
L 4219 4594 
L 3897 3297 
L 4872 3297 
L 4872 2816 
L 3775 2816 
L 3519 1772 
L 4513 1772 
L 4513 1294 
L 3397 1294 
L 3072 0 
L 2572 0 
L 2894 1294 
L 1978 1294 
L 1656 0 
L 1153 0 
L 1478 1294 
L 494 1294 
L 494 1772 
L 1594 1772 
L 1856 2816 
L 850 2816 
L 850 3297 
L 1978 3297 
L 2297 4594 
L 2803 4594 
z
" transform="scale(0.015625)"/>
       <path id="DejaVuSans-20" transform="scale(0.015625)"/>
       <path id="DejaVuSans-66" d="M 2375 4863 
L 2375 4384 
L 1825 4384 
Q 1516 4384 1395 4259 
Q 1275 4134 1275 3809 
L 1275 3500 
L 2222 3500 
L 2222 3053 
L 1275 3053 
L 1275 0 
L 697 0 
L 697 3053 
L 147 3053 
L 147 3500 
L 697 3500 
L 697 3744 
Q 697 4328 969 4595 
Q 1241 4863 1831 4863 
L 2375 4863 
z
" transform="scale(0.015625)"/>
       <path id="DejaVuSans-2d" d="M 313 2009 
L 1997 2009 
L 1997 1497 
L 313 1497 
L 313 2009 
z
" transform="scale(0.015625)"/>
       <path id="DejaVuSans-65" d="M 3597 1894 
L 3597 1613 
L 953 1613 
Q 991 1019 1311 708 
Q 1631 397 2203 397 
Q 2534 397 2845 478 
Q 3156 559 3463 722 
L 3463 178 
Q 3153 47 2828 -22 
Q 2503 -91 2169 -91 
Q 1331 -91 842 396 
Q 353 884 353 1716 
Q 353 2575 817 3079 
Q 1281 3584 2069 3584 
Q 2775 3584 3186 3129 
Q 3597 2675 3597 1894 
z
M 3022 2063 
Q 3016 2534 2758 2815 
Q 2500 3097 2075 3097 
Q 1594 3097 1305 2825 
Q 1016 2553 972 2059 
L 3022 2063 
z
" transform="scale(0.015625)"/>
       <path id="DejaVuSans-76" d="M 191 3500 
L 800 3500 
L 1894 563 
L 2988 3500 
L 3597 3500 
L 2284 0 
L 1503 0 
L 191 3500 
z
" transform="scale(0.015625)"/>
       <path id="DejaVuSans-61" d="M 2194 1759 
Q 1497 1759 1228 1600 
Q 959 1441 959 1056 
Q 959 750 1161 570 
Q 1363 391 1709 391 
Q 2188 391 2477 730 
Q 2766 1069 2766 1631 
L 2766 1759 
L 2194 1759 
z
M 3341 1997 
L 3341 0 
L 2766 0 
L 2766 531 
Q 2569 213 2275 61 
Q 1981 -91 1556 -91 
Q 1019 -91 701 211 
Q 384 513 384 1019 
Q 384 1609 779 1909 
Q 1175 2209 1959 2209 
L 2766 2209 
L 2766 2266 
Q 2766 2663 2505 2880 
Q 2244 3097 1772 3097 
Q 1472 3097 1187 3025 
Q 903 2953 641 2809 
L 641 3341 
Q 956 3463 1253 3523 
Q 1550 3584 1831 3584 
Q 2591 3584 2966 3190 
Q 3341 2797 3341 1997 
z
" transform="scale(0.015625)"/>
       <path id="DejaVuSans-73" d="M 2834 3397 
L 2834 2853 
Q 2591 2978 2328 3040 
Q 2066 3103 1784 3103 
Q 1356 3103 1142 2972 
Q 928 2841 928 2578 
Q 928 2378 1081 2264 
Q 1234 2150 1697 2047 
L 1894 2003 
Q 2506 1872 2764 1633 
Q 3022 1394 3022 966 
Q 3022 478 2636 193 
Q 2250 -91 1575 -91 
Q 1294 -91 989 -36 
Q 684 19 347 128 
L 347 722 
Q 666 556 975 473 
Q 1284 391 1588 391 
Q 1994 391 2212 530 
Q 2431 669 2431 922 
Q 2431 1156 2273 1281 
Q 2116 1406 1581 1522 
L 1381 1569 
Q 847 1681 609 1914 
Q 372 2147 372 2553 
Q 372 3047 722 3315 
Q 1072 3584 1716 3584 
Q 2034 3584 2315 3537 
Q 2597 3491 2834 3397 
z
" transform="scale(0.015625)"/>
       <path id="DejaVuSans-2f" d="M 1625 4666 
L 2156 4666 
L 531 -594 
L 0 -594 
L 1625 4666 
z
" transform="scale(0.015625)"/>
       <path id="DejaVuSans-64" d="M 2906 2969 
L 2906 4863 
L 3481 4863 
L 3481 0 
L 2906 0 
L 2906 525 
Q 2725 213 2448 61 
Q 2172 -91 1784 -91 
Q 1150 -91 751 415 
Q 353 922 353 1747 
Q 353 2572 751 3078 
Q 1150 3584 1784 3584 
Q 2172 3584 2448 3432 
Q 2725 3281 2906 2969 
z
M 947 1747 
Q 947 1113 1208 752 
Q 1469 391 1925 391 
Q 2381 391 2643 752 
Q 2906 1113 2906 1747 
Q 2906 2381 2643 2742 
Q 2381 3103 1925 3103 
Q 1469 3103 1208 2742 
Q 947 2381 947 1747 
z
" transform="scale(0.015625)"/>
       <path id="DejaVuSans-69" d="M 603 3500 
L 1178 3500 
L 1178 0 
L 603 0 
L 603 3500 
z
M 603 4863 
L 1178 4863 
L 1178 4134 
L 603 4134 
L 603 4863 
z
" transform="scale(0.015625)"/>
       <path id="DejaVuSans-6d" d="M 3328 2828 
Q 3544 3216 3844 3400 
Q 4144 3584 4550 3584 
Q 5097 3584 5394 3201 
Q 5691 2819 5691 2113 
L 5691 0 
L 5113 0 
L 5113 2094 
Q 5113 2597 4934 2840 
Q 4756 3084 4391 3084 
Q 3944 3084 3684 2787 
Q 3425 2491 3425 1978 
L 3425 0 
L 2847 0 
L 2847 2094 
Q 2847 2600 2669 2842 
Q 2491 3084 2119 3084 
Q 1678 3084 1418 2786 
Q 1159 2488 1159 1978 
L 1159 0 
L 581 0 
L 581 3500 
L 1159 3500 
L 1159 2956 
Q 1356 3278 1631 3431 
Q 1906 3584 2284 3584 
Q 2666 3584 2933 3390 
Q 3200 3197 3328 2828 
z
" transform="scale(0.015625)"/>
       <path id="DejaVuSans-6e" d="M 3513 2113 
L 3513 0 
L 2938 0 
L 2938 2094 
Q 2938 2591 2744 2837 
Q 2550 3084 2163 3084 
Q 1697 3084 1428 2787 
Q 1159 2491 1159 1978 
L 1159 0 
L 581 0 
L 581 3500 
L 1159 3500 
L 1159 2956 
Q 1366 3272 1645 3428 
Q 1925 3584 2291 3584 
Q 2894 3584 3203 3211 
Q 3513 2838 3513 2113 
z
" transform="scale(0.015625)"/>
       <path id="DejaVuSans-29" d="M 513 4856 
L 1013 4856 
Q 1481 4119 1714 3412 
Q 1947 2706 1947 2009 
Q 1947 1309 1714 600 
Q 1481 -109 1013 -844 
L 513 -844 
Q 928 -128 1133 580 
Q 1338 1288 1338 2009 
Q 1338 2731 1133 3434 
Q 928 4138 513 4856 
z
" transform="scale(0.015625)"/>
      </defs>
      <use xlink:href="#DejaVuSans-6c"/>
      <use xlink:href="#DejaVuSans-6f" x="27.783203"/>
      <use xlink:href="#DejaVuSans-67" x="88.964844"/>
      <use xlink:href="#DejaVuSans-31" x="152.441406"/>
      <use xlink:href="#DejaVuSans-30" x="216.064453"/>
      <use xlink:href="#DejaVuSans-28" x="279.6875"/>
      <use xlink:href="#DejaVuSans-23" x="318.701172"/>
      <use xlink:href="#DejaVuSans-20" x="402.490234"/>
      <use xlink:href="#DejaVuSans-66" x="434.277344"/>
      <use xlink:href="#DejaVuSans-2d" x="463.982422"/>
      <use xlink:href="#DejaVuSans-65" x="500.066406"/>
      <use xlink:href="#DejaVuSans-76" x="561.589844"/>
      <use xlink:href="#DejaVuSans-61" x="620.769531"/>
      <use xlink:href="#DejaVuSans-6c" x="682.048828"/>
      <use xlink:href="#DejaVuSans-73" x="709.832031"/>
      <use xlink:href="#DejaVuSans-20" x="761.931641"/>
      <use xlink:href="#DejaVuSans-2f" x="793.71875"/>
      <use xlink:href="#DejaVuSans-20" x="827.410156"/>
      <use xlink:href="#DejaVuSans-64" x="859.197266"/>
      <use xlink:href="#DejaVuSans-69" x="922.673828"/>
      <use xlink:href="#DejaVuSans-6d" x="950.457031"/>
      <use xlink:href="#DejaVuSans-65" x="1047.869141"/>
      <use xlink:href="#DejaVuSans-6e" x="1109.392578"/>
      <use xlink:href="#DejaVuSans-73" x="1172.771484"/>
      <use xlink:href="#DejaVuSans-69" x="1224.871094"/>
      <use xlink:href="#DejaVuSans-6f" x="1252.654297"/>
      <use xlink:href="#DejaVuSans-6e" x="1313.835938"/>
      <use xlink:href="#DejaVuSans-29" x="1377.214844"/>
     </g>
    </g>
   </g>
   <g id="matplotlib.axis_2">
    <g id="ytick_1">
     <g id="line2d_21">
      <path d="M 57.6 298.944 
L 360.8064 298.944 
" clip-path="url(#p947c8b9555)" style="fill: none; stroke: #b0b0b0; stroke-width: 0.8; stroke-linecap: square"/>
     </g>
     <g id="line2d_22">
      <defs>
       <path id="m6f7e1a3bf5" d="M 0 0 
L -3.5 0 
" style="stroke: #000000; stroke-width: 0.8"/>
      </defs>
      <g>
       <use xlink:href="#m6f7e1a3bf5" x="57.6" y="298.944" style="stroke: #000000; stroke-width: 0.8"/>
      </g>
     </g>
     <g id="text_6">
      <!-- 0.0 -->
      <g transform="translate(25.155 305.02275)scale(0.16 -0.16)">
       <defs>
        <path id="DejaVuSans-2e" d="M 684 794 
L 1344 794 
L 1344 0 
L 684 0 
L 684 794 
z
" transform="scale(0.015625)"/>
       </defs>
       <use xlink:href="#DejaVuSans-30"/>
       <use xlink:href="#DejaVuSans-2e" x="63.623047"/>
       <use xlink:href="#DejaVuSans-30" x="95.410156"/>
      </g>
     </g>
    </g>
    <g id="ytick_2">
     <g id="line2d_23">
      <path d="M 57.6 244.6848 
L 360.8064 244.6848 
" clip-path="url(#p947c8b9555)" style="fill: none; stroke: #b0b0b0; stroke-width: 0.8; stroke-linecap: square"/>
     </g>
     <g id="line2d_24">
      <g>
       <use xlink:href="#m6f7e1a3bf5" x="57.6" y="244.6848" style="stroke: #000000; stroke-width: 0.8"/>
      </g>
     </g>
     <g id="text_7">
      <!-- 0.2 -->
      <g transform="translate(25.155 250.76355)scale(0.16 -0.16)">
       <use xlink:href="#DejaVuSans-30"/>
       <use xlink:href="#DejaVuSans-2e" x="63.623047"/>
       <use xlink:href="#DejaVuSans-32" x="95.410156"/>
      </g>
     </g>
    </g>
    <g id="ytick_3">
     <g id="line2d_25">
      <path d="M 57.6 190.4256 
L 360.8064 190.4256 
" clip-path="url(#p947c8b9555)" style="fill: none; stroke: #b0b0b0; stroke-width: 0.8; stroke-linecap: square"/>
     </g>
     <g id="line2d_26">
      <g>
       <use xlink:href="#m6f7e1a3bf5" x="57.6" y="190.4256" style="stroke: #000000; stroke-width: 0.8"/>
      </g>
     </g>
     <g id="text_8">
      <!-- 0.4 -->
      <g transform="translate(25.155 196.50435)scale(0.16 -0.16)">
       <use xlink:href="#DejaVuSans-30"/>
       <use xlink:href="#DejaVuSans-2e" x="63.623047"/>
       <use xlink:href="#DejaVuSans-34" x="95.410156"/>
      </g>
     </g>
    </g>
    <g id="ytick_4">
     <g id="line2d_27">
      <path d="M 57.6 136.1664 
L 360.8064 136.1664 
" clip-path="url(#p947c8b9555)" style="fill: none; stroke: #b0b0b0; stroke-width: 0.8; stroke-linecap: square"/>
     </g>
     <g id="line2d_28">
      <g>
       <use xlink:href="#m6f7e1a3bf5" x="57.6" y="136.1664" style="stroke: #000000; stroke-width: 0.8"/>
      </g>
     </g>
     <g id="text_9">
      <!-- 0.6 -->
      <g transform="translate(25.155 142.24515)scale(0.16 -0.16)">
       <use xlink:href="#DejaVuSans-30"/>
       <use xlink:href="#DejaVuSans-2e" x="63.623047"/>
       <use xlink:href="#DejaVuSans-36" x="95.410156"/>
      </g>
     </g>
    </g>
    <g id="ytick_5">
     <g id="line2d_29">
      <path d="M 57.6 81.9072 
L 360.8064 81.9072 
" clip-path="url(#p947c8b9555)" style="fill: none; stroke: #b0b0b0; stroke-width: 0.8; stroke-linecap: square"/>
     </g>
     <g id="line2d_30">
      <g>
       <use xlink:href="#m6f7e1a3bf5" x="57.6" y="81.9072" style="stroke: #000000; stroke-width: 0.8"/>
      </g>
     </g>
     <g id="text_10">
      <!-- 0.8 -->
      <g transform="translate(25.155 87.98595)scale(0.16 -0.16)">
       <defs>
        <path id="DejaVuSans-38" d="M 2034 2216 
Q 1584 2216 1326 1975 
Q 1069 1734 1069 1313 
Q 1069 891 1326 650 
Q 1584 409 2034 409 
Q 2484 409 2743 651 
Q 3003 894 3003 1313 
Q 3003 1734 2745 1975 
Q 2488 2216 2034 2216 
z
M 1403 2484 
Q 997 2584 770 2862 
Q 544 3141 544 3541 
Q 544 4100 942 4425 
Q 1341 4750 2034 4750 
Q 2731 4750 3128 4425 
Q 3525 4100 3525 3541 
Q 3525 3141 3298 2862 
Q 3072 2584 2669 2484 
Q 3125 2378 3379 2068 
Q 3634 1759 3634 1313 
Q 3634 634 3220 271 
Q 2806 -91 2034 -91 
Q 1263 -91 848 271 
Q 434 634 434 1313 
Q 434 1759 690 2068 
Q 947 2378 1403 2484 
z
M 1172 3481 
Q 1172 3119 1398 2916 
Q 1625 2713 2034 2713 
Q 2441 2713 2670 2916 
Q 2900 3119 2900 3481 
Q 2900 3844 2670 4047 
Q 2441 4250 2034 4250 
Q 1625 4250 1398 4047 
Q 1172 3844 1172 3481 
z
" transform="scale(0.015625)"/>
       </defs>
       <use xlink:href="#DejaVuSans-30"/>
       <use xlink:href="#DejaVuSans-2e" x="63.623047"/>
       <use xlink:href="#DejaVuSans-38" x="95.410156"/>
      </g>
     </g>
    </g>
    <g id="ytick_6">
     <g id="line2d_31">
      <path d="M 57.6 27.648 
L 360.8064 27.648 
" clip-path="url(#p947c8b9555)" style="fill: none; stroke: #b0b0b0; stroke-width: 0.8; stroke-linecap: square"/>
     </g>
     <g id="line2d_32">
      <g>
       <use xlink:href="#m6f7e1a3bf5" x="57.6" y="27.648" style="stroke: #000000; stroke-width: 0.8"/>
      </g>
     </g>
     <g id="text_11">
      <!-- 1.0 -->
      <g transform="translate(25.155 33.72675)scale(0.16 -0.16)">
       <use xlink:href="#DejaVuSans-31"/>
       <use xlink:href="#DejaVuSans-2e" x="63.623047"/>
       <use xlink:href="#DejaVuSans-30" x="95.410156"/>
      </g>
     </g>
    </g>
    <g id="text_12">
     <!-- Fraction of function,target pairs -->
     <g transform="translate(17.619531 297.681)rotate(-90)scale(0.17 -0.17)">
      <defs>
       <path id="DejaVuSans-46" d="M 628 4666 
L 3309 4666 
L 3309 4134 
L 1259 4134 
L 1259 2759 
L 3109 2759 
L 3109 2228 
L 1259 2228 
L 1259 0 
L 628 0 
L 628 4666 
z
" transform="scale(0.015625)"/>
       <path id="DejaVuSans-72" d="M 2631 2963 
Q 2534 3019 2420 3045 
Q 2306 3072 2169 3072 
Q 1681 3072 1420 2755 
Q 1159 2438 1159 1844 
L 1159 0 
L 581 0 
L 581 3500 
L 1159 3500 
L 1159 2956 
Q 1341 3275 1631 3429 
Q 1922 3584 2338 3584 
Q 2397 3584 2469 3576 
Q 2541 3569 2628 3553 
L 2631 2963 
z
" transform="scale(0.015625)"/>
       <path id="DejaVuSans-63" d="M 3122 3366 
L 3122 2828 
Q 2878 2963 2633 3030 
Q 2388 3097 2138 3097 
Q 1578 3097 1268 2742 
Q 959 2388 959 1747 
Q 959 1106 1268 751 
Q 1578 397 2138 397 
Q 2388 397 2633 464 
Q 2878 531 3122 666 
L 3122 134 
Q 2881 22 2623 -34 
Q 2366 -91 2075 -91 
Q 1284 -91 818 406 
Q 353 903 353 1747 
Q 353 2603 823 3093 
Q 1294 3584 2113 3584 
Q 2378 3584 2631 3529 
Q 2884 3475 3122 3366 
z
" transform="scale(0.015625)"/>
       <path id="DejaVuSans-74" d="M 1172 4494 
L 1172 3500 
L 2356 3500 
L 2356 3053 
L 1172 3053 
L 1172 1153 
Q 1172 725 1289 603 
Q 1406 481 1766 481 
L 2356 481 
L 2356 0 
L 1766 0 
Q 1100 0 847 248 
Q 594 497 594 1153 
L 594 3053 
L 172 3053 
L 172 3500 
L 594 3500 
L 594 4494 
L 1172 4494 
z
" transform="scale(0.015625)"/>
       <path id="DejaVuSans-75" d="M 544 1381 
L 544 3500 
L 1119 3500 
L 1119 1403 
Q 1119 906 1312 657 
Q 1506 409 1894 409 
Q 2359 409 2629 706 
Q 2900 1003 2900 1516 
L 2900 3500 
L 3475 3500 
L 3475 0 
L 2900 0 
L 2900 538 
Q 2691 219 2414 64 
Q 2138 -91 1772 -91 
Q 1169 -91 856 284 
Q 544 659 544 1381 
z
M 1991 3584 
L 1991 3584 
z
" transform="scale(0.015625)"/>
       <path id="DejaVuSans-2c" d="M 750 794 
L 1409 794 
L 1409 256 
L 897 -744 
L 494 -744 
L 750 256 
L 750 794 
z
" transform="scale(0.015625)"/>
       <path id="DejaVuSans-70" d="M 1159 525 
L 1159 -1331 
L 581 -1331 
L 581 3500 
L 1159 3500 
L 1159 2969 
Q 1341 3281 1617 3432 
Q 1894 3584 2278 3584 
Q 2916 3584 3314 3078 
Q 3713 2572 3713 1747 
Q 3713 922 3314 415 
Q 2916 -91 2278 -91 
Q 1894 -91 1617 61 
Q 1341 213 1159 525 
z
M 3116 1747 
Q 3116 2381 2855 2742 
Q 2594 3103 2138 3103 
Q 1681 3103 1420 2742 
Q 1159 2381 1159 1747 
Q 1159 1113 1420 752 
Q 1681 391 2138 391 
Q 2594 391 2855 752 
Q 3116 1113 3116 1747 
z
" transform="scale(0.015625)"/>
      </defs>
      <use xlink:href="#DejaVuSans-46"/>
      <use xlink:href="#DejaVuSans-72" x="50.269531"/>
      <use xlink:href="#DejaVuSans-61" x="91.382812"/>
      <use xlink:href="#DejaVuSans-63" x="152.662109"/>
      <use xlink:href="#DejaVuSans-74" x="207.642578"/>
      <use xlink:href="#DejaVuSans-69" x="246.851562"/>
      <use xlink:href="#DejaVuSans-6f" x="274.634766"/>
      <use xlink:href="#DejaVuSans-6e" x="335.816406"/>
      <use xlink:href="#DejaVuSans-20" x="399.195312"/>
      <use xlink:href="#DejaVuSans-6f" x="430.982422"/>
      <use xlink:href="#DejaVuSans-66" x="492.164062"/>
      <use xlink:href="#DejaVuSans-20" x="527.369141"/>
      <use xlink:href="#DejaVuSans-66" x="559.15625"/>
      <use xlink:href="#DejaVuSans-75" x="594.361328"/>
      <use xlink:href="#DejaVuSans-6e" x="657.740234"/>
      <use xlink:href="#DejaVuSans-63" x="721.119141"/>
      <use xlink:href="#DejaVuSans-74" x="776.099609"/>
      <use xlink:href="#DejaVuSans-69" x="815.308594"/>
      <use xlink:href="#DejaVuSans-6f" x="843.091797"/>
      <use xlink:href="#DejaVuSans-6e" x="904.273438"/>
      <use xlink:href="#DejaVuSans-2c" x="967.652344"/>
      <use xlink:href="#DejaVuSans-74" x="999.439453"/>
      <use xlink:href="#DejaVuSans-61" x="1038.648438"/>
      <use xlink:href="#DejaVuSans-72" x="1099.927734"/>
      <use xlink:href="#DejaVuSans-67" x="1139.291016"/>
      <use xlink:href="#DejaVuSans-65" x="1202.767578"/>
      <use xlink:href="#DejaVuSans-74" x="1264.291016"/>
      <use xlink:href="#DejaVuSans-20" x="1303.5"/>
      <use xlink:href="#DejaVuSans-70" x="1335.287109"/>
      <use xlink:href="#DejaVuSans-61" x="1398.763672"/>
      <use xlink:href="#DejaVuSans-69" x="1460.042969"/>
      <use xlink:href="#DejaVuSans-72" x="1487.826172"/>
      <use xlink:href="#DejaVuSans-73" x="1528.939453"/>
     </g>
    </g>
   </g>
   <g id="line2d_33">
    <defs>
     <path id="mb248601498" d="M 0 1.5 
C 0.397805 1.5 0.77937 1.341951 1.06066 1.06066 
C 1.341951 0.77937 1.5 0.397805 1.5 0 
C 1.5 -0.397805 1.341951 -0.77937 1.06066 -1.06066 
C 0.77937 -1.341951 0.397805 -1.5 0 -1.5 
C -0.397805 -1.5 -0.77937 -1.341951 -1.06066 -1.06066 
C -1.341951 -0.77937 -1.5 -0.397805 -1.5 0 
C -1.5 0.397805 -1.341951 0.77937 -1.06066 1.06066 
C -0.77937 1.341951 -0.397805 1.5 0 1.5 
z
" style="stroke: #f5deb3"/>
    </defs>
    <g>
     <use xlink:href="#mb248601498" x="141.099251" y="27.648" style="fill: #f5deb3; stroke: #f5deb3"/>
     <use xlink:href="#mb248601498" x="141.099251" y="27.648" style="fill: #f5deb3; stroke: #f5deb3"/>
    </g>
   </g>
   <g id="line2d_34">
    <defs>
     <path id="ma193f7e4c0" d="M 0 1.5 
C 0.397805 1.5 0.77937 1.341951 1.06066 1.06066 
C 1.341951 0.77937 1.5 0.397805 1.5 0 
C 1.5 -0.397805 1.341951 -0.77937 1.06066 -1.06066 
C 0.77937 -1.341951 0.397805 -1.5 0 -1.5 
C -0.397805 -1.5 -0.77937 -1.341951 -1.06066 -1.06066 
C -1.341951 -0.77937 -1.5 -0.397805 -1.5 0 
C -1.5 0.397805 -1.341951 0.77937 -1.06066 1.06066 
C -0.77937 1.341951 -0.397805 1.5 0 1.5 
z
" style="stroke: #000080"/>
    </defs>
    <g>
     <use xlink:href="#ma193f7e4c0" x="163.688506" y="27.648" style="fill: #000080; stroke: #000080"/>
     <use xlink:href="#ma193f7e4c0" x="163.688506" y="27.648" style="fill: #000080; stroke: #000080"/>
    </g>
   </g>
   <g id="line2d_35">
    <path d="M 126.677381 298.944 
L 126.677381 297.880094 
L 130.160198 297.880094 
L 130.160198 295.752282 
L 135.932769 295.752282 
L 135.932769 293.624471 
L 136.508678 293.624471 
L 136.602972 291.496659 
L 136.696795 291.496659 
L 136.696795 290.432753 
L 137.250116 290.432753 
L 137.250116 288.304941 
L 137.787626 288.304941 
L 137.787626 287.241035 
L 138.050729 287.241035 
L 138.050729 286.177129 
L 138.985129 286.177129 
L 138.985129 284.049318 
L 139.313723 284.049318 
L 139.394983 278.729788 
L 139.796097 278.729788 
L 139.796097 277.665882 
L 140.573544 277.665882 
L 140.573544 275.538071 
L 141.393187 275.538071 
L 141.393187 274.474165 
L 141.610664 274.474165 
L 141.610664 273.410259 
L 141.754265 273.410259 
L 141.825656 271.282447 
L 142.108542 271.282447 
L 142.178603 269.154635 
L 142.729897 269.154635 
L 142.729897 264.899012 
L 143.265494 264.899012 
L 143.265494 263.835106 
L 143.914232 263.835106 
L 143.914232 260.643388 
L 144.786447 260.643388 
L 144.786447 257.451671 
L 145.088405 257.451671 
L 145.088405 254.259953 
L 145.207843 254.259953 
L 145.207843 253.196047 
L 146.080251 253.196047 
L 146.080251 252.132141 
L 146.306218 252.132141 
L 146.306218 251.068235 
L 146.418192 251.068235 
L 146.418192 250.004329 
L 146.913986 250.004329 
L 147.022411 245.748706 
L 147.397049 245.748706 
L 147.502732 239.365271 
L 147.816265 239.365271 
L 147.919625 234.045741 
L 147.971093 234.045741 
L 147.971093 232.981835 
L 148.124658 232.981835 
L 148.124658 231.917929 
L 148.478174 231.917929 
L 148.478174 230.854024 
L 148.971944 230.854024 
L 149.069161 227.662306 
L 149.165879 227.662306 
L 149.262102 224.470588 
L 149.453084 224.470588 
L 149.547853 222.342776 
L 149.642146 222.342776 
L 149.642146 219.151059 
L 150.060715 219.151059 
L 150.060715 212.767624 
L 150.289291 212.767624 
L 150.379949 209.575906 
L 150.870907 209.575906 
L 150.870907 207.448094 
L 151.00261 207.448094 
L 151.046307 204.256376 
L 151.306379 204.256376 
L 151.306379 203.192471 
L 151.562904 203.192471 
L 151.60532 200.000753 
L 152.024303 200.000753 
L 152.024303 197.872941 
L 152.1482 197.872941 
L 152.230346 195.745129 
L 152.312136 195.745129 
L 152.312136 192.553412 
L 152.474656 192.553412 
L 152.555392 181.914353 
L 152.595631 181.914353 
L 152.595631 178.722635 
L 152.835271 178.722635 
L 152.835271 176.594824 
L 152.953957 176.594824 
L 153.032666 172.3392 
L 153.189104 172.3392 
L 153.266838 169.147482 
L 153.344252 169.147482 
L 153.344252 168.083576 
L 153.536404 168.083576 
L 153.536404 164.891859 
L 153.650761 164.891859 
L 153.650761 162.764047 
L 153.989717 162.764047 
L 154.027004 154.2528 
L 154.935952 154.2528 
L 155.042132 152.124988 
L 155.252711 152.124988 
L 155.252711 151.061082 
L 155.460959 151.061082 
L 155.529866 145.741553 
L 155.598521 145.741553 
L 155.598521 143.613741 
L 155.735085 143.613741 
L 155.836861 140.422024 
L 155.904407 140.422024 
L 155.904407 136.1664 
L 156.038776 136.1664 
L 156.105602 126.591247 
L 156.271636 126.591247 
L 156.271636 121.271718 
L 156.566854 121.271718 
L 156.664239 111.696565 
L 156.953406 111.696565 
L 157.017067 105.313129 
L 157.580516 105.313129 
L 157.580516 103.185318 
L 157.764644 103.185318 
L 157.856036 101.057506 
L 158.306454 101.057506 
L 158.306454 99.9936 
L 158.513014 99.9936 
L 158.513014 97.865788 
L 158.775302 97.865788 
L 158.861925 92.546259 
L 159.090988 92.546259 
L 159.176172 90.418447 
L 159.232748 90.418447 
L 159.260973 84.035012 
L 159.401463 84.035012 
L 159.485256 81.9072 
L 159.513105 81.9072 
L 159.513105 78.715482 
L 159.898714 78.715482 
L 159.898714 77.651576 
L 160.115564 77.651576 
L 160.223059 73.395953 
L 160.249837 73.395953 
L 160.329943 59.565176 
L 160.594526 59.565176 
L 160.594526 51.053929 
L 160.803545 51.053929 
L 160.803545 49.990024 
L 161.112783 49.990024 
L 161.112783 47.862212 
L 161.316153 47.862212 
L 161.316153 44.670494 
L 161.467251 44.670494 
L 161.517348 42.542682 
L 161.666845 42.542682 
L 161.666845 40.414871 
L 162.05979 40.414871 
L 162.108336 37.223153 
L 162.349204 37.223153 
L 162.420867 30.839718 
L 163.168754 30.839718 
L 163.168754 28.711906 
L 163.688506 28.711906 
L 163.688506 27.648 
L 360.8064 27.648 
L 360.8064 27.648 
" style="fill: none; stroke: #000080; stroke-width: 1.5; stroke-linecap: square"/>
   </g>
   <g id="line2d_36">
    <defs>
     <path id="m2773099be8" d="M 0 6 
C 1.591219 6 3.117479 5.367802 4.242641 4.242641 
C 5.367802 3.117479 6 1.591219 6 0 
C 6 -1.591219 5.367802 -3.117479 4.242641 -4.242641 
C 3.117479 -5.367802 1.591219 -6 0 -6 
C -1.591219 -6 -3.117479 -5.367802 -4.242641 -4.242641 
C -5.367802 -3.117479 -6 -1.591219 -6 0 
C -6 1.591219 -5.367802 3.117479 -4.242641 4.242641 
C -3.117479 5.367802 -1.591219 6 0 6 
z
" style="stroke: #000080; stroke-width: 1.5"/>
    </defs>
    <g>
     <use xlink:href="#m2773099be8" x="160.329943" y="65.948612" style="fill-opacity: 0; stroke: #000080; stroke-width: 1.5"/>
     <use xlink:href="#m2773099be8" x="163.688506" y="28.711906" style="fill-opacity: 0; stroke: #000080; stroke-width: 1.5"/>
     <use xlink:href="#m2773099be8" x="163.688506" y="27.648" style="fill-opacity: 0; stroke: #000080; stroke-width: 1.5"/>
     <use xlink:href="#m2773099be8" x="163.688506" y="27.648" style="fill-opacity: 0; stroke: #000080; stroke-width: 1.5"/>
     <use xlink:href="#m2773099be8" x="360.8064" y="27.648" style="fill-opacity: 0; stroke: #000080; stroke-width: 1.5"/>
    </g>
   </g>
   <g id="line2d_37">
    <path style="fill: none; stroke: #000080; stroke-width: 1.5; stroke-linecap: square"/>
    <g/>
   </g>
   <g id="line2d_38">
    <defs>
     <path id="m0667f1d2ea" d="M 0 1.5 
C 0.397805 1.5 0.77937 1.341951 1.06066 1.06066 
C 1.341951 0.77937 1.5 0.397805 1.5 0 
C 1.5 -0.397805 1.341951 -0.77937 1.06066 -1.06066 
C 0.77937 -1.341951 0.397805 -1.5 0 -1.5 
C -0.397805 -1.5 -0.77937 -1.341951 -1.06066 -1.06066 
C -1.341951 -0.77937 -1.5 -0.397805 -1.5 0 
C -1.5 0.397805 -1.341951 0.77937 -1.06066 1.06066 
C -0.77937 1.341951 -0.397805 1.5 0 1.5 
z
" style="stroke: #ff00ff"/>
    </defs>
    <g>
     <use xlink:href="#m0667f1d2ea" x="184.642651" y="27.648" style="fill: #ff00ff; stroke: #ff00ff"/>
     <use xlink:href="#m0667f1d2ea" x="184.642651" y="27.648" style="fill: #ff00ff; stroke: #ff00ff"/>
    </g>
   </g>
   <g id="line2d_39">
    <path d="M 95.916911 298.944 
L 95.916911 298.731219 
L 120.944062 298.731219 
L 120.944062 298.518438 
L 125.184934 298.447511 
L 125.184934 296.958042 
L 126.677381 296.958042 
L 126.677381 296.461553 
L 127.458055 296.461553 
L 127.458055 295.823209 
L 128.786481 295.823209 
L 128.786481 295.468574 
L 129.622688 295.468574 
L 129.622688 295.255793 
L 130.553485 295.184866 
L 130.553485 294.759304 
L 130.682774 294.759304 
L 130.682774 294.333741 
L 130.811181 294.333741 
L 130.811181 294.12096 
L 131.686295 294.12096 
L 131.686295 293.979106 
L 131.808053 293.979106 
L 131.808053 293.837252 
L 131.929028 293.837252 
L 131.929028 293.553544 
L 132.984158 293.553544 
L 132.984158 293.340762 
L 133.097823 293.340762 
L 133.097823 292.702419 
L 133.434756 292.702419 
L 133.434756 291.851294 
L 133.874812 291.851294 
L 133.983236 291.567586 
L 134.198228 291.496659 
L 134.198228 291.283878 
L 134.41079 291.283878 
L 134.41079 291.000169 
L 134.725196 291.000169 
L 134.725196 290.149045 
L 134.931919 290.149045 
L 135.034434 289.439774 
L 135.237805 289.439774 
L 135.237805 289.226993 
L 135.638065 289.226993 
L 135.638065 288.872358 
L 135.835047 288.872358 
L 135.932769 287.950306 
L 136.222928 287.950306 
L 136.318661 287.028254 
L 136.508678 287.028254 
L 136.602972 286.815473 
L 136.790153 286.815473 
L 136.88305 286.389911 
L 137.067478 286.389911 
L 137.159019 284.049318 
L 137.250116 284.049318 
L 137.340774 282.985412 
L 137.610157 282.985412 
L 137.699101 282.630776 
L 137.787626 282.630776 
L 137.875736 281.850579 
L 137.963436 281.850579 
L 138.050729 281.495944 
L 138.224108 281.425016 
L 138.224108 281.283162 
L 138.481218 281.212235 
L 138.566146 281.070381 
L 138.650692 281.070381 
L 138.650692 280.8576 
L 138.985129 280.8576 
L 138.985129 280.361111 
L 139.313723 280.290184 
L 139.394983 279.935548 
L 139.636676 279.935548 
L 139.716555 278.871642 
L 139.875304 278.871642 
L 139.954178 278.375153 
L 140.032723 278.375153 
L 140.110942 277.736809 
L 140.188837 277.736809 
L 140.26641 276.743831 
L 140.343665 276.743831 
L 140.420604 275.821779 
L 140.649551 275.821779 
L 140.649551 275.112508 
L 140.800648 275.112508 
L 140.875745 274.757873 
L 140.950542 274.757873 
L 141.025043 274.048602 
L 141.099251 274.048602 
L 141.173167 273.62304 
L 141.246793 273.62304 
L 141.320133 273.126551 
L 141.610664 273.055624 
L 141.682602 272.771915 
L 141.754265 272.771915 
L 141.825656 272.346353 
L 141.96763 272.275426 
L 142.038218 272.133572 
L 142.108542 272.133572 
L 142.108542 271.495228 
L 142.387236 271.424301 
L 142.387236 271.140593 
L 142.593581 271.140593 
L 142.593581 270.785958 
L 142.729897 270.785958 
L 142.797687 270.573176 
L 142.865233 270.573176 
L 142.932537 270.289468 
L 143.066428 270.218541 
L 143.133017 269.722052 
L 143.265494 269.651125 
L 143.265494 269.367416 
L 143.462475 269.296489 
L 143.52768 268.870927 
L 143.657415 268.8 
L 143.721949 268.445365 
L 143.977892 268.374438 
L 143.977892 267.948875 
L 144.10457 267.948875 
L 144.10457 267.665167 
L 144.2304 267.665167 
L 144.2304 267.310532 
L 144.417581 267.310532 
L 144.417581 266.672188 
L 144.541342 266.672188 
L 144.602918 266.033845 
L 144.847227 265.962918 
L 144.847227 265.891991 
L 144.968202 265.891991 
L 145.0284 265.395501 
L 145.148219 265.324574 
L 145.207843 265.040866 
L 145.44447 264.969939 
L 145.503164 264.615304 
L 145.736128 264.544376 
L 145.79392 264.047887 
L 146.023332 263.97696 
L 146.080251 263.622325 
L 146.193574 263.622325 
L 146.24998 263.409544 
L 146.418192 263.338616 
L 146.47393 262.7712 
L 146.584913 262.7712 
L 146.695245 262.345638 
L 146.804934 262.274711 
L 146.804934 262.061929 
L 147.076389 261.991002 
L 147.076389 261.778221 
L 147.237402 261.778221 
L 147.343984 260.146899 
L 147.449964 260.146899 
L 147.449964 259.934118 
L 147.712333 259.863191 
L 147.816265 259.012066 
L 148.124658 258.941139 
L 148.226342 257.877233 
L 148.276979 257.877233 
L 148.32748 257.664452 
L 148.428077 257.664452 
L 148.528138 256.7424 
L 148.67724 256.671473 
L 148.726679 256.529619 
L 148.874221 256.529619 
L 148.923146 255.678494 
L 149.069161 255.607567 
L 149.165879 254.33088 
L 149.31003 254.33088 
L 149.357835 253.976245 
L 149.547853 253.905318 
L 149.642146 253.408828 
L 149.73597 253.408828 
L 149.782707 251.777506 
L 149.968501 251.706579 
L 150.060715 250.146184 
L 150.106653 250.146184 
L 150.198193 248.443934 
L 150.243797 248.443934 
L 150.289291 248.089299 
L 150.425115 248.089299 
L 150.515122 247.167247 
L 150.559965 247.167247 
L 150.604701 246.599831 
L 150.693856 246.599831 
L 150.78259 245.181289 
L 150.870907 245.110362 
L 150.958812 244.755727 
L 151.00261 244.755727 
L 151.089903 243.833675 
L 151.263283 243.762748 
L 151.306379 242.911624 
L 151.392277 242.911624 
L 151.477784 241.776791 
L 151.60532 241.776791 
L 151.689867 240.571031 
L 151.774035 240.500104 
L 151.857828 240.074541 
L 151.899585 240.074541 
L 151.982822 238.656 
L 152.065693 238.585073 
L 152.106991 238.088584 
L 152.189318 238.088584 
L 152.271285 236.528188 
L 152.474656 236.457261 
L 152.515067 235.818918 
L 152.595631 235.818918 
L 152.595631 235.677064 
L 152.715833 235.677064 
L 152.795543 234.684085 
L 152.835271 234.684085 
L 152.914478 233.762033 
L 152.993353 233.691106 
L 152.993353 233.478325 
L 153.111048 233.478325 
L 153.189104 232.556273 
L 153.228011 232.556273 
L 153.305585 231.988856 
L 153.344252 231.988856 
L 153.421349 230.783096 
L 153.49813 230.783096 
L 153.5746 229.648264 
L 153.612719 229.648264 
L 153.688725 227.875087 
L 153.726614 227.875087 
L 153.726614 227.80416 
L 153.726614 227.733233 
L 153.839823 227.733233 
L 153.914919 226.669327 
L 153.952355 226.669327 
L 154.027004 225.179859 
L 154.064218 225.179859 
L 154.138425 224.328734 
L 154.17542 224.328734 
L 154.285968 222.626485 
L 154.322673 222.626485 
L 154.39587 221.137016 
L 154.468783 221.137016 
L 154.577625 219.860329 
L 154.613767 219.860329 
L 154.721776 218.229007 
L 154.757642 218.229007 
L 154.86483 216.597685 
L 154.935952 216.526758 
L 155.042132 214.895435 
L 155.077392 214.895435 
L 155.18278 213.476894 
L 155.252711 213.405967 
L 155.357123 210.001468 
L 155.391799 210.001468 
L 155.495444 208.086438 
L 155.529866 208.086438 
L 155.632755 206.809751 
L 155.666927 206.809751 
L 155.769072 204.965647 
L 155.802997 204.965647 
L 155.870664 203.405252 
L 155.938089 203.405252 
L 156.038776 202.128565 
L 156.072219 202.128565 
L 156.072219 202.057638 
L 156.172192 199.787972 
L 156.205398 199.787972 
L 156.304668 197.447379 
L 156.403417 197.376452 
L 156.501649 196.667181 
L 156.53428 196.667181 
L 156.631834 193.901026 
L 156.696589 193.830099 
L 156.793307 192.83712 
L 156.857511 192.766193 
L 156.953406 190.283746 
L 157.017067 190.283746 
L 157.112155 188.085007 
L 157.175281 188.01408 
L 157.238196 186.80832 
L 157.300901 186.80832 
L 157.363398 185.815341 
L 157.425688 185.815341 
L 157.518738 184.467727 
L 157.549652 184.467727 
L 157.642093 181.772499 
L 157.734081 181.701572 
L 157.825621 179.077271 
L 157.856036 179.077271 
L 157.946987 177.587802 
L 157.977206 177.587802 
L 158.067574 175.95648 
L 158.0976 175.95648 
L 158.187393 175.034428 
L 158.217229 175.034428 
L 158.306454 173.615887 
L 158.336102 173.615887 
L 158.424766 172.835689 
L 158.454228 172.835689 
L 158.542339 170.991586 
L 158.571617 170.991586 
L 158.659181 170.069534 
L 158.688279 170.069534 
L 158.775302 168.225431 
L 158.833095 168.225431 
L 158.919453 166.877816 
L 158.948151 166.877816 
L 159.033983 165.317421 
L 159.090988 165.246494 
L 159.176172 162.267558 
L 159.260973 162.196631 
L 159.345393 158.579351 
L 159.373449 158.579351 
L 159.373449 158.508424 
L 159.429436 156.451539 
L 159.485256 156.451539 
L 159.568678 155.742268 
L 159.596403 155.742268 
L 159.706897 152.905186 
L 159.761902 152.905186 
L 159.761902 152.834259 
L 159.844108 151.415718 
L 159.898714 151.415718 
L 160.007451 149.146052 
L 160.034538 149.146052 
L 160.142495 147.372875 
L 160.169388 147.372875 
L 160.276577 143.968376 
L 160.303279 143.968376 
L 160.409709 141.415002 
L 160.436223 141.415002 
L 160.541906 139.996461 
L 160.568234 139.996461 
L 160.673181 137.37216 
L 160.725435 137.37216 
L 160.82951 135.386202 
L 160.855439 135.386202 
L 160.9588 133.400245 
L 161.010268 133.400245 
L 161.112783 132.265412 
L 161.138325 132.265412 
L 161.138325 132.194485 
L 161.240147 129.853892 
L 161.265517 129.853892 
L 161.265517 129.782965 
L 161.366654 127.797007 
L 161.391854 127.797007 
L 161.492316 125.31456 
L 161.542347 125.243633 
L 161.642011 123.541384 
L 161.666845 123.541384 
L 161.716414 121.839134 
L 161.790524 121.839134 
L 161.888886 120.49152 
L 161.913396 120.49152 
L 162.011118 119.28576 
L 162.05979 119.214833 
L 162.156757 115.881261 
L 162.205054 115.881261 
L 162.301277 114.391793 
L 162.325256 114.391793 
L 162.420867 112.760471 
L 162.444694 112.760471 
L 162.539702 111.341929 
L 162.587027 111.271002 
L 162.681321 109.994315 
L 162.704821 109.994315 
L 162.798527 108.859482 
L 162.821881 108.859482 
L 162.915008 107.653722 
L 162.938218 107.653722 
L 163.007676 106.589816 
L 163.053839 106.589816 
L 163.145827 105.596838 
L 163.168754 105.596838 
L 163.260183 103.469026 
L 163.282972 103.469026 
L 163.373849 102.688828 
L 163.3965 102.688828 
L 163.486831 100.915652 
L 163.509347 100.844725 
L 163.59914 98.716913 
L 163.666204 98.645986 
L 163.755253 96.801882 
L 163.79962 96.801882 
L 163.910081 95.241487 
L 163.932096 95.241487 
L 164.019898 93.893873 
L 164.063646 93.893873 
L 164.172572 92.617186 
L 164.194282 92.617186 
L 164.302457 91.695134 
L 164.324018 91.695134 
L 164.410013 89.496395 
L 164.452864 89.496395 
L 164.559567 88.361562 
L 164.580835 88.361562 
L 164.686815 87.013948 
L 164.70794 87.013948 
L 164.813209 85.737261 
L 164.834193 85.737261 
L 164.93876 84.531501 
L 164.959603 84.531501 
L 165.063478 83.396668 
L 165.084184 83.396668 
L 165.187374 82.545544 
L 165.207944 82.545544 
L 165.290001 81.836273 
L 165.35131 81.765346 
L 165.45305 80.914221 
L 165.473332 80.914221 
L 165.574415 79.566607 
L 165.594566 79.566607 
L 165.695002 78.360847 
L 165.755007 78.28992 
L 165.854592 77.580649 
L 165.894279 77.580649 
L 165.894279 77.509722 
L 165.973402 76.658598 
L 166.032527 76.587671 
L 166.130658 75.736546 
L 166.150222 75.736546 
L 166.247742 74.530786 
L 166.267186 74.530786 
L 166.267186 74.459859 
L 166.364103 73.608734 
L 166.383426 73.608734 
L 166.479748 73.041318 
L 166.518139 73.041318 
L 166.594686 71.906485 
L 166.651893 71.835558 
L 166.746854 70.417016 
L 166.765788 70.417016 
L 166.841337 69.636819 
L 166.916583 69.565892 
L 167.01022 68.289205 
L 167.084795 68.218278 
L 167.1776 67.650861 
L 167.214594 67.650861 
L 167.325142 66.586955 
L 167.398482 66.516028 
L 167.507957 65.310268 
L 167.526142 65.310268 
L 167.634879 64.388216 
L 167.670986 64.317289 
L 167.76095 63.324311 
L 167.796816 63.324311 
L 167.904005 62.189478 
L 167.92181 62.189478 
L 168.028291 60.416301 
L 168.063651 60.345374 
L 168.169334 59.565176 
L 168.239461 59.494249 
L 168.326754 58.572198 
L 168.413644 58.501271 
L 168.517384 57.650146 
L 168.534619 57.650146 
L 168.637696 56.869948 
L 168.689024 56.799021 
L 168.79126 56.515313 
L 168.825216 56.444386 
L 168.926718 55.664188 
L 168.943582 55.664188 
L 169.027674 54.883991 
L 169.061207 54.883991 
L 169.061207 54.813064 
L 169.161446 54.032866 
L 169.194741 53.961939 
L 169.294273 53.323595 
L 169.360337 53.252668 
L 169.458999 52.614325 
L 169.491772 52.543398 
L 169.589749 51.124856 
L 169.606029 51.124856 
L 169.606029 51.053929 
L 169.703414 50.628367 
L 169.735764 50.628367 
L 169.832482 49.777242 
L 169.864611 49.706315 
L 169.944694 49.493534 
L 169.992581 49.493534 
L 170.087991 49.067972 
L 170.135514 48.997045 
L 170.245939 48.287774 
L 170.308749 48.216847 
L 170.418164 47.720358 
L 170.464862 47.649431 
L 170.573376 47.223868 
L 170.588827 47.223868 
L 170.69663 46.585525 
L 170.788543 46.514598 
L 170.84957 45.947181 
L 170.925576 45.947181 
L 171.016381 45.450692 
L 171.076674 45.450692 
L 171.166753 45.096056 
L 171.226568 45.025129 
L 171.315934 44.741421 
L 171.375276 44.670494 
L 171.419661 44.457713 
L 171.493403 44.457713 
L 171.596158 43.961224 
L 171.625414 43.890296 
L 171.68379 43.606588 
L 171.756506 43.535661 
L 171.828941 43.039172 
L 171.88669 42.968245 
L 171.944262 42.471755 
L 172.001658 42.471755 
L 172.001658 42.400828 
L 172.073157 41.975266 
L 172.130162 41.975266 
L 172.201176 41.336922 
L 172.243656 41.336922 
L 172.243656 41.265995 
L 172.328329 40.840433 
L 172.384567 40.769506 
L 172.482581 40.414871 
L 172.53836 40.343944 
L 172.62172 39.989308 
L 172.663262 39.989308 
L 172.759838 39.421892 
L 172.801076 39.350965 
L 172.85592 39.067256 
L 172.951515 38.996329 
L 173.060174 38.783548 
L 173.087241 38.712621 
L 173.195121 38.49984 
L 173.262233 38.428913 
L 173.369117 37.861496 
L 173.435613 37.790569 
L 173.541519 37.506861 
L 173.567903 37.506861 
L 173.673069 36.939445 
L 173.77765 36.868518 
L 173.855707 36.655736 
L 173.920507 36.584809 
L 173.972187 36.159247 
L 174.062287 36.159247 
L 174.062287 36.08832 
L 174.164733 35.804612 
L 174.1775 35.804612 
L 174.279322 35.379049 
L 174.304691 35.308122 
L 174.342681 35.166268 
L 174.456194 35.095341 
L 174.49388 34.811633 
L 174.618958 34.740706 
L 174.681186 34.598852 
L 174.854337 34.527925 
L 174.95257 34.031435 
L 174.989276 33.960508 
L 175.098964 33.605873 
L 175.495771 33.534946 
L 175.602554 33.109384 
L 175.696966 33.038456 
L 175.732249 32.896602 
L 175.907676 32.825675 
L 175.942567 32.683821 
L 176.265124 32.612894 
L 176.36764 32.329186 
L 176.503464 32.258259 
L 176.604692 31.974551 
L 176.660695 31.903624 
L 176.716533 31.619915 
L 176.894106 31.548988 
L 176.960266 31.336207 
L 177.03716 31.26528 
L 177.146467 31.123426 
L 177.298436 31.052499 
L 177.320046 30.768791 
L 177.524113 30.697864 
L 177.609378 30.485082 
L 177.998778 30.414155 
L 178.081923 30.201374 
L 178.257396 30.130447 
L 178.257396 30.05952 
L 178.46176 29.988593 
L 178.492224 29.846739 
L 178.663928 29.775812 
L 178.734177 29.563031 
L 178.834079 29.492104 
L 178.933453 29.350249 
L 179.169832 29.279322 
L 179.277187 29.137468 
L 179.605192 29.066541 
L 179.605192 28.995614 
L 180.040051 28.924687 
L 180.040051 28.85376 
L 180.318334 28.782833 
L 180.382678 28.640979 
L 180.844946 28.570052 
L 180.862845 28.428198 
L 181.269884 28.357271 
L 181.365929 28.215416 
L 181.478807 28.144489 
L 181.478807 28.073562 
L 182.579998 28.002635 
L 182.579998 27.931708 
L 183.550619 27.860781 
L 183.550619 27.789854 
L 184.642651 27.718927 
L 184.642651 27.648 
L 360.8064 27.648 
L 360.8064 27.648 
" style="fill: none; stroke: #ff00ff; stroke-width: 1.5; stroke-linecap: square"/>
   </g>
   <g id="line2d_40">
    <defs>
     <path id="m7889618579" d="M -0 8.485281 
L 5.091169 0 
L 0 -8.485281 
L -5.091169 -0 
z
" style="stroke: #ff00ff; stroke-width: 1.5; stroke-linejoin: miter"/>
    </defs>
    <g>
     <use xlink:href="#m7889618579" x="150.425115" y="247.947445" style="fill-opacity: 0; stroke: #ff00ff; stroke-width: 1.5; stroke-linejoin: miter"/>
     <use xlink:href="#m7889618579" x="169.277721" y="53.465449" style="fill-opacity: 0; stroke: #ff00ff; stroke-width: 1.5; stroke-linejoin: miter"/>
     <use xlink:href="#m7889618579" x="184.642651" y="27.718927" style="fill-opacity: 0; stroke: #ff00ff; stroke-width: 1.5; stroke-linejoin: miter"/>
     <use xlink:href="#m7889618579" x="184.642651" y="27.648" style="fill-opacity: 0; stroke: #ff00ff; stroke-width: 1.5; stroke-linejoin: miter"/>
     <use xlink:href="#m7889618579" x="360.8064" y="27.648" style="fill-opacity: 0; stroke: #ff00ff; stroke-width: 1.5; stroke-linejoin: miter"/>
    </g>
   </g>
   <g id="line2d_41">
    <path style="fill: none; stroke: #ff00ff; stroke-width: 1.5; stroke-linecap: square"/>
    <g/>
   </g>
   <g id="line2d_42">
    <path d="M 104.860369 298.731219 
" clip-path="url(#p947c8b9555)" style="fill: none; stroke: #ff00ff; stroke-width: 1.5; stroke-linecap: square"/>
    <defs>
     <path id="me582f8e95c" d="M -12 12 
L 12 -12 
M -12 -12 
L 12 12 
" style="stroke: #ff00ff"/>
    </defs>
    <g clip-path="url(#p947c8b9555)">
     <use xlink:href="#me582f8e95c" x="104.860369" y="298.731219" style="fill: #ff00ff; stroke: #ff00ff"/>
    </g>
   </g>
   <g id="line2d_43">
    <defs>
     <path id="m072fee54f3" d="M 0 1.5 
C 0.397805 1.5 0.77937 1.341951 1.06066 1.06066 
C 1.341951 0.77937 1.5 0.397805 1.5 0 
C 1.5 -0.397805 1.341951 -0.77937 1.06066 -1.06066 
C 0.77937 -1.341951 0.397805 -1.5 0 -1.5 
C -0.397805 -1.5 -0.77937 -1.341951 -1.06066 -1.06066 
C -1.341951 -0.77937 -1.5 -0.397805 -1.5 0 
C -1.5 0.397805 -1.341951 0.77937 -1.06066 1.06066 
C -0.77937 1.341951 -0.397805 1.5 0 1.5 
z
" style="stroke: #ff7500"/>
    </defs>
    <g>
     <use xlink:href="#m072fee54f3" x="166.822478" y="27.648" style="fill: #ff7500; stroke: #ff7500"/>
     <use xlink:href="#m072fee54f3" x="166.822478" y="27.648" style="fill: #ff7500; stroke: #ff7500"/>
    </g>
   </g>
   <g id="line2d_44">
    <path d="M 108.542628 298.944 
L 108.542628 297.880094 
L 130.027253 297.880094 
L 130.027253 296.816188 
L 130.553485 296.816188 
L 130.553485 293.624471 
L 132.522502 293.624471 
L 132.522502 289.368847 
L 133.323114 289.368847 
L 133.323114 288.304941 
L 135.338671 288.304941 
L 135.338671 286.177129 
L 136.413909 286.177129 
L 136.413909 285.113224 
L 137.159019 285.113224 
L 137.159019 281.921506 
L 137.699101 281.921506 
L 137.699101 279.793694 
L 139.636676 279.793694 
L 139.636676 278.729788 
L 139.875304 278.729788 
L 139.875304 276.601976 
L 140.420604 276.601976 
L 140.420604 275.538071 
L 140.875745 275.538071 
L 140.875745 274.474165 
L 142.593581 274.474165 
L 142.593581 273.410259 
L 143.786262 273.410259 
L 143.786262 272.346353 
L 144.041338 272.346353 
L 144.041338 271.282447 
L 144.541342 271.282447 
L 144.541342 270.218541 
L 145.148219 270.218541 
L 145.148219 268.090729 
L 145.561676 268.090729 
L 145.561676 267.026824 
L 146.080251 267.026824 
L 146.080251 263.835106 
L 147.971093 263.835106 
L 147.971093 260.643388 
L 149.069161 260.643388 
L 149.069161 259.579482 
L 149.40552 259.579482 
L 149.40552 258.515576 
L 150.060715 258.515576 
L 150.060715 257.451671 
L 150.379949 257.451671 
L 150.470172 255.323859 
L 150.559965 255.323859 
L 150.559965 254.259953 
L 150.8268 254.259953 
L 150.8268 253.196047 
L 151.133398 253.196047 
L 151.133398 252.132141 
L 151.306379 252.132141 
L 151.306379 251.068235 
L 151.520392 251.068235 
L 151.520392 250.004329 
L 151.647641 250.004329 
L 151.647641 246.812612 
L 151.94125 246.812612 
L 151.94125 245.748706 
L 152.271285 245.748706 
L 152.271285 244.6848 
L 153.071898 244.6848 
L 153.071898 243.620894 
L 153.49813 243.620894 
L 153.536404 239.365271 
L 153.612719 239.365271 
L 153.612719 238.301365 
L 153.726614 238.301365 
L 153.802162 235.109647 
L 153.839823 235.109647 
L 153.839823 234.045741 
L 153.952355 234.045741 
L 154.027004 228.726212 
L 154.212341 228.726212 
L 154.212341 223.406682 
L 154.432362 223.406682 
L 154.541415 221.278871 
L 154.829169 221.278871 
L 154.829169 219.151059 
L 155.042132 219.151059 
L 155.112587 209.575906 
L 155.28758 209.575906 
L 155.357123 206.384188 
L 155.529866 206.384188 
L 155.632755 203.192471 
L 155.836861 203.192471 
L 155.836861 200.000753 
L 156.138926 200.000753 
L 156.138926 197.872941 
L 156.403417 197.872941 
L 156.403417 195.745129 
L 156.857511 195.745129 
L 156.921495 190.4256 
L 157.017067 190.4256 
L 157.017067 189.361694 
L 157.672805 189.361694 
L 157.672805 187.233882 
L 157.795157 187.233882 
L 157.856036 182.978259 
L 158.127579 182.978259 
L 158.187393 176.594824 
L 158.395258 176.594824 
L 158.454228 172.3392 
L 158.717331 172.3392 
L 158.804221 165.955765 
L 159.005416 165.955765 
L 159.005416 164.891859 
L 159.119425 164.891859 
L 159.119425 163.827953 
L 159.232748 163.827953 
L 159.317295 157.444518 
L 159.345393 157.444518 
L 159.401463 154.2528 
L 159.457367 154.2528 
L 159.457367 153.188894 
L 159.651731 153.188894 
L 159.651731 152.124988 
L 159.816746 152.124988 
L 159.816746 151.061082 
L 159.980326 151.061082 
L 160.007451 145.741553 
L 160.142495 145.741553 
L 160.142495 143.613741 
L 160.383158 143.613741 
L 160.4627 134.038588 
L 160.907191 134.038588 
L 160.9588 129.782965 
L 161.189305 129.782965 
L 161.265517 120.207812 
L 161.366654 120.207812 
L 161.467251 113.824376 
L 161.567313 113.824376 
L 161.617145 107.440941 
L 161.815163 107.440941 
L 161.839769 103.185318 
L 162.05979 103.185318 
L 162.05979 97.865788 
L 162.373122 97.865788 
L 162.39701 94.674071 
L 162.681321 94.674071 
L 162.681321 92.546259 
L 162.891769 92.546259 
L 162.915008 86.162824 
L 163.099889 86.162824 
L 163.145827 82.971106 
L 163.44172 82.971106 
L 163.531835 78.715482 
L 163.643876 78.715482 
L 163.710781 72.332047 
L 163.821764 72.332047 
L 163.910081 64.884706 
L 164.129077 64.884706 
L 164.172572 55.309553 
L 164.559567 55.309553 
L 164.559567 53.181741 
L 164.729041 53.181741 
L 164.729041 51.053929 
L 165.207944 51.053929 
L 165.249018 48.926118 
L 165.432746 48.926118 
L 165.432746 42.542682 
L 165.614697 42.542682 
L 165.614697 40.414871 
L 165.854592 40.414871 
L 165.933882 34.031435 
L 166.7279 34.031435 
L 166.822478 27.648 
L 360.8064 27.648 
L 360.8064 27.648 
" style="fill: none; stroke: #ff7500; stroke-width: 1.5; stroke-linecap: square"/>
   </g>
   <g id="line2d_45">
    <defs>
     <path id="mfc8a5f098f" d="M 0 -6 
L -1.347084 -1.854102 
L -5.706339 -1.854102 
L -2.179628 0.708204 
L -3.526712 4.854102 
L -0 2.291796 
L 3.526712 4.854102 
L 2.179628 0.708204 
L 5.706339 -1.854102 
L 1.347084 -1.854102 
z
" style="stroke: #ff7500; stroke-width: 1.5; stroke-linejoin: bevel"/>
    </defs>
    <g>
     <use xlink:href="#mfc8a5f098f" x="155.042132" y="219.151059" style="fill-opacity: 0; stroke: #ff7500; stroke-width: 1.5; stroke-linejoin: bevel"/>
     <use xlink:href="#mfc8a5f098f" x="165.249018" y="48.926118" style="fill-opacity: 0; stroke: #ff7500; stroke-width: 1.5; stroke-linejoin: bevel"/>
     <use xlink:href="#mfc8a5f098f" x="166.822478" y="31.903624" style="fill-opacity: 0; stroke: #ff7500; stroke-width: 1.5; stroke-linejoin: bevel"/>
     <use xlink:href="#mfc8a5f098f" x="166.822478" y="27.648" style="fill-opacity: 0; stroke: #ff7500; stroke-width: 1.5; stroke-linejoin: bevel"/>
     <use xlink:href="#mfc8a5f098f" x="360.8064" y="27.648" style="fill-opacity: 0; stroke: #ff7500; stroke-width: 1.5; stroke-linejoin: bevel"/>
    </g>
   </g>
   <g id="line2d_46">
    <path style="fill: none; stroke: #ff7500; stroke-width: 1.5; stroke-linecap: square"/>
    <g/>
   </g>
   <g id="line2d_47">
    <defs>
     <path id="m5aca6963bd" d="M 0 1.5 
C 0.397805 1.5 0.77937 1.341951 1.06066 1.06066 
C 1.341951 0.77937 1.5 0.397805 1.5 0 
C 1.5 -0.397805 1.341951 -0.77937 1.06066 -1.06066 
C 0.77937 -1.341951 0.397805 -1.5 0 -1.5 
C -0.397805 -1.5 -0.77937 -1.341951 -1.06066 -1.06066 
C -1.341951 -0.77937 -1.5 -0.397805 -1.5 0 
C -1.5 0.397805 -1.341951 0.77937 -1.06066 1.06066 
C -0.77937 1.341951 -0.397805 1.5 0 1.5 
z
" style="stroke: #6495ed"/>
    </defs>
    <g>
     <use xlink:href="#m5aca6963bd" x="163.554297" y="27.648" style="fill: #6495ed; stroke: #6495ed"/>
     <use xlink:href="#m5aca6963bd" x="163.554297" y="27.648" style="fill: #6495ed; stroke: #6495ed"/>
    </g>
   </g>
   <g id="line2d_48">
    <path d="M 120.726585 298.944 
L 120.726585 298.589365 
L 121.581803 298.589365 
L 121.581803 297.880094 
L 123.183753 297.880094 
L 123.183753 297.525459 
L 126.355808 297.525459 
L 126.355808 296.461553 
L 127.149662 296.461553 
L 127.149662 295.043012 
L 128.643427 295.043012 
L 128.643427 293.979106 
L 129.893363 293.979106 
L 129.893363 293.269835 
L 130.160198 293.269835 
L 130.160198 292.9152 
L 130.292209 292.9152 
L 130.292209 292.205929 
L 130.938718 292.205929 
L 130.938718 291.851294 
L 131.440389 291.851294 
L 131.440389 291.496659 
L 132.168669 291.496659 
L 132.168669 291.142024 
L 132.405295 291.142024 
L 132.405295 290.787388 
L 132.869802 290.787388 
L 132.869802 290.078118 
L 133.097823 290.078118 
L 133.097823 289.368847 
L 133.210806 289.368847 
L 133.210806 288.659576 
L 133.434756 288.659576 
L 133.434756 287.950306 
L 133.656071 287.950306 
L 133.656071 287.595671 
L 134.41079 287.595671 
L 134.41079 286.8864 
L 134.725196 286.8864 
L 134.725196 286.531765 
L 135.034434 286.531765 
L 135.034434 285.467859 
L 135.338671 285.467859 
L 135.338671 285.113224 
L 135.538796 285.113224 
L 135.638065 284.403953 
L 135.736814 284.403953 
L 135.736814 283.694682 
L 136.029987 283.694682 
L 136.126705 281.921506 
L 136.602972 281.921506 
L 136.696795 281.212235 
L 136.88305 281.212235 
L 136.97549 280.148329 
L 137.159019 280.148329 
L 137.159019 277.311247 
L 137.699101 277.311247 
L 137.787626 274.474165 
L 137.875736 274.474165 
L 137.963436 273.764894 
L 138.050729 273.764894 
L 138.050729 272.700988 
L 138.395904 272.700988 
L 138.395904 272.346353 
L 138.818654 272.346353 
L 138.818654 271.637082 
L 138.985129 271.637082 
L 138.985129 271.282447 
L 139.150143 271.282447 
L 139.150143 270.573176 
L 139.475893 270.573176 
L 139.475893 269.509271 
L 139.954178 269.509271 
L 139.954178 269.154635 
L 140.110942 269.154635 
L 140.188837 268.445365 
L 140.49723 268.445365 
L 140.49723 268.090729 
L 141.099251 268.090729 
L 141.099251 267.736094 
L 141.246793 267.736094 
L 141.246793 266.317553 
L 141.465959 266.317553 
L 141.465959 265.608282 
L 141.682602 265.608282 
L 141.754265 264.544376 
L 141.825656 264.544376 
L 141.825656 264.189741 
L 142.038218 264.189741 
L 142.038218 263.480471 
L 142.317949 263.480471 
L 142.317949 262.7712 
L 142.45627 262.7712 
L 142.45627 262.416565 
L 142.865233 262.416565 
L 142.865233 262.061929 
L 142.999601 262.061929 
L 142.999601 261.707294 
L 143.265494 261.707294 
L 143.265494 261.352659 
L 143.52768 261.352659 
L 143.52768 260.998024 
L 143.657415 260.998024 
L 143.657415 260.643388 
L 143.786262 260.643388 
L 143.850356 258.870212 
L 143.914232 258.870212 
L 143.914232 258.515576 
L 144.16759 258.515576 
L 144.16759 257.806306 
L 144.417581 257.806306 
L 144.417581 257.451671 
L 144.602918 257.451671 
L 144.664294 256.7424 
L 144.786447 256.7424 
L 144.786447 256.387765 
L 144.907812 256.387765 
L 144.907812 255.323859 
L 145.148219 255.323859 
L 145.148219 254.259953 
L 145.326529 254.259953 
L 145.326529 253.905318 
L 145.44447 253.905318 
L 145.503164 251.068235 
L 145.736128 251.068235 
L 145.79392 248.231153 
L 145.908976 248.231153 
L 145.908976 247.876518 
L 146.023332 247.876518 
L 146.023332 247.167247 
L 146.193574 247.167247 
L 146.193574 246.812612 
L 146.418192 246.812612 
L 146.418192 246.457976 
L 146.529503 246.457976 
L 146.529503 244.330165 
L 146.750169 244.330165 
L 146.859539 243.620894 
L 146.968277 243.620894 
L 147.022411 239.010635 
L 147.290768 239.010635 
L 147.343984 237.592094 
L 147.449964 237.592094 
L 147.449964 237.237459 
L 147.607824 237.237459 
L 147.712333 235.464282 
L 147.764371 235.464282 
L 147.764371 235.109647 
L 147.971093 235.109647 
L 148.022421 233.691106 
L 148.276979 233.691106 
L 148.276979 233.336471 
L 148.478174 233.336471 
L 148.57797 231.208659 
L 148.627671 231.208659 
L 148.726679 229.080847 
L 148.775988 229.080847 
L 148.775988 226.5984 
L 148.923146 226.5984 
L 149.020615 225.534494 
L 149.117582 225.534494 
L 149.214052 224.825224 
L 149.262102 224.825224 
L 149.31003 224.115953 
L 149.782707 224.115953 
L 149.782707 223.761318 
L 149.922224 223.761318 
L 150.014665 221.278871 
L 150.060715 221.278871 
L 150.152479 220.214965 
L 150.243797 220.214965 
L 150.243797 219.860329 
L 150.379949 219.860329 
L 150.470172 214.5408 
L 150.515122 214.5408 
L 150.604701 213.831529 
L 150.738275 213.831529 
L 150.738275 213.122259 
L 150.870907 213.122259 
L 150.870907 212.767624 
L 151.00261 212.767624 
L 151.089903 211.349082 
L 151.133398 211.349082 
L 151.220087 209.930541 
L 151.263283 209.930541 
L 151.349377 208.512 
L 151.392277 208.512 
L 151.477784 203.547106 
L 151.562904 203.547106 
L 151.647641 200.355388 
L 151.689867 200.355388 
L 151.774035 196.4544 
L 151.815978 196.4544 
L 151.899585 194.326588 
L 151.94125 194.326588 
L 151.94125 191.489506 
L 152.065693 191.489506 
L 152.1482 190.4256 
L 152.271285 190.4256 
L 152.352898 188.652424 
L 152.434157 188.652424 
L 152.515067 187.588518 
L 152.555392 187.588518 
L 152.635783 185.815341 
L 152.675851 185.815341 
L 152.75573 182.623624 
L 152.874916 182.623624 
L 152.874916 180.495812 
L 153.032666 180.495812 
L 153.111048 178.368 
L 153.189104 178.368 
L 153.189104 177.304094 
L 153.344252 177.304094 
L 153.421349 173.048471 
L 153.536404 173.048471 
L 153.536404 171.629929 
L 153.650761 171.629929 
L 153.650761 170.566024 
L 153.802162 170.566024 
L 153.877408 165.601129 
L 153.952355 165.601129 
L 154.027004 162.764047 
L 154.212341 162.764047 
L 154.322673 159.926965 
L 154.432362 159.926965 
L 154.541415 157.089882 
L 154.577625 157.089882 
L 154.613767 153.898165 
L 154.757642 153.898165 
L 154.86483 149.997176 
L 154.971412 149.997176 
L 155.077392 144.677647 
L 155.147716 144.677647 
L 155.252711 143.968376 
L 155.28758 143.968376 
L 155.357123 140.067388 
L 155.495444 140.067388 
L 155.598521 136.521035 
L 155.666927 136.521035 
L 155.666927 135.457129 
L 155.870664 135.457129 
L 155.938089 127.655153 
L 156.005274 127.655153 
L 156.105602 123.399529 
L 156.172192 123.399529 
L 156.271636 120.207812 
L 156.370558 120.207812 
L 156.468962 115.952188 
L 156.501649 115.952188 
L 156.599372 114.533647 
L 156.664239 114.533647 
L 156.728884 112.760471 
L 156.793307 112.760471 
L 156.857511 109.923388 
L 156.921495 109.923388 
L 156.953406 108.504847 
L 157.080512 108.504847 
L 157.175281 106.731671 
L 157.206765 106.731671 
L 157.269574 102.476047 
L 157.332175 102.476047 
L 157.363398 99.638965 
L 157.487772 99.638965 
L 157.580516 97.511153 
L 157.61133 97.511153 
L 157.61133 95.028706 
L 157.734081 95.028706 
L 157.825621 92.900894 
L 157.856036 92.900894 
L 157.916719 91.482353 
L 157.977206 91.482353 
L 158.0375 90.773082 
L 158.0976 90.773082 
L 158.15751 87.936 
L 158.247018 87.936 
L 158.276759 86.517459 
L 158.365703 86.517459 
L 158.454228 84.744282 
L 158.483644 84.744282 
L 158.542339 80.488659 
L 158.688279 80.488659 
L 158.775302 76.587671 
L 158.804221 76.587671 
L 158.890711 73.395953 
L 158.919453 73.395953 
L 159.005416 71.268141 
L 159.062507 71.268141 
L 159.119425 69.140329 
L 159.232748 69.140329 
L 159.317295 65.593976 
L 159.345393 65.593976 
L 159.373449 64.530071 
L 159.457367 64.530071 
L 159.513105 63.111529 
L 159.624087 63.111529 
L 159.734419 58.501271 
L 159.761902 58.501271 
L 159.844108 56.018824 
L 159.898714 56.018824 
L 159.925957 53.891012 
L 160.088594 53.891012 
L 160.115564 50.699294 
L 160.223059 50.699294 
L 160.329943 46.798306 
L 160.409709 46.798306 
L 160.515541 44.315859 
L 160.541906 44.315859 
L 160.620781 41.478776 
L 160.673181 41.478776 
L 160.751508 40.414871 
L 160.82951 40.414871 
L 160.933013 38.641694 
L 160.9588 38.641694 
L 160.9588 37.932424 
L 161.087207 37.932424 
L 161.189305 33.6768 
L 161.316153 33.6768 
L 161.316153 31.194353 
L 161.517348 31.194353 
L 161.542347 30.130447 
L 161.666845 30.130447 
L 161.765853 29.421176 
L 162.108336 29.421176 
L 162.108336 29.066541 
L 162.821881 29.066541 
L 162.821881 28.711906 
L 163.260183 28.711906 
L 163.260183 28.002635 
L 163.554297 28.002635 
L 163.554297 27.648 
L 360.8064 27.648 
L 360.8064 27.648 
" style="fill: none; stroke: #6495ed; stroke-width: 1.5; stroke-linecap: square"/>
   </g>
   <g id="line2d_49">
    <defs>
     <path id="m7d6e68ba12" d="M -0 6 
L 6 -6 
L -6 -6 
z
" style="stroke: #6495ed; stroke-width: 1.5; stroke-linejoin: miter"/>
    </defs>
    <g>
     <use xlink:href="#m7d6e68ba12" x="154.829169" y="151.415718" style="fill-opacity: 0; stroke: #6495ed; stroke-width: 1.5; stroke-linejoin: miter"/>
     <use xlink:href="#m7d6e68ba12" x="163.554297" y="28.002635" style="fill-opacity: 0; stroke: #6495ed; stroke-width: 1.5; stroke-linejoin: miter"/>
     <use xlink:href="#m7d6e68ba12" x="163.554297" y="27.648" style="fill-opacity: 0; stroke: #6495ed; stroke-width: 1.5; stroke-linejoin: miter"/>
     <use xlink:href="#m7d6e68ba12" x="163.554297" y="27.648" style="fill-opacity: 0; stroke: #6495ed; stroke-width: 1.5; stroke-linejoin: miter"/>
     <use xlink:href="#m7d6e68ba12" x="360.8064" y="27.648" style="fill-opacity: 0; stroke: #6495ed; stroke-width: 1.5; stroke-linejoin: miter"/>
    </g>
   </g>
   <g id="line2d_50">
    <path style="fill: none; stroke: #6495ed; stroke-width: 1.5; stroke-linecap: square"/>
    <g/>
   </g>
   <g id="line2d_51">
    <path d="M 360.8064 27.648 
L 380.514816 293.51808 
" style="fill: none; stroke: #ff00ff; stroke-width: 1.5; stroke-linecap: square"/>
    <g>
     <use xlink:href="#m7889618579" x="360.8064" y="27.648" style="fill-opacity: 0; stroke: #ff00ff; stroke-width: 1.5; stroke-linejoin: miter"/>
     <use xlink:href="#m7889618579" x="380.514816" y="293.51808" style="fill-opacity: 0; stroke: #ff00ff; stroke-width: 1.5; stroke-linejoin: miter"/>
    </g>
   </g>
   <g id="line2d_52">
    <path d="M 360.8064 27.648 
L 380.514816 228.40704 
" style="fill: none; stroke: #ff7500; stroke-width: 1.5; stroke-linecap: square"/>
    <g>
     <use xlink:href="#mfc8a5f098f" x="360.8064" y="27.648" style="fill-opacity: 0; stroke: #ff7500; stroke-width: 1.5; stroke-linejoin: bevel"/>
     <use xlink:href="#mfc8a5f098f" x="380.514816" y="228.40704" style="fill-opacity: 0; stroke: #ff7500; stroke-width: 1.5; stroke-linejoin: bevel"/>
    </g>
   </g>
   <g id="line2d_53">
    <path d="M 360.8064 27.648 
L 380.514816 163.296 
" style="fill: none; stroke: #000080; stroke-width: 1.5; stroke-linecap: square"/>
    <g>
     <use xlink:href="#m2773099be8" x="360.8064" y="27.648" style="fill-opacity: 0; stroke: #000080; stroke-width: 1.5"/>
     <use xlink:href="#m2773099be8" x="380.514816" y="163.296" style="fill-opacity: 0; stroke: #000080; stroke-width: 1.5"/>
    </g>
   </g>
   <g id="line2d_54">
    <path d="M 360.8064 27.648 
L 380.514816 98.18496 
" style="fill: none; stroke: #6495ed; stroke-width: 1.5; stroke-linecap: square"/>
    <g>
     <use xlink:href="#m7d6e68ba12" x="360.8064" y="27.648" style="fill-opacity: 0; stroke: #6495ed; stroke-width: 1.5; stroke-linejoin: miter"/>
     <use xlink:href="#m7d6e68ba12" x="380.514816" y="98.18496" style="fill-opacity: 0; stroke: #6495ed; stroke-width: 1.5; stroke-linejoin: miter"/>
    </g>
   </g>
   <g id="line2d_55">
    <path d="M 360.8064 298.944 
L 360.8064 27.648 
" style="fill: none; stroke: #000000; stroke-width: 1.5; stroke-linecap: square"/>
   </g>
   <g id="patch_3">
    <path d="M 57.6 298.944 
L 360.8064 298.944 
" style="fill: none; stroke: #000000; stroke-width: 0.8; stroke-linejoin: miter; stroke-linecap: square"/>
   </g>
   <g id="patch_4">
    <path d="M 57.6 27.648 
L 360.8064 27.648 
" style="fill: none; stroke: #000000; stroke-width: 0.8; stroke-linejoin: miter; stroke-linecap: square"/>
   </g>
   <g id="text_13">
    <!-- ex -->
    <g transform="translate(386.578944 297.381205)scale(0.14 -0.14)">
     <defs>
      <path id="DejaVuSans-78" d="M 3513 3500 
L 2247 1797 
L 3578 0 
L 2900 0 
L 1881 1375 
L 863 0 
L 184 0 
L 1544 1831 
L 300 3500 
L 978 3500 
L 1906 2253 
L 2834 3500 
L 3513 3500 
z
" transform="scale(0.015625)"/>
     </defs>
     <use xlink:href="#DejaVuSans-65"/>
     <use xlink:href="#DejaVuSans-78" x="59.773438"/>
    </g>
   </g>
   <g id="text_14">
    <!-- fmin of d -->
    <g transform="translate(386.578944 232.270165)scale(0.14 -0.14)">
     <use xlink:href="#DejaVuSans-66"/>
     <use xlink:href="#DejaVuSans-6d" x="35.205078"/>
     <use xlink:href="#DejaVuSans-69" x="132.617188"/>
     <use xlink:href="#DejaVuSans-6e" x="160.400391"/>
     <use xlink:href="#DejaVuSans-20" x="223.779297"/>
     <use xlink:href="#DejaVuSans-6f" x="255.566406"/>
     <use xlink:href="#DejaVuSans-66" x="316.748047"/>
     <use xlink:href="#DejaVuSans-20" x="351.953125"/>
     <use xlink:href="#DejaVuSans-64" x="383.740234"/>
    </g>
   </g>
   <g id="text_15">
    <!-- fmin2 of  -->
    <g transform="translate(386.578944 167.159125)scale(0.14 -0.14)">
     <use xlink:href="#DejaVuSans-66"/>
     <use xlink:href="#DejaVuSans-6d" x="35.205078"/>
     <use xlink:href="#DejaVuSans-69" x="132.617188"/>
     <use xlink:href="#DejaVuSans-6e" x="160.400391"/>
     <use xlink:href="#DejaVuSans-32" x="223.779297"/>
     <use xlink:href="#DejaVuSans-20" x="287.402344"/>
     <use xlink:href="#DejaVuSans-6f" x="319.189453"/>
     <use xlink:href="#DejaVuSans-66" x="380.371094"/>
     <use xlink:href="#DejaVuSans-20" x="415.576172"/>
    </g>
   </g>
   <g id="text_16">
    <!-- CMA-ES-20 -->
    <g transform="translate(386.578944 102.048085)scale(0.14 -0.14)">
     <defs>
      <path id="DejaVuSans-43" d="M 4122 4306 
L 4122 3641 
Q 3803 3938 3442 4084 
Q 3081 4231 2675 4231 
Q 1875 4231 1450 3742 
Q 1025 3253 1025 2328 
Q 1025 1406 1450 917 
Q 1875 428 2675 428 
Q 3081 428 3442 575 
Q 3803 722 4122 1019 
L 4122 359 
Q 3791 134 3420 21 
Q 3050 -91 2638 -91 
Q 1578 -91 968 557 
Q 359 1206 359 2328 
Q 359 3453 968 4101 
Q 1578 4750 2638 4750 
Q 3056 4750 3426 4639 
Q 3797 4528 4122 4306 
z
" transform="scale(0.015625)"/>
      <path id="DejaVuSans-4d" d="M 628 4666 
L 1569 4666 
L 2759 1491 
L 3956 4666 
L 4897 4666 
L 4897 0 
L 4281 0 
L 4281 4097 
L 3078 897 
L 2444 897 
L 1241 4097 
L 1241 0 
L 628 0 
L 628 4666 
z
" transform="scale(0.015625)"/>
      <path id="DejaVuSans-41" d="M 2188 4044 
L 1331 1722 
L 3047 1722 
L 2188 4044 
z
M 1831 4666 
L 2547 4666 
L 4325 0 
L 3669 0 
L 3244 1197 
L 1141 1197 
L 716 0 
L 50 0 
L 1831 4666 
z
" transform="scale(0.015625)"/>
      <path id="DejaVuSans-45" d="M 628 4666 
L 3578 4666 
L 3578 4134 
L 1259 4134 
L 1259 2753 
L 3481 2753 
L 3481 2222 
L 1259 2222 
L 1259 531 
L 3634 531 
L 3634 0 
L 628 0 
L 628 4666 
z
" transform="scale(0.015625)"/>
      <path id="DejaVuSans-53" d="M 3425 4513 
L 3425 3897 
Q 3066 4069 2747 4153 
Q 2428 4238 2131 4238 
Q 1616 4238 1336 4038 
Q 1056 3838 1056 3469 
Q 1056 3159 1242 3001 
Q 1428 2844 1947 2747 
L 2328 2669 
Q 3034 2534 3370 2195 
Q 3706 1856 3706 1288 
Q 3706 609 3251 259 
Q 2797 -91 1919 -91 
Q 1588 -91 1214 -16 
Q 841 59 441 206 
L 441 856 
Q 825 641 1194 531 
Q 1563 422 1919 422 
Q 2459 422 2753 634 
Q 3047 847 3047 1241 
Q 3047 1584 2836 1778 
Q 2625 1972 2144 2069 
L 1759 2144 
Q 1053 2284 737 2584 
Q 422 2884 422 3419 
Q 422 4038 858 4394 
Q 1294 4750 2059 4750 
Q 2388 4750 2728 4690 
Q 3069 4631 3425 4513 
z
" transform="scale(0.015625)"/>
     </defs>
     <use xlink:href="#DejaVuSans-43"/>
     <use xlink:href="#DejaVuSans-4d" x="69.824219"/>
     <use xlink:href="#DejaVuSans-41" x="156.103516"/>
     <use xlink:href="#DejaVuSans-2d" x="222.261719"/>
     <use xlink:href="#DejaVuSans-45" x="258.345703"/>
     <use xlink:href="#DejaVuSans-53" x="321.529297"/>
     <use xlink:href="#DejaVuSans-2d" x="385.005859"/>
     <use xlink:href="#DejaVuSans-32" x="421.089844"/>
     <use xlink:href="#DejaVuSans-30" x="484.712891"/>
    </g>
   </g>
   <g id="text_17">
    <!-- best 2009 -->
    <g transform="translate(386.578944 36.937045)scale(0.14 -0.14)">
     <defs>
      <path id="DejaVuSans-62" d="M 3116 1747 
Q 3116 2381 2855 2742 
Q 2594 3103 2138 3103 
Q 1681 3103 1420 2742 
Q 1159 2381 1159 1747 
Q 1159 1113 1420 752 
Q 1681 391 2138 391 
Q 2594 391 2855 752 
Q 3116 1113 3116 1747 
z
M 1159 2969 
Q 1341 3281 1617 3432 
Q 1894 3584 2278 3584 
Q 2916 3584 3314 3078 
Q 3713 2572 3713 1747 
Q 3713 922 3314 415 
Q 2916 -91 2278 -91 
Q 1894 -91 1617 61 
Q 1341 213 1159 525 
L 1159 0 
L 581 0 
L 581 4863 
L 1159 4863 
L 1159 2969 
z
" transform="scale(0.015625)"/>
      <path id="DejaVuSans-39" d="M 703 97 
L 703 672 
Q 941 559 1184 500 
Q 1428 441 1663 441 
Q 2288 441 2617 861 
Q 2947 1281 2994 2138 
Q 2813 1869 2534 1725 
Q 2256 1581 1919 1581 
Q 1219 1581 811 2004 
Q 403 2428 403 3163 
Q 403 3881 828 4315 
Q 1253 4750 1959 4750 
Q 2769 4750 3195 4129 
Q 3622 3509 3622 2328 
Q 3622 1225 3098 567 
Q 2575 -91 1691 -91 
Q 1453 -91 1209 -44 
Q 966 3 703 97 
z
M 1959 2075 
Q 2384 2075 2632 2365 
Q 2881 2656 2881 3163 
Q 2881 3666 2632 3958 
Q 2384 4250 1959 4250 
Q 1534 4250 1286 3958 
Q 1038 3666 1038 3163 
Q 1038 2656 1286 2365 
Q 1534 2075 1959 2075 
z
" transform="scale(0.015625)"/>
     </defs>
     <use xlink:href="#DejaVuSans-62"/>
     <use xlink:href="#DejaVuSans-65" x="63.476562"/>
     <use xlink:href="#DejaVuSans-73" x="125"/>
     <use xlink:href="#DejaVuSans-74" x="177.099609"/>
     <use xlink:href="#DejaVuSans-20" x="216.308594"/>
     <use xlink:href="#DejaVuSans-32" x="248.095703"/>
     <use xlink:href="#DejaVuSans-30" x="311.71875"/>
     <use xlink:href="#DejaVuSans-30" x="375.341797"/>
     <use xlink:href="#DejaVuSans-39" x="438.964844"/>
    </g>
   </g>
   <g id="text_18">
    <!-- bbob f10, 3-D -->
    <g transform="translate(60.632064 38.111366)scale(0.102 -0.102)">
     <defs>
      <path id="DejaVuSans-33" d="M 2597 2516 
Q 3050 2419 3304 2112 
Q 3559 1806 3559 1356 
Q 3559 666 3084 287 
Q 2609 -91 1734 -91 
Q 1441 -91 1130 -33 
Q 819 25 488 141 
L 488 750 
Q 750 597 1062 519 
Q 1375 441 1716 441 
Q 2309 441 2620 675 
Q 2931 909 2931 1356 
Q 2931 1769 2642 2001 
Q 2353 2234 1838 2234 
L 1294 2234 
L 1294 2753 
L 1863 2753 
Q 2328 2753 2575 2939 
Q 2822 3125 2822 3475 
Q 2822 3834 2567 4026 
Q 2313 4219 1838 4219 
Q 1578 4219 1281 4162 
Q 984 4106 628 3988 
L 628 4550 
Q 988 4650 1302 4700 
Q 1616 4750 1894 4750 
Q 2613 4750 3031 4423 
Q 3450 4097 3450 3541 
Q 3450 3153 3228 2886 
Q 3006 2619 2597 2516 
z
" transform="scale(0.015625)"/>
      <path id="DejaVuSans-44" d="M 1259 4147 
L 1259 519 
L 2022 519 
Q 2988 519 3436 956 
Q 3884 1394 3884 2338 
Q 3884 3275 3436 3711 
Q 2988 4147 2022 4147 
L 1259 4147 
z
M 628 4666 
L 1925 4666 
Q 3281 4666 3915 4102 
Q 4550 3538 4550 2338 
Q 4550 1131 3912 565 
Q 3275 0 1925 0 
L 628 0 
L 628 4666 
z
" transform="scale(0.015625)"/>
     </defs>
     <use xlink:href="#DejaVuSans-62"/>
     <use xlink:href="#DejaVuSans-62" x="63.476562"/>
     <use xlink:href="#DejaVuSans-6f" x="126.953125"/>
     <use xlink:href="#DejaVuSans-62" x="188.134766"/>
     <use xlink:href="#DejaVuSans-20" x="251.611328"/>
     <use xlink:href="#DejaVuSans-66" x="283.398438"/>
     <use xlink:href="#DejaVuSans-31" x="318.603516"/>
     <use xlink:href="#DejaVuSans-30" x="382.226562"/>
     <use xlink:href="#DejaVuSans-2c" x="445.849609"/>
     <use xlink:href="#DejaVuSans-20" x="477.636719"/>
     <use xlink:href="#DejaVuSans-33" x="509.423828"/>
     <use xlink:href="#DejaVuSans-2d" x="573.046875"/>
     <use xlink:href="#DejaVuSans-44" x="609.130859"/>
    </g>
    <!-- 51 targets: 100..1e-08 -->
    <g transform="translate(60.632064 49.533135)scale(0.102 -0.102)">
     <defs>
      <path id="DejaVuSans-35" d="M 691 4666 
L 3169 4666 
L 3169 4134 
L 1269 4134 
L 1269 2991 
Q 1406 3038 1543 3061 
Q 1681 3084 1819 3084 
Q 2600 3084 3056 2656 
Q 3513 2228 3513 1497 
Q 3513 744 3044 326 
Q 2575 -91 1722 -91 
Q 1428 -91 1123 -41 
Q 819 9 494 109 
L 494 744 
Q 775 591 1075 516 
Q 1375 441 1709 441 
Q 2250 441 2565 725 
Q 2881 1009 2881 1497 
Q 2881 1984 2565 2268 
Q 2250 2553 1709 2553 
Q 1456 2553 1204 2497 
Q 953 2441 691 2322 
L 691 4666 
z
" transform="scale(0.015625)"/>
      <path id="DejaVuSans-3a" d="M 750 794 
L 1409 794 
L 1409 0 
L 750 0 
L 750 794 
z
M 750 3309 
L 1409 3309 
L 1409 2516 
L 750 2516 
L 750 3309 
z
" transform="scale(0.015625)"/>
     </defs>
     <use xlink:href="#DejaVuSans-35"/>
     <use xlink:href="#DejaVuSans-31" x="63.623047"/>
     <use xlink:href="#DejaVuSans-20" x="127.246094"/>
     <use xlink:href="#DejaVuSans-74" x="159.033203"/>
     <use xlink:href="#DejaVuSans-61" x="198.242188"/>
     <use xlink:href="#DejaVuSans-72" x="259.521484"/>
     <use xlink:href="#DejaVuSans-67" x="298.884766"/>
     <use xlink:href="#DejaVuSans-65" x="362.361328"/>
     <use xlink:href="#DejaVuSans-74" x="423.884766"/>
     <use xlink:href="#DejaVuSans-73" x="463.09375"/>
     <use xlink:href="#DejaVuSans-3a" x="515.193359"/>
     <use xlink:href="#DejaVuSans-20" x="548.884766"/>
     <use xlink:href="#DejaVuSans-31" x="580.671875"/>
     <use xlink:href="#DejaVuSans-30" x="644.294922"/>
     <use xlink:href="#DejaVuSans-30" x="707.917969"/>
     <use xlink:href="#DejaVuSans-2e" x="771.541016"/>
     <use xlink:href="#DejaVuSans-2e" x="803.328125"/>
     <use xlink:href="#DejaVuSans-31" x="835.115234"/>
     <use xlink:href="#DejaVuSans-65" x="898.738281"/>
     <use xlink:href="#DejaVuSans-2d" x="960.261719"/>
     <use xlink:href="#DejaVuSans-30" x="996.345703"/>
     <use xlink:href="#DejaVuSans-38" x="1059.96875"/>
    </g>
    <!-- 25, 5, 15 instances -->
    <g transform="translate(60.632064 60.954904)scale(0.102 -0.102)">
     <use xlink:href="#DejaVuSans-32"/>
     <use xlink:href="#DejaVuSans-35" x="63.623047"/>
     <use xlink:href="#DejaVuSans-2c" x="127.246094"/>
     <use xlink:href="#DejaVuSans-20" x="159.033203"/>
     <use xlink:href="#DejaVuSans-35" x="190.820312"/>
     <use xlink:href="#DejaVuSans-2c" x="254.443359"/>
     <use xlink:href="#DejaVuSans-20" x="286.230469"/>
     <use xlink:href="#DejaVuSans-31" x="318.017578"/>
     <use xlink:href="#DejaVuSans-35" x="381.640625"/>
     <use xlink:href="#DejaVuSans-20" x="445.263672"/>
     <use xlink:href="#DejaVuSans-69" x="477.050781"/>
     <use xlink:href="#DejaVuSans-6e" x="504.833984"/>
     <use xlink:href="#DejaVuSans-73" x="568.212891"/>
     <use xlink:href="#DejaVuSans-74" x="620.3125"/>
     <use xlink:href="#DejaVuSans-61" x="659.521484"/>
     <use xlink:href="#DejaVuSans-6e" x="720.800781"/>
     <use xlink:href="#DejaVuSans-63" x="784.179688"/>
     <use xlink:href="#DejaVuSans-65" x="839.160156"/>
     <use xlink:href="#DejaVuSans-73" x="900.683594"/>
    </g>
   </g>
   <g id="text_19">
    <!-- v2.6 -->
    <g style="fill: #808080" transform="translate(198.292262 294.151352)scale(0.1 -0.1)">
     <use xlink:href="#DejaVuSans-76"/>
     <use xlink:href="#DejaVuSans-32" x="59.179688"/>
     <use xlink:href="#DejaVuSans-2e" x="122.802734"/>
     <use xlink:href="#DejaVuSans-36" x="154.589844"/>
    </g>
   </g>
   <g id="text_20">
    <!-- 10 Ellipsoid -->
    <g transform="translate(151.843825 21.648)scale(0.2 -0.2)">
     <use xlink:href="#DejaVuSans-31"/>
     <use xlink:href="#DejaVuSans-30" x="63.623047"/>
     <use xlink:href="#DejaVuSans-20" x="127.246094"/>
     <use xlink:href="#DejaVuSans-45" x="159.033203"/>
     <use xlink:href="#DejaVuSans-6c" x="222.216797"/>
     <use xlink:href="#DejaVuSans-6c" x="250"/>
     <use xlink:href="#DejaVuSans-69" x="277.783203"/>
     <use xlink:href="#DejaVuSans-70" x="305.566406"/>
     <use xlink:href="#DejaVuSans-73" x="369.042969"/>
     <use xlink:href="#DejaVuSans-6f" x="421.142578"/>
     <use xlink:href="#DejaVuSans-69" x="482.324219"/>
     <use xlink:href="#DejaVuSans-64" x="510.107422"/>
    </g>
   </g>
  </g>
 </g>
 <defs>
  <clipPath id="p947c8b9555">
   <rect x="57.6" y="27.648" width="303.2064" height="271.296"/>
  </clipPath>
 </defs>
</svg>
