<?xml version="1.0" encoding="utf-8" standalone="no"?>
<!DOCTYPE svg PUBLIC "-//W3C//DTD SVG 1.1//EN"
  "http://www.w3.org/Graphics/SVG/1.1/DTD/svg11.dtd">
<svg xmlns:xlink="http://www.w3.org/1999/xlink" width="460.8pt" height="345.6pt" viewBox="0 0 460.8 345.6" xmlns="http://www.w3.org/2000/svg" version="1.1">
 <metadata>
  <rdf:RDF xmlns:dc="http://purl.org/dc/elements/1.1/" xmlns:cc="http://creativecommons.org/ns#" xmlns:rdf="http://www.w3.org/1999/02/22-rdf-syntax-ns#">
   <cc:Work>
    <dc:type rdf:resource="http://purl.org/dc/dcmitype/StillImage"/>
    <dc:date>2022-03-28T13:42:04.395908</dc:date>
    <dc:format>image/svg+xml</dc:format>
    <dc:creator>
     <cc:Agent>
      <dc:title>Matplotlib v3.5.1, https://matplotlib.org/</dc:title>
     </cc:Agent>
    </dc:creator>
   </cc:Work>
  </rdf:RDF>
 </metadata>
 <defs>
  <style type="text/css">*{stroke-linejoin: round; stroke-linecap: butt}</style>
 </defs>
 <g id="figure_1">
  <g id="patch_1">
   <path d="M 0 345.6 
L 460.8 345.6 
L 460.8 0 
L 0 0 
z
" style="fill: #ffffff"/>
  </g>
  <g id="axes_1">
   <g id="patch_2">
    <path d="M 57.6 298.944 
L 360.8064 298.944 
L 360.8064 27.648 
L 57.6 27.648 
z
" style="fill: #ffffff"/>
   </g>
   <g id="line2d_1">
    <path d="M 119.944983 298.944 
L 119.944983 293.624471 
L 121.201758 293.624471 
L 121.201758 282.985412 
L 124.588805 282.985412 
L 124.588805 277.665882 
L 129.458394 277.665882 
L 129.458394 272.346353 
L 131.747272 272.346353 
L 131.747272 267.026824 
L 133.01833 267.026824 
L 133.01833 261.707294 
L 135.388902 261.707294 
L 135.388902 256.387765 
L 137.466966 256.387765 
L 137.466966 251.068235 
L 139.867398 251.068235 
L 139.867398 245.748706 
L 142.164612 245.748706 
L 142.164612 240.429176 
L 143.696162 240.429176 
L 143.696162 235.109647 
L 145.255407 235.109647 
L 145.255407 229.790118 
L 146.579379 229.790118 
L 146.579379 224.470588 
L 147.502732 224.470588 
L 147.502732 219.151059 
L 148.276979 219.151059 
L 148.276979 213.831529 
L 148.844805 213.831529 
L 148.844805 208.512 
L 149.2669 208.512 
L 149.2669 203.192471 
L 149.764026 203.192471 
L 149.764026 197.872941 
L 150.138743 197.872941 
L 150.138743 192.553412 
L 150.425115 192.553412 
L 150.425115 187.233882 
L 150.998235 187.233882 
L 150.998235 181.914353 
L 151.426526 181.914353 
L 151.426526 176.594824 
L 151.832729 176.594824 
L 151.832729 171.275294 
L 152.25492 171.275294 
L 152.25492 165.955765 
L 152.703847 165.955765 
L 152.703847 160.636235 
L 153.118868 160.636235 
L 153.118868 155.316706 
L 153.559331 155.316706 
L 153.559331 149.997176 
L 155.066821 149.997176 
L 155.066821 144.677647 
L 155.433326 144.677647 
L 155.433326 139.358118 
L 157.023421 139.358118 
L 157.023421 134.038588 
L 157.316545 134.038588 
L 157.316545 128.719059 
L 157.715719 128.719059 
L 157.715719 123.399529 
L 164.239791 123.399529 
L 164.239791 118.08 
L 168.430973 118.08 
L 168.430973 112.760471 
L 168.637696 112.760471 
L 168.637696 107.440941 
L 168.801454 107.440941 
L 168.801454 102.121412 
L 170.644345 102.121412 
L 170.644345 96.801882 
L 172.578697 96.801882 
L 172.578697 91.482353 
L 173.549438 91.482353 
L 173.549438 86.162824 
L 173.855707 86.162824 
L 173.855707 80.843294 
L 174.126381 80.843294 
L 174.126381 75.523765 
L 174.370492 75.523765 
L 174.370492 70.204235 
L 174.615217 70.204235 
L 174.615217 64.884706 
L 174.860492 64.884706 
L 174.860492 59.565176 
L 175.077078 59.565176 
L 175.077078 54.245647 
L 175.316441 54.245647 
L 175.316441 48.926118 
L 175.506477 48.926118 
L 175.506477 43.606588 
L 175.715792 43.606588 
L 175.715792 38.287059 
L 175.947214 38.287059 
L 175.947214 32.967529 
L 176.196469 32.967529 
L 176.196469 27.648 
L 360.8064 27.648 
" style="fill: none; stroke: #f5deb3; stroke-width: 4; stroke-linecap: square"/>
   </g>
   <g id="line2d_2">
    <defs>
     <path id="mc30b3fc973" d="M -0 7.778175 
L 7.778175 0 
L 0 -7.778175 
L -7.778175 -0 
z
" style="stroke: #f5deb3; stroke-width: 1.5; stroke-linejoin: miter"/>
    </defs>
    <g>
     <use xlink:href="#mc30b3fc973" x="155.433326" y="139.358118" style="fill: #f5deb3; stroke: #f5deb3; stroke-width: 1.5; stroke-linejoin: miter"/>
     <use xlink:href="#mc30b3fc973" x="176.196469" y="32.967529" style="fill: #f5deb3; stroke: #f5deb3; stroke-width: 1.5; stroke-linejoin: miter"/>
     <use xlink:href="#mc30b3fc973" x="176.196469" y="27.648" style="fill: #f5deb3; stroke: #f5deb3; stroke-width: 1.5; stroke-linejoin: miter"/>
     <use xlink:href="#mc30b3fc973" x="176.196469" y="27.648" style="fill: #f5deb3; stroke: #f5deb3; stroke-width: 1.5; stroke-linejoin: miter"/>
     <use xlink:href="#mc30b3fc973" x="360.8064" y="27.648" style="fill: #f5deb3; stroke: #f5deb3; stroke-width: 1.5; stroke-linejoin: miter"/>
    </g>
   </g>
   <g id="line2d_3">
    <path style="fill: none; stroke: #f5deb3; stroke-width: 4; stroke-linecap: square"/>
    <g/>
   </g>
   <g id="line2d_4">
    <path d="M 360.8064 27.648 
L 380.514816 33.07392 
" style="fill: none; stroke: #f5deb3; stroke-width: 4; stroke-linecap: square"/>
    <g>
     <use xlink:href="#mc30b3fc973" x="360.8064" y="27.648" style="fill: #f5deb3; stroke: #f5deb3; stroke-width: 1.5; stroke-linejoin: miter"/>
     <use xlink:href="#mc30b3fc973" x="380.514816" y="33.07392" style="fill: #f5deb3; stroke: #f5deb3; stroke-width: 1.5; stroke-linejoin: miter"/>
    </g>
   </g>
   <g id="matplotlib.axis_1">
    <g id="xtick_1">
     <g id="line2d_5">
      <path d="M 57.6 298.944 
L 57.6 27.648 
" clip-path="url(#p8d99dc10a7)" style="fill: none; stroke: #b0b0b0; stroke-width: 0.8; stroke-linecap: square"/>
     </g>
     <g id="line2d_6">
      <defs>
       <path id="ma3474d6d70" d="M 0 0 
L 0 3.5 
" style="stroke: #000000; stroke-width: 0.8"/>
      </defs>
      <g>
       <use xlink:href="#ma3474d6d70" x="57.6" y="298.944" style="stroke: #000000; stroke-width: 0.8"/>
      </g>
     </g>
     <g id="text_1">
      <!-- 0 -->
      <g transform="translate(52.191875 318.861344)scale(0.17 -0.17)">
       <defs>
        <path id="DejaVuSans-30" d="M 2034 4250 
Q 1547 4250 1301 3770 
Q 1056 3291 1056 2328 
Q 1056 1369 1301 889 
Q 1547 409 2034 409 
Q 2525 409 2770 889 
Q 3016 1369 3016 2328 
Q 3016 3291 2770 3770 
Q 2525 4250 2034 4250 
z
M 2034 4750 
Q 2819 4750 3233 4129 
Q 3647 3509 3647 2328 
Q 3647 1150 3233 529 
Q 2819 -91 2034 -91 
Q 1250 -91 836 529 
Q 422 1150 422 2328 
Q 422 3509 836 4129 
Q 1250 4750 2034 4750 
z
" transform="scale(0.015625)"/>
       </defs>
       <use xlink:href="#DejaVuSans-30"/>
      </g>
     </g>
    </g>
    <g id="xtick_2">
     <g id="line2d_7">
      <path d="M 144.2304 298.944 
L 144.2304 27.648 
" clip-path="url(#p8d99dc10a7)" style="fill: none; stroke: #b0b0b0; stroke-width: 0.8; stroke-linecap: square"/>
     </g>
     <g id="line2d_8">
      <g>
       <use xlink:href="#ma3474d6d70" x="144.2304" y="298.944" style="stroke: #000000; stroke-width: 0.8"/>
      </g>
     </g>
     <g id="text_2">
      <!-- 2 -->
      <g transform="translate(138.822275 318.861344)scale(0.17 -0.17)">
       <defs>
        <path id="DejaVuSans-32" d="M 1228 531 
L 3431 531 
L 3431 0 
L 469 0 
L 469 531 
Q 828 903 1448 1529 
Q 2069 2156 2228 2338 
Q 2531 2678 2651 2914 
Q 2772 3150 2772 3378 
Q 2772 3750 2511 3984 
Q 2250 4219 1831 4219 
Q 1534 4219 1204 4116 
Q 875 4013 500 3803 
L 500 4441 
Q 881 4594 1212 4672 
Q 1544 4750 1819 4750 
Q 2544 4750 2975 4387 
Q 3406 4025 3406 3419 
Q 3406 3131 3298 2873 
Q 3191 2616 2906 2266 
Q 2828 2175 2409 1742 
Q 1991 1309 1228 531 
z
" transform="scale(0.015625)"/>
       </defs>
       <use xlink:href="#DejaVuSans-32"/>
      </g>
     </g>
    </g>
    <g id="xtick_3">
     <g id="line2d_9">
      <path d="M 230.8608 298.944 
L 230.8608 27.648 
" clip-path="url(#p8d99dc10a7)" style="fill: none; stroke: #b0b0b0; stroke-width: 0.8; stroke-linecap: square"/>
     </g>
     <g id="line2d_10">
      <g>
       <use xlink:href="#ma3474d6d70" x="230.8608" y="298.944" style="stroke: #000000; stroke-width: 0.8"/>
      </g>
     </g>
     <g id="text_3">
      <!-- 4 -->
      <g transform="translate(225.452675 318.861344)scale(0.17 -0.17)">
       <defs>
        <path id="DejaVuSans-34" d="M 2419 4116 
L 825 1625 
L 2419 1625 
L 2419 4116 
z
M 2253 4666 
L 3047 4666 
L 3047 1625 
L 3713 1625 
L 3713 1100 
L 3047 1100 
L 3047 0 
L 2419 0 
L 2419 1100 
L 313 1100 
L 313 1709 
L 2253 4666 
z
" transform="scale(0.015625)"/>
       </defs>
       <use xlink:href="#DejaVuSans-34"/>
      </g>
     </g>
    </g>
    <g id="xtick_4">
     <g id="line2d_11">
      <path d="M 317.4912 298.944 
L 317.4912 27.648 
" clip-path="url(#p8d99dc10a7)" style="fill: none; stroke: #b0b0b0; stroke-width: 0.8; stroke-linecap: square"/>
     </g>
     <g id="line2d_12">
      <g>
       <use xlink:href="#ma3474d6d70" x="317.4912" y="298.944" style="stroke: #000000; stroke-width: 0.8"/>
      </g>
     </g>
     <g id="text_4">
      <!-- 6 -->
      <g transform="translate(312.083075 318.861344)scale(0.17 -0.17)">
       <defs>
        <path id="DejaVuSans-36" d="M 2113 2584 
Q 1688 2584 1439 2293 
Q 1191 2003 1191 1497 
Q 1191 994 1439 701 
Q 1688 409 2113 409 
Q 2538 409 2786 701 
Q 3034 994 3034 1497 
Q 3034 2003 2786 2293 
Q 2538 2584 2113 2584 
z
M 3366 4563 
L 3366 3988 
Q 3128 4100 2886 4159 
Q 2644 4219 2406 4219 
Q 1781 4219 1451 3797 
Q 1122 3375 1075 2522 
Q 1259 2794 1537 2939 
Q 1816 3084 2150 3084 
Q 2853 3084 3261 2657 
Q 3669 2231 3669 1497 
Q 3669 778 3244 343 
Q 2819 -91 2113 -91 
Q 1303 -91 875 529 
Q 447 1150 447 2328 
Q 447 3434 972 4092 
Q 1497 4750 2381 4750 
Q 2619 4750 2861 4703 
Q 3103 4656 3366 4563 
z
" transform="scale(0.015625)"/>
       </defs>
       <use xlink:href="#DejaVuSans-36"/>
      </g>
     </g>
    </g>
    <g id="xtick_5">
     <g id="line2d_13">
      <path d="M 100.9152 298.944 
L 100.9152 27.648 
" clip-path="url(#p8d99dc10a7)" style="fill: none; stroke: #b0b0b0; stroke-width: 0.8; stroke-linecap: square"/>
     </g>
     <g id="line2d_14">
      <defs>
       <path id="mc62995af4f" d="M 0 0 
L 0 2 
" style="stroke: #000000; stroke-width: 0.6"/>
      </defs>
      <g>
       <use xlink:href="#mc62995af4f" x="100.9152" y="298.944" style="stroke: #000000; stroke-width: 0.6"/>
      </g>
     </g>
    </g>
    <g id="xtick_6">
     <g id="line2d_15">
      <path d="M 187.5456 298.944 
L 187.5456 27.648 
" clip-path="url(#p8d99dc10a7)" style="fill: none; stroke: #b0b0b0; stroke-width: 0.8; stroke-linecap: square"/>
     </g>
     <g id="line2d_16">
      <g>
       <use xlink:href="#mc62995af4f" x="187.5456" y="298.944" style="stroke: #000000; stroke-width: 0.6"/>
      </g>
     </g>
    </g>
    <g id="xtick_7">
     <g id="line2d_17">
      <path d="M 274.176 298.944 
L 274.176 27.648 
" clip-path="url(#p8d99dc10a7)" style="fill: none; stroke: #b0b0b0; stroke-width: 0.8; stroke-linecap: square"/>
     </g>
     <g id="line2d_18">
      <g>
       <use xlink:href="#mc62995af4f" x="274.176" y="298.944" style="stroke: #000000; stroke-width: 0.6"/>
      </g>
     </g>
    </g>
    <g id="xtick_8">
     <g id="line2d_19">
      <path d="M 360.8064 298.944 
L 360.8064 27.648 
" clip-path="url(#p8d99dc10a7)" style="fill: none; stroke: #b0b0b0; stroke-width: 0.8; stroke-linecap: square"/>
     </g>
     <g id="line2d_20">
      <g>
       <use xlink:href="#mc62995af4f" x="360.8064" y="298.944" style="stroke: #000000; stroke-width: 0.6"/>
      </g>
     </g>
    </g>
    <g id="text_5">
     <!-- log10(# f-evals / dimension) -->
     <g transform="translate(88.823278 339.314156)scale(0.17 -0.17)">
      <defs>
       <path id="DejaVuSans-6c" d="M 603 4863 
L 1178 4863 
L 1178 0 
L 603 0 
L 603 4863 
z
" transform="scale(0.015625)"/>
       <path id="DejaVuSans-6f" d="M 1959 3097 
Q 1497 3097 1228 2736 
Q 959 2375 959 1747 
Q 959 1119 1226 758 
Q 1494 397 1959 397 
Q 2419 397 2687 759 
Q 2956 1122 2956 1747 
Q 2956 2369 2687 2733 
Q 2419 3097 1959 3097 
z
M 1959 3584 
Q 2709 3584 3137 3096 
Q 3566 2609 3566 1747 
Q 3566 888 3137 398 
Q 2709 -91 1959 -91 
Q 1206 -91 779 398 
Q 353 888 353 1747 
Q 353 2609 779 3096 
Q 1206 3584 1959 3584 
z
" transform="scale(0.015625)"/>
       <path id="DejaVuSans-67" d="M 2906 1791 
Q 2906 2416 2648 2759 
Q 2391 3103 1925 3103 
Q 1463 3103 1205 2759 
Q 947 2416 947 1791 
Q 947 1169 1205 825 
Q 1463 481 1925 481 
Q 2391 481 2648 825 
Q 2906 1169 2906 1791 
z
M 3481 434 
Q 3481 -459 3084 -895 
Q 2688 -1331 1869 -1331 
Q 1566 -1331 1297 -1286 
Q 1028 -1241 775 -1147 
L 775 -588 
Q 1028 -725 1275 -790 
Q 1522 -856 1778 -856 
Q 2344 -856 2625 -561 
Q 2906 -266 2906 331 
L 2906 616 
Q 2728 306 2450 153 
Q 2172 0 1784 0 
Q 1141 0 747 490 
Q 353 981 353 1791 
Q 353 2603 747 3093 
Q 1141 3584 1784 3584 
Q 2172 3584 2450 3431 
Q 2728 3278 2906 2969 
L 2906 3500 
L 3481 3500 
L 3481 434 
z
" transform="scale(0.015625)"/>
       <path id="DejaVuSans-31" d="M 794 531 
L 1825 531 
L 1825 4091 
L 703 3866 
L 703 4441 
L 1819 4666 
L 2450 4666 
L 2450 531 
L 3481 531 
L 3481 0 
L 794 0 
L 794 531 
z
" transform="scale(0.015625)"/>
       <path id="DejaVuSans-28" d="M 1984 4856 
Q 1566 4138 1362 3434 
Q 1159 2731 1159 2009 
Q 1159 1288 1364 580 
Q 1569 -128 1984 -844 
L 1484 -844 
Q 1016 -109 783 600 
Q 550 1309 550 2009 
Q 550 2706 781 3412 
Q 1013 4119 1484 4856 
L 1984 4856 
z
" transform="scale(0.015625)"/>
       <path id="DejaVuSans-23" d="M 3272 2816 
L 2363 2816 
L 2100 1772 
L 3016 1772 
L 3272 2816 
z
M 2803 4594 
L 2478 3297 
L 3391 3297 
L 3719 4594 
L 4219 4594 
L 3897 3297 
L 4872 3297 
L 4872 2816 
L 3775 2816 
L 3519 1772 
L 4513 1772 
L 4513 1294 
L 3397 1294 
L 3072 0 
L 2572 0 
L 2894 1294 
L 1978 1294 
L 1656 0 
L 1153 0 
L 1478 1294 
L 494 1294 
L 494 1772 
L 1594 1772 
L 1856 2816 
L 850 2816 
L 850 3297 
L 1978 3297 
L 2297 4594 
L 2803 4594 
z
" transform="scale(0.015625)"/>
       <path id="DejaVuSans-20" transform="scale(0.015625)"/>
       <path id="DejaVuSans-66" d="M 2375 4863 
L 2375 4384 
L 1825 4384 
Q 1516 4384 1395 4259 
Q 1275 4134 1275 3809 
L 1275 3500 
L 2222 3500 
L 2222 3053 
L 1275 3053 
L 1275 0 
L 697 0 
L 697 3053 
L 147 3053 
L 147 3500 
L 697 3500 
L 697 3744 
Q 697 4328 969 4595 
Q 1241 4863 1831 4863 
L 2375 4863 
z
" transform="scale(0.015625)"/>
       <path id="DejaVuSans-2d" d="M 313 2009 
L 1997 2009 
L 1997 1497 
L 313 1497 
L 313 2009 
z
" transform="scale(0.015625)"/>
       <path id="DejaVuSans-65" d="M 3597 1894 
L 3597 1613 
L 953 1613 
Q 991 1019 1311 708 
Q 1631 397 2203 397 
Q 2534 397 2845 478 
Q 3156 559 3463 722 
L 3463 178 
Q 3153 47 2828 -22 
Q 2503 -91 2169 -91 
Q 1331 -91 842 396 
Q 353 884 353 1716 
Q 353 2575 817 3079 
Q 1281 3584 2069 3584 
Q 2775 3584 3186 3129 
Q 3597 2675 3597 1894 
z
M 3022 2063 
Q 3016 2534 2758 2815 
Q 2500 3097 2075 3097 
Q 1594 3097 1305 2825 
Q 1016 2553 972 2059 
L 3022 2063 
z
" transform="scale(0.015625)"/>
       <path id="DejaVuSans-76" d="M 191 3500 
L 800 3500 
L 1894 563 
L 2988 3500 
L 3597 3500 
L 2284 0 
L 1503 0 
L 191 3500 
z
" transform="scale(0.015625)"/>
       <path id="DejaVuSans-61" d="M 2194 1759 
Q 1497 1759 1228 1600 
Q 959 1441 959 1056 
Q 959 750 1161 570 
Q 1363 391 1709 391 
Q 2188 391 2477 730 
Q 2766 1069 2766 1631 
L 2766 1759 
L 2194 1759 
z
M 3341 1997 
L 3341 0 
L 2766 0 
L 2766 531 
Q 2569 213 2275 61 
Q 1981 -91 1556 -91 
Q 1019 -91 701 211 
Q 384 513 384 1019 
Q 384 1609 779 1909 
Q 1175 2209 1959 2209 
L 2766 2209 
L 2766 2266 
Q 2766 2663 2505 2880 
Q 2244 3097 1772 3097 
Q 1472 3097 1187 3025 
Q 903 2953 641 2809 
L 641 3341 
Q 956 3463 1253 3523 
Q 1550 3584 1831 3584 
Q 2591 3584 2966 3190 
Q 3341 2797 3341 1997 
z
" transform="scale(0.015625)"/>
       <path id="DejaVuSans-73" d="M 2834 3397 
L 2834 2853 
Q 2591 2978 2328 3040 
Q 2066 3103 1784 3103 
Q 1356 3103 1142 2972 
Q 928 2841 928 2578 
Q 928 2378 1081 2264 
Q 1234 2150 1697 2047 
L 1894 2003 
Q 2506 1872 2764 1633 
Q 3022 1394 3022 966 
Q 3022 478 2636 193 
Q 2250 -91 1575 -91 
Q 1294 -91 989 -36 
Q 684 19 347 128 
L 347 722 
Q 666 556 975 473 
Q 1284 391 1588 391 
Q 1994 391 2212 530 
Q 2431 669 2431 922 
Q 2431 1156 2273 1281 
Q 2116 1406 1581 1522 
L 1381 1569 
Q 847 1681 609 1914 
Q 372 2147 372 2553 
Q 372 3047 722 3315 
Q 1072 3584 1716 3584 
Q 2034 3584 2315 3537 
Q 2597 3491 2834 3397 
z
" transform="scale(0.015625)"/>
       <path id="DejaVuSans-2f" d="M 1625 4666 
L 2156 4666 
L 531 -594 
L 0 -594 
L 1625 4666 
z
" transform="scale(0.015625)"/>
       <path id="DejaVuSans-64" d="M 2906 2969 
L 2906 4863 
L 3481 4863 
L 3481 0 
L 2906 0 
L 2906 525 
Q 2725 213 2448 61 
Q 2172 -91 1784 -91 
Q 1150 -91 751 415 
Q 353 922 353 1747 
Q 353 2572 751 3078 
Q 1150 3584 1784 3584 
Q 2172 3584 2448 3432 
Q 2725 3281 2906 2969 
z
M 947 1747 
Q 947 1113 1208 752 
Q 1469 391 1925 391 
Q 2381 391 2643 752 
Q 2906 1113 2906 1747 
Q 2906 2381 2643 2742 
Q 2381 3103 1925 3103 
Q 1469 3103 1208 2742 
Q 947 2381 947 1747 
z
" transform="scale(0.015625)"/>
       <path id="DejaVuSans-69" d="M 603 3500 
L 1178 3500 
L 1178 0 
L 603 0 
L 603 3500 
z
M 603 4863 
L 1178 4863 
L 1178 4134 
L 603 4134 
L 603 4863 
z
" transform="scale(0.015625)"/>
       <path id="DejaVuSans-6d" d="M 3328 2828 
Q 3544 3216 3844 3400 
Q 4144 3584 4550 3584 
Q 5097 3584 5394 3201 
Q 5691 2819 5691 2113 
L 5691 0 
L 5113 0 
L 5113 2094 
Q 5113 2597 4934 2840 
Q 4756 3084 4391 3084 
Q 3944 3084 3684 2787 
Q 3425 2491 3425 1978 
L 3425 0 
L 2847 0 
L 2847 2094 
Q 2847 2600 2669 2842 
Q 2491 3084 2119 3084 
Q 1678 3084 1418 2786 
Q 1159 2488 1159 1978 
L 1159 0 
L 581 0 
L 581 3500 
L 1159 3500 
L 1159 2956 
Q 1356 3278 1631 3431 
Q 1906 3584 2284 3584 
Q 2666 3584 2933 3390 
Q 3200 3197 3328 2828 
z
" transform="scale(0.015625)"/>
       <path id="DejaVuSans-6e" d="M 3513 2113 
L 3513 0 
L 2938 0 
L 2938 2094 
Q 2938 2591 2744 2837 
Q 2550 3084 2163 3084 
Q 1697 3084 1428 2787 
Q 1159 2491 1159 1978 
L 1159 0 
L 581 0 
L 581 3500 
L 1159 3500 
L 1159 2956 
Q 1366 3272 1645 3428 
Q 1925 3584 2291 3584 
Q 2894 3584 3203 3211 
Q 3513 2838 3513 2113 
z
" transform="scale(0.015625)"/>
       <path id="DejaVuSans-29" d="M 513 4856 
L 1013 4856 
Q 1481 4119 1714 3412 
Q 1947 2706 1947 2009 
Q 1947 1309 1714 600 
Q 1481 -109 1013 -844 
L 513 -844 
Q 928 -128 1133 580 
Q 1338 1288 1338 2009 
Q 1338 2731 1133 3434 
Q 928 4138 513 4856 
z
" transform="scale(0.015625)"/>
      </defs>
      <use xlink:href="#DejaVuSans-6c"/>
      <use xlink:href="#DejaVuSans-6f" x="27.783203"/>
      <use xlink:href="#DejaVuSans-67" x="88.964844"/>
      <use xlink:href="#DejaVuSans-31" x="152.441406"/>
      <use xlink:href="#DejaVuSans-30" x="216.064453"/>
      <use xlink:href="#DejaVuSans-28" x="279.6875"/>
      <use xlink:href="#DejaVuSans-23" x="318.701172"/>
      <use xlink:href="#DejaVuSans-20" x="402.490234"/>
      <use xlink:href="#DejaVuSans-66" x="434.277344"/>
      <use xlink:href="#DejaVuSans-2d" x="463.982422"/>
      <use xlink:href="#DejaVuSans-65" x="500.066406"/>
      <use xlink:href="#DejaVuSans-76" x="561.589844"/>
      <use xlink:href="#DejaVuSans-61" x="620.769531"/>
      <use xlink:href="#DejaVuSans-6c" x="682.048828"/>
      <use xlink:href="#DejaVuSans-73" x="709.832031"/>
      <use xlink:href="#DejaVuSans-20" x="761.931641"/>
      <use xlink:href="#DejaVuSans-2f" x="793.71875"/>
      <use xlink:href="#DejaVuSans-20" x="827.410156"/>
      <use xlink:href="#DejaVuSans-64" x="859.197266"/>
      <use xlink:href="#DejaVuSans-69" x="922.673828"/>
      <use xlink:href="#DejaVuSans-6d" x="950.457031"/>
      <use xlink:href="#DejaVuSans-65" x="1047.869141"/>
      <use xlink:href="#DejaVuSans-6e" x="1109.392578"/>
      <use xlink:href="#DejaVuSans-73" x="1172.771484"/>
      <use xlink:href="#DejaVuSans-69" x="1224.871094"/>
      <use xlink:href="#DejaVuSans-6f" x="1252.654297"/>
      <use xlink:href="#DejaVuSans-6e" x="1313.835938"/>
      <use xlink:href="#DejaVuSans-29" x="1377.214844"/>
     </g>
    </g>
   </g>
   <g id="matplotlib.axis_2">
    <g id="ytick_1">
     <g id="line2d_21">
      <path d="M 57.6 298.944 
L 360.8064 298.944 
" clip-path="url(#p8d99dc10a7)" style="fill: none; stroke: #b0b0b0; stroke-width: 0.8; stroke-linecap: square"/>
     </g>
     <g id="line2d_22">
      <defs>
       <path id="m35b4213870" d="M 0 0 
L -3.5 0 
" style="stroke: #000000; stroke-width: 0.8"/>
      </defs>
      <g>
       <use xlink:href="#m35b4213870" x="57.6" y="298.944" style="stroke: #000000; stroke-width: 0.8"/>
      </g>
     </g>
     <g id="text_6">
      <!-- 0.0 -->
      <g transform="translate(25.155 305.02275)scale(0.16 -0.16)">
       <defs>
        <path id="DejaVuSans-2e" d="M 684 794 
L 1344 794 
L 1344 0 
L 684 0 
L 684 794 
z
" transform="scale(0.015625)"/>
       </defs>
       <use xlink:href="#DejaVuSans-30"/>
       <use xlink:href="#DejaVuSans-2e" x="63.623047"/>
       <use xlink:href="#DejaVuSans-30" x="95.410156"/>
      </g>
     </g>
    </g>
    <g id="ytick_2">
     <g id="line2d_23">
      <path d="M 57.6 244.6848 
L 360.8064 244.6848 
" clip-path="url(#p8d99dc10a7)" style="fill: none; stroke: #b0b0b0; stroke-width: 0.8; stroke-linecap: square"/>
     </g>
     <g id="line2d_24">
      <g>
       <use xlink:href="#m35b4213870" x="57.6" y="244.6848" style="stroke: #000000; stroke-width: 0.8"/>
      </g>
     </g>
     <g id="text_7">
      <!-- 0.2 -->
      <g transform="translate(25.155 250.76355)scale(0.16 -0.16)">
       <use xlink:href="#DejaVuSans-30"/>
       <use xlink:href="#DejaVuSans-2e" x="63.623047"/>
       <use xlink:href="#DejaVuSans-32" x="95.410156"/>
      </g>
     </g>
    </g>
    <g id="ytick_3">
     <g id="line2d_25">
      <path d="M 57.6 190.4256 
L 360.8064 190.4256 
" clip-path="url(#p8d99dc10a7)" style="fill: none; stroke: #b0b0b0; stroke-width: 0.8; stroke-linecap: square"/>
     </g>
     <g id="line2d_26">
      <g>
       <use xlink:href="#m35b4213870" x="57.6" y="190.4256" style="stroke: #000000; stroke-width: 0.8"/>
      </g>
     </g>
     <g id="text_8">
      <!-- 0.4 -->
      <g transform="translate(25.155 196.50435)scale(0.16 -0.16)">
       <use xlink:href="#DejaVuSans-30"/>
       <use xlink:href="#DejaVuSans-2e" x="63.623047"/>
       <use xlink:href="#DejaVuSans-34" x="95.410156"/>
      </g>
     </g>
    </g>
    <g id="ytick_4">
     <g id="line2d_27">
      <path d="M 57.6 136.1664 
L 360.8064 136.1664 
" clip-path="url(#p8d99dc10a7)" style="fill: none; stroke: #b0b0b0; stroke-width: 0.8; stroke-linecap: square"/>
     </g>
     <g id="line2d_28">
      <g>
       <use xlink:href="#m35b4213870" x="57.6" y="136.1664" style="stroke: #000000; stroke-width: 0.8"/>
      </g>
     </g>
     <g id="text_9">
      <!-- 0.6 -->
      <g transform="translate(25.155 142.24515)scale(0.16 -0.16)">
       <use xlink:href="#DejaVuSans-30"/>
       <use xlink:href="#DejaVuSans-2e" x="63.623047"/>
       <use xlink:href="#DejaVuSans-36" x="95.410156"/>
      </g>
     </g>
    </g>
    <g id="ytick_5">
     <g id="line2d_29">
      <path d="M 57.6 81.9072 
L 360.8064 81.9072 
" clip-path="url(#p8d99dc10a7)" style="fill: none; stroke: #b0b0b0; stroke-width: 0.8; stroke-linecap: square"/>
     </g>
     <g id="line2d_30">
      <g>
       <use xlink:href="#m35b4213870" x="57.6" y="81.9072" style="stroke: #000000; stroke-width: 0.8"/>
      </g>
     </g>
     <g id="text_10">
      <!-- 0.8 -->
      <g transform="translate(25.155 87.98595)scale(0.16 -0.16)">
       <defs>
        <path id="DejaVuSans-38" d="M 2034 2216 
Q 1584 2216 1326 1975 
Q 1069 1734 1069 1313 
Q 1069 891 1326 650 
Q 1584 409 2034 409 
Q 2484 409 2743 651 
Q 3003 894 3003 1313 
Q 3003 1734 2745 1975 
Q 2488 2216 2034 2216 
z
M 1403 2484 
Q 997 2584 770 2862 
Q 544 3141 544 3541 
Q 544 4100 942 4425 
Q 1341 4750 2034 4750 
Q 2731 4750 3128 4425 
Q 3525 4100 3525 3541 
Q 3525 3141 3298 2862 
Q 3072 2584 2669 2484 
Q 3125 2378 3379 2068 
Q 3634 1759 3634 1313 
Q 3634 634 3220 271 
Q 2806 -91 2034 -91 
Q 1263 -91 848 271 
Q 434 634 434 1313 
Q 434 1759 690 2068 
Q 947 2378 1403 2484 
z
M 1172 3481 
Q 1172 3119 1398 2916 
Q 1625 2713 2034 2713 
Q 2441 2713 2670 2916 
Q 2900 3119 2900 3481 
Q 2900 3844 2670 4047 
Q 2441 4250 2034 4250 
Q 1625 4250 1398 4047 
Q 1172 3844 1172 3481 
z
" transform="scale(0.015625)"/>
       </defs>
       <use xlink:href="#DejaVuSans-30"/>
       <use xlink:href="#DejaVuSans-2e" x="63.623047"/>
       <use xlink:href="#DejaVuSans-38" x="95.410156"/>
      </g>
     </g>
    </g>
    <g id="ytick_6">
     <g id="line2d_31">
      <path d="M 57.6 27.648 
L 360.8064 27.648 
" clip-path="url(#p8d99dc10a7)" style="fill: none; stroke: #b0b0b0; stroke-width: 0.8; stroke-linecap: square"/>
     </g>
     <g id="line2d_32">
      <g>
       <use xlink:href="#m35b4213870" x="57.6" y="27.648" style="stroke: #000000; stroke-width: 0.8"/>
      </g>
     </g>
     <g id="text_11">
      <!-- 1.0 -->
      <g transform="translate(25.155 33.72675)scale(0.16 -0.16)">
       <use xlink:href="#DejaVuSans-31"/>
       <use xlink:href="#DejaVuSans-2e" x="63.623047"/>
       <use xlink:href="#DejaVuSans-30" x="95.410156"/>
      </g>
     </g>
    </g>
    <g id="text_12">
     <!-- Fraction of function,target pairs -->
     <g transform="translate(17.619531 297.681)rotate(-90)scale(0.17 -0.17)">
      <defs>
       <path id="DejaVuSans-46" d="M 628 4666 
L 3309 4666 
L 3309 4134 
L 1259 4134 
L 1259 2759 
L 3109 2759 
L 3109 2228 
L 1259 2228 
L 1259 0 
L 628 0 
L 628 4666 
z
" transform="scale(0.015625)"/>
       <path id="DejaVuSans-72" d="M 2631 2963 
Q 2534 3019 2420 3045 
Q 2306 3072 2169 3072 
Q 1681 3072 1420 2755 
Q 1159 2438 1159 1844 
L 1159 0 
L 581 0 
L 581 3500 
L 1159 3500 
L 1159 2956 
Q 1341 3275 1631 3429 
Q 1922 3584 2338 3584 
Q 2397 3584 2469 3576 
Q 2541 3569 2628 3553 
L 2631 2963 
z
" transform="scale(0.015625)"/>
       <path id="DejaVuSans-63" d="M 3122 3366 
L 3122 2828 
Q 2878 2963 2633 3030 
Q 2388 3097 2138 3097 
Q 1578 3097 1268 2742 
Q 959 2388 959 1747 
Q 959 1106 1268 751 
Q 1578 397 2138 397 
Q 2388 397 2633 464 
Q 2878 531 3122 666 
L 3122 134 
Q 2881 22 2623 -34 
Q 2366 -91 2075 -91 
Q 1284 -91 818 406 
Q 353 903 353 1747 
Q 353 2603 823 3093 
Q 1294 3584 2113 3584 
Q 2378 3584 2631 3529 
Q 2884 3475 3122 3366 
z
" transform="scale(0.015625)"/>
       <path id="DejaVuSans-74" d="M 1172 4494 
L 1172 3500 
L 2356 3500 
L 2356 3053 
L 1172 3053 
L 1172 1153 
Q 1172 725 1289 603 
Q 1406 481 1766 481 
L 2356 481 
L 2356 0 
L 1766 0 
Q 1100 0 847 248 
Q 594 497 594 1153 
L 594 3053 
L 172 3053 
L 172 3500 
L 594 3500 
L 594 4494 
L 1172 4494 
z
" transform="scale(0.015625)"/>
       <path id="DejaVuSans-75" d="M 544 1381 
L 544 3500 
L 1119 3500 
L 1119 1403 
Q 1119 906 1312 657 
Q 1506 409 1894 409 
Q 2359 409 2629 706 
Q 2900 1003 2900 1516 
L 2900 3500 
L 3475 3500 
L 3475 0 
L 2900 0 
L 2900 538 
Q 2691 219 2414 64 
Q 2138 -91 1772 -91 
Q 1169 -91 856 284 
Q 544 659 544 1381 
z
M 1991 3584 
L 1991 3584 
z
" transform="scale(0.015625)"/>
       <path id="DejaVuSans-2c" d="M 750 794 
L 1409 794 
L 1409 256 
L 897 -744 
L 494 -744 
L 750 256 
L 750 794 
z
" transform="scale(0.015625)"/>
       <path id="DejaVuSans-70" d="M 1159 525 
L 1159 -1331 
L 581 -1331 
L 581 3500 
L 1159 3500 
L 1159 2969 
Q 1341 3281 1617 3432 
Q 1894 3584 2278 3584 
Q 2916 3584 3314 3078 
Q 3713 2572 3713 1747 
Q 3713 922 3314 415 
Q 2916 -91 2278 -91 
Q 1894 -91 1617 61 
Q 1341 213 1159 525 
z
M 3116 1747 
Q 3116 2381 2855 2742 
Q 2594 3103 2138 3103 
Q 1681 3103 1420 2742 
Q 1159 2381 1159 1747 
Q 1159 1113 1420 752 
Q 1681 391 2138 391 
Q 2594 391 2855 752 
Q 3116 1113 3116 1747 
z
" transform="scale(0.015625)"/>
      </defs>
      <use xlink:href="#DejaVuSans-46"/>
      <use xlink:href="#DejaVuSans-72" x="50.269531"/>
      <use xlink:href="#DejaVuSans-61" x="91.382812"/>
      <use xlink:href="#DejaVuSans-63" x="152.662109"/>
      <use xlink:href="#DejaVuSans-74" x="207.642578"/>
      <use xlink:href="#DejaVuSans-69" x="246.851562"/>
      <use xlink:href="#DejaVuSans-6f" x="274.634766"/>
      <use xlink:href="#DejaVuSans-6e" x="335.816406"/>
      <use xlink:href="#DejaVuSans-20" x="399.195312"/>
      <use xlink:href="#DejaVuSans-6f" x="430.982422"/>
      <use xlink:href="#DejaVuSans-66" x="492.164062"/>
      <use xlink:href="#DejaVuSans-20" x="527.369141"/>
      <use xlink:href="#DejaVuSans-66" x="559.15625"/>
      <use xlink:href="#DejaVuSans-75" x="594.361328"/>
      <use xlink:href="#DejaVuSans-6e" x="657.740234"/>
      <use xlink:href="#DejaVuSans-63" x="721.119141"/>
      <use xlink:href="#DejaVuSans-74" x="776.099609"/>
      <use xlink:href="#DejaVuSans-69" x="815.308594"/>
      <use xlink:href="#DejaVuSans-6f" x="843.091797"/>
      <use xlink:href="#DejaVuSans-6e" x="904.273438"/>
      <use xlink:href="#DejaVuSans-2c" x="967.652344"/>
      <use xlink:href="#DejaVuSans-74" x="999.439453"/>
      <use xlink:href="#DejaVuSans-61" x="1038.648438"/>
      <use xlink:href="#DejaVuSans-72" x="1099.927734"/>
      <use xlink:href="#DejaVuSans-67" x="1139.291016"/>
      <use xlink:href="#DejaVuSans-65" x="1202.767578"/>
      <use xlink:href="#DejaVuSans-74" x="1264.291016"/>
      <use xlink:href="#DejaVuSans-20" x="1303.5"/>
      <use xlink:href="#DejaVuSans-70" x="1335.287109"/>
      <use xlink:href="#DejaVuSans-61" x="1398.763672"/>
      <use xlink:href="#DejaVuSans-69" x="1460.042969"/>
      <use xlink:href="#DejaVuSans-72" x="1487.826172"/>
      <use xlink:href="#DejaVuSans-73" x="1528.939453"/>
     </g>
    </g>
   </g>
   <g id="line2d_33">
    <defs>
     <path id="m4eba5c1801" d="M 0 1.5 
C 0.397805 1.5 0.77937 1.341951 1.06066 1.06066 
C 1.341951 0.77937 1.5 0.397805 1.5 0 
C 1.5 -0.397805 1.341951 -0.77937 1.06066 -1.06066 
C 0.77937 -1.341951 0.397805 -1.5 0 -1.5 
C -0.397805 -1.5 -0.77937 -1.341951 -1.06066 -1.06066 
C -1.341951 -0.77937 -1.5 -0.397805 -1.5 0 
C -1.5 0.397805 -1.341951 0.77937 -1.06066 1.06066 
C -0.77937 1.341951 -0.397805 1.5 0 1.5 
z
" style="stroke: #f5deb3"/>
    </defs>
    <g>
     <use xlink:href="#m4eba5c1801" x="176.196469" y="27.648" style="fill: #f5deb3; stroke: #f5deb3"/>
     <use xlink:href="#m4eba5c1801" x="176.196469" y="27.648" style="fill: #f5deb3; stroke: #f5deb3"/>
    </g>
   </g>
   <g id="line2d_34">
    <defs>
     <path id="m12cc98303c" d="M 0 1.5 
C 0.397805 1.5 0.77937 1.341951 1.06066 1.06066 
C 1.341951 0.77937 1.5 0.397805 1.5 0 
C 1.5 -0.397805 1.341951 -0.77937 1.06066 -1.06066 
C 0.77937 -1.341951 0.397805 -1.5 0 -1.5 
C -0.397805 -1.5 -0.77937 -1.341951 -1.06066 -1.06066 
C -1.341951 -0.77937 -1.5 -0.397805 -1.5 0 
C -1.5 0.397805 -1.341951 0.77937 -1.06066 1.06066 
C -0.77937 1.341951 -0.397805 1.5 0 1.5 
z
" style="stroke: #000080"/>
    </defs>
    <g>
     <use xlink:href="#m12cc98303c" x="199.550434" y="27.648" style="fill: #000080; stroke: #000080"/>
     <use xlink:href="#m12cc98303c" x="199.550434" y="27.648" style="fill: #000080; stroke: #000080"/>
    </g>
   </g>
   <g id="line2d_35">
    <path d="M 138.489728 298.944 
L 138.489728 298.589365 
L 138.743257 298.589365 
L 138.743257 297.880094 
L 139.652679 297.880094 
L 139.724525 297.170824 
L 139.867398 297.170824 
L 139.867398 296.816188 
L 139.985636 296.816188 
L 140.056223 295.043012 
L 140.312801 295.043012 
L 140.382174 293.624471 
L 140.543056 293.624471 
L 140.543056 292.9152 
L 140.747902 292.9152 
L 140.815692 291.851294 
L 140.860749 291.851294 
L 140.928134 291.142024 
L 141.062184 291.142024 
L 141.062184 290.787388 
L 141.217377 290.787388 
L 141.217377 290.432753 
L 141.349389 290.432753 
L 141.349389 290.078118 
L 141.56737 290.078118 
L 141.56737 289.723482 
L 141.84702 289.723482 
L 141.932237 289.014212 
L 142.038218 289.014212 
L 142.101521 287.950306 
L 142.185595 287.950306 
L 142.290162 286.8864 
L 142.373399 286.8864 
L 142.47693 285.822494 
L 142.60042 285.822494 
L 142.641404 284.758588 
L 142.743475 284.758588 
L 142.824734 282.985412 
L 142.986208 282.985412 
L 143.086429 281.212235 
L 143.146307 281.212235 
L 143.225848 280.148329 
L 143.305055 280.148329 
L 143.403597 279.439059 
L 143.423243 279.439059 
L 143.521169 277.665882 
L 143.599145 277.665882 
L 143.638012 276.956612 
L 143.715505 276.956612 
L 143.811926 275.538071 
L 143.907854 275.538071 
L 144.003296 273.764894 
L 144.022326 273.764894 
L 144.098256 272.700988 
L 144.136106 272.700988 
L 144.2304 271.282447 
L 144.28675 271.282447 
L 144.342932 269.509271 
L 144.454795 269.509271 
L 144.529002 268.8 
L 144.639767 268.8 
L 144.731576 267.736094 
L 144.85936 267.736094 
L 144.91386 266.672188 
L 145.076419 266.672188 
L 145.148219 265.962918 
L 145.291002 265.962918 
L 145.397382 264.544376 
L 145.538293 264.544376 
L 145.643288 263.125835 
L 145.782376 263.125835 
L 145.868787 262.061929 
L 145.90324 262.061929 
L 146.006223 260.643388 
L 146.040426 260.643388 
L 146.057504 259.579482 
L 146.176619 259.579482 
L 146.176619 259.224847 
L 146.328666 259.224847 
L 146.412609 258.160941 
L 146.446082 258.160941 
L 146.446082 257.806306 
L 146.595975 257.806306 
L 146.645676 257.097035 
L 146.744684 257.097035 
L 146.843174 256.033129 
L 146.908549 256.033129 
L 146.908549 255.323859 
L 147.038621 255.323859 
L 147.119461 253.550682 
L 147.280107 253.550682 
L 147.375841 252.841412 
L 147.391749 252.841412 
L 147.391749 252.486776 
L 147.534321 252.486776 
L 147.581606 251.422871 
L 147.675821 251.422871 
L 147.675821 251.068235 
L 147.816265 251.068235 
L 147.909315 250.358965 
L 147.955668 250.358965 
L 147.971093 249.649694 
L 148.07872 249.649694 
L 148.07872 248.940424 
L 148.322436 248.940424 
L 148.397954 248.231153 
L 148.488177 248.231153 
L 148.548087 247.521882 
L 148.652472 247.521882 
L 148.75628 246.457976 
L 148.844805 246.457976 
L 148.932916 245.039435 
L 149.693807 245.039435 
L 149.778038 244.330165 
L 149.91759 244.330165 
L 149.945377 243.620894 
L 150.097474 243.620894 
L 150.097474 243.266259 
L 150.289291 243.266259 
L 150.289291 242.911624 
L 150.640414 242.911624 
L 150.733838 242.202353 
L 150.773735 242.202353 
L 150.773735 241.847718 
L 151.336488 241.847718 
L 151.41369 241.138447 
L 152.119363 241.138447 
L 152.119363 240.783812 
L 153.259079 240.783812 
L 153.259079 240.429176 
L 159.841374 240.429176 
L 159.857774 239.719906 
L 160.319282 239.719906 
L 160.399093 238.656 
L 160.526092 238.656 
L 160.526092 238.301365 
L 160.979404 238.301365 
L 160.979404 237.946729 
L 161.579783 237.946729 
L 161.579783 237.592094 
L 162.470869 237.592094 
L 162.470869 237.237459 
L 162.648372 237.237459 
L 162.697774 236.528188 
L 162.901068 236.528188 
L 162.901068 236.173553 
L 163.102189 236.173553 
L 163.102189 235.818918 
L 163.232801 235.818918 
L 163.232801 235.464282 
L 163.40329 235.464282 
L 163.40329 235.109647 
L 163.545315 235.109647 
L 163.65281 234.045741 
L 163.839461 234.045741 
L 163.839461 233.336471 
L 164.043972 233.336471 
L 164.043972 232.981835 
L 164.414303 232.981835 
L 164.459284 232.272565 
L 164.859342 232.272565 
L 164.859342 231.917929 
L 165.1028 231.917929 
L 165.109001 231.208659 
L 165.226438 231.208659 
L 165.287954 230.499388 
L 165.568365 230.499388 
L 165.568365 230.144753 
L 165.701011 230.144753 
L 165.743021 229.435482 
L 165.886348 229.435482 
L 165.886348 229.080847 
L 166.01087 229.080847 
L 166.01087 228.726212 
L 166.181484 228.726212 
L 166.251633 228.016941 
L 166.396941 228.016941 
L 166.448979 226.953035 
L 166.797933 226.953035 
L 166.871471 225.889129 
L 166.927844 225.889129 
L 167.000877 225.179859 
L 167.095955 225.179859 
L 167.112684 224.470588 
L 167.284683 224.470588 
L 167.284683 224.115953 
L 167.618609 224.115953 
L 167.645719 223.052047 
L 167.76454 223.052047 
L 167.76454 222.697412 
L 167.941377 222.697412 
L 167.994637 221.633506 
L 168.074246 221.633506 
L 168.169334 220.5696 
L 168.284904 220.5696 
L 168.363297 219.860329 
L 168.663377 219.860329 
L 168.699272 219.151059 
L 168.943582 219.151059 
L 169.014245 218.087153 
L 169.239596 218.087153 
L 169.328985 217.023247 
L 169.521218 217.023247 
L 169.584862 215.959341 
L 169.813178 215.959341 
L 169.8614 214.895435 
L 169.952684 214.895435 
L 170.010109 214.186165 
L 170.171868 214.186165 
L 170.214455 213.476894 
L 170.365099 213.476894 
L 170.458643 212.767624 
L 170.54708 212.767624 
L 170.630481 210.639812 
L 170.809925 210.639812 
L 170.832807 209.930541 
L 171.064631 209.930541 
L 171.064631 209.575906 
L 171.190702 209.575906 
L 171.231046 208.512 
L 171.302556 208.512 
L 171.373795 207.448094 
L 171.453618 207.448094 
L 171.550721 206.029553 
L 171.682333 206.029553 
L 171.682333 205.674918 
L 171.96437 205.674918 
L 172.067447 204.256376 
L 172.127316 204.256376 
L 172.233753 203.192471 
L 172.335368 203.192471 
L 172.402808 201.773929 
L 172.457426 201.773929 
L 172.511885 200.710024 
L 172.574528 200.710024 
L 172.682617 200.000753 
L 172.823033 200.000753 
L 172.864133 199.291482 
L 173.027642 199.291482 
L 173.088593 197.518306 
L 173.169555 197.518306 
L 173.266252 196.4544 
L 173.386429 196.4544 
L 173.390421 195.745129 
L 173.553396 195.745129 
L 173.624503 194.681224 
L 173.695341 194.681224 
L 173.762 193.262682 
L 173.840121 193.262682 
L 173.917919 192.198776 
L 173.987664 192.198776 
L 174.026299 191.489506 
L 174.11486 191.489506 
L 174.11486 191.134871 
L 174.25646 191.134871 
L 174.25646 190.780235 
L 174.442357 190.780235 
L 174.544011 189.361694 
L 174.570276 189.361694 
L 174.663783 188.297788 
L 174.856799 188.297788 
L 174.959917 187.233882 
L 175.146298 187.233882 
L 175.24061 186.169976 
L 175.417077 186.169976 
L 175.492201 185.106071 
L 175.563471 185.106071 
L 175.574138 184.3968 
L 175.71932 184.3968 
L 175.786221 183.332894 
L 175.908841 183.332894 
L 176.009838 181.559718 
L 176.17238 181.559718 
L 176.241123 180.850447 
L 176.40849 180.850447 
L 176.513611 179.786541 
L 176.520373 179.786541 
L 176.537267 179.077271 
L 176.638314 179.077271 
L 176.638314 178.722635 
L 176.795538 178.722635 
L 176.84544 178.013365 
L 176.921701 178.013365 
L 177.02071 177.304094 
L 177.043737 177.304094 
L 177.043737 176.949459 
L 177.187837 176.949459 
L 177.230202 176.240188 
L 177.308164 176.240188 
L 177.356727 175.530918 
L 177.427726 175.530918 
L 177.530521 173.757741 
L 177.546533 173.757741 
L 177.546533 173.403106 
L 177.674134 173.403106 
L 177.775595 171.984565 
L 177.923632 171.984565 
L 177.976891 170.566024 
L 178.054941 170.566024 
L 178.145075 169.147482 
L 178.216255 169.147482 
L 178.317914 167.728941 
L 178.333269 167.728941 
L 178.431246 166.3104 
L 178.46176 166.3104 
L 178.467857 165.601129 
L 178.604514 165.601129 
L 178.680008 164.182588 
L 178.770203 164.182588 
L 178.830093 163.118682 
L 178.883832 163.118682 
L 178.987886 161.345506 
L 179.01159 161.345506 
L 179.106105 160.636235 
L 179.135545 160.636235 
L 179.241145 159.572329 
L 179.267453 159.572329 
L 179.267453 159.217694 
L 179.424532 159.217694 
L 179.514118 158.153788 
L 179.594669 158.153788 
L 179.654857 157.444518 
L 179.717705 157.444518 
L 179.811585 156.380612 
L 179.879569 156.380612 
L 179.882396 155.671341 
L 180.020416 155.671341 
L 180.12955 153.898165 
L 180.149072 153.898165 
L 180.215848 152.479624 
L 180.3735 152.479624 
L 180.379007 151.770353 
L 180.516178 151.770353 
L 180.578943 149.997176 
L 180.720078 149.997176 
L 180.814479 147.869365 
L 180.884301 147.869365 
L 180.959205 146.805459 
L 181.01785 146.805459 
L 181.06835 145.386918 
L 181.197967 145.386918 
L 181.282135 143.613741 
L 181.365929 143.613741 
L 181.43634 141.840565 
L 181.498707 141.840565 
L 181.57896 140.776659 
L 181.643432 140.776659 
L 181.753809 137.939576 
L 181.817686 137.939576 
L 181.881346 136.875671 
L 181.997921 136.875671 
L 182.068527 135.457129 
L 182.118798 135.457129 
L 182.213946 134.393224 
L 182.298671 134.393224 
L 182.390441 133.329318 
L 182.417638 133.329318 
L 182.518663 130.846871 
L 182.621592 130.846871 
L 182.709372 129.782965 
L 182.748254 129.782965 
L 182.835445 128.719059 
L 182.866832 128.719059 
L 182.970278 127.300518 
L 182.98227 127.300518 
L 183.082701 125.172706 
L 183.106534 125.172706 
L 183.215779 124.1088 
L 183.248903 124.1088 
L 183.338515 122.690259 
L 183.378467 122.690259 
L 183.472139 120.562447 
L 183.52346 120.562447 
L 183.62105 119.498541 
L 183.68352 119.498541 
L 183.784881 118.789271 
L 183.79866 118.789271 
L 183.885698 116.661459 
L 183.910818 116.661459 
L 184.001882 115.597553 
L 184.081203 115.597553 
L 184.081203 115.242918 
L 184.227633 115.242918 
L 184.332807 112.760471 
L 184.372931 112.760471 
L 184.48394 111.341929 
L 184.492792 111.341929 
L 184.492792 110.987294 
L 184.631672 110.987294 
L 184.725878 109.214118 
L 184.756448 109.214118 
L 184.784791 107.795576 
L 184.88907 107.795576 
L 184.934511 106.731671 
L 185.053006 106.731671 
L 185.102338 105.313129 
L 185.187826 105.313129 
L 185.272927 103.894588 
L 185.338617 103.894588 
L 185.437775 102.476047 
L 185.479812 102.476047 
L 185.584495 101.057506 
L 185.642864 101.057506 
L 185.723864 99.9936 
L 185.754925 99.9936 
L 185.829263 99.284329 
L 185.899202 99.284329 
L 185.993413 97.156518 
L 186.028112 97.156518 
L 186.113563 96.447247 
L 186.196608 96.447247 
L 186.291356 93.9648 
L 186.335543 93.9648 
L 186.4276 92.900894 
L 186.449547 92.900894 
L 186.515234 91.836988 
L 186.576733 91.836988 
L 186.68732 89.709176 
L 186.724693 89.709176 
L 186.824645 88.645271 
L 186.863698 88.645271 
L 186.959035 87.226729 
L 186.993936 87.226729 
L 187.053891 86.162824 
L 187.163636 86.162824 
L 187.272744 85.453553 
L 187.289914 85.453553 
L 187.343232 84.035012 
L 187.409667 84.035012 
L 187.492854 82.616471 
L 187.577552 82.616471 
L 187.656262 81.197929 
L 187.719739 81.197929 
L 187.829384 79.070118 
L 187.857159 79.070118 
L 187.964168 78.006212 
L 187.973365 78.006212 
L 188.006435 76.942306 
L 188.088858 76.942306 
L 188.088858 76.587671 
L 188.203646 76.587671 
L 188.312321 75.169129 
L 188.370025 75.169129 
L 188.479536 73.395953 
L 188.577732 73.395953 
L 188.66124 72.332047 
L 188.698433 72.332047 
L 188.769073 71.268141 
L 188.811331 71.268141 
L 188.811331 70.913506 
L 188.942776 70.913506 
L 189.021205 69.494965 
L 189.069841 69.494965 
L 189.166736 68.076424 
L 189.202944 68.076424 
L 189.240801 67.012518 
L 189.345372 67.012518 
L 189.408518 65.239341 
L 189.517246 65.239341 
L 189.561237 63.8208 
L 189.685885 63.8208 
L 189.784677 62.402259 
L 189.833047 62.402259 
L 189.834712 61.338353 
L 189.988981 61.338353 
L 190.040124 59.565176 
L 190.102626 59.565176 
L 190.186186 57.792 
L 190.261237 57.792 
L 190.36192 56.373459 
L 190.455623 56.373459 
L 190.566492 55.664188 
L 190.580905 55.664188 
L 190.662372 54.245647 
L 190.754593 54.245647 
L 190.854255 52.827106 
L 190.92512 52.827106 
L 191.019194 51.053929 
L 191.059814 51.053929 
L 191.114356 49.990024 
L 191.24307 49.990024 
L 191.289377 48.926118 
L 191.366303 48.926118 
L 191.424558 48.216847 
L 191.523787 48.216847 
L 191.575484 47.507576 
L 191.667879 47.507576 
L 191.667879 47.152941 
L 191.800377 47.152941 
L 191.864782 46.089035 
L 191.946841 46.089035 
L 191.957259 45.379765 
L 192.114319 45.379765 
L 192.218791 44.670494 
L 192.274469 44.670494 
L 192.373692 43.606588 
L 192.559058 43.606588 
L 192.559058 43.251953 
L 192.675422 43.251953 
L 192.712622 42.542682 
L 192.862107 42.542682 
L 192.862107 42.188047 
L 193.016041 42.188047 
L 193.028695 41.478776 
L 193.171515 41.478776 
L 193.261965 40.769506 
L 193.328481 40.769506 
L 193.419559 40.060235 
L 193.456691 40.060235 
L 193.551252 38.996329 
L 193.618117 38.996329 
L 193.707806 38.287059 
L 193.807861 38.287059 
L 193.809209 37.577788 
L 194.102215 37.577788 
L 194.102215 37.223153 
L 194.356706 37.223153 
L 194.356706 36.868518 
L 194.469006 36.868518 
L 194.469006 36.513882 
L 194.863236 36.513882 
L 194.863236 36.159247 
L 195.162993 36.159247 
L 195.162993 35.804612 
L 195.530786 35.804612 
L 195.530786 35.449976 
L 195.788642 35.449976 
L 195.788642 35.095341 
L 196.181402 35.095341 
L 196.181402 34.740706 
L 196.394151 34.740706 
L 196.394151 34.386071 
L 196.729623 34.386071 
L 196.729623 34.031435 
L 197.038785 34.031435 
L 197.038785 33.6768 
L 197.278024 33.6768 
L 197.278024 33.322165 
L 197.424348 33.322165 
L 197.424348 32.967529 
L 197.673043 32.967529 
L 197.673043 32.612894 
L 197.934743 32.612894 
L 197.934743 32.258259 
L 198.141513 32.258259 
L 198.141513 31.903624 
L 198.27279 31.903624 
L 198.27279 31.548988 
L 198.444306 31.548988 
L 198.444306 31.194353 
L 198.557787 31.194353 
L 198.557787 30.839718 
L 198.70596 30.839718 
L 198.70596 30.485082 
L 198.869467 30.485082 
L 198.939403 29.775812 
L 199.043821 29.775812 
L 199.043821 29.421176 
L 199.198356 29.421176 
L 199.256991 28.711906 
L 199.338572 28.711906 
L 199.338572 28.357271 
L 199.463779 28.357271 
L 199.550434 27.648 
L 360.8064 27.648 
L 360.8064 27.648 
" style="fill: none; stroke: #000080; stroke-width: 1.5; stroke-linecap: square"/>
   </g>
   <g id="line2d_36">
    <defs>
     <path id="m96a2c75d28" d="M 0 6 
C 1.591219 6 3.117479 5.367802 4.242641 4.242641 
C 5.367802 3.117479 6 1.591219 6 0 
C 6 -1.591219 5.367802 -3.117479 4.242641 -4.242641 
C 3.117479 -5.367802 1.591219 -6 0 -6 
C -1.591219 -6 -3.117479 -5.367802 -4.242641 -4.242641 
C -5.367802 -3.117479 -6 -1.591219 -6 0 
C -6 1.591219 -5.367802 3.117479 -4.242641 4.242641 
C -3.117479 5.367802 -1.591219 6 0 6 
z
" style="stroke: #000080; stroke-width: 1.5"/>
    </defs>
    <g>
     <use xlink:href="#m96a2c75d28" x="175.146298" y="187.233882" style="fill-opacity: 0; stroke: #000080; stroke-width: 1.5"/>
     <use xlink:href="#m96a2c75d28" x="199.550434" y="28.002635" style="fill-opacity: 0; stroke: #000080; stroke-width: 1.5"/>
     <use xlink:href="#m96a2c75d28" x="199.550434" y="27.648" style="fill-opacity: 0; stroke: #000080; stroke-width: 1.5"/>
     <use xlink:href="#m96a2c75d28" x="199.550434" y="27.648" style="fill-opacity: 0; stroke: #000080; stroke-width: 1.5"/>
     <use xlink:href="#m96a2c75d28" x="360.8064" y="27.648" style="fill-opacity: 0; stroke: #000080; stroke-width: 1.5"/>
    </g>
   </g>
   <g id="line2d_37">
    <path style="fill: none; stroke: #000080; stroke-width: 1.5; stroke-linecap: square"/>
    <g/>
   </g>
   <g id="line2d_38">
    <defs>
     <path id="m600d4188e4" d="M 0 1.5 
C 0.397805 1.5 0.77937 1.341951 1.06066 1.06066 
C 1.341951 0.77937 1.5 0.397805 1.5 0 
C 1.5 -0.397805 1.341951 -0.77937 1.06066 -1.06066 
C 0.77937 -1.341951 0.397805 -1.5 0 -1.5 
C -0.397805 -1.5 -0.77937 -1.341951 -1.06066 -1.06066 
C -1.341951 -0.77937 -1.5 -0.397805 -1.5 0 
C -1.5 0.397805 -1.341951 0.77937 -1.06066 1.06066 
C -0.77937 1.341951 -0.397805 1.5 0 1.5 
z
" style="stroke: #ff00ff"/>
    </defs>
    <g>
     <use xlink:href="#m600d4188e4" x="197.438807" y="27.648" style="fill: #ff00ff; stroke: #ff00ff"/>
     <use xlink:href="#m600d4188e4" x="197.438807" y="27.648" style="fill: #ff00ff; stroke: #ff00ff"/>
    </g>
   </g>
   <g id="line2d_39">
    <path d="M 139.459738 298.944 
L 139.459738 298.589365 
L 140.009194 298.589365 
L 140.009194 298.234729 
L 140.28962 298.234729 
L 140.382174 297.525459 
L 140.520157 297.525459 
L 140.520157 297.170824 
L 140.747902 297.170824 
L 140.747902 296.816188 
L 140.860749 296.816188 
L 140.883238 296.106918 
L 141.305488 296.106918 
L 141.327451 295.043012 
L 141.458695 295.043012 
L 141.48048 293.979106 
L 141.589029 293.979106 
L 141.589029 293.624471 
L 141.868361 293.624471 
L 141.974701 292.560565 
L 142.01707 292.560565 
L 142.101521 291.496659 
L 142.185595 291.496659 
L 142.290162 290.078118 
L 142.331827 290.078118 
L 142.394151 288.659576 
L 142.518184 288.659576 
L 142.518184 288.304941 
L 142.682299 288.304941 
L 142.784148 287.241035 
L 142.804452 287.241035 
L 142.905644 286.531765 
L 142.925817 286.531765 
L 142.986208 285.467859 
L 143.166224 285.467859 
L 143.245681 283.694682 
L 143.305055 283.694682 
L 143.403597 281.566871 
L 143.462475 281.566871 
L 143.501625 280.8576 
L 143.696162 280.8576 
L 143.754133 280.148329 
L 143.888708 280.148329 
L 143.946089 279.439059 
L 144.098256 279.439059 
L 144.192739 277.665882 
L 144.28675 277.665882 
L 144.342932 275.892706 
L 144.436197 275.892706 
L 144.510478 275.183435 
L 144.547509 275.183435 
L 144.602918 274.474165 
L 144.694906 274.474165 
L 144.731576 273.410259 
L 144.85936 273.410259 
L 144.968202 271.282447 
L 145.058426 271.282447 
L 145.166126 269.154635 
L 145.237585 269.154635 
L 145.308773 268.445365 
L 145.361989 268.445365 
L 145.361989 267.736094 
L 145.573357 267.736094 
L 145.678157 266.672188 
L 145.765046 266.672188 
L 145.765046 266.317553 
L 145.920443 266.317553 
L 145.920443 265.962918 
L 146.142663 265.962918 
L 146.244347 265.253647 
L 146.328666 265.253647 
L 146.328666 264.544376 
L 146.446082 264.544376 
L 146.462796 263.835106 
L 146.562769 263.835106 
L 146.562769 263.480471 
L 146.761135 263.480471 
L 146.843174 261.352659 
L 146.892226 261.352659 
L 146.892226 260.998024 
L 147.006187 260.998024 
L 147.103321 260.288753 
L 147.135588 260.288753 
L 147.232057 259.224847 
L 147.471089 259.224847 
L 147.550096 258.160941 
L 147.597342 258.160941 
L 147.597342 257.806306 
L 147.73837 257.806306 
L 147.73837 257.451671 
L 147.893838 257.451671 
L 147.893838 256.7424 
L 148.276979 256.7424 
L 148.382875 255.323859 
L 148.44312 255.323859 
L 148.503173 254.259953 
L 148.563035 254.259953 
L 148.563035 253.905318 
L 148.68219 253.905318 
L 148.741485 252.841412 
L 148.874221 252.841412 
L 148.874221 252.486776 
L 149.2669 252.486776 
L 149.2669 252.132141 
L 149.764026 252.132141 
L 149.764026 251.777506 
L 149.903682 251.777506 
L 149.945377 251.068235 
L 150.985103 251.068235 
L 151.024471 250.358965 
L 151.246016 250.358965 
L 151.246016 250.004329 
L 151.719368 250.004329 
L 151.719368 249.649694 
L 152.377312 249.649694 
L 152.377312 249.295059 
L 159.249688 249.295059 
L 159.300416 248.585788 
L 160.020999 248.585788 
L 160.037244 247.876518 
L 160.263211 247.876518 
L 160.319282 247.167247 
L 160.4627 247.167247 
L 160.4627 246.812612 
L 160.793149 246.812612 
L 160.793149 246.457976 
L 161.437128 246.457976 
L 161.437128 246.103341 
L 162.030602 246.103341 
L 162.088932 245.394071 
L 162.233972 245.394071 
L 162.233972 245.039435 
L 162.456597 245.039435 
L 162.506504 244.330165 
L 162.655437 244.330165 
L 162.66956 243.620894 
L 162.908039 243.620894 
L 162.908039 243.266259 
L 163.095289 243.266259 
L 163.095289 242.556988 
L 163.558786 242.556988 
L 163.632702 241.493082 
L 163.879217 241.493082 
L 163.879217 241.138447 
L 164.063646 241.138447 
L 164.063646 240.783812 
L 164.388551 240.783812 
L 164.497753 239.365271 
L 164.612692 239.365271 
L 164.669899 238.656 
L 164.764859 238.656 
L 164.764859 238.301365 
L 164.984586 238.301365 
L 164.984586 237.592094 
L 165.096597 237.592094 
L 165.195605 236.882824 
L 165.519897 236.882824 
L 165.622743 236.173553 
L 165.664928 236.173553 
L 165.749015 235.464282 
L 165.826761 235.464282 
L 165.898243 234.400376 
L 166.111072 234.400376 
L 166.111072 234.045741 
L 166.263299 234.045741 
L 166.327333 233.336471 
L 166.385358 233.336471 
L 166.40273 232.6272 
L 166.661411 232.6272 
L 166.661411 231.917929 
L 166.894041 231.917929 
L 166.899679 231.208659 
L 167.012088 231.208659 
L 167.090376 230.144753 
L 167.268107 230.144753 
L 167.345339 229.080847 
L 167.38933 229.080847 
L 167.38933 228.726212 
L 167.569712 228.726212 
L 167.651136 228.016941 
L 167.904005 228.016941 
L 167.904005 227.662306 
L 168.058351 227.662306 
L 168.100708 226.5984 
L 168.17987 226.5984 
L 168.17987 226.243765 
L 168.347644 226.243765 
L 168.384146 225.534494 
L 168.52428 225.534494 
L 168.632555 224.470588 
L 168.699272 224.470588 
L 168.796358 223.406682 
L 168.928405 223.406682 
L 168.999125 222.697412 
L 169.099695 222.697412 
L 169.099695 222.342776 
L 169.219673 222.342776 
L 169.219673 221.988141 
L 169.338891 221.988141 
L 169.378463 221.278871 
L 169.477031 221.278871 
L 169.477031 220.924235 
L 169.653161 220.924235 
L 169.706651 219.505694 
L 169.808349 219.505694 
L 169.813178 218.796424 
L 170.033985 218.796424 
L 170.062595 218.087153 
L 170.34164 218.087153 
L 170.449309 217.377882 
L 170.467971 217.377882 
L 170.570284 216.313976 
L 170.579558 216.313976 
L 170.66743 215.250071 
L 170.800764 215.250071 
L 170.800764 214.895435 
L 170.960436 214.895435 
L 170.978599 213.831529 
L 171.123269 213.831529 
L 171.226568 212.767624 
L 171.244475 212.767624 
L 171.347112 210.994447 
L 171.404878 210.994447 
L 171.422616 210.285176 
L 171.555123 210.285176 
L 171.629799 209.575906 
L 171.71291 209.575906 
L 171.795656 208.512 
L 171.865055 208.512 
L 171.938512 207.802729 
L 172.135853 207.802729 
L 172.186995 206.029553 
L 172.305787 206.029553 
L 172.394392 205.320282 
L 172.461621 205.320282 
L 172.541145 204.611012 
L 172.591198 204.611012 
L 172.591198 204.256376 
L 172.719888 204.256376 
L 172.823033 203.192471 
L 172.851813 203.192471 
L 172.946065 202.128565 
L 173.023571 202.128565 
L 173.080478 201.419294 
L 173.278305 201.419294 
L 173.354457 200.000753 
L 173.45021 200.000753 
L 173.541519 199.291482 
L 173.636328 199.291482 
L 173.7385 198.227576 
L 173.750254 198.227576 
L 173.750254 197.872941 
L 173.867387 197.872941 
L 173.941196 196.809035 
L 174.022439 196.809035 
L 174.126381 195.745129 
L 174.347741 195.745129 
L 174.347741 195.390494 
L 174.49137 195.390494 
L 174.562776 194.681224 
L 174.603992 194.681224 
L 174.712223 193.262682 
L 174.786503 193.262682 
L 174.786503 192.908047 
L 174.945221 192.908047 
L 175.000273 191.844141 
L 175.10261 191.844141 
L 175.182628 191.134871 
L 175.276758 191.134871 
L 175.345249 189.361694 
L 175.402733 189.361694 
L 175.445731 188.297788 
L 175.591903 188.297788 
L 175.691079 187.588518 
L 175.715792 187.588518 
L 175.782706 186.879247 
L 175.898362 186.879247 
L 175.96463 185.815341 
L 176.061866 185.815341 
L 176.093013 184.751435 
L 176.193029 184.751435 
L 176.203345 184.042165 
L 176.520373 184.042165 
L 176.618148 182.978259 
L 176.658458 182.978259 
L 176.748842 181.205082 
L 176.782208 181.205082 
L 176.815515 180.495812 
L 176.915082 180.495812 
L 176.915082 180.141176 
L 177.168252 180.141176 
L 177.249723 179.077271 
L 177.327604 179.077271 
L 177.356727 178.368 
L 177.482406 178.368 
L 177.517703 177.658729 
L 177.661413 177.658729 
L 177.661413 177.304094 
L 177.854483 177.304094 
L 177.895374 176.240188 
L 177.98002 176.240188 
L 178.070512 175.176282 
L 178.342476 175.176282 
L 178.415971 173.403106 
L 178.486135 173.403106 
L 178.501354 172.693835 
L 178.62266 172.693835 
L 178.731171 171.629929 
L 178.842048 171.629929 
L 178.842048 171.275294 
L 178.999742 171.275294 
L 179.109051 170.211388 
L 179.264532 170.211388 
L 179.369413 168.438212 
L 179.410043 168.438212 
L 179.514118 167.374306 
L 179.560189 167.374306 
L 179.654857 166.665035 
L 179.689164 166.665035 
L 179.771814 165.246494 
L 179.828604 165.246494 
L 179.904999 164.537224 
L 180.020416 164.537224 
L 180.076462 163.827953 
L 180.176924 163.827953 
L 180.221402 163.118682 
L 180.301752 163.118682 
L 180.359723 162.409412 
L 180.423011 162.409412 
L 180.513445 160.636235 
L 180.641498 160.636235 
L 180.714669 159.926965 
L 180.801022 159.926965 
L 180.860161 158.153788 
L 180.924465 158.153788 
L 180.985884 157.089882 
L 181.06835 157.089882 
L 181.073658 156.380612 
L 181.211143 156.380612 
L 181.276886 155.316706 
L 181.441545 155.316706 
L 181.514267 154.607435 
L 181.568624 154.607435 
L 181.664017 152.834259 
L 181.682009 152.834259 
L 181.789607 151.415718 
L 181.822786 151.415718 
L 181.914364 150.351812 
L 181.965049 150.351812 
L 182.07356 148.578635 
L 182.118798 148.578635 
L 182.216443 147.160094 
L 182.248879 147.160094 
L 182.348332 146.096188 
L 182.405281 146.096188 
L 182.516205 144.677647 
L 182.52112 144.677647 
L 182.628923 143.259106 
L 182.641134 143.259106 
L 182.667971 142.549835 
L 182.837861 142.549835 
L 182.919829 141.485929 
L 182.975076 141.485929 
L 183.008625 140.776659 
L 183.089854 140.776659 
L 183.135094 139.712753 
L 183.24181 139.712753 
L 183.350275 137.939576 
L 183.390202 137.939576 
L 183.472139 137.230306 
L 183.507146 137.230306 
L 183.576965 135.811765 
L 183.711218 135.811765 
L 183.821604 134.393224 
L 183.839939 134.393224 
L 183.874269 133.683953 
L 183.963234 133.683953 
L 184.058574 132.265412 
L 184.074417 132.265412 
L 184.092508 131.556141 
L 184.19619 131.556141 
L 184.236606 129.782965 
L 184.348421 129.782965 
L 184.372931 128.719059 
L 184.495005 128.719059 
L 184.600899 127.300518 
L 184.622885 127.300518 
L 184.68869 125.881976 
L 184.819615 125.881976 
L 184.930188 124.818071 
L 185.035817 124.818071 
L 185.134442 123.044894 
L 185.16649 123.044894 
L 185.238933 122.335624 
L 185.294142 122.335624 
L 185.395644 120.562447 
L 185.509182 120.562447 
L 185.590758 119.498541 
L 185.632455 119.498541 
L 185.723864 118.08 
L 185.754925 118.08 
L 185.754925 117.725365 
L 185.876603 117.725365 
L 185.987283 116.306824 
L 185.995456 116.306824 
L 185.995456 115.952188 
L 186.135879 115.952188 
L 186.218826 113.824376 
L 186.265197 113.824376 
L 186.367614 112.405835 
L 186.38763 112.405835 
L 186.465492 110.278024 
L 186.51126 110.278024 
L 186.616303 109.214118 
L 186.66762 109.214118 
L 186.726658 107.795576 
L 186.842229 107.795576 
L 186.931845 106.0224 
L 186.957094 106.0224 
L 186.966796 105.313129 
L 187.082834 105.313129 
L 187.150193 103.539953 
L 187.207738 103.539953 
L 187.284193 102.476047 
L 187.335624 102.476047 
L 187.430498 100.348235 
L 187.532427 100.348235 
L 187.596323 98.220424 
L 187.684293 98.220424 
L 187.794144 95.737976 
L 187.801569 95.737976 
L 187.908895 94.674071 
L 187.966008 94.674071 
L 188.074232 92.546259 
L 188.092513 92.546259 
L 188.150894 91.482353 
L 188.276166 91.482353 
L 188.375426 90.063812 
L 188.397013 90.063812 
L 188.483116 88.290635 
L 188.547435 88.290635 
L 188.645278 85.808188 
L 188.663013 85.808188 
L 188.762021 84.389647 
L 188.797255 84.389647 
L 188.893811 82.616471 
L 188.963723 82.616471 
L 189.059429 81.197929 
L 189.095844 81.197929 
L 189.185711 79.779388 
L 189.21844 79.779388 
L 189.314575 77.651576 
L 189.336822 77.651576 
L 189.423846 76.233035 
L 189.473151 76.233035 
L 189.559547 74.459859 
L 189.61187 74.459859 
L 189.697633 73.750588 
L 189.736183 73.750588 
L 189.834712 71.977412 
L 189.849697 71.977412 
L 189.932728 70.558871 
L 190.008795 70.558871 
L 190.114117 68.785694 
L 190.184551 68.785694 
L 190.262865 66.657882 
L 190.305149 66.657882 
L 190.407214 65.593976 
L 190.511942 65.593976 
L 190.584107 63.8208 
L 190.657589 63.8208 
L 190.746661 61.338353 
L 190.791039 61.338353 
L 190.852677 60.274447 
L 190.904676 60.274447 
L 190.998851 58.501271 
L 191.136128 58.501271 
L 191.229155 57.082729 
L 191.275497 57.082729 
L 191.344796 56.018824 
L 191.398519 56.018824 
L 191.475001 54.245647 
L 191.566371 54.245647 
L 191.592179 53.536376 
L 191.687512 53.536376 
L 191.740267 52.472471 
L 191.834854 52.472471 
L 191.890184 51.053929 
L 192.00778 51.053929 
L 192.089219 49.635388 
L 192.154117 49.635388 
L 192.231993 48.571482 
L 192.28032 48.571482 
L 192.373692 47.152941 
L 192.39987 47.152941 
L 192.507108 45.7344 
L 192.531658 45.7344 
L 192.544641 45.025129 
L 192.675422 45.025129 
L 192.776833 43.961224 
L 192.859271 43.961224 
L 192.859271 43.251953 
L 193.053977 43.251953 
L 193.066606 42.542682 
L 193.239741 42.542682 
L 193.286936 41.833412 
L 193.396141 41.833412 
L 193.506086 40.769506 
L 193.69967 40.769506 
L 193.807861 39.350965 
L 193.928836 39.350965 
L 193.985026 38.641694 
L 194.04238 38.641694 
L 194.151271 37.577788 
L 194.161861 37.577788 
L 194.161861 37.223153 
L 194.304244 37.223153 
L 194.386805 36.513882 
L 194.449467 36.513882 
L 194.514518 35.449976 
L 194.674882 35.449976 
L 194.784024 34.386071 
L 194.968758 34.386071 
L 195.019402 33.6768 
L 195.081255 33.6768 
L 195.081255 33.322165 
L 195.246875 33.322165 
L 195.246875 32.967529 
L 195.476567 32.967529 
L 195.476567 32.612894 
L 195.691292 32.612894 
L 195.691292 32.258259 
L 195.814113 32.258259 
L 195.814113 31.903624 
L 196.019047 31.903624 
L 196.019047 31.548988 
L 196.143326 31.548988 
L 196.249033 30.839718 
L 196.384746 30.839718 
L 196.384746 30.485082 
L 196.568458 30.485082 
L 196.568458 30.130447 
L 196.681071 30.130447 
L 196.681071 29.775812 
L 196.916873 29.775812 
L 196.916873 29.421176 
L 197.030834 29.421176 
L 197.030834 29.066541 
L 197.19824 29.066541 
L 197.285871 28.357271 
L 197.325061 28.357271 
L 197.325061 28.002635 
L 197.438807 28.002635 
L 197.438807 27.648 
L 360.8064 27.648 
L 360.8064 27.648 
" style="fill: none; stroke: #ff00ff; stroke-width: 1.5; stroke-linecap: square"/>
   </g>
   <g id="line2d_40">
    <defs>
     <path id="m3cea45b77a" d="M -0 8.485281 
L 5.091169 0 
L 0 -8.485281 
L -5.091169 -0 
z
" style="stroke: #ff00ff; stroke-width: 1.5; stroke-linejoin: miter"/>
    </defs>
    <g>
     <use xlink:href="#m3cea45b77a" x="171.865055" y="208.157365" style="fill-opacity: 0; stroke: #ff00ff; stroke-width: 1.5; stroke-linejoin: miter"/>
     <use xlink:href="#m3cea45b77a" x="197.438807" y="28.002635" style="fill-opacity: 0; stroke: #ff00ff; stroke-width: 1.5; stroke-linejoin: miter"/>
     <use xlink:href="#m3cea45b77a" x="197.438807" y="27.648" style="fill-opacity: 0; stroke: #ff00ff; stroke-width: 1.5; stroke-linejoin: miter"/>
     <use xlink:href="#m3cea45b77a" x="197.438807" y="27.648" style="fill-opacity: 0; stroke: #ff00ff; stroke-width: 1.5; stroke-linejoin: miter"/>
     <use xlink:href="#m3cea45b77a" x="360.8064" y="27.648" style="fill-opacity: 0; stroke: #ff00ff; stroke-width: 1.5; stroke-linejoin: miter"/>
    </g>
   </g>
   <g id="line2d_41">
    <path style="fill: none; stroke: #ff00ff; stroke-width: 1.5; stroke-linecap: square"/>
    <g/>
   </g>
   <g id="line2d_42">
    <defs>
     <path id="m0a748c1a13" d="M 0 1.5 
C 0.397805 1.5 0.77937 1.341951 1.06066 1.06066 
C 1.341951 0.77937 1.5 0.397805 1.5 0 
C 1.5 -0.397805 1.341951 -0.77937 1.06066 -1.06066 
C 0.77937 -1.341951 0.397805 -1.5 0 -1.5 
C -0.397805 -1.5 -0.77937 -1.341951 -1.06066 -1.06066 
C -1.341951 -0.77937 -1.5 -0.397805 -1.5 0 
C -1.5 0.397805 -1.341951 0.77937 -1.06066 1.06066 
C -0.77937 1.341951 -0.397805 1.5 0 1.5 
z
" style="stroke: #ff7500"/>
    </defs>
    <g>
     <use xlink:href="#m0a748c1a13" x="199.175054" y="27.648" style="fill: #ff7500; stroke: #ff7500"/>
     <use xlink:href="#m0a748c1a13" x="199.175054" y="27.648" style="fill: #ff7500; stroke: #ff7500"/>
    </g>
   </g>
   <g id="line2d_43">
    <path d="M 138.692823 298.944 
L 138.692823 298.589365 
L 138.943648 298.589365 
L 138.968547 297.880094 
L 139.362521 297.880094 
L 139.386872 297.170824 
L 139.724525 297.170824 
L 139.724525 296.816188 
L 140.032723 296.816188 
L 140.126547 295.752282 
L 140.382174 295.752282 
L 140.474275 294.688376 
L 140.611586 294.688376 
L 140.634374 293.979106 
L 140.747902 293.979106 
L 140.747902 293.624471 
L 141.283499 293.624471 
L 141.283499 292.9152 
L 141.436884 292.9152 
L 141.50224 291.851294 
L 141.67542 291.851294 
L 141.739954 290.787388 
L 141.868361 290.787388 
L 141.953481 289.723482 
L 141.995897 289.723482 
L 142.038218 288.659576 
L 142.143605 288.659576 
L 142.185595 287.595671 
L 142.269295 287.595671 
L 142.290162 286.8864 
L 142.435586 286.8864 
L 142.497568 286.177129 
L 142.702713 286.177129 
L 142.804452 284.403953 
L 142.824734 284.403953 
L 142.824734 284.049318 
L 142.945969 284.049318 
L 142.986208 282.276141 
L 143.086429 282.276141 
L 143.146307 281.566871 
L 143.344534 281.566871 
L 143.38393 279.439059 
L 143.657415 279.439059 
L 143.715505 277.665882 
L 143.792681 277.665882 
L 143.850356 276.601976 
L 143.984246 276.601976 
L 144.022326 275.892706 
L 144.173881 275.892706 
L 144.2304 274.474165 
L 144.380294 274.474165 
L 144.380294 274.119529 
L 144.510478 274.119529 
L 144.602918 272.700988 
L 144.731576 272.700988 
L 144.804702 271.637082 
L 144.85936 271.637082 
L 144.968202 269.509271 
L 145.004344 269.509271 
L 145.004344 269.154635 
L 145.237585 269.154635 
L 145.255407 268.445365 
L 145.415054 268.445365 
L 145.46797 267.736094 
L 145.538293 267.736094 
L 145.608355 266.317553 
L 145.66073 266.317553 
L 145.7477 264.899012 
L 145.886021 264.899012 
L 145.886021 264.189741 
L 146.057504 264.189741 
L 146.091614 263.125835 
L 146.244347 263.125835 
L 146.311833 261.707294 
L 146.379077 261.707294 
L 146.462796 260.643388 
L 146.512849 260.643388 
L 146.612557 259.579482 
L 146.695245 259.579482 
L 146.761135 258.870212 
L 146.941151 258.870212 
L 147.006187 257.806306 
L 147.070998 257.806306 
L 147.135588 256.7424 
L 147.264104 256.7424 
L 147.328035 255.323859 
L 147.375841 255.323859 
L 147.455248 254.614588 
L 147.518533 254.614588 
L 147.518533 254.259953 
L 147.816265 254.259953 
L 147.816265 253.905318 
L 148.337564 253.905318 
L 148.44312 253.196047 
L 148.518156 253.196047 
L 148.518156 252.132141 
L 148.903591 252.132141 
L 148.903591 251.777506 
L 149.395993 251.777506 
L 149.395993 251.422871 
L 149.524205 251.422871 
L 149.524205 250.7136 
L 149.91759 250.7136 
L 149.91759 250.358965 
L 150.166205 250.358965 
L 150.262008 248.940424 
L 150.640414 248.940424 
L 150.640414 248.585788 
L 150.971962 248.585788 
L 150.971962 248.231153 
L 151.116012 248.231153 
L 151.116012 247.876518 
L 151.439354 247.876518 
L 151.439354 247.167247 
L 151.769835 247.167247 
L 151.769835 246.812612 
L 152.352898 246.812612 
L 152.352898 246.457976 
L 152.691854 246.457976 
L 152.691854 246.103341 
L 154.682245 246.103341 
L 154.682245 245.748706 
L 155.360594 245.748706 
L 155.360594 245.394071 
L 158.223191 245.394071 
L 158.223191 245.039435 
L 158.752135 245.039435 
L 158.752135 244.6848 
L 159.096679 244.6848 
L 159.096679 244.330165 
L 159.535354 244.330165 
L 159.535354 243.975529 
L 159.841374 243.975529 
L 159.841374 243.620894 
L 160.894266 243.620894 
L 160.894266 243.266259 
L 161.369176 243.266259 
L 161.369176 242.911624 
L 161.482294 242.911624 
L 161.482294 242.556988 
L 161.913396 242.556988 
L 161.913396 242.202353 
L 162.088932 242.202353 
L 162.088932 241.847718 
L 162.233972 241.847718 
L 162.233972 241.493082 
L 162.690724 241.493082 
L 162.690724 241.138447 
L 162.852198 241.138447 
L 162.859187 240.429176 
L 162.998429 240.429176 
L 162.998429 240.074541 
L 163.212239 240.074541 
L 163.212239 239.719906 
L 163.885835 239.719906 
L 163.905675 239.010635 
L 164.187772 239.010635 
L 164.278712 238.301365 
L 164.433594 238.301365 
L 164.433594 237.946729 
L 164.568077 237.946729 
L 164.63178 236.882824 
L 164.802709 236.882824 
L 164.802709 236.528188 
L 165.059334 236.528188 
L 165.133786 235.464282 
L 165.398179 235.464282 
L 165.495616 234.755012 
L 165.64686 234.755012 
L 165.755007 233.336471 
L 165.96353 233.336471 
L 166.052194 232.6272 
L 166.081656 232.6272 
L 166.146311 231.563294 
L 166.251633 231.563294 
L 166.269129 230.854024 
L 166.541136 230.854024 
L 166.575579 230.144753 
L 166.667119 230.144753 
L 166.667119 229.790118 
L 166.814929 229.790118 
L 166.814929 229.435482 
L 167.01769 229.435482 
L 167.112684 227.307671 
L 167.218289 227.307671 
L 167.323305 225.534494 
L 167.558829 225.534494 
L 167.651136 224.470588 
L 167.999955 224.470588 
L 167.999955 224.115953 
L 168.111282 224.115953 
L 168.216699 222.697412 
L 168.347644 222.697412 
L 168.347644 221.988141 
L 168.637696 221.988141 
L 168.714635 220.924235 
L 168.765753 220.924235 
L 168.770857 220.214965 
L 168.928405 220.214965 
L 169.014245 219.151059 
L 169.084644 219.151059 
L 169.179765 218.087153 
L 169.214689 218.087153 
L 169.304197 217.377882 
L 169.333939 217.377882 
L 169.427812 216.313976 
L 169.501592 216.313976 
L 169.501592 215.959341 
L 169.643419 215.959341 
L 169.706651 214.5408 
L 169.813178 214.5408 
L 169.875843 213.476894 
L 170.019663 213.476894 
L 170.110183 212.767624 
L 170.148167 212.767624 
L 170.238073 212.058353 
L 170.336945 212.058353 
L 170.444641 210.994447 
L 170.449309 210.994447 
L 170.486615 210.285176 
L 170.584193 210.285176 
L 170.685877 209.221271 
L 170.764077 209.221271 
L 170.869361 207.448094 
L 170.942257 207.448094 
L 171.037505 206.738824 
L 171.055593 206.738824 
L 171.154768 205.674918 
L 171.172743 205.674918 
L 171.280238 204.965647 
L 171.311476 204.965647 
L 171.413749 204.256376 
L 171.440338 204.256376 
L 171.537509 203.192471 
L 171.651706 203.192471 
L 171.725999 202.128565 
L 171.773916 202.128565 
L 171.843395 200.355388 
L 171.899659 200.355388 
L 171.96437 199.646118 
L 172.011684 199.646118 
L 172.063164 198.582212 
L 172.152916 198.582212 
L 172.237998 197.872941 
L 172.305787 197.872941 
L 172.381759 196.4544 
L 172.507702 196.4544 
L 172.582865 195.390494 
L 172.620334 195.390494 
L 172.72816 194.681224 
L 172.794209 194.681224 
L 172.851813 193.617318 
L 172.958324 193.617318 
L 173.047981 192.198776 
L 173.149347 192.198776 
L 173.149347 191.844141 
L 173.266252 191.844141 
L 173.374446 189.716329 
L 173.394413 189.716329 
L 173.474073 188.652424 
L 173.50981 188.652424 
L 173.60083 187.943153 
L 173.695341 187.943153 
L 173.769827 186.879247 
L 173.840121 186.879247 
L 173.914037 185.815341 
L 174.099488 185.815341 
L 174.191533 185.106071 
L 174.252647 185.106071 
L 174.328761 183.687529 
L 174.370492 183.687529 
L 174.446132 182.268988 
L 174.513949 182.268988 
L 174.596505 181.205082 
L 174.667513 181.205082 
L 174.771671 179.786541 
L 174.79021 179.786541 
L 174.897377 178.722635 
L 174.923154 178.722635 
L 174.970932 177.304094 
L 175.10261 177.304094 
L 175.139024 176.240188 
L 175.273147 176.240188 
L 175.32725 175.530918 
L 175.40632 175.530918 
L 175.510044 174.467012 
L 175.609652 174.467012 
L 175.609652 173.757741 
L 175.729899 173.757741 
L 175.729899 173.403106 
L 175.88438 173.403106 
L 175.88438 173.048471 
L 176.016783 173.048471 
L 176.12411 171.275294 
L 176.168936 171.275294 
L 176.265124 170.211388 
L 176.394883 170.211388 
L 176.486539 168.792847 
L 176.533889 168.792847 
L 176.567638 167.728941 
L 176.645031 167.728941 
L 176.722107 167.019671 
L 176.828821 167.019671 
L 176.885267 165.601129 
L 176.971271 165.601129 
L 177.079865 164.891859 
L 177.109374 164.891859 
L 177.109374 164.537224 
L 177.275719 164.537224 
L 177.275719 164.182588 
L 177.398713 164.182588 
L 177.488828 163.118682 
L 177.61682 163.118682 
L 177.658231 162.054776 
L 177.929905 162.054776 
L 178.03 160.636235 
L 178.058056 160.636235 
L 178.064285 159.926965 
L 178.200804 159.926965 
L 178.216255 158.863059 
L 178.336339 158.863059 
L 178.412915 158.153788 
L 178.5196 158.153788 
L 178.574231 157.089882 
L 178.782196 157.089882 
L 178.886813 155.316706 
L 178.91362 155.316706 
L 178.91362 154.962071 
L 179.135545 154.962071 
L 179.211871 152.834259 
L 179.284971 152.834259 
L 179.314132 152.124988 
L 179.398443 152.124988 
L 179.493926 150.706447 
L 179.609017 150.706447 
L 179.689164 149.287906 
L 179.743355 149.287906 
L 179.837108 147.869365 
L 179.904999 147.869365 
L 179.904999 147.514729 
L 180.054064 147.514729 
L 180.163003 146.450824 
L 180.168573 146.450824 
L 180.274084 145.386918 
L 180.33214 145.386918 
L 180.420264 144.677647 
L 180.466912 144.677647 
L 180.466912 144.323012 
L 180.598003 144.323012 
L 180.630634 142.904471 
L 180.738996 142.904471 
L 180.825238 141.840565 
L 180.886981 141.840565 
L 180.985884 140.776659 
L 180.99921 140.776659 
L 180.99921 140.422024 
L 181.211143 140.422024 
L 181.255873 139.712753 
L 181.324079 139.712753 
L 181.428529 138.294212 
L 181.444147 138.294212 
L 181.444147 137.939576 
L 181.669159 137.939576 
L 181.771717 135.811765 
L 181.825336 135.811765 
L 181.921976 134.393224 
L 182.010548 134.393224 
L 182.091166 133.683953 
L 182.178947 133.683953 
L 182.281259 131.910776 
L 182.447262 131.910776 
L 182.516205 130.846871 
L 182.562845 130.846871 
L 182.609368 129.428329 
L 182.714236 129.428329 
L 182.811266 128.009788 
L 182.845108 128.009788 
L 182.910204 127.300518 
L 183.080316 127.300518 
L 183.17548 125.172706 
L 183.211043 125.172706 
L 183.291404 123.754165 
L 183.350275 123.754165 
L 183.427703 123.044894 
L 183.479146 123.044894 
L 183.537433 121.626353 
L 183.623367 121.626353 
L 183.64884 120.562447 
L 183.75499 120.562447 
L 183.858256 118.434635 
L 183.919944 118.434635 
L 184.029116 117.370729 
L 184.072155 117.370729 
L 184.121867 115.952188 
L 184.236606 115.952188 
L 184.256782 114.888282 
L 184.359566 114.888282 
L 184.470653 113.469741 
L 184.479512 113.469741 
L 184.5392 112.0512 
L 184.631672 112.0512 
L 184.719321 110.987294 
L 184.843519 110.987294 
L 184.951793 109.923388 
L 184.956111 109.923388 
L 185.035817 108.504847 
L 185.074471 108.504847 
L 185.074471 108.150212 
L 185.209137 108.150212 
L 185.319569 107.086306 
L 185.361871 107.086306 
L 185.420934 105.667765 
L 185.538506 105.667765 
L 185.642864 103.894588 
L 185.653269 103.894588 
L 185.759062 103.185318 
L 185.788 103.185318 
L 185.880714 101.057506 
L 185.90536 101.057506 
L 186.001583 99.638965 
L 186.06071 99.638965 
L 186.093253 98.929694 
L 186.17234 98.929694 
L 186.17234 98.575059 
L 186.311454 98.575059 
L 186.407626 96.447247 
L 186.431592 96.447247 
L 186.517221 95.383341 
L 186.560881 95.383341 
L 186.641979 94.319435 
L 186.693226 94.319435 
L 186.769835 92.546259 
L 186.824645 92.546259 
L 186.885142 91.127718 
L 187.019102 91.127718 
L 187.115581 88.645271 
L 187.150193 88.645271 
L 187.247916 87.226729 
L 187.322304 87.226729 
L 187.41535 86.162824 
L 187.436175 86.162824 
L 187.536192 84.035012 
L 187.555003 84.035012 
L 187.596323 82.616471 
L 187.701091 82.616471 
L 187.80528 80.843294 
L 187.814554 80.843294 
L 187.879349 79.424753 
L 187.934709 79.424753 
L 187.997255 78.006212 
L 188.136316 78.006212 
L 188.223617 75.8784 
L 188.249004 75.8784 
L 188.333981 74.814494 
L 188.370025 74.814494 
L 188.477746 72.332047 
L 188.543867 72.332047 
L 188.616867 70.913506 
L 188.687814 70.913506 
L 188.797255 69.140329 
L 188.804294 69.140329 
L 188.814848 68.431059 
L 188.928799 68.431059 
L 189.033376 67.367153 
L 189.092379 67.367153 
L 189.175363 66.303247 
L 189.214998 66.303247 
L 189.282013 65.239341 
L 189.493515 65.239341 
L 189.583195 63.8208 
L 189.628717 63.8208 
L 189.727809 62.756894 
L 189.7479 62.756894 
L 189.843039 61.692988 
L 189.887937 61.692988 
L 189.947635 60.629082 
L 190.031885 60.629082 
L 190.138717 59.919812 
L 190.169831 59.919812 
L 190.256351 58.501271 
L 190.300275 58.501271 
L 190.379727 57.437365 
L 190.462068 57.437365 
L 190.555274 56.373459 
L 190.609698 56.373459 
L 190.700587 54.954918 
L 190.730786 54.954918 
L 190.838471 53.181741 
L 190.866873 53.181741 
L 190.976919 52.117835 
L 190.994154 52.117835 
L 191.105017 50.344659 
L 191.109687 50.344659 
L 191.216778 49.280753 
L 191.233795 49.280753 
L 191.330956 48.216847 
L 191.381651 48.216847 
L 191.487209 46.089035 
L 191.555734 46.089035 
L 191.661835 45.025129 
L 191.675433 45.025129 
L 191.783866 43.961224 
L 191.831858 43.961224 
L 191.866277 42.897318 
L 191.986994 42.897318 
L 192.07148 41.124141 
L 192.109892 41.124141 
L 192.196768 40.060235 
L 192.270079 40.060235 
L 192.363502 38.996329 
L 192.528771 38.996329 
L 192.528771 38.641694 
L 192.653928 38.641694 
L 192.659662 37.932424 
L 192.813833 37.932424 
L 192.918743 37.223153 
L 193.093238 37.223153 
L 193.181277 36.513882 
L 193.321563 36.513882 
L 193.321563 36.159247 
L 193.631734 36.159247 
L 193.631734 35.804612 
L 193.989033 35.804612 
L 193.989033 35.449976 
L 194.310809 35.449976 
L 194.310809 35.095341 
L 194.718615 35.095341 
L 194.718615 34.740706 
L 195.066126 34.740706 
L 195.066126 34.386071 
L 195.402379 34.386071 
L 195.402379 34.031435 
L 195.85286 34.031435 
L 195.85286 33.6768 
L 196.109947 33.6768 
L 196.109947 33.322165 
L 196.32704 33.322165 
L 196.32704 32.967529 
L 196.589406 32.967529 
L 196.589406 32.612894 
L 196.768835 32.612894 
L 196.768835 32.258259 
L 196.968241 32.258259 
L 196.968241 31.903624 
L 197.159913 31.903624 
L 197.159913 31.548988 
L 197.378674 31.548988 
L 197.378674 31.194353 
L 197.66206 31.194353 
L 197.66206 30.839718 
L 197.832677 30.839718 
L 197.832677 30.485082 
L 197.999603 30.485082 
L 197.999603 30.130447 
L 198.159711 30.130447 
L 198.159711 29.775812 
L 198.374618 29.775812 
L 198.374618 29.421176 
L 198.486416 29.421176 
L 198.486416 29.066541 
L 198.730888 29.066541 
L 198.730888 28.711906 
L 198.906524 28.711906 
L 198.906524 28.357271 
L 199.08563 28.357271 
L 199.175054 27.648 
L 360.8064 27.648 
L 360.8064 27.648 
" style="fill: none; stroke: #ff7500; stroke-width: 1.5; stroke-linecap: square"/>
   </g>
   <g id="line2d_44">
    <defs>
     <path id="ma3105b7fd3" d="M 0 -6 
L -1.347084 -1.854102 
L -5.706339 -1.854102 
L -2.179628 0.708204 
L -3.526712 4.854102 
L -0 2.291796 
L 3.526712 4.854102 
L 2.179628 0.708204 
L 5.706339 -1.854102 
L 1.347084 -1.854102 
z
" style="stroke: #ff7500; stroke-width: 1.5; stroke-linejoin: bevel"/>
    </defs>
    <g>
     <use xlink:href="#ma3105b7fd3" x="186.560881" y="95.383341" style="fill-opacity: 0; stroke: #ff7500; stroke-width: 1.5; stroke-linejoin: bevel"/>
     <use xlink:href="#ma3105b7fd3" x="199.175054" y="28.002635" style="fill-opacity: 0; stroke: #ff7500; stroke-width: 1.5; stroke-linejoin: bevel"/>
     <use xlink:href="#ma3105b7fd3" x="199.175054" y="27.648" style="fill-opacity: 0; stroke: #ff7500; stroke-width: 1.5; stroke-linejoin: bevel"/>
     <use xlink:href="#ma3105b7fd3" x="199.175054" y="27.648" style="fill-opacity: 0; stroke: #ff7500; stroke-width: 1.5; stroke-linejoin: bevel"/>
     <use xlink:href="#ma3105b7fd3" x="360.8064" y="27.648" style="fill-opacity: 0; stroke: #ff7500; stroke-width: 1.5; stroke-linejoin: bevel"/>
    </g>
   </g>
   <g id="line2d_45">
    <path style="fill: none; stroke: #ff7500; stroke-width: 1.5; stroke-linecap: square"/>
    <g/>
   </g>
   <g id="line2d_46">
    <path d="M 360.8064 27.648 
L 380.514816 293.51808 
" style="fill: none; stroke: #000080; stroke-width: 1.5; stroke-linecap: square"/>
    <g>
     <use xlink:href="#m96a2c75d28" x="360.8064" y="27.648" style="fill-opacity: 0; stroke: #000080; stroke-width: 1.5"/>
     <use xlink:href="#m96a2c75d28" x="380.514816" y="293.51808" style="fill-opacity: 0; stroke: #000080; stroke-width: 1.5"/>
    </g>
   </g>
   <g id="line2d_47">
    <path d="M 360.8064 27.648 
L 380.514816 206.70336 
" style="fill: none; stroke: #ff7500; stroke-width: 1.5; stroke-linecap: square"/>
    <g>
     <use xlink:href="#ma3105b7fd3" x="360.8064" y="27.648" style="fill-opacity: 0; stroke: #ff7500; stroke-width: 1.5; stroke-linejoin: bevel"/>
     <use xlink:href="#ma3105b7fd3" x="380.514816" y="206.70336" style="fill-opacity: 0; stroke: #ff7500; stroke-width: 1.5; stroke-linejoin: bevel"/>
    </g>
   </g>
   <g id="line2d_48">
    <path d="M 360.8064 27.648 
L 380.514816 119.88864 
" style="fill: none; stroke: #ff00ff; stroke-width: 1.5; stroke-linecap: square"/>
    <g>
     <use xlink:href="#m3cea45b77a" x="360.8064" y="27.648" style="fill-opacity: 0; stroke: #ff00ff; stroke-width: 1.5; stroke-linejoin: miter"/>
     <use xlink:href="#m3cea45b77a" x="380.514816" y="119.88864" style="fill-opacity: 0; stroke: #ff00ff; stroke-width: 1.5; stroke-linejoin: miter"/>
    </g>
   </g>
   <g id="line2d_49">
    <path d="M 360.8064 298.944 
L 360.8064 27.648 
" style="fill: none; stroke: #000000; stroke-width: 1.5; stroke-linecap: square"/>
   </g>
   <g id="patch_3">
    <path d="M 57.6 298.944 
L 360.8064 298.944 
" style="fill: none; stroke: #000000; stroke-width: 0.8; stroke-linejoin: miter; stroke-linecap: square"/>
   </g>
   <g id="patch_4">
    <path d="M 57.6 27.648 
L 360.8064 27.648 
" style="fill: none; stroke: #000000; stroke-width: 0.8; stroke-linejoin: miter; stroke-linecap: square"/>
   </g>
   <g id="text_13">
    <!-- cma0 -->
    <g transform="translate(386.578944 297.381205)scale(0.14 -0.14)">
     <use xlink:href="#DejaVuSans-63"/>
     <use xlink:href="#DejaVuSans-6d" x="54.980469"/>
     <use xlink:href="#DejaVuSans-61" x="152.392578"/>
     <use xlink:href="#DejaVuSans-30" x="213.671875"/>
    </g>
   </g>
   <g id="text_14">
    <!-- CMA-ES-20 -->
    <g transform="translate(386.578944 210.566485)scale(0.14 -0.14)">
     <defs>
      <path id="DejaVuSans-43" d="M 4122 4306 
L 4122 3641 
Q 3803 3938 3442 4084 
Q 3081 4231 2675 4231 
Q 1875 4231 1450 3742 
Q 1025 3253 1025 2328 
Q 1025 1406 1450 917 
Q 1875 428 2675 428 
Q 3081 428 3442 575 
Q 3803 722 4122 1019 
L 4122 359 
Q 3791 134 3420 21 
Q 3050 -91 2638 -91 
Q 1578 -91 968 557 
Q 359 1206 359 2328 
Q 359 3453 968 4101 
Q 1578 4750 2638 4750 
Q 3056 4750 3426 4639 
Q 3797 4528 4122 4306 
z
" transform="scale(0.015625)"/>
      <path id="DejaVuSans-4d" d="M 628 4666 
L 1569 4666 
L 2759 1491 
L 3956 4666 
L 4897 4666 
L 4897 0 
L 4281 0 
L 4281 4097 
L 3078 897 
L 2444 897 
L 1241 4097 
L 1241 0 
L 628 0 
L 628 4666 
z
" transform="scale(0.015625)"/>
      <path id="DejaVuSans-41" d="M 2188 4044 
L 1331 1722 
L 3047 1722 
L 2188 4044 
z
M 1831 4666 
L 2547 4666 
L 4325 0 
L 3669 0 
L 3244 1197 
L 1141 1197 
L 716 0 
L 50 0 
L 1831 4666 
z
" transform="scale(0.015625)"/>
      <path id="DejaVuSans-45" d="M 628 4666 
L 3578 4666 
L 3578 4134 
L 1259 4134 
L 1259 2753 
L 3481 2753 
L 3481 2222 
L 1259 2222 
L 1259 531 
L 3634 531 
L 3634 0 
L 628 0 
L 628 4666 
z
" transform="scale(0.015625)"/>
      <path id="DejaVuSans-53" d="M 3425 4513 
L 3425 3897 
Q 3066 4069 2747 4153 
Q 2428 4238 2131 4238 
Q 1616 4238 1336 4038 
Q 1056 3838 1056 3469 
Q 1056 3159 1242 3001 
Q 1428 2844 1947 2747 
L 2328 2669 
Q 3034 2534 3370 2195 
Q 3706 1856 3706 1288 
Q 3706 609 3251 259 
Q 2797 -91 1919 -91 
Q 1588 -91 1214 -16 
Q 841 59 441 206 
L 441 856 
Q 825 641 1194 531 
Q 1563 422 1919 422 
Q 2459 422 2753 634 
Q 3047 847 3047 1241 
Q 3047 1584 2836 1778 
Q 2625 1972 2144 2069 
L 1759 2144 
Q 1053 2284 737 2584 
Q 422 2884 422 3419 
Q 422 4038 858 4394 
Q 1294 4750 2059 4750 
Q 2388 4750 2728 4690 
Q 3069 4631 3425 4513 
z
" transform="scale(0.015625)"/>
     </defs>
     <use xlink:href="#DejaVuSans-43"/>
     <use xlink:href="#DejaVuSans-4d" x="69.824219"/>
     <use xlink:href="#DejaVuSans-41" x="156.103516"/>
     <use xlink:href="#DejaVuSans-2d" x="222.261719"/>
     <use xlink:href="#DejaVuSans-45" x="258.345703"/>
     <use xlink:href="#DejaVuSans-53" x="321.529297"/>
     <use xlink:href="#DejaVuSans-2d" x="385.005859"/>
     <use xlink:href="#DejaVuSans-32" x="421.089844"/>
     <use xlink:href="#DejaVuSans-30" x="484.712891"/>
    </g>
   </g>
   <g id="text_15">
    <!-- ddcma0 -->
    <g transform="translate(386.578944 123.751765)scale(0.14 -0.14)">
     <use xlink:href="#DejaVuSans-64"/>
     <use xlink:href="#DejaVuSans-64" x="63.476562"/>
     <use xlink:href="#DejaVuSans-63" x="126.953125"/>
     <use xlink:href="#DejaVuSans-6d" x="181.933594"/>
     <use xlink:href="#DejaVuSans-61" x="279.345703"/>
     <use xlink:href="#DejaVuSans-30" x="340.625"/>
    </g>
   </g>
   <g id="text_16">
    <!-- best 2009 -->
    <g transform="translate(386.578944 36.937045)scale(0.14 -0.14)">
     <defs>
      <path id="DejaVuSans-62" d="M 3116 1747 
Q 3116 2381 2855 2742 
Q 2594 3103 2138 3103 
Q 1681 3103 1420 2742 
Q 1159 2381 1159 1747 
Q 1159 1113 1420 752 
Q 1681 391 2138 391 
Q 2594 391 2855 752 
Q 3116 1113 3116 1747 
z
M 1159 2969 
Q 1341 3281 1617 3432 
Q 1894 3584 2278 3584 
Q 2916 3584 3314 3078 
Q 3713 2572 3713 1747 
Q 3713 922 3314 415 
Q 2916 -91 2278 -91 
Q 1894 -91 1617 61 
Q 1341 213 1159 525 
L 1159 0 
L 581 0 
L 581 4863 
L 1159 4863 
L 1159 2969 
z
" transform="scale(0.015625)"/>
      <path id="DejaVuSans-39" d="M 703 97 
L 703 672 
Q 941 559 1184 500 
Q 1428 441 1663 441 
Q 2288 441 2617 861 
Q 2947 1281 2994 2138 
Q 2813 1869 2534 1725 
Q 2256 1581 1919 1581 
Q 1219 1581 811 2004 
Q 403 2428 403 3163 
Q 403 3881 828 4315 
Q 1253 4750 1959 4750 
Q 2769 4750 3195 4129 
Q 3622 3509 3622 2328 
Q 3622 1225 3098 567 
Q 2575 -91 1691 -91 
Q 1453 -91 1209 -44 
Q 966 3 703 97 
z
M 1959 2075 
Q 2384 2075 2632 2365 
Q 2881 2656 2881 3163 
Q 2881 3666 2632 3958 
Q 2384 4250 1959 4250 
Q 1534 4250 1286 3958 
Q 1038 3666 1038 3163 
Q 1038 2656 1286 2365 
Q 1534 2075 1959 2075 
z
" transform="scale(0.015625)"/>
     </defs>
     <use xlink:href="#DejaVuSans-62"/>
     <use xlink:href="#DejaVuSans-65" x="63.476562"/>
     <use xlink:href="#DejaVuSans-73" x="125"/>
     <use xlink:href="#DejaVuSans-74" x="177.099609"/>
     <use xlink:href="#DejaVuSans-20" x="216.308594"/>
     <use xlink:href="#DejaVuSans-32" x="248.095703"/>
     <use xlink:href="#DejaVuSans-30" x="311.71875"/>
     <use xlink:href="#DejaVuSans-30" x="375.341797"/>
     <use xlink:href="#DejaVuSans-39" x="438.964844"/>
    </g>
   </g>
   <g id="text_17">
    <!-- bbob f12, 10-D -->
    <g transform="translate(60.632064 38.111366)scale(0.102 -0.102)">
     <defs>
      <path id="DejaVuSans-44" d="M 1259 4147 
L 1259 519 
L 2022 519 
Q 2988 519 3436 956 
Q 3884 1394 3884 2338 
Q 3884 3275 3436 3711 
Q 2988 4147 2022 4147 
L 1259 4147 
z
M 628 4666 
L 1925 4666 
Q 3281 4666 3915 4102 
Q 4550 3538 4550 2338 
Q 4550 1131 3912 565 
Q 3275 0 1925 0 
L 628 0 
L 628 4666 
z
" transform="scale(0.015625)"/>
     </defs>
     <use xlink:href="#DejaVuSans-62"/>
     <use xlink:href="#DejaVuSans-62" x="63.476562"/>
     <use xlink:href="#DejaVuSans-6f" x="126.953125"/>
     <use xlink:href="#DejaVuSans-62" x="188.134766"/>
     <use xlink:href="#DejaVuSans-20" x="251.611328"/>
     <use xlink:href="#DejaVuSans-66" x="283.398438"/>
     <use xlink:href="#DejaVuSans-31" x="318.603516"/>
     <use xlink:href="#DejaVuSans-32" x="382.226562"/>
     <use xlink:href="#DejaVuSans-2c" x="445.849609"/>
     <use xlink:href="#DejaVuSans-20" x="477.636719"/>
     <use xlink:href="#DejaVuSans-31" x="509.423828"/>
     <use xlink:href="#DejaVuSans-30" x="573.046875"/>
     <use xlink:href="#DejaVuSans-2d" x="636.669922"/>
     <use xlink:href="#DejaVuSans-44" x="672.753906"/>
    </g>
    <!-- 51 targets: 100..1e-08 -->
    <g transform="translate(60.632064 49.533135)scale(0.102 -0.102)">
     <defs>
      <path id="DejaVuSans-35" d="M 691 4666 
L 3169 4666 
L 3169 4134 
L 1269 4134 
L 1269 2991 
Q 1406 3038 1543 3061 
Q 1681 3084 1819 3084 
Q 2600 3084 3056 2656 
Q 3513 2228 3513 1497 
Q 3513 744 3044 326 
Q 2575 -91 1722 -91 
Q 1428 -91 1123 -41 
Q 819 9 494 109 
L 494 744 
Q 775 591 1075 516 
Q 1375 441 1709 441 
Q 2250 441 2565 725 
Q 2881 1009 2881 1497 
Q 2881 1984 2565 2268 
Q 2250 2553 1709 2553 
Q 1456 2553 1204 2497 
Q 953 2441 691 2322 
L 691 4666 
z
" transform="scale(0.015625)"/>
      <path id="DejaVuSans-3a" d="M 750 794 
L 1409 794 
L 1409 0 
L 750 0 
L 750 794 
z
M 750 3309 
L 1409 3309 
L 1409 2516 
L 750 2516 
L 750 3309 
z
" transform="scale(0.015625)"/>
     </defs>
     <use xlink:href="#DejaVuSans-35"/>
     <use xlink:href="#DejaVuSans-31" x="63.623047"/>
     <use xlink:href="#DejaVuSans-20" x="127.246094"/>
     <use xlink:href="#DejaVuSans-74" x="159.033203"/>
     <use xlink:href="#DejaVuSans-61" x="198.242188"/>
     <use xlink:href="#DejaVuSans-72" x="259.521484"/>
     <use xlink:href="#DejaVuSans-67" x="298.884766"/>
     <use xlink:href="#DejaVuSans-65" x="362.361328"/>
     <use xlink:href="#DejaVuSans-74" x="423.884766"/>
     <use xlink:href="#DejaVuSans-73" x="463.09375"/>
     <use xlink:href="#DejaVuSans-3a" x="515.193359"/>
     <use xlink:href="#DejaVuSans-20" x="548.884766"/>
     <use xlink:href="#DejaVuSans-31" x="580.671875"/>
     <use xlink:href="#DejaVuSans-30" x="644.294922"/>
     <use xlink:href="#DejaVuSans-30" x="707.917969"/>
     <use xlink:href="#DejaVuSans-2e" x="771.541016"/>
     <use xlink:href="#DejaVuSans-2e" x="803.328125"/>
     <use xlink:href="#DejaVuSans-31" x="835.115234"/>
     <use xlink:href="#DejaVuSans-65" x="898.738281"/>
     <use xlink:href="#DejaVuSans-2d" x="960.261719"/>
     <use xlink:href="#DejaVuSans-30" x="996.345703"/>
     <use xlink:href="#DejaVuSans-38" x="1059.96875"/>
    </g>
    <!-- 15 instances -->
    <g transform="translate(60.632064 60.954904)scale(0.102 -0.102)">
     <use xlink:href="#DejaVuSans-31"/>
     <use xlink:href="#DejaVuSans-35" x="63.623047"/>
     <use xlink:href="#DejaVuSans-20" x="127.246094"/>
     <use xlink:href="#DejaVuSans-69" x="159.033203"/>
     <use xlink:href="#DejaVuSans-6e" x="186.816406"/>
     <use xlink:href="#DejaVuSans-73" x="250.195312"/>
     <use xlink:href="#DejaVuSans-74" x="302.294922"/>
     <use xlink:href="#DejaVuSans-61" x="341.503906"/>
     <use xlink:href="#DejaVuSans-6e" x="402.783203"/>
     <use xlink:href="#DejaVuSans-63" x="466.162109"/>
     <use xlink:href="#DejaVuSans-65" x="521.142578"/>
     <use xlink:href="#DejaVuSans-73" x="582.666016"/>
    </g>
   </g>
   <g id="text_18">
    <!-- v2.6 -->
    <g style="fill: #808080" transform="translate(198.292262 294.151352)scale(0.1 -0.1)">
     <use xlink:href="#DejaVuSans-76"/>
     <use xlink:href="#DejaVuSans-32" x="59.179688"/>
     <use xlink:href="#DejaVuSans-2e" x="122.802734"/>
     <use xlink:href="#DejaVuSans-36" x="154.589844"/>
    </g>
   </g>
   <g id="text_19">
    <!-- 12 Bent cigar -->
    <g transform="translate(141.986012 21.648)scale(0.2 -0.2)">
     <defs>
      <path id="DejaVuSans-42" d="M 1259 2228 
L 1259 519 
L 2272 519 
Q 2781 519 3026 730 
Q 3272 941 3272 1375 
Q 3272 1813 3026 2020 
Q 2781 2228 2272 2228 
L 1259 2228 
z
M 1259 4147 
L 1259 2741 
L 2194 2741 
Q 2656 2741 2882 2914 
Q 3109 3088 3109 3444 
Q 3109 3797 2882 3972 
Q 2656 4147 2194 4147 
L 1259 4147 
z
M 628 4666 
L 2241 4666 
Q 2963 4666 3353 4366 
Q 3744 4066 3744 3513 
Q 3744 3084 3544 2831 
Q 3344 2578 2956 2516 
Q 3422 2416 3680 2098 
Q 3938 1781 3938 1306 
Q 3938 681 3513 340 
Q 3088 0 2303 0 
L 628 0 
L 628 4666 
z
" transform="scale(0.015625)"/>
     </defs>
     <use xlink:href="#DejaVuSans-31"/>
     <use xlink:href="#DejaVuSans-32" x="63.623047"/>
     <use xlink:href="#DejaVuSans-20" x="127.246094"/>
     <use xlink:href="#DejaVuSans-42" x="159.033203"/>
     <use xlink:href="#DejaVuSans-65" x="227.636719"/>
     <use xlink:href="#DejaVuSans-6e" x="289.160156"/>
     <use xlink:href="#DejaVuSans-74" x="352.539062"/>
     <use xlink:href="#DejaVuSans-20" x="391.748047"/>
     <use xlink:href="#DejaVuSans-63" x="423.535156"/>
     <use xlink:href="#DejaVuSans-69" x="478.515625"/>
     <use xlink:href="#DejaVuSans-67" x="506.298828"/>
     <use xlink:href="#DejaVuSans-61" x="569.775391"/>
     <use xlink:href="#DejaVuSans-72" x="631.054688"/>
    </g>
   </g>
  </g>
 </g>
 <defs>
  <clipPath id="p8d99dc10a7">
   <rect x="57.6" y="27.648" width="303.2064" height="271.296"/>
  </clipPath>
 </defs>
</svg>
