<?xml version="1.0" encoding="utf-8" standalone="no"?>
<!DOCTYPE svg PUBLIC "-//W3C//DTD SVG 1.1//EN"
  "http://www.w3.org/Graphics/SVG/1.1/DTD/svg11.dtd">
<svg xmlns:xlink="http://www.w3.org/1999/xlink" width="460.8pt" height="345.6pt" viewBox="0 0 460.8 345.6" xmlns="http://www.w3.org/2000/svg" version="1.1">
 <metadata>
  <rdf:RDF xmlns:dc="http://purl.org/dc/elements/1.1/" xmlns:cc="http://creativecommons.org/ns#" xmlns:rdf="http://www.w3.org/1999/02/22-rdf-syntax-ns#">
   <cc:Work>
    <dc:type rdf:resource="http://purl.org/dc/dcmitype/StillImage"/>
    <dc:date>2022-03-28T13:41:59.586314</dc:date>
    <dc:format>image/svg+xml</dc:format>
    <dc:creator>
     <cc:Agent>
      <dc:title>Matplotlib v3.5.1, https://matplotlib.org/</dc:title>
     </cc:Agent>
    </dc:creator>
   </cc:Work>
  </rdf:RDF>
 </metadata>
 <defs>
  <style type="text/css">*{stroke-linejoin: round; stroke-linecap: butt}</style>
 </defs>
 <g id="figure_1">
  <g id="patch_1">
   <path d="M 0 345.6 
L 460.8 345.6 
L 460.8 0 
L 0 0 
z
" style="fill: #ffffff"/>
  </g>
  <g id="axes_1">
   <g id="patch_2">
    <path d="M 57.6 298.944 
L 360.8064 298.944 
L 360.8064 27.648 
L 57.6 27.648 
z
" style="fill: #ffffff"/>
   </g>
   <g id="line2d_1">
    <path d="M 36.933397 298.944 
L 36.933397 272.346353 
L 94.205591 272.346353 
L 94.205591 267.026824 
L 97.485448 267.026824 
L 97.485448 261.707294 
L 102.12927 261.707294 
L 102.12927 256.387765 
L 109.756698 256.387765 
L 109.756698 251.068235 
L 113.316634 251.068235 
L 113.316634 245.748706 
L 115.460102 245.748706 
L 115.460102 240.429176 
L 117.899543 240.429176 
L 117.899543 235.109647 
L 121.371615 235.109647 
L 121.371615 229.790118 
L 124.3016 229.790118 
L 124.3016 224.470588 
L 126.355808 224.470588 
L 126.355808 219.151059 
L 128.060076 219.151059 
L 128.060076 213.831529 
L 128.499277 213.831529 
L 128.499277 208.512 
L 129.622688 208.512 
L 129.622688 203.192471 
L 130.292209 203.192471 
L 130.292209 197.872941 
L 130.682774 197.872941 
L 130.682774 192.553412 
L 131.065395 192.553412 
L 131.065395 187.233882 
L 131.440389 187.233882 
L 131.440389 181.914353 
L 131.686295 181.914353 
L 131.686295 176.594824 
L 131.808053 176.594824 
L 131.808053 171.275294 
L 132.168669 171.275294 
L 132.168669 165.955765 
L 132.287354 165.955765 
L 132.287354 160.636235 
L 132.405295 160.636235 
L 132.405295 155.316706 
L 132.638982 155.316706 
L 132.638982 144.677647 
L 132.869802 144.677647 
L 132.869802 139.358118 
L 132.984158 139.358118 
L 132.984158 128.719059 
L 133.097823 128.719059 
L 133.097823 123.399529 
L 133.210806 123.399529 
L 133.210806 118.08 
L 133.323114 118.08 
L 133.323114 112.760471 
L 133.434756 112.760471 
L 133.434756 107.440941 
L 133.545739 107.440941 
L 133.545739 102.121412 
L 133.765759 102.121412 
L 133.765759 91.482353 
L 133.983236 91.482353 
L 133.983236 80.843294 
L 134.091039 80.843294 
L 134.091039 75.523765 
L 134.198228 75.523765 
L 134.198228 70.204235 
L 134.304809 70.204235 
L 134.304809 59.565176 
L 134.41079 59.565176 
L 134.41079 54.245647 
L 134.516177 54.245647 
L 134.516177 43.606588 
L 134.620977 43.606588 
L 134.620977 32.967529 
L 134.725196 32.967529 
L 134.725196 27.648 
L 360.8064 27.648 
" style="fill: none; stroke: #f5deb3; stroke-width: 4; stroke-linecap: square"/>
   </g>
   <g id="line2d_2">
    <defs>
     <path id="m44a6410fa4" d="M -0 7.778175 
L 7.778175 0 
L 0 -7.778175 
L -7.778175 -0 
z
" style="stroke: #f5deb3; stroke-width: 1.5; stroke-linejoin: miter"/>
    </defs>
    <g>
     <use xlink:href="#m44a6410fa4" x="128.499277" y="208.512" style="fill: #f5deb3; stroke: #f5deb3; stroke-width: 1.5; stroke-linejoin: miter"/>
     <use xlink:href="#m44a6410fa4" x="134.091039" y="80.843294" style="fill: #f5deb3; stroke: #f5deb3; stroke-width: 1.5; stroke-linejoin: miter"/>
     <use xlink:href="#m44a6410fa4" x="134.725196" y="32.967529" style="fill: #f5deb3; stroke: #f5deb3; stroke-width: 1.5; stroke-linejoin: miter"/>
     <use xlink:href="#m44a6410fa4" x="134.725196" y="27.648" style="fill: #f5deb3; stroke: #f5deb3; stroke-width: 1.5; stroke-linejoin: miter"/>
     <use xlink:href="#m44a6410fa4" x="134.725196" y="27.648" style="fill: #f5deb3; stroke: #f5deb3; stroke-width: 1.5; stroke-linejoin: miter"/>
     <use xlink:href="#m44a6410fa4" x="360.8064" y="27.648" style="fill: #f5deb3; stroke: #f5deb3; stroke-width: 1.5; stroke-linejoin: miter"/>
    </g>
   </g>
   <g id="line2d_3">
    <path style="fill: none; stroke: #f5deb3; stroke-width: 4; stroke-linecap: square"/>
    <g/>
   </g>
   <g id="line2d_4">
    <path d="M 360.8064 27.648 
L 380.514816 33.07392 
" style="fill: none; stroke: #f5deb3; stroke-width: 4; stroke-linecap: square"/>
    <g>
     <use xlink:href="#m44a6410fa4" x="360.8064" y="27.648" style="fill: #f5deb3; stroke: #f5deb3; stroke-width: 1.5; stroke-linejoin: miter"/>
     <use xlink:href="#m44a6410fa4" x="380.514816" y="33.07392" style="fill: #f5deb3; stroke: #f5deb3; stroke-width: 1.5; stroke-linejoin: miter"/>
    </g>
   </g>
   <g id="matplotlib.axis_1">
    <g id="xtick_1">
     <g id="line2d_5">
      <path d="M 57.6 298.944 
L 57.6 27.648 
" clip-path="url(#p3c221dc95e)" style="fill: none; stroke: #b0b0b0; stroke-width: 0.8; stroke-linecap: square"/>
     </g>
     <g id="line2d_6">
      <defs>
       <path id="mfadf88c1bc" d="M 0 0 
L 0 3.5 
" style="stroke: #000000; stroke-width: 0.8"/>
      </defs>
      <g>
       <use xlink:href="#mfadf88c1bc" x="57.6" y="298.944" style="stroke: #000000; stroke-width: 0.8"/>
      </g>
     </g>
     <g id="text_1">
      <!-- 0 -->
      <g transform="translate(52.191875 318.861344)scale(0.17 -0.17)">
       <defs>
        <path id="DejaVuSans-30" d="M 2034 4250 
Q 1547 4250 1301 3770 
Q 1056 3291 1056 2328 
Q 1056 1369 1301 889 
Q 1547 409 2034 409 
Q 2525 409 2770 889 
Q 3016 1369 3016 2328 
Q 3016 3291 2770 3770 
Q 2525 4250 2034 4250 
z
M 2034 4750 
Q 2819 4750 3233 4129 
Q 3647 3509 3647 2328 
Q 3647 1150 3233 529 
Q 2819 -91 2034 -91 
Q 1250 -91 836 529 
Q 422 1150 422 2328 
Q 422 3509 836 4129 
Q 1250 4750 2034 4750 
z
" transform="scale(0.015625)"/>
       </defs>
       <use xlink:href="#DejaVuSans-30"/>
      </g>
     </g>
    </g>
    <g id="xtick_2">
     <g id="line2d_7">
      <path d="M 144.2304 298.944 
L 144.2304 27.648 
" clip-path="url(#p3c221dc95e)" style="fill: none; stroke: #b0b0b0; stroke-width: 0.8; stroke-linecap: square"/>
     </g>
     <g id="line2d_8">
      <g>
       <use xlink:href="#mfadf88c1bc" x="144.2304" y="298.944" style="stroke: #000000; stroke-width: 0.8"/>
      </g>
     </g>
     <g id="text_2">
      <!-- 2 -->
      <g transform="translate(138.822275 318.861344)scale(0.17 -0.17)">
       <defs>
        <path id="DejaVuSans-32" d="M 1228 531 
L 3431 531 
L 3431 0 
L 469 0 
L 469 531 
Q 828 903 1448 1529 
Q 2069 2156 2228 2338 
Q 2531 2678 2651 2914 
Q 2772 3150 2772 3378 
Q 2772 3750 2511 3984 
Q 2250 4219 1831 4219 
Q 1534 4219 1204 4116 
Q 875 4013 500 3803 
L 500 4441 
Q 881 4594 1212 4672 
Q 1544 4750 1819 4750 
Q 2544 4750 2975 4387 
Q 3406 4025 3406 3419 
Q 3406 3131 3298 2873 
Q 3191 2616 2906 2266 
Q 2828 2175 2409 1742 
Q 1991 1309 1228 531 
z
" transform="scale(0.015625)"/>
       </defs>
       <use xlink:href="#DejaVuSans-32"/>
      </g>
     </g>
    </g>
    <g id="xtick_3">
     <g id="line2d_9">
      <path d="M 230.8608 298.944 
L 230.8608 27.648 
" clip-path="url(#p3c221dc95e)" style="fill: none; stroke: #b0b0b0; stroke-width: 0.8; stroke-linecap: square"/>
     </g>
     <g id="line2d_10">
      <g>
       <use xlink:href="#mfadf88c1bc" x="230.8608" y="298.944" style="stroke: #000000; stroke-width: 0.8"/>
      </g>
     </g>
     <g id="text_3">
      <!-- 4 -->
      <g transform="translate(225.452675 318.861344)scale(0.17 -0.17)">
       <defs>
        <path id="DejaVuSans-34" d="M 2419 4116 
L 825 1625 
L 2419 1625 
L 2419 4116 
z
M 2253 4666 
L 3047 4666 
L 3047 1625 
L 3713 1625 
L 3713 1100 
L 3047 1100 
L 3047 0 
L 2419 0 
L 2419 1100 
L 313 1100 
L 313 1709 
L 2253 4666 
z
" transform="scale(0.015625)"/>
       </defs>
       <use xlink:href="#DejaVuSans-34"/>
      </g>
     </g>
    </g>
    <g id="xtick_4">
     <g id="line2d_11">
      <path d="M 317.4912 298.944 
L 317.4912 27.648 
" clip-path="url(#p3c221dc95e)" style="fill: none; stroke: #b0b0b0; stroke-width: 0.8; stroke-linecap: square"/>
     </g>
     <g id="line2d_12">
      <g>
       <use xlink:href="#mfadf88c1bc" x="317.4912" y="298.944" style="stroke: #000000; stroke-width: 0.8"/>
      </g>
     </g>
     <g id="text_4">
      <!-- 6 -->
      <g transform="translate(312.083075 318.861344)scale(0.17 -0.17)">
       <defs>
        <path id="DejaVuSans-36" d="M 2113 2584 
Q 1688 2584 1439 2293 
Q 1191 2003 1191 1497 
Q 1191 994 1439 701 
Q 1688 409 2113 409 
Q 2538 409 2786 701 
Q 3034 994 3034 1497 
Q 3034 2003 2786 2293 
Q 2538 2584 2113 2584 
z
M 3366 4563 
L 3366 3988 
Q 3128 4100 2886 4159 
Q 2644 4219 2406 4219 
Q 1781 4219 1451 3797 
Q 1122 3375 1075 2522 
Q 1259 2794 1537 2939 
Q 1816 3084 2150 3084 
Q 2853 3084 3261 2657 
Q 3669 2231 3669 1497 
Q 3669 778 3244 343 
Q 2819 -91 2113 -91 
Q 1303 -91 875 529 
Q 447 1150 447 2328 
Q 447 3434 972 4092 
Q 1497 4750 2381 4750 
Q 2619 4750 2861 4703 
Q 3103 4656 3366 4563 
z
" transform="scale(0.015625)"/>
       </defs>
       <use xlink:href="#DejaVuSans-36"/>
      </g>
     </g>
    </g>
    <g id="xtick_5">
     <g id="line2d_13">
      <path d="M 100.9152 298.944 
L 100.9152 27.648 
" clip-path="url(#p3c221dc95e)" style="fill: none; stroke: #b0b0b0; stroke-width: 0.8; stroke-linecap: square"/>
     </g>
     <g id="line2d_14">
      <defs>
       <path id="m085def267e" d="M 0 0 
L 0 2 
" style="stroke: #000000; stroke-width: 0.6"/>
      </defs>
      <g>
       <use xlink:href="#m085def267e" x="100.9152" y="298.944" style="stroke: #000000; stroke-width: 0.6"/>
      </g>
     </g>
    </g>
    <g id="xtick_6">
     <g id="line2d_15">
      <path d="M 187.5456 298.944 
L 187.5456 27.648 
" clip-path="url(#p3c221dc95e)" style="fill: none; stroke: #b0b0b0; stroke-width: 0.8; stroke-linecap: square"/>
     </g>
     <g id="line2d_16">
      <g>
       <use xlink:href="#m085def267e" x="187.5456" y="298.944" style="stroke: #000000; stroke-width: 0.6"/>
      </g>
     </g>
    </g>
    <g id="xtick_7">
     <g id="line2d_17">
      <path d="M 274.176 298.944 
L 274.176 27.648 
" clip-path="url(#p3c221dc95e)" style="fill: none; stroke: #b0b0b0; stroke-width: 0.8; stroke-linecap: square"/>
     </g>
     <g id="line2d_18">
      <g>
       <use xlink:href="#m085def267e" x="274.176" y="298.944" style="stroke: #000000; stroke-width: 0.6"/>
      </g>
     </g>
    </g>
    <g id="xtick_8">
     <g id="line2d_19">
      <path d="M 360.8064 298.944 
L 360.8064 27.648 
" clip-path="url(#p3c221dc95e)" style="fill: none; stroke: #b0b0b0; stroke-width: 0.8; stroke-linecap: square"/>
     </g>
     <g id="line2d_20">
      <g>
       <use xlink:href="#m085def267e" x="360.8064" y="298.944" style="stroke: #000000; stroke-width: 0.6"/>
      </g>
     </g>
    </g>
    <g id="text_5">
     <!-- log10(# f-evals / dimension) -->
     <g transform="translate(88.823278 339.314156)scale(0.17 -0.17)">
      <defs>
       <path id="DejaVuSans-6c" d="M 603 4863 
L 1178 4863 
L 1178 0 
L 603 0 
L 603 4863 
z
" transform="scale(0.015625)"/>
       <path id="DejaVuSans-6f" d="M 1959 3097 
Q 1497 3097 1228 2736 
Q 959 2375 959 1747 
Q 959 1119 1226 758 
Q 1494 397 1959 397 
Q 2419 397 2687 759 
Q 2956 1122 2956 1747 
Q 2956 2369 2687 2733 
Q 2419 3097 1959 3097 
z
M 1959 3584 
Q 2709 3584 3137 3096 
Q 3566 2609 3566 1747 
Q 3566 888 3137 398 
Q 2709 -91 1959 -91 
Q 1206 -91 779 398 
Q 353 888 353 1747 
Q 353 2609 779 3096 
Q 1206 3584 1959 3584 
z
" transform="scale(0.015625)"/>
       <path id="DejaVuSans-67" d="M 2906 1791 
Q 2906 2416 2648 2759 
Q 2391 3103 1925 3103 
Q 1463 3103 1205 2759 
Q 947 2416 947 1791 
Q 947 1169 1205 825 
Q 1463 481 1925 481 
Q 2391 481 2648 825 
Q 2906 1169 2906 1791 
z
M 3481 434 
Q 3481 -459 3084 -895 
Q 2688 -1331 1869 -1331 
Q 1566 -1331 1297 -1286 
Q 1028 -1241 775 -1147 
L 775 -588 
Q 1028 -725 1275 -790 
Q 1522 -856 1778 -856 
Q 2344 -856 2625 -561 
Q 2906 -266 2906 331 
L 2906 616 
Q 2728 306 2450 153 
Q 2172 0 1784 0 
Q 1141 0 747 490 
Q 353 981 353 1791 
Q 353 2603 747 3093 
Q 1141 3584 1784 3584 
Q 2172 3584 2450 3431 
Q 2728 3278 2906 2969 
L 2906 3500 
L 3481 3500 
L 3481 434 
z
" transform="scale(0.015625)"/>
       <path id="DejaVuSans-31" d="M 794 531 
L 1825 531 
L 1825 4091 
L 703 3866 
L 703 4441 
L 1819 4666 
L 2450 4666 
L 2450 531 
L 3481 531 
L 3481 0 
L 794 0 
L 794 531 
z
" transform="scale(0.015625)"/>
       <path id="DejaVuSans-28" d="M 1984 4856 
Q 1566 4138 1362 3434 
Q 1159 2731 1159 2009 
Q 1159 1288 1364 580 
Q 1569 -128 1984 -844 
L 1484 -844 
Q 1016 -109 783 600 
Q 550 1309 550 2009 
Q 550 2706 781 3412 
Q 1013 4119 1484 4856 
L 1984 4856 
z
" transform="scale(0.015625)"/>
       <path id="DejaVuSans-23" d="M 3272 2816 
L 2363 2816 
L 2100 1772 
L 3016 1772 
L 3272 2816 
z
M 2803 4594 
L 2478 3297 
L 3391 3297 
L 3719 4594 
L 4219 4594 
L 3897 3297 
L 4872 3297 
L 4872 2816 
L 3775 2816 
L 3519 1772 
L 4513 1772 
L 4513 1294 
L 3397 1294 
L 3072 0 
L 2572 0 
L 2894 1294 
L 1978 1294 
L 1656 0 
L 1153 0 
L 1478 1294 
L 494 1294 
L 494 1772 
L 1594 1772 
L 1856 2816 
L 850 2816 
L 850 3297 
L 1978 3297 
L 2297 4594 
L 2803 4594 
z
" transform="scale(0.015625)"/>
       <path id="DejaVuSans-20" transform="scale(0.015625)"/>
       <path id="DejaVuSans-66" d="M 2375 4863 
L 2375 4384 
L 1825 4384 
Q 1516 4384 1395 4259 
Q 1275 4134 1275 3809 
L 1275 3500 
L 2222 3500 
L 2222 3053 
L 1275 3053 
L 1275 0 
L 697 0 
L 697 3053 
L 147 3053 
L 147 3500 
L 697 3500 
L 697 3744 
Q 697 4328 969 4595 
Q 1241 4863 1831 4863 
L 2375 4863 
z
" transform="scale(0.015625)"/>
       <path id="DejaVuSans-2d" d="M 313 2009 
L 1997 2009 
L 1997 1497 
L 313 1497 
L 313 2009 
z
" transform="scale(0.015625)"/>
       <path id="DejaVuSans-65" d="M 3597 1894 
L 3597 1613 
L 953 1613 
Q 991 1019 1311 708 
Q 1631 397 2203 397 
Q 2534 397 2845 478 
Q 3156 559 3463 722 
L 3463 178 
Q 3153 47 2828 -22 
Q 2503 -91 2169 -91 
Q 1331 -91 842 396 
Q 353 884 353 1716 
Q 353 2575 817 3079 
Q 1281 3584 2069 3584 
Q 2775 3584 3186 3129 
Q 3597 2675 3597 1894 
z
M 3022 2063 
Q 3016 2534 2758 2815 
Q 2500 3097 2075 3097 
Q 1594 3097 1305 2825 
Q 1016 2553 972 2059 
L 3022 2063 
z
" transform="scale(0.015625)"/>
       <path id="DejaVuSans-76" d="M 191 3500 
L 800 3500 
L 1894 563 
L 2988 3500 
L 3597 3500 
L 2284 0 
L 1503 0 
L 191 3500 
z
" transform="scale(0.015625)"/>
       <path id="DejaVuSans-61" d="M 2194 1759 
Q 1497 1759 1228 1600 
Q 959 1441 959 1056 
Q 959 750 1161 570 
Q 1363 391 1709 391 
Q 2188 391 2477 730 
Q 2766 1069 2766 1631 
L 2766 1759 
L 2194 1759 
z
M 3341 1997 
L 3341 0 
L 2766 0 
L 2766 531 
Q 2569 213 2275 61 
Q 1981 -91 1556 -91 
Q 1019 -91 701 211 
Q 384 513 384 1019 
Q 384 1609 779 1909 
Q 1175 2209 1959 2209 
L 2766 2209 
L 2766 2266 
Q 2766 2663 2505 2880 
Q 2244 3097 1772 3097 
Q 1472 3097 1187 3025 
Q 903 2953 641 2809 
L 641 3341 
Q 956 3463 1253 3523 
Q 1550 3584 1831 3584 
Q 2591 3584 2966 3190 
Q 3341 2797 3341 1997 
z
" transform="scale(0.015625)"/>
       <path id="DejaVuSans-73" d="M 2834 3397 
L 2834 2853 
Q 2591 2978 2328 3040 
Q 2066 3103 1784 3103 
Q 1356 3103 1142 2972 
Q 928 2841 928 2578 
Q 928 2378 1081 2264 
Q 1234 2150 1697 2047 
L 1894 2003 
Q 2506 1872 2764 1633 
Q 3022 1394 3022 966 
Q 3022 478 2636 193 
Q 2250 -91 1575 -91 
Q 1294 -91 989 -36 
Q 684 19 347 128 
L 347 722 
Q 666 556 975 473 
Q 1284 391 1588 391 
Q 1994 391 2212 530 
Q 2431 669 2431 922 
Q 2431 1156 2273 1281 
Q 2116 1406 1581 1522 
L 1381 1569 
Q 847 1681 609 1914 
Q 372 2147 372 2553 
Q 372 3047 722 3315 
Q 1072 3584 1716 3584 
Q 2034 3584 2315 3537 
Q 2597 3491 2834 3397 
z
" transform="scale(0.015625)"/>
       <path id="DejaVuSans-2f" d="M 1625 4666 
L 2156 4666 
L 531 -594 
L 0 -594 
L 1625 4666 
z
" transform="scale(0.015625)"/>
       <path id="DejaVuSans-64" d="M 2906 2969 
L 2906 4863 
L 3481 4863 
L 3481 0 
L 2906 0 
L 2906 525 
Q 2725 213 2448 61 
Q 2172 -91 1784 -91 
Q 1150 -91 751 415 
Q 353 922 353 1747 
Q 353 2572 751 3078 
Q 1150 3584 1784 3584 
Q 2172 3584 2448 3432 
Q 2725 3281 2906 2969 
z
M 947 1747 
Q 947 1113 1208 752 
Q 1469 391 1925 391 
Q 2381 391 2643 752 
Q 2906 1113 2906 1747 
Q 2906 2381 2643 2742 
Q 2381 3103 1925 3103 
Q 1469 3103 1208 2742 
Q 947 2381 947 1747 
z
" transform="scale(0.015625)"/>
       <path id="DejaVuSans-69" d="M 603 3500 
L 1178 3500 
L 1178 0 
L 603 0 
L 603 3500 
z
M 603 4863 
L 1178 4863 
L 1178 4134 
L 603 4134 
L 603 4863 
z
" transform="scale(0.015625)"/>
       <path id="DejaVuSans-6d" d="M 3328 2828 
Q 3544 3216 3844 3400 
Q 4144 3584 4550 3584 
Q 5097 3584 5394 3201 
Q 5691 2819 5691 2113 
L 5691 0 
L 5113 0 
L 5113 2094 
Q 5113 2597 4934 2840 
Q 4756 3084 4391 3084 
Q 3944 3084 3684 2787 
Q 3425 2491 3425 1978 
L 3425 0 
L 2847 0 
L 2847 2094 
Q 2847 2600 2669 2842 
Q 2491 3084 2119 3084 
Q 1678 3084 1418 2786 
Q 1159 2488 1159 1978 
L 1159 0 
L 581 0 
L 581 3500 
L 1159 3500 
L 1159 2956 
Q 1356 3278 1631 3431 
Q 1906 3584 2284 3584 
Q 2666 3584 2933 3390 
Q 3200 3197 3328 2828 
z
" transform="scale(0.015625)"/>
       <path id="DejaVuSans-6e" d="M 3513 2113 
L 3513 0 
L 2938 0 
L 2938 2094 
Q 2938 2591 2744 2837 
Q 2550 3084 2163 3084 
Q 1697 3084 1428 2787 
Q 1159 2491 1159 1978 
L 1159 0 
L 581 0 
L 581 3500 
L 1159 3500 
L 1159 2956 
Q 1366 3272 1645 3428 
Q 1925 3584 2291 3584 
Q 2894 3584 3203 3211 
Q 3513 2838 3513 2113 
z
" transform="scale(0.015625)"/>
       <path id="DejaVuSans-29" d="M 513 4856 
L 1013 4856 
Q 1481 4119 1714 3412 
Q 1947 2706 1947 2009 
Q 1947 1309 1714 600 
Q 1481 -109 1013 -844 
L 513 -844 
Q 928 -128 1133 580 
Q 1338 1288 1338 2009 
Q 1338 2731 1133 3434 
Q 928 4138 513 4856 
z
" transform="scale(0.015625)"/>
      </defs>
      <use xlink:href="#DejaVuSans-6c"/>
      <use xlink:href="#DejaVuSans-6f" x="27.783203"/>
      <use xlink:href="#DejaVuSans-67" x="88.964844"/>
      <use xlink:href="#DejaVuSans-31" x="152.441406"/>
      <use xlink:href="#DejaVuSans-30" x="216.064453"/>
      <use xlink:href="#DejaVuSans-28" x="279.6875"/>
      <use xlink:href="#DejaVuSans-23" x="318.701172"/>
      <use xlink:href="#DejaVuSans-20" x="402.490234"/>
      <use xlink:href="#DejaVuSans-66" x="434.277344"/>
      <use xlink:href="#DejaVuSans-2d" x="463.982422"/>
      <use xlink:href="#DejaVuSans-65" x="500.066406"/>
      <use xlink:href="#DejaVuSans-76" x="561.589844"/>
      <use xlink:href="#DejaVuSans-61" x="620.769531"/>
      <use xlink:href="#DejaVuSans-6c" x="682.048828"/>
      <use xlink:href="#DejaVuSans-73" x="709.832031"/>
      <use xlink:href="#DejaVuSans-20" x="761.931641"/>
      <use xlink:href="#DejaVuSans-2f" x="793.71875"/>
      <use xlink:href="#DejaVuSans-20" x="827.410156"/>
      <use xlink:href="#DejaVuSans-64" x="859.197266"/>
      <use xlink:href="#DejaVuSans-69" x="922.673828"/>
      <use xlink:href="#DejaVuSans-6d" x="950.457031"/>
      <use xlink:href="#DejaVuSans-65" x="1047.869141"/>
      <use xlink:href="#DejaVuSans-6e" x="1109.392578"/>
      <use xlink:href="#DejaVuSans-73" x="1172.771484"/>
      <use xlink:href="#DejaVuSans-69" x="1224.871094"/>
      <use xlink:href="#DejaVuSans-6f" x="1252.654297"/>
      <use xlink:href="#DejaVuSans-6e" x="1313.835938"/>
      <use xlink:href="#DejaVuSans-29" x="1377.214844"/>
     </g>
    </g>
   </g>
   <g id="matplotlib.axis_2">
    <g id="ytick_1">
     <g id="line2d_21">
      <path d="M 57.6 298.944 
L 360.8064 298.944 
" clip-path="url(#p3c221dc95e)" style="fill: none; stroke: #b0b0b0; stroke-width: 0.8; stroke-linecap: square"/>
     </g>
     <g id="line2d_22">
      <defs>
       <path id="m61d3c76f0f" d="M 0 0 
L -3.5 0 
" style="stroke: #000000; stroke-width: 0.8"/>
      </defs>
      <g>
       <use xlink:href="#m61d3c76f0f" x="57.6" y="298.944" style="stroke: #000000; stroke-width: 0.8"/>
      </g>
     </g>
     <g id="text_6">
      <!-- 0.0 -->
      <g transform="translate(25.155 305.02275)scale(0.16 -0.16)">
       <defs>
        <path id="DejaVuSans-2e" d="M 684 794 
L 1344 794 
L 1344 0 
L 684 0 
L 684 794 
z
" transform="scale(0.015625)"/>
       </defs>
       <use xlink:href="#DejaVuSans-30"/>
       <use xlink:href="#DejaVuSans-2e" x="63.623047"/>
       <use xlink:href="#DejaVuSans-30" x="95.410156"/>
      </g>
     </g>
    </g>
    <g id="ytick_2">
     <g id="line2d_23">
      <path d="M 57.6 244.6848 
L 360.8064 244.6848 
" clip-path="url(#p3c221dc95e)" style="fill: none; stroke: #b0b0b0; stroke-width: 0.8; stroke-linecap: square"/>
     </g>
     <g id="line2d_24">
      <g>
       <use xlink:href="#m61d3c76f0f" x="57.6" y="244.6848" style="stroke: #000000; stroke-width: 0.8"/>
      </g>
     </g>
     <g id="text_7">
      <!-- 0.2 -->
      <g transform="translate(25.155 250.76355)scale(0.16 -0.16)">
       <use xlink:href="#DejaVuSans-30"/>
       <use xlink:href="#DejaVuSans-2e" x="63.623047"/>
       <use xlink:href="#DejaVuSans-32" x="95.410156"/>
      </g>
     </g>
    </g>
    <g id="ytick_3">
     <g id="line2d_25">
      <path d="M 57.6 190.4256 
L 360.8064 190.4256 
" clip-path="url(#p3c221dc95e)" style="fill: none; stroke: #b0b0b0; stroke-width: 0.8; stroke-linecap: square"/>
     </g>
     <g id="line2d_26">
      <g>
       <use xlink:href="#m61d3c76f0f" x="57.6" y="190.4256" style="stroke: #000000; stroke-width: 0.8"/>
      </g>
     </g>
     <g id="text_8">
      <!-- 0.4 -->
      <g transform="translate(25.155 196.50435)scale(0.16 -0.16)">
       <use xlink:href="#DejaVuSans-30"/>
       <use xlink:href="#DejaVuSans-2e" x="63.623047"/>
       <use xlink:href="#DejaVuSans-34" x="95.410156"/>
      </g>
     </g>
    </g>
    <g id="ytick_4">
     <g id="line2d_27">
      <path d="M 57.6 136.1664 
L 360.8064 136.1664 
" clip-path="url(#p3c221dc95e)" style="fill: none; stroke: #b0b0b0; stroke-width: 0.8; stroke-linecap: square"/>
     </g>
     <g id="line2d_28">
      <g>
       <use xlink:href="#m61d3c76f0f" x="57.6" y="136.1664" style="stroke: #000000; stroke-width: 0.8"/>
      </g>
     </g>
     <g id="text_9">
      <!-- 0.6 -->
      <g transform="translate(25.155 142.24515)scale(0.16 -0.16)">
       <use xlink:href="#DejaVuSans-30"/>
       <use xlink:href="#DejaVuSans-2e" x="63.623047"/>
       <use xlink:href="#DejaVuSans-36" x="95.410156"/>
      </g>
     </g>
    </g>
    <g id="ytick_5">
     <g id="line2d_29">
      <path d="M 57.6 81.9072 
L 360.8064 81.9072 
" clip-path="url(#p3c221dc95e)" style="fill: none; stroke: #b0b0b0; stroke-width: 0.8; stroke-linecap: square"/>
     </g>
     <g id="line2d_30">
      <g>
       <use xlink:href="#m61d3c76f0f" x="57.6" y="81.9072" style="stroke: #000000; stroke-width: 0.8"/>
      </g>
     </g>
     <g id="text_10">
      <!-- 0.8 -->
      <g transform="translate(25.155 87.98595)scale(0.16 -0.16)">
       <defs>
        <path id="DejaVuSans-38" d="M 2034 2216 
Q 1584 2216 1326 1975 
Q 1069 1734 1069 1313 
Q 1069 891 1326 650 
Q 1584 409 2034 409 
Q 2484 409 2743 651 
Q 3003 894 3003 1313 
Q 3003 1734 2745 1975 
Q 2488 2216 2034 2216 
z
M 1403 2484 
Q 997 2584 770 2862 
Q 544 3141 544 3541 
Q 544 4100 942 4425 
Q 1341 4750 2034 4750 
Q 2731 4750 3128 4425 
Q 3525 4100 3525 3541 
Q 3525 3141 3298 2862 
Q 3072 2584 2669 2484 
Q 3125 2378 3379 2068 
Q 3634 1759 3634 1313 
Q 3634 634 3220 271 
Q 2806 -91 2034 -91 
Q 1263 -91 848 271 
Q 434 634 434 1313 
Q 434 1759 690 2068 
Q 947 2378 1403 2484 
z
M 1172 3481 
Q 1172 3119 1398 2916 
Q 1625 2713 2034 2713 
Q 2441 2713 2670 2916 
Q 2900 3119 2900 3481 
Q 2900 3844 2670 4047 
Q 2441 4250 2034 4250 
Q 1625 4250 1398 4047 
Q 1172 3844 1172 3481 
z
" transform="scale(0.015625)"/>
       </defs>
       <use xlink:href="#DejaVuSans-30"/>
       <use xlink:href="#DejaVuSans-2e" x="63.623047"/>
       <use xlink:href="#DejaVuSans-38" x="95.410156"/>
      </g>
     </g>
    </g>
    <g id="ytick_6">
     <g id="line2d_31">
      <path d="M 57.6 27.648 
L 360.8064 27.648 
" clip-path="url(#p3c221dc95e)" style="fill: none; stroke: #b0b0b0; stroke-width: 0.8; stroke-linecap: square"/>
     </g>
     <g id="line2d_32">
      <g>
       <use xlink:href="#m61d3c76f0f" x="57.6" y="27.648" style="stroke: #000000; stroke-width: 0.8"/>
      </g>
     </g>
     <g id="text_11">
      <!-- 1.0 -->
      <g transform="translate(25.155 33.72675)scale(0.16 -0.16)">
       <use xlink:href="#DejaVuSans-31"/>
       <use xlink:href="#DejaVuSans-2e" x="63.623047"/>
       <use xlink:href="#DejaVuSans-30" x="95.410156"/>
      </g>
     </g>
    </g>
    <g id="text_12">
     <!-- Fraction of function,target pairs -->
     <g transform="translate(17.619531 297.681)rotate(-90)scale(0.17 -0.17)">
      <defs>
       <path id="DejaVuSans-46" d="M 628 4666 
L 3309 4666 
L 3309 4134 
L 1259 4134 
L 1259 2759 
L 3109 2759 
L 3109 2228 
L 1259 2228 
L 1259 0 
L 628 0 
L 628 4666 
z
" transform="scale(0.015625)"/>
       <path id="DejaVuSans-72" d="M 2631 2963 
Q 2534 3019 2420 3045 
Q 2306 3072 2169 3072 
Q 1681 3072 1420 2755 
Q 1159 2438 1159 1844 
L 1159 0 
L 581 0 
L 581 3500 
L 1159 3500 
L 1159 2956 
Q 1341 3275 1631 3429 
Q 1922 3584 2338 3584 
Q 2397 3584 2469 3576 
Q 2541 3569 2628 3553 
L 2631 2963 
z
" transform="scale(0.015625)"/>
       <path id="DejaVuSans-63" d="M 3122 3366 
L 3122 2828 
Q 2878 2963 2633 3030 
Q 2388 3097 2138 3097 
Q 1578 3097 1268 2742 
Q 959 2388 959 1747 
Q 959 1106 1268 751 
Q 1578 397 2138 397 
Q 2388 397 2633 464 
Q 2878 531 3122 666 
L 3122 134 
Q 2881 22 2623 -34 
Q 2366 -91 2075 -91 
Q 1284 -91 818 406 
Q 353 903 353 1747 
Q 353 2603 823 3093 
Q 1294 3584 2113 3584 
Q 2378 3584 2631 3529 
Q 2884 3475 3122 3366 
z
" transform="scale(0.015625)"/>
       <path id="DejaVuSans-74" d="M 1172 4494 
L 1172 3500 
L 2356 3500 
L 2356 3053 
L 1172 3053 
L 1172 1153 
Q 1172 725 1289 603 
Q 1406 481 1766 481 
L 2356 481 
L 2356 0 
L 1766 0 
Q 1100 0 847 248 
Q 594 497 594 1153 
L 594 3053 
L 172 3053 
L 172 3500 
L 594 3500 
L 594 4494 
L 1172 4494 
z
" transform="scale(0.015625)"/>
       <path id="DejaVuSans-75" d="M 544 1381 
L 544 3500 
L 1119 3500 
L 1119 1403 
Q 1119 906 1312 657 
Q 1506 409 1894 409 
Q 2359 409 2629 706 
Q 2900 1003 2900 1516 
L 2900 3500 
L 3475 3500 
L 3475 0 
L 2900 0 
L 2900 538 
Q 2691 219 2414 64 
Q 2138 -91 1772 -91 
Q 1169 -91 856 284 
Q 544 659 544 1381 
z
M 1991 3584 
L 1991 3584 
z
" transform="scale(0.015625)"/>
       <path id="DejaVuSans-2c" d="M 750 794 
L 1409 794 
L 1409 256 
L 897 -744 
L 494 -744 
L 750 256 
L 750 794 
z
" transform="scale(0.015625)"/>
       <path id="DejaVuSans-70" d="M 1159 525 
L 1159 -1331 
L 581 -1331 
L 581 3500 
L 1159 3500 
L 1159 2969 
Q 1341 3281 1617 3432 
Q 1894 3584 2278 3584 
Q 2916 3584 3314 3078 
Q 3713 2572 3713 1747 
Q 3713 922 3314 415 
Q 2916 -91 2278 -91 
Q 1894 -91 1617 61 
Q 1341 213 1159 525 
z
M 3116 1747 
Q 3116 2381 2855 2742 
Q 2594 3103 2138 3103 
Q 1681 3103 1420 2742 
Q 1159 2381 1159 1747 
Q 1159 1113 1420 752 
Q 1681 391 2138 391 
Q 2594 391 2855 752 
Q 3116 1113 3116 1747 
z
" transform="scale(0.015625)"/>
      </defs>
      <use xlink:href="#DejaVuSans-46"/>
      <use xlink:href="#DejaVuSans-72" x="50.269531"/>
      <use xlink:href="#DejaVuSans-61" x="91.382812"/>
      <use xlink:href="#DejaVuSans-63" x="152.662109"/>
      <use xlink:href="#DejaVuSans-74" x="207.642578"/>
      <use xlink:href="#DejaVuSans-69" x="246.851562"/>
      <use xlink:href="#DejaVuSans-6f" x="274.634766"/>
      <use xlink:href="#DejaVuSans-6e" x="335.816406"/>
      <use xlink:href="#DejaVuSans-20" x="399.195312"/>
      <use xlink:href="#DejaVuSans-6f" x="430.982422"/>
      <use xlink:href="#DejaVuSans-66" x="492.164062"/>
      <use xlink:href="#DejaVuSans-20" x="527.369141"/>
      <use xlink:href="#DejaVuSans-66" x="559.15625"/>
      <use xlink:href="#DejaVuSans-75" x="594.361328"/>
      <use xlink:href="#DejaVuSans-6e" x="657.740234"/>
      <use xlink:href="#DejaVuSans-63" x="721.119141"/>
      <use xlink:href="#DejaVuSans-74" x="776.099609"/>
      <use xlink:href="#DejaVuSans-69" x="815.308594"/>
      <use xlink:href="#DejaVuSans-6f" x="843.091797"/>
      <use xlink:href="#DejaVuSans-6e" x="904.273438"/>
      <use xlink:href="#DejaVuSans-2c" x="967.652344"/>
      <use xlink:href="#DejaVuSans-74" x="999.439453"/>
      <use xlink:href="#DejaVuSans-61" x="1038.648438"/>
      <use xlink:href="#DejaVuSans-72" x="1099.927734"/>
      <use xlink:href="#DejaVuSans-67" x="1139.291016"/>
      <use xlink:href="#DejaVuSans-65" x="1202.767578"/>
      <use xlink:href="#DejaVuSans-74" x="1264.291016"/>
      <use xlink:href="#DejaVuSans-20" x="1303.5"/>
      <use xlink:href="#DejaVuSans-70" x="1335.287109"/>
      <use xlink:href="#DejaVuSans-61" x="1398.763672"/>
      <use xlink:href="#DejaVuSans-69" x="1460.042969"/>
      <use xlink:href="#DejaVuSans-72" x="1487.826172"/>
      <use xlink:href="#DejaVuSans-73" x="1528.939453"/>
     </g>
    </g>
   </g>
   <g id="line2d_33">
    <defs>
     <path id="m0d242ce5c3" d="M 0 1.5 
C 0.397805 1.5 0.77937 1.341951 1.06066 1.06066 
C 1.341951 0.77937 1.5 0.397805 1.5 0 
C 1.5 -0.397805 1.341951 -0.77937 1.06066 -1.06066 
C 0.77937 -1.341951 0.397805 -1.5 0 -1.5 
C -0.397805 -1.5 -0.77937 -1.341951 -1.06066 -1.06066 
C -1.341951 -0.77937 -1.5 -0.397805 -1.5 0 
C -1.5 0.397805 -1.341951 0.77937 -1.06066 1.06066 
C -0.77937 1.341951 -0.397805 1.5 0 1.5 
z
" style="stroke: #f5deb3"/>
    </defs>
    <g>
     <use xlink:href="#m0d242ce5c3" x="134.725196" y="27.648" style="fill: #f5deb3; stroke: #f5deb3"/>
     <use xlink:href="#m0d242ce5c3" x="134.725196" y="27.648" style="fill: #f5deb3; stroke: #f5deb3"/>
    </g>
   </g>
   <g id="line2d_34">
    <defs>
     <path id="m87c117a9aa" d="M 0 1.5 
C 0.397805 1.5 0.77937 1.341951 1.06066 1.06066 
C 1.341951 0.77937 1.5 0.397805 1.5 0 
C 1.5 -0.397805 1.341951 -0.77937 1.06066 -1.06066 
C 0.77937 -1.341951 0.397805 -1.5 0 -1.5 
C -0.397805 -1.5 -0.77937 -1.341951 -1.06066 -1.06066 
C -1.341951 -0.77937 -1.5 -0.397805 -1.5 0 
C -1.5 0.397805 -1.341951 0.77937 -1.06066 1.06066 
C -0.77937 1.341951 -0.397805 1.5 0 1.5 
z
" style="stroke: #000080"/>
    </defs>
    <g>
     <use xlink:href="#m87c117a9aa" x="169.800298" y="27.648" style="fill: #000080; stroke: #000080"/>
     <use xlink:href="#m87c117a9aa" x="169.800298" y="27.648" style="fill: #000080; stroke: #000080"/>
    </g>
   </g>
   <g id="line2d_35">
    <path d="M 36.933397 298.944 
L 36.933397 272.346353 
L 82.04153 272.346353 
L 82.04153 271.637082 
L 99.617337 271.637082 
L 99.617337 269.863906 
L 100.9152 269.863906 
L 100.9152 269.509271 
L 104.344952 269.509271 
L 104.344952 268.8 
L 105.36204 268.8 
L 105.36204 268.090729 
L 106.326946 268.090729 
L 106.326946 266.672188 
L 107.244765 266.672188 
L 107.244765 265.253647 
L 107.68741 265.253647 
L 107.68741 264.899012 
L 108.956085 264.899012 
L 108.956085 264.544376 
L 109.360651 264.544376 
L 109.360651 263.835106 
L 109.756698 263.835106 
L 109.756698 262.7712 
L 110.897141 262.7712 
L 110.897141 262.416565 
L 111.97238 262.416565 
L 111.97238 261.352659 
L 113.638206 261.352659 
L 113.638206 260.643388 
L 113.954374 260.643388 
L 113.954374 259.934118 
L 114.265316 259.934118 
L 114.265316 259.224847 
L 115.460102 259.224847 
L 115.460102 258.870212 
L 115.747307 258.870212 
L 115.747307 258.160941 
L 116.308887 258.160941 
L 116.308887 257.806306 
L 116.583514 257.806306 
L 116.583514 257.097035 
L 117.384126 257.097035 
L 117.384126 256.7424 
L 117.6436 256.7424 
L 117.6436 256.387765 
L 118.152051 256.387765 
L 118.152051 255.323859 
L 118.64712 255.323859 
L 118.64712 254.614588 
L 119.129494 254.614588 
L 119.129494 254.259953 
L 120.058649 254.259953 
L 120.058649 253.905318 
L 120.726585 253.905318 
L 120.726585 252.841412 
L 121.789667 252.841412 
L 121.789667 251.777506 
L 122.19863 251.777506 
L 122.19863 251.068235 
L 122.795872 251.068235 
L 122.795872 250.7136 
L 123.374735 250.7136 
L 123.374735 250.004329 
L 123.563797 250.004329 
L 123.563797 249.649694 
L 125.695686 249.649694 
L 125.695686 249.295059 
L 126.028642 249.295059 
L 126.028642 248.940424 
L 126.517282 248.940424 
L 126.517282 248.585788 
L 126.677381 248.585788 
L 126.677381 247.167247 
L 128.060076 247.167247 
L 128.060076 246.812612 
L 128.499277 246.812612 
L 128.499277 246.457976 
L 128.643427 246.457976 
L 128.643427 246.103341 
L 128.928456 246.103341 
L 128.928456 245.748706 
L 129.209231 245.748706 
L 129.209231 245.039435 
L 129.758512 245.039435 
L 129.758512 244.6848 
L 129.893363 244.6848 
L 129.893363 244.330165 
L 130.292209 244.330165 
L 130.292209 243.975529 
L 130.4233 243.975529 
L 130.4233 243.620894 
L 130.682774 243.620894 
L 130.682774 243.266259 
L 130.938718 243.266259 
L 130.938718 242.911624 
L 131.31622 242.911624 
L 131.31622 242.556988 
L 131.563744 242.556988 
L 131.563744 242.202353 
L 131.808053 242.202353 
L 131.808053 241.847718 
L 132.754746 241.847718 
L 132.754746 241.493082 
L 132.984158 241.493082 
L 132.984158 241.138447 
L 133.097823 241.138447 
L 133.097823 240.783812 
L 133.656071 240.783812 
L 133.656071 240.429176 
L 135.136394 240.429176 
L 135.136394 240.074541 
L 136.413909 240.074541 
L 136.413909 239.719906 
L 137.159019 239.719906 
L 137.250116 239.010635 
L 137.340774 239.010635 
L 137.340774 237.946729 
L 137.787626 237.946729 
L 137.787626 237.592094 
L 138.224108 237.592094 
L 138.310202 236.173553 
L 138.73486 236.173553 
L 138.73486 235.818918 
L 139.067817 235.818918 
L 139.150143 235.109647 
L 139.475893 235.109647 
L 139.475893 234.755012 
L 139.716555 234.755012 
L 139.716555 234.400376 
L 139.875304 234.400376 
L 139.875304 234.045741 
L 140.649551 234.045741 
L 140.649551 233.691106 
L 140.950542 233.691106 
L 140.950542 233.336471 
L 141.099251 233.336471 
L 141.099251 232.981835 
L 141.320133 232.981835 
L 141.393187 231.917929 
L 141.682602 231.917929 
L 141.682602 231.563294 
L 142.038218 231.563294 
L 142.108542 230.499388 
L 142.865233 230.499388 
L 142.865233 230.144753 
L 143.199372 230.144753 
L 143.265494 229.435482 
L 143.397043 229.435482 
L 143.397043 229.080847 
L 143.592659 229.080847 
L 143.592659 228.726212 
L 144.16759 228.726212 
L 144.16759 228.371576 
L 144.355394 228.371576 
L 144.355394 227.307671 
L 144.664294 227.307671 
L 144.725469 226.243765 
L 144.968202 226.243765 
L 145.0284 225.534494 
L 145.207843 225.534494 
L 145.207843 225.179859 
L 145.326529 225.179859 
L 145.326529 224.825224 
L 145.503164 224.825224 
L 145.503164 224.470588 
L 145.851536 224.470588 
L 145.851536 224.115953 
L 145.966241 224.115953 
L 146.023332 223.406682 
L 146.24998 223.406682 
L 146.24998 223.052047 
L 146.529503 223.052047 
L 146.64016 221.988141 
L 146.695245 221.988141 
L 146.750169 220.924235 
L 146.968277 220.924235 
L 147.076389 220.214965 
L 147.660152 220.214965 
L 147.660152 218.796424 
L 147.868016 218.796424 
L 147.919625 218.087153 
L 148.022421 218.087153 
L 148.073609 217.023247 
L 148.226342 217.023247 
L 148.226342 216.313976 
L 148.478174 216.313976 
L 148.478174 215.959341 
L 148.627671 215.959341 
L 148.627671 215.250071 
L 148.775988 215.250071 
L 148.825169 214.186165 
L 149.020615 214.186165 
L 149.020615 213.831529 
L 149.262102 213.831529 
L 149.357835 212.767624 
L 149.547853 212.767624 
L 149.547853 212.412988 
L 149.73597 212.412988 
L 149.782707 211.349082 
L 149.922224 211.349082 
L 150.014665 210.285176 
L 150.289291 210.285176 
L 150.289291 209.930541 
L 150.515122 209.930541 
L 150.559965 208.866635 
L 150.649331 208.866635 
L 150.738275 207.448094 
L 150.78259 207.448094 
L 150.8268 206.738824 
L 150.914911 206.738824 
L 151.00261 205.674918 
L 151.133398 205.674918 
L 151.133398 204.256376 
L 151.349377 204.256376 
L 151.435079 203.192471 
L 151.477784 203.192471 
L 151.477784 202.4832 
L 151.60532 202.4832 
L 151.647641 201.419294 
L 151.815978 201.419294 
L 151.857828 200.355388 
L 151.94125 200.355388 
L 152.024303 199.291482 
L 152.1482 199.291482 
L 152.230346 196.809035 
L 152.271285 196.809035 
L 152.312136 195.745129 
L 152.434157 195.745129 
L 152.515067 194.326588 
L 152.715833 194.326588 
L 152.715833 193.617318 
L 152.874916 193.617318 
L 152.953957 191.844141 
L 152.993353 191.844141 
L 152.993353 191.134871 
L 153.111048 191.134871 
L 153.111048 190.780235 
L 153.38284 190.780235 
L 153.421349 189.361694 
L 153.650761 189.361694 
L 153.726614 188.297788 
L 153.802162 188.297788 
L 153.839823 187.588518 
L 154.027004 187.588518 
L 154.064218 185.815341 
L 154.212341 185.815341 
L 154.322673 184.042165 
L 154.359307 184.042165 
L 154.432362 181.559718 
L 154.505134 181.559718 
L 154.577625 180.850447 
L 154.649839 180.850447 
L 154.757642 175.885553 
L 154.829169 175.885553 
L 154.900425 175.176282 
L 154.971412 175.176282 
L 155.077392 171.984565 
L 155.112587 171.984565 
L 155.217778 167.019671 
L 155.252711 167.019671 
L 155.322384 165.601129 
L 155.529866 165.601129 
L 155.564225 164.182588 
L 155.666927 164.182588 
L 155.769072 161.700141 
L 155.870664 161.700141 
L 155.870664 160.990871 
L 156.138926 160.990871 
L 156.138926 160.2816 
L 156.271636 160.2816 
L 156.304668 159.572329 
L 156.436218 159.572329 
L 156.436218 159.217694 
L 156.566854 159.217694 
L 156.566854 158.863059 
L 156.728884 158.863059 
L 156.825436 156.735247 
L 156.88953 156.735247 
L 156.985263 154.962071 
L 157.017067 154.962071 
L 157.048816 153.543529 
L 157.175281 153.543529 
L 157.238196 151.770353 
L 157.332175 151.770353 
L 157.425688 151.061082 
L 157.61133 151.061082 
L 157.703468 148.224 
L 157.734081 148.224 
L 157.764644 147.514729 
L 158.007377 147.514729 
L 158.067574 146.805459 
L 158.15751 146.805459 
L 158.247018 145.386918 
L 158.276759 145.386918 
L 158.365703 144.677647 
L 158.424766 144.677647 
L 158.483644 140.067388 
L 158.542339 140.067388 
L 158.571617 135.811765 
L 158.717331 135.811765 
L 158.804221 132.974682 
L 158.861925 132.974682 
L 158.890711 130.846871 
L 159.090988 130.846871 
L 159.090988 130.1376 
L 159.204482 130.1376 
L 159.289155 128.364424 
L 159.317295 128.364424 
L 159.401463 125.172706 
L 159.429436 125.172706 
L 159.513105 122.690259 
L 159.540912 122.690259 
L 159.596403 118.789271 
L 159.679334 118.789271 
L 159.761902 117.016094 
L 159.816746 117.016094 
L 159.925957 114.888282 
L 159.953161 114.888282 
L 160.007451 114.179012 
L 160.115564 114.179012 
L 160.169388 110.987294 
L 160.249837 110.987294 
L 160.356569 109.923388 
L 160.383158 109.923388 
L 160.436223 107.086306 
L 160.568234 107.086306 
L 160.594526 106.0224 
L 160.699326 106.0224 
L 160.803545 98.929694 
L 160.933013 98.929694 
L 160.984551 96.801882 
L 161.087207 96.801882 
L 161.087207 96.447247 
L 161.214743 96.447247 
L 161.290852 94.674071 
L 161.341421 94.674071 
L 161.341421 93.9648 
L 161.492316 93.9648 
L 161.592245 92.191624 
L 161.617145 92.191624 
L 161.666845 88.290635 
L 161.765853 88.290635 
L 161.839769 85.453553 
L 161.986735 85.453553 
L 162.084079 82.261835 
L 162.156757 82.261835 
L 162.253227 80.843294 
L 162.277267 80.843294 
L 162.373122 78.360847 
L 162.39701 78.360847 
L 162.420867 77.651576 
L 162.515995 77.651576 
L 162.610645 75.523765 
L 162.681321 75.523765 
L 162.728291 72.332047 
L 162.798527 72.332047 
L 162.891769 67.721788 
L 162.915008 67.721788 
L 162.938218 66.303247 
L 163.053839 66.303247 
L 163.099889 64.175435 
L 163.191653 64.175435 
L 163.282972 60.274447 
L 163.373849 60.274447 
L 163.44172 58.501271 
L 163.509347 58.501271 
L 163.554297 56.018824 
L 163.666204 56.018824 
L 163.755253 53.181741 
L 163.777449 53.181741 
L 163.843882 51.7632 
L 164.041785 51.7632 
L 164.129077 49.635388 
L 164.259262 49.635388 
L 164.302457 48.571482 
L 164.410013 48.571482 
L 164.431451 47.152941 
L 164.559567 47.152941 
L 164.665667 46.443671 
L 164.729041 46.443671 
L 164.834193 45.379765 
L 164.980424 45.379765 
L 165.063478 43.961224 
L 165.166781 43.961224 
L 165.269521 42.188047 
L 165.290001 42.188047 
L 165.35131 39.7056 
L 165.794904 39.7056 
L 165.814821 38.641694 
L 166.012839 38.641694 
L 166.012839 37.223153 
L 166.286609 37.223153 
L 166.286609 36.513882 
L 166.441278 36.513882 
L 166.518139 35.095341 
L 167.01022 35.095341 
L 167.103392 33.6768 
L 167.121972 33.6768 
L 167.121972 33.322165 
L 167.343504 33.322165 
L 167.343504 32.612894 
L 167.580589 32.612894 
L 167.689013 30.839718 
L 167.796816 30.839718 
L 167.796816 30.485082 
L 168.620556 30.485082 
L 168.620556 30.130447 
L 168.943582 30.130447 
L 168.943582 29.066541 
L 169.178101 29.066541 
L 169.178101 28.711906 
L 169.343842 28.711906 
L 169.343842 28.002635 
L 169.800298 28.002635 
L 169.800298 27.648 
L 360.8064 27.648 
L 360.8064 27.648 
" style="fill: none; stroke: #000080; stroke-width: 1.5; stroke-linecap: square"/>
   </g>
   <g id="line2d_36">
    <defs>
     <path id="mc252da0305" d="M 0 6 
C 1.591219 6 3.117479 5.367802 4.242641 4.242641 
C 5.367802 3.117479 6 1.591219 6 0 
C 6 -1.591219 5.367802 -3.117479 4.242641 -4.242641 
C 3.117479 -5.367802 1.591219 -6 0 -6 
C -1.591219 -6 -3.117479 -5.367802 -4.242641 -4.242641 
C -5.367802 -3.117479 -6 -1.591219 -6 0 
C -6 1.591219 -5.367802 3.117479 -4.242641 4.242641 
C -3.117479 5.367802 -1.591219 6 0 6 
z
" style="stroke: #000080; stroke-width: 1.5"/>
    </defs>
    <g>
     <use xlink:href="#mc252da0305" x="119.129494" y="254.614588" style="fill-opacity: 0; stroke: #000080; stroke-width: 1.5"/>
     <use xlink:href="#mc252da0305" x="158.067574" y="146.805459" style="fill-opacity: 0; stroke: #000080; stroke-width: 1.5"/>
     <use xlink:href="#mc252da0305" x="169.800298" y="28.002635" style="fill-opacity: 0; stroke: #000080; stroke-width: 1.5"/>
     <use xlink:href="#mc252da0305" x="169.800298" y="27.648" style="fill-opacity: 0; stroke: #000080; stroke-width: 1.5"/>
     <use xlink:href="#mc252da0305" x="169.800298" y="27.648" style="fill-opacity: 0; stroke: #000080; stroke-width: 1.5"/>
     <use xlink:href="#mc252da0305" x="360.8064" y="27.648" style="fill-opacity: 0; stroke: #000080; stroke-width: 1.5"/>
    </g>
   </g>
   <g id="line2d_37">
    <path style="fill: none; stroke: #000080; stroke-width: 1.5; stroke-linecap: square"/>
    <g/>
   </g>
   <g id="line2d_38">
    <defs>
     <path id="m753567b44f" d="M 0 1.5 
C 0.397805 1.5 0.77937 1.341951 1.06066 1.06066 
C 1.341951 0.77937 1.5 0.397805 1.5 0 
C 1.5 -0.397805 1.341951 -0.77937 1.06066 -1.06066 
C 0.77937 -1.341951 0.397805 -1.5 0 -1.5 
C -0.397805 -1.5 -0.77937 -1.341951 -1.06066 -1.06066 
C -1.341951 -0.77937 -1.5 -0.397805 -1.5 0 
C -1.5 0.397805 -1.341951 0.77937 -1.06066 1.06066 
C -0.77937 1.341951 -0.397805 1.5 0 1.5 
z
" style="stroke: #ff00ff"/>
    </defs>
    <g>
     <use xlink:href="#m753567b44f" x="171.419661" y="27.648" style="fill: #ff00ff; stroke: #ff00ff"/>
     <use xlink:href="#m753567b44f" x="171.419661" y="27.648" style="fill: #ff00ff; stroke: #ff00ff"/>
    </g>
   </g>
   <g id="line2d_39">
    <path d="M 36.933397 298.944 
L 36.933397 272.346353 
L 98.223251 272.346353 
L 98.223251 271.991718 
L 105.36204 271.991718 
L 105.36204 270.927812 
L 105.850679 270.927812 
L 105.850679 270.218541 
L 106.326946 270.218541 
L 106.326946 269.863906 
L 108.956085 269.863906 
L 108.956085 269.154635 
L 112.317555 269.154635 
L 112.317555 268.8 
L 112.656511 268.8 
L 112.656511 268.090729 
L 113.316634 268.090729 
L 113.316634 267.026824 
L 113.954374 267.026824 
L 113.954374 265.962918 
L 114.872193 265.962918 
L 114.872193 264.899012 
L 116.308887 264.899012 
L 116.308887 264.189741 
L 116.854188 264.189741 
L 116.854188 263.480471 
L 117.384126 263.480471 
L 117.384126 262.7712 
L 117.6436 262.7712 
L 117.6436 262.061929 
L 118.152051 262.061929 
L 118.152051 261.707294 
L 119.129494 261.707294 
L 119.129494 261.352659 
L 119.599808 261.352659 
L 119.599808 260.998024 
L 119.830627 260.998024 
L 119.830627 259.934118 
L 120.058649 259.934118 
L 120.058649 259.579482 
L 120.944062 259.579482 
L 120.944062 258.515576 
L 121.159053 258.515576 
L 121.159053 258.160941 
L 122.399825 258.160941 
L 122.399825 257.097035 
L 123.183753 257.097035 
L 123.183753 256.033129 
L 123.563797 256.033129 
L 123.563797 255.678494 
L 124.119844 255.678494 
L 124.119844 255.323859 
L 124.3016 255.323859 
L 124.3016 254.969224 
L 124.481616 254.969224 
L 124.481616 254.259953 
L 125.35673 254.259953 
L 125.35673 253.905318 
L 126.355808 253.905318 
L 126.355808 253.550682 
L 127.149662 253.550682 
L 127.149662 252.486776 
L 127.458055 252.486776 
L 127.458055 252.132141 
L 127.761474 252.132141 
L 127.761474 251.777506 
L 128.643427 251.777506 
L 128.643427 251.422871 
L 129.069367 251.422871 
L 129.069367 251.068235 
L 129.348062 251.068235 
L 129.348062 250.7136 
L 129.485876 250.7136 
L 129.485876 250.358965 
L 129.622688 250.358965 
L 129.622688 249.649694 
L 130.160198 249.649694 
L 130.160198 249.295059 
L 130.292209 249.295059 
L 130.292209 248.940424 
L 131.440389 248.940424 
L 131.440389 247.876518 
L 132.405295 247.876518 
L 132.405295 247.521882 
L 133.434756 247.521882 
L 133.434756 246.812612 
L 133.656071 246.812612 
L 133.765759 245.748706 
L 134.828842 245.748706 
L 134.931919 245.039435 
L 135.338671 245.039435 
L 135.338671 244.330165 
L 135.638065 244.330165 
L 135.638065 243.620894 
L 135.835047 243.620894 
L 135.835047 243.266259 
L 136.508678 243.266259 
L 136.508678 242.911624 
L 136.696795 242.911624 
L 136.696795 242.556988 
L 136.97549 242.556988 
L 136.97549 242.202353 
L 138.137618 242.202353 
L 138.137618 241.847718 
L 138.650692 241.847718 
L 138.650692 241.493082 
L 138.985129 241.493082 
L 138.985129 240.783812 
L 139.636676 240.783812 
L 139.636676 240.429176 
L 139.796097 240.429176 
L 139.796097 240.074541 
L 139.954178 240.074541 
L 139.954178 239.365271 
L 140.573544 239.365271 
L 140.573544 238.656 
L 141.465959 238.656 
L 141.465959 238.301365 
L 142.108542 238.301365 
L 142.178603 237.592094 
L 142.525051 237.592094 
L 142.525051 237.237459 
L 142.999601 237.237459 
L 143.066428 236.528188 
L 143.133017 236.528188 
L 143.133017 236.173553 
L 143.721949 236.173553 
L 143.721949 235.818918 
L 144.293001 235.818918 
L 144.293001 235.464282 
L 144.417581 235.464282 
L 144.479563 234.045741 
L 144.968202 234.045741 
L 144.968202 233.691106 
L 145.207843 233.691106 
L 145.26728 232.6272 
L 145.326529 232.6272 
L 145.326529 232.272565 
L 145.851536 232.272565 
L 145.851536 231.917929 
L 146.24998 231.917929 
L 146.24998 231.563294 
L 146.529503 231.563294 
L 146.529503 231.208659 
L 146.695245 231.208659 
L 146.750169 230.499388 
L 147.130214 230.499388 
L 147.183884 229.790118 
L 147.343984 229.790118 
L 147.397049 228.726212 
L 147.868016 228.726212 
L 147.868016 228.371576 
L 148.226342 228.371576 
L 148.226342 228.016941 
L 148.377845 228.016941 
L 148.377845 227.307671 
L 148.57797 227.307671 
L 148.57797 226.953035 
L 148.726679 226.953035 
L 148.726679 226.5984 
L 148.874221 226.5984 
L 148.874221 226.243765 
L 149.165879 226.243765 
L 149.214052 225.179859 
L 149.357835 225.179859 
L 149.453084 223.406682 
L 149.500528 223.406682 
L 149.500528 222.697412 
L 149.642146 222.697412 
L 149.642146 222.342776 
L 149.829328 222.342776 
L 149.829328 221.988141 
L 150.014665 221.988141 
L 150.014665 220.924235 
L 150.198193 220.924235 
L 150.243797 220.214965 
L 150.649331 220.214965 
L 150.649331 219.860329 
L 150.870907 219.860329 
L 150.870907 219.151059 
L 151.689867 219.151059 
L 151.689867 218.796424 
L 151.857828 218.796424 
L 151.857828 218.441788 
L 151.982822 218.441788 
L 152.065693 217.732518 
L 152.1482 217.732518 
L 152.230346 217.023247 
L 152.271285 217.023247 
L 152.271285 216.668612 
L 152.474656 216.668612 
L 152.555392 215.959341 
L 152.595631 215.959341 
L 152.595631 213.831529 
L 152.715833 213.831529 
L 152.715833 213.476894 
L 152.835271 213.476894 
L 152.914478 211.703718 
L 153.111048 211.703718 
L 153.111048 210.639812 
L 153.228011 210.639812 
L 153.228011 209.930541 
L 153.536404 209.930541 
L 153.536404 209.575906 
L 153.802162 209.575906 
L 153.802162 208.157365 
L 153.989717 208.157365 
L 154.064218 207.093459 
L 154.101358 207.093459 
L 154.212341 206.029553 
L 154.649839 206.029553 
L 154.721776 204.965647 
L 154.935952 204.965647 
L 154.935952 204.256376 
L 155.112587 204.256376 
L 155.147716 203.547106 
L 155.28758 203.547106 
L 155.28758 203.192471 
L 155.426411 203.192471 
L 155.529866 202.4832 
L 155.598521 202.4832 
L 155.632755 201.419294 
L 155.769072 201.419294 
L 155.769072 198.227576 
L 155.904407 198.227576 
L 155.904407 197.872941 
L 156.072219 197.872941 
L 156.172192 195.035859 
L 156.238546 195.035859 
L 156.304668 192.908047 
L 156.468962 192.908047 
L 156.501649 191.844141 
L 156.664239 191.844141 
L 156.761123 191.134871 
L 156.825436 191.134871 
L 156.857511 190.4256 
L 156.985263 190.4256 
L 157.048816 188.652424 
L 157.143744 188.652424 
L 157.238196 186.879247 
L 157.332175 186.879247 
L 157.425688 185.815341 
L 157.456756 185.815341 
L 157.518738 184.3968 
L 157.61133 184.3968 
L 157.703468 183.687529 
L 157.764644 183.687529 
L 157.825621 181.914353 
L 157.886402 181.914353 
L 157.977206 179.786541 
L 158.067574 179.786541 
L 158.0976 177.304094 
L 158.276759 177.304094 
L 158.336102 176.594824 
L 158.424766 176.594824 
L 158.513014 175.176282 
L 158.571617 175.176282 
L 158.571617 174.821647 
L 158.775302 174.821647 
L 158.775302 174.112376 
L 158.948151 174.112376 
L 159.005416 172.3392 
L 159.062507 172.3392 
L 159.062507 171.984565 
L 159.232748 171.984565 
L 159.317295 169.147482 
L 159.373449 169.147482 
L 159.457367 167.374306 
L 159.485256 167.374306 
L 159.568678 164.182588 
L 159.706897 164.182588 
L 159.789344 162.764047 
L 159.844108 162.764047 
L 159.871431 161.700141 
L 160.061585 161.700141 
L 160.115564 160.636235 
L 160.196243 160.636235 
L 160.276577 158.153788 
L 160.356569 158.153788 
L 160.4627 156.735247 
L 160.489139 156.735247 
L 160.594526 154.962071 
L 160.646999 154.962071 
L 160.646999 154.607435 
L 160.777545 154.607435 
L 160.881333 152.124988 
L 160.984551 152.124988 
L 161.087207 150.706447 
L 161.112783 150.706447 
L 161.189305 145.386918 
L 161.265517 145.386918 
L 161.290852 142.904471 
L 161.391854 142.904471 
L 161.442152 142.1952 
L 161.517348 142.1952 
L 161.567313 140.067388 
L 161.642011 140.067388 
L 161.74115 137.584941 
L 161.765853 137.584941 
L 161.864343 136.1664 
L 161.937874 136.1664 
L 162.03547 135.102494 
L 162.05979 135.102494 
L 162.05979 133.683953 
L 162.205054 133.683953 
L 162.301277 131.910776 
L 162.373122 131.910776 
L 162.468491 130.492235 
L 162.515995 130.492235 
L 162.610645 127.300518 
L 162.634233 127.300518 
L 162.634233 126.945882 
L 162.775144 126.945882 
L 162.868502 124.463435 
L 162.915008 124.463435 
L 163.007676 121.980988 
L 163.030771 121.980988 
L 163.053839 120.917082 
L 163.168754 120.917082 
L 163.214524 114.179012 
L 163.328465 114.179012 
L 163.419123 109.214118 
L 163.666204 109.214118 
L 163.710781 107.086306 
L 163.821764 107.086306 
L 163.910081 103.539953 
L 163.976048 103.539953 
L 164.085482 99.638965 
L 164.150838 99.638965 
L 164.150838 98.575059 
L 164.302457 98.575059 
L 164.410013 97.511153 
L 164.474253 97.511153 
L 164.559567 96.447247 
L 164.602079 96.447247 
L 164.665667 94.674071 
L 164.729041 94.674071 
L 164.813209 92.900894 
L 164.959603 92.900894 
L 165.063478 87.226729 
L 165.146166 87.226729 
L 165.249018 83.325741 
L 165.290001 83.325741 
L 165.371702 81.197929 
L 165.432746 81.197929 
L 165.534047 79.779388 
L 165.554242 79.779388 
L 165.634805 78.715482 
L 165.794904 78.715482 
L 165.894279 78.006212 
L 165.914091 78.006212 
L 165.993131 76.587671 
L 166.052194 76.587671 
L 166.071841 73.041318 
L 166.267186 73.041318 
L 166.325396 71.268141 
L 166.40273 71.268141 
L 166.422014 69.494965 
L 166.518139 69.494965 
L 166.613775 65.948612 
L 166.651893 65.948612 
L 166.746854 56.728094 
L 166.765788 56.728094 
L 166.841337 53.181741 
L 166.991529 53.181741 
L 167.028891 51.7632 
L 167.196106 51.7632 
L 167.196106 51.053929 
L 167.325142 51.053929 
L 167.435044 48.926118 
L 167.453299 48.926118 
L 167.453299 48.571482 
L 168.186891 48.571482 
L 168.256952 46.443671 
L 168.344164 46.443671 
L 168.344164 46.089035 
L 168.586228 46.089035 
L 168.586228 45.025129 
L 168.757243 45.025129 
L 168.757243 43.251953 
L 168.943582 43.251953 
L 169.027674 41.833412 
L 169.094679 41.833412 
L 169.194741 40.769506 
L 169.227977 40.769506 
L 169.227977 39.7056 
L 169.393282 39.7056 
L 169.442591 38.287059 
L 169.540824 38.287059 
L 169.573454 37.223153 
L 169.719596 37.223153 
L 169.735764 35.804612 
L 169.848553 35.804612 
L 169.928705 34.740706 
L 169.96067 34.740706 
L 170.040346 31.194353 
L 170.087991 31.194353 
L 170.087991 30.839718 
L 170.214455 30.839718 
L 170.293066 29.421176 
L 170.573376 29.421176 
L 170.573376 29.066541 
L 170.84957 29.066541 
L 170.925576 28.002635 
L 171.419661 28.002635 
L 171.419661 27.648 
L 360.8064 27.648 
L 360.8064 27.648 
" style="fill: none; stroke: #ff00ff; stroke-width: 1.5; stroke-linecap: square"/>
   </g>
   <g id="line2d_40">
    <defs>
     <path id="mb844e66eaa" d="M -0 8.485281 
L 5.091169 0 
L 0 -8.485281 
L -5.091169 -0 
z
" style="stroke: #ff00ff; stroke-width: 1.5; stroke-linejoin: miter"/>
    </defs>
    <g>
     <use xlink:href="#mb844e66eaa" x="156.468962" y="192.908047" style="fill-opacity: 0; stroke: #ff00ff; stroke-width: 1.5; stroke-linejoin: miter"/>
     <use xlink:href="#mb844e66eaa" x="171.419661" y="28.002635" style="fill-opacity: 0; stroke: #ff00ff; stroke-width: 1.5; stroke-linejoin: miter"/>
     <use xlink:href="#mb844e66eaa" x="171.419661" y="28.002635" style="fill-opacity: 0; stroke: #ff00ff; stroke-width: 1.5; stroke-linejoin: miter"/>
     <use xlink:href="#mb844e66eaa" x="171.419661" y="27.648" style="fill-opacity: 0; stroke: #ff00ff; stroke-width: 1.5; stroke-linejoin: miter"/>
     <use xlink:href="#mb844e66eaa" x="360.8064" y="27.648" style="fill-opacity: 0; stroke: #ff00ff; stroke-width: 1.5; stroke-linejoin: miter"/>
    </g>
   </g>
   <g id="line2d_41">
    <path style="fill: none; stroke: #ff00ff; stroke-width: 1.5; stroke-linecap: square"/>
    <g/>
   </g>
   <g id="line2d_42">
    <defs>
     <path id="m44bb186b08" d="M 0 1.5 
C 0.397805 1.5 0.77937 1.341951 1.06066 1.06066 
C 1.341951 0.77937 1.5 0.397805 1.5 0 
C 1.5 -0.397805 1.341951 -0.77937 1.06066 -1.06066 
C 0.77937 -1.341951 0.397805 -1.5 0 -1.5 
C -0.397805 -1.5 -0.77937 -1.341951 -1.06066 -1.06066 
C -1.341951 -0.77937 -1.5 -0.397805 -1.5 0 
C -1.5 0.397805 -1.341951 0.77937 -1.06066 1.06066 
C -0.77937 1.341951 -0.397805 1.5 0 1.5 
z
" style="stroke: #ff7500"/>
    </defs>
    <g>
     <use xlink:href="#m44bb186b08" x="170.245939" y="27.648" style="fill: #ff7500; stroke: #ff7500"/>
     <use xlink:href="#m44bb186b08" x="170.245939" y="27.648" style="fill: #ff7500; stroke: #ff7500"/>
    </g>
   </g>
   <g id="line2d_43">
    <path d="M 36.933397 298.944 
L 36.933397 272.346353 
L 96.717523 272.346353 
L 96.717523 271.991718 
L 98.933205 271.991718 
L 98.933205 271.637082 
L 102.12927 271.637082 
L 102.12927 270.573176 
L 106.326946 270.573176 
L 106.326946 270.218541 
L 107.68741 270.218541 
L 107.68741 269.509271 
L 108.956085 269.509271 
L 108.956085 269.154635 
L 111.262425 269.154635 
L 111.262425 267.381459 
L 111.620752 267.381459 
L 111.620752 265.962918 
L 111.97238 265.962918 
L 111.97238 264.899012 
L 112.989468 264.899012 
L 112.989468 264.544376 
L 114.571202 264.544376 
L 114.571202 264.189741 
L 114.872193 264.189741 
L 114.872193 263.480471 
L 116.030193 263.480471 
L 116.030193 262.061929 
L 117.6436 262.061929 
L 117.6436 260.643388 
L 118.152051 260.643388 
L 118.152051 259.934118 
L 118.64712 259.934118 
L 118.64712 259.579482 
L 118.889854 259.579482 
L 118.889854 258.515576 
L 119.129494 258.515576 
L 119.129494 258.160941 
L 119.366121 258.160941 
L 119.366121 257.806306 
L 120.506564 257.806306 
L 120.506564 256.7424 
L 122.19863 256.7424 
L 122.19863 256.033129 
L 122.399825 256.033129 
L 122.399825 254.969224 
L 122.598891 254.969224 
L 122.598891 254.259953 
L 122.795872 254.259953 
L 122.795872 253.550682 
L 122.990812 253.550682 
L 122.990812 252.841412 
L 123.374735 252.841412 
L 123.374735 252.132141 
L 123.936316 252.132141 
L 123.936316 251.422871 
L 124.3016 251.422871 
L 124.3016 251.068235 
L 125.184934 251.068235 
L 125.184934 248.940424 
L 125.695686 248.940424 
L 125.695686 248.585788 
L 125.862901 248.585788 
L 125.862901 248.231153 
L 126.517282 248.231153 
L 126.517282 247.167247 
L 126.677381 247.167247 
L 126.677381 246.812612 
L 127.610376 246.812612 
L 127.610376 246.457976 
L 128.643427 246.457976 
L 128.643427 246.103341 
L 129.348062 246.103341 
L 129.348062 245.748706 
L 129.622688 245.748706 
L 129.622688 245.394071 
L 130.553485 245.394071 
L 130.553485 244.6848 
L 130.811181 244.6848 
L 130.811181 244.330165 
L 131.065395 244.330165 
L 131.065395 243.975529 
L 131.686295 243.975529 
L 131.686295 243.620894 
L 131.808053 243.620894 
L 131.808053 243.266259 
L 132.638982 243.266259 
L 132.638982 242.911624 
L 132.754746 242.911624 
L 132.754746 242.556988 
L 133.323114 242.556988 
L 133.323114 242.202353 
L 134.828842 242.202353 
L 134.931919 240.074541 
L 135.538796 240.074541 
L 135.538796 239.719906 
L 136.126705 239.719906 
L 136.126705 239.365271 
L 137.159019 239.365271 
L 137.250116 238.656 
L 137.340774 238.656 
L 137.340774 238.301365 
L 137.875736 238.301365 
L 137.963436 237.237459 
L 138.050729 237.237459 
L 138.050729 236.882824 
L 138.310202 236.882824 
L 138.310202 236.528188 
L 138.73486 236.528188 
L 138.73486 236.173553 
L 139.313723 236.173553 
L 139.313723 235.818918 
L 139.636676 235.818918 
L 139.636676 235.464282 
L 139.954178 235.464282 
L 140.032723 234.755012 
L 140.649551 234.755012 
L 140.649551 234.400376 
L 141.025043 234.400376 
L 141.099251 233.691106 
L 141.173167 233.691106 
L 141.173167 233.336471 
L 141.538451 233.336471 
L 141.538451 232.6272 
L 141.754265 232.6272 
L 141.825656 231.917929 
L 142.865233 231.917929 
L 142.865233 231.563294 
L 143.066428 231.563294 
L 143.133017 230.499388 
L 143.52768 230.499388 
L 143.592659 229.080847 
L 143.850356 229.080847 
L 143.914232 228.371576 
L 144.041338 228.371576 
L 144.041338 227.662306 
L 144.847227 227.662306 
L 144.907812 226.953035 
L 145.0284 226.953035 
L 145.0284 226.5984 
L 145.148219 226.5984 
L 145.207843 225.889129 
L 145.26728 225.889129 
L 145.26728 225.179859 
L 145.620007 225.179859 
L 145.620007 224.115953 
L 145.736128 224.115953 
L 145.736128 223.761318 
L 146.023332 223.761318 
L 146.023332 223.052047 
L 146.64016 223.052047 
L 146.64016 222.697412 
L 146.859539 222.697412 
L 146.859539 222.342776 
L 147.022411 222.342776 
L 147.022411 221.278871 
L 147.607824 221.278871 
L 147.712333 220.214965 
L 147.868016 220.214965 
L 147.971093 219.505694 
L 148.276979 219.505694 
L 148.377845 218.087153 
L 148.428077 218.087153 
L 148.528138 217.377882 
L 148.726679 217.377882 
L 148.726679 216.668612 
L 149.357835 216.668612 
L 149.453084 215.250071 
L 149.642146 215.250071 
L 149.689117 214.5408 
L 149.829328 214.5408 
L 149.829328 214.186165 
L 150.014665 214.186165 
L 150.060715 212.767624 
L 150.152479 212.767624 
L 150.243797 208.866635 
L 150.559965 208.866635 
L 150.559965 208.512 
L 150.870907 208.512 
L 150.958812 206.738824 
L 151.220087 206.738824 
L 151.220087 206.384188 
L 151.477784 206.384188 
L 151.562904 205.674918 
L 151.647641 205.674918 
L 151.689867 203.547106 
L 151.774035 203.547106 
L 151.857828 202.4832 
L 152.024303 202.4832 
L 152.065693 201.419294 
L 152.1482 201.419294 
L 152.1482 201.064659 
L 152.271285 201.064659 
L 152.312136 199.291482 
L 152.555392 199.291482 
L 152.555392 198.936847 
L 152.715833 198.936847 
L 152.795543 196.099765 
L 152.874916 196.099765 
L 152.874916 195.745129 
L 152.993353 195.745129 
L 152.993353 195.035859 
L 153.150116 195.035859 
L 153.189104 193.262682 
L 153.266838 193.262682 
L 153.266838 192.908047 
L 153.49813 192.908047 
L 153.5746 191.844141 
L 153.612719 191.844141 
L 153.650761 191.134871 
L 153.726614 191.134871 
L 153.726614 190.780235 
L 153.914919 190.780235 
L 153.989717 189.716329 
L 154.027004 189.716329 
L 154.027004 189.361694 
L 154.24919 189.361694 
L 154.322673 188.652424 
L 154.39587 188.652424 
L 154.505134 186.524612 
L 154.721776 186.524612 
L 154.829169 185.460706 
L 154.86483 185.460706 
L 154.900425 184.3968 
L 155.006805 184.3968 
L 155.077392 183.332894 
L 155.217778 183.332894 
L 155.322384 181.914353 
L 155.357123 181.914353 
L 155.460959 180.495812 
L 155.632755 180.495812 
L 155.701037 179.431906 
L 155.769072 179.431906 
L 155.870664 172.693835 
L 155.904407 172.693835 
L 155.904407 172.3392 
L 156.072219 172.3392 
L 156.172192 171.275294 
L 156.205398 171.275294 
L 156.205398 170.920659 
L 156.337642 170.920659 
L 156.436218 168.792847 
L 156.664239 168.792847 
L 156.761123 165.955765 
L 156.953406 165.955765 
L 157.017067 164.182588 
L 157.080512 164.182588 
L 157.080512 163.473318 
L 157.238196 163.473318 
L 157.332175 162.764047 
L 157.363398 162.764047 
L 157.425688 160.990871 
L 157.518738 160.990871 
L 157.580516 158.863059 
L 157.703468 158.863059 
L 157.795157 155.671341 
L 157.825621 155.671341 
L 157.916719 154.2528 
L 157.946987 154.2528 
L 157.946987 153.898165 
L 158.0976 153.898165 
L 158.15751 153.188894 
L 158.247018 153.188894 
L 158.336102 149.287906 
L 158.513014 149.287906 
L 158.571617 147.160094 
L 158.659181 147.160094 
L 158.746339 145.741553 
L 158.775302 145.741553 
L 158.775302 143.968376 
L 158.890711 143.968376 
L 158.976805 140.776659 
L 159.005416 140.776659 
L 159.062507 139.003482 
L 159.204482 139.003482 
L 159.289155 137.584941 
L 159.317295 137.584941 
L 159.317295 136.875671 
L 159.429436 136.875671 
L 159.513105 133.683953 
L 159.540912 133.683953 
L 159.596403 132.265412 
L 159.679334 132.265412 
L 159.734419 131.556141 
L 159.844108 131.556141 
L 159.953161 128.719059 
L 159.980326 128.719059 
L 160.088594 125.172706 
L 160.115564 125.172706 
L 160.169388 124.463435 
L 160.249837 124.463435 
L 160.329943 123.044894 
L 160.383158 123.044894 
L 160.4627 120.917082 
L 160.515541 120.917082 
L 160.594526 118.08 
L 160.646999 118.08 
L 160.673181 114.888282 
L 160.82951 114.888282 
L 160.82951 113.469741 
L 160.984551 113.469741 
L 161.061595 112.405835 
L 161.138325 112.405835 
L 161.189305 109.568753 
L 161.290852 109.568753 
L 161.366654 108.504847 
L 161.41702 108.504847 
L 161.492316 106.0224 
L 161.542347 106.0224 
L 161.642011 104.249224 
L 161.74115 104.249224 
L 161.790524 102.476047 
L 161.864343 102.476047 
L 161.937874 97.865788 
L 162.05979 97.865788 
L 162.108336 96.447247 
L 162.39701 96.447247 
L 162.444694 92.900894 
L 162.515995 92.900894 
L 162.610645 90.773082 
L 162.634233 90.773082 
L 162.657792 89.709176 
L 162.798527 89.709176 
L 162.891769 87.226729 
L 162.961399 87.226729 
L 162.984551 84.035012 
L 163.099889 84.035012 
L 163.099889 83.680376 
L 163.237368 83.680376 
L 163.305732 81.197929 
L 163.351171 81.197929 
L 163.351171 80.488659 
L 163.486831 80.488659 
L 163.509347 78.360847 
L 163.73303 78.360847 
L 163.821764 75.169129 
L 163.865975 75.169129 
L 163.954085 73.395953 
L 163.997986 73.395953 
L 164.107292 70.913506 
L 164.129077 70.913506 
L 164.172572 70.204235 
L 164.280872 70.204235 
L 164.388551 66.303247 
L 164.410013 66.303247 
L 164.495618 63.111529 
L 164.644495 63.111529 
L 164.729041 60.983718 
L 164.771172 60.983718 
L 164.876089 57.792 
L 164.93876 57.792 
L 165.042749 57.082729 
L 165.146166 57.082729 
L 165.146166 56.728094 
L 165.269521 56.728094 
L 165.31046 54.245647 
L 165.45305 54.245647 
L 165.554242 51.408565 
L 165.574415 51.408565 
L 165.574415 51.053929 
L 165.735027 51.053929 
L 165.774966 48.216847 
L 165.874446 48.216847 
L 165.894279 47.152941 
L 165.993131 47.152941 
L 166.032527 45.7344 
L 166.286609 45.7344 
L 166.383426 44.315859 
L 166.518139 44.315859 
L 166.537305 42.897318 
L 166.670924 42.897318 
L 166.708927 41.124141 
L 166.916583 41.124141 
L 166.972821 38.996329 
L 167.214594 38.996329 
L 167.325142 36.868518 
L 167.453299 36.868518 
L 167.544308 35.804612 
L 167.725016 35.804612 
L 167.725016 33.6768 
L 167.868343 33.6768 
L 167.868343 32.967529 
L 167.992864 32.967529 
L 167.992864 32.258259 
L 168.326754 32.258259 
L 168.413644 31.548988 
L 168.689024 31.548988 
L 168.689024 30.839718 
L 169.277721 30.839718 
L 169.277721 30.485082 
L 169.409732 30.485082 
L 169.409732 30.130447 
L 169.540824 30.130447 
L 169.540824 29.066541 
L 169.832482 29.066541 
L 169.832482 28.711906 
L 170.135514 28.711906 
L 170.245939 27.648 
L 360.8064 27.648 
L 360.8064 27.648 
" style="fill: none; stroke: #ff7500; stroke-width: 1.5; stroke-linecap: square"/>
   </g>
   <g id="line2d_44">
    <defs>
     <path id="md215b198fd" d="M 0 -6 
L -1.347084 -1.854102 
L -5.706339 -1.854102 
L -2.179628 0.708204 
L -3.526712 4.854102 
L -0 2.291796 
L 3.526712 4.854102 
L 2.179628 0.708204 
L 5.706339 -1.854102 
L 1.347084 -1.854102 
z
" style="stroke: #ff7500; stroke-width: 1.5; stroke-linejoin: bevel"/>
    </defs>
    <g>
     <use xlink:href="#md215b198fd" x="150.060715" y="212.767624" style="fill-opacity: 0; stroke: #ff7500; stroke-width: 1.5; stroke-linejoin: bevel"/>
     <use xlink:href="#md215b198fd" x="162.868502" y="89.354541" style="fill-opacity: 0; stroke: #ff7500; stroke-width: 1.5; stroke-linejoin: bevel"/>
     <use xlink:href="#md215b198fd" x="170.245939" y="28.002635" style="fill-opacity: 0; stroke: #ff7500; stroke-width: 1.5; stroke-linejoin: bevel"/>
     <use xlink:href="#md215b198fd" x="170.245939" y="27.648" style="fill-opacity: 0; stroke: #ff7500; stroke-width: 1.5; stroke-linejoin: bevel"/>
     <use xlink:href="#md215b198fd" x="170.245939" y="27.648" style="fill-opacity: 0; stroke: #ff7500; stroke-width: 1.5; stroke-linejoin: bevel"/>
     <use xlink:href="#md215b198fd" x="360.8064" y="27.648" style="fill-opacity: 0; stroke: #ff7500; stroke-width: 1.5; stroke-linejoin: bevel"/>
    </g>
   </g>
   <g id="line2d_45">
    <path style="fill: none; stroke: #ff7500; stroke-width: 1.5; stroke-linecap: square"/>
    <g/>
   </g>
   <g id="line2d_46">
    <path d="M 360.8064 27.648 
L 380.514816 293.51808 
" style="fill: none; stroke: #ff00ff; stroke-width: 1.5; stroke-linecap: square"/>
    <g>
     <use xlink:href="#mb844e66eaa" x="360.8064" y="27.648" style="fill-opacity: 0; stroke: #ff00ff; stroke-width: 1.5; stroke-linejoin: miter"/>
     <use xlink:href="#mb844e66eaa" x="380.514816" y="293.51808" style="fill-opacity: 0; stroke: #ff00ff; stroke-width: 1.5; stroke-linejoin: miter"/>
    </g>
   </g>
   <g id="line2d_47">
    <path d="M 360.8064 27.648 
L 380.514816 206.70336 
" style="fill: none; stroke: #ff7500; stroke-width: 1.5; stroke-linecap: square"/>
    <g>
     <use xlink:href="#md215b198fd" x="360.8064" y="27.648" style="fill-opacity: 0; stroke: #ff7500; stroke-width: 1.5; stroke-linejoin: bevel"/>
     <use xlink:href="#md215b198fd" x="380.514816" y="206.70336" style="fill-opacity: 0; stroke: #ff7500; stroke-width: 1.5; stroke-linejoin: bevel"/>
    </g>
   </g>
   <g id="line2d_48">
    <path d="M 360.8064 27.648 
L 380.514816 119.88864 
" style="fill: none; stroke: #000080; stroke-width: 1.5; stroke-linecap: square"/>
    <g>
     <use xlink:href="#mc252da0305" x="360.8064" y="27.648" style="fill-opacity: 0; stroke: #000080; stroke-width: 1.5"/>
     <use xlink:href="#mc252da0305" x="380.514816" y="119.88864" style="fill-opacity: 0; stroke: #000080; stroke-width: 1.5"/>
    </g>
   </g>
   <g id="line2d_49">
    <path d="M 360.8064 298.944 
L 360.8064 27.648 
" style="fill: none; stroke: #000000; stroke-width: 1.5; stroke-linecap: square"/>
   </g>
   <g id="patch_3">
    <path d="M 57.6 298.944 
L 360.8064 298.944 
" style="fill: none; stroke: #000000; stroke-width: 0.8; stroke-linejoin: miter; stroke-linecap: square"/>
   </g>
   <g id="patch_4">
    <path d="M 57.6 27.648 
L 360.8064 27.648 
" style="fill: none; stroke: #000000; stroke-width: 0.8; stroke-linejoin: miter; stroke-linecap: square"/>
   </g>
   <g id="text_13">
    <!-- ddcma0 -->
    <g transform="translate(386.578944 297.381205)scale(0.14 -0.14)">
     <use xlink:href="#DejaVuSans-64"/>
     <use xlink:href="#DejaVuSans-64" x="63.476562"/>
     <use xlink:href="#DejaVuSans-63" x="126.953125"/>
     <use xlink:href="#DejaVuSans-6d" x="181.933594"/>
     <use xlink:href="#DejaVuSans-61" x="279.345703"/>
     <use xlink:href="#DejaVuSans-30" x="340.625"/>
    </g>
   </g>
   <g id="text_14">
    <!-- CMA-ES-20 -->
    <g transform="translate(386.578944 210.566485)scale(0.14 -0.14)">
     <defs>
      <path id="DejaVuSans-43" d="M 4122 4306 
L 4122 3641 
Q 3803 3938 3442 4084 
Q 3081 4231 2675 4231 
Q 1875 4231 1450 3742 
Q 1025 3253 1025 2328 
Q 1025 1406 1450 917 
Q 1875 428 2675 428 
Q 3081 428 3442 575 
Q 3803 722 4122 1019 
L 4122 359 
Q 3791 134 3420 21 
Q 3050 -91 2638 -91 
Q 1578 -91 968 557 
Q 359 1206 359 2328 
Q 359 3453 968 4101 
Q 1578 4750 2638 4750 
Q 3056 4750 3426 4639 
Q 3797 4528 4122 4306 
z
" transform="scale(0.015625)"/>
      <path id="DejaVuSans-4d" d="M 628 4666 
L 1569 4666 
L 2759 1491 
L 3956 4666 
L 4897 4666 
L 4897 0 
L 4281 0 
L 4281 4097 
L 3078 897 
L 2444 897 
L 1241 4097 
L 1241 0 
L 628 0 
L 628 4666 
z
" transform="scale(0.015625)"/>
      <path id="DejaVuSans-41" d="M 2188 4044 
L 1331 1722 
L 3047 1722 
L 2188 4044 
z
M 1831 4666 
L 2547 4666 
L 4325 0 
L 3669 0 
L 3244 1197 
L 1141 1197 
L 716 0 
L 50 0 
L 1831 4666 
z
" transform="scale(0.015625)"/>
      <path id="DejaVuSans-45" d="M 628 4666 
L 3578 4666 
L 3578 4134 
L 1259 4134 
L 1259 2753 
L 3481 2753 
L 3481 2222 
L 1259 2222 
L 1259 531 
L 3634 531 
L 3634 0 
L 628 0 
L 628 4666 
z
" transform="scale(0.015625)"/>
      <path id="DejaVuSans-53" d="M 3425 4513 
L 3425 3897 
Q 3066 4069 2747 4153 
Q 2428 4238 2131 4238 
Q 1616 4238 1336 4038 
Q 1056 3838 1056 3469 
Q 1056 3159 1242 3001 
Q 1428 2844 1947 2747 
L 2328 2669 
Q 3034 2534 3370 2195 
Q 3706 1856 3706 1288 
Q 3706 609 3251 259 
Q 2797 -91 1919 -91 
Q 1588 -91 1214 -16 
Q 841 59 441 206 
L 441 856 
Q 825 641 1194 531 
Q 1563 422 1919 422 
Q 2459 422 2753 634 
Q 3047 847 3047 1241 
Q 3047 1584 2836 1778 
Q 2625 1972 2144 2069 
L 1759 2144 
Q 1053 2284 737 2584 
Q 422 2884 422 3419 
Q 422 4038 858 4394 
Q 1294 4750 2059 4750 
Q 2388 4750 2728 4690 
Q 3069 4631 3425 4513 
z
" transform="scale(0.015625)"/>
     </defs>
     <use xlink:href="#DejaVuSans-43"/>
     <use xlink:href="#DejaVuSans-4d" x="69.824219"/>
     <use xlink:href="#DejaVuSans-41" x="156.103516"/>
     <use xlink:href="#DejaVuSans-2d" x="222.261719"/>
     <use xlink:href="#DejaVuSans-45" x="258.345703"/>
     <use xlink:href="#DejaVuSans-53" x="321.529297"/>
     <use xlink:href="#DejaVuSans-2d" x="385.005859"/>
     <use xlink:href="#DejaVuSans-32" x="421.089844"/>
     <use xlink:href="#DejaVuSans-30" x="484.712891"/>
    </g>
   </g>
   <g id="text_15">
    <!-- cma0 -->
    <g transform="translate(386.578944 123.751765)scale(0.14 -0.14)">
     <use xlink:href="#DejaVuSans-63"/>
     <use xlink:href="#DejaVuSans-6d" x="54.980469"/>
     <use xlink:href="#DejaVuSans-61" x="152.392578"/>
     <use xlink:href="#DejaVuSans-30" x="213.671875"/>
    </g>
   </g>
   <g id="text_16">
    <!-- best 2009 -->
    <g transform="translate(386.578944 36.937045)scale(0.14 -0.14)">
     <defs>
      <path id="DejaVuSans-62" d="M 3116 1747 
Q 3116 2381 2855 2742 
Q 2594 3103 2138 3103 
Q 1681 3103 1420 2742 
Q 1159 2381 1159 1747 
Q 1159 1113 1420 752 
Q 1681 391 2138 391 
Q 2594 391 2855 752 
Q 3116 1113 3116 1747 
z
M 1159 2969 
Q 1341 3281 1617 3432 
Q 1894 3584 2278 3584 
Q 2916 3584 3314 3078 
Q 3713 2572 3713 1747 
Q 3713 922 3314 415 
Q 2916 -91 2278 -91 
Q 1894 -91 1617 61 
Q 1341 213 1159 525 
L 1159 0 
L 581 0 
L 581 4863 
L 1159 4863 
L 1159 2969 
z
" transform="scale(0.015625)"/>
      <path id="DejaVuSans-39" d="M 703 97 
L 703 672 
Q 941 559 1184 500 
Q 1428 441 1663 441 
Q 2288 441 2617 861 
Q 2947 1281 2994 2138 
Q 2813 1869 2534 1725 
Q 2256 1581 1919 1581 
Q 1219 1581 811 2004 
Q 403 2428 403 3163 
Q 403 3881 828 4315 
Q 1253 4750 1959 4750 
Q 2769 4750 3195 4129 
Q 3622 3509 3622 2328 
Q 3622 1225 3098 567 
Q 2575 -91 1691 -91 
Q 1453 -91 1209 -44 
Q 966 3 703 97 
z
M 1959 2075 
Q 2384 2075 2632 2365 
Q 2881 2656 2881 3163 
Q 2881 3666 2632 3958 
Q 2384 4250 1959 4250 
Q 1534 4250 1286 3958 
Q 1038 3666 1038 3163 
Q 1038 2656 1286 2365 
Q 1534 2075 1959 2075 
z
" transform="scale(0.015625)"/>
     </defs>
     <use xlink:href="#DejaVuSans-62"/>
     <use xlink:href="#DejaVuSans-65" x="63.476562"/>
     <use xlink:href="#DejaVuSans-73" x="125"/>
     <use xlink:href="#DejaVuSans-74" x="177.099609"/>
     <use xlink:href="#DejaVuSans-20" x="216.308594"/>
     <use xlink:href="#DejaVuSans-32" x="248.095703"/>
     <use xlink:href="#DejaVuSans-30" x="311.71875"/>
     <use xlink:href="#DejaVuSans-30" x="375.341797"/>
     <use xlink:href="#DejaVuSans-39" x="438.964844"/>
    </g>
   </g>
   <g id="text_17">
    <!-- bbob f9, 3-D -->
    <g transform="translate(60.632064 38.111366)scale(0.102 -0.102)">
     <defs>
      <path id="DejaVuSans-33" d="M 2597 2516 
Q 3050 2419 3304 2112 
Q 3559 1806 3559 1356 
Q 3559 666 3084 287 
Q 2609 -91 1734 -91 
Q 1441 -91 1130 -33 
Q 819 25 488 141 
L 488 750 
Q 750 597 1062 519 
Q 1375 441 1716 441 
Q 2309 441 2620 675 
Q 2931 909 2931 1356 
Q 2931 1769 2642 2001 
Q 2353 2234 1838 2234 
L 1294 2234 
L 1294 2753 
L 1863 2753 
Q 2328 2753 2575 2939 
Q 2822 3125 2822 3475 
Q 2822 3834 2567 4026 
Q 2313 4219 1838 4219 
Q 1578 4219 1281 4162 
Q 984 4106 628 3988 
L 628 4550 
Q 988 4650 1302 4700 
Q 1616 4750 1894 4750 
Q 2613 4750 3031 4423 
Q 3450 4097 3450 3541 
Q 3450 3153 3228 2886 
Q 3006 2619 2597 2516 
z
" transform="scale(0.015625)"/>
      <path id="DejaVuSans-44" d="M 1259 4147 
L 1259 519 
L 2022 519 
Q 2988 519 3436 956 
Q 3884 1394 3884 2338 
Q 3884 3275 3436 3711 
Q 2988 4147 2022 4147 
L 1259 4147 
z
M 628 4666 
L 1925 4666 
Q 3281 4666 3915 4102 
Q 4550 3538 4550 2338 
Q 4550 1131 3912 565 
Q 3275 0 1925 0 
L 628 0 
L 628 4666 
z
" transform="scale(0.015625)"/>
     </defs>
     <use xlink:href="#DejaVuSans-62"/>
     <use xlink:href="#DejaVuSans-62" x="63.476562"/>
     <use xlink:href="#DejaVuSans-6f" x="126.953125"/>
     <use xlink:href="#DejaVuSans-62" x="188.134766"/>
     <use xlink:href="#DejaVuSans-20" x="251.611328"/>
     <use xlink:href="#DejaVuSans-66" x="283.398438"/>
     <use xlink:href="#DejaVuSans-39" x="318.603516"/>
     <use xlink:href="#DejaVuSans-2c" x="382.226562"/>
     <use xlink:href="#DejaVuSans-20" x="414.013672"/>
     <use xlink:href="#DejaVuSans-33" x="445.800781"/>
     <use xlink:href="#DejaVuSans-2d" x="509.423828"/>
     <use xlink:href="#DejaVuSans-44" x="545.507812"/>
    </g>
    <!-- 51 targets: 100..1e-08 -->
    <g transform="translate(60.632064 49.533135)scale(0.102 -0.102)">
     <defs>
      <path id="DejaVuSans-35" d="M 691 4666 
L 3169 4666 
L 3169 4134 
L 1269 4134 
L 1269 2991 
Q 1406 3038 1543 3061 
Q 1681 3084 1819 3084 
Q 2600 3084 3056 2656 
Q 3513 2228 3513 1497 
Q 3513 744 3044 326 
Q 2575 -91 1722 -91 
Q 1428 -91 1123 -41 
Q 819 9 494 109 
L 494 744 
Q 775 591 1075 516 
Q 1375 441 1709 441 
Q 2250 441 2565 725 
Q 2881 1009 2881 1497 
Q 2881 1984 2565 2268 
Q 2250 2553 1709 2553 
Q 1456 2553 1204 2497 
Q 953 2441 691 2322 
L 691 4666 
z
" transform="scale(0.015625)"/>
      <path id="DejaVuSans-3a" d="M 750 794 
L 1409 794 
L 1409 0 
L 750 0 
L 750 794 
z
M 750 3309 
L 1409 3309 
L 1409 2516 
L 750 2516 
L 750 3309 
z
" transform="scale(0.015625)"/>
     </defs>
     <use xlink:href="#DejaVuSans-35"/>
     <use xlink:href="#DejaVuSans-31" x="63.623047"/>
     <use xlink:href="#DejaVuSans-20" x="127.246094"/>
     <use xlink:href="#DejaVuSans-74" x="159.033203"/>
     <use xlink:href="#DejaVuSans-61" x="198.242188"/>
     <use xlink:href="#DejaVuSans-72" x="259.521484"/>
     <use xlink:href="#DejaVuSans-67" x="298.884766"/>
     <use xlink:href="#DejaVuSans-65" x="362.361328"/>
     <use xlink:href="#DejaVuSans-74" x="423.884766"/>
     <use xlink:href="#DejaVuSans-73" x="463.09375"/>
     <use xlink:href="#DejaVuSans-3a" x="515.193359"/>
     <use xlink:href="#DejaVuSans-20" x="548.884766"/>
     <use xlink:href="#DejaVuSans-31" x="580.671875"/>
     <use xlink:href="#DejaVuSans-30" x="644.294922"/>
     <use xlink:href="#DejaVuSans-30" x="707.917969"/>
     <use xlink:href="#DejaVuSans-2e" x="771.541016"/>
     <use xlink:href="#DejaVuSans-2e" x="803.328125"/>
     <use xlink:href="#DejaVuSans-31" x="835.115234"/>
     <use xlink:href="#DejaVuSans-65" x="898.738281"/>
     <use xlink:href="#DejaVuSans-2d" x="960.261719"/>
     <use xlink:href="#DejaVuSans-30" x="996.345703"/>
     <use xlink:href="#DejaVuSans-38" x="1059.96875"/>
    </g>
    <!-- 15 instances -->
    <g transform="translate(60.632064 60.954904)scale(0.102 -0.102)">
     <use xlink:href="#DejaVuSans-31"/>
     <use xlink:href="#DejaVuSans-35" x="63.623047"/>
     <use xlink:href="#DejaVuSans-20" x="127.246094"/>
     <use xlink:href="#DejaVuSans-69" x="159.033203"/>
     <use xlink:href="#DejaVuSans-6e" x="186.816406"/>
     <use xlink:href="#DejaVuSans-73" x="250.195312"/>
     <use xlink:href="#DejaVuSans-74" x="302.294922"/>
     <use xlink:href="#DejaVuSans-61" x="341.503906"/>
     <use xlink:href="#DejaVuSans-6e" x="402.783203"/>
     <use xlink:href="#DejaVuSans-63" x="466.162109"/>
     <use xlink:href="#DejaVuSans-65" x="521.142578"/>
     <use xlink:href="#DejaVuSans-73" x="582.666016"/>
    </g>
   </g>
   <g id="text_18">
    <!-- v2.6 -->
    <g style="fill: #808080" transform="translate(198.292262 294.151352)scale(0.1 -0.1)">
     <use xlink:href="#DejaVuSans-76"/>
     <use xlink:href="#DejaVuSans-32" x="59.179688"/>
     <use xlink:href="#DejaVuSans-2e" x="122.802734"/>
     <use xlink:href="#DejaVuSans-36" x="154.589844"/>
    </g>
   </g>
   <g id="text_19">
    <!-- 9 Rosenbrock rotated -->
    <g transform="translate(102.050075 21.648)scale(0.2 -0.2)">
     <defs>
      <path id="DejaVuSans-52" d="M 2841 2188 
Q 3044 2119 3236 1894 
Q 3428 1669 3622 1275 
L 4263 0 
L 3584 0 
L 2988 1197 
Q 2756 1666 2539 1819 
Q 2322 1972 1947 1972 
L 1259 1972 
L 1259 0 
L 628 0 
L 628 4666 
L 2053 4666 
Q 2853 4666 3247 4331 
Q 3641 3997 3641 3322 
Q 3641 2881 3436 2590 
Q 3231 2300 2841 2188 
z
M 1259 4147 
L 1259 2491 
L 2053 2491 
Q 2509 2491 2742 2702 
Q 2975 2913 2975 3322 
Q 2975 3731 2742 3939 
Q 2509 4147 2053 4147 
L 1259 4147 
z
" transform="scale(0.015625)"/>
      <path id="DejaVuSans-6b" d="M 581 4863 
L 1159 4863 
L 1159 1991 
L 2875 3500 
L 3609 3500 
L 1753 1863 
L 3688 0 
L 2938 0 
L 1159 1709 
L 1159 0 
L 581 0 
L 581 4863 
z
" transform="scale(0.015625)"/>
     </defs>
     <use xlink:href="#DejaVuSans-39"/>
     <use xlink:href="#DejaVuSans-20" x="63.623047"/>
     <use xlink:href="#DejaVuSans-52" x="95.410156"/>
     <use xlink:href="#DejaVuSans-6f" x="160.392578"/>
     <use xlink:href="#DejaVuSans-73" x="221.574219"/>
     <use xlink:href="#DejaVuSans-65" x="273.673828"/>
     <use xlink:href="#DejaVuSans-6e" x="335.197266"/>
     <use xlink:href="#DejaVuSans-62" x="398.576172"/>
     <use xlink:href="#DejaVuSans-72" x="462.052734"/>
     <use xlink:href="#DejaVuSans-6f" x="500.916016"/>
     <use xlink:href="#DejaVuSans-63" x="562.097656"/>
     <use xlink:href="#DejaVuSans-6b" x="617.078125"/>
     <use xlink:href="#DejaVuSans-20" x="674.988281"/>
     <use xlink:href="#DejaVuSans-72" x="706.775391"/>
     <use xlink:href="#DejaVuSans-6f" x="745.638672"/>
     <use xlink:href="#DejaVuSans-74" x="806.820312"/>
     <use xlink:href="#DejaVuSans-61" x="846.029297"/>
     <use xlink:href="#DejaVuSans-74" x="907.308594"/>
     <use xlink:href="#DejaVuSans-65" x="946.517578"/>
     <use xlink:href="#DejaVuSans-64" x="1008.041016"/>
    </g>
   </g>
  </g>
 </g>
 <defs>
  <clipPath id="p3c221dc95e">
   <rect x="57.6" y="27.648" width="303.2064" height="271.296"/>
  </clipPath>
 </defs>
</svg>
