<?xml version="1.0" encoding="utf-8" standalone="no"?>
<!DOCTYPE svg PUBLIC "-//W3C//DTD SVG 1.1//EN"
  "http://www.w3.org/Graphics/SVG/1.1/DTD/svg11.dtd">
<svg xmlns:xlink="http://www.w3.org/1999/xlink" width="460.8pt" height="345.6pt" viewBox="0 0 460.8 345.6" xmlns="http://www.w3.org/2000/svg" version="1.1">
 <metadata>
  <rdf:RDF xmlns:dc="http://purl.org/dc/elements/1.1/" xmlns:cc="http://creativecommons.org/ns#" xmlns:rdf="http://www.w3.org/1999/02/22-rdf-syntax-ns#">
   <cc:Work>
    <dc:type rdf:resource="http://purl.org/dc/dcmitype/StillImage"/>
    <dc:date>2022-03-28T13:42:15.004993</dc:date>
    <dc:format>image/svg+xml</dc:format>
    <dc:creator>
     <cc:Agent>
      <dc:title>Matplotlib v3.5.1, https://matplotlib.org/</dc:title>
     </cc:Agent>
    </dc:creator>
   </cc:Work>
  </rdf:RDF>
 </metadata>
 <defs>
  <style type="text/css">*{stroke-linejoin: round; stroke-linecap: butt}</style>
 </defs>
 <g id="figure_1">
  <g id="patch_1">
   <path d="M 0 345.6 
L 460.8 345.6 
L 460.8 0 
L 0 0 
z
" style="fill: #ffffff"/>
  </g>
  <g id="axes_1">
   <g id="patch_2">
    <path d="M 57.6 298.944 
L 360.8064 298.944 
L 360.8064 27.648 
L 57.6 27.648 
z
" style="fill: #ffffff"/>
   </g>
   <g id="line2d_1">
    <path d="M -1 224.470588 
L 245.179506 224.470588 
L 245.179506 219.151059 
L 254.322886 219.151059 
L 254.322886 213.831529 
L 269.414524 213.831529 
L 269.414524 208.512 
L 279.149823 208.512 
L 279.149823 203.192471 
L 288.874415 203.192471 
L 288.874415 197.872941 
L 298.187389 197.872941 
L 298.187389 192.553412 
L 301.20816 192.553412 
L 301.20816 187.233882 
L 305.565616 187.233882 
L 305.565616 181.914353 
L 308.76479 181.914353 
L 308.76479 176.594824 
L 308.843565 176.594824 
L 308.843565 171.275294 
L 308.925264 171.275294 
L 308.925264 165.955765 
L 309.040045 165.955765 
L 309.040045 160.636235 
L 310.897421 160.636235 
L 310.897421 155.316706 
L 319.799114 155.316706 
L 319.799114 149.997176 
L 319.80586 149.997176 
L 319.80586 144.677647 
L 319.811796 144.677647 
L 319.811796 139.358118 
L 319.81791 139.358118 
L 319.81791 134.038588 
L 319.822075 134.038588 
L 319.822075 128.719059 
L 319.827908 128.719059 
L 319.827908 123.399529 
L 319.830596 123.399529 
L 319.830596 118.08 
L 319.838277 118.08 
L 319.838277 112.760471 
L 319.84158 112.760471 
L 319.84158 107.440941 
L 319.8475 107.440941 
L 319.8475 102.121412 
L 319.852692 102.121412 
L 319.852692 96.801882 
L 319.857474 96.801882 
L 319.857474 91.482353 
L 319.861707 91.482353 
L 319.861707 86.162824 
L 319.867409 86.162824 
L 319.867409 80.843294 
L 319.872724 80.843294 
L 319.872724 75.523765 
L 319.878085 75.523765 
L 319.878085 70.204235 
L 319.882746 70.204235 
L 319.882746 64.884706 
L 319.886491 64.884706 
L 319.886491 59.565176 
L 319.891958 59.565176 
L 319.891958 54.245647 
L 319.896736 54.245647 
L 319.896736 48.926118 
L 319.901375 48.926118 
L 319.901375 43.606588 
L 319.904853 43.606588 
L 319.904853 38.287059 
L 319.90954 38.287059 
L 319.90954 32.967529 
L 319.914054 32.967529 
L 319.914054 27.648 
L 360.8064 27.648 
" style="fill: none; stroke: #f5deb3; stroke-width: 4; stroke-linecap: square"/>
   </g>
   <g id="line2d_2">
    <defs>
     <path id="m6de5cdb203" d="M -0 7.778175 
L 7.778175 0 
L 0 -7.778175 
L -7.778175 -0 
z
" style="stroke: #f5deb3; stroke-width: 1.5; stroke-linejoin: miter"/>
    </defs>
    <g>
     <use xlink:href="#m6de5cdb203" x="288.874415" y="203.192471" style="fill: #f5deb3; stroke: #f5deb3; stroke-width: 1.5; stroke-linejoin: miter"/>
     <use xlink:href="#m6de5cdb203" x="319.861707" y="86.162824" style="fill: #f5deb3; stroke: #f5deb3; stroke-width: 1.5; stroke-linejoin: miter"/>
     <use xlink:href="#m6de5cdb203" x="319.914054" y="27.648" style="fill: #f5deb3; stroke: #f5deb3; stroke-width: 1.5; stroke-linejoin: miter"/>
     <use xlink:href="#m6de5cdb203" x="360.8064" y="27.648" style="fill: #f5deb3; stroke: #f5deb3; stroke-width: 1.5; stroke-linejoin: miter"/>
    </g>
   </g>
   <g id="line2d_3">
    <path style="fill: none; stroke: #f5deb3; stroke-width: 4; stroke-linecap: square"/>
    <g/>
   </g>
   <g id="line2d_4">
    <path d="M 360.8064 27.648 
L 380.514816 33.07392 
" style="fill: none; stroke: #f5deb3; stroke-width: 4; stroke-linecap: square"/>
    <g>
     <use xlink:href="#m6de5cdb203" x="360.8064" y="27.648" style="fill: #f5deb3; stroke: #f5deb3; stroke-width: 1.5; stroke-linejoin: miter"/>
     <use xlink:href="#m6de5cdb203" x="380.514816" y="33.07392" style="fill: #f5deb3; stroke: #f5deb3; stroke-width: 1.5; stroke-linejoin: miter"/>
    </g>
   </g>
   <g id="matplotlib.axis_1">
    <g id="xtick_1">
     <g id="line2d_5">
      <path d="M 57.6 298.944 
L 57.6 27.648 
" clip-path="url(#p1a65d3f6d4)" style="fill: none; stroke: #b0b0b0; stroke-width: 0.8; stroke-linecap: square"/>
     </g>
     <g id="line2d_6">
      <defs>
       <path id="mc36a8ac123" d="M 0 0 
L 0 3.5 
" style="stroke: #000000; stroke-width: 0.8"/>
      </defs>
      <g>
       <use xlink:href="#mc36a8ac123" x="57.6" y="298.944" style="stroke: #000000; stroke-width: 0.8"/>
      </g>
     </g>
     <g id="text_1">
      <!-- 0 -->
      <g transform="translate(52.191875 318.861344)scale(0.17 -0.17)">
       <defs>
        <path id="DejaVuSans-30" d="M 2034 4250 
Q 1547 4250 1301 3770 
Q 1056 3291 1056 2328 
Q 1056 1369 1301 889 
Q 1547 409 2034 409 
Q 2525 409 2770 889 
Q 3016 1369 3016 2328 
Q 3016 3291 2770 3770 
Q 2525 4250 2034 4250 
z
M 2034 4750 
Q 2819 4750 3233 4129 
Q 3647 3509 3647 2328 
Q 3647 1150 3233 529 
Q 2819 -91 2034 -91 
Q 1250 -91 836 529 
Q 422 1150 422 2328 
Q 422 3509 836 4129 
Q 1250 4750 2034 4750 
z
" transform="scale(0.015625)"/>
       </defs>
       <use xlink:href="#DejaVuSans-30"/>
      </g>
     </g>
    </g>
    <g id="xtick_2">
     <g id="line2d_7">
      <path d="M 144.2304 298.944 
L 144.2304 27.648 
" clip-path="url(#p1a65d3f6d4)" style="fill: none; stroke: #b0b0b0; stroke-width: 0.8; stroke-linecap: square"/>
     </g>
     <g id="line2d_8">
      <g>
       <use xlink:href="#mc36a8ac123" x="144.2304" y="298.944" style="stroke: #000000; stroke-width: 0.8"/>
      </g>
     </g>
     <g id="text_2">
      <!-- 2 -->
      <g transform="translate(138.822275 318.861344)scale(0.17 -0.17)">
       <defs>
        <path id="DejaVuSans-32" d="M 1228 531 
L 3431 531 
L 3431 0 
L 469 0 
L 469 531 
Q 828 903 1448 1529 
Q 2069 2156 2228 2338 
Q 2531 2678 2651 2914 
Q 2772 3150 2772 3378 
Q 2772 3750 2511 3984 
Q 2250 4219 1831 4219 
Q 1534 4219 1204 4116 
Q 875 4013 500 3803 
L 500 4441 
Q 881 4594 1212 4672 
Q 1544 4750 1819 4750 
Q 2544 4750 2975 4387 
Q 3406 4025 3406 3419 
Q 3406 3131 3298 2873 
Q 3191 2616 2906 2266 
Q 2828 2175 2409 1742 
Q 1991 1309 1228 531 
z
" transform="scale(0.015625)"/>
       </defs>
       <use xlink:href="#DejaVuSans-32"/>
      </g>
     </g>
    </g>
    <g id="xtick_3">
     <g id="line2d_9">
      <path d="M 230.8608 298.944 
L 230.8608 27.648 
" clip-path="url(#p1a65d3f6d4)" style="fill: none; stroke: #b0b0b0; stroke-width: 0.8; stroke-linecap: square"/>
     </g>
     <g id="line2d_10">
      <g>
       <use xlink:href="#mc36a8ac123" x="230.8608" y="298.944" style="stroke: #000000; stroke-width: 0.8"/>
      </g>
     </g>
     <g id="text_3">
      <!-- 4 -->
      <g transform="translate(225.452675 318.861344)scale(0.17 -0.17)">
       <defs>
        <path id="DejaVuSans-34" d="M 2419 4116 
L 825 1625 
L 2419 1625 
L 2419 4116 
z
M 2253 4666 
L 3047 4666 
L 3047 1625 
L 3713 1625 
L 3713 1100 
L 3047 1100 
L 3047 0 
L 2419 0 
L 2419 1100 
L 313 1100 
L 313 1709 
L 2253 4666 
z
" transform="scale(0.015625)"/>
       </defs>
       <use xlink:href="#DejaVuSans-34"/>
      </g>
     </g>
    </g>
    <g id="xtick_4">
     <g id="line2d_11">
      <path d="M 317.4912 298.944 
L 317.4912 27.648 
" clip-path="url(#p1a65d3f6d4)" style="fill: none; stroke: #b0b0b0; stroke-width: 0.8; stroke-linecap: square"/>
     </g>
     <g id="line2d_12">
      <g>
       <use xlink:href="#mc36a8ac123" x="317.4912" y="298.944" style="stroke: #000000; stroke-width: 0.8"/>
      </g>
     </g>
     <g id="text_4">
      <!-- 6 -->
      <g transform="translate(312.083075 318.861344)scale(0.17 -0.17)">
       <defs>
        <path id="DejaVuSans-36" d="M 2113 2584 
Q 1688 2584 1439 2293 
Q 1191 2003 1191 1497 
Q 1191 994 1439 701 
Q 1688 409 2113 409 
Q 2538 409 2786 701 
Q 3034 994 3034 1497 
Q 3034 2003 2786 2293 
Q 2538 2584 2113 2584 
z
M 3366 4563 
L 3366 3988 
Q 3128 4100 2886 4159 
Q 2644 4219 2406 4219 
Q 1781 4219 1451 3797 
Q 1122 3375 1075 2522 
Q 1259 2794 1537 2939 
Q 1816 3084 2150 3084 
Q 2853 3084 3261 2657 
Q 3669 2231 3669 1497 
Q 3669 778 3244 343 
Q 2819 -91 2113 -91 
Q 1303 -91 875 529 
Q 447 1150 447 2328 
Q 447 3434 972 4092 
Q 1497 4750 2381 4750 
Q 2619 4750 2861 4703 
Q 3103 4656 3366 4563 
z
" transform="scale(0.015625)"/>
       </defs>
       <use xlink:href="#DejaVuSans-36"/>
      </g>
     </g>
    </g>
    <g id="xtick_5">
     <g id="line2d_13">
      <path d="M 100.9152 298.944 
L 100.9152 27.648 
" clip-path="url(#p1a65d3f6d4)" style="fill: none; stroke: #b0b0b0; stroke-width: 0.8; stroke-linecap: square"/>
     </g>
     <g id="line2d_14">
      <defs>
       <path id="mbed75e327a" d="M 0 0 
L 0 2 
" style="stroke: #000000; stroke-width: 0.6"/>
      </defs>
      <g>
       <use xlink:href="#mbed75e327a" x="100.9152" y="298.944" style="stroke: #000000; stroke-width: 0.6"/>
      </g>
     </g>
    </g>
    <g id="xtick_6">
     <g id="line2d_15">
      <path d="M 187.5456 298.944 
L 187.5456 27.648 
" clip-path="url(#p1a65d3f6d4)" style="fill: none; stroke: #b0b0b0; stroke-width: 0.8; stroke-linecap: square"/>
     </g>
     <g id="line2d_16">
      <g>
       <use xlink:href="#mbed75e327a" x="187.5456" y="298.944" style="stroke: #000000; stroke-width: 0.6"/>
      </g>
     </g>
    </g>
    <g id="xtick_7">
     <g id="line2d_17">
      <path d="M 274.176 298.944 
L 274.176 27.648 
" clip-path="url(#p1a65d3f6d4)" style="fill: none; stroke: #b0b0b0; stroke-width: 0.8; stroke-linecap: square"/>
     </g>
     <g id="line2d_18">
      <g>
       <use xlink:href="#mbed75e327a" x="274.176" y="298.944" style="stroke: #000000; stroke-width: 0.6"/>
      </g>
     </g>
    </g>
    <g id="xtick_8">
     <g id="line2d_19">
      <path d="M 360.8064 298.944 
L 360.8064 27.648 
" clip-path="url(#p1a65d3f6d4)" style="fill: none; stroke: #b0b0b0; stroke-width: 0.8; stroke-linecap: square"/>
     </g>
     <g id="line2d_20">
      <g>
       <use xlink:href="#mbed75e327a" x="360.8064" y="298.944" style="stroke: #000000; stroke-width: 0.6"/>
      </g>
     </g>
    </g>
    <g id="text_5">
     <!-- log10(# f-evals / dimension) -->
     <g transform="translate(88.823278 339.314156)scale(0.17 -0.17)">
      <defs>
       <path id="DejaVuSans-6c" d="M 603 4863 
L 1178 4863 
L 1178 0 
L 603 0 
L 603 4863 
z
" transform="scale(0.015625)"/>
       <path id="DejaVuSans-6f" d="M 1959 3097 
Q 1497 3097 1228 2736 
Q 959 2375 959 1747 
Q 959 1119 1226 758 
Q 1494 397 1959 397 
Q 2419 397 2687 759 
Q 2956 1122 2956 1747 
Q 2956 2369 2687 2733 
Q 2419 3097 1959 3097 
z
M 1959 3584 
Q 2709 3584 3137 3096 
Q 3566 2609 3566 1747 
Q 3566 888 3137 398 
Q 2709 -91 1959 -91 
Q 1206 -91 779 398 
Q 353 888 353 1747 
Q 353 2609 779 3096 
Q 1206 3584 1959 3584 
z
" transform="scale(0.015625)"/>
       <path id="DejaVuSans-67" d="M 2906 1791 
Q 2906 2416 2648 2759 
Q 2391 3103 1925 3103 
Q 1463 3103 1205 2759 
Q 947 2416 947 1791 
Q 947 1169 1205 825 
Q 1463 481 1925 481 
Q 2391 481 2648 825 
Q 2906 1169 2906 1791 
z
M 3481 434 
Q 3481 -459 3084 -895 
Q 2688 -1331 1869 -1331 
Q 1566 -1331 1297 -1286 
Q 1028 -1241 775 -1147 
L 775 -588 
Q 1028 -725 1275 -790 
Q 1522 -856 1778 -856 
Q 2344 -856 2625 -561 
Q 2906 -266 2906 331 
L 2906 616 
Q 2728 306 2450 153 
Q 2172 0 1784 0 
Q 1141 0 747 490 
Q 353 981 353 1791 
Q 353 2603 747 3093 
Q 1141 3584 1784 3584 
Q 2172 3584 2450 3431 
Q 2728 3278 2906 2969 
L 2906 3500 
L 3481 3500 
L 3481 434 
z
" transform="scale(0.015625)"/>
       <path id="DejaVuSans-31" d="M 794 531 
L 1825 531 
L 1825 4091 
L 703 3866 
L 703 4441 
L 1819 4666 
L 2450 4666 
L 2450 531 
L 3481 531 
L 3481 0 
L 794 0 
L 794 531 
z
" transform="scale(0.015625)"/>
       <path id="DejaVuSans-28" d="M 1984 4856 
Q 1566 4138 1362 3434 
Q 1159 2731 1159 2009 
Q 1159 1288 1364 580 
Q 1569 -128 1984 -844 
L 1484 -844 
Q 1016 -109 783 600 
Q 550 1309 550 2009 
Q 550 2706 781 3412 
Q 1013 4119 1484 4856 
L 1984 4856 
z
" transform="scale(0.015625)"/>
       <path id="DejaVuSans-23" d="M 3272 2816 
L 2363 2816 
L 2100 1772 
L 3016 1772 
L 3272 2816 
z
M 2803 4594 
L 2478 3297 
L 3391 3297 
L 3719 4594 
L 4219 4594 
L 3897 3297 
L 4872 3297 
L 4872 2816 
L 3775 2816 
L 3519 1772 
L 4513 1772 
L 4513 1294 
L 3397 1294 
L 3072 0 
L 2572 0 
L 2894 1294 
L 1978 1294 
L 1656 0 
L 1153 0 
L 1478 1294 
L 494 1294 
L 494 1772 
L 1594 1772 
L 1856 2816 
L 850 2816 
L 850 3297 
L 1978 3297 
L 2297 4594 
L 2803 4594 
z
" transform="scale(0.015625)"/>
       <path id="DejaVuSans-20" transform="scale(0.015625)"/>
       <path id="DejaVuSans-66" d="M 2375 4863 
L 2375 4384 
L 1825 4384 
Q 1516 4384 1395 4259 
Q 1275 4134 1275 3809 
L 1275 3500 
L 2222 3500 
L 2222 3053 
L 1275 3053 
L 1275 0 
L 697 0 
L 697 3053 
L 147 3053 
L 147 3500 
L 697 3500 
L 697 3744 
Q 697 4328 969 4595 
Q 1241 4863 1831 4863 
L 2375 4863 
z
" transform="scale(0.015625)"/>
       <path id="DejaVuSans-2d" d="M 313 2009 
L 1997 2009 
L 1997 1497 
L 313 1497 
L 313 2009 
z
" transform="scale(0.015625)"/>
       <path id="DejaVuSans-65" d="M 3597 1894 
L 3597 1613 
L 953 1613 
Q 991 1019 1311 708 
Q 1631 397 2203 397 
Q 2534 397 2845 478 
Q 3156 559 3463 722 
L 3463 178 
Q 3153 47 2828 -22 
Q 2503 -91 2169 -91 
Q 1331 -91 842 396 
Q 353 884 353 1716 
Q 353 2575 817 3079 
Q 1281 3584 2069 3584 
Q 2775 3584 3186 3129 
Q 3597 2675 3597 1894 
z
M 3022 2063 
Q 3016 2534 2758 2815 
Q 2500 3097 2075 3097 
Q 1594 3097 1305 2825 
Q 1016 2553 972 2059 
L 3022 2063 
z
" transform="scale(0.015625)"/>
       <path id="DejaVuSans-76" d="M 191 3500 
L 800 3500 
L 1894 563 
L 2988 3500 
L 3597 3500 
L 2284 0 
L 1503 0 
L 191 3500 
z
" transform="scale(0.015625)"/>
       <path id="DejaVuSans-61" d="M 2194 1759 
Q 1497 1759 1228 1600 
Q 959 1441 959 1056 
Q 959 750 1161 570 
Q 1363 391 1709 391 
Q 2188 391 2477 730 
Q 2766 1069 2766 1631 
L 2766 1759 
L 2194 1759 
z
M 3341 1997 
L 3341 0 
L 2766 0 
L 2766 531 
Q 2569 213 2275 61 
Q 1981 -91 1556 -91 
Q 1019 -91 701 211 
Q 384 513 384 1019 
Q 384 1609 779 1909 
Q 1175 2209 1959 2209 
L 2766 2209 
L 2766 2266 
Q 2766 2663 2505 2880 
Q 2244 3097 1772 3097 
Q 1472 3097 1187 3025 
Q 903 2953 641 2809 
L 641 3341 
Q 956 3463 1253 3523 
Q 1550 3584 1831 3584 
Q 2591 3584 2966 3190 
Q 3341 2797 3341 1997 
z
" transform="scale(0.015625)"/>
       <path id="DejaVuSans-73" d="M 2834 3397 
L 2834 2853 
Q 2591 2978 2328 3040 
Q 2066 3103 1784 3103 
Q 1356 3103 1142 2972 
Q 928 2841 928 2578 
Q 928 2378 1081 2264 
Q 1234 2150 1697 2047 
L 1894 2003 
Q 2506 1872 2764 1633 
Q 3022 1394 3022 966 
Q 3022 478 2636 193 
Q 2250 -91 1575 -91 
Q 1294 -91 989 -36 
Q 684 19 347 128 
L 347 722 
Q 666 556 975 473 
Q 1284 391 1588 391 
Q 1994 391 2212 530 
Q 2431 669 2431 922 
Q 2431 1156 2273 1281 
Q 2116 1406 1581 1522 
L 1381 1569 
Q 847 1681 609 1914 
Q 372 2147 372 2553 
Q 372 3047 722 3315 
Q 1072 3584 1716 3584 
Q 2034 3584 2315 3537 
Q 2597 3491 2834 3397 
z
" transform="scale(0.015625)"/>
       <path id="DejaVuSans-2f" d="M 1625 4666 
L 2156 4666 
L 531 -594 
L 0 -594 
L 1625 4666 
z
" transform="scale(0.015625)"/>
       <path id="DejaVuSans-64" d="M 2906 2969 
L 2906 4863 
L 3481 4863 
L 3481 0 
L 2906 0 
L 2906 525 
Q 2725 213 2448 61 
Q 2172 -91 1784 -91 
Q 1150 -91 751 415 
Q 353 922 353 1747 
Q 353 2572 751 3078 
Q 1150 3584 1784 3584 
Q 2172 3584 2448 3432 
Q 2725 3281 2906 2969 
z
M 947 1747 
Q 947 1113 1208 752 
Q 1469 391 1925 391 
Q 2381 391 2643 752 
Q 2906 1113 2906 1747 
Q 2906 2381 2643 2742 
Q 2381 3103 1925 3103 
Q 1469 3103 1208 2742 
Q 947 2381 947 1747 
z
" transform="scale(0.015625)"/>
       <path id="DejaVuSans-69" d="M 603 3500 
L 1178 3500 
L 1178 0 
L 603 0 
L 603 3500 
z
M 603 4863 
L 1178 4863 
L 1178 4134 
L 603 4134 
L 603 4863 
z
" transform="scale(0.015625)"/>
       <path id="DejaVuSans-6d" d="M 3328 2828 
Q 3544 3216 3844 3400 
Q 4144 3584 4550 3584 
Q 5097 3584 5394 3201 
Q 5691 2819 5691 2113 
L 5691 0 
L 5113 0 
L 5113 2094 
Q 5113 2597 4934 2840 
Q 4756 3084 4391 3084 
Q 3944 3084 3684 2787 
Q 3425 2491 3425 1978 
L 3425 0 
L 2847 0 
L 2847 2094 
Q 2847 2600 2669 2842 
Q 2491 3084 2119 3084 
Q 1678 3084 1418 2786 
Q 1159 2488 1159 1978 
L 1159 0 
L 581 0 
L 581 3500 
L 1159 3500 
L 1159 2956 
Q 1356 3278 1631 3431 
Q 1906 3584 2284 3584 
Q 2666 3584 2933 3390 
Q 3200 3197 3328 2828 
z
" transform="scale(0.015625)"/>
       <path id="DejaVuSans-6e" d="M 3513 2113 
L 3513 0 
L 2938 0 
L 2938 2094 
Q 2938 2591 2744 2837 
Q 2550 3084 2163 3084 
Q 1697 3084 1428 2787 
Q 1159 2491 1159 1978 
L 1159 0 
L 581 0 
L 581 3500 
L 1159 3500 
L 1159 2956 
Q 1366 3272 1645 3428 
Q 1925 3584 2291 3584 
Q 2894 3584 3203 3211 
Q 3513 2838 3513 2113 
z
" transform="scale(0.015625)"/>
       <path id="DejaVuSans-29" d="M 513 4856 
L 1013 4856 
Q 1481 4119 1714 3412 
Q 1947 2706 1947 2009 
Q 1947 1309 1714 600 
Q 1481 -109 1013 -844 
L 513 -844 
Q 928 -128 1133 580 
Q 1338 1288 1338 2009 
Q 1338 2731 1133 3434 
Q 928 4138 513 4856 
z
" transform="scale(0.015625)"/>
      </defs>
      <use xlink:href="#DejaVuSans-6c"/>
      <use xlink:href="#DejaVuSans-6f" x="27.783203"/>
      <use xlink:href="#DejaVuSans-67" x="88.964844"/>
      <use xlink:href="#DejaVuSans-31" x="152.441406"/>
      <use xlink:href="#DejaVuSans-30" x="216.064453"/>
      <use xlink:href="#DejaVuSans-28" x="279.6875"/>
      <use xlink:href="#DejaVuSans-23" x="318.701172"/>
      <use xlink:href="#DejaVuSans-20" x="402.490234"/>
      <use xlink:href="#DejaVuSans-66" x="434.277344"/>
      <use xlink:href="#DejaVuSans-2d" x="463.982422"/>
      <use xlink:href="#DejaVuSans-65" x="500.066406"/>
      <use xlink:href="#DejaVuSans-76" x="561.589844"/>
      <use xlink:href="#DejaVuSans-61" x="620.769531"/>
      <use xlink:href="#DejaVuSans-6c" x="682.048828"/>
      <use xlink:href="#DejaVuSans-73" x="709.832031"/>
      <use xlink:href="#DejaVuSans-20" x="761.931641"/>
      <use xlink:href="#DejaVuSans-2f" x="793.71875"/>
      <use xlink:href="#DejaVuSans-20" x="827.410156"/>
      <use xlink:href="#DejaVuSans-64" x="859.197266"/>
      <use xlink:href="#DejaVuSans-69" x="922.673828"/>
      <use xlink:href="#DejaVuSans-6d" x="950.457031"/>
      <use xlink:href="#DejaVuSans-65" x="1047.869141"/>
      <use xlink:href="#DejaVuSans-6e" x="1109.392578"/>
      <use xlink:href="#DejaVuSans-73" x="1172.771484"/>
      <use xlink:href="#DejaVuSans-69" x="1224.871094"/>
      <use xlink:href="#DejaVuSans-6f" x="1252.654297"/>
      <use xlink:href="#DejaVuSans-6e" x="1313.835938"/>
      <use xlink:href="#DejaVuSans-29" x="1377.214844"/>
     </g>
    </g>
   </g>
   <g id="matplotlib.axis_2">
    <g id="ytick_1">
     <g id="line2d_21">
      <path d="M 57.6 298.944 
L 360.8064 298.944 
" clip-path="url(#p1a65d3f6d4)" style="fill: none; stroke: #b0b0b0; stroke-width: 0.8; stroke-linecap: square"/>
     </g>
     <g id="line2d_22">
      <defs>
       <path id="m17bf8e79d5" d="M 0 0 
L -3.5 0 
" style="stroke: #000000; stroke-width: 0.8"/>
      </defs>
      <g>
       <use xlink:href="#m17bf8e79d5" x="57.6" y="298.944" style="stroke: #000000; stroke-width: 0.8"/>
      </g>
     </g>
     <g id="text_6">
      <!-- 0.0 -->
      <g transform="translate(25.155 305.02275)scale(0.16 -0.16)">
       <defs>
        <path id="DejaVuSans-2e" d="M 684 794 
L 1344 794 
L 1344 0 
L 684 0 
L 684 794 
z
" transform="scale(0.015625)"/>
       </defs>
       <use xlink:href="#DejaVuSans-30"/>
       <use xlink:href="#DejaVuSans-2e" x="63.623047"/>
       <use xlink:href="#DejaVuSans-30" x="95.410156"/>
      </g>
     </g>
    </g>
    <g id="ytick_2">
     <g id="line2d_23">
      <path d="M 57.6 244.6848 
L 360.8064 244.6848 
" clip-path="url(#p1a65d3f6d4)" style="fill: none; stroke: #b0b0b0; stroke-width: 0.8; stroke-linecap: square"/>
     </g>
     <g id="line2d_24">
      <g>
       <use xlink:href="#m17bf8e79d5" x="57.6" y="244.6848" style="stroke: #000000; stroke-width: 0.8"/>
      </g>
     </g>
     <g id="text_7">
      <!-- 0.2 -->
      <g transform="translate(25.155 250.76355)scale(0.16 -0.16)">
       <use xlink:href="#DejaVuSans-30"/>
       <use xlink:href="#DejaVuSans-2e" x="63.623047"/>
       <use xlink:href="#DejaVuSans-32" x="95.410156"/>
      </g>
     </g>
    </g>
    <g id="ytick_3">
     <g id="line2d_25">
      <path d="M 57.6 190.4256 
L 360.8064 190.4256 
" clip-path="url(#p1a65d3f6d4)" style="fill: none; stroke: #b0b0b0; stroke-width: 0.8; stroke-linecap: square"/>
     </g>
     <g id="line2d_26">
      <g>
       <use xlink:href="#m17bf8e79d5" x="57.6" y="190.4256" style="stroke: #000000; stroke-width: 0.8"/>
      </g>
     </g>
     <g id="text_8">
      <!-- 0.4 -->
      <g transform="translate(25.155 196.50435)scale(0.16 -0.16)">
       <use xlink:href="#DejaVuSans-30"/>
       <use xlink:href="#DejaVuSans-2e" x="63.623047"/>
       <use xlink:href="#DejaVuSans-34" x="95.410156"/>
      </g>
     </g>
    </g>
    <g id="ytick_4">
     <g id="line2d_27">
      <path d="M 57.6 136.1664 
L 360.8064 136.1664 
" clip-path="url(#p1a65d3f6d4)" style="fill: none; stroke: #b0b0b0; stroke-width: 0.8; stroke-linecap: square"/>
     </g>
     <g id="line2d_28">
      <g>
       <use xlink:href="#m17bf8e79d5" x="57.6" y="136.1664" style="stroke: #000000; stroke-width: 0.8"/>
      </g>
     </g>
     <g id="text_9">
      <!-- 0.6 -->
      <g transform="translate(25.155 142.24515)scale(0.16 -0.16)">
       <use xlink:href="#DejaVuSans-30"/>
       <use xlink:href="#DejaVuSans-2e" x="63.623047"/>
       <use xlink:href="#DejaVuSans-36" x="95.410156"/>
      </g>
     </g>
    </g>
    <g id="ytick_5">
     <g id="line2d_29">
      <path d="M 57.6 81.9072 
L 360.8064 81.9072 
" clip-path="url(#p1a65d3f6d4)" style="fill: none; stroke: #b0b0b0; stroke-width: 0.8; stroke-linecap: square"/>
     </g>
     <g id="line2d_30">
      <g>
       <use xlink:href="#m17bf8e79d5" x="57.6" y="81.9072" style="stroke: #000000; stroke-width: 0.8"/>
      </g>
     </g>
     <g id="text_10">
      <!-- 0.8 -->
      <g transform="translate(25.155 87.98595)scale(0.16 -0.16)">
       <defs>
        <path id="DejaVuSans-38" d="M 2034 2216 
Q 1584 2216 1326 1975 
Q 1069 1734 1069 1313 
Q 1069 891 1326 650 
Q 1584 409 2034 409 
Q 2484 409 2743 651 
Q 3003 894 3003 1313 
Q 3003 1734 2745 1975 
Q 2488 2216 2034 2216 
z
M 1403 2484 
Q 997 2584 770 2862 
Q 544 3141 544 3541 
Q 544 4100 942 4425 
Q 1341 4750 2034 4750 
Q 2731 4750 3128 4425 
Q 3525 4100 3525 3541 
Q 3525 3141 3298 2862 
Q 3072 2584 2669 2484 
Q 3125 2378 3379 2068 
Q 3634 1759 3634 1313 
Q 3634 634 3220 271 
Q 2806 -91 2034 -91 
Q 1263 -91 848 271 
Q 434 634 434 1313 
Q 434 1759 690 2068 
Q 947 2378 1403 2484 
z
M 1172 3481 
Q 1172 3119 1398 2916 
Q 1625 2713 2034 2713 
Q 2441 2713 2670 2916 
Q 2900 3119 2900 3481 
Q 2900 3844 2670 4047 
Q 2441 4250 2034 4250 
Q 1625 4250 1398 4047 
Q 1172 3844 1172 3481 
z
" transform="scale(0.015625)"/>
       </defs>
       <use xlink:href="#DejaVuSans-30"/>
       <use xlink:href="#DejaVuSans-2e" x="63.623047"/>
       <use xlink:href="#DejaVuSans-38" x="95.410156"/>
      </g>
     </g>
    </g>
    <g id="ytick_6">
     <g id="line2d_31">
      <path d="M 57.6 27.648 
L 360.8064 27.648 
" clip-path="url(#p1a65d3f6d4)" style="fill: none; stroke: #b0b0b0; stroke-width: 0.8; stroke-linecap: square"/>
     </g>
     <g id="line2d_32">
      <g>
       <use xlink:href="#m17bf8e79d5" x="57.6" y="27.648" style="stroke: #000000; stroke-width: 0.8"/>
      </g>
     </g>
     <g id="text_11">
      <!-- 1.0 -->
      <g transform="translate(25.155 33.72675)scale(0.16 -0.16)">
       <use xlink:href="#DejaVuSans-31"/>
       <use xlink:href="#DejaVuSans-2e" x="63.623047"/>
       <use xlink:href="#DejaVuSans-30" x="95.410156"/>
      </g>
     </g>
    </g>
    <g id="text_12">
     <!-- Fraction of function,target pairs -->
     <g transform="translate(17.619531 297.681)rotate(-90)scale(0.17 -0.17)">
      <defs>
       <path id="DejaVuSans-46" d="M 628 4666 
L 3309 4666 
L 3309 4134 
L 1259 4134 
L 1259 2759 
L 3109 2759 
L 3109 2228 
L 1259 2228 
L 1259 0 
L 628 0 
L 628 4666 
z
" transform="scale(0.015625)"/>
       <path id="DejaVuSans-72" d="M 2631 2963 
Q 2534 3019 2420 3045 
Q 2306 3072 2169 3072 
Q 1681 3072 1420 2755 
Q 1159 2438 1159 1844 
L 1159 0 
L 581 0 
L 581 3500 
L 1159 3500 
L 1159 2956 
Q 1341 3275 1631 3429 
Q 1922 3584 2338 3584 
Q 2397 3584 2469 3576 
Q 2541 3569 2628 3553 
L 2631 2963 
z
" transform="scale(0.015625)"/>
       <path id="DejaVuSans-63" d="M 3122 3366 
L 3122 2828 
Q 2878 2963 2633 3030 
Q 2388 3097 2138 3097 
Q 1578 3097 1268 2742 
Q 959 2388 959 1747 
Q 959 1106 1268 751 
Q 1578 397 2138 397 
Q 2388 397 2633 464 
Q 2878 531 3122 666 
L 3122 134 
Q 2881 22 2623 -34 
Q 2366 -91 2075 -91 
Q 1284 -91 818 406 
Q 353 903 353 1747 
Q 353 2603 823 3093 
Q 1294 3584 2113 3584 
Q 2378 3584 2631 3529 
Q 2884 3475 3122 3366 
z
" transform="scale(0.015625)"/>
       <path id="DejaVuSans-74" d="M 1172 4494 
L 1172 3500 
L 2356 3500 
L 2356 3053 
L 1172 3053 
L 1172 1153 
Q 1172 725 1289 603 
Q 1406 481 1766 481 
L 2356 481 
L 2356 0 
L 1766 0 
Q 1100 0 847 248 
Q 594 497 594 1153 
L 594 3053 
L 172 3053 
L 172 3500 
L 594 3500 
L 594 4494 
L 1172 4494 
z
" transform="scale(0.015625)"/>
       <path id="DejaVuSans-75" d="M 544 1381 
L 544 3500 
L 1119 3500 
L 1119 1403 
Q 1119 906 1312 657 
Q 1506 409 1894 409 
Q 2359 409 2629 706 
Q 2900 1003 2900 1516 
L 2900 3500 
L 3475 3500 
L 3475 0 
L 2900 0 
L 2900 538 
Q 2691 219 2414 64 
Q 2138 -91 1772 -91 
Q 1169 -91 856 284 
Q 544 659 544 1381 
z
M 1991 3584 
L 1991 3584 
z
" transform="scale(0.015625)"/>
       <path id="DejaVuSans-2c" d="M 750 794 
L 1409 794 
L 1409 256 
L 897 -744 
L 494 -744 
L 750 256 
L 750 794 
z
" transform="scale(0.015625)"/>
       <path id="DejaVuSans-70" d="M 1159 525 
L 1159 -1331 
L 581 -1331 
L 581 3500 
L 1159 3500 
L 1159 2969 
Q 1341 3281 1617 3432 
Q 1894 3584 2278 3584 
Q 2916 3584 3314 3078 
Q 3713 2572 3713 1747 
Q 3713 922 3314 415 
Q 2916 -91 2278 -91 
Q 1894 -91 1617 61 
Q 1341 213 1159 525 
z
M 3116 1747 
Q 3116 2381 2855 2742 
Q 2594 3103 2138 3103 
Q 1681 3103 1420 2742 
Q 1159 2381 1159 1747 
Q 1159 1113 1420 752 
Q 1681 391 2138 391 
Q 2594 391 2855 752 
Q 3116 1113 3116 1747 
z
" transform="scale(0.015625)"/>
      </defs>
      <use xlink:href="#DejaVuSans-46"/>
      <use xlink:href="#DejaVuSans-72" x="50.269531"/>
      <use xlink:href="#DejaVuSans-61" x="91.382812"/>
      <use xlink:href="#DejaVuSans-63" x="152.662109"/>
      <use xlink:href="#DejaVuSans-74" x="207.642578"/>
      <use xlink:href="#DejaVuSans-69" x="246.851562"/>
      <use xlink:href="#DejaVuSans-6f" x="274.634766"/>
      <use xlink:href="#DejaVuSans-6e" x="335.816406"/>
      <use xlink:href="#DejaVuSans-20" x="399.195312"/>
      <use xlink:href="#DejaVuSans-6f" x="430.982422"/>
      <use xlink:href="#DejaVuSans-66" x="492.164062"/>
      <use xlink:href="#DejaVuSans-20" x="527.369141"/>
      <use xlink:href="#DejaVuSans-66" x="559.15625"/>
      <use xlink:href="#DejaVuSans-75" x="594.361328"/>
      <use xlink:href="#DejaVuSans-6e" x="657.740234"/>
      <use xlink:href="#DejaVuSans-63" x="721.119141"/>
      <use xlink:href="#DejaVuSans-74" x="776.099609"/>
      <use xlink:href="#DejaVuSans-69" x="815.308594"/>
      <use xlink:href="#DejaVuSans-6f" x="843.091797"/>
      <use xlink:href="#DejaVuSans-6e" x="904.273438"/>
      <use xlink:href="#DejaVuSans-2c" x="967.652344"/>
      <use xlink:href="#DejaVuSans-74" x="999.439453"/>
      <use xlink:href="#DejaVuSans-61" x="1038.648438"/>
      <use xlink:href="#DejaVuSans-72" x="1099.927734"/>
      <use xlink:href="#DejaVuSans-67" x="1139.291016"/>
      <use xlink:href="#DejaVuSans-65" x="1202.767578"/>
      <use xlink:href="#DejaVuSans-74" x="1264.291016"/>
      <use xlink:href="#DejaVuSans-20" x="1303.5"/>
      <use xlink:href="#DejaVuSans-70" x="1335.287109"/>
      <use xlink:href="#DejaVuSans-61" x="1398.763672"/>
      <use xlink:href="#DejaVuSans-69" x="1460.042969"/>
      <use xlink:href="#DejaVuSans-72" x="1487.826172"/>
      <use xlink:href="#DejaVuSans-73" x="1528.939453"/>
     </g>
    </g>
   </g>
   <g id="line2d_33">
    <defs>
     <path id="m4c8c533356" d="M 0 1.5 
C 0.397805 1.5 0.77937 1.341951 1.06066 1.06066 
C 1.341951 0.77937 1.5 0.397805 1.5 0 
C 1.5 -0.397805 1.341951 -0.77937 1.06066 -1.06066 
C 0.77937 -1.341951 0.397805 -1.5 0 -1.5 
C -0.397805 -1.5 -0.77937 -1.341951 -1.06066 -1.06066 
C -1.341951 -0.77937 -1.5 -0.397805 -1.5 0 
C -1.5 0.397805 -1.341951 0.77937 -1.06066 1.06066 
C -0.77937 1.341951 -0.397805 1.5 0 1.5 
z
" style="stroke: #f5deb3"/>
    </defs>
    <g>
     <use xlink:href="#m4c8c533356" x="319.914054" y="27.648" style="fill: #f5deb3; stroke: #f5deb3"/>
     <use xlink:href="#m4c8c533356" x="319.914054" y="27.648" style="fill: #f5deb3; stroke: #f5deb3"/>
    </g>
   </g>
   <g id="line2d_34">
    <defs>
     <path id="m93b70e6fc9" d="M 0 1.5 
C 0.397805 1.5 0.77937 1.341951 1.06066 1.06066 
C 1.341951 0.77937 1.5 0.397805 1.5 0 
C 1.5 -0.397805 1.341951 -0.77937 1.06066 -1.06066 
C 0.77937 -1.341951 0.397805 -1.5 0 -1.5 
C -0.397805 -1.5 -0.77937 -1.341951 -1.06066 -1.06066 
C -1.341951 -0.77937 -1.5 -0.397805 -1.5 0 
C -1.5 0.397805 -1.341951 0.77937 -1.06066 1.06066 
C -0.77937 1.341951 -0.397805 1.5 0 1.5 
z
" style="stroke: #000080"/>
    </defs>
    <g>
     <use xlink:href="#m93b70e6fc9" x="353.379912" y="27.648" style="fill: #000080; stroke: #000080"/>
     <use xlink:href="#m93b70e6fc9" x="353.379912" y="27.648" style="fill: #000080; stroke: #000080"/>
    </g>
   </g>
   <g id="line2d_35">
    <path d="M -1 224.470588 
L 229.973159 224.470588 
L 229.973159 224.115953 
L 230.233921 224.115953 
L 230.233921 223.761318 
L 234.336701 223.761318 
L 234.336701 223.406682 
L 234.826841 223.406682 
L 234.826841 223.052047 
L 235.348893 223.052047 
L 235.348893 222.697412 
L 239.066544 222.697412 
L 239.066544 222.342776 
L 240.111982 222.342776 
L 240.111982 221.988141 
L 242.403503 221.988141 
L 242.403503 221.633506 
L 243.069608 221.633506 
L 243.069608 221.278871 
L 243.640212 221.278871 
L 243.640212 220.924235 
L 244.069267 220.924235 
L 244.069267 220.5696 
L 245.226065 220.5696 
L 245.226065 220.214965 
L 246.74595 220.214965 
L 246.74595 219.860329 
L 247.034271 219.860329 
L 247.034271 219.505694 
L 247.378299 219.505694 
L 247.378299 219.151059 
L 247.97988 219.151059 
L 247.97988 218.796424 
L 248.722372 218.796424 
L 248.722372 218.441788 
L 250.226986 218.441788 
L 250.226986 218.087153 
L 251.239001 218.087153 
L 251.239001 217.732518 
L 251.385437 217.732518 
L 251.385437 217.377882 
L 251.642272 217.377882 
L 251.651649 216.668612 
L 251.806307 216.668612 
L 251.806307 216.313976 
L 255.153646 216.313976 
L 255.202037 215.604706 
L 255.327239 215.604706 
L 255.327239 215.250071 
L 255.68537 215.250071 
L 255.68537 214.895435 
L 255.894794 214.895435 
L 255.894794 214.5408 
L 257.363351 214.5408 
L 257.363351 214.186165 
L 257.867927 214.186165 
L 257.867927 213.831529 
L 258.110296 213.831529 
L 258.219757 213.122259 
L 258.265141 213.122259 
L 258.265141 212.767624 
L 258.498171 212.767624 
L 258.529508 212.058353 
L 260.926954 212.058353 
L 260.926954 211.703718 
L 263.15248 211.703718 
L 263.15248 211.349082 
L 263.712989 211.349082 
L 263.712989 210.994447 
L 265.141715 210.994447 
L 265.141715 210.639812 
L 266.03821 210.639812 
L 266.03821 210.285176 
L 266.326046 210.285176 
L 266.326046 209.930541 
L 267.495479 209.930541 
L 267.574127 209.221271 
L 267.72884 209.221271 
L 267.72884 208.866635 
L 268.02772 208.866635 
L 268.02772 208.512 
L 268.243861 208.512 
L 268.243861 208.157365 
L 268.53263 208.157365 
L 268.53263 207.802729 
L 268.789814 207.802729 
L 268.789814 207.448094 
L 269.127511 207.448094 
L 269.127511 207.093459 
L 269.265265 207.093459 
L 269.265265 206.738824 
L 269.689273 206.738824 
L 269.689273 206.384188 
L 269.956301 206.384188 
L 269.970556 205.674918 
L 270.088933 205.674918 
L 270.088933 205.320282 
L 270.301067 205.320282 
L 270.301067 204.965647 
L 270.695715 204.965647 
L 270.695715 204.611012 
L 270.846068 204.611012 
L 270.846068 204.256376 
L 271.284654 204.256376 
L 271.393987 203.192471 
L 271.550388 203.192471 
L 271.550388 202.837835 
L 271.741117 202.837835 
L 271.741117 202.4832 
L 272.086777 202.4832 
L 272.086777 202.128565 
L 272.433121 202.128565 
L 272.519985 201.419294 
L 273.31863 201.419294 
L 273.31863 201.064659 
L 273.491776 201.064659 
L 273.491776 200.710024 
L 274.387253 200.710024 
L 274.387253 200.355388 
L 275.664288 200.355388 
L 275.773058 199.291482 
L 275.914184 199.291482 
L 275.953608 198.582212 
L 276.047937 198.582212 
L 276.047937 198.227576 
L 276.339585 198.227576 
L 276.339585 197.872941 
L 276.989563 197.872941 
L 276.989563 197.518306 
L 277.647874 197.518306 
L 277.647874 197.163671 
L 278.838245 197.163671 
L 278.838245 196.809035 
L 279.168075 196.809035 
L 279.168075 196.4544 
L 279.301615 196.4544 
L 279.400024 195.390494 
L 280.286898 195.390494 
L 280.286898 195.035859 
L 280.561309 195.035859 
L 280.651546 194.326588 
L 281.055542 194.326588 
L 281.055542 193.971953 
L 282.515124 193.971953 
L 282.515124 193.617318 
L 282.824073 193.617318 
L 282.824073 193.262682 
L 283.693754 193.262682 
L 283.721536 192.553412 
L 283.837382 192.553412 
L 283.881172 191.844141 
L 284.080547 191.844141 
L 284.080547 191.489506 
L 284.617092 191.489506 
L 284.617092 191.134871 
L 284.798274 191.134871 
L 284.798274 190.780235 
L 285.403616 190.780235 
L 285.403616 190.4256 
L 285.562377 190.4256 
L 285.562377 190.070965 
L 285.845268 190.070965 
L 285.943083 189.361694 
L 286.89718 189.361694 
L 286.89718 189.007059 
L 288.704056 189.007059 
L 288.704056 188.652424 
L 289.905291 188.652424 
L 290.00044 186.879247 
L 290.021037 186.879247 
L 290.104453 185.106071 
L 290.139217 185.106071 
L 290.248218 183.332894 
L 290.276152 183.332894 
L 290.37384 181.559718 
L 290.400376 181.559718 
L 290.493331 179.786541 
L 290.512529 179.786541 
L 290.6138 177.658729 
L 290.717813 177.658729 
L 290.817578 175.530918 
L 290.842395 175.530918 
L 290.941098 173.757741 
L 290.972255 173.757741 
L 291.077485 171.629929 
L 291.085474 171.629929 
L 291.183477 169.856753 
L 291.217317 169.856753 
L 291.313225 167.374306 
L 291.341713 167.374306 
L 291.428413 165.601129 
L 291.578172 165.601129 
L 291.578172 165.246494 
L 292.126646 165.246494 
L 292.126646 164.891859 
L 292.432761 164.891859 
L 292.541216 162.409412 
L 292.572447 162.409412 
L 292.65084 160.636235 
L 292.689129 160.636235 
L 292.770244 158.863059 
L 292.800326 158.863059 
L 292.904316 156.735247 
L 292.921063 156.735247 
L 293.011407 154.607435 
L 293.038055 154.607435 
L 293.143399 152.479624 
L 293.183415 152.479624 
L 293.262014 149.997176 
L 293.296642 149.997176 
L 293.398739 147.869365 
L 293.408658 147.869365 
L 293.502773 145.741553 
L 293.522684 145.741553 
L 293.604621 143.613741 
L 293.647333 143.613741 
L 293.647333 143.259106 
L 293.817396 143.259106 
L 293.910896 142.549835 
L 294.057545 142.549835 
L 294.162964 140.422024 
L 294.17489 140.422024 
L 294.273741 137.584941 
L 294.305603 137.584941 
L 294.413179 135.102494 
L 294.431774 135.102494 
L 294.535535 132.620047 
L 294.55875 132.620047 
L 294.656585 129.428329 
L 294.681216 129.428329 
L 294.681216 129.073694 
L 294.826421 129.073694 
L 294.869251 128.364424 
L 295.032059 128.364424 
L 295.032059 128.009788 
L 295.461778 128.009788 
L 295.461778 127.655153 
L 295.747162 127.655153 
L 295.747162 127.300518 
L 295.867968 127.300518 
L 295.867968 126.945882 
L 296.027849 126.945882 
L 296.027849 126.591247 
L 296.223515 126.591247 
L 296.223515 126.236612 
L 296.449795 126.236612 
L 296.449795 125.881976 
L 296.642215 125.881976 
L 296.642215 125.527341 
L 296.931541 125.527341 
L 297.031071 124.818071 
L 297.181017 124.818071 
L 297.181017 124.463435 
L 297.451551 124.463435 
L 297.549977 123.044894 
L 297.67689 123.044894 
L 297.784929 120.917082 
L 297.804573 120.917082 
L 297.91446 118.434635 
L 297.923837 118.434635 
L 298.030793 115.597553 
L 298.053368 115.597553 
L 298.16271 112.760471 
L 300.974994 112.760471 
L 300.974994 112.405835 
L 303.681898 112.405835 
L 303.681898 112.0512 
L 310.324014 112.0512 
L 310.324014 111.696565 
L 311.641715 111.696565 
L 311.740516 109.568753 
L 311.763965 109.568753 
L 311.850635 107.440941 
L 311.907561 107.440941 
L 312.003329 105.313129 
L 312.032822 105.313129 
L 312.047349 103.894588 
L 312.440012 103.894588 
L 312.542908 99.9936 
L 312.555036 99.9936 
L 312.647815 96.092612 
L 312.667841 96.092612 
L 312.775929 92.191624 
L 312.797523 92.191624 
L 312.818707 91.127718 
L 313.05937 91.127718 
L 313.156958 86.517459 
L 313.208437 86.517459 
L 313.235005 84.389647 
L 313.989353 84.389647 
L 313.989353 84.035012 
L 314.147652 84.035012 
L 314.147652 83.680376 
L 314.354982 83.680376 
L 314.454771 82.616471 
L 314.469965 82.616471 
L 314.579693 76.942306 
L 314.583829 76.942306 
L 314.608187 75.8784 
L 321.443128 75.8784 
L 321.529689 74.459859 
L 321.566813 74.459859 
L 321.675528 70.913506 
L 321.680606 70.913506 
L 321.695198 68.785694 
L 321.927946 68.785694 
L 322.026508 66.303247 
L 322.060875 66.303247 
L 322.161877 63.111529 
L 322.296276 63.111529 
L 322.375994 59.919812 
L 323.147686 59.919812 
L 323.242149 56.728094 
L 327.838896 56.728094 
L 327.906006 54.245647 
L 327.959268 54.245647 
L 328.015934 52.472471 
L 328.20096 52.472471 
L 328.297855 49.635388 
L 328.336559 49.635388 
L 328.343496 48.571482 
L 328.448515 48.571482 
L 328.511864 45.379765 
L 329.088264 45.379765 
L 329.135435 43.251953 
L 332.606114 43.251953 
L 332.68983 41.833412 
L 332.717987 41.833412 
L 332.746205 40.769506 
L 332.895338 40.769506 
L 332.988035 38.641694 
L 333.100248 38.641694 
L 333.103347 37.932424 
L 333.58801 37.932424 
L 333.613157 37.223153 
L 336.402783 37.223153 
L 336.507845 36.159247 
L 336.627603 36.159247 
L 336.726432 35.095341 
L 336.800028 35.095341 
L 336.830916 34.386071 
L 337.209204 34.386071 
L 337.209204 34.031435 
L 339.597128 34.031435 
L 339.597128 33.6768 
L 339.905193 33.6768 
L 339.918701 32.967529 
L 340.26725 32.967529 
L 340.26725 32.612894 
L 342.493056 32.612894 
L 342.566136 31.548988 
L 342.875984 31.548988 
L 342.881032 30.839718 
L 344.694788 30.839718 
L 344.694788 30.485082 
L 344.823233 30.485082 
L 344.916816 29.421176 
L 345.165207 29.421176 
L 345.172322 28.711906 
L 346.757703 28.711906 
L 346.757703 28.357271 
L 350.390565 28.357271 
L 350.390565 28.002635 
L 353.379912 28.002635 
L 353.379912 27.648 
L 360.8064 27.648 
L 360.8064 27.648 
" style="fill: none; stroke: #000080; stroke-width: 1.5; stroke-linecap: square"/>
   </g>
   <g id="line2d_36">
    <defs>
     <path id="m6d1a5ae599" d="M 0 6 
C 1.591219 6 3.117479 5.367802 4.242641 4.242641 
C 5.367802 3.117479 6 1.591219 6 0 
C 6 -1.591219 5.367802 -3.117479 4.242641 -4.242641 
C 3.117479 -5.367802 1.591219 -6 0 -6 
C -1.591219 -6 -3.117479 -5.367802 -4.242641 -4.242641 
C -5.367802 -3.117479 -6 -1.591219 -6 0 
C -6 1.591219 -5.367802 3.117479 -4.242641 4.242641 
C -3.117479 5.367802 -1.591219 6 0 6 
z
" style="stroke: #000080; stroke-width: 1.5"/>
    </defs>
    <g>
     <use xlink:href="#m6d1a5ae599" x="265.141715" y="210.994447" style="fill-opacity: 0; stroke: #000080; stroke-width: 1.5"/>
     <use xlink:href="#m6d1a5ae599" x="300.974994" y="112.760471" style="fill-opacity: 0; stroke: #000080; stroke-width: 1.5"/>
     <use xlink:href="#m6d1a5ae599" x="353.379912" y="27.648" style="fill-opacity: 0; stroke: #000080; stroke-width: 1.5"/>
     <use xlink:href="#m6d1a5ae599" x="360.8064" y="27.648" style="fill-opacity: 0; stroke: #000080; stroke-width: 1.5"/>
    </g>
   </g>
   <g id="line2d_37">
    <path style="fill: none; stroke: #000080; stroke-width: 1.5; stroke-linecap: square"/>
    <g/>
   </g>
   <g id="line2d_38">
    <path d="M 304.453591 112.0512 
" clip-path="url(#p1a65d3f6d4)" style="fill: none; stroke: #000080; stroke-width: 1.5; stroke-linecap: square"/>
    <defs>
     <path id="m1ce1829f80" d="M -12 12 
L 12 -12 
M -12 -12 
L 12 12 
" style="stroke: #000080"/>
    </defs>
    <g clip-path="url(#p1a65d3f6d4)">
     <use xlink:href="#m1ce1829f80" x="304.453591" y="112.0512" style="fill: #000080; stroke: #000080"/>
    </g>
   </g>
   <g id="line2d_39">
    <defs>
     <path id="m2f55325f6c" d="M 0 1.5 
C 0.397805 1.5 0.77937 1.341951 1.06066 1.06066 
C 1.341951 0.77937 1.5 0.397805 1.5 0 
C 1.5 -0.397805 1.341951 -0.77937 1.06066 -1.06066 
C 0.77937 -1.341951 0.397805 -1.5 0 -1.5 
C -0.397805 -1.5 -0.77937 -1.341951 -1.06066 -1.06066 
C -1.341951 -0.77937 -1.5 -0.397805 -1.5 0 
C -1.5 0.397805 -1.341951 0.77937 -1.06066 1.06066 
C -0.77937 1.341951 -0.397805 1.5 0 1.5 
z
" style="stroke: #ff00ff"/>
    </defs>
    <g>
     <use xlink:href="#m2f55325f6c" x="372.805429" y="171.275294" style="fill: #ff00ff; stroke: #ff00ff"/>
     <use xlink:href="#m2f55325f6c" x="372.805429" y="171.275294" style="fill: #ff00ff; stroke: #ff00ff"/>
    </g>
   </g>
   <g id="line2d_40">
    <path d="M -1 224.470588 
L 230.055705 224.470588 
L 230.055705 224.115953 
L 230.647685 224.115953 
L 230.647685 223.761318 
L 238.403165 223.761318 
L 238.403165 223.406682 
L 240.181624 223.406682 
L 240.181624 223.052047 
L 240.54278 223.052047 
L 240.54278 222.697412 
L 241.997291 222.697412 
L 241.997291 222.342776 
L 242.624655 222.342776 
L 242.624655 221.988141 
L 242.992035 221.988141 
L 242.992035 221.633506 
L 243.126635 221.633506 
L 243.126635 221.278871 
L 243.824341 221.278871 
L 243.824341 220.924235 
L 244.753455 220.924235 
L 244.753455 220.5696 
L 244.944456 220.5696 
L 244.944456 220.214965 
L 245.15185 220.214965 
L 245.15185 219.860329 
L 247.263986 219.860329 
L 247.348156 219.151059 
L 247.39553 219.151059 
L 247.461863 218.441788 
L 248.596043 218.441788 
L 248.596043 218.087153 
L 248.904748 218.087153 
L 248.904748 217.732518 
L 249.780161 217.732518 
L 249.780161 217.377882 
L 249.974092 217.377882 
L 249.974092 217.023247 
L 251.91215 217.023247 
L 251.960653 216.313976 
L 252.232498 216.313976 
L 252.232498 215.959341 
L 252.98362 215.959341 
L 252.98362 215.604706 
L 253.110979 215.604706 
L 253.110979 215.250071 
L 253.391456 215.250071 
L 253.391456 214.895435 
L 254.255464 214.895435 
L 254.255464 214.5408 
L 254.801552 214.5408 
L 254.801552 214.186165 
L 255.897441 214.186165 
L 255.897441 213.831529 
L 256.23917 213.831529 
L 256.23917 213.476894 
L 257.51044 213.476894 
L 257.51044 213.122259 
L 259.319203 213.122259 
L 259.319203 212.767624 
L 261.47766 212.767624 
L 261.47766 212.412988 
L 262.063573 212.412988 
L 262.063573 212.058353 
L 262.364573 212.058353 
L 262.364573 211.703718 
L 262.476235 211.703718 
L 262.476235 211.349082 
L 263.142092 211.349082 
L 263.142092 210.994447 
L 263.879212 210.994447 
L 263.879212 210.639812 
L 265.195029 210.639812 
L 265.244526 209.930541 
L 265.415031 209.930541 
L 265.415031 209.575906 
L 266.648094 209.575906 
L 266.648094 209.221271 
L 268.062581 209.221271 
L 268.080361 208.512 
L 268.869573 208.512 
L 268.869573 208.157365 
L 272.655876 208.157365 
L 272.764085 207.093459 
L 272.872516 207.093459 
L 272.872516 206.384188 
L 273.281559 206.384188 
L 273.281559 206.029553 
L 273.408452 206.029553 
L 273.408452 205.674918 
L 273.938593 205.674918 
L 273.938593 205.320282 
L 274.123801 205.320282 
L 274.123801 204.965647 
L 274.625093 204.965647 
L 274.625093 204.611012 
L 275.402694 204.611012 
L 275.411253 203.901741 
L 275.635684 203.901741 
L 275.651405 203.192471 
L 278.679584 203.192471 
L 278.679584 202.837835 
L 280.044685 202.837835 
L 280.044685 202.4832 
L 280.228544 202.4832 
L 280.31595 201.773929 
L 280.472323 201.773929 
L 280.547515 201.064659 
L 280.716694 201.064659 
L 280.716694 200.710024 
L 281.66042 200.710024 
L 281.66042 200.355388 
L 281.780643 200.355388 
L 281.780643 200.000753 
L 282.233841 200.000753 
L 282.233841 199.646118 
L 283.117936 199.646118 
L 283.22112 198.582212 
L 283.363622 198.582212 
L 283.363622 198.227576 
L 284.02624 198.227576 
L 284.02624 197.872941 
L 284.325265 197.872941 
L 284.325265 197.518306 
L 284.607576 197.518306 
L 284.607576 197.163671 
L 284.765143 197.163671 
L 284.765143 196.809035 
L 285.31895 196.809035 
L 285.31895 196.4544 
L 285.886195 196.4544 
L 285.886195 196.099765 
L 286.50987 196.099765 
L 286.50987 195.745129 
L 287.801355 195.745129 
L 287.801355 195.390494 
L 288.158533 195.390494 
L 288.158533 195.035859 
L 289.831939 195.035859 
L 289.831939 194.681224 
L 292.676526 194.681224 
L 292.676526 194.326588 
L 294.162379 194.326588 
L 294.162379 193.971953 
L 294.291671 193.971953 
L 294.291671 193.617318 
L 295.786864 193.617318 
L 295.786864 193.262682 
L 298.066886 193.262682 
L 298.066886 192.908047 
L 298.20328 192.908047 
L 298.253601 192.198776 
L 300.103298 192.198776 
L 300.103298 191.844141 
L 300.879618 191.844141 
L 300.879618 191.489506 
L 303.838216 191.489506 
L 303.838216 191.134871 
L 309.146552 191.134871 
L 309.146552 190.780235 
L 309.421318 190.780235 
L 309.421318 190.4256 
L 309.53994 190.4256 
L 309.53994 190.070965 
L 309.703524 190.070965 
L 309.764841 189.361694 
L 309.824506 189.361694 
L 309.862705 188.652424 
L 310.339718 188.652424 
L 310.339718 188.297788 
L 310.952904 188.297788 
L 310.952904 187.943153 
L 311.37664 187.943153 
L 311.37664 187.588518 
L 311.857814 187.588518 
L 311.857814 187.233882 
L 314.696521 187.233882 
L 314.696521 186.879247 
L 315.939851 186.879247 
L 315.939851 186.524612 
L 316.278312 186.524612 
L 316.278312 186.169976 
L 319.733673 186.169976 
L 319.781045 185.460706 
L 320.003004 185.460706 
L 320.003004 185.106071 
L 320.142433 185.106071 
L 320.142433 184.751435 
L 320.654987 184.751435 
L 320.654987 184.3968 
L 321.256627 184.3968 
L 321.256627 184.042165 
L 321.525374 184.042165 
L 321.525374 183.687529 
L 321.706671 183.687529 
L 321.706671 183.332894 
L 324.258241 183.332894 
L 324.258241 182.978259 
L 326.70559 182.978259 
L 326.70559 182.623624 
L 327.238241 182.623624 
L 327.332383 181.914353 
L 327.746686 181.914353 
L 327.746686 181.559718 
L 332.112542 181.559718 
L 332.112542 181.205082 
L 332.560491 181.205082 
L 332.560491 180.850447 
L 334.976879 180.850447 
L 334.976879 180.495812 
L 339.57155 180.495812 
L 339.57155 180.141176 
L 339.822416 180.141176 
L 339.822416 179.786541 
L 340.011794 179.786541 
L 340.011794 179.431906 
L 340.978168 179.431906 
L 340.978168 179.077271 
L 342.016727 179.077271 
L 342.016727 178.722635 
L 342.786147 178.722635 
L 342.786147 178.368 
L 345.099743 178.368 
L 345.140192 177.658729 
L 347.221861 177.658729 
L 347.221861 177.304094 
L 347.839035 177.304094 
L 347.839035 176.949459 
L 352.53597 176.949459 
L 352.53597 176.594824 
L 352.668922 176.594824 
L 352.668922 176.240188 
L 352.790567 176.240188 
L 352.790567 175.885553 
L 355.224038 175.885553 
L 355.224038 175.530918 
L 356.735125 175.530918 
L 356.735125 175.176282 
L 357.765125 175.176282 
L 357.765125 174.821647 
L 358.979492 174.821647 
L 358.979492 174.467012 
L 359.731593 174.467012 
L 359.731593 174.112376 
L 360.672299 174.112376 
L 360.672299 173.757741 
L 360.8064 173.757741 
L 360.8064 173.757741 
" style="fill: none; stroke: #ff00ff; stroke-width: 1.5; stroke-linecap: square"/>
   </g>
   <g id="line2d_41">
    <defs>
     <path id="me8b4b5bf93" d="M -0 8.485281 
L 5.091169 0 
L 0 -8.485281 
L -5.091169 -0 
z
" style="stroke: #ff00ff; stroke-width: 1.5; stroke-linejoin: miter"/>
    </defs>
    <g>
     <use xlink:href="#me8b4b5bf93" x="241.997291" y="222.697412" style="fill-opacity: 0; stroke: #ff00ff; stroke-width: 1.5; stroke-linejoin: miter"/>
     <use xlink:href="#me8b4b5bf93" x="321.525374" y="183.687529" style="fill-opacity: 0; stroke: #ff00ff; stroke-width: 1.5; stroke-linejoin: miter"/>
     <use xlink:href="#me8b4b5bf93" x="360.672299" y="173.757741" style="fill-opacity: 0; stroke: #ff00ff; stroke-width: 1.5; stroke-linejoin: miter"/>
     <use xlink:href="#me8b4b5bf93" x="360.8064" y="173.757741" style="fill-opacity: 0; stroke: #ff00ff; stroke-width: 1.5; stroke-linejoin: miter"/>
    </g>
   </g>
   <g id="line2d_42">
    <path style="fill: none; stroke: #ff00ff; stroke-width: 1.5; stroke-linecap: square"/>
    <g/>
   </g>
   <g id="line2d_43">
    <path d="M 305.720747 191.134871 
" clip-path="url(#p1a65d3f6d4)" style="fill: none; stroke: #ff00ff; stroke-width: 1.5; stroke-linecap: square"/>
    <defs>
     <path id="m06ddaca5e6" d="M -12 12 
L 12 -12 
M -12 -12 
L 12 12 
" style="stroke: #ff00ff"/>
    </defs>
    <g clip-path="url(#p1a65d3f6d4)">
     <use xlink:href="#m06ddaca5e6" x="305.720747" y="191.134871" style="fill: #ff00ff; stroke: #ff00ff"/>
    </g>
   </g>
   <g id="line2d_44">
    <defs>
     <path id="m7f0c090fb9" d="M 0 1.5 
C 0.397805 1.5 0.77937 1.341951 1.06066 1.06066 
C 1.341951 0.77937 1.5 0.397805 1.5 0 
C 1.5 -0.397805 1.341951 -0.77937 1.06066 -1.06066 
C 0.77937 -1.341951 0.397805 -1.5 0 -1.5 
C -0.397805 -1.5 -0.77937 -1.341951 -1.06066 -1.06066 
C -1.341951 -0.77937 -1.5 -0.397805 -1.5 0 
C -1.5 0.397805 -1.341951 0.77937 -1.06066 1.06066 
C -0.77937 1.341951 -0.397805 1.5 0 1.5 
z
" style="stroke: #ff7500"/>
    </defs>
    <g>
     <use xlink:href="#m7f0c090fb9" x="339.992609" y="27.648" style="fill: #ff7500; stroke: #ff7500"/>
     <use xlink:href="#m7f0c090fb9" x="339.992609" y="27.648" style="fill: #ff7500; stroke: #ff7500"/>
    </g>
   </g>
   <g id="line2d_45">
    <path d="M -1 224.470588 
L 225.476812 224.470588 
L 225.476812 224.115953 
L 231.940506 224.115953 
L 231.940506 223.761318 
L 232.430263 223.761318 
L 232.430263 223.406682 
L 237.93327 223.406682 
L 237.93327 223.052047 
L 238.683634 223.052047 
L 238.718725 222.342776 
L 239.349857 222.342776 
L 239.349857 221.988141 
L 240.352168 221.988141 
L 240.352168 221.633506 
L 242.050966 221.633506 
L 242.050966 221.278871 
L 242.637861 221.278871 
L 242.637861 220.924235 
L 248.623447 220.924235 
L 248.623447 220.5696 
L 249.061493 220.5696 
L 249.061493 220.214965 
L 249.390113 220.214965 
L 249.390113 219.860329 
L 249.897474 219.860329 
L 249.897474 219.505694 
L 250.442961 219.505694 
L 250.442961 219.151059 
L 252.851068 219.151059 
L 252.851068 218.796424 
L 258.233108 218.796424 
L 258.233108 218.441788 
L 258.677363 218.441788 
L 258.677363 218.087153 
L 258.93698 218.087153 
L 258.93698 217.732518 
L 259.154193 217.732518 
L 259.259144 216.668612 
L 259.420725 216.668612 
L 259.420725 216.313976 
L 260.08071 216.313976 
L 260.08071 215.959341 
L 260.263605 215.959341 
L 260.263605 215.604706 
L 262.340714 215.604706 
L 262.442648 214.5408 
L 262.654863 214.5408 
L 262.654863 214.186165 
L 262.956212 214.186165 
L 262.956212 213.831529 
L 263.648558 213.831529 
L 263.656869 213.122259 
L 263.77191 213.122259 
L 263.774845 212.412988 
L 264.518696 212.412988 
L 264.518696 212.058353 
L 265.250997 212.058353 
L 265.250997 211.703718 
L 265.837546 211.703718 
L 265.837546 211.349082 
L 266.803497 211.349082 
L 266.824892 210.639812 
L 267.720404 210.639812 
L 267.818644 209.930541 
L 267.952207 209.930541 
L 267.952207 209.575906 
L 268.13742 209.575906 
L 268.13742 209.221271 
L 268.353093 209.221271 
L 268.353093 208.866635 
L 268.842959 208.866635 
L 268.842959 208.512 
L 268.959591 208.512 
L 268.975062 207.802729 
L 269.268507 207.802729 
L 269.268507 207.448094 
L 270.536334 207.448094 
L 270.536334 207.093459 
L 270.971974 207.093459 
L 270.971974 206.738824 
L 271.416035 206.738824 
L 271.416035 206.384188 
L 271.618025 206.384188 
L 271.679347 204.965647 
L 272.997143 204.965647 
L 272.997143 204.611012 
L 273.633264 204.611012 
L 273.742849 203.901741 
L 275.186367 203.901741 
L 275.186367 203.547106 
L 275.599578 203.547106 
L 275.599578 203.192471 
L 276.274014 203.192471 
L 276.274014 202.837835 
L 276.638943 202.837835 
L 276.638943 202.4832 
L 277.129661 202.4832 
L 277.129661 202.128565 
L 277.696775 202.128565 
L 277.718548 201.419294 
L 278.211581 201.419294 
L 278.302744 200.710024 
L 278.561215 200.710024 
L 278.607631 200.000753 
L 278.879926 200.000753 
L 278.932532 199.291482 
L 279.800638 199.291482 
L 279.800638 198.936847 
L 280.250591 198.936847 
L 280.250591 198.582212 
L 280.620501 198.582212 
L 280.620501 197.872941 
L 280.925155 197.872941 
L 280.925155 197.518306 
L 281.271973 197.518306 
L 281.271973 197.163671 
L 281.43516 197.163671 
L 281.544221 195.390494 
L 281.590095 195.390494 
L 281.698828 193.617318 
L 281.70864 193.617318 
L 281.771581 192.198776 
L 281.828043 192.198776 
L 281.939111 190.070965 
L 281.969206 190.070965 
L 282.056378 187.943153 
L 282.087138 187.943153 
L 282.194156 185.815341 
L 282.21317 185.815341 
L 282.217246 185.106071 
L 282.372596 185.106071 
L 282.372596 184.751435 
L 283.223539 184.751435 
L 283.223539 184.3968 
L 283.806271 184.3968 
L 283.855062 183.687529 
L 284.106016 183.687529 
L 284.106016 183.332894 
L 284.368731 183.332894 
L 284.368731 182.978259 
L 284.592401 182.978259 
L 284.592401 182.623624 
L 285.287857 182.623624 
L 285.287857 182.268988 
L 286.177652 182.268988 
L 286.266239 180.850447 
L 286.30398 180.850447 
L 286.404124 179.431906 
L 286.453605 179.431906 
L 286.553384 177.658729 
L 286.604009 177.658729 
L 286.699898 176.240188 
L 286.716342 176.240188 
L 286.824157 174.821647 
L 286.842977 174.821647 
L 286.933613 173.403106 
L 286.958418 173.403106 
L 287.062353 171.629929 
L 287.097579 171.629929 
L 287.115553 170.920659 
L 287.722598 170.920659 
L 287.722598 170.566024 
L 287.959035 170.566024 
L 287.959035 170.211388 
L 289.013527 170.211388 
L 289.12164 169.147482 
L 289.133796 169.147482 
L 289.217818 167.019671 
L 289.257172 167.019671 
L 289.351375 165.246494 
L 289.369661 165.246494 
L 289.458435 163.827953 
L 289.489509 163.827953 
L 289.573624 162.054776 
L 289.618882 162.054776 
L 289.728156 159.926965 
L 289.738827 159.926965 
L 289.819693 158.508424 
L 289.856956 158.508424 
L 289.952495 157.799153 
L 289.995672 157.799153 
L 290.102596 155.316706 
L 290.139478 155.316706 
L 290.249641 153.188894 
L 290.257974 153.188894 
L 290.366992 150.706447 
L 290.386272 150.706447 
L 290.488465 147.514729 
L 290.503809 147.514729 
L 290.609227 142.904471 
L 290.61632 142.904471 
L 290.71441 139.358118 
L 290.728891 139.358118 
L 290.828721 136.521035 
L 290.842036 136.521035 
L 290.952466 134.038588 
L 290.981094 134.038588 
L 291.08643 131.910776 
L 291.108071 131.910776 
L 291.108071 131.556141 
L 291.530514 131.556141 
L 291.530514 131.201506 
L 291.681496 131.201506 
L 291.681496 130.846871 
L 292.154461 130.846871 
L 292.154461 130.492235 
L 292.376418 130.492235 
L 292.376418 130.1376 
L 294.692564 130.1376 
L 294.692564 129.782965 
L 296.037648 129.782965 
L 296.037648 129.428329 
L 296.327087 129.428329 
L 296.327087 129.073694 
L 296.900811 129.073694 
L 296.900811 128.719059 
L 297.957625 128.719059 
L 297.957625 128.364424 
L 298.176648 128.364424 
L 298.279491 126.945882 
L 298.325013 126.945882 
L 298.413837 125.881976 
L 298.50145 125.881976 
L 298.50145 125.527341 
L 298.960825 125.527341 
L 299.057059 124.818071 
L 299.132553 124.818071 
L 299.132553 124.463435 
L 299.328721 124.463435 
L 299.328721 124.1088 
L 299.501881 124.1088 
L 299.501881 123.754165 
L 300.292218 123.754165 
L 300.367284 122.690259 
L 300.423531 122.690259 
L 300.423531 122.335624 
L 300.998631 122.335624 
L 301.056409 121.271718 
L 301.132482 121.271718 
L 301.146521 120.207812 
L 301.361368 120.207812 
L 301.429156 119.143906 
L 301.584246 119.143906 
L 301.654002 118.434635 
L 301.786822 118.434635 
L 301.861408 116.661459 
L 301.901052 116.661459 
L 302.004964 114.888282 
L 302.02065 114.888282 
L 302.045718 114.179012 
L 302.19732 114.179012 
L 302.286753 113.115106 
L 302.417221 113.115106 
L 302.493679 111.696565 
L 302.53014 111.696565 
L 302.568401 110.632659 
L 302.732636 110.632659 
L 302.732636 110.278024 
L 302.888267 110.278024 
L 302.989816 108.150212 
L 303.105705 108.150212 
L 303.142477 107.086306 
L 303.235482 107.086306 
L 303.235482 106.731671 
L 303.364955 106.731671 
L 303.364955 106.377035 
L 303.838614 106.377035 
L 303.8973 105.667765 
L 303.975138 105.667765 
L 304.081257 102.830682 
L 304.091287 102.830682 
L 304.202146 101.412141 
L 304.444577 101.412141 
L 304.545626 99.9936 
L 304.572069 99.9936 
L 304.648289 98.575059 
L 304.76954 98.575059 
L 304.878716 97.865788 
L 305.552838 97.865788 
L 305.646641 97.156518 
L 305.687539 97.156518 
L 305.725475 96.092612 
L 306.061856 96.092612 
L 306.061856 95.737976 
L 306.679505 95.737976 
L 306.731122 95.028706 
L 306.938212 95.028706 
L 306.938212 94.674071 
L 307.056206 94.674071 
L 307.122971 93.610165 
L 307.168244 93.610165 
L 307.242261 92.900894 
L 307.285358 92.900894 
L 307.357304 91.127718 
L 307.427529 91.127718 
L 307.441827 90.418447 
L 307.676929 90.418447 
L 307.676929 90.063812 
L 308.077697 90.063812 
L 308.179467 89.354541 
L 308.216646 89.354541 
L 308.229012 88.645271 
L 308.72107 88.645271 
L 308.800225 87.581365 
L 308.902532 87.581365 
L 308.948972 86.872094 
L 309.234576 86.872094 
L 309.267769 86.162824 
L 309.475079 86.162824 
L 309.54301 85.453553 
L 309.5968 85.453553 
L 309.619827 84.744282 
L 309.850871 84.744282 
L 309.850871 84.389647 
L 309.965774 84.389647 
L 310.014591 83.680376 
L 310.172093 83.680376 
L 310.234941 82.971106 
L 310.292197 82.971106 
L 310.350859 81.552565 
L 310.490593 81.552565 
L 310.521766 80.843294 
L 310.666832 80.843294 
L 310.771014 80.134024 
L 310.865535 80.134024 
L 310.912497 79.424753 
L 311.001534 79.424753 
L 311.007167 78.715482 
L 311.203081 78.715482 
L 311.313523 77.296941 
L 311.325027 77.296941 
L 311.377227 76.233035 
L 311.554767 76.233035 
L 311.606566 75.169129 
L 311.761289 75.169129 
L 311.859623 73.750588 
L 312.110043 73.750588 
L 312.110043 73.395953 
L 312.287015 73.395953 
L 312.34605 72.686682 
L 312.703772 72.686682 
L 312.814071 71.622776 
L 312.849596 71.622776 
L 312.936335 70.913506 
L 313.047839 70.913506 
L 313.134629 68.785694 
L 313.223123 68.785694 
L 313.298397 67.721788 
L 313.694943 67.721788 
L 313.797078 67.012518 
L 313.94369 67.012518 
L 313.968467 66.303247 
L 314.281032 66.303247 
L 314.323649 65.239341 
L 314.401276 65.239341 
L 314.435982 64.175435 
L 315.014573 64.175435 
L 315.014573 63.8208 
L 315.150335 63.8208 
L 315.150335 63.466165 
L 315.710717 63.466165 
L 315.769684 62.402259 
L 315.911445 62.402259 
L 315.994126 61.692988 
L 316.410636 61.692988 
L 316.477219 60.629082 
L 316.56596 60.629082 
L 316.665246 59.565176 
L 316.810819 59.565176 
L 316.892008 58.855906 
L 317.038726 58.855906 
L 317.05663 57.792 
L 317.607493 57.792 
L 317.607493 57.437365 
L 317.860612 57.437365 
L 317.939727 56.373459 
L 318.052029 56.373459 
L 318.08613 55.664188 
L 318.172285 55.664188 
L 318.172285 55.309553 
L 318.412367 55.309553 
L 318.461301 54.600282 
L 318.527603 54.600282 
L 318.527603 54.245647 
L 319.124881 54.245647 
L 319.182988 53.536376 
L 319.24127 53.536376 
L 319.24127 53.181741 
L 319.465994 53.181741 
L 319.465994 52.827106 
L 319.619995 52.827106 
L 319.721943 52.117835 
L 319.891532 52.117835 
L 319.891532 51.7632 
L 320.040588 51.7632 
L 320.102233 51.053929 
L 320.478645 51.053929 
L 320.478645 50.699294 
L 320.960123 50.699294 
L 320.984648 49.990024 
L 321.155642 49.990024 
L 321.163405 49.280753 
L 321.298083 49.280753 
L 321.298083 48.926118 
L 321.590398 48.926118 
L 321.590398 48.571482 
L 321.856967 48.571482 
L 321.92799 47.862212 
L 322.058765 47.862212 
L 322.058765 47.507576 
L 322.205837 47.507576 
L 322.205837 47.152941 
L 322.360909 47.152941 
L 322.415323 46.443671 
L 322.512994 46.443671 
L 322.512994 46.089035 
L 322.711781 46.089035 
L 322.82286 45.025129 
L 323.207279 45.025129 
L 323.207279 44.670494 
L 323.451399 44.670494 
L 323.451399 44.315859 
L 323.571241 44.315859 
L 323.571241 43.961224 
L 323.788812 43.961224 
L 323.788812 43.606588 
L 324.238483 43.606588 
L 324.342287 42.897318 
L 324.533498 42.897318 
L 324.64059 42.188047 
L 324.736931 42.188047 
L 324.736931 41.833412 
L 325.088337 41.833412 
L 325.088337 41.478776 
L 325.203944 41.478776 
L 325.242137 40.769506 
L 326.035607 40.769506 
L 326.085767 40.060235 
L 326.392447 40.060235 
L 326.392447 39.7056 
L 326.59234 39.7056 
L 326.59234 39.350965 
L 326.953336 39.350965 
L 327.041358 38.287059 
L 327.713206 38.287059 
L 327.728881 37.577788 
L 328.064629 37.577788 
L 328.064629 37.223153 
L 328.214779 37.223153 
L 328.299824 36.513882 
L 328.419294 36.513882 
L 328.419294 36.159247 
L 328.998688 36.159247 
L 328.998688 35.804612 
L 329.154802 35.804612 
L 329.154802 35.449976 
L 329.539922 35.449976 
L 329.539922 35.095341 
L 329.891541 35.095341 
L 329.891541 34.740706 
L 330.087494 34.740706 
L 330.087494 34.386071 
L 331.009691 34.386071 
L 331.009691 34.031435 
L 331.158698 34.031435 
L 331.249181 33.322165 
L 331.460203 33.322165 
L 331.460203 32.967529 
L 332.190033 32.967529 
L 332.190033 32.612894 
L 332.721049 32.612894 
L 332.721049 32.258259 
L 333.099791 32.258259 
L 333.099791 31.903624 
L 333.764958 31.903624 
L 333.873871 30.839718 
L 334.381696 30.839718 
L 334.462824 29.775812 
L 335.730047 29.775812 
L 335.793108 29.066541 
L 336.044137 29.066541 
L 336.044137 28.711906 
L 338.079973 28.711906 
L 338.079973 28.357271 
L 339.502319 28.357271 
L 339.502319 28.002635 
L 339.992609 28.002635 
L 339.992609 27.648 
L 360.8064 27.648 
L 360.8064 27.648 
" style="fill: none; stroke: #ff7500; stroke-width: 1.5; stroke-linecap: square"/>
   </g>
   <g id="line2d_46">
    <defs>
     <path id="m0431586e69" d="M 0 -6 
L -1.347084 -1.854102 
L -5.706339 -1.854102 
L -2.179628 0.708204 
L -3.526712 4.854102 
L -0 2.291796 
L 3.526712 4.854102 
L 2.179628 0.708204 
L 5.706339 -1.854102 
L 1.347084 -1.854102 
z
" style="stroke: #ff7500; stroke-width: 1.5; stroke-linejoin: bevel"/>
    </defs>
    <g>
     <use xlink:href="#m0431586e69" x="232.430263" y="223.406682" style="fill-opacity: 0; stroke: #ff7500; stroke-width: 1.5; stroke-linejoin: bevel"/>
     <use xlink:href="#m0431586e69" x="305.725475" y="96.092612" style="fill-opacity: 0; stroke: #ff7500; stroke-width: 1.5; stroke-linejoin: bevel"/>
     <use xlink:href="#m0431586e69" x="339.992609" y="27.648" style="fill-opacity: 0; stroke: #ff7500; stroke-width: 1.5; stroke-linejoin: bevel"/>
     <use xlink:href="#m0431586e69" x="360.8064" y="27.648" style="fill-opacity: 0; stroke: #ff7500; stroke-width: 1.5; stroke-linejoin: bevel"/>
    </g>
   </g>
   <g id="line2d_47">
    <path style="fill: none; stroke: #ff7500; stroke-width: 1.5; stroke-linecap: square"/>
    <g/>
   </g>
   <g id="line2d_48">
    <path d="M 291.508181 131.556141 
" clip-path="url(#p1a65d3f6d4)" style="fill: none; stroke: #ff7500; stroke-width: 1.5; stroke-linecap: square"/>
    <defs>
     <path id="mf7d1153e0a" d="M -12 12 
L 12 -12 
M -12 -12 
L 12 12 
" style="stroke: #ff7500"/>
    </defs>
    <g clip-path="url(#p1a65d3f6d4)">
     <use xlink:href="#mf7d1153e0a" x="291.508181" y="131.556141" style="fill: #ff7500; stroke: #ff7500"/>
    </g>
   </g>
   <g id="line2d_49">
    <path d="M 360.8064 173.757741 
L 380.514816 293.51808 
" style="fill: none; stroke: #ff00ff; stroke-width: 1.5; stroke-linecap: square"/>
    <g>
     <use xlink:href="#me8b4b5bf93" x="360.8064" y="173.757741" style="fill-opacity: 0; stroke: #ff00ff; stroke-width: 1.5; stroke-linejoin: miter"/>
     <use xlink:href="#me8b4b5bf93" x="380.514816" y="293.51808" style="fill-opacity: 0; stroke: #ff00ff; stroke-width: 1.5; stroke-linejoin: miter"/>
    </g>
   </g>
   <g id="line2d_50">
    <path d="M 360.8064 27.648 
L 380.514816 206.70336 
" style="fill: none; stroke: #000080; stroke-width: 1.5; stroke-linecap: square"/>
    <g>
     <use xlink:href="#m6d1a5ae599" x="360.8064" y="27.648" style="fill-opacity: 0; stroke: #000080; stroke-width: 1.5"/>
     <use xlink:href="#m6d1a5ae599" x="380.514816" y="206.70336" style="fill-opacity: 0; stroke: #000080; stroke-width: 1.5"/>
    </g>
   </g>
   <g id="line2d_51">
    <path d="M 360.8064 27.648 
L 380.514816 119.88864 
" style="fill: none; stroke: #ff7500; stroke-width: 1.5; stroke-linecap: square"/>
    <g>
     <use xlink:href="#m0431586e69" x="360.8064" y="27.648" style="fill-opacity: 0; stroke: #ff7500; stroke-width: 1.5; stroke-linejoin: bevel"/>
     <use xlink:href="#m0431586e69" x="380.514816" y="119.88864" style="fill-opacity: 0; stroke: #ff7500; stroke-width: 1.5; stroke-linejoin: bevel"/>
    </g>
   </g>
   <g id="line2d_52">
    <path d="M 360.8064 298.944 
L 360.8064 27.648 
" style="fill: none; stroke: #000000; stroke-width: 1.5; stroke-linecap: square"/>
   </g>
   <g id="patch_3">
    <path d="M 57.6 298.944 
L 360.8064 298.944 
" style="fill: none; stroke: #000000; stroke-width: 0.8; stroke-linejoin: miter; stroke-linecap: square"/>
   </g>
   <g id="patch_4">
    <path d="M 57.6 27.648 
L 360.8064 27.648 
" style="fill: none; stroke: #000000; stroke-width: 0.8; stroke-linejoin: miter; stroke-linecap: square"/>
   </g>
   <g id="text_13">
    <!-- ddcma0 -->
    <g transform="translate(386.578944 297.381205)scale(0.14 -0.14)">
     <use xlink:href="#DejaVuSans-64"/>
     <use xlink:href="#DejaVuSans-64" x="63.476562"/>
     <use xlink:href="#DejaVuSans-63" x="126.953125"/>
     <use xlink:href="#DejaVuSans-6d" x="181.933594"/>
     <use xlink:href="#DejaVuSans-61" x="279.345703"/>
     <use xlink:href="#DejaVuSans-30" x="340.625"/>
    </g>
   </g>
   <g id="text_14">
    <!-- cma0 -->
    <g transform="translate(386.578944 210.566485)scale(0.14 -0.14)">
     <use xlink:href="#DejaVuSans-63"/>
     <use xlink:href="#DejaVuSans-6d" x="54.980469"/>
     <use xlink:href="#DejaVuSans-61" x="152.392578"/>
     <use xlink:href="#DejaVuSans-30" x="213.671875"/>
    </g>
   </g>
   <g id="text_15">
    <!-- CMA-ES-20 -->
    <g transform="translate(386.578944 123.751765)scale(0.14 -0.14)">
     <defs>
      <path id="DejaVuSans-43" d="M 4122 4306 
L 4122 3641 
Q 3803 3938 3442 4084 
Q 3081 4231 2675 4231 
Q 1875 4231 1450 3742 
Q 1025 3253 1025 2328 
Q 1025 1406 1450 917 
Q 1875 428 2675 428 
Q 3081 428 3442 575 
Q 3803 722 4122 1019 
L 4122 359 
Q 3791 134 3420 21 
Q 3050 -91 2638 -91 
Q 1578 -91 968 557 
Q 359 1206 359 2328 
Q 359 3453 968 4101 
Q 1578 4750 2638 4750 
Q 3056 4750 3426 4639 
Q 3797 4528 4122 4306 
z
" transform="scale(0.015625)"/>
      <path id="DejaVuSans-4d" d="M 628 4666 
L 1569 4666 
L 2759 1491 
L 3956 4666 
L 4897 4666 
L 4897 0 
L 4281 0 
L 4281 4097 
L 3078 897 
L 2444 897 
L 1241 4097 
L 1241 0 
L 628 0 
L 628 4666 
z
" transform="scale(0.015625)"/>
      <path id="DejaVuSans-41" d="M 2188 4044 
L 1331 1722 
L 3047 1722 
L 2188 4044 
z
M 1831 4666 
L 2547 4666 
L 4325 0 
L 3669 0 
L 3244 1197 
L 1141 1197 
L 716 0 
L 50 0 
L 1831 4666 
z
" transform="scale(0.015625)"/>
      <path id="DejaVuSans-45" d="M 628 4666 
L 3578 4666 
L 3578 4134 
L 1259 4134 
L 1259 2753 
L 3481 2753 
L 3481 2222 
L 1259 2222 
L 1259 531 
L 3634 531 
L 3634 0 
L 628 0 
L 628 4666 
z
" transform="scale(0.015625)"/>
      <path id="DejaVuSans-53" d="M 3425 4513 
L 3425 3897 
Q 3066 4069 2747 4153 
Q 2428 4238 2131 4238 
Q 1616 4238 1336 4038 
Q 1056 3838 1056 3469 
Q 1056 3159 1242 3001 
Q 1428 2844 1947 2747 
L 2328 2669 
Q 3034 2534 3370 2195 
Q 3706 1856 3706 1288 
Q 3706 609 3251 259 
Q 2797 -91 1919 -91 
Q 1588 -91 1214 -16 
Q 841 59 441 206 
L 441 856 
Q 825 641 1194 531 
Q 1563 422 1919 422 
Q 2459 422 2753 634 
Q 3047 847 3047 1241 
Q 3047 1584 2836 1778 
Q 2625 1972 2144 2069 
L 1759 2144 
Q 1053 2284 737 2584 
Q 422 2884 422 3419 
Q 422 4038 858 4394 
Q 1294 4750 2059 4750 
Q 2388 4750 2728 4690 
Q 3069 4631 3425 4513 
z
" transform="scale(0.015625)"/>
     </defs>
     <use xlink:href="#DejaVuSans-43"/>
     <use xlink:href="#DejaVuSans-4d" x="69.824219"/>
     <use xlink:href="#DejaVuSans-41" x="156.103516"/>
     <use xlink:href="#DejaVuSans-2d" x="222.261719"/>
     <use xlink:href="#DejaVuSans-45" x="258.345703"/>
     <use xlink:href="#DejaVuSans-53" x="321.529297"/>
     <use xlink:href="#DejaVuSans-2d" x="385.005859"/>
     <use xlink:href="#DejaVuSans-32" x="421.089844"/>
     <use xlink:href="#DejaVuSans-30" x="484.712891"/>
    </g>
   </g>
   <g id="text_16">
    <!-- best 2009 -->
    <g transform="translate(386.578944 36.937045)scale(0.14 -0.14)">
     <defs>
      <path id="DejaVuSans-62" d="M 3116 1747 
Q 3116 2381 2855 2742 
Q 2594 3103 2138 3103 
Q 1681 3103 1420 2742 
Q 1159 2381 1159 1747 
Q 1159 1113 1420 752 
Q 1681 391 2138 391 
Q 2594 391 2855 752 
Q 3116 1113 3116 1747 
z
M 1159 2969 
Q 1341 3281 1617 3432 
Q 1894 3584 2278 3584 
Q 2916 3584 3314 3078 
Q 3713 2572 3713 1747 
Q 3713 922 3314 415 
Q 2916 -91 2278 -91 
Q 1894 -91 1617 61 
Q 1341 213 1159 525 
L 1159 0 
L 581 0 
L 581 4863 
L 1159 4863 
L 1159 2969 
z
" transform="scale(0.015625)"/>
      <path id="DejaVuSans-39" d="M 703 97 
L 703 672 
Q 941 559 1184 500 
Q 1428 441 1663 441 
Q 2288 441 2617 861 
Q 2947 1281 2994 2138 
Q 2813 1869 2534 1725 
Q 2256 1581 1919 1581 
Q 1219 1581 811 2004 
Q 403 2428 403 3163 
Q 403 3881 828 4315 
Q 1253 4750 1959 4750 
Q 2769 4750 3195 4129 
Q 3622 3509 3622 2328 
Q 3622 1225 3098 567 
Q 2575 -91 1691 -91 
Q 1453 -91 1209 -44 
Q 966 3 703 97 
z
M 1959 2075 
Q 2384 2075 2632 2365 
Q 2881 2656 2881 3163 
Q 2881 3666 2632 3958 
Q 2384 4250 1959 4250 
Q 1534 4250 1286 3958 
Q 1038 3666 1038 3163 
Q 1038 2656 1286 2365 
Q 1534 2075 1959 2075 
z
" transform="scale(0.015625)"/>
     </defs>
     <use xlink:href="#DejaVuSans-62"/>
     <use xlink:href="#DejaVuSans-65" x="63.476562"/>
     <use xlink:href="#DejaVuSans-73" x="125"/>
     <use xlink:href="#DejaVuSans-74" x="177.099609"/>
     <use xlink:href="#DejaVuSans-20" x="216.308594"/>
     <use xlink:href="#DejaVuSans-32" x="248.095703"/>
     <use xlink:href="#DejaVuSans-30" x="311.71875"/>
     <use xlink:href="#DejaVuSans-30" x="375.341797"/>
     <use xlink:href="#DejaVuSans-39" x="438.964844"/>
    </g>
   </g>
   <g id="text_17">
    <!-- bbob f19, 40-D -->
    <g transform="translate(60.632064 38.111366)scale(0.102 -0.102)">
     <defs>
      <path id="DejaVuSans-44" d="M 1259 4147 
L 1259 519 
L 2022 519 
Q 2988 519 3436 956 
Q 3884 1394 3884 2338 
Q 3884 3275 3436 3711 
Q 2988 4147 2022 4147 
L 1259 4147 
z
M 628 4666 
L 1925 4666 
Q 3281 4666 3915 4102 
Q 4550 3538 4550 2338 
Q 4550 1131 3912 565 
Q 3275 0 1925 0 
L 628 0 
L 628 4666 
z
" transform="scale(0.015625)"/>
     </defs>
     <use xlink:href="#DejaVuSans-62"/>
     <use xlink:href="#DejaVuSans-62" x="63.476562"/>
     <use xlink:href="#DejaVuSans-6f" x="126.953125"/>
     <use xlink:href="#DejaVuSans-62" x="188.134766"/>
     <use xlink:href="#DejaVuSans-20" x="251.611328"/>
     <use xlink:href="#DejaVuSans-66" x="283.398438"/>
     <use xlink:href="#DejaVuSans-31" x="318.603516"/>
     <use xlink:href="#DejaVuSans-39" x="382.226562"/>
     <use xlink:href="#DejaVuSans-2c" x="445.849609"/>
     <use xlink:href="#DejaVuSans-20" x="477.636719"/>
     <use xlink:href="#DejaVuSans-34" x="509.423828"/>
     <use xlink:href="#DejaVuSans-30" x="573.046875"/>
     <use xlink:href="#DejaVuSans-2d" x="636.669922"/>
     <use xlink:href="#DejaVuSans-44" x="672.753906"/>
    </g>
    <!-- 51 targets: 100..1e-08 -->
    <g transform="translate(60.632064 49.533135)scale(0.102 -0.102)">
     <defs>
      <path id="DejaVuSans-35" d="M 691 4666 
L 3169 4666 
L 3169 4134 
L 1269 4134 
L 1269 2991 
Q 1406 3038 1543 3061 
Q 1681 3084 1819 3084 
Q 2600 3084 3056 2656 
Q 3513 2228 3513 1497 
Q 3513 744 3044 326 
Q 2575 -91 1722 -91 
Q 1428 -91 1123 -41 
Q 819 9 494 109 
L 494 744 
Q 775 591 1075 516 
Q 1375 441 1709 441 
Q 2250 441 2565 725 
Q 2881 1009 2881 1497 
Q 2881 1984 2565 2268 
Q 2250 2553 1709 2553 
Q 1456 2553 1204 2497 
Q 953 2441 691 2322 
L 691 4666 
z
" transform="scale(0.015625)"/>
      <path id="DejaVuSans-3a" d="M 750 794 
L 1409 794 
L 1409 0 
L 750 0 
L 750 794 
z
M 750 3309 
L 1409 3309 
L 1409 2516 
L 750 2516 
L 750 3309 
z
" transform="scale(0.015625)"/>
     </defs>
     <use xlink:href="#DejaVuSans-35"/>
     <use xlink:href="#DejaVuSans-31" x="63.623047"/>
     <use xlink:href="#DejaVuSans-20" x="127.246094"/>
     <use xlink:href="#DejaVuSans-74" x="159.033203"/>
     <use xlink:href="#DejaVuSans-61" x="198.242188"/>
     <use xlink:href="#DejaVuSans-72" x="259.521484"/>
     <use xlink:href="#DejaVuSans-67" x="298.884766"/>
     <use xlink:href="#DejaVuSans-65" x="362.361328"/>
     <use xlink:href="#DejaVuSans-74" x="423.884766"/>
     <use xlink:href="#DejaVuSans-73" x="463.09375"/>
     <use xlink:href="#DejaVuSans-3a" x="515.193359"/>
     <use xlink:href="#DejaVuSans-20" x="548.884766"/>
     <use xlink:href="#DejaVuSans-31" x="580.671875"/>
     <use xlink:href="#DejaVuSans-30" x="644.294922"/>
     <use xlink:href="#DejaVuSans-30" x="707.917969"/>
     <use xlink:href="#DejaVuSans-2e" x="771.541016"/>
     <use xlink:href="#DejaVuSans-2e" x="803.328125"/>
     <use xlink:href="#DejaVuSans-31" x="835.115234"/>
     <use xlink:href="#DejaVuSans-65" x="898.738281"/>
     <use xlink:href="#DejaVuSans-2d" x="960.261719"/>
     <use xlink:href="#DejaVuSans-30" x="996.345703"/>
     <use xlink:href="#DejaVuSans-38" x="1059.96875"/>
    </g>
    <!-- 15 instances -->
    <g transform="translate(60.632064 60.954904)scale(0.102 -0.102)">
     <use xlink:href="#DejaVuSans-31"/>
     <use xlink:href="#DejaVuSans-35" x="63.623047"/>
     <use xlink:href="#DejaVuSans-20" x="127.246094"/>
     <use xlink:href="#DejaVuSans-69" x="159.033203"/>
     <use xlink:href="#DejaVuSans-6e" x="186.816406"/>
     <use xlink:href="#DejaVuSans-73" x="250.195312"/>
     <use xlink:href="#DejaVuSans-74" x="302.294922"/>
     <use xlink:href="#DejaVuSans-61" x="341.503906"/>
     <use xlink:href="#DejaVuSans-6e" x="402.783203"/>
     <use xlink:href="#DejaVuSans-63" x="466.162109"/>
     <use xlink:href="#DejaVuSans-65" x="521.142578"/>
     <use xlink:href="#DejaVuSans-73" x="582.666016"/>
    </g>
   </g>
   <g id="text_18">
    <!-- v2.6 -->
    <g style="fill: #808080" transform="translate(198.292262 294.151352)scale(0.1 -0.1)">
     <use xlink:href="#DejaVuSans-76"/>
     <use xlink:href="#DejaVuSans-32" x="59.179688"/>
     <use xlink:href="#DejaVuSans-2e" x="122.802734"/>
     <use xlink:href="#DejaVuSans-36" x="154.589844"/>
    </g>
   </g>
   <g id="text_19">
    <!-- 19 Griewank-Rosenbrock F8F2 -->
    <g transform="translate(57.101637 21.648)scale(0.2 -0.2)">
     <defs>
      <path id="DejaVuSans-47" d="M 3809 666 
L 3809 1919 
L 2778 1919 
L 2778 2438 
L 4434 2438 
L 4434 434 
Q 4069 175 3628 42 
Q 3188 -91 2688 -91 
Q 1594 -91 976 548 
Q 359 1188 359 2328 
Q 359 3472 976 4111 
Q 1594 4750 2688 4750 
Q 3144 4750 3555 4637 
Q 3966 4525 4313 4306 
L 4313 3634 
Q 3963 3931 3569 4081 
Q 3175 4231 2741 4231 
Q 1884 4231 1454 3753 
Q 1025 3275 1025 2328 
Q 1025 1384 1454 906 
Q 1884 428 2741 428 
Q 3075 428 3337 486 
Q 3600 544 3809 666 
z
" transform="scale(0.015625)"/>
      <path id="DejaVuSans-77" d="M 269 3500 
L 844 3500 
L 1563 769 
L 2278 3500 
L 2956 3500 
L 3675 769 
L 4391 3500 
L 4966 3500 
L 4050 0 
L 3372 0 
L 2619 2869 
L 1863 0 
L 1184 0 
L 269 3500 
z
" transform="scale(0.015625)"/>
      <path id="DejaVuSans-6b" d="M 581 4863 
L 1159 4863 
L 1159 1991 
L 2875 3500 
L 3609 3500 
L 1753 1863 
L 3688 0 
L 2938 0 
L 1159 1709 
L 1159 0 
L 581 0 
L 581 4863 
z
" transform="scale(0.015625)"/>
      <path id="DejaVuSans-52" d="M 2841 2188 
Q 3044 2119 3236 1894 
Q 3428 1669 3622 1275 
L 4263 0 
L 3584 0 
L 2988 1197 
Q 2756 1666 2539 1819 
Q 2322 1972 1947 1972 
L 1259 1972 
L 1259 0 
L 628 0 
L 628 4666 
L 2053 4666 
Q 2853 4666 3247 4331 
Q 3641 3997 3641 3322 
Q 3641 2881 3436 2590 
Q 3231 2300 2841 2188 
z
M 1259 4147 
L 1259 2491 
L 2053 2491 
Q 2509 2491 2742 2702 
Q 2975 2913 2975 3322 
Q 2975 3731 2742 3939 
Q 2509 4147 2053 4147 
L 1259 4147 
z
" transform="scale(0.015625)"/>
     </defs>
     <use xlink:href="#DejaVuSans-31"/>
     <use xlink:href="#DejaVuSans-39" x="63.623047"/>
     <use xlink:href="#DejaVuSans-20" x="127.246094"/>
     <use xlink:href="#DejaVuSans-47" x="159.033203"/>
     <use xlink:href="#DejaVuSans-72" x="236.523438"/>
     <use xlink:href="#DejaVuSans-69" x="277.636719"/>
     <use xlink:href="#DejaVuSans-65" x="305.419922"/>
     <use xlink:href="#DejaVuSans-77" x="366.943359"/>
     <use xlink:href="#DejaVuSans-61" x="448.730469"/>
     <use xlink:href="#DejaVuSans-6e" x="510.009766"/>
     <use xlink:href="#DejaVuSans-6b" x="573.388672"/>
     <use xlink:href="#DejaVuSans-2d" x="631.298828"/>
     <use xlink:href="#DejaVuSans-52" x="667.382812"/>
     <use xlink:href="#DejaVuSans-6f" x="732.365234"/>
     <use xlink:href="#DejaVuSans-73" x="793.546875"/>
     <use xlink:href="#DejaVuSans-65" x="845.646484"/>
     <use xlink:href="#DejaVuSans-6e" x="907.169922"/>
     <use xlink:href="#DejaVuSans-62" x="970.548828"/>
     <use xlink:href="#DejaVuSans-72" x="1034.025391"/>
     <use xlink:href="#DejaVuSans-6f" x="1072.888672"/>
     <use xlink:href="#DejaVuSans-63" x="1134.070312"/>
     <use xlink:href="#DejaVuSans-6b" x="1189.050781"/>
     <use xlink:href="#DejaVuSans-20" x="1246.960938"/>
     <use xlink:href="#DejaVuSans-46" x="1278.748047"/>
     <use xlink:href="#DejaVuSans-38" x="1336.267578"/>
     <use xlink:href="#DejaVuSans-46" x="1399.890625"/>
     <use xlink:href="#DejaVuSans-32" x="1457.410156"/>
    </g>
   </g>
  </g>
 </g>
 <defs>
  <clipPath id="p1a65d3f6d4">
   <rect x="57.6" y="27.648" width="303.2064" height="271.296"/>
  </clipPath>
 </defs>
</svg>
