<?xml version="1.0" encoding="utf-8" standalone="no"?>
<!DOCTYPE svg PUBLIC "-//W3C//DTD SVG 1.1//EN"
  "http://www.w3.org/Graphics/SVG/1.1/DTD/svg11.dtd">
<svg xmlns:xlink="http://www.w3.org/1999/xlink" width="460.8pt" height="345.6pt" viewBox="0 0 460.8 345.6" xmlns="http://www.w3.org/2000/svg" version="1.1">
 <metadata>
  <rdf:RDF xmlns:dc="http://purl.org/dc/elements/1.1/" xmlns:cc="http://creativecommons.org/ns#" xmlns:rdf="http://www.w3.org/1999/02/22-rdf-syntax-ns#">
   <cc:Work>
    <dc:type rdf:resource="http://purl.org/dc/dcmitype/StillImage"/>
    <dc:date>2022-03-16T22:41:06.908658</dc:date>
    <dc:format>image/svg+xml</dc:format>
    <dc:creator>
     <cc:Agent>
      <dc:title>Matplotlib v3.5.1, https://matplotlib.org/</dc:title>
     </cc:Agent>
    </dc:creator>
   </cc:Work>
  </rdf:RDF>
 </metadata>
 <defs>
  <style type="text/css">*{stroke-linejoin: round; stroke-linecap: butt}</style>
 </defs>
 <g id="figure_1">
  <g id="patch_1">
   <path d="M 0 345.6 
L 460.8 345.6 
L 460.8 0 
L 0 0 
z
" style="fill: #ffffff"/>
  </g>
  <g id="axes_1">
   <g id="patch_2">
    <path d="M 0 293.76 
L 460.8 293.76 
L 460.8 3.456 
L 0 3.456 
z
" style="fill: #ffffff"/>
   </g>
   <g id="matplotlib.axis_1">
    <g id="xtick_1">
     <g id="line2d_1">
      <path d="M 107.550399 293.76 
L 107.550399 3.456 
" clip-path="url(#p4c1fdb1a26)" style="fill: none; stroke: #b0b0b0; stroke-width: 0.8; stroke-linecap: square"/>
     </g>
     <g id="line2d_2">
      <defs>
       <path id="m501b6fdd66" d="M 0 0 
L 0 3.5 
" style="stroke: #000000; stroke-width: 0.8"/>
      </defs>
      <g>
       <use xlink:href="#m501b6fdd66" x="107.550399" y="293.76" style="stroke: #000000; stroke-width: 0.8"/>
      </g>
     </g>
     <g id="text_1">
      <!-- -4 -->
      <g transform="translate(97.580086 315.956875)scale(0.2 -0.2)">
       <defs>
        <path id="DejaVuSans-2d" d="M 313 2009 
L 1997 2009 
L 1997 1497 
L 313 1497 
L 313 2009 
z
" transform="scale(0.015625)"/>
        <path id="DejaVuSans-34" d="M 2419 4116 
L 825 1625 
L 2419 1625 
L 2419 4116 
z
M 2253 4666 
L 3047 4666 
L 3047 1625 
L 3713 1625 
L 3713 1100 
L 3047 1100 
L 3047 0 
L 2419 0 
L 2419 1100 
L 313 1100 
L 313 1709 
L 2253 4666 
z
" transform="scale(0.015625)"/>
       </defs>
       <use xlink:href="#DejaVuSans-2d"/>
       <use xlink:href="#DejaVuSans-34" x="36.083984"/>
      </g>
     </g>
    </g>
    <g id="xtick_2">
     <g id="line2d_3">
      <path d="M 215.217114 293.76 
L 215.217114 3.456 
" clip-path="url(#p4c1fdb1a26)" style="fill: none; stroke: #b0b0b0; stroke-width: 0.8; stroke-linecap: square"/>
     </g>
     <g id="line2d_4">
      <g>
       <use xlink:href="#m501b6fdd66" x="215.217114" y="293.76" style="stroke: #000000; stroke-width: 0.8"/>
      </g>
     </g>
     <g id="text_2">
      <!-- 0 -->
      <g transform="translate(208.854614 315.956875)scale(0.2 -0.2)">
       <defs>
        <path id="DejaVuSans-30" d="M 2034 4250 
Q 1547 4250 1301 3770 
Q 1056 3291 1056 2328 
Q 1056 1369 1301 889 
Q 1547 409 2034 409 
Q 2525 409 2770 889 
Q 3016 1369 3016 2328 
Q 3016 3291 2770 3770 
Q 2525 4250 2034 4250 
z
M 2034 4750 
Q 2819 4750 3233 4129 
Q 3647 3509 3647 2328 
Q 3647 1150 3233 529 
Q 2819 -91 2034 -91 
Q 1250 -91 836 529 
Q 422 1150 422 2328 
Q 422 3509 836 4129 
Q 1250 4750 2034 4750 
z
" transform="scale(0.015625)"/>
       </defs>
       <use xlink:href="#DejaVuSans-30"/>
      </g>
     </g>
    </g>
    <g id="xtick_3">
     <g id="line2d_5">
      <path d="M 322.88383 293.76 
L 322.88383 3.456 
" clip-path="url(#p4c1fdb1a26)" style="fill: none; stroke: #b0b0b0; stroke-width: 0.8; stroke-linecap: square"/>
     </g>
     <g id="line2d_6">
      <g>
       <use xlink:href="#m501b6fdd66" x="322.88383" y="293.76" style="stroke: #000000; stroke-width: 0.8"/>
      </g>
     </g>
     <g id="text_3">
      <!-- 4 -->
      <g transform="translate(316.52133 315.956875)scale(0.2 -0.2)">
       <use xlink:href="#DejaVuSans-34"/>
      </g>
     </g>
    </g>
    <g id="xtick_4">
     <g id="line2d_7">
      <path d="M 430.550545 293.76 
L 430.550545 3.456 
" clip-path="url(#p4c1fdb1a26)" style="fill: none; stroke: #b0b0b0; stroke-width: 0.8; stroke-linecap: square"/>
     </g>
     <g id="line2d_8">
      <g>
       <use xlink:href="#m501b6fdd66" x="430.550545" y="293.76" style="stroke: #000000; stroke-width: 0.8"/>
      </g>
     </g>
     <g id="text_4">
      <!-- 8 -->
      <g transform="translate(424.188045 315.956875)scale(0.2 -0.2)">
       <defs>
        <path id="DejaVuSans-38" d="M 2034 2216 
Q 1584 2216 1326 1975 
Q 1069 1734 1069 1313 
Q 1069 891 1326 650 
Q 1584 409 2034 409 
Q 2484 409 2743 651 
Q 3003 894 3003 1313 
Q 3003 1734 2745 1975 
Q 2488 2216 2034 2216 
z
M 1403 2484 
Q 997 2584 770 2862 
Q 544 3141 544 3541 
Q 544 4100 942 4425 
Q 1341 4750 2034 4750 
Q 2731 4750 3128 4425 
Q 3525 4100 3525 3541 
Q 3525 3141 3298 2862 
Q 3072 2584 2669 2484 
Q 3125 2378 3379 2068 
Q 3634 1759 3634 1313 
Q 3634 634 3220 271 
Q 2806 -91 2034 -91 
Q 1263 -91 848 271 
Q 434 634 434 1313 
Q 434 1759 690 2068 
Q 947 2378 1403 2484 
z
M 1172 3481 
Q 1172 3119 1398 2916 
Q 1625 2713 2034 2713 
Q 2441 2713 2670 2916 
Q 2900 3119 2900 3481 
Q 2900 3844 2670 4047 
Q 2441 4250 2034 4250 
Q 1625 4250 1398 4047 
Q 1172 3844 1172 3481 
z
" transform="scale(0.015625)"/>
       </defs>
       <use xlink:href="#DejaVuSans-38"/>
      </g>
     </g>
    </g>
    <g id="text_5">
     <!-- log10 of Df -->
     <g transform="translate(175.214063 339.313125)scale(0.2 -0.2)">
      <defs>
       <path id="DejaVuSans-6c" d="M 603 4863 
L 1178 4863 
L 1178 0 
L 603 0 
L 603 4863 
z
" transform="scale(0.015625)"/>
       <path id="DejaVuSans-6f" d="M 1959 3097 
Q 1497 3097 1228 2736 
Q 959 2375 959 1747 
Q 959 1119 1226 758 
Q 1494 397 1959 397 
Q 2419 397 2687 759 
Q 2956 1122 2956 1747 
Q 2956 2369 2687 2733 
Q 2419 3097 1959 3097 
z
M 1959 3584 
Q 2709 3584 3137 3096 
Q 3566 2609 3566 1747 
Q 3566 888 3137 398 
Q 2709 -91 1959 -91 
Q 1206 -91 779 398 
Q 353 888 353 1747 
Q 353 2609 779 3096 
Q 1206 3584 1959 3584 
z
" transform="scale(0.015625)"/>
       <path id="DejaVuSans-67" d="M 2906 1791 
Q 2906 2416 2648 2759 
Q 2391 3103 1925 3103 
Q 1463 3103 1205 2759 
Q 947 2416 947 1791 
Q 947 1169 1205 825 
Q 1463 481 1925 481 
Q 2391 481 2648 825 
Q 2906 1169 2906 1791 
z
M 3481 434 
Q 3481 -459 3084 -895 
Q 2688 -1331 1869 -1331 
Q 1566 -1331 1297 -1286 
Q 1028 -1241 775 -1147 
L 775 -588 
Q 1028 -725 1275 -790 
Q 1522 -856 1778 -856 
Q 2344 -856 2625 -561 
Q 2906 -266 2906 331 
L 2906 616 
Q 2728 306 2450 153 
Q 2172 0 1784 0 
Q 1141 0 747 490 
Q 353 981 353 1791 
Q 353 2603 747 3093 
Q 1141 3584 1784 3584 
Q 2172 3584 2450 3431 
Q 2728 3278 2906 2969 
L 2906 3500 
L 3481 3500 
L 3481 434 
z
" transform="scale(0.015625)"/>
       <path id="DejaVuSans-31" d="M 794 531 
L 1825 531 
L 1825 4091 
L 703 3866 
L 703 4441 
L 1819 4666 
L 2450 4666 
L 2450 531 
L 3481 531 
L 3481 0 
L 794 0 
L 794 531 
z
" transform="scale(0.015625)"/>
       <path id="DejaVuSans-20" transform="scale(0.015625)"/>
       <path id="DejaVuSans-66" d="M 2375 4863 
L 2375 4384 
L 1825 4384 
Q 1516 4384 1395 4259 
Q 1275 4134 1275 3809 
L 1275 3500 
L 2222 3500 
L 2222 3053 
L 1275 3053 
L 1275 0 
L 697 0 
L 697 3053 
L 147 3053 
L 147 3500 
L 697 3500 
L 697 3744 
Q 697 4328 969 4595 
Q 1241 4863 1831 4863 
L 2375 4863 
z
" transform="scale(0.015625)"/>
       <path id="DejaVuSans-44" d="M 1259 4147 
L 1259 519 
L 2022 519 
Q 2988 519 3436 956 
Q 3884 1394 3884 2338 
Q 3884 3275 3436 3711 
Q 2988 4147 2022 4147 
L 1259 4147 
z
M 628 4666 
L 1925 4666 
Q 3281 4666 3915 4102 
Q 4550 3538 4550 2338 
Q 4550 1131 3912 565 
Q 3275 0 1925 0 
L 628 0 
L 628 4666 
z
" transform="scale(0.015625)"/>
      </defs>
      <use xlink:href="#DejaVuSans-6c"/>
      <use xlink:href="#DejaVuSans-6f" x="27.783203"/>
      <use xlink:href="#DejaVuSans-67" x="88.964844"/>
      <use xlink:href="#DejaVuSans-31" x="152.441406"/>
      <use xlink:href="#DejaVuSans-30" x="216.064453"/>
      <use xlink:href="#DejaVuSans-20" x="279.6875"/>
      <use xlink:href="#DejaVuSans-6f" x="311.474609"/>
      <use xlink:href="#DejaVuSans-66" x="372.65625"/>
      <use xlink:href="#DejaVuSans-20" x="407.861328"/>
      <use xlink:href="#DejaVuSans-44" x="439.648438"/>
      <use xlink:href="#DejaVuSans-66" x="516.650391"/>
     </g>
    </g>
   </g>
   <g id="matplotlib.axis_2">
    <g id="ytick_1">
     <g id="line2d_9">
      <path d="M 0 293.76 
L 460.8 293.76 
" clip-path="url(#p4c1fdb1a26)" style="fill: none; stroke: #b0b0b0; stroke-width: 0.8; stroke-linecap: square"/>
     </g>
     <g id="line2d_10">
      <defs>
       <path id="ma1d4232846" d="M 0 0 
L -3.5 0 
" style="stroke: #000000; stroke-width: 0.8"/>
      </defs>
      <g>
       <use xlink:href="#ma1d4232846" x="0" y="293.76" style="stroke: #000000; stroke-width: 0.8"/>
      </g>
     </g>
    </g>
    <g id="ytick_2">
     <g id="line2d_11">
      <path d="M 0 236.274059 
L 460.8 236.274059 
" clip-path="url(#p4c1fdb1a26)" style="fill: none; stroke: #b0b0b0; stroke-width: 0.8; stroke-linecap: square"/>
     </g>
     <g id="line2d_12">
      <g>
       <use xlink:href="#ma1d4232846" x="0" y="236.274059" style="stroke: #000000; stroke-width: 0.8"/>
      </g>
     </g>
    </g>
    <g id="ytick_3">
     <g id="line2d_13">
      <path d="M 0 178.788119 
L 460.8 178.788119 
" clip-path="url(#p4c1fdb1a26)" style="fill: none; stroke: #b0b0b0; stroke-width: 0.8; stroke-linecap: square"/>
     </g>
     <g id="line2d_14">
      <g>
       <use xlink:href="#ma1d4232846" x="0" y="178.788119" style="stroke: #000000; stroke-width: 0.8"/>
      </g>
     </g>
    </g>
    <g id="ytick_4">
     <g id="line2d_15">
      <path d="M 0 121.302178 
L 460.8 121.302178 
" clip-path="url(#p4c1fdb1a26)" style="fill: none; stroke: #b0b0b0; stroke-width: 0.8; stroke-linecap: square"/>
     </g>
     <g id="line2d_16">
      <g>
       <use xlink:href="#ma1d4232846" x="0" y="121.302178" style="stroke: #000000; stroke-width: 0.8"/>
      </g>
     </g>
    </g>
    <g id="ytick_5">
     <g id="line2d_17">
      <path d="M 0 63.816238 
L 460.8 63.816238 
" clip-path="url(#p4c1fdb1a26)" style="fill: none; stroke: #b0b0b0; stroke-width: 0.8; stroke-linecap: square"/>
     </g>
     <g id="line2d_18">
      <g>
       <use xlink:href="#ma1d4232846" x="0" y="63.816238" style="stroke: #000000; stroke-width: 0.8"/>
      </g>
     </g>
    </g>
    <g id="ytick_6">
     <g id="line2d_19">
      <path d="M 0 6.330297 
L 460.8 6.330297 
" clip-path="url(#p4c1fdb1a26)" style="fill: none; stroke: #b0b0b0; stroke-width: 0.8; stroke-linecap: square"/>
     </g>
     <g id="line2d_20">
      <g>
       <use xlink:href="#ma1d4232846" x="0" y="6.330297" style="stroke: #000000; stroke-width: 0.8"/>
      </g>
     </g>
    </g>
   </g>
   <g id="line2d_21">
    <path d="M -1 291.364752 
L -0.799529 291.364752 
L -0.799529 288.969505 
L -0.116317 288.969505 
L -0.116317 276.993267 
L 16.679373 276.993267 
L 16.679373 274.59802 
L 29.788595 274.59802 
L 29.788595 272.202772 
L 32.307076 272.202772 
L 32.307076 269.807525 
L 58.867946 269.807525 
L 58.867946 267.412277 
L 71.562281 267.412277 
L 71.562281 265.01703 
L 105.53743 265.01703 
L 105.53743 262.621782 
L 114.746879 262.621782 
L 114.746879 260.226535 
L 123.994798 260.226535 
L 123.994798 257.831287 
L 138.066783 257.831287 
L 138.066783 255.43604 
L 138.638165 255.43604 
L 138.638165 253.040792 
L 143.394466 253.040792 
L 143.394466 250.645545 
L 149.019839 250.645545 
L 149.019839 248.250297 
L 157.240126 248.250297 
L 157.240126 245.85505 
L 168.550633 245.85505 
L 168.550633 243.459802 
L 170.703938 243.459802 
L 170.703938 241.064554 
L 172.858977 241.064554 
L 172.858977 238.669307 
L 176.390667 238.669307 
L 176.390667 236.274059 
L 177.87428 236.274059 
L 177.87428 233.878812 
L 183.46563 233.878812 
L 183.46563 231.483564 
L 184.788138 231.483564 
L 184.788138 229.088317 
L 187.700353 229.088317 
L 187.700353 226.693069 
L 188.367029 226.693069 
L 188.367029 224.297822 
L 192.082135 224.297822 
L 192.082135 221.902574 
L 194.899861 221.902574 
L 194.899861 219.507327 
L 195.523747 219.507327 
L 195.523747 217.112079 
L 199.029122 217.112079 
L 199.029122 205.135842 
L 200.470981 205.135842 
L 200.470981 202.740594 
L 203.036004 202.740594 
L 203.044529 197.950099 
L 204.586813 197.950099 
L 204.586813 195.554851 
L 206.099278 195.554851 
L 206.099278 193.159604 
L 206.940433 193.159604 
L 206.940433 190.764356 
L 207.560566 190.764356 
L 207.560566 188.369109 
L 210.235204 188.369109 
L 210.235204 185.973861 
L 212.044028 185.973861 
L 212.044028 183.578614 
L 215.229533 183.578614 
L 215.229533 181.183366 
L 215.830759 181.183366 
L 215.830759 178.788119 
L 216.161799 178.788119 
L 216.217216 173.997624 
L 217.27459 173.997624 
L 217.315286 169.207129 
L 217.599923 169.207129 
L 217.599923 166.811881 
L 217.78118 166.811881 
L 217.78118 164.416634 
L 218.309728 164.416634 
L 218.309728 162.021386 
L 218.813175 162.021386 
L 218.813175 159.626139 
L 219.500718 159.626139 
L 219.500718 157.230891 
L 220.58155 157.230891 
L 220.635551 150.045149 
L 220.85714 150.045149 
L 220.85714 147.649901 
L 221.294343 147.649901 
L 221.294343 145.254653 
L 221.681971 145.254653 
L 221.681971 142.859406 
L 222.08605 142.859406 
L 222.177936 138.068911 
L 222.691281 138.068911 
L 222.691281 135.673663 
L 222.910109 135.673663 
L 222.910109 133.278416 
L 223.053818 133.278416 
L 223.053818 130.883168 
L 223.423231 130.883168 
L 223.423231 128.487921 
L 224.105391 128.487921 
L 224.180944 123.697426 
L 224.902051 123.697426 
L 224.902051 121.302178 
L 226.344746 121.302178 
L 226.344746 118.906931 
L 226.886053 118.906931 
L 226.886053 116.511683 
L 227.080175 116.511683 
L 227.170097 111.721188 
L 227.205432 111.721188 
L 227.27663 106.930693 
L 227.627532 106.930693 
L 227.627532 104.535446 
L 228.022179 104.535446 
L 228.022179 102.140198 
L 228.191642 102.140198 
L 228.191642 99.74495 
L 228.784156 99.74495 
L 228.846043 94.954455 
L 229.028868 94.954455 
L 229.028868 92.559208 
L 229.228699 92.559208 
L 229.228699 90.16396 
L 229.628663 90.16396 
L 229.628663 87.768713 
L 230.210076 87.768713 
L 230.210076 85.373465 
L 231.603235 85.373465 
L 231.603235 82.978218 
L 231.828083 82.978218 
L 231.828083 80.58297 
L 234.277532 80.58297 
L 234.277532 78.187723 
L 234.484444 78.187723 
L 234.484444 75.792475 
L 236.11728 75.792475 
L 236.11728 73.397228 
L 236.821884 73.397228 
L 236.842056 68.606733 
L 238.095476 68.606733 
L 238.095476 66.211485 
L 238.409379 66.211485 
L 238.409379 63.816238 
L 239.161108 63.816238 
L 239.161108 61.42099 
L 242.683613 61.42099 
L 242.683613 59.025743 
L 242.860063 59.025743 
L 242.860063 56.630495 
L 243.248559 56.630495 
L 243.248559 54.235248 
L 244.296562 54.235248 
L 244.296562 51.84 
L 244.541154 51.84 
L 244.541154 49.444752 
L 245.905153 49.444752 
L 245.905153 47.049505 
L 246.51282 47.049505 
L 246.51282 44.654257 
L 247.784241 44.654257 
L 247.869102 37.468515 
L 248.071701 37.468515 
L 248.071701 35.073267 
L 248.277625 35.073267 
L 248.277625 32.67802 
L 248.594999 32.67802 
L 248.594999 30.282772 
L 250.201292 30.282772 
L 250.301246 25.492277 
L 251.432061 25.492277 
L 251.432061 23.09703 
L 251.999827 23.09703 
L 251.999827 20.701782 
L 252.823624 20.701782 
L 252.823624 18.306535 
L 254.600991 18.306535 
L 254.600991 15.911287 
L 254.922407 15.911287 
L 254.922407 13.51604 
L 259.967624 13.51604 
L 259.967624 11.120792 
L 270.361943 11.120792 
L 270.361943 8.725545 
L 271.237272 8.725545 
L 271.237272 6.330297 
L 271.237272 6.330297 
L 460.8 6.330297 
L 460.8 6.330297 
" clip-path="url(#p4c1fdb1a26)" style="fill: none; stroke: #ff0000; stroke-width: 3; stroke-linecap: square"/>
   </g>
   <g id="line2d_22">
    <path d="M 199.029122 293.76 
L 199.029122 281.783762 
L 233.15131 281.783762 
L 233.15131 279.388515 
L 235.421116 279.388515 
L 235.421116 276.993267 
L 235.74648 276.993267 
L 235.74648 274.59802 
L 237.481822 274.59802 
L 237.481822 272.202772 
L 237.843226 272.202772 
L 237.843226 269.807525 
L 238.854853 269.807525 
L 238.854853 267.412277 
L 240.504815 267.412277 
L 240.504815 265.01703 
L 241.609602 265.01703 
L 241.609602 262.621782 
L 242.840097 262.621782 
L 242.840097 260.226535 
L 243.328226 260.226535 
L 243.328226 257.831287 
L 245.041405 257.831287 
L 245.041405 255.43604 
L 245.303849 255.43604 
L 245.303849 253.040792 
L 245.487594 253.040792 
L 245.487594 250.645545 
L 248.260156 250.645545 
L 248.260156 248.250297 
L 250.347266 248.250297 
L 250.409152 243.459802 
L 250.694824 243.459802 
L 250.694824 241.064554 
L 250.986046 241.064554 
L 250.986046 238.669307 
L 253.303497 238.669307 
L 253.303497 226.693069 
L 253.608429 226.693069 
L 253.608429 224.297822 
L 255.066386 224.297822 
L 255.066386 221.902574 
L 255.339465 221.902574 
L 255.356507 217.112079 
L 256.516423 217.112079 
L 256.625258 212.321584 
L 257.793931 212.321584 
L 257.793931 209.926337 
L 257.958723 209.926337 
L 257.958723 207.531089 
L 258.869226 207.531089 
L 258.869226 205.135842 
L 259.763268 205.135842 
L 259.763268 202.740594 
L 260.170199 202.740594 
L 260.170199 200.345347 
L 261.847859 200.345347 
L 261.847859 197.950099 
L 262.107367 197.950099 
L 262.107367 195.554851 
L 262.814138 195.554851 
L 262.814138 193.159604 
L 263.080577 193.159604 
L 263.080577 190.764356 
L 263.770623 190.764356 
L 263.770623 188.369109 
L 264.448081 188.369109 
L 264.448081 185.973861 
L 264.688207 185.973861 
L 264.781612 181.183366 
L 265.066155 181.183366 
L 265.066155 178.788119 
L 265.317752 178.788119 
L 265.317752 176.392871 
L 265.99366 176.392871 
L 265.99366 173.997624 
L 266.205415 173.997624 
L 266.205415 171.602376 
L 266.376585 171.602376 
L 266.400921 166.811881 
L 266.694459 166.811881 
L 266.694459 164.416634 
L 267.955826 164.416634 
L 268.057246 157.230891 
L 268.414045 157.230891 
L 268.462265 150.045149 
L 268.60792 150.045149 
L 268.609957 145.254653 
L 269.112833 145.254653 
L 269.112833 142.859406 
L 269.581705 142.859406 
L 269.581705 140.464158 
L 269.930613 140.464158 
L 269.930613 138.068911 
L 270.1782 138.068911 
L 270.1782 135.673663 
L 270.330374 135.673663 
L 270.330374 133.278416 
L 271.852518 133.278416 
L 271.852518 130.883168 
L 272.421989 130.883168 
L 272.421989 128.487921 
L 273.161258 128.487921 
L 273.268069 123.697426 
L 273.876932 123.697426 
L 273.876932 121.302178 
L 275.722003 121.302178 
L 275.722003 118.906931 
L 276.136807 118.906931 
L 276.136807 116.511683 
L 276.350499 116.511683 
L 276.350499 114.116436 
L 276.668938 114.116436 
L 276.668938 111.721188 
L 278.77194 111.721188 
L 278.77194 109.325941 
L 279.559774 109.325941 
L 279.559774 106.930693 
L 279.773058 106.930693 
L 279.773058 104.535446 
L 280.133965 104.535446 
L 280.174006 99.74495 
L 284.758307 99.74495 
L 284.758307 97.349703 
L 288.422018 97.349703 
L 288.422018 94.954455 
L 288.967924 94.954455 
L 288.967924 92.559208 
L 293.71945 92.559208 
L 293.71945 90.16396 
L 295.567257 90.16396 
L 295.567257 87.768713 
L 298.737638 87.768713 
L 298.737638 85.373465 
L 299.274932 85.373465 
L 299.274932 82.978218 
L 303.558857 82.978218 
L 303.558857 80.58297 
L 306.924078 80.58297 
L 306.924078 78.187723 
L 312.419648 78.187723 
L 312.419648 75.792475 
L 318.013534 75.792475 
L 318.013534 68.606733 
L 324.486872 68.606733 
L 324.486872 66.211485 
L 326.647446 66.211485 
L 326.647446 63.816238 
L 327.215956 63.816238 
L 327.215956 61.42099 
L 329.92062 61.42099 
L 329.92062 59.025743 
L 335.401587 59.025743 
L 335.401587 56.630495 
L 342.825954 56.630495 
L 342.825954 54.235248 
L 349.518619 54.235248 
L 349.518619 51.84 
L 350.701452 51.84 
L 350.701452 49.444752 
L 355.401477 49.444752 
L 355.401477 47.049505 
L 363.801753 47.049505 
L 363.801753 44.654257 
L 365.006734 44.654257 
L 365.006734 42.25901 
L 366.120158 42.25901 
L 366.120158 39.863762 
L 369.90301 39.863762 
L 369.938063 35.073267 
L 386.662754 35.073267 
L 386.662754 32.67802 
L 388.84016 32.67802 
L 388.84016 30.282772 
L 396.291966 30.282772 
L 396.291966 27.887525 
L 397.498753 27.887525 
L 397.498753 25.492277 
L 399.02176 25.492277 
L 399.02176 23.09703 
L 400.899116 23.09703 
L 400.899116 20.701782 
L 402.592716 20.701782 
L 402.592716 18.306535 
L 406.676735 18.306535 
L 406.676735 15.911287 
L 417.504588 15.911287 
L 417.504588 13.51604 
L 424.222461 13.51604 
L 424.222461 11.120792 
L 424.544402 11.120792 
L 424.544402 8.725545 
L 435.466391 8.725545 
L 435.466391 6.330297 
L 435.466391 6.330297 
L 460.8 6.330297 
L 460.8 6.330297 
" clip-path="url(#p4c1fdb1a26)" style="fill: none; stroke: #00bfbf; stroke-width: 1.5; stroke-linecap: square"/>
   </g>
   <g id="line2d_23">
    <path d="M 199.029122 293.76 
L 199.029122 281.783762 
L 233.15131 281.783762 
L 233.15131 279.388515 
L 235.421116 279.388515 
L 235.421116 276.993267 
L 235.74648 276.993267 
L 235.74648 274.59802 
L 237.464355 274.59802 
L 237.481822 269.807525 
L 238.854853 269.807525 
L 238.854853 267.412277 
L 239.481209 267.412277 
L 239.519754 262.621782 
L 240.383484 262.621782 
L 240.383484 260.226535 
L 240.504815 260.226535 
L 240.504815 257.831287 
L 241.248636 257.831287 
L 241.248636 255.43604 
L 241.548703 255.43604 
L 241.609602 250.645545 
L 242.021638 250.645545 
L 242.021638 248.250297 
L 245.303849 248.250297 
L 245.303849 245.85505 
L 247.892407 245.85505 
L 247.892407 243.459802 
L 250.694824 243.459802 
L 250.694824 241.064554 
L 250.986046 241.064554 
L 250.986046 238.669307 
L 251.493817 238.669307 
L 251.493817 236.274059 
L 251.914882 236.274059 
L 251.914882 233.878812 
L 252.295878 233.878812 
L 252.295878 231.483564 
L 252.578399 231.483564 
L 252.578399 229.088317 
L 253.303497 229.088317 
L 253.355365 214.716832 
L 253.608429 214.716832 
L 253.608429 212.321584 
L 253.749073 212.321584 
L 253.749073 209.926337 
L 254.678953 209.926337 
L 254.678953 207.531089 
L 254.944942 207.531089 
L 254.944942 205.135842 
L 255.356507 205.135842 
L 255.356507 202.740594 
L 255.598369 202.740594 
L 255.598369 200.345347 
L 256.284933 200.345347 
L 256.284933 197.950099 
L 257.445129 197.950099 
L 257.445129 195.554851 
L 257.595053 195.554851 
L 257.595053 193.159604 
L 258.113727 193.159604 
L 258.113727 190.764356 
L 259.168319 190.764356 
L 259.168319 188.369109 
L 259.464162 188.369109 
L 259.464162 185.973861 
L 259.763268 185.973861 
L 259.763268 183.578614 
L 260.170199 183.578614 
L 260.257702 176.392871 
L 261.847859 176.392871 
L 261.847859 173.997624 
L 262.234198 173.997624 
L 262.234198 171.602376 
L 262.349065 171.602376 
L 262.349065 169.207129 
L 262.501512 169.207129 
L 262.501512 166.811881 
L 263.013564 166.811881 
L 263.013564 164.416634 
L 263.796852 164.416634 
L 263.803467 159.626139 
L 264.232217 159.626139 
L 264.338344 152.440396 
L 265.066155 152.440396 
L 265.066155 150.045149 
L 265.588696 150.045149 
L 265.588696 147.649901 
L 265.726526 147.649901 
L 265.726526 145.254653 
L 266.400921 145.254653 
L 266.400921 142.859406 
L 266.517003 142.859406 
L 266.517003 140.464158 
L 266.694459 140.464158 
L 266.694459 138.068911 
L 267.96286 138.068911 
L 268.057246 133.278416 
L 268.363283 133.278416 
L 268.462265 128.487921 
L 268.536371 128.487921 
L 268.630482 123.697426 
L 271.852518 123.697426 
L 271.852518 121.302178 
L 272.436345 121.302178 
L 272.436345 118.906931 
L 273.161258 118.906931 
L 273.161258 116.511683 
L 274.536558 116.511683 
L 274.536558 114.116436 
L 276.008457 114.116436 
L 276.008457 111.721188 
L 276.136807 111.721188 
L 276.136807 109.325941 
L 276.668938 109.325941 
L 276.668938 106.930693 
L 279.559774 106.930693 
L 279.559774 104.535446 
L 279.773058 104.535446 
L 279.773058 102.140198 
L 280.133965 102.140198 
L 280.133965 99.74495 
L 281.890148 99.74495 
L 281.890148 97.349703 
L 284.758307 97.349703 
L 284.758307 94.954455 
L 288.422018 94.954455 
L 288.422018 92.559208 
L 293.71945 92.559208 
L 293.71945 90.16396 
L 295.567257 90.16396 
L 295.567257 87.768713 
L 296.112257 87.768713 
L 296.112257 85.373465 
L 299.274932 85.373465 
L 299.274932 82.978218 
L 301.02843 82.978218 
L 301.02843 80.58297 
L 302.919776 80.58297 
L 302.919776 78.187723 
L 306.695266 78.187723 
L 306.695266 75.792475 
L 306.924078 75.792475 
L 306.924078 73.397228 
L 307.749773 73.397228 
L 307.749773 71.00198 
L 312.419648 71.00198 
L 312.419648 68.606733 
L 317.667962 68.606733 
L 317.667962 66.211485 
L 324.198786 66.211485 
L 324.198786 63.816238 
L 326.507909 63.816238 
L 326.507909 61.42099 
L 326.647446 61.42099 
L 326.647446 59.025743 
L 329.92062 59.025743 
L 329.92062 56.630495 
L 335.401587 56.630495 
L 335.401587 54.235248 
L 342.825954 54.235248 
L 342.825954 51.84 
L 343.346032 51.84 
L 343.346032 49.444752 
L 350.365146 49.444752 
L 350.365146 47.049505 
L 350.701452 47.049505 
L 350.701452 44.654257 
L 355.401477 44.654257 
L 355.401477 42.25901 
L 363.801753 42.25901 
L 363.801753 39.863762 
L 364.015712 39.863762 
L 364.015712 37.468515 
L 366.120158 37.468515 
L 366.120158 35.073267 
L 367.576183 35.073267 
L 367.576183 32.67802 
L 368.315907 32.67802 
L 368.315907 30.282772 
L 369.90301 30.282772 
L 369.90301 27.887525 
L 377.32286 27.887525 
L 377.32286 25.492277 
L 377.648081 25.492277 
L 377.648081 23.09703 
L 395.29416 23.09703 
L 395.29416 20.701782 
L 397.153214 20.701782 
L 397.153214 18.306535 
L 397.498753 18.306535 
L 397.498753 15.911287 
L 405.91821 15.911287 
L 405.91821 13.51604 
L 414.667669 13.51604 
L 414.667669 11.120792 
L 416.816448 11.120792 
L 416.816448 8.725545 
L 417.504588 8.725545 
L 417.504588 6.330297 
L 417.504588 6.330297 
L 460.8 6.330297 
L 460.8 6.330297 
" clip-path="url(#p4c1fdb1a26)" style="fill: none; stroke: #bf00bf; stroke-width: 1.5; stroke-linecap: square"/>
   </g>
   <g id="line2d_24">
    <path d="M 199.029122 293.76 
L 199.029122 281.783762 
L 229.397621 281.783762 
L 229.397621 279.388515 
L 231.886209 279.388515 
L 231.886209 276.993267 
L 233.01413 276.993267 
L 233.01413 274.59802 
L 233.15131 274.59802 
L 233.15131 272.202772 
L 234.888528 272.202772 
L 234.888528 269.807525 
L 235.239774 269.807525 
L 235.239774 267.412277 
L 235.421116 267.412277 
L 235.421116 265.01703 
L 237.481822 265.01703 
L 237.481822 262.621782 
L 238.854853 262.621782 
L 238.854853 260.226535 
L 239.519754 260.226535 
L 239.519754 257.831287 
L 240.383484 257.831287 
L 240.470384 253.040792 
L 241.248636 253.040792 
L 241.248636 250.645545 
L 241.548703 250.645545 
L 241.609602 245.85505 
L 242.037257 245.85505 
L 242.037257 243.459802 
L 243.852289 243.459802 
L 243.890577 238.669307 
L 244.789699 238.669307 
L 244.789699 236.274059 
L 245.303849 236.274059 
L 245.303849 233.878812 
L 246.150786 233.878812 
L 246.150786 231.483564 
L 247.892407 231.483564 
L 247.892407 229.088317 
L 248.008451 229.088317 
L 248.008451 226.693069 
L 248.603284 226.693069 
L 248.603284 224.297822 
L 250.43555 224.297822 
L 250.43555 221.902574 
L 250.986046 221.902574 
L 251.006999 217.112079 
L 251.432061 217.112079 
L 251.493817 212.321584 
L 251.915348 212.321584 
L 251.915348 209.926337 
L 252.080109 209.926337 
L 252.080109 207.531089 
L 252.295878 207.531089 
L 252.295878 205.135842 
L 252.96628 205.135842 
L 252.96628 202.740594 
L 253.303497 202.740594 
L 253.303497 190.764356 
L 253.749073 190.764356 
L 253.749073 188.369109 
L 254.208229 188.369109 
L 254.208229 185.973861 
L 254.944942 185.973861 
L 254.944942 183.578614 
L 255.598369 183.578614 
L 255.598369 181.183366 
L 256.284933 181.183366 
L 256.284933 178.788119 
L 257.392232 178.788119 
L 257.392232 176.392871 
L 257.595053 176.392871 
L 257.595053 173.997624 
L 258.502884 173.997624 
L 258.502884 171.602376 
L 259.374049 171.602376 
L 259.374049 169.207129 
L 259.763268 169.207129 
L 259.763268 166.811881 
L 260.18444 166.811881 
L 260.257702 162.021386 
L 260.420613 162.021386 
L 260.477984 157.230891 
L 260.626352 157.230891 
L 260.626352 154.835644 
L 260.900961 154.835644 
L 260.900961 152.440396 
L 261.086859 152.440396 
L 261.086859 150.045149 
L 262.234198 150.045149 
L 262.234198 147.649901 
L 262.501512 147.649901 
L 262.501512 145.254653 
L 263.423219 145.254653 
L 263.423219 142.859406 
L 263.803467 142.859406 
L 263.803467 140.464158 
L 264.269065 140.464158 
L 264.269065 138.068911 
L 264.540138 138.068911 
L 264.540138 135.673663 
L 265.153353 135.673663 
L 265.153353 133.278416 
L 265.325194 133.278416 
L 265.325194 130.883168 
L 265.726526 130.883168 
L 265.726526 128.487921 
L 266.339057 128.487921 
L 266.339057 126.092673 
L 268.057246 126.092673 
L 268.057246 123.697426 
L 268.290237 123.697426 
L 268.363283 118.906931 
L 268.452719 118.906931 
L 268.452719 116.511683 
L 270.012833 116.511683 
L 270.012833 114.116436 
L 270.541881 114.116436 
L 270.541881 111.721188 
L 271.852518 111.721188 
L 271.852518 109.325941 
L 272.423984 109.325941 
L 272.423984 106.930693 
L 272.969924 106.930693 
L 272.969924 104.535446 
L 274.212697 104.535446 
L 274.282958 99.74495 
L 274.536558 99.74495 
L 274.567378 94.954455 
L 280.544469 94.954455 
L 280.544469 92.559208 
L 281.890148 92.559208 
L 281.890148 90.16396 
L 283.440775 90.16396 
L 283.440775 87.768713 
L 288.422018 87.768713 
L 288.422018 85.373465 
L 288.744284 85.373465 
L 288.744284 82.978218 
L 290.720134 82.978218 
L 290.720134 80.58297 
L 290.929055 80.58297 
L 290.929055 78.187723 
L 293.71945 78.187723 
L 293.71945 75.792475 
L 294.056882 75.792475 
L 294.056882 73.397228 
L 299.535778 73.397228 
L 299.535778 71.00198 
L 300.907935 71.00198 
L 300.907935 68.606733 
L 302.265266 68.606733 
L 302.265266 66.211485 
L 302.503199 66.211485 
L 302.503199 63.816238 
L 307.749773 63.816238 
L 307.749773 61.42099 
L 315.034052 61.42099 
L 315.034052 59.025743 
L 326.507909 59.025743 
L 326.507909 56.630495 
L 326.647446 56.630495 
L 326.647446 54.235248 
L 334.6352 54.235248 
L 334.6352 51.84 
L 335.401587 51.84 
L 335.401587 49.444752 
L 336.80438 49.444752 
L 336.80438 47.049505 
L 338.271395 47.049505 
L 338.271395 44.654257 
L 343.346032 44.654257 
L 343.346032 42.25901 
L 344.960464 42.25901 
L 344.960464 39.863762 
L 348.632005 39.863762 
L 348.632005 37.468515 
L 350.365146 37.468515 
L 350.365146 35.073267 
L 354.341592 35.073267 
L 354.341592 32.67802 
L 356.493318 32.67802 
L 356.493318 30.282772 
L 356.835374 30.282772 
L 356.835374 27.887525 
L 362.807488 27.887525 
L 362.807488 25.492277 
L 369.90301 25.492277 
L 369.90301 23.09703 
L 375.336594 23.09703 
L 375.336594 20.701782 
L 397.153214 20.701782 
L 397.153214 18.306535 
L 397.498753 18.306535 
L 397.498753 15.911287 
L 405.065913 15.911287 
L 405.065913 13.51604 
L 405.91821 13.51604 
L 405.91821 11.120792 
L 411.614796 11.120792 
L 411.614796 8.725545 
L 413.82692 8.725545 
L 413.82692 6.330297 
L 413.82692 6.330297 
L 460.8 6.330297 
L 460.8 6.330297 
" clip-path="url(#p4c1fdb1a26)" style="fill: none; stroke: #000000; stroke-width: 1.5; stroke-linecap: square"/>
   </g>
   <g id="line2d_25">
    <path d="M 199.029122 293.76 
L 199.029122 281.783762 
L 210.235204 281.783762 
L 210.235204 279.388515 
L 212.432012 279.388515 
L 212.432012 276.993267 
L 219.359162 276.993267 
L 219.359162 274.59802 
L 222.334728 274.59802 
L 222.334728 272.202772 
L 224.197346 272.202772 
L 224.197346 269.807525 
L 225.064873 269.807525 
L 225.064873 267.412277 
L 225.596524 267.412277 
L 225.596524 265.01703 
L 225.728093 265.01703 
L 225.728093 262.621782 
L 226.005603 262.621782 
L 226.005603 260.226535 
L 226.15592 260.226535 
L 226.15592 257.831287 
L 227.170976 257.831287 
L 227.170976 255.43604 
L 228.432827 255.43604 
L 228.432827 253.040792 
L 228.714264 253.040792 
L 228.714264 250.645545 
L 229.554785 250.645545 
L 229.619214 245.85505 
L 231.474082 245.85505 
L 231.548194 241.064554 
L 231.748315 241.064554 
L 231.748315 238.669307 
L 232.31468 238.669307 
L 232.31468 236.274059 
L 233.020072 236.274059 
L 233.020072 233.878812 
L 233.173672 233.878812 
L 233.173672 231.483564 
L 233.534555 231.483564 
L 233.534555 229.088317 
L 234.858422 229.088317 
L 234.888528 224.297822 
L 237.126012 224.297822 
L 237.126012 221.902574 
L 237.481822 221.902574 
L 237.481822 219.507327 
L 238.318462 219.507327 
L 238.318462 217.112079 
L 239.186322 217.112079 
L 239.186322 214.716832 
L 239.918466 214.716832 
L 239.918466 212.321584 
L 240.877254 212.321584 
L 240.877254 209.926337 
L 241.468577 209.926337 
L 241.468577 207.531089 
L 241.919874 207.531089 
L 241.919874 205.135842 
L 242.053724 205.135842 
L 242.053724 202.740594 
L 242.493792 202.740594 
L 242.493792 200.345347 
L 243.606649 200.345347 
L 243.606649 197.950099 
L 243.814666 197.950099 
L 243.814666 195.554851 
L 244.081923 195.554851 
L 244.081923 193.159604 
L 245.492269 193.159604 
L 245.492269 190.764356 
L 246.085382 190.764356 
L 246.085382 188.369109 
L 246.55511 188.369109 
L 246.55511 185.973861 
L 247.859711 185.973861 
L 247.900459 181.183366 
L 249.007016 181.183366 
L 249.007016 178.788119 
L 249.269899 178.788119 
L 249.269899 176.392871 
L 251.432061 176.392871 
L 251.476022 171.602376 
L 252.080109 171.602376 
L 252.161497 166.811881 
L 252.240187 166.811881 
L 252.240187 164.416634 
L 252.497737 164.416634 
L 252.497737 162.021386 
L 253.036475 162.021386 
L 253.036475 159.626139 
L 253.213124 159.626139 
L 253.303497 145.254653 
L 253.678969 145.254653 
L 253.678969 142.859406 
L 254.944942 142.859406 
L 254.944942 140.464158 
L 255.264525 140.464158 
L 255.264525 138.068911 
L 255.612762 138.068911 
L 255.612762 135.673663 
L 255.757657 135.673663 
L 255.757657 133.278416 
L 256.049786 133.278416 
L 256.049786 130.883168 
L 256.309962 130.883168 
L 256.309962 128.487921 
L 257.967348 128.487921 
L 257.967348 126.092673 
L 259.050993 126.092673 
L 259.050993 123.697426 
L 259.392428 123.697426 
L 259.392428 121.302178 
L 260.905075 121.302178 
L 260.949881 116.511683 
L 261.134469 116.511683 
L 261.176396 111.721188 
L 261.755507 111.721188 
L 261.755507 109.325941 
L 262.560199 109.325941 
L 262.560199 106.930693 
L 262.946389 106.930693 
L 262.946389 104.535446 
L 263.156365 104.535446 
L 263.156365 102.140198 
L 264.108553 102.140198 
L 264.108553 99.74495 
L 264.267853 99.74495 
L 264.346972 94.954455 
L 264.553387 94.954455 
L 264.553387 92.559208 
L 265.344833 92.559208 
L 265.344833 90.16396 
L 266.339057 90.16396 
L 266.339057 87.768713 
L 267.328204 87.768713 
L 267.328204 85.373465 
L 267.817422 85.373465 
L 267.817422 82.978218 
L 268.735021 82.978218 
L 268.735021 80.58297 
L 269.937139 80.58297 
L 269.937139 78.187723 
L 272.423984 78.187723 
L 272.423984 75.792475 
L 272.536061 75.792475 
L 272.536061 73.397228 
L 273.198163 73.397228 
L 273.198163 71.00198 
L 276.682541 71.00198 
L 276.682541 68.606733 
L 277.86506 68.606733 
L 277.86506 66.211485 
L 279.571123 66.211485 
L 279.571123 63.816238 
L 281.890148 63.816238 
L 281.890148 61.42099 
L 285.804207 61.42099 
L 285.804207 59.025743 
L 289.619613 59.025743 
L 289.619613 56.630495 
L 293.71945 56.630495 
L 293.71945 54.235248 
L 294.54754 54.235248 
L 294.54754 51.84 
L 297.623021 51.84 
L 297.623021 49.444752 
L 306.251131 49.444752 
L 306.251131 47.049505 
L 308.725076 47.049505 
L 308.725076 44.654257 
L 313.859782 44.654257 
L 313.859782 42.25901 
L 318.552582 42.25901 
L 318.552582 39.863762 
L 323.387937 39.863762 
L 323.387937 37.468515 
L 326.647446 37.468515 
L 326.647446 35.073267 
L 328.968489 35.073267 
L 328.968489 32.67802 
L 335.401587 32.67802 
L 335.401587 30.282772 
L 339.227583 30.282772 
L 339.227583 27.887525 
L 343.844713 27.887525 
L 343.844713 25.492277 
L 343.990585 25.492277 
L 343.990585 23.09703 
L 345.832362 23.09703 
L 345.832362 20.701782 
L 360.652941 20.701782 
L 360.652941 18.306535 
L 379.627197 18.306535 
L 379.627197 15.911287 
L 386.261522 15.911287 
L 386.261522 13.51604 
L 388.990638 13.51604 
L 388.990638 11.120792 
L 396.682188 11.120792 
L 396.682188 8.725545 
L 400.348347 8.725545 
L 400.348347 6.330297 
L 400.348347 6.330297 
L 460.8 6.330297 
L 460.8 6.330297 
" clip-path="url(#p4c1fdb1a26)" style="fill: none; stroke: #00bfbf; stroke-width: 1.5; stroke-linecap: square"/>
   </g>
   <g id="line2d_26">
    <path d="M -1 291.364752 
L -0.116317 291.364752 
L -0.116317 279.388515 
L 3.869136 279.388515 
L 3.869136 276.993267 
L 18.663945 276.993267 
L 18.663945 274.59802 
L 36.002402 274.59802 
L 36.002402 272.202772 
L 36.830572 272.202772 
L 36.830572 269.807525 
L 58.867946 269.807525 
L 58.867946 267.412277 
L 85.706995 267.412277 
L 85.706995 265.01703 
L 105.53743 265.01703 
L 105.53743 262.621782 
L 114.746879 262.621782 
L 114.746879 260.226535 
L 123.994798 260.226535 
L 123.994798 257.831287 
L 138.066783 257.831287 
L 138.066783 255.43604 
L 139.014575 255.43604 
L 139.014575 253.040792 
L 143.991138 253.040792 
L 143.991138 250.645545 
L 149.019839 250.645545 
L 149.019839 248.250297 
L 157.240126 248.250297 
L 157.240126 245.85505 
L 168.550633 245.85505 
L 168.550633 243.459802 
L 171.742162 243.459802 
L 171.742162 241.064554 
L 172.858977 241.064554 
L 172.858977 238.669307 
L 176.390667 238.669307 
L 176.390667 236.274059 
L 178.433055 236.274059 
L 178.433055 233.878812 
L 183.862284 233.878812 
L 183.862284 231.483564 
L 186.281739 231.483564 
L 186.281739 229.088317 
L 187.700353 229.088317 
L 187.700353 226.693069 
L 188.367029 226.693069 
L 188.367029 224.297822 
L 192.082135 224.297822 
L 192.082135 221.902574 
L 195.523747 221.902574 
L 195.523747 219.507327 
L 199.029122 219.507327 
L 199.029122 207.531089 
L 200.470981 207.531089 
L 200.470981 205.135842 
L 201.726469 205.135842 
L 201.726469 202.740594 
L 203.036004 202.740594 
L 203.044529 197.950099 
L 204.586813 197.950099 
L 204.586813 195.554851 
L 206.099278 195.554851 
L 206.099278 193.159604 
L 207.560566 193.159604 
L 207.560566 190.764356 
L 208.583177 190.764356 
L 208.583177 188.369109 
L 210.235204 188.369109 
L 210.235204 185.973861 
L 212.457889 185.973861 
L 212.457889 183.578614 
L 215.229533 183.578614 
L 215.229533 181.183366 
L 216.009934 181.183366 
L 216.009934 178.788119 
L 216.217216 178.788119 
L 216.217216 176.392871 
L 216.952402 176.392871 
L 216.952402 173.997624 
L 217.27459 173.997624 
L 217.315286 169.207129 
L 217.756211 169.207129 
L 217.78118 164.416634 
L 218.309763 164.416634 
L 218.309763 162.021386 
L 218.813175 162.021386 
L 218.813175 159.626139 
L 219.500718 159.626139 
L 219.500718 157.230891 
L 220.58155 157.230891 
L 220.666987 152.440396 
L 220.85714 152.440396 
L 220.85714 150.045149 
L 221.294343 150.045149 
L 221.294343 147.649901 
L 221.681971 147.649901 
L 221.681971 145.254653 
L 222.08605 145.254653 
L 222.08605 142.859406 
L 222.691314 142.859406 
L 222.691314 140.464158 
L 222.910109 140.464158 
L 222.910109 138.068911 
L 223.053818 138.068911 
L 223.088831 133.278416 
L 223.423231 133.278416 
L 223.423231 130.883168 
L 224.105391 130.883168 
L 224.180944 126.092673 
L 224.902051 126.092673 
L 224.902051 123.697426 
L 225.565207 123.697426 
L 225.565207 121.302178 
L 226.345497 121.302178 
L 226.345497 118.906931 
L 226.886053 118.906931 
L 226.886053 116.511683 
L 227.170376 116.511683 
L 227.27663 109.325941 
L 227.627532 109.325941 
L 227.627532 106.930693 
L 228.030603 106.930693 
L 228.030603 104.535446 
L 228.207301 104.535446 
L 228.207301 102.140198 
L 228.511638 102.140198 
L 228.511638 99.74495 
L 228.846043 99.74495 
L 228.846043 97.349703 
L 229.351294 97.349703 
L 229.351294 94.954455 
L 229.619214 94.954455 
L 229.619214 92.559208 
L 229.854348 92.559208 
L 229.854348 90.16396 
L 230.210076 90.16396 
L 230.210076 87.768713 
L 231.19309 87.768713 
L 231.19309 85.373465 
L 231.687892 85.373465 
L 231.687892 82.978218 
L 231.922909 82.978218 
L 231.922909 80.58297 
L 235.691772 80.58297 
L 235.691772 78.187723 
L 236.12166 78.187723 
L 236.12166 75.792475 
L 236.821884 75.792475 
L 236.821884 73.397228 
L 236.967664 73.397228 
L 236.967664 71.00198 
L 237.631534 71.00198 
L 237.631534 68.606733 
L 238.095476 68.606733 
L 238.095476 66.211485 
L 238.409379 66.211485 
L 238.409379 63.816238 
L 239.161108 63.816238 
L 239.161108 61.42099 
L 242.683613 61.42099 
L 242.683613 59.025743 
L 243.248559 59.025743 
L 243.248559 56.630495 
L 243.881831 56.630495 
L 243.881831 54.235248 
L 244.319154 54.235248 
L 244.319154 51.84 
L 244.541154 51.84 
L 244.541154 49.444752 
L 246.51282 49.444752 
L 246.589701 44.654257 
L 247.784241 44.654257 
L 247.807997 39.863762 
L 248.193836 39.863762 
L 248.27782 32.67802 
L 248.594999 32.67802 
L 248.594999 30.282772 
L 250.237077 30.282772 
L 250.301246 25.492277 
L 251.432061 25.492277 
L 251.432061 23.09703 
L 252.945559 23.09703 
L 252.945559 20.701782 
L 254.097954 20.701782 
L 254.097954 18.306535 
L 254.605073 18.306535 
L 254.605073 15.911287 
L 254.927036 15.911287 
L 254.927036 13.51604 
L 259.967624 13.51604 
L 259.967624 11.120792 
L 270.595448 11.120792 
L 270.595448 8.725545 
L 271.275361 8.725545 
L 271.275361 6.330297 
L 271.275361 6.330297 
L 460.8 6.330297 
L 460.8 6.330297 
" clip-path="url(#p4c1fdb1a26)" style="fill: none; stroke: #bf00bf; stroke-width: 1.5; stroke-linecap: square"/>
   </g>
   <g id="patch_3">
    <path d="M 0 293.76 
L 0 3.456 
" style="fill: none; stroke: #000000; stroke-width: 0.8; stroke-linejoin: miter; stroke-linecap: square"/>
   </g>
   <g id="patch_4">
    <path d="M 460.8 293.76 
L 460.8 3.456 
" style="fill: none; stroke: #000000; stroke-width: 0.8; stroke-linejoin: miter; stroke-linecap: square"/>
   </g>
   <g id="patch_5">
    <path d="M 0 293.76 
L 460.8 293.76 
" style="fill: none; stroke: #000000; stroke-width: 0.8; stroke-linejoin: miter; stroke-linecap: square"/>
   </g>
   <g id="patch_6">
    <path d="M 0 3.456 
L 460.8 3.456 
" style="fill: none; stroke: #000000; stroke-width: 0.8; stroke-linejoin: miter; stroke-linecap: square"/>
   </g>
   <g id="text_6">
    <!-- {f1-f24}, 5-D -->
    <g transform="translate(318.609 287.95392)scale(0.2 -0.2)">
     <defs>
      <path id="DejaVuSans-7b" d="M 3272 -594 
L 3272 -1044 
L 3078 -1044 
Q 2300 -1044 2036 -812 
Q 1772 -581 1772 109 
L 1772 856 
Q 1772 1328 1603 1509 
Q 1434 1691 991 1691 
L 800 1691 
L 800 2138 
L 991 2138 
Q 1438 2138 1605 2317 
Q 1772 2497 1772 2963 
L 1772 3713 
Q 1772 4403 2036 4633 
Q 2300 4863 3078 4863 
L 3272 4863 
L 3272 4416 
L 3059 4416 
Q 2619 4416 2484 4278 
Q 2350 4141 2350 3700 
L 2350 2925 
Q 2350 2434 2208 2212 
Q 2066 1991 1722 1913 
Q 2069 1828 2209 1606 
Q 2350 1384 2350 897 
L 2350 122 
Q 2350 -319 2484 -456 
Q 2619 -594 3059 -594 
L 3272 -594 
z
" transform="scale(0.015625)"/>
      <path id="DejaVuSans-32" d="M 1228 531 
L 3431 531 
L 3431 0 
L 469 0 
L 469 531 
Q 828 903 1448 1529 
Q 2069 2156 2228 2338 
Q 2531 2678 2651 2914 
Q 2772 3150 2772 3378 
Q 2772 3750 2511 3984 
Q 2250 4219 1831 4219 
Q 1534 4219 1204 4116 
Q 875 4013 500 3803 
L 500 4441 
Q 881 4594 1212 4672 
Q 1544 4750 1819 4750 
Q 2544 4750 2975 4387 
Q 3406 4025 3406 3419 
Q 3406 3131 3298 2873 
Q 3191 2616 2906 2266 
Q 2828 2175 2409 1742 
Q 1991 1309 1228 531 
z
" transform="scale(0.015625)"/>
      <path id="DejaVuSans-7d" d="M 800 -594 
L 1019 -594 
Q 1456 -594 1589 -459 
Q 1722 -325 1722 122 
L 1722 897 
Q 1722 1384 1862 1606 
Q 2003 1828 2350 1913 
Q 2003 1991 1862 2212 
Q 1722 2434 1722 2925 
L 1722 3700 
Q 1722 4144 1589 4280 
Q 1456 4416 1019 4416 
L 800 4416 
L 800 4863 
L 997 4863 
Q 1775 4863 2036 4633 
Q 2297 4403 2297 3713 
L 2297 2963 
Q 2297 2497 2465 2317 
Q 2634 2138 3078 2138 
L 3272 2138 
L 3272 1691 
L 3078 1691 
Q 2634 1691 2465 1509 
Q 2297 1328 2297 856 
L 2297 109 
Q 2297 -581 2036 -812 
Q 1775 -1044 997 -1044 
L 800 -1044 
L 800 -594 
z
" transform="scale(0.015625)"/>
      <path id="DejaVuSans-2c" d="M 750 794 
L 1409 794 
L 1409 256 
L 897 -744 
L 494 -744 
L 750 256 
L 750 794 
z
" transform="scale(0.015625)"/>
      <path id="DejaVuSans-35" d="M 691 4666 
L 3169 4666 
L 3169 4134 
L 1269 4134 
L 1269 2991 
Q 1406 3038 1543 3061 
Q 1681 3084 1819 3084 
Q 2600 3084 3056 2656 
Q 3513 2228 3513 1497 
Q 3513 744 3044 326 
Q 2575 -91 1722 -91 
Q 1428 -91 1123 -41 
Q 819 9 494 109 
L 494 744 
Q 775 591 1075 516 
Q 1375 441 1709 441 
Q 2250 441 2565 725 
Q 2881 1009 2881 1497 
Q 2881 1984 2565 2268 
Q 2250 2553 1709 2553 
Q 1456 2553 1204 2497 
Q 953 2441 691 2322 
L 691 4666 
z
" transform="scale(0.015625)"/>
     </defs>
     <use xlink:href="#DejaVuSans-7b"/>
     <use xlink:href="#DejaVuSans-66" x="63.623047"/>
     <use xlink:href="#DejaVuSans-31" x="98.828125"/>
     <use xlink:href="#DejaVuSans-2d" x="162.451172"/>
     <use xlink:href="#DejaVuSans-66" x="198.535156"/>
     <use xlink:href="#DejaVuSans-32" x="233.740234"/>
     <use xlink:href="#DejaVuSans-34" x="297.363281"/>
     <use xlink:href="#DejaVuSans-7d" x="360.986328"/>
     <use xlink:href="#DejaVuSans-2c" x="424.609375"/>
     <use xlink:href="#DejaVuSans-20" x="456.396484"/>
     <use xlink:href="#DejaVuSans-35" x="488.183594"/>
     <use xlink:href="#DejaVuSans-2d" x="551.806641"/>
     <use xlink:href="#DejaVuSans-44" x="587.890625"/>
    </g>
   </g>
   <g id="text_7">
    <!-- v2.6 -->
    <g style="fill: #808080" transform="translate(219.489063 288.777272)scale(0.1 -0.1)">
     <defs>
      <path id="DejaVuSans-76" d="M 191 3500 
L 800 3500 
L 1894 563 
L 2988 3500 
L 3597 3500 
L 2284 0 
L 1503 0 
L 191 3500 
z
" transform="scale(0.015625)"/>
      <path id="DejaVuSans-2e" d="M 684 794 
L 1344 794 
L 1344 0 
L 684 0 
L 684 794 
z
" transform="scale(0.015625)"/>
      <path id="DejaVuSans-36" d="M 2113 2584 
Q 1688 2584 1439 2293 
Q 1191 2003 1191 1497 
Q 1191 994 1439 701 
Q 1688 409 2113 409 
Q 2538 409 2786 701 
Q 3034 994 3034 1497 
Q 3034 2003 2786 2293 
Q 2538 2584 2113 2584 
z
M 3366 4563 
L 3366 3988 
Q 3128 4100 2886 4159 
Q 2644 4219 2406 4219 
Q 1781 4219 1451 3797 
Q 1122 3375 1075 2522 
Q 1259 2794 1537 2939 
Q 1816 3084 2150 3084 
Q 2853 3084 3261 2657 
Q 3669 2231 3669 1497 
Q 3669 778 3244 343 
Q 2819 -91 2113 -91 
Q 1303 -91 875 529 
Q 447 1150 447 2328 
Q 447 3434 972 4092 
Q 1497 4750 2381 4750 
Q 2619 4750 2861 4703 
Q 3103 4656 3366 4563 
z
" transform="scale(0.015625)"/>
     </defs>
     <use xlink:href="#DejaVuSans-76"/>
     <use xlink:href="#DejaVuSans-32" x="59.179688"/>
     <use xlink:href="#DejaVuSans-2e" x="122.802734"/>
     <use xlink:href="#DejaVuSans-36" x="154.589844"/>
    </g>
   </g>
  </g>
 </g>
 <defs>
  <clipPath id="p4c1fdb1a26">
   <rect x="0" y="3.456" width="460.8" height="290.304"/>
  </clipPath>
 </defs>
</svg>
