<?xml version="1.0" encoding="utf-8" standalone="no"?>
<!DOCTYPE svg PUBLIC "-//W3C//DTD SVG 1.1//EN"
  "http://www.w3.org/Graphics/SVG/1.1/DTD/svg11.dtd">
<svg xmlns:xlink="http://www.w3.org/1999/xlink" width="460.8pt" height="345.6pt" viewBox="0 0 460.8 345.6" xmlns="http://www.w3.org/2000/svg" version="1.1">
 <metadata>
  <rdf:RDF xmlns:dc="http://purl.org/dc/elements/1.1/" xmlns:cc="http://creativecommons.org/ns#" xmlns:rdf="http://www.w3.org/1999/02/22-rdf-syntax-ns#">
   <cc:Work>
    <dc:type rdf:resource="http://purl.org/dc/dcmitype/StillImage"/>
    <dc:date>2022-03-24T02:02:26.774899</dc:date>
    <dc:format>image/svg+xml</dc:format>
    <dc:creator>
     <cc:Agent>
      <dc:title>Matplotlib v3.5.1, https://matplotlib.org/</dc:title>
     </cc:Agent>
    </dc:creator>
   </cc:Work>
  </rdf:RDF>
 </metadata>
 <defs>
  <style type="text/css">*{stroke-linejoin: round; stroke-linecap: butt}</style>
 </defs>
 <g id="figure_1">
  <g id="patch_1">
   <path d="M 0 345.6 
L 460.8 345.6 
L 460.8 0 
L 0 0 
z
" style="fill: #ffffff"/>
  </g>
  <g id="axes_1">
   <g id="patch_2">
    <path d="M 57.6 298.944 
L 360.8064 298.944 
L 360.8064 27.648 
L 57.6 27.648 
z
" style="fill: #ffffff"/>
   </g>
   <g id="line2d_1">
    <path d="M 14.2848 298.944 
L 14.2848 293.624471 
L 68.65718 293.624471 
L 68.65718 288.304941 
L 78.266603 288.304941 
L 78.266603 282.985412 
L 85.038813 282.985412 
L 85.038813 277.665882 
L 95.998523 277.665882 
L 95.998523 272.346353 
L 100.535156 272.346353 
L 100.535156 267.026824 
L 109.159456 267.026824 
L 109.159456 261.707294 
L 135.568632 261.707294 
L 135.568632 256.387765 
L 140.312801 256.387765 
L 140.312801 251.068235 
L 163.786321 251.068235 
L 163.786321 245.748706 
L 163.85935 245.748706 
L 163.85935 240.429176 
L 178.244035 240.429176 
L 178.244035 235.109647 
L 178.546935 235.109647 
L 178.546935 229.790118 
L 178.661917 229.790118 
L 178.661917 224.470588 
L 178.71313 224.470588 
L 178.71313 219.151059 
L 179.01159 219.151059 
L 179.01159 213.831529 
L 179.111997 213.831529 
L 179.111997 208.512 
L 179.311218 208.512 
L 179.311218 203.192471 
L 179.447692 203.192471 
L 179.447692 197.872941 
L 179.568815 197.872941 
L 179.568815 192.553412 
L 179.786028 192.553412 
L 179.786028 187.233882 
L 179.871084 187.233882 
L 179.871084 181.914353 
L 179.913468 181.914353 
L 179.913468 176.594824 
L 180.13513 176.594824 
L 180.13513 171.275294 
L 180.257464 171.275294 
L 180.257464 165.955765 
L 180.285156 165.955765 
L 180.285156 160.636235 
L 180.499771 160.636235 
L 180.499771 155.316706 
L 180.527109 155.316706 
L 180.527109 149.997176 
L 180.546222 149.997176 
L 180.546222 144.677647 
L 180.59256 144.677647 
L 180.59256 139.358118 
L 180.630634 139.358118 
L 180.630634 134.038588 
L 180.884301 134.038588 
L 180.884301 128.719059 
L 180.916439 128.719059 
L 180.916439 123.399529 
L 181.073658 123.399529 
L 181.073658 118.08 
L 184.010964 118.08 
L 184.010964 112.760471 
L 184.031383 112.760471 
L 184.031383 107.440941 
L 184.245576 107.440941 
L 184.245576 102.121412 
L 184.30154 102.121412 
L 184.30154 96.801882 
L 184.326111 96.801882 
L 184.326111 91.482353 
L 184.426297 91.482353 
L 184.426297 86.162824 
L 188.050439 86.162824 
L 188.050439 80.843294 
L 188.065084 80.843294 
L 188.065084 75.523765 
L 188.097994 75.523765 
L 188.097994 70.204235 
L 188.118077 70.204235 
L 188.118077 64.884706 
L 188.147251 64.884706 
L 188.147251 59.565176 
L 188.194562 59.565176 
L 188.194562 54.245647 
L 188.207279 54.245647 
L 188.207279 48.926118 
L 193.154769 48.926118 
L 193.154769 43.606588 
L 193.202178 43.606588 
L 193.202178 38.287059 
L 193.235571 38.287059 
L 193.235571 32.967529 
L 193.485521 32.967529 
L 193.485521 27.648 
L 360.8064 27.648 
" style="fill: none; stroke: #f5deb3; stroke-width: 4; stroke-linecap: square"/>
   </g>
   <g id="line2d_2">
    <defs>
     <path id="md5f497b770" d="M -0 7.778175 
L 7.778175 0 
L 0 -7.778175 
L -7.778175 -0 
z
" style="stroke: #f5deb3; stroke-width: 1.5; stroke-linejoin: miter"/>
    </defs>
    <g>
     <use xlink:href="#md5f497b770" x="140.312801" y="251.068235" style="fill: #f5deb3; stroke: #f5deb3; stroke-width: 1.5; stroke-linejoin: miter"/>
     <use xlink:href="#md5f497b770" x="184.010964" y="112.760471" style="fill: #f5deb3; stroke: #f5deb3; stroke-width: 1.5; stroke-linejoin: miter"/>
     <use xlink:href="#md5f497b770" x="193.485521" y="32.967529" style="fill: #f5deb3; stroke: #f5deb3; stroke-width: 1.5; stroke-linejoin: miter"/>
     <use xlink:href="#md5f497b770" x="193.485521" y="27.648" style="fill: #f5deb3; stroke: #f5deb3; stroke-width: 1.5; stroke-linejoin: miter"/>
     <use xlink:href="#md5f497b770" x="193.485521" y="27.648" style="fill: #f5deb3; stroke: #f5deb3; stroke-width: 1.5; stroke-linejoin: miter"/>
     <use xlink:href="#md5f497b770" x="360.8064" y="27.648" style="fill: #f5deb3; stroke: #f5deb3; stroke-width: 1.5; stroke-linejoin: miter"/>
    </g>
   </g>
   <g id="line2d_3">
    <path style="fill: none; stroke: #f5deb3; stroke-width: 4; stroke-linecap: square"/>
    <g/>
   </g>
   <g id="line2d_4">
    <path d="M 360.8064 27.648 
L 380.514816 33.07392 
" style="fill: none; stroke: #f5deb3; stroke-width: 4; stroke-linecap: square"/>
    <g>
     <use xlink:href="#md5f497b770" x="360.8064" y="27.648" style="fill: #f5deb3; stroke: #f5deb3; stroke-width: 1.5; stroke-linejoin: miter"/>
     <use xlink:href="#md5f497b770" x="380.514816" y="33.07392" style="fill: #f5deb3; stroke: #f5deb3; stroke-width: 1.5; stroke-linejoin: miter"/>
    </g>
   </g>
   <g id="matplotlib.axis_1">
    <g id="xtick_1">
     <g id="line2d_5">
      <path d="M 57.6 298.944 
L 57.6 27.648 
" clip-path="url(#p798fde01ff)" style="fill: none; stroke: #b0b0b0; stroke-width: 0.8; stroke-linecap: square"/>
     </g>
     <g id="line2d_6">
      <defs>
       <path id="mf09e18e885" d="M 0 0 
L 0 3.5 
" style="stroke: #000000; stroke-width: 0.8"/>
      </defs>
      <g>
       <use xlink:href="#mf09e18e885" x="57.6" y="298.944" style="stroke: #000000; stroke-width: 0.8"/>
      </g>
     </g>
     <g id="text_1">
      <!-- 0 -->
      <g transform="translate(52.191875 318.861344)scale(0.17 -0.17)">
       <defs>
        <path id="DejaVuSans-30" d="M 2034 4250 
Q 1547 4250 1301 3770 
Q 1056 3291 1056 2328 
Q 1056 1369 1301 889 
Q 1547 409 2034 409 
Q 2525 409 2770 889 
Q 3016 1369 3016 2328 
Q 3016 3291 2770 3770 
Q 2525 4250 2034 4250 
z
M 2034 4750 
Q 2819 4750 3233 4129 
Q 3647 3509 3647 2328 
Q 3647 1150 3233 529 
Q 2819 -91 2034 -91 
Q 1250 -91 836 529 
Q 422 1150 422 2328 
Q 422 3509 836 4129 
Q 1250 4750 2034 4750 
z
" transform="scale(0.015625)"/>
       </defs>
       <use xlink:href="#DejaVuSans-30"/>
      </g>
     </g>
    </g>
    <g id="xtick_2">
     <g id="line2d_7">
      <path d="M 144.2304 298.944 
L 144.2304 27.648 
" clip-path="url(#p798fde01ff)" style="fill: none; stroke: #b0b0b0; stroke-width: 0.8; stroke-linecap: square"/>
     </g>
     <g id="line2d_8">
      <g>
       <use xlink:href="#mf09e18e885" x="144.2304" y="298.944" style="stroke: #000000; stroke-width: 0.8"/>
      </g>
     </g>
     <g id="text_2">
      <!-- 2 -->
      <g transform="translate(138.822275 318.861344)scale(0.17 -0.17)">
       <defs>
        <path id="DejaVuSans-32" d="M 1228 531 
L 3431 531 
L 3431 0 
L 469 0 
L 469 531 
Q 828 903 1448 1529 
Q 2069 2156 2228 2338 
Q 2531 2678 2651 2914 
Q 2772 3150 2772 3378 
Q 2772 3750 2511 3984 
Q 2250 4219 1831 4219 
Q 1534 4219 1204 4116 
Q 875 4013 500 3803 
L 500 4441 
Q 881 4594 1212 4672 
Q 1544 4750 1819 4750 
Q 2544 4750 2975 4387 
Q 3406 4025 3406 3419 
Q 3406 3131 3298 2873 
Q 3191 2616 2906 2266 
Q 2828 2175 2409 1742 
Q 1991 1309 1228 531 
z
" transform="scale(0.015625)"/>
       </defs>
       <use xlink:href="#DejaVuSans-32"/>
      </g>
     </g>
    </g>
    <g id="xtick_3">
     <g id="line2d_9">
      <path d="M 230.8608 298.944 
L 230.8608 27.648 
" clip-path="url(#p798fde01ff)" style="fill: none; stroke: #b0b0b0; stroke-width: 0.8; stroke-linecap: square"/>
     </g>
     <g id="line2d_10">
      <g>
       <use xlink:href="#mf09e18e885" x="230.8608" y="298.944" style="stroke: #000000; stroke-width: 0.8"/>
      </g>
     </g>
     <g id="text_3">
      <!-- 4 -->
      <g transform="translate(225.452675 318.861344)scale(0.17 -0.17)">
       <defs>
        <path id="DejaVuSans-34" d="M 2419 4116 
L 825 1625 
L 2419 1625 
L 2419 4116 
z
M 2253 4666 
L 3047 4666 
L 3047 1625 
L 3713 1625 
L 3713 1100 
L 3047 1100 
L 3047 0 
L 2419 0 
L 2419 1100 
L 313 1100 
L 313 1709 
L 2253 4666 
z
" transform="scale(0.015625)"/>
       </defs>
       <use xlink:href="#DejaVuSans-34"/>
      </g>
     </g>
    </g>
    <g id="xtick_4">
     <g id="line2d_11">
      <path d="M 317.4912 298.944 
L 317.4912 27.648 
" clip-path="url(#p798fde01ff)" style="fill: none; stroke: #b0b0b0; stroke-width: 0.8; stroke-linecap: square"/>
     </g>
     <g id="line2d_12">
      <g>
       <use xlink:href="#mf09e18e885" x="317.4912" y="298.944" style="stroke: #000000; stroke-width: 0.8"/>
      </g>
     </g>
     <g id="text_4">
      <!-- 6 -->
      <g transform="translate(312.083075 318.861344)scale(0.17 -0.17)">
       <defs>
        <path id="DejaVuSans-36" d="M 2113 2584 
Q 1688 2584 1439 2293 
Q 1191 2003 1191 1497 
Q 1191 994 1439 701 
Q 1688 409 2113 409 
Q 2538 409 2786 701 
Q 3034 994 3034 1497 
Q 3034 2003 2786 2293 
Q 2538 2584 2113 2584 
z
M 3366 4563 
L 3366 3988 
Q 3128 4100 2886 4159 
Q 2644 4219 2406 4219 
Q 1781 4219 1451 3797 
Q 1122 3375 1075 2522 
Q 1259 2794 1537 2939 
Q 1816 3084 2150 3084 
Q 2853 3084 3261 2657 
Q 3669 2231 3669 1497 
Q 3669 778 3244 343 
Q 2819 -91 2113 -91 
Q 1303 -91 875 529 
Q 447 1150 447 2328 
Q 447 3434 972 4092 
Q 1497 4750 2381 4750 
Q 2619 4750 2861 4703 
Q 3103 4656 3366 4563 
z
" transform="scale(0.015625)"/>
       </defs>
       <use xlink:href="#DejaVuSans-36"/>
      </g>
     </g>
    </g>
    <g id="xtick_5">
     <g id="line2d_13">
      <path d="M 100.9152 298.944 
L 100.9152 27.648 
" clip-path="url(#p798fde01ff)" style="fill: none; stroke: #b0b0b0; stroke-width: 0.8; stroke-linecap: square"/>
     </g>
     <g id="line2d_14">
      <defs>
       <path id="m1831851405" d="M 0 0 
L 0 2 
" style="stroke: #000000; stroke-width: 0.6"/>
      </defs>
      <g>
       <use xlink:href="#m1831851405" x="100.9152" y="298.944" style="stroke: #000000; stroke-width: 0.6"/>
      </g>
     </g>
    </g>
    <g id="xtick_6">
     <g id="line2d_15">
      <path d="M 187.5456 298.944 
L 187.5456 27.648 
" clip-path="url(#p798fde01ff)" style="fill: none; stroke: #b0b0b0; stroke-width: 0.8; stroke-linecap: square"/>
     </g>
     <g id="line2d_16">
      <g>
       <use xlink:href="#m1831851405" x="187.5456" y="298.944" style="stroke: #000000; stroke-width: 0.6"/>
      </g>
     </g>
    </g>
    <g id="xtick_7">
     <g id="line2d_17">
      <path d="M 274.176 298.944 
L 274.176 27.648 
" clip-path="url(#p798fde01ff)" style="fill: none; stroke: #b0b0b0; stroke-width: 0.8; stroke-linecap: square"/>
     </g>
     <g id="line2d_18">
      <g>
       <use xlink:href="#m1831851405" x="274.176" y="298.944" style="stroke: #000000; stroke-width: 0.6"/>
      </g>
     </g>
    </g>
    <g id="xtick_8">
     <g id="line2d_19">
      <path d="M 360.8064 298.944 
L 360.8064 27.648 
" clip-path="url(#p798fde01ff)" style="fill: none; stroke: #b0b0b0; stroke-width: 0.8; stroke-linecap: square"/>
     </g>
     <g id="line2d_20">
      <g>
       <use xlink:href="#m1831851405" x="360.8064" y="298.944" style="stroke: #000000; stroke-width: 0.6"/>
      </g>
     </g>
    </g>
    <g id="text_5">
     <!-- log10(# f-evals / dimension) -->
     <g transform="translate(88.823278 339.314156)scale(0.17 -0.17)">
      <defs>
       <path id="DejaVuSans-6c" d="M 603 4863 
L 1178 4863 
L 1178 0 
L 603 0 
L 603 4863 
z
" transform="scale(0.015625)"/>
       <path id="DejaVuSans-6f" d="M 1959 3097 
Q 1497 3097 1228 2736 
Q 959 2375 959 1747 
Q 959 1119 1226 758 
Q 1494 397 1959 397 
Q 2419 397 2687 759 
Q 2956 1122 2956 1747 
Q 2956 2369 2687 2733 
Q 2419 3097 1959 3097 
z
M 1959 3584 
Q 2709 3584 3137 3096 
Q 3566 2609 3566 1747 
Q 3566 888 3137 398 
Q 2709 -91 1959 -91 
Q 1206 -91 779 398 
Q 353 888 353 1747 
Q 353 2609 779 3096 
Q 1206 3584 1959 3584 
z
" transform="scale(0.015625)"/>
       <path id="DejaVuSans-67" d="M 2906 1791 
Q 2906 2416 2648 2759 
Q 2391 3103 1925 3103 
Q 1463 3103 1205 2759 
Q 947 2416 947 1791 
Q 947 1169 1205 825 
Q 1463 481 1925 481 
Q 2391 481 2648 825 
Q 2906 1169 2906 1791 
z
M 3481 434 
Q 3481 -459 3084 -895 
Q 2688 -1331 1869 -1331 
Q 1566 -1331 1297 -1286 
Q 1028 -1241 775 -1147 
L 775 -588 
Q 1028 -725 1275 -790 
Q 1522 -856 1778 -856 
Q 2344 -856 2625 -561 
Q 2906 -266 2906 331 
L 2906 616 
Q 2728 306 2450 153 
Q 2172 0 1784 0 
Q 1141 0 747 490 
Q 353 981 353 1791 
Q 353 2603 747 3093 
Q 1141 3584 1784 3584 
Q 2172 3584 2450 3431 
Q 2728 3278 2906 2969 
L 2906 3500 
L 3481 3500 
L 3481 434 
z
" transform="scale(0.015625)"/>
       <path id="DejaVuSans-31" d="M 794 531 
L 1825 531 
L 1825 4091 
L 703 3866 
L 703 4441 
L 1819 4666 
L 2450 4666 
L 2450 531 
L 3481 531 
L 3481 0 
L 794 0 
L 794 531 
z
" transform="scale(0.015625)"/>
       <path id="DejaVuSans-28" d="M 1984 4856 
Q 1566 4138 1362 3434 
Q 1159 2731 1159 2009 
Q 1159 1288 1364 580 
Q 1569 -128 1984 -844 
L 1484 -844 
Q 1016 -109 783 600 
Q 550 1309 550 2009 
Q 550 2706 781 3412 
Q 1013 4119 1484 4856 
L 1984 4856 
z
" transform="scale(0.015625)"/>
       <path id="DejaVuSans-23" d="M 3272 2816 
L 2363 2816 
L 2100 1772 
L 3016 1772 
L 3272 2816 
z
M 2803 4594 
L 2478 3297 
L 3391 3297 
L 3719 4594 
L 4219 4594 
L 3897 3297 
L 4872 3297 
L 4872 2816 
L 3775 2816 
L 3519 1772 
L 4513 1772 
L 4513 1294 
L 3397 1294 
L 3072 0 
L 2572 0 
L 2894 1294 
L 1978 1294 
L 1656 0 
L 1153 0 
L 1478 1294 
L 494 1294 
L 494 1772 
L 1594 1772 
L 1856 2816 
L 850 2816 
L 850 3297 
L 1978 3297 
L 2297 4594 
L 2803 4594 
z
" transform="scale(0.015625)"/>
       <path id="DejaVuSans-20" transform="scale(0.015625)"/>
       <path id="DejaVuSans-66" d="M 2375 4863 
L 2375 4384 
L 1825 4384 
Q 1516 4384 1395 4259 
Q 1275 4134 1275 3809 
L 1275 3500 
L 2222 3500 
L 2222 3053 
L 1275 3053 
L 1275 0 
L 697 0 
L 697 3053 
L 147 3053 
L 147 3500 
L 697 3500 
L 697 3744 
Q 697 4328 969 4595 
Q 1241 4863 1831 4863 
L 2375 4863 
z
" transform="scale(0.015625)"/>
       <path id="DejaVuSans-2d" d="M 313 2009 
L 1997 2009 
L 1997 1497 
L 313 1497 
L 313 2009 
z
" transform="scale(0.015625)"/>
       <path id="DejaVuSans-65" d="M 3597 1894 
L 3597 1613 
L 953 1613 
Q 991 1019 1311 708 
Q 1631 397 2203 397 
Q 2534 397 2845 478 
Q 3156 559 3463 722 
L 3463 178 
Q 3153 47 2828 -22 
Q 2503 -91 2169 -91 
Q 1331 -91 842 396 
Q 353 884 353 1716 
Q 353 2575 817 3079 
Q 1281 3584 2069 3584 
Q 2775 3584 3186 3129 
Q 3597 2675 3597 1894 
z
M 3022 2063 
Q 3016 2534 2758 2815 
Q 2500 3097 2075 3097 
Q 1594 3097 1305 2825 
Q 1016 2553 972 2059 
L 3022 2063 
z
" transform="scale(0.015625)"/>
       <path id="DejaVuSans-76" d="M 191 3500 
L 800 3500 
L 1894 563 
L 2988 3500 
L 3597 3500 
L 2284 0 
L 1503 0 
L 191 3500 
z
" transform="scale(0.015625)"/>
       <path id="DejaVuSans-61" d="M 2194 1759 
Q 1497 1759 1228 1600 
Q 959 1441 959 1056 
Q 959 750 1161 570 
Q 1363 391 1709 391 
Q 2188 391 2477 730 
Q 2766 1069 2766 1631 
L 2766 1759 
L 2194 1759 
z
M 3341 1997 
L 3341 0 
L 2766 0 
L 2766 531 
Q 2569 213 2275 61 
Q 1981 -91 1556 -91 
Q 1019 -91 701 211 
Q 384 513 384 1019 
Q 384 1609 779 1909 
Q 1175 2209 1959 2209 
L 2766 2209 
L 2766 2266 
Q 2766 2663 2505 2880 
Q 2244 3097 1772 3097 
Q 1472 3097 1187 3025 
Q 903 2953 641 2809 
L 641 3341 
Q 956 3463 1253 3523 
Q 1550 3584 1831 3584 
Q 2591 3584 2966 3190 
Q 3341 2797 3341 1997 
z
" transform="scale(0.015625)"/>
       <path id="DejaVuSans-73" d="M 2834 3397 
L 2834 2853 
Q 2591 2978 2328 3040 
Q 2066 3103 1784 3103 
Q 1356 3103 1142 2972 
Q 928 2841 928 2578 
Q 928 2378 1081 2264 
Q 1234 2150 1697 2047 
L 1894 2003 
Q 2506 1872 2764 1633 
Q 3022 1394 3022 966 
Q 3022 478 2636 193 
Q 2250 -91 1575 -91 
Q 1294 -91 989 -36 
Q 684 19 347 128 
L 347 722 
Q 666 556 975 473 
Q 1284 391 1588 391 
Q 1994 391 2212 530 
Q 2431 669 2431 922 
Q 2431 1156 2273 1281 
Q 2116 1406 1581 1522 
L 1381 1569 
Q 847 1681 609 1914 
Q 372 2147 372 2553 
Q 372 3047 722 3315 
Q 1072 3584 1716 3584 
Q 2034 3584 2315 3537 
Q 2597 3491 2834 3397 
z
" transform="scale(0.015625)"/>
       <path id="DejaVuSans-2f" d="M 1625 4666 
L 2156 4666 
L 531 -594 
L 0 -594 
L 1625 4666 
z
" transform="scale(0.015625)"/>
       <path id="DejaVuSans-64" d="M 2906 2969 
L 2906 4863 
L 3481 4863 
L 3481 0 
L 2906 0 
L 2906 525 
Q 2725 213 2448 61 
Q 2172 -91 1784 -91 
Q 1150 -91 751 415 
Q 353 922 353 1747 
Q 353 2572 751 3078 
Q 1150 3584 1784 3584 
Q 2172 3584 2448 3432 
Q 2725 3281 2906 2969 
z
M 947 1747 
Q 947 1113 1208 752 
Q 1469 391 1925 391 
Q 2381 391 2643 752 
Q 2906 1113 2906 1747 
Q 2906 2381 2643 2742 
Q 2381 3103 1925 3103 
Q 1469 3103 1208 2742 
Q 947 2381 947 1747 
z
" transform="scale(0.015625)"/>
       <path id="DejaVuSans-69" d="M 603 3500 
L 1178 3500 
L 1178 0 
L 603 0 
L 603 3500 
z
M 603 4863 
L 1178 4863 
L 1178 4134 
L 603 4134 
L 603 4863 
z
" transform="scale(0.015625)"/>
       <path id="DejaVuSans-6d" d="M 3328 2828 
Q 3544 3216 3844 3400 
Q 4144 3584 4550 3584 
Q 5097 3584 5394 3201 
Q 5691 2819 5691 2113 
L 5691 0 
L 5113 0 
L 5113 2094 
Q 5113 2597 4934 2840 
Q 4756 3084 4391 3084 
Q 3944 3084 3684 2787 
Q 3425 2491 3425 1978 
L 3425 0 
L 2847 0 
L 2847 2094 
Q 2847 2600 2669 2842 
Q 2491 3084 2119 3084 
Q 1678 3084 1418 2786 
Q 1159 2488 1159 1978 
L 1159 0 
L 581 0 
L 581 3500 
L 1159 3500 
L 1159 2956 
Q 1356 3278 1631 3431 
Q 1906 3584 2284 3584 
Q 2666 3584 2933 3390 
Q 3200 3197 3328 2828 
z
" transform="scale(0.015625)"/>
       <path id="DejaVuSans-6e" d="M 3513 2113 
L 3513 0 
L 2938 0 
L 2938 2094 
Q 2938 2591 2744 2837 
Q 2550 3084 2163 3084 
Q 1697 3084 1428 2787 
Q 1159 2491 1159 1978 
L 1159 0 
L 581 0 
L 581 3500 
L 1159 3500 
L 1159 2956 
Q 1366 3272 1645 3428 
Q 1925 3584 2291 3584 
Q 2894 3584 3203 3211 
Q 3513 2838 3513 2113 
z
" transform="scale(0.015625)"/>
       <path id="DejaVuSans-29" d="M 513 4856 
L 1013 4856 
Q 1481 4119 1714 3412 
Q 1947 2706 1947 2009 
Q 1947 1309 1714 600 
Q 1481 -109 1013 -844 
L 513 -844 
Q 928 -128 1133 580 
Q 1338 1288 1338 2009 
Q 1338 2731 1133 3434 
Q 928 4138 513 4856 
z
" transform="scale(0.015625)"/>
      </defs>
      <use xlink:href="#DejaVuSans-6c"/>
      <use xlink:href="#DejaVuSans-6f" x="27.783203"/>
      <use xlink:href="#DejaVuSans-67" x="88.964844"/>
      <use xlink:href="#DejaVuSans-31" x="152.441406"/>
      <use xlink:href="#DejaVuSans-30" x="216.064453"/>
      <use xlink:href="#DejaVuSans-28" x="279.6875"/>
      <use xlink:href="#DejaVuSans-23" x="318.701172"/>
      <use xlink:href="#DejaVuSans-20" x="402.490234"/>
      <use xlink:href="#DejaVuSans-66" x="434.277344"/>
      <use xlink:href="#DejaVuSans-2d" x="463.982422"/>
      <use xlink:href="#DejaVuSans-65" x="500.066406"/>
      <use xlink:href="#DejaVuSans-76" x="561.589844"/>
      <use xlink:href="#DejaVuSans-61" x="620.769531"/>
      <use xlink:href="#DejaVuSans-6c" x="682.048828"/>
      <use xlink:href="#DejaVuSans-73" x="709.832031"/>
      <use xlink:href="#DejaVuSans-20" x="761.931641"/>
      <use xlink:href="#DejaVuSans-2f" x="793.71875"/>
      <use xlink:href="#DejaVuSans-20" x="827.410156"/>
      <use xlink:href="#DejaVuSans-64" x="859.197266"/>
      <use xlink:href="#DejaVuSans-69" x="922.673828"/>
      <use xlink:href="#DejaVuSans-6d" x="950.457031"/>
      <use xlink:href="#DejaVuSans-65" x="1047.869141"/>
      <use xlink:href="#DejaVuSans-6e" x="1109.392578"/>
      <use xlink:href="#DejaVuSans-73" x="1172.771484"/>
      <use xlink:href="#DejaVuSans-69" x="1224.871094"/>
      <use xlink:href="#DejaVuSans-6f" x="1252.654297"/>
      <use xlink:href="#DejaVuSans-6e" x="1313.835938"/>
      <use xlink:href="#DejaVuSans-29" x="1377.214844"/>
     </g>
    </g>
   </g>
   <g id="matplotlib.axis_2">
    <g id="ytick_1">
     <g id="line2d_21">
      <path d="M 57.6 298.944 
L 360.8064 298.944 
" clip-path="url(#p798fde01ff)" style="fill: none; stroke: #b0b0b0; stroke-width: 0.8; stroke-linecap: square"/>
     </g>
     <g id="line2d_22">
      <defs>
       <path id="mb2bb01b4f0" d="M 0 0 
L -3.5 0 
" style="stroke: #000000; stroke-width: 0.8"/>
      </defs>
      <g>
       <use xlink:href="#mb2bb01b4f0" x="57.6" y="298.944" style="stroke: #000000; stroke-width: 0.8"/>
      </g>
     </g>
     <g id="text_6">
      <!-- 0.0 -->
      <g transform="translate(25.155 305.02275)scale(0.16 -0.16)">
       <defs>
        <path id="DejaVuSans-2e" d="M 684 794 
L 1344 794 
L 1344 0 
L 684 0 
L 684 794 
z
" transform="scale(0.015625)"/>
       </defs>
       <use xlink:href="#DejaVuSans-30"/>
       <use xlink:href="#DejaVuSans-2e" x="63.623047"/>
       <use xlink:href="#DejaVuSans-30" x="95.410156"/>
      </g>
     </g>
    </g>
    <g id="ytick_2">
     <g id="line2d_23">
      <path d="M 57.6 244.6848 
L 360.8064 244.6848 
" clip-path="url(#p798fde01ff)" style="fill: none; stroke: #b0b0b0; stroke-width: 0.8; stroke-linecap: square"/>
     </g>
     <g id="line2d_24">
      <g>
       <use xlink:href="#mb2bb01b4f0" x="57.6" y="244.6848" style="stroke: #000000; stroke-width: 0.8"/>
      </g>
     </g>
     <g id="text_7">
      <!-- 0.2 -->
      <g transform="translate(25.155 250.76355)scale(0.16 -0.16)">
       <use xlink:href="#DejaVuSans-30"/>
       <use xlink:href="#DejaVuSans-2e" x="63.623047"/>
       <use xlink:href="#DejaVuSans-32" x="95.410156"/>
      </g>
     </g>
    </g>
    <g id="ytick_3">
     <g id="line2d_25">
      <path d="M 57.6 190.4256 
L 360.8064 190.4256 
" clip-path="url(#p798fde01ff)" style="fill: none; stroke: #b0b0b0; stroke-width: 0.8; stroke-linecap: square"/>
     </g>
     <g id="line2d_26">
      <g>
       <use xlink:href="#mb2bb01b4f0" x="57.6" y="190.4256" style="stroke: #000000; stroke-width: 0.8"/>
      </g>
     </g>
     <g id="text_8">
      <!-- 0.4 -->
      <g transform="translate(25.155 196.50435)scale(0.16 -0.16)">
       <use xlink:href="#DejaVuSans-30"/>
       <use xlink:href="#DejaVuSans-2e" x="63.623047"/>
       <use xlink:href="#DejaVuSans-34" x="95.410156"/>
      </g>
     </g>
    </g>
    <g id="ytick_4">
     <g id="line2d_27">
      <path d="M 57.6 136.1664 
L 360.8064 136.1664 
" clip-path="url(#p798fde01ff)" style="fill: none; stroke: #b0b0b0; stroke-width: 0.8; stroke-linecap: square"/>
     </g>
     <g id="line2d_28">
      <g>
       <use xlink:href="#mb2bb01b4f0" x="57.6" y="136.1664" style="stroke: #000000; stroke-width: 0.8"/>
      </g>
     </g>
     <g id="text_9">
      <!-- 0.6 -->
      <g transform="translate(25.155 142.24515)scale(0.16 -0.16)">
       <use xlink:href="#DejaVuSans-30"/>
       <use xlink:href="#DejaVuSans-2e" x="63.623047"/>
       <use xlink:href="#DejaVuSans-36" x="95.410156"/>
      </g>
     </g>
    </g>
    <g id="ytick_5">
     <g id="line2d_29">
      <path d="M 57.6 81.9072 
L 360.8064 81.9072 
" clip-path="url(#p798fde01ff)" style="fill: none; stroke: #b0b0b0; stroke-width: 0.8; stroke-linecap: square"/>
     </g>
     <g id="line2d_30">
      <g>
       <use xlink:href="#mb2bb01b4f0" x="57.6" y="81.9072" style="stroke: #000000; stroke-width: 0.8"/>
      </g>
     </g>
     <g id="text_10">
      <!-- 0.8 -->
      <g transform="translate(25.155 87.98595)scale(0.16 -0.16)">
       <defs>
        <path id="DejaVuSans-38" d="M 2034 2216 
Q 1584 2216 1326 1975 
Q 1069 1734 1069 1313 
Q 1069 891 1326 650 
Q 1584 409 2034 409 
Q 2484 409 2743 651 
Q 3003 894 3003 1313 
Q 3003 1734 2745 1975 
Q 2488 2216 2034 2216 
z
M 1403 2484 
Q 997 2584 770 2862 
Q 544 3141 544 3541 
Q 544 4100 942 4425 
Q 1341 4750 2034 4750 
Q 2731 4750 3128 4425 
Q 3525 4100 3525 3541 
Q 3525 3141 3298 2862 
Q 3072 2584 2669 2484 
Q 3125 2378 3379 2068 
Q 3634 1759 3634 1313 
Q 3634 634 3220 271 
Q 2806 -91 2034 -91 
Q 1263 -91 848 271 
Q 434 634 434 1313 
Q 434 1759 690 2068 
Q 947 2378 1403 2484 
z
M 1172 3481 
Q 1172 3119 1398 2916 
Q 1625 2713 2034 2713 
Q 2441 2713 2670 2916 
Q 2900 3119 2900 3481 
Q 2900 3844 2670 4047 
Q 2441 4250 2034 4250 
Q 1625 4250 1398 4047 
Q 1172 3844 1172 3481 
z
" transform="scale(0.015625)"/>
       </defs>
       <use xlink:href="#DejaVuSans-30"/>
       <use xlink:href="#DejaVuSans-2e" x="63.623047"/>
       <use xlink:href="#DejaVuSans-38" x="95.410156"/>
      </g>
     </g>
    </g>
    <g id="ytick_6">
     <g id="line2d_31">
      <path d="M 57.6 27.648 
L 360.8064 27.648 
" clip-path="url(#p798fde01ff)" style="fill: none; stroke: #b0b0b0; stroke-width: 0.8; stroke-linecap: square"/>
     </g>
     <g id="line2d_32">
      <g>
       <use xlink:href="#mb2bb01b4f0" x="57.6" y="27.648" style="stroke: #000000; stroke-width: 0.8"/>
      </g>
     </g>
     <g id="text_11">
      <!-- 1.0 -->
      <g transform="translate(25.155 33.72675)scale(0.16 -0.16)">
       <use xlink:href="#DejaVuSans-31"/>
       <use xlink:href="#DejaVuSans-2e" x="63.623047"/>
       <use xlink:href="#DejaVuSans-30" x="95.410156"/>
      </g>
     </g>
    </g>
    <g id="text_12">
     <!-- Fraction of function,target pairs -->
     <g transform="translate(17.619531 297.681)rotate(-90)scale(0.17 -0.17)">
      <defs>
       <path id="DejaVuSans-46" d="M 628 4666 
L 3309 4666 
L 3309 4134 
L 1259 4134 
L 1259 2759 
L 3109 2759 
L 3109 2228 
L 1259 2228 
L 1259 0 
L 628 0 
L 628 4666 
z
" transform="scale(0.015625)"/>
       <path id="DejaVuSans-72" d="M 2631 2963 
Q 2534 3019 2420 3045 
Q 2306 3072 2169 3072 
Q 1681 3072 1420 2755 
Q 1159 2438 1159 1844 
L 1159 0 
L 581 0 
L 581 3500 
L 1159 3500 
L 1159 2956 
Q 1341 3275 1631 3429 
Q 1922 3584 2338 3584 
Q 2397 3584 2469 3576 
Q 2541 3569 2628 3553 
L 2631 2963 
z
" transform="scale(0.015625)"/>
       <path id="DejaVuSans-63" d="M 3122 3366 
L 3122 2828 
Q 2878 2963 2633 3030 
Q 2388 3097 2138 3097 
Q 1578 3097 1268 2742 
Q 959 2388 959 1747 
Q 959 1106 1268 751 
Q 1578 397 2138 397 
Q 2388 397 2633 464 
Q 2878 531 3122 666 
L 3122 134 
Q 2881 22 2623 -34 
Q 2366 -91 2075 -91 
Q 1284 -91 818 406 
Q 353 903 353 1747 
Q 353 2603 823 3093 
Q 1294 3584 2113 3584 
Q 2378 3584 2631 3529 
Q 2884 3475 3122 3366 
z
" transform="scale(0.015625)"/>
       <path id="DejaVuSans-74" d="M 1172 4494 
L 1172 3500 
L 2356 3500 
L 2356 3053 
L 1172 3053 
L 1172 1153 
Q 1172 725 1289 603 
Q 1406 481 1766 481 
L 2356 481 
L 2356 0 
L 1766 0 
Q 1100 0 847 248 
Q 594 497 594 1153 
L 594 3053 
L 172 3053 
L 172 3500 
L 594 3500 
L 594 4494 
L 1172 4494 
z
" transform="scale(0.015625)"/>
       <path id="DejaVuSans-75" d="M 544 1381 
L 544 3500 
L 1119 3500 
L 1119 1403 
Q 1119 906 1312 657 
Q 1506 409 1894 409 
Q 2359 409 2629 706 
Q 2900 1003 2900 1516 
L 2900 3500 
L 3475 3500 
L 3475 0 
L 2900 0 
L 2900 538 
Q 2691 219 2414 64 
Q 2138 -91 1772 -91 
Q 1169 -91 856 284 
Q 544 659 544 1381 
z
M 1991 3584 
L 1991 3584 
z
" transform="scale(0.015625)"/>
       <path id="DejaVuSans-2c" d="M 750 794 
L 1409 794 
L 1409 256 
L 897 -744 
L 494 -744 
L 750 256 
L 750 794 
z
" transform="scale(0.015625)"/>
       <path id="DejaVuSans-70" d="M 1159 525 
L 1159 -1331 
L 581 -1331 
L 581 3500 
L 1159 3500 
L 1159 2969 
Q 1341 3281 1617 3432 
Q 1894 3584 2278 3584 
Q 2916 3584 3314 3078 
Q 3713 2572 3713 1747 
Q 3713 922 3314 415 
Q 2916 -91 2278 -91 
Q 1894 -91 1617 61 
Q 1341 213 1159 525 
z
M 3116 1747 
Q 3116 2381 2855 2742 
Q 2594 3103 2138 3103 
Q 1681 3103 1420 2742 
Q 1159 2381 1159 1747 
Q 1159 1113 1420 752 
Q 1681 391 2138 391 
Q 2594 391 2855 752 
Q 3116 1113 3116 1747 
z
" transform="scale(0.015625)"/>
      </defs>
      <use xlink:href="#DejaVuSans-46"/>
      <use xlink:href="#DejaVuSans-72" x="50.269531"/>
      <use xlink:href="#DejaVuSans-61" x="91.382812"/>
      <use xlink:href="#DejaVuSans-63" x="152.662109"/>
      <use xlink:href="#DejaVuSans-74" x="207.642578"/>
      <use xlink:href="#DejaVuSans-69" x="246.851562"/>
      <use xlink:href="#DejaVuSans-6f" x="274.634766"/>
      <use xlink:href="#DejaVuSans-6e" x="335.816406"/>
      <use xlink:href="#DejaVuSans-20" x="399.195312"/>
      <use xlink:href="#DejaVuSans-6f" x="430.982422"/>
      <use xlink:href="#DejaVuSans-66" x="492.164062"/>
      <use xlink:href="#DejaVuSans-20" x="527.369141"/>
      <use xlink:href="#DejaVuSans-66" x="559.15625"/>
      <use xlink:href="#DejaVuSans-75" x="594.361328"/>
      <use xlink:href="#DejaVuSans-6e" x="657.740234"/>
      <use xlink:href="#DejaVuSans-63" x="721.119141"/>
      <use xlink:href="#DejaVuSans-74" x="776.099609"/>
      <use xlink:href="#DejaVuSans-69" x="815.308594"/>
      <use xlink:href="#DejaVuSans-6f" x="843.091797"/>
      <use xlink:href="#DejaVuSans-6e" x="904.273438"/>
      <use xlink:href="#DejaVuSans-2c" x="967.652344"/>
      <use xlink:href="#DejaVuSans-74" x="999.439453"/>
      <use xlink:href="#DejaVuSans-61" x="1038.648438"/>
      <use xlink:href="#DejaVuSans-72" x="1099.927734"/>
      <use xlink:href="#DejaVuSans-67" x="1139.291016"/>
      <use xlink:href="#DejaVuSans-65" x="1202.767578"/>
      <use xlink:href="#DejaVuSans-74" x="1264.291016"/>
      <use xlink:href="#DejaVuSans-20" x="1303.5"/>
      <use xlink:href="#DejaVuSans-70" x="1335.287109"/>
      <use xlink:href="#DejaVuSans-61" x="1398.763672"/>
      <use xlink:href="#DejaVuSans-69" x="1460.042969"/>
      <use xlink:href="#DejaVuSans-72" x="1487.826172"/>
      <use xlink:href="#DejaVuSans-73" x="1528.939453"/>
     </g>
    </g>
   </g>
   <g id="line2d_33">
    <defs>
     <path id="mfa9b30a6dd" d="M 0 1.5 
C 0.397805 1.5 0.77937 1.341951 1.06066 1.06066 
C 1.341951 0.77937 1.5 0.397805 1.5 0 
C 1.5 -0.397805 1.341951 -0.77937 1.06066 -1.06066 
C 0.77937 -1.341951 0.397805 -1.5 0 -1.5 
C -0.397805 -1.5 -0.77937 -1.341951 -1.06066 -1.06066 
C -1.341951 -0.77937 -1.5 -0.397805 -1.5 0 
C -1.5 0.397805 -1.341951 0.77937 -1.06066 1.06066 
C -0.77937 1.341951 -0.397805 1.5 0 1.5 
z
" style="stroke: #f5deb3"/>
    </defs>
    <g>
     <use xlink:href="#mfa9b30a6dd" x="193.485521" y="27.648" style="fill: #f5deb3; stroke: #f5deb3"/>
     <use xlink:href="#mfa9b30a6dd" x="193.485521" y="27.648" style="fill: #f5deb3; stroke: #f5deb3"/>
    </g>
   </g>
   <g id="line2d_34">
    <defs>
     <path id="m01c72a8bbf" d="M 0 1.5 
C 0.397805 1.5 0.77937 1.341951 1.06066 1.06066 
C 1.341951 0.77937 1.5 0.397805 1.5 0 
C 1.5 -0.397805 1.341951 -0.77937 1.06066 -1.06066 
C 0.77937 -1.341951 0.397805 -1.5 0 -1.5 
C -0.397805 -1.5 -0.77937 -1.341951 -1.06066 -1.06066 
C -1.341951 -0.77937 -1.5 -0.397805 -1.5 0 
C -1.5 0.397805 -1.341951 0.77937 -1.06066 1.06066 
C -0.77937 1.341951 -0.397805 1.5 0 1.5 
z
" style="stroke: #000080"/>
    </defs>
    <g>
     <use xlink:href="#m01c72a8bbf" x="287.730944" y="240.429176" style="fill: #000080; stroke: #000080"/>
     <use xlink:href="#m01c72a8bbf" x="287.730944" y="240.429176" style="fill: #000080; stroke: #000080"/>
    </g>
   </g>
   <g id="line2d_35">
    <path d="M 14.2848 298.944 
L 14.2848 293.624471 
L 47.990577 293.624471 
L 47.990577 290.432753 
L 72.432107 290.432753 
L 72.432107 289.368847 
L 76.284608 289.368847 
L 76.284608 288.304941 
L 83.678349 288.304941 
L 83.678349 287.241035 
L 87.1081 287.241035 
L 87.1081 285.113224 
L 99.14107 285.113224 
L 99.14107 284.049318 
L 103.214303 284.049318 
L 103.214303 282.985412 
L 107.5116 282.985412 
L 107.5116 278.729788 
L 108.915146 278.729788 
L 108.915146 277.665882 
L 109.756698 277.665882 
L 109.756698 276.601976 
L 110.786158 276.601976 
L 110.786158 275.538071 
L 111.86758 275.538071 
L 111.86758 274.474165 
L 112.989468 274.474165 
L 112.989468 273.410259 
L 113.478107 273.410259 
L 113.478107 272.346353 
L 114.141556 272.346353 
L 114.141556 271.282447 
L 114.326893 271.282447 
L 114.326893 270.218541 
L 114.872193 270.218541 
L 114.872193 269.154635 
L 115.661605 269.154635 
L 115.661605 268.090729 
L 118.671535 268.090729 
L 118.671535 267.026824 
L 121.954321 267.026824 
L 121.954321 265.962918 
L 124.481616 265.962918 
L 124.481616 264.899012 
L 124.588805 264.899012 
L 124.588805 263.835106 
L 130.618241 263.835106 
L 130.618241 262.7712 
L 162.887118 262.7712 
L 162.887118 261.707294 
L 163.773012 261.707294 
L 163.773012 260.643388 
L 164.407868 260.643388 
L 164.407868 259.579482 
L 164.606324 259.579482 
L 164.606324 258.515576 
L 164.884457 258.515576 
L 164.884457 256.387765 
L 165.158538 256.387765 
L 165.158538 255.323859 
L 165.404283 255.323859 
L 165.404283 254.259953 
L 165.525963 254.259953 
L 165.525963 253.196047 
L 166.854526 253.196047 
L 166.854526 252.132141 
L 192.641019 252.132141 
L 192.641019 251.068235 
L 193.006193 251.068235 
L 193.006193 250.004329 
L 204.898723 250.004329 
L 204.898723 248.940424 
L 205.245489 248.940424 
L 205.245489 247.876518 
L 205.667994 247.876518 
L 205.667994 246.812612 
L 215.248105 246.812612 
L 215.248105 245.748706 
L 215.27354 245.748706 
L 215.27354 244.6848 
L 215.589665 244.6848 
L 215.589665 243.620894 
L 216.004448 243.620894 
L 216.004448 242.556988 
L 275.093819 242.556988 
L 275.093819 242.202353 
L 275.111547 242.202353 
L 275.111547 241.493082 
L 287.442348 241.493082 
L 287.442348 241.138447 
L 287.444736 241.138447 
L 287.444736 240.783812 
L 287.730944 240.783812 
L 287.730944 240.429176 
L 360.8064 240.429176 
" style="fill: none; stroke: #000080; stroke-width: 1.5; stroke-linecap: square"/>
   </g>
   <g id="line2d_36">
    <defs>
     <path id="m3c7b37f687" d="M 0 6 
C 1.591219 6 3.117479 5.367802 4.242641 4.242641 
C 5.367802 3.117479 6 1.591219 6 0 
C 6 -1.591219 5.367802 -3.117479 4.242641 -4.242641 
C 3.117479 -5.367802 1.591219 -6 0 -6 
C -1.591219 -6 -3.117479 -5.367802 -4.242641 -4.242641 
C -5.367802 -3.117479 -6 -1.591219 -6 0 
C -6 1.591219 -5.367802 3.117479 -4.242641 4.242641 
C -3.117479 5.367802 -1.591219 6 0 6 
z
" style="stroke: #000080; stroke-width: 1.5"/>
    </defs>
    <g>
     <use xlink:href="#m3c7b37f687" x="109.756698" y="276.601976" style="fill-opacity: 0; stroke: #000080; stroke-width: 1.5"/>
     <use xlink:href="#m3c7b37f687" x="166.854526" y="253.196047" style="fill-opacity: 0; stroke: #000080; stroke-width: 1.5"/>
     <use xlink:href="#m3c7b37f687" x="216.004448" y="242.556988" style="fill-opacity: 0; stroke: #000080; stroke-width: 1.5"/>
     <use xlink:href="#m3c7b37f687" x="287.730944" y="240.429176" style="fill-opacity: 0; stroke: #000080; stroke-width: 1.5"/>
     <use xlink:href="#m3c7b37f687" x="287.730944" y="240.429176" style="fill-opacity: 0; stroke: #000080; stroke-width: 1.5"/>
     <use xlink:href="#m3c7b37f687" x="360.8064" y="240.429176" style="fill-opacity: 0; stroke: #000080; stroke-width: 1.5"/>
    </g>
   </g>
   <g id="line2d_37">
    <path style="fill: none; stroke: #000080; stroke-width: 1.5; stroke-linecap: square"/>
    <g/>
   </g>
   <g id="line2d_38">
    <path d="M 274.280939 242.556988 
" clip-path="url(#p798fde01ff)" style="fill: none; stroke: #000080; stroke-width: 1.5; stroke-linecap: square"/>
    <defs>
     <path id="m1c121eb069" d="M -12 12 
L 12 -12 
M -12 -12 
L 12 12 
" style="stroke: #000080"/>
    </defs>
    <g clip-path="url(#p798fde01ff)">
     <use xlink:href="#m1c121eb069" x="274.280939" y="242.556988" style="fill: #000080; stroke: #000080"/>
    </g>
   </g>
   <g id="line2d_39">
    <defs>
     <path id="mc9762b24c6" d="M 0 1.5 
C 0.397805 1.5 0.77937 1.341951 1.06066 1.06066 
C 1.341951 0.77937 1.5 0.397805 1.5 0 
C 1.5 -0.397805 1.341951 -0.77937 1.06066 -1.06066 
C 0.77937 -1.341951 0.397805 -1.5 0 -1.5 
C -0.397805 -1.5 -0.77937 -1.341951 -1.06066 -1.06066 
C -1.341951 -0.77937 -1.5 -0.397805 -1.5 0 
C -1.5 0.397805 -1.341951 0.77937 -1.06066 1.06066 
C -0.77937 1.341951 -0.397805 1.5 0 1.5 
z
" style="stroke: #ff00ff"/>
    </defs>
    <g>
     <use xlink:href="#mc9762b24c6" x="336.028777" y="27.648" style="fill: #ff00ff; stroke: #ff00ff"/>
     <use xlink:href="#mc9762b24c6" x="336.028777" y="27.648" style="fill: #ff00ff; stroke: #ff00ff"/>
    </g>
   </g>
   <g id="line2d_40">
    <path d="M 14.2848 298.944 
L 14.2848 293.624471 
L 53.402323 293.624471 
L 53.402323 292.560565 
L 67.581941 292.560565 
L 67.581941 291.496659 
L 76.96874 291.496659 
L 76.96874 290.432753 
L 82.713442 290.432753 
L 82.713442 289.368847 
L 85.471281 289.368847 
L 85.471281 287.241035 
L 101.102381 287.241035 
L 101.102381 285.113224 
L 101.833019 285.113224 
L 101.833019 282.985412 
L 103.047088 282.985412 
L 103.047088 281.921506 
L 104.344952 281.921506 
L 104.344952 279.793694 
L 104.655893 279.793694 
L 104.655893 278.729788 
L 106.42077 278.729788 
L 106.42077 277.665882 
L 107.5116 277.665882 
L 107.5116 276.601976 
L 108.29012 276.601976 
L 108.29012 275.538071 
L 110.449226 275.538071 
L 110.449226 273.410259 
L 111.117162 273.410259 
L 111.117162 272.346353 
L 112.385837 272.346353 
L 112.385837 269.154635 
L 114.141556 269.154635 
L 114.141556 267.026824 
L 114.961559 267.026824 
L 115.050503 263.835106 
L 115.227139 263.835106 
L 115.227139 261.707294 
L 119.034004 261.707294 
L 119.034004 260.643388 
L 122.795872 260.643388 
L 122.795872 259.579482 
L 124.373813 259.579482 
L 124.373813 258.515576 
L 125.219419 258.515576 
L 125.219419 257.451671 
L 126.517282 257.451671 
L 126.517282 256.387765 
L 127.134109 256.387765 
L 127.134109 255.323859 
L 164.233297 255.323859 
L 164.233297 254.259953 
L 164.934588 254.259953 
L 164.934588 253.196047 
L 189.275151 253.196047 
L 189.275151 251.068235 
L 243.274068 251.068235 
L 243.274068 250.004329 
L 243.507929 250.004329 
L 243.507929 248.940424 
L 269.900731 248.940424 
L 269.942618 204.256376 
L 274.648048 204.256376 
L 274.648048 203.547106 
L 275.333875 203.547106 
L 275.336245 202.4832 
L 275.523055 202.4832 
L 275.523055 201.773929 
L 277.931582 201.773929 
L 277.931582 201.064659 
L 278.474626 201.064659 
L 278.474626 200.710024 
L 285.428585 200.710024 
L 285.477103 181.914353 
L 285.753833 181.914353 
L 285.864626 165.955765 
L 285.86594 165.955765 
L 285.867738 162.409412 
L 288.031334 162.409412 
L 288.031334 161.700141 
L 288.465994 161.700141 
L 288.465994 161.345506 
L 289.714945 161.345506 
L 289.714945 160.636235 
L 293.821845 160.636235 
L 293.868763 153.898165 
L 294.025854 153.898165 
L 294.118748 140.776659 
L 294.230538 140.776659 
L 294.302028 137.939576 
L 294.357111 137.939576 
L 294.365686 135.811765 
L 299.597812 135.811765 
L 299.649124 134.747859 
L 299.751911 134.747859 
L 299.835567 126.591247 
L 299.904087 126.591247 
L 299.969379 121.980988 
L 300.017446 121.980988 
L 300.104493 120.207812 
L 300.147318 120.207812 
L 300.199226 118.08 
L 304.0292 118.08 
L 304.13755 115.597553 
L 304.149115 115.597553 
L 304.257669 108.504847 
L 304.266091 108.504847 
L 304.356677 102.476047 
L 304.378702 102.476047 
L 304.489209 99.284329 
L 304.495659 99.284329 
L 304.570567 97.865788 
L 304.607939 97.865788 
L 304.607939 97.511153 
L 305.47192 97.511153 
L 305.47192 97.156518 
L 307.608272 97.156518 
L 307.608272 96.801882 
L 307.730461 96.801882 
L 307.84105 92.546259 
L 307.85146 92.546259 
L 307.950099 88.290635 
L 307.977809 88.290635 
L 308.018665 86.872094 
L 308.175883 86.872094 
L 308.175883 86.517459 
L 310.786575 86.517459 
L 310.887972 84.035012 
L 310.898223 84.035012 
L 310.991893 79.779388 
L 311.017855 79.779388 
L 311.101717 77.651576 
L 311.147039 77.651576 
L 311.148467 76.942306 
L 313.266834 76.942306 
L 313.371123 74.459859 
L 313.400538 74.459859 
L 313.505444 70.204235 
L 313.535304 70.204235 
L 313.623139 68.076424 
L 313.647364 68.076424 
L 313.651858 67.367153 
L 315.551031 67.367153 
L 315.658095 65.239341 
L 315.677381 65.239341 
L 315.788008 61.692988 
L 315.802657 61.692988 
L 315.9117 59.565176 
L 315.969884 59.565176 
L 315.969884 59.210541 
L 317.635871 59.210541 
L 317.688812 58.146635 
L 317.766481 58.146635 
L 317.876426 54.245647 
L 317.879174 54.245647 
L 317.977255 52.827106 
L 319.463454 52.827106 
L 319.554629 51.7632 
L 319.587876 51.7632 
L 319.688478 49.635388 
L 319.710391 49.635388 
L 319.761928 48.216847 
L 319.836352 48.216847 
L 319.836352 47.862212 
L 321.232041 47.862212 
L 321.329152 45.379765 
L 321.40303 45.379765 
L 321.455382 43.961224 
L 322.677281 43.961224 
L 322.766461 42.897318 
L 322.812288 42.897318 
L 322.885364 40.414871 
L 323.002171 40.414871 
L 323.002171 40.060235 
L 324.039753 40.060235 
L 324.039753 39.7056 
L 324.175211 39.7056 
L 324.245861 38.996329 
L 324.309409 38.996329 
L 324.379875 36.868518 
L 324.425357 36.868518 
L 324.425357 36.513882 
L 325.488489 36.513882 
L 325.574053 35.449976 
L 325.606257 35.449976 
L 325.642994 34.386071 
L 326.685667 34.386071 
L 326.755279 33.6768 
L 327.898289 33.6768 
L 327.933416 32.967529 
L 328.01 32.967529 
L 328.042353 32.258259 
L 329.14543 32.258259 
L 329.151103 31.548988 
L 330.071939 31.548988 
L 330.071939 31.194353 
L 330.976374 31.194353 
L 331.048975 30.130447 
L 331.94847 30.130447 
L 331.977878 29.421176 
L 332.903168 29.421176 
L 332.903168 29.066541 
L 335.239707 29.066541 
L 335.315188 28.002635 
L 336.028777 28.002635 
L 336.028777 27.648 
L 360.8064 27.648 
L 360.8064 27.648 
" style="fill: none; stroke: #ff00ff; stroke-width: 1.5; stroke-linecap: square"/>
   </g>
   <g id="line2d_41">
    <defs>
     <path id="mdcbb974f9c" d="M -0 8.485281 
L 5.091169 0 
L 0 -8.485281 
L -5.091169 -0 
z
" style="stroke: #ff00ff; stroke-width: 1.5; stroke-linejoin: miter"/>
    </defs>
    <g>
     <use xlink:href="#mdcbb974f9c" x="85.471281" y="289.368847" style="fill-opacity: 0; stroke: #ff00ff; stroke-width: 1.5; stroke-linejoin: miter"/>
     <use xlink:href="#mdcbb974f9c" x="189.275151" y="253.196047" style="fill-opacity: 0; stroke: #ff00ff; stroke-width: 1.5; stroke-linejoin: miter"/>
     <use xlink:href="#mdcbb974f9c" x="274.648048" y="203.547106" style="fill-opacity: 0; stroke: #ff00ff; stroke-width: 1.5; stroke-linejoin: miter"/>
     <use xlink:href="#mdcbb974f9c" x="310.916733" y="82.971106" style="fill-opacity: 0; stroke: #ff00ff; stroke-width: 1.5; stroke-linejoin: miter"/>
     <use xlink:href="#mdcbb974f9c" x="336.028777" y="27.648" style="fill-opacity: 0; stroke: #ff00ff; stroke-width: 1.5; stroke-linejoin: miter"/>
     <use xlink:href="#mdcbb974f9c" x="360.8064" y="27.648" style="fill-opacity: 0; stroke: #ff00ff; stroke-width: 1.5; stroke-linejoin: miter"/>
    </g>
   </g>
   <g id="line2d_42">
    <path style="fill: none; stroke: #ff00ff; stroke-width: 1.5; stroke-linecap: square"/>
    <g/>
   </g>
   <g id="line2d_43">
    <path d="M 275.156259 203.547106 
" clip-path="url(#p798fde01ff)" style="fill: none; stroke: #ff00ff; stroke-width: 1.5; stroke-linecap: square"/>
    <defs>
     <path id="m98d454a330" d="M -12 12 
L 12 -12 
M -12 -12 
L 12 12 
" style="stroke: #ff00ff"/>
    </defs>
    <g clip-path="url(#p798fde01ff)">
     <use xlink:href="#m98d454a330" x="275.156259" y="203.547106" style="fill: #ff00ff; stroke: #ff00ff"/>
    </g>
   </g>
   <g id="line2d_44">
    <defs>
     <path id="me70be0c8f8" d="M 0 1.5 
C 0.397805 1.5 0.77937 1.341951 1.06066 1.06066 
C 1.341951 0.77937 1.5 0.397805 1.5 0 
C 1.5 -0.397805 1.341951 -0.77937 1.06066 -1.06066 
C 0.77937 -1.341951 0.397805 -1.5 0 -1.5 
C -0.397805 -1.5 -0.77937 -1.341951 -1.06066 -1.06066 
C -1.341951 -0.77937 -1.5 -0.397805 -1.5 0 
C -1.5 0.397805 -1.341951 0.77937 -1.06066 1.06066 
C -0.77937 1.341951 -0.397805 1.5 0 1.5 
z
" style="stroke: #ff7500"/>
    </defs>
    <g>
     <use xlink:href="#me70be0c8f8" x="321.622912" y="27.648" style="fill: #ff7500; stroke: #ff7500"/>
     <use xlink:href="#me70be0c8f8" x="321.622912" y="27.648" style="fill: #ff7500; stroke: #ff7500"/>
    </g>
   </g>
   <g id="line2d_45">
    <path d="M 14.2848 298.944 
L 14.2848 293.624471 
L 73.268314 293.624471 
L 73.268314 292.560565 
L 74.836851 292.560565 
L 74.836851 292.205929 
L 77.628862 292.205929 
L 77.628862 291.851294 
L 78.266603 291.851294 
L 78.266603 291.496659 
L 82.211771 291.496659 
L 82.211771 291.142024 
L 84.142855 291.142024 
L 84.142855 290.787388 
L 85.038813 290.787388 
L 85.038813 290.432753 
L 85.471281 290.432753 
L 85.471281 290.078118 
L 85.894031 290.078118 
L 85.894031 289.368847 
L 86.307488 289.368847 
L 86.307488 289.014212 
L 87.495981 289.014212 
L 87.495981 288.659576 
L 88.972154 288.659576 
L 88.972154 288.304941 
L 92.811505 288.304941 
L 92.811505 287.950306 
L 93.098709 287.950306 
L 93.098709 287.595671 
L 95.998523 287.595671 
L 95.998523 287.241035 
L 96.95121 287.241035 
L 96.95121 286.8864 
L 98.077987 286.8864 
L 98.077987 286.177129 
L 98.295464 286.177129 
L 98.295464 285.822494 
L 98.723018 285.822494 
L 98.723018 285.113224 
L 99.950294 285.113224 
L 99.950294 284.403953 
L 101.471247 284.403953 
L 101.471247 284.049318 
L 102.011329 284.049318 
L 102.011329 282.985412 
L 102.362957 282.985412 
L 102.362957 282.630776 
L 102.536336 282.630776 
L 102.536336 282.276141 
L 102.878374 282.276141 
L 102.878374 281.921506 
L 103.544339 281.921506 
L 103.544339 281.566871 
L 103.868684 281.566871 
L 103.868684 281.212235 
L 104.655893 281.212235 
L 104.655893 280.8576 
L 104.809458 280.8576 
L 104.809458 280.502965 
L 105.99483 280.502965 
L 105.99483 279.439059 
L 106.137884 279.439059 
L 106.137884 279.084424 
L 106.560633 279.084424 
L 106.560633 278.020518 
L 107.244765 278.020518 
L 107.244765 277.665882 
L 107.378656 277.665882 
L 107.378656 277.311247 
L 108.034177 277.311247 
L 108.034177 276.247341 
L 108.29012 276.247341 
L 108.29012 275.892706 
L 108.416798 275.892706 
L 108.416798 275.183435 
L 109.037698 275.183435 
L 109.037698 274.474165 
L 109.400633 274.474165 
L 109.400633 273.410259 
L 109.520071 273.410259 
L 109.520071 273.055624 
L 110.106149 273.055624 
L 110.106149 272.700988 
L 110.221204 272.700988 
L 110.221204 272.346353 
L 110.335561 272.346353 
L 110.335561 271.991718 
L 112.283321 271.991718 
L 112.283321 271.637082 
L 114.326893 271.637082 
L 114.326893 270.927812 
L 114.510421 270.927812 
L 114.601519 269.863906 
L 116.419219 269.863906 
L 116.419219 269.154635 
L 116.746385 269.154635 
L 116.746385 268.445365 
L 116.907859 268.445365 
L 116.907859 268.090729 
L 118.000953 268.090729 
L 118.000953 267.736094 
L 118.376446 267.736094 
L 118.450653 267.026824 
L 118.671535 267.026824 
L 118.74459 266.317553 
L 120.149089 266.317553 
L 120.149089 265.962918 
L 121.39274 265.962918 
L 121.39274 265.608282 
L 121.706797 265.608282 
L 121.706797 265.253647 
L 121.830966 265.253647 
L 121.830966 264.899012 
L 122.015696 264.899012 
L 122.015696 264.544376 
L 122.13785 264.544376 
L 122.13785 264.189741 
L 122.559246 264.189741 
L 122.559246 263.835106 
L 123.08753 263.835106 
L 123.08753 263.480471 
L 123.202939 263.480471 
L 123.202939 263.125835 
L 123.544976 263.125835 
L 123.544976 262.7712 
L 123.825333 262.7712 
L 123.825333 262.416565 
L 125.011554 262.416565 
L 125.011554 262.061929 
L 126.756923 262.061929 
L 126.756923 261.707294 
L 128.178203 261.707294 
L 128.178203 261.352659 
L 129.906795 261.352659 
L 129.906795 260.998024 
L 162.030602 260.998024 
L 162.030602 260.643388 
L 162.8032 260.643388 
L 162.8032 260.288753 
L 162.915008 260.288753 
L 162.921974 259.579482 
L 163.484578 259.579482 
L 163.491337 258.515576 
L 163.997986 258.515576 
L 163.997986 258.160941 
L 164.20079 258.160941 
L 164.20079 257.806306 
L 164.330481 257.806306 
L 164.330481 257.451671 
L 164.612692 257.451671 
L 164.663551 256.033129 
L 164.80901 256.033129 
L 164.80901 255.678494 
L 164.9471 255.678494 
L 164.9471 255.323859 
L 165.232599 255.323859 
L 165.238758 254.259953 
L 165.670946 254.259953 
L 165.670946 253.196047 
L 166.854526 253.196047 
L 166.939098 252.486776 
L 167.190556 252.486776 
L 167.190556 251.777506 
L 167.515233 251.777506 
L 167.515233 251.422871 
L 167.672789 251.422871 
L 167.672789 251.068235 
L 167.989318 251.068235 
L 167.989318 250.358965 
L 168.498408 250.358965 
L 168.498408 249.295059 
L 168.653109 249.295059 
L 168.653109 248.585788 
L 169.184759 248.585788 
L 169.184759 247.876518 
L 169.550619 247.876518 
L 169.594634 247.167247 
L 169.667764 247.167247 
L 169.667764 246.812612 
L 169.813178 246.812612 
L 169.813178 245.394071 
L 169.962267 245.394071 
L 169.962267 244.330165 
L 170.2758 244.330165 
L 170.318152 243.620894 
L 170.509894 243.620894 
L 170.54708 242.556988 
L 170.983137 242.556988 
L 171.078179 241.493082 
L 171.127772 241.493082 
L 171.127772 241.138447 
L 171.342661 241.138447 
L 171.342661 240.429176 
L 190.684673 240.429176 
L 190.684673 240.074541 
L 191.037952 240.074541 
L 191.037952 239.719906 
L 191.461257 239.719906 
L 191.494836 239.010635 
L 192.139387 239.010635 
L 192.139387 238.656 
L 192.253975 238.656 
L 192.273006 237.946729 
L 192.534544 237.946729 
L 192.626666 236.882824 
L 192.715481 236.882824 
L 192.715481 236.528188 
L 193.24252 236.528188 
L 193.24252 236.173553 
L 193.604491 236.173553 
L 193.604491 235.818918 
L 203.00584 235.818918 
L 203.00584 235.109647 
L 203.857106 235.109647 
L 203.910777 233.691106 
L 204.066187 233.691106 
L 204.138742 232.981835 
L 204.246665 232.981835 
L 204.316985 231.563294 
L 204.496612 231.563294 
L 204.496612 230.499388 
L 204.665456 230.499388 
L 204.713852 228.726212 
L 204.942047 228.726212 
L 205.051406 226.953035 
L 205.071423 226.953035 
L 205.126915 225.179859 
L 205.380093 225.179859 
L 205.380093 224.115953 
L 205.565058 224.115953 
L 205.625592 222.342776 
L 205.696686 222.342776 
L 205.766085 221.278871 
L 205.842341 221.278871 
L 205.932453 218.796424 
L 206.034106 218.796424 
L 206.088238 218.087153 
L 206.149913 218.087153 
L 206.244137 216.668612 
L 206.266403 216.668612 
L 206.299751 215.250071 
L 206.378719 215.250071 
L 206.387703 213.831529 
L 206.582907 213.831529 
L 206.661378 212.767624 
L 206.700151 212.767624 
L 206.725277 210.994447 
L 206.836244 210.994447 
L 206.836244 210.285176 
L 206.996795 210.285176 
L 207.000808 208.866635 
L 207.116149 208.866635 
L 207.1772 207.093459 
L 207.344075 207.093459 
L 207.344075 206.384188 
L 214.427657 206.384188 
L 214.427657 205.320282 
L 214.558332 205.320282 
L 214.558332 204.965647 
L 214.7843 204.965647 
L 214.887481 203.901741 
L 214.912968 203.901741 
L 214.912968 203.547106 
L 215.104771 203.547106 
L 215.104771 203.192471 
L 215.240339 203.192471 
L 215.307113 202.128565 
L 215.50262 202.128565 
L 215.557017 201.064659 
L 215.716325 201.064659 
L 215.716325 200.710024 
L 215.874713 200.710024 
L 215.955071 198.582212 
L 216.226488 198.582212 
L 216.231811 197.872941 
L 216.356268 197.872941 
L 216.356268 197.163671 
L 216.544041 197.163671 
L 216.612371 195.035859 
L 216.905763 195.035859 
L 216.905763 192.908047 
L 217.147134 192.908047 
L 217.228461 191.489506 
L 217.278483 191.489506 
L 217.381596 190.780235 
L 262.864832 190.780235 
L 262.89477 189.716329 
L 263.590909 189.716329 
L 263.698285 187.233882 
L 263.751531 187.233882 
L 263.824728 184.3968 
L 263.96121 184.3968 
L 264.041014 181.559718 
L 264.130687 181.559718 
L 264.206997 180.495812 
L 264.260864 180.495812 
L 264.355016 179.431906 
L 264.416238 179.431906 
L 264.525586 171.984565 
L 264.532497 171.984565 
L 264.641548 170.211388 
L 264.660806 170.211388 
L 264.715382 168.438212 
L 264.800883 168.438212 
L 264.888556 163.473318 
L 264.913381 163.473318 
L 265.011711 160.2816 
L 265.030839 160.2816 
L 265.141365 156.735247 
L 265.144163 156.735247 
L 265.190837 153.188894 
L 265.368423 153.188894 
L 265.456486 152.124988 
L 265.490098 152.124988 
L 265.596572 148.578635 
L 265.606602 148.578635 
L 265.692497 144.677647 
L 265.733382 144.677647 
L 265.780911 142.904471 
L 266.062665 142.904471 
L 266.120199 141.840565 
L 266.211831 141.840565 
L 266.211831 141.485929 
L 266.335267 141.485929 
L 266.335267 141.131294 
L 266.875389 141.131294 
L 266.962789 139.358118 
L 266.986953 139.358118 
L 266.986953 139.003482 
L 276.308224 139.003482 
L 276.308224 138.648847 
L 276.690811 138.648847 
L 276.690811 138.294212 
L 276.841712 138.294212 
L 276.936995 136.1664 
L 277.018782 136.1664 
L 277.080494 135.457129 
L 277.144238 135.457129 
L 277.236182 132.974682 
L 277.30305 132.974682 
L 277.412492 130.846871 
L 277.445581 130.846871 
L 277.555866 127.655153 
L 277.593191 127.655153 
L 277.686702 124.463435 
L 277.729422 124.463435 
L 277.838355 120.917082 
L 277.84772 120.917082 
L 277.933755 119.143906 
L 277.992388 119.143906 
L 278.097721 118.08 
L 278.229268 118.08 
L 278.303099 115.597553 
L 278.408243 115.597553 
L 278.497574 114.533647 
L 278.674042 114.533647 
L 278.730637 113.115106 
L 279.062534 113.115106 
L 279.062534 112.760471 
L 279.324017 112.760471 
L 279.324017 112.405835 
L 284.059632 112.405835 
L 284.088554 111.341929 
L 284.251324 111.341929 
L 284.251324 110.987294 
L 284.434759 110.987294 
L 284.536891 109.214118 
L 284.703123 109.214118 
L 284.806112 105.313129 
L 284.824865 105.313129 
L 284.920763 102.476047 
L 284.936345 102.476047 
L 285.045278 99.284329 
L 285.05446 99.284329 
L 285.14294 96.092612 
L 285.165839 96.092612 
L 285.237516 93.9648 
L 285.332784 93.9648 
L 285.441065 91.482353 
L 285.456779 91.482353 
L 285.493859 89.354541 
L 285.574001 89.354541 
L 285.627898 87.936 
L 285.686059 87.936 
L 285.763813 86.872094 
L 285.919552 86.872094 
L 285.970952 86.162824 
L 286.060756 86.162824 
L 286.13158 85.453553 
L 286.261413 85.453553 
L 286.261413 85.098918 
L 289.584291 85.098918 
L 289.584291 84.744282 
L 289.775337 84.744282 
L 289.877507 83.680376 
L 289.917226 83.680376 
L 290.025283 82.616471 
L 290.101735 82.616471 
L 290.171392 81.197929 
L 290.219117 81.197929 
L 290.307631 79.070118 
L 290.354542 79.070118 
L 290.460376 77.296941 
L 290.482131 77.296941 
L 290.586465 75.8784 
L 290.596274 75.8784 
L 290.641516 74.814494 
L 290.707457 74.814494 
L 290.776989 73.041318 
L 290.822016 73.041318 
L 290.911524 71.977412 
L 291.004714 71.977412 
L 291.050412 70.913506 
L 291.118102 70.913506 
L 291.118102 70.558871 
L 294.090334 70.558871 
L 294.171932 68.785694 
L 294.26676 68.785694 
L 294.333198 67.721788 
L 294.385761 67.721788 
L 294.488531 65.239341 
L 294.574187 65.239341 
L 294.646344 63.466165 
L 294.702924 63.466165 
L 294.781617 61.338353 
L 294.865739 61.338353 
L 294.87888 60.274447 
L 295.170387 60.274447 
L 295.170387 59.919812 
L 297.431813 59.919812 
L 297.450688 59.210541 
L 297.809224 59.210541 
L 297.903669 57.792 
L 297.934721 57.792 
L 298.008737 57.082729 
L 298.048656 57.082729 
L 298.133905 55.309553 
L 298.217166 55.309553 
L 298.225753 54.600282 
L 298.336585 54.600282 
L 298.419267 53.181741 
L 298.524632 53.181741 
L 298.524632 52.827106 
L 298.759462 52.827106 
L 298.759462 52.472471 
L 300.354418 52.472471 
L 300.354418 52.117835 
L 300.528792 52.117835 
L 300.528792 51.7632 
L 300.654483 51.7632 
L 300.762731 49.990024 
L 300.785678 49.990024 
L 300.872058 48.216847 
L 300.905101 48.216847 
L 300.988561 46.798306 
L 301.104962 46.798306 
L 301.200972 45.7344 
L 301.236166 45.7344 
L 301.316266 45.025129 
L 303.056492 45.025129 
L 303.165314 43.961224 
L 303.196595 43.961224 
L 303.306511 42.542682 
L 303.333969 42.542682 
L 303.426889 41.478776 
L 303.485974 41.478776 
L 303.514077 40.060235 
L 303.699954 40.060235 
L 303.787791 39.350965 
L 305.337906 39.350965 
L 305.351891 38.641694 
L 305.462587 38.641694 
L 305.462587 38.287059 
L 305.624 38.287059 
L 305.691751 36.159247 
L 305.742823 36.159247 
L 305.834697 35.095341 
L 305.858568 35.095341 
L 305.858568 34.740706 
L 306.251893 34.740706 
L 306.251893 34.386071 
L 307.185152 34.386071 
L 307.272731 33.322165 
L 307.384287 33.322165 
L 307.393811 32.612894 
L 307.907099 32.612894 
L 307.907099 32.258259 
L 308.930311 32.258259 
L 308.956322 31.548988 
L 309.046363 31.548988 
L 309.046363 31.194353 
L 309.461456 31.194353 
L 309.568306 30.485082 
L 309.763646 30.485082 
L 309.763646 30.130447 
L 310.923746 30.130447 
L 311.015686 29.421176 
L 311.423139 29.421176 
L 311.423139 29.066541 
L 312.418381 29.066541 
L 312.418381 28.711906 
L 313.832178 28.711906 
L 313.832178 28.357271 
L 316.404702 28.357271 
L 316.404702 28.002635 
L 321.622912 28.002635 
L 321.622912 27.648 
L 360.8064 27.648 
L 360.8064 27.648 
" style="fill: none; stroke: #ff7500; stroke-width: 1.5; stroke-linecap: square"/>
   </g>
   <g id="line2d_46">
    <defs>
     <path id="m0feca44edf" d="M 0 -6 
L -1.347084 -1.854102 
L -5.706339 -1.854102 
L -2.179628 0.708204 
L -3.526712 4.854102 
L -0 2.291796 
L 3.526712 4.854102 
L 2.179628 0.708204 
L 5.706339 -1.854102 
L 1.347084 -1.854102 
z
" style="stroke: #ff7500; stroke-width: 1.5; stroke-linejoin: bevel"/>
    </defs>
    <g>
     <use xlink:href="#m0feca44edf" x="128.178203" y="261.707294" style="fill-opacity: 0; stroke: #ff7500; stroke-width: 1.5; stroke-linejoin: bevel"/>
     <use xlink:href="#m0feca44edf" x="207.344075" y="206.384188" style="fill-opacity: 0; stroke: #ff7500; stroke-width: 1.5; stroke-linejoin: bevel"/>
     <use xlink:href="#m0feca44edf" x="266.986953" y="139.358118" style="fill-opacity: 0; stroke: #ff7500; stroke-width: 1.5; stroke-linejoin: bevel"/>
     <use xlink:href="#m0feca44edf" x="307.251725" y="33.6768" style="fill-opacity: 0; stroke: #ff7500; stroke-width: 1.5; stroke-linejoin: bevel"/>
     <use xlink:href="#m0feca44edf" x="321.622912" y="27.648" style="fill-opacity: 0; stroke: #ff7500; stroke-width: 1.5; stroke-linejoin: bevel"/>
     <use xlink:href="#m0feca44edf" x="360.8064" y="27.648" style="fill-opacity: 0; stroke: #ff7500; stroke-width: 1.5; stroke-linejoin: bevel"/>
    </g>
   </g>
   <g id="line2d_47">
    <path style="fill: none; stroke: #ff7500; stroke-width: 1.5; stroke-linecap: square"/>
    <g/>
   </g>
   <g id="line2d_48">
    <path d="M 264.030113 182.268988 
" clip-path="url(#p798fde01ff)" style="fill: none; stroke: #ff7500; stroke-width: 1.5; stroke-linecap: square"/>
    <defs>
     <path id="mb4632d01e8" d="M -12 12 
L 12 -12 
M -12 -12 
L 12 12 
" style="stroke: #ff7500"/>
    </defs>
    <g clip-path="url(#p798fde01ff)">
     <use xlink:href="#mb4632d01e8" x="264.030113" y="182.268988" style="fill: #ff7500; stroke: #ff7500"/>
    </g>
   </g>
   <g id="line2d_49">
    <path d="M 360.8064 240.429176 
L 380.514816 293.51808 
" style="fill: none; stroke: #000080; stroke-width: 1.5; stroke-linecap: square"/>
    <g>
     <use xlink:href="#m3c7b37f687" x="360.8064" y="240.429176" style="fill-opacity: 0; stroke: #000080; stroke-width: 1.5"/>
     <use xlink:href="#m3c7b37f687" x="380.514816" y="293.51808" style="fill-opacity: 0; stroke: #000080; stroke-width: 1.5"/>
    </g>
   </g>
   <g id="line2d_50">
    <path d="M 360.8064 27.648 
L 380.514816 206.70336 
" style="fill: none; stroke: #ff00ff; stroke-width: 1.5; stroke-linecap: square"/>
    <g>
     <use xlink:href="#mdcbb974f9c" x="360.8064" y="27.648" style="fill-opacity: 0; stroke: #ff00ff; stroke-width: 1.5; stroke-linejoin: miter"/>
     <use xlink:href="#mdcbb974f9c" x="380.514816" y="206.70336" style="fill-opacity: 0; stroke: #ff00ff; stroke-width: 1.5; stroke-linejoin: miter"/>
    </g>
   </g>
   <g id="line2d_51">
    <path d="M 360.8064 27.648 
L 380.514816 119.88864 
" style="fill: none; stroke: #ff7500; stroke-width: 1.5; stroke-linecap: square"/>
    <g>
     <use xlink:href="#m0feca44edf" x="360.8064" y="27.648" style="fill-opacity: 0; stroke: #ff7500; stroke-width: 1.5; stroke-linejoin: bevel"/>
     <use xlink:href="#m0feca44edf" x="380.514816" y="119.88864" style="fill-opacity: 0; stroke: #ff7500; stroke-width: 1.5; stroke-linejoin: bevel"/>
    </g>
   </g>
   <g id="line2d_52">
    <path d="M 360.8064 298.944 
L 360.8064 27.648 
" style="fill: none; stroke: #000000; stroke-width: 1.5; stroke-linecap: square"/>
   </g>
   <g id="patch_3">
    <path d="M 57.6 298.944 
L 360.8064 298.944 
" style="fill: none; stroke: #000000; stroke-width: 0.8; stroke-linejoin: miter; stroke-linecap: square"/>
   </g>
   <g id="patch_4">
    <path d="M 57.6 27.648 
L 360.8064 27.648 
" style="fill: none; stroke: #000000; stroke-width: 0.8; stroke-linejoin: miter; stroke-linecap: square"/>
   </g>
   <g id="text_13">
    <!-- cma0R -->
    <g transform="translate(386.578944 297.381205)scale(0.14 -0.14)">
     <defs>
      <path id="DejaVuSans-52" d="M 2841 2188 
Q 3044 2119 3236 1894 
Q 3428 1669 3622 1275 
L 4263 0 
L 3584 0 
L 2988 1197 
Q 2756 1666 2539 1819 
Q 2322 1972 1947 1972 
L 1259 1972 
L 1259 0 
L 628 0 
L 628 4666 
L 2053 4666 
Q 2853 4666 3247 4331 
Q 3641 3997 3641 3322 
Q 3641 2881 3436 2590 
Q 3231 2300 2841 2188 
z
M 1259 4147 
L 1259 2491 
L 2053 2491 
Q 2509 2491 2742 2702 
Q 2975 2913 2975 3322 
Q 2975 3731 2742 3939 
Q 2509 4147 2053 4147 
L 1259 4147 
z
" transform="scale(0.015625)"/>
     </defs>
     <use xlink:href="#DejaVuSans-63"/>
     <use xlink:href="#DejaVuSans-6d" x="54.980469"/>
     <use xlink:href="#DejaVuSans-61" x="152.392578"/>
     <use xlink:href="#DejaVuSans-30" x="213.671875"/>
     <use xlink:href="#DejaVuSans-52" x="277.294922"/>
    </g>
   </g>
   <g id="text_14">
    <!-- ddcma0R -->
    <g transform="translate(386.578944 210.566485)scale(0.14 -0.14)">
     <use xlink:href="#DejaVuSans-64"/>
     <use xlink:href="#DejaVuSans-64" x="63.476562"/>
     <use xlink:href="#DejaVuSans-63" x="126.953125"/>
     <use xlink:href="#DejaVuSans-6d" x="181.933594"/>
     <use xlink:href="#DejaVuSans-61" x="279.345703"/>
     <use xlink:href="#DejaVuSans-30" x="340.625"/>
     <use xlink:href="#DejaVuSans-52" x="404.248047"/>
    </g>
   </g>
   <g id="text_15">
    <!-- CMA-ES-20 -->
    <g transform="translate(386.578944 123.751765)scale(0.14 -0.14)">
     <defs>
      <path id="DejaVuSans-43" d="M 4122 4306 
L 4122 3641 
Q 3803 3938 3442 4084 
Q 3081 4231 2675 4231 
Q 1875 4231 1450 3742 
Q 1025 3253 1025 2328 
Q 1025 1406 1450 917 
Q 1875 428 2675 428 
Q 3081 428 3442 575 
Q 3803 722 4122 1019 
L 4122 359 
Q 3791 134 3420 21 
Q 3050 -91 2638 -91 
Q 1578 -91 968 557 
Q 359 1206 359 2328 
Q 359 3453 968 4101 
Q 1578 4750 2638 4750 
Q 3056 4750 3426 4639 
Q 3797 4528 4122 4306 
z
" transform="scale(0.015625)"/>
      <path id="DejaVuSans-4d" d="M 628 4666 
L 1569 4666 
L 2759 1491 
L 3956 4666 
L 4897 4666 
L 4897 0 
L 4281 0 
L 4281 4097 
L 3078 897 
L 2444 897 
L 1241 4097 
L 1241 0 
L 628 0 
L 628 4666 
z
" transform="scale(0.015625)"/>
      <path id="DejaVuSans-41" d="M 2188 4044 
L 1331 1722 
L 3047 1722 
L 2188 4044 
z
M 1831 4666 
L 2547 4666 
L 4325 0 
L 3669 0 
L 3244 1197 
L 1141 1197 
L 716 0 
L 50 0 
L 1831 4666 
z
" transform="scale(0.015625)"/>
      <path id="DejaVuSans-45" d="M 628 4666 
L 3578 4666 
L 3578 4134 
L 1259 4134 
L 1259 2753 
L 3481 2753 
L 3481 2222 
L 1259 2222 
L 1259 531 
L 3634 531 
L 3634 0 
L 628 0 
L 628 4666 
z
" transform="scale(0.015625)"/>
      <path id="DejaVuSans-53" d="M 3425 4513 
L 3425 3897 
Q 3066 4069 2747 4153 
Q 2428 4238 2131 4238 
Q 1616 4238 1336 4038 
Q 1056 3838 1056 3469 
Q 1056 3159 1242 3001 
Q 1428 2844 1947 2747 
L 2328 2669 
Q 3034 2534 3370 2195 
Q 3706 1856 3706 1288 
Q 3706 609 3251 259 
Q 2797 -91 1919 -91 
Q 1588 -91 1214 -16 
Q 841 59 441 206 
L 441 856 
Q 825 641 1194 531 
Q 1563 422 1919 422 
Q 2459 422 2753 634 
Q 3047 847 3047 1241 
Q 3047 1584 2836 1778 
Q 2625 1972 2144 2069 
L 1759 2144 
Q 1053 2284 737 2584 
Q 422 2884 422 3419 
Q 422 4038 858 4394 
Q 1294 4750 2059 4750 
Q 2388 4750 2728 4690 
Q 3069 4631 3425 4513 
z
" transform="scale(0.015625)"/>
     </defs>
     <use xlink:href="#DejaVuSans-43"/>
     <use xlink:href="#DejaVuSans-4d" x="69.824219"/>
     <use xlink:href="#DejaVuSans-41" x="156.103516"/>
     <use xlink:href="#DejaVuSans-2d" x="222.261719"/>
     <use xlink:href="#DejaVuSans-45" x="258.345703"/>
     <use xlink:href="#DejaVuSans-53" x="321.529297"/>
     <use xlink:href="#DejaVuSans-2d" x="385.005859"/>
     <use xlink:href="#DejaVuSans-32" x="421.089844"/>
     <use xlink:href="#DejaVuSans-30" x="484.712891"/>
    </g>
   </g>
   <g id="text_16">
    <!-- best 2009 -->
    <g transform="translate(386.578944 36.937045)scale(0.14 -0.14)">
     <defs>
      <path id="DejaVuSans-62" d="M 3116 1747 
Q 3116 2381 2855 2742 
Q 2594 3103 2138 3103 
Q 1681 3103 1420 2742 
Q 1159 2381 1159 1747 
Q 1159 1113 1420 752 
Q 1681 391 2138 391 
Q 2594 391 2855 752 
Q 3116 1113 3116 1747 
z
M 1159 2969 
Q 1341 3281 1617 3432 
Q 1894 3584 2278 3584 
Q 2916 3584 3314 3078 
Q 3713 2572 3713 1747 
Q 3713 922 3314 415 
Q 2916 -91 2278 -91 
Q 1894 -91 1617 61 
Q 1341 213 1159 525 
L 1159 0 
L 581 0 
L 581 4863 
L 1159 4863 
L 1159 2969 
z
" transform="scale(0.015625)"/>
      <path id="DejaVuSans-39" d="M 703 97 
L 703 672 
Q 941 559 1184 500 
Q 1428 441 1663 441 
Q 2288 441 2617 861 
Q 2947 1281 2994 2138 
Q 2813 1869 2534 1725 
Q 2256 1581 1919 1581 
Q 1219 1581 811 2004 
Q 403 2428 403 3163 
Q 403 3881 828 4315 
Q 1253 4750 1959 4750 
Q 2769 4750 3195 4129 
Q 3622 3509 3622 2328 
Q 3622 1225 3098 567 
Q 2575 -91 1691 -91 
Q 1453 -91 1209 -44 
Q 966 3 703 97 
z
M 1959 2075 
Q 2384 2075 2632 2365 
Q 2881 2656 2881 3163 
Q 2881 3666 2632 3958 
Q 2384 4250 1959 4250 
Q 1534 4250 1286 3958 
Q 1038 3666 1038 3163 
Q 1038 2656 1286 2365 
Q 1534 2075 1959 2075 
z
" transform="scale(0.015625)"/>
     </defs>
     <use xlink:href="#DejaVuSans-62"/>
     <use xlink:href="#DejaVuSans-65" x="63.476562"/>
     <use xlink:href="#DejaVuSans-73" x="125"/>
     <use xlink:href="#DejaVuSans-74" x="177.099609"/>
     <use xlink:href="#DejaVuSans-20" x="216.308594"/>
     <use xlink:href="#DejaVuSans-32" x="248.095703"/>
     <use xlink:href="#DejaVuSans-30" x="311.71875"/>
     <use xlink:href="#DejaVuSans-30" x="375.341797"/>
     <use xlink:href="#DejaVuSans-39" x="438.964844"/>
    </g>
   </g>
   <g id="text_17">
    <!-- bbob f22, 10-D -->
    <g transform="translate(60.632064 38.111366)scale(0.102 -0.102)">
     <defs>
      <path id="DejaVuSans-44" d="M 1259 4147 
L 1259 519 
L 2022 519 
Q 2988 519 3436 956 
Q 3884 1394 3884 2338 
Q 3884 3275 3436 3711 
Q 2988 4147 2022 4147 
L 1259 4147 
z
M 628 4666 
L 1925 4666 
Q 3281 4666 3915 4102 
Q 4550 3538 4550 2338 
Q 4550 1131 3912 565 
Q 3275 0 1925 0 
L 628 0 
L 628 4666 
z
" transform="scale(0.015625)"/>
     </defs>
     <use xlink:href="#DejaVuSans-62"/>
     <use xlink:href="#DejaVuSans-62" x="63.476562"/>
     <use xlink:href="#DejaVuSans-6f" x="126.953125"/>
     <use xlink:href="#DejaVuSans-62" x="188.134766"/>
     <use xlink:href="#DejaVuSans-20" x="251.611328"/>
     <use xlink:href="#DejaVuSans-66" x="283.398438"/>
     <use xlink:href="#DejaVuSans-32" x="318.603516"/>
     <use xlink:href="#DejaVuSans-32" x="382.226562"/>
     <use xlink:href="#DejaVuSans-2c" x="445.849609"/>
     <use xlink:href="#DejaVuSans-20" x="477.636719"/>
     <use xlink:href="#DejaVuSans-31" x="509.423828"/>
     <use xlink:href="#DejaVuSans-30" x="573.046875"/>
     <use xlink:href="#DejaVuSans-2d" x="636.669922"/>
     <use xlink:href="#DejaVuSans-44" x="672.753906"/>
    </g>
    <!-- 51 targets: 100..1e-08 -->
    <g transform="translate(60.632064 49.533135)scale(0.102 -0.102)">
     <defs>
      <path id="DejaVuSans-35" d="M 691 4666 
L 3169 4666 
L 3169 4134 
L 1269 4134 
L 1269 2991 
Q 1406 3038 1543 3061 
Q 1681 3084 1819 3084 
Q 2600 3084 3056 2656 
Q 3513 2228 3513 1497 
Q 3513 744 3044 326 
Q 2575 -91 1722 -91 
Q 1428 -91 1123 -41 
Q 819 9 494 109 
L 494 744 
Q 775 591 1075 516 
Q 1375 441 1709 441 
Q 2250 441 2565 725 
Q 2881 1009 2881 1497 
Q 2881 1984 2565 2268 
Q 2250 2553 1709 2553 
Q 1456 2553 1204 2497 
Q 953 2441 691 2322 
L 691 4666 
z
" transform="scale(0.015625)"/>
      <path id="DejaVuSans-3a" d="M 750 794 
L 1409 794 
L 1409 0 
L 750 0 
L 750 794 
z
M 750 3309 
L 1409 3309 
L 1409 2516 
L 750 2516 
L 750 3309 
z
" transform="scale(0.015625)"/>
     </defs>
     <use xlink:href="#DejaVuSans-35"/>
     <use xlink:href="#DejaVuSans-31" x="63.623047"/>
     <use xlink:href="#DejaVuSans-20" x="127.246094"/>
     <use xlink:href="#DejaVuSans-74" x="159.033203"/>
     <use xlink:href="#DejaVuSans-61" x="198.242188"/>
     <use xlink:href="#DejaVuSans-72" x="259.521484"/>
     <use xlink:href="#DejaVuSans-67" x="298.884766"/>
     <use xlink:href="#DejaVuSans-65" x="362.361328"/>
     <use xlink:href="#DejaVuSans-74" x="423.884766"/>
     <use xlink:href="#DejaVuSans-73" x="463.09375"/>
     <use xlink:href="#DejaVuSans-3a" x="515.193359"/>
     <use xlink:href="#DejaVuSans-20" x="548.884766"/>
     <use xlink:href="#DejaVuSans-31" x="580.671875"/>
     <use xlink:href="#DejaVuSans-30" x="644.294922"/>
     <use xlink:href="#DejaVuSans-30" x="707.917969"/>
     <use xlink:href="#DejaVuSans-2e" x="771.541016"/>
     <use xlink:href="#DejaVuSans-2e" x="803.328125"/>
     <use xlink:href="#DejaVuSans-31" x="835.115234"/>
     <use xlink:href="#DejaVuSans-65" x="898.738281"/>
     <use xlink:href="#DejaVuSans-2d" x="960.261719"/>
     <use xlink:href="#DejaVuSans-30" x="996.345703"/>
     <use xlink:href="#DejaVuSans-38" x="1059.96875"/>
    </g>
    <!-- 5, 15 instances -->
    <g transform="translate(60.632064 60.954904)scale(0.102 -0.102)">
     <use xlink:href="#DejaVuSans-35"/>
     <use xlink:href="#DejaVuSans-2c" x="63.623047"/>
     <use xlink:href="#DejaVuSans-20" x="95.410156"/>
     <use xlink:href="#DejaVuSans-31" x="127.197266"/>
     <use xlink:href="#DejaVuSans-35" x="190.820312"/>
     <use xlink:href="#DejaVuSans-20" x="254.443359"/>
     <use xlink:href="#DejaVuSans-69" x="286.230469"/>
     <use xlink:href="#DejaVuSans-6e" x="314.013672"/>
     <use xlink:href="#DejaVuSans-73" x="377.392578"/>
     <use xlink:href="#DejaVuSans-74" x="429.492188"/>
     <use xlink:href="#DejaVuSans-61" x="468.701172"/>
     <use xlink:href="#DejaVuSans-6e" x="529.980469"/>
     <use xlink:href="#DejaVuSans-63" x="593.359375"/>
     <use xlink:href="#DejaVuSans-65" x="648.339844"/>
     <use xlink:href="#DejaVuSans-73" x="709.863281"/>
    </g>
   </g>
   <g id="text_18">
    <!-- v2.6 -->
    <g style="fill: #808080" transform="translate(198.292262 294.151352)scale(0.1 -0.1)">
     <use xlink:href="#DejaVuSans-76"/>
     <use xlink:href="#DejaVuSans-32" x="59.179688"/>
     <use xlink:href="#DejaVuSans-2e" x="122.802734"/>
     <use xlink:href="#DejaVuSans-36" x="154.589844"/>
    </g>
   </g>
   <g id="text_19">
    <!-- 22 Gallagher 21 peaks -->
    <g transform="translate(96.0782 21.648)scale(0.2 -0.2)">
     <defs>
      <path id="DejaVuSans-47" d="M 3809 666 
L 3809 1919 
L 2778 1919 
L 2778 2438 
L 4434 2438 
L 4434 434 
Q 4069 175 3628 42 
Q 3188 -91 2688 -91 
Q 1594 -91 976 548 
Q 359 1188 359 2328 
Q 359 3472 976 4111 
Q 1594 4750 2688 4750 
Q 3144 4750 3555 4637 
Q 3966 4525 4313 4306 
L 4313 3634 
Q 3963 3931 3569 4081 
Q 3175 4231 2741 4231 
Q 1884 4231 1454 3753 
Q 1025 3275 1025 2328 
Q 1025 1384 1454 906 
Q 1884 428 2741 428 
Q 3075 428 3337 486 
Q 3600 544 3809 666 
z
" transform="scale(0.015625)"/>
      <path id="DejaVuSans-68" d="M 3513 2113 
L 3513 0 
L 2938 0 
L 2938 2094 
Q 2938 2591 2744 2837 
Q 2550 3084 2163 3084 
Q 1697 3084 1428 2787 
Q 1159 2491 1159 1978 
L 1159 0 
L 581 0 
L 581 4863 
L 1159 4863 
L 1159 2956 
Q 1366 3272 1645 3428 
Q 1925 3584 2291 3584 
Q 2894 3584 3203 3211 
Q 3513 2838 3513 2113 
z
" transform="scale(0.015625)"/>
      <path id="DejaVuSans-6b" d="M 581 4863 
L 1159 4863 
L 1159 1991 
L 2875 3500 
L 3609 3500 
L 1753 1863 
L 3688 0 
L 2938 0 
L 1159 1709 
L 1159 0 
L 581 0 
L 581 4863 
z
" transform="scale(0.015625)"/>
     </defs>
     <use xlink:href="#DejaVuSans-32"/>
     <use xlink:href="#DejaVuSans-32" x="63.623047"/>
     <use xlink:href="#DejaVuSans-20" x="127.246094"/>
     <use xlink:href="#DejaVuSans-47" x="159.033203"/>
     <use xlink:href="#DejaVuSans-61" x="236.523438"/>
     <use xlink:href="#DejaVuSans-6c" x="297.802734"/>
     <use xlink:href="#DejaVuSans-6c" x="325.585938"/>
     <use xlink:href="#DejaVuSans-61" x="353.369141"/>
     <use xlink:href="#DejaVuSans-67" x="414.648438"/>
     <use xlink:href="#DejaVuSans-68" x="478.125"/>
     <use xlink:href="#DejaVuSans-65" x="541.503906"/>
     <use xlink:href="#DejaVuSans-72" x="603.027344"/>
     <use xlink:href="#DejaVuSans-20" x="644.140625"/>
     <use xlink:href="#DejaVuSans-32" x="675.927734"/>
     <use xlink:href="#DejaVuSans-31" x="739.550781"/>
     <use xlink:href="#DejaVuSans-20" x="803.173828"/>
     <use xlink:href="#DejaVuSans-70" x="834.960938"/>
     <use xlink:href="#DejaVuSans-65" x="898.4375"/>
     <use xlink:href="#DejaVuSans-61" x="959.960938"/>
     <use xlink:href="#DejaVuSans-6b" x="1021.240234"/>
     <use xlink:href="#DejaVuSans-73" x="1079.150391"/>
    </g>
   </g>
  </g>
 </g>
 <defs>
  <clipPath id="p798fde01ff">
   <rect x="57.6" y="27.648" width="303.2064" height="271.296"/>
  </clipPath>
 </defs>
</svg>
