<?xml version="1.0" encoding="utf-8" standalone="no"?>
<!DOCTYPE svg PUBLIC "-//W3C//DTD SVG 1.1//EN"
  "http://www.w3.org/Graphics/SVG/1.1/DTD/svg11.dtd">
<svg xmlns:xlink="http://www.w3.org/1999/xlink" width="460.8pt" height="345.6pt" viewBox="0 0 460.8 345.6" xmlns="http://www.w3.org/2000/svg" version="1.1">
 <metadata>
  <rdf:RDF xmlns:dc="http://purl.org/dc/elements/1.1/" xmlns:cc="http://creativecommons.org/ns#" xmlns:rdf="http://www.w3.org/1999/02/22-rdf-syntax-ns#">
   <cc:Work>
    <dc:type rdf:resource="http://purl.org/dc/dcmitype/StillImage"/>
    <dc:date>2022-03-28T13:29:55.619043</dc:date>
    <dc:format>image/svg+xml</dc:format>
    <dc:creator>
     <cc:Agent>
      <dc:title>Matplotlib v3.5.1, https://matplotlib.org/</dc:title>
     </cc:Agent>
    </dc:creator>
   </cc:Work>
  </rdf:RDF>
 </metadata>
 <defs>
  <style type="text/css">*{stroke-linejoin: round; stroke-linecap: butt}</style>
 </defs>
 <g id="figure_1">
  <g id="patch_1">
   <path d="M 0 345.6 
L 460.8 345.6 
L 460.8 0 
L 0 0 
z
" style="fill: #ffffff"/>
  </g>
  <g id="axes_1">
   <g id="patch_2">
    <path d="M 57.6 298.944 
L 360.8064 298.944 
L 360.8064 27.648 
L 57.6 27.648 
z
" style="fill: #ffffff"/>
   </g>
   <g id="line2d_1">
    <path d="M 44.560826 298.944 
L 44.560826 267.026824 
L 92.811505 267.026824 
L 92.811505 261.707294 
L 95.503454 261.707294 
L 95.503454 251.068235 
L 98.933205 251.068235 
L 98.933205 229.790118 
L 101.833019 229.790118 
L 101.833019 224.470588 
L 106.560633 224.470588 
L 106.560633 219.151059 
L 108.542628 219.151059 
L 108.542628 213.831529 
L 109.159456 213.831529 
L 109.159456 208.512 
L 112.989468 208.512 
L 112.989468 203.192471 
L 115.314838 203.192471 
L 115.314838 197.872941 
L 115.747307 197.872941 
L 115.747307 187.233882 
L 116.170056 187.233882 
L 116.170056 181.914353 
L 118.152051 181.914353 
L 118.152051 171.275294 
L 123.374735 171.275294 
L 123.374735 165.955765 
L 123.936316 165.955765 
L 123.936316 160.636235 
L 125.011554 160.636235 
L 125.011554 149.997176 
L 125.271028 149.997176 
L 125.271028 144.677647 
L 126.274549 144.677647 
L 126.274549 134.038588 
L 126.517282 134.038588 
L 126.517282 128.719059 
L 126.993549 128.719059 
L 126.993549 112.760471 
L 127.227236 112.760471 
L 127.227236 102.121412 
L 127.458055 102.121412 
L 127.458055 96.801882 
L 128.354013 96.801882 
L 128.354013 91.482353 
L 128.999044 91.482353 
L 128.999044 70.204235 
L 129.209231 70.204235 
L 129.209231 59.565176 
L 129.622688 59.565176 
L 129.622688 48.926118 
L 129.826058 48.926118 
L 129.826058 43.606588 
L 130.027253 43.606588 
L 130.027253 27.648 
L 360.8064 27.648 
" style="fill: none; stroke: #f5deb3; stroke-width: 4; stroke-linecap: square"/>
   </g>
   <g id="line2d_2">
    <defs>
     <path id="md615f29c28" d="M -0 7.778175 
L 7.778175 0 
L 0 -7.778175 
L -7.778175 -0 
z
" style="stroke: #f5deb3; stroke-width: 1.5; stroke-linejoin: miter"/>
    </defs>
    <g>
     <use xlink:href="#md615f29c28" x="112.989468" y="208.512" style="fill: #f5deb3; stroke: #f5deb3; stroke-width: 1.5; stroke-linejoin: miter"/>
     <use xlink:href="#md615f29c28" x="128.354013" y="91.482353" style="fill: #f5deb3; stroke: #f5deb3; stroke-width: 1.5; stroke-linejoin: miter"/>
     <use xlink:href="#md615f29c28" x="130.027253" y="43.606588" style="fill: #f5deb3; stroke: #f5deb3; stroke-width: 1.5; stroke-linejoin: miter"/>
     <use xlink:href="#md615f29c28" x="130.027253" y="27.648" style="fill: #f5deb3; stroke: #f5deb3; stroke-width: 1.5; stroke-linejoin: miter"/>
     <use xlink:href="#md615f29c28" x="130.027253" y="27.648" style="fill: #f5deb3; stroke: #f5deb3; stroke-width: 1.5; stroke-linejoin: miter"/>
     <use xlink:href="#md615f29c28" x="360.8064" y="27.648" style="fill: #f5deb3; stroke: #f5deb3; stroke-width: 1.5; stroke-linejoin: miter"/>
    </g>
   </g>
   <g id="line2d_3">
    <path style="fill: none; stroke: #f5deb3; stroke-width: 4; stroke-linecap: square"/>
    <g/>
   </g>
   <g id="line2d_4">
    <path d="M 360.8064 27.648 
L 380.514816 33.07392 
" style="fill: none; stroke: #f5deb3; stroke-width: 4; stroke-linecap: square"/>
    <g>
     <use xlink:href="#md615f29c28" x="360.8064" y="27.648" style="fill: #f5deb3; stroke: #f5deb3; stroke-width: 1.5; stroke-linejoin: miter"/>
     <use xlink:href="#md615f29c28" x="380.514816" y="33.07392" style="fill: #f5deb3; stroke: #f5deb3; stroke-width: 1.5; stroke-linejoin: miter"/>
    </g>
   </g>
   <g id="matplotlib.axis_1">
    <g id="xtick_1">
     <g id="line2d_5">
      <path d="M 57.6 298.944 
L 57.6 27.648 
" clip-path="url(#p0b0f2bd1c8)" style="fill: none; stroke: #b0b0b0; stroke-width: 0.8; stroke-linecap: square"/>
     </g>
     <g id="line2d_6">
      <defs>
       <path id="m60c66e1fb5" d="M 0 0 
L 0 3.5 
" style="stroke: #000000; stroke-width: 0.8"/>
      </defs>
      <g>
       <use xlink:href="#m60c66e1fb5" x="57.6" y="298.944" style="stroke: #000000; stroke-width: 0.8"/>
      </g>
     </g>
     <g id="text_1">
      <!-- 0 -->
      <g transform="translate(52.191875 318.861344)scale(0.17 -0.17)">
       <defs>
        <path id="DejaVuSans-30" d="M 2034 4250 
Q 1547 4250 1301 3770 
Q 1056 3291 1056 2328 
Q 1056 1369 1301 889 
Q 1547 409 2034 409 
Q 2525 409 2770 889 
Q 3016 1369 3016 2328 
Q 3016 3291 2770 3770 
Q 2525 4250 2034 4250 
z
M 2034 4750 
Q 2819 4750 3233 4129 
Q 3647 3509 3647 2328 
Q 3647 1150 3233 529 
Q 2819 -91 2034 -91 
Q 1250 -91 836 529 
Q 422 1150 422 2328 
Q 422 3509 836 4129 
Q 1250 4750 2034 4750 
z
" transform="scale(0.015625)"/>
       </defs>
       <use xlink:href="#DejaVuSans-30"/>
      </g>
     </g>
    </g>
    <g id="xtick_2">
     <g id="line2d_7">
      <path d="M 144.2304 298.944 
L 144.2304 27.648 
" clip-path="url(#p0b0f2bd1c8)" style="fill: none; stroke: #b0b0b0; stroke-width: 0.8; stroke-linecap: square"/>
     </g>
     <g id="line2d_8">
      <g>
       <use xlink:href="#m60c66e1fb5" x="144.2304" y="298.944" style="stroke: #000000; stroke-width: 0.8"/>
      </g>
     </g>
     <g id="text_2">
      <!-- 2 -->
      <g transform="translate(138.822275 318.861344)scale(0.17 -0.17)">
       <defs>
        <path id="DejaVuSans-32" d="M 1228 531 
L 3431 531 
L 3431 0 
L 469 0 
L 469 531 
Q 828 903 1448 1529 
Q 2069 2156 2228 2338 
Q 2531 2678 2651 2914 
Q 2772 3150 2772 3378 
Q 2772 3750 2511 3984 
Q 2250 4219 1831 4219 
Q 1534 4219 1204 4116 
Q 875 4013 500 3803 
L 500 4441 
Q 881 4594 1212 4672 
Q 1544 4750 1819 4750 
Q 2544 4750 2975 4387 
Q 3406 4025 3406 3419 
Q 3406 3131 3298 2873 
Q 3191 2616 2906 2266 
Q 2828 2175 2409 1742 
Q 1991 1309 1228 531 
z
" transform="scale(0.015625)"/>
       </defs>
       <use xlink:href="#DejaVuSans-32"/>
      </g>
     </g>
    </g>
    <g id="xtick_3">
     <g id="line2d_9">
      <path d="M 230.8608 298.944 
L 230.8608 27.648 
" clip-path="url(#p0b0f2bd1c8)" style="fill: none; stroke: #b0b0b0; stroke-width: 0.8; stroke-linecap: square"/>
     </g>
     <g id="line2d_10">
      <g>
       <use xlink:href="#m60c66e1fb5" x="230.8608" y="298.944" style="stroke: #000000; stroke-width: 0.8"/>
      </g>
     </g>
     <g id="text_3">
      <!-- 4 -->
      <g transform="translate(225.452675 318.861344)scale(0.17 -0.17)">
       <defs>
        <path id="DejaVuSans-34" d="M 2419 4116 
L 825 1625 
L 2419 1625 
L 2419 4116 
z
M 2253 4666 
L 3047 4666 
L 3047 1625 
L 3713 1625 
L 3713 1100 
L 3047 1100 
L 3047 0 
L 2419 0 
L 2419 1100 
L 313 1100 
L 313 1709 
L 2253 4666 
z
" transform="scale(0.015625)"/>
       </defs>
       <use xlink:href="#DejaVuSans-34"/>
      </g>
     </g>
    </g>
    <g id="xtick_4">
     <g id="line2d_11">
      <path d="M 317.4912 298.944 
L 317.4912 27.648 
" clip-path="url(#p0b0f2bd1c8)" style="fill: none; stroke: #b0b0b0; stroke-width: 0.8; stroke-linecap: square"/>
     </g>
     <g id="line2d_12">
      <g>
       <use xlink:href="#m60c66e1fb5" x="317.4912" y="298.944" style="stroke: #000000; stroke-width: 0.8"/>
      </g>
     </g>
     <g id="text_4">
      <!-- 6 -->
      <g transform="translate(312.083075 318.861344)scale(0.17 -0.17)">
       <defs>
        <path id="DejaVuSans-36" d="M 2113 2584 
Q 1688 2584 1439 2293 
Q 1191 2003 1191 1497 
Q 1191 994 1439 701 
Q 1688 409 2113 409 
Q 2538 409 2786 701 
Q 3034 994 3034 1497 
Q 3034 2003 2786 2293 
Q 2538 2584 2113 2584 
z
M 3366 4563 
L 3366 3988 
Q 3128 4100 2886 4159 
Q 2644 4219 2406 4219 
Q 1781 4219 1451 3797 
Q 1122 3375 1075 2522 
Q 1259 2794 1537 2939 
Q 1816 3084 2150 3084 
Q 2853 3084 3261 2657 
Q 3669 2231 3669 1497 
Q 3669 778 3244 343 
Q 2819 -91 2113 -91 
Q 1303 -91 875 529 
Q 447 1150 447 2328 
Q 447 3434 972 4092 
Q 1497 4750 2381 4750 
Q 2619 4750 2861 4703 
Q 3103 4656 3366 4563 
z
" transform="scale(0.015625)"/>
       </defs>
       <use xlink:href="#DejaVuSans-36"/>
      </g>
     </g>
    </g>
    <g id="xtick_5">
     <g id="line2d_13">
      <path d="M 100.9152 298.944 
L 100.9152 27.648 
" clip-path="url(#p0b0f2bd1c8)" style="fill: none; stroke: #b0b0b0; stroke-width: 0.8; stroke-linecap: square"/>
     </g>
     <g id="line2d_14">
      <defs>
       <path id="m1cbf521cd4" d="M 0 0 
L 0 2 
" style="stroke: #000000; stroke-width: 0.6"/>
      </defs>
      <g>
       <use xlink:href="#m1cbf521cd4" x="100.9152" y="298.944" style="stroke: #000000; stroke-width: 0.6"/>
      </g>
     </g>
    </g>
    <g id="xtick_6">
     <g id="line2d_15">
      <path d="M 187.5456 298.944 
L 187.5456 27.648 
" clip-path="url(#p0b0f2bd1c8)" style="fill: none; stroke: #b0b0b0; stroke-width: 0.8; stroke-linecap: square"/>
     </g>
     <g id="line2d_16">
      <g>
       <use xlink:href="#m1cbf521cd4" x="187.5456" y="298.944" style="stroke: #000000; stroke-width: 0.6"/>
      </g>
     </g>
    </g>
    <g id="xtick_7">
     <g id="line2d_17">
      <path d="M 274.176 298.944 
L 274.176 27.648 
" clip-path="url(#p0b0f2bd1c8)" style="fill: none; stroke: #b0b0b0; stroke-width: 0.8; stroke-linecap: square"/>
     </g>
     <g id="line2d_18">
      <g>
       <use xlink:href="#m1cbf521cd4" x="274.176" y="298.944" style="stroke: #000000; stroke-width: 0.6"/>
      </g>
     </g>
    </g>
    <g id="xtick_8">
     <g id="line2d_19">
      <path d="M 360.8064 298.944 
L 360.8064 27.648 
" clip-path="url(#p0b0f2bd1c8)" style="fill: none; stroke: #b0b0b0; stroke-width: 0.8; stroke-linecap: square"/>
     </g>
     <g id="line2d_20">
      <g>
       <use xlink:href="#m1cbf521cd4" x="360.8064" y="298.944" style="stroke: #000000; stroke-width: 0.6"/>
      </g>
     </g>
    </g>
    <g id="text_5">
     <!-- log10(# f-evals / dimension) -->
     <g transform="translate(88.823278 339.314156)scale(0.17 -0.17)">
      <defs>
       <path id="DejaVuSans-6c" d="M 603 4863 
L 1178 4863 
L 1178 0 
L 603 0 
L 603 4863 
z
" transform="scale(0.015625)"/>
       <path id="DejaVuSans-6f" d="M 1959 3097 
Q 1497 3097 1228 2736 
Q 959 2375 959 1747 
Q 959 1119 1226 758 
Q 1494 397 1959 397 
Q 2419 397 2687 759 
Q 2956 1122 2956 1747 
Q 2956 2369 2687 2733 
Q 2419 3097 1959 3097 
z
M 1959 3584 
Q 2709 3584 3137 3096 
Q 3566 2609 3566 1747 
Q 3566 888 3137 398 
Q 2709 -91 1959 -91 
Q 1206 -91 779 398 
Q 353 888 353 1747 
Q 353 2609 779 3096 
Q 1206 3584 1959 3584 
z
" transform="scale(0.015625)"/>
       <path id="DejaVuSans-67" d="M 2906 1791 
Q 2906 2416 2648 2759 
Q 2391 3103 1925 3103 
Q 1463 3103 1205 2759 
Q 947 2416 947 1791 
Q 947 1169 1205 825 
Q 1463 481 1925 481 
Q 2391 481 2648 825 
Q 2906 1169 2906 1791 
z
M 3481 434 
Q 3481 -459 3084 -895 
Q 2688 -1331 1869 -1331 
Q 1566 -1331 1297 -1286 
Q 1028 -1241 775 -1147 
L 775 -588 
Q 1028 -725 1275 -790 
Q 1522 -856 1778 -856 
Q 2344 -856 2625 -561 
Q 2906 -266 2906 331 
L 2906 616 
Q 2728 306 2450 153 
Q 2172 0 1784 0 
Q 1141 0 747 490 
Q 353 981 353 1791 
Q 353 2603 747 3093 
Q 1141 3584 1784 3584 
Q 2172 3584 2450 3431 
Q 2728 3278 2906 2969 
L 2906 3500 
L 3481 3500 
L 3481 434 
z
" transform="scale(0.015625)"/>
       <path id="DejaVuSans-31" d="M 794 531 
L 1825 531 
L 1825 4091 
L 703 3866 
L 703 4441 
L 1819 4666 
L 2450 4666 
L 2450 531 
L 3481 531 
L 3481 0 
L 794 0 
L 794 531 
z
" transform="scale(0.015625)"/>
       <path id="DejaVuSans-28" d="M 1984 4856 
Q 1566 4138 1362 3434 
Q 1159 2731 1159 2009 
Q 1159 1288 1364 580 
Q 1569 -128 1984 -844 
L 1484 -844 
Q 1016 -109 783 600 
Q 550 1309 550 2009 
Q 550 2706 781 3412 
Q 1013 4119 1484 4856 
L 1984 4856 
z
" transform="scale(0.015625)"/>
       <path id="DejaVuSans-23" d="M 3272 2816 
L 2363 2816 
L 2100 1772 
L 3016 1772 
L 3272 2816 
z
M 2803 4594 
L 2478 3297 
L 3391 3297 
L 3719 4594 
L 4219 4594 
L 3897 3297 
L 4872 3297 
L 4872 2816 
L 3775 2816 
L 3519 1772 
L 4513 1772 
L 4513 1294 
L 3397 1294 
L 3072 0 
L 2572 0 
L 2894 1294 
L 1978 1294 
L 1656 0 
L 1153 0 
L 1478 1294 
L 494 1294 
L 494 1772 
L 1594 1772 
L 1856 2816 
L 850 2816 
L 850 3297 
L 1978 3297 
L 2297 4594 
L 2803 4594 
z
" transform="scale(0.015625)"/>
       <path id="DejaVuSans-20" transform="scale(0.015625)"/>
       <path id="DejaVuSans-66" d="M 2375 4863 
L 2375 4384 
L 1825 4384 
Q 1516 4384 1395 4259 
Q 1275 4134 1275 3809 
L 1275 3500 
L 2222 3500 
L 2222 3053 
L 1275 3053 
L 1275 0 
L 697 0 
L 697 3053 
L 147 3053 
L 147 3500 
L 697 3500 
L 697 3744 
Q 697 4328 969 4595 
Q 1241 4863 1831 4863 
L 2375 4863 
z
" transform="scale(0.015625)"/>
       <path id="DejaVuSans-2d" d="M 313 2009 
L 1997 2009 
L 1997 1497 
L 313 1497 
L 313 2009 
z
" transform="scale(0.015625)"/>
       <path id="DejaVuSans-65" d="M 3597 1894 
L 3597 1613 
L 953 1613 
Q 991 1019 1311 708 
Q 1631 397 2203 397 
Q 2534 397 2845 478 
Q 3156 559 3463 722 
L 3463 178 
Q 3153 47 2828 -22 
Q 2503 -91 2169 -91 
Q 1331 -91 842 396 
Q 353 884 353 1716 
Q 353 2575 817 3079 
Q 1281 3584 2069 3584 
Q 2775 3584 3186 3129 
Q 3597 2675 3597 1894 
z
M 3022 2063 
Q 3016 2534 2758 2815 
Q 2500 3097 2075 3097 
Q 1594 3097 1305 2825 
Q 1016 2553 972 2059 
L 3022 2063 
z
" transform="scale(0.015625)"/>
       <path id="DejaVuSans-76" d="M 191 3500 
L 800 3500 
L 1894 563 
L 2988 3500 
L 3597 3500 
L 2284 0 
L 1503 0 
L 191 3500 
z
" transform="scale(0.015625)"/>
       <path id="DejaVuSans-61" d="M 2194 1759 
Q 1497 1759 1228 1600 
Q 959 1441 959 1056 
Q 959 750 1161 570 
Q 1363 391 1709 391 
Q 2188 391 2477 730 
Q 2766 1069 2766 1631 
L 2766 1759 
L 2194 1759 
z
M 3341 1997 
L 3341 0 
L 2766 0 
L 2766 531 
Q 2569 213 2275 61 
Q 1981 -91 1556 -91 
Q 1019 -91 701 211 
Q 384 513 384 1019 
Q 384 1609 779 1909 
Q 1175 2209 1959 2209 
L 2766 2209 
L 2766 2266 
Q 2766 2663 2505 2880 
Q 2244 3097 1772 3097 
Q 1472 3097 1187 3025 
Q 903 2953 641 2809 
L 641 3341 
Q 956 3463 1253 3523 
Q 1550 3584 1831 3584 
Q 2591 3584 2966 3190 
Q 3341 2797 3341 1997 
z
" transform="scale(0.015625)"/>
       <path id="DejaVuSans-73" d="M 2834 3397 
L 2834 2853 
Q 2591 2978 2328 3040 
Q 2066 3103 1784 3103 
Q 1356 3103 1142 2972 
Q 928 2841 928 2578 
Q 928 2378 1081 2264 
Q 1234 2150 1697 2047 
L 1894 2003 
Q 2506 1872 2764 1633 
Q 3022 1394 3022 966 
Q 3022 478 2636 193 
Q 2250 -91 1575 -91 
Q 1294 -91 989 -36 
Q 684 19 347 128 
L 347 722 
Q 666 556 975 473 
Q 1284 391 1588 391 
Q 1994 391 2212 530 
Q 2431 669 2431 922 
Q 2431 1156 2273 1281 
Q 2116 1406 1581 1522 
L 1381 1569 
Q 847 1681 609 1914 
Q 372 2147 372 2553 
Q 372 3047 722 3315 
Q 1072 3584 1716 3584 
Q 2034 3584 2315 3537 
Q 2597 3491 2834 3397 
z
" transform="scale(0.015625)"/>
       <path id="DejaVuSans-2f" d="M 1625 4666 
L 2156 4666 
L 531 -594 
L 0 -594 
L 1625 4666 
z
" transform="scale(0.015625)"/>
       <path id="DejaVuSans-64" d="M 2906 2969 
L 2906 4863 
L 3481 4863 
L 3481 0 
L 2906 0 
L 2906 525 
Q 2725 213 2448 61 
Q 2172 -91 1784 -91 
Q 1150 -91 751 415 
Q 353 922 353 1747 
Q 353 2572 751 3078 
Q 1150 3584 1784 3584 
Q 2172 3584 2448 3432 
Q 2725 3281 2906 2969 
z
M 947 1747 
Q 947 1113 1208 752 
Q 1469 391 1925 391 
Q 2381 391 2643 752 
Q 2906 1113 2906 1747 
Q 2906 2381 2643 2742 
Q 2381 3103 1925 3103 
Q 1469 3103 1208 2742 
Q 947 2381 947 1747 
z
" transform="scale(0.015625)"/>
       <path id="DejaVuSans-69" d="M 603 3500 
L 1178 3500 
L 1178 0 
L 603 0 
L 603 3500 
z
M 603 4863 
L 1178 4863 
L 1178 4134 
L 603 4134 
L 603 4863 
z
" transform="scale(0.015625)"/>
       <path id="DejaVuSans-6d" d="M 3328 2828 
Q 3544 3216 3844 3400 
Q 4144 3584 4550 3584 
Q 5097 3584 5394 3201 
Q 5691 2819 5691 2113 
L 5691 0 
L 5113 0 
L 5113 2094 
Q 5113 2597 4934 2840 
Q 4756 3084 4391 3084 
Q 3944 3084 3684 2787 
Q 3425 2491 3425 1978 
L 3425 0 
L 2847 0 
L 2847 2094 
Q 2847 2600 2669 2842 
Q 2491 3084 2119 3084 
Q 1678 3084 1418 2786 
Q 1159 2488 1159 1978 
L 1159 0 
L 581 0 
L 581 3500 
L 1159 3500 
L 1159 2956 
Q 1356 3278 1631 3431 
Q 1906 3584 2284 3584 
Q 2666 3584 2933 3390 
Q 3200 3197 3328 2828 
z
" transform="scale(0.015625)"/>
       <path id="DejaVuSans-6e" d="M 3513 2113 
L 3513 0 
L 2938 0 
L 2938 2094 
Q 2938 2591 2744 2837 
Q 2550 3084 2163 3084 
Q 1697 3084 1428 2787 
Q 1159 2491 1159 1978 
L 1159 0 
L 581 0 
L 581 3500 
L 1159 3500 
L 1159 2956 
Q 1366 3272 1645 3428 
Q 1925 3584 2291 3584 
Q 2894 3584 3203 3211 
Q 3513 2838 3513 2113 
z
" transform="scale(0.015625)"/>
       <path id="DejaVuSans-29" d="M 513 4856 
L 1013 4856 
Q 1481 4119 1714 3412 
Q 1947 2706 1947 2009 
Q 1947 1309 1714 600 
Q 1481 -109 1013 -844 
L 513 -844 
Q 928 -128 1133 580 
Q 1338 1288 1338 2009 
Q 1338 2731 1133 3434 
Q 928 4138 513 4856 
z
" transform="scale(0.015625)"/>
      </defs>
      <use xlink:href="#DejaVuSans-6c"/>
      <use xlink:href="#DejaVuSans-6f" x="27.783203"/>
      <use xlink:href="#DejaVuSans-67" x="88.964844"/>
      <use xlink:href="#DejaVuSans-31" x="152.441406"/>
      <use xlink:href="#DejaVuSans-30" x="216.064453"/>
      <use xlink:href="#DejaVuSans-28" x="279.6875"/>
      <use xlink:href="#DejaVuSans-23" x="318.701172"/>
      <use xlink:href="#DejaVuSans-20" x="402.490234"/>
      <use xlink:href="#DejaVuSans-66" x="434.277344"/>
      <use xlink:href="#DejaVuSans-2d" x="463.982422"/>
      <use xlink:href="#DejaVuSans-65" x="500.066406"/>
      <use xlink:href="#DejaVuSans-76" x="561.589844"/>
      <use xlink:href="#DejaVuSans-61" x="620.769531"/>
      <use xlink:href="#DejaVuSans-6c" x="682.048828"/>
      <use xlink:href="#DejaVuSans-73" x="709.832031"/>
      <use xlink:href="#DejaVuSans-20" x="761.931641"/>
      <use xlink:href="#DejaVuSans-2f" x="793.71875"/>
      <use xlink:href="#DejaVuSans-20" x="827.410156"/>
      <use xlink:href="#DejaVuSans-64" x="859.197266"/>
      <use xlink:href="#DejaVuSans-69" x="922.673828"/>
      <use xlink:href="#DejaVuSans-6d" x="950.457031"/>
      <use xlink:href="#DejaVuSans-65" x="1047.869141"/>
      <use xlink:href="#DejaVuSans-6e" x="1109.392578"/>
      <use xlink:href="#DejaVuSans-73" x="1172.771484"/>
      <use xlink:href="#DejaVuSans-69" x="1224.871094"/>
      <use xlink:href="#DejaVuSans-6f" x="1252.654297"/>
      <use xlink:href="#DejaVuSans-6e" x="1313.835938"/>
      <use xlink:href="#DejaVuSans-29" x="1377.214844"/>
     </g>
    </g>
   </g>
   <g id="matplotlib.axis_2">
    <g id="ytick_1">
     <g id="line2d_21">
      <path d="M 57.6 298.944 
L 360.8064 298.944 
" clip-path="url(#p0b0f2bd1c8)" style="fill: none; stroke: #b0b0b0; stroke-width: 0.8; stroke-linecap: square"/>
     </g>
     <g id="line2d_22">
      <defs>
       <path id="m02f4eb23c0" d="M 0 0 
L -3.5 0 
" style="stroke: #000000; stroke-width: 0.8"/>
      </defs>
      <g>
       <use xlink:href="#m02f4eb23c0" x="57.6" y="298.944" style="stroke: #000000; stroke-width: 0.8"/>
      </g>
     </g>
     <g id="text_6">
      <!-- 0.0 -->
      <g transform="translate(25.155 305.02275)scale(0.16 -0.16)">
       <defs>
        <path id="DejaVuSans-2e" d="M 684 794 
L 1344 794 
L 1344 0 
L 684 0 
L 684 794 
z
" transform="scale(0.015625)"/>
       </defs>
       <use xlink:href="#DejaVuSans-30"/>
       <use xlink:href="#DejaVuSans-2e" x="63.623047"/>
       <use xlink:href="#DejaVuSans-30" x="95.410156"/>
      </g>
     </g>
    </g>
    <g id="ytick_2">
     <g id="line2d_23">
      <path d="M 57.6 244.6848 
L 360.8064 244.6848 
" clip-path="url(#p0b0f2bd1c8)" style="fill: none; stroke: #b0b0b0; stroke-width: 0.8; stroke-linecap: square"/>
     </g>
     <g id="line2d_24">
      <g>
       <use xlink:href="#m02f4eb23c0" x="57.6" y="244.6848" style="stroke: #000000; stroke-width: 0.8"/>
      </g>
     </g>
     <g id="text_7">
      <!-- 0.2 -->
      <g transform="translate(25.155 250.76355)scale(0.16 -0.16)">
       <use xlink:href="#DejaVuSans-30"/>
       <use xlink:href="#DejaVuSans-2e" x="63.623047"/>
       <use xlink:href="#DejaVuSans-32" x="95.410156"/>
      </g>
     </g>
    </g>
    <g id="ytick_3">
     <g id="line2d_25">
      <path d="M 57.6 190.4256 
L 360.8064 190.4256 
" clip-path="url(#p0b0f2bd1c8)" style="fill: none; stroke: #b0b0b0; stroke-width: 0.8; stroke-linecap: square"/>
     </g>
     <g id="line2d_26">
      <g>
       <use xlink:href="#m02f4eb23c0" x="57.6" y="190.4256" style="stroke: #000000; stroke-width: 0.8"/>
      </g>
     </g>
     <g id="text_8">
      <!-- 0.4 -->
      <g transform="translate(25.155 196.50435)scale(0.16 -0.16)">
       <use xlink:href="#DejaVuSans-30"/>
       <use xlink:href="#DejaVuSans-2e" x="63.623047"/>
       <use xlink:href="#DejaVuSans-34" x="95.410156"/>
      </g>
     </g>
    </g>
    <g id="ytick_4">
     <g id="line2d_27">
      <path d="M 57.6 136.1664 
L 360.8064 136.1664 
" clip-path="url(#p0b0f2bd1c8)" style="fill: none; stroke: #b0b0b0; stroke-width: 0.8; stroke-linecap: square"/>
     </g>
     <g id="line2d_28">
      <g>
       <use xlink:href="#m02f4eb23c0" x="57.6" y="136.1664" style="stroke: #000000; stroke-width: 0.8"/>
      </g>
     </g>
     <g id="text_9">
      <!-- 0.6 -->
      <g transform="translate(25.155 142.24515)scale(0.16 -0.16)">
       <use xlink:href="#DejaVuSans-30"/>
       <use xlink:href="#DejaVuSans-2e" x="63.623047"/>
       <use xlink:href="#DejaVuSans-36" x="95.410156"/>
      </g>
     </g>
    </g>
    <g id="ytick_5">
     <g id="line2d_29">
      <path d="M 57.6 81.9072 
L 360.8064 81.9072 
" clip-path="url(#p0b0f2bd1c8)" style="fill: none; stroke: #b0b0b0; stroke-width: 0.8; stroke-linecap: square"/>
     </g>
     <g id="line2d_30">
      <g>
       <use xlink:href="#m02f4eb23c0" x="57.6" y="81.9072" style="stroke: #000000; stroke-width: 0.8"/>
      </g>
     </g>
     <g id="text_10">
      <!-- 0.8 -->
      <g transform="translate(25.155 87.98595)scale(0.16 -0.16)">
       <defs>
        <path id="DejaVuSans-38" d="M 2034 2216 
Q 1584 2216 1326 1975 
Q 1069 1734 1069 1313 
Q 1069 891 1326 650 
Q 1584 409 2034 409 
Q 2484 409 2743 651 
Q 3003 894 3003 1313 
Q 3003 1734 2745 1975 
Q 2488 2216 2034 2216 
z
M 1403 2484 
Q 997 2584 770 2862 
Q 544 3141 544 3541 
Q 544 4100 942 4425 
Q 1341 4750 2034 4750 
Q 2731 4750 3128 4425 
Q 3525 4100 3525 3541 
Q 3525 3141 3298 2862 
Q 3072 2584 2669 2484 
Q 3125 2378 3379 2068 
Q 3634 1759 3634 1313 
Q 3634 634 3220 271 
Q 2806 -91 2034 -91 
Q 1263 -91 848 271 
Q 434 634 434 1313 
Q 434 1759 690 2068 
Q 947 2378 1403 2484 
z
M 1172 3481 
Q 1172 3119 1398 2916 
Q 1625 2713 2034 2713 
Q 2441 2713 2670 2916 
Q 2900 3119 2900 3481 
Q 2900 3844 2670 4047 
Q 2441 4250 2034 4250 
Q 1625 4250 1398 4047 
Q 1172 3844 1172 3481 
z
" transform="scale(0.015625)"/>
       </defs>
       <use xlink:href="#DejaVuSans-30"/>
       <use xlink:href="#DejaVuSans-2e" x="63.623047"/>
       <use xlink:href="#DejaVuSans-38" x="95.410156"/>
      </g>
     </g>
    </g>
    <g id="ytick_6">
     <g id="line2d_31">
      <path d="M 57.6 27.648 
L 360.8064 27.648 
" clip-path="url(#p0b0f2bd1c8)" style="fill: none; stroke: #b0b0b0; stroke-width: 0.8; stroke-linecap: square"/>
     </g>
     <g id="line2d_32">
      <g>
       <use xlink:href="#m02f4eb23c0" x="57.6" y="27.648" style="stroke: #000000; stroke-width: 0.8"/>
      </g>
     </g>
     <g id="text_11">
      <!-- 1.0 -->
      <g transform="translate(25.155 33.72675)scale(0.16 -0.16)">
       <use xlink:href="#DejaVuSans-31"/>
       <use xlink:href="#DejaVuSans-2e" x="63.623047"/>
       <use xlink:href="#DejaVuSans-30" x="95.410156"/>
      </g>
     </g>
    </g>
    <g id="text_12">
     <!-- Fraction of function,target pairs -->
     <g transform="translate(17.619531 297.681)rotate(-90)scale(0.17 -0.17)">
      <defs>
       <path id="DejaVuSans-46" d="M 628 4666 
L 3309 4666 
L 3309 4134 
L 1259 4134 
L 1259 2759 
L 3109 2759 
L 3109 2228 
L 1259 2228 
L 1259 0 
L 628 0 
L 628 4666 
z
" transform="scale(0.015625)"/>
       <path id="DejaVuSans-72" d="M 2631 2963 
Q 2534 3019 2420 3045 
Q 2306 3072 2169 3072 
Q 1681 3072 1420 2755 
Q 1159 2438 1159 1844 
L 1159 0 
L 581 0 
L 581 3500 
L 1159 3500 
L 1159 2956 
Q 1341 3275 1631 3429 
Q 1922 3584 2338 3584 
Q 2397 3584 2469 3576 
Q 2541 3569 2628 3553 
L 2631 2963 
z
" transform="scale(0.015625)"/>
       <path id="DejaVuSans-63" d="M 3122 3366 
L 3122 2828 
Q 2878 2963 2633 3030 
Q 2388 3097 2138 3097 
Q 1578 3097 1268 2742 
Q 959 2388 959 1747 
Q 959 1106 1268 751 
Q 1578 397 2138 397 
Q 2388 397 2633 464 
Q 2878 531 3122 666 
L 3122 134 
Q 2881 22 2623 -34 
Q 2366 -91 2075 -91 
Q 1284 -91 818 406 
Q 353 903 353 1747 
Q 353 2603 823 3093 
Q 1294 3584 2113 3584 
Q 2378 3584 2631 3529 
Q 2884 3475 3122 3366 
z
" transform="scale(0.015625)"/>
       <path id="DejaVuSans-74" d="M 1172 4494 
L 1172 3500 
L 2356 3500 
L 2356 3053 
L 1172 3053 
L 1172 1153 
Q 1172 725 1289 603 
Q 1406 481 1766 481 
L 2356 481 
L 2356 0 
L 1766 0 
Q 1100 0 847 248 
Q 594 497 594 1153 
L 594 3053 
L 172 3053 
L 172 3500 
L 594 3500 
L 594 4494 
L 1172 4494 
z
" transform="scale(0.015625)"/>
       <path id="DejaVuSans-75" d="M 544 1381 
L 544 3500 
L 1119 3500 
L 1119 1403 
Q 1119 906 1312 657 
Q 1506 409 1894 409 
Q 2359 409 2629 706 
Q 2900 1003 2900 1516 
L 2900 3500 
L 3475 3500 
L 3475 0 
L 2900 0 
L 2900 538 
Q 2691 219 2414 64 
Q 2138 -91 1772 -91 
Q 1169 -91 856 284 
Q 544 659 544 1381 
z
M 1991 3584 
L 1991 3584 
z
" transform="scale(0.015625)"/>
       <path id="DejaVuSans-2c" d="M 750 794 
L 1409 794 
L 1409 256 
L 897 -744 
L 494 -744 
L 750 256 
L 750 794 
z
" transform="scale(0.015625)"/>
       <path id="DejaVuSans-70" d="M 1159 525 
L 1159 -1331 
L 581 -1331 
L 581 3500 
L 1159 3500 
L 1159 2969 
Q 1341 3281 1617 3432 
Q 1894 3584 2278 3584 
Q 2916 3584 3314 3078 
Q 3713 2572 3713 1747 
Q 3713 922 3314 415 
Q 2916 -91 2278 -91 
Q 1894 -91 1617 61 
Q 1341 213 1159 525 
z
M 3116 1747 
Q 3116 2381 2855 2742 
Q 2594 3103 2138 3103 
Q 1681 3103 1420 2742 
Q 1159 2381 1159 1747 
Q 1159 1113 1420 752 
Q 1681 391 2138 391 
Q 2594 391 2855 752 
Q 3116 1113 3116 1747 
z
" transform="scale(0.015625)"/>
      </defs>
      <use xlink:href="#DejaVuSans-46"/>
      <use xlink:href="#DejaVuSans-72" x="50.269531"/>
      <use xlink:href="#DejaVuSans-61" x="91.382812"/>
      <use xlink:href="#DejaVuSans-63" x="152.662109"/>
      <use xlink:href="#DejaVuSans-74" x="207.642578"/>
      <use xlink:href="#DejaVuSans-69" x="246.851562"/>
      <use xlink:href="#DejaVuSans-6f" x="274.634766"/>
      <use xlink:href="#DejaVuSans-6e" x="335.816406"/>
      <use xlink:href="#DejaVuSans-20" x="399.195312"/>
      <use xlink:href="#DejaVuSans-6f" x="430.982422"/>
      <use xlink:href="#DejaVuSans-66" x="492.164062"/>
      <use xlink:href="#DejaVuSans-20" x="527.369141"/>
      <use xlink:href="#DejaVuSans-66" x="559.15625"/>
      <use xlink:href="#DejaVuSans-75" x="594.361328"/>
      <use xlink:href="#DejaVuSans-6e" x="657.740234"/>
      <use xlink:href="#DejaVuSans-63" x="721.119141"/>
      <use xlink:href="#DejaVuSans-74" x="776.099609"/>
      <use xlink:href="#DejaVuSans-69" x="815.308594"/>
      <use xlink:href="#DejaVuSans-6f" x="843.091797"/>
      <use xlink:href="#DejaVuSans-6e" x="904.273438"/>
      <use xlink:href="#DejaVuSans-2c" x="967.652344"/>
      <use xlink:href="#DejaVuSans-74" x="999.439453"/>
      <use xlink:href="#DejaVuSans-61" x="1038.648438"/>
      <use xlink:href="#DejaVuSans-72" x="1099.927734"/>
      <use xlink:href="#DejaVuSans-67" x="1139.291016"/>
      <use xlink:href="#DejaVuSans-65" x="1202.767578"/>
      <use xlink:href="#DejaVuSans-74" x="1264.291016"/>
      <use xlink:href="#DejaVuSans-20" x="1303.5"/>
      <use xlink:href="#DejaVuSans-70" x="1335.287109"/>
      <use xlink:href="#DejaVuSans-61" x="1398.763672"/>
      <use xlink:href="#DejaVuSans-69" x="1460.042969"/>
      <use xlink:href="#DejaVuSans-72" x="1487.826172"/>
      <use xlink:href="#DejaVuSans-73" x="1528.939453"/>
     </g>
    </g>
   </g>
   <g id="line2d_33">
    <defs>
     <path id="m19b346bf46" d="M 0 1.5 
C 0.397805 1.5 0.77937 1.341951 1.06066 1.06066 
C 1.341951 0.77937 1.5 0.397805 1.5 0 
C 1.5 -0.397805 1.341951 -0.77937 1.06066 -1.06066 
C 0.77937 -1.341951 0.397805 -1.5 0 -1.5 
C -0.397805 -1.5 -0.77937 -1.341951 -1.06066 -1.06066 
C -1.341951 -0.77937 -1.5 -0.397805 -1.5 0 
C -1.5 0.397805 -1.341951 0.77937 -1.06066 1.06066 
C -0.77937 1.341951 -0.397805 1.5 0 1.5 
z
" style="stroke: #f5deb3"/>
    </defs>
    <g>
     <use xlink:href="#m19b346bf46" x="130.027253" y="27.648" style="fill: #f5deb3; stroke: #f5deb3"/>
     <use xlink:href="#m19b346bf46" x="130.027253" y="27.648" style="fill: #f5deb3; stroke: #f5deb3"/>
    </g>
   </g>
   <g id="line2d_34">
    <defs>
     <path id="m52ac3a7fdd" d="M 0 1.5 
C 0.397805 1.5 0.77937 1.341951 1.06066 1.06066 
C 1.341951 0.77937 1.5 0.397805 1.5 0 
C 1.5 -0.397805 1.341951 -0.77937 1.06066 -1.06066 
C 0.77937 -1.341951 0.397805 -1.5 0 -1.5 
C -0.397805 -1.5 -0.77937 -1.341951 -1.06066 -1.06066 
C -1.341951 -0.77937 -1.5 -0.397805 -1.5 0 
C -1.5 0.397805 -1.341951 0.77937 -1.06066 1.06066 
C -0.77937 1.341951 -0.397805 1.5 0 1.5 
z
" style="stroke: #000080"/>
    </defs>
    <g>
     <use xlink:href="#m52ac3a7fdd" x="165.45305" y="27.648" style="fill: #000080; stroke: #000080"/>
     <use xlink:href="#m52ac3a7fdd" x="165.45305" y="27.648" style="fill: #000080; stroke: #000080"/>
    </g>
   </g>
   <g id="line2d_35">
    <path d="M 44.560826 298.944 
L 44.560826 267.026824 
L 65.227428 267.026824 
L 65.227428 266.317553 
L 70.639174 266.317553 
L 70.639174 265.253647 
L 74.836851 265.253647 
L 74.836851 264.899012 
L 78.266603 264.899012 
L 78.266603 263.835106 
L 83.678349 263.835106 
L 83.678349 263.480471 
L 85.894031 263.480471 
L 85.894031 262.7712 
L 87.876026 262.7712 
L 87.876026 261.352659 
L 89.668958 261.352659 
L 89.668958 259.579482 
L 91.305777 259.579482 
L 91.305777 259.224847 
L 95.503454 259.224847 
L 95.503454 257.806306 
L 97.857967 257.806306 
L 97.857967 257.097035 
L 99.950294 257.097035 
L 99.950294 256.033129 
L 100.9152 256.033129 
L 100.9152 255.678494 
L 101.833019 255.678494 
L 101.833019 255.323859 
L 102.708132 255.323859 
L 102.708132 253.550682 
L 104.344952 253.550682 
L 104.344952 253.196047 
L 105.112877 253.196047 
L 105.112877 251.777506 
L 107.244765 251.777506 
L 107.244765 251.422871 
L 107.904887 251.422871 
L 107.904887 250.7136 
L 108.542628 250.7136 
L 108.542628 248.585788 
L 109.159456 248.585788 
L 109.159456 247.876518 
L 109.756698 247.876518 
L 109.756698 246.457976 
L 110.897141 246.457976 
L 110.897141 245.748706 
L 111.97238 245.748706 
L 111.97238 244.330165 
L 114.872193 244.330165 
L 114.872193 243.620894 
L 115.747307 243.620894 
L 115.747307 242.202353 
L 116.583514 242.202353 
L 116.583514 240.429176 
L 116.988079 240.429176 
L 116.988079 239.365271 
L 117.384126 239.365271 
L 117.384126 239.010635 
L 118.152051 239.010635 
L 118.152051 235.818918 
L 118.524569 235.818918 
L 118.524569 235.109647 
L 119.599808 235.109647 
L 119.599808 234.400376 
L 119.944983 234.400376 
L 119.944983 233.336471 
L 121.892744 233.336471 
L 121.892744 231.563294 
L 122.499621 231.563294 
L 122.499621 231.208659 
L 123.08753 231.208659 
L 123.08753 229.435482 
L 123.657621 229.435482 
L 123.657621 228.016941 
L 124.481616 228.016941 
L 124.481616 227.662306 
L 124.748451 227.662306 
L 124.748451 226.953035 
L 125.011554 226.953035 
L 125.011554 225.889129 
L 126.274549 225.889129 
L 126.274549 225.179859 
L 127.227236 225.179859 
L 127.227236 224.825224 
L 127.458055 224.825224 
L 127.458055 224.115953 
L 127.686077 224.115953 
L 127.686077 220.924235 
L 127.911368 220.924235 
L 127.911368 220.5696 
L 128.354013 220.5696 
L 128.354013 220.214965 
L 128.57149 220.214965 
L 128.57149 219.860329 
L 130.027253 219.860329 
L 130.027253 218.441788 
L 131.929028 218.441788 
L 131.929028 217.732518 
L 132.109044 217.732518 
L 132.109044 217.377882 
L 132.287354 217.377882 
L 132.287354 216.668612 
L 132.812362 216.668612 
L 132.812362 215.604706 
L 132.984158 215.604706 
L 132.984158 215.250071 
L 133.323114 215.250071 
L 133.323114 214.895435 
L 133.490329 214.895435 
L 133.490329 214.186165 
L 133.656071 214.186165 
L 133.656071 213.831529 
L 134.77709 213.831529 
L 134.77709 213.476894 
L 135.538796 213.476894 
L 135.538796 212.767624 
L 135.981441 212.767624 
L 135.981441 212.412988 
L 136.126705 212.412988 
L 136.126705 211.703718 
L 136.270855 211.703718 
L 136.270855 211.349082 
L 136.696795 211.349082 
L 136.696795 210.639812 
L 136.836659 210.639812 
L 136.836659 210.285176 
L 137.113304 210.285176 
L 137.113304 209.930541 
L 137.250116 209.930541 
L 137.250116 208.512 
L 137.38594 208.512 
L 137.38594 208.157365 
L 137.520791 208.157365 
L 137.520791 206.384188 
L 137.654681 206.384188 
L 137.654681 205.320282 
L 137.787626 205.320282 
L 137.787626 204.611012 
L 137.919637 204.611012 
L 137.919637 203.192471 
L 138.310202 203.192471 
L 138.310202 200.710024 
L 138.566146 200.710024 
L 138.566146 200.000753 
L 138.692823 200.000753 
L 138.692823 198.582212 
L 139.191172 198.582212 
L 139.191172 197.872941 
L 139.796097 197.872941 
L 139.796097 197.163671 
L 140.49723 197.163671 
L 140.49723 196.809035 
L 140.611586 196.809035 
L 140.611586 196.099765 
L 140.950542 196.099765 
L 140.950542 195.745129 
L 141.062184 195.745129 
L 141.173167 194.326588 
L 141.283499 194.326588 
L 141.283499 193.971953 
L 141.50224 193.971953 
L 141.50224 193.262682 
L 141.718467 193.262682 
L 141.718467 192.553412 
L 141.932237 192.553412 
L 142.038218 191.844141 
L 142.45627 191.844141 
L 142.559347 187.943153 
L 142.661862 187.943153 
L 142.661862 187.588518 
L 143.066428 187.588518 
L 143.066428 186.879247 
L 143.265494 186.879247 
L 143.265494 185.460706 
L 143.560197 185.460706 
L 143.657415 184.042165 
L 143.754133 184.042165 
L 143.850356 182.623624 
L 143.946089 182.623624 
L 143.946089 182.268988 
L 144.136106 182.268988 
L 144.136106 181.914353 
L 144.417581 181.914353 
L 144.417581 181.205082 
L 144.602918 181.205082 
L 144.694906 180.141176 
L 144.786447 180.141176 
L 144.786447 179.077271 
L 144.968202 179.077271 
L 145.058426 178.368 
L 145.148219 178.368 
L 145.237585 177.658729 
L 145.415054 177.658729 
L 145.415054 177.304094 
L 145.851536 177.304094 
L 145.93763 175.885553 
L 146.193574 175.885553 
L 146.193574 174.467012 
L 146.362288 174.467012 
L 146.446082 172.693835 
L 146.529503 172.693835 
L 146.529503 170.920659 
L 146.695245 170.920659 
L 146.695245 170.211388 
L 146.859539 170.211388 
L 146.859539 168.438212 
L 147.183884 168.438212 
L 147.264104 164.891859 
L 147.343984 164.891859 
L 147.423525 160.2816 
L 147.502732 160.2816 
L 147.581606 158.508424 
L 147.660152 158.508424 
L 147.660152 158.153788 
L 147.816265 158.153788 
L 147.893838 157.089882 
L 147.971093 157.089882 
L 148.048032 154.607435 
L 148.352679 154.607435 
L 148.428077 152.124988 
L 148.57797 152.124988 
L 148.57797 151.770353 
L 148.726679 151.770353 
L 148.800595 151.061082 
L 148.874221 151.061082 
L 148.874221 149.997176 
L 149.093387 149.997176 
L 149.093387 149.642541 
L 149.238092 149.642541 
L 149.238092 148.224 
L 149.381693 148.224 
L 149.453084 146.805459 
L 149.665646 146.805459 
L 149.665646 143.968376 
L 149.806031 143.968376 
L 149.806031 141.840565 
L 150.083698 141.840565 
L 150.083698 141.131294 
L 150.357325 141.131294 
L 150.425115 139.712753 
L 150.62703 139.712753 
L 150.62703 139.358118 
L 150.760445 139.358118 
L 150.8268 138.294212 
L 150.892922 138.294212 
L 150.958812 137.230306 
L 151.155108 137.230306 
L 151.220087 136.1664 
L 151.668766 136.1664 
L 151.668766 134.393224 
L 151.795018 134.393224 
L 151.857828 131.556141 
L 151.920429 131.556141 
L 151.982822 130.846871 
L 152.045009 130.846871 
L 152.106991 130.1376 
L 152.352898 130.1376 
L 152.413875 127.655153 
L 152.595631 127.655153 
L 152.595631 126.236612 
L 152.775647 126.236612 
L 152.775647 124.463435 
L 152.894708 124.463435 
L 152.953957 120.562447 
L 153.071898 120.562447 
L 153.130592 118.434635 
L 153.421349 118.434635 
L 153.421349 116.661459 
L 153.536404 116.661459 
L 153.536404 115.242918 
L 153.821002 115.242918 
L 153.877408 111.341929 
L 153.989717 111.341929 
L 153.989717 109.568753 
L 154.212341 109.568753 
L 154.212341 109.214118 
L 154.541415 109.214118 
L 154.541415 107.440941 
L 154.757642 107.440941 
L 154.86483 103.185318 
L 155.024477 103.185318 
L 155.13016 100.348235 
L 155.28758 100.348235 
L 155.391799 99.284329 
L 155.547053 99.284329 
L 155.547053 97.865788 
L 155.904407 97.865788 
L 156.005274 95.383341 
L 156.105602 95.383341 
L 156.205398 93.255529 
L 156.304668 93.255529 
L 156.354107 90.773082 
L 156.452597 90.773082 
L 156.452597 90.418447 
L 156.599372 90.418447 
L 156.696589 81.9072 
L 156.88953 81.9072 
L 156.985263 80.843294 
L 157.032948 80.843294 
L 157.127956 75.8784 
L 157.269574 75.8784 
L 157.363398 70.558871 
L 157.410135 70.558871 
L 157.456756 66.303247 
L 157.825621 66.303247 
L 157.825621 65.593976 
L 158.007377 65.593976 
L 158.0976 64.530071 
L 158.14255 64.530071 
L 158.232129 63.8208 
L 158.365703 63.8208 
L 158.365703 63.466165 
L 158.630038 63.466165 
L 158.717331 61.692988 
L 158.890711 61.692988 
L 158.890711 60.983718 
L 159.105212 60.983718 
L 159.105212 60.629082 
L 159.275069 60.629082 
L 159.275069 58.855906 
L 159.734419 58.855906 
L 159.816746 57.437365 
L 159.898714 57.437365 
L 159.939564 56.018824 
L 160.061585 56.018824 
L 160.061585 55.664188 
L 160.18282 55.664188 
L 160.223059 51.7632 
L 160.343261 51.7632 
L 160.343261 51.053929 
L 160.620781 51.053929 
L 160.620781 48.926118 
L 160.855439 48.926118 
L 160.855439 48.571482 
L 160.97168 48.571482 
L 160.97168 47.507576 
L 161.163832 47.507576 
L 161.240147 44.670494 
L 161.354042 44.670494 
L 161.354042 43.606588 
L 161.504837 43.606588 
L 161.504837 40.060235 
L 161.950101 40.060235 
L 161.950101 39.7056 
L 162.205054 39.7056 
L 162.205054 39.350965 
L 162.38507 39.350965 
L 162.38507 38.996329 
L 162.704821 38.996329 
L 162.704821 38.287059 
L 162.949812 38.287059 
L 162.949812 37.223153 
L 163.122872 37.223153 
L 163.191653 34.386071 
L 163.632702 34.386071 
L 163.632702 32.967529 
L 163.832826 32.967529 
L 163.865975 30.839718 
L 164.420735 30.839718 
L 164.420735 30.485082 
L 164.676244 30.485082 
L 164.676244 30.130447 
L 164.959603 30.130447 
L 164.959603 29.066541 
L 165.45305 29.066541 
L 165.45305 27.648 
L 360.8064 27.648 
L 360.8064 27.648 
" style="fill: none; stroke: #000080; stroke-width: 1.5; stroke-linecap: square"/>
   </g>
   <g id="line2d_36">
    <defs>
     <path id="m777f6a0ee5" d="M 0 6 
C 1.591219 6 3.117479 5.367802 4.242641 4.242641 
C 5.367802 3.117479 6 1.591219 6 0 
C 6 -1.591219 5.367802 -3.117479 4.242641 -4.242641 
C 3.117479 -5.367802 1.591219 -6 0 -6 
C -1.591219 -6 -3.117479 -5.367802 -4.242641 -4.242641 
C -5.367802 -3.117479 -6 -1.591219 -6 0 
C -6 1.591219 -5.367802 3.117479 -4.242641 4.242641 
C -3.117479 5.367802 -1.591219 6 0 6 
z
" style="stroke: #000080; stroke-width: 1.5"/>
    </defs>
    <g>
     <use xlink:href="#m777f6a0ee5" x="107.904887" y="250.7136" style="fill-opacity: 0; stroke: #000080; stroke-width: 1.5"/>
     <use xlink:href="#m777f6a0ee5" x="155.13016" y="102.830682" style="fill-opacity: 0; stroke: #000080; stroke-width: 1.5"/>
     <use xlink:href="#m777f6a0ee5" x="165.45305" y="29.066541" style="fill-opacity: 0; stroke: #000080; stroke-width: 1.5"/>
     <use xlink:href="#m777f6a0ee5" x="165.45305" y="27.648" style="fill-opacity: 0; stroke: #000080; stroke-width: 1.5"/>
     <use xlink:href="#m777f6a0ee5" x="165.45305" y="27.648" style="fill-opacity: 0; stroke: #000080; stroke-width: 1.5"/>
     <use xlink:href="#m777f6a0ee5" x="360.8064" y="27.648" style="fill-opacity: 0; stroke: #000080; stroke-width: 1.5"/>
    </g>
   </g>
   <g id="line2d_37">
    <path style="fill: none; stroke: #000080; stroke-width: 1.5; stroke-linecap: square"/>
    <g/>
   </g>
   <g id="line2d_38">
    <defs>
     <path id="mc8ce9c55e1" d="M 0 1.5 
C 0.397805 1.5 0.77937 1.341951 1.06066 1.06066 
C 1.341951 0.77937 1.5 0.397805 1.5 0 
C 1.5 -0.397805 1.341951 -0.77937 1.06066 -1.06066 
C 0.77937 -1.341951 0.397805 -1.5 0 -1.5 
C -0.397805 -1.5 -0.77937 -1.341951 -1.06066 -1.06066 
C -1.341951 -0.77937 -1.5 -0.397805 -1.5 0 
C -1.5 0.397805 -1.341951 0.77937 -1.06066 1.06066 
C -0.77937 1.341951 -0.397805 1.5 0 1.5 
z
" style="stroke: #ff00ff"/>
    </defs>
    <g>
     <use xlink:href="#mc8ce9c55e1" x="164.452864" y="27.648" style="fill: #ff00ff; stroke: #ff00ff"/>
     <use xlink:href="#mc8ce9c55e1" x="164.452864" y="27.648" style="fill: #ff00ff; stroke: #ff00ff"/>
    </g>
   </g>
   <g id="line2d_39">
    <path d="M 44.560826 298.944 
L 44.560826 267.026824 
L 57.6 267.026824 
L 57.6 265.608282 
L 65.227428 265.608282 
L 65.227428 264.544376 
L 70.639174 264.544376 
L 70.639174 263.125835 
L 74.836851 263.125835 
L 74.836851 261.707294 
L 85.894031 261.707294 
L 85.894031 259.224847 
L 87.876026 259.224847 
L 87.876026 258.160941 
L 94.205591 258.160941 
L 94.205591 257.806306 
L 95.503454 257.806306 
L 95.503454 256.033129 
L 96.717523 256.033129 
L 96.717523 255.323859 
L 98.933205 255.323859 
L 98.933205 253.550682 
L 100.9152 253.550682 
L 100.9152 251.422871 
L 102.708132 251.422871 
L 102.708132 251.068235 
L 103.544339 251.068235 
L 103.544339 249.649694 
L 104.344952 249.649694 
L 104.344952 249.295059 
L 106.560633 249.295059 
L 106.560633 247.167247 
L 107.904887 247.167247 
L 107.904887 246.812612 
L 108.542628 246.812612 
L 108.542628 245.748706 
L 109.159456 245.748706 
L 109.159456 243.620894 
L 109.756698 243.620894 
L 109.756698 241.493082 
L 111.442442 241.493082 
L 111.442442 240.429176 
L 111.97238 240.429176 
L 111.97238 238.656 
L 112.989468 238.656 
L 112.989468 237.946729 
L 113.478107 237.946729 
L 113.478107 236.528188 
L 113.954374 236.528188 
L 113.954374 232.6272 
L 114.418881 232.6272 
L 114.418881 231.917929 
L 115.747307 231.917929 
L 115.747307 228.726212 
L 116.170056 228.726212 
L 116.170056 228.371576 
L 116.583514 228.371576 
L 116.583514 228.016941 
L 117.772007 228.016941 
L 117.772007 226.243765 
L 118.524569 226.243765 
L 118.524569 225.889129 
L 119.24818 225.889129 
L 119.24818 225.534494 
L 119.944983 225.534494 
L 119.944983 225.179859 
L 120.944062 225.179859 
L 120.944062 224.470588 
L 121.265635 224.470588 
L 121.265635 224.115953 
L 121.581803 224.115953 
L 121.581803 223.052047 
L 122.19863 223.052047 
L 122.19863 222.697412 
L 122.499621 222.697412 
L 122.499621 222.342776 
L 123.936316 222.342776 
L 123.936316 221.988141 
L 124.210942 221.988141 
L 124.210942 219.505694 
L 125.526971 219.505694 
L 125.526971 218.441788 
L 126.517282 218.441788 
L 126.517282 216.668612 
L 126.993549 216.668612 
L 126.993549 215.604706 
L 127.458055 215.604706 
L 127.458055 214.186165 
L 128.57149 214.186165 
L 128.57149 213.831529 
L 129.622688 213.831529 
L 129.622688 213.476894 
L 129.826058 213.476894 
L 129.826058 212.412988 
L 130.811181 212.412988 
L 130.811181 212.058353 
L 131.191226 212.058353 
L 131.191226 211.703718 
L 131.747272 211.703718 
L 131.747272 210.994447 
L 132.287354 210.994447 
L 132.287354 210.639812 
L 132.46399 210.639812 
L 132.46399 210.285176 
L 132.638982 210.285176 
L 132.638982 209.930541 
L 132.812362 209.930541 
L 132.812362 209.575906 
L 133.323114 209.575906 
L 133.323114 209.221271 
L 133.983236 209.221271 
L 133.983236 208.866635 
L 134.304809 208.866635 
L 134.304809 208.157365 
L 134.931919 208.157365 
L 134.931919 207.802729 
L 135.085483 207.802729 
L 135.085483 203.901741 
L 135.687504 203.901741 
L 135.687504 203.547106 
L 135.835047 203.547106 
L 135.835047 203.192471 
L 136.126705 203.192471 
L 136.126705 202.837835 
L 136.413909 202.837835 
L 136.413909 202.4832 
L 136.555884 202.4832 
L 136.555884 201.419294 
L 137.520791 201.419294 
L 137.520791 201.064659 
L 137.654681 201.064659 
L 137.654681 200.710024 
L 138.050729 200.710024 
L 138.050729 200.355388 
L 138.310202 200.355388 
L 138.310202 200.000753 
L 138.943648 200.000753 
L 138.943648 199.646118 
L 139.067817 199.646118 
L 139.067817 199.291482 
L 139.313723 199.291482 
L 139.313723 198.936847 
L 139.796097 198.936847 
L 139.796097 197.163671 
L 139.914782 197.163671 
L 139.914782 196.099765 
L 140.14993 196.099765 
L 140.14993 194.326588 
L 140.26641 194.326588 
L 140.26641 193.971953 
L 140.49723 193.971953 
L 140.49723 192.908047 
L 140.611586 192.908047 
L 140.611586 192.553412 
L 140.725251 192.553412 
L 140.725251 192.198776 
L 141.062184 192.198776 
L 141.062184 191.489506 
L 141.283499 191.489506 
L 141.393187 190.780235 
L 141.825656 190.780235 
L 141.825656 190.070965 
L 142.248405 190.070965 
L 142.352625 189.007059 
L 142.45627 189.007059 
L 142.559347 187.233882 
L 142.763822 187.233882 
L 142.763822 186.879247 
L 143.066428 186.879247 
L 143.166224 185.460706 
L 143.657415 185.460706 
L 143.754133 184.751435 
L 143.850356 184.751435 
L 143.946089 183.332894 
L 144.2304 183.332894 
L 144.2304 182.268988 
L 144.417581 182.268988 
L 144.510478 179.786541 
L 144.602918 179.786541 
L 144.694906 178.368 
L 144.786447 178.368 
L 144.877544 176.594824 
L 144.968202 176.594824 
L 145.058426 174.112376 
L 145.148219 174.112376 
L 145.148219 173.757741 
L 145.326529 173.757741 
L 145.326529 173.048471 
L 145.590864 173.048471 
L 145.678157 171.275294 
L 145.765046 171.275294 
L 145.765046 170.566024 
L 145.93763 170.566024 
L 145.93763 170.211388 
L 146.108646 170.211388 
L 146.193574 167.019671 
L 146.27812 167.019671 
L 146.362288 166.3104 
L 146.529503 166.3104 
L 146.612557 164.537224 
L 146.777571 164.537224 
L 146.777571 163.827953 
L 146.941151 163.827953 
L 147.022411 162.054776 
L 147.103321 162.054776 
L 147.103321 160.990871 
L 147.264104 160.990871 
L 147.343984 158.863059 
L 147.423525 158.863059 
L 147.502732 155.671341 
L 147.581606 155.671341 
L 147.581606 155.316706 
L 147.73837 155.316706 
L 147.73837 154.962071 
L 147.971093 154.962071 
L 147.971093 153.898165 
L 148.124658 153.898165 
L 148.200973 149.642541 
L 148.276979 149.642541 
L 148.352679 147.514729 
L 148.428077 147.514729 
L 148.503173 146.450824 
L 148.57797 146.450824 
L 148.57797 146.096188 
L 148.800595 146.096188 
L 148.800595 143.613741 
L 149.020615 143.613741 
L 149.020615 141.131294 
L 149.165879 141.131294 
L 149.165879 139.003482 
L 149.381693 139.003482 
L 149.381693 135.457129 
L 149.524205 135.457129 
L 149.524205 134.393224 
L 149.875833 134.393224 
L 149.875833 134.038588 
L 150.014665 134.038588 
L 150.083698 131.201506 
L 150.152479 131.201506 
L 150.152479 129.782965 
L 150.289291 129.782965 
L 150.289291 129.428329 
L 150.492661 129.428329 
L 150.559965 126.591247 
L 150.62703 126.591247 
L 150.693856 124.818071 
L 150.760445 124.818071 
L 150.760445 122.335624 
L 150.958812 122.335624 
L 151.024471 121.271718 
L 151.089903 121.271718 
L 151.155108 119.853176 
L 151.220087 119.853176 
L 151.284843 117.725365 
L 151.349377 117.725365 
L 151.349377 115.242918 
L 151.477784 115.242918 
L 151.477784 114.179012 
L 151.731998 114.179012 
L 151.795018 110.987294 
L 151.982822 110.987294 
L 152.045009 108.150212 
L 152.106991 108.150212 
L 152.106991 107.795576 
L 152.291722 107.795576 
L 152.291722 107.086306 
L 152.413875 107.086306 
L 152.474656 102.476047 
L 152.715833 102.476047 
L 152.715833 100.348235 
L 152.835271 100.348235 
L 152.894708 96.092612 
L 153.01302 96.092612 
L 153.01302 92.546259 
L 153.189104 92.546259 
L 153.247435 89.354541 
L 153.305585 89.354541 
L 153.305585 88.999906 
L 153.478964 88.999906 
L 153.478964 86.872094 
L 153.764426 86.872094 
L 153.821002 84.744282 
L 153.933646 84.744282 
L 153.989717 82.261835 
L 154.101358 82.261835 
L 154.212341 79.070118 
L 154.377597 79.070118 
L 154.432362 78.006212 
L 154.541415 78.006212 
L 154.649839 71.268141 
L 154.757642 71.268141 
L 154.86483 69.140329 
L 154.971412 69.140329 
L 155.077392 67.721788 
L 155.13016 67.721788 
L 155.18278 65.948612 
L 155.547053 65.948612 
L 155.649849 64.530071 
L 155.701037 64.530071 
L 155.752086 61.338353 
L 155.904407 61.338353 
L 156.005274 56.373459 
L 156.055505 56.373459 
L 156.155566 55.664188 
L 156.304668 55.664188 
L 156.354107 52.117835 
L 156.452597 52.117835 
L 156.452597 51.408565 
L 156.648044 51.408565 
L 156.745011 49.280753 
L 156.985263 49.280753 
L 157.032948 46.798306 
L 157.316545 46.798306 
L 157.316545 46.443671 
L 157.456756 46.443671 
L 157.503261 45.7344 
L 157.916719 45.7344 
L 157.962102 43.961224 
L 158.187393 43.961224 
L 158.232129 41.478776 
L 158.321284 41.478776 
L 158.321284 41.124141 
L 158.454228 41.124141 
L 158.498335 40.060235 
L 158.760826 40.060235 
L 158.760826 39.350965 
L 159.105212 39.350965 
L 159.14782 37.577788 
L 159.401463 37.577788 
L 159.401463 37.223153 
L 159.527013 37.223153 
L 159.568678 36.159247 
L 160.343261 36.159247 
L 160.422971 35.095341 
L 160.581385 35.095341 
L 160.660094 34.031435 
L 161.163832 34.031435 
L 161.163832 33.322165 
L 161.278189 33.322165 
L 161.278189 32.967529 
L 161.42959 32.967529 
L 161.42959 30.839718 
L 162.456597 30.839718 
L 162.456597 29.421176 
L 163.019227 29.421176 
L 163.019227 29.066541 
L 163.430425 29.066541 
L 163.430425 28.357271 
L 163.79962 28.357271 
L 163.79962 28.002635 
L 164.452864 28.002635 
L 164.452864 27.648 
L 360.8064 27.648 
L 360.8064 27.648 
" style="fill: none; stroke: #ff00ff; stroke-width: 1.5; stroke-linecap: square"/>
   </g>
   <g id="line2d_40">
    <defs>
     <path id="m17c9c1fa20" d="M -0 8.485281 
L 5.091169 0 
L 0 -8.485281 
L -5.091169 -0 
z
" style="stroke: #ff00ff; stroke-width: 1.5; stroke-linejoin: miter"/>
    </defs>
    <g>
     <use xlink:href="#m17c9c1fa20" x="87.876026" y="258.160941" style="fill-opacity: 0; stroke: #ff00ff; stroke-width: 1.5; stroke-linejoin: miter"/>
     <use xlink:href="#m17c9c1fa20" x="145.058426" y="174.821647" style="fill-opacity: 0; stroke: #ff00ff; stroke-width: 1.5; stroke-linejoin: miter"/>
     <use xlink:href="#m17c9c1fa20" x="164.452864" y="28.002635" style="fill-opacity: 0; stroke: #ff00ff; stroke-width: 1.5; stroke-linejoin: miter"/>
     <use xlink:href="#m17c9c1fa20" x="164.452864" y="27.648" style="fill-opacity: 0; stroke: #ff00ff; stroke-width: 1.5; stroke-linejoin: miter"/>
     <use xlink:href="#m17c9c1fa20" x="164.452864" y="27.648" style="fill-opacity: 0; stroke: #ff00ff; stroke-width: 1.5; stroke-linejoin: miter"/>
     <use xlink:href="#m17c9c1fa20" x="360.8064" y="27.648" style="fill-opacity: 0; stroke: #ff00ff; stroke-width: 1.5; stroke-linejoin: miter"/>
    </g>
   </g>
   <g id="line2d_41">
    <path style="fill: none; stroke: #ff00ff; stroke-width: 1.5; stroke-linecap: square"/>
    <g/>
   </g>
   <g id="line2d_42">
    <defs>
     <path id="m7e24054f36" d="M 0 1.5 
C 0.397805 1.5 0.77937 1.341951 1.06066 1.06066 
C 1.341951 0.77937 1.5 0.397805 1.5 0 
C 1.5 -0.397805 1.341951 -0.77937 1.06066 -1.06066 
C 0.77937 -1.341951 0.397805 -1.5 0 -1.5 
C -0.397805 -1.5 -0.77937 -1.341951 -1.06066 -1.06066 
C -1.341951 -0.77937 -1.5 -0.397805 -1.5 0 
C -1.5 0.397805 -1.341951 0.77937 -1.06066 1.06066 
C -0.77937 1.341951 -0.397805 1.5 0 1.5 
z
" style="stroke: #ff7500"/>
    </defs>
    <g>
     <use xlink:href="#m7e24054f36" x="169.662898" y="27.648" style="fill: #ff7500; stroke: #ff7500"/>
     <use xlink:href="#m7e24054f36" x="169.662898" y="27.648" style="fill: #ff7500; stroke: #ff7500"/>
    </g>
   </g>
   <g id="line2d_43">
    <path d="M 44.560826 298.944 
L 44.560826 267.026824 
L 57.6 267.026824 
L 57.6 264.189741 
L 65.227428 264.189741 
L 65.227428 260.998024 
L 70.639174 260.998024 
L 70.639174 259.934118 
L 74.836851 259.934118 
L 74.836851 259.579482 
L 92.811505 259.579482 
L 92.811505 259.224847 
L 94.205591 259.224847 
L 94.205591 258.870212 
L 97.857967 258.870212 
L 97.857967 258.515576 
L 101.833019 258.515576 
L 101.833019 253.905318 
L 102.708132 253.905318 
L 102.708132 253.550682 
L 103.544339 253.550682 
L 103.544339 252.132141 
L 104.344952 252.132141 
L 104.344952 251.422871 
L 111.97238 251.422871 
L 111.97238 250.004329 
L 113.478107 250.004329 
L 113.478107 249.649694 
L 113.954374 249.649694 
L 113.954374 246.457976 
L 115.314838 246.457976 
L 115.314838 245.394071 
L 115.747307 245.394071 
L 115.747307 245.039435 
L 116.170056 245.039435 
L 116.170056 244.330165 
L 116.583514 244.330165 
L 116.583514 243.975529 
L 116.988079 243.975529 
L 116.988079 243.620894 
L 117.772007 243.620894 
L 117.772007 241.847718 
L 118.152051 241.847718 
L 118.152051 240.429176 
L 120.28394 240.429176 
L 120.28394 236.173553 
L 121.892744 236.173553 
L 121.892744 234.755012 
L 122.499621 234.755012 
L 122.499621 233.336471 
L 123.374735 233.336471 
L 123.374735 232.272565 
L 124.748451 232.272565 
L 124.748451 231.917929 
L 125.526971 231.917929 
L 125.526971 231.563294 
L 126.274549 231.563294 
L 126.274549 230.144753 
L 126.756923 230.144753 
L 126.756923 229.435482 
L 127.227236 229.435482 
L 127.227236 228.726212 
L 130.027253 228.726212 
L 130.027253 228.371576 
L 131.191226 228.371576 
L 131.191226 227.662306 
L 131.747272 227.662306 
L 131.747272 227.307671 
L 131.929028 227.307671 
L 131.929028 226.5984 
L 132.109044 226.5984 
L 132.109044 226.243765 
L 132.984158 226.243765 
L 132.984158 225.889129 
L 134.14471 225.889129 
L 134.14471 224.825224 
L 134.463557 224.825224 
L 134.463557 224.115953 
L 134.620977 224.115953 
L 134.620977 223.761318 
L 135.835047 223.761318 
L 135.835047 223.406682 
L 136.126705 223.406682 
L 136.126705 222.697412 
L 136.270855 222.697412 
L 136.270855 222.342776 
L 136.413909 222.342776 
L 136.413909 221.633506 
L 136.836659 221.633506 
L 136.836659 221.278871 
L 136.97549 221.278871 
L 136.97549 220.924235 
L 137.520791 220.924235 
L 137.520791 220.5696 
L 137.787626 220.5696 
L 137.787626 219.860329 
L 138.566146 219.860329 
L 138.566146 218.441788 
L 138.692823 218.441788 
L 138.692823 217.377882 
L 139.191172 217.377882 
L 139.191172 217.023247 
L 139.435481 217.023247 
L 139.435481 215.959341 
L 139.796097 215.959341 
L 139.796097 213.476894 
L 140.26641 213.476894 
L 140.26641 213.122259 
L 140.382174 213.122259 
L 140.382174 212.767624 
L 140.611586 212.767624 
L 140.611586 211.703718 
L 140.950542 211.703718 
L 140.950542 210.285176 
L 141.173167 210.285176 
L 141.283499 209.221271 
L 141.50224 209.221271 
L 141.610664 207.093459 
L 141.825656 207.093459 
L 141.825656 206.738824 
L 142.248405 206.738824 
L 142.248405 206.029553 
L 142.45627 206.029553 
L 142.45627 205.674918 
L 142.865233 205.674918 
L 142.865233 204.965647 
L 143.364242 204.965647 
L 143.364242 204.256376 
L 143.657415 204.256376 
L 143.657415 203.901741 
L 144.417581 203.901741 
L 144.510478 201.773929 
L 144.602918 201.773929 
L 144.602918 201.419294 
L 144.786447 201.419294 
L 144.786447 201.064659 
L 145.058426 201.064659 
L 145.058426 200.710024 
L 145.326529 200.710024 
L 145.326529 200.355388 
L 145.503164 200.355388 
L 145.590864 198.227576 
L 145.678157 198.227576 
L 145.765046 196.809035 
L 145.93763 196.809035 
L 146.023332 195.390494 
L 146.529503 195.390494 
L 146.529503 193.617318 
L 146.777571 193.617318 
L 146.859539 191.844141 
L 147.103321 191.844141 
L 147.103321 191.134871 
L 147.73837 191.134871 
L 147.73837 185.106071 
L 147.893838 185.106071 
L 147.893838 184.751435 
L 148.048032 184.751435 
L 148.048032 184.3968 
L 148.200973 184.3968 
L 148.200973 183.687529 
L 148.726679 183.687529 
L 148.726679 182.978259 
L 149.093387 182.978259 
L 149.093387 182.623624 
L 149.238092 182.623624 
L 149.238092 182.268988 
L 149.453084 182.268988 
L 149.524205 180.495812 
L 149.595059 180.495812 
L 149.665646 179.431906 
L 149.875833 179.431906 
L 149.945377 178.013365 
L 150.289291 178.013365 
L 150.289291 177.658729 
L 150.492661 177.658729 
L 150.492661 177.304094 
L 150.62703 177.304094 
L 150.62703 176.949459 
L 150.8268 176.949459 
L 150.892922 172.693835 
L 151.089903 172.693835 
L 151.089903 171.629929 
L 151.284843 171.629929 
L 151.349377 168.438212 
L 151.477784 168.438212 
L 151.54166 167.728941 
L 151.60532 167.728941 
L 151.60532 166.3104 
L 151.731998 166.3104 
L 151.731998 165.955765 
L 151.920429 165.955765 
L 151.982822 164.537224 
L 152.352898 164.537224 
L 152.352898 164.182588 
L 152.655828 164.182588 
L 152.715833 162.764047 
L 152.835271 162.764047 
L 152.835271 161.700141 
L 153.071898 161.700141 
L 153.071898 160.990871 
L 153.189104 160.990871 
L 153.189104 160.636235 
L 153.363556 160.636235 
L 153.363556 158.508424 
L 153.593669 158.508424 
L 153.593669 157.444518 
L 153.707679 157.444518 
L 153.764426 156.025976 
L 153.821002 156.025976 
L 153.821002 154.962071 
L 153.933646 154.962071 
L 153.989717 153.543529 
L 154.04562 153.543529 
L 154.04562 152.479624 
L 154.156931 152.479624 
L 154.212341 151.061082 
L 154.322673 151.061082 
L 154.322673 150.351812 
L 154.703817 150.351812 
L 154.703817 149.287906 
L 154.971412 149.287906 
L 154.971412 147.514729 
L 155.235253 147.514729 
L 155.235253 144.323012 
L 155.495444 144.323012 
L 155.547053 141.840565 
L 155.701037 141.840565 
L 155.802997 140.776659 
L 155.954908 140.776659 
L 156.005274 137.939576 
L 156.105602 137.939576 
L 156.205398 131.910776 
L 156.304668 131.910776 
L 156.403417 130.492235 
L 156.599372 130.492235 
L 156.648044 127.300518 
L 156.88953 127.300518 
L 156.88953 126.591247 
L 157.080512 126.591247 
L 157.127956 122.335624 
L 157.269574 122.335624 
L 157.269574 121.626353 
L 157.410135 121.626353 
L 157.503261 119.498541 
L 157.549652 119.498541 
L 157.642093 117.725365 
L 157.779907 117.725365 
L 157.779907 115.952188 
L 157.962102 115.952188 
L 158.052543 115.242918 
L 158.0976 115.242918 
L 158.0976 114.888282 
L 158.321284 114.888282 
L 158.410018 112.760471 
L 158.454228 112.760471 
L 158.454228 112.0512 
L 158.804221 112.0512 
L 158.890711 108.504847 
L 158.933807 108.504847 
L 159.019705 105.313129 
L 159.062507 105.313129 
L 159.14782 102.121412 
L 159.190332 102.121412 
L 159.275069 98.929694 
L 159.359426 98.929694 
L 159.443406 96.447247 
L 159.485256 96.447247 
L 159.485256 93.610165 
L 159.693121 93.610165 
L 159.734419 92.900894 
L 159.816746 92.900894 
L 159.816746 92.546259 
L 160.061585 92.546259 
L 160.142495 91.127718 
L 160.343261 91.127718 
L 160.383158 90.418447 
L 160.4627 90.418447 
L 160.541906 87.936 
L 160.620781 87.936 
L 160.620781 87.581365 
L 160.777545 87.581365 
L 160.855439 85.098918 
L 160.894266 85.098918 
L 160.933013 84.389647 
L 161.125559 84.389647 
L 161.125559 84.035012 
L 161.240147 84.035012 
L 161.240147 82.971106 
L 161.42959 82.971106 
L 161.42959 82.616471 
L 161.579783 82.616471 
L 161.654432 80.843294 
L 161.728786 80.843294 
L 161.839769 76.587671 
L 161.950101 76.587671 
L 161.950101 75.523765 
L 162.168843 75.523765 
L 162.168843 75.169129 
L 162.349204 75.169129 
L 162.349204 74.459859 
L 162.634233 74.459859 
L 162.740015 71.268141 
L 162.775144 71.268141 
L 162.845206 68.076424 
L 162.949812 68.076424 
L 163.053839 63.111529 
L 163.122872 63.111529 
L 163.122872 62.756894 
L 163.362513 62.756894 
L 163.362513 61.692988 
L 163.699647 61.692988 
L 163.699647 60.983718 
L 163.932096 60.983718 
L 163.932096 60.629082 
L 164.09639 60.629082 
L 164.09639 59.565176 
L 164.259262 59.565176 
L 164.259262 59.210541 
L 164.388551 59.210541 
L 164.388551 56.728094 
L 164.580835 56.728094 
L 164.580835 54.954918 
L 164.70794 54.954918 
L 164.802709 51.053929 
L 164.834193 51.053929 
L 164.928329 49.280753 
L 165.021997 49.280753 
L 165.021997 45.379765 
L 165.146166 45.379765 
L 165.17708 43.606588 
L 165.269521 43.606588 
L 165.361509 40.060235 
L 165.544147 40.060235 
L 165.544147 38.996329 
L 165.755007 38.996329 
L 165.755007 38.287059 
L 166.022686 38.287059 
L 166.022686 37.223153 
L 166.689935 37.223153 
L 166.689935 36.513882 
L 166.83191 36.513882 
L 166.83191 36.159247 
L 166.944723 36.159247 
L 166.944723 34.031435 
L 167.223831 34.031435 
L 167.223831 33.322165 
L 167.361848 33.322165 
L 167.416772 31.903624 
L 167.689013 31.903624 
L 167.689013 31.548988 
L 168.037137 31.548988 
L 168.090128 30.130447 
L 168.248209 30.130447 
L 168.248209 28.711906 
L 169.491772 28.711906 
L 169.491772 28.357271 
L 169.662898 28.357271 
L 169.662898 27.648 
L 360.8064 27.648 
L 360.8064 27.648 
" style="fill: none; stroke: #ff7500; stroke-width: 1.5; stroke-linecap: square"/>
   </g>
   <g id="line2d_44">
    <defs>
     <path id="mbad30b8d63" d="M 0 -6 
L -1.347084 -1.854102 
L -5.706339 -1.854102 
L -2.179628 0.708204 
L -3.526712 4.854102 
L -0 2.291796 
L 3.526712 4.854102 
L 2.179628 0.708204 
L 5.706339 -1.854102 
L 1.347084 -1.854102 
z
" style="stroke: #ff7500; stroke-width: 1.5; stroke-linejoin: bevel"/>
    </defs>
    <g>
     <use xlink:href="#mbad30b8d63" x="118.152051" y="240.429176" style="fill-opacity: 0; stroke: #ff7500; stroke-width: 1.5; stroke-linejoin: bevel"/>
     <use xlink:href="#mbad30b8d63" x="158.321284" y="114.888282" style="fill-opacity: 0; stroke: #ff7500; stroke-width: 1.5; stroke-linejoin: bevel"/>
     <use xlink:href="#mbad30b8d63" x="169.662898" y="28.357271" style="fill-opacity: 0; stroke: #ff7500; stroke-width: 1.5; stroke-linejoin: bevel"/>
     <use xlink:href="#mbad30b8d63" x="169.662898" y="27.648" style="fill-opacity: 0; stroke: #ff7500; stroke-width: 1.5; stroke-linejoin: bevel"/>
     <use xlink:href="#mbad30b8d63" x="169.662898" y="27.648" style="fill-opacity: 0; stroke: #ff7500; stroke-width: 1.5; stroke-linejoin: bevel"/>
     <use xlink:href="#mbad30b8d63" x="360.8064" y="27.648" style="fill-opacity: 0; stroke: #ff7500; stroke-width: 1.5; stroke-linejoin: bevel"/>
    </g>
   </g>
   <g id="line2d_45">
    <path style="fill: none; stroke: #ff7500; stroke-width: 1.5; stroke-linecap: square"/>
    <g/>
   </g>
   <g id="line2d_46">
    <defs>
     <path id="mf2bc2dab84" d="M 0 1.5 
C 0.397805 1.5 0.77937 1.341951 1.06066 1.06066 
C 1.341951 0.77937 1.5 0.397805 1.5 0 
C 1.5 -0.397805 1.341951 -0.77937 1.06066 -1.06066 
C 0.77937 -1.341951 0.397805 -1.5 0 -1.5 
C -0.397805 -1.5 -0.77937 -1.341951 -1.06066 -1.06066 
C -1.341951 -0.77937 -1.5 -0.397805 -1.5 0 
C -1.5 0.397805 -1.341951 0.77937 -1.06066 1.06066 
C -0.77937 1.341951 -0.397805 1.5 0 1.5 
z
" style="stroke: #6495ed"/>
    </defs>
    <g>
     <use xlink:href="#mf2bc2dab84" x="167.16834" y="27.648" style="fill: #6495ed; stroke: #6495ed"/>
     <use xlink:href="#mf2bc2dab84" x="167.16834" y="27.648" style="fill: #6495ed; stroke: #6495ed"/>
    </g>
   </g>
   <g id="line2d_47">
    <path d="M 44.560826 298.944 
L 44.560826 267.026824 
L 57.6 267.026824 
L 57.6 265.608282 
L 65.227428 265.608282 
L 65.227428 263.480471 
L 81.166416 263.480471 
L 81.166416 263.125835 
L 83.678349 263.125835 
L 83.678349 261.352659 
L 87.876026 261.352659 
L 87.876026 258.870212 
L 94.205591 258.870212 
L 94.205591 256.033129 
L 96.717523 256.033129 
L 96.717523 255.678494 
L 97.857967 255.678494 
L 97.857967 255.323859 
L 98.933205 255.323859 
L 98.933205 254.614588 
L 99.950294 254.614588 
L 99.950294 251.422871 
L 100.9152 251.422871 
L 100.9152 251.068235 
L 102.708132 251.068235 
L 102.708132 249.649694 
L 103.544339 249.649694 
L 103.544339 246.457976 
L 105.850679 246.457976 
L 105.850679 242.556988 
L 109.756698 242.556988 
L 109.756698 242.202353 
L 111.97238 242.202353 
L 111.97238 239.719906 
L 112.487797 239.719906 
L 112.487797 239.365271 
L 114.418881 239.365271 
L 114.418881 239.010635 
L 115.314838 239.010635 
L 115.314838 237.946729 
L 116.170056 237.946729 
L 116.170056 236.173553 
L 116.988079 236.173553 
L 116.988079 235.818918 
L 117.772007 235.818918 
L 117.772007 234.755012 
L 119.24818 234.755012 
L 119.24818 234.400376 
L 119.944983 234.400376 
L 119.944983 234.045741 
L 120.28394 234.045741 
L 120.28394 230.499388 
L 123.374735 230.499388 
L 123.374735 230.144753 
L 124.210942 230.144753 
L 124.210942 229.435482 
L 124.481616 229.435482 
L 124.481616 229.080847 
L 126.028642 229.080847 
L 126.028642 226.953035 
L 127.227236 226.953035 
L 127.227236 226.5984 
L 127.458055 226.5984 
L 127.458055 226.243765 
L 127.911368 226.243765 
L 127.911368 225.889129 
L 129.622688 225.889129 
L 129.622688 225.534494 
L 130.4233 225.534494 
L 130.4233 225.179859 
L 131.002163 225.179859 
L 131.002163 224.470588 
L 131.563744 224.470588 
L 131.563744 224.115953 
L 132.46399 224.115953 
L 132.46399 223.761318 
L 132.984158 223.761318 
L 132.984158 223.406682 
L 133.154399 223.406682 
L 133.154399 222.697412 
L 134.14471 222.697412 
L 134.14471 219.860329 
L 134.304809 219.860329 
L 134.304809 219.505694 
L 134.463557 219.505694 
L 134.463557 218.087153 
L 134.620977 218.087153 
L 134.620977 217.732518 
L 135.085483 217.732518 
L 135.085483 217.023247 
L 135.237805 217.023247 
L 135.237805 216.668612 
L 135.981441 216.668612 
L 135.981441 215.959341 
L 136.413909 215.959341 
L 136.413909 215.604706 
L 136.555884 215.604706 
L 136.555884 215.250071 
L 136.836659 215.250071 
L 136.836659 214.5408 
L 137.520791 214.5408 
L 137.520791 214.186165 
L 137.787626 214.186165 
L 137.787626 213.122259 
L 137.919637 213.122259 
L 137.919637 212.767624 
L 139.191172 212.767624 
L 139.191172 212.412988 
L 139.313723 212.412988 
L 139.313723 212.058353 
L 139.435481 212.058353 
L 139.435481 211.703718 
L 139.556456 211.703718 
L 139.556456 210.285176 
L 140.14993 210.285176 
L 140.14993 209.930541 
L 140.611586 209.930541 
L 140.611586 209.575906 
L 140.950542 209.575906 
L 140.950542 209.221271 
L 141.50224 209.221271 
L 141.50224 208.866635 
L 141.718467 208.866635 
L 141.718467 208.512 
L 141.932237 208.512 
L 141.932237 207.802729 
L 143.066428 207.802729 
L 143.066428 206.738824 
L 143.265494 206.738824 
L 143.265494 206.384188 
L 143.657415 206.384188 
L 143.657415 205.320282 
L 143.850356 205.320282 
L 143.850356 204.965647 
L 144.2304 204.965647 
L 144.2304 204.256376 
L 144.510478 204.256376 
L 144.510478 203.901741 
L 144.786447 203.901741 
L 144.877544 202.837835 
L 144.968202 202.837835 
L 145.058426 199.291482 
L 145.326529 199.291482 
L 145.326529 198.936847 
L 145.503164 198.936847 
L 145.503164 197.872941 
L 145.678157 197.872941 
L 145.765046 196.809035 
L 145.851536 196.809035 
L 145.851536 195.390494 
L 146.023332 195.390494 
L 146.023332 193.971953 
L 146.193574 193.971953 
L 146.193574 189.361694 
L 146.859539 189.361694 
L 146.859539 187.943153 
L 147.022411 187.943153 
L 147.103321 186.524612 
L 147.183884 186.524612 
L 147.183884 186.169976 
L 147.343984 186.169976 
L 147.423525 185.106071 
L 147.502732 185.106071 
L 147.502732 181.914353 
L 147.660152 181.914353 
L 147.660152 180.850447 
L 148.124658 180.850447 
L 148.200973 179.431906 
L 148.276979 179.431906 
L 148.276979 179.077271 
L 148.428077 179.077271 
L 148.428077 178.722635 
L 148.57797 178.722635 
L 148.652472 178.013365 
L 148.726679 178.013365 
L 148.726679 177.304094 
L 148.874221 177.304094 
L 148.874221 174.467012 
L 149.020615 174.467012 
L 149.020615 173.757741 
L 149.595059 173.757741 
L 149.665646 172.693835 
L 149.73597 172.693835 
L 149.806031 171.984565 
L 149.875833 171.984565 
L 149.875833 171.629929 
L 150.014665 171.629929 
L 150.014665 170.566024 
L 150.289291 170.566024 
L 150.289291 166.665035 
L 150.760445 166.665035 
L 150.8268 165.955765 
L 150.892922 165.955765 
L 150.892922 165.601129 
L 151.155108 165.601129 
L 151.155108 165.246494 
L 151.284843 165.246494 
L 151.284843 164.891859 
L 151.41369 164.891859 
L 151.41369 164.537224 
L 151.54166 164.537224 
L 151.54166 164.182588 
L 151.795018 164.182588 
L 151.795018 163.827953 
L 152.045009 163.827953 
L 152.045009 163.473318 
L 152.352898 163.473318 
L 152.413875 161.700141 
L 152.474656 161.700141 
L 152.474656 160.990871 
L 152.655828 160.990871 
L 152.655828 160.2816 
L 153.01302 160.2816 
L 153.01302 159.572329 
L 153.130592 159.572329 
L 153.189104 157.444518 
L 153.247435 157.444518 
L 153.305585 156.735247 
L 153.536404 156.735247 
L 153.536404 156.025976 
L 153.650761 156.025976 
L 153.650761 155.671341 
L 153.821002 155.671341 
L 153.877408 153.543529 
L 153.989717 153.543529 
L 153.989717 152.834259 
L 154.101358 152.834259 
L 154.101358 152.479624 
L 154.377597 152.479624 
L 154.486967 150.706447 
L 154.703817 150.706447 
L 154.811312 146.096188 
L 154.86483 146.096188 
L 154.971412 145.032282 
L 155.024477 145.032282 
L 155.13016 143.968376 
L 155.18278 143.968376 
L 155.18278 143.613741 
L 155.443693 143.613741 
L 155.443693 142.904471 
L 155.598521 142.904471 
L 155.701037 134.747859 
L 155.752086 134.747859 
L 155.85377 127.300518 
L 156.005274 127.300518 
L 156.005274 125.172706 
L 156.354107 125.172706 
L 156.354107 124.818071 
L 156.501649 124.818071 
L 156.501649 124.463435 
L 156.696589 124.463435 
L 156.696589 123.399529 
L 156.88953 123.399529 
L 156.937458 122.690259 
L 157.032948 122.690259 
L 157.127956 121.980988 
L 157.269574 121.980988 
L 157.363398 119.143906 
L 157.410135 119.143906 
L 157.410135 118.434635 
L 157.549652 118.434635 
L 157.595929 115.597553 
L 157.825621 115.597553 
L 157.825621 114.533647 
L 157.962102 114.533647 
L 158.052543 113.469741 
L 158.187393 113.469741 
L 158.187393 111.696565 
L 158.321284 111.696565 
L 158.410018 106.731671 
L 158.454228 106.731671 
L 158.542339 104.249224 
L 158.804221 104.249224 
L 158.804221 102.476047 
L 159.232748 102.476047 
L 159.275069 100.702871 
L 159.401463 100.702871 
L 159.443406 98.220424 
L 159.568678 98.220424 
L 159.568678 97.865788 
L 159.816746 97.865788 
L 159.816746 95.737976 
L 159.939564 95.737976 
L 159.980326 93.610165 
L 160.18282 93.610165 
L 160.223059 90.773082 
L 160.303279 90.773082 
L 160.303279 90.063812 
L 160.422971 90.063812 
L 160.4627 88.999906 
L 160.541906 88.999906 
L 160.581385 87.936 
L 160.660094 87.936 
L 160.699326 86.872094 
L 160.777545 86.872094 
L 160.816532 83.325741 
L 160.933013 83.325741 
L 160.97168 79.070118 
L 161.087207 79.070118 
L 161.087207 78.715482 
L 161.240147 78.715482 
L 161.316153 74.459859 
L 161.765853 74.459859 
L 161.839769 73.041318 
L 161.913396 73.041318 
L 162.023298 71.622776 
L 162.05979 71.622776 
L 162.168843 68.076424 
L 162.241195 68.076424 
L 162.349204 66.657882 
L 162.38507 66.657882 
L 162.456597 62.402259 
L 162.56338 62.402259 
L 162.66956 60.983718 
L 162.740015 60.983718 
L 162.845206 56.373459 
L 162.880139 56.373459 
L 162.880139 56.018824 
L 163.019227 56.018824 
L 163.122872 54.245647 
L 163.157294 54.245647 
L 163.22595 53.181741 
L 163.3965 53.181741 
L 163.464289 52.117835 
L 163.565517 52.117835 
L 163.59914 49.635388 
L 163.699647 49.635388 
L 163.73303 46.443671 
L 163.899064 46.443671 
L 163.899064 45.7344 
L 164.030845 45.7344 
L 164.09639 44.670494 
L 164.194282 44.670494 
L 164.259262 43.606588 
L 164.516958 43.606588 
L 164.516958 42.897318 
L 164.771172 42.897318 
L 164.865624 41.833412 
L 164.897003 41.833412 
L 164.959603 40.060235 
L 165.1152 40.060235 
L 165.1152 39.7056 
L 165.269521 39.7056 
L 165.330896 38.287059 
L 165.422585 38.287059 
L 165.51383 34.386071 
L 165.574415 34.386071 
L 165.634805 33.6768 
L 165.725029 33.6768 
L 165.814821 32.258259 
L 165.904188 32.258259 
L 165.933882 30.839718 
L 166.052194 30.839718 
L 166.052194 30.485082 
L 166.40273 30.485082 
L 166.489353 29.066541 
L 166.972821 29.066541 
L 167.000877 28.002635 
L 167.16834 28.002635 
L 167.16834 27.648 
L 360.8064 27.648 
L 360.8064 27.648 
" style="fill: none; stroke: #6495ed; stroke-width: 1.5; stroke-linecap: square"/>
   </g>
   <g id="line2d_48">
    <defs>
     <path id="mf4eb827648" d="M -0 6 
L 6 -6 
L -6 -6 
z
" style="stroke: #6495ed; stroke-width: 1.5; stroke-linejoin: miter"/>
    </defs>
    <g>
     <use xlink:href="#mf4eb827648" x="87.876026" y="261.352659" style="fill-opacity: 0; stroke: #6495ed; stroke-width: 1.5; stroke-linejoin: miter"/>
     <use xlink:href="#mf4eb827648" x="146.023332" y="193.971953" style="fill-opacity: 0; stroke: #6495ed; stroke-width: 1.5; stroke-linejoin: miter"/>
     <use xlink:href="#mf4eb827648" x="167.16834" y="28.002635" style="fill-opacity: 0; stroke: #6495ed; stroke-width: 1.5; stroke-linejoin: miter"/>
     <use xlink:href="#mf4eb827648" x="167.16834" y="27.648" style="fill-opacity: 0; stroke: #6495ed; stroke-width: 1.5; stroke-linejoin: miter"/>
     <use xlink:href="#mf4eb827648" x="167.16834" y="27.648" style="fill-opacity: 0; stroke: #6495ed; stroke-width: 1.5; stroke-linejoin: miter"/>
     <use xlink:href="#mf4eb827648" x="360.8064" y="27.648" style="fill-opacity: 0; stroke: #6495ed; stroke-width: 1.5; stroke-linejoin: miter"/>
    </g>
   </g>
   <g id="line2d_49">
    <path style="fill: none; stroke: #6495ed; stroke-width: 1.5; stroke-linecap: square"/>
    <g/>
   </g>
   <g id="line2d_50">
    <defs>
     <path id="m88015ba884" d="M 0 1.5 
C 0.397805 1.5 0.77937 1.341951 1.06066 1.06066 
C 1.341951 0.77937 1.5 0.397805 1.5 0 
C 1.5 -0.397805 1.341951 -0.77937 1.06066 -1.06066 
C 0.77937 -1.341951 0.397805 -1.5 0 -1.5 
C -0.397805 -1.5 -0.77937 -1.341951 -1.06066 -1.06066 
C -1.341951 -0.77937 -1.5 -0.397805 -1.5 0 
C -1.5 0.397805 -1.341951 0.77937 -1.06066 1.06066 
C -0.77937 1.341951 -0.397805 1.5 0 1.5 
z
" style="stroke: #ff0000"/>
    </defs>
    <g>
     <use xlink:href="#m88015ba884" x="170.048295" y="27.648" style="fill: #ff0000; stroke: #ff0000"/>
     <use xlink:href="#m88015ba884" x="170.048295" y="27.648" style="fill: #ff0000; stroke: #ff0000"/>
    </g>
   </g>
   <g id="line2d_51">
    <path d="M 44.560826 298.944 
L 44.560826 267.026824 
L 70.639174 267.026824 
L 70.639174 265.962918 
L 78.266603 265.962918 
L 78.266603 263.480471 
L 81.166416 263.480471 
L 81.166416 262.061929 
L 83.678349 262.061929 
L 83.678349 261.352659 
L 85.894031 261.352659 
L 85.894031 260.998024 
L 87.876026 260.998024 
L 87.876026 258.160941 
L 91.305777 258.160941 
L 91.305777 257.097035 
L 96.717523 257.097035 
L 96.717523 255.323859 
L 97.857967 255.323859 
L 97.857967 253.905318 
L 98.933205 253.905318 
L 98.933205 252.841412 
L 100.9152 252.841412 
L 100.9152 251.068235 
L 104.344952 251.068235 
L 104.344952 248.940424 
L 105.850679 248.940424 
L 105.850679 247.167247 
L 107.904887 247.167247 
L 107.904887 246.103341 
L 109.159456 246.103341 
L 109.159456 245.039435 
L 109.756698 245.039435 
L 109.756698 242.556988 
L 111.97238 242.556988 
L 111.97238 241.847718 
L 112.487797 241.847718 
L 112.487797 241.138447 
L 112.989468 241.138447 
L 112.989468 239.365271 
L 113.954374 239.365271 
L 113.954374 239.010635 
L 114.872193 239.010635 
L 114.872193 238.656 
L 115.314838 238.656 
L 115.314838 238.301365 
L 116.583514 238.301365 
L 116.583514 236.173553 
L 117.772007 236.173553 
L 117.772007 235.818918 
L 118.889854 235.818918 
L 118.889854 235.464282 
L 119.944983 235.464282 
L 119.944983 233.336471 
L 121.581803 233.336471 
L 121.581803 232.981835 
L 121.892744 232.981835 
L 121.892744 229.435482 
L 122.19863 229.435482 
L 122.19863 228.371576 
L 123.08753 228.371576 
L 123.08753 228.016941 
L 123.374735 228.016941 
L 123.374735 227.662306 
L 125.011554 227.662306 
L 125.011554 227.307671 
L 125.779479 227.307671 
L 125.779479 226.953035 
L 126.028642 226.953035 
L 126.028642 226.5984 
L 127.458055 226.5984 
L 127.458055 225.889129 
L 127.911368 225.889129 
L 127.911368 225.179859 
L 128.133992 225.179859 
L 128.133992 224.470588 
L 128.57149 224.470588 
L 128.57149 223.052047 
L 130.027253 223.052047 
L 130.027253 222.697412 
L 131.563744 222.697412 
L 131.563744 221.988141 
L 131.747272 221.988141 
L 131.747272 219.860329 
L 132.109044 219.860329 
L 132.109044 219.505694 
L 133.323114 219.505694 
L 133.323114 219.151059 
L 133.983236 219.151059 
L 133.983236 218.441788 
L 134.14471 218.441788 
L 134.14471 218.087153 
L 134.304809 218.087153 
L 134.304809 217.732518 
L 134.463557 217.732518 
L 134.463557 217.377882 
L 134.931919 217.377882 
L 134.931919 217.023247 
L 135.687504 217.023247 
L 135.687504 216.668612 
L 135.835047 216.668612 
L 135.835047 216.313976 
L 136.836659 216.313976 
L 136.836659 215.959341 
L 136.97549 215.959341 
L 136.97549 215.604706 
L 137.250116 215.604706 
L 137.250116 215.250071 
L 137.520791 215.250071 
L 137.520791 214.5408 
L 137.654681 214.5408 
L 137.654681 214.186165 
L 138.566146 214.186165 
L 138.566146 213.476894 
L 138.818654 213.476894 
L 138.818654 213.122259 
L 138.943648 213.122259 
L 138.943648 212.767624 
L 139.676658 212.767624 
L 139.676658 212.412988 
L 140.26641 212.412988 
L 140.26641 212.058353 
L 140.725251 212.058353 
L 140.725251 210.994447 
L 141.173167 210.994447 
L 141.283499 209.930541 
L 141.50224 209.930541 
L 141.50224 209.575906 
L 141.718467 209.575906 
L 141.825656 207.448094 
L 141.932237 207.448094 
L 142.038218 205.674918 
L 142.248405 205.674918 
L 142.248405 205.320282 
L 142.559347 205.320282 
L 142.559347 204.611012 
L 142.763822 204.611012 
L 142.763822 204.256376 
L 143.066428 204.256376 
L 143.066428 203.547106 
L 143.265494 203.547106 
L 143.265494 203.192471 
L 143.560197 203.192471 
L 143.657415 202.128565 
L 143.754133 202.128565 
L 143.754133 201.419294 
L 143.946089 201.419294 
L 144.041338 200.000753 
L 144.2304 200.000753 
L 144.324223 196.809035 
L 144.786447 196.809035 
L 144.877544 193.971953 
L 145.058426 193.971953 
L 145.058426 193.617318 
L 145.326529 193.617318 
L 145.415054 192.553412 
L 145.93763 192.553412 
L 146.023332 191.844141 
L 146.108646 191.844141 
L 146.108646 191.134871 
L 146.27812 191.134871 
L 146.362288 187.588518 
L 146.446082 187.588518 
L 146.529503 186.879247 
L 146.777571 186.879247 
L 146.859539 185.106071 
L 146.941151 185.106071 
L 147.022411 184.3968 
L 147.103321 184.3968 
L 147.183884 183.332894 
L 147.343984 183.332894 
L 147.423525 182.623624 
L 147.502732 182.623624 
L 147.581606 180.850447 
L 147.660152 180.850447 
L 147.660152 180.141176 
L 148.124658 180.141176 
L 148.124658 178.722635 
L 148.57797 178.722635 
L 148.652472 177.304094 
L 148.874221 177.304094 
L 148.947561 176.594824 
L 149.020615 176.594824 
L 149.093387 174.467012 
L 149.165879 174.467012 
L 149.238092 171.984565 
L 149.31003 171.984565 
L 149.381693 168.792847 
L 149.806031 168.792847 
L 149.806031 168.438212 
L 150.152479 168.438212 
L 150.221009 165.955765 
L 150.357325 165.955765 
L 150.425115 161.345506 
L 150.492661 161.345506 
L 150.492661 160.990871 
L 150.62703 160.990871 
L 150.693856 158.863059 
L 150.8268 158.863059 
L 150.892922 156.735247 
L 151.024471 156.735247 
L 151.024471 154.2528 
L 151.155108 154.2528 
L 151.155108 153.188894 
L 151.349377 153.188894 
L 151.349377 152.834259 
L 151.60532 152.834259 
L 151.60532 151.770353 
L 151.731998 151.770353 
L 151.795018 149.287906 
L 151.920429 149.287906 
L 151.920429 147.869365 
L 152.106991 147.869365 
L 152.16877 146.805459 
L 152.230346 146.805459 
L 152.291722 145.741553 
L 152.352898 145.741553 
L 152.413875 143.613741 
L 152.474656 143.613741 
L 152.474656 142.904471 
L 152.595631 142.904471 
L 152.595631 142.1952 
L 152.775647 142.1952 
L 152.775647 141.840565 
L 152.894708 141.840565 
L 152.953957 138.648847 
L 153.130592 138.648847 
L 153.189104 135.811765 
L 153.247435 135.811765 
L 153.305585 135.102494 
L 153.363556 135.102494 
L 153.363556 134.038588 
L 153.593669 134.038588 
L 153.593669 132.620047 
L 153.764426 132.620047 
L 153.764426 131.910776 
L 153.877408 131.910776 
L 153.933646 130.846871 
L 153.989717 130.846871 
L 153.989717 130.492235 
L 154.101358 130.492235 
L 154.212341 127.300518 
L 154.267588 127.300518 
L 154.377597 125.172706 
L 154.432362 125.172706 
L 154.486967 122.335624 
L 154.595705 122.335624 
L 154.703817 121.271718 
L 154.811312 121.271718 
L 154.811312 119.853176 
L 155.077392 119.853176 
L 155.077392 119.143906 
L 155.339761 119.143906 
L 155.339761 118.789271 
L 155.495444 118.789271 
L 155.495444 115.242918 
L 155.649849 115.242918 
L 155.752086 112.0512 
L 155.802997 112.0512 
L 155.85377 110.987294 
L 155.954908 110.987294 
L 156.055505 109.923388 
L 156.105602 109.923388 
L 156.105602 108.150212 
L 156.501649 108.150212 
L 156.501649 106.377035 
L 156.648044 106.377035 
L 156.648044 106.0224 
L 156.793307 106.0224 
L 156.88953 104.958494 
L 157.080512 104.958494 
L 157.175281 99.284329 
L 157.222487 99.284329 
L 157.316545 98.575059 
L 157.595929 98.575059 
L 157.688143 97.511153 
L 157.734081 97.511153 
L 157.825621 94.319435 
L 157.871225 94.319435 
L 157.916719 92.900894 
L 158.0976 92.900894 
L 158.187393 90.418447 
L 158.276759 90.418447 
L 158.321284 88.290635 
L 158.454228 88.290635 
L 158.498335 86.872094 
L 158.673735 86.872094 
L 158.717331 83.680376 
L 158.804221 83.680376 
L 158.847515 82.616471 
L 159.105212 82.616471 
L 159.190332 79.424753 
L 159.317295 79.424753 
L 159.317295 79.070118 
L 159.443406 79.070118 
L 159.443406 78.006212 
L 159.568678 78.006212 
L 159.651731 75.523765 
L 159.816746 75.523765 
L 159.816746 75.169129 
L 159.939564 75.169129 
L 159.939564 73.750588 
L 160.142495 73.750588 
L 160.142495 73.041318 
L 160.263211 73.041318 
L 160.263211 72.686682 
L 160.383158 72.686682 
L 160.4627 70.558871 
L 160.620781 70.558871 
L 160.660094 69.140329 
L 160.777545 69.140329 
L 160.777545 68.076424 
L 160.933013 68.076424 
L 161.010268 62.402259 
L 161.087207 62.402259 
L 161.125559 61.692988 
L 161.278189 61.692988 
L 161.278189 60.629082 
L 161.42959 60.629082 
L 161.467251 59.919812 
L 161.542347 59.919812 
L 161.617145 57.437365 
L 161.950101 57.437365 
L 161.950101 57.082729 
L 162.168843 57.082729 
L 162.205054 54.600282 
L 162.31327 54.600282 
L 162.420867 50.699294 
L 162.492258 50.699294 
L 162.492258 50.344659 
L 162.66956 50.344659 
L 162.66956 49.280753 
L 163.019227 49.280753 
L 163.019227 48.571482 
L 163.865975 48.571482 
L 163.96507 46.443671 
L 164.030845 46.443671 
L 164.129077 45.025129 
L 164.194282 45.025129 
L 164.259262 43.606588 
L 164.420735 43.606588 
L 164.420735 42.897318 
L 164.739583 42.897318 
L 164.834193 41.833412 
L 164.990826 41.833412 
L 164.990826 40.769506 
L 165.1152 40.769506 
L 165.1152 39.350965 
L 165.361509 39.350965 
L 165.361509 36.868518 
L 166.661411 36.868518 
L 166.661411 36.159247 
L 166.8036 36.159247 
L 166.888401 33.6768 
L 167.823671 33.6768 
L 167.904005 32.612894 
L 167.957371 32.612894 
L 167.957371 30.839718 
L 168.169334 30.839718 
L 168.169334 30.485082 
L 168.300609 30.485082 
L 168.300609 29.421176 
L 169.294273 29.421176 
L 169.368578 28.357271 
L 169.589749 28.357271 
L 169.589749 28.002635 
L 170.048295 28.002635 
L 170.048295 27.648 
L 360.8064 27.648 
L 360.8064 27.648 
" style="fill: none; stroke: #ff0000; stroke-width: 1.5; stroke-linecap: square"/>
   </g>
   <g id="line2d_52">
    <defs>
     <path id="ma563d50c27" d="M 0 -6 
L -5.196152 -3 
L -5.196152 3 
L -0 6 
L 5.196152 3 
L 5.196152 -3 
z
" style="stroke: #ff0000; stroke-width: 1.5; stroke-linejoin: miter"/>
    </defs>
    <g>
     <use xlink:href="#ma563d50c27" x="85.894031" y="260.998024" style="fill-opacity: 0; stroke: #ff0000; stroke-width: 1.5; stroke-linejoin: miter"/>
     <use xlink:href="#ma563d50c27" x="150.892922" y="157.089882" style="fill-opacity: 0; stroke: #ff0000; stroke-width: 1.5; stroke-linejoin: miter"/>
     <use xlink:href="#ma563d50c27" x="170.048295" y="28.002635" style="fill-opacity: 0; stroke: #ff0000; stroke-width: 1.5; stroke-linejoin: miter"/>
     <use xlink:href="#ma563d50c27" x="170.048295" y="27.648" style="fill-opacity: 0; stroke: #ff0000; stroke-width: 1.5; stroke-linejoin: miter"/>
     <use xlink:href="#ma563d50c27" x="170.048295" y="27.648" style="fill-opacity: 0; stroke: #ff0000; stroke-width: 1.5; stroke-linejoin: miter"/>
     <use xlink:href="#ma563d50c27" x="360.8064" y="27.648" style="fill-opacity: 0; stroke: #ff0000; stroke-width: 1.5; stroke-linejoin: miter"/>
    </g>
   </g>
   <g id="line2d_53">
    <path style="fill: none; stroke: #ff0000; stroke-width: 1.5; stroke-linecap: square"/>
    <g/>
   </g>
   <g id="line2d_54">
    <path d="M 360.8064 27.648 
L 380.514816 293.51808 
" style="fill: none; stroke: #ff0000; stroke-width: 1.5; stroke-linecap: square"/>
    <g>
     <use xlink:href="#ma563d50c27" x="360.8064" y="27.648" style="fill-opacity: 0; stroke: #ff0000; stroke-width: 1.5; stroke-linejoin: miter"/>
     <use xlink:href="#ma563d50c27" x="380.514816" y="293.51808" style="fill-opacity: 0; stroke: #ff0000; stroke-width: 1.5; stroke-linejoin: miter"/>
    </g>
   </g>
   <g id="line2d_55">
    <path d="M 360.8064 27.648 
L 380.514816 241.429248 
" style="fill: none; stroke: #ff7500; stroke-width: 1.5; stroke-linecap: square"/>
    <g>
     <use xlink:href="#mbad30b8d63" x="360.8064" y="27.648" style="fill-opacity: 0; stroke: #ff7500; stroke-width: 1.5; stroke-linejoin: bevel"/>
     <use xlink:href="#mbad30b8d63" x="380.514816" y="241.429248" style="fill-opacity: 0; stroke: #ff7500; stroke-width: 1.5; stroke-linejoin: bevel"/>
    </g>
   </g>
   <g id="line2d_56">
    <path d="M 360.8064 27.648 
L 380.514816 189.340416 
" style="fill: none; stroke: #6495ed; stroke-width: 1.5; stroke-linecap: square"/>
    <g>
     <use xlink:href="#mf4eb827648" x="360.8064" y="27.648" style="fill-opacity: 0; stroke: #6495ed; stroke-width: 1.5; stroke-linejoin: miter"/>
     <use xlink:href="#mf4eb827648" x="380.514816" y="189.340416" style="fill-opacity: 0; stroke: #6495ed; stroke-width: 1.5; stroke-linejoin: miter"/>
    </g>
   </g>
   <g id="line2d_57">
    <path d="M 360.8064 27.648 
L 380.514816 137.251584 
" style="fill: none; stroke: #000080; stroke-width: 1.5; stroke-linecap: square"/>
    <g>
     <use xlink:href="#m777f6a0ee5" x="360.8064" y="27.648" style="fill-opacity: 0; stroke: #000080; stroke-width: 1.5"/>
     <use xlink:href="#m777f6a0ee5" x="380.514816" y="137.251584" style="fill-opacity: 0; stroke: #000080; stroke-width: 1.5"/>
    </g>
   </g>
   <g id="line2d_58">
    <path d="M 360.8064 27.648 
L 380.514816 85.162752 
" style="fill: none; stroke: #ff00ff; stroke-width: 1.5; stroke-linecap: square"/>
    <g>
     <use xlink:href="#m17c9c1fa20" x="360.8064" y="27.648" style="fill-opacity: 0; stroke: #ff00ff; stroke-width: 1.5; stroke-linejoin: miter"/>
     <use xlink:href="#m17c9c1fa20" x="380.514816" y="85.162752" style="fill-opacity: 0; stroke: #ff00ff; stroke-width: 1.5; stroke-linejoin: miter"/>
    </g>
   </g>
   <g id="line2d_59">
    <path d="M 360.8064 298.944 
L 360.8064 27.648 
" style="fill: none; stroke: #000000; stroke-width: 1.5; stroke-linecap: square"/>
   </g>
   <g id="patch_3">
    <path d="M 57.6 298.944 
L 360.8064 298.944 
" style="fill: none; stroke: #000000; stroke-width: 0.8; stroke-linejoin: miter; stroke-linecap: square"/>
   </g>
   <g id="patch_4">
    <path d="M 57.6 27.648 
L 360.8064 27.648 
" style="fill: none; stroke: #000000; stroke-width: 0.8; stroke-linejoin: miter; stroke-linecap: square"/>
   </g>
   <g id="text_13">
    <!-- CMA-ES-20 -->
    <g transform="translate(386.578944 297.381205)scale(0.14 -0.14)">
     <defs>
      <path id="DejaVuSans-43" d="M 4122 4306 
L 4122 3641 
Q 3803 3938 3442 4084 
Q 3081 4231 2675 4231 
Q 1875 4231 1450 3742 
Q 1025 3253 1025 2328 
Q 1025 1406 1450 917 
Q 1875 428 2675 428 
Q 3081 428 3442 575 
Q 3803 722 4122 1019 
L 4122 359 
Q 3791 134 3420 21 
Q 3050 -91 2638 -91 
Q 1578 -91 968 557 
Q 359 1206 359 2328 
Q 359 3453 968 4101 
Q 1578 4750 2638 4750 
Q 3056 4750 3426 4639 
Q 3797 4528 4122 4306 
z
" transform="scale(0.015625)"/>
      <path id="DejaVuSans-4d" d="M 628 4666 
L 1569 4666 
L 2759 1491 
L 3956 4666 
L 4897 4666 
L 4897 0 
L 4281 0 
L 4281 4097 
L 3078 897 
L 2444 897 
L 1241 4097 
L 1241 0 
L 628 0 
L 628 4666 
z
" transform="scale(0.015625)"/>
      <path id="DejaVuSans-41" d="M 2188 4044 
L 1331 1722 
L 3047 1722 
L 2188 4044 
z
M 1831 4666 
L 2547 4666 
L 4325 0 
L 3669 0 
L 3244 1197 
L 1141 1197 
L 716 0 
L 50 0 
L 1831 4666 
z
" transform="scale(0.015625)"/>
      <path id="DejaVuSans-45" d="M 628 4666 
L 3578 4666 
L 3578 4134 
L 1259 4134 
L 1259 2753 
L 3481 2753 
L 3481 2222 
L 1259 2222 
L 1259 531 
L 3634 531 
L 3634 0 
L 628 0 
L 628 4666 
z
" transform="scale(0.015625)"/>
      <path id="DejaVuSans-53" d="M 3425 4513 
L 3425 3897 
Q 3066 4069 2747 4153 
Q 2428 4238 2131 4238 
Q 1616 4238 1336 4038 
Q 1056 3838 1056 3469 
Q 1056 3159 1242 3001 
Q 1428 2844 1947 2747 
L 2328 2669 
Q 3034 2534 3370 2195 
Q 3706 1856 3706 1288 
Q 3706 609 3251 259 
Q 2797 -91 1919 -91 
Q 1588 -91 1214 -16 
Q 841 59 441 206 
L 441 856 
Q 825 641 1194 531 
Q 1563 422 1919 422 
Q 2459 422 2753 634 
Q 3047 847 3047 1241 
Q 3047 1584 2836 1778 
Q 2625 1972 2144 2069 
L 1759 2144 
Q 1053 2284 737 2584 
Q 422 2884 422 3419 
Q 422 4038 858 4394 
Q 1294 4750 2059 4750 
Q 2388 4750 2728 4690 
Q 3069 4631 3425 4513 
z
" transform="scale(0.015625)"/>
     </defs>
     <use xlink:href="#DejaVuSans-43"/>
     <use xlink:href="#DejaVuSans-4d" x="69.824219"/>
     <use xlink:href="#DejaVuSans-41" x="156.103516"/>
     <use xlink:href="#DejaVuSans-2d" x="222.261719"/>
     <use xlink:href="#DejaVuSans-45" x="258.345703"/>
     <use xlink:href="#DejaVuSans-53" x="321.529297"/>
     <use xlink:href="#DejaVuSans-2d" x="385.005859"/>
     <use xlink:href="#DejaVuSans-32" x="421.089844"/>
     <use xlink:href="#DejaVuSans-30" x="484.712891"/>
    </g>
   </g>
   <g id="text_14">
    <!-- ddcma0 -->
    <g transform="translate(386.578944 245.292373)scale(0.14 -0.14)">
     <use xlink:href="#DejaVuSans-64"/>
     <use xlink:href="#DejaVuSans-64" x="63.476562"/>
     <use xlink:href="#DejaVuSans-63" x="126.953125"/>
     <use xlink:href="#DejaVuSans-6d" x="181.933594"/>
     <use xlink:href="#DejaVuSans-61" x="279.345703"/>
     <use xlink:href="#DejaVuSans-30" x="340.625"/>
    </g>
   </g>
   <g id="text_15">
    <!-- ddcma1 -->
    <g transform="translate(386.578944 193.203541)scale(0.14 -0.14)">
     <use xlink:href="#DejaVuSans-64"/>
     <use xlink:href="#DejaVuSans-64" x="63.476562"/>
     <use xlink:href="#DejaVuSans-63" x="126.953125"/>
     <use xlink:href="#DejaVuSans-6d" x="181.933594"/>
     <use xlink:href="#DejaVuSans-61" x="279.345703"/>
     <use xlink:href="#DejaVuSans-31" x="340.625"/>
    </g>
   </g>
   <g id="text_16">
    <!-- cma0 -->
    <g transform="translate(386.578944 141.114709)scale(0.14 -0.14)">
     <use xlink:href="#DejaVuSans-63"/>
     <use xlink:href="#DejaVuSans-6d" x="54.980469"/>
     <use xlink:href="#DejaVuSans-61" x="152.392578"/>
     <use xlink:href="#DejaVuSans-30" x="213.671875"/>
    </g>
   </g>
   <g id="text_17">
    <!-- cma1 -->
    <g transform="translate(386.578944 89.025877)scale(0.14 -0.14)">
     <use xlink:href="#DejaVuSans-63"/>
     <use xlink:href="#DejaVuSans-6d" x="54.980469"/>
     <use xlink:href="#DejaVuSans-61" x="152.392578"/>
     <use xlink:href="#DejaVuSans-31" x="213.671875"/>
    </g>
   </g>
   <g id="text_18">
    <!-- best 2009 -->
    <g transform="translate(386.578944 36.937045)scale(0.14 -0.14)">
     <defs>
      <path id="DejaVuSans-62" d="M 3116 1747 
Q 3116 2381 2855 2742 
Q 2594 3103 2138 3103 
Q 1681 3103 1420 2742 
Q 1159 2381 1159 1747 
Q 1159 1113 1420 752 
Q 1681 391 2138 391 
Q 2594 391 2855 752 
Q 3116 1113 3116 1747 
z
M 1159 2969 
Q 1341 3281 1617 3432 
Q 1894 3584 2278 3584 
Q 2916 3584 3314 3078 
Q 3713 2572 3713 1747 
Q 3713 922 3314 415 
Q 2916 -91 2278 -91 
Q 1894 -91 1617 61 
Q 1341 213 1159 525 
L 1159 0 
L 581 0 
L 581 4863 
L 1159 4863 
L 1159 2969 
z
" transform="scale(0.015625)"/>
      <path id="DejaVuSans-39" d="M 703 97 
L 703 672 
Q 941 559 1184 500 
Q 1428 441 1663 441 
Q 2288 441 2617 861 
Q 2947 1281 2994 2138 
Q 2813 1869 2534 1725 
Q 2256 1581 1919 1581 
Q 1219 1581 811 2004 
Q 403 2428 403 3163 
Q 403 3881 828 4315 
Q 1253 4750 1959 4750 
Q 2769 4750 3195 4129 
Q 3622 3509 3622 2328 
Q 3622 1225 3098 567 
Q 2575 -91 1691 -91 
Q 1453 -91 1209 -44 
Q 966 3 703 97 
z
M 1959 2075 
Q 2384 2075 2632 2365 
Q 2881 2656 2881 3163 
Q 2881 3666 2632 3958 
Q 2384 4250 1959 4250 
Q 1534 4250 1286 3958 
Q 1038 3666 1038 3163 
Q 1038 2656 1286 2365 
Q 1534 2075 1959 2075 
z
" transform="scale(0.015625)"/>
     </defs>
     <use xlink:href="#DejaVuSans-62"/>
     <use xlink:href="#DejaVuSans-65" x="63.476562"/>
     <use xlink:href="#DejaVuSans-73" x="125"/>
     <use xlink:href="#DejaVuSans-74" x="177.099609"/>
     <use xlink:href="#DejaVuSans-20" x="216.308594"/>
     <use xlink:href="#DejaVuSans-32" x="248.095703"/>
     <use xlink:href="#DejaVuSans-30" x="311.71875"/>
     <use xlink:href="#DejaVuSans-30" x="375.341797"/>
     <use xlink:href="#DejaVuSans-39" x="438.964844"/>
    </g>
   </g>
   <g id="text_19">
    <!-- bbob f9, 2-D -->
    <g transform="translate(60.632064 38.111366)scale(0.102 -0.102)">
     <defs>
      <path id="DejaVuSans-44" d="M 1259 4147 
L 1259 519 
L 2022 519 
Q 2988 519 3436 956 
Q 3884 1394 3884 2338 
Q 3884 3275 3436 3711 
Q 2988 4147 2022 4147 
L 1259 4147 
z
M 628 4666 
L 1925 4666 
Q 3281 4666 3915 4102 
Q 4550 3538 4550 2338 
Q 4550 1131 3912 565 
Q 3275 0 1925 0 
L 628 0 
L 628 4666 
z
" transform="scale(0.015625)"/>
     </defs>
     <use xlink:href="#DejaVuSans-62"/>
     <use xlink:href="#DejaVuSans-62" x="63.476562"/>
     <use xlink:href="#DejaVuSans-6f" x="126.953125"/>
     <use xlink:href="#DejaVuSans-62" x="188.134766"/>
     <use xlink:href="#DejaVuSans-20" x="251.611328"/>
     <use xlink:href="#DejaVuSans-66" x="283.398438"/>
     <use xlink:href="#DejaVuSans-39" x="318.603516"/>
     <use xlink:href="#DejaVuSans-2c" x="382.226562"/>
     <use xlink:href="#DejaVuSans-20" x="414.013672"/>
     <use xlink:href="#DejaVuSans-32" x="445.800781"/>
     <use xlink:href="#DejaVuSans-2d" x="509.423828"/>
     <use xlink:href="#DejaVuSans-44" x="545.507812"/>
    </g>
    <!-- 51 targets: 100..1e-08 -->
    <g transform="translate(60.632064 49.533135)scale(0.102 -0.102)">
     <defs>
      <path id="DejaVuSans-35" d="M 691 4666 
L 3169 4666 
L 3169 4134 
L 1269 4134 
L 1269 2991 
Q 1406 3038 1543 3061 
Q 1681 3084 1819 3084 
Q 2600 3084 3056 2656 
Q 3513 2228 3513 1497 
Q 3513 744 3044 326 
Q 2575 -91 1722 -91 
Q 1428 -91 1123 -41 
Q 819 9 494 109 
L 494 744 
Q 775 591 1075 516 
Q 1375 441 1709 441 
Q 2250 441 2565 725 
Q 2881 1009 2881 1497 
Q 2881 1984 2565 2268 
Q 2250 2553 1709 2553 
Q 1456 2553 1204 2497 
Q 953 2441 691 2322 
L 691 4666 
z
" transform="scale(0.015625)"/>
      <path id="DejaVuSans-3a" d="M 750 794 
L 1409 794 
L 1409 0 
L 750 0 
L 750 794 
z
M 750 3309 
L 1409 3309 
L 1409 2516 
L 750 2516 
L 750 3309 
z
" transform="scale(0.015625)"/>
     </defs>
     <use xlink:href="#DejaVuSans-35"/>
     <use xlink:href="#DejaVuSans-31" x="63.623047"/>
     <use xlink:href="#DejaVuSans-20" x="127.246094"/>
     <use xlink:href="#DejaVuSans-74" x="159.033203"/>
     <use xlink:href="#DejaVuSans-61" x="198.242188"/>
     <use xlink:href="#DejaVuSans-72" x="259.521484"/>
     <use xlink:href="#DejaVuSans-67" x="298.884766"/>
     <use xlink:href="#DejaVuSans-65" x="362.361328"/>
     <use xlink:href="#DejaVuSans-74" x="423.884766"/>
     <use xlink:href="#DejaVuSans-73" x="463.09375"/>
     <use xlink:href="#DejaVuSans-3a" x="515.193359"/>
     <use xlink:href="#DejaVuSans-20" x="548.884766"/>
     <use xlink:href="#DejaVuSans-31" x="580.671875"/>
     <use xlink:href="#DejaVuSans-30" x="644.294922"/>
     <use xlink:href="#DejaVuSans-30" x="707.917969"/>
     <use xlink:href="#DejaVuSans-2e" x="771.541016"/>
     <use xlink:href="#DejaVuSans-2e" x="803.328125"/>
     <use xlink:href="#DejaVuSans-31" x="835.115234"/>
     <use xlink:href="#DejaVuSans-65" x="898.738281"/>
     <use xlink:href="#DejaVuSans-2d" x="960.261719"/>
     <use xlink:href="#DejaVuSans-30" x="996.345703"/>
     <use xlink:href="#DejaVuSans-38" x="1059.96875"/>
    </g>
    <!-- 15 instances -->
    <g transform="translate(60.632064 60.954904)scale(0.102 -0.102)">
     <use xlink:href="#DejaVuSans-31"/>
     <use xlink:href="#DejaVuSans-35" x="63.623047"/>
     <use xlink:href="#DejaVuSans-20" x="127.246094"/>
     <use xlink:href="#DejaVuSans-69" x="159.033203"/>
     <use xlink:href="#DejaVuSans-6e" x="186.816406"/>
     <use xlink:href="#DejaVuSans-73" x="250.195312"/>
     <use xlink:href="#DejaVuSans-74" x="302.294922"/>
     <use xlink:href="#DejaVuSans-61" x="341.503906"/>
     <use xlink:href="#DejaVuSans-6e" x="402.783203"/>
     <use xlink:href="#DejaVuSans-63" x="466.162109"/>
     <use xlink:href="#DejaVuSans-65" x="521.142578"/>
     <use xlink:href="#DejaVuSans-73" x="582.666016"/>
    </g>
   </g>
   <g id="text_20">
    <!-- v2.6 -->
    <g style="fill: #808080" transform="translate(198.292262 294.151352)scale(0.1 -0.1)">
     <use xlink:href="#DejaVuSans-76"/>
     <use xlink:href="#DejaVuSans-32" x="59.179688"/>
     <use xlink:href="#DejaVuSans-2e" x="122.802734"/>
     <use xlink:href="#DejaVuSans-36" x="154.589844"/>
    </g>
   </g>
   <g id="text_21">
    <!-- 9 Rosenbrock rotated -->
    <g transform="translate(102.050075 21.648)scale(0.2 -0.2)">
     <defs>
      <path id="DejaVuSans-52" d="M 2841 2188 
Q 3044 2119 3236 1894 
Q 3428 1669 3622 1275 
L 4263 0 
L 3584 0 
L 2988 1197 
Q 2756 1666 2539 1819 
Q 2322 1972 1947 1972 
L 1259 1972 
L 1259 0 
L 628 0 
L 628 4666 
L 2053 4666 
Q 2853 4666 3247 4331 
Q 3641 3997 3641 3322 
Q 3641 2881 3436 2590 
Q 3231 2300 2841 2188 
z
M 1259 4147 
L 1259 2491 
L 2053 2491 
Q 2509 2491 2742 2702 
Q 2975 2913 2975 3322 
Q 2975 3731 2742 3939 
Q 2509 4147 2053 4147 
L 1259 4147 
z
" transform="scale(0.015625)"/>
      <path id="DejaVuSans-6b" d="M 581 4863 
L 1159 4863 
L 1159 1991 
L 2875 3500 
L 3609 3500 
L 1753 1863 
L 3688 0 
L 2938 0 
L 1159 1709 
L 1159 0 
L 581 0 
L 581 4863 
z
" transform="scale(0.015625)"/>
     </defs>
     <use xlink:href="#DejaVuSans-39"/>
     <use xlink:href="#DejaVuSans-20" x="63.623047"/>
     <use xlink:href="#DejaVuSans-52" x="95.410156"/>
     <use xlink:href="#DejaVuSans-6f" x="160.392578"/>
     <use xlink:href="#DejaVuSans-73" x="221.574219"/>
     <use xlink:href="#DejaVuSans-65" x="273.673828"/>
     <use xlink:href="#DejaVuSans-6e" x="335.197266"/>
     <use xlink:href="#DejaVuSans-62" x="398.576172"/>
     <use xlink:href="#DejaVuSans-72" x="462.052734"/>
     <use xlink:href="#DejaVuSans-6f" x="500.916016"/>
     <use xlink:href="#DejaVuSans-63" x="562.097656"/>
     <use xlink:href="#DejaVuSans-6b" x="617.078125"/>
     <use xlink:href="#DejaVuSans-20" x="674.988281"/>
     <use xlink:href="#DejaVuSans-72" x="706.775391"/>
     <use xlink:href="#DejaVuSans-6f" x="745.638672"/>
     <use xlink:href="#DejaVuSans-74" x="806.820312"/>
     <use xlink:href="#DejaVuSans-61" x="846.029297"/>
     <use xlink:href="#DejaVuSans-74" x="907.308594"/>
     <use xlink:href="#DejaVuSans-65" x="946.517578"/>
     <use xlink:href="#DejaVuSans-64" x="1008.041016"/>
    </g>
   </g>
  </g>
 </g>
 <defs>
  <clipPath id="p0b0f2bd1c8">
   <rect x="57.6" y="27.648" width="303.2064" height="271.296"/>
  </clipPath>
 </defs>
</svg>
