<?xml version="1.0" encoding="utf-8" standalone="no"?>
<!DOCTYPE svg PUBLIC "-//W3C//DTD SVG 1.1//EN"
  "http://www.w3.org/Graphics/SVG/1.1/DTD/svg11.dtd">
<svg xmlns:xlink="http://www.w3.org/1999/xlink" width="460.8pt" height="345.6pt" viewBox="0 0 460.8 345.6" xmlns="http://www.w3.org/2000/svg" version="1.1">
 <metadata>
  <rdf:RDF xmlns:dc="http://purl.org/dc/elements/1.1/" xmlns:cc="http://creativecommons.org/ns#" xmlns:rdf="http://www.w3.org/1999/02/22-rdf-syntax-ns#">
   <cc:Work>
    <dc:type rdf:resource="http://purl.org/dc/dcmitype/StillImage"/>
    <dc:date>2022-03-28T13:30:15.303962</dc:date>
    <dc:format>image/svg+xml</dc:format>
    <dc:creator>
     <cc:Agent>
      <dc:title>Matplotlib v3.5.1, https://matplotlib.org/</dc:title>
     </cc:Agent>
    </dc:creator>
   </cc:Work>
  </rdf:RDF>
 </metadata>
 <defs>
  <style type="text/css">*{stroke-linejoin: round; stroke-linecap: butt}</style>
 </defs>
 <g id="figure_1">
  <g id="patch_1">
   <path d="M 0 345.6 
L 460.8 345.6 
L 460.8 0 
L 0 0 
z
" style="fill: #ffffff"/>
  </g>
  <g id="axes_1">
   <g id="patch_2">
    <path d="M 57.6 298.944 
L 360.8064 298.944 
L 360.8064 27.648 
L 57.6 27.648 
z
" style="fill: #ffffff"/>
   </g>
   <g id="line2d_1">
    <path d="M 36.933397 298.944 
L 36.933397 277.665882 
L 57.6 277.665882 
L 57.6 272.346353 
L 70.639174 272.346353 
L 70.639174 267.026824 
L 86.578163 267.026824 
L 86.578163 261.707294 
L 95.916911 261.707294 
L 95.916911 256.387765 
L 106.791453 256.387765 
L 106.791453 251.068235 
L 133.210806 251.068235 
L 133.210806 245.748706 
L 135.034434 245.748706 
L 135.034434 240.429176 
L 147.816265 240.429176 
L 147.816265 235.109647 
L 149.357835 235.109647 
L 149.357835 229.790118 
L 150.693856 229.790118 
L 150.693856 224.470588 
L 150.738275 224.470588 
L 150.738275 219.151059 
L 150.78259 219.151059 
L 150.78259 213.831529 
L 151.176793 213.831529 
L 151.176793 208.512 
L 151.220087 208.512 
L 151.220087 203.192471 
L 151.263283 203.192471 
L 151.263283 197.872941 
L 151.306379 197.872941 
L 151.306379 192.553412 
L 151.392277 192.553412 
L 151.392277 187.233882 
L 151.899585 187.233882 
L 151.899585 181.914353 
L 151.982822 181.914353 
L 151.982822 176.594824 
L 152.106991 176.594824 
L 152.106991 165.955765 
L 152.189318 165.955765 
L 152.189318 160.636235 
L 152.312136 160.636235 
L 152.312136 149.997176 
L 152.352898 149.997176 
L 152.352898 144.677647 
L 152.434157 144.677647 
L 152.434157 139.358118 
L 152.474656 139.358118 
L 152.474656 134.038588 
L 152.515067 134.038588 
L 152.515067 128.719059 
L 152.555392 128.719059 
L 152.555392 118.08 
L 152.595631 118.08 
L 152.595631 112.760471 
L 152.635783 112.760471 
L 152.635783 107.440941 
L 152.795543 107.440941 
L 152.795543 102.121412 
L 152.835271 102.121412 
L 152.835271 91.482353 
L 152.914478 91.482353 
L 152.914478 86.162824 
L 152.993353 86.162824 
L 152.993353 75.523765 
L 153.032666 75.523765 
L 153.032666 70.204235 
L 153.071898 70.204235 
L 153.071898 64.884706 
L 153.111048 64.884706 
L 153.111048 59.565176 
L 153.150116 59.565176 
L 153.150116 48.926118 
L 153.189104 48.926118 
L 153.189104 43.606588 
L 153.266838 43.606588 
L 153.266838 38.287059 
L 153.305585 38.287059 
L 153.305585 32.967529 
L 155.701037 32.967529 
L 155.701037 27.648 
L 360.8064 27.648 
" style="fill: none; stroke: #f5deb3; stroke-width: 4; stroke-linecap: square"/>
   </g>
   <g id="line2d_2">
    <defs>
     <path id="m957ced2337" d="M -0 7.778175 
L 7.778175 0 
L 0 -7.778175 
L -7.778175 -0 
z
" style="stroke: #f5deb3; stroke-width: 1.5; stroke-linejoin: miter"/>
    </defs>
    <g>
     <use xlink:href="#m957ced2337" x="150.738275" y="219.151059" style="fill: #f5deb3; stroke: #f5deb3; stroke-width: 1.5; stroke-linejoin: miter"/>
     <use xlink:href="#m957ced2337" x="153.032666" y="70.204235" style="fill: #f5deb3; stroke: #f5deb3; stroke-width: 1.5; stroke-linejoin: miter"/>
     <use xlink:href="#m957ced2337" x="155.701037" y="32.967529" style="fill: #f5deb3; stroke: #f5deb3; stroke-width: 1.5; stroke-linejoin: miter"/>
     <use xlink:href="#m957ced2337" x="155.701037" y="27.648" style="fill: #f5deb3; stroke: #f5deb3; stroke-width: 1.5; stroke-linejoin: miter"/>
     <use xlink:href="#m957ced2337" x="155.701037" y="27.648" style="fill: #f5deb3; stroke: #f5deb3; stroke-width: 1.5; stroke-linejoin: miter"/>
     <use xlink:href="#m957ced2337" x="360.8064" y="27.648" style="fill: #f5deb3; stroke: #f5deb3; stroke-width: 1.5; stroke-linejoin: miter"/>
    </g>
   </g>
   <g id="line2d_3">
    <path style="fill: none; stroke: #f5deb3; stroke-width: 4; stroke-linecap: square"/>
    <g/>
   </g>
   <g id="line2d_4">
    <path d="M 360.8064 27.648 
L 380.514816 33.07392 
" style="fill: none; stroke: #f5deb3; stroke-width: 4; stroke-linecap: square"/>
    <g>
     <use xlink:href="#m957ced2337" x="360.8064" y="27.648" style="fill: #f5deb3; stroke: #f5deb3; stroke-width: 1.5; stroke-linejoin: miter"/>
     <use xlink:href="#m957ced2337" x="380.514816" y="33.07392" style="fill: #f5deb3; stroke: #f5deb3; stroke-width: 1.5; stroke-linejoin: miter"/>
    </g>
   </g>
   <g id="matplotlib.axis_1">
    <g id="xtick_1">
     <g id="line2d_5">
      <path d="M 57.6 298.944 
L 57.6 27.648 
" clip-path="url(#p0cf105d322)" style="fill: none; stroke: #b0b0b0; stroke-width: 0.8; stroke-linecap: square"/>
     </g>
     <g id="line2d_6">
      <defs>
       <path id="maea171436b" d="M 0 0 
L 0 3.5 
" style="stroke: #000000; stroke-width: 0.8"/>
      </defs>
      <g>
       <use xlink:href="#maea171436b" x="57.6" y="298.944" style="stroke: #000000; stroke-width: 0.8"/>
      </g>
     </g>
     <g id="text_1">
      <!-- 0 -->
      <g transform="translate(52.191875 318.861344)scale(0.17 -0.17)">
       <defs>
        <path id="DejaVuSans-30" d="M 2034 4250 
Q 1547 4250 1301 3770 
Q 1056 3291 1056 2328 
Q 1056 1369 1301 889 
Q 1547 409 2034 409 
Q 2525 409 2770 889 
Q 3016 1369 3016 2328 
Q 3016 3291 2770 3770 
Q 2525 4250 2034 4250 
z
M 2034 4750 
Q 2819 4750 3233 4129 
Q 3647 3509 3647 2328 
Q 3647 1150 3233 529 
Q 2819 -91 2034 -91 
Q 1250 -91 836 529 
Q 422 1150 422 2328 
Q 422 3509 836 4129 
Q 1250 4750 2034 4750 
z
" transform="scale(0.015625)"/>
       </defs>
       <use xlink:href="#DejaVuSans-30"/>
      </g>
     </g>
    </g>
    <g id="xtick_2">
     <g id="line2d_7">
      <path d="M 144.2304 298.944 
L 144.2304 27.648 
" clip-path="url(#p0cf105d322)" style="fill: none; stroke: #b0b0b0; stroke-width: 0.8; stroke-linecap: square"/>
     </g>
     <g id="line2d_8">
      <g>
       <use xlink:href="#maea171436b" x="144.2304" y="298.944" style="stroke: #000000; stroke-width: 0.8"/>
      </g>
     </g>
     <g id="text_2">
      <!-- 2 -->
      <g transform="translate(138.822275 318.861344)scale(0.17 -0.17)">
       <defs>
        <path id="DejaVuSans-32" d="M 1228 531 
L 3431 531 
L 3431 0 
L 469 0 
L 469 531 
Q 828 903 1448 1529 
Q 2069 2156 2228 2338 
Q 2531 2678 2651 2914 
Q 2772 3150 2772 3378 
Q 2772 3750 2511 3984 
Q 2250 4219 1831 4219 
Q 1534 4219 1204 4116 
Q 875 4013 500 3803 
L 500 4441 
Q 881 4594 1212 4672 
Q 1544 4750 1819 4750 
Q 2544 4750 2975 4387 
Q 3406 4025 3406 3419 
Q 3406 3131 3298 2873 
Q 3191 2616 2906 2266 
Q 2828 2175 2409 1742 
Q 1991 1309 1228 531 
z
" transform="scale(0.015625)"/>
       </defs>
       <use xlink:href="#DejaVuSans-32"/>
      </g>
     </g>
    </g>
    <g id="xtick_3">
     <g id="line2d_9">
      <path d="M 230.8608 298.944 
L 230.8608 27.648 
" clip-path="url(#p0cf105d322)" style="fill: none; stroke: #b0b0b0; stroke-width: 0.8; stroke-linecap: square"/>
     </g>
     <g id="line2d_10">
      <g>
       <use xlink:href="#maea171436b" x="230.8608" y="298.944" style="stroke: #000000; stroke-width: 0.8"/>
      </g>
     </g>
     <g id="text_3">
      <!-- 4 -->
      <g transform="translate(225.452675 318.861344)scale(0.17 -0.17)">
       <defs>
        <path id="DejaVuSans-34" d="M 2419 4116 
L 825 1625 
L 2419 1625 
L 2419 4116 
z
M 2253 4666 
L 3047 4666 
L 3047 1625 
L 3713 1625 
L 3713 1100 
L 3047 1100 
L 3047 0 
L 2419 0 
L 2419 1100 
L 313 1100 
L 313 1709 
L 2253 4666 
z
" transform="scale(0.015625)"/>
       </defs>
       <use xlink:href="#DejaVuSans-34"/>
      </g>
     </g>
    </g>
    <g id="xtick_4">
     <g id="line2d_11">
      <path d="M 317.4912 298.944 
L 317.4912 27.648 
" clip-path="url(#p0cf105d322)" style="fill: none; stroke: #b0b0b0; stroke-width: 0.8; stroke-linecap: square"/>
     </g>
     <g id="line2d_12">
      <g>
       <use xlink:href="#maea171436b" x="317.4912" y="298.944" style="stroke: #000000; stroke-width: 0.8"/>
      </g>
     </g>
     <g id="text_4">
      <!-- 6 -->
      <g transform="translate(312.083075 318.861344)scale(0.17 -0.17)">
       <defs>
        <path id="DejaVuSans-36" d="M 2113 2584 
Q 1688 2584 1439 2293 
Q 1191 2003 1191 1497 
Q 1191 994 1439 701 
Q 1688 409 2113 409 
Q 2538 409 2786 701 
Q 3034 994 3034 1497 
Q 3034 2003 2786 2293 
Q 2538 2584 2113 2584 
z
M 3366 4563 
L 3366 3988 
Q 3128 4100 2886 4159 
Q 2644 4219 2406 4219 
Q 1781 4219 1451 3797 
Q 1122 3375 1075 2522 
Q 1259 2794 1537 2939 
Q 1816 3084 2150 3084 
Q 2853 3084 3261 2657 
Q 3669 2231 3669 1497 
Q 3669 778 3244 343 
Q 2819 -91 2113 -91 
Q 1303 -91 875 529 
Q 447 1150 447 2328 
Q 447 3434 972 4092 
Q 1497 4750 2381 4750 
Q 2619 4750 2861 4703 
Q 3103 4656 3366 4563 
z
" transform="scale(0.015625)"/>
       </defs>
       <use xlink:href="#DejaVuSans-36"/>
      </g>
     </g>
    </g>
    <g id="xtick_5">
     <g id="line2d_13">
      <path d="M 100.9152 298.944 
L 100.9152 27.648 
" clip-path="url(#p0cf105d322)" style="fill: none; stroke: #b0b0b0; stroke-width: 0.8; stroke-linecap: square"/>
     </g>
     <g id="line2d_14">
      <defs>
       <path id="m6d10a1102d" d="M 0 0 
L 0 2 
" style="stroke: #000000; stroke-width: 0.6"/>
      </defs>
      <g>
       <use xlink:href="#m6d10a1102d" x="100.9152" y="298.944" style="stroke: #000000; stroke-width: 0.6"/>
      </g>
     </g>
    </g>
    <g id="xtick_6">
     <g id="line2d_15">
      <path d="M 187.5456 298.944 
L 187.5456 27.648 
" clip-path="url(#p0cf105d322)" style="fill: none; stroke: #b0b0b0; stroke-width: 0.8; stroke-linecap: square"/>
     </g>
     <g id="line2d_16">
      <g>
       <use xlink:href="#m6d10a1102d" x="187.5456" y="298.944" style="stroke: #000000; stroke-width: 0.6"/>
      </g>
     </g>
    </g>
    <g id="xtick_7">
     <g id="line2d_17">
      <path d="M 274.176 298.944 
L 274.176 27.648 
" clip-path="url(#p0cf105d322)" style="fill: none; stroke: #b0b0b0; stroke-width: 0.8; stroke-linecap: square"/>
     </g>
     <g id="line2d_18">
      <g>
       <use xlink:href="#m6d10a1102d" x="274.176" y="298.944" style="stroke: #000000; stroke-width: 0.6"/>
      </g>
     </g>
    </g>
    <g id="xtick_8">
     <g id="line2d_19">
      <path d="M 360.8064 298.944 
L 360.8064 27.648 
" clip-path="url(#p0cf105d322)" style="fill: none; stroke: #b0b0b0; stroke-width: 0.8; stroke-linecap: square"/>
     </g>
     <g id="line2d_20">
      <g>
       <use xlink:href="#m6d10a1102d" x="360.8064" y="298.944" style="stroke: #000000; stroke-width: 0.6"/>
      </g>
     </g>
    </g>
    <g id="text_5">
     <!-- log10(# f-evals / dimension) -->
     <g transform="translate(88.823278 339.314156)scale(0.17 -0.17)">
      <defs>
       <path id="DejaVuSans-6c" d="M 603 4863 
L 1178 4863 
L 1178 0 
L 603 0 
L 603 4863 
z
" transform="scale(0.015625)"/>
       <path id="DejaVuSans-6f" d="M 1959 3097 
Q 1497 3097 1228 2736 
Q 959 2375 959 1747 
Q 959 1119 1226 758 
Q 1494 397 1959 397 
Q 2419 397 2687 759 
Q 2956 1122 2956 1747 
Q 2956 2369 2687 2733 
Q 2419 3097 1959 3097 
z
M 1959 3584 
Q 2709 3584 3137 3096 
Q 3566 2609 3566 1747 
Q 3566 888 3137 398 
Q 2709 -91 1959 -91 
Q 1206 -91 779 398 
Q 353 888 353 1747 
Q 353 2609 779 3096 
Q 1206 3584 1959 3584 
z
" transform="scale(0.015625)"/>
       <path id="DejaVuSans-67" d="M 2906 1791 
Q 2906 2416 2648 2759 
Q 2391 3103 1925 3103 
Q 1463 3103 1205 2759 
Q 947 2416 947 1791 
Q 947 1169 1205 825 
Q 1463 481 1925 481 
Q 2391 481 2648 825 
Q 2906 1169 2906 1791 
z
M 3481 434 
Q 3481 -459 3084 -895 
Q 2688 -1331 1869 -1331 
Q 1566 -1331 1297 -1286 
Q 1028 -1241 775 -1147 
L 775 -588 
Q 1028 -725 1275 -790 
Q 1522 -856 1778 -856 
Q 2344 -856 2625 -561 
Q 2906 -266 2906 331 
L 2906 616 
Q 2728 306 2450 153 
Q 2172 0 1784 0 
Q 1141 0 747 490 
Q 353 981 353 1791 
Q 353 2603 747 3093 
Q 1141 3584 1784 3584 
Q 2172 3584 2450 3431 
Q 2728 3278 2906 2969 
L 2906 3500 
L 3481 3500 
L 3481 434 
z
" transform="scale(0.015625)"/>
       <path id="DejaVuSans-31" d="M 794 531 
L 1825 531 
L 1825 4091 
L 703 3866 
L 703 4441 
L 1819 4666 
L 2450 4666 
L 2450 531 
L 3481 531 
L 3481 0 
L 794 0 
L 794 531 
z
" transform="scale(0.015625)"/>
       <path id="DejaVuSans-28" d="M 1984 4856 
Q 1566 4138 1362 3434 
Q 1159 2731 1159 2009 
Q 1159 1288 1364 580 
Q 1569 -128 1984 -844 
L 1484 -844 
Q 1016 -109 783 600 
Q 550 1309 550 2009 
Q 550 2706 781 3412 
Q 1013 4119 1484 4856 
L 1984 4856 
z
" transform="scale(0.015625)"/>
       <path id="DejaVuSans-23" d="M 3272 2816 
L 2363 2816 
L 2100 1772 
L 3016 1772 
L 3272 2816 
z
M 2803 4594 
L 2478 3297 
L 3391 3297 
L 3719 4594 
L 4219 4594 
L 3897 3297 
L 4872 3297 
L 4872 2816 
L 3775 2816 
L 3519 1772 
L 4513 1772 
L 4513 1294 
L 3397 1294 
L 3072 0 
L 2572 0 
L 2894 1294 
L 1978 1294 
L 1656 0 
L 1153 0 
L 1478 1294 
L 494 1294 
L 494 1772 
L 1594 1772 
L 1856 2816 
L 850 2816 
L 850 3297 
L 1978 3297 
L 2297 4594 
L 2803 4594 
z
" transform="scale(0.015625)"/>
       <path id="DejaVuSans-20" transform="scale(0.015625)"/>
       <path id="DejaVuSans-66" d="M 2375 4863 
L 2375 4384 
L 1825 4384 
Q 1516 4384 1395 4259 
Q 1275 4134 1275 3809 
L 1275 3500 
L 2222 3500 
L 2222 3053 
L 1275 3053 
L 1275 0 
L 697 0 
L 697 3053 
L 147 3053 
L 147 3500 
L 697 3500 
L 697 3744 
Q 697 4328 969 4595 
Q 1241 4863 1831 4863 
L 2375 4863 
z
" transform="scale(0.015625)"/>
       <path id="DejaVuSans-2d" d="M 313 2009 
L 1997 2009 
L 1997 1497 
L 313 1497 
L 313 2009 
z
" transform="scale(0.015625)"/>
       <path id="DejaVuSans-65" d="M 3597 1894 
L 3597 1613 
L 953 1613 
Q 991 1019 1311 708 
Q 1631 397 2203 397 
Q 2534 397 2845 478 
Q 3156 559 3463 722 
L 3463 178 
Q 3153 47 2828 -22 
Q 2503 -91 2169 -91 
Q 1331 -91 842 396 
Q 353 884 353 1716 
Q 353 2575 817 3079 
Q 1281 3584 2069 3584 
Q 2775 3584 3186 3129 
Q 3597 2675 3597 1894 
z
M 3022 2063 
Q 3016 2534 2758 2815 
Q 2500 3097 2075 3097 
Q 1594 3097 1305 2825 
Q 1016 2553 972 2059 
L 3022 2063 
z
" transform="scale(0.015625)"/>
       <path id="DejaVuSans-76" d="M 191 3500 
L 800 3500 
L 1894 563 
L 2988 3500 
L 3597 3500 
L 2284 0 
L 1503 0 
L 191 3500 
z
" transform="scale(0.015625)"/>
       <path id="DejaVuSans-61" d="M 2194 1759 
Q 1497 1759 1228 1600 
Q 959 1441 959 1056 
Q 959 750 1161 570 
Q 1363 391 1709 391 
Q 2188 391 2477 730 
Q 2766 1069 2766 1631 
L 2766 1759 
L 2194 1759 
z
M 3341 1997 
L 3341 0 
L 2766 0 
L 2766 531 
Q 2569 213 2275 61 
Q 1981 -91 1556 -91 
Q 1019 -91 701 211 
Q 384 513 384 1019 
Q 384 1609 779 1909 
Q 1175 2209 1959 2209 
L 2766 2209 
L 2766 2266 
Q 2766 2663 2505 2880 
Q 2244 3097 1772 3097 
Q 1472 3097 1187 3025 
Q 903 2953 641 2809 
L 641 3341 
Q 956 3463 1253 3523 
Q 1550 3584 1831 3584 
Q 2591 3584 2966 3190 
Q 3341 2797 3341 1997 
z
" transform="scale(0.015625)"/>
       <path id="DejaVuSans-73" d="M 2834 3397 
L 2834 2853 
Q 2591 2978 2328 3040 
Q 2066 3103 1784 3103 
Q 1356 3103 1142 2972 
Q 928 2841 928 2578 
Q 928 2378 1081 2264 
Q 1234 2150 1697 2047 
L 1894 2003 
Q 2506 1872 2764 1633 
Q 3022 1394 3022 966 
Q 3022 478 2636 193 
Q 2250 -91 1575 -91 
Q 1294 -91 989 -36 
Q 684 19 347 128 
L 347 722 
Q 666 556 975 473 
Q 1284 391 1588 391 
Q 1994 391 2212 530 
Q 2431 669 2431 922 
Q 2431 1156 2273 1281 
Q 2116 1406 1581 1522 
L 1381 1569 
Q 847 1681 609 1914 
Q 372 2147 372 2553 
Q 372 3047 722 3315 
Q 1072 3584 1716 3584 
Q 2034 3584 2315 3537 
Q 2597 3491 2834 3397 
z
" transform="scale(0.015625)"/>
       <path id="DejaVuSans-2f" d="M 1625 4666 
L 2156 4666 
L 531 -594 
L 0 -594 
L 1625 4666 
z
" transform="scale(0.015625)"/>
       <path id="DejaVuSans-64" d="M 2906 2969 
L 2906 4863 
L 3481 4863 
L 3481 0 
L 2906 0 
L 2906 525 
Q 2725 213 2448 61 
Q 2172 -91 1784 -91 
Q 1150 -91 751 415 
Q 353 922 353 1747 
Q 353 2572 751 3078 
Q 1150 3584 1784 3584 
Q 2172 3584 2448 3432 
Q 2725 3281 2906 2969 
z
M 947 1747 
Q 947 1113 1208 752 
Q 1469 391 1925 391 
Q 2381 391 2643 752 
Q 2906 1113 2906 1747 
Q 2906 2381 2643 2742 
Q 2381 3103 1925 3103 
Q 1469 3103 1208 2742 
Q 947 2381 947 1747 
z
" transform="scale(0.015625)"/>
       <path id="DejaVuSans-69" d="M 603 3500 
L 1178 3500 
L 1178 0 
L 603 0 
L 603 3500 
z
M 603 4863 
L 1178 4863 
L 1178 4134 
L 603 4134 
L 603 4863 
z
" transform="scale(0.015625)"/>
       <path id="DejaVuSans-6d" d="M 3328 2828 
Q 3544 3216 3844 3400 
Q 4144 3584 4550 3584 
Q 5097 3584 5394 3201 
Q 5691 2819 5691 2113 
L 5691 0 
L 5113 0 
L 5113 2094 
Q 5113 2597 4934 2840 
Q 4756 3084 4391 3084 
Q 3944 3084 3684 2787 
Q 3425 2491 3425 1978 
L 3425 0 
L 2847 0 
L 2847 2094 
Q 2847 2600 2669 2842 
Q 2491 3084 2119 3084 
Q 1678 3084 1418 2786 
Q 1159 2488 1159 1978 
L 1159 0 
L 581 0 
L 581 3500 
L 1159 3500 
L 1159 2956 
Q 1356 3278 1631 3431 
Q 1906 3584 2284 3584 
Q 2666 3584 2933 3390 
Q 3200 3197 3328 2828 
z
" transform="scale(0.015625)"/>
       <path id="DejaVuSans-6e" d="M 3513 2113 
L 3513 0 
L 2938 0 
L 2938 2094 
Q 2938 2591 2744 2837 
Q 2550 3084 2163 3084 
Q 1697 3084 1428 2787 
Q 1159 2491 1159 1978 
L 1159 0 
L 581 0 
L 581 3500 
L 1159 3500 
L 1159 2956 
Q 1366 3272 1645 3428 
Q 1925 3584 2291 3584 
Q 2894 3584 3203 3211 
Q 3513 2838 3513 2113 
z
" transform="scale(0.015625)"/>
       <path id="DejaVuSans-29" d="M 513 4856 
L 1013 4856 
Q 1481 4119 1714 3412 
Q 1947 2706 1947 2009 
Q 1947 1309 1714 600 
Q 1481 -109 1013 -844 
L 513 -844 
Q 928 -128 1133 580 
Q 1338 1288 1338 2009 
Q 1338 2731 1133 3434 
Q 928 4138 513 4856 
z
" transform="scale(0.015625)"/>
      </defs>
      <use xlink:href="#DejaVuSans-6c"/>
      <use xlink:href="#DejaVuSans-6f" x="27.783203"/>
      <use xlink:href="#DejaVuSans-67" x="88.964844"/>
      <use xlink:href="#DejaVuSans-31" x="152.441406"/>
      <use xlink:href="#DejaVuSans-30" x="216.064453"/>
      <use xlink:href="#DejaVuSans-28" x="279.6875"/>
      <use xlink:href="#DejaVuSans-23" x="318.701172"/>
      <use xlink:href="#DejaVuSans-20" x="402.490234"/>
      <use xlink:href="#DejaVuSans-66" x="434.277344"/>
      <use xlink:href="#DejaVuSans-2d" x="463.982422"/>
      <use xlink:href="#DejaVuSans-65" x="500.066406"/>
      <use xlink:href="#DejaVuSans-76" x="561.589844"/>
      <use xlink:href="#DejaVuSans-61" x="620.769531"/>
      <use xlink:href="#DejaVuSans-6c" x="682.048828"/>
      <use xlink:href="#DejaVuSans-73" x="709.832031"/>
      <use xlink:href="#DejaVuSans-20" x="761.931641"/>
      <use xlink:href="#DejaVuSans-2f" x="793.71875"/>
      <use xlink:href="#DejaVuSans-20" x="827.410156"/>
      <use xlink:href="#DejaVuSans-64" x="859.197266"/>
      <use xlink:href="#DejaVuSans-69" x="922.673828"/>
      <use xlink:href="#DejaVuSans-6d" x="950.457031"/>
      <use xlink:href="#DejaVuSans-65" x="1047.869141"/>
      <use xlink:href="#DejaVuSans-6e" x="1109.392578"/>
      <use xlink:href="#DejaVuSans-73" x="1172.771484"/>
      <use xlink:href="#DejaVuSans-69" x="1224.871094"/>
      <use xlink:href="#DejaVuSans-6f" x="1252.654297"/>
      <use xlink:href="#DejaVuSans-6e" x="1313.835938"/>
      <use xlink:href="#DejaVuSans-29" x="1377.214844"/>
     </g>
    </g>
   </g>
   <g id="matplotlib.axis_2">
    <g id="ytick_1">
     <g id="line2d_21">
      <path d="M 57.6 298.944 
L 360.8064 298.944 
" clip-path="url(#p0cf105d322)" style="fill: none; stroke: #b0b0b0; stroke-width: 0.8; stroke-linecap: square"/>
     </g>
     <g id="line2d_22">
      <defs>
       <path id="m06e20620b8" d="M 0 0 
L -3.5 0 
" style="stroke: #000000; stroke-width: 0.8"/>
      </defs>
      <g>
       <use xlink:href="#m06e20620b8" x="57.6" y="298.944" style="stroke: #000000; stroke-width: 0.8"/>
      </g>
     </g>
     <g id="text_6">
      <!-- 0.0 -->
      <g transform="translate(25.155 305.02275)scale(0.16 -0.16)">
       <defs>
        <path id="DejaVuSans-2e" d="M 684 794 
L 1344 794 
L 1344 0 
L 684 0 
L 684 794 
z
" transform="scale(0.015625)"/>
       </defs>
       <use xlink:href="#DejaVuSans-30"/>
       <use xlink:href="#DejaVuSans-2e" x="63.623047"/>
       <use xlink:href="#DejaVuSans-30" x="95.410156"/>
      </g>
     </g>
    </g>
    <g id="ytick_2">
     <g id="line2d_23">
      <path d="M 57.6 244.6848 
L 360.8064 244.6848 
" clip-path="url(#p0cf105d322)" style="fill: none; stroke: #b0b0b0; stroke-width: 0.8; stroke-linecap: square"/>
     </g>
     <g id="line2d_24">
      <g>
       <use xlink:href="#m06e20620b8" x="57.6" y="244.6848" style="stroke: #000000; stroke-width: 0.8"/>
      </g>
     </g>
     <g id="text_7">
      <!-- 0.2 -->
      <g transform="translate(25.155 250.76355)scale(0.16 -0.16)">
       <use xlink:href="#DejaVuSans-30"/>
       <use xlink:href="#DejaVuSans-2e" x="63.623047"/>
       <use xlink:href="#DejaVuSans-32" x="95.410156"/>
      </g>
     </g>
    </g>
    <g id="ytick_3">
     <g id="line2d_25">
      <path d="M 57.6 190.4256 
L 360.8064 190.4256 
" clip-path="url(#p0cf105d322)" style="fill: none; stroke: #b0b0b0; stroke-width: 0.8; stroke-linecap: square"/>
     </g>
     <g id="line2d_26">
      <g>
       <use xlink:href="#m06e20620b8" x="57.6" y="190.4256" style="stroke: #000000; stroke-width: 0.8"/>
      </g>
     </g>
     <g id="text_8">
      <!-- 0.4 -->
      <g transform="translate(25.155 196.50435)scale(0.16 -0.16)">
       <use xlink:href="#DejaVuSans-30"/>
       <use xlink:href="#DejaVuSans-2e" x="63.623047"/>
       <use xlink:href="#DejaVuSans-34" x="95.410156"/>
      </g>
     </g>
    </g>
    <g id="ytick_4">
     <g id="line2d_27">
      <path d="M 57.6 136.1664 
L 360.8064 136.1664 
" clip-path="url(#p0cf105d322)" style="fill: none; stroke: #b0b0b0; stroke-width: 0.8; stroke-linecap: square"/>
     </g>
     <g id="line2d_28">
      <g>
       <use xlink:href="#m06e20620b8" x="57.6" y="136.1664" style="stroke: #000000; stroke-width: 0.8"/>
      </g>
     </g>
     <g id="text_9">
      <!-- 0.6 -->
      <g transform="translate(25.155 142.24515)scale(0.16 -0.16)">
       <use xlink:href="#DejaVuSans-30"/>
       <use xlink:href="#DejaVuSans-2e" x="63.623047"/>
       <use xlink:href="#DejaVuSans-36" x="95.410156"/>
      </g>
     </g>
    </g>
    <g id="ytick_5">
     <g id="line2d_29">
      <path d="M 57.6 81.9072 
L 360.8064 81.9072 
" clip-path="url(#p0cf105d322)" style="fill: none; stroke: #b0b0b0; stroke-width: 0.8; stroke-linecap: square"/>
     </g>
     <g id="line2d_30">
      <g>
       <use xlink:href="#m06e20620b8" x="57.6" y="81.9072" style="stroke: #000000; stroke-width: 0.8"/>
      </g>
     </g>
     <g id="text_10">
      <!-- 0.8 -->
      <g transform="translate(25.155 87.98595)scale(0.16 -0.16)">
       <defs>
        <path id="DejaVuSans-38" d="M 2034 2216 
Q 1584 2216 1326 1975 
Q 1069 1734 1069 1313 
Q 1069 891 1326 650 
Q 1584 409 2034 409 
Q 2484 409 2743 651 
Q 3003 894 3003 1313 
Q 3003 1734 2745 1975 
Q 2488 2216 2034 2216 
z
M 1403 2484 
Q 997 2584 770 2862 
Q 544 3141 544 3541 
Q 544 4100 942 4425 
Q 1341 4750 2034 4750 
Q 2731 4750 3128 4425 
Q 3525 4100 3525 3541 
Q 3525 3141 3298 2862 
Q 3072 2584 2669 2484 
Q 3125 2378 3379 2068 
Q 3634 1759 3634 1313 
Q 3634 634 3220 271 
Q 2806 -91 2034 -91 
Q 1263 -91 848 271 
Q 434 634 434 1313 
Q 434 1759 690 2068 
Q 947 2378 1403 2484 
z
M 1172 3481 
Q 1172 3119 1398 2916 
Q 1625 2713 2034 2713 
Q 2441 2713 2670 2916 
Q 2900 3119 2900 3481 
Q 2900 3844 2670 4047 
Q 2441 4250 2034 4250 
Q 1625 4250 1398 4047 
Q 1172 3844 1172 3481 
z
" transform="scale(0.015625)"/>
       </defs>
       <use xlink:href="#DejaVuSans-30"/>
       <use xlink:href="#DejaVuSans-2e" x="63.623047"/>
       <use xlink:href="#DejaVuSans-38" x="95.410156"/>
      </g>
     </g>
    </g>
    <g id="ytick_6">
     <g id="line2d_31">
      <path d="M 57.6 27.648 
L 360.8064 27.648 
" clip-path="url(#p0cf105d322)" style="fill: none; stroke: #b0b0b0; stroke-width: 0.8; stroke-linecap: square"/>
     </g>
     <g id="line2d_32">
      <g>
       <use xlink:href="#m06e20620b8" x="57.6" y="27.648" style="stroke: #000000; stroke-width: 0.8"/>
      </g>
     </g>
     <g id="text_11">
      <!-- 1.0 -->
      <g transform="translate(25.155 33.72675)scale(0.16 -0.16)">
       <use xlink:href="#DejaVuSans-31"/>
       <use xlink:href="#DejaVuSans-2e" x="63.623047"/>
       <use xlink:href="#DejaVuSans-30" x="95.410156"/>
      </g>
     </g>
    </g>
    <g id="text_12">
     <!-- Fraction of function,target pairs -->
     <g transform="translate(17.619531 297.681)rotate(-90)scale(0.17 -0.17)">
      <defs>
       <path id="DejaVuSans-46" d="M 628 4666 
L 3309 4666 
L 3309 4134 
L 1259 4134 
L 1259 2759 
L 3109 2759 
L 3109 2228 
L 1259 2228 
L 1259 0 
L 628 0 
L 628 4666 
z
" transform="scale(0.015625)"/>
       <path id="DejaVuSans-72" d="M 2631 2963 
Q 2534 3019 2420 3045 
Q 2306 3072 2169 3072 
Q 1681 3072 1420 2755 
Q 1159 2438 1159 1844 
L 1159 0 
L 581 0 
L 581 3500 
L 1159 3500 
L 1159 2956 
Q 1341 3275 1631 3429 
Q 1922 3584 2338 3584 
Q 2397 3584 2469 3576 
Q 2541 3569 2628 3553 
L 2631 2963 
z
" transform="scale(0.015625)"/>
       <path id="DejaVuSans-63" d="M 3122 3366 
L 3122 2828 
Q 2878 2963 2633 3030 
Q 2388 3097 2138 3097 
Q 1578 3097 1268 2742 
Q 959 2388 959 1747 
Q 959 1106 1268 751 
Q 1578 397 2138 397 
Q 2388 397 2633 464 
Q 2878 531 3122 666 
L 3122 134 
Q 2881 22 2623 -34 
Q 2366 -91 2075 -91 
Q 1284 -91 818 406 
Q 353 903 353 1747 
Q 353 2603 823 3093 
Q 1294 3584 2113 3584 
Q 2378 3584 2631 3529 
Q 2884 3475 3122 3366 
z
" transform="scale(0.015625)"/>
       <path id="DejaVuSans-74" d="M 1172 4494 
L 1172 3500 
L 2356 3500 
L 2356 3053 
L 1172 3053 
L 1172 1153 
Q 1172 725 1289 603 
Q 1406 481 1766 481 
L 2356 481 
L 2356 0 
L 1766 0 
Q 1100 0 847 248 
Q 594 497 594 1153 
L 594 3053 
L 172 3053 
L 172 3500 
L 594 3500 
L 594 4494 
L 1172 4494 
z
" transform="scale(0.015625)"/>
       <path id="DejaVuSans-75" d="M 544 1381 
L 544 3500 
L 1119 3500 
L 1119 1403 
Q 1119 906 1312 657 
Q 1506 409 1894 409 
Q 2359 409 2629 706 
Q 2900 1003 2900 1516 
L 2900 3500 
L 3475 3500 
L 3475 0 
L 2900 0 
L 2900 538 
Q 2691 219 2414 64 
Q 2138 -91 1772 -91 
Q 1169 -91 856 284 
Q 544 659 544 1381 
z
M 1991 3584 
L 1991 3584 
z
" transform="scale(0.015625)"/>
       <path id="DejaVuSans-2c" d="M 750 794 
L 1409 794 
L 1409 256 
L 897 -744 
L 494 -744 
L 750 256 
L 750 794 
z
" transform="scale(0.015625)"/>
       <path id="DejaVuSans-70" d="M 1159 525 
L 1159 -1331 
L 581 -1331 
L 581 3500 
L 1159 3500 
L 1159 2969 
Q 1341 3281 1617 3432 
Q 1894 3584 2278 3584 
Q 2916 3584 3314 3078 
Q 3713 2572 3713 1747 
Q 3713 922 3314 415 
Q 2916 -91 2278 -91 
Q 1894 -91 1617 61 
Q 1341 213 1159 525 
z
M 3116 1747 
Q 3116 2381 2855 2742 
Q 2594 3103 2138 3103 
Q 1681 3103 1420 2742 
Q 1159 2381 1159 1747 
Q 1159 1113 1420 752 
Q 1681 391 2138 391 
Q 2594 391 2855 752 
Q 3116 1113 3116 1747 
z
" transform="scale(0.015625)"/>
      </defs>
      <use xlink:href="#DejaVuSans-46"/>
      <use xlink:href="#DejaVuSans-72" x="50.269531"/>
      <use xlink:href="#DejaVuSans-61" x="91.382812"/>
      <use xlink:href="#DejaVuSans-63" x="152.662109"/>
      <use xlink:href="#DejaVuSans-74" x="207.642578"/>
      <use xlink:href="#DejaVuSans-69" x="246.851562"/>
      <use xlink:href="#DejaVuSans-6f" x="274.634766"/>
      <use xlink:href="#DejaVuSans-6e" x="335.816406"/>
      <use xlink:href="#DejaVuSans-20" x="399.195312"/>
      <use xlink:href="#DejaVuSans-6f" x="430.982422"/>
      <use xlink:href="#DejaVuSans-66" x="492.164062"/>
      <use xlink:href="#DejaVuSans-20" x="527.369141"/>
      <use xlink:href="#DejaVuSans-66" x="559.15625"/>
      <use xlink:href="#DejaVuSans-75" x="594.361328"/>
      <use xlink:href="#DejaVuSans-6e" x="657.740234"/>
      <use xlink:href="#DejaVuSans-63" x="721.119141"/>
      <use xlink:href="#DejaVuSans-74" x="776.099609"/>
      <use xlink:href="#DejaVuSans-69" x="815.308594"/>
      <use xlink:href="#DejaVuSans-6f" x="843.091797"/>
      <use xlink:href="#DejaVuSans-6e" x="904.273438"/>
      <use xlink:href="#DejaVuSans-2c" x="967.652344"/>
      <use xlink:href="#DejaVuSans-74" x="999.439453"/>
      <use xlink:href="#DejaVuSans-61" x="1038.648438"/>
      <use xlink:href="#DejaVuSans-72" x="1099.927734"/>
      <use xlink:href="#DejaVuSans-67" x="1139.291016"/>
      <use xlink:href="#DejaVuSans-65" x="1202.767578"/>
      <use xlink:href="#DejaVuSans-74" x="1264.291016"/>
      <use xlink:href="#DejaVuSans-20" x="1303.5"/>
      <use xlink:href="#DejaVuSans-70" x="1335.287109"/>
      <use xlink:href="#DejaVuSans-61" x="1398.763672"/>
      <use xlink:href="#DejaVuSans-69" x="1460.042969"/>
      <use xlink:href="#DejaVuSans-72" x="1487.826172"/>
      <use xlink:href="#DejaVuSans-73" x="1528.939453"/>
     </g>
    </g>
   </g>
   <g id="line2d_33">
    <defs>
     <path id="m64aae77e96" d="M 0 1.5 
C 0.397805 1.5 0.77937 1.341951 1.06066 1.06066 
C 1.341951 0.77937 1.5 0.397805 1.5 0 
C 1.5 -0.397805 1.341951 -0.77937 1.06066 -1.06066 
C 0.77937 -1.341951 0.397805 -1.5 0 -1.5 
C -0.397805 -1.5 -0.77937 -1.341951 -1.06066 -1.06066 
C -1.341951 -0.77937 -1.5 -0.397805 -1.5 0 
C -1.5 0.397805 -1.341951 0.77937 -1.06066 1.06066 
C -0.77937 1.341951 -0.397805 1.5 0 1.5 
z
" style="stroke: #f5deb3"/>
    </defs>
    <g>
     <use xlink:href="#m64aae77e96" x="155.701037" y="27.648" style="fill: #f5deb3; stroke: #f5deb3"/>
     <use xlink:href="#m64aae77e96" x="155.701037" y="27.648" style="fill: #f5deb3; stroke: #f5deb3"/>
    </g>
   </g>
   <g id="line2d_34">
    <defs>
     <path id="m993162231b" d="M 0 1.5 
C 0.397805 1.5 0.77937 1.341951 1.06066 1.06066 
C 1.341951 0.77937 1.5 0.397805 1.5 0 
C 1.5 -0.397805 1.341951 -0.77937 1.06066 -1.06066 
C 0.77937 -1.341951 0.397805 -1.5 0 -1.5 
C -0.397805 -1.5 -0.77937 -1.341951 -1.06066 -1.06066 
C -1.341951 -0.77937 -1.5 -0.397805 -1.5 0 
C -1.5 0.397805 -1.341951 0.77937 -1.06066 1.06066 
C -0.77937 1.341951 -0.397805 1.5 0 1.5 
z
" style="stroke: #000080"/>
    </defs>
    <g>
     <use xlink:href="#m993162231b" x="216.669657" y="27.648" style="fill: #000080; stroke: #000080"/>
     <use xlink:href="#m993162231b" x="216.669657" y="27.648" style="fill: #000080; stroke: #000080"/>
    </g>
   </g>
   <g id="line2d_35">
    <path d="M 36.933397 298.944 
L 36.933397 276.601976 
L 49.972572 276.601976 
L 49.972572 271.637082 
L 57.6 271.637082 
L 57.6 268.445365 
L 67.209423 268.445365 
L 67.209423 265.608282 
L 70.639174 265.608282 
L 70.639174 264.544376 
L 73.538988 264.544376 
L 73.538988 263.835106 
L 76.050921 263.835106 
L 76.050921 263.480471 
L 78.266603 263.480471 
L 78.266603 262.061929 
L 80.248597 262.061929 
L 80.248597 260.643388 
L 82.04153 260.643388 
L 82.04153 259.224847 
L 83.678349 259.224847 
L 83.678349 258.870212 
L 93.287772 258.870212 
L 93.287772 258.160941 
L 96.717523 258.160941 
L 96.717523 256.033129 
L 97.485448 256.033129 
L 97.485448 255.678494 
L 98.933205 255.678494 
L 98.933205 255.323859 
L 100.277459 255.323859 
L 100.277459 254.969224 
L 101.532027 254.969224 
L 101.532027 254.259953 
L 103.815014 254.259953 
L 103.815014 253.905318 
L 108.119879 253.905318 
L 108.119879 253.196047 
L 112.317555 253.196047 
L 112.317555 252.841412 
L 112.656511 252.841412 
L 112.656511 252.486776 
L 112.989468 252.486776 
L 112.989468 251.422871 
L 114.265316 251.422871 
L 114.265316 251.068235 
L 114.571202 251.068235 
L 114.571202 250.7136 
L 115.168444 250.7136 
L 115.168444 250.358965 
L 115.747307 250.358965 
L 115.747307 246.812612 
L 116.583514 246.812612 
L 116.583514 245.748706 
L 117.384126 245.748706 
L 117.384126 244.6848 
L 119.366121 244.6848 
L 119.366121 243.975529 
L 120.058649 243.975529 
L 120.058649 240.429176 
L 122.399825 240.429176 
L 122.399825 238.656 
L 123.374735 238.656 
L 123.374735 237.592094 
L 124.836562 237.592094 
L 124.836562 236.173553 
L 125.184934 236.173553 
L 125.184934 235.109647 
L 125.526971 235.109647 
L 125.526971 232.981835 
L 125.862901 232.981835 
L 125.862901 231.563294 
L 126.192937 231.563294 
L 126.192937 231.208659 
L 126.836129 231.208659 
L 126.836129 230.854024 
L 127.304491 230.854024 
L 127.304491 226.243765 
L 127.458055 226.243765 
L 127.458055 225.534494 
L 128.207619 225.534494 
L 128.207619 222.697412 
L 129.348062 222.697412 
L 129.348062 222.342776 
L 129.893363 222.342776 
L 129.893363 221.278871 
L 130.027253 221.278871 
L 130.027253 220.924235 
L 130.938718 220.924235 
L 130.938718 220.214965 
L 131.065395 220.214965 
L 131.065395 219.151059 
L 131.191226 219.151059 
L 131.191226 218.441788 
L 131.563744 218.441788 
L 131.563744 217.732518 
L 131.929028 217.732518 
L 131.929028 217.377882 
L 132.04923 217.377882 
L 132.04923 214.5408 
L 132.984158 214.5408 
L 132.984158 213.831529 
L 133.434756 213.831529 
L 133.434756 211.703718 
L 133.983236 211.703718 
L 133.983236 209.930541 
L 134.304809 209.930541 
L 134.304809 207.448094 
L 134.931919 207.448094 
L 135.034434 205.674918 
L 135.136394 205.674918 
L 135.237805 204.611012 
L 135.538796 204.611012 
L 135.638065 200.355388 
L 135.932769 200.355388 
L 135.932769 200.000753 
L 136.222928 200.000753 
L 136.222928 199.291482 
L 136.413909 199.291482 
L 136.413909 198.936847 
L 137.159019 198.936847 
L 137.159019 198.582212 
L 137.963436 198.582212 
L 137.963436 198.227576 
L 138.137618 198.227576 
L 138.137618 197.518306 
L 138.310202 197.518306 
L 138.310202 196.4544 
L 138.818654 196.4544 
L 138.902075 191.844141 
L 139.067817 191.844141 
L 139.067817 190.780235 
L 139.475893 190.780235 
L 139.556456 188.652424 
L 139.636676 188.652424 
L 139.716555 186.169976 
L 139.954178 186.169976 
L 140.032723 184.751435 
L 140.26641 184.751435 
L 140.343665 182.268988 
L 140.800648 182.268988 
L 140.800648 181.914353 
L 140.950542 181.914353 
L 140.950542 179.431906 
L 141.099251 179.431906 
L 141.173167 175.176282 
L 141.320133 175.176282 
L 141.393187 174.112376 
L 141.538451 174.112376 
L 141.538451 169.856753 
L 141.682602 169.856753 
L 141.682602 169.147482 
L 142.178603 169.147482 
L 142.178603 168.792847 
L 142.317949 168.792847 
L 142.317949 168.083576 
L 142.865233 168.083576 
L 142.865233 167.374306 
L 143.977892 167.374306 
L 143.977892 165.601129 
L 144.968202 165.601129 
L 145.0284 163.473318 
L 145.088405 163.473318 
L 145.088405 163.118682 
L 145.851536 163.118682 
L 145.851536 162.409412 
L 146.080251 162.409412 
L 146.080251 160.636235 
L 147.397049 160.636235 
L 147.397049 158.863059 
L 147.816265 158.863059 
L 147.816265 158.153788 
L 162.845206 158.153788 
L 162.845206 157.089882 
L 163.554297 157.089882 
L 163.554297 155.316706 
L 164.041785 155.316706 
L 164.041785 154.2528 
L 164.302457 154.2528 
L 164.302457 153.188894 
L 164.729041 153.188894 
L 164.771172 151.061082 
L 165.104867 151.061082 
L 165.104867 150.351812 
L 165.392072 150.351812 
L 165.473332 147.869365 
L 165.654892 147.869365 
L 165.715025 146.450824 
L 166.150222 146.450824 
L 166.208795 145.032282 
L 166.306012 145.032282 
L 166.306012 144.677647 
L 166.460523 144.677647 
L 166.460523 143.613741 
L 166.689935 143.613741 
L 166.746854 139.712753 
L 166.991529 139.712753 
L 166.991529 137.230306 
L 167.435044 137.230306 
L 167.435044 136.1664 
L 167.886182 136.1664 
L 167.886182 135.811765 
L 168.010586 135.811765 
L 168.010586 132.620047 
L 168.309328 132.620047 
L 168.309328 131.910776 
L 168.430973 131.910776 
L 168.465585 131.201506 
L 168.586228 131.201506 
L 168.689024 129.428329 
L 168.79126 129.428329 
L 168.876036 128.364424 
L 168.96043 128.364424 
L 168.96043 128.009788 
L 178.623668 128.009788 
L 178.623668 126.945882 
L 180.058732 126.945882 
L 180.058732 126.236612 
L 180.170429 126.236612 
L 180.263006 121.980988 
L 180.59256 121.980988 
L 180.59256 120.917082 
L 181.085154 120.917082 
L 181.085154 120.207812 
L 181.41811 120.207812 
L 181.41811 118.08 
L 181.787904 118.08 
L 181.787904 115.952188 
L 182.399511 115.952188 
L 182.399511 114.179012 
L 182.943869 114.179012 
L 182.943869 113.824376 
L 183.166777 113.824376 
L 183.237868 112.760471 
L 183.324394 112.760471 
L 183.363593 109.923388 
L 183.58161 109.923388 
L 183.58161 109.214118 
L 183.766492 109.214118 
L 183.858256 104.249224 
L 184.025336 104.249224 
L 184.100793 103.185318 
L 184.744809 103.185318 
L 184.744809 102.830682 
L 184.983436 102.830682 
L 184.983436 102.121412 
L 185.112332 102.121412 
L 185.112332 99.9936 
L 185.43076 99.9936 
L 185.43076 97.156518 
L 185.598409 97.156518 
L 185.598409 93.255529 
L 185.812768 93.255529 
L 185.812768 91.836988 
L 185.997499 91.836988 
L 186.051887 90.418447 
L 186.334874 90.418447 
L 186.428265 84.744282 
L 191.342746 84.744282 
L 191.342746 84.035012 
L 191.783365 84.035012 
L 191.783365 82.261835 
L 192.272518 82.261835 
L 192.374662 81.197929 
L 192.610864 81.197929 
L 192.673035 78.360847 
L 193.191033 78.360847 
L 193.265204 75.523765 
L 193.403491 75.523765 
L 193.403491 72.332047 
L 193.924369 72.332047 
L 193.924369 71.977412 
L 194.664577 71.977412 
L 194.664577 70.558871 
L 203.368675 70.558871 
L 203.368675 70.204235 
L 211.156752 70.204235 
L 211.156752 69.494965 
L 211.324015 69.494965 
L 211.324015 68.431059 
L 211.523137 68.431059 
L 211.591374 65.948612 
L 211.904863 65.948612 
L 211.93061 65.239341 
L 212.04689 65.239341 
L 212.04689 64.884706 
L 212.310963 64.884706 
L 212.314325 63.466165 
L 212.586296 63.466165 
L 212.673888 59.919812 
L 212.752866 59.919812 
L 212.752866 59.210541 
L 212.878871 59.210541 
L 212.929363 58.146635 
L 213.293428 58.146635 
L 213.293428 57.437365 
L 213.453878 57.437365 
L 213.5202 54.600282 
L 213.67561 54.600282 
L 213.776953 53.181741 
L 213.917922 53.181741 
L 213.917922 52.117835 
L 214.062438 52.117835 
L 214.129704 49.990024 
L 214.19673 49.990024 
L 214.19673 48.216847 
L 214.343655 48.216847 
L 214.441471 46.089035 
L 215.123887 46.089035 
L 215.123887 45.7344 
L 215.298223 45.7344 
L 215.389785 43.251953 
L 215.490842 43.251953 
L 215.490842 41.833412 
L 215.666045 41.833412 
L 215.680103 38.287059 
L 215.829874 38.287059 
L 215.939692 35.449976 
L 215.999199 35.449976 
L 216.090169 30.130447 
L 216.326555 30.130447 
L 216.337414 28.002635 
L 216.669657 28.002635 
L 216.669657 27.648 
L 360.8064 27.648 
L 360.8064 27.648 
" style="fill: none; stroke: #000080; stroke-width: 1.5; stroke-linecap: square"/>
   </g>
   <g id="line2d_36">
    <defs>
     <path id="m53ad0e5ed9" d="M 0 6 
C 1.591219 6 3.117479 5.367802 4.242641 4.242641 
C 5.367802 3.117479 6 1.591219 6 0 
C 6 -1.591219 5.367802 -3.117479 4.242641 -4.242641 
C 3.117479 -5.367802 1.591219 -6 0 -6 
C -1.591219 -6 -3.117479 -5.367802 -4.242641 -4.242641 
C -5.367802 -3.117479 -6 -1.591219 -6 0 
C -6 1.591219 -5.367802 3.117479 -4.242641 4.242641 
C -3.117479 5.367802 -1.591219 6 0 6 
z
" style="stroke: #000080; stroke-width: 1.5"/>
    </defs>
    <g>
     <use xlink:href="#m53ad0e5ed9" x="129.348062" y="222.342776" style="fill-opacity: 0; stroke: #000080; stroke-width: 1.5"/>
     <use xlink:href="#m53ad0e5ed9" x="168.96043" y="128.009788" style="fill-opacity: 0; stroke: #000080; stroke-width: 1.5"/>
     <use xlink:href="#m53ad0e5ed9" x="216.669657" y="28.002635" style="fill-opacity: 0; stroke: #000080; stroke-width: 1.5"/>
     <use xlink:href="#m53ad0e5ed9" x="216.669657" y="27.648" style="fill-opacity: 0; stroke: #000080; stroke-width: 1.5"/>
     <use xlink:href="#m53ad0e5ed9" x="216.669657" y="27.648" style="fill-opacity: 0; stroke: #000080; stroke-width: 1.5"/>
     <use xlink:href="#m53ad0e5ed9" x="360.8064" y="27.648" style="fill-opacity: 0; stroke: #000080; stroke-width: 1.5"/>
    </g>
   </g>
   <g id="line2d_37">
    <path style="fill: none; stroke: #000080; stroke-width: 1.5; stroke-linecap: square"/>
    <g/>
   </g>
   <g id="line2d_38">
    <defs>
     <path id="m01be800a66" d="M 0 1.5 
C 0.397805 1.5 0.77937 1.341951 1.06066 1.06066 
C 1.341951 0.77937 1.5 0.397805 1.5 0 
C 1.5 -0.397805 1.341951 -0.77937 1.06066 -1.06066 
C 0.77937 -1.341951 0.397805 -1.5 0 -1.5 
C -0.397805 -1.5 -0.77937 -1.341951 -1.06066 -1.06066 
C -1.341951 -0.77937 -1.5 -0.397805 -1.5 0 
C -1.5 0.397805 -1.341951 0.77937 -1.06066 1.06066 
C -0.77937 1.341951 -0.397805 1.5 0 1.5 
z
" style="stroke: #ff00ff"/>
    </defs>
    <g>
     <use xlink:href="#m01be800a66" x="240.976893" y="27.648" style="fill: #ff00ff; stroke: #ff00ff"/>
     <use xlink:href="#m01be800a66" x="240.976893" y="27.648" style="fill: #ff00ff; stroke: #ff00ff"/>
    </g>
   </g>
   <g id="line2d_39">
    <path d="M 36.933397 298.944 
L 36.933397 276.601976 
L 49.972572 276.601976 
L 49.972572 274.474165 
L 57.6 274.474165 
L 57.6 273.055624 
L 63.011746 273.055624 
L 63.011746 270.927812 
L 67.209423 270.927812 
L 67.209423 269.154635 
L 70.639174 269.154635 
L 70.639174 268.445365 
L 73.538988 268.445365 
L 73.538988 267.026824 
L 78.266603 267.026824 
L 78.266603 266.317553 
L 82.04153 266.317553 
L 82.04153 264.899012 
L 85.184077 264.899012 
L 85.184077 264.189741 
L 86.578163 264.189741 
L 86.578163 263.835106 
L 87.876026 263.835106 
L 87.876026 262.7712 
L 89.090095 262.7712 
L 89.090095 262.416565 
L 90.230539 262.416565 
L 90.230539 261.352659 
L 93.287772 261.352659 
L 93.287772 260.998024 
L 94.205591 260.998024 
L 94.205591 260.288753 
L 96.717523 260.288753 
L 96.717523 258.160941 
L 100.277459 258.160941 
L 100.277459 257.806306 
L 100.9152 257.806306 
L 100.9152 256.7424 
L 103.269713 256.7424 
L 103.269713 254.614588 
L 103.815014 254.614588 
L 103.815014 254.259953 
L 104.344952 254.259953 
L 104.344952 250.358965 
L 104.860369 250.358965 
L 104.860369 249.649694 
L 108.119879 249.649694 
L 108.119879 249.295059 
L 109.756698 249.295059 
L 109.756698 248.940424 
L 110.897141 248.940424 
L 110.897141 248.585788 
L 111.620752 248.585788 
L 111.620752 247.876518 
L 112.317555 247.876518 
L 112.317555 247.167247 
L 112.989468 247.167247 
L 112.989468 246.457976 
L 113.638206 246.457976 
L 113.638206 245.394071 
L 114.265316 245.394071 
L 114.265316 244.330165 
L 114.872193 244.330165 
L 114.872193 243.266259 
L 115.168444 243.266259 
L 115.168444 242.556988 
L 116.030193 242.556988 
L 116.030193 241.847718 
L 119.129494 241.847718 
L 119.129494 241.493082 
L 121.581803 241.493082 
L 121.581803 241.138447 
L 122.399825 241.138447 
L 122.399825 240.783812 
L 122.795872 240.783812 
L 122.795872 240.074541 
L 124.3016 240.074541 
L 124.3016 239.719906 
L 124.659926 239.719906 
L 124.659926 239.010635 
L 125.35673 239.010635 
L 125.35673 238.656 
L 125.526971 238.656 
L 125.526971 235.818918 
L 126.192937 235.818918 
L 126.192937 235.464282 
L 126.355808 235.464282 
L 126.355808 235.109647 
L 128.207619 235.109647 
L 128.207619 234.045741 
L 128.354013 234.045741 
L 128.354013 233.336471 
L 128.643427 233.336471 
L 128.643427 232.272565 
L 129.069367 232.272565 
L 129.069367 231.208659 
L 129.209231 231.208659 
L 129.209231 229.080847 
L 129.485876 229.080847 
L 129.485876 228.016941 
L 129.893363 228.016941 
L 129.893363 227.662306 
L 130.027253 227.662306 
L 130.027253 227.307671 
L 131.191226 227.307671 
L 131.191226 225.534494 
L 131.440389 225.534494 
L 131.440389 224.115953 
L 132.405295 224.115953 
L 132.405295 223.761318 
L 132.869802 223.761318 
L 132.869802 222.697412 
L 134.091039 222.697412 
L 134.091039 222.342776 
L 134.304809 222.342776 
L 134.304809 221.633506 
L 134.516177 221.633506 
L 134.620977 219.860329 
L 135.034434 219.860329 
L 135.034434 213.476894 
L 135.538796 213.476894 
L 135.538796 213.122259 
L 135.932769 213.122259 
L 136.029987 206.738824 
L 136.790153 206.738824 
L 136.88305 205.674918 
L 136.97549 205.674918 
L 136.97549 205.320282 
L 137.520791 205.320282 
L 137.520791 202.837835 
L 137.787626 202.837835 
L 137.875736 201.064659 
L 138.310202 201.064659 
L 138.395904 199.291482 
L 138.481218 199.291482 
L 138.481218 198.227576 
L 138.985129 198.227576 
L 138.985129 197.518306 
L 139.313723 197.518306 
L 139.313723 192.908047 
L 139.475893 192.908047 
L 139.556456 191.489506 
L 140.110942 191.489506 
L 140.110942 190.780235 
L 140.26641 190.780235 
L 140.26641 189.361694 
L 140.49723 189.361694 
L 140.49723 186.879247 
L 140.875745 186.879247 
L 140.875745 182.623624 
L 141.173167 182.623624 
L 141.173167 181.205082 
L 142.248405 181.205082 
L 142.248405 180.850447 
L 143.199372 180.850447 
L 143.199372 180.141176 
L 143.52768 180.141176 
L 143.52768 179.077271 
L 143.977892 179.077271 
L 143.977892 178.722635 
L 144.2304 178.722635 
L 144.2304 178.368 
L 144.355394 178.368 
L 144.355394 176.594824 
L 144.664294 176.594824 
L 144.664294 176.240188 
L 144.968202 176.240188 
L 144.968202 175.885553 
L 145.148219 175.885553 
L 145.148219 175.530918 
L 145.385592 175.530918 
L 145.44447 172.3392 
L 148.073609 172.3392 
L 148.073609 171.984565 
L 149.117582 171.984565 
L 149.117582 171.629929 
L 149.922224 171.629929 
L 149.922224 171.275294 
L 150.914911 171.275294 
L 150.914911 170.920659 
L 151.60532 170.920659 
L 151.60532 170.566024 
L 151.94125 170.566024 
L 151.94125 170.211388 
L 152.312136 170.211388 
L 152.312136 169.856753 
L 152.515067 169.856753 
L 152.515067 169.147482 
L 152.953957 169.147482 
L 152.953957 168.438212 
L 153.111048 168.438212 
L 153.111048 166.665035 
L 154.468783 166.665035 
L 154.468783 164.182588 
L 155.006805 164.182588 
L 155.006805 163.118682 
L 155.322384 163.118682 
L 155.322384 161.700141 
L 155.735085 161.700141 
L 155.735085 160.990871 
L 156.304668 160.990871 
L 156.304668 158.863059 
L 160.881333 158.863059 
L 160.881333 157.444518 
L 161.138325 157.444518 
L 161.138325 155.671341 
L 162.444694 155.671341 
L 162.444694 155.316706 
L 162.56338 155.316706 
L 162.56338 153.898165 
L 162.938218 153.898165 
L 162.938218 152.834259 
L 163.191653 152.834259 
L 163.191653 152.479624 
L 163.373849 152.479624 
L 163.373849 152.124988 
L 163.821764 152.124988 
L 163.888041 150.706447 
L 164.041785 150.706447 
L 164.085482 146.805459 
L 164.644495 146.805459 
L 164.644495 145.741553 
L 164.855153 145.741553 
L 164.855153 144.677647 
L 165.166781 144.677647 
L 165.166781 144.323012 
L 175.896032 144.323012 
L 175.896032 143.613741 
L 176.435674 143.613741 
L 176.435674 142.904471 
L 177.015223 142.904471 
L 177.015223 141.485929 
L 177.179135 141.485929 
L 177.179135 141.131294 
L 177.736555 141.131294 
L 177.810347 138.648847 
L 178.512506 138.648847 
L 178.512506 137.584941 
L 178.883832 137.584941 
L 178.883832 136.521035 
L 179.032306 136.521035 
L 179.120831 135.811765 
L 179.189397 135.811765 
L 179.23822 126.945882 
L 180.086719 126.945882 
L 180.086719 125.881976 
L 180.318334 125.881976 
L 180.419348 123.399529 
L 180.601632 123.399529 
L 180.601632 121.980988 
L 181.365929 121.980988 
L 181.365929 117.725365 
L 181.90675 117.725365 
L 181.90675 117.370729 
L 182.100381 117.370729 
L 182.125491 114.533647 
L 188.235106 114.533647 
L 188.235106 112.760471 
L 189.587696 112.760471 
L 189.587696 112.0512 
L 190.196537 112.0512 
L 190.196537 111.696565 
L 190.563288 111.696565 
L 190.563288 110.632659 
L 191.167706 110.632659 
L 191.188383 107.440941 
L 191.39392 107.440941 
L 191.39392 107.086306 
L 191.531398 107.086306 
L 191.531398 106.377035 
L 191.743277 106.377035 
L 191.743277 103.185318 
L 192.164911 103.185318 
L 192.164911 101.766776 
L 192.306628 101.766776 
L 192.306628 100.702871 
L 192.72072 100.702871 
L 192.72072 97.865788 
L 192.905543 97.865788 
L 192.905543 96.092612 
L 193.255949 96.092612 
L 193.255949 94.674071 
L 193.513393 94.674071 
L 193.513393 94.319435 
L 193.658938 94.319435 
L 193.762857 92.191624 
L 193.888597 92.191624 
L 193.888597 90.063812 
L 194.190512 90.063812 
L 194.190512 88.999906 
L 194.7631 88.999906 
L 194.7631 87.226729 
L 195.026144 87.226729 
L 195.047198 85.453553 
L 195.409811 85.453553 
L 195.409811 85.098918 
L 195.537348 85.098918 
L 195.537348 84.744282 
L 201.149951 84.744282 
L 201.149951 84.389647 
L 201.451763 84.389647 
L 201.451763 79.779388 
L 202.666207 79.779388 
L 202.666207 79.424753 
L 203.317229 79.424753 
L 203.317229 77.651576 
L 204.082334 77.651576 
L 204.082334 77.296941 
L 204.204294 77.296941 
L 204.302325 76.233035 
L 204.340881 76.233035 
L 204.340881 75.8784 
L 204.466283 75.8784 
L 204.466283 74.814494 
L 204.585786 74.814494 
L 204.585786 74.459859 
L 204.696978 74.459859 
L 204.772416 72.332047 
L 204.870034 72.332047 
L 204.932345 70.558871 
L 208.562166 70.558871 
L 208.562166 69.140329 
L 220.423482 69.140329 
L 220.423482 68.431059 
L 221.14027 68.431059 
L 221.14027 67.012518 
L 222.148282 67.012518 
L 222.148282 65.948612 
L 223.326259 65.948612 
L 223.326259 64.884706 
L 223.462413 64.884706 
L 223.517156 60.274447 
L 223.803112 60.274447 
L 223.803112 59.919812 
L 223.961223 59.919812 
L 223.961223 57.792 
L 224.347239 57.792 
L 224.427738 56.018824 
L 225.688313 56.018824 
L 225.688313 54.245647 
L 226.351737 54.245647 
L 226.351737 52.117835 
L 227.143682 52.117835 
L 227.143682 51.7632 
L 227.320867 51.7632 
L 227.402433 49.280753 
L 227.678479 49.280753 
L 227.678479 48.216847 
L 227.993669 48.216847 
L 228.070194 45.7344 
L 228.202104 45.7344 
L 228.202104 44.670494 
L 228.330226 44.670494 
L 228.330226 42.542682 
L 228.648175 42.542682 
L 228.648175 41.833412 
L 237.350476 41.833412 
L 237.350476 40.414871 
L 237.738148 40.414871 
L 237.770748 36.513882 
L 238.607408 36.513882 
L 238.688236 34.740706 
L 240.008613 34.740706 
L 240.008613 34.031435 
L 240.200803 34.031435 
L 240.274699 31.903624 
L 240.526948 31.903624 
L 240.526948 28.357271 
L 240.976893 28.357271 
L 240.976893 27.648 
L 360.8064 27.648 
L 360.8064 27.648 
" style="fill: none; stroke: #ff00ff; stroke-width: 1.5; stroke-linecap: square"/>
   </g>
   <g id="line2d_40">
    <defs>
     <path id="mb53fdf485d" d="M -0 8.485281 
L 5.091169 0 
L 0 -8.485281 
L -5.091169 -0 
z
" style="stroke: #ff00ff; stroke-width: 1.5; stroke-linejoin: miter"/>
    </defs>
    <g>
     <use xlink:href="#mb53fdf485d" x="86.578163" y="263.835106" style="fill-opacity: 0; stroke: #ff00ff; stroke-width: 1.5; stroke-linejoin: miter"/>
     <use xlink:href="#mb53fdf485d" x="140.49723" y="186.879247" style="fill-opacity: 0; stroke: #ff00ff; stroke-width: 1.5; stroke-linejoin: miter"/>
     <use xlink:href="#mb53fdf485d" x="208.562166" y="70.558871" style="fill-opacity: 0; stroke: #ff00ff; stroke-width: 1.5; stroke-linejoin: miter"/>
     <use xlink:href="#mb53fdf485d" x="240.976893" y="28.357271" style="fill-opacity: 0; stroke: #ff00ff; stroke-width: 1.5; stroke-linejoin: miter"/>
     <use xlink:href="#mb53fdf485d" x="240.976893" y="27.648" style="fill-opacity: 0; stroke: #ff00ff; stroke-width: 1.5; stroke-linejoin: miter"/>
     <use xlink:href="#mb53fdf485d" x="360.8064" y="27.648" style="fill-opacity: 0; stroke: #ff00ff; stroke-width: 1.5; stroke-linejoin: miter"/>
    </g>
   </g>
   <g id="line2d_41">
    <path style="fill: none; stroke: #ff00ff; stroke-width: 1.5; stroke-linecap: square"/>
    <g/>
   </g>
   <g id="line2d_42">
    <defs>
     <path id="m076538dc57" d="M 0 1.5 
C 0.397805 1.5 0.77937 1.341951 1.06066 1.06066 
C 1.341951 0.77937 1.5 0.397805 1.5 0 
C 1.5 -0.397805 1.341951 -0.77937 1.06066 -1.06066 
C 0.77937 -1.341951 0.397805 -1.5 0 -1.5 
C -0.397805 -1.5 -0.77937 -1.341951 -1.06066 -1.06066 
C -1.341951 -0.77937 -1.5 -0.397805 -1.5 0 
C -1.5 0.397805 -1.341951 0.77937 -1.06066 1.06066 
C -0.77937 1.341951 -0.397805 1.5 0 1.5 
z
" style="stroke: #ff7500"/>
    </defs>
    <g>
     <use xlink:href="#m076538dc57" x="258.395613" y="27.648" style="fill: #ff7500; stroke: #ff7500"/>
     <use xlink:href="#m076538dc57" x="258.395613" y="27.648" style="fill: #ff7500; stroke: #ff7500"/>
    </g>
   </g>
   <g id="line2d_43">
    <path d="M 36.933397 298.944 
L 36.933397 276.601976 
L 49.972572 276.601976 
L 49.972572 274.119529 
L 57.6 274.119529 
L 57.6 272.700988 
L 63.011746 272.700988 
L 63.011746 269.509271 
L 67.209423 269.509271 
L 67.209423 268.445365 
L 76.050921 268.445365 
L 76.050921 265.962918 
L 78.266603 265.962918 
L 78.266603 264.189741 
L 80.248597 264.189741 
L 80.248597 263.125835 
L 82.04153 263.125835 
L 82.04153 259.934118 
L 85.184077 259.934118 
L 85.184077 259.224847 
L 87.876026 259.224847 
L 87.876026 258.870212 
L 91.305777 258.870212 
L 91.305777 258.160941 
L 93.287772 258.160941 
L 93.287772 257.451671 
L 95.916911 257.451671 
L 95.916911 255.678494 
L 98.933205 255.678494 
L 98.933205 255.323859 
L 103.815014 255.323859 
L 103.815014 254.969224 
L 106.326946 254.969224 
L 106.326946 254.614588 
L 108.956085 254.614588 
L 108.956085 254.259953 
L 110.897141 254.259953 
L 110.897141 253.905318 
L 112.317555 253.905318 
L 112.317555 252.841412 
L 116.854188 252.841412 
L 116.854188 252.486776 
L 117.899543 252.486776 
L 117.899543 252.132141 
L 118.401214 252.132141 
L 118.401214 251.777506 
L 119.129494 251.777506 
L 119.129494 251.422871 
L 119.366121 251.422871 
L 119.366121 250.358965 
L 120.28394 250.358965 
L 120.28394 250.004329 
L 120.944062 250.004329 
L 120.944062 249.649694 
L 121.159053 249.649694 
L 121.159053 249.295059 
L 121.581803 249.295059 
L 121.581803 248.231153 
L 122.399825 248.231153 
L 122.399825 247.876518 
L 124.119844 247.876518 
L 124.119844 247.167247 
L 124.481616 247.167247 
L 124.481616 246.812612 
L 125.526971 246.812612 
L 125.526971 245.748706 
L 126.517282 245.748706 
L 126.517282 245.394071 
L 126.677381 245.394071 
L 126.677381 244.330165 
L 129.348062 244.330165 
L 129.348062 242.911624 
L 129.622688 242.911624 
L 129.622688 242.556988 
L 130.811181 242.556988 
L 130.811181 242.202353 
L 131.440389 242.202353 
L 131.440389 241.138447 
L 133.434756 241.138447 
L 133.545739 237.592094 
L 134.516177 237.592094 
L 134.516177 237.237459 
L 137.430998 237.237459 
L 137.430998 235.464282 
L 138.566146 235.464282 
L 138.566146 235.109647 
L 139.875304 235.109647 
L 139.954178 234.045741 
L 141.099251 234.045741 
L 141.099251 233.691106 
L 141.393187 233.691106 
L 141.393187 233.336471 
L 141.610664 233.336471 
L 141.682602 230.499388 
L 141.96763 230.499388 
L 141.96763 230.144753 
L 142.45627 230.144753 
L 142.45627 228.371576 
L 142.593581 228.371576 
L 142.593581 227.307671 
L 142.932537 227.307671 
L 142.932537 226.5984 
L 143.462475 226.5984 
L 143.462475 223.406682 
L 145.0284 223.406682 
L 145.0284 222.342776 
L 145.678157 222.342776 
L 145.678157 221.988141 
L 146.695245 221.988141 
L 146.695245 217.732518 
L 163.44172 217.732518 
L 163.44172 216.668612 
L 163.910081 216.668612 
L 163.976048 215.604706 
L 164.150838 215.604706 
L 164.150838 215.250071 
L 164.686815 215.250071 
L 164.686815 214.895435 
L 164.876089 214.895435 
L 164.876089 214.186165 
L 165.104867 214.186165 
L 165.104867 213.831529 
L 165.554242 213.831529 
L 165.554242 208.866635 
L 165.674958 208.866635 
L 165.695002 206.384188 
L 165.894279 206.384188 
L 165.894279 201.419294 
L 166.091467 201.419294 
L 166.091467 199.646118 
L 166.247742 199.646118 
L 166.247742 198.936847 
L 166.765788 198.936847 
L 166.765788 196.4544 
L 167.028891 196.4544 
L 167.028891 195.390494 
L 167.1776 195.390494 
L 167.214594 193.971953 
L 167.507957 193.971953 
L 167.580589 192.553412 
L 167.707023 192.553412 
L 167.707023 191.134871 
L 167.92181 191.134871 
L 167.92181 190.780235 
L 168.239461 190.780235 
L 168.239461 190.4256 
L 168.396298 190.4256 
L 168.396298 189.361694 
L 168.534619 189.361694 
L 168.6034 184.3968 
L 168.654821 184.3968 
L 168.757243 180.141176 
L 168.842171 180.141176 
L 168.926718 176.594824 
L 169.094679 176.594824 
L 169.094679 175.885553 
L 169.261154 175.885553 
L 169.261154 175.176282 
L 169.442591 175.176282 
L 169.540824 173.048471 
L 169.557146 173.048471 
L 169.557146 172.693835 
L 169.687218 172.693835 
L 169.735764 169.502118 
L 169.816397 169.502118 
L 169.848553 164.537224 
L 169.976632 164.537224 
L 169.976632 163.473318 
L 170.151329 163.473318 
L 170.198694 160.2816 
L 170.402572 160.2816 
L 170.402572 157.444518 
L 170.604265 157.444518 
L 170.604265 155.671341 
L 170.955893 155.671341 
L 170.955893 154.962071 
L 171.121768 154.962071 
L 171.196684 152.479624 
L 171.330787 152.479624 
L 171.375276 148.933271 
L 171.596158 148.933271 
L 171.698355 147.514729 
L 171.915498 147.514729 
L 171.915498 146.450824 
L 172.087425 146.450824 
L 172.087425 143.968376 
L 172.440637 143.968376 
L 172.440637 142.904471 
L 172.552279 142.904471 
L 172.552279 142.1952 
L 173.005923 142.1952 
L 173.005923 140.422024 
L 173.369117 140.422024 
L 173.369117 139.712753 
L 173.84272 139.712753 
L 173.881654 138.648847 
L 174.266624 138.648847 
L 174.266624 138.294212 
L 174.594009 138.294212 
L 174.594009 137.939576 
L 175.038105 137.939576 
L 175.111113 136.1664 
L 175.77919 136.1664 
L 175.77919 135.102494 
L 175.988986 135.102494 
L 176.012153 129.782965 
L 176.68305 129.782965 
L 176.68305 129.428329 
L 177.190012 129.428329 
L 177.287622 127.300518 
L 180.52893 127.300518 
L 180.52893 126.591247 
L 181.565178 126.591247 
L 181.565178 125.527341 
L 182.200621 125.527341 
L 182.200621 122.690259 
L 182.903785 122.690259 
L 182.903785 122.335624 
L 183.371423 122.335624 
L 183.410524 118.789271 
L 184.325367 118.789271 
L 184.325367 117.016094 
L 184.458835 117.016094 
L 184.56934 114.179012 
L 184.911444 114.179012 
L 184.911444 113.469741 
L 185.437775 113.469741 
L 185.437775 112.760471 
L 189.755707 112.760471 
L 189.755707 112.405835 
L 191.414351 112.405835 
L 191.414351 112.0512 
L 192.321227 112.0512 
L 192.321227 111.696565 
L 196.748086 111.696565 
L 196.748086 110.278024 
L 198.011829 110.278024 
L 198.011829 108.859482 
L 198.147938 108.859482 
L 198.147938 106.731671 
L 198.727774 106.731671 
L 198.738153 106.0224 
L 198.978713 106.0224 
L 198.978713 105.667765 
L 199.195994 105.667765 
L 199.195994 101.412141 
L 199.639659 101.412141 
L 199.712049 97.865788 
L 199.914572 97.865788 
L 199.914572 97.511153 
L 200.553396 97.511153 
L 200.62236 95.737976 
L 200.675478 95.737976 
L 200.71911 94.674071 
L 200.991074 94.674071 
L 200.991074 94.319435 
L 201.385779 94.319435 
L 201.385779 92.900894 
L 201.606813 92.900894 
L 201.606813 91.482353 
L 201.991845 91.482353 
L 202.032531 88.999906 
L 202.346328 88.999906 
L 202.346328 88.645271 
L 202.612801 88.645271 
L 202.683041 86.517459 
L 202.864446 86.517459 
L 202.864446 85.808188 
L 203.008321 85.808188 
L 203.085339 82.971106 
L 203.484588 82.971106 
L 203.484588 82.616471 
L 209.902246 82.616471 
L 209.936605 80.488659 
L 211.146025 80.488659 
L 211.146025 78.360847 
L 211.582639 78.360847 
L 211.582639 78.006212 
L 211.794612 78.006212 
L 211.794612 77.296941 
L 212.128539 77.296941 
L 212.128539 75.523765 
L 212.464979 75.523765 
L 212.564749 74.459859 
L 212.626011 74.459859 
L 212.675537 71.977412 
L 212.909834 71.977412 
L 212.909834 71.268141 
L 213.306187 71.268141 
L 213.409534 70.204235 
L 213.537531 70.204235 
L 213.537531 69.494965 
L 213.680299 69.494965 
L 213.680299 68.785694 
L 234.337 68.785694 
L 234.337 68.431059 
L 234.511332 68.431059 
L 234.511332 68.076424 
L 242.483832 68.076424 
L 242.581609 67.012518 
L 242.613194 67.012518 
L 242.613194 66.303247 
L 243.1813 66.303247 
L 243.1813 65.593976 
L 244.708489 65.593976 
L 244.708489 65.239341 
L 244.94516 65.239341 
L 244.94516 64.175435 
L 245.558754 64.175435 
L 245.558754 60.629082 
L 247.528027 60.629082 
L 247.528027 60.274447 
L 247.671994 60.274447 
L 247.671994 59.565176 
L 248.490568 59.565176 
L 248.490568 58.146635 
L 248.870151 58.146635 
L 248.911751 56.728094 
L 248.985347 56.728094 
L 248.98774 54.245647 
L 254.768619 54.245647 
L 254.810621 40.060235 
L 258.364248 40.060235 
L 258.395613 27.648 
L 360.8064 27.648 
L 360.8064 27.648 
" style="fill: none; stroke: #ff7500; stroke-width: 1.5; stroke-linecap: square"/>
   </g>
   <g id="line2d_44">
    <defs>
     <path id="m761a396f10" d="M 0 -6 
L -1.347084 -1.854102 
L -5.706339 -1.854102 
L -2.179628 0.708204 
L -3.526712 4.854102 
L -0 2.291796 
L 3.526712 4.854102 
L 2.179628 0.708204 
L 5.706339 -1.854102 
L 1.347084 -1.854102 
z
" style="stroke: #ff7500; stroke-width: 1.5; stroke-linejoin: bevel"/>
    </defs>
    <g>
     <use xlink:href="#m761a396f10" x="131.440389" y="241.138447" style="fill-opacity: 0; stroke: #ff7500; stroke-width: 1.5; stroke-linejoin: bevel"/>
     <use xlink:href="#m761a396f10" x="174.266624" y="138.648847" style="fill-opacity: 0; stroke: #ff7500; stroke-width: 1.5; stroke-linejoin: bevel"/>
     <use xlink:href="#m761a396f10" x="234.511332" y="68.076424" style="fill-opacity: 0; stroke: #ff7500; stroke-width: 1.5; stroke-linejoin: bevel"/>
     <use xlink:href="#m761a396f10" x="258.395613" y="27.648" style="fill-opacity: 0; stroke: #ff7500; stroke-width: 1.5; stroke-linejoin: bevel"/>
     <use xlink:href="#m761a396f10" x="258.395613" y="27.648" style="fill-opacity: 0; stroke: #ff7500; stroke-width: 1.5; stroke-linejoin: bevel"/>
     <use xlink:href="#m761a396f10" x="360.8064" y="27.648" style="fill-opacity: 0; stroke: #ff7500; stroke-width: 1.5; stroke-linejoin: bevel"/>
    </g>
   </g>
   <g id="line2d_45">
    <path style="fill: none; stroke: #ff7500; stroke-width: 1.5; stroke-linecap: square"/>
    <g/>
   </g>
   <g id="line2d_46">
    <defs>
     <path id="mb490fbabe7" d="M 0 1.5 
C 0.397805 1.5 0.77937 1.341951 1.06066 1.06066 
C 1.341951 0.77937 1.5 0.397805 1.5 0 
C 1.5 -0.397805 1.341951 -0.77937 1.06066 -1.06066 
C 0.77937 -1.341951 0.397805 -1.5 0 -1.5 
C -0.397805 -1.5 -0.77937 -1.341951 -1.06066 -1.06066 
C -1.341951 -0.77937 -1.5 -0.397805 -1.5 0 
C -1.5 0.397805 -1.341951 0.77937 -1.06066 1.06066 
C -0.77937 1.341951 -0.397805 1.5 0 1.5 
z
" style="stroke: #6495ed"/>
    </defs>
    <g>
     <use xlink:href="#mb490fbabe7" x="202.56771" y="27.648" style="fill: #6495ed; stroke: #6495ed"/>
     <use xlink:href="#mb490fbabe7" x="202.56771" y="27.648" style="fill: #6495ed; stroke: #6495ed"/>
    </g>
   </g>
   <g id="line2d_47">
    <path d="M 36.933397 298.944 
L 36.933397 276.601976 
L 49.972572 276.601976 
L 49.972572 273.055624 
L 57.6 273.055624 
L 57.6 269.863906 
L 63.011746 269.863906 
L 63.011746 269.509271 
L 67.209423 269.509271 
L 67.209423 267.736094 
L 70.639174 267.736094 
L 70.639174 267.381459 
L 73.538988 267.381459 
L 73.538988 265.962918 
L 76.050921 265.962918 
L 76.050921 265.253647 
L 78.266603 265.253647 
L 78.266603 264.544376 
L 83.678349 264.544376 
L 83.678349 264.189741 
L 85.184077 264.189741 
L 85.184077 263.480471 
L 86.578163 263.480471 
L 86.578163 263.125835 
L 87.876026 263.125835 
L 87.876026 262.7712 
L 89.090095 262.7712 
L 89.090095 262.416565 
L 90.230539 262.416565 
L 90.230539 260.998024 
L 91.305777 260.998024 
L 91.305777 257.451671 
L 93.287772 257.451671 
L 93.287772 256.387765 
L 95.080704 256.387765 
L 95.080704 256.033129 
L 96.717523 256.033129 
L 96.717523 255.678494 
L 99.617337 255.678494 
L 99.617337 254.259953 
L 100.9152 254.259953 
L 100.9152 251.068235 
L 101.532027 251.068235 
L 101.532027 250.7136 
L 102.12927 250.7136 
L 102.12927 250.358965 
L 103.815014 250.358965 
L 103.815014 248.585788 
L 104.344952 248.585788 
L 104.344952 247.876518 
L 105.36204 247.876518 
L 105.36204 247.521882 
L 106.326946 247.521882 
L 106.326946 246.457976 
L 110.144579 246.457976 
L 110.144579 245.748706 
L 110.524623 245.748706 
L 110.524623 245.394071 
L 112.656511 245.394071 
L 112.656511 245.039435 
L 113.316634 245.039435 
L 113.316634 243.620894 
L 113.638206 243.620894 
L 113.638206 243.266259 
L 114.265316 243.266259 
L 114.265316 240.783812 
L 115.747307 240.783812 
L 115.747307 240.074541 
L 117.899543 240.074541 
L 117.899543 238.301365 
L 118.889854 238.301365 
L 118.889854 236.528188 
L 119.599808 236.528188 
L 119.599808 235.464282 
L 120.058649 235.464282 
L 120.058649 235.109647 
L 120.28394 235.109647 
L 120.28394 234.400376 
L 121.371615 234.400376 
L 121.371615 233.336471 
L 122.19863 233.336471 
L 122.19863 232.272565 
L 122.795872 232.272565 
L 122.795872 231.917929 
L 122.990812 231.917929 
L 122.990812 231.208659 
L 123.183753 231.208659 
L 123.183753 230.854024 
L 123.750979 230.854024 
L 123.750979 229.790118 
L 124.119844 229.790118 
L 124.119844 228.726212 
L 125.35673 228.726212 
L 125.35673 228.016941 
L 125.695686 228.016941 
L 125.695686 227.307671 
L 126.028642 227.307671 
L 126.028642 226.5984 
L 126.192937 226.5984 
L 126.192937 225.179859 
L 126.517282 225.179859 
L 126.517282 223.761318 
L 126.993549 223.761318 
L 126.993549 220.5696 
L 128.207619 220.5696 
L 128.207619 219.505694 
L 128.354013 219.505694 
L 128.354013 217.377882 
L 128.499277 217.377882 
L 128.499277 217.023247 
L 128.643427 217.023247 
L 128.643427 214.895435 
L 128.928456 214.895435 
L 128.928456 214.5408 
L 129.348062 214.5408 
L 129.348062 213.122259 
L 129.758512 213.122259 
L 129.758512 212.767624 
L 130.553485 212.767624 
L 130.553485 210.639812 
L 131.065395 210.639812 
L 131.065395 210.285176 
L 131.191226 210.285176 
L 131.191226 209.930541 
L 131.808053 209.930541 
L 131.808053 209.575906 
L 132.04923 209.575906 
L 132.04923 208.866635 
L 132.869802 208.866635 
L 132.869802 207.448094 
L 133.434756 207.448094 
L 133.434756 205.674918 
L 133.656071 205.674918 
L 133.765759 203.192471 
L 134.516177 203.192471 
L 134.516177 202.4832 
L 134.725196 202.4832 
L 134.725196 199.646118 
L 134.931919 199.646118 
L 134.931919 199.291482 
L 135.136394 199.291482 
L 135.136394 197.872941 
L 136.696795 197.872941 
L 136.696795 194.326588 
L 137.250116 194.326588 
L 137.250116 193.971953 
L 137.963436 193.971953 
L 137.963436 193.262682 
L 138.137618 193.262682 
L 138.224108 190.070965 
L 138.481218 190.070965 
L 138.481218 189.361694 
L 138.902075 189.361694 
L 138.902075 187.233882 
L 139.636676 187.233882 
L 139.636676 185.106071 
L 139.875304 185.106071 
L 139.875304 184.042165 
L 140.26641 184.042165 
L 140.26641 183.687529 
L 140.49723 183.687529 
L 140.49723 181.559718 
L 140.649551 181.559718 
L 140.649551 181.205082 
L 140.875745 181.205082 
L 140.875745 180.850447 
L 141.173167 180.850447 
L 141.173167 179.786541 
L 141.393187 179.786541 
L 141.393187 179.431906 
L 141.754265 179.431906 
L 141.825656 177.658729 
L 142.178603 177.658729 
L 142.178603 171.275294 
L 142.729897 171.275294 
L 142.797687 168.083576 
L 142.999601 168.083576 
L 142.999601 167.374306 
L 143.133017 167.374306 
L 143.133017 167.019671 
L 143.265494 167.019671 
L 143.265494 166.665035 
L 143.657415 166.665035 
L 143.657415 164.891859 
L 143.850356 164.891859 
L 143.850356 161.700141 
L 144.10457 161.700141 
L 144.10457 160.990871 
L 144.664294 160.990871 
L 144.725469 160.2816 
L 144.847227 160.2816 
L 144.847227 159.926965 
L 146.306218 159.926965 
L 146.306218 159.572329 
L 146.64016 159.572329 
L 146.695245 158.153788 
L 161.913396 158.153788 
L 161.913396 157.089882 
L 163.373849 157.089882 
L 163.373849 156.380612 
L 163.621521 156.380612 
L 163.643876 155.316706 
L 163.73303 155.316706 
L 163.843882 152.479624 
L 164.215967 152.479624 
L 164.215967 151.770353 
L 164.452864 151.770353 
L 164.452864 151.415718 
L 164.93876 151.415718 
L 164.93876 147.514729 
L 165.715025 147.514729 
L 165.715025 146.450824 
L 166.071841 146.450824 
L 166.071841 146.096188 
L 166.208795 146.096188 
L 166.208795 143.968376 
L 166.40273 143.968376 
L 166.40273 142.549835 
L 166.935348 142.549835 
L 166.935348 142.1952 
L 167.251516 142.1952 
L 167.251516 141.131294 
L 167.544308 141.131294 
L 167.544308 140.776659 
L 167.886182 140.776659 
L 167.886182 139.358118 
L 168.204431 139.358118 
L 168.239461 137.230306 
L 168.465585 137.230306 
L 168.465585 136.875671 
L 168.654821 136.875671 
L 168.654821 135.811765 
L 169.751918 135.811765 
L 169.751918 134.393224 
L 170.119687 134.393224 
L 170.119687 133.683953 
L 170.402572 133.683953 
L 170.402572 130.846871 
L 170.986161 130.846871 
L 171.046551 128.364424 
L 180.3735 128.364424 
L 180.3735 124.1088 
L 181.102826 124.1088 
L 181.208509 123.044894 
L 181.41811 123.044894 
L 181.41811 122.335624 
L 181.787904 122.335624 
L 181.787904 120.562447 
L 182.316895 120.562447 
L 182.316895 118.434635 
L 182.871656 118.434635 
L 182.935859 116.661459 
L 183.127165 116.661459 
L 183.222093 113.469741 
L 183.292976 113.469741 
L 183.292976 112.760471 
L 183.418335 112.760471 
L 183.480702 111.696565 
L 183.550619 111.696565 
L 183.550619 111.341929 
L 183.720442 111.341929 
L 183.720442 110.987294 
L 183.835357 110.987294 
L 183.858256 107.795576 
L 184.010208 107.795576 
L 184.078188 103.539953 
L 184.183448 103.539953 
L 184.190945 102.476047 
L 184.392219 102.476047 
L 184.503115 101.057506 
L 184.642651 101.057506 
L 184.701095 98.929694 
L 184.802936 98.929694 
L 184.904229 97.156518 
L 185.019329 97.156518 
L 185.112332 95.028706 
L 185.16222 95.028706 
L 185.16222 93.255529 
L 185.367504 93.255529 
L 185.367504 92.900894 
L 185.619261 92.900894 
L 185.619261 91.482353 
L 185.743887 91.482353 
L 185.743887 90.773082 
L 186.112887 90.773082 
L 186.112887 89.354541 
L 186.481424 89.354541 
L 186.481424 88.999906 
L 186.659734 88.999906 
L 186.705688 86.872094 
L 186.816825 86.872094 
L 186.888389 85.453553 
L 189.638257 85.453553 
L 189.638257 85.098918 
L 189.855798 85.098918 
L 189.855798 84.744282 
L 190.5098 84.744282 
L 190.5098 84.389647 
L 190.691041 84.389647 
L 190.791567 79.779388 
L 190.881058 79.779388 
L 190.881058 79.070118 
L 191.703102 79.070118 
L 191.783365 76.587671 
L 192.2139 76.587671 
L 192.2139 75.169129 
L 192.461775 75.169129 
L 192.461775 74.459859 
L 192.630016 74.459859 
L 192.649148 70.913506 
L 192.952643 70.913506 
L 192.952643 69.494965 
L 193.366714 69.494965 
L 193.366714 69.140329 
L 193.513393 69.140329 
L 193.586306 67.721788 
L 193.663468 67.721788 
L 193.744825 66.657882 
L 193.780871 66.657882 
L 193.861723 60.274447 
L 193.906492 60.274447 
L 194.009056 57.792 
L 194.133166 57.792 
L 194.186107 54.600282 
L 194.465968 54.600282 
L 194.465968 52.117835 
L 194.60866 52.117835 
L 194.60866 51.408565 
L 194.724609 51.408565 
L 194.724609 50.699294 
L 195.068228 50.699294 
L 195.173028 48.571482 
L 195.298022 48.571482 
L 195.397423 46.798306 
L 195.43044 46.798306 
L 195.43044 46.443671 
L 195.676239 46.443671 
L 195.777715 42.188047 
L 195.862534 42.188047 
L 195.862534 41.833412 
L 199.263382 41.833412 
L 199.263382 41.478776 
L 199.652842 41.478776 
L 199.652842 38.996329 
L 200.134215 38.996329 
L 200.134215 35.095341 
L 200.29728 35.095341 
L 200.29728 34.386071 
L 201.47271 34.386071 
L 201.47271 33.6768 
L 201.645376 33.6768 
L 201.645376 32.967529 
L 201.816472 32.967529 
L 201.816472 31.194353 
L 201.968556 31.194353 
L 201.968556 30.839718 
L 202.145409 30.839718 
L 202.145409 28.711906 
L 202.545124 28.711906 
L 202.56771 27.648 
L 360.8064 27.648 
L 360.8064 27.648 
" style="fill: none; stroke: #6495ed; stroke-width: 1.5; stroke-linecap: square"/>
   </g>
   <g id="line2d_48">
    <defs>
     <path id="m0edae02c91" d="M -0 6 
L 6 -6 
L -6 -6 
z
" style="stroke: #6495ed; stroke-width: 1.5; stroke-linejoin: miter"/>
    </defs>
    <g>
     <use xlink:href="#m0edae02c91" x="123.750979" y="230.854024" style="fill-opacity: 0; stroke: #6495ed; stroke-width: 1.5; stroke-linejoin: miter"/>
     <use xlink:href="#m0edae02c91" x="171.046551" y="129.782965" style="fill-opacity: 0; stroke: #6495ed; stroke-width: 1.5; stroke-linejoin: miter"/>
     <use xlink:href="#m0edae02c91" x="202.56771" y="28.357271" style="fill-opacity: 0; stroke: #6495ed; stroke-width: 1.5; stroke-linejoin: miter"/>
     <use xlink:href="#m0edae02c91" x="202.56771" y="27.648" style="fill-opacity: 0; stroke: #6495ed; stroke-width: 1.5; stroke-linejoin: miter"/>
     <use xlink:href="#m0edae02c91" x="202.56771" y="27.648" style="fill-opacity: 0; stroke: #6495ed; stroke-width: 1.5; stroke-linejoin: miter"/>
     <use xlink:href="#m0edae02c91" x="360.8064" y="27.648" style="fill-opacity: 0; stroke: #6495ed; stroke-width: 1.5; stroke-linejoin: miter"/>
    </g>
   </g>
   <g id="line2d_49">
    <path style="fill: none; stroke: #6495ed; stroke-width: 1.5; stroke-linecap: square"/>
    <g/>
   </g>
   <g id="line2d_50">
    <defs>
     <path id="mb5aa42e051" d="M 0 1.5 
C 0.397805 1.5 0.77937 1.341951 1.06066 1.06066 
C 1.341951 0.77937 1.5 0.397805 1.5 0 
C 1.5 -0.397805 1.341951 -0.77937 1.06066 -1.06066 
C 0.77937 -1.341951 0.397805 -1.5 0 -1.5 
C -0.397805 -1.5 -0.77937 -1.341951 -1.06066 -1.06066 
C -1.341951 -0.77937 -1.5 -0.397805 -1.5 0 
C -1.5 0.397805 -1.341951 0.77937 -1.06066 1.06066 
C -0.77937 1.341951 -0.397805 1.5 0 1.5 
z
" style="stroke: #ff0000"/>
    </defs>
    <g>
     <use xlink:href="#mb5aa42e051" x="240.523197" y="27.648" style="fill: #ff0000; stroke: #ff0000"/>
     <use xlink:href="#mb5aa42e051" x="240.523197" y="27.648" style="fill: #ff0000; stroke: #ff0000"/>
    </g>
   </g>
   <g id="line2d_51">
    <path d="M 36.933397 298.944 
L 36.933397 280.502965 
L 49.972572 280.502965 
L 49.972572 278.020518 
L 57.6 278.020518 
L 57.6 276.247341 
L 63.011746 276.247341 
L 63.011746 274.119529 
L 67.209423 274.119529 
L 67.209423 271.282447 
L 70.639174 271.282447 
L 70.639174 269.509271 
L 73.538988 269.509271 
L 73.538988 268.445365 
L 76.050921 268.445365 
L 76.050921 268.090729 
L 80.248597 268.090729 
L 80.248597 267.381459 
L 82.04153 267.381459 
L 82.04153 265.608282 
L 83.678349 265.608282 
L 83.678349 264.899012 
L 85.184077 264.899012 
L 85.184077 264.189741 
L 86.578163 264.189741 
L 86.578163 263.835106 
L 87.876026 263.835106 
L 87.876026 262.061929 
L 89.090095 262.061929 
L 89.090095 260.998024 
L 90.230539 260.998024 
L 90.230539 259.934118 
L 92.322865 259.934118 
L 92.322865 259.579482 
L 93.287772 259.579482 
L 93.287772 258.870212 
L 94.205591 258.870212 
L 94.205591 258.515576 
L 101.532027 258.515576 
L 101.532027 256.7424 
L 102.12927 256.7424 
L 102.12927 256.033129 
L 102.708132 256.033129 
L 102.708132 254.969224 
L 103.269713 254.969224 
L 103.269713 254.614588 
L 103.815014 254.614588 
L 103.815014 253.905318 
L 104.344952 253.905318 
L 104.344952 253.196047 
L 105.850679 253.196047 
L 105.850679 252.841412 
L 106.791453 252.841412 
L 106.791453 249.649694 
L 107.244765 249.649694 
L 107.244765 248.585788 
L 107.68741 248.585788 
L 107.68741 247.521882 
L 108.119879 247.521882 
L 108.119879 246.103341 
L 108.542628 246.103341 
L 108.542628 245.748706 
L 110.897141 245.748706 
L 110.897141 245.394071 
L 111.620752 245.394071 
L 111.620752 245.039435 
L 112.989468 245.039435 
L 112.989468 243.975529 
L 114.265316 243.975529 
L 114.265316 243.620894 
L 115.460102 243.620894 
L 115.460102 242.556988 
L 116.854188 242.556988 
L 116.854188 242.202353 
L 118.152051 242.202353 
L 118.152051 241.493082 
L 120.058649 241.493082 
L 120.058649 241.138447 
L 121.789667 241.138447 
L 121.789667 240.783812 
L 122.19863 240.783812 
L 122.19863 240.429176 
L 122.598891 240.429176 
L 122.598891 240.074541 
L 123.183753 240.074541 
L 123.183753 239.365271 
L 123.563797 239.365271 
L 123.563797 239.010635 
L 123.936316 239.010635 
L 123.936316 237.237459 
L 124.3016 237.237459 
L 124.3016 236.882824 
L 124.481616 236.882824 
L 124.481616 233.336471 
L 125.011554 233.336471 
L 125.011554 231.563294 
L 125.862901 231.563294 
L 125.862901 229.790118 
L 126.028642 229.790118 
L 126.028642 229.080847 
L 126.355808 229.080847 
L 126.355808 228.726212 
L 126.677381 228.726212 
L 126.677381 225.534494 
L 127.911368 225.534494 
L 127.911368 225.179859 
L 128.060076 225.179859 
L 128.060076 223.406682 
L 128.499277 223.406682 
L 128.499277 221.278871 
L 128.786481 221.278871 
L 128.786481 220.214965 
L 129.893363 220.214965 
L 129.893363 219.151059 
L 130.292209 219.151059 
L 130.292209 218.796424 
L 130.553485 218.796424 
L 130.553485 216.313976 
L 130.938718 216.313976 
L 130.938718 213.122259 
L 131.191226 213.122259 
L 131.191226 212.412988 
L 131.440389 212.412988 
L 131.440389 210.994447 
L 132.168669 210.994447 
L 132.168669 206.384188 
L 132.754746 206.384188 
L 132.754746 203.192471 
L 133.545739 203.192471 
L 133.545739 202.128565 
L 133.765759 202.128565 
L 133.874812 198.936847 
L 135.034434 198.936847 
L 135.136394 197.163671 
L 135.638065 197.163671 
L 135.638065 196.4544 
L 136.126705 196.4544 
L 136.126705 193.971953 
L 137.067478 193.971953 
L 137.067478 192.553412 
L 137.520791 192.553412 
L 137.520791 191.489506 
L 137.699101 191.489506 
L 137.699101 181.914353 
L 138.050729 181.914353 
L 138.050729 181.559718 
L 138.650692 181.559718 
L 138.650692 180.141176 
L 139.150143 180.141176 
L 139.150143 179.431906 
L 139.394983 179.431906 
L 139.394983 179.077271 
L 139.954178 179.077271 
L 139.954178 178.722635 
L 140.110942 178.722635 
L 140.110942 177.304094 
L 140.875745 177.304094 
L 140.875745 174.821647 
L 142.178603 174.821647 
L 142.178603 173.403106 
L 143.786262 173.403106 
L 143.786262 173.048471 
L 161.888886 173.048471 
L 161.888886 172.693835 
L 164.194282 172.693835 
L 164.194282 172.3392 
L 164.431451 172.3392 
L 164.431451 171.984565 
L 164.602079 171.984565 
L 164.602079 171.629929 
L 165.674958 171.629929 
L 165.674958 171.275294 
L 165.973402 171.275294 
L 165.973402 170.566024 
L 167.507957 170.566024 
L 167.580589 169.502118 
L 168.010586 169.502118 
L 168.010586 168.438212 
L 168.344164 168.438212 
L 168.344164 163.827953 
L 168.892945 163.827953 
L 168.994082 162.054776 
L 170.340075 162.054776 
L 170.340075 160.636235 
L 170.526947 160.636235 
L 170.526947 159.217694 
L 171.091717 159.217694 
L 171.091717 158.863059 
L 171.241492 158.863059 
L 171.286192 156.025976 
L 171.404878 156.025976 
L 171.404878 154.2528 
L 172.101681 154.2528 
L 172.101681 153.543529 
L 172.271923 153.543529 
L 172.271923 152.479624 
L 172.635578 152.479624 
L 172.635578 150.351812 
L 173.10076 150.351812 
L 173.10076 146.805459 
L 173.803705 146.805459 
L 173.803705 146.450824 
L 174.087951 146.450824 
L 174.139174 145.741553 
L 174.253918 145.741553 
L 174.253918 143.613741 
L 174.456194 143.613741 
L 174.456194 142.549835 
L 177.534792 142.549835 
L 177.534792 142.1952 
L 179.022444 142.1952 
L 179.022444 140.067388 
L 179.652949 140.067388 
L 179.700586 139.358118 
L 179.889933 139.358118 
L 179.889933 137.584941 
L 180.391852 137.584941 
L 180.474219 135.811765 
L 180.70114 135.811765 
L 180.70114 132.620047 
L 180.827031 132.620047 
L 180.827031 132.265412 
L 180.943179 132.265412 
L 180.943179 131.910776 
L 181.182144 131.910776 
L 181.287383 126.945882 
L 181.348502 126.945882 
L 181.452818 122.335624 
L 182.283747 122.335624 
L 182.283747 121.980988 
L 182.498173 121.980988 
L 182.53913 119.143906 
L 182.685842 119.143906 
L 182.75877 117.016094 
L 182.807233 117.016094 
L 182.807233 116.306824 
L 182.935859 116.306824 
L 183.039725 115.597553 
L 183.14302 115.597553 
L 183.222093 110.278024 
L 183.316545 110.278024 
L 183.316545 109.923388 
L 183.472918 109.923388 
L 183.472918 108.150212 
L 183.743481 108.150212 
L 183.804781 106.731671 
L 184.002639 106.731671 
L 184.002639 106.377035 
L 184.145923 106.377035 
L 184.205928 101.057506 
L 184.947474 101.057506 
L 184.976249 98.575059 
L 190.759879 98.575059 
L 190.759879 97.156518 
L 192.326091 97.156518 
L 192.398901 95.737976 
L 192.673035 95.737976 
L 192.673035 95.028706 
L 193.10724 95.028706 
L 193.167795 91.482353 
L 193.458522 91.482353 
L 193.458522 89.354541 
L 193.672525 89.354541 
L 193.672525 85.808188 
L 194.225715 85.808188 
L 194.225715 84.744282 
L 194.405103 84.744282 
L 194.405103 82.971106 
L 194.694617 82.971106 
L 194.694617 81.9072 
L 194.878104 81.9072 
L 194.878104 81.552565 
L 195.235629 81.552565 
L 195.235629 79.070118 
L 196.402768 79.070118 
L 196.402768 78.360847 
L 196.566517 78.360847 
L 196.566517 77.651576 
L 196.701894 77.651576 
L 196.763458 75.8784 
L 197.113592 75.8784 
L 197.113592 75.169129 
L 197.379418 75.169129 
L 197.453625 72.686682 
L 197.57911 72.686682 
L 197.597493 70.558871 
L 197.718374 70.558871 
L 197.718374 70.204235 
L 202.214538 70.204235 
L 202.214538 68.785694 
L 204.092745 68.785694 
L 204.092745 68.431059 
L 204.227558 68.431059 
L 204.227558 68.076424 
L 204.348583 68.076424 
L 204.348583 67.012518 
L 204.654096 67.012518 
L 204.654096 65.948612 
L 205.157428 65.948612 
L 205.157428 64.884706 
L 205.549172 64.884706 
L 205.549172 64.175435 
L 205.755131 64.175435 
L 205.755131 63.8208 
L 205.899864 63.8208 
L 206.005924 61.338353 
L 206.048182 61.338353 
L 206.1184 59.565176 
L 206.327497 59.565176 
L 206.327497 58.855906 
L 206.538865 58.855906 
L 206.538865 58.146635 
L 206.759178 58.146635 
L 206.858269 57.082729 
L 206.936721 57.082729 
L 206.992558 56.018824 
L 212.841322 56.018824 
L 212.841322 54.245647 
L 214.189125 54.245647 
L 214.189125 51.408565 
L 214.675658 51.408565 
L 214.675658 50.344659 
L 215.283876 50.344659 
L 215.283876 49.280753 
L 215.982611 49.280753 
L 215.982611 46.443671 
L 216.766737 46.443671 
L 216.766737 44.315859 
L 216.91603 44.315859 
L 216.9489 43.606588 
L 217.176099 43.606588 
L 217.243468 42.542682 
L 217.369781 42.542682 
L 217.464602 41.478776 
L 233.764376 41.478776 
L 233.764376 41.124141 
L 235.153548 41.124141 
L 235.153548 40.414871 
L 235.605755 40.414871 
L 235.605755 38.996329 
L 237.150011 38.996329 
L 237.150011 38.287059 
L 237.563322 38.287059 
L 237.563322 35.449976 
L 238.49199 35.449976 
L 238.49199 35.095341 
L 238.774483 35.095341 
L 238.774483 33.6768 
L 239.486297 33.6768 
L 239.486297 32.967529 
L 239.810934 32.967529 
L 239.843247 29.421176 
L 240.418609 29.421176 
L 240.523197 27.648 
L 360.8064 27.648 
L 360.8064 27.648 
" style="fill: none; stroke: #ff0000; stroke-width: 1.5; stroke-linecap: square"/>
   </g>
   <g id="line2d_52">
    <defs>
     <path id="md637233a9c" d="M 0 -6 
L -5.196152 -3 
L -5.196152 3 
L -0 6 
L 5.196152 3 
L 5.196152 -3 
z
" style="stroke: #ff0000; stroke-width: 1.5; stroke-linejoin: miter"/>
    </defs>
    <g>
     <use xlink:href="#md637233a9c" x="76.050921" y="268.445365" style="fill-opacity: 0; stroke: #ff0000; stroke-width: 1.5; stroke-linejoin: miter"/>
     <use xlink:href="#md637233a9c" x="142.178603" y="173.403106" style="fill-opacity: 0; stroke: #ff0000; stroke-width: 1.5; stroke-linejoin: miter"/>
     <use xlink:href="#md637233a9c" x="193.672525" y="89.354541" style="fill-opacity: 0; stroke: #ff0000; stroke-width: 1.5; stroke-linejoin: miter"/>
     <use xlink:href="#md637233a9c" x="240.523197" y="28.002635" style="fill-opacity: 0; stroke: #ff0000; stroke-width: 1.5; stroke-linejoin: miter"/>
     <use xlink:href="#md637233a9c" x="240.523197" y="27.648" style="fill-opacity: 0; stroke: #ff0000; stroke-width: 1.5; stroke-linejoin: miter"/>
     <use xlink:href="#md637233a9c" x="360.8064" y="27.648" style="fill-opacity: 0; stroke: #ff0000; stroke-width: 1.5; stroke-linejoin: miter"/>
    </g>
   </g>
   <g id="line2d_53">
    <path style="fill: none; stroke: #ff0000; stroke-width: 1.5; stroke-linecap: square"/>
    <g/>
   </g>
   <g id="line2d_54">
    <path d="M 360.8064 27.648 
L 380.514816 293.51808 
" style="fill: none; stroke: #ff7500; stroke-width: 1.5; stroke-linecap: square"/>
    <g>
     <use xlink:href="#m761a396f10" x="360.8064" y="27.648" style="fill-opacity: 0; stroke: #ff7500; stroke-width: 1.5; stroke-linejoin: bevel"/>
     <use xlink:href="#m761a396f10" x="380.514816" y="293.51808" style="fill-opacity: 0; stroke: #ff7500; stroke-width: 1.5; stroke-linejoin: bevel"/>
    </g>
   </g>
   <g id="line2d_55">
    <path d="M 360.8064 27.648 
L 380.514816 241.429248 
" style="fill: none; stroke: #ff00ff; stroke-width: 1.5; stroke-linecap: square"/>
    <g>
     <use xlink:href="#mb53fdf485d" x="360.8064" y="27.648" style="fill-opacity: 0; stroke: #ff00ff; stroke-width: 1.5; stroke-linejoin: miter"/>
     <use xlink:href="#mb53fdf485d" x="380.514816" y="241.429248" style="fill-opacity: 0; stroke: #ff00ff; stroke-width: 1.5; stroke-linejoin: miter"/>
    </g>
   </g>
   <g id="line2d_56">
    <path d="M 360.8064 27.648 
L 380.514816 189.340416 
" style="fill: none; stroke: #ff0000; stroke-width: 1.5; stroke-linecap: square"/>
    <g>
     <use xlink:href="#md637233a9c" x="360.8064" y="27.648" style="fill-opacity: 0; stroke: #ff0000; stroke-width: 1.5; stroke-linejoin: miter"/>
     <use xlink:href="#md637233a9c" x="380.514816" y="189.340416" style="fill-opacity: 0; stroke: #ff0000; stroke-width: 1.5; stroke-linejoin: miter"/>
    </g>
   </g>
   <g id="line2d_57">
    <path d="M 360.8064 27.648 
L 380.514816 137.251584 
" style="fill: none; stroke: #000080; stroke-width: 1.5; stroke-linecap: square"/>
    <g>
     <use xlink:href="#m53ad0e5ed9" x="360.8064" y="27.648" style="fill-opacity: 0; stroke: #000080; stroke-width: 1.5"/>
     <use xlink:href="#m53ad0e5ed9" x="380.514816" y="137.251584" style="fill-opacity: 0; stroke: #000080; stroke-width: 1.5"/>
    </g>
   </g>
   <g id="line2d_58">
    <path d="M 360.8064 27.648 
L 380.514816 85.162752 
" style="fill: none; stroke: #6495ed; stroke-width: 1.5; stroke-linecap: square"/>
    <g>
     <use xlink:href="#m0edae02c91" x="360.8064" y="27.648" style="fill-opacity: 0; stroke: #6495ed; stroke-width: 1.5; stroke-linejoin: miter"/>
     <use xlink:href="#m0edae02c91" x="380.514816" y="85.162752" style="fill-opacity: 0; stroke: #6495ed; stroke-width: 1.5; stroke-linejoin: miter"/>
    </g>
   </g>
   <g id="line2d_59">
    <path d="M 360.8064 298.944 
L 360.8064 27.648 
" style="fill: none; stroke: #000000; stroke-width: 1.5; stroke-linecap: square"/>
   </g>
   <g id="patch_3">
    <path d="M 57.6 298.944 
L 360.8064 298.944 
" style="fill: none; stroke: #000000; stroke-width: 0.8; stroke-linejoin: miter; stroke-linecap: square"/>
   </g>
   <g id="patch_4">
    <path d="M 57.6 27.648 
L 360.8064 27.648 
" style="fill: none; stroke: #000000; stroke-width: 0.8; stroke-linejoin: miter; stroke-linecap: square"/>
   </g>
   <g id="text_13">
    <!-- ddcma0 -->
    <g transform="translate(386.578944 297.381205)scale(0.14 -0.14)">
     <use xlink:href="#DejaVuSans-64"/>
     <use xlink:href="#DejaVuSans-64" x="63.476562"/>
     <use xlink:href="#DejaVuSans-63" x="126.953125"/>
     <use xlink:href="#DejaVuSans-6d" x="181.933594"/>
     <use xlink:href="#DejaVuSans-61" x="279.345703"/>
     <use xlink:href="#DejaVuSans-30" x="340.625"/>
    </g>
   </g>
   <g id="text_14">
    <!-- cma1 -->
    <g transform="translate(386.578944 245.292373)scale(0.14 -0.14)">
     <use xlink:href="#DejaVuSans-63"/>
     <use xlink:href="#DejaVuSans-6d" x="54.980469"/>
     <use xlink:href="#DejaVuSans-61" x="152.392578"/>
     <use xlink:href="#DejaVuSans-31" x="213.671875"/>
    </g>
   </g>
   <g id="text_15">
    <!-- CMA-ES-20 -->
    <g transform="translate(386.578944 193.203541)scale(0.14 -0.14)">
     <defs>
      <path id="DejaVuSans-43" d="M 4122 4306 
L 4122 3641 
Q 3803 3938 3442 4084 
Q 3081 4231 2675 4231 
Q 1875 4231 1450 3742 
Q 1025 3253 1025 2328 
Q 1025 1406 1450 917 
Q 1875 428 2675 428 
Q 3081 428 3442 575 
Q 3803 722 4122 1019 
L 4122 359 
Q 3791 134 3420 21 
Q 3050 -91 2638 -91 
Q 1578 -91 968 557 
Q 359 1206 359 2328 
Q 359 3453 968 4101 
Q 1578 4750 2638 4750 
Q 3056 4750 3426 4639 
Q 3797 4528 4122 4306 
z
" transform="scale(0.015625)"/>
      <path id="DejaVuSans-4d" d="M 628 4666 
L 1569 4666 
L 2759 1491 
L 3956 4666 
L 4897 4666 
L 4897 0 
L 4281 0 
L 4281 4097 
L 3078 897 
L 2444 897 
L 1241 4097 
L 1241 0 
L 628 0 
L 628 4666 
z
" transform="scale(0.015625)"/>
      <path id="DejaVuSans-41" d="M 2188 4044 
L 1331 1722 
L 3047 1722 
L 2188 4044 
z
M 1831 4666 
L 2547 4666 
L 4325 0 
L 3669 0 
L 3244 1197 
L 1141 1197 
L 716 0 
L 50 0 
L 1831 4666 
z
" transform="scale(0.015625)"/>
      <path id="DejaVuSans-45" d="M 628 4666 
L 3578 4666 
L 3578 4134 
L 1259 4134 
L 1259 2753 
L 3481 2753 
L 3481 2222 
L 1259 2222 
L 1259 531 
L 3634 531 
L 3634 0 
L 628 0 
L 628 4666 
z
" transform="scale(0.015625)"/>
      <path id="DejaVuSans-53" d="M 3425 4513 
L 3425 3897 
Q 3066 4069 2747 4153 
Q 2428 4238 2131 4238 
Q 1616 4238 1336 4038 
Q 1056 3838 1056 3469 
Q 1056 3159 1242 3001 
Q 1428 2844 1947 2747 
L 2328 2669 
Q 3034 2534 3370 2195 
Q 3706 1856 3706 1288 
Q 3706 609 3251 259 
Q 2797 -91 1919 -91 
Q 1588 -91 1214 -16 
Q 841 59 441 206 
L 441 856 
Q 825 641 1194 531 
Q 1563 422 1919 422 
Q 2459 422 2753 634 
Q 3047 847 3047 1241 
Q 3047 1584 2836 1778 
Q 2625 1972 2144 2069 
L 1759 2144 
Q 1053 2284 737 2584 
Q 422 2884 422 3419 
Q 422 4038 858 4394 
Q 1294 4750 2059 4750 
Q 2388 4750 2728 4690 
Q 3069 4631 3425 4513 
z
" transform="scale(0.015625)"/>
     </defs>
     <use xlink:href="#DejaVuSans-43"/>
     <use xlink:href="#DejaVuSans-4d" x="69.824219"/>
     <use xlink:href="#DejaVuSans-41" x="156.103516"/>
     <use xlink:href="#DejaVuSans-2d" x="222.261719"/>
     <use xlink:href="#DejaVuSans-45" x="258.345703"/>
     <use xlink:href="#DejaVuSans-53" x="321.529297"/>
     <use xlink:href="#DejaVuSans-2d" x="385.005859"/>
     <use xlink:href="#DejaVuSans-32" x="421.089844"/>
     <use xlink:href="#DejaVuSans-30" x="484.712891"/>
    </g>
   </g>
   <g id="text_16">
    <!-- cma0 -->
    <g transform="translate(386.578944 141.114709)scale(0.14 -0.14)">
     <use xlink:href="#DejaVuSans-63"/>
     <use xlink:href="#DejaVuSans-6d" x="54.980469"/>
     <use xlink:href="#DejaVuSans-61" x="152.392578"/>
     <use xlink:href="#DejaVuSans-30" x="213.671875"/>
    </g>
   </g>
   <g id="text_17">
    <!-- ddcma1 -->
    <g transform="translate(386.578944 89.025877)scale(0.14 -0.14)">
     <use xlink:href="#DejaVuSans-64"/>
     <use xlink:href="#DejaVuSans-64" x="63.476562"/>
     <use xlink:href="#DejaVuSans-63" x="126.953125"/>
     <use xlink:href="#DejaVuSans-6d" x="181.933594"/>
     <use xlink:href="#DejaVuSans-61" x="279.345703"/>
     <use xlink:href="#DejaVuSans-31" x="340.625"/>
    </g>
   </g>
   <g id="text_18">
    <!-- best 2009 -->
    <g transform="translate(386.578944 36.937045)scale(0.14 -0.14)">
     <defs>
      <path id="DejaVuSans-62" d="M 3116 1747 
Q 3116 2381 2855 2742 
Q 2594 3103 2138 3103 
Q 1681 3103 1420 2742 
Q 1159 2381 1159 1747 
Q 1159 1113 1420 752 
Q 1681 391 2138 391 
Q 2594 391 2855 752 
Q 3116 1113 3116 1747 
z
M 1159 2969 
Q 1341 3281 1617 3432 
Q 1894 3584 2278 3584 
Q 2916 3584 3314 3078 
Q 3713 2572 3713 1747 
Q 3713 922 3314 415 
Q 2916 -91 2278 -91 
Q 1894 -91 1617 61 
Q 1341 213 1159 525 
L 1159 0 
L 581 0 
L 581 4863 
L 1159 4863 
L 1159 2969 
z
" transform="scale(0.015625)"/>
      <path id="DejaVuSans-39" d="M 703 97 
L 703 672 
Q 941 559 1184 500 
Q 1428 441 1663 441 
Q 2288 441 2617 861 
Q 2947 1281 2994 2138 
Q 2813 1869 2534 1725 
Q 2256 1581 1919 1581 
Q 1219 1581 811 2004 
Q 403 2428 403 3163 
Q 403 3881 828 4315 
Q 1253 4750 1959 4750 
Q 2769 4750 3195 4129 
Q 3622 3509 3622 2328 
Q 3622 1225 3098 567 
Q 2575 -91 1691 -91 
Q 1453 -91 1209 -44 
Q 966 3 703 97 
z
M 1959 2075 
Q 2384 2075 2632 2365 
Q 2881 2656 2881 3163 
Q 2881 3666 2632 3958 
Q 2384 4250 1959 4250 
Q 1534 4250 1286 3958 
Q 1038 3666 1038 3163 
Q 1038 2656 1286 2365 
Q 1534 2075 1959 2075 
z
" transform="scale(0.015625)"/>
     </defs>
     <use xlink:href="#DejaVuSans-62"/>
     <use xlink:href="#DejaVuSans-65" x="63.476562"/>
     <use xlink:href="#DejaVuSans-73" x="125"/>
     <use xlink:href="#DejaVuSans-74" x="177.099609"/>
     <use xlink:href="#DejaVuSans-20" x="216.308594"/>
     <use xlink:href="#DejaVuSans-32" x="248.095703"/>
     <use xlink:href="#DejaVuSans-30" x="311.71875"/>
     <use xlink:href="#DejaVuSans-30" x="375.341797"/>
     <use xlink:href="#DejaVuSans-39" x="438.964844"/>
    </g>
   </g>
   <g id="text_19">
    <!-- bbob f21, 3-D -->
    <g transform="translate(60.632064 38.111366)scale(0.102 -0.102)">
     <defs>
      <path id="DejaVuSans-33" d="M 2597 2516 
Q 3050 2419 3304 2112 
Q 3559 1806 3559 1356 
Q 3559 666 3084 287 
Q 2609 -91 1734 -91 
Q 1441 -91 1130 -33 
Q 819 25 488 141 
L 488 750 
Q 750 597 1062 519 
Q 1375 441 1716 441 
Q 2309 441 2620 675 
Q 2931 909 2931 1356 
Q 2931 1769 2642 2001 
Q 2353 2234 1838 2234 
L 1294 2234 
L 1294 2753 
L 1863 2753 
Q 2328 2753 2575 2939 
Q 2822 3125 2822 3475 
Q 2822 3834 2567 4026 
Q 2313 4219 1838 4219 
Q 1578 4219 1281 4162 
Q 984 4106 628 3988 
L 628 4550 
Q 988 4650 1302 4700 
Q 1616 4750 1894 4750 
Q 2613 4750 3031 4423 
Q 3450 4097 3450 3541 
Q 3450 3153 3228 2886 
Q 3006 2619 2597 2516 
z
" transform="scale(0.015625)"/>
      <path id="DejaVuSans-44" d="M 1259 4147 
L 1259 519 
L 2022 519 
Q 2988 519 3436 956 
Q 3884 1394 3884 2338 
Q 3884 3275 3436 3711 
Q 2988 4147 2022 4147 
L 1259 4147 
z
M 628 4666 
L 1925 4666 
Q 3281 4666 3915 4102 
Q 4550 3538 4550 2338 
Q 4550 1131 3912 565 
Q 3275 0 1925 0 
L 628 0 
L 628 4666 
z
" transform="scale(0.015625)"/>
     </defs>
     <use xlink:href="#DejaVuSans-62"/>
     <use xlink:href="#DejaVuSans-62" x="63.476562"/>
     <use xlink:href="#DejaVuSans-6f" x="126.953125"/>
     <use xlink:href="#DejaVuSans-62" x="188.134766"/>
     <use xlink:href="#DejaVuSans-20" x="251.611328"/>
     <use xlink:href="#DejaVuSans-66" x="283.398438"/>
     <use xlink:href="#DejaVuSans-32" x="318.603516"/>
     <use xlink:href="#DejaVuSans-31" x="382.226562"/>
     <use xlink:href="#DejaVuSans-2c" x="445.849609"/>
     <use xlink:href="#DejaVuSans-20" x="477.636719"/>
     <use xlink:href="#DejaVuSans-33" x="509.423828"/>
     <use xlink:href="#DejaVuSans-2d" x="573.046875"/>
     <use xlink:href="#DejaVuSans-44" x="609.130859"/>
    </g>
    <!-- 51 targets: 100..1e-08 -->
    <g transform="translate(60.632064 49.533135)scale(0.102 -0.102)">
     <defs>
      <path id="DejaVuSans-35" d="M 691 4666 
L 3169 4666 
L 3169 4134 
L 1269 4134 
L 1269 2991 
Q 1406 3038 1543 3061 
Q 1681 3084 1819 3084 
Q 2600 3084 3056 2656 
Q 3513 2228 3513 1497 
Q 3513 744 3044 326 
Q 2575 -91 1722 -91 
Q 1428 -91 1123 -41 
Q 819 9 494 109 
L 494 744 
Q 775 591 1075 516 
Q 1375 441 1709 441 
Q 2250 441 2565 725 
Q 2881 1009 2881 1497 
Q 2881 1984 2565 2268 
Q 2250 2553 1709 2553 
Q 1456 2553 1204 2497 
Q 953 2441 691 2322 
L 691 4666 
z
" transform="scale(0.015625)"/>
      <path id="DejaVuSans-3a" d="M 750 794 
L 1409 794 
L 1409 0 
L 750 0 
L 750 794 
z
M 750 3309 
L 1409 3309 
L 1409 2516 
L 750 2516 
L 750 3309 
z
" transform="scale(0.015625)"/>
     </defs>
     <use xlink:href="#DejaVuSans-35"/>
     <use xlink:href="#DejaVuSans-31" x="63.623047"/>
     <use xlink:href="#DejaVuSans-20" x="127.246094"/>
     <use xlink:href="#DejaVuSans-74" x="159.033203"/>
     <use xlink:href="#DejaVuSans-61" x="198.242188"/>
     <use xlink:href="#DejaVuSans-72" x="259.521484"/>
     <use xlink:href="#DejaVuSans-67" x="298.884766"/>
     <use xlink:href="#DejaVuSans-65" x="362.361328"/>
     <use xlink:href="#DejaVuSans-74" x="423.884766"/>
     <use xlink:href="#DejaVuSans-73" x="463.09375"/>
     <use xlink:href="#DejaVuSans-3a" x="515.193359"/>
     <use xlink:href="#DejaVuSans-20" x="548.884766"/>
     <use xlink:href="#DejaVuSans-31" x="580.671875"/>
     <use xlink:href="#DejaVuSans-30" x="644.294922"/>
     <use xlink:href="#DejaVuSans-30" x="707.917969"/>
     <use xlink:href="#DejaVuSans-2e" x="771.541016"/>
     <use xlink:href="#DejaVuSans-2e" x="803.328125"/>
     <use xlink:href="#DejaVuSans-31" x="835.115234"/>
     <use xlink:href="#DejaVuSans-65" x="898.738281"/>
     <use xlink:href="#DejaVuSans-2d" x="960.261719"/>
     <use xlink:href="#DejaVuSans-30" x="996.345703"/>
     <use xlink:href="#DejaVuSans-38" x="1059.96875"/>
    </g>
    <!-- 15 instances -->
    <g transform="translate(60.632064 60.954904)scale(0.102 -0.102)">
     <use xlink:href="#DejaVuSans-31"/>
     <use xlink:href="#DejaVuSans-35" x="63.623047"/>
     <use xlink:href="#DejaVuSans-20" x="127.246094"/>
     <use xlink:href="#DejaVuSans-69" x="159.033203"/>
     <use xlink:href="#DejaVuSans-6e" x="186.816406"/>
     <use xlink:href="#DejaVuSans-73" x="250.195312"/>
     <use xlink:href="#DejaVuSans-74" x="302.294922"/>
     <use xlink:href="#DejaVuSans-61" x="341.503906"/>
     <use xlink:href="#DejaVuSans-6e" x="402.783203"/>
     <use xlink:href="#DejaVuSans-63" x="466.162109"/>
     <use xlink:href="#DejaVuSans-65" x="521.142578"/>
     <use xlink:href="#DejaVuSans-73" x="582.666016"/>
    </g>
   </g>
   <g id="text_20">
    <!-- v2.6 -->
    <g style="fill: #808080" transform="translate(198.292262 294.151352)scale(0.1 -0.1)">
     <use xlink:href="#DejaVuSans-76"/>
     <use xlink:href="#DejaVuSans-32" x="59.179688"/>
     <use xlink:href="#DejaVuSans-2e" x="122.802734"/>
     <use xlink:href="#DejaVuSans-36" x="154.589844"/>
    </g>
   </g>
   <g id="text_21">
    <!-- 21 Gallagher 101 peaks -->
    <g transform="translate(89.7157 21.648)scale(0.2 -0.2)">
     <defs>
      <path id="DejaVuSans-47" d="M 3809 666 
L 3809 1919 
L 2778 1919 
L 2778 2438 
L 4434 2438 
L 4434 434 
Q 4069 175 3628 42 
Q 3188 -91 2688 -91 
Q 1594 -91 976 548 
Q 359 1188 359 2328 
Q 359 3472 976 4111 
Q 1594 4750 2688 4750 
Q 3144 4750 3555 4637 
Q 3966 4525 4313 4306 
L 4313 3634 
Q 3963 3931 3569 4081 
Q 3175 4231 2741 4231 
Q 1884 4231 1454 3753 
Q 1025 3275 1025 2328 
Q 1025 1384 1454 906 
Q 1884 428 2741 428 
Q 3075 428 3337 486 
Q 3600 544 3809 666 
z
" transform="scale(0.015625)"/>
      <path id="DejaVuSans-68" d="M 3513 2113 
L 3513 0 
L 2938 0 
L 2938 2094 
Q 2938 2591 2744 2837 
Q 2550 3084 2163 3084 
Q 1697 3084 1428 2787 
Q 1159 2491 1159 1978 
L 1159 0 
L 581 0 
L 581 4863 
L 1159 4863 
L 1159 2956 
Q 1366 3272 1645 3428 
Q 1925 3584 2291 3584 
Q 2894 3584 3203 3211 
Q 3513 2838 3513 2113 
z
" transform="scale(0.015625)"/>
      <path id="DejaVuSans-6b" d="M 581 4863 
L 1159 4863 
L 1159 1991 
L 2875 3500 
L 3609 3500 
L 1753 1863 
L 3688 0 
L 2938 0 
L 1159 1709 
L 1159 0 
L 581 0 
L 581 4863 
z
" transform="scale(0.015625)"/>
     </defs>
     <use xlink:href="#DejaVuSans-32"/>
     <use xlink:href="#DejaVuSans-31" x="63.623047"/>
     <use xlink:href="#DejaVuSans-20" x="127.246094"/>
     <use xlink:href="#DejaVuSans-47" x="159.033203"/>
     <use xlink:href="#DejaVuSans-61" x="236.523438"/>
     <use xlink:href="#DejaVuSans-6c" x="297.802734"/>
     <use xlink:href="#DejaVuSans-6c" x="325.585938"/>
     <use xlink:href="#DejaVuSans-61" x="353.369141"/>
     <use xlink:href="#DejaVuSans-67" x="414.648438"/>
     <use xlink:href="#DejaVuSans-68" x="478.125"/>
     <use xlink:href="#DejaVuSans-65" x="541.503906"/>
     <use xlink:href="#DejaVuSans-72" x="603.027344"/>
     <use xlink:href="#DejaVuSans-20" x="644.140625"/>
     <use xlink:href="#DejaVuSans-31" x="675.927734"/>
     <use xlink:href="#DejaVuSans-30" x="739.550781"/>
     <use xlink:href="#DejaVuSans-31" x="803.173828"/>
     <use xlink:href="#DejaVuSans-20" x="866.796875"/>
     <use xlink:href="#DejaVuSans-70" x="898.583984"/>
     <use xlink:href="#DejaVuSans-65" x="962.060547"/>
     <use xlink:href="#DejaVuSans-61" x="1023.583984"/>
     <use xlink:href="#DejaVuSans-6b" x="1084.863281"/>
     <use xlink:href="#DejaVuSans-73" x="1142.773438"/>
    </g>
   </g>
  </g>
 </g>
 <defs>
  <clipPath id="p0cf105d322">
   <rect x="57.6" y="27.648" width="303.2064" height="271.296"/>
  </clipPath>
 </defs>
</svg>
