<?xml version="1.0" encoding="utf-8" standalone="no"?>
<!DOCTYPE svg PUBLIC "-//W3C//DTD SVG 1.1//EN"
  "http://www.w3.org/Graphics/SVG/1.1/DTD/svg11.dtd">
<svg xmlns:xlink="http://www.w3.org/1999/xlink" width="460.8pt" height="345.6pt" viewBox="0 0 460.8 345.6" xmlns="http://www.w3.org/2000/svg" version="1.1">
 <metadata>
  <rdf:RDF xmlns:dc="http://purl.org/dc/elements/1.1/" xmlns:cc="http://creativecommons.org/ns#" xmlns:rdf="http://www.w3.org/1999/02/22-rdf-syntax-ns#">
   <cc:Work>
    <dc:type rdf:resource="http://purl.org/dc/dcmitype/StillImage"/>
    <dc:date>2022-03-28T13:29:59.827232</dc:date>
    <dc:format>image/svg+xml</dc:format>
    <dc:creator>
     <cc:Agent>
      <dc:title>Matplotlib v3.5.1, https://matplotlib.org/</dc:title>
     </cc:Agent>
    </dc:creator>
   </cc:Work>
  </rdf:RDF>
 </metadata>
 <defs>
  <style type="text/css">*{stroke-linejoin: round; stroke-linecap: butt}</style>
 </defs>
 <g id="figure_1">
  <g id="patch_1">
   <path d="M 0 345.6 
L 460.8 345.6 
L 460.8 0 
L 0 0 
z
" style="fill: #ffffff"/>
  </g>
  <g id="axes_1">
   <g id="patch_2">
    <path d="M 57.6 298.944 
L 360.8064 298.944 
L 360.8064 27.648 
L 57.6 27.648 
z
" style="fill: #ffffff"/>
   </g>
   <g id="line2d_1">
    <path d="M 117.423276 298.944 
L 117.423276 293.624471 
L 117.810359 293.624471 
L 117.810359 288.304941 
L 118.598196 288.304941 
L 118.598196 282.985412 
L 123.85314 282.985412 
L 123.85314 277.665882 
L 128.549855 277.665882 
L 128.549855 272.346353 
L 131.228811 272.346353 
L 131.228811 267.026824 
L 134.479359 267.026824 
L 134.479359 261.707294 
L 138.10291 261.707294 
L 138.10291 256.387765 
L 138.906237 256.387765 
L 138.906237 251.068235 
L 140.301214 251.068235 
L 140.301214 245.748706 
L 146.261241 245.748706 
L 146.261241 240.429176 
L 150.296105 240.429176 
L 150.296105 235.109647 
L 153.159871 235.109647 
L 153.159871 229.790118 
L 155.843627 229.790118 
L 155.843627 224.470588 
L 160.75802 224.470588 
L 160.75802 219.151059 
L 165.749015 219.151059 
L 165.749015 213.831529 
L 169.06958 213.831529 
L 169.06958 208.512 
L 169.875843 208.512 
L 169.875843 203.192471 
L 170.351027 203.192471 
L 170.351027 197.872941 
L 171.021664 197.872941 
L 171.021664 192.553412 
L 171.638564 192.553412 
L 171.638564 187.233882 
L 172.167833 187.233882 
L 172.167833 181.914353 
L 172.653577 181.914353 
L 172.653577 176.594824 
L 173.084536 176.594824 
L 173.084536 171.275294 
L 173.616615 171.275294 
L 173.616615 165.955765 
L 174.053297 165.955765 
L 174.053297 160.636235 
L 174.579648 160.636235 
L 174.579648 155.316706 
L 175.033228 155.316706 
L 175.033228 149.997176 
L 175.570583 149.997176 
L 175.570583 144.677647 
L 175.997677 144.677647 
L 175.997677 139.358118 
L 176.439069 139.358118 
L 176.439069 134.038588 
L 176.795538 134.038588 
L 176.795538 128.719059 
L 177.259475 128.719059 
L 177.259475 123.399529 
L 177.600869 123.399529 
L 177.600869 118.08 
L 178.110937 118.08 
L 178.110937 112.760471 
L 178.377728 112.760471 
L 178.377728 107.440941 
L 178.786691 107.440941 
L 178.786691 102.121412 
L 179.204546 102.121412 
L 179.204546 96.801882 
L 179.583183 96.801882 
L 179.583183 91.482353 
L 179.861181 91.482353 
L 179.861181 86.162824 
L 180.257464 86.162824 
L 180.257464 80.843294 
L 180.614326 80.843294 
L 180.614326 75.523765 
L 180.967213 75.523765 
L 180.967213 70.204235 
L 181.293941 70.204235 
L 181.293941 64.884706 
L 181.609934 64.884706 
L 181.609934 59.565176 
L 181.920707 59.565176 
L 181.920707 54.245647 
L 182.271302 54.245647 
L 182.271302 48.926118 
L 182.643576 48.926118 
L 182.643576 43.606588 
L 182.783421 43.606588 
L 182.783421 38.287059 
L 182.845108 38.287059 
L 182.845108 32.967529 
L 182.951076 32.967529 
L 182.951076 27.648 
L 360.8064 27.648 
" style="fill: none; stroke: #f5deb3; stroke-width: 4; stroke-linecap: square"/>
   </g>
   <g id="line2d_2">
    <defs>
     <path id="m8cc940d8b1" d="M -0 7.778175 
L 7.778175 0 
L 0 -7.778175 
L -7.778175 -0 
z
" style="stroke: #f5deb3; stroke-width: 1.5; stroke-linejoin: miter"/>
    </defs>
    <g>
     <use xlink:href="#m8cc940d8b1" x="160.75802" y="224.470588" style="fill: #f5deb3; stroke: #f5deb3; stroke-width: 1.5; stroke-linejoin: miter"/>
     <use xlink:href="#m8cc940d8b1" x="177.259475" y="128.719059" style="fill: #f5deb3; stroke: #f5deb3; stroke-width: 1.5; stroke-linejoin: miter"/>
     <use xlink:href="#m8cc940d8b1" x="182.951076" y="32.967529" style="fill: #f5deb3; stroke: #f5deb3; stroke-width: 1.5; stroke-linejoin: miter"/>
     <use xlink:href="#m8cc940d8b1" x="182.951076" y="27.648" style="fill: #f5deb3; stroke: #f5deb3; stroke-width: 1.5; stroke-linejoin: miter"/>
     <use xlink:href="#m8cc940d8b1" x="360.8064" y="27.648" style="fill: #f5deb3; stroke: #f5deb3; stroke-width: 1.5; stroke-linejoin: miter"/>
    </g>
   </g>
   <g id="line2d_3">
    <path style="fill: none; stroke: #f5deb3; stroke-width: 4; stroke-linecap: square"/>
    <g/>
   </g>
   <g id="line2d_4">
    <path d="M 360.8064 27.648 
L 380.514816 293.51808 
" style="fill: none; stroke: #f5deb3; stroke-width: 4; stroke-linecap: square"/>
    <g>
     <use xlink:href="#m8cc940d8b1" x="360.8064" y="27.648" style="fill: #f5deb3; stroke: #f5deb3; stroke-width: 1.5; stroke-linejoin: miter"/>
     <use xlink:href="#m8cc940d8b1" x="380.514816" y="293.51808" style="fill: #f5deb3; stroke: #f5deb3; stroke-width: 1.5; stroke-linejoin: miter"/>
    </g>
   </g>
   <g id="matplotlib.axis_1">
    <g id="xtick_1">
     <g id="line2d_5">
      <path d="M 57.6 298.944 
L 57.6 27.648 
" clip-path="url(#p09b484d8a8)" style="fill: none; stroke: #b0b0b0; stroke-width: 0.8; stroke-linecap: square"/>
     </g>
     <g id="line2d_6">
      <defs>
       <path id="mbbcd19bedb" d="M 0 0 
L 0 3.5 
" style="stroke: #000000; stroke-width: 0.8"/>
      </defs>
      <g>
       <use xlink:href="#mbbcd19bedb" x="57.6" y="298.944" style="stroke: #000000; stroke-width: 0.8"/>
      </g>
     </g>
     <g id="text_1">
      <!-- 0 -->
      <g transform="translate(52.191875 318.861344)scale(0.17 -0.17)">
       <defs>
        <path id="DejaVuSans-30" d="M 2034 4250 
Q 1547 4250 1301 3770 
Q 1056 3291 1056 2328 
Q 1056 1369 1301 889 
Q 1547 409 2034 409 
Q 2525 409 2770 889 
Q 3016 1369 3016 2328 
Q 3016 3291 2770 3770 
Q 2525 4250 2034 4250 
z
M 2034 4750 
Q 2819 4750 3233 4129 
Q 3647 3509 3647 2328 
Q 3647 1150 3233 529 
Q 2819 -91 2034 -91 
Q 1250 -91 836 529 
Q 422 1150 422 2328 
Q 422 3509 836 4129 
Q 1250 4750 2034 4750 
z
" transform="scale(0.015625)"/>
       </defs>
       <use xlink:href="#DejaVuSans-30"/>
      </g>
     </g>
    </g>
    <g id="xtick_2">
     <g id="line2d_7">
      <path d="M 144.2304 298.944 
L 144.2304 27.648 
" clip-path="url(#p09b484d8a8)" style="fill: none; stroke: #b0b0b0; stroke-width: 0.8; stroke-linecap: square"/>
     </g>
     <g id="line2d_8">
      <g>
       <use xlink:href="#mbbcd19bedb" x="144.2304" y="298.944" style="stroke: #000000; stroke-width: 0.8"/>
      </g>
     </g>
     <g id="text_2">
      <!-- 2 -->
      <g transform="translate(138.822275 318.861344)scale(0.17 -0.17)">
       <defs>
        <path id="DejaVuSans-32" d="M 1228 531 
L 3431 531 
L 3431 0 
L 469 0 
L 469 531 
Q 828 903 1448 1529 
Q 2069 2156 2228 2338 
Q 2531 2678 2651 2914 
Q 2772 3150 2772 3378 
Q 2772 3750 2511 3984 
Q 2250 4219 1831 4219 
Q 1534 4219 1204 4116 
Q 875 4013 500 3803 
L 500 4441 
Q 881 4594 1212 4672 
Q 1544 4750 1819 4750 
Q 2544 4750 2975 4387 
Q 3406 4025 3406 3419 
Q 3406 3131 3298 2873 
Q 3191 2616 2906 2266 
Q 2828 2175 2409 1742 
Q 1991 1309 1228 531 
z
" transform="scale(0.015625)"/>
       </defs>
       <use xlink:href="#DejaVuSans-32"/>
      </g>
     </g>
    </g>
    <g id="xtick_3">
     <g id="line2d_9">
      <path d="M 230.8608 298.944 
L 230.8608 27.648 
" clip-path="url(#p09b484d8a8)" style="fill: none; stroke: #b0b0b0; stroke-width: 0.8; stroke-linecap: square"/>
     </g>
     <g id="line2d_10">
      <g>
       <use xlink:href="#mbbcd19bedb" x="230.8608" y="298.944" style="stroke: #000000; stroke-width: 0.8"/>
      </g>
     </g>
     <g id="text_3">
      <!-- 4 -->
      <g transform="translate(225.452675 318.861344)scale(0.17 -0.17)">
       <defs>
        <path id="DejaVuSans-34" d="M 2419 4116 
L 825 1625 
L 2419 1625 
L 2419 4116 
z
M 2253 4666 
L 3047 4666 
L 3047 1625 
L 3713 1625 
L 3713 1100 
L 3047 1100 
L 3047 0 
L 2419 0 
L 2419 1100 
L 313 1100 
L 313 1709 
L 2253 4666 
z
" transform="scale(0.015625)"/>
       </defs>
       <use xlink:href="#DejaVuSans-34"/>
      </g>
     </g>
    </g>
    <g id="xtick_4">
     <g id="line2d_11">
      <path d="M 317.4912 298.944 
L 317.4912 27.648 
" clip-path="url(#p09b484d8a8)" style="fill: none; stroke: #b0b0b0; stroke-width: 0.8; stroke-linecap: square"/>
     </g>
     <g id="line2d_12">
      <g>
       <use xlink:href="#mbbcd19bedb" x="317.4912" y="298.944" style="stroke: #000000; stroke-width: 0.8"/>
      </g>
     </g>
     <g id="text_4">
      <!-- 6 -->
      <g transform="translate(312.083075 318.861344)scale(0.17 -0.17)">
       <defs>
        <path id="DejaVuSans-36" d="M 2113 2584 
Q 1688 2584 1439 2293 
Q 1191 2003 1191 1497 
Q 1191 994 1439 701 
Q 1688 409 2113 409 
Q 2538 409 2786 701 
Q 3034 994 3034 1497 
Q 3034 2003 2786 2293 
Q 2538 2584 2113 2584 
z
M 3366 4563 
L 3366 3988 
Q 3128 4100 2886 4159 
Q 2644 4219 2406 4219 
Q 1781 4219 1451 3797 
Q 1122 3375 1075 2522 
Q 1259 2794 1537 2939 
Q 1816 3084 2150 3084 
Q 2853 3084 3261 2657 
Q 3669 2231 3669 1497 
Q 3669 778 3244 343 
Q 2819 -91 2113 -91 
Q 1303 -91 875 529 
Q 447 1150 447 2328 
Q 447 3434 972 4092 
Q 1497 4750 2381 4750 
Q 2619 4750 2861 4703 
Q 3103 4656 3366 4563 
z
" transform="scale(0.015625)"/>
       </defs>
       <use xlink:href="#DejaVuSans-36"/>
      </g>
     </g>
    </g>
    <g id="xtick_5">
     <g id="line2d_13">
      <path d="M 100.9152 298.944 
L 100.9152 27.648 
" clip-path="url(#p09b484d8a8)" style="fill: none; stroke: #b0b0b0; stroke-width: 0.8; stroke-linecap: square"/>
     </g>
     <g id="line2d_14">
      <defs>
       <path id="mb7069996b2" d="M 0 0 
L 0 2 
" style="stroke: #000000; stroke-width: 0.6"/>
      </defs>
      <g>
       <use xlink:href="#mb7069996b2" x="100.9152" y="298.944" style="stroke: #000000; stroke-width: 0.6"/>
      </g>
     </g>
    </g>
    <g id="xtick_6">
     <g id="line2d_15">
      <path d="M 187.5456 298.944 
L 187.5456 27.648 
" clip-path="url(#p09b484d8a8)" style="fill: none; stroke: #b0b0b0; stroke-width: 0.8; stroke-linecap: square"/>
     </g>
     <g id="line2d_16">
      <g>
       <use xlink:href="#mb7069996b2" x="187.5456" y="298.944" style="stroke: #000000; stroke-width: 0.6"/>
      </g>
     </g>
    </g>
    <g id="xtick_7">
     <g id="line2d_17">
      <path d="M 274.176 298.944 
L 274.176 27.648 
" clip-path="url(#p09b484d8a8)" style="fill: none; stroke: #b0b0b0; stroke-width: 0.8; stroke-linecap: square"/>
     </g>
     <g id="line2d_18">
      <g>
       <use xlink:href="#mb7069996b2" x="274.176" y="298.944" style="stroke: #000000; stroke-width: 0.6"/>
      </g>
     </g>
    </g>
    <g id="xtick_8">
     <g id="line2d_19">
      <path d="M 360.8064 298.944 
L 360.8064 27.648 
" clip-path="url(#p09b484d8a8)" style="fill: none; stroke: #b0b0b0; stroke-width: 0.8; stroke-linecap: square"/>
     </g>
     <g id="line2d_20">
      <g>
       <use xlink:href="#mb7069996b2" x="360.8064" y="298.944" style="stroke: #000000; stroke-width: 0.6"/>
      </g>
     </g>
    </g>
    <g id="text_5">
     <!-- log10(# f-evals / dimension) -->
     <g transform="translate(88.823278 339.314156)scale(0.17 -0.17)">
      <defs>
       <path id="DejaVuSans-6c" d="M 603 4863 
L 1178 4863 
L 1178 0 
L 603 0 
L 603 4863 
z
" transform="scale(0.015625)"/>
       <path id="DejaVuSans-6f" d="M 1959 3097 
Q 1497 3097 1228 2736 
Q 959 2375 959 1747 
Q 959 1119 1226 758 
Q 1494 397 1959 397 
Q 2419 397 2687 759 
Q 2956 1122 2956 1747 
Q 2956 2369 2687 2733 
Q 2419 3097 1959 3097 
z
M 1959 3584 
Q 2709 3584 3137 3096 
Q 3566 2609 3566 1747 
Q 3566 888 3137 398 
Q 2709 -91 1959 -91 
Q 1206 -91 779 398 
Q 353 888 353 1747 
Q 353 2609 779 3096 
Q 1206 3584 1959 3584 
z
" transform="scale(0.015625)"/>
       <path id="DejaVuSans-67" d="M 2906 1791 
Q 2906 2416 2648 2759 
Q 2391 3103 1925 3103 
Q 1463 3103 1205 2759 
Q 947 2416 947 1791 
Q 947 1169 1205 825 
Q 1463 481 1925 481 
Q 2391 481 2648 825 
Q 2906 1169 2906 1791 
z
M 3481 434 
Q 3481 -459 3084 -895 
Q 2688 -1331 1869 -1331 
Q 1566 -1331 1297 -1286 
Q 1028 -1241 775 -1147 
L 775 -588 
Q 1028 -725 1275 -790 
Q 1522 -856 1778 -856 
Q 2344 -856 2625 -561 
Q 2906 -266 2906 331 
L 2906 616 
Q 2728 306 2450 153 
Q 2172 0 1784 0 
Q 1141 0 747 490 
Q 353 981 353 1791 
Q 353 2603 747 3093 
Q 1141 3584 1784 3584 
Q 2172 3584 2450 3431 
Q 2728 3278 2906 2969 
L 2906 3500 
L 3481 3500 
L 3481 434 
z
" transform="scale(0.015625)"/>
       <path id="DejaVuSans-31" d="M 794 531 
L 1825 531 
L 1825 4091 
L 703 3866 
L 703 4441 
L 1819 4666 
L 2450 4666 
L 2450 531 
L 3481 531 
L 3481 0 
L 794 0 
L 794 531 
z
" transform="scale(0.015625)"/>
       <path id="DejaVuSans-28" d="M 1984 4856 
Q 1566 4138 1362 3434 
Q 1159 2731 1159 2009 
Q 1159 1288 1364 580 
Q 1569 -128 1984 -844 
L 1484 -844 
Q 1016 -109 783 600 
Q 550 1309 550 2009 
Q 550 2706 781 3412 
Q 1013 4119 1484 4856 
L 1984 4856 
z
" transform="scale(0.015625)"/>
       <path id="DejaVuSans-23" d="M 3272 2816 
L 2363 2816 
L 2100 1772 
L 3016 1772 
L 3272 2816 
z
M 2803 4594 
L 2478 3297 
L 3391 3297 
L 3719 4594 
L 4219 4594 
L 3897 3297 
L 4872 3297 
L 4872 2816 
L 3775 2816 
L 3519 1772 
L 4513 1772 
L 4513 1294 
L 3397 1294 
L 3072 0 
L 2572 0 
L 2894 1294 
L 1978 1294 
L 1656 0 
L 1153 0 
L 1478 1294 
L 494 1294 
L 494 1772 
L 1594 1772 
L 1856 2816 
L 850 2816 
L 850 3297 
L 1978 3297 
L 2297 4594 
L 2803 4594 
z
" transform="scale(0.015625)"/>
       <path id="DejaVuSans-20" transform="scale(0.015625)"/>
       <path id="DejaVuSans-66" d="M 2375 4863 
L 2375 4384 
L 1825 4384 
Q 1516 4384 1395 4259 
Q 1275 4134 1275 3809 
L 1275 3500 
L 2222 3500 
L 2222 3053 
L 1275 3053 
L 1275 0 
L 697 0 
L 697 3053 
L 147 3053 
L 147 3500 
L 697 3500 
L 697 3744 
Q 697 4328 969 4595 
Q 1241 4863 1831 4863 
L 2375 4863 
z
" transform="scale(0.015625)"/>
       <path id="DejaVuSans-2d" d="M 313 2009 
L 1997 2009 
L 1997 1497 
L 313 1497 
L 313 2009 
z
" transform="scale(0.015625)"/>
       <path id="DejaVuSans-65" d="M 3597 1894 
L 3597 1613 
L 953 1613 
Q 991 1019 1311 708 
Q 1631 397 2203 397 
Q 2534 397 2845 478 
Q 3156 559 3463 722 
L 3463 178 
Q 3153 47 2828 -22 
Q 2503 -91 2169 -91 
Q 1331 -91 842 396 
Q 353 884 353 1716 
Q 353 2575 817 3079 
Q 1281 3584 2069 3584 
Q 2775 3584 3186 3129 
Q 3597 2675 3597 1894 
z
M 3022 2063 
Q 3016 2534 2758 2815 
Q 2500 3097 2075 3097 
Q 1594 3097 1305 2825 
Q 1016 2553 972 2059 
L 3022 2063 
z
" transform="scale(0.015625)"/>
       <path id="DejaVuSans-76" d="M 191 3500 
L 800 3500 
L 1894 563 
L 2988 3500 
L 3597 3500 
L 2284 0 
L 1503 0 
L 191 3500 
z
" transform="scale(0.015625)"/>
       <path id="DejaVuSans-61" d="M 2194 1759 
Q 1497 1759 1228 1600 
Q 959 1441 959 1056 
Q 959 750 1161 570 
Q 1363 391 1709 391 
Q 2188 391 2477 730 
Q 2766 1069 2766 1631 
L 2766 1759 
L 2194 1759 
z
M 3341 1997 
L 3341 0 
L 2766 0 
L 2766 531 
Q 2569 213 2275 61 
Q 1981 -91 1556 -91 
Q 1019 -91 701 211 
Q 384 513 384 1019 
Q 384 1609 779 1909 
Q 1175 2209 1959 2209 
L 2766 2209 
L 2766 2266 
Q 2766 2663 2505 2880 
Q 2244 3097 1772 3097 
Q 1472 3097 1187 3025 
Q 903 2953 641 2809 
L 641 3341 
Q 956 3463 1253 3523 
Q 1550 3584 1831 3584 
Q 2591 3584 2966 3190 
Q 3341 2797 3341 1997 
z
" transform="scale(0.015625)"/>
       <path id="DejaVuSans-73" d="M 2834 3397 
L 2834 2853 
Q 2591 2978 2328 3040 
Q 2066 3103 1784 3103 
Q 1356 3103 1142 2972 
Q 928 2841 928 2578 
Q 928 2378 1081 2264 
Q 1234 2150 1697 2047 
L 1894 2003 
Q 2506 1872 2764 1633 
Q 3022 1394 3022 966 
Q 3022 478 2636 193 
Q 2250 -91 1575 -91 
Q 1294 -91 989 -36 
Q 684 19 347 128 
L 347 722 
Q 666 556 975 473 
Q 1284 391 1588 391 
Q 1994 391 2212 530 
Q 2431 669 2431 922 
Q 2431 1156 2273 1281 
Q 2116 1406 1581 1522 
L 1381 1569 
Q 847 1681 609 1914 
Q 372 2147 372 2553 
Q 372 3047 722 3315 
Q 1072 3584 1716 3584 
Q 2034 3584 2315 3537 
Q 2597 3491 2834 3397 
z
" transform="scale(0.015625)"/>
       <path id="DejaVuSans-2f" d="M 1625 4666 
L 2156 4666 
L 531 -594 
L 0 -594 
L 1625 4666 
z
" transform="scale(0.015625)"/>
       <path id="DejaVuSans-64" d="M 2906 2969 
L 2906 4863 
L 3481 4863 
L 3481 0 
L 2906 0 
L 2906 525 
Q 2725 213 2448 61 
Q 2172 -91 1784 -91 
Q 1150 -91 751 415 
Q 353 922 353 1747 
Q 353 2572 751 3078 
Q 1150 3584 1784 3584 
Q 2172 3584 2448 3432 
Q 2725 3281 2906 2969 
z
M 947 1747 
Q 947 1113 1208 752 
Q 1469 391 1925 391 
Q 2381 391 2643 752 
Q 2906 1113 2906 1747 
Q 2906 2381 2643 2742 
Q 2381 3103 1925 3103 
Q 1469 3103 1208 2742 
Q 947 2381 947 1747 
z
" transform="scale(0.015625)"/>
       <path id="DejaVuSans-69" d="M 603 3500 
L 1178 3500 
L 1178 0 
L 603 0 
L 603 3500 
z
M 603 4863 
L 1178 4863 
L 1178 4134 
L 603 4134 
L 603 4863 
z
" transform="scale(0.015625)"/>
       <path id="DejaVuSans-6d" d="M 3328 2828 
Q 3544 3216 3844 3400 
Q 4144 3584 4550 3584 
Q 5097 3584 5394 3201 
Q 5691 2819 5691 2113 
L 5691 0 
L 5113 0 
L 5113 2094 
Q 5113 2597 4934 2840 
Q 4756 3084 4391 3084 
Q 3944 3084 3684 2787 
Q 3425 2491 3425 1978 
L 3425 0 
L 2847 0 
L 2847 2094 
Q 2847 2600 2669 2842 
Q 2491 3084 2119 3084 
Q 1678 3084 1418 2786 
Q 1159 2488 1159 1978 
L 1159 0 
L 581 0 
L 581 3500 
L 1159 3500 
L 1159 2956 
Q 1356 3278 1631 3431 
Q 1906 3584 2284 3584 
Q 2666 3584 2933 3390 
Q 3200 3197 3328 2828 
z
" transform="scale(0.015625)"/>
       <path id="DejaVuSans-6e" d="M 3513 2113 
L 3513 0 
L 2938 0 
L 2938 2094 
Q 2938 2591 2744 2837 
Q 2550 3084 2163 3084 
Q 1697 3084 1428 2787 
Q 1159 2491 1159 1978 
L 1159 0 
L 581 0 
L 581 3500 
L 1159 3500 
L 1159 2956 
Q 1366 3272 1645 3428 
Q 1925 3584 2291 3584 
Q 2894 3584 3203 3211 
Q 3513 2838 3513 2113 
z
" transform="scale(0.015625)"/>
       <path id="DejaVuSans-29" d="M 513 4856 
L 1013 4856 
Q 1481 4119 1714 3412 
Q 1947 2706 1947 2009 
Q 1947 1309 1714 600 
Q 1481 -109 1013 -844 
L 513 -844 
Q 928 -128 1133 580 
Q 1338 1288 1338 2009 
Q 1338 2731 1133 3434 
Q 928 4138 513 4856 
z
" transform="scale(0.015625)"/>
      </defs>
      <use xlink:href="#DejaVuSans-6c"/>
      <use xlink:href="#DejaVuSans-6f" x="27.783203"/>
      <use xlink:href="#DejaVuSans-67" x="88.964844"/>
      <use xlink:href="#DejaVuSans-31" x="152.441406"/>
      <use xlink:href="#DejaVuSans-30" x="216.064453"/>
      <use xlink:href="#DejaVuSans-28" x="279.6875"/>
      <use xlink:href="#DejaVuSans-23" x="318.701172"/>
      <use xlink:href="#DejaVuSans-20" x="402.490234"/>
      <use xlink:href="#DejaVuSans-66" x="434.277344"/>
      <use xlink:href="#DejaVuSans-2d" x="463.982422"/>
      <use xlink:href="#DejaVuSans-65" x="500.066406"/>
      <use xlink:href="#DejaVuSans-76" x="561.589844"/>
      <use xlink:href="#DejaVuSans-61" x="620.769531"/>
      <use xlink:href="#DejaVuSans-6c" x="682.048828"/>
      <use xlink:href="#DejaVuSans-73" x="709.832031"/>
      <use xlink:href="#DejaVuSans-20" x="761.931641"/>
      <use xlink:href="#DejaVuSans-2f" x="793.71875"/>
      <use xlink:href="#DejaVuSans-20" x="827.410156"/>
      <use xlink:href="#DejaVuSans-64" x="859.197266"/>
      <use xlink:href="#DejaVuSans-69" x="922.673828"/>
      <use xlink:href="#DejaVuSans-6d" x="950.457031"/>
      <use xlink:href="#DejaVuSans-65" x="1047.869141"/>
      <use xlink:href="#DejaVuSans-6e" x="1109.392578"/>
      <use xlink:href="#DejaVuSans-73" x="1172.771484"/>
      <use xlink:href="#DejaVuSans-69" x="1224.871094"/>
      <use xlink:href="#DejaVuSans-6f" x="1252.654297"/>
      <use xlink:href="#DejaVuSans-6e" x="1313.835938"/>
      <use xlink:href="#DejaVuSans-29" x="1377.214844"/>
     </g>
    </g>
   </g>
   <g id="matplotlib.axis_2">
    <g id="ytick_1">
     <g id="line2d_21">
      <path d="M 57.6 298.944 
L 360.8064 298.944 
" clip-path="url(#p09b484d8a8)" style="fill: none; stroke: #b0b0b0; stroke-width: 0.8; stroke-linecap: square"/>
     </g>
     <g id="line2d_22">
      <defs>
       <path id="mf6174cf905" d="M 0 0 
L -3.5 0 
" style="stroke: #000000; stroke-width: 0.8"/>
      </defs>
      <g>
       <use xlink:href="#mf6174cf905" x="57.6" y="298.944" style="stroke: #000000; stroke-width: 0.8"/>
      </g>
     </g>
     <g id="text_6">
      <!-- 0.0 -->
      <g transform="translate(25.155 305.02275)scale(0.16 -0.16)">
       <defs>
        <path id="DejaVuSans-2e" d="M 684 794 
L 1344 794 
L 1344 0 
L 684 0 
L 684 794 
z
" transform="scale(0.015625)"/>
       </defs>
       <use xlink:href="#DejaVuSans-30"/>
       <use xlink:href="#DejaVuSans-2e" x="63.623047"/>
       <use xlink:href="#DejaVuSans-30" x="95.410156"/>
      </g>
     </g>
    </g>
    <g id="ytick_2">
     <g id="line2d_23">
      <path d="M 57.6 244.6848 
L 360.8064 244.6848 
" clip-path="url(#p09b484d8a8)" style="fill: none; stroke: #b0b0b0; stroke-width: 0.8; stroke-linecap: square"/>
     </g>
     <g id="line2d_24">
      <g>
       <use xlink:href="#mf6174cf905" x="57.6" y="244.6848" style="stroke: #000000; stroke-width: 0.8"/>
      </g>
     </g>
     <g id="text_7">
      <!-- 0.2 -->
      <g transform="translate(25.155 250.76355)scale(0.16 -0.16)">
       <use xlink:href="#DejaVuSans-30"/>
       <use xlink:href="#DejaVuSans-2e" x="63.623047"/>
       <use xlink:href="#DejaVuSans-32" x="95.410156"/>
      </g>
     </g>
    </g>
    <g id="ytick_3">
     <g id="line2d_25">
      <path d="M 57.6 190.4256 
L 360.8064 190.4256 
" clip-path="url(#p09b484d8a8)" style="fill: none; stroke: #b0b0b0; stroke-width: 0.8; stroke-linecap: square"/>
     </g>
     <g id="line2d_26">
      <g>
       <use xlink:href="#mf6174cf905" x="57.6" y="190.4256" style="stroke: #000000; stroke-width: 0.8"/>
      </g>
     </g>
     <g id="text_8">
      <!-- 0.4 -->
      <g transform="translate(25.155 196.50435)scale(0.16 -0.16)">
       <use xlink:href="#DejaVuSans-30"/>
       <use xlink:href="#DejaVuSans-2e" x="63.623047"/>
       <use xlink:href="#DejaVuSans-34" x="95.410156"/>
      </g>
     </g>
    </g>
    <g id="ytick_4">
     <g id="line2d_27">
      <path d="M 57.6 136.1664 
L 360.8064 136.1664 
" clip-path="url(#p09b484d8a8)" style="fill: none; stroke: #b0b0b0; stroke-width: 0.8; stroke-linecap: square"/>
     </g>
     <g id="line2d_28">
      <g>
       <use xlink:href="#mf6174cf905" x="57.6" y="136.1664" style="stroke: #000000; stroke-width: 0.8"/>
      </g>
     </g>
     <g id="text_9">
      <!-- 0.6 -->
      <g transform="translate(25.155 142.24515)scale(0.16 -0.16)">
       <use xlink:href="#DejaVuSans-30"/>
       <use xlink:href="#DejaVuSans-2e" x="63.623047"/>
       <use xlink:href="#DejaVuSans-36" x="95.410156"/>
      </g>
     </g>
    </g>
    <g id="ytick_5">
     <g id="line2d_29">
      <path d="M 57.6 81.9072 
L 360.8064 81.9072 
" clip-path="url(#p09b484d8a8)" style="fill: none; stroke: #b0b0b0; stroke-width: 0.8; stroke-linecap: square"/>
     </g>
     <g id="line2d_30">
      <g>
       <use xlink:href="#mf6174cf905" x="57.6" y="81.9072" style="stroke: #000000; stroke-width: 0.8"/>
      </g>
     </g>
     <g id="text_10">
      <!-- 0.8 -->
      <g transform="translate(25.155 87.98595)scale(0.16 -0.16)">
       <defs>
        <path id="DejaVuSans-38" d="M 2034 2216 
Q 1584 2216 1326 1975 
Q 1069 1734 1069 1313 
Q 1069 891 1326 650 
Q 1584 409 2034 409 
Q 2484 409 2743 651 
Q 3003 894 3003 1313 
Q 3003 1734 2745 1975 
Q 2488 2216 2034 2216 
z
M 1403 2484 
Q 997 2584 770 2862 
Q 544 3141 544 3541 
Q 544 4100 942 4425 
Q 1341 4750 2034 4750 
Q 2731 4750 3128 4425 
Q 3525 4100 3525 3541 
Q 3525 3141 3298 2862 
Q 3072 2584 2669 2484 
Q 3125 2378 3379 2068 
Q 3634 1759 3634 1313 
Q 3634 634 3220 271 
Q 2806 -91 2034 -91 
Q 1263 -91 848 271 
Q 434 634 434 1313 
Q 434 1759 690 2068 
Q 947 2378 1403 2484 
z
M 1172 3481 
Q 1172 3119 1398 2916 
Q 1625 2713 2034 2713 
Q 2441 2713 2670 2916 
Q 2900 3119 2900 3481 
Q 2900 3844 2670 4047 
Q 2441 4250 2034 4250 
Q 1625 4250 1398 4047 
Q 1172 3844 1172 3481 
z
" transform="scale(0.015625)"/>
       </defs>
       <use xlink:href="#DejaVuSans-30"/>
       <use xlink:href="#DejaVuSans-2e" x="63.623047"/>
       <use xlink:href="#DejaVuSans-38" x="95.410156"/>
      </g>
     </g>
    </g>
    <g id="ytick_6">
     <g id="line2d_31">
      <path d="M 57.6 27.648 
L 360.8064 27.648 
" clip-path="url(#p09b484d8a8)" style="fill: none; stroke: #b0b0b0; stroke-width: 0.8; stroke-linecap: square"/>
     </g>
     <g id="line2d_32">
      <g>
       <use xlink:href="#mf6174cf905" x="57.6" y="27.648" style="stroke: #000000; stroke-width: 0.8"/>
      </g>
     </g>
     <g id="text_11">
      <!-- 1.0 -->
      <g transform="translate(25.155 33.72675)scale(0.16 -0.16)">
       <use xlink:href="#DejaVuSans-31"/>
       <use xlink:href="#DejaVuSans-2e" x="63.623047"/>
       <use xlink:href="#DejaVuSans-30" x="95.410156"/>
      </g>
     </g>
    </g>
    <g id="text_12">
     <!-- Fraction of function,target pairs -->
     <g transform="translate(17.619531 297.681)rotate(-90)scale(0.17 -0.17)">
      <defs>
       <path id="DejaVuSans-46" d="M 628 4666 
L 3309 4666 
L 3309 4134 
L 1259 4134 
L 1259 2759 
L 3109 2759 
L 3109 2228 
L 1259 2228 
L 1259 0 
L 628 0 
L 628 4666 
z
" transform="scale(0.015625)"/>
       <path id="DejaVuSans-72" d="M 2631 2963 
Q 2534 3019 2420 3045 
Q 2306 3072 2169 3072 
Q 1681 3072 1420 2755 
Q 1159 2438 1159 1844 
L 1159 0 
L 581 0 
L 581 3500 
L 1159 3500 
L 1159 2956 
Q 1341 3275 1631 3429 
Q 1922 3584 2338 3584 
Q 2397 3584 2469 3576 
Q 2541 3569 2628 3553 
L 2631 2963 
z
" transform="scale(0.015625)"/>
       <path id="DejaVuSans-63" d="M 3122 3366 
L 3122 2828 
Q 2878 2963 2633 3030 
Q 2388 3097 2138 3097 
Q 1578 3097 1268 2742 
Q 959 2388 959 1747 
Q 959 1106 1268 751 
Q 1578 397 2138 397 
Q 2388 397 2633 464 
Q 2878 531 3122 666 
L 3122 134 
Q 2881 22 2623 -34 
Q 2366 -91 2075 -91 
Q 1284 -91 818 406 
Q 353 903 353 1747 
Q 353 2603 823 3093 
Q 1294 3584 2113 3584 
Q 2378 3584 2631 3529 
Q 2884 3475 3122 3366 
z
" transform="scale(0.015625)"/>
       <path id="DejaVuSans-74" d="M 1172 4494 
L 1172 3500 
L 2356 3500 
L 2356 3053 
L 1172 3053 
L 1172 1153 
Q 1172 725 1289 603 
Q 1406 481 1766 481 
L 2356 481 
L 2356 0 
L 1766 0 
Q 1100 0 847 248 
Q 594 497 594 1153 
L 594 3053 
L 172 3053 
L 172 3500 
L 594 3500 
L 594 4494 
L 1172 4494 
z
" transform="scale(0.015625)"/>
       <path id="DejaVuSans-75" d="M 544 1381 
L 544 3500 
L 1119 3500 
L 1119 1403 
Q 1119 906 1312 657 
Q 1506 409 1894 409 
Q 2359 409 2629 706 
Q 2900 1003 2900 1516 
L 2900 3500 
L 3475 3500 
L 3475 0 
L 2900 0 
L 2900 538 
Q 2691 219 2414 64 
Q 2138 -91 1772 -91 
Q 1169 -91 856 284 
Q 544 659 544 1381 
z
M 1991 3584 
L 1991 3584 
z
" transform="scale(0.015625)"/>
       <path id="DejaVuSans-2c" d="M 750 794 
L 1409 794 
L 1409 256 
L 897 -744 
L 494 -744 
L 750 256 
L 750 794 
z
" transform="scale(0.015625)"/>
       <path id="DejaVuSans-70" d="M 1159 525 
L 1159 -1331 
L 581 -1331 
L 581 3500 
L 1159 3500 
L 1159 2969 
Q 1341 3281 1617 3432 
Q 1894 3584 2278 3584 
Q 2916 3584 3314 3078 
Q 3713 2572 3713 1747 
Q 3713 922 3314 415 
Q 2916 -91 2278 -91 
Q 1894 -91 1617 61 
Q 1341 213 1159 525 
z
M 3116 1747 
Q 3116 2381 2855 2742 
Q 2594 3103 2138 3103 
Q 1681 3103 1420 2742 
Q 1159 2381 1159 1747 
Q 1159 1113 1420 752 
Q 1681 391 2138 391 
Q 2594 391 2855 752 
Q 3116 1113 3116 1747 
z
" transform="scale(0.015625)"/>
      </defs>
      <use xlink:href="#DejaVuSans-46"/>
      <use xlink:href="#DejaVuSans-72" x="50.269531"/>
      <use xlink:href="#DejaVuSans-61" x="91.382812"/>
      <use xlink:href="#DejaVuSans-63" x="152.662109"/>
      <use xlink:href="#DejaVuSans-74" x="207.642578"/>
      <use xlink:href="#DejaVuSans-69" x="246.851562"/>
      <use xlink:href="#DejaVuSans-6f" x="274.634766"/>
      <use xlink:href="#DejaVuSans-6e" x="335.816406"/>
      <use xlink:href="#DejaVuSans-20" x="399.195312"/>
      <use xlink:href="#DejaVuSans-6f" x="430.982422"/>
      <use xlink:href="#DejaVuSans-66" x="492.164062"/>
      <use xlink:href="#DejaVuSans-20" x="527.369141"/>
      <use xlink:href="#DejaVuSans-66" x="559.15625"/>
      <use xlink:href="#DejaVuSans-75" x="594.361328"/>
      <use xlink:href="#DejaVuSans-6e" x="657.740234"/>
      <use xlink:href="#DejaVuSans-63" x="721.119141"/>
      <use xlink:href="#DejaVuSans-74" x="776.099609"/>
      <use xlink:href="#DejaVuSans-69" x="815.308594"/>
      <use xlink:href="#DejaVuSans-6f" x="843.091797"/>
      <use xlink:href="#DejaVuSans-6e" x="904.273438"/>
      <use xlink:href="#DejaVuSans-2c" x="967.652344"/>
      <use xlink:href="#DejaVuSans-74" x="999.439453"/>
      <use xlink:href="#DejaVuSans-61" x="1038.648438"/>
      <use xlink:href="#DejaVuSans-72" x="1099.927734"/>
      <use xlink:href="#DejaVuSans-67" x="1139.291016"/>
      <use xlink:href="#DejaVuSans-65" x="1202.767578"/>
      <use xlink:href="#DejaVuSans-74" x="1264.291016"/>
      <use xlink:href="#DejaVuSans-20" x="1303.5"/>
      <use xlink:href="#DejaVuSans-70" x="1335.287109"/>
      <use xlink:href="#DejaVuSans-61" x="1398.763672"/>
      <use xlink:href="#DejaVuSans-69" x="1460.042969"/>
      <use xlink:href="#DejaVuSans-72" x="1487.826172"/>
      <use xlink:href="#DejaVuSans-73" x="1528.939453"/>
     </g>
    </g>
   </g>
   <g id="line2d_33">
    <defs>
     <path id="me42004dcf4" d="M 0 1.5 
C 0.397805 1.5 0.77937 1.341951 1.06066 1.06066 
C 1.341951 0.77937 1.5 0.397805 1.5 0 
C 1.5 -0.397805 1.341951 -0.77937 1.06066 -1.06066 
C 0.77937 -1.341951 0.397805 -1.5 0 -1.5 
C -0.397805 -1.5 -0.77937 -1.341951 -1.06066 -1.06066 
C -1.341951 -0.77937 -1.5 -0.397805 -1.5 0 
C -1.5 0.397805 -1.341951 0.77937 -1.06066 1.06066 
C -0.77937 1.341951 -0.397805 1.5 0 1.5 
z
" style="stroke: #f5deb3"/>
    </defs>
    <g>
     <use xlink:href="#me42004dcf4" x="182.951076" y="27.648" style="fill: #f5deb3; stroke: #f5deb3"/>
     <use xlink:href="#me42004dcf4" x="182.951076" y="27.648" style="fill: #f5deb3; stroke: #f5deb3"/>
    </g>
   </g>
   <g id="line2d_34">
    <defs>
     <path id="m54fd19c327" d="M 0 1.5 
C 0.397805 1.5 0.77937 1.341951 1.06066 1.06066 
C 1.341951 0.77937 1.5 0.397805 1.5 0 
C 1.5 -0.397805 1.341951 -0.77937 1.06066 -1.06066 
C 0.77937 -1.341951 0.397805 -1.5 0 -1.5 
C -0.397805 -1.5 -0.77937 -1.341951 -1.06066 -1.06066 
C -1.341951 -0.77937 -1.5 -0.397805 -1.5 0 
C -1.5 0.397805 -1.341951 0.77937 -1.06066 1.06066 
C -0.77937 1.341951 -0.397805 1.5 0 1.5 
z
" style="stroke: #000080"/>
    </defs>
    <g>
     <use xlink:href="#m54fd19c327" x="170.197905" y="27.648" style="fill: #000080; stroke: #000080"/>
     <use xlink:href="#m54fd19c327" x="170.197905" y="27.648" style="fill: #000080; stroke: #000080"/>
    </g>
   </g>
   <g id="line2d_35">
    <path d="M 151.95789 298.944 
L 151.95789 298.589365 
L 152.24878 298.589365 
L 152.24878 298.234729 
L 153.404029 298.234729 
L 153.404029 297.880094 
L 153.542139 297.880094 
L 153.610815 297.170824 
L 154.051201 297.170824 
L 154.051201 296.816188 
L 154.206807 296.816188 
L 154.306165 296.106918 
L 154.328173 296.106918 
L 154.328173 295.752282 
L 154.530538 295.752282 
L 154.611961 295.043012 
L 154.966097 295.043012 
L 155.061533 294.333741 
L 155.140696 294.333741 
L 155.145961 293.624471 
L 155.417764 293.624471 
L 155.417764 293.269835 
L 155.583096 293.269835 
L 155.583096 292.9152 
L 155.802997 292.9152 
L 155.802997 292.560565 
L 155.954908 292.560565 
L 156.040449 291.496659 
L 156.190463 291.496659 
L 156.250135 290.432753 
L 156.373846 290.432753 
L 156.40834 289.723482 
L 156.501649 289.723482 
L 156.604245 288.659576 
L 156.759513 288.659576 
L 156.759513 288.304941 
L 156.884731 288.304941 
L 156.918301 287.595671 
L 157.018655 287.595671 
L 157.123217 286.177129 
L 157.260166 286.177129 
L 157.311853 285.467859 
L 157.438121 285.467859 
L 157.507906 284.049318 
L 157.572805 284.049318 
L 157.683543 282.985412 
L 157.706532 282.985412 
L 157.734081 281.921506 
L 157.898535 281.921506 
L 157.980225 281.212235 
L 158.043518 281.212235 
L 158.147039 279.084424 
L 158.156014 279.084424 
L 158.196349 278.020518 
L 158.316836 278.020518 
L 158.365703 276.956612 
L 158.440976 276.956612 
L 158.533546 275.183435 
L 158.55552 275.183435 
L 158.643158 273.410259 
L 158.66937 273.410259 
L 158.778196 271.991718 
L 158.804221 271.991718 
L 158.899338 271.282447 
L 158.920889 271.282447 
L 159.002557 269.863906 
L 159.045398 269.863906 
L 159.152076 267.736094 
L 159.24122 267.736094 
L 159.317295 266.317553 
L 159.355217 266.317553 
L 159.460157 264.189741 
L 159.506146 264.189741 
L 159.589476 262.7712 
L 159.626854 262.7712 
L 159.726167 259.224847 
L 159.742668 259.224847 
L 159.853676 258.160941 
L 160.00474 258.160941 
L 160.114216 256.387765 
L 160.130381 256.387765 
L 160.227078 254.969224 
L 160.2592 254.969224 
L 160.367209 253.550682 
L 160.403075 253.550682 
L 160.482533 251.422871 
L 160.561656 251.422871 
L 160.664021 248.231153 
L 160.707162 248.231153 
L 160.808741 246.103341 
L 160.867096 246.103341 
L 160.97168 243.975529 
L 160.983265 243.975529 
L 161.087207 241.138447 
L 161.098721 241.138447 
L 161.198212 240.074541 
L 161.217285 240.074541 
L 161.31236 237.592094 
L 161.350256 237.592094 
L 161.414505 235.464282 
L 161.471013 235.464282 
L 161.561074 233.691106 
L 161.583523 233.691106 
L 161.669327 231.917929 
L 161.702796 231.917929 
L 161.747329 230.499388 
L 161.817625 230.499388 
L 161.920743 229.080847 
L 161.935428 229.080847 
L 161.97209 227.662306 
L 162.04885 227.662306 
L 162.139824 224.470588 
L 162.165218 224.470588 
L 162.255632 222.697412 
L 162.302476 222.697412 
L 162.395816 221.633506 
L 162.420867 221.633506 
L 162.485131 218.796424 
L 162.581118 218.796424 
L 162.680145 215.604706 
L 162.697774 215.604706 
L 162.8032 213.476894 
L 162.820714 213.476894 
L 162.897582 210.639812 
L 162.946334 210.639812 
L 163.040002 209.221271 
L 163.067666 209.221271 
L 163.171045 205.320282 
L 163.181352 205.320282 
L 163.28411 202.837835 
L 163.328465 202.837835 
L 163.406684 200.355388 
L 163.447365 200.355388 
L 163.555419 197.163671 
L 163.562152 197.163671 
L 163.59914 195.745129 
L 163.686277 195.745129 
L 163.796296 193.262682 
L 163.812909 193.262682 
L 163.895758 190.4256 
L 163.941994 190.4256 
L 164.050532 186.879247 
L 164.063646 186.879247 
L 164.164968 184.042165 
L 164.178002 184.042165 
L 164.272231 182.268988 
L 164.291668 182.268988 
L 164.382108 179.431906 
L 164.407868 179.431906 
L 164.516958 175.885553 
L 164.520157 175.885553 
L 164.622238 172.693835 
L 164.638138 172.693835 
L 164.749065 169.856753 
L 164.780639 169.856753 
L 164.871904 167.019671 
L 164.906406 167.019671 
L 165.012651 164.182588 
L 165.028225 164.182588 
L 165.136882 161.345506 
L 165.158538 161.345506 
L 165.269521 157.089882 
L 165.275667 157.089882 
L 165.382908 153.543529 
L 165.395126 153.543529 
L 165.50169 151.061082 
L 165.519897 151.061082 
L 165.628775 148.224 
L 165.640833 148.224 
L 165.749015 145.741553 
L 165.758002 145.741553 
L 165.865514 141.840565 
L 165.877422 141.840565 
L 165.981296 138.648847 
L 166.037446 138.648847 
L 166.134572 136.1664 
L 166.149245 136.1664 
L 166.248715 133.683953 
L 166.289521 133.683953 
L 166.388254 128.719059 
L 166.414303 128.719059 
L 166.500873 124.463435 
L 166.532515 124.463435 
L 166.632844 120.207812 
L 166.684234 120.207812 
L 166.786594 115.597553 
L 166.826251 115.597553 
L 166.927844 111.696565 
L 166.955967 111.696565 
L 167.04568 106.731671 
L 167.082003 106.731671 
L 167.182228 102.476047 
L 167.237678 102.476047 
L 167.348091 97.865788 
L 167.359097 97.865788 
L 167.435958 95.383341 
L 167.47427 95.383341 
L 167.564271 91.127718 
L 167.586025 91.127718 
L 167.69712 87.936 
L 167.710623 87.936 
L 167.804877 83.325741 
L 167.826354 83.325741 
L 167.917361 79.424753 
L 167.93871 79.424753 
L 168.021211 77.651576 
L 168.050399 77.651576 
L 168.113925 73.041318 
L 168.164064 73.041318 
L 168.274427 68.431059 
L 168.29014 68.431059 
L 168.397165 65.239341 
L 168.404973 65.239341 
L 168.513935 61.338353 
L 168.519108 61.338353 
L 168.614553 56.018824 
L 168.632555 56.018824 
L 168.72487 51.408565 
L 168.750432 51.408565 
L 168.859958 47.862212 
L 168.877727 47.862212 
L 168.961272 46.089035 
L 168.989038 46.089035 
L 169.079624 42.897318 
L 169.104709 42.897318 
L 169.179765 38.287059 
L 169.217182 38.287059 
L 169.254523 37.223153 
L 169.351267 37.223153 
L 169.449976 34.386071 
L 169.467197 34.386071 
L 169.521218 33.6768 
L 169.604401 33.6768 
L 169.694508 31.194353 
L 169.721213 31.194353 
L 169.779348 29.421176 
L 169.854175 29.421176 
L 169.919104 28.002635 
L 170.197905 28.002635 
L 170.197905 27.648 
L 360.8064 27.648 
L 360.8064 27.648 
" style="fill: none; stroke: #000080; stroke-width: 1.5; stroke-linecap: square"/>
   </g>
   <g id="line2d_36">
    <defs>
     <path id="m39a239a8f3" d="M 0 6 
C 1.591219 6 3.117479 5.367802 4.242641 4.242641 
C 5.367802 3.117479 6 1.591219 6 0 
C 6 -1.591219 5.367802 -3.117479 4.242641 -4.242641 
C 3.117479 -5.367802 1.591219 -6 0 -6 
C -1.591219 -6 -3.117479 -5.367802 -4.242641 -4.242641 
C -5.367802 -3.117479 -6 -1.591219 -6 0 
C -6 1.591219 -5.367802 3.117479 -4.242641 4.242641 
C -3.117479 5.367802 -1.591219 6 0 6 
z
" style="stroke: #000080; stroke-width: 1.5"/>
    </defs>
    <g>
     <use xlink:href="#m39a239a8f3" x="165.303302" y="156.380612" style="fill-opacity: 0; stroke: #000080; stroke-width: 1.5"/>
     <use xlink:href="#m39a239a8f3" x="170.197905" y="28.002635" style="fill-opacity: 0; stroke: #000080; stroke-width: 1.5"/>
     <use xlink:href="#m39a239a8f3" x="170.197905" y="27.648" style="fill-opacity: 0; stroke: #000080; stroke-width: 1.5"/>
     <use xlink:href="#m39a239a8f3" x="170.197905" y="27.648" style="fill-opacity: 0; stroke: #000080; stroke-width: 1.5"/>
     <use xlink:href="#m39a239a8f3" x="360.8064" y="27.648" style="fill-opacity: 0; stroke: #000080; stroke-width: 1.5"/>
    </g>
   </g>
   <g id="line2d_37">
    <path style="fill: none; stroke: #000080; stroke-width: 1.5; stroke-linecap: square"/>
    <g/>
   </g>
   <g id="line2d_38">
    <defs>
     <path id="madb48e0f9c" d="M 0 1.5 
C 0.397805 1.5 0.77937 1.341951 1.06066 1.06066 
C 1.341951 0.77937 1.5 0.397805 1.5 0 
C 1.5 -0.397805 1.341951 -0.77937 1.06066 -1.06066 
C 0.77937 -1.341951 0.397805 -1.5 0 -1.5 
C -0.397805 -1.5 -0.77937 -1.341951 -1.06066 -1.06066 
C -1.341951 -0.77937 -1.5 -0.397805 -1.5 0 
C -1.5 0.397805 -1.341951 0.77937 -1.06066 1.06066 
C -0.77937 1.341951 -0.397805 1.5 0 1.5 
z
" style="stroke: #ff00ff"/>
    </defs>
    <g>
     <use xlink:href="#madb48e0f9c" x="171.4204" y="27.648" style="fill: #ff00ff; stroke: #ff00ff"/>
     <use xlink:href="#madb48e0f9c" x="171.4204" y="27.648" style="fill: #ff00ff; stroke: #ff00ff"/>
    </g>
   </g>
   <g id="line2d_39">
    <path d="M 144.731576 298.944 
L 144.731576 298.589365 
L 149.980053 298.589365 
L 150.056115 297.880094 
L 150.533072 297.880094 
L 150.533072 297.525459 
L 151.56715 297.525459 
L 151.675098 296.461553 
L 152.20574 296.461553 
L 152.20574 296.106918 
L 152.43213 296.106918 
L 152.43213 295.752282 
L 152.631772 295.752282 
L 152.631772 295.397647 
L 152.805483 295.397647 
L 152.805483 295.043012 
L 153.136452 295.043012 
L 153.229954 294.333741 
L 153.31139 294.333741 
L 153.31139 293.979106 
L 153.432886 293.979106 
L 153.542139 293.269835 
L 153.627945 293.269835 
L 153.627945 292.9152 
L 153.781417 292.9152 
L 153.781417 292.560565 
L 153.972913 292.560565 
L 153.972913 292.205929 
L 154.328173 292.205929 
L 154.399522 290.787388 
L 154.497869 290.787388 
L 154.497869 290.432753 
L 154.741511 290.432753 
L 154.741511 290.078118 
L 154.982037 290.078118 
L 155.066821 289.014212 
L 155.103795 289.014212 
L 155.103795 288.659576 
L 155.469586 288.659576 
L 155.505777 287.950306 
L 155.670341 287.950306 
L 155.670341 287.595671 
L 155.85377 287.595671 
L 155.949864 286.177129 
L 156.040449 286.177129 
L 156.120605 285.113224 
L 156.240202 285.113224 
L 156.240202 284.758588 
L 156.442771 284.758588 
L 156.51634 284.049318 
L 156.584746 284.049318 
L 156.613987 283.340047 
L 156.875128 283.340047 
L 156.985263 281.566871 
L 157.004352 281.566871 
L 157.094758 279.439059 
L 157.123217 279.439059 
L 157.170554 278.729788 
L 157.311853 278.729788 
L 157.344671 278.020518 
L 157.475372 278.020518 
L 157.475372 277.665882 
L 157.660526 277.665882 
L 157.766171 275.538071 
L 157.779907 275.538071 
L 157.87578 274.8288 
L 157.948499 274.8288 
L 158.034489 273.764894 
L 158.120089 273.764894 
L 158.2053 272.346353 
L 158.303487 272.346353 
L 158.383441 270.927812 
L 158.467471 270.927812 
L 158.529148 270.218541 
L 158.621287 270.218541 
L 158.704263 269.154635 
L 158.976805 269.154635 
L 159.071056 268.090729 
L 159.122267 268.090729 
L 159.224273 266.672188 
L 159.258152 266.672188 
L 159.363634 265.608282 
L 159.372047 265.608282 
L 159.481075 263.125835 
L 159.489436 263.125835 
L 159.589476 262.061929 
L 159.688986 262.061929 
L 159.767393 260.998024 
L 159.820853 260.998024 
L 159.906891 259.934118 
L 159.976253 259.934118 
L 160.081845 257.451671 
L 160.098038 257.451671 
L 160.198926 256.387765 
L 160.223059 256.387765 
L 160.295272 254.259953 
L 160.466668 254.259953 
L 160.577441 252.486776 
L 160.593212 252.486776 
L 160.703245 250.358965 
L 160.75802 250.358965 
L 160.800947 249.649694 
L 160.902022 249.649694 
L 160.994842 247.521882 
L 161.025681 247.521882 
L 161.083367 246.812612 
L 161.137049 246.812612 
L 161.209658 245.748706 
L 161.270586 245.748706 
L 161.369176 242.911624 
L 161.418277 242.911624 
L 161.486053 241.847718 
L 161.534851 241.847718 
L 161.632069 240.429176 
L 161.661881 240.429176 
L 161.76215 238.656 
L 161.773258 238.656 
L 161.876619 236.173553 
L 161.935428 236.173553 
L 162.045202 232.981835 
L 162.125297 232.981835 
L 162.226747 230.854024 
L 162.25924 230.854024 
L 162.327652 229.080847 
L 162.377902 229.080847 
L 162.460166 228.016941 
L 162.495821 228.016941 
L 162.602382 225.179859 
L 162.651905 225.179859 
L 162.757588 223.052047 
L 162.775144 223.052047 
L 162.880139 220.5696 
L 162.887118 220.5696 
L 162.991492 219.151059 
L 162.998429 219.151059 
L 163.091839 216.668612 
L 163.164171 216.668612 
L 163.167608 215.959341 
L 163.287526 215.959341 
L 163.389707 211.703718 
L 163.450751 211.703718 
L 163.555419 209.221271 
L 163.568882 209.221271 
L 163.632702 207.448094 
L 163.68962 207.448094 
L 163.79962 204.256376 
L 163.81623 204.256376 
L 163.915587 201.419294 
L 163.928796 201.419294 
L 164.024277 198.582212 
L 164.07675 198.582212 
L 164.181259 196.4544 
L 164.207296 196.4544 
L 164.265747 193.262682 
L 164.330481 193.262682 
L 164.436807 190.070965 
L 164.456074 190.070965 
L 164.55531 187.233882 
L 164.577646 187.233882 
L 164.663551 182.978259 
L 164.688929 182.978259 
L 164.790101 181.205082 
L 164.849915 181.205082 
L 164.943973 178.722635 
L 164.975221 178.722635 
L 165.071763 174.467012 
L 165.093494 174.467012 
L 165.180169 172.3392 
L 165.220276 172.3392 
L 165.318637 169.502118 
L 165.343147 169.502118 
L 165.44087 166.665035 
L 165.465221 166.665035 
L 165.574415 162.764047 
L 165.625759 162.764047 
L 165.691997 160.636235 
L 165.737026 160.636235 
L 165.847638 156.380612 
L 165.859557 156.380612 
L 165.960567 153.188894 
L 165.972415 153.188894 
L 166.078712 150.351812 
L 166.093428 150.351812 
L 166.187339 146.450824 
L 166.213668 146.450824 
L 166.277871 144.677647 
L 166.353466 144.677647 
L 166.460523 141.131294 
L 166.474943 141.131294 
L 166.566974 138.648847 
L 166.60137 138.648847 
L 166.701332 134.747859 
L 166.712723 134.747859 
L 166.797933 132.974682 
L 166.834738 132.974682 
L 166.927844 129.428329 
L 166.950346 129.428329 
L 167.04568 126.236612 
L 167.065247 126.236612 
L 167.171118 122.335624 
L 167.185004 122.335624 
L 167.265343 119.498541 
L 167.320549 119.498541 
L 167.414029 115.597553 
L 167.433218 115.597553 
L 167.537044 113.115106 
L 167.550662 113.115106 
L 167.656552 110.987294 
L 167.661966 110.987294 
L 167.769923 105.313129 
L 167.780685 105.313129 
L 167.885291 101.412141 
L 167.89866 101.412141 
L 168.005271 97.156518 
L 168.023866 97.156518 
L 168.129773 92.191624 
L 168.15352 92.191624 
L 168.240336 88.999906 
L 168.282285 88.999906 
L 168.378936 84.744282 
L 168.399768 84.744282 
L 168.506173 81.197929 
L 168.513935 81.197929 
L 168.611979 76.942306 
L 168.629985 76.942306 
L 168.722311 74.105224 
L 168.77596 74.105224 
L 168.877727 70.204235 
L 168.892945 70.204235 
L 168.999125 65.593976 
L 169.019282 65.593976 
L 169.122249 60.983718 
L 169.164778 60.983718 
L 169.264469 57.082729 
L 169.289309 57.082729 
L 169.383404 52.472471 
L 169.413021 52.472471 
L 169.511408 48.216847 
L 169.589749 48.216847 
L 169.687218 45.379765 
L 169.701795 45.379765 
L 169.801103 42.542682 
L 169.815592 42.542682 
L 169.8614 40.414871 
L 169.935902 40.414871 
L 170.045911 37.577788 
L 170.050679 37.577788 
L 170.129185 35.095341 
L 170.167131 35.095341 
L 170.271088 33.322165 
L 170.3299 33.322165 
L 170.383845 32.258259 
L 170.528496 32.258259 
L 170.635104 30.130447 
L 170.676656 30.130447 
L 170.754894 29.066541 
L 170.93316 29.066541 
L 170.97406 28.357271 
L 171.186214 28.357271 
L 171.186214 28.002635 
L 171.4204 28.002635 
L 171.4204 27.648 
L 360.8064 27.648 
L 360.8064 27.648 
" style="fill: none; stroke: #ff00ff; stroke-width: 1.5; stroke-linecap: square"/>
   </g>
   <g id="line2d_40">
    <defs>
     <path id="m8388b15ff9" d="M -0 8.485281 
L 5.091169 0 
L 0 -8.485281 
L -5.091169 -0 
z
" style="stroke: #ff00ff; stroke-width: 1.5; stroke-linejoin: miter"/>
    </defs>
    <g>
     <use xlink:href="#m8388b15ff9" x="163.872597" y="202.837835" style="fill-opacity: 0; stroke: #ff00ff; stroke-width: 1.5; stroke-linejoin: miter"/>
     <use xlink:href="#m8388b15ff9" x="170.97406" y="28.357271" style="fill-opacity: 0; stroke: #ff00ff; stroke-width: 1.5; stroke-linejoin: miter"/>
     <use xlink:href="#m8388b15ff9" x="171.4204" y="27.648" style="fill-opacity: 0; stroke: #ff00ff; stroke-width: 1.5; stroke-linejoin: miter"/>
     <use xlink:href="#m8388b15ff9" x="171.4204" y="27.648" style="fill-opacity: 0; stroke: #ff00ff; stroke-width: 1.5; stroke-linejoin: miter"/>
     <use xlink:href="#m8388b15ff9" x="360.8064" y="27.648" style="fill-opacity: 0; stroke: #ff00ff; stroke-width: 1.5; stroke-linejoin: miter"/>
    </g>
   </g>
   <g id="line2d_41">
    <path style="fill: none; stroke: #ff00ff; stroke-width: 1.5; stroke-linecap: square"/>
    <g/>
   </g>
   <g id="line2d_42">
    <defs>
     <path id="md4ad98bd64" d="M 0 1.5 
C 0.397805 1.5 0.77937 1.341951 1.06066 1.06066 
C 1.341951 0.77937 1.5 0.397805 1.5 0 
C 1.5 -0.397805 1.341951 -0.77937 1.06066 -1.06066 
C 0.77937 -1.341951 0.397805 -1.5 0 -1.5 
C -0.397805 -1.5 -0.77937 -1.341951 -1.06066 -1.06066 
C -1.341951 -0.77937 -1.5 -0.397805 -1.5 0 
C -1.5 0.397805 -1.341951 0.77937 -1.06066 1.06066 
C -0.77937 1.341951 -0.397805 1.5 0 1.5 
z
" style="stroke: #ff7500"/>
    </defs>
    <g>
     <use xlink:href="#md4ad98bd64" x="170.453976" y="27.648" style="fill: #ff7500; stroke: #ff7500"/>
     <use xlink:href="#md4ad98bd64" x="170.453976" y="27.648" style="fill: #ff7500; stroke: #ff7500"/>
    </g>
   </g>
   <g id="line2d_43">
    <path d="M 14.2848 298.944 
L 14.2848 298.589365 
L 151.484181 298.589365 
L 151.484181 298.234729 
L 152.076026 298.234729 
L 152.076026 297.880094 
L 152.769674 297.880094 
L 152.769674 297.525459 
L 153.24161 297.525459 
L 153.24161 297.170824 
L 153.559331 297.170824 
L 153.605101 296.461553 
L 153.8097 296.461553 
L 153.8097 296.106918 
L 154.07351 296.106918 
L 154.084654 295.397647 
L 154.267588 295.397647 
L 154.300658 294.688376 
L 154.437829 294.688376 
L 154.470602 293.979106 
L 154.655244 293.979106 
L 154.655244 293.624471 
L 154.86483 293.624471 
L 154.923525 292.9152 
L 155.077392 292.9152 
L 155.077392 292.560565 
L 155.266666 292.560565 
L 155.355388 291.496659 
L 155.469586 291.496659 
L 155.552207 290.787388 
L 155.588239 290.787388 
L 155.690811 289.014212 
L 155.833477 289.014212 
L 155.874041 288.304941 
L 156.025382 288.304941 
L 156.095593 287.595671 
L 156.200421 287.595671 
L 156.309618 286.531765 
L 156.423104 286.531765 
L 156.526128 285.467859 
L 156.540799 285.467859 
L 156.633455 284.403953 
L 156.667477 284.403953 
L 156.725657 282.630776 
L 156.860715 282.630776 
L 156.93267 281.212235 
L 157.127956 281.212235 
L 157.198899 279.439059 
L 157.293074 279.439059 
L 157.368077 278.375153 
L 157.577432 278.375153 
L 157.683543 276.601976 
L 157.743255 276.601976 
L 157.843876 275.892706 
L 157.857556 275.892706 
L 157.925804 275.183435 
L 158.052543 275.183435 
L 158.111097 273.764894 
L 158.169469 273.764894 
L 158.254458 271.637082 
L 158.356828 271.637082 
L 158.467471 269.509271 
L 158.507144 269.509271 
L 158.542339 268.8 
L 158.621287 268.8 
L 158.634413 267.736094 
L 158.747788 267.736094 
L 158.838864 265.962918 
L 158.877763 265.962918 
L 158.976805 264.899012 
L 158.989685 264.899012 
L 159.096679 262.416565 
L 159.100946 262.416565 
L 159.126528 261.707294 
L 159.232748 261.707294 
L 159.338372 259.934118 
L 159.372047 259.934118 
L 159.439216 257.806306 
L 159.547857 257.806306 
L 159.639297 256.033129 
L 159.688986 256.033129 
L 159.746791 254.614588 
L 159.80442 254.614588 
L 159.890533 252.841412 
L 159.939564 252.841412 
L 160.025062 250.7136 
L 160.102084 250.7136 
L 160.198926 248.231153 
L 160.275241 248.231153 
L 160.383158 246.812612 
L 160.395111 246.812612 
L 160.474602 243.620894 
L 160.541906 243.620894 
L 160.648309 242.202353 
L 160.664021 242.202353 
L 160.773641 239.719906 
L 160.781447 239.719906 
L 160.882626 237.946729 
L 160.917524 237.946729 
L 161.021829 236.528188 
L 161.094883 236.528188 
L 161.190578 234.045741 
L 161.243955 234.045741 
L 161.338896 231.563294 
L 161.365393 231.563294 
L 161.467251 230.144753 
L 161.478535 230.144753 
L 161.583523 228.016941 
L 161.624608 228.016941 
L 161.732496 224.115953 
L 161.817625 224.115953 
L 161.928087 222.342776 
L 161.939097 222.342776 
L 162.023298 221.278871 
L 162.052497 221.278871 
L 162.147083 218.796424 
L 162.223133 218.796424 
L 162.331246 215.250071 
L 162.363559 215.250071 
L 162.463734 213.476894 
L 162.478002 213.476894 
L 162.581118 211.703718 
L 162.595297 211.703718 
L 162.680145 209.575906 
L 162.743531 209.575906 
L 162.824215 206.384188 
L 162.862681 206.384188 
L 162.956765 204.256376 
L 162.98108 204.256376 
L 163.088387 202.128565 
L 163.098739 202.128565 
L 163.18822 198.227576 
L 163.239651 198.227576 
L 163.348901 196.809035 
L 163.379514 196.809035 
L 163.474437 194.681224 
L 163.494715 194.681224 
L 163.59242 190.780235 
L 163.629348 190.780235 
L 163.73303 188.297788 
L 163.756363 188.297788 
L 163.82619 185.815341 
L 163.885835 185.815341 
L 163.994697 183.332894 
L 164.014422 183.332894 
L 164.106202 179.786541 
L 164.155187 179.786541 
L 164.233297 178.013365 
L 164.294905 178.013365 
L 164.391772 175.176282 
L 164.407868 175.176282 
L 164.516958 171.984565 
L 164.561694 171.984565 
L 164.669899 168.438212 
L 164.673072 168.438212 
L 164.739583 165.601129 
L 164.799558 165.601129 
L 164.900138 162.764047 
L 164.915805 162.764047 
L 165.025111 158.863059 
L 165.056225 158.863059 
L 165.143072 155.671341 
L 165.170902 155.671341 
L 165.27874 152.124988 
L 165.300233 152.124988 
L 165.392072 148.578635 
L 165.413437 148.578635 
L 165.510796 143.613741 
L 165.568365 143.613741 
L 165.658907 141.131294 
L 165.701011 141.131294 
L 165.799886 138.648847 
L 165.862536 138.648847 
L 165.960567 133.683953 
L 165.975376 133.683953 
L 166.081656 129.782965 
L 166.09637 129.782965 
L 166.201971 125.527341 
L 166.231199 125.527341 
L 166.309891 122.690259 
L 166.347662 122.690259 
L 166.417195 120.917082 
L 166.466293 120.917082 
L 166.529641 118.08 
L 166.592777 118.08 
L 166.698484 112.760471 
L 166.721261 112.760471 
L 166.826251 109.214118 
L 166.848875 109.214118 
L 166.955967 104.958494 
L 166.975628 104.958494 
L 167.062453 101.057506 
L 167.13775 101.057506 
L 167.240447 97.511153 
L 167.251516 97.511153 
L 167.359097 92.191624 
L 167.375594 92.191624 
L 167.479737 89.354541 
L 167.487935 89.354541 
L 167.594176 86.517459 
L 167.602324 86.517459 
L 167.710623 81.552565 
L 167.732209 81.552565 
L 167.839765 77.296941 
L 167.858524 77.296941 
L 167.965363 71.977412 
L 167.989318 71.977412 
L 168.074246 68.431059 
L 168.124491 68.431059 
L 168.216699 64.530071 
L 168.240336 64.530071 
L 168.329367 61.338353 
L 168.358081 61.338353 
L 168.464721 55.664188 
L 168.480276 55.664188 
L 168.591381 51.7632 
L 168.611979 51.7632 
L 168.706955 49.280753 
L 168.732542 49.280753 
L 168.832 44.670494 
L 168.872652 44.670494 
L 168.98147 41.478776 
L 168.989038 41.478776 
L 169.044448 39.350965 
L 169.102202 39.350965 
L 169.202224 35.095341 
L 169.232127 35.095341 
L 169.319074 33.322165 
L 169.393282 33.322165 
L 169.437666 31.903624 
L 169.560409 31.903624 
L 169.670197 30.130447 
L 169.774511 30.130447 
L 169.854175 29.066541 
L 170.00294 29.066541 
L 170.00294 28.711906 
L 170.178973 28.711906 
L 170.178973 28.357271 
L 170.299341 28.357271 
L 170.299341 28.002635 
L 170.453976 28.002635 
L 170.453976 27.648 
L 360.8064 27.648 
L 360.8064 27.648 
" style="fill: none; stroke: #ff7500; stroke-width: 1.5; stroke-linecap: square"/>
   </g>
   <g id="line2d_44">
    <defs>
     <path id="m826216ee37" d="M 0 -6 
L -1.347084 -1.854102 
L -5.706339 -1.854102 
L -2.179628 0.708204 
L -3.526712 4.854102 
L -0 2.291796 
L 3.526712 4.854102 
L 2.179628 0.708204 
L 5.706339 -1.854102 
L 1.347084 -1.854102 
z
" style="stroke: #ff7500; stroke-width: 1.5; stroke-linejoin: bevel"/>
    </defs>
    <g>
     <use xlink:href="#m826216ee37" x="165.913101" y="136.521035" style="fill-opacity: 0; stroke: #ff7500; stroke-width: 1.5; stroke-linejoin: bevel"/>
     <use xlink:href="#m826216ee37" x="170.453976" y="28.002635" style="fill-opacity: 0; stroke: #ff7500; stroke-width: 1.5; stroke-linejoin: bevel"/>
     <use xlink:href="#m826216ee37" x="170.453976" y="27.648" style="fill-opacity: 0; stroke: #ff7500; stroke-width: 1.5; stroke-linejoin: bevel"/>
     <use xlink:href="#m826216ee37" x="170.453976" y="27.648" style="fill-opacity: 0; stroke: #ff7500; stroke-width: 1.5; stroke-linejoin: bevel"/>
     <use xlink:href="#m826216ee37" x="360.8064" y="27.648" style="fill-opacity: 0; stroke: #ff7500; stroke-width: 1.5; stroke-linejoin: bevel"/>
    </g>
   </g>
   <g id="line2d_45">
    <path style="fill: none; stroke: #ff7500; stroke-width: 1.5; stroke-linecap: square"/>
    <g/>
   </g>
   <g id="line2d_46">
    <defs>
     <path id="mb7fc62f2b3" d="M 0 1.5 
C 0.397805 1.5 0.77937 1.341951 1.06066 1.06066 
C 1.341951 0.77937 1.5 0.397805 1.5 0 
C 1.5 -0.397805 1.341951 -0.77937 1.06066 -1.06066 
C 0.77937 -1.341951 0.397805 -1.5 0 -1.5 
C -0.397805 -1.5 -0.77937 -1.341951 -1.06066 -1.06066 
C -1.341951 -0.77937 -1.5 -0.397805 -1.5 0 
C -1.5 0.397805 -1.341951 0.77937 -1.06066 1.06066 
C -0.77937 1.341951 -0.397805 1.5 0 1.5 
z
" style="stroke: #6495ed"/>
    </defs>
    <g>
     <use xlink:href="#mb7fc62f2b3" x="170.336945" y="27.648" style="fill: #6495ed; stroke: #6495ed"/>
     <use xlink:href="#mb7fc62f2b3" x="170.336945" y="27.648" style="fill: #6495ed; stroke: #6495ed"/>
    </g>
   </g>
   <g id="line2d_47">
    <path d="M 149.20924 298.944 
L 149.20924 298.589365 
L 150.866501 298.589365 
L 150.866501 298.234729 
L 151.895414 298.234729 
L 151.895414 297.880094 
L 152.174937 297.880094 
L 152.174937 297.525459 
L 152.334566 297.525459 
L 152.43213 296.816188 
L 152.763699 296.816188 
L 152.865013 295.752282 
L 153.048369 295.752282 
L 153.048369 295.397647 
L 153.375128 295.397647 
L 153.421349 294.688376 
L 153.530668 294.688376 
L 153.530668 294.333741 
L 153.65646 294.333741 
L 153.679241 293.624471 
L 153.916793 293.624471 
L 154.012098 292.560565 
L 154.090224 292.560565 
L 154.190197 291.142024 
L 154.256552 291.142024 
L 154.366625 290.078118 
L 154.68764 290.078118 
L 154.752266 289.368847 
L 154.859485 289.368847 
L 154.960781 288.304941 
L 155.167009 288.304941 
L 155.240492 287.595671 
L 155.298028 287.595671 
L 155.298028 287.241035 
L 155.541899 287.241035 
L 155.593381 286.177129 
L 155.660098 286.177129 
L 155.660098 285.822494 
L 155.919572 285.822494 
L 156.010303 284.049318 
L 156.110604 284.049318 
L 156.130601 283.340047 
L 156.289811 283.340047 
L 156.34423 282.630776 
L 156.452597 282.630776 
L 156.545687 281.921506 
L 156.657763 281.921506 
L 156.68689 281.212235 
L 156.783658 281.212235 
L 156.8511 280.502965 
L 156.93267 280.502965 
L 157.03771 279.084424 
L 157.04723 279.084424 
L 157.151633 278.020518 
L 157.208337 278.020518 
L 157.316545 275.892706 
L 157.321235 275.892706 
L 157.321235 275.538071 
L 157.442781 275.538071 
L 157.456756 274.8288 
L 157.554285 274.8288 
L 157.619025 273.764894 
L 157.715719 273.764894 
L 157.775329 272.700988 
L 157.934885 272.700988 
L 158.039004 271.637082 
L 158.070579 271.637082 
L 158.133569 270.573176 
L 158.182914 270.573176 
L 158.182914 270.218541 
L 158.312387 270.218541 
L 158.423292 269.509271 
L 158.52035 269.509271 
L 158.612531 267.026824 
L 158.665004 267.026824 
L 158.74344 265.253647 
L 158.869125 265.253647 
L 158.929502 264.189741 
L 159.023989 264.189741 
L 159.135048 262.061929 
L 159.164837 262.061929 
L 159.270841 260.643388 
L 159.279296 260.643388 
L 159.384659 258.870212 
L 159.430833 258.870212 
L 159.527013 256.7424 
L 159.547857 256.7424 
L 159.626854 255.678494 
L 159.697255 255.678494 
L 159.775628 254.259953 
L 159.845475 254.259953 
L 159.927318 252.841412 
L 159.959956 252.841412 
L 160.061585 251.777506 
L 160.110173 251.777506 
L 160.194901 248.940424 
L 160.223059 248.940424 
L 160.319282 247.167247 
L 160.371198 247.167247 
L 160.474602 245.748706 
L 160.565603 245.748706 
L 160.656167 243.266259 
L 160.777545 243.266259 
L 160.863211 241.847718 
L 160.890387 241.847718 
L 160.994842 239.365271 
L 161.052623 239.365271 
L 161.13322 237.946729 
L 161.186759 237.946729 
L 161.266784 234.755012 
L 161.319946 234.755012 
L 161.42582 232.981835 
L 161.43336 232.981835 
L 161.497325 231.917929 
L 161.605944 231.917929 
L 161.673048 230.854024 
L 161.721364 230.854024 
L 161.821317 227.662306 
L 161.924415 227.662306 
L 162.030602 223.406682 
L 162.103487 223.406682 
L 162.205054 221.988141 
L 162.226747 221.988141 
L 162.302476 220.924235 
L 162.342023 220.924235 
L 162.453027 219.151059 
L 162.470869 219.151059 
L 162.566929 217.377882 
L 162.584664 217.377882 
L 162.673089 213.831529 
L 162.697774 213.831529 
L 162.757588 212.058353 
L 162.852198 212.058353 
L 162.96024 208.866635 
L 162.977609 208.866635 
L 163.088387 207.093459 
L 163.150415 207.093459 
L 163.253342 203.547106 
L 163.263603 203.547106 
L 163.318239 202.128565 
L 163.376115 202.128565 
L 163.474437 199.646118 
L 163.504846 199.646118 
L 163.605857 197.163671 
L 163.636055 197.163671 
L 163.686277 195.390494 
L 163.756363 195.390494 
L 163.842777 191.844141 
L 163.892451 191.844141 
L 163.991407 189.007059 
L 164.014422 189.007059 
L 164.119277 187.233882 
L 164.135608 187.233882 
L 164.236544 184.751435 
L 164.252774 184.751435 
L 164.333712 181.559718 
L 164.391772 181.559718 
L 164.500955 178.722635 
L 164.536144 178.722635 
L 164.6286 176.240188 
L 164.657201 176.240188 
L 164.752225 172.693835 
L 164.786947 172.693835 
L 164.871904 170.211388 
L 164.903272 170.211388 
L 164.993945 167.374306 
L 165.021997 167.374306 
L 165.124495 164.182588 
L 165.136882 164.182588 
L 165.20486 162.054776 
L 165.275667 162.054776 
L 165.385963 158.153788 
L 165.413437 158.153788 
L 165.51383 154.607435 
L 165.532026 154.607435 
L 165.640833 151.415718 
L 165.643847 151.415718 
L 165.749015 148.224 
L 165.766985 148.224 
L 165.826761 145.741553 
L 165.880398 145.741553 
L 165.987215 143.259106 
L 165.993131 143.259106 
L 166.099311 139.712753 
L 166.131636 139.712753 
L 166.213668 136.875671 
L 166.245797 136.875671 
L 166.353466 132.620047 
L 166.376665 132.620047 
L 166.480709 130.1376 
L 166.492234 130.1376 
L 166.598506 126.591247 
L 166.607096 126.591247 
L 166.71557 123.044894 
L 166.718416 123.044894 
L 166.829081 119.143906 
L 166.848875 119.143906 
L 166.947535 116.306824 
L 166.967205 116.306824 
L 167.07642 112.405835 
L 167.084795 112.405835 
L 167.185004 109.214118 
L 167.196106 109.214118 
L 167.298486 105.667765 
L 167.317792 105.667765 
L 167.403056 102.121412 
L 167.433218 102.121412 
L 167.542492 97.511153 
L 167.550662 97.511153 
L 167.659259 94.319435 
L 167.667378 94.319435 
L 167.767232 88.645271 
L 167.831719 88.645271 
L 167.925369 84.035012 
L 167.960035 84.035012 
L 168.061001 80.134024 
L 168.074246 80.134024 
L 168.182503 76.942306 
L 168.203554 76.942306 
L 168.313686 72.686682 
L 168.324141 72.686682 
L 168.423177 68.785694 
L 168.436169 68.785694 
L 168.542369 64.884706 
L 168.552698 64.884706 
L 168.663377 60.983718 
L 168.671075 60.983718 
L 168.778511 57.437365 
L 168.814187 57.437365 
L 168.910683 53.181741 
L 168.930935 53.181741 
L 169.039418 49.990024 
L 169.049477 49.990024 
L 169.15228 46.443671 
L 169.162279 46.443671 
L 169.269439 41.833412 
L 169.284344 41.833412 
L 169.353741 40.769506 
L 169.39575 40.769506 
L 169.501592 37.932424 
L 169.526122 37.932424 
L 169.626359 36.159247 
L 169.677494 36.159247 
L 169.781767 33.322165 
L 169.815592 33.322165 
L 169.88787 31.548988 
L 169.931104 31.548988 
L 169.962267 30.485082 
L 170.053063 30.485082 
L 170.145796 29.066541 
L 170.214455 29.066541 
L 170.292282 28.002635 
L 170.336945 28.002635 
L 170.336945 27.648 
L 360.8064 27.648 
L 360.8064 27.648 
" style="fill: none; stroke: #6495ed; stroke-width: 1.5; stroke-linecap: square"/>
   </g>
   <g id="line2d_48">
    <defs>
     <path id="m881aa59a9f" d="M -0 6 
L 6 -6 
L -6 -6 
z
" style="stroke: #6495ed; stroke-width: 1.5; stroke-linejoin: miter"/>
    </defs>
    <g>
     <use xlink:href="#m881aa59a9f" x="163.053839" y="208.157365" style="fill-opacity: 0; stroke: #6495ed; stroke-width: 1.5; stroke-linejoin: miter"/>
     <use xlink:href="#m881aa59a9f" x="170.336945" y="28.002635" style="fill-opacity: 0; stroke: #6495ed; stroke-width: 1.5; stroke-linejoin: miter"/>
     <use xlink:href="#m881aa59a9f" x="170.336945" y="28.002635" style="fill-opacity: 0; stroke: #6495ed; stroke-width: 1.5; stroke-linejoin: miter"/>
     <use xlink:href="#m881aa59a9f" x="170.336945" y="27.648" style="fill-opacity: 0; stroke: #6495ed; stroke-width: 1.5; stroke-linejoin: miter"/>
     <use xlink:href="#m881aa59a9f" x="360.8064" y="27.648" style="fill-opacity: 0; stroke: #6495ed; stroke-width: 1.5; stroke-linejoin: miter"/>
    </g>
   </g>
   <g id="line2d_49">
    <path style="fill: none; stroke: #6495ed; stroke-width: 1.5; stroke-linecap: square"/>
    <g/>
   </g>
   <g id="line2d_50">
    <defs>
     <path id="m40b5c383d7" d="M 0 1.5 
C 0.397805 1.5 0.77937 1.341951 1.06066 1.06066 
C 1.341951 0.77937 1.5 0.397805 1.5 0 
C 1.5 -0.397805 1.341951 -0.77937 1.06066 -1.06066 
C 0.77937 -1.341951 0.397805 -1.5 0 -1.5 
C -0.397805 -1.5 -0.77937 -1.341951 -1.06066 -1.06066 
C -1.341951 -0.77937 -1.5 -0.397805 -1.5 0 
C -1.5 0.397805 -1.341951 0.77937 -1.06066 1.06066 
C -0.77937 1.341951 -0.397805 1.5 0 1.5 
z
" style="stroke: #ff0000"/>
    </defs>
    <g>
     <use xlink:href="#m40b5c383d7" x="169.971845" y="27.648" style="fill: #ff0000; stroke: #ff0000"/>
     <use xlink:href="#m40b5c383d7" x="169.971845" y="27.648" style="fill: #ff0000; stroke: #ff0000"/>
    </g>
   </g>
   <g id="line2d_51">
    <path d="M 151.381561 298.944 
L 151.381561 298.589365 
L 152.733797 298.589365 
L 152.733797 298.234729 
L 152.859068 298.234729 
L 152.859068 297.525459 
L 153.036593 297.525459 
L 153.036593 297.170824 
L 153.559331 297.170824 
L 153.667854 296.461553 
L 153.679241 296.461553 
L 153.679241 296.106918 
L 154.034453 296.106918 
L 154.079083 295.397647 
L 154.289641 295.397647 
L 154.333671 294.333741 
L 154.590283 294.333741 
L 154.590283 293.979106 
L 154.779128 293.979106 
L 154.779128 293.624471 
L 154.944823 293.624471 
L 154.950144 292.9152 
L 155.18278 292.9152 
L 155.18278 292.560565 
L 155.365798 292.560565 
L 155.454055 291.851294 
L 155.685695 291.851294 
L 155.792826 290.787388 
L 155.833477 290.787388 
L 155.833477 290.432753 
L 155.97507 290.432753 
L 155.97507 290.078118 
L 156.115606 290.078118 
L 156.200421 288.659576 
L 156.250135 288.659576 
L 156.304668 287.241035 
L 156.423104 287.241035 
L 156.423104 286.8864 
L 156.570108 286.8864 
L 156.570108 286.531765 
L 156.720816 286.531765 
L 156.783658 284.758588 
L 156.870325 284.758588 
L 156.980488 283.694682 
L 156.990037 283.694682 
L 157.099504 282.276141 
L 157.1469 282.276141 
L 157.198899 281.566871 
L 157.382107 281.566871 
L 157.461411 280.8576 
L 157.512549 280.8576 
L 157.563547 279.793694 
L 157.651312 279.793694 
L 157.76159 278.375153 
L 157.839314 278.375153 
L 157.934885 276.247341 
L 158.039004 276.247341 
L 158.111097 275.538071 
L 158.1605 275.538071 
L 158.24553 274.474165 
L 158.294582 274.474165 
L 158.392304 273.055624 
L 158.454228 273.055624 
L 158.551127 271.991718 
L 158.577468 271.991718 
L 158.673735 270.573176 
L 158.691186 270.573176 
L 158.786875 269.154635 
L 158.81722 269.154635 
L 158.912271 267.736094 
L 158.933807 267.736094 
L 159.019705 266.317553 
L 159.096679 266.317553 
L 159.143564 265.253647 
L 159.253921 265.253647 
L 159.270841 264.544376 
L 159.372047 264.544376 
L 159.476894 263.125835 
L 159.485256 263.125835 
L 159.564516 261.707294 
L 159.606097 261.707294 
L 159.651731 260.998024 
L 159.726167 260.998024 
L 159.829064 259.934118 
L 159.853676 259.934118 
L 159.898714 258.870212 
L 159.988467 258.870212 
L 160.053475 257.097035 
L 160.118259 257.097035 
L 160.223059 255.678494 
L 160.2592 255.678494 
L 160.355239 253.550682 
L 160.399093 253.550682 
L 160.49046 252.486776 
L 160.549809 252.486776 
L 160.656167 251.068235 
L 160.683643 251.068235 
L 160.777545 248.940424 
L 160.894266 248.940424 
L 160.979404 245.748706 
L 161.006413 245.748706 
L 161.052623 244.6848 
L 161.156184 244.6848 
L 161.259177 243.266259 
L 161.300977 243.266259 
L 161.391854 240.074541 
L 161.42959 240.074541 
L 161.516098 238.656 
L 161.590999 238.656 
L 161.691646 236.173553 
L 161.702796 236.173553 
L 161.78066 234.045741 
L 161.821317 234.045741 
L 161.928087 231.563294 
L 161.942766 231.563294 
L 162.02695 229.790118 
L 162.070724 229.790118 
L 162.157966 226.243765 
L 162.194198 226.243765 
L 162.270058 224.825224 
L 162.334839 224.825224 
L 162.43874 222.342776 
L 162.449456 222.342776 
L 162.549177 220.5696 
L 162.570477 220.5696 
L 162.651905 219.151059 
L 162.683672 219.151059 
L 162.761101 215.959341 
L 162.806704 215.959341 
L 162.880139 214.5408 
L 162.935898 214.5408 
L 163.040002 211.349082 
L 163.053839 211.349082 
L 163.143533 208.866635 
L 163.195086 208.866635 
L 163.304595 204.965647 
L 163.325057 204.965647 
L 163.406684 202.4832 
L 163.437203 202.4832 
L 163.531835 199.646118 
L 163.582336 199.646118 
L 163.692963 197.163671 
L 163.726358 197.163671 
L 163.819551 194.681224 
L 163.849408 194.681224 
L 163.945293 193.262682 
L 163.96507 193.262682 
L 164.05709 189.716329 
L 164.080025 189.716329 
L 164.168227 186.169976 
L 164.220301 186.169976 
L 164.324018 184.3968 
L 164.356312 184.3968 
L 164.462492 180.850447 
L 164.529751 180.850447 
L 164.638138 177.304094 
L 164.641317 177.304094 
L 164.749065 173.757741 
L 164.774328 173.757741 
L 164.88132 169.856753 
L 164.903272 169.856753 
L 165.012651 167.374306 
L 165.021997 167.374306 
L 165.121398 163.827953 
L 165.14926 163.827953 
L 165.257222 161.345506 
L 165.269521 161.345506 
L 165.364567 157.089882 
L 165.392072 157.089882 
L 165.498653 154.607435 
L 165.535057 154.607435 
L 165.643847 151.770353 
L 165.649872 151.770353 
L 165.746019 148.578635 
L 165.763991 148.578635 
L 165.874446 145.386918 
L 165.892297 145.386918 
L 165.96353 142.1952 
L 166.004959 142.1952 
L 166.114011 137.230306 
L 166.11695 137.230306 
L 166.199045 134.747859 
L 166.231199 134.747859 
L 166.327333 131.556141 
L 166.350564 131.556141 
L 166.448979 126.591247 
L 166.463408 126.591247 
L 166.561235 123.754165 
L 166.578446 123.754165 
L 166.684234 119.853176 
L 166.721261 119.853176 
L 166.800767 115.242918 
L 166.834738 115.242918 
L 166.941911 113.115106 
L 166.947535 113.115106 
L 167.056864 109.568753 
L 167.070834 109.568753 
L 167.162782 106.377035 
L 167.185004 106.377035 
L 167.292966 102.830682 
L 167.309521 102.830682 
L 167.414029 98.220424 
L 167.435958 98.220424 
L 167.539768 93.610165 
L 167.553385 93.610165 
L 167.63759 91.127718 
L 167.664672 91.127718 
L 167.775305 87.936 
L 167.780685 87.936 
L 167.885291 84.035012 
L 167.89866 84.035012 
L 167.981336 80.843294 
L 168.034484 80.843294 
L 168.12185 77.296941 
L 168.150883 77.296941 
L 168.245585 73.041318 
L 168.266565 73.041318 
L 168.37633 67.721788 
L 168.378936 67.721788 
L 168.482867 64.530071 
L 168.503585 64.530071 
L 168.614553 59.210541 
L 168.62227 59.210541 
L 168.699272 54.245647 
L 168.735099 54.245647 
L 168.844713 50.344659 
L 168.867575 50.344659 
L 168.976423 45.025129 
L 169.006686 45.025129 
L 169.102202 42.897318 
L 169.127258 42.897318 
L 169.234617 40.060235 
L 169.25701 40.060235 
L 169.358688 37.223153 
L 169.368578 37.223153 
L 169.452437 34.740706 
L 169.528573 34.740706 
L 169.638546 32.258259 
L 169.653161 32.258259 
L 169.721213 30.485082 
L 169.813178 30.485082 
L 169.909499 28.357271 
L 169.962267 28.357271 
L 169.971845 27.648 
L 360.8064 27.648 
L 360.8064 27.648 
" style="fill: none; stroke: #ff0000; stroke-width: 1.5; stroke-linecap: square"/>
   </g>
   <g id="line2d_52">
    <defs>
     <path id="m15309af3f3" d="M 0 -6 
L -5.196152 -3 
L -5.196152 3 
L -0 6 
L 5.196152 3 
L 5.196152 -3 
z
" style="stroke: #ff0000; stroke-width: 1.5; stroke-linejoin: miter"/>
    </defs>
    <g>
     <use xlink:href="#m15309af3f3" x="168.161429" y="76.233035" style="fill-opacity: 0; stroke: #ff0000; stroke-width: 1.5; stroke-linejoin: miter"/>
     <use xlink:href="#m15309af3f3" x="169.971845" y="28.002635" style="fill-opacity: 0; stroke: #ff0000; stroke-width: 1.5; stroke-linejoin: miter"/>
     <use xlink:href="#m15309af3f3" x="169.971845" y="27.648" style="fill-opacity: 0; stroke: #ff0000; stroke-width: 1.5; stroke-linejoin: miter"/>
     <use xlink:href="#m15309af3f3" x="169.971845" y="27.648" style="fill-opacity: 0; stroke: #ff0000; stroke-width: 1.5; stroke-linejoin: miter"/>
     <use xlink:href="#m15309af3f3" x="360.8064" y="27.648" style="fill-opacity: 0; stroke: #ff0000; stroke-width: 1.5; stroke-linejoin: miter"/>
    </g>
   </g>
   <g id="line2d_53">
    <path style="fill: none; stroke: #ff0000; stroke-width: 1.5; stroke-linecap: square"/>
    <g/>
   </g>
   <g id="line2d_54">
    <path d="M 360.8064 27.648 
L 380.514816 241.429248 
" style="fill: none; stroke: #ff00ff; stroke-width: 1.5; stroke-linecap: square"/>
    <g>
     <use xlink:href="#m8388b15ff9" x="360.8064" y="27.648" style="fill-opacity: 0; stroke: #ff00ff; stroke-width: 1.5; stroke-linejoin: miter"/>
     <use xlink:href="#m8388b15ff9" x="380.514816" y="241.429248" style="fill-opacity: 0; stroke: #ff00ff; stroke-width: 1.5; stroke-linejoin: miter"/>
    </g>
   </g>
   <g id="line2d_55">
    <path d="M 360.8064 27.648 
L 380.514816 189.340416 
" style="fill: none; stroke: #ff7500; stroke-width: 1.5; stroke-linecap: square"/>
    <g>
     <use xlink:href="#m826216ee37" x="360.8064" y="27.648" style="fill-opacity: 0; stroke: #ff7500; stroke-width: 1.5; stroke-linejoin: bevel"/>
     <use xlink:href="#m826216ee37" x="380.514816" y="189.340416" style="fill-opacity: 0; stroke: #ff7500; stroke-width: 1.5; stroke-linejoin: bevel"/>
    </g>
   </g>
   <g id="line2d_56">
    <path d="M 360.8064 27.648 
L 380.514816 137.251584 
" style="fill: none; stroke: #6495ed; stroke-width: 1.5; stroke-linecap: square"/>
    <g>
     <use xlink:href="#m881aa59a9f" x="360.8064" y="27.648" style="fill-opacity: 0; stroke: #6495ed; stroke-width: 1.5; stroke-linejoin: miter"/>
     <use xlink:href="#m881aa59a9f" x="380.514816" y="137.251584" style="fill-opacity: 0; stroke: #6495ed; stroke-width: 1.5; stroke-linejoin: miter"/>
    </g>
   </g>
   <g id="line2d_57">
    <path d="M 360.8064 27.648 
L 380.514816 85.162752 
" style="fill: none; stroke: #000080; stroke-width: 1.5; stroke-linecap: square"/>
    <g>
     <use xlink:href="#m39a239a8f3" x="360.8064" y="27.648" style="fill-opacity: 0; stroke: #000080; stroke-width: 1.5"/>
     <use xlink:href="#m39a239a8f3" x="380.514816" y="85.162752" style="fill-opacity: 0; stroke: #000080; stroke-width: 1.5"/>
    </g>
   </g>
   <g id="line2d_58">
    <path d="M 360.8064 27.648 
L 380.514816 33.07392 
" style="fill: none; stroke: #ff0000; stroke-width: 1.5; stroke-linecap: square"/>
    <g>
     <use xlink:href="#m15309af3f3" x="360.8064" y="27.648" style="fill-opacity: 0; stroke: #ff0000; stroke-width: 1.5; stroke-linejoin: miter"/>
     <use xlink:href="#m15309af3f3" x="380.514816" y="33.07392" style="fill-opacity: 0; stroke: #ff0000; stroke-width: 1.5; stroke-linejoin: miter"/>
    </g>
   </g>
   <g id="line2d_59">
    <path d="M 360.8064 298.944 
L 360.8064 27.648 
" style="fill: none; stroke: #000000; stroke-width: 1.5; stroke-linecap: square"/>
   </g>
   <g id="patch_3">
    <path d="M 57.6 298.944 
L 360.8064 298.944 
" style="fill: none; stroke: #000000; stroke-width: 0.8; stroke-linejoin: miter; stroke-linecap: square"/>
   </g>
   <g id="patch_4">
    <path d="M 57.6 27.648 
L 360.8064 27.648 
" style="fill: none; stroke: #000000; stroke-width: 0.8; stroke-linejoin: miter; stroke-linecap: square"/>
   </g>
   <g id="text_13">
    <!-- best 2009 -->
    <g transform="translate(386.578944 297.381205)scale(0.14 -0.14)">
     <defs>
      <path id="DejaVuSans-62" d="M 3116 1747 
Q 3116 2381 2855 2742 
Q 2594 3103 2138 3103 
Q 1681 3103 1420 2742 
Q 1159 2381 1159 1747 
Q 1159 1113 1420 752 
Q 1681 391 2138 391 
Q 2594 391 2855 752 
Q 3116 1113 3116 1747 
z
M 1159 2969 
Q 1341 3281 1617 3432 
Q 1894 3584 2278 3584 
Q 2916 3584 3314 3078 
Q 3713 2572 3713 1747 
Q 3713 922 3314 415 
Q 2916 -91 2278 -91 
Q 1894 -91 1617 61 
Q 1341 213 1159 525 
L 1159 0 
L 581 0 
L 581 4863 
L 1159 4863 
L 1159 2969 
z
" transform="scale(0.015625)"/>
      <path id="DejaVuSans-39" d="M 703 97 
L 703 672 
Q 941 559 1184 500 
Q 1428 441 1663 441 
Q 2288 441 2617 861 
Q 2947 1281 2994 2138 
Q 2813 1869 2534 1725 
Q 2256 1581 1919 1581 
Q 1219 1581 811 2004 
Q 403 2428 403 3163 
Q 403 3881 828 4315 
Q 1253 4750 1959 4750 
Q 2769 4750 3195 4129 
Q 3622 3509 3622 2328 
Q 3622 1225 3098 567 
Q 2575 -91 1691 -91 
Q 1453 -91 1209 -44 
Q 966 3 703 97 
z
M 1959 2075 
Q 2384 2075 2632 2365 
Q 2881 2656 2881 3163 
Q 2881 3666 2632 3958 
Q 2384 4250 1959 4250 
Q 1534 4250 1286 3958 
Q 1038 3666 1038 3163 
Q 1038 2656 1286 2365 
Q 1534 2075 1959 2075 
z
" transform="scale(0.015625)"/>
     </defs>
     <use xlink:href="#DejaVuSans-62"/>
     <use xlink:href="#DejaVuSans-65" x="63.476562"/>
     <use xlink:href="#DejaVuSans-73" x="125"/>
     <use xlink:href="#DejaVuSans-74" x="177.099609"/>
     <use xlink:href="#DejaVuSans-20" x="216.308594"/>
     <use xlink:href="#DejaVuSans-32" x="248.095703"/>
     <use xlink:href="#DejaVuSans-30" x="311.71875"/>
     <use xlink:href="#DejaVuSans-30" x="375.341797"/>
     <use xlink:href="#DejaVuSans-39" x="438.964844"/>
    </g>
   </g>
   <g id="text_14">
    <!-- cma1 -->
    <g transform="translate(386.578944 245.292373)scale(0.14 -0.14)">
     <use xlink:href="#DejaVuSans-63"/>
     <use xlink:href="#DejaVuSans-6d" x="54.980469"/>
     <use xlink:href="#DejaVuSans-61" x="152.392578"/>
     <use xlink:href="#DejaVuSans-31" x="213.671875"/>
    </g>
   </g>
   <g id="text_15">
    <!-- ddcma0 -->
    <g transform="translate(386.578944 193.203541)scale(0.14 -0.14)">
     <use xlink:href="#DejaVuSans-64"/>
     <use xlink:href="#DejaVuSans-64" x="63.476562"/>
     <use xlink:href="#DejaVuSans-63" x="126.953125"/>
     <use xlink:href="#DejaVuSans-6d" x="181.933594"/>
     <use xlink:href="#DejaVuSans-61" x="279.345703"/>
     <use xlink:href="#DejaVuSans-30" x="340.625"/>
    </g>
   </g>
   <g id="text_16">
    <!-- ddcma1 -->
    <g transform="translate(386.578944 141.114709)scale(0.14 -0.14)">
     <use xlink:href="#DejaVuSans-64"/>
     <use xlink:href="#DejaVuSans-64" x="63.476562"/>
     <use xlink:href="#DejaVuSans-63" x="126.953125"/>
     <use xlink:href="#DejaVuSans-6d" x="181.933594"/>
     <use xlink:href="#DejaVuSans-61" x="279.345703"/>
     <use xlink:href="#DejaVuSans-31" x="340.625"/>
    </g>
   </g>
   <g id="text_17">
    <!-- cma0 -->
    <g transform="translate(386.578944 89.025877)scale(0.14 -0.14)">
     <use xlink:href="#DejaVuSans-63"/>
     <use xlink:href="#DejaVuSans-6d" x="54.980469"/>
     <use xlink:href="#DejaVuSans-61" x="152.392578"/>
     <use xlink:href="#DejaVuSans-30" x="213.671875"/>
    </g>
   </g>
   <g id="text_18">
    <!-- CMA-ES-20 -->
    <g transform="translate(386.578944 36.937045)scale(0.14 -0.14)">
     <defs>
      <path id="DejaVuSans-43" d="M 4122 4306 
L 4122 3641 
Q 3803 3938 3442 4084 
Q 3081 4231 2675 4231 
Q 1875 4231 1450 3742 
Q 1025 3253 1025 2328 
Q 1025 1406 1450 917 
Q 1875 428 2675 428 
Q 3081 428 3442 575 
Q 3803 722 4122 1019 
L 4122 359 
Q 3791 134 3420 21 
Q 3050 -91 2638 -91 
Q 1578 -91 968 557 
Q 359 1206 359 2328 
Q 359 3453 968 4101 
Q 1578 4750 2638 4750 
Q 3056 4750 3426 4639 
Q 3797 4528 4122 4306 
z
" transform="scale(0.015625)"/>
      <path id="DejaVuSans-4d" d="M 628 4666 
L 1569 4666 
L 2759 1491 
L 3956 4666 
L 4897 4666 
L 4897 0 
L 4281 0 
L 4281 4097 
L 3078 897 
L 2444 897 
L 1241 4097 
L 1241 0 
L 628 0 
L 628 4666 
z
" transform="scale(0.015625)"/>
      <path id="DejaVuSans-41" d="M 2188 4044 
L 1331 1722 
L 3047 1722 
L 2188 4044 
z
M 1831 4666 
L 2547 4666 
L 4325 0 
L 3669 0 
L 3244 1197 
L 1141 1197 
L 716 0 
L 50 0 
L 1831 4666 
z
" transform="scale(0.015625)"/>
      <path id="DejaVuSans-45" d="M 628 4666 
L 3578 4666 
L 3578 4134 
L 1259 4134 
L 1259 2753 
L 3481 2753 
L 3481 2222 
L 1259 2222 
L 1259 531 
L 3634 531 
L 3634 0 
L 628 0 
L 628 4666 
z
" transform="scale(0.015625)"/>
      <path id="DejaVuSans-53" d="M 3425 4513 
L 3425 3897 
Q 3066 4069 2747 4153 
Q 2428 4238 2131 4238 
Q 1616 4238 1336 4038 
Q 1056 3838 1056 3469 
Q 1056 3159 1242 3001 
Q 1428 2844 1947 2747 
L 2328 2669 
Q 3034 2534 3370 2195 
Q 3706 1856 3706 1288 
Q 3706 609 3251 259 
Q 2797 -91 1919 -91 
Q 1588 -91 1214 -16 
Q 841 59 441 206 
L 441 856 
Q 825 641 1194 531 
Q 1563 422 1919 422 
Q 2459 422 2753 634 
Q 3047 847 3047 1241 
Q 3047 1584 2836 1778 
Q 2625 1972 2144 2069 
L 1759 2144 
Q 1053 2284 737 2584 
Q 422 2884 422 3419 
Q 422 4038 858 4394 
Q 1294 4750 2059 4750 
Q 2388 4750 2728 4690 
Q 3069 4631 3425 4513 
z
" transform="scale(0.015625)"/>
     </defs>
     <use xlink:href="#DejaVuSans-43"/>
     <use xlink:href="#DejaVuSans-4d" x="69.824219"/>
     <use xlink:href="#DejaVuSans-41" x="156.103516"/>
     <use xlink:href="#DejaVuSans-2d" x="222.261719"/>
     <use xlink:href="#DejaVuSans-45" x="258.345703"/>
     <use xlink:href="#DejaVuSans-53" x="321.529297"/>
     <use xlink:href="#DejaVuSans-2d" x="385.005859"/>
     <use xlink:href="#DejaVuSans-32" x="421.089844"/>
     <use xlink:href="#DejaVuSans-30" x="484.712891"/>
    </g>
   </g>
   <g id="text_19">
    <!-- bbob f11, 20-D -->
    <g transform="translate(60.632064 38.111366)scale(0.102 -0.102)">
     <defs>
      <path id="DejaVuSans-44" d="M 1259 4147 
L 1259 519 
L 2022 519 
Q 2988 519 3436 956 
Q 3884 1394 3884 2338 
Q 3884 3275 3436 3711 
Q 2988 4147 2022 4147 
L 1259 4147 
z
M 628 4666 
L 1925 4666 
Q 3281 4666 3915 4102 
Q 4550 3538 4550 2338 
Q 4550 1131 3912 565 
Q 3275 0 1925 0 
L 628 0 
L 628 4666 
z
" transform="scale(0.015625)"/>
     </defs>
     <use xlink:href="#DejaVuSans-62"/>
     <use xlink:href="#DejaVuSans-62" x="63.476562"/>
     <use xlink:href="#DejaVuSans-6f" x="126.953125"/>
     <use xlink:href="#DejaVuSans-62" x="188.134766"/>
     <use xlink:href="#DejaVuSans-20" x="251.611328"/>
     <use xlink:href="#DejaVuSans-66" x="283.398438"/>
     <use xlink:href="#DejaVuSans-31" x="318.603516"/>
     <use xlink:href="#DejaVuSans-31" x="382.226562"/>
     <use xlink:href="#DejaVuSans-2c" x="445.849609"/>
     <use xlink:href="#DejaVuSans-20" x="477.636719"/>
     <use xlink:href="#DejaVuSans-32" x="509.423828"/>
     <use xlink:href="#DejaVuSans-30" x="573.046875"/>
     <use xlink:href="#DejaVuSans-2d" x="636.669922"/>
     <use xlink:href="#DejaVuSans-44" x="672.753906"/>
    </g>
    <!-- 51 targets: 100..1e-08 -->
    <g transform="translate(60.632064 49.533135)scale(0.102 -0.102)">
     <defs>
      <path id="DejaVuSans-35" d="M 691 4666 
L 3169 4666 
L 3169 4134 
L 1269 4134 
L 1269 2991 
Q 1406 3038 1543 3061 
Q 1681 3084 1819 3084 
Q 2600 3084 3056 2656 
Q 3513 2228 3513 1497 
Q 3513 744 3044 326 
Q 2575 -91 1722 -91 
Q 1428 -91 1123 -41 
Q 819 9 494 109 
L 494 744 
Q 775 591 1075 516 
Q 1375 441 1709 441 
Q 2250 441 2565 725 
Q 2881 1009 2881 1497 
Q 2881 1984 2565 2268 
Q 2250 2553 1709 2553 
Q 1456 2553 1204 2497 
Q 953 2441 691 2322 
L 691 4666 
z
" transform="scale(0.015625)"/>
      <path id="DejaVuSans-3a" d="M 750 794 
L 1409 794 
L 1409 0 
L 750 0 
L 750 794 
z
M 750 3309 
L 1409 3309 
L 1409 2516 
L 750 2516 
L 750 3309 
z
" transform="scale(0.015625)"/>
     </defs>
     <use xlink:href="#DejaVuSans-35"/>
     <use xlink:href="#DejaVuSans-31" x="63.623047"/>
     <use xlink:href="#DejaVuSans-20" x="127.246094"/>
     <use xlink:href="#DejaVuSans-74" x="159.033203"/>
     <use xlink:href="#DejaVuSans-61" x="198.242188"/>
     <use xlink:href="#DejaVuSans-72" x="259.521484"/>
     <use xlink:href="#DejaVuSans-67" x="298.884766"/>
     <use xlink:href="#DejaVuSans-65" x="362.361328"/>
     <use xlink:href="#DejaVuSans-74" x="423.884766"/>
     <use xlink:href="#DejaVuSans-73" x="463.09375"/>
     <use xlink:href="#DejaVuSans-3a" x="515.193359"/>
     <use xlink:href="#DejaVuSans-20" x="548.884766"/>
     <use xlink:href="#DejaVuSans-31" x="580.671875"/>
     <use xlink:href="#DejaVuSans-30" x="644.294922"/>
     <use xlink:href="#DejaVuSans-30" x="707.917969"/>
     <use xlink:href="#DejaVuSans-2e" x="771.541016"/>
     <use xlink:href="#DejaVuSans-2e" x="803.328125"/>
     <use xlink:href="#DejaVuSans-31" x="835.115234"/>
     <use xlink:href="#DejaVuSans-65" x="898.738281"/>
     <use xlink:href="#DejaVuSans-2d" x="960.261719"/>
     <use xlink:href="#DejaVuSans-30" x="996.345703"/>
     <use xlink:href="#DejaVuSans-38" x="1059.96875"/>
    </g>
    <!-- 15 instances -->
    <g transform="translate(60.632064 60.954904)scale(0.102 -0.102)">
     <use xlink:href="#DejaVuSans-31"/>
     <use xlink:href="#DejaVuSans-35" x="63.623047"/>
     <use xlink:href="#DejaVuSans-20" x="127.246094"/>
     <use xlink:href="#DejaVuSans-69" x="159.033203"/>
     <use xlink:href="#DejaVuSans-6e" x="186.816406"/>
     <use xlink:href="#DejaVuSans-73" x="250.195312"/>
     <use xlink:href="#DejaVuSans-74" x="302.294922"/>
     <use xlink:href="#DejaVuSans-61" x="341.503906"/>
     <use xlink:href="#DejaVuSans-6e" x="402.783203"/>
     <use xlink:href="#DejaVuSans-63" x="466.162109"/>
     <use xlink:href="#DejaVuSans-65" x="521.142578"/>
     <use xlink:href="#DejaVuSans-73" x="582.666016"/>
    </g>
   </g>
   <g id="text_20">
    <!-- v2.6 -->
    <g style="fill: #808080" transform="translate(198.292262 294.151352)scale(0.1 -0.1)">
     <use xlink:href="#DejaVuSans-76"/>
     <use xlink:href="#DejaVuSans-32" x="59.179688"/>
     <use xlink:href="#DejaVuSans-2e" x="122.802734"/>
     <use xlink:href="#DejaVuSans-36" x="154.589844"/>
    </g>
   </g>
   <g id="text_21">
    <!-- 11 Discus -->
    <g transform="translate(160.567262 21.648)scale(0.2 -0.2)">
     <use xlink:href="#DejaVuSans-31"/>
     <use xlink:href="#DejaVuSans-31" x="63.623047"/>
     <use xlink:href="#DejaVuSans-20" x="127.246094"/>
     <use xlink:href="#DejaVuSans-44" x="159.033203"/>
     <use xlink:href="#DejaVuSans-69" x="236.035156"/>
     <use xlink:href="#DejaVuSans-73" x="263.818359"/>
     <use xlink:href="#DejaVuSans-63" x="315.917969"/>
     <use xlink:href="#DejaVuSans-75" x="370.898438"/>
     <use xlink:href="#DejaVuSans-73" x="434.277344"/>
    </g>
   </g>
  </g>
 </g>
 <defs>
  <clipPath id="p09b484d8a8">
   <rect x="57.6" y="27.648" width="303.2064" height="271.296"/>
  </clipPath>
 </defs>
</svg>
