<?xml version="1.0" encoding="utf-8" standalone="no"?>
<!DOCTYPE svg PUBLIC "-//W3C//DTD SVG 1.1//EN"
  "http://www.w3.org/Graphics/SVG/1.1/DTD/svg11.dtd">
<svg xmlns:xlink="http://www.w3.org/1999/xlink" width="460.8pt" height="345.6pt" viewBox="0 0 460.8 345.6" xmlns="http://www.w3.org/2000/svg" version="1.1">
 <metadata>
  <rdf:RDF xmlns:dc="http://purl.org/dc/elements/1.1/" xmlns:cc="http://creativecommons.org/ns#" xmlns:rdf="http://www.w3.org/1999/02/22-rdf-syntax-ns#">
   <cc:Work>
    <dc:type rdf:resource="http://purl.org/dc/dcmitype/StillImage"/>
    <dc:date>2022-03-28T13:30:21.389645</dc:date>
    <dc:format>image/svg+xml</dc:format>
    <dc:creator>
     <cc:Agent>
      <dc:title>Matplotlib v3.5.1, https://matplotlib.org/</dc:title>
     </cc:Agent>
    </dc:creator>
   </cc:Work>
  </rdf:RDF>
 </metadata>
 <defs>
  <style type="text/css">*{stroke-linejoin: round; stroke-linecap: butt}</style>
 </defs>
 <g id="figure_1">
  <g id="patch_1">
   <path d="M 0 345.6 
L 460.8 345.6 
L 460.8 0 
L 0 0 
z
" style="fill: #ffffff"/>
  </g>
  <g id="axes_1">
   <g id="patch_2">
    <path d="M 57.6 298.944 
L 360.8064 298.944 
L 360.8064 27.648 
L 57.6 27.648 
z
" style="fill: #ffffff"/>
   </g>
   <g id="line2d_1">
    <path d="M 186.912886 298.944 
L 186.912886 293.624471 
L 213.344651 293.624471 
L 213.344651 288.304941 
L 243.743116 288.304941 
L 243.743116 282.985412 
L 243.775691 282.985412 
L 243.775691 277.665882 
L 253.358902 277.665882 
L 253.358902 272.346353 
L 281.310509 272.346353 
L 281.310509 267.026824 
L 318.82327 267.026824 
L 318.82327 261.707294 
L 322.450012 261.707294 
L 322.450012 256.387765 
L 326.888427 256.387765 
L 326.888427 251.068235 
L 334.380208 251.068235 
L 334.380208 245.748706 
L 334.382877 245.748706 
L 334.382877 240.429176 
L 334.386404 240.429176 
L 334.386404 235.109647 
L 342.323187 235.109647 
L 342.323187 229.790118 
L 342.324766 229.790118 
L 342.324766 224.470588 
L 342.327831 224.470588 
L 342.327831 219.151059 
L 355.404622 219.151059 
L 355.404622 213.831529 
L 355.405626 213.831529 
L 355.405626 208.512 
L 355.406059 208.512 
L 355.406059 203.192471 
L 355.406838 203.192471 
L 355.406838 197.872941 
L 355.407547 197.872941 
L 355.407547 192.553412 
L 355.407938 192.553412 
L 355.407938 187.233882 
L 355.408416 187.233882 
L 355.408416 181.914353 
L 355.409092 181.914353 
L 355.409092 176.594824 
L 355.409557 176.594824 
L 355.409557 171.275294 
L 355.409871 171.275294 
L 355.409871 165.955765 
L 355.410688 165.955765 
L 355.410688 160.636235 
L 355.411073 160.636235 
L 355.411073 155.316706 
L 355.411833 155.316706 
L 355.411833 149.997176 
L 355.412299 149.997176 
L 355.412299 144.677647 
L 355.412604 144.677647 
L 355.412604 139.358118 
L 355.413553 139.358118 
L 355.413553 134.038588 
L 355.414107 134.038588 
L 355.414107 128.719059 
L 355.414257 128.719059 
L 355.414257 123.399529 
L 355.414997 123.399529 
L 355.414997 118.08 
L 355.415657 118.08 
L 355.415657 112.760471 
L 355.416187 112.760471 
L 355.416187 107.440941 
L 355.416876 107.440941 
L 355.416876 102.121412 
L 355.417181 102.121412 
L 355.417181 96.801882 
L 355.417922 96.801882 
L 355.417922 91.482353 
L 355.418404 91.482353 
L 355.418404 86.162824 
L 355.419037 86.162824 
L 355.419037 80.843294 
L 355.419536 80.843294 
L 355.419536 75.523765 
L 355.42029 75.523765 
L 355.42029 70.204235 
L 355.420498 70.204235 
L 355.420498 64.884706 
L 355.421217 64.884706 
L 355.421217 59.565176 
L 355.421853 59.565176 
L 355.421853 54.245647 
L 355.422255 54.245647 
L 355.422255 48.926118 
L 355.422795 48.926118 
L 355.422795 43.606588 
L 355.423407 43.606588 
L 355.423407 38.287059 
L 355.424129 38.287059 
L 355.424129 32.967529 
L 355.424599 32.967529 
L 355.424599 27.648 
L 360.8064 27.648 
" style="fill: none; stroke: #f5deb3; stroke-width: 4; stroke-linecap: square"/>
   </g>
   <g id="line2d_2">
    <defs>
     <path id="mbe2ead6512" d="M -0 7.778175 
L 7.778175 0 
L 0 -7.778175 
L -7.778175 -0 
z
" style="stroke: #f5deb3; stroke-width: 1.5; stroke-linejoin: miter"/>
    </defs>
    <g>
     <use xlink:href="#mbe2ead6512" x="281.310509" y="267.026824" style="fill: #f5deb3; stroke: #f5deb3; stroke-width: 1.5; stroke-linejoin: miter"/>
     <use xlink:href="#mbe2ead6512" x="355.414257" y="123.399529" style="fill: #f5deb3; stroke: #f5deb3; stroke-width: 1.5; stroke-linejoin: miter"/>
     <use xlink:href="#mbe2ead6512" x="355.424599" y="27.648" style="fill: #f5deb3; stroke: #f5deb3; stroke-width: 1.5; stroke-linejoin: miter"/>
     <use xlink:href="#mbe2ead6512" x="360.8064" y="27.648" style="fill: #f5deb3; stroke: #f5deb3; stroke-width: 1.5; stroke-linejoin: miter"/>
    </g>
   </g>
   <g id="line2d_3">
    <path style="fill: none; stroke: #f5deb3; stroke-width: 4; stroke-linecap: square"/>
    <g/>
   </g>
   <g id="line2d_4">
    <path d="M 360.8064 27.648 
L 380.514816 33.07392 
" style="fill: none; stroke: #f5deb3; stroke-width: 4; stroke-linecap: square"/>
    <g>
     <use xlink:href="#mbe2ead6512" x="360.8064" y="27.648" style="fill: #f5deb3; stroke: #f5deb3; stroke-width: 1.5; stroke-linejoin: miter"/>
     <use xlink:href="#mbe2ead6512" x="380.514816" y="33.07392" style="fill: #f5deb3; stroke: #f5deb3; stroke-width: 1.5; stroke-linejoin: miter"/>
    </g>
   </g>
   <g id="matplotlib.axis_1">
    <g id="xtick_1">
     <g id="line2d_5">
      <path d="M 57.6 298.944 
L 57.6 27.648 
" clip-path="url(#p6be03baab1)" style="fill: none; stroke: #b0b0b0; stroke-width: 0.8; stroke-linecap: square"/>
     </g>
     <g id="line2d_6">
      <defs>
       <path id="mddec39e18c" d="M 0 0 
L 0 3.5 
" style="stroke: #000000; stroke-width: 0.8"/>
      </defs>
      <g>
       <use xlink:href="#mddec39e18c" x="57.6" y="298.944" style="stroke: #000000; stroke-width: 0.8"/>
      </g>
     </g>
     <g id="text_1">
      <!-- 0 -->
      <g transform="translate(52.191875 318.861344)scale(0.17 -0.17)">
       <defs>
        <path id="DejaVuSans-30" d="M 2034 4250 
Q 1547 4250 1301 3770 
Q 1056 3291 1056 2328 
Q 1056 1369 1301 889 
Q 1547 409 2034 409 
Q 2525 409 2770 889 
Q 3016 1369 3016 2328 
Q 3016 3291 2770 3770 
Q 2525 4250 2034 4250 
z
M 2034 4750 
Q 2819 4750 3233 4129 
Q 3647 3509 3647 2328 
Q 3647 1150 3233 529 
Q 2819 -91 2034 -91 
Q 1250 -91 836 529 
Q 422 1150 422 2328 
Q 422 3509 836 4129 
Q 1250 4750 2034 4750 
z
" transform="scale(0.015625)"/>
       </defs>
       <use xlink:href="#DejaVuSans-30"/>
      </g>
     </g>
    </g>
    <g id="xtick_2">
     <g id="line2d_7">
      <path d="M 144.2304 298.944 
L 144.2304 27.648 
" clip-path="url(#p6be03baab1)" style="fill: none; stroke: #b0b0b0; stroke-width: 0.8; stroke-linecap: square"/>
     </g>
     <g id="line2d_8">
      <g>
       <use xlink:href="#mddec39e18c" x="144.2304" y="298.944" style="stroke: #000000; stroke-width: 0.8"/>
      </g>
     </g>
     <g id="text_2">
      <!-- 2 -->
      <g transform="translate(138.822275 318.861344)scale(0.17 -0.17)">
       <defs>
        <path id="DejaVuSans-32" d="M 1228 531 
L 3431 531 
L 3431 0 
L 469 0 
L 469 531 
Q 828 903 1448 1529 
Q 2069 2156 2228 2338 
Q 2531 2678 2651 2914 
Q 2772 3150 2772 3378 
Q 2772 3750 2511 3984 
Q 2250 4219 1831 4219 
Q 1534 4219 1204 4116 
Q 875 4013 500 3803 
L 500 4441 
Q 881 4594 1212 4672 
Q 1544 4750 1819 4750 
Q 2544 4750 2975 4387 
Q 3406 4025 3406 3419 
Q 3406 3131 3298 2873 
Q 3191 2616 2906 2266 
Q 2828 2175 2409 1742 
Q 1991 1309 1228 531 
z
" transform="scale(0.015625)"/>
       </defs>
       <use xlink:href="#DejaVuSans-32"/>
      </g>
     </g>
    </g>
    <g id="xtick_3">
     <g id="line2d_9">
      <path d="M 230.8608 298.944 
L 230.8608 27.648 
" clip-path="url(#p6be03baab1)" style="fill: none; stroke: #b0b0b0; stroke-width: 0.8; stroke-linecap: square"/>
     </g>
     <g id="line2d_10">
      <g>
       <use xlink:href="#mddec39e18c" x="230.8608" y="298.944" style="stroke: #000000; stroke-width: 0.8"/>
      </g>
     </g>
     <g id="text_3">
      <!-- 4 -->
      <g transform="translate(225.452675 318.861344)scale(0.17 -0.17)">
       <defs>
        <path id="DejaVuSans-34" d="M 2419 4116 
L 825 1625 
L 2419 1625 
L 2419 4116 
z
M 2253 4666 
L 3047 4666 
L 3047 1625 
L 3713 1625 
L 3713 1100 
L 3047 1100 
L 3047 0 
L 2419 0 
L 2419 1100 
L 313 1100 
L 313 1709 
L 2253 4666 
z
" transform="scale(0.015625)"/>
       </defs>
       <use xlink:href="#DejaVuSans-34"/>
      </g>
     </g>
    </g>
    <g id="xtick_4">
     <g id="line2d_11">
      <path d="M 317.4912 298.944 
L 317.4912 27.648 
" clip-path="url(#p6be03baab1)" style="fill: none; stroke: #b0b0b0; stroke-width: 0.8; stroke-linecap: square"/>
     </g>
     <g id="line2d_12">
      <g>
       <use xlink:href="#mddec39e18c" x="317.4912" y="298.944" style="stroke: #000000; stroke-width: 0.8"/>
      </g>
     </g>
     <g id="text_4">
      <!-- 6 -->
      <g transform="translate(312.083075 318.861344)scale(0.17 -0.17)">
       <defs>
        <path id="DejaVuSans-36" d="M 2113 2584 
Q 1688 2584 1439 2293 
Q 1191 2003 1191 1497 
Q 1191 994 1439 701 
Q 1688 409 2113 409 
Q 2538 409 2786 701 
Q 3034 994 3034 1497 
Q 3034 2003 2786 2293 
Q 2538 2584 2113 2584 
z
M 3366 4563 
L 3366 3988 
Q 3128 4100 2886 4159 
Q 2644 4219 2406 4219 
Q 1781 4219 1451 3797 
Q 1122 3375 1075 2522 
Q 1259 2794 1537 2939 
Q 1816 3084 2150 3084 
Q 2853 3084 3261 2657 
Q 3669 2231 3669 1497 
Q 3669 778 3244 343 
Q 2819 -91 2113 -91 
Q 1303 -91 875 529 
Q 447 1150 447 2328 
Q 447 3434 972 4092 
Q 1497 4750 2381 4750 
Q 2619 4750 2861 4703 
Q 3103 4656 3366 4563 
z
" transform="scale(0.015625)"/>
       </defs>
       <use xlink:href="#DejaVuSans-36"/>
      </g>
     </g>
    </g>
    <g id="xtick_5">
     <g id="line2d_13">
      <path d="M 100.9152 298.944 
L 100.9152 27.648 
" clip-path="url(#p6be03baab1)" style="fill: none; stroke: #b0b0b0; stroke-width: 0.8; stroke-linecap: square"/>
     </g>
     <g id="line2d_14">
      <defs>
       <path id="m858c5afaf2" d="M 0 0 
L 0 2 
" style="stroke: #000000; stroke-width: 0.6"/>
      </defs>
      <g>
       <use xlink:href="#m858c5afaf2" x="100.9152" y="298.944" style="stroke: #000000; stroke-width: 0.6"/>
      </g>
     </g>
    </g>
    <g id="xtick_6">
     <g id="line2d_15">
      <path d="M 187.5456 298.944 
L 187.5456 27.648 
" clip-path="url(#p6be03baab1)" style="fill: none; stroke: #b0b0b0; stroke-width: 0.8; stroke-linecap: square"/>
     </g>
     <g id="line2d_16">
      <g>
       <use xlink:href="#m858c5afaf2" x="187.5456" y="298.944" style="stroke: #000000; stroke-width: 0.6"/>
      </g>
     </g>
    </g>
    <g id="xtick_7">
     <g id="line2d_17">
      <path d="M 274.176 298.944 
L 274.176 27.648 
" clip-path="url(#p6be03baab1)" style="fill: none; stroke: #b0b0b0; stroke-width: 0.8; stroke-linecap: square"/>
     </g>
     <g id="line2d_18">
      <g>
       <use xlink:href="#m858c5afaf2" x="274.176" y="298.944" style="stroke: #000000; stroke-width: 0.6"/>
      </g>
     </g>
    </g>
    <g id="xtick_8">
     <g id="line2d_19">
      <path d="M 360.8064 298.944 
L 360.8064 27.648 
" clip-path="url(#p6be03baab1)" style="fill: none; stroke: #b0b0b0; stroke-width: 0.8; stroke-linecap: square"/>
     </g>
     <g id="line2d_20">
      <g>
       <use xlink:href="#m858c5afaf2" x="360.8064" y="298.944" style="stroke: #000000; stroke-width: 0.6"/>
      </g>
     </g>
    </g>
    <g id="text_5">
     <!-- log10(# f-evals / dimension) -->
     <g transform="translate(88.823278 339.314156)scale(0.17 -0.17)">
      <defs>
       <path id="DejaVuSans-6c" d="M 603 4863 
L 1178 4863 
L 1178 0 
L 603 0 
L 603 4863 
z
" transform="scale(0.015625)"/>
       <path id="DejaVuSans-6f" d="M 1959 3097 
Q 1497 3097 1228 2736 
Q 959 2375 959 1747 
Q 959 1119 1226 758 
Q 1494 397 1959 397 
Q 2419 397 2687 759 
Q 2956 1122 2956 1747 
Q 2956 2369 2687 2733 
Q 2419 3097 1959 3097 
z
M 1959 3584 
Q 2709 3584 3137 3096 
Q 3566 2609 3566 1747 
Q 3566 888 3137 398 
Q 2709 -91 1959 -91 
Q 1206 -91 779 398 
Q 353 888 353 1747 
Q 353 2609 779 3096 
Q 1206 3584 1959 3584 
z
" transform="scale(0.015625)"/>
       <path id="DejaVuSans-67" d="M 2906 1791 
Q 2906 2416 2648 2759 
Q 2391 3103 1925 3103 
Q 1463 3103 1205 2759 
Q 947 2416 947 1791 
Q 947 1169 1205 825 
Q 1463 481 1925 481 
Q 2391 481 2648 825 
Q 2906 1169 2906 1791 
z
M 3481 434 
Q 3481 -459 3084 -895 
Q 2688 -1331 1869 -1331 
Q 1566 -1331 1297 -1286 
Q 1028 -1241 775 -1147 
L 775 -588 
Q 1028 -725 1275 -790 
Q 1522 -856 1778 -856 
Q 2344 -856 2625 -561 
Q 2906 -266 2906 331 
L 2906 616 
Q 2728 306 2450 153 
Q 2172 0 1784 0 
Q 1141 0 747 490 
Q 353 981 353 1791 
Q 353 2603 747 3093 
Q 1141 3584 1784 3584 
Q 2172 3584 2450 3431 
Q 2728 3278 2906 2969 
L 2906 3500 
L 3481 3500 
L 3481 434 
z
" transform="scale(0.015625)"/>
       <path id="DejaVuSans-31" d="M 794 531 
L 1825 531 
L 1825 4091 
L 703 3866 
L 703 4441 
L 1819 4666 
L 2450 4666 
L 2450 531 
L 3481 531 
L 3481 0 
L 794 0 
L 794 531 
z
" transform="scale(0.015625)"/>
       <path id="DejaVuSans-28" d="M 1984 4856 
Q 1566 4138 1362 3434 
Q 1159 2731 1159 2009 
Q 1159 1288 1364 580 
Q 1569 -128 1984 -844 
L 1484 -844 
Q 1016 -109 783 600 
Q 550 1309 550 2009 
Q 550 2706 781 3412 
Q 1013 4119 1484 4856 
L 1984 4856 
z
" transform="scale(0.015625)"/>
       <path id="DejaVuSans-23" d="M 3272 2816 
L 2363 2816 
L 2100 1772 
L 3016 1772 
L 3272 2816 
z
M 2803 4594 
L 2478 3297 
L 3391 3297 
L 3719 4594 
L 4219 4594 
L 3897 3297 
L 4872 3297 
L 4872 2816 
L 3775 2816 
L 3519 1772 
L 4513 1772 
L 4513 1294 
L 3397 1294 
L 3072 0 
L 2572 0 
L 2894 1294 
L 1978 1294 
L 1656 0 
L 1153 0 
L 1478 1294 
L 494 1294 
L 494 1772 
L 1594 1772 
L 1856 2816 
L 850 2816 
L 850 3297 
L 1978 3297 
L 2297 4594 
L 2803 4594 
z
" transform="scale(0.015625)"/>
       <path id="DejaVuSans-20" transform="scale(0.015625)"/>
       <path id="DejaVuSans-66" d="M 2375 4863 
L 2375 4384 
L 1825 4384 
Q 1516 4384 1395 4259 
Q 1275 4134 1275 3809 
L 1275 3500 
L 2222 3500 
L 2222 3053 
L 1275 3053 
L 1275 0 
L 697 0 
L 697 3053 
L 147 3053 
L 147 3500 
L 697 3500 
L 697 3744 
Q 697 4328 969 4595 
Q 1241 4863 1831 4863 
L 2375 4863 
z
" transform="scale(0.015625)"/>
       <path id="DejaVuSans-2d" d="M 313 2009 
L 1997 2009 
L 1997 1497 
L 313 1497 
L 313 2009 
z
" transform="scale(0.015625)"/>
       <path id="DejaVuSans-65" d="M 3597 1894 
L 3597 1613 
L 953 1613 
Q 991 1019 1311 708 
Q 1631 397 2203 397 
Q 2534 397 2845 478 
Q 3156 559 3463 722 
L 3463 178 
Q 3153 47 2828 -22 
Q 2503 -91 2169 -91 
Q 1331 -91 842 396 
Q 353 884 353 1716 
Q 353 2575 817 3079 
Q 1281 3584 2069 3584 
Q 2775 3584 3186 3129 
Q 3597 2675 3597 1894 
z
M 3022 2063 
Q 3016 2534 2758 2815 
Q 2500 3097 2075 3097 
Q 1594 3097 1305 2825 
Q 1016 2553 972 2059 
L 3022 2063 
z
" transform="scale(0.015625)"/>
       <path id="DejaVuSans-76" d="M 191 3500 
L 800 3500 
L 1894 563 
L 2988 3500 
L 3597 3500 
L 2284 0 
L 1503 0 
L 191 3500 
z
" transform="scale(0.015625)"/>
       <path id="DejaVuSans-61" d="M 2194 1759 
Q 1497 1759 1228 1600 
Q 959 1441 959 1056 
Q 959 750 1161 570 
Q 1363 391 1709 391 
Q 2188 391 2477 730 
Q 2766 1069 2766 1631 
L 2766 1759 
L 2194 1759 
z
M 3341 1997 
L 3341 0 
L 2766 0 
L 2766 531 
Q 2569 213 2275 61 
Q 1981 -91 1556 -91 
Q 1019 -91 701 211 
Q 384 513 384 1019 
Q 384 1609 779 1909 
Q 1175 2209 1959 2209 
L 2766 2209 
L 2766 2266 
Q 2766 2663 2505 2880 
Q 2244 3097 1772 3097 
Q 1472 3097 1187 3025 
Q 903 2953 641 2809 
L 641 3341 
Q 956 3463 1253 3523 
Q 1550 3584 1831 3584 
Q 2591 3584 2966 3190 
Q 3341 2797 3341 1997 
z
" transform="scale(0.015625)"/>
       <path id="DejaVuSans-73" d="M 2834 3397 
L 2834 2853 
Q 2591 2978 2328 3040 
Q 2066 3103 1784 3103 
Q 1356 3103 1142 2972 
Q 928 2841 928 2578 
Q 928 2378 1081 2264 
Q 1234 2150 1697 2047 
L 1894 2003 
Q 2506 1872 2764 1633 
Q 3022 1394 3022 966 
Q 3022 478 2636 193 
Q 2250 -91 1575 -91 
Q 1294 -91 989 -36 
Q 684 19 347 128 
L 347 722 
Q 666 556 975 473 
Q 1284 391 1588 391 
Q 1994 391 2212 530 
Q 2431 669 2431 922 
Q 2431 1156 2273 1281 
Q 2116 1406 1581 1522 
L 1381 1569 
Q 847 1681 609 1914 
Q 372 2147 372 2553 
Q 372 3047 722 3315 
Q 1072 3584 1716 3584 
Q 2034 3584 2315 3537 
Q 2597 3491 2834 3397 
z
" transform="scale(0.015625)"/>
       <path id="DejaVuSans-2f" d="M 1625 4666 
L 2156 4666 
L 531 -594 
L 0 -594 
L 1625 4666 
z
" transform="scale(0.015625)"/>
       <path id="DejaVuSans-64" d="M 2906 2969 
L 2906 4863 
L 3481 4863 
L 3481 0 
L 2906 0 
L 2906 525 
Q 2725 213 2448 61 
Q 2172 -91 1784 -91 
Q 1150 -91 751 415 
Q 353 922 353 1747 
Q 353 2572 751 3078 
Q 1150 3584 1784 3584 
Q 2172 3584 2448 3432 
Q 2725 3281 2906 2969 
z
M 947 1747 
Q 947 1113 1208 752 
Q 1469 391 1925 391 
Q 2381 391 2643 752 
Q 2906 1113 2906 1747 
Q 2906 2381 2643 2742 
Q 2381 3103 1925 3103 
Q 1469 3103 1208 2742 
Q 947 2381 947 1747 
z
" transform="scale(0.015625)"/>
       <path id="DejaVuSans-69" d="M 603 3500 
L 1178 3500 
L 1178 0 
L 603 0 
L 603 3500 
z
M 603 4863 
L 1178 4863 
L 1178 4134 
L 603 4134 
L 603 4863 
z
" transform="scale(0.015625)"/>
       <path id="DejaVuSans-6d" d="M 3328 2828 
Q 3544 3216 3844 3400 
Q 4144 3584 4550 3584 
Q 5097 3584 5394 3201 
Q 5691 2819 5691 2113 
L 5691 0 
L 5113 0 
L 5113 2094 
Q 5113 2597 4934 2840 
Q 4756 3084 4391 3084 
Q 3944 3084 3684 2787 
Q 3425 2491 3425 1978 
L 3425 0 
L 2847 0 
L 2847 2094 
Q 2847 2600 2669 2842 
Q 2491 3084 2119 3084 
Q 1678 3084 1418 2786 
Q 1159 2488 1159 1978 
L 1159 0 
L 581 0 
L 581 3500 
L 1159 3500 
L 1159 2956 
Q 1356 3278 1631 3431 
Q 1906 3584 2284 3584 
Q 2666 3584 2933 3390 
Q 3200 3197 3328 2828 
z
" transform="scale(0.015625)"/>
       <path id="DejaVuSans-6e" d="M 3513 2113 
L 3513 0 
L 2938 0 
L 2938 2094 
Q 2938 2591 2744 2837 
Q 2550 3084 2163 3084 
Q 1697 3084 1428 2787 
Q 1159 2491 1159 1978 
L 1159 0 
L 581 0 
L 581 3500 
L 1159 3500 
L 1159 2956 
Q 1366 3272 1645 3428 
Q 1925 3584 2291 3584 
Q 2894 3584 3203 3211 
Q 3513 2838 3513 2113 
z
" transform="scale(0.015625)"/>
       <path id="DejaVuSans-29" d="M 513 4856 
L 1013 4856 
Q 1481 4119 1714 3412 
Q 1947 2706 1947 2009 
Q 1947 1309 1714 600 
Q 1481 -109 1013 -844 
L 513 -844 
Q 928 -128 1133 580 
Q 1338 1288 1338 2009 
Q 1338 2731 1133 3434 
Q 928 4138 513 4856 
z
" transform="scale(0.015625)"/>
      </defs>
      <use xlink:href="#DejaVuSans-6c"/>
      <use xlink:href="#DejaVuSans-6f" x="27.783203"/>
      <use xlink:href="#DejaVuSans-67" x="88.964844"/>
      <use xlink:href="#DejaVuSans-31" x="152.441406"/>
      <use xlink:href="#DejaVuSans-30" x="216.064453"/>
      <use xlink:href="#DejaVuSans-28" x="279.6875"/>
      <use xlink:href="#DejaVuSans-23" x="318.701172"/>
      <use xlink:href="#DejaVuSans-20" x="402.490234"/>
      <use xlink:href="#DejaVuSans-66" x="434.277344"/>
      <use xlink:href="#DejaVuSans-2d" x="463.982422"/>
      <use xlink:href="#DejaVuSans-65" x="500.066406"/>
      <use xlink:href="#DejaVuSans-76" x="561.589844"/>
      <use xlink:href="#DejaVuSans-61" x="620.769531"/>
      <use xlink:href="#DejaVuSans-6c" x="682.048828"/>
      <use xlink:href="#DejaVuSans-73" x="709.832031"/>
      <use xlink:href="#DejaVuSans-20" x="761.931641"/>
      <use xlink:href="#DejaVuSans-2f" x="793.71875"/>
      <use xlink:href="#DejaVuSans-20" x="827.410156"/>
      <use xlink:href="#DejaVuSans-64" x="859.197266"/>
      <use xlink:href="#DejaVuSans-69" x="922.673828"/>
      <use xlink:href="#DejaVuSans-6d" x="950.457031"/>
      <use xlink:href="#DejaVuSans-65" x="1047.869141"/>
      <use xlink:href="#DejaVuSans-6e" x="1109.392578"/>
      <use xlink:href="#DejaVuSans-73" x="1172.771484"/>
      <use xlink:href="#DejaVuSans-69" x="1224.871094"/>
      <use xlink:href="#DejaVuSans-6f" x="1252.654297"/>
      <use xlink:href="#DejaVuSans-6e" x="1313.835938"/>
      <use xlink:href="#DejaVuSans-29" x="1377.214844"/>
     </g>
    </g>
   </g>
   <g id="matplotlib.axis_2">
    <g id="ytick_1">
     <g id="line2d_21">
      <path d="M 57.6 298.944 
L 360.8064 298.944 
" clip-path="url(#p6be03baab1)" style="fill: none; stroke: #b0b0b0; stroke-width: 0.8; stroke-linecap: square"/>
     </g>
     <g id="line2d_22">
      <defs>
       <path id="m20f5098599" d="M 0 0 
L -3.5 0 
" style="stroke: #000000; stroke-width: 0.8"/>
      </defs>
      <g>
       <use xlink:href="#m20f5098599" x="57.6" y="298.944" style="stroke: #000000; stroke-width: 0.8"/>
      </g>
     </g>
     <g id="text_6">
      <!-- 0.0 -->
      <g transform="translate(25.155 305.02275)scale(0.16 -0.16)">
       <defs>
        <path id="DejaVuSans-2e" d="M 684 794 
L 1344 794 
L 1344 0 
L 684 0 
L 684 794 
z
" transform="scale(0.015625)"/>
       </defs>
       <use xlink:href="#DejaVuSans-30"/>
       <use xlink:href="#DejaVuSans-2e" x="63.623047"/>
       <use xlink:href="#DejaVuSans-30" x="95.410156"/>
      </g>
     </g>
    </g>
    <g id="ytick_2">
     <g id="line2d_23">
      <path d="M 57.6 244.6848 
L 360.8064 244.6848 
" clip-path="url(#p6be03baab1)" style="fill: none; stroke: #b0b0b0; stroke-width: 0.8; stroke-linecap: square"/>
     </g>
     <g id="line2d_24">
      <g>
       <use xlink:href="#m20f5098599" x="57.6" y="244.6848" style="stroke: #000000; stroke-width: 0.8"/>
      </g>
     </g>
     <g id="text_7">
      <!-- 0.2 -->
      <g transform="translate(25.155 250.76355)scale(0.16 -0.16)">
       <use xlink:href="#DejaVuSans-30"/>
       <use xlink:href="#DejaVuSans-2e" x="63.623047"/>
       <use xlink:href="#DejaVuSans-32" x="95.410156"/>
      </g>
     </g>
    </g>
    <g id="ytick_3">
     <g id="line2d_25">
      <path d="M 57.6 190.4256 
L 360.8064 190.4256 
" clip-path="url(#p6be03baab1)" style="fill: none; stroke: #b0b0b0; stroke-width: 0.8; stroke-linecap: square"/>
     </g>
     <g id="line2d_26">
      <g>
       <use xlink:href="#m20f5098599" x="57.6" y="190.4256" style="stroke: #000000; stroke-width: 0.8"/>
      </g>
     </g>
     <g id="text_8">
      <!-- 0.4 -->
      <g transform="translate(25.155 196.50435)scale(0.16 -0.16)">
       <use xlink:href="#DejaVuSans-30"/>
       <use xlink:href="#DejaVuSans-2e" x="63.623047"/>
       <use xlink:href="#DejaVuSans-34" x="95.410156"/>
      </g>
     </g>
    </g>
    <g id="ytick_4">
     <g id="line2d_27">
      <path d="M 57.6 136.1664 
L 360.8064 136.1664 
" clip-path="url(#p6be03baab1)" style="fill: none; stroke: #b0b0b0; stroke-width: 0.8; stroke-linecap: square"/>
     </g>
     <g id="line2d_28">
      <g>
       <use xlink:href="#m20f5098599" x="57.6" y="136.1664" style="stroke: #000000; stroke-width: 0.8"/>
      </g>
     </g>
     <g id="text_9">
      <!-- 0.6 -->
      <g transform="translate(25.155 142.24515)scale(0.16 -0.16)">
       <use xlink:href="#DejaVuSans-30"/>
       <use xlink:href="#DejaVuSans-2e" x="63.623047"/>
       <use xlink:href="#DejaVuSans-36" x="95.410156"/>
      </g>
     </g>
    </g>
    <g id="ytick_5">
     <g id="line2d_29">
      <path d="M 57.6 81.9072 
L 360.8064 81.9072 
" clip-path="url(#p6be03baab1)" style="fill: none; stroke: #b0b0b0; stroke-width: 0.8; stroke-linecap: square"/>
     </g>
     <g id="line2d_30">
      <g>
       <use xlink:href="#m20f5098599" x="57.6" y="81.9072" style="stroke: #000000; stroke-width: 0.8"/>
      </g>
     </g>
     <g id="text_10">
      <!-- 0.8 -->
      <g transform="translate(25.155 87.98595)scale(0.16 -0.16)">
       <defs>
        <path id="DejaVuSans-38" d="M 2034 2216 
Q 1584 2216 1326 1975 
Q 1069 1734 1069 1313 
Q 1069 891 1326 650 
Q 1584 409 2034 409 
Q 2484 409 2743 651 
Q 3003 894 3003 1313 
Q 3003 1734 2745 1975 
Q 2488 2216 2034 2216 
z
M 1403 2484 
Q 997 2584 770 2862 
Q 544 3141 544 3541 
Q 544 4100 942 4425 
Q 1341 4750 2034 4750 
Q 2731 4750 3128 4425 
Q 3525 4100 3525 3541 
Q 3525 3141 3298 2862 
Q 3072 2584 2669 2484 
Q 3125 2378 3379 2068 
Q 3634 1759 3634 1313 
Q 3634 634 3220 271 
Q 2806 -91 2034 -91 
Q 1263 -91 848 271 
Q 434 634 434 1313 
Q 434 1759 690 2068 
Q 947 2378 1403 2484 
z
M 1172 3481 
Q 1172 3119 1398 2916 
Q 1625 2713 2034 2713 
Q 2441 2713 2670 2916 
Q 2900 3119 2900 3481 
Q 2900 3844 2670 4047 
Q 2441 4250 2034 4250 
Q 1625 4250 1398 4047 
Q 1172 3844 1172 3481 
z
" transform="scale(0.015625)"/>
       </defs>
       <use xlink:href="#DejaVuSans-30"/>
       <use xlink:href="#DejaVuSans-2e" x="63.623047"/>
       <use xlink:href="#DejaVuSans-38" x="95.410156"/>
      </g>
     </g>
    </g>
    <g id="ytick_6">
     <g id="line2d_31">
      <path d="M 57.6 27.648 
L 360.8064 27.648 
" clip-path="url(#p6be03baab1)" style="fill: none; stroke: #b0b0b0; stroke-width: 0.8; stroke-linecap: square"/>
     </g>
     <g id="line2d_32">
      <g>
       <use xlink:href="#m20f5098599" x="57.6" y="27.648" style="stroke: #000000; stroke-width: 0.8"/>
      </g>
     </g>
     <g id="text_11">
      <!-- 1.0 -->
      <g transform="translate(25.155 33.72675)scale(0.16 -0.16)">
       <use xlink:href="#DejaVuSans-31"/>
       <use xlink:href="#DejaVuSans-2e" x="63.623047"/>
       <use xlink:href="#DejaVuSans-30" x="95.410156"/>
      </g>
     </g>
    </g>
    <g id="text_12">
     <!-- Fraction of function,target pairs -->
     <g transform="translate(17.619531 297.681)rotate(-90)scale(0.17 -0.17)">
      <defs>
       <path id="DejaVuSans-46" d="M 628 4666 
L 3309 4666 
L 3309 4134 
L 1259 4134 
L 1259 2759 
L 3109 2759 
L 3109 2228 
L 1259 2228 
L 1259 0 
L 628 0 
L 628 4666 
z
" transform="scale(0.015625)"/>
       <path id="DejaVuSans-72" d="M 2631 2963 
Q 2534 3019 2420 3045 
Q 2306 3072 2169 3072 
Q 1681 3072 1420 2755 
Q 1159 2438 1159 1844 
L 1159 0 
L 581 0 
L 581 3500 
L 1159 3500 
L 1159 2956 
Q 1341 3275 1631 3429 
Q 1922 3584 2338 3584 
Q 2397 3584 2469 3576 
Q 2541 3569 2628 3553 
L 2631 2963 
z
" transform="scale(0.015625)"/>
       <path id="DejaVuSans-63" d="M 3122 3366 
L 3122 2828 
Q 2878 2963 2633 3030 
Q 2388 3097 2138 3097 
Q 1578 3097 1268 2742 
Q 959 2388 959 1747 
Q 959 1106 1268 751 
Q 1578 397 2138 397 
Q 2388 397 2633 464 
Q 2878 531 3122 666 
L 3122 134 
Q 2881 22 2623 -34 
Q 2366 -91 2075 -91 
Q 1284 -91 818 406 
Q 353 903 353 1747 
Q 353 2603 823 3093 
Q 1294 3584 2113 3584 
Q 2378 3584 2631 3529 
Q 2884 3475 3122 3366 
z
" transform="scale(0.015625)"/>
       <path id="DejaVuSans-74" d="M 1172 4494 
L 1172 3500 
L 2356 3500 
L 2356 3053 
L 1172 3053 
L 1172 1153 
Q 1172 725 1289 603 
Q 1406 481 1766 481 
L 2356 481 
L 2356 0 
L 1766 0 
Q 1100 0 847 248 
Q 594 497 594 1153 
L 594 3053 
L 172 3053 
L 172 3500 
L 594 3500 
L 594 4494 
L 1172 4494 
z
" transform="scale(0.015625)"/>
       <path id="DejaVuSans-75" d="M 544 1381 
L 544 3500 
L 1119 3500 
L 1119 1403 
Q 1119 906 1312 657 
Q 1506 409 1894 409 
Q 2359 409 2629 706 
Q 2900 1003 2900 1516 
L 2900 3500 
L 3475 3500 
L 3475 0 
L 2900 0 
L 2900 538 
Q 2691 219 2414 64 
Q 2138 -91 1772 -91 
Q 1169 -91 856 284 
Q 544 659 544 1381 
z
M 1991 3584 
L 1991 3584 
z
" transform="scale(0.015625)"/>
       <path id="DejaVuSans-2c" d="M 750 794 
L 1409 794 
L 1409 256 
L 897 -744 
L 494 -744 
L 750 256 
L 750 794 
z
" transform="scale(0.015625)"/>
       <path id="DejaVuSans-70" d="M 1159 525 
L 1159 -1331 
L 581 -1331 
L 581 3500 
L 1159 3500 
L 1159 2969 
Q 1341 3281 1617 3432 
Q 1894 3584 2278 3584 
Q 2916 3584 3314 3078 
Q 3713 2572 3713 1747 
Q 3713 922 3314 415 
Q 2916 -91 2278 -91 
Q 1894 -91 1617 61 
Q 1341 213 1159 525 
z
M 3116 1747 
Q 3116 2381 2855 2742 
Q 2594 3103 2138 3103 
Q 1681 3103 1420 2742 
Q 1159 2381 1159 1747 
Q 1159 1113 1420 752 
Q 1681 391 2138 391 
Q 2594 391 2855 752 
Q 3116 1113 3116 1747 
z
" transform="scale(0.015625)"/>
      </defs>
      <use xlink:href="#DejaVuSans-46"/>
      <use xlink:href="#DejaVuSans-72" x="50.269531"/>
      <use xlink:href="#DejaVuSans-61" x="91.382812"/>
      <use xlink:href="#DejaVuSans-63" x="152.662109"/>
      <use xlink:href="#DejaVuSans-74" x="207.642578"/>
      <use xlink:href="#DejaVuSans-69" x="246.851562"/>
      <use xlink:href="#DejaVuSans-6f" x="274.634766"/>
      <use xlink:href="#DejaVuSans-6e" x="335.816406"/>
      <use xlink:href="#DejaVuSans-20" x="399.195312"/>
      <use xlink:href="#DejaVuSans-6f" x="430.982422"/>
      <use xlink:href="#DejaVuSans-66" x="492.164062"/>
      <use xlink:href="#DejaVuSans-20" x="527.369141"/>
      <use xlink:href="#DejaVuSans-66" x="559.15625"/>
      <use xlink:href="#DejaVuSans-75" x="594.361328"/>
      <use xlink:href="#DejaVuSans-6e" x="657.740234"/>
      <use xlink:href="#DejaVuSans-63" x="721.119141"/>
      <use xlink:href="#DejaVuSans-74" x="776.099609"/>
      <use xlink:href="#DejaVuSans-69" x="815.308594"/>
      <use xlink:href="#DejaVuSans-6f" x="843.091797"/>
      <use xlink:href="#DejaVuSans-6e" x="904.273438"/>
      <use xlink:href="#DejaVuSans-2c" x="967.652344"/>
      <use xlink:href="#DejaVuSans-74" x="999.439453"/>
      <use xlink:href="#DejaVuSans-61" x="1038.648438"/>
      <use xlink:href="#DejaVuSans-72" x="1099.927734"/>
      <use xlink:href="#DejaVuSans-67" x="1139.291016"/>
      <use xlink:href="#DejaVuSans-65" x="1202.767578"/>
      <use xlink:href="#DejaVuSans-74" x="1264.291016"/>
      <use xlink:href="#DejaVuSans-20" x="1303.5"/>
      <use xlink:href="#DejaVuSans-70" x="1335.287109"/>
      <use xlink:href="#DejaVuSans-61" x="1398.763672"/>
      <use xlink:href="#DejaVuSans-69" x="1460.042969"/>
      <use xlink:href="#DejaVuSans-72" x="1487.826172"/>
      <use xlink:href="#DejaVuSans-73" x="1528.939453"/>
     </g>
    </g>
   </g>
   <g id="line2d_33">
    <defs>
     <path id="m00a5835267" d="M 0 1.5 
C 0.397805 1.5 0.77937 1.341951 1.06066 1.06066 
C 1.341951 0.77937 1.5 0.397805 1.5 0 
C 1.5 -0.397805 1.341951 -0.77937 1.06066 -1.06066 
C 0.77937 -1.341951 0.397805 -1.5 0 -1.5 
C -0.397805 -1.5 -0.77937 -1.341951 -1.06066 -1.06066 
C -1.341951 -0.77937 -1.5 -0.397805 -1.5 0 
C -1.5 0.397805 -1.341951 0.77937 -1.06066 1.06066 
C -0.77937 1.341951 -0.397805 1.5 0 1.5 
z
" style="stroke: #f5deb3"/>
    </defs>
    <g>
     <use xlink:href="#m00a5835267" x="355.424599" y="27.648" style="fill: #f5deb3; stroke: #f5deb3"/>
     <use xlink:href="#m00a5835267" x="355.424599" y="27.648" style="fill: #f5deb3; stroke: #f5deb3"/>
    </g>
   </g>
   <g id="line2d_34">
    <defs>
     <path id="m6f36744c85" d="M 0 1.5 
C 0.397805 1.5 0.77937 1.341951 1.06066 1.06066 
C 1.341951 0.77937 1.5 0.397805 1.5 0 
C 1.5 -0.397805 1.341951 -0.77937 1.06066 -1.06066 
C 0.77937 -1.341951 0.397805 -1.5 0 -1.5 
C -0.397805 -1.5 -0.77937 -1.341951 -1.06066 -1.06066 
C -1.341951 -0.77937 -1.5 -0.397805 -1.5 0 
C -1.5 0.397805 -1.341951 0.77937 -1.06066 1.06066 
C -0.77937 1.341951 -0.397805 1.5 0 1.5 
z
" style="stroke: #000080"/>
    </defs>
    <g>
     <use xlink:href="#m6f36744c85" x="378.636805" y="251.068235" style="fill: #000080; stroke: #000080"/>
     <use xlink:href="#m6f36744c85" x="378.636805" y="251.068235" style="fill: #000080; stroke: #000080"/>
    </g>
   </g>
   <g id="line2d_35">
    <path d="M 165.905673 298.944 
L 165.905673 298.589365 
L 166.685659 298.589365 
L 166.685659 298.234729 
L 167.859863 298.234729 
L 167.859863 297.880094 
L 170.030405 297.880094 
L 170.030405 297.525459 
L 172.595363 297.525459 
L 172.595363 297.170824 
L 175.462724 297.170824 
L 175.462724 296.816188 
L 176.086961 296.816188 
L 176.086961 296.461553 
L 176.904321 296.461553 
L 176.904321 296.106918 
L 195.419716 296.106918 
L 195.419716 295.752282 
L 195.744289 295.752282 
L 195.744289 295.397647 
L 196.141242 295.397647 
L 196.141242 295.043012 
L 196.395032 295.043012 
L 196.395032 294.688376 
L 196.569622 294.688376 
L 196.569622 294.333741 
L 196.733663 294.333741 
L 196.795602 293.624471 
L 196.909727 293.624471 
L 196.909727 293.269835 
L 197.892192 293.269835 
L 197.958821 292.205929 
L 198.196323 292.205929 
L 198.196323 291.851294 
L 198.778575 291.851294 
L 198.778575 291.496659 
L 200.160048 291.496659 
L 200.160048 291.142024 
L 200.624472 291.142024 
L 200.624472 290.787388 
L 202.007694 290.787388 
L 202.007694 290.432753 
L 206.358489 290.432753 
L 206.358489 290.078118 
L 207.52396 290.078118 
L 207.527049 289.368847 
L 207.691185 289.368847 
L 207.691185 289.014212 
L 208.097889 289.014212 
L 208.097889 288.659576 
L 209.454175 288.659576 
L 209.454175 288.304941 
L 209.652119 288.304941 
L 209.652119 287.950306 
L 210.016248 287.950306 
L 210.061059 287.241035 
L 210.183848 287.241035 
L 210.213469 286.531765 
L 210.343251 286.531765 
L 210.343251 286.177129 
L 210.534459 286.177129 
L 210.534459 285.822494 
L 211.398844 285.822494 
L 211.398844 285.467859 
L 211.941585 285.467859 
L 212.01793 284.758588 
L 214.355306 284.758588 
L 214.355306 284.403953 
L 215.075298 284.403953 
L 215.075298 284.049318 
L 216.704524 284.049318 
L 216.704524 283.694682 
L 216.861669 283.694682 
L 216.861669 283.340047 
L 216.989613 283.340047 
L 216.989613 282.985412 
L 225.226836 282.985412 
L 225.297324 282.276141 
L 225.443911 282.276141 
L 225.443911 281.921506 
L 292.528026 281.921506 
L 292.545974 280.8576 
L 292.640027 280.8576 
L 292.644336 280.148329 
L 293.021307 280.148329 
L 293.021307 279.793694 
L 293.178382 279.793694 
L 293.201615 278.375153 
L 293.96702 278.375153 
L 293.992736 276.956612 
L 294.583889 276.956612 
L 294.667655 274.474165 
L 304.527747 274.474165 
L 304.613916 272.700988 
L 304.731455 272.700988 
L 304.737025 271.991718 
L 312.469383 271.991718 
L 312.469383 271.637082 
L 312.689837 271.637082 
L 312.689837 271.282447 
L 312.975037 271.282447 
L 312.982828 269.863906 
L 313.23129 269.863906 
L 313.23129 269.509271 
L 317.55975 269.509271 
L 317.630361 268.8 
L 321.92093 268.8 
L 321.92093 268.445365 
L 322.059011 268.445365 
L 322.06281 267.381459 
L 322.236625 267.381459 
L 322.236625 267.026824 
L 322.376489 267.026824 
L 322.382666 265.608282 
L 325.215741 265.608282 
L 325.215993 264.899012 
L 328.282806 264.899012 
L 328.282806 264.544376 
L 328.518589 264.544376 
L 328.522437 263.480471 
L 332.879281 263.480471 
L 332.956714 262.061929 
L 333.051628 262.061929 
L 333.13832 260.288753 
L 336.841739 260.288753 
L 336.842999 259.579482 
L 339.809185 259.579482 
L 339.880041 258.515576 
L 339.935642 258.515576 
L 339.937534 257.806306 
L 342.593804 257.806306 
L 342.594403 257.097035 
L 344.823167 257.097035 
L 344.919779 255.678494 
L 346.990582 255.678494 
L 346.991881 254.969224 
L 348.819187 254.969224 
L 348.856188 254.259953 
L 352.110918 254.259953 
L 352.110918 253.905318 
L 353.518009 253.905318 
L 353.518009 253.550682 
L 358.398529 253.550682 
L 358.398551 252.841412 
L 360.8064 252.841412 
L 360.8064 252.841412 
" style="fill: none; stroke: #000080; stroke-width: 1.5; stroke-linecap: square"/>
   </g>
   <g id="line2d_36">
    <defs>
     <path id="m4f83e0c766" d="M 0 6 
C 1.591219 6 3.117479 5.367802 4.242641 4.242641 
C 5.367802 3.117479 6 1.591219 6 0 
C 6 -1.591219 5.367802 -3.117479 4.242641 -4.242641 
C 3.117479 -5.367802 1.591219 -6 0 -6 
C -1.591219 -6 -3.117479 -5.367802 -4.242641 -4.242641 
C -5.367802 -3.117479 -6 -1.591219 -6 0 
C -6 1.591219 -5.367802 3.117479 -4.242641 4.242641 
C -3.117479 5.367802 -1.591219 6 0 6 
z
" style="stroke: #000080; stroke-width: 1.5"/>
    </defs>
    <g>
     <use xlink:href="#m4f83e0c766" x="225.443911" y="281.921506" style="fill-opacity: 0; stroke: #000080; stroke-width: 1.5"/>
     <use xlink:href="#m4f83e0c766" x="328.522437" y="263.480471" style="fill-opacity: 0; stroke: #000080; stroke-width: 1.5"/>
     <use xlink:href="#m4f83e0c766" x="358.398551" y="252.841412" style="fill-opacity: 0; stroke: #000080; stroke-width: 1.5"/>
     <use xlink:href="#m4f83e0c766" x="360.8064" y="252.841412" style="fill-opacity: 0; stroke: #000080; stroke-width: 1.5"/>
    </g>
   </g>
   <g id="line2d_37">
    <path style="fill: none; stroke: #000080; stroke-width: 1.5; stroke-linecap: square"/>
    <g/>
   </g>
   <g id="line2d_38">
    <path d="M 304.4554 274.474165 
" clip-path="url(#p6be03baab1)" style="fill: none; stroke: #000080; stroke-width: 1.5; stroke-linecap: square"/>
    <defs>
     <path id="m78575fb551" d="M -12 12 
L 12 -12 
M -12 -12 
L 12 12 
" style="stroke: #000080"/>
    </defs>
    <g clip-path="url(#p6be03baab1)">
     <use xlink:href="#m78575fb551" x="304.4554" y="274.474165" style="fill: #000080; stroke: #000080"/>
    </g>
   </g>
   <g id="line2d_39">
    <defs>
     <path id="me271978985" d="M 0 1.5 
C 0.397805 1.5 0.77937 1.341951 1.06066 1.06066 
C 1.341951 0.77937 1.5 0.397805 1.5 0 
C 1.5 -0.397805 1.341951 -0.77937 1.06066 -1.06066 
C 0.77937 -1.341951 0.397805 -1.5 0 -1.5 
C -0.397805 -1.5 -0.77937 -1.341951 -1.06066 -1.06066 
C -1.341951 -0.77937 -1.5 -0.397805 -1.5 0 
C -1.5 0.397805 -1.341951 0.77937 -1.06066 1.06066 
C -0.77937 1.341951 -0.397805 1.5 0 1.5 
z
" style="stroke: #ff00ff"/>
    </defs>
    <g>
     <use xlink:href="#me271978985" x="392.512669" y="27.648" style="fill: #ff00ff; stroke: #ff00ff"/>
     <use xlink:href="#me271978985" x="392.512669" y="27.648" style="fill: #ff00ff; stroke: #ff00ff"/>
    </g>
   </g>
   <g id="line2d_40">
    <path d="M 155.350181 298.944 
L 155.350181 298.589365 
L 157.438121 298.589365 
L 157.438121 298.234729 
L 160.35923 298.234729 
L 160.35923 297.880094 
L 163.861006 297.880094 
L 163.923844 297.170824 
L 165.211028 297.170824 
L 165.211028 296.816188 
L 166.263299 296.816188 
L 166.263299 296.461553 
L 170.092352 296.461553 
L 170.092352 296.106918 
L 170.265197 296.106918 
L 170.265197 295.752282 
L 188.166371 295.752282 
L 188.166371 295.397647 
L 188.594196 295.397647 
L 188.594196 295.043012 
L 189.513434 295.043012 
L 189.513434 294.688376 
L 189.800953 294.688376 
L 189.800953 294.333741 
L 191.503983 294.333741 
L 191.503983 293.979106 
L 191.839346 293.979106 
L 191.839346 293.624471 
L 192.161109 293.624471 
L 192.161109 293.269835 
L 192.874865 293.269835 
L 192.874865 292.9152 
L 194.400857 292.9152 
L 194.400857 292.560565 
L 195.092279 292.560565 
L 195.092279 292.205929 
L 198.800564 292.205929 
L 198.807543 291.496659 
L 204.16442 291.496659 
L 204.16442 291.142024 
L 204.563152 291.142024 
L 204.563152 290.787388 
L 205.103813 290.787388 
L 205.103813 290.432753 
L 209.399653 290.432753 
L 209.399653 290.078118 
L 209.628435 290.078118 
L 209.698675 289.368847 
L 210.401111 289.368847 
L 210.401111 289.014212 
L 210.835888 289.014212 
L 210.835888 288.659576 
L 211.244039 288.659576 
L 211.244039 288.304941 
L 211.529008 288.304941 
L 211.529008 287.950306 
L 211.946599 287.950306 
L 211.946599 287.595671 
L 212.151396 287.595671 
L 212.255115 286.177129 
L 212.509442 286.177129 
L 212.54907 285.467859 
L 214.342863 285.467859 
L 214.342863 285.113224 
L 214.544119 285.113224 
L 214.544119 284.758588 
L 214.695327 284.758588 
L 214.695327 284.403953 
L 214.857114 284.403953 
L 214.910663 283.694682 
L 216.11456 283.694682 
L 216.11456 283.340047 
L 219.134958 283.340047 
L 219.134958 282.985412 
L 219.254658 282.985412 
L 219.254658 282.630776 
L 219.475266 282.630776 
L 219.475266 282.276141 
L 219.696211 282.276141 
L 219.764282 281.566871 
L 228.002412 281.566871 
L 228.002412 281.212235 
L 231.509671 281.212235 
L 231.509671 280.8576 
L 231.669915 280.8576 
L 231.706369 280.148329 
L 231.885407 280.148329 
L 231.901299 279.439059 
L 232.069152 279.439059 
L 232.069152 279.084424 
L 232.330447 279.084424 
L 232.330447 278.729788 
L 237.199265 278.729788 
L 237.199265 278.375153 
L 237.39779 278.375153 
L 237.39779 278.020518 
L 237.526391 278.020518 
L 237.610051 276.956612 
L 237.711418 276.956612 
L 237.721022 276.247341 
L 237.834523 276.247341 
L 237.834523 275.892706 
L 238.05545 275.892706 
L 238.05545 275.538071 
L 254.938072 275.538071 
L 254.975787 274.8288 
L 255.05051 274.8288 
L 255.158273 274.119529 
L 255.304822 274.119529 
L 255.379351 273.410259 
L 255.474084 273.410259 
L 255.474084 273.055624 
L 255.712986 273.055624 
L 255.798501 272.346353 
L 256.092531 272.346353 
L 256.192204 271.637082 
L 256.433834 271.637082 
L 256.528138 270.927812 
L 256.65226 270.927812 
L 256.758327 270.218541 
L 256.820699 270.218541 
L 256.820699 269.863906 
L 256.941947 269.863906 
L 256.941947 269.509271 
L 259.367584 269.509271 
L 259.367584 269.154635 
L 259.485766 269.154635 
L 259.565302 268.445365 
L 259.637243 268.445365 
L 259.69485 267.736094 
L 259.748453 267.736094 
L 259.802005 267.026824 
L 259.881606 267.026824 
L 259.881606 266.672188 
L 268.364133 266.672188 
L 268.459567 265.962918 
L 268.499489 265.962918 
L 268.59915 264.899012 
L 268.654249 264.899012 
L 268.692514 264.189741 
L 268.775669 264.189741 
L 268.775669 263.835106 
L 277.376251 263.835106 
L 277.485961 262.416565 
L 277.527289 262.416565 
L 277.602099 261.352659 
L 277.694669 261.352659 
L 277.694669 260.998024 
L 288.779428 260.998024 
L 288.842046 260.288753 
L 290.643205 260.288753 
L 290.651544 259.224847 
L 292.166629 259.224847 
L 292.277156 257.806306 
L 292.287348 257.806306 
L 292.287348 257.451671 
L 293.616163 257.451671 
L 293.616163 257.097035 
L 294.079012 257.097035 
L 294.093984 256.387765 
L 296.681402 256.387765 
L 296.742451 255.323859 
L 298.410549 255.323859 
L 298.445988 254.259953 
L 298.587337 254.259953 
L 298.62167 253.550682 
L 302.264896 253.550682 
L 302.372906 249.295059 
L 302.381125 249.295059 
L 302.485345 245.394071 
L 302.493139 245.394071 
L 302.59948 241.138447 
L 302.609889 241.138447 
L 302.661488 239.010635 
L 303.153233 239.010635 
L 303.15612 238.301365 
L 303.305166 238.301365 
L 303.31024 237.592094 
L 303.715282 237.592094 
L 303.718413 236.882824 
L 304.284017 236.882824 
L 304.284017 236.528188 
L 304.545157 236.528188 
L 304.545614 235.818918 
L 304.849385 235.818918 
L 304.849385 235.464282 
L 305.795151 235.464282 
L 305.8914 234.045741 
L 306.114248 234.045741 
L 306.127989 233.336471 
L 307.071883 233.336471 
L 307.083167 232.6272 
L 308.484159 232.6272 
L 308.489993 231.917929 
L 311.260992 231.917929 
L 311.260992 231.563294 
L 314.004815 231.563294 
L 314.00899 230.854024 
L 314.786711 230.854024 
L 314.786711 230.499388 
L 316.429872 230.499388 
L 316.537257 219.505694 
L 316.541322 219.505694 
L 316.617414 212.412988 
L 316.926712 212.412988 
L 316.926712 212.058353 
L 317.128405 212.058353 
L 317.128405 211.703718 
L 318.187003 211.703718 
L 318.225075 210.994447 
L 318.351564 210.994447 
L 318.351564 210.639812 
L 318.852818 210.639812 
L 318.852818 210.285176 
L 319.623033 210.285176 
L 319.623033 209.930541 
L 321.202581 209.930541 
L 321.202581 209.575906 
L 323.312506 209.575906 
L 323.312506 209.221271 
L 324.417896 209.221271 
L 324.52892 196.4544 
L 324.530991 196.4544 
L 324.540926 195.390494 
L 326.03341 195.390494 
L 326.03341 195.035859 
L 326.566477 195.035859 
L 326.573401 194.326588 
L 330.009306 194.326588 
L 330.098856 183.687529 
L 334.312498 183.687529 
L 334.383621 173.757741 
L 337.81231 173.757741 
L 337.867821 162.409412 
L 340.763258 162.409412 
L 340.812399 154.2528 
L 341.695024 154.2528 
L 341.695038 153.543529 
L 343.313584 153.543529 
L 343.352558 145.032282 
L 345.556845 145.032282 
L 345.594859 139.712753 
L 346.283038 139.712753 
L 346.283038 139.358118 
L 347.56163 139.358118 
L 347.596059 131.201506 
L 349.375951 131.201506 
L 349.399641 123.044894 
L 351.026895 123.044894 
L 351.054021 118.08 
L 352.544252 118.08 
L 352.570733 112.0512 
L 353.949765 112.0512 
L 353.974706 102.121412 
L 355.258013 102.121412 
L 355.278862 95.383341 
L 355.695144 95.383341 
L 355.695144 95.028706 
L 356.480764 95.028706 
L 356.500247 92.546259 
L 357.629289 92.546259 
L 357.64564 88.290635 
L 358.711205 88.290635 
L 358.729714 84.035012 
L 359.737292 84.035012 
L 359.750664 81.552565 
L 360.704094 81.552565 
L 360.720119 76.942306 
L 360.8064 76.942306 
" style="fill: none; stroke: #ff00ff; stroke-width: 1.5; stroke-linecap: square"/>
   </g>
   <g id="line2d_41">
    <defs>
     <path id="m409eae127e" d="M -0 8.485281 
L 5.091169 0 
L 0 -8.485281 
L -5.091169 -0 
z
" style="stroke: #ff00ff; stroke-width: 1.5; stroke-linejoin: miter"/>
    </defs>
    <g>
     <use xlink:href="#m409eae127e" x="268.775669" y="263.835106" style="fill-opacity: 0; stroke: #ff00ff; stroke-width: 1.5; stroke-linejoin: miter"/>
     <use xlink:href="#m409eae127e" x="321.202581" y="209.575906" style="fill-opacity: 0; stroke: #ff00ff; stroke-width: 1.5; stroke-linejoin: miter"/>
     <use xlink:href="#m409eae127e" x="351.054021" y="118.434635" style="fill-opacity: 0; stroke: #ff00ff; stroke-width: 1.5; stroke-linejoin: miter"/>
     <use xlink:href="#m409eae127e" x="360.720119" y="76.942306" style="fill-opacity: 0; stroke: #ff00ff; stroke-width: 1.5; stroke-linejoin: miter"/>
     <use xlink:href="#m409eae127e" x="360.8064" y="76.942306" style="fill-opacity: 0; stroke: #ff00ff; stroke-width: 1.5; stroke-linejoin: miter"/>
    </g>
   </g>
   <g id="line2d_42">
    <path style="fill: none; stroke: #ff00ff; stroke-width: 1.5; stroke-linecap: square"/>
    <g/>
   </g>
   <g id="line2d_43">
    <path d="M 304.452421 236.528188 
" clip-path="url(#p6be03baab1)" style="fill: none; stroke: #ff00ff; stroke-width: 1.5; stroke-linecap: square"/>
    <defs>
     <path id="m282111b67e" d="M -12 12 
L 12 -12 
M -12 -12 
L 12 12 
" style="stroke: #ff00ff"/>
    </defs>
    <g clip-path="url(#p6be03baab1)">
     <use xlink:href="#m282111b67e" x="304.452421" y="236.528188" style="fill: #ff00ff; stroke: #ff00ff"/>
    </g>
   </g>
   <g id="line2d_44">
    <defs>
     <path id="m611c9c33e5" d="M 0 1.5 
C 0.397805 1.5 0.77937 1.341951 1.06066 1.06066 
C 1.341951 0.77937 1.5 0.397805 1.5 0 
C 1.5 -0.397805 1.341951 -0.77937 1.06066 -1.06066 
C 0.77937 -1.341951 0.397805 -1.5 0 -1.5 
C -0.397805 -1.5 -0.77937 -1.341951 -1.06066 -1.06066 
C -1.341951 -0.77937 -1.5 -0.397805 -1.5 0 
C -1.5 0.397805 -1.341951 0.77937 -1.06066 1.06066 
C -0.77937 1.341951 -0.397805 1.5 0 1.5 
z
" style="stroke: #ff7500"/>
    </defs>
    <g>
     <use xlink:href="#m611c9c33e5" x="377.065083" y="235.109647" style="fill: #ff7500; stroke: #ff7500"/>
     <use xlink:href="#m611c9c33e5" x="377.065083" y="235.109647" style="fill: #ff7500; stroke: #ff7500"/>
    </g>
   </g>
   <g id="line2d_45">
    <path d="M 163.774676 298.944 
L 163.774676 298.589365 
L 167.653844 298.589365 
L 167.653844 298.234729 
L 169.549395 298.234729 
L 169.549395 297.880094 
L 171.435909 297.880094 
L 171.435909 297.525459 
L 172.078152 297.525459 
L 172.078152 297.170824 
L 173.494928 297.170824 
L 173.52468 296.461553 
L 174.758683 296.461553 
L 174.758683 296.106918 
L 174.993859 296.106918 
L 174.993859 295.752282 
L 182.720315 295.752282 
L 182.720315 295.397647 
L 183.681787 295.397647 
L 183.681787 295.043012 
L 186.95127 295.043012 
L 186.95127 294.688376 
L 190.499084 294.688376 
L 190.499084 294.333741 
L 192.571303 294.333741 
L 192.571303 293.979106 
L 193.845244 293.979106 
L 193.845244 293.624471 
L 197.514258 293.624471 
L 197.601259 292.9152 
L 198.627323 292.9152 
L 198.627323 292.560565 
L 199.638917 292.560565 
L 199.698169 291.851294 
L 200.602872 291.851294 
L 200.602872 291.496659 
L 201.654042 291.496659 
L 201.732077 290.787388 
L 201.956828 290.787388 
L 201.956828 290.432753 
L 204.871033 290.432753 
L 204.871033 290.078118 
L 205.110839 290.078118 
L 205.110839 289.723482 
L 205.952969 289.723482 
L 205.952969 289.368847 
L 206.838942 289.368847 
L 206.838942 289.014212 
L 209.649215 289.014212 
L 209.649215 288.659576 
L 211.227086 288.659576 
L 211.227086 288.304941 
L 212.378626 288.304941 
L 212.378626 287.950306 
L 213.323278 287.950306 
L 213.323278 287.595671 
L 213.963472 287.595671 
L 213.963472 287.241035 
L 214.649513 287.241035 
L 214.649513 286.8864 
L 214.896823 286.8864 
L 214.910773 286.177129 
L 215.213887 286.177129 
L 215.213887 285.822494 
L 215.69538 285.822494 
L 215.69538 285.467859 
L 216.067123 285.467859 
L 216.067123 285.113224 
L 216.234165 285.113224 
L 216.234165 284.758588 
L 216.488189 284.758588 
L 216.552193 284.049318 
L 218.271352 284.049318 
L 218.271352 283.694682 
L 223.604299 283.694682 
L 223.604299 283.340047 
L 225.578345 283.340047 
L 225.578345 282.985412 
L 225.704961 282.985412 
L 225.79087 282.276141 
L 225.984634 282.276141 
L 225.984634 281.921506 
L 229.518021 281.921506 
L 229.605048 281.212235 
L 229.969708 281.212235 
L 229.969708 280.8576 
L 231.439936 280.8576 
L 231.514895 280.148329 
L 231.677392 280.148329 
L 231.677392 279.793694 
L 231.885006 279.793694 
L 231.885006 279.439059 
L 232.050002 279.439059 
L 232.050002 279.084424 
L 232.308992 279.084424 
L 232.308992 278.729788 
L 241.315504 278.729788 
L 241.401286 278.020518 
L 241.459765 278.020518 
L 241.529455 277.311247 
L 241.618809 277.311247 
L 241.618809 276.956612 
L 241.795332 276.956612 
L 241.795332 276.601976 
L 243.922981 276.601976 
L 243.922981 276.247341 
L 244.043919 276.247341 
L 244.043919 275.892706 
L 244.209706 275.892706 
L 244.209706 275.538071 
L 246.090599 275.538071 
L 246.189566 274.8288 
L 246.255117 274.8288 
L 246.305838 274.119529 
L 246.477167 274.119529 
L 246.477167 273.764894 
L 254.342468 273.764894 
L 254.416961 273.055624 
L 254.454809 273.055624 
L 254.549429 271.991718 
L 254.661845 271.991718 
L 254.669103 271.282447 
L 254.781256 271.282447 
L 254.830272 270.573176 
L 254.925095 270.573176 
L 254.981554 269.863906 
L 255.043684 269.863906 
L 255.043684 269.509271 
L 255.24849 269.509271 
L 255.24849 269.154635 
L 257.142132 269.154635 
L 257.214871 268.445365 
L 257.300944 268.445365 
L 257.300944 268.090729 
L 257.521272 268.090729 
L 257.521272 267.736094 
L 261.033076 267.736094 
L 261.073843 267.026824 
L 261.147517 267.026824 
L 261.147517 266.672188 
L 264.224166 266.672188 
L 264.318462 265.608282 
L 264.377459 265.608282 
L 264.478773 264.189741 
L 264.513689 264.189741 
L 264.588981 263.125835 
L 264.653169 263.125835 
L 264.738122 262.416565 
L 274.702034 262.416565 
L 274.71918 261.352659 
L 275.133317 261.352659 
L 275.199814 260.643388 
L 275.882002 260.643388 
L 275.905795 259.579482 
L 276.320267 259.579482 
L 276.326661 258.870212 
L 279.264172 258.870212 
L 279.373153 256.387765 
L 279.397291 256.387765 
L 279.397291 256.033129 
L 282.269124 256.033129 
L 282.269124 255.678494 
L 287.482103 255.678494 
L 287.482103 255.323859 
L 289.359318 255.323859 
L 289.362945 254.614588 
L 289.73675 254.614588 
L 289.753114 253.550682 
L 290.111367 253.550682 
L 290.111367 253.196047 
L 291.122716 253.196047 
L 291.122716 252.841412 
L 291.702116 252.841412 
L 291.741692 251.777506 
L 292.350625 251.777506 
L 292.407625 250.358965 
L 294.689664 250.358965 
L 294.712205 249.649694 
L 295.840058 249.649694 
L 295.847508 248.940424 
L 296.903558 248.940424 
L 296.910809 248.231153 
L 300.014055 248.231153 
L 300.046518 247.167247 
L 300.374628 247.167247 
L 300.390453 246.457976 
L 300.674279 246.457976 
L 300.745406 245.039435 
L 301.528534 245.039435 
L 301.528534 244.6848 
L 303.510212 244.6848 
L 303.510212 244.330165 
L 307.441983 244.330165 
L 307.441983 243.975529 
L 312.426164 243.975529 
L 312.426164 243.620894 
L 312.822612 243.620894 
L 312.822612 243.266259 
L 324.360361 243.266259 
L 324.360361 242.911624 
L 324.648016 242.911624 
L 324.697469 242.202353 
L 324.968325 242.202353 
L 324.968325 241.847718 
L 329.020926 241.847718 
L 329.069356 241.138447 
L 330.229639 241.138447 
L 330.291391 240.429176 
L 337.16969 240.429176 
L 337.16969 240.074541 
L 337.36658 240.074541 
L 337.36658 239.719906 
L 338.660391 239.719906 
L 338.660391 239.365271 
L 343.098737 239.365271 
L 343.142028 238.656 
L 347.683467 238.656 
L 347.683467 238.301365 
L 348.522407 238.301365 
L 348.522407 237.946729 
L 351.000571 237.946729 
L 351.05033 237.237459 
L 352.71395 237.237459 
L 352.71395 236.882824 
L 360.8064 236.882824 
L 360.8064 236.882824 
" style="fill: none; stroke: #ff7500; stroke-width: 1.5; stroke-linecap: square"/>
   </g>
   <g id="line2d_46">
    <defs>
     <path id="mf0ae19d6d6" d="M 0 -6 
L -1.347084 -1.854102 
L -5.706339 -1.854102 
L -2.179628 0.708204 
L -3.526712 4.854102 
L -0 2.291796 
L 3.526712 4.854102 
L 2.179628 0.708204 
L 5.706339 -1.854102 
L 1.347084 -1.854102 
z
" style="stroke: #ff7500; stroke-width: 1.5; stroke-linejoin: bevel"/>
    </defs>
    <g>
     <use xlink:href="#mf0ae19d6d6" x="257.521272" y="268.090729" style="fill-opacity: 0; stroke: #ff7500; stroke-width: 1.5; stroke-linejoin: bevel"/>
     <use xlink:href="#mf0ae19d6d6" x="324.360361" y="242.911624" style="fill-opacity: 0; stroke: #ff7500; stroke-width: 1.5; stroke-linejoin: bevel"/>
     <use xlink:href="#mf0ae19d6d6" x="352.71395" y="236.882824" style="fill-opacity: 0; stroke: #ff7500; stroke-width: 1.5; stroke-linejoin: bevel"/>
     <use xlink:href="#mf0ae19d6d6" x="360.8064" y="236.882824" style="fill-opacity: 0; stroke: #ff7500; stroke-width: 1.5; stroke-linejoin: bevel"/>
    </g>
   </g>
   <g id="line2d_47">
    <path style="fill: none; stroke: #ff7500; stroke-width: 1.5; stroke-linecap: square"/>
    <g/>
   </g>
   <g id="line2d_48">
    <path d="M 305.210632 244.330165 
" clip-path="url(#p6be03baab1)" style="fill: none; stroke: #ff7500; stroke-width: 1.5; stroke-linecap: square"/>
    <defs>
     <path id="m07e9d72d0c" d="M -12 12 
L 12 -12 
M -12 -12 
L 12 12 
" style="stroke: #ff7500"/>
    </defs>
    <g clip-path="url(#p6be03baab1)">
     <use xlink:href="#m07e9d72d0c" x="305.210632" y="244.330165" style="fill: #ff7500; stroke: #ff7500"/>
    </g>
   </g>
   <g id="line2d_49">
    <defs>
     <path id="m814faf7871" d="M 0 1.5 
C 0.397805 1.5 0.77937 1.341951 1.06066 1.06066 
C 1.341951 0.77937 1.5 0.397805 1.5 0 
C 1.5 -0.397805 1.341951 -0.77937 1.06066 -1.06066 
C 0.77937 -1.341951 0.397805 -1.5 0 -1.5 
C -0.397805 -1.5 -0.77937 -1.341951 -1.06066 -1.06066 
C -1.341951 -0.77937 -1.5 -0.397805 -1.5 0 
C -1.5 0.397805 -1.341951 0.77937 -1.06066 1.06066 
C -0.77937 1.341951 -0.397805 1.5 0 1.5 
z
" style="stroke: #6495ed"/>
    </defs>
    <g>
     <use xlink:href="#m814faf7871" x="358.290132" y="240.429176" style="fill: #6495ed; stroke: #6495ed"/>
     <use xlink:href="#m814faf7871" x="358.290132" y="240.429176" style="fill: #6495ed; stroke: #6495ed"/>
    </g>
   </g>
   <g id="line2d_50">
    <path d="M 161.933593 298.944 
L 161.933593 298.589365 
L 162.604153 298.589365 
L 162.604153 298.234729 
L 164.164968 298.234729 
L 164.164968 297.880094 
L 165.864025 297.880094 
L 165.864025 297.525459 
L 172.171028 297.525459 
L 172.171028 297.170824 
L 177.894589 297.170824 
L 177.894589 296.816188 
L 182.309856 296.816188 
L 182.309856 296.461553 
L 184.375157 296.461553 
L 184.375157 296.106918 
L 191.564852 296.106918 
L 191.564852 295.752282 
L 193.711873 295.752282 
L 193.711873 295.397647 
L 194.924968 295.397647 
L 194.924968 295.043012 
L 195.216558 295.043012 
L 195.216558 294.688376 
L 196.004654 294.688376 
L 196.004654 294.333741 
L 196.340894 294.333741 
L 196.389449 293.624471 
L 196.767107 293.624471 
L 196.767107 293.269835 
L 196.885125 293.269835 
L 196.885125 292.9152 
L 197.905483 292.9152 
L 197.905483 292.560565 
L 200.28709 292.560565 
L 200.28709 292.205929 
L 203.793173 292.205929 
L 203.793173 291.851294 
L 205.277032 291.851294 
L 205.277032 291.496659 
L 205.46972 291.496659 
L 205.46972 291.142024 
L 205.868461 291.142024 
L 205.868461 290.787388 
L 207.149685 290.787388 
L 207.213438 290.078118 
L 207.437745 290.078118 
L 207.528187 289.368847 
L 207.907987 289.368847 
L 207.985099 288.659576 
L 209.737166 288.659576 
L 209.737166 288.304941 
L 210.853197 288.304941 
L 210.853197 287.950306 
L 211.310369 287.950306 
L 211.310369 287.595671 
L 211.553961 287.595671 
L 211.553961 287.241035 
L 211.846718 287.241035 
L 211.846718 286.8864 
L 214.531799 286.8864 
L 214.585498 286.177129 
L 214.787505 286.177129 
L 214.787505 285.822494 
L 214.99644 285.822494 
L 214.99644 285.467859 
L 215.317861 285.467859 
L 215.317861 285.113224 
L 216.327471 285.113224 
L 216.327471 284.758588 
L 218.794901 284.758588 
L 218.794901 284.403953 
L 218.988784 284.403953 
L 219.055055 283.694682 
L 221.477321 283.694682 
L 221.477321 283.340047 
L 221.789456 283.340047 
L 221.789456 282.985412 
L 221.963235 282.985412 
L 221.963235 282.630776 
L 225.724683 282.630776 
L 225.830484 281.921506 
L 225.986036 281.921506 
L 225.986036 281.566871 
L 228.179393 281.566871 
L 228.26532 280.8576 
L 228.420751 280.8576 
L 228.420751 280.502965 
L 228.949477 280.502965 
L 228.949477 280.148329 
L 229.264075 280.148329 
L 229.264075 279.793694 
L 229.403016 279.793694 
L 229.497554 279.084424 
L 229.602584 279.084424 
L 229.602584 278.729788 
L 229.793439 278.729788 
L 229.793439 278.375153 
L 234.534454 278.375153 
L 234.534454 278.020518 
L 234.680812 278.020518 
L 234.680812 277.665882 
L 234.886546 277.665882 
L 234.886546 277.311247 
L 235.023228 277.311247 
L 235.023228 276.956612 
L 235.255378 276.956612 
L 235.255378 276.601976 
L 239.383459 276.601976 
L 239.383459 276.247341 
L 247.281833 276.247341 
L 247.362852 275.538071 
L 247.527459 275.538071 
L 247.631915 274.474165 
L 247.70672 274.474165 
L 247.70672 274.119529 
L 247.831226 274.119529 
L 247.831226 273.764894 
L 253.344788 273.764894 
L 253.422934 273.055624 
L 253.503057 273.055624 
L 253.611403 272.346353 
L 254.460725 272.346353 
L 254.540883 271.637082 
L 254.666211 271.637082 
L 254.767049 270.218541 
L 254.787822 270.218541 
L 254.837714 269.509271 
L 254.917713 269.509271 
L 254.952921 268.8 
L 255.029153 268.8 
L 255.101954 268.090729 
L 255.175106 268.090729 
L 255.222039 267.381459 
L 255.382825 267.381459 
L 255.382825 267.026824 
L 263.469302 267.026824 
L 263.469302 266.672188 
L 272.825083 266.672188 
L 272.927567 265.608282 
L 275.500443 265.608282 
L 275.512159 264.899012 
L 276.800947 264.899012 
L 276.835969 263.835106 
L 277.649762 263.835106 
L 277.688696 262.061929 
L 277.918551 262.061929 
L 277.94447 260.998024 
L 278.632518 260.998024 
L 278.686046 259.934118 
L 279.657925 259.934118 
L 279.690787 258.870212 
L 280.205574 258.870212 
L 280.279413 257.097035 
L 283.241562 257.097035 
L 283.285519 256.033129 
L 284.04749 256.033129 
L 284.096399 255.323859 
L 286.594113 255.323859 
L 286.65755 254.259953 
L 289.425235 254.259953 
L 289.436079 253.550682 
L 292.969103 253.550682 
L 293.022255 252.132141 
L 293.828506 252.132141 
L 293.828506 251.777506 
L 294.372307 251.777506 
L 294.481221 250.358965 
L 294.510403 250.358965 
L 294.510403 250.004329 
L 296.655329 250.004329 
L 296.655329 249.649694 
L 297.749677 249.649694 
L 297.759848 248.585788 
L 300.38815 248.585788 
L 300.423383 247.167247 
L 301.534799 247.167247 
L 301.534799 246.812612 
L 304.139309 246.812612 
L 304.139309 246.457976 
L 304.800871 246.457976 
L 304.85859 245.394071 
L 313.143697 245.394071 
L 313.143697 245.039435 
L 315.61299 245.039435 
L 315.707896 244.330165 
L 317.355601 244.330165 
L 317.355601 243.975529 
L 317.871184 243.975529 
L 317.871184 243.620894 
L 318.353134 243.620894 
L 318.353134 243.266259 
L 325.744117 243.266259 
L 325.744117 242.911624 
L 330.213806 242.911624 
L 330.213806 242.556988 
L 333.166557 242.556988 
L 333.166557 242.202353 
L 334.154854 242.202353 
L 334.154854 241.847718 
L 338.28756 241.847718 
L 338.28756 241.493082 
L 346.919528 241.493082 
L 346.919528 241.138447 
L 347.801626 241.138447 
L 347.801626 240.783812 
L 358.290132 240.783812 
L 358.290132 240.429176 
L 360.8064 240.429176 
L 360.8064 240.429176 
" style="fill: none; stroke: #6495ed; stroke-width: 1.5; stroke-linecap: square"/>
   </g>
   <g id="line2d_51">
    <defs>
     <path id="m9ed41ebc2d" d="M -0 6 
L 6 -6 
L -6 -6 
z
" style="stroke: #6495ed; stroke-width: 1.5; stroke-linejoin: miter"/>
    </defs>
    <g>
     <use xlink:href="#m9ed41ebc2d" x="207.528187" y="289.723482" style="fill-opacity: 0; stroke: #6495ed; stroke-width: 1.5; stroke-linejoin: miter"/>
     <use xlink:href="#m9ed41ebc2d" x="280.279413" y="257.097035" style="fill-opacity: 0; stroke: #6495ed; stroke-width: 1.5; stroke-linejoin: miter"/>
     <use xlink:href="#m9ed41ebc2d" x="358.290132" y="240.429176" style="fill-opacity: 0; stroke: #6495ed; stroke-width: 1.5; stroke-linejoin: miter"/>
     <use xlink:href="#m9ed41ebc2d" x="360.8064" y="240.429176" style="fill-opacity: 0; stroke: #6495ed; stroke-width: 1.5; stroke-linejoin: miter"/>
    </g>
   </g>
   <g id="line2d_52">
    <path style="fill: none; stroke: #6495ed; stroke-width: 1.5; stroke-linecap: square"/>
    <g/>
   </g>
   <g id="line2d_53">
    <path d="M 305.124236 245.394071 
" clip-path="url(#p6be03baab1)" style="fill: none; stroke: #6495ed; stroke-width: 1.5; stroke-linecap: square"/>
    <defs>
     <path id="m08c7aa9d84" d="M -12 12 
L 12 -12 
M -12 -12 
L 12 12 
" style="stroke: #6495ed"/>
    </defs>
    <g clip-path="url(#p6be03baab1)">
     <use xlink:href="#m08c7aa9d84" x="305.124236" y="245.394071" style="fill: #6495ed; stroke: #6495ed"/>
    </g>
   </g>
   <g id="line2d_54">
    <defs>
     <path id="mc00fb14bf4" d="M 0 1.5 
C 0.397805 1.5 0.77937 1.341951 1.06066 1.06066 
C 1.341951 0.77937 1.5 0.397805 1.5 0 
C 1.5 -0.397805 1.341951 -0.77937 1.06066 -1.06066 
C 0.77937 -1.341951 0.397805 -1.5 0 -1.5 
C -0.397805 -1.5 -0.77937 -1.341951 -1.06066 -1.06066 
C -1.341951 -0.77937 -1.5 -0.397805 -1.5 0 
C -1.5 0.397805 -1.341951 0.77937 -1.06066 1.06066 
C -0.77937 1.341951 -0.397805 1.5 0 1.5 
z
" style="stroke: #ff0000"/>
    </defs>
    <g>
     <use xlink:href="#mc00fb14bf4" x="380.228267" y="27.648" style="fill: #ff0000; stroke: #ff0000"/>
     <use xlink:href="#mc00fb14bf4" x="380.228267" y="27.648" style="fill: #ff0000; stroke: #ff0000"/>
    </g>
   </g>
   <g id="line2d_55">
    <path d="M 159.460157 298.944 
L 159.460157 298.589365 
L 162.345614 298.589365 
L 162.345614 298.234729 
L 166.359269 298.234729 
L 166.359269 297.880094 
L 168.44396 297.880094 
L 168.44396 297.525459 
L 174.35438 297.525459 
L 174.35438 297.170824 
L 175.778311 297.170824 
L 175.778311 296.816188 
L 179.815132 296.816188 
L 179.815132 296.461553 
L 181.552463 296.461553 
L 181.552463 296.106918 
L 182.720923 296.106918 
L 182.720923 295.752282 
L 186.444561 295.752282 
L 186.444561 295.397647 
L 189.347936 295.397647 
L 189.347936 295.043012 
L 189.9708 295.043012 
L 189.9708 294.688376 
L 191.383185 294.688376 
L 191.383185 294.333741 
L 193.48895 294.333741 
L 193.48895 293.979106 
L 195.015292 293.979106 
L 195.015292 293.624471 
L 195.517554 293.624471 
L 195.517554 293.269835 
L 195.63417 293.269835 
L 195.63417 292.9152 
L 197.929328 292.9152 
L 197.929328 292.560565 
L 198.465373 292.560565 
L 198.465373 292.205929 
L 199.15223 292.205929 
L 199.15223 291.851294 
L 199.402282 291.851294 
L 199.402282 291.496659 
L 199.740764 291.496659 
L 199.740764 291.142024 
L 200.100547 291.142024 
L 200.100547 290.787388 
L 200.346005 290.787388 
L 200.346005 290.432753 
L 200.743531 290.432753 
L 200.743531 290.078118 
L 202.797112 290.078118 
L 202.797112 289.723482 
L 207.178856 289.723482 
L 207.178856 289.368847 
L 207.376879 289.368847 
L 207.376879 289.014212 
L 207.646812 289.014212 
L 207.646812 288.659576 
L 209.127483 288.659576 
L 209.127483 288.304941 
L 209.280211 288.304941 
L 209.280211 287.950306 
L 209.476174 287.950306 
L 209.485699 287.241035 
L 209.688387 287.241035 
L 209.688387 286.8864 
L 210.125457 286.8864 
L 210.125457 286.531765 
L 212.183029 286.531765 
L 212.183029 286.177129 
L 216.890352 286.177129 
L 216.890352 285.822494 
L 228.239767 285.822494 
L 228.239767 285.467859 
L 252.191896 285.467859 
L 252.191896 285.113224 
L 264.258625 285.113224 
L 264.258625 284.758588 
L 265.036963 284.758588 
L 265.036963 284.403953 
L 273.606874 284.403953 
L 273.606874 284.049318 
L 285.296827 284.049318 
L 285.384551 282.985412 
L 285.441233 282.985412 
L 285.54123 281.566871 
L 285.574234 281.566871 
L 285.676196 279.793694 
L 285.696287 279.793694 
L 285.771048 278.375153 
L 285.809455 278.375153 
L 285.908911 276.601976 
L 285.940839 276.601976 
L 286.045257 274.474165 
L 286.080103 274.474165 
L 286.182017 272.700988 
L 286.19945 272.700988 
L 286.308444 270.927812 
L 286.322087 270.927812 
L 286.417568 269.509271 
L 286.442137 269.509271 
L 286.534391 267.736094 
L 286.554697 267.736094 
L 286.657654 266.317553 
L 286.702184 266.317553 
L 286.702184 265.962918 
L 288.392013 265.962918 
L 288.392013 265.608282 
L 288.541673 265.608282 
L 288.541673 265.253647 
L 289.363589 265.253647 
L 289.363589 264.899012 
L 289.511818 264.899012 
L 289.577791 264.189741 
L 290.193244 264.189741 
L 290.268333 263.480471 
L 290.310651 263.480471 
L 290.310651 263.125835 
L 299.136174 263.125835 
L 299.136174 262.7712 
L 299.370525 262.7712 
L 299.45135 262.061929 
L 299.993326 262.061929 
L 300.101609 261.352659 
L 300.153247 261.352659 
L 300.235536 259.934118 
L 300.283106 259.934118 
L 300.381499 257.097035 
L 300.412141 257.097035 
L 300.516247 255.678494 
L 300.586468 255.678494 
L 300.659474 253.905318 
L 300.713857 253.905318 
L 300.785512 252.486776 
L 300.873639 252.486776 
L 300.963237 249.649694 
L 301.047278 249.649694 
L 301.125896 247.876518 
L 301.183021 247.876518 
L 301.256237 247.167247 
L 301.322913 247.167247 
L 301.425042 246.103341 
L 301.910035 246.103341 
L 302.00332 245.039435 
L 302.357997 245.039435 
L 302.357997 244.6848 
L 302.591814 244.6848 
L 302.591814 244.330165 
L 303.122848 244.330165 
L 303.122848 243.975529 
L 307.529031 243.975529 
L 307.529031 243.620894 
L 307.7331 243.620894 
L 307.831598 242.911624 
L 307.978836 242.911624 
L 308.004232 242.202353 
L 308.285751 242.202353 
L 308.365667 241.138447 
L 308.570675 241.138447 
L 308.628579 237.946729 
L 308.752803 237.946729 
L 308.858618 235.464282 
L 308.877559 235.464282 
L 308.987577 232.6272 
L 309.029639 232.6272 
L 309.123038 231.917929 
L 309.261894 231.917929 
L 309.340648 231.208659 
L 309.450551 231.208659 
L 309.54531 230.499388 
L 309.924415 230.499388 
L 310.011748 229.080847 
L 313.143019 229.080847 
L 313.143019 228.726212 
L 313.331206 228.726212 
L 313.331206 228.371576 
L 313.656997 228.371576 
L 313.737632 227.662306 
L 313.782579 227.662306 
L 313.782579 227.307671 
L 313.968633 227.307671 
L 314.071027 225.889129 
L 314.132545 225.889129 
L 314.20973 223.052047 
L 314.247895 223.052047 
L 314.352116 221.988141 
L 314.384227 221.988141 
L 314.464332 219.860329 
L 314.58402 219.860329 
L 314.691538 218.087153 
L 314.743491 218.087153 
L 314.763884 217.377882 
L 314.876087 217.377882 
L 314.89542 216.313976 
L 315.009704 216.313976 
L 315.021937 215.604706 
L 315.203735 215.604706 
L 315.245454 214.895435 
L 315.428485 214.895435 
L 315.428485 214.5408 
L 315.560452 214.5408 
L 315.560452 214.186165 
L 315.993155 214.186165 
L 315.993155 213.831529 
L 317.752809 213.831529 
L 317.752809 213.476894 
L 318.056532 213.476894 
L 318.14208 212.767624 
L 318.182421 212.767624 
L 318.234587 211.703718 
L 318.34381 211.703718 
L 318.45486 210.994447 
L 318.456736 210.994447 
L 318.53596 209.221271 
L 318.587824 209.221271 
L 318.692689 207.448094 
L 318.730684 207.448094 
L 318.800447 206.384188 
L 318.913409 206.384188 
L 318.930822 205.674918 
L 319.031622 205.674918 
L 319.081801 204.965647 
L 319.144811 204.965647 
L 319.221214 203.547106 
L 319.403028 203.547106 
L 319.403028 203.192471 
L 321.291552 203.192471 
L 321.291552 202.837835 
L 321.52063 202.837835 
L 321.52063 202.4832 
L 321.741456 202.4832 
L 321.772952 201.773929 
L 321.986706 201.773929 
L 322.069721 200.710024 
L 322.114485 200.710024 
L 322.191387 200.000753 
L 322.268728 200.000753 
L 322.375862 198.227576 
L 322.421893 198.227576 
L 322.465527 196.809035 
L 322.534007 196.809035 
L 322.575925 196.099765 
L 322.676852 196.099765 
L 322.744175 195.390494 
L 322.857755 195.390494 
L 322.948944 194.326588 
L 322.973487 194.326588 
L 323.009264 192.908047 
L 324.576233 192.908047 
L 324.576233 192.553412 
L 324.929306 192.553412 
L 325.003867 190.780235 
L 325.090709 190.780235 
L 325.182798 189.716329 
L 325.205506 189.716329 
L 325.314603 188.652424 
L 325.324308 188.652424 
L 325.433959 186.524612 
L 325.447119 186.524612 
L 325.534907 185.460706 
L 325.605017 185.460706 
L 325.605017 185.106071 
L 325.817712 185.106071 
L 325.884541 184.3968 
L 326.559019 184.3968 
L 326.559019 184.042165 
L 327.280649 184.042165 
L 327.342839 183.332894 
L 327.490515 183.332894 
L 327.597667 181.559718 
L 327.616731 181.559718 
L 327.708822 180.141176 
L 327.744013 180.141176 
L 327.782622 179.431906 
L 327.994983 179.431906 
L 328.098772 176.949459 
L 328.107652 176.949459 
L 328.131871 176.240188 
L 328.229487 176.240188 
L 328.32242 175.176282 
L 328.451741 175.176282 
L 328.531845 174.112376 
L 329.403353 174.112376 
L 329.459794 173.403106 
L 329.670115 173.403106 
L 329.670115 173.048471 
L 329.842819 173.048471 
L 329.938741 171.275294 
L 330.039414 171.275294 
L 330.093436 169.856753 
L 330.159226 169.856753 
L 330.264966 167.374306 
L 330.29235 167.374306 
L 330.384025 166.3104 
L 330.538206 166.3104 
L 330.640189 165.246494 
L 330.784184 165.246494 
L 330.784184 164.891859 
L 331.42548 164.891859 
L 331.42548 164.537224 
L 331.589531 164.537224 
L 331.670784 163.473318 
L 331.7339 163.473318 
L 331.789835 162.764047 
L 331.863197 162.764047 
L 331.971653 160.2816 
L 331.984707 160.2816 
L 332.087079 158.863059 
L 332.156673 158.863059 
L 332.156673 158.508424 
L 332.342282 158.508424 
L 332.408274 157.089882 
L 332.458804 157.089882 
L 332.50779 155.671341 
L 332.582202 155.671341 
L 332.680118 154.607435 
L 333.087182 154.607435 
L 333.087182 154.2528 
L 333.468972 154.2528 
L 333.490477 153.543529 
L 333.687389 153.543529 
L 333.748335 152.834259 
L 333.811925 152.834259 
L 333.866931 150.706447 
L 333.929737 150.706447 
L 334.010984 149.287906 
L 334.087877 149.287906 
L 334.129722 148.224 
L 334.211267 148.224 
L 334.291887 147.514729 
L 334.336811 147.514729 
L 334.405393 145.386918 
L 335.171764 145.386918 
L 335.182459 144.677647 
L 335.401245 144.677647 
L 335.401245 144.323012 
L 335.51979 144.323012 
L 335.598823 143.259106 
L 335.638944 143.259106 
L 335.741074 141.485929 
L 335.778153 141.485929 
L 335.882073 140.422024 
L 335.905864 140.422024 
L 336.001316 139.358118 
L 336.046802 139.358118 
L 336.046802 139.003482 
L 336.729679 139.003482 
L 336.823776 138.294212 
L 336.84483 138.294212 
L 336.948472 135.811765 
L 337.001547 135.811765 
L 337.074449 133.683953 
L 337.203001 133.683953 
L 337.313958 131.556141 
L 337.344811 131.556141 
L 337.422802 130.492235 
L 338.025494 130.492235 
L 338.025494 130.1376 
L 338.213809 130.1376 
L 338.255372 129.428329 
L 338.347688 129.428329 
L 338.408411 128.719059 
L 338.487949 128.719059 
L 338.577621 126.236612 
L 338.602756 126.236612 
L 338.616197 124.818071 
L 338.819225 124.818071 
L 338.840414 124.1088 
L 338.953564 124.1088 
L 339.031526 123.044894 
L 339.085072 123.044894 
L 339.085072 122.690259 
L 339.308581 122.690259 
L 339.308581 122.335624 
L 339.54115 122.335624 
L 339.628381 121.626353 
L 339.673031 121.626353 
L 339.772812 119.498541 
L 339.831242 119.498541 
L 339.939519 118.08 
L 339.959462 118.08 
L 340.051918 116.661459 
L 340.171416 116.661459 
L 340.171416 116.306824 
L 340.353232 116.306824 
L 340.353232 115.952188 
L 340.822275 115.952188 
L 340.876253 114.533647 
L 341.043266 114.533647 
L 341.129083 113.824376 
L 341.296705 113.824376 
L 341.387274 113.115106 
L 341.412755 113.115106 
L 341.491197 111.696565 
L 341.567411 111.696565 
L 341.653929 110.987294 
L 341.777403 110.987294 
L 341.777403 110.632659 
L 341.901333 110.632659 
L 341.951653 109.923388 
L 342.014299 109.923388 
L 342.103483 108.859482 
L 342.23226 108.859482 
L 342.31172 107.440941 
L 342.362369 107.440941 
L 342.385411 106.731671 
L 342.477994 106.731671 
L 342.566328 105.667765 
L 342.913124 105.667765 
L 342.973368 104.603859 
L 343.163502 104.603859 
L 343.220824 103.539953 
L 343.27951 103.539953 
L 343.328187 102.830682 
L 343.396947 102.830682 
L 343.455751 102.121412 
L 343.550134 102.121412 
L 343.610051 101.412141 
L 343.847929 101.412141 
L 343.948852 100.702871 
L 344.188813 100.702871 
L 344.290681 98.575059 
L 344.332486 98.575059 
L 344.430727 97.865788 
L 344.489244 97.865788 
L 344.564263 96.801882 
L 344.694609 96.801882 
L 344.756059 95.383341 
L 345.046321 95.383341 
L 345.099371 94.319435 
L 345.159706 94.319435 
L 345.161388 93.610165 
L 345.275823 93.610165 
L 345.384406 92.900894 
L 345.388496 92.900894 
L 345.488757 92.191624 
L 345.505653 92.191624 
L 345.505653 91.836988 
L 345.621866 91.836988 
L 345.621866 91.482353 
L 345.956613 91.482353 
L 346.033376 90.418447 
L 346.071725 90.418447 
L 346.096801 89.354541 
L 346.277805 89.354541 
L 346.363901 87.936 
L 346.429862 87.936 
L 346.527378 87.226729 
L 346.585315 87.226729 
L 346.585315 86.872094 
L 346.867365 86.872094 
L 346.937505 85.808188 
L 347.0166 85.808188 
L 347.0166 85.453553 
L 347.137709 85.453553 
L 347.219752 84.389647 
L 347.270815 84.389647 
L 347.366511 83.680376 
L 347.412055 83.680376 
L 347.439521 82.971106 
L 347.895501 82.971106 
L 347.961531 81.552565 
L 348.024054 81.552565 
L 348.0574 80.843294 
L 348.15579 80.843294 
L 348.237994 80.134024 
L 348.321217 80.134024 
L 348.347696 79.424753 
L 348.670506 79.424753 
L 348.750938 78.715482 
L 348.806759 78.715482 
L 348.872532 76.942306 
L 348.921396 76.942306 
L 348.921396 76.587671 
L 349.086749 76.587671 
L 349.135527 75.8784 
L 349.262077 75.8784 
L 349.301272 75.169129 
L 349.528397 75.169129 
L 349.587954 73.750588 
L 349.677267 73.750588 
L 349.754023 72.686682 
L 349.821647 72.686682 
L 349.886523 71.622776 
L 350.001498 71.622776 
L 350.001498 71.268141 
L 350.270287 71.268141 
L 350.270287 70.913506 
L 350.411398 70.913506 
L 350.492992 70.204235 
L 350.616312 70.204235 
L 350.616312 69.8496 
L 350.78926 69.8496 
L 350.78926 69.494965 
L 350.905995 69.494965 
L 350.935101 68.431059 
L 351.032309 68.431059 
L 351.080388 67.367153 
L 351.256313 67.367153 
L 351.296046 66.657882 
L 351.382604 66.657882 
L 351.382604 66.303247 
L 351.523853 66.303247 
L 351.606951 65.593976 
L 351.660994 65.593976 
L 351.660994 65.239341 
L 352.034286 65.239341 
L 352.034286 64.884706 
L 352.23263 64.884706 
L 352.299878 64.175435 
L 352.372058 64.175435 
L 352.442694 63.111529 
L 352.53067 63.111529 
L 352.619968 61.338353 
L 352.833151 61.338353 
L 352.875242 59.919812 
L 352.989973 59.919812 
L 353.099374 58.855906 
L 353.167137 58.855906 
L 353.207263 58.146635 
L 353.312151 58.146635 
L 353.312151 57.792 
L 353.627691 57.792 
L 353.707304 56.728094 
L 353.75741 56.728094 
L 353.85346 55.664188 
L 353.871947 55.664188 
L 353.871947 55.309553 
L 354.071065 55.309553 
L 354.071065 54.954918 
L 354.44099 54.954918 
L 354.44099 54.600282 
L 354.598432 54.600282 
L 354.692038 53.891012 
L 354.780929 53.891012 
L 354.873714 52.827106 
L 354.899819 52.827106 
L 354.961994 52.117835 
L 355.068399 52.117835 
L 355.068399 51.7632 
L 355.347271 51.7632 
L 355.347271 51.408565 
L 355.493316 51.408565 
L 355.527676 50.344659 
L 355.638747 50.344659 
L 355.682403 48.926118 
L 355.755532 48.926118 
L 355.798477 48.216847 
L 356.140288 48.216847 
L 356.140288 47.862212 
L 356.367597 47.862212 
L 356.441371 47.152941 
L 356.79172 47.152941 
L 356.895745 46.443671 
L 356.960527 46.443671 
L 356.960527 46.089035 
L 357.284091 46.089035 
L 357.284091 45.7344 
L 357.451481 45.7344 
L 357.555836 45.025129 
L 357.771417 45.025129 
L 357.875903 43.606588 
L 357.903891 43.606588 
L 357.903891 43.251953 
L 358.065672 43.251953 
L 358.065672 42.897318 
L 358.291263 42.897318 
L 358.291263 42.542682 
L 358.437656 42.542682 
L 358.528475 41.478776 
L 358.850933 41.478776 
L 358.889315 40.414871 
L 359.220795 40.414871 
L 359.275609 39.7056 
L 359.614467 39.7056 
L 359.614467 39.350965 
L 359.926831 39.350965 
L 359.926831 38.996329 
L 360.389217 38.996329 
L 360.389217 38.641694 
L 360.658194 38.641694 
L 360.658194 38.287059 
L 360.8064 38.287059 
L 360.8064 38.287059 
" style="fill: none; stroke: #ff0000; stroke-width: 1.5; stroke-linecap: square"/>
   </g>
   <g id="line2d_56">
    <defs>
     <path id="m3967acb267" d="M 0 -6 
L -5.196152 -3 
L -5.196152 3 
L -0 6 
L 5.196152 3 
L 5.196152 -3 
z
" style="stroke: #ff0000; stroke-width: 1.5; stroke-linejoin: miter"/>
    </defs>
    <g>
     <use xlink:href="#m3967acb267" x="290.310651" y="263.125835" style="fill-opacity: 0; stroke: #ff0000; stroke-width: 1.5; stroke-linejoin: miter"/>
     <use xlink:href="#m3967acb267" x="345.096315" y="95.028706" style="fill-opacity: 0; stroke: #ff0000; stroke-width: 1.5; stroke-linejoin: miter"/>
     <use xlink:href="#m3967acb267" x="360.658194" y="38.287059" style="fill-opacity: 0; stroke: #ff0000; stroke-width: 1.5; stroke-linejoin: miter"/>
     <use xlink:href="#m3967acb267" x="360.8064" y="38.287059" style="fill-opacity: 0; stroke: #ff0000; stroke-width: 1.5; stroke-linejoin: miter"/>
    </g>
   </g>
   <g id="line2d_57">
    <path style="fill: none; stroke: #ff0000; stroke-width: 1.5; stroke-linecap: square"/>
    <g/>
   </g>
   <g id="line2d_58">
    <path d="M 288.900576 265.253647 
" clip-path="url(#p6be03baab1)" style="fill: none; stroke: #ff0000; stroke-width: 1.5; stroke-linecap: square"/>
    <defs>
     <path id="m65fae00b42" d="M -12 12 
L 12 -12 
M -12 -12 
L 12 12 
" style="stroke: #ff0000"/>
    </defs>
    <g clip-path="url(#p6be03baab1)">
     <use xlink:href="#m65fae00b42" x="288.900576" y="265.253647" style="fill: #ff0000; stroke: #ff0000"/>
    </g>
   </g>
   <g id="line2d_59">
    <path d="M 360.8064 252.841412 
L 380.514816 293.51808 
" style="fill: none; stroke: #000080; stroke-width: 1.5; stroke-linecap: square"/>
    <g>
     <use xlink:href="#m4f83e0c766" x="360.8064" y="252.841412" style="fill-opacity: 0; stroke: #000080; stroke-width: 1.5"/>
     <use xlink:href="#m4f83e0c766" x="380.514816" y="293.51808" style="fill-opacity: 0; stroke: #000080; stroke-width: 1.5"/>
    </g>
   </g>
   <g id="line2d_60">
    <path d="M 360.8064 240.429176 
L 380.514816 241.429248 
" style="fill: none; stroke: #6495ed; stroke-width: 1.5; stroke-linecap: square"/>
    <g>
     <use xlink:href="#m9ed41ebc2d" x="360.8064" y="240.429176" style="fill-opacity: 0; stroke: #6495ed; stroke-width: 1.5; stroke-linejoin: miter"/>
     <use xlink:href="#m9ed41ebc2d" x="380.514816" y="241.429248" style="fill-opacity: 0; stroke: #6495ed; stroke-width: 1.5; stroke-linejoin: miter"/>
    </g>
   </g>
   <g id="line2d_61">
    <path d="M 360.8064 236.882824 
L 380.514816 189.340416 
" style="fill: none; stroke: #ff7500; stroke-width: 1.5; stroke-linecap: square"/>
    <g>
     <use xlink:href="#mf0ae19d6d6" x="360.8064" y="236.882824" style="fill-opacity: 0; stroke: #ff7500; stroke-width: 1.5; stroke-linejoin: bevel"/>
     <use xlink:href="#mf0ae19d6d6" x="380.514816" y="189.340416" style="fill-opacity: 0; stroke: #ff7500; stroke-width: 1.5; stroke-linejoin: bevel"/>
    </g>
   </g>
   <g id="line2d_62">
    <path d="M 360.8064 76.942306 
L 380.514816 137.251584 
" style="fill: none; stroke: #ff00ff; stroke-width: 1.5; stroke-linecap: square"/>
    <g>
     <use xlink:href="#m409eae127e" x="360.8064" y="76.942306" style="fill-opacity: 0; stroke: #ff00ff; stroke-width: 1.5; stroke-linejoin: miter"/>
     <use xlink:href="#m409eae127e" x="380.514816" y="137.251584" style="fill-opacity: 0; stroke: #ff00ff; stroke-width: 1.5; stroke-linejoin: miter"/>
    </g>
   </g>
   <g id="line2d_63">
    <path d="M 360.8064 38.287059 
L 380.514816 85.162752 
" style="fill: none; stroke: #ff0000; stroke-width: 1.5; stroke-linecap: square"/>
    <g>
     <use xlink:href="#m3967acb267" x="360.8064" y="38.287059" style="fill-opacity: 0; stroke: #ff0000; stroke-width: 1.5; stroke-linejoin: miter"/>
     <use xlink:href="#m3967acb267" x="380.514816" y="85.162752" style="fill-opacity: 0; stroke: #ff0000; stroke-width: 1.5; stroke-linejoin: miter"/>
    </g>
   </g>
   <g id="line2d_64">
    <path d="M 360.8064 298.944 
L 360.8064 27.648 
" style="fill: none; stroke: #000000; stroke-width: 1.5; stroke-linecap: square"/>
   </g>
   <g id="patch_3">
    <path d="M 57.6 298.944 
L 360.8064 298.944 
" style="fill: none; stroke: #000000; stroke-width: 0.8; stroke-linejoin: miter; stroke-linecap: square"/>
   </g>
   <g id="patch_4">
    <path d="M 57.6 27.648 
L 360.8064 27.648 
" style="fill: none; stroke: #000000; stroke-width: 0.8; stroke-linejoin: miter; stroke-linecap: square"/>
   </g>
   <g id="text_13">
    <!-- cma0 -->
    <g transform="translate(386.578944 297.381205)scale(0.14 -0.14)">
     <use xlink:href="#DejaVuSans-63"/>
     <use xlink:href="#DejaVuSans-6d" x="54.980469"/>
     <use xlink:href="#DejaVuSans-61" x="152.392578"/>
     <use xlink:href="#DejaVuSans-30" x="213.671875"/>
    </g>
   </g>
   <g id="text_14">
    <!-- ddcma1 -->
    <g transform="translate(386.578944 245.292373)scale(0.14 -0.14)">
     <use xlink:href="#DejaVuSans-64"/>
     <use xlink:href="#DejaVuSans-64" x="63.476562"/>
     <use xlink:href="#DejaVuSans-63" x="126.953125"/>
     <use xlink:href="#DejaVuSans-6d" x="181.933594"/>
     <use xlink:href="#DejaVuSans-61" x="279.345703"/>
     <use xlink:href="#DejaVuSans-31" x="340.625"/>
    </g>
   </g>
   <g id="text_15">
    <!-- ddcma0 -->
    <g transform="translate(386.578944 193.203541)scale(0.14 -0.14)">
     <use xlink:href="#DejaVuSans-64"/>
     <use xlink:href="#DejaVuSans-64" x="63.476562"/>
     <use xlink:href="#DejaVuSans-63" x="126.953125"/>
     <use xlink:href="#DejaVuSans-6d" x="181.933594"/>
     <use xlink:href="#DejaVuSans-61" x="279.345703"/>
     <use xlink:href="#DejaVuSans-30" x="340.625"/>
    </g>
   </g>
   <g id="text_16">
    <!-- cma1 -->
    <g transform="translate(386.578944 141.114709)scale(0.14 -0.14)">
     <use xlink:href="#DejaVuSans-63"/>
     <use xlink:href="#DejaVuSans-6d" x="54.980469"/>
     <use xlink:href="#DejaVuSans-61" x="152.392578"/>
     <use xlink:href="#DejaVuSans-31" x="213.671875"/>
    </g>
   </g>
   <g id="text_17">
    <!-- CMA-ES-20 -->
    <g transform="translate(386.578944 89.025877)scale(0.14 -0.14)">
     <defs>
      <path id="DejaVuSans-43" d="M 4122 4306 
L 4122 3641 
Q 3803 3938 3442 4084 
Q 3081 4231 2675 4231 
Q 1875 4231 1450 3742 
Q 1025 3253 1025 2328 
Q 1025 1406 1450 917 
Q 1875 428 2675 428 
Q 3081 428 3442 575 
Q 3803 722 4122 1019 
L 4122 359 
Q 3791 134 3420 21 
Q 3050 -91 2638 -91 
Q 1578 -91 968 557 
Q 359 1206 359 2328 
Q 359 3453 968 4101 
Q 1578 4750 2638 4750 
Q 3056 4750 3426 4639 
Q 3797 4528 4122 4306 
z
" transform="scale(0.015625)"/>
      <path id="DejaVuSans-4d" d="M 628 4666 
L 1569 4666 
L 2759 1491 
L 3956 4666 
L 4897 4666 
L 4897 0 
L 4281 0 
L 4281 4097 
L 3078 897 
L 2444 897 
L 1241 4097 
L 1241 0 
L 628 0 
L 628 4666 
z
" transform="scale(0.015625)"/>
      <path id="DejaVuSans-41" d="M 2188 4044 
L 1331 1722 
L 3047 1722 
L 2188 4044 
z
M 1831 4666 
L 2547 4666 
L 4325 0 
L 3669 0 
L 3244 1197 
L 1141 1197 
L 716 0 
L 50 0 
L 1831 4666 
z
" transform="scale(0.015625)"/>
      <path id="DejaVuSans-45" d="M 628 4666 
L 3578 4666 
L 3578 4134 
L 1259 4134 
L 1259 2753 
L 3481 2753 
L 3481 2222 
L 1259 2222 
L 1259 531 
L 3634 531 
L 3634 0 
L 628 0 
L 628 4666 
z
" transform="scale(0.015625)"/>
      <path id="DejaVuSans-53" d="M 3425 4513 
L 3425 3897 
Q 3066 4069 2747 4153 
Q 2428 4238 2131 4238 
Q 1616 4238 1336 4038 
Q 1056 3838 1056 3469 
Q 1056 3159 1242 3001 
Q 1428 2844 1947 2747 
L 2328 2669 
Q 3034 2534 3370 2195 
Q 3706 1856 3706 1288 
Q 3706 609 3251 259 
Q 2797 -91 1919 -91 
Q 1588 -91 1214 -16 
Q 841 59 441 206 
L 441 856 
Q 825 641 1194 531 
Q 1563 422 1919 422 
Q 2459 422 2753 634 
Q 3047 847 3047 1241 
Q 3047 1584 2836 1778 
Q 2625 1972 2144 2069 
L 1759 2144 
Q 1053 2284 737 2584 
Q 422 2884 422 3419 
Q 422 4038 858 4394 
Q 1294 4750 2059 4750 
Q 2388 4750 2728 4690 
Q 3069 4631 3425 4513 
z
" transform="scale(0.015625)"/>
     </defs>
     <use xlink:href="#DejaVuSans-43"/>
     <use xlink:href="#DejaVuSans-4d" x="69.824219"/>
     <use xlink:href="#DejaVuSans-41" x="156.103516"/>
     <use xlink:href="#DejaVuSans-2d" x="222.261719"/>
     <use xlink:href="#DejaVuSans-45" x="258.345703"/>
     <use xlink:href="#DejaVuSans-53" x="321.529297"/>
     <use xlink:href="#DejaVuSans-2d" x="385.005859"/>
     <use xlink:href="#DejaVuSans-32" x="421.089844"/>
     <use xlink:href="#DejaVuSans-30" x="484.712891"/>
    </g>
   </g>
   <g id="text_18">
    <!-- best 2009 -->
    <g transform="translate(386.578944 36.937045)scale(0.14 -0.14)">
     <defs>
      <path id="DejaVuSans-62" d="M 3116 1747 
Q 3116 2381 2855 2742 
Q 2594 3103 2138 3103 
Q 1681 3103 1420 2742 
Q 1159 2381 1159 1747 
Q 1159 1113 1420 752 
Q 1681 391 2138 391 
Q 2594 391 2855 752 
Q 3116 1113 3116 1747 
z
M 1159 2969 
Q 1341 3281 1617 3432 
Q 1894 3584 2278 3584 
Q 2916 3584 3314 3078 
Q 3713 2572 3713 1747 
Q 3713 922 3314 415 
Q 2916 -91 2278 -91 
Q 1894 -91 1617 61 
Q 1341 213 1159 525 
L 1159 0 
L 581 0 
L 581 4863 
L 1159 4863 
L 1159 2969 
z
" transform="scale(0.015625)"/>
      <path id="DejaVuSans-39" d="M 703 97 
L 703 672 
Q 941 559 1184 500 
Q 1428 441 1663 441 
Q 2288 441 2617 861 
Q 2947 1281 2994 2138 
Q 2813 1869 2534 1725 
Q 2256 1581 1919 1581 
Q 1219 1581 811 2004 
Q 403 2428 403 3163 
Q 403 3881 828 4315 
Q 1253 4750 1959 4750 
Q 2769 4750 3195 4129 
Q 3622 3509 3622 2328 
Q 3622 1225 3098 567 
Q 2575 -91 1691 -91 
Q 1453 -91 1209 -44 
Q 966 3 703 97 
z
M 1959 2075 
Q 2384 2075 2632 2365 
Q 2881 2656 2881 3163 
Q 2881 3666 2632 3958 
Q 2384 4250 1959 4250 
Q 1534 4250 1286 3958 
Q 1038 3666 1038 3163 
Q 1038 2656 1286 2365 
Q 1534 2075 1959 2075 
z
" transform="scale(0.015625)"/>
     </defs>
     <use xlink:href="#DejaVuSans-62"/>
     <use xlink:href="#DejaVuSans-65" x="63.476562"/>
     <use xlink:href="#DejaVuSans-73" x="125"/>
     <use xlink:href="#DejaVuSans-74" x="177.099609"/>
     <use xlink:href="#DejaVuSans-20" x="216.308594"/>
     <use xlink:href="#DejaVuSans-32" x="248.095703"/>
     <use xlink:href="#DejaVuSans-30" x="311.71875"/>
     <use xlink:href="#DejaVuSans-30" x="375.341797"/>
     <use xlink:href="#DejaVuSans-39" x="438.964844"/>
    </g>
   </g>
   <g id="text_19">
    <!-- bbob f24, 40-D -->
    <g transform="translate(60.632064 38.111366)scale(0.102 -0.102)">
     <defs>
      <path id="DejaVuSans-44" d="M 1259 4147 
L 1259 519 
L 2022 519 
Q 2988 519 3436 956 
Q 3884 1394 3884 2338 
Q 3884 3275 3436 3711 
Q 2988 4147 2022 4147 
L 1259 4147 
z
M 628 4666 
L 1925 4666 
Q 3281 4666 3915 4102 
Q 4550 3538 4550 2338 
Q 4550 1131 3912 565 
Q 3275 0 1925 0 
L 628 0 
L 628 4666 
z
" transform="scale(0.015625)"/>
     </defs>
     <use xlink:href="#DejaVuSans-62"/>
     <use xlink:href="#DejaVuSans-62" x="63.476562"/>
     <use xlink:href="#DejaVuSans-6f" x="126.953125"/>
     <use xlink:href="#DejaVuSans-62" x="188.134766"/>
     <use xlink:href="#DejaVuSans-20" x="251.611328"/>
     <use xlink:href="#DejaVuSans-66" x="283.398438"/>
     <use xlink:href="#DejaVuSans-32" x="318.603516"/>
     <use xlink:href="#DejaVuSans-34" x="382.226562"/>
     <use xlink:href="#DejaVuSans-2c" x="445.849609"/>
     <use xlink:href="#DejaVuSans-20" x="477.636719"/>
     <use xlink:href="#DejaVuSans-34" x="509.423828"/>
     <use xlink:href="#DejaVuSans-30" x="573.046875"/>
     <use xlink:href="#DejaVuSans-2d" x="636.669922"/>
     <use xlink:href="#DejaVuSans-44" x="672.753906"/>
    </g>
    <!-- 51 targets: 100..1e-08 -->
    <g transform="translate(60.632064 49.533135)scale(0.102 -0.102)">
     <defs>
      <path id="DejaVuSans-35" d="M 691 4666 
L 3169 4666 
L 3169 4134 
L 1269 4134 
L 1269 2991 
Q 1406 3038 1543 3061 
Q 1681 3084 1819 3084 
Q 2600 3084 3056 2656 
Q 3513 2228 3513 1497 
Q 3513 744 3044 326 
Q 2575 -91 1722 -91 
Q 1428 -91 1123 -41 
Q 819 9 494 109 
L 494 744 
Q 775 591 1075 516 
Q 1375 441 1709 441 
Q 2250 441 2565 725 
Q 2881 1009 2881 1497 
Q 2881 1984 2565 2268 
Q 2250 2553 1709 2553 
Q 1456 2553 1204 2497 
Q 953 2441 691 2322 
L 691 4666 
z
" transform="scale(0.015625)"/>
      <path id="DejaVuSans-3a" d="M 750 794 
L 1409 794 
L 1409 0 
L 750 0 
L 750 794 
z
M 750 3309 
L 1409 3309 
L 1409 2516 
L 750 2516 
L 750 3309 
z
" transform="scale(0.015625)"/>
     </defs>
     <use xlink:href="#DejaVuSans-35"/>
     <use xlink:href="#DejaVuSans-31" x="63.623047"/>
     <use xlink:href="#DejaVuSans-20" x="127.246094"/>
     <use xlink:href="#DejaVuSans-74" x="159.033203"/>
     <use xlink:href="#DejaVuSans-61" x="198.242188"/>
     <use xlink:href="#DejaVuSans-72" x="259.521484"/>
     <use xlink:href="#DejaVuSans-67" x="298.884766"/>
     <use xlink:href="#DejaVuSans-65" x="362.361328"/>
     <use xlink:href="#DejaVuSans-74" x="423.884766"/>
     <use xlink:href="#DejaVuSans-73" x="463.09375"/>
     <use xlink:href="#DejaVuSans-3a" x="515.193359"/>
     <use xlink:href="#DejaVuSans-20" x="548.884766"/>
     <use xlink:href="#DejaVuSans-31" x="580.671875"/>
     <use xlink:href="#DejaVuSans-30" x="644.294922"/>
     <use xlink:href="#DejaVuSans-30" x="707.917969"/>
     <use xlink:href="#DejaVuSans-2e" x="771.541016"/>
     <use xlink:href="#DejaVuSans-2e" x="803.328125"/>
     <use xlink:href="#DejaVuSans-31" x="835.115234"/>
     <use xlink:href="#DejaVuSans-65" x="898.738281"/>
     <use xlink:href="#DejaVuSans-2d" x="960.261719"/>
     <use xlink:href="#DejaVuSans-30" x="996.345703"/>
     <use xlink:href="#DejaVuSans-38" x="1059.96875"/>
    </g>
    <!-- 15 instances -->
    <g transform="translate(60.632064 60.954904)scale(0.102 -0.102)">
     <use xlink:href="#DejaVuSans-31"/>
     <use xlink:href="#DejaVuSans-35" x="63.623047"/>
     <use xlink:href="#DejaVuSans-20" x="127.246094"/>
     <use xlink:href="#DejaVuSans-69" x="159.033203"/>
     <use xlink:href="#DejaVuSans-6e" x="186.816406"/>
     <use xlink:href="#DejaVuSans-73" x="250.195312"/>
     <use xlink:href="#DejaVuSans-74" x="302.294922"/>
     <use xlink:href="#DejaVuSans-61" x="341.503906"/>
     <use xlink:href="#DejaVuSans-6e" x="402.783203"/>
     <use xlink:href="#DejaVuSans-63" x="466.162109"/>
     <use xlink:href="#DejaVuSans-65" x="521.142578"/>
     <use xlink:href="#DejaVuSans-73" x="582.666016"/>
    </g>
   </g>
   <g id="text_20">
    <!-- v2.6 -->
    <g style="fill: #808080" transform="translate(198.292262 294.151352)scale(0.1 -0.1)">
     <use xlink:href="#DejaVuSans-76"/>
     <use xlink:href="#DejaVuSans-32" x="59.179688"/>
     <use xlink:href="#DejaVuSans-2e" x="122.802734"/>
     <use xlink:href="#DejaVuSans-36" x="154.589844"/>
    </g>
   </g>
   <g id="text_21">
    <!-- 24 Lunacek bi-Rastrigin -->
    <g transform="translate(91.411012 21.648)scale(0.2 -0.2)">
     <defs>
      <path id="DejaVuSans-4c" d="M 628 4666 
L 1259 4666 
L 1259 531 
L 3531 531 
L 3531 0 
L 628 0 
L 628 4666 
z
" transform="scale(0.015625)"/>
      <path id="DejaVuSans-6b" d="M 581 4863 
L 1159 4863 
L 1159 1991 
L 2875 3500 
L 3609 3500 
L 1753 1863 
L 3688 0 
L 2938 0 
L 1159 1709 
L 1159 0 
L 581 0 
L 581 4863 
z
" transform="scale(0.015625)"/>
      <path id="DejaVuSans-52" d="M 2841 2188 
Q 3044 2119 3236 1894 
Q 3428 1669 3622 1275 
L 4263 0 
L 3584 0 
L 2988 1197 
Q 2756 1666 2539 1819 
Q 2322 1972 1947 1972 
L 1259 1972 
L 1259 0 
L 628 0 
L 628 4666 
L 2053 4666 
Q 2853 4666 3247 4331 
Q 3641 3997 3641 3322 
Q 3641 2881 3436 2590 
Q 3231 2300 2841 2188 
z
M 1259 4147 
L 1259 2491 
L 2053 2491 
Q 2509 2491 2742 2702 
Q 2975 2913 2975 3322 
Q 2975 3731 2742 3939 
Q 2509 4147 2053 4147 
L 1259 4147 
z
" transform="scale(0.015625)"/>
     </defs>
     <use xlink:href="#DejaVuSans-32"/>
     <use xlink:href="#DejaVuSans-34" x="63.623047"/>
     <use xlink:href="#DejaVuSans-20" x="127.246094"/>
     <use xlink:href="#DejaVuSans-4c" x="159.033203"/>
     <use xlink:href="#DejaVuSans-75" x="212.996094"/>
     <use xlink:href="#DejaVuSans-6e" x="276.375"/>
     <use xlink:href="#DejaVuSans-61" x="339.753906"/>
     <use xlink:href="#DejaVuSans-63" x="401.033203"/>
     <use xlink:href="#DejaVuSans-65" x="456.013672"/>
     <use xlink:href="#DejaVuSans-6b" x="517.537109"/>
     <use xlink:href="#DejaVuSans-20" x="575.447266"/>
     <use xlink:href="#DejaVuSans-62" x="607.234375"/>
     <use xlink:href="#DejaVuSans-69" x="670.710938"/>
     <use xlink:href="#DejaVuSans-2d" x="698.494141"/>
     <use xlink:href="#DejaVuSans-52" x="734.578125"/>
     <use xlink:href="#DejaVuSans-61" x="801.810547"/>
     <use xlink:href="#DejaVuSans-73" x="863.089844"/>
     <use xlink:href="#DejaVuSans-74" x="915.189453"/>
     <use xlink:href="#DejaVuSans-72" x="954.398438"/>
     <use xlink:href="#DejaVuSans-69" x="995.511719"/>
     <use xlink:href="#DejaVuSans-67" x="1023.294922"/>
     <use xlink:href="#DejaVuSans-69" x="1086.771484"/>
     <use xlink:href="#DejaVuSans-6e" x="1114.554688"/>
    </g>
   </g>
  </g>
 </g>
 <defs>
  <clipPath id="p6be03baab1">
   <rect x="57.6" y="27.648" width="303.2064" height="271.296"/>
  </clipPath>
 </defs>
</svg>
