<?xml version="1.0" encoding="utf-8" standalone="no"?>
<!DOCTYPE svg PUBLIC "-//W3C//DTD SVG 1.1//EN"
  "http://www.w3.org/Graphics/SVG/1.1/DTD/svg11.dtd">
<svg xmlns:xlink="http://www.w3.org/1999/xlink" width="460.8pt" height="345.6pt" viewBox="0 0 460.8 345.6" xmlns="http://www.w3.org/2000/svg" version="1.1">
 <metadata>
  <rdf:RDF xmlns:dc="http://purl.org/dc/elements/1.1/" xmlns:cc="http://creativecommons.org/ns#" xmlns:rdf="http://www.w3.org/1999/02/22-rdf-syntax-ns#">
   <cc:Work>
    <dc:type rdf:resource="http://purl.org/dc/dcmitype/StillImage"/>
    <dc:date>2022-03-21T14:02:19.981827</dc:date>
    <dc:format>image/svg+xml</dc:format>
    <dc:creator>
     <cc:Agent>
      <dc:title>Matplotlib v3.5.1, https://matplotlib.org/</dc:title>
     </cc:Agent>
    </dc:creator>
   </cc:Work>
  </rdf:RDF>
 </metadata>
 <defs>
  <style type="text/css">*{stroke-linejoin: round; stroke-linecap: butt}</style>
 </defs>
 <g id="figure_1">
  <g id="patch_1">
   <path d="M 0 345.6 
L 460.8 345.6 
L 460.8 0 
L 0 0 
z
" style="fill: #ffffff"/>
  </g>
  <g id="axes_1">
   <g id="patch_2">
    <path d="M 57.6 298.944 
L 360.8064 298.944 
L 360.8064 27.648 
L 57.6 27.648 
z
" style="fill: #ffffff"/>
   </g>
   <g id="line2d_1">
    <path d="M 105.485395 298.944 
L 105.485395 293.624471 
L 111.280505 293.624471 
L 111.280505 288.304941 
L 111.602996 288.304941 
L 111.602996 282.985412 
L 153.519191 282.985412 
L 153.519191 277.665882 
L 157.442781 277.665882 
L 157.442781 272.346353 
L 161.713939 272.346353 
L 161.713939 267.026824 
L 166.546881 267.026824 
L 166.546881 261.707294 
L 169.237106 261.707294 
L 169.237106 256.387765 
L 169.378463 256.387765 
L 169.378463 251.068235 
L 169.388343 251.068235 
L 169.388343 245.748706 
L 169.408088 245.748706 
L 169.408088 240.429176 
L 169.425347 240.429176 
L 169.425347 235.109647 
L 169.427812 235.109647 
L 169.427812 224.470588 
L 169.430276 224.470588 
L 169.430276 208.512 
L 169.432739 208.512 
L 169.432739 203.192471 
L 169.435203 203.192471 
L 169.435203 181.914353 
L 169.440129 181.914353 
L 169.440129 176.594824 
L 169.442591 176.594824 
L 169.442591 171.275294 
L 169.445053 171.275294 
L 169.445053 165.955765 
L 169.449976 165.955765 
L 169.449976 155.316706 
L 169.452437 155.316706 
L 169.452437 144.677647 
L 169.454898 144.677647 
L 169.454898 118.08 
L 169.457359 118.08 
L 169.457359 102.121412 
L 169.459819 102.121412 
L 169.459819 91.482353 
L 169.462279 91.482353 
L 169.462279 86.162824 
L 169.464738 86.162824 
L 169.464738 70.204235 
L 169.467197 70.204235 
L 169.467197 59.565176 
L 169.469656 59.565176 
L 169.469656 54.245647 
L 169.472115 54.245647 
L 169.472115 32.967529 
L 169.474573 32.967529 
L 169.474573 27.648 
L 360.8064 27.648 
" style="fill: none; stroke: #f5deb3; stroke-width: 4; stroke-linecap: square"/>
   </g>
   <g id="line2d_2">
    <defs>
     <path id="me515eea4ca" d="M -0 7.778175 
L 7.778175 0 
L 0 -7.778175 
L -7.778175 -0 
z
" style="stroke: #f5deb3; stroke-width: 1.5; stroke-linejoin: miter"/>
    </defs>
    <g>
     <use xlink:href="#me515eea4ca" x="169.432739" y="203.192471" style="fill: #f5deb3; stroke: #f5deb3; stroke-width: 1.5; stroke-linejoin: miter"/>
     <use xlink:href="#me515eea4ca" x="169.464738" y="70.204235" style="fill: #f5deb3; stroke: #f5deb3; stroke-width: 1.5; stroke-linejoin: miter"/>
     <use xlink:href="#me515eea4ca" x="169.474573" y="27.648" style="fill: #f5deb3; stroke: #f5deb3; stroke-width: 1.5; stroke-linejoin: miter"/>
     <use xlink:href="#me515eea4ca" x="169.474573" y="27.648" style="fill: #f5deb3; stroke: #f5deb3; stroke-width: 1.5; stroke-linejoin: miter"/>
     <use xlink:href="#me515eea4ca" x="360.8064" y="27.648" style="fill: #f5deb3; stroke: #f5deb3; stroke-width: 1.5; stroke-linejoin: miter"/>
    </g>
   </g>
   <g id="line2d_3">
    <path style="fill: none; stroke: #f5deb3; stroke-width: 4; stroke-linecap: square"/>
    <g/>
   </g>
   <g id="line2d_4">
    <path d="M 360.8064 27.648 
L 380.514816 33.07392 
" style="fill: none; stroke: #f5deb3; stroke-width: 4; stroke-linecap: square"/>
    <g>
     <use xlink:href="#me515eea4ca" x="360.8064" y="27.648" style="fill: #f5deb3; stroke: #f5deb3; stroke-width: 1.5; stroke-linejoin: miter"/>
     <use xlink:href="#me515eea4ca" x="380.514816" y="33.07392" style="fill: #f5deb3; stroke: #f5deb3; stroke-width: 1.5; stroke-linejoin: miter"/>
    </g>
   </g>
   <g id="matplotlib.axis_1">
    <g id="xtick_1">
     <g id="line2d_5">
      <path d="M 57.6 298.944 
L 57.6 27.648 
" clip-path="url(#p5dc1102310)" style="fill: none; stroke: #b0b0b0; stroke-width: 0.8; stroke-linecap: square"/>
     </g>
     <g id="line2d_6">
      <defs>
       <path id="m31504d48f9" d="M 0 0 
L 0 3.5 
" style="stroke: #000000; stroke-width: 0.8"/>
      </defs>
      <g>
       <use xlink:href="#m31504d48f9" x="57.6" y="298.944" style="stroke: #000000; stroke-width: 0.8"/>
      </g>
     </g>
     <g id="text_1">
      <!-- 0 -->
      <g transform="translate(52.191875 318.861344)scale(0.17 -0.17)">
       <defs>
        <path id="DejaVuSans-30" d="M 2034 4250 
Q 1547 4250 1301 3770 
Q 1056 3291 1056 2328 
Q 1056 1369 1301 889 
Q 1547 409 2034 409 
Q 2525 409 2770 889 
Q 3016 1369 3016 2328 
Q 3016 3291 2770 3770 
Q 2525 4250 2034 4250 
z
M 2034 4750 
Q 2819 4750 3233 4129 
Q 3647 3509 3647 2328 
Q 3647 1150 3233 529 
Q 2819 -91 2034 -91 
Q 1250 -91 836 529 
Q 422 1150 422 2328 
Q 422 3509 836 4129 
Q 1250 4750 2034 4750 
z
" transform="scale(0.015625)"/>
       </defs>
       <use xlink:href="#DejaVuSans-30"/>
      </g>
     </g>
    </g>
    <g id="xtick_2">
     <g id="line2d_7">
      <path d="M 144.2304 298.944 
L 144.2304 27.648 
" clip-path="url(#p5dc1102310)" style="fill: none; stroke: #b0b0b0; stroke-width: 0.8; stroke-linecap: square"/>
     </g>
     <g id="line2d_8">
      <g>
       <use xlink:href="#m31504d48f9" x="144.2304" y="298.944" style="stroke: #000000; stroke-width: 0.8"/>
      </g>
     </g>
     <g id="text_2">
      <!-- 2 -->
      <g transform="translate(138.822275 318.861344)scale(0.17 -0.17)">
       <defs>
        <path id="DejaVuSans-32" d="M 1228 531 
L 3431 531 
L 3431 0 
L 469 0 
L 469 531 
Q 828 903 1448 1529 
Q 2069 2156 2228 2338 
Q 2531 2678 2651 2914 
Q 2772 3150 2772 3378 
Q 2772 3750 2511 3984 
Q 2250 4219 1831 4219 
Q 1534 4219 1204 4116 
Q 875 4013 500 3803 
L 500 4441 
Q 881 4594 1212 4672 
Q 1544 4750 1819 4750 
Q 2544 4750 2975 4387 
Q 3406 4025 3406 3419 
Q 3406 3131 3298 2873 
Q 3191 2616 2906 2266 
Q 2828 2175 2409 1742 
Q 1991 1309 1228 531 
z
" transform="scale(0.015625)"/>
       </defs>
       <use xlink:href="#DejaVuSans-32"/>
      </g>
     </g>
    </g>
    <g id="xtick_3">
     <g id="line2d_9">
      <path d="M 230.8608 298.944 
L 230.8608 27.648 
" clip-path="url(#p5dc1102310)" style="fill: none; stroke: #b0b0b0; stroke-width: 0.8; stroke-linecap: square"/>
     </g>
     <g id="line2d_10">
      <g>
       <use xlink:href="#m31504d48f9" x="230.8608" y="298.944" style="stroke: #000000; stroke-width: 0.8"/>
      </g>
     </g>
     <g id="text_3">
      <!-- 4 -->
      <g transform="translate(225.452675 318.861344)scale(0.17 -0.17)">
       <defs>
        <path id="DejaVuSans-34" d="M 2419 4116 
L 825 1625 
L 2419 1625 
L 2419 4116 
z
M 2253 4666 
L 3047 4666 
L 3047 1625 
L 3713 1625 
L 3713 1100 
L 3047 1100 
L 3047 0 
L 2419 0 
L 2419 1100 
L 313 1100 
L 313 1709 
L 2253 4666 
z
" transform="scale(0.015625)"/>
       </defs>
       <use xlink:href="#DejaVuSans-34"/>
      </g>
     </g>
    </g>
    <g id="xtick_4">
     <g id="line2d_11">
      <path d="M 317.4912 298.944 
L 317.4912 27.648 
" clip-path="url(#p5dc1102310)" style="fill: none; stroke: #b0b0b0; stroke-width: 0.8; stroke-linecap: square"/>
     </g>
     <g id="line2d_12">
      <g>
       <use xlink:href="#m31504d48f9" x="317.4912" y="298.944" style="stroke: #000000; stroke-width: 0.8"/>
      </g>
     </g>
     <g id="text_4">
      <!-- 6 -->
      <g transform="translate(312.083075 318.861344)scale(0.17 -0.17)">
       <defs>
        <path id="DejaVuSans-36" d="M 2113 2584 
Q 1688 2584 1439 2293 
Q 1191 2003 1191 1497 
Q 1191 994 1439 701 
Q 1688 409 2113 409 
Q 2538 409 2786 701 
Q 3034 994 3034 1497 
Q 3034 2003 2786 2293 
Q 2538 2584 2113 2584 
z
M 3366 4563 
L 3366 3988 
Q 3128 4100 2886 4159 
Q 2644 4219 2406 4219 
Q 1781 4219 1451 3797 
Q 1122 3375 1075 2522 
Q 1259 2794 1537 2939 
Q 1816 3084 2150 3084 
Q 2853 3084 3261 2657 
Q 3669 2231 3669 1497 
Q 3669 778 3244 343 
Q 2819 -91 2113 -91 
Q 1303 -91 875 529 
Q 447 1150 447 2328 
Q 447 3434 972 4092 
Q 1497 4750 2381 4750 
Q 2619 4750 2861 4703 
Q 3103 4656 3366 4563 
z
" transform="scale(0.015625)"/>
       </defs>
       <use xlink:href="#DejaVuSans-36"/>
      </g>
     </g>
    </g>
    <g id="xtick_5">
     <g id="line2d_13">
      <path d="M 100.9152 298.944 
L 100.9152 27.648 
" clip-path="url(#p5dc1102310)" style="fill: none; stroke: #b0b0b0; stroke-width: 0.8; stroke-linecap: square"/>
     </g>
     <g id="line2d_14">
      <defs>
       <path id="me89fdb25c1" d="M 0 0 
L 0 2 
" style="stroke: #000000; stroke-width: 0.6"/>
      </defs>
      <g>
       <use xlink:href="#me89fdb25c1" x="100.9152" y="298.944" style="stroke: #000000; stroke-width: 0.6"/>
      </g>
     </g>
    </g>
    <g id="xtick_6">
     <g id="line2d_15">
      <path d="M 187.5456 298.944 
L 187.5456 27.648 
" clip-path="url(#p5dc1102310)" style="fill: none; stroke: #b0b0b0; stroke-width: 0.8; stroke-linecap: square"/>
     </g>
     <g id="line2d_16">
      <g>
       <use xlink:href="#me89fdb25c1" x="187.5456" y="298.944" style="stroke: #000000; stroke-width: 0.6"/>
      </g>
     </g>
    </g>
    <g id="xtick_7">
     <g id="line2d_17">
      <path d="M 274.176 298.944 
L 274.176 27.648 
" clip-path="url(#p5dc1102310)" style="fill: none; stroke: #b0b0b0; stroke-width: 0.8; stroke-linecap: square"/>
     </g>
     <g id="line2d_18">
      <g>
       <use xlink:href="#me89fdb25c1" x="274.176" y="298.944" style="stroke: #000000; stroke-width: 0.6"/>
      </g>
     </g>
    </g>
    <g id="xtick_8">
     <g id="line2d_19">
      <path d="M 360.8064 298.944 
L 360.8064 27.648 
" clip-path="url(#p5dc1102310)" style="fill: none; stroke: #b0b0b0; stroke-width: 0.8; stroke-linecap: square"/>
     </g>
     <g id="line2d_20">
      <g>
       <use xlink:href="#me89fdb25c1" x="360.8064" y="298.944" style="stroke: #000000; stroke-width: 0.6"/>
      </g>
     </g>
    </g>
    <g id="text_5">
     <!-- log10(# f-evals / dimension) -->
     <g transform="translate(88.823278 339.314156)scale(0.17 -0.17)">
      <defs>
       <path id="DejaVuSans-6c" d="M 603 4863 
L 1178 4863 
L 1178 0 
L 603 0 
L 603 4863 
z
" transform="scale(0.015625)"/>
       <path id="DejaVuSans-6f" d="M 1959 3097 
Q 1497 3097 1228 2736 
Q 959 2375 959 1747 
Q 959 1119 1226 758 
Q 1494 397 1959 397 
Q 2419 397 2687 759 
Q 2956 1122 2956 1747 
Q 2956 2369 2687 2733 
Q 2419 3097 1959 3097 
z
M 1959 3584 
Q 2709 3584 3137 3096 
Q 3566 2609 3566 1747 
Q 3566 888 3137 398 
Q 2709 -91 1959 -91 
Q 1206 -91 779 398 
Q 353 888 353 1747 
Q 353 2609 779 3096 
Q 1206 3584 1959 3584 
z
" transform="scale(0.015625)"/>
       <path id="DejaVuSans-67" d="M 2906 1791 
Q 2906 2416 2648 2759 
Q 2391 3103 1925 3103 
Q 1463 3103 1205 2759 
Q 947 2416 947 1791 
Q 947 1169 1205 825 
Q 1463 481 1925 481 
Q 2391 481 2648 825 
Q 2906 1169 2906 1791 
z
M 3481 434 
Q 3481 -459 3084 -895 
Q 2688 -1331 1869 -1331 
Q 1566 -1331 1297 -1286 
Q 1028 -1241 775 -1147 
L 775 -588 
Q 1028 -725 1275 -790 
Q 1522 -856 1778 -856 
Q 2344 -856 2625 -561 
Q 2906 -266 2906 331 
L 2906 616 
Q 2728 306 2450 153 
Q 2172 0 1784 0 
Q 1141 0 747 490 
Q 353 981 353 1791 
Q 353 2603 747 3093 
Q 1141 3584 1784 3584 
Q 2172 3584 2450 3431 
Q 2728 3278 2906 2969 
L 2906 3500 
L 3481 3500 
L 3481 434 
z
" transform="scale(0.015625)"/>
       <path id="DejaVuSans-31" d="M 794 531 
L 1825 531 
L 1825 4091 
L 703 3866 
L 703 4441 
L 1819 4666 
L 2450 4666 
L 2450 531 
L 3481 531 
L 3481 0 
L 794 0 
L 794 531 
z
" transform="scale(0.015625)"/>
       <path id="DejaVuSans-28" d="M 1984 4856 
Q 1566 4138 1362 3434 
Q 1159 2731 1159 2009 
Q 1159 1288 1364 580 
Q 1569 -128 1984 -844 
L 1484 -844 
Q 1016 -109 783 600 
Q 550 1309 550 2009 
Q 550 2706 781 3412 
Q 1013 4119 1484 4856 
L 1984 4856 
z
" transform="scale(0.015625)"/>
       <path id="DejaVuSans-23" d="M 3272 2816 
L 2363 2816 
L 2100 1772 
L 3016 1772 
L 3272 2816 
z
M 2803 4594 
L 2478 3297 
L 3391 3297 
L 3719 4594 
L 4219 4594 
L 3897 3297 
L 4872 3297 
L 4872 2816 
L 3775 2816 
L 3519 1772 
L 4513 1772 
L 4513 1294 
L 3397 1294 
L 3072 0 
L 2572 0 
L 2894 1294 
L 1978 1294 
L 1656 0 
L 1153 0 
L 1478 1294 
L 494 1294 
L 494 1772 
L 1594 1772 
L 1856 2816 
L 850 2816 
L 850 3297 
L 1978 3297 
L 2297 4594 
L 2803 4594 
z
" transform="scale(0.015625)"/>
       <path id="DejaVuSans-20" transform="scale(0.015625)"/>
       <path id="DejaVuSans-66" d="M 2375 4863 
L 2375 4384 
L 1825 4384 
Q 1516 4384 1395 4259 
Q 1275 4134 1275 3809 
L 1275 3500 
L 2222 3500 
L 2222 3053 
L 1275 3053 
L 1275 0 
L 697 0 
L 697 3053 
L 147 3053 
L 147 3500 
L 697 3500 
L 697 3744 
Q 697 4328 969 4595 
Q 1241 4863 1831 4863 
L 2375 4863 
z
" transform="scale(0.015625)"/>
       <path id="DejaVuSans-2d" d="M 313 2009 
L 1997 2009 
L 1997 1497 
L 313 1497 
L 313 2009 
z
" transform="scale(0.015625)"/>
       <path id="DejaVuSans-65" d="M 3597 1894 
L 3597 1613 
L 953 1613 
Q 991 1019 1311 708 
Q 1631 397 2203 397 
Q 2534 397 2845 478 
Q 3156 559 3463 722 
L 3463 178 
Q 3153 47 2828 -22 
Q 2503 -91 2169 -91 
Q 1331 -91 842 396 
Q 353 884 353 1716 
Q 353 2575 817 3079 
Q 1281 3584 2069 3584 
Q 2775 3584 3186 3129 
Q 3597 2675 3597 1894 
z
M 3022 2063 
Q 3016 2534 2758 2815 
Q 2500 3097 2075 3097 
Q 1594 3097 1305 2825 
Q 1016 2553 972 2059 
L 3022 2063 
z
" transform="scale(0.015625)"/>
       <path id="DejaVuSans-76" d="M 191 3500 
L 800 3500 
L 1894 563 
L 2988 3500 
L 3597 3500 
L 2284 0 
L 1503 0 
L 191 3500 
z
" transform="scale(0.015625)"/>
       <path id="DejaVuSans-61" d="M 2194 1759 
Q 1497 1759 1228 1600 
Q 959 1441 959 1056 
Q 959 750 1161 570 
Q 1363 391 1709 391 
Q 2188 391 2477 730 
Q 2766 1069 2766 1631 
L 2766 1759 
L 2194 1759 
z
M 3341 1997 
L 3341 0 
L 2766 0 
L 2766 531 
Q 2569 213 2275 61 
Q 1981 -91 1556 -91 
Q 1019 -91 701 211 
Q 384 513 384 1019 
Q 384 1609 779 1909 
Q 1175 2209 1959 2209 
L 2766 2209 
L 2766 2266 
Q 2766 2663 2505 2880 
Q 2244 3097 1772 3097 
Q 1472 3097 1187 3025 
Q 903 2953 641 2809 
L 641 3341 
Q 956 3463 1253 3523 
Q 1550 3584 1831 3584 
Q 2591 3584 2966 3190 
Q 3341 2797 3341 1997 
z
" transform="scale(0.015625)"/>
       <path id="DejaVuSans-73" d="M 2834 3397 
L 2834 2853 
Q 2591 2978 2328 3040 
Q 2066 3103 1784 3103 
Q 1356 3103 1142 2972 
Q 928 2841 928 2578 
Q 928 2378 1081 2264 
Q 1234 2150 1697 2047 
L 1894 2003 
Q 2506 1872 2764 1633 
Q 3022 1394 3022 966 
Q 3022 478 2636 193 
Q 2250 -91 1575 -91 
Q 1294 -91 989 -36 
Q 684 19 347 128 
L 347 722 
Q 666 556 975 473 
Q 1284 391 1588 391 
Q 1994 391 2212 530 
Q 2431 669 2431 922 
Q 2431 1156 2273 1281 
Q 2116 1406 1581 1522 
L 1381 1569 
Q 847 1681 609 1914 
Q 372 2147 372 2553 
Q 372 3047 722 3315 
Q 1072 3584 1716 3584 
Q 2034 3584 2315 3537 
Q 2597 3491 2834 3397 
z
" transform="scale(0.015625)"/>
       <path id="DejaVuSans-2f" d="M 1625 4666 
L 2156 4666 
L 531 -594 
L 0 -594 
L 1625 4666 
z
" transform="scale(0.015625)"/>
       <path id="DejaVuSans-64" d="M 2906 2969 
L 2906 4863 
L 3481 4863 
L 3481 0 
L 2906 0 
L 2906 525 
Q 2725 213 2448 61 
Q 2172 -91 1784 -91 
Q 1150 -91 751 415 
Q 353 922 353 1747 
Q 353 2572 751 3078 
Q 1150 3584 1784 3584 
Q 2172 3584 2448 3432 
Q 2725 3281 2906 2969 
z
M 947 1747 
Q 947 1113 1208 752 
Q 1469 391 1925 391 
Q 2381 391 2643 752 
Q 2906 1113 2906 1747 
Q 2906 2381 2643 2742 
Q 2381 3103 1925 3103 
Q 1469 3103 1208 2742 
Q 947 2381 947 1747 
z
" transform="scale(0.015625)"/>
       <path id="DejaVuSans-69" d="M 603 3500 
L 1178 3500 
L 1178 0 
L 603 0 
L 603 3500 
z
M 603 4863 
L 1178 4863 
L 1178 4134 
L 603 4134 
L 603 4863 
z
" transform="scale(0.015625)"/>
       <path id="DejaVuSans-6d" d="M 3328 2828 
Q 3544 3216 3844 3400 
Q 4144 3584 4550 3584 
Q 5097 3584 5394 3201 
Q 5691 2819 5691 2113 
L 5691 0 
L 5113 0 
L 5113 2094 
Q 5113 2597 4934 2840 
Q 4756 3084 4391 3084 
Q 3944 3084 3684 2787 
Q 3425 2491 3425 1978 
L 3425 0 
L 2847 0 
L 2847 2094 
Q 2847 2600 2669 2842 
Q 2491 3084 2119 3084 
Q 1678 3084 1418 2786 
Q 1159 2488 1159 1978 
L 1159 0 
L 581 0 
L 581 3500 
L 1159 3500 
L 1159 2956 
Q 1356 3278 1631 3431 
Q 1906 3584 2284 3584 
Q 2666 3584 2933 3390 
Q 3200 3197 3328 2828 
z
" transform="scale(0.015625)"/>
       <path id="DejaVuSans-6e" d="M 3513 2113 
L 3513 0 
L 2938 0 
L 2938 2094 
Q 2938 2591 2744 2837 
Q 2550 3084 2163 3084 
Q 1697 3084 1428 2787 
Q 1159 2491 1159 1978 
L 1159 0 
L 581 0 
L 581 3500 
L 1159 3500 
L 1159 2956 
Q 1366 3272 1645 3428 
Q 1925 3584 2291 3584 
Q 2894 3584 3203 3211 
Q 3513 2838 3513 2113 
z
" transform="scale(0.015625)"/>
       <path id="DejaVuSans-29" d="M 513 4856 
L 1013 4856 
Q 1481 4119 1714 3412 
Q 1947 2706 1947 2009 
Q 1947 1309 1714 600 
Q 1481 -109 1013 -844 
L 513 -844 
Q 928 -128 1133 580 
Q 1338 1288 1338 2009 
Q 1338 2731 1133 3434 
Q 928 4138 513 4856 
z
" transform="scale(0.015625)"/>
      </defs>
      <use xlink:href="#DejaVuSans-6c"/>
      <use xlink:href="#DejaVuSans-6f" x="27.783203"/>
      <use xlink:href="#DejaVuSans-67" x="88.964844"/>
      <use xlink:href="#DejaVuSans-31" x="152.441406"/>
      <use xlink:href="#DejaVuSans-30" x="216.064453"/>
      <use xlink:href="#DejaVuSans-28" x="279.6875"/>
      <use xlink:href="#DejaVuSans-23" x="318.701172"/>
      <use xlink:href="#DejaVuSans-20" x="402.490234"/>
      <use xlink:href="#DejaVuSans-66" x="434.277344"/>
      <use xlink:href="#DejaVuSans-2d" x="463.982422"/>
      <use xlink:href="#DejaVuSans-65" x="500.066406"/>
      <use xlink:href="#DejaVuSans-76" x="561.589844"/>
      <use xlink:href="#DejaVuSans-61" x="620.769531"/>
      <use xlink:href="#DejaVuSans-6c" x="682.048828"/>
      <use xlink:href="#DejaVuSans-73" x="709.832031"/>
      <use xlink:href="#DejaVuSans-20" x="761.931641"/>
      <use xlink:href="#DejaVuSans-2f" x="793.71875"/>
      <use xlink:href="#DejaVuSans-20" x="827.410156"/>
      <use xlink:href="#DejaVuSans-64" x="859.197266"/>
      <use xlink:href="#DejaVuSans-69" x="922.673828"/>
      <use xlink:href="#DejaVuSans-6d" x="950.457031"/>
      <use xlink:href="#DejaVuSans-65" x="1047.869141"/>
      <use xlink:href="#DejaVuSans-6e" x="1109.392578"/>
      <use xlink:href="#DejaVuSans-73" x="1172.771484"/>
      <use xlink:href="#DejaVuSans-69" x="1224.871094"/>
      <use xlink:href="#DejaVuSans-6f" x="1252.654297"/>
      <use xlink:href="#DejaVuSans-6e" x="1313.835938"/>
      <use xlink:href="#DejaVuSans-29" x="1377.214844"/>
     </g>
    </g>
   </g>
   <g id="matplotlib.axis_2">
    <g id="ytick_1">
     <g id="line2d_21">
      <path d="M 57.6 298.944 
L 360.8064 298.944 
" clip-path="url(#p5dc1102310)" style="fill: none; stroke: #b0b0b0; stroke-width: 0.8; stroke-linecap: square"/>
     </g>
     <g id="line2d_22">
      <defs>
       <path id="m0f72c721d4" d="M 0 0 
L -3.5 0 
" style="stroke: #000000; stroke-width: 0.8"/>
      </defs>
      <g>
       <use xlink:href="#m0f72c721d4" x="57.6" y="298.944" style="stroke: #000000; stroke-width: 0.8"/>
      </g>
     </g>
     <g id="text_6">
      <!-- 0.0 -->
      <g transform="translate(25.155 305.02275)scale(0.16 -0.16)">
       <defs>
        <path id="DejaVuSans-2e" d="M 684 794 
L 1344 794 
L 1344 0 
L 684 0 
L 684 794 
z
" transform="scale(0.015625)"/>
       </defs>
       <use xlink:href="#DejaVuSans-30"/>
       <use xlink:href="#DejaVuSans-2e" x="63.623047"/>
       <use xlink:href="#DejaVuSans-30" x="95.410156"/>
      </g>
     </g>
    </g>
    <g id="ytick_2">
     <g id="line2d_23">
      <path d="M 57.6 244.6848 
L 360.8064 244.6848 
" clip-path="url(#p5dc1102310)" style="fill: none; stroke: #b0b0b0; stroke-width: 0.8; stroke-linecap: square"/>
     </g>
     <g id="line2d_24">
      <g>
       <use xlink:href="#m0f72c721d4" x="57.6" y="244.6848" style="stroke: #000000; stroke-width: 0.8"/>
      </g>
     </g>
     <g id="text_7">
      <!-- 0.2 -->
      <g transform="translate(25.155 250.76355)scale(0.16 -0.16)">
       <use xlink:href="#DejaVuSans-30"/>
       <use xlink:href="#DejaVuSans-2e" x="63.623047"/>
       <use xlink:href="#DejaVuSans-32" x="95.410156"/>
      </g>
     </g>
    </g>
    <g id="ytick_3">
     <g id="line2d_25">
      <path d="M 57.6 190.4256 
L 360.8064 190.4256 
" clip-path="url(#p5dc1102310)" style="fill: none; stroke: #b0b0b0; stroke-width: 0.8; stroke-linecap: square"/>
     </g>
     <g id="line2d_26">
      <g>
       <use xlink:href="#m0f72c721d4" x="57.6" y="190.4256" style="stroke: #000000; stroke-width: 0.8"/>
      </g>
     </g>
     <g id="text_8">
      <!-- 0.4 -->
      <g transform="translate(25.155 196.50435)scale(0.16 -0.16)">
       <use xlink:href="#DejaVuSans-30"/>
       <use xlink:href="#DejaVuSans-2e" x="63.623047"/>
       <use xlink:href="#DejaVuSans-34" x="95.410156"/>
      </g>
     </g>
    </g>
    <g id="ytick_4">
     <g id="line2d_27">
      <path d="M 57.6 136.1664 
L 360.8064 136.1664 
" clip-path="url(#p5dc1102310)" style="fill: none; stroke: #b0b0b0; stroke-width: 0.8; stroke-linecap: square"/>
     </g>
     <g id="line2d_28">
      <g>
       <use xlink:href="#m0f72c721d4" x="57.6" y="136.1664" style="stroke: #000000; stroke-width: 0.8"/>
      </g>
     </g>
     <g id="text_9">
      <!-- 0.6 -->
      <g transform="translate(25.155 142.24515)scale(0.16 -0.16)">
       <use xlink:href="#DejaVuSans-30"/>
       <use xlink:href="#DejaVuSans-2e" x="63.623047"/>
       <use xlink:href="#DejaVuSans-36" x="95.410156"/>
      </g>
     </g>
    </g>
    <g id="ytick_5">
     <g id="line2d_29">
      <path d="M 57.6 81.9072 
L 360.8064 81.9072 
" clip-path="url(#p5dc1102310)" style="fill: none; stroke: #b0b0b0; stroke-width: 0.8; stroke-linecap: square"/>
     </g>
     <g id="line2d_30">
      <g>
       <use xlink:href="#m0f72c721d4" x="57.6" y="81.9072" style="stroke: #000000; stroke-width: 0.8"/>
      </g>
     </g>
     <g id="text_10">
      <!-- 0.8 -->
      <g transform="translate(25.155 87.98595)scale(0.16 -0.16)">
       <defs>
        <path id="DejaVuSans-38" d="M 2034 2216 
Q 1584 2216 1326 1975 
Q 1069 1734 1069 1313 
Q 1069 891 1326 650 
Q 1584 409 2034 409 
Q 2484 409 2743 651 
Q 3003 894 3003 1313 
Q 3003 1734 2745 1975 
Q 2488 2216 2034 2216 
z
M 1403 2484 
Q 997 2584 770 2862 
Q 544 3141 544 3541 
Q 544 4100 942 4425 
Q 1341 4750 2034 4750 
Q 2731 4750 3128 4425 
Q 3525 4100 3525 3541 
Q 3525 3141 3298 2862 
Q 3072 2584 2669 2484 
Q 3125 2378 3379 2068 
Q 3634 1759 3634 1313 
Q 3634 634 3220 271 
Q 2806 -91 2034 -91 
Q 1263 -91 848 271 
Q 434 634 434 1313 
Q 434 1759 690 2068 
Q 947 2378 1403 2484 
z
M 1172 3481 
Q 1172 3119 1398 2916 
Q 1625 2713 2034 2713 
Q 2441 2713 2670 2916 
Q 2900 3119 2900 3481 
Q 2900 3844 2670 4047 
Q 2441 4250 2034 4250 
Q 1625 4250 1398 4047 
Q 1172 3844 1172 3481 
z
" transform="scale(0.015625)"/>
       </defs>
       <use xlink:href="#DejaVuSans-30"/>
       <use xlink:href="#DejaVuSans-2e" x="63.623047"/>
       <use xlink:href="#DejaVuSans-38" x="95.410156"/>
      </g>
     </g>
    </g>
    <g id="ytick_6">
     <g id="line2d_31">
      <path d="M 57.6 27.648 
L 360.8064 27.648 
" clip-path="url(#p5dc1102310)" style="fill: none; stroke: #b0b0b0; stroke-width: 0.8; stroke-linecap: square"/>
     </g>
     <g id="line2d_32">
      <g>
       <use xlink:href="#m0f72c721d4" x="57.6" y="27.648" style="stroke: #000000; stroke-width: 0.8"/>
      </g>
     </g>
     <g id="text_11">
      <!-- 1.0 -->
      <g transform="translate(25.155 33.72675)scale(0.16 -0.16)">
       <use xlink:href="#DejaVuSans-31"/>
       <use xlink:href="#DejaVuSans-2e" x="63.623047"/>
       <use xlink:href="#DejaVuSans-30" x="95.410156"/>
      </g>
     </g>
    </g>
    <g id="text_12">
     <!-- Fraction of function,target pairs -->
     <g transform="translate(17.619531 297.681)rotate(-90)scale(0.17 -0.17)">
      <defs>
       <path id="DejaVuSans-46" d="M 628 4666 
L 3309 4666 
L 3309 4134 
L 1259 4134 
L 1259 2759 
L 3109 2759 
L 3109 2228 
L 1259 2228 
L 1259 0 
L 628 0 
L 628 4666 
z
" transform="scale(0.015625)"/>
       <path id="DejaVuSans-72" d="M 2631 2963 
Q 2534 3019 2420 3045 
Q 2306 3072 2169 3072 
Q 1681 3072 1420 2755 
Q 1159 2438 1159 1844 
L 1159 0 
L 581 0 
L 581 3500 
L 1159 3500 
L 1159 2956 
Q 1341 3275 1631 3429 
Q 1922 3584 2338 3584 
Q 2397 3584 2469 3576 
Q 2541 3569 2628 3553 
L 2631 2963 
z
" transform="scale(0.015625)"/>
       <path id="DejaVuSans-63" d="M 3122 3366 
L 3122 2828 
Q 2878 2963 2633 3030 
Q 2388 3097 2138 3097 
Q 1578 3097 1268 2742 
Q 959 2388 959 1747 
Q 959 1106 1268 751 
Q 1578 397 2138 397 
Q 2388 397 2633 464 
Q 2878 531 3122 666 
L 3122 134 
Q 2881 22 2623 -34 
Q 2366 -91 2075 -91 
Q 1284 -91 818 406 
Q 353 903 353 1747 
Q 353 2603 823 3093 
Q 1294 3584 2113 3584 
Q 2378 3584 2631 3529 
Q 2884 3475 3122 3366 
z
" transform="scale(0.015625)"/>
       <path id="DejaVuSans-74" d="M 1172 4494 
L 1172 3500 
L 2356 3500 
L 2356 3053 
L 1172 3053 
L 1172 1153 
Q 1172 725 1289 603 
Q 1406 481 1766 481 
L 2356 481 
L 2356 0 
L 1766 0 
Q 1100 0 847 248 
Q 594 497 594 1153 
L 594 3053 
L 172 3053 
L 172 3500 
L 594 3500 
L 594 4494 
L 1172 4494 
z
" transform="scale(0.015625)"/>
       <path id="DejaVuSans-75" d="M 544 1381 
L 544 3500 
L 1119 3500 
L 1119 1403 
Q 1119 906 1312 657 
Q 1506 409 1894 409 
Q 2359 409 2629 706 
Q 2900 1003 2900 1516 
L 2900 3500 
L 3475 3500 
L 3475 0 
L 2900 0 
L 2900 538 
Q 2691 219 2414 64 
Q 2138 -91 1772 -91 
Q 1169 -91 856 284 
Q 544 659 544 1381 
z
M 1991 3584 
L 1991 3584 
z
" transform="scale(0.015625)"/>
       <path id="DejaVuSans-2c" d="M 750 794 
L 1409 794 
L 1409 256 
L 897 -744 
L 494 -744 
L 750 256 
L 750 794 
z
" transform="scale(0.015625)"/>
       <path id="DejaVuSans-70" d="M 1159 525 
L 1159 -1331 
L 581 -1331 
L 581 3500 
L 1159 3500 
L 1159 2969 
Q 1341 3281 1617 3432 
Q 1894 3584 2278 3584 
Q 2916 3584 3314 3078 
Q 3713 2572 3713 1747 
Q 3713 922 3314 415 
Q 2916 -91 2278 -91 
Q 1894 -91 1617 61 
Q 1341 213 1159 525 
z
M 3116 1747 
Q 3116 2381 2855 2742 
Q 2594 3103 2138 3103 
Q 1681 3103 1420 2742 
Q 1159 2381 1159 1747 
Q 1159 1113 1420 752 
Q 1681 391 2138 391 
Q 2594 391 2855 752 
Q 3116 1113 3116 1747 
z
" transform="scale(0.015625)"/>
      </defs>
      <use xlink:href="#DejaVuSans-46"/>
      <use xlink:href="#DejaVuSans-72" x="50.269531"/>
      <use xlink:href="#DejaVuSans-61" x="91.382812"/>
      <use xlink:href="#DejaVuSans-63" x="152.662109"/>
      <use xlink:href="#DejaVuSans-74" x="207.642578"/>
      <use xlink:href="#DejaVuSans-69" x="246.851562"/>
      <use xlink:href="#DejaVuSans-6f" x="274.634766"/>
      <use xlink:href="#DejaVuSans-6e" x="335.816406"/>
      <use xlink:href="#DejaVuSans-20" x="399.195312"/>
      <use xlink:href="#DejaVuSans-6f" x="430.982422"/>
      <use xlink:href="#DejaVuSans-66" x="492.164062"/>
      <use xlink:href="#DejaVuSans-20" x="527.369141"/>
      <use xlink:href="#DejaVuSans-66" x="559.15625"/>
      <use xlink:href="#DejaVuSans-75" x="594.361328"/>
      <use xlink:href="#DejaVuSans-6e" x="657.740234"/>
      <use xlink:href="#DejaVuSans-63" x="721.119141"/>
      <use xlink:href="#DejaVuSans-74" x="776.099609"/>
      <use xlink:href="#DejaVuSans-69" x="815.308594"/>
      <use xlink:href="#DejaVuSans-6f" x="843.091797"/>
      <use xlink:href="#DejaVuSans-6e" x="904.273438"/>
      <use xlink:href="#DejaVuSans-2c" x="967.652344"/>
      <use xlink:href="#DejaVuSans-74" x="999.439453"/>
      <use xlink:href="#DejaVuSans-61" x="1038.648438"/>
      <use xlink:href="#DejaVuSans-72" x="1099.927734"/>
      <use xlink:href="#DejaVuSans-67" x="1139.291016"/>
      <use xlink:href="#DejaVuSans-65" x="1202.767578"/>
      <use xlink:href="#DejaVuSans-74" x="1264.291016"/>
      <use xlink:href="#DejaVuSans-20" x="1303.5"/>
      <use xlink:href="#DejaVuSans-70" x="1335.287109"/>
      <use xlink:href="#DejaVuSans-61" x="1398.763672"/>
      <use xlink:href="#DejaVuSans-69" x="1460.042969"/>
      <use xlink:href="#DejaVuSans-72" x="1487.826172"/>
      <use xlink:href="#DejaVuSans-73" x="1528.939453"/>
     </g>
    </g>
   </g>
   <g id="line2d_33">
    <defs>
     <path id="m247adbc911" d="M 0 1.5 
C 0.397805 1.5 0.77937 1.341951 1.06066 1.06066 
C 1.341951 0.77937 1.5 0.397805 1.5 0 
C 1.5 -0.397805 1.341951 -0.77937 1.06066 -1.06066 
C 0.77937 -1.341951 0.397805 -1.5 0 -1.5 
C -0.397805 -1.5 -0.77937 -1.341951 -1.06066 -1.06066 
C -1.341951 -0.77937 -1.5 -0.397805 -1.5 0 
C -1.5 0.397805 -1.341951 0.77937 -1.06066 1.06066 
C -0.77937 1.341951 -0.397805 1.5 0 1.5 
z
" style="stroke: #f5deb3"/>
    </defs>
    <g>
     <use xlink:href="#m247adbc911" x="169.474573" y="27.648" style="fill: #f5deb3; stroke: #f5deb3"/>
     <use xlink:href="#m247adbc911" x="169.474573" y="27.648" style="fill: #f5deb3; stroke: #f5deb3"/>
    </g>
   </g>
   <g id="line2d_34">
    <defs>
     <path id="m050bd1db3f" d="M 0 1.5 
C 0.397805 1.5 0.77937 1.341951 1.06066 1.06066 
C 1.341951 0.77937 1.5 0.397805 1.5 0 
C 1.5 -0.397805 1.341951 -0.77937 1.06066 -1.06066 
C 0.77937 -1.341951 0.397805 -1.5 0 -1.5 
C -0.397805 -1.5 -0.77937 -1.341951 -1.06066 -1.06066 
C -1.341951 -0.77937 -1.5 -0.397805 -1.5 0 
C -1.5 0.397805 -1.341951 0.77937 -1.06066 1.06066 
C -0.77937 1.341951 -0.397805 1.5 0 1.5 
z
" style="stroke: #000080"/>
    </defs>
    <g>
     <use xlink:href="#m050bd1db3f" x="265.608589" y="272.346353" style="fill: #000080; stroke: #000080"/>
     <use xlink:href="#m050bd1db3f" x="265.608589" y="272.346353" style="fill: #000080; stroke: #000080"/>
    </g>
   </g>
   <g id="line2d_35">
    <path d="M 138.956102 298.944 
L 138.956102 297.880094 
L 139.423341 297.880094 
L 139.423341 296.816188 
L 141.67542 296.816188 
L 141.67542 295.752282 
L 142.538777 295.752282 
L 142.538777 294.688376 
L 142.814596 294.688376 
L 142.814596 293.624471 
L 143.763777 293.624471 
L 143.763777 292.560565 
L 143.82154 292.560565 
L 143.82154 291.496659 
L 144.27737 291.496659 
L 144.27737 290.432753 
L 144.91386 290.432753 
L 144.91386 289.368847 
L 144.968202 289.368847 
L 144.968202 288.304941 
L 145.184016 288.304941 
L 145.184016 287.241035 
L 146.370685 287.241035 
L 146.370685 286.177129 
L 147.769567 286.177129 
L 147.769567 285.113224 
L 149.288477 285.113224 
L 149.288477 284.049318 
L 173.324433 284.049318 
L 173.324433 282.985412 
L 184.6613 282.985412 
L 184.6613 281.921506 
L 184.905312 281.921506 
L 184.905312 280.8576 
L 199.618878 280.8576 
L 199.618878 279.793694 
L 202.642615 279.793694 
L 202.642615 278.729788 
L 203.134821 278.729788 
L 203.134821 277.665882 
L 205.445583 277.665882 
L 205.445583 276.601976 
L 208.351207 276.601976 
L 208.351207 275.538071 
L 216.556319 275.538071 
L 216.556319 274.474165 
L 234.249592 274.474165 
L 234.249592 273.410259 
L 265.608589 273.410259 
L 265.608589 272.346353 
L 360.8064 272.346353 
" style="fill: none; stroke: #000080; stroke-width: 1.5; stroke-linecap: square"/>
   </g>
   <g id="line2d_36">
    <defs>
     <path id="m25a354b753" d="M 0 6 
C 1.591219 6 3.117479 5.367802 4.242641 4.242641 
C 5.367802 3.117479 6 1.591219 6 0 
C 6 -1.591219 5.367802 -3.117479 4.242641 -4.242641 
C 3.117479 -5.367802 1.591219 -6 0 -6 
C -1.591219 -6 -3.117479 -5.367802 -4.242641 -4.242641 
C -5.367802 -3.117479 -6 -1.591219 -6 0 
C -6 1.591219 -5.367802 3.117479 -4.242641 4.242641 
C -3.117479 5.367802 -1.591219 6 0 6 
z
" style="stroke: #000080; stroke-width: 1.5"/>
    </defs>
    <g>
     <use xlink:href="#m25a354b753" x="208.351207" y="276.601976" style="fill-opacity: 0; stroke: #000080; stroke-width: 1.5"/>
     <use xlink:href="#m25a354b753" x="265.608589" y="273.410259" style="fill-opacity: 0; stroke: #000080; stroke-width: 1.5"/>
     <use xlink:href="#m25a354b753" x="265.608589" y="272.346353" style="fill-opacity: 0; stroke: #000080; stroke-width: 1.5"/>
     <use xlink:href="#m25a354b753" x="265.608589" y="272.346353" style="fill-opacity: 0; stroke: #000080; stroke-width: 1.5"/>
     <use xlink:href="#m25a354b753" x="360.8064" y="272.346353" style="fill-opacity: 0; stroke: #000080; stroke-width: 1.5"/>
    </g>
   </g>
   <g id="line2d_37">
    <path style="fill: none; stroke: #000080; stroke-width: 1.5; stroke-linecap: square"/>
    <g/>
   </g>
   <g id="line2d_38">
    <path d="M 274.176038 272.346353 
" clip-path="url(#p5dc1102310)" style="fill: none; stroke: #000080; stroke-width: 1.5; stroke-linecap: square"/>
    <defs>
     <path id="md07665af77" d="M -12 12 
L 12 -12 
M -12 -12 
L 12 12 
" style="stroke: #000080"/>
    </defs>
    <g clip-path="url(#p5dc1102310)">
     <use xlink:href="#md07665af77" x="274.176038" y="272.346353" style="fill: #000080; stroke: #000080"/>
    </g>
   </g>
   <g id="line2d_39">
    <defs>
     <path id="ma5d7056e65" d="M 0 1.5 
C 0.397805 1.5 0.77937 1.341951 1.06066 1.06066 
C 1.341951 0.77937 1.5 0.397805 1.5 0 
C 1.5 -0.397805 1.341951 -0.77937 1.06066 -1.06066 
C 0.77937 -1.341951 0.397805 -1.5 0 -1.5 
C -0.397805 -1.5 -0.77937 -1.341951 -1.06066 -1.06066 
C -1.341951 -0.77937 -1.5 -0.397805 -1.5 0 
C -1.5 0.397805 -1.341951 0.77937 -1.06066 1.06066 
C -0.77937 1.341951 -0.397805 1.5 0 1.5 
z
" style="stroke: #ff00ff"/>
    </defs>
    <g>
     <use xlink:href="#ma5d7056e65" x="251.876022" y="272.346353" style="fill: #ff00ff; stroke: #ff00ff"/>
     <use xlink:href="#ma5d7056e65" x="251.876022" y="272.346353" style="fill: #ff00ff; stroke: #ff00ff"/>
    </g>
   </g>
   <g id="line2d_40">
    <path d="M 129.886643 298.944 
L 129.886643 297.880094 
L 132.180571 297.880094 
L 132.180571 296.816188 
L 133.836715 296.816188 
L 133.836715 295.752282 
L 133.950775 295.752282 
L 133.950775 294.688376 
L 134.745971 294.688376 
L 134.745971 293.624471 
L 135.92302 293.624471 
L 135.92302 292.560565 
L 136.170066 292.560565 
L 136.170066 291.496659 
L 137.345296 291.496659 
L 137.345296 290.432753 
L 138.387352 290.432753 
L 138.387352 289.368847 
L 139.104908 289.368847 
L 139.104908 288.304941 
L 140.462787 288.304941 
L 140.462787 287.241035 
L 140.668505 287.241035 
L 140.668505 286.177129 
L 166.178555 286.177129 
L 166.178555 285.113224 
L 167.477004 285.113224 
L 167.477004 284.049318 
L 167.933375 284.049318 
L 167.933375 282.985412 
L 168.050399 282.985412 
L 168.050399 281.921506 
L 177.767688 281.921506 
L 177.767688 280.8576 
L 178.686034 280.8576 
L 178.686034 279.793694 
L 191.564852 279.793694 
L 191.564852 278.729788 
L 194.951001 278.729788 
L 194.951001 277.665882 
L 234.317809 277.665882 
L 234.317809 276.601976 
L 239.519707 276.601976 
L 239.519707 275.538071 
L 244.011525 275.538071 
L 244.011525 274.474165 
L 248.788692 274.474165 
L 248.788692 273.410259 
L 251.876022 273.410259 
L 251.876022 272.346353 
L 360.8064 272.346353 
" style="fill: none; stroke: #ff00ff; stroke-width: 1.5; stroke-linecap: square"/>
   </g>
   <g id="line2d_41">
    <defs>
     <path id="mef7a4072e8" d="M -0 8.485281 
L 5.091169 0 
L 0 -8.485281 
L -5.091169 -0 
z
" style="stroke: #ff00ff; stroke-width: 1.5; stroke-linejoin: miter"/>
    </defs>
    <g>
     <use xlink:href="#mef7a4072e8" x="178.686034" y="280.8576" style="fill-opacity: 0; stroke: #ff00ff; stroke-width: 1.5; stroke-linejoin: miter"/>
     <use xlink:href="#mef7a4072e8" x="251.876022" y="273.410259" style="fill-opacity: 0; stroke: #ff00ff; stroke-width: 1.5; stroke-linejoin: miter"/>
     <use xlink:href="#mef7a4072e8" x="251.876022" y="272.346353" style="fill-opacity: 0; stroke: #ff00ff; stroke-width: 1.5; stroke-linejoin: miter"/>
     <use xlink:href="#mef7a4072e8" x="251.876022" y="272.346353" style="fill-opacity: 0; stroke: #ff00ff; stroke-width: 1.5; stroke-linejoin: miter"/>
     <use xlink:href="#mef7a4072e8" x="360.8064" y="272.346353" style="fill-opacity: 0; stroke: #ff00ff; stroke-width: 1.5; stroke-linejoin: miter"/>
    </g>
   </g>
   <g id="line2d_42">
    <path style="fill: none; stroke: #ff00ff; stroke-width: 1.5; stroke-linecap: square"/>
    <g/>
   </g>
   <g id="line2d_43">
    <path d="M 274.176075 272.346353 
" clip-path="url(#p5dc1102310)" style="fill: none; stroke: #ff00ff; stroke-width: 1.5; stroke-linecap: square"/>
    <defs>
     <path id="ma3a53fc419" d="M -12 12 
L 12 -12 
M -12 -12 
L 12 12 
" style="stroke: #ff00ff"/>
    </defs>
    <g clip-path="url(#p5dc1102310)">
     <use xlink:href="#ma3a53fc419" x="274.176075" y="272.346353" style="fill: #ff00ff; stroke: #ff00ff"/>
    </g>
   </g>
   <g id="line2d_44">
    <defs>
     <path id="m7df66b5fd5" d="M 0 1.5 
C 0.397805 1.5 0.77937 1.341951 1.06066 1.06066 
C 1.341951 0.77937 1.5 0.397805 1.5 0 
C 1.5 -0.397805 1.341951 -0.77937 1.06066 -1.06066 
C 0.77937 -1.341951 0.397805 -1.5 0 -1.5 
C -0.397805 -1.5 -0.77937 -1.341951 -1.06066 -1.06066 
C -1.341951 -0.77937 -1.5 -0.397805 -1.5 0 
C -1.5 0.397805 -1.341951 0.77937 -1.06066 1.06066 
C -0.77937 1.341951 -0.397805 1.5 0 1.5 
z
" style="stroke: #ff7500"/>
    </defs>
    <g>
     <use xlink:href="#m7df66b5fd5" x="295.215526" y="256.387765" style="fill: #ff7500; stroke: #ff7500"/>
     <use xlink:href="#m7df66b5fd5" x="295.215526" y="256.387765" style="fill: #ff7500; stroke: #ff7500"/>
    </g>
   </g>
   <g id="line2d_45">
    <path d="M 139.240288 298.944 
L 139.240288 297.880094 
L 140.428281 297.880094 
L 140.428281 296.816188 
L 140.860749 296.816188 
L 140.860749 295.752282 
L 141.051049 295.752282 
L 141.051049 294.688376 
L 141.718467 294.688376 
L 141.718467 293.624471 
L 141.836341 293.624471 
L 141.836341 292.560565 
L 142.692509 292.560565 
L 142.692509 291.496659 
L 142.915733 291.496659 
L 142.915733 290.432753 
L 143.166224 290.432753 
L 143.166224 289.368847 
L 144.069818 289.368847 
L 144.069818 288.304941 
L 146.320251 288.304941 
L 146.320251 286.177129 
L 147.103321 286.177129 
L 147.103321 285.113224 
L 147.963382 285.113224 
L 147.963382 284.049318 
L 173.41436 284.049318 
L 173.41436 282.985412 
L 174.530865 282.985412 
L 174.530865 281.921506 
L 175.206205 281.921506 
L 175.206205 280.8576 
L 175.479701 280.8576 
L 175.479701 279.793694 
L 176.929972 279.793694 
L 176.929972 278.729788 
L 178.339408 278.729788 
L 178.339408 277.665882 
L 178.882341 277.665882 
L 178.882341 276.601976 
L 188.849983 276.601976 
L 188.849983 275.538071 
L 189.088047 275.538071 
L 189.088047 274.474165 
L 189.668248 274.474165 
L 189.668248 273.410259 
L 189.844703 273.410259 
L 189.844703 272.346353 
L 190.200077 272.346353 
L 190.200077 271.282447 
L 191.931203 271.282447 
L 191.931203 270.218541 
L 192.676855 270.218541 
L 192.676855 269.154635 
L 202.486839 269.154635 
L 202.486839 268.090729 
L 203.423351 268.090729 
L 203.423351 267.026824 
L 203.963116 267.026824 
L 203.963116 265.962918 
L 204.372438 265.962918 
L 204.372438 264.899012 
L 217.994646 264.899012 
L 217.994646 263.835106 
L 218.523036 263.835106 
L 218.523036 262.7712 
L 219.594367 262.7712 
L 219.594367 261.707294 
L 219.627892 261.707294 
L 219.627892 260.643388 
L 220.189026 260.643388 
L 220.189026 259.579482 
L 274.654926 259.579482 
L 274.654926 259.224847 
L 275.226215 259.224847 
L 275.226215 258.515576 
L 275.237144 258.515576 
L 275.237144 257.806306 
L 287.446799 257.806306 
L 287.446799 257.451671 
L 287.750106 257.451671 
L 287.750106 257.097035 
L 287.769331 257.097035 
L 287.769331 256.7424 
L 295.215526 256.7424 
L 295.215526 256.387765 
L 360.8064 256.387765 
" style="fill: none; stroke: #ff7500; stroke-width: 1.5; stroke-linecap: square"/>
   </g>
   <g id="line2d_46">
    <defs>
     <path id="m261cfd1d5c" d="M 0 -6 
L -1.347084 -1.854102 
L -5.706339 -1.854102 
L -2.179628 0.708204 
L -3.526712 4.854102 
L -0 2.291796 
L 3.526712 4.854102 
L 2.179628 0.708204 
L 5.706339 -1.854102 
L 1.347084 -1.854102 
z
" style="stroke: #ff7500; stroke-width: 1.5; stroke-linejoin: bevel"/>
    </defs>
    <g>
     <use xlink:href="#m261cfd1d5c" x="178.882341" y="276.601976" style="fill-opacity: 0; stroke: #ff7500; stroke-width: 1.5; stroke-linejoin: bevel"/>
     <use xlink:href="#m261cfd1d5c" x="220.189026" y="260.643388" style="fill-opacity: 0; stroke: #ff7500; stroke-width: 1.5; stroke-linejoin: bevel"/>
     <use xlink:href="#m261cfd1d5c" x="295.215526" y="256.7424" style="fill-opacity: 0; stroke: #ff7500; stroke-width: 1.5; stroke-linejoin: bevel"/>
     <use xlink:href="#m261cfd1d5c" x="295.215526" y="256.387765" style="fill-opacity: 0; stroke: #ff7500; stroke-width: 1.5; stroke-linejoin: bevel"/>
     <use xlink:href="#m261cfd1d5c" x="360.8064" y="256.387765" style="fill-opacity: 0; stroke: #ff7500; stroke-width: 1.5; stroke-linejoin: bevel"/>
    </g>
   </g>
   <g id="line2d_47">
    <path style="fill: none; stroke: #ff7500; stroke-width: 1.5; stroke-linecap: square"/>
    <g/>
   </g>
   <g id="line2d_48">
    <path d="M 274.201848 259.579482 
" clip-path="url(#p5dc1102310)" style="fill: none; stroke: #ff7500; stroke-width: 1.5; stroke-linecap: square"/>
    <defs>
     <path id="m70dae5a48b" d="M -12 12 
L 12 -12 
M -12 -12 
L 12 12 
" style="stroke: #ff7500"/>
    </defs>
    <g clip-path="url(#p5dc1102310)">
     <use xlink:href="#m70dae5a48b" x="274.201848" y="259.579482" style="fill: #ff7500; stroke: #ff7500"/>
    </g>
   </g>
   <g id="line2d_49">
    <defs>
     <path id="m15ad3ba7a9" d="M 0 1.5 
C 0.397805 1.5 0.77937 1.341951 1.06066 1.06066 
C 1.341951 0.77937 1.5 0.397805 1.5 0 
C 1.5 -0.397805 1.341951 -0.77937 1.06066 -1.06066 
C 0.77937 -1.341951 0.397805 -1.5 0 -1.5 
C -0.397805 -1.5 -0.77937 -1.341951 -1.06066 -1.06066 
C -1.341951 -0.77937 -1.5 -0.397805 -1.5 0 
C -1.5 0.397805 -1.341951 0.77937 -1.06066 1.06066 
C -0.77937 1.341951 -0.397805 1.5 0 1.5 
z
" style="stroke: #6495ed"/>
    </defs>
    <g>
     <use xlink:href="#m15ad3ba7a9" x="325.167315" y="256.387765" style="fill: #6495ed; stroke: #6495ed"/>
     <use xlink:href="#m15ad3ba7a9" x="325.167315" y="256.387765" style="fill: #6495ed; stroke: #6495ed"/>
    </g>
   </g>
   <g id="line2d_50">
    <path d="M 130.265881 298.944 
L 130.265881 297.880094 
L 132.037244 297.880094 
L 132.037244 296.816188 
L 132.481562 296.816188 
L 132.481562 295.752282 
L 133.406907 295.752282 
L 133.406907 294.688376 
L 134.792631 294.688376 
L 134.792631 293.624471 
L 135.192238 293.624471 
L 135.192238 292.560565 
L 136.184497 292.560565 
L 136.184497 291.496659 
L 136.780838 291.496659 
L 136.780838 290.432753 
L 138.642255 290.432753 
L 138.642255 289.368847 
L 138.65491 289.368847 
L 138.65491 288.304941 
L 139.030652 288.304941 
L 139.030652 287.241035 
L 140.231542 287.241035 
L 140.231542 286.177129 
L 142.976156 286.177129 
L 142.976156 285.113224 
L 143.136341 285.113224 
L 143.136341 284.049318 
L 144.602918 284.049318 
L 144.602918 282.985412 
L 168.604258 282.985412 
L 168.604258 281.921506 
L 168.668509 281.921506 
L 168.668509 280.8576 
L 169.516314 280.8576 
L 169.516314 279.793694 
L 169.919104 279.793694 
L 169.919104 278.729788 
L 170.205 278.729788 
L 170.205 277.665882 
L 170.857946 277.665882 
L 170.857946 276.601976 
L 172.267686 276.601976 
L 172.267686 275.538071 
L 182.725177 275.538071 
L 182.725177 274.474165 
L 183.899404 274.474165 
L 183.899404 273.410259 
L 184.551335 273.410259 
L 184.551335 272.346353 
L 186.744333 272.346353 
L 186.744333 271.282447 
L 196.794164 271.282447 
L 196.794164 270.218541 
L 197.064888 270.218541 
L 197.064888 269.154635 
L 197.293716 269.154635 
L 197.293716 268.090729 
L 197.737169 268.090729 
L 197.737169 267.026824 
L 199.298329 267.026824 
L 199.298329 265.962918 
L 207.773842 265.962918 
L 207.773842 264.899012 
L 220.949711 264.899012 
L 220.949711 263.835106 
L 231.069016 263.835106 
L 231.069016 262.7712 
L 274.531331 262.7712 
L 274.531331 262.416565 
L 274.538723 262.416565 
L 274.538723 262.061929 
L 275.313539 262.061929 
L 275.313539 261.707294 
L 276.026843 261.707294 
L 276.026843 261.352659 
L 287.407295 261.352659 
L 287.407295 260.998024 
L 288.192755 260.998024 
L 288.192755 260.643388 
L 295.002755 260.643388 
L 295.002755 260.288753 
L 295.263655 260.288753 
L 295.263655 259.934118 
L 300.36305 259.934118 
L 300.36305 259.579482 
L 300.368739 259.579482 
L 300.368739 259.224847 
L 300.371964 259.224847 
L 300.371964 258.870212 
L 300.377924 258.870212 
L 300.377924 258.515576 
L 300.378198 258.515576 
L 300.378198 258.160941 
L 300.381421 258.160941 
L 300.381421 257.806306 
L 304.56348 257.806306 
L 304.56348 257.451671 
L 310.864085 257.451671 
L 310.864085 257.097035 
L 319.353682 257.097035 
L 319.353682 256.7424 
L 325.167315 256.7424 
L 325.167315 256.387765 
L 360.8064 256.387765 
" style="fill: none; stroke: #6495ed; stroke-width: 1.5; stroke-linecap: square"/>
   </g>
   <g id="line2d_51">
    <defs>
     <path id="m1b2aea1d06" d="M -0 6 
L 6 -6 
L -6 -6 
z
" style="stroke: #6495ed; stroke-width: 1.5; stroke-linejoin: miter"/>
    </defs>
    <g>
     <use xlink:href="#m1b2aea1d06" x="144.602918" y="282.985412" style="fill-opacity: 0; stroke: #6495ed; stroke-width: 1.5; stroke-linejoin: miter"/>
     <use xlink:href="#m1b2aea1d06" x="231.069016" y="263.835106" style="fill-opacity: 0; stroke: #6495ed; stroke-width: 1.5; stroke-linejoin: miter"/>
     <use xlink:href="#m1b2aea1d06" x="304.56348" y="257.806306" style="fill-opacity: 0; stroke: #6495ed; stroke-width: 1.5; stroke-linejoin: miter"/>
     <use xlink:href="#m1b2aea1d06" x="325.167315" y="256.387765" style="fill-opacity: 0; stroke: #6495ed; stroke-width: 1.5; stroke-linejoin: miter"/>
     <use xlink:href="#m1b2aea1d06" x="360.8064" y="256.387765" style="fill-opacity: 0; stroke: #6495ed; stroke-width: 1.5; stroke-linejoin: miter"/>
    </g>
   </g>
   <g id="line2d_52">
    <path style="fill: none; stroke: #6495ed; stroke-width: 1.5; stroke-linecap: square"/>
    <g/>
   </g>
   <g id="line2d_53">
    <path d="M 274.215876 262.7712 
" clip-path="url(#p5dc1102310)" style="fill: none; stroke: #6495ed; stroke-width: 1.5; stroke-linecap: square"/>
    <defs>
     <path id="meb8147c1b3" d="M -12 12 
L 12 -12 
M -12 -12 
L 12 12 
" style="stroke: #6495ed"/>
    </defs>
    <g clip-path="url(#p5dc1102310)">
     <use xlink:href="#meb8147c1b3" x="274.215876" y="262.7712" style="fill: #6495ed; stroke: #6495ed"/>
    </g>
   </g>
   <g id="line2d_54">
    <defs>
     <path id="m83e71faa4f" d="M 0 1.5 
C 0.397805 1.5 0.77937 1.341951 1.06066 1.06066 
C 1.341951 0.77937 1.5 0.397805 1.5 0 
C 1.5 -0.397805 1.341951 -0.77937 1.06066 -1.06066 
C 0.77937 -1.341951 0.397805 -1.5 0 -1.5 
C -0.397805 -1.5 -0.77937 -1.341951 -1.06066 -1.06066 
C -1.341951 -0.77937 -1.5 -0.397805 -1.5 0 
C -1.5 0.397805 -1.341951 0.77937 -1.06066 1.06066 
C -0.77937 1.341951 -0.397805 1.5 0 1.5 
z
" style="stroke: #ff0000"/>
    </defs>
    <g>
     <use xlink:href="#m83e71faa4f" x="303.838632" y="267.026824" style="fill: #ff0000; stroke: #ff0000"/>
     <use xlink:href="#m83e71faa4f" x="303.838632" y="267.026824" style="fill: #ff0000; stroke: #ff0000"/>
    </g>
   </g>
   <g id="line2d_55">
    <path d="M 138.956102 298.944 
L 138.956102 297.880094 
L 140.196609 297.880094 
L 140.196609 296.816188 
L 140.939341 296.816188 
L 140.939341 295.752282 
L 142.038218 295.752282 
L 142.038218 294.688376 
L 142.383778 294.688376 
L 142.383778 293.624471 
L 143.47227 293.624471 
L 143.47227 292.560565 
L 144.922928 292.560565 
L 144.922928 291.496659 
L 145.004344 291.496659 
L 145.004344 290.432753 
L 145.83427 290.432753 
L 145.83427 289.368847 
L 145.860163 289.368847 
L 145.860163 288.304941 
L 146.933006 288.304941 
L 146.933006 287.241035 
L 147.510634 287.241035 
L 147.510634 286.177129 
L 152.959871 286.177129 
L 152.959871 285.113224 
L 154.006505 285.113224 
L 154.006505 284.049318 
L 154.944823 284.049318 
L 154.944823 282.985412 
L 171.919096 282.985412 
L 171.919096 281.921506 
L 176.554146 281.921506 
L 176.554146 280.8576 
L 186.008729 280.8576 
L 186.008729 279.793694 
L 191.478817 279.793694 
L 191.478817 278.729788 
L 210.254298 278.729788 
L 210.254298 277.665882 
L 218.467134 277.665882 
L 218.467134 276.601976 
L 220.945409 276.601976 
L 220.945409 275.538071 
L 221.022052 275.538071 
L 221.022052 274.474165 
L 225.293784 274.474165 
L 225.293784 273.410259 
L 227.867197 273.410259 
L 227.867197 272.346353 
L 262.429516 272.346353 
L 262.429516 271.282447 
L 270.886801 271.282447 
L 270.886801 270.218541 
L 275.259267 270.218541 
L 275.259267 269.509271 
L 285.642399 269.509271 
L 285.642399 269.154635 
L 287.764627 269.154635 
L 287.764627 268.445365 
L 293.808845 268.445365 
L 293.808845 268.090729 
L 299.484418 268.090729 
L 299.484418 267.736094 
L 300.531104 267.736094 
L 300.531104 267.381459 
L 303.838632 267.381459 
L 303.838632 267.026824 
L 360.8064 267.026824 
" style="fill: none; stroke: #ff0000; stroke-width: 1.5; stroke-linecap: square"/>
   </g>
   <g id="line2d_56">
    <defs>
     <path id="mf24af0935d" d="M 0 -6 
L -5.196152 -3 
L -5.196152 3 
L -0 6 
L 5.196152 3 
L 5.196152 -3 
z
" style="stroke: #ff0000; stroke-width: 1.5; stroke-linejoin: miter"/>
    </defs>
    <g>
     <use xlink:href="#mf24af0935d" x="176.554146" y="280.8576" style="fill-opacity: 0; stroke: #ff0000; stroke-width: 1.5; stroke-linejoin: miter"/>
     <use xlink:href="#mf24af0935d" x="227.867197" y="272.346353" style="fill-opacity: 0; stroke: #ff0000; stroke-width: 1.5; stroke-linejoin: miter"/>
     <use xlink:href="#mf24af0935d" x="303.838632" y="267.026824" style="fill-opacity: 0; stroke: #ff0000; stroke-width: 1.5; stroke-linejoin: miter"/>
     <use xlink:href="#mf24af0935d" x="303.838632" y="267.026824" style="fill-opacity: 0; stroke: #ff0000; stroke-width: 1.5; stroke-linejoin: miter"/>
     <use xlink:href="#mf24af0935d" x="360.8064" y="267.026824" style="fill-opacity: 0; stroke: #ff0000; stroke-width: 1.5; stroke-linejoin: miter"/>
    </g>
   </g>
   <g id="line2d_57">
    <path style="fill: none; stroke: #ff0000; stroke-width: 1.5; stroke-linecap: square"/>
    <g/>
   </g>
   <g id="line2d_58">
    <path d="M 274.176047 270.218541 
" clip-path="url(#p5dc1102310)" style="fill: none; stroke: #ff0000; stroke-width: 1.5; stroke-linecap: square"/>
    <defs>
     <path id="m035f368c65" d="M -12 12 
L 12 -12 
M -12 -12 
L 12 12 
" style="stroke: #ff0000"/>
    </defs>
    <g clip-path="url(#p5dc1102310)">
     <use xlink:href="#m035f368c65" x="274.176047" y="270.218541" style="fill: #ff0000; stroke: #ff0000"/>
    </g>
   </g>
   <g id="line2d_59">
    <defs>
     <path id="m3131cc83a6" d="M 0 1.5 
C 0.397805 1.5 0.77937 1.341951 1.06066 1.06066 
C 1.341951 0.77937 1.5 0.397805 1.5 0 
C 1.5 -0.397805 1.341951 -0.77937 1.06066 -1.06066 
C 0.77937 -1.341951 0.397805 -1.5 0 -1.5 
C -0.397805 -1.5 -0.77937 -1.341951 -1.06066 -1.06066 
C -1.341951 -0.77937 -1.5 -0.397805 -1.5 0 
C -1.5 0.397805 -1.341951 0.77937 -1.06066 1.06066 
C -0.77937 1.341951 -0.397805 1.5 0 1.5 
z
" style="stroke: #9acd32"/>
    </defs>
    <g>
     <use xlink:href="#m3131cc83a6" x="300.098761" y="267.026824" style="fill: #9acd32; stroke: #9acd32"/>
     <use xlink:href="#m3131cc83a6" x="300.098761" y="267.026824" style="fill: #9acd32; stroke: #9acd32"/>
    </g>
   </g>
   <g id="line2d_60">
    <path d="M 133.901977 298.944 
L 133.901977 297.880094 
L 134.208913 297.880094 
L 134.208913 296.816188 
L 136.025138 296.816188 
L 136.025138 295.752282 
L 136.068734 295.752282 
L 136.068734 294.688376 
L 136.808769 294.688376 
L 136.808769 293.624471 
L 137.030737 293.624471 
L 137.030737 292.560565 
L 138.629591 292.560565 
L 138.629591 291.496659 
L 138.718057 291.496659 
L 138.718057 290.432753 
L 139.748412 290.432753 
L 139.748412 289.368847 
L 140.044477 289.368847 
L 140.044477 288.304941 
L 140.849495 288.304941 
L 140.849495 287.241035 
L 141.316472 287.241035 
L 141.316472 286.177129 
L 142.661862 286.177129 
L 142.661862 285.113224 
L 143.501625 285.113224 
L 143.501625 284.049318 
L 145.954802 284.049318 
L 145.954802 282.985412 
L 171.071406 282.985412 
L 171.071406 281.921506 
L 172.310016 281.921506 
L 172.310016 280.8576 
L 179.532848 280.8576 
L 179.532848 279.793694 
L 180.471022 279.793694 
L 180.471022 278.729788 
L 186.860771 278.729788 
L 186.860771 277.665882 
L 186.98134 277.665882 
L 186.98134 276.601976 
L 187.174192 276.601976 
L 187.174192 275.538071 
L 191.538246 275.538071 
L 191.538246 274.474165 
L 218.981534 274.474165 
L 218.981534 273.410259 
L 243.669776 273.410259 
L 243.669776 272.346353 
L 243.700078 272.346353 
L 243.700078 271.282447 
L 253.359912 271.282447 
L 253.359912 270.218541 
L 273.54563 270.218541 
L 273.54563 269.154635 
L 274.359586 269.154635 
L 274.359586 268.8 
L 287.307215 268.8 
L 287.307215 268.445365 
L 288.990065 268.445365 
L 288.990065 267.736094 
L 296.044285 267.736094 
L 296.044285 267.381459 
L 300.098761 267.381459 
L 300.098761 267.026824 
L 360.8064 267.026824 
" style="fill: none; stroke: #9acd32; stroke-width: 1.5; stroke-linecap: square"/>
   </g>
   <g id="line2d_61">
    <defs>
     <path id="m34d611afda" d="M 0 -6 
L -6 6 
L 6 6 
z
" style="stroke: #9acd32; stroke-width: 1.5; stroke-linejoin: miter"/>
    </defs>
    <g>
     <use xlink:href="#m34d611afda" x="218.981534" y="274.474165" style="fill-opacity: 0; stroke: #9acd32; stroke-width: 1.5; stroke-linejoin: miter"/>
     <use xlink:href="#m34d611afda" x="274.359586" y="268.8" style="fill-opacity: 0; stroke: #9acd32; stroke-width: 1.5; stroke-linejoin: miter"/>
     <use xlink:href="#m34d611afda" x="300.098761" y="267.026824" style="fill-opacity: 0; stroke: #9acd32; stroke-width: 1.5; stroke-linejoin: miter"/>
     <use xlink:href="#m34d611afda" x="300.098761" y="267.026824" style="fill-opacity: 0; stroke: #9acd32; stroke-width: 1.5; stroke-linejoin: miter"/>
     <use xlink:href="#m34d611afda" x="360.8064" y="267.026824" style="fill-opacity: 0; stroke: #9acd32; stroke-width: 1.5; stroke-linejoin: miter"/>
    </g>
   </g>
   <g id="line2d_62">
    <path style="fill: none; stroke: #9acd32; stroke-width: 1.5; stroke-linecap: square"/>
    <g/>
   </g>
   <g id="line2d_63">
    <path d="M 274.176047 269.154635 
" clip-path="url(#p5dc1102310)" style="fill: none; stroke: #9acd32; stroke-width: 1.5; stroke-linecap: square"/>
    <defs>
     <path id="m932d4ecc00" d="M -12 12 
L 12 -12 
M -12 -12 
L 12 12 
" style="stroke: #9acd32"/>
    </defs>
    <g clip-path="url(#p5dc1102310)">
     <use xlink:href="#m932d4ecc00" x="274.176047" y="269.154635" style="fill: #9acd32; stroke: #9acd32"/>
    </g>
   </g>
   <g id="line2d_64">
    <defs>
     <path id="mb9f27c62a6" d="M 0 1.5 
C 0.397805 1.5 0.77937 1.341951 1.06066 1.06066 
C 1.341951 0.77937 1.5 0.397805 1.5 0 
C 1.5 -0.397805 1.341951 -0.77937 1.06066 -1.06066 
C 0.77937 -1.341951 0.397805 -1.5 0 -1.5 
C -0.397805 -1.5 -0.77937 -1.341951 -1.06066 -1.06066 
C -1.341951 -0.77937 -1.5 -0.397805 -1.5 0 
C -1.5 0.397805 -1.341951 0.77937 -1.06066 1.06066 
C -0.77937 1.341951 -0.397805 1.5 0 1.5 
z
" style="stroke: #00bfbf"/>
    </defs>
    <g>
     <use xlink:href="#mb9f27c62a6" x="307.050401" y="267.026824" style="fill: #00bfbf; stroke: #00bfbf"/>
     <use xlink:href="#mb9f27c62a6" x="307.050401" y="267.026824" style="fill: #00bfbf; stroke: #00bfbf"/>
    </g>
   </g>
   <g id="line2d_65">
    <path d="M 128.935527 298.944 
L 128.935527 297.880094 
L 135.849738 297.880094 
L 135.849738 296.816188 
L 137.426497 296.816188 
L 137.426497 295.752282 
L 138.076838 295.752282 
L 138.076838 294.688376 
L 140.032723 294.688376 
L 140.032723 293.624471 
L 142.331827 293.624471 
L 142.331827 292.560565 
L 142.518184 292.560565 
L 142.518184 291.496659 
L 142.784148 291.496659 
L 142.784148 290.432753 
L 143.491845 290.432753 
L 143.491845 289.368847 
L 144.959156 289.368847 
L 144.959156 288.304941 
L 145.590864 288.304941 
L 145.590864 287.241035 
L 146.678736 287.241035 
L 146.678736 286.177129 
L 147.199956 286.177129 
L 147.199956 285.113224 
L 147.391749 285.113224 
L 147.391749 284.049318 
L 148.548087 284.049318 
L 148.548087 282.985412 
L 153.165721 282.985412 
L 153.165721 281.921506 
L 173.442249 281.921506 
L 173.442249 280.8576 
L 184.46179 280.8576 
L 184.46179 279.793694 
L 206.501703 279.793694 
L 206.501703 278.729788 
L 218.752518 278.729788 
L 218.752518 277.665882 
L 220.288781 277.665882 
L 220.288781 276.601976 
L 222.669354 276.601976 
L 222.669354 275.538071 
L 238.270134 275.538071 
L 238.270134 274.474165 
L 240.779561 274.474165 
L 240.779561 273.410259 
L 247.411535 273.410259 
L 247.411535 272.346353 
L 260.639922 272.346353 
L 260.639922 271.282447 
L 281.542281 271.282447 
L 281.542281 270.218541 
L 284.601876 270.218541 
L 284.601876 269.154635 
L 297.630964 269.154635 
L 297.630964 268.8 
L 298.993066 268.8 
L 298.993066 267.736094 
L 301.355158 267.736094 
L 301.355158 267.381459 
L 307.050401 267.381459 
L 307.050401 267.026824 
L 360.8064 267.026824 
" style="fill: none; stroke: #00bfbf; stroke-width: 1.5; stroke-linecap: square"/>
   </g>
   <g id="line2d_66">
    <defs>
     <path id="me354fa6965" d="M 0 -6 
L -5.706339 -1.854102 
L -3.526712 4.854102 
L 3.526712 4.854102 
L 5.706339 -1.854102 
z
" style="stroke: #00bfbf; stroke-width: 1.5; stroke-linejoin: miter"/>
    </defs>
    <g>
     <use xlink:href="#me354fa6965" x="184.46179" y="279.793694" style="fill-opacity: 0; stroke: #00bfbf; stroke-width: 1.5; stroke-linejoin: miter"/>
     <use xlink:href="#me354fa6965" x="247.411535" y="272.346353" style="fill-opacity: 0; stroke: #00bfbf; stroke-width: 1.5; stroke-linejoin: miter"/>
     <use xlink:href="#me354fa6965" x="307.050401" y="267.381459" style="fill-opacity: 0; stroke: #00bfbf; stroke-width: 1.5; stroke-linejoin: miter"/>
     <use xlink:href="#me354fa6965" x="307.050401" y="267.026824" style="fill-opacity: 0; stroke: #00bfbf; stroke-width: 1.5; stroke-linejoin: miter"/>
     <use xlink:href="#me354fa6965" x="360.8064" y="267.026824" style="fill-opacity: 0; stroke: #00bfbf; stroke-width: 1.5; stroke-linejoin: miter"/>
    </g>
   </g>
   <g id="line2d_67">
    <path style="fill: none; stroke: #00bfbf; stroke-width: 1.5; stroke-linecap: square"/>
    <g/>
   </g>
   <g id="line2d_68">
    <path d="M 287.215217 269.154635 
" clip-path="url(#p5dc1102310)" style="fill: none; stroke: #00bfbf; stroke-width: 1.5; stroke-linecap: square"/>
    <defs>
     <path id="m0ff5c11634" d="M -12 12 
L 12 -12 
M -12 -12 
L 12 12 
" style="stroke: #00bfbf"/>
    </defs>
    <g clip-path="url(#p5dc1102310)">
     <use xlink:href="#m0ff5c11634" x="287.215217" y="269.154635" style="fill: #00bfbf; stroke: #00bfbf"/>
    </g>
   </g>
   <g id="line2d_69">
    <defs>
     <path id="m5dc250d674" d="M 0 1.5 
C 0.397805 1.5 0.77937 1.341951 1.06066 1.06066 
C 1.341951 0.77937 1.5 0.397805 1.5 0 
C 1.5 -0.397805 1.341951 -0.77937 1.06066 -1.06066 
C 0.77937 -1.341951 0.397805 -1.5 0 -1.5 
C -0.397805 -1.5 -0.77937 -1.341951 -1.06066 -1.06066 
C -1.341951 -0.77937 -1.5 -0.397805 -1.5 0 
C -1.5 0.397805 -1.341951 0.77937 -1.06066 1.06066 
C -0.77937 1.341951 -0.397805 1.5 0 1.5 
z
" style="stroke: #228b22"/>
    </defs>
    <g>
     <use xlink:href="#m5dc250d674" x="296.564152" y="267.026824" style="fill: #228b22; stroke: #228b22"/>
     <use xlink:href="#m5dc250d674" x="296.564152" y="267.026824" style="fill: #228b22; stroke: #228b22"/>
    </g>
   </g>
   <g id="line2d_70">
    <path d="M 130.983152 298.944 
L 130.983152 297.880094 
L 132.144842 297.880094 
L 132.144842 296.816188 
L 133.035392 296.816188 
L 133.035392 295.752282 
L 133.983236 295.752282 
L 133.983236 294.688376 
L 134.015642 294.688376 
L 134.015642 293.624471 
L 135.879085 293.624471 
L 135.879085 292.560565 
L 137.304564 292.560565 
L 137.304564 291.496659 
L 137.721271 291.496659 
L 137.721271 290.432753 
L 137.866944 290.432753 
L 137.866944 289.368847 
L 138.387352 289.368847 
L 138.387352 288.304941 
L 139.203463 288.304941 
L 139.203463 287.241035 
L 139.362521 287.241035 
L 139.362521 286.177129 
L 140.543056 286.177129 
L 140.543056 285.113224 
L 141.534833 285.113224 
L 141.534833 284.049318 
L 147.336011 284.049318 
L 147.336011 282.985412 
L 168.237711 282.985412 
L 168.237711 281.921506 
L 168.890409 281.921506 
L 168.890409 280.8576 
L 170.155281 280.8576 
L 170.155281 279.793694 
L 180.975217 279.793694 
L 180.975217 278.729788 
L 186.771795 278.729788 
L 186.771795 277.665882 
L 199.85111 277.665882 
L 199.85111 276.601976 
L 216.119709 276.601976 
L 216.119709 275.538071 
L 216.798213 275.538071 
L 216.798213 274.474165 
L 216.830563 274.474165 
L 216.830563 273.410259 
L 237.672822 273.410259 
L 237.672822 272.346353 
L 241.635897 272.346353 
L 241.635897 271.282447 
L 250.726398 271.282447 
L 250.726398 270.218541 
L 272.127735 270.218541 
L 272.127735 269.154635 
L 275.047836 269.154635 
L 275.047836 268.8 
L 286.218931 268.8 
L 286.218931 268.090729 
L 287.656165 268.090729 
L 287.656165 267.736094 
L 294.184352 267.736094 
L 294.184352 267.381459 
L 296.564152 267.381459 
L 296.564152 267.026824 
L 360.8064 267.026824 
" style="fill: none; stroke: #228b22; stroke-width: 1.5; stroke-linecap: square"/>
   </g>
   <g id="line2d_71">
    <defs>
     <path id="m562c03035f" d="M 0 0 
L 0 6 
M 0 0 
L 4.8 -3 
M 0 0 
L -4.8 -3 
" style="stroke: #228b22; stroke-width: 1.5"/>
    </defs>
    <g>
     <use xlink:href="#m562c03035f" x="216.830563" y="274.474165" style="fill-opacity: 0; stroke: #228b22; stroke-width: 1.5"/>
     <use xlink:href="#m562c03035f" x="296.564152" y="267.381459" style="fill-opacity: 0; stroke: #228b22; stroke-width: 1.5"/>
     <use xlink:href="#m562c03035f" x="296.564152" y="267.026824" style="fill-opacity: 0; stroke: #228b22; stroke-width: 1.5"/>
     <use xlink:href="#m562c03035f" x="296.564152" y="267.026824" style="fill-opacity: 0; stroke: #228b22; stroke-width: 1.5"/>
     <use xlink:href="#m562c03035f" x="360.8064" y="267.026824" style="fill-opacity: 0; stroke: #228b22; stroke-width: 1.5"/>
    </g>
   </g>
   <g id="line2d_72">
    <path style="fill: none; stroke: #228b22; stroke-width: 1.5; stroke-linecap: square"/>
    <g/>
   </g>
   <g id="line2d_73">
    <path d="M 274.176047 269.154635 
" clip-path="url(#p5dc1102310)" style="fill: none; stroke: #228b22; stroke-width: 1.5; stroke-linecap: square"/>
    <defs>
     <path id="mbc1dfb8dce" d="M -12 12 
L 12 -12 
M -12 -12 
L 12 12 
" style="stroke: #228b22"/>
    </defs>
    <g clip-path="url(#p5dc1102310)">
     <use xlink:href="#mbc1dfb8dce" x="274.176047" y="269.154635" style="fill: #228b22; stroke: #228b22"/>
    </g>
   </g>
   <g id="line2d_74">
    <defs>
     <path id="m48d3b83133" d="M 0 1.5 
C 0.397805 1.5 0.77937 1.341951 1.06066 1.06066 
C 1.341951 0.77937 1.5 0.397805 1.5 0 
C 1.5 -0.397805 1.341951 -0.77937 1.06066 -1.06066 
C 0.77937 -1.341951 0.397805 -1.5 0 -1.5 
C -0.397805 -1.5 -0.77937 -1.341951 -1.06066 -1.06066 
C -1.341951 -0.77937 -1.5 -0.397805 -1.5 0 
C -1.5 0.397805 -1.341951 0.77937 -1.06066 1.06066 
C -0.77937 1.341951 -0.397805 1.5 0 1.5 
z
" style="stroke: #ffc0cb"/>
    </defs>
    <g>
     <use xlink:href="#m48d3b83133" x="352.233299" y="251.068235" style="fill: #ffc0cb; stroke: #ffc0cb"/>
     <use xlink:href="#m48d3b83133" x="352.233299" y="251.068235" style="fill: #ffc0cb; stroke: #ffc0cb"/>
    </g>
   </g>
   <g id="line2d_75">
    <path d="M 133.506969 298.944 
L 133.506969 298.589365 
L 134.730392 298.589365 
L 134.730392 298.234729 
L 135.024208 298.234729 
L 135.024208 297.880094 
L 135.328609 297.880094 
L 135.328609 297.525459 
L 135.879085 297.525459 
L 135.879085 297.170824 
L 136.010584 297.170824 
L 136.112229 296.461553 
L 136.299553 296.461553 
L 136.299553 296.106918 
L 137.412988 296.106918 
L 137.412988 295.752282 
L 137.534223 295.752282 
L 137.627979 295.043012 
L 138.050729 295.043012 
L 138.128947 294.333741 
L 138.553431 294.333741 
L 138.553431 293.979106 
L 138.931186 293.979106 
L 138.931186 293.624471 
L 139.203463 293.624471 
L 139.203463 293.269835 
L 139.891105 293.269835 
L 139.891105 292.9152 
L 140.067962 292.9152 
L 140.067962 292.560565 
L 140.278019 292.560565 
L 140.301214 291.851294 
L 140.668505 291.851294 
L 140.668505 291.496659 
L 141.084433 291.496659 
L 141.084433 291.142024 
L 141.239443 291.142024 
L 141.239443 290.787388 
L 141.67542 290.787388 
L 141.67542 290.432753 
L 142.027647 290.432753 
L 142.112051 289.723482 
L 142.258853 289.723482 
L 142.258853 289.368847 
L 142.692509 289.368847 
L 142.692509 289.014212 
L 142.996254 289.014212 
L 142.996254 288.659576 
L 143.295173 288.659576 
L 143.295173 288.304941 
L 143.936538 288.304941 
L 143.936538 287.950306 
L 144.296125 287.950306 
L 144.296125 287.595671 
L 145.085409 287.595671 
L 145.085409 287.241035 
L 145.423883 287.241035 
L 145.423883 286.8864 
L 145.555833 286.8864 
L 145.555833 286.531765 
L 145.678157 286.531765 
L 145.678157 286.177129 
L 145.816988 286.177129 
L 145.816988 285.822494 
L 146.8186 285.822494 
L 146.8186 285.467859 
L 147.103321 285.467859 
L 147.103321 285.113224 
L 148.83008 285.113224 
L 148.83008 284.758588 
L 149.165879 284.758588 
L 149.165879 284.403953 
L 172.048163 284.403953 
L 172.048163 284.049318 
L 173.634357 284.049318 
L 173.656019 283.340047 
L 174.018578 283.340047 
L 174.018578 282.985412 
L 174.137895 282.985412 
L 174.23357 282.276141 
L 174.260272 282.276141 
L 174.260272 281.921506 
L 174.59276 281.921506 
L 174.603992 281.212235 
L 174.893692 281.212235 
L 174.893692 280.8576 
L 175.058819 280.8576 
L 175.058819 280.502965 
L 175.213453 280.502965 
L 175.24061 279.439059 
L 175.517176 279.439059 
L 175.586575 278.375153 
L 175.77919 278.375153 
L 175.812564 277.665882 
L 176.235976 277.665882 
L 176.235976 277.311247 
L 188.150894 277.311247 
L 188.150894 276.956612 
L 189.682527 276.956612 
L 189.710212 276.247341 
L 189.856353 276.247341 
L 189.965838 275.183435 
L 190.177193 275.183435 
L 190.238427 274.474165 
L 191.11669 274.474165 
L 191.11669 274.119529 
L 191.317876 274.119529 
L 191.427619 273.410259 
L 202.274388 273.410259 
L 202.274388 273.055624 
L 202.697758 273.055624 
L 202.697758 272.700988 
L 203.085476 272.700988 
L 203.181579 271.991718 
L 203.306923 271.991718 
L 203.306923 271.637082 
L 204.066968 271.637082 
L 204.066968 271.282447 
L 204.645381 271.282447 
L 204.645381 270.927812 
L 205.28436 270.927812 
L 205.327537 270.218541 
L 205.5582 270.218541 
L 205.570471 269.509271 
L 205.989348 269.509271 
L 205.989348 269.154635 
L 215.857389 269.154635 
L 215.857389 268.8 
L 216.123003 268.8 
L 216.123003 268.445365 
L 216.309846 268.445365 
L 216.420216 267.736094 
L 216.475058 267.736094 
L 216.475058 267.381459 
L 216.5923 267.381459 
L 216.5923 267.026824 
L 216.758047 267.026824 
L 216.806157 266.317553 
L 216.92353 266.317553 
L 216.92353 265.962918 
L 217.053896 265.962918 
L 217.053896 265.608282 
L 217.173049 265.608282 
L 217.173049 265.253647 
L 217.299189 265.253647 
L 217.385447 264.544376 
L 217.93771 264.544376 
L 217.941449 263.835106 
L 218.135774 263.835106 
L 218.135774 263.480471 
L 218.720265 263.480471 
L 218.720265 263.125835 
L 228.066193 263.125835 
L 228.066193 262.7712 
L 229.953231 262.7712 
L 229.953231 262.416565 
L 239.507772 262.416565 
L 239.507772 262.061929 
L 240.133913 262.061929 
L 240.133913 261.707294 
L 240.372034 261.707294 
L 240.372034 261.352659 
L 240.90786 261.352659 
L 240.90786 260.998024 
L 251.735898 260.998024 
L 251.735898 260.643388 
L 279.216026 260.643388 
L 279.216026 260.288753 
L 279.921578 260.288753 
L 279.921578 259.934118 
L 280.097207 259.934118 
L 280.097207 259.579482 
L 280.443661 259.579482 
L 280.443661 259.224847 
L 280.779241 259.224847 
L 280.779241 258.870212 
L 293.328608 258.870212 
L 293.328608 258.515576 
L 293.850089 258.515576 
L 293.850089 258.160941 
L 294.289676 258.160941 
L 294.289676 257.806306 
L 300.171821 257.806306 
L 300.171821 257.451671 
L 305.299546 257.451671 
L 305.299546 257.097035 
L 310.011031 257.097035 
L 310.011031 256.7424 
L 312.986467 256.7424 
L 312.986467 256.387765 
L 316.026683 256.387765 
L 316.026683 256.033129 
L 318.654634 256.033129 
L 318.687835 255.323859 
L 320.621249 255.323859 
L 320.621249 254.969224 
L 322.848084 254.969224 
L 322.848084 254.614588 
L 326.125282 254.614588 
L 326.190334 253.550682 
L 327.539991 253.550682 
L 327.539991 253.196047 
L 327.661156 253.196047 
L 327.661156 252.841412 
L 328.937958 252.841412 
L 328.956657 252.132141 
L 335.557793 252.132141 
L 335.557793 251.777506 
L 343.855743 251.777506 
L 343.855743 251.422871 
L 352.233299 251.422871 
L 352.233299 251.068235 
L 360.8064 251.068235 
L 360.8064 251.068235 
" style="fill: none; stroke: #ffc0cb; stroke-width: 1.5; stroke-linecap: square"/>
   </g>
   <g id="line2d_76">
    <defs>
     <path id="ma1c692009c" d="M -0 8.485281 
L 8.485281 0 
L 0 -8.485281 
L -8.485281 -0 
z
" style="stroke: #ffc0cb; stroke-width: 1.5; stroke-linejoin: miter"/>
    </defs>
    <g>
     <use xlink:href="#ma1c692009c" x="205.989348" y="269.154635" style="fill-opacity: 0; stroke: #ffc0cb; stroke-width: 1.5; stroke-linejoin: miter"/>
     <use xlink:href="#ma1c692009c" x="251.735898" y="260.643388" style="fill-opacity: 0; stroke: #ffc0cb; stroke-width: 1.5; stroke-linejoin: miter"/>
     <use xlink:href="#ma1c692009c" x="343.855743" y="251.422871" style="fill-opacity: 0; stroke: #ffc0cb; stroke-width: 1.5; stroke-linejoin: miter"/>
     <use xlink:href="#ma1c692009c" x="352.233299" y="251.068235" style="fill-opacity: 0; stroke: #ffc0cb; stroke-width: 1.5; stroke-linejoin: miter"/>
     <use xlink:href="#ma1c692009c" x="360.8064" y="251.068235" style="fill-opacity: 0; stroke: #ffc0cb; stroke-width: 1.5; stroke-linejoin: miter"/>
    </g>
   </g>
   <g id="line2d_77">
    <path style="fill: none; stroke: #ffc0cb; stroke-width: 1.5; stroke-linecap: square"/>
    <g/>
   </g>
   <g id="line2d_78">
    <path d="M 279.244217 260.288753 
" clip-path="url(#p5dc1102310)" style="fill: none; stroke: #ffc0cb; stroke-width: 1.5; stroke-linecap: square"/>
    <defs>
     <path id="m290bc8f78b" d="M -12 12 
L 12 -12 
M -12 -12 
L 12 12 
" style="stroke: #ffc0cb"/>
    </defs>
    <g clip-path="url(#p5dc1102310)">
     <use xlink:href="#m290bc8f78b" x="279.244217" y="260.288753" style="fill: #ffc0cb; stroke: #ffc0cb"/>
    </g>
   </g>
   <g id="line2d_79">
    <path d="M 360.8064 272.346353 
L 380.514816 293.51808 
" style="fill: none; stroke: #000080; stroke-width: 1.5; stroke-linecap: square"/>
    <g>
     <use xlink:href="#m25a354b753" x="360.8064" y="272.346353" style="fill-opacity: 0; stroke: #000080; stroke-width: 1.5"/>
     <use xlink:href="#m25a354b753" x="380.514816" y="293.51808" style="fill-opacity: 0; stroke: #000080; stroke-width: 1.5"/>
    </g>
   </g>
   <g id="line2d_80">
    <path d="M 360.8064 272.346353 
L 380.514816 264.57984 
" style="fill: none; stroke: #ff00ff; stroke-width: 1.5; stroke-linecap: square"/>
    <g>
     <use xlink:href="#mef7a4072e8" x="360.8064" y="272.346353" style="fill-opacity: 0; stroke: #ff00ff; stroke-width: 1.5; stroke-linejoin: miter"/>
     <use xlink:href="#mef7a4072e8" x="380.514816" y="264.57984" style="fill-opacity: 0; stroke: #ff00ff; stroke-width: 1.5; stroke-linejoin: miter"/>
    </g>
   </g>
   <g id="line2d_81">
    <path d="M 360.8064 267.026824 
L 380.514816 235.6416 
" style="fill: none; stroke: #00bfbf; stroke-width: 1.5; stroke-linecap: square"/>
    <g>
     <use xlink:href="#me354fa6965" x="360.8064" y="267.026824" style="fill-opacity: 0; stroke: #00bfbf; stroke-width: 1.5; stroke-linejoin: miter"/>
     <use xlink:href="#me354fa6965" x="380.514816" y="235.6416" style="fill-opacity: 0; stroke: #00bfbf; stroke-width: 1.5; stroke-linejoin: miter"/>
    </g>
   </g>
   <g id="line2d_82">
    <path d="M 360.8064 267.026824 
L 380.514816 206.70336 
" style="fill: none; stroke: #ff0000; stroke-width: 1.5; stroke-linecap: square"/>
    <g>
     <use xlink:href="#mf24af0935d" x="360.8064" y="267.026824" style="fill-opacity: 0; stroke: #ff0000; stroke-width: 1.5; stroke-linejoin: miter"/>
     <use xlink:href="#mf24af0935d" x="380.514816" y="206.70336" style="fill-opacity: 0; stroke: #ff0000; stroke-width: 1.5; stroke-linejoin: miter"/>
    </g>
   </g>
   <g id="line2d_83">
    <path d="M 360.8064 267.026824 
L 380.514816 177.76512 
" style="fill: none; stroke: #9acd32; stroke-width: 1.5; stroke-linecap: square"/>
    <g>
     <use xlink:href="#m34d611afda" x="360.8064" y="267.026824" style="fill-opacity: 0; stroke: #9acd32; stroke-width: 1.5; stroke-linejoin: miter"/>
     <use xlink:href="#m34d611afda" x="380.514816" y="177.76512" style="fill-opacity: 0; stroke: #9acd32; stroke-width: 1.5; stroke-linejoin: miter"/>
    </g>
   </g>
   <g id="line2d_84">
    <path d="M 360.8064 267.026824 
L 380.514816 148.82688 
" style="fill: none; stroke: #228b22; stroke-width: 1.5; stroke-linecap: square"/>
    <g>
     <use xlink:href="#m562c03035f" x="360.8064" y="267.026824" style="fill-opacity: 0; stroke: #228b22; stroke-width: 1.5"/>
     <use xlink:href="#m562c03035f" x="380.514816" y="148.82688" style="fill-opacity: 0; stroke: #228b22; stroke-width: 1.5"/>
    </g>
   </g>
   <g id="line2d_85">
    <path d="M 360.8064 256.387765 
L 380.514816 119.88864 
" style="fill: none; stroke: #6495ed; stroke-width: 1.5; stroke-linecap: square"/>
    <g>
     <use xlink:href="#m1b2aea1d06" x="360.8064" y="256.387765" style="fill-opacity: 0; stroke: #6495ed; stroke-width: 1.5; stroke-linejoin: miter"/>
     <use xlink:href="#m1b2aea1d06" x="380.514816" y="119.88864" style="fill-opacity: 0; stroke: #6495ed; stroke-width: 1.5; stroke-linejoin: miter"/>
    </g>
   </g>
   <g id="line2d_86">
    <path d="M 360.8064 256.387765 
L 380.514816 90.9504 
" style="fill: none; stroke: #ff7500; stroke-width: 1.5; stroke-linecap: square"/>
    <g>
     <use xlink:href="#m261cfd1d5c" x="360.8064" y="256.387765" style="fill-opacity: 0; stroke: #ff7500; stroke-width: 1.5; stroke-linejoin: bevel"/>
     <use xlink:href="#m261cfd1d5c" x="380.514816" y="90.9504" style="fill-opacity: 0; stroke: #ff7500; stroke-width: 1.5; stroke-linejoin: bevel"/>
    </g>
   </g>
   <g id="line2d_87">
    <path d="M 360.8064 251.068235 
L 380.514816 62.01216 
" style="fill: none; stroke: #ffc0cb; stroke-width: 1.5; stroke-linecap: square"/>
    <g>
     <use xlink:href="#ma1c692009c" x="360.8064" y="251.068235" style="fill-opacity: 0; stroke: #ffc0cb; stroke-width: 1.5; stroke-linejoin: miter"/>
     <use xlink:href="#ma1c692009c" x="380.514816" y="62.01216" style="fill-opacity: 0; stroke: #ffc0cb; stroke-width: 1.5; stroke-linejoin: miter"/>
    </g>
   </g>
   <g id="line2d_88">
    <path d="M 360.8064 298.944 
L 360.8064 27.648 
" style="fill: none; stroke: #000000; stroke-width: 1.5; stroke-linecap: square"/>
   </g>
   <g id="patch_3">
    <path d="M 57.6 298.944 
L 360.8064 298.944 
" style="fill: none; stroke: #000000; stroke-width: 0.8; stroke-linejoin: miter; stroke-linecap: square"/>
   </g>
   <g id="patch_4">
    <path d="M 57.6 27.648 
L 360.8064 27.648 
" style="fill: none; stroke: #000000; stroke-width: 0.8; stroke-linejoin: miter; stroke-linecap: square"/>
   </g>
   <g id="text_13">
    <!-- cma-t0 -->
    <g transform="translate(386.578944 297.381205)scale(0.14 -0.14)">
     <use xlink:href="#DejaVuSans-63"/>
     <use xlink:href="#DejaVuSans-6d" x="54.980469"/>
     <use xlink:href="#DejaVuSans-61" x="152.392578"/>
     <use xlink:href="#DejaVuSans-2d" x="213.671875"/>
     <use xlink:href="#DejaVuSans-74" x="249.755859"/>
     <use xlink:href="#DejaVuSans-30" x="288.964844"/>
    </g>
   </g>
   <g id="text_14">
    <!-- cma-t1 -->
    <g transform="translate(386.578944 268.442965)scale(0.14 -0.14)">
     <use xlink:href="#DejaVuSans-63"/>
     <use xlink:href="#DejaVuSans-6d" x="54.980469"/>
     <use xlink:href="#DejaVuSans-61" x="152.392578"/>
     <use xlink:href="#DejaVuSans-2d" x="213.671875"/>
     <use xlink:href="#DejaVuSans-74" x="249.755859"/>
     <use xlink:href="#DejaVuSans-31" x="288.964844"/>
    </g>
   </g>
   <g id="text_15">
    <!-- ddcma-t0r -->
    <g transform="translate(386.578944 239.504725)scale(0.14 -0.14)">
     <use xlink:href="#DejaVuSans-64"/>
     <use xlink:href="#DejaVuSans-64" x="63.476562"/>
     <use xlink:href="#DejaVuSans-63" x="126.953125"/>
     <use xlink:href="#DejaVuSans-6d" x="181.933594"/>
     <use xlink:href="#DejaVuSans-61" x="279.345703"/>
     <use xlink:href="#DejaVuSans-2d" x="340.625"/>
     <use xlink:href="#DejaVuSans-74" x="376.708984"/>
     <use xlink:href="#DejaVuSans-30" x="415.917969"/>
     <use xlink:href="#DejaVuSans-72" x="479.541016"/>
    </g>
   </g>
   <g id="text_16">
    <!-- ddcma-t0 -->
    <g transform="translate(386.578944 210.566485)scale(0.14 -0.14)">
     <use xlink:href="#DejaVuSans-64"/>
     <use xlink:href="#DejaVuSans-64" x="63.476562"/>
     <use xlink:href="#DejaVuSans-63" x="126.953125"/>
     <use xlink:href="#DejaVuSans-6d" x="181.933594"/>
     <use xlink:href="#DejaVuSans-61" x="279.345703"/>
     <use xlink:href="#DejaVuSans-2d" x="340.625"/>
     <use xlink:href="#DejaVuSans-74" x="376.708984"/>
     <use xlink:href="#DejaVuSans-30" x="415.917969"/>
    </g>
   </g>
   <g id="text_17">
    <!-- ddcma-t1 -->
    <g transform="translate(386.578944 181.628245)scale(0.14 -0.14)">
     <use xlink:href="#DejaVuSans-64"/>
     <use xlink:href="#DejaVuSans-64" x="63.476562"/>
     <use xlink:href="#DejaVuSans-63" x="126.953125"/>
     <use xlink:href="#DejaVuSans-6d" x="181.933594"/>
     <use xlink:href="#DejaVuSans-61" x="279.345703"/>
     <use xlink:href="#DejaVuSans-2d" x="340.625"/>
     <use xlink:href="#DejaVuSans-74" x="376.708984"/>
     <use xlink:href="#DejaVuSans-31" x="415.917969"/>
    </g>
   </g>
   <g id="text_18">
    <!-- ddcma-t1r -->
    <g transform="translate(386.578944 152.690005)scale(0.14 -0.14)">
     <use xlink:href="#DejaVuSans-64"/>
     <use xlink:href="#DejaVuSans-64" x="63.476562"/>
     <use xlink:href="#DejaVuSans-63" x="126.953125"/>
     <use xlink:href="#DejaVuSans-6d" x="181.933594"/>
     <use xlink:href="#DejaVuSans-61" x="279.345703"/>
     <use xlink:href="#DejaVuSans-2d" x="340.625"/>
     <use xlink:href="#DejaVuSans-74" x="376.708984"/>
     <use xlink:href="#DejaVuSans-31" x="415.917969"/>
     <use xlink:href="#DejaVuSans-72" x="479.541016"/>
    </g>
   </g>
   <g id="text_19">
    <!-- cma-1r -->
    <g transform="translate(386.578944 123.751765)scale(0.14 -0.14)">
     <use xlink:href="#DejaVuSans-63"/>
     <use xlink:href="#DejaVuSans-6d" x="54.980469"/>
     <use xlink:href="#DejaVuSans-61" x="152.392578"/>
     <use xlink:href="#DejaVuSans-2d" x="213.671875"/>
     <use xlink:href="#DejaVuSans-31" x="249.755859"/>
     <use xlink:href="#DejaVuSans-72" x="313.378906"/>
    </g>
   </g>
   <g id="text_20">
    <!-- cma-0r -->
    <g transform="translate(386.578944 94.813525)scale(0.14 -0.14)">
     <use xlink:href="#DejaVuSans-63"/>
     <use xlink:href="#DejaVuSans-6d" x="54.980469"/>
     <use xlink:href="#DejaVuSans-61" x="152.392578"/>
     <use xlink:href="#DejaVuSans-2d" x="213.671875"/>
     <use xlink:href="#DejaVuSans-30" x="249.755859"/>
     <use xlink:href="#DejaVuSans-72" x="313.378906"/>
    </g>
   </g>
   <g id="text_21">
    <!-- CMA-ES-2019 -->
    <g transform="translate(386.578944 65.875285)scale(0.14 -0.14)">
     <defs>
      <path id="DejaVuSans-43" d="M 4122 4306 
L 4122 3641 
Q 3803 3938 3442 4084 
Q 3081 4231 2675 4231 
Q 1875 4231 1450 3742 
Q 1025 3253 1025 2328 
Q 1025 1406 1450 917 
Q 1875 428 2675 428 
Q 3081 428 3442 575 
Q 3803 722 4122 1019 
L 4122 359 
Q 3791 134 3420 21 
Q 3050 -91 2638 -91 
Q 1578 -91 968 557 
Q 359 1206 359 2328 
Q 359 3453 968 4101 
Q 1578 4750 2638 4750 
Q 3056 4750 3426 4639 
Q 3797 4528 4122 4306 
z
" transform="scale(0.015625)"/>
      <path id="DejaVuSans-4d" d="M 628 4666 
L 1569 4666 
L 2759 1491 
L 3956 4666 
L 4897 4666 
L 4897 0 
L 4281 0 
L 4281 4097 
L 3078 897 
L 2444 897 
L 1241 4097 
L 1241 0 
L 628 0 
L 628 4666 
z
" transform="scale(0.015625)"/>
      <path id="DejaVuSans-41" d="M 2188 4044 
L 1331 1722 
L 3047 1722 
L 2188 4044 
z
M 1831 4666 
L 2547 4666 
L 4325 0 
L 3669 0 
L 3244 1197 
L 1141 1197 
L 716 0 
L 50 0 
L 1831 4666 
z
" transform="scale(0.015625)"/>
      <path id="DejaVuSans-45" d="M 628 4666 
L 3578 4666 
L 3578 4134 
L 1259 4134 
L 1259 2753 
L 3481 2753 
L 3481 2222 
L 1259 2222 
L 1259 531 
L 3634 531 
L 3634 0 
L 628 0 
L 628 4666 
z
" transform="scale(0.015625)"/>
      <path id="DejaVuSans-53" d="M 3425 4513 
L 3425 3897 
Q 3066 4069 2747 4153 
Q 2428 4238 2131 4238 
Q 1616 4238 1336 4038 
Q 1056 3838 1056 3469 
Q 1056 3159 1242 3001 
Q 1428 2844 1947 2747 
L 2328 2669 
Q 3034 2534 3370 2195 
Q 3706 1856 3706 1288 
Q 3706 609 3251 259 
Q 2797 -91 1919 -91 
Q 1588 -91 1214 -16 
Q 841 59 441 206 
L 441 856 
Q 825 641 1194 531 
Q 1563 422 1919 422 
Q 2459 422 2753 634 
Q 3047 847 3047 1241 
Q 3047 1584 2836 1778 
Q 2625 1972 2144 2069 
L 1759 2144 
Q 1053 2284 737 2584 
Q 422 2884 422 3419 
Q 422 4038 858 4394 
Q 1294 4750 2059 4750 
Q 2388 4750 2728 4690 
Q 3069 4631 3425 4513 
z
" transform="scale(0.015625)"/>
      <path id="DejaVuSans-39" d="M 703 97 
L 703 672 
Q 941 559 1184 500 
Q 1428 441 1663 441 
Q 2288 441 2617 861 
Q 2947 1281 2994 2138 
Q 2813 1869 2534 1725 
Q 2256 1581 1919 1581 
Q 1219 1581 811 2004 
Q 403 2428 403 3163 
Q 403 3881 828 4315 
Q 1253 4750 1959 4750 
Q 2769 4750 3195 4129 
Q 3622 3509 3622 2328 
Q 3622 1225 3098 567 
Q 2575 -91 1691 -91 
Q 1453 -91 1209 -44 
Q 966 3 703 97 
z
M 1959 2075 
Q 2384 2075 2632 2365 
Q 2881 2656 2881 3163 
Q 2881 3666 2632 3958 
Q 2384 4250 1959 4250 
Q 1534 4250 1286 3958 
Q 1038 3666 1038 3163 
Q 1038 2656 1286 2365 
Q 1534 2075 1959 2075 
z
" transform="scale(0.015625)"/>
     </defs>
     <use xlink:href="#DejaVuSans-43"/>
     <use xlink:href="#DejaVuSans-4d" x="69.824219"/>
     <use xlink:href="#DejaVuSans-41" x="156.103516"/>
     <use xlink:href="#DejaVuSans-2d" x="222.261719"/>
     <use xlink:href="#DejaVuSans-45" x="258.345703"/>
     <use xlink:href="#DejaVuSans-53" x="321.529297"/>
     <use xlink:href="#DejaVuSans-2d" x="385.005859"/>
     <use xlink:href="#DejaVuSans-32" x="421.089844"/>
     <use xlink:href="#DejaVuSans-30" x="484.712891"/>
     <use xlink:href="#DejaVuSans-31" x="548.335938"/>
     <use xlink:href="#DejaVuSans-39" x="611.958984"/>
    </g>
   </g>
   <g id="text_22">
    <!-- best 2009 -->
    <g transform="translate(386.578944 36.937045)scale(0.14 -0.14)">
     <defs>
      <path id="DejaVuSans-62" d="M 3116 1747 
Q 3116 2381 2855 2742 
Q 2594 3103 2138 3103 
Q 1681 3103 1420 2742 
Q 1159 2381 1159 1747 
Q 1159 1113 1420 752 
Q 1681 391 2138 391 
Q 2594 391 2855 752 
Q 3116 1113 3116 1747 
z
M 1159 2969 
Q 1341 3281 1617 3432 
Q 1894 3584 2278 3584 
Q 2916 3584 3314 3078 
Q 3713 2572 3713 1747 
Q 3713 922 3314 415 
Q 2916 -91 2278 -91 
Q 1894 -91 1617 61 
Q 1341 213 1159 525 
L 1159 0 
L 581 0 
L 581 4863 
L 1159 4863 
L 1159 2969 
z
" transform="scale(0.015625)"/>
     </defs>
     <use xlink:href="#DejaVuSans-62"/>
     <use xlink:href="#DejaVuSans-65" x="63.476562"/>
     <use xlink:href="#DejaVuSans-73" x="125"/>
     <use xlink:href="#DejaVuSans-74" x="177.099609"/>
     <use xlink:href="#DejaVuSans-20" x="216.308594"/>
     <use xlink:href="#DejaVuSans-32" x="248.095703"/>
     <use xlink:href="#DejaVuSans-30" x="311.71875"/>
     <use xlink:href="#DejaVuSans-30" x="375.341797"/>
     <use xlink:href="#DejaVuSans-39" x="438.964844"/>
    </g>
   </g>
   <g id="text_23">
    <!-- bbob f3, 20-D -->
    <g transform="translate(60.632064 38.111366)scale(0.102 -0.102)">
     <defs>
      <path id="DejaVuSans-33" d="M 2597 2516 
Q 3050 2419 3304 2112 
Q 3559 1806 3559 1356 
Q 3559 666 3084 287 
Q 2609 -91 1734 -91 
Q 1441 -91 1130 -33 
Q 819 25 488 141 
L 488 750 
Q 750 597 1062 519 
Q 1375 441 1716 441 
Q 2309 441 2620 675 
Q 2931 909 2931 1356 
Q 2931 1769 2642 2001 
Q 2353 2234 1838 2234 
L 1294 2234 
L 1294 2753 
L 1863 2753 
Q 2328 2753 2575 2939 
Q 2822 3125 2822 3475 
Q 2822 3834 2567 4026 
Q 2313 4219 1838 4219 
Q 1578 4219 1281 4162 
Q 984 4106 628 3988 
L 628 4550 
Q 988 4650 1302 4700 
Q 1616 4750 1894 4750 
Q 2613 4750 3031 4423 
Q 3450 4097 3450 3541 
Q 3450 3153 3228 2886 
Q 3006 2619 2597 2516 
z
" transform="scale(0.015625)"/>
      <path id="DejaVuSans-44" d="M 1259 4147 
L 1259 519 
L 2022 519 
Q 2988 519 3436 956 
Q 3884 1394 3884 2338 
Q 3884 3275 3436 3711 
Q 2988 4147 2022 4147 
L 1259 4147 
z
M 628 4666 
L 1925 4666 
Q 3281 4666 3915 4102 
Q 4550 3538 4550 2338 
Q 4550 1131 3912 565 
Q 3275 0 1925 0 
L 628 0 
L 628 4666 
z
" transform="scale(0.015625)"/>
     </defs>
     <use xlink:href="#DejaVuSans-62"/>
     <use xlink:href="#DejaVuSans-62" x="63.476562"/>
     <use xlink:href="#DejaVuSans-6f" x="126.953125"/>
     <use xlink:href="#DejaVuSans-62" x="188.134766"/>
     <use xlink:href="#DejaVuSans-20" x="251.611328"/>
     <use xlink:href="#DejaVuSans-66" x="283.398438"/>
     <use xlink:href="#DejaVuSans-33" x="318.603516"/>
     <use xlink:href="#DejaVuSans-2c" x="382.226562"/>
     <use xlink:href="#DejaVuSans-20" x="414.013672"/>
     <use xlink:href="#DejaVuSans-32" x="445.800781"/>
     <use xlink:href="#DejaVuSans-30" x="509.423828"/>
     <use xlink:href="#DejaVuSans-2d" x="573.046875"/>
     <use xlink:href="#DejaVuSans-44" x="609.130859"/>
    </g>
    <!-- 51 targets: 100..1e-08 -->
    <g transform="translate(60.632064 49.533135)scale(0.102 -0.102)">
     <defs>
      <path id="DejaVuSans-35" d="M 691 4666 
L 3169 4666 
L 3169 4134 
L 1269 4134 
L 1269 2991 
Q 1406 3038 1543 3061 
Q 1681 3084 1819 3084 
Q 2600 3084 3056 2656 
Q 3513 2228 3513 1497 
Q 3513 744 3044 326 
Q 2575 -91 1722 -91 
Q 1428 -91 1123 -41 
Q 819 9 494 109 
L 494 744 
Q 775 591 1075 516 
Q 1375 441 1709 441 
Q 2250 441 2565 725 
Q 2881 1009 2881 1497 
Q 2881 1984 2565 2268 
Q 2250 2553 1709 2553 
Q 1456 2553 1204 2497 
Q 953 2441 691 2322 
L 691 4666 
z
" transform="scale(0.015625)"/>
      <path id="DejaVuSans-3a" d="M 750 794 
L 1409 794 
L 1409 0 
L 750 0 
L 750 794 
z
M 750 3309 
L 1409 3309 
L 1409 2516 
L 750 2516 
L 750 3309 
z
" transform="scale(0.015625)"/>
     </defs>
     <use xlink:href="#DejaVuSans-35"/>
     <use xlink:href="#DejaVuSans-31" x="63.623047"/>
     <use xlink:href="#DejaVuSans-20" x="127.246094"/>
     <use xlink:href="#DejaVuSans-74" x="159.033203"/>
     <use xlink:href="#DejaVuSans-61" x="198.242188"/>
     <use xlink:href="#DejaVuSans-72" x="259.521484"/>
     <use xlink:href="#DejaVuSans-67" x="298.884766"/>
     <use xlink:href="#DejaVuSans-65" x="362.361328"/>
     <use xlink:href="#DejaVuSans-74" x="423.884766"/>
     <use xlink:href="#DejaVuSans-73" x="463.09375"/>
     <use xlink:href="#DejaVuSans-3a" x="515.193359"/>
     <use xlink:href="#DejaVuSans-20" x="548.884766"/>
     <use xlink:href="#DejaVuSans-31" x="580.671875"/>
     <use xlink:href="#DejaVuSans-30" x="644.294922"/>
     <use xlink:href="#DejaVuSans-30" x="707.917969"/>
     <use xlink:href="#DejaVuSans-2e" x="771.541016"/>
     <use xlink:href="#DejaVuSans-2e" x="803.328125"/>
     <use xlink:href="#DejaVuSans-31" x="835.115234"/>
     <use xlink:href="#DejaVuSans-65" x="898.738281"/>
     <use xlink:href="#DejaVuSans-2d" x="960.261719"/>
     <use xlink:href="#DejaVuSans-30" x="996.345703"/>
     <use xlink:href="#DejaVuSans-38" x="1059.96875"/>
    </g>
    <!-- 5, 15 instances -->
    <g transform="translate(60.632064 60.954904)scale(0.102 -0.102)">
     <use xlink:href="#DejaVuSans-35"/>
     <use xlink:href="#DejaVuSans-2c" x="63.623047"/>
     <use xlink:href="#DejaVuSans-20" x="95.410156"/>
     <use xlink:href="#DejaVuSans-31" x="127.197266"/>
     <use xlink:href="#DejaVuSans-35" x="190.820312"/>
     <use xlink:href="#DejaVuSans-20" x="254.443359"/>
     <use xlink:href="#DejaVuSans-69" x="286.230469"/>
     <use xlink:href="#DejaVuSans-6e" x="314.013672"/>
     <use xlink:href="#DejaVuSans-73" x="377.392578"/>
     <use xlink:href="#DejaVuSans-74" x="429.492188"/>
     <use xlink:href="#DejaVuSans-61" x="468.701172"/>
     <use xlink:href="#DejaVuSans-6e" x="529.980469"/>
     <use xlink:href="#DejaVuSans-63" x="593.359375"/>
     <use xlink:href="#DejaVuSans-65" x="648.339844"/>
     <use xlink:href="#DejaVuSans-73" x="709.863281"/>
    </g>
   </g>
   <g id="text_24">
    <!-- v2.6 -->
    <g style="fill: #808080" transform="translate(198.292262 294.151352)scale(0.1 -0.1)">
     <use xlink:href="#DejaVuSans-76"/>
     <use xlink:href="#DejaVuSans-32" x="59.179688"/>
     <use xlink:href="#DejaVuSans-2e" x="122.802734"/>
     <use xlink:href="#DejaVuSans-36" x="154.589844"/>
    </g>
   </g>
   <g id="text_25">
    <!-- 3 Rastrigin separable -->
    <g transform="translate(102.792262 21.648)scale(0.2 -0.2)">
     <defs>
      <path id="DejaVuSans-52" d="M 2841 2188 
Q 3044 2119 3236 1894 
Q 3428 1669 3622 1275 
L 4263 0 
L 3584 0 
L 2988 1197 
Q 2756 1666 2539 1819 
Q 2322 1972 1947 1972 
L 1259 1972 
L 1259 0 
L 628 0 
L 628 4666 
L 2053 4666 
Q 2853 4666 3247 4331 
Q 3641 3997 3641 3322 
Q 3641 2881 3436 2590 
Q 3231 2300 2841 2188 
z
M 1259 4147 
L 1259 2491 
L 2053 2491 
Q 2509 2491 2742 2702 
Q 2975 2913 2975 3322 
Q 2975 3731 2742 3939 
Q 2509 4147 2053 4147 
L 1259 4147 
z
" transform="scale(0.015625)"/>
     </defs>
     <use xlink:href="#DejaVuSans-33"/>
     <use xlink:href="#DejaVuSans-20" x="63.623047"/>
     <use xlink:href="#DejaVuSans-52" x="95.410156"/>
     <use xlink:href="#DejaVuSans-61" x="162.642578"/>
     <use xlink:href="#DejaVuSans-73" x="223.921875"/>
     <use xlink:href="#DejaVuSans-74" x="276.021484"/>
     <use xlink:href="#DejaVuSans-72" x="315.230469"/>
     <use xlink:href="#DejaVuSans-69" x="356.34375"/>
     <use xlink:href="#DejaVuSans-67" x="384.126953"/>
     <use xlink:href="#DejaVuSans-69" x="447.603516"/>
     <use xlink:href="#DejaVuSans-6e" x="475.386719"/>
     <use xlink:href="#DejaVuSans-20" x="538.765625"/>
     <use xlink:href="#DejaVuSans-73" x="570.552734"/>
     <use xlink:href="#DejaVuSans-65" x="622.652344"/>
     <use xlink:href="#DejaVuSans-70" x="684.175781"/>
     <use xlink:href="#DejaVuSans-61" x="747.652344"/>
     <use xlink:href="#DejaVuSans-72" x="808.931641"/>
     <use xlink:href="#DejaVuSans-61" x="850.044922"/>
     <use xlink:href="#DejaVuSans-62" x="911.324219"/>
     <use xlink:href="#DejaVuSans-6c" x="974.800781"/>
     <use xlink:href="#DejaVuSans-65" x="1002.583984"/>
    </g>
   </g>
  </g>
 </g>
 <defs>
  <clipPath id="p5dc1102310">
   <rect x="57.6" y="27.648" width="303.2064" height="271.296"/>
  </clipPath>
 </defs>
</svg>
