<?xml version="1.0" encoding="utf-8" standalone="no"?>
<!DOCTYPE svg PUBLIC "-//W3C//DTD SVG 1.1//EN"
  "http://www.w3.org/Graphics/SVG/1.1/DTD/svg11.dtd">
<svg xmlns:xlink="http://www.w3.org/1999/xlink" width="460.8pt" height="345.6pt" viewBox="0 0 460.8 345.6" xmlns="http://www.w3.org/2000/svg" version="1.1">
 <metadata>
  <rdf:RDF xmlns:dc="http://purl.org/dc/elements/1.1/" xmlns:cc="http://creativecommons.org/ns#" xmlns:rdf="http://www.w3.org/1999/02/22-rdf-syntax-ns#">
   <cc:Work>
    <dc:type rdf:resource="http://purl.org/dc/dcmitype/StillImage"/>
    <dc:date>2022-03-16T23:08:26.597975</dc:date>
    <dc:format>image/svg+xml</dc:format>
    <dc:creator>
     <cc:Agent>
      <dc:title>Matplotlib v3.5.1, https://matplotlib.org/</dc:title>
     </cc:Agent>
    </dc:creator>
   </cc:Work>
  </rdf:RDF>
 </metadata>
 <defs>
  <style type="text/css">*{stroke-linejoin: round; stroke-linecap: butt}</style>
 </defs>
 <g id="figure_1">
  <g id="patch_1">
   <path d="M 0 345.6 
L 460.8 345.6 
L 460.8 0 
L 0 0 
z
" style="fill: #ffffff"/>
  </g>
  <g id="axes_1">
   <g id="patch_2">
    <path d="M 57.6 298.944 
L 360.8064 298.944 
L 360.8064 27.648 
L 57.6 27.648 
z
" style="fill: #ffffff"/>
   </g>
   <g id="matplotlib.axis_1">
    <g id="xtick_1">
     <g id="line2d_1">
      <path d="M 57.6 298.944 
L 57.6 27.648 
" clip-path="url(#pb12c99dea9)" style="fill: none; stroke: #b0b0b0; stroke-width: 0.8; stroke-linecap: square"/>
     </g>
     <g id="line2d_2">
      <defs>
       <path id="md30d1f55c9" d="M 0 0 
L 0 3.5 
" style="stroke: #000000; stroke-width: 0.8"/>
      </defs>
      <g>
       <use xlink:href="#md30d1f55c9" x="57.6" y="298.944" style="stroke: #000000; stroke-width: 0.8"/>
      </g>
     </g>
     <g id="text_1">
      <!-- 0 -->
      <g transform="translate(52.191875 318.861344)scale(0.17 -0.17)">
       <defs>
        <path id="DejaVuSans-30" d="M 2034 4250 
Q 1547 4250 1301 3770 
Q 1056 3291 1056 2328 
Q 1056 1369 1301 889 
Q 1547 409 2034 409 
Q 2525 409 2770 889 
Q 3016 1369 3016 2328 
Q 3016 3291 2770 3770 
Q 2525 4250 2034 4250 
z
M 2034 4750 
Q 2819 4750 3233 4129 
Q 3647 3509 3647 2328 
Q 3647 1150 3233 529 
Q 2819 -91 2034 -91 
Q 1250 -91 836 529 
Q 422 1150 422 2328 
Q 422 3509 836 4129 
Q 1250 4750 2034 4750 
z
" transform="scale(0.015625)"/>
       </defs>
       <use xlink:href="#DejaVuSans-30"/>
      </g>
     </g>
    </g>
    <g id="xtick_2">
     <g id="line2d_3">
      <path d="M 144.2304 298.944 
L 144.2304 27.648 
" clip-path="url(#pb12c99dea9)" style="fill: none; stroke: #b0b0b0; stroke-width: 0.8; stroke-linecap: square"/>
     </g>
     <g id="line2d_4">
      <g>
       <use xlink:href="#md30d1f55c9" x="144.2304" y="298.944" style="stroke: #000000; stroke-width: 0.8"/>
      </g>
     </g>
     <g id="text_2">
      <!-- 2 -->
      <g transform="translate(138.822275 318.861344)scale(0.17 -0.17)">
       <defs>
        <path id="DejaVuSans-32" d="M 1228 531 
L 3431 531 
L 3431 0 
L 469 0 
L 469 531 
Q 828 903 1448 1529 
Q 2069 2156 2228 2338 
Q 2531 2678 2651 2914 
Q 2772 3150 2772 3378 
Q 2772 3750 2511 3984 
Q 2250 4219 1831 4219 
Q 1534 4219 1204 4116 
Q 875 4013 500 3803 
L 500 4441 
Q 881 4594 1212 4672 
Q 1544 4750 1819 4750 
Q 2544 4750 2975 4387 
Q 3406 4025 3406 3419 
Q 3406 3131 3298 2873 
Q 3191 2616 2906 2266 
Q 2828 2175 2409 1742 
Q 1991 1309 1228 531 
z
" transform="scale(0.015625)"/>
       </defs>
       <use xlink:href="#DejaVuSans-32"/>
      </g>
     </g>
    </g>
    <g id="xtick_3">
     <g id="line2d_5">
      <path d="M 230.8608 298.944 
L 230.8608 27.648 
" clip-path="url(#pb12c99dea9)" style="fill: none; stroke: #b0b0b0; stroke-width: 0.8; stroke-linecap: square"/>
     </g>
     <g id="line2d_6">
      <g>
       <use xlink:href="#md30d1f55c9" x="230.8608" y="298.944" style="stroke: #000000; stroke-width: 0.8"/>
      </g>
     </g>
     <g id="text_3">
      <!-- 4 -->
      <g transform="translate(225.452675 318.861344)scale(0.17 -0.17)">
       <defs>
        <path id="DejaVuSans-34" d="M 2419 4116 
L 825 1625 
L 2419 1625 
L 2419 4116 
z
M 2253 4666 
L 3047 4666 
L 3047 1625 
L 3713 1625 
L 3713 1100 
L 3047 1100 
L 3047 0 
L 2419 0 
L 2419 1100 
L 313 1100 
L 313 1709 
L 2253 4666 
z
" transform="scale(0.015625)"/>
       </defs>
       <use xlink:href="#DejaVuSans-34"/>
      </g>
     </g>
    </g>
    <g id="xtick_4">
     <g id="line2d_7">
      <path d="M 317.4912 298.944 
L 317.4912 27.648 
" clip-path="url(#pb12c99dea9)" style="fill: none; stroke: #b0b0b0; stroke-width: 0.8; stroke-linecap: square"/>
     </g>
     <g id="line2d_8">
      <g>
       <use xlink:href="#md30d1f55c9" x="317.4912" y="298.944" style="stroke: #000000; stroke-width: 0.8"/>
      </g>
     </g>
     <g id="text_4">
      <!-- 6 -->
      <g transform="translate(312.083075 318.861344)scale(0.17 -0.17)">
       <defs>
        <path id="DejaVuSans-36" d="M 2113 2584 
Q 1688 2584 1439 2293 
Q 1191 2003 1191 1497 
Q 1191 994 1439 701 
Q 1688 409 2113 409 
Q 2538 409 2786 701 
Q 3034 994 3034 1497 
Q 3034 2003 2786 2293 
Q 2538 2584 2113 2584 
z
M 3366 4563 
L 3366 3988 
Q 3128 4100 2886 4159 
Q 2644 4219 2406 4219 
Q 1781 4219 1451 3797 
Q 1122 3375 1075 2522 
Q 1259 2794 1537 2939 
Q 1816 3084 2150 3084 
Q 2853 3084 3261 2657 
Q 3669 2231 3669 1497 
Q 3669 778 3244 343 
Q 2819 -91 2113 -91 
Q 1303 -91 875 529 
Q 447 1150 447 2328 
Q 447 3434 972 4092 
Q 1497 4750 2381 4750 
Q 2619 4750 2861 4703 
Q 3103 4656 3366 4563 
z
" transform="scale(0.015625)"/>
       </defs>
       <use xlink:href="#DejaVuSans-36"/>
      </g>
     </g>
    </g>
    <g id="xtick_5">
     <g id="line2d_9">
      <path d="M 100.9152 298.944 
L 100.9152 27.648 
" clip-path="url(#pb12c99dea9)" style="fill: none; stroke: #b0b0b0; stroke-width: 0.8; stroke-linecap: square"/>
     </g>
     <g id="line2d_10">
      <defs>
       <path id="m818763f96c" d="M 0 0 
L 0 2 
" style="stroke: #000000; stroke-width: 0.6"/>
      </defs>
      <g>
       <use xlink:href="#m818763f96c" x="100.9152" y="298.944" style="stroke: #000000; stroke-width: 0.6"/>
      </g>
     </g>
    </g>
    <g id="xtick_6">
     <g id="line2d_11">
      <path d="M 187.5456 298.944 
L 187.5456 27.648 
" clip-path="url(#pb12c99dea9)" style="fill: none; stroke: #b0b0b0; stroke-width: 0.8; stroke-linecap: square"/>
     </g>
     <g id="line2d_12">
      <g>
       <use xlink:href="#m818763f96c" x="187.5456" y="298.944" style="stroke: #000000; stroke-width: 0.6"/>
      </g>
     </g>
    </g>
    <g id="xtick_7">
     <g id="line2d_13">
      <path d="M 274.176 298.944 
L 274.176 27.648 
" clip-path="url(#pb12c99dea9)" style="fill: none; stroke: #b0b0b0; stroke-width: 0.8; stroke-linecap: square"/>
     </g>
     <g id="line2d_14">
      <g>
       <use xlink:href="#m818763f96c" x="274.176" y="298.944" style="stroke: #000000; stroke-width: 0.6"/>
      </g>
     </g>
    </g>
    <g id="xtick_8">
     <g id="line2d_15">
      <path d="M 360.8064 298.944 
L 360.8064 27.648 
" clip-path="url(#pb12c99dea9)" style="fill: none; stroke: #b0b0b0; stroke-width: 0.8; stroke-linecap: square"/>
     </g>
     <g id="line2d_16">
      <g>
       <use xlink:href="#m818763f96c" x="360.8064" y="298.944" style="stroke: #000000; stroke-width: 0.6"/>
      </g>
     </g>
    </g>
    <g id="text_5">
     <!-- log10(# f-evals / dimension) -->
     <g transform="translate(88.823278 339.314156)scale(0.17 -0.17)">
      <defs>
       <path id="DejaVuSans-6c" d="M 603 4863 
L 1178 4863 
L 1178 0 
L 603 0 
L 603 4863 
z
" transform="scale(0.015625)"/>
       <path id="DejaVuSans-6f" d="M 1959 3097 
Q 1497 3097 1228 2736 
Q 959 2375 959 1747 
Q 959 1119 1226 758 
Q 1494 397 1959 397 
Q 2419 397 2687 759 
Q 2956 1122 2956 1747 
Q 2956 2369 2687 2733 
Q 2419 3097 1959 3097 
z
M 1959 3584 
Q 2709 3584 3137 3096 
Q 3566 2609 3566 1747 
Q 3566 888 3137 398 
Q 2709 -91 1959 -91 
Q 1206 -91 779 398 
Q 353 888 353 1747 
Q 353 2609 779 3096 
Q 1206 3584 1959 3584 
z
" transform="scale(0.015625)"/>
       <path id="DejaVuSans-67" d="M 2906 1791 
Q 2906 2416 2648 2759 
Q 2391 3103 1925 3103 
Q 1463 3103 1205 2759 
Q 947 2416 947 1791 
Q 947 1169 1205 825 
Q 1463 481 1925 481 
Q 2391 481 2648 825 
Q 2906 1169 2906 1791 
z
M 3481 434 
Q 3481 -459 3084 -895 
Q 2688 -1331 1869 -1331 
Q 1566 -1331 1297 -1286 
Q 1028 -1241 775 -1147 
L 775 -588 
Q 1028 -725 1275 -790 
Q 1522 -856 1778 -856 
Q 2344 -856 2625 -561 
Q 2906 -266 2906 331 
L 2906 616 
Q 2728 306 2450 153 
Q 2172 0 1784 0 
Q 1141 0 747 490 
Q 353 981 353 1791 
Q 353 2603 747 3093 
Q 1141 3584 1784 3584 
Q 2172 3584 2450 3431 
Q 2728 3278 2906 2969 
L 2906 3500 
L 3481 3500 
L 3481 434 
z
" transform="scale(0.015625)"/>
       <path id="DejaVuSans-31" d="M 794 531 
L 1825 531 
L 1825 4091 
L 703 3866 
L 703 4441 
L 1819 4666 
L 2450 4666 
L 2450 531 
L 3481 531 
L 3481 0 
L 794 0 
L 794 531 
z
" transform="scale(0.015625)"/>
       <path id="DejaVuSans-28" d="M 1984 4856 
Q 1566 4138 1362 3434 
Q 1159 2731 1159 2009 
Q 1159 1288 1364 580 
Q 1569 -128 1984 -844 
L 1484 -844 
Q 1016 -109 783 600 
Q 550 1309 550 2009 
Q 550 2706 781 3412 
Q 1013 4119 1484 4856 
L 1984 4856 
z
" transform="scale(0.015625)"/>
       <path id="DejaVuSans-23" d="M 3272 2816 
L 2363 2816 
L 2100 1772 
L 3016 1772 
L 3272 2816 
z
M 2803 4594 
L 2478 3297 
L 3391 3297 
L 3719 4594 
L 4219 4594 
L 3897 3297 
L 4872 3297 
L 4872 2816 
L 3775 2816 
L 3519 1772 
L 4513 1772 
L 4513 1294 
L 3397 1294 
L 3072 0 
L 2572 0 
L 2894 1294 
L 1978 1294 
L 1656 0 
L 1153 0 
L 1478 1294 
L 494 1294 
L 494 1772 
L 1594 1772 
L 1856 2816 
L 850 2816 
L 850 3297 
L 1978 3297 
L 2297 4594 
L 2803 4594 
z
" transform="scale(0.015625)"/>
       <path id="DejaVuSans-20" transform="scale(0.015625)"/>
       <path id="DejaVuSans-66" d="M 2375 4863 
L 2375 4384 
L 1825 4384 
Q 1516 4384 1395 4259 
Q 1275 4134 1275 3809 
L 1275 3500 
L 2222 3500 
L 2222 3053 
L 1275 3053 
L 1275 0 
L 697 0 
L 697 3053 
L 147 3053 
L 147 3500 
L 697 3500 
L 697 3744 
Q 697 4328 969 4595 
Q 1241 4863 1831 4863 
L 2375 4863 
z
" transform="scale(0.015625)"/>
       <path id="DejaVuSans-2d" d="M 313 2009 
L 1997 2009 
L 1997 1497 
L 313 1497 
L 313 2009 
z
" transform="scale(0.015625)"/>
       <path id="DejaVuSans-65" d="M 3597 1894 
L 3597 1613 
L 953 1613 
Q 991 1019 1311 708 
Q 1631 397 2203 397 
Q 2534 397 2845 478 
Q 3156 559 3463 722 
L 3463 178 
Q 3153 47 2828 -22 
Q 2503 -91 2169 -91 
Q 1331 -91 842 396 
Q 353 884 353 1716 
Q 353 2575 817 3079 
Q 1281 3584 2069 3584 
Q 2775 3584 3186 3129 
Q 3597 2675 3597 1894 
z
M 3022 2063 
Q 3016 2534 2758 2815 
Q 2500 3097 2075 3097 
Q 1594 3097 1305 2825 
Q 1016 2553 972 2059 
L 3022 2063 
z
" transform="scale(0.015625)"/>
       <path id="DejaVuSans-76" d="M 191 3500 
L 800 3500 
L 1894 563 
L 2988 3500 
L 3597 3500 
L 2284 0 
L 1503 0 
L 191 3500 
z
" transform="scale(0.015625)"/>
       <path id="DejaVuSans-61" d="M 2194 1759 
Q 1497 1759 1228 1600 
Q 959 1441 959 1056 
Q 959 750 1161 570 
Q 1363 391 1709 391 
Q 2188 391 2477 730 
Q 2766 1069 2766 1631 
L 2766 1759 
L 2194 1759 
z
M 3341 1997 
L 3341 0 
L 2766 0 
L 2766 531 
Q 2569 213 2275 61 
Q 1981 -91 1556 -91 
Q 1019 -91 701 211 
Q 384 513 384 1019 
Q 384 1609 779 1909 
Q 1175 2209 1959 2209 
L 2766 2209 
L 2766 2266 
Q 2766 2663 2505 2880 
Q 2244 3097 1772 3097 
Q 1472 3097 1187 3025 
Q 903 2953 641 2809 
L 641 3341 
Q 956 3463 1253 3523 
Q 1550 3584 1831 3584 
Q 2591 3584 2966 3190 
Q 3341 2797 3341 1997 
z
" transform="scale(0.015625)"/>
       <path id="DejaVuSans-73" d="M 2834 3397 
L 2834 2853 
Q 2591 2978 2328 3040 
Q 2066 3103 1784 3103 
Q 1356 3103 1142 2972 
Q 928 2841 928 2578 
Q 928 2378 1081 2264 
Q 1234 2150 1697 2047 
L 1894 2003 
Q 2506 1872 2764 1633 
Q 3022 1394 3022 966 
Q 3022 478 2636 193 
Q 2250 -91 1575 -91 
Q 1294 -91 989 -36 
Q 684 19 347 128 
L 347 722 
Q 666 556 975 473 
Q 1284 391 1588 391 
Q 1994 391 2212 530 
Q 2431 669 2431 922 
Q 2431 1156 2273 1281 
Q 2116 1406 1581 1522 
L 1381 1569 
Q 847 1681 609 1914 
Q 372 2147 372 2553 
Q 372 3047 722 3315 
Q 1072 3584 1716 3584 
Q 2034 3584 2315 3537 
Q 2597 3491 2834 3397 
z
" transform="scale(0.015625)"/>
       <path id="DejaVuSans-2f" d="M 1625 4666 
L 2156 4666 
L 531 -594 
L 0 -594 
L 1625 4666 
z
" transform="scale(0.015625)"/>
       <path id="DejaVuSans-64" d="M 2906 2969 
L 2906 4863 
L 3481 4863 
L 3481 0 
L 2906 0 
L 2906 525 
Q 2725 213 2448 61 
Q 2172 -91 1784 -91 
Q 1150 -91 751 415 
Q 353 922 353 1747 
Q 353 2572 751 3078 
Q 1150 3584 1784 3584 
Q 2172 3584 2448 3432 
Q 2725 3281 2906 2969 
z
M 947 1747 
Q 947 1113 1208 752 
Q 1469 391 1925 391 
Q 2381 391 2643 752 
Q 2906 1113 2906 1747 
Q 2906 2381 2643 2742 
Q 2381 3103 1925 3103 
Q 1469 3103 1208 2742 
Q 947 2381 947 1747 
z
" transform="scale(0.015625)"/>
       <path id="DejaVuSans-69" d="M 603 3500 
L 1178 3500 
L 1178 0 
L 603 0 
L 603 3500 
z
M 603 4863 
L 1178 4863 
L 1178 4134 
L 603 4134 
L 603 4863 
z
" transform="scale(0.015625)"/>
       <path id="DejaVuSans-6d" d="M 3328 2828 
Q 3544 3216 3844 3400 
Q 4144 3584 4550 3584 
Q 5097 3584 5394 3201 
Q 5691 2819 5691 2113 
L 5691 0 
L 5113 0 
L 5113 2094 
Q 5113 2597 4934 2840 
Q 4756 3084 4391 3084 
Q 3944 3084 3684 2787 
Q 3425 2491 3425 1978 
L 3425 0 
L 2847 0 
L 2847 2094 
Q 2847 2600 2669 2842 
Q 2491 3084 2119 3084 
Q 1678 3084 1418 2786 
Q 1159 2488 1159 1978 
L 1159 0 
L 581 0 
L 581 3500 
L 1159 3500 
L 1159 2956 
Q 1356 3278 1631 3431 
Q 1906 3584 2284 3584 
Q 2666 3584 2933 3390 
Q 3200 3197 3328 2828 
z
" transform="scale(0.015625)"/>
       <path id="DejaVuSans-6e" d="M 3513 2113 
L 3513 0 
L 2938 0 
L 2938 2094 
Q 2938 2591 2744 2837 
Q 2550 3084 2163 3084 
Q 1697 3084 1428 2787 
Q 1159 2491 1159 1978 
L 1159 0 
L 581 0 
L 581 3500 
L 1159 3500 
L 1159 2956 
Q 1366 3272 1645 3428 
Q 1925 3584 2291 3584 
Q 2894 3584 3203 3211 
Q 3513 2838 3513 2113 
z
" transform="scale(0.015625)"/>
       <path id="DejaVuSans-29" d="M 513 4856 
L 1013 4856 
Q 1481 4119 1714 3412 
Q 1947 2706 1947 2009 
Q 1947 1309 1714 600 
Q 1481 -109 1013 -844 
L 513 -844 
Q 928 -128 1133 580 
Q 1338 1288 1338 2009 
Q 1338 2731 1133 3434 
Q 928 4138 513 4856 
z
" transform="scale(0.015625)"/>
      </defs>
      <use xlink:href="#DejaVuSans-6c"/>
      <use xlink:href="#DejaVuSans-6f" x="27.783203"/>
      <use xlink:href="#DejaVuSans-67" x="88.964844"/>
      <use xlink:href="#DejaVuSans-31" x="152.441406"/>
      <use xlink:href="#DejaVuSans-30" x="216.064453"/>
      <use xlink:href="#DejaVuSans-28" x="279.6875"/>
      <use xlink:href="#DejaVuSans-23" x="318.701172"/>
      <use xlink:href="#DejaVuSans-20" x="402.490234"/>
      <use xlink:href="#DejaVuSans-66" x="434.277344"/>
      <use xlink:href="#DejaVuSans-2d" x="463.982422"/>
      <use xlink:href="#DejaVuSans-65" x="500.066406"/>
      <use xlink:href="#DejaVuSans-76" x="561.589844"/>
      <use xlink:href="#DejaVuSans-61" x="620.769531"/>
      <use xlink:href="#DejaVuSans-6c" x="682.048828"/>
      <use xlink:href="#DejaVuSans-73" x="709.832031"/>
      <use xlink:href="#DejaVuSans-20" x="761.931641"/>
      <use xlink:href="#DejaVuSans-2f" x="793.71875"/>
      <use xlink:href="#DejaVuSans-20" x="827.410156"/>
      <use xlink:href="#DejaVuSans-64" x="859.197266"/>
      <use xlink:href="#DejaVuSans-69" x="922.673828"/>
      <use xlink:href="#DejaVuSans-6d" x="950.457031"/>
      <use xlink:href="#DejaVuSans-65" x="1047.869141"/>
      <use xlink:href="#DejaVuSans-6e" x="1109.392578"/>
      <use xlink:href="#DejaVuSans-73" x="1172.771484"/>
      <use xlink:href="#DejaVuSans-69" x="1224.871094"/>
      <use xlink:href="#DejaVuSans-6f" x="1252.654297"/>
      <use xlink:href="#DejaVuSans-6e" x="1313.835938"/>
      <use xlink:href="#DejaVuSans-29" x="1377.214844"/>
     </g>
    </g>
   </g>
   <g id="matplotlib.axis_2">
    <g id="ytick_1">
     <g id="line2d_17">
      <path d="M 57.6 298.944 
L 360.8064 298.944 
" clip-path="url(#pb12c99dea9)" style="fill: none; stroke: #b0b0b0; stroke-width: 0.8; stroke-linecap: square"/>
     </g>
     <g id="line2d_18">
      <defs>
       <path id="ma85d130696" d="M 0 0 
L -3.5 0 
" style="stroke: #000000; stroke-width: 0.8"/>
      </defs>
      <g>
       <use xlink:href="#ma85d130696" x="57.6" y="298.944" style="stroke: #000000; stroke-width: 0.8"/>
      </g>
     </g>
     <g id="text_6">
      <!-- 0.0 -->
      <g transform="translate(25.155 305.02275)scale(0.16 -0.16)">
       <defs>
        <path id="DejaVuSans-2e" d="M 684 794 
L 1344 794 
L 1344 0 
L 684 0 
L 684 794 
z
" transform="scale(0.015625)"/>
       </defs>
       <use xlink:href="#DejaVuSans-30"/>
       <use xlink:href="#DejaVuSans-2e" x="63.623047"/>
       <use xlink:href="#DejaVuSans-30" x="95.410156"/>
      </g>
     </g>
    </g>
    <g id="ytick_2">
     <g id="line2d_19">
      <path d="M 57.6 244.6848 
L 360.8064 244.6848 
" clip-path="url(#pb12c99dea9)" style="fill: none; stroke: #b0b0b0; stroke-width: 0.8; stroke-linecap: square"/>
     </g>
     <g id="line2d_20">
      <g>
       <use xlink:href="#ma85d130696" x="57.6" y="244.6848" style="stroke: #000000; stroke-width: 0.8"/>
      </g>
     </g>
     <g id="text_7">
      <!-- 0.2 -->
      <g transform="translate(25.155 250.76355)scale(0.16 -0.16)">
       <use xlink:href="#DejaVuSans-30"/>
       <use xlink:href="#DejaVuSans-2e" x="63.623047"/>
       <use xlink:href="#DejaVuSans-32" x="95.410156"/>
      </g>
     </g>
    </g>
    <g id="ytick_3">
     <g id="line2d_21">
      <path d="M 57.6 190.4256 
L 360.8064 190.4256 
" clip-path="url(#pb12c99dea9)" style="fill: none; stroke: #b0b0b0; stroke-width: 0.8; stroke-linecap: square"/>
     </g>
     <g id="line2d_22">
      <g>
       <use xlink:href="#ma85d130696" x="57.6" y="190.4256" style="stroke: #000000; stroke-width: 0.8"/>
      </g>
     </g>
     <g id="text_8">
      <!-- 0.4 -->
      <g transform="translate(25.155 196.50435)scale(0.16 -0.16)">
       <use xlink:href="#DejaVuSans-30"/>
       <use xlink:href="#DejaVuSans-2e" x="63.623047"/>
       <use xlink:href="#DejaVuSans-34" x="95.410156"/>
      </g>
     </g>
    </g>
    <g id="ytick_4">
     <g id="line2d_23">
      <path d="M 57.6 136.1664 
L 360.8064 136.1664 
" clip-path="url(#pb12c99dea9)" style="fill: none; stroke: #b0b0b0; stroke-width: 0.8; stroke-linecap: square"/>
     </g>
     <g id="line2d_24">
      <g>
       <use xlink:href="#ma85d130696" x="57.6" y="136.1664" style="stroke: #000000; stroke-width: 0.8"/>
      </g>
     </g>
     <g id="text_9">
      <!-- 0.6 -->
      <g transform="translate(25.155 142.24515)scale(0.16 -0.16)">
       <use xlink:href="#DejaVuSans-30"/>
       <use xlink:href="#DejaVuSans-2e" x="63.623047"/>
       <use xlink:href="#DejaVuSans-36" x="95.410156"/>
      </g>
     </g>
    </g>
    <g id="ytick_5">
     <g id="line2d_25">
      <path d="M 57.6 81.9072 
L 360.8064 81.9072 
" clip-path="url(#pb12c99dea9)" style="fill: none; stroke: #b0b0b0; stroke-width: 0.8; stroke-linecap: square"/>
     </g>
     <g id="line2d_26">
      <g>
       <use xlink:href="#ma85d130696" x="57.6" y="81.9072" style="stroke: #000000; stroke-width: 0.8"/>
      </g>
     </g>
     <g id="text_10">
      <!-- 0.8 -->
      <g transform="translate(25.155 87.98595)scale(0.16 -0.16)">
       <defs>
        <path id="DejaVuSans-38" d="M 2034 2216 
Q 1584 2216 1326 1975 
Q 1069 1734 1069 1313 
Q 1069 891 1326 650 
Q 1584 409 2034 409 
Q 2484 409 2743 651 
Q 3003 894 3003 1313 
Q 3003 1734 2745 1975 
Q 2488 2216 2034 2216 
z
M 1403 2484 
Q 997 2584 770 2862 
Q 544 3141 544 3541 
Q 544 4100 942 4425 
Q 1341 4750 2034 4750 
Q 2731 4750 3128 4425 
Q 3525 4100 3525 3541 
Q 3525 3141 3298 2862 
Q 3072 2584 2669 2484 
Q 3125 2378 3379 2068 
Q 3634 1759 3634 1313 
Q 3634 634 3220 271 
Q 2806 -91 2034 -91 
Q 1263 -91 848 271 
Q 434 634 434 1313 
Q 434 1759 690 2068 
Q 947 2378 1403 2484 
z
M 1172 3481 
Q 1172 3119 1398 2916 
Q 1625 2713 2034 2713 
Q 2441 2713 2670 2916 
Q 2900 3119 2900 3481 
Q 2900 3844 2670 4047 
Q 2441 4250 2034 4250 
Q 1625 4250 1398 4047 
Q 1172 3844 1172 3481 
z
" transform="scale(0.015625)"/>
       </defs>
       <use xlink:href="#DejaVuSans-30"/>
       <use xlink:href="#DejaVuSans-2e" x="63.623047"/>
       <use xlink:href="#DejaVuSans-38" x="95.410156"/>
      </g>
     </g>
    </g>
    <g id="ytick_6">
     <g id="line2d_27">
      <path d="M 57.6 27.648 
L 360.8064 27.648 
" clip-path="url(#pb12c99dea9)" style="fill: none; stroke: #b0b0b0; stroke-width: 0.8; stroke-linecap: square"/>
     </g>
     <g id="line2d_28">
      <g>
       <use xlink:href="#ma85d130696" x="57.6" y="27.648" style="stroke: #000000; stroke-width: 0.8"/>
      </g>
     </g>
     <g id="text_11">
      <!-- 1.0 -->
      <g transform="translate(25.155 33.72675)scale(0.16 -0.16)">
       <use xlink:href="#DejaVuSans-31"/>
       <use xlink:href="#DejaVuSans-2e" x="63.623047"/>
       <use xlink:href="#DejaVuSans-30" x="95.410156"/>
      </g>
     </g>
    </g>
    <g id="text_12">
     <!-- Fraction of function,target pairs -->
     <g transform="translate(17.619531 297.681)rotate(-90)scale(0.17 -0.17)">
      <defs>
       <path id="DejaVuSans-46" d="M 628 4666 
L 3309 4666 
L 3309 4134 
L 1259 4134 
L 1259 2759 
L 3109 2759 
L 3109 2228 
L 1259 2228 
L 1259 0 
L 628 0 
L 628 4666 
z
" transform="scale(0.015625)"/>
       <path id="DejaVuSans-72" d="M 2631 2963 
Q 2534 3019 2420 3045 
Q 2306 3072 2169 3072 
Q 1681 3072 1420 2755 
Q 1159 2438 1159 1844 
L 1159 0 
L 581 0 
L 581 3500 
L 1159 3500 
L 1159 2956 
Q 1341 3275 1631 3429 
Q 1922 3584 2338 3584 
Q 2397 3584 2469 3576 
Q 2541 3569 2628 3553 
L 2631 2963 
z
" transform="scale(0.015625)"/>
       <path id="DejaVuSans-63" d="M 3122 3366 
L 3122 2828 
Q 2878 2963 2633 3030 
Q 2388 3097 2138 3097 
Q 1578 3097 1268 2742 
Q 959 2388 959 1747 
Q 959 1106 1268 751 
Q 1578 397 2138 397 
Q 2388 397 2633 464 
Q 2878 531 3122 666 
L 3122 134 
Q 2881 22 2623 -34 
Q 2366 -91 2075 -91 
Q 1284 -91 818 406 
Q 353 903 353 1747 
Q 353 2603 823 3093 
Q 1294 3584 2113 3584 
Q 2378 3584 2631 3529 
Q 2884 3475 3122 3366 
z
" transform="scale(0.015625)"/>
       <path id="DejaVuSans-74" d="M 1172 4494 
L 1172 3500 
L 2356 3500 
L 2356 3053 
L 1172 3053 
L 1172 1153 
Q 1172 725 1289 603 
Q 1406 481 1766 481 
L 2356 481 
L 2356 0 
L 1766 0 
Q 1100 0 847 248 
Q 594 497 594 1153 
L 594 3053 
L 172 3053 
L 172 3500 
L 594 3500 
L 594 4494 
L 1172 4494 
z
" transform="scale(0.015625)"/>
       <path id="DejaVuSans-75" d="M 544 1381 
L 544 3500 
L 1119 3500 
L 1119 1403 
Q 1119 906 1312 657 
Q 1506 409 1894 409 
Q 2359 409 2629 706 
Q 2900 1003 2900 1516 
L 2900 3500 
L 3475 3500 
L 3475 0 
L 2900 0 
L 2900 538 
Q 2691 219 2414 64 
Q 2138 -91 1772 -91 
Q 1169 -91 856 284 
Q 544 659 544 1381 
z
M 1991 3584 
L 1991 3584 
z
" transform="scale(0.015625)"/>
       <path id="DejaVuSans-2c" d="M 750 794 
L 1409 794 
L 1409 256 
L 897 -744 
L 494 -744 
L 750 256 
L 750 794 
z
" transform="scale(0.015625)"/>
       <path id="DejaVuSans-70" d="M 1159 525 
L 1159 -1331 
L 581 -1331 
L 581 3500 
L 1159 3500 
L 1159 2969 
Q 1341 3281 1617 3432 
Q 1894 3584 2278 3584 
Q 2916 3584 3314 3078 
Q 3713 2572 3713 1747 
Q 3713 922 3314 415 
Q 2916 -91 2278 -91 
Q 1894 -91 1617 61 
Q 1341 213 1159 525 
z
M 3116 1747 
Q 3116 2381 2855 2742 
Q 2594 3103 2138 3103 
Q 1681 3103 1420 2742 
Q 1159 2381 1159 1747 
Q 1159 1113 1420 752 
Q 1681 391 2138 391 
Q 2594 391 2855 752 
Q 3116 1113 3116 1747 
z
" transform="scale(0.015625)"/>
      </defs>
      <use xlink:href="#DejaVuSans-46"/>
      <use xlink:href="#DejaVuSans-72" x="50.269531"/>
      <use xlink:href="#DejaVuSans-61" x="91.382812"/>
      <use xlink:href="#DejaVuSans-63" x="152.662109"/>
      <use xlink:href="#DejaVuSans-74" x="207.642578"/>
      <use xlink:href="#DejaVuSans-69" x="246.851562"/>
      <use xlink:href="#DejaVuSans-6f" x="274.634766"/>
      <use xlink:href="#DejaVuSans-6e" x="335.816406"/>
      <use xlink:href="#DejaVuSans-20" x="399.195312"/>
      <use xlink:href="#DejaVuSans-6f" x="430.982422"/>
      <use xlink:href="#DejaVuSans-66" x="492.164062"/>
      <use xlink:href="#DejaVuSans-20" x="527.369141"/>
      <use xlink:href="#DejaVuSans-66" x="559.15625"/>
      <use xlink:href="#DejaVuSans-75" x="594.361328"/>
      <use xlink:href="#DejaVuSans-6e" x="657.740234"/>
      <use xlink:href="#DejaVuSans-63" x="721.119141"/>
      <use xlink:href="#DejaVuSans-74" x="776.099609"/>
      <use xlink:href="#DejaVuSans-69" x="815.308594"/>
      <use xlink:href="#DejaVuSans-6f" x="843.091797"/>
      <use xlink:href="#DejaVuSans-6e" x="904.273438"/>
      <use xlink:href="#DejaVuSans-2c" x="967.652344"/>
      <use xlink:href="#DejaVuSans-74" x="999.439453"/>
      <use xlink:href="#DejaVuSans-61" x="1038.648438"/>
      <use xlink:href="#DejaVuSans-72" x="1099.927734"/>
      <use xlink:href="#DejaVuSans-67" x="1139.291016"/>
      <use xlink:href="#DejaVuSans-65" x="1202.767578"/>
      <use xlink:href="#DejaVuSans-74" x="1264.291016"/>
      <use xlink:href="#DejaVuSans-20" x="1303.5"/>
      <use xlink:href="#DejaVuSans-70" x="1335.287109"/>
      <use xlink:href="#DejaVuSans-61" x="1398.763672"/>
      <use xlink:href="#DejaVuSans-69" x="1460.042969"/>
      <use xlink:href="#DejaVuSans-72" x="1487.826172"/>
      <use xlink:href="#DejaVuSans-73" x="1528.939453"/>
     </g>
    </g>
   </g>
   <g id="line2d_29">
    <defs>
     <path id="mda3a679698" d="M 0 1.5 
C 0.397805 1.5 0.77937 1.341951 1.06066 1.06066 
C 1.341951 0.77937 1.5 0.397805 1.5 0 
C 1.5 -0.397805 1.341951 -0.77937 1.06066 -1.06066 
C 0.77937 -1.341951 0.397805 -1.5 0 -1.5 
C -0.397805 -1.5 -0.77937 -1.341951 -1.06066 -1.06066 
C -1.341951 -0.77937 -1.5 -0.397805 -1.5 0 
C -1.5 0.397805 -1.341951 0.77937 -1.06066 1.06066 
C -0.77937 1.341951 -0.397805 1.5 0 1.5 
z
" style="stroke: #00bfbf"/>
    </defs>
    <g>
     <use xlink:href="#mda3a679698" x="172.356469" y="27.648" style="fill: #00bfbf; stroke: #00bfbf"/>
     <use xlink:href="#mda3a679698" x="172.356469" y="27.648" style="fill: #00bfbf; stroke: #00bfbf"/>
    </g>
   </g>
   <g id="line2d_30">
    <path d="M 44.560826 298.944 
L 44.560826 275.538071 
L 57.6 275.538071 
L 57.6 272.346353 
L 78.266603 272.346353 
L 78.266603 263.835106 
L 81.166416 263.835106 
L 81.166416 258.515576 
L 87.876026 258.515576 
L 87.876026 245.748706 
L 89.668958 245.748706 
L 89.668958 242.556988 
L 92.811505 242.556988 
L 92.811505 239.365271 
L 108.542628 239.365271 
L 108.542628 238.301365 
L 111.442442 238.301365 
L 111.442442 237.237459 
L 118.889854 237.237459 
L 118.889854 236.173553 
L 120.616896 236.173553 
L 120.616896 235.109647 
L 125.271028 235.109647 
L 125.271028 234.045741 
L 133.154399 234.045741 
L 133.154399 232.981835 
L 136.270855 232.981835 
L 136.270855 230.854024 
L 137.654681 230.854024 
L 137.654681 229.790118 
L 139.067817 229.790118 
L 139.067817 228.726212 
L 140.382174 228.726212 
L 140.382174 227.662306 
L 145.765046 227.662306 
L 145.765046 226.5984 
L 146.777571 226.5984 
L 146.777571 225.534494 
L 147.423525 225.534494 
L 147.423525 224.470588 
L 148.048032 224.470588 
L 148.048032 222.342776 
L 148.200973 222.342776 
L 148.200973 221.278871 
L 150.289291 221.278871 
L 150.289291 220.214965 
L 150.8268 220.214965 
L 150.8268 219.151059 
L 151.220087 219.151059 
L 151.220087 218.087153 
L 151.349377 218.087153 
L 151.349377 215.959341 
L 151.982822 215.959341 
L 151.982822 214.895435 
L 152.53524 214.895435 
L 152.53524 211.703718 
L 152.655828 211.703718 
L 152.655828 210.639812 
L 152.775647 210.639812 
L 152.835271 208.512 
L 153.478964 208.512 
L 153.478964 205.320282 
L 153.764426 205.320282 
L 153.764426 204.256376 
L 153.877408 204.256376 
L 153.877408 203.192471 
L 154.267588 203.192471 
L 154.267588 201.064659 
L 154.595705 201.064659 
L 154.595705 197.872941 
L 154.811312 197.872941 
L 154.811312 194.681224 
L 155.077392 194.681224 
L 155.077392 191.489506 
L 155.28758 191.489506 
L 155.28758 188.297788 
L 155.752086 188.297788 
L 155.752086 185.106071 
L 156.205398 185.106071 
L 156.205398 181.914353 
L 156.354107 181.914353 
L 156.354107 178.722635 
L 156.84148 178.722635 
L 156.84148 177.658729 
L 157.363398 177.658729 
L 157.456756 171.275294 
L 157.825621 171.275294 
L 157.825621 170.211388 
L 158.232129 170.211388 
L 158.232129 169.147482 
L 158.365703 169.147482 
L 158.365703 156.380612 
L 158.717331 156.380612 
L 158.717331 152.124988 
L 158.847515 152.124988 
L 158.933807 149.997176 
L 158.976805 149.997176 
L 158.976805 148.933271 
L 159.651731 148.933271 
L 159.693121 143.613741 
L 159.816746 143.613741 
L 159.816746 138.294212 
L 160.18282 138.294212 
L 160.18282 137.230306 
L 160.343261 137.230306 
L 160.343261 135.102494 
L 160.502345 135.102494 
L 160.502345 132.974682 
L 160.620781 132.974682 
L 160.620781 123.399529 
L 160.816532 123.399529 
L 160.816532 121.271718 
L 161.010268 121.271718 
L 161.010268 119.143906 
L 161.316153 119.143906 
L 161.316153 114.888282 
L 162.205054 114.888282 
L 162.277267 106.377035 
L 162.740015 106.377035 
L 162.740015 104.249224 
L 162.880139 104.249224 
L 162.880139 103.185318 
L 163.122872 103.185318 
L 163.157294 99.9936 
L 163.430425 99.9936 
L 163.531835 95.737976 
L 163.73303 95.737976 
L 163.832826 92.546259 
L 164.70794 92.546259 
L 164.771172 89.354541 
L 164.834193 89.354541 
L 164.865624 84.035012 
L 165.053116 84.035012 
L 165.053116 81.9072 
L 165.422585 81.9072 
L 165.422585 78.715482 
L 165.604634 78.715482 
L 165.604634 75.523765 
L 165.784938 75.523765 
L 165.784938 69.140329 
L 165.904188 69.140329 
L 165.904188 68.076424 
L 166.199045 68.076424 
L 166.228279 62.756894 
L 166.604233 62.756894 
L 166.604233 61.692988 
L 166.718416 61.692988 
L 166.718416 60.629082 
L 167.084795 60.629082 
L 167.140533 56.373459 
L 168.274427 56.373459 
L 168.300609 54.245647 
L 168.943582 54.245647 
L 168.943582 48.926118 
L 169.393282 48.926118 
L 169.393282 46.798306 
L 169.784185 46.798306 
L 169.784185 43.606588 
L 169.976632 43.606588 
L 169.976632 41.478776 
L 170.308749 41.478776 
L 170.308749 39.350965 
L 170.681267 39.350965 
L 170.681267 38.287059 
L 170.819081 38.287059 
L 170.819081 31.903624 
L 171.865055 31.903624 
L 171.865055 28.711906 
L 172.356469 28.711906 
L 172.356469 27.648 
L 360.8064 27.648 
L 360.8064 27.648 
" style="fill: none; stroke: #00bfbf; stroke-width: 1.5; stroke-linecap: square"/>
   </g>
   <g id="line2d_31">
    <defs>
     <path id="ma3dd260289" d="M -6 0 
L 6 0 
M 0 6 
L 0 -6 
" style="stroke: #00bfbf; stroke-width: 1.5"/>
    </defs>
    <g>
     <use xlink:href="#ma3dd260289" x="89.668958" y="242.556988" style="fill-opacity: 0; stroke: #00bfbf; stroke-width: 1.5"/>
     <use xlink:href="#ma3dd260289" x="158.976805" y="149.997176" style="fill-opacity: 0; stroke: #00bfbf; stroke-width: 1.5"/>
     <use xlink:href="#ma3dd260289" x="168.943582" y="48.926118" style="fill-opacity: 0; stroke: #00bfbf; stroke-width: 1.5"/>
     <use xlink:href="#ma3dd260289" x="172.356469" y="27.648" style="fill-opacity: 0; stroke: #00bfbf; stroke-width: 1.5"/>
     <use xlink:href="#ma3dd260289" x="172.356469" y="27.648" style="fill-opacity: 0; stroke: #00bfbf; stroke-width: 1.5"/>
     <use xlink:href="#ma3dd260289" x="360.8064" y="27.648" style="fill-opacity: 0; stroke: #00bfbf; stroke-width: 1.5"/>
    </g>
   </g>
   <g id="line2d_32">
    <path style="fill: none; stroke: #00bfbf; stroke-width: 1.5; stroke-linecap: square"/>
    <g/>
   </g>
   <g id="line2d_33">
    <defs>
     <path id="m473f6ff86d" d="M 0 1.5 
C 0.397805 1.5 0.77937 1.341951 1.06066 1.06066 
C 1.341951 0.77937 1.5 0.397805 1.5 0 
C 1.5 -0.397805 1.341951 -0.77937 1.06066 -1.06066 
C 0.77937 -1.341951 0.397805 -1.5 0 -1.5 
C -0.397805 -1.5 -0.77937 -1.341951 -1.06066 -1.06066 
C -1.341951 -0.77937 -1.5 -0.397805 -1.5 0 
C -1.5 0.397805 -1.341951 0.77937 -1.06066 1.06066 
C -0.77937 1.341951 -0.397805 1.5 0 1.5 
z
" style="stroke: #008000"/>
    </defs>
    <g>
     <use xlink:href="#m473f6ff86d" x="179.422601" y="27.648" style="fill: #008000; stroke: #008000"/>
     <use xlink:href="#m473f6ff86d" x="179.422601" y="27.648" style="fill: #008000; stroke: #008000"/>
    </g>
   </g>
   <g id="line2d_34">
    <path d="M 36.933397 298.944 
L 36.933397 297.880094 
L 97.485448 297.880094 
L 97.485448 296.816188 
L 101.532027 296.816188 
L 101.532027 294.688376 
L 102.708132 294.688376 
L 102.708132 290.432753 
L 103.269713 290.432753 
L 103.269713 285.113224 
L 105.850679 285.113224 
L 105.850679 284.049318 
L 106.326946 284.049318 
L 106.326946 277.665882 
L 109.360651 277.665882 
L 109.360651 274.474165 
L 111.97238 274.474165 
L 111.97238 272.346353 
L 112.989468 272.346353 
L 112.989468 268.090729 
L 120.506564 268.090729 
L 120.506564 262.7712 
L 123.563797 262.7712 
L 123.563797 258.515576 
L 123.936316 258.515576 
L 123.936316 257.451671 
L 124.659926 257.451671 
L 124.659926 255.323859 
L 125.862901 255.323859 
L 125.862901 252.132141 
L 127.149662 252.132141 
L 127.149662 250.004329 
L 130.027253 250.004329 
L 130.027253 247.876518 
L 132.984158 247.876518 
L 132.984158 246.812612 
L 133.323114 246.812612 
L 133.323114 244.6848 
L 135.932769 244.6848 
L 135.932769 243.620894 
L 136.508678 243.620894 
L 136.508678 242.556988 
L 137.430998 242.556988 
L 137.430998 241.493082 
L 140.032723 241.493082 
L 140.032723 240.429176 
L 140.800648 240.429176 
L 140.800648 239.365271 
L 141.682602 239.365271 
L 141.682602 237.237459 
L 142.729897 237.237459 
L 142.729897 236.173553 
L 143.066428 236.173553 
L 143.066428 235.109647 
L 143.52768 235.109647 
L 143.52768 234.045741 
L 143.721949 234.045741 
L 143.721949 232.981835 
L 145.503164 232.981835 
L 145.503164 231.917929 
L 145.908976 231.917929 
L 145.908976 230.854024 
L 146.136998 230.854024 
L 146.136998 229.790118 
L 146.47393 229.790118 
L 146.47393 228.726212 
L 146.750169 228.726212 
L 146.750169 227.662306 
L 146.913986 227.662306 
L 146.913986 226.5984 
L 147.183884 226.5984 
L 147.183884 225.534494 
L 147.502732 225.534494 
L 147.502732 224.470588 
L 148.627671 224.470588 
L 148.627671 222.342776 
L 149.069161 222.342776 
L 149.165879 220.214965 
L 149.547853 220.214965 
L 149.642146 217.023247 
L 150.014665 217.023247 
L 150.106653 213.831529 
L 150.289291 213.831529 
L 150.289291 212.767624 
L 151.349377 212.767624 
L 151.349377 203.192471 
L 152.474656 203.192471 
L 152.474656 202.128565 
L 152.635783 202.128565 
L 152.635783 200.000753 
L 153.802162 200.000753 
L 153.839823 195.745129 
L 154.505134 195.745129 
L 154.613767 193.617318 
L 154.649839 193.617318 
L 154.649839 190.4256 
L 155.147716 190.4256 
L 155.18278 185.106071 
L 155.426411 185.106071 
L 155.426411 182.978259 
L 155.836861 182.978259 
L 155.870664 180.850447 
L 156.038776 180.850447 
L 156.038776 176.594824 
L 156.501649 176.594824 
L 156.501649 175.530918 
L 156.631834 175.530918 
L 156.631834 172.3392 
L 156.953406 172.3392 
L 156.953406 171.275294 
L 157.456756 171.275294 
L 157.456756 170.211388 
L 157.703468 170.211388 
L 157.764644 167.019671 
L 158.0976 167.019671 
L 158.0976 161.700141 
L 158.276759 161.700141 
L 158.276759 160.636235 
L 158.454228 160.636235 
L 158.454228 159.572329 
L 158.659181 159.572329 
L 158.688279 157.444518 
L 158.833095 157.444518 
L 158.919453 154.2528 
L 159.090988 154.2528 
L 159.090988 153.188894 
L 159.289155 153.188894 
L 159.345393 147.869365 
L 159.651731 147.869365 
L 159.651731 144.677647 
L 159.789344 144.677647 
L 159.789344 143.613741 
L 159.925957 143.613741 
L 159.925957 142.549835 
L 160.088594 142.549835 
L 160.196243 131.910776 
L 161.864343 131.910776 
L 161.864343 130.846871 
L 162.084079 130.846871 
L 162.084079 129.782965 
L 162.420867 129.782965 
L 162.420867 128.719059 
L 163.076878 128.719059 
L 163.076878 127.655153 
L 163.3965 127.655153 
L 163.3965 126.591247 
L 163.821764 126.591247 
L 163.888041 123.399529 
L 164.019898 123.399529 
L 164.019898 121.271718 
L 164.150838 121.271718 
L 164.150838 118.08 
L 164.559567 118.08 
L 164.559567 112.760471 
L 164.980424 112.760471 
L 164.980424 111.696565 
L 165.166781 111.696565 
L 165.166781 106.377035 
L 165.953653 106.377035 
L 166.032527 98.929694 
L 166.189291 98.929694 
L 166.189291 97.865788 
L 166.344759 97.865788 
L 166.344759 94.674071 
L 166.537305 94.674071 
L 166.537305 92.546259 
L 166.689935 92.546259 
L 166.689935 90.418447 
L 167.325142 90.418447 
L 167.325142 88.290635 
L 167.471536 88.290635 
L 167.471536 85.098918 
L 167.689013 85.098918 
L 167.689013 84.035012 
L 167.957371 84.035012 
L 168.063651 79.779388 
L 168.256952 79.779388 
L 168.256952 76.587671 
L 168.637696 76.587671 
L 168.637696 75.523765 
L 169.027674 75.523765 
L 169.027674 74.459859 
L 169.161446 74.459859 
L 169.161446 71.268141 
L 169.360337 71.268141 
L 169.360337 70.204235 
L 171.640025 70.204235 
L 171.640025 69.140329 
L 172.001658 69.140329 
L 172.001658 68.076424 
L 172.510491 68.076424 
L 172.510491 67.012518 
L 173.567903 67.012518 
L 173.567903 65.948612 
L 174.241203 65.948612 
L 174.241203 64.884706 
L 175.038105 64.884706 
L 175.038105 63.8208 
L 175.567027 63.8208 
L 175.567027 61.692988 
L 175.814319 61.692988 
L 175.814319 59.565176 
L 176.116053 59.565176 
L 176.219382 55.309553 
L 176.458298 55.309553 
L 176.458298 53.181741 
L 176.860939 53.181741 
L 176.860939 51.053929 
L 177.015223 51.053929 
L 177.10282 45.7344 
L 177.641253 45.7344 
L 177.747115 43.606588 
L 177.946625 43.606588 
L 178.040396 36.159247 
L 178.84404 36.159247 
L 178.953265 34.031435 
L 179.022444 34.031435 
L 179.022444 32.967529 
L 179.208941 32.967529 
L 179.30636 29.775812 
L 179.393608 29.775812 
L 179.422601 27.648 
L 360.8064 27.648 
L 360.8064 27.648 
" style="fill: none; stroke: #008000; stroke-width: 1.5; stroke-linecap: square"/>
   </g>
   <g id="line2d_35">
    <defs>
     <path id="m02b58d06da" d="M -0 6 
L 6 -6 
L -6 -6 
z
" style="stroke: #008000; stroke-width: 1.5; stroke-linejoin: miter"/>
    </defs>
    <g>
     <use xlink:href="#m02b58d06da" x="112.989468" y="268.090729" style="fill-opacity: 0; stroke: #008000; stroke-width: 1.5; stroke-linejoin: miter"/>
     <use xlink:href="#m02b58d06da" x="160.196243" y="132.974682" style="fill-opacity: 0; stroke: #008000; stroke-width: 1.5; stroke-linejoin: miter"/>
     <use xlink:href="#m02b58d06da" x="179.422601" y="28.711906" style="fill-opacity: 0; stroke: #008000; stroke-width: 1.5; stroke-linejoin: miter"/>
     <use xlink:href="#m02b58d06da" x="179.422601" y="27.648" style="fill-opacity: 0; stroke: #008000; stroke-width: 1.5; stroke-linejoin: miter"/>
     <use xlink:href="#m02b58d06da" x="179.422601" y="27.648" style="fill-opacity: 0; stroke: #008000; stroke-width: 1.5; stroke-linejoin: miter"/>
     <use xlink:href="#m02b58d06da" x="360.8064" y="27.648" style="fill-opacity: 0; stroke: #008000; stroke-width: 1.5; stroke-linejoin: miter"/>
    </g>
   </g>
   <g id="line2d_36">
    <path style="fill: none; stroke: #008000; stroke-width: 1.5; stroke-linecap: square"/>
    <g/>
   </g>
   <g id="line2d_37">
    <defs>
     <path id="m61681b8cd6" d="M 0 1.5 
C 0.397805 1.5 0.77937 1.341951 1.06066 1.06066 
C 1.341951 0.77937 1.5 0.397805 1.5 0 
C 1.5 -0.397805 1.341951 -0.77937 1.06066 -1.06066 
C 0.77937 -1.341951 0.397805 -1.5 0 -1.5 
C -0.397805 -1.5 -0.77937 -1.341951 -1.06066 -1.06066 
C -1.341951 -0.77937 -1.5 -0.397805 -1.5 0 
C -1.5 0.397805 -1.341951 0.77937 -1.06066 1.06066 
C -0.77937 1.341951 -0.397805 1.5 0 1.5 
z
" style="stroke: #0000ff"/>
    </defs>
    <g>
     <use xlink:href="#m61681b8cd6" x="223.356373" y="27.648" style="fill: #0000ff; stroke: #0000ff"/>
     <use xlink:href="#m61681b8cd6" x="223.356373" y="27.648" style="fill: #0000ff; stroke: #0000ff"/>
    </g>
   </g>
   <g id="line2d_38">
    <path d="M 106.699465 298.944 
L 106.699465 297.880094 
L 111.334639 297.880094 
L 111.334639 294.688376 
L 114.692177 294.688376 
L 114.692177 287.241035 
L 116.419219 287.241035 
L 116.419219 286.177129 
L 118.450653 286.177129 
L 118.450653 284.049318 
L 118.74459 284.049318 
L 118.74459 282.985412 
L 119.876453 282.985412 
L 119.876453 281.921506 
L 120.149089 281.921506 
L 120.149089 280.8576 
L 122.913079 280.8576 
L 122.913079 279.793694 
L 123.260379 279.793694 
L 123.260379 278.729788 
L 123.936316 278.729788 
L 123.936316 277.665882 
L 124.801367 277.665882 
L 124.906754 275.538071 
L 126.517282 275.538071 
L 126.613505 273.410259 
L 126.709238 273.410259 
L 126.709238 272.346353 
L 128.871795 272.346353 
L 128.871795 271.282447 
L 129.7043 271.282447 
L 129.7043 270.218541 
L 130.107132 270.218541 
L 130.107132 269.154635 
L 130.501519 269.154635 
L 130.501519 268.090729 
L 131.191226 268.090729 
L 131.191226 267.026824 
L 131.63737 267.026824 
L 131.63737 265.962918 
L 132.358208 265.962918 
L 132.358208 264.899012 
L 132.638982 264.899012 
L 132.638982 262.7712 
L 133.05244 262.7712 
L 133.05244 261.707294 
L 133.983236 261.707294 
L 133.983236 260.643388 
L 136.640557 260.643388 
L 136.640557 259.579482 
L 137.195511 259.579482 
L 137.195511 258.515576 
L 142.373399 258.515576 
L 142.373399 257.451671 
L 146.826795 257.451671 
L 146.826795 256.387765 
L 149.136916 256.387765 
L 149.136916 255.323859 
L 149.79204 255.323859 
L 149.79204 254.259953 
L 150.559965 254.259953 
L 150.559965 253.196047 
L 151.807597 253.196047 
L 151.807597 252.132141 
L 153.305585 252.132141 
L 153.328795 250.004329 
L 154.519655 250.004329 
L 154.519655 248.940424 
L 155.013876 248.940424 
L 155.013876 247.876518 
L 155.30847 247.876518 
L 155.30847 246.812612 
L 155.516105 246.812612 
L 155.516105 245.748706 
L 155.660098 245.748706 
L 155.660098 244.6848 
L 156.696589 244.6848 
L 156.696589 243.620894 
L 156.831855 243.620894 
L 156.831855 242.556988 
L 158.07959 242.556988 
L 158.07959 241.493082 
L 158.294582 241.493082 
L 158.294582 239.365271 
L 159.334159 239.365271 
L 159.435025 237.237459 
L 159.750914 237.237459 
L 159.750914 236.173553 
L 160.158636 236.173553 
L 160.255188 234.045741 
L 160.319282 234.045741 
L 160.319282 232.981835 
L 160.446818 232.981835 
L 160.557708 228.726212 
L 161.36161 228.726212 
L 161.36161 227.662306 
L 162.262846 227.662306 
L 162.363559 225.534494 
L 162.634233 225.534494 
L 162.648372 222.342776 
L 162.761101 222.342776 
L 162.761101 221.278871 
L 163.369315 221.278871 
L 163.369315 220.214965 
L 163.491337 220.214965 
L 163.491337 219.151059 
L 163.73303 219.151059 
L 163.73303 218.087153 
L 163.879217 218.087153 
L 163.879217 215.959341 
L 164.011136 215.959341 
L 164.011136 214.895435 
L 164.168227 214.895435 
L 164.168227 213.831529 
L 164.298142 213.831529 
L 164.298142 212.767624 
L 164.427166 212.767624 
L 164.465701 210.639812 
L 164.682588 210.639812 
L 164.695268 207.448094 
L 164.796406 207.448094 
L 164.796406 206.384188 
L 165.30637 206.384188 
L 165.30637 201.064659 
L 165.45305 201.064659 
L 165.45305 198.936847 
L 165.634805 198.936847 
L 165.634805 193.617318 
L 166.356368 193.617318 
L 166.356368 192.553412 
L 166.848875 192.553412 
L 166.848875 190.4256 
L 167.240447 190.4256 
L 167.240447 189.361694 
L 167.460596 189.361694 
L 167.460596 187.233882 
L 167.59146 187.233882 
L 167.656552 181.914353 
L 168.1904 181.914353 
L 168.1904 180.850447 
L 168.451748 180.850447 
L 168.451748 178.722635 
L 168.923343 178.722635 
L 169.004166 176.594824 
L 169.044448 176.594824 
L 169.114734 171.275294 
L 170.119687 171.275294 
L 170.119687 165.955765 
L 171.010341 165.955765 
L 171.010341 164.891859 
L 172.541145 164.891859 
L 172.541145 163.827953 
L 173.910154 163.827953 
L 173.910154 162.764047 
L 174.819834 162.764047 
L 174.819834 161.700141 
L 175.694612 161.700141 
L 175.694612 160.636235 
L 175.975072 160.636235 
L 175.975072 159.572329 
L 176.354003 159.572329 
L 176.354003 158.508424 
L 176.805529 158.508424 
L 176.805529 157.444518 
L 177.109374 157.444518 
L 177.109374 156.380612 
L 177.594485 156.380612 
L 177.594485 155.316706 
L 177.766107 155.316706 
L 177.766107 154.2528 
L 178.154375 154.2528 
L 178.222432 152.124988 
L 178.455661 152.124988 
L 178.455661 151.061082 
L 178.661917 151.061082 
L 178.661917 149.997176 
L 178.91362 149.997176 
L 178.91362 148.933271 
L 179.091369 148.933271 
L 179.091369 147.869365 
L 179.220658 147.869365 
L 179.220658 146.805459 
L 179.389739 146.805459 
L 179.476602 144.677647 
L 179.609017 144.677647 
L 179.62622 140.422024 
L 179.938853 140.422024 
L 179.938853 138.294212 
L 180.073663 138.294212 
L 180.107216 136.1664 
L 180.218626 136.1664 
L 180.218626 135.102494 
L 180.488824 135.102494 
L 180.565316 132.974682 
L 180.641498 132.974682 
L 180.717373 129.782965 
L 180.873576 129.782965 
L 180.953865 126.591247 
L 181.081618 126.591247 
L 181.081618 125.527341 
L 181.250616 125.527341 
L 181.350246 122.335624 
L 181.475344 122.335624 
L 181.475344 121.271718 
L 181.594454 121.271718 
L 181.640858 119.143906 
L 185.79213 119.143906 
L 185.890987 117.016094 
L 186.568809 117.016094 
L 186.568809 115.952188 
L 186.703065 115.952188 
L 186.703065 114.888282 
L 187.092471 114.888282 
L 187.123278 112.760471 
L 187.371733 112.760471 
L 187.371733 111.696565 
L 190.013745 111.696565 
L 190.013745 111.164612 
L 190.547257 111.164612 
L 190.547257 110.632659 
L 190.665559 110.632659 
L 190.665559 110.100706 
L 190.884209 110.100706 
L 190.884209 109.568753 
L 191.338646 109.568753 
L 191.415372 107.440941 
L 191.491786 107.440941 
L 191.56789 105.845082 
L 191.908094 105.845082 
L 192.012231 103.717271 
L 192.142334 103.717271 
L 192.168835 102.121412 
L 192.253975 102.121412 
L 192.347478 97.333835 
L 192.376602 97.333835 
L 192.46081 93.610165 
L 192.579222 93.610165 
L 192.656795 87.758682 
L 192.830885 87.758682 
L 192.830885 87.226729 
L 192.952643 87.226729 
L 193.05117 86.162824 
L 193.10724 86.162824 
L 193.157561 80.843294 
L 193.296638 80.843294 
L 193.365793 79.247435 
L 193.492378 79.247435 
L 193.544416 75.523765 
L 193.824036 75.523765 
L 193.824036 72.332047 
L 194.080962 72.332047 
L 194.080962 71.800094 
L 195.677867 71.800094 
L 195.677867 71.268141 
L 195.811689 71.268141 
L 195.811689 70.736188 
L 195.973432 70.736188 
L 195.973432 70.204235 
L 196.47156 70.204235 
L 196.47156 69.672282 
L 196.664859 69.672282 
L 196.664859 69.140329 
L 196.830946 69.140329 
L 196.881404 68.076424 
L 196.94771 68.076424 
L 197.041057 64.884706 
L 197.418784 64.884706 
L 197.481008 62.756894 
L 197.545238 62.756894 
L 197.631271 61.692988 
L 197.70157 61.692988 
L 197.743186 60.097129 
L 197.845738 60.097129 
L 197.865312 59.033224 
L 200.499931 59.033224 
L 200.499931 58.501271 
L 202.211087 58.501271 
L 202.240396 57.437365 
L 202.476635 57.437365 
L 202.476635 56.905412 
L 202.620681 56.905412 
L 202.704902 55.309553 
L 202.905507 55.309553 
L 202.952009 53.713694 
L 203.039716 53.713694 
L 203.039716 53.181741 
L 203.156574 53.181741 
L 203.189361 51.053929 
L 203.271079 51.053929 
L 203.290639 49.990024 
L 203.483513 49.990024 
L 203.571993 48.926118 
L 203.82388 48.926118 
L 203.82388 48.394165 
L 203.986287 48.394165 
L 203.986287 47.330259 
L 205.088458 47.330259 
L 205.088458 46.798306 
L 205.268235 46.798306 
L 205.268235 46.266353 
L 205.484043 46.266353 
L 205.484043 45.7344 
L 205.926789 45.7344 
L 206.004514 44.138541 
L 206.046775 44.138541 
L 206.143615 43.074635 
L 206.242745 43.074635 
L 206.341355 41.478776 
L 206.400826 41.478776 
L 206.400826 40.946824 
L 209.814921 40.946824 
L 209.874713 39.350965 
L 209.954904 39.350965 
L 209.989167 38.287059 
L 210.421195 38.287059 
L 210.433457 36.6912 
L 210.547895 36.6912 
L 210.547895 36.159247 
L 211.390505 36.159247 
L 211.390505 35.627294 
L 211.50981 35.627294 
L 211.616855 34.031435 
L 211.842582 34.031435 
L 211.842582 33.499482 
L 212.024715 33.499482 
L 212.045185 32.435576 
L 212.179729 32.435576 
L 212.239556 31.371671 
L 215.040327 31.371671 
L 215.040327 30.307765 
L 216.643239 30.307765 
L 216.643239 29.775812 
L 219.325732 29.775812 
L 219.325732 29.243859 
L 220.145351 29.243859 
L 220.145351 28.711906 
L 221.987371 28.711906 
L 221.987371 28.179953 
L 223.356373 28.179953 
L 223.356373 27.648 
L 360.8064 27.648 
L 360.8064 27.648 
" style="fill: none; stroke: #0000ff; stroke-width: 1.5; stroke-linecap: square"/>
   </g>
   <g id="line2d_39">
    <defs>
     <path id="m161eadc097" d="M 0 -6 
L -1.347084 -1.854102 
L -5.706339 -1.854102 
L -2.179628 0.708204 
L -3.526712 4.854102 
L -0 2.291796 
L 3.526712 4.854102 
L 2.179628 0.708204 
L 5.706339 -1.854102 
L 1.347084 -1.854102 
z
" style="stroke: #0000ff; stroke-width: 1.5; stroke-linejoin: bevel"/>
    </defs>
    <g>
     <use xlink:href="#m161eadc097" x="179.62622" y="140.422024" style="fill-opacity: 0; stroke: #0000ff; stroke-width: 1.5; stroke-linejoin: bevel"/>
     <use xlink:href="#m161eadc097" x="223.356373" y="28.179953" style="fill-opacity: 0; stroke: #0000ff; stroke-width: 1.5; stroke-linejoin: bevel"/>
     <use xlink:href="#m161eadc097" x="223.356373" y="27.648" style="fill-opacity: 0; stroke: #0000ff; stroke-width: 1.5; stroke-linejoin: bevel"/>
     <use xlink:href="#m161eadc097" x="223.356373" y="27.648" style="fill-opacity: 0; stroke: #0000ff; stroke-width: 1.5; stroke-linejoin: bevel"/>
     <use xlink:href="#m161eadc097" x="360.8064" y="27.648" style="fill-opacity: 0; stroke: #0000ff; stroke-width: 1.5; stroke-linejoin: bevel"/>
    </g>
   </g>
   <g id="line2d_40">
    <path style="fill: none; stroke: #0000ff; stroke-width: 1.5; stroke-linecap: square"/>
    <g/>
   </g>
   <g id="line2d_41">
    <path d="M 187.549362 111.696565 
" clip-path="url(#pb12c99dea9)" style="fill: none; stroke: #0000ff; stroke-width: 1.5; stroke-linecap: square"/>
    <defs>
     <path id="m32867a4858" d="M -12 12 
L 12 -12 
M -12 -12 
L 12 12 
" style="stroke: #0000ff"/>
    </defs>
    <g clip-path="url(#pb12c99dea9)">
     <use xlink:href="#m32867a4858" x="187.549362" y="111.696565" style="fill: #0000ff; stroke: #0000ff"/>
    </g>
   </g>
   <g id="line2d_42">
    <defs>
     <path id="ma08cf7ff32" d="M 0 1.5 
C 0.397805 1.5 0.77937 1.341951 1.06066 1.06066 
C 1.341951 0.77937 1.5 0.397805 1.5 0 
C 1.5 -0.397805 1.341951 -0.77937 1.06066 -1.06066 
C 0.77937 -1.341951 0.397805 -1.5 0 -1.5 
C -0.397805 -1.5 -0.77937 -1.341951 -1.06066 -1.06066 
C -1.341951 -0.77937 -1.5 -0.397805 -1.5 0 
C -1.5 0.397805 -1.341951 0.77937 -1.06066 1.06066 
C -0.77937 1.341951 -0.397805 1.5 0 1.5 
z
" style="stroke: #000000"/>
    </defs>
    <g>
     <use xlink:href="#ma08cf7ff32" x="215.747017" y="27.648" style="stroke: #000000"/>
     <use xlink:href="#ma08cf7ff32" x="215.747017" y="27.648" style="stroke: #000000"/>
    </g>
   </g>
   <g id="line2d_43">
    <path d="M 111.226215 298.944 
L 111.226215 297.880094 
L 114.692177 297.880094 
L 114.692177 296.816188 
L 115.747307 296.816188 
L 115.747307 295.752282 
L 116.253478 295.752282 
L 116.253478 294.688376 
L 116.501546 294.688376 
L 116.501546 293.624471 
L 117.1475 293.624471 
L 117.1475 292.560565 
L 117.384126 292.560565 
L 117.384126 291.496659 
L 120.0813 291.496659 
L 120.149089 289.368847 
L 121.892744 289.368847 
L 121.892744 287.241035 
L 122.13785 287.241035 
L 122.13785 286.177129 
L 122.499621 286.177129 
L 122.499621 285.113224 
L 122.854567 285.113224 
L 122.854567 284.049318 
L 123.317644 284.049318 
L 123.317644 282.985412 
L 124.101572 282.985412 
L 124.101572 280.8576 
L 124.854134 280.8576 
L 124.854134 279.793694 
L 126.078082 279.793694 
L 126.078082 278.729788 
L 126.274549 278.729788 
L 126.274549 277.665882 
L 127.686077 277.665882 
L 127.686077 276.601976 
L 128.354013 276.601976 
L 128.354013 275.538071 
L 130.772751 275.538071 
L 130.772751 274.474165 
L 132.534182 274.474165 
L 132.534182 273.410259 
L 132.949924 273.410259 
L 132.949924 272.346353 
L 134.272898 272.346353 
L 134.272898 271.282447 
L 139.362521 271.282447 
L 139.362521 270.218541 
L 140.382174 270.218541 
L 140.382174 269.154635 
L 141.415049 269.154635 
L 141.415049 268.090729 
L 142.352625 268.090729 
L 142.352625 267.026824 
L 146.924857 267.026824 
L 146.924857 265.962918 
L 148.47317 265.962918 
L 148.47317 264.899012 
L 150.193627 264.899012 
L 150.193627 263.835106 
L 153.989717 263.835106 
L 153.989717 262.7712 
L 155.443693 262.7712 
L 155.443693 261.707294 
L 156.403417 261.707294 
L 156.403417 260.643388 
L 157.118477 260.643388 
L 157.118477 259.579482 
L 157.3353 259.579482 
L 157.3353 258.515576 
L 158.374574 258.515576 
L 158.374574 257.451671 
L 159.139306 257.451671 
L 159.139306 256.387765 
L 160.769737 256.387765 
L 160.769737 255.323859 
L 161.751035 255.323859 
L 161.751035 254.259953 
L 162.262846 254.259953 
L 162.262846 253.196047 
L 162.513623 253.196047 
L 162.513623 252.132141 
L 163.122872 252.132141 
L 163.122872 251.068235 
L 163.699647 251.068235 
L 163.699647 250.004329 
L 163.885835 250.004329 
L 163.885835 248.940424 
L 164.187772 248.940424 
L 164.187772 247.876518 
L 164.676244 247.876518 
L 164.676244 246.812612 
L 164.903272 246.812612 
L 164.903272 245.748706 
L 165.195605 245.748706 
L 165.195605 244.6848 
L 165.392072 244.6848 
L 165.392072 243.620894 
L 165.868492 243.620894 
L 165.886348 241.493082 
L 166.152178 241.493082 
L 166.152178 240.429176 
L 166.47206 240.429176 
L 166.47206 239.365271 
L 166.649989 239.365271 
L 166.649989 238.301365 
L 166.792265 238.301365 
L 166.826251 236.173553 
L 166.922214 236.173553 
L 166.922214 235.109647 
L 167.10711 235.109647 
L 167.185004 231.917929 
L 167.564271 231.917929 
L 167.564271 230.854024 
L 167.678199 230.854024 
L 167.678199 229.790118 
L 167.829037 229.790118 
L 167.920031 227.662306 
L 168.037137 227.662306 
L 168.137692 225.534494 
L 168.326754 225.534494 
L 168.394562 223.406682 
L 168.586228 223.406682 
L 168.678769 221.278871 
L 168.837086 221.278871 
L 168.933465 219.151059 
L 169.024318 219.151059 
L 169.134768 217.023247 
L 169.179765 217.023247 
L 169.179765 215.959341 
L 169.353741 215.959341 
L 169.353741 214.895435 
L 169.594634 214.895435 
L 169.62392 211.703718 
L 169.798687 211.703718 
L 169.803519 209.575906 
L 169.976632 209.575906 
L 170.067359 206.384188 
L 170.247512 206.384188 
L 170.318152 202.128565 
L 170.477296 202.128565 
L 170.570284 198.936847 
L 170.823658 198.936847 
L 170.905844 196.809035 
L 171.001277 196.809035 
L 171.073664 192.553412 
L 171.217608 192.553412 
L 171.307016 188.297788 
L 171.369351 188.297788 
L 171.409314 186.169976 
L 171.537509 186.169976 
L 171.599086 180.850447 
L 171.739079 180.850447 
L 171.826049 178.722635 
L 172.058879 178.722635 
L 172.148652 175.530918 
L 172.259208 175.530918 
L 172.335368 173.403106 
L 172.449034 173.403106 
L 172.507702 171.275294 
L 172.570358 171.275294 
L 172.570358 170.211388 
L 172.91743 170.211388 
L 173.003206 167.019671 
L 173.05611 167.019671 
L 173.05611 165.955765 
L 173.19781 165.955765 
L 173.306396 160.636235 
L 173.394413 160.636235 
L 173.394413 159.572329 
L 173.640268 159.572329 
L 173.66389 157.444518 
L 173.781561 157.444518 
L 173.88295 154.2528 
L 173.910154 154.2528 
L 174.014717 151.061082 
L 174.064855 151.061082 
L 174.107176 148.933271 
L 174.317363 148.933271 
L 174.397001 144.677647 
L 174.442357 144.677647 
L 174.5365 141.485929 
L 174.701055 141.485929 
L 174.701055 139.358118 
L 174.882632 139.358118 
L 174.882632 138.294212 
L 175.033228 138.294212 
L 175.142661 136.1664 
L 175.291198 136.1664 
L 175.374013 134.038588 
L 175.44931 134.038588 
L 175.474342 131.910776 
L 175.627383 131.910776 
L 175.627383 130.846871 
L 175.740472 130.846871 
L 175.740472 129.782965 
L 175.971592 129.782965 
L 175.971592 127.655153 
L 176.227395 127.655153 
L 176.227395 126.591247 
L 176.343769 126.591247 
L 176.381266 123.399529 
L 176.708725 123.399529 
L 176.815515 121.271718 
L 181.29263 121.271718 
L 181.29263 120.207812 
L 181.689715 120.207812 
L 181.689715 119.143906 
L 182.397862 119.143906 
L 182.397862 118.08 
L 183.032553 118.08 
L 183.032553 117.016094 
L 183.284327 117.016094 
L 183.284327 115.952188 
L 183.734269 115.952188 
L 183.734269 114.888282 
L 183.885698 114.888282 
L 183.885698 113.824376 
L 184.040451 113.824376 
L 184.040451 112.760471 
L 184.488367 112.760471 
L 184.488367 111.696565 
L 184.756448 111.696565 
L 184.760812 109.568753 
L 184.930188 109.568753 
L 184.930188 108.504847 
L 185.128025 108.504847 
L 185.215526 106.377035 
L 185.444086 106.377035 
L 185.444086 105.313129 
L 185.597018 105.313129 
L 185.615787 103.185318 
L 185.756994 103.185318 
L 185.775604 101.057506 
L 185.907413 101.057506 
L 186.003625 98.929694 
L 186.115593 98.929694 
L 186.20671 94.674071 
L 186.311454 94.674071 
L 186.357598 90.418447 
L 186.487395 90.418447 
L 186.590592 86.162824 
L 186.634082 86.162824 
L 186.73648 82.971106 
L 186.754146 82.971106 
L 186.842229 79.779388 
L 186.935732 79.779388 
L 186.945445 76.587671 
L 187.061614 76.587671 
L 187.148272 71.268141 
L 187.190493 71.268141 
L 187.270836 67.012518 
L 187.354637 67.012518 
L 187.451306 61.692988 
L 187.490967 61.692988 
L 187.541837 56.373459 
L 193.951599 56.373459 
L 194.049038 54.245647 
L 194.140675 54.245647 
L 194.159214 52.649788 
L 194.254269 52.649788 
L 194.254269 51.585882 
L 194.659422 51.585882 
L 194.767372 49.458071 
L 194.782743 49.458071 
L 194.88999 47.330259 
L 194.968758 47.330259 
L 195.011814 45.202447 
L 195.113993 45.202447 
L 195.184312 42.542682 
L 195.493836 42.542682 
L 195.594663 40.946824 
L 195.675425 40.946824 
L 195.765567 37.223153 
L 195.818961 37.223153 
L 195.820172 36.159247 
L 195.975835 36.159247 
L 195.975835 35.095341 
L 200.53863 35.095341 
L 200.53863 34.563388 
L 203.961151 34.563388 
L 204.059932 32.435576 
L 204.237372 32.435576 
L 204.237372 31.903624 
L 204.771161 31.903624 
L 204.771161 31.371671 
L 204.981549 31.371671 
L 204.981549 30.839718 
L 205.166032 30.839718 
L 205.17414 29.243859 
L 210.599331 29.243859 
L 210.599331 28.711906 
L 210.899594 28.711906 
L 210.899594 28.179953 
L 215.747017 28.179953 
L 215.747017 27.648 
L 360.8064 27.648 
L 360.8064 27.648 
" style="fill: none; stroke: #000000; stroke-width: 1.5; stroke-linecap: square"/>
   </g>
   <g id="line2d_44">
    <defs>
     <path id="m529618af29" d="M 0 6 
C 1.591219 6 3.117479 5.367802 4.242641 4.242641 
C 5.367802 3.117479 6 1.591219 6 0 
C 6 -1.591219 5.367802 -3.117479 4.242641 -4.242641 
C 3.117479 -5.367802 1.591219 -6 0 -6 
C -1.591219 -6 -3.117479 -5.367802 -4.242641 -4.242641 
C -5.367802 -3.117479 -6 -1.591219 -6 0 
C -6 1.591219 -5.367802 3.117479 -4.242641 4.242641 
C -3.117479 5.367802 -1.591219 6 0 6 
z
" style="stroke: #000000; stroke-width: 1.5"/>
    </defs>
    <g>
     <use xlink:href="#m529618af29" x="170.266375" y="203.192471" style="fill-opacity: 0; stroke: #000000; stroke-width: 1.5"/>
     <use xlink:href="#m529618af29" x="210.899594" y="28.179953" style="fill-opacity: 0; stroke: #000000; stroke-width: 1.5"/>
     <use xlink:href="#m529618af29" x="215.747017" y="27.648" style="fill-opacity: 0; stroke: #000000; stroke-width: 1.5"/>
     <use xlink:href="#m529618af29" x="215.747017" y="27.648" style="fill-opacity: 0; stroke: #000000; stroke-width: 1.5"/>
     <use xlink:href="#m529618af29" x="360.8064" y="27.648" style="fill-opacity: 0; stroke: #000000; stroke-width: 1.5"/>
    </g>
   </g>
   <g id="line2d_45">
    <path style="fill: none; stroke: #000000; stroke-width: 1.5; stroke-linecap: square"/>
    <g/>
   </g>
   <g id="line2d_46">
    <path d="M 187.547481 56.373459 
" clip-path="url(#pb12c99dea9)" style="fill: none; stroke: #000000; stroke-width: 1.5; stroke-linecap: square"/>
    <defs>
     <path id="m2a5911c163" d="M -12 12 
L 12 -12 
M -12 -12 
L 12 12 
" style="stroke: #000000"/>
    </defs>
    <g clip-path="url(#pb12c99dea9)">
     <use xlink:href="#m2a5911c163" x="187.547481" y="56.373459" style="stroke: #000000"/>
    </g>
   </g>
   <g id="line2d_47">
    <defs>
     <path id="md10bdd18a9" d="M 0 1.5 
C 0.397805 1.5 0.77937 1.341951 1.06066 1.06066 
C 1.341951 0.77937 1.5 0.397805 1.5 0 
C 1.5 -0.397805 1.341951 -0.77937 1.06066 -1.06066 
C 0.77937 -1.341951 0.397805 -1.5 0 -1.5 
C -0.397805 -1.5 -0.77937 -1.341951 -1.06066 -1.06066 
C -1.341951 -0.77937 -1.5 -0.397805 -1.5 0 
C -1.5 0.397805 -1.341951 0.77937 -1.06066 1.06066 
C -0.77937 1.341951 -0.397805 1.5 0 1.5 
z
" style="stroke: #ff0000"/>
    </defs>
    <g>
     <use xlink:href="#md10bdd18a9" x="183.965509" y="27.648" style="fill: #ff0000; stroke: #ff0000"/>
     <use xlink:href="#md10bdd18a9" x="183.965509" y="27.648" style="fill: #ff0000; stroke: #ff0000"/>
    </g>
   </g>
   <g id="line2d_48">
    <path d="M 118.152051 298.944 
L 118.152051 297.880094 
L 120.0813 297.880094 
L 120.0813 296.816188 
L 120.748446 296.816188 
L 120.748446 295.752282 
L 120.944062 295.752282 
L 120.944062 294.688376 
L 121.39274 294.688376 
L 121.39274 293.624471 
L 121.675626 293.624471 
L 121.675626 292.560565 
L 122.259215 292.560565 
L 122.259215 291.496659 
L 124.07413 291.496659 
L 124.101572 289.368847 
L 125.167667 289.368847 
L 125.167667 288.304941 
L 125.425011 288.304941 
L 125.425011 287.241035 
L 125.954239 287.241035 
L 125.954239 286.177129 
L 126.176572 286.177129 
L 126.176572 285.113224 
L 126.946461 285.113224 
L 126.946461 284.049318 
L 127.087372 284.049318 
L 127.087372 282.985412 
L 127.549596 282.985412 
L 127.549596 281.921506 
L 128.41952 281.921506 
L 128.41952 280.8576 
L 128.679293 280.8576 
L 128.679293 279.793694 
L 129.499602 279.793694 
L 129.499602 278.729788 
L 131.783764 278.729788 
L 131.783764 277.665882 
L 143.086429 277.665882 
L 143.086429 276.601976 
L 146.867716 276.601976 
L 146.867716 275.538071 
L 147.753975 275.538071 
L 147.753975 274.474165 
L 150.673833 274.474165 
L 150.673833 273.410259 
L 158.84319 273.410259 
L 158.84319 272.346353 
L 159.755035 272.346353 
L 159.755035 271.282447 
L 163.260183 271.282447 
L 163.260183 270.218541 
L 163.968364 270.218541 
L 163.968364 269.154635 
L 164.909539 269.154635 
L 164.909539 268.090729 
L 166.975628 268.090729 
L 166.975628 267.026824 
L 168.084835 267.026824 
L 168.084835 265.962918 
L 169.368578 265.962918 
L 169.368578 264.899012 
L 170.15291 264.899012 
L 170.15291 263.835106 
L 170.841952 263.835106 
L 170.9104 261.707294 
L 172.576613 261.707294 
L 172.576613 260.643388 
L 172.736429 260.643388 
L 172.736429 259.579482 
L 173.005244 259.579482 
L 173.005244 258.515576 
L 173.32243 258.515576 
L 173.32243 257.451671 
L 173.622531 257.451671 
L 173.622531 256.387765 
L 174.086028 256.387765 
L 174.086028 255.323859 
L 174.74197 255.323859 
L 174.74197 254.259953 
L 174.958081 254.259953 
L 175.064299 251.068235 
L 175.586575 251.068235 
L 175.653949 248.940424 
L 175.931525 248.940424 
L 176.001152 246.812612 
L 176.217092 246.812612 
L 176.256556 244.6848 
L 176.589542 244.6848 
L 176.656781 242.556988 
L 176.813851 242.556988 
L 176.872001 240.429176 
L 176.996006 240.429176 
L 177.056883 237.237459 
L 177.187837 237.237459 
L 177.222062 235.109647 
L 177.424504 235.109647 
L 177.5161 232.981835 
L 177.584904 232.981835 
L 177.683669 230.854024 
L 177.736027 230.854024 
L 177.736027 229.790118 
L 177.884374 229.790118 
L 177.906368 227.662306 
L 178.012834 227.662306 
L 178.073625 223.406682 
L 178.208531 223.406682 
L 178.279472 219.151059 
L 178.331734 219.151059 
L 178.331734 218.087153 
L 178.476998 218.087153 
L 178.587865 212.767624 
L 178.633237 212.767624 
L 178.737181 210.639812 
L 178.758202 210.639812 
L 178.827103 205.320282 
L 178.92106 205.320282 
L 178.97454 201.064659 
L 179.06629 201.064659 
L 179.169343 194.681224 
L 179.213336 194.681224 
L 179.220658 192.553412 
L 179.338883 192.553412 
L 179.405694 188.297788 
L 179.47949 188.297788 
L 179.570253 182.978259 
L 179.606148 182.978259 
L 179.686307 178.722635 
L 179.756167 178.722635 
L 179.814423 174.467012 
L 179.873913 174.467012 
L 179.962796 169.147482 
L 180.00357 169.147482 
L 180.037248 162.764047 
L 180.136525 162.764047 
L 180.246375 155.316706 
L 180.307281 155.316706 
L 180.398272 146.805459 
L 180.436741 146.805459 
L 180.520278 141.485929 
L 180.555772 141.485929 
L 180.649643 135.102494 
L 180.676764 135.102494 
L 180.759244 128.719059 
L 180.810443 128.719059 
L 180.901716 122.335624 
L 180.989883 122.335624 
L 181.089573 114.888282 
L 181.116069 114.888282 
L 181.175547 109.568753 
L 181.246673 109.568753 
L 181.356782 104.249224 
L 181.359396 104.249224 
L 181.451951 99.9936 
L 181.475344 99.9936 
L 181.584126 94.674071 
L 181.588 94.674071 
L 181.683294 88.290635 
L 181.703835 88.290635 
L 181.802375 80.843294 
L 181.846996 80.843294 
L 181.910557 75.523765 
L 181.97264 75.523765 
L 182.082365 70.204235 
L 182.147644 70.204235 
L 182.252618 65.948612 
L 182.26383 65.948612 
L 182.352051 60.629082 
L 182.376828 60.629082 
L 182.436159 56.373459 
L 182.529718 56.373459 
L 182.600807 52.117835 
L 182.644796 52.117835 
L 182.744612 48.926118 
L 182.757962 48.926118 
L 182.852352 44.670494 
L 182.948674 44.670494 
L 183.037334 42.542682 
L 183.071966 42.542682 
L 183.138661 39.350965 
L 183.238262 39.350965 
L 183.310263 37.223153 
L 183.365551 37.223153 
L 183.399584 35.095341 
L 183.496651 35.095341 
L 183.496651 34.031435 
L 183.611777 34.031435 
L 183.636108 31.903624 
L 183.786029 31.903624 
L 183.814724 29.775812 
L 183.947297 29.775812 
L 183.965509 27.648 
L 360.8064 27.648 
L 360.8064 27.648 
" style="fill: none; stroke: #ff0000; stroke-width: 1.5; stroke-linecap: square"/>
   </g>
   <g id="line2d_49">
    <defs>
     <path id="m4046b9a76d" d="M -6 6 
L 6 6 
L 6 -6 
L -6 -6 
z
" style="stroke: #ff0000; stroke-width: 1.5; stroke-linejoin: miter"/>
    </defs>
    <g>
     <use xlink:href="#m4046b9a76d" x="179.570253" y="184.042165" style="fill-opacity: 0; stroke: #ff0000; stroke-width: 1.5; stroke-linejoin: miter"/>
     <use xlink:href="#m4046b9a76d" x="183.965509" y="28.711906" style="fill-opacity: 0; stroke: #ff0000; stroke-width: 1.5; stroke-linejoin: miter"/>
     <use xlink:href="#m4046b9a76d" x="183.965509" y="27.648" style="fill-opacity: 0; stroke: #ff0000; stroke-width: 1.5; stroke-linejoin: miter"/>
     <use xlink:href="#m4046b9a76d" x="183.965509" y="27.648" style="fill-opacity: 0; stroke: #ff0000; stroke-width: 1.5; stroke-linejoin: miter"/>
     <use xlink:href="#m4046b9a76d" x="360.8064" y="27.648" style="fill-opacity: 0; stroke: #ff0000; stroke-width: 1.5; stroke-linejoin: miter"/>
    </g>
   </g>
   <g id="line2d_50">
    <path style="fill: none; stroke: #ff0000; stroke-width: 1.5; stroke-linecap: square"/>
    <g/>
   </g>
   <g id="line2d_51">
    <path d="M 360.8064 27.648 
L 380.514816 293.51808 
" style="fill: none; stroke: #0000ff; stroke-width: 1.5; stroke-linecap: square"/>
    <g>
     <use xlink:href="#m161eadc097" x="360.8064" y="27.648" style="fill-opacity: 0; stroke: #0000ff; stroke-width: 1.5; stroke-linejoin: bevel"/>
     <use xlink:href="#m161eadc097" x="380.514816" y="293.51808" style="fill-opacity: 0; stroke: #0000ff; stroke-width: 1.5; stroke-linejoin: bevel"/>
    </g>
   </g>
   <g id="line2d_52">
    <path d="M 360.8064 27.648 
L 380.514816 228.40704 
" style="fill: none; stroke: #000000; stroke-width: 1.5; stroke-linecap: square"/>
    <g>
     <use xlink:href="#m529618af29" x="360.8064" y="27.648" style="fill-opacity: 0; stroke: #000000; stroke-width: 1.5"/>
     <use xlink:href="#m529618af29" x="380.514816" y="228.40704" style="fill-opacity: 0; stroke: #000000; stroke-width: 1.5"/>
    </g>
   </g>
   <g id="line2d_53">
    <path d="M 360.8064 27.648 
L 380.514816 163.296 
" style="fill: none; stroke: #ff0000; stroke-width: 1.5; stroke-linecap: square"/>
    <g>
     <use xlink:href="#m4046b9a76d" x="360.8064" y="27.648" style="fill-opacity: 0; stroke: #ff0000; stroke-width: 1.5; stroke-linejoin: miter"/>
     <use xlink:href="#m4046b9a76d" x="380.514816" y="163.296" style="fill-opacity: 0; stroke: #ff0000; stroke-width: 1.5; stroke-linejoin: miter"/>
    </g>
   </g>
   <g id="line2d_54">
    <path d="M 360.8064 27.648 
L 380.514816 98.18496 
" style="fill: none; stroke: #008000; stroke-width: 1.5; stroke-linecap: square"/>
    <g>
     <use xlink:href="#m02b58d06da" x="360.8064" y="27.648" style="fill-opacity: 0; stroke: #008000; stroke-width: 1.5; stroke-linejoin: miter"/>
     <use xlink:href="#m02b58d06da" x="380.514816" y="98.18496" style="fill-opacity: 0; stroke: #008000; stroke-width: 1.5; stroke-linejoin: miter"/>
    </g>
   </g>
   <g id="line2d_55">
    <path d="M 360.8064 27.648 
L 380.514816 33.07392 
" style="fill: none; stroke: #00bfbf; stroke-width: 1.5; stroke-linecap: square"/>
    <g>
     <use xlink:href="#ma3dd260289" x="360.8064" y="27.648" style="fill-opacity: 0; stroke: #00bfbf; stroke-width: 1.5"/>
     <use xlink:href="#ma3dd260289" x="380.514816" y="33.07392" style="fill-opacity: 0; stroke: #00bfbf; stroke-width: 1.5"/>
    </g>
   </g>
   <g id="line2d_56">
    <path d="M 360.8064 298.944 
L 360.8064 27.648 
" style="fill: none; stroke: #000000; stroke-width: 1.5; stroke-linecap: square"/>
   </g>
   <g id="patch_3">
    <path d="M 57.6 298.944 
L 360.8064 298.944 
" style="fill: none; stroke: #000000; stroke-width: 0.8; stroke-linejoin: miter; stroke-linecap: square"/>
   </g>
   <g id="patch_4">
    <path d="M 57.6 27.648 
L 360.8064 27.648 
" style="fill: none; stroke: #000000; stroke-width: 0.8; stroke-linejoin: miter; stroke-linecap: square"/>
   </g>
   <g id="text_13">
    <!-- 5-D -->
    <g transform="translate(386.578944 297.381205)scale(0.14 -0.14)">
     <defs>
      <path id="DejaVuSans-35" d="M 691 4666 
L 3169 4666 
L 3169 4134 
L 1269 4134 
L 1269 2991 
Q 1406 3038 1543 3061 
Q 1681 3084 1819 3084 
Q 2600 3084 3056 2656 
Q 3513 2228 3513 1497 
Q 3513 744 3044 326 
Q 2575 -91 1722 -91 
Q 1428 -91 1123 -41 
Q 819 9 494 109 
L 494 744 
Q 775 591 1075 516 
Q 1375 441 1709 441 
Q 2250 441 2565 725 
Q 2881 1009 2881 1497 
Q 2881 1984 2565 2268 
Q 2250 2553 1709 2553 
Q 1456 2553 1204 2497 
Q 953 2441 691 2322 
L 691 4666 
z
" transform="scale(0.015625)"/>
      <path id="DejaVuSans-44" d="M 1259 4147 
L 1259 519 
L 2022 519 
Q 2988 519 3436 956 
Q 3884 1394 3884 2338 
Q 3884 3275 3436 3711 
Q 2988 4147 2022 4147 
L 1259 4147 
z
M 628 4666 
L 1925 4666 
Q 3281 4666 3915 4102 
Q 4550 3538 4550 2338 
Q 4550 1131 3912 565 
Q 3275 0 1925 0 
L 628 0 
L 628 4666 
z
" transform="scale(0.015625)"/>
     </defs>
     <use xlink:href="#DejaVuSans-35"/>
     <use xlink:href="#DejaVuSans-2d" x="63.623047"/>
     <use xlink:href="#DejaVuSans-44" x="99.707031"/>
    </g>
   </g>
   <g id="text_14">
    <!-- 10-D -->
    <g transform="translate(386.578944 232.270165)scale(0.14 -0.14)">
     <use xlink:href="#DejaVuSans-31"/>
     <use xlink:href="#DejaVuSans-30" x="63.623047"/>
     <use xlink:href="#DejaVuSans-2d" x="127.246094"/>
     <use xlink:href="#DejaVuSans-44" x="163.330078"/>
    </g>
   </g>
   <g id="text_15">
    <!-- 20-D -->
    <g transform="translate(386.578944 167.159125)scale(0.14 -0.14)">
     <use xlink:href="#DejaVuSans-32"/>
     <use xlink:href="#DejaVuSans-30" x="63.623047"/>
     <use xlink:href="#DejaVuSans-2d" x="127.246094"/>
     <use xlink:href="#DejaVuSans-44" x="163.330078"/>
    </g>
   </g>
   <g id="text_16">
    <!-- 3-D -->
    <g transform="translate(386.578944 102.048085)scale(0.14 -0.14)">
     <defs>
      <path id="DejaVuSans-33" d="M 2597 2516 
Q 3050 2419 3304 2112 
Q 3559 1806 3559 1356 
Q 3559 666 3084 287 
Q 2609 -91 1734 -91 
Q 1441 -91 1130 -33 
Q 819 25 488 141 
L 488 750 
Q 750 597 1062 519 
Q 1375 441 1716 441 
Q 2309 441 2620 675 
Q 2931 909 2931 1356 
Q 2931 1769 2642 2001 
Q 2353 2234 1838 2234 
L 1294 2234 
L 1294 2753 
L 1863 2753 
Q 2328 2753 2575 2939 
Q 2822 3125 2822 3475 
Q 2822 3834 2567 4026 
Q 2313 4219 1838 4219 
Q 1578 4219 1281 4162 
Q 984 4106 628 3988 
L 628 4550 
Q 988 4650 1302 4700 
Q 1616 4750 1894 4750 
Q 2613 4750 3031 4423 
Q 3450 4097 3450 3541 
Q 3450 3153 3228 2886 
Q 3006 2619 2597 2516 
z
" transform="scale(0.015625)"/>
     </defs>
     <use xlink:href="#DejaVuSans-33"/>
     <use xlink:href="#DejaVuSans-2d" x="63.623047"/>
     <use xlink:href="#DejaVuSans-44" x="99.707031"/>
    </g>
   </g>
   <g id="text_17">
    <!-- 2-D -->
    <g transform="translate(386.578944 36.937045)scale(0.14 -0.14)">
     <use xlink:href="#DejaVuSans-32"/>
     <use xlink:href="#DejaVuSans-2d" x="63.623047"/>
     <use xlink:href="#DejaVuSans-44" x="99.707031"/>
    </g>
   </g>
   <g id="text_18">
    <!-- bbob f8 -->
    <g transform="translate(60.632064 38.111366)scale(0.102 -0.102)">
     <defs>
      <path id="DejaVuSans-62" d="M 3116 1747 
Q 3116 2381 2855 2742 
Q 2594 3103 2138 3103 
Q 1681 3103 1420 2742 
Q 1159 2381 1159 1747 
Q 1159 1113 1420 752 
Q 1681 391 2138 391 
Q 2594 391 2855 752 
Q 3116 1113 3116 1747 
z
M 1159 2969 
Q 1341 3281 1617 3432 
Q 1894 3584 2278 3584 
Q 2916 3584 3314 3078 
Q 3713 2572 3713 1747 
Q 3713 922 3314 415 
Q 2916 -91 2278 -91 
Q 1894 -91 1617 61 
Q 1341 213 1159 525 
L 1159 0 
L 581 0 
L 581 4863 
L 1159 4863 
L 1159 2969 
z
" transform="scale(0.015625)"/>
     </defs>
     <use xlink:href="#DejaVuSans-62"/>
     <use xlink:href="#DejaVuSans-62" x="63.476562"/>
     <use xlink:href="#DejaVuSans-6f" x="126.953125"/>
     <use xlink:href="#DejaVuSans-62" x="188.134766"/>
     <use xlink:href="#DejaVuSans-20" x="251.611328"/>
     <use xlink:href="#DejaVuSans-66" x="283.398438"/>
     <use xlink:href="#DejaVuSans-38" x="318.603516"/>
    </g>
    <!-- 51 targets: 100..1e-08 -->
    <g transform="translate(60.632064 49.533135)scale(0.102 -0.102)">
     <defs>
      <path id="DejaVuSans-3a" d="M 750 794 
L 1409 794 
L 1409 0 
L 750 0 
L 750 794 
z
M 750 3309 
L 1409 3309 
L 1409 2516 
L 750 2516 
L 750 3309 
z
" transform="scale(0.015625)"/>
     </defs>
     <use xlink:href="#DejaVuSans-35"/>
     <use xlink:href="#DejaVuSans-31" x="63.623047"/>
     <use xlink:href="#DejaVuSans-20" x="127.246094"/>
     <use xlink:href="#DejaVuSans-74" x="159.033203"/>
     <use xlink:href="#DejaVuSans-61" x="198.242188"/>
     <use xlink:href="#DejaVuSans-72" x="259.521484"/>
     <use xlink:href="#DejaVuSans-67" x="298.884766"/>
     <use xlink:href="#DejaVuSans-65" x="362.361328"/>
     <use xlink:href="#DejaVuSans-74" x="423.884766"/>
     <use xlink:href="#DejaVuSans-73" x="463.09375"/>
     <use xlink:href="#DejaVuSans-3a" x="515.193359"/>
     <use xlink:href="#DejaVuSans-20" x="548.884766"/>
     <use xlink:href="#DejaVuSans-31" x="580.671875"/>
     <use xlink:href="#DejaVuSans-30" x="644.294922"/>
     <use xlink:href="#DejaVuSans-30" x="707.917969"/>
     <use xlink:href="#DejaVuSans-2e" x="771.541016"/>
     <use xlink:href="#DejaVuSans-2e" x="803.328125"/>
     <use xlink:href="#DejaVuSans-31" x="835.115234"/>
     <use xlink:href="#DejaVuSans-65" x="898.738281"/>
     <use xlink:href="#DejaVuSans-2d" x="960.261719"/>
     <use xlink:href="#DejaVuSans-30" x="996.345703"/>
     <use xlink:href="#DejaVuSans-38" x="1059.96875"/>
    </g>
    <!-- 5 instances -->
    <g transform="translate(60.632064 60.954904)scale(0.102 -0.102)">
     <use xlink:href="#DejaVuSans-35"/>
     <use xlink:href="#DejaVuSans-20" x="63.623047"/>
     <use xlink:href="#DejaVuSans-69" x="95.410156"/>
     <use xlink:href="#DejaVuSans-6e" x="123.193359"/>
     <use xlink:href="#DejaVuSans-73" x="186.572266"/>
     <use xlink:href="#DejaVuSans-74" x="238.671875"/>
     <use xlink:href="#DejaVuSans-61" x="277.880859"/>
     <use xlink:href="#DejaVuSans-6e" x="339.160156"/>
     <use xlink:href="#DejaVuSans-63" x="402.539062"/>
     <use xlink:href="#DejaVuSans-65" x="457.519531"/>
     <use xlink:href="#DejaVuSans-73" x="519.042969"/>
    </g>
   </g>
   <g id="text_19">
    <!-- v2.6 -->
    <g style="fill: #808080" transform="translate(198.292262 294.151352)scale(0.1 -0.1)">
     <use xlink:href="#DejaVuSans-76"/>
     <use xlink:href="#DejaVuSans-32" x="59.179688"/>
     <use xlink:href="#DejaVuSans-2e" x="122.802734"/>
     <use xlink:href="#DejaVuSans-36" x="154.589844"/>
    </g>
   </g>
   <g id="text_20">
    <!-- 8 Rosenbrock original -->
    <g transform="translate(101.14695 21.648)scale(0.2 -0.2)">
     <defs>
      <path id="DejaVuSans-52" d="M 2841 2188 
Q 3044 2119 3236 1894 
Q 3428 1669 3622 1275 
L 4263 0 
L 3584 0 
L 2988 1197 
Q 2756 1666 2539 1819 
Q 2322 1972 1947 1972 
L 1259 1972 
L 1259 0 
L 628 0 
L 628 4666 
L 2053 4666 
Q 2853 4666 3247 4331 
Q 3641 3997 3641 3322 
Q 3641 2881 3436 2590 
Q 3231 2300 2841 2188 
z
M 1259 4147 
L 1259 2491 
L 2053 2491 
Q 2509 2491 2742 2702 
Q 2975 2913 2975 3322 
Q 2975 3731 2742 3939 
Q 2509 4147 2053 4147 
L 1259 4147 
z
" transform="scale(0.015625)"/>
      <path id="DejaVuSans-6b" d="M 581 4863 
L 1159 4863 
L 1159 1991 
L 2875 3500 
L 3609 3500 
L 1753 1863 
L 3688 0 
L 2938 0 
L 1159 1709 
L 1159 0 
L 581 0 
L 581 4863 
z
" transform="scale(0.015625)"/>
     </defs>
     <use xlink:href="#DejaVuSans-38"/>
     <use xlink:href="#DejaVuSans-20" x="63.623047"/>
     <use xlink:href="#DejaVuSans-52" x="95.410156"/>
     <use xlink:href="#DejaVuSans-6f" x="160.392578"/>
     <use xlink:href="#DejaVuSans-73" x="221.574219"/>
     <use xlink:href="#DejaVuSans-65" x="273.673828"/>
     <use xlink:href="#DejaVuSans-6e" x="335.197266"/>
     <use xlink:href="#DejaVuSans-62" x="398.576172"/>
     <use xlink:href="#DejaVuSans-72" x="462.052734"/>
     <use xlink:href="#DejaVuSans-6f" x="500.916016"/>
     <use xlink:href="#DejaVuSans-63" x="562.097656"/>
     <use xlink:href="#DejaVuSans-6b" x="617.078125"/>
     <use xlink:href="#DejaVuSans-20" x="674.988281"/>
     <use xlink:href="#DejaVuSans-6f" x="706.775391"/>
     <use xlink:href="#DejaVuSans-72" x="767.957031"/>
     <use xlink:href="#DejaVuSans-69" x="809.070312"/>
     <use xlink:href="#DejaVuSans-67" x="836.853516"/>
     <use xlink:href="#DejaVuSans-69" x="900.330078"/>
     <use xlink:href="#DejaVuSans-6e" x="928.113281"/>
     <use xlink:href="#DejaVuSans-61" x="991.492188"/>
     <use xlink:href="#DejaVuSans-6c" x="1052.771484"/>
    </g>
   </g>
  </g>
 </g>
 <defs>
  <clipPath id="pb12c99dea9">
   <rect x="57.6" y="27.648" width="303.2064" height="271.296"/>
  </clipPath>
 </defs>
</svg>
