<?xml version="1.0" encoding="utf-8" standalone="no"?>
<!DOCTYPE svg PUBLIC "-//W3C//DTD SVG 1.1//EN"
  "http://www.w3.org/Graphics/SVG/1.1/DTD/svg11.dtd">
<svg xmlns:xlink="http://www.w3.org/1999/xlink" width="460.8pt" height="345.6pt" viewBox="0 0 460.8 345.6" xmlns="http://www.w3.org/2000/svg" version="1.1">
 <metadata>
  <rdf:RDF xmlns:dc="http://purl.org/dc/elements/1.1/" xmlns:cc="http://creativecommons.org/ns#" xmlns:rdf="http://www.w3.org/1999/02/22-rdf-syntax-ns#">
   <cc:Work>
    <dc:type rdf:resource="http://purl.org/dc/dcmitype/StillImage"/>
    <dc:date>2022-03-16T23:40:19.122947</dc:date>
    <dc:format>image/svg+xml</dc:format>
    <dc:creator>
     <cc:Agent>
      <dc:title>Matplotlib v3.5.1, https://matplotlib.org/</dc:title>
     </cc:Agent>
    </dc:creator>
   </cc:Work>
  </rdf:RDF>
 </metadata>
 <defs>
  <style type="text/css">*{stroke-linejoin: round; stroke-linecap: butt}</style>
 </defs>
 <g id="figure_1">
  <g id="patch_1">
   <path d="M 0 345.6 
L 460.8 345.6 
L 460.8 0 
L 0 0 
z
" style="fill: #ffffff"/>
  </g>
  <g id="axes_1">
   <g id="patch_2">
    <path d="M 34.16 291.28 
L 453.192 291.28 
L 453.192 3 
L 34.16 3 
z
" style="fill: #ffffff"/>
   </g>
   <g id="matplotlib.axis_1">
    <g id="xtick_1">
     <g id="line2d_1">
      <path d="M 118.192487 291.28 
L 118.192487 3 
" clip-path="url(#pe10de08946)" style="fill: none; stroke: #b0b0b0; stroke-width: 0.8; stroke-linecap: square"/>
     </g>
     <g id="line2d_2">
      <defs>
       <path id="medfe48f098" d="M 0 0 
L 0 3.5 
" style="stroke: #000000; stroke-width: 0.8"/>
      </defs>
      <g>
       <use xlink:href="#medfe48f098" x="118.192487" y="291.28" style="stroke: #000000; stroke-width: 0.8"/>
      </g>
     </g>
     <g id="text_1">
      <!-- -2 -->
      <g transform="translate(108.222174 313.476875)scale(0.2 -0.2)">
       <defs>
        <path id="DejaVuSans-2d" d="M 313 2009 
L 1997 2009 
L 1997 1497 
L 313 1497 
L 313 2009 
z
" transform="scale(0.015625)"/>
        <path id="DejaVuSans-32" d="M 1228 531 
L 3431 531 
L 3431 0 
L 469 0 
L 469 531 
Q 828 903 1448 1529 
Q 2069 2156 2228 2338 
Q 2531 2678 2651 2914 
Q 2772 3150 2772 3378 
Q 2772 3750 2511 3984 
Q 2250 4219 1831 4219 
Q 1534 4219 1204 4116 
Q 875 4013 500 3803 
L 500 4441 
Q 881 4594 1212 4672 
Q 1544 4750 1819 4750 
Q 2544 4750 2975 4387 
Q 3406 4025 3406 3419 
Q 3406 3131 3298 2873 
Q 3191 2616 2906 2266 
Q 2828 2175 2409 1742 
Q 1991 1309 1228 531 
z
" transform="scale(0.015625)"/>
       </defs>
       <use xlink:href="#DejaVuSans-2d"/>
       <use xlink:href="#DejaVuSans-32" x="36.083984"/>
      </g>
     </g>
    </g>
    <g id="xtick_2">
     <g id="line2d_3">
      <path d="M 243.676 291.28 
L 243.676 3 
" clip-path="url(#pe10de08946)" style="fill: none; stroke: #b0b0b0; stroke-width: 0.8; stroke-linecap: square"/>
     </g>
     <g id="line2d_4">
      <g>
       <use xlink:href="#medfe48f098" x="243.676" y="291.28" style="stroke: #000000; stroke-width: 0.8"/>
      </g>
     </g>
     <g id="text_2">
      <!-- 0 -->
      <g transform="translate(237.3135 313.476875)scale(0.2 -0.2)">
       <defs>
        <path id="DejaVuSans-30" d="M 2034 4250 
Q 1547 4250 1301 3770 
Q 1056 3291 1056 2328 
Q 1056 1369 1301 889 
Q 1547 409 2034 409 
Q 2525 409 2770 889 
Q 3016 1369 3016 2328 
Q 3016 3291 2770 3770 
Q 2525 4250 2034 4250 
z
M 2034 4750 
Q 2819 4750 3233 4129 
Q 3647 3509 3647 2328 
Q 3647 1150 3233 529 
Q 2819 -91 2034 -91 
Q 1250 -91 836 529 
Q 422 1150 422 2328 
Q 422 3509 836 4129 
Q 1250 4750 2034 4750 
z
" transform="scale(0.015625)"/>
       </defs>
       <use xlink:href="#DejaVuSans-30"/>
      </g>
     </g>
    </g>
    <g id="xtick_3">
     <g id="line2d_5">
      <path d="M 369.159513 291.28 
L 369.159513 3 
" clip-path="url(#pe10de08946)" style="fill: none; stroke: #b0b0b0; stroke-width: 0.8; stroke-linecap: square"/>
     </g>
     <g id="line2d_6">
      <g>
       <use xlink:href="#medfe48f098" x="369.159513" y="291.28" style="stroke: #000000; stroke-width: 0.8"/>
      </g>
     </g>
     <g id="text_3">
      <!-- 2 -->
      <g transform="translate(362.797013 313.476875)scale(0.2 -0.2)">
       <use xlink:href="#DejaVuSans-32"/>
      </g>
     </g>
    </g>
    <g id="text_4">
     <!-- log10 of FEvals ratio -->
     <g transform="translate(141.371312 336.833125)scale(0.2 -0.2)">
      <defs>
       <path id="DejaVuSans-6c" d="M 603 4863 
L 1178 4863 
L 1178 0 
L 603 0 
L 603 4863 
z
" transform="scale(0.015625)"/>
       <path id="DejaVuSans-6f" d="M 1959 3097 
Q 1497 3097 1228 2736 
Q 959 2375 959 1747 
Q 959 1119 1226 758 
Q 1494 397 1959 397 
Q 2419 397 2687 759 
Q 2956 1122 2956 1747 
Q 2956 2369 2687 2733 
Q 2419 3097 1959 3097 
z
M 1959 3584 
Q 2709 3584 3137 3096 
Q 3566 2609 3566 1747 
Q 3566 888 3137 398 
Q 2709 -91 1959 -91 
Q 1206 -91 779 398 
Q 353 888 353 1747 
Q 353 2609 779 3096 
Q 1206 3584 1959 3584 
z
" transform="scale(0.015625)"/>
       <path id="DejaVuSans-67" d="M 2906 1791 
Q 2906 2416 2648 2759 
Q 2391 3103 1925 3103 
Q 1463 3103 1205 2759 
Q 947 2416 947 1791 
Q 947 1169 1205 825 
Q 1463 481 1925 481 
Q 2391 481 2648 825 
Q 2906 1169 2906 1791 
z
M 3481 434 
Q 3481 -459 3084 -895 
Q 2688 -1331 1869 -1331 
Q 1566 -1331 1297 -1286 
Q 1028 -1241 775 -1147 
L 775 -588 
Q 1028 -725 1275 -790 
Q 1522 -856 1778 -856 
Q 2344 -856 2625 -561 
Q 2906 -266 2906 331 
L 2906 616 
Q 2728 306 2450 153 
Q 2172 0 1784 0 
Q 1141 0 747 490 
Q 353 981 353 1791 
Q 353 2603 747 3093 
Q 1141 3584 1784 3584 
Q 2172 3584 2450 3431 
Q 2728 3278 2906 2969 
L 2906 3500 
L 3481 3500 
L 3481 434 
z
" transform="scale(0.015625)"/>
       <path id="DejaVuSans-31" d="M 794 531 
L 1825 531 
L 1825 4091 
L 703 3866 
L 703 4441 
L 1819 4666 
L 2450 4666 
L 2450 531 
L 3481 531 
L 3481 0 
L 794 0 
L 794 531 
z
" transform="scale(0.015625)"/>
       <path id="DejaVuSans-20" transform="scale(0.015625)"/>
       <path id="DejaVuSans-66" d="M 2375 4863 
L 2375 4384 
L 1825 4384 
Q 1516 4384 1395 4259 
Q 1275 4134 1275 3809 
L 1275 3500 
L 2222 3500 
L 2222 3053 
L 1275 3053 
L 1275 0 
L 697 0 
L 697 3053 
L 147 3053 
L 147 3500 
L 697 3500 
L 697 3744 
Q 697 4328 969 4595 
Q 1241 4863 1831 4863 
L 2375 4863 
z
" transform="scale(0.015625)"/>
       <path id="DejaVuSans-46" d="M 628 4666 
L 3309 4666 
L 3309 4134 
L 1259 4134 
L 1259 2759 
L 3109 2759 
L 3109 2228 
L 1259 2228 
L 1259 0 
L 628 0 
L 628 4666 
z
" transform="scale(0.015625)"/>
       <path id="DejaVuSans-45" d="M 628 4666 
L 3578 4666 
L 3578 4134 
L 1259 4134 
L 1259 2753 
L 3481 2753 
L 3481 2222 
L 1259 2222 
L 1259 531 
L 3634 531 
L 3634 0 
L 628 0 
L 628 4666 
z
" transform="scale(0.015625)"/>
       <path id="DejaVuSans-76" d="M 191 3500 
L 800 3500 
L 1894 563 
L 2988 3500 
L 3597 3500 
L 2284 0 
L 1503 0 
L 191 3500 
z
" transform="scale(0.015625)"/>
       <path id="DejaVuSans-61" d="M 2194 1759 
Q 1497 1759 1228 1600 
Q 959 1441 959 1056 
Q 959 750 1161 570 
Q 1363 391 1709 391 
Q 2188 391 2477 730 
Q 2766 1069 2766 1631 
L 2766 1759 
L 2194 1759 
z
M 3341 1997 
L 3341 0 
L 2766 0 
L 2766 531 
Q 2569 213 2275 61 
Q 1981 -91 1556 -91 
Q 1019 -91 701 211 
Q 384 513 384 1019 
Q 384 1609 779 1909 
Q 1175 2209 1959 2209 
L 2766 2209 
L 2766 2266 
Q 2766 2663 2505 2880 
Q 2244 3097 1772 3097 
Q 1472 3097 1187 3025 
Q 903 2953 641 2809 
L 641 3341 
Q 956 3463 1253 3523 
Q 1550 3584 1831 3584 
Q 2591 3584 2966 3190 
Q 3341 2797 3341 1997 
z
" transform="scale(0.015625)"/>
       <path id="DejaVuSans-73" d="M 2834 3397 
L 2834 2853 
Q 2591 2978 2328 3040 
Q 2066 3103 1784 3103 
Q 1356 3103 1142 2972 
Q 928 2841 928 2578 
Q 928 2378 1081 2264 
Q 1234 2150 1697 2047 
L 1894 2003 
Q 2506 1872 2764 1633 
Q 3022 1394 3022 966 
Q 3022 478 2636 193 
Q 2250 -91 1575 -91 
Q 1294 -91 989 -36 
Q 684 19 347 128 
L 347 722 
Q 666 556 975 473 
Q 1284 391 1588 391 
Q 1994 391 2212 530 
Q 2431 669 2431 922 
Q 2431 1156 2273 1281 
Q 2116 1406 1581 1522 
L 1381 1569 
Q 847 1681 609 1914 
Q 372 2147 372 2553 
Q 372 3047 722 3315 
Q 1072 3584 1716 3584 
Q 2034 3584 2315 3537 
Q 2597 3491 2834 3397 
z
" transform="scale(0.015625)"/>
       <path id="DejaVuSans-72" d="M 2631 2963 
Q 2534 3019 2420 3045 
Q 2306 3072 2169 3072 
Q 1681 3072 1420 2755 
Q 1159 2438 1159 1844 
L 1159 0 
L 581 0 
L 581 3500 
L 1159 3500 
L 1159 2956 
Q 1341 3275 1631 3429 
Q 1922 3584 2338 3584 
Q 2397 3584 2469 3576 
Q 2541 3569 2628 3553 
L 2631 2963 
z
" transform="scale(0.015625)"/>
       <path id="DejaVuSans-74" d="M 1172 4494 
L 1172 3500 
L 2356 3500 
L 2356 3053 
L 1172 3053 
L 1172 1153 
Q 1172 725 1289 603 
Q 1406 481 1766 481 
L 2356 481 
L 2356 0 
L 1766 0 
Q 1100 0 847 248 
Q 594 497 594 1153 
L 594 3053 
L 172 3053 
L 172 3500 
L 594 3500 
L 594 4494 
L 1172 4494 
z
" transform="scale(0.015625)"/>
       <path id="DejaVuSans-69" d="M 603 3500 
L 1178 3500 
L 1178 0 
L 603 0 
L 603 3500 
z
M 603 4863 
L 1178 4863 
L 1178 4134 
L 603 4134 
L 603 4863 
z
" transform="scale(0.015625)"/>
      </defs>
      <use xlink:href="#DejaVuSans-6c"/>
      <use xlink:href="#DejaVuSans-6f" x="27.783203"/>
      <use xlink:href="#DejaVuSans-67" x="88.964844"/>
      <use xlink:href="#DejaVuSans-31" x="152.441406"/>
      <use xlink:href="#DejaVuSans-30" x="216.064453"/>
      <use xlink:href="#DejaVuSans-20" x="279.6875"/>
      <use xlink:href="#DejaVuSans-6f" x="311.474609"/>
      <use xlink:href="#DejaVuSans-66" x="372.65625"/>
      <use xlink:href="#DejaVuSans-20" x="407.861328"/>
      <use xlink:href="#DejaVuSans-46" x="439.648438"/>
      <use xlink:href="#DejaVuSans-45" x="497.167969"/>
      <use xlink:href="#DejaVuSans-76" x="560.351562"/>
      <use xlink:href="#DejaVuSans-61" x="619.53125"/>
      <use xlink:href="#DejaVuSans-6c" x="680.810547"/>
      <use xlink:href="#DejaVuSans-73" x="708.59375"/>
      <use xlink:href="#DejaVuSans-20" x="760.693359"/>
      <use xlink:href="#DejaVuSans-72" x="792.480469"/>
      <use xlink:href="#DejaVuSans-61" x="833.59375"/>
      <use xlink:href="#DejaVuSans-74" x="894.873047"/>
      <use xlink:href="#DejaVuSans-69" x="934.082031"/>
      <use xlink:href="#DejaVuSans-6f" x="961.865234"/>
     </g>
    </g>
   </g>
   <g id="matplotlib.axis_2">
    <g id="ytick_1">
     <g id="line2d_7">
      <path d="M 34.16 288.453725 
L 453.192 288.453725 
" clip-path="url(#pe10de08946)" style="fill: none; stroke: #b0b0b0; stroke-width: 0.8; stroke-linecap: square"/>
     </g>
     <g id="line2d_8">
      <defs>
       <path id="m7ec982dca0" d="M 0 0 
L -3.5 0 
" style="stroke: #000000; stroke-width: 0.8"/>
      </defs>
      <g>
       <use xlink:href="#m7ec982dca0" x="34.16" y="288.453725" style="stroke: #000000; stroke-width: 0.8"/>
      </g>
     </g>
    </g>
    <g id="ytick_2">
     <g id="line2d_9">
      <path d="M 34.16 217.796863 
L 453.192 217.796863 
" clip-path="url(#pe10de08946)" style="fill: none; stroke: #b0b0b0; stroke-width: 0.8; stroke-linecap: square"/>
     </g>
     <g id="line2d_10">
      <g>
       <use xlink:href="#m7ec982dca0" x="34.16" y="217.796863" style="stroke: #000000; stroke-width: 0.8"/>
      </g>
     </g>
    </g>
    <g id="ytick_3">
     <g id="line2d_11">
      <path d="M 34.16 147.14 
L 453.192 147.14 
" clip-path="url(#pe10de08946)" style="fill: none; stroke: #b0b0b0; stroke-width: 0.8; stroke-linecap: square"/>
     </g>
     <g id="line2d_12">
      <g>
       <use xlink:href="#m7ec982dca0" x="34.16" y="147.14" style="stroke: #000000; stroke-width: 0.8"/>
      </g>
     </g>
    </g>
    <g id="ytick_4">
     <g id="line2d_13">
      <path d="M 34.16 76.483137 
L 453.192 76.483137 
" clip-path="url(#pe10de08946)" style="fill: none; stroke: #b0b0b0; stroke-width: 0.8; stroke-linecap: square"/>
     </g>
     <g id="line2d_14">
      <g>
       <use xlink:href="#m7ec982dca0" x="34.16" y="76.483137" style="stroke: #000000; stroke-width: 0.8"/>
      </g>
     </g>
    </g>
    <g id="ytick_5">
     <g id="line2d_15">
      <path d="M 34.16 5.826275 
L 453.192 5.826275 
" clip-path="url(#pe10de08946)" style="fill: none; stroke: #b0b0b0; stroke-width: 0.8; stroke-linecap: square"/>
     </g>
     <g id="line2d_16">
      <g>
       <use xlink:href="#m7ec982dca0" x="34.16" y="5.826275" style="stroke: #000000; stroke-width: 0.8"/>
      </g>
     </g>
    </g>
    <g id="text_5">
     <!-- proportion of trials -->
     <g transform="translate(19.000625 240.14625)rotate(-90)scale(0.2 -0.2)">
      <defs>
       <path id="DejaVuSans-70" d="M 1159 525 
L 1159 -1331 
L 581 -1331 
L 581 3500 
L 1159 3500 
L 1159 2969 
Q 1341 3281 1617 3432 
Q 1894 3584 2278 3584 
Q 2916 3584 3314 3078 
Q 3713 2572 3713 1747 
Q 3713 922 3314 415 
Q 2916 -91 2278 -91 
Q 1894 -91 1617 61 
Q 1341 213 1159 525 
z
M 3116 1747 
Q 3116 2381 2855 2742 
Q 2594 3103 2138 3103 
Q 1681 3103 1420 2742 
Q 1159 2381 1159 1747 
Q 1159 1113 1420 752 
Q 1681 391 2138 391 
Q 2594 391 2855 752 
Q 3116 1113 3116 1747 
z
" transform="scale(0.015625)"/>
       <path id="DejaVuSans-6e" d="M 3513 2113 
L 3513 0 
L 2938 0 
L 2938 2094 
Q 2938 2591 2744 2837 
Q 2550 3084 2163 3084 
Q 1697 3084 1428 2787 
Q 1159 2491 1159 1978 
L 1159 0 
L 581 0 
L 581 3500 
L 1159 3500 
L 1159 2956 
Q 1366 3272 1645 3428 
Q 1925 3584 2291 3584 
Q 2894 3584 3203 3211 
Q 3513 2838 3513 2113 
z
" transform="scale(0.015625)"/>
      </defs>
      <use xlink:href="#DejaVuSans-70"/>
      <use xlink:href="#DejaVuSans-72" x="63.476562"/>
      <use xlink:href="#DejaVuSans-6f" x="102.339844"/>
      <use xlink:href="#DejaVuSans-70" x="163.521484"/>
      <use xlink:href="#DejaVuSans-6f" x="226.998047"/>
      <use xlink:href="#DejaVuSans-72" x="288.179688"/>
      <use xlink:href="#DejaVuSans-74" x="329.292969"/>
      <use xlink:href="#DejaVuSans-69" x="368.501953"/>
      <use xlink:href="#DejaVuSans-6f" x="396.285156"/>
      <use xlink:href="#DejaVuSans-6e" x="457.466797"/>
      <use xlink:href="#DejaVuSans-20" x="520.845703"/>
      <use xlink:href="#DejaVuSans-6f" x="552.632812"/>
      <use xlink:href="#DejaVuSans-66" x="613.814453"/>
      <use xlink:href="#DejaVuSans-20" x="649.019531"/>
      <use xlink:href="#DejaVuSans-74" x="680.806641"/>
      <use xlink:href="#DejaVuSans-72" x="720.015625"/>
      <use xlink:href="#DejaVuSans-69" x="761.128906"/>
      <use xlink:href="#DejaVuSans-61" x="788.912109"/>
      <use xlink:href="#DejaVuSans-6c" x="850.191406"/>
      <use xlink:href="#DejaVuSans-73" x="877.974609"/>
     </g>
    </g>
   </g>
   <g id="line2d_17">
    <path d="M 34.16 228.766537 
L 68.686002 228.665201 
L 68.686002 228.563864 
L 95.143931 228.462528 
L 95.143931 228.361191 
L 100.205619 228.259855 
L 100.205619 228.158518 
L 102.866111 228.057182 
L 102.866111 227.955845 
L 107.326476 227.854509 
L 107.326476 227.753172 
L 110.116225 227.651836 
L 110.116225 227.550499 
L 114.74195 227.449163 
L 114.74195 227.347826 
L 119.09277 227.24649 
L 119.09277 227.145153 
L 121.675741 227.043817 
L 121.753262 226.841144 
L 126.213627 226.739807 
L 126.213627 226.638471 
L 129.003375 226.537134 
L 129.003375 226.435798 
L 130.737889 226.334461 
L 130.737889 226.233125 
L 133.629101 226.131788 
L 133.629101 226.030452 
L 134.637158 225.929116 
L 134.637158 225.726443 
L 138.405686 225.625106 
L 138.405686 225.52377 
L 140.640413 225.422433 
L 140.640413 225.321097 
L 141.830488 225.21976 
L 141.830488 224.713078 
L 145.37648 224.611741 
L 145.37648 224.510405 
L 148.817782 224.409068 
L 148.817782 224.307732 
L 149.240246 224.307732 
L 149.240246 224.206395 
L 149.240246 223.801049 
L 152.878763 223.699713 
L 152.878763 223.19303 
L 159.450043 223.091694 
L 159.450043 222.990357 
L 163.444753 222.889021 
L 163.444753 222.382339 
L 168.127397 222.281002 
L 168.127397 221.77432 
L 171.067199 221.672983 
L 171.067199 221.571647 
L 171.765914 221.571647 
L 171.765914 221.47031 
L 171.765914 220.760955 
L 175.966273 220.659618 
L 175.966273 220.051599 
L 176.173486 219.950263 
L 176.173486 219.848927 
L 177.252987 219.74759 
L 177.252987 219.646254 
L 178.337194 219.544917 
L 178.337194 219.038235 
L 179.175672 219.038235 
L 179.175672 218.936898 
L 179.175672 218.734225 
L 179.60479 218.632889 
L 179.60479 218.531552 
L 179.982237 218.531552 
L 179.982237 218.430216 
L 179.982237 218.328879 
L 180.812177 218.227543 
L 180.812177 218.126206 
L 181.276995 218.02487 
L 181.276995 217.923533 
L 181.546593 217.923533 
L 181.546593 217.822197 
L 181.624113 217.518187 
L 182.814189 217.518187 
L 182.814189 217.416851 
L 182.814189 217.214178 
L 183.805149 217.112841 
L 183.805149 217.011505 
L 184.255364 216.910169 
L 184.361258 216.707496 
L 185.043926 216.707496 
L 185.043926 216.606159 
L 185.043926 216.504823 
L 185.469691 216.403486 
L 185.469691 216.403486 
L 185.477839 216.200813 
L 185.685094 216.200813 
L 185.685094 216.099477 
L 185.685094 215.795467 
L 186.383283 215.694131 
L 186.383283 215.592794 
L 187.014548 215.491458 
L 187.014548 215.390121 
L 187.704418 215.390121 
L 187.704418 215.288785 
L 187.704418 215.187448 
L 188.016724 215.187448 
L 188.016724 215.086112 
L 188.016724 214.984775 
L 188.279406 214.883439 
L 188.279406 214.782102 
L 188.688936 214.680766 
L 188.688936 214.579429 
L 190.653064 214.478093 
L 190.653064 212.755373 
L 191.165589 212.654036 
L 191.165589 212.5527 
L 192.106657 212.451363 
L 192.164783 212.147354 
L 192.440485 212.147354 
L 192.440485 212.046017 
L 192.482503 211.843344 
L 193.094852 211.843344 
L 193.094852 211.742008 
L 193.094852 211.437998 
L 193.380178 211.336662 
L 193.479645 210.931316 
L 194.039978 210.931316 
L 194.039978 210.82998 
L 194.039978 210.728643 
L 194.561501 210.627307 
L 194.571054 210.424634 
L 194.853424 210.424634 
L 194.853424 210.323297 
L 194.954531 209.613942 
L 195.24236 209.512605 
L 195.24236 209.411269 
L 195.680987 209.309932 
L 195.680987 209.208596 
L 196.023291 209.107259 
L 196.023291 209.005923 
L 196.733369 208.904586 
L 196.733369 208.49924 
L 197.450473 208.397904 
L 197.450473 208.296567 
L 197.90844 208.195231 
L 197.90844 208.093895 
L 198.062823 208.093895 
L 198.062823 207.992558 
L 198.062823 207.688549 
L 198.35233 207.587212 
L 198.35233 207.485876 
L 198.76186 207.384539 
L 198.824858 207.181866 
L 199.077787 207.08053 
L 199.077787 206.979193 
L 199.442719 206.877857 
L 199.442719 206.77652 
L 199.580256 206.77652 
L 199.580256 206.675184 
L 199.670433 206.472511 
L 199.821394 206.371174 
L 199.915246 205.763155 
L 200.511264 205.661819 
L 200.511264 205.560482 
L 200.760822 205.459146 
L 200.760822 205.357809 
L 201.701339 205.256473 
L 201.701339 204.749791 
L 202.316454 204.648454 
L 202.316454 204.547118 
L 202.692299 204.445781 
L 202.692299 204.344445 
L 204.249775 204.344445 
L 204.249775 204.243108 
L 204.249775 204.141772 
L 204.459648 204.040435 
L 204.459648 203.939099 
L 205.289349 203.837762 
L 205.289349 203.736426 
L 205.901699 203.736426 
L 205.901699 203.635089 
L 205.901699 202.824397 
L 206.514048 202.824397 
L 206.514048 202.723061 
L 206.514048 202.621724 
L 207.169294 202.520388 
L 207.223983 202.115042 
L 207.299359 202.115042 
L 207.299359 202.013706 
L 207.299359 201.709696 
L 207.66027 201.60836 
L 207.66027 201.507023 
L 208.272619 201.405687 
L 208.314371 201.000341 
L 209.111098 200.899004 
L 209.111098 200.797668 
L 209.540215 200.797668 
L 209.540215 200.696331 
L 209.540215 200.594995 
L 210.993808 200.493658 
L 210.993808 200.392322 
L 211.212421 200.392322 
L 211.212421 200.290985 
L 211.212421 200.189649 
L 211.982003 200.189649 
L 211.982003 200.088312 
L 212.08865 199.58163 
L 212.205047 199.480293 
L 212.267329 199.27762 
L 212.749614 199.176284 
L 212.749614 199.074948 
L 213.364728 199.074948 
L 213.364728 198.973611 
L 213.393456 198.770938 
L 213.740574 198.669602 
L 213.740574 198.061583 
L 213.912489 197.960246 
L 213.947788 197.757573 
L 214.138368 197.757573 
L 214.138368 197.656237 
L 214.138368 197.5549 
L 214.579053 197.5549 
L 214.579053 197.453564 
L 214.579053 197.250891 
L 214.768938 197.250891 
L 214.768938 197.149554 
L 214.768938 197.048218 
L 215.499146 196.946881 
L 215.545764 196.744208 
L 215.62052 196.744208 
L 215.62052 196.642872 
L 215.62052 196.237526 
L 216.064797 196.13619 
L 216.111495 195.933517 
L 216.318708 195.933517 
L 216.318708 195.83218 
L 216.318708 195.730844 
L 216.949973 195.730844 
L 216.949973 195.629507 
L 216.949973 195.528171 
L 218.006831 195.426834 
L 218.047373 195.224161 
L 218.217569 195.224161 
L 218.217569 195.122825 
L 218.217569 194.818815 
L 218.918958 194.717479 
L 219.018777 194.514806 
L 219.422189 194.413469 
L 219.422189 194.312133 
L 219.820879 194.312133 
L 219.820879 194.210796 
L 219.820879 193.906787 
L 220.58849 193.906787 
L 220.58849 193.80545 
L 220.58849 192.690749 
L 221.57945 192.589413 
L 221.643399 192.38674 
L 221.977244 192.285403 
L 221.977244 192.184067 
L 222.1918 192.08273 
L 222.1918 191.677384 
L 222.471034 191.576048 
L 222.471034 191.474711 
L 223.141682 191.373375 
L 223.141682 191.272038 
L 223.37303 191.170702 
L 223.37303 191.069365 
L 223.938476 190.968029 
L 224.035389 190.765356 
L 224.162422 190.664019 
L 224.162422 190.562683 
L 224.50648 190.562683 
L 224.50648 190.461346 
L 224.50648 190.36001 
L 224.788849 190.36001 
L 224.788849 190.258674 
L 224.788849 189.447982 
L 224.940651 189.346645 
L 224.940651 189.245309 
L 225.525337 189.143972 
L 225.525337 189.042636 
L 226.045812 188.941299 
L 226.056445 188.738626 
L 226.186509 188.63729 
L 226.186509 188.535953 
L 226.44796 188.434617 
L 226.4699 188.130607 
L 227.15977 188.029271 
L 227.206548 187.826598 
L 227.532722 187.725261 
L 227.610167 187.522588 
L 227.721613 187.421252 
L 227.721613 187.319915 
L 227.998248 187.218579 
L 228.08552 186.91457 
L 228.427366 186.813233 
L 228.479317 186.306551 
L 228.783559 186.205214 
L 228.829564 185.698532 
L 229.346032 185.597195 
L 229.346032 185.495859 
L 229.75682 185.394522 
L 229.75682 185.090513 
L 229.967233 184.989176 
L 229.967233 184.88784 
L 230.256804 184.786503 
L 230.320247 184.58383 
L 230.50552 184.482494 
L 230.608402 184.279821 
L 230.869154 184.178485 
L 230.883529 183.975812 
L 231.15448 183.874475 
L 231.235456 183.367793 
L 231.567342 183.266456 
L 231.64471 182.759774 
L 231.81428 182.658437 
L 231.856772 182.354428 
L 232.032249 182.253091 
L 232.032249 182.151755 
L 232.235655 182.050418 
L 232.320525 181.645072 
L 232.627725 181.543736 
L 232.627725 181.13839 
L 232.940031 181.037054 
L 233.034425 180.834381 
L 233.455289 180.733044 
L 233.466204 180.226362 
L 233.879437 180.125025 
L 233.879437 180.023689 
L 234.152509 179.922352 
L 234.191743 179.212997 
L 234.432915 179.11166 
L 234.50767 177.69295 
L 234.662132 177.591613 
L 234.662132 177.490277 
L 234.808761 177.38894 
L 234.808761 177.287604 
L 234.951948 177.186267 
L 235.056314 176.983594 
L 235.218597 176.882258 
L 235.327794 176.476912 
L 235.682742 176.375575 
L 235.682742 176.274239 
L 235.837124 176.274239 
L 235.837124 176.172902 
L 235.837124 175.767556 
L 236.27944 175.66622 
L 236.366236 175.362211 
L 236.667089 175.260874 
L 236.756094 174.956865 
L 236.885269 174.855528 
L 236.993411 174.348846 
L 237.10472 174.247509 
L 237.123623 173.740827 
L 237.322624 173.63949 
L 237.363793 173.335481 
L 237.57036 173.234144 
L 237.642314 172.626125 
L 237.872001 172.524789 
L 237.872001 172.423452 
L 238.01816 172.423452 
L 238.01816 172.322116 
L 238.053663 172.018107 
L 238.228357 171.91677 
L 238.315959 171.714097 
L 238.352868 171.612761 
L 238.352868 171.511424 
L 238.615505 171.410088 
L 238.70803 170.700732 
L 238.825395 170.599396 
L 238.867845 170.19405 
L 238.939932 170.092713 
L 239.046523 169.788704 
L 239.418956 169.687367 
L 239.475641 169.180685 
L 239.590371 169.079349 
L 239.670971 168.775339 
L 239.755114 168.674003 
L 239.789994 168.369993 
L 239.877897 168.268657 
L 239.891483 167.964647 
L 240.200161 167.863311 
L 240.295764 167.559301 
L 240.38908 167.559301 
L 240.38908 167.457965 
L 240.475586 167.255292 
L 240.596294 167.153955 
L 240.596294 167.052619 
L 240.753731 166.951282 
L 240.753731 166.849946 
L 241.018105 166.748609 
L 241.07895 166.545936 
L 241.197165 166.4446 
L 241.305079 165.937918 
L 241.656676 165.836581 
L 241.742679 165.532572 
L 241.917429 165.431235 
L 242.024076 164.924553 
L 242.069053 164.823216 
L 242.070838 164.620543 
L 242.202755 164.519207 
L 242.27834 164.215197 
L 242.679464 164.113861 
L 242.751697 163.708515 
L 243.088994 163.607178 
L 243.088994 163.505842 
L 243.676 163.404506 
L 243.769852 95.813071 
L 243.919653 95.711735 
L 243.919653 95.610398 
L 244.205112 95.509062 
L 244.31502 95.205052 
L 244.412488 95.103716 
L 244.503564 94.901043 
L 244.696659 94.799707 
L 244.788334 94.394361 
L 244.896281 94.293024 
L 244.916657 94.090351 
L 245.311395 93.989015 
L 245.397524 93.685005 
L 245.434571 93.685005 
L 245.434571 93.583669 
L 245.434571 93.482332 
L 245.713451 93.380996 
L 245.755276 93.076986 
L 245.870051 92.97565 
L 245.870051 92.874313 
L 246.046921 92.772977 
L 246.046921 92.67164 
L 246.345809 92.570304 
L 246.345809 92.367631 
L 246.70672 92.266294 
L 246.715627 92.063622 
L 246.859211 91.962285 
L 246.885399 91.759612 
L 247.497279 91.658276 
L 247.591778 91.151593 
L 247.67071 91.050257 
L 247.67071 90.94892 
L 248.13464 90.847584 
L 248.13464 90.746247 
L 248.64397 90.644911 
L 248.64397 90.442238 
L 248.784065 90.340901 
L 248.881949 90.138228 
L 249.129877 90.036892 
L 249.198463 89.834219 
L 249.433834 89.834219 
L 249.433834 89.732882 
L 249.433834 89.631546 
L 249.756304 89.631546 
L 249.756304 89.530209 
L 249.828105 89.023527 
L 250.117216 88.922191 
L 250.214272 88.719518 
L 250.523916 88.618181 
L 250.523916 88.212835 
L 250.815771 88.111499 
L 250.815771 88.010162 
L 251.089111 87.908826 
L 251.089111 87.807489 
L 251.389235 87.706153 
L 251.454791 87.402143 
L 251.514876 87.402143 
L 251.514876 87.300807 
L 251.514876 87.19947 
L 252.282487 87.098134 
L 252.353354 86.794124 
L 252.577622 86.692788 
L 252.577622 86.591451 
L 252.84433 86.490115 
L 252.88443 86.287442 
L 253.084053 86.186105 
L 253.084053 86.084769 
L 253.272172 85.983433 
L 253.302297 85.78076 
L 253.394821 85.78076 
L 253.394821 85.679423 
L 253.478964 85.274077 
L 253.797019 85.172741 
L 253.797019 85.071404 
L 254.061909 84.970068 
L 254.061909 84.868731 
L 254.269176 84.767395 
L 254.269176 84.666058 
L 254.724275 84.564722 
L 254.724275 83.956703 
L 254.990115 83.855366 
L 254.990115 83.652693 
L 255.991871 83.652693 
L 255.991871 83.551357 
L 255.991871 82.537992 
L 256.529465 82.436656 
L 256.529465 82.335319 
L 256.905311 82.335319 
L 256.905311 82.233983 
L 256.970059 81.929973 
L 257.257734 81.828637 
L 257.27271 81.625964 
L 257.468148 81.524627 
L 257.468148 81.423291 
L 257.59518 81.423291 
L 257.59518 81.321954 
L 257.59518 80.815272 
L 257.893913 80.713935 
L 257.933674 80.511262 
L 258.362792 80.409926 
L 258.462786 79.396561 
L 258.858577 79.295225 
L 258.858577 79.193888 
L 259.692245 79.193888 
L 259.692245 79.092552 
L 259.692245 78.991215 
L 260.19223 78.889879 
L 260.19223 78.484533 
L 260.543827 78.383196 
L 260.62983 78.079187 
L 260.829452 77.97785 
L 260.832512 77.775177 
L 260.999716 77.673841 
L 261.06286 77.369831 
L 261.224364 77.268495 
L 261.224364 77.167159 
L 261.60021 77.065822 
L 261.60021 76.964486 
L 262.331248 76.863149 
L 262.331248 76.761813 
L 262.563151 76.761813 
L 262.563151 76.660476 
L 262.563151 76.052457 
L 262.762774 75.951121 
L 262.762774 75.951121 
L 262.828991 75.748448 
L 263.157685 75.647111 
L 263.157685 75.444438 
L 264.443096 75.343102 
L 264.443096 75.241765 
L 264.715458 75.140429 
L 264.744186 74.937756 
L 265.091304 74.836419 
L 265.1602 74.431073 
L 265.625442 74.329737 
L 265.625442 74.228401 
L 265.77255 74.228401 
L 265.77255 74.127064 
L 265.77255 74.025728 
L 266.004452 73.924391 
L 266.004452 73.823055 
L 266.239486 73.721718 
L 266.301662 73.519045 
L 266.557861 73.417709 
L 266.64878 72.80969 
L 267.026147 72.708353 
L 267.115107 72.50568 
L 267.531121 72.404344 
L 267.531121 72.201671 
L 268.143471 72.100334 
L 268.143471 71.998998 
L 268.643455 71.998998 
L 268.643455 71.897661 
L 268.643455 71.492315 
L 268.928781 71.492315 
L 268.928781 71.390979 
L 268.928781 71.289643 
L 269.411066 71.289643 
L 269.411066 71.188306 
L 269.411066 70.985633 
L 270.059275 70.884297 
L 270.059275 70.78296 
L 270.517242 70.681624 
L 270.601649 70.377614 
L 271.109817 70.276278 
L 271.109817 70.174941 
L 271.240505 70.174941 
L 271.240505 70.073605 
L 271.240505 69.870932 
L 272.004479 69.769595 
L 272.004479 69.668259 
L 273.087402 69.566922 
L 273.087402 69.465586 
L 273.611426 69.465586 
L 273.611426 69.364249 
L 273.611426 67.236183 
L 274.012145 67.134847 
L 274.012145 67.03351 
L 274.487655 66.932174 
L 274.487655 66.830837 
L 274.879022 66.830837 
L 274.879022 66.729501 
L 274.879022 66.526828 
L 275.569064 66.425491 
L 275.569064 66.324155 
L 276.043456 66.222818 
L 276.043456 66.121482 
L 276.560073 66.020145 
L 276.560073 65.918809 
L 278.579396 65.817472 
L 278.579396 65.716136 
L 279.079381 65.614799 
L 279.167706 65.108117 
L 279.430978 65.108117 
L 279.430978 65.006781 
L 279.430978 64.804108 
L 280.459341 64.702771 
L 280.459341 64.398762 
L 280.814123 64.297425 
L 280.86006 63.993416 
L 281.254972 63.892079 
L 281.254972 63.790743 
L 281.450301 63.790743 
L 281.450301 63.689406 
L 281.450301 63.081387 
L 282.640377 62.980051 
L 282.727934 62.676041 
L 283.662838 62.574705 
L 283.746089 62.372032 
L 284.177415 62.270696 
L 284.265431 62.068023 
L 284.533258 61.966686 
L 284.533258 61.86535 
L 284.659701 61.86535 
L 284.659701 61.764013 
L 284.746066 61.460004 
L 286.740742 61.358667 
L 286.840736 61.155994 
L 287.19316 61.054658 
L 287.19316 60.953321 
L 287.530606 60.851985 
L 287.530606 58.723919 
L 287.981003 58.622582 
L 287.981003 58.521246 
L 288.467399 58.419909 
L 288.467399 58.318573 
L 288.706502 58.217236 
L 288.727653 58.014563 
L 289.724657 57.913227 
L 289.733696 57.710554 
L 290.127656 57.609217 
L 290.191098 57.102535 
L 290.826371 57.001198 
L 290.826371 56.899862 
L 291.535635 56.798525 
L 291.535635 56.697189 
L 292.498576 56.697189 
L 292.498576 56.595852 
L 292.498576 55.886497 
L 293.152943 55.785161 
L 293.206367 55.582488 
L 293.750289 55.481151 
L 293.791963 55.278478 
L 295.707975 55.177142 
L 295.707975 55.075805 
L 297.193475 54.974469 
L 297.193475 54.873132 
L 297.34404 54.771796 
L 297.34404 54.670459 
L 297.901266 54.569123 
L 297.966531 54.36645 
L 299.449804 54.265113 
L 299.449804 54.163777 
L 301.392361 54.06244 
L 301.392361 53.961104 
L 303.546851 53.859767 
L 303.546851 53.150412 
L 306.417757 53.150412 
L 306.417757 53.049076 
L 306.417757 52.542393 
L 309.014806 52.441057 
L 309.014806 50.819673 
L 311.385727 50.819673 
L 311.385727 50.718336 
L 311.385727 50.312991 
L 313.620454 50.211654 
L 313.620454 50.110318 
L 314.595126 50.008981 
L 314.595126 49.907645 
L 322.434002 49.806308 
L 322.434002 49.299626 
L 327.901957 49.299626 
L 327.901957 49.198289 
L 327.901957 48.792943 
L 332.453913 48.792943 
L 332.453913 48.691607 
L 332.453913 48.286261 
L 333.482277 48.286261 
L 333.482277 48.184924 
L 333.482277 47.779578 
L 453.192 47.779578 
L 453.192 47.779578 
" clip-path="url(#pe10de08946)" style="fill: none; stroke: #000000; stroke-width: 3; stroke-linecap: square"/>
   </g>
   <g id="line2d_18">
    <path clip-path="url(#pe10de08946)" style="fill: none; stroke: #000000; stroke-width: 3; stroke-linecap: square"/>
   </g>
   <g id="line2d_19">
    <path d="M 34.16 177.544168 
L 144.194471 177.544168 
L 144.194471 177.342147 
L 146.375507 177.342147 
L 146.375507 177.140126 
L 149.406227 177.140126 
L 149.406227 176.938105 
L 151.76185 176.938105 
L 151.76185 176.736084 
L 153.942885 176.736084 
L 153.942885 176.534063 
L 156.973606 176.534063 
L 156.973606 176.332042 
L 157.351498 176.332042 
L 157.351498 176.130021 
L 157.766709 176.130021 
L 157.766709 175.928 
L 159.947744 175.928 
L 159.947744 175.725979 
L 162.978465 175.725979 
L 162.978465 175.523958 
L 163.123275 175.523958 
L 163.123275 175.321937 
L 163.815263 175.321937 
L 163.815263 175.119916 
L 163.954152 175.119916 
L 163.954152 174.917895 
L 164.836494 174.917895 
L 164.836494 174.715874 
L 165.120224 174.715874 
L 165.120224 174.513852 
L 165.304311 174.513852 
L 165.304311 174.311831 
L 166.459011 174.311831 
L 166.459011 174.10981 
L 168.335031 174.10981 
L 168.335031 173.907789 
L 169.123843 173.907789 
L 169.151102 173.301726 
L 169.874994 173.301726 
L 169.874994 173.099705 
L 171.935448 173.099705 
L 171.935448 172.897684 
L 173.220851 172.897684 
L 173.220851 172.695663 
L 173.534664 172.695663 
L 173.534664 172.493642 
L 174.255943 172.493642 
L 174.327293 172.0896 
L 175.560904 172.0896 
L 175.621438 171.685558 
L 175.715699 171.685558 
L 175.715699 171.483537 
L 176.899691 171.483537 
L 176.899691 171.281516 
L 178.74642 171.281516 
L 178.74642 171.079495 
L 179.564523 171.079495 
L 179.564523 170.675452 
L 180.315675 170.675452 
L 180.315675 170.473431 
L 181.005467 170.473431 
L 181.005467 170.27141 
L 181.524245 170.27141 
L 181.524245 170.069389 
L 182.376128 170.069389 
L 182.376128 169.867368 
L 183.362705 169.867368 
L 183.362705 169.665347 
L 187.755936 169.665347 
L 187.755936 169.463326 
L 189.449469 169.463326 
L 189.449469 169.261305 
L 191.446147 169.261305 
L 191.446147 169.059284 
L 193.803386 169.059284 
L 193.803386 168.857263 
L 193.939864 168.857263 
L 193.939864 168.655242 
L 196.052123 168.655242 
L 196.052123 168.453221 
L 196.934465 168.453221 
L 196.934465 168.2512 
L 198.196617 168.2512 
L 198.196617 168.049179 
L 201.249073 168.049179 
L 201.249073 167.847158 
L 205.318823 167.847158 
L 205.318823 167.645137 
L 206.425265 167.645137 
L 206.425265 167.443116 
L 211.404316 167.443116 
L 211.404316 167.241095 
L 212.845023 167.241095 
L 212.845023 167.039074 
L 213.23114 167.039074 
L 213.23114 166.837053 
L 218.971695 166.837053 
L 218.971695 166.635031 
L 220.412402 166.635031 
L 220.425237 166.230989 
L 221.092555 166.230989 
L 221.092555 166.028968 
L 221.447811 166.028968 
L 221.447811 165.826947 
L 222.379397 165.826947 
L 222.397516 165.422905 
L 222.716211 165.422905 
L 222.716211 165.220884 
L 223.671821 165.220884 
L 223.736303 164.4128 
L 223.881206 164.4128 
L 223.881206 164.210779 
L 224.976554 164.210779 
L 225.023145 163.806737 
L 225.18729 163.806737 
L 225.18729 163.604716 
L 225.857551 163.604716 
L 225.857551 163.402695 
L 226.401135 163.402695 
L 226.417261 162.796631 
L 227.152287 162.796631 
L 227.152287 162.59461 
L 227.687977 162.59461 
L 227.687977 162.190568 
L 228.096209 162.190568 
L 228.096209 161.988547 
L 228.439129 161.988547 
L 228.439129 161.786526 
L 228.888271 161.786526 
L 228.888271 161.584505 
L 229.066436 161.584505 
L 229.066436 161.382484 
L 229.21274 161.382484 
L 229.318865 160.978442 
L 229.429753 160.978442 
L 229.429753 160.776421 
L 230.201207 160.776421 
L 230.201207 160.5744 
L 230.333121 160.5744 
L 230.371397 160.170358 
L 230.48386 160.170358 
L 230.499582 159.766316 
L 230.734714 159.766316 
L 230.734714 159.564295 
L 231.062634 159.564295 
L 231.062634 159.362274 
L 231.366201 159.362274 
L 231.366201 159.160253 
L 231.710184 159.160253 
L 231.789943 158.554189 
L 232.073501 158.554189 
L 232.073501 158.352168 
L 232.367595 158.352168 
L 232.367595 158.150147 
L 232.672285 158.150147 
L 232.672285 157.948126 
L 233.216715 157.948126 
L 233.216715 157.746105 
L 233.40036 157.746105 
L 233.40036 157.544084 
L 233.579137 157.544084 
L 233.579137 157.342063 
L 233.706382 157.342063 
L 233.706382 157.140042 
L 234.375016 157.140042 
L 234.375016 156.736 
L 234.515815 156.736 
L 234.521676 156.331958 
L 234.738333 156.331958 
L 234.823414 155.725895 
L 235.108826 155.725895 
L 235.126168 155.321853 
L 235.271694 155.321853 
L 235.271694 155.119832 
L 235.489485 155.119832 
L 235.489485 154.91781 
L 235.68081 154.91781 
L 235.760173 154.311747 
L 235.860463 154.311747 
L 235.860463 154.109726 
L 236.124301 154.109726 
L 236.124301 153.907705 
L 236.371214 153.907705 
L 236.459464 153.301642 
L 236.56657 153.301642 
L 236.594692 152.8976 
L 236.986893 152.8976 
L 237.073346 152.291537 
L 237.122366 152.291537 
L 237.186621 151.887495 
L 237.549938 151.887495 
L 237.549938 151.685474 
L 237.871531 151.685474 
L 237.871531 151.483453 
L 238.282759 151.483453 
L 238.352644 151.079411 
L 238.42282 151.079411 
L 238.525295 150.473347 
L 238.536889 150.473347 
L 238.585565 150.069305 
L 238.790893 150.069305 
L 238.790893 149.867284 
L 239.182819 149.867284 
L 239.276447 149.261221 
L 239.569601 149.261221 
L 239.569601 149.0592 
L 239.689662 149.0592 
L 239.750559 148.453137 
L 240.003014 148.453137 
L 240.003014 148.251116 
L 240.639998 148.251116 
L 240.744509 147.847074 
L 240.857001 147.847074 
L 240.885355 147.443032 
L 241.017476 147.443032 
L 241.056643 146.836968 
L 241.3369 146.836968 
L 241.426068 146.432926 
L 241.768628 146.432926 
L 241.87515 145.624842 
L 241.926839 145.624842 
L 241.926839 145.422821 
L 242.163085 145.422821 
L 242.185216 145.018779 
L 242.30841 145.018779 
L 242.30841 144.816758 
L 242.626302 144.816758 
L 242.726955 144.412716 
L 242.75669 144.412716 
L 242.75669 144.210695 
L 243.062118 144.210695 
L 243.062118 144.008674 
L 243.197346 144.008674 
L 243.197346 143.806653 
L 243.609296 143.806653 
L 243.676 143.402611 
L 243.829081 143.402611 
L 243.877096 142.998568 
L 243.944459 142.998568 
L 243.944459 142.796547 
L 244.079687 142.796547 
L 244.079687 142.594526 
L 244.558342 142.594526 
L 244.558342 142.392505 
L 244.686755 142.392505 
L 244.686755 142.190484 
L 245.033229 142.190484 
L 245.127431 141.786442 
L 245.199964 141.786442 
L 245.199964 141.584421 
L 245.549507 141.584421 
L 245.549507 141.3824 
L 245.990199 141.3824 
L 246.058132 140.978358 
L 246.25664 140.978358 
L 246.32007 140.574316 
L 246.619957 140.574316 
L 246.623018 140.170274 
L 246.834035 140.170274 
L 246.834035 139.968253 
L 247.071298 139.968253 
L 247.071298 139.766232 
L 247.923905 139.766232 
L 247.923905 139.564211 
L 248.138996 139.564211 
L 248.138996 139.36219 
L 248.252838 139.36219 
L 248.259068 138.958147 
L 248.394296 138.958147 
L 248.394296 138.756126 
L 248.613878 138.756126 
L 248.613878 138.554105 
L 248.87295 138.554105 
L 248.977196 138.150063 
L 249.088852 138.150063 
L 249.088852 137.948042 
L 249.269713 137.948042 
L 249.269713 137.746021 
L 249.477783 137.746021 
L 249.477783 137.544 
L 250.130342 137.544 
L 250.130342 137.341979 
L 250.376155 137.341979 
L 250.406919 136.937937 
L 250.610077 136.937937 
L 250.692768 136.533895 
L 251.141048 136.533895 
L 251.141048 136.331874 
L 251.79921 136.331874 
L 251.79921 136.129853 
L 251.993654 136.129853 
L 251.995058 135.725811 
L 252.142615 135.725811 
L 252.247489 135.119747 
L 252.328817 135.119747 
L 252.328817 134.917726 
L 252.464045 134.917726 
L 252.523208 134.513684 
L 252.764158 134.513684 
L 252.764158 134.311663 
L 252.893767 134.311663 
L 252.942699 133.7056 
L 253.007109 133.7056 
L 253.100096 133.301558 
L 253.370427 133.301558 
L 253.435259 132.897516 
L 253.545782 132.897516 
L 253.570487 132.493474 
L 253.756775 132.493474 
L 253.756775 132.291453 
L 254.049141 132.291453 
L 254.049141 132.089432 
L 254.954221 132.089432 
L 255.003308 131.68539 
L 255.149935 131.68539 
L 255.256339 131.281347 
L 256.114013 131.281347 
L 256.114013 131.079326 
L 257.157389 131.079326 
L 257.157389 130.877305 
L 257.351625 130.877305 
L 257.351625 130.675284 
L 259.64957 130.675284 
L 259.64957 130.473263 
L 260.075963 130.473263 
L 260.075963 130.271242 
L 260.507244 130.271242 
L 260.507244 130.069221 
L 261.052743 130.069221 
L 261.052743 129.8672 
L 262.89325 129.8672 
L 262.89325 129.665179 
L 264.004057 129.665179 
L 264.02424 129.261137 
L 265.97877 129.261137 
L 265.97877 129.059116 
L 266.381478 129.059116 
L 266.381478 128.857095 
L 267.763013 128.857095 
L 267.763013 128.655074 
L 270.460629 128.655074 
L 270.508433 128.251032 
L 270.774709 128.251032 
L 270.774709 128.049011 
L 271.795274 128.049011 
L 271.795274 127.84699 
L 273.455614 127.84699 
L 273.468361 127.442947 
L 276.465488 127.442947 
L 276.465488 127.240926 
L 277.225402 127.240926 
L 277.225402 127.038905 
L 278.394389 127.038905 
L 278.482313 126.634863 
L 278.845631 126.634863 
L 278.845631 126.432842 
L 280.478512 126.432842 
L 280.478512 126.230821 
L 281.822055 126.230821 
L 281.822055 126.0288 
L 282.632593 126.0288 
L 282.632593 125.826779 
L 285.124774 125.826779 
L 285.124774 125.624758 
L 285.373501 125.624758 
L 285.373501 125.422737 
L 285.78995 125.422737 
L 285.78995 125.220716 
L 285.982448 125.220716 
L 285.982448 125.018695 
L 286.660343 125.018695 
L 286.660343 124.816674 
L 286.812524 124.816674 
L 286.812524 124.614653 
L 286.954944 124.614653 
L 286.954944 124.412632 
L 287.977518 124.412632 
L 287.977518 124.210611 
L 288.261028 124.210611 
L 288.261028 124.00859 
L 289.283602 124.00859 
L 289.283602 123.806569 
L 290.886361 123.806569 
L 290.886361 123.604548 
L 292.233443 123.604548 
L 292.327067 123.200505 
L 292.386119 123.200505 
L 292.386119 122.998484 
L 293.347382 122.998484 
L 293.347382 122.796463 
L 293.67296 122.796463 
L 293.710699 122.392421 
L 295.34358 122.392421 
L 295.34358 122.1904 
L 296.102029 122.1904 
L 296.102029 121.988379 
L 296.249913 121.988379 
L 296.249913 121.786358 
L 296.474098 121.786358 
L 296.474098 121.584337 
L 296.966955 121.584337 
L 296.966955 121.382316 
L 297.496672 121.382316 
L 297.497661 120.978274 
L 297.897153 120.978274 
L 297.897153 120.776253 
L 298.253796 120.776253 
L 298.345433 120.372211 
L 298.919727 120.372211 
L 298.919727 120.17019 
L 299.19804 120.17019 
L 299.19804 119.968169 
L 299.368007 119.968169 
L 299.368007 119.766148 
L 299.533202 119.766148 
L 299.533202 119.564126 
L 299.66843 119.564126 
L 299.66843 119.362105 
L 299.989842 119.362105 
L 299.989842 119.160084 
L 300.147085 119.160084 
L 300.220614 118.756042 
L 300.359999 118.756042 
L 300.359999 118.554021 
L 300.555776 118.554021 
L 300.555776 118.352 
L 300.691004 118.352 
L 300.788983 117.745937 
L 300.847516 117.745937 
L 300.847516 117.543916 
L 301.169659 117.543916 
L 301.169659 117.341895 
L 302.229689 117.341895 
L 302.229689 117.139874 
L 302.356198 117.139874 
L 302.356198 116.937853 
L 304.510279 116.937853 
L 304.510279 116.735832 
L 304.940835 116.735832 
L 304.940835 116.533811 
L 305.304153 116.533811 
L 305.304153 116.33179 
L 305.553586 116.33179 
L 305.553586 116.129769 
L 306.937034 116.129769 
L 307.00246 115.725726 
L 307.860134 115.725726 
L 307.860134 115.523705 
L 309.091115 115.523705 
L 309.091115 115.321684 
L 310.492144 115.321684 
L 310.492144 115.119663 
L 311.086942 115.119663 
L 311.114981 114.715621 
L 311.583296 114.715621 
L 311.657138 114.311579 
L 312.44097 114.311579 
L 312.527648 113.907537 
L 312.963222 113.907537 
L 312.963222 113.705516 
L 317.904865 113.705516 
L 317.904865 113.503495 
L 318.127599 113.503495 
L 318.127599 113.301474 
L 321.176292 113.301474 
L 321.176292 113.099453 
L 322.599347 113.099453 
L 322.708435 112.695411 
L 323.047627 112.695411 
L 323.047627 112.49339 
L 323.900233 112.49339 
L 323.900233 112.291369 
L 324.235396 112.291369 
L 324.235396 112.089348 
L 324.370624 112.089348 
L 324.370624 111.887327 
L 324.849279 111.887327 
L 324.849279 111.685305 
L 327.807487 111.685305 
L 327.807487 111.483284 
L 329.36877 111.483284 
L 329.36877 111.281263 
L 330.533765 111.281263 
L 330.533765 111.079242 
L 331.839849 111.079242 
L 331.839849 110.877221 
L 338.105445 110.877221 
L 338.105445 110.6752 
L 338.820327 110.6752 
L 338.820327 110.473179 
L 339.985322 110.473179 
L 340.052919 110.069137 
L 341.291406 110.069137 
L 341.291406 109.867116 
L 341.475974 109.867116 
L 341.475974 109.665095 
L 341.924253 109.665095 
L 341.924253 109.463074 
L 342.375295 109.463074 
L 342.375295 109.261053 
L 342.77686 109.261053 
L 342.77686 109.059032 
L 343.112023 109.059032 
L 343.112023 108.857011 
L 343.247251 108.857011 
L 343.247251 108.65499 
L 343.725905 108.65499 
L 343.725905 108.452969 
L 349.504476 108.452969 
L 349.504476 108.250948 
L 350.92753 108.250948 
L 350.92753 108.048927 
L 351.37581 108.048927 
L 351.37581 107.846905 
L 352.228417 107.846905 
L 352.277917 107.442863 
L 352.56358 107.442863 
L 352.56358 107.240842 
L 352.698808 107.240842 
L 352.698808 107.038821 
L 353.177462 107.038821 
L 353.177462 106.8368 
L 362.575875 106.8368 
L 362.575875 106.634779 
L 453.192 106.634779 
L 453.192 106.634779 
" clip-path="url(#pe10de08946)" style="fill: none; stroke: #00bfbf; stroke-width: 3; stroke-linecap: square"/>
   </g>
   <g id="line2d_20">
    <path clip-path="url(#pe10de08946)" style="fill: none; stroke: #00bfbf; stroke-width: 3; stroke-linecap: square"/>
   </g>
   <g id="line2d_21">
    <path d="M 34.16 179.656472 
L 154.16172 179.656472 
L 154.16172 179.24746 
L 154.542447 179.24746 
L 154.542447 178.838448 
L 157.194525 178.838448 
L 157.194525 178.429436 
L 157.575252 178.429436 
L 157.575252 178.020423 
L 165.194432 178.020423 
L 165.194432 177.611411 
L 168.227237 177.611411 
L 168.227237 177.202399 
L 172.500993 177.202399 
L 172.500993 176.793387 
L 176.634487 176.793387 
L 176.634487 176.384374 
L 179.667292 176.384374 
L 179.667292 175.975362 
L 183.302003 175.975362 
L 183.302003 175.56635 
L 186.262618 175.56635 
L 186.262618 175.157338 
L 189.295423 175.157338 
L 189.295423 174.748326 
L 190.873729 174.748326 
L 190.873729 174.339313 
L 195.073793 174.339313 
L 195.073793 173.930301 
L 201.674739 173.930301 
L 201.674739 173.521289 
L 204.406468 173.521289 
L 204.406468 173.112277 
L 205.874803 173.112277 
L 205.874803 172.703264 
L 208.793946 172.703264 
L 208.793946 172.294252 
L 209.174673 172.294252 
L 209.174673 171.88524 
L 213.483339 171.88524 
L 213.483339 171.476228 
L 219.826657 171.476228 
L 219.826657 171.067215 
L 222.605706 171.067215 
L 222.605706 170.658203 
L 222.779204 170.658203 
L 222.779204 170.249191 
L 224.284349 170.249191 
L 224.284349 169.840179 
L 226.979268 169.840179 
L 226.979268 169.431167 
L 231.266712 169.431167 
L 231.266712 169.022154 
L 234.210551 169.022154 
L 234.210551 168.613142 
L 235.317344 168.613142 
L 235.317344 168.20413 
L 235.684671 168.20413 
L 235.684671 167.795118 
L 238.350149 167.795118 
L 238.350149 167.386105 
L 240.894844 167.386105 
L 240.978442 166.568081 
L 242.513018 166.568081 
L 242.513018 166.159069 
L 245.178506 166.159069 
L 245.178506 165.750056 
L 245.388814 165.750056 
L 245.388814 165.341044 
L 245.545823 165.341044 
L 245.545823 164.932032 
L 252.583288 164.932032 
L 252.583288 164.52302 
L 252.932933 164.52302 
L 252.932933 164.114008 
L 253.31366 164.114008 
L 253.31366 163.704995 
L 254.057407 163.704995 
L 254.057407 163.295983 
L 255.395398 163.295983 
L 255.395398 162.886971 
L 256.783351 162.886971 
L 256.783351 162.477959 
L 258.257471 162.477959 
L 258.257471 162.068946 
L 258.974152 162.068946 
L 258.974152 161.659934 
L 259.354879 161.659934 
L 259.354879 161.250922 
L 261.124907 161.250922 
L 261.124907 160.84191 
L 261.691128 160.84191 
L 261.691128 160.432897 
L 263.588052 160.432897 
L 263.588052 160.023885 
L 263.965645 160.023885 
L 263.965645 159.614873 
L 269.816428 159.614873 
L 269.816428 159.205861 
L 270.006864 159.205861 
L 270.006864 158.796849 
L 270.197155 158.796849 
L 270.197155 158.387836 
L 271.925917 158.387836 
L 271.925917 157.978824 
L 272.492138 157.978824 
L 272.492138 157.569812 
L 273.768134 157.569812 
L 273.768134 157.1608 
L 275.192897 157.1608 
L 275.192897 156.751787 
L 275.4057 156.751787 
L 275.4057 156.342775 
L 276.667017 156.342775 
L 276.667017 155.933763 
L 277.968198 155.933763 
L 277.968198 155.524751 
L 280.849139 155.524751 
L 280.849139 155.115738 
L 281.446919 155.115738 
L 281.446919 154.706726 
L 285.033831 154.706726 
L 285.033831 154.297714 
L 289.94957 154.297714 
L 289.94957 153.888702 
L 291.07505 153.888702 
L 291.07505 153.47969 
L 292.289194 153.47969 
L 292.289194 153.070677 
L 293.030382 153.070677 
L 293.030382 152.661665 
L 293.596603 152.661665 
L 293.596603 152.252653 
L 296.377744 152.252653 
L 296.377744 151.843641 
L 297.145244 151.843641 
L 297.145244 151.434628 
L 301.917326 151.434628 
L 301.917326 151.025616 
L 311.22962 151.025616 
L 311.22962 150.616604 
L 311.795841 150.616604 
L 311.795841 150.207592 
L 322.834465 150.207592 
L 322.834465 149.798579 
L 323.400686 149.798579 
L 323.400686 149.389567 
L 324.308585 149.389567 
L 324.308585 148.980555 
L 324.874806 148.980555 
L 324.874806 148.571543 
L 334.088557 148.571543 
L 334.088557 148.162531 
L 340.129776 148.162531 
L 340.129776 147.753518 
L 341.284231 147.753518 
L 341.284231 147.344506 
L 344.019312 147.344506 
L 344.019312 146.935494 
L 344.585533 146.935494 
L 344.585533 146.526482 
L 347.32545 146.526482 
L 347.32545 146.117469 
L 350.972052 146.117469 
L 350.972052 145.708457 
L 358.167726 145.708457 
L 358.167726 145.299445 
L 453.192 145.299445 
L 453.192 145.299445 
" clip-path="url(#pe10de08946)" style="fill: none; stroke: #bf00bf; stroke-width: 3; stroke-linecap: square"/>
   </g>
   <g id="line2d_22">
    <path clip-path="url(#pe10de08946)" style="fill: none; stroke: #bf00bf; stroke-width: 3; stroke-linecap: square"/>
   </g>
   <g id="line2d_23">
    <path d="M 34.16 170.692288 
L 165.257299 170.692288 
L 165.257299 169.750196 
L 165.68192 169.750196 
L 165.68192 168.808105 
L 167.825597 168.808105 
L 167.825597 167.866013 
L 186.776681 167.866013 
L 186.776681 166.923922 
L 196.664275 166.923922 
L 196.664275 165.98183 
L 210.294606 165.98183 
L 210.294606 165.039739 
L 210.719227 165.039739 
L 210.719227 164.097647 
L 212.862905 164.097647 
L 212.862905 163.155556 
L 227.79955 163.155556 
L 227.79955 162.213464 
L 231.813989 162.213464 
L 231.813989 161.271373 
L 235.010388 161.271373 
L 235.010388 160.329281 
L 241.701582 160.329281 
L 241.701582 159.38719 
L 259.664789 159.38719 
L 259.664789 158.445098 
L 260.08941 158.445098 
L 260.08941 157.503007 
L 262.233087 157.503007 
L 262.233087 156.560915 
L 269.460661 156.560915 
L 269.460661 155.618824 
L 269.885282 155.618824 
L 269.885282 154.676732 
L 272.028959 154.676732 
L 272.028959 153.734641 
L 280.047696 153.734641 
L 280.047696 152.792549 
L 281.184171 152.792549 
L 281.184171 151.850458 
L 290.980043 151.850458 
L 290.980043 150.908366 
L 291.071765 150.908366 
L 291.071765 149.966275 
L 300.867637 149.966275 
L 300.867637 149.024183 
L 329.417878 149.024183 
L 329.417878 148.082092 
L 339.21375 148.082092 
L 339.21375 147.14 
L 453.192 147.14 
" clip-path="url(#pe10de08946)" style="fill: none; stroke: #ff0000; stroke-width: 3; stroke-linecap: square"/>
   </g>
   <g id="line2d_24">
    <path clip-path="url(#pe10de08946)" style="fill: none; stroke: #ff0000; stroke-width: 3; stroke-linecap: square"/>
   </g>
   <g id="line2d_25">
    <path d="M 243.676 291.28 
L 243.676 3 
" clip-path="url(#pe10de08946)" style="fill: none; stroke: #000000; stroke-width: 1.5; stroke-linecap: square"/>
   </g>
   <g id="line2d_26">
    <path d="M 34.16 147.14 
L 453.192 147.14 
" clip-path="url(#pe10de08946)" style="fill: none; stroke-dasharray: 2,3.3; stroke-dashoffset: 0; stroke: #000000; stroke-width: 2"/>
   </g>
   <g id="patch_3">
    <path d="M 34.16 291.28 
L 34.16 3 
" style="fill: none; stroke: #000000; stroke-width: 0.8; stroke-linejoin: miter; stroke-linecap: square"/>
   </g>
   <g id="patch_4">
    <path d="M 453.192 291.28 
L 453.192 3 
" style="fill: none; stroke: #000000; stroke-width: 0.8; stroke-linejoin: miter; stroke-linecap: square"/>
   </g>
   <g id="patch_5">
    <path d="M 34.16 291.28 
L 453.192 291.28 
" style="fill: none; stroke: #000000; stroke-width: 0.8; stroke-linejoin: miter; stroke-linecap: square"/>
   </g>
   <g id="patch_6">
    <path d="M 34.16 3 
L 453.192 3 
" style="fill: none; stroke: #000000; stroke-width: 0.8; stroke-linejoin: miter; stroke-linecap: square"/>
   </g>
   <g id="text_6">
    <!-- f15-f19,5-D -->
    <g transform="translate(330.91761 285.5144)scale(0.2 -0.2)">
     <defs>
      <path id="DejaVuSans-35" d="M 691 4666 
L 3169 4666 
L 3169 4134 
L 1269 4134 
L 1269 2991 
Q 1406 3038 1543 3061 
Q 1681 3084 1819 3084 
Q 2600 3084 3056 2656 
Q 3513 2228 3513 1497 
Q 3513 744 3044 326 
Q 2575 -91 1722 -91 
Q 1428 -91 1123 -41 
Q 819 9 494 109 
L 494 744 
Q 775 591 1075 516 
Q 1375 441 1709 441 
Q 2250 441 2565 725 
Q 2881 1009 2881 1497 
Q 2881 1984 2565 2268 
Q 2250 2553 1709 2553 
Q 1456 2553 1204 2497 
Q 953 2441 691 2322 
L 691 4666 
z
" transform="scale(0.015625)"/>
      <path id="DejaVuSans-39" d="M 703 97 
L 703 672 
Q 941 559 1184 500 
Q 1428 441 1663 441 
Q 2288 441 2617 861 
Q 2947 1281 2994 2138 
Q 2813 1869 2534 1725 
Q 2256 1581 1919 1581 
Q 1219 1581 811 2004 
Q 403 2428 403 3163 
Q 403 3881 828 4315 
Q 1253 4750 1959 4750 
Q 2769 4750 3195 4129 
Q 3622 3509 3622 2328 
Q 3622 1225 3098 567 
Q 2575 -91 1691 -91 
Q 1453 -91 1209 -44 
Q 966 3 703 97 
z
M 1959 2075 
Q 2384 2075 2632 2365 
Q 2881 2656 2881 3163 
Q 2881 3666 2632 3958 
Q 2384 4250 1959 4250 
Q 1534 4250 1286 3958 
Q 1038 3666 1038 3163 
Q 1038 2656 1286 2365 
Q 1534 2075 1959 2075 
z
" transform="scale(0.015625)"/>
      <path id="DejaVuSans-2c" d="M 750 794 
L 1409 794 
L 1409 256 
L 897 -744 
L 494 -744 
L 750 256 
L 750 794 
z
" transform="scale(0.015625)"/>
      <path id="DejaVuSans-44" d="M 1259 4147 
L 1259 519 
L 2022 519 
Q 2988 519 3436 956 
Q 3884 1394 3884 2338 
Q 3884 3275 3436 3711 
Q 2988 4147 2022 4147 
L 1259 4147 
z
M 628 4666 
L 1925 4666 
Q 3281 4666 3915 4102 
Q 4550 3538 4550 2338 
Q 4550 1131 3912 565 
Q 3275 0 1925 0 
L 628 0 
L 628 4666 
z
" transform="scale(0.015625)"/>
     </defs>
     <use xlink:href="#DejaVuSans-66"/>
     <use xlink:href="#DejaVuSans-31" x="35.205078"/>
     <use xlink:href="#DejaVuSans-35" x="98.828125"/>
     <use xlink:href="#DejaVuSans-2d" x="162.451172"/>
     <use xlink:href="#DejaVuSans-66" x="198.535156"/>
     <use xlink:href="#DejaVuSans-31" x="233.740234"/>
     <use xlink:href="#DejaVuSans-39" x="297.363281"/>
     <use xlink:href="#DejaVuSans-2c" x="360.986328"/>
     <use xlink:href="#DejaVuSans-35" x="392.773438"/>
     <use xlink:href="#DejaVuSans-2d" x="456.396484"/>
     <use xlink:href="#DejaVuSans-44" x="492.480469"/>
    </g>
   </g>
   <g id="text_7">
    <!-- v2.6 -->
    <g style="fill: #808080" transform="translate(232.765062 286.317512)scale(0.1 -0.1)">
     <defs>
      <path id="DejaVuSans-2e" d="M 684 794 
L 1344 794 
L 1344 0 
L 684 0 
L 684 794 
z
" transform="scale(0.015625)"/>
      <path id="DejaVuSans-36" d="M 2113 2584 
Q 1688 2584 1439 2293 
Q 1191 2003 1191 1497 
Q 1191 994 1439 701 
Q 1688 409 2113 409 
Q 2538 409 2786 701 
Q 3034 994 3034 1497 
Q 3034 2003 2786 2293 
Q 2538 2584 2113 2584 
z
M 3366 4563 
L 3366 3988 
Q 3128 4100 2886 4159 
Q 2644 4219 2406 4219 
Q 1781 4219 1451 3797 
Q 1122 3375 1075 2522 
Q 1259 2794 1537 2939 
Q 1816 3084 2150 3084 
Q 2853 3084 3261 2657 
Q 3669 2231 3669 1497 
Q 3669 778 3244 343 
Q 2819 -91 2113 -91 
Q 1303 -91 875 529 
Q 447 1150 447 2328 
Q 447 3434 972 4092 
Q 1497 4750 2381 4750 
Q 2619 4750 2861 4703 
Q 3103 4656 3366 4563 
z
" transform="scale(0.015625)"/>
     </defs>
     <use xlink:href="#DejaVuSans-76"/>
     <use xlink:href="#DejaVuSans-32" x="59.179688"/>
     <use xlink:href="#DejaVuSans-2e" x="122.802734"/>
     <use xlink:href="#DejaVuSans-36" x="154.589844"/>
    </g>
   </g>
   <g id="legend_1">
    <g id="patch_7">
     <path d="M 48.16 136.425 
L 177.381875 136.425 
Q 181.381875 136.425 181.381875 132.425 
L 181.381875 17 
Q 181.381875 13 177.381875 13 
L 48.16 13 
Q 44.16 13 44.16 17 
L 44.16 132.425 
Q 44.16 136.425 48.16 136.425 
z
" style="fill: #ffffff; opacity: 0.2; stroke: #cccccc; stroke-linejoin: miter"/>
    </g>
    <g id="line2d_27">
     <path d="M 52.16 29.196875 
L 72.16 29.196875 
L 92.16 29.196875 
" style="fill: none; stroke: #000000; stroke-width: 3; stroke-linecap: square"/>
    </g>
    <g id="text_8">
     <!-- 1: 5/5 -->
     <g transform="translate(108.16 36.196875)scale(0.2 -0.2)">
      <defs>
       <path id="DejaVuSans-3a" d="M 750 794 
L 1409 794 
L 1409 0 
L 750 0 
L 750 794 
z
M 750 3309 
L 1409 3309 
L 1409 2516 
L 750 2516 
L 750 3309 
z
" transform="scale(0.015625)"/>
       <path id="DejaVuSans-2f" d="M 1625 4666 
L 2156 4666 
L 531 -594 
L 0 -594 
L 1625 4666 
z
" transform="scale(0.015625)"/>
      </defs>
      <use xlink:href="#DejaVuSans-31"/>
      <use xlink:href="#DejaVuSans-3a" x="63.623047"/>
      <use xlink:href="#DejaVuSans-20" x="97.314453"/>
      <use xlink:href="#DejaVuSans-35" x="129.101562"/>
      <use xlink:href="#DejaVuSans-2f" x="192.724609"/>
      <use xlink:href="#DejaVuSans-35" x="226.416016"/>
     </g>
    </g>
    <g id="line2d_28">
     <path d="M 52.16 58.553125 
L 72.16 58.553125 
L 92.16 58.553125 
" style="fill: none; stroke: #00bfbf; stroke-width: 3; stroke-linecap: square"/>
    </g>
    <g id="text_9">
     <!-- -1: 5/4 -->
     <g transform="translate(108.16 65.553125)scale(0.2 -0.2)">
      <defs>
       <path id="DejaVuSans-34" d="M 2419 4116 
L 825 1625 
L 2419 1625 
L 2419 4116 
z
M 2253 4666 
L 3047 4666 
L 3047 1625 
L 3713 1625 
L 3713 1100 
L 3047 1100 
L 3047 0 
L 2419 0 
L 2419 1100 
L 313 1100 
L 313 1709 
L 2253 4666 
z
" transform="scale(0.015625)"/>
      </defs>
      <use xlink:href="#DejaVuSans-2d"/>
      <use xlink:href="#DejaVuSans-31" x="36.083984"/>
      <use xlink:href="#DejaVuSans-3a" x="99.707031"/>
      <use xlink:href="#DejaVuSans-20" x="133.398438"/>
      <use xlink:href="#DejaVuSans-35" x="165.185547"/>
      <use xlink:href="#DejaVuSans-2f" x="228.808594"/>
      <use xlink:href="#DejaVuSans-34" x="262.5"/>
     </g>
    </g>
    <g id="line2d_29">
     <path d="M 52.16 87.909375 
L 72.16 87.909375 
L 92.16 87.909375 
" style="fill: none; stroke: #bf00bf; stroke-width: 3; stroke-linecap: square"/>
    </g>
    <g id="text_10">
     <!-- -4: 3/3 -->
     <g transform="translate(108.16 94.909375)scale(0.2 -0.2)">
      <defs>
       <path id="DejaVuSans-33" d="M 2597 2516 
Q 3050 2419 3304 2112 
Q 3559 1806 3559 1356 
Q 3559 666 3084 287 
Q 2609 -91 1734 -91 
Q 1441 -91 1130 -33 
Q 819 25 488 141 
L 488 750 
Q 750 597 1062 519 
Q 1375 441 1716 441 
Q 2309 441 2620 675 
Q 2931 909 2931 1356 
Q 2931 1769 2642 2001 
Q 2353 2234 1838 2234 
L 1294 2234 
L 1294 2753 
L 1863 2753 
Q 2328 2753 2575 2939 
Q 2822 3125 2822 3475 
Q 2822 3834 2567 4026 
Q 2313 4219 1838 4219 
Q 1578 4219 1281 4162 
Q 984 4106 628 3988 
L 628 4550 
Q 988 4650 1302 4700 
Q 1616 4750 1894 4750 
Q 2613 4750 3031 4423 
Q 3450 4097 3450 3541 
Q 3450 3153 3228 2886 
Q 3006 2619 2597 2516 
z
" transform="scale(0.015625)"/>
      </defs>
      <use xlink:href="#DejaVuSans-2d"/>
      <use xlink:href="#DejaVuSans-34" x="36.083984"/>
      <use xlink:href="#DejaVuSans-3a" x="99.707031"/>
      <use xlink:href="#DejaVuSans-20" x="133.398438"/>
      <use xlink:href="#DejaVuSans-33" x="165.185547"/>
      <use xlink:href="#DejaVuSans-2f" x="228.808594"/>
      <use xlink:href="#DejaVuSans-33" x="262.5"/>
     </g>
    </g>
    <g id="line2d_30">
     <path d="M 52.16 117.265625 
L 72.16 117.265625 
L 92.16 117.265625 
" style="fill: none; stroke: #ff0000; stroke-width: 3; stroke-linecap: square"/>
    </g>
    <g id="text_11">
     <!-- -8: 3/2 -->
     <g transform="translate(108.16 124.265625)scale(0.2 -0.2)">
      <defs>
       <path id="DejaVuSans-38" d="M 2034 2216 
Q 1584 2216 1326 1975 
Q 1069 1734 1069 1313 
Q 1069 891 1326 650 
Q 1584 409 2034 409 
Q 2484 409 2743 651 
Q 3003 894 3003 1313 
Q 3003 1734 2745 1975 
Q 2488 2216 2034 2216 
z
M 1403 2484 
Q 997 2584 770 2862 
Q 544 3141 544 3541 
Q 544 4100 942 4425 
Q 1341 4750 2034 4750 
Q 2731 4750 3128 4425 
Q 3525 4100 3525 3541 
Q 3525 3141 3298 2862 
Q 3072 2584 2669 2484 
Q 3125 2378 3379 2068 
Q 3634 1759 3634 1313 
Q 3634 634 3220 271 
Q 2806 -91 2034 -91 
Q 1263 -91 848 271 
Q 434 634 434 1313 
Q 434 1759 690 2068 
Q 947 2378 1403 2484 
z
M 1172 3481 
Q 1172 3119 1398 2916 
Q 1625 2713 2034 2713 
Q 2441 2713 2670 2916 
Q 2900 3119 2900 3481 
Q 2900 3844 2670 4047 
Q 2441 4250 2034 4250 
Q 1625 4250 1398 4047 
Q 1172 3844 1172 3481 
z
" transform="scale(0.015625)"/>
      </defs>
      <use xlink:href="#DejaVuSans-2d"/>
      <use xlink:href="#DejaVuSans-38" x="36.083984"/>
      <use xlink:href="#DejaVuSans-3a" x="99.707031"/>
      <use xlink:href="#DejaVuSans-20" x="133.398438"/>
      <use xlink:href="#DejaVuSans-33" x="165.185547"/>
      <use xlink:href="#DejaVuSans-2f" x="228.808594"/>
      <use xlink:href="#DejaVuSans-32" x="262.5"/>
     </g>
    </g>
   </g>
  </g>
 </g>
 <defs>
  <clipPath id="pe10de08946">
   <rect x="34.16" y="3" width="419.032" height="288.28"/>
  </clipPath>
 </defs>
</svg>
