<?xml version="1.0" encoding="utf-8" standalone="no"?>
<!DOCTYPE svg PUBLIC "-//W3C//DTD SVG 1.1//EN"
  "http://www.w3.org/Graphics/SVG/1.1/DTD/svg11.dtd">
<svg xmlns:xlink="http://www.w3.org/1999/xlink" width="460.8pt" height="345.6pt" viewBox="0 0 460.8 345.6" xmlns="http://www.w3.org/2000/svg" version="1.1">
 <metadata>
  <rdf:RDF xmlns:dc="http://purl.org/dc/elements/1.1/" xmlns:cc="http://creativecommons.org/ns#" xmlns:rdf="http://www.w3.org/1999/02/22-rdf-syntax-ns#">
   <cc:Work>
    <dc:type rdf:resource="http://purl.org/dc/dcmitype/StillImage"/>
    <dc:date>2022-03-16T23:40:20.882603</dc:date>
    <dc:format>image/svg+xml</dc:format>
    <dc:creator>
     <cc:Agent>
      <dc:title>Matplotlib v3.5.1, https://matplotlib.org/</dc:title>
     </cc:Agent>
    </dc:creator>
   </cc:Work>
  </rdf:RDF>
 </metadata>
 <defs>
  <style type="text/css">*{stroke-linejoin: round; stroke-linecap: butt}</style>
 </defs>
 <g id="figure_1">
  <g id="patch_1">
   <path d="M 0 345.6 
L 460.8 345.6 
L 460.8 0 
L 0 0 
z
" style="fill: #ffffff"/>
  </g>
  <g id="axes_1">
   <g id="patch_2">
    <path d="M 34.16 291.28 
L 453.192 291.28 
L 453.192 3 
L 34.16 3 
z
" style="fill: #ffffff"/>
   </g>
   <g id="matplotlib.axis_1">
    <g id="xtick_1">
     <g id="line2d_1">
      <path d="M 81.443383 291.28 
L 81.443383 3 
" clip-path="url(#pfb2528adc5)" style="fill: none; stroke: #b0b0b0; stroke-width: 0.8; stroke-linecap: square"/>
     </g>
     <g id="line2d_2">
      <defs>
       <path id="md06f348e52" d="M 0 0 
L 0 3.5 
" style="stroke: #000000; stroke-width: 0.8"/>
      </defs>
      <g>
       <use xlink:href="#md06f348e52" x="81.443383" y="291.28" style="stroke: #000000; stroke-width: 0.8"/>
      </g>
     </g>
     <g id="text_1">
      <!-- -1 -->
      <g transform="translate(71.47307 313.476875)scale(0.2 -0.2)">
       <defs>
        <path id="DejaVuSans-2d" d="M 313 2009 
L 1997 2009 
L 1997 1497 
L 313 1497 
L 313 2009 
z
" transform="scale(0.015625)"/>
        <path id="DejaVuSans-31" d="M 794 531 
L 1825 531 
L 1825 4091 
L 703 3866 
L 703 4441 
L 1819 4666 
L 2450 4666 
L 2450 531 
L 3481 531 
L 3481 0 
L 794 0 
L 794 531 
z
" transform="scale(0.015625)"/>
       </defs>
       <use xlink:href="#DejaVuSans-2d"/>
       <use xlink:href="#DejaVuSans-31" x="36.083984"/>
      </g>
     </g>
    </g>
    <g id="xtick_2">
     <g id="line2d_3">
      <path d="M 243.676 291.28 
L 243.676 3 
" clip-path="url(#pfb2528adc5)" style="fill: none; stroke: #b0b0b0; stroke-width: 0.8; stroke-linecap: square"/>
     </g>
     <g id="line2d_4">
      <g>
       <use xlink:href="#md06f348e52" x="243.676" y="291.28" style="stroke: #000000; stroke-width: 0.8"/>
      </g>
     </g>
     <g id="text_2">
      <!-- 0 -->
      <g transform="translate(237.3135 313.476875)scale(0.2 -0.2)">
       <defs>
        <path id="DejaVuSans-30" d="M 2034 4250 
Q 1547 4250 1301 3770 
Q 1056 3291 1056 2328 
Q 1056 1369 1301 889 
Q 1547 409 2034 409 
Q 2525 409 2770 889 
Q 3016 1369 3016 2328 
Q 3016 3291 2770 3770 
Q 2525 4250 2034 4250 
z
M 2034 4750 
Q 2819 4750 3233 4129 
Q 3647 3509 3647 2328 
Q 3647 1150 3233 529 
Q 2819 -91 2034 -91 
Q 1250 -91 836 529 
Q 422 1150 422 2328 
Q 422 3509 836 4129 
Q 1250 4750 2034 4750 
z
" transform="scale(0.015625)"/>
       </defs>
       <use xlink:href="#DejaVuSans-30"/>
      </g>
     </g>
    </g>
    <g id="xtick_3">
     <g id="line2d_5">
      <path d="M 405.908617 291.28 
L 405.908617 3 
" clip-path="url(#pfb2528adc5)" style="fill: none; stroke: #b0b0b0; stroke-width: 0.8; stroke-linecap: square"/>
     </g>
     <g id="line2d_6">
      <g>
       <use xlink:href="#md06f348e52" x="405.908617" y="291.28" style="stroke: #000000; stroke-width: 0.8"/>
      </g>
     </g>
     <g id="text_3">
      <!-- 1 -->
      <g transform="translate(399.546117 313.476875)scale(0.2 -0.2)">
       <use xlink:href="#DejaVuSans-31"/>
      </g>
     </g>
    </g>
    <g id="xtick_4">
     <g id="line2d_7">
      <defs>
       <path id="m7d0bf50093" d="M 0 0 
L 0 2 
" style="stroke: #000000; stroke-width: 0.6"/>
      </defs>
      <g>
       <use xlink:href="#m7d0bf50093" x="45.452279" y="291.28" style="stroke: #000000; stroke-width: 0.6"/>
      </g>
     </g>
    </g>
    <g id="xtick_5">
     <g id="line2d_8">
      <g>
       <use xlink:href="#m7d0bf50093" x="56.313232" y="291.28" style="stroke: #000000; stroke-width: 0.6"/>
      </g>
     </g>
    </g>
    <g id="xtick_6">
     <g id="line2d_9">
      <g>
       <use xlink:href="#m7d0bf50093" x="65.721418" y="291.28" style="stroke: #000000; stroke-width: 0.6"/>
      </g>
     </g>
    </g>
    <g id="xtick_7">
     <g id="line2d_10">
      <g>
       <use xlink:href="#m7d0bf50093" x="74.020025" y="291.28" style="stroke: #000000; stroke-width: 0.6"/>
      </g>
     </g>
    </g>
    <g id="xtick_8">
     <g id="line2d_11">
      <g>
       <use xlink:href="#m7d0bf50093" x="130.280267" y="291.28" style="stroke: #000000; stroke-width: 0.6"/>
      </g>
     </g>
    </g>
    <g id="xtick_9">
     <g id="line2d_12">
      <g>
       <use xlink:href="#m7d0bf50093" x="158.848013" y="291.28" style="stroke: #000000; stroke-width: 0.6"/>
      </g>
     </g>
    </g>
    <g id="xtick_10">
     <g id="line2d_13">
      <g>
       <use xlink:href="#m7d0bf50093" x="179.117151" y="291.28" style="stroke: #000000; stroke-width: 0.6"/>
      </g>
     </g>
    </g>
    <g id="xtick_11">
     <g id="line2d_14">
      <g>
       <use xlink:href="#m7d0bf50093" x="194.839116" y="291.28" style="stroke: #000000; stroke-width: 0.6"/>
      </g>
     </g>
    </g>
    <g id="xtick_12">
     <g id="line2d_15">
      <g>
       <use xlink:href="#m7d0bf50093" x="207.684897" y="291.28" style="stroke: #000000; stroke-width: 0.6"/>
      </g>
     </g>
    </g>
    <g id="xtick_13">
     <g id="line2d_16">
      <g>
       <use xlink:href="#m7d0bf50093" x="218.54585" y="291.28" style="stroke: #000000; stroke-width: 0.6"/>
      </g>
     </g>
    </g>
    <g id="xtick_14">
     <g id="line2d_17">
      <g>
       <use xlink:href="#m7d0bf50093" x="227.954035" y="291.28" style="stroke: #000000; stroke-width: 0.6"/>
      </g>
     </g>
    </g>
    <g id="xtick_15">
     <g id="line2d_18">
      <g>
       <use xlink:href="#m7d0bf50093" x="236.252643" y="291.28" style="stroke: #000000; stroke-width: 0.6"/>
      </g>
     </g>
    </g>
    <g id="xtick_16">
     <g id="line2d_19">
      <g>
       <use xlink:href="#m7d0bf50093" x="292.512884" y="291.28" style="stroke: #000000; stroke-width: 0.6"/>
      </g>
     </g>
    </g>
    <g id="xtick_17">
     <g id="line2d_20">
      <g>
       <use xlink:href="#m7d0bf50093" x="321.08063" y="291.28" style="stroke: #000000; stroke-width: 0.6"/>
      </g>
     </g>
    </g>
    <g id="xtick_18">
     <g id="line2d_21">
      <g>
       <use xlink:href="#m7d0bf50093" x="341.349768" y="291.28" style="stroke: #000000; stroke-width: 0.6"/>
      </g>
     </g>
    </g>
    <g id="xtick_19">
     <g id="line2d_22">
      <g>
       <use xlink:href="#m7d0bf50093" x="357.071733" y="291.28" style="stroke: #000000; stroke-width: 0.6"/>
      </g>
     </g>
    </g>
    <g id="xtick_20">
     <g id="line2d_23">
      <g>
       <use xlink:href="#m7d0bf50093" x="369.917514" y="291.28" style="stroke: #000000; stroke-width: 0.6"/>
      </g>
     </g>
    </g>
    <g id="xtick_21">
     <g id="line2d_24">
      <g>
       <use xlink:href="#m7d0bf50093" x="380.778467" y="291.28" style="stroke: #000000; stroke-width: 0.6"/>
      </g>
     </g>
    </g>
    <g id="xtick_22">
     <g id="line2d_25">
      <g>
       <use xlink:href="#m7d0bf50093" x="390.186652" y="291.28" style="stroke: #000000; stroke-width: 0.6"/>
      </g>
     </g>
    </g>
    <g id="xtick_23">
     <g id="line2d_26">
      <g>
       <use xlink:href="#m7d0bf50093" x="398.48526" y="291.28" style="stroke: #000000; stroke-width: 0.6"/>
      </g>
     </g>
    </g>
    <g id="text_4">
     <!-- log10 of FEvals ratio -->
     <g transform="translate(141.371312 336.833125)scale(0.2 -0.2)">
      <defs>
       <path id="DejaVuSans-6c" d="M 603 4863 
L 1178 4863 
L 1178 0 
L 603 0 
L 603 4863 
z
" transform="scale(0.015625)"/>
       <path id="DejaVuSans-6f" d="M 1959 3097 
Q 1497 3097 1228 2736 
Q 959 2375 959 1747 
Q 959 1119 1226 758 
Q 1494 397 1959 397 
Q 2419 397 2687 759 
Q 2956 1122 2956 1747 
Q 2956 2369 2687 2733 
Q 2419 3097 1959 3097 
z
M 1959 3584 
Q 2709 3584 3137 3096 
Q 3566 2609 3566 1747 
Q 3566 888 3137 398 
Q 2709 -91 1959 -91 
Q 1206 -91 779 398 
Q 353 888 353 1747 
Q 353 2609 779 3096 
Q 1206 3584 1959 3584 
z
" transform="scale(0.015625)"/>
       <path id="DejaVuSans-67" d="M 2906 1791 
Q 2906 2416 2648 2759 
Q 2391 3103 1925 3103 
Q 1463 3103 1205 2759 
Q 947 2416 947 1791 
Q 947 1169 1205 825 
Q 1463 481 1925 481 
Q 2391 481 2648 825 
Q 2906 1169 2906 1791 
z
M 3481 434 
Q 3481 -459 3084 -895 
Q 2688 -1331 1869 -1331 
Q 1566 -1331 1297 -1286 
Q 1028 -1241 775 -1147 
L 775 -588 
Q 1028 -725 1275 -790 
Q 1522 -856 1778 -856 
Q 2344 -856 2625 -561 
Q 2906 -266 2906 331 
L 2906 616 
Q 2728 306 2450 153 
Q 2172 0 1784 0 
Q 1141 0 747 490 
Q 353 981 353 1791 
Q 353 2603 747 3093 
Q 1141 3584 1784 3584 
Q 2172 3584 2450 3431 
Q 2728 3278 2906 2969 
L 2906 3500 
L 3481 3500 
L 3481 434 
z
" transform="scale(0.015625)"/>
       <path id="DejaVuSans-20" transform="scale(0.015625)"/>
       <path id="DejaVuSans-66" d="M 2375 4863 
L 2375 4384 
L 1825 4384 
Q 1516 4384 1395 4259 
Q 1275 4134 1275 3809 
L 1275 3500 
L 2222 3500 
L 2222 3053 
L 1275 3053 
L 1275 0 
L 697 0 
L 697 3053 
L 147 3053 
L 147 3500 
L 697 3500 
L 697 3744 
Q 697 4328 969 4595 
Q 1241 4863 1831 4863 
L 2375 4863 
z
" transform="scale(0.015625)"/>
       <path id="DejaVuSans-46" d="M 628 4666 
L 3309 4666 
L 3309 4134 
L 1259 4134 
L 1259 2759 
L 3109 2759 
L 3109 2228 
L 1259 2228 
L 1259 0 
L 628 0 
L 628 4666 
z
" transform="scale(0.015625)"/>
       <path id="DejaVuSans-45" d="M 628 4666 
L 3578 4666 
L 3578 4134 
L 1259 4134 
L 1259 2753 
L 3481 2753 
L 3481 2222 
L 1259 2222 
L 1259 531 
L 3634 531 
L 3634 0 
L 628 0 
L 628 4666 
z
" transform="scale(0.015625)"/>
       <path id="DejaVuSans-76" d="M 191 3500 
L 800 3500 
L 1894 563 
L 2988 3500 
L 3597 3500 
L 2284 0 
L 1503 0 
L 191 3500 
z
" transform="scale(0.015625)"/>
       <path id="DejaVuSans-61" d="M 2194 1759 
Q 1497 1759 1228 1600 
Q 959 1441 959 1056 
Q 959 750 1161 570 
Q 1363 391 1709 391 
Q 2188 391 2477 730 
Q 2766 1069 2766 1631 
L 2766 1759 
L 2194 1759 
z
M 3341 1997 
L 3341 0 
L 2766 0 
L 2766 531 
Q 2569 213 2275 61 
Q 1981 -91 1556 -91 
Q 1019 -91 701 211 
Q 384 513 384 1019 
Q 384 1609 779 1909 
Q 1175 2209 1959 2209 
L 2766 2209 
L 2766 2266 
Q 2766 2663 2505 2880 
Q 2244 3097 1772 3097 
Q 1472 3097 1187 3025 
Q 903 2953 641 2809 
L 641 3341 
Q 956 3463 1253 3523 
Q 1550 3584 1831 3584 
Q 2591 3584 2966 3190 
Q 3341 2797 3341 1997 
z
" transform="scale(0.015625)"/>
       <path id="DejaVuSans-73" d="M 2834 3397 
L 2834 2853 
Q 2591 2978 2328 3040 
Q 2066 3103 1784 3103 
Q 1356 3103 1142 2972 
Q 928 2841 928 2578 
Q 928 2378 1081 2264 
Q 1234 2150 1697 2047 
L 1894 2003 
Q 2506 1872 2764 1633 
Q 3022 1394 3022 966 
Q 3022 478 2636 193 
Q 2250 -91 1575 -91 
Q 1294 -91 989 -36 
Q 684 19 347 128 
L 347 722 
Q 666 556 975 473 
Q 1284 391 1588 391 
Q 1994 391 2212 530 
Q 2431 669 2431 922 
Q 2431 1156 2273 1281 
Q 2116 1406 1581 1522 
L 1381 1569 
Q 847 1681 609 1914 
Q 372 2147 372 2553 
Q 372 3047 722 3315 
Q 1072 3584 1716 3584 
Q 2034 3584 2315 3537 
Q 2597 3491 2834 3397 
z
" transform="scale(0.015625)"/>
       <path id="DejaVuSans-72" d="M 2631 2963 
Q 2534 3019 2420 3045 
Q 2306 3072 2169 3072 
Q 1681 3072 1420 2755 
Q 1159 2438 1159 1844 
L 1159 0 
L 581 0 
L 581 3500 
L 1159 3500 
L 1159 2956 
Q 1341 3275 1631 3429 
Q 1922 3584 2338 3584 
Q 2397 3584 2469 3576 
Q 2541 3569 2628 3553 
L 2631 2963 
z
" transform="scale(0.015625)"/>
       <path id="DejaVuSans-74" d="M 1172 4494 
L 1172 3500 
L 2356 3500 
L 2356 3053 
L 1172 3053 
L 1172 1153 
Q 1172 725 1289 603 
Q 1406 481 1766 481 
L 2356 481 
L 2356 0 
L 1766 0 
Q 1100 0 847 248 
Q 594 497 594 1153 
L 594 3053 
L 172 3053 
L 172 3500 
L 594 3500 
L 594 4494 
L 1172 4494 
z
" transform="scale(0.015625)"/>
       <path id="DejaVuSans-69" d="M 603 3500 
L 1178 3500 
L 1178 0 
L 603 0 
L 603 3500 
z
M 603 4863 
L 1178 4863 
L 1178 4134 
L 603 4134 
L 603 4863 
z
" transform="scale(0.015625)"/>
      </defs>
      <use xlink:href="#DejaVuSans-6c"/>
      <use xlink:href="#DejaVuSans-6f" x="27.783203"/>
      <use xlink:href="#DejaVuSans-67" x="88.964844"/>
      <use xlink:href="#DejaVuSans-31" x="152.441406"/>
      <use xlink:href="#DejaVuSans-30" x="216.064453"/>
      <use xlink:href="#DejaVuSans-20" x="279.6875"/>
      <use xlink:href="#DejaVuSans-6f" x="311.474609"/>
      <use xlink:href="#DejaVuSans-66" x="372.65625"/>
      <use xlink:href="#DejaVuSans-20" x="407.861328"/>
      <use xlink:href="#DejaVuSans-46" x="439.648438"/>
      <use xlink:href="#DejaVuSans-45" x="497.167969"/>
      <use xlink:href="#DejaVuSans-76" x="560.351562"/>
      <use xlink:href="#DejaVuSans-61" x="619.53125"/>
      <use xlink:href="#DejaVuSans-6c" x="680.810547"/>
      <use xlink:href="#DejaVuSans-73" x="708.59375"/>
      <use xlink:href="#DejaVuSans-20" x="760.693359"/>
      <use xlink:href="#DejaVuSans-72" x="792.480469"/>
      <use xlink:href="#DejaVuSans-61" x="833.59375"/>
      <use xlink:href="#DejaVuSans-74" x="894.873047"/>
      <use xlink:href="#DejaVuSans-69" x="934.082031"/>
      <use xlink:href="#DejaVuSans-6f" x="961.865234"/>
     </g>
    </g>
   </g>
   <g id="matplotlib.axis_2">
    <g id="ytick_1">
     <g id="line2d_27">
      <path d="M 34.16 288.453725 
L 453.192 288.453725 
" clip-path="url(#pfb2528adc5)" style="fill: none; stroke: #b0b0b0; stroke-width: 0.8; stroke-linecap: square"/>
     </g>
     <g id="line2d_28">
      <defs>
       <path id="mc1deddd4ea" d="M 0 0 
L -3.5 0 
" style="stroke: #000000; stroke-width: 0.8"/>
      </defs>
      <g>
       <use xlink:href="#mc1deddd4ea" x="34.16" y="288.453725" style="stroke: #000000; stroke-width: 0.8"/>
      </g>
     </g>
    </g>
    <g id="ytick_2">
     <g id="line2d_29">
      <path d="M 34.16 217.796863 
L 453.192 217.796863 
" clip-path="url(#pfb2528adc5)" style="fill: none; stroke: #b0b0b0; stroke-width: 0.8; stroke-linecap: square"/>
     </g>
     <g id="line2d_30">
      <g>
       <use xlink:href="#mc1deddd4ea" x="34.16" y="217.796863" style="stroke: #000000; stroke-width: 0.8"/>
      </g>
     </g>
    </g>
    <g id="ytick_3">
     <g id="line2d_31">
      <path d="M 34.16 147.14 
L 453.192 147.14 
" clip-path="url(#pfb2528adc5)" style="fill: none; stroke: #b0b0b0; stroke-width: 0.8; stroke-linecap: square"/>
     </g>
     <g id="line2d_32">
      <g>
       <use xlink:href="#mc1deddd4ea" x="34.16" y="147.14" style="stroke: #000000; stroke-width: 0.8"/>
      </g>
     </g>
    </g>
    <g id="ytick_4">
     <g id="line2d_33">
      <path d="M 34.16 76.483137 
L 453.192 76.483137 
" clip-path="url(#pfb2528adc5)" style="fill: none; stroke: #b0b0b0; stroke-width: 0.8; stroke-linecap: square"/>
     </g>
     <g id="line2d_34">
      <g>
       <use xlink:href="#mc1deddd4ea" x="34.16" y="76.483137" style="stroke: #000000; stroke-width: 0.8"/>
      </g>
     </g>
    </g>
    <g id="ytick_5">
     <g id="line2d_35">
      <path d="M 34.16 5.826275 
L 453.192 5.826275 
" clip-path="url(#pfb2528adc5)" style="fill: none; stroke: #b0b0b0; stroke-width: 0.8; stroke-linecap: square"/>
     </g>
     <g id="line2d_36">
      <g>
       <use xlink:href="#mc1deddd4ea" x="34.16" y="5.826275" style="stroke: #000000; stroke-width: 0.8"/>
      </g>
     </g>
    </g>
    <g id="text_5">
     <!-- proportion of trials -->
     <g transform="translate(19.000625 240.14625)rotate(-90)scale(0.2 -0.2)">
      <defs>
       <path id="DejaVuSans-70" d="M 1159 525 
L 1159 -1331 
L 581 -1331 
L 581 3500 
L 1159 3500 
L 1159 2969 
Q 1341 3281 1617 3432 
Q 1894 3584 2278 3584 
Q 2916 3584 3314 3078 
Q 3713 2572 3713 1747 
Q 3713 922 3314 415 
Q 2916 -91 2278 -91 
Q 1894 -91 1617 61 
Q 1341 213 1159 525 
z
M 3116 1747 
Q 3116 2381 2855 2742 
Q 2594 3103 2138 3103 
Q 1681 3103 1420 2742 
Q 1159 2381 1159 1747 
Q 1159 1113 1420 752 
Q 1681 391 2138 391 
Q 2594 391 2855 752 
Q 3116 1113 3116 1747 
z
" transform="scale(0.015625)"/>
       <path id="DejaVuSans-6e" d="M 3513 2113 
L 3513 0 
L 2938 0 
L 2938 2094 
Q 2938 2591 2744 2837 
Q 2550 3084 2163 3084 
Q 1697 3084 1428 2787 
Q 1159 2491 1159 1978 
L 1159 0 
L 581 0 
L 581 3500 
L 1159 3500 
L 1159 2956 
Q 1366 3272 1645 3428 
Q 1925 3584 2291 3584 
Q 2894 3584 3203 3211 
Q 3513 2838 3513 2113 
z
" transform="scale(0.015625)"/>
      </defs>
      <use xlink:href="#DejaVuSans-70"/>
      <use xlink:href="#DejaVuSans-72" x="63.476562"/>
      <use xlink:href="#DejaVuSans-6f" x="102.339844"/>
      <use xlink:href="#DejaVuSans-70" x="163.521484"/>
      <use xlink:href="#DejaVuSans-6f" x="226.998047"/>
      <use xlink:href="#DejaVuSans-72" x="288.179688"/>
      <use xlink:href="#DejaVuSans-74" x="329.292969"/>
      <use xlink:href="#DejaVuSans-69" x="368.501953"/>
      <use xlink:href="#DejaVuSans-6f" x="396.285156"/>
      <use xlink:href="#DejaVuSans-6e" x="457.466797"/>
      <use xlink:href="#DejaVuSans-20" x="520.845703"/>
      <use xlink:href="#DejaVuSans-6f" x="552.632812"/>
      <use xlink:href="#DejaVuSans-66" x="613.814453"/>
      <use xlink:href="#DejaVuSans-20" x="649.019531"/>
      <use xlink:href="#DejaVuSans-74" x="680.806641"/>
      <use xlink:href="#DejaVuSans-72" x="720.015625"/>
      <use xlink:href="#DejaVuSans-69" x="761.128906"/>
      <use xlink:href="#DejaVuSans-61" x="788.912109"/>
      <use xlink:href="#DejaVuSans-6c" x="850.191406"/>
      <use xlink:href="#DejaVuSans-73" x="877.974609"/>
     </g>
    </g>
   </g>
   <g id="line2d_37">
    <path d="M 34.16 190.524414 
L 112.094595 190.524414 
L 112.094595 190.367224 
L 125.626881 190.367224 
L 125.626881 190.210034 
L 127.132983 190.210034 
L 127.132983 190.052844 
L 127.426757 190.052844 
L 127.426757 189.895654 
L 134.840342 189.895654 
L 134.840342 189.738465 
L 140.665269 189.738465 
L 140.665269 189.581275 
L 140.959043 189.581275 
L 140.959043 189.424085 
L 148.255562 189.424085 
L 148.255562 189.266895 
L 148.372628 189.266895 
L 148.372628 189.109705 
L 148.690481 189.109705 
L 148.690481 188.952515 
L 151.80041 188.952515 
L 151.80041 188.795325 
L 159.396414 188.795325 
L 159.396414 188.638135 
L 161.787847 188.638135 
L 161.787847 188.480945 
L 162.222767 188.480945 
L 162.222767 188.323755 
L 164.369075 188.323755 
L 164.369075 188.166565 
L 165.332696 188.166565 
L 165.332696 188.009376 
L 168.618086 188.009376 
L 168.618086 187.852186 
L 172.928699 187.852186 
L 172.928699 187.694996 
L 176.286603 187.694996 
L 176.286603 187.537806 
L 176.863285 187.537806 
L 176.863285 187.380616 
L 177.901361 187.380616 
L 177.901361 187.223426 
L 182.807873 187.223426 
L 182.807873 187.066236 
L 183.656474 187.066236 
L 183.656474 186.909046 
L 183.950248 186.909046 
L 183.950248 186.751856 
L 184.386685 186.751856 
L 184.386685 186.594666 
L 185.144078 186.594666 
L 185.144078 186.437476 
L 185.681924 186.437476 
L 185.681924 186.280287 
L 188.068677 186.280287 
L 188.068677 186.123097 
L 191.363833 186.123097 
L 191.363833 185.965907 
L 194.954185 185.965907 
L 194.954185 185.808717 
L 196.279429 185.808717 
L 196.279429 185.651527 
L 197.123064 185.651527 
L 197.123064 185.494337 
L 197.846261 185.494337 
L 197.846261 185.337147 
L 198.140035 185.337147 
L 198.140035 185.179957 
L 199.804504 185.179957 
L 199.804504 185.022767 
L 200.720311 185.022767 
L 200.720311 184.865577 
L 201.014086 184.865577 
L 201.014086 184.708388 
L 202.456922 184.708388 
L 202.456922 184.551198 
L 203.107065 184.551198 
L 203.107065 184.394008 
L 203.400839 184.394008 
L 203.400839 184.236818 
L 204.455856 184.236818 
L 204.455856 184.079628 
L 204.779053 184.079628 
L 204.779053 183.922438 
L 205.213972 183.922438 
L 205.213972 183.765248 
L 205.553619 183.765248 
L 205.553619 183.608058 
L 205.682623 183.608058 
L 205.682623 183.450868 
L 205.988558 183.450868 
L 205.988558 183.293678 
L 208.323901 183.293678 
L 208.42767 182.979299 
L 208.638719 182.979299 
L 208.638719 182.822109 
L 209.503041 182.822109 
L 209.503041 182.664919 
L 209.808976 182.664919 
L 209.808976 182.507729 
L 210.814424 182.507729 
L 210.814424 182.350539 
L 211.217402 182.350539 
L 211.217402 182.193349 
L 211.523337 182.193349 
L 211.523337 182.036159 
L 212.002126 182.036159 
L 212.002126 181.878969 
L 212.161452 181.878969 
L 212.161452 181.721779 
L 212.274032 181.721779 
L 212.274032 181.564589 
L 212.455226 181.564589 
L 212.455226 181.4074 
L 212.579967 181.4074 
L 212.579967 181.25021 
L 213.828759 181.25021 
L 213.837765 180.93583 
L 214.362109 180.93583 
L 214.414446 180.62145 
L 214.621384 180.62145 
L 214.690732 180.30707 
L 214.93879 180.30707 
L 214.93879 180.14988 
L 215.14316 180.14988 
L 215.253894 179.678311 
L 215.585094 179.678311 
L 215.585094 179.521121 
L 215.751173 179.521121 
L 215.830575 179.049551 
L 215.919905 179.049551 
L 215.919905 178.892361 
L 216.251262 178.892361 
L 216.251262 178.735171 
L 216.525309 178.735171 
L 216.525309 178.577981 
L 216.703396 178.577981 
L 216.703396 178.420791 
L 216.815069 178.420791 
L 216.912832 178.106411 
L 217.10199 178.106411 
L 217.107439 177.792032 
L 217.480057 177.792032 
L 217.536905 177.477652 
L 217.649178 177.477652 
L 217.68412 177.163272 
L 218.056738 177.163272 
L 218.056738 177.006082 
L 218.441803 177.006082 
L 218.51115 176.691702 
L 218.593536 176.691702 
L 218.593536 176.534512 
L 218.944801 176.534512 
L 218.968839 176.062943 
L 219.211691 176.062943 
L 219.211691 175.905753 
L 219.363538 175.905753 
L 219.457842 175.434183 
L 219.494244 175.434183 
L 219.569516 175.119803 
L 219.788018 175.119803 
L 219.868811 174.805423 
L 220.156163 174.805423 
L 220.225511 174.491044 
L 220.420169 174.491044 
L 220.495233 174.176664 
L 220.677939 174.176664 
L 220.677939 174.019474 
L 220.892566 174.019474 
L 220.892566 173.862284 
L 221.212794 173.862284 
L 221.282141 173.390714 
L 221.36906 173.390714 
L 221.36906 173.233524 
L 221.734569 173.233524 
L 221.84289 172.919145 
L 221.937847 172.919145 
L 221.966138 172.604765 
L 222.257862 172.604765 
L 222.277809 172.290385 
L 222.448804 172.290385 
L 222.513688 171.818815 
L 222.560478 171.818815 
L 222.563797 171.504435 
L 222.695239 171.504435 
L 222.76522 171.190056 
L 223.219583 171.190056 
L 223.274573 170.718486 
L 223.353976 170.718486 
L 223.353976 170.561296 
L 223.731735 170.561296 
L 223.765682 170.246916 
L 224.031966 170.246916 
L 224.111368 169.775346 
L 224.229643 169.775346 
L 224.229643 169.618157 
L 224.430132 169.618157 
L 224.47958 169.303777 
L 224.617488 169.303777 
L 224.664563 168.832207 
L 224.923423 168.832207 
L 224.957099 168.360637 
L 225.049224 168.360637 
L 225.049224 168.203447 
L 225.207521 168.203447 
L 225.284178 167.731878 
L 225.382783 167.731878 
L 225.387739 167.417498 
L 225.536211 167.417498 
L 225.580138 167.103118 
L 225.964913 167.103118 
L 225.964913 166.945928 
L 226.239073 166.945928 
L 226.337531 166.474358 
L 226.545008 166.474358 
L 226.551174 166.159979 
L 226.729328 166.159979 
L 226.729328 166.002789 
L 226.857109 166.002789 
L 226.857109 165.845599 
L 227.184578 165.845599 
L 227.201603 165.531219 
L 227.31064 165.531219 
L 227.31064 165.374029 
L 227.774492 165.374029 
L 227.774492 165.216839 
L 228.060475 165.216839 
L 228.132809 164.902459 
L 228.244483 164.902459 
L 228.244483 164.745269 
L 228.508965 164.745269 
L 228.577366 164.43089 
L 228.8149 164.43089 
L 228.847995 164.11651 
L 228.959669 164.11651 
L 229.042833 163.64494 
L 229.112129 163.64494 
L 229.154506 163.33056 
L 229.418064 163.33056 
L 229.483775 163.016181 
L 230.051239 163.016181 
L 230.109691 162.544611 
L 230.17554 162.544611 
L 230.17554 162.387421 
L 230.325874 162.387421 
L 230.403999 162.073041 
L 230.641105 162.073041 
L 230.641105 161.915851 
L 230.814922 161.915851 
L 230.814922 161.758661 
L 230.936992 161.758661 
L 230.969945 161.444281 
L 231.196624 161.444281 
L 231.28965 160.658332 
L 231.35629 160.658332 
L 231.384102 160.343952 
L 231.495776 160.343952 
L 231.583424 159.872382 
L 231.718399 159.872382 
L 231.718399 159.715192 
L 231.86463 159.715192 
L 231.95122 159.086433 
L 232.055585 159.086433 
L 232.055585 158.929243 
L 232.244994 158.929243 
L 232.244994 158.772053 
L 232.474736 158.772053 
L 232.558577 158.300483 
L 232.614466 158.300483 
L 232.670497 157.828914 
L 232.739844 157.828914 
L 232.83467 157.357344 
L 232.870678 157.357344 
L 232.870678 157.200154 
L 232.983742 157.200154 
L 233.082976 156.571394 
L 233.192272 156.571394 
L 233.284031 156.257015 
L 233.512644 156.257015 
L 233.55625 155.785445 
L 233.625597 155.785445 
L 233.71895 155.313875 
L 233.805884 155.313875 
L 233.892398 154.527926 
L 233.921476 154.527926 
L 233.944948 154.213546 
L 234.078025 154.213546 
L 234.173435 153.899166 
L 234.285109 153.899166 
L 234.38521 153.427596 
L 234.397377 153.427596 
L 234.397377 153.270406 
L 234.697311 153.270406 
L 234.790364 152.956027 
L 234.828469 152.956027 
L 234.828469 152.798837 
L 235.082352 152.798837 
L 235.19289 152.012887 
L 235.24672 152.012887 
L 235.247182 151.698507 
L 235.370495 151.698507 
L 235.431633 151.384127 
L 235.489936 151.384127 
L 235.559283 150.912558 
L 235.69961 150.912558 
L 235.77502 150.440988 
L 235.859545 150.440988 
L 235.859545 150.283798 
L 236.011711 150.283798 
L 236.041112 149.969418 
L 236.147638 149.969418 
L 236.147638 149.812228 
L 236.279773 149.812228 
L 236.279773 149.655038 
L 236.504724 149.655038 
L 236.585708 149.026279 
L 236.655102 149.026279 
L 236.681731 148.711899 
L 236.769569 148.711899 
L 236.82888 148.397519 
L 236.993913 148.397519 
L 237.100264 148.083139 
L 237.258266 148.083139 
L 237.355666 147.76876 
L 237.372137 147.76876 
L 237.472882 147.14 
L 237.517074 147.14 
L 237.561355 146.82562 
L 237.879667 146.82562 
L 237.969502 146.039671 
L 238.050891 146.039671 
L 238.158741 145.410911 
L 238.199018 145.410911 
L 238.199018 145.253721 
L 238.564616 145.253721 
L 238.572667 144.939341 
L 238.692392 144.939341 
L 238.771795 144.467772 
L 238.873927 144.467772 
L 238.873927 144.310582 
L 238.997009 144.310582 
L 239.086498 143.681822 
L 239.110839 143.681822 
L 239.177234 143.210252 
L 239.455239 143.210252 
L 239.501252 142.738683 
L 239.650077 142.738683 
L 239.658579 142.424303 
L 239.813353 142.424303 
L 239.813353 142.267113 
L 240.008083 142.267113 
L 240.043209 141.952733 
L 240.143128 141.952733 
L 240.233865 141.481163 
L 240.322565 141.481163 
L 240.399913 141.009594 
L 240.529254 141.009594 
L 240.625339 140.066454 
L 240.679413 140.066454 
L 240.679413 139.909264 
L 240.954928 139.909264 
L 241.051742 139.437695 
L 241.34481 139.437695 
L 241.424212 138.966125 
L 241.771143 138.966125 
L 241.771143 138.808935 
L 241.900172 138.808935 
L 241.991346 138.494555 
L 242.031755 138.494555 
L 242.054681 138.180175 
L 242.374308 138.180175 
L 242.374308 138.022985 
L 242.599276 138.022985 
L 242.695627 137.708606 
L 242.741182 137.708606 
L 242.741182 137.551416 
L 242.887113 137.551416 
L 242.887113 137.394226 
L 243.076035 137.394226 
L 243.076035 137.237036 
L 243.277757 137.237036 
L 243.339398 136.765466 
L 243.645333 136.765466 
L 243.650375 136.451086 
L 243.881314 136.451086 
L 243.881314 136.293896 
L 244.161671 136.293896 
L 244.199368 135.979517 
L 244.359577 135.979517 
L 244.425909 135.507947 
L 244.601473 135.507947 
L 244.673939 135.193567 
L 244.743286 135.193567 
L 244.786202 134.564808 
L 245.083245 134.564808 
L 245.083245 134.407618 
L 245.195714 134.407618 
L 245.287882 133.778858 
L 245.364262 133.778858 
L 245.364262 133.621668 
L 245.530515 133.621668 
L 245.530515 133.464478 
L 245.658036 133.464478 
L 245.74031 132.992908 
L 245.773578 132.992908 
L 245.773578 132.835719 
L 246.18988 132.835719 
L 246.274662 132.521339 
L 246.489707 132.521339 
L 246.585746 132.206959 
L 246.664698 132.206959 
L 246.714224 131.892579 
L 247.093972 131.892579 
L 247.093972 131.735389 
L 247.387746 131.735389 
L 247.422091 131.421009 
L 247.526607 131.421009 
L 247.606009 130.79225 
L 247.777164 130.79225 
L 247.777164 130.63506 
L 248.029924 130.63506 
L 248.029924 130.47787 
L 248.294476 130.47787 
L 248.294476 130.32068 
L 248.551032 130.32068 
L 248.551032 130.16349 
L 248.844806 130.16349 
L 248.877424 129.84911 
L 248.997355 129.84911 
L 249.019057 129.534731 
L 249.397544 129.534731 
L 249.459554 129.220351 
L 249.541951 129.220351 
L 249.541951 129.063161 
L 249.658902 129.063161 
L 249.658902 128.905971 
L 249.832172 128.905971 
L 249.904811 128.591591 
L 250.126958 128.591591 
L 250.224162 128.120021 
L 250.593672 128.120021 
L 250.593672 127.962831 
L 251.174984 127.962831 
L 251.174984 127.805642 
L 251.485535 127.805642 
L 251.526396 127.491262 
L 251.600831 127.491262 
L 251.691567 127.019692 
L 251.757674 127.019692 
L 251.838497 126.705312 
L 251.92482 126.705312 
L 251.958668 126.390932 
L 252.27816 126.390932 
L 252.347507 126.076553 
L 252.412228 126.076553 
L 252.486584 125.762173 
L 252.577321 125.762173 
L 252.673853 125.447793 
L 252.799935 125.447793 
L 252.896672 124.661843 
L 253.071621 124.661843 
L 253.136256 124.190274 
L 253.296978 124.190274 
L 253.296978 124.033084 
L 253.461169 124.033084 
L 253.508718 123.718704 
L 253.6606 123.718704 
L 253.6606 123.561514 
L 253.796287 123.561514 
L 253.796287 123.404324 
L 254.054371 123.404324 
L 254.108169 123.089944 
L 254.176355 123.089944 
L 254.198906 122.775565 
L 254.371192 122.775565 
L 254.472983 122.146805 
L 254.511007 122.146805 
L 254.552385 121.832425 
L 254.801331 121.832425 
L 254.801331 121.675235 
L 255.209961 121.675235 
L 255.209961 121.518045 
L 255.641934 121.518045 
L 255.641934 121.360855 
L 255.8238 121.360855 
L 255.8238 121.203666 
L 255.957077 121.203666 
L 255.957077 121.046476 
L 256.258391 121.046476 
L 256.258391 120.889286 
L 256.378061 120.889286 
L 256.468797 120.417716 
L 256.601577 120.417716 
L 256.712462 119.946146 
L 256.730336 119.946146 
L 256.778548 119.631766 
L 256.981226 119.631766 
L 257.071962 119.317387 
L 257.115807 119.317387 
L 257.115807 119.160197 
L 257.232198 119.160197 
L 257.232198 119.003007 
L 257.530168 119.003007 
L 257.530168 118.845817 
L 257.999294 118.845817 
L 258.00156 118.531437 
L 258.320911 118.531437 
L 258.320911 118.374247 
L 258.557442 118.374247 
L 258.557442 118.217057 
L 259.004041 118.217057 
L 259.004041 118.059867 
L 259.501795 118.059867 
L 259.501795 117.902677 
L 259.623145 117.902677 
L 259.623145 117.745488 
L 259.889794 117.745488 
L 259.935246 117.431108 
L 260.209145 117.431108 
L 260.209145 117.273918 
L 261.022499 117.273918 
L 261.022499 117.116728 
L 261.445144 117.116728 
L 261.511379 116.802348 
L 261.567095 116.802348 
L 261.567095 116.645158 
L 261.82348 116.645158 
L 261.893037 116.173589 
L 262.082517 116.173589 
L 262.082517 116.016399 
L 262.496201 116.016399 
L 262.496201 115.859209 
L 263.55308 115.859209 
L 263.604273 115.544829 
L 263.695009 115.544829 
L 263.781271 115.230449 
L 263.864478 115.230449 
L 263.864478 115.073259 
L 264.148869 115.073259 
L 264.239605 114.601689 
L 264.384435 114.601689 
L 264.393598 114.28731 
L 264.734935 114.28731 
L 264.734935 114.13012 
L 264.989993 114.13012 
L 264.989993 113.97293 
L 265.189722 113.97293 
L 265.189722 113.81574 
L 265.8961 113.81574 
L 265.8961 113.65855 
L 266.48684 113.65855 
L 266.48684 113.50136 
L 266.92176 113.50136 
L 266.92176 113.34417 
L 268.216551 113.34417 
L 268.216551 113.18698 
L 268.525742 113.18698 
L 268.626721 112.8726 
L 268.65147 112.8726 
L 268.714797 112.558221 
L 269.119248 112.558221 
L 269.187312 112.243841 
L 269.663844 112.243841 
L 269.673611 111.929461 
L 269.980596 111.929461 
L 270.031689 111.615081 
L 270.10853 111.615081 
L 270.10853 111.457891 
L 270.916732 111.457891 
L 271.007483 111.143512 
L 271.208494 111.143512 
L 271.299231 110.829132 
L 271.367215 110.829132 
L 271.367215 110.671942 
L 271.552078 110.671942 
L 271.552078 110.514752 
L 271.7614 110.514752 
L 271.7614 110.357562 
L 272.585996 110.357562 
L 272.585996 110.200372 
L 273.218459 110.200372 
L 273.218459 110.043182 
L 276.72347 110.043182 
L 276.72347 109.885992 
L 277.549012 109.885992 
L 277.627692 109.414423 
L 277.863107 109.414423 
L 277.863107 109.257233 
L 278.611704 109.257233 
L 278.611704 109.100043 
L 279.357403 109.100043 
L 279.357403 108.942853 
L 280.814463 108.942853 
L 280.814463 108.785663 
L 282.600354 108.785663 
L 282.600354 108.628473 
L 283.512882 108.628473 
L 283.512882 108.471283 
L 284.330064 108.471283 
L 284.330064 108.314093 
L 284.495388 108.314093 
L 284.495388 108.156903 
L 285.787124 108.156903 
L 285.787124 107.999713 
L 294.63654 107.999713 
L 294.63654 107.842524 
L 308.826326 107.842524 
L 308.826326 107.685334 
L 311.700377 107.685334 
L 311.700377 107.528144 
L 314.08713 107.528144 
L 314.08713 107.370954 
L 314.973976 107.370954 
L 314.973976 107.213764 
L 315.531218 107.213764 
L 315.531218 107.056574 
L 323.141518 107.056574 
L 323.141518 106.899384 
L 326.504087 106.899384 
L 326.504087 106.742194 
L 328.506262 106.742194 
L 328.506262 106.585004 
L 329.063503 106.585004 
L 329.063503 106.427814 
L 330.474309 106.427814 
L 330.474309 106.270624 
L 340.693874 106.270624 
L 340.693874 106.113435 
L 342.269715 106.113435 
L 342.269715 105.956245 
L 342.931286 105.956245 
L 342.931286 105.799055 
L 343.567924 105.799055 
L 343.567924 105.641865 
L 345.954678 105.641865 
L 345.954678 105.484675 
L 351.302631 105.484675 
L 351.302631 105.327485 
L 355.009065 105.327485 
L 355.009065 105.170295 
L 356.344327 105.170295 
L 356.344327 105.013105 
L 358.074038 105.013105 
L 358.074038 104.855915 
L 359.531098 104.855915 
L 359.531098 104.698725 
L 362.341857 104.698725 
L 362.341857 104.541535 
L 371.497467 104.541535 
L 371.497467 104.384346 
L 372.054709 104.384346 
L 372.054709 104.227156 
L 374.137263 104.227156 
L 374.137263 104.069966 
L 374.798833 104.069966 
L 374.798833 103.912776 
L 383.170178 103.912776 
L 383.170178 103.755586 
L 385.687253 103.755586 
L 385.687253 103.598396 
L 386.244495 103.598396 
L 386.244495 103.441206 
L 388.211875 103.441206 
L 388.211875 103.284016 
L 388.561304 103.284016 
L 388.561304 103.126826 
L 389.118546 103.126826 
L 389.118546 102.969636 
L 389.941585 102.969636 
L 389.941585 102.812447 
L 390.948058 102.812447 
L 390.948058 102.655257 
L 391.398645 102.655257 
L 391.505299 102.340877 
L 400.002445 102.340877 
L 400.002445 102.183687 
L 400.559687 102.183687 
L 400.559687 102.026497 
L 407.335237 102.026497 
L 407.335237 101.869307 
L 407.892478 101.869307 
L 407.892478 101.712117 
L 419.130643 101.712117 
L 419.130643 101.554927 
L 419.687884 101.554927 
L 419.792213 101.240547 
L 420.349455 101.240547 
L 420.349455 101.083358 
L 428.163558 101.083358 
L 428.163558 100.926168 
L 428.7208 100.926168 
L 428.7208 100.768978 
L 433.205255 100.768978 
L 433.205255 100.611788 
L 433.762496 100.611788 
L 433.762496 100.454598 
L 434.934965 100.454598 
L 434.934965 100.297408 
L 435.492207 100.297408 
L 435.492207 100.140218 
L 436.392025 100.140218 
L 436.392025 99.983028 
L 436.949266 99.983028 
L 436.949266 99.825838 
L 453.192 99.825838 
L 453.192 99.825838 
" clip-path="url(#pfb2528adc5)" style="fill: none; stroke: #000000; stroke-width: 3; stroke-linecap: square"/>
   </g>
   <g id="line2d_38">
    <path clip-path="url(#pfb2528adc5)" style="fill: none; stroke: #000000; stroke-width: 3; stroke-linecap: square"/>
   </g>
   <g id="line2d_39">
    <path d="M 34.16 182.468431 
L 161.653747 182.468431 
L 161.653747 182.232908 
L 179.417394 182.232908 
L 179.417394 181.997386 
L 181.100279 181.997386 
L 181.100279 181.761863 
L 181.360771 181.761863 
L 181.360771 181.52634 
L 181.505743 181.52634 
L 181.505743 181.290817 
L 181.686541 181.290817 
L 181.686541 181.055294 
L 181.920886 181.055294 
L 181.920886 180.819771 
L 183.45771 180.819771 
L 183.45771 180.584248 
L 193.025656 180.584248 
L 193.025656 180.348725 
L 195.685476 180.348725 
L 195.685476 180.113203 
L 201.523006 180.113203 
L 201.523006 179.87768 
L 202.857628 179.87768 
L 202.857628 179.642157 
L 203.583291 179.642157 
L 203.583291 179.406634 
L 203.794117 179.406634 
L 203.794117 179.171111 
L 204.67249 179.171111 
L 204.67249 178.935588 
L 205.128739 178.935588 
L 205.128739 178.700065 
L 205.854402 178.700065 
L 205.854402 178.464542 
L 210.776287 178.464542 
L 210.808461 177.993497 
L 212.110909 177.993497 
L 212.110909 177.757974 
L 212.836572 177.757974 
L 212.836572 177.522451 
L 213.067577 177.522451 
L 213.067577 177.286928 
L 213.417426 177.286928 
L 213.417426 177.051405 
L 213.685691 177.051405 
L 213.695783 176.580359 
L 214.752048 176.580359 
L 214.752048 176.344837 
L 215.338688 176.344837 
L 215.338688 176.109314 
L 215.477711 176.109314 
L 215.477711 175.873791 
L 215.966894 175.873791 
L 215.966894 175.638268 
L 216.28731 175.638268 
L 216.28731 175.402745 
L 216.505722 175.402745 
L 216.505722 175.167222 
L 217.203145 175.167222 
L 217.203145 174.931699 
L 217.314627 174.931699 
L 217.314627 174.696176 
L 217.621932 174.696176 
L 217.621932 174.460654 
L 218.347596 174.460654 
L 218.347596 174.225131 
L 218.782997 174.225131 
L 218.782997 173.989608 
L 219.394187 173.989608 
L 219.474255 173.518562 
L 219.585737 173.518562 
L 219.687746 172.811993 
L 219.852816 172.811993 
L 219.852816 172.576471 
L 220.171991 172.576471 
L 220.171991 172.340948 
L 220.728809 172.340948 
L 220.756642 171.869902 
L 221.454472 171.869902 
L 221.506613 171.398856 
L 221.958857 171.398856 
L 221.958857 171.163333 
L 222.232276 171.163333 
L 222.320859 170.692288 
L 222.436136 170.692288 
L 222.436136 170.456765 
L 222.678889 170.456765 
L 222.678889 170.221242 
L 222.949064 170.221242 
L 223.027753 169.514673 
L 223.547201 169.514673 
L 223.547201 169.27915 
L 224.013511 169.27915 
L 224.119022 168.808105 
L 224.379513 168.808105 
L 224.379513 168.572582 
L 224.524486 168.572582 
L 224.524486 168.337059 
L 224.705283 168.337059 
L 224.739174 167.866013 
L 224.939628 167.866013 
L 224.961997 167.394967 
L 225.188826 167.394967 
L 225.188826 167.159444 
L 225.590203 167.159444 
L 225.590203 166.923922 
L 225.818312 166.923922 
L 225.818312 166.688399 
L 226.456426 166.688399 
L 226.476452 166.217353 
L 226.567908 166.217353 
L 226.567908 165.98183 
L 227.831882 165.98183 
L 227.831882 165.746307 
L 228.460088 165.746307 
L 228.460088 165.510784 
L 228.572108 165.510784 
L 228.572108 165.275261 
L 228.941027 165.275261 
L 228.941027 165.039739 
L 229.097564 165.039739 
L 229.097564 164.804216 
L 229.209046 164.804216 
L 229.209046 164.568693 
L 229.845271 164.568693 
L 229.845271 164.33317 
L 230.009924 164.33317 
L 230.009924 164.097647 
L 230.134076 164.097647 
L 230.134076 163.862124 
L 230.254993 163.862124 
L 230.359523 163.391078 
L 230.383217 163.391078 
L 230.383217 163.155556 
L 230.515484 163.155556 
L 230.515484 162.920033 
L 230.660457 162.920033 
L 230.672022 162.448987 
L 230.841255 162.448987 
L 230.938758 161.742418 
L 231.0756 161.742418 
L 231.0756 161.506895 
L 231.212549 161.506895 
L 231.268594 161.03585 
L 231.449337 161.03585 
L 231.501354 160.564804 
L 231.566964 160.564804 
L 231.582166 160.093758 
L 231.716562 160.093758 
L 231.806541 159.38719 
L 231.967449 159.38719 
L 231.967449 159.151667 
L 232.078931 159.151667 
L 232.078931 158.916144 
L 232.344768 158.916144 
L 232.344768 158.680621 
L 232.469149 158.680621 
L 232.469149 158.445098 
L 232.612424 158.445098 
L 232.651062 157.738529 
L 232.757076 157.738529 
L 232.800482 157.267484 
L 233.007095 157.267484 
L 233.04588 156.796438 
L 233.132223 156.796438 
L 233.132223 156.560915 
L 233.271327 156.560915 
L 233.271327 156.325392 
L 233.392714 156.325392 
L 233.392714 156.089869 
L 233.537687 156.089869 
L 233.574657 155.618824 
L 233.685722 155.618824 
L 233.718484 155.147778 
L 233.836428 155.147778 
L 233.932502 154.676732 
L 233.952829 154.676732 
L 233.974527 154.205686 
L 234.112603 154.205686 
L 234.22346 153.263595 
L 234.269369 153.263595 
L 234.269369 153.028072 
L 234.452051 153.028072 
L 234.470449 152.557026 
L 234.579204 152.557026 
L 234.633503 152.08598 
L 234.851666 152.08598 
L 234.941935 151.379412 
L 235.074326 151.379412 
L 235.147754 150.43732 
L 235.185808 150.43732 
L 235.185808 150.201797 
L 235.299781 150.201797 
L 235.380954 149.730752 
L 235.441621 149.730752 
L 235.520947 149.024183 
L 235.614125 149.024183 
L 235.614125 148.78866 
L 235.852129 148.78866 
L 235.952254 148.082092 
L 235.963612 148.082092 
L 236.06473 147.14 
L 236.212745 147.14 
L 236.3096 146.433431 
L 236.357718 146.433431 
L 236.443457 145.726863 
L 236.486461 145.726863 
L 236.546644 144.784771 
L 236.639489 144.784771 
L 236.689211 144.313725 
L 236.752151 144.313725 
L 236.844307 143.607157 
L 236.914658 143.607157 
L 236.914658 143.371634 
L 237.257381 143.371634 
L 237.257381 143.136111 
L 237.371633 143.136111 
L 237.415108 142.429542 
L 237.558927 142.429542 
L 237.661223 141.722974 
L 237.772954 141.722974 
L 237.82373 141.251928 
L 237.987983 141.251928 
L 237.987983 141.016405 
L 238.125015 141.016405 
L 238.229529 140.545359 
L 238.309685 140.545359 
L 238.362889 139.367745 
L 238.47051 139.367745 
L 238.49002 138.896699 
L 238.627824 138.896699 
L 238.720734 137.954608 
L 238.774456 137.954608 
L 238.861778 137.248039 
L 238.91663 137.248039 
L 239.024285 136.776993 
L 239.050136 136.776993 
L 239.063261 136.070425 
L 239.288708 136.070425 
L 239.31501 135.363856 
L 239.405627 135.363856 
L 239.459983 134.89281 
L 239.55984 134.89281 
L 239.64078 134.421765 
L 239.704812 134.421765 
L 239.719545 133.950719 
L 239.86441 133.950719 
L 239.967286 133.008627 
L 240.008349 133.008627 
L 240.030874 132.537582 
L 240.119955 132.537582 
L 240.19778 131.831013 
L 240.233796 131.831013 
L 240.325131 131.359967 
L 240.380641 131.359967 
L 240.487638 130.888922 
L 240.56882 130.888922 
L 240.58696 130.417876 
L 240.783656 130.417876 
L 240.843629 129.94683 
L 240.918587 129.94683 
L 240.918587 129.711307 
L 241.142868 129.711307 
L 241.142868 129.475784 
L 241.398152 129.475784 
L 241.468808 128.29817 
L 241.631314 128.29817 
L 241.656779 127.827124 
L 241.747919 127.827124 
L 241.747919 127.591601 
L 241.912526 127.591601 
L 241.912526 127.356078 
L 242.18037 127.356078 
L 242.196186 126.885033 
L 242.343423 126.885033 
L 242.343423 126.64951 
L 242.466542 126.64951 
L 242.503842 126.178464 
L 242.727033 126.178464 
L 242.727033 125.942941 
L 242.861688 125.942941 
L 242.952473 125.00085 
L 243.052803 125.00085 
L 243.052803 124.765327 
L 243.287148 124.765327 
L 243.292445 124.294281 
L 243.44893 124.294281 
L 243.44893 124.058758 
L 243.806776 124.058758 
L 243.871325 123.587712 
L 244.005364 123.587712 
L 244.005364 123.35219 
L 244.221092 123.35219 
L 244.221092 123.116667 
L 244.635358 123.116667 
L 244.703084 122.645621 
L 244.819105 122.645621 
L 244.895849 121.703529 
L 244.950452 121.703529 
L 245.0576 120.996961 
L 245.168872 120.996961 
L 245.221619 120.525915 
L 245.455965 120.525915 
L 245.455965 120.290392 
L 246.123775 120.290392 
L 246.123775 120.054869 
L 246.423502 120.054869 
L 246.423502 119.819346 
L 246.586009 119.819346 
L 246.586009 119.583824 
L 246.751981 119.583824 
L 246.773269 119.112778 
L 246.935776 119.112778 
L 246.992789 118.641732 
L 247.609301 118.641732 
L 247.717419 118.170686 
L 247.877631 118.170686 
L 247.877631 117.935163 
L 248.237507 117.935163 
L 248.237507 117.699641 
L 248.960059 117.699641 
L 248.960059 117.464118 
L 249.309826 117.464118 
L 249.309826 117.228595 
L 249.905147 117.228595 
L 249.905147 116.993072 
L 250.154906 116.993072 
L 250.259342 116.286503 
L 250.370824 116.286503 
L 250.370824 116.05098 
L 250.53745 116.05098 
L 250.53745 115.815458 
L 250.979896 115.815458 
L 250.979896 115.579935 
L 251.224725 115.579935 
L 251.224725 115.344412 
L 251.744869 115.344412 
L 251.744869 115.108889 
L 251.856351 115.108889 
L 251.856351 114.873366 
L 252.743944 114.873366 
L 252.814725 114.40232 
L 253.639715 114.40232 
L 253.639715 114.166797 
L 253.81284 114.166797 
L 253.884545 113.695752 
L 254.22947 113.695752 
L 254.22947 113.460229 
L 254.391919 113.460229 
L 254.391919 113.224706 
L 255.298366 113.224706 
L 255.298366 112.989183 
L 256.560735 112.989183 
L 256.603399 112.518137 
L 257.051738 112.518137 
L 257.051738 112.282614 
L 258.088925 112.282614 
L 258.088925 112.047092 
L 259.220554 112.047092 
L 259.220554 111.811569 
L 453.192 111.811569 
L 453.192 111.811569 
" clip-path="url(#pfb2528adc5)" style="fill: none; stroke: #00bfbf; stroke-width: 3; stroke-linecap: square"/>
   </g>
   <g id="line2d_40">
    <path clip-path="url(#pfb2528adc5)" style="fill: none; stroke: #00bfbf; stroke-width: 3; stroke-linecap: square"/>
   </g>
   <g id="line2d_41">
    <path d="M 34.16 182.468431 
L 166.509046 182.468431 
L 166.509046 182.232908 
L 183.75481 182.232908 
L 183.75481 181.997386 
L 184.287776 181.997386 
L 184.287776 181.761863 
L 184.585808 181.761863 
L 184.585808 181.52634 
L 185.515907 181.52634 
L 185.526777 181.055294 
L 186.046555 181.055294 
L 186.046555 180.819771 
L 186.433888 180.819771 
L 186.433888 180.584248 
L 194.972313 180.584248 
L 194.972313 180.348725 
L 198.661796 180.348725 
L 198.661796 180.113203 
L 206.459875 180.113203 
L 206.459875 179.87768 
L 209.31737 179.87768 
L 209.31737 179.642157 
L 210.141435 179.642157 
L 210.141435 179.406634 
L 212.046516 179.406634 
L 212.046516 179.171111 
L 212.63698 179.171111 
L 212.63698 178.935588 
L 212.870581 178.935588 
L 212.870581 178.700065 
L 213.413445 178.700065 
L 213.413445 178.464542 
L 213.785084 178.464542 
L 213.785084 178.22902 
L 214.463192 178.22902 
L 214.463192 177.993497 
L 214.609149 177.993497 
L 214.609149 177.757974 
L 215.179473 177.757974 
L 215.179473 177.522451 
L 215.316098 177.522451 
L 215.42355 177.051405 
L 216.14259 177.051405 
L 216.247614 176.580359 
L 217.192338 176.580359 
L 217.192338 176.344837 
L 217.881159 176.344837 
L 217.881159 176.109314 
L 218.009752 176.109314 
L 218.045243 175.638268 
L 218.389735 175.638268 
L 218.389735 175.402745 
L 218.930906 175.402745 
L 218.930906 175.167222 
L 219.519624 175.167222 
L 219.519624 174.931699 
L 219.783811 174.931699 
L 219.783811 174.696176 
L 219.944865 174.696176 
L 219.944865 174.460654 
L 220.285338 174.460654 
L 220.285338 174.225131 
L 220.569371 174.225131 
L 220.569371 173.989608 
L 220.751403 173.989608 
L 220.751403 173.754085 
L 220.880919 173.754085 
L 220.886349 173.283039 
L 221.109403 173.283039 
L 221.134036 172.576471 
L 221.422277 172.576471 
L 221.422277 172.340948 
L 221.575467 172.340948 
L 221.575467 172.105425 
L 221.704983 172.105425 
L 221.704983 171.869902 
L 222.125709 171.869902 
L 222.141971 171.398856 
L 222.632865 171.398856 
L 222.632865 171.163333 
L 222.857448 171.163333 
L 222.966036 170.692288 
L 223.705638 170.692288 
L 223.705638 170.456765 
L 224.238605 170.456765 
L 224.238605 170.221242 
L 224.381413 170.221242 
L 224.490005 169.750196 
L 224.495914 169.750196 
L 224.536636 169.27915 
L 224.847477 169.27915 
L 224.951612 168.572582 
L 224.976993 168.572582 
L 224.976993 168.337059 
L 225.36201 168.337059 
L 225.466736 167.63049 
L 225.477605 167.63049 
L 225.477605 167.394967 
L 225.897224 167.394967 
L 226.001686 166.688399 
L 226.02674 166.688399 
L 226.02674 166.452876 
L 226.238045 166.452876 
L 226.284066 165.98183 
L 226.384716 165.98183 
L 226.384716 165.746307 
L 226.593423 165.746307 
L 226.593423 165.510784 
L 226.75013 165.510784 
L 226.770999 165.039739 
L 226.879646 165.039739 
L 226.879646 164.804216 
L 227.100578 164.804216 
L 227.100578 164.568693 
L 227.287792 164.568693 
L 227.287792 164.33317 
L 227.680757 164.33317 
L 227.778259 163.862124 
L 227.807586 163.862124 
L 227.807586 163.626601 
L 228.140698 163.626601 
L 228.231888 163.155556 
L 228.602324 163.155556 
L 228.63165 162.68451 
L 228.730832 162.68451 
L 228.739044 162.213464 
L 229.357703 162.213464 
L 229.419326 161.742418 
L 229.823767 161.742418 
L 229.882743 161.271373 
L 229.953283 161.271373 
L 229.953283 161.03585 
L 230.41571 161.03585 
L 230.4694 160.564804 
L 230.713741 160.564804 
L 230.713741 160.329281 
L 231.057791 160.329281 
L 231.057791 160.093758 
L 231.214335 160.093758 
L 231.214335 159.858235 
L 231.643841 159.858235 
L 231.65471 159.38719 
L 231.874334 159.38719 
L 231.90366 158.916144 
L 232.107865 158.916144 
L 232.174489 158.445098 
L 232.329829 158.445098 
L 232.425236 157.738529 
L 232.544964 157.738529 
L 232.561821 157.031961 
L 232.768891 157.031961 
L 232.768891 156.796438 
L 232.924081 156.796438 
L 232.984027 155.854346 
L 233.093677 155.854346 
L 233.093677 155.618824 
L 233.256234 155.618824 
L 233.256234 155.383301 
L 233.45685 155.383301 
L 233.559741 154.676732 
L 233.600833 154.676732 
L 233.689257 154.205686 
L 233.776986 154.205686 
L 233.872277 153.499118 
L 233.895912 153.499118 
L 233.895912 153.263595 
L 234.066897 153.263595 
L 234.087413 152.792549 
L 234.186334 152.792549 
L 234.197203 152.08598 
L 234.346822 152.08598 
L 234.346822 151.850458 
L 234.561957 151.850458 
L 234.561957 151.614935 
L 234.716982 151.614935 
L 234.716982 151.379412 
L 234.923142 151.379412 
L 234.999298 150.43732 
L 235.104314 150.43732 
L 235.147771 149.966275 
L 235.255516 149.966275 
L 235.255516 149.730752 
L 235.457465 149.730752 
L 235.527725 149.024183 
L 235.74286 149.024183 
L 235.788482 148.082092 
L 235.91958 148.082092 
L 235.91958 147.846569 
L 236.059657 147.846569 
L 236.163636 146.904477 
L 236.204621 146.904477 
L 236.237816 146.197908 
L 236.385644 146.197908 
L 236.385644 145.962386 
L 236.51516 145.962386 
L 236.612157 145.020294 
L 236.654745 145.020294 
L 236.660202 144.549248 
L 236.850623 144.549248 
L 236.884228 143.84268 
L 236.969654 143.84268 
L 237.034543 142.900588 
L 237.099363 142.900588 
L 237.190628 142.429542 
L 237.308007 142.429542 
L 237.395959 141.722974 
L 237.435719 141.722974 
L 237.435719 141.487451 
L 237.547261 141.487451 
L 237.565235 141.016405 
L 237.689409 141.016405 
L 237.782552 139.838791 
L 237.818346 139.838791 
L 237.818346 139.603268 
L 237.934594 139.603268 
L 238.021626 138.896699 
L 238.132112 138.896699 
L 238.238132 137.954608 
L 238.368366 137.954608 
L 238.3798 137.483562 
L 238.612473 137.483562 
L 238.665079 136.776993 
L 238.749767 136.776993 
L 238.826287 136.070425 
L 238.912766 136.070425 
L 238.963454 134.657288 
L 239.198288 134.657288 
L 239.210798 134.186242 
L 239.344856 134.186242 
L 239.419035 133.479673 
L 239.482374 133.479673 
L 239.482374 133.24415 
L 239.67087 133.24415 
L 239.740475 132.302059 
L 239.793376 132.302059 
L 239.904079 131.359967 
L 239.98209 131.359967 
L 239.98209 131.124444 
L 240.109933 131.124444 
L 240.162861 130.182353 
L 240.319958 130.182353 
L 240.423857 129.711307 
L 240.577179 129.711307 
L 240.671545 128.769216 
L 240.701359 128.769216 
L 240.81119 127.827124 
L 240.993799 127.827124 
L 241.100247 126.885033 
L 241.12308 126.885033 
L 241.213319 126.178464 
L 241.266247 126.178464 
L 241.292794 125.707418 
L 241.50793 125.707418 
L 241.50793 125.471895 
L 241.687863 125.471895 
L 241.740791 124.765327 
L 241.905685 124.765327 
L 241.933682 124.294281 
L 242.268735 124.294281 
L 242.326606 123.587712 
L 242.419815 123.587712 
L 242.419815 123.35219 
L 242.566766 123.35219 
L 242.566766 123.116667 
L 242.868766 123.116667 
L 242.921694 122.645621 
L 243.412501 122.645621 
L 243.507735 121.703529 
L 243.64274 121.703529 
L 243.64274 121.468007 
L 244.016763 121.468007 
L 244.027514 120.996961 
L 244.214394 120.996961 
L 244.278198 120.290392 
L 244.414847 120.290392 
L 244.491901 119.583824 
L 244.549729 119.583824 
L 244.595795 119.112778 
L 244.669975 119.112778 
L 244.728524 118.641732 
L 244.78973 118.641732 
L 244.847761 118.170686 
L 245.044316 118.170686 
L 245.109925 117.699641 
L 245.184105 117.699641 
L 245.184105 117.464118 
L 245.558446 117.464118 
L 245.558446 117.228595 
L 245.77786 117.228595 
L 245.828118 116.522026 
L 246.308508 116.522026 
L 246.342248 116.05098 
L 246.473019 116.05098 
L 246.473019 115.815458 
L 246.695841 115.815458 
L 246.695841 115.579935 
L 247.332223 115.579935 
L 247.332223 115.344412 
L 248.119706 115.344412 
L 248.172634 114.873366 
L 248.408132 114.873366 
L 248.408132 114.637843 
L 248.633836 114.637843 
L 248.686764 114.166797 
L 249.349616 114.166797 
L 249.349616 113.931275 
L 249.597303 113.931275 
L 249.597303 113.695752 
L 250.162502 113.695752 
L 250.162502 113.460229 
L 252.097615 113.460229 
L 252.097615 113.224706 
L 252.953272 113.224706 
L 253.039099 112.75366 
L 253.286786 112.75366 
L 253.286786 112.518137 
L 255.234266 112.518137 
L 255.234266 112.282614 
L 256.642755 112.282614 
L 256.642755 112.047092 
L 258.923749 112.047092 
L 258.923749 111.811569 
L 453.192 111.811569 
L 453.192 111.811569 
" clip-path="url(#pfb2528adc5)" style="fill: none; stroke: #bf00bf; stroke-width: 3; stroke-linecap: square"/>
   </g>
   <g id="line2d_42">
    <path clip-path="url(#pfb2528adc5)" style="fill: none; stroke: #bf00bf; stroke-width: 3; stroke-linecap: square"/>
   </g>
   <g id="line2d_43">
    <path d="M 34.16 182.468431 
L 172.263884 182.468431 
L 172.263884 182.232908 
L 186.983671 182.232908 
L 186.983671 181.997386 
L 187.726828 181.997386 
L 187.726828 181.761863 
L 188.276585 181.761863 
L 188.276585 181.52634 
L 188.702337 181.52634 
L 188.702337 181.290817 
L 189.16027 181.290817 
L 189.180113 180.819771 
L 190.189644 180.819771 
L 190.189644 180.584248 
L 197.475965 180.584248 
L 197.475965 180.348725 
L 201.361437 180.348725 
L 201.361437 180.113203 
L 210.135924 180.113203 
L 210.135924 179.87768 
L 211.910644 179.87768 
L 211.915694 179.406634 
L 214.21119 179.406634 
L 214.21624 178.935588 
L 215.67068 178.935588 
L 215.67068 178.700065 
L 216.062689 178.700065 
L 216.062689 178.464542 
L 217.450116 178.464542 
L 217.455166 177.993497 
L 217.971226 177.993497 
L 218.050682 177.522451 
L 219.26053 177.522451 
L 219.26053 177.286928 
L 219.417661 177.286928 
L 219.417661 177.051405 
L 220.089409 177.051405 
L 220.089409 176.815882 
L 220.378162 176.815882 
L 220.385789 176.109314 
L 220.721768 176.109314 
L 220.726819 175.638268 
L 221.210152 175.638268 
L 221.210152 175.402745 
L 221.561075 175.402745 
L 221.561075 175.167222 
L 221.718207 175.167222 
L 221.718207 174.931699 
L 221.906365 174.931699 
L 221.906365 174.696176 
L 222.367285 174.696176 
L 222.389955 173.989608 
L 222.565677 173.989608 
L 222.565677 173.754085 
L 222.979661 173.754085 
L 222.984711 173.283039 
L 223.18525 173.283039 
L 223.18525 173.047516 
L 223.555208 173.047516 
L 223.555208 172.811993 
L 223.821119 172.811993 
L 223.920155 172.105425 
L 224.138198 172.105425 
L 224.138198 171.869902 
L 224.481805 171.869902 
L 224.481805 171.634379 
L 224.800002 171.634379 
L 224.866223 170.92781 
L 224.957133 170.92781 
L 224.957133 170.692288 
L 225.246203 170.692288 
L 225.251254 170.221242 
L 225.485796 170.221242 
L 225.485796 169.985719 
L 225.598869 169.985719 
L 225.628881 169.514673 
L 226.127322 169.514673 
L 226.148625 169.043627 
L 226.574377 169.043627 
L 226.574377 168.808105 
L 226.739697 168.808105 
L 226.739697 168.572582 
L 226.913699 168.572582 
L 226.913699 168.337059 
L 227.03231 168.337059 
L 227.052153 167.866013 
L 227.675141 167.866013 
L 227.728048 167.394967 
L 227.885179 167.394967 
L 227.885179 167.159444 
L 228.061685 167.159444 
L 228.105149 166.452876 
L 228.228786 166.452876 
L 228.228786 166.217353 
L 228.354973 166.217353 
L 228.405743 165.746307 
L 228.556927 165.746307 
L 228.556927 165.510784 
L 228.724722 165.510784 
L 228.724722 165.275261 
L 228.900533 165.275261 
L 229.006239 164.804216 
L 229.717171 164.804216 
L 229.717171 164.568693 
L 229.874303 164.568693 
L 229.874303 164.33317 
L 230.329546 164.33317 
L 230.329546 164.097647 
L 230.486678 164.097647 
L 230.54605 163.626601 
L 230.706289 163.626601 
L 230.782476 163.155556 
L 230.843349 163.155556 
L 230.848399 162.68451 
L 231.033195 162.68451 
L 231.033195 162.448987 
L 231.158426 162.448987 
L 231.26499 161.977941 
L 231.376802 161.977941 
L 231.422122 161.506895 
L 231.525633 161.506895 
L 231.525633 161.271373 
L 231.652768 161.271373 
L 231.652768 161.03585 
L 231.791978 161.03585 
L 231.791978 160.800327 
L 231.996374 160.800327 
L 232.093869 160.093758 
L 232.501142 160.093758 
L 232.596089 159.622712 
L 232.666386 159.622712 
L 232.77047 158.916144 
L 232.94198 158.916144 
L 233.022319 157.974052 
L 233.156211 157.974052 
L 233.156211 157.738529 
L 233.369427 157.738529 
L 233.424968 157.267484 
L 233.513627 157.267484 
L 233.513627 157.031961 
L 233.634694 157.031961 
L 233.708416 156.089869 
L 233.758482 156.089869 
L 233.859252 155.618824 
L 233.945215 155.618824 
L 234.034075 154.912255 
L 234.063383 154.912255 
L 234.092524 154.441209 
L 234.248307 154.441209 
L 234.254267 153.970163 
L 234.411457 153.970163 
L 234.489135 153.499118 
L 234.566811 153.499118 
L 234.603385 152.792549 
L 234.800512 152.792549 
L 234.800512 152.557026 
L 234.947068 152.557026 
L 234.966911 152.08598 
L 235.105576 152.08598 
L 235.18971 151.379412 
L 235.269852 151.379412 
L 235.348005 150.908366 
L 235.605228 150.908366 
L 235.658907 150.43732 
L 235.848733 150.43732 
L 235.901237 149.495229 
L 235.976443 149.495229 
L 235.976443 149.259706 
L 236.142795 149.259706 
L 236.250413 148.78866 
L 236.308269 148.78866 
L 236.39849 148.082092 
L 236.457667 148.082092 
L 236.520809 147.611046 
L 236.626152 147.611046 
L 236.73326 146.668954 
L 236.824242 146.668954 
L 236.909232 145.962386 
L 236.936733 145.962386 
L 236.956089 145.255817 
L 237.128125 145.255817 
L 237.216868 144.313725 
L 237.282175 144.313725 
L 237.369309 143.371634 
L 237.426558 143.371634 
L 237.499697 142.900588 
L 237.569055 142.900588 
L 237.569055 142.665065 
L 237.722526 142.665065 
L 237.831166 141.958497 
L 237.844649 141.958497 
L 237.919066 141.487451 
L 237.978763 141.487451 
L 238.05888 141.016405 
L 238.193235 141.016405 
L 238.274996 140.309837 
L 238.311549 140.309837 
L 238.359132 139.132222 
L 238.540906 139.132222 
L 238.611085 138.425654 
L 238.802751 138.425654 
L 238.862385 137.248039 
L 238.949598 137.248039 
L 239.022114 136.541471 
L 239.172427 136.541471 
L 239.233478 136.070425 
L 239.284063 136.070425 
L 239.333851 135.599379 
L 239.396509 135.599379 
L 239.47476 134.657288 
L 239.567909 134.657288 
L 239.619338 133.950719 
L 239.797911 133.950719 
L 239.875575 132.773105 
L 239.993661 132.773105 
L 240.073504 132.066536 
L 240.259496 132.066536 
L 240.32894 131.124444 
L 240.375881 131.124444 
L 240.471437 130.182353 
L 240.507897 130.182353 
L 240.603103 129.711307 
L 240.709289 129.711307 
L 240.737347 129.004739 
L 240.839941 129.004739 
L 240.919405 128.533693 
L 241.142234 128.533693 
L 241.234276 128.062647 
L 241.274769 128.062647 
L 241.274769 127.827124 
L 241.398472 127.827124 
L 241.498382 126.64951 
L 241.633487 126.64951 
L 241.741303 125.942941 
L 241.746879 125.942941 
L 241.825782 125.236373 
L 242.030794 125.236373 
L 242.117955 124.529804 
L 242.24862 124.529804 
L 242.289842 123.823235 
L 242.376644 123.823235 
L 242.376644 123.587712 
L 242.490859 123.587712 
L 242.490859 123.35219 
L 242.736753 123.35219 
L 242.736753 123.116667 
L 242.860995 123.116667 
L 242.9264 122.645621 
L 243.07476 122.645621 
L 243.07476 122.410098 
L 243.262763 122.410098 
L 243.352152 121.939052 
L 243.795589 121.939052 
L 243.829928 120.761438 
L 243.910105 120.761438 
L 243.910105 120.525915 
L 244.259649 120.525915 
L 244.367674 120.054869 
L 244.50057 120.054869 
L 244.599579 119.583824 
L 244.723399 119.583824 
L 244.793425 119.112778 
L 244.83946 119.112778 
L 244.83946 118.877255 
L 244.979636 118.877255 
L 244.979636 118.641732 
L 245.127538 118.641732 
L 245.190044 117.935163 
L 245.251359 117.935163 
L 245.271201 117.464118 
L 245.412873 117.464118 
L 245.412873 117.228595 
L 245.597869 117.228595 
L 245.669111 116.522026 
L 246.280733 116.522026 
L 246.301432 116.05098 
L 247.118446 116.05098 
L 247.148236 115.579935 
L 247.338448 115.579935 
L 247.376754 115.108889 
L 247.840814 115.108889 
L 247.840814 114.873366 
L 248.066228 114.873366 
L 248.066228 114.637843 
L 248.530288 114.637843 
L 248.530288 114.40232 
L 248.767289 114.40232 
L 248.767289 114.166797 
L 249.033199 114.166797 
L 249.033199 113.931275 
L 249.483342 113.931275 
L 249.483342 113.695752 
L 250.724683 113.695752 
L 250.724683 113.460229 
L 251.003918 113.460229 
L 251.003918 113.224706 
L 252.12578 113.224706 
L 252.12578 112.989183 
L 252.652762 112.989183 
L 252.652762 112.75366 
L 252.918672 112.75366 
L 252.918672 112.518137 
L 253.567053 112.518137 
L 253.567053 112.282614 
L 256.011253 112.282614 
L 256.011253 112.047092 
L 257.452526 112.047092 
L 257.452526 111.811569 
L 453.192 111.811569 
L 453.192 111.811569 
" clip-path="url(#pfb2528adc5)" style="fill: none; stroke: #ff0000; stroke-width: 3; stroke-linecap: square"/>
   </g>
   <g id="line2d_44">
    <path clip-path="url(#pfb2528adc5)" style="fill: none; stroke: #ff0000; stroke-width: 3; stroke-linecap: square"/>
   </g>
   <g id="line2d_45">
    <path d="M 243.676 291.28 
L 243.676 3 
" clip-path="url(#pfb2528adc5)" style="fill: none; stroke: #000000; stroke-width: 1.5; stroke-linecap: square"/>
   </g>
   <g id="line2d_46">
    <path d="M 34.16 147.14 
L 453.192 147.14 
" clip-path="url(#pfb2528adc5)" style="fill: none; stroke-dasharray: 2,3.3; stroke-dashoffset: 0; stroke: #000000; stroke-width: 2"/>
   </g>
   <g id="patch_3">
    <path d="M 34.16 291.28 
L 34.16 3 
" style="fill: none; stroke: #000000; stroke-width: 0.8; stroke-linejoin: miter; stroke-linecap: square"/>
   </g>
   <g id="patch_4">
    <path d="M 453.192 291.28 
L 453.192 3 
" style="fill: none; stroke: #000000; stroke-width: 0.8; stroke-linejoin: miter; stroke-linecap: square"/>
   </g>
   <g id="patch_5">
    <path d="M 34.16 291.28 
L 453.192 291.28 
" style="fill: none; stroke: #000000; stroke-width: 0.8; stroke-linejoin: miter; stroke-linecap: square"/>
   </g>
   <g id="patch_6">
    <path d="M 34.16 3 
L 453.192 3 
" style="fill: none; stroke: #000000; stroke-width: 0.8; stroke-linejoin: miter; stroke-linecap: square"/>
   </g>
   <g id="text_6">
    <!-- f6-f9,20-D -->
    <g transform="translate(343.64261 285.5144)scale(0.2 -0.2)">
     <defs>
      <path id="DejaVuSans-36" d="M 2113 2584 
Q 1688 2584 1439 2293 
Q 1191 2003 1191 1497 
Q 1191 994 1439 701 
Q 1688 409 2113 409 
Q 2538 409 2786 701 
Q 3034 994 3034 1497 
Q 3034 2003 2786 2293 
Q 2538 2584 2113 2584 
z
M 3366 4563 
L 3366 3988 
Q 3128 4100 2886 4159 
Q 2644 4219 2406 4219 
Q 1781 4219 1451 3797 
Q 1122 3375 1075 2522 
Q 1259 2794 1537 2939 
Q 1816 3084 2150 3084 
Q 2853 3084 3261 2657 
Q 3669 2231 3669 1497 
Q 3669 778 3244 343 
Q 2819 -91 2113 -91 
Q 1303 -91 875 529 
Q 447 1150 447 2328 
Q 447 3434 972 4092 
Q 1497 4750 2381 4750 
Q 2619 4750 2861 4703 
Q 3103 4656 3366 4563 
z
" transform="scale(0.015625)"/>
      <path id="DejaVuSans-39" d="M 703 97 
L 703 672 
Q 941 559 1184 500 
Q 1428 441 1663 441 
Q 2288 441 2617 861 
Q 2947 1281 2994 2138 
Q 2813 1869 2534 1725 
Q 2256 1581 1919 1581 
Q 1219 1581 811 2004 
Q 403 2428 403 3163 
Q 403 3881 828 4315 
Q 1253 4750 1959 4750 
Q 2769 4750 3195 4129 
Q 3622 3509 3622 2328 
Q 3622 1225 3098 567 
Q 2575 -91 1691 -91 
Q 1453 -91 1209 -44 
Q 966 3 703 97 
z
M 1959 2075 
Q 2384 2075 2632 2365 
Q 2881 2656 2881 3163 
Q 2881 3666 2632 3958 
Q 2384 4250 1959 4250 
Q 1534 4250 1286 3958 
Q 1038 3666 1038 3163 
Q 1038 2656 1286 2365 
Q 1534 2075 1959 2075 
z
" transform="scale(0.015625)"/>
      <path id="DejaVuSans-2c" d="M 750 794 
L 1409 794 
L 1409 256 
L 897 -744 
L 494 -744 
L 750 256 
L 750 794 
z
" transform="scale(0.015625)"/>
      <path id="DejaVuSans-32" d="M 1228 531 
L 3431 531 
L 3431 0 
L 469 0 
L 469 531 
Q 828 903 1448 1529 
Q 2069 2156 2228 2338 
Q 2531 2678 2651 2914 
Q 2772 3150 2772 3378 
Q 2772 3750 2511 3984 
Q 2250 4219 1831 4219 
Q 1534 4219 1204 4116 
Q 875 4013 500 3803 
L 500 4441 
Q 881 4594 1212 4672 
Q 1544 4750 1819 4750 
Q 2544 4750 2975 4387 
Q 3406 4025 3406 3419 
Q 3406 3131 3298 2873 
Q 3191 2616 2906 2266 
Q 2828 2175 2409 1742 
Q 1991 1309 1228 531 
z
" transform="scale(0.015625)"/>
      <path id="DejaVuSans-44" d="M 1259 4147 
L 1259 519 
L 2022 519 
Q 2988 519 3436 956 
Q 3884 1394 3884 2338 
Q 3884 3275 3436 3711 
Q 2988 4147 2022 4147 
L 1259 4147 
z
M 628 4666 
L 1925 4666 
Q 3281 4666 3915 4102 
Q 4550 3538 4550 2338 
Q 4550 1131 3912 565 
Q 3275 0 1925 0 
L 628 0 
L 628 4666 
z
" transform="scale(0.015625)"/>
     </defs>
     <use xlink:href="#DejaVuSans-66"/>
     <use xlink:href="#DejaVuSans-36" x="35.205078"/>
     <use xlink:href="#DejaVuSans-2d" x="98.828125"/>
     <use xlink:href="#DejaVuSans-66" x="134.912109"/>
     <use xlink:href="#DejaVuSans-39" x="170.117188"/>
     <use xlink:href="#DejaVuSans-2c" x="233.740234"/>
     <use xlink:href="#DejaVuSans-32" x="265.527344"/>
     <use xlink:href="#DejaVuSans-30" x="329.150391"/>
     <use xlink:href="#DejaVuSans-2d" x="392.773438"/>
     <use xlink:href="#DejaVuSans-44" x="428.857422"/>
    </g>
   </g>
   <g id="text_7">
    <!-- v2.6 -->
    <g style="fill: #808080" transform="translate(232.765062 286.317512)scale(0.1 -0.1)">
     <defs>
      <path id="DejaVuSans-2e" d="M 684 794 
L 1344 794 
L 1344 0 
L 684 0 
L 684 794 
z
" transform="scale(0.015625)"/>
     </defs>
     <use xlink:href="#DejaVuSans-76"/>
     <use xlink:href="#DejaVuSans-32" x="59.179688"/>
     <use xlink:href="#DejaVuSans-2e" x="122.802734"/>
     <use xlink:href="#DejaVuSans-36" x="154.589844"/>
    </g>
   </g>
   <g id="legend_1">
    <g id="patch_7">
     <path d="M 48.16 136.425 
L 177.381875 136.425 
Q 181.381875 136.425 181.381875 132.425 
L 181.381875 17 
Q 181.381875 13 177.381875 13 
L 48.16 13 
Q 44.16 13 44.16 17 
L 44.16 132.425 
Q 44.16 136.425 48.16 136.425 
z
" style="fill: #ffffff; opacity: 0.2; stroke: #cccccc; stroke-linejoin: miter"/>
    </g>
    <g id="line2d_47">
     <path d="M 52.16 29.196875 
L 72.16 29.196875 
L 92.16 29.196875 
" style="fill: none; stroke: #000000; stroke-width: 3; stroke-linecap: square"/>
    </g>
    <g id="text_8">
     <!-- 1: 4/4 -->
     <g transform="translate(108.16 36.196875)scale(0.2 -0.2)">
      <defs>
       <path id="DejaVuSans-3a" d="M 750 794 
L 1409 794 
L 1409 0 
L 750 0 
L 750 794 
z
M 750 3309 
L 1409 3309 
L 1409 2516 
L 750 2516 
L 750 3309 
z
" transform="scale(0.015625)"/>
       <path id="DejaVuSans-34" d="M 2419 4116 
L 825 1625 
L 2419 1625 
L 2419 4116 
z
M 2253 4666 
L 3047 4666 
L 3047 1625 
L 3713 1625 
L 3713 1100 
L 3047 1100 
L 3047 0 
L 2419 0 
L 2419 1100 
L 313 1100 
L 313 1709 
L 2253 4666 
z
" transform="scale(0.015625)"/>
       <path id="DejaVuSans-2f" d="M 1625 4666 
L 2156 4666 
L 531 -594 
L 0 -594 
L 1625 4666 
z
" transform="scale(0.015625)"/>
      </defs>
      <use xlink:href="#DejaVuSans-31"/>
      <use xlink:href="#DejaVuSans-3a" x="63.623047"/>
      <use xlink:href="#DejaVuSans-20" x="97.314453"/>
      <use xlink:href="#DejaVuSans-34" x="129.101562"/>
      <use xlink:href="#DejaVuSans-2f" x="192.724609"/>
      <use xlink:href="#DejaVuSans-34" x="226.416016"/>
     </g>
    </g>
    <g id="line2d_48">
     <path d="M 52.16 58.553125 
L 72.16 58.553125 
L 92.16 58.553125 
" style="fill: none; stroke: #00bfbf; stroke-width: 3; stroke-linecap: square"/>
    </g>
    <g id="text_9">
     <!-- -1: 3/3 -->
     <g transform="translate(108.16 65.553125)scale(0.2 -0.2)">
      <defs>
       <path id="DejaVuSans-33" d="M 2597 2516 
Q 3050 2419 3304 2112 
Q 3559 1806 3559 1356 
Q 3559 666 3084 287 
Q 2609 -91 1734 -91 
Q 1441 -91 1130 -33 
Q 819 25 488 141 
L 488 750 
Q 750 597 1062 519 
Q 1375 441 1716 441 
Q 2309 441 2620 675 
Q 2931 909 2931 1356 
Q 2931 1769 2642 2001 
Q 2353 2234 1838 2234 
L 1294 2234 
L 1294 2753 
L 1863 2753 
Q 2328 2753 2575 2939 
Q 2822 3125 2822 3475 
Q 2822 3834 2567 4026 
Q 2313 4219 1838 4219 
Q 1578 4219 1281 4162 
Q 984 4106 628 3988 
L 628 4550 
Q 988 4650 1302 4700 
Q 1616 4750 1894 4750 
Q 2613 4750 3031 4423 
Q 3450 4097 3450 3541 
Q 3450 3153 3228 2886 
Q 3006 2619 2597 2516 
z
" transform="scale(0.015625)"/>
      </defs>
      <use xlink:href="#DejaVuSans-2d"/>
      <use xlink:href="#DejaVuSans-31" x="36.083984"/>
      <use xlink:href="#DejaVuSans-3a" x="99.707031"/>
      <use xlink:href="#DejaVuSans-20" x="133.398438"/>
      <use xlink:href="#DejaVuSans-33" x="165.185547"/>
      <use xlink:href="#DejaVuSans-2f" x="228.808594"/>
      <use xlink:href="#DejaVuSans-33" x="262.5"/>
     </g>
    </g>
    <g id="line2d_49">
     <path d="M 52.16 87.909375 
L 72.16 87.909375 
L 92.16 87.909375 
" style="fill: none; stroke: #bf00bf; stroke-width: 3; stroke-linecap: square"/>
    </g>
    <g id="text_10">
     <!-- -4: 3/3 -->
     <g transform="translate(108.16 94.909375)scale(0.2 -0.2)">
      <use xlink:href="#DejaVuSans-2d"/>
      <use xlink:href="#DejaVuSans-34" x="36.083984"/>
      <use xlink:href="#DejaVuSans-3a" x="99.707031"/>
      <use xlink:href="#DejaVuSans-20" x="133.398438"/>
      <use xlink:href="#DejaVuSans-33" x="165.185547"/>
      <use xlink:href="#DejaVuSans-2f" x="228.808594"/>
      <use xlink:href="#DejaVuSans-33" x="262.5"/>
     </g>
    </g>
    <g id="line2d_50">
     <path d="M 52.16 117.265625 
L 72.16 117.265625 
L 92.16 117.265625 
" style="fill: none; stroke: #ff0000; stroke-width: 3; stroke-linecap: square"/>
    </g>
    <g id="text_11">
     <!-- -8: 3/3 -->
     <g transform="translate(108.16 124.265625)scale(0.2 -0.2)">
      <defs>
       <path id="DejaVuSans-38" d="M 2034 2216 
Q 1584 2216 1326 1975 
Q 1069 1734 1069 1313 
Q 1069 891 1326 650 
Q 1584 409 2034 409 
Q 2484 409 2743 651 
Q 3003 894 3003 1313 
Q 3003 1734 2745 1975 
Q 2488 2216 2034 2216 
z
M 1403 2484 
Q 997 2584 770 2862 
Q 544 3141 544 3541 
Q 544 4100 942 4425 
Q 1341 4750 2034 4750 
Q 2731 4750 3128 4425 
Q 3525 4100 3525 3541 
Q 3525 3141 3298 2862 
Q 3072 2584 2669 2484 
Q 3125 2378 3379 2068 
Q 3634 1759 3634 1313 
Q 3634 634 3220 271 
Q 2806 -91 2034 -91 
Q 1263 -91 848 271 
Q 434 634 434 1313 
Q 434 1759 690 2068 
Q 947 2378 1403 2484 
z
M 1172 3481 
Q 1172 3119 1398 2916 
Q 1625 2713 2034 2713 
Q 2441 2713 2670 2916 
Q 2900 3119 2900 3481 
Q 2900 3844 2670 4047 
Q 2441 4250 2034 4250 
Q 1625 4250 1398 4047 
Q 1172 3844 1172 3481 
z
" transform="scale(0.015625)"/>
      </defs>
      <use xlink:href="#DejaVuSans-2d"/>
      <use xlink:href="#DejaVuSans-38" x="36.083984"/>
      <use xlink:href="#DejaVuSans-3a" x="99.707031"/>
      <use xlink:href="#DejaVuSans-20" x="133.398438"/>
      <use xlink:href="#DejaVuSans-33" x="165.185547"/>
      <use xlink:href="#DejaVuSans-2f" x="228.808594"/>
      <use xlink:href="#DejaVuSans-33" x="262.5"/>
     </g>
    </g>
   </g>
  </g>
 </g>
 <defs>
  <clipPath id="pfb2528adc5">
   <rect x="34.16" y="3" width="419.032" height="288.28"/>
  </clipPath>
 </defs>
</svg>
