<?xml version="1.0" encoding="utf-8" standalone="no"?>
<!DOCTYPE svg PUBLIC "-//W3C//DTD SVG 1.1//EN"
  "http://www.w3.org/Graphics/SVG/1.1/DTD/svg11.dtd">
<svg xmlns:xlink="http://www.w3.org/1999/xlink" width="460.8pt" height="345.6pt" viewBox="0 0 460.8 345.6" xmlns="http://www.w3.org/2000/svg" version="1.1">
 <metadata>
  <rdf:RDF xmlns:dc="http://purl.org/dc/elements/1.1/" xmlns:cc="http://creativecommons.org/ns#" xmlns:rdf="http://www.w3.org/1999/02/22-rdf-syntax-ns#">
   <cc:Work>
    <dc:type rdf:resource="http://purl.org/dc/dcmitype/StillImage"/>
    <dc:date>2022-03-16T23:07:08.141995</dc:date>
    <dc:format>image/svg+xml</dc:format>
    <dc:creator>
     <cc:Agent>
      <dc:title>Matplotlib v3.5.1, https://matplotlib.org/</dc:title>
     </cc:Agent>
    </dc:creator>
   </cc:Work>
  </rdf:RDF>
 </metadata>
 <defs>
  <style type="text/css">*{stroke-linejoin: round; stroke-linecap: butt}</style>
 </defs>
 <g id="figure_1">
  <g id="patch_1">
   <path d="M 0 345.6 
L 460.8 345.6 
L 460.8 0 
L 0 0 
z
" style="fill: #ffffff"/>
  </g>
  <g id="axes_1">
   <g id="patch_2">
    <path d="M 57.6 298.944 
L 360.8064 298.944 
L 360.8064 6.912 
L 57.6 6.912 
z
" style="fill: #ffffff"/>
   </g>
   <g id="matplotlib.axis_1">
    <g id="xtick_1">
     <g id="line2d_1">
      <path d="M 57.6 298.944 
L 57.6 6.912 
" clip-path="url(#p917d36f64a)" style="fill: none; stroke: #b0b0b0; stroke-width: 0.8; stroke-linecap: square"/>
     </g>
     <g id="line2d_2">
      <defs>
       <path id="mb5ddbd5c4e" d="M 0 0 
L 0 3.5 
" style="stroke: #000000; stroke-width: 0.8"/>
      </defs>
      <g>
       <use xlink:href="#mb5ddbd5c4e" x="57.6" y="298.944" style="stroke: #000000; stroke-width: 0.8"/>
      </g>
     </g>
     <g id="text_1">
      <!-- 0 -->
      <g transform="translate(52.191875 318.861344)scale(0.17 -0.17)">
       <defs>
        <path id="DejaVuSans-30" d="M 2034 4250 
Q 1547 4250 1301 3770 
Q 1056 3291 1056 2328 
Q 1056 1369 1301 889 
Q 1547 409 2034 409 
Q 2525 409 2770 889 
Q 3016 1369 3016 2328 
Q 3016 3291 2770 3770 
Q 2525 4250 2034 4250 
z
M 2034 4750 
Q 2819 4750 3233 4129 
Q 3647 3509 3647 2328 
Q 3647 1150 3233 529 
Q 2819 -91 2034 -91 
Q 1250 -91 836 529 
Q 422 1150 422 2328 
Q 422 3509 836 4129 
Q 1250 4750 2034 4750 
z
" transform="scale(0.015625)"/>
       </defs>
       <use xlink:href="#DejaVuSans-30"/>
      </g>
     </g>
    </g>
    <g id="xtick_2">
     <g id="line2d_3">
      <path d="M 144.2304 298.944 
L 144.2304 6.912 
" clip-path="url(#p917d36f64a)" style="fill: none; stroke: #b0b0b0; stroke-width: 0.8; stroke-linecap: square"/>
     </g>
     <g id="line2d_4">
      <g>
       <use xlink:href="#mb5ddbd5c4e" x="144.2304" y="298.944" style="stroke: #000000; stroke-width: 0.8"/>
      </g>
     </g>
     <g id="text_2">
      <!-- 2 -->
      <g transform="translate(138.822275 318.861344)scale(0.17 -0.17)">
       <defs>
        <path id="DejaVuSans-32" d="M 1228 531 
L 3431 531 
L 3431 0 
L 469 0 
L 469 531 
Q 828 903 1448 1529 
Q 2069 2156 2228 2338 
Q 2531 2678 2651 2914 
Q 2772 3150 2772 3378 
Q 2772 3750 2511 3984 
Q 2250 4219 1831 4219 
Q 1534 4219 1204 4116 
Q 875 4013 500 3803 
L 500 4441 
Q 881 4594 1212 4672 
Q 1544 4750 1819 4750 
Q 2544 4750 2975 4387 
Q 3406 4025 3406 3419 
Q 3406 3131 3298 2873 
Q 3191 2616 2906 2266 
Q 2828 2175 2409 1742 
Q 1991 1309 1228 531 
z
" transform="scale(0.015625)"/>
       </defs>
       <use xlink:href="#DejaVuSans-32"/>
      </g>
     </g>
    </g>
    <g id="xtick_3">
     <g id="line2d_5">
      <path d="M 230.8608 298.944 
L 230.8608 6.912 
" clip-path="url(#p917d36f64a)" style="fill: none; stroke: #b0b0b0; stroke-width: 0.8; stroke-linecap: square"/>
     </g>
     <g id="line2d_6">
      <g>
       <use xlink:href="#mb5ddbd5c4e" x="230.8608" y="298.944" style="stroke: #000000; stroke-width: 0.8"/>
      </g>
     </g>
     <g id="text_3">
      <!-- 4 -->
      <g transform="translate(225.452675 318.861344)scale(0.17 -0.17)">
       <defs>
        <path id="DejaVuSans-34" d="M 2419 4116 
L 825 1625 
L 2419 1625 
L 2419 4116 
z
M 2253 4666 
L 3047 4666 
L 3047 1625 
L 3713 1625 
L 3713 1100 
L 3047 1100 
L 3047 0 
L 2419 0 
L 2419 1100 
L 313 1100 
L 313 1709 
L 2253 4666 
z
" transform="scale(0.015625)"/>
       </defs>
       <use xlink:href="#DejaVuSans-34"/>
      </g>
     </g>
    </g>
    <g id="xtick_4">
     <g id="line2d_7">
      <path d="M 317.4912 298.944 
L 317.4912 6.912 
" clip-path="url(#p917d36f64a)" style="fill: none; stroke: #b0b0b0; stroke-width: 0.8; stroke-linecap: square"/>
     </g>
     <g id="line2d_8">
      <g>
       <use xlink:href="#mb5ddbd5c4e" x="317.4912" y="298.944" style="stroke: #000000; stroke-width: 0.8"/>
      </g>
     </g>
     <g id="text_4">
      <!-- 6 -->
      <g transform="translate(312.083075 318.861344)scale(0.17 -0.17)">
       <defs>
        <path id="DejaVuSans-36" d="M 2113 2584 
Q 1688 2584 1439 2293 
Q 1191 2003 1191 1497 
Q 1191 994 1439 701 
Q 1688 409 2113 409 
Q 2538 409 2786 701 
Q 3034 994 3034 1497 
Q 3034 2003 2786 2293 
Q 2538 2584 2113 2584 
z
M 3366 4563 
L 3366 3988 
Q 3128 4100 2886 4159 
Q 2644 4219 2406 4219 
Q 1781 4219 1451 3797 
Q 1122 3375 1075 2522 
Q 1259 2794 1537 2939 
Q 1816 3084 2150 3084 
Q 2853 3084 3261 2657 
Q 3669 2231 3669 1497 
Q 3669 778 3244 343 
Q 2819 -91 2113 -91 
Q 1303 -91 875 529 
Q 447 1150 447 2328 
Q 447 3434 972 4092 
Q 1497 4750 2381 4750 
Q 2619 4750 2861 4703 
Q 3103 4656 3366 4563 
z
" transform="scale(0.015625)"/>
       </defs>
       <use xlink:href="#DejaVuSans-36"/>
      </g>
     </g>
    </g>
    <g id="xtick_5">
     <g id="line2d_9">
      <path d="M 100.9152 298.944 
L 100.9152 6.912 
" clip-path="url(#p917d36f64a)" style="fill: none; stroke: #b0b0b0; stroke-width: 0.8; stroke-linecap: square"/>
     </g>
     <g id="line2d_10">
      <defs>
       <path id="m707fb71dcc" d="M 0 0 
L 0 2 
" style="stroke: #000000; stroke-width: 0.6"/>
      </defs>
      <g>
       <use xlink:href="#m707fb71dcc" x="100.9152" y="298.944" style="stroke: #000000; stroke-width: 0.6"/>
      </g>
     </g>
    </g>
    <g id="xtick_6">
     <g id="line2d_11">
      <path d="M 187.5456 298.944 
L 187.5456 6.912 
" clip-path="url(#p917d36f64a)" style="fill: none; stroke: #b0b0b0; stroke-width: 0.8; stroke-linecap: square"/>
     </g>
     <g id="line2d_12">
      <g>
       <use xlink:href="#m707fb71dcc" x="187.5456" y="298.944" style="stroke: #000000; stroke-width: 0.6"/>
      </g>
     </g>
    </g>
    <g id="xtick_7">
     <g id="line2d_13">
      <path d="M 274.176 298.944 
L 274.176 6.912 
" clip-path="url(#p917d36f64a)" style="fill: none; stroke: #b0b0b0; stroke-width: 0.8; stroke-linecap: square"/>
     </g>
     <g id="line2d_14">
      <g>
       <use xlink:href="#m707fb71dcc" x="274.176" y="298.944" style="stroke: #000000; stroke-width: 0.6"/>
      </g>
     </g>
    </g>
    <g id="xtick_8">
     <g id="line2d_15">
      <path d="M 360.8064 298.944 
L 360.8064 6.912 
" clip-path="url(#p917d36f64a)" style="fill: none; stroke: #b0b0b0; stroke-width: 0.8; stroke-linecap: square"/>
     </g>
     <g id="line2d_16">
      <g>
       <use xlink:href="#m707fb71dcc" x="360.8064" y="298.944" style="stroke: #000000; stroke-width: 0.6"/>
      </g>
     </g>
    </g>
    <g id="text_5">
     <!-- log10(# f-evals / dimension) -->
     <g transform="translate(88.823278 339.314156)scale(0.17 -0.17)">
      <defs>
       <path id="DejaVuSans-6c" d="M 603 4863 
L 1178 4863 
L 1178 0 
L 603 0 
L 603 4863 
z
" transform="scale(0.015625)"/>
       <path id="DejaVuSans-6f" d="M 1959 3097 
Q 1497 3097 1228 2736 
Q 959 2375 959 1747 
Q 959 1119 1226 758 
Q 1494 397 1959 397 
Q 2419 397 2687 759 
Q 2956 1122 2956 1747 
Q 2956 2369 2687 2733 
Q 2419 3097 1959 3097 
z
M 1959 3584 
Q 2709 3584 3137 3096 
Q 3566 2609 3566 1747 
Q 3566 888 3137 398 
Q 2709 -91 1959 -91 
Q 1206 -91 779 398 
Q 353 888 353 1747 
Q 353 2609 779 3096 
Q 1206 3584 1959 3584 
z
" transform="scale(0.015625)"/>
       <path id="DejaVuSans-67" d="M 2906 1791 
Q 2906 2416 2648 2759 
Q 2391 3103 1925 3103 
Q 1463 3103 1205 2759 
Q 947 2416 947 1791 
Q 947 1169 1205 825 
Q 1463 481 1925 481 
Q 2391 481 2648 825 
Q 2906 1169 2906 1791 
z
M 3481 434 
Q 3481 -459 3084 -895 
Q 2688 -1331 1869 -1331 
Q 1566 -1331 1297 -1286 
Q 1028 -1241 775 -1147 
L 775 -588 
Q 1028 -725 1275 -790 
Q 1522 -856 1778 -856 
Q 2344 -856 2625 -561 
Q 2906 -266 2906 331 
L 2906 616 
Q 2728 306 2450 153 
Q 2172 0 1784 0 
Q 1141 0 747 490 
Q 353 981 353 1791 
Q 353 2603 747 3093 
Q 1141 3584 1784 3584 
Q 2172 3584 2450 3431 
Q 2728 3278 2906 2969 
L 2906 3500 
L 3481 3500 
L 3481 434 
z
" transform="scale(0.015625)"/>
       <path id="DejaVuSans-31" d="M 794 531 
L 1825 531 
L 1825 4091 
L 703 3866 
L 703 4441 
L 1819 4666 
L 2450 4666 
L 2450 531 
L 3481 531 
L 3481 0 
L 794 0 
L 794 531 
z
" transform="scale(0.015625)"/>
       <path id="DejaVuSans-28" d="M 1984 4856 
Q 1566 4138 1362 3434 
Q 1159 2731 1159 2009 
Q 1159 1288 1364 580 
Q 1569 -128 1984 -844 
L 1484 -844 
Q 1016 -109 783 600 
Q 550 1309 550 2009 
Q 550 2706 781 3412 
Q 1013 4119 1484 4856 
L 1984 4856 
z
" transform="scale(0.015625)"/>
       <path id="DejaVuSans-23" d="M 3272 2816 
L 2363 2816 
L 2100 1772 
L 3016 1772 
L 3272 2816 
z
M 2803 4594 
L 2478 3297 
L 3391 3297 
L 3719 4594 
L 4219 4594 
L 3897 3297 
L 4872 3297 
L 4872 2816 
L 3775 2816 
L 3519 1772 
L 4513 1772 
L 4513 1294 
L 3397 1294 
L 3072 0 
L 2572 0 
L 2894 1294 
L 1978 1294 
L 1656 0 
L 1153 0 
L 1478 1294 
L 494 1294 
L 494 1772 
L 1594 1772 
L 1856 2816 
L 850 2816 
L 850 3297 
L 1978 3297 
L 2297 4594 
L 2803 4594 
z
" transform="scale(0.015625)"/>
       <path id="DejaVuSans-20" transform="scale(0.015625)"/>
       <path id="DejaVuSans-66" d="M 2375 4863 
L 2375 4384 
L 1825 4384 
Q 1516 4384 1395 4259 
Q 1275 4134 1275 3809 
L 1275 3500 
L 2222 3500 
L 2222 3053 
L 1275 3053 
L 1275 0 
L 697 0 
L 697 3053 
L 147 3053 
L 147 3500 
L 697 3500 
L 697 3744 
Q 697 4328 969 4595 
Q 1241 4863 1831 4863 
L 2375 4863 
z
" transform="scale(0.015625)"/>
       <path id="DejaVuSans-2d" d="M 313 2009 
L 1997 2009 
L 1997 1497 
L 313 1497 
L 313 2009 
z
" transform="scale(0.015625)"/>
       <path id="DejaVuSans-65" d="M 3597 1894 
L 3597 1613 
L 953 1613 
Q 991 1019 1311 708 
Q 1631 397 2203 397 
Q 2534 397 2845 478 
Q 3156 559 3463 722 
L 3463 178 
Q 3153 47 2828 -22 
Q 2503 -91 2169 -91 
Q 1331 -91 842 396 
Q 353 884 353 1716 
Q 353 2575 817 3079 
Q 1281 3584 2069 3584 
Q 2775 3584 3186 3129 
Q 3597 2675 3597 1894 
z
M 3022 2063 
Q 3016 2534 2758 2815 
Q 2500 3097 2075 3097 
Q 1594 3097 1305 2825 
Q 1016 2553 972 2059 
L 3022 2063 
z
" transform="scale(0.015625)"/>
       <path id="DejaVuSans-76" d="M 191 3500 
L 800 3500 
L 1894 563 
L 2988 3500 
L 3597 3500 
L 2284 0 
L 1503 0 
L 191 3500 
z
" transform="scale(0.015625)"/>
       <path id="DejaVuSans-61" d="M 2194 1759 
Q 1497 1759 1228 1600 
Q 959 1441 959 1056 
Q 959 750 1161 570 
Q 1363 391 1709 391 
Q 2188 391 2477 730 
Q 2766 1069 2766 1631 
L 2766 1759 
L 2194 1759 
z
M 3341 1997 
L 3341 0 
L 2766 0 
L 2766 531 
Q 2569 213 2275 61 
Q 1981 -91 1556 -91 
Q 1019 -91 701 211 
Q 384 513 384 1019 
Q 384 1609 779 1909 
Q 1175 2209 1959 2209 
L 2766 2209 
L 2766 2266 
Q 2766 2663 2505 2880 
Q 2244 3097 1772 3097 
Q 1472 3097 1187 3025 
Q 903 2953 641 2809 
L 641 3341 
Q 956 3463 1253 3523 
Q 1550 3584 1831 3584 
Q 2591 3584 2966 3190 
Q 3341 2797 3341 1997 
z
" transform="scale(0.015625)"/>
       <path id="DejaVuSans-73" d="M 2834 3397 
L 2834 2853 
Q 2591 2978 2328 3040 
Q 2066 3103 1784 3103 
Q 1356 3103 1142 2972 
Q 928 2841 928 2578 
Q 928 2378 1081 2264 
Q 1234 2150 1697 2047 
L 1894 2003 
Q 2506 1872 2764 1633 
Q 3022 1394 3022 966 
Q 3022 478 2636 193 
Q 2250 -91 1575 -91 
Q 1294 -91 989 -36 
Q 684 19 347 128 
L 347 722 
Q 666 556 975 473 
Q 1284 391 1588 391 
Q 1994 391 2212 530 
Q 2431 669 2431 922 
Q 2431 1156 2273 1281 
Q 2116 1406 1581 1522 
L 1381 1569 
Q 847 1681 609 1914 
Q 372 2147 372 2553 
Q 372 3047 722 3315 
Q 1072 3584 1716 3584 
Q 2034 3584 2315 3537 
Q 2597 3491 2834 3397 
z
" transform="scale(0.015625)"/>
       <path id="DejaVuSans-2f" d="M 1625 4666 
L 2156 4666 
L 531 -594 
L 0 -594 
L 1625 4666 
z
" transform="scale(0.015625)"/>
       <path id="DejaVuSans-64" d="M 2906 2969 
L 2906 4863 
L 3481 4863 
L 3481 0 
L 2906 0 
L 2906 525 
Q 2725 213 2448 61 
Q 2172 -91 1784 -91 
Q 1150 -91 751 415 
Q 353 922 353 1747 
Q 353 2572 751 3078 
Q 1150 3584 1784 3584 
Q 2172 3584 2448 3432 
Q 2725 3281 2906 2969 
z
M 947 1747 
Q 947 1113 1208 752 
Q 1469 391 1925 391 
Q 2381 391 2643 752 
Q 2906 1113 2906 1747 
Q 2906 2381 2643 2742 
Q 2381 3103 1925 3103 
Q 1469 3103 1208 2742 
Q 947 2381 947 1747 
z
" transform="scale(0.015625)"/>
       <path id="DejaVuSans-69" d="M 603 3500 
L 1178 3500 
L 1178 0 
L 603 0 
L 603 3500 
z
M 603 4863 
L 1178 4863 
L 1178 4134 
L 603 4134 
L 603 4863 
z
" transform="scale(0.015625)"/>
       <path id="DejaVuSans-6d" d="M 3328 2828 
Q 3544 3216 3844 3400 
Q 4144 3584 4550 3584 
Q 5097 3584 5394 3201 
Q 5691 2819 5691 2113 
L 5691 0 
L 5113 0 
L 5113 2094 
Q 5113 2597 4934 2840 
Q 4756 3084 4391 3084 
Q 3944 3084 3684 2787 
Q 3425 2491 3425 1978 
L 3425 0 
L 2847 0 
L 2847 2094 
Q 2847 2600 2669 2842 
Q 2491 3084 2119 3084 
Q 1678 3084 1418 2786 
Q 1159 2488 1159 1978 
L 1159 0 
L 581 0 
L 581 3500 
L 1159 3500 
L 1159 2956 
Q 1356 3278 1631 3431 
Q 1906 3584 2284 3584 
Q 2666 3584 2933 3390 
Q 3200 3197 3328 2828 
z
" transform="scale(0.015625)"/>
       <path id="DejaVuSans-6e" d="M 3513 2113 
L 3513 0 
L 2938 0 
L 2938 2094 
Q 2938 2591 2744 2837 
Q 2550 3084 2163 3084 
Q 1697 3084 1428 2787 
Q 1159 2491 1159 1978 
L 1159 0 
L 581 0 
L 581 3500 
L 1159 3500 
L 1159 2956 
Q 1366 3272 1645 3428 
Q 1925 3584 2291 3584 
Q 2894 3584 3203 3211 
Q 3513 2838 3513 2113 
z
" transform="scale(0.015625)"/>
       <path id="DejaVuSans-29" d="M 513 4856 
L 1013 4856 
Q 1481 4119 1714 3412 
Q 1947 2706 1947 2009 
Q 1947 1309 1714 600 
Q 1481 -109 1013 -844 
L 513 -844 
Q 928 -128 1133 580 
Q 1338 1288 1338 2009 
Q 1338 2731 1133 3434 
Q 928 4138 513 4856 
z
" transform="scale(0.015625)"/>
      </defs>
      <use xlink:href="#DejaVuSans-6c"/>
      <use xlink:href="#DejaVuSans-6f" x="27.783203"/>
      <use xlink:href="#DejaVuSans-67" x="88.964844"/>
      <use xlink:href="#DejaVuSans-31" x="152.441406"/>
      <use xlink:href="#DejaVuSans-30" x="216.064453"/>
      <use xlink:href="#DejaVuSans-28" x="279.6875"/>
      <use xlink:href="#DejaVuSans-23" x="318.701172"/>
      <use xlink:href="#DejaVuSans-20" x="402.490234"/>
      <use xlink:href="#DejaVuSans-66" x="434.277344"/>
      <use xlink:href="#DejaVuSans-2d" x="463.982422"/>
      <use xlink:href="#DejaVuSans-65" x="500.066406"/>
      <use xlink:href="#DejaVuSans-76" x="561.589844"/>
      <use xlink:href="#DejaVuSans-61" x="620.769531"/>
      <use xlink:href="#DejaVuSans-6c" x="682.048828"/>
      <use xlink:href="#DejaVuSans-73" x="709.832031"/>
      <use xlink:href="#DejaVuSans-20" x="761.931641"/>
      <use xlink:href="#DejaVuSans-2f" x="793.71875"/>
      <use xlink:href="#DejaVuSans-20" x="827.410156"/>
      <use xlink:href="#DejaVuSans-64" x="859.197266"/>
      <use xlink:href="#DejaVuSans-69" x="922.673828"/>
      <use xlink:href="#DejaVuSans-6d" x="950.457031"/>
      <use xlink:href="#DejaVuSans-65" x="1047.869141"/>
      <use xlink:href="#DejaVuSans-6e" x="1109.392578"/>
      <use xlink:href="#DejaVuSans-73" x="1172.771484"/>
      <use xlink:href="#DejaVuSans-69" x="1224.871094"/>
      <use xlink:href="#DejaVuSans-6f" x="1252.654297"/>
      <use xlink:href="#DejaVuSans-6e" x="1313.835938"/>
      <use xlink:href="#DejaVuSans-29" x="1377.214844"/>
     </g>
    </g>
   </g>
   <g id="matplotlib.axis_2">
    <g id="ytick_1">
     <g id="line2d_17">
      <path d="M 57.6 298.944 
L 360.8064 298.944 
" clip-path="url(#p917d36f64a)" style="fill: none; stroke: #b0b0b0; stroke-width: 0.8; stroke-linecap: square"/>
     </g>
     <g id="line2d_18">
      <defs>
       <path id="m9f4c1594d6" d="M 0 0 
L -3.5 0 
" style="stroke: #000000; stroke-width: 0.8"/>
      </defs>
      <g>
       <use xlink:href="#m9f4c1594d6" x="57.6" y="298.944" style="stroke: #000000; stroke-width: 0.8"/>
      </g>
     </g>
     <g id="text_6">
      <!-- 0.0 -->
      <g transform="translate(25.155 305.02275)scale(0.16 -0.16)">
       <defs>
        <path id="DejaVuSans-2e" d="M 684 794 
L 1344 794 
L 1344 0 
L 684 0 
L 684 794 
z
" transform="scale(0.015625)"/>
       </defs>
       <use xlink:href="#DejaVuSans-30"/>
       <use xlink:href="#DejaVuSans-2e" x="63.623047"/>
       <use xlink:href="#DejaVuSans-30" x="95.410156"/>
      </g>
     </g>
    </g>
    <g id="ytick_2">
     <g id="line2d_19">
      <path d="M 57.6 240.5376 
L 360.8064 240.5376 
" clip-path="url(#p917d36f64a)" style="fill: none; stroke: #b0b0b0; stroke-width: 0.8; stroke-linecap: square"/>
     </g>
     <g id="line2d_20">
      <g>
       <use xlink:href="#m9f4c1594d6" x="57.6" y="240.5376" style="stroke: #000000; stroke-width: 0.8"/>
      </g>
     </g>
     <g id="text_7">
      <!-- 0.2 -->
      <g transform="translate(25.155 246.61635)scale(0.16 -0.16)">
       <use xlink:href="#DejaVuSans-30"/>
       <use xlink:href="#DejaVuSans-2e" x="63.623047"/>
       <use xlink:href="#DejaVuSans-32" x="95.410156"/>
      </g>
     </g>
    </g>
    <g id="ytick_3">
     <g id="line2d_21">
      <path d="M 57.6 182.1312 
L 360.8064 182.1312 
" clip-path="url(#p917d36f64a)" style="fill: none; stroke: #b0b0b0; stroke-width: 0.8; stroke-linecap: square"/>
     </g>
     <g id="line2d_22">
      <g>
       <use xlink:href="#m9f4c1594d6" x="57.6" y="182.1312" style="stroke: #000000; stroke-width: 0.8"/>
      </g>
     </g>
     <g id="text_8">
      <!-- 0.4 -->
      <g transform="translate(25.155 188.20995)scale(0.16 -0.16)">
       <use xlink:href="#DejaVuSans-30"/>
       <use xlink:href="#DejaVuSans-2e" x="63.623047"/>
       <use xlink:href="#DejaVuSans-34" x="95.410156"/>
      </g>
     </g>
    </g>
    <g id="ytick_4">
     <g id="line2d_23">
      <path d="M 57.6 123.7248 
L 360.8064 123.7248 
" clip-path="url(#p917d36f64a)" style="fill: none; stroke: #b0b0b0; stroke-width: 0.8; stroke-linecap: square"/>
     </g>
     <g id="line2d_24">
      <g>
       <use xlink:href="#m9f4c1594d6" x="57.6" y="123.7248" style="stroke: #000000; stroke-width: 0.8"/>
      </g>
     </g>
     <g id="text_9">
      <!-- 0.6 -->
      <g transform="translate(25.155 129.80355)scale(0.16 -0.16)">
       <use xlink:href="#DejaVuSans-30"/>
       <use xlink:href="#DejaVuSans-2e" x="63.623047"/>
       <use xlink:href="#DejaVuSans-36" x="95.410156"/>
      </g>
     </g>
    </g>
    <g id="ytick_5">
     <g id="line2d_25">
      <path d="M 57.6 65.3184 
L 360.8064 65.3184 
" clip-path="url(#p917d36f64a)" style="fill: none; stroke: #b0b0b0; stroke-width: 0.8; stroke-linecap: square"/>
     </g>
     <g id="line2d_26">
      <g>
       <use xlink:href="#m9f4c1594d6" x="57.6" y="65.3184" style="stroke: #000000; stroke-width: 0.8"/>
      </g>
     </g>
     <g id="text_10">
      <!-- 0.8 -->
      <g transform="translate(25.155 71.39715)scale(0.16 -0.16)">
       <defs>
        <path id="DejaVuSans-38" d="M 2034 2216 
Q 1584 2216 1326 1975 
Q 1069 1734 1069 1313 
Q 1069 891 1326 650 
Q 1584 409 2034 409 
Q 2484 409 2743 651 
Q 3003 894 3003 1313 
Q 3003 1734 2745 1975 
Q 2488 2216 2034 2216 
z
M 1403 2484 
Q 997 2584 770 2862 
Q 544 3141 544 3541 
Q 544 4100 942 4425 
Q 1341 4750 2034 4750 
Q 2731 4750 3128 4425 
Q 3525 4100 3525 3541 
Q 3525 3141 3298 2862 
Q 3072 2584 2669 2484 
Q 3125 2378 3379 2068 
Q 3634 1759 3634 1313 
Q 3634 634 3220 271 
Q 2806 -91 2034 -91 
Q 1263 -91 848 271 
Q 434 634 434 1313 
Q 434 1759 690 2068 
Q 947 2378 1403 2484 
z
M 1172 3481 
Q 1172 3119 1398 2916 
Q 1625 2713 2034 2713 
Q 2441 2713 2670 2916 
Q 2900 3119 2900 3481 
Q 2900 3844 2670 4047 
Q 2441 4250 2034 4250 
Q 1625 4250 1398 4047 
Q 1172 3844 1172 3481 
z
" transform="scale(0.015625)"/>
       </defs>
       <use xlink:href="#DejaVuSans-30"/>
       <use xlink:href="#DejaVuSans-2e" x="63.623047"/>
       <use xlink:href="#DejaVuSans-38" x="95.410156"/>
      </g>
     </g>
    </g>
    <g id="ytick_6">
     <g id="line2d_27">
      <path d="M 57.6 6.912 
L 360.8064 6.912 
" clip-path="url(#p917d36f64a)" style="fill: none; stroke: #b0b0b0; stroke-width: 0.8; stroke-linecap: square"/>
     </g>
     <g id="line2d_28">
      <g>
       <use xlink:href="#m9f4c1594d6" x="57.6" y="6.912" style="stroke: #000000; stroke-width: 0.8"/>
      </g>
     </g>
     <g id="text_11">
      <!-- 1.0 -->
      <g transform="translate(25.155 12.99075)scale(0.16 -0.16)">
       <use xlink:href="#DejaVuSans-31"/>
       <use xlink:href="#DejaVuSans-2e" x="63.623047"/>
       <use xlink:href="#DejaVuSans-30" x="95.410156"/>
      </g>
     </g>
    </g>
    <g id="text_12">
     <!-- Fraction of function,target pairs -->
     <g transform="translate(17.619531 287.313)rotate(-90)scale(0.17 -0.17)">
      <defs>
       <path id="DejaVuSans-46" d="M 628 4666 
L 3309 4666 
L 3309 4134 
L 1259 4134 
L 1259 2759 
L 3109 2759 
L 3109 2228 
L 1259 2228 
L 1259 0 
L 628 0 
L 628 4666 
z
" transform="scale(0.015625)"/>
       <path id="DejaVuSans-72" d="M 2631 2963 
Q 2534 3019 2420 3045 
Q 2306 3072 2169 3072 
Q 1681 3072 1420 2755 
Q 1159 2438 1159 1844 
L 1159 0 
L 581 0 
L 581 3500 
L 1159 3500 
L 1159 2956 
Q 1341 3275 1631 3429 
Q 1922 3584 2338 3584 
Q 2397 3584 2469 3576 
Q 2541 3569 2628 3553 
L 2631 2963 
z
" transform="scale(0.015625)"/>
       <path id="DejaVuSans-63" d="M 3122 3366 
L 3122 2828 
Q 2878 2963 2633 3030 
Q 2388 3097 2138 3097 
Q 1578 3097 1268 2742 
Q 959 2388 959 1747 
Q 959 1106 1268 751 
Q 1578 397 2138 397 
Q 2388 397 2633 464 
Q 2878 531 3122 666 
L 3122 134 
Q 2881 22 2623 -34 
Q 2366 -91 2075 -91 
Q 1284 -91 818 406 
Q 353 903 353 1747 
Q 353 2603 823 3093 
Q 1294 3584 2113 3584 
Q 2378 3584 2631 3529 
Q 2884 3475 3122 3366 
z
" transform="scale(0.015625)"/>
       <path id="DejaVuSans-74" d="M 1172 4494 
L 1172 3500 
L 2356 3500 
L 2356 3053 
L 1172 3053 
L 1172 1153 
Q 1172 725 1289 603 
Q 1406 481 1766 481 
L 2356 481 
L 2356 0 
L 1766 0 
Q 1100 0 847 248 
Q 594 497 594 1153 
L 594 3053 
L 172 3053 
L 172 3500 
L 594 3500 
L 594 4494 
L 1172 4494 
z
" transform="scale(0.015625)"/>
       <path id="DejaVuSans-75" d="M 544 1381 
L 544 3500 
L 1119 3500 
L 1119 1403 
Q 1119 906 1312 657 
Q 1506 409 1894 409 
Q 2359 409 2629 706 
Q 2900 1003 2900 1516 
L 2900 3500 
L 3475 3500 
L 3475 0 
L 2900 0 
L 2900 538 
Q 2691 219 2414 64 
Q 2138 -91 1772 -91 
Q 1169 -91 856 284 
Q 544 659 544 1381 
z
M 1991 3584 
L 1991 3584 
z
" transform="scale(0.015625)"/>
       <path id="DejaVuSans-2c" d="M 750 794 
L 1409 794 
L 1409 256 
L 897 -744 
L 494 -744 
L 750 256 
L 750 794 
z
" transform="scale(0.015625)"/>
       <path id="DejaVuSans-70" d="M 1159 525 
L 1159 -1331 
L 581 -1331 
L 581 3500 
L 1159 3500 
L 1159 2969 
Q 1341 3281 1617 3432 
Q 1894 3584 2278 3584 
Q 2916 3584 3314 3078 
Q 3713 2572 3713 1747 
Q 3713 922 3314 415 
Q 2916 -91 2278 -91 
Q 1894 -91 1617 61 
Q 1341 213 1159 525 
z
M 3116 1747 
Q 3116 2381 2855 2742 
Q 2594 3103 2138 3103 
Q 1681 3103 1420 2742 
Q 1159 2381 1159 1747 
Q 1159 1113 1420 752 
Q 1681 391 2138 391 
Q 2594 391 2855 752 
Q 3116 1113 3116 1747 
z
" transform="scale(0.015625)"/>
      </defs>
      <use xlink:href="#DejaVuSans-46"/>
      <use xlink:href="#DejaVuSans-72" x="50.269531"/>
      <use xlink:href="#DejaVuSans-61" x="91.382812"/>
      <use xlink:href="#DejaVuSans-63" x="152.662109"/>
      <use xlink:href="#DejaVuSans-74" x="207.642578"/>
      <use xlink:href="#DejaVuSans-69" x="246.851562"/>
      <use xlink:href="#DejaVuSans-6f" x="274.634766"/>
      <use xlink:href="#DejaVuSans-6e" x="335.816406"/>
      <use xlink:href="#DejaVuSans-20" x="399.195312"/>
      <use xlink:href="#DejaVuSans-6f" x="430.982422"/>
      <use xlink:href="#DejaVuSans-66" x="492.164062"/>
      <use xlink:href="#DejaVuSans-20" x="527.369141"/>
      <use xlink:href="#DejaVuSans-66" x="559.15625"/>
      <use xlink:href="#DejaVuSans-75" x="594.361328"/>
      <use xlink:href="#DejaVuSans-6e" x="657.740234"/>
      <use xlink:href="#DejaVuSans-63" x="721.119141"/>
      <use xlink:href="#DejaVuSans-74" x="776.099609"/>
      <use xlink:href="#DejaVuSans-69" x="815.308594"/>
      <use xlink:href="#DejaVuSans-6f" x="843.091797"/>
      <use xlink:href="#DejaVuSans-6e" x="904.273438"/>
      <use xlink:href="#DejaVuSans-2c" x="967.652344"/>
      <use xlink:href="#DejaVuSans-74" x="999.439453"/>
      <use xlink:href="#DejaVuSans-61" x="1038.648438"/>
      <use xlink:href="#DejaVuSans-72" x="1099.927734"/>
      <use xlink:href="#DejaVuSans-67" x="1139.291016"/>
      <use xlink:href="#DejaVuSans-65" x="1202.767578"/>
      <use xlink:href="#DejaVuSans-74" x="1264.291016"/>
      <use xlink:href="#DejaVuSans-20" x="1303.5"/>
      <use xlink:href="#DejaVuSans-70" x="1335.287109"/>
      <use xlink:href="#DejaVuSans-61" x="1398.763672"/>
      <use xlink:href="#DejaVuSans-69" x="1460.042969"/>
      <use xlink:href="#DejaVuSans-72" x="1487.826172"/>
      <use xlink:href="#DejaVuSans-73" x="1528.939453"/>
     </g>
    </g>
   </g>
   <g id="line2d_29">
    <defs>
     <path id="mf307f18c6d" d="M 0 1.5 
C 0.397805 1.5 0.77937 1.341951 1.06066 1.06066 
C 1.341951 0.77937 1.5 0.397805 1.5 0 
C 1.5 -0.397805 1.341951 -0.77937 1.06066 -1.06066 
C 0.77937 -1.341951 0.397805 -1.5 0 -1.5 
C -0.397805 -1.5 -0.77937 -1.341951 -1.06066 -1.06066 
C -1.341951 -0.77937 -1.5 -0.397805 -1.5 0 
C -1.5 0.397805 -1.341951 0.77937 -1.06066 1.06066 
C -0.77937 1.341951 -0.397805 1.5 0 1.5 
z
" style="stroke: #00bfbf"/>
    </defs>
    <g>
     <use xlink:href="#mf307f18c6d" x="210.439029" y="129.450918" style="fill: #00bfbf; stroke: #00bfbf"/>
     <use xlink:href="#mf307f18c6d" x="210.439029" y="129.450918" style="fill: #00bfbf; stroke: #00bfbf"/>
    </g>
   </g>
   <g id="line2d_30">
    <path d="M 44.560826 298.944 
L 44.560826 284.972273 
L 57.6 284.972273 
L 57.6 282.681826 
L 65.227428 282.681826 
L 65.227428 281.536602 
L 70.639174 281.536602 
L 70.639174 280.391379 
L 74.836851 280.391379 
L 74.836851 279.704245 
L 78.266603 279.704245 
L 78.266603 278.788066 
L 81.166416 278.788066 
L 81.166416 278.100932 
L 83.678349 278.100932 
L 83.678349 276.268574 
L 85.894031 276.268574 
L 85.894031 273.520038 
L 89.668958 273.520038 
L 89.668958 273.290993 
L 91.305777 273.290993 
L 91.305777 272.832904 
L 92.811505 272.832904 
L 92.811505 270.771501 
L 94.205591 270.771501 
L 94.205591 269.855322 
L 95.503454 269.855322 
L 95.503454 259.777355 
L 96.717523 259.777355 
L 96.717523 259.090221 
L 97.857967 259.090221 
L 97.857967 256.570729 
L 98.933205 256.570729 
L 98.933205 256.11264 
L 100.9152 256.11264 
L 100.9152 255.654551 
L 101.833019 255.654551 
L 101.833019 254.051238 
L 102.708132 254.051238 
L 102.708132 253.822193 
L 104.344952 253.822193 
L 104.344952 253.593148 
L 105.112877 253.593148 
L 105.112877 252.676969 
L 105.850679 252.676969 
L 105.850679 243.515181 
L 106.560633 243.515181 
L 106.560633 233.666259 
L 107.244765 233.666259 
L 107.244765 223.130202 
L 107.904887 223.130202 
L 107.904887 222.901158 
L 109.756698 222.901158 
L 109.756698 219.694532 
L 110.897141 219.694532 
L 110.897141 210.303699 
L 111.442442 210.303699 
L 111.442442 209.845609 
L 112.989468 209.845609 
L 112.989468 209.38752 
L 113.478107 209.38752 
L 113.478107 209.158475 
L 114.418881 209.158475 
L 114.418881 207.784207 
L 114.872193 207.784207 
L 114.872193 206.868028 
L 116.583514 206.868028 
L 116.583514 206.409939 
L 116.988079 206.409939 
L 116.988079 205.951849 
L 118.152051 205.951849 
L 118.152051 205.264715 
L 118.889854 205.264715 
L 118.889854 204.577581 
L 120.28394 204.577581 
L 120.28394 204.119492 
L 120.944062 204.119492 
L 120.944062 203.203313 
L 121.265635 203.203313 
L 121.265635 202.974268 
L 121.892744 202.974268 
L 121.892744 202.516179 
L 122.499621 202.516179 
L 122.499621 202.287134 
L 122.795872 202.287134 
L 122.795872 202.058089 
L 123.08753 202.058089 
L 123.08753 201.829045 
L 123.374735 201.829045 
L 123.374735 200.912866 
L 123.657621 200.912866 
L 123.657621 199.996687 
L 124.210942 199.996687 
L 124.210942 198.164329 
L 125.271028 198.164329 
L 125.271028 197.935285 
L 125.526971 197.935285 
L 125.526971 197.248151 
L 125.779479 197.248151 
L 125.779479 196.331972 
L 126.756923 196.331972 
L 126.756923 195.873882 
L 127.227236 195.873882 
L 127.227236 195.644838 
L 127.458055 195.644838 
L 127.458055 195.186748 
L 127.911368 195.186748 
L 127.911368 194.957704 
L 128.133992 194.957704 
L 128.133992 194.499614 
L 128.354013 194.499614 
L 128.354013 194.270569 
L 128.999044 194.270569 
L 128.999044 192.667256 
L 129.209231 192.667256 
L 129.209231 192.438212 
L 129.417095 192.438212 
L 129.417095 191.751078 
L 130.4233 191.751078 
L 130.4233 190.834899 
L 130.618241 190.834899 
L 130.618241 190.147765 
L 130.811181 190.147765 
L 130.811181 189.91872 
L 131.002163 189.91872 
L 131.002163 188.773496 
L 131.378407 188.773496 
L 131.378407 188.086362 
L 131.563744 188.086362 
L 131.563744 187.399228 
L 131.747272 187.399228 
L 131.747272 186.941139 
L 131.929028 186.941139 
L 131.929028 186.254005 
L 132.109044 186.254005 
L 132.109044 185.795915 
L 132.287354 185.795915 
L 132.287354 185.337826 
L 132.46399 185.337826 
L 132.46399 184.650692 
L 132.984158 184.650692 
L 132.984158 183.734513 
L 133.490329 183.734513 
L 133.490329 182.589289 
L 133.656071 182.589289 
L 133.656071 182.360245 
L 133.820365 182.360245 
L 133.820365 182.1312 
L 133.983236 182.1312 
L 133.983236 181.444066 
L 134.14471 181.444066 
L 134.14471 180.756932 
L 134.77709 180.756932 
L 134.77709 180.527887 
L 135.388902 180.527887 
L 135.388902 178.695529 
L 135.538796 178.695529 
L 135.538796 178.466485 
L 135.687504 178.466485 
L 135.687504 178.008395 
L 136.270855 178.008395 
L 136.270855 177.779351 
L 137.520791 177.779351 
L 137.520791 177.321261 
L 137.654681 177.321261 
L 137.654681 176.863172 
L 137.919637 176.863172 
L 137.919637 176.176038 
L 138.310202 176.176038 
L 138.310202 175.717948 
L 138.438609 175.717948 
L 138.438609 175.488904 
L 138.566146 175.488904 
L 138.566146 174.801769 
L 138.818654 174.801769 
L 138.818654 174.114635 
L 139.435481 174.114635 
L 139.435481 173.198456 
L 139.796097 173.198456 
L 139.796097 171.366099 
L 139.914782 171.366099 
L 139.914782 170.678965 
L 140.26641 170.678965 
L 140.26641 169.075652 
L 140.49723 169.075652 
L 140.49723 168.846607 
L 140.725251 168.846607 
L 140.725251 168.617562 
L 140.950542 168.617562 
L 140.950542 167.930428 
L 141.062184 167.930428 
L 141.062184 167.701384 
L 141.283499 167.701384 
L 141.283499 166.327115 
L 141.718467 166.327115 
L 141.718467 165.639981 
L 141.932237 165.639981 
L 141.932237 162.891445 
L 142.143605 162.891445 
L 142.143605 162.6624 
L 142.45627 162.6624 
L 142.559347 161.746221 
L 142.966099 161.746221 
L 143.066428 160.830042 
L 143.166224 160.830042 
L 143.265494 159.913864 
L 143.657415 159.913864 
L 143.754133 156.707238 
L 144.041338 156.707238 
L 144.041338 155.562014 
L 144.2304 155.562014 
L 144.2304 155.332969 
L 144.417581 155.332969 
L 144.417581 153.729656 
L 144.602918 153.729656 
L 144.694906 152.126344 
L 147.423525 152.126344 
L 147.423525 151.668254 
L 148.200973 151.668254 
L 148.200973 151.439209 
L 150.152479 151.439209 
L 150.152479 150.752075 
L 151.220087 150.752075 
L 151.220087 150.523031 
L 151.982822 150.523031 
L 151.982822 150.179464 
L 152.352898 150.179464 
L 152.352898 149.950419 
L 152.775647 149.950419 
L 152.775647 149.835896 
L 155.024477 149.835896 
L 155.024477 149.721374 
L 155.28758 149.721374 
L 155.28758 149.606852 
L 155.443693 149.606852 
L 155.443693 149.377807 
L 155.752086 149.377807 
L 155.752086 149.263285 
L 156.005274 149.263285 
L 156.005274 148.919718 
L 156.403417 148.919718 
L 156.501649 147.889016 
L 156.648044 147.889016 
L 156.648044 147.430927 
L 156.88953 147.430927 
L 156.937458 146.972838 
L 157.032948 146.972838 
L 157.032948 146.743793 
L 157.222487 146.743793 
L 157.269574 145.598569 
L 157.410135 145.598569 
L 157.410135 145.484047 
L 157.595929 145.484047 
L 157.688143 144.911435 
L 159.14782 144.911435 
L 159.14782 144.453346 
L 160.263211 144.453346 
L 160.263211 144.338824 
L 161.728786 144.338824 
L 161.728786 144.109779 
L 162.949812 144.109779 
L 162.949812 143.880734 
L 163.865975 143.880734 
L 163.865975 143.422645 
L 164.2268 143.422645 
L 164.2268 143.308122 
L 164.420735 143.308122 
L 164.484939 142.964555 
L 164.548924 142.964555 
L 164.644495 142.506466 
L 164.834193 142.506466 
L 164.897003 142.048376 
L 165.021997 142.048376 
L 165.053116 140.788631 
L 165.146166 140.788631 
L 165.146166 140.559586 
L 165.269521 140.559586 
L 165.330896 140.101496 
L 166.315707 140.101496 
L 166.315707 139.986974 
L 167.796816 139.986974 
L 167.796816 139.872452 
L 168.116567 139.872452 
L 168.116567 139.643407 
L 168.274427 139.643407 
L 168.274427 139.414362 
L 168.994082 139.414362 
L 168.994082 139.29984 
L 170.167131 139.29984 
L 170.238073 138.841751 
L 170.519197 138.841751 
L 170.61198 138.040094 
L 173.141258 138.040094 
L 173.141258 137.467482 
L 173.56131 137.467482 
L 173.56131 137.35296 
L 174.087951 137.35296 
L 174.087951 137.238438 
L 174.298352 137.238438 
L 174.298352 137.009393 
L 174.487605 137.009393 
L 174.544011 136.665826 
L 174.656319 136.665826 
L 174.693607 136.322259 
L 174.767961 136.322259 
L 174.842022 134.947991 
L 174.95257 134.947991 
L 174.95257 134.718946 
L 176.671876 134.718946 
L 176.772205 134.489901 
L 176.888582 134.489901 
L 176.888582 134.375379 
L 178.045592 134.375379 
L 178.045592 134.260856 
L 178.169864 134.260856 
L 178.247119 133.688245 
L 179.427429 133.688245 
L 179.427429 133.573722 
L 180.011995 133.573722 
L 180.011995 133.344678 
L 180.674054 133.344678 
L 180.674054 133.230155 
L 180.996545 133.230155 
L 180.996545 133.115633 
L 181.155741 133.115633 
L 181.168947 132.886588 
L 182.530946 132.886588 
L 182.530946 132.772066 
L 182.689901 132.772066 
L 182.689901 132.543021 
L 183.488484 132.543021 
L 183.546742 132.313976 
L 183.68583 132.313976 
L 183.697374 131.970409 
L 184.893403 131.970409 
L 184.893403 131.855887 
L 185.79213 131.855887 
L 185.79213 131.626842 
L 187.871955 131.626842 
L 187.871955 131.51232 
L 188.993357 131.51232 
L 188.993357 131.397798 
L 189.500298 131.397798 
L 189.500298 131.283275 
L 189.711051 131.283275 
L 189.711051 131.168753 
L 190.595307 131.168753 
L 190.698996 130.939708 
L 191.239978 130.939708 
L 191.239978 130.825186 
L 191.386253 130.825186 
L 191.386253 130.710664 
L 192.167364 130.710664 
L 192.262761 130.481619 
L 192.689739 130.481619 
L 192.689739 130.367096 
L 192.896109 130.367096 
L 192.896109 130.252574 
L 193.70645 130.252574 
L 193.70645 130.138052 
L 194.293734 130.138052 
L 194.293734 130.023529 
L 195.57012 130.023529 
L 195.57012 129.909007 
L 196.298711 129.909007 
L 196.298711 129.794485 
L 200.998743 129.794485 
L 200.998743 129.679962 
L 205.210216 129.679962 
L 205.210216 129.56544 
L 210.439029 129.56544 
L 210.439029 129.450918 
L 360.8064 129.450918 
L 360.8064 129.450918 
" style="fill: none; stroke: #00bfbf; stroke-width: 1.5; stroke-linecap: square"/>
   </g>
   <g id="line2d_31">
    <defs>
     <path id="m76db2e50e5" d="M -6 0 
L 6 0 
M 0 6 
L 0 -6 
" style="stroke: #00bfbf; stroke-width: 1.5"/>
    </defs>
    <g>
     <use xlink:href="#m76db2e50e5" x="94.205591" y="269.855322" style="fill-opacity: 0; stroke: #00bfbf; stroke-width: 1.5"/>
     <use xlink:href="#m76db2e50e5" x="132.984158" y="184.650692" style="fill-opacity: 0; stroke: #00bfbf; stroke-width: 1.5"/>
     <use xlink:href="#m76db2e50e5" x="160.263211" y="144.453346" style="fill-opacity: 0; stroke: #00bfbf; stroke-width: 1.5"/>
     <use xlink:href="#m76db2e50e5" x="210.439029" y="129.56544" style="fill-opacity: 0; stroke: #00bfbf; stroke-width: 1.5"/>
     <use xlink:href="#m76db2e50e5" x="210.439029" y="129.450918" style="fill-opacity: 0; stroke: #00bfbf; stroke-width: 1.5"/>
     <use xlink:href="#m76db2e50e5" x="360.8064" y="129.450918" style="fill-opacity: 0; stroke: #00bfbf; stroke-width: 1.5"/>
    </g>
   </g>
   <g id="line2d_32">
    <path style="fill: none; stroke: #00bfbf; stroke-width: 1.5; stroke-linecap: square"/>
    <g/>
   </g>
   <g id="line2d_33">
    <path d="M 144.694906 152.126344 
" clip-path="url(#p917d36f64a)" style="fill: none; stroke: #00bfbf; stroke-width: 1.5; stroke-linecap: square"/>
    <defs>
     <path id="m2eac818e8c" d="M -12 12 
L 12 -12 
M -12 -12 
L 12 12 
" style="stroke: #00bfbf"/>
    </defs>
    <g clip-path="url(#p917d36f64a)">
     <use xlink:href="#m2eac818e8c" x="144.694906" y="152.126344" style="fill: #00bfbf; stroke: #00bfbf"/>
    </g>
   </g>
   <g id="line2d_34">
    <defs>
     <path id="m4e9153e764" d="M 0 1.5 
C 0.397805 1.5 0.77937 1.341951 1.06066 1.06066 
C 1.341951 0.77937 1.5 0.397805 1.5 0 
C 1.5 -0.397805 1.341951 -0.77937 1.06066 -1.06066 
C 0.77937 -1.341951 0.397805 -1.5 0 -1.5 
C -0.397805 -1.5 -0.77937 -1.341951 -1.06066 -1.06066 
C -1.341951 -0.77937 -1.5 -0.397805 -1.5 0 
C -1.5 0.397805 -1.341951 0.77937 -1.06066 1.06066 
C -0.77937 1.341951 -0.397805 1.5 0 1.5 
z
" style="stroke: #008000"/>
    </defs>
    <g>
     <use xlink:href="#m4e9153e764" x="203.306381" y="139.757929" style="fill: #008000; stroke: #008000"/>
     <use xlink:href="#m4e9153e764" x="203.306381" y="139.757929" style="fill: #008000; stroke: #008000"/>
    </g>
   </g>
   <g id="line2d_35">
    <path d="M 36.933397 298.944 
L 36.933397 289.324122 
L 49.972572 289.324122 
L 49.972572 287.720809 
L 57.6 287.720809 
L 57.6 287.033675 
L 63.011746 287.033675 
L 63.011746 285.659407 
L 67.209423 285.659407 
L 67.209423 284.972273 
L 70.639174 284.972273 
L 70.639174 284.514184 
L 73.538988 284.514184 
L 73.538988 284.285139 
L 76.050921 284.285139 
L 76.050921 282.681826 
L 80.248597 282.681826 
L 80.248597 282.452781 
L 82.04153 282.452781 
L 82.04153 281.994692 
L 83.678349 281.994692 
L 83.678349 281.536602 
L 85.184077 281.536602 
L 85.184077 281.078513 
L 86.578163 281.078513 
L 86.578163 279.933289 
L 87.876026 279.933289 
L 87.876026 279.246155 
L 89.090095 279.246155 
L 89.090095 277.871887 
L 90.230539 277.871887 
L 90.230539 277.413798 
L 91.305777 277.413798 
L 91.305777 277.184753 
L 92.322865 277.184753 
L 92.322865 276.955708 
L 93.287772 276.955708 
L 93.287772 276.726664 
L 97.485448 276.726664 
L 97.485448 276.497619 
L 98.933205 276.497619 
L 98.933205 275.58144 
L 99.617337 275.58144 
L 99.617337 275.123351 
L 100.277459 275.123351 
L 100.277459 274.665261 
L 100.9152 274.665261 
L 100.9152 263.442071 
L 101.532027 263.442071 
L 101.532027 253.593148 
L 102.708132 253.593148 
L 102.708132 253.364104 
L 104.860369 253.364104 
L 104.860369 252.447925 
L 105.36204 252.447925 
L 105.36204 240.995689 
L 106.326946 240.995689 
L 106.326946 239.850466 
L 108.119879 239.850466 
L 108.119879 238.934287 
L 109.360651 238.934287 
L 109.360651 238.705242 
L 110.144579 238.705242 
L 110.144579 228.169186 
L 110.524623 228.169186 
L 110.524623 227.940141 
L 110.897141 227.940141 
L 110.897141 218.320264 
L 111.97238 218.320264 
L 111.97238 217.862174 
L 113.638206 217.862174 
L 113.638206 217.17504 
L 114.571202 217.17504 
L 114.571202 216.258861 
L 115.747307 216.258861 
L 115.747307 215.800772 
L 116.308887 215.800772 
L 116.308887 215.571727 
L 117.384126 215.571727 
L 117.384126 215.342682 
L 117.899543 215.342682 
L 117.899543 215.113638 
L 118.401214 215.113638 
L 118.401214 214.884593 
L 119.366121 214.884593 
L 119.366121 214.655548 
L 119.599808 214.655548 
L 119.599808 214.197459 
L 120.726585 214.197459 
L 120.726585 213.968414 
L 120.944062 213.968414 
L 120.944062 213.739369 
L 121.371615 213.739369 
L 121.371615 213.510325 
L 121.581803 213.510325 
L 121.581803 213.28128 
L 121.789667 213.28128 
L 121.789667 213.052235 
L 121.99526 213.052235 
L 121.99526 212.823191 
L 122.19863 212.823191 
L 122.19863 212.365101 
L 122.399825 212.365101 
L 122.399825 211.907012 
L 122.598891 211.907012 
L 122.598891 211.448922 
L 122.990812 211.448922 
L 122.990812 210.761788 
L 123.183753 210.761788 
L 123.183753 210.532744 
L 123.374735 210.532744 
L 123.374735 210.303699 
L 123.563797 210.303699 
L 123.563797 210.074654 
L 123.750979 210.074654 
L 123.750979 209.845609 
L 125.011554 209.845609 
L 125.011554 208.929431 
L 125.184934 208.929431 
L 125.184934 208.242296 
L 125.35673 208.242296 
L 125.35673 207.784207 
L 125.526971 207.784207 
L 125.526971 207.097073 
L 125.695686 207.097073 
L 125.695686 206.409939 
L 126.517282 206.409939 
L 126.517282 205.951849 
L 127.149662 205.951849 
L 127.149662 205.722805 
L 127.304491 205.722805 
L 127.304491 205.49376 
L 127.610376 205.49376 
L 127.610376 205.264715 
L 127.911368 205.264715 
L 127.911368 205.035671 
L 128.060076 205.035671 
L 128.060076 204.806626 
L 128.207619 204.806626 
L 128.207619 204.577581 
L 129.069367 204.577581 
L 129.069367 204.348536 
L 129.209231 204.348536 
L 129.209231 203.890447 
L 129.485876 203.890447 
L 129.485876 202.516179 
L 129.622688 202.516179 
L 129.622688 202.058089 
L 130.160198 202.058089 
L 130.160198 201.829045 
L 130.292209 201.829045 
L 130.292209 200.912866 
L 130.553485 200.912866 
L 130.553485 200.683821 
L 130.938718 200.683821 
L 130.938718 200.225732 
L 131.191226 200.225732 
L 131.191226 199.080508 
L 131.563744 199.080508 
L 131.563744 198.851464 
L 131.686295 198.851464 
L 131.686295 198.622419 
L 131.929028 198.622419 
L 131.929028 198.393374 
L 132.638982 198.393374 
L 132.638982 197.70624 
L 132.754746 197.70624 
L 132.754746 196.331972 
L 132.869802 196.331972 
L 132.869802 195.644838 
L 132.984158 195.644838 
L 132.984158 195.186748 
L 133.545739 195.186748 
L 133.656071 194.270569 
L 134.091039 194.270569 
L 134.198228 191.751078 
L 134.516177 191.751078 
L 134.620977 191.063944 
L 134.931919 191.063944 
L 135.034434 190.605854 
L 135.136394 190.605854 
L 135.237805 189.91872 
L 135.338671 189.91872 
L 135.438999 188.544452 
L 135.835047 188.544452 
L 135.835047 188.315407 
L 136.029987 188.315407 
L 136.029987 186.941139 
L 136.602972 186.941139 
L 136.696795 186.02496 
L 136.88305 186.02496 
L 136.88305 185.337826 
L 137.067478 185.337826 
L 137.067478 183.963558 
L 137.520791 183.963558 
L 137.610157 183.505468 
L 137.699101 183.505468 
L 137.787626 182.360245 
L 137.875736 182.360245 
L 137.875736 182.1312 
L 138.050729 182.1312 
L 138.050729 181.902155 
L 138.224108 181.902155 
L 138.224108 181.444066 
L 138.481218 181.444066 
L 138.481218 180.756932 
L 138.818654 180.756932 
L 138.818654 180.527887 
L 139.150143 180.527887 
L 139.232111 179.382664 
L 139.475893 179.382664 
L 139.556456 177.779351 
L 139.636676 177.779351 
L 139.636676 177.550306 
L 139.875304 177.550306 
L 139.875304 177.092216 
L 140.032723 177.092216 
L 140.110942 175.488904 
L 140.188837 175.488904 
L 140.188837 175.030814 
L 140.49723 175.030814 
L 140.49723 174.572725 
L 140.725251 174.572725 
L 140.800648 173.427501 
L 140.875745 173.427501 
L 140.875745 172.969412 
L 141.025043 172.969412 
L 141.025043 172.053233 
L 141.173167 172.053233 
L 141.246793 171.137054 
L 141.465959 171.137054 
L 141.465959 170.908009 
L 141.610664 170.908009 
L 141.682602 169.762786 
L 141.96763 169.762786 
L 142.038218 168.846607 
L 142.108542 168.846607 
L 142.108542 168.388518 
L 142.248405 168.388518 
L 142.317949 167.930428 
L 142.45627 167.930428 
L 142.45627 167.701384 
L 142.661862 167.701384 
L 142.729897 165.639981 
L 142.797687 165.639981 
L 142.865233 164.265713 
L 143.133017 164.265713 
L 143.199372 163.578579 
L 143.265494 163.578579 
L 143.331383 162.433355 
L 143.397043 162.433355 
L 143.397043 161.059087 
L 143.52768 161.059087 
L 143.592659 158.539595 
L 143.721949 158.539595 
L 143.721949 158.310551 
L 143.850356 158.310551 
L 143.914232 157.394372 
L 144.10457 157.394372 
L 144.16759 156.478193 
L 144.355394 156.478193 
L 144.355394 156.020104 
L 149.31003 156.020104 
L 149.31003 155.905581 
L 153.111048 155.905581 
L 153.111048 155.791059 
L 153.914919 155.791059 
L 153.914919 155.562014 
L 154.101358 155.562014 
L 154.101358 155.332969 
L 154.829169 155.332969 
L 154.829169 155.218447 
L 155.006805 155.218447 
L 155.112587 154.989402 
L 155.147716 154.989402 
L 155.147716 154.87488 
L 155.357123 154.87488 
L 155.391799 154.645835 
L 155.564225 154.645835 
L 155.666927 154.416791 
L 155.701037 154.416791 
L 155.802997 153.958701 
L 155.870664 153.958701 
L 155.904407 153.500612 
L 156.005274 153.500612 
L 156.005274 153.386089 
L 156.238546 153.386089 
L 156.304668 152.813478 
L 156.370558 152.813478 
L 156.403417 152.584433 
L 156.566854 152.584433 
L 156.664239 150.866598 
L 156.793307 150.866598 
L 156.88953 150.293986 
L 156.921495 150.293986 
L 157.017067 148.461628 
L 157.175281 148.461628 
L 157.175281 148.232584 
L 157.300901 148.232584 
L 157.394569 147.774494 
L 160.034538 147.774494 
L 160.034538 147.659972 
L 161.888886 147.659972 
L 161.888886 147.545449 
L 162.775144 147.545449 
L 162.775144 147.430927 
L 163.554297 147.430927 
L 163.554297 147.316405 
L 163.710781 147.316405 
L 163.710781 146.972838 
L 163.910081 146.972838 
L 163.910081 146.858315 
L 164.041785 146.858315 
L 164.041785 146.743793 
L 164.410013 146.743793 
L 164.495618 146.285704 
L 164.623299 146.285704 
L 164.70794 146.056659 
L 164.771172 146.056659 
L 164.813209 144.796913 
L 168.134173 144.796913 
L 168.134173 144.453346 
L 168.77426 144.453346 
L 168.77426 144.338824 
L 169.458999 144.338824 
L 169.458999 144.224301 
L 170.135514 144.224301 
L 170.245939 143.1936 
L 170.324419 143.1936 
L 170.386968 142.964555 
L 173.315751 142.964555 
L 173.315751 142.850033 
L 174.393216 142.850033 
L 174.481327 142.391944 
L 177.820865 142.391944 
L 177.862878 142.162899 
L 177.936177 142.162899 
L 177.936177 141.819332 
L 180.827031 141.819332 
L 180.853898 141.475765 
L 182.358249 141.475765 
L 182.358249 141.361242 
L 183.324394 141.361242 
L 183.324394 141.24672 
L 184.701095 141.24672 
L 184.701095 141.017675 
L 185.584495 141.017675 
L 185.605362 140.788631 
L 187.595697 140.788631 
L 187.595697 140.559586 
L 189.395451 140.559586 
L 189.395451 140.330541 
L 190.364619 140.330541 
L 190.364619 140.216019 
L 191.022322 140.216019 
L 191.022322 140.101496 
L 193.946692 140.101496 
L 193.946692 139.986974 
L 194.869609 139.986974 
L 194.869609 139.872452 
L 203.306381 139.872452 
L 203.306381 139.757929 
L 360.8064 139.757929 
L 360.8064 139.757929 
" style="fill: none; stroke: #008000; stroke-width: 1.5; stroke-linecap: square"/>
   </g>
   <g id="line2d_36">
    <defs>
     <path id="m30557e3eb1" d="M -0 6 
L 6 -6 
L -6 -6 
z
" style="stroke: #008000; stroke-width: 1.5; stroke-linejoin: miter"/>
    </defs>
    <g>
     <use xlink:href="#m30557e3eb1" x="93.287772" y="276.726664" style="fill-opacity: 0; stroke: #008000; stroke-width: 1.5; stroke-linejoin: miter"/>
     <use xlink:href="#m30557e3eb1" x="127.911368" y="205.264715" style="fill-opacity: 0; stroke: #008000; stroke-width: 1.5; stroke-linejoin: miter"/>
     <use xlink:href="#m30557e3eb1" x="194.869609" y="139.872452" style="fill-opacity: 0; stroke: #008000; stroke-width: 1.5; stroke-linejoin: miter"/>
     <use xlink:href="#m30557e3eb1" x="203.306381" y="139.757929" style="fill-opacity: 0; stroke: #008000; stroke-width: 1.5; stroke-linejoin: miter"/>
     <use xlink:href="#m30557e3eb1" x="203.306381" y="139.757929" style="fill-opacity: 0; stroke: #008000; stroke-width: 1.5; stroke-linejoin: miter"/>
     <use xlink:href="#m30557e3eb1" x="360.8064" y="139.757929" style="fill-opacity: 0; stroke: #008000; stroke-width: 1.5; stroke-linejoin: miter"/>
    </g>
   </g>
   <g id="line2d_37">
    <path style="fill: none; stroke: #008000; stroke-width: 1.5; stroke-linecap: square"/>
    <g/>
   </g>
   <g id="line2d_38">
    <path d="M 144.355394 156.020104 
" clip-path="url(#p917d36f64a)" style="fill: none; stroke: #008000; stroke-width: 1.5; stroke-linecap: square"/>
    <defs>
     <path id="m437143d3e8" d="M -12 12 
L 12 -12 
M -12 -12 
L 12 12 
" style="stroke: #008000"/>
    </defs>
    <g clip-path="url(#p917d36f64a)">
     <use xlink:href="#m437143d3e8" x="144.355394" y="156.020104" style="fill: #008000; stroke: #008000"/>
    </g>
   </g>
   <g id="line2d_39">
    <defs>
     <path id="m3e310e7877" d="M 0 1.5 
C 0.397805 1.5 0.77937 1.341951 1.06066 1.06066 
C 1.341951 0.77937 1.5 0.397805 1.5 0 
C 1.5 -0.397805 1.341951 -0.77937 1.06066 -1.06066 
C 0.77937 -1.341951 0.397805 -1.5 0 -1.5 
C -0.397805 -1.5 -0.77937 -1.341951 -1.06066 -1.06066 
C -1.341951 -0.77937 -1.5 -0.397805 -1.5 0 
C -1.5 0.397805 -1.341951 0.77937 -1.06066 1.06066 
C -0.77937 1.341951 -0.397805 1.5 0 1.5 
z
" style="stroke: #0000ff"/>
    </defs>
    <g>
     <use xlink:href="#m3e310e7877" x="187.695494" y="163.807624" style="fill: #0000ff; stroke: #0000ff"/>
     <use xlink:href="#m3e310e7877" x="187.695494" y="163.807624" style="fill: #0000ff; stroke: #0000ff"/>
    </g>
   </g>
   <g id="line2d_40">
    <path d="M 27.323974 298.944 
L 27.323974 295.279285 
L 47.990577 295.279285 
L 47.990577 294.821195 
L 53.402323 294.821195 
L 53.402323 294.592151 
L 57.6 294.592151 
L 57.6 294.363106 
L 61.029752 294.363106 
L 61.029752 293.675972 
L 63.929565 293.675972 
L 63.929565 293.217882 
L 68.65718 293.217882 
L 68.65718 292.988838 
L 70.639174 292.988838 
L 70.639174 292.530748 
L 72.432107 292.530748 
L 72.432107 291.843614 
L 74.068926 291.843614 
L 74.068926 291.385525 
L 75.574654 291.385525 
L 75.574654 291.15648 
L 76.96874 291.15648 
L 76.96874 290.927435 
L 79.480672 290.927435 
L 79.480672 290.469346 
L 80.621116 290.469346 
L 80.621116 290.240301 
L 81.696354 290.240301 
L 81.696354 288.636988 
L 82.713442 288.636988 
L 82.713442 288.178899 
L 83.678349 288.178899 
L 83.678349 287.26272 
L 84.596168 287.26272 
L 84.596168 287.033675 
L 85.471281 287.033675 
L 85.471281 286.804631 
L 86.307488 286.804631 
L 86.307488 286.575586 
L 88.613828 286.575586 
L 88.613828 286.117496 
L 91.305777 286.117496 
L 91.305777 285.888452 
L 91.922605 285.888452 
L 91.922605 285.201318 
L 92.519847 285.201318 
L 92.519847 284.743228 
L 93.66029 284.743228 
L 93.66029 284.285139 
L 94.205591 284.285139 
L 94.205591 283.827049 
L 95.250946 283.827049 
L 95.250946 283.36896 
L 96.241256 283.36896 
L 96.241256 283.139915 
L 96.717523 283.139915 
L 96.717523 282.910871 
L 97.18203 282.910871 
L 97.18203 282.681826 
L 97.635342 282.681826 
L 97.635342 282.452781 
L 98.077987 282.452781 
L 98.077987 271.68768 
L 98.510456 271.68768 
L 98.510456 271.458635 
L 98.933205 271.458635 
L 98.933205 261.609713 
L 99.751228 261.609713 
L 99.751228 260.693534 
L 100.9152 260.693534 
L 100.9152 260.0064 
L 101.287718 260.0064 
L 101.287718 259.777355 
L 101.653002 259.777355 
L 101.653002 259.548311 
L 102.708132 259.548311 
L 102.708132 259.090221 
L 103.047088 259.090221 
L 103.047088 257.944998 
L 104.344952 257.944998 
L 104.344952 257.257864 
L 104.655893 257.257864 
L 104.655893 255.883595 
L 104.961779 255.883595 
L 104.961779 255.654551 
L 105.850679 255.654551 
L 105.850679 255.425506 
L 106.137884 255.425506 
L 106.137884 253.822193 
L 106.42077 253.822193 
L 106.42077 253.593148 
L 106.974091 253.593148 
L 106.974091 252.906014 
L 107.244765 252.906014 
L 107.244765 252.676969 
L 108.29012 252.676969 
L 108.29012 243.973271 
L 109.520071 243.973271 
L 109.520071 243.515181 
L 111.334639 243.515181 
L 111.334639 243.057092 
L 111.54963 243.057092 
L 111.54963 233.666259 
L 111.762192 233.666259 
L 111.762192 233.208169 
L 112.180244 233.208169 
L 112.180244 232.75008 
L 112.385837 232.75008 
L 112.385837 232.521035 
L 112.589207 232.521035 
L 112.589207 232.062946 
L 112.790402 232.062946 
L 112.790402 231.833901 
L 113.186449 231.833901 
L 113.186449 231.604856 
L 113.765312 231.604856 
L 113.765312 230.917722 
L 114.141556 230.917722 
L 114.141556 222.443068 
L 114.692177 222.443068 
L 114.692177 222.214024 
L 114.872193 222.214024 
L 114.872193 221.984979 
L 115.227139 221.984979 
L 115.227139 221.0688 
L 115.402131 221.0688 
L 115.402131 220.610711 
L 118.152051 220.610711 
L 118.152051 220.152621 
L 118.450653 220.152621 
L 118.450653 219.694532 
L 119.319033 219.694532 
L 119.319033 219.465487 
L 120.550775 219.465487 
L 120.550775 219.236442 
L 120.813877 219.236442 
L 120.813877 219.007398 
L 120.944062 219.007398 
L 120.944062 218.778353 
L 121.706797 218.778353 
L 121.706797 218.320264 
L 121.954321 218.320264 
L 121.954321 217.633129 
L 122.076872 217.633129 
L 122.076872 217.17504 
L 122.19863 217.17504 
L 122.19863 216.716951 
L 123.936316 216.716951 
L 123.936316 216.487906 
L 124.481616 216.487906 
L 124.588805 215.800772 
L 125.219419 215.800772 
L 125.322496 215.113638 
L 125.526971 215.113638 
L 125.526971 214.884593 
L 126.323346 214.884593 
L 126.420564 214.197459 
L 126.517282 214.197459 
L 126.517282 213.739369 
L 126.709238 213.739369 
L 126.709238 213.28128 
L 127.640693 213.28128 
L 127.640693 213.052235 
L 127.911368 213.052235 
L 128.000734 212.136056 
L 128.089678 212.136056 
L 128.089678 210.761788 
L 128.700779 210.761788 
L 128.700779 210.532744 
L 128.956723 210.532744 
L 128.956723 209.845609 
L 129.292652 209.845609 
L 129.292652 209.158475 
L 130.107132 209.158475 
L 130.107132 208.929431 
L 130.887807 208.929431 
L 130.964122 208.013252 
L 131.115828 208.013252 
L 131.115828 207.784207 
L 131.489828 207.784207 
L 131.489828 207.555162 
L 131.71071 207.555162 
L 131.71071 207.326118 
L 132.001241 207.326118 
L 132.073179 206.409939 
L 132.216233 206.409939 
L 132.216233 205.722805 
L 132.428795 205.722805 
L 132.428795 205.49376 
L 132.56918 205.49376 
L 132.56918 205.264715 
L 132.708526 205.264715 
L 132.708526 204.577581 
L 133.188264 204.577581 
L 133.188264 204.348536 
L 133.523594 204.348536 
L 133.589949 203.890447 
L 133.72196 203.890447 
L 133.72196 203.432358 
L 133.918257 203.432358 
L 133.918257 202.974268 
L 134.047992 202.974268 
L 134.112526 202.058089 
L 134.683578 202.058089 
L 134.683578 201.829045 
L 134.931919 201.829045 
L 134.931919 201.370955 
L 135.116046 201.370955 
L 135.116046 200.683821 
L 135.538796 200.683821 
L 135.59842 199.996687 
L 135.657857 199.996687 
L 135.717106 199.309553 
L 135.893741 199.309553 
L 135.893741 199.080508 
L 136.010584 199.080508 
L 136.068734 198.622419 
L 136.584151 198.622419 
L 136.584151 198.164329 
L 136.752866 198.164329 
L 136.752866 197.935285 
L 136.864507 197.935285 
L 136.92008 197.477195 
L 137.085822 197.477195 
L 137.085822 197.248151 
L 137.304564 197.248151 
L 137.358854 196.102927 
L 137.466966 196.102927 
L 137.574461 195.644838 
L 137.734561 195.644838 
L 137.787626 194.728659 
L 138.154948 194.728659 
L 138.206842 194.270569 
L 138.412998 194.270569 
L 138.515235 193.81248 
L 138.566146 193.81248 
L 138.566146 193.354391 
L 138.718057 193.354391 
L 138.818654 192.667256 
L 138.868751 192.667256 
L 138.868751 192.438212 
L 139.018248 192.438212 
L 139.067817 191.292988 
L 139.166565 191.292988 
L 139.215746 189.91872 
L 139.411192 189.91872 
L 139.459738 189.460631 
L 139.556456 189.460631 
L 139.652679 188.773496 
L 139.748412 188.773496 
L 139.748412 188.086362 
L 139.891105 188.086362 
L 139.891105 187.628273 
L 140.126547 187.628273 
L 140.219905 186.941139 
L 140.26641 186.941139 
L 140.359078 186.02496 
L 140.543056 186.02496 
L 140.634374 185.566871 
L 140.725251 185.566871 
L 140.815692 185.108781 
L 140.860749 185.108781 
L 140.860749 184.650692 
L 140.995278 184.650692 
L 140.995278 184.421647 
L 141.349389 184.421647 
L 141.349389 184.192602 
L 141.56737 184.192602 
L 141.610664 183.734513 
L 141.825656 183.734513 
L 141.910969 182.818334 
L 142.038218 182.818334 
L 142.122575 181.444066 
L 142.164612 181.444066 
L 142.248405 180.527887 
L 142.373399 180.527887 
L 142.373399 179.611708 
L 142.579895 179.611708 
L 142.579895 179.382664 
L 142.702713 179.382664 
L 142.702713 178.924574 
L 142.945969 178.924574 
L 143.02636 178.466485 
L 143.066428 178.466485 
L 143.066428 178.23744 
L 143.265494 178.23744 
L 143.344534 177.092216 
L 143.38393 177.092216 
L 143.462475 176.405082 
L 143.501625 176.405082 
L 143.579681 175.946993 
L 143.811926 175.946993 
L 143.888708 175.259859 
L 144.003296 175.259859 
L 144.041338 173.885591 
L 144.155003 173.885591 
L 144.192739 173.198456 
L 144.417581 173.198456 
L 144.417581 172.511322 
L 153.305585 172.511322 
L 153.305585 172.3968 
L 154.344662 172.3968 
L 154.344662 172.282278 
L 154.584859 172.282278 
L 154.606544 172.053233 
L 154.86483 172.053233 
L 154.886195 171.824188 
L 155.013876 171.824188 
L 155.013876 171.595144 
L 155.433326 171.595144 
L 155.433326 171.480621 
L 155.741887 171.480621 
L 155.741887 171.366099 
L 156.105602 171.366099 
L 156.105602 171.251576 
L 156.304668 171.251576 
L 156.363979 170.678965 
L 156.462418 170.678965 
L 156.560344 170.44992 
L 156.618856 170.44992 
L 156.618856 170.335398 
L 156.774003 170.335398 
L 156.774003 170.106353 
L 156.927882 170.106353 
L 156.985263 169.533741 
L 157.04247 169.533741 
L 157.04247 169.419219 
L 157.250754 169.419219 
L 157.269574 168.617562 
L 162.817213 168.617562 
L 162.817213 168.50304 
L 163.79962 168.50304 
L 163.79962 168.388518 
L 164.181259 168.388518 
L 164.181259 168.044951 
L 164.336942 168.044951 
L 164.336942 167.930428 
L 164.529751 167.930428 
L 164.63178 167.243294 
L 164.909539 167.243294 
L 164.959603 166.785205 
L 169.928705 166.785205 
L 169.957476 166.441638 
L 170.402572 166.441638 
L 170.402572 166.098071 
L 174.157069 166.098071 
L 174.264083 165.869026 
L 174.618958 165.869026 
L 174.618958 165.525459 
L 177.568925 165.525459 
L 177.568925 165.410936 
L 177.766107 165.410936 
L 177.766107 165.296414 
L 178.061171 165.296414 
L 178.061171 165.067369 
L 180.830615 165.067369 
L 180.830615 164.838325 
L 180.948523 164.838325 
L 180.948523 164.723802 
L 183.366726 164.723802 
L 183.469803 164.494758 
L 183.488484 164.494758 
L 183.488484 164.265713 
L 185.709351 164.265713 
L 185.709351 164.151191 
L 187.519245 164.151191 
L 187.519245 164.036668 
L 187.695494 164.036668 
L 187.695494 163.807624 
L 360.8064 163.807624 
L 360.8064 163.807624 
" style="fill: none; stroke: #0000ff; stroke-width: 1.5; stroke-linecap: square"/>
   </g>
   <g id="line2d_41">
    <defs>
     <path id="me8ec2a5864" d="M 0 -6 
L -1.347084 -1.854102 
L -5.706339 -1.854102 
L -2.179628 0.708204 
L -3.526712 4.854102 
L -0 2.291796 
L 3.526712 4.854102 
L 2.179628 0.708204 
L 5.706339 -1.854102 
L 1.347084 -1.854102 
z
" style="stroke: #0000ff; stroke-width: 1.5; stroke-linejoin: bevel"/>
    </defs>
    <g>
     <use xlink:href="#me8ec2a5864" x="84.596168" y="287.033675" style="fill-opacity: 0; stroke: #0000ff; stroke-width: 1.5; stroke-linejoin: bevel"/>
     <use xlink:href="#me8ec2a5864" x="128.956723" y="209.845609" style="fill-opacity: 0; stroke: #0000ff; stroke-width: 1.5; stroke-linejoin: bevel"/>
     <use xlink:href="#me8ec2a5864" x="187.695494" y="164.036668" style="fill-opacity: 0; stroke: #0000ff; stroke-width: 1.5; stroke-linejoin: bevel"/>
     <use xlink:href="#me8ec2a5864" x="187.695494" y="163.807624" style="fill-opacity: 0; stroke: #0000ff; stroke-width: 1.5; stroke-linejoin: bevel"/>
     <use xlink:href="#me8ec2a5864" x="187.695494" y="163.807624" style="fill-opacity: 0; stroke: #0000ff; stroke-width: 1.5; stroke-linejoin: bevel"/>
     <use xlink:href="#me8ec2a5864" x="360.8064" y="163.807624" style="fill-opacity: 0; stroke: #0000ff; stroke-width: 1.5; stroke-linejoin: bevel"/>
    </g>
   </g>
   <g id="line2d_42">
    <path style="fill: none; stroke: #0000ff; stroke-width: 1.5; stroke-linecap: square"/>
    <g/>
   </g>
   <g id="line2d_43">
    <path d="M 144.417581 172.511322 
" clip-path="url(#p917d36f64a)" style="fill: none; stroke: #0000ff; stroke-width: 1.5; stroke-linecap: square"/>
    <defs>
     <path id="m405fc7ec91" d="M -12 12 
L 12 -12 
M -12 -12 
L 12 12 
" style="stroke: #0000ff"/>
    </defs>
    <g clip-path="url(#p917d36f64a)">
     <use xlink:href="#m405fc7ec91" x="144.417581" y="172.511322" style="fill: #0000ff; stroke: #0000ff"/>
    </g>
   </g>
   <g id="line2d_44">
    <defs>
     <path id="m9b5449c606" d="M 0 1.5 
C 0.397805 1.5 0.77937 1.341951 1.06066 1.06066 
C 1.341951 0.77937 1.5 0.397805 1.5 0 
C 1.5 -0.397805 1.341951 -0.77937 1.06066 -1.06066 
C 0.77937 -1.341951 0.397805 -1.5 0 -1.5 
C -0.397805 -1.5 -0.77937 -1.341951 -1.06066 -1.06066 
C -1.341951 -0.77937 -1.5 -0.397805 -1.5 0 
C -1.5 0.397805 -1.341951 0.77937 -1.06066 1.06066 
C -0.77937 1.341951 -0.397805 1.5 0 1.5 
z
" style="stroke: #000000"/>
    </defs>
    <g>
     <use xlink:href="#m9b5449c606" x="196.301074" y="171.824188" style="stroke: #000000"/>
     <use xlink:href="#m9b5449c606" x="196.301074" y="171.824188" style="stroke: #000000"/>
    </g>
   </g>
   <g id="line2d_45">
    <path d="M 14.2848 298.944 
L 14.2848 296.653553 
L 44.560826 296.653553 
L 44.560826 296.424508 
L 57.6 296.424508 
L 57.6 296.195464 
L 61.029752 296.195464 
L 61.029752 295.966419 
L 66.441498 295.966419 
L 66.441498 295.737374 
L 72.432107 295.737374 
L 72.432107 295.508329 
L 73.268314 295.508329 
L 73.268314 295.279285 
L 76.284608 295.279285 
L 76.284608 295.05024 
L 78.88343 295.05024 
L 78.88343 294.821195 
L 79.480672 294.821195 
L 79.480672 294.592151 
L 81.696354 294.592151 
L 81.696354 294.363106 
L 82.211771 294.363106 
L 82.211771 294.134061 
L 84.142855 294.134061 
L 84.142855 293.675972 
L 84.596168 293.675972 
L 84.596168 293.217882 
L 85.894031 293.217882 
L 85.894031 292.988838 
L 86.307488 292.988838 
L 86.307488 292.759793 
L 87.1081 292.759793 
L 87.1081 292.530748 
L 87.876026 292.530748 
L 87.876026 292.301704 
L 88.248544 292.301704 
L 88.248544 292.072659 
L 88.613828 292.072659 
L 88.613828 291.614569 
L 88.972154 291.614569 
L 88.972154 290.698391 
L 90.007914 290.698391 
L 90.007914 290.469346 
L 91.922605 290.469346 
L 91.922605 290.240301 
L 92.519847 290.240301 
L 92.519847 290.011256 
L 93.381595 290.011256 
L 93.381595 289.782212 
L 94.735529 289.782212 
L 94.735529 289.553167 
L 95.250946 289.553167 
L 95.250946 289.324122 
L 96.241256 289.324122 
L 96.241256 289.095078 
L 97.18203 289.095078 
L 97.18203 288.636988 
L 97.410051 288.636988 
L 97.410051 288.407944 
L 97.635342 288.407944 
L 97.635342 278.329976 
L 97.857967 278.329976 
L 97.857967 277.871887 
L 98.077987 277.871887 
L 98.077987 277.642842 
L 98.295464 277.642842 
L 98.295464 277.184753 
L 99.346662 277.184753 
L 99.346662 274.665261 
L 100.147275 274.665261 
L 100.147275 274.436216 
L 100.535156 274.436216 
L 100.535156 274.207172 
L 101.287718 274.207172 
L 101.287718 273.749082 
L 101.471247 273.749082 
L 101.471247 273.520038 
L 101.653002 273.520038 
L 101.653002 265.732518 
L 102.011329 265.732518 
L 102.011329 255.654551 
L 102.708132 255.654551 
L 102.708132 255.425506 
L 103.214303 255.425506 
L 103.214303 255.196461 
L 104.187532 255.196461 
L 104.187532 254.967416 
L 104.655893 254.967416 
L 104.655893 254.738372 
L 104.809458 254.738372 
L 104.809458 254.509327 
L 104.961779 254.509327 
L 104.961779 254.280282 
L 105.112877 254.280282 
L 105.112877 254.051238 
L 106.279859 254.051238 
L 106.279859 253.593148 
L 106.42077 253.593148 
L 106.42077 253.364104 
L 106.560633 253.364104 
L 106.560633 253.135059 
L 106.699465 253.135059 
L 106.699465 252.906014 
L 107.904887 252.906014 
L 107.904887 252.676969 
L 108.034177 252.676969 
L 108.034177 252.447925 
L 108.542628 252.447925 
L 108.542628 252.21888 
L 108.791791 252.21888 
L 108.791791 242.140913 
L 108.915146 242.140913 
L 108.915146 241.911868 
L 109.280431 241.911868 
L 109.280431 241.682824 
L 109.520071 241.682824 
L 109.520071 231.833901 
L 110.106149 231.833901 
L 110.106149 231.604856 
L 110.674517 231.604856 
L 110.674517 230.917722 
L 110.897141 230.917722 
L 110.897141 230.459633 
L 111.117162 230.459633 
L 111.117162 230.230588 
L 112.690074 230.230588 
L 112.690074 230.001544 
L 113.57433 230.001544 
L 113.57433 229.772499 
L 113.765312 229.772499 
L 113.765312 229.543454 
L 113.954374 229.543454 
L 113.954374 229.314409 
L 114.510421 229.314409 
L 114.510421 228.85632 
L 115.050503 228.85632 
L 115.139028 228.398231 
L 116.665126 228.398231 
L 116.746385 227.711096 
L 117.067958 227.711096 
L 117.067958 227.482052 
L 117.462345 227.482052 
L 117.540239 226.565873 
L 118.227147 226.565873 
L 118.301945 226.107784 
L 119.459944 226.107784 
L 119.459944 225.878739 
L 119.738639 225.878739 
L 119.738639 225.649694 
L 119.944983 225.649694 
L 119.944983 225.420649 
L 120.0813 225.420649 
L 120.0813 225.191605 
L 120.879082 225.191605 
L 120.879082 224.96256 
L 121.008818 224.96256 
L 121.008818 224.504471 
L 121.265635 224.504471 
L 121.265635 223.359247 
L 121.39274 223.359247 
L 121.39274 222.672113 
L 122.795872 222.672113 
L 122.795872 222.443068 
L 123.431654 222.443068 
L 123.431654 222.214024 
L 124.265389 222.214024 
L 124.265389 221.984979 
L 124.748451 221.984979 
L 124.748451 221.755934 
L 125.011554 221.755934 
L 125.011554 221.0688 
L 125.167667 221.0688 
L 125.219419 220.610711 
L 125.373824 220.610711 
L 125.373824 220.381666 
L 125.577745 220.381666 
L 125.577745 220.152621 
L 125.779479 220.152621 
L 125.779479 219.923576 
L 126.127391 219.923576 
L 126.127391 219.465487 
L 126.372018 219.465487 
L 126.372018 219.236442 
L 126.613505 219.236442 
L 126.613505 219.007398 
L 127.911368 219.007398 
L 127.911368 218.549308 
L 128.133992 218.549308 
L 128.133992 218.091219 
L 128.266313 218.091219 
L 128.354013 217.404085 
L 128.57149 217.404085 
L 128.57149 217.17504 
L 128.914307 217.17504 
L 128.914307 216.945995 
L 129.7043 216.945995 
L 129.78556 216.258861 
L 130.027253 216.258861 
L 130.027253 215.800772 
L 130.265881 215.800772 
L 130.305359 215.113638 
L 130.501519 215.113638 
L 130.579414 214.655548 
L 130.887807 214.655548 
L 130.887807 214.426504 
L 131.303758 214.426504 
L 131.341119 213.968414 
L 131.63737 213.968414 
L 131.63737 213.510325 
L 131.929028 213.510325 
L 131.929028 213.28128 
L 132.180571 213.28128 
L 132.180571 213.052235 
L 132.46399 213.052235 
L 132.56918 212.365101 
L 132.743202 212.365101 
L 132.846847 211.677967 
L 132.949924 211.677967 
L 132.949924 211.219878 
L 133.188264 211.219878 
L 133.222067 210.532744 
L 133.556801 210.532744 
L 133.556801 210.303699 
L 133.853052 210.303699 
L 133.853052 210.074654 
L 134.047992 210.074654 
L 134.047992 209.845609 
L 134.463557 209.845609 
L 134.558167 209.158475 
L 134.652304 209.158475 
L 134.652304 208.929431 
L 134.931919 208.929431 
L 134.993495 208.242296 
L 135.085483 208.242296 
L 135.085483 208.013252 
L 135.328609 208.013252 
L 135.328609 207.784207 
L 135.568632 207.784207 
L 135.59842 207.326118 
L 135.687504 207.326118 
L 135.717106 206.868028 
L 135.92302 206.868028 
L 135.92302 206.638984 
L 136.184497 206.638984 
L 136.184497 206.409939 
L 136.385386 206.409939 
L 136.470828 205.722805 
L 136.864507 205.722805 
L 136.947806 205.035671 
L 137.0583 205.035671 
L 137.0583 204.806626 
L 137.250116 204.806626 
L 137.358854 204.119492 
L 137.412988 204.119492 
L 137.412988 203.661402 
L 137.601239 203.661402 
L 137.707972 202.974268 
L 137.761112 202.974268 
L 137.866944 202.287134 
L 137.972183 202.287134 
L 137.972183 202.058089 
L 138.10291 202.058089 
L 138.206842 201.6 
L 138.540708 201.6 
L 138.616919 200.454776 
L 138.692823 200.454776 
L 138.718057 199.996687 
L 138.868751 199.996687 
L 138.943648 199.309553 
L 139.067817 199.309553 
L 139.067817 199.080508 
L 139.191172 199.080508 
L 139.191172 198.851464 
L 139.313723 198.851464 
L 139.362521 198.393374 
L 139.459738 198.393374 
L 139.459738 198.164329 
L 139.604629 198.164329 
L 139.628669 197.477195 
L 139.867398 197.477195 
L 139.867398 197.019106 
L 139.985636 197.019106 
L 140.056223 196.561016 
L 140.219905 196.561016 
L 140.219905 196.331972 
L 140.451292 196.331972 
L 140.474275 195.873882 
L 140.702573 195.873882 
L 140.793122 194.728659 
L 140.883238 194.728659 
L 140.928134 194.041525 
L 141.239443 194.041525 
L 141.283499 192.667256 
L 141.393187 192.667256 
L 141.393187 192.438212 
L 141.523975 192.438212 
L 141.523975 192.209167 
L 141.65386 192.209167 
L 141.65386 191.980122 
L 141.782854 191.980122 
L 141.889677 190.834899 
L 141.910969 190.834899 
L 142.01707 190.147765 
L 142.311006 190.147765 
L 142.41488 189.460631 
L 142.435586 189.460631 
L 142.497568 188.315407 
L 142.559347 188.315407 
L 142.559347 188.086362 
L 142.682299 188.086362 
L 142.723105 187.628273 
L 142.844994 187.628273 
L 142.945969 186.712094 
L 142.986208 186.712094 
L 142.986208 186.254005 
L 143.305055 186.254005 
L 143.38393 185.108781 
L 143.501625 185.108781 
L 143.521169 184.421647 
L 143.638012 184.421647 
L 143.734829 183.505468 
L 143.754133 183.505468 
L 143.773417 182.818334 
L 143.869541 182.818334 
L 143.869541 182.360245 
L 144.136106 182.360245 
L 144.192739 181.902155 
L 151.490576 181.902155 
L 151.490576 181.673111 
L 152.020159 181.673111 
L 152.020159 181.558588 
L 152.55942 181.558588 
L 152.55942 181.444066 
L 153.444416 181.444066 
L 153.444416 181.215021 
L 154.300658 181.215021 
L 154.300658 181.100499 
L 154.508765 181.100499 
L 154.508765 180.985976 
L 154.725366 180.985976 
L 154.725366 180.871454 
L 155.863909 180.871454 
L 155.863909 180.642409 
L 156.095593 180.642409 
L 156.155566 180.413365 
L 156.403417 180.413365 
L 156.43294 179.955275 
L 156.667477 179.955275 
L 156.667477 179.726231 
L 156.8511 179.726231 
L 156.8511 179.268141 
L 156.99481 179.268141 
L 157.051988 178.581007 
L 157.231914 178.581007 
L 157.231914 178.466485 
L 161.572302 178.466485 
L 161.572302 178.351962 
L 161.898693 178.351962 
L 161.898693 178.23744 
L 162.442313 178.23744 
L 162.442313 178.122918 
L 162.977609 178.122918 
L 162.977609 178.008395 
L 163.109086 178.008395 
L 163.109086 177.893873 
L 163.619284 177.893873 
L 163.619284 177.779351 
L 164.148663 177.779351 
L 164.168227 177.435784 
L 164.330481 177.435784 
L 164.420735 176.977694 
L 164.484939 176.977694 
L 164.484939 176.863172 
L 164.625419 176.863172 
L 164.625419 176.519605 
L 164.739583 176.519605 
L 164.752225 176.176038 
L 164.897003 176.176038 
L 164.897003 175.946993 
L 167.651136 175.946993 
L 167.651136 175.832471 
L 169.904695 175.832471 
L 169.904695 175.717948 
L 170.176605 175.717948 
L 170.176605 175.374381 
L 170.313451 175.374381 
L 170.313451 175.259859 
L 173.080478 175.259859 
L 173.080478 174.916292 
L 173.968316 174.916292 
L 173.968316 174.801769 
L 174.187707 174.801769 
L 174.267894 174.458202 
L 174.427251 174.458202 
L 174.431028 174.229158 
L 177.073302 174.229158 
L 177.073302 174.000113 
L 177.674134 174.000113 
L 177.74078 173.656546 
L 177.867075 173.656546 
L 177.876513 173.427501 
L 180.101628 173.427501 
L 180.101628 173.198456 
L 180.671343 173.198456 
L 180.73089 172.969412 
L 180.846737 172.969412 
L 180.846737 172.854889 
L 182.47684 172.854889 
L 182.47684 172.740367 
L 187.436175 172.740367 
L 187.436175 172.511322 
L 188.71435 172.511322 
L 188.71435 172.3968 
L 189.240801 172.3968 
L 189.240801 172.282278 
L 190.854255 172.282278 
L 190.854255 172.167755 
L 192.098081 172.167755 
L 192.098081 171.938711 
L 196.301074 171.938711 
L 196.301074 171.824188 
L 360.8064 171.824188 
L 360.8064 171.824188 
" style="fill: none; stroke: #000000; stroke-width: 1.5; stroke-linecap: square"/>
   </g>
   <g id="line2d_46">
    <defs>
     <path id="m898b88dbf6" d="M 0 6 
C 1.591219 6 3.117479 5.367802 4.242641 4.242641 
C 5.367802 3.117479 6 1.591219 6 0 
C 6 -1.591219 5.367802 -3.117479 4.242641 -4.242641 
C 3.117479 -5.367802 1.591219 -6 0 -6 
C -1.591219 -6 -3.117479 -5.367802 -4.242641 -4.242641 
C -5.367802 -3.117479 -6 -1.591219 -6 0 
C -6 1.591219 -5.367802 3.117479 -4.242641 4.242641 
C -3.117479 5.367802 -1.591219 6 0 6 
z
" style="stroke: #000000; stroke-width: 1.5"/>
    </defs>
    <g>
     <use xlink:href="#m898b88dbf6" x="101.653002" y="273.520038" style="fill-opacity: 0; stroke: #000000; stroke-width: 1.5"/>
     <use xlink:href="#m898b88dbf6" x="163.619284" y="177.893873" style="fill-opacity: 0; stroke: #000000; stroke-width: 1.5"/>
     <use xlink:href="#m898b88dbf6" x="196.301074" y="171.938711" style="fill-opacity: 0; stroke: #000000; stroke-width: 1.5"/>
     <use xlink:href="#m898b88dbf6" x="196.301074" y="171.824188" style="fill-opacity: 0; stroke: #000000; stroke-width: 1.5"/>
     <use xlink:href="#m898b88dbf6" x="196.301074" y="171.824188" style="fill-opacity: 0; stroke: #000000; stroke-width: 1.5"/>
     <use xlink:href="#m898b88dbf6" x="360.8064" y="171.824188" style="fill-opacity: 0; stroke: #000000; stroke-width: 1.5"/>
    </g>
   </g>
   <g id="line2d_47">
    <path style="fill: none; stroke: #000000; stroke-width: 1.5; stroke-linecap: square"/>
    <g/>
   </g>
   <g id="line2d_48">
    <path d="M 144.249202 181.902155 
" clip-path="url(#p917d36f64a)" style="fill: none; stroke: #000000; stroke-width: 1.5; stroke-linecap: square"/>
    <defs>
     <path id="m458221a18c" d="M -12 12 
L 12 -12 
M -12 -12 
L 12 12 
" style="stroke: #000000"/>
    </defs>
    <g clip-path="url(#p917d36f64a)">
     <use xlink:href="#m458221a18c" x="144.249202" y="181.902155" style="stroke: #000000"/>
    </g>
   </g>
   <g id="line2d_49">
    <defs>
     <path id="m136ac80d78" d="M 0 1.5 
C 0.397805 1.5 0.77937 1.341951 1.06066 1.06066 
C 1.341951 0.77937 1.5 0.397805 1.5 0 
C 1.5 -0.397805 1.341951 -0.77937 1.06066 -1.06066 
C 0.77937 -1.341951 0.397805 -1.5 0 -1.5 
C -0.397805 -1.5 -0.77937 -1.341951 -1.06066 -1.06066 
C -1.341951 -0.77937 -1.5 -0.397805 -1.5 0 
C -1.5 0.397805 -1.341951 0.77937 -1.06066 1.06066 
C -0.77937 1.341951 -0.397805 1.5 0 1.5 
z
" style="stroke: #ff0000"/>
    </defs>
    <g>
     <use xlink:href="#m136ac80d78" x="196.432309" y="175.259859" style="fill: #ff0000; stroke: #ff0000"/>
     <use xlink:href="#m136ac80d78" x="196.432309" y="175.259859" style="fill: #ff0000; stroke: #ff0000"/>
    </g>
   </g>
   <g id="line2d_50">
    <path d="M 1.245626 298.944 
L 1.245626 298.485911 
L 55.618005 298.485911 
L 55.618005 298.256866 
L 61.029752 298.256866 
L 61.029752 298.027821 
L 72.432107 298.027821 
L 72.432107 297.798776 
L 74.836851 297.798776 
L 74.836851 297.569732 
L 76.629783 297.569732 
L 76.629783 297.340687 
L 81.955828 297.340687 
L 81.955828 297.111642 
L 83.678349 297.111642 
L 83.678349 296.882598 
L 84.818792 296.882598 
L 84.818792 296.653553 
L 86.510858 296.653553 
L 86.510858 296.424508 
L 87.876026 296.424508 
L 87.876026 296.195464 
L 89.668958 296.195464 
L 89.668958 295.966419 
L 90.82951 295.966419 
L 90.82951 295.737374 
L 91.305777 295.737374 
L 91.305777 295.508329 
L 91.922605 295.508329 
L 91.922605 295.279285 
L 92.073702 295.279285 
L 92.073702 295.05024 
L 92.955655 295.05024 
L 92.955655 294.821195 
L 93.381595 294.821195 
L 93.381595 294.592151 
L 93.521459 294.592151 
L 93.521459 294.363106 
L 93.934916 294.363106 
L 93.934916 294.134061 
L 94.07074 294.134061 
L 94.07074 293.905016 
L 94.205591 293.905016 
L 94.205591 293.446927 
L 94.472426 293.446927 
L 94.472426 293.217882 
L 96.717523 293.217882 
L 96.717523 292.759793 
L 96.95121 292.759793 
L 96.95121 292.530748 
L 97.523034 292.530748 
L 97.523034 292.301704 
L 97.857967 292.301704 
L 97.857967 292.072659 
L 98.077987 292.072659 
L 98.077987 291.843614 
L 98.510456 291.843614 
L 98.617037 291.385525 
L 99.14107 291.385525 
L 99.244147 290.927435 
L 100.342215 290.927435 
L 100.438933 290.469346 
L 100.535156 290.469346 
L 100.535156 290.240301 
L 100.726138 290.240301 
L 100.820906 289.324122 
L 101.471247 289.324122 
L 101.562344 279.017111 
L 101.653002 279.017111 
L 101.653002 278.788066 
L 102.275664 278.788066 
L 102.275664 278.329976 
L 102.62243 278.329976 
L 102.62243 278.100932 
L 102.96292 278.100932 
L 102.96292 277.642842 
L 104.028784 277.642842 
L 104.028784 275.810485 
L 104.655893 275.810485 
L 104.655893 275.58144 
L 104.809458 275.58144 
L 104.809458 274.665261 
L 105.26277 274.665261 
L 105.26277 274.207172 
L 106.066493 274.207172 
L 106.066493 273.978127 
L 106.279859 273.978127 
L 106.350446 264.358249 
L 106.560633 264.358249 
L 106.630177 263.213026 
L 106.837279 263.213026 
L 106.837279 254.051238 
L 107.177461 254.051238 
L 107.177461 253.822193 
L 107.445245 253.822193 
L 107.445245 253.593148 
L 107.774703 253.593148 
L 107.774703 253.364104 
L 108.22646 253.364104 
L 108.22646 244.202315 
L 108.915146 244.202315 
L 108.915146 243.973271 
L 109.22004 243.973271 
L 109.22004 243.744226 
L 109.520071 243.744226 
L 109.579508 242.599002 
L 110.392479 242.599002 
L 110.392479 242.369958 
L 110.786158 242.369958 
L 110.841731 233.208169 
L 111.602996 233.208169 
L 111.602996 232.979125 
L 112.180244 232.979125 
L 112.283321 232.521035 
L 113.088217 232.521035 
L 113.088217 232.291991 
L 113.812756 232.291991 
L 113.812756 232.062946 
L 114.234452 232.062946 
L 114.234452 231.833901 
L 115.094818 231.833901 
L 115.094818 231.604856 
L 115.704505 231.604856 
L 115.704505 231.375812 
L 115.875132 231.375812 
L 115.875132 230.917722 
L 116.29505 230.917722 
L 116.29505 230.688678 
L 116.583514 230.688678 
L 116.583514 230.459633 
L 117.107771 230.459633 
L 117.107771 230.230588 
L 117.617813 230.230588 
L 117.617813 229.772499 
L 118.708098 229.772499 
L 118.708098 229.543454 
L 118.99807 229.543454 
L 118.99807 229.314409 
L 119.141397 229.314409 
L 119.141397 229.085365 
L 120.28394 229.085365 
L 120.28394 228.85632 
L 120.48442 228.85632 
L 120.48442 228.627275 
L 120.9116 228.627275 
L 121.008818 228.169186 
L 121.169739 228.169186 
L 121.169739 227.940141 
L 121.455972 227.940141 
L 121.455972 227.711096 
L 121.613129 227.711096 
L 121.613129 227.482052 
L 122.319605 227.482052 
L 122.379802 227.023962 
L 122.854567 227.023962 
L 122.942266 226.565873 
L 123.460048 226.565873 
L 123.544976 225.878739 
L 123.741664 225.878739 
L 123.741664 225.649694 
L 124.292554 225.649694 
L 124.292554 225.420649 
L 124.454723 225.420649 
L 124.454723 225.191605 
L 124.854134 225.191605 
L 124.933009 224.733515 
L 125.037663 224.733515 
L 125.089773 224.046381 
L 125.399435 224.046381 
L 125.399435 223.817336 
L 126.44479 223.817336 
L 126.44479 223.588292 
L 126.589495 223.588292 
L 126.661432 223.130202 
L 126.828223 223.130202 
L 126.828223 222.901158 
L 127.06396 222.901158 
L 127.06396 222.672113 
L 127.366067 222.672113 
L 127.366067 222.443068 
L 127.844063 222.443068 
L 127.844063 222.214024 
L 128.067481 222.214024 
L 128.067481 221.984979 
L 128.528195 221.984979 
L 128.5931 221.526889 
L 128.743679 221.526889 
L 128.743679 221.297845 
L 129.230121 221.297845 
L 129.230121 221.0688 
L 129.437756 221.0688 
L 129.437756 220.839755 
L 129.643124 220.839755 
L 129.643124 220.610711 
L 129.826058 220.610711 
L 129.826058 220.381666 
L 129.987186 220.381666 
L 130.00723 219.923576 
L 130.442886 219.923576 
L 130.481995 219.465487 
L 130.637624 219.465487 
L 130.637624 219.236442 
L 131.153565 219.236442 
L 131.153565 218.778353 
L 131.397023 218.778353 
L 131.397023 218.549308 
L 131.508334 218.549308 
L 131.508334 218.320264 
L 131.655732 218.320264 
L 131.655732 218.091219 
L 132.037244 218.091219 
L 132.126951 217.633129 
L 132.180571 217.633129 
L 132.251827 217.17504 
L 132.795096 217.17504 
L 132.795096 216.487906 
L 133.01833 216.487906 
L 133.05244 216.029816 
L 133.188264 216.029816 
L 133.188264 215.800772 
L 133.672565 215.800772 
L 133.672565 215.571727 
L 133.853052 215.571727 
L 133.885683 215.113638 
L 133.999446 215.113638 
L 133.999446 214.884593 
L 134.336666 214.884593 
L 134.336666 214.655548 
L 134.589598 214.655548 
L 134.636647 213.968414 
L 134.745971 213.968414 
L 134.761537 213.510325 
L 135.008858 213.510325 
L 135.008858 213.28128 
L 135.298389 213.28128 
L 135.313505 212.823191 
L 135.418977 212.823191 
L 135.52386 212.136056 
L 135.805631 212.136056 
L 135.820345 211.677967 
L 135.952253 211.677967 
L 135.996018 211.219878 
L 136.213327 211.219878 
L 136.213327 210.990833 
L 136.342518 210.990833 
L 136.413909 210.074654 
L 136.541735 210.074654 
L 136.598268 209.616565 
L 136.668697 209.616565 
L 136.682752 208.929431 
L 136.961653 208.929431 
L 137.01694 208.471341 
L 137.12703 208.471341 
L 137.23648 208.013252 
L 137.27736 208.013252 
L 137.304564 207.555162 
L 137.453486 207.555162 
L 137.493898 206.868028 
L 137.734561 206.868028 
L 137.814102 206.409939 
L 137.919637 206.409939 
L 138.011497 205.722805 
L 138.245669 205.722805 
L 138.297313 205.264715 
L 138.464186 205.264715 
L 138.553431 204.577581 
L 138.65491 204.577581 
L 138.718057 203.890447 
L 138.993414 203.890447 
L 139.018248 203.432358 
L 139.104908 203.432358 
L 139.178873 202.974268 
L 139.277041 202.974268 
L 139.374701 202.516179 
L 139.399036 202.516179 
L 139.399036 202.287134 
L 139.520245 202.287134 
L 139.520245 202.058089 
L 139.796097 202.058089 
L 139.855533 201.370955 
L 139.973845 201.370955 
L 140.020963 200.912866 
L 140.14993 200.912866 
L 140.18495 200.225732 
L 140.26641 200.225732 
L 140.359078 199.309553 
L 140.622984 199.309553 
L 140.679868 198.622419 
L 140.747902 198.622419 
L 140.80441 197.935285 
L 140.883238 197.935285 
L 140.928134 197.477195 
L 141.128852 197.477195 
L 141.128852 197.248151 
L 141.382247 197.248151 
L 141.404121 196.561016 
L 141.534833 196.561016 
L 141.64307 196.102927 
L 141.739954 196.102927 
L 141.836341 195.186748 
L 141.932237 195.186748 
L 142.027647 194.728659 
L 142.101521 194.728659 
L 142.206555 194.270569 
L 142.342229 194.270569 
L 142.373399 193.81248 
L 142.528483 193.81248 
L 142.610675 192.209167 
L 142.763822 192.209167 
L 142.855116 191.751078 
L 142.935896 191.751078 
L 143.02636 190.834899 
L 143.116392 190.834899 
L 143.225848 190.376809 
L 143.25559 190.376809 
L 143.364242 189.91872 
L 143.403597 189.91872 
L 143.5114 189.002541 
L 143.628302 189.002541 
L 143.734829 188.315407 
L 143.744483 188.315407 
L 143.754133 187.628273 
L 144.003296 187.628273 
L 144.003296 187.170184 
L 144.220992 187.170184 
L 144.258596 186.02496 
L 153.713361 186.02496 
L 153.713361 185.910438 
L 154.405 185.910438 
L 154.405 185.795915 
L 154.907535 185.795915 
L 154.907535 185.566871 
L 155.087958 185.566871 
L 155.087958 185.337826 
L 155.417764 185.337826 
L 155.443693 185.108781 
L 155.649849 185.108781 
L 155.649849 184.879736 
L 156.045469 184.879736 
L 156.045469 184.765214 
L 156.388637 184.765214 
L 156.467326 184.307125 
L 156.574989 184.307125 
L 156.657763 184.07808 
L 156.701437 184.07808 
L 156.79813 183.849035 
L 156.865521 183.849035 
L 156.937458 183.505468 
L 157.04723 183.505468 
L 157.056745 183.161901 
L 157.180007 183.161901 
L 157.288377 182.818334 
L 157.302466 182.818334 
L 157.302466 182.360245 
L 163.699647 182.360245 
L 163.699647 182.245722 
L 163.849408 182.245722 
L 163.849408 182.016678 
L 164.030845 182.016678 
L 164.106202 181.787633 
L 164.155187 181.787633 
L 164.155187 181.673111 
L 164.692099 181.673111 
L 164.771172 180.871454 
L 164.853058 180.871454 
L 164.934588 180.527887 
L 169.274409 180.527887 
L 169.274409 180.298842 
L 169.540824 180.298842 
L 169.540824 180.18432 
L 169.730915 180.18432 
L 169.730915 180.069798 
L 169.897486 180.069798 
L 169.897486 179.840753 
L 170.141051 179.840753 
L 170.223906 179.039096 
L 170.348681 179.039096 
L 170.348681 178.924574 
L 173.816719 178.924574 
L 173.904328 178.695529 
L 174.260272 178.695529 
L 174.260272 178.466485 
L 174.381858 178.466485 
L 174.446132 178.122918 
L 174.498899 178.122918 
L 174.547765 177.664828 
L 177.840308 177.664828 
L 177.840308 177.550306 
L 177.978455 177.550306 
L 177.978455 177.435784 
L 180.2727 177.435784 
L 180.2727 177.321261 
L 180.528475 177.321261 
L 180.528475 177.206739 
L 180.755196 177.206739 
L 180.755196 177.092216 
L 180.878939 177.092216 
L 180.878939 176.863172 
L 182.862007 176.863172 
L 182.862007 176.748649 
L 182.991858 176.748649 
L 182.991858 176.634127 
L 183.186156 176.634127 
L 183.186156 176.519605 
L 183.300836 176.519605 
L 183.327926 176.29056 
L 185.335443 176.29056 
L 185.335443 176.176038 
L 185.607448 176.176038 
L 185.607448 176.061515 
L 187.589755 176.061515 
L 187.589755 175.946993 
L 188.999452 175.946993 
L 189.093245 175.717948 
L 189.336822 175.717948 
L 189.382944 175.488904 
L 196.169511 175.488904 
L 196.169511 175.374381 
L 196.432309 175.374381 
L 196.432309 175.259859 
L 360.8064 175.259859 
L 360.8064 175.259859 
" style="fill: none; stroke: #ff0000; stroke-width: 1.5; stroke-linecap: square"/>
   </g>
   <g id="line2d_51">
    <defs>
     <path id="m38af04b1fe" d="M -6 6 
L 6 6 
L 6 -6 
L -6 -6 
z
" style="stroke: #ff0000; stroke-width: 1.5; stroke-linejoin: miter"/>
    </defs>
    <g>
     <use xlink:href="#m38af04b1fe" x="94.472426" y="293.446927" style="fill-opacity: 0; stroke: #ff0000; stroke-width: 1.5; stroke-linejoin: miter"/>
     <use xlink:href="#m38af04b1fe" x="135.52386" y="212.136056" style="fill-opacity: 0; stroke: #ff0000; stroke-width: 1.5; stroke-linejoin: miter"/>
     <use xlink:href="#m38af04b1fe" x="196.432309" y="175.374381" style="fill-opacity: 0; stroke: #ff0000; stroke-width: 1.5; stroke-linejoin: miter"/>
     <use xlink:href="#m38af04b1fe" x="196.432309" y="175.259859" style="fill-opacity: 0; stroke: #ff0000; stroke-width: 1.5; stroke-linejoin: miter"/>
     <use xlink:href="#m38af04b1fe" x="196.432309" y="175.259859" style="fill-opacity: 0; stroke: #ff0000; stroke-width: 1.5; stroke-linejoin: miter"/>
     <use xlink:href="#m38af04b1fe" x="360.8064" y="175.259859" style="fill-opacity: 0; stroke: #ff0000; stroke-width: 1.5; stroke-linejoin: miter"/>
    </g>
   </g>
   <g id="line2d_52">
    <path style="fill: none; stroke: #ff0000; stroke-width: 1.5; stroke-linecap: square"/>
    <g/>
   </g>
   <g id="line2d_53">
    <path d="M 144.27737 186.02496 
" clip-path="url(#p917d36f64a)" style="fill: none; stroke: #ff0000; stroke-width: 1.5; stroke-linecap: square"/>
    <defs>
     <path id="mfdf2560faa" d="M -12 12 
L 12 -12 
M -12 -12 
L 12 12 
" style="stroke: #ff0000"/>
    </defs>
    <g clip-path="url(#p917d36f64a)">
     <use xlink:href="#mfdf2560faa" x="144.27737" y="186.02496" style="fill: #ff0000; stroke: #ff0000"/>
    </g>
   </g>
   <g id="line2d_54">
    <path d="M 360.8064 175.259859 
L 380.514816 293.10336 
" style="fill: none; stroke: #ff0000; stroke-width: 1.5; stroke-linecap: square"/>
    <g>
     <use xlink:href="#m38af04b1fe" x="360.8064" y="175.259859" style="fill-opacity: 0; stroke: #ff0000; stroke-width: 1.5; stroke-linejoin: miter"/>
     <use xlink:href="#m38af04b1fe" x="380.514816" y="293.10336" style="fill-opacity: 0; stroke: #ff0000; stroke-width: 1.5; stroke-linejoin: miter"/>
    </g>
   </g>
   <g id="line2d_55">
    <path d="M 360.8064 171.824188 
L 380.514816 223.01568 
" style="fill: none; stroke: #000000; stroke-width: 1.5; stroke-linecap: square"/>
    <g>
     <use xlink:href="#m898b88dbf6" x="360.8064" y="171.824188" style="fill-opacity: 0; stroke: #000000; stroke-width: 1.5"/>
     <use xlink:href="#m898b88dbf6" x="380.514816" y="223.01568" style="fill-opacity: 0; stroke: #000000; stroke-width: 1.5"/>
    </g>
   </g>
   <g id="line2d_56">
    <path d="M 360.8064 163.807624 
L 380.514816 152.928 
" style="fill: none; stroke: #0000ff; stroke-width: 1.5; stroke-linecap: square"/>
    <g>
     <use xlink:href="#me8ec2a5864" x="360.8064" y="163.807624" style="fill-opacity: 0; stroke: #0000ff; stroke-width: 1.5; stroke-linejoin: bevel"/>
     <use xlink:href="#me8ec2a5864" x="380.514816" y="152.928" style="fill-opacity: 0; stroke: #0000ff; stroke-width: 1.5; stroke-linejoin: bevel"/>
    </g>
   </g>
   <g id="line2d_57">
    <path d="M 360.8064 139.757929 
L 380.514816 82.84032 
" style="fill: none; stroke: #008000; stroke-width: 1.5; stroke-linecap: square"/>
    <g>
     <use xlink:href="#m30557e3eb1" x="360.8064" y="139.757929" style="fill-opacity: 0; stroke: #008000; stroke-width: 1.5; stroke-linejoin: miter"/>
     <use xlink:href="#m30557e3eb1" x="380.514816" y="82.84032" style="fill-opacity: 0; stroke: #008000; stroke-width: 1.5; stroke-linejoin: miter"/>
    </g>
   </g>
   <g id="line2d_58">
    <path d="M 360.8064 129.450918 
L 380.514816 12.75264 
" style="fill: none; stroke: #00bfbf; stroke-width: 1.5; stroke-linecap: square"/>
    <g>
     <use xlink:href="#m76db2e50e5" x="360.8064" y="129.450918" style="fill-opacity: 0; stroke: #00bfbf; stroke-width: 1.5"/>
     <use xlink:href="#m76db2e50e5" x="380.514816" y="12.75264" style="fill-opacity: 0; stroke: #00bfbf; stroke-width: 1.5"/>
    </g>
   </g>
   <g id="line2d_59">
    <path d="M 360.8064 298.944 
L 360.8064 6.912 
" style="fill: none; stroke: #000000; stroke-width: 1.5; stroke-linecap: square"/>
   </g>
   <g id="patch_3">
    <path d="M 57.6 298.944 
L 360.8064 298.944 
" style="fill: none; stroke: #000000; stroke-width: 0.8; stroke-linejoin: miter; stroke-linecap: square"/>
   </g>
   <g id="patch_4">
    <path d="M 57.6 6.912 
L 360.8064 6.912 
" style="fill: none; stroke: #000000; stroke-width: 0.8; stroke-linejoin: miter; stroke-linecap: square"/>
   </g>
   <g id="text_13">
    <!-- 20-D -->
    <g transform="translate(386.578944 296.966485)scale(0.14 -0.14)">
     <defs>
      <path id="DejaVuSans-44" d="M 1259 4147 
L 1259 519 
L 2022 519 
Q 2988 519 3436 956 
Q 3884 1394 3884 2338 
Q 3884 3275 3436 3711 
Q 2988 4147 2022 4147 
L 1259 4147 
z
M 628 4666 
L 1925 4666 
Q 3281 4666 3915 4102 
Q 4550 3538 4550 2338 
Q 4550 1131 3912 565 
Q 3275 0 1925 0 
L 628 0 
L 628 4666 
z
" transform="scale(0.015625)"/>
     </defs>
     <use xlink:href="#DejaVuSans-32"/>
     <use xlink:href="#DejaVuSans-30" x="63.623047"/>
     <use xlink:href="#DejaVuSans-2d" x="127.246094"/>
     <use xlink:href="#DejaVuSans-44" x="163.330078"/>
    </g>
   </g>
   <g id="text_14">
    <!-- 10-D -->
    <g transform="translate(386.578944 226.878805)scale(0.14 -0.14)">
     <use xlink:href="#DejaVuSans-31"/>
     <use xlink:href="#DejaVuSans-30" x="63.623047"/>
     <use xlink:href="#DejaVuSans-2d" x="127.246094"/>
     <use xlink:href="#DejaVuSans-44" x="163.330078"/>
    </g>
   </g>
   <g id="text_15">
    <!-- 5-D -->
    <g transform="translate(386.578944 156.791125)scale(0.14 -0.14)">
     <defs>
      <path id="DejaVuSans-35" d="M 691 4666 
L 3169 4666 
L 3169 4134 
L 1269 4134 
L 1269 2991 
Q 1406 3038 1543 3061 
Q 1681 3084 1819 3084 
Q 2600 3084 3056 2656 
Q 3513 2228 3513 1497 
Q 3513 744 3044 326 
Q 2575 -91 1722 -91 
Q 1428 -91 1123 -41 
Q 819 9 494 109 
L 494 744 
Q 775 591 1075 516 
Q 1375 441 1709 441 
Q 2250 441 2565 725 
Q 2881 1009 2881 1497 
Q 2881 1984 2565 2268 
Q 2250 2553 1709 2553 
Q 1456 2553 1204 2497 
Q 953 2441 691 2322 
L 691 4666 
z
" transform="scale(0.015625)"/>
     </defs>
     <use xlink:href="#DejaVuSans-35"/>
     <use xlink:href="#DejaVuSans-2d" x="63.623047"/>
     <use xlink:href="#DejaVuSans-44" x="99.707031"/>
    </g>
   </g>
   <g id="text_16">
    <!-- 3-D -->
    <g transform="translate(386.578944 86.703445)scale(0.14 -0.14)">
     <defs>
      <path id="DejaVuSans-33" d="M 2597 2516 
Q 3050 2419 3304 2112 
Q 3559 1806 3559 1356 
Q 3559 666 3084 287 
Q 2609 -91 1734 -91 
Q 1441 -91 1130 -33 
Q 819 25 488 141 
L 488 750 
Q 750 597 1062 519 
Q 1375 441 1716 441 
Q 2309 441 2620 675 
Q 2931 909 2931 1356 
Q 2931 1769 2642 2001 
Q 2353 2234 1838 2234 
L 1294 2234 
L 1294 2753 
L 1863 2753 
Q 2328 2753 2575 2939 
Q 2822 3125 2822 3475 
Q 2822 3834 2567 4026 
Q 2313 4219 1838 4219 
Q 1578 4219 1281 4162 
Q 984 4106 628 3988 
L 628 4550 
Q 988 4650 1302 4700 
Q 1616 4750 1894 4750 
Q 2613 4750 3031 4423 
Q 3450 4097 3450 3541 
Q 3450 3153 3228 2886 
Q 3006 2619 2597 2516 
z
" transform="scale(0.015625)"/>
     </defs>
     <use xlink:href="#DejaVuSans-33"/>
     <use xlink:href="#DejaVuSans-2d" x="63.623047"/>
     <use xlink:href="#DejaVuSans-44" x="99.707031"/>
    </g>
   </g>
   <g id="text_17">
    <!-- 2-D -->
    <g transform="translate(386.578944 16.615765)scale(0.14 -0.14)">
     <use xlink:href="#DejaVuSans-32"/>
     <use xlink:href="#DejaVuSans-2d" x="63.623047"/>
     <use xlink:href="#DejaVuSans-44" x="99.707031"/>
    </g>
   </g>
   <g id="text_18">
    <!-- bbob f1-f5 -->
    <g transform="translate(60.632064 17.582726)scale(0.102 -0.102)">
     <defs>
      <path id="DejaVuSans-62" d="M 3116 1747 
Q 3116 2381 2855 2742 
Q 2594 3103 2138 3103 
Q 1681 3103 1420 2742 
Q 1159 2381 1159 1747 
Q 1159 1113 1420 752 
Q 1681 391 2138 391 
Q 2594 391 2855 752 
Q 3116 1113 3116 1747 
z
M 1159 2969 
Q 1341 3281 1617 3432 
Q 1894 3584 2278 3584 
Q 2916 3584 3314 3078 
Q 3713 2572 3713 1747 
Q 3713 922 3314 415 
Q 2916 -91 2278 -91 
Q 1894 -91 1617 61 
Q 1341 213 1159 525 
L 1159 0 
L 581 0 
L 581 4863 
L 1159 4863 
L 1159 2969 
z
" transform="scale(0.015625)"/>
     </defs>
     <use xlink:href="#DejaVuSans-62"/>
     <use xlink:href="#DejaVuSans-62" x="63.476562"/>
     <use xlink:href="#DejaVuSans-6f" x="126.953125"/>
     <use xlink:href="#DejaVuSans-62" x="188.134766"/>
     <use xlink:href="#DejaVuSans-20" x="251.611328"/>
     <use xlink:href="#DejaVuSans-66" x="283.398438"/>
     <use xlink:href="#DejaVuSans-31" x="318.603516"/>
     <use xlink:href="#DejaVuSans-2d" x="382.226562"/>
     <use xlink:href="#DejaVuSans-66" x="418.310547"/>
     <use xlink:href="#DejaVuSans-35" x="453.515625"/>
    </g>
    <!-- 51 targets: 100..1e-08 -->
    <g transform="translate(60.632064 29.004495)scale(0.102 -0.102)">
     <defs>
      <path id="DejaVuSans-3a" d="M 750 794 
L 1409 794 
L 1409 0 
L 750 0 
L 750 794 
z
M 750 3309 
L 1409 3309 
L 1409 2516 
L 750 2516 
L 750 3309 
z
" transform="scale(0.015625)"/>
     </defs>
     <use xlink:href="#DejaVuSans-35"/>
     <use xlink:href="#DejaVuSans-31" x="63.623047"/>
     <use xlink:href="#DejaVuSans-20" x="127.246094"/>
     <use xlink:href="#DejaVuSans-74" x="159.033203"/>
     <use xlink:href="#DejaVuSans-61" x="198.242188"/>
     <use xlink:href="#DejaVuSans-72" x="259.521484"/>
     <use xlink:href="#DejaVuSans-67" x="298.884766"/>
     <use xlink:href="#DejaVuSans-65" x="362.361328"/>
     <use xlink:href="#DejaVuSans-74" x="423.884766"/>
     <use xlink:href="#DejaVuSans-73" x="463.09375"/>
     <use xlink:href="#DejaVuSans-3a" x="515.193359"/>
     <use xlink:href="#DejaVuSans-20" x="548.884766"/>
     <use xlink:href="#DejaVuSans-31" x="580.671875"/>
     <use xlink:href="#DejaVuSans-30" x="644.294922"/>
     <use xlink:href="#DejaVuSans-30" x="707.917969"/>
     <use xlink:href="#DejaVuSans-2e" x="771.541016"/>
     <use xlink:href="#DejaVuSans-2e" x="803.328125"/>
     <use xlink:href="#DejaVuSans-31" x="835.115234"/>
     <use xlink:href="#DejaVuSans-65" x="898.738281"/>
     <use xlink:href="#DejaVuSans-2d" x="960.261719"/>
     <use xlink:href="#DejaVuSans-30" x="996.345703"/>
     <use xlink:href="#DejaVuSans-38" x="1059.96875"/>
    </g>
    <!-- 5 instances -->
    <g transform="translate(60.632064 40.426264)scale(0.102 -0.102)">
     <use xlink:href="#DejaVuSans-35"/>
     <use xlink:href="#DejaVuSans-20" x="63.623047"/>
     <use xlink:href="#DejaVuSans-69" x="95.410156"/>
     <use xlink:href="#DejaVuSans-6e" x="123.193359"/>
     <use xlink:href="#DejaVuSans-73" x="186.572266"/>
     <use xlink:href="#DejaVuSans-74" x="238.671875"/>
     <use xlink:href="#DejaVuSans-61" x="277.880859"/>
     <use xlink:href="#DejaVuSans-6e" x="339.160156"/>
     <use xlink:href="#DejaVuSans-63" x="402.539062"/>
     <use xlink:href="#DejaVuSans-65" x="457.519531"/>
     <use xlink:href="#DejaVuSans-73" x="519.042969"/>
    </g>
   </g>
   <g id="text_19">
    <!-- v2.6 -->
    <g style="fill: #808080" transform="translate(198.292262 293.943992)scale(0.1 -0.1)">
     <use xlink:href="#DejaVuSans-76"/>
     <use xlink:href="#DejaVuSans-32" x="59.179688"/>
     <use xlink:href="#DejaVuSans-2e" x="122.802734"/>
     <use xlink:href="#DejaVuSans-36" x="154.589844"/>
    </g>
   </g>
  </g>
 </g>
 <defs>
  <clipPath id="p917d36f64a">
   <rect x="57.6" y="6.912" width="303.2064" height="292.032"/>
  </clipPath>
 </defs>
</svg>
