<?xml version="1.0" encoding="utf-8" standalone="no"?>
<!DOCTYPE svg PUBLIC "-//W3C//DTD SVG 1.1//EN"
  "http://www.w3.org/Graphics/SVG/1.1/DTD/svg11.dtd">
<svg xmlns:xlink="http://www.w3.org/1999/xlink" width="460.8pt" height="345.6pt" viewBox="0 0 460.8 345.6" xmlns="http://www.w3.org/2000/svg" version="1.1">
 <metadata>
  <rdf:RDF xmlns:dc="http://purl.org/dc/elements/1.1/" xmlns:cc="http://creativecommons.org/ns#" xmlns:rdf="http://www.w3.org/1999/02/22-rdf-syntax-ns#">
   <cc:Work>
    <dc:type rdf:resource="http://purl.org/dc/dcmitype/StillImage"/>
    <dc:date>2022-03-24T02:06:59.176362</dc:date>
    <dc:format>image/svg+xml</dc:format>
    <dc:creator>
     <cc:Agent>
      <dc:title>Matplotlib v3.5.1, https://matplotlib.org/</dc:title>
     </cc:Agent>
    </dc:creator>
   </cc:Work>
  </rdf:RDF>
 </metadata>
 <defs>
  <style type="text/css">*{stroke-linejoin: round; stroke-linecap: butt}</style>
 </defs>
 <g id="figure_1">
  <g id="patch_1">
   <path d="M 0 345.6 
L 460.8 345.6 
L 460.8 0 
L 0 0 
z
" style="fill: #ffffff"/>
  </g>
  <g id="axes_1">
   <g id="patch_2">
    <path d="M 57.6 298.944 
L 360.8064 298.944 
L 360.8064 27.648 
L 57.6 27.648 
z
" style="fill: #ffffff"/>
   </g>
   <g id="line2d_1">
    <path d="M 14.2848 298.944 
L 14.2848 293.624471 
L 34.951403 293.624471 
L 34.951403 288.304941 
L 53.402323 288.304941 
L 53.402323 282.985412 
L 66.441498 282.985412 
L 66.441498 277.665882 
L 72.432107 277.665882 
L 72.432107 251.068235 
L 73.268314 251.068235 
L 73.268314 27.648 
L 360.8064 27.648 
" style="fill: none; stroke: #f5deb3; stroke-width: 4; stroke-linecap: square"/>
   </g>
   <g id="line2d_2">
    <defs>
     <path id="me0d1797fa2" d="M -0 7.778175 
L 7.778175 0 
L 0 -7.778175 
L -7.778175 -0 
z
" style="stroke: #f5deb3; stroke-width: 1.5; stroke-linejoin: miter"/>
    </defs>
    <g>
     <use xlink:href="#me0d1797fa2" x="72.432107" y="251.068235" style="fill: #f5deb3; stroke: #f5deb3; stroke-width: 1.5; stroke-linejoin: miter"/>
     <use xlink:href="#me0d1797fa2" x="73.268314" y="251.068235" style="fill: #f5deb3; stroke: #f5deb3; stroke-width: 1.5; stroke-linejoin: miter"/>
     <use xlink:href="#me0d1797fa2" x="73.268314" y="251.068235" style="fill: #f5deb3; stroke: #f5deb3; stroke-width: 1.5; stroke-linejoin: miter"/>
     <use xlink:href="#me0d1797fa2" x="73.268314" y="27.648" style="fill: #f5deb3; stroke: #f5deb3; stroke-width: 1.5; stroke-linejoin: miter"/>
     <use xlink:href="#me0d1797fa2" x="73.268314" y="27.648" style="fill: #f5deb3; stroke: #f5deb3; stroke-width: 1.5; stroke-linejoin: miter"/>
     <use xlink:href="#me0d1797fa2" x="360.8064" y="27.648" style="fill: #f5deb3; stroke: #f5deb3; stroke-width: 1.5; stroke-linejoin: miter"/>
    </g>
   </g>
   <g id="line2d_3">
    <path style="fill: none; stroke: #f5deb3; stroke-width: 4; stroke-linecap: square"/>
    <g/>
   </g>
   <g id="line2d_4">
    <path d="M 360.8064 27.648 
L 380.514816 33.07392 
" style="fill: none; stroke: #f5deb3; stroke-width: 4; stroke-linecap: square"/>
    <g>
     <use xlink:href="#me0d1797fa2" x="360.8064" y="27.648" style="fill: #f5deb3; stroke: #f5deb3; stroke-width: 1.5; stroke-linejoin: miter"/>
     <use xlink:href="#me0d1797fa2" x="380.514816" y="33.07392" style="fill: #f5deb3; stroke: #f5deb3; stroke-width: 1.5; stroke-linejoin: miter"/>
    </g>
   </g>
   <g id="matplotlib.axis_1">
    <g id="xtick_1">
     <g id="line2d_5">
      <path d="M 57.6 298.944 
L 57.6 27.648 
" clip-path="url(#p3a896b3779)" style="fill: none; stroke: #b0b0b0; stroke-width: 0.8; stroke-linecap: square"/>
     </g>
     <g id="line2d_6">
      <defs>
       <path id="m613808eeef" d="M 0 0 
L 0 3.5 
" style="stroke: #000000; stroke-width: 0.8"/>
      </defs>
      <g>
       <use xlink:href="#m613808eeef" x="57.6" y="298.944" style="stroke: #000000; stroke-width: 0.8"/>
      </g>
     </g>
     <g id="text_1">
      <!-- 0 -->
      <g transform="translate(52.191875 318.861344)scale(0.17 -0.17)">
       <defs>
        <path id="DejaVuSans-30" d="M 2034 4250 
Q 1547 4250 1301 3770 
Q 1056 3291 1056 2328 
Q 1056 1369 1301 889 
Q 1547 409 2034 409 
Q 2525 409 2770 889 
Q 3016 1369 3016 2328 
Q 3016 3291 2770 3770 
Q 2525 4250 2034 4250 
z
M 2034 4750 
Q 2819 4750 3233 4129 
Q 3647 3509 3647 2328 
Q 3647 1150 3233 529 
Q 2819 -91 2034 -91 
Q 1250 -91 836 529 
Q 422 1150 422 2328 
Q 422 3509 836 4129 
Q 1250 4750 2034 4750 
z
" transform="scale(0.015625)"/>
       </defs>
       <use xlink:href="#DejaVuSans-30"/>
      </g>
     </g>
    </g>
    <g id="xtick_2">
     <g id="line2d_7">
      <path d="M 144.2304 298.944 
L 144.2304 27.648 
" clip-path="url(#p3a896b3779)" style="fill: none; stroke: #b0b0b0; stroke-width: 0.8; stroke-linecap: square"/>
     </g>
     <g id="line2d_8">
      <g>
       <use xlink:href="#m613808eeef" x="144.2304" y="298.944" style="stroke: #000000; stroke-width: 0.8"/>
      </g>
     </g>
     <g id="text_2">
      <!-- 2 -->
      <g transform="translate(138.822275 318.861344)scale(0.17 -0.17)">
       <defs>
        <path id="DejaVuSans-32" d="M 1228 531 
L 3431 531 
L 3431 0 
L 469 0 
L 469 531 
Q 828 903 1448 1529 
Q 2069 2156 2228 2338 
Q 2531 2678 2651 2914 
Q 2772 3150 2772 3378 
Q 2772 3750 2511 3984 
Q 2250 4219 1831 4219 
Q 1534 4219 1204 4116 
Q 875 4013 500 3803 
L 500 4441 
Q 881 4594 1212 4672 
Q 1544 4750 1819 4750 
Q 2544 4750 2975 4387 
Q 3406 4025 3406 3419 
Q 3406 3131 3298 2873 
Q 3191 2616 2906 2266 
Q 2828 2175 2409 1742 
Q 1991 1309 1228 531 
z
" transform="scale(0.015625)"/>
       </defs>
       <use xlink:href="#DejaVuSans-32"/>
      </g>
     </g>
    </g>
    <g id="xtick_3">
     <g id="line2d_9">
      <path d="M 230.8608 298.944 
L 230.8608 27.648 
" clip-path="url(#p3a896b3779)" style="fill: none; stroke: #b0b0b0; stroke-width: 0.8; stroke-linecap: square"/>
     </g>
     <g id="line2d_10">
      <g>
       <use xlink:href="#m613808eeef" x="230.8608" y="298.944" style="stroke: #000000; stroke-width: 0.8"/>
      </g>
     </g>
     <g id="text_3">
      <!-- 4 -->
      <g transform="translate(225.452675 318.861344)scale(0.17 -0.17)">
       <defs>
        <path id="DejaVuSans-34" d="M 2419 4116 
L 825 1625 
L 2419 1625 
L 2419 4116 
z
M 2253 4666 
L 3047 4666 
L 3047 1625 
L 3713 1625 
L 3713 1100 
L 3047 1100 
L 3047 0 
L 2419 0 
L 2419 1100 
L 313 1100 
L 313 1709 
L 2253 4666 
z
" transform="scale(0.015625)"/>
       </defs>
       <use xlink:href="#DejaVuSans-34"/>
      </g>
     </g>
    </g>
    <g id="xtick_4">
     <g id="line2d_11">
      <path d="M 317.4912 298.944 
L 317.4912 27.648 
" clip-path="url(#p3a896b3779)" style="fill: none; stroke: #b0b0b0; stroke-width: 0.8; stroke-linecap: square"/>
     </g>
     <g id="line2d_12">
      <g>
       <use xlink:href="#m613808eeef" x="317.4912" y="298.944" style="stroke: #000000; stroke-width: 0.8"/>
      </g>
     </g>
     <g id="text_4">
      <!-- 6 -->
      <g transform="translate(312.083075 318.861344)scale(0.17 -0.17)">
       <defs>
        <path id="DejaVuSans-36" d="M 2113 2584 
Q 1688 2584 1439 2293 
Q 1191 2003 1191 1497 
Q 1191 994 1439 701 
Q 1688 409 2113 409 
Q 2538 409 2786 701 
Q 3034 994 3034 1497 
Q 3034 2003 2786 2293 
Q 2538 2584 2113 2584 
z
M 3366 4563 
L 3366 3988 
Q 3128 4100 2886 4159 
Q 2644 4219 2406 4219 
Q 1781 4219 1451 3797 
Q 1122 3375 1075 2522 
Q 1259 2794 1537 2939 
Q 1816 3084 2150 3084 
Q 2853 3084 3261 2657 
Q 3669 2231 3669 1497 
Q 3669 778 3244 343 
Q 2819 -91 2113 -91 
Q 1303 -91 875 529 
Q 447 1150 447 2328 
Q 447 3434 972 4092 
Q 1497 4750 2381 4750 
Q 2619 4750 2861 4703 
Q 3103 4656 3366 4563 
z
" transform="scale(0.015625)"/>
       </defs>
       <use xlink:href="#DejaVuSans-36"/>
      </g>
     </g>
    </g>
    <g id="xtick_5">
     <g id="line2d_13">
      <path d="M 100.9152 298.944 
L 100.9152 27.648 
" clip-path="url(#p3a896b3779)" style="fill: none; stroke: #b0b0b0; stroke-width: 0.8; stroke-linecap: square"/>
     </g>
     <g id="line2d_14">
      <defs>
       <path id="m4b865f8d9b" d="M 0 0 
L 0 2 
" style="stroke: #000000; stroke-width: 0.6"/>
      </defs>
      <g>
       <use xlink:href="#m4b865f8d9b" x="100.9152" y="298.944" style="stroke: #000000; stroke-width: 0.6"/>
      </g>
     </g>
    </g>
    <g id="xtick_6">
     <g id="line2d_15">
      <path d="M 187.5456 298.944 
L 187.5456 27.648 
" clip-path="url(#p3a896b3779)" style="fill: none; stroke: #b0b0b0; stroke-width: 0.8; stroke-linecap: square"/>
     </g>
     <g id="line2d_16">
      <g>
       <use xlink:href="#m4b865f8d9b" x="187.5456" y="298.944" style="stroke: #000000; stroke-width: 0.6"/>
      </g>
     </g>
    </g>
    <g id="xtick_7">
     <g id="line2d_17">
      <path d="M 274.176 298.944 
L 274.176 27.648 
" clip-path="url(#p3a896b3779)" style="fill: none; stroke: #b0b0b0; stroke-width: 0.8; stroke-linecap: square"/>
     </g>
     <g id="line2d_18">
      <g>
       <use xlink:href="#m4b865f8d9b" x="274.176" y="298.944" style="stroke: #000000; stroke-width: 0.6"/>
      </g>
     </g>
    </g>
    <g id="xtick_8">
     <g id="line2d_19">
      <path d="M 360.8064 298.944 
L 360.8064 27.648 
" clip-path="url(#p3a896b3779)" style="fill: none; stroke: #b0b0b0; stroke-width: 0.8; stroke-linecap: square"/>
     </g>
     <g id="line2d_20">
      <g>
       <use xlink:href="#m4b865f8d9b" x="360.8064" y="298.944" style="stroke: #000000; stroke-width: 0.6"/>
      </g>
     </g>
    </g>
    <g id="text_5">
     <!-- log10(# f-evals / dimension) -->
     <g transform="translate(88.823278 339.314156)scale(0.17 -0.17)">
      <defs>
       <path id="DejaVuSans-6c" d="M 603 4863 
L 1178 4863 
L 1178 0 
L 603 0 
L 603 4863 
z
" transform="scale(0.015625)"/>
       <path id="DejaVuSans-6f" d="M 1959 3097 
Q 1497 3097 1228 2736 
Q 959 2375 959 1747 
Q 959 1119 1226 758 
Q 1494 397 1959 397 
Q 2419 397 2687 759 
Q 2956 1122 2956 1747 
Q 2956 2369 2687 2733 
Q 2419 3097 1959 3097 
z
M 1959 3584 
Q 2709 3584 3137 3096 
Q 3566 2609 3566 1747 
Q 3566 888 3137 398 
Q 2709 -91 1959 -91 
Q 1206 -91 779 398 
Q 353 888 353 1747 
Q 353 2609 779 3096 
Q 1206 3584 1959 3584 
z
" transform="scale(0.015625)"/>
       <path id="DejaVuSans-67" d="M 2906 1791 
Q 2906 2416 2648 2759 
Q 2391 3103 1925 3103 
Q 1463 3103 1205 2759 
Q 947 2416 947 1791 
Q 947 1169 1205 825 
Q 1463 481 1925 481 
Q 2391 481 2648 825 
Q 2906 1169 2906 1791 
z
M 3481 434 
Q 3481 -459 3084 -895 
Q 2688 -1331 1869 -1331 
Q 1566 -1331 1297 -1286 
Q 1028 -1241 775 -1147 
L 775 -588 
Q 1028 -725 1275 -790 
Q 1522 -856 1778 -856 
Q 2344 -856 2625 -561 
Q 2906 -266 2906 331 
L 2906 616 
Q 2728 306 2450 153 
Q 2172 0 1784 0 
Q 1141 0 747 490 
Q 353 981 353 1791 
Q 353 2603 747 3093 
Q 1141 3584 1784 3584 
Q 2172 3584 2450 3431 
Q 2728 3278 2906 2969 
L 2906 3500 
L 3481 3500 
L 3481 434 
z
" transform="scale(0.015625)"/>
       <path id="DejaVuSans-31" d="M 794 531 
L 1825 531 
L 1825 4091 
L 703 3866 
L 703 4441 
L 1819 4666 
L 2450 4666 
L 2450 531 
L 3481 531 
L 3481 0 
L 794 0 
L 794 531 
z
" transform="scale(0.015625)"/>
       <path id="DejaVuSans-28" d="M 1984 4856 
Q 1566 4138 1362 3434 
Q 1159 2731 1159 2009 
Q 1159 1288 1364 580 
Q 1569 -128 1984 -844 
L 1484 -844 
Q 1016 -109 783 600 
Q 550 1309 550 2009 
Q 550 2706 781 3412 
Q 1013 4119 1484 4856 
L 1984 4856 
z
" transform="scale(0.015625)"/>
       <path id="DejaVuSans-23" d="M 3272 2816 
L 2363 2816 
L 2100 1772 
L 3016 1772 
L 3272 2816 
z
M 2803 4594 
L 2478 3297 
L 3391 3297 
L 3719 4594 
L 4219 4594 
L 3897 3297 
L 4872 3297 
L 4872 2816 
L 3775 2816 
L 3519 1772 
L 4513 1772 
L 4513 1294 
L 3397 1294 
L 3072 0 
L 2572 0 
L 2894 1294 
L 1978 1294 
L 1656 0 
L 1153 0 
L 1478 1294 
L 494 1294 
L 494 1772 
L 1594 1772 
L 1856 2816 
L 850 2816 
L 850 3297 
L 1978 3297 
L 2297 4594 
L 2803 4594 
z
" transform="scale(0.015625)"/>
       <path id="DejaVuSans-20" transform="scale(0.015625)"/>
       <path id="DejaVuSans-66" d="M 2375 4863 
L 2375 4384 
L 1825 4384 
Q 1516 4384 1395 4259 
Q 1275 4134 1275 3809 
L 1275 3500 
L 2222 3500 
L 2222 3053 
L 1275 3053 
L 1275 0 
L 697 0 
L 697 3053 
L 147 3053 
L 147 3500 
L 697 3500 
L 697 3744 
Q 697 4328 969 4595 
Q 1241 4863 1831 4863 
L 2375 4863 
z
" transform="scale(0.015625)"/>
       <path id="DejaVuSans-2d" d="M 313 2009 
L 1997 2009 
L 1997 1497 
L 313 1497 
L 313 2009 
z
" transform="scale(0.015625)"/>
       <path id="DejaVuSans-65" d="M 3597 1894 
L 3597 1613 
L 953 1613 
Q 991 1019 1311 708 
Q 1631 397 2203 397 
Q 2534 397 2845 478 
Q 3156 559 3463 722 
L 3463 178 
Q 3153 47 2828 -22 
Q 2503 -91 2169 -91 
Q 1331 -91 842 396 
Q 353 884 353 1716 
Q 353 2575 817 3079 
Q 1281 3584 2069 3584 
Q 2775 3584 3186 3129 
Q 3597 2675 3597 1894 
z
M 3022 2063 
Q 3016 2534 2758 2815 
Q 2500 3097 2075 3097 
Q 1594 3097 1305 2825 
Q 1016 2553 972 2059 
L 3022 2063 
z
" transform="scale(0.015625)"/>
       <path id="DejaVuSans-76" d="M 191 3500 
L 800 3500 
L 1894 563 
L 2988 3500 
L 3597 3500 
L 2284 0 
L 1503 0 
L 191 3500 
z
" transform="scale(0.015625)"/>
       <path id="DejaVuSans-61" d="M 2194 1759 
Q 1497 1759 1228 1600 
Q 959 1441 959 1056 
Q 959 750 1161 570 
Q 1363 391 1709 391 
Q 2188 391 2477 730 
Q 2766 1069 2766 1631 
L 2766 1759 
L 2194 1759 
z
M 3341 1997 
L 3341 0 
L 2766 0 
L 2766 531 
Q 2569 213 2275 61 
Q 1981 -91 1556 -91 
Q 1019 -91 701 211 
Q 384 513 384 1019 
Q 384 1609 779 1909 
Q 1175 2209 1959 2209 
L 2766 2209 
L 2766 2266 
Q 2766 2663 2505 2880 
Q 2244 3097 1772 3097 
Q 1472 3097 1187 3025 
Q 903 2953 641 2809 
L 641 3341 
Q 956 3463 1253 3523 
Q 1550 3584 1831 3584 
Q 2591 3584 2966 3190 
Q 3341 2797 3341 1997 
z
" transform="scale(0.015625)"/>
       <path id="DejaVuSans-73" d="M 2834 3397 
L 2834 2853 
Q 2591 2978 2328 3040 
Q 2066 3103 1784 3103 
Q 1356 3103 1142 2972 
Q 928 2841 928 2578 
Q 928 2378 1081 2264 
Q 1234 2150 1697 2047 
L 1894 2003 
Q 2506 1872 2764 1633 
Q 3022 1394 3022 966 
Q 3022 478 2636 193 
Q 2250 -91 1575 -91 
Q 1294 -91 989 -36 
Q 684 19 347 128 
L 347 722 
Q 666 556 975 473 
Q 1284 391 1588 391 
Q 1994 391 2212 530 
Q 2431 669 2431 922 
Q 2431 1156 2273 1281 
Q 2116 1406 1581 1522 
L 1381 1569 
Q 847 1681 609 1914 
Q 372 2147 372 2553 
Q 372 3047 722 3315 
Q 1072 3584 1716 3584 
Q 2034 3584 2315 3537 
Q 2597 3491 2834 3397 
z
" transform="scale(0.015625)"/>
       <path id="DejaVuSans-2f" d="M 1625 4666 
L 2156 4666 
L 531 -594 
L 0 -594 
L 1625 4666 
z
" transform="scale(0.015625)"/>
       <path id="DejaVuSans-64" d="M 2906 2969 
L 2906 4863 
L 3481 4863 
L 3481 0 
L 2906 0 
L 2906 525 
Q 2725 213 2448 61 
Q 2172 -91 1784 -91 
Q 1150 -91 751 415 
Q 353 922 353 1747 
Q 353 2572 751 3078 
Q 1150 3584 1784 3584 
Q 2172 3584 2448 3432 
Q 2725 3281 2906 2969 
z
M 947 1747 
Q 947 1113 1208 752 
Q 1469 391 1925 391 
Q 2381 391 2643 752 
Q 2906 1113 2906 1747 
Q 2906 2381 2643 2742 
Q 2381 3103 1925 3103 
Q 1469 3103 1208 2742 
Q 947 2381 947 1747 
z
" transform="scale(0.015625)"/>
       <path id="DejaVuSans-69" d="M 603 3500 
L 1178 3500 
L 1178 0 
L 603 0 
L 603 3500 
z
M 603 4863 
L 1178 4863 
L 1178 4134 
L 603 4134 
L 603 4863 
z
" transform="scale(0.015625)"/>
       <path id="DejaVuSans-6d" d="M 3328 2828 
Q 3544 3216 3844 3400 
Q 4144 3584 4550 3584 
Q 5097 3584 5394 3201 
Q 5691 2819 5691 2113 
L 5691 0 
L 5113 0 
L 5113 2094 
Q 5113 2597 4934 2840 
Q 4756 3084 4391 3084 
Q 3944 3084 3684 2787 
Q 3425 2491 3425 1978 
L 3425 0 
L 2847 0 
L 2847 2094 
Q 2847 2600 2669 2842 
Q 2491 3084 2119 3084 
Q 1678 3084 1418 2786 
Q 1159 2488 1159 1978 
L 1159 0 
L 581 0 
L 581 3500 
L 1159 3500 
L 1159 2956 
Q 1356 3278 1631 3431 
Q 1906 3584 2284 3584 
Q 2666 3584 2933 3390 
Q 3200 3197 3328 2828 
z
" transform="scale(0.015625)"/>
       <path id="DejaVuSans-6e" d="M 3513 2113 
L 3513 0 
L 2938 0 
L 2938 2094 
Q 2938 2591 2744 2837 
Q 2550 3084 2163 3084 
Q 1697 3084 1428 2787 
Q 1159 2491 1159 1978 
L 1159 0 
L 581 0 
L 581 3500 
L 1159 3500 
L 1159 2956 
Q 1366 3272 1645 3428 
Q 1925 3584 2291 3584 
Q 2894 3584 3203 3211 
Q 3513 2838 3513 2113 
z
" transform="scale(0.015625)"/>
       <path id="DejaVuSans-29" d="M 513 4856 
L 1013 4856 
Q 1481 4119 1714 3412 
Q 1947 2706 1947 2009 
Q 1947 1309 1714 600 
Q 1481 -109 1013 -844 
L 513 -844 
Q 928 -128 1133 580 
Q 1338 1288 1338 2009 
Q 1338 2731 1133 3434 
Q 928 4138 513 4856 
z
" transform="scale(0.015625)"/>
      </defs>
      <use xlink:href="#DejaVuSans-6c"/>
      <use xlink:href="#DejaVuSans-6f" x="27.783203"/>
      <use xlink:href="#DejaVuSans-67" x="88.964844"/>
      <use xlink:href="#DejaVuSans-31" x="152.441406"/>
      <use xlink:href="#DejaVuSans-30" x="216.064453"/>
      <use xlink:href="#DejaVuSans-28" x="279.6875"/>
      <use xlink:href="#DejaVuSans-23" x="318.701172"/>
      <use xlink:href="#DejaVuSans-20" x="402.490234"/>
      <use xlink:href="#DejaVuSans-66" x="434.277344"/>
      <use xlink:href="#DejaVuSans-2d" x="463.982422"/>
      <use xlink:href="#DejaVuSans-65" x="500.066406"/>
      <use xlink:href="#DejaVuSans-76" x="561.589844"/>
      <use xlink:href="#DejaVuSans-61" x="620.769531"/>
      <use xlink:href="#DejaVuSans-6c" x="682.048828"/>
      <use xlink:href="#DejaVuSans-73" x="709.832031"/>
      <use xlink:href="#DejaVuSans-20" x="761.931641"/>
      <use xlink:href="#DejaVuSans-2f" x="793.71875"/>
      <use xlink:href="#DejaVuSans-20" x="827.410156"/>
      <use xlink:href="#DejaVuSans-64" x="859.197266"/>
      <use xlink:href="#DejaVuSans-69" x="922.673828"/>
      <use xlink:href="#DejaVuSans-6d" x="950.457031"/>
      <use xlink:href="#DejaVuSans-65" x="1047.869141"/>
      <use xlink:href="#DejaVuSans-6e" x="1109.392578"/>
      <use xlink:href="#DejaVuSans-73" x="1172.771484"/>
      <use xlink:href="#DejaVuSans-69" x="1224.871094"/>
      <use xlink:href="#DejaVuSans-6f" x="1252.654297"/>
      <use xlink:href="#DejaVuSans-6e" x="1313.835938"/>
      <use xlink:href="#DejaVuSans-29" x="1377.214844"/>
     </g>
    </g>
   </g>
   <g id="matplotlib.axis_2">
    <g id="ytick_1">
     <g id="line2d_21">
      <path d="M 57.6 298.944 
L 360.8064 298.944 
" clip-path="url(#p3a896b3779)" style="fill: none; stroke: #b0b0b0; stroke-width: 0.8; stroke-linecap: square"/>
     </g>
     <g id="line2d_22">
      <defs>
       <path id="m4a31c0055f" d="M 0 0 
L -3.5 0 
" style="stroke: #000000; stroke-width: 0.8"/>
      </defs>
      <g>
       <use xlink:href="#m4a31c0055f" x="57.6" y="298.944" style="stroke: #000000; stroke-width: 0.8"/>
      </g>
     </g>
     <g id="text_6">
      <!-- 0.0 -->
      <g transform="translate(25.155 305.02275)scale(0.16 -0.16)">
       <defs>
        <path id="DejaVuSans-2e" d="M 684 794 
L 1344 794 
L 1344 0 
L 684 0 
L 684 794 
z
" transform="scale(0.015625)"/>
       </defs>
       <use xlink:href="#DejaVuSans-30"/>
       <use xlink:href="#DejaVuSans-2e" x="63.623047"/>
       <use xlink:href="#DejaVuSans-30" x="95.410156"/>
      </g>
     </g>
    </g>
    <g id="ytick_2">
     <g id="line2d_23">
      <path d="M 57.6 244.6848 
L 360.8064 244.6848 
" clip-path="url(#p3a896b3779)" style="fill: none; stroke: #b0b0b0; stroke-width: 0.8; stroke-linecap: square"/>
     </g>
     <g id="line2d_24">
      <g>
       <use xlink:href="#m4a31c0055f" x="57.6" y="244.6848" style="stroke: #000000; stroke-width: 0.8"/>
      </g>
     </g>
     <g id="text_7">
      <!-- 0.2 -->
      <g transform="translate(25.155 250.76355)scale(0.16 -0.16)">
       <use xlink:href="#DejaVuSans-30"/>
       <use xlink:href="#DejaVuSans-2e" x="63.623047"/>
       <use xlink:href="#DejaVuSans-32" x="95.410156"/>
      </g>
     </g>
    </g>
    <g id="ytick_3">
     <g id="line2d_25">
      <path d="M 57.6 190.4256 
L 360.8064 190.4256 
" clip-path="url(#p3a896b3779)" style="fill: none; stroke: #b0b0b0; stroke-width: 0.8; stroke-linecap: square"/>
     </g>
     <g id="line2d_26">
      <g>
       <use xlink:href="#m4a31c0055f" x="57.6" y="190.4256" style="stroke: #000000; stroke-width: 0.8"/>
      </g>
     </g>
     <g id="text_8">
      <!-- 0.4 -->
      <g transform="translate(25.155 196.50435)scale(0.16 -0.16)">
       <use xlink:href="#DejaVuSans-30"/>
       <use xlink:href="#DejaVuSans-2e" x="63.623047"/>
       <use xlink:href="#DejaVuSans-34" x="95.410156"/>
      </g>
     </g>
    </g>
    <g id="ytick_4">
     <g id="line2d_27">
      <path d="M 57.6 136.1664 
L 360.8064 136.1664 
" clip-path="url(#p3a896b3779)" style="fill: none; stroke: #b0b0b0; stroke-width: 0.8; stroke-linecap: square"/>
     </g>
     <g id="line2d_28">
      <g>
       <use xlink:href="#m4a31c0055f" x="57.6" y="136.1664" style="stroke: #000000; stroke-width: 0.8"/>
      </g>
     </g>
     <g id="text_9">
      <!-- 0.6 -->
      <g transform="translate(25.155 142.24515)scale(0.16 -0.16)">
       <use xlink:href="#DejaVuSans-30"/>
       <use xlink:href="#DejaVuSans-2e" x="63.623047"/>
       <use xlink:href="#DejaVuSans-36" x="95.410156"/>
      </g>
     </g>
    </g>
    <g id="ytick_5">
     <g id="line2d_29">
      <path d="M 57.6 81.9072 
L 360.8064 81.9072 
" clip-path="url(#p3a896b3779)" style="fill: none; stroke: #b0b0b0; stroke-width: 0.8; stroke-linecap: square"/>
     </g>
     <g id="line2d_30">
      <g>
       <use xlink:href="#m4a31c0055f" x="57.6" y="81.9072" style="stroke: #000000; stroke-width: 0.8"/>
      </g>
     </g>
     <g id="text_10">
      <!-- 0.8 -->
      <g transform="translate(25.155 87.98595)scale(0.16 -0.16)">
       <defs>
        <path id="DejaVuSans-38" d="M 2034 2216 
Q 1584 2216 1326 1975 
Q 1069 1734 1069 1313 
Q 1069 891 1326 650 
Q 1584 409 2034 409 
Q 2484 409 2743 651 
Q 3003 894 3003 1313 
Q 3003 1734 2745 1975 
Q 2488 2216 2034 2216 
z
M 1403 2484 
Q 997 2584 770 2862 
Q 544 3141 544 3541 
Q 544 4100 942 4425 
Q 1341 4750 2034 4750 
Q 2731 4750 3128 4425 
Q 3525 4100 3525 3541 
Q 3525 3141 3298 2862 
Q 3072 2584 2669 2484 
Q 3125 2378 3379 2068 
Q 3634 1759 3634 1313 
Q 3634 634 3220 271 
Q 2806 -91 2034 -91 
Q 1263 -91 848 271 
Q 434 634 434 1313 
Q 434 1759 690 2068 
Q 947 2378 1403 2484 
z
M 1172 3481 
Q 1172 3119 1398 2916 
Q 1625 2713 2034 2713 
Q 2441 2713 2670 2916 
Q 2900 3119 2900 3481 
Q 2900 3844 2670 4047 
Q 2441 4250 2034 4250 
Q 1625 4250 1398 4047 
Q 1172 3844 1172 3481 
z
" transform="scale(0.015625)"/>
       </defs>
       <use xlink:href="#DejaVuSans-30"/>
       <use xlink:href="#DejaVuSans-2e" x="63.623047"/>
       <use xlink:href="#DejaVuSans-38" x="95.410156"/>
      </g>
     </g>
    </g>
    <g id="ytick_6">
     <g id="line2d_31">
      <path d="M 57.6 27.648 
L 360.8064 27.648 
" clip-path="url(#p3a896b3779)" style="fill: none; stroke: #b0b0b0; stroke-width: 0.8; stroke-linecap: square"/>
     </g>
     <g id="line2d_32">
      <g>
       <use xlink:href="#m4a31c0055f" x="57.6" y="27.648" style="stroke: #000000; stroke-width: 0.8"/>
      </g>
     </g>
     <g id="text_11">
      <!-- 1.0 -->
      <g transform="translate(25.155 33.72675)scale(0.16 -0.16)">
       <use xlink:href="#DejaVuSans-31"/>
       <use xlink:href="#DejaVuSans-2e" x="63.623047"/>
       <use xlink:href="#DejaVuSans-30" x="95.410156"/>
      </g>
     </g>
    </g>
    <g id="text_12">
     <!-- Fraction of function,target pairs -->
     <g transform="translate(17.619531 297.681)rotate(-90)scale(0.17 -0.17)">
      <defs>
       <path id="DejaVuSans-46" d="M 628 4666 
L 3309 4666 
L 3309 4134 
L 1259 4134 
L 1259 2759 
L 3109 2759 
L 3109 2228 
L 1259 2228 
L 1259 0 
L 628 0 
L 628 4666 
z
" transform="scale(0.015625)"/>
       <path id="DejaVuSans-72" d="M 2631 2963 
Q 2534 3019 2420 3045 
Q 2306 3072 2169 3072 
Q 1681 3072 1420 2755 
Q 1159 2438 1159 1844 
L 1159 0 
L 581 0 
L 581 3500 
L 1159 3500 
L 1159 2956 
Q 1341 3275 1631 3429 
Q 1922 3584 2338 3584 
Q 2397 3584 2469 3576 
Q 2541 3569 2628 3553 
L 2631 2963 
z
" transform="scale(0.015625)"/>
       <path id="DejaVuSans-63" d="M 3122 3366 
L 3122 2828 
Q 2878 2963 2633 3030 
Q 2388 3097 2138 3097 
Q 1578 3097 1268 2742 
Q 959 2388 959 1747 
Q 959 1106 1268 751 
Q 1578 397 2138 397 
Q 2388 397 2633 464 
Q 2878 531 3122 666 
L 3122 134 
Q 2881 22 2623 -34 
Q 2366 -91 2075 -91 
Q 1284 -91 818 406 
Q 353 903 353 1747 
Q 353 2603 823 3093 
Q 1294 3584 2113 3584 
Q 2378 3584 2631 3529 
Q 2884 3475 3122 3366 
z
" transform="scale(0.015625)"/>
       <path id="DejaVuSans-74" d="M 1172 4494 
L 1172 3500 
L 2356 3500 
L 2356 3053 
L 1172 3053 
L 1172 1153 
Q 1172 725 1289 603 
Q 1406 481 1766 481 
L 2356 481 
L 2356 0 
L 1766 0 
Q 1100 0 847 248 
Q 594 497 594 1153 
L 594 3053 
L 172 3053 
L 172 3500 
L 594 3500 
L 594 4494 
L 1172 4494 
z
" transform="scale(0.015625)"/>
       <path id="DejaVuSans-75" d="M 544 1381 
L 544 3500 
L 1119 3500 
L 1119 1403 
Q 1119 906 1312 657 
Q 1506 409 1894 409 
Q 2359 409 2629 706 
Q 2900 1003 2900 1516 
L 2900 3500 
L 3475 3500 
L 3475 0 
L 2900 0 
L 2900 538 
Q 2691 219 2414 64 
Q 2138 -91 1772 -91 
Q 1169 -91 856 284 
Q 544 659 544 1381 
z
M 1991 3584 
L 1991 3584 
z
" transform="scale(0.015625)"/>
       <path id="DejaVuSans-2c" d="M 750 794 
L 1409 794 
L 1409 256 
L 897 -744 
L 494 -744 
L 750 256 
L 750 794 
z
" transform="scale(0.015625)"/>
       <path id="DejaVuSans-70" d="M 1159 525 
L 1159 -1331 
L 581 -1331 
L 581 3500 
L 1159 3500 
L 1159 2969 
Q 1341 3281 1617 3432 
Q 1894 3584 2278 3584 
Q 2916 3584 3314 3078 
Q 3713 2572 3713 1747 
Q 3713 922 3314 415 
Q 2916 -91 2278 -91 
Q 1894 -91 1617 61 
Q 1341 213 1159 525 
z
M 3116 1747 
Q 3116 2381 2855 2742 
Q 2594 3103 2138 3103 
Q 1681 3103 1420 2742 
Q 1159 2381 1159 1747 
Q 1159 1113 1420 752 
Q 1681 391 2138 391 
Q 2594 391 2855 752 
Q 3116 1113 3116 1747 
z
" transform="scale(0.015625)"/>
      </defs>
      <use xlink:href="#DejaVuSans-46"/>
      <use xlink:href="#DejaVuSans-72" x="50.269531"/>
      <use xlink:href="#DejaVuSans-61" x="91.382812"/>
      <use xlink:href="#DejaVuSans-63" x="152.662109"/>
      <use xlink:href="#DejaVuSans-74" x="207.642578"/>
      <use xlink:href="#DejaVuSans-69" x="246.851562"/>
      <use xlink:href="#DejaVuSans-6f" x="274.634766"/>
      <use xlink:href="#DejaVuSans-6e" x="335.816406"/>
      <use xlink:href="#DejaVuSans-20" x="399.195312"/>
      <use xlink:href="#DejaVuSans-6f" x="430.982422"/>
      <use xlink:href="#DejaVuSans-66" x="492.164062"/>
      <use xlink:href="#DejaVuSans-20" x="527.369141"/>
      <use xlink:href="#DejaVuSans-66" x="559.15625"/>
      <use xlink:href="#DejaVuSans-75" x="594.361328"/>
      <use xlink:href="#DejaVuSans-6e" x="657.740234"/>
      <use xlink:href="#DejaVuSans-63" x="721.119141"/>
      <use xlink:href="#DejaVuSans-74" x="776.099609"/>
      <use xlink:href="#DejaVuSans-69" x="815.308594"/>
      <use xlink:href="#DejaVuSans-6f" x="843.091797"/>
      <use xlink:href="#DejaVuSans-6e" x="904.273438"/>
      <use xlink:href="#DejaVuSans-2c" x="967.652344"/>
      <use xlink:href="#DejaVuSans-74" x="999.439453"/>
      <use xlink:href="#DejaVuSans-61" x="1038.648438"/>
      <use xlink:href="#DejaVuSans-72" x="1099.927734"/>
      <use xlink:href="#DejaVuSans-67" x="1139.291016"/>
      <use xlink:href="#DejaVuSans-65" x="1202.767578"/>
      <use xlink:href="#DejaVuSans-74" x="1264.291016"/>
      <use xlink:href="#DejaVuSans-20" x="1303.5"/>
      <use xlink:href="#DejaVuSans-70" x="1335.287109"/>
      <use xlink:href="#DejaVuSans-61" x="1398.763672"/>
      <use xlink:href="#DejaVuSans-69" x="1460.042969"/>
      <use xlink:href="#DejaVuSans-72" x="1487.826172"/>
      <use xlink:href="#DejaVuSans-73" x="1528.939453"/>
     </g>
    </g>
   </g>
   <g id="line2d_33">
    <defs>
     <path id="mf6e0e7abc2" d="M 0 1.5 
C 0.397805 1.5 0.77937 1.341951 1.06066 1.06066 
C 1.341951 0.77937 1.5 0.397805 1.5 0 
C 1.5 -0.397805 1.341951 -0.77937 1.06066 -1.06066 
C 0.77937 -1.341951 0.397805 -1.5 0 -1.5 
C -0.397805 -1.5 -0.77937 -1.341951 -1.06066 -1.06066 
C -1.341951 -0.77937 -1.5 -0.397805 -1.5 0 
C -1.5 0.397805 -1.341951 0.77937 -1.06066 1.06066 
C -0.77937 1.341951 -0.397805 1.5 0 1.5 
z
" style="stroke: #f5deb3"/>
    </defs>
    <g>
     <use xlink:href="#mf6e0e7abc2" x="73.268314" y="27.648" style="fill: #f5deb3; stroke: #f5deb3"/>
     <use xlink:href="#mf6e0e7abc2" x="73.268314" y="27.648" style="fill: #f5deb3; stroke: #f5deb3"/>
    </g>
   </g>
   <g id="line2d_34">
    <defs>
     <path id="m609d82297a" d="M 0 1.5 
C 0.397805 1.5 0.77937 1.341951 1.06066 1.06066 
C 1.341951 0.77937 1.5 0.397805 1.5 0 
C 1.5 -0.397805 1.341951 -0.77937 1.06066 -1.06066 
C 0.77937 -1.341951 0.397805 -1.5 0 -1.5 
C -0.397805 -1.5 -0.77937 -1.341951 -1.06066 -1.06066 
C -1.341951 -0.77937 -1.5 -0.397805 -1.5 0 
C -1.5 0.397805 -1.341951 0.77937 -1.06066 1.06066 
C -0.77937 1.341951 -0.397805 1.5 0 1.5 
z
" style="stroke: #000080"/>
    </defs>
    <g>
     <use xlink:href="#m609d82297a" x="152.942122" y="27.648" style="fill: #000080; stroke: #000080"/>
     <use xlink:href="#m609d82297a" x="152.942122" y="27.648" style="fill: #000080; stroke: #000080"/>
    </g>
   </g>
   <g id="line2d_35">
    <path d="M 14.2848 298.944 
L 14.2848 288.304941 
L 40.363149 288.304941 
L 40.363149 286.177129 
L 61.029752 286.177129 
L 61.029752 285.113224 
L 62.535479 285.113224 
L 62.535479 284.049318 
L 67.581941 284.049318 
L 67.581941 281.921506 
L 74.836851 281.921506 
L 74.836851 280.8576 
L 78.88343 280.8576 
L 78.88343 279.793694 
L 79.480672 279.793694 
L 79.480672 278.729788 
L 80.621116 278.729788 
L 80.621116 277.665882 
L 83.202082 277.665882 
L 83.202082 276.601976 
L 86.307488 276.601976 
L 86.307488 275.538071 
L 93.098709 275.538071 
L 93.098709 273.410259 
L 93.381595 273.410259 
L 93.381595 272.346353 
L 94.205591 272.346353 
L 94.205591 271.282447 
L 95.998523 271.282447 
L 95.998523 270.218541 
L 96.241256 270.218541 
L 96.241256 269.154635 
L 96.480897 269.154635 
L 96.480897 268.090729 
L 98.295464 268.090729 
L 98.295464 264.899012 
L 101.653002 264.899012 
L 101.653002 263.835106 
L 102.878374 263.835106 
L 102.878374 262.7712 
L 103.047088 262.7712 
L 103.047088 261.707294 
L 103.380045 261.707294 
L 103.380045 258.515576 
L 104.187532 258.515576 
L 104.187532 257.451671 
L 106.42077 257.451671 
L 106.42077 256.387765 
L 106.974091 256.387765 
L 106.974091 254.259953 
L 107.904887 254.259953 
L 107.904887 253.196047 
L 108.034177 253.196047 
L 108.034177 252.132141 
L 109.990385 252.132141 
L 109.990385 251.068235 
L 112.076599 251.068235 
L 112.076599 250.004329 
L 113.478107 250.004329 
L 113.478107 248.940424 
L 114.234452 248.940424 
L 114.234452 247.876518 
L 114.510421 247.876518 
L 114.601519 243.620894 
L 115.050503 243.620894 
L 115.050503 242.556988 
L 115.489021 242.556988 
L 115.489021 241.493082 
L 115.747307 241.493082 
L 115.747307 240.429176 
L 116.746385 240.429176 
L 116.746385 239.365271 
L 117.617813 239.365271 
L 117.695068 237.237459 
L 118.301945 237.237459 
L 118.301945 236.173553 
L 119.034004 236.173553 
L 119.034004 235.109647 
L 119.944983 235.109647 
L 119.944983 234.045741 
L 121.329295 234.045741 
L 121.329295 232.981835 
L 121.455972 232.981835 
L 121.455972 230.854024 
L 121.644403 230.854024 
L 121.644403 229.790118 
L 121.954321 229.790118 
L 121.954321 227.662306 
L 122.795872 227.662306 
L 122.795872 226.5984 
L 123.145323 226.5984 
L 123.145323 225.534494 
L 123.317644 225.534494 
L 123.317644 224.470588 
L 123.825333 224.470588 
L 123.825333 223.406682 
L 123.991562 223.406682 
L 123.991562 222.342776 
L 124.265389 222.342776 
L 124.265389 221.278871 
L 124.535287 221.278871 
L 124.642171 219.151059 
L 125.063736 219.151059 
L 125.063736 218.087153 
L 125.577745 218.087153 
L 125.577745 217.023247 
L 125.729248 217.023247 
L 125.729248 214.895435 
L 126.127391 214.895435 
L 126.127391 213.831529 
L 127.087372 213.831529 
L 127.087372 212.767624 
L 127.412117 212.767624 
L 127.412117 210.639812 
L 127.640693 210.639812 
L 127.640693 209.575906 
L 128.133992 209.575906 
L 128.133992 208.512 
L 128.57149 208.512 
L 128.57149 207.448094 
L 128.914307 207.448094 
L 128.999044 204.256376 
L 129.0834 204.256376 
L 129.0834 202.128565 
L 129.458394 202.128565 
L 129.458394 201.064659 
L 129.947033 201.064659 
L 129.947033 200.000753 
L 130.46245 200.000753 
L 130.501519 197.872941 
L 130.579414 197.872941 
L 130.579414 195.745129 
L 130.811181 195.745129 
L 130.811181 194.681224 
L 131.040128 194.681224 
L 131.040128 191.489506 
L 131.266322 191.489506 
L 131.266322 190.4256 
L 131.783764 190.4256 
L 131.783764 188.297788 
L 132.109044 188.297788 
L 132.109044 187.233882 
L 132.358208 187.233882 
L 132.358208 186.169976 
L 132.499119 186.169976 
L 132.499119 185.106071 
L 132.743202 185.106071 
L 132.743202 184.042165 
L 133.289492 184.042165 
L 133.289492 182.978259 
L 133.457005 182.978259 
L 133.457005 181.914353 
L 133.656071 181.914353 
L 133.656071 180.850447 
L 134.015642 180.850447 
L 134.080287 177.658729 
L 134.304809 177.658729 
L 134.400219 175.530918 
L 134.431915 175.530918 
L 134.431915 174.467012 
L 134.620977 174.467012 
L 134.620977 172.3392 
L 135.687504 172.3392 
L 135.717106 169.147482 
L 136.328207 169.147482 
L 136.356818 167.019671 
L 136.527575 167.019671 
L 136.527575 165.955765 
L 136.640557 165.955765 
L 136.640557 164.891859 
L 136.892314 164.891859 
L 136.947806 162.764047 
L 137.38594 162.764047 
L 137.38594 161.700141 
L 137.681345 161.700141 
L 137.787626 159.572329 
L 137.814102 159.572329 
L 137.840541 157.444518 
L 137.972183 157.444518 
L 137.972183 156.380612 
L 138.258593 156.380612 
L 138.258593 155.316706 
L 138.515235 155.316706 
L 138.515235 154.2528 
L 138.642255 154.2528 
L 138.642255 153.188894 
L 138.918715 153.188894 
L 138.968547 149.997176 
L 139.289277 149.997176 
L 139.313723 146.805459 
L 139.556456 146.805459 
L 139.652679 143.613741 
L 139.748412 143.613741 
L 139.748412 142.549835 
L 139.867398 142.549835 
L 139.867398 141.485929 
L 140.103135 141.485929 
L 140.103135 140.422024 
L 140.611586 140.422024 
L 140.702573 138.294212 
L 140.770526 138.294212 
L 140.770526 137.230306 
L 141.106655 137.230306 
L 141.217377 135.102494 
L 141.283499 135.102494 
L 141.283499 134.038588 
L 141.458695 134.038588 
L 141.48048 131.910776 
L 141.610664 131.910776 
L 141.610664 130.846871 
L 142.122575 130.846871 
L 142.122575 129.782965 
L 142.331827 129.782965 
L 142.41488 127.655153 
L 142.559347 127.655153 
L 142.559347 126.591247 
L 142.743475 126.591247 
L 142.743475 125.527341 
L 142.865233 125.527341 
L 142.885449 123.399529 
L 143.066428 123.399529 
L 143.10641 121.271718 
L 143.245681 121.271718 
L 143.265494 119.143906 
L 143.442869 119.143906 
L 143.442869 118.08 
L 143.599145 118.08 
L 143.599145 115.952188 
L 143.754133 115.952188 
L 143.773417 113.824376 
L 143.965177 113.824376 
L 143.965177 112.760471 
L 144.136106 112.760471 
L 144.2304 107.440941 
L 144.342932 107.440941 
L 144.436197 105.313129 
L 145.022388 105.313129 
L 145.040416 103.185318 
L 145.291002 103.185318 
L 145.326529 98.929694 
L 145.590864 98.929694 
L 145.678157 93.610165 
L 145.93763 93.610165 
L 145.989098 91.482353 
L 146.091614 91.482353 
L 146.091614 86.162824 
L 146.227438 86.162824 
L 146.227438 85.098918 
L 146.579379 85.098918 
L 146.612557 82.971106 
L 146.793994 82.971106 
L 146.843174 80.843294 
L 147.167799 80.843294 
L 147.264104 77.651576 
L 147.518533 77.651576 
L 147.628773 75.523765 
L 147.675821 75.523765 
L 147.785146 72.332047 
L 147.847333 72.332047 
L 147.847333 71.268141 
L 148.017294 71.268141 
L 148.094045 67.012518 
L 148.292143 67.012518 
L 148.367783 63.8208 
L 148.428077 63.8208 
L 148.428077 62.756894 
L 148.711861 62.756894 
L 148.711861 61.692988 
L 148.947561 61.692988 
L 148.991428 58.501271 
L 149.180344 58.501271 
L 149.238092 55.309553 
L 149.35306 55.309553 
L 149.35306 54.245647 
L 149.495789 54.245647 
L 149.552579 49.990024 
L 149.637443 49.990024 
L 149.65155 47.862212 
L 149.750003 47.862212 
L 149.847944 43.606588 
L 150.056115 43.606588 
L 150.097474 41.478776 
L 150.58682 41.478776 
L 150.680509 39.350965 
L 150.866501 39.350965 
L 150.866501 36.159247 
L 151.089903 36.159247 
L 151.116012 34.031435 
L 151.220087 34.031435 
L 151.220087 32.967529 
L 151.882893 32.967529 
L 151.882893 31.903624 
L 152.242637 31.903624 
L 152.242637 30.839718 
L 152.655828 30.839718 
L 152.715833 28.711906 
L 152.942122 28.711906 
L 152.942122 27.648 
L 360.8064 27.648 
L 360.8064 27.648 
" style="fill: none; stroke: #000080; stroke-width: 1.5; stroke-linecap: square"/>
   </g>
   <g id="line2d_36">
    <defs>
     <path id="m2f26e7ce2b" d="M 0 6 
C 1.591219 6 3.117479 5.367802 4.242641 4.242641 
C 5.367802 3.117479 6 1.591219 6 0 
C 6 -1.591219 5.367802 -3.117479 4.242641 -4.242641 
C 3.117479 -5.367802 1.591219 -6 0 -6 
C -1.591219 -6 -3.117479 -5.367802 -4.242641 -4.242641 
C -5.367802 -3.117479 -6 -1.591219 -6 0 
C -6 1.591219 -5.367802 3.117479 -4.242641 4.242641 
C -3.117479 5.367802 -1.591219 6 0 6 
z
" style="stroke: #000080; stroke-width: 1.5"/>
    </defs>
    <g>
     <use xlink:href="#m2f26e7ce2b" x="127.087372" y="213.831529" style="fill-opacity: 0; stroke: #000080; stroke-width: 1.5"/>
     <use xlink:href="#m2f26e7ce2b" x="149.750003" y="46.798306" style="fill-opacity: 0; stroke: #000080; stroke-width: 1.5"/>
     <use xlink:href="#m2f26e7ce2b" x="152.942122" y="28.711906" style="fill-opacity: 0; stroke: #000080; stroke-width: 1.5"/>
     <use xlink:href="#m2f26e7ce2b" x="152.942122" y="27.648" style="fill-opacity: 0; stroke: #000080; stroke-width: 1.5"/>
     <use xlink:href="#m2f26e7ce2b" x="152.942122" y="27.648" style="fill-opacity: 0; stroke: #000080; stroke-width: 1.5"/>
     <use xlink:href="#m2f26e7ce2b" x="360.8064" y="27.648" style="fill-opacity: 0; stroke: #000080; stroke-width: 1.5"/>
    </g>
   </g>
   <g id="line2d_37">
    <path style="fill: none; stroke: #000080; stroke-width: 1.5; stroke-linecap: square"/>
    <g/>
   </g>
   <g id="line2d_38">
    <defs>
     <path id="mc718fce124" d="M 0 1.5 
C 0.397805 1.5 0.77937 1.341951 1.06066 1.06066 
C 1.341951 0.77937 1.5 0.397805 1.5 0 
C 1.5 -0.397805 1.341951 -0.77937 1.06066 -1.06066 
C 0.77937 -1.341951 0.397805 -1.5 0 -1.5 
C -0.397805 -1.5 -0.77937 -1.341951 -1.06066 -1.06066 
C -1.341951 -0.77937 -1.5 -0.397805 -1.5 0 
C -1.5 0.397805 -1.341951 0.77937 -1.06066 1.06066 
C -0.77937 1.341951 -0.397805 1.5 0 1.5 
z
" style="stroke: #ff00ff"/>
    </defs>
    <g>
     <use xlink:href="#mc718fce124" x="150.733838" y="27.648" style="fill: #ff00ff; stroke: #ff00ff"/>
     <use xlink:href="#mc718fce124" x="150.733838" y="27.648" style="fill: #ff00ff; stroke: #ff00ff"/>
    </g>
   </g>
   <g id="line2d_39">
    <path d="M 14.2848 298.944 
L 14.2848 288.304941 
L 62.535479 288.304941 
L 62.535479 286.177129 
L 65.227428 286.177129 
L 65.227428 284.049318 
L 66.441498 284.049318 
L 66.441498 282.985412 
L 72.432107 282.985412 
L 72.432107 281.921506 
L 74.068926 281.921506 
L 74.068926 280.8576 
L 81.166416 280.8576 
L 81.166416 278.729788 
L 85.038813 278.729788 
L 85.038813 277.665882 
L 88.248544 277.665882 
L 88.248544 276.601976 
L 88.972154 276.601976 
L 88.972154 275.538071 
L 92.811505 275.538071 
L 92.811505 274.474165 
L 96.717523 274.474165 
L 96.717523 273.410259 
L 97.635342 273.410259 
L 97.635342 272.346353 
L 97.857967 272.346353 
L 97.857967 271.282447 
L 98.295464 271.282447 
L 98.295464 270.218541 
L 98.933205 270.218541 
L 98.933205 268.090729 
L 99.346662 268.090729 
L 99.346662 267.026824 
L 99.950294 267.026824 
L 99.950294 265.962918 
L 100.342215 265.962918 
L 100.342215 264.899012 
L 102.187964 264.899012 
L 102.187964 263.835106 
L 105.705415 263.835106 
L 105.705415 262.7712 
L 106.137884 262.7712 
L 106.137884 259.579482 
L 106.279859 259.579482 
L 106.279859 258.515576 
L 106.837279 258.515576 
L 106.837279 257.451671 
L 107.109915 257.451671 
L 107.109915 256.387765 
L 107.774703 256.387765 
L 107.774703 255.323859 
L 108.162584 255.323859 
L 108.162584 254.259953 
L 110.562208 254.259953 
L 110.562208 253.196047 
L 111.007473 253.196047 
L 111.007473 252.132141 
L 111.442442 252.132141 
L 111.442442 251.068235 
L 113.186449 251.068235 
L 113.186449 250.004329 
L 113.765312 250.004329 
L 113.765312 247.876518 
L 113.954374 247.876518 
L 113.954374 246.812612 
L 114.141556 246.812612 
L 114.141556 245.748706 
L 114.418881 245.748706 
L 114.510421 242.556988 
L 114.872193 242.556988 
L 114.872193 241.493082 
L 115.83262 241.493082 
L 115.83262 240.429176 
L 116.907859 240.429176 
L 116.988079 237.237459 
L 117.1475 237.237459 
L 117.1475 236.173553 
L 117.617813 236.173553 
L 117.617813 235.109647 
L 118.076654 235.109647 
L 118.152051 232.981835 
L 118.671535 232.981835 
L 118.74459 230.854024 
L 118.889854 230.854024 
L 118.889854 229.790118 
L 120.351004 229.790118 
L 120.351004 228.726212 
L 120.748446 228.726212 
L 120.748446 227.662306 
L 120.879082 227.662306 
L 120.879082 225.534494 
L 121.830966 225.534494 
L 121.830966 224.470588 
L 122.015696 224.470588 
L 122.015696 223.406682 
L 122.439807 223.406682 
L 122.439807 221.278871 
L 122.971409 221.278871 
L 122.971409 219.151059 
L 123.202939 219.151059 
L 123.202939 217.023247 
L 123.544976 217.023247 
L 123.544976 215.959341 
L 123.713691 215.959341 
L 123.713691 214.895435 
L 123.936316 214.895435 
L 123.936316 213.831529 
L 124.156336 213.831529 
L 124.156336 212.767624 
L 124.588805 212.767624 
L 124.588805 211.703718 
L 125.219419 211.703718 
L 125.271028 208.512 
L 125.678882 208.512 
L 125.678882 207.448094 
L 125.829577 207.448094 
L 125.879541 205.320282 
L 126.127391 205.320282 
L 126.127391 204.256376 
L 126.946461 204.256376 
L 126.946461 202.128565 
L 127.18073 202.128565 
L 127.18073 201.064659 
L 127.458055 201.064659 
L 127.458055 200.000753 
L 127.640693 200.000753 
L 127.640693 198.936847 
L 128.089678 198.936847 
L 128.133992 196.809035 
L 128.528195 196.809035 
L 128.528195 194.681224 
L 129.417095 194.681224 
L 129.417095 193.617318 
L 129.622688 193.617318 
L 129.622688 192.553412 
L 130.067235 192.553412 
L 130.146945 188.297788 
L 130.305359 188.297788 
L 130.305359 187.233882 
L 130.618241 187.233882 
L 130.656987 185.106071 
L 130.849533 185.106071 
L 130.849533 184.042165 
L 131.040128 184.042165 
L 131.040128 182.978259 
L 131.191226 182.978259 
L 131.191226 180.850447 
L 131.341119 180.850447 
L 131.341119 178.722635 
L 131.71071 178.722635 
L 131.71071 177.658729 
L 132.109044 177.658729 
L 132.180571 175.530918 
L 132.322814 175.530918 
L 132.322814 174.467012 
L 132.499119 174.467012 
L 132.499119 172.3392 
L 132.708526 172.3392 
L 132.708526 171.275294 
L 133.188264 171.275294 
L 133.25581 167.019671 
L 133.490329 167.019671 
L 133.490329 164.891859 
L 133.918257 164.891859 
L 133.918257 163.827953 
L 134.431915 163.827953 
L 134.431915 162.764047 
L 134.558167 162.764047 
L 134.558167 161.700141 
L 134.683578 161.700141 
L 134.745971 159.572329 
L 134.87014 159.572329 
L 134.87014 158.508424 
L 135.085483 158.508424 
L 135.085483 157.444518 
L 135.388902 157.444518 
L 135.388902 156.380612 
L 135.508912 156.380612 
L 135.538796 153.188894 
L 135.776169 153.188894 
L 135.776169 151.061082 
L 135.893741 151.061082 
L 135.893741 149.997176 
L 136.068734 149.997176 
L 136.068734 148.933271 
L 136.612375 148.933271 
L 136.612375 147.869365 
L 136.752866 147.869365 
L 136.752866 146.805459 
L 137.140746 146.805459 
L 137.140746 145.741553 
L 137.38594 145.741553 
L 137.466966 143.613741 
L 137.654681 143.613741 
L 137.654681 141.485929 
L 137.814102 141.485929 
L 137.840541 138.294212 
L 138.024583 138.294212 
L 138.024583 137.230306 
L 138.258593 137.230306 
L 138.258593 136.1664 
L 138.387352 136.1664 
L 138.387352 135.102494 
L 138.616919 135.102494 
L 138.692823 130.846871 
L 138.968547 130.846871 
L 138.968547 129.782965 
L 139.141927 129.782965 
L 139.215746 127.655153 
L 139.459738 127.655153 
L 139.459738 126.591247 
L 139.796097 126.591247 
L 139.891105 122.335624 
L 140.032723 122.335624 
L 140.032723 121.271718 
L 140.14993 121.271718 
L 140.14993 120.207812 
L 140.312801 120.207812 
L 140.312801 119.143906 
L 140.428281 119.143906 
L 140.474275 114.888282 
L 140.543056 114.888282 
L 140.634374 110.632659 
L 140.972924 110.632659 
L 140.972924 109.568753 
L 141.173167 109.568753 
L 141.173167 108.504847 
L 141.523975 108.504847 
L 141.56737 106.377035 
L 141.868361 106.377035 
L 141.889677 104.249224 
L 142.059343 104.249224 
L 142.143605 99.9936 
L 142.41488 99.9936 
L 142.41488 98.929694 
L 142.579895 98.929694 
L 142.682299 92.546259 
L 143.205995 92.546259 
L 143.205995 91.482353 
L 143.364242 91.482353 
L 143.403597 88.290635 
L 143.501625 88.290635 
L 143.560197 85.098918 
L 143.811926 85.098918 
L 143.811926 84.035012 
L 144.173881 84.035012 
L 144.267986 78.715482 
L 144.342932 78.715482 
L 144.342932 77.651576 
L 144.454795 77.651576 
L 144.454795 76.587671 
L 144.822939 76.587671 
L 144.877544 74.459859 
L 145.004344 74.459859 
L 145.076419 72.332047 
L 145.397382 72.332047 
L 145.503164 68.076424 
L 145.520737 68.076424 
L 145.62583 65.948612 
L 145.66073 65.948612 
L 145.7477 62.756894 
L 146.023332 62.756894 
L 146.040426 60.629082 
L 146.159649 60.629082 
L 146.159649 59.565176 
L 146.362288 59.565176 
L 146.395851 57.437365 
L 146.678736 57.437365 
L 146.761135 54.245647 
L 146.826795 54.245647 
L 146.826795 53.181741 
L 146.973697 53.181741 
L 147.038621 49.990024 
L 147.087167 49.990024 
L 147.167799 43.606588 
L 147.232057 43.606588 
L 147.232057 42.542682 
L 147.375841 42.542682 
L 147.471089 40.414871 
L 147.924778 40.414871 
L 148.001907 38.287059 
L 148.337564 38.287059 
L 148.337564 37.223153 
L 148.458151 37.223153 
L 148.458151 36.159247 
L 148.68219 36.159247 
L 148.711861 34.031435 
L 148.888912 34.031435 
L 148.888912 32.967529 
L 149.151403 32.967529 
L 149.151403 31.903624 
L 149.623325 31.903624 
L 149.65155 29.775812 
L 150.124997 29.775812 
L 150.124997 28.711906 
L 150.733838 28.711906 
L 150.733838 27.648 
L 360.8064 27.648 
L 360.8064 27.648 
" style="fill: none; stroke: #ff00ff; stroke-width: 1.5; stroke-linecap: square"/>
   </g>
   <g id="line2d_40">
    <defs>
     <path id="md2f9675641" d="M -0 8.485281 
L 5.091169 0 
L 0 -8.485281 
L -5.091169 -0 
z
" style="stroke: #ff00ff; stroke-width: 1.5; stroke-linejoin: miter"/>
    </defs>
    <g>
     <use xlink:href="#md2f9675641" x="74.068926" y="280.8576" style="fill-opacity: 0; stroke: #ff00ff; stroke-width: 1.5; stroke-linejoin: miter"/>
     <use xlink:href="#md2f9675641" x="131.71071" y="178.722635" style="fill-opacity: 0; stroke: #ff00ff; stroke-width: 1.5; stroke-linejoin: miter"/>
     <use xlink:href="#md2f9675641" x="146.362288" y="58.501271" style="fill-opacity: 0; stroke: #ff00ff; stroke-width: 1.5; stroke-linejoin: miter"/>
     <use xlink:href="#md2f9675641" x="150.733838" y="28.711906" style="fill-opacity: 0; stroke: #ff00ff; stroke-width: 1.5; stroke-linejoin: miter"/>
     <use xlink:href="#md2f9675641" x="150.733838" y="27.648" style="fill-opacity: 0; stroke: #ff00ff; stroke-width: 1.5; stroke-linejoin: miter"/>
     <use xlink:href="#md2f9675641" x="360.8064" y="27.648" style="fill-opacity: 0; stroke: #ff00ff; stroke-width: 1.5; stroke-linejoin: miter"/>
    </g>
   </g>
   <g id="line2d_41">
    <path style="fill: none; stroke: #ff00ff; stroke-width: 1.5; stroke-linecap: square"/>
    <g/>
   </g>
   <g id="line2d_42">
    <defs>
     <path id="ma2d1b17fd2" d="M 0 1.5 
C 0.397805 1.5 0.77937 1.341951 1.06066 1.06066 
C 1.341951 0.77937 1.5 0.397805 1.5 0 
C 1.5 -0.397805 1.341951 -0.77937 1.06066 -1.06066 
C 0.77937 -1.341951 0.397805 -1.5 0 -1.5 
C -0.397805 -1.5 -0.77937 -1.341951 -1.06066 -1.06066 
C -1.341951 -0.77937 -1.5 -0.397805 -1.5 0 
C -1.5 0.397805 -1.341951 0.77937 -1.06066 1.06066 
C -0.77937 1.341951 -0.397805 1.5 0 1.5 
z
" style="stroke: #ff7500"/>
    </defs>
    <g>
     <use xlink:href="#ma2d1b17fd2" x="152.655828" y="27.648" style="fill: #ff7500; stroke: #ff7500"/>
     <use xlink:href="#ma2d1b17fd2" x="152.655828" y="27.648" style="fill: #ff7500; stroke: #ff7500"/>
    </g>
   </g>
   <g id="line2d_43">
    <path d="M 14.2848 298.944 
L 14.2848 288.304941 
L 34.951403 288.304941 
L 34.951403 287.241035 
L 57.6 287.241035 
L 57.6 286.177129 
L 59.392932 286.177129 
L 59.392932 285.113224 
L 65.227428 285.113224 
L 65.227428 281.921506 
L 74.836851 281.921506 
L 74.836851 280.8576 
L 80.059535 280.8576 
L 80.059535 278.729788 
L 84.142855 278.729788 
L 84.142855 277.665882 
L 85.894031 277.665882 
L 85.894031 276.601976 
L 86.307488 276.601976 
L 86.307488 274.474165 
L 95.503454 274.474165 
L 95.503454 273.410259 
L 98.723018 273.410259 
L 98.723018 272.346353 
L 99.950294 272.346353 
L 99.950294 271.282447 
L 105.705415 271.282447 
L 105.705415 270.218541 
L 105.99483 270.218541 
L 105.99483 269.154635 
L 106.837279 269.154635 
L 106.837279 267.026824 
L 107.109915 267.026824 
L 107.109915 265.962918 
L 107.5116 265.962918 
L 107.5116 262.7712 
L 107.774703 262.7712 
L 107.774703 261.707294 
L 109.159456 261.707294 
L 109.159456 260.643388 
L 111.442442 260.643388 
L 111.442442 257.451671 
L 112.589207 257.451671 
L 112.690074 254.259953 
L 113.088217 254.259953 
L 113.088217 251.068235 
L 114.048198 251.068235 
L 114.048198 250.004329 
L 114.601519 250.004329 
L 114.601519 248.940424 
L 114.872193 248.940424 
L 114.872193 246.812612 
L 115.050503 246.812612 
L 115.050503 245.748706 
L 116.170056 245.748706 
L 116.170056 244.6848 
L 117.1475 244.6848 
L 117.1475 243.620894 
L 118.450653 243.620894 
L 118.450653 242.556988 
L 118.598196 242.556988 
L 118.598196 240.429176 
L 118.817362 240.429176 
L 118.817362 238.301365 
L 119.944983 238.301365 
L 120.013265 235.109647 
L 120.28394 235.109647 
L 120.28394 234.045741 
L 121.644403 234.045741 
L 121.644403 232.981835 
L 121.892744 232.981835 
L 121.892744 231.917929 
L 122.13785 231.917929 
L 122.13785 230.854024 
L 122.319605 230.854024 
L 122.319605 229.790118 
L 122.499621 229.790118 
L 122.499621 228.726212 
L 122.677931 228.726212 
L 122.677931 227.662306 
L 123.260379 227.662306 
L 123.260379 226.5984 
L 124.101572 226.5984 
L 124.156336 222.342776 
L 124.642171 222.342776 
L 124.748451 219.151059 
L 125.115773 219.151059 
L 125.115773 218.087153 
L 126.127391 218.087153 
L 126.127391 217.023247 
L 127.134109 217.023247 
L 127.134109 215.959341 
L 127.319904 215.959341 
L 127.366067 213.831529 
L 127.640693 213.831529 
L 127.640693 212.767624 
L 128.133992 212.767624 
L 128.133992 211.703718 
L 128.614685 211.703718 
L 128.700779 209.575906 
L 128.786481 209.575906 
L 128.786481 208.512 
L 129.0834 208.512 
L 129.125437 204.256376 
L 129.375706 204.256376 
L 129.375706 203.192471 
L 129.987186 203.192471 
L 130.027253 201.064659 
L 130.540507 201.064659 
L 130.540507 200.000753 
L 130.811181 200.000753 
L 130.811181 197.872941 
L 131.303758 197.872941 
L 131.303758 196.809035 
L 131.489828 196.809035 
L 131.563744 193.617318 
L 131.747272 193.617318 
L 131.856536 188.297788 
L 132.393534 188.297788 
L 132.428795 185.106071 
L 132.949924 185.106071 
L 132.949924 184.042165 
L 133.323114 184.042165 
L 133.323114 182.978259 
L 133.556801 182.978259 
L 133.556801 180.850447 
L 133.689044 180.850447 
L 133.689044 179.786541 
L 133.853052 179.786541 
L 133.853052 178.722635 
L 134.208913 178.722635 
L 134.208913 177.658729 
L 134.7148 177.658729 
L 134.7148 176.594824 
L 134.87014 176.594824 
L 134.87014 175.530918 
L 135.92302 175.530918 
L 136.010584 172.3392 
L 136.126705 172.3392 
L 136.126705 171.275294 
L 136.299553 171.275294 
L 136.385386 167.019671 
L 136.584151 167.019671 
L 136.584151 164.891859 
L 136.92008 164.891859 
L 136.92008 162.764047 
L 137.27736 162.764047 
L 137.38594 160.636235 
L 137.681345 160.636235 
L 137.681345 159.572329 
L 137.814102 159.572329 
L 137.814102 158.508424 
L 137.998402 158.508424 
L 137.998402 156.380612 
L 138.128947 156.380612 
L 138.128947 153.188894 
L 138.335954 153.188894 
L 138.438609 151.061082 
L 138.692823 151.061082 
L 138.692823 149.997176 
L 139.891105 149.997176 
L 139.891105 148.933271 
L 140.009194 148.933271 
L 140.009194 147.869365 
L 140.173284 147.869365 
L 140.173284 146.805459 
L 140.28962 146.805459 
L 140.28962 145.741553 
L 140.543056 145.741553 
L 140.611586 142.549835 
L 140.679868 142.549835 
L 140.747902 140.422024 
L 140.815692 140.422024 
L 140.905699 136.1664 
L 141.062184 136.1664 
L 141.062184 135.102494 
L 141.283499 135.102494 
L 141.327451 131.910776 
L 141.632274 131.910776 
L 141.632274 130.846871 
L 142.080444 130.846871 
L 142.122575 128.719059 
L 142.206555 128.719059 
L 142.290162 125.527341 
L 142.435586 125.527341 
L 142.435586 124.463435 
L 142.559347 124.463435 
L 142.559347 123.399529 
L 142.743475 123.399529 
L 142.844994 119.143906 
L 142.925817 119.143906 
L 142.925817 118.08 
L 143.38393 118.08 
L 143.442869 114.888282 
L 143.501625 114.888282 
L 143.501625 113.824376 
L 143.618588 113.824376 
L 143.676798 110.632659 
L 143.965177 110.632659 
L 144.003296 108.504847 
L 144.079302 108.504847 
L 144.079302 107.440941 
L 144.361622 107.440941 
L 144.361622 106.377035 
L 144.529002 106.377035 
L 144.584466 104.249224 
L 144.658165 104.249224 
L 144.694906 102.121412 
L 144.822939 102.121412 
L 144.822939 99.9936 
L 144.986282 99.9936 
L 145.004344 96.801882 
L 145.573357 96.801882 
L 145.608355 93.610165 
L 145.695567 93.610165 
L 145.695567 92.546259 
L 146.057504 92.546259 
L 146.108646 90.418447 
L 146.227438 90.418447 
L 146.294984 87.226729 
L 146.546143 87.226729 
L 146.645676 82.971106 
L 146.744684 82.971106 
L 146.843174 79.779388 
L 146.924857 79.779388 
L 146.973697 76.587671 
L 147.070998 76.587671 
L 147.070998 75.523765 
L 147.312072 75.523765 
L 147.312072 73.395953 
L 147.800712 73.395953 
L 147.800712 72.332047 
L 147.986506 72.332047 
L 148.03267 69.140329 
L 148.139946 69.140329 
L 148.139946 68.076424 
L 148.382875 68.076424 
L 148.458151 65.948612 
L 148.563035 65.948612 
L 148.637595 58.501271 
L 149.107908 58.501271 
L 149.107908 57.437365 
L 149.295664 57.437365 
L 149.295664 56.373459 
L 149.42456 56.373459 
L 149.453084 53.181741 
L 149.623325 53.181741 
L 149.693807 49.990024 
L 149.764026 49.990024 
L 149.764026 48.926118 
L 149.945377 48.926118 
L 150.000827 45.7344 
L 150.124997 45.7344 
L 150.221009 41.478776 
L 150.506141 41.478776 
L 150.613636 39.350965 
L 150.733838 39.350965 
L 150.787015 37.223153 
L 150.866501 37.223153 
L 150.892922 35.095341 
L 151.54166 35.095341 
L 151.54166 34.031435 
L 151.681429 34.031435 
L 151.719368 30.839718 
L 152.119363 30.839718 
L 152.119363 29.775812 
L 152.55942 29.775812 
L 152.655828 27.648 
L 360.8064 27.648 
L 360.8064 27.648 
" style="fill: none; stroke: #ff7500; stroke-width: 1.5; stroke-linecap: square"/>
   </g>
   <g id="line2d_44">
    <defs>
     <path id="mecfe9c728b" d="M 0 -6 
L -1.347084 -1.854102 
L -5.706339 -1.854102 
L -2.179628 0.708204 
L -3.526712 4.854102 
L -0 2.291796 
L 3.526712 4.854102 
L 2.179628 0.708204 
L 5.706339 -1.854102 
L 1.347084 -1.854102 
z
" style="stroke: #ff7500; stroke-width: 1.5; stroke-linejoin: bevel"/>
    </defs>
    <g>
     <use xlink:href="#mecfe9c728b" x="116.170056" y="244.6848" style="fill-opacity: 0; stroke: #ff7500; stroke-width: 1.5; stroke-linejoin: bevel"/>
     <use xlink:href="#mecfe9c728b" x="148.607806" y="61.692988" style="fill-opacity: 0; stroke: #ff7500; stroke-width: 1.5; stroke-linejoin: bevel"/>
     <use xlink:href="#mecfe9c728b" x="152.655828" y="28.711906" style="fill-opacity: 0; stroke: #ff7500; stroke-width: 1.5; stroke-linejoin: bevel"/>
     <use xlink:href="#mecfe9c728b" x="152.655828" y="27.648" style="fill-opacity: 0; stroke: #ff7500; stroke-width: 1.5; stroke-linejoin: bevel"/>
     <use xlink:href="#mecfe9c728b" x="152.655828" y="27.648" style="fill-opacity: 0; stroke: #ff7500; stroke-width: 1.5; stroke-linejoin: bevel"/>
     <use xlink:href="#mecfe9c728b" x="360.8064" y="27.648" style="fill-opacity: 0; stroke: #ff7500; stroke-width: 1.5; stroke-linejoin: bevel"/>
    </g>
   </g>
   <g id="line2d_45">
    <path style="fill: none; stroke: #ff7500; stroke-width: 1.5; stroke-linecap: square"/>
    <g/>
   </g>
   <g id="line2d_46">
    <defs>
     <path id="m02fbdfd476" d="M 0 1.5 
C 0.397805 1.5 0.77937 1.341951 1.06066 1.06066 
C 1.341951 0.77937 1.5 0.397805 1.5 0 
C 1.5 -0.397805 1.341951 -0.77937 1.06066 -1.06066 
C 0.77937 -1.341951 0.397805 -1.5 0 -1.5 
C -0.397805 -1.5 -0.77937 -1.341951 -1.06066 -1.06066 
C -1.341951 -0.77937 -1.5 -0.397805 -1.5 0 
C -1.5 0.397805 -1.341951 0.77937 -1.06066 1.06066 
C -0.77937 1.341951 -0.397805 1.5 0 1.5 
z
" style="stroke: #6495ed"/>
    </defs>
    <g>
     <use xlink:href="#m02fbdfd476" x="150.097474" y="27.648" style="fill: #6495ed; stroke: #6495ed"/>
     <use xlink:href="#m02fbdfd476" x="150.097474" y="27.648" style="fill: #6495ed; stroke: #6495ed"/>
    </g>
   </g>
   <g id="line2d_47">
    <path d="M 14.2848 298.944 
L 14.2848 288.304941 
L 27.323974 288.304941 
L 27.323974 286.177129 
L 70.639174 286.177129 
L 70.639174 285.113224 
L 76.284608 285.113224 
L 76.284608 284.049318 
L 80.059535 284.049318 
L 80.059535 282.985412 
L 81.696354 282.985412 
L 81.696354 280.8576 
L 84.142855 280.8576 
L 84.142855 279.793694 
L 89.668958 279.793694 
L 89.668958 278.729788 
L 90.340871 278.729788 
L 90.340871 277.665882 
L 92.223596 277.665882 
L 92.223596 276.601976 
L 92.811505 276.601976 
L 92.811505 274.474165 
L 97.857967 274.474165 
L 97.857967 272.346353 
L 98.295464 272.346353 
L 98.295464 270.218541 
L 98.933205 270.218541 
L 98.933205 269.154635 
L 100.342215 269.154635 
L 100.342215 268.090729 
L 105.26277 268.090729 
L 105.26277 267.026824 
L 106.42077 267.026824 
L 106.42077 265.962918 
L 107.904887 265.962918 
L 107.904887 264.899012 
L 108.162584 264.899012 
L 108.162584 263.835106 
L 109.280431 263.835106 
L 109.280431 262.7712 
L 109.990385 262.7712 
L 109.990385 261.707294 
L 110.106149 261.707294 
L 110.106149 260.643388 
L 110.335561 260.643388 
L 110.335561 259.579482 
L 110.674517 259.579482 
L 110.674517 258.515576 
L 111.656212 258.515576 
L 111.656212 257.451671 
L 112.385837 257.451671 
L 112.385837 254.259953 
L 113.186449 254.259953 
L 113.186449 253.196047 
L 114.418881 253.196047 
L 114.418881 252.132141 
L 114.7824 252.132141 
L 114.872193 250.004329 
L 115.227139 250.004329 
L 115.227139 248.940424 
L 116.002095 248.940424 
L 116.002095 247.876518 
L 116.746385 247.876518 
L 116.746385 245.748706 
L 116.907859 245.748706 
L 116.907859 244.6848 
L 118.671535 244.6848 
L 118.671535 242.556988 
L 119.034004 242.556988 
L 119.034004 241.493082 
L 120.748446 241.493082 
L 120.748446 238.301365 
L 121.073351 238.301365 
L 121.073351 237.237459 
L 121.455972 237.237459 
L 121.455972 236.173553 
L 121.768984 236.173553 
L 121.768984 235.109647 
L 122.499621 235.109647 
L 122.499621 232.981835 
L 122.677931 232.981835 
L 122.677931 231.917929 
L 122.913079 231.917929 
L 122.913079 230.854024 
L 123.145323 230.854024 
L 123.145323 229.790118 
L 123.317644 229.790118 
L 123.317644 228.726212 
L 123.825333 228.726212 
L 123.880906 226.5984 
L 124.319679 226.5984 
L 124.319679 225.534494 
L 124.642171 225.534494 
L 124.642171 224.470588 
L 125.063736 224.470588 
L 125.063736 223.406682 
L 125.219419 223.406682 
L 125.271028 221.278871 
L 125.678882 221.278871 
L 125.678882 220.214965 
L 125.829577 220.214965 
L 125.829577 219.151059 
L 125.979073 219.151059 
L 125.979073 218.087153 
L 126.613505 218.087153 
L 126.613505 215.959341 
L 126.756923 215.959341 
L 126.756923 214.895435 
L 127.319904 214.895435 
L 127.319904 213.831529 
L 127.731351 213.831529 
L 127.731351 212.767624 
L 128.178203 212.767624 
L 128.178203 211.703718 
L 128.39771 211.703718 
L 128.39771 210.639812 
L 128.57149 210.639812 
L 128.57149 209.575906 
L 129.292652 209.575906 
L 129.375706 204.256376 
L 129.417095 204.256376 
L 129.499602 202.128565 
L 129.906795 202.128565 
L 129.906795 200.000753 
L 130.226319 200.000753 
L 130.226319 198.936847 
L 130.46245 198.936847 
L 130.46245 196.809035 
L 130.926003 196.809035 
L 130.926003 195.745129 
L 131.040128 195.745129 
L 131.040128 194.681224 
L 131.41562 194.681224 
L 131.41562 193.617318 
L 131.747272 193.617318 
L 131.747272 191.489506 
L 132.109044 191.489506 
L 132.180571 189.361694 
L 132.638982 189.361694 
L 132.638982 188.297788 
L 132.846847 188.297788 
L 132.846847 187.233882 
L 133.154399 187.233882 
L 133.154399 186.169976 
L 133.390178 186.169976 
L 133.390178 184.042165 
L 133.523594 184.042165 
L 133.523594 180.850447 
L 133.885683 180.850447 
L 133.885683 178.722635 
L 134.208913 178.722635 
L 134.208913 176.594824 
L 134.400219 176.594824 
L 134.431915 173.403106 
L 134.589598 173.403106 
L 134.589598 172.3392 
L 135.085483 172.3392 
L 135.085483 171.275294 
L 135.35878 171.275294 
L 135.35878 169.147482 
L 135.74666 169.147482 
L 135.74666 168.083576 
L 135.864417 168.083576 
L 135.952253 165.955765 
L 136.155623 165.955765 
L 136.242113 163.827953 
L 136.270855 163.827953 
L 136.270855 162.764047 
L 136.470828 162.764047 
L 136.470828 160.636235 
L 136.92008 160.636235 
L 137.030737 158.508424 
L 137.140746 158.508424 
L 137.140746 157.444518 
L 137.38594 157.444518 
L 137.493898 153.188894 
L 137.520791 153.188894 
L 137.520791 152.124988 
L 137.654681 152.124988 
L 137.707972 149.997176 
L 138.076838 149.997176 
L 138.180913 147.869365 
L 138.284415 147.869365 
L 138.310202 144.677647 
L 138.89375 144.677647 
L 138.943648 142.549835 
L 139.289277 142.549835 
L 139.362521 138.294212 
L 139.652679 138.294212 
L 139.652679 137.230306 
L 139.891105 137.230306 
L 139.914782 134.038588 
L 140.009194 134.038588 
L 140.009194 132.974682 
L 140.219905 132.974682 
L 140.312801 129.782965 
L 140.520157 129.782965 
L 140.611586 127.655153 
L 141.261484 127.655153 
L 141.349389 125.527341 
L 141.393187 125.527341 
L 141.458695 122.335624 
L 141.545685 122.335624 
L 141.610664 117.016094 
L 142.143605 117.016094 
L 142.143605 115.952188 
L 142.45627 115.952188 
L 142.518184 110.632659 
L 142.702713 110.632659 
L 142.804452 108.504847 
L 142.966099 108.504847 
L 142.986208 104.249224 
L 143.126369 104.249224 
L 143.225848 102.121412 
L 143.324805 102.121412 
L 143.364242 98.929694 
L 143.560197 98.929694 
L 143.560197 97.865788 
L 144.022326 97.865788 
L 144.098256 95.737976 
L 144.249202 95.737976 
L 144.324223 93.610165 
L 144.361622 93.610165 
L 144.436197 90.418447 
L 144.565997 90.418447 
L 144.658165 86.162824 
L 144.786447 86.162824 
L 144.786447 85.098918 
L 144.91386 85.098918 
L 144.968202 82.971106 
L 145.166126 82.971106 
L 145.166126 81.9072 
L 145.344267 81.9072 
L 145.397382 79.779388 
L 145.678157 79.779388 
L 145.7477 73.395953 
L 145.971958 73.395953 
L 146.040426 70.204235 
L 146.108646 70.204235 
L 146.210514 68.076424 
L 146.227438 68.076424 
L 146.244347 65.948612 
L 146.395851 65.948612 
L 146.496179 61.692988 
L 146.612557 61.692988 
L 146.612557 60.629082 
L 146.924857 60.629082 
L 147.022411 57.437365 
L 147.070998 57.437365 
L 147.1517 54.245647 
L 147.296097 54.245647 
L 147.296097 52.117835 
L 147.423525 52.117835 
L 147.486917 48.926118 
L 147.785146 48.926118 
L 147.862847 45.7344 
L 148.001907 45.7344 
L 148.109358 41.478776 
L 148.307296 41.478776 
L 148.307296 39.350965 
L 148.918259 39.350965 
L 148.947561 35.095341 
L 149.367382 35.095341 
L 149.367382 34.031435 
L 149.665646 34.031435 
L 149.665646 31.903624 
L 149.79204 31.903624 
L 149.833983 28.711906 
L 150.097474 28.711906 
L 150.097474 27.648 
L 360.8064 27.648 
L 360.8064 27.648 
" style="fill: none; stroke: #6495ed; stroke-width: 1.5; stroke-linecap: square"/>
   </g>
   <g id="line2d_48">
    <defs>
     <path id="mcb4485db2d" d="M -0 6 
L 6 -6 
L -6 -6 
z
" style="stroke: #6495ed; stroke-width: 1.5; stroke-linejoin: miter"/>
    </defs>
    <g>
     <use xlink:href="#mcb4485db2d" x="107.904887" y="264.899012" style="fill-opacity: 0; stroke: #6495ed; stroke-width: 1.5; stroke-linejoin: miter"/>
     <use xlink:href="#mcb4485db2d" x="146.006223" y="72.332047" style="fill-opacity: 0; stroke: #6495ed; stroke-width: 1.5; stroke-linejoin: miter"/>
     <use xlink:href="#mcb4485db2d" x="150.097474" y="28.711906" style="fill-opacity: 0; stroke: #6495ed; stroke-width: 1.5; stroke-linejoin: miter"/>
     <use xlink:href="#mcb4485db2d" x="150.097474" y="27.648" style="fill-opacity: 0; stroke: #6495ed; stroke-width: 1.5; stroke-linejoin: miter"/>
     <use xlink:href="#mcb4485db2d" x="150.097474" y="27.648" style="fill-opacity: 0; stroke: #6495ed; stroke-width: 1.5; stroke-linejoin: miter"/>
     <use xlink:href="#mcb4485db2d" x="360.8064" y="27.648" style="fill-opacity: 0; stroke: #6495ed; stroke-width: 1.5; stroke-linejoin: miter"/>
    </g>
   </g>
   <g id="line2d_49">
    <path style="fill: none; stroke: #6495ed; stroke-width: 1.5; stroke-linecap: square"/>
    <g/>
   </g>
   <g id="line2d_50">
    <defs>
     <path id="m516208d327" d="M 0 1.5 
C 0.397805 1.5 0.77937 1.341951 1.06066 1.06066 
C 1.341951 0.77937 1.5 0.397805 1.5 0 
C 1.5 -0.397805 1.341951 -0.77937 1.06066 -1.06066 
C 0.77937 -1.341951 0.397805 -1.5 0 -1.5 
C -0.397805 -1.5 -0.77937 -1.341951 -1.06066 -1.06066 
C -1.341951 -0.77937 -1.5 -0.397805 -1.5 0 
C -1.5 0.397805 -1.341951 0.77937 -1.06066 1.06066 
C -0.77937 1.341951 -0.397805 1.5 0 1.5 
z
" style="stroke: #ff0000"/>
    </defs>
    <g>
     <use xlink:href="#m516208d327" x="153.340389" y="27.648" style="fill: #ff0000; stroke: #ff0000"/>
     <use xlink:href="#m516208d327" x="153.340389" y="27.648" style="fill: #ff0000; stroke: #ff0000"/>
    </g>
   </g>
   <g id="line2d_51">
    <path d="M 14.2848 298.944 
L 14.2848 289.014212 
L 44.560826 289.014212 
L 44.560826 288.304941 
L 47.990577 288.304941 
L 47.990577 287.950306 
L 57.6 287.950306 
L 57.6 287.241035 
L 61.029752 287.241035 
L 61.029752 286.177129 
L 62.535479 286.177129 
L 62.535479 284.403953 
L 65.227428 284.403953 
L 65.227428 282.985412 
L 67.581941 282.985412 
L 67.581941 282.630776 
L 69.674268 282.630776 
L 69.674268 282.276141 
L 70.639174 282.276141 
L 70.639174 281.921506 
L 75.574654 281.921506 
L 75.574654 281.566871 
L 76.284608 281.566871 
L 76.284608 281.212235 
L 78.88343 281.212235 
L 78.88343 280.8576 
L 80.059535 280.8576 
L 80.059535 280.148329 
L 81.166416 280.148329 
L 81.166416 279.793694 
L 82.713442 279.793694 
L 82.713442 279.084424 
L 85.471281 279.084424 
L 85.471281 278.729788 
L 85.894031 278.729788 
L 85.894031 278.375153 
L 86.307488 278.375153 
L 86.307488 278.020518 
L 87.1081 278.020518 
L 87.1081 277.665882 
L 87.495981 277.665882 
L 87.495981 277.311247 
L 87.876026 277.311247 
L 87.876026 276.601976 
L 88.248544 276.601976 
L 88.248544 276.247341 
L 90.668036 276.247341 
L 90.668036 275.538071 
L 92.223596 275.538071 
L 92.223596 274.474165 
L 92.519847 274.474165 
L 92.519847 274.119529 
L 93.381595 274.119529 
L 93.381595 273.764894 
L 93.66029 273.764894 
L 93.66029 273.410259 
L 94.205591 273.410259 
L 94.205591 272.700988 
L 94.735529 272.700988 
L 94.735529 272.346353 
L 94.995002 272.346353 
L 94.995002 271.637082 
L 95.752617 271.637082 
L 95.752617 271.282447 
L 96.95121 271.282447 
L 96.95121 270.573176 
L 97.18203 270.573176 
L 97.18203 269.863906 
L 97.857967 269.863906 
L 97.857967 269.509271 
L 98.723018 269.509271 
L 98.723018 268.8 
L 99.346662 268.8 
L 99.346662 268.090729 
L 100.342215 268.090729 
L 100.342215 267.736094 
L 100.535156 267.736094 
L 100.535156 267.381459 
L 101.102381 267.381459 
L 101.102381 267.026824 
L 101.287718 267.026824 
L 101.287718 266.672188 
L 102.187964 266.672188 
L 102.187964 265.962918 
L 102.536336 265.962918 
L 102.536336 265.608282 
L 102.708132 265.608282 
L 102.708132 265.253647 
L 103.047088 265.253647 
L 103.047088 264.189741 
L 104.655893 264.189741 
L 104.655893 263.835106 
L 104.809458 263.835106 
L 104.809458 263.125835 
L 104.961779 263.125835 
L 104.961779 262.416565 
L 105.411479 262.416565 
L 105.411479 262.061929 
L 105.559021 262.061929 
L 105.559021 261.707294 
L 105.705415 261.707294 
L 105.705415 260.998024 
L 106.42077 260.998024 
L 106.42077 260.288753 
L 106.837279 260.288753 
L 106.837279 259.934118 
L 106.974091 259.934118 
L 106.974091 259.224847 
L 107.244765 259.224847 
L 107.244765 258.870212 
L 107.378656 258.870212 
L 107.378656 258.160941 
L 107.5116 258.160941 
L 107.5116 257.806306 
L 107.643612 257.806306 
L 107.643612 257.451671 
L 107.904887 257.451671 
L 107.904887 257.097035 
L 108.034177 257.097035 
L 108.034177 256.7424 
L 108.915146 256.7424 
L 108.915146 256.033129 
L 109.037698 256.033129 
L 109.037698 255.678494 
L 109.280431 255.678494 
L 109.280431 254.969224 
L 109.638757 254.969224 
L 109.638757 254.614588 
L 109.873904 254.614588 
L 109.873904 253.905318 
L 110.106149 253.905318 
L 110.106149 253.196047 
L 110.335561 253.196047 
L 110.335561 252.841412 
L 110.897141 252.841412 
L 110.897141 252.486776 
L 111.117162 252.486776 
L 111.226215 251.422871 
L 111.656212 251.422871 
L 111.656212 251.068235 
L 111.97238 251.068235 
L 112.076599 250.004329 
L 112.283321 250.004329 
L 112.385837 249.295059 
L 112.890198 249.295059 
L 112.890198 248.940424 
L 113.186449 248.940424 
L 113.186449 248.585788 
L 113.478107 248.585788 
L 113.478107 248.231153 
L 113.670063 248.231153 
L 113.765312 247.521882 
L 114.141556 247.521882 
L 114.141556 246.812612 
L 114.7824 246.812612 
L 114.7824 246.457976 
L 115.139028 246.457976 
L 115.139028 246.103341 
L 115.489021 246.103341 
L 115.489021 245.748706 
L 115.917548 245.748706 
L 116.002095 245.039435 
L 116.170056 245.039435 
L 116.253478 243.975529 
L 116.336531 243.975529 
L 116.419219 243.266259 
L 116.501546 243.266259 
L 116.583514 241.493082 
L 117.226706 241.493082 
L 117.226706 241.138447 
L 117.462345 241.138447 
L 117.462345 240.429176 
L 117.695068 240.429176 
L 117.695068 240.074541 
L 118.000953 240.074541 
L 118.076654 239.010635 
L 118.301945 239.010635 
L 118.376446 237.592094 
L 118.817362 237.592094 
L 118.817362 237.237459 
L 118.962067 237.237459 
L 119.034004 236.528188 
L 119.389621 236.528188 
L 119.459944 235.818918 
L 119.599808 235.818918 
L 119.599808 235.464282 
L 119.738639 235.464282 
L 119.738639 234.755012 
L 119.876453 234.755012 
L 119.876453 234.400376 
L 120.0813 234.400376 
L 120.149089 233.691106 
L 120.216635 233.691106 
L 120.216635 233.336471 
L 120.41783 233.336471 
L 120.48442 232.6272 
L 121.137664 232.6272 
L 121.201758 231.917929 
L 121.265635 231.917929 
L 121.265635 231.208659 
L 121.39274 231.208659 
L 121.455972 230.144753 
L 121.954321 230.144753 
L 121.954321 229.790118 
L 122.076872 229.790118 
L 122.076872 229.435482 
L 122.379802 229.435482 
L 122.379802 228.726212 
L 122.913079 228.726212 
L 122.971409 228.016941 
L 123.029559 228.016941 
L 123.08753 226.5984 
L 123.431654 226.5984 
L 123.431654 226.243765 
L 123.544976 226.243765 
L 123.544976 225.889129 
L 123.657621 225.889129 
L 123.657621 225.534494 
L 123.825333 225.534494 
L 123.936316 224.825224 
L 123.991562 224.825224 
L 124.046648 223.406682 
L 124.535287 223.406682 
L 124.642171 222.342776 
L 124.695386 222.342776 
L 124.748451 221.278871 
L 124.959227 221.278871 
L 125.011554 220.214965 
L 125.167667 220.214965 
L 125.271028 218.796424 
L 125.322496 218.796424 
L 125.373824 217.732518 
L 125.47606 217.732518 
L 125.47606 217.377882 
L 125.628382 217.377882 
L 125.628382 217.023247 
L 125.879541 217.023247 
L 125.979073 215.959341 
L 126.078082 215.959341 
L 126.176572 215.250071 
L 126.323346 215.250071 
L 126.372018 214.5408 
L 126.517282 214.5408 
L 126.613505 213.476894 
L 126.661432 213.476894 
L 126.661432 213.122259 
L 126.993549 213.122259 
L 126.993549 212.412988 
L 127.227236 212.412988 
L 127.319904 211.703718 
L 127.458055 211.703718 
L 127.549596 210.285176 
L 127.911368 210.285176 
L 127.911368 209.575906 
L 128.133992 209.575906 
L 128.222309 208.866635 
L 128.441306 208.866635 
L 128.528195 207.802729 
L 128.614685 207.802729 
L 128.614685 207.448094 
L 128.999044 207.448094 
L 129.041269 206.029553 
L 129.250988 206.029553 
L 129.334225 204.256376 
L 129.375706 204.256376 
L 129.375706 203.192471 
L 129.663538 203.192471 
L 129.744974 202.4832 
L 129.826058 202.4832 
L 129.826058 202.128565 
L 130.107132 202.128565 
L 130.107132 201.773929 
L 130.265881 201.773929 
L 130.344755 201.064659 
L 130.384069 201.064659 
L 130.384069 200.710024 
L 130.540507 200.710024 
L 130.540507 199.646118 
L 130.656987 199.646118 
L 130.656987 199.291482 
L 130.887807 199.291482 
L 130.964122 198.227576 
L 131.002163 198.227576 
L 131.078016 197.163671 
L 131.115828 197.163671 
L 131.115828 196.099765 
L 131.303758 196.099765 
L 131.378407 194.681224 
L 131.41562 194.681224 
L 131.489828 193.617318 
L 131.600593 193.617318 
L 131.674076 192.908047 
L 131.783764 192.908047 
L 131.856536 191.489506 
L 132.144842 191.489506 
L 132.251827 190.4256 
L 132.358208 190.4256 
L 132.46399 189.716329 
L 132.638982 189.716329 
L 132.743202 188.297788 
L 132.777813 188.297788 
L 132.881269 186.524612 
L 133.05244 186.524612 
L 133.154399 184.3968 
L 133.188264 184.3968 
L 133.25581 183.687529 
L 133.390178 183.687529 
L 133.390178 183.332894 
L 133.556801 183.332894 
L 133.656071 182.268988 
L 133.853052 182.268988 
L 133.885683 181.559718 
L 134.015642 181.559718 
L 134.015642 181.205082 
L 134.208913 181.205082 
L 134.240933 179.786541 
L 134.368469 179.786541 
L 134.400219 179.077271 
L 134.495147 179.077271 
L 134.526683 177.304094 
L 134.620977 177.304094 
L 134.620977 176.594824 
L 134.839175 176.594824 
L 134.839175 175.885553 
L 134.993495 175.885553 
L 135.085483 174.821647 
L 135.177024 174.821647 
L 135.177024 173.403106 
L 135.298389 173.403106 
L 135.35878 172.3392 
L 135.449003 172.3392 
L 135.449003 171.984565 
L 135.687504 171.984565 
L 135.776169 170.566024 
L 135.805631 170.566024 
L 135.864417 169.856753 
L 136.039681 169.856753 
L 136.039681 169.502118 
L 136.184497 169.502118 
L 136.213327 168.792847 
L 136.299553 168.792847 
L 136.328207 168.083576 
L 136.527575 168.083576 
L 136.612375 167.374306 
L 136.752866 167.374306 
L 136.780838 166.665035 
L 136.864507 166.665035 
L 136.947806 165.955765 
L 137.030737 165.955765 
L 137.140746 164.182588 
L 137.168148 164.182588 
L 137.27736 162.409412 
L 137.304564 162.409412 
L 137.38594 161.345506 
L 137.439996 161.345506 
L 137.493898 160.636235 
L 137.574461 160.636235 
L 137.654681 158.863059 
L 137.707972 158.863059 
L 137.761112 157.444518 
L 138.050729 157.444518 
L 138.050729 156.735247 
L 138.206842 156.735247 
L 138.310202 154.2528 
L 138.36167 154.2528 
L 138.387352 153.188894 
L 138.489728 153.188894 
L 138.489728 152.834259 
L 138.667556 152.834259 
L 138.667556 151.770353 
L 138.818654 151.770353 
L 138.89375 150.351812 
L 139.043049 150.351812 
L 139.043049 149.997176 
L 139.166565 149.997176 
L 139.240288 148.224 
L 139.289277 148.224 
L 139.386872 147.514729 
L 139.411192 147.514729 
L 139.483965 146.450824 
L 139.556456 146.450824 
L 139.652679 144.323012 
L 139.700607 144.323012 
L 139.700607 143.613741 
L 139.867398 143.613741 
L 139.891105 142.904471 
L 140.009194 142.904471 
L 140.103135 141.131294 
L 140.26641 141.131294 
L 140.335954 139.712753 
L 140.474275 139.712753 
L 140.565927 138.648847 
L 140.679868 138.648847 
L 140.770526 137.230306 
L 140.815692 137.230306 
L 140.905699 135.811765 
L 141.017607 135.811765 
L 141.106655 134.038588 
L 141.195285 134.038588 
L 141.305488 131.910776 
L 141.458695 131.910776 
L 141.545685 130.492235 
L 141.67542 130.492235 
L 141.782854 129.428329 
L 141.804267 129.428329 
L 141.910969 128.364424 
L 141.932237 128.364424 
L 142.01707 127.300518 
L 142.185595 127.300518 
L 142.290162 125.881976 
L 142.352625 125.881976 
L 142.435586 123.399529 
L 142.497568 123.399529 
L 142.579895 122.335624 
L 142.661862 122.335624 
L 142.661862 121.980988 
L 142.865233 121.980988 
L 142.966099 119.143906 
L 143.006295 119.143906 
L 143.086429 118.08 
L 143.126369 118.08 
L 143.18612 116.306824 
L 143.245681 116.306824 
L 143.245681 115.952188 
L 143.364242 115.952188 
L 143.423243 114.888282 
L 143.48206 114.888282 
L 143.48206 114.179012 
L 143.638012 114.179012 
L 143.676798 113.469741 
L 143.83115 113.469741 
L 143.926981 111.341929 
L 143.965177 111.341929 
L 144.06033 110.278024 
L 144.079302 110.278024 
L 144.173881 108.504847 
L 144.267986 108.504847 
L 144.305496 107.086306 
L 144.398947 107.086306 
L 144.491935 103.894588 
L 144.529002 103.894588 
L 144.621352 102.476047 
L 144.676545 102.476047 
L 144.731576 101.057506 
L 144.804702 101.057506 
L 144.895711 99.9936 
L 144.968202 99.9936 
L 145.058426 98.929694 
L 145.219746 98.929694 
L 145.326529 96.801882 
L 145.361989 96.801882 
L 145.450347 94.674071 
L 145.608355 94.674071 
L 145.608355 94.319435 
L 145.816988 94.319435 
L 145.920443 92.546259 
L 145.93763 92.546259 
L 146.023332 90.063812 
L 146.074567 90.063812 
L 146.176619 87.936 
L 146.227438 87.936 
L 146.294984 85.808188 
L 146.345485 85.808188 
L 146.446082 83.680376 
L 146.612557 83.680376 
L 146.711739 82.261835 
L 146.777571 82.261835 
L 146.859539 79.779388 
L 146.957431 79.779388 
L 146.973697 78.715482 
L 147.070998 78.715482 
L 147.070998 78.006212 
L 147.183884 78.006212 
L 147.280107 75.8784 
L 147.296097 75.8784 
L 147.343984 74.814494 
L 147.455248 74.814494 
L 147.565858 73.041318 
L 147.581606 73.041318 
L 147.691478 70.558871 
L 147.707122 70.558871 
L 147.816265 68.785694 
L 147.831805 68.785694 
L 147.940229 65.948612 
L 148.124658 65.948612 
L 148.155221 65.239341 
L 148.261802 65.239341 
L 148.307296 63.8208 
L 148.44312 63.8208 
L 148.518156 60.629082 
L 148.607806 60.629082 
L 148.697031 59.565176 
L 148.741485 59.565176 
L 148.815343 58.146635 
L 148.874221 58.146635 
L 148.874221 57.437365 
L 148.991428 57.437365 
L 149.078856 55.664188 
L 149.107908 55.664188 
L 149.20924 52.472471 
L 149.223672 52.472471 
L 149.238092 51.408565 
L 149.381693 51.408565 
L 149.46733 50.344659 
L 149.510002 50.344659 
L 149.566749 49.280753 
L 149.637443 49.280753 
L 149.721926 48.571482 
L 149.750003 48.571482 
L 149.833983 47.507576 
L 149.903682 47.507576 
L 150.000827 45.379765 
L 150.042308 45.379765 
L 150.083698 43.961224 
L 150.179921 43.961224 
L 150.289291 42.897318 
L 150.370903 42.897318 
L 150.479171 40.769506 
L 150.600232 40.769506 
L 150.693856 39.350965 
L 150.72052 39.350965 
L 150.8268 36.513882 
L 150.945652 36.513882 
L 151.024471 35.804612 
L 151.089903 35.804612 
L 151.181127 34.031435 
L 151.246016 34.031435 
L 151.310683 32.612894 
L 151.464982 32.612894 
L 151.56715 31.194353 
L 151.694084 31.194353 
L 151.795018 30.130447 
L 151.820167 30.130447 
L 151.895414 29.421176 
L 152.032588 29.421176 
L 152.045009 28.711906 
L 152.20574 28.711906 
L 152.20574 28.357271 
L 152.870956 28.357271 
L 152.870956 28.002635 
L 153.340389 28.002635 
L 153.340389 27.648 
L 360.8064 27.648 
L 360.8064 27.648 
" style="fill: none; stroke: #ff0000; stroke-width: 1.5; stroke-linecap: square"/>
   </g>
   <g id="line2d_52">
    <defs>
     <path id="m54a2ae6761" d="M 0 -6 
L -5.196152 -3 
L -5.196152 3 
L -0 6 
L 5.196152 3 
L 5.196152 -3 
z
" style="stroke: #ff0000; stroke-width: 1.5; stroke-linejoin: miter"/>
    </defs>
    <g>
     <use xlink:href="#m54a2ae6761" x="75.574654" y="281.566871" style="fill-opacity: 0; stroke: #ff0000; stroke-width: 1.5; stroke-linejoin: miter"/>
     <use xlink:href="#m54a2ae6761" x="138.258593" y="155.671341" style="fill-opacity: 0; stroke: #ff0000; stroke-width: 1.5; stroke-linejoin: miter"/>
     <use xlink:href="#m54a2ae6761" x="153.340389" y="28.002635" style="fill-opacity: 0; stroke: #ff0000; stroke-width: 1.5; stroke-linejoin: miter"/>
     <use xlink:href="#m54a2ae6761" x="153.340389" y="27.648" style="fill-opacity: 0; stroke: #ff0000; stroke-width: 1.5; stroke-linejoin: miter"/>
     <use xlink:href="#m54a2ae6761" x="153.340389" y="27.648" style="fill-opacity: 0; stroke: #ff0000; stroke-width: 1.5; stroke-linejoin: miter"/>
     <use xlink:href="#m54a2ae6761" x="360.8064" y="27.648" style="fill-opacity: 0; stroke: #ff0000; stroke-width: 1.5; stroke-linejoin: miter"/>
    </g>
   </g>
   <g id="line2d_53">
    <path style="fill: none; stroke: #ff0000; stroke-width: 1.5; stroke-linecap: square"/>
    <g/>
   </g>
   <g id="line2d_54">
    <path d="M 360.8064 27.648 
L 380.514816 293.51808 
" style="fill: none; stroke: #ff0000; stroke-width: 1.5; stroke-linecap: square"/>
    <g>
     <use xlink:href="#m54a2ae6761" x="360.8064" y="27.648" style="fill-opacity: 0; stroke: #ff0000; stroke-width: 1.5; stroke-linejoin: miter"/>
     <use xlink:href="#m54a2ae6761" x="380.514816" y="293.51808" style="fill-opacity: 0; stroke: #ff0000; stroke-width: 1.5; stroke-linejoin: miter"/>
    </g>
   </g>
   <g id="line2d_55">
    <path d="M 360.8064 27.648 
L 380.514816 241.429248 
" style="fill: none; stroke: #000080; stroke-width: 1.5; stroke-linecap: square"/>
    <g>
     <use xlink:href="#m2f26e7ce2b" x="360.8064" y="27.648" style="fill-opacity: 0; stroke: #000080; stroke-width: 1.5"/>
     <use xlink:href="#m2f26e7ce2b" x="380.514816" y="241.429248" style="fill-opacity: 0; stroke: #000080; stroke-width: 1.5"/>
    </g>
   </g>
   <g id="line2d_56">
    <path d="M 360.8064 27.648 
L 380.514816 189.340416 
" style="fill: none; stroke: #ff7500; stroke-width: 1.5; stroke-linecap: square"/>
    <g>
     <use xlink:href="#mecfe9c728b" x="360.8064" y="27.648" style="fill-opacity: 0; stroke: #ff7500; stroke-width: 1.5; stroke-linejoin: bevel"/>
     <use xlink:href="#mecfe9c728b" x="380.514816" y="189.340416" style="fill-opacity: 0; stroke: #ff7500; stroke-width: 1.5; stroke-linejoin: bevel"/>
    </g>
   </g>
   <g id="line2d_57">
    <path d="M 360.8064 27.648 
L 380.514816 137.251584 
" style="fill: none; stroke: #ff00ff; stroke-width: 1.5; stroke-linecap: square"/>
    <g>
     <use xlink:href="#md2f9675641" x="360.8064" y="27.648" style="fill-opacity: 0; stroke: #ff00ff; stroke-width: 1.5; stroke-linejoin: miter"/>
     <use xlink:href="#md2f9675641" x="380.514816" y="137.251584" style="fill-opacity: 0; stroke: #ff00ff; stroke-width: 1.5; stroke-linejoin: miter"/>
    </g>
   </g>
   <g id="line2d_58">
    <path d="M 360.8064 27.648 
L 380.514816 85.162752 
" style="fill: none; stroke: #6495ed; stroke-width: 1.5; stroke-linecap: square"/>
    <g>
     <use xlink:href="#mcb4485db2d" x="360.8064" y="27.648" style="fill-opacity: 0; stroke: #6495ed; stroke-width: 1.5; stroke-linejoin: miter"/>
     <use xlink:href="#mcb4485db2d" x="380.514816" y="85.162752" style="fill-opacity: 0; stroke: #6495ed; stroke-width: 1.5; stroke-linejoin: miter"/>
    </g>
   </g>
   <g id="line2d_59">
    <path d="M 360.8064 298.944 
L 360.8064 27.648 
" style="fill: none; stroke: #000000; stroke-width: 1.5; stroke-linecap: square"/>
   </g>
   <g id="patch_3">
    <path d="M 57.6 298.944 
L 360.8064 298.944 
" style="fill: none; stroke: #000000; stroke-width: 0.8; stroke-linejoin: miter; stroke-linecap: square"/>
   </g>
   <g id="patch_4">
    <path d="M 57.6 27.648 
L 360.8064 27.648 
" style="fill: none; stroke: #000000; stroke-width: 0.8; stroke-linejoin: miter; stroke-linecap: square"/>
   </g>
   <g id="text_13">
    <!-- CMA-ES-20 -->
    <g transform="translate(386.578944 297.381205)scale(0.14 -0.14)">
     <defs>
      <path id="DejaVuSans-43" d="M 4122 4306 
L 4122 3641 
Q 3803 3938 3442 4084 
Q 3081 4231 2675 4231 
Q 1875 4231 1450 3742 
Q 1025 3253 1025 2328 
Q 1025 1406 1450 917 
Q 1875 428 2675 428 
Q 3081 428 3442 575 
Q 3803 722 4122 1019 
L 4122 359 
Q 3791 134 3420 21 
Q 3050 -91 2638 -91 
Q 1578 -91 968 557 
Q 359 1206 359 2328 
Q 359 3453 968 4101 
Q 1578 4750 2638 4750 
Q 3056 4750 3426 4639 
Q 3797 4528 4122 4306 
z
" transform="scale(0.015625)"/>
      <path id="DejaVuSans-4d" d="M 628 4666 
L 1569 4666 
L 2759 1491 
L 3956 4666 
L 4897 4666 
L 4897 0 
L 4281 0 
L 4281 4097 
L 3078 897 
L 2444 897 
L 1241 4097 
L 1241 0 
L 628 0 
L 628 4666 
z
" transform="scale(0.015625)"/>
      <path id="DejaVuSans-41" d="M 2188 4044 
L 1331 1722 
L 3047 1722 
L 2188 4044 
z
M 1831 4666 
L 2547 4666 
L 4325 0 
L 3669 0 
L 3244 1197 
L 1141 1197 
L 716 0 
L 50 0 
L 1831 4666 
z
" transform="scale(0.015625)"/>
      <path id="DejaVuSans-45" d="M 628 4666 
L 3578 4666 
L 3578 4134 
L 1259 4134 
L 1259 2753 
L 3481 2753 
L 3481 2222 
L 1259 2222 
L 1259 531 
L 3634 531 
L 3634 0 
L 628 0 
L 628 4666 
z
" transform="scale(0.015625)"/>
      <path id="DejaVuSans-53" d="M 3425 4513 
L 3425 3897 
Q 3066 4069 2747 4153 
Q 2428 4238 2131 4238 
Q 1616 4238 1336 4038 
Q 1056 3838 1056 3469 
Q 1056 3159 1242 3001 
Q 1428 2844 1947 2747 
L 2328 2669 
Q 3034 2534 3370 2195 
Q 3706 1856 3706 1288 
Q 3706 609 3251 259 
Q 2797 -91 1919 -91 
Q 1588 -91 1214 -16 
Q 841 59 441 206 
L 441 856 
Q 825 641 1194 531 
Q 1563 422 1919 422 
Q 2459 422 2753 634 
Q 3047 847 3047 1241 
Q 3047 1584 2836 1778 
Q 2625 1972 2144 2069 
L 1759 2144 
Q 1053 2284 737 2584 
Q 422 2884 422 3419 
Q 422 4038 858 4394 
Q 1294 4750 2059 4750 
Q 2388 4750 2728 4690 
Q 3069 4631 3425 4513 
z
" transform="scale(0.015625)"/>
     </defs>
     <use xlink:href="#DejaVuSans-43"/>
     <use xlink:href="#DejaVuSans-4d" x="69.824219"/>
     <use xlink:href="#DejaVuSans-41" x="156.103516"/>
     <use xlink:href="#DejaVuSans-2d" x="222.261719"/>
     <use xlink:href="#DejaVuSans-45" x="258.345703"/>
     <use xlink:href="#DejaVuSans-53" x="321.529297"/>
     <use xlink:href="#DejaVuSans-2d" x="385.005859"/>
     <use xlink:href="#DejaVuSans-32" x="421.089844"/>
     <use xlink:href="#DejaVuSans-30" x="484.712891"/>
    </g>
   </g>
   <g id="text_14">
    <!-- cma0R -->
    <g transform="translate(386.578944 245.292373)scale(0.14 -0.14)">
     <defs>
      <path id="DejaVuSans-52" d="M 2841 2188 
Q 3044 2119 3236 1894 
Q 3428 1669 3622 1275 
L 4263 0 
L 3584 0 
L 2988 1197 
Q 2756 1666 2539 1819 
Q 2322 1972 1947 1972 
L 1259 1972 
L 1259 0 
L 628 0 
L 628 4666 
L 2053 4666 
Q 2853 4666 3247 4331 
Q 3641 3997 3641 3322 
Q 3641 2881 3436 2590 
Q 3231 2300 2841 2188 
z
M 1259 4147 
L 1259 2491 
L 2053 2491 
Q 2509 2491 2742 2702 
Q 2975 2913 2975 3322 
Q 2975 3731 2742 3939 
Q 2509 4147 2053 4147 
L 1259 4147 
z
" transform="scale(0.015625)"/>
     </defs>
     <use xlink:href="#DejaVuSans-63"/>
     <use xlink:href="#DejaVuSans-6d" x="54.980469"/>
     <use xlink:href="#DejaVuSans-61" x="152.392578"/>
     <use xlink:href="#DejaVuSans-30" x="213.671875"/>
     <use xlink:href="#DejaVuSans-52" x="277.294922"/>
    </g>
   </g>
   <g id="text_15">
    <!-- ddcma0R -->
    <g transform="translate(386.578944 193.203541)scale(0.14 -0.14)">
     <use xlink:href="#DejaVuSans-64"/>
     <use xlink:href="#DejaVuSans-64" x="63.476562"/>
     <use xlink:href="#DejaVuSans-63" x="126.953125"/>
     <use xlink:href="#DejaVuSans-6d" x="181.933594"/>
     <use xlink:href="#DejaVuSans-61" x="279.345703"/>
     <use xlink:href="#DejaVuSans-30" x="340.625"/>
     <use xlink:href="#DejaVuSans-52" x="404.248047"/>
    </g>
   </g>
   <g id="text_16">
    <!-- cma1R -->
    <g transform="translate(386.578944 141.114709)scale(0.14 -0.14)">
     <use xlink:href="#DejaVuSans-63"/>
     <use xlink:href="#DejaVuSans-6d" x="54.980469"/>
     <use xlink:href="#DejaVuSans-61" x="152.392578"/>
     <use xlink:href="#DejaVuSans-31" x="213.671875"/>
     <use xlink:href="#DejaVuSans-52" x="277.294922"/>
    </g>
   </g>
   <g id="text_17">
    <!-- ddcma1R -->
    <g transform="translate(386.578944 89.025877)scale(0.14 -0.14)">
     <use xlink:href="#DejaVuSans-64"/>
     <use xlink:href="#DejaVuSans-64" x="63.476562"/>
     <use xlink:href="#DejaVuSans-63" x="126.953125"/>
     <use xlink:href="#DejaVuSans-6d" x="181.933594"/>
     <use xlink:href="#DejaVuSans-61" x="279.345703"/>
     <use xlink:href="#DejaVuSans-31" x="340.625"/>
     <use xlink:href="#DejaVuSans-52" x="404.248047"/>
    </g>
   </g>
   <g id="text_18">
    <!-- best 2009 -->
    <g transform="translate(386.578944 36.937045)scale(0.14 -0.14)">
     <defs>
      <path id="DejaVuSans-62" d="M 3116 1747 
Q 3116 2381 2855 2742 
Q 2594 3103 2138 3103 
Q 1681 3103 1420 2742 
Q 1159 2381 1159 1747 
Q 1159 1113 1420 752 
Q 1681 391 2138 391 
Q 2594 391 2855 752 
Q 3116 1113 3116 1747 
z
M 1159 2969 
Q 1341 3281 1617 3432 
Q 1894 3584 2278 3584 
Q 2916 3584 3314 3078 
Q 3713 2572 3713 1747 
Q 3713 922 3314 415 
Q 2916 -91 2278 -91 
Q 1894 -91 1617 61 
Q 1341 213 1159 525 
L 1159 0 
L 581 0 
L 581 4863 
L 1159 4863 
L 1159 2969 
z
" transform="scale(0.015625)"/>
      <path id="DejaVuSans-39" d="M 703 97 
L 703 672 
Q 941 559 1184 500 
Q 1428 441 1663 441 
Q 2288 441 2617 861 
Q 2947 1281 2994 2138 
Q 2813 1869 2534 1725 
Q 2256 1581 1919 1581 
Q 1219 1581 811 2004 
Q 403 2428 403 3163 
Q 403 3881 828 4315 
Q 1253 4750 1959 4750 
Q 2769 4750 3195 4129 
Q 3622 3509 3622 2328 
Q 3622 1225 3098 567 
Q 2575 -91 1691 -91 
Q 1453 -91 1209 -44 
Q 966 3 703 97 
z
M 1959 2075 
Q 2384 2075 2632 2365 
Q 2881 2656 2881 3163 
Q 2881 3666 2632 3958 
Q 2384 4250 1959 4250 
Q 1534 4250 1286 3958 
Q 1038 3666 1038 3163 
Q 1038 2656 1286 2365 
Q 1534 2075 1959 2075 
z
" transform="scale(0.015625)"/>
     </defs>
     <use xlink:href="#DejaVuSans-62"/>
     <use xlink:href="#DejaVuSans-65" x="63.476562"/>
     <use xlink:href="#DejaVuSans-73" x="125"/>
     <use xlink:href="#DejaVuSans-74" x="177.099609"/>
     <use xlink:href="#DejaVuSans-20" x="216.308594"/>
     <use xlink:href="#DejaVuSans-32" x="248.095703"/>
     <use xlink:href="#DejaVuSans-30" x="311.71875"/>
     <use xlink:href="#DejaVuSans-30" x="375.341797"/>
     <use xlink:href="#DejaVuSans-39" x="438.964844"/>
    </g>
   </g>
   <g id="text_19">
    <!-- bbob f1, 10-D -->
    <g transform="translate(60.632064 38.111366)scale(0.102 -0.102)">
     <defs>
      <path id="DejaVuSans-44" d="M 1259 4147 
L 1259 519 
L 2022 519 
Q 2988 519 3436 956 
Q 3884 1394 3884 2338 
Q 3884 3275 3436 3711 
Q 2988 4147 2022 4147 
L 1259 4147 
z
M 628 4666 
L 1925 4666 
Q 3281 4666 3915 4102 
Q 4550 3538 4550 2338 
Q 4550 1131 3912 565 
Q 3275 0 1925 0 
L 628 0 
L 628 4666 
z
" transform="scale(0.015625)"/>
     </defs>
     <use xlink:href="#DejaVuSans-62"/>
     <use xlink:href="#DejaVuSans-62" x="63.476562"/>
     <use xlink:href="#DejaVuSans-6f" x="126.953125"/>
     <use xlink:href="#DejaVuSans-62" x="188.134766"/>
     <use xlink:href="#DejaVuSans-20" x="251.611328"/>
     <use xlink:href="#DejaVuSans-66" x="283.398438"/>
     <use xlink:href="#DejaVuSans-31" x="318.603516"/>
     <use xlink:href="#DejaVuSans-2c" x="382.226562"/>
     <use xlink:href="#DejaVuSans-20" x="414.013672"/>
     <use xlink:href="#DejaVuSans-31" x="445.800781"/>
     <use xlink:href="#DejaVuSans-30" x="509.423828"/>
     <use xlink:href="#DejaVuSans-2d" x="573.046875"/>
     <use xlink:href="#DejaVuSans-44" x="609.130859"/>
    </g>
    <!-- 51 targets: 100..1e-08 -->
    <g transform="translate(60.632064 49.533135)scale(0.102 -0.102)">
     <defs>
      <path id="DejaVuSans-35" d="M 691 4666 
L 3169 4666 
L 3169 4134 
L 1269 4134 
L 1269 2991 
Q 1406 3038 1543 3061 
Q 1681 3084 1819 3084 
Q 2600 3084 3056 2656 
Q 3513 2228 3513 1497 
Q 3513 744 3044 326 
Q 2575 -91 1722 -91 
Q 1428 -91 1123 -41 
Q 819 9 494 109 
L 494 744 
Q 775 591 1075 516 
Q 1375 441 1709 441 
Q 2250 441 2565 725 
Q 2881 1009 2881 1497 
Q 2881 1984 2565 2268 
Q 2250 2553 1709 2553 
Q 1456 2553 1204 2497 
Q 953 2441 691 2322 
L 691 4666 
z
" transform="scale(0.015625)"/>
      <path id="DejaVuSans-3a" d="M 750 794 
L 1409 794 
L 1409 0 
L 750 0 
L 750 794 
z
M 750 3309 
L 1409 3309 
L 1409 2516 
L 750 2516 
L 750 3309 
z
" transform="scale(0.015625)"/>
     </defs>
     <use xlink:href="#DejaVuSans-35"/>
     <use xlink:href="#DejaVuSans-31" x="63.623047"/>
     <use xlink:href="#DejaVuSans-20" x="127.246094"/>
     <use xlink:href="#DejaVuSans-74" x="159.033203"/>
     <use xlink:href="#DejaVuSans-61" x="198.242188"/>
     <use xlink:href="#DejaVuSans-72" x="259.521484"/>
     <use xlink:href="#DejaVuSans-67" x="298.884766"/>
     <use xlink:href="#DejaVuSans-65" x="362.361328"/>
     <use xlink:href="#DejaVuSans-74" x="423.884766"/>
     <use xlink:href="#DejaVuSans-73" x="463.09375"/>
     <use xlink:href="#DejaVuSans-3a" x="515.193359"/>
     <use xlink:href="#DejaVuSans-20" x="548.884766"/>
     <use xlink:href="#DejaVuSans-31" x="580.671875"/>
     <use xlink:href="#DejaVuSans-30" x="644.294922"/>
     <use xlink:href="#DejaVuSans-30" x="707.917969"/>
     <use xlink:href="#DejaVuSans-2e" x="771.541016"/>
     <use xlink:href="#DejaVuSans-2e" x="803.328125"/>
     <use xlink:href="#DejaVuSans-31" x="835.115234"/>
     <use xlink:href="#DejaVuSans-65" x="898.738281"/>
     <use xlink:href="#DejaVuSans-2d" x="960.261719"/>
     <use xlink:href="#DejaVuSans-30" x="996.345703"/>
     <use xlink:href="#DejaVuSans-38" x="1059.96875"/>
    </g>
    <!-- 5, 15 instances -->
    <g transform="translate(60.632064 60.954904)scale(0.102 -0.102)">
     <use xlink:href="#DejaVuSans-35"/>
     <use xlink:href="#DejaVuSans-2c" x="63.623047"/>
     <use xlink:href="#DejaVuSans-20" x="95.410156"/>
     <use xlink:href="#DejaVuSans-31" x="127.197266"/>
     <use xlink:href="#DejaVuSans-35" x="190.820312"/>
     <use xlink:href="#DejaVuSans-20" x="254.443359"/>
     <use xlink:href="#DejaVuSans-69" x="286.230469"/>
     <use xlink:href="#DejaVuSans-6e" x="314.013672"/>
     <use xlink:href="#DejaVuSans-73" x="377.392578"/>
     <use xlink:href="#DejaVuSans-74" x="429.492188"/>
     <use xlink:href="#DejaVuSans-61" x="468.701172"/>
     <use xlink:href="#DejaVuSans-6e" x="529.980469"/>
     <use xlink:href="#DejaVuSans-63" x="593.359375"/>
     <use xlink:href="#DejaVuSans-65" x="648.339844"/>
     <use xlink:href="#DejaVuSans-73" x="709.863281"/>
    </g>
   </g>
   <g id="text_20">
    <!-- v2.6 -->
    <g style="fill: #808080" transform="translate(198.292262 294.151352)scale(0.1 -0.1)">
     <use xlink:href="#DejaVuSans-76"/>
     <use xlink:href="#DejaVuSans-32" x="59.179688"/>
     <use xlink:href="#DejaVuSans-2e" x="122.802734"/>
     <use xlink:href="#DejaVuSans-36" x="154.589844"/>
    </g>
   </g>
   <g id="text_21">
    <!-- 1 Sphere -->
    <g transform="translate(164.436012 21.648)scale(0.2 -0.2)">
     <defs>
      <path id="DejaVuSans-68" d="M 3513 2113 
L 3513 0 
L 2938 0 
L 2938 2094 
Q 2938 2591 2744 2837 
Q 2550 3084 2163 3084 
Q 1697 3084 1428 2787 
Q 1159 2491 1159 1978 
L 1159 0 
L 581 0 
L 581 4863 
L 1159 4863 
L 1159 2956 
Q 1366 3272 1645 3428 
Q 1925 3584 2291 3584 
Q 2894 3584 3203 3211 
Q 3513 2838 3513 2113 
z
" transform="scale(0.015625)"/>
     </defs>
     <use xlink:href="#DejaVuSans-31"/>
     <use xlink:href="#DejaVuSans-20" x="63.623047"/>
     <use xlink:href="#DejaVuSans-53" x="95.410156"/>
     <use xlink:href="#DejaVuSans-70" x="158.886719"/>
     <use xlink:href="#DejaVuSans-68" x="222.363281"/>
     <use xlink:href="#DejaVuSans-65" x="285.742188"/>
     <use xlink:href="#DejaVuSans-72" x="347.265625"/>
     <use xlink:href="#DejaVuSans-65" x="386.128906"/>
    </g>
   </g>
  </g>
 </g>
 <defs>
  <clipPath id="p3a896b3779">
   <rect x="57.6" y="27.648" width="303.2064" height="271.296"/>
  </clipPath>
 </defs>
</svg>
