<?xml version="1.0" encoding="utf-8" standalone="no"?>
<!DOCTYPE svg PUBLIC "-//W3C//DTD SVG 1.1//EN"
  "http://www.w3.org/Graphics/SVG/1.1/DTD/svg11.dtd">
<svg xmlns:xlink="http://www.w3.org/1999/xlink" width="460.8pt" height="345.6pt" viewBox="0 0 460.8 345.6" xmlns="http://www.w3.org/2000/svg" version="1.1">
 <metadata>
  <rdf:RDF xmlns:dc="http://purl.org/dc/elements/1.1/" xmlns:cc="http://creativecommons.org/ns#" xmlns:rdf="http://www.w3.org/1999/02/22-rdf-syntax-ns#">
   <cc:Work>
    <dc:type rdf:resource="http://purl.org/dc/dcmitype/StillImage"/>
    <dc:date>2022-04-08T17:23:47.685286</dc:date>
    <dc:format>image/svg+xml</dc:format>
    <dc:creator>
     <cc:Agent>
      <dc:title>Matplotlib v3.5.1, https://matplotlib.org/</dc:title>
     </cc:Agent>
    </dc:creator>
   </cc:Work>
  </rdf:RDF>
 </metadata>
 <defs>
  <style type="text/css">*{stroke-linejoin: round; stroke-linecap: butt}</style>
 </defs>
 <g id="figure_1">
  <g id="patch_1">
   <path d="M 0 345.6 
L 460.8 345.6 
L 460.8 0 
L 0 0 
z
" style="fill: #ffffff"/>
  </g>
  <g id="axes_1">
   <g id="patch_2">
    <path d="M 57.6 298.944 
L 360.8064 298.944 
L 360.8064 27.648 
L 57.6 27.648 
z
" style="fill: #ffffff"/>
   </g>
   <g id="line2d_1">
    <path d="M 36.933397 298.944 
L 36.933397 293.624471 
L 49.972572 293.624471 
L 49.972572 288.304941 
L 57.6 288.304941 
L 57.6 282.985412 
L 76.050921 282.985412 
L 76.050921 277.665882 
L 80.248597 277.665882 
L 80.248597 272.346353 
L 106.791453 272.346353 
L 106.791453 267.026824 
L 114.872193 267.026824 
L 114.872193 261.707294 
L 126.836129 261.707294 
L 126.836129 256.387765 
L 137.340774 256.387765 
L 137.340774 251.068235 
L 140.26641 251.068235 
L 140.26641 245.748706 
L 145.385592 245.748706 
L 145.385592 240.429176 
L 148.971944 240.429176 
L 148.971944 235.109647 
L 151.477784 235.109647 
L 151.477784 229.790118 
L 153.071898 229.790118 
L 153.071898 224.470588 
L 155.322384 224.470588 
L 155.322384 219.151059 
L 156.696589 219.151059 
L 156.696589 213.831529 
L 158.804221 213.831529 
L 158.804221 208.512 
L 159.176172 208.512 
L 159.176172 203.192471 
L 159.513105 203.192471 
L 159.513105 197.872941 
L 160.489139 197.872941 
L 160.489139 192.553412 
L 162.420867 192.553412 
L 162.420867 187.233882 
L 171.537509 187.233882 
L 171.537509 181.914353 
L 172.201176 181.914353 
L 172.201176 176.594824 
L 172.704712 176.594824 
L 172.704712 171.275294 
L 173.620559 171.275294 
L 173.620559 165.955765 
L 178.593416 165.955765 
L 178.593416 160.636235 
L 179.101194 160.636235 
L 179.101194 155.316706 
L 179.490078 155.316706 
L 179.490078 149.997176 
L 180.114663 149.997176 
L 180.114663 144.677647 
L 180.665016 144.677647 
L 180.665016 139.358118 
L 181.365929 139.358118 
L 181.365929 134.038588 
L 188.168495 134.038588 
L 188.168495 128.719059 
L 188.433535 128.719059 
L 188.433535 123.399529 
L 188.511134 123.399529 
L 188.511134 118.08 
L 188.653556 118.08 
L 188.653556 112.760471 
L 188.78317 112.760471 
L 188.78317 107.440941 
L 188.95267 107.440941 
L 188.95267 102.121412 
L 189.016566 102.121412 
L 189.016566 96.801882 
L 189.086025 96.801882 
L 189.086025 91.482353 
L 189.22991 91.482353 
L 189.22991 86.162824 
L 189.304298 86.162824 
L 189.304298 80.843294 
L 189.42952 80.843294 
L 189.42952 75.523765 
L 189.469188 75.523765 
L 189.469188 70.204235 
L 189.503124 70.204235 
L 189.503124 64.884706 
L 189.531357 64.884706 
L 189.531357 59.565176 
L 189.683086 59.565176 
L 189.683086 54.245647 
L 189.755707 54.245647 
L 189.755707 48.926118 
L 189.850252 48.926118 
L 189.850252 43.606588 
L 189.916704 43.606588 
L 189.916704 38.287059 
L 189.982923 38.287059 
L 189.982923 32.967529 
L 190.048909 32.967529 
L 190.048909 27.648 
L 360.8064 27.648 
" style="fill: none; stroke: #f5deb3; stroke-width: 4; stroke-linecap: square"/>
   </g>
   <g id="line2d_2">
    <defs>
     <path id="mb9f717404e" d="M -0 7.778175 
L 7.778175 0 
L 0 -7.778175 
L -7.778175 -0 
z
" style="stroke: #f5deb3; stroke-width: 1.5; stroke-linejoin: miter"/>
    </defs>
    <g>
     <use xlink:href="#mb9f717404e" x="80.248597" y="277.665882" style="fill: #f5deb3; stroke: #f5deb3; stroke-width: 1.5; stroke-linejoin: miter"/>
     <use xlink:href="#mb9f717404e" x="159.176172" y="208.512" style="fill: #f5deb3; stroke: #f5deb3; stroke-width: 1.5; stroke-linejoin: miter"/>
     <use xlink:href="#mb9f717404e" x="188.511134" y="118.08" style="fill: #f5deb3; stroke: #f5deb3; stroke-width: 1.5; stroke-linejoin: miter"/>
     <use xlink:href="#mb9f717404e" x="190.048909" y="32.967529" style="fill: #f5deb3; stroke: #f5deb3; stroke-width: 1.5; stroke-linejoin: miter"/>
     <use xlink:href="#mb9f717404e" x="190.048909" y="27.648" style="fill: #f5deb3; stroke: #f5deb3; stroke-width: 1.5; stroke-linejoin: miter"/>
     <use xlink:href="#mb9f717404e" x="360.8064" y="27.648" style="fill: #f5deb3; stroke: #f5deb3; stroke-width: 1.5; stroke-linejoin: miter"/>
    </g>
   </g>
   <g id="line2d_3">
    <path style="fill: none; stroke: #f5deb3; stroke-width: 4; stroke-linecap: square"/>
    <g/>
   </g>
   <g id="line2d_4">
    <path d="M 360.8064 27.648 
L 380.514816 33.07392 
" style="fill: none; stroke: #f5deb3; stroke-width: 4; stroke-linecap: square"/>
    <g>
     <use xlink:href="#mb9f717404e" x="360.8064" y="27.648" style="fill: #f5deb3; stroke: #f5deb3; stroke-width: 1.5; stroke-linejoin: miter"/>
     <use xlink:href="#mb9f717404e" x="380.514816" y="33.07392" style="fill: #f5deb3; stroke: #f5deb3; stroke-width: 1.5; stroke-linejoin: miter"/>
    </g>
   </g>
   <g id="matplotlib.axis_1">
    <g id="xtick_1">
     <g id="line2d_5">
      <path d="M 57.6 298.944 
L 57.6 27.648 
" clip-path="url(#p9472a19e6c)" style="fill: none; stroke: #b0b0b0; stroke-width: 0.8; stroke-linecap: square"/>
     </g>
     <g id="line2d_6">
      <defs>
       <path id="mcf9584af0a" d="M 0 0 
L 0 3.5 
" style="stroke: #000000; stroke-width: 0.8"/>
      </defs>
      <g>
       <use xlink:href="#mcf9584af0a" x="57.6" y="298.944" style="stroke: #000000; stroke-width: 0.8"/>
      </g>
     </g>
     <g id="text_1">
      <!-- 0 -->
      <g transform="translate(52.191875 318.861344)scale(0.17 -0.17)">
       <defs>
        <path id="DejaVuSans-30" d="M 2034 4250 
Q 1547 4250 1301 3770 
Q 1056 3291 1056 2328 
Q 1056 1369 1301 889 
Q 1547 409 2034 409 
Q 2525 409 2770 889 
Q 3016 1369 3016 2328 
Q 3016 3291 2770 3770 
Q 2525 4250 2034 4250 
z
M 2034 4750 
Q 2819 4750 3233 4129 
Q 3647 3509 3647 2328 
Q 3647 1150 3233 529 
Q 2819 -91 2034 -91 
Q 1250 -91 836 529 
Q 422 1150 422 2328 
Q 422 3509 836 4129 
Q 1250 4750 2034 4750 
z
" transform="scale(0.015625)"/>
       </defs>
       <use xlink:href="#DejaVuSans-30"/>
      </g>
     </g>
    </g>
    <g id="xtick_2">
     <g id="line2d_7">
      <path d="M 144.2304 298.944 
L 144.2304 27.648 
" clip-path="url(#p9472a19e6c)" style="fill: none; stroke: #b0b0b0; stroke-width: 0.8; stroke-linecap: square"/>
     </g>
     <g id="line2d_8">
      <g>
       <use xlink:href="#mcf9584af0a" x="144.2304" y="298.944" style="stroke: #000000; stroke-width: 0.8"/>
      </g>
     </g>
     <g id="text_2">
      <!-- 2 -->
      <g transform="translate(138.822275 318.861344)scale(0.17 -0.17)">
       <defs>
        <path id="DejaVuSans-32" d="M 1228 531 
L 3431 531 
L 3431 0 
L 469 0 
L 469 531 
Q 828 903 1448 1529 
Q 2069 2156 2228 2338 
Q 2531 2678 2651 2914 
Q 2772 3150 2772 3378 
Q 2772 3750 2511 3984 
Q 2250 4219 1831 4219 
Q 1534 4219 1204 4116 
Q 875 4013 500 3803 
L 500 4441 
Q 881 4594 1212 4672 
Q 1544 4750 1819 4750 
Q 2544 4750 2975 4387 
Q 3406 4025 3406 3419 
Q 3406 3131 3298 2873 
Q 3191 2616 2906 2266 
Q 2828 2175 2409 1742 
Q 1991 1309 1228 531 
z
" transform="scale(0.015625)"/>
       </defs>
       <use xlink:href="#DejaVuSans-32"/>
      </g>
     </g>
    </g>
    <g id="xtick_3">
     <g id="line2d_9">
      <path d="M 230.8608 298.944 
L 230.8608 27.648 
" clip-path="url(#p9472a19e6c)" style="fill: none; stroke: #b0b0b0; stroke-width: 0.8; stroke-linecap: square"/>
     </g>
     <g id="line2d_10">
      <g>
       <use xlink:href="#mcf9584af0a" x="230.8608" y="298.944" style="stroke: #000000; stroke-width: 0.8"/>
      </g>
     </g>
     <g id="text_3">
      <!-- 4 -->
      <g transform="translate(225.452675 318.861344)scale(0.17 -0.17)">
       <defs>
        <path id="DejaVuSans-34" d="M 2419 4116 
L 825 1625 
L 2419 1625 
L 2419 4116 
z
M 2253 4666 
L 3047 4666 
L 3047 1625 
L 3713 1625 
L 3713 1100 
L 3047 1100 
L 3047 0 
L 2419 0 
L 2419 1100 
L 313 1100 
L 313 1709 
L 2253 4666 
z
" transform="scale(0.015625)"/>
       </defs>
       <use xlink:href="#DejaVuSans-34"/>
      </g>
     </g>
    </g>
    <g id="xtick_4">
     <g id="line2d_11">
      <path d="M 317.4912 298.944 
L 317.4912 27.648 
" clip-path="url(#p9472a19e6c)" style="fill: none; stroke: #b0b0b0; stroke-width: 0.8; stroke-linecap: square"/>
     </g>
     <g id="line2d_12">
      <g>
       <use xlink:href="#mcf9584af0a" x="317.4912" y="298.944" style="stroke: #000000; stroke-width: 0.8"/>
      </g>
     </g>
     <g id="text_4">
      <!-- 6 -->
      <g transform="translate(312.083075 318.861344)scale(0.17 -0.17)">
       <defs>
        <path id="DejaVuSans-36" d="M 2113 2584 
Q 1688 2584 1439 2293 
Q 1191 2003 1191 1497 
Q 1191 994 1439 701 
Q 1688 409 2113 409 
Q 2538 409 2786 701 
Q 3034 994 3034 1497 
Q 3034 2003 2786 2293 
Q 2538 2584 2113 2584 
z
M 3366 4563 
L 3366 3988 
Q 3128 4100 2886 4159 
Q 2644 4219 2406 4219 
Q 1781 4219 1451 3797 
Q 1122 3375 1075 2522 
Q 1259 2794 1537 2939 
Q 1816 3084 2150 3084 
Q 2853 3084 3261 2657 
Q 3669 2231 3669 1497 
Q 3669 778 3244 343 
Q 2819 -91 2113 -91 
Q 1303 -91 875 529 
Q 447 1150 447 2328 
Q 447 3434 972 4092 
Q 1497 4750 2381 4750 
Q 2619 4750 2861 4703 
Q 3103 4656 3366 4563 
z
" transform="scale(0.015625)"/>
       </defs>
       <use xlink:href="#DejaVuSans-36"/>
      </g>
     </g>
    </g>
    <g id="xtick_5">
     <g id="line2d_13">
      <path d="M 100.9152 298.944 
L 100.9152 27.648 
" clip-path="url(#p9472a19e6c)" style="fill: none; stroke: #b0b0b0; stroke-width: 0.8; stroke-linecap: square"/>
     </g>
     <g id="line2d_14">
      <defs>
       <path id="m5a3a16f90e" d="M 0 0 
L 0 2 
" style="stroke: #000000; stroke-width: 0.6"/>
      </defs>
      <g>
       <use xlink:href="#m5a3a16f90e" x="100.9152" y="298.944" style="stroke: #000000; stroke-width: 0.6"/>
      </g>
     </g>
    </g>
    <g id="xtick_6">
     <g id="line2d_15">
      <path d="M 187.5456 298.944 
L 187.5456 27.648 
" clip-path="url(#p9472a19e6c)" style="fill: none; stroke: #b0b0b0; stroke-width: 0.8; stroke-linecap: square"/>
     </g>
     <g id="line2d_16">
      <g>
       <use xlink:href="#m5a3a16f90e" x="187.5456" y="298.944" style="stroke: #000000; stroke-width: 0.6"/>
      </g>
     </g>
    </g>
    <g id="xtick_7">
     <g id="line2d_17">
      <path d="M 274.176 298.944 
L 274.176 27.648 
" clip-path="url(#p9472a19e6c)" style="fill: none; stroke: #b0b0b0; stroke-width: 0.8; stroke-linecap: square"/>
     </g>
     <g id="line2d_18">
      <g>
       <use xlink:href="#m5a3a16f90e" x="274.176" y="298.944" style="stroke: #000000; stroke-width: 0.6"/>
      </g>
     </g>
    </g>
    <g id="xtick_8">
     <g id="line2d_19">
      <path d="M 360.8064 298.944 
L 360.8064 27.648 
" clip-path="url(#p9472a19e6c)" style="fill: none; stroke: #b0b0b0; stroke-width: 0.8; stroke-linecap: square"/>
     </g>
     <g id="line2d_20">
      <g>
       <use xlink:href="#m5a3a16f90e" x="360.8064" y="298.944" style="stroke: #000000; stroke-width: 0.6"/>
      </g>
     </g>
    </g>
    <g id="text_5">
     <!-- log10(# f-evals / dimension) -->
     <g transform="translate(88.823278 339.314156)scale(0.17 -0.17)">
      <defs>
       <path id="DejaVuSans-6c" d="M 603 4863 
L 1178 4863 
L 1178 0 
L 603 0 
L 603 4863 
z
" transform="scale(0.015625)"/>
       <path id="DejaVuSans-6f" d="M 1959 3097 
Q 1497 3097 1228 2736 
Q 959 2375 959 1747 
Q 959 1119 1226 758 
Q 1494 397 1959 397 
Q 2419 397 2687 759 
Q 2956 1122 2956 1747 
Q 2956 2369 2687 2733 
Q 2419 3097 1959 3097 
z
M 1959 3584 
Q 2709 3584 3137 3096 
Q 3566 2609 3566 1747 
Q 3566 888 3137 398 
Q 2709 -91 1959 -91 
Q 1206 -91 779 398 
Q 353 888 353 1747 
Q 353 2609 779 3096 
Q 1206 3584 1959 3584 
z
" transform="scale(0.015625)"/>
       <path id="DejaVuSans-67" d="M 2906 1791 
Q 2906 2416 2648 2759 
Q 2391 3103 1925 3103 
Q 1463 3103 1205 2759 
Q 947 2416 947 1791 
Q 947 1169 1205 825 
Q 1463 481 1925 481 
Q 2391 481 2648 825 
Q 2906 1169 2906 1791 
z
M 3481 434 
Q 3481 -459 3084 -895 
Q 2688 -1331 1869 -1331 
Q 1566 -1331 1297 -1286 
Q 1028 -1241 775 -1147 
L 775 -588 
Q 1028 -725 1275 -790 
Q 1522 -856 1778 -856 
Q 2344 -856 2625 -561 
Q 2906 -266 2906 331 
L 2906 616 
Q 2728 306 2450 153 
Q 2172 0 1784 0 
Q 1141 0 747 490 
Q 353 981 353 1791 
Q 353 2603 747 3093 
Q 1141 3584 1784 3584 
Q 2172 3584 2450 3431 
Q 2728 3278 2906 2969 
L 2906 3500 
L 3481 3500 
L 3481 434 
z
" transform="scale(0.015625)"/>
       <path id="DejaVuSans-31" d="M 794 531 
L 1825 531 
L 1825 4091 
L 703 3866 
L 703 4441 
L 1819 4666 
L 2450 4666 
L 2450 531 
L 3481 531 
L 3481 0 
L 794 0 
L 794 531 
z
" transform="scale(0.015625)"/>
       <path id="DejaVuSans-28" d="M 1984 4856 
Q 1566 4138 1362 3434 
Q 1159 2731 1159 2009 
Q 1159 1288 1364 580 
Q 1569 -128 1984 -844 
L 1484 -844 
Q 1016 -109 783 600 
Q 550 1309 550 2009 
Q 550 2706 781 3412 
Q 1013 4119 1484 4856 
L 1984 4856 
z
" transform="scale(0.015625)"/>
       <path id="DejaVuSans-23" d="M 3272 2816 
L 2363 2816 
L 2100 1772 
L 3016 1772 
L 3272 2816 
z
M 2803 4594 
L 2478 3297 
L 3391 3297 
L 3719 4594 
L 4219 4594 
L 3897 3297 
L 4872 3297 
L 4872 2816 
L 3775 2816 
L 3519 1772 
L 4513 1772 
L 4513 1294 
L 3397 1294 
L 3072 0 
L 2572 0 
L 2894 1294 
L 1978 1294 
L 1656 0 
L 1153 0 
L 1478 1294 
L 494 1294 
L 494 1772 
L 1594 1772 
L 1856 2816 
L 850 2816 
L 850 3297 
L 1978 3297 
L 2297 4594 
L 2803 4594 
z
" transform="scale(0.015625)"/>
       <path id="DejaVuSans-20" transform="scale(0.015625)"/>
       <path id="DejaVuSans-66" d="M 2375 4863 
L 2375 4384 
L 1825 4384 
Q 1516 4384 1395 4259 
Q 1275 4134 1275 3809 
L 1275 3500 
L 2222 3500 
L 2222 3053 
L 1275 3053 
L 1275 0 
L 697 0 
L 697 3053 
L 147 3053 
L 147 3500 
L 697 3500 
L 697 3744 
Q 697 4328 969 4595 
Q 1241 4863 1831 4863 
L 2375 4863 
z
" transform="scale(0.015625)"/>
       <path id="DejaVuSans-2d" d="M 313 2009 
L 1997 2009 
L 1997 1497 
L 313 1497 
L 313 2009 
z
" transform="scale(0.015625)"/>
       <path id="DejaVuSans-65" d="M 3597 1894 
L 3597 1613 
L 953 1613 
Q 991 1019 1311 708 
Q 1631 397 2203 397 
Q 2534 397 2845 478 
Q 3156 559 3463 722 
L 3463 178 
Q 3153 47 2828 -22 
Q 2503 -91 2169 -91 
Q 1331 -91 842 396 
Q 353 884 353 1716 
Q 353 2575 817 3079 
Q 1281 3584 2069 3584 
Q 2775 3584 3186 3129 
Q 3597 2675 3597 1894 
z
M 3022 2063 
Q 3016 2534 2758 2815 
Q 2500 3097 2075 3097 
Q 1594 3097 1305 2825 
Q 1016 2553 972 2059 
L 3022 2063 
z
" transform="scale(0.015625)"/>
       <path id="DejaVuSans-76" d="M 191 3500 
L 800 3500 
L 1894 563 
L 2988 3500 
L 3597 3500 
L 2284 0 
L 1503 0 
L 191 3500 
z
" transform="scale(0.015625)"/>
       <path id="DejaVuSans-61" d="M 2194 1759 
Q 1497 1759 1228 1600 
Q 959 1441 959 1056 
Q 959 750 1161 570 
Q 1363 391 1709 391 
Q 2188 391 2477 730 
Q 2766 1069 2766 1631 
L 2766 1759 
L 2194 1759 
z
M 3341 1997 
L 3341 0 
L 2766 0 
L 2766 531 
Q 2569 213 2275 61 
Q 1981 -91 1556 -91 
Q 1019 -91 701 211 
Q 384 513 384 1019 
Q 384 1609 779 1909 
Q 1175 2209 1959 2209 
L 2766 2209 
L 2766 2266 
Q 2766 2663 2505 2880 
Q 2244 3097 1772 3097 
Q 1472 3097 1187 3025 
Q 903 2953 641 2809 
L 641 3341 
Q 956 3463 1253 3523 
Q 1550 3584 1831 3584 
Q 2591 3584 2966 3190 
Q 3341 2797 3341 1997 
z
" transform="scale(0.015625)"/>
       <path id="DejaVuSans-73" d="M 2834 3397 
L 2834 2853 
Q 2591 2978 2328 3040 
Q 2066 3103 1784 3103 
Q 1356 3103 1142 2972 
Q 928 2841 928 2578 
Q 928 2378 1081 2264 
Q 1234 2150 1697 2047 
L 1894 2003 
Q 2506 1872 2764 1633 
Q 3022 1394 3022 966 
Q 3022 478 2636 193 
Q 2250 -91 1575 -91 
Q 1294 -91 989 -36 
Q 684 19 347 128 
L 347 722 
Q 666 556 975 473 
Q 1284 391 1588 391 
Q 1994 391 2212 530 
Q 2431 669 2431 922 
Q 2431 1156 2273 1281 
Q 2116 1406 1581 1522 
L 1381 1569 
Q 847 1681 609 1914 
Q 372 2147 372 2553 
Q 372 3047 722 3315 
Q 1072 3584 1716 3584 
Q 2034 3584 2315 3537 
Q 2597 3491 2834 3397 
z
" transform="scale(0.015625)"/>
       <path id="DejaVuSans-2f" d="M 1625 4666 
L 2156 4666 
L 531 -594 
L 0 -594 
L 1625 4666 
z
" transform="scale(0.015625)"/>
       <path id="DejaVuSans-64" d="M 2906 2969 
L 2906 4863 
L 3481 4863 
L 3481 0 
L 2906 0 
L 2906 525 
Q 2725 213 2448 61 
Q 2172 -91 1784 -91 
Q 1150 -91 751 415 
Q 353 922 353 1747 
Q 353 2572 751 3078 
Q 1150 3584 1784 3584 
Q 2172 3584 2448 3432 
Q 2725 3281 2906 2969 
z
M 947 1747 
Q 947 1113 1208 752 
Q 1469 391 1925 391 
Q 2381 391 2643 752 
Q 2906 1113 2906 1747 
Q 2906 2381 2643 2742 
Q 2381 3103 1925 3103 
Q 1469 3103 1208 2742 
Q 947 2381 947 1747 
z
" transform="scale(0.015625)"/>
       <path id="DejaVuSans-69" d="M 603 3500 
L 1178 3500 
L 1178 0 
L 603 0 
L 603 3500 
z
M 603 4863 
L 1178 4863 
L 1178 4134 
L 603 4134 
L 603 4863 
z
" transform="scale(0.015625)"/>
       <path id="DejaVuSans-6d" d="M 3328 2828 
Q 3544 3216 3844 3400 
Q 4144 3584 4550 3584 
Q 5097 3584 5394 3201 
Q 5691 2819 5691 2113 
L 5691 0 
L 5113 0 
L 5113 2094 
Q 5113 2597 4934 2840 
Q 4756 3084 4391 3084 
Q 3944 3084 3684 2787 
Q 3425 2491 3425 1978 
L 3425 0 
L 2847 0 
L 2847 2094 
Q 2847 2600 2669 2842 
Q 2491 3084 2119 3084 
Q 1678 3084 1418 2786 
Q 1159 2488 1159 1978 
L 1159 0 
L 581 0 
L 581 3500 
L 1159 3500 
L 1159 2956 
Q 1356 3278 1631 3431 
Q 1906 3584 2284 3584 
Q 2666 3584 2933 3390 
Q 3200 3197 3328 2828 
z
" transform="scale(0.015625)"/>
       <path id="DejaVuSans-6e" d="M 3513 2113 
L 3513 0 
L 2938 0 
L 2938 2094 
Q 2938 2591 2744 2837 
Q 2550 3084 2163 3084 
Q 1697 3084 1428 2787 
Q 1159 2491 1159 1978 
L 1159 0 
L 581 0 
L 581 3500 
L 1159 3500 
L 1159 2956 
Q 1366 3272 1645 3428 
Q 1925 3584 2291 3584 
Q 2894 3584 3203 3211 
Q 3513 2838 3513 2113 
z
" transform="scale(0.015625)"/>
       <path id="DejaVuSans-29" d="M 513 4856 
L 1013 4856 
Q 1481 4119 1714 3412 
Q 1947 2706 1947 2009 
Q 1947 1309 1714 600 
Q 1481 -109 1013 -844 
L 513 -844 
Q 928 -128 1133 580 
Q 1338 1288 1338 2009 
Q 1338 2731 1133 3434 
Q 928 4138 513 4856 
z
" transform="scale(0.015625)"/>
      </defs>
      <use xlink:href="#DejaVuSans-6c"/>
      <use xlink:href="#DejaVuSans-6f" x="27.783203"/>
      <use xlink:href="#DejaVuSans-67" x="88.964844"/>
      <use xlink:href="#DejaVuSans-31" x="152.441406"/>
      <use xlink:href="#DejaVuSans-30" x="216.064453"/>
      <use xlink:href="#DejaVuSans-28" x="279.6875"/>
      <use xlink:href="#DejaVuSans-23" x="318.701172"/>
      <use xlink:href="#DejaVuSans-20" x="402.490234"/>
      <use xlink:href="#DejaVuSans-66" x="434.277344"/>
      <use xlink:href="#DejaVuSans-2d" x="463.982422"/>
      <use xlink:href="#DejaVuSans-65" x="500.066406"/>
      <use xlink:href="#DejaVuSans-76" x="561.589844"/>
      <use xlink:href="#DejaVuSans-61" x="620.769531"/>
      <use xlink:href="#DejaVuSans-6c" x="682.048828"/>
      <use xlink:href="#DejaVuSans-73" x="709.832031"/>
      <use xlink:href="#DejaVuSans-20" x="761.931641"/>
      <use xlink:href="#DejaVuSans-2f" x="793.71875"/>
      <use xlink:href="#DejaVuSans-20" x="827.410156"/>
      <use xlink:href="#DejaVuSans-64" x="859.197266"/>
      <use xlink:href="#DejaVuSans-69" x="922.673828"/>
      <use xlink:href="#DejaVuSans-6d" x="950.457031"/>
      <use xlink:href="#DejaVuSans-65" x="1047.869141"/>
      <use xlink:href="#DejaVuSans-6e" x="1109.392578"/>
      <use xlink:href="#DejaVuSans-73" x="1172.771484"/>
      <use xlink:href="#DejaVuSans-69" x="1224.871094"/>
      <use xlink:href="#DejaVuSans-6f" x="1252.654297"/>
      <use xlink:href="#DejaVuSans-6e" x="1313.835938"/>
      <use xlink:href="#DejaVuSans-29" x="1377.214844"/>
     </g>
    </g>
   </g>
   <g id="matplotlib.axis_2">
    <g id="ytick_1">
     <g id="line2d_21">
      <path d="M 57.6 298.944 
L 360.8064 298.944 
" clip-path="url(#p9472a19e6c)" style="fill: none; stroke: #b0b0b0; stroke-width: 0.8; stroke-linecap: square"/>
     </g>
     <g id="line2d_22">
      <defs>
       <path id="m7ccf0cd16f" d="M 0 0 
L -3.5 0 
" style="stroke: #000000; stroke-width: 0.8"/>
      </defs>
      <g>
       <use xlink:href="#m7ccf0cd16f" x="57.6" y="298.944" style="stroke: #000000; stroke-width: 0.8"/>
      </g>
     </g>
     <g id="text_6">
      <!-- 0.0 -->
      <g transform="translate(25.155 305.02275)scale(0.16 -0.16)">
       <defs>
        <path id="DejaVuSans-2e" d="M 684 794 
L 1344 794 
L 1344 0 
L 684 0 
L 684 794 
z
" transform="scale(0.015625)"/>
       </defs>
       <use xlink:href="#DejaVuSans-30"/>
       <use xlink:href="#DejaVuSans-2e" x="63.623047"/>
       <use xlink:href="#DejaVuSans-30" x="95.410156"/>
      </g>
     </g>
    </g>
    <g id="ytick_2">
     <g id="line2d_23">
      <path d="M 57.6 244.6848 
L 360.8064 244.6848 
" clip-path="url(#p9472a19e6c)" style="fill: none; stroke: #b0b0b0; stroke-width: 0.8; stroke-linecap: square"/>
     </g>
     <g id="line2d_24">
      <g>
       <use xlink:href="#m7ccf0cd16f" x="57.6" y="244.6848" style="stroke: #000000; stroke-width: 0.8"/>
      </g>
     </g>
     <g id="text_7">
      <!-- 0.2 -->
      <g transform="translate(25.155 250.76355)scale(0.16 -0.16)">
       <use xlink:href="#DejaVuSans-30"/>
       <use xlink:href="#DejaVuSans-2e" x="63.623047"/>
       <use xlink:href="#DejaVuSans-32" x="95.410156"/>
      </g>
     </g>
    </g>
    <g id="ytick_3">
     <g id="line2d_25">
      <path d="M 57.6 190.4256 
L 360.8064 190.4256 
" clip-path="url(#p9472a19e6c)" style="fill: none; stroke: #b0b0b0; stroke-width: 0.8; stroke-linecap: square"/>
     </g>
     <g id="line2d_26">
      <g>
       <use xlink:href="#m7ccf0cd16f" x="57.6" y="190.4256" style="stroke: #000000; stroke-width: 0.8"/>
      </g>
     </g>
     <g id="text_8">
      <!-- 0.4 -->
      <g transform="translate(25.155 196.50435)scale(0.16 -0.16)">
       <use xlink:href="#DejaVuSans-30"/>
       <use xlink:href="#DejaVuSans-2e" x="63.623047"/>
       <use xlink:href="#DejaVuSans-34" x="95.410156"/>
      </g>
     </g>
    </g>
    <g id="ytick_4">
     <g id="line2d_27">
      <path d="M 57.6 136.1664 
L 360.8064 136.1664 
" clip-path="url(#p9472a19e6c)" style="fill: none; stroke: #b0b0b0; stroke-width: 0.8; stroke-linecap: square"/>
     </g>
     <g id="line2d_28">
      <g>
       <use xlink:href="#m7ccf0cd16f" x="57.6" y="136.1664" style="stroke: #000000; stroke-width: 0.8"/>
      </g>
     </g>
     <g id="text_9">
      <!-- 0.6 -->
      <g transform="translate(25.155 142.24515)scale(0.16 -0.16)">
       <use xlink:href="#DejaVuSans-30"/>
       <use xlink:href="#DejaVuSans-2e" x="63.623047"/>
       <use xlink:href="#DejaVuSans-36" x="95.410156"/>
      </g>
     </g>
    </g>
    <g id="ytick_5">
     <g id="line2d_29">
      <path d="M 57.6 81.9072 
L 360.8064 81.9072 
" clip-path="url(#p9472a19e6c)" style="fill: none; stroke: #b0b0b0; stroke-width: 0.8; stroke-linecap: square"/>
     </g>
     <g id="line2d_30">
      <g>
       <use xlink:href="#m7ccf0cd16f" x="57.6" y="81.9072" style="stroke: #000000; stroke-width: 0.8"/>
      </g>
     </g>
     <g id="text_10">
      <!-- 0.8 -->
      <g transform="translate(25.155 87.98595)scale(0.16 -0.16)">
       <defs>
        <path id="DejaVuSans-38" d="M 2034 2216 
Q 1584 2216 1326 1975 
Q 1069 1734 1069 1313 
Q 1069 891 1326 650 
Q 1584 409 2034 409 
Q 2484 409 2743 651 
Q 3003 894 3003 1313 
Q 3003 1734 2745 1975 
Q 2488 2216 2034 2216 
z
M 1403 2484 
Q 997 2584 770 2862 
Q 544 3141 544 3541 
Q 544 4100 942 4425 
Q 1341 4750 2034 4750 
Q 2731 4750 3128 4425 
Q 3525 4100 3525 3541 
Q 3525 3141 3298 2862 
Q 3072 2584 2669 2484 
Q 3125 2378 3379 2068 
Q 3634 1759 3634 1313 
Q 3634 634 3220 271 
Q 2806 -91 2034 -91 
Q 1263 -91 848 271 
Q 434 634 434 1313 
Q 434 1759 690 2068 
Q 947 2378 1403 2484 
z
M 1172 3481 
Q 1172 3119 1398 2916 
Q 1625 2713 2034 2713 
Q 2441 2713 2670 2916 
Q 2900 3119 2900 3481 
Q 2900 3844 2670 4047 
Q 2441 4250 2034 4250 
Q 1625 4250 1398 4047 
Q 1172 3844 1172 3481 
z
" transform="scale(0.015625)"/>
       </defs>
       <use xlink:href="#DejaVuSans-30"/>
       <use xlink:href="#DejaVuSans-2e" x="63.623047"/>
       <use xlink:href="#DejaVuSans-38" x="95.410156"/>
      </g>
     </g>
    </g>
    <g id="ytick_6">
     <g id="line2d_31">
      <path d="M 57.6 27.648 
L 360.8064 27.648 
" clip-path="url(#p9472a19e6c)" style="fill: none; stroke: #b0b0b0; stroke-width: 0.8; stroke-linecap: square"/>
     </g>
     <g id="line2d_32">
      <g>
       <use xlink:href="#m7ccf0cd16f" x="57.6" y="27.648" style="stroke: #000000; stroke-width: 0.8"/>
      </g>
     </g>
     <g id="text_11">
      <!-- 1.0 -->
      <g transform="translate(25.155 33.72675)scale(0.16 -0.16)">
       <use xlink:href="#DejaVuSans-31"/>
       <use xlink:href="#DejaVuSans-2e" x="63.623047"/>
       <use xlink:href="#DejaVuSans-30" x="95.410156"/>
      </g>
     </g>
    </g>
    <g id="text_12">
     <!-- Fraction of function,target pairs -->
     <g transform="translate(17.619531 297.681)rotate(-90)scale(0.17 -0.17)">
      <defs>
       <path id="DejaVuSans-46" d="M 628 4666 
L 3309 4666 
L 3309 4134 
L 1259 4134 
L 1259 2759 
L 3109 2759 
L 3109 2228 
L 1259 2228 
L 1259 0 
L 628 0 
L 628 4666 
z
" transform="scale(0.015625)"/>
       <path id="DejaVuSans-72" d="M 2631 2963 
Q 2534 3019 2420 3045 
Q 2306 3072 2169 3072 
Q 1681 3072 1420 2755 
Q 1159 2438 1159 1844 
L 1159 0 
L 581 0 
L 581 3500 
L 1159 3500 
L 1159 2956 
Q 1341 3275 1631 3429 
Q 1922 3584 2338 3584 
Q 2397 3584 2469 3576 
Q 2541 3569 2628 3553 
L 2631 2963 
z
" transform="scale(0.015625)"/>
       <path id="DejaVuSans-63" d="M 3122 3366 
L 3122 2828 
Q 2878 2963 2633 3030 
Q 2388 3097 2138 3097 
Q 1578 3097 1268 2742 
Q 959 2388 959 1747 
Q 959 1106 1268 751 
Q 1578 397 2138 397 
Q 2388 397 2633 464 
Q 2878 531 3122 666 
L 3122 134 
Q 2881 22 2623 -34 
Q 2366 -91 2075 -91 
Q 1284 -91 818 406 
Q 353 903 353 1747 
Q 353 2603 823 3093 
Q 1294 3584 2113 3584 
Q 2378 3584 2631 3529 
Q 2884 3475 3122 3366 
z
" transform="scale(0.015625)"/>
       <path id="DejaVuSans-74" d="M 1172 4494 
L 1172 3500 
L 2356 3500 
L 2356 3053 
L 1172 3053 
L 1172 1153 
Q 1172 725 1289 603 
Q 1406 481 1766 481 
L 2356 481 
L 2356 0 
L 1766 0 
Q 1100 0 847 248 
Q 594 497 594 1153 
L 594 3053 
L 172 3053 
L 172 3500 
L 594 3500 
L 594 4494 
L 1172 4494 
z
" transform="scale(0.015625)"/>
       <path id="DejaVuSans-75" d="M 544 1381 
L 544 3500 
L 1119 3500 
L 1119 1403 
Q 1119 906 1312 657 
Q 1506 409 1894 409 
Q 2359 409 2629 706 
Q 2900 1003 2900 1516 
L 2900 3500 
L 3475 3500 
L 3475 0 
L 2900 0 
L 2900 538 
Q 2691 219 2414 64 
Q 2138 -91 1772 -91 
Q 1169 -91 856 284 
Q 544 659 544 1381 
z
M 1991 3584 
L 1991 3584 
z
" transform="scale(0.015625)"/>
       <path id="DejaVuSans-2c" d="M 750 794 
L 1409 794 
L 1409 256 
L 897 -744 
L 494 -744 
L 750 256 
L 750 794 
z
" transform="scale(0.015625)"/>
       <path id="DejaVuSans-70" d="M 1159 525 
L 1159 -1331 
L 581 -1331 
L 581 3500 
L 1159 3500 
L 1159 2969 
Q 1341 3281 1617 3432 
Q 1894 3584 2278 3584 
Q 2916 3584 3314 3078 
Q 3713 2572 3713 1747 
Q 3713 922 3314 415 
Q 2916 -91 2278 -91 
Q 1894 -91 1617 61 
Q 1341 213 1159 525 
z
M 3116 1747 
Q 3116 2381 2855 2742 
Q 2594 3103 2138 3103 
Q 1681 3103 1420 2742 
Q 1159 2381 1159 1747 
Q 1159 1113 1420 752 
Q 1681 391 2138 391 
Q 2594 391 2855 752 
Q 3116 1113 3116 1747 
z
" transform="scale(0.015625)"/>
      </defs>
      <use xlink:href="#DejaVuSans-46"/>
      <use xlink:href="#DejaVuSans-72" x="50.269531"/>
      <use xlink:href="#DejaVuSans-61" x="91.382812"/>
      <use xlink:href="#DejaVuSans-63" x="152.662109"/>
      <use xlink:href="#DejaVuSans-74" x="207.642578"/>
      <use xlink:href="#DejaVuSans-69" x="246.851562"/>
      <use xlink:href="#DejaVuSans-6f" x="274.634766"/>
      <use xlink:href="#DejaVuSans-6e" x="335.816406"/>
      <use xlink:href="#DejaVuSans-20" x="399.195312"/>
      <use xlink:href="#DejaVuSans-6f" x="430.982422"/>
      <use xlink:href="#DejaVuSans-66" x="492.164062"/>
      <use xlink:href="#DejaVuSans-20" x="527.369141"/>
      <use xlink:href="#DejaVuSans-66" x="559.15625"/>
      <use xlink:href="#DejaVuSans-75" x="594.361328"/>
      <use xlink:href="#DejaVuSans-6e" x="657.740234"/>
      <use xlink:href="#DejaVuSans-63" x="721.119141"/>
      <use xlink:href="#DejaVuSans-74" x="776.099609"/>
      <use xlink:href="#DejaVuSans-69" x="815.308594"/>
      <use xlink:href="#DejaVuSans-6f" x="843.091797"/>
      <use xlink:href="#DejaVuSans-6e" x="904.273438"/>
      <use xlink:href="#DejaVuSans-2c" x="967.652344"/>
      <use xlink:href="#DejaVuSans-74" x="999.439453"/>
      <use xlink:href="#DejaVuSans-61" x="1038.648438"/>
      <use xlink:href="#DejaVuSans-72" x="1099.927734"/>
      <use xlink:href="#DejaVuSans-67" x="1139.291016"/>
      <use xlink:href="#DejaVuSans-65" x="1202.767578"/>
      <use xlink:href="#DejaVuSans-74" x="1264.291016"/>
      <use xlink:href="#DejaVuSans-20" x="1303.5"/>
      <use xlink:href="#DejaVuSans-70" x="1335.287109"/>
      <use xlink:href="#DejaVuSans-61" x="1398.763672"/>
      <use xlink:href="#DejaVuSans-69" x="1460.042969"/>
      <use xlink:href="#DejaVuSans-72" x="1487.826172"/>
      <use xlink:href="#DejaVuSans-73" x="1528.939453"/>
     </g>
    </g>
   </g>
   <g id="line2d_33">
    <defs>
     <path id="m1fcc55914b" d="M 0 1.5 
C 0.397805 1.5 0.77937 1.341951 1.06066 1.06066 
C 1.341951 0.77937 1.5 0.397805 1.5 0 
C 1.5 -0.397805 1.341951 -0.77937 1.06066 -1.06066 
C 0.77937 -1.341951 0.397805 -1.5 0 -1.5 
C -0.397805 -1.5 -0.77937 -1.341951 -1.06066 -1.06066 
C -1.341951 -0.77937 -1.5 -0.397805 -1.5 0 
C -1.5 0.397805 -1.341951 0.77937 -1.06066 1.06066 
C -0.77937 1.341951 -0.397805 1.5 0 1.5 
z
" style="stroke: #f5deb3"/>
    </defs>
    <g>
     <use xlink:href="#m1fcc55914b" x="190.048909" y="27.648" style="fill: #f5deb3; stroke: #f5deb3"/>
     <use xlink:href="#m1fcc55914b" x="190.048909" y="27.648" style="fill: #f5deb3; stroke: #f5deb3"/>
    </g>
   </g>
   <g id="line2d_34">
    <defs>
     <path id="me547585404" d="M 0 1.5 
C 0.397805 1.5 0.77937 1.341951 1.06066 1.06066 
C 1.341951 0.77937 1.5 0.397805 1.5 0 
C 1.5 -0.397805 1.341951 -0.77937 1.06066 -1.06066 
C 0.77937 -1.341951 0.397805 -1.5 0 -1.5 
C -0.397805 -1.5 -0.77937 -1.341951 -1.06066 -1.06066 
C -1.341951 -0.77937 -1.5 -0.397805 -1.5 0 
C -1.5 0.397805 -1.341951 0.77937 -1.06066 1.06066 
C -0.77937 1.341951 -0.397805 1.5 0 1.5 
z
" style="stroke: #000080"/>
    </defs>
    <g>
     <use xlink:href="#me547585404" x="203.607802" y="27.648" style="fill: #000080; stroke: #000080"/>
     <use xlink:href="#me547585404" x="203.607802" y="27.648" style="fill: #000080; stroke: #000080"/>
    </g>
   </g>
   <g id="line2d_35">
    <path d="M 36.933397 298.944 
L 36.933397 291.851294 
L 49.972572 291.851294 
L 49.972572 290.078118 
L 57.6 290.078118 
L 57.6 285.113224 
L 63.011746 285.113224 
L 63.011746 281.921506 
L 67.209423 281.921506 
L 67.209423 280.148329 
L 70.639174 280.148329 
L 70.639174 278.729788 
L 73.538988 278.729788 
L 73.538988 278.020518 
L 76.050921 278.020518 
L 76.050921 277.665882 
L 80.248597 277.665882 
L 80.248597 277.311247 
L 82.04153 277.311247 
L 82.04153 275.892706 
L 87.876026 275.892706 
L 87.876026 274.8288 
L 92.322865 274.8288 
L 92.322865 274.119529 
L 93.287772 274.119529 
L 93.287772 273.410259 
L 94.205591 273.410259 
L 94.205591 273.055624 
L 95.916911 273.055624 
L 95.916911 272.700988 
L 96.717523 272.700988 
L 96.717523 271.991718 
L 97.485448 271.991718 
L 97.485448 271.637082 
L 98.223251 271.637082 
L 98.223251 271.282447 
L 101.532027 271.282447 
L 101.532027 270.927812 
L 103.269713 270.927812 
L 103.269713 270.573176 
L 112.656511 270.573176 
L 112.656511 269.863906 
L 113.638206 269.863906 
L 113.638206 269.509271 
L 114.265316 269.509271 
L 114.265316 269.154635 
L 115.460102 269.154635 
L 115.460102 267.381459 
L 117.899543 267.381459 
L 117.899543 266.672188 
L 118.401214 266.672188 
L 118.401214 266.317553 
L 119.129494 266.317553 
L 119.129494 265.962918 
L 119.830627 265.962918 
L 119.830627 265.253647 
L 122.19863 265.253647 
L 122.19863 264.899012 
L 123.374735 264.899012 
L 123.374735 264.544376 
L 123.936316 264.544376 
L 123.936316 264.189741 
L 125.011554 264.189741 
L 125.011554 263.125835 
L 125.35673 263.125835 
L 125.35673 262.7712 
L 125.526971 262.7712 
L 125.526971 262.416565 
L 125.862901 262.416565 
L 125.862901 262.061929 
L 126.192937 262.061929 
L 126.192937 261.707294 
L 127.610376 261.707294 
L 127.610376 261.352659 
L 128.499277 261.352659 
L 128.499277 259.934118 
L 129.209231 259.934118 
L 129.209231 259.579482 
L 129.893363 259.579482 
L 129.893363 258.870212 
L 130.160198 258.870212 
L 130.160198 258.160941 
L 130.4233 258.160941 
L 130.4233 257.806306 
L 131.31622 257.806306 
L 131.31622 257.097035 
L 131.440389 257.097035 
L 131.440389 256.7424 
L 131.563744 256.7424 
L 131.563744 256.387765 
L 132.168669 256.387765 
L 132.168669 254.969224 
L 132.754746 254.969224 
L 132.754746 254.614588 
L 133.323114 254.614588 
L 133.323114 253.905318 
L 133.765759 253.905318 
L 133.765759 253.550682 
L 133.983236 253.550682 
L 133.983236 253.196047 
L 134.41079 253.196047 
L 134.41079 251.422871 
L 135.237805 251.422871 
L 135.237805 250.7136 
L 135.538796 250.7136 
L 135.538796 250.004329 
L 135.932769 250.004329 
L 136.029987 249.295059 
L 136.508678 249.295059 
L 136.602972 248.231153 
L 136.696795 248.231153 
L 136.696795 247.876518 
L 136.88305 247.876518 
L 136.97549 247.167247 
L 137.250116 247.167247 
L 137.250116 246.457976 
L 137.520791 246.457976 
L 137.520791 246.103341 
L 138.310202 246.103341 
L 138.310202 245.748706 
L 138.481218 245.748706 
L 138.481218 245.394071 
L 138.985129 245.394071 
L 138.985129 244.330165 
L 139.556456 244.330165 
L 139.556456 243.975529 
L 139.716555 243.975529 
L 139.716555 243.620894 
L 140.343665 243.620894 
L 140.343665 243.266259 
L 140.573544 243.266259 
L 140.573544 242.911624 
L 141.099251 242.911624 
L 141.173167 242.202353 
L 141.538451 242.202353 
L 141.538451 241.847718 
L 141.682602 241.847718 
L 141.682602 241.493082 
L 141.825656 241.493082 
L 141.825656 241.138447 
L 142.387236 241.138447 
L 142.387236 240.429176 
L 142.525051 240.429176 
L 142.525051 240.074541 
L 142.661862 240.074541 
L 142.661862 239.365271 
L 142.797687 239.365271 
L 142.865233 237.237459 
L 143.066428 237.237459 
L 143.066428 236.882824 
L 143.265494 236.882824 
L 143.265494 236.528188 
L 143.850356 236.528188 
L 143.850356 236.173553 
L 144.355394 236.173553 
L 144.355394 235.818918 
L 144.479563 235.818918 
L 144.541342 234.755012 
L 144.664294 234.755012 
L 144.664294 234.400376 
L 145.26728 234.400376 
L 145.26728 234.045741 
L 145.851536 234.045741 
L 145.851536 233.691106 
L 146.023332 233.691106 
L 146.023332 233.336471 
L 146.193574 233.336471 
L 146.193574 232.981835 
L 146.362288 232.981835 
L 146.362288 232.6272 
L 146.47393 232.6272 
L 146.47393 232.272565 
L 146.695245 232.272565 
L 146.695245 231.917929 
L 147.183884 231.917929 
L 147.183884 231.563294 
L 147.343984 231.563294 
L 147.449964 230.499388 
L 147.555352 230.499388 
L 147.555352 229.790118 
L 147.764371 229.790118 
L 147.868016 228.726212 
L 147.971093 228.726212 
L 147.971093 228.371576 
L 148.124658 228.371576 
L 148.124658 226.243765 
L 148.276979 226.243765 
L 148.276979 225.179859 
L 148.478174 225.179859 
L 148.478174 224.470588 
L 148.971944 224.470588 
L 148.971944 224.115953 
L 149.165879 224.115953 
L 149.214052 223.406682 
L 150.106653 223.406682 
L 150.106653 222.342776 
L 150.334674 222.342776 
L 150.334674 221.988141 
L 151.089903 221.988141 
L 151.089903 221.633506 
L 151.60532 221.633506 
L 151.60532 221.278871 
L 152.065693 221.278871 
L 152.1482 219.151059 
L 152.434157 219.151059 
L 152.434157 218.087153 
L 152.874916 218.087153 
L 152.914478 217.377882 
L 153.189104 217.377882 
L 153.189104 217.023247 
L 153.688725 217.023247 
L 153.688725 214.895435 
L 153.839823 214.895435 
L 153.839823 214.5408 
L 154.064218 214.5408 
L 154.138425 212.412988 
L 156.304668 212.412988 
L 156.304668 211.349082 
L 156.631834 211.349082 
L 156.631834 210.994447 
L 157.394569 210.994447 
L 157.394569 209.930541 
L 158.187393 209.930541 
L 158.276759 208.157365 
L 158.454228 208.157365 
L 158.454228 207.802729 
L 159.871431 207.802729 
L 159.871431 206.384188 
L 160.515541 206.384188 
L 160.515541 206.029553 
L 160.699326 206.029553 
L 160.699326 205.674918 
L 170.9104 205.674918 
L 170.9104 204.256376 
L 171.449192 204.256376 
L 171.449192 203.901741 
L 171.814477 203.901741 
L 171.814477 203.547106 
L 172.073157 203.547106 
L 172.130162 202.4832 
L 172.186995 202.4832 
L 172.186995 202.128565 
L 172.370523 202.128565 
L 172.370523 201.064659 
L 172.53836 201.064659 
L 172.53836 200.710024 
L 172.759838 200.710024 
L 172.759838 199.646118 
L 172.992335 199.646118 
L 173.10076 198.582212 
L 173.114269 198.582212 
L 173.114269 198.227576 
L 173.24883 198.227576 
L 173.24883 197.872941 
L 173.409043 197.872941 
L 173.475398 197.163671 
L 173.554715 197.163671 
L 173.659955 195.035859 
L 173.881654 195.035859 
L 173.959281 194.326588 
L 174.087951 194.326588 
L 174.139174 191.134871 
L 174.518962 191.134871 
L 174.518962 190.780235 
L 174.79268 190.780235 
L 174.903518 187.943153 
L 174.977048 187.943153 
L 175.050293 186.169976 
L 175.098964 186.169976 
L 175.183838 184.3968 
L 175.256283 184.3968 
L 175.304425 182.268988 
L 175.388379 182.268988 
L 175.388379 181.914353 
L 175.590719 181.914353 
L 175.673408 180.495812 
L 175.720495 180.495812 
L 175.755734 178.013365 
L 175.907676 178.013365 
L 175.988986 176.594824 
L 176.035292 176.594824 
L 176.104537 173.757741 
L 176.207929 173.757741 
L 176.299358 170.920659 
L 176.322146 170.920659 
L 176.401688 169.856753 
L 176.649508 169.856753 
L 176.705378 168.438212 
L 176.761083 168.438212 
L 176.838794 167.019671 
L 176.883057 167.019671 
L 176.982268 164.182588 
L 177.03716 164.182588 
L 177.146467 163.118682 
L 177.233457 163.118682 
L 177.287622 160.636235 
L 177.363192 160.636235 
L 177.45991 157.799153 
L 177.534792 157.799153 
L 177.545466 155.671341 
L 177.673074 155.671341 
L 177.747115 150.706447 
L 177.946625 150.706447 
L 177.957067 149.287906 
L 178.07155 149.287906 
L 178.07155 148.933271 
L 178.226549 148.933271 
L 178.329176 145.741553 
L 178.339408 145.741553 
L 178.400683 144.677647 
L 178.502368 144.677647 
L 178.532766 142.1952 
L 178.684026 142.1952 
L 178.784194 140.422024 
L 179.012577 140.422024 
L 179.120831 132.974682 
L 179.169832 132.974682 
L 179.23822 132.265412 
L 179.325784 132.265412 
L 179.335488 131.201506 
L 179.480453 131.201506 
L 179.490078 129.073694 
L 179.75759 129.073694 
L 179.852216 128.009788 
L 179.880511 128.009788 
L 179.880511 126.591247 
L 180.040051 126.591247 
L 180.114663 124.1088 
L 180.170429 124.1088 
L 180.188981 122.690259 
L 180.3735 122.690259 
L 180.465085 120.207812 
L 180.547132 120.207812 
L 180.655974 118.08 
L 180.898592 118.08 
L 180.925357 117.016094 
L 181.014301 117.016094 
L 181.058615 115.242918 
L 181.129302 115.242918 
L 181.129302 114.888282 
L 181.313602 114.888282 
L 181.313602 114.533647 
L 181.461485 114.533647 
L 181.461485 114.179012 
L 181.616811 114.179012 
L 181.719653 110.987294 
L 181.770864 110.987294 
L 181.770864 110.278024 
L 182.108755 110.278024 
L 182.150568 107.795576 
L 182.225597 107.795576 
L 182.225597 107.440941 
L 182.358249 107.440941 
L 182.432456 105.667765 
L 182.547311 105.667765 
L 182.547311 104.603859 
L 182.903785 104.603859 
L 182.903785 103.894588 
L 189.671889 103.894588 
L 189.671889 103.539953 
L 190.048909 103.539953 
L 190.048909 103.185318 
L 190.321387 103.185318 
L 190.402367 102.121412 
L 190.573967 102.121412 
L 190.643235 99.9936 
L 190.886309 99.9936 
L 190.917784 98.220424 
L 191.017109 98.220424 
L 191.115912 95.383341 
L 191.203877 95.383341 
L 191.203877 94.674071 
L 191.34787 94.674071 
L 191.39392 92.900894 
L 191.460239 92.900894 
L 191.511095 91.482353 
L 191.698075 91.482353 
L 191.798376 89.354541 
L 191.843338 89.354541 
L 191.903121 88.290635 
L 191.962714 88.290635 
L 192.036941 85.098918 
L 192.076409 85.098918 
L 192.184522 82.261835 
L 192.233459 82.261835 
L 192.233459 81.197929 
L 192.364958 81.197929 
L 192.447284 79.070118 
L 192.538872 79.070118 
L 192.6348 78.006212 
L 192.749273 78.006212 
L 192.796765 76.587671 
L 192.919686 76.587671 
L 192.952643 75.8784 
L 193.069878 75.8784 
L 193.158491 71.977412 
L 193.228155 71.977412 
L 193.246689 70.204235 
L 193.343691 70.204235 
L 193.453943 67.367153 
L 193.472255 67.367153 
L 193.581758 66.657882 
L 193.609034 66.657882 
L 193.69967 63.8208 
L 193.740315 63.8208 
L 193.740315 62.756894 
L 193.919901 62.756894 
L 193.955614 57.082729 
L 194.088935 57.082729 
L 194.09779 55.664188 
L 194.370235 55.664188 
L 194.439907 51.7632 
L 194.504991 51.7632 
L 194.535287 50.344659 
L 194.630186 50.344659 
L 194.703191 48.216847 
L 194.775913 48.216847 
L 194.831336 47.152941 
L 194.928992 47.152941 
L 195.017716 42.542682 
L 195.252287 42.542682 
L 195.252287 42.188047 
L 195.380893 42.188047 
L 195.434563 40.769506 
L 195.602836 40.769506 
L 195.659952 39.350965 
L 195.890722 39.350965 
L 195.890722 38.641694 
L 196.074915 38.641694 
L 196.074915 38.287059 
L 201.600873 38.287059 
L 201.600873 37.932424 
L 201.713411 37.932424 
L 201.790024 36.868518 
L 201.971469 36.868518 
L 201.971469 36.159247 
L 202.19728 36.159247 
L 202.19728 35.449976 
L 202.411879 35.449976 
L 202.414724 34.031435 
L 202.736248 34.031435 
L 202.736248 32.612894 
L 203.035863 32.612894 
L 203.134684 31.194353 
L 203.178438 31.194353 
L 203.178438 30.485082 
L 203.446927 30.485082 
L 203.446927 28.711906 
L 203.607802 28.711906 
L 203.607802 27.648 
L 360.8064 27.648 
L 360.8064 27.648 
" style="fill: none; stroke: #000080; stroke-width: 1.5; stroke-linecap: square"/>
   </g>
   <g id="line2d_36">
    <defs>
     <path id="me5d6f5a8c4" d="M 0 6 
C 1.591219 6 3.117479 5.367802 4.242641 4.242641 
C 5.367802 3.117479 6 1.591219 6 0 
C 6 -1.591219 5.367802 -3.117479 4.242641 -4.242641 
C 3.117479 -5.367802 1.591219 -6 0 -6 
C -1.591219 -6 -3.117479 -5.367802 -4.242641 -4.242641 
C -5.367802 -3.117479 -6 -1.591219 -6 0 
C -6 1.591219 -5.367802 3.117479 -4.242641 4.242641 
C -3.117479 5.367802 -1.591219 6 0 6 
z
" style="stroke: #000080; stroke-width: 1.5"/>
    </defs>
    <g>
     <use xlink:href="#me5d6f5a8c4" x="82.04153" y="275.892706" style="fill-opacity: 0; stroke: #000080; stroke-width: 1.5"/>
     <use xlink:href="#me5d6f5a8c4" x="176.322146" y="170.920659" style="fill-opacity: 0; stroke: #000080; stroke-width: 1.5"/>
     <use xlink:href="#me5d6f5a8c4" x="203.134684" y="31.548988" style="fill-opacity: 0; stroke: #000080; stroke-width: 1.5"/>
     <use xlink:href="#me5d6f5a8c4" x="203.607802" y="27.648" style="fill-opacity: 0; stroke: #000080; stroke-width: 1.5"/>
     <use xlink:href="#me5d6f5a8c4" x="203.607802" y="27.648" style="fill-opacity: 0; stroke: #000080; stroke-width: 1.5"/>
     <use xlink:href="#me5d6f5a8c4" x="360.8064" y="27.648" style="fill-opacity: 0; stroke: #000080; stroke-width: 1.5"/>
    </g>
   </g>
   <g id="line2d_37">
    <path style="fill: none; stroke: #000080; stroke-width: 1.5; stroke-linecap: square"/>
    <g/>
   </g>
   <g id="line2d_38">
    <defs>
     <path id="m6fdc37fc00" d="M 0 1.5 
C 0.397805 1.5 0.77937 1.341951 1.06066 1.06066 
C 1.341951 0.77937 1.5 0.397805 1.5 0 
C 1.5 -0.397805 1.341951 -0.77937 1.06066 -1.06066 
C 0.77937 -1.341951 0.397805 -1.5 0 -1.5 
C -0.397805 -1.5 -0.77937 -1.341951 -1.06066 -1.06066 
C -1.341951 -0.77937 -1.5 -0.397805 -1.5 0 
C -1.5 0.397805 -1.341951 0.77937 -1.06066 1.06066 
C -0.77937 1.341951 -0.397805 1.5 0 1.5 
z
" style="stroke: #ff00ff"/>
    </defs>
    <g>
     <use xlink:href="#m6fdc37fc00" x="208.220561" y="27.648" style="fill: #ff00ff; stroke: #ff00ff"/>
     <use xlink:href="#m6fdc37fc00" x="208.220561" y="27.648" style="fill: #ff00ff; stroke: #ff00ff"/>
    </g>
   </g>
   <g id="line2d_39">
    <path d="M 36.933397 298.944 
L 36.933397 291.851294 
L 49.972572 291.851294 
L 49.972572 287.241035 
L 57.6 287.241035 
L 57.6 284.403953 
L 63.011746 284.403953 
L 63.011746 283.340047 
L 67.209423 283.340047 
L 67.209423 282.630776 
L 70.639174 282.630776 
L 70.639174 281.921506 
L 73.538988 281.921506 
L 73.538988 281.212235 
L 76.050921 281.212235 
L 76.050921 280.8576 
L 78.266603 280.8576 
L 78.266603 279.439059 
L 80.248597 279.439059 
L 80.248597 278.729788 
L 82.04153 278.729788 
L 82.04153 278.020518 
L 87.876026 278.020518 
L 87.876026 277.311247 
L 89.090095 277.311247 
L 89.090095 276.247341 
L 90.230539 276.247341 
L 90.230539 275.892706 
L 92.322865 275.892706 
L 92.322865 275.183435 
L 93.287772 275.183435 
L 93.287772 274.474165 
L 96.717523 274.474165 
L 96.717523 271.991718 
L 98.933205 271.991718 
L 98.933205 271.637082 
L 100.277459 271.637082 
L 100.277459 271.282447 
L 102.12927 271.282447 
L 102.12927 270.573176 
L 104.860369 270.573176 
L 104.860369 270.218541 
L 105.36204 270.218541 
L 105.36204 269.154635 
L 107.244765 269.154635 
L 107.244765 268.090729 
L 108.119879 268.090729 
L 108.119879 267.381459 
L 111.262425 267.381459 
L 111.262425 266.317553 
L 111.97238 266.317553 
L 111.97238 265.962918 
L 114.265316 265.962918 
L 114.265316 265.608282 
L 116.030193 265.608282 
L 116.030193 264.544376 
L 119.830627 264.544376 
L 119.830627 263.480471 
L 121.99526 263.480471 
L 121.99526 263.125835 
L 125.184934 263.125835 
L 125.184934 262.7712 
L 125.526971 262.7712 
L 125.526971 262.061929 
L 128.060076 262.061929 
L 128.060076 260.998024 
L 129.485876 260.998024 
L 129.485876 260.643388 
L 133.097823 260.643388 
L 133.097823 259.934118 
L 133.210806 259.934118 
L 133.210806 258.870212 
L 133.545739 258.870212 
L 133.545739 258.515576 
L 134.198228 258.515576 
L 134.198228 257.451671 
L 135.136394 257.451671 
L 135.136394 257.097035 
L 135.438999 257.097035 
L 135.438999 256.387765 
L 136.029987 256.387765 
L 136.029987 256.033129 
L 136.318661 256.033129 
L 136.318661 254.969224 
L 136.508678 254.969224 
L 136.508678 254.614588 
L 137.067478 254.614588 
L 137.067478 253.905318 
L 137.787626 253.905318 
L 137.787626 253.550682 
L 138.481218 253.550682 
L 138.566146 252.486776 
L 139.394983 252.486776 
L 139.394983 252.132141 
L 139.716555 252.132141 
L 139.716555 251.777506 
L 140.649551 251.777506 
L 140.649551 251.422871 
L 141.025043 251.422871 
L 141.025043 250.004329 
L 141.465959 250.004329 
L 141.465959 248.940424 
L 141.754265 248.940424 
L 141.754265 248.585788 
L 141.896777 248.585788 
L 141.896777 247.521882 
L 143.133017 247.521882 
L 143.133017 247.167247 
L 143.265494 247.167247 
L 143.265494 246.457976 
L 143.52768 246.457976 
L 143.52768 246.103341 
L 145.385592 246.103341 
L 145.44447 245.394071 
L 146.136998 245.394071 
L 146.136998 245.039435 
L 146.24998 245.039435 
L 146.24998 244.6848 
L 146.584913 244.6848 
L 146.584913 244.330165 
L 146.804934 244.330165 
L 146.804934 243.620894 
L 146.968277 243.620894 
L 146.968277 241.847718 
L 147.130214 241.847718 
L 147.130214 241.138447 
L 147.449964 241.138447 
L 147.449964 240.429176 
L 147.764371 240.429176 
L 147.764371 238.656 
L 148.528138 238.656 
L 148.528138 238.301365 
L 148.971944 238.301365 
L 149.069161 237.592094 
L 149.117582 237.592094 
L 149.117582 236.882824 
L 149.968501 236.882824 
L 149.968501 236.528188 
L 150.334674 236.528188 
L 150.379949 235.818918 
L 150.649331 235.818918 
L 150.738275 234.755012 
L 150.78259 234.755012 
L 150.78259 234.045741 
L 151.435079 234.045741 
L 151.435079 233.691106 
L 151.815978 233.691106 
L 151.815978 231.563294 
L 152.065693 231.563294 
L 152.065693 231.208659 
L 152.189318 231.208659 
L 152.189318 230.854024 
L 152.595631 230.854024 
L 152.635783 230.144753 
L 153.150116 230.144753 
L 153.150116 229.790118 
L 153.305585 229.790118 
L 153.305585 229.080847 
L 153.688725 229.080847 
L 153.688725 228.371576 
L 154.829169 228.371576 
L 154.829169 228.016941 
L 155.147716 228.016941 
L 155.252711 226.5984 
L 155.632755 226.5984 
L 155.701037 225.179859 
L 156.205398 225.179859 
L 156.205398 224.825224 
L 156.468962 224.825224 
L 156.468962 223.406682 
L 156.631834 223.406682 
L 156.631834 223.052047 
L 157.394569 223.052047 
L 157.394569 222.342776 
L 157.795157 222.342776 
L 157.825621 221.278871 
L 158.247018 221.278871 
L 158.247018 220.924235 
L 158.542339 220.924235 
L 158.600851 218.441788 
L 159.176172 218.441788 
L 159.176172 217.023247 
L 159.429436 217.023247 
L 159.457367 215.959341 
L 159.925957 215.959341 
L 159.925957 215.604706 
L 160.061585 215.604706 
L 160.061585 215.250071 
L 160.436223 215.250071 
L 160.489139 213.122259 
L 160.855439 213.122259 
L 160.881333 211.703718 
L 161.189305 211.703718 
L 161.189305 210.285176 
L 162.492258 210.285176 
L 162.492258 209.575906 
L 163.531835 209.575906 
L 163.531835 209.221271 
L 163.73303 209.221271 
L 163.73303 208.866635 
L 163.954085 208.866635 
L 164.041785 206.029553 
L 164.876089 206.029553 
L 164.876089 205.320282 
L 174.190258 205.320282 
L 174.190258 204.965647 
L 174.456194 204.965647 
L 174.456194 204.256376 
L 174.681186 204.256376 
L 174.681186 203.901741 
L 175.074644 203.901741 
L 175.074644 202.837835 
L 175.388379 202.837835 
L 175.448117 201.064659 
L 175.673408 201.064659 
L 175.673408 199.291482 
L 175.790907 199.291482 
L 175.790907 198.936847 
L 175.919314 198.936847 
L 175.919314 197.872941 
L 176.185002 197.872941 
L 176.265124 195.390494 
L 176.559769 195.390494 
L 176.593471 194.681224 
L 176.860939 194.681224 
L 176.860939 193.617318 
L 177.059073 193.617318 
L 177.146467 192.553412 
L 177.200883 192.553412 
L 177.233457 190.780235 
L 177.45991 190.780235 
L 177.45991 190.4256 
L 177.609378 190.4256 
L 177.673074 189.007059 
L 177.747115 189.007059 
L 177.747115 187.588518 
L 177.977934 187.588518 
L 177.977934 187.233882 
L 178.236837 187.233882 
L 178.288192 185.815341 
L 178.38028 185.815341 
L 178.38028 185.460706 
L 178.704102 185.460706 
L 178.804164 183.332894 
L 178.824112 183.332894 
L 178.91362 181.559718 
L 178.963164 181.559718 
L 179.071702 179.431906 
L 179.091369 179.431906 
L 179.179617 175.885553 
L 179.218706 175.885553 
L 179.257714 173.403106 
L 179.403277 173.403106 
L 179.451549 170.566024 
L 179.538128 170.566024 
L 179.624309 169.147482 
L 179.652949 169.147482 
L 179.652949 168.792847 
L 179.776554 168.792847 
L 179.804963 168.083576 
L 179.946368 168.083576 
L 180.049394 164.537224 
L 180.068066 164.537224 
L 180.151859 162.054776 
L 180.23528 162.054776 
L 180.23528 161.700141 
L 180.364317 161.700141 
L 180.455946 160.2816 
L 180.519823 160.2816 
L 180.565316 154.962071 
L 180.646928 154.962071 
L 180.665016 153.543529 
L 180.773181 153.543529 
L 180.827031 150.706447 
L 181.023172 150.706447 
L 181.129302 147.514729 
L 181.146932 147.514729 
L 181.182144 146.450824 
L 181.304866 146.450824 
L 181.409423 143.259106 
L 181.530677 143.259106 
L 181.63399 142.549835 
L 181.651154 142.549835 
L 181.736739 140.776659 
L 181.762339 140.776659 
L 181.855908 137.584941 
L 181.91521 137.584941 
L 181.974326 131.910776 
L 182.058457 131.910776 
L 182.100381 131.201506 
L 182.20895 131.201506 
L 182.316895 128.719059 
L 182.349985 128.719059 
L 182.349985 128.009788 
L 182.489971 128.009788 
L 182.596321 126.236612 
L 182.661469 126.236612 
L 182.726392 125.172706 
L 182.847523 125.172706 
L 182.911809 123.754165 
L 183.023783 123.754165 
L 183.095416 120.207812 
L 183.166777 120.207812 
L 183.166777 119.143906 
L 183.363593 119.143906 
L 183.46513 115.952188 
L 183.535105 115.952188 
L 183.64344 112.760471 
L 183.751154 112.760471 
L 183.842993 109.568753 
L 183.987493 109.568753 
L 184.093261 108.504847 
L 184.153434 108.504847 
L 184.190945 107.440941 
L 184.310478 107.440941 
L 184.407043 105.667765 
L 184.466222 105.667765 
L 184.466222 105.313129 
L 184.628012 105.313129 
L 184.628012 103.894588 
L 184.81744 103.894588 
L 184.81744 102.830682 
L 185.119467 102.830682 
L 185.155102 102.121412 
L 185.24035 102.121412 
L 185.24035 101.766776 
L 185.353418 101.766776 
L 185.43076 99.638965 
L 185.812768 99.638965 
L 185.812768 99.284329 
L 186.092575 99.284329 
L 186.092575 98.220424 
L 186.328186 98.220424 
L 186.328186 97.511153 
L 186.541048 97.511153 
L 186.541048 97.156518 
L 186.705688 97.156518 
L 186.810306 96.447247 
L 186.985539 96.447247 
L 186.985539 95.737976 
L 187.191132 95.737976 
L 187.191132 95.028706 
L 187.331185 95.028706 
L 187.432391 94.319435 
L 187.745194 94.319435 
L 187.831855 92.191624 
L 188.010106 92.191624 
L 188.010106 91.482353 
L 190.21831 91.482353 
L 190.21831 91.127718 
L 191.7232 91.127718 
L 191.7232 89.354541 
L 192.174719 89.354541 
L 192.174719 88.999906 
L 192.787276 88.999906 
L 192.787276 88.645271 
L 192.933817 88.645271 
L 192.933817 86.162824 
L 193.508827 86.162824 
L 193.508827 85.808188 
L 193.667997 85.808188 
L 193.667997 85.098918 
L 194.004608 85.098918 
L 194.004608 84.389647 
L 194.172886 84.389647 
L 194.252074 81.552565 
L 194.582797 81.552565 
L 194.668871 79.424753 
L 194.698904 79.424753 
L 194.698904 78.715482 
L 194.878104 78.715482 
L 194.92052 76.942306 
L 195.122797 76.942306 
L 195.227294 75.523765 
L 195.418066 75.523765 
L 195.418066 74.814494 
L 195.611006 74.814494 
L 195.611006 74.459859 
L 195.725016 74.459859 
L 195.82623 73.395953 
L 196.106765 73.395953 
L 196.213863 71.622776 
L 196.24153 71.622776 
L 196.24153 71.268141 
L 196.465316 71.268141 
L 196.465316 70.558871 
L 196.771139 70.558871 
L 196.81333 69.140329 
L 196.89743 69.140329 
L 196.89743 68.785694 
L 197.079626 68.785694 
L 197.117362 67.012518 
L 197.349653 67.012518 
L 197.349653 66.657882 
L 197.464731 66.657882 
L 197.516472 63.111529 
L 197.729325 63.111529 
L 197.820334 60.983718 
L 197.914519 60.983718 
L 197.914519 56.728094 
L 198.346741 56.728094 
L 198.452384 55.309553 
L 198.703534 55.309553 
L 198.814089 54.245647 
L 198.845066 54.245647 
L 198.941114 51.7632 
L 199.046883 51.7632 
L 199.13175 49.990024 
L 199.253289 49.990024 
L 199.323826 48.216847 
L 199.41413 48.216847 
L 199.41413 47.862212 
L 199.53718 47.862212 
L 199.590142 44.315859 
L 199.662723 44.315859 
L 199.721899 43.606588 
L 199.793974 43.606588 
L 199.793974 43.251953 
L 200.008557 43.251953 
L 200.008557 42.542682 
L 200.20473 42.542682 
L 200.265418 41.478776 
L 204.097948 41.478776 
L 204.097948 41.124141 
L 204.514684 41.124141 
L 204.514684 38.287059 
L 205.866745 38.287059 
L 205.866745 37.932424 
L 206.043491 37.932424 
L 206.043491 37.223153 
L 206.230208 37.223153 
L 206.230208 36.513882 
L 206.345971 36.513882 
L 206.345971 35.804612 
L 206.51143 35.804612 
L 206.51143 34.740706 
L 206.90762 34.740706 
L 206.90762 34.386071 
L 207.046006 34.386071 
L 207.046006 32.967529 
L 207.220875 32.967529 
L 207.220875 30.839718 
L 207.624128 30.839718 
L 207.690862 28.711906 
L 208.075848 28.711906 
L 208.109504 28.002635 
L 208.220561 28.002635 
L 208.220561 27.648 
L 360.8064 27.648 
L 360.8064 27.648 
" style="fill: none; stroke: #ff00ff; stroke-width: 1.5; stroke-linecap: square"/>
   </g>
   <g id="line2d_40">
    <defs>
     <path id="m077e9202d4" d="M -0 8.485281 
L 5.091169 0 
L 0 -8.485281 
L -5.091169 -0 
z
" style="stroke: #ff00ff; stroke-width: 1.5; stroke-linejoin: miter"/>
    </defs>
    <g>
     <use xlink:href="#m077e9202d4" x="108.119879" y="268.090729" style="fill-opacity: 0; stroke: #ff00ff; stroke-width: 1.5; stroke-linejoin: miter"/>
     <use xlink:href="#m077e9202d4" x="176.860939" y="194.681224" style="fill-opacity: 0; stroke: #ff00ff; stroke-width: 1.5; stroke-linejoin: miter"/>
     <use xlink:href="#m077e9202d4" x="208.220561" y="28.002635" style="fill-opacity: 0; stroke: #ff00ff; stroke-width: 1.5; stroke-linejoin: miter"/>
     <use xlink:href="#m077e9202d4" x="208.220561" y="27.648" style="fill-opacity: 0; stroke: #ff00ff; stroke-width: 1.5; stroke-linejoin: miter"/>
     <use xlink:href="#m077e9202d4" x="208.220561" y="27.648" style="fill-opacity: 0; stroke: #ff00ff; stroke-width: 1.5; stroke-linejoin: miter"/>
     <use xlink:href="#m077e9202d4" x="360.8064" y="27.648" style="fill-opacity: 0; stroke: #ff00ff; stroke-width: 1.5; stroke-linejoin: miter"/>
    </g>
   </g>
   <g id="line2d_41">
    <path style="fill: none; stroke: #ff00ff; stroke-width: 1.5; stroke-linecap: square"/>
    <g/>
   </g>
   <g id="line2d_42">
    <defs>
     <path id="m1543ed994f" d="M 0 1.5 
C 0.397805 1.5 0.77937 1.341951 1.06066 1.06066 
C 1.341951 0.77937 1.5 0.397805 1.5 0 
C 1.5 -0.397805 1.341951 -0.77937 1.06066 -1.06066 
C 0.77937 -1.341951 0.397805 -1.5 0 -1.5 
C -0.397805 -1.5 -0.77937 -1.341951 -1.06066 -1.06066 
C -1.341951 -0.77937 -1.5 -0.397805 -1.5 0 
C -1.5 0.397805 -1.341951 0.77937 -1.06066 1.06066 
C -0.77937 1.341951 -0.397805 1.5 0 1.5 
z
" style="stroke: #ff7500"/>
    </defs>
    <g>
     <use xlink:href="#m1543ed994f" x="198.215625" y="27.648" style="fill: #ff7500; stroke: #ff7500"/>
     <use xlink:href="#m1543ed994f" x="198.215625" y="27.648" style="fill: #ff7500; stroke: #ff7500"/>
    </g>
   </g>
   <g id="line2d_43">
    <path d="M 36.933397 298.944 
L 36.933397 291.851294 
L 49.972572 291.851294 
L 49.972572 287.595671 
L 57.6 287.595671 
L 57.6 284.758588 
L 63.011746 284.758588 
L 63.011746 284.049318 
L 67.209423 284.049318 
L 67.209423 281.566871 
L 73.538988 281.566871 
L 73.538988 279.793694 
L 76.050921 279.793694 
L 76.050921 279.439059 
L 80.248597 279.439059 
L 80.248597 277.665882 
L 85.184077 277.665882 
L 85.184077 276.956612 
L 87.876026 276.956612 
L 87.876026 276.601976 
L 89.090095 276.601976 
L 89.090095 276.247341 
L 91.305777 276.247341 
L 91.305777 275.892706 
L 94.205591 275.892706 
L 94.205591 274.119529 
L 95.916911 274.119529 
L 95.916911 273.410259 
L 96.717523 273.410259 
L 96.717523 273.055624 
L 100.277459 273.055624 
L 100.277459 272.700988 
L 102.708132 272.700988 
L 102.708132 272.346353 
L 103.269713 272.346353 
L 103.269713 271.991718 
L 104.344952 271.991718 
L 104.344952 271.637082 
L 105.850679 271.637082 
L 105.850679 269.863906 
L 106.326946 269.863906 
L 106.326946 268.090729 
L 109.360651 268.090729 
L 109.360651 267.736094 
L 111.620752 267.736094 
L 111.620752 267.381459 
L 113.954374 267.381459 
L 113.954374 267.026824 
L 117.6436 267.026824 
L 117.6436 266.672188 
L 118.64712 266.672188 
L 118.64712 266.317553 
L 119.129494 266.317553 
L 119.129494 265.962918 
L 119.366121 265.962918 
L 119.366121 265.253647 
L 120.058649 265.253647 
L 120.058649 264.189741 
L 122.19863 264.189741 
L 122.19863 263.480471 
L 122.795872 263.480471 
L 122.795872 263.125835 
L 123.374735 263.125835 
L 123.374735 262.7712 
L 123.563797 262.7712 
L 123.563797 262.416565 
L 124.3016 262.416565 
L 124.3016 261.707294 
L 125.184934 261.707294 
L 125.184934 261.352659 
L 126.192937 261.352659 
L 126.192937 260.998024 
L 126.677381 260.998024 
L 126.677381 260.288753 
L 126.993549 260.288753 
L 126.993549 258.515576 
L 128.354013 258.515576 
L 128.354013 256.387765 
L 129.348062 256.387765 
L 129.348062 255.678494 
L 129.485876 255.678494 
L 129.485876 254.969224 
L 130.4233 254.969224 
L 130.4233 254.259953 
L 130.553485 254.259953 
L 130.553485 253.905318 
L 130.938718 253.905318 
L 130.938718 252.486776 
L 131.191226 252.486776 
L 131.191226 251.422871 
L 132.638982 251.422871 
L 132.638982 250.7136 
L 132.984158 250.7136 
L 132.984158 250.358965 
L 133.210806 250.358965 
L 133.210806 248.940424 
L 133.323114 248.940424 
L 133.323114 248.231153 
L 133.765759 248.231153 
L 133.765759 246.812612 
L 134.516177 246.812612 
L 134.620977 245.394071 
L 135.237805 245.394071 
L 135.237805 245.039435 
L 135.438999 245.039435 
L 135.438999 244.6848 
L 135.835047 244.6848 
L 135.932769 243.266259 
L 136.222928 243.266259 
L 136.318661 242.556988 
L 136.88305 242.556988 
L 136.88305 241.847718 
L 137.067478 241.847718 
L 137.067478 241.138447 
L 137.699101 241.138447 
L 137.699101 240.783812 
L 138.481218 240.783812 
L 138.481218 237.946729 
L 138.73486 237.946729 
L 138.73486 237.592094 
L 138.902075 237.592094 
L 138.902075 236.882824 
L 139.556456 236.882824 
L 139.556456 236.528188 
L 139.716555 236.528188 
L 139.716555 236.173553 
L 139.954178 236.173553 
L 140.032723 234.755012 
L 140.188837 234.755012 
L 140.188837 233.691106 
L 140.573544 233.691106 
L 140.573544 233.336471 
L 140.725251 233.336471 
L 140.800648 231.563294 
L 141.025043 231.563294 
L 141.025043 231.208659 
L 141.320133 231.208659 
L 141.393187 229.435482 
L 141.465959 229.435482 
L 141.465959 229.080847 
L 141.754265 229.080847 
L 141.825656 228.371576 
L 141.896777 228.371576 
L 141.896777 228.016941 
L 142.108542 228.016941 
L 142.108542 227.307671 
L 142.248405 227.307671 
L 142.248405 226.953035 
L 142.387236 226.953035 
L 142.387236 225.889129 
L 142.661862 225.889129 
L 142.661862 224.825224 
L 143.066428 224.825224 
L 143.066428 222.697412 
L 143.592659 222.697412 
L 143.657415 220.5696 
L 144.293001 220.5696 
L 144.293001 220.214965 
L 144.602918 220.214965 
L 144.602918 219.505694 
L 144.786447 219.505694 
L 144.786447 218.796424 
L 145.207843 218.796424 
L 145.26728 217.732518 
L 145.503164 217.732518 
L 145.503164 217.377882 
L 145.908976 217.377882 
L 145.966241 216.668612 
L 146.080251 216.668612 
L 146.080251 216.313976 
L 146.24998 216.313976 
L 146.24998 215.604706 
L 146.418192 215.604706 
L 146.47393 214.186165 
L 146.695245 214.186165 
L 146.750169 212.767624 
L 146.859539 212.767624 
L 146.913986 210.639812 
L 147.130214 210.639812 
L 147.130214 209.575906 
L 147.290768 209.575906 
L 147.290768 209.221271 
L 147.660152 209.221271 
L 147.660152 208.512 
L 148.226342 208.512 
L 148.226342 207.448094 
L 148.428077 207.448094 
L 148.428077 207.093459 
L 148.57797 207.093459 
L 148.57797 206.029553 
L 148.775988 206.029553 
L 148.775988 205.674918 
L 149.020615 205.674918 
L 149.020615 205.320282 
L 149.40552 205.320282 
L 149.40552 204.965647 
L 149.595059 204.965647 
L 149.595059 204.256376 
L 149.875833 204.256376 
L 149.968501 202.4832 
L 150.014665 202.4832 
L 150.106653 201.064659 
L 150.152479 201.064659 
L 150.152479 200.355388 
L 150.425115 200.355388 
L 150.470172 199.646118 
L 150.649331 199.646118 
L 150.649331 199.291482 
L 150.870907 199.291482 
L 150.914911 197.872941 
L 151.263283 197.872941 
L 151.306379 196.4544 
L 151.477784 196.4544 
L 151.477784 196.099765 
L 151.774035 196.099765 
L 151.774035 194.681224 
L 152.106991 194.681224 
L 152.189318 193.971953 
L 152.474656 193.971953 
L 152.555392 192.198776 
L 152.635783 192.198776 
L 152.715833 190.780235 
L 152.75573 190.780235 
L 152.75573 188.297788 
L 152.953957 188.297788 
L 152.953957 187.943153 
L 153.189104 187.943153 
L 153.228011 185.815341 
L 153.344252 185.815341 
L 153.421349 185.106071 
L 153.536404 185.106071 
L 153.536404 184.751435 
L 153.764426 184.751435 
L 153.839823 183.332894 
L 154.101358 183.332894 
L 154.17542 181.559718 
L 154.24919 181.559718 
L 154.24919 179.077271 
L 154.39587 179.077271 
L 154.468783 176.594824 
L 154.793439 176.594824 
L 154.900425 175.885553 
L 155.322384 175.885553 
L 155.322384 175.530918 
L 155.495444 175.530918 
L 155.564225 171.629929 
L 155.769072 171.629929 
L 155.769072 170.566024 
L 156.304668 170.566024 
L 156.370558 169.147482 
L 156.436218 169.147482 
L 156.436218 168.792847 
L 156.921495 168.792847 
L 156.985263 167.728941 
L 157.300901 167.728941 
L 157.300901 166.665035 
L 157.764644 166.665035 
L 157.856036 160.2816 
L 158.336102 160.2816 
L 158.336102 159.572329 
L 158.688279 159.572329 
L 158.717331 158.153788 
L 159.090988 158.153788 
L 159.176172 157.089882 
L 159.317295 157.089882 
L 159.317295 156.735247 
L 160.034538 156.735247 
L 160.061585 154.2528 
L 160.356569 154.2528 
L 160.356569 153.188894 
L 160.777545 153.188894 
L 160.777545 152.834259 
L 160.9588 152.834259 
L 160.9588 152.479624 
L 161.366654 152.479624 
L 161.442152 151.415718 
L 163.191653 151.415718 
L 163.191653 151.061082 
L 173.554715 151.061082 
L 173.554715 150.706447 
L 173.712355 150.706447 
L 173.712355 150.351812 
L 174.036588 150.351812 
L 174.036588 149.642541 
L 174.164733 149.642541 
L 174.164733 148.933271 
L 174.817367 148.933271 
L 174.903518 148.224 
L 174.989276 148.224 
L 174.989276 147.514729 
L 175.183838 147.514729 
L 175.183838 147.160094 
L 175.448117 147.160094 
L 175.448117 146.096188 
L 176.081483 146.096188 
L 176.081483 145.386918 
L 176.253699 145.386918 
L 176.287954 144.323012 
L 176.413023 144.323012 
L 176.514738 142.904471 
L 176.649508 142.904471 
L 176.705378 141.840565 
L 176.982268 141.840565 
L 177.026195 140.422024 
L 177.190012 140.422024 
L 177.255141 139.003482 
L 177.309244 139.003482 
L 177.309244 138.648847 
L 177.449188 138.648847 
L 177.502736 135.811765 
L 177.620009 135.811765 
L 177.620009 135.102494 
L 177.778757 135.102494 
L 177.831377 133.329318 
L 178.03 133.329318 
L 178.102652 131.201506 
L 178.175024 131.201506 
L 178.267667 129.428329 
L 178.298446 129.428329 
L 178.400683 125.881976 
L 178.502368 125.881976 
L 178.603505 123.044894 
L 178.623668 123.044894 
L 178.694067 121.980988 
L 178.754199 121.980988 
L 178.804164 118.08 
L 178.893767 118.08 
L 178.953265 113.824376 
L 179.071702 113.824376 
L 179.169832 110.987294 
L 179.345187 110.987294 
L 179.422601 108.859482 
L 179.461189 108.859482 
L 179.566899 105.313129 
L 179.643407 105.313129 
L 179.710098 101.057506 
L 179.814423 101.057506 
L 179.861652 98.575059 
L 179.974522 98.575059 
L 180.021352 96.801882 
L 180.114663 96.801882 
L 180.216774 93.610165 
L 180.244527 93.610165 
L 180.355129 88.290635 
L 180.364317 88.290635 
L 180.428504 86.872094 
L 180.52893 86.872094 
L 180.52893 86.517459 
L 180.692116 86.517459 
L 180.737195 83.325741 
L 180.853898 83.325741 
L 180.960985 79.779388 
L 181.014301 79.779388 
L 181.111655 77.651576 
L 181.129302 77.651576 
L 181.129302 76.942306 
L 181.252369 76.942306 
L 181.339783 75.169129 
L 181.41811 75.169129 
L 181.496113 73.750588 
L 181.539308 73.750588 
L 181.642574 71.268141 
L 181.67687 71.268141 
L 181.779386 68.785694 
L 181.847421 68.785694 
L 181.949013 65.593976 
L 182.250541 65.593976 
L 182.250541 64.530071 
L 182.399511 64.530071 
L 182.399511 64.175435 
L 182.514567 64.175435 
L 182.514567 63.8208 
L 182.718289 63.8208 
L 182.718289 62.756894 
L 182.847523 62.756894 
L 182.847523 62.402259 
L 183.410524 62.402259 
L 183.410524 61.338353 
L 183.542864 61.338353 
L 183.558372 60.629082 
L 190.860039 60.629082 
L 190.860039 59.565176 
L 191.121098 59.565176 
L 191.157358 58.855906 
L 191.450051 58.855906 
L 191.450051 58.501271 
L 191.63259 58.501271 
L 191.7232 56.018824 
L 191.768342 56.018824 
L 191.768342 55.309553 
L 191.972628 55.309553 
L 192.061618 53.891012 
L 192.125628 53.891012 
L 192.228571 52.117835 
L 192.394056 52.117835 
L 192.413429 50.699294 
L 192.5821 50.699294 
L 192.663484 48.216847 
L 192.796765 48.216847 
L 192.796765 47.152941 
L 192.985543 47.152941 
L 193.079226 45.7344 
L 193.214243 45.7344 
L 193.214243 45.379765 
L 193.385111 45.379765 
L 193.472255 42.188047 
L 193.577208 42.188047 
L 193.599946 41.478776 
L 193.722261 41.478776 
L 193.812355 40.414871 
L 194.004608 40.414871 
L 194.004608 39.7056 
L 194.119908 39.7056 
L 194.128748 37.932424 
L 194.513652 37.932424 
L 194.513652 36.513882 
L 196.371415 36.513882 
L 196.473121 34.386071 
L 196.535436 34.386071 
L 196.535436 34.031435 
L 196.744241 34.031435 
L 196.820991 33.322165 
L 197.1249 33.322165 
L 197.207622 31.548988 
L 197.505397 31.548988 
L 197.516472 30.485082 
L 197.856615 30.485082 
L 197.892825 28.357271 
L 198.137228 28.357271 
L 198.215625 27.648 
L 360.8064 27.648 
L 360.8064 27.648 
" style="fill: none; stroke: #ff7500; stroke-width: 1.5; stroke-linecap: square"/>
   </g>
   <g id="line2d_44">
    <defs>
     <path id="m156e978720" d="M 0 -6 
L -1.347084 -1.854102 
L -5.706339 -1.854102 
L -2.179628 0.708204 
L -3.526712 4.854102 
L -0 2.291796 
L 3.526712 4.854102 
L 2.179628 0.708204 
L 5.706339 -1.854102 
L 1.347084 -1.854102 
z
" style="stroke: #ff7500; stroke-width: 1.5; stroke-linejoin: bevel"/>
    </defs>
    <g>
     <use xlink:href="#m156e978720" x="95.916911" y="274.119529" style="fill-opacity: 0; stroke: #ff7500; stroke-width: 1.5; stroke-linejoin: bevel"/>
     <use xlink:href="#m156e978720" x="154.24919" y="181.559718" style="fill-opacity: 0; stroke: #ff7500; stroke-width: 1.5; stroke-linejoin: bevel"/>
     <use xlink:href="#m156e978720" x="191.662842" y="58.146635" style="fill-opacity: 0; stroke: #ff7500; stroke-width: 1.5; stroke-linejoin: bevel"/>
     <use xlink:href="#m156e978720" x="198.215625" y="27.648" style="fill-opacity: 0; stroke: #ff7500; stroke-width: 1.5; stroke-linejoin: bevel"/>
     <use xlink:href="#m156e978720" x="198.215625" y="27.648" style="fill-opacity: 0; stroke: #ff7500; stroke-width: 1.5; stroke-linejoin: bevel"/>
     <use xlink:href="#m156e978720" x="360.8064" y="27.648" style="fill-opacity: 0; stroke: #ff7500; stroke-width: 1.5; stroke-linejoin: bevel"/>
    </g>
   </g>
   <g id="line2d_45">
    <path style="fill: none; stroke: #ff7500; stroke-width: 1.5; stroke-linecap: square"/>
    <g/>
   </g>
   <g id="line2d_46">
    <defs>
     <path id="m9ce4ec1817" d="M 0 1.5 
C 0.397805 1.5 0.77937 1.341951 1.06066 1.06066 
C 1.341951 0.77937 1.5 0.397805 1.5 0 
C 1.5 -0.397805 1.341951 -0.77937 1.06066 -1.06066 
C 0.77937 -1.341951 0.397805 -1.5 0 -1.5 
C -0.397805 -1.5 -0.77937 -1.341951 -1.06066 -1.06066 
C -1.341951 -0.77937 -1.5 -0.397805 -1.5 0 
C -1.5 0.397805 -1.341951 0.77937 -1.06066 1.06066 
C -0.77937 1.341951 -0.397805 1.5 0 1.5 
z
" style="stroke: #6495ed"/>
    </defs>
    <g>
     <use xlink:href="#m9ce4ec1817" x="210.342225" y="27.648" style="fill: #6495ed; stroke: #6495ed"/>
     <use xlink:href="#m9ce4ec1817" x="210.342225" y="27.648" style="fill: #6495ed; stroke: #6495ed"/>
    </g>
   </g>
   <g id="line2d_47">
    <path d="M 36.933397 298.944 
L 36.933397 290.432753 
L 49.972572 290.432753 
L 49.972572 286.177129 
L 57.6 286.177129 
L 57.6 284.049318 
L 63.011746 284.049318 
L 63.011746 282.276141 
L 67.209423 282.276141 
L 67.209423 280.8576 
L 70.639174 280.8576 
L 70.639174 279.793694 
L 73.538988 279.793694 
L 73.538988 278.729788 
L 76.050921 278.729788 
L 76.050921 278.020518 
L 78.266603 278.020518 
L 78.266603 277.311247 
L 82.04153 277.311247 
L 82.04153 276.247341 
L 83.678349 276.247341 
L 83.678349 275.183435 
L 86.578163 275.183435 
L 86.578163 273.410259 
L 94.205591 273.410259 
L 94.205591 272.346353 
L 98.223251 272.346353 
L 98.223251 271.991718 
L 100.277459 271.991718 
L 100.277459 271.637082 
L 100.9152 271.637082 
L 100.9152 269.863906 
L 102.708132 269.863906 
L 102.708132 269.154635 
L 104.344952 269.154635 
L 104.344952 268.090729 
L 104.860369 268.090729 
L 104.860369 267.736094 
L 113.316634 267.736094 
L 113.316634 267.026824 
L 114.265316 267.026824 
L 114.265316 266.672188 
L 114.571202 266.672188 
L 114.571202 266.317553 
L 116.030193 266.317553 
L 116.030193 265.608282 
L 119.129494 265.608282 
L 119.129494 265.253647 
L 121.159053 265.253647 
L 121.159053 264.899012 
L 121.371615 264.899012 
L 121.371615 263.480471 
L 121.789667 263.480471 
L 121.789667 262.7712 
L 122.19863 262.7712 
L 122.19863 262.416565 
L 122.598891 262.416565 
L 122.598891 262.061929 
L 125.35673 262.061929 
L 125.35673 261.707294 
L 125.695686 261.707294 
L 125.695686 260.643388 
L 125.862901 260.643388 
L 125.862901 259.934118 
L 126.677381 259.934118 
L 126.677381 259.579482 
L 129.348062 259.579482 
L 129.348062 259.224847 
L 130.682774 259.224847 
L 130.682774 258.160941 
L 131.31622 258.160941 
L 131.31622 257.806306 
L 132.984158 257.806306 
L 132.984158 257.451671 
L 133.545739 257.451671 
L 133.545739 257.097035 
L 134.304809 257.097035 
L 134.304809 256.7424 
L 134.931919 256.7424 
L 135.034434 255.323859 
L 136.029987 255.323859 
L 136.029987 254.969224 
L 136.508678 254.969224 
L 136.508678 254.614588 
L 137.159019 254.614588 
L 137.159019 252.132141 
L 137.610157 252.132141 
L 137.610157 251.422871 
L 137.963436 251.422871 
L 137.963436 251.068235 
L 138.566146 251.068235 
L 138.650692 250.004329 
L 139.067817 250.004329 
L 139.067817 249.649694 
L 139.232111 249.649694 
L 139.232111 249.295059 
L 139.556456 249.295059 
L 139.556456 247.876518 
L 140.032723 247.876518 
L 140.032723 247.521882 
L 140.188837 247.521882 
L 140.188837 246.812612 
L 140.800648 246.812612 
L 140.800648 246.457976 
L 141.246793 246.457976 
L 141.246793 245.039435 
L 141.538451 245.039435 
L 141.538451 244.330165 
L 142.317949 244.330165 
L 142.317949 243.975529 
L 142.45627 243.975529 
L 142.45627 243.266259 
L 142.593581 243.266259 
L 142.593581 242.556988 
L 142.999601 242.556988 
L 142.999601 242.202353 
L 143.52768 242.202353 
L 143.52768 241.847718 
L 143.721949 241.847718 
L 143.721949 240.783812 
L 144.041338 240.783812 
L 144.041338 240.429176 
L 144.16759 240.429176 
L 144.16759 239.365271 
L 144.355394 239.365271 
L 144.355394 238.656 
L 144.664294 238.656 
L 144.664294 237.592094 
L 145.0284 237.592094 
L 145.0284 236.173553 
L 145.385592 236.173553 
L 145.385592 235.818918 
L 145.908976 235.818918 
L 145.966241 232.981835 
L 146.080251 232.981835 
L 146.136998 232.272565 
L 146.750169 232.272565 
L 146.804934 230.854024 
L 147.130214 230.854024 
L 147.130214 230.144753 
L 147.290768 230.144753 
L 147.343984 229.435482 
L 147.555352 229.435482 
L 147.555352 228.726212 
L 147.712333 228.726212 
L 147.816265 226.243765 
L 147.971093 226.243765 
L 147.971093 225.889129 
L 148.276979 225.889129 
L 148.32748 224.825224 
L 148.57797 224.825224 
L 148.627671 224.115953 
L 148.726679 224.115953 
L 148.726679 223.761318 
L 149.31003 223.761318 
L 149.357835 219.860329 
L 150.060715 219.860329 
L 150.152479 217.732518 
L 150.334674 217.732518 
L 150.334674 217.023247 
L 150.559965 217.023247 
L 150.559965 216.668612 
L 150.8268 216.668612 
L 150.8268 215.959341 
L 150.958812 215.959341 
L 151.00261 214.186165 
L 151.392277 214.186165 
L 151.392277 213.831529 
L 151.731998 213.831529 
L 151.731998 211.703718 
L 152.024303 211.703718 
L 152.024303 209.930541 
L 152.312136 209.930541 
L 152.312136 209.221271 
L 152.75573 209.221271 
L 152.75573 208.512 
L 152.993353 208.512 
L 153.071898 207.802729 
L 153.228011 207.802729 
L 153.228011 207.448094 
L 153.536404 207.448094 
L 153.536404 207.093459 
L 154.39587 207.093459 
L 154.39587 206.738824 
L 154.829169 206.738824 
L 154.829169 206.384188 
L 154.971412 206.384188 
L 154.971412 206.029553 
L 155.18278 206.029553 
L 155.28758 203.901741 
L 155.322384 203.901741 
L 155.322384 203.547106 
L 155.666927 203.547106 
L 155.666927 203.192471 
L 156.337642 203.192471 
L 156.403417 202.4832 
L 156.985263 202.4832 
L 157.048816 200.710024 
L 157.206765 200.710024 
L 157.300901 199.646118 
L 157.61133 199.646118 
L 157.642093 198.936847 
L 157.764644 198.936847 
L 157.856036 197.163671 
L 157.946987 197.163671 
L 157.977206 196.099765 
L 158.067574 196.099765 
L 158.15751 194.326588 
L 158.247018 194.326588 
L 158.336102 192.908047 
L 158.395258 192.908047 
L 158.454228 191.844141 
L 158.513014 191.844141 
L 158.542339 190.070965 
L 158.659181 190.070965 
L 158.688279 189.361694 
L 158.775302 189.361694 
L 158.775302 189.007059 
L 158.919453 189.007059 
L 158.919453 188.652424 
L 159.062507 188.652424 
L 159.062507 187.588518 
L 160.383158 187.588518 
L 160.409709 186.879247 
L 161.087207 186.879247 
L 161.087207 186.524612 
L 161.391854 186.524612 
L 161.391854 185.815341 
L 162.775144 185.815341 
L 162.775144 185.460706 
L 163.305732 185.460706 
L 163.305732 185.106071 
L 163.419123 185.106071 
L 163.419123 184.751435 
L 164.085482 184.751435 
L 164.085482 184.3968 
L 164.410013 184.3968 
L 164.452864 183.332894 
L 164.917893 183.332894 
L 164.917893 182.623624 
L 165.146166 182.623624 
L 165.146166 181.205082 
L 165.854592 181.205082 
L 165.854592 180.850447 
L 166.498953 180.850447 
L 166.498953 179.786541 
L 167.066179 179.786541 
L 167.066179 179.077271 
L 167.343504 179.077271 
L 167.343504 178.368 
L 167.6168 178.368 
L 167.6168 177.658729 
L 168.063651 177.658729 
L 168.063651 176.594824 
L 168.204431 176.594824 
L 168.204431 176.240188 
L 168.842171 176.240188 
L 168.842171 174.467012 
L 176.104537 174.467012 
L 176.104537 174.112376 
L 176.794427 174.112376 
L 176.794427 173.757741 
L 177.059073 173.757741 
L 177.059073 173.048471 
L 177.287622 173.048471 
L 177.287622 172.3392 
L 177.449188 172.3392 
L 177.449188 171.629929 
L 177.620009 171.629929 
L 177.641253 170.211388 
L 177.831377 170.211388 
L 177.915264 168.792847 
L 178.133703 168.792847 
L 178.144042 167.374306 
L 178.522639 167.374306 
L 178.613589 165.601129 
L 178.67398 165.601129 
L 178.684026 164.537224 
L 178.824112 164.537224 
L 178.933453 163.118682 
L 178.973057 163.118682 
L 178.973057 162.764047 
L 179.101194 162.764047 
L 179.189397 159.926965 
L 179.30636 159.926965 
L 179.30636 158.508424 
L 179.461189 158.508424 
L 179.461189 157.444518 
L 179.652949 157.444518 
L 179.652949 156.380612 
L 179.965142 156.380612 
L 180.049394 153.188894 
L 180.096038 153.188894 
L 180.161146 151.770353 
L 180.29069 151.770353 
L 180.29069 150.351812 
L 180.492474 150.351812 
L 180.538033 146.805459 
L 180.746198 146.805459 
L 180.809098 145.386918 
L 180.925357 145.386918 
L 180.969881 144.323012 
L 181.261129 144.323012 
L 181.365929 141.131294 
L 181.383339 141.131294 
L 181.487462 138.294212 
L 181.50476 138.294212 
L 181.608215 135.811765 
L 181.616811 135.811765 
L 181.693995 134.038588 
L 181.881346 134.038588 
L 181.898286 132.974682 
L 182.008023 132.974682 
L 182.108755 126.945882 
L 182.200621 126.945882 
L 182.267151 123.399529 
L 182.325173 123.399529 
L 182.407753 121.980988 
L 182.547311 121.980988 
L 182.612629 119.853176 
L 182.766856 119.853176 
L 182.766856 119.498541 
L 182.951876 119.498541 
L 183.055653 118.08 
L 183.135094 118.08 
L 183.237868 114.888282 
L 183.332241 114.888282 
L 183.410524 112.760471 
L 183.674278 112.760471 
L 183.774156 111.341929 
L 183.873506 111.341929 
L 183.896359 110.632659 
L 184.048005 110.632659 
L 184.115848 109.568753 
L 184.183448 109.568753 
L 184.280666 106.0224 
L 184.347677 106.0224 
L 184.429257 102.476047 
L 184.576684 102.476047 
L 184.598699 100.702871 
L 184.925864 100.702871 
L 185.0265 98.929694 
L 185.062311 98.929694 
L 185.062311 98.575059 
L 185.304035 98.575059 
L 185.360462 96.801882 
L 185.77147 96.801882 
L 185.77147 96.092612 
L 185.963426 96.092612 
L 185.963426 95.383341 
L 186.254454 95.383341 
L 186.254454 95.028706 
L 190.669809 95.028706 
L 190.669809 94.319435 
L 191.34787 94.319435 
L 191.34787 93.9648 
L 191.873253 93.9648 
L 191.873253 93.610165 
L 192.115795 93.610165 
L 192.115795 92.191624 
L 192.54368 92.191624 
L 192.54368 90.063812 
L 193.649874 90.063812 
L 193.713228 88.645271 
L 193.870686 88.645271 
L 193.888597 87.936 
L 194.111064 87.936 
L 194.194916 84.389647 
L 194.387677 84.389647 
L 194.387677 84.035012 
L 194.720327 84.035012 
L 194.720327 82.971106 
L 194.971294 82.971106 
L 195.034568 81.552565 
L 195.106023 81.552565 
L 195.173028 80.488659 
L 195.306326 80.488659 
L 195.368485 79.070118 
L 195.434563 79.070118 
L 195.541447 77.296941 
L 195.708771 77.296941 
L 195.749357 75.523765 
L 195.830267 75.523765 
L 195.90279 74.814494 
L 196.05897 74.814494 
L 196.062957 73.750588 
L 196.190116 73.750588 
L 196.190116 73.041318 
L 196.547098 73.041318 
L 196.605296 70.913506 
L 196.863071 70.913506 
L 196.863071 69.8496 
L 197.173825 69.8496 
L 197.20387 69.140329 
L 197.342204 69.140329 
L 197.423977 67.367153 
L 198.508486 67.367153 
L 198.508486 67.012518 
L 202.314897 67.012518 
L 202.314897 65.948612 
L 203.722256 65.948612 
L 203.722256 65.593976 
L 204.54519 65.593976 
L 204.628825 64.530071 
L 204.885007 64.530071 
L 204.885007 64.175435 
L 205.009324 64.175435 
L 205.009324 62.756894 
L 205.292173 62.756894 
L 205.365266 62.047624 
L 205.49129 62.047624 
L 205.599673 60.629082 
L 205.609277 60.629082 
L 205.68115 57.437365 
L 205.800331 57.437365 
L 205.895136 56.728094 
L 206.092684 56.728094 
L 206.167398 54.954918 
L 206.278915 54.954918 
L 206.343663 53.891012 
L 206.405888 53.891012 
L 206.405888 53.181741 
L 206.561697 53.181741 
L 206.657292 49.990024 
L 206.689049 49.990024 
L 206.689049 49.635388 
L 206.840291 49.635388 
L 206.847035 48.571482 
L 206.956841 48.571482 
L 206.999248 47.152941 
L 207.094868 47.152941 
L 207.172341 45.7344 
L 207.236292 45.7344 
L 207.236292 45.025129 
L 207.348233 45.025129 
L 207.452985 42.542682 
L 207.461688 42.542682 
L 207.461688 40.769506 
L 207.785177 40.769506 
L 207.785177 40.414871 
L 208.25396 40.414871 
L 208.322657 39.350965 
L 208.529311 39.350965 
L 208.529311 38.641694 
L 208.648139 38.641694 
L 208.721518 36.868518 
L 208.935931 36.868518 
L 208.96206 35.804612 
L 209.050227 35.804612 
L 209.159857 34.386071 
L 209.408628 34.386071 
L 209.498636 33.322165 
L 209.562942 33.322165 
L 209.562942 31.548988 
L 209.930883 31.548988 
L 210.039307 30.485082 
L 210.145224 30.485082 
L 210.216758 28.002635 
L 210.342225 28.002635 
L 210.342225 27.648 
L 360.8064 27.648 
L 360.8064 27.648 
" style="fill: none; stroke: #6495ed; stroke-width: 1.5; stroke-linecap: square"/>
   </g>
   <g id="line2d_48">
    <defs>
     <path id="m838f1776d5" d="M -0 6 
L 6 -6 
L -6 -6 
z
" style="stroke: #6495ed; stroke-width: 1.5; stroke-linejoin: miter"/>
    </defs>
    <g>
     <use xlink:href="#m838f1776d5" x="152.312136" y="209.930541" style="fill-opacity: 0; stroke: #6495ed; stroke-width: 1.5; stroke-linejoin: miter"/>
     <use xlink:href="#m838f1776d5" x="186.254454" y="95.028706" style="fill-opacity: 0; stroke: #6495ed; stroke-width: 1.5; stroke-linejoin: miter"/>
     <use xlink:href="#m838f1776d5" x="210.342225" y="28.002635" style="fill-opacity: 0; stroke: #6495ed; stroke-width: 1.5; stroke-linejoin: miter"/>
     <use xlink:href="#m838f1776d5" x="210.342225" y="27.648" style="fill-opacity: 0; stroke: #6495ed; stroke-width: 1.5; stroke-linejoin: miter"/>
     <use xlink:href="#m838f1776d5" x="210.342225" y="27.648" style="fill-opacity: 0; stroke: #6495ed; stroke-width: 1.5; stroke-linejoin: miter"/>
     <use xlink:href="#m838f1776d5" x="360.8064" y="27.648" style="fill-opacity: 0; stroke: #6495ed; stroke-width: 1.5; stroke-linejoin: miter"/>
    </g>
   </g>
   <g id="line2d_49">
    <path style="fill: none; stroke: #6495ed; stroke-width: 1.5; stroke-linecap: square"/>
    <g/>
   </g>
   <g id="line2d_50">
    <path d="M 360.8064 27.648 
L 380.514816 293.51808 
" style="fill: none; stroke: #6495ed; stroke-width: 1.5; stroke-linecap: square"/>
    <g>
     <use xlink:href="#m838f1776d5" x="360.8064" y="27.648" style="fill-opacity: 0; stroke: #6495ed; stroke-width: 1.5; stroke-linejoin: miter"/>
     <use xlink:href="#m838f1776d5" x="380.514816" y="293.51808" style="fill-opacity: 0; stroke: #6495ed; stroke-width: 1.5; stroke-linejoin: miter"/>
    </g>
   </g>
   <g id="line2d_51">
    <path d="M 360.8064 27.648 
L 380.514816 228.40704 
" style="fill: none; stroke: #ff00ff; stroke-width: 1.5; stroke-linecap: square"/>
    <g>
     <use xlink:href="#m077e9202d4" x="360.8064" y="27.648" style="fill-opacity: 0; stroke: #ff00ff; stroke-width: 1.5; stroke-linejoin: miter"/>
     <use xlink:href="#m077e9202d4" x="380.514816" y="228.40704" style="fill-opacity: 0; stroke: #ff00ff; stroke-width: 1.5; stroke-linejoin: miter"/>
    </g>
   </g>
   <g id="line2d_52">
    <path d="M 360.8064 27.648 
L 380.514816 163.296 
" style="fill: none; stroke: #000080; stroke-width: 1.5; stroke-linecap: square"/>
    <g>
     <use xlink:href="#me5d6f5a8c4" x="360.8064" y="27.648" style="fill-opacity: 0; stroke: #000080; stroke-width: 1.5"/>
     <use xlink:href="#me5d6f5a8c4" x="380.514816" y="163.296" style="fill-opacity: 0; stroke: #000080; stroke-width: 1.5"/>
    </g>
   </g>
   <g id="line2d_53">
    <path d="M 360.8064 27.648 
L 380.514816 98.18496 
" style="fill: none; stroke: #ff7500; stroke-width: 1.5; stroke-linecap: square"/>
    <g>
     <use xlink:href="#m156e978720" x="360.8064" y="27.648" style="fill-opacity: 0; stroke: #ff7500; stroke-width: 1.5; stroke-linejoin: bevel"/>
     <use xlink:href="#m156e978720" x="380.514816" y="98.18496" style="fill-opacity: 0; stroke: #ff7500; stroke-width: 1.5; stroke-linejoin: bevel"/>
    </g>
   </g>
   <g id="line2d_54">
    <path d="M 360.8064 298.944 
L 360.8064 27.648 
" style="fill: none; stroke: #000000; stroke-width: 1.5; stroke-linecap: square"/>
   </g>
   <g id="patch_3">
    <path d="M 57.6 298.944 
L 360.8064 298.944 
" style="fill: none; stroke: #000000; stroke-width: 0.8; stroke-linejoin: miter; stroke-linecap: square"/>
   </g>
   <g id="patch_4">
    <path d="M 57.6 27.648 
L 360.8064 27.648 
" style="fill: none; stroke: #000000; stroke-width: 0.8; stroke-linejoin: miter; stroke-linecap: square"/>
   </g>
   <g id="text_13">
    <!-- CMA-ES-20 -->
    <g transform="translate(386.578944 297.381205)scale(0.14 -0.14)">
     <defs>
      <path id="DejaVuSans-43" d="M 4122 4306 
L 4122 3641 
Q 3803 3938 3442 4084 
Q 3081 4231 2675 4231 
Q 1875 4231 1450 3742 
Q 1025 3253 1025 2328 
Q 1025 1406 1450 917 
Q 1875 428 2675 428 
Q 3081 428 3442 575 
Q 3803 722 4122 1019 
L 4122 359 
Q 3791 134 3420 21 
Q 3050 -91 2638 -91 
Q 1578 -91 968 557 
Q 359 1206 359 2328 
Q 359 3453 968 4101 
Q 1578 4750 2638 4750 
Q 3056 4750 3426 4639 
Q 3797 4528 4122 4306 
z
" transform="scale(0.015625)"/>
      <path id="DejaVuSans-4d" d="M 628 4666 
L 1569 4666 
L 2759 1491 
L 3956 4666 
L 4897 4666 
L 4897 0 
L 4281 0 
L 4281 4097 
L 3078 897 
L 2444 897 
L 1241 4097 
L 1241 0 
L 628 0 
L 628 4666 
z
" transform="scale(0.015625)"/>
      <path id="DejaVuSans-41" d="M 2188 4044 
L 1331 1722 
L 3047 1722 
L 2188 4044 
z
M 1831 4666 
L 2547 4666 
L 4325 0 
L 3669 0 
L 3244 1197 
L 1141 1197 
L 716 0 
L 50 0 
L 1831 4666 
z
" transform="scale(0.015625)"/>
      <path id="DejaVuSans-45" d="M 628 4666 
L 3578 4666 
L 3578 4134 
L 1259 4134 
L 1259 2753 
L 3481 2753 
L 3481 2222 
L 1259 2222 
L 1259 531 
L 3634 531 
L 3634 0 
L 628 0 
L 628 4666 
z
" transform="scale(0.015625)"/>
      <path id="DejaVuSans-53" d="M 3425 4513 
L 3425 3897 
Q 3066 4069 2747 4153 
Q 2428 4238 2131 4238 
Q 1616 4238 1336 4038 
Q 1056 3838 1056 3469 
Q 1056 3159 1242 3001 
Q 1428 2844 1947 2747 
L 2328 2669 
Q 3034 2534 3370 2195 
Q 3706 1856 3706 1288 
Q 3706 609 3251 259 
Q 2797 -91 1919 -91 
Q 1588 -91 1214 -16 
Q 841 59 441 206 
L 441 856 
Q 825 641 1194 531 
Q 1563 422 1919 422 
Q 2459 422 2753 634 
Q 3047 847 3047 1241 
Q 3047 1584 2836 1778 
Q 2625 1972 2144 2069 
L 1759 2144 
Q 1053 2284 737 2584 
Q 422 2884 422 3419 
Q 422 4038 858 4394 
Q 1294 4750 2059 4750 
Q 2388 4750 2728 4690 
Q 3069 4631 3425 4513 
z
" transform="scale(0.015625)"/>
     </defs>
     <use xlink:href="#DejaVuSans-43"/>
     <use xlink:href="#DejaVuSans-4d" x="69.824219"/>
     <use xlink:href="#DejaVuSans-41" x="156.103516"/>
     <use xlink:href="#DejaVuSans-2d" x="222.261719"/>
     <use xlink:href="#DejaVuSans-45" x="258.345703"/>
     <use xlink:href="#DejaVuSans-53" x="321.529297"/>
     <use xlink:href="#DejaVuSans-2d" x="385.005859"/>
     <use xlink:href="#DejaVuSans-32" x="421.089844"/>
     <use xlink:href="#DejaVuSans-30" x="484.712891"/>
    </g>
   </g>
   <g id="text_14">
    <!-- ddcma1rep -->
    <g transform="translate(386.578944 232.270165)scale(0.14 -0.14)">
     <use xlink:href="#DejaVuSans-64"/>
     <use xlink:href="#DejaVuSans-64" x="63.476562"/>
     <use xlink:href="#DejaVuSans-63" x="126.953125"/>
     <use xlink:href="#DejaVuSans-6d" x="181.933594"/>
     <use xlink:href="#DejaVuSans-61" x="279.345703"/>
     <use xlink:href="#DejaVuSans-31" x="340.625"/>
     <use xlink:href="#DejaVuSans-72" x="404.248047"/>
     <use xlink:href="#DejaVuSans-65" x="443.111328"/>
     <use xlink:href="#DejaVuSans-70" x="504.634766"/>
    </g>
   </g>
   <g id="text_15">
    <!-- cma1rep -->
    <g transform="translate(386.578944 167.159125)scale(0.14 -0.14)">
     <use xlink:href="#DejaVuSans-63"/>
     <use xlink:href="#DejaVuSans-6d" x="54.980469"/>
     <use xlink:href="#DejaVuSans-61" x="152.392578"/>
     <use xlink:href="#DejaVuSans-31" x="213.671875"/>
     <use xlink:href="#DejaVuSans-72" x="277.294922"/>
     <use xlink:href="#DejaVuSans-65" x="316.158203"/>
     <use xlink:href="#DejaVuSans-70" x="377.681641"/>
    </g>
   </g>
   <g id="text_16">
    <!-- cma1-no-s -->
    <g transform="translate(386.578944 102.048085)scale(0.14 -0.14)">
     <use xlink:href="#DejaVuSans-63"/>
     <use xlink:href="#DejaVuSans-6d" x="54.980469"/>
     <use xlink:href="#DejaVuSans-61" x="152.392578"/>
     <use xlink:href="#DejaVuSans-31" x="213.671875"/>
     <use xlink:href="#DejaVuSans-2d" x="277.294922"/>
     <use xlink:href="#DejaVuSans-6e" x="313.378906"/>
     <use xlink:href="#DejaVuSans-6f" x="376.757812"/>
     <use xlink:href="#DejaVuSans-2d" x="439.814453"/>
     <use xlink:href="#DejaVuSans-73" x="475.898438"/>
    </g>
   </g>
   <g id="text_17">
    <!-- best 2009 -->
    <g transform="translate(386.578944 36.937045)scale(0.14 -0.14)">
     <defs>
      <path id="DejaVuSans-62" d="M 3116 1747 
Q 3116 2381 2855 2742 
Q 2594 3103 2138 3103 
Q 1681 3103 1420 2742 
Q 1159 2381 1159 1747 
Q 1159 1113 1420 752 
Q 1681 391 2138 391 
Q 2594 391 2855 752 
Q 3116 1113 3116 1747 
z
M 1159 2969 
Q 1341 3281 1617 3432 
Q 1894 3584 2278 3584 
Q 2916 3584 3314 3078 
Q 3713 2572 3713 1747 
Q 3713 922 3314 415 
Q 2916 -91 2278 -91 
Q 1894 -91 1617 61 
Q 1341 213 1159 525 
L 1159 0 
L 581 0 
L 581 4863 
L 1159 4863 
L 1159 2969 
z
" transform="scale(0.015625)"/>
      <path id="DejaVuSans-39" d="M 703 97 
L 703 672 
Q 941 559 1184 500 
Q 1428 441 1663 441 
Q 2288 441 2617 861 
Q 2947 1281 2994 2138 
Q 2813 1869 2534 1725 
Q 2256 1581 1919 1581 
Q 1219 1581 811 2004 
Q 403 2428 403 3163 
Q 403 3881 828 4315 
Q 1253 4750 1959 4750 
Q 2769 4750 3195 4129 
Q 3622 3509 3622 2328 
Q 3622 1225 3098 567 
Q 2575 -91 1691 -91 
Q 1453 -91 1209 -44 
Q 966 3 703 97 
z
M 1959 2075 
Q 2384 2075 2632 2365 
Q 2881 2656 2881 3163 
Q 2881 3666 2632 3958 
Q 2384 4250 1959 4250 
Q 1534 4250 1286 3958 
Q 1038 3666 1038 3163 
Q 1038 2656 1286 2365 
Q 1534 2075 1959 2075 
z
" transform="scale(0.015625)"/>
     </defs>
     <use xlink:href="#DejaVuSans-62"/>
     <use xlink:href="#DejaVuSans-65" x="63.476562"/>
     <use xlink:href="#DejaVuSans-73" x="125"/>
     <use xlink:href="#DejaVuSans-74" x="177.099609"/>
     <use xlink:href="#DejaVuSans-20" x="216.308594"/>
     <use xlink:href="#DejaVuSans-32" x="248.095703"/>
     <use xlink:href="#DejaVuSans-30" x="311.71875"/>
     <use xlink:href="#DejaVuSans-30" x="375.341797"/>
     <use xlink:href="#DejaVuSans-39" x="438.964844"/>
    </g>
   </g>
   <g id="text_18">
    <!-- bbob f16, 3-D -->
    <g transform="translate(60.632064 38.111366)scale(0.102 -0.102)">
     <defs>
      <path id="DejaVuSans-33" d="M 2597 2516 
Q 3050 2419 3304 2112 
Q 3559 1806 3559 1356 
Q 3559 666 3084 287 
Q 2609 -91 1734 -91 
Q 1441 -91 1130 -33 
Q 819 25 488 141 
L 488 750 
Q 750 597 1062 519 
Q 1375 441 1716 441 
Q 2309 441 2620 675 
Q 2931 909 2931 1356 
Q 2931 1769 2642 2001 
Q 2353 2234 1838 2234 
L 1294 2234 
L 1294 2753 
L 1863 2753 
Q 2328 2753 2575 2939 
Q 2822 3125 2822 3475 
Q 2822 3834 2567 4026 
Q 2313 4219 1838 4219 
Q 1578 4219 1281 4162 
Q 984 4106 628 3988 
L 628 4550 
Q 988 4650 1302 4700 
Q 1616 4750 1894 4750 
Q 2613 4750 3031 4423 
Q 3450 4097 3450 3541 
Q 3450 3153 3228 2886 
Q 3006 2619 2597 2516 
z
" transform="scale(0.015625)"/>
      <path id="DejaVuSans-44" d="M 1259 4147 
L 1259 519 
L 2022 519 
Q 2988 519 3436 956 
Q 3884 1394 3884 2338 
Q 3884 3275 3436 3711 
Q 2988 4147 2022 4147 
L 1259 4147 
z
M 628 4666 
L 1925 4666 
Q 3281 4666 3915 4102 
Q 4550 3538 4550 2338 
Q 4550 1131 3912 565 
Q 3275 0 1925 0 
L 628 0 
L 628 4666 
z
" transform="scale(0.015625)"/>
     </defs>
     <use xlink:href="#DejaVuSans-62"/>
     <use xlink:href="#DejaVuSans-62" x="63.476562"/>
     <use xlink:href="#DejaVuSans-6f" x="126.953125"/>
     <use xlink:href="#DejaVuSans-62" x="188.134766"/>
     <use xlink:href="#DejaVuSans-20" x="251.611328"/>
     <use xlink:href="#DejaVuSans-66" x="283.398438"/>
     <use xlink:href="#DejaVuSans-31" x="318.603516"/>
     <use xlink:href="#DejaVuSans-36" x="382.226562"/>
     <use xlink:href="#DejaVuSans-2c" x="445.849609"/>
     <use xlink:href="#DejaVuSans-20" x="477.636719"/>
     <use xlink:href="#DejaVuSans-33" x="509.423828"/>
     <use xlink:href="#DejaVuSans-2d" x="573.046875"/>
     <use xlink:href="#DejaVuSans-44" x="609.130859"/>
    </g>
    <!-- 51 targets: 100..1e-08 -->
    <g transform="translate(60.632064 49.533135)scale(0.102 -0.102)">
     <defs>
      <path id="DejaVuSans-35" d="M 691 4666 
L 3169 4666 
L 3169 4134 
L 1269 4134 
L 1269 2991 
Q 1406 3038 1543 3061 
Q 1681 3084 1819 3084 
Q 2600 3084 3056 2656 
Q 3513 2228 3513 1497 
Q 3513 744 3044 326 
Q 2575 -91 1722 -91 
Q 1428 -91 1123 -41 
Q 819 9 494 109 
L 494 744 
Q 775 591 1075 516 
Q 1375 441 1709 441 
Q 2250 441 2565 725 
Q 2881 1009 2881 1497 
Q 2881 1984 2565 2268 
Q 2250 2553 1709 2553 
Q 1456 2553 1204 2497 
Q 953 2441 691 2322 
L 691 4666 
z
" transform="scale(0.015625)"/>
      <path id="DejaVuSans-3a" d="M 750 794 
L 1409 794 
L 1409 0 
L 750 0 
L 750 794 
z
M 750 3309 
L 1409 3309 
L 1409 2516 
L 750 2516 
L 750 3309 
z
" transform="scale(0.015625)"/>
     </defs>
     <use xlink:href="#DejaVuSans-35"/>
     <use xlink:href="#DejaVuSans-31" x="63.623047"/>
     <use xlink:href="#DejaVuSans-20" x="127.246094"/>
     <use xlink:href="#DejaVuSans-74" x="159.033203"/>
     <use xlink:href="#DejaVuSans-61" x="198.242188"/>
     <use xlink:href="#DejaVuSans-72" x="259.521484"/>
     <use xlink:href="#DejaVuSans-67" x="298.884766"/>
     <use xlink:href="#DejaVuSans-65" x="362.361328"/>
     <use xlink:href="#DejaVuSans-74" x="423.884766"/>
     <use xlink:href="#DejaVuSans-73" x="463.09375"/>
     <use xlink:href="#DejaVuSans-3a" x="515.193359"/>
     <use xlink:href="#DejaVuSans-20" x="548.884766"/>
     <use xlink:href="#DejaVuSans-31" x="580.671875"/>
     <use xlink:href="#DejaVuSans-30" x="644.294922"/>
     <use xlink:href="#DejaVuSans-30" x="707.917969"/>
     <use xlink:href="#DejaVuSans-2e" x="771.541016"/>
     <use xlink:href="#DejaVuSans-2e" x="803.328125"/>
     <use xlink:href="#DejaVuSans-31" x="835.115234"/>
     <use xlink:href="#DejaVuSans-65" x="898.738281"/>
     <use xlink:href="#DejaVuSans-2d" x="960.261719"/>
     <use xlink:href="#DejaVuSans-30" x="996.345703"/>
     <use xlink:href="#DejaVuSans-38" x="1059.96875"/>
    </g>
    <!-- 15 instances -->
    <g transform="translate(60.632064 60.954904)scale(0.102 -0.102)">
     <use xlink:href="#DejaVuSans-31"/>
     <use xlink:href="#DejaVuSans-35" x="63.623047"/>
     <use xlink:href="#DejaVuSans-20" x="127.246094"/>
     <use xlink:href="#DejaVuSans-69" x="159.033203"/>
     <use xlink:href="#DejaVuSans-6e" x="186.816406"/>
     <use xlink:href="#DejaVuSans-73" x="250.195312"/>
     <use xlink:href="#DejaVuSans-74" x="302.294922"/>
     <use xlink:href="#DejaVuSans-61" x="341.503906"/>
     <use xlink:href="#DejaVuSans-6e" x="402.783203"/>
     <use xlink:href="#DejaVuSans-63" x="466.162109"/>
     <use xlink:href="#DejaVuSans-65" x="521.142578"/>
     <use xlink:href="#DejaVuSans-73" x="582.666016"/>
    </g>
   </g>
   <g id="text_19">
    <!-- v2.6 -->
    <g style="fill: #808080" transform="translate(198.292262 294.151352)scale(0.1 -0.1)">
     <use xlink:href="#DejaVuSans-76"/>
     <use xlink:href="#DejaVuSans-32" x="59.179688"/>
     <use xlink:href="#DejaVuSans-2e" x="122.802734"/>
     <use xlink:href="#DejaVuSans-36" x="154.589844"/>
    </g>
   </g>
   <g id="text_20">
    <!-- 16 Weierstrass -->
    <g transform="translate(135.017262 21.648)scale(0.2 -0.2)">
     <defs>
      <path id="DejaVuSans-57" d="M 213 4666 
L 850 4666 
L 1831 722 
L 2809 4666 
L 3519 4666 
L 4500 722 
L 5478 4666 
L 6119 4666 
L 4947 0 
L 4153 0 
L 3169 4050 
L 2175 0 
L 1381 0 
L 213 4666 
z
" transform="scale(0.015625)"/>
     </defs>
     <use xlink:href="#DejaVuSans-31"/>
     <use xlink:href="#DejaVuSans-36" x="63.623047"/>
     <use xlink:href="#DejaVuSans-20" x="127.246094"/>
     <use xlink:href="#DejaVuSans-57" x="159.033203"/>
     <use xlink:href="#DejaVuSans-65" x="252.035156"/>
     <use xlink:href="#DejaVuSans-69" x="313.558594"/>
     <use xlink:href="#DejaVuSans-65" x="341.341797"/>
     <use xlink:href="#DejaVuSans-72" x="402.865234"/>
     <use xlink:href="#DejaVuSans-73" x="443.978516"/>
     <use xlink:href="#DejaVuSans-74" x="496.078125"/>
     <use xlink:href="#DejaVuSans-72" x="535.287109"/>
     <use xlink:href="#DejaVuSans-61" x="576.400391"/>
     <use xlink:href="#DejaVuSans-73" x="637.679688"/>
     <use xlink:href="#DejaVuSans-73" x="689.779297"/>
    </g>
   </g>
  </g>
 </g>
 <defs>
  <clipPath id="p9472a19e6c">
   <rect x="57.6" y="27.648" width="303.2064" height="271.296"/>
  </clipPath>
 </defs>
</svg>
