<?xml version="1.0" encoding="utf-8" standalone="no"?>
<!DOCTYPE svg PUBLIC "-//W3C//DTD SVG 1.1//EN"
  "http://www.w3.org/Graphics/SVG/1.1/DTD/svg11.dtd">
<svg xmlns:xlink="http://www.w3.org/1999/xlink" width="460.8pt" height="345.6pt" viewBox="0 0 460.8 345.6" xmlns="http://www.w3.org/2000/svg" version="1.1">
 <metadata>
  <rdf:RDF xmlns:dc="http://purl.org/dc/elements/1.1/" xmlns:cc="http://creativecommons.org/ns#" xmlns:rdf="http://www.w3.org/1999/02/22-rdf-syntax-ns#">
   <cc:Work>
    <dc:type rdf:resource="http://purl.org/dc/dcmitype/StillImage"/>
    <dc:date>2022-04-08T18:29:18.606951</dc:date>
    <dc:format>image/svg+xml</dc:format>
    <dc:creator>
     <cc:Agent>
      <dc:title>Matplotlib v3.5.1, https://matplotlib.org/</dc:title>
     </cc:Agent>
    </dc:creator>
   </cc:Work>
  </rdf:RDF>
 </metadata>
 <defs>
  <style type="text/css">*{stroke-linejoin: round; stroke-linecap: butt}</style>
 </defs>
 <g id="figure_1">
  <g id="patch_1">
   <path d="M 0 345.6 
L 460.8 345.6 
L 460.8 0 
L 0 0 
z
" style="fill: #ffffff"/>
  </g>
  <g id="axes_1">
   <g id="patch_2">
    <path d="M 57.6 298.944 
L 360.8064 298.944 
L 360.8064 27.648 
L 57.6 27.648 
z
" style="fill: #ffffff"/>
   </g>
   <g id="line2d_1">
    <path d="M 186.912886 298.944 
L 186.912886 293.624471 
L 213.344651 293.624471 
L 213.344651 288.304941 
L 243.743116 288.304941 
L 243.743116 282.985412 
L 243.775691 282.985412 
L 243.775691 277.665882 
L 253.358902 277.665882 
L 253.358902 272.346353 
L 281.310509 272.346353 
L 281.310509 267.026824 
L 318.82327 267.026824 
L 318.82327 261.707294 
L 322.450012 261.707294 
L 322.450012 256.387765 
L 326.888427 256.387765 
L 326.888427 251.068235 
L 334.380208 251.068235 
L 334.380208 245.748706 
L 334.382877 245.748706 
L 334.382877 240.429176 
L 334.386404 240.429176 
L 334.386404 235.109647 
L 342.323187 235.109647 
L 342.323187 229.790118 
L 342.324766 229.790118 
L 342.324766 224.470588 
L 342.327831 224.470588 
L 342.327831 219.151059 
L 355.404622 219.151059 
L 355.404622 213.831529 
L 355.405626 213.831529 
L 355.405626 208.512 
L 355.406059 208.512 
L 355.406059 203.192471 
L 355.406838 203.192471 
L 355.406838 197.872941 
L 355.407547 197.872941 
L 355.407547 192.553412 
L 355.407938 192.553412 
L 355.407938 187.233882 
L 355.408416 187.233882 
L 355.408416 181.914353 
L 355.409092 181.914353 
L 355.409092 176.594824 
L 355.409557 176.594824 
L 355.409557 171.275294 
L 355.409871 171.275294 
L 355.409871 165.955765 
L 355.410688 165.955765 
L 355.410688 160.636235 
L 355.411073 160.636235 
L 355.411073 155.316706 
L 355.411833 155.316706 
L 355.411833 149.997176 
L 355.412299 149.997176 
L 355.412299 144.677647 
L 355.412604 144.677647 
L 355.412604 139.358118 
L 355.413553 139.358118 
L 355.413553 134.038588 
L 355.414107 134.038588 
L 355.414107 128.719059 
L 355.414257 128.719059 
L 355.414257 123.399529 
L 355.414997 123.399529 
L 355.414997 118.08 
L 355.415657 118.08 
L 355.415657 112.760471 
L 355.416187 112.760471 
L 355.416187 107.440941 
L 355.416876 107.440941 
L 355.416876 102.121412 
L 355.417181 102.121412 
L 355.417181 96.801882 
L 355.417922 96.801882 
L 355.417922 91.482353 
L 355.418404 91.482353 
L 355.418404 86.162824 
L 355.419037 86.162824 
L 355.419037 80.843294 
L 355.419536 80.843294 
L 355.419536 75.523765 
L 355.42029 75.523765 
L 355.42029 70.204235 
L 355.420498 70.204235 
L 355.420498 64.884706 
L 355.421217 64.884706 
L 355.421217 59.565176 
L 355.421853 59.565176 
L 355.421853 54.245647 
L 355.422255 54.245647 
L 355.422255 48.926118 
L 355.422795 48.926118 
L 355.422795 43.606588 
L 355.423407 43.606588 
L 355.423407 38.287059 
L 355.424129 38.287059 
L 355.424129 32.967529 
L 355.424599 32.967529 
L 355.424599 27.648 
L 360.8064 27.648 
" style="fill: none; stroke: #f5deb3; stroke-width: 4; stroke-linecap: square"/>
   </g>
   <g id="line2d_2">
    <defs>
     <path id="m35cf01268a" d="M -0 7.778175 
L 7.778175 0 
L 0 -7.778175 
L -7.778175 -0 
z
" style="stroke: #f5deb3; stroke-width: 1.5; stroke-linejoin: miter"/>
    </defs>
    <g>
     <use xlink:href="#m35cf01268a" x="322.450012" y="256.387765" style="fill: #f5deb3; stroke: #f5deb3; stroke-width: 1.5; stroke-linejoin: miter"/>
     <use xlink:href="#m35cf01268a" x="355.416187" y="107.440941" style="fill: #f5deb3; stroke: #f5deb3; stroke-width: 1.5; stroke-linejoin: miter"/>
     <use xlink:href="#m35cf01268a" x="355.424599" y="27.648" style="fill: #f5deb3; stroke: #f5deb3; stroke-width: 1.5; stroke-linejoin: miter"/>
     <use xlink:href="#m35cf01268a" x="360.8064" y="27.648" style="fill: #f5deb3; stroke: #f5deb3; stroke-width: 1.5; stroke-linejoin: miter"/>
    </g>
   </g>
   <g id="line2d_3">
    <path style="fill: none; stroke: #f5deb3; stroke-width: 4; stroke-linecap: square"/>
    <g/>
   </g>
   <g id="line2d_4">
    <path d="M 360.8064 27.648 
L 380.514816 33.07392 
" style="fill: none; stroke: #f5deb3; stroke-width: 4; stroke-linecap: square"/>
    <g>
     <use xlink:href="#m35cf01268a" x="360.8064" y="27.648" style="fill: #f5deb3; stroke: #f5deb3; stroke-width: 1.5; stroke-linejoin: miter"/>
     <use xlink:href="#m35cf01268a" x="380.514816" y="33.07392" style="fill: #f5deb3; stroke: #f5deb3; stroke-width: 1.5; stroke-linejoin: miter"/>
    </g>
   </g>
   <g id="matplotlib.axis_1">
    <g id="xtick_1">
     <g id="line2d_5">
      <path d="M 57.6 298.944 
L 57.6 27.648 
" clip-path="url(#p06a4fdf27e)" style="fill: none; stroke: #b0b0b0; stroke-width: 0.8; stroke-linecap: square"/>
     </g>
     <g id="line2d_6">
      <defs>
       <path id="mb1793b4ae5" d="M 0 0 
L 0 3.5 
" style="stroke: #000000; stroke-width: 0.8"/>
      </defs>
      <g>
       <use xlink:href="#mb1793b4ae5" x="57.6" y="298.944" style="stroke: #000000; stroke-width: 0.8"/>
      </g>
     </g>
     <g id="text_1">
      <!-- 0 -->
      <g transform="translate(52.191875 318.861344)scale(0.17 -0.17)">
       <defs>
        <path id="DejaVuSans-30" d="M 2034 4250 
Q 1547 4250 1301 3770 
Q 1056 3291 1056 2328 
Q 1056 1369 1301 889 
Q 1547 409 2034 409 
Q 2525 409 2770 889 
Q 3016 1369 3016 2328 
Q 3016 3291 2770 3770 
Q 2525 4250 2034 4250 
z
M 2034 4750 
Q 2819 4750 3233 4129 
Q 3647 3509 3647 2328 
Q 3647 1150 3233 529 
Q 2819 -91 2034 -91 
Q 1250 -91 836 529 
Q 422 1150 422 2328 
Q 422 3509 836 4129 
Q 1250 4750 2034 4750 
z
" transform="scale(0.015625)"/>
       </defs>
       <use xlink:href="#DejaVuSans-30"/>
      </g>
     </g>
    </g>
    <g id="xtick_2">
     <g id="line2d_7">
      <path d="M 144.2304 298.944 
L 144.2304 27.648 
" clip-path="url(#p06a4fdf27e)" style="fill: none; stroke: #b0b0b0; stroke-width: 0.8; stroke-linecap: square"/>
     </g>
     <g id="line2d_8">
      <g>
       <use xlink:href="#mb1793b4ae5" x="144.2304" y="298.944" style="stroke: #000000; stroke-width: 0.8"/>
      </g>
     </g>
     <g id="text_2">
      <!-- 2 -->
      <g transform="translate(138.822275 318.861344)scale(0.17 -0.17)">
       <defs>
        <path id="DejaVuSans-32" d="M 1228 531 
L 3431 531 
L 3431 0 
L 469 0 
L 469 531 
Q 828 903 1448 1529 
Q 2069 2156 2228 2338 
Q 2531 2678 2651 2914 
Q 2772 3150 2772 3378 
Q 2772 3750 2511 3984 
Q 2250 4219 1831 4219 
Q 1534 4219 1204 4116 
Q 875 4013 500 3803 
L 500 4441 
Q 881 4594 1212 4672 
Q 1544 4750 1819 4750 
Q 2544 4750 2975 4387 
Q 3406 4025 3406 3419 
Q 3406 3131 3298 2873 
Q 3191 2616 2906 2266 
Q 2828 2175 2409 1742 
Q 1991 1309 1228 531 
z
" transform="scale(0.015625)"/>
       </defs>
       <use xlink:href="#DejaVuSans-32"/>
      </g>
     </g>
    </g>
    <g id="xtick_3">
     <g id="line2d_9">
      <path d="M 230.8608 298.944 
L 230.8608 27.648 
" clip-path="url(#p06a4fdf27e)" style="fill: none; stroke: #b0b0b0; stroke-width: 0.8; stroke-linecap: square"/>
     </g>
     <g id="line2d_10">
      <g>
       <use xlink:href="#mb1793b4ae5" x="230.8608" y="298.944" style="stroke: #000000; stroke-width: 0.8"/>
      </g>
     </g>
     <g id="text_3">
      <!-- 4 -->
      <g transform="translate(225.452675 318.861344)scale(0.17 -0.17)">
       <defs>
        <path id="DejaVuSans-34" d="M 2419 4116 
L 825 1625 
L 2419 1625 
L 2419 4116 
z
M 2253 4666 
L 3047 4666 
L 3047 1625 
L 3713 1625 
L 3713 1100 
L 3047 1100 
L 3047 0 
L 2419 0 
L 2419 1100 
L 313 1100 
L 313 1709 
L 2253 4666 
z
" transform="scale(0.015625)"/>
       </defs>
       <use xlink:href="#DejaVuSans-34"/>
      </g>
     </g>
    </g>
    <g id="xtick_4">
     <g id="line2d_11">
      <path d="M 317.4912 298.944 
L 317.4912 27.648 
" clip-path="url(#p06a4fdf27e)" style="fill: none; stroke: #b0b0b0; stroke-width: 0.8; stroke-linecap: square"/>
     </g>
     <g id="line2d_12">
      <g>
       <use xlink:href="#mb1793b4ae5" x="317.4912" y="298.944" style="stroke: #000000; stroke-width: 0.8"/>
      </g>
     </g>
     <g id="text_4">
      <!-- 6 -->
      <g transform="translate(312.083075 318.861344)scale(0.17 -0.17)">
       <defs>
        <path id="DejaVuSans-36" d="M 2113 2584 
Q 1688 2584 1439 2293 
Q 1191 2003 1191 1497 
Q 1191 994 1439 701 
Q 1688 409 2113 409 
Q 2538 409 2786 701 
Q 3034 994 3034 1497 
Q 3034 2003 2786 2293 
Q 2538 2584 2113 2584 
z
M 3366 4563 
L 3366 3988 
Q 3128 4100 2886 4159 
Q 2644 4219 2406 4219 
Q 1781 4219 1451 3797 
Q 1122 3375 1075 2522 
Q 1259 2794 1537 2939 
Q 1816 3084 2150 3084 
Q 2853 3084 3261 2657 
Q 3669 2231 3669 1497 
Q 3669 778 3244 343 
Q 2819 -91 2113 -91 
Q 1303 -91 875 529 
Q 447 1150 447 2328 
Q 447 3434 972 4092 
Q 1497 4750 2381 4750 
Q 2619 4750 2861 4703 
Q 3103 4656 3366 4563 
z
" transform="scale(0.015625)"/>
       </defs>
       <use xlink:href="#DejaVuSans-36"/>
      </g>
     </g>
    </g>
    <g id="xtick_5">
     <g id="line2d_13">
      <path d="M 100.9152 298.944 
L 100.9152 27.648 
" clip-path="url(#p06a4fdf27e)" style="fill: none; stroke: #b0b0b0; stroke-width: 0.8; stroke-linecap: square"/>
     </g>
     <g id="line2d_14">
      <defs>
       <path id="m8242a3696a" d="M 0 0 
L 0 2 
" style="stroke: #000000; stroke-width: 0.6"/>
      </defs>
      <g>
       <use xlink:href="#m8242a3696a" x="100.9152" y="298.944" style="stroke: #000000; stroke-width: 0.6"/>
      </g>
     </g>
    </g>
    <g id="xtick_6">
     <g id="line2d_15">
      <path d="M 187.5456 298.944 
L 187.5456 27.648 
" clip-path="url(#p06a4fdf27e)" style="fill: none; stroke: #b0b0b0; stroke-width: 0.8; stroke-linecap: square"/>
     </g>
     <g id="line2d_16">
      <g>
       <use xlink:href="#m8242a3696a" x="187.5456" y="298.944" style="stroke: #000000; stroke-width: 0.6"/>
      </g>
     </g>
    </g>
    <g id="xtick_7">
     <g id="line2d_17">
      <path d="M 274.176 298.944 
L 274.176 27.648 
" clip-path="url(#p06a4fdf27e)" style="fill: none; stroke: #b0b0b0; stroke-width: 0.8; stroke-linecap: square"/>
     </g>
     <g id="line2d_18">
      <g>
       <use xlink:href="#m8242a3696a" x="274.176" y="298.944" style="stroke: #000000; stroke-width: 0.6"/>
      </g>
     </g>
    </g>
    <g id="xtick_8">
     <g id="line2d_19">
      <path d="M 360.8064 298.944 
L 360.8064 27.648 
" clip-path="url(#p06a4fdf27e)" style="fill: none; stroke: #b0b0b0; stroke-width: 0.8; stroke-linecap: square"/>
     </g>
     <g id="line2d_20">
      <g>
       <use xlink:href="#m8242a3696a" x="360.8064" y="298.944" style="stroke: #000000; stroke-width: 0.6"/>
      </g>
     </g>
    </g>
    <g id="text_5">
     <!-- log10(# f-evals / dimension) -->
     <g transform="translate(88.823278 339.314156)scale(0.17 -0.17)">
      <defs>
       <path id="DejaVuSans-6c" d="M 603 4863 
L 1178 4863 
L 1178 0 
L 603 0 
L 603 4863 
z
" transform="scale(0.015625)"/>
       <path id="DejaVuSans-6f" d="M 1959 3097 
Q 1497 3097 1228 2736 
Q 959 2375 959 1747 
Q 959 1119 1226 758 
Q 1494 397 1959 397 
Q 2419 397 2687 759 
Q 2956 1122 2956 1747 
Q 2956 2369 2687 2733 
Q 2419 3097 1959 3097 
z
M 1959 3584 
Q 2709 3584 3137 3096 
Q 3566 2609 3566 1747 
Q 3566 888 3137 398 
Q 2709 -91 1959 -91 
Q 1206 -91 779 398 
Q 353 888 353 1747 
Q 353 2609 779 3096 
Q 1206 3584 1959 3584 
z
" transform="scale(0.015625)"/>
       <path id="DejaVuSans-67" d="M 2906 1791 
Q 2906 2416 2648 2759 
Q 2391 3103 1925 3103 
Q 1463 3103 1205 2759 
Q 947 2416 947 1791 
Q 947 1169 1205 825 
Q 1463 481 1925 481 
Q 2391 481 2648 825 
Q 2906 1169 2906 1791 
z
M 3481 434 
Q 3481 -459 3084 -895 
Q 2688 -1331 1869 -1331 
Q 1566 -1331 1297 -1286 
Q 1028 -1241 775 -1147 
L 775 -588 
Q 1028 -725 1275 -790 
Q 1522 -856 1778 -856 
Q 2344 -856 2625 -561 
Q 2906 -266 2906 331 
L 2906 616 
Q 2728 306 2450 153 
Q 2172 0 1784 0 
Q 1141 0 747 490 
Q 353 981 353 1791 
Q 353 2603 747 3093 
Q 1141 3584 1784 3584 
Q 2172 3584 2450 3431 
Q 2728 3278 2906 2969 
L 2906 3500 
L 3481 3500 
L 3481 434 
z
" transform="scale(0.015625)"/>
       <path id="DejaVuSans-31" d="M 794 531 
L 1825 531 
L 1825 4091 
L 703 3866 
L 703 4441 
L 1819 4666 
L 2450 4666 
L 2450 531 
L 3481 531 
L 3481 0 
L 794 0 
L 794 531 
z
" transform="scale(0.015625)"/>
       <path id="DejaVuSans-28" d="M 1984 4856 
Q 1566 4138 1362 3434 
Q 1159 2731 1159 2009 
Q 1159 1288 1364 580 
Q 1569 -128 1984 -844 
L 1484 -844 
Q 1016 -109 783 600 
Q 550 1309 550 2009 
Q 550 2706 781 3412 
Q 1013 4119 1484 4856 
L 1984 4856 
z
" transform="scale(0.015625)"/>
       <path id="DejaVuSans-23" d="M 3272 2816 
L 2363 2816 
L 2100 1772 
L 3016 1772 
L 3272 2816 
z
M 2803 4594 
L 2478 3297 
L 3391 3297 
L 3719 4594 
L 4219 4594 
L 3897 3297 
L 4872 3297 
L 4872 2816 
L 3775 2816 
L 3519 1772 
L 4513 1772 
L 4513 1294 
L 3397 1294 
L 3072 0 
L 2572 0 
L 2894 1294 
L 1978 1294 
L 1656 0 
L 1153 0 
L 1478 1294 
L 494 1294 
L 494 1772 
L 1594 1772 
L 1856 2816 
L 850 2816 
L 850 3297 
L 1978 3297 
L 2297 4594 
L 2803 4594 
z
" transform="scale(0.015625)"/>
       <path id="DejaVuSans-20" transform="scale(0.015625)"/>
       <path id="DejaVuSans-66" d="M 2375 4863 
L 2375 4384 
L 1825 4384 
Q 1516 4384 1395 4259 
Q 1275 4134 1275 3809 
L 1275 3500 
L 2222 3500 
L 2222 3053 
L 1275 3053 
L 1275 0 
L 697 0 
L 697 3053 
L 147 3053 
L 147 3500 
L 697 3500 
L 697 3744 
Q 697 4328 969 4595 
Q 1241 4863 1831 4863 
L 2375 4863 
z
" transform="scale(0.015625)"/>
       <path id="DejaVuSans-2d" d="M 313 2009 
L 1997 2009 
L 1997 1497 
L 313 1497 
L 313 2009 
z
" transform="scale(0.015625)"/>
       <path id="DejaVuSans-65" d="M 3597 1894 
L 3597 1613 
L 953 1613 
Q 991 1019 1311 708 
Q 1631 397 2203 397 
Q 2534 397 2845 478 
Q 3156 559 3463 722 
L 3463 178 
Q 3153 47 2828 -22 
Q 2503 -91 2169 -91 
Q 1331 -91 842 396 
Q 353 884 353 1716 
Q 353 2575 817 3079 
Q 1281 3584 2069 3584 
Q 2775 3584 3186 3129 
Q 3597 2675 3597 1894 
z
M 3022 2063 
Q 3016 2534 2758 2815 
Q 2500 3097 2075 3097 
Q 1594 3097 1305 2825 
Q 1016 2553 972 2059 
L 3022 2063 
z
" transform="scale(0.015625)"/>
       <path id="DejaVuSans-76" d="M 191 3500 
L 800 3500 
L 1894 563 
L 2988 3500 
L 3597 3500 
L 2284 0 
L 1503 0 
L 191 3500 
z
" transform="scale(0.015625)"/>
       <path id="DejaVuSans-61" d="M 2194 1759 
Q 1497 1759 1228 1600 
Q 959 1441 959 1056 
Q 959 750 1161 570 
Q 1363 391 1709 391 
Q 2188 391 2477 730 
Q 2766 1069 2766 1631 
L 2766 1759 
L 2194 1759 
z
M 3341 1997 
L 3341 0 
L 2766 0 
L 2766 531 
Q 2569 213 2275 61 
Q 1981 -91 1556 -91 
Q 1019 -91 701 211 
Q 384 513 384 1019 
Q 384 1609 779 1909 
Q 1175 2209 1959 2209 
L 2766 2209 
L 2766 2266 
Q 2766 2663 2505 2880 
Q 2244 3097 1772 3097 
Q 1472 3097 1187 3025 
Q 903 2953 641 2809 
L 641 3341 
Q 956 3463 1253 3523 
Q 1550 3584 1831 3584 
Q 2591 3584 2966 3190 
Q 3341 2797 3341 1997 
z
" transform="scale(0.015625)"/>
       <path id="DejaVuSans-73" d="M 2834 3397 
L 2834 2853 
Q 2591 2978 2328 3040 
Q 2066 3103 1784 3103 
Q 1356 3103 1142 2972 
Q 928 2841 928 2578 
Q 928 2378 1081 2264 
Q 1234 2150 1697 2047 
L 1894 2003 
Q 2506 1872 2764 1633 
Q 3022 1394 3022 966 
Q 3022 478 2636 193 
Q 2250 -91 1575 -91 
Q 1294 -91 989 -36 
Q 684 19 347 128 
L 347 722 
Q 666 556 975 473 
Q 1284 391 1588 391 
Q 1994 391 2212 530 
Q 2431 669 2431 922 
Q 2431 1156 2273 1281 
Q 2116 1406 1581 1522 
L 1381 1569 
Q 847 1681 609 1914 
Q 372 2147 372 2553 
Q 372 3047 722 3315 
Q 1072 3584 1716 3584 
Q 2034 3584 2315 3537 
Q 2597 3491 2834 3397 
z
" transform="scale(0.015625)"/>
       <path id="DejaVuSans-2f" d="M 1625 4666 
L 2156 4666 
L 531 -594 
L 0 -594 
L 1625 4666 
z
" transform="scale(0.015625)"/>
       <path id="DejaVuSans-64" d="M 2906 2969 
L 2906 4863 
L 3481 4863 
L 3481 0 
L 2906 0 
L 2906 525 
Q 2725 213 2448 61 
Q 2172 -91 1784 -91 
Q 1150 -91 751 415 
Q 353 922 353 1747 
Q 353 2572 751 3078 
Q 1150 3584 1784 3584 
Q 2172 3584 2448 3432 
Q 2725 3281 2906 2969 
z
M 947 1747 
Q 947 1113 1208 752 
Q 1469 391 1925 391 
Q 2381 391 2643 752 
Q 2906 1113 2906 1747 
Q 2906 2381 2643 2742 
Q 2381 3103 1925 3103 
Q 1469 3103 1208 2742 
Q 947 2381 947 1747 
z
" transform="scale(0.015625)"/>
       <path id="DejaVuSans-69" d="M 603 3500 
L 1178 3500 
L 1178 0 
L 603 0 
L 603 3500 
z
M 603 4863 
L 1178 4863 
L 1178 4134 
L 603 4134 
L 603 4863 
z
" transform="scale(0.015625)"/>
       <path id="DejaVuSans-6d" d="M 3328 2828 
Q 3544 3216 3844 3400 
Q 4144 3584 4550 3584 
Q 5097 3584 5394 3201 
Q 5691 2819 5691 2113 
L 5691 0 
L 5113 0 
L 5113 2094 
Q 5113 2597 4934 2840 
Q 4756 3084 4391 3084 
Q 3944 3084 3684 2787 
Q 3425 2491 3425 1978 
L 3425 0 
L 2847 0 
L 2847 2094 
Q 2847 2600 2669 2842 
Q 2491 3084 2119 3084 
Q 1678 3084 1418 2786 
Q 1159 2488 1159 1978 
L 1159 0 
L 581 0 
L 581 3500 
L 1159 3500 
L 1159 2956 
Q 1356 3278 1631 3431 
Q 1906 3584 2284 3584 
Q 2666 3584 2933 3390 
Q 3200 3197 3328 2828 
z
" transform="scale(0.015625)"/>
       <path id="DejaVuSans-6e" d="M 3513 2113 
L 3513 0 
L 2938 0 
L 2938 2094 
Q 2938 2591 2744 2837 
Q 2550 3084 2163 3084 
Q 1697 3084 1428 2787 
Q 1159 2491 1159 1978 
L 1159 0 
L 581 0 
L 581 3500 
L 1159 3500 
L 1159 2956 
Q 1366 3272 1645 3428 
Q 1925 3584 2291 3584 
Q 2894 3584 3203 3211 
Q 3513 2838 3513 2113 
z
" transform="scale(0.015625)"/>
       <path id="DejaVuSans-29" d="M 513 4856 
L 1013 4856 
Q 1481 4119 1714 3412 
Q 1947 2706 1947 2009 
Q 1947 1309 1714 600 
Q 1481 -109 1013 -844 
L 513 -844 
Q 928 -128 1133 580 
Q 1338 1288 1338 2009 
Q 1338 2731 1133 3434 
Q 928 4138 513 4856 
z
" transform="scale(0.015625)"/>
      </defs>
      <use xlink:href="#DejaVuSans-6c"/>
      <use xlink:href="#DejaVuSans-6f" x="27.783203"/>
      <use xlink:href="#DejaVuSans-67" x="88.964844"/>
      <use xlink:href="#DejaVuSans-31" x="152.441406"/>
      <use xlink:href="#DejaVuSans-30" x="216.064453"/>
      <use xlink:href="#DejaVuSans-28" x="279.6875"/>
      <use xlink:href="#DejaVuSans-23" x="318.701172"/>
      <use xlink:href="#DejaVuSans-20" x="402.490234"/>
      <use xlink:href="#DejaVuSans-66" x="434.277344"/>
      <use xlink:href="#DejaVuSans-2d" x="463.982422"/>
      <use xlink:href="#DejaVuSans-65" x="500.066406"/>
      <use xlink:href="#DejaVuSans-76" x="561.589844"/>
      <use xlink:href="#DejaVuSans-61" x="620.769531"/>
      <use xlink:href="#DejaVuSans-6c" x="682.048828"/>
      <use xlink:href="#DejaVuSans-73" x="709.832031"/>
      <use xlink:href="#DejaVuSans-20" x="761.931641"/>
      <use xlink:href="#DejaVuSans-2f" x="793.71875"/>
      <use xlink:href="#DejaVuSans-20" x="827.410156"/>
      <use xlink:href="#DejaVuSans-64" x="859.197266"/>
      <use xlink:href="#DejaVuSans-69" x="922.673828"/>
      <use xlink:href="#DejaVuSans-6d" x="950.457031"/>
      <use xlink:href="#DejaVuSans-65" x="1047.869141"/>
      <use xlink:href="#DejaVuSans-6e" x="1109.392578"/>
      <use xlink:href="#DejaVuSans-73" x="1172.771484"/>
      <use xlink:href="#DejaVuSans-69" x="1224.871094"/>
      <use xlink:href="#DejaVuSans-6f" x="1252.654297"/>
      <use xlink:href="#DejaVuSans-6e" x="1313.835938"/>
      <use xlink:href="#DejaVuSans-29" x="1377.214844"/>
     </g>
    </g>
   </g>
   <g id="matplotlib.axis_2">
    <g id="ytick_1">
     <g id="line2d_21">
      <path d="M 57.6 298.944 
L 360.8064 298.944 
" clip-path="url(#p06a4fdf27e)" style="fill: none; stroke: #b0b0b0; stroke-width: 0.8; stroke-linecap: square"/>
     </g>
     <g id="line2d_22">
      <defs>
       <path id="m768149067d" d="M 0 0 
L -3.5 0 
" style="stroke: #000000; stroke-width: 0.8"/>
      </defs>
      <g>
       <use xlink:href="#m768149067d" x="57.6" y="298.944" style="stroke: #000000; stroke-width: 0.8"/>
      </g>
     </g>
     <g id="text_6">
      <!-- 0.0 -->
      <g transform="translate(25.155 305.02275)scale(0.16 -0.16)">
       <defs>
        <path id="DejaVuSans-2e" d="M 684 794 
L 1344 794 
L 1344 0 
L 684 0 
L 684 794 
z
" transform="scale(0.015625)"/>
       </defs>
       <use xlink:href="#DejaVuSans-30"/>
       <use xlink:href="#DejaVuSans-2e" x="63.623047"/>
       <use xlink:href="#DejaVuSans-30" x="95.410156"/>
      </g>
     </g>
    </g>
    <g id="ytick_2">
     <g id="line2d_23">
      <path d="M 57.6 244.6848 
L 360.8064 244.6848 
" clip-path="url(#p06a4fdf27e)" style="fill: none; stroke: #b0b0b0; stroke-width: 0.8; stroke-linecap: square"/>
     </g>
     <g id="line2d_24">
      <g>
       <use xlink:href="#m768149067d" x="57.6" y="244.6848" style="stroke: #000000; stroke-width: 0.8"/>
      </g>
     </g>
     <g id="text_7">
      <!-- 0.2 -->
      <g transform="translate(25.155 250.76355)scale(0.16 -0.16)">
       <use xlink:href="#DejaVuSans-30"/>
       <use xlink:href="#DejaVuSans-2e" x="63.623047"/>
       <use xlink:href="#DejaVuSans-32" x="95.410156"/>
      </g>
     </g>
    </g>
    <g id="ytick_3">
     <g id="line2d_25">
      <path d="M 57.6 190.4256 
L 360.8064 190.4256 
" clip-path="url(#p06a4fdf27e)" style="fill: none; stroke: #b0b0b0; stroke-width: 0.8; stroke-linecap: square"/>
     </g>
     <g id="line2d_26">
      <g>
       <use xlink:href="#m768149067d" x="57.6" y="190.4256" style="stroke: #000000; stroke-width: 0.8"/>
      </g>
     </g>
     <g id="text_8">
      <!-- 0.4 -->
      <g transform="translate(25.155 196.50435)scale(0.16 -0.16)">
       <use xlink:href="#DejaVuSans-30"/>
       <use xlink:href="#DejaVuSans-2e" x="63.623047"/>
       <use xlink:href="#DejaVuSans-34" x="95.410156"/>
      </g>
     </g>
    </g>
    <g id="ytick_4">
     <g id="line2d_27">
      <path d="M 57.6 136.1664 
L 360.8064 136.1664 
" clip-path="url(#p06a4fdf27e)" style="fill: none; stroke: #b0b0b0; stroke-width: 0.8; stroke-linecap: square"/>
     </g>
     <g id="line2d_28">
      <g>
       <use xlink:href="#m768149067d" x="57.6" y="136.1664" style="stroke: #000000; stroke-width: 0.8"/>
      </g>
     </g>
     <g id="text_9">
      <!-- 0.6 -->
      <g transform="translate(25.155 142.24515)scale(0.16 -0.16)">
       <use xlink:href="#DejaVuSans-30"/>
       <use xlink:href="#DejaVuSans-2e" x="63.623047"/>
       <use xlink:href="#DejaVuSans-36" x="95.410156"/>
      </g>
     </g>
    </g>
    <g id="ytick_5">
     <g id="line2d_29">
      <path d="M 57.6 81.9072 
L 360.8064 81.9072 
" clip-path="url(#p06a4fdf27e)" style="fill: none; stroke: #b0b0b0; stroke-width: 0.8; stroke-linecap: square"/>
     </g>
     <g id="line2d_30">
      <g>
       <use xlink:href="#m768149067d" x="57.6" y="81.9072" style="stroke: #000000; stroke-width: 0.8"/>
      </g>
     </g>
     <g id="text_10">
      <!-- 0.8 -->
      <g transform="translate(25.155 87.98595)scale(0.16 -0.16)">
       <defs>
        <path id="DejaVuSans-38" d="M 2034 2216 
Q 1584 2216 1326 1975 
Q 1069 1734 1069 1313 
Q 1069 891 1326 650 
Q 1584 409 2034 409 
Q 2484 409 2743 651 
Q 3003 894 3003 1313 
Q 3003 1734 2745 1975 
Q 2488 2216 2034 2216 
z
M 1403 2484 
Q 997 2584 770 2862 
Q 544 3141 544 3541 
Q 544 4100 942 4425 
Q 1341 4750 2034 4750 
Q 2731 4750 3128 4425 
Q 3525 4100 3525 3541 
Q 3525 3141 3298 2862 
Q 3072 2584 2669 2484 
Q 3125 2378 3379 2068 
Q 3634 1759 3634 1313 
Q 3634 634 3220 271 
Q 2806 -91 2034 -91 
Q 1263 -91 848 271 
Q 434 634 434 1313 
Q 434 1759 690 2068 
Q 947 2378 1403 2484 
z
M 1172 3481 
Q 1172 3119 1398 2916 
Q 1625 2713 2034 2713 
Q 2441 2713 2670 2916 
Q 2900 3119 2900 3481 
Q 2900 3844 2670 4047 
Q 2441 4250 2034 4250 
Q 1625 4250 1398 4047 
Q 1172 3844 1172 3481 
z
" transform="scale(0.015625)"/>
       </defs>
       <use xlink:href="#DejaVuSans-30"/>
       <use xlink:href="#DejaVuSans-2e" x="63.623047"/>
       <use xlink:href="#DejaVuSans-38" x="95.410156"/>
      </g>
     </g>
    </g>
    <g id="ytick_6">
     <g id="line2d_31">
      <path d="M 57.6 27.648 
L 360.8064 27.648 
" clip-path="url(#p06a4fdf27e)" style="fill: none; stroke: #b0b0b0; stroke-width: 0.8; stroke-linecap: square"/>
     </g>
     <g id="line2d_32">
      <g>
       <use xlink:href="#m768149067d" x="57.6" y="27.648" style="stroke: #000000; stroke-width: 0.8"/>
      </g>
     </g>
     <g id="text_11">
      <!-- 1.0 -->
      <g transform="translate(25.155 33.72675)scale(0.16 -0.16)">
       <use xlink:href="#DejaVuSans-31"/>
       <use xlink:href="#DejaVuSans-2e" x="63.623047"/>
       <use xlink:href="#DejaVuSans-30" x="95.410156"/>
      </g>
     </g>
    </g>
    <g id="text_12">
     <!-- Fraction of function,target pairs -->
     <g transform="translate(17.619531 297.681)rotate(-90)scale(0.17 -0.17)">
      <defs>
       <path id="DejaVuSans-46" d="M 628 4666 
L 3309 4666 
L 3309 4134 
L 1259 4134 
L 1259 2759 
L 3109 2759 
L 3109 2228 
L 1259 2228 
L 1259 0 
L 628 0 
L 628 4666 
z
" transform="scale(0.015625)"/>
       <path id="DejaVuSans-72" d="M 2631 2963 
Q 2534 3019 2420 3045 
Q 2306 3072 2169 3072 
Q 1681 3072 1420 2755 
Q 1159 2438 1159 1844 
L 1159 0 
L 581 0 
L 581 3500 
L 1159 3500 
L 1159 2956 
Q 1341 3275 1631 3429 
Q 1922 3584 2338 3584 
Q 2397 3584 2469 3576 
Q 2541 3569 2628 3553 
L 2631 2963 
z
" transform="scale(0.015625)"/>
       <path id="DejaVuSans-63" d="M 3122 3366 
L 3122 2828 
Q 2878 2963 2633 3030 
Q 2388 3097 2138 3097 
Q 1578 3097 1268 2742 
Q 959 2388 959 1747 
Q 959 1106 1268 751 
Q 1578 397 2138 397 
Q 2388 397 2633 464 
Q 2878 531 3122 666 
L 3122 134 
Q 2881 22 2623 -34 
Q 2366 -91 2075 -91 
Q 1284 -91 818 406 
Q 353 903 353 1747 
Q 353 2603 823 3093 
Q 1294 3584 2113 3584 
Q 2378 3584 2631 3529 
Q 2884 3475 3122 3366 
z
" transform="scale(0.015625)"/>
       <path id="DejaVuSans-74" d="M 1172 4494 
L 1172 3500 
L 2356 3500 
L 2356 3053 
L 1172 3053 
L 1172 1153 
Q 1172 725 1289 603 
Q 1406 481 1766 481 
L 2356 481 
L 2356 0 
L 1766 0 
Q 1100 0 847 248 
Q 594 497 594 1153 
L 594 3053 
L 172 3053 
L 172 3500 
L 594 3500 
L 594 4494 
L 1172 4494 
z
" transform="scale(0.015625)"/>
       <path id="DejaVuSans-75" d="M 544 1381 
L 544 3500 
L 1119 3500 
L 1119 1403 
Q 1119 906 1312 657 
Q 1506 409 1894 409 
Q 2359 409 2629 706 
Q 2900 1003 2900 1516 
L 2900 3500 
L 3475 3500 
L 3475 0 
L 2900 0 
L 2900 538 
Q 2691 219 2414 64 
Q 2138 -91 1772 -91 
Q 1169 -91 856 284 
Q 544 659 544 1381 
z
M 1991 3584 
L 1991 3584 
z
" transform="scale(0.015625)"/>
       <path id="DejaVuSans-2c" d="M 750 794 
L 1409 794 
L 1409 256 
L 897 -744 
L 494 -744 
L 750 256 
L 750 794 
z
" transform="scale(0.015625)"/>
       <path id="DejaVuSans-70" d="M 1159 525 
L 1159 -1331 
L 581 -1331 
L 581 3500 
L 1159 3500 
L 1159 2969 
Q 1341 3281 1617 3432 
Q 1894 3584 2278 3584 
Q 2916 3584 3314 3078 
Q 3713 2572 3713 1747 
Q 3713 922 3314 415 
Q 2916 -91 2278 -91 
Q 1894 -91 1617 61 
Q 1341 213 1159 525 
z
M 3116 1747 
Q 3116 2381 2855 2742 
Q 2594 3103 2138 3103 
Q 1681 3103 1420 2742 
Q 1159 2381 1159 1747 
Q 1159 1113 1420 752 
Q 1681 391 2138 391 
Q 2594 391 2855 752 
Q 3116 1113 3116 1747 
z
" transform="scale(0.015625)"/>
      </defs>
      <use xlink:href="#DejaVuSans-46"/>
      <use xlink:href="#DejaVuSans-72" x="50.269531"/>
      <use xlink:href="#DejaVuSans-61" x="91.382812"/>
      <use xlink:href="#DejaVuSans-63" x="152.662109"/>
      <use xlink:href="#DejaVuSans-74" x="207.642578"/>
      <use xlink:href="#DejaVuSans-69" x="246.851562"/>
      <use xlink:href="#DejaVuSans-6f" x="274.634766"/>
      <use xlink:href="#DejaVuSans-6e" x="335.816406"/>
      <use xlink:href="#DejaVuSans-20" x="399.195312"/>
      <use xlink:href="#DejaVuSans-6f" x="430.982422"/>
      <use xlink:href="#DejaVuSans-66" x="492.164062"/>
      <use xlink:href="#DejaVuSans-20" x="527.369141"/>
      <use xlink:href="#DejaVuSans-66" x="559.15625"/>
      <use xlink:href="#DejaVuSans-75" x="594.361328"/>
      <use xlink:href="#DejaVuSans-6e" x="657.740234"/>
      <use xlink:href="#DejaVuSans-63" x="721.119141"/>
      <use xlink:href="#DejaVuSans-74" x="776.099609"/>
      <use xlink:href="#DejaVuSans-69" x="815.308594"/>
      <use xlink:href="#DejaVuSans-6f" x="843.091797"/>
      <use xlink:href="#DejaVuSans-6e" x="904.273438"/>
      <use xlink:href="#DejaVuSans-2c" x="967.652344"/>
      <use xlink:href="#DejaVuSans-74" x="999.439453"/>
      <use xlink:href="#DejaVuSans-61" x="1038.648438"/>
      <use xlink:href="#DejaVuSans-72" x="1099.927734"/>
      <use xlink:href="#DejaVuSans-67" x="1139.291016"/>
      <use xlink:href="#DejaVuSans-65" x="1202.767578"/>
      <use xlink:href="#DejaVuSans-74" x="1264.291016"/>
      <use xlink:href="#DejaVuSans-20" x="1303.5"/>
      <use xlink:href="#DejaVuSans-70" x="1335.287109"/>
      <use xlink:href="#DejaVuSans-61" x="1398.763672"/>
      <use xlink:href="#DejaVuSans-69" x="1460.042969"/>
      <use xlink:href="#DejaVuSans-72" x="1487.826172"/>
      <use xlink:href="#DejaVuSans-73" x="1528.939453"/>
     </g>
    </g>
   </g>
   <g id="line2d_33">
    <defs>
     <path id="m61f23e0387" d="M 0 1.5 
C 0.397805 1.5 0.77937 1.341951 1.06066 1.06066 
C 1.341951 0.77937 1.5 0.397805 1.5 0 
C 1.5 -0.397805 1.341951 -0.77937 1.06066 -1.06066 
C 0.77937 -1.341951 0.397805 -1.5 0 -1.5 
C -0.397805 -1.5 -0.77937 -1.341951 -1.06066 -1.06066 
C -1.341951 -0.77937 -1.5 -0.397805 -1.5 0 
C -1.5 0.397805 -1.341951 0.77937 -1.06066 1.06066 
C -0.77937 1.341951 -0.397805 1.5 0 1.5 
z
" style="stroke: #f5deb3"/>
    </defs>
    <g>
     <use xlink:href="#m61f23e0387" x="355.424599" y="27.648" style="fill: #f5deb3; stroke: #f5deb3"/>
     <use xlink:href="#m61f23e0387" x="355.424599" y="27.648" style="fill: #f5deb3; stroke: #f5deb3"/>
    </g>
   </g>
   <g id="line2d_34">
    <defs>
     <path id="m3b012bbb46" d="M 0 1.5 
C 0.397805 1.5 0.77937 1.341951 1.06066 1.06066 
C 1.341951 0.77937 1.5 0.397805 1.5 0 
C 1.5 -0.397805 1.341951 -0.77937 1.06066 -1.06066 
C 0.77937 -1.341951 0.397805 -1.5 0 -1.5 
C -0.397805 -1.5 -0.77937 -1.341951 -1.06066 -1.06066 
C -1.341951 -0.77937 -1.5 -0.397805 -1.5 0 
C -1.5 0.397805 -1.341951 0.77937 -1.06066 1.06066 
C -0.77937 1.341951 -0.397805 1.5 0 1.5 
z
" style="stroke: #ff0000"/>
    </defs>
    <g>
     <use xlink:href="#m3b012bbb46" x="372.88217" y="27.648" style="fill: #ff0000; stroke: #ff0000"/>
     <use xlink:href="#m3b012bbb46" x="372.88217" y="27.648" style="fill: #ff0000; stroke: #ff0000"/>
    </g>
   </g>
   <g id="line2d_35">
    <path d="M 159.460157 298.944 
L 159.460157 298.589365 
L 162.345614 298.589365 
L 162.345614 298.234729 
L 166.359269 298.234729 
L 166.359269 297.880094 
L 168.44396 297.880094 
L 168.44396 297.525459 
L 174.35438 297.525459 
L 174.35438 297.170824 
L 175.778311 297.170824 
L 175.778311 296.816188 
L 179.815132 296.816188 
L 179.815132 296.461553 
L 181.552463 296.461553 
L 181.552463 296.106918 
L 182.720923 296.106918 
L 182.720923 295.752282 
L 186.444561 295.752282 
L 186.444561 295.397647 
L 189.347936 295.397647 
L 189.347936 295.043012 
L 189.9708 295.043012 
L 189.9708 294.688376 
L 191.383185 294.688376 
L 191.383185 294.333741 
L 193.48895 294.333741 
L 193.48895 293.979106 
L 195.015292 293.979106 
L 195.015292 293.624471 
L 195.517554 293.624471 
L 195.517554 293.269835 
L 195.63417 293.269835 
L 195.63417 292.9152 
L 197.929328 292.9152 
L 197.929328 292.560565 
L 198.465373 292.560565 
L 198.465373 292.205929 
L 199.15223 292.205929 
L 199.15223 291.851294 
L 199.402282 291.851294 
L 199.402282 291.496659 
L 199.740764 291.496659 
L 199.740764 291.142024 
L 200.100547 291.142024 
L 200.100547 290.787388 
L 200.346005 290.787388 
L 200.346005 290.432753 
L 200.743531 290.432753 
L 200.743531 290.078118 
L 202.797112 290.078118 
L 202.797112 289.723482 
L 207.178856 289.723482 
L 207.178856 289.368847 
L 207.376879 289.368847 
L 207.376879 289.014212 
L 207.646812 289.014212 
L 207.646812 288.659576 
L 209.127483 288.659576 
L 209.127483 288.304941 
L 209.280211 288.304941 
L 209.280211 287.950306 
L 209.476174 287.950306 
L 209.485699 287.241035 
L 209.688387 287.241035 
L 209.688387 286.8864 
L 210.125457 286.8864 
L 210.125457 286.531765 
L 212.183029 286.531765 
L 212.183029 286.177129 
L 216.890352 286.177129 
L 216.890352 285.822494 
L 228.239767 285.822494 
L 228.239767 285.467859 
L 252.191896 285.467859 
L 252.191896 285.113224 
L 264.258625 285.113224 
L 264.258625 284.758588 
L 265.036963 284.758588 
L 265.036963 284.403953 
L 273.606874 284.403953 
L 273.606874 284.049318 
L 285.296827 284.049318 
L 285.384551 282.985412 
L 285.441233 282.985412 
L 285.54123 281.566871 
L 285.574234 281.566871 
L 285.676196 279.793694 
L 285.696287 279.793694 
L 285.771048 278.375153 
L 285.809455 278.375153 
L 285.908911 276.601976 
L 285.940839 276.601976 
L 286.045257 274.474165 
L 286.080103 274.474165 
L 286.182017 272.700988 
L 286.19945 272.700988 
L 286.308444 270.927812 
L 286.322087 270.927812 
L 286.417568 269.509271 
L 286.442137 269.509271 
L 286.534391 267.736094 
L 286.554697 267.736094 
L 286.625293 266.317553 
L 288.506194 266.317553 
L 288.506194 265.962918 
L 288.629029 265.962918 
L 288.629029 265.608282 
L 289.092607 265.608282 
L 289.092607 265.253647 
L 289.456512 265.253647 
L 289.456512 264.899012 
L 290.11193 264.899012 
L 290.163111 263.835106 
L 299.000498 263.835106 
L 299.000498 263.480471 
L 299.325856 263.480471 
L 299.418302 262.416565 
L 300.003512 262.416565 
L 300.093708 261.707294 
L 300.128589 261.707294 
L 300.236472 260.288753 
L 300.256395 260.288753 
L 300.348725 259.224847 
L 300.39244 259.224847 
L 300.470849 258.160941 
L 300.52521 258.160941 
L 300.605902 257.097035 
L 300.706529 257.097035 
L 300.781585 254.259953 
L 300.827336 254.259953 
L 300.903523 252.132141 
L 300.967201 252.132141 
L 301.06961 248.940424 
L 301.127678 248.940424 
L 301.167789 247.876518 
L 301.256237 247.876518 
L 301.362658 246.812612 
L 302.025826 246.812612 
L 302.097783 246.103341 
L 302.165581 246.103341 
L 302.219629 245.039435 
L 302.398922 245.039435 
L 302.398922 244.6848 
L 302.638618 244.6848 
L 302.736397 243.975529 
L 307.610237 243.975529 
L 307.644601 243.266259 
L 307.773644 243.266259 
L 307.82851 242.556988 
L 308.306635 242.556988 
L 308.37896 241.493082 
L 308.49245 241.493082 
L 308.580772 239.365271 
L 308.606417 239.365271 
L 308.717252 237.946729 
L 308.730614 237.946729 
L 308.810513 236.528188 
L 308.846889 236.528188 
L 308.95353 235.464282 
L 308.978271 235.464282 
L 309.0743 232.6272 
L 309.133263 232.6272 
L 309.133263 232.272565 
L 309.299913 232.272565 
L 309.394257 230.499388 
L 309.537353 230.499388 
L 309.629222 229.435482 
L 310.064744 229.435482 
L 310.102182 228.726212 
L 310.46957 228.726212 
L 310.46957 228.371576 
L 313.213774 228.371576 
L 313.213774 228.016941 
L 313.415457 228.016941 
L 313.415457 227.662306 
L 313.801137 227.662306 
L 313.819892 226.953035 
L 313.975309 226.953035 
L 314.043331 226.243765 
L 314.212053 226.243765 
L 314.312273 224.115953 
L 314.324423 224.115953 
L 314.432618 219.860329 
L 314.436494 219.860329 
L 314.544232 218.087153 
L 314.587304 218.087153 
L 314.665202 217.023247 
L 314.721992 217.023247 
L 314.798603 215.959341 
L 314.892183 215.959341 
L 314.977508 213.831529 
L 315.008628 213.831529 
L 315.08046 212.767624 
L 315.129199 212.767624 
L 315.129199 212.412988 
L 317.818785 212.412988 
L 317.818785 212.058353 
L 318.045197 212.058353 
L 318.121305 211.349082 
L 318.181109 211.349082 
L 318.29095 210.285176 
L 318.294447 210.285176 
L 318.396269 209.221271 
L 318.479127 209.221271 
L 318.527815 208.512 
L 318.656223 208.512 
L 318.746973 206.738824 
L 318.828215 206.738824 
L 318.893433 206.029553 
L 318.959664 206.029553 
L 319.069061 205.320282 
L 319.076381 205.320282 
L 319.173278 204.256376 
L 319.280965 204.256376 
L 319.280965 203.901741 
L 319.405738 203.901741 
L 319.458639 202.837835 
L 319.520136 202.837835 
L 319.520136 202.4832 
L 319.777201 202.4832 
L 319.777201 202.128565 
L 321.512149 202.128565 
L 321.524536 201.419294 
L 321.782235 201.419294 
L 321.782235 201.064659 
L 321.938883 201.064659 
L 322.017573 199.646118 
L 322.054055 199.646118 
L 322.155101 198.582212 
L 322.166313 198.582212 
L 322.276059 195.745129 
L 322.307768 195.745129 
L 322.317254 195.035859 
L 322.544445 195.035859 
L 322.655226 193.262682 
L 322.750075 193.262682 
L 322.772841 192.553412 
L 322.913375 192.553412 
L 322.913375 192.198776 
L 323.040645 192.198776 
L 323.150533 191.489506 
L 323.16334 191.489506 
L 323.181029 190.780235 
L 324.559453 190.780235 
L 324.579049 190.070965 
L 324.834578 190.070965 
L 324.936553 189.361694 
L 324.978028 189.361694 
L 325.086126 186.879247 
L 325.09565 186.879247 
L 325.189923 185.460706 
L 325.208586 185.460706 
L 325.251775 184.042165 
L 325.368589 184.042165 
L 325.386012 183.332894 
L 325.494031 183.332894 
L 325.52048 181.914353 
L 325.67679 181.914353 
L 325.768807 180.850447 
L 325.800577 180.850447 
L 325.905904 178.368 
L 326.189474 178.368 
L 326.189474 178.013365 
L 326.394641 178.013365 
L 326.394641 177.658729 
L 327.278667 177.658729 
L 327.333679 176.594824 
L 327.422558 176.594824 
L 327.454102 175.885553 
L 327.569666 175.885553 
L 327.669081 174.467012 
L 327.681718 174.467012 
L 327.741423 173.403106 
L 327.83676 173.403106 
L 327.934039 172.693835 
L 327.94833 172.693835 
L 328.041826 170.920659 
L 328.15629 170.920659 
L 328.248405 169.147482 
L 328.289902 169.147482 
L 328.289902 168.792847 
L 328.48312 168.792847 
L 328.566997 167.728941 
L 328.716896 167.728941 
L 328.716896 167.374306 
L 329.587436 167.374306 
L 329.674328 165.601129 
L 329.870159 165.601129 
L 329.88119 164.891859 
L 330.031836 164.891859 
L 330.120317 163.827953 
L 330.15974 163.827953 
L 330.25904 161.700141 
L 330.354509 161.700141 
L 330.397147 160.990871 
L 330.541883 160.990871 
L 330.556258 160.2816 
L 331.027904 160.2816 
L 331.037772 159.572329 
L 331.690164 159.572329 
L 331.690164 159.217694 
L 331.868298 159.217694 
L 331.960059 156.380612 
L 331.990311 156.380612 
L 332.066533 155.316706 
L 332.109826 155.316706 
L 332.204372 153.898165 
L 332.225094 153.898165 
L 332.317527 152.124988 
L 332.361239 152.124988 
L 332.423569 151.061082 
L 332.590841 151.061082 
L 332.590841 150.706447 
L 332.97817 150.706447 
L 332.97817 150.351812 
L 333.208535 150.351812 
L 333.222771 149.642541 
L 333.417911 149.642541 
L 333.480244 148.933271 
L 333.560194 148.933271 
L 333.620044 148.224 
L 333.70517 148.224 
L 333.788709 147.160094 
L 333.854126 147.160094 
L 333.958844 145.741553 
L 334.05373 145.741553 
L 334.154522 143.968376 
L 334.251524 143.968376 
L 334.354471 142.1952 
L 334.461431 142.1952 
L 334.461431 141.840565 
L 334.655915 141.840565 
L 334.655915 141.485929 
L 335.086352 141.485929 
L 335.12466 140.776659 
L 335.381081 140.776659 
L 335.480362 139.358118 
L 335.501889 139.358118 
L 335.583341 138.294212 
L 335.622684 138.294212 
L 335.684845 137.584941 
L 335.771016 137.584941 
L 335.798348 136.875671 
L 335.922804 136.875671 
L 335.98785 135.811765 
L 336.132033 135.811765 
L 336.132033 135.457129 
L 336.692145 135.457129 
L 336.692145 135.102494 
L 336.970769 135.102494 
L 337.077782 134.038588 
L 337.108802 134.038588 
L 337.156896 132.265412 
L 337.235001 132.265412 
L 337.307845 129.428329 
L 337.386743 129.428329 
L 337.386743 129.073694 
L 337.632925 129.073694 
L 337.648459 128.009788 
L 337.855875 128.009788 
L 337.855875 127.655153 
L 338.101823 127.655153 
L 338.195677 126.591247 
L 338.278759 126.591247 
L 338.377514 124.818071 
L 338.419673 124.818071 
L 338.494722 124.1088 
L 338.533391 124.1088 
L 338.641066 120.917082 
L 338.750274 120.917082 
L 338.791052 120.207812 
L 338.88928 120.207812 
L 338.945722 119.498541 
L 339.005019 119.498541 
L 339.073122 118.789271 
L 339.335233 118.789271 
L 339.444736 118.08 
L 339.553913 118.08 
L 339.664108 116.661459 
L 339.677274 116.661459 
L 339.786919 114.888282 
L 339.836581 114.888282 
L 339.897085 114.179012 
L 340.053475 114.179012 
L 340.155546 112.0512 
L 340.842187 112.0512 
L 340.898811 111.341929 
L 340.964026 111.341929 
L 341.047931 109.214118 
L 341.080822 109.214118 
L 341.179369 107.795576 
L 341.202737 107.795576 
L 341.202737 107.440941 
L 341.316386 107.440941 
L 341.385956 106.0224 
L 341.459 106.0224 
L 341.459 105.667765 
L 341.736707 105.667765 
L 341.806595 104.603859 
L 341.925709 104.603859 
L 341.925709 104.249224 
L 342.141554 104.249224 
L 342.239685 103.185318 
L 342.260888 103.185318 
L 342.329973 102.121412 
L 342.394884 102.121412 
L 342.450202 100.348235 
L 342.612175 100.348235 
L 342.714214 99.284329 
L 343.175101 99.284329 
L 343.225686 98.575059 
L 343.293092 98.575059 
L 343.293092 98.220424 
L 343.564586 98.220424 
L 343.598139 97.511153 
L 343.906716 97.511153 
L 344.006117 96.092612 
L 344.275374 96.092612 
L 344.359826 95.028706 
L 344.411448 95.028706 
L 344.518125 93.9648 
L 344.526584 93.9648 
L 344.576413 93.255529 
L 344.696656 93.255529 
L 344.696656 92.900894 
L 344.839586 92.900894 
L 344.88843 92.191624 
L 345.054571 92.191624 
L 345.162686 91.127718 
L 345.188737 91.127718 
L 345.279544 89.354541 
L 345.418721 89.354541 
L 345.457554 88.290635 
L 345.548545 88.290635 
L 345.60581 86.517459 
L 345.890381 86.517459 
L 345.978049 85.098918 
L 346.017385 85.098918 
L 346.116625 83.680376 
L 346.351178 83.680376 
L 346.415634 82.261835 
L 346.534824 82.261835 
L 346.608714 80.843294 
L 346.853684 80.843294 
L 346.871785 80.134024 
L 347.034029 80.134024 
L 347.06484 79.070118 
L 347.175609 79.070118 
L 347.276863 77.296941 
L 347.289113 77.296941 
L 347.366479 76.587671 
L 347.568512 76.587671 
L 347.663056 75.169129 
L 347.923297 75.169129 
L 347.943573 74.459859 
L 348.381338 74.459859 
L 348.455125 73.750588 
L 348.592848 73.750588 
L 348.695997 72.686682 
L 348.783078 72.686682 
L 348.863083 70.558871 
L 348.915412 70.558871 
L 348.915412 70.204235 
L 349.065406 70.204235 
L 349.065406 69.8496 
L 349.418749 69.8496 
L 349.418749 69.494965 
L 349.557307 69.494965 
L 349.614884 68.785694 
L 349.679123 68.785694 
L 349.697858 68.076424 
L 350.0333 68.076424 
L 350.0333 67.721788 
L 350.168205 67.721788 
L 350.27623 66.657882 
L 350.292632 66.657882 
L 350.326656 65.593976 
L 350.756426 65.593976 
L 350.785553 64.884706 
L 351.063566 64.884706 
L 351.090663 64.175435 
L 351.269422 64.175435 
L 351.378628 63.111529 
L 351.433143 63.111529 
L 351.509702 62.402259 
L 351.596643 62.402259 
L 351.650122 61.338353 
L 351.863518 61.338353 
L 351.959274 60.629082 
L 352.105654 60.629082 
L 352.105654 60.274447 
L 352.257765 60.274447 
L 352.257765 59.919812 
L 352.569192 59.919812 
L 352.664751 58.146635 
L 352.871801 58.146635 
L 352.876044 57.437365 
L 353.066137 57.437365 
L 353.066137 57.082729 
L 353.25668 57.082729 
L 353.25668 56.728094 
L 353.415651 56.728094 
L 353.415651 56.373459 
L 353.653584 56.373459 
L 353.760771 55.309553 
L 353.894857 55.309553 
L 353.894857 54.954918 
L 354.226533 54.954918 
L 354.226533 54.600282 
L 354.359717 54.600282 
L 354.373667 53.891012 
L 354.514361 53.891012 
L 354.514361 53.536376 
L 355.361677 53.536376 
L 355.463699 52.472471 
L 355.507447 52.472471 
L 355.612985 51.053929 
L 355.721047 51.053929 
L 355.721047 50.699294 
L 355.983214 50.699294 
L 355.986916 49.990024 
L 356.325448 49.990024 
L 356.375054 48.571482 
L 356.510755 48.571482 
L 356.618715 47.507576 
L 356.753208 47.507576 
L 356.862314 46.798306 
L 356.996868 46.798306 
L 356.996868 46.443671 
L 357.218567 46.443671 
L 357.27446 45.7344 
L 357.365344 45.7344 
L 357.365344 45.379765 
L 357.617291 45.379765 
L 357.715294 44.670494 
L 357.752541 44.670494 
L 357.823998 43.606588 
L 358.2126 43.606588 
L 358.229124 42.897318 
L 358.585956 42.897318 
L 358.630612 42.188047 
L 358.987146 42.188047 
L 358.987146 41.833412 
L 359.221487 41.833412 
L 359.267432 41.124141 
L 359.527879 41.124141 
L 359.578536 40.414871 
L 359.748298 40.414871 
L 359.748298 40.060235 
L 359.960029 40.060235 
L 359.997555 39.350965 
L 360.131731 39.350965 
L 360.131731 38.996329 
L 360.63577 38.996329 
L 360.63577 38.641694 
L 360.762529 38.641694 
L 360.762529 38.287059 
L 360.8064 38.287059 
" style="fill: none; stroke: #ff0000; stroke-width: 1.5; stroke-linecap: square"/>
   </g>
   <g id="line2d_36">
    <defs>
     <path id="m529295237b" d="M 0 -6 
L -5.196152 -3 
L -5.196152 3 
L -0 6 
L 5.196152 3 
L 5.196152 -3 
z
" style="stroke: #ff0000; stroke-width: 1.5; stroke-linejoin: miter"/>
    </defs>
    <g>
     <use xlink:href="#m529295237b" x="310.102182" y="228.726212" style="fill-opacity: 0; stroke: #ff0000; stroke-width: 1.5; stroke-linejoin: miter"/>
     <use xlink:href="#m529295237b" x="342.260888" y="103.185318" style="fill-opacity: 0; stroke: #ff0000; stroke-width: 1.5; stroke-linejoin: miter"/>
     <use xlink:href="#m529295237b" x="360.762529" y="38.287059" style="fill-opacity: 0; stroke: #ff0000; stroke-width: 1.5; stroke-linejoin: miter"/>
     <use xlink:href="#m529295237b" x="360.8064" y="38.287059" style="fill-opacity: 0; stroke: #ff0000; stroke-width: 1.5; stroke-linejoin: miter"/>
    </g>
   </g>
   <g id="line2d_37">
    <path style="fill: none; stroke: #ff0000; stroke-width: 1.5; stroke-linecap: square"/>
    <g/>
   </g>
   <g id="line2d_38">
    <path d="M 288.900576 265.608282 
" clip-path="url(#p06a4fdf27e)" style="fill: none; stroke: #ff0000; stroke-width: 1.5; stroke-linecap: square"/>
    <defs>
     <path id="m3d3f7bcb83" d="M -12 12 
L 12 -12 
M -12 -12 
L 12 12 
" style="stroke: #ff0000"/>
    </defs>
    <g clip-path="url(#p06a4fdf27e)">
     <use xlink:href="#m3d3f7bcb83" x="288.900576" y="265.608282" style="fill: #ff0000; stroke: #ff0000"/>
    </g>
   </g>
   <g id="line2d_39">
    <path d="M 360.8064 38.287059 
L 380.514816 293.51808 
" style="fill: none; stroke: #ff0000; stroke-width: 1.5; stroke-linecap: square"/>
    <g>
     <use xlink:href="#m529295237b" x="360.8064" y="38.287059" style="fill-opacity: 0; stroke: #ff0000; stroke-width: 1.5; stroke-linejoin: miter"/>
     <use xlink:href="#m529295237b" x="380.514816" y="293.51808" style="fill-opacity: 0; stroke: #ff0000; stroke-width: 1.5; stroke-linejoin: miter"/>
    </g>
   </g>
   <g id="line2d_40">
    <path d="M 360.8064 298.944 
L 360.8064 27.648 
" style="fill: none; stroke: #000000; stroke-width: 1.5; stroke-linecap: square"/>
   </g>
   <g id="patch_3">
    <path d="M 57.6 298.944 
L 360.8064 298.944 
" style="fill: none; stroke: #000000; stroke-width: 0.8; stroke-linejoin: miter; stroke-linecap: square"/>
   </g>
   <g id="patch_4">
    <path d="M 57.6 27.648 
L 360.8064 27.648 
" style="fill: none; stroke: #000000; stroke-width: 0.8; stroke-linejoin: miter; stroke-linecap: square"/>
   </g>
   <g id="text_13">
    <!-- CMA-ES-20 -->
    <g transform="translate(386.578944 297.381205)scale(0.14 -0.14)">
     <defs>
      <path id="DejaVuSans-43" d="M 4122 4306 
L 4122 3641 
Q 3803 3938 3442 4084 
Q 3081 4231 2675 4231 
Q 1875 4231 1450 3742 
Q 1025 3253 1025 2328 
Q 1025 1406 1450 917 
Q 1875 428 2675 428 
Q 3081 428 3442 575 
Q 3803 722 4122 1019 
L 4122 359 
Q 3791 134 3420 21 
Q 3050 -91 2638 -91 
Q 1578 -91 968 557 
Q 359 1206 359 2328 
Q 359 3453 968 4101 
Q 1578 4750 2638 4750 
Q 3056 4750 3426 4639 
Q 3797 4528 4122 4306 
z
" transform="scale(0.015625)"/>
      <path id="DejaVuSans-4d" d="M 628 4666 
L 1569 4666 
L 2759 1491 
L 3956 4666 
L 4897 4666 
L 4897 0 
L 4281 0 
L 4281 4097 
L 3078 897 
L 2444 897 
L 1241 4097 
L 1241 0 
L 628 0 
L 628 4666 
z
" transform="scale(0.015625)"/>
      <path id="DejaVuSans-41" d="M 2188 4044 
L 1331 1722 
L 3047 1722 
L 2188 4044 
z
M 1831 4666 
L 2547 4666 
L 4325 0 
L 3669 0 
L 3244 1197 
L 1141 1197 
L 716 0 
L 50 0 
L 1831 4666 
z
" transform="scale(0.015625)"/>
      <path id="DejaVuSans-45" d="M 628 4666 
L 3578 4666 
L 3578 4134 
L 1259 4134 
L 1259 2753 
L 3481 2753 
L 3481 2222 
L 1259 2222 
L 1259 531 
L 3634 531 
L 3634 0 
L 628 0 
L 628 4666 
z
" transform="scale(0.015625)"/>
      <path id="DejaVuSans-53" d="M 3425 4513 
L 3425 3897 
Q 3066 4069 2747 4153 
Q 2428 4238 2131 4238 
Q 1616 4238 1336 4038 
Q 1056 3838 1056 3469 
Q 1056 3159 1242 3001 
Q 1428 2844 1947 2747 
L 2328 2669 
Q 3034 2534 3370 2195 
Q 3706 1856 3706 1288 
Q 3706 609 3251 259 
Q 2797 -91 1919 -91 
Q 1588 -91 1214 -16 
Q 841 59 441 206 
L 441 856 
Q 825 641 1194 531 
Q 1563 422 1919 422 
Q 2459 422 2753 634 
Q 3047 847 3047 1241 
Q 3047 1584 2836 1778 
Q 2625 1972 2144 2069 
L 1759 2144 
Q 1053 2284 737 2584 
Q 422 2884 422 3419 
Q 422 4038 858 4394 
Q 1294 4750 2059 4750 
Q 2388 4750 2728 4690 
Q 3069 4631 3425 4513 
z
" transform="scale(0.015625)"/>
     </defs>
     <use xlink:href="#DejaVuSans-43"/>
     <use xlink:href="#DejaVuSans-4d" x="69.824219"/>
     <use xlink:href="#DejaVuSans-41" x="156.103516"/>
     <use xlink:href="#DejaVuSans-2d" x="222.261719"/>
     <use xlink:href="#DejaVuSans-45" x="258.345703"/>
     <use xlink:href="#DejaVuSans-53" x="321.529297"/>
     <use xlink:href="#DejaVuSans-2d" x="385.005859"/>
     <use xlink:href="#DejaVuSans-32" x="421.089844"/>
     <use xlink:href="#DejaVuSans-30" x="484.712891"/>
    </g>
   </g>
   <g id="text_14">
    <!-- best 2009 -->
    <g transform="translate(386.578944 36.937045)scale(0.14 -0.14)">
     <defs>
      <path id="DejaVuSans-62" d="M 3116 1747 
Q 3116 2381 2855 2742 
Q 2594 3103 2138 3103 
Q 1681 3103 1420 2742 
Q 1159 2381 1159 1747 
Q 1159 1113 1420 752 
Q 1681 391 2138 391 
Q 2594 391 2855 752 
Q 3116 1113 3116 1747 
z
M 1159 2969 
Q 1341 3281 1617 3432 
Q 1894 3584 2278 3584 
Q 2916 3584 3314 3078 
Q 3713 2572 3713 1747 
Q 3713 922 3314 415 
Q 2916 -91 2278 -91 
Q 1894 -91 1617 61 
Q 1341 213 1159 525 
L 1159 0 
L 581 0 
L 581 4863 
L 1159 4863 
L 1159 2969 
z
" transform="scale(0.015625)"/>
      <path id="DejaVuSans-39" d="M 703 97 
L 703 672 
Q 941 559 1184 500 
Q 1428 441 1663 441 
Q 2288 441 2617 861 
Q 2947 1281 2994 2138 
Q 2813 1869 2534 1725 
Q 2256 1581 1919 1581 
Q 1219 1581 811 2004 
Q 403 2428 403 3163 
Q 403 3881 828 4315 
Q 1253 4750 1959 4750 
Q 2769 4750 3195 4129 
Q 3622 3509 3622 2328 
Q 3622 1225 3098 567 
Q 2575 -91 1691 -91 
Q 1453 -91 1209 -44 
Q 966 3 703 97 
z
M 1959 2075 
Q 2384 2075 2632 2365 
Q 2881 2656 2881 3163 
Q 2881 3666 2632 3958 
Q 2384 4250 1959 4250 
Q 1534 4250 1286 3958 
Q 1038 3666 1038 3163 
Q 1038 2656 1286 2365 
Q 1534 2075 1959 2075 
z
" transform="scale(0.015625)"/>
     </defs>
     <use xlink:href="#DejaVuSans-62"/>
     <use xlink:href="#DejaVuSans-65" x="63.476562"/>
     <use xlink:href="#DejaVuSans-73" x="125"/>
     <use xlink:href="#DejaVuSans-74" x="177.099609"/>
     <use xlink:href="#DejaVuSans-20" x="216.308594"/>
     <use xlink:href="#DejaVuSans-32" x="248.095703"/>
     <use xlink:href="#DejaVuSans-30" x="311.71875"/>
     <use xlink:href="#DejaVuSans-30" x="375.341797"/>
     <use xlink:href="#DejaVuSans-39" x="438.964844"/>
    </g>
   </g>
   <g id="text_15">
    <!-- bbob f24, 40-D -->
    <g transform="translate(60.632064 38.111366)scale(0.102 -0.102)">
     <defs>
      <path id="DejaVuSans-44" d="M 1259 4147 
L 1259 519 
L 2022 519 
Q 2988 519 3436 956 
Q 3884 1394 3884 2338 
Q 3884 3275 3436 3711 
Q 2988 4147 2022 4147 
L 1259 4147 
z
M 628 4666 
L 1925 4666 
Q 3281 4666 3915 4102 
Q 4550 3538 4550 2338 
Q 4550 1131 3912 565 
Q 3275 0 1925 0 
L 628 0 
L 628 4666 
z
" transform="scale(0.015625)"/>
     </defs>
     <use xlink:href="#DejaVuSans-62"/>
     <use xlink:href="#DejaVuSans-62" x="63.476562"/>
     <use xlink:href="#DejaVuSans-6f" x="126.953125"/>
     <use xlink:href="#DejaVuSans-62" x="188.134766"/>
     <use xlink:href="#DejaVuSans-20" x="251.611328"/>
     <use xlink:href="#DejaVuSans-66" x="283.398438"/>
     <use xlink:href="#DejaVuSans-32" x="318.603516"/>
     <use xlink:href="#DejaVuSans-34" x="382.226562"/>
     <use xlink:href="#DejaVuSans-2c" x="445.849609"/>
     <use xlink:href="#DejaVuSans-20" x="477.636719"/>
     <use xlink:href="#DejaVuSans-34" x="509.423828"/>
     <use xlink:href="#DejaVuSans-30" x="573.046875"/>
     <use xlink:href="#DejaVuSans-2d" x="636.669922"/>
     <use xlink:href="#DejaVuSans-44" x="672.753906"/>
    </g>
    <!-- 51 targets: 100..1e-08 -->
    <g transform="translate(60.632064 49.533135)scale(0.102 -0.102)">
     <defs>
      <path id="DejaVuSans-35" d="M 691 4666 
L 3169 4666 
L 3169 4134 
L 1269 4134 
L 1269 2991 
Q 1406 3038 1543 3061 
Q 1681 3084 1819 3084 
Q 2600 3084 3056 2656 
Q 3513 2228 3513 1497 
Q 3513 744 3044 326 
Q 2575 -91 1722 -91 
Q 1428 -91 1123 -41 
Q 819 9 494 109 
L 494 744 
Q 775 591 1075 516 
Q 1375 441 1709 441 
Q 2250 441 2565 725 
Q 2881 1009 2881 1497 
Q 2881 1984 2565 2268 
Q 2250 2553 1709 2553 
Q 1456 2553 1204 2497 
Q 953 2441 691 2322 
L 691 4666 
z
" transform="scale(0.015625)"/>
      <path id="DejaVuSans-3a" d="M 750 794 
L 1409 794 
L 1409 0 
L 750 0 
L 750 794 
z
M 750 3309 
L 1409 3309 
L 1409 2516 
L 750 2516 
L 750 3309 
z
" transform="scale(0.015625)"/>
     </defs>
     <use xlink:href="#DejaVuSans-35"/>
     <use xlink:href="#DejaVuSans-31" x="63.623047"/>
     <use xlink:href="#DejaVuSans-20" x="127.246094"/>
     <use xlink:href="#DejaVuSans-74" x="159.033203"/>
     <use xlink:href="#DejaVuSans-61" x="198.242188"/>
     <use xlink:href="#DejaVuSans-72" x="259.521484"/>
     <use xlink:href="#DejaVuSans-67" x="298.884766"/>
     <use xlink:href="#DejaVuSans-65" x="362.361328"/>
     <use xlink:href="#DejaVuSans-74" x="423.884766"/>
     <use xlink:href="#DejaVuSans-73" x="463.09375"/>
     <use xlink:href="#DejaVuSans-3a" x="515.193359"/>
     <use xlink:href="#DejaVuSans-20" x="548.884766"/>
     <use xlink:href="#DejaVuSans-31" x="580.671875"/>
     <use xlink:href="#DejaVuSans-30" x="644.294922"/>
     <use xlink:href="#DejaVuSans-30" x="707.917969"/>
     <use xlink:href="#DejaVuSans-2e" x="771.541016"/>
     <use xlink:href="#DejaVuSans-2e" x="803.328125"/>
     <use xlink:href="#DejaVuSans-31" x="835.115234"/>
     <use xlink:href="#DejaVuSans-65" x="898.738281"/>
     <use xlink:href="#DejaVuSans-2d" x="960.261719"/>
     <use xlink:href="#DejaVuSans-30" x="996.345703"/>
     <use xlink:href="#DejaVuSans-38" x="1059.96875"/>
    </g>
    <!-- 15 instances -->
    <g transform="translate(60.632064 60.954904)scale(0.102 -0.102)">
     <use xlink:href="#DejaVuSans-31"/>
     <use xlink:href="#DejaVuSans-35" x="63.623047"/>
     <use xlink:href="#DejaVuSans-20" x="127.246094"/>
     <use xlink:href="#DejaVuSans-69" x="159.033203"/>
     <use xlink:href="#DejaVuSans-6e" x="186.816406"/>
     <use xlink:href="#DejaVuSans-73" x="250.195312"/>
     <use xlink:href="#DejaVuSans-74" x="302.294922"/>
     <use xlink:href="#DejaVuSans-61" x="341.503906"/>
     <use xlink:href="#DejaVuSans-6e" x="402.783203"/>
     <use xlink:href="#DejaVuSans-63" x="466.162109"/>
     <use xlink:href="#DejaVuSans-65" x="521.142578"/>
     <use xlink:href="#DejaVuSans-73" x="582.666016"/>
    </g>
   </g>
   <g id="text_16">
    <!-- v2.6 -->
    <g style="fill: #808080" transform="translate(198.292262 294.151352)scale(0.1 -0.1)">
     <use xlink:href="#DejaVuSans-76"/>
     <use xlink:href="#DejaVuSans-32" x="59.179688"/>
     <use xlink:href="#DejaVuSans-2e" x="122.802734"/>
     <use xlink:href="#DejaVuSans-36" x="154.589844"/>
    </g>
   </g>
   <g id="text_17">
    <!-- 24 Lunacek bi-Rastrigin -->
    <g transform="translate(91.411012 21.648)scale(0.2 -0.2)">
     <defs>
      <path id="DejaVuSans-4c" d="M 628 4666 
L 1259 4666 
L 1259 531 
L 3531 531 
L 3531 0 
L 628 0 
L 628 4666 
z
" transform="scale(0.015625)"/>
      <path id="DejaVuSans-6b" d="M 581 4863 
L 1159 4863 
L 1159 1991 
L 2875 3500 
L 3609 3500 
L 1753 1863 
L 3688 0 
L 2938 0 
L 1159 1709 
L 1159 0 
L 581 0 
L 581 4863 
z
" transform="scale(0.015625)"/>
      <path id="DejaVuSans-52" d="M 2841 2188 
Q 3044 2119 3236 1894 
Q 3428 1669 3622 1275 
L 4263 0 
L 3584 0 
L 2988 1197 
Q 2756 1666 2539 1819 
Q 2322 1972 1947 1972 
L 1259 1972 
L 1259 0 
L 628 0 
L 628 4666 
L 2053 4666 
Q 2853 4666 3247 4331 
Q 3641 3997 3641 3322 
Q 3641 2881 3436 2590 
Q 3231 2300 2841 2188 
z
M 1259 4147 
L 1259 2491 
L 2053 2491 
Q 2509 2491 2742 2702 
Q 2975 2913 2975 3322 
Q 2975 3731 2742 3939 
Q 2509 4147 2053 4147 
L 1259 4147 
z
" transform="scale(0.015625)"/>
     </defs>
     <use xlink:href="#DejaVuSans-32"/>
     <use xlink:href="#DejaVuSans-34" x="63.623047"/>
     <use xlink:href="#DejaVuSans-20" x="127.246094"/>
     <use xlink:href="#DejaVuSans-4c" x="159.033203"/>
     <use xlink:href="#DejaVuSans-75" x="212.996094"/>
     <use xlink:href="#DejaVuSans-6e" x="276.375"/>
     <use xlink:href="#DejaVuSans-61" x="339.753906"/>
     <use xlink:href="#DejaVuSans-63" x="401.033203"/>
     <use xlink:href="#DejaVuSans-65" x="456.013672"/>
     <use xlink:href="#DejaVuSans-6b" x="517.537109"/>
     <use xlink:href="#DejaVuSans-20" x="575.447266"/>
     <use xlink:href="#DejaVuSans-62" x="607.234375"/>
     <use xlink:href="#DejaVuSans-69" x="670.710938"/>
     <use xlink:href="#DejaVuSans-2d" x="698.494141"/>
     <use xlink:href="#DejaVuSans-52" x="734.578125"/>
     <use xlink:href="#DejaVuSans-61" x="801.810547"/>
     <use xlink:href="#DejaVuSans-73" x="863.089844"/>
     <use xlink:href="#DejaVuSans-74" x="915.189453"/>
     <use xlink:href="#DejaVuSans-72" x="954.398438"/>
     <use xlink:href="#DejaVuSans-69" x="995.511719"/>
     <use xlink:href="#DejaVuSans-67" x="1023.294922"/>
     <use xlink:href="#DejaVuSans-69" x="1086.771484"/>
     <use xlink:href="#DejaVuSans-6e" x="1114.554688"/>
    </g>
   </g>
  </g>
 </g>
 <defs>
  <clipPath id="p06a4fdf27e">
   <rect x="57.6" y="27.648" width="303.2064" height="271.296"/>
  </clipPath>
 </defs>
</svg>
