<?xml version="1.0" encoding="utf-8" standalone="no"?>
<!DOCTYPE svg PUBLIC "-//W3C//DTD SVG 1.1//EN"
  "http://www.w3.org/Graphics/SVG/1.1/DTD/svg11.dtd">
<svg xmlns:xlink="http://www.w3.org/1999/xlink" width="460.8pt" height="345.6pt" viewBox="0 0 460.8 345.6" xmlns="http://www.w3.org/2000/svg" version="1.1">
 <metadata>
  <rdf:RDF xmlns:dc="http://purl.org/dc/elements/1.1/" xmlns:cc="http://creativecommons.org/ns#" xmlns:rdf="http://www.w3.org/1999/02/22-rdf-syntax-ns#">
   <cc:Work>
    <dc:type rdf:resource="http://purl.org/dc/dcmitype/StillImage"/>
    <dc:date>2022-03-16T23:30:24.523551</dc:date>
    <dc:format>image/svg+xml</dc:format>
    <dc:creator>
     <cc:Agent>
      <dc:title>Matplotlib v3.5.1, https://matplotlib.org/</dc:title>
     </cc:Agent>
    </dc:creator>
   </cc:Work>
  </rdf:RDF>
 </metadata>
 <defs>
  <style type="text/css">*{stroke-linejoin: round; stroke-linecap: butt}</style>
 </defs>
 <g id="figure_1">
  <g id="patch_1">
   <path d="M 0 345.6 
L 460.8 345.6 
L 460.8 0 
L 0 0 
z
" style="fill: #ffffff"/>
  </g>
  <g id="axes_1">
   <g id="patch_2">
    <path d="M 57.6 298.944 
L 360.8064 298.944 
L 360.8064 6.912 
L 57.6 6.912 
z
" style="fill: #ffffff"/>
   </g>
   <g id="matplotlib.axis_1">
    <g id="xtick_1">
     <g id="line2d_1">
      <path d="M 57.6 298.944 
L 57.6 6.912 
" clip-path="url(#p003e448295)" style="fill: none; stroke: #b0b0b0; stroke-width: 0.8; stroke-linecap: square"/>
     </g>
     <g id="line2d_2">
      <defs>
       <path id="m18d5c5a4d4" d="M 0 0 
L 0 3.5 
" style="stroke: #000000; stroke-width: 0.8"/>
      </defs>
      <g>
       <use xlink:href="#m18d5c5a4d4" x="57.6" y="298.944" style="stroke: #000000; stroke-width: 0.8"/>
      </g>
     </g>
     <g id="text_1">
      <!-- 0 -->
      <g transform="translate(52.191875 318.861344)scale(0.17 -0.17)">
       <defs>
        <path id="DejaVuSans-30" d="M 2034 4250 
Q 1547 4250 1301 3770 
Q 1056 3291 1056 2328 
Q 1056 1369 1301 889 
Q 1547 409 2034 409 
Q 2525 409 2770 889 
Q 3016 1369 3016 2328 
Q 3016 3291 2770 3770 
Q 2525 4250 2034 4250 
z
M 2034 4750 
Q 2819 4750 3233 4129 
Q 3647 3509 3647 2328 
Q 3647 1150 3233 529 
Q 2819 -91 2034 -91 
Q 1250 -91 836 529 
Q 422 1150 422 2328 
Q 422 3509 836 4129 
Q 1250 4750 2034 4750 
z
" transform="scale(0.015625)"/>
       </defs>
       <use xlink:href="#DejaVuSans-30"/>
      </g>
     </g>
    </g>
    <g id="xtick_2">
     <g id="line2d_3">
      <path d="M 144.2304 298.944 
L 144.2304 6.912 
" clip-path="url(#p003e448295)" style="fill: none; stroke: #b0b0b0; stroke-width: 0.8; stroke-linecap: square"/>
     </g>
     <g id="line2d_4">
      <g>
       <use xlink:href="#m18d5c5a4d4" x="144.2304" y="298.944" style="stroke: #000000; stroke-width: 0.8"/>
      </g>
     </g>
     <g id="text_2">
      <!-- 2 -->
      <g transform="translate(138.822275 318.861344)scale(0.17 -0.17)">
       <defs>
        <path id="DejaVuSans-32" d="M 1228 531 
L 3431 531 
L 3431 0 
L 469 0 
L 469 531 
Q 828 903 1448 1529 
Q 2069 2156 2228 2338 
Q 2531 2678 2651 2914 
Q 2772 3150 2772 3378 
Q 2772 3750 2511 3984 
Q 2250 4219 1831 4219 
Q 1534 4219 1204 4116 
Q 875 4013 500 3803 
L 500 4441 
Q 881 4594 1212 4672 
Q 1544 4750 1819 4750 
Q 2544 4750 2975 4387 
Q 3406 4025 3406 3419 
Q 3406 3131 3298 2873 
Q 3191 2616 2906 2266 
Q 2828 2175 2409 1742 
Q 1991 1309 1228 531 
z
" transform="scale(0.015625)"/>
       </defs>
       <use xlink:href="#DejaVuSans-32"/>
      </g>
     </g>
    </g>
    <g id="xtick_3">
     <g id="line2d_5">
      <path d="M 230.8608 298.944 
L 230.8608 6.912 
" clip-path="url(#p003e448295)" style="fill: none; stroke: #b0b0b0; stroke-width: 0.8; stroke-linecap: square"/>
     </g>
     <g id="line2d_6">
      <g>
       <use xlink:href="#m18d5c5a4d4" x="230.8608" y="298.944" style="stroke: #000000; stroke-width: 0.8"/>
      </g>
     </g>
     <g id="text_3">
      <!-- 4 -->
      <g transform="translate(225.452675 318.861344)scale(0.17 -0.17)">
       <defs>
        <path id="DejaVuSans-34" d="M 2419 4116 
L 825 1625 
L 2419 1625 
L 2419 4116 
z
M 2253 4666 
L 3047 4666 
L 3047 1625 
L 3713 1625 
L 3713 1100 
L 3047 1100 
L 3047 0 
L 2419 0 
L 2419 1100 
L 313 1100 
L 313 1709 
L 2253 4666 
z
" transform="scale(0.015625)"/>
       </defs>
       <use xlink:href="#DejaVuSans-34"/>
      </g>
     </g>
    </g>
    <g id="xtick_4">
     <g id="line2d_7">
      <path d="M 317.4912 298.944 
L 317.4912 6.912 
" clip-path="url(#p003e448295)" style="fill: none; stroke: #b0b0b0; stroke-width: 0.8; stroke-linecap: square"/>
     </g>
     <g id="line2d_8">
      <g>
       <use xlink:href="#m18d5c5a4d4" x="317.4912" y="298.944" style="stroke: #000000; stroke-width: 0.8"/>
      </g>
     </g>
     <g id="text_4">
      <!-- 6 -->
      <g transform="translate(312.083075 318.861344)scale(0.17 -0.17)">
       <defs>
        <path id="DejaVuSans-36" d="M 2113 2584 
Q 1688 2584 1439 2293 
Q 1191 2003 1191 1497 
Q 1191 994 1439 701 
Q 1688 409 2113 409 
Q 2538 409 2786 701 
Q 3034 994 3034 1497 
Q 3034 2003 2786 2293 
Q 2538 2584 2113 2584 
z
M 3366 4563 
L 3366 3988 
Q 3128 4100 2886 4159 
Q 2644 4219 2406 4219 
Q 1781 4219 1451 3797 
Q 1122 3375 1075 2522 
Q 1259 2794 1537 2939 
Q 1816 3084 2150 3084 
Q 2853 3084 3261 2657 
Q 3669 2231 3669 1497 
Q 3669 778 3244 343 
Q 2819 -91 2113 -91 
Q 1303 -91 875 529 
Q 447 1150 447 2328 
Q 447 3434 972 4092 
Q 1497 4750 2381 4750 
Q 2619 4750 2861 4703 
Q 3103 4656 3366 4563 
z
" transform="scale(0.015625)"/>
       </defs>
       <use xlink:href="#DejaVuSans-36"/>
      </g>
     </g>
    </g>
    <g id="xtick_5">
     <g id="line2d_9">
      <path d="M 100.9152 298.944 
L 100.9152 6.912 
" clip-path="url(#p003e448295)" style="fill: none; stroke: #b0b0b0; stroke-width: 0.8; stroke-linecap: square"/>
     </g>
     <g id="line2d_10">
      <defs>
       <path id="m48a32c4a75" d="M 0 0 
L 0 2 
" style="stroke: #000000; stroke-width: 0.6"/>
      </defs>
      <g>
       <use xlink:href="#m48a32c4a75" x="100.9152" y="298.944" style="stroke: #000000; stroke-width: 0.6"/>
      </g>
     </g>
    </g>
    <g id="xtick_6">
     <g id="line2d_11">
      <path d="M 187.5456 298.944 
L 187.5456 6.912 
" clip-path="url(#p003e448295)" style="fill: none; stroke: #b0b0b0; stroke-width: 0.8; stroke-linecap: square"/>
     </g>
     <g id="line2d_12">
      <g>
       <use xlink:href="#m48a32c4a75" x="187.5456" y="298.944" style="stroke: #000000; stroke-width: 0.6"/>
      </g>
     </g>
    </g>
    <g id="xtick_7">
     <g id="line2d_13">
      <path d="M 274.176 298.944 
L 274.176 6.912 
" clip-path="url(#p003e448295)" style="fill: none; stroke: #b0b0b0; stroke-width: 0.8; stroke-linecap: square"/>
     </g>
     <g id="line2d_14">
      <g>
       <use xlink:href="#m48a32c4a75" x="274.176" y="298.944" style="stroke: #000000; stroke-width: 0.6"/>
      </g>
     </g>
    </g>
    <g id="xtick_8">
     <g id="line2d_15">
      <path d="M 360.8064 298.944 
L 360.8064 6.912 
" clip-path="url(#p003e448295)" style="fill: none; stroke: #b0b0b0; stroke-width: 0.8; stroke-linecap: square"/>
     </g>
     <g id="line2d_16">
      <g>
       <use xlink:href="#m48a32c4a75" x="360.8064" y="298.944" style="stroke: #000000; stroke-width: 0.6"/>
      </g>
     </g>
    </g>
    <g id="text_5">
     <!-- log10(# f-evals / dimension) -->
     <g transform="translate(88.823278 339.314156)scale(0.17 -0.17)">
      <defs>
       <path id="DejaVuSans-6c" d="M 603 4863 
L 1178 4863 
L 1178 0 
L 603 0 
L 603 4863 
z
" transform="scale(0.015625)"/>
       <path id="DejaVuSans-6f" d="M 1959 3097 
Q 1497 3097 1228 2736 
Q 959 2375 959 1747 
Q 959 1119 1226 758 
Q 1494 397 1959 397 
Q 2419 397 2687 759 
Q 2956 1122 2956 1747 
Q 2956 2369 2687 2733 
Q 2419 3097 1959 3097 
z
M 1959 3584 
Q 2709 3584 3137 3096 
Q 3566 2609 3566 1747 
Q 3566 888 3137 398 
Q 2709 -91 1959 -91 
Q 1206 -91 779 398 
Q 353 888 353 1747 
Q 353 2609 779 3096 
Q 1206 3584 1959 3584 
z
" transform="scale(0.015625)"/>
       <path id="DejaVuSans-67" d="M 2906 1791 
Q 2906 2416 2648 2759 
Q 2391 3103 1925 3103 
Q 1463 3103 1205 2759 
Q 947 2416 947 1791 
Q 947 1169 1205 825 
Q 1463 481 1925 481 
Q 2391 481 2648 825 
Q 2906 1169 2906 1791 
z
M 3481 434 
Q 3481 -459 3084 -895 
Q 2688 -1331 1869 -1331 
Q 1566 -1331 1297 -1286 
Q 1028 -1241 775 -1147 
L 775 -588 
Q 1028 -725 1275 -790 
Q 1522 -856 1778 -856 
Q 2344 -856 2625 -561 
Q 2906 -266 2906 331 
L 2906 616 
Q 2728 306 2450 153 
Q 2172 0 1784 0 
Q 1141 0 747 490 
Q 353 981 353 1791 
Q 353 2603 747 3093 
Q 1141 3584 1784 3584 
Q 2172 3584 2450 3431 
Q 2728 3278 2906 2969 
L 2906 3500 
L 3481 3500 
L 3481 434 
z
" transform="scale(0.015625)"/>
       <path id="DejaVuSans-31" d="M 794 531 
L 1825 531 
L 1825 4091 
L 703 3866 
L 703 4441 
L 1819 4666 
L 2450 4666 
L 2450 531 
L 3481 531 
L 3481 0 
L 794 0 
L 794 531 
z
" transform="scale(0.015625)"/>
       <path id="DejaVuSans-28" d="M 1984 4856 
Q 1566 4138 1362 3434 
Q 1159 2731 1159 2009 
Q 1159 1288 1364 580 
Q 1569 -128 1984 -844 
L 1484 -844 
Q 1016 -109 783 600 
Q 550 1309 550 2009 
Q 550 2706 781 3412 
Q 1013 4119 1484 4856 
L 1984 4856 
z
" transform="scale(0.015625)"/>
       <path id="DejaVuSans-23" d="M 3272 2816 
L 2363 2816 
L 2100 1772 
L 3016 1772 
L 3272 2816 
z
M 2803 4594 
L 2478 3297 
L 3391 3297 
L 3719 4594 
L 4219 4594 
L 3897 3297 
L 4872 3297 
L 4872 2816 
L 3775 2816 
L 3519 1772 
L 4513 1772 
L 4513 1294 
L 3397 1294 
L 3072 0 
L 2572 0 
L 2894 1294 
L 1978 1294 
L 1656 0 
L 1153 0 
L 1478 1294 
L 494 1294 
L 494 1772 
L 1594 1772 
L 1856 2816 
L 850 2816 
L 850 3297 
L 1978 3297 
L 2297 4594 
L 2803 4594 
z
" transform="scale(0.015625)"/>
       <path id="DejaVuSans-20" transform="scale(0.015625)"/>
       <path id="DejaVuSans-66" d="M 2375 4863 
L 2375 4384 
L 1825 4384 
Q 1516 4384 1395 4259 
Q 1275 4134 1275 3809 
L 1275 3500 
L 2222 3500 
L 2222 3053 
L 1275 3053 
L 1275 0 
L 697 0 
L 697 3053 
L 147 3053 
L 147 3500 
L 697 3500 
L 697 3744 
Q 697 4328 969 4595 
Q 1241 4863 1831 4863 
L 2375 4863 
z
" transform="scale(0.015625)"/>
       <path id="DejaVuSans-2d" d="M 313 2009 
L 1997 2009 
L 1997 1497 
L 313 1497 
L 313 2009 
z
" transform="scale(0.015625)"/>
       <path id="DejaVuSans-65" d="M 3597 1894 
L 3597 1613 
L 953 1613 
Q 991 1019 1311 708 
Q 1631 397 2203 397 
Q 2534 397 2845 478 
Q 3156 559 3463 722 
L 3463 178 
Q 3153 47 2828 -22 
Q 2503 -91 2169 -91 
Q 1331 -91 842 396 
Q 353 884 353 1716 
Q 353 2575 817 3079 
Q 1281 3584 2069 3584 
Q 2775 3584 3186 3129 
Q 3597 2675 3597 1894 
z
M 3022 2063 
Q 3016 2534 2758 2815 
Q 2500 3097 2075 3097 
Q 1594 3097 1305 2825 
Q 1016 2553 972 2059 
L 3022 2063 
z
" transform="scale(0.015625)"/>
       <path id="DejaVuSans-76" d="M 191 3500 
L 800 3500 
L 1894 563 
L 2988 3500 
L 3597 3500 
L 2284 0 
L 1503 0 
L 191 3500 
z
" transform="scale(0.015625)"/>
       <path id="DejaVuSans-61" d="M 2194 1759 
Q 1497 1759 1228 1600 
Q 959 1441 959 1056 
Q 959 750 1161 570 
Q 1363 391 1709 391 
Q 2188 391 2477 730 
Q 2766 1069 2766 1631 
L 2766 1759 
L 2194 1759 
z
M 3341 1997 
L 3341 0 
L 2766 0 
L 2766 531 
Q 2569 213 2275 61 
Q 1981 -91 1556 -91 
Q 1019 -91 701 211 
Q 384 513 384 1019 
Q 384 1609 779 1909 
Q 1175 2209 1959 2209 
L 2766 2209 
L 2766 2266 
Q 2766 2663 2505 2880 
Q 2244 3097 1772 3097 
Q 1472 3097 1187 3025 
Q 903 2953 641 2809 
L 641 3341 
Q 956 3463 1253 3523 
Q 1550 3584 1831 3584 
Q 2591 3584 2966 3190 
Q 3341 2797 3341 1997 
z
" transform="scale(0.015625)"/>
       <path id="DejaVuSans-73" d="M 2834 3397 
L 2834 2853 
Q 2591 2978 2328 3040 
Q 2066 3103 1784 3103 
Q 1356 3103 1142 2972 
Q 928 2841 928 2578 
Q 928 2378 1081 2264 
Q 1234 2150 1697 2047 
L 1894 2003 
Q 2506 1872 2764 1633 
Q 3022 1394 3022 966 
Q 3022 478 2636 193 
Q 2250 -91 1575 -91 
Q 1294 -91 989 -36 
Q 684 19 347 128 
L 347 722 
Q 666 556 975 473 
Q 1284 391 1588 391 
Q 1994 391 2212 530 
Q 2431 669 2431 922 
Q 2431 1156 2273 1281 
Q 2116 1406 1581 1522 
L 1381 1569 
Q 847 1681 609 1914 
Q 372 2147 372 2553 
Q 372 3047 722 3315 
Q 1072 3584 1716 3584 
Q 2034 3584 2315 3537 
Q 2597 3491 2834 3397 
z
" transform="scale(0.015625)"/>
       <path id="DejaVuSans-2f" d="M 1625 4666 
L 2156 4666 
L 531 -594 
L 0 -594 
L 1625 4666 
z
" transform="scale(0.015625)"/>
       <path id="DejaVuSans-64" d="M 2906 2969 
L 2906 4863 
L 3481 4863 
L 3481 0 
L 2906 0 
L 2906 525 
Q 2725 213 2448 61 
Q 2172 -91 1784 -91 
Q 1150 -91 751 415 
Q 353 922 353 1747 
Q 353 2572 751 3078 
Q 1150 3584 1784 3584 
Q 2172 3584 2448 3432 
Q 2725 3281 2906 2969 
z
M 947 1747 
Q 947 1113 1208 752 
Q 1469 391 1925 391 
Q 2381 391 2643 752 
Q 2906 1113 2906 1747 
Q 2906 2381 2643 2742 
Q 2381 3103 1925 3103 
Q 1469 3103 1208 2742 
Q 947 2381 947 1747 
z
" transform="scale(0.015625)"/>
       <path id="DejaVuSans-69" d="M 603 3500 
L 1178 3500 
L 1178 0 
L 603 0 
L 603 3500 
z
M 603 4863 
L 1178 4863 
L 1178 4134 
L 603 4134 
L 603 4863 
z
" transform="scale(0.015625)"/>
       <path id="DejaVuSans-6d" d="M 3328 2828 
Q 3544 3216 3844 3400 
Q 4144 3584 4550 3584 
Q 5097 3584 5394 3201 
Q 5691 2819 5691 2113 
L 5691 0 
L 5113 0 
L 5113 2094 
Q 5113 2597 4934 2840 
Q 4756 3084 4391 3084 
Q 3944 3084 3684 2787 
Q 3425 2491 3425 1978 
L 3425 0 
L 2847 0 
L 2847 2094 
Q 2847 2600 2669 2842 
Q 2491 3084 2119 3084 
Q 1678 3084 1418 2786 
Q 1159 2488 1159 1978 
L 1159 0 
L 581 0 
L 581 3500 
L 1159 3500 
L 1159 2956 
Q 1356 3278 1631 3431 
Q 1906 3584 2284 3584 
Q 2666 3584 2933 3390 
Q 3200 3197 3328 2828 
z
" transform="scale(0.015625)"/>
       <path id="DejaVuSans-6e" d="M 3513 2113 
L 3513 0 
L 2938 0 
L 2938 2094 
Q 2938 2591 2744 2837 
Q 2550 3084 2163 3084 
Q 1697 3084 1428 2787 
Q 1159 2491 1159 1978 
L 1159 0 
L 581 0 
L 581 3500 
L 1159 3500 
L 1159 2956 
Q 1366 3272 1645 3428 
Q 1925 3584 2291 3584 
Q 2894 3584 3203 3211 
Q 3513 2838 3513 2113 
z
" transform="scale(0.015625)"/>
       <path id="DejaVuSans-29" d="M 513 4856 
L 1013 4856 
Q 1481 4119 1714 3412 
Q 1947 2706 1947 2009 
Q 1947 1309 1714 600 
Q 1481 -109 1013 -844 
L 513 -844 
Q 928 -128 1133 580 
Q 1338 1288 1338 2009 
Q 1338 2731 1133 3434 
Q 928 4138 513 4856 
z
" transform="scale(0.015625)"/>
      </defs>
      <use xlink:href="#DejaVuSans-6c"/>
      <use xlink:href="#DejaVuSans-6f" x="27.783203"/>
      <use xlink:href="#DejaVuSans-67" x="88.964844"/>
      <use xlink:href="#DejaVuSans-31" x="152.441406"/>
      <use xlink:href="#DejaVuSans-30" x="216.064453"/>
      <use xlink:href="#DejaVuSans-28" x="279.6875"/>
      <use xlink:href="#DejaVuSans-23" x="318.701172"/>
      <use xlink:href="#DejaVuSans-20" x="402.490234"/>
      <use xlink:href="#DejaVuSans-66" x="434.277344"/>
      <use xlink:href="#DejaVuSans-2d" x="463.982422"/>
      <use xlink:href="#DejaVuSans-65" x="500.066406"/>
      <use xlink:href="#DejaVuSans-76" x="561.589844"/>
      <use xlink:href="#DejaVuSans-61" x="620.769531"/>
      <use xlink:href="#DejaVuSans-6c" x="682.048828"/>
      <use xlink:href="#DejaVuSans-73" x="709.832031"/>
      <use xlink:href="#DejaVuSans-20" x="761.931641"/>
      <use xlink:href="#DejaVuSans-2f" x="793.71875"/>
      <use xlink:href="#DejaVuSans-20" x="827.410156"/>
      <use xlink:href="#DejaVuSans-64" x="859.197266"/>
      <use xlink:href="#DejaVuSans-69" x="922.673828"/>
      <use xlink:href="#DejaVuSans-6d" x="950.457031"/>
      <use xlink:href="#DejaVuSans-65" x="1047.869141"/>
      <use xlink:href="#DejaVuSans-6e" x="1109.392578"/>
      <use xlink:href="#DejaVuSans-73" x="1172.771484"/>
      <use xlink:href="#DejaVuSans-69" x="1224.871094"/>
      <use xlink:href="#DejaVuSans-6f" x="1252.654297"/>
      <use xlink:href="#DejaVuSans-6e" x="1313.835938"/>
      <use xlink:href="#DejaVuSans-29" x="1377.214844"/>
     </g>
    </g>
   </g>
   <g id="matplotlib.axis_2">
    <g id="ytick_1">
     <g id="line2d_17">
      <path d="M 57.6 298.944 
L 360.8064 298.944 
" clip-path="url(#p003e448295)" style="fill: none; stroke: #b0b0b0; stroke-width: 0.8; stroke-linecap: square"/>
     </g>
     <g id="line2d_18">
      <defs>
       <path id="m73548114a8" d="M 0 0 
L -3.5 0 
" style="stroke: #000000; stroke-width: 0.8"/>
      </defs>
      <g>
       <use xlink:href="#m73548114a8" x="57.6" y="298.944" style="stroke: #000000; stroke-width: 0.8"/>
      </g>
     </g>
     <g id="text_6">
      <!-- 0.0 -->
      <g transform="translate(25.155 305.02275)scale(0.16 -0.16)">
       <defs>
        <path id="DejaVuSans-2e" d="M 684 794 
L 1344 794 
L 1344 0 
L 684 0 
L 684 794 
z
" transform="scale(0.015625)"/>
       </defs>
       <use xlink:href="#DejaVuSans-30"/>
       <use xlink:href="#DejaVuSans-2e" x="63.623047"/>
       <use xlink:href="#DejaVuSans-30" x="95.410156"/>
      </g>
     </g>
    </g>
    <g id="ytick_2">
     <g id="line2d_19">
      <path d="M 57.6 240.5376 
L 360.8064 240.5376 
" clip-path="url(#p003e448295)" style="fill: none; stroke: #b0b0b0; stroke-width: 0.8; stroke-linecap: square"/>
     </g>
     <g id="line2d_20">
      <g>
       <use xlink:href="#m73548114a8" x="57.6" y="240.5376" style="stroke: #000000; stroke-width: 0.8"/>
      </g>
     </g>
     <g id="text_7">
      <!-- 0.2 -->
      <g transform="translate(25.155 246.61635)scale(0.16 -0.16)">
       <use xlink:href="#DejaVuSans-30"/>
       <use xlink:href="#DejaVuSans-2e" x="63.623047"/>
       <use xlink:href="#DejaVuSans-32" x="95.410156"/>
      </g>
     </g>
    </g>
    <g id="ytick_3">
     <g id="line2d_21">
      <path d="M 57.6 182.1312 
L 360.8064 182.1312 
" clip-path="url(#p003e448295)" style="fill: none; stroke: #b0b0b0; stroke-width: 0.8; stroke-linecap: square"/>
     </g>
     <g id="line2d_22">
      <g>
       <use xlink:href="#m73548114a8" x="57.6" y="182.1312" style="stroke: #000000; stroke-width: 0.8"/>
      </g>
     </g>
     <g id="text_8">
      <!-- 0.4 -->
      <g transform="translate(25.155 188.20995)scale(0.16 -0.16)">
       <use xlink:href="#DejaVuSans-30"/>
       <use xlink:href="#DejaVuSans-2e" x="63.623047"/>
       <use xlink:href="#DejaVuSans-34" x="95.410156"/>
      </g>
     </g>
    </g>
    <g id="ytick_4">
     <g id="line2d_23">
      <path d="M 57.6 123.7248 
L 360.8064 123.7248 
" clip-path="url(#p003e448295)" style="fill: none; stroke: #b0b0b0; stroke-width: 0.8; stroke-linecap: square"/>
     </g>
     <g id="line2d_24">
      <g>
       <use xlink:href="#m73548114a8" x="57.6" y="123.7248" style="stroke: #000000; stroke-width: 0.8"/>
      </g>
     </g>
     <g id="text_9">
      <!-- 0.6 -->
      <g transform="translate(25.155 129.80355)scale(0.16 -0.16)">
       <use xlink:href="#DejaVuSans-30"/>
       <use xlink:href="#DejaVuSans-2e" x="63.623047"/>
       <use xlink:href="#DejaVuSans-36" x="95.410156"/>
      </g>
     </g>
    </g>
    <g id="ytick_5">
     <g id="line2d_25">
      <path d="M 57.6 65.3184 
L 360.8064 65.3184 
" clip-path="url(#p003e448295)" style="fill: none; stroke: #b0b0b0; stroke-width: 0.8; stroke-linecap: square"/>
     </g>
     <g id="line2d_26">
      <g>
       <use xlink:href="#m73548114a8" x="57.6" y="65.3184" style="stroke: #000000; stroke-width: 0.8"/>
      </g>
     </g>
     <g id="text_10">
      <!-- 0.8 -->
      <g transform="translate(25.155 71.39715)scale(0.16 -0.16)">
       <defs>
        <path id="DejaVuSans-38" d="M 2034 2216 
Q 1584 2216 1326 1975 
Q 1069 1734 1069 1313 
Q 1069 891 1326 650 
Q 1584 409 2034 409 
Q 2484 409 2743 651 
Q 3003 894 3003 1313 
Q 3003 1734 2745 1975 
Q 2488 2216 2034 2216 
z
M 1403 2484 
Q 997 2584 770 2862 
Q 544 3141 544 3541 
Q 544 4100 942 4425 
Q 1341 4750 2034 4750 
Q 2731 4750 3128 4425 
Q 3525 4100 3525 3541 
Q 3525 3141 3298 2862 
Q 3072 2584 2669 2484 
Q 3125 2378 3379 2068 
Q 3634 1759 3634 1313 
Q 3634 634 3220 271 
Q 2806 -91 2034 -91 
Q 1263 -91 848 271 
Q 434 634 434 1313 
Q 434 1759 690 2068 
Q 947 2378 1403 2484 
z
M 1172 3481 
Q 1172 3119 1398 2916 
Q 1625 2713 2034 2713 
Q 2441 2713 2670 2916 
Q 2900 3119 2900 3481 
Q 2900 3844 2670 4047 
Q 2441 4250 2034 4250 
Q 1625 4250 1398 4047 
Q 1172 3844 1172 3481 
z
" transform="scale(0.015625)"/>
       </defs>
       <use xlink:href="#DejaVuSans-30"/>
       <use xlink:href="#DejaVuSans-2e" x="63.623047"/>
       <use xlink:href="#DejaVuSans-38" x="95.410156"/>
      </g>
     </g>
    </g>
    <g id="ytick_6">
     <g id="line2d_27">
      <path d="M 57.6 6.912 
L 360.8064 6.912 
" clip-path="url(#p003e448295)" style="fill: none; stroke: #b0b0b0; stroke-width: 0.8; stroke-linecap: square"/>
     </g>
     <g id="line2d_28">
      <g>
       <use xlink:href="#m73548114a8" x="57.6" y="6.912" style="stroke: #000000; stroke-width: 0.8"/>
      </g>
     </g>
     <g id="text_11">
      <!-- 1.0 -->
      <g transform="translate(25.155 12.99075)scale(0.16 -0.16)">
       <use xlink:href="#DejaVuSans-31"/>
       <use xlink:href="#DejaVuSans-2e" x="63.623047"/>
       <use xlink:href="#DejaVuSans-30" x="95.410156"/>
      </g>
     </g>
    </g>
    <g id="text_12">
     <!-- Fraction of function,target pairs -->
     <g transform="translate(17.619531 287.313)rotate(-90)scale(0.17 -0.17)">
      <defs>
       <path id="DejaVuSans-46" d="M 628 4666 
L 3309 4666 
L 3309 4134 
L 1259 4134 
L 1259 2759 
L 3109 2759 
L 3109 2228 
L 1259 2228 
L 1259 0 
L 628 0 
L 628 4666 
z
" transform="scale(0.015625)"/>
       <path id="DejaVuSans-72" d="M 2631 2963 
Q 2534 3019 2420 3045 
Q 2306 3072 2169 3072 
Q 1681 3072 1420 2755 
Q 1159 2438 1159 1844 
L 1159 0 
L 581 0 
L 581 3500 
L 1159 3500 
L 1159 2956 
Q 1341 3275 1631 3429 
Q 1922 3584 2338 3584 
Q 2397 3584 2469 3576 
Q 2541 3569 2628 3553 
L 2631 2963 
z
" transform="scale(0.015625)"/>
       <path id="DejaVuSans-63" d="M 3122 3366 
L 3122 2828 
Q 2878 2963 2633 3030 
Q 2388 3097 2138 3097 
Q 1578 3097 1268 2742 
Q 959 2388 959 1747 
Q 959 1106 1268 751 
Q 1578 397 2138 397 
Q 2388 397 2633 464 
Q 2878 531 3122 666 
L 3122 134 
Q 2881 22 2623 -34 
Q 2366 -91 2075 -91 
Q 1284 -91 818 406 
Q 353 903 353 1747 
Q 353 2603 823 3093 
Q 1294 3584 2113 3584 
Q 2378 3584 2631 3529 
Q 2884 3475 3122 3366 
z
" transform="scale(0.015625)"/>
       <path id="DejaVuSans-74" d="M 1172 4494 
L 1172 3500 
L 2356 3500 
L 2356 3053 
L 1172 3053 
L 1172 1153 
Q 1172 725 1289 603 
Q 1406 481 1766 481 
L 2356 481 
L 2356 0 
L 1766 0 
Q 1100 0 847 248 
Q 594 497 594 1153 
L 594 3053 
L 172 3053 
L 172 3500 
L 594 3500 
L 594 4494 
L 1172 4494 
z
" transform="scale(0.015625)"/>
       <path id="DejaVuSans-75" d="M 544 1381 
L 544 3500 
L 1119 3500 
L 1119 1403 
Q 1119 906 1312 657 
Q 1506 409 1894 409 
Q 2359 409 2629 706 
Q 2900 1003 2900 1516 
L 2900 3500 
L 3475 3500 
L 3475 0 
L 2900 0 
L 2900 538 
Q 2691 219 2414 64 
Q 2138 -91 1772 -91 
Q 1169 -91 856 284 
Q 544 659 544 1381 
z
M 1991 3584 
L 1991 3584 
z
" transform="scale(0.015625)"/>
       <path id="DejaVuSans-2c" d="M 750 794 
L 1409 794 
L 1409 256 
L 897 -744 
L 494 -744 
L 750 256 
L 750 794 
z
" transform="scale(0.015625)"/>
       <path id="DejaVuSans-70" d="M 1159 525 
L 1159 -1331 
L 581 -1331 
L 581 3500 
L 1159 3500 
L 1159 2969 
Q 1341 3281 1617 3432 
Q 1894 3584 2278 3584 
Q 2916 3584 3314 3078 
Q 3713 2572 3713 1747 
Q 3713 922 3314 415 
Q 2916 -91 2278 -91 
Q 1894 -91 1617 61 
Q 1341 213 1159 525 
z
M 3116 1747 
Q 3116 2381 2855 2742 
Q 2594 3103 2138 3103 
Q 1681 3103 1420 2742 
Q 1159 2381 1159 1747 
Q 1159 1113 1420 752 
Q 1681 391 2138 391 
Q 2594 391 2855 752 
Q 3116 1113 3116 1747 
z
" transform="scale(0.015625)"/>
      </defs>
      <use xlink:href="#DejaVuSans-46"/>
      <use xlink:href="#DejaVuSans-72" x="50.269531"/>
      <use xlink:href="#DejaVuSans-61" x="91.382812"/>
      <use xlink:href="#DejaVuSans-63" x="152.662109"/>
      <use xlink:href="#DejaVuSans-74" x="207.642578"/>
      <use xlink:href="#DejaVuSans-69" x="246.851562"/>
      <use xlink:href="#DejaVuSans-6f" x="274.634766"/>
      <use xlink:href="#DejaVuSans-6e" x="335.816406"/>
      <use xlink:href="#DejaVuSans-20" x="399.195312"/>
      <use xlink:href="#DejaVuSans-6f" x="430.982422"/>
      <use xlink:href="#DejaVuSans-66" x="492.164062"/>
      <use xlink:href="#DejaVuSans-20" x="527.369141"/>
      <use xlink:href="#DejaVuSans-66" x="559.15625"/>
      <use xlink:href="#DejaVuSans-75" x="594.361328"/>
      <use xlink:href="#DejaVuSans-6e" x="657.740234"/>
      <use xlink:href="#DejaVuSans-63" x="721.119141"/>
      <use xlink:href="#DejaVuSans-74" x="776.099609"/>
      <use xlink:href="#DejaVuSans-69" x="815.308594"/>
      <use xlink:href="#DejaVuSans-6f" x="843.091797"/>
      <use xlink:href="#DejaVuSans-6e" x="904.273438"/>
      <use xlink:href="#DejaVuSans-2c" x="967.652344"/>
      <use xlink:href="#DejaVuSans-74" x="999.439453"/>
      <use xlink:href="#DejaVuSans-61" x="1038.648438"/>
      <use xlink:href="#DejaVuSans-72" x="1099.927734"/>
      <use xlink:href="#DejaVuSans-67" x="1139.291016"/>
      <use xlink:href="#DejaVuSans-65" x="1202.767578"/>
      <use xlink:href="#DejaVuSans-74" x="1264.291016"/>
      <use xlink:href="#DejaVuSans-20" x="1303.5"/>
      <use xlink:href="#DejaVuSans-70" x="1335.287109"/>
      <use xlink:href="#DejaVuSans-61" x="1398.763672"/>
      <use xlink:href="#DejaVuSans-69" x="1460.042969"/>
      <use xlink:href="#DejaVuSans-72" x="1487.826172"/>
      <use xlink:href="#DejaVuSans-73" x="1528.939453"/>
     </g>
    </g>
   </g>
   <g id="line2d_29">
    <defs>
     <path id="m8a95cad7af" d="M 0 1.5 
C 0.397805 1.5 0.77937 1.341951 1.06066 1.06066 
C 1.341951 0.77937 1.5 0.397805 1.5 0 
C 1.5 -0.397805 1.341951 -0.77937 1.06066 -1.06066 
C 0.77937 -1.341951 0.397805 -1.5 0 -1.5 
C -0.397805 -1.5 -0.77937 -1.341951 -1.06066 -1.06066 
C -1.341951 -0.77937 -1.5 -0.397805 -1.5 0 
C -1.5 0.397805 -1.341951 0.77937 -1.06066 1.06066 
C -0.77937 1.341951 -0.397805 1.5 0 1.5 
z
" style="stroke: #000080"/>
    </defs>
    <g>
     <use xlink:href="#m8a95cad7af" x="265.363575" y="6.912" style="fill: #000080; stroke: #000080"/>
     <use xlink:href="#m8a95cad7af" x="265.363575" y="6.912" style="fill: #000080; stroke: #000080"/>
    </g>
   </g>
   <g id="line2d_30">
    <path d="M 36.933397 298.944 
L 36.933397 296.653553 
L 49.972572 296.653553 
L 49.972572 295.508329 
L 63.011746 295.508329 
L 63.011746 292.072659 
L 67.209423 292.072659 
L 67.209423 290.927435 
L 73.538988 290.927435 
L 73.538988 286.346541 
L 82.04153 286.346541 
L 82.04153 282.910871 
L 86.578163 282.910871 
L 86.578163 280.620424 
L 87.876026 280.620424 
L 87.876026 279.4752 
L 90.230539 279.4752 
L 90.230539 278.329976 
L 98.933205 278.329976 
L 98.933205 276.039529 
L 101.532027 276.039529 
L 101.532027 274.894306 
L 103.815014 274.894306 
L 103.815014 273.749082 
L 109.756698 273.749082 
L 109.756698 272.603859 
L 112.317555 272.603859 
L 112.317555 271.458635 
L 114.571202 271.458635 
L 114.571202 270.313412 
L 115.460102 270.313412 
L 115.460102 268.022965 
L 118.64712 268.022965 
L 118.64712 266.877741 
L 120.506564 266.877741 
L 120.506564 265.732518 
L 120.726585 265.732518 
L 120.726585 264.587294 
L 121.99526 264.587294 
L 121.99526 263.442071 
L 125.526971 263.442071 
L 125.526971 262.296847 
L 132.984158 262.296847 
L 132.984158 261.151624 
L 136.318661 261.151624 
L 136.318661 260.0064 
L 137.250116 260.0064 
L 137.250116 258.861176 
L 137.699101 258.861176 
L 137.699101 257.715953 
L 140.573544 257.715953 
L 140.573544 256.570729 
L 141.896777 256.570729 
L 141.896777 255.425506 
L 164.324018 255.425506 
L 164.324018 251.989835 
L 167.269949 251.989835 
L 167.269949 250.844612 
L 167.652941 250.844612 
L 167.652941 249.699388 
L 169.178101 249.699388 
L 169.178101 248.554165 
L 169.294273 248.554165 
L 169.294273 247.408941 
L 169.703414 247.408941 
L 169.703414 246.263718 
L 170.449309 246.263718 
L 170.449309 245.118494 
L 179.403277 245.118494 
L 179.403277 243.973271 
L 180.216774 243.973271 
L 180.216774 242.828047 
L 185.743887 242.828047 
L 185.743887 241.682824 
L 186.092575 241.682824 
L 186.092575 240.5376 
L 200.217523 240.5376 
L 200.217523 239.392376 
L 200.550255 239.392376 
L 200.550255 238.247153 
L 205.196726 238.247153 
L 205.257966 232.521035 
L 205.408985 232.521035 
L 205.43323 225.649694 
L 205.537128 225.649694 
L 205.62847 216.487906 
L 205.683541 216.487906 
L 205.793202 202.745224 
L 205.802707 202.745224 
L 205.802707 201.6 
L 205.918763 201.6 
L 205.975346 194.728659 
L 206.106715 194.728659 
L 206.144082 192.438212 
L 209.375255 192.438212 
L 209.451729 189.002541 
L 209.514245 189.002541 
L 209.586272 178.695529 
L 209.630907 178.695529 
L 209.721789 168.388518 
L 209.744922 168.388518 
L 209.841008 161.517176 
L 209.877392 161.517176 
L 209.976611 146.629271 
L 214.469968 146.629271 
L 214.469968 145.484047 
L 214.654893 145.484047 
L 214.654893 144.338824 
L 217.782708 144.338824 
L 217.890475 139.757929 
L 217.89922 139.757929 
L 218.003839 124.870024 
L 218.043542 124.870024 
L 218.148597 109.982118 
L 218.194144 109.982118 
L 218.286132 98.529882 
L 235.143563 98.529882 
L 235.235225 92.803765 
L 235.26601 92.803765 
L 235.343249 86.505035 
L 236.091083 86.505035 
L 236.20187 69.899294 
L 236.209894 69.899294 
L 236.2198 67.036235 
L 238.476519 67.036235 
L 238.585379 50.430494 
L 238.599098 50.430494 
L 238.645585 45.276988 
L 246.172423 45.276988 
L 246.248677 36.687812 
L 246.698741 36.687812 
L 246.772088 29.816471 
L 248.092885 29.816471 
L 248.193221 22.372518 
L 253.071871 22.372518 
L 253.12705 17.791624 
L 253.447972 17.791624 
L 253.479463 15.501176 
L 254.440827 15.501176 
L 254.4991 12.065506 
L 258.120711 12.065506 
L 258.154688 9.775059 
L 258.397208 9.775059 
L 258.397208 9.202447 
L 259.166532 9.202447 
L 259.189078 7.484612 
L 265.363575 7.484612 
L 265.363575 6.912 
L 360.8064 6.912 
L 360.8064 6.912 
" style="fill: none; stroke: #000080; stroke-width: 1.5; stroke-linecap: square"/>
   </g>
   <g id="line2d_31">
    <defs>
     <path id="m57f6c6fa2b" d="M 0 6 
C 1.591219 6 3.117479 5.367802 4.242641 4.242641 
C 5.367802 3.117479 6 1.591219 6 0 
C 6 -1.591219 5.367802 -3.117479 4.242641 -4.242641 
C 3.117479 -5.367802 1.591219 -6 0 -6 
C -1.591219 -6 -3.117479 -5.367802 -4.242641 -4.242641 
C -5.367802 -3.117479 -6 -1.591219 -6 0 
C -6 1.591219 -5.367802 3.117479 -4.242641 4.242641 
C -3.117479 5.367802 -1.591219 6 0 6 
z
" style="stroke: #000080; stroke-width: 1.5"/>
    </defs>
    <g>
     <use xlink:href="#m57f6c6fa2b" x="132.984158" y="261.151624" style="fill-opacity: 0; stroke: #000080; stroke-width: 1.5"/>
     <use xlink:href="#m57f6c6fa2b" x="206.144082" y="193.583435" style="fill-opacity: 0; stroke: #000080; stroke-width: 1.5"/>
     <use xlink:href="#m57f6c6fa2b" x="236.137561" y="81.351529" style="fill-opacity: 0; stroke: #000080; stroke-width: 1.5"/>
     <use xlink:href="#m57f6c6fa2b" x="265.363575" y="7.484612" style="fill-opacity: 0; stroke: #000080; stroke-width: 1.5"/>
     <use xlink:href="#m57f6c6fa2b" x="265.363575" y="6.912" style="fill-opacity: 0; stroke: #000080; stroke-width: 1.5"/>
     <use xlink:href="#m57f6c6fa2b" x="360.8064" y="6.912" style="fill-opacity: 0; stroke: #000080; stroke-width: 1.5"/>
    </g>
   </g>
   <g id="line2d_32">
    <path style="fill: none; stroke: #000080; stroke-width: 1.5; stroke-linecap: square"/>
    <g/>
   </g>
   <g id="line2d_33">
    <path d="M 230.864562 98.529882 
" clip-path="url(#p003e448295)" style="fill: none; stroke: #000080; stroke-width: 1.5; stroke-linecap: square"/>
    <defs>
     <path id="mc108b3e042" d="M -12 12 
L 12 -12 
M -12 -12 
L 12 12 
" style="stroke: #000080"/>
    </defs>
    <g clip-path="url(#p003e448295)">
     <use xlink:href="#mc108b3e042" x="230.864562" y="98.529882" style="fill: #000080; stroke: #000080"/>
    </g>
   </g>
   <g id="line2d_34">
    <defs>
     <path id="m2301729cb1" d="M 0 1.5 
C 0.397805 1.5 0.77937 1.341951 1.06066 1.06066 
C 1.341951 0.77937 1.5 0.397805 1.5 0 
C 1.5 -0.397805 1.341951 -0.77937 1.06066 -1.06066 
C 0.77937 -1.341951 0.397805 -1.5 0 -1.5 
C -0.397805 -1.5 -0.77937 -1.341951 -1.06066 -1.06066 
C -1.341951 -0.77937 -1.5 -0.397805 -1.5 0 
C -1.5 0.397805 -1.341951 0.77937 -1.06066 1.06066 
C -0.77937 1.341951 -0.397805 1.5 0 1.5 
z
" style="stroke: #ff00ff"/>
    </defs>
    <g>
     <use xlink:href="#m2301729cb1" x="199.972963" y="6.912" style="fill: #ff00ff; stroke: #ff00ff"/>
     <use xlink:href="#m2301729cb1" x="199.972963" y="6.912" style="fill: #ff00ff; stroke: #ff00ff"/>
    </g>
   </g>
   <g id="line2d_35">
    <path d="M 36.933397 298.944 
L 36.933397 292.072659 
L 57.6 292.072659 
L 57.6 287.491765 
L 63.011746 287.491765 
L 63.011746 281.765647 
L 67.209423 281.765647 
L 67.209423 280.620424 
L 73.538988 280.620424 
L 73.538988 278.329976 
L 83.678349 278.329976 
L 83.678349 273.749082 
L 90.230539 273.749082 
L 90.230539 272.603859 
L 98.933205 272.603859 
L 98.933205 270.313412 
L 106.791453 270.313412 
L 106.791453 269.168188 
L 107.68741 269.168188 
L 107.68741 266.877741 
L 113.954374 266.877741 
L 113.954374 264.587294 
L 116.583514 264.587294 
L 116.583514 263.442071 
L 120.506564 263.442071 
L 120.506564 260.0064 
L 122.990812 260.0064 
L 122.990812 257.715953 
L 123.183753 257.715953 
L 123.183753 256.570729 
L 126.836129 256.570729 
L 126.836129 255.425506 
L 127.761474 255.425506 
L 127.761474 254.280282 
L 128.643427 254.280282 
L 128.643427 253.135059 
L 128.928456 253.135059 
L 128.928456 250.844612 
L 131.191226 250.844612 
L 131.191226 247.408941 
L 132.522502 247.408941 
L 132.522502 245.118494 
L 133.097823 245.118494 
L 133.097823 243.973271 
L 134.198228 243.973271 
L 134.198228 242.828047 
L 134.516177 242.828047 
L 134.516177 240.5376 
L 135.034434 240.5376 
L 135.034434 237.101929 
L 135.237805 237.101929 
L 135.237805 235.956706 
L 135.835047 235.956706 
L 135.835047 233.666259 
L 136.029987 233.666259 
L 136.029987 230.230588 
L 136.88305 230.230588 
L 136.97549 227.940141 
L 137.520791 227.940141 
L 137.520791 225.649694 
L 137.963436 225.649694 
L 137.963436 224.504471 
L 138.224108 224.504471 
L 138.224108 223.359247 
L 139.232111 223.359247 
L 139.313723 218.778353 
L 140.110942 218.778353 
L 140.110942 217.633129 
L 140.649551 217.633129 
L 140.649551 216.487906 
L 140.950542 216.487906 
L 140.950542 215.342682 
L 141.099251 215.342682 
L 141.099251 214.197459 
L 141.610664 214.197459 
L 141.610664 210.761788 
L 142.317949 210.761788 
L 142.317949 208.471341 
L 142.661862 208.471341 
L 142.661862 207.326118 
L 142.797687 207.326118 
L 142.797687 206.180894 
L 142.932537 206.180894 
L 142.932537 203.890447 
L 143.133017 203.890447 
L 143.133017 199.309553 
L 144.041338 199.309553 
L 144.041338 195.873882 
L 145.088405 195.873882 
L 145.088405 193.583435 
L 145.26728 193.583435 
L 145.26728 192.438212 
L 145.851536 192.438212 
L 145.851536 191.292988 
L 146.47393 191.292988 
L 146.47393 187.857318 
L 146.968277 187.857318 
L 146.968277 186.712094 
L 147.183884 186.712094 
L 147.183884 185.566871 
L 148.226342 185.566871 
L 148.276979 182.1312 
L 148.775988 182.1312 
L 148.775988 180.985976 
L 149.357835 180.985976 
L 149.357835 179.840753 
L 150.243797 179.840753 
L 150.243797 176.405082 
L 150.515122 176.405082 
L 150.559965 170.678965 
L 150.78259 170.678965 
L 150.78259 168.388518 
L 151.133398 168.388518 
L 151.133398 167.243294 
L 152.675851 167.243294 
L 152.675851 158.081506 
L 153.266838 158.081506 
L 153.266838 154.645835 
L 153.802162 154.645835 
L 153.802162 152.355388 
L 155.357123 152.355388 
L 155.426411 150.064941 
L 155.495444 150.064941 
L 155.495444 148.919718 
L 155.701037 148.919718 
L 155.735085 143.1936 
L 156.501649 143.1936 
L 156.501649 140.903153 
L 157.080512 140.903153 
L 157.080512 138.612706 
L 158.336102 138.612706 
L 158.336102 137.467482 
L 158.600851 137.467482 
L 158.600851 130.596141 
L 159.513105 130.596141 
L 159.513105 129.450918 
L 159.706897 129.450918 
L 159.706897 127.160471 
L 160.276577 127.160471 
L 160.276577 124.870024 
L 160.489139 124.870024 
L 160.489139 121.434353 
L 161.087207 121.434353 
L 161.087207 119.143906 
L 161.366654 119.143906 
L 161.366654 117.998682 
L 173.195121 117.998682 
L 173.195121 115.708235 
L 173.567903 115.708235 
L 173.567903 109.982118 
L 174.164733 109.982118 
L 174.253918 106.546447 
L 174.279322 106.546447 
L 174.279322 105.401224 
L 174.581522 105.401224 
L 174.618958 100.820329 
L 174.854337 100.820329 
L 174.92806 93.948988 
L 176.805529 93.948988 
L 176.805529 92.803765 
L 191.219357 92.803765 
L 191.219357 90.513318 
L 191.419455 90.513318 
L 191.419455 87.077647 
L 191.652764 87.077647 
L 191.652764 85.932424 
L 192.490724 85.932424 
L 192.490724 84.7872 
L 197.060729 84.7872 
L 197.079626 79.061082 
L 197.29745 79.061082 
L 197.386852 75.625412 
L 197.501704 75.625412 
L 197.612187 72.189741 
L 197.659862 72.189741 
L 197.659862 71.044518 
L 197.776704 71.044518 
L 197.85299 66.463624 
L 197.925356 66.463624 
L 197.950618 58.447059 
L 198.076424 58.447059 
L 198.147938 50.430494 
L 198.286612 50.430494 
L 198.286612 44.704376 
L 198.930846 44.704376 
L 198.99919 40.123482 
L 199.067286 40.123482 
L 199.17235 32.106918 
L 199.199369 32.106918 
L 199.280192 29.816471 
L 199.404118 29.816471 
L 199.404118 22.945129 
L 199.633064 22.945129 
L 199.735024 11.492894 
L 199.771071 11.492894 
L 199.771071 9.202447 
L 199.972963 9.202447 
L 199.972963 6.912 
L 360.8064 6.912 
L 360.8064 6.912 
" style="fill: none; stroke: #ff00ff; stroke-width: 1.5; stroke-linecap: square"/>
   </g>
   <g id="line2d_36">
    <defs>
     <path id="mb5b05c364d" d="M -0 8.485281 
L 5.091169 0 
L 0 -8.485281 
L -5.091169 -0 
z
" style="stroke: #ff00ff; stroke-width: 1.5; stroke-linejoin: miter"/>
    </defs>
    <g>
     <use xlink:href="#mb5b05c364d" x="135.835047" y="233.666259" style="fill-opacity: 0; stroke: #ff00ff; stroke-width: 1.5; stroke-linejoin: miter"/>
     <use xlink:href="#mb5b05c364d" x="174.903518" y="99.675106" style="fill-opacity: 0; stroke: #ff00ff; stroke-width: 1.5; stroke-linejoin: miter"/>
     <use xlink:href="#mb5b05c364d" x="199.972963" y="9.202447" style="fill-opacity: 0; stroke: #ff00ff; stroke-width: 1.5; stroke-linejoin: miter"/>
     <use xlink:href="#mb5b05c364d" x="199.972963" y="6.912" style="fill-opacity: 0; stroke: #ff00ff; stroke-width: 1.5; stroke-linejoin: miter"/>
     <use xlink:href="#mb5b05c364d" x="199.972963" y="6.912" style="fill-opacity: 0; stroke: #ff00ff; stroke-width: 1.5; stroke-linejoin: miter"/>
     <use xlink:href="#mb5b05c364d" x="360.8064" y="6.912" style="fill-opacity: 0; stroke: #ff00ff; stroke-width: 1.5; stroke-linejoin: miter"/>
    </g>
   </g>
   <g id="line2d_37">
    <path style="fill: none; stroke: #ff00ff; stroke-width: 1.5; stroke-linecap: square"/>
    <g/>
   </g>
   <g id="line2d_38">
    <defs>
     <path id="ma950f3d971" d="M 0 1.5 
C 0.397805 1.5 0.77937 1.341951 1.06066 1.06066 
C 1.341951 0.77937 1.5 0.397805 1.5 0 
C 1.5 -0.397805 1.341951 -0.77937 1.06066 -1.06066 
C 0.77937 -1.341951 0.397805 -1.5 0 -1.5 
C -0.397805 -1.5 -0.77937 -1.341951 -1.06066 -1.06066 
C -1.341951 -0.77937 -1.5 -0.397805 -1.5 0 
C -1.5 0.397805 -1.341951 0.77937 -1.06066 1.06066 
C -0.77937 1.341951 -0.397805 1.5 0 1.5 
z
" style="stroke: #ff7500"/>
    </defs>
    <g>
     <use xlink:href="#ma950f3d971" x="262.233427" y="6.912" style="fill: #ff7500; stroke: #ff7500"/>
     <use xlink:href="#ma950f3d971" x="262.233427" y="6.912" style="fill: #ff7500; stroke: #ff7500"/>
    </g>
   </g>
   <g id="line2d_39">
    <path d="M 36.933397 298.944 
L 36.933397 266.877741 
L 49.972572 266.877741 
L 49.972572 265.732518 
L 57.6 265.732518 
L 57.6 264.587294 
L 76.050921 264.587294 
L 76.050921 258.861176 
L 80.248597 258.861176 
L 80.248597 256.570729 
L 86.578163 256.570729 
L 86.578163 254.280282 
L 94.205591 254.280282 
L 94.205591 253.135059 
L 104.860369 253.135059 
L 104.860369 251.989835 
L 105.850679 251.989835 
L 105.850679 250.844612 
L 106.326946 250.844612 
L 106.326946 249.699388 
L 108.542628 249.699388 
L 108.542628 246.263718 
L 113.316634 246.263718 
L 113.316634 245.118494 
L 114.571202 245.118494 
L 114.571202 243.973271 
L 114.872193 243.973271 
L 114.872193 242.828047 
L 116.308887 242.828047 
L 116.308887 241.682824 
L 118.889854 241.682824 
L 118.889854 240.5376 
L 119.599808 240.5376 
L 119.599808 239.392376 
L 121.99526 239.392376 
L 121.99526 238.247153 
L 123.563797 238.247153 
L 123.563797 237.101929 
L 124.481616 237.101929 
L 124.481616 235.956706 
L 125.184934 235.956706 
L 125.184934 234.811482 
L 125.35673 234.811482 
L 125.35673 233.666259 
L 126.028642 233.666259 
L 126.028642 231.375812 
L 126.993549 231.375812 
L 126.993549 230.230588 
L 127.761474 230.230588 
L 127.761474 229.085365 
L 129.209231 229.085365 
L 129.209231 227.940141 
L 129.622688 227.940141 
L 129.622688 226.794918 
L 130.4233 226.794918 
L 130.4233 225.649694 
L 130.938718 225.649694 
L 130.938718 224.504471 
L 132.287354 224.504471 
L 132.287354 222.214024 
L 135.034434 222.214024 
L 135.136394 218.778353 
L 135.438999 218.778353 
L 135.438999 215.342682 
L 138.137618 215.342682 
L 138.137618 211.907012 
L 139.796097 211.907012 
L 139.796097 209.616565 
L 141.173167 209.616565 
L 141.173167 208.471341 
L 142.108542 208.471341 
L 142.178603 205.035671 
L 142.729897 205.035671 
L 142.797687 202.745224 
L 144.417581 202.745224 
L 144.417581 201.6 
L 144.602918 201.6 
L 144.602918 200.454776 
L 144.907812 200.454776 
L 144.968202 197.019106 
L 147.022411 197.019106 
L 147.022411 195.873882 
L 148.775988 195.873882 
L 148.775988 194.728659 
L 150.649331 194.728659 
L 150.649331 193.583435 
L 164.70794 193.583435 
L 164.70794 192.438212 
L 165.854592 192.438212 
L 165.854592 191.292988 
L 169.816397 191.292988 
L 169.816397 190.147765 
L 170.056241 190.147765 
L 170.056241 189.002541 
L 170.293066 189.002541 
L 170.340075 185.566871 
L 170.49593 185.566871 
L 170.49593 184.421647 
L 170.619691 184.421647 
L 170.619691 183.276424 
L 170.742643 183.276424 
L 170.742643 182.1312 
L 171.001277 182.1312 
L 171.001277 180.985976 
L 171.166753 180.985976 
L 171.166753 179.840753 
L 171.286192 179.840753 
L 171.330787 176.405082 
L 171.625414 176.405082 
L 171.625414 174.114635 
L 171.771015 174.114635 
L 171.771015 172.969412 
L 172.144386 172.969412 
L 172.144386 171.824188 
L 173.033068 171.824188 
L 173.033068 170.678965 
L 173.18167 170.678965 
L 173.18167 167.243294 
L 175.171736 167.243294 
L 175.171736 166.098071 
L 175.424244 166.098071 
L 175.424244 164.952847 
L 176.219382 164.952847 
L 176.219382 163.807624 
L 176.514738 163.807624 
L 176.514738 162.6624 
L 177.287622 162.6624 
L 177.287622 161.517176 
L 178.257396 161.517176 
L 178.257396 160.371953 
L 182.831418 160.371953 
L 182.831418 159.226729 
L 184.561993 159.226729 
L 184.561993 158.081506 
L 195.072431 158.081506 
L 195.168847 153.500612 
L 195.27309 153.500612 
L 195.310476 150.064941 
L 195.4634 150.064941 
L 195.545546 146.629271 
L 195.753411 146.629271 
L 195.769617 144.338824 
L 196.422337 144.338824 
L 196.422337 143.1936 
L 200.424193 143.1936 
L 200.424193 142.048376 
L 201.349689 142.048376 
L 201.349689 140.903153 
L 201.484669 140.903153 
L 201.54435 138.612706 
L 203.336199 138.612706 
L 203.401095 136.322259 
L 203.457695 136.322259 
L 203.527537 132.886588 
L 203.629149 132.886588 
L 203.722256 129.450918 
L 203.78319 129.450918 
L 203.891326 127.160471 
L 204.374232 127.160471 
L 204.374232 126.015247 
L 204.689418 126.015247 
L 204.689418 123.7248 
L 204.810021 123.7248 
L 204.810021 122.579576 
L 205.25552 122.579576 
L 205.25552 121.434353 
L 207.181175 121.434353 
L 207.286858 113.417788 
L 207.308801 113.417788 
L 207.415952 109.982118 
L 207.4421 109.982118 
L 207.468212 106.546447 
L 207.606868 106.546447 
L 207.697308 104.256 
L 207.774484 104.256 
L 207.842819 98.529882 
L 207.951219 98.529882 
L 207.993559 95.094212 
L 208.098993 95.094212 
L 208.12631 88.222871 
L 216.065402 88.222871 
L 216.150573 79.061082 
L 216.223075 79.061082 
L 216.299378 73.334965 
L 216.337414 73.334965 
L 216.391619 67.608847 
L 223.467059 67.608847 
L 223.542155 61.882729 
L 223.62156 61.882729 
L 223.62156 60.737506 
L 224.064098 60.737506 
L 224.127886 58.447059 
L 226.519925 58.447059 
L 226.598741 51.575718 
L 226.641948 51.575718 
L 226.753047 41.268706 
L 230.1418 41.268706 
L 230.252875 28.671247 
L 230.287815 28.671247 
L 230.315592 24.090353 
L 235.700531 24.090353 
L 235.780838 19.509459 
L 237.936779 19.509459 
L 238.01239 16.6464 
L 241.874035 16.6464 
L 241.936434 13.210729 
L 243.551257 13.210729 
L 243.626164 9.775059 
L 246.505653 9.775059 
L 246.505653 9.202447 
L 251.343195 9.202447 
L 251.343195 8.629835 
L 254.196122 8.629835 
L 254.232724 7.484612 
L 262.233427 7.484612 
L 262.233427 6.912 
L 360.8064 6.912 
L 360.8064 6.912 
" style="fill: none; stroke: #ff7500; stroke-width: 1.5; stroke-linecap: square"/>
   </g>
   <g id="line2d_40">
    <defs>
     <path id="m053c3db095" d="M 0 -6 
L -1.347084 -1.854102 
L -5.706339 -1.854102 
L -2.179628 0.708204 
L -3.526712 4.854102 
L -0 2.291796 
L 3.526712 4.854102 
L 2.179628 0.708204 
L 5.706339 -1.854102 
L 1.347084 -1.854102 
z
" style="stroke: #ff7500; stroke-width: 1.5; stroke-linejoin: bevel"/>
    </defs>
    <g>
     <use xlink:href="#m053c3db095" x="80.248597" y="256.570729" style="fill-opacity: 0; stroke: #ff7500; stroke-width: 1.5; stroke-linejoin: bevel"/>
     <use xlink:href="#m053c3db095" x="171.286192" y="179.840753" style="fill-opacity: 0; stroke: #ff7500; stroke-width: 1.5; stroke-linejoin: bevel"/>
     <use xlink:href="#m053c3db095" x="207.774484" y="103.110776" style="fill-opacity: 0; stroke: #ff7500; stroke-width: 1.5; stroke-linejoin: bevel"/>
     <use xlink:href="#m053c3db095" x="262.233427" y="7.484612" style="fill-opacity: 0; stroke: #ff7500; stroke-width: 1.5; stroke-linejoin: bevel"/>
     <use xlink:href="#m053c3db095" x="262.233427" y="6.912" style="fill-opacity: 0; stroke: #ff7500; stroke-width: 1.5; stroke-linejoin: bevel"/>
     <use xlink:href="#m053c3db095" x="360.8064" y="6.912" style="fill-opacity: 0; stroke: #ff7500; stroke-width: 1.5; stroke-linejoin: bevel"/>
    </g>
   </g>
   <g id="line2d_41">
    <path style="fill: none; stroke: #ff7500; stroke-width: 1.5; stroke-linecap: square"/>
    <g/>
   </g>
   <g id="line2d_42">
    <path d="M 230.866443 24.090353 
" clip-path="url(#p003e448295)" style="fill: none; stroke: #ff7500; stroke-width: 1.5; stroke-linecap: square"/>
    <defs>
     <path id="m80c4cbfd5c" d="M -12 12 
L 12 -12 
M -12 -12 
L 12 12 
" style="stroke: #ff7500"/>
    </defs>
    <g clip-path="url(#p003e448295)">
     <use xlink:href="#m80c4cbfd5c" x="230.866443" y="24.090353" style="fill: #ff7500; stroke: #ff7500"/>
    </g>
   </g>
   <g id="line2d_43">
    <defs>
     <path id="m1a68181fed" d="M 0 1.5 
C 0.397805 1.5 0.77937 1.341951 1.06066 1.06066 
C 1.341951 0.77937 1.5 0.397805 1.5 0 
C 1.5 -0.397805 1.341951 -0.77937 1.06066 -1.06066 
C 0.77937 -1.341951 0.397805 -1.5 0 -1.5 
C -0.397805 -1.5 -0.77937 -1.341951 -1.06066 -1.06066 
C -1.341951 -0.77937 -1.5 -0.397805 -1.5 0 
C -1.5 0.397805 -1.341951 0.77937 -1.06066 1.06066 
C -0.77937 1.341951 -0.397805 1.5 0 1.5 
z
" style="stroke: #6495ed"/>
    </defs>
    <g>
     <use xlink:href="#m1a68181fed" x="288.892231" y="6.912" style="fill: #6495ed; stroke: #6495ed"/>
     <use xlink:href="#m1a68181fed" x="288.892231" y="6.912" style="fill: #6495ed; stroke: #6495ed"/>
    </g>
   </g>
   <g id="line2d_44">
    <path d="M 36.933397 298.944 
L 36.933397 286.346541 
L 67.209423 286.346541 
L 67.209423 281.765647 
L 70.639174 281.765647 
L 70.639174 280.620424 
L 78.266603 280.620424 
L 78.266603 279.4752 
L 85.184077 279.4752 
L 85.184077 278.329976 
L 95.080704 278.329976 
L 95.080704 276.039529 
L 96.717523 276.039529 
L 96.717523 273.749082 
L 102.12927 273.749082 
L 102.12927 272.603859 
L 104.860369 272.603859 
L 104.860369 270.313412 
L 105.850679 270.313412 
L 105.850679 269.168188 
L 106.326946 269.168188 
L 106.326946 268.022965 
L 108.119879 268.022965 
L 108.119879 266.877741 
L 111.262425 266.877741 
L 111.262425 262.296847 
L 111.620752 262.296847 
L 111.620752 261.151624 
L 113.316634 261.151624 
L 113.316634 260.0064 
L 117.121023 260.0064 
L 117.121023 258.861176 
L 119.830627 258.861176 
L 119.830627 257.715953 
L 121.159053 257.715953 
L 121.159053 256.570729 
L 121.371615 256.570729 
L 121.371615 255.425506 
L 123.183753 255.425506 
L 123.183753 254.280282 
L 124.3016 254.280282 
L 124.3016 253.135059 
L 124.836562 253.135059 
L 124.836562 250.844612 
L 125.184934 250.844612 
L 125.184934 248.554165 
L 125.862901 248.554165 
L 125.862901 247.408941 
L 127.304491 247.408941 
L 127.304491 246.263718 
L 127.610376 246.263718 
L 127.610376 245.118494 
L 128.060076 245.118494 
L 128.060076 243.973271 
L 128.643427 243.973271 
L 128.643427 242.828047 
L 130.553485 242.828047 
L 130.553485 239.392376 
L 130.811181 239.392376 
L 130.811181 238.247153 
L 131.191226 238.247153 
L 131.191226 237.101929 
L 131.31622 237.101929 
L 131.31622 235.956706 
L 132.869802 235.956706 
L 132.869802 234.811482 
L 133.323114 234.811482 
L 133.323114 233.666259 
L 133.545739 233.666259 
L 133.545739 232.521035 
L 136.97549 232.521035 
L 136.97549 231.375812 
L 137.250116 231.375812 
L 137.250116 230.230588 
L 137.787626 230.230588 
L 137.787626 229.085365 
L 140.110942 229.085365 
L 140.110942 227.940141 
L 141.246793 227.940141 
L 141.246793 226.794918 
L 143.462475 226.794918 
L 143.462475 225.649694 
L 143.914232 225.649694 
L 143.914232 224.504471 
L 144.664294 224.504471 
L 144.664294 223.359247 
L 147.502732 223.359247 
L 147.502732 222.214024 
L 150.198193 222.214024 
L 150.198193 221.0688 
L 150.958812 221.0688 
L 150.958812 219.923576 
L 151.562904 219.923576 
L 151.562904 218.778353 
L 153.688725 218.778353 
L 153.688725 215.342682 
L 155.802997 215.342682 
L 155.802997 214.197459 
L 157.206765 214.197459 
L 157.206765 213.052235 
L 157.61133 213.052235 
L 157.61133 211.907012 
L 158.571617 211.907012 
L 158.571617 210.761788 
L 159.844108 210.761788 
L 159.844108 209.616565 
L 160.276577 209.616565 
L 160.276577 207.326118 
L 161.74115 207.326118 
L 161.74115 206.180894 
L 162.05979 206.180894 
L 162.05979 203.890447 
L 164.602079 203.890447 
L 164.602079 202.745224 
L 165.774966 202.745224 
L 165.774966 201.6 
L 165.953653 201.6 
L 165.953653 200.454776 
L 168.028291 200.454776 
L 168.028291 199.309553 
L 170.464862 199.309553 
L 170.464862 197.019106 
L 171.434432 197.019106 
L 171.434432 194.728659 
L 172.001658 194.728659 
L 172.001658 193.583435 
L 172.965131 193.583435 
L 172.965131 192.438212 
L 174.1775 192.438212 
L 174.1775 191.292988 
L 174.643874 191.292988 
L 174.643874 190.147765 
L 176.150559 190.147765 
L 176.150559 189.002541 
L 176.582244 189.002541 
L 176.604692 185.566871 
L 176.938239 185.566871 
L 176.938239 184.421647 
L 177.113741 184.421647 
L 177.113741 182.1312 
L 184.458835 182.1312 
L 184.458835 180.985976 
L 184.584025 180.985976 
L 184.584025 178.695529 
L 185.204877 178.695529 
L 185.204877 177.550306 
L 185.325215 177.550306 
L 185.325215 176.405082 
L 185.79213 176.405082 
L 185.79213 175.259859 
L 188.499216 175.259859 
L 188.499216 174.114635 
L 188.981741 174.114635 
L 188.981741 172.969412 
L 189.189733 172.969412 
L 189.189733 169.533741 
L 189.514422 169.533741 
L 189.582069 166.098071 
L 189.783564 166.098071 
L 189.828049 163.807624 
L 190.440038 163.807624 
L 190.440038 162.6624 
L 193.251319 162.6624 
L 193.251319 161.517176 
L 193.504259 161.517176 
L 193.504259 160.371953 
L 193.722261 160.371953 
L 193.744825 158.081506 
L 194.186107 158.081506 
L 194.186107 156.936282 
L 197.248846 156.936282 
L 197.248846 155.791059 
L 197.486923 155.791059 
L 197.486923 154.645835 
L 198.158641 154.645835 
L 198.158641 153.500612 
L 202.587451 153.500612 
L 202.6634 148.919718 
L 202.775357 148.919718 
L 202.775357 147.774494 
L 207.524664 147.774494 
L 207.524664 145.484047 
L 207.684414 145.484047 
L 207.750936 142.048376 
L 207.827892 142.048376 
L 207.87051 138.612706 
L 207.94698 138.612706 
L 208.02314 131.741365 
L 208.159876 131.741365 
L 208.210112 129.450918 
L 215.305392 129.450918 
L 215.305392 128.305694 
L 215.436822 128.305694 
L 215.507869 124.870024 
L 215.564513 124.870024 
L 215.671669 122.579576 
L 216.402441 122.579576 
L 216.508976 117.998682 
L 216.533166 117.998682 
L 216.596182 115.708235 
L 216.880466 115.708235 
L 216.880466 114.563012 
L 218.388627 114.563012 
L 218.388627 113.417788 
L 224.139542 113.417788 
L 224.156565 107.691671 
L 224.747201 107.691671 
L 224.818231 104.256 
L 226.758507 104.256 
L 226.833224 98.529882 
L 226.869696 98.529882 
L 226.869696 97.384659 
L 228.001701 97.384659 
L 228.112332 85.932424 
L 228.152927 85.932424 
L 228.207881 80.206306 
L 231.413194 80.206306 
L 231.453339 77.343247 
L 240.839052 77.343247 
L 240.848273 75.0528 
L 242.012843 75.0528 
L 242.012843 74.480188 
L 242.525703 74.480188 
L 242.62192 57.874447 
L 244.233723 57.874447 
L 244.233723 57.301835 
L 249.544943 57.301835 
L 249.550981 55.584 
L 250.633647 55.584 
L 250.686835 44.131765 
L 253.320145 44.131765 
L 253.324705 42.986541 
L 256.267159 42.986541 
L 256.313243 35.542588 
L 260.601942 35.542588 
L 260.639194 30.961694 
L 264.122867 30.961694 
L 264.153124 25.235576 
L 266.647729 25.235576 
L 266.647729 24.662965 
L 267.101148 24.662965 
L 267.106993 22.945129 
L 269.646925 22.945129 
L 269.659684 21.227294 
L 271.90078 21.227294 
L 271.901487 20.082071 
L 273.607281 20.082071 
L 273.607281 19.509459 
L 273.915229 19.509459 
L 273.928322 16.6464 
L 275.732537 16.6464 
L 275.74529 14.928565 
L 277.387266 14.928565 
L 277.387266 14.355953 
L 278.916618 14.355953 
L 278.921004 12.638118 
L 280.318765 12.638118 
L 280.320438 10.920282 
L 281.629012 10.920282 
L 281.630616 9.775059 
L 282.856165 9.775059 
L 282.856165 9.202447 
L 284.012383 9.202447 
L 284.012606 8.057224 
L 286.120484 8.057224 
L 286.120484 7.484612 
L 288.892231 7.484612 
L 288.892231 6.912 
L 360.8064 6.912 
L 360.8064 6.912 
" style="fill: none; stroke: #6495ed; stroke-width: 1.5; stroke-linecap: square"/>
   </g>
   <g id="line2d_45">
    <defs>
     <path id="m4ebf02c857" d="M -0 6 
L 6 -6 
L -6 -6 
z
" style="stroke: #6495ed; stroke-width: 1.5; stroke-linejoin: miter"/>
    </defs>
    <g>
     <use xlink:href="#m4ebf02c857" x="124.3016" y="253.135059" style="fill-opacity: 0; stroke: #6495ed; stroke-width: 1.5; stroke-linejoin: miter"/>
     <use xlink:href="#m4ebf02c857" x="185.325215" y="176.405082" style="fill-opacity: 0; stroke: #6495ed; stroke-width: 1.5; stroke-linejoin: miter"/>
     <use xlink:href="#m4ebf02c857" x="228.001701" y="97.384659" style="fill-opacity: 0; stroke: #6495ed; stroke-width: 1.5; stroke-linejoin: miter"/>
     <use xlink:href="#m4ebf02c857" x="288.892231" y="7.484612" style="fill-opacity: 0; stroke: #6495ed; stroke-width: 1.5; stroke-linejoin: miter"/>
     <use xlink:href="#m4ebf02c857" x="288.892231" y="6.912" style="fill-opacity: 0; stroke: #6495ed; stroke-width: 1.5; stroke-linejoin: miter"/>
     <use xlink:href="#m4ebf02c857" x="360.8064" y="6.912" style="fill-opacity: 0; stroke: #6495ed; stroke-width: 1.5; stroke-linejoin: miter"/>
    </g>
   </g>
   <g id="line2d_46">
    <path style="fill: none; stroke: #6495ed; stroke-width: 1.5; stroke-linecap: square"/>
    <g/>
   </g>
   <g id="line2d_47">
    <path d="M 230.865816 80.206306 
" clip-path="url(#p003e448295)" style="fill: none; stroke: #6495ed; stroke-width: 1.5; stroke-linecap: square"/>
    <defs>
     <path id="m5695d98a30" d="M -12 12 
L 12 -12 
M -12 -12 
L 12 12 
" style="stroke: #6495ed"/>
    </defs>
    <g clip-path="url(#p003e448295)">
     <use xlink:href="#m5695d98a30" x="230.865816" y="80.206306" style="fill: #6495ed; stroke: #6495ed"/>
    </g>
   </g>
   <g id="line2d_48">
    <defs>
     <path id="m7ff84649e2" d="M 0 1.5 
C 0.397805 1.5 0.77937 1.341951 1.06066 1.06066 
C 1.341951 0.77937 1.5 0.397805 1.5 0 
C 1.5 -0.397805 1.341951 -0.77937 1.06066 -1.06066 
C 0.77937 -1.341951 0.397805 -1.5 0 -1.5 
C -0.397805 -1.5 -0.77937 -1.341951 -1.06066 -1.06066 
C -1.341951 -0.77937 -1.5 -0.397805 -1.5 0 
C -1.5 0.397805 -1.341951 0.77937 -1.06066 1.06066 
C -0.77937 1.341951 -0.397805 1.5 0 1.5 
z
" style="stroke: #ff0000"/>
    </defs>
    <g>
     <use xlink:href="#m7ff84649e2" x="290.596267" y="6.912" style="fill: #ff0000; stroke: #ff0000"/>
     <use xlink:href="#m7ff84649e2" x="290.596267" y="6.912" style="fill: #ff0000; stroke: #ff0000"/>
    </g>
   </g>
   <g id="line2d_49">
    <path d="M 36.933397 298.944 
L 36.933397 218.778353 
L 67.209423 218.778353 
L 67.209423 217.633129 
L 142.525051 217.633129 
L 142.525051 215.342682 
L 145.207843 215.342682 
L 145.207843 214.197459 
L 157.487772 214.197459 
L 157.487772 213.052235 
L 159.204482 213.052235 
L 159.204482 211.907012 
L 190.370016 211.907012 
L 190.370016 209.616565 
L 195.185565 209.616565 
L 195.185565 208.471341 
L 195.838339 208.471341 
L 195.838339 207.326118 
L 196.519877 207.326118 
L 196.519877 206.180894 
L 197.383135 206.180894 
L 197.383135 205.035671 
L 198.906867 205.035671 
L 198.906867 203.890447 
L 217.879226 203.890447 
L 217.879226 202.745224 
L 218.701185 202.745224 
L 218.701185 201.6 
L 229.32563 201.6 
L 229.32563 197.019106 
L 229.443644 197.019106 
L 229.554201 186.712094 
L 229.557561 186.712094 
L 229.664781 171.824188 
L 229.675469 171.824188 
L 229.698162 162.6624 
L 231.062876 162.6624 
L 231.062876 162.089788 
L 231.277529 162.089788 
L 231.277529 161.517176 
L 233.495936 161.517176 
L 233.582406 159.799341 
L 233.674421 159.799341 
L 233.674421 158.654118 
L 234.025329 158.654118 
L 234.025329 158.081506 
L 243.150003 158.081506 
L 243.260612 144.338824 
L 243.261909 144.338824 
L 243.329575 122.579576 
L 245.427395 122.579576 
L 245.427395 122.006965 
L 248.112694 122.006965 
L 248.112694 121.434353 
L 251.032261 121.434353 
L 251.143305 103.683388 
L 251.143519 103.683388 
L 251.151197 100.247718 
L 252.449998 100.247718 
L 252.560919 98.529882 
L 256.570618 98.529882 
L 256.658021 80.778918 
L 257.660363 80.778918 
L 257.660363 80.206306 
L 260.843345 80.206306 
L 260.913529 68.754071 
L 261.737626 68.754071 
L 261.816899 67.608847 
L 264.351422 67.608847 
L 264.378676 57.874447 
L 265.069788 57.874447 
L 265.069788 57.301835 
L 267.273347 57.301835 
L 267.305809 48.712659 
L 267.499506 48.712659 
L 267.499506 48.140047 
L 269.810151 48.140047 
L 269.838127 38.405647 
L 270.407927 38.405647 
L 270.407927 37.833035 
L 272.04993 37.833035 
L 272.071892 30.389082 
L 272.509332 30.389082 
L 272.509332 29.816471 
L 274.041898 29.816471 
L 274.066386 23.517741 
L 275.847635 23.517741 
L 275.867992 20.082071 
L 277.513086 20.082071 
L 277.513086 19.509459 
L 279.026297 19.509459 
L 279.026539 17.791624 
L 280.411361 17.791624 
L 280.428279 13.210729 
L 281.724547 13.210729 
L 281.821228 11.492894 
L 282.9493 11.492894 
L 282.9493 10.920282 
L 285.166874 10.920282 
L 285.166874 10.347671 
L 286.185306 10.347671 
L 286.190835 8.629835 
L 288.082702 8.629835 
L 288.082702 8.057224 
L 288.955647 8.057224 
L 288.955647 7.484612 
L 290.596267 7.484612 
L 290.596267 6.912 
L 360.8064 6.912 
L 360.8064 6.912 
" style="fill: none; stroke: #ff0000; stroke-width: 1.5; stroke-linecap: square"/>
   </g>
   <g id="line2d_50">
    <defs>
     <path id="mb6afa112ee" d="M 0 -6 
L -5.196152 -3 
L -5.196152 3 
L -0 6 
L 5.196152 3 
L 5.196152 -3 
z
" style="stroke: #ff0000; stroke-width: 1.5; stroke-linejoin: miter"/>
    </defs>
    <g>
     <use xlink:href="#mb6afa112ee" x="67.209423" y="218.778353" style="fill-opacity: 0; stroke: #ff0000; stroke-width: 1.5; stroke-linejoin: miter"/>
     <use xlink:href="#mb6afa112ee" x="159.204482" y="211.907012" style="fill-opacity: 0; stroke: #ff0000; stroke-width: 1.5; stroke-linejoin: miter"/>
     <use xlink:href="#mb6afa112ee" x="243.205714" y="153.500612" style="fill-opacity: 0; stroke: #ff0000; stroke-width: 1.5; stroke-linejoin: miter"/>
     <use xlink:href="#mb6afa112ee" x="290.596267" y="7.484612" style="fill-opacity: 0; stroke: #ff0000; stroke-width: 1.5; stroke-linejoin: miter"/>
     <use xlink:href="#mb6afa112ee" x="290.596267" y="6.912" style="fill-opacity: 0; stroke: #ff0000; stroke-width: 1.5; stroke-linejoin: miter"/>
     <use xlink:href="#mb6afa112ee" x="360.8064" y="6.912" style="fill-opacity: 0; stroke: #ff0000; stroke-width: 1.5; stroke-linejoin: miter"/>
    </g>
   </g>
   <g id="line2d_51">
    <path style="fill: none; stroke: #ff0000; stroke-width: 1.5; stroke-linecap: square"/>
    <g/>
   </g>
   <g id="line2d_52">
    <path d="M 230.865189 162.6624 
" clip-path="url(#p003e448295)" style="fill: none; stroke: #ff0000; stroke-width: 1.5; stroke-linecap: square"/>
    <defs>
     <path id="m670fb0c10a" d="M -12 12 
L 12 -12 
M -12 -12 
L 12 12 
" style="stroke: #ff0000"/>
    </defs>
    <g clip-path="url(#p003e448295)">
     <use xlink:href="#m670fb0c10a" x="230.865189" y="162.6624" style="fill: #ff0000; stroke: #ff0000"/>
    </g>
   </g>
   <g id="line2d_53">
    <path d="M 360.8064 6.912 
L 380.514816 293.10336 
" style="fill: none; stroke: #ff0000; stroke-width: 1.5; stroke-linecap: square"/>
    <g>
     <use xlink:href="#mb6afa112ee" x="360.8064" y="6.912" style="fill-opacity: 0; stroke: #ff0000; stroke-width: 1.5; stroke-linejoin: miter"/>
     <use xlink:href="#mb6afa112ee" x="380.514816" y="293.10336" style="fill-opacity: 0; stroke: #ff0000; stroke-width: 1.5; stroke-linejoin: miter"/>
    </g>
   </g>
   <g id="line2d_54">
    <path d="M 360.8064 6.912 
L 380.514816 223.01568 
" style="fill: none; stroke: #6495ed; stroke-width: 1.5; stroke-linecap: square"/>
    <g>
     <use xlink:href="#m4ebf02c857" x="360.8064" y="6.912" style="fill-opacity: 0; stroke: #6495ed; stroke-width: 1.5; stroke-linejoin: miter"/>
     <use xlink:href="#m4ebf02c857" x="380.514816" y="223.01568" style="fill-opacity: 0; stroke: #6495ed; stroke-width: 1.5; stroke-linejoin: miter"/>
    </g>
   </g>
   <g id="line2d_55">
    <path d="M 360.8064 6.912 
L 380.514816 152.928 
" style="fill: none; stroke: #000080; stroke-width: 1.5; stroke-linecap: square"/>
    <g>
     <use xlink:href="#m57f6c6fa2b" x="360.8064" y="6.912" style="fill-opacity: 0; stroke: #000080; stroke-width: 1.5"/>
     <use xlink:href="#m57f6c6fa2b" x="380.514816" y="152.928" style="fill-opacity: 0; stroke: #000080; stroke-width: 1.5"/>
    </g>
   </g>
   <g id="line2d_56">
    <path d="M 360.8064 6.912 
L 380.514816 82.84032 
" style="fill: none; stroke: #ff7500; stroke-width: 1.5; stroke-linecap: square"/>
    <g>
     <use xlink:href="#m053c3db095" x="360.8064" y="6.912" style="fill-opacity: 0; stroke: #ff7500; stroke-width: 1.5; stroke-linejoin: bevel"/>
     <use xlink:href="#m053c3db095" x="380.514816" y="82.84032" style="fill-opacity: 0; stroke: #ff7500; stroke-width: 1.5; stroke-linejoin: bevel"/>
    </g>
   </g>
   <g id="line2d_57">
    <path d="M 360.8064 6.912 
L 380.514816 12.75264 
" style="fill: none; stroke: #ff00ff; stroke-width: 1.5; stroke-linecap: square"/>
    <g>
     <use xlink:href="#mb5b05c364d" x="360.8064" y="6.912" style="fill-opacity: 0; stroke: #ff00ff; stroke-width: 1.5; stroke-linejoin: miter"/>
     <use xlink:href="#mb5b05c364d" x="380.514816" y="12.75264" style="fill-opacity: 0; stroke: #ff00ff; stroke-width: 1.5; stroke-linejoin: miter"/>
    </g>
   </g>
   <g id="line2d_58">
    <path d="M 360.8064 298.944 
L 360.8064 6.912 
" style="fill: none; stroke: #000000; stroke-width: 1.5; stroke-linecap: square"/>
   </g>
   <g id="patch_3">
    <path d="M 57.6 298.944 
L 360.8064 298.944 
" style="fill: none; stroke: #000000; stroke-width: 0.8; stroke-linejoin: miter; stroke-linecap: square"/>
   </g>
   <g id="patch_4">
    <path d="M 57.6 6.912 
L 360.8064 6.912 
" style="fill: none; stroke: #000000; stroke-width: 0.8; stroke-linejoin: miter; stroke-linecap: square"/>
   </g>
   <g id="text_13">
    <!-- f19 -->
    <g transform="translate(386.578944 296.966485)scale(0.14 -0.14)">
     <defs>
      <path id="DejaVuSans-39" d="M 703 97 
L 703 672 
Q 941 559 1184 500 
Q 1428 441 1663 441 
Q 2288 441 2617 861 
Q 2947 1281 2994 2138 
Q 2813 1869 2534 1725 
Q 2256 1581 1919 1581 
Q 1219 1581 811 2004 
Q 403 2428 403 3163 
Q 403 3881 828 4315 
Q 1253 4750 1959 4750 
Q 2769 4750 3195 4129 
Q 3622 3509 3622 2328 
Q 3622 1225 3098 567 
Q 2575 -91 1691 -91 
Q 1453 -91 1209 -44 
Q 966 3 703 97 
z
M 1959 2075 
Q 2384 2075 2632 2365 
Q 2881 2656 2881 3163 
Q 2881 3666 2632 3958 
Q 2384 4250 1959 4250 
Q 1534 4250 1286 3958 
Q 1038 3666 1038 3163 
Q 1038 2656 1286 2365 
Q 1534 2075 1959 2075 
z
" transform="scale(0.015625)"/>
     </defs>
     <use xlink:href="#DejaVuSans-66"/>
     <use xlink:href="#DejaVuSans-31" x="35.205078"/>
     <use xlink:href="#DejaVuSans-39" x="98.828125"/>
    </g>
   </g>
   <g id="text_14">
    <!-- f18 -->
    <g transform="translate(386.578944 226.878805)scale(0.14 -0.14)">
     <use xlink:href="#DejaVuSans-66"/>
     <use xlink:href="#DejaVuSans-31" x="35.205078"/>
     <use xlink:href="#DejaVuSans-38" x="98.828125"/>
    </g>
   </g>
   <g id="text_15">
    <!-- f15 -->
    <g transform="translate(386.578944 156.791125)scale(0.14 -0.14)">
     <defs>
      <path id="DejaVuSans-35" d="M 691 4666 
L 3169 4666 
L 3169 4134 
L 1269 4134 
L 1269 2991 
Q 1406 3038 1543 3061 
Q 1681 3084 1819 3084 
Q 2600 3084 3056 2656 
Q 3513 2228 3513 1497 
Q 3513 744 3044 326 
Q 2575 -91 1722 -91 
Q 1428 -91 1123 -41 
Q 819 9 494 109 
L 494 744 
Q 775 591 1075 516 
Q 1375 441 1709 441 
Q 2250 441 2565 725 
Q 2881 1009 2881 1497 
Q 2881 1984 2565 2268 
Q 2250 2553 1709 2553 
Q 1456 2553 1204 2497 
Q 953 2441 691 2322 
L 691 4666 
z
" transform="scale(0.015625)"/>
     </defs>
     <use xlink:href="#DejaVuSans-66"/>
     <use xlink:href="#DejaVuSans-31" x="35.205078"/>
     <use xlink:href="#DejaVuSans-35" x="98.828125"/>
    </g>
   </g>
   <g id="text_16">
    <!-- f17 -->
    <g transform="translate(386.578944 86.703445)scale(0.14 -0.14)">
     <defs>
      <path id="DejaVuSans-37" d="M 525 4666 
L 3525 4666 
L 3525 4397 
L 1831 0 
L 1172 0 
L 2766 4134 
L 525 4134 
L 525 4666 
z
" transform="scale(0.015625)"/>
     </defs>
     <use xlink:href="#DejaVuSans-66"/>
     <use xlink:href="#DejaVuSans-31" x="35.205078"/>
     <use xlink:href="#DejaVuSans-37" x="98.828125"/>
    </g>
   </g>
   <g id="text_17">
    <!-- f16 -->
    <g transform="translate(386.578944 16.615765)scale(0.14 -0.14)">
     <use xlink:href="#DejaVuSans-66"/>
     <use xlink:href="#DejaVuSans-31" x="35.205078"/>
     <use xlink:href="#DejaVuSans-36" x="98.828125"/>
    </g>
   </g>
   <g id="text_18">
    <!-- bbob -->
    <g transform="translate(60.632064 17.582726)scale(0.102 -0.102)">
     <defs>
      <path id="DejaVuSans-62" d="M 3116 1747 
Q 3116 2381 2855 2742 
Q 2594 3103 2138 3103 
Q 1681 3103 1420 2742 
Q 1159 2381 1159 1747 
Q 1159 1113 1420 752 
Q 1681 391 2138 391 
Q 2594 391 2855 752 
Q 3116 1113 3116 1747 
z
M 1159 2969 
Q 1341 3281 1617 3432 
Q 1894 3584 2278 3584 
Q 2916 3584 3314 3078 
Q 3713 2572 3713 1747 
Q 3713 922 3314 415 
Q 2916 -91 2278 -91 
Q 1894 -91 1617 61 
Q 1341 213 1159 525 
L 1159 0 
L 581 0 
L 581 4863 
L 1159 4863 
L 1159 2969 
z
" transform="scale(0.015625)"/>
     </defs>
     <use xlink:href="#DejaVuSans-62"/>
     <use xlink:href="#DejaVuSans-62" x="63.476562"/>
     <use xlink:href="#DejaVuSans-6f" x="126.953125"/>
     <use xlink:href="#DejaVuSans-62" x="188.134766"/>
    </g>
    <!-- Multi-modal functions, 3-D -->
    <g transform="translate(60.632064 29.004495)scale(0.102 -0.102)">
     <defs>
      <path id="DejaVuSans-4d" d="M 628 4666 
L 1569 4666 
L 2759 1491 
L 3956 4666 
L 4897 4666 
L 4897 0 
L 4281 0 
L 4281 4097 
L 3078 897 
L 2444 897 
L 1241 4097 
L 1241 0 
L 628 0 
L 628 4666 
z
" transform="scale(0.015625)"/>
      <path id="DejaVuSans-33" d="M 2597 2516 
Q 3050 2419 3304 2112 
Q 3559 1806 3559 1356 
Q 3559 666 3084 287 
Q 2609 -91 1734 -91 
Q 1441 -91 1130 -33 
Q 819 25 488 141 
L 488 750 
Q 750 597 1062 519 
Q 1375 441 1716 441 
Q 2309 441 2620 675 
Q 2931 909 2931 1356 
Q 2931 1769 2642 2001 
Q 2353 2234 1838 2234 
L 1294 2234 
L 1294 2753 
L 1863 2753 
Q 2328 2753 2575 2939 
Q 2822 3125 2822 3475 
Q 2822 3834 2567 4026 
Q 2313 4219 1838 4219 
Q 1578 4219 1281 4162 
Q 984 4106 628 3988 
L 628 4550 
Q 988 4650 1302 4700 
Q 1616 4750 1894 4750 
Q 2613 4750 3031 4423 
Q 3450 4097 3450 3541 
Q 3450 3153 3228 2886 
Q 3006 2619 2597 2516 
z
" transform="scale(0.015625)"/>
      <path id="DejaVuSans-44" d="M 1259 4147 
L 1259 519 
L 2022 519 
Q 2988 519 3436 956 
Q 3884 1394 3884 2338 
Q 3884 3275 3436 3711 
Q 2988 4147 2022 4147 
L 1259 4147 
z
M 628 4666 
L 1925 4666 
Q 3281 4666 3915 4102 
Q 4550 3538 4550 2338 
Q 4550 1131 3912 565 
Q 3275 0 1925 0 
L 628 0 
L 628 4666 
z
" transform="scale(0.015625)"/>
     </defs>
     <use xlink:href="#DejaVuSans-4d"/>
     <use xlink:href="#DejaVuSans-75" x="86.279297"/>
     <use xlink:href="#DejaVuSans-6c" x="149.658203"/>
     <use xlink:href="#DejaVuSans-74" x="177.441406"/>
     <use xlink:href="#DejaVuSans-69" x="216.650391"/>
     <use xlink:href="#DejaVuSans-2d" x="244.433594"/>
     <use xlink:href="#DejaVuSans-6d" x="280.517578"/>
     <use xlink:href="#DejaVuSans-6f" x="377.929688"/>
     <use xlink:href="#DejaVuSans-64" x="439.111328"/>
     <use xlink:href="#DejaVuSans-61" x="502.587891"/>
     <use xlink:href="#DejaVuSans-6c" x="563.867188"/>
     <use xlink:href="#DejaVuSans-20" x="591.650391"/>
     <use xlink:href="#DejaVuSans-66" x="623.4375"/>
     <use xlink:href="#DejaVuSans-75" x="658.642578"/>
     <use xlink:href="#DejaVuSans-6e" x="722.021484"/>
     <use xlink:href="#DejaVuSans-63" x="785.400391"/>
     <use xlink:href="#DejaVuSans-74" x="840.380859"/>
     <use xlink:href="#DejaVuSans-69" x="879.589844"/>
     <use xlink:href="#DejaVuSans-6f" x="907.373047"/>
     <use xlink:href="#DejaVuSans-6e" x="968.554688"/>
     <use xlink:href="#DejaVuSans-73" x="1031.933594"/>
     <use xlink:href="#DejaVuSans-2c" x="1084.033203"/>
     <use xlink:href="#DejaVuSans-20" x="1115.820312"/>
     <use xlink:href="#DejaVuSans-33" x="1147.607422"/>
     <use xlink:href="#DejaVuSans-2d" x="1211.230469"/>
     <use xlink:href="#DejaVuSans-44" x="1247.314453"/>
    </g>
    <!-- 51 targets: 100..1e-08 -->
    <g transform="translate(60.632064 40.426264)scale(0.102 -0.102)">
     <defs>
      <path id="DejaVuSans-3a" d="M 750 794 
L 1409 794 
L 1409 0 
L 750 0 
L 750 794 
z
M 750 3309 
L 1409 3309 
L 1409 2516 
L 750 2516 
L 750 3309 
z
" transform="scale(0.015625)"/>
     </defs>
     <use xlink:href="#DejaVuSans-35"/>
     <use xlink:href="#DejaVuSans-31" x="63.623047"/>
     <use xlink:href="#DejaVuSans-20" x="127.246094"/>
     <use xlink:href="#DejaVuSans-74" x="159.033203"/>
     <use xlink:href="#DejaVuSans-61" x="198.242188"/>
     <use xlink:href="#DejaVuSans-72" x="259.521484"/>
     <use xlink:href="#DejaVuSans-67" x="298.884766"/>
     <use xlink:href="#DejaVuSans-65" x="362.361328"/>
     <use xlink:href="#DejaVuSans-74" x="423.884766"/>
     <use xlink:href="#DejaVuSans-73" x="463.09375"/>
     <use xlink:href="#DejaVuSans-3a" x="515.193359"/>
     <use xlink:href="#DejaVuSans-20" x="548.884766"/>
     <use xlink:href="#DejaVuSans-31" x="580.671875"/>
     <use xlink:href="#DejaVuSans-30" x="644.294922"/>
     <use xlink:href="#DejaVuSans-30" x="707.917969"/>
     <use xlink:href="#DejaVuSans-2e" x="771.541016"/>
     <use xlink:href="#DejaVuSans-2e" x="803.328125"/>
     <use xlink:href="#DejaVuSans-31" x="835.115234"/>
     <use xlink:href="#DejaVuSans-65" x="898.738281"/>
     <use xlink:href="#DejaVuSans-2d" x="960.261719"/>
     <use xlink:href="#DejaVuSans-30" x="996.345703"/>
     <use xlink:href="#DejaVuSans-38" x="1059.96875"/>
    </g>
    <!-- 5 instances -->
    <g transform="translate(60.632064 51.848032)scale(0.102 -0.102)">
     <use xlink:href="#DejaVuSans-35"/>
     <use xlink:href="#DejaVuSans-20" x="63.623047"/>
     <use xlink:href="#DejaVuSans-69" x="95.410156"/>
     <use xlink:href="#DejaVuSans-6e" x="123.193359"/>
     <use xlink:href="#DejaVuSans-73" x="186.572266"/>
     <use xlink:href="#DejaVuSans-74" x="238.671875"/>
     <use xlink:href="#DejaVuSans-61" x="277.880859"/>
     <use xlink:href="#DejaVuSans-6e" x="339.160156"/>
     <use xlink:href="#DejaVuSans-63" x="402.539062"/>
     <use xlink:href="#DejaVuSans-65" x="457.519531"/>
     <use xlink:href="#DejaVuSans-73" x="519.042969"/>
    </g>
   </g>
   <g id="text_19">
    <!-- v2.6 -->
    <g style="fill: #808080" transform="translate(198.292262 293.943992)scale(0.1 -0.1)">
     <use xlink:href="#DejaVuSans-76"/>
     <use xlink:href="#DejaVuSans-32" x="59.179688"/>
     <use xlink:href="#DejaVuSans-2e" x="122.802734"/>
     <use xlink:href="#DejaVuSans-36" x="154.589844"/>
    </g>
   </g>
  </g>
 </g>
 <defs>
  <clipPath id="p003e448295">
   <rect x="57.6" y="6.912" width="303.2064" height="292.032"/>
  </clipPath>
 </defs>
</svg>
