<?xml version="1.0" encoding="utf-8" standalone="no"?>
<!DOCTYPE svg PUBLIC "-//W3C//DTD SVG 1.1//EN"
  "http://www.w3.org/Graphics/SVG/1.1/DTD/svg11.dtd">
<svg xmlns:xlink="http://www.w3.org/1999/xlink" width="460.8pt" height="345.6pt" viewBox="0 0 460.8 345.6" xmlns="http://www.w3.org/2000/svg" version="1.1">
 <metadata>
  <rdf:RDF xmlns:dc="http://purl.org/dc/elements/1.1/" xmlns:cc="http://creativecommons.org/ns#" xmlns:rdf="http://www.w3.org/1999/02/22-rdf-syntax-ns#">
   <cc:Work>
    <dc:type rdf:resource="http://purl.org/dc/dcmitype/StillImage"/>
    <dc:date>2022-03-28T13:39:57.072619</dc:date>
    <dc:format>image/svg+xml</dc:format>
    <dc:creator>
     <cc:Agent>
      <dc:title>Matplotlib v3.5.1, https://matplotlib.org/</dc:title>
     </cc:Agent>
    </dc:creator>
   </cc:Work>
  </rdf:RDF>
 </metadata>
 <defs>
  <style type="text/css">*{stroke-linejoin: round; stroke-linecap: butt}</style>
 </defs>
 <g id="figure_1">
  <g id="patch_1">
   <path d="M 0 345.6 
L 460.8 345.6 
L 460.8 0 
L 0 0 
z
" style="fill: #ffffff"/>
  </g>
  <g id="axes_1">
   <g id="patch_2">
    <path d="M 57.6 298.944 
L 360.8064 298.944 
L 360.8064 27.648 
L 57.6 27.648 
z
" style="fill: #ffffff"/>
   </g>
   <g id="line2d_1">
    <path d="M 1.245626 298.944 
L 1.245626 272.346353 
L 21.912228 272.346353 
L 21.912228 267.026824 
L 64.589687 267.026824 
L 64.589687 261.707294 
L 90.989609 261.707294 
L 90.989609 256.387765 
L 108.915146 256.387765 
L 108.915146 251.068235 
L 119.389621 251.068235 
L 119.389621 245.748706 
L 140.196609 245.748706 
L 140.196609 240.429176 
L 157.410135 240.429176 
L 157.410135 235.109647 
L 185.235743 235.109647 
L 185.235743 229.790118 
L 203.475045 229.790118 
L 203.475045 224.470588 
L 207.219884 224.470588 
L 207.219884 219.151059 
L 210.415897 219.151059 
L 210.415897 213.831529 
L 217.065846 213.831529 
L 217.065846 208.512 
L 227.370151 208.512 
L 227.370151 203.192471 
L 235.170111 203.192471 
L 235.170111 197.872941 
L 237.583949 197.872941 
L 237.583949 192.553412 
L 242.20408 192.553412 
L 242.20408 187.233882 
L 245.620428 187.233882 
L 245.620428 181.914353 
L 246.507713 181.914353 
L 246.507713 176.594824 
L 246.63392 176.594824 
L 246.63392 171.275294 
L 247.533469 171.275294 
L 247.533469 165.955765 
L 247.673097 165.955765 
L 247.673097 160.636235 
L 247.847228 160.636235 
L 247.847228 155.316706 
L 248.021687 155.316706 
L 248.021687 149.997176 
L 248.165326 149.997176 
L 248.165326 144.677647 
L 248.361264 144.677647 
L 248.361264 139.358118 
L 248.470649 139.358118 
L 248.470649 134.038588 
L 248.603186 134.038588 
L 248.603186 128.719059 
L 248.730322 128.719059 
L 248.730322 123.399529 
L 257.056729 123.399529 
L 257.056729 118.08 
L 257.137153 118.08 
L 257.137153 112.760471 
L 257.196417 112.760471 
L 257.196417 107.440941 
L 257.259124 107.440941 
L 257.259124 102.121412 
L 257.318351 102.121412 
L 257.318351 96.801882 
L 257.379873 96.801882 
L 257.379873 91.482353 
L 257.443118 91.482353 
L 257.443118 86.162824 
L 257.510577 86.162824 
L 257.510577 80.843294 
L 257.571133 80.843294 
L 257.571133 75.523765 
L 257.634328 75.523765 
L 257.634328 70.204235 
L 257.688615 70.204235 
L 257.688615 64.884706 
L 257.751214 64.884706 
L 257.751214 59.565176 
L 257.810104 59.565176 
L 257.810104 54.245647 
L 257.865588 54.245647 
L 257.865588 48.926118 
L 257.920863 48.926118 
L 257.920863 43.606588 
L 257.975443 43.606588 
L 257.975443 38.287059 
L 258.023805 38.287059 
L 258.023805 32.967529 
L 258.094967 32.967529 
L 258.094967 27.648 
L 360.8064 27.648 
" style="fill: none; stroke: #f5deb3; stroke-width: 4; stroke-linecap: square"/>
   </g>
   <g id="line2d_2">
    <defs>
     <path id="m9258a9992f" d="M -0 7.778175 
L 7.778175 0 
L 0 -7.778175 
L -7.778175 -0 
z
" style="stroke: #f5deb3; stroke-width: 1.5; stroke-linejoin: miter"/>
    </defs>
    <g>
     <use xlink:href="#m9258a9992f" x="119.389621" y="245.748706" style="fill: #f5deb3; stroke: #f5deb3; stroke-width: 1.5; stroke-linejoin: miter"/>
     <use xlink:href="#m9258a9992f" x="217.065846" y="213.831529" style="fill: #f5deb3; stroke: #f5deb3; stroke-width: 1.5; stroke-linejoin: miter"/>
     <use xlink:href="#m9258a9992f" x="257.443118" y="91.482353" style="fill: #f5deb3; stroke: #f5deb3; stroke-width: 1.5; stroke-linejoin: miter"/>
     <use xlink:href="#m9258a9992f" x="258.094967" y="32.967529" style="fill: #f5deb3; stroke: #f5deb3; stroke-width: 1.5; stroke-linejoin: miter"/>
     <use xlink:href="#m9258a9992f" x="258.094967" y="27.648" style="fill: #f5deb3; stroke: #f5deb3; stroke-width: 1.5; stroke-linejoin: miter"/>
     <use xlink:href="#m9258a9992f" x="360.8064" y="27.648" style="fill: #f5deb3; stroke: #f5deb3; stroke-width: 1.5; stroke-linejoin: miter"/>
    </g>
   </g>
   <g id="line2d_3">
    <path style="fill: none; stroke: #f5deb3; stroke-width: 4; stroke-linecap: square"/>
    <g/>
   </g>
   <g id="line2d_4">
    <path d="M 360.8064 27.648 
L 380.514816 33.07392 
" style="fill: none; stroke: #f5deb3; stroke-width: 4; stroke-linecap: square"/>
    <g>
     <use xlink:href="#m9258a9992f" x="360.8064" y="27.648" style="fill: #f5deb3; stroke: #f5deb3; stroke-width: 1.5; stroke-linejoin: miter"/>
     <use xlink:href="#m9258a9992f" x="380.514816" y="33.07392" style="fill: #f5deb3; stroke: #f5deb3; stroke-width: 1.5; stroke-linejoin: miter"/>
    </g>
   </g>
   <g id="matplotlib.axis_1">
    <g id="xtick_1">
     <g id="line2d_5">
      <path d="M 57.6 298.944 
L 57.6 27.648 
" clip-path="url(#p3e1abd53de)" style="fill: none; stroke: #b0b0b0; stroke-width: 0.8; stroke-linecap: square"/>
     </g>
     <g id="line2d_6">
      <defs>
       <path id="m7515e043e7" d="M 0 0 
L 0 3.5 
" style="stroke: #000000; stroke-width: 0.8"/>
      </defs>
      <g>
       <use xlink:href="#m7515e043e7" x="57.6" y="298.944" style="stroke: #000000; stroke-width: 0.8"/>
      </g>
     </g>
     <g id="text_1">
      <!-- 0 -->
      <g transform="translate(52.191875 318.861344)scale(0.17 -0.17)">
       <defs>
        <path id="DejaVuSans-30" d="M 2034 4250 
Q 1547 4250 1301 3770 
Q 1056 3291 1056 2328 
Q 1056 1369 1301 889 
Q 1547 409 2034 409 
Q 2525 409 2770 889 
Q 3016 1369 3016 2328 
Q 3016 3291 2770 3770 
Q 2525 4250 2034 4250 
z
M 2034 4750 
Q 2819 4750 3233 4129 
Q 3647 3509 3647 2328 
Q 3647 1150 3233 529 
Q 2819 -91 2034 -91 
Q 1250 -91 836 529 
Q 422 1150 422 2328 
Q 422 3509 836 4129 
Q 1250 4750 2034 4750 
z
" transform="scale(0.015625)"/>
       </defs>
       <use xlink:href="#DejaVuSans-30"/>
      </g>
     </g>
    </g>
    <g id="xtick_2">
     <g id="line2d_7">
      <path d="M 144.2304 298.944 
L 144.2304 27.648 
" clip-path="url(#p3e1abd53de)" style="fill: none; stroke: #b0b0b0; stroke-width: 0.8; stroke-linecap: square"/>
     </g>
     <g id="line2d_8">
      <g>
       <use xlink:href="#m7515e043e7" x="144.2304" y="298.944" style="stroke: #000000; stroke-width: 0.8"/>
      </g>
     </g>
     <g id="text_2">
      <!-- 2 -->
      <g transform="translate(138.822275 318.861344)scale(0.17 -0.17)">
       <defs>
        <path id="DejaVuSans-32" d="M 1228 531 
L 3431 531 
L 3431 0 
L 469 0 
L 469 531 
Q 828 903 1448 1529 
Q 2069 2156 2228 2338 
Q 2531 2678 2651 2914 
Q 2772 3150 2772 3378 
Q 2772 3750 2511 3984 
Q 2250 4219 1831 4219 
Q 1534 4219 1204 4116 
Q 875 4013 500 3803 
L 500 4441 
Q 881 4594 1212 4672 
Q 1544 4750 1819 4750 
Q 2544 4750 2975 4387 
Q 3406 4025 3406 3419 
Q 3406 3131 3298 2873 
Q 3191 2616 2906 2266 
Q 2828 2175 2409 1742 
Q 1991 1309 1228 531 
z
" transform="scale(0.015625)"/>
       </defs>
       <use xlink:href="#DejaVuSans-32"/>
      </g>
     </g>
    </g>
    <g id="xtick_3">
     <g id="line2d_9">
      <path d="M 230.8608 298.944 
L 230.8608 27.648 
" clip-path="url(#p3e1abd53de)" style="fill: none; stroke: #b0b0b0; stroke-width: 0.8; stroke-linecap: square"/>
     </g>
     <g id="line2d_10">
      <g>
       <use xlink:href="#m7515e043e7" x="230.8608" y="298.944" style="stroke: #000000; stroke-width: 0.8"/>
      </g>
     </g>
     <g id="text_3">
      <!-- 4 -->
      <g transform="translate(225.452675 318.861344)scale(0.17 -0.17)">
       <defs>
        <path id="DejaVuSans-34" d="M 2419 4116 
L 825 1625 
L 2419 1625 
L 2419 4116 
z
M 2253 4666 
L 3047 4666 
L 3047 1625 
L 3713 1625 
L 3713 1100 
L 3047 1100 
L 3047 0 
L 2419 0 
L 2419 1100 
L 313 1100 
L 313 1709 
L 2253 4666 
z
" transform="scale(0.015625)"/>
       </defs>
       <use xlink:href="#DejaVuSans-34"/>
      </g>
     </g>
    </g>
    <g id="xtick_4">
     <g id="line2d_11">
      <path d="M 317.4912 298.944 
L 317.4912 27.648 
" clip-path="url(#p3e1abd53de)" style="fill: none; stroke: #b0b0b0; stroke-width: 0.8; stroke-linecap: square"/>
     </g>
     <g id="line2d_12">
      <g>
       <use xlink:href="#m7515e043e7" x="317.4912" y="298.944" style="stroke: #000000; stroke-width: 0.8"/>
      </g>
     </g>
     <g id="text_4">
      <!-- 6 -->
      <g transform="translate(312.083075 318.861344)scale(0.17 -0.17)">
       <defs>
        <path id="DejaVuSans-36" d="M 2113 2584 
Q 1688 2584 1439 2293 
Q 1191 2003 1191 1497 
Q 1191 994 1439 701 
Q 1688 409 2113 409 
Q 2538 409 2786 701 
Q 3034 994 3034 1497 
Q 3034 2003 2786 2293 
Q 2538 2584 2113 2584 
z
M 3366 4563 
L 3366 3988 
Q 3128 4100 2886 4159 
Q 2644 4219 2406 4219 
Q 1781 4219 1451 3797 
Q 1122 3375 1075 2522 
Q 1259 2794 1537 2939 
Q 1816 3084 2150 3084 
Q 2853 3084 3261 2657 
Q 3669 2231 3669 1497 
Q 3669 778 3244 343 
Q 2819 -91 2113 -91 
Q 1303 -91 875 529 
Q 447 1150 447 2328 
Q 447 3434 972 4092 
Q 1497 4750 2381 4750 
Q 2619 4750 2861 4703 
Q 3103 4656 3366 4563 
z
" transform="scale(0.015625)"/>
       </defs>
       <use xlink:href="#DejaVuSans-36"/>
      </g>
     </g>
    </g>
    <g id="xtick_5">
     <g id="line2d_13">
      <path d="M 100.9152 298.944 
L 100.9152 27.648 
" clip-path="url(#p3e1abd53de)" style="fill: none; stroke: #b0b0b0; stroke-width: 0.8; stroke-linecap: square"/>
     </g>
     <g id="line2d_14">
      <defs>
       <path id="m594ea71c6f" d="M 0 0 
L 0 2 
" style="stroke: #000000; stroke-width: 0.6"/>
      </defs>
      <g>
       <use xlink:href="#m594ea71c6f" x="100.9152" y="298.944" style="stroke: #000000; stroke-width: 0.6"/>
      </g>
     </g>
    </g>
    <g id="xtick_6">
     <g id="line2d_15">
      <path d="M 187.5456 298.944 
L 187.5456 27.648 
" clip-path="url(#p3e1abd53de)" style="fill: none; stroke: #b0b0b0; stroke-width: 0.8; stroke-linecap: square"/>
     </g>
     <g id="line2d_16">
      <g>
       <use xlink:href="#m594ea71c6f" x="187.5456" y="298.944" style="stroke: #000000; stroke-width: 0.6"/>
      </g>
     </g>
    </g>
    <g id="xtick_7">
     <g id="line2d_17">
      <path d="M 274.176 298.944 
L 274.176 27.648 
" clip-path="url(#p3e1abd53de)" style="fill: none; stroke: #b0b0b0; stroke-width: 0.8; stroke-linecap: square"/>
     </g>
     <g id="line2d_18">
      <g>
       <use xlink:href="#m594ea71c6f" x="274.176" y="298.944" style="stroke: #000000; stroke-width: 0.6"/>
      </g>
     </g>
    </g>
    <g id="xtick_8">
     <g id="line2d_19">
      <path d="M 360.8064 298.944 
L 360.8064 27.648 
" clip-path="url(#p3e1abd53de)" style="fill: none; stroke: #b0b0b0; stroke-width: 0.8; stroke-linecap: square"/>
     </g>
     <g id="line2d_20">
      <g>
       <use xlink:href="#m594ea71c6f" x="360.8064" y="298.944" style="stroke: #000000; stroke-width: 0.6"/>
      </g>
     </g>
    </g>
    <g id="text_5">
     <!-- log10(# f-evals / dimension) -->
     <g transform="translate(88.823278 339.314156)scale(0.17 -0.17)">
      <defs>
       <path id="DejaVuSans-6c" d="M 603 4863 
L 1178 4863 
L 1178 0 
L 603 0 
L 603 4863 
z
" transform="scale(0.015625)"/>
       <path id="DejaVuSans-6f" d="M 1959 3097 
Q 1497 3097 1228 2736 
Q 959 2375 959 1747 
Q 959 1119 1226 758 
Q 1494 397 1959 397 
Q 2419 397 2687 759 
Q 2956 1122 2956 1747 
Q 2956 2369 2687 2733 
Q 2419 3097 1959 3097 
z
M 1959 3584 
Q 2709 3584 3137 3096 
Q 3566 2609 3566 1747 
Q 3566 888 3137 398 
Q 2709 -91 1959 -91 
Q 1206 -91 779 398 
Q 353 888 353 1747 
Q 353 2609 779 3096 
Q 1206 3584 1959 3584 
z
" transform="scale(0.015625)"/>
       <path id="DejaVuSans-67" d="M 2906 1791 
Q 2906 2416 2648 2759 
Q 2391 3103 1925 3103 
Q 1463 3103 1205 2759 
Q 947 2416 947 1791 
Q 947 1169 1205 825 
Q 1463 481 1925 481 
Q 2391 481 2648 825 
Q 2906 1169 2906 1791 
z
M 3481 434 
Q 3481 -459 3084 -895 
Q 2688 -1331 1869 -1331 
Q 1566 -1331 1297 -1286 
Q 1028 -1241 775 -1147 
L 775 -588 
Q 1028 -725 1275 -790 
Q 1522 -856 1778 -856 
Q 2344 -856 2625 -561 
Q 2906 -266 2906 331 
L 2906 616 
Q 2728 306 2450 153 
Q 2172 0 1784 0 
Q 1141 0 747 490 
Q 353 981 353 1791 
Q 353 2603 747 3093 
Q 1141 3584 1784 3584 
Q 2172 3584 2450 3431 
Q 2728 3278 2906 2969 
L 2906 3500 
L 3481 3500 
L 3481 434 
z
" transform="scale(0.015625)"/>
       <path id="DejaVuSans-31" d="M 794 531 
L 1825 531 
L 1825 4091 
L 703 3866 
L 703 4441 
L 1819 4666 
L 2450 4666 
L 2450 531 
L 3481 531 
L 3481 0 
L 794 0 
L 794 531 
z
" transform="scale(0.015625)"/>
       <path id="DejaVuSans-28" d="M 1984 4856 
Q 1566 4138 1362 3434 
Q 1159 2731 1159 2009 
Q 1159 1288 1364 580 
Q 1569 -128 1984 -844 
L 1484 -844 
Q 1016 -109 783 600 
Q 550 1309 550 2009 
Q 550 2706 781 3412 
Q 1013 4119 1484 4856 
L 1984 4856 
z
" transform="scale(0.015625)"/>
       <path id="DejaVuSans-23" d="M 3272 2816 
L 2363 2816 
L 2100 1772 
L 3016 1772 
L 3272 2816 
z
M 2803 4594 
L 2478 3297 
L 3391 3297 
L 3719 4594 
L 4219 4594 
L 3897 3297 
L 4872 3297 
L 4872 2816 
L 3775 2816 
L 3519 1772 
L 4513 1772 
L 4513 1294 
L 3397 1294 
L 3072 0 
L 2572 0 
L 2894 1294 
L 1978 1294 
L 1656 0 
L 1153 0 
L 1478 1294 
L 494 1294 
L 494 1772 
L 1594 1772 
L 1856 2816 
L 850 2816 
L 850 3297 
L 1978 3297 
L 2297 4594 
L 2803 4594 
z
" transform="scale(0.015625)"/>
       <path id="DejaVuSans-20" transform="scale(0.015625)"/>
       <path id="DejaVuSans-66" d="M 2375 4863 
L 2375 4384 
L 1825 4384 
Q 1516 4384 1395 4259 
Q 1275 4134 1275 3809 
L 1275 3500 
L 2222 3500 
L 2222 3053 
L 1275 3053 
L 1275 0 
L 697 0 
L 697 3053 
L 147 3053 
L 147 3500 
L 697 3500 
L 697 3744 
Q 697 4328 969 4595 
Q 1241 4863 1831 4863 
L 2375 4863 
z
" transform="scale(0.015625)"/>
       <path id="DejaVuSans-2d" d="M 313 2009 
L 1997 2009 
L 1997 1497 
L 313 1497 
L 313 2009 
z
" transform="scale(0.015625)"/>
       <path id="DejaVuSans-65" d="M 3597 1894 
L 3597 1613 
L 953 1613 
Q 991 1019 1311 708 
Q 1631 397 2203 397 
Q 2534 397 2845 478 
Q 3156 559 3463 722 
L 3463 178 
Q 3153 47 2828 -22 
Q 2503 -91 2169 -91 
Q 1331 -91 842 396 
Q 353 884 353 1716 
Q 353 2575 817 3079 
Q 1281 3584 2069 3584 
Q 2775 3584 3186 3129 
Q 3597 2675 3597 1894 
z
M 3022 2063 
Q 3016 2534 2758 2815 
Q 2500 3097 2075 3097 
Q 1594 3097 1305 2825 
Q 1016 2553 972 2059 
L 3022 2063 
z
" transform="scale(0.015625)"/>
       <path id="DejaVuSans-76" d="M 191 3500 
L 800 3500 
L 1894 563 
L 2988 3500 
L 3597 3500 
L 2284 0 
L 1503 0 
L 191 3500 
z
" transform="scale(0.015625)"/>
       <path id="DejaVuSans-61" d="M 2194 1759 
Q 1497 1759 1228 1600 
Q 959 1441 959 1056 
Q 959 750 1161 570 
Q 1363 391 1709 391 
Q 2188 391 2477 730 
Q 2766 1069 2766 1631 
L 2766 1759 
L 2194 1759 
z
M 3341 1997 
L 3341 0 
L 2766 0 
L 2766 531 
Q 2569 213 2275 61 
Q 1981 -91 1556 -91 
Q 1019 -91 701 211 
Q 384 513 384 1019 
Q 384 1609 779 1909 
Q 1175 2209 1959 2209 
L 2766 2209 
L 2766 2266 
Q 2766 2663 2505 2880 
Q 2244 3097 1772 3097 
Q 1472 3097 1187 3025 
Q 903 2953 641 2809 
L 641 3341 
Q 956 3463 1253 3523 
Q 1550 3584 1831 3584 
Q 2591 3584 2966 3190 
Q 3341 2797 3341 1997 
z
" transform="scale(0.015625)"/>
       <path id="DejaVuSans-73" d="M 2834 3397 
L 2834 2853 
Q 2591 2978 2328 3040 
Q 2066 3103 1784 3103 
Q 1356 3103 1142 2972 
Q 928 2841 928 2578 
Q 928 2378 1081 2264 
Q 1234 2150 1697 2047 
L 1894 2003 
Q 2506 1872 2764 1633 
Q 3022 1394 3022 966 
Q 3022 478 2636 193 
Q 2250 -91 1575 -91 
Q 1294 -91 989 -36 
Q 684 19 347 128 
L 347 722 
Q 666 556 975 473 
Q 1284 391 1588 391 
Q 1994 391 2212 530 
Q 2431 669 2431 922 
Q 2431 1156 2273 1281 
Q 2116 1406 1581 1522 
L 1381 1569 
Q 847 1681 609 1914 
Q 372 2147 372 2553 
Q 372 3047 722 3315 
Q 1072 3584 1716 3584 
Q 2034 3584 2315 3537 
Q 2597 3491 2834 3397 
z
" transform="scale(0.015625)"/>
       <path id="DejaVuSans-2f" d="M 1625 4666 
L 2156 4666 
L 531 -594 
L 0 -594 
L 1625 4666 
z
" transform="scale(0.015625)"/>
       <path id="DejaVuSans-64" d="M 2906 2969 
L 2906 4863 
L 3481 4863 
L 3481 0 
L 2906 0 
L 2906 525 
Q 2725 213 2448 61 
Q 2172 -91 1784 -91 
Q 1150 -91 751 415 
Q 353 922 353 1747 
Q 353 2572 751 3078 
Q 1150 3584 1784 3584 
Q 2172 3584 2448 3432 
Q 2725 3281 2906 2969 
z
M 947 1747 
Q 947 1113 1208 752 
Q 1469 391 1925 391 
Q 2381 391 2643 752 
Q 2906 1113 2906 1747 
Q 2906 2381 2643 2742 
Q 2381 3103 1925 3103 
Q 1469 3103 1208 2742 
Q 947 2381 947 1747 
z
" transform="scale(0.015625)"/>
       <path id="DejaVuSans-69" d="M 603 3500 
L 1178 3500 
L 1178 0 
L 603 0 
L 603 3500 
z
M 603 4863 
L 1178 4863 
L 1178 4134 
L 603 4134 
L 603 4863 
z
" transform="scale(0.015625)"/>
       <path id="DejaVuSans-6d" d="M 3328 2828 
Q 3544 3216 3844 3400 
Q 4144 3584 4550 3584 
Q 5097 3584 5394 3201 
Q 5691 2819 5691 2113 
L 5691 0 
L 5113 0 
L 5113 2094 
Q 5113 2597 4934 2840 
Q 4756 3084 4391 3084 
Q 3944 3084 3684 2787 
Q 3425 2491 3425 1978 
L 3425 0 
L 2847 0 
L 2847 2094 
Q 2847 2600 2669 2842 
Q 2491 3084 2119 3084 
Q 1678 3084 1418 2786 
Q 1159 2488 1159 1978 
L 1159 0 
L 581 0 
L 581 3500 
L 1159 3500 
L 1159 2956 
Q 1356 3278 1631 3431 
Q 1906 3584 2284 3584 
Q 2666 3584 2933 3390 
Q 3200 3197 3328 2828 
z
" transform="scale(0.015625)"/>
       <path id="DejaVuSans-6e" d="M 3513 2113 
L 3513 0 
L 2938 0 
L 2938 2094 
Q 2938 2591 2744 2837 
Q 2550 3084 2163 3084 
Q 1697 3084 1428 2787 
Q 1159 2491 1159 1978 
L 1159 0 
L 581 0 
L 581 3500 
L 1159 3500 
L 1159 2956 
Q 1366 3272 1645 3428 
Q 1925 3584 2291 3584 
Q 2894 3584 3203 3211 
Q 3513 2838 3513 2113 
z
" transform="scale(0.015625)"/>
       <path id="DejaVuSans-29" d="M 513 4856 
L 1013 4856 
Q 1481 4119 1714 3412 
Q 1947 2706 1947 2009 
Q 1947 1309 1714 600 
Q 1481 -109 1013 -844 
L 513 -844 
Q 928 -128 1133 580 
Q 1338 1288 1338 2009 
Q 1338 2731 1133 3434 
Q 928 4138 513 4856 
z
" transform="scale(0.015625)"/>
      </defs>
      <use xlink:href="#DejaVuSans-6c"/>
      <use xlink:href="#DejaVuSans-6f" x="27.783203"/>
      <use xlink:href="#DejaVuSans-67" x="88.964844"/>
      <use xlink:href="#DejaVuSans-31" x="152.441406"/>
      <use xlink:href="#DejaVuSans-30" x="216.064453"/>
      <use xlink:href="#DejaVuSans-28" x="279.6875"/>
      <use xlink:href="#DejaVuSans-23" x="318.701172"/>
      <use xlink:href="#DejaVuSans-20" x="402.490234"/>
      <use xlink:href="#DejaVuSans-66" x="434.277344"/>
      <use xlink:href="#DejaVuSans-2d" x="463.982422"/>
      <use xlink:href="#DejaVuSans-65" x="500.066406"/>
      <use xlink:href="#DejaVuSans-76" x="561.589844"/>
      <use xlink:href="#DejaVuSans-61" x="620.769531"/>
      <use xlink:href="#DejaVuSans-6c" x="682.048828"/>
      <use xlink:href="#DejaVuSans-73" x="709.832031"/>
      <use xlink:href="#DejaVuSans-20" x="761.931641"/>
      <use xlink:href="#DejaVuSans-2f" x="793.71875"/>
      <use xlink:href="#DejaVuSans-20" x="827.410156"/>
      <use xlink:href="#DejaVuSans-64" x="859.197266"/>
      <use xlink:href="#DejaVuSans-69" x="922.673828"/>
      <use xlink:href="#DejaVuSans-6d" x="950.457031"/>
      <use xlink:href="#DejaVuSans-65" x="1047.869141"/>
      <use xlink:href="#DejaVuSans-6e" x="1109.392578"/>
      <use xlink:href="#DejaVuSans-73" x="1172.771484"/>
      <use xlink:href="#DejaVuSans-69" x="1224.871094"/>
      <use xlink:href="#DejaVuSans-6f" x="1252.654297"/>
      <use xlink:href="#DejaVuSans-6e" x="1313.835938"/>
      <use xlink:href="#DejaVuSans-29" x="1377.214844"/>
     </g>
    </g>
   </g>
   <g id="matplotlib.axis_2">
    <g id="ytick_1">
     <g id="line2d_21">
      <path d="M 57.6 298.944 
L 360.8064 298.944 
" clip-path="url(#p3e1abd53de)" style="fill: none; stroke: #b0b0b0; stroke-width: 0.8; stroke-linecap: square"/>
     </g>
     <g id="line2d_22">
      <defs>
       <path id="m71b9efee3c" d="M 0 0 
L -3.5 0 
" style="stroke: #000000; stroke-width: 0.8"/>
      </defs>
      <g>
       <use xlink:href="#m71b9efee3c" x="57.6" y="298.944" style="stroke: #000000; stroke-width: 0.8"/>
      </g>
     </g>
     <g id="text_6">
      <!-- 0.0 -->
      <g transform="translate(25.155 305.02275)scale(0.16 -0.16)">
       <defs>
        <path id="DejaVuSans-2e" d="M 684 794 
L 1344 794 
L 1344 0 
L 684 0 
L 684 794 
z
" transform="scale(0.015625)"/>
       </defs>
       <use xlink:href="#DejaVuSans-30"/>
       <use xlink:href="#DejaVuSans-2e" x="63.623047"/>
       <use xlink:href="#DejaVuSans-30" x="95.410156"/>
      </g>
     </g>
    </g>
    <g id="ytick_2">
     <g id="line2d_23">
      <path d="M 57.6 244.6848 
L 360.8064 244.6848 
" clip-path="url(#p3e1abd53de)" style="fill: none; stroke: #b0b0b0; stroke-width: 0.8; stroke-linecap: square"/>
     </g>
     <g id="line2d_24">
      <g>
       <use xlink:href="#m71b9efee3c" x="57.6" y="244.6848" style="stroke: #000000; stroke-width: 0.8"/>
      </g>
     </g>
     <g id="text_7">
      <!-- 0.2 -->
      <g transform="translate(25.155 250.76355)scale(0.16 -0.16)">
       <use xlink:href="#DejaVuSans-30"/>
       <use xlink:href="#DejaVuSans-2e" x="63.623047"/>
       <use xlink:href="#DejaVuSans-32" x="95.410156"/>
      </g>
     </g>
    </g>
    <g id="ytick_3">
     <g id="line2d_25">
      <path d="M 57.6 190.4256 
L 360.8064 190.4256 
" clip-path="url(#p3e1abd53de)" style="fill: none; stroke: #b0b0b0; stroke-width: 0.8; stroke-linecap: square"/>
     </g>
     <g id="line2d_26">
      <g>
       <use xlink:href="#m71b9efee3c" x="57.6" y="190.4256" style="stroke: #000000; stroke-width: 0.8"/>
      </g>
     </g>
     <g id="text_8">
      <!-- 0.4 -->
      <g transform="translate(25.155 196.50435)scale(0.16 -0.16)">
       <use xlink:href="#DejaVuSans-30"/>
       <use xlink:href="#DejaVuSans-2e" x="63.623047"/>
       <use xlink:href="#DejaVuSans-34" x="95.410156"/>
      </g>
     </g>
    </g>
    <g id="ytick_4">
     <g id="line2d_27">
      <path d="M 57.6 136.1664 
L 360.8064 136.1664 
" clip-path="url(#p3e1abd53de)" style="fill: none; stroke: #b0b0b0; stroke-width: 0.8; stroke-linecap: square"/>
     </g>
     <g id="line2d_28">
      <g>
       <use xlink:href="#m71b9efee3c" x="57.6" y="136.1664" style="stroke: #000000; stroke-width: 0.8"/>
      </g>
     </g>
     <g id="text_9">
      <!-- 0.6 -->
      <g transform="translate(25.155 142.24515)scale(0.16 -0.16)">
       <use xlink:href="#DejaVuSans-30"/>
       <use xlink:href="#DejaVuSans-2e" x="63.623047"/>
       <use xlink:href="#DejaVuSans-36" x="95.410156"/>
      </g>
     </g>
    </g>
    <g id="ytick_5">
     <g id="line2d_29">
      <path d="M 57.6 81.9072 
L 360.8064 81.9072 
" clip-path="url(#p3e1abd53de)" style="fill: none; stroke: #b0b0b0; stroke-width: 0.8; stroke-linecap: square"/>
     </g>
     <g id="line2d_30">
      <g>
       <use xlink:href="#m71b9efee3c" x="57.6" y="81.9072" style="stroke: #000000; stroke-width: 0.8"/>
      </g>
     </g>
     <g id="text_10">
      <!-- 0.8 -->
      <g transform="translate(25.155 87.98595)scale(0.16 -0.16)">
       <defs>
        <path id="DejaVuSans-38" d="M 2034 2216 
Q 1584 2216 1326 1975 
Q 1069 1734 1069 1313 
Q 1069 891 1326 650 
Q 1584 409 2034 409 
Q 2484 409 2743 651 
Q 3003 894 3003 1313 
Q 3003 1734 2745 1975 
Q 2488 2216 2034 2216 
z
M 1403 2484 
Q 997 2584 770 2862 
Q 544 3141 544 3541 
Q 544 4100 942 4425 
Q 1341 4750 2034 4750 
Q 2731 4750 3128 4425 
Q 3525 4100 3525 3541 
Q 3525 3141 3298 2862 
Q 3072 2584 2669 2484 
Q 3125 2378 3379 2068 
Q 3634 1759 3634 1313 
Q 3634 634 3220 271 
Q 2806 -91 2034 -91 
Q 1263 -91 848 271 
Q 434 634 434 1313 
Q 434 1759 690 2068 
Q 947 2378 1403 2484 
z
M 1172 3481 
Q 1172 3119 1398 2916 
Q 1625 2713 2034 2713 
Q 2441 2713 2670 2916 
Q 2900 3119 2900 3481 
Q 2900 3844 2670 4047 
Q 2441 4250 2034 4250 
Q 1625 4250 1398 4047 
Q 1172 3844 1172 3481 
z
" transform="scale(0.015625)"/>
       </defs>
       <use xlink:href="#DejaVuSans-30"/>
       <use xlink:href="#DejaVuSans-2e" x="63.623047"/>
       <use xlink:href="#DejaVuSans-38" x="95.410156"/>
      </g>
     </g>
    </g>
    <g id="ytick_6">
     <g id="line2d_31">
      <path d="M 57.6 27.648 
L 360.8064 27.648 
" clip-path="url(#p3e1abd53de)" style="fill: none; stroke: #b0b0b0; stroke-width: 0.8; stroke-linecap: square"/>
     </g>
     <g id="line2d_32">
      <g>
       <use xlink:href="#m71b9efee3c" x="57.6" y="27.648" style="stroke: #000000; stroke-width: 0.8"/>
      </g>
     </g>
     <g id="text_11">
      <!-- 1.0 -->
      <g transform="translate(25.155 33.72675)scale(0.16 -0.16)">
       <use xlink:href="#DejaVuSans-31"/>
       <use xlink:href="#DejaVuSans-2e" x="63.623047"/>
       <use xlink:href="#DejaVuSans-30" x="95.410156"/>
      </g>
     </g>
    </g>
    <g id="text_12">
     <!-- Fraction of function,target pairs -->
     <g transform="translate(17.619531 297.681)rotate(-90)scale(0.17 -0.17)">
      <defs>
       <path id="DejaVuSans-46" d="M 628 4666 
L 3309 4666 
L 3309 4134 
L 1259 4134 
L 1259 2759 
L 3109 2759 
L 3109 2228 
L 1259 2228 
L 1259 0 
L 628 0 
L 628 4666 
z
" transform="scale(0.015625)"/>
       <path id="DejaVuSans-72" d="M 2631 2963 
Q 2534 3019 2420 3045 
Q 2306 3072 2169 3072 
Q 1681 3072 1420 2755 
Q 1159 2438 1159 1844 
L 1159 0 
L 581 0 
L 581 3500 
L 1159 3500 
L 1159 2956 
Q 1341 3275 1631 3429 
Q 1922 3584 2338 3584 
Q 2397 3584 2469 3576 
Q 2541 3569 2628 3553 
L 2631 2963 
z
" transform="scale(0.015625)"/>
       <path id="DejaVuSans-63" d="M 3122 3366 
L 3122 2828 
Q 2878 2963 2633 3030 
Q 2388 3097 2138 3097 
Q 1578 3097 1268 2742 
Q 959 2388 959 1747 
Q 959 1106 1268 751 
Q 1578 397 2138 397 
Q 2388 397 2633 464 
Q 2878 531 3122 666 
L 3122 134 
Q 2881 22 2623 -34 
Q 2366 -91 2075 -91 
Q 1284 -91 818 406 
Q 353 903 353 1747 
Q 353 2603 823 3093 
Q 1294 3584 2113 3584 
Q 2378 3584 2631 3529 
Q 2884 3475 3122 3366 
z
" transform="scale(0.015625)"/>
       <path id="DejaVuSans-74" d="M 1172 4494 
L 1172 3500 
L 2356 3500 
L 2356 3053 
L 1172 3053 
L 1172 1153 
Q 1172 725 1289 603 
Q 1406 481 1766 481 
L 2356 481 
L 2356 0 
L 1766 0 
Q 1100 0 847 248 
Q 594 497 594 1153 
L 594 3053 
L 172 3053 
L 172 3500 
L 594 3500 
L 594 4494 
L 1172 4494 
z
" transform="scale(0.015625)"/>
       <path id="DejaVuSans-75" d="M 544 1381 
L 544 3500 
L 1119 3500 
L 1119 1403 
Q 1119 906 1312 657 
Q 1506 409 1894 409 
Q 2359 409 2629 706 
Q 2900 1003 2900 1516 
L 2900 3500 
L 3475 3500 
L 3475 0 
L 2900 0 
L 2900 538 
Q 2691 219 2414 64 
Q 2138 -91 1772 -91 
Q 1169 -91 856 284 
Q 544 659 544 1381 
z
M 1991 3584 
L 1991 3584 
z
" transform="scale(0.015625)"/>
       <path id="DejaVuSans-2c" d="M 750 794 
L 1409 794 
L 1409 256 
L 897 -744 
L 494 -744 
L 750 256 
L 750 794 
z
" transform="scale(0.015625)"/>
       <path id="DejaVuSans-70" d="M 1159 525 
L 1159 -1331 
L 581 -1331 
L 581 3500 
L 1159 3500 
L 1159 2969 
Q 1341 3281 1617 3432 
Q 1894 3584 2278 3584 
Q 2916 3584 3314 3078 
Q 3713 2572 3713 1747 
Q 3713 922 3314 415 
Q 2916 -91 2278 -91 
Q 1894 -91 1617 61 
Q 1341 213 1159 525 
z
M 3116 1747 
Q 3116 2381 2855 2742 
Q 2594 3103 2138 3103 
Q 1681 3103 1420 2742 
Q 1159 2381 1159 1747 
Q 1159 1113 1420 752 
Q 1681 391 2138 391 
Q 2594 391 2855 752 
Q 3116 1113 3116 1747 
z
" transform="scale(0.015625)"/>
      </defs>
      <use xlink:href="#DejaVuSans-46"/>
      <use xlink:href="#DejaVuSans-72" x="50.269531"/>
      <use xlink:href="#DejaVuSans-61" x="91.382812"/>
      <use xlink:href="#DejaVuSans-63" x="152.662109"/>
      <use xlink:href="#DejaVuSans-74" x="207.642578"/>
      <use xlink:href="#DejaVuSans-69" x="246.851562"/>
      <use xlink:href="#DejaVuSans-6f" x="274.634766"/>
      <use xlink:href="#DejaVuSans-6e" x="335.816406"/>
      <use xlink:href="#DejaVuSans-20" x="399.195312"/>
      <use xlink:href="#DejaVuSans-6f" x="430.982422"/>
      <use xlink:href="#DejaVuSans-66" x="492.164062"/>
      <use xlink:href="#DejaVuSans-20" x="527.369141"/>
      <use xlink:href="#DejaVuSans-66" x="559.15625"/>
      <use xlink:href="#DejaVuSans-75" x="594.361328"/>
      <use xlink:href="#DejaVuSans-6e" x="657.740234"/>
      <use xlink:href="#DejaVuSans-63" x="721.119141"/>
      <use xlink:href="#DejaVuSans-74" x="776.099609"/>
      <use xlink:href="#DejaVuSans-69" x="815.308594"/>
      <use xlink:href="#DejaVuSans-6f" x="843.091797"/>
      <use xlink:href="#DejaVuSans-6e" x="904.273438"/>
      <use xlink:href="#DejaVuSans-2c" x="967.652344"/>
      <use xlink:href="#DejaVuSans-74" x="999.439453"/>
      <use xlink:href="#DejaVuSans-61" x="1038.648438"/>
      <use xlink:href="#DejaVuSans-72" x="1099.927734"/>
      <use xlink:href="#DejaVuSans-67" x="1139.291016"/>
      <use xlink:href="#DejaVuSans-65" x="1202.767578"/>
      <use xlink:href="#DejaVuSans-74" x="1264.291016"/>
      <use xlink:href="#DejaVuSans-20" x="1303.5"/>
      <use xlink:href="#DejaVuSans-70" x="1335.287109"/>
      <use xlink:href="#DejaVuSans-61" x="1398.763672"/>
      <use xlink:href="#DejaVuSans-69" x="1460.042969"/>
      <use xlink:href="#DejaVuSans-72" x="1487.826172"/>
      <use xlink:href="#DejaVuSans-73" x="1528.939453"/>
     </g>
    </g>
   </g>
   <g id="line2d_33">
    <defs>
     <path id="mdd696798af" d="M 0 1.5 
C 0.397805 1.5 0.77937 1.341951 1.06066 1.06066 
C 1.341951 0.77937 1.5 0.397805 1.5 0 
C 1.5 -0.397805 1.341951 -0.77937 1.06066 -1.06066 
C 0.77937 -1.341951 0.397805 -1.5 0 -1.5 
C -0.397805 -1.5 -0.77937 -1.341951 -1.06066 -1.06066 
C -1.341951 -0.77937 -1.5 -0.397805 -1.5 0 
C -1.5 0.397805 -1.341951 0.77937 -1.06066 1.06066 
C -0.77937 1.341951 -0.397805 1.5 0 1.5 
z
" style="stroke: #f5deb3"/>
    </defs>
    <g>
     <use xlink:href="#mdd696798af" x="258.094967" y="27.648" style="fill: #f5deb3; stroke: #f5deb3"/>
     <use xlink:href="#mdd696798af" x="258.094967" y="27.648" style="fill: #f5deb3; stroke: #f5deb3"/>
    </g>
   </g>
   <g id="line2d_34">
    <defs>
     <path id="m2056c70591" d="M 0 1.5 
C 0.397805 1.5 0.77937 1.341951 1.06066 1.06066 
C 1.341951 0.77937 1.5 0.397805 1.5 0 
C 1.5 -0.397805 1.341951 -0.77937 1.06066 -1.06066 
C 0.77937 -1.341951 0.397805 -1.5 0 -1.5 
C -0.397805 -1.5 -0.77937 -1.341951 -1.06066 -1.06066 
C -1.341951 -0.77937 -1.5 -0.397805 -1.5 0 
C -1.5 0.397805 -1.341951 0.77937 -1.06066 1.06066 
C -0.77937 1.341951 -0.397805 1.5 0 1.5 
z
" style="stroke: #000080"/>
    </defs>
    <g>
     <use xlink:href="#m2056c70591" x="378.452802" y="27.648" style="fill: #000080; stroke: #000080"/>
     <use xlink:href="#m2056c70591" x="378.452802" y="27.648" style="fill: #000080; stroke: #000080"/>
    </g>
   </g>
   <g id="line2d_35">
    <path d="M 1.245626 298.944 
L 1.245626 273.764894 
L 14.2848 273.764894 
L 14.2848 271.282447 
L 21.912228 271.282447 
L 21.912228 270.573176 
L 27.323974 270.573176 
L 27.323974 269.154635 
L 31.521651 269.154635 
L 31.521651 268.8 
L 34.951403 268.8 
L 34.951403 268.090729 
L 37.851216 268.090729 
L 37.851216 267.381459 
L 40.363149 267.381459 
L 40.363149 266.317553 
L 44.560826 266.317553 
L 44.560826 265.962918 
L 49.496305 265.962918 
L 49.496305 265.253647 
L 53.402323 265.253647 
L 53.402323 264.899012 
L 54.542767 264.899012 
L 54.542767 264.544376 
L 68.65718 264.544376 
L 68.65718 264.189741 
L 71.999638 264.189741 
L 71.999638 263.835106 
L 78.88343 263.835106 
L 78.88343 263.480471 
L 85.894031 263.480471 
L 85.894031 263.125835 
L 88.248544 263.125835 
L 88.248544 262.7712 
L 88.793844 262.7712 
L 88.793844 262.416565 
L 93.240684 262.416565 
L 93.240684 262.061929 
L 97.296386 262.061929 
L 97.296386 261.707294 
L 102.449846 261.707294 
L 102.449846 261.352659 
L 110.562208 261.352659 
L 110.562208 260.998024 
L 113.284172 260.998024 
L 113.284172 260.643388 
L 121.518993 260.643388 
L 121.518993 260.288753 
L 125.501533 260.288753 
L 125.501533 259.934118 
L 129.375706 259.934118 
L 129.375706 259.579482 
L 133.738397 259.579482 
L 133.738397 259.224847 
L 135.100771 259.224847 
L 135.100771 258.870212 
L 137.453486 258.870212 
L 137.453486 258.515576 
L 140.520157 258.515576 
L 140.520157 258.160941 
L 142.006486 258.160941 
L 142.006486 257.806306 
L 147.613064 257.806306 
L 147.613064 257.451671 
L 151.782431 257.451671 
L 151.782431 257.097035 
L 152.162601 257.097035 
L 152.162601 256.7424 
L 152.781618 256.7424 
L 152.787587 256.033129 
L 165.272594 256.033129 
L 165.272594 255.678494 
L 167.315036 255.678494 
L 167.315036 255.323859 
L 168.938524 255.323859 
L 168.938524 254.969224 
L 169.88306 254.969224 
L 169.88306 254.614588 
L 170.162392 254.614588 
L 170.162392 254.259953 
L 170.49593 254.259953 
L 170.49593 253.905318 
L 171.168251 253.905318 
L 171.168251 253.550682 
L 171.581513 253.550682 
L 171.581513 253.196047 
L 173.521707 253.196047 
L 173.521707 252.841412 
L 174.674972 252.841412 
L 174.674972 252.486776 
L 176.151708 252.486776 
L 176.151708 252.132141 
L 176.765533 252.132141 
L 176.765533 251.777506 
L 176.938239 251.777506 
L 176.938239 251.422871 
L 177.840308 251.422871 
L 177.840308 251.068235 
L 178.132669 251.068235 
L 178.24095 250.004329 
L 178.367007 250.004329 
L 178.367007 249.649694 
L 178.51656 249.649694 
L 178.51656 249.295059 
L 178.649847 249.295059 
L 178.74319 248.231153 
L 178.828598 248.231153 
L 178.828598 247.876518 
L 178.980473 247.876518 
L 179.020471 247.167247 
L 179.116414 247.167247 
L 179.154655 246.457976 
L 179.260149 246.457976 
L 179.260149 246.103341 
L 179.531408 246.103341 
L 179.531408 245.748706 
L 179.879569 245.748706 
L 179.879569 245.394071 
L 180.006379 245.394071 
L 180.006379 245.039435 
L 180.176924 245.039435 
L 180.176924 244.6848 
L 180.561226 244.6848 
L 180.561226 244.330165 
L 181.15442 244.330165 
L 181.15442 243.975529 
L 186.235976 243.975529 
L 186.235976 243.620894 
L 190.255537 243.620894 
L 190.255537 243.266259 
L 191.664102 243.266259 
L 191.664102 242.911624 
L 191.823618 242.911624 
L 191.916297 242.202353 
L 191.942374 242.202353 
L 192.052245 241.493082 
L 192.205581 241.493082 
L 192.205581 241.138447 
L 192.879824 241.138447 
L 192.879824 240.783812 
L 193.049766 240.783812 
L 193.095339 240.074541 
L 193.420247 240.074541 
L 193.420247 239.719906 
L 194.678101 239.719906 
L 194.678101 239.365271 
L 196.217027 239.365271 
L 196.217027 239.010635 
L 196.468048 239.010635 
L 196.468048 238.656 
L 196.664859 238.656 
L 196.664859 238.301365 
L 196.940862 238.301365 
L 196.940862 237.946729 
L 201.308101 237.946729 
L 201.34698 236.882824 
L 201.470317 236.882824 
L 201.470317 236.528188 
L 201.790612 236.528188 
L 201.790612 236.173553 
L 201.989808 236.173553 
L 201.989808 235.818918 
L 202.463871 235.818918 
L 202.564888 235.109647 
L 203.028981 235.109647 
L 203.028981 234.755012 
L 209.803401 234.755012 
L 209.803401 234.400376 
L 214.854472 234.400376 
L 214.854472 234.045741 
L 215.067568 234.045741 
L 215.067568 233.691106 
L 216.44958 233.691106 
L 216.44958 233.336471 
L 217.316395 233.336471 
L 217.316395 232.981835 
L 218.03412 232.981835 
L 218.03412 232.6272 
L 218.335619 232.6272 
L 218.335619 232.272565 
L 218.749653 232.272565 
L 218.749653 231.917929 
L 219.116529 231.917929 
L 219.116529 231.563294 
L 219.392992 231.563294 
L 219.392992 231.208659 
L 219.656922 231.208659 
L 219.656922 230.854024 
L 220.242856 230.854024 
L 220.340188 230.144753 
L 220.374054 230.144753 
L 220.374054 229.790118 
L 220.633248 229.790118 
L 220.633248 229.435482 
L 220.805794 229.435482 
L 220.818952 228.726212 
L 221.373256 228.726212 
L 221.373256 228.371576 
L 225.009152 228.371576 
L 225.07643 227.662306 
L 225.292393 227.662306 
L 225.292393 227.307671 
L 225.42408 227.307671 
L 225.515904 226.5984 
L 225.709723 226.5984 
L 225.770971 225.889129 
L 225.834354 225.889129 
L 225.868971 224.825224 
L 226.078014 224.825224 
L 226.093047 224.115953 
L 226.27852 224.115953 
L 226.27852 223.761318 
L 226.416017 223.761318 
L 226.458497 223.052047 
L 226.527901 223.052047 
L 226.527901 222.697412 
L 226.744425 222.697412 
L 226.744425 222.342776 
L 227.351458 222.342776 
L 227.351458 221.988141 
L 228.064884 221.988141 
L 228.064884 221.633506 
L 228.217806 221.633506 
L 228.217806 221.278871 
L 228.367562 221.278871 
L 228.367562 220.924235 
L 228.55913 220.924235 
L 228.55913 220.5696 
L 228.972005 220.5696 
L 228.972005 220.214965 
L 229.531502 220.214965 
L 229.531502 219.860329 
L 229.813039 219.860329 
L 229.813039 219.505694 
L 230.175971 219.505694 
L 230.175971 219.151059 
L 234.443944 219.151059 
L 234.443944 218.796424 
L 244.954263 218.796424 
L 244.954263 218.441788 
L 245.23255 218.441788 
L 245.23255 218.087153 
L 249.38451 218.087153 
L 249.38451 217.732518 
L 249.792611 217.732518 
L 249.792611 217.377882 
L 250.09699 217.377882 
L 250.190734 216.668612 
L 250.245053 216.668612 
L 250.245053 216.313976 
L 250.407938 216.313976 
L 250.407938 215.959341 
L 250.539776 215.959341 
L 250.539776 215.604706 
L 250.667219 215.604706 
L 250.667219 215.250071 
L 250.86912 215.250071 
L 250.86912 214.895435 
L 251.008415 214.895435 
L 251.008415 214.5408 
L 251.148926 214.5408 
L 251.208269 213.831529 
L 251.327886 213.831529 
L 251.327886 213.476894 
L 251.508613 213.476894 
L 251.508613 213.122259 
L 255.734758 213.122259 
L 255.734758 212.767624 
L 255.87756 212.767624 
L 255.966023 212.058353 
L 256.029433 212.058353 
L 256.091769 211.349082 
L 256.16336 211.349082 
L 256.260294 210.285176 
L 256.323669 210.285176 
L 256.414101 209.221271 
L 256.461652 209.221271 
L 256.557545 208.157365 
L 256.611531 208.157365 
L 256.703404 207.093459 
L 256.755596 207.093459 
L 256.83871 206.029553 
L 256.879634 206.029553 
L 256.975232 204.965647 
L 257.005905 204.965647 
L 257.102055 203.901741 
L 257.154805 203.901741 
L 257.253436 202.837835 
L 257.302928 202.837835 
L 257.377668 201.773929 
L 257.434967 201.773929 
L 257.52631 200.710024 
L 258.519555 200.710024 
L 258.519555 200.355388 
L 264.981297 200.355388 
L 265.070577 199.646118 
L 265.18081 199.646118 
L 265.266658 198.936847 
L 265.357408 198.936847 
L 265.455155 198.227576 
L 265.606231 198.227576 
L 265.689292 197.518306 
L 265.827896 197.518306 
L 265.827896 197.163671 
L 266.19519 197.163671 
L 266.208958 196.4544 
L 266.374368 196.4544 
L 266.374368 196.099765 
L 266.489486 196.099765 
L 266.489486 195.745129 
L 268.935684 195.745129 
L 269.024713 195.035859 
L 270.210094 195.035859 
L 270.210094 194.681224 
L 270.496161 194.681224 
L 270.496161 194.326588 
L 273.198981 194.326588 
L 273.198981 193.971953 
L 274.166686 193.971953 
L 274.238604 193.262682 
L 274.285306 193.262682 
L 274.285306 192.908047 
L 274.423022 192.908047 
L 274.423022 192.553412 
L 282.778943 192.553412 
L 282.778943 192.198776 
L 283.148825 192.198776 
L 283.148825 191.844141 
L 283.741045 191.844141 
L 283.741045 191.489506 
L 284.047309 191.489506 
L 284.047309 191.134871 
L 284.241197 191.134871 
L 284.30106 190.4256 
L 284.382773 190.4256 
L 284.448656 189.716329 
L 284.885532 189.716329 
L 284.978696 189.007059 
L 285.696457 189.007059 
L 285.696457 188.652424 
L 298.162525 188.652424 
L 298.243433 187.943153 
L 298.311118 187.943153 
L 298.39123 186.879247 
L 298.423036 186.879247 
L 298.530395 184.751435 
L 298.544536 184.751435 
L 298.636366 182.623624 
L 298.660094 182.623624 
L 298.769126 179.077271 
L 298.787311 179.077271 
L 298.886643 175.530918 
L 298.903482 175.530918 
L 298.957945 174.112376 
L 304.524466 174.112376 
L 304.623396 172.693835 
L 304.635869 172.693835 
L 304.635869 172.3392 
L 304.749167 172.3392 
L 304.763214 171.275294 
L 305.253877 171.275294 
L 305.253877 170.920659 
L 305.528457 170.920659 
L 305.530705 169.856753 
L 305.835162 169.856753 
L 305.94294 158.508424 
L 305.947437 158.508424 
L 305.950696 157.444518 
L 306.772382 157.444518 
L 306.810304 156.380612 
L 314.676896 156.380612 
L 314.787119 152.479624 
L 314.792145 152.479624 
L 314.900437 145.386918 
L 314.904837 145.386918 
L 314.950971 141.485929 
L 317.897567 141.485929 
L 317.897567 141.131294 
L 318.037356 141.131294 
L 318.052719 140.067388 
L 318.205427 140.067388 
L 318.261988 134.747859 
L 318.706475 134.747859 
L 318.706475 134.393224 
L 323.315436 134.393224 
L 323.426389 129.428329 
L 323.426878 129.428329 
L 323.464675 125.881976 
L 325.495922 125.881976 
L 325.604933 124.1088 
L 325.611761 124.1088 
L 325.635017 117.725365 
L 325.928436 117.725365 
L 325.928436 117.370729 
L 329.21182 117.370729 
L 329.303005 111.696565 
L 330.89057 111.696565 
L 330.923329 103.539953 
L 333.678262 103.539953 
L 333.738924 98.575059 
L 335.022061 98.575059 
L 335.042857 92.546259 
L 335.224843 92.546259 
L 335.293975 91.482353 
L 337.298806 91.482353 
L 337.341972 88.999906 
L 338.40533 88.999906 
L 338.422525 86.872094 
L 338.573383 86.872094 
L 338.57446 86.162824 
L 340.317978 86.162824 
L 340.36974 80.488659 
L 341.268725 80.488659 
L 341.286348 76.587671 
L 342.933165 76.587671 
L 342.962466 74.105224 
L 343.75721 74.105224 
L 343.767821 70.913506 
L 343.887061 70.913506 
L 343.887061 70.558871 
L 345.214287 70.558871 
L 345.249505 65.948612 
L 345.95202 65.948612 
L 345.962666 63.466165 
L 347.252752 63.466165 
L 347.290125 61.338353 
L 347.919027 61.338353 
L 347.92963 58.146635 
L 349.101925 58.146635 
L 349.120832 57.082729 
L 349.699012 57.082729 
L 349.705563 55.664188 
L 350.783815 55.664188 
L 350.798464 53.536376 
L 351.322783 53.536376 
L 351.327736 52.472471 
L 352.320122 52.472471 
L 352.322822 51.408565 
L 352.82137 51.408565 
L 352.828112 48.571482 
L 353.749013 48.571482 
L 353.756503 47.507576 
L 354.206714 47.507576 
L 354.214001 44.670494 
L 355.060376 44.670494 
L 355.073546 43.251953 
L 355.499439 43.251953 
L 355.500556 42.542682 
L 356.295062 42.542682 
L 356.310319 41.124141 
L 356.706334 41.124141 
L 356.709211 40.414871 
L 357.452939 40.414871 
L 357.463312 39.350965 
L 357.840952 39.350965 
L 357.845927 37.577788 
L 358.55016 37.577788 
L 358.561009 36.868518 
L 359.587925 36.868518 
L 359.593021 35.804612 
L 359.927783 35.804612 
L 359.929128 35.095341 
L 360.569571 35.095341 
L 360.569571 34.740706 
L 360.8064 34.740706 
L 360.8064 34.740706 
" style="fill: none; stroke: #000080; stroke-width: 1.5; stroke-linecap: square"/>
   </g>
   <g id="line2d_36">
    <defs>
     <path id="m32340ba9d2" d="M 0 6 
C 1.591219 6 3.117479 5.367802 4.242641 4.242641 
C 5.367802 3.117479 6 1.591219 6 0 
C 6 -1.591219 5.367802 -3.117479 4.242641 -4.242641 
C 3.117479 -5.367802 1.591219 -6 0 -6 
C -1.591219 -6 -3.117479 -5.367802 -4.242641 -4.242641 
C -5.367802 -3.117479 -6 -1.591219 -6 0 
C -6 1.591219 -5.367802 3.117479 -4.242641 4.242641 
C -3.117479 5.367802 -1.591219 6 0 6 
z
" style="stroke: #000080; stroke-width: 1.5"/>
    </defs>
    <g>
     <use xlink:href="#m32340ba9d2" x="71.999638" y="264.189741" style="fill-opacity: 0; stroke: #000080; stroke-width: 1.5"/>
     <use xlink:href="#m32340ba9d2" x="152.787587" y="256.387765" style="fill-opacity: 0; stroke: #000080; stroke-width: 1.5"/>
     <use xlink:href="#m32340ba9d2" x="244.954263" y="218.796424" style="fill-opacity: 0; stroke: #000080; stroke-width: 1.5"/>
     <use xlink:href="#m32340ba9d2" x="323.436825" y="127.655153" style="fill-opacity: 0; stroke: #000080; stroke-width: 1.5"/>
     <use xlink:href="#m32340ba9d2" x="360.569571" y="34.740706" style="fill-opacity: 0; stroke: #000080; stroke-width: 1.5"/>
     <use xlink:href="#m32340ba9d2" x="360.8064" y="34.740706" style="fill-opacity: 0; stroke: #000080; stroke-width: 1.5"/>
    </g>
   </g>
   <g id="line2d_37">
    <path style="fill: none; stroke: #000080; stroke-width: 1.5; stroke-linecap: square"/>
    <g/>
   </g>
   <g id="line2d_38">
    <path d="M 304.458516 174.112376 
" clip-path="url(#p3e1abd53de)" style="fill: none; stroke: #000080; stroke-width: 1.5; stroke-linecap: square"/>
    <defs>
     <path id="m60e2573b59" d="M -12 12 
L 12 -12 
M -12 -12 
L 12 12 
" style="stroke: #000080"/>
    </defs>
    <g clip-path="url(#p3e1abd53de)">
     <use xlink:href="#m60e2573b59" x="304.458516" y="174.112376" style="fill: #000080; stroke: #000080"/>
    </g>
   </g>
   <g id="line2d_39">
    <defs>
     <path id="m790ea8c8a5" d="M 0 1.5 
C 0.397805 1.5 0.77937 1.341951 1.06066 1.06066 
C 1.341951 0.77937 1.5 0.397805 1.5 0 
C 1.5 -0.397805 1.341951 -0.77937 1.06066 -1.06066 
C 0.77937 -1.341951 0.397805 -1.5 0 -1.5 
C -0.397805 -1.5 -0.77937 -1.341951 -1.06066 -1.06066 
C -1.341951 -0.77937 -1.5 -0.397805 -1.5 0 
C -1.5 0.397805 -1.341951 0.77937 -1.06066 1.06066 
C -0.77937 1.341951 -0.397805 1.5 0 1.5 
z
" style="stroke: #ff00ff"/>
    </defs>
    <g>
     <use xlink:href="#m790ea8c8a5" x="371.398152" y="27.648" style="fill: #ff00ff; stroke: #ff00ff"/>
     <use xlink:href="#m790ea8c8a5" x="371.398152" y="27.648" style="fill: #ff00ff; stroke: #ff00ff"/>
    </g>
   </g>
   <g id="line2d_40">
    <path d="M 1.245626 298.944 
L 1.245626 273.764894 
L 14.2848 273.764894 
L 14.2848 271.637082 
L 21.912228 271.637082 
L 21.912228 271.282447 
L 27.323974 271.282447 
L 27.323974 270.573176 
L 37.851216 270.573176 
L 37.851216 269.154635 
L 40.363149 269.154635 
L 40.363149 268.8 
L 42.578831 268.8 
L 42.578831 268.445365 
L 46.353758 268.445365 
L 46.353758 267.736094 
L 47.990577 267.736094 
L 47.990577 267.381459 
L 49.496305 267.381459 
L 49.496305 267.026824 
L 53.402323 267.026824 
L 53.402323 266.672188 
L 54.542767 266.672188 
L 54.542767 266.317553 
L 55.618005 266.317553 
L 55.618005 265.608282 
L 59.392932 265.608282 
L 59.392932 265.253647 
L 60.229139 265.253647 
L 60.229139 264.899012 
L 66.441498 264.899012 
L 66.441498 264.544376 
L 68.127242 264.544376 
L 68.127242 264.189741 
L 69.172597 264.189741 
L 69.172597 263.835106 
L 71.556993 263.835106 
L 71.556993 263.480471 
L 91.46189 263.480471 
L 91.46189 263.125835 
L 91.770283 263.125835 
L 91.770283 262.7712 
L 97.968299 262.7712 
L 97.968299 262.416565 
L 99.244147 262.416565 
L 99.244147 262.061929 
L 100.049042 262.061929 
L 100.049042 261.707294 
L 100.438933 261.707294 
L 100.438933 261.352659 
L 113.429811 261.352659 
L 113.429811 260.998024 
L 120.216635 260.998024 
L 120.216635 260.643388 
L 124.346766 260.643388 
L 124.346766 260.288753 
L 131.153565 260.288753 
L 131.153565 259.934118 
L 136.068734 259.934118 
L 136.068734 259.579482 
L 137.787626 259.579482 
L 137.787626 259.224847 
L 138.743257 259.224847 
L 138.743257 258.515576 
L 141.327451 258.515576 
L 141.327451 258.160941 
L 143.501625 258.160941 
L 143.501625 257.806306 
L 145.634561 257.806306 
L 145.634561 257.451671 
L 146.429353 257.451671 
L 146.429353 257.097035 
L 148.689612 257.097035 
L 148.689612 256.7424 
L 160.518179 256.7424 
L 160.518179 256.387765 
L 162.125297 256.387765 
L 162.125297 256.033129 
L 170.699701 256.033129 
L 170.699701 255.678494 
L 171.161511 255.678494 
L 171.161511 255.323859 
L 171.367128 255.323859 
L 171.367128 254.969224 
L 171.645136 254.969224 
L 171.645136 254.614588 
L 171.929885 254.614588 
L 171.929885 254.259953 
L 172.518159 254.259953 
L 172.518159 253.905318 
L 173.602804 253.905318 
L 173.602804 253.550682 
L 174.311662 253.550682 
L 174.311662 253.196047 
L 183.675434 253.196047 
L 183.675434 252.841412 
L 184.919376 252.841412 
L 184.919376 252.486776 
L 185.778704 252.486776 
L 185.778704 252.132141 
L 187.585063 252.132141 
L 187.585063 251.777506 
L 191.467367 251.777506 
L 191.526071 251.068235 
L 191.679208 251.068235 
L 191.704862 250.358965 
L 191.852817 250.358965 
L 191.883463 249.295059 
L 191.992935 249.295059 
L 192.092173 248.585788 
L 192.207049 248.585788 
L 192.207049 248.231153 
L 192.318308 248.231153 
L 192.318308 247.876518 
L 192.467327 247.876518 
L 192.496267 246.812612 
L 192.745468 246.812612 
L 192.786089 246.103341 
L 192.877699 246.103341 
L 192.970275 245.394071 
L 193.341618 245.394071 
L 193.341618 245.039435 
L 193.560819 245.039435 
L 193.560819 244.6848 
L 193.767362 244.6848 
L 193.767362 244.330165 
L 193.972331 244.330165 
L 194.063677 243.620894 
L 194.341638 243.620894 
L 194.341638 243.266259 
L 194.536585 243.266259 
L 194.536585 242.911624 
L 194.846654 242.911624 
L 194.846654 242.556988 
L 195.162993 242.556988 
L 195.27309 241.847718 
L 195.449399 241.847718 
L 195.451253 241.138447 
L 195.805626 241.138447 
L 195.861325 240.429176 
L 195.943361 240.429176 
L 195.943361 240.074541 
L 196.14154 240.074541 
L 196.14154 239.719906 
L 196.49963 239.719906 
L 196.521239 238.656 
L 196.718652 238.656 
L 196.718652 238.301365 
L 197.019469 238.301365 
L 197.069991 237.592094 
L 197.205558 237.592094 
L 197.216249 236.882824 
L 197.405981 236.882824 
L 197.405981 236.528188 
L 197.62852 236.528188 
L 197.640623 235.818918 
L 198.026023 235.818918 
L 198.026023 235.464282 
L 199.224663 235.464282 
L 199.224663 235.109647 
L 200.901883 235.109647 
L 200.901883 234.755012 
L 202.504258 234.755012 
L 202.504258 234.400376 
L 205.513379 234.400376 
L 205.513379 234.045741 
L 206.765951 234.045741 
L 206.765951 233.691106 
L 206.927772 233.691106 
L 206.990774 232.981835 
L 207.196403 232.981835 
L 207.196403 232.6272 
L 207.46321 232.6272 
L 207.46321 232.272565 
L 210.280158 232.272565 
L 210.377374 231.563294 
L 210.673472 231.563294 
L 210.673472 231.208659 
L 210.863412 231.208659 
L 210.863412 230.854024 
L 211.036889 230.854024 
L 211.036889 230.499388 
L 211.222945 230.499388 
L 211.222945 230.144753 
L 211.357113 230.144753 
L 211.357113 229.790118 
L 211.550024 229.790118 
L 211.550024 229.435482 
L 211.746433 229.435482 
L 211.746433 229.080847 
L 212.029323 229.080847 
L 212.077635 228.371576 
L 212.140586 228.371576 
L 212.232214 227.307671 
L 212.267882 227.307671 
L 212.267882 226.953035 
L 212.71021 226.953035 
L 212.71021 226.5984 
L 212.931315 226.5984 
L 213.028406 225.534494 
L 213.256617 225.534494 
L 213.366595 224.825224 
L 213.573561 224.825224 
L 213.573561 224.470588 
L 213.787601 224.470588 
L 213.787601 224.115953 
L 213.947299 224.115953 
L 213.964627 223.406682 
L 214.275636 223.406682 
L 214.275636 223.052047 
L 214.874064 223.052047 
L 214.876264 222.342776 
L 215.010643 222.342776 
L 215.010643 221.988141 
L 215.199295 221.988141 
L 215.199295 221.633506 
L 215.31872 221.633506 
L 215.31872 221.278871 
L 215.491977 221.278871 
L 215.491977 220.924235 
L 215.659434 220.924235 
L 215.659434 220.5696 
L 216.044808 220.5696 
L 216.044808 220.214965 
L 218.73138 220.214965 
L 218.73138 219.860329 
L 218.968088 219.860329 
L 218.968088 219.505694 
L 219.450181 219.505694 
L 219.450181 219.151059 
L 228.720226 219.151059 
L 228.815156 218.441788 
L 229.012518 218.441788 
L 229.012518 218.087153 
L 229.276511 218.087153 
L 229.276511 217.732518 
L 232.504014 217.732518 
L 232.611273 217.023247 
L 232.696096 217.023247 
L 232.696096 216.668612 
L 232.844638 216.668612 
L 232.941728 215.959341 
L 233.149829 215.959341 
L 233.220734 215.250071 
L 233.269208 215.250071 
L 233.303933 214.5408 
L 233.380761 214.5408 
L 233.46727 213.476894 
L 233.505718 213.476894 
L 233.575215 212.767624 
L 233.618237 212.767624 
L 233.721364 211.703718 
L 233.772757 211.703718 
L 233.864382 210.639812 
L 233.894344 210.639812 
L 233.973188 209.930541 
L 234.006638 209.930541 
L 234.057179 209.221271 
L 234.135108 209.221271 
L 234.223494 208.157365 
L 234.271887 208.157365 
L 234.369785 206.738824 
L 234.428855 206.738824 
L 234.521838 205.674918 
L 234.562906 205.674918 
L 234.562906 205.320282 
L 239.255912 205.320282 
L 239.34114 204.611012 
L 239.443811 204.611012 
L 239.521131 203.901741 
L 239.648962 203.901741 
L 239.648962 203.547106 
L 239.892971 203.547106 
L 239.892971 203.192471 
L 240.356654 203.192471 
L 240.356654 202.837835 
L 240.680988 202.837835 
L 240.680988 202.4832 
L 241.082657 202.4832 
L 241.082657 202.128565 
L 241.504313 202.128565 
L 241.504313 201.773929 
L 242.00447 201.773929 
L 242.00447 201.419294 
L 243.438461 201.419294 
L 243.517867 200.710024 
L 243.623587 200.710024 
L 243.718321 199.646118 
L 243.794712 199.646118 
L 243.843738 198.936847 
L 243.933852 198.936847 
L 243.976663 198.227576 
L 244.080636 198.227576 
L 244.080636 197.872941 
L 244.320613 197.872941 
L 244.334726 197.163671 
L 244.604783 197.163671 
L 244.701384 196.4544 
L 244.87334 196.4544 
L 244.87334 196.099765 
L 245.50216 196.099765 
L 245.571911 195.390494 
L 245.659401 195.390494 
L 245.659401 195.035859 
L 245.805779 195.035859 
L 245.805779 194.681224 
L 246.037363 194.681224 
L 246.037363 194.326588 
L 247.370088 194.326588 
L 247.370088 193.971953 
L 247.81926 193.971953 
L 247.81926 193.617318 
L 257.814908 193.617318 
L 257.814908 193.262682 
L 261.513124 193.262682 
L 261.610304 192.553412 
L 261.727341 192.553412 
L 261.727341 192.198776 
L 261.888984 192.198776 
L 261.888984 191.844141 
L 262.069276 191.844141 
L 262.178606 190.4256 
L 262.238632 190.4256 
L 262.337264 189.007059 
L 262.385753 189.007059 
L 262.479992 187.588518 
L 262.524498 187.588518 
L 262.620516 186.169976 
L 262.652738 186.169976 
L 262.758738 184.751435 
L 262.793325 184.751435 
L 262.891395 183.332894 
L 262.913385 183.332894 
L 263.015667 181.914353 
L 263.045724 181.914353 
L 263.152007 180.495812 
L 267.747938 180.495812 
L 267.747938 180.141176 
L 267.939219 180.141176 
L 267.939219 179.786541 
L 269.106095 179.786541 
L 269.106095 179.431906 
L 271.359534 179.431906 
L 271.359534 179.077271 
L 271.497825 179.077271 
L 271.549236 178.368 
L 271.665217 178.368 
L 271.665217 178.013365 
L 271.787965 178.013365 
L 271.787965 177.658729 
L 272.04691 177.658729 
L 272.142632 176.949459 
L 281.696179 176.949459 
L 281.696179 176.594824 
L 287.220902 176.594824 
L 287.220902 176.240188 
L 298.593139 176.240188 
L 298.593139 175.885553 
L 304.565253 175.885553 
L 304.661172 175.176282 
L 304.791513 175.176282 
L 304.901587 170.211388 
L 304.902718 170.211388 
L 304.915667 166.665035 
L 305.070141 166.665035 
L 305.070141 166.3104 
L 305.261926 166.3104 
L 305.278626 165.246494 
L 306.284112 165.246494 
L 306.390662 158.508424 
L 306.398704 158.508424 
L 306.434294 154.2528 
L 317.70449 154.2528 
L 317.72509 145.032282 
L 317.834737 145.032282 
L 317.910044 143.968376 
L 318.459769 143.968376 
L 318.508148 136.875671 
L 325.263127 136.875671 
L 325.276483 127.300518 
L 325.779851 127.300518 
L 325.811298 122.335624 
L 330.640926 122.335624 
L 330.648974 116.306824 
L 331.020121 116.306824 
L 331.052098 110.278024 
L 334.806404 110.278024 
L 334.899971 104.249224 
L 335.124958 104.249224 
L 335.146149 97.865788 
L 338.233429 97.865788 
L 338.241028 93.255529 
L 338.488803 93.255529 
L 338.51018 88.645271 
L 341.123427 88.645271 
L 341.131206 84.389647 
L 341.347436 84.389647 
L 341.359466 78.715482 
L 343.628049 78.715482 
L 343.634681 74.814494 
L 343.823281 74.814494 
L 343.835909 72.332047 
L 345.836907 72.332047 
L 345.844207 67.721788 
L 346.009087 67.721788 
L 346.023146 63.8208 
L 347.814365 63.8208 
L 347.820857 60.983718 
L 347.973134 60.983718 
L 347.979095 59.919812 
L 349.604477 59.919812 
L 349.606629 57.792 
L 349.744884 57.792 
L 349.75516 56.373459 
L 351.237827 56.373459 
L 351.241457 55.309553 
L 351.371817 55.309553 
L 351.37454 54.600282 
L 352.740938 54.600282 
L 352.743795 53.181741 
L 352.860822 53.181741 
L 352.867499 51.408565 
L 354.132727 51.408565 
L 354.134451 48.926118 
L 354.245407 48.926118 
L 354.251653 46.443671 
L 355.42806 46.443671 
L 355.538137 43.606588 
L 356.639006 43.606588 
L 356.742421 41.478776 
L 357.780511 41.478776 
L 357.87581 40.060235 
L 358.853043 40.060235 
L 358.944233 37.577788 
L 359.870135 37.577788 
L 359.953832 35.804612 
L 360.8064 35.804612 
L 360.8064 35.804612 
" style="fill: none; stroke: #ff00ff; stroke-width: 1.5; stroke-linecap: square"/>
   </g>
   <g id="line2d_41">
    <defs>
     <path id="m141c0d4101" d="M -0 8.485281 
L 5.091169 0 
L 0 -8.485281 
L -5.091169 -0 
z
" style="stroke: #ff00ff; stroke-width: 1.5; stroke-linejoin: miter"/>
    </defs>
    <g>
     <use xlink:href="#m141c0d4101" x="100.438933" y="261.707294" style="fill-opacity: 0; stroke: #ff00ff; stroke-width: 1.5; stroke-linejoin: miter"/>
     <use xlink:href="#m141c0d4101" x="196.14154" y="240.074541" style="fill-opacity: 0; stroke: #ff00ff; stroke-width: 1.5; stroke-linejoin: miter"/>
     <use xlink:href="#m141c0d4101" x="272.142632" y="177.304094" style="fill-opacity: 0; stroke: #ff00ff; stroke-width: 1.5; stroke-linejoin: miter"/>
     <use xlink:href="#m141c0d4101" x="352.863531" y="52.117835" style="fill-opacity: 0; stroke: #ff00ff; stroke-width: 1.5; stroke-linejoin: miter"/>
     <use xlink:href="#m141c0d4101" x="359.953832" y="35.804612" style="fill-opacity: 0; stroke: #ff00ff; stroke-width: 1.5; stroke-linejoin: miter"/>
     <use xlink:href="#m141c0d4101" x="360.8064" y="35.804612" style="fill-opacity: 0; stroke: #ff00ff; stroke-width: 1.5; stroke-linejoin: miter"/>
    </g>
   </g>
   <g id="line2d_42">
    <path style="fill: none; stroke: #ff00ff; stroke-width: 1.5; stroke-linecap: square"/>
    <g/>
   </g>
   <g id="line2d_43">
    <path d="M 304.457211 175.885553 
" clip-path="url(#p3e1abd53de)" style="fill: none; stroke: #ff00ff; stroke-width: 1.5; stroke-linecap: square"/>
    <defs>
     <path id="mf409d3f1b0" d="M -12 12 
L 12 -12 
M -12 -12 
L 12 12 
" style="stroke: #ff00ff"/>
    </defs>
    <g clip-path="url(#p3e1abd53de)">
     <use xlink:href="#mf409d3f1b0" x="304.457211" y="175.885553" style="fill: #ff00ff; stroke: #ff00ff"/>
    </g>
   </g>
   <g id="line2d_44">
    <defs>
     <path id="mdea1b804ec" d="M 0 1.5 
C 0.397805 1.5 0.77937 1.341951 1.06066 1.06066 
C 1.341951 0.77937 1.5 0.397805 1.5 0 
C 1.5 -0.397805 1.341951 -0.77937 1.06066 -1.06066 
C 0.77937 -1.341951 0.397805 -1.5 0 -1.5 
C -0.397805 -1.5 -0.77937 -1.341951 -1.06066 -1.06066 
C -1.341951 -0.77937 -1.5 -0.397805 -1.5 0 
C -1.5 0.397805 -1.341951 0.77937 -1.06066 1.06066 
C -0.77937 1.341951 -0.397805 1.5 0 1.5 
z
" style="stroke: #ff7500"/>
    </defs>
    <g>
     <use xlink:href="#mdea1b804ec" x="346.681891" y="192.553412" style="fill: #ff7500; stroke: #ff7500"/>
     <use xlink:href="#mdea1b804ec" x="346.681891" y="192.553412" style="fill: #ff7500; stroke: #ff7500"/>
    </g>
   </g>
   <g id="line2d_45">
    <path d="M 1.245626 298.944 
L 1.245626 274.474165 
L 14.2848 274.474165 
L 14.2848 271.637082 
L 21.912228 271.637082 
L 21.912228 271.282447 
L 27.323974 271.282447 
L 27.323974 269.509271 
L 34.951403 269.509271 
L 34.951403 269.154635 
L 37.851216 269.154635 
L 37.851216 268.445365 
L 40.363149 268.445365 
L 40.363149 267.381459 
L 42.578831 267.381459 
L 42.578831 266.317553 
L 44.560826 266.317553 
L 44.560826 265.962918 
L 46.353758 265.962918 
L 46.353758 265.608282 
L 47.990577 265.608282 
L 47.990577 264.899012 
L 49.496305 264.899012 
L 49.496305 264.544376 
L 50.890391 264.544376 
L 50.890391 264.189741 
L 55.618005 264.189741 
L 55.618005 263.835106 
L 65.227428 263.835106 
L 65.227428 263.480471 
L 72.854856 263.480471 
L 72.854856 263.125835 
L 74.836851 263.125835 
L 74.836851 262.7712 
L 79.184421 262.7712 
L 79.184421 262.416565 
L 81.433251 262.416565 
L 81.433251 262.061929 
L 83.678349 262.061929 
L 83.678349 261.707294 
L 102.793446 261.707294 
L 102.793446 261.352659 
L 106.974091 261.352659 
L 106.974091 260.998024 
L 110.562208 260.998024 
L 110.562208 260.643388 
L 117.733577 260.643388 
L 117.733577 260.288753 
L 124.615507 260.288753 
L 124.615507 259.934118 
L 127.319904 259.934118 
L 127.319904 259.579482 
L 131.582177 259.579482 
L 131.582177 259.224847 
L 137.972183 259.224847 
L 137.972183 258.870212 
L 138.180913 258.870212 
L 138.180913 258.515576 
L 141.534833 258.515576 
L 141.534833 258.160941 
L 142.753651 258.160941 
L 142.753651 257.806306 
L 144.704081 257.806306 
L 144.704081 257.451671 
L 146.387466 257.451671 
L 146.387466 257.097035 
L 150.939069 257.097035 
L 150.939069 256.7424 
L 151.895414 256.7424 
L 151.895414 256.387765 
L 153.696309 256.387765 
L 153.696309 256.033129 
L 159.787973 256.033129 
L 159.787973 255.678494 
L 164.129077 255.678494 
L 164.129077 255.323859 
L 165.376797 255.323859 
L 165.376797 254.969224 
L 166.228279 254.969224 
L 166.228279 254.614588 
L 166.749695 254.614588 
L 166.749695 254.259953 
L 166.865825 254.259953 
L 166.865825 253.905318 
L 167.062453 253.905318 
L 167.062453 253.550682 
L 168.381541 253.550682 
L 168.381541 253.196047 
L 169.234617 253.196047 
L 169.234617 252.841412 
L 169.540824 252.841412 
L 169.540824 252.486776 
L 169.694508 252.486776 
L 169.694508 252.132141 
L 169.909499 252.132141 
L 169.909499 251.777506 
L 170.207364 251.777506 
L 170.207364 251.422871 
L 170.442306 251.422871 
L 170.442306 251.068235 
L 170.96952 251.068235 
L 170.96952 250.7136 
L 171.342661 250.7136 
L 171.342661 250.358965 
L 172.286746 250.358965 
L 172.286746 250.004329 
L 173.999263 250.004329 
L 173.999263 249.649694 
L 174.803176 249.649694 
L 174.842022 248.940424 
L 175.246037 248.940424 
L 175.246037 248.585788 
L 175.675175 248.585788 
L 175.675175 248.231153 
L 176.528822 248.231153 
L 176.528822 247.876518 
L 176.707052 247.876518 
L 176.707052 247.521882 
L 177.017418 247.521882 
L 177.017418 247.167247 
L 177.495249 247.167247 
L 177.495249 246.812612 
L 177.650274 246.812612 
L 177.650274 246.457976 
L 177.878085 246.457976 
L 177.878085 246.103341 
L 178.053383 246.103341 
L 178.053383 245.748706 
L 178.563621 245.748706 
L 178.563621 245.394071 
L 179.142897 245.394071 
L 179.142897 245.039435 
L 179.807328 245.039435 
L 179.807328 244.6848 
L 179.969833 244.6848 
L 179.969833 244.330165 
L 184.100417 244.330165 
L 184.100417 243.975529 
L 185.014308 243.975529 
L 185.014308 243.620894 
L 186.617291 243.620894 
L 186.617291 243.266259 
L 186.78747 243.266259 
L 186.78747 242.911624 
L 187.11943 242.911624 
L 187.11943 242.556988 
L 187.485307 242.556988 
L 187.485307 242.202353 
L 187.671217 242.202353 
L 187.671217 241.847718 
L 187.947603 241.847718 
L 187.947603 241.493082 
L 188.745262 241.493082 
L 188.745262 241.138447 
L 190.695814 241.138447 
L 190.695814 240.783812 
L 191.164861 240.783812 
L 191.220647 240.074541 
L 191.661079 240.074541 
L 191.745534 239.010635 
L 191.987736 239.010635 
L 191.987736 238.656 
L 192.399143 238.656 
L 192.39987 237.946729 
L 192.533822 237.946729 
L 192.533822 237.592094 
L 192.993524 237.592094 
L 193.090436 236.173553 
L 193.177791 236.173553 
L 193.238351 235.464282 
L 193.369935 235.464282 
L 193.369935 235.109647 
L 193.566966 235.109647 
L 193.584032 234.400376 
L 193.956283 234.400376 
L 193.956283 234.045741 
L 195.319811 234.045741 
L 195.319811 233.691106 
L 197.293156 233.691106 
L 197.293156 233.336471 
L 198.420578 233.336471 
L 198.420578 232.981835 
L 199.614917 232.981835 
L 199.614917 232.6272 
L 200.498987 232.6272 
L 200.498987 232.272565 
L 202.507655 232.272565 
L 202.507655 231.917929 
L 203.857106 231.917929 
L 203.962723 231.208659 
L 204.38128 231.208659 
L 204.38128 230.854024 
L 205.434684 230.854024 
L 205.434684 230.499388 
L 205.719967 230.499388 
L 205.719967 230.144753 
L 205.897382 230.144753 
L 205.897382 229.790118 
L 206.092099 229.790118 
L 206.092099 229.435482 
L 206.428423 229.435482 
L 206.428423 229.080847 
L 206.749353 229.080847 
L 206.749353 228.726212 
L 210.747322 228.726212 
L 210.747322 228.371576 
L 212.178459 228.371576 
L 212.260299 227.662306 
L 212.404109 227.662306 
L 212.461728 226.953035 
L 212.53288 226.953035 
L 212.53288 226.5984 
L 212.674135 226.5984 
L 212.776495 225.889129 
L 212.978828 225.889129 
L 212.978828 225.534494 
L 213.278185 225.534494 
L 213.278185 225.179859 
L 214.260185 225.179859 
L 214.260185 224.825224 
L 221.312259 224.825224 
L 221.312259 224.470588 
L 221.505181 224.470588 
L 221.505181 224.115953 
L 222.085403 224.115953 
L 222.085403 223.761318 
L 223.527021 223.761318 
L 223.527021 223.406682 
L 242.302175 223.406682 
L 242.302175 223.052047 
L 248.974721 223.052047 
L 248.974721 222.697412 
L 252.269214 222.697412 
L 252.269214 222.342776 
L 258.820054 222.342776 
L 258.820054 221.988141 
L 258.975984 221.988141 
L 258.975984 221.633506 
L 259.092671 221.633506 
L 259.092671 221.278871 
L 259.222597 221.278871 
L 259.222597 220.924235 
L 259.460262 220.924235 
L 259.460262 220.5696 
L 259.877815 220.5696 
L 259.877815 220.214965 
L 260.081725 220.214965 
L 260.081725 219.860329 
L 260.34074 219.860329 
L 260.34074 219.505694 
L 269.973749 219.505694 
L 269.973749 219.151059 
L 295.844354 219.151059 
L 295.953931 217.377882 
L 296.091843 217.377882 
L 296.091843 217.023247 
L 296.211703 217.023247 
L 296.240975 215.959341 
L 296.578667 215.959341 
L 296.578667 215.604706 
L 296.901266 215.604706 
L 296.901266 215.250071 
L 297.283913 215.250071 
L 297.33619 213.831529 
L 297.467292 213.831529 
L 297.482281 212.767624 
L 297.757027 212.767624 
L 297.813119 212.058353 
L 297.946371 212.058353 
L 298.010239 211.349082 
L 298.074261 211.349082 
L 298.074261 210.994447 
L 298.378701 210.994447 
L 298.461693 210.285176 
L 298.803361 210.285176 
L 298.872674 209.575906 
L 298.989789 209.575906 
L 298.989789 209.221271 
L 299.984666 209.221271 
L 299.984666 208.866635 
L 300.272773 208.866635 
L 300.272773 208.512 
L 309.112187 208.512 
L 309.112187 208.157365 
L 309.594903 208.157365 
L 309.636565 207.093459 
L 309.822413 207.093459 
L 309.822413 206.738824 
L 310.133177 206.738824 
L 310.133177 206.384188 
L 310.760733 206.384188 
L 310.798312 205.674918 
L 311.347633 205.674918 
L 311.347633 205.320282 
L 317.255587 205.320282 
L 317.255587 204.965647 
L 317.389532 204.965647 
L 317.389532 204.611012 
L 317.565933 204.611012 
L 317.595474 203.547106 
L 317.829215 203.547106 
L 317.938338 202.837835 
L 318.083391 202.837835 
L 318.083391 202.4832 
L 318.259982 202.4832 
L 318.268161 201.773929 
L 318.44137 201.773929 
L 318.44137 201.419294 
L 319.775426 201.419294 
L 319.775426 201.064659 
L 322.908862 201.064659 
L 322.908862 200.710024 
L 323.626639 200.710024 
L 323.708655 199.646118 
L 326.600177 199.646118 
L 326.600177 199.291482 
L 326.73042 199.291482 
L 326.73042 198.936847 
L 327.518259 198.936847 
L 327.518259 198.582212 
L 327.790379 198.582212 
L 327.844534 197.518306 
L 327.932367 197.518306 
L 327.932367 197.163671 
L 330.860161 197.163671 
L 330.860161 196.809035 
L 331.73266 196.809035 
L 331.73266 196.4544 
L 333.729262 196.4544 
L 333.729262 196.099765 
L 333.903328 196.099765 
L 333.903328 195.745129 
L 334.015302 195.745129 
L 334.015302 195.390494 
L 336.241723 195.390494 
L 336.241723 195.035859 
L 336.548901 195.035859 
L 336.548901 194.681224 
L 338.358167 194.681224 
L 338.415699 193.971953 
L 338.609976 193.971953 
L 338.609976 193.617318 
L 340.194799 193.617318 
L 340.194799 193.262682 
L 340.794491 193.262682 
L 340.794491 192.908047 
L 346.681891 192.908047 
L 346.681891 192.553412 
L 360.8064 192.553412 
L 360.8064 192.553412 
" style="fill: none; stroke: #ff7500; stroke-width: 1.5; stroke-linecap: square"/>
   </g>
   <g id="line2d_46">
    <defs>
     <path id="m2d20b6cb54" d="M 0 -6 
L -1.347084 -1.854102 
L -5.706339 -1.854102 
L -2.179628 0.708204 
L -3.526712 4.854102 
L -0 2.291796 
L 3.526712 4.854102 
L 2.179628 0.708204 
L 5.706339 -1.854102 
L 1.347084 -1.854102 
z
" style="stroke: #ff7500; stroke-width: 1.5; stroke-linejoin: bevel"/>
    </defs>
    <g>
     <use xlink:href="#m2d20b6cb54" x="131.582177" y="259.579482" style="fill-opacity: 0; stroke: #ff7500; stroke-width: 1.5; stroke-linejoin: bevel"/>
     <use xlink:href="#m2d20b6cb54" x="193.956283" y="234.400376" style="fill-opacity: 0; stroke: #ff7500; stroke-width: 1.5; stroke-linejoin: bevel"/>
     <use xlink:href="#m2d20b6cb54" x="297.757027" y="212.767624" style="fill-opacity: 0; stroke: #ff7500; stroke-width: 1.5; stroke-linejoin: bevel"/>
     <use xlink:href="#m2d20b6cb54" x="346.681891" y="192.553412" style="fill-opacity: 0; stroke: #ff7500; stroke-width: 1.5; stroke-linejoin: bevel"/>
     <use xlink:href="#m2d20b6cb54" x="360.8064" y="192.553412" style="fill-opacity: 0; stroke: #ff7500; stroke-width: 1.5; stroke-linejoin: bevel"/>
    </g>
   </g>
   <g id="line2d_47">
    <path style="fill: none; stroke: #ff7500; stroke-width: 1.5; stroke-linecap: square"/>
    <g/>
   </g>
   <g id="line2d_48">
    <path d="M 297.137341 215.250071 
" clip-path="url(#p3e1abd53de)" style="fill: none; stroke: #ff7500; stroke-width: 1.5; stroke-linecap: square"/>
    <defs>
     <path id="mad32c8c74b" d="M -12 12 
L 12 -12 
M -12 -12 
L 12 12 
" style="stroke: #ff7500"/>
    </defs>
    <g clip-path="url(#p3e1abd53de)">
     <use xlink:href="#mad32c8c74b" x="297.137341" y="215.250071" style="fill: #ff7500; stroke: #ff7500"/>
    </g>
   </g>
   <g id="line2d_49">
    <path d="M 360.8064 192.553412 
L 380.514816 293.51808 
" style="fill: none; stroke: #ff7500; stroke-width: 1.5; stroke-linecap: square"/>
    <g>
     <use xlink:href="#m2d20b6cb54" x="360.8064" y="192.553412" style="fill-opacity: 0; stroke: #ff7500; stroke-width: 1.5; stroke-linejoin: bevel"/>
     <use xlink:href="#m2d20b6cb54" x="380.514816" y="293.51808" style="fill-opacity: 0; stroke: #ff7500; stroke-width: 1.5; stroke-linejoin: bevel"/>
    </g>
   </g>
   <g id="line2d_50">
    <path d="M 360.8064 35.804612 
L 380.514816 206.70336 
" style="fill: none; stroke: #ff00ff; stroke-width: 1.5; stroke-linecap: square"/>
    <g>
     <use xlink:href="#m141c0d4101" x="360.8064" y="35.804612" style="fill-opacity: 0; stroke: #ff00ff; stroke-width: 1.5; stroke-linejoin: miter"/>
     <use xlink:href="#m141c0d4101" x="380.514816" y="206.70336" style="fill-opacity: 0; stroke: #ff00ff; stroke-width: 1.5; stroke-linejoin: miter"/>
    </g>
   </g>
   <g id="line2d_51">
    <path d="M 360.8064 34.740706 
L 380.514816 119.88864 
" style="fill: none; stroke: #000080; stroke-width: 1.5; stroke-linecap: square"/>
    <g>
     <use xlink:href="#m32340ba9d2" x="360.8064" y="34.740706" style="fill-opacity: 0; stroke: #000080; stroke-width: 1.5"/>
     <use xlink:href="#m32340ba9d2" x="380.514816" y="119.88864" style="fill-opacity: 0; stroke: #000080; stroke-width: 1.5"/>
    </g>
   </g>
   <g id="line2d_52">
    <path d="M 360.8064 298.944 
L 360.8064 27.648 
" style="fill: none; stroke: #000000; stroke-width: 1.5; stroke-linecap: square"/>
   </g>
   <g id="patch_3">
    <path d="M 57.6 298.944 
L 360.8064 298.944 
" style="fill: none; stroke: #000000; stroke-width: 0.8; stroke-linejoin: miter; stroke-linecap: square"/>
   </g>
   <g id="patch_4">
    <path d="M 57.6 27.648 
L 360.8064 27.648 
" style="fill: none; stroke: #000000; stroke-width: 0.8; stroke-linejoin: miter; stroke-linecap: square"/>
   </g>
   <g id="text_13">
    <!-- CMA-ES-20 -->
    <g transform="translate(386.578944 297.381205)scale(0.14 -0.14)">
     <defs>
      <path id="DejaVuSans-43" d="M 4122 4306 
L 4122 3641 
Q 3803 3938 3442 4084 
Q 3081 4231 2675 4231 
Q 1875 4231 1450 3742 
Q 1025 3253 1025 2328 
Q 1025 1406 1450 917 
Q 1875 428 2675 428 
Q 3081 428 3442 575 
Q 3803 722 4122 1019 
L 4122 359 
Q 3791 134 3420 21 
Q 3050 -91 2638 -91 
Q 1578 -91 968 557 
Q 359 1206 359 2328 
Q 359 3453 968 4101 
Q 1578 4750 2638 4750 
Q 3056 4750 3426 4639 
Q 3797 4528 4122 4306 
z
" transform="scale(0.015625)"/>
      <path id="DejaVuSans-4d" d="M 628 4666 
L 1569 4666 
L 2759 1491 
L 3956 4666 
L 4897 4666 
L 4897 0 
L 4281 0 
L 4281 4097 
L 3078 897 
L 2444 897 
L 1241 4097 
L 1241 0 
L 628 0 
L 628 4666 
z
" transform="scale(0.015625)"/>
      <path id="DejaVuSans-41" d="M 2188 4044 
L 1331 1722 
L 3047 1722 
L 2188 4044 
z
M 1831 4666 
L 2547 4666 
L 4325 0 
L 3669 0 
L 3244 1197 
L 1141 1197 
L 716 0 
L 50 0 
L 1831 4666 
z
" transform="scale(0.015625)"/>
      <path id="DejaVuSans-45" d="M 628 4666 
L 3578 4666 
L 3578 4134 
L 1259 4134 
L 1259 2753 
L 3481 2753 
L 3481 2222 
L 1259 2222 
L 1259 531 
L 3634 531 
L 3634 0 
L 628 0 
L 628 4666 
z
" transform="scale(0.015625)"/>
      <path id="DejaVuSans-53" d="M 3425 4513 
L 3425 3897 
Q 3066 4069 2747 4153 
Q 2428 4238 2131 4238 
Q 1616 4238 1336 4038 
Q 1056 3838 1056 3469 
Q 1056 3159 1242 3001 
Q 1428 2844 1947 2747 
L 2328 2669 
Q 3034 2534 3370 2195 
Q 3706 1856 3706 1288 
Q 3706 609 3251 259 
Q 2797 -91 1919 -91 
Q 1588 -91 1214 -16 
Q 841 59 441 206 
L 441 856 
Q 825 641 1194 531 
Q 1563 422 1919 422 
Q 2459 422 2753 634 
Q 3047 847 3047 1241 
Q 3047 1584 2836 1778 
Q 2625 1972 2144 2069 
L 1759 2144 
Q 1053 2284 737 2584 
Q 422 2884 422 3419 
Q 422 4038 858 4394 
Q 1294 4750 2059 4750 
Q 2388 4750 2728 4690 
Q 3069 4631 3425 4513 
z
" transform="scale(0.015625)"/>
     </defs>
     <use xlink:href="#DejaVuSans-43"/>
     <use xlink:href="#DejaVuSans-4d" x="69.824219"/>
     <use xlink:href="#DejaVuSans-41" x="156.103516"/>
     <use xlink:href="#DejaVuSans-2d" x="222.261719"/>
     <use xlink:href="#DejaVuSans-45" x="258.345703"/>
     <use xlink:href="#DejaVuSans-53" x="321.529297"/>
     <use xlink:href="#DejaVuSans-2d" x="385.005859"/>
     <use xlink:href="#DejaVuSans-32" x="421.089844"/>
     <use xlink:href="#DejaVuSans-30" x="484.712891"/>
    </g>
   </g>
   <g id="text_14">
    <!-- cma1 -->
    <g transform="translate(386.578944 210.566485)scale(0.14 -0.14)">
     <use xlink:href="#DejaVuSans-63"/>
     <use xlink:href="#DejaVuSans-6d" x="54.980469"/>
     <use xlink:href="#DejaVuSans-61" x="152.392578"/>
     <use xlink:href="#DejaVuSans-31" x="213.671875"/>
    </g>
   </g>
   <g id="text_15">
    <!-- cma0 -->
    <g transform="translate(386.578944 123.751765)scale(0.14 -0.14)">
     <use xlink:href="#DejaVuSans-63"/>
     <use xlink:href="#DejaVuSans-6d" x="54.980469"/>
     <use xlink:href="#DejaVuSans-61" x="152.392578"/>
     <use xlink:href="#DejaVuSans-30" x="213.671875"/>
    </g>
   </g>
   <g id="text_16">
    <!-- best 2009 -->
    <g transform="translate(386.578944 36.937045)scale(0.14 -0.14)">
     <defs>
      <path id="DejaVuSans-62" d="M 3116 1747 
Q 3116 2381 2855 2742 
Q 2594 3103 2138 3103 
Q 1681 3103 1420 2742 
Q 1159 2381 1159 1747 
Q 1159 1113 1420 752 
Q 1681 391 2138 391 
Q 2594 391 2855 752 
Q 3116 1113 3116 1747 
z
M 1159 2969 
Q 1341 3281 1617 3432 
Q 1894 3584 2278 3584 
Q 2916 3584 3314 3078 
Q 3713 2572 3713 1747 
Q 3713 922 3314 415 
Q 2916 -91 2278 -91 
Q 1894 -91 1617 61 
Q 1341 213 1159 525 
L 1159 0 
L 581 0 
L 581 4863 
L 1159 4863 
L 1159 2969 
z
" transform="scale(0.015625)"/>
      <path id="DejaVuSans-39" d="M 703 97 
L 703 672 
Q 941 559 1184 500 
Q 1428 441 1663 441 
Q 2288 441 2617 861 
Q 2947 1281 2994 2138 
Q 2813 1869 2534 1725 
Q 2256 1581 1919 1581 
Q 1219 1581 811 2004 
Q 403 2428 403 3163 
Q 403 3881 828 4315 
Q 1253 4750 1959 4750 
Q 2769 4750 3195 4129 
Q 3622 3509 3622 2328 
Q 3622 1225 3098 567 
Q 2575 -91 1691 -91 
Q 1453 -91 1209 -44 
Q 966 3 703 97 
z
M 1959 2075 
Q 2384 2075 2632 2365 
Q 2881 2656 2881 3163 
Q 2881 3666 2632 3958 
Q 2384 4250 1959 4250 
Q 1534 4250 1286 3958 
Q 1038 3666 1038 3163 
Q 1038 2656 1286 2365 
Q 1534 2075 1959 2075 
z
" transform="scale(0.015625)"/>
     </defs>
     <use xlink:href="#DejaVuSans-62"/>
     <use xlink:href="#DejaVuSans-65" x="63.476562"/>
     <use xlink:href="#DejaVuSans-73" x="125"/>
     <use xlink:href="#DejaVuSans-74" x="177.099609"/>
     <use xlink:href="#DejaVuSans-20" x="216.308594"/>
     <use xlink:href="#DejaVuSans-32" x="248.095703"/>
     <use xlink:href="#DejaVuSans-30" x="311.71875"/>
     <use xlink:href="#DejaVuSans-30" x="375.341797"/>
     <use xlink:href="#DejaVuSans-39" x="438.964844"/>
    </g>
   </g>
   <g id="text_17">
    <!-- bbob f23, 20-D -->
    <g transform="translate(60.632064 38.111366)scale(0.102 -0.102)">
     <defs>
      <path id="DejaVuSans-33" d="M 2597 2516 
Q 3050 2419 3304 2112 
Q 3559 1806 3559 1356 
Q 3559 666 3084 287 
Q 2609 -91 1734 -91 
Q 1441 -91 1130 -33 
Q 819 25 488 141 
L 488 750 
Q 750 597 1062 519 
Q 1375 441 1716 441 
Q 2309 441 2620 675 
Q 2931 909 2931 1356 
Q 2931 1769 2642 2001 
Q 2353 2234 1838 2234 
L 1294 2234 
L 1294 2753 
L 1863 2753 
Q 2328 2753 2575 2939 
Q 2822 3125 2822 3475 
Q 2822 3834 2567 4026 
Q 2313 4219 1838 4219 
Q 1578 4219 1281 4162 
Q 984 4106 628 3988 
L 628 4550 
Q 988 4650 1302 4700 
Q 1616 4750 1894 4750 
Q 2613 4750 3031 4423 
Q 3450 4097 3450 3541 
Q 3450 3153 3228 2886 
Q 3006 2619 2597 2516 
z
" transform="scale(0.015625)"/>
      <path id="DejaVuSans-44" d="M 1259 4147 
L 1259 519 
L 2022 519 
Q 2988 519 3436 956 
Q 3884 1394 3884 2338 
Q 3884 3275 3436 3711 
Q 2988 4147 2022 4147 
L 1259 4147 
z
M 628 4666 
L 1925 4666 
Q 3281 4666 3915 4102 
Q 4550 3538 4550 2338 
Q 4550 1131 3912 565 
Q 3275 0 1925 0 
L 628 0 
L 628 4666 
z
" transform="scale(0.015625)"/>
     </defs>
     <use xlink:href="#DejaVuSans-62"/>
     <use xlink:href="#DejaVuSans-62" x="63.476562"/>
     <use xlink:href="#DejaVuSans-6f" x="126.953125"/>
     <use xlink:href="#DejaVuSans-62" x="188.134766"/>
     <use xlink:href="#DejaVuSans-20" x="251.611328"/>
     <use xlink:href="#DejaVuSans-66" x="283.398438"/>
     <use xlink:href="#DejaVuSans-32" x="318.603516"/>
     <use xlink:href="#DejaVuSans-33" x="382.226562"/>
     <use xlink:href="#DejaVuSans-2c" x="445.849609"/>
     <use xlink:href="#DejaVuSans-20" x="477.636719"/>
     <use xlink:href="#DejaVuSans-32" x="509.423828"/>
     <use xlink:href="#DejaVuSans-30" x="573.046875"/>
     <use xlink:href="#DejaVuSans-2d" x="636.669922"/>
     <use xlink:href="#DejaVuSans-44" x="672.753906"/>
    </g>
    <!-- 51 targets: 100..1e-08 -->
    <g transform="translate(60.632064 49.533135)scale(0.102 -0.102)">
     <defs>
      <path id="DejaVuSans-35" d="M 691 4666 
L 3169 4666 
L 3169 4134 
L 1269 4134 
L 1269 2991 
Q 1406 3038 1543 3061 
Q 1681 3084 1819 3084 
Q 2600 3084 3056 2656 
Q 3513 2228 3513 1497 
Q 3513 744 3044 326 
Q 2575 -91 1722 -91 
Q 1428 -91 1123 -41 
Q 819 9 494 109 
L 494 744 
Q 775 591 1075 516 
Q 1375 441 1709 441 
Q 2250 441 2565 725 
Q 2881 1009 2881 1497 
Q 2881 1984 2565 2268 
Q 2250 2553 1709 2553 
Q 1456 2553 1204 2497 
Q 953 2441 691 2322 
L 691 4666 
z
" transform="scale(0.015625)"/>
      <path id="DejaVuSans-3a" d="M 750 794 
L 1409 794 
L 1409 0 
L 750 0 
L 750 794 
z
M 750 3309 
L 1409 3309 
L 1409 2516 
L 750 2516 
L 750 3309 
z
" transform="scale(0.015625)"/>
     </defs>
     <use xlink:href="#DejaVuSans-35"/>
     <use xlink:href="#DejaVuSans-31" x="63.623047"/>
     <use xlink:href="#DejaVuSans-20" x="127.246094"/>
     <use xlink:href="#DejaVuSans-74" x="159.033203"/>
     <use xlink:href="#DejaVuSans-61" x="198.242188"/>
     <use xlink:href="#DejaVuSans-72" x="259.521484"/>
     <use xlink:href="#DejaVuSans-67" x="298.884766"/>
     <use xlink:href="#DejaVuSans-65" x="362.361328"/>
     <use xlink:href="#DejaVuSans-74" x="423.884766"/>
     <use xlink:href="#DejaVuSans-73" x="463.09375"/>
     <use xlink:href="#DejaVuSans-3a" x="515.193359"/>
     <use xlink:href="#DejaVuSans-20" x="548.884766"/>
     <use xlink:href="#DejaVuSans-31" x="580.671875"/>
     <use xlink:href="#DejaVuSans-30" x="644.294922"/>
     <use xlink:href="#DejaVuSans-30" x="707.917969"/>
     <use xlink:href="#DejaVuSans-2e" x="771.541016"/>
     <use xlink:href="#DejaVuSans-2e" x="803.328125"/>
     <use xlink:href="#DejaVuSans-31" x="835.115234"/>
     <use xlink:href="#DejaVuSans-65" x="898.738281"/>
     <use xlink:href="#DejaVuSans-2d" x="960.261719"/>
     <use xlink:href="#DejaVuSans-30" x="996.345703"/>
     <use xlink:href="#DejaVuSans-38" x="1059.96875"/>
    </g>
    <!-- 15 instances -->
    <g transform="translate(60.632064 60.954904)scale(0.102 -0.102)">
     <use xlink:href="#DejaVuSans-31"/>
     <use xlink:href="#DejaVuSans-35" x="63.623047"/>
     <use xlink:href="#DejaVuSans-20" x="127.246094"/>
     <use xlink:href="#DejaVuSans-69" x="159.033203"/>
     <use xlink:href="#DejaVuSans-6e" x="186.816406"/>
     <use xlink:href="#DejaVuSans-73" x="250.195312"/>
     <use xlink:href="#DejaVuSans-74" x="302.294922"/>
     <use xlink:href="#DejaVuSans-61" x="341.503906"/>
     <use xlink:href="#DejaVuSans-6e" x="402.783203"/>
     <use xlink:href="#DejaVuSans-63" x="466.162109"/>
     <use xlink:href="#DejaVuSans-65" x="521.142578"/>
     <use xlink:href="#DejaVuSans-73" x="582.666016"/>
    </g>
   </g>
   <g id="text_18">
    <!-- v2.6 -->
    <g style="fill: #808080" transform="translate(198.292262 294.151352)scale(0.1 -0.1)">
     <use xlink:href="#DejaVuSans-76"/>
     <use xlink:href="#DejaVuSans-32" x="59.179688"/>
     <use xlink:href="#DejaVuSans-2e" x="122.802734"/>
     <use xlink:href="#DejaVuSans-36" x="154.589844"/>
    </g>
   </g>
   <g id="text_19">
    <!-- 23 Katsuuras -->
    <g transform="translate(143.536012 21.648)scale(0.2 -0.2)">
     <defs>
      <path id="DejaVuSans-4b" d="M 628 4666 
L 1259 4666 
L 1259 2694 
L 3353 4666 
L 4166 4666 
L 1850 2491 
L 4331 0 
L 3500 0 
L 1259 2247 
L 1259 0 
L 628 0 
L 628 4666 
z
" transform="scale(0.015625)"/>
     </defs>
     <use xlink:href="#DejaVuSans-32"/>
     <use xlink:href="#DejaVuSans-33" x="63.623047"/>
     <use xlink:href="#DejaVuSans-20" x="127.246094"/>
     <use xlink:href="#DejaVuSans-4b" x="159.033203"/>
     <use xlink:href="#DejaVuSans-61" x="222.859375"/>
     <use xlink:href="#DejaVuSans-74" x="284.138672"/>
     <use xlink:href="#DejaVuSans-73" x="323.347656"/>
     <use xlink:href="#DejaVuSans-75" x="375.447266"/>
     <use xlink:href="#DejaVuSans-75" x="438.826172"/>
     <use xlink:href="#DejaVuSans-72" x="502.205078"/>
     <use xlink:href="#DejaVuSans-61" x="543.318359"/>
     <use xlink:href="#DejaVuSans-73" x="604.597656"/>
    </g>
   </g>
  </g>
 </g>
 <defs>
  <clipPath id="p3e1abd53de">
   <rect x="57.6" y="27.648" width="303.2064" height="271.296"/>
  </clipPath>
 </defs>
</svg>
