<?xml version="1.0" encoding="utf-8" standalone="no"?>
<!DOCTYPE svg PUBLIC "-//W3C//DTD SVG 1.1//EN"
  "http://www.w3.org/Graphics/SVG/1.1/DTD/svg11.dtd">
<svg xmlns:xlink="http://www.w3.org/1999/xlink" width="460.8pt" height="345.6pt" viewBox="0 0 460.8 345.6" xmlns="http://www.w3.org/2000/svg" version="1.1">
 <metadata>
  <rdf:RDF xmlns:dc="http://purl.org/dc/elements/1.1/" xmlns:cc="http://creativecommons.org/ns#" xmlns:rdf="http://www.w3.org/1999/02/22-rdf-syntax-ns#">
   <cc:Work>
    <dc:type rdf:resource="http://purl.org/dc/dcmitype/StillImage"/>
    <dc:date>2022-03-16T23:08:13.811943</dc:date>
    <dc:format>image/svg+xml</dc:format>
    <dc:creator>
     <cc:Agent>
      <dc:title>Matplotlib v3.5.1, https://matplotlib.org/</dc:title>
     </cc:Agent>
    </dc:creator>
   </cc:Work>
  </rdf:RDF>
 </metadata>
 <defs>
  <style type="text/css">*{stroke-linejoin: round; stroke-linecap: butt}</style>
 </defs>
 <g id="figure_1">
  <g id="patch_1">
   <path d="M 0 345.6 
L 460.8 345.6 
L 460.8 0 
L 0 0 
z
" style="fill: #ffffff"/>
  </g>
  <g id="axes_1">
   <g id="patch_2">
    <path d="M 62.208 293.76 
L 460.8 293.76 
L 460.8 3.456 
L 62.208 3.456 
z
" style="fill: #ffffff"/>
   </g>
   <g id="line2d_1">
    <path d="M 356.048744 293.76 
L 356.048744 289.927604 
L 360.415872 289.927604 
L 360.415872 286.095208 
L 361.971933 286.095208 
L 361.971933 282.262812 
L 362.544804 282.262812 
L 362.544804 278.430416 
L 363.049292 278.430416 
L 363.049292 274.59802 
L 364.045225 274.59802 
L 364.045225 270.765624 
L 364.106904 270.765624 
L 364.106904 266.933228 
L 364.475598 266.933228 
L 364.475598 263.100832 
L 366.933858 263.100832 
L 366.933858 259.268436 
L 368.44018 259.268436 
L 368.44018 255.43604 
L 369.065819 255.43604 
L 369.065819 251.603644 
L 369.46045 251.603644 
L 369.46045 247.771248 
L 388.842929 247.771248 
L 388.842929 243.938851 
L 396.572839 243.938851 
L 396.572839 240.106455 
L 396.992735 240.106455 
L 396.992735 236.274059 
L 403.294783 236.274059 
L 403.294783 232.441663 
L 403.761743 232.441663 
L 403.761743 228.609267 
L 411.551763 228.609267 
L 411.551763 224.776871 
L 425.702501 224.776871 
L 425.702501 220.944475 
L 426.376875 220.944475 
L 426.376875 217.112079 
L 430.908279 217.112079 
L 430.908279 213.279683 
L 444.968519 213.279683 
L 444.968519 209.447287 
L 456.563863 209.447287 
L 456.563863 205.614891 
L 461.8 205.614891 
" clip-path="url(#pa8e5223a95)" style="fill: none; stroke: #f5deb3; stroke-width: 1.5; stroke-linecap: square"/>
   </g>
   <g id="line2d_2"/>
   <g id="line2d_3">
    <path d="M 214.482747 293.76 
L 214.482747 289.927604 
L 216.108219 289.927604 
L 216.108219 286.095208 
L 230.875685 286.095208 
L 230.875685 282.262812 
L 326.526609 282.262812 
L 326.526609 278.430416 
L 350.705042 278.430416 
L 350.705042 274.59802 
L 402.666232 274.59802 
L 402.666232 270.765624 
L 416.804408 270.765624 
L 416.804408 266.933228 
L 423.981257 266.933228 
L 423.981257 263.100832 
L 439.160094 263.100832 
L 439.160094 259.268436 
L 441.833635 259.268436 
L 441.833635 255.43604 
L 449.098013 255.43604 
L 449.098013 251.603644 
L 457.99863 251.603644 
L 457.99863 247.771248 
L 461.8 247.771248 
" clip-path="url(#pa8e5223a95)" style="fill: none; stroke: #f5deb3; stroke-width: 1.5; stroke-linecap: square"/>
   </g>
   <g id="line2d_4">
    <path d="M 372.470638 293.76 
L 372.470638 289.927604 
L 380.567414 289.927604 
L 380.567414 286.095208 
L 382.122036 286.095208 
L 382.122036 282.262812 
L 382.257218 282.262812 
L 382.257218 278.430416 
L 382.436971 278.430416 
L 382.436971 274.59802 
L 384.767286 274.59802 
L 384.767286 270.765624 
L 385.74999 270.765624 
L 385.74999 266.933228 
L 387.789381 266.933228 
L 387.789381 263.100832 
L 388.115603 263.100832 
L 388.115603 259.268436 
L 390.192244 259.268436 
L 390.192244 255.43604 
L 391.587353 255.43604 
L 391.587353 251.603644 
L 392.423606 251.603644 
L 392.423606 247.771248 
L 393.322268 247.771248 
L 393.322268 243.938851 
L 393.581763 243.938851 
L 393.581763 240.106455 
L 394.097277 240.106455 
L 394.097277 236.274059 
L 394.462702 236.274059 
L 394.57188 228.609267 
L 394.608227 228.609267 
L 394.608227 224.776871 
L 395.006537 224.776871 
L 395.006537 220.944475 
L 395.150698 220.944475 
L 395.150698 217.112079 
L 395.437944 217.112079 
L 395.437944 213.279683 
L 396.818149 213.279683 
L 396.818149 209.447287 
L 397.926475 209.447287 
L 397.926475 205.614891 
L 398.370721 205.614891 
L 398.370721 201.782495 
L 398.574609 201.782495 
L 398.574609 197.950099 
L 399.516678 197.950099 
L 399.516678 194.117703 
L 399.650013 194.117703 
L 399.650013 190.285307 
L 401.902819 190.285307 
L 401.902819 186.452911 
L 402.476323 186.452911 
L 402.476323 182.620515 
L 402.918475 182.620515 
L 402.918475 178.788119 
L 403.482021 178.788119 
L 403.482021 174.955723 
L 404.347853 174.955723 
L 404.347853 171.123327 
L 404.470489 171.123327 
L 404.470489 167.290931 
L 404.806402 167.290931 
L 404.806402 163.458535 
L 405.832482 163.458535 
L 405.832482 159.626139 
L 406.722939 159.626139 
L 406.722939 155.793743 
L 407.192289 155.793743 
L 407.192289 151.961347 
L 407.338182 151.961347 
L 407.396435 144.296554 
L 407.860361 144.296554 
L 407.889233 136.631762 
L 408.720294 136.631762 
L 408.805587 128.96697 
L 409.286544 128.96697 
L 409.342865 121.302178 
L 410.153395 121.302178 
L 410.181142 113.637386 
L 410.513073 113.637386 
L 410.56821 105.972594 
L 411.524668 105.972594 
L 411.524668 102.140198 
L 411.902855 102.140198 
L 411.902855 98.307802 
L 414.944564 98.307802 
L 414.944564 94.475406 
L 418.510203 94.475406 
L 418.510203 90.64301 
L 420.562305 90.64301 
L 420.562305 86.810614 
L 422.499125 86.810614 
L 422.499125 82.978218 
L 428.110495 82.978218 
L 428.110495 79.145822 
L 439.494881 79.145822 
L 439.494881 75.313426 
L 439.976898 75.313426 
L 439.976898 71.48103 
L 441.817604 71.48103 
L 441.817604 67.648634 
L 442.471215 67.648634 
L 442.471215 63.816238 
L 442.834659 63.816238 
L 442.834659 59.983842 
L 447.157958 59.983842 
L 447.157958 56.151446 
L 451.830395 56.151446 
L 451.830395 52.31905 
L 461.8 52.31905 
L 461.8 52.31905 
" clip-path="url(#pa8e5223a95)" style="fill: none; stroke: #f5deb3; stroke-width: 1.5; stroke-linecap: square"/>
   </g>
   <g id="line2d_5"/>
   <g id="line2d_6"/>
   <g id="line2d_7">
    <path d="M 412.225055 293.76 
L 412.225055 289.927604 
L 413.154656 289.927604 
L 413.154656 286.095208 
L 413.965694 286.095208 
L 413.965694 282.262812 
L 414.81671 282.262812 
L 414.81671 278.430416 
L 414.995626 278.430416 
L 414.995626 274.59802 
L 417.760994 274.59802 
L 417.760994 270.765624 
L 417.97951 270.765624 
L 417.97951 266.933228 
L 418.845394 266.933228 
L 418.845394 263.100832 
L 419.368218 263.100832 
L 419.415514 255.43604 
L 419.721993 255.43604 
L 419.815967 243.938851 
L 419.933221 243.938851 
L 419.933221 240.106455 
L 420.073611 240.106455 
L 420.073611 236.274059 
L 420.562305 236.274059 
L 420.654922 228.609267 
L 420.747391 228.609267 
L 420.816645 220.944475 
L 421.046895 220.944475 
L 421.115791 205.614891 
L 421.868267 205.614891 
L 421.868267 201.782495 
L 422.094366 201.782495 
L 422.094366 197.950099 
L 422.521529 197.950099 
L 422.521529 194.117703 
L 423.520792 194.117703 
L 423.520792 190.285307 
L 423.871955 190.285307 
L 423.871955 186.452911 
L 424.24274 186.452911 
L 424.286206 178.788119 
L 424.459741 178.788119 
L 424.459741 174.955723 
L 424.654346 174.955723 
L 424.654346 171.123327 
L 425.148709 171.123327 
L 425.255621 163.458535 
L 425.977417 163.458535 
L 425.99851 155.793743 
L 426.334957 155.793743 
L 426.334957 151.961347 
L 427.640968 151.961347 
L 427.640968 148.12895 
L 428.515696 148.12895 
L 428.515696 144.296554 
L 429.218023 144.296554 
L 429.218023 140.464158 
L 429.357468 140.464158 
L 429.397248 132.799366 
L 429.67494 132.799366 
L 429.67494 128.96697 
L 429.951303 128.96697 
L 429.951303 125.134574 
L 431.313602 125.134574 
L 431.409689 117.469782 
L 432.62568 117.469782 
L 432.62568 113.637386 
L 437.092124 113.637386 
L 437.092124 109.80499 
L 437.473673 109.80499 
L 437.473673 105.972594 
L 443.211479 105.972594 
L 443.211479 102.140198 
L 443.43016 102.140198 
L 443.43016 98.307802 
L 445.976741 98.307802 
L 445.976741 94.475406 
L 447.667232 94.475406 
L 447.667232 90.64301 
L 447.884124 90.64301 
L 447.884124 86.810614 
L 449.576507 86.810614 
L 449.576507 82.978218 
L 449.68852 82.978218 
L 449.68852 79.145822 
L 450.618185 79.145822 
L 450.618185 75.313426 
L 450.851707 75.313426 
L 450.906516 67.648634 
L 452.005347 67.648634 
L 452.005347 63.816238 
L 453.713251 63.816238 
L 453.713251 59.983842 
L 454.258578 59.983842 
L 454.258578 56.151446 
L 456.177655 56.151446 
L 456.177655 52.31905 
L 459.610979 52.31905 
L 459.610979 48.486653 
L 460.441216 48.486653 
L 460.441216 44.654257 
L 461.8 44.654257 
L 461.8 44.654257 
" clip-path="url(#pa8e5223a95)" style="fill: none; stroke: #f5deb3; stroke-width: 1.5; stroke-linecap: square"/>
   </g>
   <g id="line2d_8">
    <path clip-path="url(#pa8e5223a95)" style="fill: none; stroke: #f5deb3; stroke-width: 1.5; stroke-linecap: square"/>
   </g>
   <g id="line2d_9">
    <path d="M 404.806402 293.76 
L 404.806402 289.927604 
L 406.249739 289.927604 
L 406.249739 286.095208 
L 407.367316 286.095208 
L 407.367316 282.262812 
L 409.20196 282.262812 
L 409.20196 278.430416 
L 409.679639 278.430416 
L 409.679639 274.59802 
L 409.847291 274.59802 
L 409.847291 270.765624 
L 410.760774 270.765624 
L 410.760774 266.933228 
L 411.741078 266.933228 
L 411.741078 263.100832 
L 412.385483 263.100832 
L 412.385483 259.268436 
L 412.705006 259.268436 
L 412.811122 251.603644 
L 412.864106 251.603644 
L 412.890581 243.938851 
L 413.731403 243.938851 
L 413.731403 240.106455 
L 414.069518 240.106455 
L 414.069518 236.274059 
L 414.328265 236.274059 
L 414.354076 228.609267 
L 414.560149 228.609267 
L 414.560149 224.776871 
L 414.739861 224.776871 
L 414.739861 220.944475 
L 415.097615 220.944475 
L 415.097615 217.112079 
L 415.224849 217.112079 
L 415.224849 213.279683 
L 415.982415 213.279683 
L 415.982415 209.447287 
L 416.606209 209.447287 
L 416.606209 205.614891 
L 416.903252 205.614891 
L 416.903252 201.782495 
L 417.149625 201.782495 
L 417.149625 197.950099 
L 417.541646 197.950099 
L 417.590462 190.285307 
L 417.663609 190.285307 
L 417.663609 186.452911 
L 418.003739 186.452911 
L 418.100551 174.955723 
L 418.124729 174.955723 
L 418.197202 163.458535 
L 418.582194 163.458535 
L 418.582194 159.626139 
L 418.940806 159.626139 
L 418.964634 151.961347 
L 419.839437 151.961347 
L 419.909789 144.296554 
L 420.585473 144.296554 
L 420.585473 140.464158 
L 421.092834 140.464158 
L 421.092834 136.631762 
L 421.207524 136.631762 
L 421.207524 132.799366 
L 421.845608 132.799366 
L 421.845608 128.96697 
L 421.981427 128.96697 
L 421.981427 125.134574 
L 422.364521 125.134574 
L 422.364521 121.302178 
L 423.806275 121.302178 
L 423.915701 113.637386 
L 423.937561 113.637386 
L 423.937561 109.80499 
L 425.383655 109.80499 
L 425.383655 105.972594 
L 426.376875 105.972594 
L 426.376875 102.140198 
L 433.871798 102.140198 
L 433.871798 98.307802 
L 434.820719 98.307802 
L 434.820719 94.475406 
L 435.861041 94.475406 
L 435.861041 90.64301 
L 437.594548 90.64301 
L 437.594548 86.810614 
L 437.938516 86.810614 
L 437.938516 82.978218 
L 439.976898 82.978218 
L 439.976898 79.145822 
L 442.153305 79.145822 
L 442.153305 75.313426 
L 442.455361 75.313426 
L 442.455361 71.48103 
L 442.976255 71.48103 
L 442.976255 67.648634 
L 445.677619 67.648634 
L 445.677619 63.816238 
L 447.099468 63.816238 
L 447.099468 59.983842 
L 448.042662 59.983842 
L 448.042662 56.151446 
L 451.451764 56.151446 
L 451.451764 52.31905 
L 461.8 52.31905 
L 461.8 52.31905 
" clip-path="url(#pa8e5223a95)" style="fill: none; stroke: #f5deb3; stroke-width: 1.5; stroke-linecap: square"/>
   </g>
   <g id="line2d_10">
    <path clip-path="url(#pa8e5223a95)" style="fill: none; stroke: #f5deb3; stroke-width: 1.5; stroke-linecap: square"/>
   </g>
   <g id="line2d_11">
    <path clip-path="url(#pa8e5223a95)" style="fill: none; stroke: #f5deb3; stroke-width: 1.5; stroke-linecap: square"/>
   </g>
   <g id="line2d_12">
    <path d="M 357.518452 293.76 
L 357.518452 289.927604 
L 426.898299 289.927604 
L 426.898299 286.095208 
L 430.402473 286.095208 
L 430.402473 282.262812 
L 461.8 282.262812 
" clip-path="url(#pa8e5223a95)" style="fill: none; stroke: #f5deb3; stroke-width: 1.5; stroke-linecap: square"/>
   </g>
   <g id="line2d_13"/>
   <g id="line2d_14">
    <path d="M 396.043635 293.76 
L 396.043635 289.927604 
L 403.82372 289.927604 
L 403.82372 286.095208 
L 420.026852 286.095208 
L 420.026852 282.262812 
L 421.981427 282.262812 
L 421.981427 278.430416 
L 428.817741 278.430416 
L 428.817741 274.59802 
L 429.297747 274.59802 
L 429.297747 270.765624 
L 433.093803 270.765624 
L 433.093803 266.933228 
L 437.697954 266.933228 
L 437.697954 263.100832 
L 438.924582 263.100832 
L 438.924582 259.268436 
L 445.467308 259.268436 
L 445.467308 255.43604 
L 446.908965 255.43604 
L 446.908965 251.603644 
L 448.942353 251.603644 
L 448.942353 247.771248 
L 450.342238 247.771248 
L 450.342238 243.938851 
L 456.588691 243.938851 
L 456.588691 240.106455 
L 461.556512 240.106455 
L 461.556512 236.274059 
L 461.8 236.274059 
" clip-path="url(#pa8e5223a95)" style="fill: none; stroke: #f5deb3; stroke-width: 1.5; stroke-linecap: square"/>
   </g>
   <g id="line2d_15"/>
   <g id="line2d_16"/>
   <g id="line2d_17">
    <path d="M 0 0 
" clip-path="url(#pa8e5223a95)" style="fill: none; stroke: #f5deb3; stroke-width: 1.5; stroke-linecap: square"/>
   </g>
   <g id="line2d_18">
    <path d="M 300.159004 293.76 
L 300.159004 289.927604 
L 340.433317 289.927604 
L 340.433317 286.095208 
L 342.262327 286.095208 
L 342.262327 282.262812 
L 351.936031 282.262812 
L 351.936031 278.430416 
L 353.066709 278.430416 
L 353.066709 274.59802 
L 370.793339 274.59802 
L 370.793339 270.765624 
L 375.685689 270.765624 
L 375.685689 266.933228 
L 395.186682 266.933228 
L 395.186682 263.100832 
L 399.948893 263.100832 
L 399.948893 259.268436 
L 419.012261 259.268436 
L 419.012261 255.43604 
L 419.745501 255.43604 
L 419.745501 251.603644 
L 428.293188 251.603644 
L 428.293188 247.771248 
L 433.576654 247.771248 
L 433.576654 243.938851 
L 435.843263 243.938851 
L 435.843263 240.106455 
L 436.073958 240.106455 
L 436.073958 236.274059 
L 436.215468 236.274059 
L 436.215468 232.441663 
L 442.566247 232.441663 
L 442.566247 228.609267 
L 443.616943 228.609267 
L 443.616943 224.776871 
L 444.404095 224.776871 
L 444.404095 220.944475 
L 444.557187 220.944475 
L 444.557187 217.112079 
L 445.331701 217.112079 
L 445.331701 213.279683 
L 446.200069 213.279683 
L 446.200069 209.447287 
L 452.380374 209.447287 
L 452.380374 205.614891 
L 458.39694 205.614891 
L 458.39694 201.782495 
L 458.637009 201.782495 
L 458.637009 197.950099 
L 461.8 197.950099 
" clip-path="url(#pa8e5223a95)" style="fill: none; stroke: #f5deb3; stroke-width: 1.5; stroke-linecap: square"/>
   </g>
   <g id="line2d_19">
    <path clip-path="url(#pa8e5223a95)" style="fill: none; stroke: #f5deb3; stroke-width: 1.5; stroke-linecap: square"/>
   </g>
   <g id="line2d_20">
    <path d="M 321.333774 293.76 
L 321.333774 289.927604 
L 327.697043 289.927604 
L 327.697043 286.095208 
L 332.688663 286.095208 
L 332.688663 282.262812 
L 333.845867 282.262812 
L 333.845867 278.430416 
L 336.192981 278.430416 
L 336.192981 270.765624 
L 336.591604 270.765624 
L 336.591604 266.933228 
L 337.576276 266.933228 
L 337.576276 263.100832 
L 338.062382 263.100832 
L 338.062382 259.268436 
L 340.060454 259.268436 
L 340.153896 251.603644 
L 341.628747 251.603644 
L 341.628747 247.771248 
L 342.799913 247.771248 
L 342.799913 243.938851 
L 346.512664 243.938851 
L 346.512664 240.106455 
L 347.753582 240.106455 
L 347.753582 232.441663 
L 350.627226 232.441663 
L 350.627226 228.609267 
L 353.29021 228.609267 
L 353.29021 224.776871 
L 357.449308 224.776871 
L 357.449308 217.112079 
L 357.931583 217.112079 
L 357.931583 213.279683 
L 358.749077 213.279683 
L 358.749077 209.447287 
L 359.354684 209.447287 
L 359.354684 205.614891 
L 360.350116 205.614891 
L 360.350116 201.782495 
L 363.299892 201.782495 
L 363.299892 197.950099 
L 364.230064 197.950099 
L 364.230064 194.117703 
L 365.326831 194.117703 
L 365.326831 190.285307 
L 366.46235 190.285307 
L 366.46235 186.452911 
L 370.130743 186.452911 
L 370.130743 182.620515 
L 370.297107 182.620515 
L 370.352455 174.955723 
L 370.903036 174.955723 
L 370.903036 171.123327 
L 372.149782 171.123327 
L 372.203382 163.458535 
L 374.668019 163.458535 
L 374.668019 159.626139 
L 378.731015 159.626139 
L 378.731015 155.793743 
L 379.349664 155.793743 
L 379.349664 151.961347 
L 381.896025 151.961347 
L 381.896025 148.12895 
L 382.031738 148.12895 
L 382.031738 144.296554 
L 388.641812 144.296554 
L 388.641812 140.464158 
L 389.521531 140.464158 
L 389.521531 136.631762 
L 389.71961 136.631762 
L 389.71961 132.799366 
L 390.699933 132.799366 
L 390.699933 128.96697 
L 391.203194 128.96697 
L 391.203194 125.134574 
L 391.318711 125.134574 
L 391.318711 121.302178 
L 399.982007 121.302178 
L 399.982007 117.469782 
L 407.104576 117.469782 
L 407.104576 113.637386 
L 408.004576 113.637386 
L 408.004576 109.80499 
L 411.143985 109.80499 
L 411.143985 105.972594 
L 416.878557 105.972594 
L 416.878557 102.140198 
L 417.663609 102.140198 
L 417.663609 98.307802 
L 420.631782 98.307802 
L 420.631782 94.475406 
L 426.565131 94.475406 
L 426.565131 90.64301 
L 429.773793 90.64301 
L 429.773793 86.810614 
L 432.888297 86.810614 
L 432.888297 82.978218 
L 433.40997 82.978218 
L 433.40997 79.145822 
L 438.603412 79.145822 
L 438.603412 75.313426 
L 438.857115 75.313426 
L 438.857115 71.48103 
L 440.977841 71.48103 
L 440.977841 67.648634 
L 443.007673 67.648634 
L 443.007673 63.816238 
L 445.226009 63.816238 
L 445.226009 59.983842 
L 447.72515 59.983842 
L 447.72515 56.151446 
L 461.8 56.151446 
L 461.8 56.151446 
" clip-path="url(#pa8e5223a95)" style="fill: none; stroke: #f5deb3; stroke-width: 1.5; stroke-linecap: square"/>
   </g>
   <g id="line2d_21"/>
   <g id="line2d_22">
    <path d="M 319.359793 293.76 
L 319.359793 289.927604 
L 322.232353 289.927604 
L 322.232353 286.095208 
L 328.273475 286.095208 
L 328.273475 282.262812 
L 328.957678 282.262812 
L 328.957678 278.430416 
L 329.857508 278.430416 
L 329.857508 274.59802 
L 330.08029 274.59802 
L 330.08029 270.765624 
L 330.633511 270.765624 
L 330.633511 266.933228 
L 331.290449 266.933228 
L 331.399215 259.268436 
L 332.688663 259.268436 
L 332.688663 255.43604 
L 333.949925 255.43604 
L 333.949925 251.603644 
L 336.192981 251.603644 
L 336.192981 247.771248 
L 337.771211 247.771248 
L 337.771211 243.938851 
L 339.59096 243.938851 
L 339.59096 240.106455 
L 340.433317 240.106455 
L 340.433317 236.274059 
L 340.618849 236.274059 
L 340.618849 232.441663 
L 340.988133 232.441663 
L 340.988133 228.609267 
L 344.122364 228.609267 
L 344.122364 224.776871 
L 345.585391 224.776871 
L 345.585391 220.944475 
L 346.67967 220.944475 
L 346.67967 217.112079 
L 347.998594 217.112079 
L 347.998594 213.279683 
L 357.171902 213.279683 
L 357.171902 209.447287 
L 357.931583 209.447287 
L 357.931583 205.614891 
L 358.681393 205.614891 
L 358.681393 201.782495 
L 361.586834 201.782495 
L 361.586834 197.950099 
L 363.98348 197.950099 
L 363.98348 194.117703 
L 366.992527 194.117703 
L 366.992527 190.285307 
L 368.382966 190.285307 
L 368.382966 186.452911 
L 370.793339 186.452911 
L 370.793339 182.620515 
L 375.736105 182.620515 
L 375.736105 178.788119 
L 377.814733 178.788119 
L 377.814733 174.955723 
L 378.491295 174.955723 
L 378.491295 171.123327 
L 379.585852 171.123327 
L 379.585852 167.290931 
L 379.961751 167.290931 
L 379.961751 163.458535 
L 381.986536 163.458535 
L 381.986536 159.626139 
L 383.238997 159.626139 
L 383.238997 155.793743 
L 387.461304 155.793743 
L 387.461304 151.961347 
L 392.762246 151.961347 
L 392.762246 148.12895 
L 393.729523 148.12895 
L 393.729523 144.296554 
L 394.57188 144.296554 
L 394.57188 140.464158 
L 397.409597 140.464158 
L 397.409597 136.631762 
L 400.246234 136.631762 
L 400.246234 132.799366 
L 403.326032 132.799366 
L 403.326032 128.96697 
L 404.714983 128.96697 
L 404.714983 125.134574 
L 406.220035 125.134574 
L 406.220035 121.302178 
L 407.889233 121.302178 
L 407.889233 117.469782 
L 408.004576 117.469782 
L 408.090933 109.80499 
L 409.39913 109.80499 
L 409.39913 105.972594 
L 410.319679 105.972594 
L 410.319679 102.140198 
L 411.416157 102.140198 
L 411.416157 98.307802 
L 416.282678 98.307802 
L 416.307629 90.64301 
L 419.815967 90.64301 
L 419.815967 86.810614 
L 421.527448 86.810614 
L 421.527448 82.978218 
L 422.184558 82.978218 
L 422.184558 79.145822 
L 425.617648 79.145822 
L 425.617648 75.313426 
L 426.46062 75.313426 
L 426.46062 71.48103 
L 427.084865 71.48103 
L 427.084865 67.648634 
L 427.538389 67.648634 
L 427.538389 63.816238 
L 427.886415 63.816238 
L 427.886415 59.983842 
L 428.455097 59.983842 
L 428.535882 52.31905 
L 432.361863 52.31905 
L 432.361863 48.486653 
L 441.415397 48.486653 
L 441.415397 44.654257 
L 443.007673 44.654257 
L 443.007673 40.821861 
L 449.520419 40.821861 
L 449.520419 36.989465 
L 450.07886 36.989465 
L 450.07886 33.157069 
L 453.9346 33.157069 
L 453.9346 29.324673 
L 454.926683 29.324673 
L 454.926683 25.492277 
L 456.638315 25.492277 
L 456.638315 21.659881 
L 461.8 21.659881 
L 461.8 21.659881 
" clip-path="url(#pa8e5223a95)" style="fill: none; stroke: #f5deb3; stroke-width: 1.5; stroke-linecap: square"/>
   </g>
   <g id="line2d_23">
    <path clip-path="url(#pa8e5223a95)" style="fill: none; stroke: #f5deb3; stroke-width: 1.5; stroke-linecap: square"/>
   </g>
   <g id="line2d_24">
    <path d="M 386.003619 293.76 
L 386.003619 289.927604 
L 388.682092 289.927604 
L 388.682092 286.095208 
L 395.47375 286.095208 
L 395.47375 282.262812 
L 396.291201 282.262812 
L 396.291201 278.430416 
L 396.432192 278.430416 
L 396.432192 274.59802 
L 396.607947 274.59802 
L 396.607947 270.765624 
L 397.305663 270.765624 
L 397.305663 266.933228 
L 397.857825 266.933228 
L 397.857825 263.100832 
L 401.774596 263.100832 
L 401.806678 255.43604 
L 402.285788 255.43604 
L 402.285788 251.603644 
L 402.760952 251.603644 
L 402.760952 247.771248 
L 403.419676 247.771248 
L 403.419676 243.938851 
L 404.439855 243.938851 
L 404.439855 240.106455 
L 405.01915 240.106455 
L 405.01915 236.274059 
L 406.33876 236.274059 
L 406.33876 232.441663 
L 406.870021 232.441663 
L 406.870021 228.609267 
L 408.520786 228.609267 
L 408.520786 224.776871 
L 409.595629 224.776871 
L 409.679639 217.112079 
L 411.443304 217.112079 
L 411.443304 213.279683 
L 413.128303 213.279683 
L 413.128303 209.447287 
L 414.12136 209.447287 
L 414.12136 205.614891 
L 416.082676 205.614891 
L 416.082676 201.782495 
L 416.33257 201.782495 
L 416.33257 197.950099 
L 416.457112 197.950099 
L 416.457112 194.117703 
L 416.829135 194.117703 
L 416.829135 190.285307 
L 417.566059 190.285307 
L 417.566059 186.452911 
L 417.712322 186.452911 
L 417.712322 182.620515 
L 418.100551 182.620515 
L 418.197202 174.955723 
L 418.940806 174.955723 
L 418.940806 171.123327 
L 419.862897 171.123327 
L 419.862897 167.290931 
L 420.190343 167.290931 
L 420.190343 163.458535 
L 421.573007 163.458535 
L 421.573007 159.626139 
L 422.700445 159.626139 
L 422.700445 155.793743 
L 423.123161 155.793743 
L 423.21176 148.12895 
L 424.955767 148.12895 
L 424.955767 144.296554 
L 426.586011 144.296554 
L 426.586011 140.464158 
L 427.312073 140.464158 
L 427.312073 136.631762 
L 428.596396 136.631762 
L 428.596396 132.799366 
L 429.297747 132.799366 
L 429.297747 128.96697 
L 429.476725 128.96697 
L 429.476725 125.134574 
L 432.493923 125.134574 
L 432.493923 121.302178 
L 433.502632 121.302178 
L 433.502632 117.469782 
L 435.878814 117.469782 
L 435.878814 113.637386 
L 436.655461 113.637386 
L 436.655461 109.80499 
L 437.456385 109.80499 
L 437.456385 105.972594 
L 438.382631 105.972594 
L 438.382631 102.140198 
L 438.857115 102.140198 
L 438.857115 98.307802 
L 439.344467 98.307802 
L 439.344467 94.475406 
L 441.415397 94.475406 
L 441.415397 90.64301 
L 443.117504 90.64301 
L 443.164511 82.978218 
L 443.305301 82.978218 
L 443.305301 79.145822 
L 444.065856 79.145822 
L 444.065856 75.313426 
L 444.831734 75.313426 
L 444.831734 71.48103 
L 446.05128 71.48103 
L 446.05128 67.648634 
L 446.437337 67.648634 
L 446.437337 63.816238 
L 447.609257 63.816238 
L 447.609257 59.983842 
L 447.754087 59.983842 
L 447.754087 56.151446 
L 453.647986 56.151446 
L 453.647986 52.31905 
L 455.549241 52.31905 
L 455.549241 48.486653 
L 457.119926 48.486653 
L 457.119926 44.654257 
L 457.695039 44.654257 
L 457.695039 40.821861 
L 461.8 40.821861 
L 461.8 40.821861 
" clip-path="url(#pa8e5223a95)" style="fill: none; stroke: #f5deb3; stroke-width: 1.5; stroke-linecap: square"/>
   </g>
   <g id="line2d_25"/>
   <g id="line2d_26">
    <path d="M 456.675505 293.76 
L 456.675505 289.927604 
L 458.732758 289.927604 
L 458.732758 286.095208 
L 460.010048 286.095208 
L 460.115224 278.430416 
L 460.173572 278.430416 
L 460.173572 274.59802 
L 460.35989 274.59802 
L 460.35989 270.765624 
L 460.522427 270.765624 
L 460.522427 266.933228 
L 461.8 266.933228 
L 461.8 266.933228 
" clip-path="url(#pa8e5223a95)" style="fill: none; stroke: #f5deb3; stroke-width: 1.5; stroke-linecap: square"/>
   </g>
   <g id="line2d_27">
    <path d="M 439.092903 293.76 
L 439.092903 289.927604 
L 440.765976 289.927604 
L 440.765976 286.095208 
L 456.277569 286.095208 
L 456.277569 282.262812 
L 457.242772 282.262812 
L 457.242772 278.430416 
L 457.646316 278.430416 
L 457.646316 274.59802 
L 461.8 274.59802 
" clip-path="url(#pa8e5223a95)" style="fill: none; stroke: #f5deb3; stroke-width: 1.5; stroke-linecap: square"/>
   </g>
   <g id="line2d_28">
    <path d="M 376.784779 293.76 
L 376.784779 289.927604 
L 377.375573 289.927604 
L 377.375573 286.095208 
L 378.87437 286.095208 
L 378.87437 282.262812 
L 381.34996 282.262812 
L 381.34996 278.430416 
L 381.759993 278.430416 
L 381.759993 274.59802 
L 382.347165 274.59802 
L 382.347165 270.765624 
L 384.334747 270.765624 
L 384.334747 266.933228 
L 386.632855 266.933228 
L 386.632855 263.100832 
L 386.841085 263.100832 
L 386.841085 259.268436 
L 388.641812 259.268436 
L 388.641812 255.43604 
L 389.362576 255.43604 
L 389.362576 251.603644 
L 389.680049 251.603644 
L 389.680049 247.771248 
L 391.126055 247.771248 
L 391.126055 243.938851 
L 392.423606 243.938851 
L 392.423606 240.106455 
L 392.649587 240.106455 
L 392.649587 236.274059 
L 393.098911 236.274059 
L 393.098911 232.441663 
L 393.322268 232.441663 
L 393.322268 228.609267 
L 393.876906 228.609267 
L 393.876906 224.776871 
L 394.31681 224.776871 
L 394.31681 220.944475 
L 394.71713 220.944475 
L 394.71713 217.112079 
L 394.97044 217.112079 
L 394.97044 213.279683 
L 395.901691 213.279683 
L 395.901691 209.447287 
L 396.185231 209.447287 
L 396.185231 205.614891 
L 396.396976 205.614891 
L 396.396976 201.782495 
L 397.823469 201.782495 
L 397.823469 197.950099 
L 398.608521 197.950099 
L 398.608521 194.117703 
L 398.879098 194.117703 
L 398.879098 190.285307 
L 400.312102 190.285307 
L 400.312102 186.452911 
L 401.323557 186.452911 
L 401.323557 182.620515 
L 402.571356 182.620515 
L 402.571356 178.788119 
L 403.169619 178.788119 
L 403.169619 174.955723 
L 404.409204 174.955723 
L 404.409204 171.123327 
L 406.071284 171.123327 
L 406.071284 167.290931 
L 406.811233 167.290931 
L 406.811233 163.458535 
L 407.163066 163.458535 
L 407.163066 159.626139 
L 407.42554 159.626139 
L 407.42554 155.793743 
L 409.20196 155.793743 
L 409.20196 151.961347 
L 409.427243 151.961347 
L 409.427243 148.12895 
L 410.097861 148.12895 
L 410.097861 144.296554 
L 410.319679 144.296554 
L 410.319679 140.464158 
L 410.870523 140.464158 
L 410.870523 136.631762 
L 411.143985 136.631762 
L 411.143985 132.799366 
L 411.361825 132.799366 
L 411.361825 128.96697 
L 412.037324 128.96697 
L 412.037324 125.134574 
L 413.049171 125.134574 
L 413.049171 121.302178 
L 413.679209 121.302178 
L 413.679209 117.469782 
L 414.199037 117.469782 
L 414.199037 113.637386 
L 414.354076 113.637386 
L 414.457204 102.140198 
L 415.478478 102.140198 
L 415.478478 98.307802 
L 416.878557 98.307802 
L 416.878557 94.475406 
L 418.341875 94.475406 
L 418.341875 90.64301 
L 418.773731 90.64301 
L 418.773731 86.810614 
L 419.792488 86.810614 
L 419.792488 82.978218 
L 420.120332 82.978218 
L 420.120332 79.145822 
L 421.913558 79.145822 
L 421.913558 75.313426 
L 422.856543 75.313426 
L 422.856543 71.48103 
L 423.410613 71.48103 
L 423.410613 67.648634 
L 423.85007 67.648634 
L 423.85007 63.816238 
L 425.490133 63.816238 
L 425.490133 59.983842 
L 425.977417 59.983842 
L 425.977417 56.151446 
L 426.523349 56.151446 
L 426.523349 52.31905 
L 427.208907 52.31905 
L 427.208907 48.486653 
L 427.661462 48.486653 
L 427.661462 44.654257 
L 428.938117 44.654257 
L 428.938117 40.821861 
L 431.409689 40.821861 
L 431.409689 36.989465 
L 431.88774 36.989465 
L 431.88774 33.157069 
L 432.512764 33.157069 
L 432.512764 29.324673 
L 452.686619 29.324673 
L 452.686619 25.492277 
L 453.700204 25.492277 
L 453.700204 21.659881 
L 457.560951 21.659881 
L 457.560951 17.827485 
L 460.972808 17.827485 
L 460.972808 13.995089 
L 461.8 13.995089 
L 461.8 13.995089 
" clip-path="url(#pa8e5223a95)" style="fill: none; stroke: #f5deb3; stroke-width: 1.5; stroke-linecap: square"/>
   </g>
   <g id="line2d_29">
    <path clip-path="url(#pa8e5223a95)" style="fill: none; stroke: #f5deb3; stroke-width: 1.5; stroke-linecap: square"/>
   </g>
   <g id="line2d_30"/>
   <g id="matplotlib.axis_1">
    <g id="xtick_1">
     <g id="line2d_31">
      <path d="M 62.208 293.76 
L 62.208 3.456 
" clip-path="url(#pa8e5223a95)" style="fill: none; stroke: #b0b0b0; stroke-width: 0.8; stroke-linecap: square"/>
     </g>
     <g id="line2d_32">
      <defs>
       <path id="m14cf41daeb" d="M 0 0 
L 0 3.5 
" style="stroke: #000000; stroke-width: 0.8"/>
      </defs>
      <g>
       <use xlink:href="#m14cf41daeb" x="62.208" y="293.76" style="stroke: #000000; stroke-width: 0.8"/>
      </g>
     </g>
     <g id="text_1">
      <!-- 0 -->
      <g transform="translate(55.8455 315.956875)scale(0.2 -0.2)">
       <defs>
        <path id="DejaVuSans-30" d="M 2034 4250 
Q 1547 4250 1301 3770 
Q 1056 3291 1056 2328 
Q 1056 1369 1301 889 
Q 1547 409 2034 409 
Q 2525 409 2770 889 
Q 3016 1369 3016 2328 
Q 3016 3291 2770 3770 
Q 2525 4250 2034 4250 
z
M 2034 4750 
Q 2819 4750 3233 4129 
Q 3647 3509 3647 2328 
Q 3647 1150 3233 529 
Q 2819 -91 2034 -91 
Q 1250 -91 836 529 
Q 422 1150 422 2328 
Q 422 3509 836 4129 
Q 1250 4750 2034 4750 
z
" transform="scale(0.015625)"/>
       </defs>
       <use xlink:href="#DejaVuSans-30"/>
      </g>
     </g>
    </g>
    <g id="xtick_2">
     <g id="line2d_33">
      <path d="M 327.928307 293.76 
L 327.928307 3.456 
" clip-path="url(#pa8e5223a95)" style="fill: none; stroke: #b0b0b0; stroke-width: 0.8; stroke-linecap: square"/>
     </g>
     <g id="line2d_34">
      <g>
       <use xlink:href="#m14cf41daeb" x="327.928307" y="293.76" style="stroke: #000000; stroke-width: 0.8"/>
      </g>
     </g>
     <g id="text_2">
      <!-- 2 -->
      <g transform="translate(321.565807 315.956875)scale(0.2 -0.2)">
       <defs>
        <path id="DejaVuSans-32" d="M 1228 531 
L 3431 531 
L 3431 0 
L 469 0 
L 469 531 
Q 828 903 1448 1529 
Q 2069 2156 2228 2338 
Q 2531 2678 2651 2914 
Q 2772 3150 2772 3378 
Q 2772 3750 2511 3984 
Q 2250 4219 1831 4219 
Q 1534 4219 1204 4116 
Q 875 4013 500 3803 
L 500 4441 
Q 881 4594 1212 4672 
Q 1544 4750 1819 4750 
Q 2544 4750 2975 4387 
Q 3406 4025 3406 3419 
Q 3406 3131 3298 2873 
Q 3191 2616 2906 2266 
Q 2828 2175 2409 1742 
Q 1991 1309 1228 531 
z
" transform="scale(0.015625)"/>
       </defs>
       <use xlink:href="#DejaVuSans-32"/>
      </g>
     </g>
    </g>
    <g id="xtick_3">
     <g id="line2d_35">
      <path d="M 102.202891 293.76 
L 102.202891 3.456 
" clip-path="url(#pa8e5223a95)" style="fill: none; stroke: #b0b0b0; stroke-width: 0.8; stroke-linecap: square"/>
     </g>
     <g id="line2d_36">
      <defs>
       <path id="m686c67e4ba" d="M 0 0 
L 0 2 
" style="stroke: #000000; stroke-width: 0.6"/>
      </defs>
      <g>
       <use xlink:href="#m686c67e4ba" x="102.202891" y="293.76" style="stroke: #000000; stroke-width: 0.6"/>
      </g>
     </g>
    </g>
    <g id="xtick_4">
     <g id="line2d_37">
      <path d="M 125.598403 293.76 
L 125.598403 3.456 
" clip-path="url(#pa8e5223a95)" style="fill: none; stroke: #b0b0b0; stroke-width: 0.8; stroke-linecap: square"/>
     </g>
     <g id="line2d_38">
      <g>
       <use xlink:href="#m686c67e4ba" x="125.598403" y="293.76" style="stroke: #000000; stroke-width: 0.6"/>
      </g>
     </g>
    </g>
    <g id="xtick_5">
     <g id="line2d_39">
      <path d="M 142.197783 293.76 
L 142.197783 3.456 
" clip-path="url(#pa8e5223a95)" style="fill: none; stroke: #b0b0b0; stroke-width: 0.8; stroke-linecap: square"/>
     </g>
     <g id="line2d_40">
      <g>
       <use xlink:href="#m686c67e4ba" x="142.197783" y="293.76" style="stroke: #000000; stroke-width: 0.6"/>
      </g>
     </g>
    </g>
    <g id="xtick_6">
     <g id="line2d_41">
      <path d="M 155.073262 293.76 
L 155.073262 3.456 
" clip-path="url(#pa8e5223a95)" style="fill: none; stroke: #b0b0b0; stroke-width: 0.8; stroke-linecap: square"/>
     </g>
     <g id="line2d_42">
      <g>
       <use xlink:href="#m686c67e4ba" x="155.073262" y="293.76" style="stroke: #000000; stroke-width: 0.6"/>
      </g>
     </g>
    </g>
    <g id="xtick_7">
     <g id="line2d_43">
      <path d="M 165.593295 293.76 
L 165.593295 3.456 
" clip-path="url(#pa8e5223a95)" style="fill: none; stroke: #b0b0b0; stroke-width: 0.8; stroke-linecap: square"/>
     </g>
     <g id="line2d_44">
      <g>
       <use xlink:href="#m686c67e4ba" x="165.593295" y="293.76" style="stroke: #000000; stroke-width: 0.6"/>
      </g>
     </g>
    </g>
    <g id="xtick_8">
     <g id="line2d_45">
      <path d="M 174.487855 293.76 
L 174.487855 3.456 
" clip-path="url(#pa8e5223a95)" style="fill: none; stroke: #b0b0b0; stroke-width: 0.8; stroke-linecap: square"/>
     </g>
     <g id="line2d_46">
      <g>
       <use xlink:href="#m686c67e4ba" x="174.487855" y="293.76" style="stroke: #000000; stroke-width: 0.6"/>
      </g>
     </g>
    </g>
    <g id="xtick_9">
     <g id="line2d_47">
      <path d="M 182.192674 293.76 
L 182.192674 3.456 
" clip-path="url(#pa8e5223a95)" style="fill: none; stroke: #b0b0b0; stroke-width: 0.8; stroke-linecap: square"/>
     </g>
     <g id="line2d_48">
      <g>
       <use xlink:href="#m686c67e4ba" x="182.192674" y="293.76" style="stroke: #000000; stroke-width: 0.6"/>
      </g>
     </g>
    </g>
    <g id="xtick_10">
     <g id="line2d_49">
      <path d="M 188.988806 293.76 
L 188.988806 3.456 
" clip-path="url(#pa8e5223a95)" style="fill: none; stroke: #b0b0b0; stroke-width: 0.8; stroke-linecap: square"/>
     </g>
     <g id="line2d_50">
      <g>
       <use xlink:href="#m686c67e4ba" x="188.988806" y="293.76" style="stroke: #000000; stroke-width: 0.6"/>
      </g>
     </g>
    </g>
    <g id="xtick_11">
     <g id="line2d_51">
      <path d="M 235.063045 293.76 
L 235.063045 3.456 
" clip-path="url(#pa8e5223a95)" style="fill: none; stroke: #b0b0b0; stroke-width: 0.8; stroke-linecap: square"/>
     </g>
     <g id="line2d_52">
      <g>
       <use xlink:href="#m686c67e4ba" x="235.063045" y="293.76" style="stroke: #000000; stroke-width: 0.6"/>
      </g>
     </g>
    </g>
    <g id="xtick_12">
     <g id="line2d_53">
      <path d="M 258.458557 293.76 
L 258.458557 3.456 
" clip-path="url(#pa8e5223a95)" style="fill: none; stroke: #b0b0b0; stroke-width: 0.8; stroke-linecap: square"/>
     </g>
     <g id="line2d_54">
      <g>
       <use xlink:href="#m686c67e4ba" x="258.458557" y="293.76" style="stroke: #000000; stroke-width: 0.6"/>
      </g>
     </g>
    </g>
    <g id="xtick_13">
     <g id="line2d_55">
      <path d="M 275.057937 293.76 
L 275.057937 3.456 
" clip-path="url(#pa8e5223a95)" style="fill: none; stroke: #b0b0b0; stroke-width: 0.8; stroke-linecap: square"/>
     </g>
     <g id="line2d_56">
      <g>
       <use xlink:href="#m686c67e4ba" x="275.057937" y="293.76" style="stroke: #000000; stroke-width: 0.6"/>
      </g>
     </g>
    </g>
    <g id="xtick_14">
     <g id="line2d_57">
      <path d="M 287.933416 293.76 
L 287.933416 3.456 
" clip-path="url(#pa8e5223a95)" style="fill: none; stroke: #b0b0b0; stroke-width: 0.8; stroke-linecap: square"/>
     </g>
     <g id="line2d_58">
      <g>
       <use xlink:href="#m686c67e4ba" x="287.933416" y="293.76" style="stroke: #000000; stroke-width: 0.6"/>
      </g>
     </g>
    </g>
    <g id="xtick_15">
     <g id="line2d_59">
      <path d="M 298.453448 293.76 
L 298.453448 3.456 
" clip-path="url(#pa8e5223a95)" style="fill: none; stroke: #b0b0b0; stroke-width: 0.8; stroke-linecap: square"/>
     </g>
     <g id="line2d_60">
      <g>
       <use xlink:href="#m686c67e4ba" x="298.453448" y="293.76" style="stroke: #000000; stroke-width: 0.6"/>
      </g>
     </g>
    </g>
    <g id="xtick_16">
     <g id="line2d_61">
      <path d="M 307.348009 293.76 
L 307.348009 3.456 
" clip-path="url(#pa8e5223a95)" style="fill: none; stroke: #b0b0b0; stroke-width: 0.8; stroke-linecap: square"/>
     </g>
     <g id="line2d_62">
      <g>
       <use xlink:href="#m686c67e4ba" x="307.348009" y="293.76" style="stroke: #000000; stroke-width: 0.6"/>
      </g>
     </g>
    </g>
    <g id="xtick_17">
     <g id="line2d_63">
      <path d="M 315.052828 293.76 
L 315.052828 3.456 
" clip-path="url(#pa8e5223a95)" style="fill: none; stroke: #b0b0b0; stroke-width: 0.8; stroke-linecap: square"/>
     </g>
     <g id="line2d_64">
      <g>
       <use xlink:href="#m686c67e4ba" x="315.052828" y="293.76" style="stroke: #000000; stroke-width: 0.6"/>
      </g>
     </g>
    </g>
    <g id="xtick_18">
     <g id="line2d_65">
      <path d="M 321.84896 293.76 
L 321.84896 3.456 
" clip-path="url(#pa8e5223a95)" style="fill: none; stroke: #b0b0b0; stroke-width: 0.8; stroke-linecap: square"/>
     </g>
     <g id="line2d_66">
      <g>
       <use xlink:href="#m686c67e4ba" x="321.84896" y="293.76" style="stroke: #000000; stroke-width: 0.6"/>
      </g>
     </g>
    </g>
    <g id="xtick_19">
     <g id="line2d_67">
      <path d="M 367.923199 293.76 
L 367.923199 3.456 
" clip-path="url(#pa8e5223a95)" style="fill: none; stroke: #b0b0b0; stroke-width: 0.8; stroke-linecap: square"/>
     </g>
     <g id="line2d_68">
      <g>
       <use xlink:href="#m686c67e4ba" x="367.923199" y="293.76" style="stroke: #000000; stroke-width: 0.6"/>
      </g>
     </g>
    </g>
    <g id="xtick_20">
     <g id="line2d_69">
      <path d="M 391.318711 293.76 
L 391.318711 3.456 
" clip-path="url(#pa8e5223a95)" style="fill: none; stroke: #b0b0b0; stroke-width: 0.8; stroke-linecap: square"/>
     </g>
     <g id="line2d_70">
      <g>
       <use xlink:href="#m686c67e4ba" x="391.318711" y="293.76" style="stroke: #000000; stroke-width: 0.6"/>
      </g>
     </g>
    </g>
    <g id="xtick_21">
     <g id="line2d_71">
      <path d="M 407.91809 293.76 
L 407.91809 3.456 
" clip-path="url(#pa8e5223a95)" style="fill: none; stroke: #b0b0b0; stroke-width: 0.8; stroke-linecap: square"/>
     </g>
     <g id="line2d_72">
      <g>
       <use xlink:href="#m686c67e4ba" x="407.91809" y="293.76" style="stroke: #000000; stroke-width: 0.6"/>
      </g>
     </g>
    </g>
    <g id="xtick_22">
     <g id="line2d_73">
      <path d="M 420.79357 293.76 
L 420.79357 3.456 
" clip-path="url(#pa8e5223a95)" style="fill: none; stroke: #b0b0b0; stroke-width: 0.8; stroke-linecap: square"/>
     </g>
     <g id="line2d_74">
      <g>
       <use xlink:href="#m686c67e4ba" x="420.79357" y="293.76" style="stroke: #000000; stroke-width: 0.6"/>
      </g>
     </g>
    </g>
    <g id="xtick_23">
     <g id="line2d_75">
      <path d="M 431.313602 293.76 
L 431.313602 3.456 
" clip-path="url(#pa8e5223a95)" style="fill: none; stroke: #b0b0b0; stroke-width: 0.8; stroke-linecap: square"/>
     </g>
     <g id="line2d_76">
      <g>
       <use xlink:href="#m686c67e4ba" x="431.313602" y="293.76" style="stroke: #000000; stroke-width: 0.6"/>
      </g>
     </g>
    </g>
    <g id="xtick_24">
     <g id="line2d_77">
      <path d="M 440.208163 293.76 
L 440.208163 3.456 
" clip-path="url(#pa8e5223a95)" style="fill: none; stroke: #b0b0b0; stroke-width: 0.8; stroke-linecap: square"/>
     </g>
     <g id="line2d_78">
      <g>
       <use xlink:href="#m686c67e4ba" x="440.208163" y="293.76" style="stroke: #000000; stroke-width: 0.6"/>
      </g>
     </g>
    </g>
    <g id="xtick_25">
     <g id="line2d_79">
      <path d="M 447.912982 293.76 
L 447.912982 3.456 
" clip-path="url(#pa8e5223a95)" style="fill: none; stroke: #b0b0b0; stroke-width: 0.8; stroke-linecap: square"/>
     </g>
     <g id="line2d_80">
      <g>
       <use xlink:href="#m686c67e4ba" x="447.912982" y="293.76" style="stroke: #000000; stroke-width: 0.6"/>
      </g>
     </g>
    </g>
    <g id="xtick_26">
     <g id="line2d_81">
      <path d="M 454.709114 293.76 
L 454.709114 3.456 
" clip-path="url(#pa8e5223a95)" style="fill: none; stroke: #b0b0b0; stroke-width: 0.8; stroke-linecap: square"/>
     </g>
     <g id="line2d_82">
      <g>
       <use xlink:href="#m686c67e4ba" x="454.709114" y="293.76" style="stroke: #000000; stroke-width: 0.6"/>
      </g>
     </g>
    </g>
    <g id="text_3">
     <!-- log10 of FEvals / DIM -->
     <g transform="translate(156.430563 339.313125)scale(0.2 -0.2)">
      <defs>
       <path id="DejaVuSans-6c" d="M 603 4863 
L 1178 4863 
L 1178 0 
L 603 0 
L 603 4863 
z
" transform="scale(0.015625)"/>
       <path id="DejaVuSans-6f" d="M 1959 3097 
Q 1497 3097 1228 2736 
Q 959 2375 959 1747 
Q 959 1119 1226 758 
Q 1494 397 1959 397 
Q 2419 397 2687 759 
Q 2956 1122 2956 1747 
Q 2956 2369 2687 2733 
Q 2419 3097 1959 3097 
z
M 1959 3584 
Q 2709 3584 3137 3096 
Q 3566 2609 3566 1747 
Q 3566 888 3137 398 
Q 2709 -91 1959 -91 
Q 1206 -91 779 398 
Q 353 888 353 1747 
Q 353 2609 779 3096 
Q 1206 3584 1959 3584 
z
" transform="scale(0.015625)"/>
       <path id="DejaVuSans-67" d="M 2906 1791 
Q 2906 2416 2648 2759 
Q 2391 3103 1925 3103 
Q 1463 3103 1205 2759 
Q 947 2416 947 1791 
Q 947 1169 1205 825 
Q 1463 481 1925 481 
Q 2391 481 2648 825 
Q 2906 1169 2906 1791 
z
M 3481 434 
Q 3481 -459 3084 -895 
Q 2688 -1331 1869 -1331 
Q 1566 -1331 1297 -1286 
Q 1028 -1241 775 -1147 
L 775 -588 
Q 1028 -725 1275 -790 
Q 1522 -856 1778 -856 
Q 2344 -856 2625 -561 
Q 2906 -266 2906 331 
L 2906 616 
Q 2728 306 2450 153 
Q 2172 0 1784 0 
Q 1141 0 747 490 
Q 353 981 353 1791 
Q 353 2603 747 3093 
Q 1141 3584 1784 3584 
Q 2172 3584 2450 3431 
Q 2728 3278 2906 2969 
L 2906 3500 
L 3481 3500 
L 3481 434 
z
" transform="scale(0.015625)"/>
       <path id="DejaVuSans-31" d="M 794 531 
L 1825 531 
L 1825 4091 
L 703 3866 
L 703 4441 
L 1819 4666 
L 2450 4666 
L 2450 531 
L 3481 531 
L 3481 0 
L 794 0 
L 794 531 
z
" transform="scale(0.015625)"/>
       <path id="DejaVuSans-20" transform="scale(0.015625)"/>
       <path id="DejaVuSans-66" d="M 2375 4863 
L 2375 4384 
L 1825 4384 
Q 1516 4384 1395 4259 
Q 1275 4134 1275 3809 
L 1275 3500 
L 2222 3500 
L 2222 3053 
L 1275 3053 
L 1275 0 
L 697 0 
L 697 3053 
L 147 3053 
L 147 3500 
L 697 3500 
L 697 3744 
Q 697 4328 969 4595 
Q 1241 4863 1831 4863 
L 2375 4863 
z
" transform="scale(0.015625)"/>
       <path id="DejaVuSans-46" d="M 628 4666 
L 3309 4666 
L 3309 4134 
L 1259 4134 
L 1259 2759 
L 3109 2759 
L 3109 2228 
L 1259 2228 
L 1259 0 
L 628 0 
L 628 4666 
z
" transform="scale(0.015625)"/>
       <path id="DejaVuSans-45" d="M 628 4666 
L 3578 4666 
L 3578 4134 
L 1259 4134 
L 1259 2753 
L 3481 2753 
L 3481 2222 
L 1259 2222 
L 1259 531 
L 3634 531 
L 3634 0 
L 628 0 
L 628 4666 
z
" transform="scale(0.015625)"/>
       <path id="DejaVuSans-76" d="M 191 3500 
L 800 3500 
L 1894 563 
L 2988 3500 
L 3597 3500 
L 2284 0 
L 1503 0 
L 191 3500 
z
" transform="scale(0.015625)"/>
       <path id="DejaVuSans-61" d="M 2194 1759 
Q 1497 1759 1228 1600 
Q 959 1441 959 1056 
Q 959 750 1161 570 
Q 1363 391 1709 391 
Q 2188 391 2477 730 
Q 2766 1069 2766 1631 
L 2766 1759 
L 2194 1759 
z
M 3341 1997 
L 3341 0 
L 2766 0 
L 2766 531 
Q 2569 213 2275 61 
Q 1981 -91 1556 -91 
Q 1019 -91 701 211 
Q 384 513 384 1019 
Q 384 1609 779 1909 
Q 1175 2209 1959 2209 
L 2766 2209 
L 2766 2266 
Q 2766 2663 2505 2880 
Q 2244 3097 1772 3097 
Q 1472 3097 1187 3025 
Q 903 2953 641 2809 
L 641 3341 
Q 956 3463 1253 3523 
Q 1550 3584 1831 3584 
Q 2591 3584 2966 3190 
Q 3341 2797 3341 1997 
z
" transform="scale(0.015625)"/>
       <path id="DejaVuSans-73" d="M 2834 3397 
L 2834 2853 
Q 2591 2978 2328 3040 
Q 2066 3103 1784 3103 
Q 1356 3103 1142 2972 
Q 928 2841 928 2578 
Q 928 2378 1081 2264 
Q 1234 2150 1697 2047 
L 1894 2003 
Q 2506 1872 2764 1633 
Q 3022 1394 3022 966 
Q 3022 478 2636 193 
Q 2250 -91 1575 -91 
Q 1294 -91 989 -36 
Q 684 19 347 128 
L 347 722 
Q 666 556 975 473 
Q 1284 391 1588 391 
Q 1994 391 2212 530 
Q 2431 669 2431 922 
Q 2431 1156 2273 1281 
Q 2116 1406 1581 1522 
L 1381 1569 
Q 847 1681 609 1914 
Q 372 2147 372 2553 
Q 372 3047 722 3315 
Q 1072 3584 1716 3584 
Q 2034 3584 2315 3537 
Q 2597 3491 2834 3397 
z
" transform="scale(0.015625)"/>
       <path id="DejaVuSans-2f" d="M 1625 4666 
L 2156 4666 
L 531 -594 
L 0 -594 
L 1625 4666 
z
" transform="scale(0.015625)"/>
       <path id="DejaVuSans-44" d="M 1259 4147 
L 1259 519 
L 2022 519 
Q 2988 519 3436 956 
Q 3884 1394 3884 2338 
Q 3884 3275 3436 3711 
Q 2988 4147 2022 4147 
L 1259 4147 
z
M 628 4666 
L 1925 4666 
Q 3281 4666 3915 4102 
Q 4550 3538 4550 2338 
Q 4550 1131 3912 565 
Q 3275 0 1925 0 
L 628 0 
L 628 4666 
z
" transform="scale(0.015625)"/>
       <path id="DejaVuSans-49" d="M 628 4666 
L 1259 4666 
L 1259 0 
L 628 0 
L 628 4666 
z
" transform="scale(0.015625)"/>
       <path id="DejaVuSans-4d" d="M 628 4666 
L 1569 4666 
L 2759 1491 
L 3956 4666 
L 4897 4666 
L 4897 0 
L 4281 0 
L 4281 4097 
L 3078 897 
L 2444 897 
L 1241 4097 
L 1241 0 
L 628 0 
L 628 4666 
z
" transform="scale(0.015625)"/>
      </defs>
      <use xlink:href="#DejaVuSans-6c"/>
      <use xlink:href="#DejaVuSans-6f" x="27.783203"/>
      <use xlink:href="#DejaVuSans-67" x="88.964844"/>
      <use xlink:href="#DejaVuSans-31" x="152.441406"/>
      <use xlink:href="#DejaVuSans-30" x="216.064453"/>
      <use xlink:href="#DejaVuSans-20" x="279.6875"/>
      <use xlink:href="#DejaVuSans-6f" x="311.474609"/>
      <use xlink:href="#DejaVuSans-66" x="372.65625"/>
      <use xlink:href="#DejaVuSans-20" x="407.861328"/>
      <use xlink:href="#DejaVuSans-46" x="439.648438"/>
      <use xlink:href="#DejaVuSans-45" x="497.167969"/>
      <use xlink:href="#DejaVuSans-76" x="560.351562"/>
      <use xlink:href="#DejaVuSans-61" x="619.53125"/>
      <use xlink:href="#DejaVuSans-6c" x="680.810547"/>
      <use xlink:href="#DejaVuSans-73" x="708.59375"/>
      <use xlink:href="#DejaVuSans-20" x="760.693359"/>
      <use xlink:href="#DejaVuSans-2f" x="792.480469"/>
      <use xlink:href="#DejaVuSans-20" x="826.171875"/>
      <use xlink:href="#DejaVuSans-44" x="857.958984"/>
      <use xlink:href="#DejaVuSans-49" x="934.960938"/>
      <use xlink:href="#DejaVuSans-4d" x="964.453125"/>
     </g>
    </g>
   </g>
   <g id="matplotlib.axis_2">
    <g id="ytick_1">
     <g id="line2d_83">
      <path d="M 62.208 293.76 
L 460.8 293.76 
" clip-path="url(#pa8e5223a95)" style="fill: none; stroke: #b0b0b0; stroke-width: 0.8; stroke-linecap: square"/>
     </g>
     <g id="line2d_84">
      <defs>
       <path id="m6979d529f0" d="M 0 0 
L -3.5 0 
" style="stroke: #000000; stroke-width: 0.8"/>
      </defs>
      <g>
       <use xlink:href="#m6979d529f0" x="62.208" y="293.76" style="stroke: #000000; stroke-width: 0.8"/>
      </g>
     </g>
     <g id="text_4">
      <!-- 0.0 -->
      <g transform="translate(29.763 299.83875)scale(0.16 -0.16)">
       <defs>
        <path id="DejaVuSans-2e" d="M 684 794 
L 1344 794 
L 1344 0 
L 684 0 
L 684 794 
z
" transform="scale(0.015625)"/>
       </defs>
       <use xlink:href="#DejaVuSans-30"/>
       <use xlink:href="#DejaVuSans-2e" x="63.623047"/>
       <use xlink:href="#DejaVuSans-30" x="95.410156"/>
      </g>
     </g>
    </g>
    <g id="ytick_2">
     <g id="line2d_85">
      <path d="M 62.208 236.274059 
L 460.8 236.274059 
" clip-path="url(#pa8e5223a95)" style="fill: none; stroke: #b0b0b0; stroke-width: 0.8; stroke-linecap: square"/>
     </g>
     <g id="line2d_86">
      <g>
       <use xlink:href="#m6979d529f0" x="62.208" y="236.274059" style="stroke: #000000; stroke-width: 0.8"/>
      </g>
     </g>
     <g id="text_5">
      <!-- 0.2 -->
      <g transform="translate(29.763 242.352809)scale(0.16 -0.16)">
       <use xlink:href="#DejaVuSans-30"/>
       <use xlink:href="#DejaVuSans-2e" x="63.623047"/>
       <use xlink:href="#DejaVuSans-32" x="95.410156"/>
      </g>
     </g>
    </g>
    <g id="ytick_3">
     <g id="line2d_87">
      <path d="M 62.208 178.788119 
L 460.8 178.788119 
" clip-path="url(#pa8e5223a95)" style="fill: none; stroke: #b0b0b0; stroke-width: 0.8; stroke-linecap: square"/>
     </g>
     <g id="line2d_88">
      <g>
       <use xlink:href="#m6979d529f0" x="62.208" y="178.788119" style="stroke: #000000; stroke-width: 0.8"/>
      </g>
     </g>
     <g id="text_6">
      <!-- 0.4 -->
      <g transform="translate(29.763 184.866869)scale(0.16 -0.16)">
       <defs>
        <path id="DejaVuSans-34" d="M 2419 4116 
L 825 1625 
L 2419 1625 
L 2419 4116 
z
M 2253 4666 
L 3047 4666 
L 3047 1625 
L 3713 1625 
L 3713 1100 
L 3047 1100 
L 3047 0 
L 2419 0 
L 2419 1100 
L 313 1100 
L 313 1709 
L 2253 4666 
z
" transform="scale(0.015625)"/>
       </defs>
       <use xlink:href="#DejaVuSans-30"/>
       <use xlink:href="#DejaVuSans-2e" x="63.623047"/>
       <use xlink:href="#DejaVuSans-34" x="95.410156"/>
      </g>
     </g>
    </g>
    <g id="ytick_4">
     <g id="line2d_89">
      <path d="M 62.208 121.302178 
L 460.8 121.302178 
" clip-path="url(#pa8e5223a95)" style="fill: none; stroke: #b0b0b0; stroke-width: 0.8; stroke-linecap: square"/>
     </g>
     <g id="line2d_90">
      <g>
       <use xlink:href="#m6979d529f0" x="62.208" y="121.302178" style="stroke: #000000; stroke-width: 0.8"/>
      </g>
     </g>
     <g id="text_7">
      <!-- 0.6 -->
      <g transform="translate(29.763 127.380928)scale(0.16 -0.16)">
       <defs>
        <path id="DejaVuSans-36" d="M 2113 2584 
Q 1688 2584 1439 2293 
Q 1191 2003 1191 1497 
Q 1191 994 1439 701 
Q 1688 409 2113 409 
Q 2538 409 2786 701 
Q 3034 994 3034 1497 
Q 3034 2003 2786 2293 
Q 2538 2584 2113 2584 
z
M 3366 4563 
L 3366 3988 
Q 3128 4100 2886 4159 
Q 2644 4219 2406 4219 
Q 1781 4219 1451 3797 
Q 1122 3375 1075 2522 
Q 1259 2794 1537 2939 
Q 1816 3084 2150 3084 
Q 2853 3084 3261 2657 
Q 3669 2231 3669 1497 
Q 3669 778 3244 343 
Q 2819 -91 2113 -91 
Q 1303 -91 875 529 
Q 447 1150 447 2328 
Q 447 3434 972 4092 
Q 1497 4750 2381 4750 
Q 2619 4750 2861 4703 
Q 3103 4656 3366 4563 
z
" transform="scale(0.015625)"/>
       </defs>
       <use xlink:href="#DejaVuSans-30"/>
       <use xlink:href="#DejaVuSans-2e" x="63.623047"/>
       <use xlink:href="#DejaVuSans-36" x="95.410156"/>
      </g>
     </g>
    </g>
    <g id="ytick_5">
     <g id="line2d_91">
      <path d="M 62.208 63.816238 
L 460.8 63.816238 
" clip-path="url(#pa8e5223a95)" style="fill: none; stroke: #b0b0b0; stroke-width: 0.8; stroke-linecap: square"/>
     </g>
     <g id="line2d_92">
      <g>
       <use xlink:href="#m6979d529f0" x="62.208" y="63.816238" style="stroke: #000000; stroke-width: 0.8"/>
      </g>
     </g>
     <g id="text_8">
      <!-- 0.8 -->
      <g transform="translate(29.763 69.894988)scale(0.16 -0.16)">
       <defs>
        <path id="DejaVuSans-38" d="M 2034 2216 
Q 1584 2216 1326 1975 
Q 1069 1734 1069 1313 
Q 1069 891 1326 650 
Q 1584 409 2034 409 
Q 2484 409 2743 651 
Q 3003 894 3003 1313 
Q 3003 1734 2745 1975 
Q 2488 2216 2034 2216 
z
M 1403 2484 
Q 997 2584 770 2862 
Q 544 3141 544 3541 
Q 544 4100 942 4425 
Q 1341 4750 2034 4750 
Q 2731 4750 3128 4425 
Q 3525 4100 3525 3541 
Q 3525 3141 3298 2862 
Q 3072 2584 2669 2484 
Q 3125 2378 3379 2068 
Q 3634 1759 3634 1313 
Q 3634 634 3220 271 
Q 2806 -91 2034 -91 
Q 1263 -91 848 271 
Q 434 634 434 1313 
Q 434 1759 690 2068 
Q 947 2378 1403 2484 
z
M 1172 3481 
Q 1172 3119 1398 2916 
Q 1625 2713 2034 2713 
Q 2441 2713 2670 2916 
Q 2900 3119 2900 3481 
Q 2900 3844 2670 4047 
Q 2441 4250 2034 4250 
Q 1625 4250 1398 4047 
Q 1172 3844 1172 3481 
z
" transform="scale(0.015625)"/>
       </defs>
       <use xlink:href="#DejaVuSans-30"/>
       <use xlink:href="#DejaVuSans-2e" x="63.623047"/>
       <use xlink:href="#DejaVuSans-38" x="95.410156"/>
      </g>
     </g>
    </g>
    <g id="ytick_6">
     <g id="line2d_93">
      <path d="M 62.208 6.330297 
L 460.8 6.330297 
" clip-path="url(#pa8e5223a95)" style="fill: none; stroke: #b0b0b0; stroke-width: 0.8; stroke-linecap: square"/>
     </g>
     <g id="line2d_94">
      <g>
       <use xlink:href="#m6979d529f0" x="62.208" y="6.330297" style="stroke: #000000; stroke-width: 0.8"/>
      </g>
     </g>
     <g id="text_9">
      <!-- 1.0 -->
      <g transform="translate(29.763 12.409047)scale(0.16 -0.16)">
       <use xlink:href="#DejaVuSans-31"/>
       <use xlink:href="#DejaVuSans-2e" x="63.623047"/>
       <use xlink:href="#DejaVuSans-30" x="95.410156"/>
      </g>
     </g>
    </g>
    <g id="text_10">
     <!-- proportion of trials -->
     <g transform="translate(21.603625 241.61425)rotate(-90)scale(0.2 -0.2)">
      <defs>
       <path id="DejaVuSans-70" d="M 1159 525 
L 1159 -1331 
L 581 -1331 
L 581 3500 
L 1159 3500 
L 1159 2969 
Q 1341 3281 1617 3432 
Q 1894 3584 2278 3584 
Q 2916 3584 3314 3078 
Q 3713 2572 3713 1747 
Q 3713 922 3314 415 
Q 2916 -91 2278 -91 
Q 1894 -91 1617 61 
Q 1341 213 1159 525 
z
M 3116 1747 
Q 3116 2381 2855 2742 
Q 2594 3103 2138 3103 
Q 1681 3103 1420 2742 
Q 1159 2381 1159 1747 
Q 1159 1113 1420 752 
Q 1681 391 2138 391 
Q 2594 391 2855 752 
Q 3116 1113 3116 1747 
z
" transform="scale(0.015625)"/>
       <path id="DejaVuSans-72" d="M 2631 2963 
Q 2534 3019 2420 3045 
Q 2306 3072 2169 3072 
Q 1681 3072 1420 2755 
Q 1159 2438 1159 1844 
L 1159 0 
L 581 0 
L 581 3500 
L 1159 3500 
L 1159 2956 
Q 1341 3275 1631 3429 
Q 1922 3584 2338 3584 
Q 2397 3584 2469 3576 
Q 2541 3569 2628 3553 
L 2631 2963 
z
" transform="scale(0.015625)"/>
       <path id="DejaVuSans-74" d="M 1172 4494 
L 1172 3500 
L 2356 3500 
L 2356 3053 
L 1172 3053 
L 1172 1153 
Q 1172 725 1289 603 
Q 1406 481 1766 481 
L 2356 481 
L 2356 0 
L 1766 0 
Q 1100 0 847 248 
Q 594 497 594 1153 
L 594 3053 
L 172 3053 
L 172 3500 
L 594 3500 
L 594 4494 
L 1172 4494 
z
" transform="scale(0.015625)"/>
       <path id="DejaVuSans-69" d="M 603 3500 
L 1178 3500 
L 1178 0 
L 603 0 
L 603 3500 
z
M 603 4863 
L 1178 4863 
L 1178 4134 
L 603 4134 
L 603 4863 
z
" transform="scale(0.015625)"/>
       <path id="DejaVuSans-6e" d="M 3513 2113 
L 3513 0 
L 2938 0 
L 2938 2094 
Q 2938 2591 2744 2837 
Q 2550 3084 2163 3084 
Q 1697 3084 1428 2787 
Q 1159 2491 1159 1978 
L 1159 0 
L 581 0 
L 581 3500 
L 1159 3500 
L 1159 2956 
Q 1366 3272 1645 3428 
Q 1925 3584 2291 3584 
Q 2894 3584 3203 3211 
Q 3513 2838 3513 2113 
z
" transform="scale(0.015625)"/>
      </defs>
      <use xlink:href="#DejaVuSans-70"/>
      <use xlink:href="#DejaVuSans-72" x="63.476562"/>
      <use xlink:href="#DejaVuSans-6f" x="102.339844"/>
      <use xlink:href="#DejaVuSans-70" x="163.521484"/>
      <use xlink:href="#DejaVuSans-6f" x="226.998047"/>
      <use xlink:href="#DejaVuSans-72" x="288.179688"/>
      <use xlink:href="#DejaVuSans-74" x="329.292969"/>
      <use xlink:href="#DejaVuSans-69" x="368.501953"/>
      <use xlink:href="#DejaVuSans-6f" x="396.285156"/>
      <use xlink:href="#DejaVuSans-6e" x="457.466797"/>
      <use xlink:href="#DejaVuSans-20" x="520.845703"/>
      <use xlink:href="#DejaVuSans-6f" x="552.632812"/>
      <use xlink:href="#DejaVuSans-66" x="613.814453"/>
      <use xlink:href="#DejaVuSans-20" x="649.019531"/>
      <use xlink:href="#DejaVuSans-74" x="680.806641"/>
      <use xlink:href="#DejaVuSans-72" x="720.015625"/>
      <use xlink:href="#DejaVuSans-69" x="761.128906"/>
      <use xlink:href="#DejaVuSans-61" x="788.912109"/>
      <use xlink:href="#DejaVuSans-6c" x="850.191406"/>
      <use xlink:href="#DejaVuSans-73" x="877.974609"/>
     </g>
    </g>
   </g>
   <g id="line2d_95">
    <path d="M -1 270.765624 
L 96.123544 270.765624 
L 96.123544 259.268436 
L 136.118436 259.268436 
L 136.118436 247.771248 
L 187.692113 247.771248 
L 187.692113 236.274059 
L 277.042914 236.274059 
L 277.042914 224.776871 
L 291.729397 224.776871 
L 291.729397 213.279683 
L 292.159999 213.279683 
L 292.159999 201.782495 
L 293.850975 201.782495 
L 293.850975 190.285307 
L 304.475066 190.285307 
L 304.475066 178.788119 
L 322.99158 178.788119 
L 322.99158 167.290931 
L 324.235172 167.290931 
L 324.235172 155.793743 
L 338.640355 155.793743 
L 338.640355 144.296554 
L 339.779216 144.296554 
L 339.779216 132.799366 
L 342.621273 132.799366 
L 342.621273 121.302178 
L 344.81547 121.302178 
L 344.81547 109.80499 
L 346.762992 109.80499 
L 346.762992 98.307802 
L 349.367685 98.307802 
L 349.367685 86.810614 
L 349.685157 86.810614 
L 349.685157 75.313426 
L 352.088074 75.313426 
L 352.088074 63.816238 
L 354.248834 63.816238 
L 354.248834 52.31905 
L 358.000152 52.31905 
L 358.000152 40.821861 
L 364.902784 40.821861 
L 364.902784 29.324673 
L 369.065819 29.324673 
L 369.065819 17.827485 
L 401.646087 17.827485 
L 401.646087 6.330297 
L 401.646087 6.330297 
L 401.646087 6.330297 
L 460.8 6.330297 
" clip-path="url(#pa8e5223a95)" style="fill: none; stroke: #000000; stroke-width: 1.5; stroke-linecap: square"/>
   </g>
   <g id="line2d_96">
    <path clip-path="url(#pa8e5223a95)" style="fill: none; stroke: #000000; stroke-width: 1.5; stroke-linecap: square"/>
   </g>
   <g id="line2d_97">
    <path d="M 257.684043 293.76 
L 257.684043 282.262812 
L 265.340108 282.262812 
L 265.340108 270.765624 
L 278.147262 270.765624 
L 278.147262 259.268436 
L 284.117121 259.268436 
L 284.117121 247.771248 
L 287.002744 247.771248 
L 287.002744 236.274059 
L 330.52329 236.274059 
L 330.52329 224.776871 
L 358.341778 224.776871 
L 358.341778 213.279683 
L 359.621816 213.279683 
L 359.621816 201.782495 
L 360.547158 201.782495 
L 360.547158 190.285307 
L 360.61269 190.285307 
L 360.61269 178.788119 
L 362.163522 178.788119 
L 362.163522 167.290931 
L 362.734504 167.290931 
L 362.734504 155.793743 
L 365.747785 155.793743 
L 365.747785 144.296554 
L 368.895862 144.296554 
L 368.895862 132.799366 
L 369.572707 132.799366 
L 369.572707 121.302178 
L 369.628755 121.302178 
L 369.628755 109.80499 
L 373.684318 109.80499 
L 373.684318 98.307802 
L 374.616661 98.307802 
L 374.616661 86.810614 
L 375.280772 86.810614 
L 375.280772 75.313426 
L 377.080932 75.313426 
L 377.080932 63.816238 
L 379.961751 63.816238 
L 379.961751 52.31905 
L 382.347165 52.31905 
L 382.347165 40.821861 
L 386.130016 40.821861 
L 386.130016 29.324673 
L 413.36505 29.324673 
L 413.36505 17.827485 
L 459.822595 17.827485 
L 459.822595 6.330297 
L 459.822595 6.330297 
L 459.822595 6.330297 
L 460.8 6.330297 
" clip-path="url(#pa8e5223a95)" style="fill: none; stroke: #00bfbf; stroke-width: 1.5; stroke-linecap: square"/>
   </g>
   <g id="line2d_98">
    <path clip-path="url(#pa8e5223a95)" style="fill: none; stroke: #00bfbf; stroke-width: 1.5; stroke-linecap: square"/>
   </g>
   <g id="line2d_99">
    <path d="M 332.368993 293.76 
L 332.368993 282.262812 
L 347.012238 282.262812 
L 347.012238 270.765624 
L 349.128429 270.765624 
L 349.128429 259.268436 
L 351.936031 259.268436 
L 351.936031 247.771248 
L 359.688407 247.771248 
L 359.688407 236.274059 
L 376.187872 236.274059 
L 376.187872 224.776871 
L 377.96038 224.776871 
L 377.96038 213.279683 
L 380.008567 213.279683 
L 380.008567 201.782495 
L 380.008567 201.782495 
L 380.008567 190.285307 
L 380.474648 190.285307 
L 380.474648 178.788119 
L 380.706283 178.788119 
L 380.706283 167.290931 
L 382.481821 167.290931 
L 382.481821 155.793743 
L 384.464849 155.793743 
L 384.464849 144.296554 
L 385.495242 144.296554 
L 385.495242 132.799366 
L 386.087914 132.799366 
L 386.087914 121.302178 
L 387.378992 121.302178 
L 387.378992 109.80499 
L 389.995784 109.80499 
L 389.995784 98.307802 
L 390.622117 98.307802 
L 390.622117 86.810614 
L 390.738802 86.810614 
L 390.738802 75.313426 
L 395.437944 75.313426 
L 395.437944 63.816238 
L 406.249739 63.816238 
L 406.249739 52.31905 
L 408.577859 52.31905 
L 408.577859 40.821861 
L 411.768073 40.821861 
L 411.768073 29.324673 
L 439.143303 29.324673 
L 439.143303 17.827485 
L 439.143303 17.827485 
L 439.143303 17.827485 
L 460.8 17.827485 
" clip-path="url(#pa8e5223a95)" style="fill: none; stroke: #bf00bf; stroke-width: 1.5; stroke-linecap: square"/>
   </g>
   <g id="line2d_100">
    <path clip-path="url(#pa8e5223a95)" style="fill: none; stroke: #bf00bf; stroke-width: 1.5; stroke-linecap: square"/>
   </g>
   <g id="line2d_101">
    <path d="M 383.547911 293.76 
L 383.547911 282.262812 
L 387.911931 282.262812 
L 387.911931 270.765624 
L 390.894015 270.765624 
L 390.894015 259.268436 
L 391.968971 259.268436 
L 391.968971 247.771248 
L 392.385856 247.771248 
L 392.385856 236.274059 
L 393.247912 236.274059 
L 393.247912 224.776871 
L 394.280279 224.776871 
L 394.280279 213.279683 
L 394.789618 213.279683 
L 394.789618 201.782495 
L 394.97044 201.782495 
L 394.97044 190.285307 
L 396.220576 190.285307 
L 396.220576 178.788119 
L 396.255899 178.788119 
L 396.255899 167.290931 
L 396.502558 167.290931 
L 396.502558 155.793743 
L 396.748167 155.793743 
L 396.748167 144.296554 
L 397.823469 144.296554 
L 397.823469 132.799366 
L 401.742496 132.799366 
L 401.742496 121.302178 
L 404.040116 121.302178 
L 404.040116 109.80499 
L 404.317153 109.80499 
L 404.317153 98.307802 
L 418.293691 98.307802 
L 418.293691 86.810614 
L 419.509988 86.810614 
L 419.509988 75.313426 
L 422.633416 75.313426 
L 422.633416 63.816238 
L 424.891309 63.816238 
L 424.891309 52.31905 
L 427.002021 52.31905 
L 427.002021 40.821861 
L 428.394434 40.821861 
L 428.394434 29.324673 
L 453.582648 29.324673 
L 453.582648 17.827485 
L 453.582648 17.827485 
L 453.582648 17.827485 
L 460.8 17.827485 
" clip-path="url(#pa8e5223a95)" style="fill: none; stroke: #ff0000; stroke-width: 3; stroke-linecap: square"/>
   </g>
   <g id="line2d_102">
    <path clip-path="url(#pa8e5223a95)" style="fill: none; stroke: #ff0000; stroke-width: 3; stroke-linecap: square"/>
   </g>
   <g id="line2d_103">
    <path d="M 460.8 293.76 
L 460.8 3.456 
" clip-path="url(#pa8e5223a95)" style="fill: none; stroke: #000000; stroke-width: 1.5; stroke-linecap: square"/>
   </g>
   <g id="patch_3">
    <path d="M 62.208 293.76 
L 62.208 3.456 
" style="fill: none; stroke: #000000; stroke-width: 0.8; stroke-linejoin: miter; stroke-linecap: square"/>
   </g>
   <g id="patch_4">
    <path d="M 460.8 293.76 
L 460.8 3.456 
" style="fill: none; stroke: #000000; stroke-width: 0.8; stroke-linejoin: miter; stroke-linecap: square"/>
   </g>
   <g id="patch_5">
    <path d="M 62.208 293.76 
L 460.8 293.76 
" style="fill: none; stroke: #000000; stroke-width: 0.8; stroke-linejoin: miter; stroke-linecap: square"/>
   </g>
   <g id="patch_6">
    <path d="M 62.208 3.456 
L 460.8 3.456 
" style="fill: none; stroke: #000000; stroke-width: 0.8; stroke-linejoin: miter; stroke-linecap: square"/>
   </g>
   <g id="text_11">
    <!-- {f10-f14}, 5-D -->
    <g transform="translate(188.654 24.458955)scale(0.2 -0.2)">
     <defs>
      <path id="DejaVuSans-7b" d="M 3272 -594 
L 3272 -1044 
L 3078 -1044 
Q 2300 -1044 2036 -812 
Q 1772 -581 1772 109 
L 1772 856 
Q 1772 1328 1603 1509 
Q 1434 1691 991 1691 
L 800 1691 
L 800 2138 
L 991 2138 
Q 1438 2138 1605 2317 
Q 1772 2497 1772 2963 
L 1772 3713 
Q 1772 4403 2036 4633 
Q 2300 4863 3078 4863 
L 3272 4863 
L 3272 4416 
L 3059 4416 
Q 2619 4416 2484 4278 
Q 2350 4141 2350 3700 
L 2350 2925 
Q 2350 2434 2208 2212 
Q 2066 1991 1722 1913 
Q 2069 1828 2209 1606 
Q 2350 1384 2350 897 
L 2350 122 
Q 2350 -319 2484 -456 
Q 2619 -594 3059 -594 
L 3272 -594 
z
" transform="scale(0.015625)"/>
      <path id="DejaVuSans-2d" d="M 313 2009 
L 1997 2009 
L 1997 1497 
L 313 1497 
L 313 2009 
z
" transform="scale(0.015625)"/>
      <path id="DejaVuSans-7d" d="M 800 -594 
L 1019 -594 
Q 1456 -594 1589 -459 
Q 1722 -325 1722 122 
L 1722 897 
Q 1722 1384 1862 1606 
Q 2003 1828 2350 1913 
Q 2003 1991 1862 2212 
Q 1722 2434 1722 2925 
L 1722 3700 
Q 1722 4144 1589 4280 
Q 1456 4416 1019 4416 
L 800 4416 
L 800 4863 
L 997 4863 
Q 1775 4863 2036 4633 
Q 2297 4403 2297 3713 
L 2297 2963 
Q 2297 2497 2465 2317 
Q 2634 2138 3078 2138 
L 3272 2138 
L 3272 1691 
L 3078 1691 
Q 2634 1691 2465 1509 
Q 2297 1328 2297 856 
L 2297 109 
Q 2297 -581 2036 -812 
Q 1775 -1044 997 -1044 
L 800 -1044 
L 800 -594 
z
" transform="scale(0.015625)"/>
      <path id="DejaVuSans-2c" d="M 750 794 
L 1409 794 
L 1409 256 
L 897 -744 
L 494 -744 
L 750 256 
L 750 794 
z
" transform="scale(0.015625)"/>
      <path id="DejaVuSans-35" d="M 691 4666 
L 3169 4666 
L 3169 4134 
L 1269 4134 
L 1269 2991 
Q 1406 3038 1543 3061 
Q 1681 3084 1819 3084 
Q 2600 3084 3056 2656 
Q 3513 2228 3513 1497 
Q 3513 744 3044 326 
Q 2575 -91 1722 -91 
Q 1428 -91 1123 -41 
Q 819 9 494 109 
L 494 744 
Q 775 591 1075 516 
Q 1375 441 1709 441 
Q 2250 441 2565 725 
Q 2881 1009 2881 1497 
Q 2881 1984 2565 2268 
Q 2250 2553 1709 2553 
Q 1456 2553 1204 2497 
Q 953 2441 691 2322 
L 691 4666 
z
" transform="scale(0.015625)"/>
     </defs>
     <use xlink:href="#DejaVuSans-7b"/>
     <use xlink:href="#DejaVuSans-66" x="63.623047"/>
     <use xlink:href="#DejaVuSans-31" x="98.828125"/>
     <use xlink:href="#DejaVuSans-30" x="162.451172"/>
     <use xlink:href="#DejaVuSans-2d" x="226.074219"/>
     <use xlink:href="#DejaVuSans-66" x="262.158203"/>
     <use xlink:href="#DejaVuSans-31" x="297.363281"/>
     <use xlink:href="#DejaVuSans-34" x="360.986328"/>
     <use xlink:href="#DejaVuSans-7d" x="424.609375"/>
     <use xlink:href="#DejaVuSans-2c" x="488.232422"/>
     <use xlink:href="#DejaVuSans-20" x="520.019531"/>
     <use xlink:href="#DejaVuSans-35" x="551.806641"/>
     <use xlink:href="#DejaVuSans-2d" x="615.429688"/>
     <use xlink:href="#DejaVuSans-44" x="651.513672"/>
    </g>
   </g>
   <g id="text_12">
    <!-- absolute targets -->
    <g transform="translate(62.208 609.932673)scale(0.14 -0.14)">
     <defs>
      <path id="DejaVuSans-62" d="M 3116 1747 
Q 3116 2381 2855 2742 
Q 2594 3103 2138 3103 
Q 1681 3103 1420 2742 
Q 1159 2381 1159 1747 
Q 1159 1113 1420 752 
Q 1681 391 2138 391 
Q 2594 391 2855 752 
Q 3116 1113 3116 1747 
z
M 1159 2969 
Q 1341 3281 1617 3432 
Q 1894 3584 2278 3584 
Q 2916 3584 3314 3078 
Q 3713 2572 3713 1747 
Q 3713 922 3314 415 
Q 2916 -91 2278 -91 
Q 1894 -91 1617 61 
Q 1341 213 1159 525 
L 1159 0 
L 581 0 
L 581 4863 
L 1159 4863 
L 1159 2969 
z
" transform="scale(0.015625)"/>
      <path id="DejaVuSans-75" d="M 544 1381 
L 544 3500 
L 1119 3500 
L 1119 1403 
Q 1119 906 1312 657 
Q 1506 409 1894 409 
Q 2359 409 2629 706 
Q 2900 1003 2900 1516 
L 2900 3500 
L 3475 3500 
L 3475 0 
L 2900 0 
L 2900 538 
Q 2691 219 2414 64 
Q 2138 -91 1772 -91 
Q 1169 -91 856 284 
Q 544 659 544 1381 
z
M 1991 3584 
L 1991 3584 
z
" transform="scale(0.015625)"/>
      <path id="DejaVuSans-65" d="M 3597 1894 
L 3597 1613 
L 953 1613 
Q 991 1019 1311 708 
Q 1631 397 2203 397 
Q 2534 397 2845 478 
Q 3156 559 3463 722 
L 3463 178 
Q 3153 47 2828 -22 
Q 2503 -91 2169 -91 
Q 1331 -91 842 396 
Q 353 884 353 1716 
Q 353 2575 817 3079 
Q 1281 3584 2069 3584 
Q 2775 3584 3186 3129 
Q 3597 2675 3597 1894 
z
M 3022 2063 
Q 3016 2534 2758 2815 
Q 2500 3097 2075 3097 
Q 1594 3097 1305 2825 
Q 1016 2553 972 2059 
L 3022 2063 
z
" transform="scale(0.015625)"/>
     </defs>
     <use xlink:href="#DejaVuSans-61"/>
     <use xlink:href="#DejaVuSans-62" x="61.279297"/>
     <use xlink:href="#DejaVuSans-73" x="124.755859"/>
     <use xlink:href="#DejaVuSans-6f" x="176.855469"/>
     <use xlink:href="#DejaVuSans-6c" x="238.037109"/>
     <use xlink:href="#DejaVuSans-75" x="265.820312"/>
     <use xlink:href="#DejaVuSans-74" x="329.199219"/>
     <use xlink:href="#DejaVuSans-65" x="368.408203"/>
     <use xlink:href="#DejaVuSans-20" x="429.931641"/>
     <use xlink:href="#DejaVuSans-74" x="461.71875"/>
     <use xlink:href="#DejaVuSans-61" x="500.927734"/>
     <use xlink:href="#DejaVuSans-72" x="562.207031"/>
     <use xlink:href="#DejaVuSans-67" x="601.570312"/>
     <use xlink:href="#DejaVuSans-65" x="665.046875"/>
     <use xlink:href="#DejaVuSans-74" x="726.570312"/>
     <use xlink:href="#DejaVuSans-73" x="765.779297"/>
    </g>
   </g>
   <g id="text_13">
    <!-- v2.6 -->
    <g style="fill: #808080" transform="translate(250.593063 288.777272)scale(0.1 -0.1)">
     <use xlink:href="#DejaVuSans-76"/>
     <use xlink:href="#DejaVuSans-32" x="59.179688"/>
     <use xlink:href="#DejaVuSans-2e" x="122.802734"/>
     <use xlink:href="#DejaVuSans-36" x="154.589844"/>
    </g>
   </g>
   <g id="legend_1">
    <g id="patch_7">
     <path d="M 76.208 136.881 
L 205.429875 136.881 
Q 209.429875 136.881 209.429875 132.881 
L 209.429875 17.456 
Q 209.429875 13.456 205.429875 13.456 
L 76.208 13.456 
Q 72.208 13.456 72.208 17.456 
L 72.208 132.881 
Q 72.208 136.881 76.208 136.881 
z
" style="fill: #ffffff; opacity: 0.2; stroke: #cccccc; stroke-linejoin: miter"/>
    </g>
    <g id="line2d_104">
     <path d="M 80.208 29.652875 
L 80.208 29.652875 
L 100.208 29.652875 
L 100.208 29.652875 
L 120.208 29.652875 
" style="fill: none; stroke: #000000; stroke-width: 1.5; stroke-linecap: square"/>
    </g>
    <g id="text_14">
     <!-- 1: 5/5 -->
     <g transform="translate(136.208 36.652875)scale(0.2 -0.2)">
      <defs>
       <path id="DejaVuSans-3a" d="M 750 794 
L 1409 794 
L 1409 0 
L 750 0 
L 750 794 
z
M 750 3309 
L 1409 3309 
L 1409 2516 
L 750 2516 
L 750 3309 
z
" transform="scale(0.015625)"/>
      </defs>
      <use xlink:href="#DejaVuSans-31"/>
      <use xlink:href="#DejaVuSans-3a" x="63.623047"/>
      <use xlink:href="#DejaVuSans-20" x="97.314453"/>
      <use xlink:href="#DejaVuSans-35" x="129.101562"/>
      <use xlink:href="#DejaVuSans-2f" x="192.724609"/>
      <use xlink:href="#DejaVuSans-35" x="226.416016"/>
     </g>
    </g>
    <g id="line2d_105">
     <path d="M 80.208 59.009125 
L 80.208 59.009125 
L 100.208 59.009125 
L 100.208 59.009125 
L 120.208 59.009125 
" style="fill: none; stroke: #00bfbf; stroke-width: 1.5; stroke-linecap: square"/>
    </g>
    <g id="text_15">
     <!-- -1: 5/5 -->
     <g transform="translate(136.208 66.009125)scale(0.2 -0.2)">
      <use xlink:href="#DejaVuSans-2d"/>
      <use xlink:href="#DejaVuSans-31" x="36.083984"/>
      <use xlink:href="#DejaVuSans-3a" x="99.707031"/>
      <use xlink:href="#DejaVuSans-20" x="133.398438"/>
      <use xlink:href="#DejaVuSans-35" x="165.185547"/>
      <use xlink:href="#DejaVuSans-2f" x="228.808594"/>
      <use xlink:href="#DejaVuSans-35" x="262.5"/>
     </g>
    </g>
    <g id="line2d_106">
     <path d="M 80.208 88.365375 
L 80.208 88.365375 
L 100.208 88.365375 
L 100.208 88.365375 
L 120.208 88.365375 
" style="fill: none; stroke: #bf00bf; stroke-width: 1.5; stroke-linecap: square"/>
    </g>
    <g id="text_16">
     <!-- -4: 5/5 -->
     <g transform="translate(136.208 95.365375)scale(0.2 -0.2)">
      <use xlink:href="#DejaVuSans-2d"/>
      <use xlink:href="#DejaVuSans-34" x="36.083984"/>
      <use xlink:href="#DejaVuSans-3a" x="99.707031"/>
      <use xlink:href="#DejaVuSans-20" x="133.398438"/>
      <use xlink:href="#DejaVuSans-35" x="165.185547"/>
      <use xlink:href="#DejaVuSans-2f" x="228.808594"/>
      <use xlink:href="#DejaVuSans-35" x="262.5"/>
     </g>
    </g>
    <g id="line2d_107">
     <path d="M 80.208 117.721625 
L 80.208 117.721625 
L 100.208 117.721625 
L 100.208 117.721625 
L 120.208 117.721625 
" style="fill: none; stroke: #ff0000; stroke-width: 3; stroke-linecap: square"/>
    </g>
    <g id="text_17">
     <!-- -8: 5/5 -->
     <g transform="translate(136.208 124.721625)scale(0.2 -0.2)">
      <use xlink:href="#DejaVuSans-2d"/>
      <use xlink:href="#DejaVuSans-38" x="36.083984"/>
      <use xlink:href="#DejaVuSans-3a" x="99.707031"/>
      <use xlink:href="#DejaVuSans-20" x="133.398438"/>
      <use xlink:href="#DejaVuSans-35" x="165.185547"/>
      <use xlink:href="#DejaVuSans-2f" x="228.808594"/>
      <use xlink:href="#DejaVuSans-35" x="262.5"/>
     </g>
    </g>
   </g>
  </g>
 </g>
 <defs>
  <clipPath id="pa8e5223a95">
   <rect x="62.208" y="3.456" width="398.592" height="290.304"/>
  </clipPath>
 </defs>
</svg>
