<?xml version="1.0" encoding="utf-8" standalone="no"?>
<!DOCTYPE svg PUBLIC "-//W3C//DTD SVG 1.1//EN"
  "http://www.w3.org/Graphics/SVG/1.1/DTD/svg11.dtd">
<svg xmlns:xlink="http://www.w3.org/1999/xlink" width="460.8pt" height="345.6pt" viewBox="0 0 460.8 345.6" xmlns="http://www.w3.org/2000/svg" version="1.1">
 <metadata>
  <rdf:RDF xmlns:dc="http://purl.org/dc/elements/1.1/" xmlns:cc="http://creativecommons.org/ns#" xmlns:rdf="http://www.w3.org/1999/02/22-rdf-syntax-ns#">
   <cc:Work>
    <dc:type rdf:resource="http://purl.org/dc/dcmitype/StillImage"/>
    <dc:date>2022-03-16T23:40:50.483890</dc:date>
    <dc:format>image/svg+xml</dc:format>
    <dc:creator>
     <cc:Agent>
      <dc:title>Matplotlib v3.5.1, https://matplotlib.org/</dc:title>
     </cc:Agent>
    </dc:creator>
   </cc:Work>
  </rdf:RDF>
 </metadata>
 <defs>
  <style type="text/css">*{stroke-linejoin: round; stroke-linecap: butt}</style>
 </defs>
 <g id="figure_1">
  <g id="patch_1">
   <path d="M 0 345.6 
L 460.8 345.6 
L 460.8 0 
L 0 0 
z
" style="fill: #ffffff"/>
  </g>
  <g id="axes_1">
   <g id="patch_2">
    <path d="M 57.6 298.944 
L 360.8064 298.944 
L 360.8064 27.648 
L 57.6 27.648 
z
" style="fill: #ffffff"/>
   </g>
   <g id="line2d_1">
    <path d="M 67.209423 298.944 
L 67.209423 293.624471 
L 80.248597 293.624471 
L 80.248597 288.304941 
L 94.205591 288.304941 
L 94.205591 282.985412 
L 104.344952 282.985412 
L 104.344952 277.665882 
L 105.850679 277.665882 
L 105.850679 272.346353 
L 106.326946 272.346353 
L 106.326946 267.026824 
L 107.244765 267.026824 
L 107.244765 261.707294 
L 157.795157 261.707294 
L 157.795157 256.387765 
L 162.634233 256.387765 
L 162.634233 251.068235 
L 162.751732 251.068235 
L 162.751732 245.748706 
L 162.868502 245.748706 
L 162.868502 240.429176 
L 163.865975 240.429176 
L 163.865975 235.109647 
L 163.932096 235.109647 
L 163.932096 224.470588 
L 164.107292 224.470588 
L 164.107292 219.151059 
L 164.172572 219.151059 
L 164.172572 213.831529 
L 164.686815 213.831529 
L 164.686815 208.512 
L 165.166781 208.512 
L 165.166781 203.192471 
L 165.187374 203.192471 
L 165.187374 192.553412 
L 165.330896 192.553412 
L 165.330896 187.233882 
L 165.695002 187.233882 
L 165.695002 181.914353 
L 165.715025 181.914353 
L 165.715025 171.275294 
L 165.814821 171.275294 
L 165.814821 165.955765 
L 165.953653 165.955765 
L 165.953653 160.636235 
L 166.189291 160.636235 
L 166.189291 155.316706 
L 166.651893 155.316706 
L 166.651893 139.358118 
L 166.670924 139.358118 
L 166.670924 128.719059 
L 167.121972 128.719059 
L 167.121972 123.399529 
L 167.140533 123.399529 
L 167.140533 112.760471 
L 167.159075 112.760471 
L 167.159075 107.440941 
L 167.1776 107.440941 
L 167.1776 102.121412 
L 167.453299 102.121412 
L 167.453299 86.162824 
L 167.580589 86.162824 
L 167.580589 75.523765 
L 167.598703 75.523765 
L 167.598703 70.204235 
L 167.652941 70.204235 
L 167.652941 59.565176 
L 167.689013 59.565176 
L 167.689013 48.926118 
L 167.796816 48.926118 
L 167.796816 32.967529 
L 183.842993 32.967529 
L 183.842993 27.648 
L 360.8064 27.648 
" style="fill: none; stroke: #f5deb3; stroke-width: 4; stroke-linecap: square"/>
   </g>
   <g id="line2d_2">
    <defs>
     <path id="md697ebdb45" d="M -0 7.778175 
L 7.778175 0 
L 0 -7.778175 
L -7.778175 -0 
z
" style="stroke: #f5deb3; stroke-width: 1.5; stroke-linejoin: miter"/>
    </defs>
    <g>
     <use xlink:href="#md697ebdb45" x="105.850679" y="272.346353" style="fill: #f5deb3; stroke: #f5deb3; stroke-width: 1.5; stroke-linejoin: miter"/>
     <use xlink:href="#md697ebdb45" x="165.814821" y="165.955765" style="fill: #f5deb3; stroke: #f5deb3; stroke-width: 1.5; stroke-linejoin: miter"/>
     <use xlink:href="#md697ebdb45" x="183.842993" y="32.967529" style="fill: #f5deb3; stroke: #f5deb3; stroke-width: 1.5; stroke-linejoin: miter"/>
     <use xlink:href="#md697ebdb45" x="183.842993" y="27.648" style="fill: #f5deb3; stroke: #f5deb3; stroke-width: 1.5; stroke-linejoin: miter"/>
     <use xlink:href="#md697ebdb45" x="360.8064" y="27.648" style="fill: #f5deb3; stroke: #f5deb3; stroke-width: 1.5; stroke-linejoin: miter"/>
    </g>
   </g>
   <g id="line2d_3">
    <path style="fill: none; stroke: #f5deb3; stroke-width: 4; stroke-linecap: square"/>
    <g/>
   </g>
   <g id="line2d_4">
    <path d="M 360.8064 27.648 
L 380.514816 33.07392 
" style="fill: none; stroke: #f5deb3; stroke-width: 4; stroke-linecap: square"/>
    <g>
     <use xlink:href="#md697ebdb45" x="360.8064" y="27.648" style="fill: #f5deb3; stroke: #f5deb3; stroke-width: 1.5; stroke-linejoin: miter"/>
     <use xlink:href="#md697ebdb45" x="380.514816" y="33.07392" style="fill: #f5deb3; stroke: #f5deb3; stroke-width: 1.5; stroke-linejoin: miter"/>
    </g>
   </g>
   <g id="matplotlib.axis_1">
    <g id="xtick_1">
     <g id="line2d_5">
      <path d="M 57.6 298.944 
L 57.6 27.648 
" clip-path="url(#p950433b598)" style="fill: none; stroke: #b0b0b0; stroke-width: 0.8; stroke-linecap: square"/>
     </g>
     <g id="line2d_6">
      <defs>
       <path id="mf186d8a513" d="M 0 0 
L 0 3.5 
" style="stroke: #000000; stroke-width: 0.8"/>
      </defs>
      <g>
       <use xlink:href="#mf186d8a513" x="57.6" y="298.944" style="stroke: #000000; stroke-width: 0.8"/>
      </g>
     </g>
     <g id="text_1">
      <!-- 0 -->
      <g transform="translate(52.191875 318.861344)scale(0.17 -0.17)">
       <defs>
        <path id="DejaVuSans-30" d="M 2034 4250 
Q 1547 4250 1301 3770 
Q 1056 3291 1056 2328 
Q 1056 1369 1301 889 
Q 1547 409 2034 409 
Q 2525 409 2770 889 
Q 3016 1369 3016 2328 
Q 3016 3291 2770 3770 
Q 2525 4250 2034 4250 
z
M 2034 4750 
Q 2819 4750 3233 4129 
Q 3647 3509 3647 2328 
Q 3647 1150 3233 529 
Q 2819 -91 2034 -91 
Q 1250 -91 836 529 
Q 422 1150 422 2328 
Q 422 3509 836 4129 
Q 1250 4750 2034 4750 
z
" transform="scale(0.015625)"/>
       </defs>
       <use xlink:href="#DejaVuSans-30"/>
      </g>
     </g>
    </g>
    <g id="xtick_2">
     <g id="line2d_7">
      <path d="M 144.2304 298.944 
L 144.2304 27.648 
" clip-path="url(#p950433b598)" style="fill: none; stroke: #b0b0b0; stroke-width: 0.8; stroke-linecap: square"/>
     </g>
     <g id="line2d_8">
      <g>
       <use xlink:href="#mf186d8a513" x="144.2304" y="298.944" style="stroke: #000000; stroke-width: 0.8"/>
      </g>
     </g>
     <g id="text_2">
      <!-- 2 -->
      <g transform="translate(138.822275 318.861344)scale(0.17 -0.17)">
       <defs>
        <path id="DejaVuSans-32" d="M 1228 531 
L 3431 531 
L 3431 0 
L 469 0 
L 469 531 
Q 828 903 1448 1529 
Q 2069 2156 2228 2338 
Q 2531 2678 2651 2914 
Q 2772 3150 2772 3378 
Q 2772 3750 2511 3984 
Q 2250 4219 1831 4219 
Q 1534 4219 1204 4116 
Q 875 4013 500 3803 
L 500 4441 
Q 881 4594 1212 4672 
Q 1544 4750 1819 4750 
Q 2544 4750 2975 4387 
Q 3406 4025 3406 3419 
Q 3406 3131 3298 2873 
Q 3191 2616 2906 2266 
Q 2828 2175 2409 1742 
Q 1991 1309 1228 531 
z
" transform="scale(0.015625)"/>
       </defs>
       <use xlink:href="#DejaVuSans-32"/>
      </g>
     </g>
    </g>
    <g id="xtick_3">
     <g id="line2d_9">
      <path d="M 230.8608 298.944 
L 230.8608 27.648 
" clip-path="url(#p950433b598)" style="fill: none; stroke: #b0b0b0; stroke-width: 0.8; stroke-linecap: square"/>
     </g>
     <g id="line2d_10">
      <g>
       <use xlink:href="#mf186d8a513" x="230.8608" y="298.944" style="stroke: #000000; stroke-width: 0.8"/>
      </g>
     </g>
     <g id="text_3">
      <!-- 4 -->
      <g transform="translate(225.452675 318.861344)scale(0.17 -0.17)">
       <defs>
        <path id="DejaVuSans-34" d="M 2419 4116 
L 825 1625 
L 2419 1625 
L 2419 4116 
z
M 2253 4666 
L 3047 4666 
L 3047 1625 
L 3713 1625 
L 3713 1100 
L 3047 1100 
L 3047 0 
L 2419 0 
L 2419 1100 
L 313 1100 
L 313 1709 
L 2253 4666 
z
" transform="scale(0.015625)"/>
       </defs>
       <use xlink:href="#DejaVuSans-34"/>
      </g>
     </g>
    </g>
    <g id="xtick_4">
     <g id="line2d_11">
      <path d="M 317.4912 298.944 
L 317.4912 27.648 
" clip-path="url(#p950433b598)" style="fill: none; stroke: #b0b0b0; stroke-width: 0.8; stroke-linecap: square"/>
     </g>
     <g id="line2d_12">
      <g>
       <use xlink:href="#mf186d8a513" x="317.4912" y="298.944" style="stroke: #000000; stroke-width: 0.8"/>
      </g>
     </g>
     <g id="text_4">
      <!-- 6 -->
      <g transform="translate(312.083075 318.861344)scale(0.17 -0.17)">
       <defs>
        <path id="DejaVuSans-36" d="M 2113 2584 
Q 1688 2584 1439 2293 
Q 1191 2003 1191 1497 
Q 1191 994 1439 701 
Q 1688 409 2113 409 
Q 2538 409 2786 701 
Q 3034 994 3034 1497 
Q 3034 2003 2786 2293 
Q 2538 2584 2113 2584 
z
M 3366 4563 
L 3366 3988 
Q 3128 4100 2886 4159 
Q 2644 4219 2406 4219 
Q 1781 4219 1451 3797 
Q 1122 3375 1075 2522 
Q 1259 2794 1537 2939 
Q 1816 3084 2150 3084 
Q 2853 3084 3261 2657 
Q 3669 2231 3669 1497 
Q 3669 778 3244 343 
Q 2819 -91 2113 -91 
Q 1303 -91 875 529 
Q 447 1150 447 2328 
Q 447 3434 972 4092 
Q 1497 4750 2381 4750 
Q 2619 4750 2861 4703 
Q 3103 4656 3366 4563 
z
" transform="scale(0.015625)"/>
       </defs>
       <use xlink:href="#DejaVuSans-36"/>
      </g>
     </g>
    </g>
    <g id="xtick_5">
     <g id="line2d_13">
      <path d="M 100.9152 298.944 
L 100.9152 27.648 
" clip-path="url(#p950433b598)" style="fill: none; stroke: #b0b0b0; stroke-width: 0.8; stroke-linecap: square"/>
     </g>
     <g id="line2d_14">
      <defs>
       <path id="md482600465" d="M 0 0 
L 0 2 
" style="stroke: #000000; stroke-width: 0.6"/>
      </defs>
      <g>
       <use xlink:href="#md482600465" x="100.9152" y="298.944" style="stroke: #000000; stroke-width: 0.6"/>
      </g>
     </g>
    </g>
    <g id="xtick_6">
     <g id="line2d_15">
      <path d="M 187.5456 298.944 
L 187.5456 27.648 
" clip-path="url(#p950433b598)" style="fill: none; stroke: #b0b0b0; stroke-width: 0.8; stroke-linecap: square"/>
     </g>
     <g id="line2d_16">
      <g>
       <use xlink:href="#md482600465" x="187.5456" y="298.944" style="stroke: #000000; stroke-width: 0.6"/>
      </g>
     </g>
    </g>
    <g id="xtick_7">
     <g id="line2d_17">
      <path d="M 274.176 298.944 
L 274.176 27.648 
" clip-path="url(#p950433b598)" style="fill: none; stroke: #b0b0b0; stroke-width: 0.8; stroke-linecap: square"/>
     </g>
     <g id="line2d_18">
      <g>
       <use xlink:href="#md482600465" x="274.176" y="298.944" style="stroke: #000000; stroke-width: 0.6"/>
      </g>
     </g>
    </g>
    <g id="xtick_8">
     <g id="line2d_19">
      <path d="M 360.8064 298.944 
L 360.8064 27.648 
" clip-path="url(#p950433b598)" style="fill: none; stroke: #b0b0b0; stroke-width: 0.8; stroke-linecap: square"/>
     </g>
     <g id="line2d_20">
      <g>
       <use xlink:href="#md482600465" x="360.8064" y="298.944" style="stroke: #000000; stroke-width: 0.6"/>
      </g>
     </g>
    </g>
    <g id="text_5">
     <!-- log10(# f-evals / dimension) -->
     <g transform="translate(88.823278 339.314156)scale(0.17 -0.17)">
      <defs>
       <path id="DejaVuSans-6c" d="M 603 4863 
L 1178 4863 
L 1178 0 
L 603 0 
L 603 4863 
z
" transform="scale(0.015625)"/>
       <path id="DejaVuSans-6f" d="M 1959 3097 
Q 1497 3097 1228 2736 
Q 959 2375 959 1747 
Q 959 1119 1226 758 
Q 1494 397 1959 397 
Q 2419 397 2687 759 
Q 2956 1122 2956 1747 
Q 2956 2369 2687 2733 
Q 2419 3097 1959 3097 
z
M 1959 3584 
Q 2709 3584 3137 3096 
Q 3566 2609 3566 1747 
Q 3566 888 3137 398 
Q 2709 -91 1959 -91 
Q 1206 -91 779 398 
Q 353 888 353 1747 
Q 353 2609 779 3096 
Q 1206 3584 1959 3584 
z
" transform="scale(0.015625)"/>
       <path id="DejaVuSans-67" d="M 2906 1791 
Q 2906 2416 2648 2759 
Q 2391 3103 1925 3103 
Q 1463 3103 1205 2759 
Q 947 2416 947 1791 
Q 947 1169 1205 825 
Q 1463 481 1925 481 
Q 2391 481 2648 825 
Q 2906 1169 2906 1791 
z
M 3481 434 
Q 3481 -459 3084 -895 
Q 2688 -1331 1869 -1331 
Q 1566 -1331 1297 -1286 
Q 1028 -1241 775 -1147 
L 775 -588 
Q 1028 -725 1275 -790 
Q 1522 -856 1778 -856 
Q 2344 -856 2625 -561 
Q 2906 -266 2906 331 
L 2906 616 
Q 2728 306 2450 153 
Q 2172 0 1784 0 
Q 1141 0 747 490 
Q 353 981 353 1791 
Q 353 2603 747 3093 
Q 1141 3584 1784 3584 
Q 2172 3584 2450 3431 
Q 2728 3278 2906 2969 
L 2906 3500 
L 3481 3500 
L 3481 434 
z
" transform="scale(0.015625)"/>
       <path id="DejaVuSans-31" d="M 794 531 
L 1825 531 
L 1825 4091 
L 703 3866 
L 703 4441 
L 1819 4666 
L 2450 4666 
L 2450 531 
L 3481 531 
L 3481 0 
L 794 0 
L 794 531 
z
" transform="scale(0.015625)"/>
       <path id="DejaVuSans-28" d="M 1984 4856 
Q 1566 4138 1362 3434 
Q 1159 2731 1159 2009 
Q 1159 1288 1364 580 
Q 1569 -128 1984 -844 
L 1484 -844 
Q 1016 -109 783 600 
Q 550 1309 550 2009 
Q 550 2706 781 3412 
Q 1013 4119 1484 4856 
L 1984 4856 
z
" transform="scale(0.015625)"/>
       <path id="DejaVuSans-23" d="M 3272 2816 
L 2363 2816 
L 2100 1772 
L 3016 1772 
L 3272 2816 
z
M 2803 4594 
L 2478 3297 
L 3391 3297 
L 3719 4594 
L 4219 4594 
L 3897 3297 
L 4872 3297 
L 4872 2816 
L 3775 2816 
L 3519 1772 
L 4513 1772 
L 4513 1294 
L 3397 1294 
L 3072 0 
L 2572 0 
L 2894 1294 
L 1978 1294 
L 1656 0 
L 1153 0 
L 1478 1294 
L 494 1294 
L 494 1772 
L 1594 1772 
L 1856 2816 
L 850 2816 
L 850 3297 
L 1978 3297 
L 2297 4594 
L 2803 4594 
z
" transform="scale(0.015625)"/>
       <path id="DejaVuSans-20" transform="scale(0.015625)"/>
       <path id="DejaVuSans-66" d="M 2375 4863 
L 2375 4384 
L 1825 4384 
Q 1516 4384 1395 4259 
Q 1275 4134 1275 3809 
L 1275 3500 
L 2222 3500 
L 2222 3053 
L 1275 3053 
L 1275 0 
L 697 0 
L 697 3053 
L 147 3053 
L 147 3500 
L 697 3500 
L 697 3744 
Q 697 4328 969 4595 
Q 1241 4863 1831 4863 
L 2375 4863 
z
" transform="scale(0.015625)"/>
       <path id="DejaVuSans-2d" d="M 313 2009 
L 1997 2009 
L 1997 1497 
L 313 1497 
L 313 2009 
z
" transform="scale(0.015625)"/>
       <path id="DejaVuSans-65" d="M 3597 1894 
L 3597 1613 
L 953 1613 
Q 991 1019 1311 708 
Q 1631 397 2203 397 
Q 2534 397 2845 478 
Q 3156 559 3463 722 
L 3463 178 
Q 3153 47 2828 -22 
Q 2503 -91 2169 -91 
Q 1331 -91 842 396 
Q 353 884 353 1716 
Q 353 2575 817 3079 
Q 1281 3584 2069 3584 
Q 2775 3584 3186 3129 
Q 3597 2675 3597 1894 
z
M 3022 2063 
Q 3016 2534 2758 2815 
Q 2500 3097 2075 3097 
Q 1594 3097 1305 2825 
Q 1016 2553 972 2059 
L 3022 2063 
z
" transform="scale(0.015625)"/>
       <path id="DejaVuSans-76" d="M 191 3500 
L 800 3500 
L 1894 563 
L 2988 3500 
L 3597 3500 
L 2284 0 
L 1503 0 
L 191 3500 
z
" transform="scale(0.015625)"/>
       <path id="DejaVuSans-61" d="M 2194 1759 
Q 1497 1759 1228 1600 
Q 959 1441 959 1056 
Q 959 750 1161 570 
Q 1363 391 1709 391 
Q 2188 391 2477 730 
Q 2766 1069 2766 1631 
L 2766 1759 
L 2194 1759 
z
M 3341 1997 
L 3341 0 
L 2766 0 
L 2766 531 
Q 2569 213 2275 61 
Q 1981 -91 1556 -91 
Q 1019 -91 701 211 
Q 384 513 384 1019 
Q 384 1609 779 1909 
Q 1175 2209 1959 2209 
L 2766 2209 
L 2766 2266 
Q 2766 2663 2505 2880 
Q 2244 3097 1772 3097 
Q 1472 3097 1187 3025 
Q 903 2953 641 2809 
L 641 3341 
Q 956 3463 1253 3523 
Q 1550 3584 1831 3584 
Q 2591 3584 2966 3190 
Q 3341 2797 3341 1997 
z
" transform="scale(0.015625)"/>
       <path id="DejaVuSans-73" d="M 2834 3397 
L 2834 2853 
Q 2591 2978 2328 3040 
Q 2066 3103 1784 3103 
Q 1356 3103 1142 2972 
Q 928 2841 928 2578 
Q 928 2378 1081 2264 
Q 1234 2150 1697 2047 
L 1894 2003 
Q 2506 1872 2764 1633 
Q 3022 1394 3022 966 
Q 3022 478 2636 193 
Q 2250 -91 1575 -91 
Q 1294 -91 989 -36 
Q 684 19 347 128 
L 347 722 
Q 666 556 975 473 
Q 1284 391 1588 391 
Q 1994 391 2212 530 
Q 2431 669 2431 922 
Q 2431 1156 2273 1281 
Q 2116 1406 1581 1522 
L 1381 1569 
Q 847 1681 609 1914 
Q 372 2147 372 2553 
Q 372 3047 722 3315 
Q 1072 3584 1716 3584 
Q 2034 3584 2315 3537 
Q 2597 3491 2834 3397 
z
" transform="scale(0.015625)"/>
       <path id="DejaVuSans-2f" d="M 1625 4666 
L 2156 4666 
L 531 -594 
L 0 -594 
L 1625 4666 
z
" transform="scale(0.015625)"/>
       <path id="DejaVuSans-64" d="M 2906 2969 
L 2906 4863 
L 3481 4863 
L 3481 0 
L 2906 0 
L 2906 525 
Q 2725 213 2448 61 
Q 2172 -91 1784 -91 
Q 1150 -91 751 415 
Q 353 922 353 1747 
Q 353 2572 751 3078 
Q 1150 3584 1784 3584 
Q 2172 3584 2448 3432 
Q 2725 3281 2906 2969 
z
M 947 1747 
Q 947 1113 1208 752 
Q 1469 391 1925 391 
Q 2381 391 2643 752 
Q 2906 1113 2906 1747 
Q 2906 2381 2643 2742 
Q 2381 3103 1925 3103 
Q 1469 3103 1208 2742 
Q 947 2381 947 1747 
z
" transform="scale(0.015625)"/>
       <path id="DejaVuSans-69" d="M 603 3500 
L 1178 3500 
L 1178 0 
L 603 0 
L 603 3500 
z
M 603 4863 
L 1178 4863 
L 1178 4134 
L 603 4134 
L 603 4863 
z
" transform="scale(0.015625)"/>
       <path id="DejaVuSans-6d" d="M 3328 2828 
Q 3544 3216 3844 3400 
Q 4144 3584 4550 3584 
Q 5097 3584 5394 3201 
Q 5691 2819 5691 2113 
L 5691 0 
L 5113 0 
L 5113 2094 
Q 5113 2597 4934 2840 
Q 4756 3084 4391 3084 
Q 3944 3084 3684 2787 
Q 3425 2491 3425 1978 
L 3425 0 
L 2847 0 
L 2847 2094 
Q 2847 2600 2669 2842 
Q 2491 3084 2119 3084 
Q 1678 3084 1418 2786 
Q 1159 2488 1159 1978 
L 1159 0 
L 581 0 
L 581 3500 
L 1159 3500 
L 1159 2956 
Q 1356 3278 1631 3431 
Q 1906 3584 2284 3584 
Q 2666 3584 2933 3390 
Q 3200 3197 3328 2828 
z
" transform="scale(0.015625)"/>
       <path id="DejaVuSans-6e" d="M 3513 2113 
L 3513 0 
L 2938 0 
L 2938 2094 
Q 2938 2591 2744 2837 
Q 2550 3084 2163 3084 
Q 1697 3084 1428 2787 
Q 1159 2491 1159 1978 
L 1159 0 
L 581 0 
L 581 3500 
L 1159 3500 
L 1159 2956 
Q 1366 3272 1645 3428 
Q 1925 3584 2291 3584 
Q 2894 3584 3203 3211 
Q 3513 2838 3513 2113 
z
" transform="scale(0.015625)"/>
       <path id="DejaVuSans-29" d="M 513 4856 
L 1013 4856 
Q 1481 4119 1714 3412 
Q 1947 2706 1947 2009 
Q 1947 1309 1714 600 
Q 1481 -109 1013 -844 
L 513 -844 
Q 928 -128 1133 580 
Q 1338 1288 1338 2009 
Q 1338 2731 1133 3434 
Q 928 4138 513 4856 
z
" transform="scale(0.015625)"/>
      </defs>
      <use xlink:href="#DejaVuSans-6c"/>
      <use xlink:href="#DejaVuSans-6f" x="27.783203"/>
      <use xlink:href="#DejaVuSans-67" x="88.964844"/>
      <use xlink:href="#DejaVuSans-31" x="152.441406"/>
      <use xlink:href="#DejaVuSans-30" x="216.064453"/>
      <use xlink:href="#DejaVuSans-28" x="279.6875"/>
      <use xlink:href="#DejaVuSans-23" x="318.701172"/>
      <use xlink:href="#DejaVuSans-20" x="402.490234"/>
      <use xlink:href="#DejaVuSans-66" x="434.277344"/>
      <use xlink:href="#DejaVuSans-2d" x="463.982422"/>
      <use xlink:href="#DejaVuSans-65" x="500.066406"/>
      <use xlink:href="#DejaVuSans-76" x="561.589844"/>
      <use xlink:href="#DejaVuSans-61" x="620.769531"/>
      <use xlink:href="#DejaVuSans-6c" x="682.048828"/>
      <use xlink:href="#DejaVuSans-73" x="709.832031"/>
      <use xlink:href="#DejaVuSans-20" x="761.931641"/>
      <use xlink:href="#DejaVuSans-2f" x="793.71875"/>
      <use xlink:href="#DejaVuSans-20" x="827.410156"/>
      <use xlink:href="#DejaVuSans-64" x="859.197266"/>
      <use xlink:href="#DejaVuSans-69" x="922.673828"/>
      <use xlink:href="#DejaVuSans-6d" x="950.457031"/>
      <use xlink:href="#DejaVuSans-65" x="1047.869141"/>
      <use xlink:href="#DejaVuSans-6e" x="1109.392578"/>
      <use xlink:href="#DejaVuSans-73" x="1172.771484"/>
      <use xlink:href="#DejaVuSans-69" x="1224.871094"/>
      <use xlink:href="#DejaVuSans-6f" x="1252.654297"/>
      <use xlink:href="#DejaVuSans-6e" x="1313.835938"/>
      <use xlink:href="#DejaVuSans-29" x="1377.214844"/>
     </g>
    </g>
   </g>
   <g id="matplotlib.axis_2">
    <g id="ytick_1">
     <g id="line2d_21">
      <path d="M 57.6 298.944 
L 360.8064 298.944 
" clip-path="url(#p950433b598)" style="fill: none; stroke: #b0b0b0; stroke-width: 0.8; stroke-linecap: square"/>
     </g>
     <g id="line2d_22">
      <defs>
       <path id="mc6aaff5bdb" d="M 0 0 
L -3.5 0 
" style="stroke: #000000; stroke-width: 0.8"/>
      </defs>
      <g>
       <use xlink:href="#mc6aaff5bdb" x="57.6" y="298.944" style="stroke: #000000; stroke-width: 0.8"/>
      </g>
     </g>
     <g id="text_6">
      <!-- 0.0 -->
      <g transform="translate(25.155 305.02275)scale(0.16 -0.16)">
       <defs>
        <path id="DejaVuSans-2e" d="M 684 794 
L 1344 794 
L 1344 0 
L 684 0 
L 684 794 
z
" transform="scale(0.015625)"/>
       </defs>
       <use xlink:href="#DejaVuSans-30"/>
       <use xlink:href="#DejaVuSans-2e" x="63.623047"/>
       <use xlink:href="#DejaVuSans-30" x="95.410156"/>
      </g>
     </g>
    </g>
    <g id="ytick_2">
     <g id="line2d_23">
      <path d="M 57.6 244.6848 
L 360.8064 244.6848 
" clip-path="url(#p950433b598)" style="fill: none; stroke: #b0b0b0; stroke-width: 0.8; stroke-linecap: square"/>
     </g>
     <g id="line2d_24">
      <g>
       <use xlink:href="#mc6aaff5bdb" x="57.6" y="244.6848" style="stroke: #000000; stroke-width: 0.8"/>
      </g>
     </g>
     <g id="text_7">
      <!-- 0.2 -->
      <g transform="translate(25.155 250.76355)scale(0.16 -0.16)">
       <use xlink:href="#DejaVuSans-30"/>
       <use xlink:href="#DejaVuSans-2e" x="63.623047"/>
       <use xlink:href="#DejaVuSans-32" x="95.410156"/>
      </g>
     </g>
    </g>
    <g id="ytick_3">
     <g id="line2d_25">
      <path d="M 57.6 190.4256 
L 360.8064 190.4256 
" clip-path="url(#p950433b598)" style="fill: none; stroke: #b0b0b0; stroke-width: 0.8; stroke-linecap: square"/>
     </g>
     <g id="line2d_26">
      <g>
       <use xlink:href="#mc6aaff5bdb" x="57.6" y="190.4256" style="stroke: #000000; stroke-width: 0.8"/>
      </g>
     </g>
     <g id="text_8">
      <!-- 0.4 -->
      <g transform="translate(25.155 196.50435)scale(0.16 -0.16)">
       <use xlink:href="#DejaVuSans-30"/>
       <use xlink:href="#DejaVuSans-2e" x="63.623047"/>
       <use xlink:href="#DejaVuSans-34" x="95.410156"/>
      </g>
     </g>
    </g>
    <g id="ytick_4">
     <g id="line2d_27">
      <path d="M 57.6 136.1664 
L 360.8064 136.1664 
" clip-path="url(#p950433b598)" style="fill: none; stroke: #b0b0b0; stroke-width: 0.8; stroke-linecap: square"/>
     </g>
     <g id="line2d_28">
      <g>
       <use xlink:href="#mc6aaff5bdb" x="57.6" y="136.1664" style="stroke: #000000; stroke-width: 0.8"/>
      </g>
     </g>
     <g id="text_9">
      <!-- 0.6 -->
      <g transform="translate(25.155 142.24515)scale(0.16 -0.16)">
       <use xlink:href="#DejaVuSans-30"/>
       <use xlink:href="#DejaVuSans-2e" x="63.623047"/>
       <use xlink:href="#DejaVuSans-36" x="95.410156"/>
      </g>
     </g>
    </g>
    <g id="ytick_5">
     <g id="line2d_29">
      <path d="M 57.6 81.9072 
L 360.8064 81.9072 
" clip-path="url(#p950433b598)" style="fill: none; stroke: #b0b0b0; stroke-width: 0.8; stroke-linecap: square"/>
     </g>
     <g id="line2d_30">
      <g>
       <use xlink:href="#mc6aaff5bdb" x="57.6" y="81.9072" style="stroke: #000000; stroke-width: 0.8"/>
      </g>
     </g>
     <g id="text_10">
      <!-- 0.8 -->
      <g transform="translate(25.155 87.98595)scale(0.16 -0.16)">
       <defs>
        <path id="DejaVuSans-38" d="M 2034 2216 
Q 1584 2216 1326 1975 
Q 1069 1734 1069 1313 
Q 1069 891 1326 650 
Q 1584 409 2034 409 
Q 2484 409 2743 651 
Q 3003 894 3003 1313 
Q 3003 1734 2745 1975 
Q 2488 2216 2034 2216 
z
M 1403 2484 
Q 997 2584 770 2862 
Q 544 3141 544 3541 
Q 544 4100 942 4425 
Q 1341 4750 2034 4750 
Q 2731 4750 3128 4425 
Q 3525 4100 3525 3541 
Q 3525 3141 3298 2862 
Q 3072 2584 2669 2484 
Q 3125 2378 3379 2068 
Q 3634 1759 3634 1313 
Q 3634 634 3220 271 
Q 2806 -91 2034 -91 
Q 1263 -91 848 271 
Q 434 634 434 1313 
Q 434 1759 690 2068 
Q 947 2378 1403 2484 
z
M 1172 3481 
Q 1172 3119 1398 2916 
Q 1625 2713 2034 2713 
Q 2441 2713 2670 2916 
Q 2900 3119 2900 3481 
Q 2900 3844 2670 4047 
Q 2441 4250 2034 4250 
Q 1625 4250 1398 4047 
Q 1172 3844 1172 3481 
z
" transform="scale(0.015625)"/>
       </defs>
       <use xlink:href="#DejaVuSans-30"/>
       <use xlink:href="#DejaVuSans-2e" x="63.623047"/>
       <use xlink:href="#DejaVuSans-38" x="95.410156"/>
      </g>
     </g>
    </g>
    <g id="ytick_6">
     <g id="line2d_31">
      <path d="M 57.6 27.648 
L 360.8064 27.648 
" clip-path="url(#p950433b598)" style="fill: none; stroke: #b0b0b0; stroke-width: 0.8; stroke-linecap: square"/>
     </g>
     <g id="line2d_32">
      <g>
       <use xlink:href="#mc6aaff5bdb" x="57.6" y="27.648" style="stroke: #000000; stroke-width: 0.8"/>
      </g>
     </g>
     <g id="text_11">
      <!-- 1.0 -->
      <g transform="translate(25.155 33.72675)scale(0.16 -0.16)">
       <use xlink:href="#DejaVuSans-31"/>
       <use xlink:href="#DejaVuSans-2e" x="63.623047"/>
       <use xlink:href="#DejaVuSans-30" x="95.410156"/>
      </g>
     </g>
    </g>
    <g id="text_12">
     <!-- Fraction of function,target pairs -->
     <g transform="translate(17.619531 297.681)rotate(-90)scale(0.17 -0.17)">
      <defs>
       <path id="DejaVuSans-46" d="M 628 4666 
L 3309 4666 
L 3309 4134 
L 1259 4134 
L 1259 2759 
L 3109 2759 
L 3109 2228 
L 1259 2228 
L 1259 0 
L 628 0 
L 628 4666 
z
" transform="scale(0.015625)"/>
       <path id="DejaVuSans-72" d="M 2631 2963 
Q 2534 3019 2420 3045 
Q 2306 3072 2169 3072 
Q 1681 3072 1420 2755 
Q 1159 2438 1159 1844 
L 1159 0 
L 581 0 
L 581 3500 
L 1159 3500 
L 1159 2956 
Q 1341 3275 1631 3429 
Q 1922 3584 2338 3584 
Q 2397 3584 2469 3576 
Q 2541 3569 2628 3553 
L 2631 2963 
z
" transform="scale(0.015625)"/>
       <path id="DejaVuSans-63" d="M 3122 3366 
L 3122 2828 
Q 2878 2963 2633 3030 
Q 2388 3097 2138 3097 
Q 1578 3097 1268 2742 
Q 959 2388 959 1747 
Q 959 1106 1268 751 
Q 1578 397 2138 397 
Q 2388 397 2633 464 
Q 2878 531 3122 666 
L 3122 134 
Q 2881 22 2623 -34 
Q 2366 -91 2075 -91 
Q 1284 -91 818 406 
Q 353 903 353 1747 
Q 353 2603 823 3093 
Q 1294 3584 2113 3584 
Q 2378 3584 2631 3529 
Q 2884 3475 3122 3366 
z
" transform="scale(0.015625)"/>
       <path id="DejaVuSans-74" d="M 1172 4494 
L 1172 3500 
L 2356 3500 
L 2356 3053 
L 1172 3053 
L 1172 1153 
Q 1172 725 1289 603 
Q 1406 481 1766 481 
L 2356 481 
L 2356 0 
L 1766 0 
Q 1100 0 847 248 
Q 594 497 594 1153 
L 594 3053 
L 172 3053 
L 172 3500 
L 594 3500 
L 594 4494 
L 1172 4494 
z
" transform="scale(0.015625)"/>
       <path id="DejaVuSans-75" d="M 544 1381 
L 544 3500 
L 1119 3500 
L 1119 1403 
Q 1119 906 1312 657 
Q 1506 409 1894 409 
Q 2359 409 2629 706 
Q 2900 1003 2900 1516 
L 2900 3500 
L 3475 3500 
L 3475 0 
L 2900 0 
L 2900 538 
Q 2691 219 2414 64 
Q 2138 -91 1772 -91 
Q 1169 -91 856 284 
Q 544 659 544 1381 
z
M 1991 3584 
L 1991 3584 
z
" transform="scale(0.015625)"/>
       <path id="DejaVuSans-2c" d="M 750 794 
L 1409 794 
L 1409 256 
L 897 -744 
L 494 -744 
L 750 256 
L 750 794 
z
" transform="scale(0.015625)"/>
       <path id="DejaVuSans-70" d="M 1159 525 
L 1159 -1331 
L 581 -1331 
L 581 3500 
L 1159 3500 
L 1159 2969 
Q 1341 3281 1617 3432 
Q 1894 3584 2278 3584 
Q 2916 3584 3314 3078 
Q 3713 2572 3713 1747 
Q 3713 922 3314 415 
Q 2916 -91 2278 -91 
Q 1894 -91 1617 61 
Q 1341 213 1159 525 
z
M 3116 1747 
Q 3116 2381 2855 2742 
Q 2594 3103 2138 3103 
Q 1681 3103 1420 2742 
Q 1159 2381 1159 1747 
Q 1159 1113 1420 752 
Q 1681 391 2138 391 
Q 2594 391 2855 752 
Q 3116 1113 3116 1747 
z
" transform="scale(0.015625)"/>
      </defs>
      <use xlink:href="#DejaVuSans-46"/>
      <use xlink:href="#DejaVuSans-72" x="50.269531"/>
      <use xlink:href="#DejaVuSans-61" x="91.382812"/>
      <use xlink:href="#DejaVuSans-63" x="152.662109"/>
      <use xlink:href="#DejaVuSans-74" x="207.642578"/>
      <use xlink:href="#DejaVuSans-69" x="246.851562"/>
      <use xlink:href="#DejaVuSans-6f" x="274.634766"/>
      <use xlink:href="#DejaVuSans-6e" x="335.816406"/>
      <use xlink:href="#DejaVuSans-20" x="399.195312"/>
      <use xlink:href="#DejaVuSans-6f" x="430.982422"/>
      <use xlink:href="#DejaVuSans-66" x="492.164062"/>
      <use xlink:href="#DejaVuSans-20" x="527.369141"/>
      <use xlink:href="#DejaVuSans-66" x="559.15625"/>
      <use xlink:href="#DejaVuSans-75" x="594.361328"/>
      <use xlink:href="#DejaVuSans-6e" x="657.740234"/>
      <use xlink:href="#DejaVuSans-63" x="721.119141"/>
      <use xlink:href="#DejaVuSans-74" x="776.099609"/>
      <use xlink:href="#DejaVuSans-69" x="815.308594"/>
      <use xlink:href="#DejaVuSans-6f" x="843.091797"/>
      <use xlink:href="#DejaVuSans-6e" x="904.273438"/>
      <use xlink:href="#DejaVuSans-2c" x="967.652344"/>
      <use xlink:href="#DejaVuSans-74" x="999.439453"/>
      <use xlink:href="#DejaVuSans-61" x="1038.648438"/>
      <use xlink:href="#DejaVuSans-72" x="1099.927734"/>
      <use xlink:href="#DejaVuSans-67" x="1139.291016"/>
      <use xlink:href="#DejaVuSans-65" x="1202.767578"/>
      <use xlink:href="#DejaVuSans-74" x="1264.291016"/>
      <use xlink:href="#DejaVuSans-20" x="1303.5"/>
      <use xlink:href="#DejaVuSans-70" x="1335.287109"/>
      <use xlink:href="#DejaVuSans-61" x="1398.763672"/>
      <use xlink:href="#DejaVuSans-69" x="1460.042969"/>
      <use xlink:href="#DejaVuSans-72" x="1487.826172"/>
      <use xlink:href="#DejaVuSans-73" x="1528.939453"/>
     </g>
    </g>
   </g>
   <g id="line2d_33">
    <defs>
     <path id="m0020f797f8" d="M 0 1.5 
C 0.397805 1.5 0.77937 1.341951 1.06066 1.06066 
C 1.341951 0.77937 1.5 0.397805 1.5 0 
C 1.5 -0.397805 1.341951 -0.77937 1.06066 -1.06066 
C 0.77937 -1.341951 0.397805 -1.5 0 -1.5 
C -0.397805 -1.5 -0.77937 -1.341951 -1.06066 -1.06066 
C -1.341951 -0.77937 -1.5 -0.397805 -1.5 0 
C -1.5 0.397805 -1.341951 0.77937 -1.06066 1.06066 
C -0.77937 1.341951 -0.397805 1.5 0 1.5 
z
" style="stroke: #f5deb3"/>
    </defs>
    <g>
     <use xlink:href="#m0020f797f8" x="183.842993" y="27.648" style="fill: #f5deb3; stroke: #f5deb3"/>
     <use xlink:href="#m0020f797f8" x="183.842993" y="27.648" style="fill: #f5deb3; stroke: #f5deb3"/>
    </g>
   </g>
   <g id="line2d_34">
    <defs>
     <path id="m9f92ee2086" d="M 0 1.5 
C 0.397805 1.5 0.77937 1.341951 1.06066 1.06066 
C 1.341951 0.77937 1.5 0.397805 1.5 0 
C 1.5 -0.397805 1.341951 -0.77937 1.06066 -1.06066 
C 0.77937 -1.341951 0.397805 -1.5 0 -1.5 
C -0.397805 -1.5 -0.77937 -1.341951 -1.06066 -1.06066 
C -1.341951 -0.77937 -1.5 -0.397805 -1.5 0 
C -1.5 0.397805 -1.341951 0.77937 -1.06066 1.06066 
C -0.77937 1.341951 -0.397805 1.5 0 1.5 
z
" style="stroke: #000080"/>
    </defs>
    <g>
     <use xlink:href="#m9f92ee2086" x="286.188683" y="27.648" style="fill: #000080; stroke: #000080"/>
     <use xlink:href="#m9f92ee2086" x="286.188683" y="27.648" style="fill: #000080; stroke: #000080"/>
    </g>
   </g>
   <g id="line2d_35">
    <path d="M 36.933397 298.944 
L 36.933397 292.560565 
L 57.6 292.560565 
L 57.6 291.496659 
L 63.011746 291.496659 
L 63.011746 290.858315 
L 67.209423 290.858315 
L 67.209423 289.794409 
L 70.639174 289.794409 
L 70.639174 289.156066 
L 73.538988 289.156066 
L 73.538988 287.666598 
L 78.266603 287.666598 
L 78.266603 287.453816 
L 80.248597 287.453816 
L 80.248597 286.389911 
L 82.04153 286.389911 
L 82.04153 286.177129 
L 83.678349 286.177129 
L 83.678349 285.538786 
L 86.578163 285.538786 
L 86.578163 285.326005 
L 89.090095 285.326005 
L 89.090095 284.900442 
L 91.305777 284.900442 
L 91.305777 284.687661 
L 94.205591 284.687661 
L 94.205591 284.049318 
L 98.223251 284.049318 
L 98.223251 283.836536 
L 99.617337 283.836536 
L 99.617337 283.410974 
L 101.532027 283.410974 
L 101.532027 283.198193 
L 103.269713 283.198193 
L 103.269713 282.772631 
L 103.815014 282.772631 
L 103.815014 282.559849 
L 104.344952 282.559849 
L 104.344952 282.347068 
L 104.860369 282.347068 
L 104.860369 281.708725 
L 105.36204 281.708725 
L 105.36204 281.283162 
L 106.791453 281.283162 
L 106.791453 280.8576 
L 108.119879 280.8576 
L 108.119879 280.219256 
L 108.956085 280.219256 
L 108.956085 279.155351 
L 110.144579 279.155351 
L 110.144579 278.729788 
L 112.656511 278.729788 
L 112.656511 278.517007 
L 112.989468 278.517007 
L 112.989468 278.304226 
L 113.316634 278.304226 
L 113.316634 278.091445 
L 114.265316 278.091445 
L 114.265316 277.878664 
L 115.460102 277.878664 
L 115.460102 277.453101 
L 115.747307 277.453101 
L 115.747307 277.24032 
L 116.854188 277.24032 
L 116.854188 276.814758 
L 117.384126 276.814758 
L 117.384126 276.389195 
L 117.899543 276.389195 
L 117.899543 275.750852 
L 119.599808 275.750852 
L 119.599808 275.538071 
L 119.830627 275.538071 
L 119.830627 275.325289 
L 120.726585 275.325289 
L 120.726585 274.899727 
L 121.99526 274.899727 
L 121.99526 274.686946 
L 124.659926 274.686946 
L 124.659926 274.261384 
L 125.184934 274.261384 
L 125.184934 274.048602 
L 125.35673 274.048602 
L 125.35673 273.835821 
L 125.526971 273.835821 
L 125.526971 273.62304 
L 125.695686 273.62304 
L 125.695686 272.984696 
L 126.677381 272.984696 
L 126.677381 272.559134 
L 126.993549 272.559134 
L 126.993549 272.346353 
L 127.149662 272.346353 
L 127.149662 271.920791 
L 127.458055 271.920791 
L 127.458055 271.708009 
L 127.610376 271.708009 
L 127.610376 271.495228 
L 127.761474 271.495228 
L 127.761474 271.282447 
L 128.643427 271.282447 
L 128.643427 271.069666 
L 128.928456 271.069666 
L 128.928456 270.856885 
L 130.160198 270.856885 
L 130.160198 270.644104 
L 130.292209 270.644104 
L 130.292209 270.218541 
L 131.065395 270.218541 
L 131.065395 270.00576 
L 131.191226 270.00576 
L 131.191226 269.792979 
L 131.440389 269.792979 
L 131.440389 269.580198 
L 131.563744 269.580198 
L 131.563744 269.367416 
L 131.686295 269.367416 
L 131.686295 269.154635 
L 131.808053 269.154635 
L 131.808053 268.941854 
L 132.522502 268.941854 
L 132.522502 268.729073 
L 132.638982 268.729073 
L 132.638982 268.516292 
L 132.754746 268.516292 
L 132.754746 268.303511 
L 133.210806 268.303511 
L 133.210806 268.090729 
L 133.545739 268.090729 
L 133.545739 267.877948 
L 133.765759 267.877948 
L 133.765759 267.665167 
L 134.198228 267.665167 
L 134.198228 267.452386 
L 135.438999 267.452386 
L 135.438999 267.239605 
L 135.736814 267.239605 
L 135.736814 267.026824 
L 136.029987 267.026824 
L 136.029987 266.814042 
L 136.602972 266.814042 
L 136.602972 266.601261 
L 136.97549 266.601261 
L 137.067478 266.175699 
L 137.159019 266.175699 
L 137.159019 265.962918 
L 137.787626 265.962918 
L 137.787626 265.111793 
L 138.395904 265.111793 
L 138.395904 264.686231 
L 138.566146 264.686231 
L 138.566146 264.260668 
L 139.150143 264.260668 
L 139.150143 264.047887 
L 139.313723 264.047887 
L 139.313723 263.622325 
L 139.475893 263.622325 
L 139.475893 263.409544 
L 140.110942 263.409544 
L 140.110942 263.196762 
L 142.248405 263.196762 
L 142.248405 262.983981 
L 143.977892 262.983981 
L 143.977892 262.7712 
L 144.968202 262.7712 
L 144.968202 262.558419 
L 146.193574 262.558419 
L 146.193574 262.345638 
L 146.584913 262.345638 
L 146.584913 262.132856 
L 146.804934 262.132856 
L 146.804934 261.707294 
L 147.607824 261.707294 
L 147.607824 261.281732 
L 148.124658 261.281732 
L 148.124658 261.068951 
L 150.198193 261.068951 
L 150.198193 260.856169 
L 150.738275 260.856169 
L 150.738275 260.643388 
L 151.520392 260.643388 
L 151.520392 260.430607 
L 151.815978 260.430607 
L 151.815978 260.217826 
L 153.032666 260.217826 
L 153.032666 260.005045 
L 153.189104 260.005045 
L 153.189104 259.792264 
L 154.285968 259.792264 
L 154.285968 259.579482 
L 156.728884 259.579482 
L 156.728884 259.366701 
L 156.921495 259.366701 
L 156.921495 259.15392 
L 162.938218 259.15392 
L 162.938218 258.941139 
L 163.710781 258.941139 
L 163.710781 258.728358 
L 165.166781 258.728358 
L 165.166781 258.515576 
L 165.35131 258.515576 
L 165.35131 258.302795 
L 165.594566 258.302795 
L 165.594566 257.877233 
L 166.325396 257.877233 
L 166.325396 257.664452 
L 166.498953 257.664452 
L 166.498953 257.451671 
L 166.878997 257.451671 
L 166.916583 256.813327 
L 167.562457 256.813327 
L 167.562457 256.600546 
L 167.778892 256.600546 
L 167.778892 256.387765 
L 168.430973 256.387765 
L 168.430973 256.174984 
L 169.393282 256.174984 
L 169.475392 255.323859 
L 169.540824 255.323859 
L 169.540824 255.111078 
L 170.214455 255.111078 
L 170.214455 254.898296 
L 170.635104 254.898296 
L 170.635104 254.472734 
L 170.773255 254.472734 
L 170.773255 254.259953 
L 171.196684 254.259953 
L 171.196684 254.047172 
L 171.449192 254.047172 
L 171.449192 253.834391 
L 171.68379 253.834391 
L 171.71291 253.408828 
L 171.987325 253.408828 
L 171.987325 252.770485 
L 172.215347 252.770485 
L 172.215347 252.557704 
L 172.342405 252.557704 
L 172.342405 252.344922 
L 173.060174 252.344922 
L 173.060174 252.132141 
L 173.673069 252.132141 
L 173.673069 251.91936 
L 174.468765 251.91936 
L 174.468765 251.706579 
L 175.086808 251.706579 
L 175.086808 251.493798 
L 175.460042 251.493798 
L 175.519553 251.068235 
L 175.626202 251.068235 
L 175.626202 250.855454 
L 175.755734 250.855454 
L 175.755734 250.429892 
L 175.954182 250.429892 
L 175.988986 250.004329 
L 176.081483 250.004329 
L 176.185002 249.578767 
L 176.838794 249.578767 
L 176.838794 249.365986 
L 177.015223 249.365986 
L 177.015223 249.153205 
L 178.542888 249.153205 
L 178.542888 248.940424 
L 184.295578 248.940424 
L 184.362536 248.514861 
L 184.547291 248.514861 
L 184.547291 248.30208 
L 188.265306 248.30208 
L 188.3436 247.876518 
L 188.540894 247.876518 
L 188.540894 247.663736 
L 188.700792 247.663736 
L 188.75379 247.238174 
L 189.938803 247.238174 
L 189.938803 247.025393 
L 190.059884 247.025393 
L 190.059884 246.812612 
L 190.621949 246.812612 
L 190.621949 246.599831 
L 191.311975 246.599831 
L 191.311975 246.387049 
L 192.586897 246.387049 
L 192.586897 246.174268 
L 192.994932 246.174268 
L 192.994932 245.961487 
L 194.282779 245.961487 
L 194.282779 245.748706 
L 195.310476 245.748706 
L 195.310476 245.535925 
L 195.814113 245.535925 
L 195.814113 245.323144 
L 196.296743 245.323144 
L 196.367492 244.046456 
L 196.441885 244.046456 
L 196.527658 242.131426 
L 196.554868 242.131426 
L 196.636261 240.854739 
L 196.671037 240.854739 
L 196.774979 240.003614 
L 196.794164 240.003614 
L 196.817161 238.939708 
L 196.958358 238.939708 
L 196.958358 238.726927 
L 197.158785 238.726927 
L 197.241358 237.237459 
L 197.275033 237.237459 
L 197.379418 236.386334 
L 197.394283 236.386334 
L 197.46103 235.322428 
L 197.590142 235.322428 
L 197.696453 234.258522 
L 197.725675 234.258522 
L 197.827596 232.556273 
L 197.892825 232.556273 
L 197.979448 231.066805 
L 198.004638 231.066805 
L 198.015424 230.641242 
L 198.18003 230.641242 
L 198.18003 230.428461 
L 198.343209 230.428461 
L 198.438333 230.002899 
L 198.487467 230.002899 
L 198.525983 229.577336 
L 198.616709 229.577336 
L 198.616709 229.364555 
L 198.745069 229.364555 
L 198.845066 228.726212 
L 198.893151 228.726212 
L 198.893151 228.513431 
L 199.012829 228.513431 
L 199.012829 228.300649 
L 199.41413 228.300649 
L 199.520598 227.875087 
L 200.027944 227.875087 
L 200.027944 227.662306 
L 200.252658 227.662306 
L 200.252658 227.449525 
L 201.627587 227.449525 
L 201.627587 227.236744 
L 201.878039 227.236744 
L 201.878039 227.023962 
L 203.303667 227.023962 
L 203.303667 226.811181 
L 204.412642 226.811181 
L 204.412642 226.5984 
L 205.539538 226.5984 
L 205.642852 225.960056 
L 205.693102 225.960056 
L 205.783691 224.683369 
L 205.805083 224.683369 
L 205.911678 224.045026 
L 206.008274 224.045026 
L 206.116064 222.768339 
L 206.148747 222.768339 
L 206.255737 221.491652 
L 206.274282 221.491652 
L 206.380562 218.512715 
L 206.396683 218.512715 
L 206.502276 214.257092 
L 206.509142 214.257092 
L 206.561697 211.703718 
L 206.625481 211.703718 
L 206.732062 209.150344 
L 206.765951 209.150344 
L 206.862761 206.809751 
L 206.90986 206.809751 
L 207.019301 203.192471 
L 207.037109 203.192471 
L 207.148026 200.213534 
L 207.167922 200.213534 
L 207.27368 198.085722 
L 207.383215 198.085722 
L 207.435566 197.447379 
L 207.518159 197.447379 
L 207.619814 196.383473 
L 207.658601 196.383473 
L 207.742366 194.681224 
L 207.787315 194.681224 
L 207.817223 194.04288 
L 207.959695 194.04288 
L 208.027362 192.978974 
L 208.103198 192.978974 
L 208.168258 192.340631 
L 208.224739 192.340631 
L 208.322657 191.276725 
L 208.339273 191.276725 
L 208.36417 190.851162 
L 208.453113 190.851162 
L 208.539584 190.4256 
L 208.566269 190.4256 
L 208.66651 189.787256 
L 208.891631 189.787256 
L 208.891631 189.574475 
L 209.255015 189.574475 
L 209.312274 189.148913 
L 209.769952 189.148913 
L 209.769952 188.936132 
L 212.004224 188.936132 
L 212.055411 188.510569 
L 212.126841 188.510569 
L 212.199692 188.085007 
L 212.252038 188.085007 
L 212.312644 187.233882 
L 212.413223 187.233882 
L 212.518255 185.957195 
L 212.533212 185.957195 
L 212.642534 185.106071 
L 212.678834 185.106071 
L 212.788954 183.616602 
L 212.815156 183.616602 
L 212.898433 181.276009 
L 212.927737 181.276009 
L 212.989451 180.424885 
L 213.213487 180.424885 
L 213.318937 179.57376 
L 213.371441 179.57376 
L 213.480751 177.658729 
L 213.572146 177.658729 
L 213.572146 177.445948 
L 213.776953 177.445948 
L 213.868471 176.382042 
L 213.910204 176.382042 
L 213.910204 176.169261 
L 214.161723 176.169261 
L 214.161723 175.95648 
L 214.541768 175.95648 
L 214.564149 175.530918 
L 214.895248 175.530918 
L 214.895248 175.318136 
L 215.015011 175.318136 
L 215.015011 175.105355 
L 216.414608 175.105355 
L 216.43757 174.679793 
L 216.5533 174.679793 
L 216.5533 174.467012 
L 216.83955 174.467012 
L 216.901549 173.615887 
L 216.962032 173.615887 
L 217.061537 172.977544 
L 217.090243 172.977544 
L 217.186479 171.275294 
L 217.237001 171.275294 
L 217.335065 170.636951 
L 217.360787 170.636951 
L 217.423657 170.211388 
L 217.476101 170.211388 
L 217.560218 169.147482 
L 217.69327 169.147482 
L 217.788991 168.296358 
L 217.847943 168.296358 
L 217.941636 167.658014 
L 218.058409 167.658014 
L 218.11529 167.232452 
L 218.213806 167.232452 
L 218.300808 166.806889 
L 218.348428 166.806889 
L 218.410518 166.381327 
L 219.530001 166.381327 
L 219.530001 166.168546 
L 220.258948 166.168546 
L 220.258948 165.955765 
L 220.536719 165.955765 
L 220.536719 165.742984 
L 220.663302 165.742984 
L 220.736482 164.679078 
L 220.881994 164.679078 
L 220.974492 164.253515 
L 221.0084 164.253515 
L 221.104493 163.827953 
L 221.246151 163.827953 
L 221.288963 163.402391 
L 221.430278 163.402391 
L 221.522186 162.764047 
L 221.723019 162.764047 
L 221.79829 162.338485 
L 221.836826 162.338485 
L 221.846954 161.912922 
L 222.283311 161.912922 
L 222.283311 161.700141 
L 223.471703 161.700141 
L 223.471703 161.48736 
L 223.68319 161.48736 
L 223.732716 160.849016 
L 224.167308 160.849016 
L 224.167308 160.636235 
L 224.279744 160.636235 
L 224.327726 159.997892 
L 224.472703 159.997892 
L 224.472703 159.785111 
L 224.638406 159.785111 
L 224.638406 159.572329 
L 225.133736 159.572329 
L 225.133736 159.359548 
L 226.313447 159.359548 
L 226.313447 159.146767 
L 226.916154 159.146767 
L 226.949378 158.721205 
L 227.067121 158.721205 
L 227.067121 158.508424 
L 229.001723 158.508424 
L 229.09287 158.082861 
L 229.418611 158.082861 
L 229.418611 157.87008 
L 231.369301 157.87008 
L 231.369301 157.657299 
L 233.659837 157.657299 
L 233.761688 155.742268 
L 233.775657 155.742268 
L 233.882226 153.827238 
L 233.904108 153.827238 
L 233.94673 152.550551 
L 234.031158 152.550551 
L 234.103072 151.699426 
L 234.182073 151.699426 
L 234.182073 151.486645 
L 234.399967 151.486645 
L 234.399967 151.273864 
L 234.736186 151.273864 
L 234.736186 151.061082 
L 235.221802 151.061082 
L 235.297241 149.997176 
L 235.35461 149.997176 
L 235.457042 147.231021 
L 235.467844 147.231021 
L 235.578449 142.549835 
L 235.579425 142.549835 
L 235.681614 140.847586 
L 235.710709 140.847586 
L 235.787112 139.358118 
L 235.871856 139.358118 
L 235.957654 138.719774 
L 235.985848 138.719774 
L 236.053533 138.081431 
L 236.10817 138.081431 
L 236.10817 137.868649 
L 236.757688 137.868649 
L 236.84776 136.591962 
L 236.874653 136.591962 
L 236.965074 134.464151 
L 236.992252 134.464151 
L 237.096522 131.485214 
L 237.114968 131.485214 
L 237.221692 129.144621 
L 237.235101 129.144621 
L 237.341592 127.229591 
L 237.399706 127.229591 
L 237.506593 126.378466 
L 237.625572 126.378466 
L 237.625572 126.165685 
L 237.810226 126.165685 
L 237.810226 125.952904 
L 238.023105 125.952904 
L 238.132056 125.31456 
L 238.160153 125.31456 
L 238.250967 123.825092 
L 238.283536 123.825092 
L 238.383008 121.484499 
L 238.42416 121.484499 
L 238.529151 119.995031 
L 238.556661 119.995031 
L 238.664645 119.143906 
L 238.672512 119.143906 
L 238.706013 118.718344 
L 238.786419 118.718344 
L 238.798348 118.292781 
L 238.999984 118.292781 
L 239.065368 117.867219 
L 239.273803 117.867219 
L 239.273803 117.654438 
L 239.41918 117.654438 
L 239.492243 117.016094 
L 239.563838 117.016094 
L 239.640274 116.590532 
L 239.697202 116.590532 
L 239.799241 114.888282 
L 239.867737 114.888282 
L 239.966152 114.249939 
L 240.142701 114.249939 
L 240.226356 113.611595 
L 240.303189 113.611595 
L 240.303189 113.398814 
L 240.549441 113.398814 
L 240.630938 112.547689 
L 240.682345 112.547689 
L 240.682345 112.334908 
L 240.798057 112.334908 
L 240.882903 111.271002 
L 240.946105 111.271002 
L 241.037225 110.207096 
L 241.425627 110.207096 
L 241.425627 109.994315 
L 241.788291 109.994315 
L 241.788291 109.781534 
L 242.050585 109.781534 
L 242.133767 109.355972 
L 242.221039 109.355972 
L 242.236116 108.930409 
L 242.351192 108.930409 
L 242.351192 108.717628 
L 242.670515 108.717628 
L 242.670515 108.504847 
L 242.795611 108.504847 
L 242.795611 108.292066 
L 242.963758 108.292066 
L 242.963758 108.079285 
L 243.081687 108.079285 
L 243.081687 107.866504 
L 243.252826 107.866504 
L 243.265477 107.440941 
L 243.613435 107.440941 
L 243.613435 107.22816 
L 243.807256 107.22816 
L 243.807256 107.015379 
L 243.974134 107.015379 
L 243.974134 106.802598 
L 244.215233 106.802598 
L 244.215233 106.589816 
L 245.377029 106.589816 
L 245.476762 104.674786 
L 245.519097 104.674786 
L 245.576543 103.61088 
L 245.652104 103.61088 
L 245.680647 103.185318 
L 246.200188 103.185318 
L 246.200188 102.972536 
L 246.315802 102.972536 
L 246.426324 101.270287 
L 246.43482 101.270287 
L 246.509201 100.419162 
L 246.556629 100.419162 
L 246.656274 98.929694 
L 246.682523 98.929694 
L 246.710085 98.291351 
L 246.835496 98.291351 
L 246.835496 98.078569 
L 246.995482 98.078569 
L 246.995482 97.865788 
L 247.132217 97.865788 
L 247.215202 97.014664 
L 247.256165 97.014664 
L 247.353748 94.461289 
L 247.370701 94.461289 
L 247.479101 92.546259 
L 247.495165 92.546259 
L 247.564187 92.120696 
L 247.641696 92.120696 
L 247.641696 91.907915 
L 247.899212 91.907915 
L 248.010162 90.205666 
L 248.027038 90.205666 
L 248.127225 88.716198 
L 248.14975 88.716198 
L 248.207939 87.865073 
L 248.40045 87.865073 
L 248.40045 87.652292 
L 248.697966 87.652292 
L 248.794651 85.950042 
L 248.811079 85.950042 
L 248.852569 85.098918 
L 248.948465 85.098918 
L 249.043159 84.247793 
L 249.164652 84.247793 
L 249.164652 84.035012 
L 249.451114 84.035012 
L 249.551445 82.332762 
L 249.56653 82.332762 
L 249.672478 80.630513 
L 249.737187 80.630513 
L 249.842867 79.992169 
L 249.962045 79.992169 
L 249.962045 79.779388 
L 250.091531 79.779388 
L 250.091531 79.566607 
L 250.20601 79.566607 
L 250.302851 78.502701 
L 250.388096 78.502701 
L 250.416499 78.077139 
L 250.856767 78.077139 
L 250.948599 77.226014 
L 251.017018 77.226014 
L 251.125804 76.587671 
L 251.557477 76.587671 
L 251.557477 76.374889 
L 251.772853 76.374889 
L 251.772853 76.162108 
L 252.546669 76.162108 
L 252.57674 75.523765 
L 252.68338 75.523765 
L 252.706364 75.098202 
L 252.863741 75.098202 
L 252.863741 74.885421 
L 252.994503 74.885421 
L 252.994503 74.67264 
L 253.208273 74.67264 
L 253.296378 73.821515 
L 253.354317 73.821515 
L 253.368348 73.395953 
L 253.506575 73.395953 
L 253.506575 73.183172 
L 253.739926 73.183172 
L 253.850167 72.332047 
L 253.858109 72.332047 
L 253.89777 71.906485 
L 254.000863 71.906485 
L 254.000863 71.693704 
L 254.333643 71.693704 
L 254.417181 69.778673 
L 254.469092 69.778673 
L 254.546692 68.927548 
L 254.620073 68.927548 
L 254.652496 68.289205 
L 254.893995 68.289205 
L 254.96708 66.799736 
L 255.038148 66.799736 
L 255.143473 65.948612 
L 255.216112 65.948612 
L 255.324549 65.310268 
L 255.420811 65.310268 
L 255.531625 64.246362 
L 255.557286 64.246362 
L 255.665121 62.544113 
L 256.030593 62.544113 
L 256.118733 61.480207 
L 256.145242 61.480207 
L 256.16175 61.054645 
L 256.624575 61.054645 
L 256.719818 59.990739 
L 256.953566 59.990739 
L 257.044356 58.714052 
L 257.117015 58.714052 
L 257.163699 58.288489 
L 257.44765 58.288489 
L 257.44765 58.075708 
L 257.669866 58.075708 
L 257.669866 57.862927 
L 257.996935 57.862927 
L 258.063208 57.437365 
L 258.122183 57.437365 
L 258.225973 57.011802 
L 258.476829 57.011802 
L 258.476829 56.799021 
L 258.59922 56.799021 
L 258.600368 56.373459 
L 258.754442 56.373459 
L 258.862879 54.883991 
L 258.915594 54.883991 
L 258.950138 54.458428 
L 259.072857 54.458428 
L 259.175164 53.181741 
L 259.302374 53.181741 
L 259.327796 52.756179 
L 259.432437 52.756179 
L 259.432437 52.543398 
L 259.606826 52.543398 
L 259.663603 52.117835 
L 259.801167 52.117835 
L 259.857093 51.479492 
L 259.960708 51.479492 
L 259.960708 51.266711 
L 260.0761 51.266711 
L 260.0761 51.053929 
L 260.247147 51.053929 
L 260.318407 50.628367 
L 260.492856 50.628367 
L 260.554659 49.990024 
L 260.715915 49.990024 
L 260.796793 49.564461 
L 260.832132 49.564461 
L 260.832132 49.35168 
L 260.94903 49.35168 
L 260.94903 49.138899 
L 261.264809 49.138899 
L 261.345848 48.074993 
L 261.383142 48.074993 
L 261.386236 47.649431 
L 261.680327 47.649431 
L 261.73799 47.223868 
L 261.953567 47.223868 
L 262.033731 46.798306 
L 262.188298 46.798306 
L 262.188298 46.585525 
L 262.510001 46.585525 
L 262.510001 46.372744 
L 262.875297 46.372744 
L 262.971553 45.7344 
L 263.013596 45.7344 
L 263.013596 45.521619 
L 263.140178 45.521619 
L 263.140178 45.096056 
L 263.301158 45.096056 
L 263.403605 43.181026 
L 263.43604 43.181026 
L 263.43604 42.968245 
L 263.591217 42.968245 
L 263.668986 42.11712 
L 263.74567 42.11712 
L 263.855067 41.478776 
L 263.961458 41.478776 
L 264.029651 41.053214 
L 264.131318 41.053214 
L 264.1796 40.627652 
L 264.359032 40.627652 
L 264.359032 40.414871 
L 264.650415 40.414871 
L 264.650415 40.202089 
L 264.799438 40.202089 
L 264.799438 39.989308 
L 265.332696 39.989308 
L 265.343429 39.563746 
L 265.486088 39.563746 
L 265.549477 39.138184 
L 265.684581 39.138184 
L 265.684581 38.925402 
L 266.012108 38.925402 
L 266.012108 38.712621 
L 266.162096 38.712621 
L 266.185604 38.287059 
L 266.411123 38.287059 
L 266.411123 38.074278 
L 266.529939 38.074278 
L 266.606704 37.648715 
L 266.722338 37.648715 
L 266.822811 37.010372 
L 266.973762 37.010372 
L 266.973762 36.797591 
L 267.160423 36.797591 
L 267.181079 36.372028 
L 267.328563 36.372028 
L 267.328563 36.159247 
L 267.481881 36.159247 
L 267.481881 35.946466 
L 267.598858 35.946466 
L 267.684234 35.308122 
L 267.771428 35.308122 
L 267.842158 34.669779 
L 267.8875 34.669779 
L 267.8875 34.456998 
L 268.587264 34.456998 
L 268.587264 34.244216 
L 269.020181 34.244216 
L 269.020181 34.031435 
L 269.589079 34.031435 
L 269.672913 33.393092 
L 269.847127 33.393092 
L 269.847127 33.180311 
L 270.257088 33.180311 
L 270.257088 32.967529 
L 270.409613 32.967529 
L 270.409613 32.754748 
L 270.620544 32.754748 
L 270.682935 32.116405 
L 270.82127 32.116405 
L 270.82127 31.903624 
L 271.039147 31.903624 
L 271.039147 31.690842 
L 271.668295 31.690842 
L 271.668295 31.478061 
L 271.856569 31.478061 
L 271.856569 31.26528 
L 272.056177 31.26528 
L 272.056177 31.052499 
L 272.98773 31.052499 
L 272.98773 30.839718 
L 273.15795 30.839718 
L 273.15795 30.626936 
L 273.588917 30.626936 
L 273.682553 30.201374 
L 274.594814 30.201374 
L 274.625267 29.775812 
L 275.678254 29.775812 
L 275.678254 29.563031 
L 276.048968 29.563031 
L 276.048968 29.350249 
L 277.185995 29.350249 
L 277.185995 29.137468 
L 277.440162 29.137468 
L 277.440162 28.924687 
L 278.677907 28.924687 
L 278.677907 28.711906 
L 279.01864 28.711906 
L 279.01864 28.499125 
L 279.599688 28.499125 
L 279.599688 28.286344 
L 283.561289 28.286344 
L 283.561289 28.073562 
L 284.629068 28.073562 
L 284.629068 27.860781 
L 286.188683 27.860781 
L 286.188683 27.648 
L 360.8064 27.648 
L 360.8064 27.648 
" style="fill: none; stroke: #000080; stroke-width: 1.5; stroke-linecap: square"/>
   </g>
   <g id="line2d_36">
    <defs>
     <path id="m00d6bbb0e2" d="M 0 6 
C 1.591219 6 3.117479 5.367802 4.242641 4.242641 
C 5.367802 3.117479 6 1.591219 6 0 
C 6 -1.591219 5.367802 -3.117479 4.242641 -4.242641 
C 3.117479 -5.367802 1.591219 -6 0 -6 
C -1.591219 -6 -3.117479 -5.367802 -4.242641 -4.242641 
C -5.367802 -3.117479 -6 -1.591219 -6 0 
C -6 1.591219 -5.367802 3.117479 -4.242641 4.242641 
C -3.117479 5.367802 -1.591219 6 0 6 
z
" style="stroke: #000080; stroke-width: 1.5"/>
    </defs>
    <g>
     <use xlink:href="#m00d6bbb0e2" x="117.899543" y="275.750852" style="fill-opacity: 0; stroke: #000080; stroke-width: 1.5"/>
     <use xlink:href="#m00d6bbb0e2" x="206.90986" y="206.384188" style="fill-opacity: 0; stroke: #000080; stroke-width: 1.5"/>
     <use xlink:href="#m00d6bbb0e2" x="248.833524" y="85.737261" style="fill-opacity: 0; stroke: #000080; stroke-width: 1.5"/>
     <use xlink:href="#m00d6bbb0e2" x="283.561289" y="28.073562" style="fill-opacity: 0; stroke: #000080; stroke-width: 1.5"/>
     <use xlink:href="#m00d6bbb0e2" x="286.188683" y="27.648" style="fill-opacity: 0; stroke: #000080; stroke-width: 1.5"/>
     <use xlink:href="#m00d6bbb0e2" x="360.8064" y="27.648" style="fill-opacity: 0; stroke: #000080; stroke-width: 1.5"/>
    </g>
   </g>
   <g id="line2d_37">
    <path style="fill: none; stroke: #000080; stroke-width: 1.5; stroke-linecap: square"/>
    <g/>
   </g>
   <g id="line2d_38">
    <path d="M 144.417581 262.7712 
" clip-path="url(#p950433b598)" style="fill: none; stroke: #000080; stroke-width: 1.5; stroke-linecap: square"/>
    <defs>
     <path id="mfdb08c848f" d="M -12 12 
L 12 -12 
M -12 -12 
L 12 12 
" style="stroke: #000080"/>
    </defs>
    <g clip-path="url(#p950433b598)">
     <use xlink:href="#mfdb08c848f" x="144.417581" y="262.7712" style="fill: #000080; stroke: #000080"/>
    </g>
   </g>
   <g id="line2d_39">
    <defs>
     <path id="me1b1f54e05" d="M 0 1.5 
C 0.397805 1.5 0.77937 1.341951 1.06066 1.06066 
C 1.341951 0.77937 1.5 0.397805 1.5 0 
C 1.5 -0.397805 1.341951 -0.77937 1.06066 -1.06066 
C 0.77937 -1.341951 0.397805 -1.5 0 -1.5 
C -0.397805 -1.5 -0.77937 -1.341951 -1.06066 -1.06066 
C -1.341951 -0.77937 -1.5 -0.397805 -1.5 0 
C -1.5 0.397805 -1.341951 0.77937 -1.06066 1.06066 
C -0.77937 1.341951 -0.397805 1.5 0 1.5 
z
" style="stroke: #ff00ff"/>
    </defs>
    <g>
     <use xlink:href="#me1b1f54e05" x="296.378751" y="27.648" style="fill: #ff00ff; stroke: #ff00ff"/>
     <use xlink:href="#me1b1f54e05" x="296.378751" y="27.648" style="fill: #ff00ff; stroke: #ff00ff"/>
    </g>
   </g>
   <g id="line2d_40">
    <path d="M 36.933397 298.944 
L 36.933397 292.560565 
L 49.972572 292.560565 
L 49.972572 290.007191 
L 57.6 290.007191 
L 57.6 289.794409 
L 63.011746 289.794409 
L 63.011746 288.943285 
L 67.209423 288.943285 
L 67.209423 288.09216 
L 70.639174 288.09216 
L 70.639174 287.879379 
L 73.538988 287.879379 
L 73.538988 287.453816 
L 78.266603 287.453816 
L 78.266603 287.028254 
L 80.248597 287.028254 
L 80.248597 286.815473 
L 83.678349 286.815473 
L 83.678349 286.602692 
L 85.184077 286.602692 
L 85.184077 286.389911 
L 90.230539 286.389911 
L 90.230539 285.751567 
L 91.305777 285.751567 
L 91.305777 285.326005 
L 95.916911 285.326005 
L 95.916911 284.900442 
L 96.717523 284.900442 
L 96.717523 284.262099 
L 97.485448 284.262099 
L 97.485448 284.049318 
L 98.223251 284.049318 
L 98.223251 283.836536 
L 99.617337 283.836536 
L 99.617337 283.623755 
L 100.277459 283.623755 
L 100.277459 283.410974 
L 102.708132 283.410974 
L 102.708132 283.198193 
L 104.344952 283.198193 
L 104.344952 282.985412 
L 104.860369 282.985412 
L 104.860369 282.772631 
L 106.326946 282.772631 
L 106.326946 282.347068 
L 108.119879 282.347068 
L 108.119879 282.134287 
L 108.542628 282.134287 
L 108.542628 281.921506 
L 109.360651 281.921506 
L 109.360651 281.708725 
L 110.524623 281.708725 
L 110.524623 281.283162 
L 112.317555 281.283162 
L 112.317555 280.644819 
L 113.316634 280.644819 
L 113.316634 280.432038 
L 113.638206 280.432038 
L 113.638206 280.006475 
L 115.168444 280.006475 
L 115.168444 279.793694 
L 115.747307 279.793694 
L 115.747307 279.155351 
L 116.308887 279.155351 
L 116.308887 278.517007 
L 117.384126 278.517007 
L 117.384126 278.304226 
L 117.899543 278.304226 
L 117.899543 277.878664 
L 118.401214 277.878664 
L 118.401214 277.665882 
L 119.366121 277.665882 
L 119.366121 277.453101 
L 119.599808 277.453101 
L 119.599808 277.027539 
L 120.726585 277.027539 
L 120.726585 276.601976 
L 120.944062 276.601976 
L 120.944062 276.389195 
L 121.789667 276.389195 
L 121.789667 276.176414 
L 122.990812 276.176414 
L 122.990812 275.963633 
L 123.374735 275.963633 
L 123.374735 275.750852 
L 123.563797 275.750852 
L 123.563797 275.538071 
L 123.750979 275.538071 
L 123.750979 275.325289 
L 125.184934 275.325289 
L 125.184934 275.112508 
L 125.526971 275.112508 
L 125.526971 274.899727 
L 126.517282 274.899727 
L 126.517282 274.474165 
L 126.836129 274.474165 
L 126.836129 274.048602 
L 126.993549 274.048602 
L 126.993549 273.835821 
L 127.304491 273.835821 
L 127.304491 273.62304 
L 127.911368 273.62304 
L 127.911368 273.410259 
L 128.354013 273.410259 
L 128.354013 272.984696 
L 128.786481 272.984696 
L 128.786481 272.346353 
L 129.069367 272.346353 
L 129.069367 272.133572 
L 129.209231 272.133572 
L 129.209231 271.495228 
L 129.485876 271.495228 
L 129.485876 271.282447 
L 129.893363 271.282447 
L 129.893363 270.856885 
L 130.160198 270.856885 
L 130.160198 270.644104 
L 130.938718 270.644104 
L 130.938718 270.431322 
L 131.31622 270.431322 
L 131.31622 270.218541 
L 131.563744 270.218541 
L 131.563744 270.00576 
L 132.522502 270.00576 
L 132.522502 269.792979 
L 132.754746 269.792979 
L 132.754746 269.367416 
L 132.984158 269.367416 
L 132.984158 269.154635 
L 133.545739 269.154635 
L 133.656071 268.729073 
L 133.874812 268.729073 
L 133.983236 268.303511 
L 134.091039 268.303511 
L 134.198228 267.665167 
L 134.41079 267.665167 
L 134.41079 267.452386 
L 135.034434 267.452386 
L 135.034434 267.239605 
L 135.237805 267.239605 
L 135.338671 266.814042 
L 135.438999 266.814042 
L 135.438999 266.601261 
L 135.835047 266.601261 
L 135.835047 266.38848 
L 136.029987 266.38848 
L 136.029987 266.175699 
L 136.602972 266.175699 
L 136.696795 265.537355 
L 136.88305 265.537355 
L 136.88305 265.111793 
L 137.520791 265.111793 
L 137.520791 264.899012 
L 137.699101 264.899012 
L 137.699101 264.686231 
L 137.875736 264.686231 
L 137.875736 264.473449 
L 138.224108 264.473449 
L 138.224108 264.260668 
L 139.067817 264.260668 
L 139.067817 264.047887 
L 140.649551 264.047887 
L 140.649551 263.835106 
L 141.754265 263.835106 
L 141.754265 263.622325 
L 143.657415 263.622325 
L 143.657415 263.409544 
L 143.850356 263.409544 
L 143.850356 263.196762 
L 144.664294 263.196762 
L 144.664294 262.983981 
L 145.088405 262.983981 
L 145.088405 262.7712 
L 145.79392 262.7712 
L 145.79392 262.558419 
L 146.24998 262.558419 
L 146.24998 262.345638 
L 151.435079 262.345638 
L 151.435079 262.132856 
L 151.899585 262.132856 
L 151.982822 261.707294 
L 152.230346 261.707294 
L 152.230346 261.494513 
L 152.914478 261.494513 
L 152.914478 261.281732 
L 153.305585 261.281732 
L 153.344252 260.643388 
L 153.952355 260.643388 
L 153.952355 260.430607 
L 154.971412 260.430607 
L 154.971412 260.217826 
L 156.138926 260.217826 
L 156.138926 260.005045 
L 163.531835 260.005045 
L 163.531835 259.792264 
L 163.79962 259.792264 
L 163.79962 259.579482 
L 166.498953 259.579482 
L 166.498953 259.366701 
L 166.651893 259.366701 
L 166.651893 259.15392 
L 166.765788 259.15392 
L 166.765788 258.941139 
L 167.435044 258.941139 
L 167.435044 258.728358 
L 167.778892 258.728358 
L 167.832614 258.302795 
L 168.081306 258.302795 
L 168.081306 258.090014 
L 169.027674 258.090014 
L 169.027674 257.877233 
L 169.864611 257.877233 
L 169.864611 257.664452 
L 170.087991 257.664452 
L 170.087991 257.451671 
L 170.940741 257.451671 
L 170.940741 257.238889 
L 172.229507 257.238889 
L 172.229507 257.026108 
L 172.53836 257.026108 
L 172.53836 256.813327 
L 177.799823 256.813327 
L 177.799823 256.600546 
L 180.23528 256.600546 
L 180.23528 256.387765 
L 180.737195 256.387765 
L 180.737195 256.174984 
L 181.208509 256.174984 
L 181.208509 255.962202 
L 182.734492 255.962202 
L 182.799165 255.53664 
L 183.410524 255.53664 
L 183.410524 255.323859 
L 187.082191 255.323859 
L 187.082191 255.111078 
L 187.589442 255.111078 
L 187.589442 254.898296 
L 189.598943 254.898296 
L 189.598943 254.685515 
L 196.316422 254.685515 
L 196.347866 254.259953 
L 196.950753 254.259953 
L 196.950753 254.047172 
L 197.1249 254.047172 
L 197.1249 253.834391 
L 197.327298 253.834391 
L 197.401711 253.408828 
L 197.56439 253.408828 
L 197.56439 253.196047 
L 198.392592 253.196047 
L 198.392592 252.983266 
L 199.266745 252.983266 
L 199.266745 252.770485 
L 201.734068 252.770485 
L 201.734068 252.557704 
L 202.587451 252.557704 
L 202.587451 252.344922 
L 202.897746 252.344922 
L 202.897746 252.132141 
L 203.254764 252.132141 
L 203.254764 251.91936 
L 203.738171 251.91936 
L 203.75937 251.493798 
L 204.05889 251.493798 
L 204.079731 251.068235 
L 204.281729 251.068235 
L 204.281729 250.855454 
L 204.394727 250.855454 
L 204.394727 250.642673 
L 204.50705 250.642673 
L 204.50705 250.429892 
L 204.641464 250.429892 
L 204.641464 250.217111 
L 205.987113 250.217111 
L 205.987113 250.004329 
L 206.127743 250.004329 
L 206.127743 249.791548 
L 206.579943 249.791548 
L 206.661832 249.365986 
L 206.840291 249.365986 
L 206.840291 249.153205 
L 206.963544 249.153205 
L 207.030433 248.727642 
L 207.256095 248.727642 
L 207.256095 248.514861 
L 207.39195 248.514861 
L 207.39195 248.30208 
L 208.337197 248.30208 
L 208.337197 248.089299 
L 209.648344 248.089299 
L 209.648344 247.876518 
L 209.85442 247.876518 
L 209.862081 247.450955 
L 210.605405 247.450955 
L 210.605405 247.238174 
L 211.007817 247.238174 
L 211.061785 246.812612 
L 211.153177 246.812612 
L 211.153177 246.599831 
L 211.324015 246.599831 
L 211.324015 246.387049 
L 212.048594 246.387049 
L 212.048594 246.174268 
L 212.262152 246.174268 
L 212.262152 245.961487 
L 212.419909 245.961487 
L 212.46998 245.535925 
L 212.574697 245.535925 
L 212.675537 244.472019 
L 212.966738 244.472019 
L 212.966738 244.259238 
L 213.485489 244.259238 
L 213.562712 243.195332 
L 213.606697 243.195332 
L 213.711532 241.06752 
L 213.724011 241.06752 
L 213.829746 239.152489 
L 213.85299 239.152489 
L 213.954925 236.173553 
L 213.985706 236.173553 
L 214.086926 233.407398 
L 214.099158 233.407398 
L 214.198251 231.279586 
L 214.221044 231.279586 
L 214.280179 230.21568 
L 214.351197 230.21568 
L 214.448974 226.811181 
L 214.50291 226.811181 
L 214.605857 226.172838 
L 214.662312 226.172838 
L 214.705283 225.321713 
L 214.801241 225.321713 
L 214.90843 224.045026 
L 214.972743 224.045026 
L 215.064447 222.768339 
L 215.089116 222.768339 
L 215.089116 222.555558 
L 215.263772 222.555558 
L 215.372651 221.917214 
L 215.534796 221.917214 
L 215.534796 221.704433 
L 215.800574 221.704433 
L 215.834056 221.278871 
L 215.911951 221.278871 
L 215.911951 221.066089 
L 216.317048 221.066089 
L 216.317048 220.853308 
L 216.956781 220.853308 
L 217.002683 220.427746 
L 217.107185 220.427746 
L 217.107185 220.214965 
L 217.369781 220.214965 
L 217.369781 220.002184 
L 217.767622 220.002184 
L 217.877976 218.938278 
L 218.026182 218.938278 
L 218.101703 217.874372 
L 218.180614 217.874372 
L 218.287355 216.384904 
L 218.410518 216.384904 
L 218.499038 214.257092 
L 218.547365 214.257092 
L 218.646051 212.767624 
L 218.662848 212.767624 
L 218.748997 211.916499 
L 218.803831 211.916499 
L 218.894077 210.852593 
L 218.926034 210.852593 
L 219.008634 210.427031 
L 219.038047 210.427031 
L 219.140045 209.575906 
L 219.271704 209.575906 
L 219.271704 209.363125 
L 219.655557 209.363125 
L 219.655557 209.150344 
L 221.169683 209.150344 
L 221.169683 208.937562 
L 221.495383 208.937562 
L 221.577732 207.873656 
L 221.640282 207.873656 
L 221.723019 207.022532 
L 221.763744 207.022532 
L 221.849991 206.384188 
L 221.913661 206.384188 
L 221.950955 205.958626 
L 222.083403 205.958626 
L 222.132333 205.107501 
L 222.197044 205.107501 
L 222.269455 204.681939 
L 222.382966 204.681939 
L 222.416394 204.256376 
L 222.597253 204.256376 
L 222.682676 203.830814 
L 222.747455 203.830814 
L 222.747455 203.618033 
L 223.008172 203.618033 
L 223.062352 202.979689 
L 223.209843 202.979689 
L 223.209843 202.766908 
L 223.44754 202.766908 
L 223.44754 202.554127 
L 224.283302 202.554127 
L 224.283302 202.341346 
L 224.512288 202.341346 
L 224.568445 201.915784 
L 224.634914 201.915784 
L 224.634914 201.703002 
L 224.878654 201.703002 
L 224.878654 201.490221 
L 225.304697 201.490221 
L 225.36778 201.064659 
L 225.509988 201.064659 
L 225.509988 200.851878 
L 225.626299 200.851878 
L 225.626299 200.639096 
L 225.999418 200.639096 
L 226.051312 200.213534 
L 227.1261 200.213534 
L 227.1261 200.000753 
L 227.283743 200.000753 
L 227.382075 199.575191 
L 227.666593 199.575191 
L 227.666593 199.362409 
L 227.835998 199.362409 
L 227.921964 198.936847 
L 228.061464 198.936847 
L 228.061464 198.724066 
L 228.919172 198.724066 
L 228.919172 198.511285 
L 229.635356 198.511285 
L 229.635356 198.298504 
L 232.219514 198.298504 
L 232.219514 198.085722 
L 236.572537 198.085722 
L 236.572537 197.872941 
L 237.017583 197.872941 
L 237.017583 197.66016 
L 237.170647 197.66016 
L 237.273489 196.596254 
L 237.295772 196.596254 
L 237.402364 194.894005 
L 237.413875 194.894005 
L 237.494257 193.830099 
L 237.538717 193.830099 
L 237.64307 192.978974 
L 237.730751 192.978974 
L 237.827553 192.127849 
L 238.057354 192.127849 
L 238.168234 191.702287 
L 238.497005 191.702287 
L 238.570817 190.4256 
L 238.612392 190.4256 
L 238.717992 188.510569 
L 238.725837 188.510569 
L 238.826288 185.957195 
L 238.855828 185.957195 
L 238.964558 184.893289 
L 238.967818 184.893289 
L 239.064152 183.616602 
L 239.084007 183.616602 
L 239.157574 182.978259 
L 239.201495 182.978259 
L 239.222815 182.552696 
L 239.543692 182.552696 
L 239.565023 182.127134 
L 239.728537 182.127134 
L 239.836633 180.212104 
L 239.87201 180.212104 
L 239.956875 178.935416 
L 239.999357 178.935416 
L 240.09133 176.594824 
L 240.113583 176.594824 
L 240.214537 175.530918 
L 240.291419 175.530918 
L 240.378576 174.467012 
L 240.523947 174.467012 
L 240.587242 174.041449 
L 240.960406 174.041449 
L 241.037225 173.403106 
L 241.083531 173.403106 
L 241.181598 172.551981 
L 241.196808 172.551981 
L 241.296449 172.126419 
L 241.338888 172.126419 
L 241.433135 171.275294 
L 241.469917 171.275294 
L 241.469917 171.062513 
L 241.659822 171.062513 
L 241.659822 170.849732 
L 242.179171 170.849732 
L 242.277173 170.424169 
L 242.355277 170.424169 
L 242.415763 169.998607 
L 242.683564 169.998607 
L 242.683564 169.785826 
L 242.898069 169.785826 
L 242.898069 169.573045 
L 243.433352 169.573045 
L 243.438815 169.147482 
L 243.609933 169.147482 
L 243.609933 168.934701 
L 244.146043 168.934701 
L 244.250041 168.509139 
L 244.31333 168.509139 
L 244.31333 168.296358 
L 244.425252 168.296358 
L 244.503751 167.658014 
L 244.552571 167.658014 
L 244.618473 167.232452 
L 245.548991 167.232452 
L 245.649819 166.806889 
L 245.753235 166.806889 
L 245.753235 166.594108 
L 245.923779 166.594108 
L 245.923779 166.381327 
L 247.406644 166.381327 
L 247.499567 164.891859 
L 247.518459 164.891859 
L 247.609289 163.615172 
L 247.7025 163.615172 
L 247.784034 162.976828 
L 248.118207 162.976828 
L 248.227628 161.48736 
L 248.238585 161.48736 
L 248.348794 159.146767 
L 248.357949 159.146767 
L 248.426348 158.508424 
L 248.48934 158.508424 
L 248.48934 158.295642 
L 248.613475 158.295642 
L 248.613475 158.082861 
L 248.842205 158.082861 
L 248.912711 157.231736 
L 248.960687 157.231736 
L 249.014514 155.955049 
L 249.087235 155.955049 
L 249.183839 154.465581 
L 249.20206 154.465581 
L 249.297372 153.401675 
L 249.332637 153.401675 
L 249.344378 152.976113 
L 249.571401 152.976113 
L 249.670633 151.912207 
L 249.690462 151.912207 
L 249.773015 150.848301 
L 249.805111 150.848301 
L 249.851552 150.422739 
L 249.966815 150.422739 
L 250.03369 149.146052 
L 250.138172 149.146052 
L 250.138172 148.933271 
L 250.261537 148.933271 
L 250.338732 148.294927 
L 250.388762 148.294927 
L 250.464775 147.231021 
L 250.510721 147.231021 
L 250.621149 146.167115 
L 250.631017 146.167115 
L 250.690768 145.315991 
L 250.840731 145.315991 
L 250.840731 145.103209 
L 251.188051 145.103209 
L 251.285907 144.252085 
L 251.360706 144.252085 
L 251.40052 143.613741 
L 251.550172 143.613741 
L 251.570411 143.188179 
L 251.692427 143.188179 
L 251.741261 142.549835 
L 251.834438 142.549835 
L 251.901355 141.911492 
L 252.039769 141.911492 
L 252.039769 141.698711 
L 252.348827 141.698711 
L 252.456565 141.060367 
L 252.629249 141.060367 
L 252.629249 140.847586 
L 252.770255 140.847586 
L 252.770255 140.634805 
L 253.095539 140.634805 
L 253.095539 140.422024 
L 253.84444 140.422024 
L 253.903481 139.996461 
L 253.977207 139.996461 
L 253.985462 139.358118 
L 254.103394 139.358118 
L 254.185055 138.932555 
L 254.465159 138.932555 
L 254.552744 137.017525 
L 254.584218 137.017525 
L 254.647893 136.379181 
L 254.708177 136.379181 
L 254.727229 135.953619 
L 255.07938 135.953619 
L 255.190153 134.038588 
L 255.222296 134.038588 
L 255.326598 131.910776 
L 255.528077 131.910776 
L 255.638262 131.272433 
L 255.652536 131.272433 
L 255.732602 129.995746 
L 255.822646 129.995746 
L 255.906796 129.144621 
L 255.937243 129.144621 
L 256.043585 128.080715 
L 256.089071 128.080715 
L 256.195539 126.165685 
L 256.235127 126.165685 
L 256.308542 125.101779 
L 256.375374 125.101779 
L 256.375374 124.888998 
L 256.610223 124.888998 
L 256.705697 123.612311 
L 256.742801 123.612311 
L 256.820261 122.335624 
L 256.88373 122.335624 
L 256.918445 121.69728 
L 257.043264 121.69728 
L 257.077842 121.271718 
L 257.292446 121.271718 
L 257.34959 120.420593 
L 257.459853 120.420593 
L 257.459853 120.207812 
L 257.654931 120.207812 
L 257.654931 119.995031 
L 257.774524 119.995031 
L 257.774524 119.569468 
L 257.919122 119.569468 
L 257.919122 119.356687 
L 258.133662 119.356687 
L 258.200189 118.718344 
L 258.252306 118.718344 
L 258.348547 117.867219 
L 258.405041 117.867219 
L 258.405041 117.654438 
L 258.721105 117.654438 
L 258.771231 117.016094 
L 258.852545 117.016094 
L 258.88452 116.164969 
L 259.006542 116.164969 
L 259.006542 115.952188 
L 259.228955 115.952188 
L 259.330833 115.526626 
L 259.38487 115.526626 
L 259.386522 115.101064 
L 259.541961 115.101064 
L 259.587363 114.675501 
L 259.71196 114.675501 
L 259.784734 113.824376 
L 259.829017 113.824376 
L 259.932652 112.760471 
L 259.946552 112.760471 
L 259.946552 112.547689 
L 260.072517 112.547689 
L 260.174163 111.696565 
L 260.18406 111.696565 
L 260.290749 110.632659 
L 260.302813 110.632659 
L 260.405964 110.207096 
L 260.421213 110.207096 
L 260.528252 109.355972 
L 260.603361 109.355972 
L 260.640739 108.292066 
L 260.72835 108.292066 
L 260.74526 107.866504 
L 260.842454 107.866504 
L 260.928625 107.015379 
L 261.031185 107.015379 
L 261.124155 106.164254 
L 261.218166 106.164254 
L 261.320281 105.525911 
L 261.345848 105.525911 
L 261.428885 104.674786 
L 261.462194 104.674786 
L 261.509344 104.036442 
L 261.761176 104.036442 
L 261.761176 103.823661 
L 261.940954 103.823661 
L 261.940954 103.61088 
L 262.172874 103.61088 
L 262.172874 103.398099 
L 262.496473 103.398099 
L 262.60698 102.334193 
L 262.681872 102.334193 
L 262.681872 102.121412 
L 262.822283 102.121412 
L 262.861342 101.695849 
L 263.043083 101.695849 
L 263.12529 100.844725 
L 263.323613 100.844725 
L 263.423495 100.206381 
L 263.476062 100.206381 
L 263.498419 99.780819 
L 263.837585 99.780819 
L 263.910773 98.716913 
L 263.993808 98.716913 
L 264.101775 97.653007 
L 264.126826 97.653007 
L 264.157931 97.014664 
L 264.313751 97.014664 
L 264.418745 96.163539 
L 264.43759 96.163539 
L 264.532686 94.674071 
L 264.567204 94.674071 
L 264.640944 94.248508 
L 264.683056 94.248508 
L 264.783638 93.610165 
L 264.799438 93.610165 
L 264.856537 92.971821 
L 264.911206 92.971821 
L 265.011701 92.546259 
L 265.037404 92.546259 
L 265.037404 92.333478 
L 265.360469 92.333478 
L 265.4062 91.907915 
L 265.47195 91.907915 
L 265.513934 91.269572 
L 265.702495 91.269572 
L 265.796806 89.992885 
L 265.867547 89.992885 
L 265.867547 89.780104 
L 266.193657 89.780104 
L 266.27333 89.14176 
L 266.320421 89.14176 
L 266.414723 88.290635 
L 266.499315 88.290635 
L 266.552146 87.439511 
L 266.690066 87.439511 
L 266.713483 87.013948 
L 266.848841 87.013948 
L 266.848841 86.801167 
L 266.975877 86.801167 
L 267.050664 85.52448 
L 267.099961 85.52448 
L 267.131538 84.673355 
L 267.280404 84.673355 
L 267.370026 83.822231 
L 267.542825 83.822231 
L 267.649758 83.396668 
L 267.689723 83.396668 
L 267.783059 82.119981 
L 267.884959 82.119981 
L 267.951598 81.694419 
L 268.022438 81.694419 
L 268.100202 80.630513 
L 268.16522 80.630513 
L 268.221154 79.566607 
L 268.277522 79.566607 
L 268.341761 78.928264 
L 268.404673 78.928264 
L 268.462024 78.077139 
L 268.569617 78.077139 
L 268.642547 77.438795 
L 268.687681 77.438795 
L 268.694816 76.800452 
L 268.874375 76.800452 
L 268.958718 76.162108 
L 269.124555 76.162108 
L 269.23455 75.736546 
L 269.24311 75.736546 
L 269.350553 74.885421 
L 269.506638 74.885421 
L 269.564016 74.459859 
L 269.664387 74.459859 
L 269.664387 74.247078 
L 269.841522 74.247078 
L 269.917479 73.395953 
L 269.954088 73.395953 
L 269.976912 72.970391 
L 270.089998 72.970391 
L 270.168065 71.906485 
L 270.205816 71.906485 
L 270.217815 71.480922 
L 270.331698 71.480922 
L 270.435946 70.629798 
L 270.47637 70.629798 
L 270.57109 69.565892 
L 270.648551 69.565892 
L 270.686861 68.927548 
L 270.787288 68.927548 
L 270.872015 68.289205 
L 271.109838 68.289205 
L 271.216847 67.650861 
L 271.255995 67.650861 
L 271.318945 67.012518 
L 271.402551 67.012518 
L 271.507262 66.374174 
L 271.79198 66.374174 
L 271.89625 65.735831 
L 271.948557 65.735831 
L 272.017677 65.097487 
L 272.104752 65.097487 
L 272.169953 64.459144 
L 272.300857 64.459144 
L 272.338368 63.8208 
L 272.423838 63.8208 
L 272.534187 62.544113 
L 272.575947 62.544113 
L 272.620953 61.905769 
L 272.783978 61.905769 
L 272.890226 61.267426 
L 272.921957 61.267426 
L 272.97704 60.629082 
L 273.132449 60.629082 
L 273.167546 59.990739 
L 273.310564 59.990739 
L 273.36688 59.352395 
L 273.433858 59.352395 
L 273.460452 58.926833 
L 273.572413 58.926833 
L 273.676244 58.501271 
L 273.785267 58.501271 
L 273.785267 58.288489 
L 274.088133 58.288489 
L 274.088133 58.075708 
L 274.238726 58.075708 
L 274.340134 57.437365 
L 274.387627 57.437365 
L 274.479971 56.58624 
L 274.510426 56.58624 
L 274.613447 55.735115 
L 274.673329 55.735115 
L 274.673329 55.522334 
L 274.813266 55.522334 
L 274.855529 55.096772 
L 274.927846 55.096772 
L 274.927846 54.883991 
L 275.100387 54.883991 
L 275.166476 54.245647 
L 275.268283 54.245647 
L 275.268283 54.032866 
L 275.432348 54.032866 
L 275.451929 53.394522 
L 275.581907 53.394522 
L 275.630839 52.756179 
L 275.717927 52.756179 
L 275.750596 52.330616 
L 275.863578 52.330616 
L 275.923273 51.692273 
L 276.050273 51.692273 
L 276.129851 51.053929 
L 276.181889 51.053929 
L 276.203239 50.628367 
L 276.299097 50.628367 
L 276.371661 49.777242 
L 276.461003 49.777242 
L 276.511914 49.35168 
L 276.613268 49.35168 
L 276.717092 48.713336 
L 276.742493 48.713336 
L 276.742493 48.500555 
L 276.857357 48.500555 
L 276.966605 48.074993 
L 276.98233 48.074993 
L 276.98233 47.862212 
L 277.478974 47.862212 
L 277.548393 47.436649 
L 277.619228 47.436649 
L 277.708776 47.011087 
L 277.825395 47.011087 
L 277.873779 46.585525 
L 278.003202 46.585525 
L 278.003202 46.372744 
L 278.210641 46.372744 
L 278.270154 45.947181 
L 278.512668 45.947181 
L 278.512668 45.7344 
L 278.710702 45.7344 
L 278.762761 45.308838 
L 278.87158 45.308838 
L 278.919152 44.883275 
L 279.006954 44.883275 
L 279.006954 44.670494 
L 279.124016 44.670494 
L 279.1933 44.032151 
L 279.289632 44.032151 
L 279.314414 43.393807 
L 279.412313 43.393807 
L 279.412313 43.181026 
L 279.632277 43.181026 
L 279.640486 42.755464 
L 279.765473 42.755464 
L 279.765473 42.542682 
L 280.041651 42.542682 
L 280.100916 42.11712 
L 280.226119 42.11712 
L 280.315236 41.265995 
L 280.629002 41.265995 
L 280.639634 40.840433 
L 280.740756 40.840433 
L 280.740756 40.627652 
L 281.043165 40.627652 
L 281.107389 40.202089 
L 281.165558 40.202089 
L 281.165558 39.989308 
L 281.296308 39.989308 
L 281.344217 39.350965 
L 281.414979 39.350965 
L 281.422189 38.925402 
L 281.654353 38.925402 
L 281.765139 38.49984 
L 281.807023 38.49984 
L 281.807023 38.287059 
L 281.948967 38.287059 
L 281.948967 38.074278 
L 282.155566 38.074278 
L 282.155566 37.861496 
L 282.277679 37.861496 
L 282.371282 37.010372 
L 282.434652 37.010372 
L 282.434652 36.797591 
L 282.696945 36.797591 
L 282.696945 36.584809 
L 283.007345 36.584809 
L 283.009227 36.159247 
L 283.458781 36.159247 
L 283.545596 35.733685 
L 283.782262 35.733685 
L 283.814258 35.095341 
L 283.973312 35.095341 
L 284.06513 34.456998 
L 284.114625 34.456998 
L 284.114625 34.244216 
L 284.373222 34.244216 
L 284.392393 33.818654 
L 284.507663 33.818654 
L 284.596916 33.393092 
L 284.624067 33.393092 
L 284.624067 33.180311 
L 285.037641 33.180311 
L 285.037641 32.967529 
L 285.486846 32.967529 
L 285.486846 32.754748 
L 285.715758 32.754748 
L 285.715758 32.541967 
L 285.911701 32.541967 
L 285.911701 32.329186 
L 286.239737 32.329186 
L 286.239737 32.116405 
L 286.358469 32.116405 
L 286.358469 31.903624 
L 286.587323 31.903624 
L 286.587323 31.690842 
L 287.003867 31.690842 
L 287.003867 31.478061 
L 287.195161 31.478061 
L 287.195161 31.26528 
L 287.534256 31.26528 
L 287.558161 30.839718 
L 287.714549 30.839718 
L 287.714549 30.626936 
L 287.86041 30.626936 
L 287.896397 30.201374 
L 288.011341 30.201374 
L 288.011341 29.988593 
L 288.604985 29.988593 
L 288.604985 29.775812 
L 289.009389 29.775812 
L 289.009389 29.563031 
L 289.543527 29.563031 
L 289.543527 29.350249 
L 290.041884 29.350249 
L 290.041884 29.137468 
L 290.412956 29.137468 
L 290.412956 28.924687 
L 290.561395 28.924687 
L 290.561395 28.711906 
L 290.815285 28.711906 
L 290.815285 28.499125 
L 291.184351 28.499125 
L 291.184351 28.286344 
L 291.418795 28.286344 
L 291.418795 28.073562 
L 291.581547 28.073562 
L 291.581547 27.860781 
L 296.378751 27.860781 
L 296.378751 27.648 
L 360.8064 27.648 
L 360.8064 27.648 
" style="fill: none; stroke: #ff00ff; stroke-width: 1.5; stroke-linecap: square"/>
   </g>
   <g id="line2d_41">
    <defs>
     <path id="m124bb12520" d="M -0 8.485281 
L 5.091169 0 
L 0 -8.485281 
L -5.091169 -0 
z
" style="stroke: #ff00ff; stroke-width: 1.5; stroke-linejoin: miter"/>
    </defs>
    <g>
     <use xlink:href="#m124bb12520" x="137.875736" y="264.473449" style="fill-opacity: 0; stroke: #ff00ff; stroke-width: 1.5; stroke-linejoin: miter"/>
     <use xlink:href="#m124bb12520" x="227.382075" y="199.787972" style="fill-opacity: 0; stroke: #ff00ff; stroke-width: 1.5; stroke-linejoin: miter"/>
     <use xlink:href="#m124bb12520" x="270.168065" y="72.119266" style="fill-opacity: 0; stroke: #ff00ff; stroke-width: 1.5; stroke-linejoin: miter"/>
     <use xlink:href="#m124bb12520" x="296.378751" y="27.648" style="fill-opacity: 0; stroke: #ff00ff; stroke-width: 1.5; stroke-linejoin: miter"/>
     <use xlink:href="#m124bb12520" x="296.378751" y="27.648" style="fill-opacity: 0; stroke: #ff00ff; stroke-width: 1.5; stroke-linejoin: miter"/>
     <use xlink:href="#m124bb12520" x="360.8064" y="27.648" style="fill-opacity: 0; stroke: #ff00ff; stroke-width: 1.5; stroke-linejoin: miter"/>
    </g>
   </g>
   <g id="line2d_42">
    <path style="fill: none; stroke: #ff00ff; stroke-width: 1.5; stroke-linecap: square"/>
    <g/>
   </g>
   <g id="line2d_43">
    <path d="M 144.355394 263.196762 
" clip-path="url(#p950433b598)" style="fill: none; stroke: #ff00ff; stroke-width: 1.5; stroke-linecap: square"/>
    <defs>
     <path id="m0f92dc8812" d="M -12 12 
L 12 -12 
M -12 -12 
L 12 12 
" style="stroke: #ff00ff"/>
    </defs>
    <g clip-path="url(#p950433b598)">
     <use xlink:href="#m0f92dc8812" x="144.355394" y="263.196762" style="fill: #ff00ff; stroke: #ff00ff"/>
    </g>
   </g>
   <g id="line2d_44">
    <path d="M 360.8064 27.648 
L 380.514816 293.51808 
" style="fill: none; stroke: #ff00ff; stroke-width: 1.5; stroke-linecap: square"/>
    <g>
     <use xlink:href="#m124bb12520" x="360.8064" y="27.648" style="fill-opacity: 0; stroke: #ff00ff; stroke-width: 1.5; stroke-linejoin: miter"/>
     <use xlink:href="#m124bb12520" x="380.514816" y="293.51808" style="fill-opacity: 0; stroke: #ff00ff; stroke-width: 1.5; stroke-linejoin: miter"/>
    </g>
   </g>
   <g id="line2d_45">
    <path d="M 360.8064 27.648 
L 380.514816 163.296 
" style="fill: none; stroke: #000080; stroke-width: 1.5; stroke-linecap: square"/>
    <g>
     <use xlink:href="#m00d6bbb0e2" x="360.8064" y="27.648" style="fill-opacity: 0; stroke: #000080; stroke-width: 1.5"/>
     <use xlink:href="#m00d6bbb0e2" x="380.514816" y="163.296" style="fill-opacity: 0; stroke: #000080; stroke-width: 1.5"/>
    </g>
   </g>
   <g id="line2d_46">
    <path d="M 360.8064 298.944 
L 360.8064 27.648 
" style="fill: none; stroke: #000000; stroke-width: 1.5; stroke-linecap: square"/>
   </g>
   <g id="patch_3">
    <path d="M 57.6 298.944 
L 360.8064 298.944 
" style="fill: none; stroke: #000000; stroke-width: 0.8; stroke-linejoin: miter; stroke-linecap: square"/>
   </g>
   <g id="patch_4">
    <path d="M 57.6 27.648 
L 360.8064 27.648 
" style="fill: none; stroke: #000000; stroke-width: 0.8; stroke-linejoin: miter; stroke-linecap: square"/>
   </g>
   <g id="text_13">
    <!-- ex -->
    <g transform="translate(386.578944 297.381205)scale(0.14 -0.14)">
     <defs>
      <path id="DejaVuSans-78" d="M 3513 3500 
L 2247 1797 
L 3578 0 
L 2900 0 
L 1881 1375 
L 863 0 
L 184 0 
L 1544 1831 
L 300 3500 
L 978 3500 
L 1906 2253 
L 2834 3500 
L 3513 3500 
z
" transform="scale(0.015625)"/>
     </defs>
     <use xlink:href="#DejaVuSans-65"/>
     <use xlink:href="#DejaVuSans-78" x="59.773438"/>
    </g>
   </g>
   <g id="text_14">
    <!-- ex -->
    <g transform="translate(386.578944 167.159125)scale(0.14 -0.14)">
     <use xlink:href="#DejaVuSans-65"/>
     <use xlink:href="#DejaVuSans-78" x="59.773438"/>
    </g>
   </g>
   <g id="text_15">
    <!-- best 2009 -->
    <g transform="translate(386.578944 36.937045)scale(0.14 -0.14)">
     <defs>
      <path id="DejaVuSans-62" d="M 3116 1747 
Q 3116 2381 2855 2742 
Q 2594 3103 2138 3103 
Q 1681 3103 1420 2742 
Q 1159 2381 1159 1747 
Q 1159 1113 1420 752 
Q 1681 391 2138 391 
Q 2594 391 2855 752 
Q 3116 1113 3116 1747 
z
M 1159 2969 
Q 1341 3281 1617 3432 
Q 1894 3584 2278 3584 
Q 2916 3584 3314 3078 
Q 3713 2572 3713 1747 
Q 3713 922 3314 415 
Q 2916 -91 2278 -91 
Q 1894 -91 1617 61 
Q 1341 213 1159 525 
L 1159 0 
L 581 0 
L 581 4863 
L 1159 4863 
L 1159 2969 
z
" transform="scale(0.015625)"/>
      <path id="DejaVuSans-39" d="M 703 97 
L 703 672 
Q 941 559 1184 500 
Q 1428 441 1663 441 
Q 2288 441 2617 861 
Q 2947 1281 2994 2138 
Q 2813 1869 2534 1725 
Q 2256 1581 1919 1581 
Q 1219 1581 811 2004 
Q 403 2428 403 3163 
Q 403 3881 828 4315 
Q 1253 4750 1959 4750 
Q 2769 4750 3195 4129 
Q 3622 3509 3622 2328 
Q 3622 1225 3098 567 
Q 2575 -91 1691 -91 
Q 1453 -91 1209 -44 
Q 966 3 703 97 
z
M 1959 2075 
Q 2384 2075 2632 2365 
Q 2881 2656 2881 3163 
Q 2881 3666 2632 3958 
Q 2384 4250 1959 4250 
Q 1534 4250 1286 3958 
Q 1038 3666 1038 3163 
Q 1038 2656 1286 2365 
Q 1534 2075 1959 2075 
z
" transform="scale(0.015625)"/>
     </defs>
     <use xlink:href="#DejaVuSans-62"/>
     <use xlink:href="#DejaVuSans-65" x="63.476562"/>
     <use xlink:href="#DejaVuSans-73" x="125"/>
     <use xlink:href="#DejaVuSans-74" x="177.099609"/>
     <use xlink:href="#DejaVuSans-20" x="216.308594"/>
     <use xlink:href="#DejaVuSans-32" x="248.095703"/>
     <use xlink:href="#DejaVuSans-30" x="311.71875"/>
     <use xlink:href="#DejaVuSans-30" x="375.341797"/>
     <use xlink:href="#DejaVuSans-39" x="438.964844"/>
    </g>
   </g>
   <g id="text_16">
    <!-- bbob f4, 3-D -->
    <g transform="translate(60.632064 38.111366)scale(0.102 -0.102)">
     <defs>
      <path id="DejaVuSans-33" d="M 2597 2516 
Q 3050 2419 3304 2112 
Q 3559 1806 3559 1356 
Q 3559 666 3084 287 
Q 2609 -91 1734 -91 
Q 1441 -91 1130 -33 
Q 819 25 488 141 
L 488 750 
Q 750 597 1062 519 
Q 1375 441 1716 441 
Q 2309 441 2620 675 
Q 2931 909 2931 1356 
Q 2931 1769 2642 2001 
Q 2353 2234 1838 2234 
L 1294 2234 
L 1294 2753 
L 1863 2753 
Q 2328 2753 2575 2939 
Q 2822 3125 2822 3475 
Q 2822 3834 2567 4026 
Q 2313 4219 1838 4219 
Q 1578 4219 1281 4162 
Q 984 4106 628 3988 
L 628 4550 
Q 988 4650 1302 4700 
Q 1616 4750 1894 4750 
Q 2613 4750 3031 4423 
Q 3450 4097 3450 3541 
Q 3450 3153 3228 2886 
Q 3006 2619 2597 2516 
z
" transform="scale(0.015625)"/>
      <path id="DejaVuSans-44" d="M 1259 4147 
L 1259 519 
L 2022 519 
Q 2988 519 3436 956 
Q 3884 1394 3884 2338 
Q 3884 3275 3436 3711 
Q 2988 4147 2022 4147 
L 1259 4147 
z
M 628 4666 
L 1925 4666 
Q 3281 4666 3915 4102 
Q 4550 3538 4550 2338 
Q 4550 1131 3912 565 
Q 3275 0 1925 0 
L 628 0 
L 628 4666 
z
" transform="scale(0.015625)"/>
     </defs>
     <use xlink:href="#DejaVuSans-62"/>
     <use xlink:href="#DejaVuSans-62" x="63.476562"/>
     <use xlink:href="#DejaVuSans-6f" x="126.953125"/>
     <use xlink:href="#DejaVuSans-62" x="188.134766"/>
     <use xlink:href="#DejaVuSans-20" x="251.611328"/>
     <use xlink:href="#DejaVuSans-66" x="283.398438"/>
     <use xlink:href="#DejaVuSans-34" x="318.603516"/>
     <use xlink:href="#DejaVuSans-2c" x="382.226562"/>
     <use xlink:href="#DejaVuSans-20" x="414.013672"/>
     <use xlink:href="#DejaVuSans-33" x="445.800781"/>
     <use xlink:href="#DejaVuSans-2d" x="509.423828"/>
     <use xlink:href="#DejaVuSans-44" x="545.507812"/>
    </g>
    <!-- 51 targets: 100..1e-08 -->
    <g transform="translate(60.632064 49.533135)scale(0.102 -0.102)">
     <defs>
      <path id="DejaVuSans-35" d="M 691 4666 
L 3169 4666 
L 3169 4134 
L 1269 4134 
L 1269 2991 
Q 1406 3038 1543 3061 
Q 1681 3084 1819 3084 
Q 2600 3084 3056 2656 
Q 3513 2228 3513 1497 
Q 3513 744 3044 326 
Q 2575 -91 1722 -91 
Q 1428 -91 1123 -41 
Q 819 9 494 109 
L 494 744 
Q 775 591 1075 516 
Q 1375 441 1709 441 
Q 2250 441 2565 725 
Q 2881 1009 2881 1497 
Q 2881 1984 2565 2268 
Q 2250 2553 1709 2553 
Q 1456 2553 1204 2497 
Q 953 2441 691 2322 
L 691 4666 
z
" transform="scale(0.015625)"/>
      <path id="DejaVuSans-3a" d="M 750 794 
L 1409 794 
L 1409 0 
L 750 0 
L 750 794 
z
M 750 3309 
L 1409 3309 
L 1409 2516 
L 750 2516 
L 750 3309 
z
" transform="scale(0.015625)"/>
     </defs>
     <use xlink:href="#DejaVuSans-35"/>
     <use xlink:href="#DejaVuSans-31" x="63.623047"/>
     <use xlink:href="#DejaVuSans-20" x="127.246094"/>
     <use xlink:href="#DejaVuSans-74" x="159.033203"/>
     <use xlink:href="#DejaVuSans-61" x="198.242188"/>
     <use xlink:href="#DejaVuSans-72" x="259.521484"/>
     <use xlink:href="#DejaVuSans-67" x="298.884766"/>
     <use xlink:href="#DejaVuSans-65" x="362.361328"/>
     <use xlink:href="#DejaVuSans-74" x="423.884766"/>
     <use xlink:href="#DejaVuSans-73" x="463.09375"/>
     <use xlink:href="#DejaVuSans-3a" x="515.193359"/>
     <use xlink:href="#DejaVuSans-20" x="548.884766"/>
     <use xlink:href="#DejaVuSans-31" x="580.671875"/>
     <use xlink:href="#DejaVuSans-30" x="644.294922"/>
     <use xlink:href="#DejaVuSans-30" x="707.917969"/>
     <use xlink:href="#DejaVuSans-2e" x="771.541016"/>
     <use xlink:href="#DejaVuSans-2e" x="803.328125"/>
     <use xlink:href="#DejaVuSans-31" x="835.115234"/>
     <use xlink:href="#DejaVuSans-65" x="898.738281"/>
     <use xlink:href="#DejaVuSans-2d" x="960.261719"/>
     <use xlink:href="#DejaVuSans-30" x="996.345703"/>
     <use xlink:href="#DejaVuSans-38" x="1059.96875"/>
    </g>
    <!-- 25 instances -->
    <g transform="translate(60.632064 60.954904)scale(0.102 -0.102)">
     <use xlink:href="#DejaVuSans-32"/>
     <use xlink:href="#DejaVuSans-35" x="63.623047"/>
     <use xlink:href="#DejaVuSans-20" x="127.246094"/>
     <use xlink:href="#DejaVuSans-69" x="159.033203"/>
     <use xlink:href="#DejaVuSans-6e" x="186.816406"/>
     <use xlink:href="#DejaVuSans-73" x="250.195312"/>
     <use xlink:href="#DejaVuSans-74" x="302.294922"/>
     <use xlink:href="#DejaVuSans-61" x="341.503906"/>
     <use xlink:href="#DejaVuSans-6e" x="402.783203"/>
     <use xlink:href="#DejaVuSans-63" x="466.162109"/>
     <use xlink:href="#DejaVuSans-65" x="521.142578"/>
     <use xlink:href="#DejaVuSans-73" x="582.666016"/>
    </g>
   </g>
   <g id="text_17">
    <!-- v2.6 -->
    <g style="fill: #808080" transform="translate(198.292262 294.151352)scale(0.1 -0.1)">
     <use xlink:href="#DejaVuSans-76"/>
     <use xlink:href="#DejaVuSans-32" x="59.179688"/>
     <use xlink:href="#DejaVuSans-2e" x="122.802734"/>
     <use xlink:href="#DejaVuSans-36" x="154.589844"/>
    </g>
   </g>
   <g id="text_18">
    <!-- 4 Skew Rastrigin-Bueche separ -->
    <g transform="translate(54.3282 21.648)scale(0.2 -0.2)">
     <defs>
      <path id="DejaVuSans-53" d="M 3425 4513 
L 3425 3897 
Q 3066 4069 2747 4153 
Q 2428 4238 2131 4238 
Q 1616 4238 1336 4038 
Q 1056 3838 1056 3469 
Q 1056 3159 1242 3001 
Q 1428 2844 1947 2747 
L 2328 2669 
Q 3034 2534 3370 2195 
Q 3706 1856 3706 1288 
Q 3706 609 3251 259 
Q 2797 -91 1919 -91 
Q 1588 -91 1214 -16 
Q 841 59 441 206 
L 441 856 
Q 825 641 1194 531 
Q 1563 422 1919 422 
Q 2459 422 2753 634 
Q 3047 847 3047 1241 
Q 3047 1584 2836 1778 
Q 2625 1972 2144 2069 
L 1759 2144 
Q 1053 2284 737 2584 
Q 422 2884 422 3419 
Q 422 4038 858 4394 
Q 1294 4750 2059 4750 
Q 2388 4750 2728 4690 
Q 3069 4631 3425 4513 
z
" transform="scale(0.015625)"/>
      <path id="DejaVuSans-6b" d="M 581 4863 
L 1159 4863 
L 1159 1991 
L 2875 3500 
L 3609 3500 
L 1753 1863 
L 3688 0 
L 2938 0 
L 1159 1709 
L 1159 0 
L 581 0 
L 581 4863 
z
" transform="scale(0.015625)"/>
      <path id="DejaVuSans-77" d="M 269 3500 
L 844 3500 
L 1563 769 
L 2278 3500 
L 2956 3500 
L 3675 769 
L 4391 3500 
L 4966 3500 
L 4050 0 
L 3372 0 
L 2619 2869 
L 1863 0 
L 1184 0 
L 269 3500 
z
" transform="scale(0.015625)"/>
      <path id="DejaVuSans-52" d="M 2841 2188 
Q 3044 2119 3236 1894 
Q 3428 1669 3622 1275 
L 4263 0 
L 3584 0 
L 2988 1197 
Q 2756 1666 2539 1819 
Q 2322 1972 1947 1972 
L 1259 1972 
L 1259 0 
L 628 0 
L 628 4666 
L 2053 4666 
Q 2853 4666 3247 4331 
Q 3641 3997 3641 3322 
Q 3641 2881 3436 2590 
Q 3231 2300 2841 2188 
z
M 1259 4147 
L 1259 2491 
L 2053 2491 
Q 2509 2491 2742 2702 
Q 2975 2913 2975 3322 
Q 2975 3731 2742 3939 
Q 2509 4147 2053 4147 
L 1259 4147 
z
" transform="scale(0.015625)"/>
      <path id="DejaVuSans-42" d="M 1259 2228 
L 1259 519 
L 2272 519 
Q 2781 519 3026 730 
Q 3272 941 3272 1375 
Q 3272 1813 3026 2020 
Q 2781 2228 2272 2228 
L 1259 2228 
z
M 1259 4147 
L 1259 2741 
L 2194 2741 
Q 2656 2741 2882 2914 
Q 3109 3088 3109 3444 
Q 3109 3797 2882 3972 
Q 2656 4147 2194 4147 
L 1259 4147 
z
M 628 4666 
L 2241 4666 
Q 2963 4666 3353 4366 
Q 3744 4066 3744 3513 
Q 3744 3084 3544 2831 
Q 3344 2578 2956 2516 
Q 3422 2416 3680 2098 
Q 3938 1781 3938 1306 
Q 3938 681 3513 340 
Q 3088 0 2303 0 
L 628 0 
L 628 4666 
z
" transform="scale(0.015625)"/>
      <path id="DejaVuSans-68" d="M 3513 2113 
L 3513 0 
L 2938 0 
L 2938 2094 
Q 2938 2591 2744 2837 
Q 2550 3084 2163 3084 
Q 1697 3084 1428 2787 
Q 1159 2491 1159 1978 
L 1159 0 
L 581 0 
L 581 4863 
L 1159 4863 
L 1159 2956 
Q 1366 3272 1645 3428 
Q 1925 3584 2291 3584 
Q 2894 3584 3203 3211 
Q 3513 2838 3513 2113 
z
" transform="scale(0.015625)"/>
     </defs>
     <use xlink:href="#DejaVuSans-34"/>
     <use xlink:href="#DejaVuSans-20" x="63.623047"/>
     <use xlink:href="#DejaVuSans-53" x="95.410156"/>
     <use xlink:href="#DejaVuSans-6b" x="158.886719"/>
     <use xlink:href="#DejaVuSans-65" x="213.171875"/>
     <use xlink:href="#DejaVuSans-77" x="274.695312"/>
     <use xlink:href="#DejaVuSans-20" x="356.482422"/>
     <use xlink:href="#DejaVuSans-52" x="388.269531"/>
     <use xlink:href="#DejaVuSans-61" x="455.501953"/>
     <use xlink:href="#DejaVuSans-73" x="516.78125"/>
     <use xlink:href="#DejaVuSans-74" x="568.880859"/>
     <use xlink:href="#DejaVuSans-72" x="608.089844"/>
     <use xlink:href="#DejaVuSans-69" x="649.203125"/>
     <use xlink:href="#DejaVuSans-67" x="676.986328"/>
     <use xlink:href="#DejaVuSans-69" x="740.462891"/>
     <use xlink:href="#DejaVuSans-6e" x="768.246094"/>
     <use xlink:href="#DejaVuSans-2d" x="831.625"/>
     <use xlink:href="#DejaVuSans-42" x="864.083984"/>
     <use xlink:href="#DejaVuSans-75" x="932.6875"/>
     <use xlink:href="#DejaVuSans-65" x="996.066406"/>
     <use xlink:href="#DejaVuSans-63" x="1057.589844"/>
     <use xlink:href="#DejaVuSans-68" x="1112.570312"/>
     <use xlink:href="#DejaVuSans-65" x="1175.949219"/>
     <use xlink:href="#DejaVuSans-20" x="1237.472656"/>
     <use xlink:href="#DejaVuSans-73" x="1269.259766"/>
     <use xlink:href="#DejaVuSans-65" x="1321.359375"/>
     <use xlink:href="#DejaVuSans-70" x="1382.882812"/>
     <use xlink:href="#DejaVuSans-61" x="1446.359375"/>
     <use xlink:href="#DejaVuSans-72" x="1507.638672"/>
    </g>
   </g>
  </g>
 </g>
 <defs>
  <clipPath id="p950433b598">
   <rect x="57.6" y="27.648" width="303.2064" height="271.296"/>
  </clipPath>
 </defs>
</svg>
