<?xml version="1.0" encoding="utf-8" standalone="no"?>
<!DOCTYPE svg PUBLIC "-//W3C//DTD SVG 1.1//EN"
  "http://www.w3.org/Graphics/SVG/1.1/DTD/svg11.dtd">
<svg xmlns:xlink="http://www.w3.org/1999/xlink" width="460.8pt" height="345.6pt" viewBox="0 0 460.8 345.6" xmlns="http://www.w3.org/2000/svg" version="1.1">
 <metadata>
  <rdf:RDF xmlns:dc="http://purl.org/dc/elements/1.1/" xmlns:cc="http://creativecommons.org/ns#" xmlns:rdf="http://www.w3.org/1999/02/22-rdf-syntax-ns#">
   <cc:Work>
    <dc:type rdf:resource="http://purl.org/dc/dcmitype/StillImage"/>
    <dc:date>2022-03-16T23:40:52.845473</dc:date>
    <dc:format>image/svg+xml</dc:format>
    <dc:creator>
     <cc:Agent>
      <dc:title>Matplotlib v3.5.1, https://matplotlib.org/</dc:title>
     </cc:Agent>
    </dc:creator>
   </cc:Work>
  </rdf:RDF>
 </metadata>
 <defs>
  <style type="text/css">*{stroke-linejoin: round; stroke-linecap: butt}</style>
 </defs>
 <g id="figure_1">
  <g id="patch_1">
   <path d="M 0 345.6 
L 460.8 345.6 
L 460.8 0 
L 0 0 
z
" style="fill: #ffffff"/>
  </g>
  <g id="axes_1">
   <g id="patch_2">
    <path d="M 57.6 298.944 
L 360.8064 298.944 
L 360.8064 27.648 
L 57.6 27.648 
z
" style="fill: #ffffff"/>
   </g>
   <g id="line2d_1">
    <path d="M 65.227428 298.944 
L 65.227428 288.304941 
L 74.836851 288.304941 
L 74.836851 277.665882 
L 87.876026 277.665882 
L 87.876026 272.346353 
L 92.811505 272.346353 
L 92.811505 267.026824 
L 94.205591 267.026824 
L 94.205591 261.707294 
L 96.717523 261.707294 
L 96.717523 256.387765 
L 99.950294 256.387765 
L 99.950294 251.068235 
L 100.9152 251.068235 
L 100.9152 245.748706 
L 103.544339 245.748706 
L 103.544339 240.429176 
L 109.756698 240.429176 
L 109.756698 235.109647 
L 111.442442 235.109647 
L 111.442442 224.470588 
L 113.478107 224.470588 
L 113.478107 219.151059 
L 114.418881 219.151059 
L 114.418881 213.831529 
L 114.872193 213.831529 
L 114.872193 208.512 
L 116.988079 208.512 
L 116.988079 203.192471 
L 117.772007 203.192471 
L 117.772007 197.872941 
L 118.889854 197.872941 
L 118.889854 192.553412 
L 119.599808 192.553412 
L 119.599808 187.233882 
L 121.265635 187.233882 
L 121.265635 181.914353 
L 121.892744 181.914353 
L 121.892744 176.594824 
L 122.499621 176.594824 
L 122.499621 171.275294 
L 123.08753 171.275294 
L 123.08753 165.955765 
L 123.657621 165.955765 
L 123.657621 160.636235 
L 124.210942 160.636235 
L 124.210942 155.316706 
L 125.271028 155.316706 
L 125.271028 149.997176 
L 126.028642 149.997176 
L 126.028642 144.677647 
L 126.517282 144.677647 
L 126.517282 139.358118 
L 126.993549 139.358118 
L 126.993549 134.038588 
L 127.911368 134.038588 
L 127.911368 128.719059 
L 128.354013 128.719059 
L 128.354013 123.399529 
L 128.999044 123.399529 
L 128.999044 118.08 
L 129.417095 118.08 
L 129.417095 112.760471 
L 130.226319 112.760471 
L 130.226319 107.440941 
L 130.4233 107.440941 
L 130.4233 102.121412 
L 131.191226 102.121412 
L 131.191226 96.801882 
L 131.747272 96.801882 
L 131.747272 91.482353 
L 132.287354 91.482353 
L 132.287354 86.162824 
L 132.46399 86.162824 
L 132.46399 80.843294 
L 132.984158 80.843294 
L 132.984158 75.523765 
L 133.323114 75.523765 
L 133.323114 70.204235 
L 134.304809 70.204235 
L 134.304809 64.884706 
L 134.77709 64.884706 
L 134.77709 59.565176 
L 135.237805 59.565176 
L 135.237805 54.245647 
L 135.388902 54.245647 
L 135.388902 48.926118 
L 135.538796 48.926118 
L 135.538796 43.606588 
L 136.126705 43.606588 
L 136.126705 38.287059 
L 136.555884 38.287059 
L 136.555884 32.967529 
L 136.97549 32.967529 
L 136.97549 27.648 
L 360.8064 27.648 
" style="fill: none; stroke: #f5deb3; stroke-width: 4; stroke-linecap: square"/>
   </g>
   <g id="line2d_2">
    <defs>
     <path id="md2527d3090" d="M -0 7.778175 
L 7.778175 0 
L 0 -7.778175 
L -7.778175 -0 
z
" style="stroke: #f5deb3; stroke-width: 1.5; stroke-linejoin: miter"/>
    </defs>
    <g>
     <use xlink:href="#md2527d3090" x="126.993549" y="139.358118" style="fill: #f5deb3; stroke: #f5deb3; stroke-width: 1.5; stroke-linejoin: miter"/>
     <use xlink:href="#md2527d3090" x="136.97549" y="32.967529" style="fill: #f5deb3; stroke: #f5deb3; stroke-width: 1.5; stroke-linejoin: miter"/>
     <use xlink:href="#md2527d3090" x="136.97549" y="27.648" style="fill: #f5deb3; stroke: #f5deb3; stroke-width: 1.5; stroke-linejoin: miter"/>
     <use xlink:href="#md2527d3090" x="136.97549" y="27.648" style="fill: #f5deb3; stroke: #f5deb3; stroke-width: 1.5; stroke-linejoin: miter"/>
     <use xlink:href="#md2527d3090" x="360.8064" y="27.648" style="fill: #f5deb3; stroke: #f5deb3; stroke-width: 1.5; stroke-linejoin: miter"/>
    </g>
   </g>
   <g id="line2d_3">
    <path style="fill: none; stroke: #f5deb3; stroke-width: 4; stroke-linecap: square"/>
    <g/>
   </g>
   <g id="line2d_4">
    <path d="M 360.8064 27.648 
L 380.514816 33.07392 
" style="fill: none; stroke: #f5deb3; stroke-width: 4; stroke-linecap: square"/>
    <g>
     <use xlink:href="#md2527d3090" x="360.8064" y="27.648" style="fill: #f5deb3; stroke: #f5deb3; stroke-width: 1.5; stroke-linejoin: miter"/>
     <use xlink:href="#md2527d3090" x="380.514816" y="33.07392" style="fill: #f5deb3; stroke: #f5deb3; stroke-width: 1.5; stroke-linejoin: miter"/>
    </g>
   </g>
   <g id="matplotlib.axis_1">
    <g id="xtick_1">
     <g id="line2d_5">
      <path d="M 57.6 298.944 
L 57.6 27.648 
" clip-path="url(#p6be1340a86)" style="fill: none; stroke: #b0b0b0; stroke-width: 0.8; stroke-linecap: square"/>
     </g>
     <g id="line2d_6">
      <defs>
       <path id="mbd39697fe4" d="M 0 0 
L 0 3.5 
" style="stroke: #000000; stroke-width: 0.8"/>
      </defs>
      <g>
       <use xlink:href="#mbd39697fe4" x="57.6" y="298.944" style="stroke: #000000; stroke-width: 0.8"/>
      </g>
     </g>
     <g id="text_1">
      <!-- 0 -->
      <g transform="translate(52.191875 318.861344)scale(0.17 -0.17)">
       <defs>
        <path id="DejaVuSans-30" d="M 2034 4250 
Q 1547 4250 1301 3770 
Q 1056 3291 1056 2328 
Q 1056 1369 1301 889 
Q 1547 409 2034 409 
Q 2525 409 2770 889 
Q 3016 1369 3016 2328 
Q 3016 3291 2770 3770 
Q 2525 4250 2034 4250 
z
M 2034 4750 
Q 2819 4750 3233 4129 
Q 3647 3509 3647 2328 
Q 3647 1150 3233 529 
Q 2819 -91 2034 -91 
Q 1250 -91 836 529 
Q 422 1150 422 2328 
Q 422 3509 836 4129 
Q 1250 4750 2034 4750 
z
" transform="scale(0.015625)"/>
       </defs>
       <use xlink:href="#DejaVuSans-30"/>
      </g>
     </g>
    </g>
    <g id="xtick_2">
     <g id="line2d_7">
      <path d="M 144.2304 298.944 
L 144.2304 27.648 
" clip-path="url(#p6be1340a86)" style="fill: none; stroke: #b0b0b0; stroke-width: 0.8; stroke-linecap: square"/>
     </g>
     <g id="line2d_8">
      <g>
       <use xlink:href="#mbd39697fe4" x="144.2304" y="298.944" style="stroke: #000000; stroke-width: 0.8"/>
      </g>
     </g>
     <g id="text_2">
      <!-- 2 -->
      <g transform="translate(138.822275 318.861344)scale(0.17 -0.17)">
       <defs>
        <path id="DejaVuSans-32" d="M 1228 531 
L 3431 531 
L 3431 0 
L 469 0 
L 469 531 
Q 828 903 1448 1529 
Q 2069 2156 2228 2338 
Q 2531 2678 2651 2914 
Q 2772 3150 2772 3378 
Q 2772 3750 2511 3984 
Q 2250 4219 1831 4219 
Q 1534 4219 1204 4116 
Q 875 4013 500 3803 
L 500 4441 
Q 881 4594 1212 4672 
Q 1544 4750 1819 4750 
Q 2544 4750 2975 4387 
Q 3406 4025 3406 3419 
Q 3406 3131 3298 2873 
Q 3191 2616 2906 2266 
Q 2828 2175 2409 1742 
Q 1991 1309 1228 531 
z
" transform="scale(0.015625)"/>
       </defs>
       <use xlink:href="#DejaVuSans-32"/>
      </g>
     </g>
    </g>
    <g id="xtick_3">
     <g id="line2d_9">
      <path d="M 230.8608 298.944 
L 230.8608 27.648 
" clip-path="url(#p6be1340a86)" style="fill: none; stroke: #b0b0b0; stroke-width: 0.8; stroke-linecap: square"/>
     </g>
     <g id="line2d_10">
      <g>
       <use xlink:href="#mbd39697fe4" x="230.8608" y="298.944" style="stroke: #000000; stroke-width: 0.8"/>
      </g>
     </g>
     <g id="text_3">
      <!-- 4 -->
      <g transform="translate(225.452675 318.861344)scale(0.17 -0.17)">
       <defs>
        <path id="DejaVuSans-34" d="M 2419 4116 
L 825 1625 
L 2419 1625 
L 2419 4116 
z
M 2253 4666 
L 3047 4666 
L 3047 1625 
L 3713 1625 
L 3713 1100 
L 3047 1100 
L 3047 0 
L 2419 0 
L 2419 1100 
L 313 1100 
L 313 1709 
L 2253 4666 
z
" transform="scale(0.015625)"/>
       </defs>
       <use xlink:href="#DejaVuSans-34"/>
      </g>
     </g>
    </g>
    <g id="xtick_4">
     <g id="line2d_11">
      <path d="M 317.4912 298.944 
L 317.4912 27.648 
" clip-path="url(#p6be1340a86)" style="fill: none; stroke: #b0b0b0; stroke-width: 0.8; stroke-linecap: square"/>
     </g>
     <g id="line2d_12">
      <g>
       <use xlink:href="#mbd39697fe4" x="317.4912" y="298.944" style="stroke: #000000; stroke-width: 0.8"/>
      </g>
     </g>
     <g id="text_4">
      <!-- 6 -->
      <g transform="translate(312.083075 318.861344)scale(0.17 -0.17)">
       <defs>
        <path id="DejaVuSans-36" d="M 2113 2584 
Q 1688 2584 1439 2293 
Q 1191 2003 1191 1497 
Q 1191 994 1439 701 
Q 1688 409 2113 409 
Q 2538 409 2786 701 
Q 3034 994 3034 1497 
Q 3034 2003 2786 2293 
Q 2538 2584 2113 2584 
z
M 3366 4563 
L 3366 3988 
Q 3128 4100 2886 4159 
Q 2644 4219 2406 4219 
Q 1781 4219 1451 3797 
Q 1122 3375 1075 2522 
Q 1259 2794 1537 2939 
Q 1816 3084 2150 3084 
Q 2853 3084 3261 2657 
Q 3669 2231 3669 1497 
Q 3669 778 3244 343 
Q 2819 -91 2113 -91 
Q 1303 -91 875 529 
Q 447 1150 447 2328 
Q 447 3434 972 4092 
Q 1497 4750 2381 4750 
Q 2619 4750 2861 4703 
Q 3103 4656 3366 4563 
z
" transform="scale(0.015625)"/>
       </defs>
       <use xlink:href="#DejaVuSans-36"/>
      </g>
     </g>
    </g>
    <g id="xtick_5">
     <g id="line2d_13">
      <path d="M 100.9152 298.944 
L 100.9152 27.648 
" clip-path="url(#p6be1340a86)" style="fill: none; stroke: #b0b0b0; stroke-width: 0.8; stroke-linecap: square"/>
     </g>
     <g id="line2d_14">
      <defs>
       <path id="m6304678437" d="M 0 0 
L 0 2 
" style="stroke: #000000; stroke-width: 0.6"/>
      </defs>
      <g>
       <use xlink:href="#m6304678437" x="100.9152" y="298.944" style="stroke: #000000; stroke-width: 0.6"/>
      </g>
     </g>
    </g>
    <g id="xtick_6">
     <g id="line2d_15">
      <path d="M 187.5456 298.944 
L 187.5456 27.648 
" clip-path="url(#p6be1340a86)" style="fill: none; stroke: #b0b0b0; stroke-width: 0.8; stroke-linecap: square"/>
     </g>
     <g id="line2d_16">
      <g>
       <use xlink:href="#m6304678437" x="187.5456" y="298.944" style="stroke: #000000; stroke-width: 0.6"/>
      </g>
     </g>
    </g>
    <g id="xtick_7">
     <g id="line2d_17">
      <path d="M 274.176 298.944 
L 274.176 27.648 
" clip-path="url(#p6be1340a86)" style="fill: none; stroke: #b0b0b0; stroke-width: 0.8; stroke-linecap: square"/>
     </g>
     <g id="line2d_18">
      <g>
       <use xlink:href="#m6304678437" x="274.176" y="298.944" style="stroke: #000000; stroke-width: 0.6"/>
      </g>
     </g>
    </g>
    <g id="xtick_8">
     <g id="line2d_19">
      <path d="M 360.8064 298.944 
L 360.8064 27.648 
" clip-path="url(#p6be1340a86)" style="fill: none; stroke: #b0b0b0; stroke-width: 0.8; stroke-linecap: square"/>
     </g>
     <g id="line2d_20">
      <g>
       <use xlink:href="#m6304678437" x="360.8064" y="298.944" style="stroke: #000000; stroke-width: 0.6"/>
      </g>
     </g>
    </g>
    <g id="text_5">
     <!-- log10(# f-evals / dimension) -->
     <g transform="translate(88.823278 339.314156)scale(0.17 -0.17)">
      <defs>
       <path id="DejaVuSans-6c" d="M 603 4863 
L 1178 4863 
L 1178 0 
L 603 0 
L 603 4863 
z
" transform="scale(0.015625)"/>
       <path id="DejaVuSans-6f" d="M 1959 3097 
Q 1497 3097 1228 2736 
Q 959 2375 959 1747 
Q 959 1119 1226 758 
Q 1494 397 1959 397 
Q 2419 397 2687 759 
Q 2956 1122 2956 1747 
Q 2956 2369 2687 2733 
Q 2419 3097 1959 3097 
z
M 1959 3584 
Q 2709 3584 3137 3096 
Q 3566 2609 3566 1747 
Q 3566 888 3137 398 
Q 2709 -91 1959 -91 
Q 1206 -91 779 398 
Q 353 888 353 1747 
Q 353 2609 779 3096 
Q 1206 3584 1959 3584 
z
" transform="scale(0.015625)"/>
       <path id="DejaVuSans-67" d="M 2906 1791 
Q 2906 2416 2648 2759 
Q 2391 3103 1925 3103 
Q 1463 3103 1205 2759 
Q 947 2416 947 1791 
Q 947 1169 1205 825 
Q 1463 481 1925 481 
Q 2391 481 2648 825 
Q 2906 1169 2906 1791 
z
M 3481 434 
Q 3481 -459 3084 -895 
Q 2688 -1331 1869 -1331 
Q 1566 -1331 1297 -1286 
Q 1028 -1241 775 -1147 
L 775 -588 
Q 1028 -725 1275 -790 
Q 1522 -856 1778 -856 
Q 2344 -856 2625 -561 
Q 2906 -266 2906 331 
L 2906 616 
Q 2728 306 2450 153 
Q 2172 0 1784 0 
Q 1141 0 747 490 
Q 353 981 353 1791 
Q 353 2603 747 3093 
Q 1141 3584 1784 3584 
Q 2172 3584 2450 3431 
Q 2728 3278 2906 2969 
L 2906 3500 
L 3481 3500 
L 3481 434 
z
" transform="scale(0.015625)"/>
       <path id="DejaVuSans-31" d="M 794 531 
L 1825 531 
L 1825 4091 
L 703 3866 
L 703 4441 
L 1819 4666 
L 2450 4666 
L 2450 531 
L 3481 531 
L 3481 0 
L 794 0 
L 794 531 
z
" transform="scale(0.015625)"/>
       <path id="DejaVuSans-28" d="M 1984 4856 
Q 1566 4138 1362 3434 
Q 1159 2731 1159 2009 
Q 1159 1288 1364 580 
Q 1569 -128 1984 -844 
L 1484 -844 
Q 1016 -109 783 600 
Q 550 1309 550 2009 
Q 550 2706 781 3412 
Q 1013 4119 1484 4856 
L 1984 4856 
z
" transform="scale(0.015625)"/>
       <path id="DejaVuSans-23" d="M 3272 2816 
L 2363 2816 
L 2100 1772 
L 3016 1772 
L 3272 2816 
z
M 2803 4594 
L 2478 3297 
L 3391 3297 
L 3719 4594 
L 4219 4594 
L 3897 3297 
L 4872 3297 
L 4872 2816 
L 3775 2816 
L 3519 1772 
L 4513 1772 
L 4513 1294 
L 3397 1294 
L 3072 0 
L 2572 0 
L 2894 1294 
L 1978 1294 
L 1656 0 
L 1153 0 
L 1478 1294 
L 494 1294 
L 494 1772 
L 1594 1772 
L 1856 2816 
L 850 2816 
L 850 3297 
L 1978 3297 
L 2297 4594 
L 2803 4594 
z
" transform="scale(0.015625)"/>
       <path id="DejaVuSans-20" transform="scale(0.015625)"/>
       <path id="DejaVuSans-66" d="M 2375 4863 
L 2375 4384 
L 1825 4384 
Q 1516 4384 1395 4259 
Q 1275 4134 1275 3809 
L 1275 3500 
L 2222 3500 
L 2222 3053 
L 1275 3053 
L 1275 0 
L 697 0 
L 697 3053 
L 147 3053 
L 147 3500 
L 697 3500 
L 697 3744 
Q 697 4328 969 4595 
Q 1241 4863 1831 4863 
L 2375 4863 
z
" transform="scale(0.015625)"/>
       <path id="DejaVuSans-2d" d="M 313 2009 
L 1997 2009 
L 1997 1497 
L 313 1497 
L 313 2009 
z
" transform="scale(0.015625)"/>
       <path id="DejaVuSans-65" d="M 3597 1894 
L 3597 1613 
L 953 1613 
Q 991 1019 1311 708 
Q 1631 397 2203 397 
Q 2534 397 2845 478 
Q 3156 559 3463 722 
L 3463 178 
Q 3153 47 2828 -22 
Q 2503 -91 2169 -91 
Q 1331 -91 842 396 
Q 353 884 353 1716 
Q 353 2575 817 3079 
Q 1281 3584 2069 3584 
Q 2775 3584 3186 3129 
Q 3597 2675 3597 1894 
z
M 3022 2063 
Q 3016 2534 2758 2815 
Q 2500 3097 2075 3097 
Q 1594 3097 1305 2825 
Q 1016 2553 972 2059 
L 3022 2063 
z
" transform="scale(0.015625)"/>
       <path id="DejaVuSans-76" d="M 191 3500 
L 800 3500 
L 1894 563 
L 2988 3500 
L 3597 3500 
L 2284 0 
L 1503 0 
L 191 3500 
z
" transform="scale(0.015625)"/>
       <path id="DejaVuSans-61" d="M 2194 1759 
Q 1497 1759 1228 1600 
Q 959 1441 959 1056 
Q 959 750 1161 570 
Q 1363 391 1709 391 
Q 2188 391 2477 730 
Q 2766 1069 2766 1631 
L 2766 1759 
L 2194 1759 
z
M 3341 1997 
L 3341 0 
L 2766 0 
L 2766 531 
Q 2569 213 2275 61 
Q 1981 -91 1556 -91 
Q 1019 -91 701 211 
Q 384 513 384 1019 
Q 384 1609 779 1909 
Q 1175 2209 1959 2209 
L 2766 2209 
L 2766 2266 
Q 2766 2663 2505 2880 
Q 2244 3097 1772 3097 
Q 1472 3097 1187 3025 
Q 903 2953 641 2809 
L 641 3341 
Q 956 3463 1253 3523 
Q 1550 3584 1831 3584 
Q 2591 3584 2966 3190 
Q 3341 2797 3341 1997 
z
" transform="scale(0.015625)"/>
       <path id="DejaVuSans-73" d="M 2834 3397 
L 2834 2853 
Q 2591 2978 2328 3040 
Q 2066 3103 1784 3103 
Q 1356 3103 1142 2972 
Q 928 2841 928 2578 
Q 928 2378 1081 2264 
Q 1234 2150 1697 2047 
L 1894 2003 
Q 2506 1872 2764 1633 
Q 3022 1394 3022 966 
Q 3022 478 2636 193 
Q 2250 -91 1575 -91 
Q 1294 -91 989 -36 
Q 684 19 347 128 
L 347 722 
Q 666 556 975 473 
Q 1284 391 1588 391 
Q 1994 391 2212 530 
Q 2431 669 2431 922 
Q 2431 1156 2273 1281 
Q 2116 1406 1581 1522 
L 1381 1569 
Q 847 1681 609 1914 
Q 372 2147 372 2553 
Q 372 3047 722 3315 
Q 1072 3584 1716 3584 
Q 2034 3584 2315 3537 
Q 2597 3491 2834 3397 
z
" transform="scale(0.015625)"/>
       <path id="DejaVuSans-2f" d="M 1625 4666 
L 2156 4666 
L 531 -594 
L 0 -594 
L 1625 4666 
z
" transform="scale(0.015625)"/>
       <path id="DejaVuSans-64" d="M 2906 2969 
L 2906 4863 
L 3481 4863 
L 3481 0 
L 2906 0 
L 2906 525 
Q 2725 213 2448 61 
Q 2172 -91 1784 -91 
Q 1150 -91 751 415 
Q 353 922 353 1747 
Q 353 2572 751 3078 
Q 1150 3584 1784 3584 
Q 2172 3584 2448 3432 
Q 2725 3281 2906 2969 
z
M 947 1747 
Q 947 1113 1208 752 
Q 1469 391 1925 391 
Q 2381 391 2643 752 
Q 2906 1113 2906 1747 
Q 2906 2381 2643 2742 
Q 2381 3103 1925 3103 
Q 1469 3103 1208 2742 
Q 947 2381 947 1747 
z
" transform="scale(0.015625)"/>
       <path id="DejaVuSans-69" d="M 603 3500 
L 1178 3500 
L 1178 0 
L 603 0 
L 603 3500 
z
M 603 4863 
L 1178 4863 
L 1178 4134 
L 603 4134 
L 603 4863 
z
" transform="scale(0.015625)"/>
       <path id="DejaVuSans-6d" d="M 3328 2828 
Q 3544 3216 3844 3400 
Q 4144 3584 4550 3584 
Q 5097 3584 5394 3201 
Q 5691 2819 5691 2113 
L 5691 0 
L 5113 0 
L 5113 2094 
Q 5113 2597 4934 2840 
Q 4756 3084 4391 3084 
Q 3944 3084 3684 2787 
Q 3425 2491 3425 1978 
L 3425 0 
L 2847 0 
L 2847 2094 
Q 2847 2600 2669 2842 
Q 2491 3084 2119 3084 
Q 1678 3084 1418 2786 
Q 1159 2488 1159 1978 
L 1159 0 
L 581 0 
L 581 3500 
L 1159 3500 
L 1159 2956 
Q 1356 3278 1631 3431 
Q 1906 3584 2284 3584 
Q 2666 3584 2933 3390 
Q 3200 3197 3328 2828 
z
" transform="scale(0.015625)"/>
       <path id="DejaVuSans-6e" d="M 3513 2113 
L 3513 0 
L 2938 0 
L 2938 2094 
Q 2938 2591 2744 2837 
Q 2550 3084 2163 3084 
Q 1697 3084 1428 2787 
Q 1159 2491 1159 1978 
L 1159 0 
L 581 0 
L 581 3500 
L 1159 3500 
L 1159 2956 
Q 1366 3272 1645 3428 
Q 1925 3584 2291 3584 
Q 2894 3584 3203 3211 
Q 3513 2838 3513 2113 
z
" transform="scale(0.015625)"/>
       <path id="DejaVuSans-29" d="M 513 4856 
L 1013 4856 
Q 1481 4119 1714 3412 
Q 1947 2706 1947 2009 
Q 1947 1309 1714 600 
Q 1481 -109 1013 -844 
L 513 -844 
Q 928 -128 1133 580 
Q 1338 1288 1338 2009 
Q 1338 2731 1133 3434 
Q 928 4138 513 4856 
z
" transform="scale(0.015625)"/>
      </defs>
      <use xlink:href="#DejaVuSans-6c"/>
      <use xlink:href="#DejaVuSans-6f" x="27.783203"/>
      <use xlink:href="#DejaVuSans-67" x="88.964844"/>
      <use xlink:href="#DejaVuSans-31" x="152.441406"/>
      <use xlink:href="#DejaVuSans-30" x="216.064453"/>
      <use xlink:href="#DejaVuSans-28" x="279.6875"/>
      <use xlink:href="#DejaVuSans-23" x="318.701172"/>
      <use xlink:href="#DejaVuSans-20" x="402.490234"/>
      <use xlink:href="#DejaVuSans-66" x="434.277344"/>
      <use xlink:href="#DejaVuSans-2d" x="463.982422"/>
      <use xlink:href="#DejaVuSans-65" x="500.066406"/>
      <use xlink:href="#DejaVuSans-76" x="561.589844"/>
      <use xlink:href="#DejaVuSans-61" x="620.769531"/>
      <use xlink:href="#DejaVuSans-6c" x="682.048828"/>
      <use xlink:href="#DejaVuSans-73" x="709.832031"/>
      <use xlink:href="#DejaVuSans-20" x="761.931641"/>
      <use xlink:href="#DejaVuSans-2f" x="793.71875"/>
      <use xlink:href="#DejaVuSans-20" x="827.410156"/>
      <use xlink:href="#DejaVuSans-64" x="859.197266"/>
      <use xlink:href="#DejaVuSans-69" x="922.673828"/>
      <use xlink:href="#DejaVuSans-6d" x="950.457031"/>
      <use xlink:href="#DejaVuSans-65" x="1047.869141"/>
      <use xlink:href="#DejaVuSans-6e" x="1109.392578"/>
      <use xlink:href="#DejaVuSans-73" x="1172.771484"/>
      <use xlink:href="#DejaVuSans-69" x="1224.871094"/>
      <use xlink:href="#DejaVuSans-6f" x="1252.654297"/>
      <use xlink:href="#DejaVuSans-6e" x="1313.835938"/>
      <use xlink:href="#DejaVuSans-29" x="1377.214844"/>
     </g>
    </g>
   </g>
   <g id="matplotlib.axis_2">
    <g id="ytick_1">
     <g id="line2d_21">
      <path d="M 57.6 298.944 
L 360.8064 298.944 
" clip-path="url(#p6be1340a86)" style="fill: none; stroke: #b0b0b0; stroke-width: 0.8; stroke-linecap: square"/>
     </g>
     <g id="line2d_22">
      <defs>
       <path id="m60b99e4e76" d="M 0 0 
L -3.5 0 
" style="stroke: #000000; stroke-width: 0.8"/>
      </defs>
      <g>
       <use xlink:href="#m60b99e4e76" x="57.6" y="298.944" style="stroke: #000000; stroke-width: 0.8"/>
      </g>
     </g>
     <g id="text_6">
      <!-- 0.0 -->
      <g transform="translate(25.155 305.02275)scale(0.16 -0.16)">
       <defs>
        <path id="DejaVuSans-2e" d="M 684 794 
L 1344 794 
L 1344 0 
L 684 0 
L 684 794 
z
" transform="scale(0.015625)"/>
       </defs>
       <use xlink:href="#DejaVuSans-30"/>
       <use xlink:href="#DejaVuSans-2e" x="63.623047"/>
       <use xlink:href="#DejaVuSans-30" x="95.410156"/>
      </g>
     </g>
    </g>
    <g id="ytick_2">
     <g id="line2d_23">
      <path d="M 57.6 244.6848 
L 360.8064 244.6848 
" clip-path="url(#p6be1340a86)" style="fill: none; stroke: #b0b0b0; stroke-width: 0.8; stroke-linecap: square"/>
     </g>
     <g id="line2d_24">
      <g>
       <use xlink:href="#m60b99e4e76" x="57.6" y="244.6848" style="stroke: #000000; stroke-width: 0.8"/>
      </g>
     </g>
     <g id="text_7">
      <!-- 0.2 -->
      <g transform="translate(25.155 250.76355)scale(0.16 -0.16)">
       <use xlink:href="#DejaVuSans-30"/>
       <use xlink:href="#DejaVuSans-2e" x="63.623047"/>
       <use xlink:href="#DejaVuSans-32" x="95.410156"/>
      </g>
     </g>
    </g>
    <g id="ytick_3">
     <g id="line2d_25">
      <path d="M 57.6 190.4256 
L 360.8064 190.4256 
" clip-path="url(#p6be1340a86)" style="fill: none; stroke: #b0b0b0; stroke-width: 0.8; stroke-linecap: square"/>
     </g>
     <g id="line2d_26">
      <g>
       <use xlink:href="#m60b99e4e76" x="57.6" y="190.4256" style="stroke: #000000; stroke-width: 0.8"/>
      </g>
     </g>
     <g id="text_8">
      <!-- 0.4 -->
      <g transform="translate(25.155 196.50435)scale(0.16 -0.16)">
       <use xlink:href="#DejaVuSans-30"/>
       <use xlink:href="#DejaVuSans-2e" x="63.623047"/>
       <use xlink:href="#DejaVuSans-34" x="95.410156"/>
      </g>
     </g>
    </g>
    <g id="ytick_4">
     <g id="line2d_27">
      <path d="M 57.6 136.1664 
L 360.8064 136.1664 
" clip-path="url(#p6be1340a86)" style="fill: none; stroke: #b0b0b0; stroke-width: 0.8; stroke-linecap: square"/>
     </g>
     <g id="line2d_28">
      <g>
       <use xlink:href="#m60b99e4e76" x="57.6" y="136.1664" style="stroke: #000000; stroke-width: 0.8"/>
      </g>
     </g>
     <g id="text_9">
      <!-- 0.6 -->
      <g transform="translate(25.155 142.24515)scale(0.16 -0.16)">
       <use xlink:href="#DejaVuSans-30"/>
       <use xlink:href="#DejaVuSans-2e" x="63.623047"/>
       <use xlink:href="#DejaVuSans-36" x="95.410156"/>
      </g>
     </g>
    </g>
    <g id="ytick_5">
     <g id="line2d_29">
      <path d="M 57.6 81.9072 
L 360.8064 81.9072 
" clip-path="url(#p6be1340a86)" style="fill: none; stroke: #b0b0b0; stroke-width: 0.8; stroke-linecap: square"/>
     </g>
     <g id="line2d_30">
      <g>
       <use xlink:href="#m60b99e4e76" x="57.6" y="81.9072" style="stroke: #000000; stroke-width: 0.8"/>
      </g>
     </g>
     <g id="text_10">
      <!-- 0.8 -->
      <g transform="translate(25.155 87.98595)scale(0.16 -0.16)">
       <defs>
        <path id="DejaVuSans-38" d="M 2034 2216 
Q 1584 2216 1326 1975 
Q 1069 1734 1069 1313 
Q 1069 891 1326 650 
Q 1584 409 2034 409 
Q 2484 409 2743 651 
Q 3003 894 3003 1313 
Q 3003 1734 2745 1975 
Q 2488 2216 2034 2216 
z
M 1403 2484 
Q 997 2584 770 2862 
Q 544 3141 544 3541 
Q 544 4100 942 4425 
Q 1341 4750 2034 4750 
Q 2731 4750 3128 4425 
Q 3525 4100 3525 3541 
Q 3525 3141 3298 2862 
Q 3072 2584 2669 2484 
Q 3125 2378 3379 2068 
Q 3634 1759 3634 1313 
Q 3634 634 3220 271 
Q 2806 -91 2034 -91 
Q 1263 -91 848 271 
Q 434 634 434 1313 
Q 434 1759 690 2068 
Q 947 2378 1403 2484 
z
M 1172 3481 
Q 1172 3119 1398 2916 
Q 1625 2713 2034 2713 
Q 2441 2713 2670 2916 
Q 2900 3119 2900 3481 
Q 2900 3844 2670 4047 
Q 2441 4250 2034 4250 
Q 1625 4250 1398 4047 
Q 1172 3844 1172 3481 
z
" transform="scale(0.015625)"/>
       </defs>
       <use xlink:href="#DejaVuSans-30"/>
       <use xlink:href="#DejaVuSans-2e" x="63.623047"/>
       <use xlink:href="#DejaVuSans-38" x="95.410156"/>
      </g>
     </g>
    </g>
    <g id="ytick_6">
     <g id="line2d_31">
      <path d="M 57.6 27.648 
L 360.8064 27.648 
" clip-path="url(#p6be1340a86)" style="fill: none; stroke: #b0b0b0; stroke-width: 0.8; stroke-linecap: square"/>
     </g>
     <g id="line2d_32">
      <g>
       <use xlink:href="#m60b99e4e76" x="57.6" y="27.648" style="stroke: #000000; stroke-width: 0.8"/>
      </g>
     </g>
     <g id="text_11">
      <!-- 1.0 -->
      <g transform="translate(25.155 33.72675)scale(0.16 -0.16)">
       <use xlink:href="#DejaVuSans-31"/>
       <use xlink:href="#DejaVuSans-2e" x="63.623047"/>
       <use xlink:href="#DejaVuSans-30" x="95.410156"/>
      </g>
     </g>
    </g>
    <g id="text_12">
     <!-- Fraction of function,target pairs -->
     <g transform="translate(17.619531 297.681)rotate(-90)scale(0.17 -0.17)">
      <defs>
       <path id="DejaVuSans-46" d="M 628 4666 
L 3309 4666 
L 3309 4134 
L 1259 4134 
L 1259 2759 
L 3109 2759 
L 3109 2228 
L 1259 2228 
L 1259 0 
L 628 0 
L 628 4666 
z
" transform="scale(0.015625)"/>
       <path id="DejaVuSans-72" d="M 2631 2963 
Q 2534 3019 2420 3045 
Q 2306 3072 2169 3072 
Q 1681 3072 1420 2755 
Q 1159 2438 1159 1844 
L 1159 0 
L 581 0 
L 581 3500 
L 1159 3500 
L 1159 2956 
Q 1341 3275 1631 3429 
Q 1922 3584 2338 3584 
Q 2397 3584 2469 3576 
Q 2541 3569 2628 3553 
L 2631 2963 
z
" transform="scale(0.015625)"/>
       <path id="DejaVuSans-63" d="M 3122 3366 
L 3122 2828 
Q 2878 2963 2633 3030 
Q 2388 3097 2138 3097 
Q 1578 3097 1268 2742 
Q 959 2388 959 1747 
Q 959 1106 1268 751 
Q 1578 397 2138 397 
Q 2388 397 2633 464 
Q 2878 531 3122 666 
L 3122 134 
Q 2881 22 2623 -34 
Q 2366 -91 2075 -91 
Q 1284 -91 818 406 
Q 353 903 353 1747 
Q 353 2603 823 3093 
Q 1294 3584 2113 3584 
Q 2378 3584 2631 3529 
Q 2884 3475 3122 3366 
z
" transform="scale(0.015625)"/>
       <path id="DejaVuSans-74" d="M 1172 4494 
L 1172 3500 
L 2356 3500 
L 2356 3053 
L 1172 3053 
L 1172 1153 
Q 1172 725 1289 603 
Q 1406 481 1766 481 
L 2356 481 
L 2356 0 
L 1766 0 
Q 1100 0 847 248 
Q 594 497 594 1153 
L 594 3053 
L 172 3053 
L 172 3500 
L 594 3500 
L 594 4494 
L 1172 4494 
z
" transform="scale(0.015625)"/>
       <path id="DejaVuSans-75" d="M 544 1381 
L 544 3500 
L 1119 3500 
L 1119 1403 
Q 1119 906 1312 657 
Q 1506 409 1894 409 
Q 2359 409 2629 706 
Q 2900 1003 2900 1516 
L 2900 3500 
L 3475 3500 
L 3475 0 
L 2900 0 
L 2900 538 
Q 2691 219 2414 64 
Q 2138 -91 1772 -91 
Q 1169 -91 856 284 
Q 544 659 544 1381 
z
M 1991 3584 
L 1991 3584 
z
" transform="scale(0.015625)"/>
       <path id="DejaVuSans-2c" d="M 750 794 
L 1409 794 
L 1409 256 
L 897 -744 
L 494 -744 
L 750 256 
L 750 794 
z
" transform="scale(0.015625)"/>
       <path id="DejaVuSans-70" d="M 1159 525 
L 1159 -1331 
L 581 -1331 
L 581 3500 
L 1159 3500 
L 1159 2969 
Q 1341 3281 1617 3432 
Q 1894 3584 2278 3584 
Q 2916 3584 3314 3078 
Q 3713 2572 3713 1747 
Q 3713 922 3314 415 
Q 2916 -91 2278 -91 
Q 1894 -91 1617 61 
Q 1341 213 1159 525 
z
M 3116 1747 
Q 3116 2381 2855 2742 
Q 2594 3103 2138 3103 
Q 1681 3103 1420 2742 
Q 1159 2381 1159 1747 
Q 1159 1113 1420 752 
Q 1681 391 2138 391 
Q 2594 391 2855 752 
Q 3116 1113 3116 1747 
z
" transform="scale(0.015625)"/>
      </defs>
      <use xlink:href="#DejaVuSans-46"/>
      <use xlink:href="#DejaVuSans-72" x="50.269531"/>
      <use xlink:href="#DejaVuSans-61" x="91.382812"/>
      <use xlink:href="#DejaVuSans-63" x="152.662109"/>
      <use xlink:href="#DejaVuSans-74" x="207.642578"/>
      <use xlink:href="#DejaVuSans-69" x="246.851562"/>
      <use xlink:href="#DejaVuSans-6f" x="274.634766"/>
      <use xlink:href="#DejaVuSans-6e" x="335.816406"/>
      <use xlink:href="#DejaVuSans-20" x="399.195312"/>
      <use xlink:href="#DejaVuSans-6f" x="430.982422"/>
      <use xlink:href="#DejaVuSans-66" x="492.164062"/>
      <use xlink:href="#DejaVuSans-20" x="527.369141"/>
      <use xlink:href="#DejaVuSans-66" x="559.15625"/>
      <use xlink:href="#DejaVuSans-75" x="594.361328"/>
      <use xlink:href="#DejaVuSans-6e" x="657.740234"/>
      <use xlink:href="#DejaVuSans-63" x="721.119141"/>
      <use xlink:href="#DejaVuSans-74" x="776.099609"/>
      <use xlink:href="#DejaVuSans-69" x="815.308594"/>
      <use xlink:href="#DejaVuSans-6f" x="843.091797"/>
      <use xlink:href="#DejaVuSans-6e" x="904.273438"/>
      <use xlink:href="#DejaVuSans-2c" x="967.652344"/>
      <use xlink:href="#DejaVuSans-74" x="999.439453"/>
      <use xlink:href="#DejaVuSans-61" x="1038.648438"/>
      <use xlink:href="#DejaVuSans-72" x="1099.927734"/>
      <use xlink:href="#DejaVuSans-67" x="1139.291016"/>
      <use xlink:href="#DejaVuSans-65" x="1202.767578"/>
      <use xlink:href="#DejaVuSans-74" x="1264.291016"/>
      <use xlink:href="#DejaVuSans-20" x="1303.5"/>
      <use xlink:href="#DejaVuSans-70" x="1335.287109"/>
      <use xlink:href="#DejaVuSans-61" x="1398.763672"/>
      <use xlink:href="#DejaVuSans-69" x="1460.042969"/>
      <use xlink:href="#DejaVuSans-72" x="1487.826172"/>
      <use xlink:href="#DejaVuSans-73" x="1528.939453"/>
     </g>
    </g>
   </g>
   <g id="line2d_33">
    <defs>
     <path id="m4b98d97d63" d="M 0 1.5 
C 0.397805 1.5 0.77937 1.341951 1.06066 1.06066 
C 1.341951 0.77937 1.5 0.397805 1.5 0 
C 1.5 -0.397805 1.341951 -0.77937 1.06066 -1.06066 
C 0.77937 -1.341951 0.397805 -1.5 0 -1.5 
C -0.397805 -1.5 -0.77937 -1.341951 -1.06066 -1.06066 
C -1.341951 -0.77937 -1.5 -0.397805 -1.5 0 
C -1.5 0.397805 -1.341951 0.77937 -1.06066 1.06066 
C -0.77937 1.341951 -0.397805 1.5 0 1.5 
z
" style="stroke: #f5deb3"/>
    </defs>
    <g>
     <use xlink:href="#m4b98d97d63" x="136.97549" y="27.648" style="fill: #f5deb3; stroke: #f5deb3"/>
     <use xlink:href="#m4b98d97d63" x="136.97549" y="27.648" style="fill: #f5deb3; stroke: #f5deb3"/>
    </g>
   </g>
   <g id="line2d_34">
    <defs>
     <path id="m13dacf68a9" d="M 0 1.5 
C 0.397805 1.5 0.77937 1.341951 1.06066 1.06066 
C 1.341951 0.77937 1.5 0.397805 1.5 0 
C 1.5 -0.397805 1.341951 -0.77937 1.06066 -1.06066 
C 0.77937 -1.341951 0.397805 -1.5 0 -1.5 
C -0.397805 -1.5 -0.77937 -1.341951 -1.06066 -1.06066 
C -1.341951 -0.77937 -1.5 -0.397805 -1.5 0 
C -1.5 0.397805 -1.341951 0.77937 -1.06066 1.06066 
C -0.77937 1.341951 -0.397805 1.5 0 1.5 
z
" style="stroke: #000080"/>
    </defs>
    <g>
     <use xlink:href="#m13dacf68a9" x="182.14639" y="27.648" style="fill: #000080; stroke: #000080"/>
     <use xlink:href="#m13dacf68a9" x="182.14639" y="27.648" style="fill: #000080; stroke: #000080"/>
    </g>
   </g>
   <g id="line2d_35">
    <path d="M 44.560826 298.944 
L 44.560826 294.688376 
L 57.6 294.688376 
L 57.6 288.304941 
L 65.227428 288.304941 
L 65.227428 287.241035 
L 70.639174 287.241035 
L 70.639174 284.687661 
L 74.836851 284.687661 
L 74.836851 281.070381 
L 78.266603 281.070381 
L 78.266603 279.793694 
L 81.166416 279.793694 
L 81.166416 277.453101 
L 83.678349 277.453101 
L 83.678349 275.538071 
L 85.894031 275.538071 
L 85.894031 274.686946 
L 87.876026 274.686946 
L 87.876026 273.410259 
L 89.668958 273.410259 
L 89.668958 272.133572 
L 91.305777 272.133572 
L 91.305777 271.495228 
L 92.811505 271.495228 
L 92.811505 269.792979 
L 94.205591 269.792979 
L 94.205591 269.154635 
L 95.503454 269.154635 
L 95.503454 268.516292 
L 96.717523 268.516292 
L 96.717523 267.026824 
L 97.857967 267.026824 
L 97.857967 266.814042 
L 98.933205 266.814042 
L 98.933205 265.962918 
L 100.9152 265.962918 
L 100.9152 265.537355 
L 101.833019 265.537355 
L 101.833019 265.111793 
L 104.344952 265.111793 
L 104.344952 263.196762 
L 105.112877 263.196762 
L 105.112877 262.983981 
L 105.850679 262.983981 
L 105.850679 260.856169 
L 106.560633 260.856169 
L 106.560633 260.643388 
L 107.244765 260.643388 
L 107.244765 260.005045 
L 107.904887 260.005045 
L 107.904887 259.792264 
L 109.159456 259.792264 
L 109.159456 259.579482 
L 109.756698 259.579482 
L 109.756698 259.366701 
L 110.897141 259.366701 
L 110.897141 258.941139 
L 111.97238 258.941139 
L 111.97238 258.728358 
L 112.989468 258.728358 
L 112.989468 258.515576 
L 113.478107 258.515576 
L 113.478107 257.664452 
L 113.954374 257.664452 
L 113.954374 257.238889 
L 115.314838 257.238889 
L 115.314838 256.174984 
L 115.747307 256.174984 
L 115.747307 254.685515 
L 116.170056 254.685515 
L 116.170056 254.259953 
L 116.583514 254.259953 
L 116.583514 254.047172 
L 118.152051 254.047172 
L 118.152051 253.834391 
L 118.524569 253.834391 
L 118.524569 253.408828 
L 118.889854 253.408828 
L 118.889854 253.196047 
L 119.24818 253.196047 
L 119.24818 252.983266 
L 119.599808 252.983266 
L 119.599808 252.132141 
L 120.28394 252.132141 
L 120.28394 250.004329 
L 120.616896 250.004329 
L 120.616896 249.365986 
L 120.944062 249.365986 
L 120.944062 249.153205 
L 121.581803 249.153205 
L 121.581803 248.940424 
L 121.892744 248.940424 
L 121.892744 248.727642 
L 122.19863 248.727642 
L 122.19863 248.514861 
L 122.499621 248.514861 
L 122.499621 248.30208 
L 122.795872 248.30208 
L 122.795872 247.238174 
L 123.08753 247.238174 
L 123.08753 246.812612 
L 123.374735 246.812612 
L 123.374735 246.387049 
L 124.210942 246.387049 
L 124.210942 245.961487 
L 124.481616 245.961487 
L 124.481616 245.748706 
L 124.748451 245.748706 
L 124.748451 245.323144 
L 125.011554 245.323144 
L 125.011554 244.897581 
L 125.526971 244.897581 
L 125.526971 244.6848 
L 125.779479 244.6848 
L 125.779479 244.472019 
L 126.028642 244.472019 
L 126.028642 244.046456 
L 126.274549 244.046456 
L 126.274549 243.833675 
L 126.517282 243.833675 
L 126.517282 243.195332 
L 126.993549 243.195332 
L 126.993549 241.06752 
L 127.458055 241.06752 
L 127.458055 240.854739 
L 127.686077 240.854739 
L 127.686077 240.429176 
L 127.911368 240.429176 
L 127.911368 240.003614 
L 128.57149 240.003614 
L 128.57149 239.790833 
L 128.786481 239.790833 
L 128.786481 239.365271 
L 129.622688 239.365271 
L 129.622688 239.152489 
L 129.826058 239.152489 
L 129.826058 238.301365 
L 130.4233 238.301365 
L 130.4233 237.663021 
L 130.618241 237.663021 
L 130.618241 236.173553 
L 130.811181 236.173553 
L 130.811181 235.109647 
L 131.002163 235.109647 
L 131.002163 234.896866 
L 131.191226 234.896866 
L 131.191226 234.684085 
L 131.747272 234.684085 
L 131.747272 234.471304 
L 131.929028 234.471304 
L 131.929028 233.83296 
L 132.109044 233.83296 
L 132.109044 233.620179 
L 132.287354 233.620179 
L 132.287354 232.981835 
L 132.812362 232.981835 
L 132.812362 232.343492 
L 132.984158 232.343492 
L 132.984158 231.705148 
L 133.154399 231.705148 
L 133.154399 230.641242 
L 133.323114 230.641242 
L 133.323114 230.428461 
L 133.656071 230.428461 
L 133.656071 229.364555 
L 134.14471 229.364555 
L 134.14471 229.151774 
L 134.304809 229.151774 
L 134.304809 228.726212 
L 134.463557 228.726212 
L 134.463557 227.875087 
L 134.620977 227.875087 
L 134.620977 227.662306 
L 135.237805 227.662306 
L 135.237805 226.172838 
L 135.388902 226.172838 
L 135.388902 225.534494 
L 135.981441 225.534494 
L 135.981441 224.683369 
L 136.126705 224.683369 
L 136.126705 224.470588 
L 136.270855 224.470588 
L 136.270855 224.257807 
L 136.413909 224.257807 
L 136.413909 224.045026 
L 136.696795 224.045026 
L 136.696795 223.619464 
L 136.836659 223.619464 
L 136.836659 223.406682 
L 136.97549 223.406682 
L 136.97549 223.193901 
L 137.113304 223.193901 
L 137.113304 222.98112 
L 137.520791 222.98112 
L 137.520791 222.555558 
L 137.654681 222.555558 
L 137.654681 220.640527 
L 137.787626 220.640527 
L 137.787626 219.576621 
L 138.050729 219.576621 
L 138.050729 219.36384 
L 138.310202 219.36384 
L 138.310202 219.151059 
L 138.438609 219.151059 
L 138.438609 218.725496 
L 138.566146 218.725496 
L 138.566146 218.512715 
L 138.692823 218.512715 
L 138.692823 217.236028 
L 138.818654 217.236028 
L 138.818654 216.597685 
L 138.943648 216.597685 
L 138.943648 215.74656 
L 139.067817 215.74656 
L 139.067817 214.469873 
L 139.191172 214.469873 
L 139.191172 213.193186 
L 139.313723 213.193186 
L 139.313723 211.916499 
L 139.435481 211.916499 
L 139.435481 211.490936 
L 139.556456 211.490936 
L 139.556456 211.065374 
L 139.796097 211.065374 
L 139.796097 210.427031 
L 139.914782 210.427031 
L 139.914782 210.214249 
L 140.032723 210.214249 
L 140.032723 209.788687 
L 140.14993 209.788687 
L 140.14993 208.937562 
L 140.26641 208.937562 
L 140.26641 207.235313 
L 140.382174 207.235313 
L 140.382174 206.809751 
L 140.49723 206.809751 
L 140.49723 206.596969 
L 140.611586 206.596969 
L 140.611586 205.533064 
L 140.725251 205.533064 
L 140.725251 204.681939 
L 140.838234 204.681939 
L 140.838234 204.256376 
L 140.950542 204.256376 
L 140.950542 203.618033 
L 141.062184 203.618033 
L 141.062184 203.405252 
L 141.283499 203.405252 
L 141.393187 202.766908 
L 141.50224 202.766908 
L 141.50224 202.341346 
L 141.718467 202.341346 
L 141.825656 200.426315 
L 141.932237 200.426315 
L 142.038218 199.787972 
L 142.143605 199.787972 
L 142.248405 198.298504 
L 142.45627 198.298504 
L 142.559347 196.383473 
L 142.661862 196.383473 
L 142.763822 195.319567 
L 142.865233 195.319567 
L 142.865233 194.255661 
L 143.066428 194.255661 
L 143.166224 192.978974 
L 143.364242 192.978974 
L 143.364242 191.063944 
L 143.560197 191.063944 
L 143.657415 189.574475 
L 143.850356 189.574475 
L 143.946089 188.510569 
L 144.041338 188.510569 
L 144.136106 188.085007 
L 144.324223 188.085007 
L 144.324223 186.80832 
L 144.602918 186.80832 
L 144.694906 186.169976 
L 144.877544 186.169976 
L 144.968202 184.893289 
L 145.058426 184.893289 
L 145.148219 183.829384 
L 145.237585 183.829384 
L 145.326529 182.978259 
L 145.415054 182.978259 
L 145.503164 181.063228 
L 145.590864 181.063228 
L 145.678157 180.212104 
L 145.765046 180.212104 
L 145.765046 179.148198 
L 146.023332 179.148198 
L 146.108646 178.297073 
L 146.193574 178.297073 
L 146.27812 177.445948 
L 146.446082 177.445948 
L 146.529503 176.594824 
L 146.859539 176.594824 
L 146.941151 175.743699 
L 147.103321 175.743699 
L 147.183884 175.318136 
L 147.264104 175.318136 
L 147.343984 174.467012 
L 147.423525 174.467012 
L 147.502732 173.828668 
L 147.581606 173.828668 
L 147.581606 173.615887 
L 147.73837 173.615887 
L 147.73837 172.764762 
L 147.893838 172.764762 
L 147.971093 171.488075 
L 148.124658 171.488075 
L 148.200973 170.424169 
L 148.352679 170.424169 
L 148.428077 169.573045 
L 148.57797 169.573045 
L 148.57797 169.360264 
L 148.800595 169.360264 
L 148.800595 168.296358 
L 148.947561 168.296358 
L 149.020615 167.445233 
L 149.238092 167.445233 
L 149.31003 166.168546 
L 149.453084 166.168546 
L 149.453084 165.317421 
L 149.595059 165.317421 
L 149.595059 165.10464 
L 149.73597 165.10464 
L 149.806031 164.466296 
L 149.875833 164.466296 
L 149.945377 163.615172 
L 150.014665 163.615172 
L 150.014665 163.189609 
L 150.221009 163.189609 
L 150.221009 162.338485 
L 150.357325 162.338485 
L 150.425115 161.700141 
L 150.559965 161.700141 
L 150.62703 160.210673 
L 150.693856 160.210673 
L 150.760445 159.146767 
L 150.8268 159.146767 
L 150.892922 157.87008 
L 150.958812 157.87008 
L 150.958812 157.231736 
L 151.089903 157.231736 
L 151.155108 156.593393 
L 151.349377 156.593393 
L 151.41369 154.678362 
L 151.54166 154.678362 
L 151.54166 154.465581 
L 151.731998 154.465581 
L 151.731998 153.614456 
L 151.857828 153.614456 
L 151.920429 151.061082 
L 151.982822 151.061082 
L 152.045009 150.209958 
L 152.230346 150.209958 
L 152.230346 149.784395 
L 152.352898 149.784395 
L 152.413875 149.146052 
L 152.53524 149.146052 
L 152.53524 148.720489 
L 152.715833 148.720489 
L 152.715833 147.656584 
L 152.835271 147.656584 
L 152.835271 146.167115 
L 152.953957 146.167115 
L 152.953957 145.741553 
L 153.071898 145.741553 
L 153.130592 145.315991 
L 153.189104 145.315991 
L 153.247435 144.464866 
L 153.305585 144.464866 
L 153.305585 144.252085 
L 153.421349 144.252085 
L 153.478964 143.188179 
L 153.536404 143.188179 
L 153.536404 142.762616 
L 153.707679 142.762616 
L 153.764426 141.273148 
L 153.933646 141.273148 
L 153.989717 139.78368 
L 154.101358 139.78368 
L 154.212341 138.932555 
L 154.322673 138.932555 
L 154.432362 137.655868 
L 154.541415 137.655868 
L 154.595705 136.591962 
L 154.703817 136.591962 
L 154.757642 135.528056 
L 154.918196 135.528056 
L 154.971412 133.613026 
L 155.077392 133.613026 
L 155.18278 132.123558 
L 155.235253 132.123558 
L 155.339761 131.059652 
L 155.598521 131.059652 
L 155.701037 129.570184 
L 155.904407 129.570184 
L 155.954908 128.719059 
L 156.055505 128.719059 
L 156.105602 127.655153 
L 156.205398 127.655153 
L 156.304668 126.591247 
L 156.354107 126.591247 
L 156.452597 125.101779 
L 156.501649 125.101779 
L 156.599372 123.612311 
L 156.648044 123.612311 
L 156.696589 122.548405 
L 156.793307 122.548405 
L 156.88953 121.69728 
L 156.985263 121.69728 
L 157.080512 120.207812 
L 157.127956 120.207812 
L 157.222487 119.569468 
L 157.363398 119.569468 
L 157.456756 118.505562 
L 157.503261 118.505562 
L 157.595929 116.377751 
L 157.642093 116.377751 
L 157.734081 114.675501 
L 157.779907 114.675501 
L 157.871225 113.611595 
L 157.962102 113.611595 
L 158.052543 111.696565 
L 158.0976 111.696565 
L 158.14255 109.568753 
L 158.232129 109.568753 
L 158.321284 106.377035 
L 158.410018 106.377035 
L 158.498335 104.674786 
L 158.542339 104.674786 
L 158.630038 103.398099 
L 158.673735 103.398099 
L 158.760826 102.759755 
L 158.804221 102.759755 
L 158.890711 101.695849 
L 158.933807 101.695849 
L 159.019705 100.631944 
L 159.062507 100.631944 
L 159.14782 98.078569 
L 159.190332 98.078569 
L 159.275069 97.227445 
L 159.317295 97.227445 
L 159.401463 96.801882 
L 159.443406 96.801882 
L 159.485256 93.822946 
L 159.568678 93.822946 
L 159.651731 92.971821 
L 159.693121 92.971821 
L 159.775628 91.269572 
L 159.816746 91.269572 
L 159.898714 90.631228 
L 159.939564 90.631228 
L 160.020999 89.567322 
L 160.102084 89.567322 
L 160.142495 88.077854 
L 160.223059 88.077854 
L 160.303279 87.226729 
L 160.422971 87.226729 
L 160.502345 86.588386 
L 160.581385 86.588386 
L 160.581385 86.375605 
L 160.738476 86.375605 
L 160.816532 85.098918 
L 160.855439 85.098918 
L 160.933013 84.247793 
L 161.087207 84.247793 
L 161.163832 81.694419 
L 161.202028 81.694419 
L 161.240147 80.843294 
L 161.354042 80.843294 
L 161.391854 79.992169 
L 161.504837 79.992169 
L 161.579783 79.141045 
L 161.728786 79.141045 
L 161.839769 78.715482 
L 161.913396 78.715482 
L 161.913396 78.28992 
L 162.132562 78.28992 
L 162.205054 76.587671 
L 162.277267 76.587671 
L 162.38507 75.949327 
L 162.456597 75.949327 
L 162.56338 75.098202 
L 162.59884 75.098202 
L 162.59884 74.885421 
L 162.775144 74.885421 
L 162.845206 74.247078 
L 162.949812 74.247078 
L 163.053839 73.608734 
L 163.122872 73.608734 
L 163.122872 73.183172 
L 163.260183 73.183172 
L 163.362513 72.119266 
L 163.3965 72.119266 
L 163.430425 71.268141 
L 163.531835 71.268141 
L 163.59914 70.842579 
L 163.666204 70.842579 
L 163.766354 69.140329 
L 163.79962 69.140329 
L 163.865975 68.501986 
L 163.932096 68.501986 
L 164.030845 67.225299 
L 164.09639 67.225299 
L 164.194282 66.586955 
L 164.2268 66.586955 
L 164.324018 65.523049 
L 164.388551 65.523049 
L 164.388551 65.310268 
L 164.612692 65.310268 
L 164.70794 64.459144 
L 164.739583 64.459144 
L 164.834193 63.182456 
L 164.865624 63.182456 
L 164.959603 61.480207 
L 164.990826 61.480207 
L 165.053116 60.841864 
L 165.1152 60.841864 
L 165.17708 59.139614 
L 165.392072 59.139614 
L 165.483464 58.501271 
L 165.664928 58.501271 
L 165.755007 57.437365 
L 165.784938 57.437365 
L 165.874446 56.799021 
L 165.933882 56.799021 
L 166.022686 55.522334 
L 166.111072 55.522334 
L 166.199045 54.458428 
L 166.315707 54.458428 
L 166.344759 53.820085 
L 166.460523 53.820085 
L 166.546881 52.543398 
L 166.575579 52.543398 
L 166.632844 51.905054 
L 166.775248 51.905054 
L 166.860176 51.479492 
L 166.916583 51.479492 
L 166.944723 51.053929 
L 167.084795 51.053929 
L 167.084795 50.841148 
L 167.279159 50.841148 
L 167.361848 50.415586 
L 167.471536 50.415586 
L 167.580589 49.990024 
L 167.689013 49.990024 
L 167.742992 49.35168 
L 167.823671 49.35168 
L 167.823671 49.138899 
L 167.957371 49.138899 
L 167.983997 48.500555 
L 168.116567 48.500555 
L 168.169334 47.862212 
L 168.274427 47.862212 
L 168.274427 47.223868 
L 168.404973 47.223868 
L 168.456938 46.585525 
L 168.534619 46.585525 
L 168.637696 46.159962 
L 168.689024 46.159962 
L 168.765753 45.7344 
L 168.892945 45.7344 
L 168.943582 45.096056 
L 169.144777 45.096056 
L 169.194741 44.670494 
L 169.343842 44.670494 
L 169.417952 43.393807 
L 169.540824 43.393807 
L 169.540824 43.181026 
L 169.662898 43.181026 
L 169.662898 42.968245 
L 169.784185 42.968245 
L 169.856584 41.904339 
L 169.904695 41.904339 
L 170.00055 41.265995 
L 170.238073 41.265995 
L 170.308749 40.414871 
L 170.355719 40.414871 
L 170.425955 39.776527 
L 170.61198 39.776527 
L 170.681267 39.138184 
L 170.7503 39.138184 
L 170.796182 38.712621 
L 170.978599 38.712621 
L 170.978599 38.49984 
L 171.20416 38.49984 
L 171.248949 37.861496 
L 171.537509 37.861496 
L 171.647326 37.223153 
L 171.73472 37.223153 
L 171.82171 36.797591 
L 171.88669 36.797591 
L 171.972982 36.159247 
L 172.015979 36.159247 
L 172.058879 35.733685 
L 172.271923 35.733685 
L 172.271923 35.308122 
L 172.482581 35.308122 
L 172.482581 35.095341 
L 172.649425 35.095341 
L 172.649425 34.88256 
L 172.876446 34.88256 
L 172.958324 34.456998 
L 173.262233 34.456998 
L 173.262233 34.244216 
L 173.541519 34.244216 
L 173.640268 33.818654 
L 173.758086 33.818654 
L 173.758086 33.605873 
L 174.087951 33.605873 
L 174.087951 33.393092 
L 174.260272 33.393092 
L 174.355328 32.967529 
L 174.656319 32.967529 
L 174.712223 32.541967 
L 174.860492 32.541967 
L 174.860492 32.329186 
L 175.0442 32.329186 
L 175.0442 32.116405 
L 175.244228 32.116405 
L 175.262307 31.690842 
L 175.460042 31.690842 
L 175.460042 31.478061 
L 175.919314 31.478061 
L 175.988986 31.052499 
L 176.058402 31.052499 
L 176.058402 30.839718 
L 176.554146 30.839718 
L 176.554146 30.626936 
L 177.02071 30.626936 
L 177.086427 29.988593 
L 177.314646 29.988593 
L 177.411613 29.350249 
L 177.651866 29.350249 
L 177.651866 29.137468 
L 178.6589 29.137468 
L 178.749196 28.711906 
L 179.150247 28.711906 
L 179.150247 28.499125 
L 179.456369 28.499125 
L 179.456369 28.286344 
L 180.755196 28.286344 
L 180.755196 28.073562 
L 181.116069 28.073562 
L 181.116069 27.860781 
L 182.14639 27.860781 
L 182.14639 27.648 
L 360.8064 27.648 
L 360.8064 27.648 
" style="fill: none; stroke: #000080; stroke-width: 1.5; stroke-linecap: square"/>
   </g>
   <g id="line2d_36">
    <defs>
     <path id="m0873995187" d="M 0 6 
C 1.591219 6 3.117479 5.367802 4.242641 4.242641 
C 5.367802 3.117479 6 1.591219 6 0 
C 6 -1.591219 5.367802 -3.117479 4.242641 -4.242641 
C 3.117479 -5.367802 1.591219 -6 0 -6 
C -1.591219 -6 -3.117479 -5.367802 -4.242641 -4.242641 
C -5.367802 -3.117479 -6 -1.591219 -6 0 
C -6 1.591219 -5.367802 3.117479 -4.242641 4.242641 
C -3.117479 5.367802 -1.591219 6 0 6 
z
" style="stroke: #000080; stroke-width: 1.5"/>
    </defs>
    <g>
     <use xlink:href="#m0873995187" x="119.599808" y="252.983266" style="fill-opacity: 0; stroke: #000080; stroke-width: 1.5"/>
     <use xlink:href="#m0873995187" x="160.777545" y="85.737261" style="fill-opacity: 0; stroke: #000080; stroke-width: 1.5"/>
     <use xlink:href="#m0873995187" x="182.14639" y="27.860781" style="fill-opacity: 0; stroke: #000080; stroke-width: 1.5"/>
     <use xlink:href="#m0873995187" x="182.14639" y="27.648" style="fill-opacity: 0; stroke: #000080; stroke-width: 1.5"/>
     <use xlink:href="#m0873995187" x="182.14639" y="27.648" style="fill-opacity: 0; stroke: #000080; stroke-width: 1.5"/>
     <use xlink:href="#m0873995187" x="360.8064" y="27.648" style="fill-opacity: 0; stroke: #000080; stroke-width: 1.5"/>
    </g>
   </g>
   <g id="line2d_37">
    <path style="fill: none; stroke: #000080; stroke-width: 1.5; stroke-linecap: square"/>
    <g/>
   </g>
   <g id="line2d_38">
    <path d="M 105.850679 260.856169 
" clip-path="url(#p6be1340a86)" style="fill: none; stroke: #000080; stroke-width: 1.5; stroke-linecap: square"/>
    <defs>
     <path id="meff9bb6861" d="M -12 12 
L 12 -12 
M -12 -12 
L 12 12 
" style="stroke: #000080"/>
    </defs>
    <g clip-path="url(#p6be1340a86)">
     <use xlink:href="#meff9bb6861" x="105.850679" y="260.856169" style="fill: #000080; stroke: #000080"/>
    </g>
   </g>
   <g id="line2d_39">
    <defs>
     <path id="m3c7a94184e" d="M 0 1.5 
C 0.397805 1.5 0.77937 1.341951 1.06066 1.06066 
C 1.341951 0.77937 1.5 0.397805 1.5 0 
C 1.5 -0.397805 1.341951 -0.77937 1.06066 -1.06066 
C 0.77937 -1.341951 0.397805 -1.5 0 -1.5 
C -0.397805 -1.5 -0.77937 -1.341951 -1.06066 -1.06066 
C -1.341951 -0.77937 -1.5 -0.397805 -1.5 0 
C -1.5 0.397805 -1.341951 0.77937 -1.06066 1.06066 
C -0.77937 1.341951 -0.397805 1.5 0 1.5 
z
" style="stroke: #ff00ff"/>
    </defs>
    <g>
     <use xlink:href="#m3c7a94184e" x="182.616704" y="27.648" style="fill: #ff00ff; stroke: #ff00ff"/>
     <use xlink:href="#m3c7a94184e" x="182.616704" y="27.648" style="fill: #ff00ff; stroke: #ff00ff"/>
    </g>
   </g>
   <g id="line2d_40">
    <path d="M 44.560826 298.944 
L 44.560826 294.688376 
L 57.6 294.688376 
L 57.6 292.773346 
L 65.227428 292.773346 
L 65.227428 291.283878 
L 70.639174 291.283878 
L 70.639174 288.304941 
L 74.836851 288.304941 
L 74.836851 284.47488 
L 78.266603 284.47488 
L 78.266603 282.347068 
L 81.166416 282.347068 
L 81.166416 278.942569 
L 83.678349 278.942569 
L 83.678349 275.963633 
L 85.894031 275.963633 
L 85.894031 274.048602 
L 87.876026 274.048602 
L 87.876026 273.62304 
L 89.668958 273.62304 
L 89.668958 272.984696 
L 91.305777 272.984696 
L 91.305777 271.920791 
L 92.811505 271.920791 
L 92.811505 269.792979 
L 94.205591 269.792979 
L 94.205591 268.941854 
L 96.717523 268.941854 
L 96.717523 268.729073 
L 97.857967 268.729073 
L 97.857967 266.814042 
L 98.933205 266.814042 
L 98.933205 266.38848 
L 99.950294 266.38848 
L 99.950294 266.175699 
L 100.9152 266.175699 
L 100.9152 265.537355 
L 101.833019 265.537355 
L 101.833019 265.324574 
L 102.708132 265.324574 
L 102.708132 264.473449 
L 105.112877 264.473449 
L 105.112877 262.558419 
L 106.560633 262.558419 
L 106.560633 261.707294 
L 108.542628 261.707294 
L 108.542628 261.494513 
L 109.756698 261.494513 
L 109.756698 260.430607 
L 110.897141 260.430607 
L 110.897141 260.217826 
L 111.442442 260.217826 
L 111.442442 260.005045 
L 112.487797 260.005045 
L 112.487797 258.941139 
L 112.989468 258.941139 
L 112.989468 258.515576 
L 113.478107 258.515576 
L 113.478107 257.877233 
L 113.954374 257.877233 
L 113.954374 257.664452 
L 114.418881 257.664452 
L 114.418881 257.238889 
L 115.314838 257.238889 
L 115.314838 256.600546 
L 115.747307 256.600546 
L 115.747307 256.174984 
L 116.170056 256.174984 
L 116.170056 254.259953 
L 116.583514 254.259953 
L 116.583514 253.408828 
L 116.988079 253.408828 
L 116.988079 251.068235 
L 117.384126 251.068235 
L 117.384126 250.855454 
L 117.772007 250.855454 
L 117.772007 250.217111 
L 118.152051 250.217111 
L 118.152051 249.791548 
L 118.524569 249.791548 
L 118.524569 247.876518 
L 118.889854 247.876518 
L 118.889854 247.025393 
L 119.24818 247.025393 
L 119.24818 245.748706 
L 119.599808 245.748706 
L 119.599808 244.6848 
L 119.944983 244.6848 
L 119.944983 244.046456 
L 120.28394 244.046456 
L 120.28394 243.195332 
L 120.944062 243.195332 
L 120.944062 242.344207 
L 121.265635 242.344207 
L 121.265635 241.705864 
L 121.581803 241.705864 
L 121.581803 241.493082 
L 122.19863 241.493082 
L 122.19863 241.280301 
L 122.499621 241.280301 
L 122.499621 240.854739 
L 122.795872 240.854739 
L 122.795872 240.003614 
L 123.374735 240.003614 
L 123.374735 239.365271 
L 123.657621 239.365271 
L 123.657621 239.152489 
L 124.210942 239.152489 
L 124.210942 238.939708 
L 124.481616 238.939708 
L 124.481616 238.301365 
L 124.748451 238.301365 
L 124.748451 237.663021 
L 125.011554 237.663021 
L 125.011554 237.237459 
L 125.526971 237.237459 
L 125.526971 235.960772 
L 126.028642 235.960772 
L 126.028642 235.747991 
L 126.274549 235.747991 
L 126.274549 235.322428 
L 126.993549 235.322428 
L 126.993549 234.471304 
L 127.227236 234.471304 
L 127.227236 234.258522 
L 127.458055 234.258522 
L 127.458055 234.045741 
L 127.686077 234.045741 
L 127.686077 233.194616 
L 127.911368 233.194616 
L 127.911368 232.769054 
L 128.354013 232.769054 
L 128.354013 231.917929 
L 128.786481 231.917929 
L 128.786481 231.492367 
L 129.417095 231.492367 
L 129.417095 230.854024 
L 129.622688 230.854024 
L 129.622688 230.428461 
L 130.027253 230.428461 
L 130.027253 227.875087 
L 130.226319 227.875087 
L 130.226319 227.449525 
L 131.002163 227.449525 
L 131.002163 226.811181 
L 131.378407 226.811181 
L 131.378407 225.534494 
L 131.563744 225.534494 
L 131.563744 225.108932 
L 132.638982 225.108932 
L 132.638982 224.683369 
L 133.154399 224.683369 
L 133.154399 224.470588 
L 133.323114 224.470588 
L 133.323114 224.045026 
L 133.490329 224.045026 
L 133.490329 223.832245 
L 133.820365 223.832245 
L 133.820365 223.193901 
L 134.14471 223.193901 
L 134.14471 222.129995 
L 134.304809 222.129995 
L 134.304809 221.917214 
L 134.463557 221.917214 
L 134.463557 221.704433 
L 134.77709 221.704433 
L 134.77709 221.066089 
L 134.931919 221.066089 
L 134.931919 220.214965 
L 135.085483 220.214965 
L 135.085483 219.151059 
L 135.237805 219.151059 
L 135.237805 218.725496 
L 135.388902 218.725496 
L 135.388902 218.512715 
L 135.538796 218.512715 
L 135.538796 218.299934 
L 135.835047 218.299934 
L 135.835047 218.087153 
L 135.981441 218.087153 
L 135.981441 217.874372 
L 136.126705 217.874372 
L 136.126705 217.661591 
L 136.270855 217.661591 
L 136.270855 217.448809 
L 136.555884 217.448809 
L 136.555884 217.023247 
L 136.836659 217.023247 
L 136.836659 215.74656 
L 137.113304 215.74656 
L 137.113304 215.533779 
L 137.250116 215.533779 
L 137.250116 215.320998 
L 137.38594 215.320998 
L 137.38594 214.469873 
L 137.520791 214.469873 
L 137.520791 213.618748 
L 137.787626 213.618748 
L 137.787626 212.554842 
L 137.919637 212.554842 
L 137.919637 211.703718 
L 138.050729 211.703718 
L 138.050729 211.490936 
L 138.180913 211.490936 
L 138.180913 210.852593 
L 138.310202 210.852593 
L 138.310202 208.086438 
L 138.438609 208.086438 
L 138.438609 207.448094 
L 138.566146 207.448094 
L 138.566146 207.022532 
L 138.692823 207.022532 
L 138.692823 206.171407 
L 138.818654 206.171407 
L 138.818654 205.958626 
L 138.943648 205.958626 
L 138.943648 204.89472 
L 139.191172 204.89472 
L 139.191172 203.830814 
L 139.556456 203.830814 
L 139.556456 202.979689 
L 139.676658 202.979689 
L 139.676658 202.766908 
L 139.796097 202.766908 
L 139.796097 202.554127 
L 139.914782 202.554127 
L 139.914782 202.128565 
L 140.382174 202.128565 
L 140.382174 201.703002 
L 140.49723 201.703002 
L 140.49723 201.064659 
L 140.611586 201.064659 
L 140.611586 200.851878 
L 140.725251 200.851878 
L 140.725251 200.000753 
L 140.838234 200.000753 
L 140.838234 199.787972 
L 140.950542 199.787972 
L 140.950542 199.362409 
L 141.062184 199.362409 
L 141.173167 198.298504 
L 141.393187 198.298504 
L 141.50224 197.66016 
L 141.610664 197.66016 
L 141.610664 197.447379 
L 141.825656 197.447379 
L 141.825656 197.234598 
L 142.038218 197.234598 
L 142.143605 196.809035 
L 142.248405 196.809035 
L 142.352625 196.170692 
L 142.763822 196.170692 
L 142.865233 194.894005 
L 142.966099 194.894005 
L 142.966099 194.468442 
L 143.265494 194.468442 
L 143.364242 192.340631 
L 143.462475 192.340631 
L 143.560197 191.702287 
L 143.657415 191.702287 
L 143.754133 190.851162 
L 143.946089 190.851162 
L 144.041338 190.212819 
L 144.417581 190.212819 
L 144.510478 189.361694 
L 144.602918 189.361694 
L 144.694906 187.446664 
L 145.058426 187.446664 
L 145.058426 187.233882 
L 145.237585 187.233882 
L 145.237585 186.80832 
L 145.415054 186.80832 
L 145.503164 185.531633 
L 145.590864 185.531633 
L 145.678157 184.467727 
L 145.765046 184.467727 
L 145.851536 184.042165 
L 145.93763 184.042165 
L 145.93763 183.829384 
L 146.108646 183.829384 
L 146.108646 183.616602 
L 146.27812 183.616602 
L 146.362288 182.552696 
L 146.529503 182.552696 
L 146.612557 182.127134 
L 146.777571 182.127134 
L 146.859539 181.488791 
L 147.103321 181.488791 
L 147.103321 180.637666 
L 147.264104 180.637666 
L 147.343984 180.212104 
L 147.423525 180.212104 
L 147.502732 178.084292 
L 147.581606 178.084292 
L 147.660152 176.382042 
L 147.893838 176.382042 
L 147.971093 175.530918 
L 148.048032 175.530918 
L 148.124658 174.892574 
L 148.200973 174.892574 
L 148.200973 174.679793 
L 148.352679 174.679793 
L 148.352679 174.467012 
L 148.503173 174.467012 
L 148.503173 174.254231 
L 148.726679 174.254231 
L 148.726679 173.828668 
L 149.020615 173.828668 
L 149.020615 173.403106 
L 149.165879 173.403106 
L 149.165879 173.190325 
L 149.381693 173.190325 
L 149.381693 171.488075 
L 149.524205 171.488075 
L 149.595059 170.849732 
L 149.73597 170.849732 
L 149.73597 169.573045 
L 149.875833 169.573045 
L 149.945377 169.147482 
L 150.014665 169.147482 
L 150.083698 168.509139 
L 150.152479 168.509139 
L 150.152479 168.296358 
L 150.289291 168.296358 
L 150.357325 167.870795 
L 150.425115 167.870795 
L 150.492661 166.381327 
L 150.559965 166.381327 
L 150.62703 165.10464 
L 150.760445 165.10464 
L 150.760445 164.891859 
L 151.024471 164.891859 
L 151.089903 163.615172 
L 151.220087 163.615172 
L 151.220087 163.402391 
L 151.349377 163.402391 
L 151.41369 161.700141 
L 151.54166 161.700141 
L 151.60532 160.636235 
L 151.668766 160.636235 
L 151.668766 160.210673 
L 151.795018 160.210673 
L 151.857828 159.785111 
L 151.982822 159.785111 
L 152.045009 159.146767 
L 152.106991 159.146767 
L 152.16877 158.295642 
L 152.230346 158.295642 
L 152.291722 155.103925 
L 152.352898 155.103925 
L 152.352898 154.891144 
L 152.53524 154.891144 
L 152.595631 154.2528 
L 152.655828 154.2528 
L 152.715833 151.273864 
L 152.835271 151.273864 
L 152.894708 150.848301 
L 153.071898 150.848301 
L 153.071898 149.784395 
L 153.189104 149.784395 
L 153.189104 149.146052 
L 153.363556 149.146052 
L 153.363556 148.933271 
L 153.478964 148.933271 
L 153.478964 148.507708 
L 153.650761 148.507708 
L 153.707679 147.443802 
L 153.764426 147.443802 
L 153.764426 147.231021 
L 153.933646 147.231021 
L 153.989717 146.805459 
L 154.04562 146.805459 
L 154.04562 146.592678 
L 154.212341 146.592678 
L 154.322673 145.954334 
L 154.377597 145.954334 
L 154.486967 143.613741 
L 154.595705 143.613741 
L 154.703817 141.911492 
L 154.811312 141.911492 
L 154.86483 140.422024 
L 154.971412 140.422024 
L 155.024477 139.145336 
L 155.18278 139.145336 
L 155.235253 138.294212 
L 155.339761 138.294212 
L 155.391799 137.230306 
L 155.547053 137.230306 
L 155.598521 136.379181 
L 155.701037 136.379181 
L 155.802997 134.676932 
L 155.904407 134.676932 
L 156.005274 133.400245 
L 156.055505 133.400245 
L 156.155566 132.123558 
L 156.205398 132.123558 
L 156.304668 131.059652 
L 156.354107 131.059652 
L 156.452597 130.208527 
L 156.501649 130.208527 
L 156.599372 129.570184 
L 156.648044 129.570184 
L 156.696589 129.144621 
L 156.793307 129.144621 
L 156.84148 128.506278 
L 156.937458 128.506278 
L 157.032948 126.804028 
L 157.175281 126.804028 
L 157.269574 125.31456 
L 157.316545 125.31456 
L 157.363398 124.463435 
L 157.456756 124.463435 
L 157.549652 123.399529 
L 157.642093 123.399529 
L 157.734081 121.271718 
L 157.779907 121.271718 
L 157.779907 120.846155 
L 157.962102 120.846155 
L 158.007377 118.931125 
L 158.0976 118.931125 
L 158.14255 117.867219 
L 158.276759 117.867219 
L 158.365703 116.803313 
L 158.410018 116.803313 
L 158.454228 115.739407 
L 158.58624 115.739407 
L 158.673735 114.675501 
L 158.717331 114.675501 
L 158.804221 113.611595 
L 158.847515 113.611595 
L 158.890711 112.334908 
L 158.976805 112.334908 
L 159.019705 111.696565 
L 159.105212 111.696565 
L 159.190332 110.84544 
L 159.275069 110.84544 
L 159.359426 110.419878 
L 159.401463 110.419878 
L 159.485256 108.930409 
L 159.568678 108.930409 
L 159.651731 106.377035 
L 159.734419 106.377035 
L 159.816746 105.951473 
L 159.857774 105.951473 
L 159.939564 103.61088 
L 160.020999 103.61088 
L 160.102084 102.121412 
L 160.142495 102.121412 
L 160.18282 100.419162 
L 160.263211 100.419162 
L 160.303279 99.568038 
L 160.4627 99.568038 
L 160.541906 98.716913 
L 160.660094 98.716913 
L 160.738476 97.653007 
L 160.777545 97.653007 
L 160.855439 96.37632 
L 160.894266 96.37632 
L 160.97168 94.886852 
L 161.087207 94.886852 
L 161.163832 93.610165 
L 161.202028 93.610165 
L 161.278189 91.907915 
L 161.316153 91.907915 
L 161.391854 89.14176 
L 161.504837 89.14176 
L 161.579783 88.503416 
L 161.691646 88.503416 
L 161.765853 87.226729 
L 161.802848 87.226729 
L 161.913396 85.098918 
L 161.986735 85.098918 
L 162.05979 83.822231 
L 162.132562 83.822231 
L 162.241195 82.545544 
L 162.277267 82.545544 
L 162.31327 81.694419 
L 162.456597 81.694419 
L 162.56338 80.843294 
L 162.66956 80.843294 
L 162.775144 79.566607 
L 162.810208 79.566607 
L 162.915008 77.651576 
L 162.984551 77.651576 
L 163.053839 77.013233 
L 163.122872 77.013233 
L 163.22595 75.736546 
L 163.328465 75.736546 
L 163.430425 75.098202 
L 163.464289 75.098202 
L 163.565517 74.459859 
L 163.632702 74.459859 
L 163.699647 73.821515 
L 163.766354 73.821515 
L 163.865975 72.332047 
L 163.96507 72.332047 
L 164.063646 70.842579 
L 164.09639 70.842579 
L 164.194282 69.353111 
L 164.2268 69.353111 
L 164.324018 67.650861 
L 164.356312 67.650861 
L 164.420735 66.799736 
L 164.516958 66.799736 
L 164.548924 66.161393 
L 164.771172 66.161393 
L 164.834193 64.884706 
L 164.897003 64.884706 
L 164.897003 64.671925 
L 165.1152 64.671925 
L 165.207944 63.608019 
L 165.238758 63.608019 
L 165.300233 62.756894 
L 165.361509 62.756894 
L 165.45305 62.118551 
L 165.51383 62.118551 
L 165.604634 60.841864 
L 165.664928 60.841864 
L 165.755007 60.20352 
L 165.784938 60.20352 
L 165.844657 59.139614 
L 165.933882 59.139614 
L 165.993131 58.288489 
L 166.140442 58.288489 
L 166.140442 58.075708 
L 166.286609 58.075708 
L 166.344759 56.799021 
L 166.460523 56.799021 
L 166.546881 56.373459 
L 166.604233 56.373459 
L 166.689935 55.735115 
L 166.718416 55.735115 
L 166.8036 55.096772 
L 166.83191 55.096772 
L 166.916583 54.032866 
L 167.000877 54.032866 
L 167.084795 52.756179 
L 167.196106 52.756179 
L 167.306762 52.117835 
L 167.334325 52.117835 
L 167.444174 51.053929 
L 167.661966 51.053929 
L 167.769923 49.990024 
L 167.823671 49.990024 
L 167.904005 48.926118 
L 167.957371 48.926118 
L 168.010586 48.287774 
L 168.116567 48.287774 
L 168.221954 47.436649 
L 168.404973 47.436649 
L 168.482867 46.372744 
L 168.714635 46.372744 
L 168.714635 45.947181 
L 168.867575 45.947181 
L 168.968849 45.096056 
L 169.019282 45.096056 
L 169.119745 44.670494 
L 169.169775 44.670494 
L 169.219673 44.032151 
L 169.294273 44.032151 
L 169.343842 43.393807 
L 169.491772 43.393807 
L 169.491772 42.968245 
L 169.735764 42.968245 
L 169.832482 41.691558 
L 169.904695 41.691558 
L 170.00055 40.840433 
L 170.119687 40.840433 
L 170.119687 40.627652 
L 170.37916 40.627652 
L 170.425955 40.202089 
L 170.49593 40.202089 
L 170.542436 39.776527 
L 170.727317 39.776527 
L 170.727317 39.563746 
L 170.93316 39.563746 
L 170.93316 39.350965 
L 171.046551 39.350965 
L 171.136775 38.287059 
L 171.181725 38.287059 
L 171.248949 37.861496 
L 171.338209 37.861496 
L 171.338209 37.648715 
L 171.515469 37.648715 
L 171.625414 37.223153 
L 171.669213 37.223153 
L 171.71291 36.797591 
L 172.058879 36.797591 
L 172.058879 36.584809 
L 172.250727 36.584809 
L 172.250727 36.372028 
L 172.587032 36.372028 
L 172.670177 35.733685 
L 172.958324 35.733685 
L 172.958324 35.520904 
L 173.28232 35.520904 
L 173.302386 35.095341 
L 173.48202 35.095341 
L 173.48202 34.88256 
L 173.60083 34.88256 
L 173.60083 34.456998 
L 173.77765 34.456998 
L 173.77765 34.244216 
L 173.914037 34.244216 
L 174.010854 33.818654 
L 174.164733 33.818654 
L 174.164733 33.605873 
L 174.449906 33.605873 
L 174.449906 33.393092 
L 174.600249 33.393092 
L 174.656319 32.754748 
L 175.0442 32.754748 
L 175.0442 32.541967 
L 175.298414 32.541967 
L 175.298414 32.329186 
L 175.477915 32.329186 
L 175.567027 31.903624 
L 175.936756 31.903624 
L 175.988986 31.478061 
L 176.384671 31.478061 
L 176.384671 31.26528 
L 176.503464 31.26528 
L 176.604692 30.839718 
L 176.62151 30.839718 
L 176.62151 30.626936 
L 176.855405 30.626936 
L 176.954762 30.201374 
L 177.1192 30.201374 
L 177.1192 29.988593 
L 177.778757 29.988593 
L 177.778757 29.775812 
L 178.045592 29.775812 
L 178.045592 29.563031 
L 178.216255 29.563031 
L 178.247119 29.137468 
L 178.824112 29.137468 
L 178.824112 28.924687 
L 179.743355 28.924687 
L 179.743355 28.711906 
L 179.885223 28.711906 
L 179.983897 28.286344 
L 180.59256 28.286344 
L 180.59256 28.073562 
L 181.41811 28.073562 
L 181.41811 27.860781 
L 182.616704 27.860781 
L 182.616704 27.648 
L 360.8064 27.648 
L 360.8064 27.648 
" style="fill: none; stroke: #ff00ff; stroke-width: 1.5; stroke-linecap: square"/>
   </g>
   <g id="line2d_41">
    <defs>
     <path id="mec8d5a9b13" d="M -0 8.485281 
L 5.091169 0 
L 0 -8.485281 
L -5.091169 -0 
z
" style="stroke: #ff00ff; stroke-width: 1.5; stroke-linejoin: miter"/>
    </defs>
    <g>
     <use xlink:href="#mec8d5a9b13" x="112.989468" y="258.515576" style="fill-opacity: 0; stroke: #ff00ff; stroke-width: 1.5; stroke-linejoin: miter"/>
     <use xlink:href="#mec8d5a9b13" x="158.365703" y="116.803313" style="fill-opacity: 0; stroke: #ff00ff; stroke-width: 1.5; stroke-linejoin: miter"/>
     <use xlink:href="#mec8d5a9b13" x="182.616704" y="27.860781" style="fill-opacity: 0; stroke: #ff00ff; stroke-width: 1.5; stroke-linejoin: miter"/>
     <use xlink:href="#mec8d5a9b13" x="182.616704" y="27.648" style="fill-opacity: 0; stroke: #ff00ff; stroke-width: 1.5; stroke-linejoin: miter"/>
     <use xlink:href="#mec8d5a9b13" x="182.616704" y="27.648" style="fill-opacity: 0; stroke: #ff00ff; stroke-width: 1.5; stroke-linejoin: miter"/>
     <use xlink:href="#mec8d5a9b13" x="360.8064" y="27.648" style="fill-opacity: 0; stroke: #ff00ff; stroke-width: 1.5; stroke-linejoin: miter"/>
    </g>
   </g>
   <g id="line2d_42">
    <path style="fill: none; stroke: #ff00ff; stroke-width: 1.5; stroke-linecap: square"/>
    <g/>
   </g>
   <g id="line2d_43">
    <path d="M 105.112877 262.558419 
" clip-path="url(#p6be1340a86)" style="fill: none; stroke: #ff00ff; stroke-width: 1.5; stroke-linecap: square"/>
    <defs>
     <path id="m3ff3125a4a" d="M -12 12 
L 12 -12 
M -12 -12 
L 12 12 
" style="stroke: #ff00ff"/>
    </defs>
    <g clip-path="url(#p6be1340a86)">
     <use xlink:href="#m3ff3125a4a" x="105.112877" y="262.558419" style="fill: #ff00ff; stroke: #ff00ff"/>
    </g>
   </g>
   <g id="line2d_44">
    <path d="M 360.8064 27.648 
L 380.514816 293.51808 
" style="fill: none; stroke: #ff00ff; stroke-width: 1.5; stroke-linecap: square"/>
    <g>
     <use xlink:href="#mec8d5a9b13" x="360.8064" y="27.648" style="fill-opacity: 0; stroke: #ff00ff; stroke-width: 1.5; stroke-linejoin: miter"/>
     <use xlink:href="#mec8d5a9b13" x="380.514816" y="293.51808" style="fill-opacity: 0; stroke: #ff00ff; stroke-width: 1.5; stroke-linejoin: miter"/>
    </g>
   </g>
   <g id="line2d_45">
    <path d="M 360.8064 27.648 
L 380.514816 163.296 
" style="fill: none; stroke: #000080; stroke-width: 1.5; stroke-linecap: square"/>
    <g>
     <use xlink:href="#m0873995187" x="360.8064" y="27.648" style="fill-opacity: 0; stroke: #000080; stroke-width: 1.5"/>
     <use xlink:href="#m0873995187" x="380.514816" y="163.296" style="fill-opacity: 0; stroke: #000080; stroke-width: 1.5"/>
    </g>
   </g>
   <g id="line2d_46">
    <path d="M 360.8064 298.944 
L 360.8064 27.648 
" style="fill: none; stroke: #000000; stroke-width: 1.5; stroke-linecap: square"/>
   </g>
   <g id="patch_3">
    <path d="M 57.6 298.944 
L 360.8064 298.944 
" style="fill: none; stroke: #000000; stroke-width: 0.8; stroke-linejoin: miter; stroke-linecap: square"/>
   </g>
   <g id="patch_4">
    <path d="M 57.6 27.648 
L 360.8064 27.648 
" style="fill: none; stroke: #000000; stroke-width: 0.8; stroke-linejoin: miter; stroke-linecap: square"/>
   </g>
   <g id="text_13">
    <!-- ex -->
    <g transform="translate(386.578944 297.381205)scale(0.14 -0.14)">
     <defs>
      <path id="DejaVuSans-78" d="M 3513 3500 
L 2247 1797 
L 3578 0 
L 2900 0 
L 1881 1375 
L 863 0 
L 184 0 
L 1544 1831 
L 300 3500 
L 978 3500 
L 1906 2253 
L 2834 3500 
L 3513 3500 
z
" transform="scale(0.015625)"/>
     </defs>
     <use xlink:href="#DejaVuSans-65"/>
     <use xlink:href="#DejaVuSans-78" x="59.773438"/>
    </g>
   </g>
   <g id="text_14">
    <!-- ex -->
    <g transform="translate(386.578944 167.159125)scale(0.14 -0.14)">
     <use xlink:href="#DejaVuSans-65"/>
     <use xlink:href="#DejaVuSans-78" x="59.773438"/>
    </g>
   </g>
   <g id="text_15">
    <!-- best 2009 -->
    <g transform="translate(386.578944 36.937045)scale(0.14 -0.14)">
     <defs>
      <path id="DejaVuSans-62" d="M 3116 1747 
Q 3116 2381 2855 2742 
Q 2594 3103 2138 3103 
Q 1681 3103 1420 2742 
Q 1159 2381 1159 1747 
Q 1159 1113 1420 752 
Q 1681 391 2138 391 
Q 2594 391 2855 752 
Q 3116 1113 3116 1747 
z
M 1159 2969 
Q 1341 3281 1617 3432 
Q 1894 3584 2278 3584 
Q 2916 3584 3314 3078 
Q 3713 2572 3713 1747 
Q 3713 922 3314 415 
Q 2916 -91 2278 -91 
Q 1894 -91 1617 61 
Q 1341 213 1159 525 
L 1159 0 
L 581 0 
L 581 4863 
L 1159 4863 
L 1159 2969 
z
" transform="scale(0.015625)"/>
      <path id="DejaVuSans-39" d="M 703 97 
L 703 672 
Q 941 559 1184 500 
Q 1428 441 1663 441 
Q 2288 441 2617 861 
Q 2947 1281 2994 2138 
Q 2813 1869 2534 1725 
Q 2256 1581 1919 1581 
Q 1219 1581 811 2004 
Q 403 2428 403 3163 
Q 403 3881 828 4315 
Q 1253 4750 1959 4750 
Q 2769 4750 3195 4129 
Q 3622 3509 3622 2328 
Q 3622 1225 3098 567 
Q 2575 -91 1691 -91 
Q 1453 -91 1209 -44 
Q 966 3 703 97 
z
M 1959 2075 
Q 2384 2075 2632 2365 
Q 2881 2656 2881 3163 
Q 2881 3666 2632 3958 
Q 2384 4250 1959 4250 
Q 1534 4250 1286 3958 
Q 1038 3666 1038 3163 
Q 1038 2656 1286 2365 
Q 1534 2075 1959 2075 
z
" transform="scale(0.015625)"/>
     </defs>
     <use xlink:href="#DejaVuSans-62"/>
     <use xlink:href="#DejaVuSans-65" x="63.476562"/>
     <use xlink:href="#DejaVuSans-73" x="125"/>
     <use xlink:href="#DejaVuSans-74" x="177.099609"/>
     <use xlink:href="#DejaVuSans-20" x="216.308594"/>
     <use xlink:href="#DejaVuSans-32" x="248.095703"/>
     <use xlink:href="#DejaVuSans-30" x="311.71875"/>
     <use xlink:href="#DejaVuSans-30" x="375.341797"/>
     <use xlink:href="#DejaVuSans-39" x="438.964844"/>
    </g>
   </g>
   <g id="text_16">
    <!-- bbob f6, 2-D -->
    <g transform="translate(60.632064 38.111366)scale(0.102 -0.102)">
     <defs>
      <path id="DejaVuSans-44" d="M 1259 4147 
L 1259 519 
L 2022 519 
Q 2988 519 3436 956 
Q 3884 1394 3884 2338 
Q 3884 3275 3436 3711 
Q 2988 4147 2022 4147 
L 1259 4147 
z
M 628 4666 
L 1925 4666 
Q 3281 4666 3915 4102 
Q 4550 3538 4550 2338 
Q 4550 1131 3912 565 
Q 3275 0 1925 0 
L 628 0 
L 628 4666 
z
" transform="scale(0.015625)"/>
     </defs>
     <use xlink:href="#DejaVuSans-62"/>
     <use xlink:href="#DejaVuSans-62" x="63.476562"/>
     <use xlink:href="#DejaVuSans-6f" x="126.953125"/>
     <use xlink:href="#DejaVuSans-62" x="188.134766"/>
     <use xlink:href="#DejaVuSans-20" x="251.611328"/>
     <use xlink:href="#DejaVuSans-66" x="283.398438"/>
     <use xlink:href="#DejaVuSans-36" x="318.603516"/>
     <use xlink:href="#DejaVuSans-2c" x="382.226562"/>
     <use xlink:href="#DejaVuSans-20" x="414.013672"/>
     <use xlink:href="#DejaVuSans-32" x="445.800781"/>
     <use xlink:href="#DejaVuSans-2d" x="509.423828"/>
     <use xlink:href="#DejaVuSans-44" x="545.507812"/>
    </g>
    <!-- 51 targets: 100..1e-08 -->
    <g transform="translate(60.632064 49.533135)scale(0.102 -0.102)">
     <defs>
      <path id="DejaVuSans-35" d="M 691 4666 
L 3169 4666 
L 3169 4134 
L 1269 4134 
L 1269 2991 
Q 1406 3038 1543 3061 
Q 1681 3084 1819 3084 
Q 2600 3084 3056 2656 
Q 3513 2228 3513 1497 
Q 3513 744 3044 326 
Q 2575 -91 1722 -91 
Q 1428 -91 1123 -41 
Q 819 9 494 109 
L 494 744 
Q 775 591 1075 516 
Q 1375 441 1709 441 
Q 2250 441 2565 725 
Q 2881 1009 2881 1497 
Q 2881 1984 2565 2268 
Q 2250 2553 1709 2553 
Q 1456 2553 1204 2497 
Q 953 2441 691 2322 
L 691 4666 
z
" transform="scale(0.015625)"/>
      <path id="DejaVuSans-3a" d="M 750 794 
L 1409 794 
L 1409 0 
L 750 0 
L 750 794 
z
M 750 3309 
L 1409 3309 
L 1409 2516 
L 750 2516 
L 750 3309 
z
" transform="scale(0.015625)"/>
     </defs>
     <use xlink:href="#DejaVuSans-35"/>
     <use xlink:href="#DejaVuSans-31" x="63.623047"/>
     <use xlink:href="#DejaVuSans-20" x="127.246094"/>
     <use xlink:href="#DejaVuSans-74" x="159.033203"/>
     <use xlink:href="#DejaVuSans-61" x="198.242188"/>
     <use xlink:href="#DejaVuSans-72" x="259.521484"/>
     <use xlink:href="#DejaVuSans-67" x="298.884766"/>
     <use xlink:href="#DejaVuSans-65" x="362.361328"/>
     <use xlink:href="#DejaVuSans-74" x="423.884766"/>
     <use xlink:href="#DejaVuSans-73" x="463.09375"/>
     <use xlink:href="#DejaVuSans-3a" x="515.193359"/>
     <use xlink:href="#DejaVuSans-20" x="548.884766"/>
     <use xlink:href="#DejaVuSans-31" x="580.671875"/>
     <use xlink:href="#DejaVuSans-30" x="644.294922"/>
     <use xlink:href="#DejaVuSans-30" x="707.917969"/>
     <use xlink:href="#DejaVuSans-2e" x="771.541016"/>
     <use xlink:href="#DejaVuSans-2e" x="803.328125"/>
     <use xlink:href="#DejaVuSans-31" x="835.115234"/>
     <use xlink:href="#DejaVuSans-65" x="898.738281"/>
     <use xlink:href="#DejaVuSans-2d" x="960.261719"/>
     <use xlink:href="#DejaVuSans-30" x="996.345703"/>
     <use xlink:href="#DejaVuSans-38" x="1059.96875"/>
    </g>
    <!-- 25 instances -->
    <g transform="translate(60.632064 60.954904)scale(0.102 -0.102)">
     <use xlink:href="#DejaVuSans-32"/>
     <use xlink:href="#DejaVuSans-35" x="63.623047"/>
     <use xlink:href="#DejaVuSans-20" x="127.246094"/>
     <use xlink:href="#DejaVuSans-69" x="159.033203"/>
     <use xlink:href="#DejaVuSans-6e" x="186.816406"/>
     <use xlink:href="#DejaVuSans-73" x="250.195312"/>
     <use xlink:href="#DejaVuSans-74" x="302.294922"/>
     <use xlink:href="#DejaVuSans-61" x="341.503906"/>
     <use xlink:href="#DejaVuSans-6e" x="402.783203"/>
     <use xlink:href="#DejaVuSans-63" x="466.162109"/>
     <use xlink:href="#DejaVuSans-65" x="521.142578"/>
     <use xlink:href="#DejaVuSans-73" x="582.666016"/>
    </g>
   </g>
   <g id="text_17">
    <!-- v2.6 -->
    <g style="fill: #808080" transform="translate(198.292262 294.151352)scale(0.1 -0.1)">
     <use xlink:href="#DejaVuSans-76"/>
     <use xlink:href="#DejaVuSans-32" x="59.179688"/>
     <use xlink:href="#DejaVuSans-2e" x="122.802734"/>
     <use xlink:href="#DejaVuSans-36" x="154.589844"/>
    </g>
   </g>
   <g id="text_18">
    <!-- 6 Attractive sector -->
    <g transform="translate(116.45945 21.648)scale(0.2 -0.2)">
     <defs>
      <path id="DejaVuSans-41" d="M 2188 4044 
L 1331 1722 
L 3047 1722 
L 2188 4044 
z
M 1831 4666 
L 2547 4666 
L 4325 0 
L 3669 0 
L 3244 1197 
L 1141 1197 
L 716 0 
L 50 0 
L 1831 4666 
z
" transform="scale(0.015625)"/>
     </defs>
     <use xlink:href="#DejaVuSans-36"/>
     <use xlink:href="#DejaVuSans-20" x="63.623047"/>
     <use xlink:href="#DejaVuSans-41" x="95.410156"/>
     <use xlink:href="#DejaVuSans-74" x="162.068359"/>
     <use xlink:href="#DejaVuSans-74" x="201.277344"/>
     <use xlink:href="#DejaVuSans-72" x="240.486328"/>
     <use xlink:href="#DejaVuSans-61" x="281.599609"/>
     <use xlink:href="#DejaVuSans-63" x="342.878906"/>
     <use xlink:href="#DejaVuSans-74" x="397.859375"/>
     <use xlink:href="#DejaVuSans-69" x="437.068359"/>
     <use xlink:href="#DejaVuSans-76" x="464.851562"/>
     <use xlink:href="#DejaVuSans-65" x="524.03125"/>
     <use xlink:href="#DejaVuSans-20" x="585.554688"/>
     <use xlink:href="#DejaVuSans-73" x="617.341797"/>
     <use xlink:href="#DejaVuSans-65" x="669.441406"/>
     <use xlink:href="#DejaVuSans-63" x="730.964844"/>
     <use xlink:href="#DejaVuSans-74" x="785.945312"/>
     <use xlink:href="#DejaVuSans-6f" x="825.154297"/>
     <use xlink:href="#DejaVuSans-72" x="886.335938"/>
    </g>
   </g>
  </g>
 </g>
 <defs>
  <clipPath id="p6be1340a86">
   <rect x="57.6" y="27.648" width="303.2064" height="271.296"/>
  </clipPath>
 </defs>
</svg>
