<?xml version="1.0" encoding="utf-8" standalone="no"?>
<!DOCTYPE svg PUBLIC "-//W3C//DTD SVG 1.1//EN"
  "http://www.w3.org/Graphics/SVG/1.1/DTD/svg11.dtd">
<svg xmlns:xlink="http://www.w3.org/1999/xlink" width="460.8pt" height="345.6pt" viewBox="0 0 460.8 345.6" xmlns="http://www.w3.org/2000/svg" version="1.1">
 <metadata>
  <rdf:RDF xmlns:dc="http://purl.org/dc/elements/1.1/" xmlns:cc="http://creativecommons.org/ns#" xmlns:rdf="http://www.w3.org/1999/02/22-rdf-syntax-ns#">
   <cc:Work>
    <dc:type rdf:resource="http://purl.org/dc/dcmitype/StillImage"/>
    <dc:date>2022-03-16T23:41:13.805652</dc:date>
    <dc:format>image/svg+xml</dc:format>
    <dc:creator>
     <cc:Agent>
      <dc:title>Matplotlib v3.5.1, https://matplotlib.org/</dc:title>
     </cc:Agent>
    </dc:creator>
   </cc:Work>
  </rdf:RDF>
 </metadata>
 <defs>
  <style type="text/css">*{stroke-linejoin: round; stroke-linecap: butt}</style>
 </defs>
 <g id="figure_1">
  <g id="patch_1">
   <path d="M 0 345.6 
L 460.8 345.6 
L 460.8 0 
L 0 0 
z
" style="fill: #ffffff"/>
  </g>
  <g id="axes_1">
   <g id="patch_2">
    <path d="M 57.6 298.944 
L 360.8064 298.944 
L 360.8064 27.648 
L 57.6 27.648 
z
" style="fill: #ffffff"/>
   </g>
   <g id="line2d_1">
    <path d="M 27.323974 298.944 
L 27.323974 288.304941 
L 53.402323 288.304941 
L 53.402323 282.985412 
L 72.432107 282.985412 
L 72.432107 277.665882 
L 91.922605 277.665882 
L 91.922605 272.346353 
L 97.18203 272.346353 
L 97.18203 267.026824 
L 108.034177 267.026824 
L 108.034177 261.707294 
L 111.97238 261.707294 
L 111.97238 256.387765 
L 117.226706 256.387765 
L 117.226706 251.068235 
L 137.358854 251.068235 
L 137.358854 245.748706 
L 160.012872 245.748706 
L 160.012872 240.429176 
L 166.251633 240.429176 
L 166.251633 235.109647 
L 166.495114 235.109647 
L 166.495114 229.790118 
L 166.689935 229.790118 
L 166.689935 224.470588 
L 166.746854 224.470588 
L 166.746854 219.151059 
L 166.961587 219.151059 
L 166.961587 213.831529 
L 166.995269 213.831529 
L 166.995269 208.512 
L 167.028891 208.512 
L 167.028891 203.192471 
L 167.062453 203.192471 
L 167.062453 197.872941 
L 167.095955 197.872941 
L 167.095955 192.553412 
L 167.162782 192.553412 
L 167.162782 187.233882 
L 167.185004 187.233882 
L 167.185004 181.914353 
L 167.196106 181.914353 
L 167.196106 176.594824 
L 167.251516 176.594824 
L 167.251516 171.275294 
L 167.273634 171.275294 
L 167.273634 165.955765 
L 167.306762 165.955765 
L 167.306762 160.636235 
L 167.361848 160.636235 
L 167.361848 155.316706 
L 167.383837 155.316706 
L 167.383837 149.997176 
L 167.4058 149.997176 
L 167.4058 144.677647 
L 167.427738 144.677647 
L 167.427738 139.358118 
L 167.44965 139.358118 
L 167.44965 134.038588 
L 167.471536 134.038588 
L 167.471536 128.719059 
L 167.504319 128.719059 
L 167.504319 123.399529 
L 167.537044 123.399529 
L 167.537044 118.08 
L 167.569712 118.08 
L 167.569712 107.440941 
L 167.634879 107.440941 
L 167.634879 102.121412 
L 167.667378 102.121412 
L 167.667378 96.801882 
L 167.678199 96.801882 
L 167.678199 91.482353 
L 167.721419 91.482353 
L 167.721419 86.162824 
L 167.753769 86.162824 
L 167.753769 80.843294 
L 167.775305 80.843294 
L 167.775305 75.523765 
L 167.807563 75.523765 
L 167.807563 70.204235 
L 167.818303 70.204235 
L 167.818303 64.884706 
L 167.850487 64.884706 
L 167.850487 59.565176 
L 167.871912 59.565176 
L 167.871912 54.245647 
L 167.893313 54.245647 
L 167.893313 48.926118 
L 167.925369 48.926118 
L 167.925369 43.606588 
L 167.94671 43.606588 
L 167.94671 38.287059 
L 167.978675 38.287059 
L 167.978675 32.967529 
L 169.793854 32.967529 
L 169.793854 27.648 
L 360.8064 27.648 
" style="fill: none; stroke: #f5deb3; stroke-width: 4; stroke-linecap: square"/>
   </g>
   <g id="line2d_2">
    <defs>
     <path id="m95d9a92173" d="M -0 7.778175 
L 7.778175 0 
L 0 -7.778175 
L -7.778175 -0 
z
" style="stroke: #f5deb3; stroke-width: 1.5; stroke-linejoin: miter"/>
    </defs>
    <g>
     <use xlink:href="#m95d9a92173" x="91.922605" y="272.346353" style="fill: #f5deb3; stroke: #f5deb3; stroke-width: 1.5; stroke-linejoin: miter"/>
     <use xlink:href="#m95d9a92173" x="166.746854" y="219.151059" style="fill: #f5deb3; stroke: #f5deb3; stroke-width: 1.5; stroke-linejoin: miter"/>
     <use xlink:href="#m95d9a92173" x="167.667378" y="96.801882" style="fill: #f5deb3; stroke: #f5deb3; stroke-width: 1.5; stroke-linejoin: miter"/>
     <use xlink:href="#m95d9a92173" x="169.793854" y="32.967529" style="fill: #f5deb3; stroke: #f5deb3; stroke-width: 1.5; stroke-linejoin: miter"/>
     <use xlink:href="#m95d9a92173" x="169.793854" y="27.648" style="fill: #f5deb3; stroke: #f5deb3; stroke-width: 1.5; stroke-linejoin: miter"/>
     <use xlink:href="#m95d9a92173" x="360.8064" y="27.648" style="fill: #f5deb3; stroke: #f5deb3; stroke-width: 1.5; stroke-linejoin: miter"/>
    </g>
   </g>
   <g id="line2d_3">
    <path style="fill: none; stroke: #f5deb3; stroke-width: 4; stroke-linecap: square"/>
    <g/>
   </g>
   <g id="line2d_4">
    <path d="M 360.8064 27.648 
L 380.514816 33.07392 
" style="fill: none; stroke: #f5deb3; stroke-width: 4; stroke-linecap: square"/>
    <g>
     <use xlink:href="#m95d9a92173" x="360.8064" y="27.648" style="fill: #f5deb3; stroke: #f5deb3; stroke-width: 1.5; stroke-linejoin: miter"/>
     <use xlink:href="#m95d9a92173" x="380.514816" y="33.07392" style="fill: #f5deb3; stroke: #f5deb3; stroke-width: 1.5; stroke-linejoin: miter"/>
    </g>
   </g>
   <g id="matplotlib.axis_1">
    <g id="xtick_1">
     <g id="line2d_5">
      <path d="M 57.6 298.944 
L 57.6 27.648 
" clip-path="url(#p738ef79519)" style="fill: none; stroke: #b0b0b0; stroke-width: 0.8; stroke-linecap: square"/>
     </g>
     <g id="line2d_6">
      <defs>
       <path id="mc380bc1c6c" d="M 0 0 
L 0 3.5 
" style="stroke: #000000; stroke-width: 0.8"/>
      </defs>
      <g>
       <use xlink:href="#mc380bc1c6c" x="57.6" y="298.944" style="stroke: #000000; stroke-width: 0.8"/>
      </g>
     </g>
     <g id="text_1">
      <!-- 0 -->
      <g transform="translate(52.191875 318.861344)scale(0.17 -0.17)">
       <defs>
        <path id="DejaVuSans-30" d="M 2034 4250 
Q 1547 4250 1301 3770 
Q 1056 3291 1056 2328 
Q 1056 1369 1301 889 
Q 1547 409 2034 409 
Q 2525 409 2770 889 
Q 3016 1369 3016 2328 
Q 3016 3291 2770 3770 
Q 2525 4250 2034 4250 
z
M 2034 4750 
Q 2819 4750 3233 4129 
Q 3647 3509 3647 2328 
Q 3647 1150 3233 529 
Q 2819 -91 2034 -91 
Q 1250 -91 836 529 
Q 422 1150 422 2328 
Q 422 3509 836 4129 
Q 1250 4750 2034 4750 
z
" transform="scale(0.015625)"/>
       </defs>
       <use xlink:href="#DejaVuSans-30"/>
      </g>
     </g>
    </g>
    <g id="xtick_2">
     <g id="line2d_7">
      <path d="M 144.2304 298.944 
L 144.2304 27.648 
" clip-path="url(#p738ef79519)" style="fill: none; stroke: #b0b0b0; stroke-width: 0.8; stroke-linecap: square"/>
     </g>
     <g id="line2d_8">
      <g>
       <use xlink:href="#mc380bc1c6c" x="144.2304" y="298.944" style="stroke: #000000; stroke-width: 0.8"/>
      </g>
     </g>
     <g id="text_2">
      <!-- 2 -->
      <g transform="translate(138.822275 318.861344)scale(0.17 -0.17)">
       <defs>
        <path id="DejaVuSans-32" d="M 1228 531 
L 3431 531 
L 3431 0 
L 469 0 
L 469 531 
Q 828 903 1448 1529 
Q 2069 2156 2228 2338 
Q 2531 2678 2651 2914 
Q 2772 3150 2772 3378 
Q 2772 3750 2511 3984 
Q 2250 4219 1831 4219 
Q 1534 4219 1204 4116 
Q 875 4013 500 3803 
L 500 4441 
Q 881 4594 1212 4672 
Q 1544 4750 1819 4750 
Q 2544 4750 2975 4387 
Q 3406 4025 3406 3419 
Q 3406 3131 3298 2873 
Q 3191 2616 2906 2266 
Q 2828 2175 2409 1742 
Q 1991 1309 1228 531 
z
" transform="scale(0.015625)"/>
       </defs>
       <use xlink:href="#DejaVuSans-32"/>
      </g>
     </g>
    </g>
    <g id="xtick_3">
     <g id="line2d_9">
      <path d="M 230.8608 298.944 
L 230.8608 27.648 
" clip-path="url(#p738ef79519)" style="fill: none; stroke: #b0b0b0; stroke-width: 0.8; stroke-linecap: square"/>
     </g>
     <g id="line2d_10">
      <g>
       <use xlink:href="#mc380bc1c6c" x="230.8608" y="298.944" style="stroke: #000000; stroke-width: 0.8"/>
      </g>
     </g>
     <g id="text_3">
      <!-- 4 -->
      <g transform="translate(225.452675 318.861344)scale(0.17 -0.17)">
       <defs>
        <path id="DejaVuSans-34" d="M 2419 4116 
L 825 1625 
L 2419 1625 
L 2419 4116 
z
M 2253 4666 
L 3047 4666 
L 3047 1625 
L 3713 1625 
L 3713 1100 
L 3047 1100 
L 3047 0 
L 2419 0 
L 2419 1100 
L 313 1100 
L 313 1709 
L 2253 4666 
z
" transform="scale(0.015625)"/>
       </defs>
       <use xlink:href="#DejaVuSans-34"/>
      </g>
     </g>
    </g>
    <g id="xtick_4">
     <g id="line2d_11">
      <path d="M 317.4912 298.944 
L 317.4912 27.648 
" clip-path="url(#p738ef79519)" style="fill: none; stroke: #b0b0b0; stroke-width: 0.8; stroke-linecap: square"/>
     </g>
     <g id="line2d_12">
      <g>
       <use xlink:href="#mc380bc1c6c" x="317.4912" y="298.944" style="stroke: #000000; stroke-width: 0.8"/>
      </g>
     </g>
     <g id="text_4">
      <!-- 6 -->
      <g transform="translate(312.083075 318.861344)scale(0.17 -0.17)">
       <defs>
        <path id="DejaVuSans-36" d="M 2113 2584 
Q 1688 2584 1439 2293 
Q 1191 2003 1191 1497 
Q 1191 994 1439 701 
Q 1688 409 2113 409 
Q 2538 409 2786 701 
Q 3034 994 3034 1497 
Q 3034 2003 2786 2293 
Q 2538 2584 2113 2584 
z
M 3366 4563 
L 3366 3988 
Q 3128 4100 2886 4159 
Q 2644 4219 2406 4219 
Q 1781 4219 1451 3797 
Q 1122 3375 1075 2522 
Q 1259 2794 1537 2939 
Q 1816 3084 2150 3084 
Q 2853 3084 3261 2657 
Q 3669 2231 3669 1497 
Q 3669 778 3244 343 
Q 2819 -91 2113 -91 
Q 1303 -91 875 529 
Q 447 1150 447 2328 
Q 447 3434 972 4092 
Q 1497 4750 2381 4750 
Q 2619 4750 2861 4703 
Q 3103 4656 3366 4563 
z
" transform="scale(0.015625)"/>
       </defs>
       <use xlink:href="#DejaVuSans-36"/>
      </g>
     </g>
    </g>
    <g id="xtick_5">
     <g id="line2d_13">
      <path d="M 100.9152 298.944 
L 100.9152 27.648 
" clip-path="url(#p738ef79519)" style="fill: none; stroke: #b0b0b0; stroke-width: 0.8; stroke-linecap: square"/>
     </g>
     <g id="line2d_14">
      <defs>
       <path id="m95965b00c9" d="M 0 0 
L 0 2 
" style="stroke: #000000; stroke-width: 0.6"/>
      </defs>
      <g>
       <use xlink:href="#m95965b00c9" x="100.9152" y="298.944" style="stroke: #000000; stroke-width: 0.6"/>
      </g>
     </g>
    </g>
    <g id="xtick_6">
     <g id="line2d_15">
      <path d="M 187.5456 298.944 
L 187.5456 27.648 
" clip-path="url(#p738ef79519)" style="fill: none; stroke: #b0b0b0; stroke-width: 0.8; stroke-linecap: square"/>
     </g>
     <g id="line2d_16">
      <g>
       <use xlink:href="#m95965b00c9" x="187.5456" y="298.944" style="stroke: #000000; stroke-width: 0.6"/>
      </g>
     </g>
    </g>
    <g id="xtick_7">
     <g id="line2d_17">
      <path d="M 274.176 298.944 
L 274.176 27.648 
" clip-path="url(#p738ef79519)" style="fill: none; stroke: #b0b0b0; stroke-width: 0.8; stroke-linecap: square"/>
     </g>
     <g id="line2d_18">
      <g>
       <use xlink:href="#m95965b00c9" x="274.176" y="298.944" style="stroke: #000000; stroke-width: 0.6"/>
      </g>
     </g>
    </g>
    <g id="xtick_8">
     <g id="line2d_19">
      <path d="M 360.8064 298.944 
L 360.8064 27.648 
" clip-path="url(#p738ef79519)" style="fill: none; stroke: #b0b0b0; stroke-width: 0.8; stroke-linecap: square"/>
     </g>
     <g id="line2d_20">
      <g>
       <use xlink:href="#m95965b00c9" x="360.8064" y="298.944" style="stroke: #000000; stroke-width: 0.6"/>
      </g>
     </g>
    </g>
    <g id="text_5">
     <!-- log10(# f-evals / dimension) -->
     <g transform="translate(88.823278 339.314156)scale(0.17 -0.17)">
      <defs>
       <path id="DejaVuSans-6c" d="M 603 4863 
L 1178 4863 
L 1178 0 
L 603 0 
L 603 4863 
z
" transform="scale(0.015625)"/>
       <path id="DejaVuSans-6f" d="M 1959 3097 
Q 1497 3097 1228 2736 
Q 959 2375 959 1747 
Q 959 1119 1226 758 
Q 1494 397 1959 397 
Q 2419 397 2687 759 
Q 2956 1122 2956 1747 
Q 2956 2369 2687 2733 
Q 2419 3097 1959 3097 
z
M 1959 3584 
Q 2709 3584 3137 3096 
Q 3566 2609 3566 1747 
Q 3566 888 3137 398 
Q 2709 -91 1959 -91 
Q 1206 -91 779 398 
Q 353 888 353 1747 
Q 353 2609 779 3096 
Q 1206 3584 1959 3584 
z
" transform="scale(0.015625)"/>
       <path id="DejaVuSans-67" d="M 2906 1791 
Q 2906 2416 2648 2759 
Q 2391 3103 1925 3103 
Q 1463 3103 1205 2759 
Q 947 2416 947 1791 
Q 947 1169 1205 825 
Q 1463 481 1925 481 
Q 2391 481 2648 825 
Q 2906 1169 2906 1791 
z
M 3481 434 
Q 3481 -459 3084 -895 
Q 2688 -1331 1869 -1331 
Q 1566 -1331 1297 -1286 
Q 1028 -1241 775 -1147 
L 775 -588 
Q 1028 -725 1275 -790 
Q 1522 -856 1778 -856 
Q 2344 -856 2625 -561 
Q 2906 -266 2906 331 
L 2906 616 
Q 2728 306 2450 153 
Q 2172 0 1784 0 
Q 1141 0 747 490 
Q 353 981 353 1791 
Q 353 2603 747 3093 
Q 1141 3584 1784 3584 
Q 2172 3584 2450 3431 
Q 2728 3278 2906 2969 
L 2906 3500 
L 3481 3500 
L 3481 434 
z
" transform="scale(0.015625)"/>
       <path id="DejaVuSans-31" d="M 794 531 
L 1825 531 
L 1825 4091 
L 703 3866 
L 703 4441 
L 1819 4666 
L 2450 4666 
L 2450 531 
L 3481 531 
L 3481 0 
L 794 0 
L 794 531 
z
" transform="scale(0.015625)"/>
       <path id="DejaVuSans-28" d="M 1984 4856 
Q 1566 4138 1362 3434 
Q 1159 2731 1159 2009 
Q 1159 1288 1364 580 
Q 1569 -128 1984 -844 
L 1484 -844 
Q 1016 -109 783 600 
Q 550 1309 550 2009 
Q 550 2706 781 3412 
Q 1013 4119 1484 4856 
L 1984 4856 
z
" transform="scale(0.015625)"/>
       <path id="DejaVuSans-23" d="M 3272 2816 
L 2363 2816 
L 2100 1772 
L 3016 1772 
L 3272 2816 
z
M 2803 4594 
L 2478 3297 
L 3391 3297 
L 3719 4594 
L 4219 4594 
L 3897 3297 
L 4872 3297 
L 4872 2816 
L 3775 2816 
L 3519 1772 
L 4513 1772 
L 4513 1294 
L 3397 1294 
L 3072 0 
L 2572 0 
L 2894 1294 
L 1978 1294 
L 1656 0 
L 1153 0 
L 1478 1294 
L 494 1294 
L 494 1772 
L 1594 1772 
L 1856 2816 
L 850 2816 
L 850 3297 
L 1978 3297 
L 2297 4594 
L 2803 4594 
z
" transform="scale(0.015625)"/>
       <path id="DejaVuSans-20" transform="scale(0.015625)"/>
       <path id="DejaVuSans-66" d="M 2375 4863 
L 2375 4384 
L 1825 4384 
Q 1516 4384 1395 4259 
Q 1275 4134 1275 3809 
L 1275 3500 
L 2222 3500 
L 2222 3053 
L 1275 3053 
L 1275 0 
L 697 0 
L 697 3053 
L 147 3053 
L 147 3500 
L 697 3500 
L 697 3744 
Q 697 4328 969 4595 
Q 1241 4863 1831 4863 
L 2375 4863 
z
" transform="scale(0.015625)"/>
       <path id="DejaVuSans-2d" d="M 313 2009 
L 1997 2009 
L 1997 1497 
L 313 1497 
L 313 2009 
z
" transform="scale(0.015625)"/>
       <path id="DejaVuSans-65" d="M 3597 1894 
L 3597 1613 
L 953 1613 
Q 991 1019 1311 708 
Q 1631 397 2203 397 
Q 2534 397 2845 478 
Q 3156 559 3463 722 
L 3463 178 
Q 3153 47 2828 -22 
Q 2503 -91 2169 -91 
Q 1331 -91 842 396 
Q 353 884 353 1716 
Q 353 2575 817 3079 
Q 1281 3584 2069 3584 
Q 2775 3584 3186 3129 
Q 3597 2675 3597 1894 
z
M 3022 2063 
Q 3016 2534 2758 2815 
Q 2500 3097 2075 3097 
Q 1594 3097 1305 2825 
Q 1016 2553 972 2059 
L 3022 2063 
z
" transform="scale(0.015625)"/>
       <path id="DejaVuSans-76" d="M 191 3500 
L 800 3500 
L 1894 563 
L 2988 3500 
L 3597 3500 
L 2284 0 
L 1503 0 
L 191 3500 
z
" transform="scale(0.015625)"/>
       <path id="DejaVuSans-61" d="M 2194 1759 
Q 1497 1759 1228 1600 
Q 959 1441 959 1056 
Q 959 750 1161 570 
Q 1363 391 1709 391 
Q 2188 391 2477 730 
Q 2766 1069 2766 1631 
L 2766 1759 
L 2194 1759 
z
M 3341 1997 
L 3341 0 
L 2766 0 
L 2766 531 
Q 2569 213 2275 61 
Q 1981 -91 1556 -91 
Q 1019 -91 701 211 
Q 384 513 384 1019 
Q 384 1609 779 1909 
Q 1175 2209 1959 2209 
L 2766 2209 
L 2766 2266 
Q 2766 2663 2505 2880 
Q 2244 3097 1772 3097 
Q 1472 3097 1187 3025 
Q 903 2953 641 2809 
L 641 3341 
Q 956 3463 1253 3523 
Q 1550 3584 1831 3584 
Q 2591 3584 2966 3190 
Q 3341 2797 3341 1997 
z
" transform="scale(0.015625)"/>
       <path id="DejaVuSans-73" d="M 2834 3397 
L 2834 2853 
Q 2591 2978 2328 3040 
Q 2066 3103 1784 3103 
Q 1356 3103 1142 2972 
Q 928 2841 928 2578 
Q 928 2378 1081 2264 
Q 1234 2150 1697 2047 
L 1894 2003 
Q 2506 1872 2764 1633 
Q 3022 1394 3022 966 
Q 3022 478 2636 193 
Q 2250 -91 1575 -91 
Q 1294 -91 989 -36 
Q 684 19 347 128 
L 347 722 
Q 666 556 975 473 
Q 1284 391 1588 391 
Q 1994 391 2212 530 
Q 2431 669 2431 922 
Q 2431 1156 2273 1281 
Q 2116 1406 1581 1522 
L 1381 1569 
Q 847 1681 609 1914 
Q 372 2147 372 2553 
Q 372 3047 722 3315 
Q 1072 3584 1716 3584 
Q 2034 3584 2315 3537 
Q 2597 3491 2834 3397 
z
" transform="scale(0.015625)"/>
       <path id="DejaVuSans-2f" d="M 1625 4666 
L 2156 4666 
L 531 -594 
L 0 -594 
L 1625 4666 
z
" transform="scale(0.015625)"/>
       <path id="DejaVuSans-64" d="M 2906 2969 
L 2906 4863 
L 3481 4863 
L 3481 0 
L 2906 0 
L 2906 525 
Q 2725 213 2448 61 
Q 2172 -91 1784 -91 
Q 1150 -91 751 415 
Q 353 922 353 1747 
Q 353 2572 751 3078 
Q 1150 3584 1784 3584 
Q 2172 3584 2448 3432 
Q 2725 3281 2906 2969 
z
M 947 1747 
Q 947 1113 1208 752 
Q 1469 391 1925 391 
Q 2381 391 2643 752 
Q 2906 1113 2906 1747 
Q 2906 2381 2643 2742 
Q 2381 3103 1925 3103 
Q 1469 3103 1208 2742 
Q 947 2381 947 1747 
z
" transform="scale(0.015625)"/>
       <path id="DejaVuSans-69" d="M 603 3500 
L 1178 3500 
L 1178 0 
L 603 0 
L 603 3500 
z
M 603 4863 
L 1178 4863 
L 1178 4134 
L 603 4134 
L 603 4863 
z
" transform="scale(0.015625)"/>
       <path id="DejaVuSans-6d" d="M 3328 2828 
Q 3544 3216 3844 3400 
Q 4144 3584 4550 3584 
Q 5097 3584 5394 3201 
Q 5691 2819 5691 2113 
L 5691 0 
L 5113 0 
L 5113 2094 
Q 5113 2597 4934 2840 
Q 4756 3084 4391 3084 
Q 3944 3084 3684 2787 
Q 3425 2491 3425 1978 
L 3425 0 
L 2847 0 
L 2847 2094 
Q 2847 2600 2669 2842 
Q 2491 3084 2119 3084 
Q 1678 3084 1418 2786 
Q 1159 2488 1159 1978 
L 1159 0 
L 581 0 
L 581 3500 
L 1159 3500 
L 1159 2956 
Q 1356 3278 1631 3431 
Q 1906 3584 2284 3584 
Q 2666 3584 2933 3390 
Q 3200 3197 3328 2828 
z
" transform="scale(0.015625)"/>
       <path id="DejaVuSans-6e" d="M 3513 2113 
L 3513 0 
L 2938 0 
L 2938 2094 
Q 2938 2591 2744 2837 
Q 2550 3084 2163 3084 
Q 1697 3084 1428 2787 
Q 1159 2491 1159 1978 
L 1159 0 
L 581 0 
L 581 3500 
L 1159 3500 
L 1159 2956 
Q 1366 3272 1645 3428 
Q 1925 3584 2291 3584 
Q 2894 3584 3203 3211 
Q 3513 2838 3513 2113 
z
" transform="scale(0.015625)"/>
       <path id="DejaVuSans-29" d="M 513 4856 
L 1013 4856 
Q 1481 4119 1714 3412 
Q 1947 2706 1947 2009 
Q 1947 1309 1714 600 
Q 1481 -109 1013 -844 
L 513 -844 
Q 928 -128 1133 580 
Q 1338 1288 1338 2009 
Q 1338 2731 1133 3434 
Q 928 4138 513 4856 
z
" transform="scale(0.015625)"/>
      </defs>
      <use xlink:href="#DejaVuSans-6c"/>
      <use xlink:href="#DejaVuSans-6f" x="27.783203"/>
      <use xlink:href="#DejaVuSans-67" x="88.964844"/>
      <use xlink:href="#DejaVuSans-31" x="152.441406"/>
      <use xlink:href="#DejaVuSans-30" x="216.064453"/>
      <use xlink:href="#DejaVuSans-28" x="279.6875"/>
      <use xlink:href="#DejaVuSans-23" x="318.701172"/>
      <use xlink:href="#DejaVuSans-20" x="402.490234"/>
      <use xlink:href="#DejaVuSans-66" x="434.277344"/>
      <use xlink:href="#DejaVuSans-2d" x="463.982422"/>
      <use xlink:href="#DejaVuSans-65" x="500.066406"/>
      <use xlink:href="#DejaVuSans-76" x="561.589844"/>
      <use xlink:href="#DejaVuSans-61" x="620.769531"/>
      <use xlink:href="#DejaVuSans-6c" x="682.048828"/>
      <use xlink:href="#DejaVuSans-73" x="709.832031"/>
      <use xlink:href="#DejaVuSans-20" x="761.931641"/>
      <use xlink:href="#DejaVuSans-2f" x="793.71875"/>
      <use xlink:href="#DejaVuSans-20" x="827.410156"/>
      <use xlink:href="#DejaVuSans-64" x="859.197266"/>
      <use xlink:href="#DejaVuSans-69" x="922.673828"/>
      <use xlink:href="#DejaVuSans-6d" x="950.457031"/>
      <use xlink:href="#DejaVuSans-65" x="1047.869141"/>
      <use xlink:href="#DejaVuSans-6e" x="1109.392578"/>
      <use xlink:href="#DejaVuSans-73" x="1172.771484"/>
      <use xlink:href="#DejaVuSans-69" x="1224.871094"/>
      <use xlink:href="#DejaVuSans-6f" x="1252.654297"/>
      <use xlink:href="#DejaVuSans-6e" x="1313.835938"/>
      <use xlink:href="#DejaVuSans-29" x="1377.214844"/>
     </g>
    </g>
   </g>
   <g id="matplotlib.axis_2">
    <g id="ytick_1">
     <g id="line2d_21">
      <path d="M 57.6 298.944 
L 360.8064 298.944 
" clip-path="url(#p738ef79519)" style="fill: none; stroke: #b0b0b0; stroke-width: 0.8; stroke-linecap: square"/>
     </g>
     <g id="line2d_22">
      <defs>
       <path id="m9fa6f079e8" d="M 0 0 
L -3.5 0 
" style="stroke: #000000; stroke-width: 0.8"/>
      </defs>
      <g>
       <use xlink:href="#m9fa6f079e8" x="57.6" y="298.944" style="stroke: #000000; stroke-width: 0.8"/>
      </g>
     </g>
     <g id="text_6">
      <!-- 0.0 -->
      <g transform="translate(25.155 305.02275)scale(0.16 -0.16)">
       <defs>
        <path id="DejaVuSans-2e" d="M 684 794 
L 1344 794 
L 1344 0 
L 684 0 
L 684 794 
z
" transform="scale(0.015625)"/>
       </defs>
       <use xlink:href="#DejaVuSans-30"/>
       <use xlink:href="#DejaVuSans-2e" x="63.623047"/>
       <use xlink:href="#DejaVuSans-30" x="95.410156"/>
      </g>
     </g>
    </g>
    <g id="ytick_2">
     <g id="line2d_23">
      <path d="M 57.6 244.6848 
L 360.8064 244.6848 
" clip-path="url(#p738ef79519)" style="fill: none; stroke: #b0b0b0; stroke-width: 0.8; stroke-linecap: square"/>
     </g>
     <g id="line2d_24">
      <g>
       <use xlink:href="#m9fa6f079e8" x="57.6" y="244.6848" style="stroke: #000000; stroke-width: 0.8"/>
      </g>
     </g>
     <g id="text_7">
      <!-- 0.2 -->
      <g transform="translate(25.155 250.76355)scale(0.16 -0.16)">
       <use xlink:href="#DejaVuSans-30"/>
       <use xlink:href="#DejaVuSans-2e" x="63.623047"/>
       <use xlink:href="#DejaVuSans-32" x="95.410156"/>
      </g>
     </g>
    </g>
    <g id="ytick_3">
     <g id="line2d_25">
      <path d="M 57.6 190.4256 
L 360.8064 190.4256 
" clip-path="url(#p738ef79519)" style="fill: none; stroke: #b0b0b0; stroke-width: 0.8; stroke-linecap: square"/>
     </g>
     <g id="line2d_26">
      <g>
       <use xlink:href="#m9fa6f079e8" x="57.6" y="190.4256" style="stroke: #000000; stroke-width: 0.8"/>
      </g>
     </g>
     <g id="text_8">
      <!-- 0.4 -->
      <g transform="translate(25.155 196.50435)scale(0.16 -0.16)">
       <use xlink:href="#DejaVuSans-30"/>
       <use xlink:href="#DejaVuSans-2e" x="63.623047"/>
       <use xlink:href="#DejaVuSans-34" x="95.410156"/>
      </g>
     </g>
    </g>
    <g id="ytick_4">
     <g id="line2d_27">
      <path d="M 57.6 136.1664 
L 360.8064 136.1664 
" clip-path="url(#p738ef79519)" style="fill: none; stroke: #b0b0b0; stroke-width: 0.8; stroke-linecap: square"/>
     </g>
     <g id="line2d_28">
      <g>
       <use xlink:href="#m9fa6f079e8" x="57.6" y="136.1664" style="stroke: #000000; stroke-width: 0.8"/>
      </g>
     </g>
     <g id="text_9">
      <!-- 0.6 -->
      <g transform="translate(25.155 142.24515)scale(0.16 -0.16)">
       <use xlink:href="#DejaVuSans-30"/>
       <use xlink:href="#DejaVuSans-2e" x="63.623047"/>
       <use xlink:href="#DejaVuSans-36" x="95.410156"/>
      </g>
     </g>
    </g>
    <g id="ytick_5">
     <g id="line2d_29">
      <path d="M 57.6 81.9072 
L 360.8064 81.9072 
" clip-path="url(#p738ef79519)" style="fill: none; stroke: #b0b0b0; stroke-width: 0.8; stroke-linecap: square"/>
     </g>
     <g id="line2d_30">
      <g>
       <use xlink:href="#m9fa6f079e8" x="57.6" y="81.9072" style="stroke: #000000; stroke-width: 0.8"/>
      </g>
     </g>
     <g id="text_10">
      <!-- 0.8 -->
      <g transform="translate(25.155 87.98595)scale(0.16 -0.16)">
       <defs>
        <path id="DejaVuSans-38" d="M 2034 2216 
Q 1584 2216 1326 1975 
Q 1069 1734 1069 1313 
Q 1069 891 1326 650 
Q 1584 409 2034 409 
Q 2484 409 2743 651 
Q 3003 894 3003 1313 
Q 3003 1734 2745 1975 
Q 2488 2216 2034 2216 
z
M 1403 2484 
Q 997 2584 770 2862 
Q 544 3141 544 3541 
Q 544 4100 942 4425 
Q 1341 4750 2034 4750 
Q 2731 4750 3128 4425 
Q 3525 4100 3525 3541 
Q 3525 3141 3298 2862 
Q 3072 2584 2669 2484 
Q 3125 2378 3379 2068 
Q 3634 1759 3634 1313 
Q 3634 634 3220 271 
Q 2806 -91 2034 -91 
Q 1263 -91 848 271 
Q 434 634 434 1313 
Q 434 1759 690 2068 
Q 947 2378 1403 2484 
z
M 1172 3481 
Q 1172 3119 1398 2916 
Q 1625 2713 2034 2713 
Q 2441 2713 2670 2916 
Q 2900 3119 2900 3481 
Q 2900 3844 2670 4047 
Q 2441 4250 2034 4250 
Q 1625 4250 1398 4047 
Q 1172 3844 1172 3481 
z
" transform="scale(0.015625)"/>
       </defs>
       <use xlink:href="#DejaVuSans-30"/>
       <use xlink:href="#DejaVuSans-2e" x="63.623047"/>
       <use xlink:href="#DejaVuSans-38" x="95.410156"/>
      </g>
     </g>
    </g>
    <g id="ytick_6">
     <g id="line2d_31">
      <path d="M 57.6 27.648 
L 360.8064 27.648 
" clip-path="url(#p738ef79519)" style="fill: none; stroke: #b0b0b0; stroke-width: 0.8; stroke-linecap: square"/>
     </g>
     <g id="line2d_32">
      <g>
       <use xlink:href="#m9fa6f079e8" x="57.6" y="27.648" style="stroke: #000000; stroke-width: 0.8"/>
      </g>
     </g>
     <g id="text_11">
      <!-- 1.0 -->
      <g transform="translate(25.155 33.72675)scale(0.16 -0.16)">
       <use xlink:href="#DejaVuSans-31"/>
       <use xlink:href="#DejaVuSans-2e" x="63.623047"/>
       <use xlink:href="#DejaVuSans-30" x="95.410156"/>
      </g>
     </g>
    </g>
    <g id="text_12">
     <!-- Fraction of function,target pairs -->
     <g transform="translate(17.619531 297.681)rotate(-90)scale(0.17 -0.17)">
      <defs>
       <path id="DejaVuSans-46" d="M 628 4666 
L 3309 4666 
L 3309 4134 
L 1259 4134 
L 1259 2759 
L 3109 2759 
L 3109 2228 
L 1259 2228 
L 1259 0 
L 628 0 
L 628 4666 
z
" transform="scale(0.015625)"/>
       <path id="DejaVuSans-72" d="M 2631 2963 
Q 2534 3019 2420 3045 
Q 2306 3072 2169 3072 
Q 1681 3072 1420 2755 
Q 1159 2438 1159 1844 
L 1159 0 
L 581 0 
L 581 3500 
L 1159 3500 
L 1159 2956 
Q 1341 3275 1631 3429 
Q 1922 3584 2338 3584 
Q 2397 3584 2469 3576 
Q 2541 3569 2628 3553 
L 2631 2963 
z
" transform="scale(0.015625)"/>
       <path id="DejaVuSans-63" d="M 3122 3366 
L 3122 2828 
Q 2878 2963 2633 3030 
Q 2388 3097 2138 3097 
Q 1578 3097 1268 2742 
Q 959 2388 959 1747 
Q 959 1106 1268 751 
Q 1578 397 2138 397 
Q 2388 397 2633 464 
Q 2878 531 3122 666 
L 3122 134 
Q 2881 22 2623 -34 
Q 2366 -91 2075 -91 
Q 1284 -91 818 406 
Q 353 903 353 1747 
Q 353 2603 823 3093 
Q 1294 3584 2113 3584 
Q 2378 3584 2631 3529 
Q 2884 3475 3122 3366 
z
" transform="scale(0.015625)"/>
       <path id="DejaVuSans-74" d="M 1172 4494 
L 1172 3500 
L 2356 3500 
L 2356 3053 
L 1172 3053 
L 1172 1153 
Q 1172 725 1289 603 
Q 1406 481 1766 481 
L 2356 481 
L 2356 0 
L 1766 0 
Q 1100 0 847 248 
Q 594 497 594 1153 
L 594 3053 
L 172 3053 
L 172 3500 
L 594 3500 
L 594 4494 
L 1172 4494 
z
" transform="scale(0.015625)"/>
       <path id="DejaVuSans-75" d="M 544 1381 
L 544 3500 
L 1119 3500 
L 1119 1403 
Q 1119 906 1312 657 
Q 1506 409 1894 409 
Q 2359 409 2629 706 
Q 2900 1003 2900 1516 
L 2900 3500 
L 3475 3500 
L 3475 0 
L 2900 0 
L 2900 538 
Q 2691 219 2414 64 
Q 2138 -91 1772 -91 
Q 1169 -91 856 284 
Q 544 659 544 1381 
z
M 1991 3584 
L 1991 3584 
z
" transform="scale(0.015625)"/>
       <path id="DejaVuSans-2c" d="M 750 794 
L 1409 794 
L 1409 256 
L 897 -744 
L 494 -744 
L 750 256 
L 750 794 
z
" transform="scale(0.015625)"/>
       <path id="DejaVuSans-70" d="M 1159 525 
L 1159 -1331 
L 581 -1331 
L 581 3500 
L 1159 3500 
L 1159 2969 
Q 1341 3281 1617 3432 
Q 1894 3584 2278 3584 
Q 2916 3584 3314 3078 
Q 3713 2572 3713 1747 
Q 3713 922 3314 415 
Q 2916 -91 2278 -91 
Q 1894 -91 1617 61 
Q 1341 213 1159 525 
z
M 3116 1747 
Q 3116 2381 2855 2742 
Q 2594 3103 2138 3103 
Q 1681 3103 1420 2742 
Q 1159 2381 1159 1747 
Q 1159 1113 1420 752 
Q 1681 391 2138 391 
Q 2594 391 2855 752 
Q 3116 1113 3116 1747 
z
" transform="scale(0.015625)"/>
      </defs>
      <use xlink:href="#DejaVuSans-46"/>
      <use xlink:href="#DejaVuSans-72" x="50.269531"/>
      <use xlink:href="#DejaVuSans-61" x="91.382812"/>
      <use xlink:href="#DejaVuSans-63" x="152.662109"/>
      <use xlink:href="#DejaVuSans-74" x="207.642578"/>
      <use xlink:href="#DejaVuSans-69" x="246.851562"/>
      <use xlink:href="#DejaVuSans-6f" x="274.634766"/>
      <use xlink:href="#DejaVuSans-6e" x="335.816406"/>
      <use xlink:href="#DejaVuSans-20" x="399.195312"/>
      <use xlink:href="#DejaVuSans-6f" x="430.982422"/>
      <use xlink:href="#DejaVuSans-66" x="492.164062"/>
      <use xlink:href="#DejaVuSans-20" x="527.369141"/>
      <use xlink:href="#DejaVuSans-66" x="559.15625"/>
      <use xlink:href="#DejaVuSans-75" x="594.361328"/>
      <use xlink:href="#DejaVuSans-6e" x="657.740234"/>
      <use xlink:href="#DejaVuSans-63" x="721.119141"/>
      <use xlink:href="#DejaVuSans-74" x="776.099609"/>
      <use xlink:href="#DejaVuSans-69" x="815.308594"/>
      <use xlink:href="#DejaVuSans-6f" x="843.091797"/>
      <use xlink:href="#DejaVuSans-6e" x="904.273438"/>
      <use xlink:href="#DejaVuSans-2c" x="967.652344"/>
      <use xlink:href="#DejaVuSans-74" x="999.439453"/>
      <use xlink:href="#DejaVuSans-61" x="1038.648438"/>
      <use xlink:href="#DejaVuSans-72" x="1099.927734"/>
      <use xlink:href="#DejaVuSans-67" x="1139.291016"/>
      <use xlink:href="#DejaVuSans-65" x="1202.767578"/>
      <use xlink:href="#DejaVuSans-74" x="1264.291016"/>
      <use xlink:href="#DejaVuSans-20" x="1303.5"/>
      <use xlink:href="#DejaVuSans-70" x="1335.287109"/>
      <use xlink:href="#DejaVuSans-61" x="1398.763672"/>
      <use xlink:href="#DejaVuSans-69" x="1460.042969"/>
      <use xlink:href="#DejaVuSans-72" x="1487.826172"/>
      <use xlink:href="#DejaVuSans-73" x="1528.939453"/>
     </g>
    </g>
   </g>
   <g id="line2d_33">
    <defs>
     <path id="m7cfef97a50" d="M 0 1.5 
C 0.397805 1.5 0.77937 1.341951 1.06066 1.06066 
C 1.341951 0.77937 1.5 0.397805 1.5 0 
C 1.5 -0.397805 1.341951 -0.77937 1.06066 -1.06066 
C 0.77937 -1.341951 0.397805 -1.5 0 -1.5 
C -0.397805 -1.5 -0.77937 -1.341951 -1.06066 -1.06066 
C -1.341951 -0.77937 -1.5 -0.397805 -1.5 0 
C -1.5 0.397805 -1.341951 0.77937 -1.06066 1.06066 
C -0.77937 1.341951 -0.397805 1.5 0 1.5 
z
" style="stroke: #f5deb3"/>
    </defs>
    <g>
     <use xlink:href="#m7cfef97a50" x="169.793854" y="27.648" style="fill: #f5deb3; stroke: #f5deb3"/>
     <use xlink:href="#m7cfef97a50" x="169.793854" y="27.648" style="fill: #f5deb3; stroke: #f5deb3"/>
    </g>
   </g>
   <g id="line2d_34">
    <defs>
     <path id="mc8e1b3cbad" d="M 0 1.5 
C 0.397805 1.5 0.77937 1.341951 1.06066 1.06066 
C 1.341951 0.77937 1.5 0.397805 1.5 0 
C 1.5 -0.397805 1.341951 -0.77937 1.06066 -1.06066 
C 0.77937 -1.341951 0.397805 -1.5 0 -1.5 
C -0.397805 -1.5 -0.77937 -1.341951 -1.06066 -1.06066 
C -1.341951 -0.77937 -1.5 -0.397805 -1.5 0 
C -1.5 0.397805 -1.341951 0.77937 -1.06066 1.06066 
C -0.77937 1.341951 -0.397805 1.5 0 1.5 
z
" style="stroke: #000080"/>
    </defs>
    <g>
     <use xlink:href="#mc8e1b3cbad" x="228.466314" y="27.648" style="fill: #000080; stroke: #000080"/>
     <use xlink:href="#mc8e1b3cbad" x="228.466314" y="27.648" style="fill: #000080; stroke: #000080"/>
    </g>
   </g>
   <g id="line2d_35">
    <path d="M 27.323974 298.944 
L 27.323974 286.177129 
L 40.363149 286.177129 
L 40.363149 285.326005 
L 47.990577 285.326005 
L 47.990577 284.262099 
L 53.402323 284.262099 
L 53.402323 283.623755 
L 57.6 283.623755 
L 57.6 282.559849 
L 63.929565 282.559849 
L 63.929565 280.8576 
L 66.441498 280.8576 
L 66.441498 280.006475 
L 70.639174 280.006475 
L 70.639174 278.942569 
L 72.432107 278.942569 
L 72.432107 278.729788 
L 75.574654 278.729788 
L 75.574654 278.304226 
L 76.96874 278.304226 
L 76.96874 277.665882 
L 78.266603 277.665882 
L 78.266603 277.24032 
L 79.480672 277.24032 
L 79.480672 276.814758 
L 81.696354 276.814758 
L 81.696354 276.389195 
L 82.713442 276.389195 
L 82.713442 276.176414 
L 83.678349 276.176414 
L 83.678349 275.963633 
L 86.307488 275.963633 
L 86.307488 275.538071 
L 87.876026 275.538071 
L 87.876026 275.325289 
L 88.613828 275.325289 
L 88.613828 275.112508 
L 90.007914 275.112508 
L 90.007914 274.048602 
L 91.922605 274.048602 
L 91.922605 273.835821 
L 92.519847 273.835821 
L 92.519847 273.197478 
L 93.098709 273.197478 
L 93.098709 272.771915 
L 93.66029 272.771915 
L 93.66029 271.920791 
L 94.205591 271.920791 
L 94.205591 271.495228 
L 94.735529 271.495228 
L 94.735529 271.282447 
L 95.250946 271.282447 
L 95.250946 269.154635 
L 96.717523 269.154635 
L 96.717523 268.941854 
L 98.077987 268.941854 
L 98.077987 268.516292 
L 98.510456 268.516292 
L 98.510456 268.303511 
L 98.933205 268.303511 
L 98.933205 268.090729 
L 99.346662 268.090729 
L 99.346662 267.665167 
L 99.751228 267.665167 
L 99.751228 267.239605 
L 100.9152 267.239605 
L 100.9152 267.026824 
L 101.653002 267.026824 
L 101.653002 266.814042 
L 102.011329 266.814042 
L 102.011329 265.537355 
L 102.708132 265.537355 
L 102.708132 265.111793 
L 104.655893 265.111793 
L 104.655893 264.686231 
L 105.26277 264.686231 
L 105.26277 264.473449 
L 105.559021 264.473449 
L 105.559021 264.047887 
L 106.137884 264.047887 
L 106.137884 263.835106 
L 106.42077 263.835106 
L 106.42077 263.409544 
L 107.774703 263.409544 
L 107.774703 263.196762 
L 108.29012 263.196762 
L 108.29012 262.7712 
L 108.791791 262.7712 
L 108.791791 262.558419 
L 110.221204 262.558419 
L 110.221204 262.345638 
L 110.674517 262.345638 
L 110.674517 261.068951 
L 110.897141 261.068951 
L 110.897141 260.643388 
L 112.385837 260.643388 
L 112.385837 260.430607 
L 112.589207 260.430607 
L 112.589207 259.792264 
L 112.989468 259.792264 
L 112.989468 259.366701 
L 113.186449 259.366701 
L 113.186449 259.15392 
L 113.765312 259.15392 
L 113.765312 258.728358 
L 113.954374 258.728358 
L 113.954374 258.515576 
L 114.326893 258.515576 
L 114.326893 258.090014 
L 114.510421 258.090014 
L 114.510421 257.877233 
L 115.917548 257.877233 
L 115.917548 257.664452 
L 116.086263 257.664452 
L 116.086263 257.451671 
L 116.253478 257.451671 
L 116.253478 257.238889 
L 116.583514 257.238889 
L 116.583514 257.026108 
L 118.000953 257.026108 
L 118.000953 255.962202 
L 118.152051 255.962202 
L 118.152051 255.53664 
L 119.319033 255.53664 
L 119.319033 254.898296 
L 119.876453 254.898296 
L 119.876453 254.259953 
L 120.550775 254.259953 
L 120.550775 253.834391 
L 120.682786 253.834391 
L 120.682786 253.621609 
L 122.076872 253.621609 
L 122.076872 253.408828 
L 122.19863 253.408828 
L 122.19863 253.196047 
L 122.319605 253.196047 
L 122.319605 252.983266 
L 122.439807 252.983266 
L 122.439807 251.706579 
L 122.795872 251.706579 
L 122.795872 251.493798 
L 123.260379 251.493798 
L 123.260379 250.429892 
L 123.374735 250.429892 
L 123.374735 250.217111 
L 123.825333 250.217111 
L 123.825333 250.004329 
L 124.156336 250.004329 
L 124.265389 249.365986 
L 124.481616 249.365986 
L 124.588805 248.940424 
L 125.219419 248.940424 
L 125.322496 248.30208 
L 126.028642 248.30208 
L 126.127391 246.599831 
L 126.225624 246.599831 
L 126.323346 246.174268 
L 126.709238 246.174268 
L 126.709238 245.961487 
L 126.993549 245.961487 
L 126.993549 245.748706 
L 127.18073 245.748706 
L 127.18073 245.535925 
L 127.366067 245.535925 
L 127.366067 245.110362 
L 127.731351 245.110362 
L 127.821575 244.6848 
L 128.089678 244.6848 
L 128.089678 244.472019 
L 128.354013 244.472019 
L 128.354013 244.259238 
L 128.956723 244.259238 
L 129.041269 242.556988 
L 129.292652 242.556988 
L 129.292652 241.918645 
L 130.4233 241.918645 
L 130.501519 240.854739 
L 130.734242 240.854739 
L 130.734242 240.641958 
L 131.266322 240.641958 
L 131.266322 240.429176 
L 131.856536 240.429176 
L 131.856536 240.003614 
L 132.216233 240.003614 
L 132.216233 239.790833 
L 132.428795 239.790833 
L 132.428795 238.514146 
L 132.708526 238.514146 
L 132.708526 238.088584 
L 132.846847 238.088584 
L 132.846847 237.875802 
L 132.984158 237.875802 
L 132.984158 237.45024 
L 133.390178 237.45024 
L 133.457005 237.024678 
L 133.589949 237.024678 
L 133.656071 235.322428 
L 133.78762 235.322428 
L 133.78762 235.109647 
L 134.047992 235.109647 
L 134.047992 234.896866 
L 134.176839 234.896866 
L 134.176839 234.684085 
L 134.495147 234.684085 
L 134.495147 234.471304 
L 134.620977 234.471304 
L 134.620977 234.258522 
L 134.745971 234.258522 
L 134.808158 232.981835 
L 134.87014 232.981835 
L 134.87014 232.556273 
L 134.993495 232.556273 
L 134.993495 232.343492 
L 135.237805 232.343492 
L 135.237805 232.130711 
L 135.538796 232.130711 
L 135.59842 231.066805 
L 136.126705 231.066805 
L 136.184497 230.428461 
L 136.242113 230.428461 
L 136.242113 230.21568 
L 136.527575 230.21568 
L 136.584151 229.577336 
L 136.696795 229.577336 
L 136.752866 228.300649 
L 136.92008 228.300649 
L 136.92008 227.875087 
L 137.412988 227.875087 
L 137.520791 225.747275 
L 137.574461 225.747275 
L 137.574461 225.534494 
L 138.10291 225.534494 
L 138.10291 224.257807 
L 138.412998 224.257807 
L 138.412998 223.832245 
L 138.718057 223.832245 
L 138.718057 223.619464 
L 138.868751 223.619464 
L 138.918715 222.98112 
L 139.264798 222.98112 
L 139.313723 222.555558 
L 139.459738 222.555558 
L 139.459738 222.129995 
L 139.748412 222.129995 
L 139.843661 221.278871 
L 140.079694 221.278871 
L 140.173284 220.853308 
L 140.219905 220.853308 
L 140.312801 219.151059 
L 140.359078 219.151059 
L 140.359078 218.725496 
L 140.49723 218.725496 
L 140.58877 217.874372 
L 140.679868 217.874372 
L 140.679868 217.661591 
L 140.905699 217.661591 
L 140.995278 217.023247 
L 141.173167 217.023247 
L 141.173167 216.597685 
L 141.305488 216.597685 
L 141.305488 216.384904 
L 141.436884 216.384904 
L 141.436884 216.172122 
L 141.868361 216.172122 
L 141.868361 215.959341 
L 142.331827 215.959341 
L 142.331827 215.74656 
L 142.45627 215.74656 
L 142.45627 215.533779 
L 142.743475 215.533779 
L 142.824734 214.469873 
L 142.905644 214.469873 
L 142.905644 214.257092 
L 143.066428 214.257092 
L 143.066428 214.044311 
L 143.265494 214.044311 
L 143.265494 212.980405 
L 143.579681 212.980405 
L 143.579681 212.767624 
L 143.696162 212.767624 
L 143.696162 212.554842 
L 143.965177 212.554842 
L 143.965177 211.916499 
L 144.155003 211.916499 
L 144.155003 211.703718 
L 144.305496 211.703718 
L 144.305496 211.490936 
L 144.565997 211.490936 
L 144.565997 211.278155 
L 144.931992 211.278155 
L 144.931992 211.065374 
L 145.432709 211.065374 
L 145.432709 210.852593 
L 146.227438 210.852593 
L 146.227438 210.639812 
L 146.429353 210.639812 
L 146.429353 210.427031 
L 147.375841 210.427031 
L 147.375841 210.214249 
L 148.246613 210.214249 
L 148.246613 210.001468 
L 148.57797 210.001468 
L 148.57797 209.575906 
L 149.367382 209.575906 
L 149.367382 209.363125 
L 149.538397 209.363125 
L 149.538397 208.937562 
L 149.73597 208.937562 
L 149.73597 208.724781 
L 151.656094 208.724781 
L 151.656094 208.512 
L 152.20574 208.512 
L 152.20574 208.299219 
L 152.426047 208.299219 
L 152.426047 208.086438 
L 152.835271 208.086438 
L 152.835271 207.235313 
L 152.953957 207.235313 
L 152.953957 207.022532 
L 153.165721 207.022532 
L 153.259079 206.384188 
L 153.444416 206.384188 
L 153.444416 206.171407 
L 153.787077 206.171407 
L 153.832297 205.745845 
L 154.012098 205.745845 
L 154.012098 205.533064 
L 154.168026 205.533064 
L 154.168026 205.320282 
L 154.322673 205.320282 
L 154.432362 204.469158 
L 154.584859 204.469158 
L 154.693034 203.830814 
L 154.907535 203.830814 
L 154.907535 203.618033 
L 155.22477 203.618033 
L 155.22477 203.192471 
L 155.495444 203.192471 
L 155.536743 202.766908 
L 155.660098 202.766908 
L 155.660098 202.554127 
L 155.884169 202.554127 
L 155.985143 201.915784 
L 156.165543 201.915784 
L 156.165543 201.703002 
L 156.501649 201.703002 
L 156.501649 201.490221 
L 156.908716 201.490221 
L 156.908716 201.27744 
L 157.175281 201.27744 
L 157.175281 201.064659 
L 157.288377 201.064659 
L 157.288377 200.851878 
L 158.007377 200.851878 
L 158.007377 200.639096 
L 158.223191 200.639096 
L 158.312387 200.213534 
L 159.518669 200.213534 
L 159.518669 199.787972 
L 160.777545 199.787972 
L 160.82432 199.362409 
L 160.917524 199.362409 
L 161.025681 198.936847 
L 161.300977 198.936847 
L 161.300977 198.724066 
L 161.512345 198.724066 
L 161.512345 198.298504 
L 161.78066 198.298504 
L 161.78066 198.085722 
L 162.074367 198.085722 
L 162.161592 197.66016 
L 162.377902 197.66016 
L 162.377902 197.447379 
L 162.56338 197.447379 
L 162.56338 197.234598 
L 162.998429 197.234598 
L 162.998429 197.021816 
L 163.260183 197.021816 
L 163.260183 196.809035 
L 163.504846 196.809035 
L 163.558786 196.383473 
L 163.625994 196.383473 
L 163.719684 195.957911 
L 164.181259 195.957911 
L 164.181259 195.745129 
L 164.846771 195.745129 
L 164.846771 195.532348 
L 165.146166 195.532348 
L 165.146166 195.319567 
L 165.586508 195.319567 
L 165.586508 195.106786 
L 166.356368 195.106786 
L 166.356368 194.894005 
L 169.304197 194.894005 
L 169.304197 194.681224 
L 172.724025 194.681224 
L 172.757085 193.830099 
L 172.905144 193.830099 
L 172.978738 192.766193 
L 173.084536 192.766193 
L 173.084536 192.553412 
L 173.230049 192.553412 
L 173.326436 191.063944 
L 173.41436 191.063944 
L 173.470098 189.361694 
L 173.557354 189.361694 
L 173.573175 188.723351 
L 173.714971 188.723351 
L 173.77765 187.659445 
L 173.871279 187.659445 
L 173.979927 185.957195 
L 174.049442 185.957195 
L 174.134058 182.552696 
L 174.210652 182.552696 
L 174.317363 180.637666 
L 174.324962 180.637666 
L 174.393216 179.999322 
L 174.498899 179.999322 
L 174.589015 178.297073 
L 174.618958 178.297073 
L 174.723384 175.530918 
L 174.753113 175.530918 
L 174.827233 174.679793 
L 174.908429 174.679793 
L 175.018589 172.551981 
L 175.047856 172.551981 
L 175.149934 169.998607 
L 175.208017 169.998607 
L 175.258693 169.360264 
L 175.330851 169.360264 
L 175.402733 168.083576 
L 175.495771 168.083576 
L 175.581246 166.806889 
L 175.680478 166.806889 
L 175.708734 165.742984 
L 175.807298 165.742984 
L 175.870389 165.317421 
L 175.954182 165.317421 
L 175.954182 165.10464 
L 176.099928 165.10464 
L 176.203345 164.466296 
L 176.712072 164.466296 
L 176.712072 164.253515 
L 176.951458 164.253515 
L 176.997654 163.827953 
L 177.200883 163.827953 
L 177.304922 163.189609 
L 177.330842 163.189609 
L 177.330842 162.976828 
L 177.485617 162.976828 
L 177.504875 162.338485 
L 177.600869 162.338485 
L 177.664594 161.274579 
L 177.734443 161.274579 
L 177.816658 160.636235 
L 177.904798 160.636235 
L 177.992527 159.785111 
L 178.154375 159.785111 
L 178.154375 159.359548 
L 178.388444 159.359548 
L 178.486135 157.657299 
L 178.661917 157.657299 
L 178.661917 157.444518 
L 178.800172 157.444518 
L 178.842048 157.018955 
L 178.943362 157.018955 
L 178.996779 156.593393 
L 179.296641 156.593393 
L 179.296641 156.380612 
L 180.439486 156.380612 
L 180.538033 155.742268 
L 180.559863 155.742268 
L 180.663208 154.2528 
L 180.755196 154.2528 
L 180.846737 152.976113 
L 180.916439 152.976113 
L 181.023172 151.699426 
L 181.071005 151.699426 
L 181.171587 149.997176 
L 181.203239 149.997176 
L 181.308361 147.01824 
L 181.350246 147.01824 
L 181.44935 146.379896 
L 181.470148 146.379896 
L 181.558283 145.315991 
L 181.651154 145.315991 
L 181.733323 143.188179 
L 181.764044 143.188179 
L 181.855908 142.124273 
L 181.881346 142.124273 
L 181.916902 140.847586 
L 182.008023 140.847586 
L 182.118798 140.209242 
L 182.138869 140.209242 
L 182.193954 139.358118 
L 182.353291 139.358118 
L 182.353291 139.145336 
L 183.225249 139.145336 
L 183.277247 138.719774 
L 183.446426 138.719774 
L 183.493151 138.294212 
L 183.646526 138.294212 
L 183.743481 136.591962 
L 183.908536 136.591962 
L 183.981431 135.953619 
L 184.108322 135.953619 
L 184.130892 135.528056 
L 184.243334 135.528056 
L 184.243334 135.315275 
L 184.372931 135.315275 
L 184.452923 134.251369 
L 185.82514 134.251369 
L 185.82514 134.038588 
L 186.568809 134.038588 
L 186.568809 133.825807 
L 186.710932 133.825807 
L 186.710932 133.613026 
L 188.002764 133.613026 
L 188.09434 132.123558 
L 188.319544 132.123558 
L 188.388022 130.634089 
L 188.477746 130.634089 
L 188.577732 129.144621 
L 188.59553 129.144621 
L 188.655921 127.867934 
L 188.78317 127.867934 
L 188.878044 126.165685 
L 188.937536 126.165685 
L 189.031638 124.250654 
L 189.121811 124.250654 
L 189.163284 123.612311 
L 189.273435 123.612311 
L 189.273435 123.399529 
L 189.42725 123.399529 
L 189.42725 123.186748 
L 189.674129 123.186748 
L 189.754592 122.548405 
L 189.828049 122.548405 
L 189.828049 122.335624 
L 189.990633 122.335624 
L 189.990633 122.122842 
L 190.135439 122.122842 
L 190.240057 121.484499 
L 190.253093 121.484499 
L 190.314893 121.058936 
L 190.405598 121.058936 
L 190.499084 120.633374 
L 190.540841 120.633374 
L 190.540841 120.420593 
L 190.73555 120.420593 
L 190.73555 120.207812 
L 190.953392 120.207812 
L 191.031702 119.782249 
L 191.18735 119.782249 
L 191.18735 119.569468 
L 191.341721 119.569468 
L 191.341721 119.356687 
L 191.818373 119.356687 
L 191.818373 119.143906 
L 191.958747 119.143906 
L 191.958747 118.931125 
L 192.478185 118.931125 
L 192.478185 118.718344 
L 192.932875 118.718344 
L 192.94982 118.292781 
L 193.31049 118.292781 
L 193.31049 118.08 
L 193.64262 118.08 
L 193.64262 117.867219 
L 194.692902 117.867219 
L 194.803219 117.441656 
L 194.831336 117.441656 
L 194.933226 115.313845 
L 194.978898 115.313845 
L 195.047198 114.675501 
L 195.092594 114.675501 
L 195.183058 114.037158 
L 195.215619 114.037158 
L 195.320433 111.909346 
L 195.330385 111.909346 
L 195.347788 111.483784 
L 195.488903 111.483784 
L 195.597115 110.207096 
L 195.631416 110.207096 
L 195.653433 109.781534 
L 196.03822 109.781534 
L 196.081289 108.930409 
L 196.2194 108.930409 
L 196.325861 107.653722 
L 196.419989 107.653722 
L 196.529992 106.802598 
L 196.731932 106.802598 
L 196.805666 106.164254 
L 196.920301 106.164254 
L 196.984193 105.738692 
L 197.054678 105.738692 
L 197.054678 105.313129 
L 197.573959 105.313129 
L 197.66206 104.674786 
L 197.721295 104.674786 
L 197.721295 104.462005 
L 197.852265 104.462005 
L 197.917409 103.398099 
L 197.967201 103.398099 
L 198.06424 102.121412 
L 198.07929 102.121412 
L 198.18003 101.695849 
L 198.19926 101.695849 
L 198.19926 101.483068 
L 198.588143 101.483068 
L 198.65913 100.419162 
L 198.72985 100.419162 
L 198.804442 99.9936 
L 198.872558 99.9936 
L 198.969149 99.568038 
L 200.214325 99.568038 
L 200.214325 99.355256 
L 200.612971 99.355256 
L 200.612971 99.142475 
L 200.798013 99.142475 
L 200.900033 98.716913 
L 200.946224 98.716913 
L 200.979411 98.291351 
L 201.109748 98.291351 
L 201.193712 97.440226 
L 201.355107 97.440226 
L 201.454158 96.801882 
L 201.482876 96.801882 
L 201.591959 96.163539 
L 201.618687 96.163539 
L 201.689774 94.461289 
L 201.753524 94.461289 
L 201.861055 91.695134 
L 201.866327 91.695134 
L 201.959232 88.290635 
L 201.981951 88.290635 
L 202.088187 82.971106 
L 202.095132 82.971106 
L 202.193826 79.779388 
L 202.221437 79.779388 
L 202.262777 78.715482 
L 202.350325 78.715482 
L 202.430647 78.28992 
L 202.551338 78.28992 
L 202.65947 77.651576 
L 202.761958 77.651576 
L 202.793766 76.800452 
L 202.942054 76.800452 
L 203.043018 75.098202 
L 203.061167 75.098202 
L 203.171335 74.459859 
L 203.707921 74.459859 
L 203.707921 74.247078 
L 203.831796 74.247078 
L 203.831796 74.034296 
L 204.003549 74.034296 
L 204.003549 73.821515 
L 204.399335 73.821515 
L 204.399335 73.608734 
L 204.844052 73.608734 
L 204.951743 72.970391 
L 205.399764 72.970391 
L 205.415777 72.544828 
L 205.650039 72.544828 
L 205.650039 72.332047 
L 205.806033 72.332047 
L 205.83167 71.906485 
L 206.303916 71.906485 
L 206.406348 71.268141 
L 206.450471 71.268141 
L 206.54115 70.629798 
L 206.595894 70.629798 
L 206.595894 70.417016 
L 206.7117 70.417016 
L 206.7117 70.204235 
L 207.097529 70.204235 
L 207.097529 69.991454 
L 207.216909 69.991454 
L 207.253895 69.565892 
L 207.334222 69.565892 
L 207.334222 69.353111 
L 207.805265 69.353111 
L 207.805265 69.140329 
L 208.663245 69.140329 
L 208.774336 68.289205 
L 208.781638 68.289205 
L 208.859347 67.863642 
L 208.963265 67.863642 
L 209.058221 66.799736 
L 209.097745 66.799736 
L 209.186074 65.523049 
L 209.239585 65.523049 
L 209.318976 63.608019 
L 209.354416 63.608019 
L 209.413335 62.756894 
L 209.605303 62.756894 
L 209.688967 61.905769 
L 209.71793 61.905769 
L 209.78726 61.267426 
L 209.980036 61.267426 
L 210.031339 60.629082 
L 210.396645 60.629082 
L 210.396645 60.416301 
L 210.545679 60.416301 
L 210.545679 60.20352 
L 210.772513 60.20352 
L 210.772513 59.990739 
L 210.890351 59.990739 
L 210.890351 59.777958 
L 211.022583 59.777958 
L 211.022583 59.565176 
L 211.192465 59.565176 
L 211.25231 59.139614 
L 211.659712 59.139614 
L 211.659712 58.926833 
L 212.49097 58.926833 
L 212.49097 58.714052 
L 212.71638 58.714052 
L 212.71638 58.501271 
L 214.136112 58.501271 
L 214.136112 58.288489 
L 214.281087 58.288489 
L 214.324634 57.437365 
L 214.406917 57.437365 
L 214.470867 56.799021 
L 214.700546 56.799021 
L 214.700546 56.58624 
L 214.862399 56.58624 
L 214.878244 56.160678 
L 214.976537 56.160678 
L 214.976537 55.947896 
L 215.878885 55.947896 
L 215.878885 55.735115 
L 216.20969 55.735115 
L 216.20969 55.522334 
L 216.702427 55.522334 
L 216.702427 55.309553 
L 216.976729 55.309553 
L 216.976729 55.096772 
L 217.343815 55.096772 
L 217.355388 54.671209 
L 217.459233 54.671209 
L 217.564033 47.862212 
L 217.570897 47.862212 
L 217.650796 43.606588 
L 217.690997 43.606588 
L 217.690997 43.393807 
L 217.857709 43.393807 
L 217.900469 42.542682 
L 217.973012 42.542682 
L 218.067571 41.265995 
L 218.12319 41.265995 
L 218.143173 40.627652 
L 218.256745 40.627652 
L 218.256745 40.414871 
L 218.390818 40.414871 
L 218.432384 39.989308 
L 218.531914 39.989308 
L 218.547124 39.350965 
L 218.810971 39.350965 
L 218.810971 39.138184 
L 218.956757 39.138184 
L 218.956757 38.925402 
L 219.095093 38.925402 
L 219.191187 38.287059 
L 219.630285 38.287059 
L 219.630285 38.074278 
L 220.965156 38.074278 
L 221.070547 35.308122 
L 221.081939 35.308122 
L 221.107231 34.244216 
L 221.315853 34.244216 
L 221.402515 33.818654 
L 221.432349 33.818654 
L 221.432349 33.605873 
L 221.599289 33.605873 
L 221.646013 33.180311 
L 221.771471 33.180311 
L 221.838447 32.116405 
L 221.919109 32.116405 
L 221.919109 31.903624 
L 222.764628 31.903624 
L 222.764628 31.690842 
L 223.443076 31.690842 
L 223.443076 31.478061 
L 223.95344 31.478061 
L 224.054196 29.988593 
L 224.224145 29.988593 
L 224.31441 29.137468 
L 225.408377 29.137468 
L 225.408377 28.924687 
L 226.502542 28.924687 
L 226.570248 28.286344 
L 226.806951 28.286344 
L 226.806951 28.073562 
L 227.101459 28.073562 
L 227.101459 27.860781 
L 228.466314 27.860781 
L 228.466314 27.648 
L 360.8064 27.648 
L 360.8064 27.648 
" style="fill: none; stroke: #000080; stroke-width: 1.5; stroke-linecap: square"/>
   </g>
   <g id="line2d_36">
    <defs>
     <path id="mbdd29a9e5f" d="M 0 6 
C 1.591219 6 3.117479 5.367802 4.242641 4.242641 
C 5.367802 3.117479 6 1.591219 6 0 
C 6 -1.591219 5.367802 -3.117479 4.242641 -4.242641 
C 3.117479 -5.367802 1.591219 -6 0 -6 
C -1.591219 -6 -3.117479 -5.367802 -4.242641 -4.242641 
C -5.367802 -3.117479 -6 -1.591219 -6 0 
C -6 1.591219 -5.367802 3.117479 -4.242641 4.242641 
C -3.117479 5.367802 -1.591219 6 0 6 
z
" style="stroke: #000080; stroke-width: 1.5"/>
    </defs>
    <g>
     <use xlink:href="#mbdd29a9e5f" x="122.439807" y="251.706579" style="fill-opacity: 0; stroke: #000080; stroke-width: 1.5"/>
     <use xlink:href="#mbdd29a9e5f" x="189.156378" y="124.037873" style="fill-opacity: 0; stroke: #000080; stroke-width: 1.5"/>
     <use xlink:href="#mbdd29a9e5f" x="225.408377" y="29.137468" style="fill-opacity: 0; stroke: #000080; stroke-width: 1.5"/>
     <use xlink:href="#mbdd29a9e5f" x="228.466314" y="27.648" style="fill-opacity: 0; stroke: #000080; stroke-width: 1.5"/>
     <use xlink:href="#mbdd29a9e5f" x="228.466314" y="27.648" style="fill-opacity: 0; stroke: #000080; stroke-width: 1.5"/>
     <use xlink:href="#mbdd29a9e5f" x="360.8064" y="27.648" style="fill-opacity: 0; stroke: #000080; stroke-width: 1.5"/>
    </g>
   </g>
   <g id="line2d_37">
    <path style="fill: none; stroke: #000080; stroke-width: 1.5; stroke-linecap: square"/>
    <g/>
   </g>
   <g id="line2d_38">
    <path d="M 103.707211 265.111793 
" clip-path="url(#p738ef79519)" style="fill: none; stroke: #000080; stroke-width: 1.5; stroke-linecap: square"/>
    <defs>
     <path id="maf791cd59b" d="M -12 12 
L 12 -12 
M -12 -12 
L 12 12 
" style="stroke: #000080"/>
    </defs>
    <g clip-path="url(#p738ef79519)">
     <use xlink:href="#maf791cd59b" x="103.707211" y="265.111793" style="fill: #000080; stroke: #000080"/>
    </g>
   </g>
   <g id="line2d_39">
    <defs>
     <path id="m06c6d4baa8" d="M 0 1.5 
C 0.397805 1.5 0.77937 1.341951 1.06066 1.06066 
C 1.341951 0.77937 1.5 0.397805 1.5 0 
C 1.5 -0.397805 1.341951 -0.77937 1.06066 -1.06066 
C 0.77937 -1.341951 0.397805 -1.5 0 -1.5 
C -0.397805 -1.5 -0.77937 -1.341951 -1.06066 -1.06066 
C -1.341951 -0.77937 -1.5 -0.397805 -1.5 0 
C -1.5 0.397805 -1.341951 0.77937 -1.06066 1.06066 
C -0.77937 1.341951 -0.397805 1.5 0 1.5 
z
" style="stroke: #ff00ff"/>
    </defs>
    <g>
     <use xlink:href="#m06c6d4baa8" x="252.625069" y="27.648" style="fill: #ff00ff; stroke: #ff00ff"/>
     <use xlink:href="#m06c6d4baa8" x="252.625069" y="27.648" style="fill: #ff00ff; stroke: #ff00ff"/>
    </g>
   </g>
   <g id="line2d_40">
    <path d="M 27.323974 298.944 
L 27.323974 286.177129 
L 40.363149 286.177129 
L 40.363149 283.623755 
L 47.990577 283.623755 
L 47.990577 282.985412 
L 53.402323 282.985412 
L 53.402323 282.559849 
L 57.6 282.559849 
L 57.6 281.921506 
L 61.029752 281.921506 
L 61.029752 280.644819 
L 66.441498 280.644819 
L 66.441498 280.432038 
L 70.639174 280.432038 
L 70.639174 279.793694 
L 74.068926 279.793694 
L 74.068926 279.580913 
L 75.574654 279.580913 
L 75.574654 278.517007 
L 76.96874 278.517007 
L 76.96874 277.878664 
L 78.266603 277.878664 
L 78.266603 277.665882 
L 81.696354 277.665882 
L 81.696354 277.453101 
L 82.713442 277.453101 
L 82.713442 277.027539 
L 84.596168 277.027539 
L 84.596168 276.389195 
L 85.471281 276.389195 
L 85.471281 275.963633 
L 87.1081 275.963633 
L 87.1081 275.750852 
L 89.323782 275.750852 
L 89.323782 275.538071 
L 91.305777 275.538071 
L 91.305777 274.899727 
L 93.66029 274.899727 
L 93.66029 274.686946 
L 95.752617 274.686946 
L 95.752617 274.474165 
L 96.717523 274.474165 
L 96.717523 274.261384 
L 97.18203 274.261384 
L 97.18203 274.048602 
L 98.933205 274.048602 
L 98.933205 273.835821 
L 99.346662 273.835821 
L 99.346662 273.62304 
L 100.147275 273.62304 
L 100.147275 273.410259 
L 100.9152 273.410259 
L 100.9152 273.197478 
L 101.287718 273.197478 
L 101.287718 272.984696 
L 101.653002 272.984696 
L 101.653002 271.708009 
L 102.011329 271.708009 
L 102.011329 271.282447 
L 103.380045 271.282447 
L 103.380045 270.856885 
L 104.028784 270.856885 
L 104.028784 270.644104 
L 104.655893 270.644104 
L 104.655893 270.218541 
L 104.961779 270.218541 
L 104.961779 269.792979 
L 106.137884 269.792979 
L 106.137884 269.580198 
L 108.034177 269.580198 
L 108.034177 269.367416 
L 108.29012 269.367416 
L 108.29012 268.729073 
L 108.542628 268.729073 
L 108.542628 268.303511 
L 108.791791 268.303511 
L 108.791791 267.877948 
L 109.520071 267.877948 
L 109.520071 267.665167 
L 109.756698 267.665167 
L 109.756698 267.452386 
L 110.674517 267.452386 
L 110.674517 267.239605 
L 110.897141 267.239605 
L 110.897141 267.026824 
L 112.180244 267.026824 
L 112.180244 266.601261 
L 112.385837 266.601261 
L 112.385837 265.962918 
L 112.589207 265.962918 
L 112.589207 265.750136 
L 112.989468 265.750136 
L 112.989468 265.537355 
L 114.326893 265.537355 
L 114.326893 264.899012 
L 114.510421 264.899012 
L 114.510421 264.686231 
L 114.872193 264.686231 
L 114.872193 264.473449 
L 115.402131 264.473449 
L 115.402131 264.260668 
L 115.575511 264.260668 
L 115.575511 263.835106 
L 115.747307 263.835106 
L 115.747307 263.622325 
L 115.917548 263.622325 
L 115.917548 263.409544 
L 116.086263 263.409544 
L 116.086263 263.196762 
L 117.695068 263.196762 
L 117.695068 262.7712 
L 118.450653 262.7712 
L 118.450653 262.558419 
L 118.598196 262.558419 
L 118.598196 262.345638 
L 119.034004 262.345638 
L 119.034004 262.132856 
L 119.738639 262.132856 
L 119.738639 261.920075 
L 120.149089 261.920075 
L 120.149089 261.494513 
L 120.550775 261.494513 
L 120.550775 261.281732 
L 120.682786 261.281732 
L 120.682786 260.643388 
L 120.813877 260.643388 
L 120.813877 260.430607 
L 121.329295 260.430607 
L 121.329295 260.217826 
L 121.706797 260.217826 
L 121.706797 259.792264 
L 122.319605 259.792264 
L 122.319605 259.579482 
L 122.559246 259.579482 
L 122.559246 259.366701 
L 122.677931 259.366701 
L 122.677931 259.15392 
L 122.795872 259.15392 
L 122.795872 258.941139 
L 123.374735 258.941139 
L 123.374735 257.451671 
L 123.4884 257.451671 
L 123.4884 257.026108 
L 123.601383 257.026108 
L 123.601383 256.813327 
L 123.825333 256.813327 
L 123.825333 256.600546 
L 124.373813 256.600546 
L 124.373813 256.387765 
L 124.906754 256.387765 
L 124.906754 256.174984 
L 125.115773 256.174984 
L 125.219419 255.749421 
L 125.322496 255.749421 
L 125.322496 255.53664 
L 125.628382 255.53664 
L 125.729248 254.898296 
L 126.420564 254.898296 
L 126.420564 254.685515 
L 126.899255 254.685515 
L 126.993549 254.259953 
L 127.273627 254.259953 
L 127.273627 254.047172 
L 127.731351 254.047172 
L 127.731351 253.621609 
L 128.000734 253.621609 
L 128.000734 252.983266 
L 128.178203 252.983266 
L 128.178203 252.557704 
L 128.354013 252.557704 
L 128.441306 252.132141 
L 128.700779 252.132141 
L 128.700779 251.91936 
L 128.956723 251.91936 
L 128.956723 251.706579 
L 129.375706 251.706579 
L 129.458394 251.068235 
L 129.7043 251.068235 
L 129.78556 250.642673 
L 129.86647 250.642673 
L 129.86647 250.429892 
L 130.107132 250.429892 
L 130.107132 250.004329 
L 130.344755 250.004329 
L 130.344755 248.940424 
L 131.115828 248.940424 
L 131.115828 248.727642 
L 131.266322 248.727642 
L 131.266322 248.514861 
L 131.63737 248.514861 
L 131.63737 248.089299 
L 132.001241 248.089299 
L 132.001241 247.876518 
L 133.589949 247.876518 
L 133.589949 247.238174 
L 134.683578 247.238174 
L 134.683578 247.025393 
L 135.35878 247.025393 
L 135.418977 246.599831 
L 136.010584 246.599831 
L 136.010584 246.387049 
L 136.356818 246.387049 
L 136.413909 245.748706 
L 136.470828 245.748706 
L 136.470828 245.535925 
L 136.92008 245.535925 
L 136.92008 245.110362 
L 137.085822 245.110362 
L 137.085822 244.897581 
L 137.304564 244.897581 
L 137.304564 244.472019 
L 137.840541 244.472019 
L 137.893309 243.833675 
L 137.998402 243.833675 
L 137.998402 243.195332 
L 138.206842 243.195332 
L 138.206842 242.982551 
L 138.718057 242.982551 
L 138.718057 242.769769 
L 138.868751 242.769769 
L 138.968547 242.344207 
L 139.067817 242.344207 
L 139.117256 241.918645 
L 139.362521 241.918645 
L 139.362521 241.705864 
L 139.796097 241.705864 
L 139.796097 241.280301 
L 140.679868 241.280301 
L 140.770526 240.429176 
L 141.436884 240.429176 
L 141.436884 240.216395 
L 141.610664 240.216395 
L 141.610664 240.003614 
L 141.739954 240.003614 
L 141.739954 239.790833 
L 142.122575 239.790833 
L 142.122575 239.578052 
L 142.824734 239.578052 
L 142.824734 239.365271 
L 143.773417 239.365271 
L 143.773417 239.152489 
L 143.926981 239.152489 
L 143.926981 238.939708 
L 145.040416 238.939708 
L 145.040416 238.726927 
L 145.397382 238.726927 
L 145.397382 238.514146 
L 146.429353 238.514146 
L 146.429353 238.301365 
L 147.375841 238.301365 
L 147.407644 237.875802 
L 147.909315 237.875802 
L 147.909315 237.663021 
L 148.367783 237.663021 
L 148.367783 237.45024 
L 148.991428 237.45024 
L 148.991428 237.237459 
L 149.107908 237.237459 
L 149.107908 237.024678 
L 149.281288 237.024678 
L 149.281288 236.811896 
L 149.538397 236.811896 
L 149.538397 236.599115 
L 149.73597 236.599115 
L 149.764026 236.173553 
L 150.042308 236.173553 
L 150.042308 235.960772 
L 150.479171 235.960772 
L 150.533072 235.535209 
L 150.667154 235.535209 
L 150.667154 235.322428 
L 151.27191 235.322428 
L 151.27191 234.896866 
L 151.528902 234.896866 
L 151.630724 234.045741 
L 151.70673 234.045741 
L 151.70673 233.620179 
L 152.25492 233.620179 
L 152.25492 233.407398 
L 152.619733 233.407398 
L 152.619733 233.194616 
L 152.811444 233.194616 
L 152.811444 232.769054 
L 153.467455 232.769054 
L 153.467455 232.556273 
L 154.079083 232.556273 
L 154.079083 232.343492 
L 154.519655 232.343492 
L 154.519655 231.705148 
L 154.886195 231.705148 
L 154.886195 231.492367 
L 155.412574 231.492367 
L 155.412574 231.279586 
L 156.005274 231.279586 
L 156.025382 230.854024 
L 156.696589 230.854024 
L 156.774003 230.428461 
L 157.137431 230.428461 
L 157.137431 230.21568 
L 159.096679 230.21568 
L 159.096679 230.002899 
L 160.029123 230.002899 
L 160.029123 229.790118 
L 160.223059 229.790118 
L 160.223059 229.577336 
L 160.699326 229.577336 
L 160.699326 229.364555 
L 161.632069 229.364555 
L 161.721364 228.938993 
L 162.219518 228.938993 
L 162.219518 228.726212 
L 163.164171 228.726212 
L 163.260183 228.300649 
L 163.545315 228.300649 
L 163.545315 228.087868 
L 163.666204 228.087868 
L 163.666204 227.875087 
L 164.846771 227.875087 
L 164.846771 227.662306 
L 167.140533 227.662306 
L 167.140533 227.449525 
L 169.589749 227.449525 
L 169.589749 227.236744 
L 174.701055 227.236744 
L 174.701055 226.811181 
L 174.937868 226.811181 
L 174.937868 226.172838 
L 175.142661 226.172838 
L 175.22251 224.257807 
L 175.265921 224.257807 
L 175.352444 222.98112 
L 175.552798 222.98112 
L 175.659258 222.342776 
L 175.701674 222.342776 
L 175.77919 220.640527 
L 175.856387 220.640527 
L 175.947214 218.725496 
L 175.968112 218.725496 
L 176.065329 215.533779 
L 176.099928 215.533779 
L 176.196469 214.257092 
L 176.217092 214.257092 
L 176.3267 211.916499 
L 176.340357 211.916499 
L 176.422087 210.427031 
L 176.462819 210.427031 
L 176.530511 209.363125 
L 176.58449 209.363125 
L 176.691985 207.448094 
L 176.698683 207.448094 
L 176.805529 204.256376 
L 176.812187 204.256376 
L 176.918392 200.851878 
L 176.92501 200.851878 
L 177.024001 199.362409 
L 177.03716 199.362409 
L 177.135565 196.170692 
L 177.148646 196.170692 
L 177.259475 192.340631 
L 177.298436 192.340631 
L 177.408389 189.574475 
L 177.434167 189.574475 
L 177.517703 188.085007 
L 177.575318 188.085007 
L 177.683669 185.531633 
L 177.772433 185.531633 
L 177.772433 185.318852 
L 177.948714 185.318852 
L 178.042475 184.680508 
L 178.129566 184.680508 
L 178.234779 183.19104 
L 178.271774 183.19104 
L 178.333269 181.914353 
L 178.498311 181.914353 
L 178.522639 181.063228 
L 178.67398 181.063228 
L 178.67398 180.850447 
L 179.032306 180.850447 
L 179.132603 180.212104 
L 179.173747 180.212104 
L 179.24407 178.935416 
L 179.465043 178.935416 
L 179.574564 178.509854 
L 179.609017 178.509854 
L 179.672018 177.871511 
L 179.734809 177.871511 
L 179.820097 177.020386 
L 179.865426 177.020386 
L 179.961389 176.382042 
L 179.98952 176.382042 
L 180.090447 175.95648 
L 180.190835 175.95648 
L 180.246375 174.679793 
L 180.345937 174.679793 
L 180.41202 172.977544 
L 180.477871 172.977544 
L 180.565316 171.913638 
L 180.614326 171.913638 
L 180.711964 171.062513 
L 180.738996 171.062513 
L 180.814479 170.424169 
L 180.953865 170.424169 
L 180.953865 170.211388 
L 181.086922 170.211388 
L 181.176866 169.785826 
L 181.208509 169.785826 
L 181.240098 169.360264 
L 181.728198 169.360264 
L 181.728198 169.147482 
L 181.860998 169.147482 
L 181.860998 168.934701 
L 182.358249 168.934701 
L 182.358249 168.72192 
L 182.530946 168.72192 
L 182.555488 168.296358 
L 182.804006 168.296358 
L 182.876479 167.445233 
L 183.001441 167.445233 
L 183.001441 167.232452 
L 183.310263 167.232452 
L 183.310263 167.019671 
L 183.618732 167.019671 
L 183.618732 166.806889 
L 183.835357 166.806889 
L 183.835357 166.594108 
L 184.166946 166.594108 
L 184.270221 166.168546 
L 184.426297 166.168546 
L 184.492792 165.742984 
L 184.800034 165.742984 
L 184.843519 165.317421 
L 185.102338 165.317421 
L 185.102338 165.10464 
L 185.230425 165.10464 
L 185.230425 164.891859 
L 185.709351 164.891859 
L 185.709351 164.679078 
L 186.148041 164.679078 
L 186.148041 164.466296 
L 186.945445 164.466296 
L 186.945445 164.253515 
L 187.238357 164.253515 
L 187.238357 164.040734 
L 187.892281 164.040734 
L 187.892281 163.827953 
L 188.079718 163.827953 
L 188.079718 163.615172 
L 188.196379 163.615172 
L 188.221802 163.189609 
L 188.488484 163.189609 
L 188.488484 162.976828 
L 188.631078 162.976828 
L 188.631078 162.551266 
L 188.747909 162.551266 
L 188.818364 161.912922 
L 188.888557 161.912922 
L 188.888557 161.700141 
L 189.045539 161.700141 
L 189.045539 161.48736 
L 189.914493 161.48736 
L 189.914493 161.274579 
L 190.148548 161.274579 
L 190.148548 161.061798 
L 192.041879 161.061798 
L 192.041879 160.849016 
L 192.242255 160.849016 
L 192.242255 160.636235 
L 192.547526 160.636235 
L 192.547526 160.423454 
L 192.73976 160.423454 
L 192.73976 160.210673 
L 193.157561 160.210673 
L 193.157561 159.997892 
L 194.900172 159.997892 
L 194.971294 157.87008 
L 195.014344 157.87008 
L 195.115251 156.806174 
L 195.175536 156.806174 
L 195.263108 154.040019 
L 195.290546 154.040019 
L 195.382546 152.124988 
L 195.474099 152.124988 
L 195.55538 149.146052 
L 195.597115 149.146052 
L 195.704708 147.443802 
L 195.733945 147.443802 
L 195.84318 144.677647 
L 195.85044 144.677647 
L 195.939749 143.188179 
L 195.975835 143.188179 
L 196.021445 142.337054 
L 196.098012 142.337054 
L 196.131412 141.911492 
L 196.209908 141.911492 
L 196.306978 141.060367 
L 196.408249 141.060367 
L 196.515985 139.358118 
L 196.602196 139.358118 
L 196.620785 138.294212 
L 196.757311 138.294212 
L 196.865364 136.591962 
L 196.888274 136.591962 
L 196.940862 135.528056 
L 197.070558 135.528056 
L 197.149755 134.464151 
L 197.188102 134.464151 
L 197.293716 133.187464 
L 197.313872 133.187464 
L 197.313872 132.974682 
L 197.48988 132.974682 
L 197.48988 132.761901 
L 197.653268 132.761901 
L 197.716913 132.336339 
L 197.828322 132.336339 
L 197.887036 131.910776 
L 197.982329 131.910776 
L 197.982329 131.697995 
L 198.154361 131.697995 
L 198.154361 131.485214 
L 198.377791 131.485214 
L 198.451682 130.846871 
L 198.537872 130.846871 
L 198.55674 130.421308 
L 198.789961 130.421308 
L 198.827175 129.995746 
L 198.979396 129.995746 
L 198.987589 129.570184 
L 199.116163 129.570184 
L 199.146647 129.144621 
L 199.484733 129.144621 
L 199.550434 128.719059 
L 199.661406 128.719059 
L 199.661406 128.506278 
L 200.073746 128.506278 
L 200.073746 128.293496 
L 200.227751 128.293496 
L 200.227751 128.080715 
L 200.384308 128.080715 
L 200.384308 127.867934 
L 200.541458 127.867934 
L 200.62236 127.442372 
L 200.706654 127.442372 
L 200.706654 127.229591 
L 200.916675 127.229591 
L 200.916675 127.016809 
L 201.792377 127.016809 
L 201.882136 126.165685 
L 204.620731 126.165685 
L 204.620731 125.952904 
L 204.740266 125.952904 
L 204.838051 125.31456 
L 204.859046 125.31456 
L 204.94876 124.676216 
L 204.994946 124.676216 
L 205.039533 124.037873 
L 205.152018 124.037873 
L 205.152018 123.825092 
L 205.296079 123.825092 
L 205.393938 123.399529 
L 205.447762 123.399529 
L 205.553506 122.548405 
L 205.580931 122.548405 
L 205.580931 122.335624 
L 205.766085 122.335624 
L 205.821704 121.910061 
L 205.879999 121.910061 
L 205.960745 121.271718 
L 205.997461 121.271718 
L 206.010154 120.846155 
L 206.122605 120.846155 
L 206.195339 120.420593 
L 206.263621 120.420593 
L 206.355202 119.569468 
L 206.45598 119.569468 
L 206.558959 118.718344 
L 206.574015 118.718344 
L 206.654567 118.08 
L 206.96533 118.08 
L 207.076227 117.654438 
L 207.203682 117.654438 
L 207.230127 117.228875 
L 207.39195 117.228875 
L 207.405046 116.803313 
L 207.560186 116.803313 
L 207.560186 116.590532 
L 208.248536 116.590532 
L 208.2623 116.164969 
L 210.310469 116.164969 
L 210.310469 115.952188 
L 211.278965 115.952188 
L 211.278965 115.739407 
L 211.515072 115.739407 
L 211.515072 115.526626 
L 211.728497 115.526626 
L 211.728497 115.313845 
L 212.074826 115.313845 
L 212.074826 115.101064 
L 213.016023 115.101064 
L 213.118719 113.824376 
L 213.127412 113.824376 
L 213.219895 112.334908 
L 213.244864 112.334908 
L 213.353002 108.717628 
L 213.356818 108.717628 
L 213.458623 103.61088 
L 213.474748 103.61088 
L 213.578747 99.568038 
L 213.620186 99.568038 
L 213.727129 98.078569 
L 213.748632 98.078569 
L 213.848344 96.163539 
L 213.881773 96.163539 
L 213.988166 94.035727 
L 213.996467 94.035727 
L 214.101298 93.397384 
L 214.214665 93.397384 
L 214.281087 92.546259 
L 214.365369 92.546259 
L 214.441171 91.907915 
L 214.533704 91.907915 
L 214.533704 91.695134 
L 214.668541 91.695134 
L 214.765277 90.631228 
L 214.880004 90.631228 
L 214.880004 90.418447 
L 215.426285 90.418447 
L 215.522612 89.992885 
L 217.328372 89.992885 
L 217.328372 89.780104 
L 217.509793 89.780104 
L 217.599852 88.928979 
L 217.649277 88.928979 
L 217.716741 87.865073 
L 217.777932 87.865073 
L 217.82313 87.013948 
L 217.97749 87.013948 
L 218.015511 86.588386 
L 218.150568 86.588386 
L 218.203731 85.950042 
L 218.325 85.950042 
L 218.370366 85.52448 
L 218.85803 85.52448 
L 218.939747 84.673355 
L 220.746147 84.673355 
L 220.746147 84.460574 
L 220.981702 84.460574 
L 220.981702 84.247793 
L 221.49497 84.247793 
L 221.49497 84.035012 
L 221.613441 84.035012 
L 221.613441 83.822231 
L 221.734838 83.822231 
L 221.734838 83.609449 
L 222.016894 83.609449 
L 222.016894 83.396668 
L 223.095544 83.396668 
L 223.199857 78.077139 
L 223.208336 78.077139 
L 223.318209 69.353111 
L 223.333371 69.353111 
L 223.438053 66.586955 
L 223.45033 66.586955 
L 223.555474 63.395238 
L 223.592053 63.395238 
L 223.631324 62.331332 
L 223.70852 62.331332 
L 223.791428 61.905769 
L 223.822629 61.905769 
L 223.931701 61.054645 
L 224.115684 61.054645 
L 224.115684 60.841864 
L 224.334114 60.841864 
L 224.338372 60.416301 
L 225.105318 60.416301 
L 225.105318 60.20352 
L 225.757528 60.20352 
L 225.831897 59.565176 
L 225.869217 59.565176 
L 225.925547 58.501271 
L 226.069279 58.501271 
L 226.162723 57.862927 
L 226.400762 57.862927 
L 226.400762 57.650146 
L 226.643832 57.650146 
L 226.643832 57.437365 
L 226.782199 57.437365 
L 226.782199 57.224584 
L 228.133945 57.224584 
L 228.242362 56.58624 
L 228.320037 56.58624 
L 228.393961 56.160678 
L 230.971088 56.160678 
L 231.016665 55.309553 
L 231.109344 55.309553 
L 231.210435 54.883991 
L 231.287462 54.883991 
L 231.357946 54.458428 
L 231.811197 54.458428 
L 231.921046 51.479492 
L 231.963316 51.479492 
L 232.074047 49.777242 
L 232.100483 49.777242 
L 232.17957 49.35168 
L 232.320049 49.35168 
L 232.428013 48.500555 
L 232.443584 48.500555 
L 232.470542 48.074993 
L 232.584516 48.074993 
L 232.640731 47.649431 
L 232.893668 47.649431 
L 232.990673 47.011087 
L 233.138916 47.011087 
L 233.138916 46.798306 
L 233.464076 46.798306 
L 233.565035 45.308838 
L 233.599544 45.308838 
L 233.660917 44.457713 
L 233.717243 44.457713 
L 233.823929 43.181026 
L 233.84224 43.181026 
L 233.950136 42.329901 
L 233.995415 42.329901 
L 234.030734 41.691558 
L 234.153355 41.691558 
L 234.153355 41.478776 
L 234.357839 41.478776 
L 234.408069 41.053214 
L 234.544355 41.053214 
L 234.623068 40.627652 
L 235.132673 40.627652 
L 235.156642 40.202089 
L 235.404123 40.202089 
L 235.428339 39.563746 
L 235.522542 39.563746 
L 235.522542 39.350965 
L 235.780065 39.350965 
L 235.780065 39.138184 
L 236.570501 39.138184 
L 236.570501 38.925402 
L 237.011886 38.925402 
L 237.05362 38.49984 
L 237.128993 38.49984 
L 237.158897 38.074278 
L 237.749543 38.074278 
L 237.749543 37.861496 
L 238.158792 37.861496 
L 238.158792 37.648715 
L 238.470914 37.648715 
L 238.476687 37.223153 
L 238.947595 37.223153 
L 238.964232 36.584809 
L 239.630442 36.584809 
L 239.630442 36.372028 
L 240.089334 36.372028 
L 240.089334 36.159247 
L 240.230243 36.159247 
L 240.230243 35.946466 
L 240.439874 35.946466 
L 240.530999 35.308122 
L 240.569436 35.308122 
L 240.594569 34.669779 
L 240.689859 34.669779 
L 240.739548 34.031435 
L 241.558186 34.031435 
L 241.628575 33.180311 
L 241.680507 33.180311 
L 241.709483 32.754748 
L 241.795305 32.754748 
L 241.857267 31.903624 
L 242.168793 31.903624 
L 242.168793 31.690842 
L 244.444329 31.690842 
L 244.538938 30.626936 
L 244.620767 30.626936 
L 244.620767 30.414155 
L 244.83033 30.414155 
L 244.83033 30.201374 
L 245.124858 30.201374 
L 245.124858 29.988593 
L 245.41606 29.988593 
L 245.41606 29.775812 
L 245.550082 29.775812 
L 245.608579 29.350249 
L 246.167921 29.350249 
L 246.167921 29.137468 
L 246.287434 29.137468 
L 246.287434 28.924687 
L 247.511319 28.924687 
L 247.55567 28.499125 
L 249.462034 28.499125 
L 249.462034 28.286344 
L 250.05418 28.286344 
L 250.05418 28.073562 
L 251.929283 28.073562 
L 251.929283 27.860781 
L 252.625069 27.860781 
L 252.625069 27.648 
L 360.8064 27.648 
L 360.8064 27.648 
" style="fill: none; stroke: #ff00ff; stroke-width: 1.5; stroke-linecap: square"/>
   </g>
   <g id="line2d_41">
    <defs>
     <path id="mcb7d1eb720" d="M -0 8.485281 
L 5.091169 0 
L 0 -8.485281 
L -5.091169 -0 
z
" style="stroke: #ff00ff; stroke-width: 1.5; stroke-linejoin: miter"/>
    </defs>
    <g>
     <use xlink:href="#mcb7d1eb720" x="128.956723" y="251.91936" style="fill-opacity: 0; stroke: #ff00ff; stroke-width: 1.5; stroke-linejoin: miter"/>
     <use xlink:href="#mcb7d1eb720" x="194.943385" y="159.359548" style="fill-opacity: 0; stroke: #ff00ff; stroke-width: 1.5; stroke-linejoin: miter"/>
     <use xlink:href="#mcb7d1eb720" x="233.525239" y="46.159962" style="fill-opacity: 0; stroke: #ff00ff; stroke-width: 1.5; stroke-linejoin: miter"/>
     <use xlink:href="#mcb7d1eb720" x="252.625069" y="27.648" style="fill-opacity: 0; stroke: #ff00ff; stroke-width: 1.5; stroke-linejoin: miter"/>
     <use xlink:href="#mcb7d1eb720" x="252.625069" y="27.648" style="fill-opacity: 0; stroke: #ff00ff; stroke-width: 1.5; stroke-linejoin: miter"/>
     <use xlink:href="#mcb7d1eb720" x="360.8064" y="27.648" style="fill-opacity: 0; stroke: #ff00ff; stroke-width: 1.5; stroke-linejoin: miter"/>
    </g>
   </g>
   <g id="line2d_42">
    <path style="fill: none; stroke: #ff00ff; stroke-width: 1.5; stroke-linecap: square"/>
    <g/>
   </g>
   <g id="line2d_43">
    <path d="M 103.380045 270.856885 
" clip-path="url(#p738ef79519)" style="fill: none; stroke: #ff00ff; stroke-width: 1.5; stroke-linecap: square"/>
    <defs>
     <path id="me333455d84" d="M -12 12 
L 12 -12 
M -12 -12 
L 12 12 
" style="stroke: #ff00ff"/>
    </defs>
    <g clip-path="url(#p738ef79519)">
     <use xlink:href="#me333455d84" x="103.380045" y="270.856885" style="fill: #ff00ff; stroke: #ff00ff"/>
    </g>
   </g>
   <g id="line2d_44">
    <path d="M 360.8064 27.648 
L 380.514816 293.51808 
" style="fill: none; stroke: #ff00ff; stroke-width: 1.5; stroke-linecap: square"/>
    <g>
     <use xlink:href="#mcb7d1eb720" x="360.8064" y="27.648" style="fill-opacity: 0; stroke: #ff00ff; stroke-width: 1.5; stroke-linejoin: miter"/>
     <use xlink:href="#mcb7d1eb720" x="380.514816" y="293.51808" style="fill-opacity: 0; stroke: #ff00ff; stroke-width: 1.5; stroke-linejoin: miter"/>
    </g>
   </g>
   <g id="line2d_45">
    <path d="M 360.8064 27.648 
L 380.514816 163.296 
" style="fill: none; stroke: #000080; stroke-width: 1.5; stroke-linecap: square"/>
    <g>
     <use xlink:href="#mbdd29a9e5f" x="360.8064" y="27.648" style="fill-opacity: 0; stroke: #000080; stroke-width: 1.5"/>
     <use xlink:href="#mbdd29a9e5f" x="380.514816" y="163.296" style="fill-opacity: 0; stroke: #000080; stroke-width: 1.5"/>
    </g>
   </g>
   <g id="line2d_46">
    <path d="M 360.8064 298.944 
L 360.8064 27.648 
" style="fill: none; stroke: #000000; stroke-width: 1.5; stroke-linecap: square"/>
   </g>
   <g id="patch_3">
    <path d="M 57.6 298.944 
L 360.8064 298.944 
" style="fill: none; stroke: #000000; stroke-width: 0.8; stroke-linejoin: miter; stroke-linecap: square"/>
   </g>
   <g id="patch_4">
    <path d="M 57.6 27.648 
L 360.8064 27.648 
" style="fill: none; stroke: #000000; stroke-width: 0.8; stroke-linejoin: miter; stroke-linecap: square"/>
   </g>
   <g id="text_13">
    <!-- ex -->
    <g transform="translate(386.578944 297.381205)scale(0.14 -0.14)">
     <defs>
      <path id="DejaVuSans-78" d="M 3513 3500 
L 2247 1797 
L 3578 0 
L 2900 0 
L 1881 1375 
L 863 0 
L 184 0 
L 1544 1831 
L 300 3500 
L 978 3500 
L 1906 2253 
L 2834 3500 
L 3513 3500 
z
" transform="scale(0.015625)"/>
     </defs>
     <use xlink:href="#DejaVuSans-65"/>
     <use xlink:href="#DejaVuSans-78" x="59.773438"/>
    </g>
   </g>
   <g id="text_14">
    <!-- ex -->
    <g transform="translate(386.578944 167.159125)scale(0.14 -0.14)">
     <use xlink:href="#DejaVuSans-65"/>
     <use xlink:href="#DejaVuSans-78" x="59.773438"/>
    </g>
   </g>
   <g id="text_15">
    <!-- best 2009 -->
    <g transform="translate(386.578944 36.937045)scale(0.14 -0.14)">
     <defs>
      <path id="DejaVuSans-62" d="M 3116 1747 
Q 3116 2381 2855 2742 
Q 2594 3103 2138 3103 
Q 1681 3103 1420 2742 
Q 1159 2381 1159 1747 
Q 1159 1113 1420 752 
Q 1681 391 2138 391 
Q 2594 391 2855 752 
Q 3116 1113 3116 1747 
z
M 1159 2969 
Q 1341 3281 1617 3432 
Q 1894 3584 2278 3584 
Q 2916 3584 3314 3078 
Q 3713 2572 3713 1747 
Q 3713 922 3314 415 
Q 2916 -91 2278 -91 
Q 1894 -91 1617 61 
Q 1341 213 1159 525 
L 1159 0 
L 581 0 
L 581 4863 
L 1159 4863 
L 1159 2969 
z
" transform="scale(0.015625)"/>
      <path id="DejaVuSans-39" d="M 703 97 
L 703 672 
Q 941 559 1184 500 
Q 1428 441 1663 441 
Q 2288 441 2617 861 
Q 2947 1281 2994 2138 
Q 2813 1869 2534 1725 
Q 2256 1581 1919 1581 
Q 1219 1581 811 2004 
Q 403 2428 403 3163 
Q 403 3881 828 4315 
Q 1253 4750 1959 4750 
Q 2769 4750 3195 4129 
Q 3622 3509 3622 2328 
Q 3622 1225 3098 567 
Q 2575 -91 1691 -91 
Q 1453 -91 1209 -44 
Q 966 3 703 97 
z
M 1959 2075 
Q 2384 2075 2632 2365 
Q 2881 2656 2881 3163 
Q 2881 3666 2632 3958 
Q 2384 4250 1959 4250 
Q 1534 4250 1286 3958 
Q 1038 3666 1038 3163 
Q 1038 2656 1286 2365 
Q 1534 2075 1959 2075 
z
" transform="scale(0.015625)"/>
     </defs>
     <use xlink:href="#DejaVuSans-62"/>
     <use xlink:href="#DejaVuSans-65" x="63.476562"/>
     <use xlink:href="#DejaVuSans-73" x="125"/>
     <use xlink:href="#DejaVuSans-74" x="177.099609"/>
     <use xlink:href="#DejaVuSans-20" x="216.308594"/>
     <use xlink:href="#DejaVuSans-32" x="248.095703"/>
     <use xlink:href="#DejaVuSans-30" x="311.71875"/>
     <use xlink:href="#DejaVuSans-30" x="375.341797"/>
     <use xlink:href="#DejaVuSans-39" x="438.964844"/>
    </g>
   </g>
   <g id="text_16">
    <!-- bbob f21, 5-D -->
    <g transform="translate(60.632064 38.111366)scale(0.102 -0.102)">
     <defs>
      <path id="DejaVuSans-35" d="M 691 4666 
L 3169 4666 
L 3169 4134 
L 1269 4134 
L 1269 2991 
Q 1406 3038 1543 3061 
Q 1681 3084 1819 3084 
Q 2600 3084 3056 2656 
Q 3513 2228 3513 1497 
Q 3513 744 3044 326 
Q 2575 -91 1722 -91 
Q 1428 -91 1123 -41 
Q 819 9 494 109 
L 494 744 
Q 775 591 1075 516 
Q 1375 441 1709 441 
Q 2250 441 2565 725 
Q 2881 1009 2881 1497 
Q 2881 1984 2565 2268 
Q 2250 2553 1709 2553 
Q 1456 2553 1204 2497 
Q 953 2441 691 2322 
L 691 4666 
z
" transform="scale(0.015625)"/>
      <path id="DejaVuSans-44" d="M 1259 4147 
L 1259 519 
L 2022 519 
Q 2988 519 3436 956 
Q 3884 1394 3884 2338 
Q 3884 3275 3436 3711 
Q 2988 4147 2022 4147 
L 1259 4147 
z
M 628 4666 
L 1925 4666 
Q 3281 4666 3915 4102 
Q 4550 3538 4550 2338 
Q 4550 1131 3912 565 
Q 3275 0 1925 0 
L 628 0 
L 628 4666 
z
" transform="scale(0.015625)"/>
     </defs>
     <use xlink:href="#DejaVuSans-62"/>
     <use xlink:href="#DejaVuSans-62" x="63.476562"/>
     <use xlink:href="#DejaVuSans-6f" x="126.953125"/>
     <use xlink:href="#DejaVuSans-62" x="188.134766"/>
     <use xlink:href="#DejaVuSans-20" x="251.611328"/>
     <use xlink:href="#DejaVuSans-66" x="283.398438"/>
     <use xlink:href="#DejaVuSans-32" x="318.603516"/>
     <use xlink:href="#DejaVuSans-31" x="382.226562"/>
     <use xlink:href="#DejaVuSans-2c" x="445.849609"/>
     <use xlink:href="#DejaVuSans-20" x="477.636719"/>
     <use xlink:href="#DejaVuSans-35" x="509.423828"/>
     <use xlink:href="#DejaVuSans-2d" x="573.046875"/>
     <use xlink:href="#DejaVuSans-44" x="609.130859"/>
    </g>
    <!-- 51 targets: 100..1e-08 -->
    <g transform="translate(60.632064 49.533135)scale(0.102 -0.102)">
     <defs>
      <path id="DejaVuSans-3a" d="M 750 794 
L 1409 794 
L 1409 0 
L 750 0 
L 750 794 
z
M 750 3309 
L 1409 3309 
L 1409 2516 
L 750 2516 
L 750 3309 
z
" transform="scale(0.015625)"/>
     </defs>
     <use xlink:href="#DejaVuSans-35"/>
     <use xlink:href="#DejaVuSans-31" x="63.623047"/>
     <use xlink:href="#DejaVuSans-20" x="127.246094"/>
     <use xlink:href="#DejaVuSans-74" x="159.033203"/>
     <use xlink:href="#DejaVuSans-61" x="198.242188"/>
     <use xlink:href="#DejaVuSans-72" x="259.521484"/>
     <use xlink:href="#DejaVuSans-67" x="298.884766"/>
     <use xlink:href="#DejaVuSans-65" x="362.361328"/>
     <use xlink:href="#DejaVuSans-74" x="423.884766"/>
     <use xlink:href="#DejaVuSans-73" x="463.09375"/>
     <use xlink:href="#DejaVuSans-3a" x="515.193359"/>
     <use xlink:href="#DejaVuSans-20" x="548.884766"/>
     <use xlink:href="#DejaVuSans-31" x="580.671875"/>
     <use xlink:href="#DejaVuSans-30" x="644.294922"/>
     <use xlink:href="#DejaVuSans-30" x="707.917969"/>
     <use xlink:href="#DejaVuSans-2e" x="771.541016"/>
     <use xlink:href="#DejaVuSans-2e" x="803.328125"/>
     <use xlink:href="#DejaVuSans-31" x="835.115234"/>
     <use xlink:href="#DejaVuSans-65" x="898.738281"/>
     <use xlink:href="#DejaVuSans-2d" x="960.261719"/>
     <use xlink:href="#DejaVuSans-30" x="996.345703"/>
     <use xlink:href="#DejaVuSans-38" x="1059.96875"/>
    </g>
    <!-- 25 instances -->
    <g transform="translate(60.632064 60.954904)scale(0.102 -0.102)">
     <use xlink:href="#DejaVuSans-32"/>
     <use xlink:href="#DejaVuSans-35" x="63.623047"/>
     <use xlink:href="#DejaVuSans-20" x="127.246094"/>
     <use xlink:href="#DejaVuSans-69" x="159.033203"/>
     <use xlink:href="#DejaVuSans-6e" x="186.816406"/>
     <use xlink:href="#DejaVuSans-73" x="250.195312"/>
     <use xlink:href="#DejaVuSans-74" x="302.294922"/>
     <use xlink:href="#DejaVuSans-61" x="341.503906"/>
     <use xlink:href="#DejaVuSans-6e" x="402.783203"/>
     <use xlink:href="#DejaVuSans-63" x="466.162109"/>
     <use xlink:href="#DejaVuSans-65" x="521.142578"/>
     <use xlink:href="#DejaVuSans-73" x="582.666016"/>
    </g>
   </g>
   <g id="text_17">
    <!-- v2.6 -->
    <g style="fill: #808080" transform="translate(198.292262 294.151352)scale(0.1 -0.1)">
     <use xlink:href="#DejaVuSans-76"/>
     <use xlink:href="#DejaVuSans-32" x="59.179688"/>
     <use xlink:href="#DejaVuSans-2e" x="122.802734"/>
     <use xlink:href="#DejaVuSans-36" x="154.589844"/>
    </g>
   </g>
   <g id="text_18">
    <!-- 21 Gallagher 101 peaks -->
    <g transform="translate(89.7157 21.648)scale(0.2 -0.2)">
     <defs>
      <path id="DejaVuSans-47" d="M 3809 666 
L 3809 1919 
L 2778 1919 
L 2778 2438 
L 4434 2438 
L 4434 434 
Q 4069 175 3628 42 
Q 3188 -91 2688 -91 
Q 1594 -91 976 548 
Q 359 1188 359 2328 
Q 359 3472 976 4111 
Q 1594 4750 2688 4750 
Q 3144 4750 3555 4637 
Q 3966 4525 4313 4306 
L 4313 3634 
Q 3963 3931 3569 4081 
Q 3175 4231 2741 4231 
Q 1884 4231 1454 3753 
Q 1025 3275 1025 2328 
Q 1025 1384 1454 906 
Q 1884 428 2741 428 
Q 3075 428 3337 486 
Q 3600 544 3809 666 
z
" transform="scale(0.015625)"/>
      <path id="DejaVuSans-68" d="M 3513 2113 
L 3513 0 
L 2938 0 
L 2938 2094 
Q 2938 2591 2744 2837 
Q 2550 3084 2163 3084 
Q 1697 3084 1428 2787 
Q 1159 2491 1159 1978 
L 1159 0 
L 581 0 
L 581 4863 
L 1159 4863 
L 1159 2956 
Q 1366 3272 1645 3428 
Q 1925 3584 2291 3584 
Q 2894 3584 3203 3211 
Q 3513 2838 3513 2113 
z
" transform="scale(0.015625)"/>
      <path id="DejaVuSans-6b" d="M 581 4863 
L 1159 4863 
L 1159 1991 
L 2875 3500 
L 3609 3500 
L 1753 1863 
L 3688 0 
L 2938 0 
L 1159 1709 
L 1159 0 
L 581 0 
L 581 4863 
z
" transform="scale(0.015625)"/>
     </defs>
     <use xlink:href="#DejaVuSans-32"/>
     <use xlink:href="#DejaVuSans-31" x="63.623047"/>
     <use xlink:href="#DejaVuSans-20" x="127.246094"/>
     <use xlink:href="#DejaVuSans-47" x="159.033203"/>
     <use xlink:href="#DejaVuSans-61" x="236.523438"/>
     <use xlink:href="#DejaVuSans-6c" x="297.802734"/>
     <use xlink:href="#DejaVuSans-6c" x="325.585938"/>
     <use xlink:href="#DejaVuSans-61" x="353.369141"/>
     <use xlink:href="#DejaVuSans-67" x="414.648438"/>
     <use xlink:href="#DejaVuSans-68" x="478.125"/>
     <use xlink:href="#DejaVuSans-65" x="541.503906"/>
     <use xlink:href="#DejaVuSans-72" x="603.027344"/>
     <use xlink:href="#DejaVuSans-20" x="644.140625"/>
     <use xlink:href="#DejaVuSans-31" x="675.927734"/>
     <use xlink:href="#DejaVuSans-30" x="739.550781"/>
     <use xlink:href="#DejaVuSans-31" x="803.173828"/>
     <use xlink:href="#DejaVuSans-20" x="866.796875"/>
     <use xlink:href="#DejaVuSans-70" x="898.583984"/>
     <use xlink:href="#DejaVuSans-65" x="962.060547"/>
     <use xlink:href="#DejaVuSans-61" x="1023.583984"/>
     <use xlink:href="#DejaVuSans-6b" x="1084.863281"/>
     <use xlink:href="#DejaVuSans-73" x="1142.773438"/>
    </g>
   </g>
  </g>
 </g>
 <defs>
  <clipPath id="p738ef79519">
   <rect x="57.6" y="27.648" width="303.2064" height="271.296"/>
  </clipPath>
 </defs>
</svg>
