<?xml version="1.0" encoding="utf-8" standalone="no"?>
<!DOCTYPE svg PUBLIC "-//W3C//DTD SVG 1.1//EN"
  "http://www.w3.org/Graphics/SVG/1.1/DTD/svg11.dtd">
<svg xmlns:xlink="http://www.w3.org/1999/xlink" width="460.8pt" height="345.6pt" viewBox="0 0 460.8 345.6" xmlns="http://www.w3.org/2000/svg" version="1.1">
 <metadata>
  <rdf:RDF xmlns:dc="http://purl.org/dc/elements/1.1/" xmlns:cc="http://creativecommons.org/ns#" xmlns:rdf="http://www.w3.org/1999/02/22-rdf-syntax-ns#">
   <cc:Work>
    <dc:type rdf:resource="http://purl.org/dc/dcmitype/StillImage"/>
    <dc:date>2022-03-16T23:41:08.973596</dc:date>
    <dc:format>image/svg+xml</dc:format>
    <dc:creator>
     <cc:Agent>
      <dc:title>Matplotlib v3.5.1, https://matplotlib.org/</dc:title>
     </cc:Agent>
    </dc:creator>
   </cc:Work>
  </rdf:RDF>
 </metadata>
 <defs>
  <style type="text/css">*{stroke-linejoin: round; stroke-linecap: butt}</style>
 </defs>
 <g id="figure_1">
  <g id="patch_1">
   <path d="M 0 345.6 
L 460.8 345.6 
L 460.8 0 
L 0 0 
z
" style="fill: #ffffff"/>
  </g>
  <g id="axes_1">
   <g id="patch_2">
    <path d="M 57.6 298.944 
L 360.8064 298.944 
L 360.8064 27.648 
L 57.6 27.648 
z
" style="fill: #ffffff"/>
   </g>
   <g id="line2d_1">
    <path d="M 1.245626 298.944 
L 1.245626 282.985412 
L 37.851216 282.985412 
L 37.851216 277.665882 
L 46.353758 277.665882 
L 46.353758 272.346353 
L 79.184421 272.346353 
L 79.184421 267.026824 
L 108.85357 267.026824 
L 108.85357 261.707294 
L 116.907859 261.707294 
L 116.907859 256.387765 
L 121.892744 256.387765 
L 121.892744 251.068235 
L 127.88896 251.068235 
L 127.88896 245.748706 
L 131.747272 245.748706 
L 131.747272 240.429176 
L 136.399653 240.429176 
L 136.399653 235.109647 
L 148.984124 235.109647 
L 148.984124 229.790118 
L 151.26544 229.790118 
L 151.26544 224.470588 
L 155.85377 224.470588 
L 155.85377 219.151059 
L 157.293074 219.151059 
L 157.293074 213.831529 
L 165.91013 213.831529 
L 165.91013 208.512 
L 166.661411 208.512 
L 166.661411 203.192471 
L 168.819278 203.192471 
L 168.819278 197.872941 
L 173.402394 197.872941 
L 173.402394 192.553412 
L 178.311769 192.553412 
L 178.311769 187.233882 
L 185.075543 187.233882 
L 185.075543 181.914353 
L 189.458713 181.914353 
L 189.458713 176.594824 
L 191.983279 176.594824 
L 191.983279 171.275294 
L 193.210531 171.275294 
L 193.210531 165.955765 
L 195.592823 165.955765 
L 195.592823 160.636235 
L 196.49437 160.636235 
L 196.49437 155.316706 
L 196.996718 155.316706 
L 196.996718 149.997176 
L 199.50367 149.997176 
L 199.50367 144.677647 
L 202.322045 144.677647 
L 202.322045 139.358118 
L 202.643036 139.358118 
L 202.643036 134.038588 
L 203.416475 134.038588 
L 203.416475 128.719059 
L 205.447399 128.719059 
L 205.447399 123.399529 
L 206.370076 123.399529 
L 206.370076 118.08 
L 206.786593 118.08 
L 206.786593 112.760471 
L 207.010837 112.760471 
L 207.010837 107.440941 
L 207.214926 107.440941 
L 207.214926 102.121412 
L 208.15128 102.121412 
L 208.15128 96.801882 
L 209.97033 96.801882 
L 209.97033 91.482353 
L 210.10548 91.482353 
L 210.10548 86.162824 
L 210.796577 86.162824 
L 210.796577 80.843294 
L 211.03554 80.843294 
L 211.03554 75.523765 
L 211.380441 75.523765 
L 211.380441 70.204235 
L 213.289678 70.204235 
L 213.289678 64.884706 
L 213.49583 64.884706 
L 213.49583 59.565176 
L 213.734611 59.565176 
L 213.734611 54.245647 
L 216.318406 54.245647 
L 216.318406 48.926118 
L 216.438852 48.926118 
L 216.438852 43.606588 
L 216.55652 43.606588 
L 216.55652 38.287059 
L 216.679254 38.287059 
L 216.679254 32.967529 
L 216.773368 32.967529 
L 216.773368 27.648 
L 360.8064 27.648 
" style="fill: none; stroke: #f5deb3; stroke-width: 4; stroke-linecap: square"/>
   </g>
   <g id="line2d_2">
    <defs>
     <path id="m27679c7ffa" d="M -0 7.778175 
L 7.778175 0 
L 0 -7.778175 
L -7.778175 -0 
z
" style="stroke: #f5deb3; stroke-width: 1.5; stroke-linejoin: miter"/>
    </defs>
    <g>
     <use xlink:href="#m27679c7ffa" x="116.907859" y="261.707294" style="fill: #f5deb3; stroke: #f5deb3; stroke-width: 1.5; stroke-linejoin: miter"/>
     <use xlink:href="#m27679c7ffa" x="178.311769" y="192.553412" style="fill: #f5deb3; stroke: #f5deb3; stroke-width: 1.5; stroke-linejoin: miter"/>
     <use xlink:href="#m27679c7ffa" x="211.03554" y="75.523765" style="fill: #f5deb3; stroke: #f5deb3; stroke-width: 1.5; stroke-linejoin: miter"/>
     <use xlink:href="#m27679c7ffa" x="216.773368" y="27.648" style="fill: #f5deb3; stroke: #f5deb3; stroke-width: 1.5; stroke-linejoin: miter"/>
     <use xlink:href="#m27679c7ffa" x="216.773368" y="27.648" style="fill: #f5deb3; stroke: #f5deb3; stroke-width: 1.5; stroke-linejoin: miter"/>
     <use xlink:href="#m27679c7ffa" x="360.8064" y="27.648" style="fill: #f5deb3; stroke: #f5deb3; stroke-width: 1.5; stroke-linejoin: miter"/>
    </g>
   </g>
   <g id="line2d_3">
    <path style="fill: none; stroke: #f5deb3; stroke-width: 4; stroke-linecap: square"/>
    <g/>
   </g>
   <g id="line2d_4">
    <path d="M 360.8064 27.648 
L 380.514816 33.07392 
" style="fill: none; stroke: #f5deb3; stroke-width: 4; stroke-linecap: square"/>
    <g>
     <use xlink:href="#m27679c7ffa" x="360.8064" y="27.648" style="fill: #f5deb3; stroke: #f5deb3; stroke-width: 1.5; stroke-linejoin: miter"/>
     <use xlink:href="#m27679c7ffa" x="380.514816" y="33.07392" style="fill: #f5deb3; stroke: #f5deb3; stroke-width: 1.5; stroke-linejoin: miter"/>
    </g>
   </g>
   <g id="matplotlib.axis_1">
    <g id="xtick_1">
     <g id="line2d_5">
      <path d="M 57.6 298.944 
L 57.6 27.648 
" clip-path="url(#p59a810ec15)" style="fill: none; stroke: #b0b0b0; stroke-width: 0.8; stroke-linecap: square"/>
     </g>
     <g id="line2d_6">
      <defs>
       <path id="me528deb717" d="M 0 0 
L 0 3.5 
" style="stroke: #000000; stroke-width: 0.8"/>
      </defs>
      <g>
       <use xlink:href="#me528deb717" x="57.6" y="298.944" style="stroke: #000000; stroke-width: 0.8"/>
      </g>
     </g>
     <g id="text_1">
      <!-- 0 -->
      <g transform="translate(52.191875 318.861344)scale(0.17 -0.17)">
       <defs>
        <path id="DejaVuSans-30" d="M 2034 4250 
Q 1547 4250 1301 3770 
Q 1056 3291 1056 2328 
Q 1056 1369 1301 889 
Q 1547 409 2034 409 
Q 2525 409 2770 889 
Q 3016 1369 3016 2328 
Q 3016 3291 2770 3770 
Q 2525 4250 2034 4250 
z
M 2034 4750 
Q 2819 4750 3233 4129 
Q 3647 3509 3647 2328 
Q 3647 1150 3233 529 
Q 2819 -91 2034 -91 
Q 1250 -91 836 529 
Q 422 1150 422 2328 
Q 422 3509 836 4129 
Q 1250 4750 2034 4750 
z
" transform="scale(0.015625)"/>
       </defs>
       <use xlink:href="#DejaVuSans-30"/>
      </g>
     </g>
    </g>
    <g id="xtick_2">
     <g id="line2d_7">
      <path d="M 144.2304 298.944 
L 144.2304 27.648 
" clip-path="url(#p59a810ec15)" style="fill: none; stroke: #b0b0b0; stroke-width: 0.8; stroke-linecap: square"/>
     </g>
     <g id="line2d_8">
      <g>
       <use xlink:href="#me528deb717" x="144.2304" y="298.944" style="stroke: #000000; stroke-width: 0.8"/>
      </g>
     </g>
     <g id="text_2">
      <!-- 2 -->
      <g transform="translate(138.822275 318.861344)scale(0.17 -0.17)">
       <defs>
        <path id="DejaVuSans-32" d="M 1228 531 
L 3431 531 
L 3431 0 
L 469 0 
L 469 531 
Q 828 903 1448 1529 
Q 2069 2156 2228 2338 
Q 2531 2678 2651 2914 
Q 2772 3150 2772 3378 
Q 2772 3750 2511 3984 
Q 2250 4219 1831 4219 
Q 1534 4219 1204 4116 
Q 875 4013 500 3803 
L 500 4441 
Q 881 4594 1212 4672 
Q 1544 4750 1819 4750 
Q 2544 4750 2975 4387 
Q 3406 4025 3406 3419 
Q 3406 3131 3298 2873 
Q 3191 2616 2906 2266 
Q 2828 2175 2409 1742 
Q 1991 1309 1228 531 
z
" transform="scale(0.015625)"/>
       </defs>
       <use xlink:href="#DejaVuSans-32"/>
      </g>
     </g>
    </g>
    <g id="xtick_3">
     <g id="line2d_9">
      <path d="M 230.8608 298.944 
L 230.8608 27.648 
" clip-path="url(#p59a810ec15)" style="fill: none; stroke: #b0b0b0; stroke-width: 0.8; stroke-linecap: square"/>
     </g>
     <g id="line2d_10">
      <g>
       <use xlink:href="#me528deb717" x="230.8608" y="298.944" style="stroke: #000000; stroke-width: 0.8"/>
      </g>
     </g>
     <g id="text_3">
      <!-- 4 -->
      <g transform="translate(225.452675 318.861344)scale(0.17 -0.17)">
       <defs>
        <path id="DejaVuSans-34" d="M 2419 4116 
L 825 1625 
L 2419 1625 
L 2419 4116 
z
M 2253 4666 
L 3047 4666 
L 3047 1625 
L 3713 1625 
L 3713 1100 
L 3047 1100 
L 3047 0 
L 2419 0 
L 2419 1100 
L 313 1100 
L 313 1709 
L 2253 4666 
z
" transform="scale(0.015625)"/>
       </defs>
       <use xlink:href="#DejaVuSans-34"/>
      </g>
     </g>
    </g>
    <g id="xtick_4">
     <g id="line2d_11">
      <path d="M 317.4912 298.944 
L 317.4912 27.648 
" clip-path="url(#p59a810ec15)" style="fill: none; stroke: #b0b0b0; stroke-width: 0.8; stroke-linecap: square"/>
     </g>
     <g id="line2d_12">
      <g>
       <use xlink:href="#me528deb717" x="317.4912" y="298.944" style="stroke: #000000; stroke-width: 0.8"/>
      </g>
     </g>
     <g id="text_4">
      <!-- 6 -->
      <g transform="translate(312.083075 318.861344)scale(0.17 -0.17)">
       <defs>
        <path id="DejaVuSans-36" d="M 2113 2584 
Q 1688 2584 1439 2293 
Q 1191 2003 1191 1497 
Q 1191 994 1439 701 
Q 1688 409 2113 409 
Q 2538 409 2786 701 
Q 3034 994 3034 1497 
Q 3034 2003 2786 2293 
Q 2538 2584 2113 2584 
z
M 3366 4563 
L 3366 3988 
Q 3128 4100 2886 4159 
Q 2644 4219 2406 4219 
Q 1781 4219 1451 3797 
Q 1122 3375 1075 2522 
Q 1259 2794 1537 2939 
Q 1816 3084 2150 3084 
Q 2853 3084 3261 2657 
Q 3669 2231 3669 1497 
Q 3669 778 3244 343 
Q 2819 -91 2113 -91 
Q 1303 -91 875 529 
Q 447 1150 447 2328 
Q 447 3434 972 4092 
Q 1497 4750 2381 4750 
Q 2619 4750 2861 4703 
Q 3103 4656 3366 4563 
z
" transform="scale(0.015625)"/>
       </defs>
       <use xlink:href="#DejaVuSans-36"/>
      </g>
     </g>
    </g>
    <g id="xtick_5">
     <g id="line2d_13">
      <path d="M 100.9152 298.944 
L 100.9152 27.648 
" clip-path="url(#p59a810ec15)" style="fill: none; stroke: #b0b0b0; stroke-width: 0.8; stroke-linecap: square"/>
     </g>
     <g id="line2d_14">
      <defs>
       <path id="m0893124165" d="M 0 0 
L 0 2 
" style="stroke: #000000; stroke-width: 0.6"/>
      </defs>
      <g>
       <use xlink:href="#m0893124165" x="100.9152" y="298.944" style="stroke: #000000; stroke-width: 0.6"/>
      </g>
     </g>
    </g>
    <g id="xtick_6">
     <g id="line2d_15">
      <path d="M 187.5456 298.944 
L 187.5456 27.648 
" clip-path="url(#p59a810ec15)" style="fill: none; stroke: #b0b0b0; stroke-width: 0.8; stroke-linecap: square"/>
     </g>
     <g id="line2d_16">
      <g>
       <use xlink:href="#m0893124165" x="187.5456" y="298.944" style="stroke: #000000; stroke-width: 0.6"/>
      </g>
     </g>
    </g>
    <g id="xtick_7">
     <g id="line2d_17">
      <path d="M 274.176 298.944 
L 274.176 27.648 
" clip-path="url(#p59a810ec15)" style="fill: none; stroke: #b0b0b0; stroke-width: 0.8; stroke-linecap: square"/>
     </g>
     <g id="line2d_18">
      <g>
       <use xlink:href="#m0893124165" x="274.176" y="298.944" style="stroke: #000000; stroke-width: 0.6"/>
      </g>
     </g>
    </g>
    <g id="xtick_8">
     <g id="line2d_19">
      <path d="M 360.8064 298.944 
L 360.8064 27.648 
" clip-path="url(#p59a810ec15)" style="fill: none; stroke: #b0b0b0; stroke-width: 0.8; stroke-linecap: square"/>
     </g>
     <g id="line2d_20">
      <g>
       <use xlink:href="#m0893124165" x="360.8064" y="298.944" style="stroke: #000000; stroke-width: 0.6"/>
      </g>
     </g>
    </g>
    <g id="text_5">
     <!-- log10(# f-evals / dimension) -->
     <g transform="translate(88.823278 339.314156)scale(0.17 -0.17)">
      <defs>
       <path id="DejaVuSans-6c" d="M 603 4863 
L 1178 4863 
L 1178 0 
L 603 0 
L 603 4863 
z
" transform="scale(0.015625)"/>
       <path id="DejaVuSans-6f" d="M 1959 3097 
Q 1497 3097 1228 2736 
Q 959 2375 959 1747 
Q 959 1119 1226 758 
Q 1494 397 1959 397 
Q 2419 397 2687 759 
Q 2956 1122 2956 1747 
Q 2956 2369 2687 2733 
Q 2419 3097 1959 3097 
z
M 1959 3584 
Q 2709 3584 3137 3096 
Q 3566 2609 3566 1747 
Q 3566 888 3137 398 
Q 2709 -91 1959 -91 
Q 1206 -91 779 398 
Q 353 888 353 1747 
Q 353 2609 779 3096 
Q 1206 3584 1959 3584 
z
" transform="scale(0.015625)"/>
       <path id="DejaVuSans-67" d="M 2906 1791 
Q 2906 2416 2648 2759 
Q 2391 3103 1925 3103 
Q 1463 3103 1205 2759 
Q 947 2416 947 1791 
Q 947 1169 1205 825 
Q 1463 481 1925 481 
Q 2391 481 2648 825 
Q 2906 1169 2906 1791 
z
M 3481 434 
Q 3481 -459 3084 -895 
Q 2688 -1331 1869 -1331 
Q 1566 -1331 1297 -1286 
Q 1028 -1241 775 -1147 
L 775 -588 
Q 1028 -725 1275 -790 
Q 1522 -856 1778 -856 
Q 2344 -856 2625 -561 
Q 2906 -266 2906 331 
L 2906 616 
Q 2728 306 2450 153 
Q 2172 0 1784 0 
Q 1141 0 747 490 
Q 353 981 353 1791 
Q 353 2603 747 3093 
Q 1141 3584 1784 3584 
Q 2172 3584 2450 3431 
Q 2728 3278 2906 2969 
L 2906 3500 
L 3481 3500 
L 3481 434 
z
" transform="scale(0.015625)"/>
       <path id="DejaVuSans-31" d="M 794 531 
L 1825 531 
L 1825 4091 
L 703 3866 
L 703 4441 
L 1819 4666 
L 2450 4666 
L 2450 531 
L 3481 531 
L 3481 0 
L 794 0 
L 794 531 
z
" transform="scale(0.015625)"/>
       <path id="DejaVuSans-28" d="M 1984 4856 
Q 1566 4138 1362 3434 
Q 1159 2731 1159 2009 
Q 1159 1288 1364 580 
Q 1569 -128 1984 -844 
L 1484 -844 
Q 1016 -109 783 600 
Q 550 1309 550 2009 
Q 550 2706 781 3412 
Q 1013 4119 1484 4856 
L 1984 4856 
z
" transform="scale(0.015625)"/>
       <path id="DejaVuSans-23" d="M 3272 2816 
L 2363 2816 
L 2100 1772 
L 3016 1772 
L 3272 2816 
z
M 2803 4594 
L 2478 3297 
L 3391 3297 
L 3719 4594 
L 4219 4594 
L 3897 3297 
L 4872 3297 
L 4872 2816 
L 3775 2816 
L 3519 1772 
L 4513 1772 
L 4513 1294 
L 3397 1294 
L 3072 0 
L 2572 0 
L 2894 1294 
L 1978 1294 
L 1656 0 
L 1153 0 
L 1478 1294 
L 494 1294 
L 494 1772 
L 1594 1772 
L 1856 2816 
L 850 2816 
L 850 3297 
L 1978 3297 
L 2297 4594 
L 2803 4594 
z
" transform="scale(0.015625)"/>
       <path id="DejaVuSans-20" transform="scale(0.015625)"/>
       <path id="DejaVuSans-66" d="M 2375 4863 
L 2375 4384 
L 1825 4384 
Q 1516 4384 1395 4259 
Q 1275 4134 1275 3809 
L 1275 3500 
L 2222 3500 
L 2222 3053 
L 1275 3053 
L 1275 0 
L 697 0 
L 697 3053 
L 147 3053 
L 147 3500 
L 697 3500 
L 697 3744 
Q 697 4328 969 4595 
Q 1241 4863 1831 4863 
L 2375 4863 
z
" transform="scale(0.015625)"/>
       <path id="DejaVuSans-2d" d="M 313 2009 
L 1997 2009 
L 1997 1497 
L 313 1497 
L 313 2009 
z
" transform="scale(0.015625)"/>
       <path id="DejaVuSans-65" d="M 3597 1894 
L 3597 1613 
L 953 1613 
Q 991 1019 1311 708 
Q 1631 397 2203 397 
Q 2534 397 2845 478 
Q 3156 559 3463 722 
L 3463 178 
Q 3153 47 2828 -22 
Q 2503 -91 2169 -91 
Q 1331 -91 842 396 
Q 353 884 353 1716 
Q 353 2575 817 3079 
Q 1281 3584 2069 3584 
Q 2775 3584 3186 3129 
Q 3597 2675 3597 1894 
z
M 3022 2063 
Q 3016 2534 2758 2815 
Q 2500 3097 2075 3097 
Q 1594 3097 1305 2825 
Q 1016 2553 972 2059 
L 3022 2063 
z
" transform="scale(0.015625)"/>
       <path id="DejaVuSans-76" d="M 191 3500 
L 800 3500 
L 1894 563 
L 2988 3500 
L 3597 3500 
L 2284 0 
L 1503 0 
L 191 3500 
z
" transform="scale(0.015625)"/>
       <path id="DejaVuSans-61" d="M 2194 1759 
Q 1497 1759 1228 1600 
Q 959 1441 959 1056 
Q 959 750 1161 570 
Q 1363 391 1709 391 
Q 2188 391 2477 730 
Q 2766 1069 2766 1631 
L 2766 1759 
L 2194 1759 
z
M 3341 1997 
L 3341 0 
L 2766 0 
L 2766 531 
Q 2569 213 2275 61 
Q 1981 -91 1556 -91 
Q 1019 -91 701 211 
Q 384 513 384 1019 
Q 384 1609 779 1909 
Q 1175 2209 1959 2209 
L 2766 2209 
L 2766 2266 
Q 2766 2663 2505 2880 
Q 2244 3097 1772 3097 
Q 1472 3097 1187 3025 
Q 903 2953 641 2809 
L 641 3341 
Q 956 3463 1253 3523 
Q 1550 3584 1831 3584 
Q 2591 3584 2966 3190 
Q 3341 2797 3341 1997 
z
" transform="scale(0.015625)"/>
       <path id="DejaVuSans-73" d="M 2834 3397 
L 2834 2853 
Q 2591 2978 2328 3040 
Q 2066 3103 1784 3103 
Q 1356 3103 1142 2972 
Q 928 2841 928 2578 
Q 928 2378 1081 2264 
Q 1234 2150 1697 2047 
L 1894 2003 
Q 2506 1872 2764 1633 
Q 3022 1394 3022 966 
Q 3022 478 2636 193 
Q 2250 -91 1575 -91 
Q 1294 -91 989 -36 
Q 684 19 347 128 
L 347 722 
Q 666 556 975 473 
Q 1284 391 1588 391 
Q 1994 391 2212 530 
Q 2431 669 2431 922 
Q 2431 1156 2273 1281 
Q 2116 1406 1581 1522 
L 1381 1569 
Q 847 1681 609 1914 
Q 372 2147 372 2553 
Q 372 3047 722 3315 
Q 1072 3584 1716 3584 
Q 2034 3584 2315 3537 
Q 2597 3491 2834 3397 
z
" transform="scale(0.015625)"/>
       <path id="DejaVuSans-2f" d="M 1625 4666 
L 2156 4666 
L 531 -594 
L 0 -594 
L 1625 4666 
z
" transform="scale(0.015625)"/>
       <path id="DejaVuSans-64" d="M 2906 2969 
L 2906 4863 
L 3481 4863 
L 3481 0 
L 2906 0 
L 2906 525 
Q 2725 213 2448 61 
Q 2172 -91 1784 -91 
Q 1150 -91 751 415 
Q 353 922 353 1747 
Q 353 2572 751 3078 
Q 1150 3584 1784 3584 
Q 2172 3584 2448 3432 
Q 2725 3281 2906 2969 
z
M 947 1747 
Q 947 1113 1208 752 
Q 1469 391 1925 391 
Q 2381 391 2643 752 
Q 2906 1113 2906 1747 
Q 2906 2381 2643 2742 
Q 2381 3103 1925 3103 
Q 1469 3103 1208 2742 
Q 947 2381 947 1747 
z
" transform="scale(0.015625)"/>
       <path id="DejaVuSans-69" d="M 603 3500 
L 1178 3500 
L 1178 0 
L 603 0 
L 603 3500 
z
M 603 4863 
L 1178 4863 
L 1178 4134 
L 603 4134 
L 603 4863 
z
" transform="scale(0.015625)"/>
       <path id="DejaVuSans-6d" d="M 3328 2828 
Q 3544 3216 3844 3400 
Q 4144 3584 4550 3584 
Q 5097 3584 5394 3201 
Q 5691 2819 5691 2113 
L 5691 0 
L 5113 0 
L 5113 2094 
Q 5113 2597 4934 2840 
Q 4756 3084 4391 3084 
Q 3944 3084 3684 2787 
Q 3425 2491 3425 1978 
L 3425 0 
L 2847 0 
L 2847 2094 
Q 2847 2600 2669 2842 
Q 2491 3084 2119 3084 
Q 1678 3084 1418 2786 
Q 1159 2488 1159 1978 
L 1159 0 
L 581 0 
L 581 3500 
L 1159 3500 
L 1159 2956 
Q 1356 3278 1631 3431 
Q 1906 3584 2284 3584 
Q 2666 3584 2933 3390 
Q 3200 3197 3328 2828 
z
" transform="scale(0.015625)"/>
       <path id="DejaVuSans-6e" d="M 3513 2113 
L 3513 0 
L 2938 0 
L 2938 2094 
Q 2938 2591 2744 2837 
Q 2550 3084 2163 3084 
Q 1697 3084 1428 2787 
Q 1159 2491 1159 1978 
L 1159 0 
L 581 0 
L 581 3500 
L 1159 3500 
L 1159 2956 
Q 1366 3272 1645 3428 
Q 1925 3584 2291 3584 
Q 2894 3584 3203 3211 
Q 3513 2838 3513 2113 
z
" transform="scale(0.015625)"/>
       <path id="DejaVuSans-29" d="M 513 4856 
L 1013 4856 
Q 1481 4119 1714 3412 
Q 1947 2706 1947 2009 
Q 1947 1309 1714 600 
Q 1481 -109 1013 -844 
L 513 -844 
Q 928 -128 1133 580 
Q 1338 1288 1338 2009 
Q 1338 2731 1133 3434 
Q 928 4138 513 4856 
z
" transform="scale(0.015625)"/>
      </defs>
      <use xlink:href="#DejaVuSans-6c"/>
      <use xlink:href="#DejaVuSans-6f" x="27.783203"/>
      <use xlink:href="#DejaVuSans-67" x="88.964844"/>
      <use xlink:href="#DejaVuSans-31" x="152.441406"/>
      <use xlink:href="#DejaVuSans-30" x="216.064453"/>
      <use xlink:href="#DejaVuSans-28" x="279.6875"/>
      <use xlink:href="#DejaVuSans-23" x="318.701172"/>
      <use xlink:href="#DejaVuSans-20" x="402.490234"/>
      <use xlink:href="#DejaVuSans-66" x="434.277344"/>
      <use xlink:href="#DejaVuSans-2d" x="463.982422"/>
      <use xlink:href="#DejaVuSans-65" x="500.066406"/>
      <use xlink:href="#DejaVuSans-76" x="561.589844"/>
      <use xlink:href="#DejaVuSans-61" x="620.769531"/>
      <use xlink:href="#DejaVuSans-6c" x="682.048828"/>
      <use xlink:href="#DejaVuSans-73" x="709.832031"/>
      <use xlink:href="#DejaVuSans-20" x="761.931641"/>
      <use xlink:href="#DejaVuSans-2f" x="793.71875"/>
      <use xlink:href="#DejaVuSans-20" x="827.410156"/>
      <use xlink:href="#DejaVuSans-64" x="859.197266"/>
      <use xlink:href="#DejaVuSans-69" x="922.673828"/>
      <use xlink:href="#DejaVuSans-6d" x="950.457031"/>
      <use xlink:href="#DejaVuSans-65" x="1047.869141"/>
      <use xlink:href="#DejaVuSans-6e" x="1109.392578"/>
      <use xlink:href="#DejaVuSans-73" x="1172.771484"/>
      <use xlink:href="#DejaVuSans-69" x="1224.871094"/>
      <use xlink:href="#DejaVuSans-6f" x="1252.654297"/>
      <use xlink:href="#DejaVuSans-6e" x="1313.835938"/>
      <use xlink:href="#DejaVuSans-29" x="1377.214844"/>
     </g>
    </g>
   </g>
   <g id="matplotlib.axis_2">
    <g id="ytick_1">
     <g id="line2d_21">
      <path d="M 57.6 298.944 
L 360.8064 298.944 
" clip-path="url(#p59a810ec15)" style="fill: none; stroke: #b0b0b0; stroke-width: 0.8; stroke-linecap: square"/>
     </g>
     <g id="line2d_22">
      <defs>
       <path id="m33df1850db" d="M 0 0 
L -3.5 0 
" style="stroke: #000000; stroke-width: 0.8"/>
      </defs>
      <g>
       <use xlink:href="#m33df1850db" x="57.6" y="298.944" style="stroke: #000000; stroke-width: 0.8"/>
      </g>
     </g>
     <g id="text_6">
      <!-- 0.0 -->
      <g transform="translate(25.155 305.02275)scale(0.16 -0.16)">
       <defs>
        <path id="DejaVuSans-2e" d="M 684 794 
L 1344 794 
L 1344 0 
L 684 0 
L 684 794 
z
" transform="scale(0.015625)"/>
       </defs>
       <use xlink:href="#DejaVuSans-30"/>
       <use xlink:href="#DejaVuSans-2e" x="63.623047"/>
       <use xlink:href="#DejaVuSans-30" x="95.410156"/>
      </g>
     </g>
    </g>
    <g id="ytick_2">
     <g id="line2d_23">
      <path d="M 57.6 244.6848 
L 360.8064 244.6848 
" clip-path="url(#p59a810ec15)" style="fill: none; stroke: #b0b0b0; stroke-width: 0.8; stroke-linecap: square"/>
     </g>
     <g id="line2d_24">
      <g>
       <use xlink:href="#m33df1850db" x="57.6" y="244.6848" style="stroke: #000000; stroke-width: 0.8"/>
      </g>
     </g>
     <g id="text_7">
      <!-- 0.2 -->
      <g transform="translate(25.155 250.76355)scale(0.16 -0.16)">
       <use xlink:href="#DejaVuSans-30"/>
       <use xlink:href="#DejaVuSans-2e" x="63.623047"/>
       <use xlink:href="#DejaVuSans-32" x="95.410156"/>
      </g>
     </g>
    </g>
    <g id="ytick_3">
     <g id="line2d_25">
      <path d="M 57.6 190.4256 
L 360.8064 190.4256 
" clip-path="url(#p59a810ec15)" style="fill: none; stroke: #b0b0b0; stroke-width: 0.8; stroke-linecap: square"/>
     </g>
     <g id="line2d_26">
      <g>
       <use xlink:href="#m33df1850db" x="57.6" y="190.4256" style="stroke: #000000; stroke-width: 0.8"/>
      </g>
     </g>
     <g id="text_8">
      <!-- 0.4 -->
      <g transform="translate(25.155 196.50435)scale(0.16 -0.16)">
       <use xlink:href="#DejaVuSans-30"/>
       <use xlink:href="#DejaVuSans-2e" x="63.623047"/>
       <use xlink:href="#DejaVuSans-34" x="95.410156"/>
      </g>
     </g>
    </g>
    <g id="ytick_4">
     <g id="line2d_27">
      <path d="M 57.6 136.1664 
L 360.8064 136.1664 
" clip-path="url(#p59a810ec15)" style="fill: none; stroke: #b0b0b0; stroke-width: 0.8; stroke-linecap: square"/>
     </g>
     <g id="line2d_28">
      <g>
       <use xlink:href="#m33df1850db" x="57.6" y="136.1664" style="stroke: #000000; stroke-width: 0.8"/>
      </g>
     </g>
     <g id="text_9">
      <!-- 0.6 -->
      <g transform="translate(25.155 142.24515)scale(0.16 -0.16)">
       <use xlink:href="#DejaVuSans-30"/>
       <use xlink:href="#DejaVuSans-2e" x="63.623047"/>
       <use xlink:href="#DejaVuSans-36" x="95.410156"/>
      </g>
     </g>
    </g>
    <g id="ytick_5">
     <g id="line2d_29">
      <path d="M 57.6 81.9072 
L 360.8064 81.9072 
" clip-path="url(#p59a810ec15)" style="fill: none; stroke: #b0b0b0; stroke-width: 0.8; stroke-linecap: square"/>
     </g>
     <g id="line2d_30">
      <g>
       <use xlink:href="#m33df1850db" x="57.6" y="81.9072" style="stroke: #000000; stroke-width: 0.8"/>
      </g>
     </g>
     <g id="text_10">
      <!-- 0.8 -->
      <g transform="translate(25.155 87.98595)scale(0.16 -0.16)">
       <defs>
        <path id="DejaVuSans-38" d="M 2034 2216 
Q 1584 2216 1326 1975 
Q 1069 1734 1069 1313 
Q 1069 891 1326 650 
Q 1584 409 2034 409 
Q 2484 409 2743 651 
Q 3003 894 3003 1313 
Q 3003 1734 2745 1975 
Q 2488 2216 2034 2216 
z
M 1403 2484 
Q 997 2584 770 2862 
Q 544 3141 544 3541 
Q 544 4100 942 4425 
Q 1341 4750 2034 4750 
Q 2731 4750 3128 4425 
Q 3525 4100 3525 3541 
Q 3525 3141 3298 2862 
Q 3072 2584 2669 2484 
Q 3125 2378 3379 2068 
Q 3634 1759 3634 1313 
Q 3634 634 3220 271 
Q 2806 -91 2034 -91 
Q 1263 -91 848 271 
Q 434 634 434 1313 
Q 434 1759 690 2068 
Q 947 2378 1403 2484 
z
M 1172 3481 
Q 1172 3119 1398 2916 
Q 1625 2713 2034 2713 
Q 2441 2713 2670 2916 
Q 2900 3119 2900 3481 
Q 2900 3844 2670 4047 
Q 2441 4250 2034 4250 
Q 1625 4250 1398 4047 
Q 1172 3844 1172 3481 
z
" transform="scale(0.015625)"/>
       </defs>
       <use xlink:href="#DejaVuSans-30"/>
       <use xlink:href="#DejaVuSans-2e" x="63.623047"/>
       <use xlink:href="#DejaVuSans-38" x="95.410156"/>
      </g>
     </g>
    </g>
    <g id="ytick_6">
     <g id="line2d_31">
      <path d="M 57.6 27.648 
L 360.8064 27.648 
" clip-path="url(#p59a810ec15)" style="fill: none; stroke: #b0b0b0; stroke-width: 0.8; stroke-linecap: square"/>
     </g>
     <g id="line2d_32">
      <g>
       <use xlink:href="#m33df1850db" x="57.6" y="27.648" style="stroke: #000000; stroke-width: 0.8"/>
      </g>
     </g>
     <g id="text_11">
      <!-- 1.0 -->
      <g transform="translate(25.155 33.72675)scale(0.16 -0.16)">
       <use xlink:href="#DejaVuSans-31"/>
       <use xlink:href="#DejaVuSans-2e" x="63.623047"/>
       <use xlink:href="#DejaVuSans-30" x="95.410156"/>
      </g>
     </g>
    </g>
    <g id="text_12">
     <!-- Fraction of function,target pairs -->
     <g transform="translate(17.619531 297.681)rotate(-90)scale(0.17 -0.17)">
      <defs>
       <path id="DejaVuSans-46" d="M 628 4666 
L 3309 4666 
L 3309 4134 
L 1259 4134 
L 1259 2759 
L 3109 2759 
L 3109 2228 
L 1259 2228 
L 1259 0 
L 628 0 
L 628 4666 
z
" transform="scale(0.015625)"/>
       <path id="DejaVuSans-72" d="M 2631 2963 
Q 2534 3019 2420 3045 
Q 2306 3072 2169 3072 
Q 1681 3072 1420 2755 
Q 1159 2438 1159 1844 
L 1159 0 
L 581 0 
L 581 3500 
L 1159 3500 
L 1159 2956 
Q 1341 3275 1631 3429 
Q 1922 3584 2338 3584 
Q 2397 3584 2469 3576 
Q 2541 3569 2628 3553 
L 2631 2963 
z
" transform="scale(0.015625)"/>
       <path id="DejaVuSans-63" d="M 3122 3366 
L 3122 2828 
Q 2878 2963 2633 3030 
Q 2388 3097 2138 3097 
Q 1578 3097 1268 2742 
Q 959 2388 959 1747 
Q 959 1106 1268 751 
Q 1578 397 2138 397 
Q 2388 397 2633 464 
Q 2878 531 3122 666 
L 3122 134 
Q 2881 22 2623 -34 
Q 2366 -91 2075 -91 
Q 1284 -91 818 406 
Q 353 903 353 1747 
Q 353 2603 823 3093 
Q 1294 3584 2113 3584 
Q 2378 3584 2631 3529 
Q 2884 3475 3122 3366 
z
" transform="scale(0.015625)"/>
       <path id="DejaVuSans-74" d="M 1172 4494 
L 1172 3500 
L 2356 3500 
L 2356 3053 
L 1172 3053 
L 1172 1153 
Q 1172 725 1289 603 
Q 1406 481 1766 481 
L 2356 481 
L 2356 0 
L 1766 0 
Q 1100 0 847 248 
Q 594 497 594 1153 
L 594 3053 
L 172 3053 
L 172 3500 
L 594 3500 
L 594 4494 
L 1172 4494 
z
" transform="scale(0.015625)"/>
       <path id="DejaVuSans-75" d="M 544 1381 
L 544 3500 
L 1119 3500 
L 1119 1403 
Q 1119 906 1312 657 
Q 1506 409 1894 409 
Q 2359 409 2629 706 
Q 2900 1003 2900 1516 
L 2900 3500 
L 3475 3500 
L 3475 0 
L 2900 0 
L 2900 538 
Q 2691 219 2414 64 
Q 2138 -91 1772 -91 
Q 1169 -91 856 284 
Q 544 659 544 1381 
z
M 1991 3584 
L 1991 3584 
z
" transform="scale(0.015625)"/>
       <path id="DejaVuSans-2c" d="M 750 794 
L 1409 794 
L 1409 256 
L 897 -744 
L 494 -744 
L 750 256 
L 750 794 
z
" transform="scale(0.015625)"/>
       <path id="DejaVuSans-70" d="M 1159 525 
L 1159 -1331 
L 581 -1331 
L 581 3500 
L 1159 3500 
L 1159 2969 
Q 1341 3281 1617 3432 
Q 1894 3584 2278 3584 
Q 2916 3584 3314 3078 
Q 3713 2572 3713 1747 
Q 3713 922 3314 415 
Q 2916 -91 2278 -91 
Q 1894 -91 1617 61 
Q 1341 213 1159 525 
z
M 3116 1747 
Q 3116 2381 2855 2742 
Q 2594 3103 2138 3103 
Q 1681 3103 1420 2742 
Q 1159 2381 1159 1747 
Q 1159 1113 1420 752 
Q 1681 391 2138 391 
Q 2594 391 2855 752 
Q 3116 1113 3116 1747 
z
" transform="scale(0.015625)"/>
      </defs>
      <use xlink:href="#DejaVuSans-46"/>
      <use xlink:href="#DejaVuSans-72" x="50.269531"/>
      <use xlink:href="#DejaVuSans-61" x="91.382812"/>
      <use xlink:href="#DejaVuSans-63" x="152.662109"/>
      <use xlink:href="#DejaVuSans-74" x="207.642578"/>
      <use xlink:href="#DejaVuSans-69" x="246.851562"/>
      <use xlink:href="#DejaVuSans-6f" x="274.634766"/>
      <use xlink:href="#DejaVuSans-6e" x="335.816406"/>
      <use xlink:href="#DejaVuSans-20" x="399.195312"/>
      <use xlink:href="#DejaVuSans-6f" x="430.982422"/>
      <use xlink:href="#DejaVuSans-66" x="492.164062"/>
      <use xlink:href="#DejaVuSans-20" x="527.369141"/>
      <use xlink:href="#DejaVuSans-66" x="559.15625"/>
      <use xlink:href="#DejaVuSans-75" x="594.361328"/>
      <use xlink:href="#DejaVuSans-6e" x="657.740234"/>
      <use xlink:href="#DejaVuSans-63" x="721.119141"/>
      <use xlink:href="#DejaVuSans-74" x="776.099609"/>
      <use xlink:href="#DejaVuSans-69" x="815.308594"/>
      <use xlink:href="#DejaVuSans-6f" x="843.091797"/>
      <use xlink:href="#DejaVuSans-6e" x="904.273438"/>
      <use xlink:href="#DejaVuSans-2c" x="967.652344"/>
      <use xlink:href="#DejaVuSans-74" x="999.439453"/>
      <use xlink:href="#DejaVuSans-61" x="1038.648438"/>
      <use xlink:href="#DejaVuSans-72" x="1099.927734"/>
      <use xlink:href="#DejaVuSans-67" x="1139.291016"/>
      <use xlink:href="#DejaVuSans-65" x="1202.767578"/>
      <use xlink:href="#DejaVuSans-74" x="1264.291016"/>
      <use xlink:href="#DejaVuSans-20" x="1303.5"/>
      <use xlink:href="#DejaVuSans-70" x="1335.287109"/>
      <use xlink:href="#DejaVuSans-61" x="1398.763672"/>
      <use xlink:href="#DejaVuSans-69" x="1460.042969"/>
      <use xlink:href="#DejaVuSans-72" x="1487.826172"/>
      <use xlink:href="#DejaVuSans-73" x="1528.939453"/>
     </g>
    </g>
   </g>
   <g id="line2d_33">
    <defs>
     <path id="m22abec3811" d="M 0 1.5 
C 0.397805 1.5 0.77937 1.341951 1.06066 1.06066 
C 1.341951 0.77937 1.5 0.397805 1.5 0 
C 1.5 -0.397805 1.341951 -0.77937 1.06066 -1.06066 
C 0.77937 -1.341951 0.397805 -1.5 0 -1.5 
C -0.397805 -1.5 -0.77937 -1.341951 -1.06066 -1.06066 
C -1.341951 -0.77937 -1.5 -0.397805 -1.5 0 
C -1.5 0.397805 -1.341951 0.77937 -1.06066 1.06066 
C -0.77937 1.341951 -0.397805 1.5 0 1.5 
z
" style="stroke: #f5deb3"/>
    </defs>
    <g>
     <use xlink:href="#m22abec3811" x="216.773368" y="27.648" style="fill: #f5deb3; stroke: #f5deb3"/>
     <use xlink:href="#m22abec3811" x="216.773368" y="27.648" style="fill: #f5deb3; stroke: #f5deb3"/>
    </g>
   </g>
   <g id="line2d_34">
    <defs>
     <path id="m7b87ef5e4c" d="M 0 1.5 
C 0.397805 1.5 0.77937 1.341951 1.06066 1.06066 
C 1.341951 0.77937 1.5 0.397805 1.5 0 
C 1.5 -0.397805 1.341951 -0.77937 1.06066 -1.06066 
C 0.77937 -1.341951 0.397805 -1.5 0 -1.5 
C -0.397805 -1.5 -0.77937 -1.341951 -1.06066 -1.06066 
C -1.341951 -0.77937 -1.5 -0.397805 -1.5 0 
C -1.5 0.397805 -1.341951 0.77937 -1.06066 1.06066 
C -0.77937 1.341951 -0.397805 1.5 0 1.5 
z
" style="stroke: #000080"/>
    </defs>
    <g>
     <use xlink:href="#m7b87ef5e4c" x="283.513665" y="181.914353" style="fill: #000080; stroke: #000080"/>
     <use xlink:href="#m7b87ef5e4c" x="283.513665" y="181.914353" style="fill: #000080; stroke: #000080"/>
    </g>
   </g>
   <g id="line2d_35">
    <path d="M 1.245626 298.944 
L 1.245626 276.601976 
L 14.2848 276.601976 
L 14.2848 276.176414 
L 27.323974 276.176414 
L 27.323974 275.963633 
L 31.521651 275.963633 
L 31.521651 275.325289 
L 34.951403 275.325289 
L 34.951403 275.112508 
L 37.851216 275.112508 
L 37.851216 274.899727 
L 40.363149 274.899727 
L 40.363149 274.686946 
L 42.578831 274.686946 
L 42.578831 274.474165 
L 47.990577 274.474165 
L 47.990577 274.048602 
L 50.890391 274.048602 
L 50.890391 273.62304 
L 53.402323 273.62304 
L 53.402323 273.410259 
L 55.618005 273.410259 
L 55.618005 272.984696 
L 61.029752 272.984696 
L 61.029752 272.771915 
L 63.929565 272.771915 
L 63.929565 272.559134 
L 69.674268 272.559134 
L 69.674268 272.346353 
L 71.556993 272.346353 
L 71.556993 272.133572 
L 72.432107 272.133572 
L 72.432107 271.708009 
L 73.268314 271.708009 
L 73.268314 271.495228 
L 74.836851 271.495228 
L 74.836851 270.856885 
L 75.93298 270.856885 
L 75.93298 270.431322 
L 76.629783 270.431322 
L 76.629783 270.218541 
L 78.88343 270.218541 
L 78.88343 270.00576 
L 79.480672 270.00576 
L 79.480672 269.792979 
L 80.342421 269.792979 
L 80.342421 269.367416 
L 81.955828 269.367416 
L 81.955828 269.154635 
L 82.464279 269.154635 
L 82.464279 268.941854 
L 83.678349 268.941854 
L 83.678349 268.516292 
L 87.495981 268.516292 
L 87.495981 268.303511 
L 88.613828 268.303511 
L 88.613828 267.877948 
L 89.839199 267.877948 
L 89.839199 267.665167 
L 90.007914 267.665167 
L 90.007914 267.452386 
L 90.175129 267.452386 
L 90.175129 267.239605 
L 91.770283 267.239605 
L 91.770283 267.026824 
L 92.372304 267.026824 
L 92.372304 266.814042 
L 92.519847 266.814042 
L 92.519847 266.601261 
L 94.07074 266.601261 
L 94.07074 266.38848 
L 95.250946 266.38848 
L 95.250946 266.175699 
L 95.752617 266.175699 
L 95.752617 265.962918 
L 96.599582 265.962918 
L 96.599582 265.750136 
L 96.717523 265.750136 
L 96.717523 265.537355 
L 98.617037 265.537355 
L 98.617037 265.324574 
L 99.851024 265.324574 
L 99.851024 264.686231 
L 100.244997 264.686231 
L 100.244997 264.473449 
L 100.438933 264.473449 
L 100.438933 264.260668 
L 101.009023 264.260668 
L 101.009023 264.047887 
L 101.195278 264.047887 
L 101.195278 263.835106 
L 101.471247 263.835106 
L 101.471247 263.622325 
L 102.96292 263.622325 
L 102.96292 263.409544 
L 103.380045 263.409544 
L 103.380045 263.196762 
L 104.501065 263.196762 
L 104.578638 262.7712 
L 104.809458 262.7712 
L 104.809458 262.558419 
L 105.26277 262.558419 
L 105.26277 262.345638 
L 106.560633 262.345638 
L 106.560633 262.132856 
L 107.042125 262.132856 
L 107.109915 261.707294 
L 107.445245 261.707294 
L 107.445245 261.494513 
L 108.09849 261.494513 
L 108.09849 261.281732 
L 109.990385 261.281732 
L 109.990385 261.068951 
L 110.163764 261.068951 
L 110.163764 260.856169 
L 110.335561 260.856169 
L 110.335561 260.643388 
L 110.841731 260.643388 
L 110.841731 260.217826 
L 111.062397 260.217826 
L 111.171767 259.792264 
L 111.226215 259.792264 
L 111.226215 259.579482 
L 111.920053 259.579482 
L 111.920053 259.366701 
L 112.487797 259.366701 
L 112.589207 258.941139 
L 112.639708 258.941139 
L 112.690074 258.515576 
L 112.840366 258.515576 
L 112.890198 258.090014 
L 113.137397 258.090014 
L 113.137397 257.877233 
L 114.372943 257.877233 
L 114.464707 257.451671 
L 114.872193 257.451671 
L 114.872193 257.238889 
L 115.183135 257.238889 
L 115.183135 257.026108 
L 115.704505 257.026108 
L 115.704505 256.813327 
L 115.917548 256.813327 
L 115.917548 256.600546 
L 116.044226 256.600546 
L 116.044226 256.387765 
L 116.253478 256.387765 
L 116.253478 256.174984 
L 116.705799 256.174984 
L 116.705799 255.962202 
L 117.226706 255.962202 
L 117.226706 255.749421 
L 117.501332 255.749421 
L 117.501332 255.53664 
L 117.65648 255.53664 
L 117.65648 255.323859 
L 117.924947 255.323859 
L 117.924947 255.111078 
L 119.034004 255.111078 
L 119.034004 254.898296 
L 119.28364 254.898296 
L 119.28364 254.685515 
L 119.738639 254.685515 
L 119.842094 254.047172 
L 120.682786 254.047172 
L 120.682786 253.621609 
L 120.879082 253.621609 
L 120.879082 253.408828 
L 121.233724 253.408828 
L 121.297492 252.983266 
L 121.768984 252.983266 
L 121.768984 252.770485 
L 121.892744 252.770485 
L 121.892744 252.557704 
L 122.107385 252.557704 
L 122.107385 252.344922 
L 122.259215 252.344922 
L 122.259215 252.132141 
L 122.379802 252.132141 
L 122.379802 251.91936 
L 122.529457 251.91936 
L 122.618682 251.281016 
L 122.942266 251.281016 
L 122.942266 250.855454 
L 123.544976 250.855454 
L 123.601383 250.429892 
L 123.741664 250.429892 
L 123.741664 250.217111 
L 123.85314 250.217111 
L 123.908631 249.791548 
L 124.019125 249.791548 
L 124.019125 249.578767 
L 124.535287 249.578767 
L 124.535287 249.153205 
L 125.141738 249.153205 
L 125.141738 248.940424 
L 125.450553 248.940424 
L 125.501533 248.514861 
L 125.577745 248.514861 
L 125.577745 248.30208 
L 125.729248 248.30208 
L 125.829577 247.876518 
L 126.250102 247.876518 
L 126.250102 247.663736 
L 126.493149 247.663736 
L 126.565455 247.238174 
L 126.637484 247.238174 
L 126.709238 246.599831 
L 127.06396 246.599831 
L 127.06396 246.387049 
L 127.203997 246.387049 
L 127.203997 246.174268 
L 127.526752 246.174268 
L 127.549596 245.748706 
L 127.663399 245.748706 
L 127.663399 245.535925 
L 127.776517 245.535925 
L 127.776517 245.323144 
L 128.000734 245.323144 
L 128.000734 245.110362 
L 128.200269 245.110362 
L 128.244324 244.6848 
L 128.39771 244.6848 
L 128.41952 244.259238 
L 128.657782 244.259238 
L 128.765092 243.195332 
L 129.0834 243.195332 
L 129.0834 242.982551 
L 129.250988 242.982551 
L 129.250988 242.769769 
L 129.375706 242.769769 
L 129.396412 242.344207 
L 129.499602 242.344207 
L 129.499602 242.131426 
L 129.846275 242.131426 
L 129.926925 241.06752 
L 130.186674 241.06752 
L 130.186674 240.854739 
L 130.305359 240.854739 
L 130.403695 240.429176 
L 130.714958 240.429176 
L 130.714958 240.216395 
L 130.830367 240.216395 
L 130.86868 239.790833 
L 131.83837 239.790833 
L 131.929028 238.939708 
L 132.073179 238.939708 
L 132.162715 238.088584 
L 132.621556 238.088584 
L 132.725872 237.663021 
L 132.949924 237.663021 
L 133.035392 236.811896 
L 133.069471 236.811896 
L 133.120474 236.173553 
L 133.205173 236.173553 
L 133.205173 235.960772 
L 133.457005 235.960772 
L 133.506969 235.535209 
L 133.623039 235.535209 
L 133.623039 235.322428 
L 133.754819 235.322428 
L 133.771227 234.684085 
L 134.064146 234.684085 
L 134.064146 234.471304 
L 134.431915 234.471304 
L 134.431915 234.258522 
L 134.558167 234.258522 
L 134.573889 233.620179 
L 134.683578 233.620179 
L 134.683578 233.407398 
L 135.054871 233.407398 
L 135.054871 233.194616 
L 135.222628 233.194616 
L 135.268121 232.343492 
L 135.3437 232.343492 
L 135.449003 231.917929 
L 135.493953 231.917929 
L 135.538796 231.492367 
L 136.126705 231.492367 
L 136.184497 231.066805 
L 136.270855 231.066805 
L 136.270855 230.854024 
L 136.696795 230.854024 
L 136.696795 230.641242 
L 136.892314 230.641242 
L 136.892314 230.428461 
L 137.181835 230.428461 
L 137.23648 230.002899 
L 137.561058 230.002899 
L 137.561058 229.790118 
L 137.707972 229.790118 
L 137.707972 229.577336 
L 137.972183 229.577336 
L 138.063788 228.938993 
L 138.219793 228.938993 
L 138.219793 228.513431 
L 138.464186 228.513431 
L 138.502486 228.087868 
L 138.578852 228.087868 
L 138.59155 227.662306 
L 138.692823 227.662306 
L 138.705444 227.236744 
L 139.129595 227.236744 
L 139.129595 227.023962 
L 139.252547 227.023962 
L 139.252547 226.811181 
L 139.386872 226.811181 
L 139.411192 226.385619 
L 139.556456 226.385619 
L 139.556456 226.172838 
L 139.807999 226.172838 
L 139.807999 225.747275 
L 140.14993 225.747275 
L 140.254795 225.321713 
L 140.26641 225.321713 
L 140.28962 224.896151 
L 140.53161 224.896151 
L 140.622984 224.470588 
L 140.725251 224.470588 
L 140.80441 223.832245 
L 141.084433 223.832245 
L 141.084433 223.619464 
L 141.393187 223.619464 
L 141.415049 223.193901 
L 141.65386 223.193901 
L 141.761416 222.555558 
L 142.258853 222.555558 
L 142.258853 222.342776 
L 142.538777 222.342776 
L 142.538777 222.129995 
L 142.844994 222.129995 
L 142.895549 221.704433 
L 143.275392 221.704433 
L 143.275392 221.491652 
L 143.393766 221.491652 
L 143.491845 220.853308 
L 143.608869 220.853308 
L 143.608869 220.640527 
L 143.763777 220.640527 
L 143.811926 220.214965 
L 144.088782 220.214965 
L 144.088782 220.002184 
L 144.529002 220.002184 
L 144.529002 219.789402 
L 144.777313 219.789402 
L 144.777313 219.576621 
L 145.130294 219.576621 
L 145.130294 219.36384 
L 145.40622 219.36384 
L 145.494372 218.938278 
L 145.782376 218.938278 
L 145.782376 218.725496 
L 145.929039 218.725496 
L 145.929039 218.512715 
L 146.210514 218.512715 
L 146.210514 218.299934 
L 146.761135 218.299934 
L 146.761135 218.087153 
L 147.04672 218.087153 
L 147.04672 217.874372 
L 147.486917 217.874372 
L 147.597342 217.448809 
L 147.839571 217.448809 
L 147.878349 217.023247 
L 147.978801 217.023247 
L 147.978801 216.810466 
L 148.645035 216.810466 
L 148.645035 216.597685 
L 148.793216 216.597685 
L 148.837444 216.172122 
L 149.151403 216.172122 
L 149.151403 215.959341 
L 149.395993 215.959341 
L 149.453084 215.533779 
L 149.847944 215.533779 
L 149.847944 215.320998 
L 150.553245 215.320998 
L 150.633723 214.895435 
L 152.230346 214.895435 
L 152.230346 214.682654 
L 152.426047 214.682654 
L 152.523139 214.257092 
L 152.661837 214.257092 
L 152.661837 214.044311 
L 153.030703 214.044311 
L 153.030703 213.618748 
L 153.322995 213.618748 
L 153.322995 213.193186 
L 153.610815 213.193186 
L 153.610815 212.980405 
L 153.894298 212.980405 
L 153.894298 212.767624 
L 154.923525 212.767624 
L 154.923525 212.554842 
L 155.188033 212.554842 
L 155.240492 212.12928 
L 156.240202 212.12928 
L 156.240202 211.916499 
L 156.691741 211.916499 
L 156.691741 211.703718 
L 157.061501 211.703718 
L 157.061501 211.490936 
L 157.572805 211.490936 
L 157.572805 211.278155 
L 157.980225 211.278155 
L 157.980225 211.065374 
L 158.0931 211.065374 
L 158.0931 210.852593 
L 158.267842 210.852593 
L 158.267842 210.639812 
L 158.860484 210.639812 
L 158.860484 210.427031 
L 159.262383 210.427031 
L 159.262383 210.214249 
L 160.118259 210.214249 
L 160.118259 210.001468 
L 160.267222 210.001468 
L 160.267222 209.788687 
L 161.117894 209.788687 
L 161.117894 209.575906 
L 161.646981 209.575906 
L 161.646981 209.363125 
L 162.963715 209.363125 
L 162.963715 209.150344 
L 163.416862 209.150344 
L 163.416862 208.937562 
L 163.692963 208.937562 
L 163.692963 208.724781 
L 164.481734 208.724781 
L 164.481734 208.512 
L 164.893867 208.512 
L 164.934588 208.086438 
L 179.832856 208.086438 
L 179.832856 207.873656 
L 180.256078 207.873656 
L 180.256078 207.660875 
L 180.623841 207.660875 
L 180.691664 207.235313 
L 180.901716 207.235313 
L 180.901716 207.022532 
L 181.414202 207.022532 
L 181.414202 206.809751 
L 182.006761 206.809751 
L 182.006761 206.596969 
L 182.539539 206.596969 
L 182.539539 206.384188 
L 186.312458 206.384188 
L 186.312458 206.171407 
L 188.745262 206.171407 
L 188.745262 205.958626 
L 188.86665 205.958626 
L 188.86665 205.745845 
L 189.132188 205.745845 
L 189.132188 205.533064 
L 189.288873 205.533064 
L 189.288873 205.320282 
L 189.61861 205.320282 
L 189.676649 204.89472 
L 189.930243 204.89472 
L 189.930243 204.681939 
L 190.141176 204.681939 
L 190.141176 204.469158 
L 190.791039 204.469158 
L 190.791039 204.256376 
L 192.701899 204.256376 
L 192.701899 204.043595 
L 193.018854 204.043595 
L 193.089036 203.618033 
L 197.523114 203.618033 
L 197.523114 203.405252 
L 199.521594 203.405252 
L 199.521594 203.192471 
L 200.105613 203.192471 
L 200.105613 202.979689 
L 201.776051 202.979689 
L 201.776051 202.766908 
L 201.97409 202.766908 
L 201.97409 202.554127 
L 204.00002 202.554127 
L 204.100158 202.128565 
L 204.770784 202.128565 
L 204.770784 201.915784 
L 209.550488 201.915784 
L 209.550488 201.703002 
L 210.2422 201.703002 
L 210.2422 201.490221 
L 211.160863 201.490221 
L 211.160863 201.27744 
L 211.388387 201.27744 
L 211.388387 201.064659 
L 211.757602 201.064659 
L 211.757602 200.851878 
L 213.773843 200.851878 
L 213.826257 200.213534 
L 213.886876 200.213534 
L 213.969475 199.787972 
L 214.088455 199.787972 
L 214.113444 199.362409 
L 214.43937 199.362409 
L 214.43937 199.149628 
L 214.588068 199.149628 
L 214.588068 198.936847 
L 214.92131 198.936847 
L 214.92131 198.724066 
L 215.055805 198.724066 
L 215.055805 198.511285 
L 215.509216 198.511285 
L 215.509216 198.298504 
L 215.912853 198.298504 
L 215.912853 198.085722 
L 216.378014 198.085722 
L 216.378014 197.872941 
L 217.984951 197.872941 
L 217.984951 197.66016 
L 218.253436 197.66016 
L 218.323351 197.234598 
L 218.458771 197.234598 
L 218.458771 197.021816 
L 220.256249 197.021816 
L 220.336732 196.383473 
L 221.297878 196.383473 
L 221.297878 196.170692 
L 221.484599 196.170692 
L 221.484599 195.957911 
L 221.831608 195.957911 
L 221.887764 195.532348 
L 230.156355 195.532348 
L 230.218064 194.681224 
L 230.38077 194.681224 
L 230.38077 194.468442 
L 231.1279 194.468442 
L 231.237836 194.04288 
L 231.428258 194.04288 
L 231.428258 193.830099 
L 231.719404 193.830099 
L 231.719404 193.617318 
L 232.015048 193.617318 
L 232.08912 192.978974 
L 232.421522 192.978974 
L 232.421522 192.766193 
L 232.942485 192.766193 
L 232.942485 192.553412 
L 233.774207 192.553412 
L 233.802865 192.127849 
L 233.940157 192.127849 
L 233.940157 191.915068 
L 234.653769 191.915068 
L 234.653769 191.702287 
L 234.854055 191.702287 
L 234.886736 190.851162 
L 235.453776 190.851162 
L 235.498227 190.4256 
L 237.332059 190.4256 
L 237.400481 190.000038 
L 240.481939 190.000038 
L 240.481939 189.787256 
L 244.715485 189.787256 
L 244.715485 189.574475 
L 245.483925 189.574475 
L 245.498273 189.148913 
L 245.909569 189.148913 
L 245.909569 188.936132 
L 246.415657 188.936132 
L 246.415657 188.723351 
L 246.896459 188.723351 
L 246.896459 188.510569 
L 251.56214 188.510569 
L 251.56214 188.297788 
L 251.92959 188.297788 
L 251.92959 188.085007 
L 252.069138 188.085007 
L 252.17806 187.659445 
L 252.187568 187.659445 
L 252.187568 187.446664 
L 252.413902 187.446664 
L 252.413902 187.233882 
L 252.991467 187.233882 
L 253.020884 186.80832 
L 253.437343 186.80832 
L 253.437343 186.595539 
L 253.968553 186.595539 
L 253.968553 186.382758 
L 254.085989 186.382758 
L 254.085989 186.169976 
L 254.270456 186.169976 
L 254.270456 185.957195 
L 255.073867 185.957195 
L 255.073867 185.744414 
L 256.431406 185.744414 
L 256.431406 185.531633 
L 257.41863 185.531633 
L 257.41863 185.318852 
L 259.372264 185.318852 
L 259.372264 185.106071 
L 259.490119 185.106071 
L 259.543817 184.680508 
L 262.113816 184.680508 
L 262.113816 184.467727 
L 263.006745 184.467727 
L 263.006745 184.254946 
L 263.882009 184.254946 
L 263.882009 184.042165 
L 267.876389 184.042165 
L 267.876389 183.829384 
L 268.098612 183.829384 
L 268.098612 183.616602 
L 268.210949 183.616602 
L 268.210949 183.403821 
L 269.487942 183.403821 
L 269.487942 183.19104 
L 269.992439 183.19104 
L 269.992439 182.978259 
L 274.362362 182.978259 
L 274.362362 182.765478 
L 274.733937 182.765478 
L 274.733937 182.552696 
L 276.87863 182.552696 
L 276.87863 182.339915 
L 279.054452 182.339915 
L 279.054452 182.127134 
L 283.513665 182.127134 
L 283.513665 181.914353 
L 360.8064 181.914353 
L 360.8064 181.914353 
" style="fill: none; stroke: #000080; stroke-width: 1.5; stroke-linecap: square"/>
   </g>
   <g id="line2d_36">
    <defs>
     <path id="m3f112f18a1" d="M 0 6 
C 1.591219 6 3.117479 5.367802 4.242641 4.242641 
C 5.367802 3.117479 6 1.591219 6 0 
C 6 -1.591219 5.367802 -3.117479 4.242641 -4.242641 
C 3.117479 -5.367802 1.591219 -6 0 -6 
C -1.591219 -6 -3.117479 -5.367802 -4.242641 -4.242641 
C -5.367802 -3.117479 -6 -1.591219 -6 0 
C -6 1.591219 -5.367802 3.117479 -4.242641 4.242641 
C -3.117479 5.367802 -1.591219 6 0 6 
z
" style="stroke: #000080; stroke-width: 1.5"/>
    </defs>
    <g>
     <use xlink:href="#m3f112f18a1" x="92.519847" y="266.814042" style="fill-opacity: 0; stroke: #000080; stroke-width: 1.5"/>
     <use xlink:href="#m3f112f18a1" x="150.633723" y="215.108216" style="fill-opacity: 0; stroke: #000080; stroke-width: 1.5"/>
     <use xlink:href="#m3f112f18a1" x="252.187568" y="187.659445" style="fill-opacity: 0; stroke: #000080; stroke-width: 1.5"/>
     <use xlink:href="#m3f112f18a1" x="283.513665" y="181.914353" style="fill-opacity: 0; stroke: #000080; stroke-width: 1.5"/>
     <use xlink:href="#m3f112f18a1" x="283.513665" y="181.914353" style="fill-opacity: 0; stroke: #000080; stroke-width: 1.5"/>
     <use xlink:href="#m3f112f18a1" x="360.8064" y="181.914353" style="fill-opacity: 0; stroke: #000080; stroke-width: 1.5"/>
    </g>
   </g>
   <g id="line2d_37">
    <path style="fill: none; stroke: #000080; stroke-width: 1.5; stroke-linecap: square"/>
    <g/>
   </g>
   <g id="line2d_38">
    <path d="M 144.28675 220.002184 
" clip-path="url(#p59a810ec15)" style="fill: none; stroke: #000080; stroke-width: 1.5; stroke-linecap: square"/>
    <defs>
     <path id="m208de09a96" d="M -12 12 
L 12 -12 
M -12 -12 
L 12 12 
" style="stroke: #000080"/>
    </defs>
    <g clip-path="url(#p59a810ec15)">
     <use xlink:href="#m208de09a96" x="144.28675" y="220.002184" style="fill: #000080; stroke: #000080"/>
    </g>
   </g>
   <g id="line2d_39">
    <defs>
     <path id="mae00897e80" d="M 0 1.5 
C 0.397805 1.5 0.77937 1.341951 1.06066 1.06066 
C 1.341951 0.77937 1.5 0.397805 1.5 0 
C 1.5 -0.397805 1.341951 -0.77937 1.06066 -1.06066 
C 0.77937 -1.341951 0.397805 -1.5 0 -1.5 
C -0.397805 -1.5 -0.77937 -1.341951 -1.06066 -1.06066 
C -1.341951 -0.77937 -1.5 -0.397805 -1.5 0 
C -1.5 0.397805 -1.341951 0.77937 -1.06066 1.06066 
C -0.77937 1.341951 -0.397805 1.5 0 1.5 
z
" style="stroke: #ff00ff"/>
    </defs>
    <g>
     <use xlink:href="#mae00897e80" x="296.77328" y="171.275294" style="fill: #ff00ff; stroke: #ff00ff"/>
     <use xlink:href="#mae00897e80" x="296.77328" y="171.275294" style="fill: #ff00ff; stroke: #ff00ff"/>
    </g>
   </g>
   <g id="line2d_40">
    <path d="M 1.245626 298.944 
L 1.245626 276.601976 
L 37.851216 276.601976 
L 37.851216 276.389195 
L 46.353758 276.389195 
L 46.353758 276.176414 
L 49.496305 276.176414 
L 49.496305 275.963633 
L 50.890391 275.963633 
L 50.890391 275.750852 
L 54.542767 275.750852 
L 54.542767 275.538071 
L 56.635094 275.538071 
L 56.635094 275.325289 
L 62.535479 275.325289 
L 62.535479 275.112508 
L 65.227428 275.112508 
L 65.227428 274.686946 
L 69.172597 274.686946 
L 69.172597 274.474165 
L 71.556993 274.474165 
L 71.556993 274.261384 
L 71.999638 274.261384 
L 71.999638 274.048602 
L 72.854856 274.048602 
L 72.854856 273.835821 
L 74.068926 273.835821 
L 74.068926 273.62304 
L 78.266603 273.62304 
L 78.266603 273.410259 
L 78.88343 273.410259 
L 78.88343 272.984696 
L 81.696354 272.984696 
L 81.696354 272.771915 
L 82.959349 272.771915 
L 82.959349 272.559134 
L 83.441723 272.559134 
L 83.441723 272.346353 
L 83.678349 272.346353 
L 83.678349 272.133572 
L 85.471281 272.133572 
L 85.471281 271.920791 
L 85.683844 271.920791 
L 85.683844 271.708009 
L 86.101895 271.708009 
L 86.101895 271.495228 
L 86.712053 271.495228 
L 86.712053 271.282447 
L 87.876026 271.282447 
L 87.876026 271.069666 
L 88.972154 271.069666 
L 88.972154 270.856885 
L 90.340871 270.856885 
L 90.340871 270.644104 
L 90.989609 270.644104 
L 90.989609 270.431322 
L 91.922605 270.431322 
L 91.922605 270.218541 
L 93.381595 270.218541 
L 93.381595 269.580198 
L 94.205591 269.580198 
L 94.205591 269.367416 
L 95.123409 269.367416 
L 95.123409 269.154635 
L 95.752617 269.154635 
L 95.752617 268.941854 
L 96.717523 268.941854 
L 96.717523 268.729073 
L 97.410051 268.729073 
L 97.410051 268.516292 
L 97.523034 268.516292 
L 97.523034 268.303511 
L 98.18704 268.303511 
L 98.18704 268.090729 
L 98.403267 268.090729 
L 98.510456 267.665167 
L 99.244147 267.665167 
L 99.244147 267.026824 
L 99.751228 267.026824 
L 99.751228 266.814042 
L 101.102381 266.814042 
L 101.102381 266.38848 
L 101.743226 266.38848 
L 101.743226 266.175699 
L 102.275664 266.175699 
L 102.275664 265.962918 
L 102.708132 265.962918 
L 102.708132 265.750136 
L 103.130882 265.750136 
L 103.130882 265.324574 
L 103.544339 265.324574 
L 103.544339 265.111793 
L 103.707211 265.111793 
L 103.788121 264.686231 
L 104.108325 264.686231 
L 104.108325 264.473449 
L 104.344952 264.473449 
L 104.344952 264.260668 
L 105.112877 264.260668 
L 105.112877 264.047887 
L 106.209005 264.047887 
L 106.209005 263.835106 
L 106.974091 263.835106 
L 106.974091 263.622325 
L 107.378656 263.622325 
L 107.378656 263.409544 
L 107.577722 263.409544 
L 107.643612 262.983981 
L 107.774703 262.983981 
L 107.774703 262.7712 
L 108.915146 262.7712 
L 108.915146 262.558419 
L 109.159456 262.558419 
L 109.159456 262.345638 
L 109.460447 262.345638 
L 109.460447 262.132856 
L 110.392479 262.132856 
L 110.392479 261.920075 
L 110.562208 261.920075 
L 110.562208 261.494513 
L 110.73042 261.494513 
L 110.73042 261.281732 
L 111.007473 261.281732 
L 111.007473 261.068951 
L 112.690074 261.068951 
L 112.690074 260.856169 
L 112.840366 260.856169 
L 112.840366 260.643388 
L 112.989468 260.643388 
L 112.989468 260.430607 
L 113.186449 260.430607 
L 113.186449 260.217826 
L 113.332844 260.217826 
L 113.332844 259.792264 
L 113.52628 259.792264 
L 113.57433 259.366701 
L 114.001345 259.366701 
L 114.001345 259.15392 
L 114.556025 259.15392 
L 114.556025 258.941139 
L 115.139028 258.941139 
L 115.139028 258.728358 
L 115.445626 258.728358 
L 115.532315 258.302795 
L 115.618607 258.302795 
L 115.618607 258.090014 
L 115.747307 258.090014 
L 115.83262 257.664452 
L 116.211813 257.664452 
L 116.211813 257.451671 
L 117.579066 257.451671 
L 117.579066 257.238889 
L 118.152051 257.238889 
L 118.152051 257.026108 
L 118.450653 257.026108 
L 118.450653 256.813327 
L 118.889854 256.813327 
L 118.889854 256.600546 
L 119.141397 256.600546 
L 119.212653 256.174984 
L 119.319033 256.174984 
L 119.319033 255.962202 
L 119.564939 255.962202 
L 119.564939 255.749421 
L 119.91075 255.749421 
L 119.91075 255.53664 
L 120.0813 255.53664 
L 120.0813 255.323859 
L 120.451154 255.323859 
L 120.451154 255.111078 
L 120.682786 255.111078 
L 120.682786 254.898296 
L 120.879082 254.898296 
L 120.879082 254.472734 
L 121.361044 254.472734 
L 121.361044 254.259953 
L 121.487509 254.259953 
L 121.487509 254.047172 
L 121.768984 254.047172 
L 121.768984 253.834391 
L 122.168264 253.834391 
L 122.259215 252.983266 
L 122.618682 252.983266 
L 122.618682 252.770485 
L 123.431654 252.770485 
L 123.431654 252.344922 
L 123.601383 252.344922 
L 123.601383 252.132141 
L 123.936316 252.132141 
L 123.936316 251.91936 
L 124.373813 251.91936 
L 124.373813 251.706579 
L 125.037663 251.706579 
L 125.037663 251.493798 
L 125.167667 251.493798 
L 125.271028 250.855454 
L 125.399435 250.855454 
L 125.399435 250.642673 
L 125.628382 250.642673 
L 125.653649 250.217111 
L 125.879541 250.217111 
L 125.879541 250.004329 
L 126.44479 250.004329 
L 126.541384 249.578767 
L 126.613505 249.578767 
L 126.613505 249.153205 
L 126.946461 249.153205 
L 126.946461 248.940424 
L 127.4351 248.940424 
L 127.4351 248.727642 
L 127.753948 248.727642 
L 127.844063 248.30208 
L 127.933749 248.30208 
L 127.933749 248.089299 
L 128.067481 248.089299 
L 128.067481 247.876518 
L 128.200269 247.876518 
L 128.244324 247.450955 
L 128.375874 247.450955 
L 128.375874 247.238174 
L 128.50651 247.238174 
L 128.5931 246.812612 
L 128.829186 246.812612 
L 128.871795 246.387049 
L 128.956723 246.387049 
L 128.999044 245.748706 
L 129.104431 245.748706 
L 129.125437 245.110362 
L 129.292652 245.110362 
L 129.396412 244.6848 
L 129.7043 244.6848 
L 129.7043 244.472019 
L 129.846275 244.472019 
L 129.846275 244.259238 
L 129.96712 244.259238 
L 129.987186 243.408113 
L 130.127049 243.408113 
L 130.127049 243.195332 
L 130.28563 243.195332 
L 130.28563 242.982551 
L 130.811181 242.982551 
L 130.887807 242.556988 
L 130.926003 242.556988 
L 130.926003 242.344207 
L 131.210028 242.344207 
L 131.266322 241.918645 
L 131.359772 241.918645 
L 131.359772 241.705864 
L 131.783764 241.705864 
L 131.874686 241.280301 
L 131.947107 241.280301 
L 131.947107 241.06752 
L 132.073179 241.06752 
L 132.126951 240.429176 
L 132.551689 240.429176 
L 132.604114 240.003614 
L 132.760515 240.003614 
L 132.864066 239.578052 
L 132.881269 239.578052 
L 132.915628 239.152489 
L 133.289492 239.152489 
L 133.289492 238.939708 
L 133.70551 238.939708 
L 133.738397 238.514146 
L 133.950775 238.514146 
L 133.999446 237.875802 
L 134.096413 237.875802 
L 134.096413 237.663021 
L 134.384351 237.663021 
L 134.384351 237.45024 
L 134.652304 237.45024 
L 134.7148 237.024678 
L 134.792631 237.024678 
L 134.792631 236.811896 
L 134.947332 236.811896 
L 134.962732 236.386334 
L 135.328609 236.386334 
L 135.403945 235.535209 
L 135.449003 235.535209 
L 135.538796 235.109647 
L 135.568632 235.109647 
L 135.59842 234.684085 
L 135.74666 234.684085 
L 135.835047 234.045741 
L 136.010584 234.045741 
L 136.112229 233.194616 
L 136.126705 233.194616 
L 136.126705 232.981835 
L 136.356818 232.981835 
L 136.356818 232.769054 
L 136.612375 232.769054 
L 136.612375 232.556273 
L 136.780838 232.556273 
L 136.808769 232.130711 
L 136.97549 232.130711 
L 137.01694 231.492367 
L 137.181835 231.492367 
L 137.27736 230.854024 
L 137.318151 230.854024 
L 137.38594 230.21568 
L 137.453486 230.21568 
L 137.453486 230.002899 
L 137.681345 230.002899 
L 137.681345 229.790118 
L 137.866944 229.790118 
L 137.919637 229.151774 
L 138.10291 229.151774 
L 138.10291 228.938993 
L 138.258593 228.938993 
L 138.271509 228.513431 
L 138.553431 228.513431 
L 138.553431 228.300649 
L 138.843719 228.300649 
L 138.843719 228.087868 
L 139.005835 228.087868 
L 139.005835 227.875087 
L 139.166565 227.875087 
L 139.166565 227.662306 
L 139.604629 227.662306 
L 139.688636 226.811181 
L 139.997419 226.811181 
L 140.009194 226.385619 
L 140.405242 226.385619 
L 140.485756 225.960056 
L 140.543056 225.960056 
L 140.577352 225.321713 
L 140.725251 225.321713 
L 140.815692 224.470588 
L 140.894472 224.470588 
L 140.894472 224.257807 
L 141.006446 224.257807 
L 141.039908 223.619464 
L 141.349389 223.619464 
L 141.404121 223.193901 
L 141.921606 223.193901 
L 141.942862 222.555558 
L 142.300587 222.555558 
L 142.300587 222.342776 
L 142.507879 222.342776 
L 142.528483 221.917214 
L 142.784148 221.917214 
L 142.834867 221.491652 
L 142.915733 221.491652 
L 142.915733 221.278871 
L 143.066428 221.278871 
L 143.066428 221.066089 
L 143.225848 221.066089 
L 143.225848 220.853308 
L 143.5114 220.853308 
L 143.5114 220.640527 
L 143.705836 220.640527 
L 143.754133 220.002184 
L 143.840756 220.002184 
L 143.840756 219.789402 
L 143.984246 219.789402 
L 144.012814 219.151059 
L 144.098256 219.151059 
L 144.098256 218.938278 
L 144.2304 218.938278 
L 144.296125 218.299934 
L 144.464087 218.299934 
L 144.547509 217.661591 
L 144.612137 217.661591 
L 144.612137 217.448809 
L 144.731576 217.448809 
L 144.731576 217.236028 
L 144.91386 217.236028 
L 144.995315 216.810466 
L 145.166126 216.810466 
L 145.166126 216.597685 
L 145.547065 216.597685 
L 145.547065 216.384904 
L 145.98053 216.384904 
L 145.98053 216.172122 
L 146.761135 216.172122 
L 146.761135 215.959341 
L 146.957431 215.959341 
L 146.957431 215.74656 
L 147.565858 215.74656 
L 147.565858 215.533779 
L 147.94795 215.533779 
L 147.94795 215.320998 
L 148.185734 215.320998 
L 148.276979 214.895435 
L 148.4356 214.895435 
L 148.533127 214.469873 
L 148.600352 214.469873 
L 148.689612 214.044311 
L 148.837444 214.044311 
L 148.837444 213.831529 
L 149.587985 213.831529 
L 149.686771 213.193186 
L 149.931489 213.193186 
L 150.007747 212.554842 
L 150.268832 212.554842 
L 150.268832 212.12928 
L 150.99167 212.12928 
L 150.99167 211.916499 
L 151.155108 211.916499 
L 151.155108 211.703718 
L 151.516136 211.703718 
L 151.516136 211.490936 
L 152.781618 211.490936 
L 152.805483 211.065374 
L 153.107137 211.065374 
L 153.107137 210.852593 
L 153.989717 210.852593 
L 154.051201 210.427031 
L 154.156931 210.427031 
L 154.156931 210.214249 
L 156.584746 210.214249 
L 156.584746 210.001468 
L 157.558917 210.001468 
L 157.558917 209.788687 
L 158.370139 209.788687 
L 158.370139 209.575906 
L 158.559911 209.575906 
L 158.559911 209.363125 
L 158.699905 209.363125 
L 158.699905 209.150344 
L 158.869125 209.150344 
L 158.869125 208.937562 
L 159.464343 208.937562 
L 159.564516 208.512 
L 160.45873 208.512 
L 160.45873 208.299219 
L 163.001897 208.299219 
L 163.001897 208.086438 
L 164.30785 208.086438 
L 164.30785 207.873656 
L 165.999046 207.873656 
L 165.999046 207.660875 
L 166.532515 207.660875 
L 166.532515 207.448094 
L 166.812098 207.448094 
L 166.812098 207.235313 
L 167.154441 207.235313 
L 167.154441 207.022532 
L 171.262365 207.022532 
L 171.262365 206.809751 
L 181.28476 206.809751 
L 181.28476 206.596969 
L 181.629267 206.596969 
L 181.629267 206.384188 
L 182.145137 206.384188 
L 182.145137 206.171407 
L 182.400335 206.171407 
L 182.460825 205.745845 
L 182.613036 205.745845 
L 182.613036 205.533064 
L 182.743398 205.533064 
L 182.743398 205.320282 
L 183.080316 205.320282 
L 183.080316 205.107501 
L 183.498983 205.107501 
L 183.498983 204.89472 
L 183.79292 204.89472 
L 183.79292 204.681939 
L 184.522639 204.681939 
L 184.576684 204.256376 
L 184.664589 204.256376 
L 184.747719 203.830814 
L 184.970138 203.830814 
L 184.970138 203.618033 
L 185.32592 203.618033 
L 185.32592 203.405252 
L 186.102395 203.405252 
L 186.102395 203.192471 
L 186.743352 203.192471 
L 186.817803 202.766908 
L 187.379326 202.766908 
L 187.379326 202.554127 
L 188.035783 202.554127 
L 188.035783 202.341346 
L 188.995969 202.341346 
L 188.995969 202.128565 
L 189.251112 202.128565 
L 189.251112 201.915784 
L 189.508774 201.915784 
L 189.508774 201.703002 
L 190.341664 201.703002 
L 190.341664 201.490221 
L 190.470926 201.490221 
L 190.470926 201.27744 
L 191.205167 201.27744 
L 191.205167 201.064659 
L 191.335571 201.064659 
L 191.335571 200.851878 
L 191.686002 200.851878 
L 191.710139 200.213534 
L 192.809567 200.213534 
L 192.809567 200.000753 
L 192.971685 200.000753 
L 192.971685 199.787972 
L 195.462988 199.787972 
L 195.462988 199.575191 
L 195.73151 199.575191 
L 195.73151 199.362409 
L 195.882471 199.362409 
L 195.882471 199.149628 
L 196.028037 199.149628 
L 196.132008 198.511285 
L 196.150471 198.511285 
L 196.25377 198.085722 
L 196.291623 198.085722 
L 196.291623 197.872941 
L 196.623107 197.872941 
L 196.623107 197.66016 
L 197.064321 197.66016 
L 197.064321 197.447379 
L 197.345184 197.447379 
L 197.345184 197.234598 
L 198.321651 197.234598 
L 198.321651 197.021816 
L 198.50586 197.021816 
L 198.523185 196.596254 
L 199.510145 196.596254 
L 199.510145 196.383473 
L 201.04561 196.383473 
L 201.04561 196.170692 
L 201.922476 196.170692 
L 201.922476 195.957911 
L 202.429368 195.957911 
L 202.429368 195.745129 
L 205.002012 195.745129 
L 205.002012 195.532348 
L 205.226024 195.532348 
L 205.226024 195.319567 
L 205.365509 195.319567 
L 205.365509 195.106786 
L 206.017907 195.106786 
L 206.017907 194.894005 
L 207.843033 194.894005 
L 207.843033 194.681224 
L 213.20884 194.681224 
L 213.311208 193.191755 
L 213.408265 193.191755 
L 213.432274 192.766193 
L 214.307636 192.766193 
L 214.307636 192.553412 
L 214.499394 192.553412 
L 214.562807 192.127849 
L 215.06147 192.127849 
L 215.06147 191.915068 
L 216.286388 191.915068 
L 216.286388 191.702287 
L 217.507881 191.702287 
L 217.565749 191.276725 
L 218.048251 191.276725 
L 218.048251 191.063944 
L 219.649242 191.063944 
L 219.731339 189.787256 
L 219.806141 189.787256 
L 219.814434 189.361694 
L 222.794257 189.361694 
L 222.827156 188.936132 
L 224.736176 188.936132 
L 224.798854 188.085007 
L 224.880205 188.085007 
L 224.880205 187.872226 
L 225.031092 187.872226 
L 225.137604 187.233882 
L 225.251375 187.233882 
L 225.276199 186.80832 
L 229.588349 186.80832 
L 229.588349 186.595539 
L 231.008454 186.595539 
L 231.066597 185.957195 
L 231.128827 185.957195 
L 231.128827 185.744414 
L 231.273572 185.744414 
L 231.273572 185.531633 
L 233.060088 185.531633 
L 233.060088 185.318852 
L 233.56585 185.318852 
L 233.56585 185.106071 
L 233.685945 185.106071 
L 233.685945 184.893289 
L 234.202086 184.893289 
L 234.202086 184.680508 
L 234.909275 184.680508 
L 234.909275 184.467727 
L 235.34982 184.467727 
L 235.34982 184.254946 
L 238.769171 184.254946 
L 238.769171 184.042165 
L 239.2944 184.042165 
L 239.312593 183.616602 
L 241.086098 183.616602 
L 241.086098 183.403821 
L 241.255465 183.403821 
L 241.255465 183.19104 
L 242.226454 183.19104 
L 242.308266 182.765478 
L 242.354018 182.765478 
L 242.354018 182.552696 
L 242.687309 182.552696 
L 242.687309 182.339915 
L 244.301564 182.339915 
L 244.301564 182.127134 
L 244.587561 182.127134 
L 244.587561 181.914353 
L 244.913756 181.914353 
L 244.913756 181.701572 
L 245.165705 181.701572 
L 245.227248 181.276009 
L 245.3503 181.276009 
L 245.3503 181.063228 
L 246.252606 181.063228 
L 246.252606 180.850447 
L 246.438971 180.850447 
L 246.438971 180.637666 
L 247.055995 180.637666 
L 247.055995 180.424885 
L 249.874501 180.424885 
L 249.874501 180.212104 
L 251.132764 180.212104 
L 251.132764 179.999322 
L 251.442465 179.999322 
L 251.442465 179.786541 
L 251.722684 179.786541 
L 251.722684 179.57376 
L 252.449073 179.57376 
L 252.521031 179.148198 
L 253.098019 179.148198 
L 253.098019 178.935416 
L 253.326177 178.935416 
L 253.326177 178.722635 
L 253.528416 178.722635 
L 253.528416 178.509854 
L 253.910471 178.509854 
L 253.926098 178.084292 
L 255.592683 178.084292 
L 255.592683 177.871511 
L 255.809891 177.871511 
L 255.82579 177.445948 
L 256.624471 177.445948 
L 256.624471 177.233167 
L 257.284052 177.233167 
L 257.284052 177.020386 
L 257.551637 177.020386 
L 257.551637 176.807605 
L 258.362548 176.807605 
L 258.382159 176.382042 
L 258.745309 176.382042 
L 258.745309 176.169261 
L 260.799711 176.169261 
L 260.799711 175.95648 
L 261.348316 175.95648 
L 261.348316 175.743699 
L 262.484055 175.743699 
L 262.484055 175.530918 
L 263.613977 175.530918 
L 263.613977 175.318136 
L 264.860874 175.318136 
L 264.860874 175.105355 
L 267.645069 175.105355 
L 267.645069 174.892574 
L 268.688806 174.892574 
L 268.734646 174.467012 
L 269.715843 174.467012 
L 269.715843 174.254231 
L 270.932051 174.254231 
L 270.932051 174.041449 
L 272.017079 174.041449 
L 272.017079 173.828668 
L 272.242101 173.828668 
L 272.242101 173.615887 
L 273.14931 173.615887 
L 273.14931 173.403106 
L 273.351673 173.403106 
L 273.426916 172.977544 
L 273.473263 172.977544 
L 273.473263 172.764762 
L 274.00349 172.764762 
L 274.00349 172.551981 
L 274.230662 172.551981 
L 274.230662 172.3392 
L 276.373949 172.3392 
L 276.373949 172.126419 
L 279.324031 172.126419 
L 279.324031 171.913638 
L 280.256974 171.913638 
L 280.256974 171.700856 
L 280.983995 171.700856 
L 280.983995 171.488075 
L 296.77328 171.488075 
L 296.77328 171.275294 
L 360.8064 171.275294 
L 360.8064 171.275294 
" style="fill: none; stroke: #ff00ff; stroke-width: 1.5; stroke-linecap: square"/>
   </g>
   <g id="line2d_41">
    <defs>
     <path id="mcb657a4ba5" d="M -0 8.485281 
L 5.091169 0 
L 0 -8.485281 
L -5.091169 -0 
z
" style="stroke: #ff00ff; stroke-width: 1.5; stroke-linejoin: miter"/>
    </defs>
    <g>
     <use xlink:href="#mcb657a4ba5" x="74.068926" y="273.835821" style="fill-opacity: 0; stroke: #ff00ff; stroke-width: 1.5; stroke-linejoin: miter"/>
     <use xlink:href="#mcb657a4ba5" x="138.10291" y="228.938993" style="fill-opacity: 0; stroke: #ff00ff; stroke-width: 1.5; stroke-linejoin: miter"/>
     <use xlink:href="#mcb657a4ba5" x="233.56585" y="185.106071" style="fill-opacity: 0; stroke: #ff00ff; stroke-width: 1.5; stroke-linejoin: miter"/>
     <use xlink:href="#mcb657a4ba5" x="296.77328" y="171.488075" style="fill-opacity: 0; stroke: #ff00ff; stroke-width: 1.5; stroke-linejoin: miter"/>
     <use xlink:href="#mcb657a4ba5" x="296.77328" y="171.275294" style="fill-opacity: 0; stroke: #ff00ff; stroke-width: 1.5; stroke-linejoin: miter"/>
     <use xlink:href="#mcb657a4ba5" x="360.8064" y="171.275294" style="fill-opacity: 0; stroke: #ff00ff; stroke-width: 1.5; stroke-linejoin: miter"/>
    </g>
   </g>
   <g id="line2d_42">
    <path style="fill: none; stroke: #ff00ff; stroke-width: 1.5; stroke-linecap: square"/>
    <g/>
   </g>
   <g id="line2d_43">
    <path d="M 144.27737 218.512715 
" clip-path="url(#p59a810ec15)" style="fill: none; stroke: #ff00ff; stroke-width: 1.5; stroke-linecap: square"/>
    <defs>
     <path id="m4afe8d59d5" d="M -12 12 
L 12 -12 
M -12 -12 
L 12 12 
" style="stroke: #ff00ff"/>
    </defs>
    <g clip-path="url(#p59a810ec15)">
     <use xlink:href="#m4afe8d59d5" x="144.27737" y="218.512715" style="fill: #ff00ff; stroke: #ff00ff"/>
    </g>
   </g>
   <g id="line2d_44">
    <path d="M 360.8064 181.914353 
L 380.514816 293.51808 
" style="fill: none; stroke: #000080; stroke-width: 1.5; stroke-linecap: square"/>
    <g>
     <use xlink:href="#m3f112f18a1" x="360.8064" y="181.914353" style="fill-opacity: 0; stroke: #000080; stroke-width: 1.5"/>
     <use xlink:href="#m3f112f18a1" x="380.514816" y="293.51808" style="fill-opacity: 0; stroke: #000080; stroke-width: 1.5"/>
    </g>
   </g>
   <g id="line2d_45">
    <path d="M 360.8064 171.275294 
L 380.514816 163.296 
" style="fill: none; stroke: #ff00ff; stroke-width: 1.5; stroke-linecap: square"/>
    <g>
     <use xlink:href="#mcb657a4ba5" x="360.8064" y="171.275294" style="fill-opacity: 0; stroke: #ff00ff; stroke-width: 1.5; stroke-linejoin: miter"/>
     <use xlink:href="#mcb657a4ba5" x="380.514816" y="163.296" style="fill-opacity: 0; stroke: #ff00ff; stroke-width: 1.5; stroke-linejoin: miter"/>
    </g>
   </g>
   <g id="line2d_46">
    <path d="M 360.8064 298.944 
L 360.8064 27.648 
" style="fill: none; stroke: #000000; stroke-width: 1.5; stroke-linecap: square"/>
   </g>
   <g id="patch_3">
    <path d="M 57.6 298.944 
L 360.8064 298.944 
" style="fill: none; stroke: #000000; stroke-width: 0.8; stroke-linejoin: miter; stroke-linecap: square"/>
   </g>
   <g id="patch_4">
    <path d="M 57.6 27.648 
L 360.8064 27.648 
" style="fill: none; stroke: #000000; stroke-width: 0.8; stroke-linejoin: miter; stroke-linecap: square"/>
   </g>
   <g id="text_13">
    <!-- ex -->
    <g transform="translate(386.578944 297.381205)scale(0.14 -0.14)">
     <defs>
      <path id="DejaVuSans-78" d="M 3513 3500 
L 2247 1797 
L 3578 0 
L 2900 0 
L 1881 1375 
L 863 0 
L 184 0 
L 1544 1831 
L 300 3500 
L 978 3500 
L 1906 2253 
L 2834 3500 
L 3513 3500 
z
" transform="scale(0.015625)"/>
     </defs>
     <use xlink:href="#DejaVuSans-65"/>
     <use xlink:href="#DejaVuSans-78" x="59.773438"/>
    </g>
   </g>
   <g id="text_14">
    <!-- ex -->
    <g transform="translate(386.578944 167.159125)scale(0.14 -0.14)">
     <use xlink:href="#DejaVuSans-65"/>
     <use xlink:href="#DejaVuSans-78" x="59.773438"/>
    </g>
   </g>
   <g id="text_15">
    <!-- best 2009 -->
    <g transform="translate(386.578944 36.937045)scale(0.14 -0.14)">
     <defs>
      <path id="DejaVuSans-62" d="M 3116 1747 
Q 3116 2381 2855 2742 
Q 2594 3103 2138 3103 
Q 1681 3103 1420 2742 
Q 1159 2381 1159 1747 
Q 1159 1113 1420 752 
Q 1681 391 2138 391 
Q 2594 391 2855 752 
Q 3116 1113 3116 1747 
z
M 1159 2969 
Q 1341 3281 1617 3432 
Q 1894 3584 2278 3584 
Q 2916 3584 3314 3078 
Q 3713 2572 3713 1747 
Q 3713 922 3314 415 
Q 2916 -91 2278 -91 
Q 1894 -91 1617 61 
Q 1341 213 1159 525 
L 1159 0 
L 581 0 
L 581 4863 
L 1159 4863 
L 1159 2969 
z
" transform="scale(0.015625)"/>
      <path id="DejaVuSans-39" d="M 703 97 
L 703 672 
Q 941 559 1184 500 
Q 1428 441 1663 441 
Q 2288 441 2617 861 
Q 2947 1281 2994 2138 
Q 2813 1869 2534 1725 
Q 2256 1581 1919 1581 
Q 1219 1581 811 2004 
Q 403 2428 403 3163 
Q 403 3881 828 4315 
Q 1253 4750 1959 4750 
Q 2769 4750 3195 4129 
Q 3622 3509 3622 2328 
Q 3622 1225 3098 567 
Q 2575 -91 1691 -91 
Q 1453 -91 1209 -44 
Q 966 3 703 97 
z
M 1959 2075 
Q 2384 2075 2632 2365 
Q 2881 2656 2881 3163 
Q 2881 3666 2632 3958 
Q 2384 4250 1959 4250 
Q 1534 4250 1286 3958 
Q 1038 3666 1038 3163 
Q 1038 2656 1286 2365 
Q 1534 2075 1959 2075 
z
" transform="scale(0.015625)"/>
     </defs>
     <use xlink:href="#DejaVuSans-62"/>
     <use xlink:href="#DejaVuSans-65" x="63.476562"/>
     <use xlink:href="#DejaVuSans-73" x="125"/>
     <use xlink:href="#DejaVuSans-74" x="177.099609"/>
     <use xlink:href="#DejaVuSans-20" x="216.308594"/>
     <use xlink:href="#DejaVuSans-32" x="248.095703"/>
     <use xlink:href="#DejaVuSans-30" x="311.71875"/>
     <use xlink:href="#DejaVuSans-30" x="375.341797"/>
     <use xlink:href="#DejaVuSans-39" x="438.964844"/>
    </g>
   </g>
   <g id="text_16">
    <!-- bbob f17, 20-D -->
    <g transform="translate(60.632064 38.111366)scale(0.102 -0.102)">
     <defs>
      <path id="DejaVuSans-37" d="M 525 4666 
L 3525 4666 
L 3525 4397 
L 1831 0 
L 1172 0 
L 2766 4134 
L 525 4134 
L 525 4666 
z
" transform="scale(0.015625)"/>
      <path id="DejaVuSans-44" d="M 1259 4147 
L 1259 519 
L 2022 519 
Q 2988 519 3436 956 
Q 3884 1394 3884 2338 
Q 3884 3275 3436 3711 
Q 2988 4147 2022 4147 
L 1259 4147 
z
M 628 4666 
L 1925 4666 
Q 3281 4666 3915 4102 
Q 4550 3538 4550 2338 
Q 4550 1131 3912 565 
Q 3275 0 1925 0 
L 628 0 
L 628 4666 
z
" transform="scale(0.015625)"/>
     </defs>
     <use xlink:href="#DejaVuSans-62"/>
     <use xlink:href="#DejaVuSans-62" x="63.476562"/>
     <use xlink:href="#DejaVuSans-6f" x="126.953125"/>
     <use xlink:href="#DejaVuSans-62" x="188.134766"/>
     <use xlink:href="#DejaVuSans-20" x="251.611328"/>
     <use xlink:href="#DejaVuSans-66" x="283.398438"/>
     <use xlink:href="#DejaVuSans-31" x="318.603516"/>
     <use xlink:href="#DejaVuSans-37" x="382.226562"/>
     <use xlink:href="#DejaVuSans-2c" x="445.849609"/>
     <use xlink:href="#DejaVuSans-20" x="477.636719"/>
     <use xlink:href="#DejaVuSans-32" x="509.423828"/>
     <use xlink:href="#DejaVuSans-30" x="573.046875"/>
     <use xlink:href="#DejaVuSans-2d" x="636.669922"/>
     <use xlink:href="#DejaVuSans-44" x="672.753906"/>
    </g>
    <!-- 51 targets: 100..1e-08 -->
    <g transform="translate(60.632064 49.533135)scale(0.102 -0.102)">
     <defs>
      <path id="DejaVuSans-35" d="M 691 4666 
L 3169 4666 
L 3169 4134 
L 1269 4134 
L 1269 2991 
Q 1406 3038 1543 3061 
Q 1681 3084 1819 3084 
Q 2600 3084 3056 2656 
Q 3513 2228 3513 1497 
Q 3513 744 3044 326 
Q 2575 -91 1722 -91 
Q 1428 -91 1123 -41 
Q 819 9 494 109 
L 494 744 
Q 775 591 1075 516 
Q 1375 441 1709 441 
Q 2250 441 2565 725 
Q 2881 1009 2881 1497 
Q 2881 1984 2565 2268 
Q 2250 2553 1709 2553 
Q 1456 2553 1204 2497 
Q 953 2441 691 2322 
L 691 4666 
z
" transform="scale(0.015625)"/>
      <path id="DejaVuSans-3a" d="M 750 794 
L 1409 794 
L 1409 0 
L 750 0 
L 750 794 
z
M 750 3309 
L 1409 3309 
L 1409 2516 
L 750 2516 
L 750 3309 
z
" transform="scale(0.015625)"/>
     </defs>
     <use xlink:href="#DejaVuSans-35"/>
     <use xlink:href="#DejaVuSans-31" x="63.623047"/>
     <use xlink:href="#DejaVuSans-20" x="127.246094"/>
     <use xlink:href="#DejaVuSans-74" x="159.033203"/>
     <use xlink:href="#DejaVuSans-61" x="198.242188"/>
     <use xlink:href="#DejaVuSans-72" x="259.521484"/>
     <use xlink:href="#DejaVuSans-67" x="298.884766"/>
     <use xlink:href="#DejaVuSans-65" x="362.361328"/>
     <use xlink:href="#DejaVuSans-74" x="423.884766"/>
     <use xlink:href="#DejaVuSans-73" x="463.09375"/>
     <use xlink:href="#DejaVuSans-3a" x="515.193359"/>
     <use xlink:href="#DejaVuSans-20" x="548.884766"/>
     <use xlink:href="#DejaVuSans-31" x="580.671875"/>
     <use xlink:href="#DejaVuSans-30" x="644.294922"/>
     <use xlink:href="#DejaVuSans-30" x="707.917969"/>
     <use xlink:href="#DejaVuSans-2e" x="771.541016"/>
     <use xlink:href="#DejaVuSans-2e" x="803.328125"/>
     <use xlink:href="#DejaVuSans-31" x="835.115234"/>
     <use xlink:href="#DejaVuSans-65" x="898.738281"/>
     <use xlink:href="#DejaVuSans-2d" x="960.261719"/>
     <use xlink:href="#DejaVuSans-30" x="996.345703"/>
     <use xlink:href="#DejaVuSans-38" x="1059.96875"/>
    </g>
    <!-- 25 instances -->
    <g transform="translate(60.632064 60.954904)scale(0.102 -0.102)">
     <use xlink:href="#DejaVuSans-32"/>
     <use xlink:href="#DejaVuSans-35" x="63.623047"/>
     <use xlink:href="#DejaVuSans-20" x="127.246094"/>
     <use xlink:href="#DejaVuSans-69" x="159.033203"/>
     <use xlink:href="#DejaVuSans-6e" x="186.816406"/>
     <use xlink:href="#DejaVuSans-73" x="250.195312"/>
     <use xlink:href="#DejaVuSans-74" x="302.294922"/>
     <use xlink:href="#DejaVuSans-61" x="341.503906"/>
     <use xlink:href="#DejaVuSans-6e" x="402.783203"/>
     <use xlink:href="#DejaVuSans-63" x="466.162109"/>
     <use xlink:href="#DejaVuSans-65" x="521.142578"/>
     <use xlink:href="#DejaVuSans-73" x="582.666016"/>
    </g>
   </g>
   <g id="text_17">
    <!-- v2.6 -->
    <g style="fill: #808080" transform="translate(198.292262 294.151352)scale(0.1 -0.1)">
     <use xlink:href="#DejaVuSans-76"/>
     <use xlink:href="#DejaVuSans-32" x="59.179688"/>
     <use xlink:href="#DejaVuSans-2e" x="122.802734"/>
     <use xlink:href="#DejaVuSans-36" x="154.589844"/>
    </g>
   </g>
   <g id="text_18">
    <!-- 17 Schaffer F7, condition 10 -->
    <g transform="translate(67.895387 21.648)scale(0.2 -0.2)">
     <defs>
      <path id="DejaVuSans-53" d="M 3425 4513 
L 3425 3897 
Q 3066 4069 2747 4153 
Q 2428 4238 2131 4238 
Q 1616 4238 1336 4038 
Q 1056 3838 1056 3469 
Q 1056 3159 1242 3001 
Q 1428 2844 1947 2747 
L 2328 2669 
Q 3034 2534 3370 2195 
Q 3706 1856 3706 1288 
Q 3706 609 3251 259 
Q 2797 -91 1919 -91 
Q 1588 -91 1214 -16 
Q 841 59 441 206 
L 441 856 
Q 825 641 1194 531 
Q 1563 422 1919 422 
Q 2459 422 2753 634 
Q 3047 847 3047 1241 
Q 3047 1584 2836 1778 
Q 2625 1972 2144 2069 
L 1759 2144 
Q 1053 2284 737 2584 
Q 422 2884 422 3419 
Q 422 4038 858 4394 
Q 1294 4750 2059 4750 
Q 2388 4750 2728 4690 
Q 3069 4631 3425 4513 
z
" transform="scale(0.015625)"/>
      <path id="DejaVuSans-68" d="M 3513 2113 
L 3513 0 
L 2938 0 
L 2938 2094 
Q 2938 2591 2744 2837 
Q 2550 3084 2163 3084 
Q 1697 3084 1428 2787 
Q 1159 2491 1159 1978 
L 1159 0 
L 581 0 
L 581 4863 
L 1159 4863 
L 1159 2956 
Q 1366 3272 1645 3428 
Q 1925 3584 2291 3584 
Q 2894 3584 3203 3211 
Q 3513 2838 3513 2113 
z
" transform="scale(0.015625)"/>
     </defs>
     <use xlink:href="#DejaVuSans-31"/>
     <use xlink:href="#DejaVuSans-37" x="63.623047"/>
     <use xlink:href="#DejaVuSans-20" x="127.246094"/>
     <use xlink:href="#DejaVuSans-53" x="159.033203"/>
     <use xlink:href="#DejaVuSans-63" x="222.509766"/>
     <use xlink:href="#DejaVuSans-68" x="277.490234"/>
     <use xlink:href="#DejaVuSans-61" x="340.869141"/>
     <use xlink:href="#DejaVuSans-66" x="402.148438"/>
     <use xlink:href="#DejaVuSans-66" x="437.353516"/>
     <use xlink:href="#DejaVuSans-65" x="472.558594"/>
     <use xlink:href="#DejaVuSans-72" x="534.082031"/>
     <use xlink:href="#DejaVuSans-20" x="575.195312"/>
     <use xlink:href="#DejaVuSans-46" x="606.982422"/>
     <use xlink:href="#DejaVuSans-37" x="664.501953"/>
     <use xlink:href="#DejaVuSans-2c" x="728.125"/>
     <use xlink:href="#DejaVuSans-20" x="759.912109"/>
     <use xlink:href="#DejaVuSans-63" x="791.699219"/>
     <use xlink:href="#DejaVuSans-6f" x="846.679688"/>
     <use xlink:href="#DejaVuSans-6e" x="907.861328"/>
     <use xlink:href="#DejaVuSans-64" x="971.240234"/>
     <use xlink:href="#DejaVuSans-69" x="1034.716797"/>
     <use xlink:href="#DejaVuSans-74" x="1062.5"/>
     <use xlink:href="#DejaVuSans-69" x="1101.708984"/>
     <use xlink:href="#DejaVuSans-6f" x="1129.492188"/>
     <use xlink:href="#DejaVuSans-6e" x="1190.673828"/>
     <use xlink:href="#DejaVuSans-20" x="1254.052734"/>
     <use xlink:href="#DejaVuSans-31" x="1285.839844"/>
     <use xlink:href="#DejaVuSans-30" x="1349.462891"/>
    </g>
   </g>
  </g>
 </g>
 <defs>
  <clipPath id="p59a810ec15">
   <rect x="57.6" y="27.648" width="303.2064" height="271.296"/>
  </clipPath>
 </defs>
</svg>
