<?xml version="1.0" encoding="utf-8" standalone="no"?>
<!DOCTYPE svg PUBLIC "-//W3C//DTD SVG 1.1//EN"
  "http://www.w3.org/Graphics/SVG/1.1/DTD/svg11.dtd">
<svg xmlns:xlink="http://www.w3.org/1999/xlink" width="460.8pt" height="345.6pt" viewBox="0 0 460.8 345.6" xmlns="http://www.w3.org/2000/svg" version="1.1">
 <metadata>
  <rdf:RDF xmlns:dc="http://purl.org/dc/elements/1.1/" xmlns:cc="http://creativecommons.org/ns#" xmlns:rdf="http://www.w3.org/1999/02/22-rdf-syntax-ns#">
   <cc:Work>
    <dc:type rdf:resource="http://purl.org/dc/dcmitype/StillImage"/>
    <dc:date>2022-03-16T23:41:17.106015</dc:date>
    <dc:format>image/svg+xml</dc:format>
    <dc:creator>
     <cc:Agent>
      <dc:title>Matplotlib v3.5.1, https://matplotlib.org/</dc:title>
     </cc:Agent>
    </dc:creator>
   </cc:Work>
  </rdf:RDF>
 </metadata>
 <defs>
  <style type="text/css">*{stroke-linejoin: round; stroke-linecap: butt}</style>
 </defs>
 <g id="figure_1">
  <g id="patch_1">
   <path d="M 0 345.6 
L 460.8 345.6 
L 460.8 0 
L 0 0 
z
" style="fill: #ffffff"/>
  </g>
  <g id="axes_1">
   <g id="patch_2">
    <path d="M 57.6 298.944 
L 360.8064 298.944 
L 360.8064 27.648 
L 57.6 27.648 
z
" style="fill: #ffffff"/>
   </g>
   <g id="line2d_1">
    <path d="M 1.245626 298.944 
L 1.245626 272.346353 
L 21.912228 272.346353 
L 21.912228 267.026824 
L 64.589687 267.026824 
L 64.589687 261.707294 
L 90.989609 261.707294 
L 90.989609 256.387765 
L 108.915146 256.387765 
L 108.915146 251.068235 
L 119.389621 251.068235 
L 119.389621 245.748706 
L 140.196609 245.748706 
L 140.196609 240.429176 
L 157.410135 240.429176 
L 157.410135 235.109647 
L 185.235743 235.109647 
L 185.235743 229.790118 
L 203.475045 229.790118 
L 203.475045 224.470588 
L 207.219884 224.470588 
L 207.219884 219.151059 
L 210.415897 219.151059 
L 210.415897 213.831529 
L 217.065846 213.831529 
L 217.065846 208.512 
L 227.370151 208.512 
L 227.370151 203.192471 
L 235.170111 203.192471 
L 235.170111 197.872941 
L 237.583949 197.872941 
L 237.583949 192.553412 
L 242.20408 192.553412 
L 242.20408 187.233882 
L 245.620428 187.233882 
L 245.620428 181.914353 
L 246.507713 181.914353 
L 246.507713 176.594824 
L 246.63392 176.594824 
L 246.63392 171.275294 
L 247.533469 171.275294 
L 247.533469 165.955765 
L 247.673097 165.955765 
L 247.673097 160.636235 
L 247.847228 160.636235 
L 247.847228 155.316706 
L 248.021687 155.316706 
L 248.021687 149.997176 
L 248.165326 149.997176 
L 248.165326 144.677647 
L 248.361264 144.677647 
L 248.361264 139.358118 
L 248.470649 139.358118 
L 248.470649 134.038588 
L 248.603186 134.038588 
L 248.603186 128.719059 
L 248.730322 128.719059 
L 248.730322 123.399529 
L 257.056729 123.399529 
L 257.056729 118.08 
L 257.137153 118.08 
L 257.137153 112.760471 
L 257.196417 112.760471 
L 257.196417 107.440941 
L 257.259124 107.440941 
L 257.259124 102.121412 
L 257.318351 102.121412 
L 257.318351 96.801882 
L 257.379873 96.801882 
L 257.379873 91.482353 
L 257.443118 91.482353 
L 257.443118 86.162824 
L 257.510577 86.162824 
L 257.510577 80.843294 
L 257.571133 80.843294 
L 257.571133 75.523765 
L 257.634328 75.523765 
L 257.634328 70.204235 
L 257.688615 70.204235 
L 257.688615 64.884706 
L 257.751214 64.884706 
L 257.751214 59.565176 
L 257.810104 59.565176 
L 257.810104 54.245647 
L 257.865588 54.245647 
L 257.865588 48.926118 
L 257.920863 48.926118 
L 257.920863 43.606588 
L 257.975443 43.606588 
L 257.975443 38.287059 
L 258.023805 38.287059 
L 258.023805 32.967529 
L 258.094967 32.967529 
L 258.094967 27.648 
L 360.8064 27.648 
" style="fill: none; stroke: #f5deb3; stroke-width: 4; stroke-linecap: square"/>
   </g>
   <g id="line2d_2">
    <defs>
     <path id="m82c00ef7d7" d="M -0 7.778175 
L 7.778175 0 
L 0 -7.778175 
L -7.778175 -0 
z
" style="stroke: #f5deb3; stroke-width: 1.5; stroke-linejoin: miter"/>
    </defs>
    <g>
     <use xlink:href="#m82c00ef7d7" x="119.389621" y="251.068235" style="fill: #f5deb3; stroke: #f5deb3; stroke-width: 1.5; stroke-linejoin: miter"/>
     <use xlink:href="#m82c00ef7d7" x="227.370151" y="208.512" style="fill: #f5deb3; stroke: #f5deb3; stroke-width: 1.5; stroke-linejoin: miter"/>
     <use xlink:href="#m82c00ef7d7" x="257.379873" y="96.801882" style="fill: #f5deb3; stroke: #f5deb3; stroke-width: 1.5; stroke-linejoin: miter"/>
     <use xlink:href="#m82c00ef7d7" x="258.094967" y="27.648" style="fill: #f5deb3; stroke: #f5deb3; stroke-width: 1.5; stroke-linejoin: miter"/>
     <use xlink:href="#m82c00ef7d7" x="258.094967" y="27.648" style="fill: #f5deb3; stroke: #f5deb3; stroke-width: 1.5; stroke-linejoin: miter"/>
     <use xlink:href="#m82c00ef7d7" x="360.8064" y="27.648" style="fill: #f5deb3; stroke: #f5deb3; stroke-width: 1.5; stroke-linejoin: miter"/>
    </g>
   </g>
   <g id="line2d_3">
    <path style="fill: none; stroke: #f5deb3; stroke-width: 4; stroke-linecap: square"/>
    <g/>
   </g>
   <g id="line2d_4">
    <path d="M 360.8064 27.648 
L 380.514816 33.07392 
" style="fill: none; stroke: #f5deb3; stroke-width: 4; stroke-linecap: square"/>
    <g>
     <use xlink:href="#m82c00ef7d7" x="360.8064" y="27.648" style="fill: #f5deb3; stroke: #f5deb3; stroke-width: 1.5; stroke-linejoin: miter"/>
     <use xlink:href="#m82c00ef7d7" x="380.514816" y="33.07392" style="fill: #f5deb3; stroke: #f5deb3; stroke-width: 1.5; stroke-linejoin: miter"/>
    </g>
   </g>
   <g id="matplotlib.axis_1">
    <g id="xtick_1">
     <g id="line2d_5">
      <path d="M 57.6 298.944 
L 57.6 27.648 
" clip-path="url(#p65b3efd463)" style="fill: none; stroke: #b0b0b0; stroke-width: 0.8; stroke-linecap: square"/>
     </g>
     <g id="line2d_6">
      <defs>
       <path id="mef465fc2ea" d="M 0 0 
L 0 3.5 
" style="stroke: #000000; stroke-width: 0.8"/>
      </defs>
      <g>
       <use xlink:href="#mef465fc2ea" x="57.6" y="298.944" style="stroke: #000000; stroke-width: 0.8"/>
      </g>
     </g>
     <g id="text_1">
      <!-- 0 -->
      <g transform="translate(52.191875 318.861344)scale(0.17 -0.17)">
       <defs>
        <path id="DejaVuSans-30" d="M 2034 4250 
Q 1547 4250 1301 3770 
Q 1056 3291 1056 2328 
Q 1056 1369 1301 889 
Q 1547 409 2034 409 
Q 2525 409 2770 889 
Q 3016 1369 3016 2328 
Q 3016 3291 2770 3770 
Q 2525 4250 2034 4250 
z
M 2034 4750 
Q 2819 4750 3233 4129 
Q 3647 3509 3647 2328 
Q 3647 1150 3233 529 
Q 2819 -91 2034 -91 
Q 1250 -91 836 529 
Q 422 1150 422 2328 
Q 422 3509 836 4129 
Q 1250 4750 2034 4750 
z
" transform="scale(0.015625)"/>
       </defs>
       <use xlink:href="#DejaVuSans-30"/>
      </g>
     </g>
    </g>
    <g id="xtick_2">
     <g id="line2d_7">
      <path d="M 144.2304 298.944 
L 144.2304 27.648 
" clip-path="url(#p65b3efd463)" style="fill: none; stroke: #b0b0b0; stroke-width: 0.8; stroke-linecap: square"/>
     </g>
     <g id="line2d_8">
      <g>
       <use xlink:href="#mef465fc2ea" x="144.2304" y="298.944" style="stroke: #000000; stroke-width: 0.8"/>
      </g>
     </g>
     <g id="text_2">
      <!-- 2 -->
      <g transform="translate(138.822275 318.861344)scale(0.17 -0.17)">
       <defs>
        <path id="DejaVuSans-32" d="M 1228 531 
L 3431 531 
L 3431 0 
L 469 0 
L 469 531 
Q 828 903 1448 1529 
Q 2069 2156 2228 2338 
Q 2531 2678 2651 2914 
Q 2772 3150 2772 3378 
Q 2772 3750 2511 3984 
Q 2250 4219 1831 4219 
Q 1534 4219 1204 4116 
Q 875 4013 500 3803 
L 500 4441 
Q 881 4594 1212 4672 
Q 1544 4750 1819 4750 
Q 2544 4750 2975 4387 
Q 3406 4025 3406 3419 
Q 3406 3131 3298 2873 
Q 3191 2616 2906 2266 
Q 2828 2175 2409 1742 
Q 1991 1309 1228 531 
z
" transform="scale(0.015625)"/>
       </defs>
       <use xlink:href="#DejaVuSans-32"/>
      </g>
     </g>
    </g>
    <g id="xtick_3">
     <g id="line2d_9">
      <path d="M 230.8608 298.944 
L 230.8608 27.648 
" clip-path="url(#p65b3efd463)" style="fill: none; stroke: #b0b0b0; stroke-width: 0.8; stroke-linecap: square"/>
     </g>
     <g id="line2d_10">
      <g>
       <use xlink:href="#mef465fc2ea" x="230.8608" y="298.944" style="stroke: #000000; stroke-width: 0.8"/>
      </g>
     </g>
     <g id="text_3">
      <!-- 4 -->
      <g transform="translate(225.452675 318.861344)scale(0.17 -0.17)">
       <defs>
        <path id="DejaVuSans-34" d="M 2419 4116 
L 825 1625 
L 2419 1625 
L 2419 4116 
z
M 2253 4666 
L 3047 4666 
L 3047 1625 
L 3713 1625 
L 3713 1100 
L 3047 1100 
L 3047 0 
L 2419 0 
L 2419 1100 
L 313 1100 
L 313 1709 
L 2253 4666 
z
" transform="scale(0.015625)"/>
       </defs>
       <use xlink:href="#DejaVuSans-34"/>
      </g>
     </g>
    </g>
    <g id="xtick_4">
     <g id="line2d_11">
      <path d="M 317.4912 298.944 
L 317.4912 27.648 
" clip-path="url(#p65b3efd463)" style="fill: none; stroke: #b0b0b0; stroke-width: 0.8; stroke-linecap: square"/>
     </g>
     <g id="line2d_12">
      <g>
       <use xlink:href="#mef465fc2ea" x="317.4912" y="298.944" style="stroke: #000000; stroke-width: 0.8"/>
      </g>
     </g>
     <g id="text_4">
      <!-- 6 -->
      <g transform="translate(312.083075 318.861344)scale(0.17 -0.17)">
       <defs>
        <path id="DejaVuSans-36" d="M 2113 2584 
Q 1688 2584 1439 2293 
Q 1191 2003 1191 1497 
Q 1191 994 1439 701 
Q 1688 409 2113 409 
Q 2538 409 2786 701 
Q 3034 994 3034 1497 
Q 3034 2003 2786 2293 
Q 2538 2584 2113 2584 
z
M 3366 4563 
L 3366 3988 
Q 3128 4100 2886 4159 
Q 2644 4219 2406 4219 
Q 1781 4219 1451 3797 
Q 1122 3375 1075 2522 
Q 1259 2794 1537 2939 
Q 1816 3084 2150 3084 
Q 2853 3084 3261 2657 
Q 3669 2231 3669 1497 
Q 3669 778 3244 343 
Q 2819 -91 2113 -91 
Q 1303 -91 875 529 
Q 447 1150 447 2328 
Q 447 3434 972 4092 
Q 1497 4750 2381 4750 
Q 2619 4750 2861 4703 
Q 3103 4656 3366 4563 
z
" transform="scale(0.015625)"/>
       </defs>
       <use xlink:href="#DejaVuSans-36"/>
      </g>
     </g>
    </g>
    <g id="xtick_5">
     <g id="line2d_13">
      <path d="M 100.9152 298.944 
L 100.9152 27.648 
" clip-path="url(#p65b3efd463)" style="fill: none; stroke: #b0b0b0; stroke-width: 0.8; stroke-linecap: square"/>
     </g>
     <g id="line2d_14">
      <defs>
       <path id="m6dfad33f55" d="M 0 0 
L 0 2 
" style="stroke: #000000; stroke-width: 0.6"/>
      </defs>
      <g>
       <use xlink:href="#m6dfad33f55" x="100.9152" y="298.944" style="stroke: #000000; stroke-width: 0.6"/>
      </g>
     </g>
    </g>
    <g id="xtick_6">
     <g id="line2d_15">
      <path d="M 187.5456 298.944 
L 187.5456 27.648 
" clip-path="url(#p65b3efd463)" style="fill: none; stroke: #b0b0b0; stroke-width: 0.8; stroke-linecap: square"/>
     </g>
     <g id="line2d_16">
      <g>
       <use xlink:href="#m6dfad33f55" x="187.5456" y="298.944" style="stroke: #000000; stroke-width: 0.6"/>
      </g>
     </g>
    </g>
    <g id="xtick_7">
     <g id="line2d_17">
      <path d="M 274.176 298.944 
L 274.176 27.648 
" clip-path="url(#p65b3efd463)" style="fill: none; stroke: #b0b0b0; stroke-width: 0.8; stroke-linecap: square"/>
     </g>
     <g id="line2d_18">
      <g>
       <use xlink:href="#m6dfad33f55" x="274.176" y="298.944" style="stroke: #000000; stroke-width: 0.6"/>
      </g>
     </g>
    </g>
    <g id="xtick_8">
     <g id="line2d_19">
      <path d="M 360.8064 298.944 
L 360.8064 27.648 
" clip-path="url(#p65b3efd463)" style="fill: none; stroke: #b0b0b0; stroke-width: 0.8; stroke-linecap: square"/>
     </g>
     <g id="line2d_20">
      <g>
       <use xlink:href="#m6dfad33f55" x="360.8064" y="298.944" style="stroke: #000000; stroke-width: 0.6"/>
      </g>
     </g>
    </g>
    <g id="text_5">
     <!-- log10(# f-evals / dimension) -->
     <g transform="translate(88.823278 339.314156)scale(0.17 -0.17)">
      <defs>
       <path id="DejaVuSans-6c" d="M 603 4863 
L 1178 4863 
L 1178 0 
L 603 0 
L 603 4863 
z
" transform="scale(0.015625)"/>
       <path id="DejaVuSans-6f" d="M 1959 3097 
Q 1497 3097 1228 2736 
Q 959 2375 959 1747 
Q 959 1119 1226 758 
Q 1494 397 1959 397 
Q 2419 397 2687 759 
Q 2956 1122 2956 1747 
Q 2956 2369 2687 2733 
Q 2419 3097 1959 3097 
z
M 1959 3584 
Q 2709 3584 3137 3096 
Q 3566 2609 3566 1747 
Q 3566 888 3137 398 
Q 2709 -91 1959 -91 
Q 1206 -91 779 398 
Q 353 888 353 1747 
Q 353 2609 779 3096 
Q 1206 3584 1959 3584 
z
" transform="scale(0.015625)"/>
       <path id="DejaVuSans-67" d="M 2906 1791 
Q 2906 2416 2648 2759 
Q 2391 3103 1925 3103 
Q 1463 3103 1205 2759 
Q 947 2416 947 1791 
Q 947 1169 1205 825 
Q 1463 481 1925 481 
Q 2391 481 2648 825 
Q 2906 1169 2906 1791 
z
M 3481 434 
Q 3481 -459 3084 -895 
Q 2688 -1331 1869 -1331 
Q 1566 -1331 1297 -1286 
Q 1028 -1241 775 -1147 
L 775 -588 
Q 1028 -725 1275 -790 
Q 1522 -856 1778 -856 
Q 2344 -856 2625 -561 
Q 2906 -266 2906 331 
L 2906 616 
Q 2728 306 2450 153 
Q 2172 0 1784 0 
Q 1141 0 747 490 
Q 353 981 353 1791 
Q 353 2603 747 3093 
Q 1141 3584 1784 3584 
Q 2172 3584 2450 3431 
Q 2728 3278 2906 2969 
L 2906 3500 
L 3481 3500 
L 3481 434 
z
" transform="scale(0.015625)"/>
       <path id="DejaVuSans-31" d="M 794 531 
L 1825 531 
L 1825 4091 
L 703 3866 
L 703 4441 
L 1819 4666 
L 2450 4666 
L 2450 531 
L 3481 531 
L 3481 0 
L 794 0 
L 794 531 
z
" transform="scale(0.015625)"/>
       <path id="DejaVuSans-28" d="M 1984 4856 
Q 1566 4138 1362 3434 
Q 1159 2731 1159 2009 
Q 1159 1288 1364 580 
Q 1569 -128 1984 -844 
L 1484 -844 
Q 1016 -109 783 600 
Q 550 1309 550 2009 
Q 550 2706 781 3412 
Q 1013 4119 1484 4856 
L 1984 4856 
z
" transform="scale(0.015625)"/>
       <path id="DejaVuSans-23" d="M 3272 2816 
L 2363 2816 
L 2100 1772 
L 3016 1772 
L 3272 2816 
z
M 2803 4594 
L 2478 3297 
L 3391 3297 
L 3719 4594 
L 4219 4594 
L 3897 3297 
L 4872 3297 
L 4872 2816 
L 3775 2816 
L 3519 1772 
L 4513 1772 
L 4513 1294 
L 3397 1294 
L 3072 0 
L 2572 0 
L 2894 1294 
L 1978 1294 
L 1656 0 
L 1153 0 
L 1478 1294 
L 494 1294 
L 494 1772 
L 1594 1772 
L 1856 2816 
L 850 2816 
L 850 3297 
L 1978 3297 
L 2297 4594 
L 2803 4594 
z
" transform="scale(0.015625)"/>
       <path id="DejaVuSans-20" transform="scale(0.015625)"/>
       <path id="DejaVuSans-66" d="M 2375 4863 
L 2375 4384 
L 1825 4384 
Q 1516 4384 1395 4259 
Q 1275 4134 1275 3809 
L 1275 3500 
L 2222 3500 
L 2222 3053 
L 1275 3053 
L 1275 0 
L 697 0 
L 697 3053 
L 147 3053 
L 147 3500 
L 697 3500 
L 697 3744 
Q 697 4328 969 4595 
Q 1241 4863 1831 4863 
L 2375 4863 
z
" transform="scale(0.015625)"/>
       <path id="DejaVuSans-2d" d="M 313 2009 
L 1997 2009 
L 1997 1497 
L 313 1497 
L 313 2009 
z
" transform="scale(0.015625)"/>
       <path id="DejaVuSans-65" d="M 3597 1894 
L 3597 1613 
L 953 1613 
Q 991 1019 1311 708 
Q 1631 397 2203 397 
Q 2534 397 2845 478 
Q 3156 559 3463 722 
L 3463 178 
Q 3153 47 2828 -22 
Q 2503 -91 2169 -91 
Q 1331 -91 842 396 
Q 353 884 353 1716 
Q 353 2575 817 3079 
Q 1281 3584 2069 3584 
Q 2775 3584 3186 3129 
Q 3597 2675 3597 1894 
z
M 3022 2063 
Q 3016 2534 2758 2815 
Q 2500 3097 2075 3097 
Q 1594 3097 1305 2825 
Q 1016 2553 972 2059 
L 3022 2063 
z
" transform="scale(0.015625)"/>
       <path id="DejaVuSans-76" d="M 191 3500 
L 800 3500 
L 1894 563 
L 2988 3500 
L 3597 3500 
L 2284 0 
L 1503 0 
L 191 3500 
z
" transform="scale(0.015625)"/>
       <path id="DejaVuSans-61" d="M 2194 1759 
Q 1497 1759 1228 1600 
Q 959 1441 959 1056 
Q 959 750 1161 570 
Q 1363 391 1709 391 
Q 2188 391 2477 730 
Q 2766 1069 2766 1631 
L 2766 1759 
L 2194 1759 
z
M 3341 1997 
L 3341 0 
L 2766 0 
L 2766 531 
Q 2569 213 2275 61 
Q 1981 -91 1556 -91 
Q 1019 -91 701 211 
Q 384 513 384 1019 
Q 384 1609 779 1909 
Q 1175 2209 1959 2209 
L 2766 2209 
L 2766 2266 
Q 2766 2663 2505 2880 
Q 2244 3097 1772 3097 
Q 1472 3097 1187 3025 
Q 903 2953 641 2809 
L 641 3341 
Q 956 3463 1253 3523 
Q 1550 3584 1831 3584 
Q 2591 3584 2966 3190 
Q 3341 2797 3341 1997 
z
" transform="scale(0.015625)"/>
       <path id="DejaVuSans-73" d="M 2834 3397 
L 2834 2853 
Q 2591 2978 2328 3040 
Q 2066 3103 1784 3103 
Q 1356 3103 1142 2972 
Q 928 2841 928 2578 
Q 928 2378 1081 2264 
Q 1234 2150 1697 2047 
L 1894 2003 
Q 2506 1872 2764 1633 
Q 3022 1394 3022 966 
Q 3022 478 2636 193 
Q 2250 -91 1575 -91 
Q 1294 -91 989 -36 
Q 684 19 347 128 
L 347 722 
Q 666 556 975 473 
Q 1284 391 1588 391 
Q 1994 391 2212 530 
Q 2431 669 2431 922 
Q 2431 1156 2273 1281 
Q 2116 1406 1581 1522 
L 1381 1569 
Q 847 1681 609 1914 
Q 372 2147 372 2553 
Q 372 3047 722 3315 
Q 1072 3584 1716 3584 
Q 2034 3584 2315 3537 
Q 2597 3491 2834 3397 
z
" transform="scale(0.015625)"/>
       <path id="DejaVuSans-2f" d="M 1625 4666 
L 2156 4666 
L 531 -594 
L 0 -594 
L 1625 4666 
z
" transform="scale(0.015625)"/>
       <path id="DejaVuSans-64" d="M 2906 2969 
L 2906 4863 
L 3481 4863 
L 3481 0 
L 2906 0 
L 2906 525 
Q 2725 213 2448 61 
Q 2172 -91 1784 -91 
Q 1150 -91 751 415 
Q 353 922 353 1747 
Q 353 2572 751 3078 
Q 1150 3584 1784 3584 
Q 2172 3584 2448 3432 
Q 2725 3281 2906 2969 
z
M 947 1747 
Q 947 1113 1208 752 
Q 1469 391 1925 391 
Q 2381 391 2643 752 
Q 2906 1113 2906 1747 
Q 2906 2381 2643 2742 
Q 2381 3103 1925 3103 
Q 1469 3103 1208 2742 
Q 947 2381 947 1747 
z
" transform="scale(0.015625)"/>
       <path id="DejaVuSans-69" d="M 603 3500 
L 1178 3500 
L 1178 0 
L 603 0 
L 603 3500 
z
M 603 4863 
L 1178 4863 
L 1178 4134 
L 603 4134 
L 603 4863 
z
" transform="scale(0.015625)"/>
       <path id="DejaVuSans-6d" d="M 3328 2828 
Q 3544 3216 3844 3400 
Q 4144 3584 4550 3584 
Q 5097 3584 5394 3201 
Q 5691 2819 5691 2113 
L 5691 0 
L 5113 0 
L 5113 2094 
Q 5113 2597 4934 2840 
Q 4756 3084 4391 3084 
Q 3944 3084 3684 2787 
Q 3425 2491 3425 1978 
L 3425 0 
L 2847 0 
L 2847 2094 
Q 2847 2600 2669 2842 
Q 2491 3084 2119 3084 
Q 1678 3084 1418 2786 
Q 1159 2488 1159 1978 
L 1159 0 
L 581 0 
L 581 3500 
L 1159 3500 
L 1159 2956 
Q 1356 3278 1631 3431 
Q 1906 3584 2284 3584 
Q 2666 3584 2933 3390 
Q 3200 3197 3328 2828 
z
" transform="scale(0.015625)"/>
       <path id="DejaVuSans-6e" d="M 3513 2113 
L 3513 0 
L 2938 0 
L 2938 2094 
Q 2938 2591 2744 2837 
Q 2550 3084 2163 3084 
Q 1697 3084 1428 2787 
Q 1159 2491 1159 1978 
L 1159 0 
L 581 0 
L 581 3500 
L 1159 3500 
L 1159 2956 
Q 1366 3272 1645 3428 
Q 1925 3584 2291 3584 
Q 2894 3584 3203 3211 
Q 3513 2838 3513 2113 
z
" transform="scale(0.015625)"/>
       <path id="DejaVuSans-29" d="M 513 4856 
L 1013 4856 
Q 1481 4119 1714 3412 
Q 1947 2706 1947 2009 
Q 1947 1309 1714 600 
Q 1481 -109 1013 -844 
L 513 -844 
Q 928 -128 1133 580 
Q 1338 1288 1338 2009 
Q 1338 2731 1133 3434 
Q 928 4138 513 4856 
z
" transform="scale(0.015625)"/>
      </defs>
      <use xlink:href="#DejaVuSans-6c"/>
      <use xlink:href="#DejaVuSans-6f" x="27.783203"/>
      <use xlink:href="#DejaVuSans-67" x="88.964844"/>
      <use xlink:href="#DejaVuSans-31" x="152.441406"/>
      <use xlink:href="#DejaVuSans-30" x="216.064453"/>
      <use xlink:href="#DejaVuSans-28" x="279.6875"/>
      <use xlink:href="#DejaVuSans-23" x="318.701172"/>
      <use xlink:href="#DejaVuSans-20" x="402.490234"/>
      <use xlink:href="#DejaVuSans-66" x="434.277344"/>
      <use xlink:href="#DejaVuSans-2d" x="463.982422"/>
      <use xlink:href="#DejaVuSans-65" x="500.066406"/>
      <use xlink:href="#DejaVuSans-76" x="561.589844"/>
      <use xlink:href="#DejaVuSans-61" x="620.769531"/>
      <use xlink:href="#DejaVuSans-6c" x="682.048828"/>
      <use xlink:href="#DejaVuSans-73" x="709.832031"/>
      <use xlink:href="#DejaVuSans-20" x="761.931641"/>
      <use xlink:href="#DejaVuSans-2f" x="793.71875"/>
      <use xlink:href="#DejaVuSans-20" x="827.410156"/>
      <use xlink:href="#DejaVuSans-64" x="859.197266"/>
      <use xlink:href="#DejaVuSans-69" x="922.673828"/>
      <use xlink:href="#DejaVuSans-6d" x="950.457031"/>
      <use xlink:href="#DejaVuSans-65" x="1047.869141"/>
      <use xlink:href="#DejaVuSans-6e" x="1109.392578"/>
      <use xlink:href="#DejaVuSans-73" x="1172.771484"/>
      <use xlink:href="#DejaVuSans-69" x="1224.871094"/>
      <use xlink:href="#DejaVuSans-6f" x="1252.654297"/>
      <use xlink:href="#DejaVuSans-6e" x="1313.835938"/>
      <use xlink:href="#DejaVuSans-29" x="1377.214844"/>
     </g>
    </g>
   </g>
   <g id="matplotlib.axis_2">
    <g id="ytick_1">
     <g id="line2d_21">
      <path d="M 57.6 298.944 
L 360.8064 298.944 
" clip-path="url(#p65b3efd463)" style="fill: none; stroke: #b0b0b0; stroke-width: 0.8; stroke-linecap: square"/>
     </g>
     <g id="line2d_22">
      <defs>
       <path id="mafa4d0b2a5" d="M 0 0 
L -3.5 0 
" style="stroke: #000000; stroke-width: 0.8"/>
      </defs>
      <g>
       <use xlink:href="#mafa4d0b2a5" x="57.6" y="298.944" style="stroke: #000000; stroke-width: 0.8"/>
      </g>
     </g>
     <g id="text_6">
      <!-- 0.0 -->
      <g transform="translate(25.155 305.02275)scale(0.16 -0.16)">
       <defs>
        <path id="DejaVuSans-2e" d="M 684 794 
L 1344 794 
L 1344 0 
L 684 0 
L 684 794 
z
" transform="scale(0.015625)"/>
       </defs>
       <use xlink:href="#DejaVuSans-30"/>
       <use xlink:href="#DejaVuSans-2e" x="63.623047"/>
       <use xlink:href="#DejaVuSans-30" x="95.410156"/>
      </g>
     </g>
    </g>
    <g id="ytick_2">
     <g id="line2d_23">
      <path d="M 57.6 244.6848 
L 360.8064 244.6848 
" clip-path="url(#p65b3efd463)" style="fill: none; stroke: #b0b0b0; stroke-width: 0.8; stroke-linecap: square"/>
     </g>
     <g id="line2d_24">
      <g>
       <use xlink:href="#mafa4d0b2a5" x="57.6" y="244.6848" style="stroke: #000000; stroke-width: 0.8"/>
      </g>
     </g>
     <g id="text_7">
      <!-- 0.2 -->
      <g transform="translate(25.155 250.76355)scale(0.16 -0.16)">
       <use xlink:href="#DejaVuSans-30"/>
       <use xlink:href="#DejaVuSans-2e" x="63.623047"/>
       <use xlink:href="#DejaVuSans-32" x="95.410156"/>
      </g>
     </g>
    </g>
    <g id="ytick_3">
     <g id="line2d_25">
      <path d="M 57.6 190.4256 
L 360.8064 190.4256 
" clip-path="url(#p65b3efd463)" style="fill: none; stroke: #b0b0b0; stroke-width: 0.8; stroke-linecap: square"/>
     </g>
     <g id="line2d_26">
      <g>
       <use xlink:href="#mafa4d0b2a5" x="57.6" y="190.4256" style="stroke: #000000; stroke-width: 0.8"/>
      </g>
     </g>
     <g id="text_8">
      <!-- 0.4 -->
      <g transform="translate(25.155 196.50435)scale(0.16 -0.16)">
       <use xlink:href="#DejaVuSans-30"/>
       <use xlink:href="#DejaVuSans-2e" x="63.623047"/>
       <use xlink:href="#DejaVuSans-34" x="95.410156"/>
      </g>
     </g>
    </g>
    <g id="ytick_4">
     <g id="line2d_27">
      <path d="M 57.6 136.1664 
L 360.8064 136.1664 
" clip-path="url(#p65b3efd463)" style="fill: none; stroke: #b0b0b0; stroke-width: 0.8; stroke-linecap: square"/>
     </g>
     <g id="line2d_28">
      <g>
       <use xlink:href="#mafa4d0b2a5" x="57.6" y="136.1664" style="stroke: #000000; stroke-width: 0.8"/>
      </g>
     </g>
     <g id="text_9">
      <!-- 0.6 -->
      <g transform="translate(25.155 142.24515)scale(0.16 -0.16)">
       <use xlink:href="#DejaVuSans-30"/>
       <use xlink:href="#DejaVuSans-2e" x="63.623047"/>
       <use xlink:href="#DejaVuSans-36" x="95.410156"/>
      </g>
     </g>
    </g>
    <g id="ytick_5">
     <g id="line2d_29">
      <path d="M 57.6 81.9072 
L 360.8064 81.9072 
" clip-path="url(#p65b3efd463)" style="fill: none; stroke: #b0b0b0; stroke-width: 0.8; stroke-linecap: square"/>
     </g>
     <g id="line2d_30">
      <g>
       <use xlink:href="#mafa4d0b2a5" x="57.6" y="81.9072" style="stroke: #000000; stroke-width: 0.8"/>
      </g>
     </g>
     <g id="text_10">
      <!-- 0.8 -->
      <g transform="translate(25.155 87.98595)scale(0.16 -0.16)">
       <defs>
        <path id="DejaVuSans-38" d="M 2034 2216 
Q 1584 2216 1326 1975 
Q 1069 1734 1069 1313 
Q 1069 891 1326 650 
Q 1584 409 2034 409 
Q 2484 409 2743 651 
Q 3003 894 3003 1313 
Q 3003 1734 2745 1975 
Q 2488 2216 2034 2216 
z
M 1403 2484 
Q 997 2584 770 2862 
Q 544 3141 544 3541 
Q 544 4100 942 4425 
Q 1341 4750 2034 4750 
Q 2731 4750 3128 4425 
Q 3525 4100 3525 3541 
Q 3525 3141 3298 2862 
Q 3072 2584 2669 2484 
Q 3125 2378 3379 2068 
Q 3634 1759 3634 1313 
Q 3634 634 3220 271 
Q 2806 -91 2034 -91 
Q 1263 -91 848 271 
Q 434 634 434 1313 
Q 434 1759 690 2068 
Q 947 2378 1403 2484 
z
M 1172 3481 
Q 1172 3119 1398 2916 
Q 1625 2713 2034 2713 
Q 2441 2713 2670 2916 
Q 2900 3119 2900 3481 
Q 2900 3844 2670 4047 
Q 2441 4250 2034 4250 
Q 1625 4250 1398 4047 
Q 1172 3844 1172 3481 
z
" transform="scale(0.015625)"/>
       </defs>
       <use xlink:href="#DejaVuSans-30"/>
       <use xlink:href="#DejaVuSans-2e" x="63.623047"/>
       <use xlink:href="#DejaVuSans-38" x="95.410156"/>
      </g>
     </g>
    </g>
    <g id="ytick_6">
     <g id="line2d_31">
      <path d="M 57.6 27.648 
L 360.8064 27.648 
" clip-path="url(#p65b3efd463)" style="fill: none; stroke: #b0b0b0; stroke-width: 0.8; stroke-linecap: square"/>
     </g>
     <g id="line2d_32">
      <g>
       <use xlink:href="#mafa4d0b2a5" x="57.6" y="27.648" style="stroke: #000000; stroke-width: 0.8"/>
      </g>
     </g>
     <g id="text_11">
      <!-- 1.0 -->
      <g transform="translate(25.155 33.72675)scale(0.16 -0.16)">
       <use xlink:href="#DejaVuSans-31"/>
       <use xlink:href="#DejaVuSans-2e" x="63.623047"/>
       <use xlink:href="#DejaVuSans-30" x="95.410156"/>
      </g>
     </g>
    </g>
    <g id="text_12">
     <!-- Fraction of function,target pairs -->
     <g transform="translate(17.619531 297.681)rotate(-90)scale(0.17 -0.17)">
      <defs>
       <path id="DejaVuSans-46" d="M 628 4666 
L 3309 4666 
L 3309 4134 
L 1259 4134 
L 1259 2759 
L 3109 2759 
L 3109 2228 
L 1259 2228 
L 1259 0 
L 628 0 
L 628 4666 
z
" transform="scale(0.015625)"/>
       <path id="DejaVuSans-72" d="M 2631 2963 
Q 2534 3019 2420 3045 
Q 2306 3072 2169 3072 
Q 1681 3072 1420 2755 
Q 1159 2438 1159 1844 
L 1159 0 
L 581 0 
L 581 3500 
L 1159 3500 
L 1159 2956 
Q 1341 3275 1631 3429 
Q 1922 3584 2338 3584 
Q 2397 3584 2469 3576 
Q 2541 3569 2628 3553 
L 2631 2963 
z
" transform="scale(0.015625)"/>
       <path id="DejaVuSans-63" d="M 3122 3366 
L 3122 2828 
Q 2878 2963 2633 3030 
Q 2388 3097 2138 3097 
Q 1578 3097 1268 2742 
Q 959 2388 959 1747 
Q 959 1106 1268 751 
Q 1578 397 2138 397 
Q 2388 397 2633 464 
Q 2878 531 3122 666 
L 3122 134 
Q 2881 22 2623 -34 
Q 2366 -91 2075 -91 
Q 1284 -91 818 406 
Q 353 903 353 1747 
Q 353 2603 823 3093 
Q 1294 3584 2113 3584 
Q 2378 3584 2631 3529 
Q 2884 3475 3122 3366 
z
" transform="scale(0.015625)"/>
       <path id="DejaVuSans-74" d="M 1172 4494 
L 1172 3500 
L 2356 3500 
L 2356 3053 
L 1172 3053 
L 1172 1153 
Q 1172 725 1289 603 
Q 1406 481 1766 481 
L 2356 481 
L 2356 0 
L 1766 0 
Q 1100 0 847 248 
Q 594 497 594 1153 
L 594 3053 
L 172 3053 
L 172 3500 
L 594 3500 
L 594 4494 
L 1172 4494 
z
" transform="scale(0.015625)"/>
       <path id="DejaVuSans-75" d="M 544 1381 
L 544 3500 
L 1119 3500 
L 1119 1403 
Q 1119 906 1312 657 
Q 1506 409 1894 409 
Q 2359 409 2629 706 
Q 2900 1003 2900 1516 
L 2900 3500 
L 3475 3500 
L 3475 0 
L 2900 0 
L 2900 538 
Q 2691 219 2414 64 
Q 2138 -91 1772 -91 
Q 1169 -91 856 284 
Q 544 659 544 1381 
z
M 1991 3584 
L 1991 3584 
z
" transform="scale(0.015625)"/>
       <path id="DejaVuSans-2c" d="M 750 794 
L 1409 794 
L 1409 256 
L 897 -744 
L 494 -744 
L 750 256 
L 750 794 
z
" transform="scale(0.015625)"/>
       <path id="DejaVuSans-70" d="M 1159 525 
L 1159 -1331 
L 581 -1331 
L 581 3500 
L 1159 3500 
L 1159 2969 
Q 1341 3281 1617 3432 
Q 1894 3584 2278 3584 
Q 2916 3584 3314 3078 
Q 3713 2572 3713 1747 
Q 3713 922 3314 415 
Q 2916 -91 2278 -91 
Q 1894 -91 1617 61 
Q 1341 213 1159 525 
z
M 3116 1747 
Q 3116 2381 2855 2742 
Q 2594 3103 2138 3103 
Q 1681 3103 1420 2742 
Q 1159 2381 1159 1747 
Q 1159 1113 1420 752 
Q 1681 391 2138 391 
Q 2594 391 2855 752 
Q 3116 1113 3116 1747 
z
" transform="scale(0.015625)"/>
      </defs>
      <use xlink:href="#DejaVuSans-46"/>
      <use xlink:href="#DejaVuSans-72" x="50.269531"/>
      <use xlink:href="#DejaVuSans-61" x="91.382812"/>
      <use xlink:href="#DejaVuSans-63" x="152.662109"/>
      <use xlink:href="#DejaVuSans-74" x="207.642578"/>
      <use xlink:href="#DejaVuSans-69" x="246.851562"/>
      <use xlink:href="#DejaVuSans-6f" x="274.634766"/>
      <use xlink:href="#DejaVuSans-6e" x="335.816406"/>
      <use xlink:href="#DejaVuSans-20" x="399.195312"/>
      <use xlink:href="#DejaVuSans-6f" x="430.982422"/>
      <use xlink:href="#DejaVuSans-66" x="492.164062"/>
      <use xlink:href="#DejaVuSans-20" x="527.369141"/>
      <use xlink:href="#DejaVuSans-66" x="559.15625"/>
      <use xlink:href="#DejaVuSans-75" x="594.361328"/>
      <use xlink:href="#DejaVuSans-6e" x="657.740234"/>
      <use xlink:href="#DejaVuSans-63" x="721.119141"/>
      <use xlink:href="#DejaVuSans-74" x="776.099609"/>
      <use xlink:href="#DejaVuSans-69" x="815.308594"/>
      <use xlink:href="#DejaVuSans-6f" x="843.091797"/>
      <use xlink:href="#DejaVuSans-6e" x="904.273438"/>
      <use xlink:href="#DejaVuSans-2c" x="967.652344"/>
      <use xlink:href="#DejaVuSans-74" x="999.439453"/>
      <use xlink:href="#DejaVuSans-61" x="1038.648438"/>
      <use xlink:href="#DejaVuSans-72" x="1099.927734"/>
      <use xlink:href="#DejaVuSans-67" x="1139.291016"/>
      <use xlink:href="#DejaVuSans-65" x="1202.767578"/>
      <use xlink:href="#DejaVuSans-74" x="1264.291016"/>
      <use xlink:href="#DejaVuSans-20" x="1303.5"/>
      <use xlink:href="#DejaVuSans-70" x="1335.287109"/>
      <use xlink:href="#DejaVuSans-61" x="1398.763672"/>
      <use xlink:href="#DejaVuSans-69" x="1460.042969"/>
      <use xlink:href="#DejaVuSans-72" x="1487.826172"/>
      <use xlink:href="#DejaVuSans-73" x="1528.939453"/>
     </g>
    </g>
   </g>
   <g id="line2d_33">
    <defs>
     <path id="m1cb57f89df" d="M 0 1.5 
C 0.397805 1.5 0.77937 1.341951 1.06066 1.06066 
C 1.341951 0.77937 1.5 0.397805 1.5 0 
C 1.5 -0.397805 1.341951 -0.77937 1.06066 -1.06066 
C 0.77937 -1.341951 0.397805 -1.5 0 -1.5 
C -0.397805 -1.5 -0.77937 -1.341951 -1.06066 -1.06066 
C -1.341951 -0.77937 -1.5 -0.397805 -1.5 0 
C -1.5 0.397805 -1.341951 0.77937 -1.06066 1.06066 
C -0.77937 1.341951 -0.397805 1.5 0 1.5 
z
" style="stroke: #f5deb3"/>
    </defs>
    <g>
     <use xlink:href="#m1cb57f89df" x="258.094967" y="27.648" style="fill: #f5deb3; stroke: #f5deb3"/>
     <use xlink:href="#m1cb57f89df" x="258.094967" y="27.648" style="fill: #f5deb3; stroke: #f5deb3"/>
    </g>
   </g>
   <g id="line2d_34">
    <defs>
     <path id="m7c03d3ea5e" d="M 0 1.5 
C 0.397805 1.5 0.77937 1.341951 1.06066 1.06066 
C 1.341951 0.77937 1.5 0.397805 1.5 0 
C 1.5 -0.397805 1.341951 -0.77937 1.06066 -1.06066 
C 0.77937 -1.341951 0.397805 -1.5 0 -1.5 
C -0.397805 -1.5 -0.77937 -1.341951 -1.06066 -1.06066 
C -1.341951 -0.77937 -1.5 -0.397805 -1.5 0 
C -1.5 0.397805 -1.341951 0.77937 -1.06066 1.06066 
C -0.77937 1.341951 -0.397805 1.5 0 1.5 
z
" style="stroke: #000080"/>
    </defs>
    <g>
     <use xlink:href="#m7c03d3ea5e" x="276.093946" y="213.831529" style="fill: #000080; stroke: #000080"/>
     <use xlink:href="#m7c03d3ea5e" x="276.093946" y="213.831529" style="fill: #000080; stroke: #000080"/>
    </g>
   </g>
   <g id="line2d_35">
    <path d="M 1.245626 298.944 
L 1.245626 272.346353 
L 14.2848 272.346353 
L 14.2848 270.644104 
L 21.912228 270.644104 
L 21.912228 270.218541 
L 27.323974 270.218541 
L 27.323974 270.00576 
L 31.521651 270.00576 
L 31.521651 268.090729 
L 34.951403 268.090729 
L 34.951403 267.877948 
L 37.851216 267.877948 
L 37.851216 266.38848 
L 42.578831 266.38848 
L 42.578831 265.962918 
L 44.560826 265.962918 
L 44.560826 265.537355 
L 46.353758 265.537355 
L 46.353758 265.324574 
L 47.990577 265.324574 
L 47.990577 264.899012 
L 49.496305 264.899012 
L 49.496305 264.686231 
L 50.890391 264.686231 
L 50.890391 264.473449 
L 52.188254 264.473449 
L 52.188254 264.260668 
L 54.542767 264.260668 
L 54.542767 264.047887 
L 56.635094 264.047887 
L 56.635094 263.835106 
L 61.797677 263.835106 
L 61.797677 263.622325 
L 65.227428 263.622325 
L 65.227428 263.409544 
L 66.441498 263.409544 
L 66.441498 263.196762 
L 67.581941 263.196762 
L 67.581941 262.7712 
L 70.639174 262.7712 
L 70.639174 262.558419 
L 75.574654 262.558419 
L 75.574654 262.345638 
L 80.895742 262.345638 
L 80.895742 261.920075 
L 85.894031 261.920075 
L 85.894031 261.707294 
L 86.911119 261.707294 
L 86.911119 261.494513 
L 87.686963 261.494513 
L 87.686963 261.281732 
L 89.497162 261.281732 
L 89.497162 261.068951 
L 90.175129 261.068951 
L 90.175129 260.856169 
L 93.521459 260.856169 
L 93.521459 260.643388 
L 98.295464 260.643388 
L 98.295464 260.430607 
L 101.922385 260.430607 
L 101.922385 260.217826 
L 103.707211 260.217826 
L 103.707211 260.005045 
L 104.344952 260.005045 
L 104.344952 259.792264 
L 109.873904 259.792264 
L 109.873904 259.579482 
L 121.455972 259.579482 
L 121.455972 259.366701 
L 124.508471 259.366701 
L 124.508471 259.15392 
L 125.526971 259.15392 
L 125.526971 258.941139 
L 125.653649 258.941139 
L 125.653649 258.728358 
L 136.213327 258.728358 
L 136.213327 258.515576 
L 136.92008 258.515576 
L 136.92008 258.302795 
L 144.602918 258.302795 
L 144.602918 258.090014 
L 145.058426 258.090014 
L 145.058426 257.877233 
L 145.555833 257.877233 
L 145.555833 257.664452 
L 146.87589 257.664452 
L 146.87589 257.451671 
L 147.581606 257.451671 
L 147.581606 257.238889 
L 147.722752 257.238889 
L 147.722752 257.026108 
L 148.109358 257.026108 
L 148.109358 256.813327 
L 149.495789 256.813327 
L 149.495789 256.600546 
L 149.924541 256.600546 
L 149.924541 256.387765 
L 166.066931 256.387765 
L 166.066931 256.174984 
L 166.664265 256.174984 
L 166.664265 255.962202 
L 166.83191 255.962202 
L 166.83191 255.53664 
L 166.972821 255.53664 
L 166.972821 255.111078 
L 168.719753 255.111078 
L 168.719753 254.898296 
L 169.328985 254.898296 
L 169.328985 254.685515 
L 169.696937 254.685515 
L 169.696937 254.472734 
L 171.539712 254.472734 
L 171.539712 254.259953 
L 172.299442 254.259953 
L 172.299442 254.047172 
L 172.820976 254.047172 
L 172.923569 253.621609 
L 172.956282 253.621609 
L 172.956282 253.408828 
L 173.240113 253.408828 
L 173.240113 253.196047 
L 173.487979 253.196047 
L 173.585032 252.770485 
L 173.960572 252.770485 
L 173.960572 252.557704 
L 174.476303 252.557704 
L 174.570276 252.132141 
L 174.663783 252.132141 
L 174.663783 251.91936 
L 175.50826 251.91936 
L 175.50826 251.706579 
L 175.629155 251.706579 
L 175.629155 251.493798 
L 176.345475 251.493798 
L 176.345475 251.281016 
L 176.663491 251.281016 
L 176.663491 251.068235 
L 176.833808 251.068235 
L 176.833808 250.855454 
L 176.989413 250.855454 
L 176.989413 250.642673 
L 177.406777 250.642673 
L 177.406777 250.429892 
L 177.535326 250.429892 
L 177.535326 250.217111 
L 177.837156 250.217111 
L 177.837156 250.004329 
L 178.250202 250.004329 
L 178.250202 249.791548 
L 178.554522 249.791548 
L 178.630216 249.365986 
L 178.874886 249.365986 
L 178.938904 248.940424 
L 179.214801 248.940424 
L 179.287889 248.514861 
L 179.864011 248.514861 
L 179.903587 248.089299 
L 180.153252 248.089299 
L 180.153252 247.876518 
L 180.759244 247.876518 
L 180.831959 247.450955 
L 181.101501 247.450955 
L 181.179505 246.812612 
L 181.944791 246.812612 
L 181.944791 246.599831 
L 182.46329 246.599831 
L 182.507601 246.174268 
L 182.595913 246.174268 
L 182.595913 245.961487 
L 182.941467 245.961487 
L 182.941467 245.748706 
L 183.187342 245.748706 
L 183.246539 245.323144 
L 183.320862 245.323144 
L 183.320862 245.110362 
L 183.820457 245.110362 
L 183.820457 244.897581 
L 184.523743 244.897581 
L 184.605298 244.259238 
L 184.78588 244.259238 
L 184.78588 243.833675 
L 184.947474 243.833675 
L 184.947474 243.620894 
L 185.168625 243.620894 
L 185.263372 242.982551 
L 185.53746 242.982551 
L 185.53746 242.769769 
L 185.890987 242.769769 
L 185.890987 242.556988 
L 186.1865 242.556988 
L 186.1865 242.344207 
L 186.469476 242.344207 
L 186.519208 241.918645 
L 186.673532 241.918645 
L 186.673532 241.493082 
L 186.914345 241.493082 
L 186.914345 241.280301 
L 187.203908 241.280301 
L 187.281331 240.854739 
L 187.335624 240.854739 
L 187.40019 240.429176 
L 187.527721 240.429176 
L 187.577552 240.003614 
L 188.299675 240.003614 
L 188.299675 239.790833 
L 188.458043 239.790833 
L 188.502792 239.365271 
L 188.770836 239.365271 
L 188.770836 239.152489 
L 188.902564 239.152489 
L 188.902564 238.939708 
L 190.036005 238.939708 
L 190.036005 238.726927 
L 190.588908 238.726927 
L 190.588908 238.514146 
L 190.773617 238.514146 
L 190.810026 238.088584 
L 192.931463 238.088584 
L 192.931463 237.875802 
L 194.240437 237.875802 
L 194.306214 237.45024 
L 195.327276 237.45024 
L 195.327276 237.237459 
L 195.454342 237.237459 
L 195.454342 237.024678 
L 196.234222 237.024678 
L 196.241925 236.599115 
L 196.535242 236.599115 
L 196.625429 236.173553 
L 196.808541 236.173553 
L 196.808541 235.960772 
L 197.206121 235.960772 
L 197.206121 235.747991 
L 198.70596 235.747991 
L 198.773398 235.322428 
L 199.736828 235.322428 
L 199.826155 234.896866 
L 200.129719 234.896866 
L 200.154274 234.471304 
L 200.256008 234.471304 
L 200.256008 234.258522 
L 200.914827 234.258522 
L 200.937918 233.83296 
L 201.591959 233.83296 
L 201.591959 233.620179 
L 201.885647 233.620179 
L 201.885647 233.407398 
L 202.076026 233.407398 
L 202.123321 232.981835 
L 202.610127 232.981835 
L 202.610127 232.769054 
L 202.855556 232.769054 
L 202.855556 232.556273 
L 204.546206 232.556273 
L 204.546206 232.343492 
L 204.660913 232.343492 
L 204.660913 232.130711 
L 205.017253 232.130711 
L 205.017253 231.917929 
L 205.615877 231.917929 
L 205.615877 231.705148 
L 206.164601 231.705148 
L 206.164601 231.492367 
L 206.464927 231.492367 
L 206.464927 231.279586 
L 207.346373 231.279586 
L 207.346373 231.066805 
L 207.640187 231.066805 
L 207.640187 230.854024 
L 208.41738 230.854024 
L 208.49506 230.21568 
L 208.589945 230.21568 
L 208.589945 230.002899 
L 208.716126 230.002899 
L 208.753938 229.577336 
L 208.846923 229.577336 
L 208.89929 229.151774 
L 208.961457 229.151774 
L 208.961457 228.938993 
L 209.234835 228.938993 
L 209.295904 228.513431 
L 209.362971 228.513431 
L 209.362971 228.300649 
L 209.496098 228.300649 
L 209.510734 227.875087 
L 210.561735 227.875087 
L 210.561735 227.662306 
L 212.214735 227.662306 
L 212.318862 226.5984 
L 212.350089 226.5984 
L 212.390054 226.172838 
L 212.511687 226.172838 
L 212.511687 225.960056 
L 212.794934 225.960056 
L 212.887106 225.321713 
L 212.937413 225.321713 
L 212.937413 225.108932 
L 213.229022 225.108932 
L 213.229022 224.896151 
L 213.570967 224.896151 
L 213.570967 224.683369 
L 213.909586 224.683369 
L 213.909586 224.470588 
L 214.397893 224.470588 
L 214.455575 224.045026 
L 214.536392 224.045026 
L 214.536392 223.832245 
L 215.326454 223.832245 
L 215.39057 223.406682 
L 216.699233 223.406682 
L 216.699233 223.193901 
L 217.761709 223.193901 
L 217.761709 222.98112 
L 218.453496 222.98112 
L 218.453496 222.768339 
L 218.617221 222.768339 
L 218.617221 222.555558 
L 218.814897 222.555558 
L 218.814897 222.342776 
L 219.593169 222.342776 
L 219.593169 222.129995 
L 219.758173 222.129995 
L 219.793102 221.704433 
L 219.993279 221.704433 
L 219.993279 221.491652 
L 220.661415 221.491652 
L 220.661415 221.278871 
L 222.280095 221.278871 
L 222.280095 221.066089 
L 222.879703 221.066089 
L 222.886746 220.640527 
L 223.319192 220.640527 
L 223.348101 220.214965 
L 224.006052 220.214965 
L 224.006052 220.002184 
L 225.069905 220.002184 
L 225.069905 219.789402 
L 226.304062 219.789402 
L 226.304062 219.576621 
L 227.278889 219.576621 
L 227.278889 219.36384 
L 227.557637 219.36384 
L 227.557637 219.151059 
L 234.730342 219.151059 
L 234.730342 218.938278 
L 235.533771 218.938278 
L 235.643723 218.512715 
L 235.647151 218.512715 
L 235.647151 218.299934 
L 237.019549 218.299934 
L 237.031884 217.874372 
L 237.740019 217.874372 
L 237.740019 217.661591 
L 240.588289 217.661591 
L 240.588289 217.448809 
L 241.171923 217.448809 
L 241.171923 217.236028 
L 242.609853 217.236028 
L 242.609853 217.023247 
L 243.903501 217.023247 
L 243.903501 216.810466 
L 244.495065 216.810466 
L 244.495065 216.597685 
L 245.41593 216.597685 
L 245.41593 216.384904 
L 245.847762 216.384904 
L 245.847762 216.172122 
L 246.358259 216.172122 
L 246.358259 215.959341 
L 246.620617 215.959341 
L 246.620617 215.74656 
L 250.244146 215.74656 
L 250.244146 215.533779 
L 257.937662 215.533779 
L 257.937662 215.320998 
L 259.032493 215.320998 
L 259.032493 215.108216 
L 260.076471 215.108216 
L 260.076471 214.895435 
L 263.406173 214.895435 
L 263.406173 214.682654 
L 267.785864 214.682654 
L 267.785864 214.469873 
L 268.714148 214.469873 
L 268.714148 214.257092 
L 272.464752 214.257092 
L 272.464752 214.044311 
L 276.093946 214.044311 
L 276.093946 213.831529 
L 360.8064 213.831529 
L 360.8064 213.831529 
" style="fill: none; stroke: #000080; stroke-width: 1.5; stroke-linecap: square"/>
   </g>
   <g id="line2d_36">
    <defs>
     <path id="m1ee3a1b923" d="M 0 6 
C 1.591219 6 3.117479 5.367802 4.242641 4.242641 
C 5.367802 3.117479 6 1.591219 6 0 
C 6 -1.591219 5.367802 -3.117479 4.242641 -4.242641 
C 3.117479 -5.367802 1.591219 -6 0 -6 
C -1.591219 -6 -3.117479 -5.367802 -4.242641 -4.242641 
C -5.367802 -3.117479 -6 -1.591219 -6 0 
C -6 1.591219 -5.367802 3.117479 -4.242641 4.242641 
C -3.117479 5.367802 -1.591219 6 0 6 
z
" style="stroke: #000080; stroke-width: 1.5"/>
    </defs>
    <g>
     <use xlink:href="#m1ee3a1b923" x="93.521459" y="260.856169" style="fill-opacity: 0; stroke: #000080; stroke-width: 1.5"/>
     <use xlink:href="#m1ee3a1b923" x="171.539712" y="254.472734" style="fill-opacity: 0; stroke: #000080; stroke-width: 1.5"/>
     <use xlink:href="#m1ee3a1b923" x="263.406173" y="214.895435" style="fill-opacity: 0; stroke: #000080; stroke-width: 1.5"/>
     <use xlink:href="#m1ee3a1b923" x="276.093946" y="213.831529" style="fill-opacity: 0; stroke: #000080; stroke-width: 1.5"/>
     <use xlink:href="#m1ee3a1b923" x="276.093946" y="213.831529" style="fill-opacity: 0; stroke: #000080; stroke-width: 1.5"/>
     <use xlink:href="#m1ee3a1b923" x="360.8064" y="213.831529" style="fill-opacity: 0; stroke: #000080; stroke-width: 1.5"/>
    </g>
   </g>
   <g id="line2d_37">
    <path style="fill: none; stroke: #000080; stroke-width: 1.5; stroke-linecap: square"/>
    <g/>
   </g>
   <g id="line2d_38">
    <path d="M 144.28675 258.302795 
" clip-path="url(#p65b3efd463)" style="fill: none; stroke: #000080; stroke-width: 1.5; stroke-linecap: square"/>
    <defs>
     <path id="m3396b1f88a" d="M -12 12 
L 12 -12 
M -12 -12 
L 12 12 
" style="stroke: #000080"/>
    </defs>
    <g clip-path="url(#p65b3efd463)">
     <use xlink:href="#m3396b1f88a" x="144.28675" y="258.302795" style="fill: #000080; stroke: #000080"/>
    </g>
   </g>
   <g id="line2d_39">
    <defs>
     <path id="md3a50d01cc" d="M 0 1.5 
C 0.397805 1.5 0.77937 1.341951 1.06066 1.06066 
C 1.341951 0.77937 1.5 0.397805 1.5 0 
C 1.5 -0.397805 1.341951 -0.77937 1.06066 -1.06066 
C 0.77937 -1.341951 0.397805 -1.5 0 -1.5 
C -0.397805 -1.5 -0.77937 -1.341951 -1.06066 -1.06066 
C -1.341951 -0.77937 -1.5 -0.397805 -1.5 0 
C -1.5 0.397805 -1.341951 0.77937 -1.06066 1.06066 
C -0.77937 1.341951 -0.397805 1.5 0 1.5 
z
" style="stroke: #ff00ff"/>
    </defs>
    <g>
     <use xlink:href="#md3a50d01cc" x="290.194029" y="208.512" style="fill: #ff00ff; stroke: #ff00ff"/>
     <use xlink:href="#md3a50d01cc" x="290.194029" y="208.512" style="fill: #ff00ff; stroke: #ff00ff"/>
    </g>
   </g>
   <g id="line2d_40">
    <path d="M 1.245626 298.944 
L 1.245626 272.346353 
L 14.2848 272.346353 
L 14.2848 270.856885 
L 21.912228 270.856885 
L 21.912228 270.218541 
L 27.323974 270.218541 
L 27.323974 269.792979 
L 31.521651 269.792979 
L 31.521651 269.154635 
L 34.951403 269.154635 
L 34.951403 268.941854 
L 37.851216 268.941854 
L 37.851216 268.303511 
L 40.363149 268.303511 
L 40.363149 267.877948 
L 42.578831 267.877948 
L 42.578831 267.665167 
L 47.990577 267.665167 
L 47.990577 267.026824 
L 55.618005 267.026824 
L 55.618005 266.814042 
L 57.6 266.814042 
L 57.6 266.601261 
L 58.517819 266.601261 
L 58.517819 266.38848 
L 59.392932 266.38848 
L 59.392932 265.962918 
L 63.929565 265.962918 
L 63.929565 265.537355 
L 65.227428 265.537355 
L 65.227428 265.324574 
L 70.639174 265.324574 
L 70.639174 265.111793 
L 71.556993 265.111793 
L 71.556993 264.899012 
L 73.672879 264.899012 
L 73.672879 264.686231 
L 75.574654 264.686231 
L 75.574654 264.473449 
L 75.93298 264.473449 
L 75.93298 264.260668 
L 77.301696 264.260668 
L 77.301696 264.047887 
L 77.628862 264.047887 
L 77.628862 263.835106 
L 80.621116 263.835106 
L 80.621116 263.622325 
L 81.433251 263.622325 
L 81.433251 263.409544 
L 82.959349 263.409544 
L 82.959349 263.196762 
L 83.202082 263.196762 
L 83.202082 262.983981 
L 83.912036 262.983981 
L 83.912036 262.7712 
L 89.497162 262.7712 
L 89.497162 262.558419 
L 93.934916 262.558419 
L 93.934916 262.345638 
L 96.480897 262.345638 
L 96.480897 262.132856 
L 98.510456 262.132856 
L 98.510456 261.920075 
L 104.885773 261.920075 
L 104.885773 261.707294 
L 108.29012 261.707294 
L 108.29012 261.494513 
L 109.460447 261.494513 
L 109.460447 261.281732 
L 112.989468 261.281732 
L 112.989468 261.068951 
L 113.52628 261.068951 
L 113.57433 260.643388 
L 120.583864 260.643388 
L 120.583864 260.430607 
L 122.971409 260.430607 
L 122.971409 260.217826 
L 129.146421 260.217826 
L 129.146421 260.005045 
L 129.396412 260.005045 
L 129.396412 259.792264 
L 130.146945 259.792264 
L 130.146945 259.579482 
L 133.01833 259.579482 
L 133.01833 259.366701 
L 136.068734 259.366701 
L 136.068734 258.941139 
L 136.766857 258.941139 
L 136.766857 258.728358 
L 141.974701 258.728358 
L 141.974701 258.515576 
L 142.487252 258.515576 
L 142.487252 258.302795 
L 143.993774 258.302795 
L 143.993774 258.090014 
L 145.273213 258.090014 
L 145.273213 257.877233 
L 147.135588 257.877233 
L 147.135588 257.664452 
L 147.636622 257.664452 
L 147.636622 257.451671 
L 149.67269 257.451671 
L 149.67269 257.238889 
L 152.882835 257.238889 
L 152.882835 257.026108 
L 153.719042 257.026108 
L 153.719042 256.813327 
L 155.056244 256.813327 
L 155.056244 256.600546 
L 158.590624 256.600546 
L 158.590624 256.387765 
L 161.795455 256.387765 
L 161.795455 256.174984 
L 162.911524 256.174984 
L 162.911524 255.962202 
L 163.060754 255.962202 
L 163.157294 255.53664 
L 163.24992 255.53664 
L 163.24992 255.323859 
L 164.030845 255.323859 
L 164.106202 254.898296 
L 164.30785 254.898296 
L 164.30785 254.685515 
L 164.692099 254.685515 
L 164.720604 254.259953 
L 164.853058 254.259953 
L 164.875043 253.834391 
L 165.507761 253.834391 
L 165.547176 253.408828 
L 166.222436 253.408828 
L 166.301163 252.770485 
L 166.448979 252.770485 
L 166.448979 252.557704 
L 166.829081 252.557704 
L 166.829081 252.344922 
L 166.950346 252.344922 
L 166.950346 252.132141 
L 167.07642 252.132141 
L 167.07642 251.91936 
L 167.651136 251.91936 
L 167.651136 251.706579 
L 167.780685 251.706579 
L 167.845127 251.281016 
L 168.045095 251.281016 
L 168.148245 250.642673 
L 168.224581 250.642673 
L 168.224581 250.429892 
L 168.480276 250.429892 
L 168.480276 250.004329 
L 168.755541 250.004329 
L 168.852337 249.365986 
L 168.961272 249.365986 
L 168.976423 248.940424 
L 169.204718 248.940424 
L 169.204718 248.727642 
L 169.545722 248.727642 
L 169.545722 248.514861 
L 170.188441 248.514861 
L 170.188441 248.30208 
L 170.809925 248.30208 
L 170.809925 248.089299 
L 171.682333 248.089299 
L 171.682333 247.876518 
L 172.385971 247.876518 
L 172.488864 247.238174 
L 172.90924 247.238174 
L 172.90924 247.025393 
L 173.094677 247.025393 
L 173.094677 246.812612 
L 173.436277 246.812612 
L 173.436277 246.599831 
L 173.931501 246.599831 
L 173.931501 246.387049 
L 174.324962 246.387049 
L 174.324962 246.174268 
L 174.510187 246.174268 
L 174.510187 245.961487 
L 174.827233 245.961487 
L 174.827233 245.748706 
L 175.202579 245.748706 
L 175.202579 245.535925 
L 175.696378 245.535925 
L 175.696378 245.323144 
L 175.849382 245.323144 
L 175.849382 245.110362 
L 176.186149 245.110362 
L 176.270263 244.6848 
L 177.272471 244.6848 
L 177.272471 244.472019 
L 177.870221 244.472019 
L 177.870221 244.259238 
L 178.211621 244.259238 
L 178.211621 244.046456 
L 178.448035 244.046456 
L 178.525678 243.620894 
L 179.069242 243.620894 
L 179.069242 243.408113 
L 179.353427 243.408113 
L 179.353427 243.195332 
L 180.034443 243.195332 
L 180.103025 242.769769 
L 181.276886 242.769769 
L 181.276886 242.556988 
L 181.939723 242.556988 
L 181.939723 242.344207 
L 182.188953 242.344207 
L 182.188953 242.131426 
L 182.714236 242.131426 
L 182.714236 241.918645 
L 183.974609 241.918645 
L 184.029116 241.493082 
L 192.047803 241.493082 
L 192.047803 241.280301 
L 193.255023 241.280301 
L 193.322947 240.854739 
L 194.150609 240.854739 
L 194.159214 240.429176 
L 194.285847 240.429176 
L 194.285847 240.216395 
L 194.495676 240.216395 
L 194.532044 239.578052 
L 194.764809 239.578052 
L 194.840273 238.939708 
L 195.062342 238.939708 
L 195.062342 238.726927 
L 195.20185 238.726927 
L 195.20185 238.514146 
L 195.375724 238.514146 
L 195.375724 238.301365 
L 195.760098 238.301365 
L 195.760098 238.088584 
L 195.913242 238.088584 
L 195.963213 237.663021 
L 196.315242 237.663021 
L 196.407075 237.237459 
L 196.624268 237.237459 
L 196.652691 236.811896 
L 196.916873 236.811896 
L 196.916873 236.599115 
L 197.033674 236.599115 
L 197.033674 236.386334 
L 197.851177 236.386334 
L 197.930411 235.960772 
L 198.779611 235.960772 
L 198.779611 235.747991 
L 199.959354 235.747991 
L 199.959354 235.535209 
L 200.36814 235.535209 
L 200.465414 235.109647 
L 200.555594 235.109647 
L 200.555594 234.896866 
L 200.674854 234.896866 
L 200.770559 234.045741 
L 200.999663 234.045741 
L 200.999663 233.83296 
L 201.451015 233.83296 
L 201.473009 233.407398 
L 201.695538 233.407398 
L 201.695538 233.194616 
L 202.372576 233.194616 
L 202.382409 232.769054 
L 203.378001 232.769054 
L 203.378001 232.556273 
L 204.441525 232.556273 
L 204.441525 232.343492 
L 205.466274 232.343492 
L 205.466274 232.130711 
L 205.641055 232.130711 
L 205.641055 231.917929 
L 205.968871 231.917929 
L 205.968871 231.705148 
L 207.864762 231.705148 
L 207.864762 231.492367 
L 208.521602 231.492367 
L 208.521602 231.279586 
L 209.42686 231.279586 
L 209.42686 231.066805 
L 212.692922 231.066805 
L 212.802796 230.641242 
L 212.95131 230.641242 
L 213.052418 230.002899 
L 213.064292 230.002899 
L 213.15154 229.151774 
L 213.181897 229.151774 
L 213.278185 228.513431 
L 213.543829 228.513431 
L 213.573796 228.087868 
L 213.846253 228.087868 
L 213.846253 227.875087 
L 214.308089 227.875087 
L 214.308089 227.662306 
L 214.513753 227.662306 
L 214.513753 227.449525 
L 216.833933 227.449525 
L 216.874532 227.023962 
L 217.385639 227.023962 
L 217.385639 226.811181 
L 217.555067 226.811181 
L 217.555067 226.5984 
L 217.74925 226.5984 
L 217.74925 226.385619 
L 220.00216 226.385619 
L 220.00216 226.172838 
L 227.427926 226.172838 
L 227.427926 225.960056 
L 227.54272 225.960056 
L 227.54272 225.747275 
L 227.65838 225.747275 
L 227.65838 225.534494 
L 227.789065 225.534494 
L 227.789065 225.321713 
L 227.99272 225.321713 
L 227.99272 225.108932 
L 228.637416 225.108932 
L 228.717802 224.470588 
L 228.853602 224.470588 
L 228.939948 224.045026 
L 229.147657 224.045026 
L 229.147657 223.832245 
L 229.766541 223.832245 
L 229.766541 223.619464 
L 231.573081 223.619464 
L 231.66604 223.193901 
L 231.90388 223.193901 
L 231.938641 222.768339 
L 232.457327 222.768339 
L 232.457327 222.555558 
L 233.275745 222.555558 
L 233.275745 222.342776 
L 233.461701 222.342776 
L 233.541722 221.917214 
L 233.608568 221.917214 
L 233.608568 221.704433 
L 233.866065 221.704433 
L 233.866065 221.491652 
L 234.328293 221.491652 
L 234.438112 221.066089 
L 234.496581 221.066089 
L 234.496581 220.853308 
L 234.890684 220.853308 
L 235.000448 220.427746 
L 235.078181 220.427746 
L 235.078181 220.214965 
L 236.947206 220.214965 
L 236.947206 220.002184 
L 238.61808 220.002184 
L 238.661373 219.576621 
L 242.419054 219.576621 
L 242.419054 219.151059 
L 242.821361 219.151059 
L 242.823801 218.725496 
L 242.971171 218.725496 
L 242.971171 218.512715 
L 243.310935 218.512715 
L 243.32088 218.087153 
L 243.467694 218.087153 
L 243.467694 217.874372 
L 244.151767 217.874372 
L 244.222077 217.448809 
L 244.335645 217.448809 
L 244.335645 217.236028 
L 244.486816 217.236028 
L 244.511097 216.810466 
L 244.743071 216.810466 
L 244.743071 216.597685 
L 245.117101 216.597685 
L 245.117101 216.384904 
L 245.397003 216.384904 
L 245.397003 216.172122 
L 246.057459 216.172122 
L 246.057459 215.959341 
L 246.173798 215.959341 
L 246.173798 215.74656 
L 246.604006 215.74656 
L 246.604006 215.533779 
L 246.847549 215.533779 
L 246.847549 215.320998 
L 250.78438 215.320998 
L 250.78438 215.108216 
L 250.897055 215.108216 
L 250.897055 214.895435 
L 251.04451 214.895435 
L 251.04451 214.682654 
L 251.813688 214.682654 
L 251.813688 214.469873 
L 252.05204 214.469873 
L 252.142258 214.044311 
L 252.465515 214.044311 
L 252.465515 213.831529 
L 252.903347 213.831529 
L 252.903347 213.618748 
L 253.587491 213.618748 
L 253.587491 213.405967 
L 253.851904 213.405967 
L 253.851904 213.193186 
L 254.380559 213.193186 
L 254.483754 212.767624 
L 254.589743 212.767624 
L 254.589743 212.554842 
L 255.057294 212.554842 
L 255.057294 212.342061 
L 256.424085 212.342061 
L 256.424085 212.12928 
L 257.910839 212.12928 
L 257.910839 211.916499 
L 258.987755 211.916499 
L 259.014771 211.490936 
L 259.192604 211.490936 
L 259.192604 211.278155 
L 262.710355 211.278155 
L 262.710355 211.065374 
L 263.973978 211.065374 
L 263.973978 210.852593 
L 265.938004 210.852593 
L 265.938004 210.639812 
L 267.327886 210.639812 
L 267.434936 210.214249 
L 268.723212 210.214249 
L 268.781164 209.788687 
L 270.947479 209.788687 
L 270.947479 209.575906 
L 273.03036 209.575906 
L 273.03036 209.363125 
L 274.572442 209.363125 
L 274.572442 209.150344 
L 278.25469 209.150344 
L 278.25469 208.937562 
L 286.115566 208.937562 
L 286.115566 208.724781 
L 290.194029 208.724781 
L 290.194029 208.512 
L 360.8064 208.512 
L 360.8064 208.512 
" style="fill: none; stroke: #ff00ff; stroke-width: 1.5; stroke-linecap: square"/>
   </g>
   <g id="line2d_41">
    <defs>
     <path id="m5b8806a36a" d="M -0 8.485281 
L 5.091169 0 
L 0 -8.485281 
L -5.091169 -0 
z
" style="stroke: #ff00ff; stroke-width: 1.5; stroke-linejoin: miter"/>
    </defs>
    <g>
     <use xlink:href="#m5b8806a36a" x="136.766857" y="258.728358" style="fill-opacity: 0; stroke: #ff00ff; stroke-width: 1.5; stroke-linejoin: miter"/>
     <use xlink:href="#m5b8806a36a" x="235.078181" y="220.427746" style="fill-opacity: 0; stroke: #ff00ff; stroke-width: 1.5; stroke-linejoin: miter"/>
     <use xlink:href="#m5b8806a36a" x="290.194029" y="208.724781" style="fill-opacity: 0; stroke: #ff00ff; stroke-width: 1.5; stroke-linejoin: miter"/>
     <use xlink:href="#m5b8806a36a" x="290.194029" y="208.512" style="fill-opacity: 0; stroke: #ff00ff; stroke-width: 1.5; stroke-linejoin: miter"/>
     <use xlink:href="#m5b8806a36a" x="360.8064" y="208.512" style="fill-opacity: 0; stroke: #ff00ff; stroke-width: 1.5; stroke-linejoin: miter"/>
    </g>
   </g>
   <g id="line2d_42">
    <path style="fill: none; stroke: #ff00ff; stroke-width: 1.5; stroke-linecap: square"/>
    <g/>
   </g>
   <g id="line2d_43">
    <path d="M 144.27737 258.090014 
" clip-path="url(#p65b3efd463)" style="fill: none; stroke: #ff00ff; stroke-width: 1.5; stroke-linecap: square"/>
    <defs>
     <path id="m553c723a4b" d="M -12 12 
L 12 -12 
M -12 -12 
L 12 12 
" style="stroke: #ff00ff"/>
    </defs>
    <g clip-path="url(#p65b3efd463)">
     <use xlink:href="#m553c723a4b" x="144.27737" y="258.090014" style="fill: #ff00ff; stroke: #ff00ff"/>
    </g>
   </g>
   <g id="line2d_44">
    <path d="M 360.8064 213.831529 
L 380.514816 293.51808 
" style="fill: none; stroke: #000080; stroke-width: 1.5; stroke-linecap: square"/>
    <g>
     <use xlink:href="#m1ee3a1b923" x="360.8064" y="213.831529" style="fill-opacity: 0; stroke: #000080; stroke-width: 1.5"/>
     <use xlink:href="#m1ee3a1b923" x="380.514816" y="293.51808" style="fill-opacity: 0; stroke: #000080; stroke-width: 1.5"/>
    </g>
   </g>
   <g id="line2d_45">
    <path d="M 360.8064 208.512 
L 380.514816 163.296 
" style="fill: none; stroke: #ff00ff; stroke-width: 1.5; stroke-linecap: square"/>
    <g>
     <use xlink:href="#m5b8806a36a" x="360.8064" y="208.512" style="fill-opacity: 0; stroke: #ff00ff; stroke-width: 1.5; stroke-linejoin: miter"/>
     <use xlink:href="#m5b8806a36a" x="380.514816" y="163.296" style="fill-opacity: 0; stroke: #ff00ff; stroke-width: 1.5; stroke-linejoin: miter"/>
    </g>
   </g>
   <g id="line2d_46">
    <path d="M 360.8064 298.944 
L 360.8064 27.648 
" style="fill: none; stroke: #000000; stroke-width: 1.5; stroke-linecap: square"/>
   </g>
   <g id="patch_3">
    <path d="M 57.6 298.944 
L 360.8064 298.944 
" style="fill: none; stroke: #000000; stroke-width: 0.8; stroke-linejoin: miter; stroke-linecap: square"/>
   </g>
   <g id="patch_4">
    <path d="M 57.6 27.648 
L 360.8064 27.648 
" style="fill: none; stroke: #000000; stroke-width: 0.8; stroke-linejoin: miter; stroke-linecap: square"/>
   </g>
   <g id="text_13">
    <!-- ex -->
    <g transform="translate(386.578944 297.381205)scale(0.14 -0.14)">
     <defs>
      <path id="DejaVuSans-78" d="M 3513 3500 
L 2247 1797 
L 3578 0 
L 2900 0 
L 1881 1375 
L 863 0 
L 184 0 
L 1544 1831 
L 300 3500 
L 978 3500 
L 1906 2253 
L 2834 3500 
L 3513 3500 
z
" transform="scale(0.015625)"/>
     </defs>
     <use xlink:href="#DejaVuSans-65"/>
     <use xlink:href="#DejaVuSans-78" x="59.773438"/>
    </g>
   </g>
   <g id="text_14">
    <!-- ex -->
    <g transform="translate(386.578944 167.159125)scale(0.14 -0.14)">
     <use xlink:href="#DejaVuSans-65"/>
     <use xlink:href="#DejaVuSans-78" x="59.773438"/>
    </g>
   </g>
   <g id="text_15">
    <!-- best 2009 -->
    <g transform="translate(386.578944 36.937045)scale(0.14 -0.14)">
     <defs>
      <path id="DejaVuSans-62" d="M 3116 1747 
Q 3116 2381 2855 2742 
Q 2594 3103 2138 3103 
Q 1681 3103 1420 2742 
Q 1159 2381 1159 1747 
Q 1159 1113 1420 752 
Q 1681 391 2138 391 
Q 2594 391 2855 752 
Q 3116 1113 3116 1747 
z
M 1159 2969 
Q 1341 3281 1617 3432 
Q 1894 3584 2278 3584 
Q 2916 3584 3314 3078 
Q 3713 2572 3713 1747 
Q 3713 922 3314 415 
Q 2916 -91 2278 -91 
Q 1894 -91 1617 61 
Q 1341 213 1159 525 
L 1159 0 
L 581 0 
L 581 4863 
L 1159 4863 
L 1159 2969 
z
" transform="scale(0.015625)"/>
      <path id="DejaVuSans-39" d="M 703 97 
L 703 672 
Q 941 559 1184 500 
Q 1428 441 1663 441 
Q 2288 441 2617 861 
Q 2947 1281 2994 2138 
Q 2813 1869 2534 1725 
Q 2256 1581 1919 1581 
Q 1219 1581 811 2004 
Q 403 2428 403 3163 
Q 403 3881 828 4315 
Q 1253 4750 1959 4750 
Q 2769 4750 3195 4129 
Q 3622 3509 3622 2328 
Q 3622 1225 3098 567 
Q 2575 -91 1691 -91 
Q 1453 -91 1209 -44 
Q 966 3 703 97 
z
M 1959 2075 
Q 2384 2075 2632 2365 
Q 2881 2656 2881 3163 
Q 2881 3666 2632 3958 
Q 2384 4250 1959 4250 
Q 1534 4250 1286 3958 
Q 1038 3666 1038 3163 
Q 1038 2656 1286 2365 
Q 1534 2075 1959 2075 
z
" transform="scale(0.015625)"/>
     </defs>
     <use xlink:href="#DejaVuSans-62"/>
     <use xlink:href="#DejaVuSans-65" x="63.476562"/>
     <use xlink:href="#DejaVuSans-73" x="125"/>
     <use xlink:href="#DejaVuSans-74" x="177.099609"/>
     <use xlink:href="#DejaVuSans-20" x="216.308594"/>
     <use xlink:href="#DejaVuSans-32" x="248.095703"/>
     <use xlink:href="#DejaVuSans-30" x="311.71875"/>
     <use xlink:href="#DejaVuSans-30" x="375.341797"/>
     <use xlink:href="#DejaVuSans-39" x="438.964844"/>
    </g>
   </g>
   <g id="text_16">
    <!-- bbob f23, 20-D -->
    <g transform="translate(60.632064 38.111366)scale(0.102 -0.102)">
     <defs>
      <path id="DejaVuSans-33" d="M 2597 2516 
Q 3050 2419 3304 2112 
Q 3559 1806 3559 1356 
Q 3559 666 3084 287 
Q 2609 -91 1734 -91 
Q 1441 -91 1130 -33 
Q 819 25 488 141 
L 488 750 
Q 750 597 1062 519 
Q 1375 441 1716 441 
Q 2309 441 2620 675 
Q 2931 909 2931 1356 
Q 2931 1769 2642 2001 
Q 2353 2234 1838 2234 
L 1294 2234 
L 1294 2753 
L 1863 2753 
Q 2328 2753 2575 2939 
Q 2822 3125 2822 3475 
Q 2822 3834 2567 4026 
Q 2313 4219 1838 4219 
Q 1578 4219 1281 4162 
Q 984 4106 628 3988 
L 628 4550 
Q 988 4650 1302 4700 
Q 1616 4750 1894 4750 
Q 2613 4750 3031 4423 
Q 3450 4097 3450 3541 
Q 3450 3153 3228 2886 
Q 3006 2619 2597 2516 
z
" transform="scale(0.015625)"/>
      <path id="DejaVuSans-44" d="M 1259 4147 
L 1259 519 
L 2022 519 
Q 2988 519 3436 956 
Q 3884 1394 3884 2338 
Q 3884 3275 3436 3711 
Q 2988 4147 2022 4147 
L 1259 4147 
z
M 628 4666 
L 1925 4666 
Q 3281 4666 3915 4102 
Q 4550 3538 4550 2338 
Q 4550 1131 3912 565 
Q 3275 0 1925 0 
L 628 0 
L 628 4666 
z
" transform="scale(0.015625)"/>
     </defs>
     <use xlink:href="#DejaVuSans-62"/>
     <use xlink:href="#DejaVuSans-62" x="63.476562"/>
     <use xlink:href="#DejaVuSans-6f" x="126.953125"/>
     <use xlink:href="#DejaVuSans-62" x="188.134766"/>
     <use xlink:href="#DejaVuSans-20" x="251.611328"/>
     <use xlink:href="#DejaVuSans-66" x="283.398438"/>
     <use xlink:href="#DejaVuSans-32" x="318.603516"/>
     <use xlink:href="#DejaVuSans-33" x="382.226562"/>
     <use xlink:href="#DejaVuSans-2c" x="445.849609"/>
     <use xlink:href="#DejaVuSans-20" x="477.636719"/>
     <use xlink:href="#DejaVuSans-32" x="509.423828"/>
     <use xlink:href="#DejaVuSans-30" x="573.046875"/>
     <use xlink:href="#DejaVuSans-2d" x="636.669922"/>
     <use xlink:href="#DejaVuSans-44" x="672.753906"/>
    </g>
    <!-- 51 targets: 100..1e-08 -->
    <g transform="translate(60.632064 49.533135)scale(0.102 -0.102)">
     <defs>
      <path id="DejaVuSans-35" d="M 691 4666 
L 3169 4666 
L 3169 4134 
L 1269 4134 
L 1269 2991 
Q 1406 3038 1543 3061 
Q 1681 3084 1819 3084 
Q 2600 3084 3056 2656 
Q 3513 2228 3513 1497 
Q 3513 744 3044 326 
Q 2575 -91 1722 -91 
Q 1428 -91 1123 -41 
Q 819 9 494 109 
L 494 744 
Q 775 591 1075 516 
Q 1375 441 1709 441 
Q 2250 441 2565 725 
Q 2881 1009 2881 1497 
Q 2881 1984 2565 2268 
Q 2250 2553 1709 2553 
Q 1456 2553 1204 2497 
Q 953 2441 691 2322 
L 691 4666 
z
" transform="scale(0.015625)"/>
      <path id="DejaVuSans-3a" d="M 750 794 
L 1409 794 
L 1409 0 
L 750 0 
L 750 794 
z
M 750 3309 
L 1409 3309 
L 1409 2516 
L 750 2516 
L 750 3309 
z
" transform="scale(0.015625)"/>
     </defs>
     <use xlink:href="#DejaVuSans-35"/>
     <use xlink:href="#DejaVuSans-31" x="63.623047"/>
     <use xlink:href="#DejaVuSans-20" x="127.246094"/>
     <use xlink:href="#DejaVuSans-74" x="159.033203"/>
     <use xlink:href="#DejaVuSans-61" x="198.242188"/>
     <use xlink:href="#DejaVuSans-72" x="259.521484"/>
     <use xlink:href="#DejaVuSans-67" x="298.884766"/>
     <use xlink:href="#DejaVuSans-65" x="362.361328"/>
     <use xlink:href="#DejaVuSans-74" x="423.884766"/>
     <use xlink:href="#DejaVuSans-73" x="463.09375"/>
     <use xlink:href="#DejaVuSans-3a" x="515.193359"/>
     <use xlink:href="#DejaVuSans-20" x="548.884766"/>
     <use xlink:href="#DejaVuSans-31" x="580.671875"/>
     <use xlink:href="#DejaVuSans-30" x="644.294922"/>
     <use xlink:href="#DejaVuSans-30" x="707.917969"/>
     <use xlink:href="#DejaVuSans-2e" x="771.541016"/>
     <use xlink:href="#DejaVuSans-2e" x="803.328125"/>
     <use xlink:href="#DejaVuSans-31" x="835.115234"/>
     <use xlink:href="#DejaVuSans-65" x="898.738281"/>
     <use xlink:href="#DejaVuSans-2d" x="960.261719"/>
     <use xlink:href="#DejaVuSans-30" x="996.345703"/>
     <use xlink:href="#DejaVuSans-38" x="1059.96875"/>
    </g>
    <!-- 25 instances -->
    <g transform="translate(60.632064 60.954904)scale(0.102 -0.102)">
     <use xlink:href="#DejaVuSans-32"/>
     <use xlink:href="#DejaVuSans-35" x="63.623047"/>
     <use xlink:href="#DejaVuSans-20" x="127.246094"/>
     <use xlink:href="#DejaVuSans-69" x="159.033203"/>
     <use xlink:href="#DejaVuSans-6e" x="186.816406"/>
     <use xlink:href="#DejaVuSans-73" x="250.195312"/>
     <use xlink:href="#DejaVuSans-74" x="302.294922"/>
     <use xlink:href="#DejaVuSans-61" x="341.503906"/>
     <use xlink:href="#DejaVuSans-6e" x="402.783203"/>
     <use xlink:href="#DejaVuSans-63" x="466.162109"/>
     <use xlink:href="#DejaVuSans-65" x="521.142578"/>
     <use xlink:href="#DejaVuSans-73" x="582.666016"/>
    </g>
   </g>
   <g id="text_17">
    <!-- v2.6 -->
    <g style="fill: #808080" transform="translate(198.292262 294.151352)scale(0.1 -0.1)">
     <use xlink:href="#DejaVuSans-76"/>
     <use xlink:href="#DejaVuSans-32" x="59.179688"/>
     <use xlink:href="#DejaVuSans-2e" x="122.802734"/>
     <use xlink:href="#DejaVuSans-36" x="154.589844"/>
    </g>
   </g>
   <g id="text_18">
    <!-- 23 Katsuuras -->
    <g transform="translate(143.536012 21.648)scale(0.2 -0.2)">
     <defs>
      <path id="DejaVuSans-4b" d="M 628 4666 
L 1259 4666 
L 1259 2694 
L 3353 4666 
L 4166 4666 
L 1850 2491 
L 4331 0 
L 3500 0 
L 1259 2247 
L 1259 0 
L 628 0 
L 628 4666 
z
" transform="scale(0.015625)"/>
     </defs>
     <use xlink:href="#DejaVuSans-32"/>
     <use xlink:href="#DejaVuSans-33" x="63.623047"/>
     <use xlink:href="#DejaVuSans-20" x="127.246094"/>
     <use xlink:href="#DejaVuSans-4b" x="159.033203"/>
     <use xlink:href="#DejaVuSans-61" x="222.859375"/>
     <use xlink:href="#DejaVuSans-74" x="284.138672"/>
     <use xlink:href="#DejaVuSans-73" x="323.347656"/>
     <use xlink:href="#DejaVuSans-75" x="375.447266"/>
     <use xlink:href="#DejaVuSans-75" x="438.826172"/>
     <use xlink:href="#DejaVuSans-72" x="502.205078"/>
     <use xlink:href="#DejaVuSans-61" x="543.318359"/>
     <use xlink:href="#DejaVuSans-73" x="604.597656"/>
    </g>
   </g>
  </g>
 </g>
 <defs>
  <clipPath id="p65b3efd463">
   <rect x="57.6" y="27.648" width="303.2064" height="271.296"/>
  </clipPath>
 </defs>
</svg>
