<?xml version="1.0" encoding="utf-8" standalone="no"?>
<!DOCTYPE svg PUBLIC "-//W3C//DTD SVG 1.1//EN"
  "http://www.w3.org/Graphics/SVG/1.1/DTD/svg11.dtd">
<svg xmlns:xlink="http://www.w3.org/1999/xlink" width="460.8pt" height="345.6pt" viewBox="0 0 460.8 345.6" xmlns="http://www.w3.org/2000/svg" version="1.1">
 <metadata>
  <rdf:RDF xmlns:dc="http://purl.org/dc/elements/1.1/" xmlns:cc="http://creativecommons.org/ns#" xmlns:rdf="http://www.w3.org/1999/02/22-rdf-syntax-ns#">
   <cc:Work>
    <dc:type rdf:resource="http://purl.org/dc/dcmitype/StillImage"/>
    <dc:date>2022-03-16T23:41:04.007465</dc:date>
    <dc:format>image/svg+xml</dc:format>
    <dc:creator>
     <cc:Agent>
      <dc:title>Matplotlib v3.5.1, https://matplotlib.org/</dc:title>
     </cc:Agent>
    </dc:creator>
   </cc:Work>
  </rdf:RDF>
 </metadata>
 <defs>
  <style type="text/css">*{stroke-linejoin: round; stroke-linecap: butt}</style>
 </defs>
 <g id="figure_1">
  <g id="patch_1">
   <path d="M 0 345.6 
L 460.8 345.6 
L 460.8 0 
L 0 0 
z
" style="fill: #ffffff"/>
  </g>
  <g id="axes_1">
   <g id="patch_2">
    <path d="M 57.6 298.944 
L 360.8064 298.944 
L 360.8064 27.648 
L 57.6 27.648 
z
" style="fill: #ffffff"/>
   </g>
   <g id="line2d_1">
    <path d="M 36.933397 298.944 
L 36.933397 272.346353 
L 49.972572 272.346353 
L 49.972572 267.026824 
L 63.011746 267.026824 
L 63.011746 261.707294 
L 70.639174 261.707294 
L 70.639174 256.387765 
L 80.248597 256.387765 
L 80.248597 251.068235 
L 86.578163 251.068235 
L 86.578163 245.748706 
L 90.230539 245.748706 
L 90.230539 240.429176 
L 92.322865 240.429176 
L 92.322865 235.109647 
L 95.916911 235.109647 
L 95.916911 229.790118 
L 96.717523 229.790118 
L 96.717523 224.470588 
L 98.933205 224.470588 
L 98.933205 219.151059 
L 99.617337 219.151059 
L 99.617337 213.831529 
L 101.532027 213.831529 
L 101.532027 208.512 
L 102.12927 208.512 
L 102.12927 203.192471 
L 103.269713 203.192471 
L 103.269713 197.872941 
L 105.850679 197.872941 
L 105.850679 192.553412 
L 107.68741 192.553412 
L 107.68741 187.233882 
L 109.360651 187.233882 
L 109.360651 181.914353 
L 111.620752 181.914353 
L 111.620752 176.594824 
L 113.638206 176.594824 
L 113.638206 171.275294 
L 115.747307 171.275294 
L 115.747307 165.955765 
L 117.121023 165.955765 
L 117.121023 160.636235 
L 119.366121 160.636235 
L 119.366121 155.316706 
L 120.28394 155.316706 
L 120.28394 149.997176 
L 121.159053 149.997176 
L 121.159053 144.677647 
L 121.581803 144.677647 
L 121.581803 139.358118 
L 121.99526 139.358118 
L 121.99526 134.038588 
L 122.795872 134.038588 
L 122.795872 128.719059 
L 123.936316 128.719059 
L 123.936316 123.399529 
L 124.481616 123.399529 
L 124.481616 118.08 
L 125.011554 118.08 
L 125.011554 112.760471 
L 125.35673 112.760471 
L 125.35673 107.440941 
L 126.192937 107.440941 
L 126.192937 102.121412 
L 130.292209 102.121412 
L 130.292209 96.801882 
L 132.405295 96.801882 
L 132.405295 91.482353 
L 132.984158 91.482353 
L 132.984158 86.162824 
L 133.545739 86.162824 
L 133.545739 80.843294 
L 133.874812 80.843294 
L 133.874812 75.523765 
L 134.304809 75.523765 
L 134.304809 70.204235 
L 135.136394 70.204235 
L 135.136394 64.884706 
L 135.538796 64.884706 
L 135.538796 59.565176 
L 136.029987 59.565176 
L 136.029987 54.245647 
L 136.413909 54.245647 
L 136.413909 48.926118 
L 137.250116 48.926118 
L 137.250116 43.606588 
L 137.610157 43.606588 
L 137.610157 38.287059 
L 137.963436 38.287059 
L 137.963436 32.967529 
L 138.395904 32.967529 
L 138.395904 27.648 
L 360.8064 27.648 
" style="fill: none; stroke: #f5deb3; stroke-width: 4; stroke-linecap: square"/>
   </g>
   <g id="line2d_2">
    <defs>
     <path id="mbe7b3eb592" d="M -0 7.778175 
L 7.778175 0 
L 0 -7.778175 
L -7.778175 -0 
z
" style="stroke: #f5deb3; stroke-width: 1.5; stroke-linejoin: miter"/>
    </defs>
    <g>
     <use xlink:href="#mbe7b3eb592" x="95.916911" y="235.109647" style="fill: #f5deb3; stroke: #f5deb3; stroke-width: 1.5; stroke-linejoin: miter"/>
     <use xlink:href="#mbe7b3eb592" x="122.795872" y="128.719059" style="fill: #f5deb3; stroke: #f5deb3; stroke-width: 1.5; stroke-linejoin: miter"/>
     <use xlink:href="#mbe7b3eb592" x="138.395904" y="32.967529" style="fill: #f5deb3; stroke: #f5deb3; stroke-width: 1.5; stroke-linejoin: miter"/>
     <use xlink:href="#mbe7b3eb592" x="138.395904" y="27.648" style="fill: #f5deb3; stroke: #f5deb3; stroke-width: 1.5; stroke-linejoin: miter"/>
     <use xlink:href="#mbe7b3eb592" x="138.395904" y="27.648" style="fill: #f5deb3; stroke: #f5deb3; stroke-width: 1.5; stroke-linejoin: miter"/>
     <use xlink:href="#mbe7b3eb592" x="360.8064" y="27.648" style="fill: #f5deb3; stroke: #f5deb3; stroke-width: 1.5; stroke-linejoin: miter"/>
    </g>
   </g>
   <g id="line2d_3">
    <path style="fill: none; stroke: #f5deb3; stroke-width: 4; stroke-linecap: square"/>
    <g/>
   </g>
   <g id="line2d_4">
    <path d="M 360.8064 27.648 
L 380.514816 33.07392 
" style="fill: none; stroke: #f5deb3; stroke-width: 4; stroke-linecap: square"/>
    <g>
     <use xlink:href="#mbe7b3eb592" x="360.8064" y="27.648" style="fill: #f5deb3; stroke: #f5deb3; stroke-width: 1.5; stroke-linejoin: miter"/>
     <use xlink:href="#mbe7b3eb592" x="380.514816" y="33.07392" style="fill: #f5deb3; stroke: #f5deb3; stroke-width: 1.5; stroke-linejoin: miter"/>
    </g>
   </g>
   <g id="matplotlib.axis_1">
    <g id="xtick_1">
     <g id="line2d_5">
      <path d="M 57.6 298.944 
L 57.6 27.648 
" clip-path="url(#p096d8c904d)" style="fill: none; stroke: #b0b0b0; stroke-width: 0.8; stroke-linecap: square"/>
     </g>
     <g id="line2d_6">
      <defs>
       <path id="mca567ba231" d="M 0 0 
L 0 3.5 
" style="stroke: #000000; stroke-width: 0.8"/>
      </defs>
      <g>
       <use xlink:href="#mca567ba231" x="57.6" y="298.944" style="stroke: #000000; stroke-width: 0.8"/>
      </g>
     </g>
     <g id="text_1">
      <!-- 0 -->
      <g transform="translate(52.191875 318.861344)scale(0.17 -0.17)">
       <defs>
        <path id="DejaVuSans-30" d="M 2034 4250 
Q 1547 4250 1301 3770 
Q 1056 3291 1056 2328 
Q 1056 1369 1301 889 
Q 1547 409 2034 409 
Q 2525 409 2770 889 
Q 3016 1369 3016 2328 
Q 3016 3291 2770 3770 
Q 2525 4250 2034 4250 
z
M 2034 4750 
Q 2819 4750 3233 4129 
Q 3647 3509 3647 2328 
Q 3647 1150 3233 529 
Q 2819 -91 2034 -91 
Q 1250 -91 836 529 
Q 422 1150 422 2328 
Q 422 3509 836 4129 
Q 1250 4750 2034 4750 
z
" transform="scale(0.015625)"/>
       </defs>
       <use xlink:href="#DejaVuSans-30"/>
      </g>
     </g>
    </g>
    <g id="xtick_2">
     <g id="line2d_7">
      <path d="M 144.2304 298.944 
L 144.2304 27.648 
" clip-path="url(#p096d8c904d)" style="fill: none; stroke: #b0b0b0; stroke-width: 0.8; stroke-linecap: square"/>
     </g>
     <g id="line2d_8">
      <g>
       <use xlink:href="#mca567ba231" x="144.2304" y="298.944" style="stroke: #000000; stroke-width: 0.8"/>
      </g>
     </g>
     <g id="text_2">
      <!-- 2 -->
      <g transform="translate(138.822275 318.861344)scale(0.17 -0.17)">
       <defs>
        <path id="DejaVuSans-32" d="M 1228 531 
L 3431 531 
L 3431 0 
L 469 0 
L 469 531 
Q 828 903 1448 1529 
Q 2069 2156 2228 2338 
Q 2531 2678 2651 2914 
Q 2772 3150 2772 3378 
Q 2772 3750 2511 3984 
Q 2250 4219 1831 4219 
Q 1534 4219 1204 4116 
Q 875 4013 500 3803 
L 500 4441 
Q 881 4594 1212 4672 
Q 1544 4750 1819 4750 
Q 2544 4750 2975 4387 
Q 3406 4025 3406 3419 
Q 3406 3131 3298 2873 
Q 3191 2616 2906 2266 
Q 2828 2175 2409 1742 
Q 1991 1309 1228 531 
z
" transform="scale(0.015625)"/>
       </defs>
       <use xlink:href="#DejaVuSans-32"/>
      </g>
     </g>
    </g>
    <g id="xtick_3">
     <g id="line2d_9">
      <path d="M 230.8608 298.944 
L 230.8608 27.648 
" clip-path="url(#p096d8c904d)" style="fill: none; stroke: #b0b0b0; stroke-width: 0.8; stroke-linecap: square"/>
     </g>
     <g id="line2d_10">
      <g>
       <use xlink:href="#mca567ba231" x="230.8608" y="298.944" style="stroke: #000000; stroke-width: 0.8"/>
      </g>
     </g>
     <g id="text_3">
      <!-- 4 -->
      <g transform="translate(225.452675 318.861344)scale(0.17 -0.17)">
       <defs>
        <path id="DejaVuSans-34" d="M 2419 4116 
L 825 1625 
L 2419 1625 
L 2419 4116 
z
M 2253 4666 
L 3047 4666 
L 3047 1625 
L 3713 1625 
L 3713 1100 
L 3047 1100 
L 3047 0 
L 2419 0 
L 2419 1100 
L 313 1100 
L 313 1709 
L 2253 4666 
z
" transform="scale(0.015625)"/>
       </defs>
       <use xlink:href="#DejaVuSans-34"/>
      </g>
     </g>
    </g>
    <g id="xtick_4">
     <g id="line2d_11">
      <path d="M 317.4912 298.944 
L 317.4912 27.648 
" clip-path="url(#p096d8c904d)" style="fill: none; stroke: #b0b0b0; stroke-width: 0.8; stroke-linecap: square"/>
     </g>
     <g id="line2d_12">
      <g>
       <use xlink:href="#mca567ba231" x="317.4912" y="298.944" style="stroke: #000000; stroke-width: 0.8"/>
      </g>
     </g>
     <g id="text_4">
      <!-- 6 -->
      <g transform="translate(312.083075 318.861344)scale(0.17 -0.17)">
       <defs>
        <path id="DejaVuSans-36" d="M 2113 2584 
Q 1688 2584 1439 2293 
Q 1191 2003 1191 1497 
Q 1191 994 1439 701 
Q 1688 409 2113 409 
Q 2538 409 2786 701 
Q 3034 994 3034 1497 
Q 3034 2003 2786 2293 
Q 2538 2584 2113 2584 
z
M 3366 4563 
L 3366 3988 
Q 3128 4100 2886 4159 
Q 2644 4219 2406 4219 
Q 1781 4219 1451 3797 
Q 1122 3375 1075 2522 
Q 1259 2794 1537 2939 
Q 1816 3084 2150 3084 
Q 2853 3084 3261 2657 
Q 3669 2231 3669 1497 
Q 3669 778 3244 343 
Q 2819 -91 2113 -91 
Q 1303 -91 875 529 
Q 447 1150 447 2328 
Q 447 3434 972 4092 
Q 1497 4750 2381 4750 
Q 2619 4750 2861 4703 
Q 3103 4656 3366 4563 
z
" transform="scale(0.015625)"/>
       </defs>
       <use xlink:href="#DejaVuSans-36"/>
      </g>
     </g>
    </g>
    <g id="xtick_5">
     <g id="line2d_13">
      <path d="M 100.9152 298.944 
L 100.9152 27.648 
" clip-path="url(#p096d8c904d)" style="fill: none; stroke: #b0b0b0; stroke-width: 0.8; stroke-linecap: square"/>
     </g>
     <g id="line2d_14">
      <defs>
       <path id="m4256bbbb04" d="M 0 0 
L 0 2 
" style="stroke: #000000; stroke-width: 0.6"/>
      </defs>
      <g>
       <use xlink:href="#m4256bbbb04" x="100.9152" y="298.944" style="stroke: #000000; stroke-width: 0.6"/>
      </g>
     </g>
    </g>
    <g id="xtick_6">
     <g id="line2d_15">
      <path d="M 187.5456 298.944 
L 187.5456 27.648 
" clip-path="url(#p096d8c904d)" style="fill: none; stroke: #b0b0b0; stroke-width: 0.8; stroke-linecap: square"/>
     </g>
     <g id="line2d_16">
      <g>
       <use xlink:href="#m4256bbbb04" x="187.5456" y="298.944" style="stroke: #000000; stroke-width: 0.6"/>
      </g>
     </g>
    </g>
    <g id="xtick_7">
     <g id="line2d_17">
      <path d="M 274.176 298.944 
L 274.176 27.648 
" clip-path="url(#p096d8c904d)" style="fill: none; stroke: #b0b0b0; stroke-width: 0.8; stroke-linecap: square"/>
     </g>
     <g id="line2d_18">
      <g>
       <use xlink:href="#m4256bbbb04" x="274.176" y="298.944" style="stroke: #000000; stroke-width: 0.6"/>
      </g>
     </g>
    </g>
    <g id="xtick_8">
     <g id="line2d_19">
      <path d="M 360.8064 298.944 
L 360.8064 27.648 
" clip-path="url(#p096d8c904d)" style="fill: none; stroke: #b0b0b0; stroke-width: 0.8; stroke-linecap: square"/>
     </g>
     <g id="line2d_20">
      <g>
       <use xlink:href="#m4256bbbb04" x="360.8064" y="298.944" style="stroke: #000000; stroke-width: 0.6"/>
      </g>
     </g>
    </g>
    <g id="text_5">
     <!-- log10(# f-evals / dimension) -->
     <g transform="translate(88.823278 339.314156)scale(0.17 -0.17)">
      <defs>
       <path id="DejaVuSans-6c" d="M 603 4863 
L 1178 4863 
L 1178 0 
L 603 0 
L 603 4863 
z
" transform="scale(0.015625)"/>
       <path id="DejaVuSans-6f" d="M 1959 3097 
Q 1497 3097 1228 2736 
Q 959 2375 959 1747 
Q 959 1119 1226 758 
Q 1494 397 1959 397 
Q 2419 397 2687 759 
Q 2956 1122 2956 1747 
Q 2956 2369 2687 2733 
Q 2419 3097 1959 3097 
z
M 1959 3584 
Q 2709 3584 3137 3096 
Q 3566 2609 3566 1747 
Q 3566 888 3137 398 
Q 2709 -91 1959 -91 
Q 1206 -91 779 398 
Q 353 888 353 1747 
Q 353 2609 779 3096 
Q 1206 3584 1959 3584 
z
" transform="scale(0.015625)"/>
       <path id="DejaVuSans-67" d="M 2906 1791 
Q 2906 2416 2648 2759 
Q 2391 3103 1925 3103 
Q 1463 3103 1205 2759 
Q 947 2416 947 1791 
Q 947 1169 1205 825 
Q 1463 481 1925 481 
Q 2391 481 2648 825 
Q 2906 1169 2906 1791 
z
M 3481 434 
Q 3481 -459 3084 -895 
Q 2688 -1331 1869 -1331 
Q 1566 -1331 1297 -1286 
Q 1028 -1241 775 -1147 
L 775 -588 
Q 1028 -725 1275 -790 
Q 1522 -856 1778 -856 
Q 2344 -856 2625 -561 
Q 2906 -266 2906 331 
L 2906 616 
Q 2728 306 2450 153 
Q 2172 0 1784 0 
Q 1141 0 747 490 
Q 353 981 353 1791 
Q 353 2603 747 3093 
Q 1141 3584 1784 3584 
Q 2172 3584 2450 3431 
Q 2728 3278 2906 2969 
L 2906 3500 
L 3481 3500 
L 3481 434 
z
" transform="scale(0.015625)"/>
       <path id="DejaVuSans-31" d="M 794 531 
L 1825 531 
L 1825 4091 
L 703 3866 
L 703 4441 
L 1819 4666 
L 2450 4666 
L 2450 531 
L 3481 531 
L 3481 0 
L 794 0 
L 794 531 
z
" transform="scale(0.015625)"/>
       <path id="DejaVuSans-28" d="M 1984 4856 
Q 1566 4138 1362 3434 
Q 1159 2731 1159 2009 
Q 1159 1288 1364 580 
Q 1569 -128 1984 -844 
L 1484 -844 
Q 1016 -109 783 600 
Q 550 1309 550 2009 
Q 550 2706 781 3412 
Q 1013 4119 1484 4856 
L 1984 4856 
z
" transform="scale(0.015625)"/>
       <path id="DejaVuSans-23" d="M 3272 2816 
L 2363 2816 
L 2100 1772 
L 3016 1772 
L 3272 2816 
z
M 2803 4594 
L 2478 3297 
L 3391 3297 
L 3719 4594 
L 4219 4594 
L 3897 3297 
L 4872 3297 
L 4872 2816 
L 3775 2816 
L 3519 1772 
L 4513 1772 
L 4513 1294 
L 3397 1294 
L 3072 0 
L 2572 0 
L 2894 1294 
L 1978 1294 
L 1656 0 
L 1153 0 
L 1478 1294 
L 494 1294 
L 494 1772 
L 1594 1772 
L 1856 2816 
L 850 2816 
L 850 3297 
L 1978 3297 
L 2297 4594 
L 2803 4594 
z
" transform="scale(0.015625)"/>
       <path id="DejaVuSans-20" transform="scale(0.015625)"/>
       <path id="DejaVuSans-66" d="M 2375 4863 
L 2375 4384 
L 1825 4384 
Q 1516 4384 1395 4259 
Q 1275 4134 1275 3809 
L 1275 3500 
L 2222 3500 
L 2222 3053 
L 1275 3053 
L 1275 0 
L 697 0 
L 697 3053 
L 147 3053 
L 147 3500 
L 697 3500 
L 697 3744 
Q 697 4328 969 4595 
Q 1241 4863 1831 4863 
L 2375 4863 
z
" transform="scale(0.015625)"/>
       <path id="DejaVuSans-2d" d="M 313 2009 
L 1997 2009 
L 1997 1497 
L 313 1497 
L 313 2009 
z
" transform="scale(0.015625)"/>
       <path id="DejaVuSans-65" d="M 3597 1894 
L 3597 1613 
L 953 1613 
Q 991 1019 1311 708 
Q 1631 397 2203 397 
Q 2534 397 2845 478 
Q 3156 559 3463 722 
L 3463 178 
Q 3153 47 2828 -22 
Q 2503 -91 2169 -91 
Q 1331 -91 842 396 
Q 353 884 353 1716 
Q 353 2575 817 3079 
Q 1281 3584 2069 3584 
Q 2775 3584 3186 3129 
Q 3597 2675 3597 1894 
z
M 3022 2063 
Q 3016 2534 2758 2815 
Q 2500 3097 2075 3097 
Q 1594 3097 1305 2825 
Q 1016 2553 972 2059 
L 3022 2063 
z
" transform="scale(0.015625)"/>
       <path id="DejaVuSans-76" d="M 191 3500 
L 800 3500 
L 1894 563 
L 2988 3500 
L 3597 3500 
L 2284 0 
L 1503 0 
L 191 3500 
z
" transform="scale(0.015625)"/>
       <path id="DejaVuSans-61" d="M 2194 1759 
Q 1497 1759 1228 1600 
Q 959 1441 959 1056 
Q 959 750 1161 570 
Q 1363 391 1709 391 
Q 2188 391 2477 730 
Q 2766 1069 2766 1631 
L 2766 1759 
L 2194 1759 
z
M 3341 1997 
L 3341 0 
L 2766 0 
L 2766 531 
Q 2569 213 2275 61 
Q 1981 -91 1556 -91 
Q 1019 -91 701 211 
Q 384 513 384 1019 
Q 384 1609 779 1909 
Q 1175 2209 1959 2209 
L 2766 2209 
L 2766 2266 
Q 2766 2663 2505 2880 
Q 2244 3097 1772 3097 
Q 1472 3097 1187 3025 
Q 903 2953 641 2809 
L 641 3341 
Q 956 3463 1253 3523 
Q 1550 3584 1831 3584 
Q 2591 3584 2966 3190 
Q 3341 2797 3341 1997 
z
" transform="scale(0.015625)"/>
       <path id="DejaVuSans-73" d="M 2834 3397 
L 2834 2853 
Q 2591 2978 2328 3040 
Q 2066 3103 1784 3103 
Q 1356 3103 1142 2972 
Q 928 2841 928 2578 
Q 928 2378 1081 2264 
Q 1234 2150 1697 2047 
L 1894 2003 
Q 2506 1872 2764 1633 
Q 3022 1394 3022 966 
Q 3022 478 2636 193 
Q 2250 -91 1575 -91 
Q 1294 -91 989 -36 
Q 684 19 347 128 
L 347 722 
Q 666 556 975 473 
Q 1284 391 1588 391 
Q 1994 391 2212 530 
Q 2431 669 2431 922 
Q 2431 1156 2273 1281 
Q 2116 1406 1581 1522 
L 1381 1569 
Q 847 1681 609 1914 
Q 372 2147 372 2553 
Q 372 3047 722 3315 
Q 1072 3584 1716 3584 
Q 2034 3584 2315 3537 
Q 2597 3491 2834 3397 
z
" transform="scale(0.015625)"/>
       <path id="DejaVuSans-2f" d="M 1625 4666 
L 2156 4666 
L 531 -594 
L 0 -594 
L 1625 4666 
z
" transform="scale(0.015625)"/>
       <path id="DejaVuSans-64" d="M 2906 2969 
L 2906 4863 
L 3481 4863 
L 3481 0 
L 2906 0 
L 2906 525 
Q 2725 213 2448 61 
Q 2172 -91 1784 -91 
Q 1150 -91 751 415 
Q 353 922 353 1747 
Q 353 2572 751 3078 
Q 1150 3584 1784 3584 
Q 2172 3584 2448 3432 
Q 2725 3281 2906 2969 
z
M 947 1747 
Q 947 1113 1208 752 
Q 1469 391 1925 391 
Q 2381 391 2643 752 
Q 2906 1113 2906 1747 
Q 2906 2381 2643 2742 
Q 2381 3103 1925 3103 
Q 1469 3103 1208 2742 
Q 947 2381 947 1747 
z
" transform="scale(0.015625)"/>
       <path id="DejaVuSans-69" d="M 603 3500 
L 1178 3500 
L 1178 0 
L 603 0 
L 603 3500 
z
M 603 4863 
L 1178 4863 
L 1178 4134 
L 603 4134 
L 603 4863 
z
" transform="scale(0.015625)"/>
       <path id="DejaVuSans-6d" d="M 3328 2828 
Q 3544 3216 3844 3400 
Q 4144 3584 4550 3584 
Q 5097 3584 5394 3201 
Q 5691 2819 5691 2113 
L 5691 0 
L 5113 0 
L 5113 2094 
Q 5113 2597 4934 2840 
Q 4756 3084 4391 3084 
Q 3944 3084 3684 2787 
Q 3425 2491 3425 1978 
L 3425 0 
L 2847 0 
L 2847 2094 
Q 2847 2600 2669 2842 
Q 2491 3084 2119 3084 
Q 1678 3084 1418 2786 
Q 1159 2488 1159 1978 
L 1159 0 
L 581 0 
L 581 3500 
L 1159 3500 
L 1159 2956 
Q 1356 3278 1631 3431 
Q 1906 3584 2284 3584 
Q 2666 3584 2933 3390 
Q 3200 3197 3328 2828 
z
" transform="scale(0.015625)"/>
       <path id="DejaVuSans-6e" d="M 3513 2113 
L 3513 0 
L 2938 0 
L 2938 2094 
Q 2938 2591 2744 2837 
Q 2550 3084 2163 3084 
Q 1697 3084 1428 2787 
Q 1159 2491 1159 1978 
L 1159 0 
L 581 0 
L 581 3500 
L 1159 3500 
L 1159 2956 
Q 1366 3272 1645 3428 
Q 1925 3584 2291 3584 
Q 2894 3584 3203 3211 
Q 3513 2838 3513 2113 
z
" transform="scale(0.015625)"/>
       <path id="DejaVuSans-29" d="M 513 4856 
L 1013 4856 
Q 1481 4119 1714 3412 
Q 1947 2706 1947 2009 
Q 1947 1309 1714 600 
Q 1481 -109 1013 -844 
L 513 -844 
Q 928 -128 1133 580 
Q 1338 1288 1338 2009 
Q 1338 2731 1133 3434 
Q 928 4138 513 4856 
z
" transform="scale(0.015625)"/>
      </defs>
      <use xlink:href="#DejaVuSans-6c"/>
      <use xlink:href="#DejaVuSans-6f" x="27.783203"/>
      <use xlink:href="#DejaVuSans-67" x="88.964844"/>
      <use xlink:href="#DejaVuSans-31" x="152.441406"/>
      <use xlink:href="#DejaVuSans-30" x="216.064453"/>
      <use xlink:href="#DejaVuSans-28" x="279.6875"/>
      <use xlink:href="#DejaVuSans-23" x="318.701172"/>
      <use xlink:href="#DejaVuSans-20" x="402.490234"/>
      <use xlink:href="#DejaVuSans-66" x="434.277344"/>
      <use xlink:href="#DejaVuSans-2d" x="463.982422"/>
      <use xlink:href="#DejaVuSans-65" x="500.066406"/>
      <use xlink:href="#DejaVuSans-76" x="561.589844"/>
      <use xlink:href="#DejaVuSans-61" x="620.769531"/>
      <use xlink:href="#DejaVuSans-6c" x="682.048828"/>
      <use xlink:href="#DejaVuSans-73" x="709.832031"/>
      <use xlink:href="#DejaVuSans-20" x="761.931641"/>
      <use xlink:href="#DejaVuSans-2f" x="793.71875"/>
      <use xlink:href="#DejaVuSans-20" x="827.410156"/>
      <use xlink:href="#DejaVuSans-64" x="859.197266"/>
      <use xlink:href="#DejaVuSans-69" x="922.673828"/>
      <use xlink:href="#DejaVuSans-6d" x="950.457031"/>
      <use xlink:href="#DejaVuSans-65" x="1047.869141"/>
      <use xlink:href="#DejaVuSans-6e" x="1109.392578"/>
      <use xlink:href="#DejaVuSans-73" x="1172.771484"/>
      <use xlink:href="#DejaVuSans-69" x="1224.871094"/>
      <use xlink:href="#DejaVuSans-6f" x="1252.654297"/>
      <use xlink:href="#DejaVuSans-6e" x="1313.835938"/>
      <use xlink:href="#DejaVuSans-29" x="1377.214844"/>
     </g>
    </g>
   </g>
   <g id="matplotlib.axis_2">
    <g id="ytick_1">
     <g id="line2d_21">
      <path d="M 57.6 298.944 
L 360.8064 298.944 
" clip-path="url(#p096d8c904d)" style="fill: none; stroke: #b0b0b0; stroke-width: 0.8; stroke-linecap: square"/>
     </g>
     <g id="line2d_22">
      <defs>
       <path id="m7def17579c" d="M 0 0 
L -3.5 0 
" style="stroke: #000000; stroke-width: 0.8"/>
      </defs>
      <g>
       <use xlink:href="#m7def17579c" x="57.6" y="298.944" style="stroke: #000000; stroke-width: 0.8"/>
      </g>
     </g>
     <g id="text_6">
      <!-- 0.0 -->
      <g transform="translate(25.155 305.02275)scale(0.16 -0.16)">
       <defs>
        <path id="DejaVuSans-2e" d="M 684 794 
L 1344 794 
L 1344 0 
L 684 0 
L 684 794 
z
" transform="scale(0.015625)"/>
       </defs>
       <use xlink:href="#DejaVuSans-30"/>
       <use xlink:href="#DejaVuSans-2e" x="63.623047"/>
       <use xlink:href="#DejaVuSans-30" x="95.410156"/>
      </g>
     </g>
    </g>
    <g id="ytick_2">
     <g id="line2d_23">
      <path d="M 57.6 244.6848 
L 360.8064 244.6848 
" clip-path="url(#p096d8c904d)" style="fill: none; stroke: #b0b0b0; stroke-width: 0.8; stroke-linecap: square"/>
     </g>
     <g id="line2d_24">
      <g>
       <use xlink:href="#m7def17579c" x="57.6" y="244.6848" style="stroke: #000000; stroke-width: 0.8"/>
      </g>
     </g>
     <g id="text_7">
      <!-- 0.2 -->
      <g transform="translate(25.155 250.76355)scale(0.16 -0.16)">
       <use xlink:href="#DejaVuSans-30"/>
       <use xlink:href="#DejaVuSans-2e" x="63.623047"/>
       <use xlink:href="#DejaVuSans-32" x="95.410156"/>
      </g>
     </g>
    </g>
    <g id="ytick_3">
     <g id="line2d_25">
      <path d="M 57.6 190.4256 
L 360.8064 190.4256 
" clip-path="url(#p096d8c904d)" style="fill: none; stroke: #b0b0b0; stroke-width: 0.8; stroke-linecap: square"/>
     </g>
     <g id="line2d_26">
      <g>
       <use xlink:href="#m7def17579c" x="57.6" y="190.4256" style="stroke: #000000; stroke-width: 0.8"/>
      </g>
     </g>
     <g id="text_8">
      <!-- 0.4 -->
      <g transform="translate(25.155 196.50435)scale(0.16 -0.16)">
       <use xlink:href="#DejaVuSans-30"/>
       <use xlink:href="#DejaVuSans-2e" x="63.623047"/>
       <use xlink:href="#DejaVuSans-34" x="95.410156"/>
      </g>
     </g>
    </g>
    <g id="ytick_4">
     <g id="line2d_27">
      <path d="M 57.6 136.1664 
L 360.8064 136.1664 
" clip-path="url(#p096d8c904d)" style="fill: none; stroke: #b0b0b0; stroke-width: 0.8; stroke-linecap: square"/>
     </g>
     <g id="line2d_28">
      <g>
       <use xlink:href="#m7def17579c" x="57.6" y="136.1664" style="stroke: #000000; stroke-width: 0.8"/>
      </g>
     </g>
     <g id="text_9">
      <!-- 0.6 -->
      <g transform="translate(25.155 142.24515)scale(0.16 -0.16)">
       <use xlink:href="#DejaVuSans-30"/>
       <use xlink:href="#DejaVuSans-2e" x="63.623047"/>
       <use xlink:href="#DejaVuSans-36" x="95.410156"/>
      </g>
     </g>
    </g>
    <g id="ytick_5">
     <g id="line2d_29">
      <path d="M 57.6 81.9072 
L 360.8064 81.9072 
" clip-path="url(#p096d8c904d)" style="fill: none; stroke: #b0b0b0; stroke-width: 0.8; stroke-linecap: square"/>
     </g>
     <g id="line2d_30">
      <g>
       <use xlink:href="#m7def17579c" x="57.6" y="81.9072" style="stroke: #000000; stroke-width: 0.8"/>
      </g>
     </g>
     <g id="text_10">
      <!-- 0.8 -->
      <g transform="translate(25.155 87.98595)scale(0.16 -0.16)">
       <defs>
        <path id="DejaVuSans-38" d="M 2034 2216 
Q 1584 2216 1326 1975 
Q 1069 1734 1069 1313 
Q 1069 891 1326 650 
Q 1584 409 2034 409 
Q 2484 409 2743 651 
Q 3003 894 3003 1313 
Q 3003 1734 2745 1975 
Q 2488 2216 2034 2216 
z
M 1403 2484 
Q 997 2584 770 2862 
Q 544 3141 544 3541 
Q 544 4100 942 4425 
Q 1341 4750 2034 4750 
Q 2731 4750 3128 4425 
Q 3525 4100 3525 3541 
Q 3525 3141 3298 2862 
Q 3072 2584 2669 2484 
Q 3125 2378 3379 2068 
Q 3634 1759 3634 1313 
Q 3634 634 3220 271 
Q 2806 -91 2034 -91 
Q 1263 -91 848 271 
Q 434 634 434 1313 
Q 434 1759 690 2068 
Q 947 2378 1403 2484 
z
M 1172 3481 
Q 1172 3119 1398 2916 
Q 1625 2713 2034 2713 
Q 2441 2713 2670 2916 
Q 2900 3119 2900 3481 
Q 2900 3844 2670 4047 
Q 2441 4250 2034 4250 
Q 1625 4250 1398 4047 
Q 1172 3844 1172 3481 
z
" transform="scale(0.015625)"/>
       </defs>
       <use xlink:href="#DejaVuSans-30"/>
       <use xlink:href="#DejaVuSans-2e" x="63.623047"/>
       <use xlink:href="#DejaVuSans-38" x="95.410156"/>
      </g>
     </g>
    </g>
    <g id="ytick_6">
     <g id="line2d_31">
      <path d="M 57.6 27.648 
L 360.8064 27.648 
" clip-path="url(#p096d8c904d)" style="fill: none; stroke: #b0b0b0; stroke-width: 0.8; stroke-linecap: square"/>
     </g>
     <g id="line2d_32">
      <g>
       <use xlink:href="#m7def17579c" x="57.6" y="27.648" style="stroke: #000000; stroke-width: 0.8"/>
      </g>
     </g>
     <g id="text_11">
      <!-- 1.0 -->
      <g transform="translate(25.155 33.72675)scale(0.16 -0.16)">
       <use xlink:href="#DejaVuSans-31"/>
       <use xlink:href="#DejaVuSans-2e" x="63.623047"/>
       <use xlink:href="#DejaVuSans-30" x="95.410156"/>
      </g>
     </g>
    </g>
    <g id="text_12">
     <!-- Fraction of function,target pairs -->
     <g transform="translate(17.619531 297.681)rotate(-90)scale(0.17 -0.17)">
      <defs>
       <path id="DejaVuSans-46" d="M 628 4666 
L 3309 4666 
L 3309 4134 
L 1259 4134 
L 1259 2759 
L 3109 2759 
L 3109 2228 
L 1259 2228 
L 1259 0 
L 628 0 
L 628 4666 
z
" transform="scale(0.015625)"/>
       <path id="DejaVuSans-72" d="M 2631 2963 
Q 2534 3019 2420 3045 
Q 2306 3072 2169 3072 
Q 1681 3072 1420 2755 
Q 1159 2438 1159 1844 
L 1159 0 
L 581 0 
L 581 3500 
L 1159 3500 
L 1159 2956 
Q 1341 3275 1631 3429 
Q 1922 3584 2338 3584 
Q 2397 3584 2469 3576 
Q 2541 3569 2628 3553 
L 2631 2963 
z
" transform="scale(0.015625)"/>
       <path id="DejaVuSans-63" d="M 3122 3366 
L 3122 2828 
Q 2878 2963 2633 3030 
Q 2388 3097 2138 3097 
Q 1578 3097 1268 2742 
Q 959 2388 959 1747 
Q 959 1106 1268 751 
Q 1578 397 2138 397 
Q 2388 397 2633 464 
Q 2878 531 3122 666 
L 3122 134 
Q 2881 22 2623 -34 
Q 2366 -91 2075 -91 
Q 1284 -91 818 406 
Q 353 903 353 1747 
Q 353 2603 823 3093 
Q 1294 3584 2113 3584 
Q 2378 3584 2631 3529 
Q 2884 3475 3122 3366 
z
" transform="scale(0.015625)"/>
       <path id="DejaVuSans-74" d="M 1172 4494 
L 1172 3500 
L 2356 3500 
L 2356 3053 
L 1172 3053 
L 1172 1153 
Q 1172 725 1289 603 
Q 1406 481 1766 481 
L 2356 481 
L 2356 0 
L 1766 0 
Q 1100 0 847 248 
Q 594 497 594 1153 
L 594 3053 
L 172 3053 
L 172 3500 
L 594 3500 
L 594 4494 
L 1172 4494 
z
" transform="scale(0.015625)"/>
       <path id="DejaVuSans-75" d="M 544 1381 
L 544 3500 
L 1119 3500 
L 1119 1403 
Q 1119 906 1312 657 
Q 1506 409 1894 409 
Q 2359 409 2629 706 
Q 2900 1003 2900 1516 
L 2900 3500 
L 3475 3500 
L 3475 0 
L 2900 0 
L 2900 538 
Q 2691 219 2414 64 
Q 2138 -91 1772 -91 
Q 1169 -91 856 284 
Q 544 659 544 1381 
z
M 1991 3584 
L 1991 3584 
z
" transform="scale(0.015625)"/>
       <path id="DejaVuSans-2c" d="M 750 794 
L 1409 794 
L 1409 256 
L 897 -744 
L 494 -744 
L 750 256 
L 750 794 
z
" transform="scale(0.015625)"/>
       <path id="DejaVuSans-70" d="M 1159 525 
L 1159 -1331 
L 581 -1331 
L 581 3500 
L 1159 3500 
L 1159 2969 
Q 1341 3281 1617 3432 
Q 1894 3584 2278 3584 
Q 2916 3584 3314 3078 
Q 3713 2572 3713 1747 
Q 3713 922 3314 415 
Q 2916 -91 2278 -91 
Q 1894 -91 1617 61 
Q 1341 213 1159 525 
z
M 3116 1747 
Q 3116 2381 2855 2742 
Q 2594 3103 2138 3103 
Q 1681 3103 1420 2742 
Q 1159 2381 1159 1747 
Q 1159 1113 1420 752 
Q 1681 391 2138 391 
Q 2594 391 2855 752 
Q 3116 1113 3116 1747 
z
" transform="scale(0.015625)"/>
      </defs>
      <use xlink:href="#DejaVuSans-46"/>
      <use xlink:href="#DejaVuSans-72" x="50.269531"/>
      <use xlink:href="#DejaVuSans-61" x="91.382812"/>
      <use xlink:href="#DejaVuSans-63" x="152.662109"/>
      <use xlink:href="#DejaVuSans-74" x="207.642578"/>
      <use xlink:href="#DejaVuSans-69" x="246.851562"/>
      <use xlink:href="#DejaVuSans-6f" x="274.634766"/>
      <use xlink:href="#DejaVuSans-6e" x="335.816406"/>
      <use xlink:href="#DejaVuSans-20" x="399.195312"/>
      <use xlink:href="#DejaVuSans-6f" x="430.982422"/>
      <use xlink:href="#DejaVuSans-66" x="492.164062"/>
      <use xlink:href="#DejaVuSans-20" x="527.369141"/>
      <use xlink:href="#DejaVuSans-66" x="559.15625"/>
      <use xlink:href="#DejaVuSans-75" x="594.361328"/>
      <use xlink:href="#DejaVuSans-6e" x="657.740234"/>
      <use xlink:href="#DejaVuSans-63" x="721.119141"/>
      <use xlink:href="#DejaVuSans-74" x="776.099609"/>
      <use xlink:href="#DejaVuSans-69" x="815.308594"/>
      <use xlink:href="#DejaVuSans-6f" x="843.091797"/>
      <use xlink:href="#DejaVuSans-6e" x="904.273438"/>
      <use xlink:href="#DejaVuSans-2c" x="967.652344"/>
      <use xlink:href="#DejaVuSans-74" x="999.439453"/>
      <use xlink:href="#DejaVuSans-61" x="1038.648438"/>
      <use xlink:href="#DejaVuSans-72" x="1099.927734"/>
      <use xlink:href="#DejaVuSans-67" x="1139.291016"/>
      <use xlink:href="#DejaVuSans-65" x="1202.767578"/>
      <use xlink:href="#DejaVuSans-74" x="1264.291016"/>
      <use xlink:href="#DejaVuSans-20" x="1303.5"/>
      <use xlink:href="#DejaVuSans-70" x="1335.287109"/>
      <use xlink:href="#DejaVuSans-61" x="1398.763672"/>
      <use xlink:href="#DejaVuSans-69" x="1460.042969"/>
      <use xlink:href="#DejaVuSans-72" x="1487.826172"/>
      <use xlink:href="#DejaVuSans-73" x="1528.939453"/>
     </g>
    </g>
   </g>
   <g id="line2d_33">
    <defs>
     <path id="m57f10382f2" d="M 0 1.5 
C 0.397805 1.5 0.77937 1.341951 1.06066 1.06066 
C 1.341951 0.77937 1.5 0.397805 1.5 0 
C 1.5 -0.397805 1.341951 -0.77937 1.06066 -1.06066 
C 0.77937 -1.341951 0.397805 -1.5 0 -1.5 
C -0.397805 -1.5 -0.77937 -1.341951 -1.06066 -1.06066 
C -1.341951 -0.77937 -1.5 -0.397805 -1.5 0 
C -1.5 0.397805 -1.341951 0.77937 -1.06066 1.06066 
C -0.77937 1.341951 -0.397805 1.5 0 1.5 
z
" style="stroke: #f5deb3"/>
    </defs>
    <g>
     <use xlink:href="#m57f10382f2" x="138.395904" y="27.648" style="fill: #f5deb3; stroke: #f5deb3"/>
     <use xlink:href="#m57f10382f2" x="138.395904" y="27.648" style="fill: #f5deb3; stroke: #f5deb3"/>
    </g>
   </g>
   <g id="line2d_34">
    <defs>
     <path id="m66d3f45ac1" d="M 0 1.5 
C 0.397805 1.5 0.77937 1.341951 1.06066 1.06066 
C 1.341951 0.77937 1.5 0.397805 1.5 0 
C 1.5 -0.397805 1.341951 -0.77937 1.06066 -1.06066 
C 0.77937 -1.341951 0.397805 -1.5 0 -1.5 
C -0.397805 -1.5 -0.77937 -1.341951 -1.06066 -1.06066 
C -1.341951 -0.77937 -1.5 -0.397805 -1.5 0 
C -1.5 0.397805 -1.341951 0.77937 -1.06066 1.06066 
C -0.77937 1.341951 -0.397805 1.5 0 1.5 
z
" style="stroke: #000080"/>
    </defs>
    <g>
     <use xlink:href="#m66d3f45ac1" x="184.258276" y="27.648" style="fill: #000080; stroke: #000080"/>
     <use xlink:href="#m66d3f45ac1" x="184.258276" y="27.648" style="fill: #000080; stroke: #000080"/>
    </g>
   </g>
   <g id="line2d_35">
    <path d="M 36.933397 298.944 
L 36.933397 268.090729 
L 49.972572 268.090729 
L 49.972572 262.983981 
L 57.6 262.983981 
L 57.6 260.643388 
L 63.011746 260.643388 
L 63.011746 257.451671 
L 67.209423 257.451671 
L 67.209423 256.387765 
L 70.639174 256.387765 
L 70.639174 255.749421 
L 73.538988 255.749421 
L 73.538988 255.111078 
L 76.050921 255.111078 
L 76.050921 254.898296 
L 78.266603 254.898296 
L 78.266603 253.196047 
L 80.248597 253.196047 
L 80.248597 251.706579 
L 82.04153 251.706579 
L 82.04153 251.068235 
L 83.678349 251.068235 
L 83.678349 250.855454 
L 85.184077 250.855454 
L 85.184077 250.429892 
L 86.578163 250.429892 
L 86.578163 250.004329 
L 87.876026 250.004329 
L 87.876026 249.791548 
L 89.090095 249.791548 
L 89.090095 248.940424 
L 90.230539 248.940424 
L 90.230539 248.30208 
L 92.322865 248.30208 
L 92.322865 247.450955 
L 94.205591 247.450955 
L 94.205591 245.748706 
L 95.080704 245.748706 
L 95.080704 245.535925 
L 95.916911 245.535925 
L 95.916911 245.323144 
L 96.717523 245.323144 
L 96.717523 244.472019 
L 97.485448 244.472019 
L 97.485448 243.620894 
L 98.223251 243.620894 
L 98.223251 242.982551 
L 98.933205 242.982551 
L 98.933205 242.769769 
L 99.617337 242.769769 
L 99.617337 242.344207 
L 100.277459 242.344207 
L 100.277459 240.429176 
L 100.9152 240.429176 
L 100.9152 240.003614 
L 101.532027 240.003614 
L 101.532027 239.578052 
L 102.12927 239.578052 
L 102.12927 239.152489 
L 102.708132 239.152489 
L 102.708132 238.301365 
L 103.269713 238.301365 
L 103.269713 237.875802 
L 103.815014 237.875802 
L 103.815014 237.663021 
L 104.860369 237.663021 
L 104.860369 235.960772 
L 105.850679 235.960772 
L 105.850679 235.535209 
L 106.326946 235.535209 
L 106.326946 235.322428 
L 106.791453 235.322428 
L 106.791453 235.109647 
L 107.244765 235.109647 
L 107.244765 234.684085 
L 107.68741 234.684085 
L 107.68741 234.258522 
L 108.542628 234.258522 
L 108.542628 233.620179 
L 108.956085 233.620179 
L 108.956085 233.407398 
L 109.360651 233.407398 
L 109.360651 232.981835 
L 110.897141 232.981835 
L 110.897141 231.917929 
L 111.262425 231.917929 
L 111.262425 231.705148 
L 111.97238 231.705148 
L 111.97238 231.066805 
L 112.317555 231.066805 
L 112.317555 230.428461 
L 112.656511 230.428461 
L 112.656511 230.21568 
L 112.989468 230.21568 
L 112.989468 229.364555 
L 113.316634 229.364555 
L 113.316634 229.151774 
L 113.954374 229.151774 
L 113.954374 228.300649 
L 114.265316 228.300649 
L 114.265316 228.087868 
L 114.571202 228.087868 
L 114.571202 227.449525 
L 114.872193 227.449525 
L 114.872193 226.5984 
L 115.460102 226.5984 
L 115.460102 226.172838 
L 115.747307 226.172838 
L 115.747307 225.108932 
L 116.854188 225.108932 
L 116.854188 224.896151 
L 117.121023 224.896151 
L 117.121023 224.683369 
L 117.384126 224.683369 
L 117.384126 224.257807 
L 117.6436 224.257807 
L 117.6436 223.406682 
L 117.899543 223.406682 
L 117.899543 222.98112 
L 118.152051 222.98112 
L 118.152051 222.555558 
L 118.401214 222.555558 
L 118.401214 221.491652 
L 119.129494 221.491652 
L 119.129494 220.640527 
L 119.366121 220.640527 
L 119.366121 220.427746 
L 119.599808 220.427746 
L 119.599808 219.576621 
L 119.830627 219.576621 
L 119.830627 218.938278 
L 120.28394 218.938278 
L 120.28394 218.512715 
L 120.506564 218.512715 
L 120.506564 218.299934 
L 120.944062 218.299934 
L 120.944062 218.087153 
L 121.371615 218.087153 
L 121.371615 217.874372 
L 121.581803 217.874372 
L 121.581803 217.023247 
L 121.789667 217.023247 
L 121.789667 215.959341 
L 121.99526 215.959341 
L 121.99526 215.74656 
L 122.19863 215.74656 
L 122.19863 215.320998 
L 122.399825 215.320998 
L 122.399825 214.257092 
L 122.598891 214.257092 
L 122.598891 214.044311 
L 122.990812 214.044311 
L 122.990812 213.193186 
L 123.183753 213.193186 
L 123.183753 212.980405 
L 123.374735 212.980405 
L 123.374735 212.554842 
L 123.563797 212.554842 
L 123.563797 212.12928 
L 123.936316 212.12928 
L 123.936316 211.278155 
L 124.119844 211.278155 
L 124.119844 210.427031 
L 124.3016 210.427031 
L 124.3016 209.363125 
L 124.659926 209.363125 
L 124.659926 208.937562 
L 124.836562 208.937562 
L 124.836562 208.512 
L 125.011554 208.512 
L 125.011554 207.873656 
L 125.35673 207.873656 
L 125.35673 207.235313 
L 125.526971 207.235313 
L 125.526971 205.958626 
L 125.695686 205.958626 
L 125.695686 204.469158 
L 125.862901 204.469158 
L 125.862901 203.830814 
L 126.028642 203.830814 
L 126.028642 202.979689 
L 126.355808 202.979689 
L 126.355808 202.341346 
L 126.677381 202.341346 
L 126.677381 201.703002 
L 126.993549 201.703002 
L 126.993549 201.27744 
L 127.304491 201.27744 
L 127.304491 201.064659 
L 127.458055 201.064659 
L 127.458055 200.851878 
L 127.610376 200.851878 
L 127.610376 200.639096 
L 128.060076 200.639096 
L 128.060076 200.426315 
L 128.354013 200.426315 
L 128.354013 200.000753 
L 128.643427 200.000753 
L 128.643427 199.149628 
L 128.786481 199.149628 
L 128.786481 198.511285 
L 128.928456 198.511285 
L 128.928456 197.66016 
L 129.209231 197.66016 
L 129.209231 196.596254 
L 129.485876 196.596254 
L 129.485876 196.170692 
L 129.758512 196.170692 
L 129.758512 195.745129 
L 129.893363 195.745129 
L 129.893363 195.106786 
L 130.027253 195.106786 
L 130.027253 194.894005 
L 130.4233 194.894005 
L 130.4233 193.830099 
L 130.553485 193.830099 
L 130.553485 193.617318 
L 130.682774 193.617318 
L 130.682774 192.978974 
L 130.811181 192.978974 
L 130.811181 192.553412 
L 130.938718 192.553412 
L 130.938718 192.127849 
L 131.065395 192.127849 
L 131.065395 191.276725 
L 131.191226 191.276725 
L 131.191226 191.063944 
L 131.31622 191.063944 
L 131.31622 190.4256 
L 131.440389 190.4256 
L 131.440389 190.212819 
L 131.563744 190.212819 
L 131.563744 189.148913 
L 131.808053 189.148913 
L 131.808053 188.936132 
L 131.929028 188.936132 
L 131.929028 188.297788 
L 132.04923 188.297788 
L 132.04923 187.872226 
L 132.168669 187.872226 
L 132.168669 187.659445 
L 132.287354 187.659445 
L 132.287354 187.233882 
L 132.638982 187.233882 
L 132.638982 186.382758 
L 132.754746 186.382758 
L 132.754746 186.169976 
L 132.869802 186.169976 
L 132.869802 185.531633 
L 132.984158 185.531633 
L 132.984158 185.318852 
L 133.097823 185.318852 
L 133.097823 185.106071 
L 133.323114 185.106071 
L 133.323114 184.680508 
L 133.434756 184.680508 
L 133.545739 182.978259 
L 133.656071 182.978259 
L 133.765759 181.063228 
L 133.983236 181.063228 
L 133.983236 180.637666 
L 134.198228 180.637666 
L 134.304809 179.148198 
L 134.41079 179.148198 
L 134.516177 178.297073 
L 134.725196 178.297073 
L 134.725196 177.871511 
L 134.931919 177.871511 
L 135.034434 176.807605 
L 135.136394 176.807605 
L 135.237805 175.95648 
L 135.338671 175.95648 
L 135.438999 175.318136 
L 135.638065 175.318136 
L 135.736814 174.892574 
L 135.835047 174.892574 
L 135.932769 174.467012 
L 136.126705 174.467012 
L 136.222928 173.190325 
L 136.413909 173.190325 
L 136.508678 171.913638 
L 136.602972 171.913638 
L 136.696795 170.636951 
L 136.790153 170.636951 
L 136.88305 170.211388 
L 136.97549 170.211388 
L 137.067478 169.573045 
L 137.159019 169.573045 
L 137.250116 167.658014 
L 137.610157 167.658014 
L 137.699101 167.019671 
L 137.787626 167.019671 
L 137.875736 166.594108 
L 137.963436 166.594108 
L 138.050729 165.742984 
L 138.137618 165.742984 
L 138.137618 165.10464 
L 138.395904 165.10464 
L 138.395904 164.891859 
L 138.650692 164.891859 
L 138.650692 164.466296 
L 138.818654 164.466296 
L 138.902075 163.615172 
L 138.985129 163.615172 
L 138.985129 162.976828 
L 139.150143 162.976828 
L 139.150143 162.764047 
L 139.313723 162.764047 
L 139.394983 161.700141 
L 139.475893 161.700141 
L 139.475893 160.636235 
L 139.636676 160.636235 
L 139.716555 159.785111 
L 139.954178 159.785111 
L 140.032723 158.933986 
L 140.110942 158.933986 
L 140.110942 158.721205 
L 140.26641 158.721205 
L 140.343665 158.082861 
L 140.420604 158.082861 
L 140.420604 157.018955 
L 140.649551 157.018955 
L 140.649551 156.806174 
L 140.800648 156.806174 
L 140.875745 156.167831 
L 140.950542 156.167831 
L 141.025043 155.742268 
L 141.099251 155.742268 
L 141.099251 155.529487 
L 141.246793 155.529487 
L 141.246793 155.316706 
L 141.393187 155.316706 
L 141.465959 154.891144 
L 141.538451 154.891144 
L 141.610664 154.2528 
L 141.682602 154.2528 
L 141.754265 153.188894 
L 141.825656 153.188894 
L 141.896777 152.124988 
L 141.96763 152.124988 
L 141.96763 151.912207 
L 142.108542 151.912207 
L 142.178603 150.848301 
L 142.248405 150.848301 
L 142.317949 150.422739 
L 142.387236 150.422739 
L 142.45627 149.784395 
L 142.525051 149.784395 
L 142.593581 149.146052 
L 142.661862 149.146052 
L 142.661862 148.933271 
L 142.797687 148.933271 
L 142.865233 148.082146 
L 142.932537 148.082146 
L 142.932537 147.869365 
L 143.066428 147.869365 
L 143.133017 147.443802 
L 143.265494 147.443802 
L 143.331383 146.805459 
L 143.397043 146.805459 
L 143.397043 146.592678 
L 143.592659 146.592678 
L 143.592659 146.379896 
L 143.786262 146.379896 
L 143.786262 146.167115 
L 143.914232 146.167115 
L 143.977892 145.103209 
L 144.16759 145.103209 
L 144.16759 144.890428 
L 144.355394 144.890428 
L 144.355394 142.762616 
L 144.479563 142.762616 
L 144.479563 142.337054 
L 144.664294 142.337054 
L 144.664294 142.124273 
L 144.847227 142.124273 
L 144.907812 140.209242 
L 145.088405 140.209242 
L 145.088405 139.570899 
L 145.26728 139.570899 
L 145.326529 139.145336 
L 145.385592 139.145336 
L 145.44447 137.868649 
L 145.620007 137.868649 
L 145.620007 136.804744 
L 145.851536 136.804744 
L 145.908976 136.1664 
L 145.966241 136.1664 
L 145.966241 135.953619 
L 146.080251 135.953619 
L 146.080251 135.740838 
L 146.193574 135.740838 
L 146.193574 135.528056 
L 146.306218 135.528056 
L 146.306218 135.315275 
L 146.418192 135.315275 
L 146.47393 134.676932 
L 146.529503 134.676932 
L 146.64016 133.613026 
L 146.804934 133.613026 
L 146.913986 132.974682 
L 146.968277 132.974682 
L 146.968277 132.54912 
L 147.183884 132.54912 
L 147.290768 131.910776 
L 147.343984 131.910776 
L 147.449964 131.272433 
L 147.502732 131.272433 
L 147.502732 130.634089 
L 147.660152 130.634089 
L 147.712333 129.995746 
L 147.816265 129.995746 
L 147.868016 128.719059 
L 147.971093 128.719059 
L 147.971093 127.655153 
L 148.175569 127.655153 
L 148.276979 126.804028 
L 148.377845 126.804028 
L 148.377845 126.591247 
L 148.57797 126.591247 
L 148.67724 125.952904 
L 148.775988 125.952904 
L 148.825169 125.31456 
L 148.971944 125.31456 
L 148.971944 125.101779 
L 149.117582 125.101779 
L 149.214052 124.463435 
L 149.262102 124.463435 
L 149.357835 124.037873 
L 149.40552 124.037873 
L 149.500528 123.612311 
L 149.547853 123.612311 
L 149.642146 122.548405 
L 149.689117 122.548405 
L 149.782707 121.69728 
L 149.829328 121.69728 
L 149.829328 121.484499 
L 150.060715 121.484499 
L 150.152479 120.420593 
L 150.198193 120.420593 
L 150.289291 119.143906 
L 150.334674 119.143906 
L 150.425115 118.292781 
L 150.559965 118.292781 
L 150.559965 117.867219 
L 150.693856 117.867219 
L 150.78259 115.952188 
L 150.8268 115.952188 
L 150.870907 115.101064 
L 151.00261 115.101064 
L 151.00261 114.888282 
L 151.176793 114.888282 
L 151.263283 114.037158 
L 151.435079 114.037158 
L 151.435079 112.760471 
L 151.60532 112.760471 
L 151.689867 112.334908 
L 151.731998 112.334908 
L 151.815978 111.909346 
L 151.857828 111.909346 
L 151.857828 111.058221 
L 151.982822 111.058221 
L 151.982822 110.84544 
L 152.106991 110.84544 
L 152.106991 110.419878 
L 152.230346 110.419878 
L 152.271285 109.143191 
L 152.352898 109.143191 
L 152.434157 108.717628 
L 152.474656 108.717628 
L 152.474656 108.504847 
L 152.635783 108.504847 
L 152.715833 107.22816 
L 152.953957 107.22816 
L 153.032666 106.164254 
L 153.111048 106.164254 
L 153.189104 105.738692 
L 153.228011 105.738692 
L 153.266838 104.887567 
L 153.5746 104.887567 
L 153.612719 104.462005 
L 153.688725 104.462005 
L 153.764426 103.61088 
L 153.989717 103.61088 
L 154.064218 102.972536 
L 154.101358 102.972536 
L 154.101358 102.546974 
L 154.322673 102.546974 
L 154.432362 101.695849 
L 154.577625 101.695849 
L 154.685842 100.419162 
L 154.757642 100.419162 
L 154.793439 98.504132 
L 154.900425 98.504132 
L 154.900425 98.291351 
L 155.042132 98.291351 
L 155.112587 97.014664 
L 155.217778 97.014664 
L 155.322384 96.37632 
L 155.357123 96.37632 
L 155.426411 95.312414 
L 155.495444 95.312414 
L 155.564225 94.674071 
L 155.666927 94.674071 
L 155.769072 94.035727 
L 155.836861 94.035727 
L 155.938089 92.333478 
L 156.038776 92.333478 
L 156.138926 91.056791 
L 156.337642 91.056791 
L 156.436218 90.205666 
L 156.501649 90.205666 
L 156.599372 89.780104 
L 156.631834 89.780104 
L 156.728884 88.503416 
L 156.761123 88.503416 
L 156.857511 87.226729 
L 156.88953 87.226729 
L 156.985263 86.588386 
L 157.017067 86.588386 
L 157.112155 85.311699 
L 157.175281 85.311699 
L 157.269574 84.247793 
L 157.300901 84.247793 
L 157.394569 83.396668 
L 157.425688 83.396668 
L 157.518738 82.119981 
L 157.549652 82.119981 
L 157.61133 81.481638 
L 157.672805 81.481638 
L 157.764644 80.630513 
L 157.795157 80.630513 
L 157.825621 79.992169 
L 157.916719 79.992169 
L 157.946987 79.566607 
L 158.0375 79.566607 
L 158.067574 78.077139 
L 158.187393 78.077139 
L 158.276759 76.800452 
L 158.306454 76.800452 
L 158.365703 76.162108 
L 158.454228 76.162108 
L 158.542339 75.736546 
L 158.659181 75.736546 
L 158.746339 75.098202 
L 158.775302 75.098202 
L 158.861925 74.459859 
L 158.890711 74.459859 
L 158.948151 73.821515 
L 159.033983 73.821515 
L 159.119425 72.544828 
L 159.14782 72.544828 
L 159.232748 71.906485 
L 159.260973 71.906485 
L 159.317295 70.204235 
L 159.429436 70.204235 
L 159.429436 69.991454 
L 159.568678 69.991454 
L 159.679334 68.927548 
L 159.761902 68.927548 
L 159.871431 67.863642 
L 159.980326 67.863642 
L 159.980326 67.43808 
L 160.196243 67.43808 
L 160.249837 67.012518 
L 160.329943 67.012518 
L 160.436223 66.374174 
L 160.515541 66.374174 
L 160.620781 65.523049 
L 160.673181 65.523049 
L 160.673181 65.310268 
L 160.82951 65.310268 
L 160.933013 64.246362 
L 160.9588 64.246362 
L 161.061595 63.608019 
L 161.087207 63.608019 
L 161.189305 63.182456 
L 161.290852 63.182456 
L 161.391854 62.118551 
L 161.467251 62.118551 
L 161.567313 61.054645 
L 161.592245 61.054645 
L 161.691646 60.20352 
L 161.765853 60.20352 
L 161.864343 58.714052 
L 161.888886 58.714052 
L 161.986735 57.862927 
L 162.03547 57.862927 
L 162.03547 57.437365 
L 162.180921 57.437365 
L 162.229155 56.58624 
L 162.349204 56.58624 
L 162.39701 54.458428 
L 162.468491 54.458428 
L 162.515995 54.032866 
L 162.634233 54.032866 
L 162.704821 52.96896 
L 162.751732 52.96896 
L 162.845206 52.330616 
L 162.868502 52.330616 
L 162.915008 51.266711 
L 163.007676 51.266711 
L 163.007676 51.053929 
L 163.214524 51.053929 
L 163.260183 50.202805 
L 163.351171 50.202805 
L 163.351171 49.777242 
L 163.509347 49.777242 
L 163.554297 49.138899 
L 163.621521 49.138899 
L 163.621521 48.713336 
L 163.79962 48.713336 
L 163.79962 48.500555 
L 163.997986 48.500555 
L 163.997986 48.287774 
L 164.150838 48.287774 
L 164.150838 48.074993 
L 164.345553 48.074993 
L 164.345553 47.862212 
L 164.602079 47.862212 
L 164.70794 47.223868 
L 164.729041 47.223868 
L 164.834193 46.585525 
L 164.855153 46.585525 
L 164.93876 45.7344 
L 165.042749 45.7344 
L 165.146166 45.096056 
L 165.269521 45.096056 
L 165.269521 44.670494 
L 165.634805 44.670494 
L 165.695002 43.819369 
L 165.794904 43.819369 
L 165.874446 43.181026 
L 165.953653 43.181026 
L 165.993131 42.755464 
L 166.130658 42.755464 
L 166.189291 42.329901 
L 166.344759 42.329901 
L 166.422014 41.904339 
L 166.518139 41.904339 
L 166.518139 41.691558 
L 166.670924 41.691558 
L 166.7279 41.053214 
L 166.860176 41.053214 
L 166.954094 40.202089 
L 167.047544 40.202089 
L 167.047544 39.989308 
L 167.251516 39.989308 
L 167.306762 39.138184 
L 167.398482 39.138184 
L 167.453299 38.712621 
L 167.544308 38.712621 
L 167.652941 38.074278 
L 167.975126 38.074278 
L 168.010586 37.648715 
L 168.169334 37.648715 
L 168.274427 36.797591 
L 168.361558 36.797591 
L 168.361558 36.584809 
L 168.551837 36.584809 
L 168.551837 36.372028 
L 168.689024 36.372028 
L 168.740211 35.946466 
L 168.859111 35.946466 
L 168.859111 35.733685 
L 168.994082 35.733685 
L 168.994082 35.520904 
L 169.194741 35.520904 
L 169.194741 35.308122 
L 169.310811 35.308122 
L 169.310811 35.095341 
L 169.800298 35.095341 
L 169.816397 34.669779 
L 169.944694 34.669779 
L 169.944694 34.456998 
L 170.087991 34.456998 
L 170.087991 34.244216 
L 170.464862 34.244216 
L 170.542436 33.605873 
L 170.619691 33.605873 
L 170.665892 33.180311 
L 170.803818 33.180311 
L 170.803818 32.967529 
L 171.046551 32.967529 
L 171.061619 32.541967 
L 171.286192 32.541967 
L 171.345629 32.116405 
L 171.741985 32.116405 
L 171.843395 31.690842 
L 171.987325 31.690842 
L 171.987325 31.478061 
L 172.115927 31.478061 
L 172.115927 31.26528 
L 172.566188 31.26528 
L 172.566188 31.052499 
L 173.208563 31.052499 
L 173.302386 30.414155 
L 173.620559 30.414155 
L 173.620559 30.201374 
L 174.190258 30.201374 
L 174.190258 29.988593 
L 174.73082 29.988593 
L 174.73082 29.775812 
L 174.940319 29.775812 
L 174.940319 29.563031 
L 175.614382 29.563031 
L 175.614382 29.350249 
L 177.10282 29.350249 
L 177.135565 28.924687 
L 177.265975 28.924687 
L 177.265975 28.711906 
L 178.03 28.711906 
L 178.03 28.499125 
L 178.553005 28.499125 
L 178.553005 28.286344 
L 182.620778 28.286344 
L 182.620778 28.073562 
L 183.182598 28.073562 
L 183.182598 27.860781 
L 184.258276 27.860781 
L 184.258276 27.648 
L 360.8064 27.648 
L 360.8064 27.648 
" style="fill: none; stroke: #000080; stroke-width: 1.5; stroke-linecap: square"/>
   </g>
   <g id="line2d_36">
    <defs>
     <path id="m9a125a6f6a" d="M 0 6 
C 1.591219 6 3.117479 5.367802 4.242641 4.242641 
C 5.367802 3.117479 6 1.591219 6 0 
C 6 -1.591219 5.367802 -3.117479 4.242641 -4.242641 
C 3.117479 -5.367802 1.591219 -6 0 -6 
C -1.591219 -6 -3.117479 -5.367802 -4.242641 -4.242641 
C -5.367802 -3.117479 -6 -1.591219 -6 0 
C -6 1.591219 -5.367802 3.117479 -4.242641 4.242641 
C -3.117479 5.367802 -1.591219 6 0 6 
z
" style="stroke: #000080; stroke-width: 1.5"/>
    </defs>
    <g>
     <use xlink:href="#m9a125a6f6a" x="83.678349" y="251.068235" style="fill-opacity: 0; stroke: #000080; stroke-width: 1.5"/>
     <use xlink:href="#m9a125a6f6a" x="135.932769" y="174.467012" style="fill-opacity: 0; stroke: #000080; stroke-width: 1.5"/>
     <use xlink:href="#m9a125a6f6a" x="161.542347" y="61.267426" style="fill-opacity: 0; stroke: #000080; stroke-width: 1.5"/>
     <use xlink:href="#m9a125a6f6a" x="184.258276" y="27.860781" style="fill-opacity: 0; stroke: #000080; stroke-width: 1.5"/>
     <use xlink:href="#m9a125a6f6a" x="184.258276" y="27.648" style="fill-opacity: 0; stroke: #000080; stroke-width: 1.5"/>
     <use xlink:href="#m9a125a6f6a" x="360.8064" y="27.648" style="fill-opacity: 0; stroke: #000080; stroke-width: 1.5"/>
    </g>
   </g>
   <g id="line2d_37">
    <path style="fill: none; stroke: #000080; stroke-width: 1.5; stroke-linecap: square"/>
    <g/>
   </g>
   <g id="line2d_38">
    <path d="M 104.860369 235.960772 
" clip-path="url(#p096d8c904d)" style="fill: none; stroke: #000080; stroke-width: 1.5; stroke-linecap: square"/>
    <defs>
     <path id="m64a8455391" d="M -12 12 
L 12 -12 
M -12 -12 
L 12 12 
" style="stroke: #000080"/>
    </defs>
    <g clip-path="url(#p096d8c904d)">
     <use xlink:href="#m64a8455391" x="104.860369" y="235.960772" style="fill: #000080; stroke: #000080"/>
    </g>
   </g>
   <g id="line2d_39">
    <defs>
     <path id="mac953eea85" d="M 0 1.5 
C 0.397805 1.5 0.77937 1.341951 1.06066 1.06066 
C 1.341951 0.77937 1.5 0.397805 1.5 0 
C 1.5 -0.397805 1.341951 -0.77937 1.06066 -1.06066 
C 0.77937 -1.341951 0.397805 -1.5 0 -1.5 
C -0.397805 -1.5 -0.77937 -1.341951 -1.06066 -1.06066 
C -1.341951 -0.77937 -1.5 -0.397805 -1.5 0 
C -1.5 0.397805 -1.341951 0.77937 -1.06066 1.06066 
C -0.77937 1.341951 -0.397805 1.5 0 1.5 
z
" style="stroke: #ff00ff"/>
    </defs>
    <g>
     <use xlink:href="#mac953eea85" x="185.402672" y="27.648" style="fill: #ff00ff; stroke: #ff00ff"/>
     <use xlink:href="#mac953eea85" x="185.402672" y="27.648" style="fill: #ff00ff; stroke: #ff00ff"/>
    </g>
   </g>
   <g id="line2d_40">
    <path d="M 36.933397 298.944 
L 36.933397 268.090729 
L 49.972572 268.090729 
L 49.972572 265.750136 
L 57.6 265.750136 
L 57.6 262.558419 
L 63.011746 262.558419 
L 63.011746 260.217826 
L 67.209423 260.217826 
L 67.209423 258.941139 
L 73.538988 258.941139 
L 73.538988 256.813327 
L 78.266603 256.813327 
L 78.266603 253.621609 
L 80.248597 253.621609 
L 80.248597 253.196047 
L 82.04153 253.196047 
L 82.04153 252.770485 
L 85.184077 252.770485 
L 85.184077 252.557704 
L 86.578163 252.557704 
L 86.578163 252.344922 
L 87.876026 252.344922 
L 87.876026 250.217111 
L 90.230539 250.217111 
L 90.230539 249.791548 
L 91.305777 249.791548 
L 91.305777 249.365986 
L 92.322865 249.365986 
L 92.322865 249.153205 
L 93.287772 249.153205 
L 93.287772 248.940424 
L 94.205591 248.940424 
L 94.205591 247.663736 
L 95.916911 247.663736 
L 95.916911 246.599831 
L 97.485448 246.599831 
L 97.485448 245.110362 
L 98.223251 245.110362 
L 98.223251 244.6848 
L 98.933205 244.6848 
L 98.933205 243.195332 
L 100.9152 243.195332 
L 100.9152 242.556988 
L 101.532027 242.556988 
L 101.532027 240.854739 
L 102.708132 240.854739 
L 102.708132 240.641958 
L 103.815014 240.641958 
L 103.815014 240.429176 
L 104.344952 240.429176 
L 104.344952 240.216395 
L 104.860369 240.216395 
L 104.860369 239.578052 
L 105.36204 239.578052 
L 105.36204 239.152489 
L 105.850679 239.152489 
L 105.850679 238.514146 
L 106.326946 238.514146 
L 106.326946 238.301365 
L 107.244765 238.301365 
L 107.244765 237.875802 
L 107.68741 237.875802 
L 107.68741 237.45024 
L 108.119879 237.45024 
L 108.119879 236.811896 
L 108.542628 236.811896 
L 108.542628 236.386334 
L 108.956085 236.386334 
L 108.956085 236.173553 
L 109.360651 236.173553 
L 109.360651 235.535209 
L 109.756698 235.535209 
L 109.756698 235.322428 
L 110.524623 235.322428 
L 110.524623 234.896866 
L 110.897141 234.896866 
L 110.897141 234.471304 
L 111.262425 234.471304 
L 111.262425 234.258522 
L 111.620752 234.258522 
L 111.620752 234.045741 
L 111.97238 234.045741 
L 111.97238 233.83296 
L 112.317555 233.83296 
L 112.317555 233.620179 
L 114.265316 233.620179 
L 114.265316 232.556273 
L 114.571202 232.556273 
L 114.571202 231.705148 
L 114.872193 231.705148 
L 114.872193 231.066805 
L 115.168444 231.066805 
L 115.168444 230.854024 
L 116.030193 230.854024 
L 116.030193 230.641242 
L 116.583514 230.641242 
L 116.583514 230.002899 
L 116.854188 230.002899 
L 116.854188 229.790118 
L 117.121023 229.790118 
L 117.121023 228.938993 
L 117.6436 228.938993 
L 117.6436 228.513431 
L 118.152051 228.513431 
L 118.152051 227.875087 
L 118.889854 227.875087 
L 118.889854 226.811181 
L 119.129494 226.811181 
L 119.129494 224.896151 
L 119.599808 224.896151 
L 119.599808 224.683369 
L 120.058649 224.683369 
L 120.058649 223.619464 
L 120.506564 223.619464 
L 120.506564 223.406682 
L 120.726585 223.406682 
L 120.726585 222.555558 
L 120.944062 222.555558 
L 120.944062 222.129995 
L 121.371615 222.129995 
L 121.371615 221.491652 
L 121.581803 221.491652 
L 121.581803 221.278871 
L 121.789667 221.278871 
L 121.789667 220.640527 
L 121.99526 220.640527 
L 121.99526 220.427746 
L 122.19863 220.427746 
L 122.19863 220.214965 
L 122.399825 220.214965 
L 122.399825 220.002184 
L 122.990812 220.002184 
L 122.990812 219.789402 
L 123.183753 219.789402 
L 123.183753 219.151059 
L 123.374735 219.151059 
L 123.374735 218.512715 
L 123.750979 218.512715 
L 123.750979 218.087153 
L 123.936316 218.087153 
L 123.936316 217.236028 
L 124.119844 217.236028 
L 124.119844 216.810466 
L 124.3016 216.810466 
L 124.3016 216.384904 
L 124.481616 216.384904 
L 124.481616 216.172122 
L 124.659926 216.172122 
L 124.659926 215.74656 
L 124.836562 215.74656 
L 124.836562 214.895435 
L 125.011554 214.895435 
L 125.011554 214.469873 
L 125.184934 214.469873 
L 125.184934 213.831529 
L 125.35673 213.831529 
L 125.35673 212.767624 
L 125.526971 212.767624 
L 125.526971 212.12928 
L 125.862901 212.12928 
L 125.862901 211.278155 
L 126.028642 211.278155 
L 126.028642 211.065374 
L 126.192937 211.065374 
L 126.192937 210.214249 
L 126.355808 210.214249 
L 126.355808 210.001468 
L 126.836129 210.001468 
L 126.836129 208.937562 
L 126.993549 208.937562 
L 126.993549 207.660875 
L 127.149662 207.660875 
L 127.149662 207.022532 
L 127.304491 207.022532 
L 127.304491 206.384188 
L 127.610376 206.384188 
L 127.610376 205.745845 
L 127.761474 205.745845 
L 127.761474 205.533064 
L 127.911368 205.533064 
L 127.911368 205.320282 
L 128.060076 205.320282 
L 128.060076 204.89472 
L 128.207619 204.89472 
L 128.207619 204.256376 
L 128.354013 204.256376 
L 128.354013 203.830814 
L 128.499277 203.830814 
L 128.499277 203.618033 
L 128.643427 203.618033 
L 128.643427 203.192471 
L 128.786481 203.192471 
L 128.786481 202.979689 
L 128.928456 202.979689 
L 128.928456 202.341346 
L 129.622688 202.341346 
L 129.622688 201.915784 
L 129.758512 201.915784 
L 129.758512 200.213534 
L 129.893363 200.213534 
L 129.893363 199.362409 
L 130.027253 199.362409 
L 130.027253 198.936847 
L 130.160198 198.936847 
L 130.160198 198.511285 
L 130.292209 198.511285 
L 130.292209 198.085722 
L 130.682774 198.085722 
L 130.682774 197.66016 
L 130.811181 197.66016 
L 130.811181 197.234598 
L 131.191226 197.234598 
L 131.191226 196.383473 
L 131.31622 196.383473 
L 131.31622 195.957911 
L 131.440389 195.957911 
L 131.440389 195.745129 
L 131.563744 195.745129 
L 131.563744 194.894005 
L 131.808053 194.894005 
L 131.808053 194.681224 
L 131.929028 194.681224 
L 131.929028 194.255661 
L 132.04923 194.255661 
L 132.04923 193.617318 
L 132.168669 193.617318 
L 132.168669 193.404536 
L 132.287354 193.404536 
L 132.287354 193.191755 
L 132.405295 193.191755 
L 132.405295 192.340631 
L 132.869802 192.340631 
L 132.869802 191.702287 
L 132.984158 191.702287 
L 132.984158 191.489506 
L 133.097823 191.489506 
L 133.097823 191.276725 
L 133.323114 191.276725 
L 133.323114 190.851162 
L 133.434756 190.851162 
L 133.545739 190.212819 
L 133.656071 190.212819 
L 133.765759 187.446664 
L 133.983236 187.446664 
L 133.983236 187.233882 
L 134.198228 187.233882 
L 134.304809 186.595539 
L 134.41079 186.595539 
L 134.41079 186.382758 
L 134.620977 186.382758 
L 134.620977 185.744414 
L 134.931919 185.744414 
L 135.034434 185.106071 
L 135.136394 185.106071 
L 135.237805 184.467727 
L 135.338671 184.467727 
L 135.338671 183.19104 
L 135.538796 183.19104 
L 135.538796 182.978259 
L 135.736814 182.978259 
L 135.736814 181.914353 
L 136.029987 181.914353 
L 136.029987 181.488791 
L 136.222928 181.488791 
L 136.318661 180.850447 
L 136.508678 180.850447 
L 136.602972 180.212104 
L 136.696795 180.212104 
L 136.696795 179.999322 
L 136.97549 179.999322 
L 137.067478 178.935416 
L 137.250116 178.935416 
L 137.340774 178.297073 
L 137.520791 178.297073 
L 137.610157 177.020386 
L 137.699101 177.020386 
L 137.699101 176.594824 
L 137.875736 176.594824 
L 137.963436 175.743699 
L 138.050729 175.743699 
L 138.050729 175.105355 
L 138.224108 175.105355 
L 138.310202 174.679793 
L 138.481218 174.679793 
L 138.566146 173.190325 
L 138.650692 173.190325 
L 138.73486 172.3392 
L 138.985129 172.3392 
L 138.985129 171.488075 
L 139.150143 171.488075 
L 139.150143 171.062513 
L 139.313723 171.062513 
L 139.394983 170.424169 
L 139.475893 170.424169 
L 139.475893 169.573045 
L 139.796097 169.573045 
L 139.796097 169.360264 
L 140.110942 169.360264 
L 140.188837 168.72192 
L 140.343665 168.72192 
L 140.343665 167.870795 
L 140.49723 167.870795 
L 140.573544 167.232452 
L 140.649551 167.232452 
L 140.649551 167.019671 
L 140.800648 167.019671 
L 140.875745 166.594108 
L 141.099251 166.594108 
L 141.173167 166.168546 
L 141.246793 166.168546 
L 141.320133 165.530202 
L 141.393187 165.530202 
L 141.465959 163.615172 
L 141.538451 163.615172 
L 141.538451 163.189609 
L 141.825656 163.189609 
L 141.896777 162.764047 
L 142.038218 162.764047 
L 142.108542 161.700141 
L 142.178603 161.700141 
L 142.178603 161.061798 
L 142.45627 161.061798 
L 142.525051 160.210673 
L 142.593581 160.210673 
L 142.661862 159.359548 
L 142.797687 159.359548 
L 142.797687 159.146767 
L 142.932537 159.146767 
L 142.999601 158.082861 
L 143.199372 158.082861 
L 143.199372 157.87008 
L 143.397043 157.87008 
L 143.462475 157.018955 
L 143.592659 157.018955 
L 143.592659 156.806174 
L 143.786262 156.806174 
L 143.786262 156.593393 
L 143.914232 156.593393 
L 143.977892 155.529487 
L 144.041338 155.529487 
L 144.10457 154.2528 
L 144.355394 154.2528 
L 144.417581 153.614456 
L 144.602918 153.614456 
L 144.602918 153.401675 
L 144.786447 153.401675 
L 144.847227 152.763332 
L 145.088405 152.763332 
L 145.148219 152.337769 
L 145.207843 152.337769 
L 145.207843 151.061082 
L 145.326529 151.061082 
L 145.326529 150.848301 
L 145.44447 150.848301 
L 145.503164 149.358833 
L 145.561676 149.358833 
L 145.561676 149.146052 
L 145.678157 149.146052 
L 145.678157 148.507708 
L 145.851536 148.507708 
L 145.908976 148.082146 
L 146.023332 148.082146 
L 146.080251 147.656584 
L 146.136998 147.656584 
L 146.136998 147.231021 
L 146.24998 147.231021 
L 146.24998 146.805459 
L 146.362288 146.805459 
L 146.362288 146.379896 
L 146.47393 146.379896 
L 146.584913 145.528772 
L 146.695245 145.528772 
L 146.695245 145.315991 
L 146.913986 145.315991 
L 147.022411 143.613741 
L 147.183884 143.613741 
L 147.237402 142.975398 
L 147.343984 142.975398 
L 147.343984 142.337054 
L 147.502732 142.337054 
L 147.502732 142.124273 
L 147.919625 142.124273 
L 148.022421 140.634805 
L 148.073609 140.634805 
L 148.175569 139.996461 
L 148.226342 139.996461 
L 148.226342 139.78368 
L 148.377845 139.78368 
L 148.377845 139.570899 
L 148.57797 139.570899 
L 148.57797 139.358118 
L 148.775988 139.358118 
L 148.874221 138.932555 
L 148.971944 138.932555 
L 149.020615 138.506993 
L 149.117582 138.506993 
L 149.117582 137.230306 
L 149.357835 137.230306 
L 149.357835 136.379181 
L 149.500528 136.379181 
L 149.500528 136.1664 
L 149.73597 136.1664 
L 149.73597 135.953619 
L 149.875833 135.953619 
L 149.968501 135.315275 
L 150.014665 135.315275 
L 150.014665 135.102494 
L 150.243797 135.102494 
L 150.289291 134.676932 
L 150.649331 134.676932 
L 150.693856 134.251369 
L 150.78259 134.251369 
L 150.78259 133.825807 
L 151.00261 133.825807 
L 151.046307 133.187464 
L 151.263283 133.187464 
L 151.349377 131.910776 
L 151.520392 131.910776 
L 151.520392 131.697995 
L 151.689867 131.697995 
L 151.689867 131.485214 
L 151.899585 131.485214 
L 151.982822 130.421308 
L 152.065693 130.421308 
L 152.065693 130.208527 
L 152.189318 130.208527 
L 152.271285 129.782965 
L 152.434157 129.782965 
L 152.434157 129.357402 
L 152.675851 129.357402 
L 152.75573 128.719059 
L 153.189104 128.719059 
L 153.266838 128.293496 
L 153.305585 128.293496 
L 153.38284 127.655153 
L 153.459779 127.655153 
L 153.536404 126.804028 
L 153.650761 126.804028 
L 153.650761 126.591247 
L 153.764426 126.591247 
L 153.839823 125.527341 
L 153.914919 125.527341 
L 153.914919 125.31456 
L 154.027004 125.31456 
L 154.064218 124.676216 
L 154.138425 124.676216 
L 154.17542 123.612311 
L 154.285968 123.612311 
L 154.285968 123.399529 
L 154.613767 123.399529 
L 154.721776 121.69728 
L 154.793439 121.69728 
L 154.900425 120.420593 
L 154.935952 120.420593 
L 154.971412 119.782249 
L 155.112587 119.782249 
L 155.147716 119.356687 
L 155.357123 119.356687 
L 155.460959 117.654438 
L 155.495444 117.654438 
L 155.495444 117.441656 
L 155.666927 117.441656 
L 155.701037 116.803313 
L 155.870664 116.803313 
L 155.971711 115.952188 
L 156.005274 115.952188 
L 156.072219 114.888282 
L 156.172192 114.888282 
L 156.271636 114.249939 
L 156.436218 114.249939 
L 156.53428 113.398814 
L 156.566854 113.398814 
L 156.631834 112.122127 
L 156.696589 112.122127 
L 156.761123 111.696565 
L 156.825436 111.696565 
L 156.88953 110.419878 
L 156.953406 110.419878 
L 156.953406 110.207096 
L 157.080512 110.207096 
L 157.143744 109.781534 
L 157.238196 109.781534 
L 157.269574 108.292066 
L 157.363398 108.292066 
L 157.456756 107.440941 
L 157.487772 107.440941 
L 157.580516 104.674786 
L 157.642093 104.674786 
L 157.703468 103.823661 
L 157.764644 103.823661 
L 157.856036 102.334193 
L 157.946987 102.334193 
L 157.977206 101.695849 
L 158.127579 101.695849 
L 158.15751 100.844725 
L 158.336102 100.844725 
L 158.424766 100.206381 
L 158.454228 100.206381 
L 158.542339 98.929694 
L 158.717331 98.929694 
L 158.804221 98.078569 
L 158.833095 98.078569 
L 158.919453 96.801882 
L 159.005416 96.801882 
L 159.005416 96.589101 
L 159.119425 96.589101 
L 159.176172 95.737976 
L 159.260973 95.737976 
L 159.345393 94.035727 
L 159.401463 94.035727 
L 159.457367 93.397384 
L 159.513105 93.397384 
L 159.624087 92.120696 
L 159.706897 92.120696 
L 159.816746 90.631228 
L 159.871431 90.631228 
L 159.953161 89.354541 
L 160.034538 89.354541 
L 160.142495 88.077854 
L 160.169388 88.077854 
L 160.276577 87.013948 
L 160.329943 87.013948 
L 160.383158 85.737261 
L 160.541906 85.737261 
L 160.646999 84.673355 
L 160.699326 84.673355 
L 160.803545 83.183887 
L 160.881333 83.183887 
L 160.907191 81.056075 
L 161.010268 81.056075 
L 161.112783 78.928264 
L 161.189305 78.928264 
L 161.265517 77.226014 
L 161.316153 77.226014 
L 161.366654 76.800452 
L 161.442152 76.800452 
L 161.492316 75.098202 
L 161.617145 75.098202 
L 161.691646 74.459859 
L 161.790524 74.459859 
L 161.864343 72.544828 
L 161.937874 72.544828 
L 162.011118 71.05536 
L 162.05979 71.05536 
L 162.156757 70.417016 
L 162.180921 70.417016 
L 162.180921 69.565892 
L 162.349204 69.565892 
L 162.373122 68.501986 
L 162.539702 68.501986 
L 162.56338 67.863642 
L 162.704821 67.863642 
L 162.728291 67.225299 
L 162.845206 67.225299 
L 162.938218 65.735831 
L 162.961399 65.735831 
L 163.030771 65.097487 
L 163.122872 65.097487 
L 163.214524 63.608019 
L 163.260183 63.608019 
L 163.351171 62.544113 
L 163.373849 62.544113 
L 163.419123 62.118551 
L 163.509347 62.118551 
L 163.531835 61.054645 
L 163.621521 61.054645 
L 163.643876 60.416301 
L 163.73303 60.416301 
L 163.821764 59.139614 
L 163.865975 59.139614 
L 163.932096 58.288489 
L 163.997986 58.288489 
L 164.107292 57.224584 
L 164.129077 57.224584 
L 164.150838 56.799021 
L 164.280872 56.799021 
L 164.345553 56.373459 
L 164.495618 56.373459 
L 164.495618 56.160678 
L 164.70794 56.160678 
L 164.729041 55.735115 
L 164.917893 55.735115 
L 165.001222 55.309553 
L 165.084184 55.309553 
L 165.146166 54.671209 
L 165.269521 54.671209 
L 165.35131 53.607304 
L 165.51383 53.607304 
L 165.614697 52.756179 
L 165.695002 52.756179 
L 165.794904 51.905054 
L 165.814821 51.905054 
L 165.874446 51.266711 
L 165.993131 51.266711 
L 166.071841 50.841148 
L 166.169767 50.841148 
L 166.228279 50.415586 
L 166.306012 50.415586 
L 166.364103 49.777242 
L 166.422014 49.777242 
L 166.422014 49.564461 
L 166.689935 49.564461 
L 166.784704 48.500555 
L 167.103392 48.500555 
L 167.196106 47.649431 
L 167.214594 47.649431 
L 167.288365 47.011087 
L 167.361848 47.011087 
L 167.435044 45.947181 
L 167.562457 45.947181 
L 167.670986 45.096056 
L 167.689013 45.096056 
L 167.796816 44.670494 
L 167.814723 44.670494 
L 167.904005 43.393807 
L 168.063651 43.393807 
L 168.081306 42.755464 
L 168.204431 42.755464 
L 168.256952 41.904339 
L 168.326754 41.904339 
L 168.430973 41.478776 
L 168.465585 41.478776 
L 168.482867 40.840433 
L 168.706102 40.840433 
L 168.706102 40.627652 
L 168.825216 40.627652 
L 168.909839 39.563746 
L 169.194741 39.563746 
L 169.294273 38.49984 
L 169.310811 38.49984 
L 169.409732 37.648715 
L 169.540824 37.648715 
L 169.622295 37.010372 
L 170.056241 37.010372 
L 170.135514 36.372028 
L 170.727317 36.372028 
L 170.727317 36.159247 
L 171.031472 36.159247 
L 171.121768 35.308122 
L 171.345629 35.308122 
L 171.345629 35.095341 
L 171.771015 35.095341 
L 171.872269 34.244216 
L 172.015979 34.244216 
L 172.015979 34.031435 
L 172.271923 34.031435 
L 172.271923 33.818654 
L 172.46861 33.818654 
L 172.46861 33.605873 
L 172.828518 33.605873 
L 172.828518 33.393092 
L 172.951515 33.393092 
L 173.0195 32.967529 
L 173.073712 32.967529 
L 173.168209 32.541967 
L 173.35579 32.541967 
L 173.448884 31.903624 
L 173.646832 31.903624 
L 173.686173 31.478061 
L 173.84272 31.478061 
L 173.920507 31.052499 
L 174.1775 31.052499 
L 174.1775 30.839718 
L 174.292011 30.839718 
L 174.292011 30.626936 
L 174.443616 30.626936 
L 174.443616 30.414155 
L 174.668757 30.414155 
L 174.693607 29.988593 
L 175.062472 29.988593 
L 175.086808 29.563031 
L 175.519553 29.563031 
L 175.519553 29.350249 
L 175.930944 29.350249 
L 175.930944 29.137468 
L 176.514738 29.137468 
L 176.514738 28.924687 
L 176.72768 28.924687 
L 176.749956 28.499125 
L 178.277932 28.499125 
L 178.277932 28.286344 
L 178.774201 28.286344 
L 178.873892 27.860781 
L 185.402672 27.860781 
L 185.402672 27.648 
L 360.8064 27.648 
L 360.8064 27.648 
" style="fill: none; stroke: #ff00ff; stroke-width: 1.5; stroke-linecap: square"/>
   </g>
   <g id="line2d_41">
    <defs>
     <path id="m740b8b5846" d="M -0 8.485281 
L 5.091169 0 
L 0 -8.485281 
L -5.091169 -0 
z
" style="stroke: #ff00ff; stroke-width: 1.5; stroke-linejoin: miter"/>
    </defs>
    <g>
     <use xlink:href="#m740b8b5846" x="131.31622" y="196.170692" style="fill-opacity: 0; stroke: #ff00ff; stroke-width: 1.5; stroke-linejoin: miter"/>
     <use xlink:href="#m740b8b5846" x="160.383158" y="85.737261" style="fill-opacity: 0; stroke: #ff00ff; stroke-width: 1.5; stroke-linejoin: miter"/>
     <use xlink:href="#m740b8b5846" x="185.402672" y="27.860781" style="fill-opacity: 0; stroke: #ff00ff; stroke-width: 1.5; stroke-linejoin: miter"/>
     <use xlink:href="#m740b8b5846" x="185.402672" y="27.648" style="fill-opacity: 0; stroke: #ff00ff; stroke-width: 1.5; stroke-linejoin: miter"/>
     <use xlink:href="#m740b8b5846" x="185.402672" y="27.648" style="fill-opacity: 0; stroke: #ff00ff; stroke-width: 1.5; stroke-linejoin: miter"/>
     <use xlink:href="#m740b8b5846" x="360.8064" y="27.648" style="fill-opacity: 0; stroke: #ff00ff; stroke-width: 1.5; stroke-linejoin: miter"/>
    </g>
   </g>
   <g id="line2d_42">
    <path style="fill: none; stroke: #ff00ff; stroke-width: 1.5; stroke-linecap: square"/>
    <g/>
   </g>
   <g id="line2d_43">
    <path d="M 104.344952 240.216395 
" clip-path="url(#p096d8c904d)" style="fill: none; stroke: #ff00ff; stroke-width: 1.5; stroke-linecap: square"/>
    <defs>
     <path id="m619c1bd2aa" d="M -12 12 
L 12 -12 
M -12 -12 
L 12 12 
" style="stroke: #ff00ff"/>
    </defs>
    <g clip-path="url(#p096d8c904d)">
     <use xlink:href="#m619c1bd2aa" x="104.344952" y="240.216395" style="fill: #ff00ff; stroke: #ff00ff"/>
    </g>
   </g>
   <g id="line2d_44">
    <path d="M 360.8064 27.648 
L 380.514816 293.51808 
" style="fill: none; stroke: #ff00ff; stroke-width: 1.5; stroke-linecap: square"/>
    <g>
     <use xlink:href="#m740b8b5846" x="360.8064" y="27.648" style="fill-opacity: 0; stroke: #ff00ff; stroke-width: 1.5; stroke-linejoin: miter"/>
     <use xlink:href="#m740b8b5846" x="380.514816" y="293.51808" style="fill-opacity: 0; stroke: #ff00ff; stroke-width: 1.5; stroke-linejoin: miter"/>
    </g>
   </g>
   <g id="line2d_45">
    <path d="M 360.8064 27.648 
L 380.514816 163.296 
" style="fill: none; stroke: #000080; stroke-width: 1.5; stroke-linecap: square"/>
    <g>
     <use xlink:href="#m9a125a6f6a" x="360.8064" y="27.648" style="fill-opacity: 0; stroke: #000080; stroke-width: 1.5"/>
     <use xlink:href="#m9a125a6f6a" x="380.514816" y="163.296" style="fill-opacity: 0; stroke: #000080; stroke-width: 1.5"/>
    </g>
   </g>
   <g id="line2d_46">
    <path d="M 360.8064 298.944 
L 360.8064 27.648 
" style="fill: none; stroke: #000000; stroke-width: 1.5; stroke-linecap: square"/>
   </g>
   <g id="patch_3">
    <path d="M 57.6 298.944 
L 360.8064 298.944 
" style="fill: none; stroke: #000000; stroke-width: 0.8; stroke-linejoin: miter; stroke-linecap: square"/>
   </g>
   <g id="patch_4">
    <path d="M 57.6 27.648 
L 360.8064 27.648 
" style="fill: none; stroke: #000000; stroke-width: 0.8; stroke-linejoin: miter; stroke-linecap: square"/>
   </g>
   <g id="text_13">
    <!-- ex -->
    <g transform="translate(386.578944 297.381205)scale(0.14 -0.14)">
     <defs>
      <path id="DejaVuSans-78" d="M 3513 3500 
L 2247 1797 
L 3578 0 
L 2900 0 
L 1881 1375 
L 863 0 
L 184 0 
L 1544 1831 
L 300 3500 
L 978 3500 
L 1906 2253 
L 2834 3500 
L 3513 3500 
z
" transform="scale(0.015625)"/>
     </defs>
     <use xlink:href="#DejaVuSans-65"/>
     <use xlink:href="#DejaVuSans-78" x="59.773438"/>
    </g>
   </g>
   <g id="text_14">
    <!-- ex -->
    <g transform="translate(386.578944 167.159125)scale(0.14 -0.14)">
     <use xlink:href="#DejaVuSans-65"/>
     <use xlink:href="#DejaVuSans-78" x="59.773438"/>
    </g>
   </g>
   <g id="text_15">
    <!-- best 2009 -->
    <g transform="translate(386.578944 36.937045)scale(0.14 -0.14)">
     <defs>
      <path id="DejaVuSans-62" d="M 3116 1747 
Q 3116 2381 2855 2742 
Q 2594 3103 2138 3103 
Q 1681 3103 1420 2742 
Q 1159 2381 1159 1747 
Q 1159 1113 1420 752 
Q 1681 391 2138 391 
Q 2594 391 2855 752 
Q 3116 1113 3116 1747 
z
M 1159 2969 
Q 1341 3281 1617 3432 
Q 1894 3584 2278 3584 
Q 2916 3584 3314 3078 
Q 3713 2572 3713 1747 
Q 3713 922 3314 415 
Q 2916 -91 2278 -91 
Q 1894 -91 1617 61 
Q 1341 213 1159 525 
L 1159 0 
L 581 0 
L 581 4863 
L 1159 4863 
L 1159 2969 
z
" transform="scale(0.015625)"/>
      <path id="DejaVuSans-39" d="M 703 97 
L 703 672 
Q 941 559 1184 500 
Q 1428 441 1663 441 
Q 2288 441 2617 861 
Q 2947 1281 2994 2138 
Q 2813 1869 2534 1725 
Q 2256 1581 1919 1581 
Q 1219 1581 811 2004 
Q 403 2428 403 3163 
Q 403 3881 828 4315 
Q 1253 4750 1959 4750 
Q 2769 4750 3195 4129 
Q 3622 3509 3622 2328 
Q 3622 1225 3098 567 
Q 2575 -91 1691 -91 
Q 1453 -91 1209 -44 
Q 966 3 703 97 
z
M 1959 2075 
Q 2384 2075 2632 2365 
Q 2881 2656 2881 3163 
Q 2881 3666 2632 3958 
Q 2384 4250 1959 4250 
Q 1534 4250 1286 3958 
Q 1038 3666 1038 3163 
Q 1038 2656 1286 2365 
Q 1534 2075 1959 2075 
z
" transform="scale(0.015625)"/>
     </defs>
     <use xlink:href="#DejaVuSans-62"/>
     <use xlink:href="#DejaVuSans-65" x="63.476562"/>
     <use xlink:href="#DejaVuSans-73" x="125"/>
     <use xlink:href="#DejaVuSans-74" x="177.099609"/>
     <use xlink:href="#DejaVuSans-20" x="216.308594"/>
     <use xlink:href="#DejaVuSans-32" x="248.095703"/>
     <use xlink:href="#DejaVuSans-30" x="311.71875"/>
     <use xlink:href="#DejaVuSans-30" x="375.341797"/>
     <use xlink:href="#DejaVuSans-39" x="438.964844"/>
    </g>
   </g>
   <g id="text_16">
    <!-- bbob f14, 3-D -->
    <g transform="translate(60.632064 38.111366)scale(0.102 -0.102)">
     <defs>
      <path id="DejaVuSans-33" d="M 2597 2516 
Q 3050 2419 3304 2112 
Q 3559 1806 3559 1356 
Q 3559 666 3084 287 
Q 2609 -91 1734 -91 
Q 1441 -91 1130 -33 
Q 819 25 488 141 
L 488 750 
Q 750 597 1062 519 
Q 1375 441 1716 441 
Q 2309 441 2620 675 
Q 2931 909 2931 1356 
Q 2931 1769 2642 2001 
Q 2353 2234 1838 2234 
L 1294 2234 
L 1294 2753 
L 1863 2753 
Q 2328 2753 2575 2939 
Q 2822 3125 2822 3475 
Q 2822 3834 2567 4026 
Q 2313 4219 1838 4219 
Q 1578 4219 1281 4162 
Q 984 4106 628 3988 
L 628 4550 
Q 988 4650 1302 4700 
Q 1616 4750 1894 4750 
Q 2613 4750 3031 4423 
Q 3450 4097 3450 3541 
Q 3450 3153 3228 2886 
Q 3006 2619 2597 2516 
z
" transform="scale(0.015625)"/>
      <path id="DejaVuSans-44" d="M 1259 4147 
L 1259 519 
L 2022 519 
Q 2988 519 3436 956 
Q 3884 1394 3884 2338 
Q 3884 3275 3436 3711 
Q 2988 4147 2022 4147 
L 1259 4147 
z
M 628 4666 
L 1925 4666 
Q 3281 4666 3915 4102 
Q 4550 3538 4550 2338 
Q 4550 1131 3912 565 
Q 3275 0 1925 0 
L 628 0 
L 628 4666 
z
" transform="scale(0.015625)"/>
     </defs>
     <use xlink:href="#DejaVuSans-62"/>
     <use xlink:href="#DejaVuSans-62" x="63.476562"/>
     <use xlink:href="#DejaVuSans-6f" x="126.953125"/>
     <use xlink:href="#DejaVuSans-62" x="188.134766"/>
     <use xlink:href="#DejaVuSans-20" x="251.611328"/>
     <use xlink:href="#DejaVuSans-66" x="283.398438"/>
     <use xlink:href="#DejaVuSans-31" x="318.603516"/>
     <use xlink:href="#DejaVuSans-34" x="382.226562"/>
     <use xlink:href="#DejaVuSans-2c" x="445.849609"/>
     <use xlink:href="#DejaVuSans-20" x="477.636719"/>
     <use xlink:href="#DejaVuSans-33" x="509.423828"/>
     <use xlink:href="#DejaVuSans-2d" x="573.046875"/>
     <use xlink:href="#DejaVuSans-44" x="609.130859"/>
    </g>
    <!-- 51 targets: 100..1e-08 -->
    <g transform="translate(60.632064 49.533135)scale(0.102 -0.102)">
     <defs>
      <path id="DejaVuSans-35" d="M 691 4666 
L 3169 4666 
L 3169 4134 
L 1269 4134 
L 1269 2991 
Q 1406 3038 1543 3061 
Q 1681 3084 1819 3084 
Q 2600 3084 3056 2656 
Q 3513 2228 3513 1497 
Q 3513 744 3044 326 
Q 2575 -91 1722 -91 
Q 1428 -91 1123 -41 
Q 819 9 494 109 
L 494 744 
Q 775 591 1075 516 
Q 1375 441 1709 441 
Q 2250 441 2565 725 
Q 2881 1009 2881 1497 
Q 2881 1984 2565 2268 
Q 2250 2553 1709 2553 
Q 1456 2553 1204 2497 
Q 953 2441 691 2322 
L 691 4666 
z
" transform="scale(0.015625)"/>
      <path id="DejaVuSans-3a" d="M 750 794 
L 1409 794 
L 1409 0 
L 750 0 
L 750 794 
z
M 750 3309 
L 1409 3309 
L 1409 2516 
L 750 2516 
L 750 3309 
z
" transform="scale(0.015625)"/>
     </defs>
     <use xlink:href="#DejaVuSans-35"/>
     <use xlink:href="#DejaVuSans-31" x="63.623047"/>
     <use xlink:href="#DejaVuSans-20" x="127.246094"/>
     <use xlink:href="#DejaVuSans-74" x="159.033203"/>
     <use xlink:href="#DejaVuSans-61" x="198.242188"/>
     <use xlink:href="#DejaVuSans-72" x="259.521484"/>
     <use xlink:href="#DejaVuSans-67" x="298.884766"/>
     <use xlink:href="#DejaVuSans-65" x="362.361328"/>
     <use xlink:href="#DejaVuSans-74" x="423.884766"/>
     <use xlink:href="#DejaVuSans-73" x="463.09375"/>
     <use xlink:href="#DejaVuSans-3a" x="515.193359"/>
     <use xlink:href="#DejaVuSans-20" x="548.884766"/>
     <use xlink:href="#DejaVuSans-31" x="580.671875"/>
     <use xlink:href="#DejaVuSans-30" x="644.294922"/>
     <use xlink:href="#DejaVuSans-30" x="707.917969"/>
     <use xlink:href="#DejaVuSans-2e" x="771.541016"/>
     <use xlink:href="#DejaVuSans-2e" x="803.328125"/>
     <use xlink:href="#DejaVuSans-31" x="835.115234"/>
     <use xlink:href="#DejaVuSans-65" x="898.738281"/>
     <use xlink:href="#DejaVuSans-2d" x="960.261719"/>
     <use xlink:href="#DejaVuSans-30" x="996.345703"/>
     <use xlink:href="#DejaVuSans-38" x="1059.96875"/>
    </g>
    <!-- 25 instances -->
    <g transform="translate(60.632064 60.954904)scale(0.102 -0.102)">
     <use xlink:href="#DejaVuSans-32"/>
     <use xlink:href="#DejaVuSans-35" x="63.623047"/>
     <use xlink:href="#DejaVuSans-20" x="127.246094"/>
     <use xlink:href="#DejaVuSans-69" x="159.033203"/>
     <use xlink:href="#DejaVuSans-6e" x="186.816406"/>
     <use xlink:href="#DejaVuSans-73" x="250.195312"/>
     <use xlink:href="#DejaVuSans-74" x="302.294922"/>
     <use xlink:href="#DejaVuSans-61" x="341.503906"/>
     <use xlink:href="#DejaVuSans-6e" x="402.783203"/>
     <use xlink:href="#DejaVuSans-63" x="466.162109"/>
     <use xlink:href="#DejaVuSans-65" x="521.142578"/>
     <use xlink:href="#DejaVuSans-73" x="582.666016"/>
    </g>
   </g>
   <g id="text_17">
    <!-- v2.6 -->
    <g style="fill: #808080" transform="translate(198.292262 294.151352)scale(0.1 -0.1)">
     <use xlink:href="#DejaVuSans-76"/>
     <use xlink:href="#DejaVuSans-32" x="59.179688"/>
     <use xlink:href="#DejaVuSans-2e" x="122.802734"/>
     <use xlink:href="#DejaVuSans-36" x="154.589844"/>
    </g>
   </g>
   <g id="text_18">
    <!-- 14 Sum of different powers -->
    <g transform="translate(72.964137 21.648)scale(0.2 -0.2)">
     <defs>
      <path id="DejaVuSans-53" d="M 3425 4513 
L 3425 3897 
Q 3066 4069 2747 4153 
Q 2428 4238 2131 4238 
Q 1616 4238 1336 4038 
Q 1056 3838 1056 3469 
Q 1056 3159 1242 3001 
Q 1428 2844 1947 2747 
L 2328 2669 
Q 3034 2534 3370 2195 
Q 3706 1856 3706 1288 
Q 3706 609 3251 259 
Q 2797 -91 1919 -91 
Q 1588 -91 1214 -16 
Q 841 59 441 206 
L 441 856 
Q 825 641 1194 531 
Q 1563 422 1919 422 
Q 2459 422 2753 634 
Q 3047 847 3047 1241 
Q 3047 1584 2836 1778 
Q 2625 1972 2144 2069 
L 1759 2144 
Q 1053 2284 737 2584 
Q 422 2884 422 3419 
Q 422 4038 858 4394 
Q 1294 4750 2059 4750 
Q 2388 4750 2728 4690 
Q 3069 4631 3425 4513 
z
" transform="scale(0.015625)"/>
      <path id="DejaVuSans-77" d="M 269 3500 
L 844 3500 
L 1563 769 
L 2278 3500 
L 2956 3500 
L 3675 769 
L 4391 3500 
L 4966 3500 
L 4050 0 
L 3372 0 
L 2619 2869 
L 1863 0 
L 1184 0 
L 269 3500 
z
" transform="scale(0.015625)"/>
     </defs>
     <use xlink:href="#DejaVuSans-31"/>
     <use xlink:href="#DejaVuSans-34" x="63.623047"/>
     <use xlink:href="#DejaVuSans-20" x="127.246094"/>
     <use xlink:href="#DejaVuSans-53" x="159.033203"/>
     <use xlink:href="#DejaVuSans-75" x="222.509766"/>
     <use xlink:href="#DejaVuSans-6d" x="285.888672"/>
     <use xlink:href="#DejaVuSans-20" x="383.300781"/>
     <use xlink:href="#DejaVuSans-6f" x="415.087891"/>
     <use xlink:href="#DejaVuSans-66" x="476.269531"/>
     <use xlink:href="#DejaVuSans-20" x="511.474609"/>
     <use xlink:href="#DejaVuSans-64" x="543.261719"/>
     <use xlink:href="#DejaVuSans-69" x="606.738281"/>
     <use xlink:href="#DejaVuSans-66" x="634.521484"/>
     <use xlink:href="#DejaVuSans-66" x="669.726562"/>
     <use xlink:href="#DejaVuSans-65" x="704.931641"/>
     <use xlink:href="#DejaVuSans-72" x="766.455078"/>
     <use xlink:href="#DejaVuSans-65" x="805.318359"/>
     <use xlink:href="#DejaVuSans-6e" x="866.841797"/>
     <use xlink:href="#DejaVuSans-74" x="930.220703"/>
     <use xlink:href="#DejaVuSans-20" x="969.429688"/>
     <use xlink:href="#DejaVuSans-70" x="1001.216797"/>
     <use xlink:href="#DejaVuSans-6f" x="1064.693359"/>
     <use xlink:href="#DejaVuSans-77" x="1125.875"/>
     <use xlink:href="#DejaVuSans-65" x="1207.662109"/>
     <use xlink:href="#DejaVuSans-72" x="1269.185547"/>
     <use xlink:href="#DejaVuSans-73" x="1310.298828"/>
    </g>
   </g>
  </g>
 </g>
 <defs>
  <clipPath id="p096d8c904d">
   <rect x="57.6" y="27.648" width="303.2064" height="271.296"/>
  </clipPath>
 </defs>
</svg>
