<?xml version="1.0" encoding="utf-8" standalone="no"?>
<!DOCTYPE svg PUBLIC "-//W3C//DTD SVG 1.1//EN"
  "http://www.w3.org/Graphics/SVG/1.1/DTD/svg11.dtd">
<svg xmlns:xlink="http://www.w3.org/1999/xlink" width="460.8pt" height="345.6pt" viewBox="0 0 460.8 345.6" xmlns="http://www.w3.org/2000/svg" version="1.1">
 <metadata>
  <rdf:RDF xmlns:dc="http://purl.org/dc/elements/1.1/" xmlns:cc="http://creativecommons.org/ns#" xmlns:rdf="http://www.w3.org/1999/02/22-rdf-syntax-ns#">
   <cc:Work>
    <dc:type rdf:resource="http://purl.org/dc/dcmitype/StillImage"/>
    <dc:date>2022-03-16T23:41:00.209761</dc:date>
    <dc:format>image/svg+xml</dc:format>
    <dc:creator>
     <cc:Agent>
      <dc:title>Matplotlib v3.5.1, https://matplotlib.org/</dc:title>
     </cc:Agent>
    </dc:creator>
   </cc:Work>
  </rdf:RDF>
 </metadata>
 <defs>
  <style type="text/css">*{stroke-linejoin: round; stroke-linecap: butt}</style>
 </defs>
 <g id="figure_1">
  <g id="patch_1">
   <path d="M 0 345.6 
L 460.8 345.6 
L 460.8 0 
L 0 0 
z
" style="fill: #ffffff"/>
  </g>
  <g id="axes_1">
   <g id="patch_2">
    <path d="M 57.6 298.944 
L 360.8064 298.944 
L 360.8064 27.648 
L 57.6 27.648 
z
" style="fill: #ffffff"/>
   </g>
   <g id="line2d_1">
    <path d="M 87.1081 298.944 
L 87.1081 293.624471 
L 108.29012 293.624471 
L 108.29012 288.304941 
L 111.334639 288.304941 
L 111.334639 282.985412 
L 115.227139 282.985412 
L 115.227139 277.665882 
L 119.599808 277.665882 
L 119.599808 272.346353 
L 120.682786 272.346353 
L 120.682786 267.026824 
L 121.329295 267.026824 
L 121.329295 261.707294 
L 121.830966 261.707294 
L 121.830966 256.387765 
L 124.906754 256.387765 
L 124.906754 251.068235 
L 125.829577 251.068235 
L 125.829577 245.748706 
L 127.18073 245.748706 
L 127.18073 240.429176 
L 134.495147 240.429176 
L 134.495147 235.109647 
L 137.998402 235.109647 
L 137.998402 229.790118 
L 142.41488 229.790118 
L 142.41488 224.470588 
L 150.958812 224.470588 
L 150.958812 219.151059 
L 152.181101 219.151059 
L 152.181101 213.831529 
L 152.667844 213.831529 
L 152.667844 208.512 
L 153.719042 208.512 
L 153.719042 203.192471 
L 154.693034 203.192471 
L 154.693034 197.872941 
L 156.125604 197.872941 
L 156.125604 192.553412 
L 156.831855 192.553412 
L 156.831855 187.233882 
L 157.363398 187.233882 
L 157.363398 181.914353 
L 158.454228 181.914353 
L 158.454228 176.594824 
L 158.838864 176.594824 
L 158.838864 171.275294 
L 159.585318 171.275294 
L 159.585318 165.955765 
L 160.335271 165.955765 
L 160.335271 160.636235 
L 160.979404 160.636235 
L 160.979404 155.316706 
L 161.255373 155.316706 
L 161.255373 149.997176 
L 162.05979 149.997176 
L 162.05979 144.677647 
L 162.420867 144.677647 
L 162.420867 139.358118 
L 162.942856 139.358118 
L 162.942856 134.038588 
L 163.205379 134.038588 
L 163.205379 128.719059 
L 163.666204 128.719059 
L 163.666204 123.399529 
L 163.91889 123.399529 
L 163.91889 118.08 
L 164.129077 118.08 
L 164.129077 112.760471 
L 164.478528 112.760471 
L 164.478528 107.440941 
L 164.70794 107.440941 
L 164.70794 102.121412 
L 164.984586 102.121412 
L 164.984586 96.801882 
L 165.195605 96.801882 
L 165.195605 91.482353 
L 165.44087 91.482353 
L 165.44087 86.162824 
L 165.707018 86.162824 
L 165.707018 80.843294 
L 165.92201 80.843294 
L 165.92201 75.523765 
L 166.286609 75.523765 
L 166.286609 70.204235 
L 166.529641 70.204235 
L 166.529641 64.884706 
L 166.678531 64.884706 
L 166.678531 59.565176 
L 166.950346 59.565176 
L 166.950346 54.245647 
L 167.084795 54.245647 
L 167.084795 48.926118 
L 167.295726 48.926118 
L 167.295726 43.606588 
L 167.624034 43.606588 
L 167.624034 38.287059 
L 167.925369 38.287059 
L 167.925369 32.967529 
L 168.074246 32.967529 
L 168.074246 27.648 
L 360.8064 27.648 
" style="fill: none; stroke: #f5deb3; stroke-width: 4; stroke-linecap: square"/>
   </g>
   <g id="line2d_2">
    <defs>
     <path id="m035a8a3013" d="M -0 7.778175 
L 7.778175 0 
L 0 -7.778175 
L -7.778175 -0 
z
" style="stroke: #f5deb3; stroke-width: 1.5; stroke-linejoin: miter"/>
    </defs>
    <g>
     <use xlink:href="#m035a8a3013" x="156.125604" y="197.872941" style="fill: #f5deb3; stroke: #f5deb3; stroke-width: 1.5; stroke-linejoin: miter"/>
     <use xlink:href="#m035a8a3013" x="167.925369" y="32.967529" style="fill: #f5deb3; stroke: #f5deb3; stroke-width: 1.5; stroke-linejoin: miter"/>
     <use xlink:href="#m035a8a3013" x="168.074246" y="27.648" style="fill: #f5deb3; stroke: #f5deb3; stroke-width: 1.5; stroke-linejoin: miter"/>
     <use xlink:href="#m035a8a3013" x="168.074246" y="27.648" style="fill: #f5deb3; stroke: #f5deb3; stroke-width: 1.5; stroke-linejoin: miter"/>
     <use xlink:href="#m035a8a3013" x="360.8064" y="27.648" style="fill: #f5deb3; stroke: #f5deb3; stroke-width: 1.5; stroke-linejoin: miter"/>
    </g>
   </g>
   <g id="line2d_3">
    <path style="fill: none; stroke: #f5deb3; stroke-width: 4; stroke-linecap: square"/>
    <g/>
   </g>
   <g id="line2d_4">
    <path d="M 360.8064 27.648 
L 380.514816 33.07392 
" style="fill: none; stroke: #f5deb3; stroke-width: 4; stroke-linecap: square"/>
    <g>
     <use xlink:href="#m035a8a3013" x="360.8064" y="27.648" style="fill: #f5deb3; stroke: #f5deb3; stroke-width: 1.5; stroke-linejoin: miter"/>
     <use xlink:href="#m035a8a3013" x="380.514816" y="33.07392" style="fill: #f5deb3; stroke: #f5deb3; stroke-width: 1.5; stroke-linejoin: miter"/>
    </g>
   </g>
   <g id="matplotlib.axis_1">
    <g id="xtick_1">
     <g id="line2d_5">
      <path d="M 57.6 298.944 
L 57.6 27.648 
" clip-path="url(#p93aa0be576)" style="fill: none; stroke: #b0b0b0; stroke-width: 0.8; stroke-linecap: square"/>
     </g>
     <g id="line2d_6">
      <defs>
       <path id="mc727048e6c" d="M 0 0 
L 0 3.5 
" style="stroke: #000000; stroke-width: 0.8"/>
      </defs>
      <g>
       <use xlink:href="#mc727048e6c" x="57.6" y="298.944" style="stroke: #000000; stroke-width: 0.8"/>
      </g>
     </g>
     <g id="text_1">
      <!-- 0 -->
      <g transform="translate(52.191875 318.861344)scale(0.17 -0.17)">
       <defs>
        <path id="DejaVuSans-30" d="M 2034 4250 
Q 1547 4250 1301 3770 
Q 1056 3291 1056 2328 
Q 1056 1369 1301 889 
Q 1547 409 2034 409 
Q 2525 409 2770 889 
Q 3016 1369 3016 2328 
Q 3016 3291 2770 3770 
Q 2525 4250 2034 4250 
z
M 2034 4750 
Q 2819 4750 3233 4129 
Q 3647 3509 3647 2328 
Q 3647 1150 3233 529 
Q 2819 -91 2034 -91 
Q 1250 -91 836 529 
Q 422 1150 422 2328 
Q 422 3509 836 4129 
Q 1250 4750 2034 4750 
z
" transform="scale(0.015625)"/>
       </defs>
       <use xlink:href="#DejaVuSans-30"/>
      </g>
     </g>
    </g>
    <g id="xtick_2">
     <g id="line2d_7">
      <path d="M 144.2304 298.944 
L 144.2304 27.648 
" clip-path="url(#p93aa0be576)" style="fill: none; stroke: #b0b0b0; stroke-width: 0.8; stroke-linecap: square"/>
     </g>
     <g id="line2d_8">
      <g>
       <use xlink:href="#mc727048e6c" x="144.2304" y="298.944" style="stroke: #000000; stroke-width: 0.8"/>
      </g>
     </g>
     <g id="text_2">
      <!-- 2 -->
      <g transform="translate(138.822275 318.861344)scale(0.17 -0.17)">
       <defs>
        <path id="DejaVuSans-32" d="M 1228 531 
L 3431 531 
L 3431 0 
L 469 0 
L 469 531 
Q 828 903 1448 1529 
Q 2069 2156 2228 2338 
Q 2531 2678 2651 2914 
Q 2772 3150 2772 3378 
Q 2772 3750 2511 3984 
Q 2250 4219 1831 4219 
Q 1534 4219 1204 4116 
Q 875 4013 500 3803 
L 500 4441 
Q 881 4594 1212 4672 
Q 1544 4750 1819 4750 
Q 2544 4750 2975 4387 
Q 3406 4025 3406 3419 
Q 3406 3131 3298 2873 
Q 3191 2616 2906 2266 
Q 2828 2175 2409 1742 
Q 1991 1309 1228 531 
z
" transform="scale(0.015625)"/>
       </defs>
       <use xlink:href="#DejaVuSans-32"/>
      </g>
     </g>
    </g>
    <g id="xtick_3">
     <g id="line2d_9">
      <path d="M 230.8608 298.944 
L 230.8608 27.648 
" clip-path="url(#p93aa0be576)" style="fill: none; stroke: #b0b0b0; stroke-width: 0.8; stroke-linecap: square"/>
     </g>
     <g id="line2d_10">
      <g>
       <use xlink:href="#mc727048e6c" x="230.8608" y="298.944" style="stroke: #000000; stroke-width: 0.8"/>
      </g>
     </g>
     <g id="text_3">
      <!-- 4 -->
      <g transform="translate(225.452675 318.861344)scale(0.17 -0.17)">
       <defs>
        <path id="DejaVuSans-34" d="M 2419 4116 
L 825 1625 
L 2419 1625 
L 2419 4116 
z
M 2253 4666 
L 3047 4666 
L 3047 1625 
L 3713 1625 
L 3713 1100 
L 3047 1100 
L 3047 0 
L 2419 0 
L 2419 1100 
L 313 1100 
L 313 1709 
L 2253 4666 
z
" transform="scale(0.015625)"/>
       </defs>
       <use xlink:href="#DejaVuSans-34"/>
      </g>
     </g>
    </g>
    <g id="xtick_4">
     <g id="line2d_11">
      <path d="M 317.4912 298.944 
L 317.4912 27.648 
" clip-path="url(#p93aa0be576)" style="fill: none; stroke: #b0b0b0; stroke-width: 0.8; stroke-linecap: square"/>
     </g>
     <g id="line2d_12">
      <g>
       <use xlink:href="#mc727048e6c" x="317.4912" y="298.944" style="stroke: #000000; stroke-width: 0.8"/>
      </g>
     </g>
     <g id="text_4">
      <!-- 6 -->
      <g transform="translate(312.083075 318.861344)scale(0.17 -0.17)">
       <defs>
        <path id="DejaVuSans-36" d="M 2113 2584 
Q 1688 2584 1439 2293 
Q 1191 2003 1191 1497 
Q 1191 994 1439 701 
Q 1688 409 2113 409 
Q 2538 409 2786 701 
Q 3034 994 3034 1497 
Q 3034 2003 2786 2293 
Q 2538 2584 2113 2584 
z
M 3366 4563 
L 3366 3988 
Q 3128 4100 2886 4159 
Q 2644 4219 2406 4219 
Q 1781 4219 1451 3797 
Q 1122 3375 1075 2522 
Q 1259 2794 1537 2939 
Q 1816 3084 2150 3084 
Q 2853 3084 3261 2657 
Q 3669 2231 3669 1497 
Q 3669 778 3244 343 
Q 2819 -91 2113 -91 
Q 1303 -91 875 529 
Q 447 1150 447 2328 
Q 447 3434 972 4092 
Q 1497 4750 2381 4750 
Q 2619 4750 2861 4703 
Q 3103 4656 3366 4563 
z
" transform="scale(0.015625)"/>
       </defs>
       <use xlink:href="#DejaVuSans-36"/>
      </g>
     </g>
    </g>
    <g id="xtick_5">
     <g id="line2d_13">
      <path d="M 100.9152 298.944 
L 100.9152 27.648 
" clip-path="url(#p93aa0be576)" style="fill: none; stroke: #b0b0b0; stroke-width: 0.8; stroke-linecap: square"/>
     </g>
     <g id="line2d_14">
      <defs>
       <path id="md396ba68ad" d="M 0 0 
L 0 2 
" style="stroke: #000000; stroke-width: 0.6"/>
      </defs>
      <g>
       <use xlink:href="#md396ba68ad" x="100.9152" y="298.944" style="stroke: #000000; stroke-width: 0.6"/>
      </g>
     </g>
    </g>
    <g id="xtick_6">
     <g id="line2d_15">
      <path d="M 187.5456 298.944 
L 187.5456 27.648 
" clip-path="url(#p93aa0be576)" style="fill: none; stroke: #b0b0b0; stroke-width: 0.8; stroke-linecap: square"/>
     </g>
     <g id="line2d_16">
      <g>
       <use xlink:href="#md396ba68ad" x="187.5456" y="298.944" style="stroke: #000000; stroke-width: 0.6"/>
      </g>
     </g>
    </g>
    <g id="xtick_7">
     <g id="line2d_17">
      <path d="M 274.176 298.944 
L 274.176 27.648 
" clip-path="url(#p93aa0be576)" style="fill: none; stroke: #b0b0b0; stroke-width: 0.8; stroke-linecap: square"/>
     </g>
     <g id="line2d_18">
      <g>
       <use xlink:href="#md396ba68ad" x="274.176" y="298.944" style="stroke: #000000; stroke-width: 0.6"/>
      </g>
     </g>
    </g>
    <g id="xtick_8">
     <g id="line2d_19">
      <path d="M 360.8064 298.944 
L 360.8064 27.648 
" clip-path="url(#p93aa0be576)" style="fill: none; stroke: #b0b0b0; stroke-width: 0.8; stroke-linecap: square"/>
     </g>
     <g id="line2d_20">
      <g>
       <use xlink:href="#md396ba68ad" x="360.8064" y="298.944" style="stroke: #000000; stroke-width: 0.6"/>
      </g>
     </g>
    </g>
    <g id="text_5">
     <!-- log10(# f-evals / dimension) -->
     <g transform="translate(88.823278 339.314156)scale(0.17 -0.17)">
      <defs>
       <path id="DejaVuSans-6c" d="M 603 4863 
L 1178 4863 
L 1178 0 
L 603 0 
L 603 4863 
z
" transform="scale(0.015625)"/>
       <path id="DejaVuSans-6f" d="M 1959 3097 
Q 1497 3097 1228 2736 
Q 959 2375 959 1747 
Q 959 1119 1226 758 
Q 1494 397 1959 397 
Q 2419 397 2687 759 
Q 2956 1122 2956 1747 
Q 2956 2369 2687 2733 
Q 2419 3097 1959 3097 
z
M 1959 3584 
Q 2709 3584 3137 3096 
Q 3566 2609 3566 1747 
Q 3566 888 3137 398 
Q 2709 -91 1959 -91 
Q 1206 -91 779 398 
Q 353 888 353 1747 
Q 353 2609 779 3096 
Q 1206 3584 1959 3584 
z
" transform="scale(0.015625)"/>
       <path id="DejaVuSans-67" d="M 2906 1791 
Q 2906 2416 2648 2759 
Q 2391 3103 1925 3103 
Q 1463 3103 1205 2759 
Q 947 2416 947 1791 
Q 947 1169 1205 825 
Q 1463 481 1925 481 
Q 2391 481 2648 825 
Q 2906 1169 2906 1791 
z
M 3481 434 
Q 3481 -459 3084 -895 
Q 2688 -1331 1869 -1331 
Q 1566 -1331 1297 -1286 
Q 1028 -1241 775 -1147 
L 775 -588 
Q 1028 -725 1275 -790 
Q 1522 -856 1778 -856 
Q 2344 -856 2625 -561 
Q 2906 -266 2906 331 
L 2906 616 
Q 2728 306 2450 153 
Q 2172 0 1784 0 
Q 1141 0 747 490 
Q 353 981 353 1791 
Q 353 2603 747 3093 
Q 1141 3584 1784 3584 
Q 2172 3584 2450 3431 
Q 2728 3278 2906 2969 
L 2906 3500 
L 3481 3500 
L 3481 434 
z
" transform="scale(0.015625)"/>
       <path id="DejaVuSans-31" d="M 794 531 
L 1825 531 
L 1825 4091 
L 703 3866 
L 703 4441 
L 1819 4666 
L 2450 4666 
L 2450 531 
L 3481 531 
L 3481 0 
L 794 0 
L 794 531 
z
" transform="scale(0.015625)"/>
       <path id="DejaVuSans-28" d="M 1984 4856 
Q 1566 4138 1362 3434 
Q 1159 2731 1159 2009 
Q 1159 1288 1364 580 
Q 1569 -128 1984 -844 
L 1484 -844 
Q 1016 -109 783 600 
Q 550 1309 550 2009 
Q 550 2706 781 3412 
Q 1013 4119 1484 4856 
L 1984 4856 
z
" transform="scale(0.015625)"/>
       <path id="DejaVuSans-23" d="M 3272 2816 
L 2363 2816 
L 2100 1772 
L 3016 1772 
L 3272 2816 
z
M 2803 4594 
L 2478 3297 
L 3391 3297 
L 3719 4594 
L 4219 4594 
L 3897 3297 
L 4872 3297 
L 4872 2816 
L 3775 2816 
L 3519 1772 
L 4513 1772 
L 4513 1294 
L 3397 1294 
L 3072 0 
L 2572 0 
L 2894 1294 
L 1978 1294 
L 1656 0 
L 1153 0 
L 1478 1294 
L 494 1294 
L 494 1772 
L 1594 1772 
L 1856 2816 
L 850 2816 
L 850 3297 
L 1978 3297 
L 2297 4594 
L 2803 4594 
z
" transform="scale(0.015625)"/>
       <path id="DejaVuSans-20" transform="scale(0.015625)"/>
       <path id="DejaVuSans-66" d="M 2375 4863 
L 2375 4384 
L 1825 4384 
Q 1516 4384 1395 4259 
Q 1275 4134 1275 3809 
L 1275 3500 
L 2222 3500 
L 2222 3053 
L 1275 3053 
L 1275 0 
L 697 0 
L 697 3053 
L 147 3053 
L 147 3500 
L 697 3500 
L 697 3744 
Q 697 4328 969 4595 
Q 1241 4863 1831 4863 
L 2375 4863 
z
" transform="scale(0.015625)"/>
       <path id="DejaVuSans-2d" d="M 313 2009 
L 1997 2009 
L 1997 1497 
L 313 1497 
L 313 2009 
z
" transform="scale(0.015625)"/>
       <path id="DejaVuSans-65" d="M 3597 1894 
L 3597 1613 
L 953 1613 
Q 991 1019 1311 708 
Q 1631 397 2203 397 
Q 2534 397 2845 478 
Q 3156 559 3463 722 
L 3463 178 
Q 3153 47 2828 -22 
Q 2503 -91 2169 -91 
Q 1331 -91 842 396 
Q 353 884 353 1716 
Q 353 2575 817 3079 
Q 1281 3584 2069 3584 
Q 2775 3584 3186 3129 
Q 3597 2675 3597 1894 
z
M 3022 2063 
Q 3016 2534 2758 2815 
Q 2500 3097 2075 3097 
Q 1594 3097 1305 2825 
Q 1016 2553 972 2059 
L 3022 2063 
z
" transform="scale(0.015625)"/>
       <path id="DejaVuSans-76" d="M 191 3500 
L 800 3500 
L 1894 563 
L 2988 3500 
L 3597 3500 
L 2284 0 
L 1503 0 
L 191 3500 
z
" transform="scale(0.015625)"/>
       <path id="DejaVuSans-61" d="M 2194 1759 
Q 1497 1759 1228 1600 
Q 959 1441 959 1056 
Q 959 750 1161 570 
Q 1363 391 1709 391 
Q 2188 391 2477 730 
Q 2766 1069 2766 1631 
L 2766 1759 
L 2194 1759 
z
M 3341 1997 
L 3341 0 
L 2766 0 
L 2766 531 
Q 2569 213 2275 61 
Q 1981 -91 1556 -91 
Q 1019 -91 701 211 
Q 384 513 384 1019 
Q 384 1609 779 1909 
Q 1175 2209 1959 2209 
L 2766 2209 
L 2766 2266 
Q 2766 2663 2505 2880 
Q 2244 3097 1772 3097 
Q 1472 3097 1187 3025 
Q 903 2953 641 2809 
L 641 3341 
Q 956 3463 1253 3523 
Q 1550 3584 1831 3584 
Q 2591 3584 2966 3190 
Q 3341 2797 3341 1997 
z
" transform="scale(0.015625)"/>
       <path id="DejaVuSans-73" d="M 2834 3397 
L 2834 2853 
Q 2591 2978 2328 3040 
Q 2066 3103 1784 3103 
Q 1356 3103 1142 2972 
Q 928 2841 928 2578 
Q 928 2378 1081 2264 
Q 1234 2150 1697 2047 
L 1894 2003 
Q 2506 1872 2764 1633 
Q 3022 1394 3022 966 
Q 3022 478 2636 193 
Q 2250 -91 1575 -91 
Q 1294 -91 989 -36 
Q 684 19 347 128 
L 347 722 
Q 666 556 975 473 
Q 1284 391 1588 391 
Q 1994 391 2212 530 
Q 2431 669 2431 922 
Q 2431 1156 2273 1281 
Q 2116 1406 1581 1522 
L 1381 1569 
Q 847 1681 609 1914 
Q 372 2147 372 2553 
Q 372 3047 722 3315 
Q 1072 3584 1716 3584 
Q 2034 3584 2315 3537 
Q 2597 3491 2834 3397 
z
" transform="scale(0.015625)"/>
       <path id="DejaVuSans-2f" d="M 1625 4666 
L 2156 4666 
L 531 -594 
L 0 -594 
L 1625 4666 
z
" transform="scale(0.015625)"/>
       <path id="DejaVuSans-64" d="M 2906 2969 
L 2906 4863 
L 3481 4863 
L 3481 0 
L 2906 0 
L 2906 525 
Q 2725 213 2448 61 
Q 2172 -91 1784 -91 
Q 1150 -91 751 415 
Q 353 922 353 1747 
Q 353 2572 751 3078 
Q 1150 3584 1784 3584 
Q 2172 3584 2448 3432 
Q 2725 3281 2906 2969 
z
M 947 1747 
Q 947 1113 1208 752 
Q 1469 391 1925 391 
Q 2381 391 2643 752 
Q 2906 1113 2906 1747 
Q 2906 2381 2643 2742 
Q 2381 3103 1925 3103 
Q 1469 3103 1208 2742 
Q 947 2381 947 1747 
z
" transform="scale(0.015625)"/>
       <path id="DejaVuSans-69" d="M 603 3500 
L 1178 3500 
L 1178 0 
L 603 0 
L 603 3500 
z
M 603 4863 
L 1178 4863 
L 1178 4134 
L 603 4134 
L 603 4863 
z
" transform="scale(0.015625)"/>
       <path id="DejaVuSans-6d" d="M 3328 2828 
Q 3544 3216 3844 3400 
Q 4144 3584 4550 3584 
Q 5097 3584 5394 3201 
Q 5691 2819 5691 2113 
L 5691 0 
L 5113 0 
L 5113 2094 
Q 5113 2597 4934 2840 
Q 4756 3084 4391 3084 
Q 3944 3084 3684 2787 
Q 3425 2491 3425 1978 
L 3425 0 
L 2847 0 
L 2847 2094 
Q 2847 2600 2669 2842 
Q 2491 3084 2119 3084 
Q 1678 3084 1418 2786 
Q 1159 2488 1159 1978 
L 1159 0 
L 581 0 
L 581 3500 
L 1159 3500 
L 1159 2956 
Q 1356 3278 1631 3431 
Q 1906 3584 2284 3584 
Q 2666 3584 2933 3390 
Q 3200 3197 3328 2828 
z
" transform="scale(0.015625)"/>
       <path id="DejaVuSans-6e" d="M 3513 2113 
L 3513 0 
L 2938 0 
L 2938 2094 
Q 2938 2591 2744 2837 
Q 2550 3084 2163 3084 
Q 1697 3084 1428 2787 
Q 1159 2491 1159 1978 
L 1159 0 
L 581 0 
L 581 3500 
L 1159 3500 
L 1159 2956 
Q 1366 3272 1645 3428 
Q 1925 3584 2291 3584 
Q 2894 3584 3203 3211 
Q 3513 2838 3513 2113 
z
" transform="scale(0.015625)"/>
       <path id="DejaVuSans-29" d="M 513 4856 
L 1013 4856 
Q 1481 4119 1714 3412 
Q 1947 2706 1947 2009 
Q 1947 1309 1714 600 
Q 1481 -109 1013 -844 
L 513 -844 
Q 928 -128 1133 580 
Q 1338 1288 1338 2009 
Q 1338 2731 1133 3434 
Q 928 4138 513 4856 
z
" transform="scale(0.015625)"/>
      </defs>
      <use xlink:href="#DejaVuSans-6c"/>
      <use xlink:href="#DejaVuSans-6f" x="27.783203"/>
      <use xlink:href="#DejaVuSans-67" x="88.964844"/>
      <use xlink:href="#DejaVuSans-31" x="152.441406"/>
      <use xlink:href="#DejaVuSans-30" x="216.064453"/>
      <use xlink:href="#DejaVuSans-28" x="279.6875"/>
      <use xlink:href="#DejaVuSans-23" x="318.701172"/>
      <use xlink:href="#DejaVuSans-20" x="402.490234"/>
      <use xlink:href="#DejaVuSans-66" x="434.277344"/>
      <use xlink:href="#DejaVuSans-2d" x="463.982422"/>
      <use xlink:href="#DejaVuSans-65" x="500.066406"/>
      <use xlink:href="#DejaVuSans-76" x="561.589844"/>
      <use xlink:href="#DejaVuSans-61" x="620.769531"/>
      <use xlink:href="#DejaVuSans-6c" x="682.048828"/>
      <use xlink:href="#DejaVuSans-73" x="709.832031"/>
      <use xlink:href="#DejaVuSans-20" x="761.931641"/>
      <use xlink:href="#DejaVuSans-2f" x="793.71875"/>
      <use xlink:href="#DejaVuSans-20" x="827.410156"/>
      <use xlink:href="#DejaVuSans-64" x="859.197266"/>
      <use xlink:href="#DejaVuSans-69" x="922.673828"/>
      <use xlink:href="#DejaVuSans-6d" x="950.457031"/>
      <use xlink:href="#DejaVuSans-65" x="1047.869141"/>
      <use xlink:href="#DejaVuSans-6e" x="1109.392578"/>
      <use xlink:href="#DejaVuSans-73" x="1172.771484"/>
      <use xlink:href="#DejaVuSans-69" x="1224.871094"/>
      <use xlink:href="#DejaVuSans-6f" x="1252.654297"/>
      <use xlink:href="#DejaVuSans-6e" x="1313.835938"/>
      <use xlink:href="#DejaVuSans-29" x="1377.214844"/>
     </g>
    </g>
   </g>
   <g id="matplotlib.axis_2">
    <g id="ytick_1">
     <g id="line2d_21">
      <path d="M 57.6 298.944 
L 360.8064 298.944 
" clip-path="url(#p93aa0be576)" style="fill: none; stroke: #b0b0b0; stroke-width: 0.8; stroke-linecap: square"/>
     </g>
     <g id="line2d_22">
      <defs>
       <path id="me2693f35db" d="M 0 0 
L -3.5 0 
" style="stroke: #000000; stroke-width: 0.8"/>
      </defs>
      <g>
       <use xlink:href="#me2693f35db" x="57.6" y="298.944" style="stroke: #000000; stroke-width: 0.8"/>
      </g>
     </g>
     <g id="text_6">
      <!-- 0.0 -->
      <g transform="translate(25.155 305.02275)scale(0.16 -0.16)">
       <defs>
        <path id="DejaVuSans-2e" d="M 684 794 
L 1344 794 
L 1344 0 
L 684 0 
L 684 794 
z
" transform="scale(0.015625)"/>
       </defs>
       <use xlink:href="#DejaVuSans-30"/>
       <use xlink:href="#DejaVuSans-2e" x="63.623047"/>
       <use xlink:href="#DejaVuSans-30" x="95.410156"/>
      </g>
     </g>
    </g>
    <g id="ytick_2">
     <g id="line2d_23">
      <path d="M 57.6 244.6848 
L 360.8064 244.6848 
" clip-path="url(#p93aa0be576)" style="fill: none; stroke: #b0b0b0; stroke-width: 0.8; stroke-linecap: square"/>
     </g>
     <g id="line2d_24">
      <g>
       <use xlink:href="#me2693f35db" x="57.6" y="244.6848" style="stroke: #000000; stroke-width: 0.8"/>
      </g>
     </g>
     <g id="text_7">
      <!-- 0.2 -->
      <g transform="translate(25.155 250.76355)scale(0.16 -0.16)">
       <use xlink:href="#DejaVuSans-30"/>
       <use xlink:href="#DejaVuSans-2e" x="63.623047"/>
       <use xlink:href="#DejaVuSans-32" x="95.410156"/>
      </g>
     </g>
    </g>
    <g id="ytick_3">
     <g id="line2d_25">
      <path d="M 57.6 190.4256 
L 360.8064 190.4256 
" clip-path="url(#p93aa0be576)" style="fill: none; stroke: #b0b0b0; stroke-width: 0.8; stroke-linecap: square"/>
     </g>
     <g id="line2d_26">
      <g>
       <use xlink:href="#me2693f35db" x="57.6" y="190.4256" style="stroke: #000000; stroke-width: 0.8"/>
      </g>
     </g>
     <g id="text_8">
      <!-- 0.4 -->
      <g transform="translate(25.155 196.50435)scale(0.16 -0.16)">
       <use xlink:href="#DejaVuSans-30"/>
       <use xlink:href="#DejaVuSans-2e" x="63.623047"/>
       <use xlink:href="#DejaVuSans-34" x="95.410156"/>
      </g>
     </g>
    </g>
    <g id="ytick_4">
     <g id="line2d_27">
      <path d="M 57.6 136.1664 
L 360.8064 136.1664 
" clip-path="url(#p93aa0be576)" style="fill: none; stroke: #b0b0b0; stroke-width: 0.8; stroke-linecap: square"/>
     </g>
     <g id="line2d_28">
      <g>
       <use xlink:href="#me2693f35db" x="57.6" y="136.1664" style="stroke: #000000; stroke-width: 0.8"/>
      </g>
     </g>
     <g id="text_9">
      <!-- 0.6 -->
      <g transform="translate(25.155 142.24515)scale(0.16 -0.16)">
       <use xlink:href="#DejaVuSans-30"/>
       <use xlink:href="#DejaVuSans-2e" x="63.623047"/>
       <use xlink:href="#DejaVuSans-36" x="95.410156"/>
      </g>
     </g>
    </g>
    <g id="ytick_5">
     <g id="line2d_29">
      <path d="M 57.6 81.9072 
L 360.8064 81.9072 
" clip-path="url(#p93aa0be576)" style="fill: none; stroke: #b0b0b0; stroke-width: 0.8; stroke-linecap: square"/>
     </g>
     <g id="line2d_30">
      <g>
       <use xlink:href="#me2693f35db" x="57.6" y="81.9072" style="stroke: #000000; stroke-width: 0.8"/>
      </g>
     </g>
     <g id="text_10">
      <!-- 0.8 -->
      <g transform="translate(25.155 87.98595)scale(0.16 -0.16)">
       <defs>
        <path id="DejaVuSans-38" d="M 2034 2216 
Q 1584 2216 1326 1975 
Q 1069 1734 1069 1313 
Q 1069 891 1326 650 
Q 1584 409 2034 409 
Q 2484 409 2743 651 
Q 3003 894 3003 1313 
Q 3003 1734 2745 1975 
Q 2488 2216 2034 2216 
z
M 1403 2484 
Q 997 2584 770 2862 
Q 544 3141 544 3541 
Q 544 4100 942 4425 
Q 1341 4750 2034 4750 
Q 2731 4750 3128 4425 
Q 3525 4100 3525 3541 
Q 3525 3141 3298 2862 
Q 3072 2584 2669 2484 
Q 3125 2378 3379 2068 
Q 3634 1759 3634 1313 
Q 3634 634 3220 271 
Q 2806 -91 2034 -91 
Q 1263 -91 848 271 
Q 434 634 434 1313 
Q 434 1759 690 2068 
Q 947 2378 1403 2484 
z
M 1172 3481 
Q 1172 3119 1398 2916 
Q 1625 2713 2034 2713 
Q 2441 2713 2670 2916 
Q 2900 3119 2900 3481 
Q 2900 3844 2670 4047 
Q 2441 4250 2034 4250 
Q 1625 4250 1398 4047 
Q 1172 3844 1172 3481 
z
" transform="scale(0.015625)"/>
       </defs>
       <use xlink:href="#DejaVuSans-30"/>
       <use xlink:href="#DejaVuSans-2e" x="63.623047"/>
       <use xlink:href="#DejaVuSans-38" x="95.410156"/>
      </g>
     </g>
    </g>
    <g id="ytick_6">
     <g id="line2d_31">
      <path d="M 57.6 27.648 
L 360.8064 27.648 
" clip-path="url(#p93aa0be576)" style="fill: none; stroke: #b0b0b0; stroke-width: 0.8; stroke-linecap: square"/>
     </g>
     <g id="line2d_32">
      <g>
       <use xlink:href="#me2693f35db" x="57.6" y="27.648" style="stroke: #000000; stroke-width: 0.8"/>
      </g>
     </g>
     <g id="text_11">
      <!-- 1.0 -->
      <g transform="translate(25.155 33.72675)scale(0.16 -0.16)">
       <use xlink:href="#DejaVuSans-31"/>
       <use xlink:href="#DejaVuSans-2e" x="63.623047"/>
       <use xlink:href="#DejaVuSans-30" x="95.410156"/>
      </g>
     </g>
    </g>
    <g id="text_12">
     <!-- Fraction of function,target pairs -->
     <g transform="translate(17.619531 297.681)rotate(-90)scale(0.17 -0.17)">
      <defs>
       <path id="DejaVuSans-46" d="M 628 4666 
L 3309 4666 
L 3309 4134 
L 1259 4134 
L 1259 2759 
L 3109 2759 
L 3109 2228 
L 1259 2228 
L 1259 0 
L 628 0 
L 628 4666 
z
" transform="scale(0.015625)"/>
       <path id="DejaVuSans-72" d="M 2631 2963 
Q 2534 3019 2420 3045 
Q 2306 3072 2169 3072 
Q 1681 3072 1420 2755 
Q 1159 2438 1159 1844 
L 1159 0 
L 581 0 
L 581 3500 
L 1159 3500 
L 1159 2956 
Q 1341 3275 1631 3429 
Q 1922 3584 2338 3584 
Q 2397 3584 2469 3576 
Q 2541 3569 2628 3553 
L 2631 2963 
z
" transform="scale(0.015625)"/>
       <path id="DejaVuSans-63" d="M 3122 3366 
L 3122 2828 
Q 2878 2963 2633 3030 
Q 2388 3097 2138 3097 
Q 1578 3097 1268 2742 
Q 959 2388 959 1747 
Q 959 1106 1268 751 
Q 1578 397 2138 397 
Q 2388 397 2633 464 
Q 2878 531 3122 666 
L 3122 134 
Q 2881 22 2623 -34 
Q 2366 -91 2075 -91 
Q 1284 -91 818 406 
Q 353 903 353 1747 
Q 353 2603 823 3093 
Q 1294 3584 2113 3584 
Q 2378 3584 2631 3529 
Q 2884 3475 3122 3366 
z
" transform="scale(0.015625)"/>
       <path id="DejaVuSans-74" d="M 1172 4494 
L 1172 3500 
L 2356 3500 
L 2356 3053 
L 1172 3053 
L 1172 1153 
Q 1172 725 1289 603 
Q 1406 481 1766 481 
L 2356 481 
L 2356 0 
L 1766 0 
Q 1100 0 847 248 
Q 594 497 594 1153 
L 594 3053 
L 172 3053 
L 172 3500 
L 594 3500 
L 594 4494 
L 1172 4494 
z
" transform="scale(0.015625)"/>
       <path id="DejaVuSans-75" d="M 544 1381 
L 544 3500 
L 1119 3500 
L 1119 1403 
Q 1119 906 1312 657 
Q 1506 409 1894 409 
Q 2359 409 2629 706 
Q 2900 1003 2900 1516 
L 2900 3500 
L 3475 3500 
L 3475 0 
L 2900 0 
L 2900 538 
Q 2691 219 2414 64 
Q 2138 -91 1772 -91 
Q 1169 -91 856 284 
Q 544 659 544 1381 
z
M 1991 3584 
L 1991 3584 
z
" transform="scale(0.015625)"/>
       <path id="DejaVuSans-2c" d="M 750 794 
L 1409 794 
L 1409 256 
L 897 -744 
L 494 -744 
L 750 256 
L 750 794 
z
" transform="scale(0.015625)"/>
       <path id="DejaVuSans-70" d="M 1159 525 
L 1159 -1331 
L 581 -1331 
L 581 3500 
L 1159 3500 
L 1159 2969 
Q 1341 3281 1617 3432 
Q 1894 3584 2278 3584 
Q 2916 3584 3314 3078 
Q 3713 2572 3713 1747 
Q 3713 922 3314 415 
Q 2916 -91 2278 -91 
Q 1894 -91 1617 61 
Q 1341 213 1159 525 
z
M 3116 1747 
Q 3116 2381 2855 2742 
Q 2594 3103 2138 3103 
Q 1681 3103 1420 2742 
Q 1159 2381 1159 1747 
Q 1159 1113 1420 752 
Q 1681 391 2138 391 
Q 2594 391 2855 752 
Q 3116 1113 3116 1747 
z
" transform="scale(0.015625)"/>
      </defs>
      <use xlink:href="#DejaVuSans-46"/>
      <use xlink:href="#DejaVuSans-72" x="50.269531"/>
      <use xlink:href="#DejaVuSans-61" x="91.382812"/>
      <use xlink:href="#DejaVuSans-63" x="152.662109"/>
      <use xlink:href="#DejaVuSans-74" x="207.642578"/>
      <use xlink:href="#DejaVuSans-69" x="246.851562"/>
      <use xlink:href="#DejaVuSans-6f" x="274.634766"/>
      <use xlink:href="#DejaVuSans-6e" x="335.816406"/>
      <use xlink:href="#DejaVuSans-20" x="399.195312"/>
      <use xlink:href="#DejaVuSans-6f" x="430.982422"/>
      <use xlink:href="#DejaVuSans-66" x="492.164062"/>
      <use xlink:href="#DejaVuSans-20" x="527.369141"/>
      <use xlink:href="#DejaVuSans-66" x="559.15625"/>
      <use xlink:href="#DejaVuSans-75" x="594.361328"/>
      <use xlink:href="#DejaVuSans-6e" x="657.740234"/>
      <use xlink:href="#DejaVuSans-63" x="721.119141"/>
      <use xlink:href="#DejaVuSans-74" x="776.099609"/>
      <use xlink:href="#DejaVuSans-69" x="815.308594"/>
      <use xlink:href="#DejaVuSans-6f" x="843.091797"/>
      <use xlink:href="#DejaVuSans-6e" x="904.273438"/>
      <use xlink:href="#DejaVuSans-2c" x="967.652344"/>
      <use xlink:href="#DejaVuSans-74" x="999.439453"/>
      <use xlink:href="#DejaVuSans-61" x="1038.648438"/>
      <use xlink:href="#DejaVuSans-72" x="1099.927734"/>
      <use xlink:href="#DejaVuSans-67" x="1139.291016"/>
      <use xlink:href="#DejaVuSans-65" x="1202.767578"/>
      <use xlink:href="#DejaVuSans-74" x="1264.291016"/>
      <use xlink:href="#DejaVuSans-20" x="1303.5"/>
      <use xlink:href="#DejaVuSans-70" x="1335.287109"/>
      <use xlink:href="#DejaVuSans-61" x="1398.763672"/>
      <use xlink:href="#DejaVuSans-69" x="1460.042969"/>
      <use xlink:href="#DejaVuSans-72" x="1487.826172"/>
      <use xlink:href="#DejaVuSans-73" x="1528.939453"/>
     </g>
    </g>
   </g>
   <g id="line2d_33">
    <defs>
     <path id="m90d23dd318" d="M 0 1.5 
C 0.397805 1.5 0.77937 1.341951 1.06066 1.06066 
C 1.341951 0.77937 1.5 0.397805 1.5 0 
C 1.5 -0.397805 1.341951 -0.77937 1.06066 -1.06066 
C 0.77937 -1.341951 0.397805 -1.5 0 -1.5 
C -0.397805 -1.5 -0.77937 -1.341951 -1.06066 -1.06066 
C -1.341951 -0.77937 -1.5 -0.397805 -1.5 0 
C -1.5 0.397805 -1.341951 0.77937 -1.06066 1.06066 
C -0.77937 1.341951 -0.397805 1.5 0 1.5 
z
" style="stroke: #f5deb3"/>
    </defs>
    <g>
     <use xlink:href="#m90d23dd318" x="168.074246" y="27.648" style="fill: #f5deb3; stroke: #f5deb3"/>
     <use xlink:href="#m90d23dd318" x="168.074246" y="27.648" style="fill: #f5deb3; stroke: #f5deb3"/>
    </g>
   </g>
   <g id="line2d_34">
    <defs>
     <path id="m2b607351f3" d="M 0 1.5 
C 0.397805 1.5 0.77937 1.341951 1.06066 1.06066 
C 1.341951 0.77937 1.5 0.397805 1.5 0 
C 1.5 -0.397805 1.341951 -0.77937 1.06066 -1.06066 
C 0.77937 -1.341951 0.397805 -1.5 0 -1.5 
C -0.397805 -1.5 -0.77937 -1.341951 -1.06066 -1.06066 
C -1.341951 -0.77937 -1.5 -0.397805 -1.5 0 
C -1.5 0.397805 -1.341951 0.77937 -1.06066 1.06066 
C -0.77937 1.341951 -0.397805 1.5 0 1.5 
z
" style="stroke: #000080"/>
    </defs>
    <g>
     <use xlink:href="#m2b607351f3" x="183.324394" y="27.648" style="fill: #000080; stroke: #000080"/>
     <use xlink:href="#m2b607351f3" x="183.324394" y="27.648" style="fill: #000080; stroke: #000080"/>
    </g>
   </g>
   <g id="line2d_35">
    <path d="M 90.668036 298.944 
L 90.668036 298.731219 
L 91.305777 298.731219 
L 91.305777 298.305656 
L 96.717523 298.305656 
L 96.717523 298.092875 
L 103.047088 298.092875 
L 103.047088 297.667313 
L 103.707211 297.667313 
L 103.707211 297.454532 
L 108.791791 297.454532 
L 108.791791 297.241751 
L 109.990385 297.241751 
L 109.990385 296.816188 
L 113.765312 296.816188 
L 113.765312 296.603407 
L 114.141556 296.603407 
L 114.141556 296.390626 
L 116.086263 296.390626 
L 116.086263 295.965064 
L 116.907859 295.965064 
L 116.907859 295.32672 
L 117.540239 295.32672 
L 117.540239 295.113939 
L 118.000953 295.113939 
L 118.000953 294.901158 
L 118.889854 294.901158 
L 118.889854 294.688376 
L 120.149089 294.688376 
L 120.149089 294.475595 
L 121.329295 294.475595 
L 121.329295 294.262814 
L 123.145323 294.262814 
L 123.145323 294.050033 
L 123.601383 294.050033 
L 123.601383 293.624471 
L 125.322496 293.624471 
L 125.322496 293.411689 
L 126.323346 293.411689 
L 126.323346 293.198908 
L 126.613505 293.198908 
L 126.613505 292.986127 
L 128.266313 292.986127 
L 128.266313 292.773346 
L 130.734242 292.773346 
L 130.734242 292.347784 
L 130.887807 292.347784 
L 130.887807 292.135002 
L 131.266322 292.135002 
L 131.266322 291.922221 
L 133.72196 291.922221 
L 133.72196 291.496659 
L 135.952253 291.496659 
L 135.952253 291.283878 
L 136.640557 291.283878 
L 136.640557 291.071096 
L 137.195511 291.071096 
L 137.250116 290.432753 
L 137.574461 290.432753 
L 137.681345 289.794409 
L 138.10291 289.794409 
L 138.206842 289.156066 
L 138.566146 289.156066 
L 138.667556 288.517722 
L 138.768422 288.517722 
L 138.868751 288.09216 
L 139.018248 288.09216 
L 139.117256 287.241035 
L 139.264798 287.241035 
L 139.264798 287.028254 
L 139.556456 287.028254 
L 139.652679 286.177129 
L 139.748412 286.177129 
L 139.796097 285.751567 
L 139.985636 285.751567 
L 139.985636 285.538786 
L 140.126547 285.538786 
L 140.173284 284.47488 
L 140.359078 284.47488 
L 140.405242 283.836536 
L 140.49723 283.836536 
L 140.49723 283.623755 
L 140.950542 283.623755 
L 140.995278 281.495944 
L 141.084433 281.495944 
L 141.084433 281.283162 
L 141.349389 281.283162 
L 141.349389 281.070381 
L 141.696956 281.070381 
L 141.696956 280.644819 
L 141.825656 280.644819 
L 141.825656 280.432038 
L 142.038218 280.432038 
L 142.122575 279.793694 
L 142.164612 279.793694 
L 142.248405 279.155351 
L 142.497568 279.155351 
L 142.579895 278.729788 
L 142.661862 278.729788 
L 142.743475 278.091445 
L 142.784148 278.091445 
L 142.824734 277.453101 
L 142.905644 277.453101 
L 142.986208 276.389195 
L 143.305055 276.389195 
L 143.38393 275.538071 
L 143.540694 275.538071 
L 143.618588 274.686946 
L 143.696162 274.686946 
L 143.696162 274.474165 
L 143.965177 274.474165 
L 144.003296 273.835821 
L 144.079302 273.835821 
L 144.117191 272.559134 
L 144.2304 272.559134 
L 144.305496 271.282447 
L 144.380294 271.282447 
L 144.454795 270.431322 
L 144.491935 270.431322 
L 144.565997 269.792979 
L 144.676545 269.792979 
L 144.749884 269.367416 
L 144.822939 269.367416 
L 144.931992 268.090729 
L 145.004344 268.090729 
L 145.004344 267.877948 
L 145.148219 267.877948 
L 145.219746 267.239605 
L 145.326529 267.239605 
L 145.361989 266.814042 
L 145.46797 266.814042 
L 145.573357 265.324574 
L 145.712961 265.324574 
L 145.816988 264.260668 
L 145.886021 264.260668 
L 145.989098 263.196762 
L 146.227438 263.196762 
L 146.227438 262.558419 
L 146.429353 262.558419 
L 146.496179 261.920075 
L 146.595975 261.920075 
L 146.695245 261.281732 
L 146.793994 261.281732 
L 146.892226 260.643388 
L 146.924857 260.643388 
L 147.022411 260.005045 
L 147.119461 260.005045 
L 147.119461 259.792264 
L 147.343984 259.792264 
L 147.343984 259.366701 
L 147.502732 259.366701 
L 147.597342 258.941139 
L 147.660152 258.941139 
L 147.722752 258.090014 
L 147.785146 258.090014 
L 147.878349 257.664452 
L 147.940229 257.664452 
L 148.03267 256.600546 
L 148.063382 256.600546 
L 148.063382 256.387765 
L 148.216198 256.387765 
L 148.307296 255.323859 
L 148.367783 255.323859 
L 148.367783 255.111078 
L 148.488177 255.111078 
L 148.488177 254.898296 
L 148.607806 254.898296 
L 148.667336 254.047172 
L 148.726679 254.047172 
L 148.815343 253.196047 
L 148.874221 253.196047 
L 148.932916 252.770485 
L 148.991428 252.770485 
L 149.049758 252.132141 
L 149.194798 252.132141 
L 149.223672 251.493798 
L 149.338728 251.493798 
L 149.42456 250.642673 
L 149.453084 250.642673 
L 149.510002 249.365986 
L 149.65155 249.365986 
L 149.707872 248.30208 
L 149.764026 248.30208 
L 149.79204 247.876518 
L 149.875833 247.876518 
L 149.959255 246.599831 
L 149.98698 246.599831 
L 150.097474 244.897581 
L 150.152479 244.897581 
L 150.207323 243.620894 
L 150.289291 243.620894 
L 150.398028 242.131426 
L 150.452162 242.131426 
L 150.559965 241.06752 
L 150.613636 241.06752 
L 150.693856 240.216395 
L 150.800286 240.216395 
L 150.906118 239.152489 
L 151.089903 239.152489 
L 151.194122 237.875802 
L 151.246016 237.875802 
L 151.246016 237.663021 
L 151.375128 237.663021 
L 151.375128 237.237459 
L 151.528902 237.237459 
L 151.630724 236.173553 
L 151.656094 236.173553 
L 151.731998 235.322428 
L 151.782431 235.322428 
L 151.882893 234.258522 
L 151.95789 234.258522 
L 152.057422 232.981835 
L 152.106991 232.981835 
L 152.20574 230.854024 
L 152.230346 230.854024 
L 152.230346 230.641242 
L 152.377312 230.641242 
L 152.474656 228.300649 
L 152.571498 228.300649 
L 152.643804 227.236744 
L 152.691854 227.236744 
L 152.763699 226.172838 
L 152.811444 226.172838 
L 152.859068 225.321713 
L 152.930279 225.321713 
L 153.001222 224.470588 
L 153.071898 224.470588 
L 153.165721 223.619464 
L 153.189104 223.619464 
L 153.282346 222.555558 
L 153.305585 222.555558 
L 153.398253 221.491652 
L 153.421349 221.491652 
L 153.467455 220.853308 
L 153.536404 220.853308 
L 153.58223 219.36384 
L 153.673549 219.36384 
L 153.764426 217.236028 
L 153.787077 217.236028 
L 153.877408 215.533779 
L 153.922412 215.533779 
L 153.989717 215.108216 
L 154.034453 215.108216 
L 154.101358 214.044311 
L 154.14583 214.044311 
L 154.212341 213.405967 
L 154.278618 213.405967 
L 154.322673 212.980405 
L 154.410475 212.980405 
L 154.519655 211.916499 
L 154.541415 211.916499 
L 154.584859 211.490936 
L 154.693034 211.490936 
L 154.779128 210.639812 
L 154.822028 210.639812 
L 154.928852 208.724781 
L 154.971412 208.724781 
L 155.077392 207.448094 
L 155.098517 207.448094 
L 155.203786 205.958626 
L 155.22477 205.958626 
L 155.329337 204.256376 
L 155.391799 204.256376 
L 155.433326 202.766908 
L 155.557358 202.766908 
L 155.598521 201.703002 
L 155.701037 201.703002 
L 155.802997 200.639096 
L 155.823323 200.639096 
L 155.924624 198.936847 
L 156.005274 198.936847 
L 156.065535 198.085722 
L 156.125604 198.085722 
L 156.225294 197.021816 
L 156.245169 197.021816 
L 156.34423 195.106786 
L 156.363979 195.106786 
L 156.442771 193.617318 
L 156.482044 193.617318 
L 156.579868 191.489506 
L 156.618856 191.489506 
L 156.715973 190.000038 
L 156.735336 190.000038 
L 156.831855 187.446664 
L 156.908716 187.446664 
L 157.004352 186.169976 
L 157.023421 186.169976 
L 157.118477 184.893289 
L 157.137431 184.893289 
L 157.231914 183.829384 
L 157.250754 183.829384 
L 157.30716 181.701572 
L 157.363398 181.701572 
L 157.419468 180.212104 
L 157.475372 180.212104 
L 157.568177 178.509854 
L 157.586683 178.509854 
L 157.69734 176.382042 
L 157.752425 176.382042 
L 157.862113 173.615887 
L 157.880333 173.615887 
L 157.971166 172.126419 
L 158.025456 172.126419 
L 158.133569 170.211388 
L 158.187393 170.211388 
L 158.294582 168.296358 
L 158.312387 168.296358 
L 158.418868 165.530202 
L 158.454228 165.530202 
L 158.559911 164.040734 
L 158.577468 164.040734 
L 158.682463 162.338485 
L 158.699905 162.338485 
L 158.804221 160.636235 
L 158.821551 160.636235 
L 158.890711 159.572329 
L 158.942415 159.572329 
L 158.959618 157.87008 
L 159.062507 157.87008 
L 159.164837 155.955049 
L 159.181837 155.955049 
L 159.266613 152.337769 
L 159.300416 152.337769 
L 159.401463 150.209958 
L 159.435025 150.209958 
L 159.535354 147.869365 
L 159.552023 147.869365 
L 159.651731 146.379896 
L 159.701388 146.379896 
L 159.800309 144.677647 
L 159.865969 144.677647 
L 159.947723 142.762616 
L 159.980326 142.762616 
L 160.077795 142.124273 
L 160.093991 142.124273 
L 160.174762 139.358118 
L 160.223059 139.358118 
L 160.319282 136.804744 
L 160.351247 136.804744 
L 160.446818 134.889713 
L 160.4627 134.889713 
L 160.557708 133.187464 
L 160.589271 133.187464 
L 160.683643 132.336339 
L 160.746296 132.336339 
L 160.855439 130.208527 
L 160.87098 130.208527 
L 160.979404 128.93184 
L 160.994842 128.93184 
L 161.087207 126.591247 
L 161.117894 126.591247 
L 161.209658 123.825092 
L 161.240147 123.825092 
L 161.316153 122.335624 
L 161.36161 122.335624 
L 161.467251 120.207812 
L 161.512345 120.207812 
L 161.617145 117.867219 
L 161.632069 117.867219 
L 161.736206 116.590532 
L 161.751035 116.590532 
L 161.839769 114.675501 
L 161.869254 114.675501 
L 161.957434 112.122127 
L 162.001369 112.122127 
L 162.103487 109.994315 
L 162.11803 109.994315 
L 162.219518 107.866504 
L 162.262846 107.866504 
L 162.363559 106.164254 
L 162.377902 106.164254 
L 162.478002 104.674786 
L 162.534963 104.674786 
L 162.620084 102.972536 
L 162.676617 102.972536 
L 162.775144 102.334193 
L 162.789177 102.334193 
L 162.859187 100.844725 
L 162.901068 100.844725 
L 162.984551 98.716913 
L 163.012297 98.716913 
L 163.095289 97.440226 
L 163.150415 97.440226 
L 163.232801 95.737976 
L 163.27386 95.737976 
L 163.382912 94.035727 
L 163.3965 94.035727 
L 163.504846 92.971821 
L 163.545315 92.971821 
L 163.639407 91.482353 
L 163.666204 91.482353 
L 163.773012 89.992885 
L 163.82619 89.992885 
L 163.839461 89.567322 
L 163.984826 89.567322 
L 164.089846 88.077854 
L 164.102932 88.077854 
L 164.207296 87.439511 
L 164.272231 87.439511 
L 164.375662 86.162824 
L 164.401432 86.162824 
L 164.504157 85.098918 
L 164.542535 85.098918 
L 164.63178 82.332762 
L 164.657201 82.332762 
L 164.733259 81.9072 
L 164.783793 81.9072 
L 164.884457 81.268856 
L 164.934588 81.268856 
L 165.034451 80.417732 
L 165.096597 80.417732 
L 165.183257 79.353826 
L 165.220276 79.353826 
L 165.281812 78.502701 
L 165.343147 78.502701 
L 165.45305 77.438795 
L 165.465221 77.438795 
L 165.538087 76.374889 
L 165.622743 76.374889 
L 165.731028 75.736546 
L 165.743021 75.736546 
L 165.838694 74.885421 
L 165.886348 74.885421 
L 165.933882 74.247078 
L 166.052194 74.247078 
L 166.134572 72.757609 
L 166.181484 72.757609 
L 166.274957 70.629798 
L 166.298254 70.629798 
L 166.39115 69.353111 
L 166.414303 69.353111 
L 166.518139 68.501986 
L 166.529641 68.501986 
L 166.609959 67.43808 
L 166.712723 67.43808 
L 166.792265 65.735831 
L 166.848875 65.735831 
L 166.950346 63.8208 
L 166.961587 63.8208 
L 167.01769 63.395238 
L 167.073627 63.395238 
L 167.15166 62.544113 
L 167.240447 62.544113 
L 167.317792 61.692988 
L 167.383837 61.692988 
L 167.438697 61.054645 
L 167.515233 61.054645 
L 167.624034 60.416301 
L 167.645719 60.416301 
L 167.753769 58.075708 
L 167.796816 58.075708 
L 167.871912 56.799021 
L 167.91469 56.799021 
L 167.978675 56.160678 
L 168.105996 56.160678 
L 168.105996 55.947896 
L 168.263944 55.947896 
L 168.358081 54.671209 
L 168.378936 54.671209 
L 168.482867 53.607304 
L 168.586228 53.607304 
L 168.668509 52.96896 
L 168.729985 52.96896 
L 168.821824 52.330616 
L 168.852337 52.330616 
L 168.923343 51.479492 
L 169.074603 51.479492 
L 169.134768 50.841148 
L 169.264469 50.841148 
L 169.373521 49.990024 
L 169.422883 49.990024 
L 169.491772 49.35168 
L 169.589749 49.35168 
L 169.667764 48.500555 
L 169.880655 48.500555 
L 169.976632 47.436649 
L 170.072123 47.436649 
L 170.138678 46.585525 
L 170.186075 46.585525 
L 170.252229 45.7344 
L 170.327551 45.7344 
L 170.393211 44.670494 
L 170.439971 44.670494 
L 170.523847 44.032151 
L 170.551723 44.032151 
L 170.616607 43.606588 
L 170.946803 43.606588 
L 171.010341 42.755464 
L 171.217608 42.755464 
L 171.226568 42.329901 
L 171.387122 42.329901 
L 171.396002 41.904339 
L 171.528696 41.904339 
L 171.528696 41.691558 
L 171.660461 41.691558 
L 171.73036 41.053214 
L 171.834724 41.053214 
L 171.929885 40.202089 
L 171.998792 40.202089 
L 172.067447 39.776527 
L 172.186995 39.776527 
L 172.280395 38.925402 
L 172.322696 38.925402 
L 172.423834 38.49984 
L 172.457426 38.49984 
L 172.541145 37.435934 
L 172.582865 37.435934 
L 172.690906 36.584809 
L 172.765341 36.584809 
L 172.864133 35.946466 
L 172.929707 35.946466 
L 173.0195 35.095341 
L 173.125069 35.095341 
L 173.125069 34.88256 
L 173.390421 34.88256 
L 173.470098 34.456998 
L 173.533597 34.456998 
L 173.533597 34.244216 
L 173.707122 34.244216 
L 173.816719 33.818654 
L 173.886839 33.818654 
L 173.964444 32.967529 
L 174.218295 32.967529 
L 174.241203 32.541967 
L 174.332558 32.541967 
L 174.332558 32.329186 
L 174.551519 32.329186 
L 174.551519 32.116405 
L 175.545679 32.116405 
L 175.545679 31.903624 
L 175.828352 31.903624 
L 175.856387 31.26528 
L 176.044539 31.26528 
L 176.127562 30.626936 
L 176.175823 30.626936 
L 176.175823 30.414155 
L 176.394883 30.414155 
L 176.394883 30.201374 
L 177.252974 30.201374 
L 177.252974 29.988593 
L 177.524113 29.988593 
L 177.524113 29.775812 
L 177.702725 29.775812 
L 177.702725 29.563031 
L 178.129566 29.563031 
L 178.222432 28.711906 
L 180.213071 28.711906 
L 180.213071 28.499125 
L 180.587114 28.499125 
L 180.587114 28.286344 
L 182.328483 28.286344 
L 182.328483 28.073562 
L 183.286686 28.073562 
L 183.324394 27.648 
L 360.8064 27.648 
L 360.8064 27.648 
" style="fill: none; stroke: #000080; stroke-width: 1.5; stroke-linecap: square"/>
   </g>
   <g id="line2d_36">
    <defs>
     <path id="m7b906dc502" d="M 0 6 
C 1.591219 6 3.117479 5.367802 4.242641 4.242641 
C 5.367802 3.117479 6 1.591219 6 0 
C 6 -1.591219 5.367802 -3.117479 4.242641 -4.242641 
C 3.117479 -5.367802 1.591219 -6 0 -6 
C -1.591219 -6 -3.117479 -5.367802 -4.242641 -4.242641 
C -5.367802 -3.117479 -6 -1.591219 -6 0 
C -6 1.591219 -5.367802 3.117479 -4.242641 4.242641 
C -3.117479 5.367802 -1.591219 6 0 6 
z
" style="stroke: #000080; stroke-width: 1.5"/>
    </defs>
    <g>
     <use xlink:href="#m7b906dc502" x="153.989717" y="215.108216" style="fill-opacity: 0; stroke: #000080; stroke-width: 1.5"/>
     <use xlink:href="#m7b906dc502" x="183.324394" y="27.860781" style="fill-opacity: 0; stroke: #000080; stroke-width: 1.5"/>
     <use xlink:href="#m7b906dc502" x="183.324394" y="27.648" style="fill-opacity: 0; stroke: #000080; stroke-width: 1.5"/>
     <use xlink:href="#m7b906dc502" x="183.324394" y="27.648" style="fill-opacity: 0; stroke: #000080; stroke-width: 1.5"/>
     <use xlink:href="#m7b906dc502" x="360.8064" y="27.648" style="fill-opacity: 0; stroke: #000080; stroke-width: 1.5"/>
    </g>
   </g>
   <g id="line2d_37">
    <path style="fill: none; stroke: #000080; stroke-width: 1.5; stroke-linecap: square"/>
    <g/>
   </g>
   <g id="line2d_38">
    <path d="M 103.707211 297.454532 
" clip-path="url(#p93aa0be576)" style="fill: none; stroke: #000080; stroke-width: 1.5; stroke-linecap: square"/>
    <defs>
     <path id="m1f4c00cac7" d="M -12 12 
L 12 -12 
M -12 -12 
L 12 12 
" style="stroke: #000080"/>
    </defs>
    <g clip-path="url(#p93aa0be576)">
     <use xlink:href="#m1f4c00cac7" x="103.707211" y="297.454532" style="fill: #000080; stroke: #000080"/>
    </g>
   </g>
   <g id="line2d_39">
    <defs>
     <path id="m5969f5b4e1" d="M 0 1.5 
C 0.397805 1.5 0.77937 1.341951 1.06066 1.06066 
C 1.341951 0.77937 1.5 0.397805 1.5 0 
C 1.5 -0.397805 1.341951 -0.77937 1.06066 -1.06066 
C 0.77937 -1.341951 0.397805 -1.5 0 -1.5 
C -0.397805 -1.5 -0.77937 -1.341951 -1.06066 -1.06066 
C -1.341951 -0.77937 -1.5 -0.397805 -1.5 0 
C -1.5 0.397805 -1.341951 0.77937 -1.06066 1.06066 
C -0.77937 1.341951 -0.397805 1.5 0 1.5 
z
" style="stroke: #ff00ff"/>
    </defs>
    <g>
     <use xlink:href="#m5969f5b4e1" x="187.984395" y="27.648" style="fill: #ff00ff; stroke: #ff00ff"/>
     <use xlink:href="#m5969f5b4e1" x="187.984395" y="27.648" style="fill: #ff00ff; stroke: #ff00ff"/>
    </g>
   </g>
   <g id="line2d_40">
    <path d="M 68.65718 298.944 
L 68.65718 298.731219 
L 82.713442 298.731219 
L 82.713442 298.518438 
L 84.596168 298.518438 
L 84.596168 298.305656 
L 95.752617 298.305656 
L 95.752617 297.880094 
L 102.011329 297.880094 
L 102.011329 297.454532 
L 102.708132 297.454532 
L 102.708132 297.241751 
L 103.707211 297.241751 
L 103.707211 296.816188 
L 106.137884 296.816188 
L 106.137884 296.603407 
L 108.542628 296.603407 
L 108.542628 296.390626 
L 113.57433 296.390626 
L 113.57433 295.539501 
L 113.765312 295.539501 
L 113.765312 295.32672 
L 114.510421 295.32672 
L 114.510421 294.688376 
L 116.583514 294.688376 
L 116.583514 294.262814 
L 117.848632 294.262814 
L 117.848632 293.411689 
L 118.74459 293.411689 
L 118.74459 293.198908 
L 119.319033 293.198908 
L 119.319033 292.986127 
L 120.28394 292.986127 
L 120.28394 292.773346 
L 121.073351 292.773346 
L 121.073351 292.560565 
L 122.19863 292.560565 
L 122.19863 292.135002 
L 124.156336 292.135002 
L 124.156336 291.70944 
L 125.011554 291.70944 
L 125.011554 291.496659 
L 125.526971 291.496659 
L 125.628382 291.071096 
L 125.729248 291.071096 
L 125.729248 290.858315 
L 126.709238 290.858315 
L 126.709238 290.645534 
L 127.640693 290.645534 
L 127.731351 290.007191 
L 127.911368 290.007191 
L 127.911368 289.794409 
L 128.528195 289.794409 
L 128.528195 289.581628 
L 129.125437 289.581628 
L 129.125437 289.368847 
L 129.375706 289.368847 
L 129.375706 289.156066 
L 130.579414 289.156066 
L 130.579414 288.943285 
L 132.428795 288.943285 
L 132.428795 288.730504 
L 132.915628 288.730504 
L 132.915628 288.517722 
L 133.78762 288.517722 
L 133.78762 288.304941 
L 135.298389 288.304941 
L 135.298389 288.09216 
L 135.478982 288.09216 
L 135.478982 287.879379 
L 138.616919 287.879379 
L 138.616919 287.666598 
L 139.313723 287.666598 
L 139.362521 287.241035 
L 140.312801 287.241035 
L 140.312801 287.028254 
L 140.543056 287.028254 
L 140.58877 286.602692 
L 141.65386 286.602692 
L 141.65386 286.389911 
L 141.995897 286.389911 
L 141.995897 286.177129 
L 142.45627 286.177129 
L 142.45627 285.964348 
L 142.945969 285.964348 
L 142.945969 285.751567 
L 143.10641 285.751567 
L 143.10641 285.538786 
L 143.657415 285.538786 
L 143.734829 284.900442 
L 143.773417 284.900442 
L 143.850356 284.262099 
L 143.965177 284.262099 
L 143.965177 284.049318 
L 144.2304 284.049318 
L 144.305496 283.410974 
L 144.342932 283.410974 
L 144.417581 282.985412 
L 144.454795 282.985412 
L 144.491935 282.559849 
L 144.565997 282.559849 
L 144.676545 282.134287 
L 144.931992 282.134287 
L 145.040416 281.495944 
L 145.291002 281.495944 
L 145.397382 280.8576 
L 145.643288 280.8576 
L 145.712961 280.432038 
L 145.886021 280.432038 
L 145.989098 279.580913 
L 146.159649 279.580913 
L 146.261241 278.729788 
L 146.429353 278.729788 
L 146.462796 278.304226 
L 146.595975 278.304226 
L 146.595975 278.091445 
L 146.892226 278.091445 
L 146.957431 277.665882 
L 147.022411 277.665882 
L 147.119461 277.24032 
L 147.1517 277.24032 
L 147.1517 277.027539 
L 147.343984 277.027539 
L 147.343984 276.601976 
L 147.471089 276.601976 
L 147.565858 275.963633 
L 147.597342 275.963633 
L 147.597342 275.750852 
L 147.722752 275.750852 
L 147.722752 275.538071 
L 147.847333 275.538071 
L 147.847333 275.325289 
L 147.971093 275.325289 
L 148.063382 274.474165 
L 148.094045 274.474165 
L 148.185734 273.835821 
L 148.246613 273.835821 
L 148.337564 273.410259 
L 148.607806 273.410259 
L 148.607806 273.197478 
L 148.726679 273.197478 
L 148.726679 272.984696 
L 148.932916 272.984696 
L 149.020615 272.559134 
L 149.194798 272.559134 
L 149.194798 272.346353 
L 149.367382 272.346353 
L 149.453084 271.920791 
L 149.481565 271.920791 
L 149.481565 271.708009 
L 149.679732 271.708009 
L 149.764026 270.856885 
L 149.79204 270.856885 
L 149.79204 270.644104 
L 149.959255 270.644104 
L 150.069911 270.218541 
L 150.207323 270.218541 
L 150.262008 269.367416 
L 150.343738 269.367416 
L 150.343738 268.941854 
L 150.533072 268.941854 
L 150.559965 267.665167 
L 150.693856 267.665167 
L 150.693856 267.452386 
L 150.853277 267.452386 
L 150.958812 265.962918 
L 151.168122 265.962918 
L 151.168122 265.750136 
L 151.32359 265.750136 
L 151.375128 265.111793 
L 151.60532 265.111793 
L 151.681429 264.047887 
L 151.757231 264.047887 
L 151.807597 262.983981 
L 151.95789 262.983981 
L 152.032588 261.707294 
L 152.20574 261.707294 
L 152.25492 261.281732 
L 152.450367 261.281732 
L 152.474656 260.856169 
L 152.595631 260.856169 
L 152.691854 259.792264 
L 152.739781 259.792264 
L 152.811444 259.15392 
L 152.906572 259.15392 
L 152.906572 258.728358 
L 153.071898 258.728358 
L 153.142309 257.026108 
L 153.189104 257.026108 
L 153.282346 256.174984 
L 153.375128 256.174984 
L 153.467455 255.323859 
L 153.490466 255.323859 
L 153.513449 254.685515 
L 153.627945 254.685515 
L 153.696309 253.408828 
L 153.787077 253.408828 
L 153.877408 251.493798 
L 153.899924 251.493798 
L 153.944874 249.791548 
L 154.012098 249.791548 
L 154.079083 248.089299 
L 154.168026 248.089299 
L 154.256552 247.663736 
L 154.300658 247.663736 
L 154.410475 246.174268 
L 154.476059 246.174268 
L 154.584859 245.323144 
L 154.606544 245.323144 
L 154.606544 244.897581 
L 154.73613 244.897581 
L 154.822028 243.620894 
L 154.86483 243.620894 
L 154.86483 242.769769 
L 155.035072 242.769769 
L 155.098517 241.705864 
L 155.18278 241.705864 
L 155.266666 240.429176 
L 155.30847 240.429176 
L 155.391799 239.365271 
L 155.495444 239.365271 
L 155.598521 238.726927 
L 155.619069 238.726927 
L 155.721473 237.024678 
L 155.741887 237.024678 
L 155.843627 236.599115 
L 155.863909 236.599115 
L 155.944819 235.747991 
L 156.045469 235.747991 
L 156.125604 233.620179 
L 156.185481 233.620179 
L 156.284856 232.769054 
L 156.403417 232.769054 
L 156.462418 231.492367 
L 156.540799 231.492367 
L 156.638319 230.428461 
L 156.657763 230.428461 
L 156.75468 229.577336 
L 156.812591 229.577336 
L 156.8511 229.151774 
L 156.947029 229.151774 
L 157.04247 227.236744 
L 157.061501 227.236744 
L 157.156365 225.960056 
L 157.175281 225.960056 
L 157.231914 224.896151 
L 157.288377 224.896151 
L 157.382107 223.832245 
L 157.400797 223.832245 
L 157.493969 221.704433 
L 157.549652 221.704433 
L 157.623641 219.789402 
L 157.678942 219.789402 
L 157.734081 219.151059 
L 157.807349 219.151059 
L 157.898535 217.023247 
L 157.934885 217.023247 
L 158.007377 215.320998 
L 158.061563 215.320998 
L 158.115593 214.469873 
L 158.187393 214.469873 
L 158.294582 212.342061 
L 158.312387 212.342061 
L 158.418868 210.214249 
L 158.436556 210.214249 
L 158.542339 208.299219 
L 158.559911 208.299219 
L 158.647529 206.596969 
L 158.699905 206.596969 
L 158.734741 204.681939 
L 158.821551 204.681939 
L 158.907961 203.618033 
L 158.942415 203.618033 
L 159.028273 201.064659 
L 159.096679 201.064659 
L 159.164837 200.000753 
L 159.215793 200.000753 
L 159.317295 198.085722 
L 159.334159 198.085722 
L 159.435025 195.532348 
L 159.485256 195.532348 
L 159.585318 192.978974 
L 159.601943 192.978974 
L 159.701388 190.851162 
L 159.717911 190.851162 
L 159.800309 189.148913 
L 159.833168 189.148913 
L 159.882349 187.872226 
L 159.964032 187.872226 
L 160.045361 185.744414 
L 160.077795 185.744414 
L 160.174762 184.254946 
L 160.23913 184.254946 
L 160.335271 181.488791 
L 160.351247 181.488791 
L 160.446818 179.786541 
L 160.478568 179.786541 
L 160.589271 178.297073 
L 160.652238 178.297073 
L 160.761927 177.020386 
L 160.777545 177.020386 
L 160.886507 175.318136 
L 160.902022 175.318136 
L 161.010268 172.764762 
L 161.041081 172.764762 
L 161.13322 172.3392 
L 161.163832 172.3392 
L 161.270586 168.72192 
L 161.285788 168.72192 
L 161.391854 166.806889 
L 161.406958 166.806889 
L 161.512345 163.615172 
L 161.55733 163.615172 
L 161.646981 161.912922 
L 161.676769 161.912922 
L 161.78066 160.210673 
L 161.795455 160.210673 
L 161.869254 159.359548 
L 161.928087 159.359548 
L 162.030602 157.018955 
L 162.05979 157.018955 
L 162.103487 156.167831 
L 162.190578 156.167831 
L 162.291676 152.976113 
L 162.306075 152.976113 
L 162.392235 151.061082 
L 162.435167 151.061082 
L 162.520739 148.933271 
L 162.549177 148.933271 
L 162.620084 147.231021 
L 162.6625 147.231021 
L 162.761101 144.464866 
L 162.775144 144.464866 
L 162.859187 142.549835 
L 162.915008 142.549835 
L 162.998429 141.485929 
L 163.067666 141.485929 
L 163.177917 138.294212 
L 163.219095 138.294212 
L 163.328465 135.740838 
L 163.342092 135.740838 
L 163.450751 133.400245 
L 163.464289 133.400245 
L 163.545315 132.336339 
L 163.585698 132.336339 
L 163.692963 130.208527 
L 163.706328 130.208527 
L 163.786321 128.293496 
L 163.839461 128.293496 
L 163.932096 124.888998 
L 163.95848 124.888998 
L 164.063646 121.271718 
L 164.089846 121.271718 
L 164.194282 118.505562 
L 164.207296 118.505562 
L 164.298142 117.228875 
L 164.414303 117.228875 
L 164.516958 115.101064 
L 164.55531 115.101064 
L 164.644495 113.611595 
L 164.682588 113.611595 
L 164.783793 111.271002 
L 164.821605 111.271002 
L 164.922068 109.355972 
L 164.934588 109.355972 
L 165.009535 107.866504 
L 165.059334 107.866504 
L 165.146166 106.802598 
L 165.183257 106.802598 
L 165.294095 104.887567 
L 165.318637 104.887567 
L 165.416487 102.972536 
L 165.45305 102.972536 
L 165.562313 99.9936 
L 165.622743 99.9936 
L 165.731028 98.078569 
L 165.743021 98.078569 
L 165.814821 96.801882 
L 165.862536 96.801882 
L 165.969454 94.886852 
L 166.063985 94.886852 
L 166.146311 93.610165 
L 166.181484 93.610165 
L 166.286609 92.120696 
L 166.344759 92.120696 
L 166.448979 91.056791 
L 166.460523 91.056791 
L 166.541136 89.354541 
L 166.587046 89.354541 
L 166.667119 88.503416 
L 166.701332 88.503416 
L 166.8036 87.226729 
L 166.848875 87.226729 
L 166.894041 86.162824 
L 166.984048 86.162824 
L 167.040085 85.311699 
L 167.129398 85.311699 
L 167.229371 83.822231 
L 167.251516 83.822231 
L 167.361848 82.758325 
L 167.372845 82.758325 
L 167.44965 82.332762 
L 167.493397 82.332762 
L 167.493397 82.119981 
L 167.634879 82.119981 
L 167.732209 80.843294 
L 167.753769 80.843294 
L 167.850487 79.353826 
L 167.882616 79.353826 
L 167.968026 78.28992 
L 168.042443 78.28992 
L 168.127132 77.226014 
L 168.169334 77.226014 
L 168.274427 74.67264 
L 168.389355 74.67264 
L 168.4725 73.183172 
L 168.565601 73.183172 
L 168.658244 71.268141 
L 168.709515 71.268141 
L 168.811641 70.204235 
L 168.821824 70.204235 
L 168.903083 69.140329 
L 168.983993 69.140329 
L 169.084644 67.43808 
L 169.134768 67.43808 
L 169.214689 66.374174 
L 169.32403 66.374174 
L 169.432739 64.459144 
L 169.462279 64.459144 
L 169.570194 63.182456 
L 169.579974 63.182456 
L 169.677494 61.905769 
L 169.696937 61.905769 
L 169.774511 60.629082 
L 169.832482 60.629082 
L 169.909499 59.565176 
L 169.976632 59.565176 
L 170.072123 57.862927 
L 170.129185 57.862927 
L 170.223906 57.011802 
L 170.261661 57.011802 
L 170.365099 55.735115 
L 170.393211 55.735115 
L 170.411929 55.096772 
L 170.523847 55.096772 
L 170.616607 53.607304 
L 170.745706 53.607304 
L 170.809925 52.756179 
L 170.883051 52.756179 
L 170.955893 51.692273 
L 171.037505 51.692273 
L 171.136775 50.841148 
L 171.199675 50.841148 
L 171.298095 49.138899 
L 171.351562 49.138899 
L 171.387122 48.713336 
L 171.581513 48.713336 
L 171.67796 48.287774 
L 171.695443 48.287774 
L 171.800001 47.223868 
L 171.955755 47.223868 
L 172.024567 46.798306 
L 172.195505 46.798306 
L 172.246485 46.372744 
L 172.33959 46.372744 
L 172.423834 45.521619 
L 172.507702 45.521619 
L 172.599527 44.883275 
L 172.666028 44.883275 
L 172.71575 44.244932 
L 172.790088 44.244932 
L 172.823033 43.819369 
L 172.921523 43.819369 
L 172.921523 43.606588 
L 173.068298 43.606588 
L 173.165515 42.968245 
L 173.334447 42.968245 
L 173.422332 42.11712 
L 173.462145 42.11712 
L 173.525671 41.691558 
L 173.659955 41.691558 
L 173.730661 41.053214 
L 173.785471 41.053214 
L 173.855707 40.414871 
L 173.948949 40.414871 
L 174.05715 39.563746 
L 174.080256 39.563746 
L 174.187707 38.925402 
L 174.195358 38.925402 
L 174.294547 38.287059 
L 174.446132 38.287059 
L 174.513949 37.861496 
L 174.708501 37.861496 
L 174.77538 37.010372 
L 174.945221 37.010372 
L 175.040543 36.584809 
L 175.069777 36.584809 
L 175.069777 36.372028 
L 175.193513 36.372028 
L 175.294806 35.946466 
L 175.729899 35.946466 
L 175.729899 35.733685 
L 176.072254 35.733685 
L 176.072254 35.520904 
L 176.223961 35.520904 
L 176.237692 35.095341 
L 176.54402 35.095341 
L 176.54402 34.88256 
L 176.671876 34.88256 
L 176.671876 34.669779 
L 176.911772 34.669779 
L 176.997654 34.244216 
L 177.252974 34.244216 
L 177.252974 34.031435 
L 177.543331 34.031435 
L 177.63913 32.967529 
L 177.702725 32.967529 
L 177.702725 32.754748 
L 177.986274 32.754748 
L 177.986274 32.541967 
L 178.191527 32.541967 
L 178.25945 31.903624 
L 178.4068 31.903624 
L 178.4068 31.690842 
L 178.631727 31.690842 
L 178.631727 31.478061 
L 178.80616 31.478061 
L 178.889793 31.052499 
L 179.173747 31.052499 
L 179.249919 30.626936 
L 179.517001 30.626936 
L 179.517001 30.414155 
L 180.263006 30.414155 
L 180.263006 30.201374 
L 180.846737 30.201374 
L 180.878939 29.775812 
L 181.081618 29.775812 
L 181.081618 29.563031 
L 181.350246 29.563031 
L 181.350246 29.350249 
L 181.932119 29.350249 
L 181.977698 28.711906 
L 182.437393 28.711906 
L 182.437393 28.499125 
L 184.323878 28.499125 
L 184.35065 28.073562 
L 187.736506 28.073562 
L 187.736506 27.860781 
L 187.984395 27.860781 
L 187.984395 27.648 
L 360.8064 27.648 
L 360.8064 27.648 
" style="fill: none; stroke: #ff00ff; stroke-width: 1.5; stroke-linecap: square"/>
   </g>
   <g id="line2d_41">
    <defs>
     <path id="mcc8d50197c" d="M -0 8.485281 
L 5.091169 0 
L 0 -8.485281 
L -5.091169 -0 
z
" style="stroke: #ff00ff; stroke-width: 1.5; stroke-linejoin: miter"/>
    </defs>
    <g>
     <use xlink:href="#mcc8d50197c" x="135.478982" y="288.09216" style="fill-opacity: 0; stroke: #ff00ff; stroke-width: 1.5; stroke-linejoin: miter"/>
     <use xlink:href="#mcc8d50197c" x="163.706328" y="129.995746" style="fill-opacity: 0; stroke: #ff00ff; stroke-width: 1.5; stroke-linejoin: miter"/>
     <use xlink:href="#mcc8d50197c" x="187.984395" y="27.860781" style="fill-opacity: 0; stroke: #ff00ff; stroke-width: 1.5; stroke-linejoin: miter"/>
     <use xlink:href="#mcc8d50197c" x="187.984395" y="27.648" style="fill-opacity: 0; stroke: #ff00ff; stroke-width: 1.5; stroke-linejoin: miter"/>
     <use xlink:href="#mcc8d50197c" x="360.8064" y="27.648" style="fill-opacity: 0; stroke: #ff00ff; stroke-width: 1.5; stroke-linejoin: miter"/>
    </g>
   </g>
   <g id="line2d_42">
    <path style="fill: none; stroke: #ff00ff; stroke-width: 1.5; stroke-linecap: square"/>
    <g/>
   </g>
   <g id="line2d_43">
    <path d="M 103.380045 297.241751 
" clip-path="url(#p93aa0be576)" style="fill: none; stroke: #ff00ff; stroke-width: 1.5; stroke-linecap: square"/>
    <defs>
     <path id="m2ce5e9b91d" d="M -12 12 
L 12 -12 
M -12 -12 
L 12 12 
" style="stroke: #ff00ff"/>
    </defs>
    <g clip-path="url(#p93aa0be576)">
     <use xlink:href="#m2ce5e9b91d" x="103.380045" y="297.241751" style="fill: #ff00ff; stroke: #ff00ff"/>
    </g>
   </g>
   <g id="line2d_44">
    <path d="M 360.8064 27.648 
L 380.514816 293.51808 
" style="fill: none; stroke: #ff00ff; stroke-width: 1.5; stroke-linecap: square"/>
    <g>
     <use xlink:href="#mcc8d50197c" x="360.8064" y="27.648" style="fill-opacity: 0; stroke: #ff00ff; stroke-width: 1.5; stroke-linejoin: miter"/>
     <use xlink:href="#mcc8d50197c" x="380.514816" y="293.51808" style="fill-opacity: 0; stroke: #ff00ff; stroke-width: 1.5; stroke-linejoin: miter"/>
    </g>
   </g>
   <g id="line2d_45">
    <path d="M 360.8064 27.648 
L 380.514816 163.296 
" style="fill: none; stroke: #000080; stroke-width: 1.5; stroke-linecap: square"/>
    <g>
     <use xlink:href="#m7b906dc502" x="360.8064" y="27.648" style="fill-opacity: 0; stroke: #000080; stroke-width: 1.5"/>
     <use xlink:href="#m7b906dc502" x="380.514816" y="163.296" style="fill-opacity: 0; stroke: #000080; stroke-width: 1.5"/>
    </g>
   </g>
   <g id="line2d_46">
    <path d="M 360.8064 298.944 
L 360.8064 27.648 
" style="fill: none; stroke: #000000; stroke-width: 1.5; stroke-linecap: square"/>
   </g>
   <g id="patch_3">
    <path d="M 57.6 298.944 
L 360.8064 298.944 
" style="fill: none; stroke: #000000; stroke-width: 0.8; stroke-linejoin: miter; stroke-linecap: square"/>
   </g>
   <g id="patch_4">
    <path d="M 57.6 27.648 
L 360.8064 27.648 
" style="fill: none; stroke: #000000; stroke-width: 0.8; stroke-linejoin: miter; stroke-linecap: square"/>
   </g>
   <g id="text_13">
    <!-- ex -->
    <g transform="translate(386.578944 297.381205)scale(0.14 -0.14)">
     <defs>
      <path id="DejaVuSans-78" d="M 3513 3500 
L 2247 1797 
L 3578 0 
L 2900 0 
L 1881 1375 
L 863 0 
L 184 0 
L 1544 1831 
L 300 3500 
L 978 3500 
L 1906 2253 
L 2834 3500 
L 3513 3500 
z
" transform="scale(0.015625)"/>
     </defs>
     <use xlink:href="#DejaVuSans-65"/>
     <use xlink:href="#DejaVuSans-78" x="59.773438"/>
    </g>
   </g>
   <g id="text_14">
    <!-- ex -->
    <g transform="translate(386.578944 167.159125)scale(0.14 -0.14)">
     <use xlink:href="#DejaVuSans-65"/>
     <use xlink:href="#DejaVuSans-78" x="59.773438"/>
    </g>
   </g>
   <g id="text_15">
    <!-- best 2009 -->
    <g transform="translate(386.578944 36.937045)scale(0.14 -0.14)">
     <defs>
      <path id="DejaVuSans-62" d="M 3116 1747 
Q 3116 2381 2855 2742 
Q 2594 3103 2138 3103 
Q 1681 3103 1420 2742 
Q 1159 2381 1159 1747 
Q 1159 1113 1420 752 
Q 1681 391 2138 391 
Q 2594 391 2855 752 
Q 3116 1113 3116 1747 
z
M 1159 2969 
Q 1341 3281 1617 3432 
Q 1894 3584 2278 3584 
Q 2916 3584 3314 3078 
Q 3713 2572 3713 1747 
Q 3713 922 3314 415 
Q 2916 -91 2278 -91 
Q 1894 -91 1617 61 
Q 1341 213 1159 525 
L 1159 0 
L 581 0 
L 581 4863 
L 1159 4863 
L 1159 2969 
z
" transform="scale(0.015625)"/>
      <path id="DejaVuSans-39" d="M 703 97 
L 703 672 
Q 941 559 1184 500 
Q 1428 441 1663 441 
Q 2288 441 2617 861 
Q 2947 1281 2994 2138 
Q 2813 1869 2534 1725 
Q 2256 1581 1919 1581 
Q 1219 1581 811 2004 
Q 403 2428 403 3163 
Q 403 3881 828 4315 
Q 1253 4750 1959 4750 
Q 2769 4750 3195 4129 
Q 3622 3509 3622 2328 
Q 3622 1225 3098 567 
Q 2575 -91 1691 -91 
Q 1453 -91 1209 -44 
Q 966 3 703 97 
z
M 1959 2075 
Q 2384 2075 2632 2365 
Q 2881 2656 2881 3163 
Q 2881 3666 2632 3958 
Q 2384 4250 1959 4250 
Q 1534 4250 1286 3958 
Q 1038 3666 1038 3163 
Q 1038 2656 1286 2365 
Q 1534 2075 1959 2075 
z
" transform="scale(0.015625)"/>
     </defs>
     <use xlink:href="#DejaVuSans-62"/>
     <use xlink:href="#DejaVuSans-65" x="63.476562"/>
     <use xlink:href="#DejaVuSans-73" x="125"/>
     <use xlink:href="#DejaVuSans-74" x="177.099609"/>
     <use xlink:href="#DejaVuSans-20" x="216.308594"/>
     <use xlink:href="#DejaVuSans-32" x="248.095703"/>
     <use xlink:href="#DejaVuSans-30" x="311.71875"/>
     <use xlink:href="#DejaVuSans-30" x="375.341797"/>
     <use xlink:href="#DejaVuSans-39" x="438.964844"/>
    </g>
   </g>
   <g id="text_16">
    <!-- bbob f11, 5-D -->
    <g transform="translate(60.632064 38.111366)scale(0.102 -0.102)">
     <defs>
      <path id="DejaVuSans-35" d="M 691 4666 
L 3169 4666 
L 3169 4134 
L 1269 4134 
L 1269 2991 
Q 1406 3038 1543 3061 
Q 1681 3084 1819 3084 
Q 2600 3084 3056 2656 
Q 3513 2228 3513 1497 
Q 3513 744 3044 326 
Q 2575 -91 1722 -91 
Q 1428 -91 1123 -41 
Q 819 9 494 109 
L 494 744 
Q 775 591 1075 516 
Q 1375 441 1709 441 
Q 2250 441 2565 725 
Q 2881 1009 2881 1497 
Q 2881 1984 2565 2268 
Q 2250 2553 1709 2553 
Q 1456 2553 1204 2497 
Q 953 2441 691 2322 
L 691 4666 
z
" transform="scale(0.015625)"/>
      <path id="DejaVuSans-44" d="M 1259 4147 
L 1259 519 
L 2022 519 
Q 2988 519 3436 956 
Q 3884 1394 3884 2338 
Q 3884 3275 3436 3711 
Q 2988 4147 2022 4147 
L 1259 4147 
z
M 628 4666 
L 1925 4666 
Q 3281 4666 3915 4102 
Q 4550 3538 4550 2338 
Q 4550 1131 3912 565 
Q 3275 0 1925 0 
L 628 0 
L 628 4666 
z
" transform="scale(0.015625)"/>
     </defs>
     <use xlink:href="#DejaVuSans-62"/>
     <use xlink:href="#DejaVuSans-62" x="63.476562"/>
     <use xlink:href="#DejaVuSans-6f" x="126.953125"/>
     <use xlink:href="#DejaVuSans-62" x="188.134766"/>
     <use xlink:href="#DejaVuSans-20" x="251.611328"/>
     <use xlink:href="#DejaVuSans-66" x="283.398438"/>
     <use xlink:href="#DejaVuSans-31" x="318.603516"/>
     <use xlink:href="#DejaVuSans-31" x="382.226562"/>
     <use xlink:href="#DejaVuSans-2c" x="445.849609"/>
     <use xlink:href="#DejaVuSans-20" x="477.636719"/>
     <use xlink:href="#DejaVuSans-35" x="509.423828"/>
     <use xlink:href="#DejaVuSans-2d" x="573.046875"/>
     <use xlink:href="#DejaVuSans-44" x="609.130859"/>
    </g>
    <!-- 51 targets: 100..1e-08 -->
    <g transform="translate(60.632064 49.533135)scale(0.102 -0.102)">
     <defs>
      <path id="DejaVuSans-3a" d="M 750 794 
L 1409 794 
L 1409 0 
L 750 0 
L 750 794 
z
M 750 3309 
L 1409 3309 
L 1409 2516 
L 750 2516 
L 750 3309 
z
" transform="scale(0.015625)"/>
     </defs>
     <use xlink:href="#DejaVuSans-35"/>
     <use xlink:href="#DejaVuSans-31" x="63.623047"/>
     <use xlink:href="#DejaVuSans-20" x="127.246094"/>
     <use xlink:href="#DejaVuSans-74" x="159.033203"/>
     <use xlink:href="#DejaVuSans-61" x="198.242188"/>
     <use xlink:href="#DejaVuSans-72" x="259.521484"/>
     <use xlink:href="#DejaVuSans-67" x="298.884766"/>
     <use xlink:href="#DejaVuSans-65" x="362.361328"/>
     <use xlink:href="#DejaVuSans-74" x="423.884766"/>
     <use xlink:href="#DejaVuSans-73" x="463.09375"/>
     <use xlink:href="#DejaVuSans-3a" x="515.193359"/>
     <use xlink:href="#DejaVuSans-20" x="548.884766"/>
     <use xlink:href="#DejaVuSans-31" x="580.671875"/>
     <use xlink:href="#DejaVuSans-30" x="644.294922"/>
     <use xlink:href="#DejaVuSans-30" x="707.917969"/>
     <use xlink:href="#DejaVuSans-2e" x="771.541016"/>
     <use xlink:href="#DejaVuSans-2e" x="803.328125"/>
     <use xlink:href="#DejaVuSans-31" x="835.115234"/>
     <use xlink:href="#DejaVuSans-65" x="898.738281"/>
     <use xlink:href="#DejaVuSans-2d" x="960.261719"/>
     <use xlink:href="#DejaVuSans-30" x="996.345703"/>
     <use xlink:href="#DejaVuSans-38" x="1059.96875"/>
    </g>
    <!-- 25 instances -->
    <g transform="translate(60.632064 60.954904)scale(0.102 -0.102)">
     <use xlink:href="#DejaVuSans-32"/>
     <use xlink:href="#DejaVuSans-35" x="63.623047"/>
     <use xlink:href="#DejaVuSans-20" x="127.246094"/>
     <use xlink:href="#DejaVuSans-69" x="159.033203"/>
     <use xlink:href="#DejaVuSans-6e" x="186.816406"/>
     <use xlink:href="#DejaVuSans-73" x="250.195312"/>
     <use xlink:href="#DejaVuSans-74" x="302.294922"/>
     <use xlink:href="#DejaVuSans-61" x="341.503906"/>
     <use xlink:href="#DejaVuSans-6e" x="402.783203"/>
     <use xlink:href="#DejaVuSans-63" x="466.162109"/>
     <use xlink:href="#DejaVuSans-65" x="521.142578"/>
     <use xlink:href="#DejaVuSans-73" x="582.666016"/>
    </g>
   </g>
   <g id="text_17">
    <!-- v2.6 -->
    <g style="fill: #808080" transform="translate(198.292262 294.151352)scale(0.1 -0.1)">
     <use xlink:href="#DejaVuSans-76"/>
     <use xlink:href="#DejaVuSans-32" x="59.179688"/>
     <use xlink:href="#DejaVuSans-2e" x="122.802734"/>
     <use xlink:href="#DejaVuSans-36" x="154.589844"/>
    </g>
   </g>
   <g id="text_18">
    <!-- 11 Discus -->
    <g transform="translate(160.567262 21.648)scale(0.2 -0.2)">
     <use xlink:href="#DejaVuSans-31"/>
     <use xlink:href="#DejaVuSans-31" x="63.623047"/>
     <use xlink:href="#DejaVuSans-20" x="127.246094"/>
     <use xlink:href="#DejaVuSans-44" x="159.033203"/>
     <use xlink:href="#DejaVuSans-69" x="236.035156"/>
     <use xlink:href="#DejaVuSans-73" x="263.818359"/>
     <use xlink:href="#DejaVuSans-63" x="315.917969"/>
     <use xlink:href="#DejaVuSans-75" x="370.898438"/>
     <use xlink:href="#DejaVuSans-73" x="434.277344"/>
    </g>
   </g>
  </g>
 </g>
 <defs>
  <clipPath id="p93aa0be576">
   <rect x="57.6" y="27.648" width="303.2064" height="271.296"/>
  </clipPath>
 </defs>
</svg>
