<?xml version="1.0" encoding="utf-8" standalone="no"?>
<!DOCTYPE svg PUBLIC "-//W3C//DTD SVG 1.1//EN"
  "http://www.w3.org/Graphics/SVG/1.1/DTD/svg11.dtd">
<svg xmlns:xlink="http://www.w3.org/1999/xlink" width="460.8pt" height="345.6pt" viewBox="0 0 460.8 345.6" xmlns="http://www.w3.org/2000/svg" version="1.1">
 <metadata>
  <rdf:RDF xmlns:dc="http://purl.org/dc/elements/1.1/" xmlns:cc="http://creativecommons.org/ns#" xmlns:rdf="http://www.w3.org/1999/02/22-rdf-syntax-ns#">
   <cc:Work>
    <dc:type rdf:resource="http://purl.org/dc/dcmitype/StillImage"/>
    <dc:date>2022-03-16T23:40:57.730057</dc:date>
    <dc:format>image/svg+xml</dc:format>
    <dc:creator>
     <cc:Agent>
      <dc:title>Matplotlib v3.5.1, https://matplotlib.org/</dc:title>
     </cc:Agent>
    </dc:creator>
   </cc:Work>
  </rdf:RDF>
 </metadata>
 <defs>
  <style type="text/css">*{stroke-linejoin: round; stroke-linecap: butt}</style>
 </defs>
 <g id="figure_1">
  <g id="patch_1">
   <path d="M 0 345.6 
L 460.8 345.6 
L 460.8 0 
L 0 0 
z
" style="fill: #ffffff"/>
  </g>
  <g id="axes_1">
   <g id="patch_2">
    <path d="M 57.6 298.944 
L 360.8064 298.944 
L 360.8064 27.648 
L 57.6 27.648 
z
" style="fill: #ffffff"/>
   </g>
   <g id="line2d_1">
    <path d="M 14.2848 298.944 
L 14.2848 288.304941 
L 105.112877 288.304941 
L 105.112877 282.985412 
L 108.29012 282.985412 
L 108.29012 277.665882 
L 111.97238 277.665882 
L 111.97238 272.346353 
L 113.954374 272.346353 
L 113.954374 267.026824 
L 118.076654 267.026824 
L 118.076654 261.707294 
L 125.628382 261.707294 
L 125.628382 256.387765 
L 130.540507 256.387765 
L 130.540507 251.068235 
L 133.423621 251.068235 
L 133.423621 245.748706 
L 136.068734 245.748706 
L 136.068734 240.429176 
L 137.38594 240.429176 
L 137.38594 235.109647 
L 138.743257 235.109647 
L 138.743257 229.790118 
L 139.676658 229.790118 
L 139.676658 224.470588 
L 140.928134 224.470588 
L 140.928134 219.151059 
L 141.327451 219.151059 
L 141.327451 213.831529 
L 142.331827 213.831529 
L 142.331827 208.512 
L 142.435586 208.512 
L 142.435586 203.192471 
L 142.925817 203.192471 
L 142.925817 197.872941 
L 143.579681 197.872941 
L 143.579681 192.553412 
L 144.098256 192.553412 
L 144.098256 187.233882 
L 144.192739 187.233882 
L 144.192739 181.914353 
L 144.211579 181.914353 
L 144.211579 176.594824 
L 144.658165 176.594824 
L 144.658165 171.275294 
L 145.004344 171.275294 
L 145.004344 165.955765 
L 145.415054 165.955765 
L 145.415054 160.636235 
L 145.7477 160.636235 
L 145.7477 155.316706 
L 146.074567 155.316706 
L 146.074567 144.677647 
L 146.176619 144.677647 
L 146.176619 139.358118 
L 146.244347 139.358118 
L 146.244347 128.719059 
L 146.261241 128.719059 
L 146.261241 123.399529 
L 146.412609 123.399529 
L 146.412609 118.08 
L 146.446082 118.08 
L 146.446082 112.760471 
L 146.662213 112.760471 
L 146.662213 107.440941 
L 146.761135 107.440941 
L 146.761135 102.121412 
L 146.989949 102.121412 
L 146.989949 91.482353 
L 147.087167 91.482353 
L 147.087167 86.162824 
L 147.359919 86.162824 
L 147.359919 80.843294 
L 147.375841 80.843294 
L 147.375841 75.523765 
L 147.423525 75.523765 
L 147.423525 54.245647 
L 147.518533 54.245647 
L 147.518533 48.926118 
L 147.565858 48.926118 
L 147.565858 43.606588 
L 147.613064 43.606588 
L 147.613064 27.648 
L 360.8064 27.648 
" style="fill: none; stroke: #f5deb3; stroke-width: 4; stroke-linecap: square"/>
   </g>
   <g id="line2d_2">
    <defs>
     <path id="m6daf399696" d="M -0 7.778175 
L 7.778175 0 
L 0 -7.778175 
L -7.778175 -0 
z
" style="stroke: #f5deb3; stroke-width: 1.5; stroke-linejoin: miter"/>
    </defs>
    <g>
     <use xlink:href="#m6daf399696" x="113.954374" y="272.346353" style="fill: #f5deb3; stroke: #f5deb3; stroke-width: 1.5; stroke-linejoin: miter"/>
     <use xlink:href="#m6daf399696" x="145.7477" y="155.316706" style="fill: #f5deb3; stroke: #f5deb3; stroke-width: 1.5; stroke-linejoin: miter"/>
     <use xlink:href="#m6daf399696" x="147.613064" y="43.606588" style="fill: #f5deb3; stroke: #f5deb3; stroke-width: 1.5; stroke-linejoin: miter"/>
     <use xlink:href="#m6daf399696" x="147.613064" y="27.648" style="fill: #f5deb3; stroke: #f5deb3; stroke-width: 1.5; stroke-linejoin: miter"/>
     <use xlink:href="#m6daf399696" x="147.613064" y="27.648" style="fill: #f5deb3; stroke: #f5deb3; stroke-width: 1.5; stroke-linejoin: miter"/>
     <use xlink:href="#m6daf399696" x="360.8064" y="27.648" style="fill: #f5deb3; stroke: #f5deb3; stroke-width: 1.5; stroke-linejoin: miter"/>
    </g>
   </g>
   <g id="line2d_3">
    <path style="fill: none; stroke: #f5deb3; stroke-width: 4; stroke-linecap: square"/>
    <g/>
   </g>
   <g id="line2d_4">
    <path d="M 360.8064 27.648 
L 380.514816 33.07392 
" style="fill: none; stroke: #f5deb3; stroke-width: 4; stroke-linecap: square"/>
    <g>
     <use xlink:href="#m6daf399696" x="360.8064" y="27.648" style="fill: #f5deb3; stroke: #f5deb3; stroke-width: 1.5; stroke-linejoin: miter"/>
     <use xlink:href="#m6daf399696" x="380.514816" y="33.07392" style="fill: #f5deb3; stroke: #f5deb3; stroke-width: 1.5; stroke-linejoin: miter"/>
    </g>
   </g>
   <g id="matplotlib.axis_1">
    <g id="xtick_1">
     <g id="line2d_5">
      <path d="M 57.6 298.944 
L 57.6 27.648 
" clip-path="url(#p619c1aaa3e)" style="fill: none; stroke: #b0b0b0; stroke-width: 0.8; stroke-linecap: square"/>
     </g>
     <g id="line2d_6">
      <defs>
       <path id="ma4a5493d99" d="M 0 0 
L 0 3.5 
" style="stroke: #000000; stroke-width: 0.8"/>
      </defs>
      <g>
       <use xlink:href="#ma4a5493d99" x="57.6" y="298.944" style="stroke: #000000; stroke-width: 0.8"/>
      </g>
     </g>
     <g id="text_1">
      <!-- 0 -->
      <g transform="translate(52.191875 318.861344)scale(0.17 -0.17)">
       <defs>
        <path id="DejaVuSans-30" d="M 2034 4250 
Q 1547 4250 1301 3770 
Q 1056 3291 1056 2328 
Q 1056 1369 1301 889 
Q 1547 409 2034 409 
Q 2525 409 2770 889 
Q 3016 1369 3016 2328 
Q 3016 3291 2770 3770 
Q 2525 4250 2034 4250 
z
M 2034 4750 
Q 2819 4750 3233 4129 
Q 3647 3509 3647 2328 
Q 3647 1150 3233 529 
Q 2819 -91 2034 -91 
Q 1250 -91 836 529 
Q 422 1150 422 2328 
Q 422 3509 836 4129 
Q 1250 4750 2034 4750 
z
" transform="scale(0.015625)"/>
       </defs>
       <use xlink:href="#DejaVuSans-30"/>
      </g>
     </g>
    </g>
    <g id="xtick_2">
     <g id="line2d_7">
      <path d="M 144.2304 298.944 
L 144.2304 27.648 
" clip-path="url(#p619c1aaa3e)" style="fill: none; stroke: #b0b0b0; stroke-width: 0.8; stroke-linecap: square"/>
     </g>
     <g id="line2d_8">
      <g>
       <use xlink:href="#ma4a5493d99" x="144.2304" y="298.944" style="stroke: #000000; stroke-width: 0.8"/>
      </g>
     </g>
     <g id="text_2">
      <!-- 2 -->
      <g transform="translate(138.822275 318.861344)scale(0.17 -0.17)">
       <defs>
        <path id="DejaVuSans-32" d="M 1228 531 
L 3431 531 
L 3431 0 
L 469 0 
L 469 531 
Q 828 903 1448 1529 
Q 2069 2156 2228 2338 
Q 2531 2678 2651 2914 
Q 2772 3150 2772 3378 
Q 2772 3750 2511 3984 
Q 2250 4219 1831 4219 
Q 1534 4219 1204 4116 
Q 875 4013 500 3803 
L 500 4441 
Q 881 4594 1212 4672 
Q 1544 4750 1819 4750 
Q 2544 4750 2975 4387 
Q 3406 4025 3406 3419 
Q 3406 3131 3298 2873 
Q 3191 2616 2906 2266 
Q 2828 2175 2409 1742 
Q 1991 1309 1228 531 
z
" transform="scale(0.015625)"/>
       </defs>
       <use xlink:href="#DejaVuSans-32"/>
      </g>
     </g>
    </g>
    <g id="xtick_3">
     <g id="line2d_9">
      <path d="M 230.8608 298.944 
L 230.8608 27.648 
" clip-path="url(#p619c1aaa3e)" style="fill: none; stroke: #b0b0b0; stroke-width: 0.8; stroke-linecap: square"/>
     </g>
     <g id="line2d_10">
      <g>
       <use xlink:href="#ma4a5493d99" x="230.8608" y="298.944" style="stroke: #000000; stroke-width: 0.8"/>
      </g>
     </g>
     <g id="text_3">
      <!-- 4 -->
      <g transform="translate(225.452675 318.861344)scale(0.17 -0.17)">
       <defs>
        <path id="DejaVuSans-34" d="M 2419 4116 
L 825 1625 
L 2419 1625 
L 2419 4116 
z
M 2253 4666 
L 3047 4666 
L 3047 1625 
L 3713 1625 
L 3713 1100 
L 3047 1100 
L 3047 0 
L 2419 0 
L 2419 1100 
L 313 1100 
L 313 1709 
L 2253 4666 
z
" transform="scale(0.015625)"/>
       </defs>
       <use xlink:href="#DejaVuSans-34"/>
      </g>
     </g>
    </g>
    <g id="xtick_4">
     <g id="line2d_11">
      <path d="M 317.4912 298.944 
L 317.4912 27.648 
" clip-path="url(#p619c1aaa3e)" style="fill: none; stroke: #b0b0b0; stroke-width: 0.8; stroke-linecap: square"/>
     </g>
     <g id="line2d_12">
      <g>
       <use xlink:href="#ma4a5493d99" x="317.4912" y="298.944" style="stroke: #000000; stroke-width: 0.8"/>
      </g>
     </g>
     <g id="text_4">
      <!-- 6 -->
      <g transform="translate(312.083075 318.861344)scale(0.17 -0.17)">
       <defs>
        <path id="DejaVuSans-36" d="M 2113 2584 
Q 1688 2584 1439 2293 
Q 1191 2003 1191 1497 
Q 1191 994 1439 701 
Q 1688 409 2113 409 
Q 2538 409 2786 701 
Q 3034 994 3034 1497 
Q 3034 2003 2786 2293 
Q 2538 2584 2113 2584 
z
M 3366 4563 
L 3366 3988 
Q 3128 4100 2886 4159 
Q 2644 4219 2406 4219 
Q 1781 4219 1451 3797 
Q 1122 3375 1075 2522 
Q 1259 2794 1537 2939 
Q 1816 3084 2150 3084 
Q 2853 3084 3261 2657 
Q 3669 2231 3669 1497 
Q 3669 778 3244 343 
Q 2819 -91 2113 -91 
Q 1303 -91 875 529 
Q 447 1150 447 2328 
Q 447 3434 972 4092 
Q 1497 4750 2381 4750 
Q 2619 4750 2861 4703 
Q 3103 4656 3366 4563 
z
" transform="scale(0.015625)"/>
       </defs>
       <use xlink:href="#DejaVuSans-36"/>
      </g>
     </g>
    </g>
    <g id="xtick_5">
     <g id="line2d_13">
      <path d="M 100.9152 298.944 
L 100.9152 27.648 
" clip-path="url(#p619c1aaa3e)" style="fill: none; stroke: #b0b0b0; stroke-width: 0.8; stroke-linecap: square"/>
     </g>
     <g id="line2d_14">
      <defs>
       <path id="m5eba1d2b92" d="M 0 0 
L 0 2 
" style="stroke: #000000; stroke-width: 0.6"/>
      </defs>
      <g>
       <use xlink:href="#m5eba1d2b92" x="100.9152" y="298.944" style="stroke: #000000; stroke-width: 0.6"/>
      </g>
     </g>
    </g>
    <g id="xtick_6">
     <g id="line2d_15">
      <path d="M 187.5456 298.944 
L 187.5456 27.648 
" clip-path="url(#p619c1aaa3e)" style="fill: none; stroke: #b0b0b0; stroke-width: 0.8; stroke-linecap: square"/>
     </g>
     <g id="line2d_16">
      <g>
       <use xlink:href="#m5eba1d2b92" x="187.5456" y="298.944" style="stroke: #000000; stroke-width: 0.6"/>
      </g>
     </g>
    </g>
    <g id="xtick_7">
     <g id="line2d_17">
      <path d="M 274.176 298.944 
L 274.176 27.648 
" clip-path="url(#p619c1aaa3e)" style="fill: none; stroke: #b0b0b0; stroke-width: 0.8; stroke-linecap: square"/>
     </g>
     <g id="line2d_18">
      <g>
       <use xlink:href="#m5eba1d2b92" x="274.176" y="298.944" style="stroke: #000000; stroke-width: 0.6"/>
      </g>
     </g>
    </g>
    <g id="xtick_8">
     <g id="line2d_19">
      <path d="M 360.8064 298.944 
L 360.8064 27.648 
" clip-path="url(#p619c1aaa3e)" style="fill: none; stroke: #b0b0b0; stroke-width: 0.8; stroke-linecap: square"/>
     </g>
     <g id="line2d_20">
      <g>
       <use xlink:href="#m5eba1d2b92" x="360.8064" y="298.944" style="stroke: #000000; stroke-width: 0.6"/>
      </g>
     </g>
    </g>
    <g id="text_5">
     <!-- log10(# f-evals / dimension) -->
     <g transform="translate(88.823278 339.314156)scale(0.17 -0.17)">
      <defs>
       <path id="DejaVuSans-6c" d="M 603 4863 
L 1178 4863 
L 1178 0 
L 603 0 
L 603 4863 
z
" transform="scale(0.015625)"/>
       <path id="DejaVuSans-6f" d="M 1959 3097 
Q 1497 3097 1228 2736 
Q 959 2375 959 1747 
Q 959 1119 1226 758 
Q 1494 397 1959 397 
Q 2419 397 2687 759 
Q 2956 1122 2956 1747 
Q 2956 2369 2687 2733 
Q 2419 3097 1959 3097 
z
M 1959 3584 
Q 2709 3584 3137 3096 
Q 3566 2609 3566 1747 
Q 3566 888 3137 398 
Q 2709 -91 1959 -91 
Q 1206 -91 779 398 
Q 353 888 353 1747 
Q 353 2609 779 3096 
Q 1206 3584 1959 3584 
z
" transform="scale(0.015625)"/>
       <path id="DejaVuSans-67" d="M 2906 1791 
Q 2906 2416 2648 2759 
Q 2391 3103 1925 3103 
Q 1463 3103 1205 2759 
Q 947 2416 947 1791 
Q 947 1169 1205 825 
Q 1463 481 1925 481 
Q 2391 481 2648 825 
Q 2906 1169 2906 1791 
z
M 3481 434 
Q 3481 -459 3084 -895 
Q 2688 -1331 1869 -1331 
Q 1566 -1331 1297 -1286 
Q 1028 -1241 775 -1147 
L 775 -588 
Q 1028 -725 1275 -790 
Q 1522 -856 1778 -856 
Q 2344 -856 2625 -561 
Q 2906 -266 2906 331 
L 2906 616 
Q 2728 306 2450 153 
Q 2172 0 1784 0 
Q 1141 0 747 490 
Q 353 981 353 1791 
Q 353 2603 747 3093 
Q 1141 3584 1784 3584 
Q 2172 3584 2450 3431 
Q 2728 3278 2906 2969 
L 2906 3500 
L 3481 3500 
L 3481 434 
z
" transform="scale(0.015625)"/>
       <path id="DejaVuSans-31" d="M 794 531 
L 1825 531 
L 1825 4091 
L 703 3866 
L 703 4441 
L 1819 4666 
L 2450 4666 
L 2450 531 
L 3481 531 
L 3481 0 
L 794 0 
L 794 531 
z
" transform="scale(0.015625)"/>
       <path id="DejaVuSans-28" d="M 1984 4856 
Q 1566 4138 1362 3434 
Q 1159 2731 1159 2009 
Q 1159 1288 1364 580 
Q 1569 -128 1984 -844 
L 1484 -844 
Q 1016 -109 783 600 
Q 550 1309 550 2009 
Q 550 2706 781 3412 
Q 1013 4119 1484 4856 
L 1984 4856 
z
" transform="scale(0.015625)"/>
       <path id="DejaVuSans-23" d="M 3272 2816 
L 2363 2816 
L 2100 1772 
L 3016 1772 
L 3272 2816 
z
M 2803 4594 
L 2478 3297 
L 3391 3297 
L 3719 4594 
L 4219 4594 
L 3897 3297 
L 4872 3297 
L 4872 2816 
L 3775 2816 
L 3519 1772 
L 4513 1772 
L 4513 1294 
L 3397 1294 
L 3072 0 
L 2572 0 
L 2894 1294 
L 1978 1294 
L 1656 0 
L 1153 0 
L 1478 1294 
L 494 1294 
L 494 1772 
L 1594 1772 
L 1856 2816 
L 850 2816 
L 850 3297 
L 1978 3297 
L 2297 4594 
L 2803 4594 
z
" transform="scale(0.015625)"/>
       <path id="DejaVuSans-20" transform="scale(0.015625)"/>
       <path id="DejaVuSans-66" d="M 2375 4863 
L 2375 4384 
L 1825 4384 
Q 1516 4384 1395 4259 
Q 1275 4134 1275 3809 
L 1275 3500 
L 2222 3500 
L 2222 3053 
L 1275 3053 
L 1275 0 
L 697 0 
L 697 3053 
L 147 3053 
L 147 3500 
L 697 3500 
L 697 3744 
Q 697 4328 969 4595 
Q 1241 4863 1831 4863 
L 2375 4863 
z
" transform="scale(0.015625)"/>
       <path id="DejaVuSans-2d" d="M 313 2009 
L 1997 2009 
L 1997 1497 
L 313 1497 
L 313 2009 
z
" transform="scale(0.015625)"/>
       <path id="DejaVuSans-65" d="M 3597 1894 
L 3597 1613 
L 953 1613 
Q 991 1019 1311 708 
Q 1631 397 2203 397 
Q 2534 397 2845 478 
Q 3156 559 3463 722 
L 3463 178 
Q 3153 47 2828 -22 
Q 2503 -91 2169 -91 
Q 1331 -91 842 396 
Q 353 884 353 1716 
Q 353 2575 817 3079 
Q 1281 3584 2069 3584 
Q 2775 3584 3186 3129 
Q 3597 2675 3597 1894 
z
M 3022 2063 
Q 3016 2534 2758 2815 
Q 2500 3097 2075 3097 
Q 1594 3097 1305 2825 
Q 1016 2553 972 2059 
L 3022 2063 
z
" transform="scale(0.015625)"/>
       <path id="DejaVuSans-76" d="M 191 3500 
L 800 3500 
L 1894 563 
L 2988 3500 
L 3597 3500 
L 2284 0 
L 1503 0 
L 191 3500 
z
" transform="scale(0.015625)"/>
       <path id="DejaVuSans-61" d="M 2194 1759 
Q 1497 1759 1228 1600 
Q 959 1441 959 1056 
Q 959 750 1161 570 
Q 1363 391 1709 391 
Q 2188 391 2477 730 
Q 2766 1069 2766 1631 
L 2766 1759 
L 2194 1759 
z
M 3341 1997 
L 3341 0 
L 2766 0 
L 2766 531 
Q 2569 213 2275 61 
Q 1981 -91 1556 -91 
Q 1019 -91 701 211 
Q 384 513 384 1019 
Q 384 1609 779 1909 
Q 1175 2209 1959 2209 
L 2766 2209 
L 2766 2266 
Q 2766 2663 2505 2880 
Q 2244 3097 1772 3097 
Q 1472 3097 1187 3025 
Q 903 2953 641 2809 
L 641 3341 
Q 956 3463 1253 3523 
Q 1550 3584 1831 3584 
Q 2591 3584 2966 3190 
Q 3341 2797 3341 1997 
z
" transform="scale(0.015625)"/>
       <path id="DejaVuSans-73" d="M 2834 3397 
L 2834 2853 
Q 2591 2978 2328 3040 
Q 2066 3103 1784 3103 
Q 1356 3103 1142 2972 
Q 928 2841 928 2578 
Q 928 2378 1081 2264 
Q 1234 2150 1697 2047 
L 1894 2003 
Q 2506 1872 2764 1633 
Q 3022 1394 3022 966 
Q 3022 478 2636 193 
Q 2250 -91 1575 -91 
Q 1294 -91 989 -36 
Q 684 19 347 128 
L 347 722 
Q 666 556 975 473 
Q 1284 391 1588 391 
Q 1994 391 2212 530 
Q 2431 669 2431 922 
Q 2431 1156 2273 1281 
Q 2116 1406 1581 1522 
L 1381 1569 
Q 847 1681 609 1914 
Q 372 2147 372 2553 
Q 372 3047 722 3315 
Q 1072 3584 1716 3584 
Q 2034 3584 2315 3537 
Q 2597 3491 2834 3397 
z
" transform="scale(0.015625)"/>
       <path id="DejaVuSans-2f" d="M 1625 4666 
L 2156 4666 
L 531 -594 
L 0 -594 
L 1625 4666 
z
" transform="scale(0.015625)"/>
       <path id="DejaVuSans-64" d="M 2906 2969 
L 2906 4863 
L 3481 4863 
L 3481 0 
L 2906 0 
L 2906 525 
Q 2725 213 2448 61 
Q 2172 -91 1784 -91 
Q 1150 -91 751 415 
Q 353 922 353 1747 
Q 353 2572 751 3078 
Q 1150 3584 1784 3584 
Q 2172 3584 2448 3432 
Q 2725 3281 2906 2969 
z
M 947 1747 
Q 947 1113 1208 752 
Q 1469 391 1925 391 
Q 2381 391 2643 752 
Q 2906 1113 2906 1747 
Q 2906 2381 2643 2742 
Q 2381 3103 1925 3103 
Q 1469 3103 1208 2742 
Q 947 2381 947 1747 
z
" transform="scale(0.015625)"/>
       <path id="DejaVuSans-69" d="M 603 3500 
L 1178 3500 
L 1178 0 
L 603 0 
L 603 3500 
z
M 603 4863 
L 1178 4863 
L 1178 4134 
L 603 4134 
L 603 4863 
z
" transform="scale(0.015625)"/>
       <path id="DejaVuSans-6d" d="M 3328 2828 
Q 3544 3216 3844 3400 
Q 4144 3584 4550 3584 
Q 5097 3584 5394 3201 
Q 5691 2819 5691 2113 
L 5691 0 
L 5113 0 
L 5113 2094 
Q 5113 2597 4934 2840 
Q 4756 3084 4391 3084 
Q 3944 3084 3684 2787 
Q 3425 2491 3425 1978 
L 3425 0 
L 2847 0 
L 2847 2094 
Q 2847 2600 2669 2842 
Q 2491 3084 2119 3084 
Q 1678 3084 1418 2786 
Q 1159 2488 1159 1978 
L 1159 0 
L 581 0 
L 581 3500 
L 1159 3500 
L 1159 2956 
Q 1356 3278 1631 3431 
Q 1906 3584 2284 3584 
Q 2666 3584 2933 3390 
Q 3200 3197 3328 2828 
z
" transform="scale(0.015625)"/>
       <path id="DejaVuSans-6e" d="M 3513 2113 
L 3513 0 
L 2938 0 
L 2938 2094 
Q 2938 2591 2744 2837 
Q 2550 3084 2163 3084 
Q 1697 3084 1428 2787 
Q 1159 2491 1159 1978 
L 1159 0 
L 581 0 
L 581 3500 
L 1159 3500 
L 1159 2956 
Q 1366 3272 1645 3428 
Q 1925 3584 2291 3584 
Q 2894 3584 3203 3211 
Q 3513 2838 3513 2113 
z
" transform="scale(0.015625)"/>
       <path id="DejaVuSans-29" d="M 513 4856 
L 1013 4856 
Q 1481 4119 1714 3412 
Q 1947 2706 1947 2009 
Q 1947 1309 1714 600 
Q 1481 -109 1013 -844 
L 513 -844 
Q 928 -128 1133 580 
Q 1338 1288 1338 2009 
Q 1338 2731 1133 3434 
Q 928 4138 513 4856 
z
" transform="scale(0.015625)"/>
      </defs>
      <use xlink:href="#DejaVuSans-6c"/>
      <use xlink:href="#DejaVuSans-6f" x="27.783203"/>
      <use xlink:href="#DejaVuSans-67" x="88.964844"/>
      <use xlink:href="#DejaVuSans-31" x="152.441406"/>
      <use xlink:href="#DejaVuSans-30" x="216.064453"/>
      <use xlink:href="#DejaVuSans-28" x="279.6875"/>
      <use xlink:href="#DejaVuSans-23" x="318.701172"/>
      <use xlink:href="#DejaVuSans-20" x="402.490234"/>
      <use xlink:href="#DejaVuSans-66" x="434.277344"/>
      <use xlink:href="#DejaVuSans-2d" x="463.982422"/>
      <use xlink:href="#DejaVuSans-65" x="500.066406"/>
      <use xlink:href="#DejaVuSans-76" x="561.589844"/>
      <use xlink:href="#DejaVuSans-61" x="620.769531"/>
      <use xlink:href="#DejaVuSans-6c" x="682.048828"/>
      <use xlink:href="#DejaVuSans-73" x="709.832031"/>
      <use xlink:href="#DejaVuSans-20" x="761.931641"/>
      <use xlink:href="#DejaVuSans-2f" x="793.71875"/>
      <use xlink:href="#DejaVuSans-20" x="827.410156"/>
      <use xlink:href="#DejaVuSans-64" x="859.197266"/>
      <use xlink:href="#DejaVuSans-69" x="922.673828"/>
      <use xlink:href="#DejaVuSans-6d" x="950.457031"/>
      <use xlink:href="#DejaVuSans-65" x="1047.869141"/>
      <use xlink:href="#DejaVuSans-6e" x="1109.392578"/>
      <use xlink:href="#DejaVuSans-73" x="1172.771484"/>
      <use xlink:href="#DejaVuSans-69" x="1224.871094"/>
      <use xlink:href="#DejaVuSans-6f" x="1252.654297"/>
      <use xlink:href="#DejaVuSans-6e" x="1313.835938"/>
      <use xlink:href="#DejaVuSans-29" x="1377.214844"/>
     </g>
    </g>
   </g>
   <g id="matplotlib.axis_2">
    <g id="ytick_1">
     <g id="line2d_21">
      <path d="M 57.6 298.944 
L 360.8064 298.944 
" clip-path="url(#p619c1aaa3e)" style="fill: none; stroke: #b0b0b0; stroke-width: 0.8; stroke-linecap: square"/>
     </g>
     <g id="line2d_22">
      <defs>
       <path id="mc4d48f5031" d="M 0 0 
L -3.5 0 
" style="stroke: #000000; stroke-width: 0.8"/>
      </defs>
      <g>
       <use xlink:href="#mc4d48f5031" x="57.6" y="298.944" style="stroke: #000000; stroke-width: 0.8"/>
      </g>
     </g>
     <g id="text_6">
      <!-- 0.0 -->
      <g transform="translate(25.155 305.02275)scale(0.16 -0.16)">
       <defs>
        <path id="DejaVuSans-2e" d="M 684 794 
L 1344 794 
L 1344 0 
L 684 0 
L 684 794 
z
" transform="scale(0.015625)"/>
       </defs>
       <use xlink:href="#DejaVuSans-30"/>
       <use xlink:href="#DejaVuSans-2e" x="63.623047"/>
       <use xlink:href="#DejaVuSans-30" x="95.410156"/>
      </g>
     </g>
    </g>
    <g id="ytick_2">
     <g id="line2d_23">
      <path d="M 57.6 244.6848 
L 360.8064 244.6848 
" clip-path="url(#p619c1aaa3e)" style="fill: none; stroke: #b0b0b0; stroke-width: 0.8; stroke-linecap: square"/>
     </g>
     <g id="line2d_24">
      <g>
       <use xlink:href="#mc4d48f5031" x="57.6" y="244.6848" style="stroke: #000000; stroke-width: 0.8"/>
      </g>
     </g>
     <g id="text_7">
      <!-- 0.2 -->
      <g transform="translate(25.155 250.76355)scale(0.16 -0.16)">
       <use xlink:href="#DejaVuSans-30"/>
       <use xlink:href="#DejaVuSans-2e" x="63.623047"/>
       <use xlink:href="#DejaVuSans-32" x="95.410156"/>
      </g>
     </g>
    </g>
    <g id="ytick_3">
     <g id="line2d_25">
      <path d="M 57.6 190.4256 
L 360.8064 190.4256 
" clip-path="url(#p619c1aaa3e)" style="fill: none; stroke: #b0b0b0; stroke-width: 0.8; stroke-linecap: square"/>
     </g>
     <g id="line2d_26">
      <g>
       <use xlink:href="#mc4d48f5031" x="57.6" y="190.4256" style="stroke: #000000; stroke-width: 0.8"/>
      </g>
     </g>
     <g id="text_8">
      <!-- 0.4 -->
      <g transform="translate(25.155 196.50435)scale(0.16 -0.16)">
       <use xlink:href="#DejaVuSans-30"/>
       <use xlink:href="#DejaVuSans-2e" x="63.623047"/>
       <use xlink:href="#DejaVuSans-34" x="95.410156"/>
      </g>
     </g>
    </g>
    <g id="ytick_4">
     <g id="line2d_27">
      <path d="M 57.6 136.1664 
L 360.8064 136.1664 
" clip-path="url(#p619c1aaa3e)" style="fill: none; stroke: #b0b0b0; stroke-width: 0.8; stroke-linecap: square"/>
     </g>
     <g id="line2d_28">
      <g>
       <use xlink:href="#mc4d48f5031" x="57.6" y="136.1664" style="stroke: #000000; stroke-width: 0.8"/>
      </g>
     </g>
     <g id="text_9">
      <!-- 0.6 -->
      <g transform="translate(25.155 142.24515)scale(0.16 -0.16)">
       <use xlink:href="#DejaVuSans-30"/>
       <use xlink:href="#DejaVuSans-2e" x="63.623047"/>
       <use xlink:href="#DejaVuSans-36" x="95.410156"/>
      </g>
     </g>
    </g>
    <g id="ytick_5">
     <g id="line2d_29">
      <path d="M 57.6 81.9072 
L 360.8064 81.9072 
" clip-path="url(#p619c1aaa3e)" style="fill: none; stroke: #b0b0b0; stroke-width: 0.8; stroke-linecap: square"/>
     </g>
     <g id="line2d_30">
      <g>
       <use xlink:href="#mc4d48f5031" x="57.6" y="81.9072" style="stroke: #000000; stroke-width: 0.8"/>
      </g>
     </g>
     <g id="text_10">
      <!-- 0.8 -->
      <g transform="translate(25.155 87.98595)scale(0.16 -0.16)">
       <defs>
        <path id="DejaVuSans-38" d="M 2034 2216 
Q 1584 2216 1326 1975 
Q 1069 1734 1069 1313 
Q 1069 891 1326 650 
Q 1584 409 2034 409 
Q 2484 409 2743 651 
Q 3003 894 3003 1313 
Q 3003 1734 2745 1975 
Q 2488 2216 2034 2216 
z
M 1403 2484 
Q 997 2584 770 2862 
Q 544 3141 544 3541 
Q 544 4100 942 4425 
Q 1341 4750 2034 4750 
Q 2731 4750 3128 4425 
Q 3525 4100 3525 3541 
Q 3525 3141 3298 2862 
Q 3072 2584 2669 2484 
Q 3125 2378 3379 2068 
Q 3634 1759 3634 1313 
Q 3634 634 3220 271 
Q 2806 -91 2034 -91 
Q 1263 -91 848 271 
Q 434 634 434 1313 
Q 434 1759 690 2068 
Q 947 2378 1403 2484 
z
M 1172 3481 
Q 1172 3119 1398 2916 
Q 1625 2713 2034 2713 
Q 2441 2713 2670 2916 
Q 2900 3119 2900 3481 
Q 2900 3844 2670 4047 
Q 2441 4250 2034 4250 
Q 1625 4250 1398 4047 
Q 1172 3844 1172 3481 
z
" transform="scale(0.015625)"/>
       </defs>
       <use xlink:href="#DejaVuSans-30"/>
       <use xlink:href="#DejaVuSans-2e" x="63.623047"/>
       <use xlink:href="#DejaVuSans-38" x="95.410156"/>
      </g>
     </g>
    </g>
    <g id="ytick_6">
     <g id="line2d_31">
      <path d="M 57.6 27.648 
L 360.8064 27.648 
" clip-path="url(#p619c1aaa3e)" style="fill: none; stroke: #b0b0b0; stroke-width: 0.8; stroke-linecap: square"/>
     </g>
     <g id="line2d_32">
      <g>
       <use xlink:href="#mc4d48f5031" x="57.6" y="27.648" style="stroke: #000000; stroke-width: 0.8"/>
      </g>
     </g>
     <g id="text_11">
      <!-- 1.0 -->
      <g transform="translate(25.155 33.72675)scale(0.16 -0.16)">
       <use xlink:href="#DejaVuSans-31"/>
       <use xlink:href="#DejaVuSans-2e" x="63.623047"/>
       <use xlink:href="#DejaVuSans-30" x="95.410156"/>
      </g>
     </g>
    </g>
    <g id="text_12">
     <!-- Fraction of function,target pairs -->
     <g transform="translate(17.619531 297.681)rotate(-90)scale(0.17 -0.17)">
      <defs>
       <path id="DejaVuSans-46" d="M 628 4666 
L 3309 4666 
L 3309 4134 
L 1259 4134 
L 1259 2759 
L 3109 2759 
L 3109 2228 
L 1259 2228 
L 1259 0 
L 628 0 
L 628 4666 
z
" transform="scale(0.015625)"/>
       <path id="DejaVuSans-72" d="M 2631 2963 
Q 2534 3019 2420 3045 
Q 2306 3072 2169 3072 
Q 1681 3072 1420 2755 
Q 1159 2438 1159 1844 
L 1159 0 
L 581 0 
L 581 3500 
L 1159 3500 
L 1159 2956 
Q 1341 3275 1631 3429 
Q 1922 3584 2338 3584 
Q 2397 3584 2469 3576 
Q 2541 3569 2628 3553 
L 2631 2963 
z
" transform="scale(0.015625)"/>
       <path id="DejaVuSans-63" d="M 3122 3366 
L 3122 2828 
Q 2878 2963 2633 3030 
Q 2388 3097 2138 3097 
Q 1578 3097 1268 2742 
Q 959 2388 959 1747 
Q 959 1106 1268 751 
Q 1578 397 2138 397 
Q 2388 397 2633 464 
Q 2878 531 3122 666 
L 3122 134 
Q 2881 22 2623 -34 
Q 2366 -91 2075 -91 
Q 1284 -91 818 406 
Q 353 903 353 1747 
Q 353 2603 823 3093 
Q 1294 3584 2113 3584 
Q 2378 3584 2631 3529 
Q 2884 3475 3122 3366 
z
" transform="scale(0.015625)"/>
       <path id="DejaVuSans-74" d="M 1172 4494 
L 1172 3500 
L 2356 3500 
L 2356 3053 
L 1172 3053 
L 1172 1153 
Q 1172 725 1289 603 
Q 1406 481 1766 481 
L 2356 481 
L 2356 0 
L 1766 0 
Q 1100 0 847 248 
Q 594 497 594 1153 
L 594 3053 
L 172 3053 
L 172 3500 
L 594 3500 
L 594 4494 
L 1172 4494 
z
" transform="scale(0.015625)"/>
       <path id="DejaVuSans-75" d="M 544 1381 
L 544 3500 
L 1119 3500 
L 1119 1403 
Q 1119 906 1312 657 
Q 1506 409 1894 409 
Q 2359 409 2629 706 
Q 2900 1003 2900 1516 
L 2900 3500 
L 3475 3500 
L 3475 0 
L 2900 0 
L 2900 538 
Q 2691 219 2414 64 
Q 2138 -91 1772 -91 
Q 1169 -91 856 284 
Q 544 659 544 1381 
z
M 1991 3584 
L 1991 3584 
z
" transform="scale(0.015625)"/>
       <path id="DejaVuSans-2c" d="M 750 794 
L 1409 794 
L 1409 256 
L 897 -744 
L 494 -744 
L 750 256 
L 750 794 
z
" transform="scale(0.015625)"/>
       <path id="DejaVuSans-70" d="M 1159 525 
L 1159 -1331 
L 581 -1331 
L 581 3500 
L 1159 3500 
L 1159 2969 
Q 1341 3281 1617 3432 
Q 1894 3584 2278 3584 
Q 2916 3584 3314 3078 
Q 3713 2572 3713 1747 
Q 3713 922 3314 415 
Q 2916 -91 2278 -91 
Q 1894 -91 1617 61 
Q 1341 213 1159 525 
z
M 3116 1747 
Q 3116 2381 2855 2742 
Q 2594 3103 2138 3103 
Q 1681 3103 1420 2742 
Q 1159 2381 1159 1747 
Q 1159 1113 1420 752 
Q 1681 391 2138 391 
Q 2594 391 2855 752 
Q 3116 1113 3116 1747 
z
" transform="scale(0.015625)"/>
      </defs>
      <use xlink:href="#DejaVuSans-46"/>
      <use xlink:href="#DejaVuSans-72" x="50.269531"/>
      <use xlink:href="#DejaVuSans-61" x="91.382812"/>
      <use xlink:href="#DejaVuSans-63" x="152.662109"/>
      <use xlink:href="#DejaVuSans-74" x="207.642578"/>
      <use xlink:href="#DejaVuSans-69" x="246.851562"/>
      <use xlink:href="#DejaVuSans-6f" x="274.634766"/>
      <use xlink:href="#DejaVuSans-6e" x="335.816406"/>
      <use xlink:href="#DejaVuSans-20" x="399.195312"/>
      <use xlink:href="#DejaVuSans-6f" x="430.982422"/>
      <use xlink:href="#DejaVuSans-66" x="492.164062"/>
      <use xlink:href="#DejaVuSans-20" x="527.369141"/>
      <use xlink:href="#DejaVuSans-66" x="559.15625"/>
      <use xlink:href="#DejaVuSans-75" x="594.361328"/>
      <use xlink:href="#DejaVuSans-6e" x="657.740234"/>
      <use xlink:href="#DejaVuSans-63" x="721.119141"/>
      <use xlink:href="#DejaVuSans-74" x="776.099609"/>
      <use xlink:href="#DejaVuSans-69" x="815.308594"/>
      <use xlink:href="#DejaVuSans-6f" x="843.091797"/>
      <use xlink:href="#DejaVuSans-6e" x="904.273438"/>
      <use xlink:href="#DejaVuSans-2c" x="967.652344"/>
      <use xlink:href="#DejaVuSans-74" x="999.439453"/>
      <use xlink:href="#DejaVuSans-61" x="1038.648438"/>
      <use xlink:href="#DejaVuSans-72" x="1099.927734"/>
      <use xlink:href="#DejaVuSans-67" x="1139.291016"/>
      <use xlink:href="#DejaVuSans-65" x="1202.767578"/>
      <use xlink:href="#DejaVuSans-74" x="1264.291016"/>
      <use xlink:href="#DejaVuSans-20" x="1303.5"/>
      <use xlink:href="#DejaVuSans-70" x="1335.287109"/>
      <use xlink:href="#DejaVuSans-61" x="1398.763672"/>
      <use xlink:href="#DejaVuSans-69" x="1460.042969"/>
      <use xlink:href="#DejaVuSans-72" x="1487.826172"/>
      <use xlink:href="#DejaVuSans-73" x="1528.939453"/>
     </g>
    </g>
   </g>
   <g id="line2d_33">
    <defs>
     <path id="m5ca52913fe" d="M 0 1.5 
C 0.397805 1.5 0.77937 1.341951 1.06066 1.06066 
C 1.341951 0.77937 1.5 0.397805 1.5 0 
C 1.5 -0.397805 1.341951 -0.77937 1.06066 -1.06066 
C 0.77937 -1.341951 0.397805 -1.5 0 -1.5 
C -0.397805 -1.5 -0.77937 -1.341951 -1.06066 -1.06066 
C -1.341951 -0.77937 -1.5 -0.397805 -1.5 0 
C -1.5 0.397805 -1.341951 0.77937 -1.06066 1.06066 
C -0.77937 1.341951 -0.397805 1.5 0 1.5 
z
" style="stroke: #f5deb3"/>
    </defs>
    <g>
     <use xlink:href="#m5ca52913fe" x="147.613064" y="27.648" style="fill: #f5deb3; stroke: #f5deb3"/>
     <use xlink:href="#m5ca52913fe" x="147.613064" y="27.648" style="fill: #f5deb3; stroke: #f5deb3"/>
    </g>
   </g>
   <g id="line2d_34">
    <defs>
     <path id="m5949ebde86" d="M 0 1.5 
C 0.397805 1.5 0.77937 1.341951 1.06066 1.06066 
C 1.341951 0.77937 1.5 0.397805 1.5 0 
C 1.5 -0.397805 1.341951 -0.77937 1.06066 -1.06066 
C 0.77937 -1.341951 0.397805 -1.5 0 -1.5 
C -0.397805 -1.5 -0.77937 -1.341951 -1.06066 -1.06066 
C -1.341951 -0.77937 -1.5 -0.397805 -1.5 0 
C -1.5 0.397805 -1.341951 0.77937 -1.06066 1.06066 
C -0.77937 1.341951 -0.397805 1.5 0 1.5 
z
" style="stroke: #000080"/>
    </defs>
    <g>
     <use xlink:href="#m5949ebde86" x="204.174526" y="27.648" style="fill: #000080; stroke: #000080"/>
     <use xlink:href="#m5949ebde86" x="204.174526" y="27.648" style="fill: #000080; stroke: #000080"/>
    </g>
   </g>
   <g id="line2d_35">
    <path d="M 14.2848 298.944 
L 14.2848 288.304941 
L 110.106149 288.304941 
L 110.106149 288.09216 
L 111.97238 288.09216 
L 112.076599 287.666598 
L 112.180244 287.666598 
L 112.283321 287.241035 
L 115.050503 287.241035 
L 115.050503 287.028254 
L 115.314838 287.028254 
L 115.314838 286.815473 
L 115.661605 286.815473 
L 115.661605 286.602692 
L 115.917548 286.602692 
L 115.917548 286.389911 
L 116.170056 286.389911 
L 116.170056 286.177129 
L 116.336531 286.177129 
L 116.336531 285.751567 
L 116.988079 285.751567 
L 116.988079 285.538786 
L 117.384126 285.538786 
L 117.384126 285.113224 
L 117.695068 285.113224 
L 117.695068 284.900442 
L 117.924947 284.900442 
L 117.924947 284.687661 
L 118.227147 284.687661 
L 118.227147 284.47488 
L 118.74459 284.47488 
L 118.817362 283.836536 
L 118.962067 283.836536 
L 118.962067 283.623755 
L 119.389621 283.623755 
L 119.389621 283.410974 
L 119.599808 283.410974 
L 119.599808 283.198193 
L 119.944983 283.198193 
L 119.944983 282.985412 
L 120.28394 282.985412 
L 120.28394 282.772631 
L 120.41783 282.772631 
L 120.48442 282.347068 
L 120.682786 282.347068 
L 120.748446 281.921506 
L 120.944062 281.921506 
L 120.944062 281.708725 
L 121.137664 281.708725 
L 121.137664 281.495944 
L 121.329295 281.495944 
L 121.329295 281.283162 
L 121.706797 281.283162 
L 121.768984 280.8576 
L 121.954321 280.8576 
L 121.954321 280.432038 
L 122.259215 280.432038 
L 122.259215 280.219256 
L 123.202939 280.219256 
L 123.202939 280.006475 
L 123.4884 280.006475 
L 123.4884 279.793694 
L 123.601383 279.793694 
L 123.601383 279.580913 
L 123.713691 279.580913 
L 123.713691 279.155351 
L 123.880906 279.155351 
L 123.880906 278.942569 
L 124.319679 278.942569 
L 124.319679 278.517007 
L 124.801367 278.517007 
L 124.801367 278.304226 
L 125.011554 278.304226 
L 125.011554 277.878664 
L 125.167667 277.878664 
L 125.167667 277.665882 
L 125.425011 277.665882 
L 125.425011 277.453101 
L 125.577745 277.453101 
L 125.678882 277.027539 
L 125.979073 277.027539 
L 125.979073 276.601976 
L 126.225624 276.601976 
L 126.225624 276.389195 
L 126.613505 276.389195 
L 126.709238 275.750852 
L 126.899255 275.750852 
L 126.899255 275.538071 
L 127.087372 275.538071 
L 127.18073 275.112508 
L 127.319904 275.112508 
L 127.319904 274.899727 
L 127.640693 274.899727 
L 127.731351 274.474165 
L 128.089678 274.474165 
L 128.133992 274.048602 
L 128.354013 274.048602 
L 128.354013 273.835821 
L 128.614685 273.835821 
L 128.700779 273.410259 
L 128.743679 273.410259 
L 128.743679 273.197478 
L 128.956723 273.197478 
L 128.956723 272.984696 
L 129.581749 272.984696 
L 129.581749 272.771915 
L 130.107132 272.771915 
L 130.107132 271.920791 
L 130.579414 271.920791 
L 130.579414 271.708009 
L 131.563744 271.708009 
L 131.563744 271.495228 
L 131.856536 271.495228 
L 131.856536 271.282447 
L 132.915628 271.282447 
L 132.984158 270.644104 
L 133.154399 270.644104 
L 133.154399 270.431322 
L 133.589949 270.431322 
L 133.589949 270.218541 
L 134.7148 270.218541 
L 134.7148 270.00576 
L 135.478982 270.00576 
L 135.478982 269.792979 
L 140.359078 269.792979 
L 140.359078 269.580198 
L 141.084433 269.580198 
L 141.084433 269.367416 
L 141.50224 269.367416 
L 141.50224 269.154635 
L 142.185595 269.154635 
L 142.185595 268.941854 
L 142.60042 268.941854 
L 142.60042 268.729073 
L 143.811926 268.729073 
L 143.811926 268.516292 
L 144.454795 268.516292 
L 144.454795 268.303511 
L 144.768174 268.303511 
L 144.768174 268.090729 
L 145.040416 268.090729 
L 145.040416 267.877948 
L 145.851536 267.877948 
L 145.851536 267.452386 
L 146.074567 267.452386 
L 146.074567 267.239605 
L 147.006187 267.239605 
L 147.006187 267.026824 
L 148.637595 267.026824 
L 148.637595 266.814042 
L 148.976817 266.814042 
L 148.976817 266.601261 
L 149.107908 266.601261 
L 149.107908 266.38848 
L 149.381693 266.38848 
L 149.381693 266.175699 
L 150.014665 266.175699 
L 150.014665 265.962918 
L 150.275654 265.962918 
L 150.275654 265.750136 
L 150.546523 265.750136 
L 150.546523 265.537355 
L 150.892922 265.537355 
L 150.971962 265.111793 
L 151.490576 265.111793 
L 151.490576 264.899012 
L 152.763699 264.899012 
L 152.763699 264.686231 
L 153.684932 264.686231 
L 153.741748 264.260668 
L 154.486967 264.260668 
L 154.486967 264.047887 
L 155.30847 264.047887 
L 155.30847 263.835106 
L 155.464411 263.835106 
L 155.464411 263.622325 
L 155.639595 263.622325 
L 155.670341 262.7712 
L 156.065535 262.7712 
L 156.065535 262.558419 
L 156.205398 262.558419 
L 156.255099 262.132856 
L 156.383708 262.132856 
L 156.462418 261.707294 
L 156.589623 261.707294 
L 156.589623 261.494513 
L 157.1469 261.494513 
L 157.1469 261.281732 
L 157.456756 261.281732 
L 157.456756 261.068951 
L 157.595929 261.068951 
L 157.595929 260.856169 
L 158.043518 260.856169 
L 158.061563 260.430607 
L 158.559911 260.430607 
L 158.656269 260.005045 
L 158.786875 260.005045 
L 158.786875 259.792264 
L 159.002557 259.792264 
L 159.002557 259.579482 
L 159.824959 259.579482 
L 159.890533 259.15392 
L 160.00474 259.15392 
L 160.00474 258.941139 
L 160.18282 258.941139 
L 160.263211 258.515576 
L 160.343261 258.515576 
L 160.343261 258.302795 
L 160.730652 258.302795 
L 160.730652 257.877233 
L 161.064158 257.877233 
L 161.102557 257.451671 
L 161.861887 257.451671 
L 161.906046 257.026108 
L 161.994053 257.026108 
L 162.096211 256.600546 
L 162.17609 256.600546 
L 162.17609 256.387765 
L 162.470869 256.387765 
L 162.470869 256.174984 
L 162.620084 256.174984 
L 162.620084 255.962202 
L 162.859187 255.962202 
L 162.894094 255.53664 
L 163.11598 255.53664 
L 163.11598 255.323859 
L 163.3965 255.323859 
L 163.3965 255.111078 
L 163.518345 255.111078 
L 163.625994 254.685515 
L 163.692963 254.685515 
L 163.79962 254.259953 
L 163.991407 254.259953 
L 164.024277 253.621609 
L 164.142137 253.621609 
L 164.233297 252.983266 
L 164.298142 252.983266 
L 164.304614 252.557704 
L 164.427166 252.557704 
L 164.465701 251.91936 
L 164.669899 251.91936 
L 164.745905 251.281016 
L 164.815309 251.281016 
L 164.897003 250.855454 
L 165.146166 250.855454 
L 165.170902 250.429892 
L 165.343147 250.429892 
L 165.428682 249.365986 
L 165.622743 249.365986 
L 165.719027 248.727642 
L 165.892297 248.727642 
L 165.916071 248.30208 
L 166.016779 248.30208 
L 166.075768 247.663736 
L 166.280784 247.663736 
L 166.280784 247.450955 
L 166.396941 247.450955 
L 166.396941 247.238174 
L 166.587046 247.238174 
L 166.621405 246.812612 
L 166.707029 246.812612 
L 166.752536 246.387049 
L 166.860176 246.387049 
L 166.950346 245.961487 
L 166.989659 245.961487 
L 167.079212 244.6848 
L 167.273634 244.6848 
L 167.378342 243.833675 
L 167.44965 243.833675 
L 167.553385 243.195332 
L 167.580589 243.195332 
L 167.651136 242.556988 
L 167.710623 242.556988 
L 167.753769 241.705864 
L 167.823671 241.705864 
L 167.823671 241.493082 
L 167.983997 241.493082 
L 168.074246 241.06752 
L 168.095418 241.06752 
L 168.164064 240.003614 
L 168.242961 240.003614 
L 168.326754 239.365271 
L 168.399768 239.365271 
L 168.4725 238.088584 
L 168.565601 238.088584 
L 168.62227 237.237459 
L 168.704395 237.237459 
L 168.811641 236.173553 
L 168.862497 236.173553 
L 168.963798 234.684085 
L 169.014245 234.684085 
L 169.094679 233.407398 
L 169.174771 233.407398 
L 169.269439 232.981835 
L 169.289309 232.981835 
L 169.388343 231.705148 
L 169.472115 231.705148 
L 169.565302 230.641242 
L 169.589749 230.641242 
L 169.687218 229.790118 
L 169.706651 229.790118 
L 169.75999 229.364555 
L 169.832482 229.364555 
L 169.9383 227.449525 
L 169.967056 227.449525 
L 170.053063 226.172838 
L 170.081645 226.172838 
L 170.186075 224.045026 
L 170.20027 224.045026 
L 170.28051 222.98112 
L 170.336945 222.98112 
L 170.430628 221.704433 
L 170.458643 221.704433 
L 170.561006 220.214965 
L 170.648965 220.214965 
L 170.759486 218.725496 
L 170.764077 218.725496 
L 170.851093 217.661591 
L 170.878489 217.661591 
L 170.983137 215.320998 
L 171.005809 215.320998 
L 171.091717 214.044311 
L 171.154768 214.044311 
L 171.248949 211.703718 
L 171.293632 211.703718 
L 171.364905 210.427031 
L 171.404878 210.427031 
L 171.506646 208.512 
L 171.546318 208.512 
L 171.629799 207.022532 
L 171.67796 207.022532 
L 171.769565 204.469158 
L 171.795656 204.469158 
L 171.895337 202.128565 
L 171.942824 202.128565 
L 172.04602 199.787972 
L 172.076012 199.787972 
L 172.169963 198.936847 
L 172.204011 198.936847 
L 172.293095 196.383473 
L 172.322696 196.383473 
L 172.411221 193.830099 
L 172.449034 193.830099 
L 172.545321 192.340631 
L 172.562016 192.340631 
L 172.670177 189.361694 
L 172.695049 189.361694 
L 172.79833 186.382758 
L 172.806568 186.382758 
L 172.876446 183.616602 
L 172.933798 183.616602 
L 173.039848 180.212104 
L 173.068298 180.212104 
L 173.165515 176.807605 
L 173.185706 176.807605 
L 173.294362 172.3392 
L 173.298374 172.3392 
L 173.406384 169.147482 
L 173.410372 169.147482 
L 173.485993 167.019671 
L 173.521707 167.019671 
L 173.604778 164.466296 
L 173.648145 164.466296 
L 173.758086 160.423454 
L 173.773739 160.423454 
L 173.871279 158.295642 
L 173.890727 158.295642 
L 173.995397 155.529487 
L 174.022439 155.529487 
L 174.13022 152.337769 
L 174.137895 152.337769 
L 174.248833 149.146052 
L 174.25646 149.146052 
L 174.351535 147.231021 
L 174.370492 147.231021 
L 174.476303 144.464866 
L 174.483838 144.464866 
L 174.585269 141.911492 
L 174.633911 141.911492 
L 174.734538 139.570899 
L 174.745685 139.570899 
L 174.827233 137.655868 
L 174.871565 137.655868 
L 174.978272 135.528056 
L 174.989276 135.528056 
L 175.077078 133.613026 
L 175.113541 133.613026 
L 175.22251 131.059652 
L 175.229752 131.059652 
L 175.334451 128.719059 
L 175.352444 128.719059 
L 175.452888 125.952904 
L 175.510044 125.952904 
L 175.620293 123.399529 
L 175.630928 123.399529 
L 175.736948 121.058936 
L 175.768638 121.058936 
L 175.83887 118.931125 
L 175.880884 118.931125 
L 175.982031 116.377751 
L 176.00289 116.377751 
L 176.11375 114.675501 
L 176.117204 114.675501 
L 176.223961 112.122127 
L 176.254842 112.122127 
L 176.360823 109.994315 
L 176.37786 109.994315 
L 176.472989 108.079285 
L 176.506847 108.079285 
L 176.614785 104.887567 
L 176.628234 104.887567 
L 176.73548 102.759755 
L 176.748842 102.759755 
L 176.83547 100.631944 
L 176.862045 100.631944 
L 176.971271 98.504132 
L 176.97787 98.504132 
L 177.079865 95.525195 
L 177.089707 95.525195 
L 177.158452 94.886852 
L 177.22369 94.886852 
L 177.317886 92.971821 
L 177.343789 92.971821 
L 177.430947 92.120696 
L 177.475981 92.120696 
L 177.530521 91.482353 
L 177.594485 91.482353 
L 177.683669 90.631228 
L 177.709073 90.631228 
L 177.797717 88.503416 
L 177.822968 88.503416 
L 177.914217 86.588386 
L 177.936177 86.588386 
L 178.042475 84.673355 
L 178.089181 84.673355 
L 178.188434 83.609449 
L 178.234779 83.609449 
L 178.339408 82.545544 
L 178.348612 82.545544 
L 178.431246 81.694419 
L 178.486135 81.694419 
L 178.5712 80.630513 
L 178.598461 80.630513 
L 178.707112 79.353826 
L 178.716138 79.353826 
L 178.81813 77.013233 
L 178.877868 77.013233 
L 178.97899 74.885421 
L 178.999742 74.885421 
L 179.03822 74.247078 
L 179.24407 74.247078 
L 179.270374 73.821515 
L 179.360695 73.821515 
L 179.467933 72.332047 
L 179.493926 72.332047 
L 179.493926 72.119266 
L 179.6663 72.119266 
L 179.754744 70.417016 
L 179.780344 70.417016 
L 179.885223 69.353111 
L 179.933215 69.353111 
L 180.028834 67.225299 
L 180.045657 67.225299 
L 180.13234 66.161393 
L 180.193616 66.161393 
L 180.287923 65.310268 
L 180.326619 65.310268 
L 180.428504 64.671925 
L 180.477871 64.671925 
L 180.524377 64.246362 
L 180.660496 64.246362 
L 180.736294 63.395238 
L 180.827927 63.395238 
L 180.827927 63.182456 
L 181.044446 63.182456 
L 181.044446 62.969675 
L 181.171587 62.969675 
L 181.171587 62.756894 
L 181.308361 62.756894 
L 181.378988 61.692988 
L 181.496113 61.692988 
L 181.496113 61.480207 
L 181.702552 61.480207 
L 181.810032 60.629082 
L 181.845723 60.629082 
L 181.95239 59.565176 
L 182.02569 59.565176 
L 182.063492 58.926833 
L 182.153909 58.926833 
L 182.256356 58.075708 
L 182.273791 58.075708 
L 182.378066 57.650146 
L 182.543221 57.650146 
L 182.653338 56.58624 
L 182.757962 56.58624 
L 182.833029 55.947896 
L 183.054061 55.947896 
L 183.161236 55.309553 
L 183.446426 55.309553 
L 183.446426 55.096772 
L 183.558372 55.096772 
L 183.60714 54.671209 
L 183.821604 54.671209 
L 183.887983 54.245647 
L 183.933625 54.245647 
L 184.026848 53.820085 
L 184.209672 53.820085 
L 184.209672 53.607304 
L 184.806563 53.607304 
L 184.841347 53.181741 
L 185.121607 53.181741 
L 185.121607 52.96896 
L 185.488208 52.96896 
L 185.55106 52.330616 
L 185.84986 52.330616 
L 185.84986 52.117835 
L 187.424819 52.117835 
L 187.424819 51.905054 
L 188.944523 51.905054 
L 188.944523 51.692273 
L 189.762954 51.692273 
L 189.762954 51.479492 
L 190.054946 51.479492 
L 190.054946 51.266711 
L 190.571298 51.266711 
L 190.571298 51.053929 
L 190.749834 51.053929 
L 190.749834 50.841148 
L 190.873179 50.841148 
L 190.873179 50.628367 
L 191.249251 50.628367 
L 191.249251 50.415586 
L 191.575484 50.415586 
L 191.575484 50.202805 
L 191.744781 50.202805 
L 191.84234 49.777242 
L 192.013715 49.777242 
L 192.013715 49.564461 
L 192.14086 49.564461 
L 192.187952 49.138899 
L 192.385331 49.138899 
L 192.385331 48.926118 
L 192.547526 48.926118 
L 192.639584 48.500555 
L 192.685445 48.500555 
L 192.761157 48.074993 
L 192.85076 48.074993 
L 192.925811 47.649431 
L 193.001971 47.649431 
L 193.079226 46.798306 
L 193.121231 46.798306 
L 193.230009 45.521619 
L 193.246689 45.521619 
L 193.357508 43.819369 
L 193.378214 43.819369 
L 193.453943 42.755464 
L 193.495121 42.755464 
L 193.579938 41.053214 
L 193.667092 41.053214 
L 193.77817 40.202089 
L 193.786272 40.202089 
L 193.86979 39.350965 
L 193.928836 39.350965 
L 194.029057 37.861496 
L 194.046375 37.861496 
L 194.156567 37.223153 
L 194.163184 37.223153 
L 194.208122 36.372028 
L 194.276642 36.372028 
L 194.381574 35.095341 
L 194.556033 35.095341 
L 194.665865 34.456998 
L 194.672306 34.456998 
L 194.71219 34.031435 
L 194.795543 34.031435 
L 194.813448 33.605873 
L 194.909077 33.605873 
L 194.992831 32.754748 
L 195.105184 32.754748 
L 195.203103 31.478061 
L 195.32541 31.478061 
L 195.32541 31.26528 
L 195.485203 31.26528 
L 195.594663 30.839718 
L 195.616723 30.839718 
L 195.616723 30.626936 
L 195.85286 30.626936 
L 195.868578 30.201374 
L 196.099206 30.201374 
L 196.136179 29.775812 
L 196.306978 29.775812 
L 196.354149 29.350249 
L 196.87224 29.350249 
L 196.87224 29.137468 
L 197.054678 29.137468 
L 197.148626 28.711906 
L 197.269051 28.711906 
L 197.269051 28.499125 
L 197.393168 28.499125 
L 197.457698 28.073562 
L 197.983409 28.073562 
L 197.983409 27.860781 
L 204.174526 27.860781 
L 204.174526 27.648 
L 360.8064 27.648 
L 360.8064 27.648 
" style="fill: none; stroke: #000080; stroke-width: 1.5; stroke-linecap: square"/>
   </g>
   <g id="line2d_36">
    <defs>
     <path id="mc8b3a7b9ca" d="M 0 6 
C 1.591219 6 3.117479 5.367802 4.242641 4.242641 
C 5.367802 3.117479 6 1.591219 6 0 
C 6 -1.591219 5.367802 -3.117479 4.242641 -4.242641 
C 3.117479 -5.367802 1.591219 -6 0 -6 
C -1.591219 -6 -3.117479 -5.367802 -4.242641 -4.242641 
C -5.367802 -3.117479 -6 -1.591219 -6 0 
C -6 1.591219 -5.367802 3.117479 -4.242641 4.242641 
C -3.117479 5.367802 -1.591219 6 0 6 
z
" style="stroke: #000080; stroke-width: 1.5"/>
    </defs>
    <g>
     <use xlink:href="#mc8b3a7b9ca" x="120.748446" y="282.134287" style="fill-opacity: 0; stroke: #000080; stroke-width: 1.5"/>
     <use xlink:href="#mc8b3a7b9ca" x="174.080256" y="153.401675" style="fill-opacity: 0; stroke: #000080; stroke-width: 1.5"/>
     <use xlink:href="#mc8b3a7b9ca" x="204.174526" y="27.860781" style="fill-opacity: 0; stroke: #000080; stroke-width: 1.5"/>
     <use xlink:href="#mc8b3a7b9ca" x="204.174526" y="27.648" style="fill-opacity: 0; stroke: #000080; stroke-width: 1.5"/>
     <use xlink:href="#mc8b3a7b9ca" x="204.174526" y="27.648" style="fill-opacity: 0; stroke: #000080; stroke-width: 1.5"/>
     <use xlink:href="#mc8b3a7b9ca" x="360.8064" y="27.648" style="fill-opacity: 0; stroke: #000080; stroke-width: 1.5"/>
    </g>
   </g>
   <g id="line2d_37">
    <path style="fill: none; stroke: #000080; stroke-width: 1.5; stroke-linecap: square"/>
    <g/>
   </g>
   <g id="line2d_38">
    <path d="M 103.047088 288.304941 
" clip-path="url(#p619c1aaa3e)" style="fill: none; stroke: #000080; stroke-width: 1.5; stroke-linecap: square"/>
    <defs>
     <path id="m8a76bf0cb2" d="M -12 12 
L 12 -12 
M -12 -12 
L 12 12 
" style="stroke: #000080"/>
    </defs>
    <g clip-path="url(#p619c1aaa3e)">
     <use xlink:href="#m8a76bf0cb2" x="103.047088" y="288.304941" style="fill: #000080; stroke: #000080"/>
    </g>
   </g>
   <g id="line2d_39">
    <defs>
     <path id="m244e99d54d" d="M 0 1.5 
C 0.397805 1.5 0.77937 1.341951 1.06066 1.06066 
C 1.341951 0.77937 1.5 0.397805 1.5 0 
C 1.5 -0.397805 1.341951 -0.77937 1.06066 -1.06066 
C 0.77937 -1.341951 0.397805 -1.5 0 -1.5 
C -0.397805 -1.5 -0.77937 -1.341951 -1.06066 -1.06066 
C -1.341951 -0.77937 -1.5 -0.397805 -1.5 0 
C -1.5 0.397805 -1.341951 0.77937 -1.06066 1.06066 
C -0.77937 1.341951 -0.397805 1.5 0 1.5 
z
" style="stroke: #ff00ff"/>
    </defs>
    <g>
     <use xlink:href="#m244e99d54d" x="196.164753" y="27.648" style="fill: #ff00ff; stroke: #ff00ff"/>
     <use xlink:href="#m244e99d54d" x="196.164753" y="27.648" style="fill: #ff00ff; stroke: #ff00ff"/>
    </g>
   </g>
   <g id="line2d_40">
    <path d="M 14.2848 298.944 
L 14.2848 288.304941 
L 117.462345 288.304941 
L 117.462345 288.09216 
L 117.617813 288.09216 
L 117.617813 287.879379 
L 118.152051 287.879379 
L 118.152051 287.453816 
L 119.177058 287.453816 
L 119.177058 287.241035 
L 119.669351 287.241035 
L 119.669351 287.028254 
L 120.0813 287.028254 
L 120.0813 286.815473 
L 120.28394 286.815473 
L 120.28394 286.602692 
L 120.48442 286.602692 
L 120.48442 286.389911 
L 121.073351 286.389911 
L 121.073351 286.177129 
L 121.518993 286.177129 
L 121.518993 285.964348 
L 121.706797 285.964348 
L 121.768984 285.538786 
L 122.015696 285.538786 
L 122.015696 285.326005 
L 122.13785 285.326005 
L 122.13785 284.900442 
L 122.379802 284.900442 
L 122.439807 284.47488 
L 122.795872 284.47488 
L 122.854567 284.049318 
L 123.029559 284.049318 
L 123.029559 283.836536 
L 123.260379 283.836536 
L 123.260379 283.623755 
L 123.769595 283.623755 
L 123.769595 283.410974 
L 123.991562 283.410974 
L 124.046648 282.985412 
L 124.156336 282.985412 
L 124.156336 282.772631 
L 124.535287 282.772631 
L 124.535287 282.347068 
L 125.271028 282.347068 
L 125.322496 281.708725 
L 125.577745 281.708725 
L 125.577745 281.495944 
L 125.879541 281.495944 
L 125.879541 281.283162 
L 126.323346 281.283162 
L 126.323346 281.070381 
L 126.517282 281.070381 
L 126.517282 280.8576 
L 126.851931 280.8576 
L 126.899255 280.432038 
L 127.087372 280.432038 
L 127.087372 280.219256 
L 127.366067 280.219256 
L 127.366067 280.006475 
L 127.5952 280.006475 
L 127.686077 279.580913 
L 127.821575 279.580913 
L 127.821575 279.368132 
L 128.266313 279.368132 
L 128.266313 279.155351 
L 128.657782 279.155351 
L 128.700779 278.729788 
L 129.54072 278.729788 
L 129.54072 278.517007 
L 130.146945 278.517007 
L 130.146945 278.304226 
L 130.344755 278.304226 
L 130.384069 277.878664 
L 130.501519 277.878664 
L 130.501519 277.665882 
L 130.656987 277.665882 
L 130.695654 277.24032 
L 130.849533 277.24032 
L 130.887807 276.814758 
L 131.674076 276.814758 
L 131.783764 276.389195 
L 132.073179 276.389195 
L 132.073179 276.176414 
L 132.251827 276.176414 
L 132.251827 275.963633 
L 132.743202 275.963633 
L 132.812362 275.538071 
L 132.984158 275.538071 
L 132.984158 275.325289 
L 133.457005 275.325289 
L 133.457005 275.112508 
L 133.689044 275.112508 
L 133.72196 274.686946 
L 133.983236 274.686946 
L 133.983236 274.474165 
L 134.589598 274.474165 
L 134.589598 274.261384 
L 134.7148 274.261384 
L 134.7148 274.048602 
L 134.87014 274.048602 
L 134.87014 273.835821 
L 135.054871 273.835821 
L 135.054871 273.62304 
L 135.35878 273.62304 
L 135.35878 273.410259 
L 135.864417 273.410259 
L 135.864417 273.197478 
L 136.299553 273.197478 
L 136.299553 272.984696 
L 136.808769 272.984696 
L 136.808769 272.771915 
L 137.412988 272.771915 
L 137.412988 272.559134 
L 137.681345 272.559134 
L 137.681345 272.346353 
L 138.232735 272.346353 
L 138.232735 272.133572 
L 138.616919 272.133572 
L 138.616919 271.920791 
L 138.768422 271.920791 
L 138.768422 271.708009 
L 139.362521 271.708009 
L 139.435481 271.282447 
L 139.700607 271.282447 
L 139.700607 271.069666 
L 139.914782 271.069666 
L 139.914782 270.856885 
L 140.58877 270.856885 
L 140.58877 270.644104 
L 141.106655 270.644104 
L 141.151022 270.218541 
L 142.164612 270.218541 
L 142.269295 269.580198 
L 142.394151 269.580198 
L 142.394151 269.154635 
L 143.225848 269.154635 
L 143.225848 268.941854 
L 143.638012 268.941854 
L 143.657415 268.516292 
L 143.792681 268.516292 
L 143.792681 268.303511 
L 144.249202 268.303511 
L 144.267986 267.665167 
L 144.658165 267.665167 
L 144.658165 267.452386 
L 145.148219 267.452386 
L 145.148219 267.239605 
L 145.520737 267.239605 
L 145.590864 266.601261 
L 146.074567 266.601261 
L 146.074567 266.38848 
L 146.311833 266.38848 
L 146.311833 266.175699 
L 146.777571 266.175699 
L 146.777571 265.962918 
L 147.878349 265.962918 
L 147.878349 265.750136 
L 148.322436 265.750136 
L 148.322436 265.537355 
L 149.180344 265.537355 
L 149.180344 265.324574 
L 149.481565 265.324574 
L 149.481565 264.899012 
L 149.79204 264.899012 
L 149.79204 264.686231 
L 151.895414 264.686231 
L 151.895414 264.473449 
L 152.426047 264.473449 
L 152.426047 264.260668 
L 152.679853 264.260668 
L 152.679853 264.047887 
L 154.344662 264.047887 
L 154.344662 263.835106 
L 154.617377 263.835106 
L 154.725366 263.196762 
L 155.151225 263.196762 
L 155.151225 262.983981 
L 155.731683 262.983981 
L 155.731683 262.558419 
L 156.115606 262.558419 
L 156.155566 262.132856 
L 156.696589 262.132856 
L 156.696589 261.920075 
L 157.344671 261.920075 
L 157.344671 261.707294 
L 157.934885 261.707294 
L 157.934885 261.494513 
L 158.2053 261.494513 
L 158.276759 261.068951 
L 158.392304 261.068951 
L 158.463058 260.643388 
L 158.630038 260.643388 
L 158.630038 260.430607 
L 158.985393 260.430607 
L 158.985393 260.217826 
L 159.15633 260.217826 
L 159.15633 259.792264 
L 159.325729 259.792264 
L 159.435025 259.15392 
L 159.726167 259.15392 
L 159.726167 258.941139 
L 159.915064 258.941139 
L 159.915064 258.302795 
L 160.247161 258.302795 
L 160.247161 258.090014 
L 160.415015 258.090014 
L 160.478568 257.664452 
L 160.722826 257.664452 
L 160.722826 257.451671 
L 161.041081 257.451671 
L 161.041081 257.238889 
L 161.194395 257.238889 
L 161.194395 257.026108 
L 161.482294 257.026108 
L 161.542347 256.600546 
L 161.706511 256.600546 
L 161.706511 256.387765 
L 162.015991 256.387765 
L 162.015991 256.174984 
L 162.306075 256.174984 
L 162.306075 255.962202 
L 162.442313 255.962202 
L 162.534963 255.53664 
L 162.683672 255.53664 
L 162.683672 255.111078 
L 162.942856 255.111078 
L 162.942856 254.898296 
L 163.088387 254.898296 
L 163.171045 254.259953 
L 163.314829 254.259953 
L 163.314829 254.047172 
L 163.504846 254.047172 
L 163.572247 253.408828 
L 163.639407 253.408828 
L 163.692963 252.557704 
L 163.846093 252.557704 
L 163.925494 252.132141 
L 164.050532 252.132141 
L 164.109472 251.706579 
L 164.187772 251.706579 
L 164.187772 251.493798 
L 164.472115 251.493798 
L 164.472115 251.281016 
L 164.606324 251.281016 
L 164.701605 250.642673 
L 164.790101 250.642673 
L 164.846771 250.004329 
L 164.953353 250.004329 
L 165.0033 248.940424 
L 165.084184 248.940424 
L 165.084184 248.727642 
L 165.238758 248.727642 
L 165.238758 248.514861 
L 165.434777 248.514861 
L 165.507761 247.876518 
L 165.604634 247.876518 
L 165.707018 247.450955 
L 165.731028 247.450955 
L 165.826761 246.387049 
L 165.856578 246.387049 
L 165.92201 245.961487 
L 166.052194 245.961487 
L 166.087543 245.323144 
L 166.163906 245.323144 
L 166.163906 245.110362 
L 166.304073 245.110362 
L 166.379563 244.6848 
L 166.460523 244.6848 
L 166.529641 244.046456 
L 166.649989 244.046456 
L 166.752536 242.982551 
L 166.775248 242.982551 
L 166.775248 242.556988 
L 166.955967 242.556988 
L 167.056864 242.131426 
L 167.207201 242.131426 
L 167.251516 241.493082 
L 167.378342 241.493082 
L 167.44965 240.641958 
L 167.493397 240.641958 
L 167.596893 240.003614 
L 167.672789 240.003614 
L 167.759155 239.152489 
L 167.882616 239.152489 
L 167.936043 238.301365 
L 168.090128 238.301365 
L 168.185136 236.599115 
L 168.227208 236.599115 
L 168.29014 235.747991 
L 168.508761 235.747991 
L 168.611979 234.258522 
L 168.658244 234.258522 
L 168.750432 232.981835 
L 168.806548 232.981835 
L 168.913216 231.917929 
L 168.91828 231.917929 
L 168.978946 231.492367 
L 169.084644 231.492367 
L 169.169775 230.854024 
L 169.229637 230.854024 
L 169.328985 230.002899 
L 169.427812 230.002899 
L 169.526122 228.938993 
L 169.614163 228.938993 
L 169.711507 228.087868 
L 169.730915 228.087868 
L 169.832482 227.023962 
L 169.919104 227.023962 
L 169.943096 226.5984 
L 170.09592 226.5984 
L 170.129185 225.960056 
L 170.228629 225.960056 
L 170.332249 225.108932 
L 170.365099 225.108932 
L 170.467971 223.832245 
L 170.486615 223.832245 
L 170.570284 222.768339 
L 170.635104 222.768339 
L 170.704306 222.129995 
L 170.777843 222.129995 
L 170.883051 221.278871 
L 170.964979 221.278871 
L 171.001277 220.002184 
L 171.096228 220.002184 
L 171.190702 218.938278 
L 171.226568 218.938278 
L 171.324847 217.661591 
L 171.351562 217.661591 
L 171.444765 216.597685 
L 171.488986 216.597685 
L 171.594694 214.682654 
L 171.638564 214.682654 
L 171.704179 213.193186 
L 171.765213 213.193186 
L 171.860725 211.916499 
L 171.878039 211.916499 
L 171.968676 210.214249 
L 171.990192 210.214249 
L 172.080292 208.512 
L 172.105956 208.512 
L 172.216763 206.384188 
L 172.250727 206.384188 
L 172.33959 205.107501 
L 172.373333 205.107501 
L 172.478391 202.554127 
L 172.503517 202.554127 
L 172.587032 200.213534 
L 172.670177 200.213534 
L 172.752956 199.575191 
L 172.781843 199.575191 
L 172.89285 197.234598 
L 172.941977 197.234598 
L 173.039848 195.532348 
L 173.060174 195.532348 
L 173.137212 193.617318 
L 173.18167 193.617318 
L 173.274288 191.702287 
L 173.302386 191.702287 
L 173.410372 189.574475 
L 173.418347 189.574475 
L 173.50981 188.723351 
L 173.533597 188.723351 
L 173.640268 186.595539 
L 173.652083 186.595539 
L 173.714971 184.680508 
L 173.769827 184.680508 
L 173.871279 182.765478 
L 173.90627 182.765478 
L 174.010854 180.637666 
L 174.022439 180.637666 
L 174.080256 178.722635 
L 174.134058 178.722635 
L 174.222115 177.445948 
L 174.25646 177.445948 
L 174.347741 174.467012 
L 174.404568 174.467012 
L 174.513949 171.913638 
L 174.517709 171.913638 
L 174.607735 170.636951 
L 174.630174 170.636951 
L 174.738254 168.509139 
L 174.756826 168.509139 
L 174.860492 165.530202 
L 174.882632 165.530202 
L 174.963589 163.189609 
L 175.018589 163.189609 
L 175.124467 161.061798 
L 175.142661 161.061798 
L 175.251462 159.146767 
L 175.255078 159.146767 
L 175.32725 157.87008 
L 175.384788 157.87008 
L 175.492201 155.103925 
L 175.51361 155.103925 
L 175.595454 152.763332 
L 175.627383 152.763332 
L 175.698143 151.273864 
L 175.740472 151.273864 
L 175.849382 149.784395 
L 175.859888 149.784395 
L 175.950698 148.720489 
L 175.975072 148.720489 
L 176.086096 145.954334 
L 176.093013 145.954334 
L 176.175823 143.613741 
L 176.21022 143.613741 
L 176.313034 140.209242 
L 176.323285 140.209242 
L 176.432278 137.868649 
L 176.435674 137.868649 
L 176.54402 135.528056 
L 176.550771 135.528056 
L 176.658458 131.910776 
L 176.702031 131.910776 
L 176.812187 128.293496 
L 176.828821 128.293496 
L 176.921701 125.740122 
L 176.951458 125.740122 
L 177.033871 123.612311 
L 177.070019 123.612311 
L 177.161719 121.271718 
L 177.184574 121.271718 
L 177.272471 119.356687 
L 177.304922 119.356687 
L 177.408389 117.441656 
L 177.41806 117.441656 
L 177.479194 116.590532 
L 177.530521 116.590532 
L 177.63913 112.973252 
L 177.6932 112.973252 
L 177.785079 112.122127 
L 177.813503 112.122127 
L 177.920494 110.419878 
L 177.94558 110.419878 
L 178.051825 108.079285 
L 178.067399 108.079285 
L 178.176056 106.377035 
L 178.216255 106.377035 
L 178.327129 104.674786 
L 178.330199 104.674786 
L 178.440406 102.759755 
L 178.458711 102.759755 
L 178.528716 101.057506 
L 178.580292 101.057506 
L 178.680008 99.355256 
L 178.69507 99.355256 
L 178.794182 97.440226 
L 178.836071 97.440226 
L 178.931471 95.525195 
L 178.961184 95.525195 
L 179.052999 94.461289 
L 179.100212 94.461289 
L 179.20308 93.397384 
L 179.223586 93.397384 
L 179.334518 92.120696 
L 179.354881 92.120696 
L 179.465043 88.928979 
L 179.482378 88.928979 
L 179.583183 87.652292 
L 179.614753 87.652292 
L 179.714853 85.52448 
L 179.726259 85.52448 
L 179.831439 83.609449 
L 179.865426 83.609449 
L 179.972646 81.056075 
L 179.997952 81.056075 
L 180.084854 79.992169 
L 180.137919 79.992169 
L 180.22973 78.928264 
L 180.271315 78.928264 
L 180.36799 78.28992 
L 180.387266 78.28992 
L 180.48061 76.800452 
L 180.505241 76.800452 
L 180.568042 76.374889 
L 180.619764 76.374889 
L 180.722781 75.523765 
L 180.741697 75.523765 
L 180.81717 73.395953 
L 180.88162 73.395953 
L 180.977884 72.119266 
L 181.028493 72.119266 
L 181.08427 70.417016 
L 181.197967 70.417016 
L 181.255873 69.140329 
L 181.310981 69.140329 
L 181.402471 67.863642 
L 181.488327 67.863642 
L 181.591872 67.012518 
L 181.622825 67.012518 
L 181.633132 66.374174 
L 181.769159 66.374174 
L 181.845723 65.948612 
L 181.937189 65.948612 
L 181.995394 65.097487 
L 182.055938 65.097487 
L 182.063492 64.671925 
L 182.213946 64.671925 
L 182.296185 64.033581 
L 182.360727 64.033581 
L 182.444795 63.608019 
L 182.518663 63.608019 
L 182.60203 63.182456 
L 182.638693 63.182456 
L 182.660656 62.756894 
L 182.779786 62.756894 
L 182.833029 62.118551 
L 183.011019 62.118551 
L 183.039725 61.692988 
L 183.130337 61.692988 
L 183.199196 61.267426 
L 183.248903 61.267426 
L 183.281967 60.841864 
L 183.387856 60.841864 
L 183.469803 59.990739 
L 183.576965 59.990739 
L 183.667344 59.139614 
L 183.90397 59.139614 
L 184.008694 58.501271 
L 184.031383 58.501271 
L 184.031383 58.288489 
L 184.211918 58.288489 
L 184.308244 57.650146 
L 184.63826 57.650146 
L 184.712762 57.224584 
L 184.782612 57.224584 
L 184.858715 56.799021 
L 184.964745 56.799021 
L 184.964745 56.58624 
L 185.16222 56.58624 
L 185.272927 56.160678 
L 185.277172 56.160678 
L 185.351304 55.522334 
L 185.414614 55.522334 
L 185.48401 55.096772 
L 185.680292 55.096772 
L 185.788 54.245647 
L 185.888933 54.245647 
L 185.909465 53.607304 
L 186.095285 53.607304 
L 186.1865 52.96896 
L 186.297388 52.96896 
L 186.383629 51.692273 
L 186.4276 51.692273 
L 186.527153 50.628367 
L 186.539064 50.628367 
L 186.600485 49.777242 
L 186.677472 49.777242 
L 186.777675 48.500555 
L 186.904616 48.500555 
L 187.015232 47.223868 
L 187.026838 47.223868 
L 187.100178 45.947181 
L 187.140585 45.947181 
L 187.246004 44.883275 
L 187.426712 44.883275 
L 187.455087 44.457713 
L 187.541837 44.457713 
L 187.652521 43.393807 
L 187.730919 43.393807 
L 187.831237 42.11712 
L 187.868257 42.11712 
L 187.951286 40.840433 
L 188.017446 40.840433 
L 188.110777 39.776527 
L 188.194562 39.776527 
L 188.292444 38.074278 
L 188.377226 38.074278 
L 188.477746 36.797591 
L 188.623973 36.797591 
L 188.694894 35.946466 
L 188.878044 35.946466 
L 188.946269 35.095341 
L 189.182262 35.095341 
L 189.220161 34.669779 
L 189.331691 34.669779 
L 189.43746 33.605873 
L 189.466358 33.605873 
L 189.466358 33.393092 
L 189.579818 33.393092 
L 189.633768 32.754748 
L 189.714404 32.754748 
L 189.816382 32.329186 
L 189.866333 32.329186 
L 189.931071 31.690842 
L 189.984024 31.690842 
L 189.988981 31.052499 
L 190.145272 31.052499 
L 190.145272 30.839718 
L 190.519974 30.839718 
L 190.619286 30.201374 
L 191.045763 30.201374 
L 191.045763 29.988593 
L 191.344796 29.988593 
L 191.449032 29.563031 
L 191.589145 29.563031 
L 191.589145 29.350249 
L 191.777858 29.350249 
L 191.777858 29.137468 
L 191.961722 29.137468 
L 191.961722 28.924687 
L 192.302246 28.924687 
L 192.302246 28.711906 
L 192.512887 28.711906 
L 192.512887 28.499125 
L 192.658229 28.499125 
L 192.658229 28.286344 
L 193.192427 28.286344 
L 193.192427 28.073562 
L 193.346456 28.073562 
L 193.346456 27.860781 
L 196.164753 27.860781 
L 196.164753 27.648 
L 360.8064 27.648 
L 360.8064 27.648 
" style="fill: none; stroke: #ff00ff; stroke-width: 1.5; stroke-linecap: square"/>
   </g>
   <g id="line2d_41">
    <defs>
     <path id="m5360895ae4" d="M -0 8.485281 
L 5.091169 0 
L 0 -8.485281 
L -5.091169 -0 
z
" style="stroke: #ff00ff; stroke-width: 1.5; stroke-linejoin: miter"/>
    </defs>
    <g>
     <use xlink:href="#m5360895ae4" x="170.388529" y="224.683369" style="fill-opacity: 0; stroke: #ff00ff; stroke-width: 1.5; stroke-linejoin: miter"/>
     <use xlink:href="#m5360895ae4" x="196.164753" y="27.860781" style="fill-opacity: 0; stroke: #ff00ff; stroke-width: 1.5; stroke-linejoin: miter"/>
     <use xlink:href="#m5360895ae4" x="196.164753" y="27.648" style="fill-opacity: 0; stroke: #ff00ff; stroke-width: 1.5; stroke-linejoin: miter"/>
     <use xlink:href="#m5360895ae4" x="196.164753" y="27.648" style="fill-opacity: 0; stroke: #ff00ff; stroke-width: 1.5; stroke-linejoin: miter"/>
     <use xlink:href="#m5360895ae4" x="360.8064" y="27.648" style="fill-opacity: 0; stroke: #ff00ff; stroke-width: 1.5; stroke-linejoin: miter"/>
    </g>
   </g>
   <g id="line2d_42">
    <path style="fill: none; stroke: #ff00ff; stroke-width: 1.5; stroke-linecap: square"/>
    <g/>
   </g>
   <g id="line2d_43">
    <path d="M 101.102381 288.304941 
" clip-path="url(#p619c1aaa3e)" style="fill: none; stroke: #ff00ff; stroke-width: 1.5; stroke-linecap: square"/>
    <defs>
     <path id="m1dabcfce83" d="M -12 12 
L 12 -12 
M -12 -12 
L 12 12 
" style="stroke: #ff00ff"/>
    </defs>
    <g clip-path="url(#p619c1aaa3e)">
     <use xlink:href="#m1dabcfce83" x="101.102381" y="288.304941" style="fill: #ff00ff; stroke: #ff00ff"/>
    </g>
   </g>
   <g id="line2d_44">
    <path d="M 360.8064 27.648 
L 380.514816 293.51808 
" style="fill: none; stroke: #000080; stroke-width: 1.5; stroke-linecap: square"/>
    <g>
     <use xlink:href="#mc8b3a7b9ca" x="360.8064" y="27.648" style="fill-opacity: 0; stroke: #000080; stroke-width: 1.5"/>
     <use xlink:href="#mc8b3a7b9ca" x="380.514816" y="293.51808" style="fill-opacity: 0; stroke: #000080; stroke-width: 1.5"/>
    </g>
   </g>
   <g id="line2d_45">
    <path d="M 360.8064 27.648 
L 380.514816 163.296 
" style="fill: none; stroke: #ff00ff; stroke-width: 1.5; stroke-linecap: square"/>
    <g>
     <use xlink:href="#m5360895ae4" x="360.8064" y="27.648" style="fill-opacity: 0; stroke: #ff00ff; stroke-width: 1.5; stroke-linejoin: miter"/>
     <use xlink:href="#m5360895ae4" x="380.514816" y="163.296" style="fill-opacity: 0; stroke: #ff00ff; stroke-width: 1.5; stroke-linejoin: miter"/>
    </g>
   </g>
   <g id="line2d_46">
    <path d="M 360.8064 298.944 
L 360.8064 27.648 
" style="fill: none; stroke: #000000; stroke-width: 1.5; stroke-linecap: square"/>
   </g>
   <g id="patch_3">
    <path d="M 57.6 298.944 
L 360.8064 298.944 
" style="fill: none; stroke: #000000; stroke-width: 0.8; stroke-linejoin: miter; stroke-linecap: square"/>
   </g>
   <g id="patch_4">
    <path d="M 57.6 27.648 
L 360.8064 27.648 
" style="fill: none; stroke: #000000; stroke-width: 0.8; stroke-linejoin: miter; stroke-linecap: square"/>
   </g>
   <g id="text_13">
    <!-- ex -->
    <g transform="translate(386.578944 297.381205)scale(0.14 -0.14)">
     <defs>
      <path id="DejaVuSans-78" d="M 3513 3500 
L 2247 1797 
L 3578 0 
L 2900 0 
L 1881 1375 
L 863 0 
L 184 0 
L 1544 1831 
L 300 3500 
L 978 3500 
L 1906 2253 
L 2834 3500 
L 3513 3500 
z
" transform="scale(0.015625)"/>
     </defs>
     <use xlink:href="#DejaVuSans-65"/>
     <use xlink:href="#DejaVuSans-78" x="59.773438"/>
    </g>
   </g>
   <g id="text_14">
    <!-- ex -->
    <g transform="translate(386.578944 167.159125)scale(0.14 -0.14)">
     <use xlink:href="#DejaVuSans-65"/>
     <use xlink:href="#DejaVuSans-78" x="59.773438"/>
    </g>
   </g>
   <g id="text_15">
    <!-- best 2009 -->
    <g transform="translate(386.578944 36.937045)scale(0.14 -0.14)">
     <defs>
      <path id="DejaVuSans-62" d="M 3116 1747 
Q 3116 2381 2855 2742 
Q 2594 3103 2138 3103 
Q 1681 3103 1420 2742 
Q 1159 2381 1159 1747 
Q 1159 1113 1420 752 
Q 1681 391 2138 391 
Q 2594 391 2855 752 
Q 3116 1113 3116 1747 
z
M 1159 2969 
Q 1341 3281 1617 3432 
Q 1894 3584 2278 3584 
Q 2916 3584 3314 3078 
Q 3713 2572 3713 1747 
Q 3713 922 3314 415 
Q 2916 -91 2278 -91 
Q 1894 -91 1617 61 
Q 1341 213 1159 525 
L 1159 0 
L 581 0 
L 581 4863 
L 1159 4863 
L 1159 2969 
z
" transform="scale(0.015625)"/>
      <path id="DejaVuSans-39" d="M 703 97 
L 703 672 
Q 941 559 1184 500 
Q 1428 441 1663 441 
Q 2288 441 2617 861 
Q 2947 1281 2994 2138 
Q 2813 1869 2534 1725 
Q 2256 1581 1919 1581 
Q 1219 1581 811 2004 
Q 403 2428 403 3163 
Q 403 3881 828 4315 
Q 1253 4750 1959 4750 
Q 2769 4750 3195 4129 
Q 3622 3509 3622 2328 
Q 3622 1225 3098 567 
Q 2575 -91 1691 -91 
Q 1453 -91 1209 -44 
Q 966 3 703 97 
z
M 1959 2075 
Q 2384 2075 2632 2365 
Q 2881 2656 2881 3163 
Q 2881 3666 2632 3958 
Q 2384 4250 1959 4250 
Q 1534 4250 1286 3958 
Q 1038 3666 1038 3163 
Q 1038 2656 1286 2365 
Q 1534 2075 1959 2075 
z
" transform="scale(0.015625)"/>
     </defs>
     <use xlink:href="#DejaVuSans-62"/>
     <use xlink:href="#DejaVuSans-65" x="63.476562"/>
     <use xlink:href="#DejaVuSans-73" x="125"/>
     <use xlink:href="#DejaVuSans-74" x="177.099609"/>
     <use xlink:href="#DejaVuSans-20" x="216.308594"/>
     <use xlink:href="#DejaVuSans-32" x="248.095703"/>
     <use xlink:href="#DejaVuSans-30" x="311.71875"/>
     <use xlink:href="#DejaVuSans-30" x="375.341797"/>
     <use xlink:href="#DejaVuSans-39" x="438.964844"/>
    </g>
   </g>
   <g id="text_16">
    <!-- bbob f9, 10-D -->
    <g transform="translate(60.632064 38.111366)scale(0.102 -0.102)">
     <defs>
      <path id="DejaVuSans-44" d="M 1259 4147 
L 1259 519 
L 2022 519 
Q 2988 519 3436 956 
Q 3884 1394 3884 2338 
Q 3884 3275 3436 3711 
Q 2988 4147 2022 4147 
L 1259 4147 
z
M 628 4666 
L 1925 4666 
Q 3281 4666 3915 4102 
Q 4550 3538 4550 2338 
Q 4550 1131 3912 565 
Q 3275 0 1925 0 
L 628 0 
L 628 4666 
z
" transform="scale(0.015625)"/>
     </defs>
     <use xlink:href="#DejaVuSans-62"/>
     <use xlink:href="#DejaVuSans-62" x="63.476562"/>
     <use xlink:href="#DejaVuSans-6f" x="126.953125"/>
     <use xlink:href="#DejaVuSans-62" x="188.134766"/>
     <use xlink:href="#DejaVuSans-20" x="251.611328"/>
     <use xlink:href="#DejaVuSans-66" x="283.398438"/>
     <use xlink:href="#DejaVuSans-39" x="318.603516"/>
     <use xlink:href="#DejaVuSans-2c" x="382.226562"/>
     <use xlink:href="#DejaVuSans-20" x="414.013672"/>
     <use xlink:href="#DejaVuSans-31" x="445.800781"/>
     <use xlink:href="#DejaVuSans-30" x="509.423828"/>
     <use xlink:href="#DejaVuSans-2d" x="573.046875"/>
     <use xlink:href="#DejaVuSans-44" x="609.130859"/>
    </g>
    <!-- 51 targets: 100..1e-08 -->
    <g transform="translate(60.632064 49.533135)scale(0.102 -0.102)">
     <defs>
      <path id="DejaVuSans-35" d="M 691 4666 
L 3169 4666 
L 3169 4134 
L 1269 4134 
L 1269 2991 
Q 1406 3038 1543 3061 
Q 1681 3084 1819 3084 
Q 2600 3084 3056 2656 
Q 3513 2228 3513 1497 
Q 3513 744 3044 326 
Q 2575 -91 1722 -91 
Q 1428 -91 1123 -41 
Q 819 9 494 109 
L 494 744 
Q 775 591 1075 516 
Q 1375 441 1709 441 
Q 2250 441 2565 725 
Q 2881 1009 2881 1497 
Q 2881 1984 2565 2268 
Q 2250 2553 1709 2553 
Q 1456 2553 1204 2497 
Q 953 2441 691 2322 
L 691 4666 
z
" transform="scale(0.015625)"/>
      <path id="DejaVuSans-3a" d="M 750 794 
L 1409 794 
L 1409 0 
L 750 0 
L 750 794 
z
M 750 3309 
L 1409 3309 
L 1409 2516 
L 750 2516 
L 750 3309 
z
" transform="scale(0.015625)"/>
     </defs>
     <use xlink:href="#DejaVuSans-35"/>
     <use xlink:href="#DejaVuSans-31" x="63.623047"/>
     <use xlink:href="#DejaVuSans-20" x="127.246094"/>
     <use xlink:href="#DejaVuSans-74" x="159.033203"/>
     <use xlink:href="#DejaVuSans-61" x="198.242188"/>
     <use xlink:href="#DejaVuSans-72" x="259.521484"/>
     <use xlink:href="#DejaVuSans-67" x="298.884766"/>
     <use xlink:href="#DejaVuSans-65" x="362.361328"/>
     <use xlink:href="#DejaVuSans-74" x="423.884766"/>
     <use xlink:href="#DejaVuSans-73" x="463.09375"/>
     <use xlink:href="#DejaVuSans-3a" x="515.193359"/>
     <use xlink:href="#DejaVuSans-20" x="548.884766"/>
     <use xlink:href="#DejaVuSans-31" x="580.671875"/>
     <use xlink:href="#DejaVuSans-30" x="644.294922"/>
     <use xlink:href="#DejaVuSans-30" x="707.917969"/>
     <use xlink:href="#DejaVuSans-2e" x="771.541016"/>
     <use xlink:href="#DejaVuSans-2e" x="803.328125"/>
     <use xlink:href="#DejaVuSans-31" x="835.115234"/>
     <use xlink:href="#DejaVuSans-65" x="898.738281"/>
     <use xlink:href="#DejaVuSans-2d" x="960.261719"/>
     <use xlink:href="#DejaVuSans-30" x="996.345703"/>
     <use xlink:href="#DejaVuSans-38" x="1059.96875"/>
    </g>
    <!-- 25 instances -->
    <g transform="translate(60.632064 60.954904)scale(0.102 -0.102)">
     <use xlink:href="#DejaVuSans-32"/>
     <use xlink:href="#DejaVuSans-35" x="63.623047"/>
     <use xlink:href="#DejaVuSans-20" x="127.246094"/>
     <use xlink:href="#DejaVuSans-69" x="159.033203"/>
     <use xlink:href="#DejaVuSans-6e" x="186.816406"/>
     <use xlink:href="#DejaVuSans-73" x="250.195312"/>
     <use xlink:href="#DejaVuSans-74" x="302.294922"/>
     <use xlink:href="#DejaVuSans-61" x="341.503906"/>
     <use xlink:href="#DejaVuSans-6e" x="402.783203"/>
     <use xlink:href="#DejaVuSans-63" x="466.162109"/>
     <use xlink:href="#DejaVuSans-65" x="521.142578"/>
     <use xlink:href="#DejaVuSans-73" x="582.666016"/>
    </g>
   </g>
   <g id="text_17">
    <!-- v2.6 -->
    <g style="fill: #808080" transform="translate(198.292262 294.151352)scale(0.1 -0.1)">
     <use xlink:href="#DejaVuSans-76"/>
     <use xlink:href="#DejaVuSans-32" x="59.179688"/>
     <use xlink:href="#DejaVuSans-2e" x="122.802734"/>
     <use xlink:href="#DejaVuSans-36" x="154.589844"/>
    </g>
   </g>
   <g id="text_18">
    <!-- 9 Rosenbrock rotated -->
    <g transform="translate(102.050075 21.648)scale(0.2 -0.2)">
     <defs>
      <path id="DejaVuSans-52" d="M 2841 2188 
Q 3044 2119 3236 1894 
Q 3428 1669 3622 1275 
L 4263 0 
L 3584 0 
L 2988 1197 
Q 2756 1666 2539 1819 
Q 2322 1972 1947 1972 
L 1259 1972 
L 1259 0 
L 628 0 
L 628 4666 
L 2053 4666 
Q 2853 4666 3247 4331 
Q 3641 3997 3641 3322 
Q 3641 2881 3436 2590 
Q 3231 2300 2841 2188 
z
M 1259 4147 
L 1259 2491 
L 2053 2491 
Q 2509 2491 2742 2702 
Q 2975 2913 2975 3322 
Q 2975 3731 2742 3939 
Q 2509 4147 2053 4147 
L 1259 4147 
z
" transform="scale(0.015625)"/>
      <path id="DejaVuSans-6b" d="M 581 4863 
L 1159 4863 
L 1159 1991 
L 2875 3500 
L 3609 3500 
L 1753 1863 
L 3688 0 
L 2938 0 
L 1159 1709 
L 1159 0 
L 581 0 
L 581 4863 
z
" transform="scale(0.015625)"/>
     </defs>
     <use xlink:href="#DejaVuSans-39"/>
     <use xlink:href="#DejaVuSans-20" x="63.623047"/>
     <use xlink:href="#DejaVuSans-52" x="95.410156"/>
     <use xlink:href="#DejaVuSans-6f" x="160.392578"/>
     <use xlink:href="#DejaVuSans-73" x="221.574219"/>
     <use xlink:href="#DejaVuSans-65" x="273.673828"/>
     <use xlink:href="#DejaVuSans-6e" x="335.197266"/>
     <use xlink:href="#DejaVuSans-62" x="398.576172"/>
     <use xlink:href="#DejaVuSans-72" x="462.052734"/>
     <use xlink:href="#DejaVuSans-6f" x="500.916016"/>
     <use xlink:href="#DejaVuSans-63" x="562.097656"/>
     <use xlink:href="#DejaVuSans-6b" x="617.078125"/>
     <use xlink:href="#DejaVuSans-20" x="674.988281"/>
     <use xlink:href="#DejaVuSans-72" x="706.775391"/>
     <use xlink:href="#DejaVuSans-6f" x="745.638672"/>
     <use xlink:href="#DejaVuSans-74" x="806.820312"/>
     <use xlink:href="#DejaVuSans-61" x="846.029297"/>
     <use xlink:href="#DejaVuSans-74" x="907.308594"/>
     <use xlink:href="#DejaVuSans-65" x="946.517578"/>
     <use xlink:href="#DejaVuSans-64" x="1008.041016"/>
    </g>
   </g>
  </g>
 </g>
 <defs>
  <clipPath id="p619c1aaa3e">
   <rect x="57.6" y="27.648" width="303.2064" height="271.296"/>
  </clipPath>
 </defs>
</svg>
