<?xml version="1.0" encoding="utf-8" standalone="no"?>
<!DOCTYPE svg PUBLIC "-//W3C//DTD SVG 1.1//EN"
  "http://www.w3.org/Graphics/SVG/1.1/DTD/svg11.dtd">
<svg xmlns:xlink="http://www.w3.org/1999/xlink" width="460.8pt" height="345.6pt" viewBox="0 0 460.8 345.6" xmlns="http://www.w3.org/2000/svg" version="1.1">
 <metadata>
  <rdf:RDF xmlns:dc="http://purl.org/dc/elements/1.1/" xmlns:cc="http://creativecommons.org/ns#" xmlns:rdf="http://www.w3.org/1999/02/22-rdf-syntax-ns#">
   <cc:Work>
    <dc:type rdf:resource="http://purl.org/dc/dcmitype/StillImage"/>
    <dc:date>2022-03-16T23:40:58.023424</dc:date>
    <dc:format>image/svg+xml</dc:format>
    <dc:creator>
     <cc:Agent>
      <dc:title>Matplotlib v3.5.1, https://matplotlib.org/</dc:title>
     </cc:Agent>
    </dc:creator>
   </cc:Work>
  </rdf:RDF>
 </metadata>
 <defs>
  <style type="text/css">*{stroke-linejoin: round; stroke-linecap: butt}</style>
 </defs>
 <g id="figure_1">
  <g id="patch_1">
   <path d="M 0 345.6 
L 460.8 345.6 
L 460.8 0 
L 0 0 
z
" style="fill: #ffffff"/>
  </g>
  <g id="axes_1">
   <g id="patch_2">
    <path d="M 57.6 298.944 
L 360.8064 298.944 
L 360.8064 27.648 
L 57.6 27.648 
z
" style="fill: #ffffff"/>
   </g>
   <g id="line2d_1">
    <path d="M 111.81496 298.944 
L 111.81496 293.624471 
L 120.28394 293.624471 
L 120.28394 288.304941 
L 124.046648 288.304941 
L 124.046648 282.985412 
L 125.929373 282.985412 
L 125.929373 277.665882 
L 130.384069 277.665882 
L 130.384069 272.346353 
L 141.349389 272.346353 
L 141.349389 267.026824 
L 144.575234 267.026824 
L 144.575234 261.707294 
L 151.08337 261.707294 
L 151.08337 256.387765 
L 151.725684 256.387765 
L 151.725684 251.068235 
L 152.162601 251.068235 
L 152.162601 245.748706 
L 152.486788 245.748706 
L 152.486788 240.429176 
L 152.745764 240.429176 
L 152.745764 235.109647 
L 153.02481 235.109647 
L 153.02481 229.790118 
L 153.218292 229.790118 
L 153.218292 224.470588 
L 153.375128 224.470588 
L 153.375128 219.151059 
L 153.519191 219.151059 
L 153.519191 213.831529 
L 153.639356 213.831529 
L 153.639356 208.512 
L 153.74742 208.512 
L 153.74742 203.192471 
L 153.860504 203.192471 
L 153.860504 197.872941 
L 153.967309 197.872941 
L 153.967309 192.553412 
L 154.095792 192.553412 
L 154.095792 187.233882 
L 154.206807 187.233882 
L 154.206807 181.914353 
L 154.278618 181.914353 
L 154.278618 176.594824 
L 154.350155 176.594824 
L 154.350155 171.275294 
L 154.432362 171.275294 
L 154.432362 165.955765 
L 154.514211 165.955765 
L 154.514211 160.636235 
L 154.590283 160.636235 
L 154.590283 155.316706 
L 154.660647 155.316706 
L 154.660647 149.997176 
L 154.730749 149.997176 
L 154.730749 144.677647 
L 154.816671 144.677647 
L 154.816671 139.358118 
L 154.912867 139.358118 
L 154.912867 134.038588 
L 154.987347 134.038588 
L 154.987347 128.719059 
L 155.061533 128.719059 
L 155.061533 123.399529 
L 155.151225 123.399529 
L 155.151225 118.08 
L 155.193286 118.08 
L 155.193286 112.760471 
L 155.256201 112.760471 
L 155.256201 107.440941 
L 155.318906 107.440941 
L 155.318906 102.121412 
L 155.376203 102.121412 
L 155.376203 96.801882 
L 155.443693 96.801882 
L 155.443693 91.482353 
L 155.521266 91.482353 
L 155.521266 86.162824 
L 155.608798 86.162824 
L 155.608798 80.843294 
L 155.67546 80.843294 
L 155.67546 75.523765 
L 155.767374 75.523765 
L 155.767374 70.204235 
L 155.823323 70.204235 
L 155.823323 64.884706 
L 155.879106 64.884706 
L 155.879106 59.565176 
L 155.939772 59.565176 
L 155.939772 54.245647 
L 156.000243 54.245647 
L 156.000243 48.926118 
L 156.045469 48.926118 
L 156.045469 43.606588 
L 156.110604 43.606588 
L 156.110604 38.287059 
L 156.160556 38.287059 
L 156.160556 32.967529 
L 156.225294 32.967529 
L 156.225294 27.648 
L 360.8064 27.648 
" style="fill: none; stroke: #f5deb3; stroke-width: 4; stroke-linecap: square"/>
   </g>
   <g id="line2d_2">
    <defs>
     <path id="m26d8c48db2" d="M -0 7.778175 
L 7.778175 0 
L 0 -7.778175 
L -7.778175 -0 
z
" style="stroke: #f5deb3; stroke-width: 1.5; stroke-linejoin: miter"/>
    </defs>
    <g>
     <use xlink:href="#m26d8c48db2" x="154.590283" y="155.316706" style="fill: #f5deb3; stroke: #f5deb3; stroke-width: 1.5; stroke-linejoin: miter"/>
     <use xlink:href="#m26d8c48db2" x="156.225294" y="32.967529" style="fill: #f5deb3; stroke: #f5deb3; stroke-width: 1.5; stroke-linejoin: miter"/>
     <use xlink:href="#m26d8c48db2" x="156.225294" y="27.648" style="fill: #f5deb3; stroke: #f5deb3; stroke-width: 1.5; stroke-linejoin: miter"/>
     <use xlink:href="#m26d8c48db2" x="156.225294" y="27.648" style="fill: #f5deb3; stroke: #f5deb3; stroke-width: 1.5; stroke-linejoin: miter"/>
     <use xlink:href="#m26d8c48db2" x="360.8064" y="27.648" style="fill: #f5deb3; stroke: #f5deb3; stroke-width: 1.5; stroke-linejoin: miter"/>
    </g>
   </g>
   <g id="line2d_3">
    <path style="fill: none; stroke: #f5deb3; stroke-width: 4; stroke-linecap: square"/>
    <g/>
   </g>
   <g id="line2d_4">
    <path d="M 360.8064 27.648 
L 380.514816 33.07392 
" style="fill: none; stroke: #f5deb3; stroke-width: 4; stroke-linecap: square"/>
    <g>
     <use xlink:href="#m26d8c48db2" x="360.8064" y="27.648" style="fill: #f5deb3; stroke: #f5deb3; stroke-width: 1.5; stroke-linejoin: miter"/>
     <use xlink:href="#m26d8c48db2" x="380.514816" y="33.07392" style="fill: #f5deb3; stroke: #f5deb3; stroke-width: 1.5; stroke-linejoin: miter"/>
    </g>
   </g>
   <g id="matplotlib.axis_1">
    <g id="xtick_1">
     <g id="line2d_5">
      <path d="M 57.6 298.944 
L 57.6 27.648 
" clip-path="url(#p56c10f3afc)" style="fill: none; stroke: #b0b0b0; stroke-width: 0.8; stroke-linecap: square"/>
     </g>
     <g id="line2d_6">
      <defs>
       <path id="m55638e8f1c" d="M 0 0 
L 0 3.5 
" style="stroke: #000000; stroke-width: 0.8"/>
      </defs>
      <g>
       <use xlink:href="#m55638e8f1c" x="57.6" y="298.944" style="stroke: #000000; stroke-width: 0.8"/>
      </g>
     </g>
     <g id="text_1">
      <!-- 0 -->
      <g transform="translate(52.191875 318.861344)scale(0.17 -0.17)">
       <defs>
        <path id="DejaVuSans-30" d="M 2034 4250 
Q 1547 4250 1301 3770 
Q 1056 3291 1056 2328 
Q 1056 1369 1301 889 
Q 1547 409 2034 409 
Q 2525 409 2770 889 
Q 3016 1369 3016 2328 
Q 3016 3291 2770 3770 
Q 2525 4250 2034 4250 
z
M 2034 4750 
Q 2819 4750 3233 4129 
Q 3647 3509 3647 2328 
Q 3647 1150 3233 529 
Q 2819 -91 2034 -91 
Q 1250 -91 836 529 
Q 422 1150 422 2328 
Q 422 3509 836 4129 
Q 1250 4750 2034 4750 
z
" transform="scale(0.015625)"/>
       </defs>
       <use xlink:href="#DejaVuSans-30"/>
      </g>
     </g>
    </g>
    <g id="xtick_2">
     <g id="line2d_7">
      <path d="M 144.2304 298.944 
L 144.2304 27.648 
" clip-path="url(#p56c10f3afc)" style="fill: none; stroke: #b0b0b0; stroke-width: 0.8; stroke-linecap: square"/>
     </g>
     <g id="line2d_8">
      <g>
       <use xlink:href="#m55638e8f1c" x="144.2304" y="298.944" style="stroke: #000000; stroke-width: 0.8"/>
      </g>
     </g>
     <g id="text_2">
      <!-- 2 -->
      <g transform="translate(138.822275 318.861344)scale(0.17 -0.17)">
       <defs>
        <path id="DejaVuSans-32" d="M 1228 531 
L 3431 531 
L 3431 0 
L 469 0 
L 469 531 
Q 828 903 1448 1529 
Q 2069 2156 2228 2338 
Q 2531 2678 2651 2914 
Q 2772 3150 2772 3378 
Q 2772 3750 2511 3984 
Q 2250 4219 1831 4219 
Q 1534 4219 1204 4116 
Q 875 4013 500 3803 
L 500 4441 
Q 881 4594 1212 4672 
Q 1544 4750 1819 4750 
Q 2544 4750 2975 4387 
Q 3406 4025 3406 3419 
Q 3406 3131 3298 2873 
Q 3191 2616 2906 2266 
Q 2828 2175 2409 1742 
Q 1991 1309 1228 531 
z
" transform="scale(0.015625)"/>
       </defs>
       <use xlink:href="#DejaVuSans-32"/>
      </g>
     </g>
    </g>
    <g id="xtick_3">
     <g id="line2d_9">
      <path d="M 230.8608 298.944 
L 230.8608 27.648 
" clip-path="url(#p56c10f3afc)" style="fill: none; stroke: #b0b0b0; stroke-width: 0.8; stroke-linecap: square"/>
     </g>
     <g id="line2d_10">
      <g>
       <use xlink:href="#m55638e8f1c" x="230.8608" y="298.944" style="stroke: #000000; stroke-width: 0.8"/>
      </g>
     </g>
     <g id="text_3">
      <!-- 4 -->
      <g transform="translate(225.452675 318.861344)scale(0.17 -0.17)">
       <defs>
        <path id="DejaVuSans-34" d="M 2419 4116 
L 825 1625 
L 2419 1625 
L 2419 4116 
z
M 2253 4666 
L 3047 4666 
L 3047 1625 
L 3713 1625 
L 3713 1100 
L 3047 1100 
L 3047 0 
L 2419 0 
L 2419 1100 
L 313 1100 
L 313 1709 
L 2253 4666 
z
" transform="scale(0.015625)"/>
       </defs>
       <use xlink:href="#DejaVuSans-34"/>
      </g>
     </g>
    </g>
    <g id="xtick_4">
     <g id="line2d_11">
      <path d="M 317.4912 298.944 
L 317.4912 27.648 
" clip-path="url(#p56c10f3afc)" style="fill: none; stroke: #b0b0b0; stroke-width: 0.8; stroke-linecap: square"/>
     </g>
     <g id="line2d_12">
      <g>
       <use xlink:href="#m55638e8f1c" x="317.4912" y="298.944" style="stroke: #000000; stroke-width: 0.8"/>
      </g>
     </g>
     <g id="text_4">
      <!-- 6 -->
      <g transform="translate(312.083075 318.861344)scale(0.17 -0.17)">
       <defs>
        <path id="DejaVuSans-36" d="M 2113 2584 
Q 1688 2584 1439 2293 
Q 1191 2003 1191 1497 
Q 1191 994 1439 701 
Q 1688 409 2113 409 
Q 2538 409 2786 701 
Q 3034 994 3034 1497 
Q 3034 2003 2786 2293 
Q 2538 2584 2113 2584 
z
M 3366 4563 
L 3366 3988 
Q 3128 4100 2886 4159 
Q 2644 4219 2406 4219 
Q 1781 4219 1451 3797 
Q 1122 3375 1075 2522 
Q 1259 2794 1537 2939 
Q 1816 3084 2150 3084 
Q 2853 3084 3261 2657 
Q 3669 2231 3669 1497 
Q 3669 778 3244 343 
Q 2819 -91 2113 -91 
Q 1303 -91 875 529 
Q 447 1150 447 2328 
Q 447 3434 972 4092 
Q 1497 4750 2381 4750 
Q 2619 4750 2861 4703 
Q 3103 4656 3366 4563 
z
" transform="scale(0.015625)"/>
       </defs>
       <use xlink:href="#DejaVuSans-36"/>
      </g>
     </g>
    </g>
    <g id="xtick_5">
     <g id="line2d_13">
      <path d="M 100.9152 298.944 
L 100.9152 27.648 
" clip-path="url(#p56c10f3afc)" style="fill: none; stroke: #b0b0b0; stroke-width: 0.8; stroke-linecap: square"/>
     </g>
     <g id="line2d_14">
      <defs>
       <path id="m660232d312" d="M 0 0 
L 0 2 
" style="stroke: #000000; stroke-width: 0.6"/>
      </defs>
      <g>
       <use xlink:href="#m660232d312" x="100.9152" y="298.944" style="stroke: #000000; stroke-width: 0.6"/>
      </g>
     </g>
    </g>
    <g id="xtick_6">
     <g id="line2d_15">
      <path d="M 187.5456 298.944 
L 187.5456 27.648 
" clip-path="url(#p56c10f3afc)" style="fill: none; stroke: #b0b0b0; stroke-width: 0.8; stroke-linecap: square"/>
     </g>
     <g id="line2d_16">
      <g>
       <use xlink:href="#m660232d312" x="187.5456" y="298.944" style="stroke: #000000; stroke-width: 0.6"/>
      </g>
     </g>
    </g>
    <g id="xtick_7">
     <g id="line2d_17">
      <path d="M 274.176 298.944 
L 274.176 27.648 
" clip-path="url(#p56c10f3afc)" style="fill: none; stroke: #b0b0b0; stroke-width: 0.8; stroke-linecap: square"/>
     </g>
     <g id="line2d_18">
      <g>
       <use xlink:href="#m660232d312" x="274.176" y="298.944" style="stroke: #000000; stroke-width: 0.6"/>
      </g>
     </g>
    </g>
    <g id="xtick_8">
     <g id="line2d_19">
      <path d="M 360.8064 298.944 
L 360.8064 27.648 
" clip-path="url(#p56c10f3afc)" style="fill: none; stroke: #b0b0b0; stroke-width: 0.8; stroke-linecap: square"/>
     </g>
     <g id="line2d_20">
      <g>
       <use xlink:href="#m660232d312" x="360.8064" y="298.944" style="stroke: #000000; stroke-width: 0.6"/>
      </g>
     </g>
    </g>
    <g id="text_5">
     <!-- log10(# f-evals / dimension) -->
     <g transform="translate(88.823278 339.314156)scale(0.17 -0.17)">
      <defs>
       <path id="DejaVuSans-6c" d="M 603 4863 
L 1178 4863 
L 1178 0 
L 603 0 
L 603 4863 
z
" transform="scale(0.015625)"/>
       <path id="DejaVuSans-6f" d="M 1959 3097 
Q 1497 3097 1228 2736 
Q 959 2375 959 1747 
Q 959 1119 1226 758 
Q 1494 397 1959 397 
Q 2419 397 2687 759 
Q 2956 1122 2956 1747 
Q 2956 2369 2687 2733 
Q 2419 3097 1959 3097 
z
M 1959 3584 
Q 2709 3584 3137 3096 
Q 3566 2609 3566 1747 
Q 3566 888 3137 398 
Q 2709 -91 1959 -91 
Q 1206 -91 779 398 
Q 353 888 353 1747 
Q 353 2609 779 3096 
Q 1206 3584 1959 3584 
z
" transform="scale(0.015625)"/>
       <path id="DejaVuSans-67" d="M 2906 1791 
Q 2906 2416 2648 2759 
Q 2391 3103 1925 3103 
Q 1463 3103 1205 2759 
Q 947 2416 947 1791 
Q 947 1169 1205 825 
Q 1463 481 1925 481 
Q 2391 481 2648 825 
Q 2906 1169 2906 1791 
z
M 3481 434 
Q 3481 -459 3084 -895 
Q 2688 -1331 1869 -1331 
Q 1566 -1331 1297 -1286 
Q 1028 -1241 775 -1147 
L 775 -588 
Q 1028 -725 1275 -790 
Q 1522 -856 1778 -856 
Q 2344 -856 2625 -561 
Q 2906 -266 2906 331 
L 2906 616 
Q 2728 306 2450 153 
Q 2172 0 1784 0 
Q 1141 0 747 490 
Q 353 981 353 1791 
Q 353 2603 747 3093 
Q 1141 3584 1784 3584 
Q 2172 3584 2450 3431 
Q 2728 3278 2906 2969 
L 2906 3500 
L 3481 3500 
L 3481 434 
z
" transform="scale(0.015625)"/>
       <path id="DejaVuSans-31" d="M 794 531 
L 1825 531 
L 1825 4091 
L 703 3866 
L 703 4441 
L 1819 4666 
L 2450 4666 
L 2450 531 
L 3481 531 
L 3481 0 
L 794 0 
L 794 531 
z
" transform="scale(0.015625)"/>
       <path id="DejaVuSans-28" d="M 1984 4856 
Q 1566 4138 1362 3434 
Q 1159 2731 1159 2009 
Q 1159 1288 1364 580 
Q 1569 -128 1984 -844 
L 1484 -844 
Q 1016 -109 783 600 
Q 550 1309 550 2009 
Q 550 2706 781 3412 
Q 1013 4119 1484 4856 
L 1984 4856 
z
" transform="scale(0.015625)"/>
       <path id="DejaVuSans-23" d="M 3272 2816 
L 2363 2816 
L 2100 1772 
L 3016 1772 
L 3272 2816 
z
M 2803 4594 
L 2478 3297 
L 3391 3297 
L 3719 4594 
L 4219 4594 
L 3897 3297 
L 4872 3297 
L 4872 2816 
L 3775 2816 
L 3519 1772 
L 4513 1772 
L 4513 1294 
L 3397 1294 
L 3072 0 
L 2572 0 
L 2894 1294 
L 1978 1294 
L 1656 0 
L 1153 0 
L 1478 1294 
L 494 1294 
L 494 1772 
L 1594 1772 
L 1856 2816 
L 850 2816 
L 850 3297 
L 1978 3297 
L 2297 4594 
L 2803 4594 
z
" transform="scale(0.015625)"/>
       <path id="DejaVuSans-20" transform="scale(0.015625)"/>
       <path id="DejaVuSans-66" d="M 2375 4863 
L 2375 4384 
L 1825 4384 
Q 1516 4384 1395 4259 
Q 1275 4134 1275 3809 
L 1275 3500 
L 2222 3500 
L 2222 3053 
L 1275 3053 
L 1275 0 
L 697 0 
L 697 3053 
L 147 3053 
L 147 3500 
L 697 3500 
L 697 3744 
Q 697 4328 969 4595 
Q 1241 4863 1831 4863 
L 2375 4863 
z
" transform="scale(0.015625)"/>
       <path id="DejaVuSans-2d" d="M 313 2009 
L 1997 2009 
L 1997 1497 
L 313 1497 
L 313 2009 
z
" transform="scale(0.015625)"/>
       <path id="DejaVuSans-65" d="M 3597 1894 
L 3597 1613 
L 953 1613 
Q 991 1019 1311 708 
Q 1631 397 2203 397 
Q 2534 397 2845 478 
Q 3156 559 3463 722 
L 3463 178 
Q 3153 47 2828 -22 
Q 2503 -91 2169 -91 
Q 1331 -91 842 396 
Q 353 884 353 1716 
Q 353 2575 817 3079 
Q 1281 3584 2069 3584 
Q 2775 3584 3186 3129 
Q 3597 2675 3597 1894 
z
M 3022 2063 
Q 3016 2534 2758 2815 
Q 2500 3097 2075 3097 
Q 1594 3097 1305 2825 
Q 1016 2553 972 2059 
L 3022 2063 
z
" transform="scale(0.015625)"/>
       <path id="DejaVuSans-76" d="M 191 3500 
L 800 3500 
L 1894 563 
L 2988 3500 
L 3597 3500 
L 2284 0 
L 1503 0 
L 191 3500 
z
" transform="scale(0.015625)"/>
       <path id="DejaVuSans-61" d="M 2194 1759 
Q 1497 1759 1228 1600 
Q 959 1441 959 1056 
Q 959 750 1161 570 
Q 1363 391 1709 391 
Q 2188 391 2477 730 
Q 2766 1069 2766 1631 
L 2766 1759 
L 2194 1759 
z
M 3341 1997 
L 3341 0 
L 2766 0 
L 2766 531 
Q 2569 213 2275 61 
Q 1981 -91 1556 -91 
Q 1019 -91 701 211 
Q 384 513 384 1019 
Q 384 1609 779 1909 
Q 1175 2209 1959 2209 
L 2766 2209 
L 2766 2266 
Q 2766 2663 2505 2880 
Q 2244 3097 1772 3097 
Q 1472 3097 1187 3025 
Q 903 2953 641 2809 
L 641 3341 
Q 956 3463 1253 3523 
Q 1550 3584 1831 3584 
Q 2591 3584 2966 3190 
Q 3341 2797 3341 1997 
z
" transform="scale(0.015625)"/>
       <path id="DejaVuSans-73" d="M 2834 3397 
L 2834 2853 
Q 2591 2978 2328 3040 
Q 2066 3103 1784 3103 
Q 1356 3103 1142 2972 
Q 928 2841 928 2578 
Q 928 2378 1081 2264 
Q 1234 2150 1697 2047 
L 1894 2003 
Q 2506 1872 2764 1633 
Q 3022 1394 3022 966 
Q 3022 478 2636 193 
Q 2250 -91 1575 -91 
Q 1294 -91 989 -36 
Q 684 19 347 128 
L 347 722 
Q 666 556 975 473 
Q 1284 391 1588 391 
Q 1994 391 2212 530 
Q 2431 669 2431 922 
Q 2431 1156 2273 1281 
Q 2116 1406 1581 1522 
L 1381 1569 
Q 847 1681 609 1914 
Q 372 2147 372 2553 
Q 372 3047 722 3315 
Q 1072 3584 1716 3584 
Q 2034 3584 2315 3537 
Q 2597 3491 2834 3397 
z
" transform="scale(0.015625)"/>
       <path id="DejaVuSans-2f" d="M 1625 4666 
L 2156 4666 
L 531 -594 
L 0 -594 
L 1625 4666 
z
" transform="scale(0.015625)"/>
       <path id="DejaVuSans-64" d="M 2906 2969 
L 2906 4863 
L 3481 4863 
L 3481 0 
L 2906 0 
L 2906 525 
Q 2725 213 2448 61 
Q 2172 -91 1784 -91 
Q 1150 -91 751 415 
Q 353 922 353 1747 
Q 353 2572 751 3078 
Q 1150 3584 1784 3584 
Q 2172 3584 2448 3432 
Q 2725 3281 2906 2969 
z
M 947 1747 
Q 947 1113 1208 752 
Q 1469 391 1925 391 
Q 2381 391 2643 752 
Q 2906 1113 2906 1747 
Q 2906 2381 2643 2742 
Q 2381 3103 1925 3103 
Q 1469 3103 1208 2742 
Q 947 2381 947 1747 
z
" transform="scale(0.015625)"/>
       <path id="DejaVuSans-69" d="M 603 3500 
L 1178 3500 
L 1178 0 
L 603 0 
L 603 3500 
z
M 603 4863 
L 1178 4863 
L 1178 4134 
L 603 4134 
L 603 4863 
z
" transform="scale(0.015625)"/>
       <path id="DejaVuSans-6d" d="M 3328 2828 
Q 3544 3216 3844 3400 
Q 4144 3584 4550 3584 
Q 5097 3584 5394 3201 
Q 5691 2819 5691 2113 
L 5691 0 
L 5113 0 
L 5113 2094 
Q 5113 2597 4934 2840 
Q 4756 3084 4391 3084 
Q 3944 3084 3684 2787 
Q 3425 2491 3425 1978 
L 3425 0 
L 2847 0 
L 2847 2094 
Q 2847 2600 2669 2842 
Q 2491 3084 2119 3084 
Q 1678 3084 1418 2786 
Q 1159 2488 1159 1978 
L 1159 0 
L 581 0 
L 581 3500 
L 1159 3500 
L 1159 2956 
Q 1356 3278 1631 3431 
Q 1906 3584 2284 3584 
Q 2666 3584 2933 3390 
Q 3200 3197 3328 2828 
z
" transform="scale(0.015625)"/>
       <path id="DejaVuSans-6e" d="M 3513 2113 
L 3513 0 
L 2938 0 
L 2938 2094 
Q 2938 2591 2744 2837 
Q 2550 3084 2163 3084 
Q 1697 3084 1428 2787 
Q 1159 2491 1159 1978 
L 1159 0 
L 581 0 
L 581 3500 
L 1159 3500 
L 1159 2956 
Q 1366 3272 1645 3428 
Q 1925 3584 2291 3584 
Q 2894 3584 3203 3211 
Q 3513 2838 3513 2113 
z
" transform="scale(0.015625)"/>
       <path id="DejaVuSans-29" d="M 513 4856 
L 1013 4856 
Q 1481 4119 1714 3412 
Q 1947 2706 1947 2009 
Q 1947 1309 1714 600 
Q 1481 -109 1013 -844 
L 513 -844 
Q 928 -128 1133 580 
Q 1338 1288 1338 2009 
Q 1338 2731 1133 3434 
Q 928 4138 513 4856 
z
" transform="scale(0.015625)"/>
      </defs>
      <use xlink:href="#DejaVuSans-6c"/>
      <use xlink:href="#DejaVuSans-6f" x="27.783203"/>
      <use xlink:href="#DejaVuSans-67" x="88.964844"/>
      <use xlink:href="#DejaVuSans-31" x="152.441406"/>
      <use xlink:href="#DejaVuSans-30" x="216.064453"/>
      <use xlink:href="#DejaVuSans-28" x="279.6875"/>
      <use xlink:href="#DejaVuSans-23" x="318.701172"/>
      <use xlink:href="#DejaVuSans-20" x="402.490234"/>
      <use xlink:href="#DejaVuSans-66" x="434.277344"/>
      <use xlink:href="#DejaVuSans-2d" x="463.982422"/>
      <use xlink:href="#DejaVuSans-65" x="500.066406"/>
      <use xlink:href="#DejaVuSans-76" x="561.589844"/>
      <use xlink:href="#DejaVuSans-61" x="620.769531"/>
      <use xlink:href="#DejaVuSans-6c" x="682.048828"/>
      <use xlink:href="#DejaVuSans-73" x="709.832031"/>
      <use xlink:href="#DejaVuSans-20" x="761.931641"/>
      <use xlink:href="#DejaVuSans-2f" x="793.71875"/>
      <use xlink:href="#DejaVuSans-20" x="827.410156"/>
      <use xlink:href="#DejaVuSans-64" x="859.197266"/>
      <use xlink:href="#DejaVuSans-69" x="922.673828"/>
      <use xlink:href="#DejaVuSans-6d" x="950.457031"/>
      <use xlink:href="#DejaVuSans-65" x="1047.869141"/>
      <use xlink:href="#DejaVuSans-6e" x="1109.392578"/>
      <use xlink:href="#DejaVuSans-73" x="1172.771484"/>
      <use xlink:href="#DejaVuSans-69" x="1224.871094"/>
      <use xlink:href="#DejaVuSans-6f" x="1252.654297"/>
      <use xlink:href="#DejaVuSans-6e" x="1313.835938"/>
      <use xlink:href="#DejaVuSans-29" x="1377.214844"/>
     </g>
    </g>
   </g>
   <g id="matplotlib.axis_2">
    <g id="ytick_1">
     <g id="line2d_21">
      <path d="M 57.6 298.944 
L 360.8064 298.944 
" clip-path="url(#p56c10f3afc)" style="fill: none; stroke: #b0b0b0; stroke-width: 0.8; stroke-linecap: square"/>
     </g>
     <g id="line2d_22">
      <defs>
       <path id="m7b5afeca48" d="M 0 0 
L -3.5 0 
" style="stroke: #000000; stroke-width: 0.8"/>
      </defs>
      <g>
       <use xlink:href="#m7b5afeca48" x="57.6" y="298.944" style="stroke: #000000; stroke-width: 0.8"/>
      </g>
     </g>
     <g id="text_6">
      <!-- 0.0 -->
      <g transform="translate(25.155 305.02275)scale(0.16 -0.16)">
       <defs>
        <path id="DejaVuSans-2e" d="M 684 794 
L 1344 794 
L 1344 0 
L 684 0 
L 684 794 
z
" transform="scale(0.015625)"/>
       </defs>
       <use xlink:href="#DejaVuSans-30"/>
       <use xlink:href="#DejaVuSans-2e" x="63.623047"/>
       <use xlink:href="#DejaVuSans-30" x="95.410156"/>
      </g>
     </g>
    </g>
    <g id="ytick_2">
     <g id="line2d_23">
      <path d="M 57.6 244.6848 
L 360.8064 244.6848 
" clip-path="url(#p56c10f3afc)" style="fill: none; stroke: #b0b0b0; stroke-width: 0.8; stroke-linecap: square"/>
     </g>
     <g id="line2d_24">
      <g>
       <use xlink:href="#m7b5afeca48" x="57.6" y="244.6848" style="stroke: #000000; stroke-width: 0.8"/>
      </g>
     </g>
     <g id="text_7">
      <!-- 0.2 -->
      <g transform="translate(25.155 250.76355)scale(0.16 -0.16)">
       <use xlink:href="#DejaVuSans-30"/>
       <use xlink:href="#DejaVuSans-2e" x="63.623047"/>
       <use xlink:href="#DejaVuSans-32" x="95.410156"/>
      </g>
     </g>
    </g>
    <g id="ytick_3">
     <g id="line2d_25">
      <path d="M 57.6 190.4256 
L 360.8064 190.4256 
" clip-path="url(#p56c10f3afc)" style="fill: none; stroke: #b0b0b0; stroke-width: 0.8; stroke-linecap: square"/>
     </g>
     <g id="line2d_26">
      <g>
       <use xlink:href="#m7b5afeca48" x="57.6" y="190.4256" style="stroke: #000000; stroke-width: 0.8"/>
      </g>
     </g>
     <g id="text_8">
      <!-- 0.4 -->
      <g transform="translate(25.155 196.50435)scale(0.16 -0.16)">
       <use xlink:href="#DejaVuSans-30"/>
       <use xlink:href="#DejaVuSans-2e" x="63.623047"/>
       <use xlink:href="#DejaVuSans-34" x="95.410156"/>
      </g>
     </g>
    </g>
    <g id="ytick_4">
     <g id="line2d_27">
      <path d="M 57.6 136.1664 
L 360.8064 136.1664 
" clip-path="url(#p56c10f3afc)" style="fill: none; stroke: #b0b0b0; stroke-width: 0.8; stroke-linecap: square"/>
     </g>
     <g id="line2d_28">
      <g>
       <use xlink:href="#m7b5afeca48" x="57.6" y="136.1664" style="stroke: #000000; stroke-width: 0.8"/>
      </g>
     </g>
     <g id="text_9">
      <!-- 0.6 -->
      <g transform="translate(25.155 142.24515)scale(0.16 -0.16)">
       <use xlink:href="#DejaVuSans-30"/>
       <use xlink:href="#DejaVuSans-2e" x="63.623047"/>
       <use xlink:href="#DejaVuSans-36" x="95.410156"/>
      </g>
     </g>
    </g>
    <g id="ytick_5">
     <g id="line2d_29">
      <path d="M 57.6 81.9072 
L 360.8064 81.9072 
" clip-path="url(#p56c10f3afc)" style="fill: none; stroke: #b0b0b0; stroke-width: 0.8; stroke-linecap: square"/>
     </g>
     <g id="line2d_30">
      <g>
       <use xlink:href="#m7b5afeca48" x="57.6" y="81.9072" style="stroke: #000000; stroke-width: 0.8"/>
      </g>
     </g>
     <g id="text_10">
      <!-- 0.8 -->
      <g transform="translate(25.155 87.98595)scale(0.16 -0.16)">
       <defs>
        <path id="DejaVuSans-38" d="M 2034 2216 
Q 1584 2216 1326 1975 
Q 1069 1734 1069 1313 
Q 1069 891 1326 650 
Q 1584 409 2034 409 
Q 2484 409 2743 651 
Q 3003 894 3003 1313 
Q 3003 1734 2745 1975 
Q 2488 2216 2034 2216 
z
M 1403 2484 
Q 997 2584 770 2862 
Q 544 3141 544 3541 
Q 544 4100 942 4425 
Q 1341 4750 2034 4750 
Q 2731 4750 3128 4425 
Q 3525 4100 3525 3541 
Q 3525 3141 3298 2862 
Q 3072 2584 2669 2484 
Q 3125 2378 3379 2068 
Q 3634 1759 3634 1313 
Q 3634 634 3220 271 
Q 2806 -91 2034 -91 
Q 1263 -91 848 271 
Q 434 634 434 1313 
Q 434 1759 690 2068 
Q 947 2378 1403 2484 
z
M 1172 3481 
Q 1172 3119 1398 2916 
Q 1625 2713 2034 2713 
Q 2441 2713 2670 2916 
Q 2900 3119 2900 3481 
Q 2900 3844 2670 4047 
Q 2441 4250 2034 4250 
Q 1625 4250 1398 4047 
Q 1172 3844 1172 3481 
z
" transform="scale(0.015625)"/>
       </defs>
       <use xlink:href="#DejaVuSans-30"/>
       <use xlink:href="#DejaVuSans-2e" x="63.623047"/>
       <use xlink:href="#DejaVuSans-38" x="95.410156"/>
      </g>
     </g>
    </g>
    <g id="ytick_6">
     <g id="line2d_31">
      <path d="M 57.6 27.648 
L 360.8064 27.648 
" clip-path="url(#p56c10f3afc)" style="fill: none; stroke: #b0b0b0; stroke-width: 0.8; stroke-linecap: square"/>
     </g>
     <g id="line2d_32">
      <g>
       <use xlink:href="#m7b5afeca48" x="57.6" y="27.648" style="stroke: #000000; stroke-width: 0.8"/>
      </g>
     </g>
     <g id="text_11">
      <!-- 1.0 -->
      <g transform="translate(25.155 33.72675)scale(0.16 -0.16)">
       <use xlink:href="#DejaVuSans-31"/>
       <use xlink:href="#DejaVuSans-2e" x="63.623047"/>
       <use xlink:href="#DejaVuSans-30" x="95.410156"/>
      </g>
     </g>
    </g>
    <g id="text_12">
     <!-- Fraction of function,target pairs -->
     <g transform="translate(17.619531 297.681)rotate(-90)scale(0.17 -0.17)">
      <defs>
       <path id="DejaVuSans-46" d="M 628 4666 
L 3309 4666 
L 3309 4134 
L 1259 4134 
L 1259 2759 
L 3109 2759 
L 3109 2228 
L 1259 2228 
L 1259 0 
L 628 0 
L 628 4666 
z
" transform="scale(0.015625)"/>
       <path id="DejaVuSans-72" d="M 2631 2963 
Q 2534 3019 2420 3045 
Q 2306 3072 2169 3072 
Q 1681 3072 1420 2755 
Q 1159 2438 1159 1844 
L 1159 0 
L 581 0 
L 581 3500 
L 1159 3500 
L 1159 2956 
Q 1341 3275 1631 3429 
Q 1922 3584 2338 3584 
Q 2397 3584 2469 3576 
Q 2541 3569 2628 3553 
L 2631 2963 
z
" transform="scale(0.015625)"/>
       <path id="DejaVuSans-63" d="M 3122 3366 
L 3122 2828 
Q 2878 2963 2633 3030 
Q 2388 3097 2138 3097 
Q 1578 3097 1268 2742 
Q 959 2388 959 1747 
Q 959 1106 1268 751 
Q 1578 397 2138 397 
Q 2388 397 2633 464 
Q 2878 531 3122 666 
L 3122 134 
Q 2881 22 2623 -34 
Q 2366 -91 2075 -91 
Q 1284 -91 818 406 
Q 353 903 353 1747 
Q 353 2603 823 3093 
Q 1294 3584 2113 3584 
Q 2378 3584 2631 3529 
Q 2884 3475 3122 3366 
z
" transform="scale(0.015625)"/>
       <path id="DejaVuSans-74" d="M 1172 4494 
L 1172 3500 
L 2356 3500 
L 2356 3053 
L 1172 3053 
L 1172 1153 
Q 1172 725 1289 603 
Q 1406 481 1766 481 
L 2356 481 
L 2356 0 
L 1766 0 
Q 1100 0 847 248 
Q 594 497 594 1153 
L 594 3053 
L 172 3053 
L 172 3500 
L 594 3500 
L 594 4494 
L 1172 4494 
z
" transform="scale(0.015625)"/>
       <path id="DejaVuSans-75" d="M 544 1381 
L 544 3500 
L 1119 3500 
L 1119 1403 
Q 1119 906 1312 657 
Q 1506 409 1894 409 
Q 2359 409 2629 706 
Q 2900 1003 2900 1516 
L 2900 3500 
L 3475 3500 
L 3475 0 
L 2900 0 
L 2900 538 
Q 2691 219 2414 64 
Q 2138 -91 1772 -91 
Q 1169 -91 856 284 
Q 544 659 544 1381 
z
M 1991 3584 
L 1991 3584 
z
" transform="scale(0.015625)"/>
       <path id="DejaVuSans-2c" d="M 750 794 
L 1409 794 
L 1409 256 
L 897 -744 
L 494 -744 
L 750 256 
L 750 794 
z
" transform="scale(0.015625)"/>
       <path id="DejaVuSans-70" d="M 1159 525 
L 1159 -1331 
L 581 -1331 
L 581 3500 
L 1159 3500 
L 1159 2969 
Q 1341 3281 1617 3432 
Q 1894 3584 2278 3584 
Q 2916 3584 3314 3078 
Q 3713 2572 3713 1747 
Q 3713 922 3314 415 
Q 2916 -91 2278 -91 
Q 1894 -91 1617 61 
Q 1341 213 1159 525 
z
M 3116 1747 
Q 3116 2381 2855 2742 
Q 2594 3103 2138 3103 
Q 1681 3103 1420 2742 
Q 1159 2381 1159 1747 
Q 1159 1113 1420 752 
Q 1681 391 2138 391 
Q 2594 391 2855 752 
Q 3116 1113 3116 1747 
z
" transform="scale(0.015625)"/>
      </defs>
      <use xlink:href="#DejaVuSans-46"/>
      <use xlink:href="#DejaVuSans-72" x="50.269531"/>
      <use xlink:href="#DejaVuSans-61" x="91.382812"/>
      <use xlink:href="#DejaVuSans-63" x="152.662109"/>
      <use xlink:href="#DejaVuSans-74" x="207.642578"/>
      <use xlink:href="#DejaVuSans-69" x="246.851562"/>
      <use xlink:href="#DejaVuSans-6f" x="274.634766"/>
      <use xlink:href="#DejaVuSans-6e" x="335.816406"/>
      <use xlink:href="#DejaVuSans-20" x="399.195312"/>
      <use xlink:href="#DejaVuSans-6f" x="430.982422"/>
      <use xlink:href="#DejaVuSans-66" x="492.164062"/>
      <use xlink:href="#DejaVuSans-20" x="527.369141"/>
      <use xlink:href="#DejaVuSans-66" x="559.15625"/>
      <use xlink:href="#DejaVuSans-75" x="594.361328"/>
      <use xlink:href="#DejaVuSans-6e" x="657.740234"/>
      <use xlink:href="#DejaVuSans-63" x="721.119141"/>
      <use xlink:href="#DejaVuSans-74" x="776.099609"/>
      <use xlink:href="#DejaVuSans-69" x="815.308594"/>
      <use xlink:href="#DejaVuSans-6f" x="843.091797"/>
      <use xlink:href="#DejaVuSans-6e" x="904.273438"/>
      <use xlink:href="#DejaVuSans-2c" x="967.652344"/>
      <use xlink:href="#DejaVuSans-74" x="999.439453"/>
      <use xlink:href="#DejaVuSans-61" x="1038.648438"/>
      <use xlink:href="#DejaVuSans-72" x="1099.927734"/>
      <use xlink:href="#DejaVuSans-67" x="1139.291016"/>
      <use xlink:href="#DejaVuSans-65" x="1202.767578"/>
      <use xlink:href="#DejaVuSans-74" x="1264.291016"/>
      <use xlink:href="#DejaVuSans-20" x="1303.5"/>
      <use xlink:href="#DejaVuSans-70" x="1335.287109"/>
      <use xlink:href="#DejaVuSans-61" x="1398.763672"/>
      <use xlink:href="#DejaVuSans-69" x="1460.042969"/>
      <use xlink:href="#DejaVuSans-72" x="1487.826172"/>
      <use xlink:href="#DejaVuSans-73" x="1528.939453"/>
     </g>
    </g>
   </g>
   <g id="line2d_33">
    <defs>
     <path id="mdefd9b1c16" d="M 0 1.5 
C 0.397805 1.5 0.77937 1.341951 1.06066 1.06066 
C 1.341951 0.77937 1.5 0.397805 1.5 0 
C 1.5 -0.397805 1.341951 -0.77937 1.06066 -1.06066 
C 0.77937 -1.341951 0.397805 -1.5 0 -1.5 
C -0.397805 -1.5 -0.77937 -1.341951 -1.06066 -1.06066 
C -1.341951 -0.77937 -1.5 -0.397805 -1.5 0 
C -1.5 0.397805 -1.341951 0.77937 -1.06066 1.06066 
C -0.77937 1.341951 -0.397805 1.5 0 1.5 
z
" style="stroke: #f5deb3"/>
    </defs>
    <g>
     <use xlink:href="#mdefd9b1c16" x="156.225294" y="27.648" style="fill: #f5deb3; stroke: #f5deb3"/>
     <use xlink:href="#mdefd9b1c16" x="156.225294" y="27.648" style="fill: #f5deb3; stroke: #f5deb3"/>
    </g>
   </g>
   <g id="line2d_34">
    <defs>
     <path id="m85544b97f5" d="M 0 1.5 
C 0.397805 1.5 0.77937 1.341951 1.06066 1.06066 
C 1.341951 0.77937 1.5 0.397805 1.5 0 
C 1.5 -0.397805 1.341951 -0.77937 1.06066 -1.06066 
C 0.77937 -1.341951 0.397805 -1.5 0 -1.5 
C -0.397805 -1.5 -0.77937 -1.341951 -1.06066 -1.06066 
C -1.341951 -0.77937 -1.5 -0.397805 -1.5 0 
C -1.5 0.397805 -1.341951 0.77937 -1.06066 1.06066 
C -0.77937 1.341951 -0.397805 1.5 0 1.5 
z
" style="stroke: #000080"/>
    </defs>
    <g>
     <use xlink:href="#m85544b97f5" x="194.104207" y="27.648" style="fill: #000080; stroke: #000080"/>
     <use xlink:href="#m85544b97f5" x="194.104207" y="27.648" style="fill: #000080; stroke: #000080"/>
    </g>
   </g>
   <g id="line2d_35">
    <path d="M 110.674517 298.944 
L 110.674517 298.731219 
L 113.332844 298.731219 
L 113.332844 298.518438 
L 113.907287 298.518438 
L 113.907287 298.305656 
L 114.601519 298.305656 
L 114.601519 298.092875 
L 114.7824 298.092875 
L 114.7824 297.880094 
L 114.961559 297.880094 
L 114.961559 297.667313 
L 116.128206 297.667313 
L 116.211813 297.241751 
L 116.746385 297.241751 
L 116.786884 296.603407 
L 117.107771 296.603407 
L 117.187145 295.965064 
L 117.344894 295.965064 
L 117.344894 295.752282 
L 117.65648 295.752282 
L 117.65648 295.539501 
L 118.671535 295.539501 
L 118.708098 295.113939 
L 118.962067 295.113939 
L 118.962067 294.901158 
L 119.212653 294.901158 
L 119.24818 294.475595 
L 119.35436 294.475595 
L 119.35436 294.262814 
L 119.738639 294.262814 
L 119.807672 293.837252 
L 119.979155 293.837252 
L 119.979155 293.624471 
L 120.115225 293.624471 
L 120.115225 293.411689 
L 120.250317 293.411689 
L 120.250317 293.198908 
L 120.48442 293.198908 
L 120.48442 292.986127 
L 120.715645 292.986127 
L 120.78119 292.560565 
L 121.297492 292.560565 
L 121.39274 291.922221 
L 121.706797 291.922221 
L 121.706797 291.70944 
L 122.289434 291.70944 
L 122.289434 291.283878 
L 122.439807 291.283878 
L 122.439807 291.071096 
L 122.942266 291.071096 
L 122.942266 290.858315 
L 123.116449 290.858315 
L 123.116449 290.645534 
L 123.629523 290.645534 
L 123.629523 290.432753 
L 123.908631 290.432753 
L 123.991562 289.581628 
L 124.128974 289.581628 
L 124.128974 289.368847 
L 124.508471 289.368847 
L 124.535287 288.943285 
L 124.827769 288.943285 
L 124.933009 288.517722 
L 125.011554 288.517722 
L 125.115773 288.09216 
L 125.219419 288.09216 
L 125.219419 287.879379 
L 126.151997 287.879379 
L 126.151997 287.666598 
L 126.372018 287.666598 
L 126.372018 287.453816 
L 126.493149 287.453816 
L 126.517282 286.815473 
L 127.017049 286.815473 
L 127.017049 286.389911 
L 127.29678 286.389911 
L 127.29678 286.177129 
L 127.663399 286.177129 
L 127.663399 285.964348 
L 127.776517 285.964348 
L 127.776517 285.751567 
L 128.15611 285.751567 
L 128.15611 285.538786 
L 128.41952 285.538786 
L 128.441306 284.900442 
L 128.57149 284.900442 
L 128.679293 284.47488 
L 129.230121 284.47488 
L 129.230121 284.262099 
L 129.375706 284.262099 
L 129.375706 284.049318 
L 129.68393 284.049318 
L 129.68393 283.836536 
L 130.403695 283.836536 
L 130.403695 283.623755 
L 130.579414 283.623755 
L 130.676331 283.198193 
L 131.4342 283.198193 
L 131.4342 282.985412 
L 131.856536 282.985412 
L 131.965169 282.559849 
L 132.446401 282.559849 
L 132.446401 282.347068 
L 132.638982 282.347068 
L 132.638982 282.134287 
L 133.30631 282.134287 
L 133.30631 281.921506 
L 133.473674 281.921506 
L 133.473674 281.708725 
L 133.738397 281.708725 
L 133.738397 281.495944 
L 134.22493 281.495944 
L 134.22493 281.283162 
L 134.400219 281.283162 
L 134.463557 280.8576 
L 136.097741 280.8576 
L 136.097741 280.644819 
L 136.584151 280.644819 
L 136.584151 280.432038 
L 137.290966 280.432038 
L 137.290966 280.219256 
L 137.932787 280.219256 
L 137.932787 280.006475 
L 138.297313 280.006475 
L 138.297313 279.793694 
L 138.604239 279.793694 
L 138.604239 279.580913 
L 141.836341 279.580913 
L 141.836341 279.368132 
L 142.048783 279.368132 
L 142.048783 279.155351 
L 142.976156 279.155351 
L 142.976156 278.942569 
L 143.38393 278.942569 
L 143.38393 278.729788 
L 144.977244 278.729788 
L 144.977244 278.517007 
L 145.529517 278.517007 
L 145.529517 278.304226 
L 145.791035 278.304226 
L 145.791035 278.091445 
L 145.963382 278.091445 
L 145.963382 277.878664 
L 146.752911 277.878664 
L 146.752911 277.665882 
L 147.103321 277.665882 
L 147.159751 277.24032 
L 147.79293 277.24032 
L 147.79293 277.027539 
L 148.785835 277.027539 
L 148.800595 276.601976 
L 149.151403 276.601976 
L 149.151403 276.389195 
L 149.331557 276.389195 
L 149.331557 276.176414 
L 150.056115 276.176414 
L 150.138743 275.750852 
L 150.499402 275.750852 
L 150.499402 275.538071 
L 151.630724 275.538071 
L 151.725684 275.112508 
L 151.939169 275.112508 
L 151.939169 274.899727 
L 152.407786 274.899727 
L 152.407786 274.686946 
L 152.781618 274.686946 
L 152.781618 274.474165 
L 153.605101 274.474165 
L 153.605101 274.261384 
L 156.17053 274.261384 
L 156.17053 274.048602 
L 157.405466 274.048602 
L 157.405466 273.62304 
L 157.957569 273.62304 
L 157.957569 273.410259 
L 158.760826 273.410259 
L 158.760826 273.197478 
L 162.085292 273.197478 
L 162.085292 272.984696 
L 162.266453 272.984696 
L 162.266453 272.771915 
L 162.820714 272.771915 
L 162.820714 272.559134 
L 162.994961 272.559134 
L 162.994961 272.346353 
L 163.301182 272.346353 
L 163.301182 272.133572 
L 163.528464 272.133572 
L 163.619284 271.708009 
L 163.991407 271.708009 
L 163.991407 271.495228 
L 164.191027 271.495228 
L 164.191027 271.282447 
L 165.136882 271.282447 
L 165.136882 271.069666 
L 165.327832 271.069666 
L 165.379853 270.644104 
L 165.528995 270.644104 
L 165.532026 270.00576 
L 166.004959 270.00576 
L 166.004959 269.792979 
L 166.152178 269.792979 
L 166.152178 269.580198 
L 166.746854 269.580198 
L 166.749695 269.154635 
L 168.0663 269.154635 
L 168.0663 268.941854 
L 168.456938 268.941854 
L 168.456938 268.729073 
L 169.306678 268.729073 
L 169.393282 268.303511 
L 169.755147 268.303511 
L 169.815592 267.877948 
L 169.995769 267.877948 
L 169.995769 267.665167 
L 170.343988 267.665167 
L 170.404912 267.239605 
L 170.500586 267.239605 
L 170.500586 267.026824 
L 170.82137 267.026824 
L 170.82137 266.814042 
L 170.976329 266.814042 
L 171.048812 266.38848 
L 171.286936 266.38848 
L 171.340435 265.962918 
L 171.427048 265.962918 
L 171.438123 265.537355 
L 171.616642 265.537355 
L 171.645136 264.899012 
L 171.754328 264.899012 
L 171.793483 264.473449 
L 172.197632 264.473449 
L 172.197632 264.260668 
L 172.425935 264.260668 
L 172.425935 264.047887 
L 172.738496 264.047887 
L 172.738496 263.835106 
L 172.853867 263.835106 
L 172.853867 263.622325 
L 172.99913 263.622325 
L 173.10076 262.983981 
L 173.517742 262.983981 
L 173.557354 262.558419 
L 173.78938 262.558419 
L 173.78938 262.345638 
L 174.311662 262.345638 
L 174.332558 261.920075 
L 174.49137 261.920075 
L 174.545888 261.281732 
L 174.671243 261.281732 
L 174.715944 260.643388 
L 174.805028 260.643388 
L 174.912111 259.579482 
L 175.080727 259.579482 
L 175.080727 259.366701 
L 175.492201 259.366701 
L 175.593679 258.728358 
L 175.731661 258.728358 
L 175.819582 257.664452 
L 176.118931 257.664452 
L 176.223961 256.813327 
L 176.242838 256.813327 
L 176.242838 256.600546 
L 176.374454 256.600546 
L 176.46621 255.749421 
L 176.54402 255.749421 
L 176.555833 255.323859 
L 176.802199 255.323859 
L 176.908461 254.898296 
L 176.96962 254.898296 
L 177.051954 254.047172 
L 177.132293 254.047172 
L 177.178047 253.621609 
L 177.262725 253.621609 
L 177.311405 252.983266 
L 177.39226 252.983266 
L 177.485617 252.344922 
L 177.52892 252.344922 
L 177.52892 252.132141 
L 177.694788 252.132141 
L 177.78982 251.493798 
L 177.819813 251.493798 
L 177.879658 250.642673 
L 177.933042 250.642673 
L 177.995653 250.004329 
L 178.086071 250.004329 
L 178.177604 248.940424 
L 178.265613 248.940424 
L 178.374666 247.876518 
L 178.377728 247.876518 
L 178.473951 247.025393 
L 178.501354 247.025393 
L 178.612077 245.961487 
L 178.615101 245.961487 
L 178.719145 244.897581 
L 178.737181 244.897581 
L 178.816634 243.833675 
L 178.895753 243.833675 
L 178.987886 242.344207 
L 179.06186 242.344207 
L 179.150247 241.06752 
L 179.246995 241.06752 
L 179.354881 240.003614 
L 179.370866 240.003614 
L 179.478046 238.514146 
L 179.527087 238.514146 
L 179.610451 236.599115 
L 179.657718 236.599115 
L 179.763281 234.896866 
L 179.778923 234.896866 
L 179.888049 232.343492 
L 179.907823 232.343492 
L 179.999356 230.641242 
L 180.047059 230.641242 
L 180.143496 229.577336 
L 180.176924 229.577336 
L 180.240829 228.087868 
L 180.294839 228.087868 
L 180.402397 226.172838 
L 180.44223 226.172838 
L 180.553044 223.619464 
L 180.59256 223.619464 
L 180.687602 221.704433 
L 180.7052 221.704433 
L 180.811789 219.576621 
L 180.826582 219.576621 
L 180.932488 217.236028 
L 180.937834 217.236028 
L 181.024502 215.108216 
L 181.055074 215.108216 
L 181.147814 212.12928 
L 181.175547 212.12928 
L 181.275573 210.001468 
L 181.29263 210.001468 
L 181.397255 207.660875 
L 181.407686 207.660875 
L 181.483135 205.320282 
L 181.527223 205.320282 
L 181.636995 201.490221 
L 181.63957 201.490221 
L 181.74997 197.447379 
L 181.766602 197.447379 
L 181.871175 193.617318 
L 181.882617 193.617318 
L 181.992867 189.574475 
L 181.997921 189.574475 
L 182.107499 184.893289 
L 182.121308 184.893289 
L 182.227677 179.786541 
L 182.237657 179.786541 
L 182.345852 175.105355 
L 182.350812 175.105355 
L 182.460825 170.849732 
L 182.46945 170.849732 
L 182.577549 165.10464 
L 182.584897 165.10464 
L 182.680157 158.933986 
L 182.698422 158.933986 
L 182.806426 153.188894 
L 182.813685 153.188894 
L 182.919829 148.507708 
L 182.928247 148.507708 
L 183.03853 142.762616 
L 183.04092 142.762616 
L 183.144604 136.379181 
L 183.162423 136.379181 
L 183.265442 130.846871 
L 183.273707 130.846871 
L 183.378467 125.31456 
L 183.386682 125.31456 
L 183.496651 121.271718 
L 183.501316 121.271718 
L 183.609459 117.228875 
L 183.612937 117.228875 
L 183.720442 111.058221 
L 183.728509 111.058221 
L 183.833065 108.079285 
L 183.851389 108.079285 
L 183.960958 102.121412 
L 183.964372 102.121412 
L 184.072155 98.291351 
L 184.07668 98.291351 
L 184.187197 94.248508 
L 184.206302 94.248508 
L 184.309361 90.418447 
L 184.319413 90.418447 
L 184.427407 86.801167 
L 184.442943 86.801167 
L 184.552438 83.609449 
L 184.556849 83.609449 
L 184.662396 79.353826 
L 184.668973 79.353826 
L 184.773895 76.800452 
L 184.78588 76.800452 
L 184.858715 75.523765 
L 184.929107 75.523765 
L 185.033667 72.970391 
L 185.046562 72.970391 
L 185.149405 70.629798 
L 185.181428 70.629798 
L 185.28672 68.289205 
L 185.310038 68.289205 
L 185.411454 66.161393 
L 185.42304 66.161393 
L 185.473512 64.671925 
L 185.538506 64.671925 
L 185.647027 61.480207 
L 185.666785 61.480207 
L 185.748717 59.777958 
L 185.799356 59.777958 
L 185.894068 57.224584 
L 185.912543 57.224584 
L 186.012811 55.309553 
L 186.027092 55.309553 
L 186.129796 52.756179 
L 186.146014 52.756179 
L 186.244041 51.266711 
L 186.265197 51.266711 
L 186.357598 49.777242 
L 186.409624 49.777242 
L 186.513247 48.713336 
L 186.547992 48.713336 
L 186.650858 47.011087 
L 186.673532 47.011087 
L 186.754146 45.308838 
L 186.796281 45.308838 
L 186.88709 44.670494 
L 186.91629 44.670494 
L 187.019102 42.968245 
L 187.065474 42.968245 
L 187.163636 42.329901 
L 187.196243 42.329901 
L 187.305163 41.478776 
L 187.31564 41.478776 
L 187.397347 40.627652 
L 187.435229 40.627652 
L 187.538074 39.563746 
L 187.547481 39.563746 
L 187.646909 38.712621 
L 187.743953 38.712621 
L 187.844202 38.074278 
L 187.872879 38.074278 
L 187.964168 37.223153 
L 187.992663 37.223153 
L 188.020198 36.372028 
L 188.145429 36.372028 
L 188.228153 35.308122 
L 188.283402 35.308122 
L 188.373626 34.669779 
L 188.546543 34.669779 
L 188.546543 34.244216 
L 188.667444 34.244216 
L 188.737318 33.393092 
L 188.831545 33.393092 
L 188.927051 32.329186 
L 189.129594 32.329186 
L 189.129594 32.116405 
L 189.458713 32.116405 
L 189.458713 31.903624 
L 189.827216 31.903624 
L 189.892919 31.26528 
L 189.969973 31.26528 
L 190.031885 30.626936 
L 190.128881 30.626936 
L 190.128881 30.414155 
L 190.415291 30.414155 
L 190.419328 29.988593 
L 190.645628 29.988593 
L 190.751421 29.350249 
L 191.290148 29.350249 
L 191.358625 28.711906 
L 191.819872 28.711906 
L 191.819872 28.499125 
L 192.334357 28.499125 
L 192.334357 28.286344 
L 192.648909 28.286344 
L 192.648909 28.073562 
L 192.96534 28.073562 
L 192.96534 27.860781 
L 194.104207 27.860781 
L 194.104207 27.648 
L 360.8064 27.648 
L 360.8064 27.648 
" style="fill: none; stroke: #000080; stroke-width: 1.5; stroke-linecap: square"/>
   </g>
   <g id="line2d_36">
    <defs>
     <path id="maa19a3c620" d="M 0 6 
C 1.591219 6 3.117479 5.367802 4.242641 4.242641 
C 5.367802 3.117479 6 1.591219 6 0 
C 6 -1.591219 5.367802 -3.117479 4.242641 -4.242641 
C 3.117479 -5.367802 1.591219 -6 0 -6 
C -1.591219 -6 -3.117479 -5.367802 -4.242641 -4.242641 
C -5.367802 -3.117479 -6 -1.591219 -6 0 
C -6 1.591219 -5.367802 3.117479 -4.242641 4.242641 
C -3.117479 5.367802 -1.591219 6 0 6 
z
" style="stroke: #000080; stroke-width: 1.5"/>
    </defs>
    <g>
     <use xlink:href="#maa19a3c620" x="182.641134" y="160.423454" style="fill-opacity: 0; stroke: #000080; stroke-width: 1.5"/>
     <use xlink:href="#maa19a3c620" x="194.104207" y="27.860781" style="fill-opacity: 0; stroke: #000080; stroke-width: 1.5"/>
     <use xlink:href="#maa19a3c620" x="194.104207" y="27.648" style="fill-opacity: 0; stroke: #000080; stroke-width: 1.5"/>
     <use xlink:href="#maa19a3c620" x="194.104207" y="27.648" style="fill-opacity: 0; stroke: #000080; stroke-width: 1.5"/>
     <use xlink:href="#maa19a3c620" x="360.8064" y="27.648" style="fill-opacity: 0; stroke: #000080; stroke-width: 1.5"/>
    </g>
   </g>
   <g id="line2d_37">
    <path style="fill: none; stroke: #000080; stroke-width: 1.5; stroke-linecap: square"/>
    <g/>
   </g>
   <g id="line2d_38">
    <path d="M 101.471247 298.944 
" clip-path="url(#p56c10f3afc)" style="fill: none; stroke: #000080; stroke-width: 1.5; stroke-linecap: square"/>
    <defs>
     <path id="m3958bd87d5" d="M -12 12 
L 12 -12 
M -12 -12 
L 12 12 
" style="stroke: #000080"/>
    </defs>
    <g clip-path="url(#p56c10f3afc)">
     <use xlink:href="#m3958bd87d5" x="101.471247" y="298.944" style="fill: #000080; stroke: #000080"/>
    </g>
   </g>
   <g id="line2d_39">
    <defs>
     <path id="m4cecf9698f" d="M 0 1.5 
C 0.397805 1.5 0.77937 1.341951 1.06066 1.06066 
C 1.341951 0.77937 1.5 0.397805 1.5 0 
C 1.5 -0.397805 1.341951 -0.77937 1.06066 -1.06066 
C 0.77937 -1.341951 0.397805 -1.5 0 -1.5 
C -0.397805 -1.5 -0.77937 -1.341951 -1.06066 -1.06066 
C -1.341951 -0.77937 -1.5 -0.397805 -1.5 0 
C -1.5 0.397805 -1.341951 0.77937 -1.06066 1.06066 
C -0.77937 1.341951 -0.397805 1.5 0 1.5 
z
" style="stroke: #ff00ff"/>
    </defs>
    <g>
     <use xlink:href="#m4cecf9698f" x="195.453106" y="27.648" style="fill: #ff00ff; stroke: #ff00ff"/>
     <use xlink:href="#m4cecf9698f" x="195.453106" y="27.648" style="fill: #ff00ff; stroke: #ff00ff"/>
    </g>
   </g>
   <g id="line2d_40">
    <path d="M 117.344894 298.944 
L 117.344894 298.731219 
L 119.319033 298.731219 
L 119.319033 298.518438 
L 119.459944 298.518438 
L 119.459944 298.305656 
L 119.704027 298.305656 
L 119.773187 297.880094 
L 119.842094 297.880094 
L 119.842094 297.667313 
L 120.317502 297.667313 
L 120.317502 297.454532 
L 120.748446 297.454532 
L 120.78119 297.028969 
L 121.613129 297.028969 
L 121.644403 296.603407 
L 121.86188 296.603407 
L 121.954321 295.965064 
L 122.046309 295.965064 
L 122.076872 295.539501 
L 122.228947 295.539501 
L 122.228947 295.32672 
L 122.499621 295.32672 
L 122.559246 294.688376 
L 122.736994 294.688376 
L 122.736994 294.475595 
L 122.883845 294.475595 
L 122.913079 294.050033 
L 123.174153 294.050033 
L 123.231681 293.624471 
L 123.317644 293.624471 
L 123.317644 293.411689 
L 123.4884 293.411689 
L 123.4884 292.986127 
L 123.797484 292.986127 
L 123.797484 292.773346 
L 124.128974 292.773346 
L 124.128974 292.560565 
L 124.319679 292.560565 
L 124.319679 292.347784 
L 124.481616 292.347784 
L 124.535287 291.70944 
L 124.668797 291.70944 
L 124.668797 291.496659 
L 124.827769 291.496659 
L 124.854134 291.071096 
L 124.985409 291.071096 
L 125.089773 290.432753 
L 125.373824 290.432753 
L 125.450553 290.007191 
L 125.628382 290.007191 
L 125.628382 289.794409 
L 125.779479 289.794409 
L 125.879541 289.156066 
L 126.102752 289.156066 
L 126.102752 288.943285 
L 126.493149 288.943285 
L 126.589495 288.517722 
L 126.97002 288.517722 
L 126.97002 288.09216 
L 127.227236 288.09216 
L 127.273627 287.666598 
L 127.389106 287.666598 
L 127.480982 287.241035 
L 127.549596 287.241035 
L 127.5952 286.815473 
L 127.844063 286.815473 
L 127.911368 286.389911 
L 128.000734 286.389911 
L 128.089678 285.964348 
L 128.178203 285.964348 
L 128.266313 285.326005 
L 128.332126 285.326005 
L 128.332126 285.113224 
L 128.57149 285.113224 
L 128.657782 284.262099 
L 128.743679 284.262099 
L 128.807846 283.836536 
L 128.914307 283.836536 
L 128.977895 283.410974 
L 129.60223 283.410974 
L 129.7043 282.772631 
L 129.78556 282.772631 
L 129.826058 282.134287 
L 129.947033 282.134287 
L 130.027253 281.708725 
L 130.24611 281.708725 
L 130.344755 281.283162 
L 131.191226 281.283162 
L 131.191226 281.070381 
L 131.471303 281.070381 
L 131.471303 280.8576 
L 132.109044 280.8576 
L 132.109044 280.644819 
L 132.269599 280.644819 
L 132.269599 280.432038 
L 132.691164 280.432038 
L 132.691164 280.219256 
L 133.523594 280.219256 
L 133.523594 279.793694 
L 133.918257 279.793694 
L 133.999446 279.368132 
L 134.096413 279.368132 
L 134.096413 279.155351 
L 134.463557 279.155351 
L 134.495147 278.729788 
L 135.717106 278.729788 
L 135.717106 278.517007 
L 136.342518 278.517007 
L 136.342518 278.304226 
L 138.515235 278.304226 
L 138.553431 277.878664 
L 143.452675 277.878664 
L 143.452675 277.665882 
L 143.569942 277.665882 
L 143.569942 277.453101 
L 145.704266 277.453101 
L 145.704266 277.24032 
L 150.309727 277.24032 
L 150.309727 277.027539 
L 151.037576 277.027539 
L 151.037576 276.814758 
L 151.355818 276.814758 
L 151.420109 276.389195 
L 152.56546 276.389195 
L 152.56546 276.176414 
L 153.570784 276.176414 
L 153.570784 275.963633 
L 154.067935 275.963633 
L 154.067935 275.750852 
L 154.394043 275.750852 
L 154.394043 275.538071 
L 155.098517 275.538071 
L 155.098517 275.325289 
L 155.433326 275.325289 
L 155.485105 274.899727 
L 157.09001 274.899727 
L 157.099504 274.474165 
L 158.039004 274.474165 
L 158.039004 274.048602 
L 160.573496 274.048602 
L 160.573496 273.835821 
L 161.224909 273.835821 
L 161.224909 273.62304 
L 161.365393 273.62304 
L 161.365393 273.410259 
L 162.524296 273.410259 
L 162.524296 273.197478 
L 162.925456 273.197478 
L 162.925456 272.984696 
L 163.263603 272.984696 
L 163.263603 272.771915 
L 163.494715 272.771915 
L 163.494715 272.559134 
L 163.709668 272.559134 
L 163.789646 272.133572 
L 165.428682 272.133572 
L 165.428682 271.920791 
L 166.25455 271.920791 
L 166.25455 271.708009 
L 166.454752 271.708009 
L 166.454752 271.495228 
L 166.609959 271.495228 
L 166.609959 271.282447 
L 166.749695 271.282447 
L 166.749695 271.069666 
L 167.223831 271.069666 
L 167.223831 270.856885 
L 167.91469 270.856885 
L 167.91469 270.644104 
L 168.274427 270.644104 
L 168.274427 270.431322 
L 168.617126 270.431322 
L 168.617126 270.218541 
L 168.742767 270.218541 
L 168.801454 269.792979 
L 168.986516 269.792979 
L 168.986516 269.580198 
L 169.25701 269.580198 
L 169.286826 269.154635 
L 169.408088 269.154635 
L 169.408088 268.941854 
L 170.126811 268.941854 
L 170.126811 268.729073 
L 170.2758 268.729073 
L 170.2758 268.516292 
L 170.39087 268.516292 
L 170.39087 268.303511 
L 170.720417 268.303511 
L 170.720417 268.090729 
L 171.90398 268.090729 
L 171.90398 267.877948 
L 172.343812 267.877948 
L 172.343812 267.665167 
L 173.173594 267.665167 
L 173.274288 266.814042 
L 173.577128 266.814042 
L 173.642237 266.175699 
L 173.7287 266.175699 
L 173.773739 265.537355 
L 174.022439 265.537355 
L 174.035946 265.111793 
L 174.191533 265.111793 
L 174.285033 264.473449 
L 174.5609 264.473449 
L 174.622697 263.835106 
L 174.701055 263.835106 
L 174.701055 263.622325 
L 175.078903 263.622325 
L 175.078903 263.409544 
L 175.256885 263.409544 
L 175.303824 262.983981 
L 175.395557 262.983981 
L 175.483274 262.558419 
L 175.71932 262.558419 
L 175.759841 261.920075 
L 176.034135 261.920075 
L 176.034135 261.707294 
L 176.285672 261.707294 
L 176.314743 261.281732 
L 176.454341 261.281732 
L 176.54402 260.643388 
L 176.703705 260.643388 
L 176.705378 260.217826 
L 176.918392 260.217826 
L 176.96797 259.579482 
L 177.091346 259.579482 
L 177.19273 259.15392 
L 177.413225 259.15392 
L 177.508083 258.090014 
L 177.592888 258.090014 
L 177.68208 257.451671 
L 177.783499 257.451671 
L 177.892232 256.174984 
L 177.914217 256.174984 
L 178.020639 255.53664 
L 178.03156 255.53664 
L 178.03156 255.323859 
L 178.211621 255.323859 
L 178.227063 254.898296 
L 178.337873 254.898296 
L 178.408329 254.472734 
L 178.466333 254.472734 
L 178.540864 253.834391 
L 178.610565 253.834391 
L 178.696576 252.983266 
L 178.780697 252.983266 
L 178.815138 252.557704 
L 178.907666 252.557704 
L 179.001223 251.706579 
L 179.033784 251.706579 
L 179.141427 250.429892 
L 179.198683 250.429892 
L 179.292266 249.365986 
L 179.411492 249.365986 
L 179.508351 247.876518 
L 179.532848 247.876518 
L 179.603279 246.599831 
L 179.646271 246.599831 
L 179.744779 245.535925 
L 179.798811 245.535925 
L 179.81726 245.110362 
L 179.910646 245.110362 
L 180.014803 244.259238 
L 180.034443 244.259238 
L 180.14489 243.195332 
L 180.197786 243.195332 
L 180.287923 241.918645 
L 180.311427 241.918645 
L 180.379007 240.429176 
L 180.423011 240.429176 
L 180.505241 239.152489 
L 180.538033 239.152489 
L 180.648285 237.663021 
L 180.653713 237.663021 
L 180.749798 236.599115 
L 180.776776 236.599115 
L 180.886981 235.535209 
L 180.89502 235.535209 
L 180.997878 233.83296 
L 181.0072 233.83296 
L 181.089573 232.343492 
L 181.121363 232.343492 
L 181.196649 230.641242 
L 181.233522 230.641242 
L 181.343707 228.726212 
L 181.382904 228.726212 
L 181.450651 226.5984 
L 181.496113 226.5984 
L 181.606065 223.832245 
L 181.624114 223.832245 
L 181.734604 222.342776 
L 181.741008 222.342776 
L 181.841902 220.002184 
L 181.877532 220.002184 
L 181.986548 217.236028 
L 181.991603 217.236028 
L 182.096193 215.320998 
L 182.107499 215.320998 
L 182.217691 213.193186 
L 182.223933 213.193186 
L 182.330966 210.639812 
L 182.348332 210.639812 
L 182.454661 207.448094 
L 182.462057 207.448094 
L 182.572649 203.618033 
L 182.587345 203.618033 
L 182.698422 200.639096 
L 182.699639 200.639096 
L 182.804006 196.596254 
L 182.812476 196.596254 
L 182.915017 193.404536 
L 182.925842 193.404536 
L 183.034944 188.723351 
L 183.045699 188.723351 
L 183.150546 185.106071 
L 183.163611 185.106071 
L 183.271346 180.637666 
L 183.281967 180.637666 
L 183.392548 175.318136 
L 183.393721 175.318136 
L 183.502482 171.913638 
L 183.511809 171.913638 
L 183.612937 166.594108 
L 183.638424 166.594108 
L 183.749236 162.551266 
L 183.752689 162.551266 
L 183.861688 157.87008 
L 183.874269 157.87008 
L 183.984841 152.976113 
L 183.987114 152.976113 
L 184.084595 147.656584 
L 184.100417 147.656584 
L 184.209672 142.124273 
L 184.216409 142.124273 
L 184.324995 138.081431 
L 184.337269 138.081431 
L 184.447379 132.54912 
L 184.457357 132.54912 
L 184.566769 125.101779 
L 184.578887 125.101779 
L 184.685406 120.420593 
L 184.691975 120.420593 
L 184.790236 114.037158 
L 184.808739 114.037158 
L 184.918295 108.292066 
L 184.922621 108.292066 
L 185.033667 104.036442 
L 185.036892 104.036442 
L 185.146199 99.355256 
L 185.148336 99.355256 
L 185.255938 94.461289 
L 185.266558 94.461289 
L 185.369264 90.205666 
L 185.386151 90.205666 
L 185.4966 85.950042 
L 185.503941 85.950042 
L 185.609533 82.332762 
L 185.625164 82.332762 
L 185.734223 79.141045 
L 185.738365 79.141045 
L 185.839564 76.587671 
L 185.84986 76.587671 
L 185.956604 74.459859 
L 185.961721 74.459859 
L 186.057657 72.544828 
L 186.075972 72.544828 
L 186.176387 70.842579 
L 186.192565 70.842579 
L 186.298393 68.501986 
L 186.326513 68.501986 
L 186.43259 65.523049 
L 186.472464 65.523049 
L 186.574752 63.395238 
L 186.587623 63.395238 
L 186.684366 60.841864 
L 186.725675 60.841864 
L 186.828554 58.288489 
L 186.850038 58.288489 
L 186.960975 56.373459 
L 186.969706 56.373459 
L 187.077049 52.756179 
L 187.086689 52.756179 
L 187.177069 51.053929 
L 187.225924 51.053929 
L 187.328014 49.35168 
L 187.340379 49.35168 
L 187.449416 47.649431 
L 187.485307 47.649431 
L 187.56816 45.947181 
L 187.600075 45.947181 
L 187.706688 43.181026 
L 187.712282 43.181026 
L 187.817336 41.904339 
L 187.854383 41.904339 
L 187.932867 41.053214 
L 187.966928 41.053214 
L 188.059594 39.989308 
L 188.085202 39.989308 
L 188.181836 38.925402 
L 188.208187 38.925402 
L 188.257157 37.648715 
L 188.36012 37.648715 
L 188.468793 36.584809 
L 188.472374 36.584809 
L 188.519769 35.946466 
L 188.603534 35.946466 
L 188.655921 35.520904 
L 188.762903 35.520904 
L 188.86665 34.456998 
L 188.889432 34.456998 
L 188.968955 34.031435 
L 189.009026 34.031435 
L 189.052485 33.393092 
L 189.235643 33.393092 
L 189.292302 32.967529 
L 189.393178 32.967529 
L 189.43746 32.541967 
L 189.693438 32.541967 
L 189.77549 31.903624 
L 189.857185 31.903624 
L 189.872152 31.478061 
L 190.085377 31.478061 
L 190.085377 31.26528 
L 190.4669 31.26528 
L 190.540841 30.626936 
L 190.701382 30.626936 
L 190.701382 30.414155 
L 190.869238 30.414155 
L 190.869238 30.201374 
L 190.994154 30.201374 
L 190.994154 29.988593 
L 191.117468 29.988593 
L 191.153994 29.563031 
L 191.229155 29.563031 
L 191.229155 29.350249 
L 191.451325 29.350249 
L 191.451325 29.137468 
L 191.985508 29.137468 
L 191.985508 28.924687 
L 192.338732 28.924687 
L 192.338732 28.711906 
L 192.476737 28.711906 
L 192.539593 28.286344 
L 193.389938 28.286344 
L 193.389938 28.073562 
L 193.793021 28.073562 
L 193.793021 27.860781 
L 195.453106 27.860781 
L 195.453106 27.648 
L 360.8064 27.648 
L 360.8064 27.648 
" style="fill: none; stroke: #ff00ff; stroke-width: 1.5; stroke-linecap: square"/>
   </g>
   <g id="line2d_41">
    <defs>
     <path id="ma589e306ce" d="M -0 8.485281 
L 5.091169 0 
L 0 -8.485281 
L -5.091169 -0 
z
" style="stroke: #ff00ff; stroke-width: 1.5; stroke-linejoin: miter"/>
    </defs>
    <g>
     <use xlink:href="#ma589e306ce" x="183.721594" y="163.615172" style="fill-opacity: 0; stroke: #ff00ff; stroke-width: 1.5; stroke-linejoin: miter"/>
     <use xlink:href="#ma589e306ce" x="195.453106" y="27.860781" style="fill-opacity: 0; stroke: #ff00ff; stroke-width: 1.5; stroke-linejoin: miter"/>
     <use xlink:href="#ma589e306ce" x="195.453106" y="27.648" style="fill-opacity: 0; stroke: #ff00ff; stroke-width: 1.5; stroke-linejoin: miter"/>
     <use xlink:href="#ma589e306ce" x="195.453106" y="27.648" style="fill-opacity: 0; stroke: #ff00ff; stroke-width: 1.5; stroke-linejoin: miter"/>
     <use xlink:href="#ma589e306ce" x="360.8064" y="27.648" style="fill-opacity: 0; stroke: #ff00ff; stroke-width: 1.5; stroke-linejoin: miter"/>
    </g>
   </g>
   <g id="line2d_42">
    <path style="fill: none; stroke: #ff00ff; stroke-width: 1.5; stroke-linecap: square"/>
    <g/>
   </g>
   <g id="line2d_43">
    <path d="M 101.379706 298.944 
" clip-path="url(#p56c10f3afc)" style="fill: none; stroke: #ff00ff; stroke-width: 1.5; stroke-linecap: square"/>
    <defs>
     <path id="mbffa7650fd" d="M -12 12 
L 12 -12 
M -12 -12 
L 12 12 
" style="stroke: #ff00ff"/>
    </defs>
    <g clip-path="url(#p56c10f3afc)">
     <use xlink:href="#mbffa7650fd" x="101.379706" y="298.944" style="fill: #ff00ff; stroke: #ff00ff"/>
    </g>
   </g>
   <g id="line2d_44">
    <path d="M 360.8064 27.648 
L 380.514816 293.51808 
" style="fill: none; stroke: #ff00ff; stroke-width: 1.5; stroke-linecap: square"/>
    <g>
     <use xlink:href="#ma589e306ce" x="360.8064" y="27.648" style="fill-opacity: 0; stroke: #ff00ff; stroke-width: 1.5; stroke-linejoin: miter"/>
     <use xlink:href="#ma589e306ce" x="380.514816" y="293.51808" style="fill-opacity: 0; stroke: #ff00ff; stroke-width: 1.5; stroke-linejoin: miter"/>
    </g>
   </g>
   <g id="line2d_45">
    <path d="M 360.8064 27.648 
L 380.514816 163.296 
" style="fill: none; stroke: #000080; stroke-width: 1.5; stroke-linecap: square"/>
    <g>
     <use xlink:href="#maa19a3c620" x="360.8064" y="27.648" style="fill-opacity: 0; stroke: #000080; stroke-width: 1.5"/>
     <use xlink:href="#maa19a3c620" x="380.514816" y="163.296" style="fill-opacity: 0; stroke: #000080; stroke-width: 1.5"/>
    </g>
   </g>
   <g id="line2d_46">
    <path d="M 360.8064 298.944 
L 360.8064 27.648 
" style="fill: none; stroke: #000000; stroke-width: 1.5; stroke-linecap: square"/>
   </g>
   <g id="patch_3">
    <path d="M 57.6 298.944 
L 360.8064 298.944 
" style="fill: none; stroke: #000000; stroke-width: 0.8; stroke-linejoin: miter; stroke-linecap: square"/>
   </g>
   <g id="patch_4">
    <path d="M 57.6 27.648 
L 360.8064 27.648 
" style="fill: none; stroke: #000000; stroke-width: 0.8; stroke-linejoin: miter; stroke-linecap: square"/>
   </g>
   <g id="text_13">
    <!-- ex -->
    <g transform="translate(386.578944 297.381205)scale(0.14 -0.14)">
     <defs>
      <path id="DejaVuSans-78" d="M 3513 3500 
L 2247 1797 
L 3578 0 
L 2900 0 
L 1881 1375 
L 863 0 
L 184 0 
L 1544 1831 
L 300 3500 
L 978 3500 
L 1906 2253 
L 2834 3500 
L 3513 3500 
z
" transform="scale(0.015625)"/>
     </defs>
     <use xlink:href="#DejaVuSans-65"/>
     <use xlink:href="#DejaVuSans-78" x="59.773438"/>
    </g>
   </g>
   <g id="text_14">
    <!-- ex -->
    <g transform="translate(386.578944 167.159125)scale(0.14 -0.14)">
     <use xlink:href="#DejaVuSans-65"/>
     <use xlink:href="#DejaVuSans-78" x="59.773438"/>
    </g>
   </g>
   <g id="text_15">
    <!-- best 2009 -->
    <g transform="translate(386.578944 36.937045)scale(0.14 -0.14)">
     <defs>
      <path id="DejaVuSans-62" d="M 3116 1747 
Q 3116 2381 2855 2742 
Q 2594 3103 2138 3103 
Q 1681 3103 1420 2742 
Q 1159 2381 1159 1747 
Q 1159 1113 1420 752 
Q 1681 391 2138 391 
Q 2594 391 2855 752 
Q 3116 1113 3116 1747 
z
M 1159 2969 
Q 1341 3281 1617 3432 
Q 1894 3584 2278 3584 
Q 2916 3584 3314 3078 
Q 3713 2572 3713 1747 
Q 3713 922 3314 415 
Q 2916 -91 2278 -91 
Q 1894 -91 1617 61 
Q 1341 213 1159 525 
L 1159 0 
L 581 0 
L 581 4863 
L 1159 4863 
L 1159 2969 
z
" transform="scale(0.015625)"/>
      <path id="DejaVuSans-39" d="M 703 97 
L 703 672 
Q 941 559 1184 500 
Q 1428 441 1663 441 
Q 2288 441 2617 861 
Q 2947 1281 2994 2138 
Q 2813 1869 2534 1725 
Q 2256 1581 1919 1581 
Q 1219 1581 811 2004 
Q 403 2428 403 3163 
Q 403 3881 828 4315 
Q 1253 4750 1959 4750 
Q 2769 4750 3195 4129 
Q 3622 3509 3622 2328 
Q 3622 1225 3098 567 
Q 2575 -91 1691 -91 
Q 1453 -91 1209 -44 
Q 966 3 703 97 
z
M 1959 2075 
Q 2384 2075 2632 2365 
Q 2881 2656 2881 3163 
Q 2881 3666 2632 3958 
Q 2384 4250 1959 4250 
Q 1534 4250 1286 3958 
Q 1038 3666 1038 3163 
Q 1038 2656 1286 2365 
Q 1534 2075 1959 2075 
z
" transform="scale(0.015625)"/>
     </defs>
     <use xlink:href="#DejaVuSans-62"/>
     <use xlink:href="#DejaVuSans-65" x="63.476562"/>
     <use xlink:href="#DejaVuSans-73" x="125"/>
     <use xlink:href="#DejaVuSans-74" x="177.099609"/>
     <use xlink:href="#DejaVuSans-20" x="216.308594"/>
     <use xlink:href="#DejaVuSans-32" x="248.095703"/>
     <use xlink:href="#DejaVuSans-30" x="311.71875"/>
     <use xlink:href="#DejaVuSans-30" x="375.341797"/>
     <use xlink:href="#DejaVuSans-39" x="438.964844"/>
    </g>
   </g>
   <g id="text_16">
    <!-- bbob f9, 20-D -->
    <g transform="translate(60.632064 38.111366)scale(0.102 -0.102)">
     <defs>
      <path id="DejaVuSans-44" d="M 1259 4147 
L 1259 519 
L 2022 519 
Q 2988 519 3436 956 
Q 3884 1394 3884 2338 
Q 3884 3275 3436 3711 
Q 2988 4147 2022 4147 
L 1259 4147 
z
M 628 4666 
L 1925 4666 
Q 3281 4666 3915 4102 
Q 4550 3538 4550 2338 
Q 4550 1131 3912 565 
Q 3275 0 1925 0 
L 628 0 
L 628 4666 
z
" transform="scale(0.015625)"/>
     </defs>
     <use xlink:href="#DejaVuSans-62"/>
     <use xlink:href="#DejaVuSans-62" x="63.476562"/>
     <use xlink:href="#DejaVuSans-6f" x="126.953125"/>
     <use xlink:href="#DejaVuSans-62" x="188.134766"/>
     <use xlink:href="#DejaVuSans-20" x="251.611328"/>
     <use xlink:href="#DejaVuSans-66" x="283.398438"/>
     <use xlink:href="#DejaVuSans-39" x="318.603516"/>
     <use xlink:href="#DejaVuSans-2c" x="382.226562"/>
     <use xlink:href="#DejaVuSans-20" x="414.013672"/>
     <use xlink:href="#DejaVuSans-32" x="445.800781"/>
     <use xlink:href="#DejaVuSans-30" x="509.423828"/>
     <use xlink:href="#DejaVuSans-2d" x="573.046875"/>
     <use xlink:href="#DejaVuSans-44" x="609.130859"/>
    </g>
    <!-- 51 targets: 100..1e-08 -->
    <g transform="translate(60.632064 49.533135)scale(0.102 -0.102)">
     <defs>
      <path id="DejaVuSans-35" d="M 691 4666 
L 3169 4666 
L 3169 4134 
L 1269 4134 
L 1269 2991 
Q 1406 3038 1543 3061 
Q 1681 3084 1819 3084 
Q 2600 3084 3056 2656 
Q 3513 2228 3513 1497 
Q 3513 744 3044 326 
Q 2575 -91 1722 -91 
Q 1428 -91 1123 -41 
Q 819 9 494 109 
L 494 744 
Q 775 591 1075 516 
Q 1375 441 1709 441 
Q 2250 441 2565 725 
Q 2881 1009 2881 1497 
Q 2881 1984 2565 2268 
Q 2250 2553 1709 2553 
Q 1456 2553 1204 2497 
Q 953 2441 691 2322 
L 691 4666 
z
" transform="scale(0.015625)"/>
      <path id="DejaVuSans-3a" d="M 750 794 
L 1409 794 
L 1409 0 
L 750 0 
L 750 794 
z
M 750 3309 
L 1409 3309 
L 1409 2516 
L 750 2516 
L 750 3309 
z
" transform="scale(0.015625)"/>
     </defs>
     <use xlink:href="#DejaVuSans-35"/>
     <use xlink:href="#DejaVuSans-31" x="63.623047"/>
     <use xlink:href="#DejaVuSans-20" x="127.246094"/>
     <use xlink:href="#DejaVuSans-74" x="159.033203"/>
     <use xlink:href="#DejaVuSans-61" x="198.242188"/>
     <use xlink:href="#DejaVuSans-72" x="259.521484"/>
     <use xlink:href="#DejaVuSans-67" x="298.884766"/>
     <use xlink:href="#DejaVuSans-65" x="362.361328"/>
     <use xlink:href="#DejaVuSans-74" x="423.884766"/>
     <use xlink:href="#DejaVuSans-73" x="463.09375"/>
     <use xlink:href="#DejaVuSans-3a" x="515.193359"/>
     <use xlink:href="#DejaVuSans-20" x="548.884766"/>
     <use xlink:href="#DejaVuSans-31" x="580.671875"/>
     <use xlink:href="#DejaVuSans-30" x="644.294922"/>
     <use xlink:href="#DejaVuSans-30" x="707.917969"/>
     <use xlink:href="#DejaVuSans-2e" x="771.541016"/>
     <use xlink:href="#DejaVuSans-2e" x="803.328125"/>
     <use xlink:href="#DejaVuSans-31" x="835.115234"/>
     <use xlink:href="#DejaVuSans-65" x="898.738281"/>
     <use xlink:href="#DejaVuSans-2d" x="960.261719"/>
     <use xlink:href="#DejaVuSans-30" x="996.345703"/>
     <use xlink:href="#DejaVuSans-38" x="1059.96875"/>
    </g>
    <!-- 25 instances -->
    <g transform="translate(60.632064 60.954904)scale(0.102 -0.102)">
     <use xlink:href="#DejaVuSans-32"/>
     <use xlink:href="#DejaVuSans-35" x="63.623047"/>
     <use xlink:href="#DejaVuSans-20" x="127.246094"/>
     <use xlink:href="#DejaVuSans-69" x="159.033203"/>
     <use xlink:href="#DejaVuSans-6e" x="186.816406"/>
     <use xlink:href="#DejaVuSans-73" x="250.195312"/>
     <use xlink:href="#DejaVuSans-74" x="302.294922"/>
     <use xlink:href="#DejaVuSans-61" x="341.503906"/>
     <use xlink:href="#DejaVuSans-6e" x="402.783203"/>
     <use xlink:href="#DejaVuSans-63" x="466.162109"/>
     <use xlink:href="#DejaVuSans-65" x="521.142578"/>
     <use xlink:href="#DejaVuSans-73" x="582.666016"/>
    </g>
   </g>
   <g id="text_17">
    <!-- v2.6 -->
    <g style="fill: #808080" transform="translate(198.292262 294.151352)scale(0.1 -0.1)">
     <use xlink:href="#DejaVuSans-76"/>
     <use xlink:href="#DejaVuSans-32" x="59.179688"/>
     <use xlink:href="#DejaVuSans-2e" x="122.802734"/>
     <use xlink:href="#DejaVuSans-36" x="154.589844"/>
    </g>
   </g>
   <g id="text_18">
    <!-- 9 Rosenbrock rotated -->
    <g transform="translate(102.050075 21.648)scale(0.2 -0.2)">
     <defs>
      <path id="DejaVuSans-52" d="M 2841 2188 
Q 3044 2119 3236 1894 
Q 3428 1669 3622 1275 
L 4263 0 
L 3584 0 
L 2988 1197 
Q 2756 1666 2539 1819 
Q 2322 1972 1947 1972 
L 1259 1972 
L 1259 0 
L 628 0 
L 628 4666 
L 2053 4666 
Q 2853 4666 3247 4331 
Q 3641 3997 3641 3322 
Q 3641 2881 3436 2590 
Q 3231 2300 2841 2188 
z
M 1259 4147 
L 1259 2491 
L 2053 2491 
Q 2509 2491 2742 2702 
Q 2975 2913 2975 3322 
Q 2975 3731 2742 3939 
Q 2509 4147 2053 4147 
L 1259 4147 
z
" transform="scale(0.015625)"/>
      <path id="DejaVuSans-6b" d="M 581 4863 
L 1159 4863 
L 1159 1991 
L 2875 3500 
L 3609 3500 
L 1753 1863 
L 3688 0 
L 2938 0 
L 1159 1709 
L 1159 0 
L 581 0 
L 581 4863 
z
" transform="scale(0.015625)"/>
     </defs>
     <use xlink:href="#DejaVuSans-39"/>
     <use xlink:href="#DejaVuSans-20" x="63.623047"/>
     <use xlink:href="#DejaVuSans-52" x="95.410156"/>
     <use xlink:href="#DejaVuSans-6f" x="160.392578"/>
     <use xlink:href="#DejaVuSans-73" x="221.574219"/>
     <use xlink:href="#DejaVuSans-65" x="273.673828"/>
     <use xlink:href="#DejaVuSans-6e" x="335.197266"/>
     <use xlink:href="#DejaVuSans-62" x="398.576172"/>
     <use xlink:href="#DejaVuSans-72" x="462.052734"/>
     <use xlink:href="#DejaVuSans-6f" x="500.916016"/>
     <use xlink:href="#DejaVuSans-63" x="562.097656"/>
     <use xlink:href="#DejaVuSans-6b" x="617.078125"/>
     <use xlink:href="#DejaVuSans-20" x="674.988281"/>
     <use xlink:href="#DejaVuSans-72" x="706.775391"/>
     <use xlink:href="#DejaVuSans-6f" x="745.638672"/>
     <use xlink:href="#DejaVuSans-74" x="806.820312"/>
     <use xlink:href="#DejaVuSans-61" x="846.029297"/>
     <use xlink:href="#DejaVuSans-74" x="907.308594"/>
     <use xlink:href="#DejaVuSans-65" x="946.517578"/>
     <use xlink:href="#DejaVuSans-64" x="1008.041016"/>
    </g>
   </g>
  </g>
 </g>
 <defs>
  <clipPath id="p56c10f3afc">
   <rect x="57.6" y="27.648" width="303.2064" height="271.296"/>
  </clipPath>
 </defs>
</svg>
