<?xml version="1.0" encoding="utf-8" standalone="no"?>
<!DOCTYPE svg PUBLIC "-//W3C//DTD SVG 1.1//EN"
  "http://www.w3.org/Graphics/SVG/1.1/DTD/svg11.dtd">
<svg xmlns:xlink="http://www.w3.org/1999/xlink" width="460.8pt" height="345.6pt" viewBox="0 0 460.8 345.6" xmlns="http://www.w3.org/2000/svg" version="1.1">
 <metadata>
  <rdf:RDF xmlns:dc="http://purl.org/dc/elements/1.1/" xmlns:cc="http://creativecommons.org/ns#" xmlns:rdf="http://www.w3.org/1999/02/22-rdf-syntax-ns#">
   <cc:Work>
    <dc:type rdf:resource="http://purl.org/dc/dcmitype/StillImage"/>
    <dc:date>2022-03-16T23:41:17.694087</dc:date>
    <dc:format>image/svg+xml</dc:format>
    <dc:creator>
     <cc:Agent>
      <dc:title>Matplotlib v3.5.1, https://matplotlib.org/</dc:title>
     </cc:Agent>
    </dc:creator>
   </cc:Work>
  </rdf:RDF>
 </metadata>
 <defs>
  <style type="text/css">*{stroke-linejoin: round; stroke-linecap: butt}</style>
 </defs>
 <g id="figure_1">
  <g id="patch_1">
   <path d="M 0 345.6 
L 460.8 345.6 
L 460.8 0 
L 0 0 
z
" style="fill: #ffffff"/>
  </g>
  <g id="axes_1">
   <g id="patch_2">
    <path d="M 57.6 298.944 
L 360.8064 298.944 
L 360.8064 27.648 
L 57.6 27.648 
z
" style="fill: #ffffff"/>
   </g>
   <g id="line2d_1">
    <path d="M 36.933397 298.944 
L 36.933397 288.304941 
L 67.209423 288.304941 
L 67.209423 282.985412 
L 85.184077 282.985412 
L 85.184077 277.665882 
L 109.360651 277.665882 
L 109.360651 272.346353 
L 122.990812 272.346353 
L 122.990812 267.026824 
L 148.775988 267.026824 
L 148.775988 261.707294 
L 172.951515 261.707294 
L 172.951515 256.387765 
L 193.260577 256.387765 
L 193.260577 251.068235 
L 199.979439 251.068235 
L 199.979439 245.748706 
L 210.915714 245.748706 
L 210.915714 240.429176 
L 222.727175 240.429176 
L 222.727175 235.109647 
L 230.107239 235.109647 
L 230.107239 229.790118 
L 237.326479 229.790118 
L 237.326479 224.470588 
L 241.665472 224.470588 
L 241.665472 219.151059 
L 254.002146 219.151059 
L 254.002146 213.831529 
L 258.247042 213.831529 
L 258.247042 208.512 
L 269.482511 208.512 
L 269.482511 203.192471 
L 277.47566 203.192471 
L 277.47566 197.872941 
L 277.475712 197.872941 
L 277.475712 192.553412 
L 277.47587 192.553412 
L 277.47587 112.760471 
L 277.476081 112.760471 
L 277.476081 107.440941 
L 277.476133 107.440941 
L 277.476133 102.121412 
L 277.476186 102.121412 
L 277.476186 80.843294 
L 277.476502 80.843294 
L 277.476502 27.648 
L 360.8064 27.648 
" style="fill: none; stroke: #f5deb3; stroke-width: 4; stroke-linecap: square"/>
   </g>
   <g id="line2d_2">
    <defs>
     <path id="mbecac974ec" d="M -0 7.778175 
L 7.778175 0 
L 0 -7.778175 
L -7.778175 -0 
z
" style="stroke: #f5deb3; stroke-width: 1.5; stroke-linejoin: miter"/>
    </defs>
    <g>
     <use xlink:href="#mbecac974ec" x="148.775988" y="261.707294" style="fill: #f5deb3; stroke: #f5deb3; stroke-width: 1.5; stroke-linejoin: miter"/>
     <use xlink:href="#mbecac974ec" x="277.475712" y="192.553412" style="fill: #f5deb3; stroke: #f5deb3; stroke-width: 1.5; stroke-linejoin: miter"/>
     <use xlink:href="#mbecac974ec" x="277.476186" y="102.121412" style="fill: #f5deb3; stroke: #f5deb3; stroke-width: 1.5; stroke-linejoin: miter"/>
     <use xlink:href="#mbecac974ec" x="277.476502" y="27.648" style="fill: #f5deb3; stroke: #f5deb3; stroke-width: 1.5; stroke-linejoin: miter"/>
     <use xlink:href="#mbecac974ec" x="277.476502" y="27.648" style="fill: #f5deb3; stroke: #f5deb3; stroke-width: 1.5; stroke-linejoin: miter"/>
     <use xlink:href="#mbecac974ec" x="360.8064" y="27.648" style="fill: #f5deb3; stroke: #f5deb3; stroke-width: 1.5; stroke-linejoin: miter"/>
    </g>
   </g>
   <g id="line2d_3">
    <path style="fill: none; stroke: #f5deb3; stroke-width: 4; stroke-linecap: square"/>
    <g/>
   </g>
   <g id="line2d_4">
    <path d="M 360.8064 27.648 
L 380.514816 33.07392 
" style="fill: none; stroke: #f5deb3; stroke-width: 4; stroke-linecap: square"/>
    <g>
     <use xlink:href="#mbecac974ec" x="360.8064" y="27.648" style="fill: #f5deb3; stroke: #f5deb3; stroke-width: 1.5; stroke-linejoin: miter"/>
     <use xlink:href="#mbecac974ec" x="380.514816" y="33.07392" style="fill: #f5deb3; stroke: #f5deb3; stroke-width: 1.5; stroke-linejoin: miter"/>
    </g>
   </g>
   <g id="matplotlib.axis_1">
    <g id="xtick_1">
     <g id="line2d_5">
      <path d="M 57.6 298.944 
L 57.6 27.648 
" clip-path="url(#p54a66d3c8c)" style="fill: none; stroke: #b0b0b0; stroke-width: 0.8; stroke-linecap: square"/>
     </g>
     <g id="line2d_6">
      <defs>
       <path id="m0f257f8e0a" d="M 0 0 
L 0 3.5 
" style="stroke: #000000; stroke-width: 0.8"/>
      </defs>
      <g>
       <use xlink:href="#m0f257f8e0a" x="57.6" y="298.944" style="stroke: #000000; stroke-width: 0.8"/>
      </g>
     </g>
     <g id="text_1">
      <!-- 0 -->
      <g transform="translate(52.191875 318.861344)scale(0.17 -0.17)">
       <defs>
        <path id="DejaVuSans-30" d="M 2034 4250 
Q 1547 4250 1301 3770 
Q 1056 3291 1056 2328 
Q 1056 1369 1301 889 
Q 1547 409 2034 409 
Q 2525 409 2770 889 
Q 3016 1369 3016 2328 
Q 3016 3291 2770 3770 
Q 2525 4250 2034 4250 
z
M 2034 4750 
Q 2819 4750 3233 4129 
Q 3647 3509 3647 2328 
Q 3647 1150 3233 529 
Q 2819 -91 2034 -91 
Q 1250 -91 836 529 
Q 422 1150 422 2328 
Q 422 3509 836 4129 
Q 1250 4750 2034 4750 
z
" transform="scale(0.015625)"/>
       </defs>
       <use xlink:href="#DejaVuSans-30"/>
      </g>
     </g>
    </g>
    <g id="xtick_2">
     <g id="line2d_7">
      <path d="M 144.2304 298.944 
L 144.2304 27.648 
" clip-path="url(#p54a66d3c8c)" style="fill: none; stroke: #b0b0b0; stroke-width: 0.8; stroke-linecap: square"/>
     </g>
     <g id="line2d_8">
      <g>
       <use xlink:href="#m0f257f8e0a" x="144.2304" y="298.944" style="stroke: #000000; stroke-width: 0.8"/>
      </g>
     </g>
     <g id="text_2">
      <!-- 2 -->
      <g transform="translate(138.822275 318.861344)scale(0.17 -0.17)">
       <defs>
        <path id="DejaVuSans-32" d="M 1228 531 
L 3431 531 
L 3431 0 
L 469 0 
L 469 531 
Q 828 903 1448 1529 
Q 2069 2156 2228 2338 
Q 2531 2678 2651 2914 
Q 2772 3150 2772 3378 
Q 2772 3750 2511 3984 
Q 2250 4219 1831 4219 
Q 1534 4219 1204 4116 
Q 875 4013 500 3803 
L 500 4441 
Q 881 4594 1212 4672 
Q 1544 4750 1819 4750 
Q 2544 4750 2975 4387 
Q 3406 4025 3406 3419 
Q 3406 3131 3298 2873 
Q 3191 2616 2906 2266 
Q 2828 2175 2409 1742 
Q 1991 1309 1228 531 
z
" transform="scale(0.015625)"/>
       </defs>
       <use xlink:href="#DejaVuSans-32"/>
      </g>
     </g>
    </g>
    <g id="xtick_3">
     <g id="line2d_9">
      <path d="M 230.8608 298.944 
L 230.8608 27.648 
" clip-path="url(#p54a66d3c8c)" style="fill: none; stroke: #b0b0b0; stroke-width: 0.8; stroke-linecap: square"/>
     </g>
     <g id="line2d_10">
      <g>
       <use xlink:href="#m0f257f8e0a" x="230.8608" y="298.944" style="stroke: #000000; stroke-width: 0.8"/>
      </g>
     </g>
     <g id="text_3">
      <!-- 4 -->
      <g transform="translate(225.452675 318.861344)scale(0.17 -0.17)">
       <defs>
        <path id="DejaVuSans-34" d="M 2419 4116 
L 825 1625 
L 2419 1625 
L 2419 4116 
z
M 2253 4666 
L 3047 4666 
L 3047 1625 
L 3713 1625 
L 3713 1100 
L 3047 1100 
L 3047 0 
L 2419 0 
L 2419 1100 
L 313 1100 
L 313 1709 
L 2253 4666 
z
" transform="scale(0.015625)"/>
       </defs>
       <use xlink:href="#DejaVuSans-34"/>
      </g>
     </g>
    </g>
    <g id="xtick_4">
     <g id="line2d_11">
      <path d="M 317.4912 298.944 
L 317.4912 27.648 
" clip-path="url(#p54a66d3c8c)" style="fill: none; stroke: #b0b0b0; stroke-width: 0.8; stroke-linecap: square"/>
     </g>
     <g id="line2d_12">
      <g>
       <use xlink:href="#m0f257f8e0a" x="317.4912" y="298.944" style="stroke: #000000; stroke-width: 0.8"/>
      </g>
     </g>
     <g id="text_4">
      <!-- 6 -->
      <g transform="translate(312.083075 318.861344)scale(0.17 -0.17)">
       <defs>
        <path id="DejaVuSans-36" d="M 2113 2584 
Q 1688 2584 1439 2293 
Q 1191 2003 1191 1497 
Q 1191 994 1439 701 
Q 1688 409 2113 409 
Q 2538 409 2786 701 
Q 3034 994 3034 1497 
Q 3034 2003 2786 2293 
Q 2538 2584 2113 2584 
z
M 3366 4563 
L 3366 3988 
Q 3128 4100 2886 4159 
Q 2644 4219 2406 4219 
Q 1781 4219 1451 3797 
Q 1122 3375 1075 2522 
Q 1259 2794 1537 2939 
Q 1816 3084 2150 3084 
Q 2853 3084 3261 2657 
Q 3669 2231 3669 1497 
Q 3669 778 3244 343 
Q 2819 -91 2113 -91 
Q 1303 -91 875 529 
Q 447 1150 447 2328 
Q 447 3434 972 4092 
Q 1497 4750 2381 4750 
Q 2619 4750 2861 4703 
Q 3103 4656 3366 4563 
z
" transform="scale(0.015625)"/>
       </defs>
       <use xlink:href="#DejaVuSans-36"/>
      </g>
     </g>
    </g>
    <g id="xtick_5">
     <g id="line2d_13">
      <path d="M 100.9152 298.944 
L 100.9152 27.648 
" clip-path="url(#p54a66d3c8c)" style="fill: none; stroke: #b0b0b0; stroke-width: 0.8; stroke-linecap: square"/>
     </g>
     <g id="line2d_14">
      <defs>
       <path id="m339fabbb44" d="M 0 0 
L 0 2 
" style="stroke: #000000; stroke-width: 0.6"/>
      </defs>
      <g>
       <use xlink:href="#m339fabbb44" x="100.9152" y="298.944" style="stroke: #000000; stroke-width: 0.6"/>
      </g>
     </g>
    </g>
    <g id="xtick_6">
     <g id="line2d_15">
      <path d="M 187.5456 298.944 
L 187.5456 27.648 
" clip-path="url(#p54a66d3c8c)" style="fill: none; stroke: #b0b0b0; stroke-width: 0.8; stroke-linecap: square"/>
     </g>
     <g id="line2d_16">
      <g>
       <use xlink:href="#m339fabbb44" x="187.5456" y="298.944" style="stroke: #000000; stroke-width: 0.6"/>
      </g>
     </g>
    </g>
    <g id="xtick_7">
     <g id="line2d_17">
      <path d="M 274.176 298.944 
L 274.176 27.648 
" clip-path="url(#p54a66d3c8c)" style="fill: none; stroke: #b0b0b0; stroke-width: 0.8; stroke-linecap: square"/>
     </g>
     <g id="line2d_18">
      <g>
       <use xlink:href="#m339fabbb44" x="274.176" y="298.944" style="stroke: #000000; stroke-width: 0.6"/>
      </g>
     </g>
    </g>
    <g id="xtick_8">
     <g id="line2d_19">
      <path d="M 360.8064 298.944 
L 360.8064 27.648 
" clip-path="url(#p54a66d3c8c)" style="fill: none; stroke: #b0b0b0; stroke-width: 0.8; stroke-linecap: square"/>
     </g>
     <g id="line2d_20">
      <g>
       <use xlink:href="#m339fabbb44" x="360.8064" y="298.944" style="stroke: #000000; stroke-width: 0.6"/>
      </g>
     </g>
    </g>
    <g id="text_5">
     <!-- log10(# f-evals / dimension) -->
     <g transform="translate(88.823278 339.314156)scale(0.17 -0.17)">
      <defs>
       <path id="DejaVuSans-6c" d="M 603 4863 
L 1178 4863 
L 1178 0 
L 603 0 
L 603 4863 
z
" transform="scale(0.015625)"/>
       <path id="DejaVuSans-6f" d="M 1959 3097 
Q 1497 3097 1228 2736 
Q 959 2375 959 1747 
Q 959 1119 1226 758 
Q 1494 397 1959 397 
Q 2419 397 2687 759 
Q 2956 1122 2956 1747 
Q 2956 2369 2687 2733 
Q 2419 3097 1959 3097 
z
M 1959 3584 
Q 2709 3584 3137 3096 
Q 3566 2609 3566 1747 
Q 3566 888 3137 398 
Q 2709 -91 1959 -91 
Q 1206 -91 779 398 
Q 353 888 353 1747 
Q 353 2609 779 3096 
Q 1206 3584 1959 3584 
z
" transform="scale(0.015625)"/>
       <path id="DejaVuSans-67" d="M 2906 1791 
Q 2906 2416 2648 2759 
Q 2391 3103 1925 3103 
Q 1463 3103 1205 2759 
Q 947 2416 947 1791 
Q 947 1169 1205 825 
Q 1463 481 1925 481 
Q 2391 481 2648 825 
Q 2906 1169 2906 1791 
z
M 3481 434 
Q 3481 -459 3084 -895 
Q 2688 -1331 1869 -1331 
Q 1566 -1331 1297 -1286 
Q 1028 -1241 775 -1147 
L 775 -588 
Q 1028 -725 1275 -790 
Q 1522 -856 1778 -856 
Q 2344 -856 2625 -561 
Q 2906 -266 2906 331 
L 2906 616 
Q 2728 306 2450 153 
Q 2172 0 1784 0 
Q 1141 0 747 490 
Q 353 981 353 1791 
Q 353 2603 747 3093 
Q 1141 3584 1784 3584 
Q 2172 3584 2450 3431 
Q 2728 3278 2906 2969 
L 2906 3500 
L 3481 3500 
L 3481 434 
z
" transform="scale(0.015625)"/>
       <path id="DejaVuSans-31" d="M 794 531 
L 1825 531 
L 1825 4091 
L 703 3866 
L 703 4441 
L 1819 4666 
L 2450 4666 
L 2450 531 
L 3481 531 
L 3481 0 
L 794 0 
L 794 531 
z
" transform="scale(0.015625)"/>
       <path id="DejaVuSans-28" d="M 1984 4856 
Q 1566 4138 1362 3434 
Q 1159 2731 1159 2009 
Q 1159 1288 1364 580 
Q 1569 -128 1984 -844 
L 1484 -844 
Q 1016 -109 783 600 
Q 550 1309 550 2009 
Q 550 2706 781 3412 
Q 1013 4119 1484 4856 
L 1984 4856 
z
" transform="scale(0.015625)"/>
       <path id="DejaVuSans-23" d="M 3272 2816 
L 2363 2816 
L 2100 1772 
L 3016 1772 
L 3272 2816 
z
M 2803 4594 
L 2478 3297 
L 3391 3297 
L 3719 4594 
L 4219 4594 
L 3897 3297 
L 4872 3297 
L 4872 2816 
L 3775 2816 
L 3519 1772 
L 4513 1772 
L 4513 1294 
L 3397 1294 
L 3072 0 
L 2572 0 
L 2894 1294 
L 1978 1294 
L 1656 0 
L 1153 0 
L 1478 1294 
L 494 1294 
L 494 1772 
L 1594 1772 
L 1856 2816 
L 850 2816 
L 850 3297 
L 1978 3297 
L 2297 4594 
L 2803 4594 
z
" transform="scale(0.015625)"/>
       <path id="DejaVuSans-20" transform="scale(0.015625)"/>
       <path id="DejaVuSans-66" d="M 2375 4863 
L 2375 4384 
L 1825 4384 
Q 1516 4384 1395 4259 
Q 1275 4134 1275 3809 
L 1275 3500 
L 2222 3500 
L 2222 3053 
L 1275 3053 
L 1275 0 
L 697 0 
L 697 3053 
L 147 3053 
L 147 3500 
L 697 3500 
L 697 3744 
Q 697 4328 969 4595 
Q 1241 4863 1831 4863 
L 2375 4863 
z
" transform="scale(0.015625)"/>
       <path id="DejaVuSans-2d" d="M 313 2009 
L 1997 2009 
L 1997 1497 
L 313 1497 
L 313 2009 
z
" transform="scale(0.015625)"/>
       <path id="DejaVuSans-65" d="M 3597 1894 
L 3597 1613 
L 953 1613 
Q 991 1019 1311 708 
Q 1631 397 2203 397 
Q 2534 397 2845 478 
Q 3156 559 3463 722 
L 3463 178 
Q 3153 47 2828 -22 
Q 2503 -91 2169 -91 
Q 1331 -91 842 396 
Q 353 884 353 1716 
Q 353 2575 817 3079 
Q 1281 3584 2069 3584 
Q 2775 3584 3186 3129 
Q 3597 2675 3597 1894 
z
M 3022 2063 
Q 3016 2534 2758 2815 
Q 2500 3097 2075 3097 
Q 1594 3097 1305 2825 
Q 1016 2553 972 2059 
L 3022 2063 
z
" transform="scale(0.015625)"/>
       <path id="DejaVuSans-76" d="M 191 3500 
L 800 3500 
L 1894 563 
L 2988 3500 
L 3597 3500 
L 2284 0 
L 1503 0 
L 191 3500 
z
" transform="scale(0.015625)"/>
       <path id="DejaVuSans-61" d="M 2194 1759 
Q 1497 1759 1228 1600 
Q 959 1441 959 1056 
Q 959 750 1161 570 
Q 1363 391 1709 391 
Q 2188 391 2477 730 
Q 2766 1069 2766 1631 
L 2766 1759 
L 2194 1759 
z
M 3341 1997 
L 3341 0 
L 2766 0 
L 2766 531 
Q 2569 213 2275 61 
Q 1981 -91 1556 -91 
Q 1019 -91 701 211 
Q 384 513 384 1019 
Q 384 1609 779 1909 
Q 1175 2209 1959 2209 
L 2766 2209 
L 2766 2266 
Q 2766 2663 2505 2880 
Q 2244 3097 1772 3097 
Q 1472 3097 1187 3025 
Q 903 2953 641 2809 
L 641 3341 
Q 956 3463 1253 3523 
Q 1550 3584 1831 3584 
Q 2591 3584 2966 3190 
Q 3341 2797 3341 1997 
z
" transform="scale(0.015625)"/>
       <path id="DejaVuSans-73" d="M 2834 3397 
L 2834 2853 
Q 2591 2978 2328 3040 
Q 2066 3103 1784 3103 
Q 1356 3103 1142 2972 
Q 928 2841 928 2578 
Q 928 2378 1081 2264 
Q 1234 2150 1697 2047 
L 1894 2003 
Q 2506 1872 2764 1633 
Q 3022 1394 3022 966 
Q 3022 478 2636 193 
Q 2250 -91 1575 -91 
Q 1294 -91 989 -36 
Q 684 19 347 128 
L 347 722 
Q 666 556 975 473 
Q 1284 391 1588 391 
Q 1994 391 2212 530 
Q 2431 669 2431 922 
Q 2431 1156 2273 1281 
Q 2116 1406 1581 1522 
L 1381 1569 
Q 847 1681 609 1914 
Q 372 2147 372 2553 
Q 372 3047 722 3315 
Q 1072 3584 1716 3584 
Q 2034 3584 2315 3537 
Q 2597 3491 2834 3397 
z
" transform="scale(0.015625)"/>
       <path id="DejaVuSans-2f" d="M 1625 4666 
L 2156 4666 
L 531 -594 
L 0 -594 
L 1625 4666 
z
" transform="scale(0.015625)"/>
       <path id="DejaVuSans-64" d="M 2906 2969 
L 2906 4863 
L 3481 4863 
L 3481 0 
L 2906 0 
L 2906 525 
Q 2725 213 2448 61 
Q 2172 -91 1784 -91 
Q 1150 -91 751 415 
Q 353 922 353 1747 
Q 353 2572 751 3078 
Q 1150 3584 1784 3584 
Q 2172 3584 2448 3432 
Q 2725 3281 2906 2969 
z
M 947 1747 
Q 947 1113 1208 752 
Q 1469 391 1925 391 
Q 2381 391 2643 752 
Q 2906 1113 2906 1747 
Q 2906 2381 2643 2742 
Q 2381 3103 1925 3103 
Q 1469 3103 1208 2742 
Q 947 2381 947 1747 
z
" transform="scale(0.015625)"/>
       <path id="DejaVuSans-69" d="M 603 3500 
L 1178 3500 
L 1178 0 
L 603 0 
L 603 3500 
z
M 603 4863 
L 1178 4863 
L 1178 4134 
L 603 4134 
L 603 4863 
z
" transform="scale(0.015625)"/>
       <path id="DejaVuSans-6d" d="M 3328 2828 
Q 3544 3216 3844 3400 
Q 4144 3584 4550 3584 
Q 5097 3584 5394 3201 
Q 5691 2819 5691 2113 
L 5691 0 
L 5113 0 
L 5113 2094 
Q 5113 2597 4934 2840 
Q 4756 3084 4391 3084 
Q 3944 3084 3684 2787 
Q 3425 2491 3425 1978 
L 3425 0 
L 2847 0 
L 2847 2094 
Q 2847 2600 2669 2842 
Q 2491 3084 2119 3084 
Q 1678 3084 1418 2786 
Q 1159 2488 1159 1978 
L 1159 0 
L 581 0 
L 581 3500 
L 1159 3500 
L 1159 2956 
Q 1356 3278 1631 3431 
Q 1906 3584 2284 3584 
Q 2666 3584 2933 3390 
Q 3200 3197 3328 2828 
z
" transform="scale(0.015625)"/>
       <path id="DejaVuSans-6e" d="M 3513 2113 
L 3513 0 
L 2938 0 
L 2938 2094 
Q 2938 2591 2744 2837 
Q 2550 3084 2163 3084 
Q 1697 3084 1428 2787 
Q 1159 2491 1159 1978 
L 1159 0 
L 581 0 
L 581 3500 
L 1159 3500 
L 1159 2956 
Q 1366 3272 1645 3428 
Q 1925 3584 2291 3584 
Q 2894 3584 3203 3211 
Q 3513 2838 3513 2113 
z
" transform="scale(0.015625)"/>
       <path id="DejaVuSans-29" d="M 513 4856 
L 1013 4856 
Q 1481 4119 1714 3412 
Q 1947 2706 1947 2009 
Q 1947 1309 1714 600 
Q 1481 -109 1013 -844 
L 513 -844 
Q 928 -128 1133 580 
Q 1338 1288 1338 2009 
Q 1338 2731 1133 3434 
Q 928 4138 513 4856 
z
" transform="scale(0.015625)"/>
      </defs>
      <use xlink:href="#DejaVuSans-6c"/>
      <use xlink:href="#DejaVuSans-6f" x="27.783203"/>
      <use xlink:href="#DejaVuSans-67" x="88.964844"/>
      <use xlink:href="#DejaVuSans-31" x="152.441406"/>
      <use xlink:href="#DejaVuSans-30" x="216.064453"/>
      <use xlink:href="#DejaVuSans-28" x="279.6875"/>
      <use xlink:href="#DejaVuSans-23" x="318.701172"/>
      <use xlink:href="#DejaVuSans-20" x="402.490234"/>
      <use xlink:href="#DejaVuSans-66" x="434.277344"/>
      <use xlink:href="#DejaVuSans-2d" x="463.982422"/>
      <use xlink:href="#DejaVuSans-65" x="500.066406"/>
      <use xlink:href="#DejaVuSans-76" x="561.589844"/>
      <use xlink:href="#DejaVuSans-61" x="620.769531"/>
      <use xlink:href="#DejaVuSans-6c" x="682.048828"/>
      <use xlink:href="#DejaVuSans-73" x="709.832031"/>
      <use xlink:href="#DejaVuSans-20" x="761.931641"/>
      <use xlink:href="#DejaVuSans-2f" x="793.71875"/>
      <use xlink:href="#DejaVuSans-20" x="827.410156"/>
      <use xlink:href="#DejaVuSans-64" x="859.197266"/>
      <use xlink:href="#DejaVuSans-69" x="922.673828"/>
      <use xlink:href="#DejaVuSans-6d" x="950.457031"/>
      <use xlink:href="#DejaVuSans-65" x="1047.869141"/>
      <use xlink:href="#DejaVuSans-6e" x="1109.392578"/>
      <use xlink:href="#DejaVuSans-73" x="1172.771484"/>
      <use xlink:href="#DejaVuSans-69" x="1224.871094"/>
      <use xlink:href="#DejaVuSans-6f" x="1252.654297"/>
      <use xlink:href="#DejaVuSans-6e" x="1313.835938"/>
      <use xlink:href="#DejaVuSans-29" x="1377.214844"/>
     </g>
    </g>
   </g>
   <g id="matplotlib.axis_2">
    <g id="ytick_1">
     <g id="line2d_21">
      <path d="M 57.6 298.944 
L 360.8064 298.944 
" clip-path="url(#p54a66d3c8c)" style="fill: none; stroke: #b0b0b0; stroke-width: 0.8; stroke-linecap: square"/>
     </g>
     <g id="line2d_22">
      <defs>
       <path id="m67babdc34c" d="M 0 0 
L -3.5 0 
" style="stroke: #000000; stroke-width: 0.8"/>
      </defs>
      <g>
       <use xlink:href="#m67babdc34c" x="57.6" y="298.944" style="stroke: #000000; stroke-width: 0.8"/>
      </g>
     </g>
     <g id="text_6">
      <!-- 0.0 -->
      <g transform="translate(25.155 305.02275)scale(0.16 -0.16)">
       <defs>
        <path id="DejaVuSans-2e" d="M 684 794 
L 1344 794 
L 1344 0 
L 684 0 
L 684 794 
z
" transform="scale(0.015625)"/>
       </defs>
       <use xlink:href="#DejaVuSans-30"/>
       <use xlink:href="#DejaVuSans-2e" x="63.623047"/>
       <use xlink:href="#DejaVuSans-30" x="95.410156"/>
      </g>
     </g>
    </g>
    <g id="ytick_2">
     <g id="line2d_23">
      <path d="M 57.6 244.6848 
L 360.8064 244.6848 
" clip-path="url(#p54a66d3c8c)" style="fill: none; stroke: #b0b0b0; stroke-width: 0.8; stroke-linecap: square"/>
     </g>
     <g id="line2d_24">
      <g>
       <use xlink:href="#m67babdc34c" x="57.6" y="244.6848" style="stroke: #000000; stroke-width: 0.8"/>
      </g>
     </g>
     <g id="text_7">
      <!-- 0.2 -->
      <g transform="translate(25.155 250.76355)scale(0.16 -0.16)">
       <use xlink:href="#DejaVuSans-30"/>
       <use xlink:href="#DejaVuSans-2e" x="63.623047"/>
       <use xlink:href="#DejaVuSans-32" x="95.410156"/>
      </g>
     </g>
    </g>
    <g id="ytick_3">
     <g id="line2d_25">
      <path d="M 57.6 190.4256 
L 360.8064 190.4256 
" clip-path="url(#p54a66d3c8c)" style="fill: none; stroke: #b0b0b0; stroke-width: 0.8; stroke-linecap: square"/>
     </g>
     <g id="line2d_26">
      <g>
       <use xlink:href="#m67babdc34c" x="57.6" y="190.4256" style="stroke: #000000; stroke-width: 0.8"/>
      </g>
     </g>
     <g id="text_8">
      <!-- 0.4 -->
      <g transform="translate(25.155 196.50435)scale(0.16 -0.16)">
       <use xlink:href="#DejaVuSans-30"/>
       <use xlink:href="#DejaVuSans-2e" x="63.623047"/>
       <use xlink:href="#DejaVuSans-34" x="95.410156"/>
      </g>
     </g>
    </g>
    <g id="ytick_4">
     <g id="line2d_27">
      <path d="M 57.6 136.1664 
L 360.8064 136.1664 
" clip-path="url(#p54a66d3c8c)" style="fill: none; stroke: #b0b0b0; stroke-width: 0.8; stroke-linecap: square"/>
     </g>
     <g id="line2d_28">
      <g>
       <use xlink:href="#m67babdc34c" x="57.6" y="136.1664" style="stroke: #000000; stroke-width: 0.8"/>
      </g>
     </g>
     <g id="text_9">
      <!-- 0.6 -->
      <g transform="translate(25.155 142.24515)scale(0.16 -0.16)">
       <use xlink:href="#DejaVuSans-30"/>
       <use xlink:href="#DejaVuSans-2e" x="63.623047"/>
       <use xlink:href="#DejaVuSans-36" x="95.410156"/>
      </g>
     </g>
    </g>
    <g id="ytick_5">
     <g id="line2d_29">
      <path d="M 57.6 81.9072 
L 360.8064 81.9072 
" clip-path="url(#p54a66d3c8c)" style="fill: none; stroke: #b0b0b0; stroke-width: 0.8; stroke-linecap: square"/>
     </g>
     <g id="line2d_30">
      <g>
       <use xlink:href="#m67babdc34c" x="57.6" y="81.9072" style="stroke: #000000; stroke-width: 0.8"/>
      </g>
     </g>
     <g id="text_10">
      <!-- 0.8 -->
      <g transform="translate(25.155 87.98595)scale(0.16 -0.16)">
       <defs>
        <path id="DejaVuSans-38" d="M 2034 2216 
Q 1584 2216 1326 1975 
Q 1069 1734 1069 1313 
Q 1069 891 1326 650 
Q 1584 409 2034 409 
Q 2484 409 2743 651 
Q 3003 894 3003 1313 
Q 3003 1734 2745 1975 
Q 2488 2216 2034 2216 
z
M 1403 2484 
Q 997 2584 770 2862 
Q 544 3141 544 3541 
Q 544 4100 942 4425 
Q 1341 4750 2034 4750 
Q 2731 4750 3128 4425 
Q 3525 4100 3525 3541 
Q 3525 3141 3298 2862 
Q 3072 2584 2669 2484 
Q 3125 2378 3379 2068 
Q 3634 1759 3634 1313 
Q 3634 634 3220 271 
Q 2806 -91 2034 -91 
Q 1263 -91 848 271 
Q 434 634 434 1313 
Q 434 1759 690 2068 
Q 947 2378 1403 2484 
z
M 1172 3481 
Q 1172 3119 1398 2916 
Q 1625 2713 2034 2713 
Q 2441 2713 2670 2916 
Q 2900 3119 2900 3481 
Q 2900 3844 2670 4047 
Q 2441 4250 2034 4250 
Q 1625 4250 1398 4047 
Q 1172 3844 1172 3481 
z
" transform="scale(0.015625)"/>
       </defs>
       <use xlink:href="#DejaVuSans-30"/>
       <use xlink:href="#DejaVuSans-2e" x="63.623047"/>
       <use xlink:href="#DejaVuSans-38" x="95.410156"/>
      </g>
     </g>
    </g>
    <g id="ytick_6">
     <g id="line2d_31">
      <path d="M 57.6 27.648 
L 360.8064 27.648 
" clip-path="url(#p54a66d3c8c)" style="fill: none; stroke: #b0b0b0; stroke-width: 0.8; stroke-linecap: square"/>
     </g>
     <g id="line2d_32">
      <g>
       <use xlink:href="#m67babdc34c" x="57.6" y="27.648" style="stroke: #000000; stroke-width: 0.8"/>
      </g>
     </g>
     <g id="text_11">
      <!-- 1.0 -->
      <g transform="translate(25.155 33.72675)scale(0.16 -0.16)">
       <use xlink:href="#DejaVuSans-31"/>
       <use xlink:href="#DejaVuSans-2e" x="63.623047"/>
       <use xlink:href="#DejaVuSans-30" x="95.410156"/>
      </g>
     </g>
    </g>
    <g id="text_12">
     <!-- Fraction of function,target pairs -->
     <g transform="translate(17.619531 297.681)rotate(-90)scale(0.17 -0.17)">
      <defs>
       <path id="DejaVuSans-46" d="M 628 4666 
L 3309 4666 
L 3309 4134 
L 1259 4134 
L 1259 2759 
L 3109 2759 
L 3109 2228 
L 1259 2228 
L 1259 0 
L 628 0 
L 628 4666 
z
" transform="scale(0.015625)"/>
       <path id="DejaVuSans-72" d="M 2631 2963 
Q 2534 3019 2420 3045 
Q 2306 3072 2169 3072 
Q 1681 3072 1420 2755 
Q 1159 2438 1159 1844 
L 1159 0 
L 581 0 
L 581 3500 
L 1159 3500 
L 1159 2956 
Q 1341 3275 1631 3429 
Q 1922 3584 2338 3584 
Q 2397 3584 2469 3576 
Q 2541 3569 2628 3553 
L 2631 2963 
z
" transform="scale(0.015625)"/>
       <path id="DejaVuSans-63" d="M 3122 3366 
L 3122 2828 
Q 2878 2963 2633 3030 
Q 2388 3097 2138 3097 
Q 1578 3097 1268 2742 
Q 959 2388 959 1747 
Q 959 1106 1268 751 
Q 1578 397 2138 397 
Q 2388 397 2633 464 
Q 2878 531 3122 666 
L 3122 134 
Q 2881 22 2623 -34 
Q 2366 -91 2075 -91 
Q 1284 -91 818 406 
Q 353 903 353 1747 
Q 353 2603 823 3093 
Q 1294 3584 2113 3584 
Q 2378 3584 2631 3529 
Q 2884 3475 3122 3366 
z
" transform="scale(0.015625)"/>
       <path id="DejaVuSans-74" d="M 1172 4494 
L 1172 3500 
L 2356 3500 
L 2356 3053 
L 1172 3053 
L 1172 1153 
Q 1172 725 1289 603 
Q 1406 481 1766 481 
L 2356 481 
L 2356 0 
L 1766 0 
Q 1100 0 847 248 
Q 594 497 594 1153 
L 594 3053 
L 172 3053 
L 172 3500 
L 594 3500 
L 594 4494 
L 1172 4494 
z
" transform="scale(0.015625)"/>
       <path id="DejaVuSans-75" d="M 544 1381 
L 544 3500 
L 1119 3500 
L 1119 1403 
Q 1119 906 1312 657 
Q 1506 409 1894 409 
Q 2359 409 2629 706 
Q 2900 1003 2900 1516 
L 2900 3500 
L 3475 3500 
L 3475 0 
L 2900 0 
L 2900 538 
Q 2691 219 2414 64 
Q 2138 -91 1772 -91 
Q 1169 -91 856 284 
Q 544 659 544 1381 
z
M 1991 3584 
L 1991 3584 
z
" transform="scale(0.015625)"/>
       <path id="DejaVuSans-2c" d="M 750 794 
L 1409 794 
L 1409 256 
L 897 -744 
L 494 -744 
L 750 256 
L 750 794 
z
" transform="scale(0.015625)"/>
       <path id="DejaVuSans-70" d="M 1159 525 
L 1159 -1331 
L 581 -1331 
L 581 3500 
L 1159 3500 
L 1159 2969 
Q 1341 3281 1617 3432 
Q 1894 3584 2278 3584 
Q 2916 3584 3314 3078 
Q 3713 2572 3713 1747 
Q 3713 922 3314 415 
Q 2916 -91 2278 -91 
Q 1894 -91 1617 61 
Q 1341 213 1159 525 
z
M 3116 1747 
Q 3116 2381 2855 2742 
Q 2594 3103 2138 3103 
Q 1681 3103 1420 2742 
Q 1159 2381 1159 1747 
Q 1159 1113 1420 752 
Q 1681 391 2138 391 
Q 2594 391 2855 752 
Q 3116 1113 3116 1747 
z
" transform="scale(0.015625)"/>
      </defs>
      <use xlink:href="#DejaVuSans-46"/>
      <use xlink:href="#DejaVuSans-72" x="50.269531"/>
      <use xlink:href="#DejaVuSans-61" x="91.382812"/>
      <use xlink:href="#DejaVuSans-63" x="152.662109"/>
      <use xlink:href="#DejaVuSans-74" x="207.642578"/>
      <use xlink:href="#DejaVuSans-69" x="246.851562"/>
      <use xlink:href="#DejaVuSans-6f" x="274.634766"/>
      <use xlink:href="#DejaVuSans-6e" x="335.816406"/>
      <use xlink:href="#DejaVuSans-20" x="399.195312"/>
      <use xlink:href="#DejaVuSans-6f" x="430.982422"/>
      <use xlink:href="#DejaVuSans-66" x="492.164062"/>
      <use xlink:href="#DejaVuSans-20" x="527.369141"/>
      <use xlink:href="#DejaVuSans-66" x="559.15625"/>
      <use xlink:href="#DejaVuSans-75" x="594.361328"/>
      <use xlink:href="#DejaVuSans-6e" x="657.740234"/>
      <use xlink:href="#DejaVuSans-63" x="721.119141"/>
      <use xlink:href="#DejaVuSans-74" x="776.099609"/>
      <use xlink:href="#DejaVuSans-69" x="815.308594"/>
      <use xlink:href="#DejaVuSans-6f" x="843.091797"/>
      <use xlink:href="#DejaVuSans-6e" x="904.273438"/>
      <use xlink:href="#DejaVuSans-2c" x="967.652344"/>
      <use xlink:href="#DejaVuSans-74" x="999.439453"/>
      <use xlink:href="#DejaVuSans-61" x="1038.648438"/>
      <use xlink:href="#DejaVuSans-72" x="1099.927734"/>
      <use xlink:href="#DejaVuSans-67" x="1139.291016"/>
      <use xlink:href="#DejaVuSans-65" x="1202.767578"/>
      <use xlink:href="#DejaVuSans-74" x="1264.291016"/>
      <use xlink:href="#DejaVuSans-20" x="1303.5"/>
      <use xlink:href="#DejaVuSans-70" x="1335.287109"/>
      <use xlink:href="#DejaVuSans-61" x="1398.763672"/>
      <use xlink:href="#DejaVuSans-69" x="1460.042969"/>
      <use xlink:href="#DejaVuSans-72" x="1487.826172"/>
      <use xlink:href="#DejaVuSans-73" x="1528.939453"/>
     </g>
    </g>
   </g>
   <g id="line2d_33">
    <defs>
     <path id="mbe2a60a1a9" d="M 0 1.5 
C 0.397805 1.5 0.77937 1.341951 1.06066 1.06066 
C 1.341951 0.77937 1.5 0.397805 1.5 0 
C 1.5 -0.397805 1.341951 -0.77937 1.06066 -1.06066 
C 0.77937 -1.341951 0.397805 -1.5 0 -1.5 
C -0.397805 -1.5 -0.77937 -1.341951 -1.06066 -1.06066 
C -1.341951 -0.77937 -1.5 -0.397805 -1.5 0 
C -1.5 0.397805 -1.341951 0.77937 -1.06066 1.06066 
C -0.77937 1.341951 -0.397805 1.5 0 1.5 
z
" style="stroke: #f5deb3"/>
    </defs>
    <g>
     <use xlink:href="#mbe2a60a1a9" x="277.476502" y="27.648" style="fill: #f5deb3; stroke: #f5deb3"/>
     <use xlink:href="#mbe2a60a1a9" x="277.476502" y="27.648" style="fill: #f5deb3; stroke: #f5deb3"/>
    </g>
   </g>
   <g id="line2d_34">
    <defs>
     <path id="m925147243f" d="M 0 1.5 
C 0.397805 1.5 0.77937 1.341951 1.06066 1.06066 
C 1.341951 0.77937 1.5 0.397805 1.5 0 
C 1.5 -0.397805 1.341951 -0.77937 1.06066 -1.06066 
C 0.77937 -1.341951 0.397805 -1.5 0 -1.5 
C -0.397805 -1.5 -0.77937 -1.341951 -1.06066 -1.06066 
C -1.341951 -0.77937 -1.5 -0.397805 -1.5 0 
C -1.5 0.397805 -1.341951 0.77937 -1.06066 1.06066 
C -0.77937 1.341951 -0.397805 1.5 0 1.5 
z
" style="stroke: #000080"/>
    </defs>
    <g>
     <use xlink:href="#m925147243f" x="294.289948" y="229.790118" style="fill: #000080; stroke: #000080"/>
     <use xlink:href="#m925147243f" x="294.289948" y="229.790118" style="fill: #000080; stroke: #000080"/>
    </g>
   </g>
   <g id="line2d_35">
    <path d="M 36.933397 298.944 
L 36.933397 288.304941 
L 49.972572 288.304941 
L 49.972572 285.964348 
L 57.6 285.964348 
L 57.6 284.900442 
L 63.011746 284.900442 
L 63.011746 284.049318 
L 67.209423 284.049318 
L 67.209423 282.559849 
L 70.639174 282.559849 
L 70.639174 282.347068 
L 73.538988 282.347068 
L 73.538988 281.495944 
L 76.050921 281.495944 
L 76.050921 281.283162 
L 78.266603 281.283162 
L 78.266603 280.432038 
L 82.04153 280.432038 
L 82.04153 280.006475 
L 86.578163 280.006475 
L 86.578163 279.793694 
L 89.090095 279.793694 
L 89.090095 279.580913 
L 91.305777 279.580913 
L 91.305777 279.155351 
L 93.287772 279.155351 
L 93.287772 278.729788 
L 94.205591 278.729788 
L 94.205591 278.091445 
L 95.080704 278.091445 
L 95.080704 277.878664 
L 96.717523 277.878664 
L 96.717523 277.665882 
L 98.933205 277.665882 
L 98.933205 277.24032 
L 99.617337 277.24032 
L 99.617337 277.027539 
L 100.277459 277.027539 
L 100.277459 276.601976 
L 101.532027 276.601976 
L 101.532027 276.176414 
L 102.12927 276.176414 
L 102.12927 275.963633 
L 102.708132 275.963633 
L 102.708132 275.750852 
L 103.815014 275.750852 
L 103.815014 275.538071 
L 104.344952 275.538071 
L 104.344952 275.112508 
L 106.326946 275.112508 
L 106.326946 274.686946 
L 107.244765 274.686946 
L 107.244765 274.474165 
L 108.119879 274.474165 
L 108.119879 274.261384 
L 112.989468 274.261384 
L 112.989468 273.197478 
L 114.265316 273.197478 
L 114.265316 272.771915 
L 115.168444 272.771915 
L 115.168444 272.559134 
L 115.747307 272.559134 
L 115.747307 272.346353 
L 116.030193 272.346353 
L 116.030193 272.133572 
L 116.854188 272.133572 
L 116.854188 271.920791 
L 117.384126 271.920791 
L 117.384126 271.708009 
L 120.726585 271.708009 
L 120.726585 271.495228 
L 122.399825 271.495228 
L 122.399825 271.282447 
L 122.795872 271.282447 
L 122.795872 270.856885 
L 124.119844 270.856885 
L 124.119844 270.644104 
L 124.3016 270.644104 
L 124.3016 270.218541 
L 124.481616 270.218541 
L 124.481616 270.00576 
L 126.028642 270.00576 
L 126.028642 269.792979 
L 126.355808 269.792979 
L 126.355808 269.580198 
L 126.517282 269.580198 
L 126.517282 269.367416 
L 127.911368 269.367416 
L 127.911368 269.154635 
L 128.060076 269.154635 
L 128.060076 268.941854 
L 128.643427 268.941854 
L 128.643427 268.729073 
L 129.209231 268.729073 
L 129.209231 268.516292 
L 130.4233 268.516292 
L 130.4233 267.877948 
L 130.811181 267.877948 
L 130.811181 267.452386 
L 131.563744 267.452386 
L 131.563744 267.026824 
L 132.287354 267.026824 
L 132.287354 266.814042 
L 132.754746 266.814042 
L 132.754746 266.601261 
L 134.725196 266.601261 
L 134.725196 266.38848 
L 135.136394 266.38848 
L 135.136394 266.175699 
L 136.029987 266.175699 
L 136.029987 265.750136 
L 136.508678 265.750136 
L 136.508678 265.324574 
L 136.97549 265.324574 
L 136.97549 265.111793 
L 139.475893 265.111793 
L 139.475893 264.899012 
L 140.188837 264.899012 
L 140.188837 264.686231 
L 140.800648 264.686231 
L 140.800648 264.260668 
L 142.45627 264.260668 
L 142.45627 264.047887 
L 143.462475 264.047887 
L 143.462475 263.835106 
L 145.736128 263.835106 
L 145.736128 263.622325 
L 148.124658 263.622325 
L 148.124658 263.409544 
L 148.478174 263.409544 
L 148.478174 263.196762 
L 150.604701 263.196762 
L 150.604701 262.7712 
L 152.352898 262.7712 
L 152.352898 262.558419 
L 153.344252 262.558419 
L 153.344252 262.345638 
L 153.802162 262.345638 
L 153.802162 262.132856 
L 156.038776 262.132856 
L 156.038776 261.920075 
L 157.238196 261.920075 
L 157.238196 261.707294 
L 160.329943 261.707294 
L 160.329943 261.494513 
L 163.237368 261.494513 
L 163.237368 261.281732 
L 164.150838 261.281732 
L 164.150838 261.068951 
L 164.93876 261.068951 
L 164.93876 260.856169 
L 169.735764 260.856169 
L 169.735764 260.643388 
L 171.360458 260.643388 
L 171.360458 260.430607 
L 171.669213 260.430607 
L 171.669213 260.217826 
L 171.800001 260.217826 
L 171.800001 260.005045 
L 172.328329 260.005045 
L 172.328329 259.792264 
L 178.144042 259.792264 
L 178.144042 259.579482 
L 179.480453 259.579482 
L 179.566899 259.15392 
L 182.192288 259.15392 
L 182.192288 258.941139 
L 182.571832 258.941139 
L 182.571832 258.728358 
L 182.799165 258.728358 
L 182.799165 258.515576 
L 186.914345 258.515576 
L 186.914345 258.090014 
L 187.210292 258.090014 
L 187.210292 257.877233 
L 187.991745 257.877233 
L 187.991745 257.664452 
L 188.835937 257.664452 
L 188.835937 257.451671 
L 189.25283 257.451671 
L 189.25283 257.238889 
L 189.677488 257.238889 
L 189.677488 257.026108 
L 190.256351 257.026108 
L 190.256351 256.813327 
L 190.717547 256.813327 
L 190.717547 256.600546 
L 191.131465 256.600546 
L 191.178047 255.962202 
L 192.140369 255.962202 
L 192.140369 255.749421 
L 193.163144 255.749421 
L 193.163144 255.53664 
L 193.654407 255.53664 
L 193.740315 255.111078 
L 193.861723 255.111078 
L 193.861723 254.898296 
L 195.101828 254.898296 
L 195.101828 254.685515 
L 198.155074 254.685515 
L 198.155074 254.472734 
L 200.294096 254.472734 
L 200.294096 254.047172 
L 200.430516 254.047172 
L 200.430516 253.834391 
L 201.231919 253.834391 
L 201.234948 253.408828 
L 201.898516 253.408828 
L 201.898516 253.196047 
L 202.035434 253.196047 
L 202.035434 252.983266 
L 202.584632 252.983266 
L 202.584632 252.770485 
L 203.951716 252.770485 
L 203.951716 252.557704 
L 205.179543 252.557704 
L 205.179543 252.344922 
L 206.488536 252.344922 
L 206.545718 251.91936 
L 206.657292 251.91936 
L 206.657292 251.706579 
L 206.873986 251.706579 
L 206.873986 251.493798 
L 207.190004 251.493798 
L 207.190004 251.281016 
L 207.472561 251.281016 
L 207.487772 250.855454 
L 207.658601 250.855454 
L 207.658601 250.642673 
L 208.12421 250.642673 
L 208.12421 250.429892 
L 208.299786 250.429892 
L 208.299786 250.217111 
L 209.06821 250.217111 
L 209.06821 250.004329 
L 209.632845 250.004329 
L 209.632845 249.791548 
L 210.003235 249.791548 
L 210.113133 249.365986 
L 210.405576 249.365986 
L 210.405576 249.153205 
L 210.67338 249.153205 
L 210.67338 248.940424 
L 212.934242 248.940424 
L 212.934242 248.727642 
L 213.221497 248.727642 
L 213.221497 248.514861 
L 213.562712 248.514861 
L 213.649014 248.089299 
L 214.148007 248.089299 
L 214.148007 247.876518 
L 214.508893 247.876518 
L 214.508893 247.663736 
L 215.827085 247.663736 
L 215.827085 247.450955 
L 216.369956 247.450955 
L 216.369956 247.238174 
L 217.493976 247.238174 
L 217.493976 247.025393 
L 218.069551 247.025393 
L 218.069551 246.812612 
L 218.322802 246.812612 
L 218.423884 246.174268 
L 218.699988 246.174268 
L 218.710757 245.535925 
L 219.49676 245.535925 
L 219.49676 245.323144 
L 219.674886 245.323144 
L 219.674886 245.110362 
L 220.484541 245.110362 
L 220.484541 244.897581 
L 221.677099 244.897581 
L 221.677099 244.6848 
L 221.934837 244.6848 
L 221.934837 244.472019 
L 222.286278 244.472019 
L 222.286278 244.259238 
L 222.469365 244.259238 
L 222.469365 244.046456 
L 222.664265 244.046456 
L 222.664265 243.833675 
L 223.928619 243.833675 
L 223.928619 243.620894 
L 224.521074 243.620894 
L 224.521074 243.408113 
L 226.718692 243.408113 
L 226.718692 243.195332 
L 227.850721 243.195332 
L 227.850721 242.982551 
L 228.106525 242.982551 
L 228.12684 242.556988 
L 230.171744 242.556988 
L 230.171744 242.344207 
L 232.080747 242.344207 
L 232.080747 242.131426 
L 233.520993 242.131426 
L 233.520993 241.918645 
L 235.612575 241.918645 
L 235.612575 241.705864 
L 238.708492 241.705864 
L 238.708492 241.493082 
L 238.819718 241.493082 
L 238.819718 241.280301 
L 240.751413 241.280301 
L 240.751413 241.06752 
L 241.063855 241.06752 
L 241.063855 240.854739 
L 241.262211 240.854739 
L 241.262211 240.641958 
L 241.544333 240.641958 
L 241.544333 240.429176 
L 242.584299 240.429176 
L 242.58867 240.003614 
L 243.584763 240.003614 
L 243.681437 239.578052 
L 244.610323 239.578052 
L 244.610323 239.365271 
L 245.600045 239.365271 
L 245.600045 239.152489 
L 249.735578 239.152489 
L 249.735578 238.939708 
L 250.740744 238.939708 
L 250.740744 238.726927 
L 251.648451 238.726927 
L 251.648451 238.514146 
L 252.174547 238.514146 
L 252.174547 238.301365 
L 252.86452 238.301365 
L 252.86452 238.088584 
L 253.995914 238.088584 
L 253.995914 237.875802 
L 254.432948 237.875802 
L 254.432948 237.663021 
L 257.01487 237.663021 
L 257.01487 237.45024 
L 257.364769 237.45024 
L 257.364769 237.237459 
L 258.786016 237.237459 
L 258.786016 237.024678 
L 259.170709 237.024678 
L 259.170709 236.811896 
L 259.644878 236.811896 
L 259.644878 236.599115 
L 261.427032 236.599115 
L 261.427032 236.386334 
L 261.918831 236.386334 
L 261.918831 236.173553 
L 262.228339 236.173553 
L 262.228339 235.960772 
L 263.982923 235.960772 
L 263.982923 235.747991 
L 265.349846 235.747991 
L 265.349846 235.535209 
L 266.757997 235.535209 
L 266.839489 235.109647 
L 267.022069 235.109647 
L 267.022069 234.896866 
L 267.60037 234.896866 
L 267.60037 234.684085 
L 268.022785 234.684085 
L 268.022785 234.471304 
L 268.260268 234.471304 
L 268.260268 234.258522 
L 269.319732 234.258522 
L 269.319732 234.045741 
L 270.463924 234.045741 
L 270.492546 233.620179 
L 270.727051 233.620179 
L 270.727051 233.407398 
L 273.273365 233.407398 
L 273.273365 233.194616 
L 274.201504 233.194616 
L 274.201504 232.981835 
L 275.69197 232.981835 
L 275.731325 232.556273 
L 275.82674 232.556273 
L 275.82674 232.343492 
L 278.745064 232.343492 
L 278.745064 232.130711 
L 279.388278 232.130711 
L 279.388278 231.917929 
L 279.562004 231.917929 
L 279.562004 231.705148 
L 280.589358 231.705148 
L 280.589358 231.492367 
L 280.852158 231.492367 
L 280.852158 231.279586 
L 281.322487 231.279586 
L 281.322487 231.066805 
L 281.500647 231.066805 
L 281.500647 230.854024 
L 286.124371 230.854024 
L 286.124371 230.641242 
L 286.243798 230.641242 
L 286.243798 230.428461 
L 287.278807 230.428461 
L 287.278807 230.21568 
L 290.250106 230.21568 
L 290.250106 230.002899 
L 294.289948 230.002899 
L 294.289948 229.790118 
L 360.8064 229.790118 
L 360.8064 229.790118 
" style="fill: none; stroke: #000080; stroke-width: 1.5; stroke-linecap: square"/>
   </g>
   <g id="line2d_36">
    <defs>
     <path id="m9dce0f46ec" d="M 0 6 
C 1.591219 6 3.117479 5.367802 4.242641 4.242641 
C 5.367802 3.117479 6 1.591219 6 0 
C 6 -1.591219 5.367802 -3.117479 4.242641 -4.242641 
C 3.117479 -5.367802 1.591219 -6 0 -6 
C -1.591219 -6 -3.117479 -5.367802 -4.242641 -4.242641 
C -5.367802 -3.117479 -6 -1.591219 -6 0 
C -6 1.591219 -5.367802 3.117479 -4.242641 4.242641 
C -3.117479 5.367802 -1.591219 6 0 6 
z
" style="stroke: #000080; stroke-width: 1.5"/>
    </defs>
    <g>
     <use xlink:href="#m9dce0f46ec" x="89.090095" y="279.580913" style="fill-opacity: 0; stroke: #000080; stroke-width: 1.5"/>
     <use xlink:href="#m9dce0f46ec" x="152.352898" y="262.558419" style="fill-opacity: 0; stroke: #000080; stroke-width: 1.5"/>
     <use xlink:href="#m9dce0f46ec" x="218.699988" y="245.748706" style="fill-opacity: 0; stroke: #000080; stroke-width: 1.5"/>
     <use xlink:href="#m9dce0f46ec" x="294.289948" y="230.002899" style="fill-opacity: 0; stroke: #000080; stroke-width: 1.5"/>
     <use xlink:href="#m9dce0f46ec" x="294.289948" y="229.790118" style="fill-opacity: 0; stroke: #000080; stroke-width: 1.5"/>
     <use xlink:href="#m9dce0f46ec" x="360.8064" y="229.790118" style="fill-opacity: 0; stroke: #000080; stroke-width: 1.5"/>
    </g>
   </g>
   <g id="line2d_37">
    <path style="fill: none; stroke: #000080; stroke-width: 1.5; stroke-linecap: square"/>
    <g/>
   </g>
   <g id="line2d_38">
    <path d="M 144.417581 263.835106 
" clip-path="url(#p54a66d3c8c)" style="fill: none; stroke: #000080; stroke-width: 1.5; stroke-linecap: square"/>
    <defs>
     <path id="m78fe8c6d0a" d="M -12 12 
L 12 -12 
M -12 -12 
L 12 12 
" style="stroke: #000080"/>
    </defs>
    <g clip-path="url(#p54a66d3c8c)">
     <use xlink:href="#m78fe8c6d0a" x="144.417581" y="263.835106" style="fill: #000080; stroke: #000080"/>
    </g>
   </g>
   <g id="line2d_39">
    <defs>
     <path id="m6dd553e64b" d="M 0 1.5 
C 0.397805 1.5 0.77937 1.341951 1.06066 1.06066 
C 1.341951 0.77937 1.5 0.397805 1.5 0 
C 1.5 -0.397805 1.341951 -0.77937 1.06066 -1.06066 
C 0.77937 -1.341951 0.397805 -1.5 0 -1.5 
C -0.397805 -1.5 -0.77937 -1.341951 -1.06066 -1.06066 
C -1.341951 -0.77937 -1.5 -0.397805 -1.5 0 
C -1.5 0.397805 -1.341951 0.77937 -1.06066 1.06066 
C -0.77937 1.341951 -0.397805 1.5 0 1.5 
z
" style="stroke: #ff00ff"/>
    </defs>
    <g>
     <use xlink:href="#m6dd553e64b" x="261.02513" y="229.790118" style="fill: #ff00ff; stroke: #ff00ff"/>
     <use xlink:href="#m6dd553e64b" x="261.02513" y="229.790118" style="fill: #ff00ff; stroke: #ff00ff"/>
    </g>
   </g>
   <g id="line2d_40">
    <path d="M 36.933397 298.944 
L 36.933397 288.304941 
L 49.972572 288.304941 
L 49.972572 286.389911 
L 57.6 286.389911 
L 57.6 284.47488 
L 63.011746 284.47488 
L 63.011746 283.836536 
L 67.209423 283.836536 
L 67.209423 283.410974 
L 70.639174 283.410974 
L 70.639174 282.772631 
L 76.050921 282.772631 
L 76.050921 282.559849 
L 80.248597 282.559849 
L 80.248597 282.134287 
L 86.578163 282.134287 
L 86.578163 281.708725 
L 87.876026 281.708725 
L 87.876026 281.495944 
L 89.090095 281.495944 
L 89.090095 281.283162 
L 91.305777 281.283162 
L 91.305777 280.432038 
L 94.205591 280.432038 
L 94.205591 279.793694 
L 95.080704 279.793694 
L 95.080704 278.942569 
L 95.916911 278.942569 
L 95.916911 278.517007 
L 96.717523 278.517007 
L 96.717523 278.304226 
L 98.223251 278.304226 
L 98.223251 278.091445 
L 99.617337 278.091445 
L 99.617337 277.027539 
L 100.277459 277.027539 
L 100.277459 276.814758 
L 103.269713 276.814758 
L 103.269713 276.601976 
L 105.36204 276.601976 
L 105.36204 276.389195 
L 108.119879 276.389195 
L 108.119879 275.963633 
L 109.756698 275.963633 
L 109.756698 275.538071 
L 110.144579 275.538071 
L 110.144579 275.325289 
L 111.97238 275.325289 
L 111.97238 274.686946 
L 112.656511 274.686946 
L 112.656511 274.474165 
L 113.316634 274.474165 
L 113.316634 274.048602 
L 113.954374 274.048602 
L 113.954374 273.835821 
L 114.571202 273.835821 
L 114.571202 273.197478 
L 115.168444 273.197478 
L 115.168444 272.984696 
L 115.747307 272.984696 
L 115.747307 272.771915 
L 116.854188 272.771915 
L 116.854188 272.559134 
L 117.384126 272.559134 
L 117.384126 272.133572 
L 118.889854 272.133572 
L 118.889854 271.920791 
L 120.726585 271.920791 
L 120.726585 271.708009 
L 121.581803 271.708009 
L 121.581803 271.282447 
L 123.183753 271.282447 
L 123.183753 270.644104 
L 124.659926 270.644104 
L 124.659926 270.431322 
L 125.011554 270.431322 
L 125.011554 270.218541 
L 125.35673 270.218541 
L 125.35673 269.580198 
L 125.526971 269.580198 
L 125.526971 269.367416 
L 125.862901 269.367416 
L 125.862901 269.154635 
L 126.028642 269.154635 
L 126.028642 268.941854 
L 126.355808 268.941854 
L 126.355808 268.516292 
L 126.836129 268.516292 
L 126.836129 268.303511 
L 127.304491 268.303511 
L 127.304491 268.090729 
L 128.499277 268.090729 
L 128.499277 267.877948 
L 128.928456 267.877948 
L 128.928456 267.452386 
L 129.069367 267.452386 
L 129.069367 267.239605 
L 130.682774 267.239605 
L 130.682774 267.026824 
L 131.065395 267.026824 
L 131.065395 266.814042 
L 131.686295 266.814042 
L 131.686295 266.601261 
L 132.287354 266.601261 
L 132.287354 266.38848 
L 132.984158 266.38848 
L 132.984158 266.175699 
L 133.210806 266.175699 
L 133.210806 265.962918 
L 133.874812 265.962918 
L 133.874812 265.750136 
L 136.126705 265.750136 
L 136.126705 265.537355 
L 136.318661 265.537355 
L 136.413909 265.111793 
L 139.475893 265.111793 
L 139.475893 264.899012 
L 140.26641 264.899012 
L 140.26641 264.686231 
L 140.420604 264.686231 
L 140.420604 264.473449 
L 140.725251 264.473449 
L 140.725251 264.260668 
L 141.754265 264.260668 
L 141.754265 263.835106 
L 142.038218 263.835106 
L 142.038218 263.622325 
L 146.750169 263.622325 
L 146.750169 263.409544 
L 147.660152 263.409544 
L 147.660152 263.196762 
L 149.262102 263.196762 
L 149.262102 262.983981 
L 152.312136 262.983981 
L 152.312136 262.7712 
L 154.212341 262.7712 
L 154.212341 262.558419 
L 154.900425 262.558419 
L 154.900425 262.345638 
L 156.138926 262.345638 
L 156.138926 261.920075 
L 156.953406 261.920075 
L 156.953406 261.707294 
L 157.300901 261.707294 
L 157.300901 261.494513 
L 159.119425 261.494513 
L 159.119425 261.281732 
L 161.163832 261.281732 
L 161.163832 261.068951 
L 162.657792 261.068951 
L 162.657792 260.856169 
L 163.666204 260.856169 
L 163.666204 260.643388 
L 169.508137 260.643388 
L 169.508137 260.430607 
L 171.345629 260.430607 
L 171.345629 260.217826 
L 173.515098 260.217826 
L 173.620559 259.579482 
L 173.725432 259.579482 
L 173.725432 259.366701 
L 180.574402 259.366701 
L 180.574402 259.15392 
L 184.642651 259.15392 
L 184.701095 258.302795 
L 184.904229 258.302795 
L 185.00498 257.877233 
L 185.402672 257.877233 
L 185.402672 257.664452 
L 186.106119 257.664452 
L 186.106119 257.451671 
L 186.731897 257.451671 
L 186.731897 257.238889 
L 187.017812 257.238889 
L 187.017812 257.026108 
L 187.248553 257.026108 
L 187.248553 256.813327 
L 187.38818 256.813327 
L 187.38818 256.600546 
L 191.373467 256.600546 
L 191.373467 256.387765 
L 193.986807 256.387765 
L 193.986807 256.174984 
L 195.059819 256.174984 
L 195.059819 255.962202 
L 195.537348 255.962202 
L 195.537348 255.749421 
L 197.173825 255.749421 
L 197.173825 255.323859 
L 198.293696 255.323859 
L 198.304317 254.685515 
L 198.845066 254.685515 
L 198.845066 254.472734 
L 199.023052 254.472734 
L 199.023052 254.259953 
L 199.202743 254.259953 
L 199.293629 253.834391 
L 199.31712 253.834391 
L 199.31712 253.621609 
L 199.557058 253.621609 
L 199.573607 253.196047 
L 199.78089 253.196047 
L 199.882054 252.557704 
L 201.137777 252.557704 
L 201.137777 252.344922 
L 201.48168 252.344922 
L 201.48168 252.132141 
L 202.465857 252.132141 
L 202.488539 251.706579 
L 202.917143 251.706579 
L 202.917143 251.493798 
L 203.074355 251.493798 
L 203.079848 251.068235 
L 204.24047 251.068235 
L 204.24047 250.855454 
L 204.537568 250.855454 
L 204.537568 250.642673 
L 206.036453 250.642673 
L 206.036453 250.429892 
L 206.894174 250.429892 
L 206.894174 250.217111 
L 207.079335 250.217111 
L 207.079335 250.004329 
L 207.31757 250.004329 
L 207.413771 249.153205 
L 207.463863 249.153205 
L 207.483427 248.727642 
L 207.999902 248.727642 
L 208.109504 248.089299 
L 208.120009 248.089299 
L 208.212203 247.663736 
L 208.808792 247.663736 
L 208.808792 247.450955 
L 209.038228 247.450955 
L 209.110104 247.025393 
L 209.483013 247.025393 
L 209.510344 245.748706 
L 209.735287 245.748706 
L 209.750701 245.323144 
L 210.377653 245.323144 
L 210.377653 245.110362 
L 212.98783 245.110362 
L 212.98783 244.897581 
L 213.150897 244.897581 
L 213.150897 244.6848 
L 213.461786 244.6848 
L 213.553273 244.046456 
L 214.514875 244.046456 
L 214.62073 243.408113 
L 214.644502 243.408113 
L 214.705283 242.769769 
L 214.782089 242.769769 
L 214.848303 242.344207 
L 215.147033 242.344207 
L 215.147033 242.131426 
L 217.311886 242.131426 
L 217.311886 241.918645 
L 217.562761 241.918645 
L 217.562761 241.705864 
L 218.428741 241.705864 
L 218.428741 241.493082 
L 218.632843 241.493082 
L 218.647251 241.06752 
L 218.973279 241.06752 
L 218.973279 240.854739 
L 219.409366 240.854739 
L 219.418585 240.429176 
L 220.717139 240.429176 
L 220.717139 240.216395 
L 220.963883 240.216395 
L 220.963883 240.003614 
L 221.204289 240.003614 
L 221.204289 239.790833 
L 221.980133 239.790833 
L 221.980133 239.578052 
L 222.247662 239.578052 
L 222.247662 239.365271 
L 222.689454 239.365271 
L 222.74842 238.939708 
L 223.013882 238.939708 
L 223.013882 238.726927 
L 225.400499 238.726927 
L 225.454069 238.301365 
L 225.900097 238.301365 
L 225.900097 238.088584 
L 226.039972 238.088584 
L 226.039972 237.875802 
L 227.213081 237.875802 
L 227.213081 237.663021 
L 227.653213 237.663021 
L 227.653213 237.45024 
L 227.946872 237.45024 
L 228.00535 236.599115 
L 228.063647 236.599115 
L 228.064374 236.173553 
L 228.20427 236.173553 
L 228.282821 235.747991 
L 230.032031 235.747991 
L 230.032031 235.535209 
L 230.469875 235.535209 
L 230.469875 235.322428 
L 232.120081 235.322428 
L 232.120081 235.109647 
L 232.933249 235.109647 
L 232.933249 234.896866 
L 234.043868 234.896866 
L 234.043868 234.684085 
L 234.348465 234.684085 
L 234.418141 234.258522 
L 234.733124 234.258522 
L 234.733124 234.045741 
L 235.602344 234.045741 
L 235.602344 233.83296 
L 236.098679 233.83296 
L 236.149872 233.407398 
L 237.321142 233.407398 
L 237.321142 233.194616 
L 237.556735 233.194616 
L 237.556735 232.981835 
L 238.479447 232.981835 
L 238.479447 232.769054 
L 239.071853 232.769054 
L 239.071853 232.556273 
L 239.980445 232.556273 
L 239.980445 232.343492 
L 242.191535 232.343492 
L 242.191535 232.130711 
L 242.355277 232.130711 
L 242.355277 231.917929 
L 242.512544 231.917929 
L 242.512544 231.705148 
L 244.545907 231.705148 
L 244.551965 231.279586 
L 245.332048 231.279586 
L 245.332048 231.066805 
L 246.624565 231.066805 
L 246.624565 230.854024 
L 246.774779 230.854024 
L 246.774779 230.641242 
L 248.416733 230.641242 
L 248.416733 230.428461 
L 251.354168 230.428461 
L 251.354168 230.21568 
L 257.995898 230.21568 
L 257.995898 230.002899 
L 261.02513 230.002899 
L 261.02513 229.790118 
L 360.8064 229.790118 
L 360.8064 229.790118 
" style="fill: none; stroke: #ff00ff; stroke-width: 1.5; stroke-linecap: square"/>
   </g>
   <g id="line2d_41">
    <defs>
     <path id="m9fdc5260a5" d="M -0 8.485281 
L 5.091169 0 
L 0 -8.485281 
L -5.091169 -0 
z
" style="stroke: #ff00ff; stroke-width: 1.5; stroke-linejoin: miter"/>
    </defs>
    <g>
     <use xlink:href="#m9fdc5260a5" x="89.090095" y="281.495944" style="fill-opacity: 0; stroke: #ff00ff; stroke-width: 1.5; stroke-linejoin: miter"/>
     <use xlink:href="#m9fdc5260a5" x="171.345629" y="260.430607" style="fill-opacity: 0; stroke: #ff00ff; stroke-width: 1.5; stroke-linejoin: miter"/>
     <use xlink:href="#m9fdc5260a5" x="237.556735" y="232.981835" style="fill-opacity: 0; stroke: #ff00ff; stroke-width: 1.5; stroke-linejoin: miter"/>
     <use xlink:href="#m9fdc5260a5" x="261.02513" y="230.002899" style="fill-opacity: 0; stroke: #ff00ff; stroke-width: 1.5; stroke-linejoin: miter"/>
     <use xlink:href="#m9fdc5260a5" x="261.02513" y="229.790118" style="fill-opacity: 0; stroke: #ff00ff; stroke-width: 1.5; stroke-linejoin: miter"/>
     <use xlink:href="#m9fdc5260a5" x="360.8064" y="229.790118" style="fill-opacity: 0; stroke: #ff00ff; stroke-width: 1.5; stroke-linejoin: miter"/>
    </g>
   </g>
   <g id="line2d_42">
    <path style="fill: none; stroke: #ff00ff; stroke-width: 1.5; stroke-linecap: square"/>
    <g/>
   </g>
   <g id="line2d_43">
    <path d="M 144.355394 263.622325 
" clip-path="url(#p54a66d3c8c)" style="fill: none; stroke: #ff00ff; stroke-width: 1.5; stroke-linecap: square"/>
    <defs>
     <path id="mc451d26632" d="M -12 12 
L 12 -12 
M -12 -12 
L 12 12 
" style="stroke: #ff00ff"/>
    </defs>
    <g clip-path="url(#p54a66d3c8c)">
     <use xlink:href="#mc451d26632" x="144.355394" y="263.622325" style="fill: #ff00ff; stroke: #ff00ff"/>
    </g>
   </g>
   <g id="line2d_44">
    <path d="M 360.8064 229.790118 
L 380.514816 293.51808 
" style="fill: none; stroke: #000080; stroke-width: 1.5; stroke-linecap: square"/>
    <g>
     <use xlink:href="#m9dce0f46ec" x="360.8064" y="229.790118" style="fill-opacity: 0; stroke: #000080; stroke-width: 1.5"/>
     <use xlink:href="#m9dce0f46ec" x="380.514816" y="293.51808" style="fill-opacity: 0; stroke: #000080; stroke-width: 1.5"/>
    </g>
   </g>
   <g id="line2d_45">
    <path d="M 360.8064 229.790118 
L 380.514816 163.296 
" style="fill: none; stroke: #ff00ff; stroke-width: 1.5; stroke-linecap: square"/>
    <g>
     <use xlink:href="#m9fdc5260a5" x="360.8064" y="229.790118" style="fill-opacity: 0; stroke: #ff00ff; stroke-width: 1.5; stroke-linejoin: miter"/>
     <use xlink:href="#m9fdc5260a5" x="380.514816" y="163.296" style="fill-opacity: 0; stroke: #ff00ff; stroke-width: 1.5; stroke-linejoin: miter"/>
    </g>
   </g>
   <g id="line2d_46">
    <path d="M 360.8064 298.944 
L 360.8064 27.648 
" style="fill: none; stroke: #000000; stroke-width: 1.5; stroke-linecap: square"/>
   </g>
   <g id="patch_3">
    <path d="M 57.6 298.944 
L 360.8064 298.944 
" style="fill: none; stroke: #000000; stroke-width: 0.8; stroke-linejoin: miter; stroke-linecap: square"/>
   </g>
   <g id="patch_4">
    <path d="M 57.6 27.648 
L 360.8064 27.648 
" style="fill: none; stroke: #000000; stroke-width: 0.8; stroke-linejoin: miter; stroke-linecap: square"/>
   </g>
   <g id="text_13">
    <!-- ex -->
    <g transform="translate(386.578944 297.381205)scale(0.14 -0.14)">
     <defs>
      <path id="DejaVuSans-78" d="M 3513 3500 
L 2247 1797 
L 3578 0 
L 2900 0 
L 1881 1375 
L 863 0 
L 184 0 
L 1544 1831 
L 300 3500 
L 978 3500 
L 1906 2253 
L 2834 3500 
L 3513 3500 
z
" transform="scale(0.015625)"/>
     </defs>
     <use xlink:href="#DejaVuSans-65"/>
     <use xlink:href="#DejaVuSans-78" x="59.773438"/>
    </g>
   </g>
   <g id="text_14">
    <!-- ex -->
    <g transform="translate(386.578944 167.159125)scale(0.14 -0.14)">
     <use xlink:href="#DejaVuSans-65"/>
     <use xlink:href="#DejaVuSans-78" x="59.773438"/>
    </g>
   </g>
   <g id="text_15">
    <!-- best 2009 -->
    <g transform="translate(386.578944 36.937045)scale(0.14 -0.14)">
     <defs>
      <path id="DejaVuSans-62" d="M 3116 1747 
Q 3116 2381 2855 2742 
Q 2594 3103 2138 3103 
Q 1681 3103 1420 2742 
Q 1159 2381 1159 1747 
Q 1159 1113 1420 752 
Q 1681 391 2138 391 
Q 2594 391 2855 752 
Q 3116 1113 3116 1747 
z
M 1159 2969 
Q 1341 3281 1617 3432 
Q 1894 3584 2278 3584 
Q 2916 3584 3314 3078 
Q 3713 2572 3713 1747 
Q 3713 922 3314 415 
Q 2916 -91 2278 -91 
Q 1894 -91 1617 61 
Q 1341 213 1159 525 
L 1159 0 
L 581 0 
L 581 4863 
L 1159 4863 
L 1159 2969 
z
" transform="scale(0.015625)"/>
      <path id="DejaVuSans-39" d="M 703 97 
L 703 672 
Q 941 559 1184 500 
Q 1428 441 1663 441 
Q 2288 441 2617 861 
Q 2947 1281 2994 2138 
Q 2813 1869 2534 1725 
Q 2256 1581 1919 1581 
Q 1219 1581 811 2004 
Q 403 2428 403 3163 
Q 403 3881 828 4315 
Q 1253 4750 1959 4750 
Q 2769 4750 3195 4129 
Q 3622 3509 3622 2328 
Q 3622 1225 3098 567 
Q 2575 -91 1691 -91 
Q 1453 -91 1209 -44 
Q 966 3 703 97 
z
M 1959 2075 
Q 2384 2075 2632 2365 
Q 2881 2656 2881 3163 
Q 2881 3666 2632 3958 
Q 2384 4250 1959 4250 
Q 1534 4250 1286 3958 
Q 1038 3666 1038 3163 
Q 1038 2656 1286 2365 
Q 1534 2075 1959 2075 
z
" transform="scale(0.015625)"/>
     </defs>
     <use xlink:href="#DejaVuSans-62"/>
     <use xlink:href="#DejaVuSans-65" x="63.476562"/>
     <use xlink:href="#DejaVuSans-73" x="125"/>
     <use xlink:href="#DejaVuSans-74" x="177.099609"/>
     <use xlink:href="#DejaVuSans-20" x="216.308594"/>
     <use xlink:href="#DejaVuSans-32" x="248.095703"/>
     <use xlink:href="#DejaVuSans-30" x="311.71875"/>
     <use xlink:href="#DejaVuSans-30" x="375.341797"/>
     <use xlink:href="#DejaVuSans-39" x="438.964844"/>
    </g>
   </g>
   <g id="text_16">
    <!-- bbob f24, 3-D -->
    <g transform="translate(60.632064 38.111366)scale(0.102 -0.102)">
     <defs>
      <path id="DejaVuSans-33" d="M 2597 2516 
Q 3050 2419 3304 2112 
Q 3559 1806 3559 1356 
Q 3559 666 3084 287 
Q 2609 -91 1734 -91 
Q 1441 -91 1130 -33 
Q 819 25 488 141 
L 488 750 
Q 750 597 1062 519 
Q 1375 441 1716 441 
Q 2309 441 2620 675 
Q 2931 909 2931 1356 
Q 2931 1769 2642 2001 
Q 2353 2234 1838 2234 
L 1294 2234 
L 1294 2753 
L 1863 2753 
Q 2328 2753 2575 2939 
Q 2822 3125 2822 3475 
Q 2822 3834 2567 4026 
Q 2313 4219 1838 4219 
Q 1578 4219 1281 4162 
Q 984 4106 628 3988 
L 628 4550 
Q 988 4650 1302 4700 
Q 1616 4750 1894 4750 
Q 2613 4750 3031 4423 
Q 3450 4097 3450 3541 
Q 3450 3153 3228 2886 
Q 3006 2619 2597 2516 
z
" transform="scale(0.015625)"/>
      <path id="DejaVuSans-44" d="M 1259 4147 
L 1259 519 
L 2022 519 
Q 2988 519 3436 956 
Q 3884 1394 3884 2338 
Q 3884 3275 3436 3711 
Q 2988 4147 2022 4147 
L 1259 4147 
z
M 628 4666 
L 1925 4666 
Q 3281 4666 3915 4102 
Q 4550 3538 4550 2338 
Q 4550 1131 3912 565 
Q 3275 0 1925 0 
L 628 0 
L 628 4666 
z
" transform="scale(0.015625)"/>
     </defs>
     <use xlink:href="#DejaVuSans-62"/>
     <use xlink:href="#DejaVuSans-62" x="63.476562"/>
     <use xlink:href="#DejaVuSans-6f" x="126.953125"/>
     <use xlink:href="#DejaVuSans-62" x="188.134766"/>
     <use xlink:href="#DejaVuSans-20" x="251.611328"/>
     <use xlink:href="#DejaVuSans-66" x="283.398438"/>
     <use xlink:href="#DejaVuSans-32" x="318.603516"/>
     <use xlink:href="#DejaVuSans-34" x="382.226562"/>
     <use xlink:href="#DejaVuSans-2c" x="445.849609"/>
     <use xlink:href="#DejaVuSans-20" x="477.636719"/>
     <use xlink:href="#DejaVuSans-33" x="509.423828"/>
     <use xlink:href="#DejaVuSans-2d" x="573.046875"/>
     <use xlink:href="#DejaVuSans-44" x="609.130859"/>
    </g>
    <!-- 51 targets: 100..1e-08 -->
    <g transform="translate(60.632064 49.533135)scale(0.102 -0.102)">
     <defs>
      <path id="DejaVuSans-35" d="M 691 4666 
L 3169 4666 
L 3169 4134 
L 1269 4134 
L 1269 2991 
Q 1406 3038 1543 3061 
Q 1681 3084 1819 3084 
Q 2600 3084 3056 2656 
Q 3513 2228 3513 1497 
Q 3513 744 3044 326 
Q 2575 -91 1722 -91 
Q 1428 -91 1123 -41 
Q 819 9 494 109 
L 494 744 
Q 775 591 1075 516 
Q 1375 441 1709 441 
Q 2250 441 2565 725 
Q 2881 1009 2881 1497 
Q 2881 1984 2565 2268 
Q 2250 2553 1709 2553 
Q 1456 2553 1204 2497 
Q 953 2441 691 2322 
L 691 4666 
z
" transform="scale(0.015625)"/>
      <path id="DejaVuSans-3a" d="M 750 794 
L 1409 794 
L 1409 0 
L 750 0 
L 750 794 
z
M 750 3309 
L 1409 3309 
L 1409 2516 
L 750 2516 
L 750 3309 
z
" transform="scale(0.015625)"/>
     </defs>
     <use xlink:href="#DejaVuSans-35"/>
     <use xlink:href="#DejaVuSans-31" x="63.623047"/>
     <use xlink:href="#DejaVuSans-20" x="127.246094"/>
     <use xlink:href="#DejaVuSans-74" x="159.033203"/>
     <use xlink:href="#DejaVuSans-61" x="198.242188"/>
     <use xlink:href="#DejaVuSans-72" x="259.521484"/>
     <use xlink:href="#DejaVuSans-67" x="298.884766"/>
     <use xlink:href="#DejaVuSans-65" x="362.361328"/>
     <use xlink:href="#DejaVuSans-74" x="423.884766"/>
     <use xlink:href="#DejaVuSans-73" x="463.09375"/>
     <use xlink:href="#DejaVuSans-3a" x="515.193359"/>
     <use xlink:href="#DejaVuSans-20" x="548.884766"/>
     <use xlink:href="#DejaVuSans-31" x="580.671875"/>
     <use xlink:href="#DejaVuSans-30" x="644.294922"/>
     <use xlink:href="#DejaVuSans-30" x="707.917969"/>
     <use xlink:href="#DejaVuSans-2e" x="771.541016"/>
     <use xlink:href="#DejaVuSans-2e" x="803.328125"/>
     <use xlink:href="#DejaVuSans-31" x="835.115234"/>
     <use xlink:href="#DejaVuSans-65" x="898.738281"/>
     <use xlink:href="#DejaVuSans-2d" x="960.261719"/>
     <use xlink:href="#DejaVuSans-30" x="996.345703"/>
     <use xlink:href="#DejaVuSans-38" x="1059.96875"/>
    </g>
    <!-- 25 instances -->
    <g transform="translate(60.632064 60.954904)scale(0.102 -0.102)">
     <use xlink:href="#DejaVuSans-32"/>
     <use xlink:href="#DejaVuSans-35" x="63.623047"/>
     <use xlink:href="#DejaVuSans-20" x="127.246094"/>
     <use xlink:href="#DejaVuSans-69" x="159.033203"/>
     <use xlink:href="#DejaVuSans-6e" x="186.816406"/>
     <use xlink:href="#DejaVuSans-73" x="250.195312"/>
     <use xlink:href="#DejaVuSans-74" x="302.294922"/>
     <use xlink:href="#DejaVuSans-61" x="341.503906"/>
     <use xlink:href="#DejaVuSans-6e" x="402.783203"/>
     <use xlink:href="#DejaVuSans-63" x="466.162109"/>
     <use xlink:href="#DejaVuSans-65" x="521.142578"/>
     <use xlink:href="#DejaVuSans-73" x="582.666016"/>
    </g>
   </g>
   <g id="text_17">
    <!-- v2.6 -->
    <g style="fill: #808080" transform="translate(198.292262 294.151352)scale(0.1 -0.1)">
     <use xlink:href="#DejaVuSans-76"/>
     <use xlink:href="#DejaVuSans-32" x="59.179688"/>
     <use xlink:href="#DejaVuSans-2e" x="122.802734"/>
     <use xlink:href="#DejaVuSans-36" x="154.589844"/>
    </g>
   </g>
   <g id="text_18">
    <!-- 24 Lunacek bi-Rastrigin -->
    <g transform="translate(91.411012 21.648)scale(0.2 -0.2)">
     <defs>
      <path id="DejaVuSans-4c" d="M 628 4666 
L 1259 4666 
L 1259 531 
L 3531 531 
L 3531 0 
L 628 0 
L 628 4666 
z
" transform="scale(0.015625)"/>
      <path id="DejaVuSans-6b" d="M 581 4863 
L 1159 4863 
L 1159 1991 
L 2875 3500 
L 3609 3500 
L 1753 1863 
L 3688 0 
L 2938 0 
L 1159 1709 
L 1159 0 
L 581 0 
L 581 4863 
z
" transform="scale(0.015625)"/>
      <path id="DejaVuSans-52" d="M 2841 2188 
Q 3044 2119 3236 1894 
Q 3428 1669 3622 1275 
L 4263 0 
L 3584 0 
L 2988 1197 
Q 2756 1666 2539 1819 
Q 2322 1972 1947 1972 
L 1259 1972 
L 1259 0 
L 628 0 
L 628 4666 
L 2053 4666 
Q 2853 4666 3247 4331 
Q 3641 3997 3641 3322 
Q 3641 2881 3436 2590 
Q 3231 2300 2841 2188 
z
M 1259 4147 
L 1259 2491 
L 2053 2491 
Q 2509 2491 2742 2702 
Q 2975 2913 2975 3322 
Q 2975 3731 2742 3939 
Q 2509 4147 2053 4147 
L 1259 4147 
z
" transform="scale(0.015625)"/>
     </defs>
     <use xlink:href="#DejaVuSans-32"/>
     <use xlink:href="#DejaVuSans-34" x="63.623047"/>
     <use xlink:href="#DejaVuSans-20" x="127.246094"/>
     <use xlink:href="#DejaVuSans-4c" x="159.033203"/>
     <use xlink:href="#DejaVuSans-75" x="212.996094"/>
     <use xlink:href="#DejaVuSans-6e" x="276.375"/>
     <use xlink:href="#DejaVuSans-61" x="339.753906"/>
     <use xlink:href="#DejaVuSans-63" x="401.033203"/>
     <use xlink:href="#DejaVuSans-65" x="456.013672"/>
     <use xlink:href="#DejaVuSans-6b" x="517.537109"/>
     <use xlink:href="#DejaVuSans-20" x="575.447266"/>
     <use xlink:href="#DejaVuSans-62" x="607.234375"/>
     <use xlink:href="#DejaVuSans-69" x="670.710938"/>
     <use xlink:href="#DejaVuSans-2d" x="698.494141"/>
     <use xlink:href="#DejaVuSans-52" x="734.578125"/>
     <use xlink:href="#DejaVuSans-61" x="801.810547"/>
     <use xlink:href="#DejaVuSans-73" x="863.089844"/>
     <use xlink:href="#DejaVuSans-74" x="915.189453"/>
     <use xlink:href="#DejaVuSans-72" x="954.398438"/>
     <use xlink:href="#DejaVuSans-69" x="995.511719"/>
     <use xlink:href="#DejaVuSans-67" x="1023.294922"/>
     <use xlink:href="#DejaVuSans-69" x="1086.771484"/>
     <use xlink:href="#DejaVuSans-6e" x="1114.554688"/>
    </g>
   </g>
  </g>
 </g>
 <defs>
  <clipPath id="p54a66d3c8c">
   <rect x="57.6" y="27.648" width="303.2064" height="271.296"/>
  </clipPath>
 </defs>
</svg>
