<?xml version="1.0" encoding="utf-8" standalone="no"?>
<!DOCTYPE svg PUBLIC "-//W3C//DTD SVG 1.1//EN"
  "http://www.w3.org/Graphics/SVG/1.1/DTD/svg11.dtd">
<svg xmlns:xlink="http://www.w3.org/1999/xlink" width="460.8pt" height="345.6pt" viewBox="0 0 460.8 345.6" xmlns="http://www.w3.org/2000/svg" version="1.1">
 <metadata>
  <rdf:RDF xmlns:dc="http://purl.org/dc/elements/1.1/" xmlns:cc="http://creativecommons.org/ns#" xmlns:rdf="http://www.w3.org/1999/02/22-rdf-syntax-ns#">
   <cc:Work>
    <dc:type rdf:resource="http://purl.org/dc/dcmitype/StillImage"/>
    <dc:date>2022-03-16T23:41:05.735617</dc:date>
    <dc:format>image/svg+xml</dc:format>
    <dc:creator>
     <cc:Agent>
      <dc:title>Matplotlib v3.5.1, https://matplotlib.org/</dc:title>
     </cc:Agent>
    </dc:creator>
   </cc:Work>
  </rdf:RDF>
 </metadata>
 <defs>
  <style type="text/css">*{stroke-linejoin: round; stroke-linecap: butt}</style>
 </defs>
 <g id="figure_1">
  <g id="patch_1">
   <path d="M 0 345.6 
L 460.8 345.6 
L 460.8 0 
L 0 0 
z
" style="fill: #ffffff"/>
  </g>
  <g id="axes_1">
   <g id="patch_2">
    <path d="M 57.6 298.944 
L 360.8064 298.944 
L 360.8064 27.648 
L 57.6 27.648 
z
" style="fill: #ffffff"/>
   </g>
   <g id="line2d_1">
    <path d="M 75.574654 298.944 
L 75.574654 293.624471 
L 87.1081 293.624471 
L 87.1081 288.304941 
L 102.708132 288.304941 
L 102.708132 282.985412 
L 126.127391 282.985412 
L 126.127391 277.665882 
L 133.918257 277.665882 
L 133.918257 272.346353 
L 144.639767 272.346353 
L 144.639767 267.026824 
L 160.383158 267.026824 
L 160.383158 261.707294 
L 172.53279 261.707294 
L 172.53279 256.387765 
L 185.634537 256.387765 
L 185.634537 251.068235 
L 198.640365 251.068235 
L 198.640365 245.748706 
L 199.239824 245.748706 
L 199.239824 240.429176 
L 212.6313 240.429176 
L 212.6313 235.109647 
L 212.77059 235.109647 
L 212.77059 229.790118 
L 212.877566 229.790118 
L 212.877566 224.470588 
L 212.948872 224.470588 
L 212.948872 219.151059 
L 213.02088 219.151059 
L 213.02088 213.831529 
L 213.110021 213.831529 
L 213.110021 208.512 
L 213.204513 208.512 
L 213.204513 203.192471 
L 213.28896 203.192471 
L 213.28896 197.872941 
L 213.330087 197.872941 
L 213.330087 192.553412 
L 213.380654 192.553412 
L 213.380654 187.233882 
L 213.490858 187.233882 
L 213.490858 181.914353 
L 213.535326 181.914353 
L 213.535326 176.594824 
L 213.597594 176.594824 
L 213.597594 171.275294 
L 213.62677 171.275294 
L 213.62677 165.955765 
L 213.692486 165.955765 
L 213.692486 160.636235 
L 213.762642 160.636235 
L 213.762642 155.316706 
L 213.836257 155.316706 
L 213.836257 149.997176 
L 213.898466 149.997176 
L 213.898466 144.677647 
L 213.959545 144.677647 
L 213.959545 139.358118 
L 214.013058 139.358118 
L 214.013058 134.038588 
L 214.039758 134.038588 
L 214.039758 128.719059 
L 214.137943 128.719059 
L 214.137943 123.399529 
L 214.220133 123.399529 
L 214.220133 118.08 
L 214.280179 118.08 
L 214.280179 112.760471 
L 214.333694 112.760471 
L 214.333694 107.440941 
L 214.375313 107.440941 
L 214.375313 102.121412 
L 214.442071 102.121412 
L 214.442071 96.801882 
L 214.52474 96.801882 
L 214.52474 91.482353 
L 214.539976 91.482353 
L 214.539976 86.162824 
L 214.600797 86.162824 
L 214.600797 80.843294 
L 214.673879 80.843294 
L 214.673879 75.523765 
L 214.733383 75.523765 
L 214.733383 70.204235 
L 214.753766 70.204235 
L 214.753766 64.884706 
L 214.815667 64.884706 
L 214.815667 59.565176 
L 214.860638 59.565176 
L 214.860638 54.245647 
L 214.946752 54.245647 
L 214.946752 48.926118 
L 215.017632 48.926118 
L 215.017632 43.606588 
L 215.034219 43.606588 
L 215.034219 38.287059 
L 215.10651 38.287059 
L 215.10651 32.967529 
L 215.168995 32.967529 
L 215.168995 27.648 
L 360.8064 27.648 
" style="fill: none; stroke: #f5deb3; stroke-width: 4; stroke-linecap: square"/>
   </g>
   <g id="line2d_2">
    <defs>
     <path id="mac6ca4dd01" d="M -0 7.778175 
L 7.778175 0 
L 0 -7.778175 
L -7.778175 -0 
z
" style="stroke: #f5deb3; stroke-width: 1.5; stroke-linejoin: miter"/>
    </defs>
    <g>
     <use xlink:href="#mac6ca4dd01" x="172.53279" y="261.707294" style="fill: #f5deb3; stroke: #f5deb3; stroke-width: 1.5; stroke-linejoin: miter"/>
     <use xlink:href="#mac6ca4dd01" x="214.333694" y="107.440941" style="fill: #f5deb3; stroke: #f5deb3; stroke-width: 1.5; stroke-linejoin: miter"/>
     <use xlink:href="#mac6ca4dd01" x="215.168995" y="27.648" style="fill: #f5deb3; stroke: #f5deb3; stroke-width: 1.5; stroke-linejoin: miter"/>
     <use xlink:href="#mac6ca4dd01" x="215.168995" y="27.648" style="fill: #f5deb3; stroke: #f5deb3; stroke-width: 1.5; stroke-linejoin: miter"/>
     <use xlink:href="#mac6ca4dd01" x="360.8064" y="27.648" style="fill: #f5deb3; stroke: #f5deb3; stroke-width: 1.5; stroke-linejoin: miter"/>
    </g>
   </g>
   <g id="line2d_3">
    <path style="fill: none; stroke: #f5deb3; stroke-width: 4; stroke-linecap: square"/>
    <g/>
   </g>
   <g id="line2d_4">
    <path d="M 360.8064 27.648 
L 380.514816 33.07392 
" style="fill: none; stroke: #f5deb3; stroke-width: 4; stroke-linecap: square"/>
    <g>
     <use xlink:href="#mac6ca4dd01" x="360.8064" y="27.648" style="fill: #f5deb3; stroke: #f5deb3; stroke-width: 1.5; stroke-linejoin: miter"/>
     <use xlink:href="#mac6ca4dd01" x="380.514816" y="33.07392" style="fill: #f5deb3; stroke: #f5deb3; stroke-width: 1.5; stroke-linejoin: miter"/>
    </g>
   </g>
   <g id="matplotlib.axis_1">
    <g id="xtick_1">
     <g id="line2d_5">
      <path d="M 57.6 298.944 
L 57.6 27.648 
" clip-path="url(#p8327961735)" style="fill: none; stroke: #b0b0b0; stroke-width: 0.8; stroke-linecap: square"/>
     </g>
     <g id="line2d_6">
      <defs>
       <path id="mc3ae3ee134" d="M 0 0 
L 0 3.5 
" style="stroke: #000000; stroke-width: 0.8"/>
      </defs>
      <g>
       <use xlink:href="#mc3ae3ee134" x="57.6" y="298.944" style="stroke: #000000; stroke-width: 0.8"/>
      </g>
     </g>
     <g id="text_1">
      <!-- 0 -->
      <g transform="translate(52.191875 318.861344)scale(0.17 -0.17)">
       <defs>
        <path id="DejaVuSans-30" d="M 2034 4250 
Q 1547 4250 1301 3770 
Q 1056 3291 1056 2328 
Q 1056 1369 1301 889 
Q 1547 409 2034 409 
Q 2525 409 2770 889 
Q 3016 1369 3016 2328 
Q 3016 3291 2770 3770 
Q 2525 4250 2034 4250 
z
M 2034 4750 
Q 2819 4750 3233 4129 
Q 3647 3509 3647 2328 
Q 3647 1150 3233 529 
Q 2819 -91 2034 -91 
Q 1250 -91 836 529 
Q 422 1150 422 2328 
Q 422 3509 836 4129 
Q 1250 4750 2034 4750 
z
" transform="scale(0.015625)"/>
       </defs>
       <use xlink:href="#DejaVuSans-30"/>
      </g>
     </g>
    </g>
    <g id="xtick_2">
     <g id="line2d_7">
      <path d="M 144.2304 298.944 
L 144.2304 27.648 
" clip-path="url(#p8327961735)" style="fill: none; stroke: #b0b0b0; stroke-width: 0.8; stroke-linecap: square"/>
     </g>
     <g id="line2d_8">
      <g>
       <use xlink:href="#mc3ae3ee134" x="144.2304" y="298.944" style="stroke: #000000; stroke-width: 0.8"/>
      </g>
     </g>
     <g id="text_2">
      <!-- 2 -->
      <g transform="translate(138.822275 318.861344)scale(0.17 -0.17)">
       <defs>
        <path id="DejaVuSans-32" d="M 1228 531 
L 3431 531 
L 3431 0 
L 469 0 
L 469 531 
Q 828 903 1448 1529 
Q 2069 2156 2228 2338 
Q 2531 2678 2651 2914 
Q 2772 3150 2772 3378 
Q 2772 3750 2511 3984 
Q 2250 4219 1831 4219 
Q 1534 4219 1204 4116 
Q 875 4013 500 3803 
L 500 4441 
Q 881 4594 1212 4672 
Q 1544 4750 1819 4750 
Q 2544 4750 2975 4387 
Q 3406 4025 3406 3419 
Q 3406 3131 3298 2873 
Q 3191 2616 2906 2266 
Q 2828 2175 2409 1742 
Q 1991 1309 1228 531 
z
" transform="scale(0.015625)"/>
       </defs>
       <use xlink:href="#DejaVuSans-32"/>
      </g>
     </g>
    </g>
    <g id="xtick_3">
     <g id="line2d_9">
      <path d="M 230.8608 298.944 
L 230.8608 27.648 
" clip-path="url(#p8327961735)" style="fill: none; stroke: #b0b0b0; stroke-width: 0.8; stroke-linecap: square"/>
     </g>
     <g id="line2d_10">
      <g>
       <use xlink:href="#mc3ae3ee134" x="230.8608" y="298.944" style="stroke: #000000; stroke-width: 0.8"/>
      </g>
     </g>
     <g id="text_3">
      <!-- 4 -->
      <g transform="translate(225.452675 318.861344)scale(0.17 -0.17)">
       <defs>
        <path id="DejaVuSans-34" d="M 2419 4116 
L 825 1625 
L 2419 1625 
L 2419 4116 
z
M 2253 4666 
L 3047 4666 
L 3047 1625 
L 3713 1625 
L 3713 1100 
L 3047 1100 
L 3047 0 
L 2419 0 
L 2419 1100 
L 313 1100 
L 313 1709 
L 2253 4666 
z
" transform="scale(0.015625)"/>
       </defs>
       <use xlink:href="#DejaVuSans-34"/>
      </g>
     </g>
    </g>
    <g id="xtick_4">
     <g id="line2d_11">
      <path d="M 317.4912 298.944 
L 317.4912 27.648 
" clip-path="url(#p8327961735)" style="fill: none; stroke: #b0b0b0; stroke-width: 0.8; stroke-linecap: square"/>
     </g>
     <g id="line2d_12">
      <g>
       <use xlink:href="#mc3ae3ee134" x="317.4912" y="298.944" style="stroke: #000000; stroke-width: 0.8"/>
      </g>
     </g>
     <g id="text_4">
      <!-- 6 -->
      <g transform="translate(312.083075 318.861344)scale(0.17 -0.17)">
       <defs>
        <path id="DejaVuSans-36" d="M 2113 2584 
Q 1688 2584 1439 2293 
Q 1191 2003 1191 1497 
Q 1191 994 1439 701 
Q 1688 409 2113 409 
Q 2538 409 2786 701 
Q 3034 994 3034 1497 
Q 3034 2003 2786 2293 
Q 2538 2584 2113 2584 
z
M 3366 4563 
L 3366 3988 
Q 3128 4100 2886 4159 
Q 2644 4219 2406 4219 
Q 1781 4219 1451 3797 
Q 1122 3375 1075 2522 
Q 1259 2794 1537 2939 
Q 1816 3084 2150 3084 
Q 2853 3084 3261 2657 
Q 3669 2231 3669 1497 
Q 3669 778 3244 343 
Q 2819 -91 2113 -91 
Q 1303 -91 875 529 
Q 447 1150 447 2328 
Q 447 3434 972 4092 
Q 1497 4750 2381 4750 
Q 2619 4750 2861 4703 
Q 3103 4656 3366 4563 
z
" transform="scale(0.015625)"/>
       </defs>
       <use xlink:href="#DejaVuSans-36"/>
      </g>
     </g>
    </g>
    <g id="xtick_5">
     <g id="line2d_13">
      <path d="M 100.9152 298.944 
L 100.9152 27.648 
" clip-path="url(#p8327961735)" style="fill: none; stroke: #b0b0b0; stroke-width: 0.8; stroke-linecap: square"/>
     </g>
     <g id="line2d_14">
      <defs>
       <path id="mf09f27cadb" d="M 0 0 
L 0 2 
" style="stroke: #000000; stroke-width: 0.6"/>
      </defs>
      <g>
       <use xlink:href="#mf09f27cadb" x="100.9152" y="298.944" style="stroke: #000000; stroke-width: 0.6"/>
      </g>
     </g>
    </g>
    <g id="xtick_6">
     <g id="line2d_15">
      <path d="M 187.5456 298.944 
L 187.5456 27.648 
" clip-path="url(#p8327961735)" style="fill: none; stroke: #b0b0b0; stroke-width: 0.8; stroke-linecap: square"/>
     </g>
     <g id="line2d_16">
      <g>
       <use xlink:href="#mf09f27cadb" x="187.5456" y="298.944" style="stroke: #000000; stroke-width: 0.6"/>
      </g>
     </g>
    </g>
    <g id="xtick_7">
     <g id="line2d_17">
      <path d="M 274.176 298.944 
L 274.176 27.648 
" clip-path="url(#p8327961735)" style="fill: none; stroke: #b0b0b0; stroke-width: 0.8; stroke-linecap: square"/>
     </g>
     <g id="line2d_18">
      <g>
       <use xlink:href="#mf09f27cadb" x="274.176" y="298.944" style="stroke: #000000; stroke-width: 0.6"/>
      </g>
     </g>
    </g>
    <g id="xtick_8">
     <g id="line2d_19">
      <path d="M 360.8064 298.944 
L 360.8064 27.648 
" clip-path="url(#p8327961735)" style="fill: none; stroke: #b0b0b0; stroke-width: 0.8; stroke-linecap: square"/>
     </g>
     <g id="line2d_20">
      <g>
       <use xlink:href="#mf09f27cadb" x="360.8064" y="298.944" style="stroke: #000000; stroke-width: 0.6"/>
      </g>
     </g>
    </g>
    <g id="text_5">
     <!-- log10(# f-evals / dimension) -->
     <g transform="translate(88.823278 339.314156)scale(0.17 -0.17)">
      <defs>
       <path id="DejaVuSans-6c" d="M 603 4863 
L 1178 4863 
L 1178 0 
L 603 0 
L 603 4863 
z
" transform="scale(0.015625)"/>
       <path id="DejaVuSans-6f" d="M 1959 3097 
Q 1497 3097 1228 2736 
Q 959 2375 959 1747 
Q 959 1119 1226 758 
Q 1494 397 1959 397 
Q 2419 397 2687 759 
Q 2956 1122 2956 1747 
Q 2956 2369 2687 2733 
Q 2419 3097 1959 3097 
z
M 1959 3584 
Q 2709 3584 3137 3096 
Q 3566 2609 3566 1747 
Q 3566 888 3137 398 
Q 2709 -91 1959 -91 
Q 1206 -91 779 398 
Q 353 888 353 1747 
Q 353 2609 779 3096 
Q 1206 3584 1959 3584 
z
" transform="scale(0.015625)"/>
       <path id="DejaVuSans-67" d="M 2906 1791 
Q 2906 2416 2648 2759 
Q 2391 3103 1925 3103 
Q 1463 3103 1205 2759 
Q 947 2416 947 1791 
Q 947 1169 1205 825 
Q 1463 481 1925 481 
Q 2391 481 2648 825 
Q 2906 1169 2906 1791 
z
M 3481 434 
Q 3481 -459 3084 -895 
Q 2688 -1331 1869 -1331 
Q 1566 -1331 1297 -1286 
Q 1028 -1241 775 -1147 
L 775 -588 
Q 1028 -725 1275 -790 
Q 1522 -856 1778 -856 
Q 2344 -856 2625 -561 
Q 2906 -266 2906 331 
L 2906 616 
Q 2728 306 2450 153 
Q 2172 0 1784 0 
Q 1141 0 747 490 
Q 353 981 353 1791 
Q 353 2603 747 3093 
Q 1141 3584 1784 3584 
Q 2172 3584 2450 3431 
Q 2728 3278 2906 2969 
L 2906 3500 
L 3481 3500 
L 3481 434 
z
" transform="scale(0.015625)"/>
       <path id="DejaVuSans-31" d="M 794 531 
L 1825 531 
L 1825 4091 
L 703 3866 
L 703 4441 
L 1819 4666 
L 2450 4666 
L 2450 531 
L 3481 531 
L 3481 0 
L 794 0 
L 794 531 
z
" transform="scale(0.015625)"/>
       <path id="DejaVuSans-28" d="M 1984 4856 
Q 1566 4138 1362 3434 
Q 1159 2731 1159 2009 
Q 1159 1288 1364 580 
Q 1569 -128 1984 -844 
L 1484 -844 
Q 1016 -109 783 600 
Q 550 1309 550 2009 
Q 550 2706 781 3412 
Q 1013 4119 1484 4856 
L 1984 4856 
z
" transform="scale(0.015625)"/>
       <path id="DejaVuSans-23" d="M 3272 2816 
L 2363 2816 
L 2100 1772 
L 3016 1772 
L 3272 2816 
z
M 2803 4594 
L 2478 3297 
L 3391 3297 
L 3719 4594 
L 4219 4594 
L 3897 3297 
L 4872 3297 
L 4872 2816 
L 3775 2816 
L 3519 1772 
L 4513 1772 
L 4513 1294 
L 3397 1294 
L 3072 0 
L 2572 0 
L 2894 1294 
L 1978 1294 
L 1656 0 
L 1153 0 
L 1478 1294 
L 494 1294 
L 494 1772 
L 1594 1772 
L 1856 2816 
L 850 2816 
L 850 3297 
L 1978 3297 
L 2297 4594 
L 2803 4594 
z
" transform="scale(0.015625)"/>
       <path id="DejaVuSans-20" transform="scale(0.015625)"/>
       <path id="DejaVuSans-66" d="M 2375 4863 
L 2375 4384 
L 1825 4384 
Q 1516 4384 1395 4259 
Q 1275 4134 1275 3809 
L 1275 3500 
L 2222 3500 
L 2222 3053 
L 1275 3053 
L 1275 0 
L 697 0 
L 697 3053 
L 147 3053 
L 147 3500 
L 697 3500 
L 697 3744 
Q 697 4328 969 4595 
Q 1241 4863 1831 4863 
L 2375 4863 
z
" transform="scale(0.015625)"/>
       <path id="DejaVuSans-2d" d="M 313 2009 
L 1997 2009 
L 1997 1497 
L 313 1497 
L 313 2009 
z
" transform="scale(0.015625)"/>
       <path id="DejaVuSans-65" d="M 3597 1894 
L 3597 1613 
L 953 1613 
Q 991 1019 1311 708 
Q 1631 397 2203 397 
Q 2534 397 2845 478 
Q 3156 559 3463 722 
L 3463 178 
Q 3153 47 2828 -22 
Q 2503 -91 2169 -91 
Q 1331 -91 842 396 
Q 353 884 353 1716 
Q 353 2575 817 3079 
Q 1281 3584 2069 3584 
Q 2775 3584 3186 3129 
Q 3597 2675 3597 1894 
z
M 3022 2063 
Q 3016 2534 2758 2815 
Q 2500 3097 2075 3097 
Q 1594 3097 1305 2825 
Q 1016 2553 972 2059 
L 3022 2063 
z
" transform="scale(0.015625)"/>
       <path id="DejaVuSans-76" d="M 191 3500 
L 800 3500 
L 1894 563 
L 2988 3500 
L 3597 3500 
L 2284 0 
L 1503 0 
L 191 3500 
z
" transform="scale(0.015625)"/>
       <path id="DejaVuSans-61" d="M 2194 1759 
Q 1497 1759 1228 1600 
Q 959 1441 959 1056 
Q 959 750 1161 570 
Q 1363 391 1709 391 
Q 2188 391 2477 730 
Q 2766 1069 2766 1631 
L 2766 1759 
L 2194 1759 
z
M 3341 1997 
L 3341 0 
L 2766 0 
L 2766 531 
Q 2569 213 2275 61 
Q 1981 -91 1556 -91 
Q 1019 -91 701 211 
Q 384 513 384 1019 
Q 384 1609 779 1909 
Q 1175 2209 1959 2209 
L 2766 2209 
L 2766 2266 
Q 2766 2663 2505 2880 
Q 2244 3097 1772 3097 
Q 1472 3097 1187 3025 
Q 903 2953 641 2809 
L 641 3341 
Q 956 3463 1253 3523 
Q 1550 3584 1831 3584 
Q 2591 3584 2966 3190 
Q 3341 2797 3341 1997 
z
" transform="scale(0.015625)"/>
       <path id="DejaVuSans-73" d="M 2834 3397 
L 2834 2853 
Q 2591 2978 2328 3040 
Q 2066 3103 1784 3103 
Q 1356 3103 1142 2972 
Q 928 2841 928 2578 
Q 928 2378 1081 2264 
Q 1234 2150 1697 2047 
L 1894 2003 
Q 2506 1872 2764 1633 
Q 3022 1394 3022 966 
Q 3022 478 2636 193 
Q 2250 -91 1575 -91 
Q 1294 -91 989 -36 
Q 684 19 347 128 
L 347 722 
Q 666 556 975 473 
Q 1284 391 1588 391 
Q 1994 391 2212 530 
Q 2431 669 2431 922 
Q 2431 1156 2273 1281 
Q 2116 1406 1581 1522 
L 1381 1569 
Q 847 1681 609 1914 
Q 372 2147 372 2553 
Q 372 3047 722 3315 
Q 1072 3584 1716 3584 
Q 2034 3584 2315 3537 
Q 2597 3491 2834 3397 
z
" transform="scale(0.015625)"/>
       <path id="DejaVuSans-2f" d="M 1625 4666 
L 2156 4666 
L 531 -594 
L 0 -594 
L 1625 4666 
z
" transform="scale(0.015625)"/>
       <path id="DejaVuSans-64" d="M 2906 2969 
L 2906 4863 
L 3481 4863 
L 3481 0 
L 2906 0 
L 2906 525 
Q 2725 213 2448 61 
Q 2172 -91 1784 -91 
Q 1150 -91 751 415 
Q 353 922 353 1747 
Q 353 2572 751 3078 
Q 1150 3584 1784 3584 
Q 2172 3584 2448 3432 
Q 2725 3281 2906 2969 
z
M 947 1747 
Q 947 1113 1208 752 
Q 1469 391 1925 391 
Q 2381 391 2643 752 
Q 2906 1113 2906 1747 
Q 2906 2381 2643 2742 
Q 2381 3103 1925 3103 
Q 1469 3103 1208 2742 
Q 947 2381 947 1747 
z
" transform="scale(0.015625)"/>
       <path id="DejaVuSans-69" d="M 603 3500 
L 1178 3500 
L 1178 0 
L 603 0 
L 603 3500 
z
M 603 4863 
L 1178 4863 
L 1178 4134 
L 603 4134 
L 603 4863 
z
" transform="scale(0.015625)"/>
       <path id="DejaVuSans-6d" d="M 3328 2828 
Q 3544 3216 3844 3400 
Q 4144 3584 4550 3584 
Q 5097 3584 5394 3201 
Q 5691 2819 5691 2113 
L 5691 0 
L 5113 0 
L 5113 2094 
Q 5113 2597 4934 2840 
Q 4756 3084 4391 3084 
Q 3944 3084 3684 2787 
Q 3425 2491 3425 1978 
L 3425 0 
L 2847 0 
L 2847 2094 
Q 2847 2600 2669 2842 
Q 2491 3084 2119 3084 
Q 1678 3084 1418 2786 
Q 1159 2488 1159 1978 
L 1159 0 
L 581 0 
L 581 3500 
L 1159 3500 
L 1159 2956 
Q 1356 3278 1631 3431 
Q 1906 3584 2284 3584 
Q 2666 3584 2933 3390 
Q 3200 3197 3328 2828 
z
" transform="scale(0.015625)"/>
       <path id="DejaVuSans-6e" d="M 3513 2113 
L 3513 0 
L 2938 0 
L 2938 2094 
Q 2938 2591 2744 2837 
Q 2550 3084 2163 3084 
Q 1697 3084 1428 2787 
Q 1159 2491 1159 1978 
L 1159 0 
L 581 0 
L 581 3500 
L 1159 3500 
L 1159 2956 
Q 1366 3272 1645 3428 
Q 1925 3584 2291 3584 
Q 2894 3584 3203 3211 
Q 3513 2838 3513 2113 
z
" transform="scale(0.015625)"/>
       <path id="DejaVuSans-29" d="M 513 4856 
L 1013 4856 
Q 1481 4119 1714 3412 
Q 1947 2706 1947 2009 
Q 1947 1309 1714 600 
Q 1481 -109 1013 -844 
L 513 -844 
Q 928 -128 1133 580 
Q 1338 1288 1338 2009 
Q 1338 2731 1133 3434 
Q 928 4138 513 4856 
z
" transform="scale(0.015625)"/>
      </defs>
      <use xlink:href="#DejaVuSans-6c"/>
      <use xlink:href="#DejaVuSans-6f" x="27.783203"/>
      <use xlink:href="#DejaVuSans-67" x="88.964844"/>
      <use xlink:href="#DejaVuSans-31" x="152.441406"/>
      <use xlink:href="#DejaVuSans-30" x="216.064453"/>
      <use xlink:href="#DejaVuSans-28" x="279.6875"/>
      <use xlink:href="#DejaVuSans-23" x="318.701172"/>
      <use xlink:href="#DejaVuSans-20" x="402.490234"/>
      <use xlink:href="#DejaVuSans-66" x="434.277344"/>
      <use xlink:href="#DejaVuSans-2d" x="463.982422"/>
      <use xlink:href="#DejaVuSans-65" x="500.066406"/>
      <use xlink:href="#DejaVuSans-76" x="561.589844"/>
      <use xlink:href="#DejaVuSans-61" x="620.769531"/>
      <use xlink:href="#DejaVuSans-6c" x="682.048828"/>
      <use xlink:href="#DejaVuSans-73" x="709.832031"/>
      <use xlink:href="#DejaVuSans-20" x="761.931641"/>
      <use xlink:href="#DejaVuSans-2f" x="793.71875"/>
      <use xlink:href="#DejaVuSans-20" x="827.410156"/>
      <use xlink:href="#DejaVuSans-64" x="859.197266"/>
      <use xlink:href="#DejaVuSans-69" x="922.673828"/>
      <use xlink:href="#DejaVuSans-6d" x="950.457031"/>
      <use xlink:href="#DejaVuSans-65" x="1047.869141"/>
      <use xlink:href="#DejaVuSans-6e" x="1109.392578"/>
      <use xlink:href="#DejaVuSans-73" x="1172.771484"/>
      <use xlink:href="#DejaVuSans-69" x="1224.871094"/>
      <use xlink:href="#DejaVuSans-6f" x="1252.654297"/>
      <use xlink:href="#DejaVuSans-6e" x="1313.835938"/>
      <use xlink:href="#DejaVuSans-29" x="1377.214844"/>
     </g>
    </g>
   </g>
   <g id="matplotlib.axis_2">
    <g id="ytick_1">
     <g id="line2d_21">
      <path d="M 57.6 298.944 
L 360.8064 298.944 
" clip-path="url(#p8327961735)" style="fill: none; stroke: #b0b0b0; stroke-width: 0.8; stroke-linecap: square"/>
     </g>
     <g id="line2d_22">
      <defs>
       <path id="mcba6734e35" d="M 0 0 
L -3.5 0 
" style="stroke: #000000; stroke-width: 0.8"/>
      </defs>
      <g>
       <use xlink:href="#mcba6734e35" x="57.6" y="298.944" style="stroke: #000000; stroke-width: 0.8"/>
      </g>
     </g>
     <g id="text_6">
      <!-- 0.0 -->
      <g transform="translate(25.155 305.02275)scale(0.16 -0.16)">
       <defs>
        <path id="DejaVuSans-2e" d="M 684 794 
L 1344 794 
L 1344 0 
L 684 0 
L 684 794 
z
" transform="scale(0.015625)"/>
       </defs>
       <use xlink:href="#DejaVuSans-30"/>
       <use xlink:href="#DejaVuSans-2e" x="63.623047"/>
       <use xlink:href="#DejaVuSans-30" x="95.410156"/>
      </g>
     </g>
    </g>
    <g id="ytick_2">
     <g id="line2d_23">
      <path d="M 57.6 244.6848 
L 360.8064 244.6848 
" clip-path="url(#p8327961735)" style="fill: none; stroke: #b0b0b0; stroke-width: 0.8; stroke-linecap: square"/>
     </g>
     <g id="line2d_24">
      <g>
       <use xlink:href="#mcba6734e35" x="57.6" y="244.6848" style="stroke: #000000; stroke-width: 0.8"/>
      </g>
     </g>
     <g id="text_7">
      <!-- 0.2 -->
      <g transform="translate(25.155 250.76355)scale(0.16 -0.16)">
       <use xlink:href="#DejaVuSans-30"/>
       <use xlink:href="#DejaVuSans-2e" x="63.623047"/>
       <use xlink:href="#DejaVuSans-32" x="95.410156"/>
      </g>
     </g>
    </g>
    <g id="ytick_3">
     <g id="line2d_25">
      <path d="M 57.6 190.4256 
L 360.8064 190.4256 
" clip-path="url(#p8327961735)" style="fill: none; stroke: #b0b0b0; stroke-width: 0.8; stroke-linecap: square"/>
     </g>
     <g id="line2d_26">
      <g>
       <use xlink:href="#mcba6734e35" x="57.6" y="190.4256" style="stroke: #000000; stroke-width: 0.8"/>
      </g>
     </g>
     <g id="text_8">
      <!-- 0.4 -->
      <g transform="translate(25.155 196.50435)scale(0.16 -0.16)">
       <use xlink:href="#DejaVuSans-30"/>
       <use xlink:href="#DejaVuSans-2e" x="63.623047"/>
       <use xlink:href="#DejaVuSans-34" x="95.410156"/>
      </g>
     </g>
    </g>
    <g id="ytick_4">
     <g id="line2d_27">
      <path d="M 57.6 136.1664 
L 360.8064 136.1664 
" clip-path="url(#p8327961735)" style="fill: none; stroke: #b0b0b0; stroke-width: 0.8; stroke-linecap: square"/>
     </g>
     <g id="line2d_28">
      <g>
       <use xlink:href="#mcba6734e35" x="57.6" y="136.1664" style="stroke: #000000; stroke-width: 0.8"/>
      </g>
     </g>
     <g id="text_9">
      <!-- 0.6 -->
      <g transform="translate(25.155 142.24515)scale(0.16 -0.16)">
       <use xlink:href="#DejaVuSans-30"/>
       <use xlink:href="#DejaVuSans-2e" x="63.623047"/>
       <use xlink:href="#DejaVuSans-36" x="95.410156"/>
      </g>
     </g>
    </g>
    <g id="ytick_5">
     <g id="line2d_29">
      <path d="M 57.6 81.9072 
L 360.8064 81.9072 
" clip-path="url(#p8327961735)" style="fill: none; stroke: #b0b0b0; stroke-width: 0.8; stroke-linecap: square"/>
     </g>
     <g id="line2d_30">
      <g>
       <use xlink:href="#mcba6734e35" x="57.6" y="81.9072" style="stroke: #000000; stroke-width: 0.8"/>
      </g>
     </g>
     <g id="text_10">
      <!-- 0.8 -->
      <g transform="translate(25.155 87.98595)scale(0.16 -0.16)">
       <defs>
        <path id="DejaVuSans-38" d="M 2034 2216 
Q 1584 2216 1326 1975 
Q 1069 1734 1069 1313 
Q 1069 891 1326 650 
Q 1584 409 2034 409 
Q 2484 409 2743 651 
Q 3003 894 3003 1313 
Q 3003 1734 2745 1975 
Q 2488 2216 2034 2216 
z
M 1403 2484 
Q 997 2584 770 2862 
Q 544 3141 544 3541 
Q 544 4100 942 4425 
Q 1341 4750 2034 4750 
Q 2731 4750 3128 4425 
Q 3525 4100 3525 3541 
Q 3525 3141 3298 2862 
Q 3072 2584 2669 2484 
Q 3125 2378 3379 2068 
Q 3634 1759 3634 1313 
Q 3634 634 3220 271 
Q 2806 -91 2034 -91 
Q 1263 -91 848 271 
Q 434 634 434 1313 
Q 434 1759 690 2068 
Q 947 2378 1403 2484 
z
M 1172 3481 
Q 1172 3119 1398 2916 
Q 1625 2713 2034 2713 
Q 2441 2713 2670 2916 
Q 2900 3119 2900 3481 
Q 2900 3844 2670 4047 
Q 2441 4250 2034 4250 
Q 1625 4250 1398 4047 
Q 1172 3844 1172 3481 
z
" transform="scale(0.015625)"/>
       </defs>
       <use xlink:href="#DejaVuSans-30"/>
       <use xlink:href="#DejaVuSans-2e" x="63.623047"/>
       <use xlink:href="#DejaVuSans-38" x="95.410156"/>
      </g>
     </g>
    </g>
    <g id="ytick_6">
     <g id="line2d_31">
      <path d="M 57.6 27.648 
L 360.8064 27.648 
" clip-path="url(#p8327961735)" style="fill: none; stroke: #b0b0b0; stroke-width: 0.8; stroke-linecap: square"/>
     </g>
     <g id="line2d_32">
      <g>
       <use xlink:href="#mcba6734e35" x="57.6" y="27.648" style="stroke: #000000; stroke-width: 0.8"/>
      </g>
     </g>
     <g id="text_11">
      <!-- 1.0 -->
      <g transform="translate(25.155 33.72675)scale(0.16 -0.16)">
       <use xlink:href="#DejaVuSans-31"/>
       <use xlink:href="#DejaVuSans-2e" x="63.623047"/>
       <use xlink:href="#DejaVuSans-30" x="95.410156"/>
      </g>
     </g>
    </g>
    <g id="text_12">
     <!-- Fraction of function,target pairs -->
     <g transform="translate(17.619531 297.681)rotate(-90)scale(0.17 -0.17)">
      <defs>
       <path id="DejaVuSans-46" d="M 628 4666 
L 3309 4666 
L 3309 4134 
L 1259 4134 
L 1259 2759 
L 3109 2759 
L 3109 2228 
L 1259 2228 
L 1259 0 
L 628 0 
L 628 4666 
z
" transform="scale(0.015625)"/>
       <path id="DejaVuSans-72" d="M 2631 2963 
Q 2534 3019 2420 3045 
Q 2306 3072 2169 3072 
Q 1681 3072 1420 2755 
Q 1159 2438 1159 1844 
L 1159 0 
L 581 0 
L 581 3500 
L 1159 3500 
L 1159 2956 
Q 1341 3275 1631 3429 
Q 1922 3584 2338 3584 
Q 2397 3584 2469 3576 
Q 2541 3569 2628 3553 
L 2631 2963 
z
" transform="scale(0.015625)"/>
       <path id="DejaVuSans-63" d="M 3122 3366 
L 3122 2828 
Q 2878 2963 2633 3030 
Q 2388 3097 2138 3097 
Q 1578 3097 1268 2742 
Q 959 2388 959 1747 
Q 959 1106 1268 751 
Q 1578 397 2138 397 
Q 2388 397 2633 464 
Q 2878 531 3122 666 
L 3122 134 
Q 2881 22 2623 -34 
Q 2366 -91 2075 -91 
Q 1284 -91 818 406 
Q 353 903 353 1747 
Q 353 2603 823 3093 
Q 1294 3584 2113 3584 
Q 2378 3584 2631 3529 
Q 2884 3475 3122 3366 
z
" transform="scale(0.015625)"/>
       <path id="DejaVuSans-74" d="M 1172 4494 
L 1172 3500 
L 2356 3500 
L 2356 3053 
L 1172 3053 
L 1172 1153 
Q 1172 725 1289 603 
Q 1406 481 1766 481 
L 2356 481 
L 2356 0 
L 1766 0 
Q 1100 0 847 248 
Q 594 497 594 1153 
L 594 3053 
L 172 3053 
L 172 3500 
L 594 3500 
L 594 4494 
L 1172 4494 
z
" transform="scale(0.015625)"/>
       <path id="DejaVuSans-75" d="M 544 1381 
L 544 3500 
L 1119 3500 
L 1119 1403 
Q 1119 906 1312 657 
Q 1506 409 1894 409 
Q 2359 409 2629 706 
Q 2900 1003 2900 1516 
L 2900 3500 
L 3475 3500 
L 3475 0 
L 2900 0 
L 2900 538 
Q 2691 219 2414 64 
Q 2138 -91 1772 -91 
Q 1169 -91 856 284 
Q 544 659 544 1381 
z
M 1991 3584 
L 1991 3584 
z
" transform="scale(0.015625)"/>
       <path id="DejaVuSans-2c" d="M 750 794 
L 1409 794 
L 1409 256 
L 897 -744 
L 494 -744 
L 750 256 
L 750 794 
z
" transform="scale(0.015625)"/>
       <path id="DejaVuSans-70" d="M 1159 525 
L 1159 -1331 
L 581 -1331 
L 581 3500 
L 1159 3500 
L 1159 2969 
Q 1341 3281 1617 3432 
Q 1894 3584 2278 3584 
Q 2916 3584 3314 3078 
Q 3713 2572 3713 1747 
Q 3713 922 3314 415 
Q 2916 -91 2278 -91 
Q 1894 -91 1617 61 
Q 1341 213 1159 525 
z
M 3116 1747 
Q 3116 2381 2855 2742 
Q 2594 3103 2138 3103 
Q 1681 3103 1420 2742 
Q 1159 2381 1159 1747 
Q 1159 1113 1420 752 
Q 1681 391 2138 391 
Q 2594 391 2855 752 
Q 3116 1113 3116 1747 
z
" transform="scale(0.015625)"/>
      </defs>
      <use xlink:href="#DejaVuSans-46"/>
      <use xlink:href="#DejaVuSans-72" x="50.269531"/>
      <use xlink:href="#DejaVuSans-61" x="91.382812"/>
      <use xlink:href="#DejaVuSans-63" x="152.662109"/>
      <use xlink:href="#DejaVuSans-74" x="207.642578"/>
      <use xlink:href="#DejaVuSans-69" x="246.851562"/>
      <use xlink:href="#DejaVuSans-6f" x="274.634766"/>
      <use xlink:href="#DejaVuSans-6e" x="335.816406"/>
      <use xlink:href="#DejaVuSans-20" x="399.195312"/>
      <use xlink:href="#DejaVuSans-6f" x="430.982422"/>
      <use xlink:href="#DejaVuSans-66" x="492.164062"/>
      <use xlink:href="#DejaVuSans-20" x="527.369141"/>
      <use xlink:href="#DejaVuSans-66" x="559.15625"/>
      <use xlink:href="#DejaVuSans-75" x="594.361328"/>
      <use xlink:href="#DejaVuSans-6e" x="657.740234"/>
      <use xlink:href="#DejaVuSans-63" x="721.119141"/>
      <use xlink:href="#DejaVuSans-74" x="776.099609"/>
      <use xlink:href="#DejaVuSans-69" x="815.308594"/>
      <use xlink:href="#DejaVuSans-6f" x="843.091797"/>
      <use xlink:href="#DejaVuSans-6e" x="904.273438"/>
      <use xlink:href="#DejaVuSans-2c" x="967.652344"/>
      <use xlink:href="#DejaVuSans-74" x="999.439453"/>
      <use xlink:href="#DejaVuSans-61" x="1038.648438"/>
      <use xlink:href="#DejaVuSans-72" x="1099.927734"/>
      <use xlink:href="#DejaVuSans-67" x="1139.291016"/>
      <use xlink:href="#DejaVuSans-65" x="1202.767578"/>
      <use xlink:href="#DejaVuSans-74" x="1264.291016"/>
      <use xlink:href="#DejaVuSans-20" x="1303.5"/>
      <use xlink:href="#DejaVuSans-70" x="1335.287109"/>
      <use xlink:href="#DejaVuSans-61" x="1398.763672"/>
      <use xlink:href="#DejaVuSans-69" x="1460.042969"/>
      <use xlink:href="#DejaVuSans-72" x="1487.826172"/>
      <use xlink:href="#DejaVuSans-73" x="1528.939453"/>
     </g>
    </g>
   </g>
   <g id="line2d_33">
    <defs>
     <path id="m4d008dfa32" d="M 0 1.5 
C 0.397805 1.5 0.77937 1.341951 1.06066 1.06066 
C 1.341951 0.77937 1.5 0.397805 1.5 0 
C 1.5 -0.397805 1.341951 -0.77937 1.06066 -1.06066 
C 0.77937 -1.341951 0.397805 -1.5 0 -1.5 
C -0.397805 -1.5 -0.77937 -1.341951 -1.06066 -1.06066 
C -1.341951 -0.77937 -1.5 -0.397805 -1.5 0 
C -1.5 0.397805 -1.341951 0.77937 -1.06066 1.06066 
C -0.77937 1.341951 -0.397805 1.5 0 1.5 
z
" style="stroke: #f5deb3"/>
    </defs>
    <g>
     <use xlink:href="#m4d008dfa32" x="215.168995" y="27.648" style="fill: #f5deb3; stroke: #f5deb3"/>
     <use xlink:href="#m4d008dfa32" x="215.168995" y="27.648" style="fill: #f5deb3; stroke: #f5deb3"/>
    </g>
   </g>
   <g id="line2d_34">
    <defs>
     <path id="m965dcf13a5" d="M 0 1.5 
C 0.397805 1.5 0.77937 1.341951 1.06066 1.06066 
C 1.341951 0.77937 1.5 0.397805 1.5 0 
C 1.5 -0.397805 1.341951 -0.77937 1.06066 -1.06066 
C 0.77937 -1.341951 0.397805 -1.5 0 -1.5 
C -0.397805 -1.5 -0.77937 -1.341951 -1.06066 -1.06066 
C -1.341951 -0.77937 -1.5 -0.397805 -1.5 0 
C -1.5 0.397805 -1.341951 0.77937 -1.06066 1.06066 
C -0.77937 1.341951 -0.397805 1.5 0 1.5 
z
" style="stroke: #000080"/>
    </defs>
    <g>
     <use xlink:href="#m965dcf13a5" x="298.45729" y="27.648" style="fill: #000080; stroke: #000080"/>
     <use xlink:href="#m965dcf13a5" x="298.45729" y="27.648" style="fill: #000080; stroke: #000080"/>
    </g>
   </g>
   <g id="line2d_35">
    <path d="M 27.323974 298.944 
L 27.323974 297.880094 
L 40.363149 297.880094 
L 40.363149 297.454532 
L 47.990577 297.454532 
L 47.990577 296.816188 
L 53.402323 296.816188 
L 53.402323 296.390626 
L 57.6 296.390626 
L 57.6 296.177845 
L 61.029752 296.177845 
L 61.029752 295.965064 
L 66.441498 295.965064 
L 66.441498 295.752282 
L 68.65718 295.752282 
L 68.65718 295.539501 
L 70.639174 295.539501 
L 70.639174 295.32672 
L 72.432107 295.32672 
L 72.432107 295.113939 
L 75.574654 295.113939 
L 75.574654 294.901158 
L 78.266603 294.901158 
L 78.266603 294.688376 
L 79.480672 294.688376 
L 79.480672 294.475595 
L 80.621116 294.475595 
L 80.621116 294.262814 
L 81.696354 294.262814 
L 81.696354 293.837252 
L 82.713442 293.837252 
L 82.713442 293.624471 
L 84.596168 293.624471 
L 84.596168 292.773346 
L 85.471281 292.773346 
L 85.471281 292.560565 
L 87.1081 292.560565 
L 87.1081 292.135002 
L 89.323782 292.135002 
L 89.323782 291.922221 
L 90.007914 291.922221 
L 90.007914 291.496659 
L 91.305777 291.496659 
L 91.305777 291.283878 
L 92.519847 291.283878 
L 92.519847 291.071096 
L 93.66029 291.071096 
L 93.66029 290.645534 
L 96.241256 290.645534 
L 96.241256 290.432753 
L 97.635342 290.432753 
L 97.635342 290.219972 
L 98.077987 290.219972 
L 98.077987 290.007191 
L 98.933205 290.007191 
L 98.933205 289.156066 
L 99.346662 289.156066 
L 99.346662 288.730504 
L 102.708132 288.730504 
L 102.708132 288.517722 
L 105.559021 288.517722 
L 105.559021 288.304941 
L 106.699465 288.304941 
L 106.699465 287.879379 
L 106.974091 287.879379 
L 106.974091 287.666598 
L 109.520071 287.666598 
L 109.520071 287.453816 
L 109.756698 287.453816 
L 109.756698 287.241035 
L 110.221204 287.241035 
L 110.221204 287.028254 
L 110.449226 287.028254 
L 110.449226 286.815473 
L 111.117162 286.815473 
L 111.117162 286.602692 
L 111.97238 286.602692 
L 111.97238 286.177129 
L 112.589207 286.177129 
L 112.589207 285.964348 
L 112.989468 285.964348 
L 112.989468 285.751567 
L 113.57433 285.751567 
L 113.57433 285.538786 
L 114.141556 285.538786 
L 114.141556 285.326005 
L 114.326893 285.326005 
L 114.326893 285.113224 
L 114.692177 285.113224 
L 114.692177 284.900442 
L 116.253478 284.900442 
L 116.253478 284.687661 
L 116.419219 284.687661 
L 116.419219 284.47488 
L 116.583514 284.47488 
L 116.583514 284.262099 
L 116.746385 284.262099 
L 116.746385 284.049318 
L 117.067958 284.049318 
L 117.067958 283.836536 
L 117.226706 283.836536 
L 117.226706 283.623755 
L 118.301945 283.623755 
L 118.301945 283.410974 
L 118.74459 283.410974 
L 118.74459 283.198193 
L 119.034004 283.198193 
L 119.034004 282.985412 
L 119.319033 282.985412 
L 119.319033 282.772631 
L 119.738639 282.772631 
L 119.738639 282.347068 
L 120.013265 282.347068 
L 120.013265 282.134287 
L 120.813877 282.134287 
L 120.813877 281.921506 
L 121.455972 281.921506 
L 121.455972 281.708725 
L 121.706797 281.708725 
L 121.706797 281.495944 
L 123.260379 281.495944 
L 123.260379 281.283162 
L 123.601383 281.283162 
L 123.601383 281.070381 
L 124.481616 281.070381 
L 124.588805 280.644819 
L 125.219419 280.644819 
L 125.219419 280.432038 
L 126.420564 280.432038 
L 126.420564 280.219256 
L 127.273627 280.219256 
L 127.273627 280.006475 
L 128.528195 280.006475 
L 128.614685 279.580913 
L 130.107132 279.580913 
L 130.186674 279.155351 
L 130.656987 279.155351 
L 130.656987 278.942569 
L 132.073179 278.942569 
L 132.073179 278.729788 
L 133.05244 278.729788 
L 133.05244 278.517007 
L 133.25581 278.517007 
L 133.25581 278.304226 
L 134.047992 278.304226 
L 134.047992 278.091445 
L 134.240933 278.091445 
L 134.240933 277.453101 
L 134.931919 277.453101 
L 134.931919 277.24032 
L 135.35878 277.24032 
L 135.35878 276.601976 
L 135.538796 276.601976 
L 135.538796 276.176414 
L 135.835047 276.176414 
L 135.835047 275.963633 
L 136.010584 275.963633 
L 136.010584 275.750852 
L 136.584151 275.750852 
L 136.584151 275.538071 
L 136.808769 275.538071 
L 136.808769 275.325289 
L 137.140746 275.325289 
L 137.140746 275.112508 
L 137.358854 275.112508 
L 137.466966 274.686946 
L 137.627979 274.686946 
L 137.627979 274.474165 
L 137.945929 274.474165 
L 138.050729 274.048602 
L 138.868751 274.048602 
L 138.868751 273.835821 
L 139.215746 273.835821 
L 139.215746 273.62304 
L 139.362521 273.62304 
L 139.362521 273.197478 
L 139.652679 273.197478 
L 139.748412 272.771915 
L 140.126547 272.771915 
L 140.126547 272.559134 
L 140.543056 272.559134 
L 140.58877 272.133572 
L 140.770526 272.133572 
L 140.860749 271.282447 
L 140.950542 271.282447 
L 140.950542 271.069666 
L 141.825656 271.069666 
L 141.910969 270.431322 
L 141.953481 270.431322 
L 141.995897 270.00576 
L 142.497568 270.00576 
L 142.497568 269.580198 
L 143.265494 269.580198 
L 143.265494 269.367416 
L 143.811926 269.367416 
L 143.811926 269.154635 
L 144.192739 269.154635 
L 144.2304 268.729073 
L 144.602918 268.729073 
L 144.602918 268.516292 
L 144.749884 268.516292 
L 144.85936 268.090729 
L 144.895711 268.090729 
L 144.895711 267.877948 
L 145.184016 267.877948 
L 145.219746 267.452386 
L 146.294984 267.452386 
L 146.294984 267.239605 
L 146.496179 267.239605 
L 146.496179 267.026824 
L 146.761135 267.026824 
L 146.761135 266.814042 
L 147.119461 266.814042 
L 147.119461 266.601261 
L 147.753975 266.601261 
L 147.753975 266.38848 
L 149.194798 266.38848 
L 149.194798 266.175699 
L 149.820013 266.175699 
L 149.820013 265.750136 
L 150.906118 265.750136 
L 151.011358 265.324574 
L 151.832729 265.324574 
L 151.832729 265.111793 
L 153.328795 265.111793 
L 153.328795 264.899012 
L 155.119618 264.899012 
L 155.119618 264.686231 
L 155.884169 264.686231 
L 155.884169 264.473449 
L 156.225294 264.473449 
L 156.225294 264.260668 
L 156.908716 264.260668 
L 156.908716 263.835106 
L 157.269574 263.835106 
L 157.269574 263.622325 
L 157.605171 263.622325 
L 157.605171 263.409544 
L 157.98928 263.409544 
L 158.07959 262.7712 
L 158.542339 262.7712 
L 158.542339 262.558419 
L 158.752135 262.558419 
L 158.856162 262.132856 
L 159.618554 262.132856 
L 159.618554 261.920075 
L 160.029123 261.920075 
L 160.029123 261.707294 
L 163.109086 261.707294 
L 163.109086 261.494513 
L 164.542535 261.494513 
L 164.542535 261.068951 
L 165.220276 261.068951 
L 165.220276 260.856169 
L 166.8036 260.856169 
L 166.8036 260.643388 
L 167.040085 260.643388 
L 167.040085 260.217826 
L 167.4058 260.217826 
L 167.4058 260.005045 
L 167.602324 260.005045 
L 167.602324 259.792264 
L 167.742992 259.792264 
L 167.839765 259.15392 
L 167.871912 259.15392 
L 167.871912 258.941139 
L 168.221954 258.941139 
L 168.221954 258.728358 
L 169.024318 258.728358 
L 169.024318 258.515576 
L 169.174771 258.515576 
L 169.174771 258.302795 
L 169.383404 258.302795 
L 169.472115 257.877233 
L 169.599518 257.877233 
L 169.599518 257.664452 
L 169.745458 257.664452 
L 169.774511 257.026108 
L 170.864796 257.026108 
L 170.864796 256.813327 
L 171.100737 256.813327 
L 171.100737 256.600546 
L 171.669213 256.600546 
L 171.669213 256.387765 
L 173.003206 256.387765 
L 173.052046 255.962202 
L 173.430302 255.962202 
L 173.430302 255.749421 
L 173.652083 255.749421 
L 173.652083 255.53664 
L 173.863495 255.53664 
L 173.863495 255.323859 
L 174.446132 255.323859 
L 174.446132 255.111078 
L 177.810347 255.111078 
L 177.810347 254.898296 
L 178.889793 254.898296 
L 178.889793 254.685515 
L 179.774658 254.685515 
L 179.774658 254.472734 
L 179.933215 254.472734 
L 179.933215 254.259953 
L 180.213071 254.259953 
L 180.268546 253.834391 
L 180.41202 253.834391 
L 180.41202 253.408828 
L 180.576218 253.408828 
L 180.576218 253.196047 
L 180.825238 253.196047 
L 180.825238 252.983266 
L 181.261129 252.983266 
L 181.261129 252.770485 
L 183.535105 252.770485 
L 183.535105 252.557704 
L 184.594298 252.557704 
L 184.594298 252.344922 
L 185.132303 252.344922 
L 185.132303 252.132141 
L 187.333722 252.132141 
L 187.417245 250.855454 
L 187.485307 250.855454 
L 187.583186 249.578767 
L 187.650651 249.578767 
L 187.755118 248.089299 
L 187.821971 248.089299 
L 187.888587 247.238174 
L 187.969687 247.238174 
L 188.035783 245.535925 
L 188.112602 245.535925 
L 188.210911 244.6848 
L 188.265306 244.6848 
L 188.330373 243.408113 
L 188.445494 243.408113 
L 188.509942 242.344207 
L 188.673646 242.344207 
L 188.744379 241.493082 
L 188.786692 241.493082 
L 188.895562 240.003614 
L 188.913062 240.003614 
L 189.017726 239.152489 
L 189.031638 239.152489 
L 189.104504 238.301365 
L 189.159832 238.301365 
L 189.201221 237.45024 
L 189.290587 237.45024 
L 189.393178 236.173553 
L 189.440862 236.173553 
L 189.549404 235.109647 
L 189.757937 235.109647 
L 189.831381 234.471304 
L 189.934385 234.471304 
L 190.023641 234.045741 
L 190.082911 234.045741 
L 190.155099 233.407398 
L 190.402367 233.407398 
L 190.495868 232.769054 
L 190.515156 232.769054 
L 190.572899 232.343492 
L 190.713308 232.343492 
L 190.779954 231.917929 
L 190.884209 231.917929 
L 190.962806 231.279586 
L 191.075413 231.279586 
L 191.106574 230.428461 
L 191.24307 230.428461 
L 191.24307 230.21568 
L 191.424558 230.21568 
L 191.464312 229.790118 
L 191.598246 229.790118 
L 191.652764 229.151774 
L 192.370781 229.151774 
L 192.449217 228.513431 
L 192.75688 228.513431 
L 192.75688 228.300649 
L 193.079226 228.300649 
L 193.079226 228.087868 
L 193.431944 228.087868 
L 193.481405 227.662306 
L 193.626288 227.662306 
L 193.672525 227.236744 
L 195.560295 227.236744 
L 195.560295 227.023962 
L 196.0478 227.023962 
L 196.0478 226.811181 
L 196.915729 226.811181 
L 196.915729 226.5984 
L 198.470636 226.5984 
L 198.470636 226.385619 
L 199.891165 226.385619 
L 199.891165 226.172838 
L 200.672982 226.172838 
L 200.766367 225.534494 
L 200.955448 225.534494 
L 201.065791 224.896151 
L 201.115235 224.896151 
L 201.188247 224.470588 
L 201.389384 224.470588 
L 201.488255 223.832245 
L 201.534814 223.832245 
L 201.643598 223.193901 
L 201.656041 223.193901 
L 201.755292 222.129995 
L 201.820583 222.129995 
L 201.896177 221.491652 
L 202.029047 221.491652 
L 202.07255 220.853308 
L 202.17482 220.853308 
L 202.195553 220.427746 
L 202.288569 220.427746 
L 202.288569 220.214965 
L 202.47153 220.214965 
L 202.566581 219.36384 
L 202.651044 219.36384 
L 202.761958 218.725496 
L 203.006667 218.725496 
L 203.006667 218.512715 
L 203.186085 218.512715 
L 203.21882 218.087153 
L 203.407572 218.087153 
L 203.407572 217.874372 
L 203.765195 217.874372 
L 203.793768 217.448809 
L 203.94857 217.448809 
L 203.94857 217.236028 
L 204.28997 217.236028 
L 204.28997 217.023247 
L 204.462201 217.023247 
L 204.462201 216.810466 
L 205.750367 216.810466 
L 205.750367 216.597685 
L 207.14139 216.597685 
L 207.14139 216.384904 
L 207.38933 216.384904 
L 207.38933 216.172122 
L 208.425441 216.172122 
L 208.529311 215.320998 
L 208.558883 215.320998 
L 208.639968 214.469873 
L 208.956033 214.469873 
L 209.054624 213.831529 
L 209.082185 213.831529 
L 209.133604 213.405967 
L 209.529452 213.405967 
L 209.630907 212.767624 
L 209.956047 212.767624 
L 209.956047 212.554842 
L 210.101794 212.554842 
L 210.191187 212.12928 
L 210.235162 212.12928 
L 210.235162 211.916499 
L 210.911006 211.916499 
L 210.911006 211.703718 
L 211.315155 211.703718 
L 211.315155 211.490936 
L 211.639864 211.490936 
L 211.700388 211.065374 
L 211.755525 211.065374 
L 211.755525 210.852593 
L 212.188867 210.852593 
L 212.188867 210.639812 
L 213.286087 210.639812 
L 213.286087 210.427031 
L 213.418728 210.427031 
L 213.473799 209.788687 
L 213.66435 209.788687 
L 213.66435 209.575906 
L 213.77944 209.575906 
L 213.77944 209.363125 
L 213.933657 209.363125 
L 213.933657 209.150344 
L 214.330977 209.150344 
L 214.368081 208.512 
L 214.499618 208.512 
L 214.499618 208.299219 
L 215.175059 208.299219 
L 215.208808 207.873656 
L 215.392924 207.873656 
L 215.401484 207.448094 
L 215.547254 207.448094 
L 215.547254 207.235313 
L 215.740715 207.235313 
L 215.740715 207.022532 
L 217.114739 207.022532 
L 217.114739 206.809751 
L 217.240882 206.809751 
L 217.285839 206.171407 
L 217.519736 206.171407 
L 217.629523 205.533064 
L 218.021468 205.533064 
L 218.021468 205.320282 
L 218.793829 205.320282 
L 218.816682 204.89472 
L 218.932656 204.89472 
L 219.040868 204.469158 
L 220.906492 204.469158 
L 220.906492 204.256376 
L 221.204918 204.256376 
L 221.204918 204.043595 
L 221.92274 204.043595 
L 221.92274 203.830814 
L 223.931701 203.830814 
L 223.931701 203.618033 
L 224.536351 203.618033 
L 224.536351 203.405252 
L 224.872965 203.405252 
L 224.872965 203.192471 
L 226.271078 203.192471 
L 226.271078 202.979689 
L 227.069269 202.979689 
L 227.170709 202.341346 
L 227.205468 202.341346 
L 227.205468 202.128565 
L 227.409064 202.128565 
L 227.409064 201.915784 
L 229.297987 201.915784 
L 229.389341 201.27744 
L 229.96152 201.27744 
L 229.96152 201.064659 
L 231.385041 201.064659 
L 231.385041 200.851878 
L 232.645522 200.851878 
L 232.750959 198.511285 
L 232.763544 198.511285 
L 232.870691 196.170692 
L 232.94459 196.170692 
L 233.036308 195.106786 
L 233.063769 195.106786 
L 233.170555 194.255661 
L 233.2131 194.255661 
L 233.322014 193.617318 
L 233.356642 193.617318 
L 233.402056 192.978974 
L 233.651838 192.978974 
L 233.651838 192.766193 
L 234.305281 192.766193 
L 234.396538 191.702287 
L 234.430178 191.702287 
L 234.533835 189.361694 
L 234.541571 189.361694 
L 234.630151 187.233882 
L 234.672289 187.233882 
L 234.752917 185.957195 
L 234.792338 185.957195 
L 234.891291 184.893289 
L 234.921331 184.893289 
L 235.010861 184.042165 
L 235.183869 184.042165 
L 235.26353 183.616602 
L 235.834731 183.616602 
L 235.938132 182.552696 
L 235.951914 182.552696 
L 236.028108 181.701572 
L 236.108834 181.701572 
L 236.183829 179.360979 
L 236.256267 179.360979 
L 236.35654 178.509854 
L 236.370862 178.509854 
L 236.453208 177.445948 
L 236.548268 177.445948 
L 236.582995 177.020386 
L 236.79633 177.020386 
L 236.899778 176.594824 
L 237.098772 176.594824 
L 237.098772 176.382042 
L 237.222049 176.382042 
L 237.30904 175.530918 
L 237.400415 175.530918 
L 237.505095 174.679793 
L 237.516192 174.679793 
L 237.565254 174.041449 
L 237.639134 174.041449 
L 237.701482 173.403106 
L 237.766491 173.403106 
L 237.860604 172.3392 
L 238.012475 172.3392 
L 238.054103 171.700856 
L 238.198569 171.700856 
L 238.222751 171.275294 
L 238.321448 171.275294 
L 238.321448 171.062513 
L 238.794729 171.062513 
L 238.897596 170.211388 
L 238.953958 170.211388 
L 239.029902 169.573045 
L 239.098986 169.573045 
L 239.098986 169.360264 
L 239.247001 169.360264 
L 239.247001 169.147482 
L 239.365154 169.147482 
L 239.365154 168.934701 
L 239.636106 168.934701 
L 239.636106 168.72192 
L 240.005528 168.72192 
L 240.005528 168.509139 
L 240.215147 168.509139 
L 240.215147 168.296358 
L 240.614517 168.296358 
L 240.614517 168.083576 
L 240.838757 168.083576 
L 240.838757 167.870795 
L 241.157673 167.870795 
L 241.259686 167.232452 
L 241.365454 167.232452 
L 241.46271 166.168546 
L 241.541561 166.168546 
L 241.541561 165.955765 
L 241.794043 165.955765 
L 241.794043 165.742984 
L 242.259119 165.742984 
L 242.259119 165.530202 
L 242.573604 165.530202 
L 242.573604 165.317421 
L 243.43528 165.317421 
L 243.43528 165.10464 
L 243.566709 165.10464 
L 243.566709 164.891859 
L 244.821734 164.891859 
L 244.913577 163.827953 
L 244.939584 163.827953 
L 245.003555 162.125704 
L 245.092399 162.125704 
L 245.180648 161.700141 
L 245.727761 161.700141 
L 245.798468 159.572329 
L 245.843649 159.572329 
L 245.9509 157.444518 
L 245.959164 157.444518 
L 246.053517 156.380612 
L 246.092232 156.380612 
L 246.193417 155.742268 
L 246.22985 155.742268 
L 246.22985 155.529487 
L 246.529604 155.529487 
L 246.585627 155.103925 
L 246.658224 155.103925 
L 246.728114 153.827238 
L 246.77338 153.827238 
L 246.875473 151.486645 
L 246.908526 151.486645 
L 246.977175 150.422739 
L 247.076424 150.422739 
L 247.109602 149.997176 
L 247.380761 149.997176 
L 247.48786 148.720489 
L 247.493611 148.720489 
L 247.592653 147.656584 
L 247.627865 147.656584 
L 247.627865 147.443802 
L 247.761168 147.443802 
L 247.811965 146.805459 
L 247.878314 146.805459 
L 247.968083 146.167115 
L 248.174546 146.167115 
L 248.278424 145.741553 
L 248.291536 145.741553 
L 248.389883 144.677647 
L 248.428221 144.677647 
L 248.446991 144.039304 
L 248.873039 144.039304 
L 248.873039 143.826522 
L 249.085426 143.826522 
L 249.161951 142.549835 
L 249.20258 142.549835 
L 249.20258 142.337054 
L 249.347617 142.337054 
L 249.359864 141.911492 
L 249.632575 141.911492 
L 249.725137 141.273148 
L 249.814637 141.273148 
L 249.834133 140.634805 
L 249.939635 140.634805 
L 250.037898 139.570899 
L 250.106054 139.570899 
L 250.11268 139.145336 
L 250.468003 139.145336 
L 250.529861 138.506993 
L 250.634699 138.506993 
L 250.634699 138.294212 
L 251.053965 138.294212 
L 251.053965 138.081431 
L 251.353535 138.081431 
L 251.353535 137.868649 
L 251.954677 137.868649 
L 251.984689 137.443087 
L 252.15515 137.443087 
L 252.252781 136.379181 
L 252.297013 136.379181 
L 252.390439 135.528056 
L 252.754636 135.528056 
L 252.818793 134.251369 
L 252.87573 134.251369 
L 252.969004 132.54912 
L 253.044934 132.54912 
L 253.096346 131.910776 
L 253.349043 131.910776 
L 253.349043 131.697995 
L 253.460839 131.697995 
L 253.549686 129.782965 
L 253.635538 129.782965 
L 253.70883 128.93184 
L 253.807963 128.93184 
L 253.807963 128.719059 
L 253.955689 128.719059 
L 254.034553 127.442372 
L 254.104998 127.442372 
L 254.210772 126.804028 
L 254.272434 126.804028 
L 254.297237 126.165685 
L 254.441615 126.165685 
L 254.552032 124.037873 
L 254.580629 124.037873 
L 254.638541 122.761186 
L 254.715129 122.761186 
L 254.768514 122.122842 
L 254.892666 122.122842 
L 254.894449 121.69728 
L 255.070829 121.69728 
L 255.159747 121.058936 
L 255.255654 121.058936 
L 255.33715 120.420593 
L 255.553946 120.420593 
L 255.553946 120.207812 
L 255.795178 120.207812 
L 255.854757 118.931125 
L 256.002933 118.931125 
L 256.063731 118.505562 
L 256.143967 118.505562 
L 256.239878 117.654438 
L 256.26495 117.654438 
L 256.323159 117.228875 
L 256.394457 117.228875 
L 256.394457 117.016094 
L 256.535287 117.016094 
L 256.535287 116.803313 
L 256.794498 116.803313 
L 256.794498 116.590532 
L 257.300414 116.590532 
L 257.300414 116.377751 
L 257.604551 116.377751 
L 257.604551 116.164969 
L 257.93135 116.164969 
L 258.039714 115.313845 
L 258.051863 115.313845 
L 258.115676 114.675501 
L 258.216132 114.675501 
L 258.216132 114.46272 
L 258.332133 114.46272 
L 258.423448 113.611595 
L 258.462782 113.611595 
L 258.476829 112.760471 
L 258.633061 112.760471 
L 258.738835 111.909346 
L 258.766338 111.909346 
L 258.852601 110.84544 
L 258.887318 110.84544 
L 258.91469 110.419878 
L 259.040864 110.419878 
L 259.101498 109.994315 
L 259.250484 109.994315 
L 259.319565 108.292066 
L 259.372698 108.292066 
L 259.453927 107.22816 
L 259.516526 107.22816 
L 259.599261 106.589816 
L 259.720859 106.589816 
L 259.819335 105.525911 
L 259.881858 105.525911 
L 259.901313 104.674786 
L 260.107334 104.674786 
L 260.197802 103.61088 
L 260.246542 103.61088 
L 260.28075 102.972536 
L 260.430486 102.972536 
L 260.513272 102.546974 
L 260.551502 102.546974 
L 260.662565 100.631944 
L 261.025206 100.631944 
L 261.068302 100.206381 
L 261.262667 100.206381 
L 261.360997 99.142475 
L 261.409118 99.142475 
L 261.409118 98.929694 
L 261.652576 98.929694 
L 261.652576 98.716913 
L 261.778444 98.716913 
L 261.844723 98.291351 
L 261.910986 98.291351 
L 262.01684 97.653007 
L 262.077849 97.653007 
L 262.093946 97.014664 
L 262.37059 97.014664 
L 262.471723 95.950758 
L 262.530369 95.950758 
L 262.530369 95.737976 
L 262.668975 95.737976 
L 262.766106 94.461289 
L 262.882567 94.461289 
L 262.882567 94.248508 
L 263.066685 94.248508 
L 263.171652 93.397384 
L 263.325064 93.397384 
L 263.424472 92.546259 
L 263.468131 92.546259 
L 263.560901 91.907915 
L 263.645579 91.907915 
L 263.733089 91.269572 
L 263.826718 91.269572 
L 263.871926 89.780104 
L 263.940314 89.780104 
L 264.038724 89.14176 
L 264.069461 89.14176 
L 264.166943 87.865073 
L 264.210959 87.865073 
L 264.210959 87.652292 
L 264.527848 87.652292 
L 264.527848 87.439511 
L 264.650602 87.439511 
L 264.705146 86.588386 
L 264.838066 86.588386 
L 264.94561 86.162824 
L 265.117083 86.162824 
L 265.197538 85.311699 
L 265.490128 85.311699 
L 265.575842 84.460574 
L 265.620539 84.460574 
L 265.719351 84.035012 
L 265.80444 84.035012 
L 265.886165 83.183887 
L 265.925933 83.183887 
L 265.925933 82.971106 
L 266.04653 82.971106 
L 266.04653 82.758325 
L 266.16008 82.758325 
L 266.266247 82.119981 
L 266.307678 82.119981 
L 266.341887 81.694419 
L 266.419042 81.694419 
L 266.52201 81.056075 
L 266.549287 81.056075 
L 266.657551 79.779388 
L 266.663441 79.779388 
L 266.746664 78.928264 
L 266.785436 78.928264 
L 266.881821 77.864358 
L 267.092433 77.864358 
L 267.092433 77.651576 
L 267.274776 77.651576 
L 267.348855 76.587671 
L 267.401028 76.587671 
L 267.491689 75.949327 
L 267.536079 75.949327 
L 267.63531 74.67264 
L 267.82378 74.67264 
L 267.919725 74.247078 
L 267.971491 74.247078 
L 268.070176 73.821515 
L 268.151457 73.821515 
L 268.154411 73.395953 
L 268.276406 73.395953 
L 268.361212 72.544828 
L 268.424043 72.544828 
L 268.528364 71.693704 
L 268.602534 71.693704 
L 268.69349 71.05536 
L 268.87873 71.05536 
L 268.918825 70.417016 
L 269.083187 70.417016 
L 269.189371 69.991454 
L 269.21608 69.991454 
L 269.308121 69.353111 
L 269.354265 69.353111 
L 269.441908 68.501986 
L 269.469083 68.501986 
L 269.496267 67.863642 
L 269.597655 67.863642 
L 269.597655 67.650861 
L 269.732217 67.650861 
L 269.818264 66.374174 
L 269.852193 66.374174 
L 269.9076 65.523049 
L 269.985141 65.523049 
L 270.016191 65.097487 
L 270.184028 65.097487 
L 270.24598 64.459144 
L 270.425341 64.459144 
L 270.425341 64.246362 
L 270.539483 64.246362 
L 270.539483 64.033581 
L 270.667769 64.033581 
L 270.757637 63.395238 
L 270.830006 63.395238 
L 270.830006 63.182456 
L 270.955439 63.182456 
L 270.982031 62.331332 
L 271.227338 62.331332 
L 271.249505 61.905769 
L 271.4063 61.905769 
L 271.497749 61.480207 
L 271.539738 61.480207 
L 271.560502 60.841864 
L 271.702382 60.841864 
L 271.77023 60.20352 
L 271.893687 60.20352 
L 271.947386 59.352395 
L 272.040674 59.352395 
L 272.119489 58.501271 
L 272.2212 58.501271 
L 272.236805 57.862927 
L 272.644681 57.862927 
L 272.681255 57.011802 
L 272.774672 57.011802 
L 272.859235 56.160678 
L 272.919423 56.160678 
L 272.961248 55.522334 
L 273.042422 55.522334 
L 273.057201 55.096772 
L 273.219606 55.096772 
L 273.219606 54.883991 
L 273.361341 54.883991 
L 273.361341 54.671209 
L 273.877016 54.671209 
L 273.986596 53.820085 
L 274.08836 53.820085 
L 274.198147 53.394522 
L 274.2155 53.394522 
L 274.2155 53.181741 
L 274.354872 53.181741 
L 274.436014 52.117835 
L 274.532318 52.117835 
L 274.612222 50.841148 
L 274.693215 50.841148 
L 274.751323 50.202805 
L 274.822199 50.202805 
L 274.888752 49.138899 
L 274.94366 49.138899 
L 275.036652 48.074993 
L 275.166024 48.074993 
L 275.256505 47.436649 
L 275.281355 47.436649 
L 275.281355 47.223868 
L 275.537129 47.223868 
L 275.537129 47.011087 
L 275.651257 47.011087 
L 275.651257 46.798306 
L 275.810317 46.798306 
L 275.810317 46.585525 
L 275.972489 46.585525 
L 275.972489 46.372744 
L 276.246146 46.372744 
L 276.314606 45.7344 
L 276.487718 45.7344 
L 276.487718 45.521619 
L 276.635366 45.521619 
L 276.662054 45.096056 
L 276.757412 45.096056 
L 276.757412 44.883275 
L 276.929927 44.883275 
L 277.037517 44.032151 
L 277.086152 44.032151 
L 277.165722 43.393807 
L 277.231785 43.393807 
L 277.304531 42.968245 
L 277.644808 42.968245 
L 277.741145 42.11712 
L 277.811859 42.11712 
L 277.811859 41.904339 
L 277.951139 41.904339 
L 277.988687 41.478776 
L 278.473968 41.478776 
L 278.491743 41.053214 
L 278.641889 41.053214 
L 278.641889 40.840433 
L 278.762152 40.840433 
L 278.866088 39.776527 
L 278.9242 39.776527 
L 278.997833 39.350965 
L 279.055859 39.350965 
L 279.066625 38.925402 
L 279.899888 38.925402 
L 279.914064 38.49984 
L 280.093959 38.49984 
L 280.196055 38.074278 
L 280.216261 38.074278 
L 280.264121 37.435934 
L 280.668225 37.435934 
L 280.668225 37.223153 
L 280.859447 37.223153 
L 280.948665 36.584809 
L 281.048092 36.584809 
L 281.048092 36.372028 
L 281.229616 36.372028 
L 281.34025 35.733685 
L 281.526704 35.733685 
L 281.592641 34.88256 
L 281.7625 34.88256 
L 281.7625 34.669779 
L 282.445167 34.669779 
L 282.51915 34.031435 
L 282.876519 34.031435 
L 282.895297 33.605873 
L 283.027724 33.605873 
L 283.027724 33.393092 
L 283.390777 33.393092 
L 283.390777 33.180311 
L 283.892988 33.180311 
L 283.892988 32.967529 
L 284.057063 32.967529 
L 284.057063 32.754748 
L 284.400937 32.754748 
L 284.490146 32.329186 
L 285.162105 32.329186 
L 285.162105 32.116405 
L 286.097693 32.116405 
L 286.097693 31.903624 
L 286.338416 31.903624 
L 286.338416 31.690842 
L 286.769097 31.690842 
L 286.769097 31.478061 
L 287.273569 31.478061 
L 287.273569 31.26528 
L 287.731108 31.26528 
L 287.731108 31.052499 
L 287.974291 31.052499 
L 287.974291 30.839718 
L 288.239843 30.839718 
L 288.276114 30.414155 
L 288.77458 30.414155 
L 288.77458 30.201374 
L 289.131974 30.201374 
L 289.131974 29.988593 
L 289.736534 29.988593 
L 289.736534 29.775812 
L 290.163819 29.775812 
L 290.236835 29.350249 
L 290.701808 29.350249 
L 290.701808 29.137468 
L 290.868004 29.137468 
L 290.868004 28.924687 
L 291.034035 28.924687 
L 291.034035 28.711906 
L 291.31464 28.711906 
L 291.31464 28.499125 
L 294.538343 28.499125 
L 294.538343 28.286344 
L 297.170805 28.286344 
L 297.170805 28.073562 
L 297.666296 28.073562 
L 297.666296 27.860781 
L 298.45729 27.860781 
L 298.45729 27.648 
L 360.8064 27.648 
L 360.8064 27.648 
" style="fill: none; stroke: #000080; stroke-width: 1.5; stroke-linecap: square"/>
   </g>
   <g id="line2d_36">
    <defs>
     <path id="m01a3afff2a" d="M 0 6 
C 1.591219 6 3.117479 5.367802 4.242641 4.242641 
C 5.367802 3.117479 6 1.591219 6 0 
C 6 -1.591219 5.367802 -3.117479 4.242641 -4.242641 
C 3.117479 -5.367802 1.591219 -6 0 -6 
C -1.591219 -6 -3.117479 -5.367802 -4.242641 -4.242641 
C -5.367802 -3.117479 -6 -1.591219 -6 0 
C -6 1.591219 -5.367802 3.117479 -4.242641 4.242641 
C -3.117479 5.367802 -1.591219 6 0 6 
z
" style="stroke: #000080; stroke-width: 1.5"/>
    </defs>
    <g>
     <use xlink:href="#m01a3afff2a" x="105.559021" y="288.304941" style="fill-opacity: 0; stroke: #000080; stroke-width: 1.5"/>
     <use xlink:href="#m01a3afff2a" x="187.417245" y="250.855454" style="fill-opacity: 0; stroke: #000080; stroke-width: 1.5"/>
     <use xlink:href="#m01a3afff2a" x="246.77338" y="153.827238" style="fill-opacity: 0; stroke: #000080; stroke-width: 1.5"/>
     <use xlink:href="#m01a3afff2a" x="283.390777" y="33.180311" style="fill-opacity: 0; stroke: #000080; stroke-width: 1.5"/>
     <use xlink:href="#m01a3afff2a" x="298.45729" y="27.648" style="fill-opacity: 0; stroke: #000080; stroke-width: 1.5"/>
     <use xlink:href="#m01a3afff2a" x="360.8064" y="27.648" style="fill-opacity: 0; stroke: #000080; stroke-width: 1.5"/>
    </g>
   </g>
   <g id="line2d_37">
    <path style="fill: none; stroke: #000080; stroke-width: 1.5; stroke-linecap: square"/>
    <g/>
   </g>
   <g id="line2d_38">
    <path d="M 144.454795 268.729073 
" clip-path="url(#p8327961735)" style="fill: none; stroke: #000080; stroke-width: 1.5; stroke-linecap: square"/>
    <defs>
     <path id="m1e0d668657" d="M -12 12 
L 12 -12 
M -12 -12 
L 12 12 
" style="stroke: #000080"/>
    </defs>
    <g clip-path="url(#p8327961735)">
     <use xlink:href="#m1e0d668657" x="144.454795" y="268.729073" style="fill: #000080; stroke: #000080"/>
    </g>
   </g>
   <g id="line2d_39">
    <defs>
     <path id="m371b2428f5" d="M 0 1.5 
C 0.397805 1.5 0.77937 1.341951 1.06066 1.06066 
C 1.341951 0.77937 1.5 0.397805 1.5 0 
C 1.5 -0.397805 1.341951 -0.77937 1.06066 -1.06066 
C 0.77937 -1.341951 0.397805 -1.5 0 -1.5 
C -0.397805 -1.5 -0.77937 -1.341951 -1.06066 -1.06066 
C -1.341951 -0.77937 -1.5 -0.397805 -1.5 0 
C -1.5 0.397805 -1.341951 0.77937 -1.06066 1.06066 
C -0.77937 1.341951 -0.397805 1.5 0 1.5 
z
" style="stroke: #ff00ff"/>
    </defs>
    <g>
     <use xlink:href="#m371b2428f5" x="254.573484" y="240.429176" style="fill: #ff00ff; stroke: #ff00ff"/>
     <use xlink:href="#m371b2428f5" x="254.573484" y="240.429176" style="fill: #ff00ff; stroke: #ff00ff"/>
    </g>
   </g>
   <g id="line2d_40">
    <path d="M 27.323974 298.944 
L 27.323974 297.880094 
L 40.363149 297.880094 
L 40.363149 297.667313 
L 53.402323 297.667313 
L 53.402323 297.454532 
L 57.6 297.454532 
L 57.6 297.028969 
L 63.929565 297.028969 
L 63.929565 296.390626 
L 66.441498 296.390626 
L 66.441498 296.177845 
L 70.639174 296.177845 
L 70.639174 295.965064 
L 72.432107 295.965064 
L 72.432107 295.752282 
L 74.068926 295.752282 
L 74.068926 295.539501 
L 75.574654 295.539501 
L 75.574654 295.32672 
L 81.696354 295.32672 
L 81.696354 294.688376 
L 82.713442 294.688376 
L 82.713442 294.262814 
L 85.471281 294.262814 
L 85.471281 294.050033 
L 87.1081 294.050033 
L 87.1081 293.837252 
L 88.613828 293.837252 
L 88.613828 293.198908 
L 89.323782 293.198908 
L 89.323782 292.773346 
L 90.668036 292.773346 
L 90.668036 292.560565 
L 92.519847 292.560565 
L 92.519847 292.347784 
L 93.66029 292.347784 
L 93.66029 292.135002 
L 94.735529 292.135002 
L 94.735529 291.70944 
L 95.250946 291.70944 
L 95.250946 291.496659 
L 96.241256 291.496659 
L 96.241256 291.071096 
L 97.18203 291.071096 
L 97.18203 290.858315 
L 97.635342 290.858315 
L 97.635342 290.645534 
L 98.510456 290.645534 
L 98.510456 290.432753 
L 98.933205 290.432753 
L 98.933205 290.219972 
L 100.9152 290.219972 
L 100.9152 289.794409 
L 101.287718 289.794409 
L 101.287718 289.581628 
L 102.708132 289.581628 
L 102.708132 289.368847 
L 103.380045 289.368847 
L 103.380045 288.943285 
L 104.028784 288.943285 
L 104.028784 288.730504 
L 104.344952 288.730504 
L 104.344952 288.517722 
L 104.961779 288.517722 
L 104.961779 288.304941 
L 105.850679 288.304941 
L 105.850679 288.09216 
L 106.42077 288.09216 
L 106.42077 287.666598 
L 107.774703 287.666598 
L 107.774703 287.453816 
L 108.29012 287.453816 
L 108.29012 287.241035 
L 109.037698 287.241035 
L 109.037698 287.028254 
L 109.756698 287.028254 
L 109.756698 286.602692 
L 110.674517 286.602692 
L 110.674517 286.177129 
L 111.117162 286.177129 
L 111.117162 285.964348 
L 111.334639 285.964348 
L 111.334639 285.751567 
L 111.54963 285.751567 
L 111.54963 285.538786 
L 114.141556 285.538786 
L 114.141556 285.326005 
L 114.872193 285.326005 
L 114.872193 285.113224 
L 116.086263 285.113224 
L 116.086263 284.900442 
L 116.746385 284.900442 
L 116.746385 284.687661 
L 116.907859 284.687661 
L 116.907859 284.47488 
L 117.067958 284.47488 
L 117.067958 284.049318 
L 118.000953 284.049318 
L 118.000953 283.836536 
L 119.319033 283.836536 
L 119.319033 283.623755 
L 120.41783 283.623755 
L 120.41783 283.410974 
L 120.944062 283.410974 
L 120.944062 283.198193 
L 122.795872 283.198193 
L 122.795872 282.772631 
L 123.029559 282.772631 
L 123.029559 282.134287 
L 123.374735 282.134287 
L 123.374735 281.495944 
L 123.601383 281.495944 
L 123.601383 281.283162 
L 124.481616 281.283162 
L 124.481616 281.070381 
L 124.695386 281.070381 
L 124.695386 280.644819 
L 125.219419 280.644819 
L 125.219419 280.219256 
L 125.829577 280.219256 
L 125.829577 280.006475 
L 126.028642 280.006475 
L 126.028642 279.793694 
L 126.225624 279.793694 
L 126.225624 279.580913 
L 126.420564 279.580913 
L 126.420564 279.368132 
L 127.087372 279.368132 
L 127.087372 279.155351 
L 128.178203 279.155351 
L 128.178203 278.942569 
L 128.528195 278.942569 
L 128.528195 278.729788 
L 128.786481 278.729788 
L 128.786481 278.517007 
L 128.956723 278.517007 
L 128.956723 278.304226 
L 129.292652 278.304226 
L 129.292652 278.091445 
L 129.622688 278.091445 
L 129.622688 277.878664 
L 130.186674 277.878664 
L 130.186674 277.665882 
L 130.501519 277.665882 
L 130.501519 277.453101 
L 130.656987 277.453101 
L 130.734242 277.027539 
L 131.783764 277.027539 
L 131.783764 276.814758 
L 132.001241 276.814758 
L 132.001241 276.601976 
L 132.984158 276.601976 
L 133.05244 276.176414 
L 133.188264 276.176414 
L 133.25581 275.750852 
L 133.390178 275.750852 
L 133.390178 275.538071 
L 133.983236 275.538071 
L 133.983236 275.325289 
L 134.304809 275.325289 
L 134.368469 274.899727 
L 135.893741 274.899727 
L 135.952253 274.474165 
L 136.356818 274.474165 
L 136.356818 274.261384 
L 136.640557 274.261384 
L 136.696795 273.835821 
L 137.304564 273.835821 
L 137.358854 273.410259 
L 137.466966 273.410259 
L 137.574461 272.984696 
L 138.258593 272.984696 
L 138.258593 272.771915 
L 138.818654 272.771915 
L 138.818654 272.559134 
L 139.018248 272.559134 
L 139.018248 272.133572 
L 139.362521 272.133572 
L 139.362521 271.920791 
L 139.843661 271.920791 
L 139.843661 271.495228 
L 140.079694 271.495228 
L 140.079694 271.282447 
L 140.219905 271.282447 
L 140.219905 271.069666 
L 140.405242 271.069666 
L 140.405242 270.856885 
L 140.634374 270.856885 
L 140.634374 270.644104 
L 140.815692 270.644104 
L 140.815692 270.431322 
L 140.995278 270.431322 
L 140.995278 270.218541 
L 141.261484 270.218541 
L 141.305488 269.580198 
L 141.610664 269.580198 
L 141.610664 269.367416 
L 141.782854 269.367416 
L 141.782854 269.154635 
L 142.080444 269.154635 
L 142.080444 268.941854 
L 142.45627 268.941854 
L 142.45627 268.729073 
L 143.066428 268.729073 
L 143.066428 268.516292 
L 143.265494 268.516292 
L 143.265494 268.303511 
L 143.850356 268.303511 
L 143.888708 267.877948 
L 145.397382 267.877948 
L 145.397382 267.665167 
L 147.216013 267.665167 
L 147.312072 267.239605 
L 148.185734 267.239605 
L 148.185734 267.026824 
L 148.697031 267.026824 
L 148.697031 266.814042 
L 150.234685 266.814042 
L 150.234685 266.601261 
L 150.985103 266.601261 
L 150.985103 266.38848 
L 153.989717 266.38848 
L 153.989717 266.175699 
L 154.714595 266.175699 
L 154.73613 265.750136 
L 154.86483 265.750136 
L 154.950144 265.324574 
L 156.383708 265.324574 
L 156.383708 265.111793 
L 156.870325 265.111793 
L 156.927882 264.473449 
L 158.873444 264.473449 
L 158.873444 264.260668 
L 160.271232 264.260668 
L 160.271232 264.047887 
L 160.636516 264.047887 
L 160.636516 263.835106 
L 163.081483 263.835106 
L 163.081483 263.622325 
L 164.884457 263.622325 
L 164.884457 263.409544 
L 167.678199 263.409544 
L 167.678199 263.196762 
L 167.861203 263.196762 
L 167.861203 262.983981 
L 168.148245 262.983981 
L 168.148245 262.7712 
L 168.274427 262.7712 
L 168.274427 262.558419 
L 168.430973 262.558419 
L 168.534619 261.707294 
L 168.565601 261.707294 
L 168.637696 261.068951 
L 169.114734 261.068951 
L 169.214689 260.217826 
L 169.264469 260.217826 
L 169.264469 260.005045 
L 169.383404 260.005045 
L 169.383404 259.792264 
L 169.570194 259.792264 
L 169.570194 259.579482 
L 169.745458 259.579482 
L 169.764832 259.15392 
L 169.9383 259.15392 
L 169.9383 258.941139 
L 170.261661 258.941139 
L 170.365099 258.302795 
L 170.791599 258.302795 
L 170.791599 258.090014 
L 172.599527 258.090014 
L 172.599527 257.877233 
L 173.278305 257.877233 
L 173.278305 257.664452 
L 173.438268 257.664452 
L 173.438268 257.451671 
L 173.75417 257.451671 
L 173.847916 257.026108 
L 174.589015 257.026108 
L 174.589015 256.813327 
L 174.930512 256.813327 
L 174.930512 256.600546 
L 176.838794 256.600546 
L 176.838794 256.387765 
L 178.228607 256.387765 
L 178.228607 256.174984 
L 179.273294 256.174984 
L 179.273294 255.962202 
L 179.876741 255.962202 
L 179.876741 255.749421 
L 181.55311 255.749421 
L 181.55311 255.53664 
L 181.728198 255.53664 
L 181.728198 255.323859 
L 181.845723 255.323859 
L 181.845723 255.111078 
L 184.07668 255.111078 
L 184.07668 254.898296 
L 184.404079 254.898296 
L 184.479512 254.472734 
L 184.620688 254.472734 
L 184.655817 254.047172 
L 184.869562 254.047172 
L 184.869562 253.834391 
L 185.01646 253.834391 
L 185.01646 253.621609 
L 186.816825 253.621609 
L 186.816825 253.408828 
L 189.104504 253.408828 
L 189.163284 252.983266 
L 189.461261 252.983266 
L 189.461261 252.770485 
L 190.937691 252.770485 
L 190.956531 252.344922 
L 191.409245 252.344922 
L 191.409245 252.132141 
L 191.552694 252.132141 
L 191.552694 251.91936 
L 191.869267 251.91936 
L 191.920025 251.493798 
L 192.62523 251.493798 
L 192.62523 251.281016 
L 193.048362 251.281016 
L 193.048362 251.068235 
L 195.13788 251.068235 
L 195.13788 250.855454 
L 196.019047 250.855454 
L 196.112333 250.217111 
L 196.140944 250.217111 
L 196.140944 250.004329 
L 196.452823 250.004329 
L 196.452823 249.791548 
L 197.230869 249.791548 
L 197.320586 249.365986 
L 197.369749 249.365986 
L 197.407651 248.940424 
L 198.415828 248.940424 
L 198.415828 248.727642 
L 199.215561 248.727642 
L 199.215561 248.514861 
L 199.418801 248.514861 
L 199.418801 248.30208 
L 201.28999 248.30208 
L 201.28999 248.089299 
L 201.55805 248.089299 
L 201.55805 247.876518 
L 202.04472 247.876518 
L 202.04472 247.663736 
L 205.328268 247.663736 
L 205.411411 247.238174 
L 205.9027 247.238174 
L 205.9027 247.025393 
L 206.052402 247.025393 
L 206.052402 246.812612 
L 208.974107 246.812612 
L 208.974107 246.599831 
L 213.282256 246.599831 
L 213.282256 246.387049 
L 214.565044 246.387049 
L 214.565044 246.174268 
L 214.732496 246.174268 
L 214.732496 245.961487 
L 215.189777 245.961487 
L 215.189777 245.748706 
L 219.073281 245.748706 
L 219.073281 245.535925 
L 220.001825 245.535925 
L 220.001825 245.323144 
L 220.128052 245.323144 
L 220.128052 245.110362 
L 220.461231 245.110362 
L 220.461231 244.897581 
L 223.723921 244.897581 
L 223.723921 244.6848 
L 224.230034 244.6848 
L 224.230034 244.472019 
L 225.827964 244.472019 
L 225.855967 244.046456 
L 226.018733 244.046456 
L 226.11049 243.620894 
L 226.484984 243.620894 
L 226.484984 243.408113 
L 227.647114 243.408113 
L 227.647114 243.195332 
L 228.36434 243.195332 
L 228.392245 242.769769 
L 230.25404 242.769769 
L 230.25404 242.556988 
L 231.284887 242.556988 
L 231.284887 242.344207 
L 234.143562 242.344207 
L 234.143562 242.131426 
L 237.464352 242.131426 
L 237.464352 241.918645 
L 241.523426 241.918645 
L 241.523426 241.705864 
L 242.308931 241.705864 
L 242.308931 241.493082 
L 242.635875 241.493082 
L 242.635875 241.280301 
L 246.616262 241.280301 
L 246.616262 241.06752 
L 250.124034 241.06752 
L 250.124034 240.854739 
L 250.933202 240.854739 
L 250.933202 240.641958 
L 254.573484 240.641958 
L 254.573484 240.429176 
L 360.8064 240.429176 
L 360.8064 240.429176 
" style="fill: none; stroke: #ff00ff; stroke-width: 1.5; stroke-linecap: square"/>
   </g>
   <g id="line2d_41">
    <defs>
     <path id="m0a0c928496" d="M -0 8.485281 
L 5.091169 0 
L 0 -8.485281 
L -5.091169 -0 
z
" style="stroke: #ff00ff; stroke-width: 1.5; stroke-linejoin: miter"/>
    </defs>
    <g>
     <use xlink:href="#m0a0c928496" x="92.519847" y="292.560565" style="fill-opacity: 0; stroke: #ff00ff; stroke-width: 1.5; stroke-linejoin: miter"/>
     <use xlink:href="#m0a0c928496" x="179.876741" y="255.749421" style="fill-opacity: 0; stroke: #ff00ff; stroke-width: 1.5; stroke-linejoin: miter"/>
     <use xlink:href="#m0a0c928496" x="237.464352" y="242.131426" style="fill-opacity: 0; stroke: #ff00ff; stroke-width: 1.5; stroke-linejoin: miter"/>
     <use xlink:href="#m0a0c928496" x="254.573484" y="240.429176" style="fill-opacity: 0; stroke: #ff00ff; stroke-width: 1.5; stroke-linejoin: miter"/>
     <use xlink:href="#m0a0c928496" x="254.573484" y="240.429176" style="fill-opacity: 0; stroke: #ff00ff; stroke-width: 1.5; stroke-linejoin: miter"/>
     <use xlink:href="#m0a0c928496" x="360.8064" y="240.429176" style="fill-opacity: 0; stroke: #ff00ff; stroke-width: 1.5; stroke-linejoin: miter"/>
    </g>
   </g>
   <g id="line2d_42">
    <path style="fill: none; stroke: #ff00ff; stroke-width: 1.5; stroke-linecap: square"/>
    <g/>
   </g>
   <g id="line2d_43">
    <path d="M 144.417581 267.877948 
" clip-path="url(#p8327961735)" style="fill: none; stroke: #ff00ff; stroke-width: 1.5; stroke-linecap: square"/>
    <defs>
     <path id="m9dc74d6e03" d="M -12 12 
L 12 -12 
M -12 -12 
L 12 12 
" style="stroke: #ff00ff"/>
    </defs>
    <g clip-path="url(#p8327961735)">
     <use xlink:href="#m9dc74d6e03" x="144.417581" y="267.877948" style="fill: #ff00ff; stroke: #ff00ff"/>
    </g>
   </g>
   <g id="line2d_44">
    <path d="M 360.8064 240.429176 
L 380.514816 293.51808 
" style="fill: none; stroke: #ff00ff; stroke-width: 1.5; stroke-linecap: square"/>
    <g>
     <use xlink:href="#m0a0c928496" x="360.8064" y="240.429176" style="fill-opacity: 0; stroke: #ff00ff; stroke-width: 1.5; stroke-linejoin: miter"/>
     <use xlink:href="#m0a0c928496" x="380.514816" y="293.51808" style="fill-opacity: 0; stroke: #ff00ff; stroke-width: 1.5; stroke-linejoin: miter"/>
    </g>
   </g>
   <g id="line2d_45">
    <path d="M 360.8064 27.648 
L 380.514816 163.296 
" style="fill: none; stroke: #000080; stroke-width: 1.5; stroke-linecap: square"/>
    <g>
     <use xlink:href="#m01a3afff2a" x="360.8064" y="27.648" style="fill-opacity: 0; stroke: #000080; stroke-width: 1.5"/>
     <use xlink:href="#m01a3afff2a" x="380.514816" y="163.296" style="fill-opacity: 0; stroke: #000080; stroke-width: 1.5"/>
    </g>
   </g>
   <g id="line2d_46">
    <path d="M 360.8064 298.944 
L 360.8064 27.648 
" style="fill: none; stroke: #000000; stroke-width: 1.5; stroke-linecap: square"/>
   </g>
   <g id="patch_3">
    <path d="M 57.6 298.944 
L 360.8064 298.944 
" style="fill: none; stroke: #000000; stroke-width: 0.8; stroke-linejoin: miter; stroke-linecap: square"/>
   </g>
   <g id="patch_4">
    <path d="M 57.6 27.648 
L 360.8064 27.648 
" style="fill: none; stroke: #000000; stroke-width: 0.8; stroke-linejoin: miter; stroke-linecap: square"/>
   </g>
   <g id="text_13">
    <!-- ex -->
    <g transform="translate(386.578944 297.381205)scale(0.14 -0.14)">
     <defs>
      <path id="DejaVuSans-78" d="M 3513 3500 
L 2247 1797 
L 3578 0 
L 2900 0 
L 1881 1375 
L 863 0 
L 184 0 
L 1544 1831 
L 300 3500 
L 978 3500 
L 1906 2253 
L 2834 3500 
L 3513 3500 
z
" transform="scale(0.015625)"/>
     </defs>
     <use xlink:href="#DejaVuSans-65"/>
     <use xlink:href="#DejaVuSans-78" x="59.773438"/>
    </g>
   </g>
   <g id="text_14">
    <!-- ex -->
    <g transform="translate(386.578944 167.159125)scale(0.14 -0.14)">
     <use xlink:href="#DejaVuSans-65"/>
     <use xlink:href="#DejaVuSans-78" x="59.773438"/>
    </g>
   </g>
   <g id="text_15">
    <!-- best 2009 -->
    <g transform="translate(386.578944 36.937045)scale(0.14 -0.14)">
     <defs>
      <path id="DejaVuSans-62" d="M 3116 1747 
Q 3116 2381 2855 2742 
Q 2594 3103 2138 3103 
Q 1681 3103 1420 2742 
Q 1159 2381 1159 1747 
Q 1159 1113 1420 752 
Q 1681 391 2138 391 
Q 2594 391 2855 752 
Q 3116 1113 3116 1747 
z
M 1159 2969 
Q 1341 3281 1617 3432 
Q 1894 3584 2278 3584 
Q 2916 3584 3314 3078 
Q 3713 2572 3713 1747 
Q 3713 922 3314 415 
Q 2916 -91 2278 -91 
Q 1894 -91 1617 61 
Q 1341 213 1159 525 
L 1159 0 
L 581 0 
L 581 4863 
L 1159 4863 
L 1159 2969 
z
" transform="scale(0.015625)"/>
      <path id="DejaVuSans-39" d="M 703 97 
L 703 672 
Q 941 559 1184 500 
Q 1428 441 1663 441 
Q 2288 441 2617 861 
Q 2947 1281 2994 2138 
Q 2813 1869 2534 1725 
Q 2256 1581 1919 1581 
Q 1219 1581 811 2004 
Q 403 2428 403 3163 
Q 403 3881 828 4315 
Q 1253 4750 1959 4750 
Q 2769 4750 3195 4129 
Q 3622 3509 3622 2328 
Q 3622 1225 3098 567 
Q 2575 -91 1691 -91 
Q 1453 -91 1209 -44 
Q 966 3 703 97 
z
M 1959 2075 
Q 2384 2075 2632 2365 
Q 2881 2656 2881 3163 
Q 2881 3666 2632 3958 
Q 2384 4250 1959 4250 
Q 1534 4250 1286 3958 
Q 1038 3666 1038 3163 
Q 1038 2656 1286 2365 
Q 1534 2075 1959 2075 
z
" transform="scale(0.015625)"/>
     </defs>
     <use xlink:href="#DejaVuSans-62"/>
     <use xlink:href="#DejaVuSans-65" x="63.476562"/>
     <use xlink:href="#DejaVuSans-73" x="125"/>
     <use xlink:href="#DejaVuSans-74" x="177.099609"/>
     <use xlink:href="#DejaVuSans-20" x="216.308594"/>
     <use xlink:href="#DejaVuSans-32" x="248.095703"/>
     <use xlink:href="#DejaVuSans-30" x="311.71875"/>
     <use xlink:href="#DejaVuSans-30" x="375.341797"/>
     <use xlink:href="#DejaVuSans-39" x="438.964844"/>
    </g>
   </g>
   <g id="text_16">
    <!-- bbob f15, 5-D -->
    <g transform="translate(60.632064 38.111366)scale(0.102 -0.102)">
     <defs>
      <path id="DejaVuSans-35" d="M 691 4666 
L 3169 4666 
L 3169 4134 
L 1269 4134 
L 1269 2991 
Q 1406 3038 1543 3061 
Q 1681 3084 1819 3084 
Q 2600 3084 3056 2656 
Q 3513 2228 3513 1497 
Q 3513 744 3044 326 
Q 2575 -91 1722 -91 
Q 1428 -91 1123 -41 
Q 819 9 494 109 
L 494 744 
Q 775 591 1075 516 
Q 1375 441 1709 441 
Q 2250 441 2565 725 
Q 2881 1009 2881 1497 
Q 2881 1984 2565 2268 
Q 2250 2553 1709 2553 
Q 1456 2553 1204 2497 
Q 953 2441 691 2322 
L 691 4666 
z
" transform="scale(0.015625)"/>
      <path id="DejaVuSans-44" d="M 1259 4147 
L 1259 519 
L 2022 519 
Q 2988 519 3436 956 
Q 3884 1394 3884 2338 
Q 3884 3275 3436 3711 
Q 2988 4147 2022 4147 
L 1259 4147 
z
M 628 4666 
L 1925 4666 
Q 3281 4666 3915 4102 
Q 4550 3538 4550 2338 
Q 4550 1131 3912 565 
Q 3275 0 1925 0 
L 628 0 
L 628 4666 
z
" transform="scale(0.015625)"/>
     </defs>
     <use xlink:href="#DejaVuSans-62"/>
     <use xlink:href="#DejaVuSans-62" x="63.476562"/>
     <use xlink:href="#DejaVuSans-6f" x="126.953125"/>
     <use xlink:href="#DejaVuSans-62" x="188.134766"/>
     <use xlink:href="#DejaVuSans-20" x="251.611328"/>
     <use xlink:href="#DejaVuSans-66" x="283.398438"/>
     <use xlink:href="#DejaVuSans-31" x="318.603516"/>
     <use xlink:href="#DejaVuSans-35" x="382.226562"/>
     <use xlink:href="#DejaVuSans-2c" x="445.849609"/>
     <use xlink:href="#DejaVuSans-20" x="477.636719"/>
     <use xlink:href="#DejaVuSans-35" x="509.423828"/>
     <use xlink:href="#DejaVuSans-2d" x="573.046875"/>
     <use xlink:href="#DejaVuSans-44" x="609.130859"/>
    </g>
    <!-- 51 targets: 100..1e-08 -->
    <g transform="translate(60.632064 49.533135)scale(0.102 -0.102)">
     <defs>
      <path id="DejaVuSans-3a" d="M 750 794 
L 1409 794 
L 1409 0 
L 750 0 
L 750 794 
z
M 750 3309 
L 1409 3309 
L 1409 2516 
L 750 2516 
L 750 3309 
z
" transform="scale(0.015625)"/>
     </defs>
     <use xlink:href="#DejaVuSans-35"/>
     <use xlink:href="#DejaVuSans-31" x="63.623047"/>
     <use xlink:href="#DejaVuSans-20" x="127.246094"/>
     <use xlink:href="#DejaVuSans-74" x="159.033203"/>
     <use xlink:href="#DejaVuSans-61" x="198.242188"/>
     <use xlink:href="#DejaVuSans-72" x="259.521484"/>
     <use xlink:href="#DejaVuSans-67" x="298.884766"/>
     <use xlink:href="#DejaVuSans-65" x="362.361328"/>
     <use xlink:href="#DejaVuSans-74" x="423.884766"/>
     <use xlink:href="#DejaVuSans-73" x="463.09375"/>
     <use xlink:href="#DejaVuSans-3a" x="515.193359"/>
     <use xlink:href="#DejaVuSans-20" x="548.884766"/>
     <use xlink:href="#DejaVuSans-31" x="580.671875"/>
     <use xlink:href="#DejaVuSans-30" x="644.294922"/>
     <use xlink:href="#DejaVuSans-30" x="707.917969"/>
     <use xlink:href="#DejaVuSans-2e" x="771.541016"/>
     <use xlink:href="#DejaVuSans-2e" x="803.328125"/>
     <use xlink:href="#DejaVuSans-31" x="835.115234"/>
     <use xlink:href="#DejaVuSans-65" x="898.738281"/>
     <use xlink:href="#DejaVuSans-2d" x="960.261719"/>
     <use xlink:href="#DejaVuSans-30" x="996.345703"/>
     <use xlink:href="#DejaVuSans-38" x="1059.96875"/>
    </g>
    <!-- 25 instances -->
    <g transform="translate(60.632064 60.954904)scale(0.102 -0.102)">
     <use xlink:href="#DejaVuSans-32"/>
     <use xlink:href="#DejaVuSans-35" x="63.623047"/>
     <use xlink:href="#DejaVuSans-20" x="127.246094"/>
     <use xlink:href="#DejaVuSans-69" x="159.033203"/>
     <use xlink:href="#DejaVuSans-6e" x="186.816406"/>
     <use xlink:href="#DejaVuSans-73" x="250.195312"/>
     <use xlink:href="#DejaVuSans-74" x="302.294922"/>
     <use xlink:href="#DejaVuSans-61" x="341.503906"/>
     <use xlink:href="#DejaVuSans-6e" x="402.783203"/>
     <use xlink:href="#DejaVuSans-63" x="466.162109"/>
     <use xlink:href="#DejaVuSans-65" x="521.142578"/>
     <use xlink:href="#DejaVuSans-73" x="582.666016"/>
    </g>
   </g>
   <g id="text_17">
    <!-- v2.6 -->
    <g style="fill: #808080" transform="translate(198.292262 294.151352)scale(0.1 -0.1)">
     <use xlink:href="#DejaVuSans-76"/>
     <use xlink:href="#DejaVuSans-32" x="59.179688"/>
     <use xlink:href="#DejaVuSans-2e" x="122.802734"/>
     <use xlink:href="#DejaVuSans-36" x="154.589844"/>
    </g>
   </g>
   <g id="text_18">
    <!-- 15 Rastrigin -->
    <g transform="translate(148.9657 21.648)scale(0.2 -0.2)">
     <defs>
      <path id="DejaVuSans-52" d="M 2841 2188 
Q 3044 2119 3236 1894 
Q 3428 1669 3622 1275 
L 4263 0 
L 3584 0 
L 2988 1197 
Q 2756 1666 2539 1819 
Q 2322 1972 1947 1972 
L 1259 1972 
L 1259 0 
L 628 0 
L 628 4666 
L 2053 4666 
Q 2853 4666 3247 4331 
Q 3641 3997 3641 3322 
Q 3641 2881 3436 2590 
Q 3231 2300 2841 2188 
z
M 1259 4147 
L 1259 2491 
L 2053 2491 
Q 2509 2491 2742 2702 
Q 2975 2913 2975 3322 
Q 2975 3731 2742 3939 
Q 2509 4147 2053 4147 
L 1259 4147 
z
" transform="scale(0.015625)"/>
     </defs>
     <use xlink:href="#DejaVuSans-31"/>
     <use xlink:href="#DejaVuSans-35" x="63.623047"/>
     <use xlink:href="#DejaVuSans-20" x="127.246094"/>
     <use xlink:href="#DejaVuSans-52" x="159.033203"/>
     <use xlink:href="#DejaVuSans-61" x="226.265625"/>
     <use xlink:href="#DejaVuSans-73" x="287.544922"/>
     <use xlink:href="#DejaVuSans-74" x="339.644531"/>
     <use xlink:href="#DejaVuSans-72" x="378.853516"/>
     <use xlink:href="#DejaVuSans-69" x="419.966797"/>
     <use xlink:href="#DejaVuSans-67" x="447.75"/>
     <use xlink:href="#DejaVuSans-69" x="511.226562"/>
     <use xlink:href="#DejaVuSans-6e" x="539.009766"/>
    </g>
   </g>
  </g>
 </g>
 <defs>
  <clipPath id="p8327961735">
   <rect x="57.6" y="27.648" width="303.2064" height="271.296"/>
  </clipPath>
 </defs>
</svg>
