<?xml version="1.0" encoding="utf-8" standalone="no"?>
<!DOCTYPE svg PUBLIC "-//W3C//DTD SVG 1.1//EN"
  "http://www.w3.org/Graphics/SVG/1.1/DTD/svg11.dtd">
<svg xmlns:xlink="http://www.w3.org/1999/xlink" width="460.8pt" height="345.6pt" viewBox="0 0 460.8 345.6" xmlns="http://www.w3.org/2000/svg" version="1.1">
 <metadata>
  <rdf:RDF xmlns:dc="http://purl.org/dc/elements/1.1/" xmlns:cc="http://creativecommons.org/ns#" xmlns:rdf="http://www.w3.org/1999/02/22-rdf-syntax-ns#">
   <cc:Work>
    <dc:type rdf:resource="http://purl.org/dc/dcmitype/StillImage"/>
    <dc:date>2022-03-28T13:36:58.742832</dc:date>
    <dc:format>image/svg+xml</dc:format>
    <dc:creator>
     <cc:Agent>
      <dc:title>Matplotlib v3.5.1, https://matplotlib.org/</dc:title>
     </cc:Agent>
    </dc:creator>
   </cc:Work>
  </rdf:RDF>
 </metadata>
 <defs>
  <style type="text/css">*{stroke-linejoin: round; stroke-linecap: butt}</style>
 </defs>
 <g id="figure_1">
  <g id="patch_1">
   <path d="M 0 345.6 
L 460.8 345.6 
L 460.8 0 
L 0 0 
z
" style="fill: #ffffff"/>
  </g>
  <g id="axes_1">
   <g id="patch_2">
    <path d="M 57.6 298.944 
L 360.8064 298.944 
L 360.8064 27.648 
L 57.6 27.648 
z
" style="fill: #ffffff"/>
   </g>
   <g id="line2d_1">
    <path d="M 1.245626 298.944 
L 1.245626 282.985412 
L 37.851216 282.985412 
L 37.851216 277.665882 
L 46.353758 277.665882 
L 46.353758 272.346353 
L 79.184421 272.346353 
L 79.184421 267.026824 
L 108.85357 267.026824 
L 108.85357 261.707294 
L 116.907859 261.707294 
L 116.907859 256.387765 
L 121.892744 256.387765 
L 121.892744 251.068235 
L 127.88896 251.068235 
L 127.88896 245.748706 
L 131.747272 245.748706 
L 131.747272 240.429176 
L 136.399653 240.429176 
L 136.399653 235.109647 
L 148.984124 235.109647 
L 148.984124 229.790118 
L 151.26544 229.790118 
L 151.26544 224.470588 
L 155.85377 224.470588 
L 155.85377 219.151059 
L 157.293074 219.151059 
L 157.293074 213.831529 
L 165.91013 213.831529 
L 165.91013 208.512 
L 166.661411 208.512 
L 166.661411 203.192471 
L 168.819278 203.192471 
L 168.819278 197.872941 
L 173.402394 197.872941 
L 173.402394 192.553412 
L 178.311769 192.553412 
L 178.311769 187.233882 
L 185.075543 187.233882 
L 185.075543 181.914353 
L 189.458713 181.914353 
L 189.458713 176.594824 
L 191.983279 176.594824 
L 191.983279 171.275294 
L 193.210531 171.275294 
L 193.210531 165.955765 
L 195.592823 165.955765 
L 195.592823 160.636235 
L 196.49437 160.636235 
L 196.49437 155.316706 
L 196.996718 155.316706 
L 196.996718 149.997176 
L 199.50367 149.997176 
L 199.50367 144.677647 
L 202.322045 144.677647 
L 202.322045 139.358118 
L 202.643036 139.358118 
L 202.643036 134.038588 
L 203.416475 134.038588 
L 203.416475 128.719059 
L 205.447399 128.719059 
L 205.447399 123.399529 
L 206.370076 123.399529 
L 206.370076 118.08 
L 206.786593 118.08 
L 206.786593 112.760471 
L 207.010837 112.760471 
L 207.010837 107.440941 
L 207.214926 107.440941 
L 207.214926 102.121412 
L 208.15128 102.121412 
L 208.15128 96.801882 
L 209.97033 96.801882 
L 209.97033 91.482353 
L 210.10548 91.482353 
L 210.10548 86.162824 
L 210.796577 86.162824 
L 210.796577 80.843294 
L 211.03554 80.843294 
L 211.03554 75.523765 
L 211.380441 75.523765 
L 211.380441 70.204235 
L 213.289678 70.204235 
L 213.289678 64.884706 
L 213.49583 64.884706 
L 213.49583 59.565176 
L 213.734611 59.565176 
L 213.734611 54.245647 
L 216.318406 54.245647 
L 216.318406 48.926118 
L 216.438852 48.926118 
L 216.438852 43.606588 
L 216.55652 43.606588 
L 216.55652 38.287059 
L 216.679254 38.287059 
L 216.679254 32.967529 
L 216.773368 32.967529 
L 216.773368 27.648 
L 360.8064 27.648 
" style="fill: none; stroke: #f5deb3; stroke-width: 4; stroke-linecap: square"/>
   </g>
   <g id="line2d_2">
    <defs>
     <path id="m022597ffcc" d="M -0 7.778175 
L 7.778175 0 
L 0 -7.778175 
L -7.778175 -0 
z
" style="stroke: #f5deb3; stroke-width: 1.5; stroke-linejoin: miter"/>
    </defs>
    <g>
     <use xlink:href="#m022597ffcc" x="79.184421" y="267.026824" style="fill: #f5deb3; stroke: #f5deb3; stroke-width: 1.5; stroke-linejoin: miter"/>
     <use xlink:href="#m022597ffcc" x="173.402394" y="197.872941" style="fill: #f5deb3; stroke: #f5deb3; stroke-width: 1.5; stroke-linejoin: miter"/>
     <use xlink:href="#m022597ffcc" x="207.010837" y="107.440941" style="fill: #f5deb3; stroke: #f5deb3; stroke-width: 1.5; stroke-linejoin: miter"/>
     <use xlink:href="#m022597ffcc" x="216.773368" y="32.967529" style="fill: #f5deb3; stroke: #f5deb3; stroke-width: 1.5; stroke-linejoin: miter"/>
     <use xlink:href="#m022597ffcc" x="216.773368" y="27.648" style="fill: #f5deb3; stroke: #f5deb3; stroke-width: 1.5; stroke-linejoin: miter"/>
     <use xlink:href="#m022597ffcc" x="360.8064" y="27.648" style="fill: #f5deb3; stroke: #f5deb3; stroke-width: 1.5; stroke-linejoin: miter"/>
    </g>
   </g>
   <g id="line2d_3">
    <path style="fill: none; stroke: #f5deb3; stroke-width: 4; stroke-linecap: square"/>
    <g/>
   </g>
   <g id="line2d_4">
    <path d="M 360.8064 27.648 
L 380.514816 33.07392 
" style="fill: none; stroke: #f5deb3; stroke-width: 4; stroke-linecap: square"/>
    <g>
     <use xlink:href="#m022597ffcc" x="360.8064" y="27.648" style="fill: #f5deb3; stroke: #f5deb3; stroke-width: 1.5; stroke-linejoin: miter"/>
     <use xlink:href="#m022597ffcc" x="380.514816" y="33.07392" style="fill: #f5deb3; stroke: #f5deb3; stroke-width: 1.5; stroke-linejoin: miter"/>
    </g>
   </g>
   <g id="matplotlib.axis_1">
    <g id="xtick_1">
     <g id="line2d_5">
      <path d="M 57.6 298.944 
L 57.6 27.648 
" clip-path="url(#p86008505d3)" style="fill: none; stroke: #b0b0b0; stroke-width: 0.8; stroke-linecap: square"/>
     </g>
     <g id="line2d_6">
      <defs>
       <path id="m58b6f179f5" d="M 0 0 
L 0 3.5 
" style="stroke: #000000; stroke-width: 0.8"/>
      </defs>
      <g>
       <use xlink:href="#m58b6f179f5" x="57.6" y="298.944" style="stroke: #000000; stroke-width: 0.8"/>
      </g>
     </g>
     <g id="text_1">
      <!-- 0 -->
      <g transform="translate(52.191875 318.861344)scale(0.17 -0.17)">
       <defs>
        <path id="DejaVuSans-30" d="M 2034 4250 
Q 1547 4250 1301 3770 
Q 1056 3291 1056 2328 
Q 1056 1369 1301 889 
Q 1547 409 2034 409 
Q 2525 409 2770 889 
Q 3016 1369 3016 2328 
Q 3016 3291 2770 3770 
Q 2525 4250 2034 4250 
z
M 2034 4750 
Q 2819 4750 3233 4129 
Q 3647 3509 3647 2328 
Q 3647 1150 3233 529 
Q 2819 -91 2034 -91 
Q 1250 -91 836 529 
Q 422 1150 422 2328 
Q 422 3509 836 4129 
Q 1250 4750 2034 4750 
z
" transform="scale(0.015625)"/>
       </defs>
       <use xlink:href="#DejaVuSans-30"/>
      </g>
     </g>
    </g>
    <g id="xtick_2">
     <g id="line2d_7">
      <path d="M 144.2304 298.944 
L 144.2304 27.648 
" clip-path="url(#p86008505d3)" style="fill: none; stroke: #b0b0b0; stroke-width: 0.8; stroke-linecap: square"/>
     </g>
     <g id="line2d_8">
      <g>
       <use xlink:href="#m58b6f179f5" x="144.2304" y="298.944" style="stroke: #000000; stroke-width: 0.8"/>
      </g>
     </g>
     <g id="text_2">
      <!-- 2 -->
      <g transform="translate(138.822275 318.861344)scale(0.17 -0.17)">
       <defs>
        <path id="DejaVuSans-32" d="M 1228 531 
L 3431 531 
L 3431 0 
L 469 0 
L 469 531 
Q 828 903 1448 1529 
Q 2069 2156 2228 2338 
Q 2531 2678 2651 2914 
Q 2772 3150 2772 3378 
Q 2772 3750 2511 3984 
Q 2250 4219 1831 4219 
Q 1534 4219 1204 4116 
Q 875 4013 500 3803 
L 500 4441 
Q 881 4594 1212 4672 
Q 1544 4750 1819 4750 
Q 2544 4750 2975 4387 
Q 3406 4025 3406 3419 
Q 3406 3131 3298 2873 
Q 3191 2616 2906 2266 
Q 2828 2175 2409 1742 
Q 1991 1309 1228 531 
z
" transform="scale(0.015625)"/>
       </defs>
       <use xlink:href="#DejaVuSans-32"/>
      </g>
     </g>
    </g>
    <g id="xtick_3">
     <g id="line2d_9">
      <path d="M 230.8608 298.944 
L 230.8608 27.648 
" clip-path="url(#p86008505d3)" style="fill: none; stroke: #b0b0b0; stroke-width: 0.8; stroke-linecap: square"/>
     </g>
     <g id="line2d_10">
      <g>
       <use xlink:href="#m58b6f179f5" x="230.8608" y="298.944" style="stroke: #000000; stroke-width: 0.8"/>
      </g>
     </g>
     <g id="text_3">
      <!-- 4 -->
      <g transform="translate(225.452675 318.861344)scale(0.17 -0.17)">
       <defs>
        <path id="DejaVuSans-34" d="M 2419 4116 
L 825 1625 
L 2419 1625 
L 2419 4116 
z
M 2253 4666 
L 3047 4666 
L 3047 1625 
L 3713 1625 
L 3713 1100 
L 3047 1100 
L 3047 0 
L 2419 0 
L 2419 1100 
L 313 1100 
L 313 1709 
L 2253 4666 
z
" transform="scale(0.015625)"/>
       </defs>
       <use xlink:href="#DejaVuSans-34"/>
      </g>
     </g>
    </g>
    <g id="xtick_4">
     <g id="line2d_11">
      <path d="M 317.4912 298.944 
L 317.4912 27.648 
" clip-path="url(#p86008505d3)" style="fill: none; stroke: #b0b0b0; stroke-width: 0.8; stroke-linecap: square"/>
     </g>
     <g id="line2d_12">
      <g>
       <use xlink:href="#m58b6f179f5" x="317.4912" y="298.944" style="stroke: #000000; stroke-width: 0.8"/>
      </g>
     </g>
     <g id="text_4">
      <!-- 6 -->
      <g transform="translate(312.083075 318.861344)scale(0.17 -0.17)">
       <defs>
        <path id="DejaVuSans-36" d="M 2113 2584 
Q 1688 2584 1439 2293 
Q 1191 2003 1191 1497 
Q 1191 994 1439 701 
Q 1688 409 2113 409 
Q 2538 409 2786 701 
Q 3034 994 3034 1497 
Q 3034 2003 2786 2293 
Q 2538 2584 2113 2584 
z
M 3366 4563 
L 3366 3988 
Q 3128 4100 2886 4159 
Q 2644 4219 2406 4219 
Q 1781 4219 1451 3797 
Q 1122 3375 1075 2522 
Q 1259 2794 1537 2939 
Q 1816 3084 2150 3084 
Q 2853 3084 3261 2657 
Q 3669 2231 3669 1497 
Q 3669 778 3244 343 
Q 2819 -91 2113 -91 
Q 1303 -91 875 529 
Q 447 1150 447 2328 
Q 447 3434 972 4092 
Q 1497 4750 2381 4750 
Q 2619 4750 2861 4703 
Q 3103 4656 3366 4563 
z
" transform="scale(0.015625)"/>
       </defs>
       <use xlink:href="#DejaVuSans-36"/>
      </g>
     </g>
    </g>
    <g id="xtick_5">
     <g id="line2d_13">
      <path d="M 100.9152 298.944 
L 100.9152 27.648 
" clip-path="url(#p86008505d3)" style="fill: none; stroke: #b0b0b0; stroke-width: 0.8; stroke-linecap: square"/>
     </g>
     <g id="line2d_14">
      <defs>
       <path id="me05a56b8b5" d="M 0 0 
L 0 2 
" style="stroke: #000000; stroke-width: 0.6"/>
      </defs>
      <g>
       <use xlink:href="#me05a56b8b5" x="100.9152" y="298.944" style="stroke: #000000; stroke-width: 0.6"/>
      </g>
     </g>
    </g>
    <g id="xtick_6">
     <g id="line2d_15">
      <path d="M 187.5456 298.944 
L 187.5456 27.648 
" clip-path="url(#p86008505d3)" style="fill: none; stroke: #b0b0b0; stroke-width: 0.8; stroke-linecap: square"/>
     </g>
     <g id="line2d_16">
      <g>
       <use xlink:href="#me05a56b8b5" x="187.5456" y="298.944" style="stroke: #000000; stroke-width: 0.6"/>
      </g>
     </g>
    </g>
    <g id="xtick_7">
     <g id="line2d_17">
      <path d="M 274.176 298.944 
L 274.176 27.648 
" clip-path="url(#p86008505d3)" style="fill: none; stroke: #b0b0b0; stroke-width: 0.8; stroke-linecap: square"/>
     </g>
     <g id="line2d_18">
      <g>
       <use xlink:href="#me05a56b8b5" x="274.176" y="298.944" style="stroke: #000000; stroke-width: 0.6"/>
      </g>
     </g>
    </g>
    <g id="xtick_8">
     <g id="line2d_19">
      <path d="M 360.8064 298.944 
L 360.8064 27.648 
" clip-path="url(#p86008505d3)" style="fill: none; stroke: #b0b0b0; stroke-width: 0.8; stroke-linecap: square"/>
     </g>
     <g id="line2d_20">
      <g>
       <use xlink:href="#me05a56b8b5" x="360.8064" y="298.944" style="stroke: #000000; stroke-width: 0.6"/>
      </g>
     </g>
    </g>
    <g id="text_5">
     <!-- log10(# f-evals / dimension) -->
     <g transform="translate(88.823278 339.314156)scale(0.17 -0.17)">
      <defs>
       <path id="DejaVuSans-6c" d="M 603 4863 
L 1178 4863 
L 1178 0 
L 603 0 
L 603 4863 
z
" transform="scale(0.015625)"/>
       <path id="DejaVuSans-6f" d="M 1959 3097 
Q 1497 3097 1228 2736 
Q 959 2375 959 1747 
Q 959 1119 1226 758 
Q 1494 397 1959 397 
Q 2419 397 2687 759 
Q 2956 1122 2956 1747 
Q 2956 2369 2687 2733 
Q 2419 3097 1959 3097 
z
M 1959 3584 
Q 2709 3584 3137 3096 
Q 3566 2609 3566 1747 
Q 3566 888 3137 398 
Q 2709 -91 1959 -91 
Q 1206 -91 779 398 
Q 353 888 353 1747 
Q 353 2609 779 3096 
Q 1206 3584 1959 3584 
z
" transform="scale(0.015625)"/>
       <path id="DejaVuSans-67" d="M 2906 1791 
Q 2906 2416 2648 2759 
Q 2391 3103 1925 3103 
Q 1463 3103 1205 2759 
Q 947 2416 947 1791 
Q 947 1169 1205 825 
Q 1463 481 1925 481 
Q 2391 481 2648 825 
Q 2906 1169 2906 1791 
z
M 3481 434 
Q 3481 -459 3084 -895 
Q 2688 -1331 1869 -1331 
Q 1566 -1331 1297 -1286 
Q 1028 -1241 775 -1147 
L 775 -588 
Q 1028 -725 1275 -790 
Q 1522 -856 1778 -856 
Q 2344 -856 2625 -561 
Q 2906 -266 2906 331 
L 2906 616 
Q 2728 306 2450 153 
Q 2172 0 1784 0 
Q 1141 0 747 490 
Q 353 981 353 1791 
Q 353 2603 747 3093 
Q 1141 3584 1784 3584 
Q 2172 3584 2450 3431 
Q 2728 3278 2906 2969 
L 2906 3500 
L 3481 3500 
L 3481 434 
z
" transform="scale(0.015625)"/>
       <path id="DejaVuSans-31" d="M 794 531 
L 1825 531 
L 1825 4091 
L 703 3866 
L 703 4441 
L 1819 4666 
L 2450 4666 
L 2450 531 
L 3481 531 
L 3481 0 
L 794 0 
L 794 531 
z
" transform="scale(0.015625)"/>
       <path id="DejaVuSans-28" d="M 1984 4856 
Q 1566 4138 1362 3434 
Q 1159 2731 1159 2009 
Q 1159 1288 1364 580 
Q 1569 -128 1984 -844 
L 1484 -844 
Q 1016 -109 783 600 
Q 550 1309 550 2009 
Q 550 2706 781 3412 
Q 1013 4119 1484 4856 
L 1984 4856 
z
" transform="scale(0.015625)"/>
       <path id="DejaVuSans-23" d="M 3272 2816 
L 2363 2816 
L 2100 1772 
L 3016 1772 
L 3272 2816 
z
M 2803 4594 
L 2478 3297 
L 3391 3297 
L 3719 4594 
L 4219 4594 
L 3897 3297 
L 4872 3297 
L 4872 2816 
L 3775 2816 
L 3519 1772 
L 4513 1772 
L 4513 1294 
L 3397 1294 
L 3072 0 
L 2572 0 
L 2894 1294 
L 1978 1294 
L 1656 0 
L 1153 0 
L 1478 1294 
L 494 1294 
L 494 1772 
L 1594 1772 
L 1856 2816 
L 850 2816 
L 850 3297 
L 1978 3297 
L 2297 4594 
L 2803 4594 
z
" transform="scale(0.015625)"/>
       <path id="DejaVuSans-20" transform="scale(0.015625)"/>
       <path id="DejaVuSans-66" d="M 2375 4863 
L 2375 4384 
L 1825 4384 
Q 1516 4384 1395 4259 
Q 1275 4134 1275 3809 
L 1275 3500 
L 2222 3500 
L 2222 3053 
L 1275 3053 
L 1275 0 
L 697 0 
L 697 3053 
L 147 3053 
L 147 3500 
L 697 3500 
L 697 3744 
Q 697 4328 969 4595 
Q 1241 4863 1831 4863 
L 2375 4863 
z
" transform="scale(0.015625)"/>
       <path id="DejaVuSans-2d" d="M 313 2009 
L 1997 2009 
L 1997 1497 
L 313 1497 
L 313 2009 
z
" transform="scale(0.015625)"/>
       <path id="DejaVuSans-65" d="M 3597 1894 
L 3597 1613 
L 953 1613 
Q 991 1019 1311 708 
Q 1631 397 2203 397 
Q 2534 397 2845 478 
Q 3156 559 3463 722 
L 3463 178 
Q 3153 47 2828 -22 
Q 2503 -91 2169 -91 
Q 1331 -91 842 396 
Q 353 884 353 1716 
Q 353 2575 817 3079 
Q 1281 3584 2069 3584 
Q 2775 3584 3186 3129 
Q 3597 2675 3597 1894 
z
M 3022 2063 
Q 3016 2534 2758 2815 
Q 2500 3097 2075 3097 
Q 1594 3097 1305 2825 
Q 1016 2553 972 2059 
L 3022 2063 
z
" transform="scale(0.015625)"/>
       <path id="DejaVuSans-76" d="M 191 3500 
L 800 3500 
L 1894 563 
L 2988 3500 
L 3597 3500 
L 2284 0 
L 1503 0 
L 191 3500 
z
" transform="scale(0.015625)"/>
       <path id="DejaVuSans-61" d="M 2194 1759 
Q 1497 1759 1228 1600 
Q 959 1441 959 1056 
Q 959 750 1161 570 
Q 1363 391 1709 391 
Q 2188 391 2477 730 
Q 2766 1069 2766 1631 
L 2766 1759 
L 2194 1759 
z
M 3341 1997 
L 3341 0 
L 2766 0 
L 2766 531 
Q 2569 213 2275 61 
Q 1981 -91 1556 -91 
Q 1019 -91 701 211 
Q 384 513 384 1019 
Q 384 1609 779 1909 
Q 1175 2209 1959 2209 
L 2766 2209 
L 2766 2266 
Q 2766 2663 2505 2880 
Q 2244 3097 1772 3097 
Q 1472 3097 1187 3025 
Q 903 2953 641 2809 
L 641 3341 
Q 956 3463 1253 3523 
Q 1550 3584 1831 3584 
Q 2591 3584 2966 3190 
Q 3341 2797 3341 1997 
z
" transform="scale(0.015625)"/>
       <path id="DejaVuSans-73" d="M 2834 3397 
L 2834 2853 
Q 2591 2978 2328 3040 
Q 2066 3103 1784 3103 
Q 1356 3103 1142 2972 
Q 928 2841 928 2578 
Q 928 2378 1081 2264 
Q 1234 2150 1697 2047 
L 1894 2003 
Q 2506 1872 2764 1633 
Q 3022 1394 3022 966 
Q 3022 478 2636 193 
Q 2250 -91 1575 -91 
Q 1294 -91 989 -36 
Q 684 19 347 128 
L 347 722 
Q 666 556 975 473 
Q 1284 391 1588 391 
Q 1994 391 2212 530 
Q 2431 669 2431 922 
Q 2431 1156 2273 1281 
Q 2116 1406 1581 1522 
L 1381 1569 
Q 847 1681 609 1914 
Q 372 2147 372 2553 
Q 372 3047 722 3315 
Q 1072 3584 1716 3584 
Q 2034 3584 2315 3537 
Q 2597 3491 2834 3397 
z
" transform="scale(0.015625)"/>
       <path id="DejaVuSans-2f" d="M 1625 4666 
L 2156 4666 
L 531 -594 
L 0 -594 
L 1625 4666 
z
" transform="scale(0.015625)"/>
       <path id="DejaVuSans-64" d="M 2906 2969 
L 2906 4863 
L 3481 4863 
L 3481 0 
L 2906 0 
L 2906 525 
Q 2725 213 2448 61 
Q 2172 -91 1784 -91 
Q 1150 -91 751 415 
Q 353 922 353 1747 
Q 353 2572 751 3078 
Q 1150 3584 1784 3584 
Q 2172 3584 2448 3432 
Q 2725 3281 2906 2969 
z
M 947 1747 
Q 947 1113 1208 752 
Q 1469 391 1925 391 
Q 2381 391 2643 752 
Q 2906 1113 2906 1747 
Q 2906 2381 2643 2742 
Q 2381 3103 1925 3103 
Q 1469 3103 1208 2742 
Q 947 2381 947 1747 
z
" transform="scale(0.015625)"/>
       <path id="DejaVuSans-69" d="M 603 3500 
L 1178 3500 
L 1178 0 
L 603 0 
L 603 3500 
z
M 603 4863 
L 1178 4863 
L 1178 4134 
L 603 4134 
L 603 4863 
z
" transform="scale(0.015625)"/>
       <path id="DejaVuSans-6d" d="M 3328 2828 
Q 3544 3216 3844 3400 
Q 4144 3584 4550 3584 
Q 5097 3584 5394 3201 
Q 5691 2819 5691 2113 
L 5691 0 
L 5113 0 
L 5113 2094 
Q 5113 2597 4934 2840 
Q 4756 3084 4391 3084 
Q 3944 3084 3684 2787 
Q 3425 2491 3425 1978 
L 3425 0 
L 2847 0 
L 2847 2094 
Q 2847 2600 2669 2842 
Q 2491 3084 2119 3084 
Q 1678 3084 1418 2786 
Q 1159 2488 1159 1978 
L 1159 0 
L 581 0 
L 581 3500 
L 1159 3500 
L 1159 2956 
Q 1356 3278 1631 3431 
Q 1906 3584 2284 3584 
Q 2666 3584 2933 3390 
Q 3200 3197 3328 2828 
z
" transform="scale(0.015625)"/>
       <path id="DejaVuSans-6e" d="M 3513 2113 
L 3513 0 
L 2938 0 
L 2938 2094 
Q 2938 2591 2744 2837 
Q 2550 3084 2163 3084 
Q 1697 3084 1428 2787 
Q 1159 2491 1159 1978 
L 1159 0 
L 581 0 
L 581 3500 
L 1159 3500 
L 1159 2956 
Q 1366 3272 1645 3428 
Q 1925 3584 2291 3584 
Q 2894 3584 3203 3211 
Q 3513 2838 3513 2113 
z
" transform="scale(0.015625)"/>
       <path id="DejaVuSans-29" d="M 513 4856 
L 1013 4856 
Q 1481 4119 1714 3412 
Q 1947 2706 1947 2009 
Q 1947 1309 1714 600 
Q 1481 -109 1013 -844 
L 513 -844 
Q 928 -128 1133 580 
Q 1338 1288 1338 2009 
Q 1338 2731 1133 3434 
Q 928 4138 513 4856 
z
" transform="scale(0.015625)"/>
      </defs>
      <use xlink:href="#DejaVuSans-6c"/>
      <use xlink:href="#DejaVuSans-6f" x="27.783203"/>
      <use xlink:href="#DejaVuSans-67" x="88.964844"/>
      <use xlink:href="#DejaVuSans-31" x="152.441406"/>
      <use xlink:href="#DejaVuSans-30" x="216.064453"/>
      <use xlink:href="#DejaVuSans-28" x="279.6875"/>
      <use xlink:href="#DejaVuSans-23" x="318.701172"/>
      <use xlink:href="#DejaVuSans-20" x="402.490234"/>
      <use xlink:href="#DejaVuSans-66" x="434.277344"/>
      <use xlink:href="#DejaVuSans-2d" x="463.982422"/>
      <use xlink:href="#DejaVuSans-65" x="500.066406"/>
      <use xlink:href="#DejaVuSans-76" x="561.589844"/>
      <use xlink:href="#DejaVuSans-61" x="620.769531"/>
      <use xlink:href="#DejaVuSans-6c" x="682.048828"/>
      <use xlink:href="#DejaVuSans-73" x="709.832031"/>
      <use xlink:href="#DejaVuSans-20" x="761.931641"/>
      <use xlink:href="#DejaVuSans-2f" x="793.71875"/>
      <use xlink:href="#DejaVuSans-20" x="827.410156"/>
      <use xlink:href="#DejaVuSans-64" x="859.197266"/>
      <use xlink:href="#DejaVuSans-69" x="922.673828"/>
      <use xlink:href="#DejaVuSans-6d" x="950.457031"/>
      <use xlink:href="#DejaVuSans-65" x="1047.869141"/>
      <use xlink:href="#DejaVuSans-6e" x="1109.392578"/>
      <use xlink:href="#DejaVuSans-73" x="1172.771484"/>
      <use xlink:href="#DejaVuSans-69" x="1224.871094"/>
      <use xlink:href="#DejaVuSans-6f" x="1252.654297"/>
      <use xlink:href="#DejaVuSans-6e" x="1313.835938"/>
      <use xlink:href="#DejaVuSans-29" x="1377.214844"/>
     </g>
    </g>
   </g>
   <g id="matplotlib.axis_2">
    <g id="ytick_1">
     <g id="line2d_21">
      <path d="M 57.6 298.944 
L 360.8064 298.944 
" clip-path="url(#p86008505d3)" style="fill: none; stroke: #b0b0b0; stroke-width: 0.8; stroke-linecap: square"/>
     </g>
     <g id="line2d_22">
      <defs>
       <path id="m44b0d4f30f" d="M 0 0 
L -3.5 0 
" style="stroke: #000000; stroke-width: 0.8"/>
      </defs>
      <g>
       <use xlink:href="#m44b0d4f30f" x="57.6" y="298.944" style="stroke: #000000; stroke-width: 0.8"/>
      </g>
     </g>
     <g id="text_6">
      <!-- 0.0 -->
      <g transform="translate(25.155 305.02275)scale(0.16 -0.16)">
       <defs>
        <path id="DejaVuSans-2e" d="M 684 794 
L 1344 794 
L 1344 0 
L 684 0 
L 684 794 
z
" transform="scale(0.015625)"/>
       </defs>
       <use xlink:href="#DejaVuSans-30"/>
       <use xlink:href="#DejaVuSans-2e" x="63.623047"/>
       <use xlink:href="#DejaVuSans-30" x="95.410156"/>
      </g>
     </g>
    </g>
    <g id="ytick_2">
     <g id="line2d_23">
      <path d="M 57.6 244.6848 
L 360.8064 244.6848 
" clip-path="url(#p86008505d3)" style="fill: none; stroke: #b0b0b0; stroke-width: 0.8; stroke-linecap: square"/>
     </g>
     <g id="line2d_24">
      <g>
       <use xlink:href="#m44b0d4f30f" x="57.6" y="244.6848" style="stroke: #000000; stroke-width: 0.8"/>
      </g>
     </g>
     <g id="text_7">
      <!-- 0.2 -->
      <g transform="translate(25.155 250.76355)scale(0.16 -0.16)">
       <use xlink:href="#DejaVuSans-30"/>
       <use xlink:href="#DejaVuSans-2e" x="63.623047"/>
       <use xlink:href="#DejaVuSans-32" x="95.410156"/>
      </g>
     </g>
    </g>
    <g id="ytick_3">
     <g id="line2d_25">
      <path d="M 57.6 190.4256 
L 360.8064 190.4256 
" clip-path="url(#p86008505d3)" style="fill: none; stroke: #b0b0b0; stroke-width: 0.8; stroke-linecap: square"/>
     </g>
     <g id="line2d_26">
      <g>
       <use xlink:href="#m44b0d4f30f" x="57.6" y="190.4256" style="stroke: #000000; stroke-width: 0.8"/>
      </g>
     </g>
     <g id="text_8">
      <!-- 0.4 -->
      <g transform="translate(25.155 196.50435)scale(0.16 -0.16)">
       <use xlink:href="#DejaVuSans-30"/>
       <use xlink:href="#DejaVuSans-2e" x="63.623047"/>
       <use xlink:href="#DejaVuSans-34" x="95.410156"/>
      </g>
     </g>
    </g>
    <g id="ytick_4">
     <g id="line2d_27">
      <path d="M 57.6 136.1664 
L 360.8064 136.1664 
" clip-path="url(#p86008505d3)" style="fill: none; stroke: #b0b0b0; stroke-width: 0.8; stroke-linecap: square"/>
     </g>
     <g id="line2d_28">
      <g>
       <use xlink:href="#m44b0d4f30f" x="57.6" y="136.1664" style="stroke: #000000; stroke-width: 0.8"/>
      </g>
     </g>
     <g id="text_9">
      <!-- 0.6 -->
      <g transform="translate(25.155 142.24515)scale(0.16 -0.16)">
       <use xlink:href="#DejaVuSans-30"/>
       <use xlink:href="#DejaVuSans-2e" x="63.623047"/>
       <use xlink:href="#DejaVuSans-36" x="95.410156"/>
      </g>
     </g>
    </g>
    <g id="ytick_5">
     <g id="line2d_29">
      <path d="M 57.6 81.9072 
L 360.8064 81.9072 
" clip-path="url(#p86008505d3)" style="fill: none; stroke: #b0b0b0; stroke-width: 0.8; stroke-linecap: square"/>
     </g>
     <g id="line2d_30">
      <g>
       <use xlink:href="#m44b0d4f30f" x="57.6" y="81.9072" style="stroke: #000000; stroke-width: 0.8"/>
      </g>
     </g>
     <g id="text_10">
      <!-- 0.8 -->
      <g transform="translate(25.155 87.98595)scale(0.16 -0.16)">
       <defs>
        <path id="DejaVuSans-38" d="M 2034 2216 
Q 1584 2216 1326 1975 
Q 1069 1734 1069 1313 
Q 1069 891 1326 650 
Q 1584 409 2034 409 
Q 2484 409 2743 651 
Q 3003 894 3003 1313 
Q 3003 1734 2745 1975 
Q 2488 2216 2034 2216 
z
M 1403 2484 
Q 997 2584 770 2862 
Q 544 3141 544 3541 
Q 544 4100 942 4425 
Q 1341 4750 2034 4750 
Q 2731 4750 3128 4425 
Q 3525 4100 3525 3541 
Q 3525 3141 3298 2862 
Q 3072 2584 2669 2484 
Q 3125 2378 3379 2068 
Q 3634 1759 3634 1313 
Q 3634 634 3220 271 
Q 2806 -91 2034 -91 
Q 1263 -91 848 271 
Q 434 634 434 1313 
Q 434 1759 690 2068 
Q 947 2378 1403 2484 
z
M 1172 3481 
Q 1172 3119 1398 2916 
Q 1625 2713 2034 2713 
Q 2441 2713 2670 2916 
Q 2900 3119 2900 3481 
Q 2900 3844 2670 4047 
Q 2441 4250 2034 4250 
Q 1625 4250 1398 4047 
Q 1172 3844 1172 3481 
z
" transform="scale(0.015625)"/>
       </defs>
       <use xlink:href="#DejaVuSans-30"/>
       <use xlink:href="#DejaVuSans-2e" x="63.623047"/>
       <use xlink:href="#DejaVuSans-38" x="95.410156"/>
      </g>
     </g>
    </g>
    <g id="ytick_6">
     <g id="line2d_31">
      <path d="M 57.6 27.648 
L 360.8064 27.648 
" clip-path="url(#p86008505d3)" style="fill: none; stroke: #b0b0b0; stroke-width: 0.8; stroke-linecap: square"/>
     </g>
     <g id="line2d_32">
      <g>
       <use xlink:href="#m44b0d4f30f" x="57.6" y="27.648" style="stroke: #000000; stroke-width: 0.8"/>
      </g>
     </g>
     <g id="text_11">
      <!-- 1.0 -->
      <g transform="translate(25.155 33.72675)scale(0.16 -0.16)">
       <use xlink:href="#DejaVuSans-31"/>
       <use xlink:href="#DejaVuSans-2e" x="63.623047"/>
       <use xlink:href="#DejaVuSans-30" x="95.410156"/>
      </g>
     </g>
    </g>
    <g id="text_12">
     <!-- Fraction of function,target pairs -->
     <g transform="translate(17.619531 297.681)rotate(-90)scale(0.17 -0.17)">
      <defs>
       <path id="DejaVuSans-46" d="M 628 4666 
L 3309 4666 
L 3309 4134 
L 1259 4134 
L 1259 2759 
L 3109 2759 
L 3109 2228 
L 1259 2228 
L 1259 0 
L 628 0 
L 628 4666 
z
" transform="scale(0.015625)"/>
       <path id="DejaVuSans-72" d="M 2631 2963 
Q 2534 3019 2420 3045 
Q 2306 3072 2169 3072 
Q 1681 3072 1420 2755 
Q 1159 2438 1159 1844 
L 1159 0 
L 581 0 
L 581 3500 
L 1159 3500 
L 1159 2956 
Q 1341 3275 1631 3429 
Q 1922 3584 2338 3584 
Q 2397 3584 2469 3576 
Q 2541 3569 2628 3553 
L 2631 2963 
z
" transform="scale(0.015625)"/>
       <path id="DejaVuSans-63" d="M 3122 3366 
L 3122 2828 
Q 2878 2963 2633 3030 
Q 2388 3097 2138 3097 
Q 1578 3097 1268 2742 
Q 959 2388 959 1747 
Q 959 1106 1268 751 
Q 1578 397 2138 397 
Q 2388 397 2633 464 
Q 2878 531 3122 666 
L 3122 134 
Q 2881 22 2623 -34 
Q 2366 -91 2075 -91 
Q 1284 -91 818 406 
Q 353 903 353 1747 
Q 353 2603 823 3093 
Q 1294 3584 2113 3584 
Q 2378 3584 2631 3529 
Q 2884 3475 3122 3366 
z
" transform="scale(0.015625)"/>
       <path id="DejaVuSans-74" d="M 1172 4494 
L 1172 3500 
L 2356 3500 
L 2356 3053 
L 1172 3053 
L 1172 1153 
Q 1172 725 1289 603 
Q 1406 481 1766 481 
L 2356 481 
L 2356 0 
L 1766 0 
Q 1100 0 847 248 
Q 594 497 594 1153 
L 594 3053 
L 172 3053 
L 172 3500 
L 594 3500 
L 594 4494 
L 1172 4494 
z
" transform="scale(0.015625)"/>
       <path id="DejaVuSans-75" d="M 544 1381 
L 544 3500 
L 1119 3500 
L 1119 1403 
Q 1119 906 1312 657 
Q 1506 409 1894 409 
Q 2359 409 2629 706 
Q 2900 1003 2900 1516 
L 2900 3500 
L 3475 3500 
L 3475 0 
L 2900 0 
L 2900 538 
Q 2691 219 2414 64 
Q 2138 -91 1772 -91 
Q 1169 -91 856 284 
Q 544 659 544 1381 
z
M 1991 3584 
L 1991 3584 
z
" transform="scale(0.015625)"/>
       <path id="DejaVuSans-2c" d="M 750 794 
L 1409 794 
L 1409 256 
L 897 -744 
L 494 -744 
L 750 256 
L 750 794 
z
" transform="scale(0.015625)"/>
       <path id="DejaVuSans-70" d="M 1159 525 
L 1159 -1331 
L 581 -1331 
L 581 3500 
L 1159 3500 
L 1159 2969 
Q 1341 3281 1617 3432 
Q 1894 3584 2278 3584 
Q 2916 3584 3314 3078 
Q 3713 2572 3713 1747 
Q 3713 922 3314 415 
Q 2916 -91 2278 -91 
Q 1894 -91 1617 61 
Q 1341 213 1159 525 
z
M 3116 1747 
Q 3116 2381 2855 2742 
Q 2594 3103 2138 3103 
Q 1681 3103 1420 2742 
Q 1159 2381 1159 1747 
Q 1159 1113 1420 752 
Q 1681 391 2138 391 
Q 2594 391 2855 752 
Q 3116 1113 3116 1747 
z
" transform="scale(0.015625)"/>
      </defs>
      <use xlink:href="#DejaVuSans-46"/>
      <use xlink:href="#DejaVuSans-72" x="50.269531"/>
      <use xlink:href="#DejaVuSans-61" x="91.382812"/>
      <use xlink:href="#DejaVuSans-63" x="152.662109"/>
      <use xlink:href="#DejaVuSans-74" x="207.642578"/>
      <use xlink:href="#DejaVuSans-69" x="246.851562"/>
      <use xlink:href="#DejaVuSans-6f" x="274.634766"/>
      <use xlink:href="#DejaVuSans-6e" x="335.816406"/>
      <use xlink:href="#DejaVuSans-20" x="399.195312"/>
      <use xlink:href="#DejaVuSans-6f" x="430.982422"/>
      <use xlink:href="#DejaVuSans-66" x="492.164062"/>
      <use xlink:href="#DejaVuSans-20" x="527.369141"/>
      <use xlink:href="#DejaVuSans-66" x="559.15625"/>
      <use xlink:href="#DejaVuSans-75" x="594.361328"/>
      <use xlink:href="#DejaVuSans-6e" x="657.740234"/>
      <use xlink:href="#DejaVuSans-63" x="721.119141"/>
      <use xlink:href="#DejaVuSans-74" x="776.099609"/>
      <use xlink:href="#DejaVuSans-69" x="815.308594"/>
      <use xlink:href="#DejaVuSans-6f" x="843.091797"/>
      <use xlink:href="#DejaVuSans-6e" x="904.273438"/>
      <use xlink:href="#DejaVuSans-2c" x="967.652344"/>
      <use xlink:href="#DejaVuSans-74" x="999.439453"/>
      <use xlink:href="#DejaVuSans-61" x="1038.648438"/>
      <use xlink:href="#DejaVuSans-72" x="1099.927734"/>
      <use xlink:href="#DejaVuSans-67" x="1139.291016"/>
      <use xlink:href="#DejaVuSans-65" x="1202.767578"/>
      <use xlink:href="#DejaVuSans-74" x="1264.291016"/>
      <use xlink:href="#DejaVuSans-20" x="1303.5"/>
      <use xlink:href="#DejaVuSans-70" x="1335.287109"/>
      <use xlink:href="#DejaVuSans-61" x="1398.763672"/>
      <use xlink:href="#DejaVuSans-69" x="1460.042969"/>
      <use xlink:href="#DejaVuSans-72" x="1487.826172"/>
      <use xlink:href="#DejaVuSans-73" x="1528.939453"/>
     </g>
    </g>
   </g>
   <g id="line2d_33">
    <defs>
     <path id="mbf3921cfbe" d="M 0 1.5 
C 0.397805 1.5 0.77937 1.341951 1.06066 1.06066 
C 1.341951 0.77937 1.5 0.397805 1.5 0 
C 1.5 -0.397805 1.341951 -0.77937 1.06066 -1.06066 
C 0.77937 -1.341951 0.397805 -1.5 0 -1.5 
C -0.397805 -1.5 -0.77937 -1.341951 -1.06066 -1.06066 
C -1.341951 -0.77937 -1.5 -0.397805 -1.5 0 
C -1.5 0.397805 -1.341951 0.77937 -1.06066 1.06066 
C -0.77937 1.341951 -0.397805 1.5 0 1.5 
z
" style="stroke: #f5deb3"/>
    </defs>
    <g>
     <use xlink:href="#mbf3921cfbe" x="216.773368" y="27.648" style="fill: #f5deb3; stroke: #f5deb3"/>
     <use xlink:href="#mbf3921cfbe" x="216.773368" y="27.648" style="fill: #f5deb3; stroke: #f5deb3"/>
    </g>
   </g>
   <g id="line2d_34">
    <defs>
     <path id="m7070e30bee" d="M 0 1.5 
C 0.397805 1.5 0.77937 1.341951 1.06066 1.06066 
C 1.341951 0.77937 1.5 0.397805 1.5 0 
C 1.5 -0.397805 1.341951 -0.77937 1.06066 -1.06066 
C 0.77937 -1.341951 0.397805 -1.5 0 -1.5 
C -0.397805 -1.5 -0.77937 -1.341951 -1.06066 -1.06066 
C -1.341951 -0.77937 -1.5 -0.397805 -1.5 0 
C -1.5 0.397805 -1.341951 0.77937 -1.06066 1.06066 
C -0.77937 1.341951 -0.397805 1.5 0 1.5 
z
" style="stroke: #000080"/>
    </defs>
    <g>
     <use xlink:href="#m7070e30bee" x="225.611758" y="27.648" style="fill: #000080; stroke: #000080"/>
     <use xlink:href="#m7070e30bee" x="225.611758" y="27.648" style="fill: #000080; stroke: #000080"/>
    </g>
   </g>
   <g id="line2d_35">
    <path d="M 1.245626 298.944 
L 1.245626 277.665882 
L 27.323974 277.665882 
L 27.323974 276.601976 
L 31.521651 276.601976 
L 31.521651 276.247341 
L 37.851216 276.247341 
L 37.851216 275.538071 
L 44.560826 275.538071 
L 44.560826 275.183435 
L 49.496305 275.183435 
L 49.496305 274.119529 
L 53.402323 274.119529 
L 53.402323 273.764894 
L 59.392932 273.764894 
L 59.392932 273.055624 
L 63.245433 273.055624 
L 63.245433 272.700988 
L 65.844256 272.700988 
L 65.844256 271.991718 
L 66.441498 271.991718 
L 66.441498 271.282447 
L 67.020361 271.282447 
L 67.020361 270.573176 
L 75.209369 270.573176 
L 75.209369 270.218541 
L 75.574654 270.218541 
L 75.574654 269.863906 
L 78.266603 269.863906 
L 78.266603 269.509271 
L 79.480672 269.509271 
L 79.480672 269.154635 
L 81.166416 269.154635 
L 81.166416 268.8 
L 82.464279 268.8 
L 82.464279 268.445365 
L 91.148357 268.445365 
L 91.148357 268.090729 
L 91.305777 268.090729 
L 91.305777 267.736094 
L 91.770283 267.736094 
L 91.770283 267.381459 
L 96.361458 267.381459 
L 96.361458 266.672188 
L 98.510456 266.672188 
L 98.510456 266.317553 
L 99.346662 266.317553 
L 99.346662 265.962918 
L 100.630889 265.962918 
L 100.630889 265.608282 
L 101.471247 265.608282 
L 101.471247 265.253647 
L 104.028784 265.253647 
L 104.028784 264.899012 
L 104.187532 264.899012 
L 104.187532 264.544376 
L 104.961779 264.544376 
L 104.961779 264.189741 
L 105.112877 264.189741 
L 105.112877 263.480471 
L 105.411479 263.480471 
L 105.485395 262.7712 
L 106.066493 262.7712 
L 106.066493 262.061929 
L 107.244765 262.061929 
L 107.244765 261.707294 
L 108.542628 261.707294 
L 108.542628 261.352659 
L 108.85357 261.352659 
L 108.85357 260.998024 
L 109.460447 260.998024 
L 109.460447 260.643388 
L 110.505802 260.643388 
L 110.505802 260.288753 
L 110.897141 260.288753 
L 110.897141 259.934118 
L 111.226215 259.934118 
L 111.226215 259.579482 
L 111.81496 259.579482 
L 111.81496 259.224847 
L 112.128493 259.224847 
L 112.128493 258.870212 
L 112.690074 258.870212 
L 112.690074 258.515576 
L 113.907287 258.515576 
L 113.907287 258.160941 
L 114.048198 258.160941 
L 114.141556 257.451671 
L 114.7824 257.451671 
L 114.7824 256.7424 
L 115.83262 256.7424 
L 115.83262 256.387765 
L 116.624364 256.387765 
L 116.624364 256.033129 
L 116.907859 256.033129 
L 116.907859 255.678494 
L 117.107771 255.678494 
L 117.107771 255.323859 
L 117.962989 255.323859 
L 117.962989 254.969224 
L 118.076654 254.969224 
L 118.076654 254.614588 
L 118.301945 254.614588 
L 118.301945 254.259953 
L 118.487648 254.259953 
L 118.487648 253.905318 
L 118.781011 253.905318 
L 118.817362 253.196047 
L 119.876453 253.196047 
L 119.91075 252.486776 
L 121.008818 252.486776 
L 121.073351 251.777506 
L 122.13785 251.777506 
L 122.13785 251.422871 
L 122.588988 251.422871 
L 122.64833 250.7136 
L 124.156336 250.7136 
L 124.183659 250.004329 
L 124.615507 250.004329 
L 124.615507 249.649694 
L 124.748451 249.649694 
L 124.827769 248.585788 
L 125.037663 248.585788 
L 125.037663 248.231153 
L 125.577745 248.231153 
L 125.678882 247.521882 
L 125.779479 247.521882 
L 125.779479 247.167247 
L 126.151997 247.167247 
L 126.250102 246.457976 
L 126.323346 246.457976 
L 126.323346 246.103341 
L 126.756923 246.103341 
L 126.756923 245.748706 
L 127.956104 245.748706 
L 128.000734 245.039435 
L 128.679293 245.039435 
L 128.722242 243.975529 
L 129.062347 243.975529 
L 129.062347 243.620894 
L 129.643124 243.620894 
L 129.643124 243.266259 
L 130.047255 243.266259 
L 130.047255 242.911624 
L 130.753507 242.911624 
L 130.753507 242.556988 
L 130.887807 242.556988 
L 130.887807 242.202353 
L 131.002163 242.202353 
L 131.002163 241.847718 
L 131.153565 241.847718 
L 131.153565 241.493082 
L 132.05522 241.493082 
L 132.05522 241.138447 
L 132.305093 241.138447 
L 132.411173 240.429176 
L 132.446401 240.429176 
L 132.446401 240.074541 
L 132.881269 240.074541 
L 132.881269 239.719906 
L 133.171339 239.719906 
L 133.171339 239.365271 
L 133.356676 239.365271 
L 133.44032 238.656 
L 133.490329 238.656 
L 133.490329 238.301365 
L 134.28886 238.301365 
L 134.28886 237.946729 
L 134.431915 237.946729 
L 134.447743 237.237459 
L 134.901055 237.237459 
L 134.97812 236.528188 
L 135.463998 236.528188 
L 135.55372 235.818918 
L 135.92302 235.818918 
L 135.92302 235.464282 
L 136.083243 235.464282 
L 136.083243 235.109647 
L 136.198918 235.109647 
L 136.198918 234.400376 
L 136.696795 234.400376 
L 136.696795 234.045741 
L 137.003134 234.045741 
L 137.003134 233.691106 
L 137.154452 233.691106 
L 137.168148 232.981835 
L 137.318151 232.981835 
L 137.372402 232.272565 
L 137.932787 232.272565 
L 138.024583 231.208659 
L 138.050729 231.208659 
L 138.050729 230.854024 
L 138.806108 230.854024 
L 138.806108 230.499388 
L 138.980985 230.499388 
L 139.080189 229.435482 
L 140.18495 229.435482 
L 140.278019 228.371576 
L 140.301214 228.371576 
L 140.335954 227.662306 
L 140.543056 227.662306 
L 140.543056 227.307671 
L 140.679868 227.307671 
L 140.725251 226.5984 
L 140.860749 226.5984 
L 140.860749 226.243765 
L 141.206334 226.243765 
L 141.206334 225.889129 
L 141.415049 225.889129 
L 141.415049 225.534494 
L 141.686191 225.534494 
L 141.761416 224.470588 
L 142.518184 224.470588 
L 142.518184 224.115953 
L 142.641404 224.115953 
L 142.733292 223.052047 
L 143.096422 223.052047 
L 143.136341 222.342776 
L 143.628302 222.342776 
L 143.657415 221.633506 
L 143.888708 221.633506 
L 143.984246 220.5696 
L 144.031834 220.5696 
L 144.031834 220.214965 
L 144.164444 220.214965 
L 144.202161 219.505694 
L 144.482657 219.505694 
L 144.482657 219.151059 
L 145.031404 219.151059 
L 145.067425 218.087153 
L 145.184016 218.087153 
L 145.184016 217.732518 
L 145.851536 217.732518 
L 145.851536 217.377882 
L 146.159649 217.377882 
L 146.159649 217.023247 
L 146.311833 217.023247 
L 146.420983 215.959341 
L 146.504516 215.959341 
L 146.504516 215.604706 
L 146.900389 215.604706 
L 146.900389 215.250071 
L 147.111393 215.250071 
L 147.183884 214.186165 
L 147.502732 214.186165 
L 147.502732 213.831529 
L 147.714939 213.831529 
L 147.73837 213.122259 
L 148.239014 213.122259 
L 148.239014 212.767624 
L 148.428077 212.767624 
L 148.525643 212.058353 
L 148.540609 212.058353 
L 148.540609 211.703718 
L 148.903591 211.703718 
L 149.006027 210.994447 
L 149.035192 210.994447 
L 149.035192 210.639812 
L 149.187572 210.639812 
L 149.187572 210.285176 
L 149.381693 210.285176 
L 149.381693 209.930541 
L 149.587985 209.930541 
L 149.587985 209.575906 
L 149.721926 209.575906 
L 149.721926 209.221271 
L 150.063014 209.221271 
L 150.097474 208.512 
L 150.262008 208.512 
L 150.262008 208.157365 
L 150.546523 208.157365 
L 150.647102 207.448094 
L 150.853277 207.448094 
L 150.853277 207.093459 
L 151.528902 207.093459 
L 151.528902 206.738824 
L 151.725684 206.738824 
L 151.725684 206.384188 
L 151.857828 206.384188 
L 151.87663 205.674918 
L 152.16877 205.674918 
L 152.16877 205.320282 
L 152.5896 205.320282 
L 152.5896 204.965647 
L 153.200785 204.965647 
L 153.212458 204.256376 
L 153.357767 204.256376 
L 153.450178 203.192471 
L 154.497869 203.192471 
L 154.497869 202.837835 
L 155.072108 202.837835 
L 155.072108 202.4832 
L 155.339761 202.4832 
L 155.339761 202.128565 
L 155.588239 202.128565 
L 155.680579 201.419294 
L 155.954908 201.419294 
L 155.954908 201.064659 
L 156.570108 201.064659 
L 156.570108 200.710024 
L 161.516098 200.710024 
L 161.516098 200.355388 
L 182.845108 200.355388 
L 182.911408 199.646118 
L 183.131526 199.646118 
L 183.131526 199.291482 
L 183.283147 199.291482 
L 183.362027 198.582212 
L 183.440577 198.582212 
L 183.467466 197.872941 
L 183.815871 197.872941 
L 183.906253 196.809035 
L 184.132019 196.809035 
L 184.197314 196.099765 
L 184.389624 196.099765 
L 184.478405 195.390494 
L 184.632771 195.390494 
L 184.738986 194.681224 
L 184.835916 194.681224 
L 184.835916 194.326588 
L 185.042265 194.326588 
L 185.145131 193.262682 
L 185.315334 193.262682 
L 185.354475 192.198776 
L 185.569875 192.198776 
L 185.620997 191.489506 
L 185.77147 191.489506 
L 185.873519 190.4256 
L 186.001583 190.4256 
L 186.029131 189.716329 
L 186.183466 189.716329 
L 186.219835 188.652424 
L 186.316475 188.652424 
L 186.316475 188.297788 
L 186.505296 188.297788 
L 186.616303 186.879247 
L 186.673532 186.879247 
L 186.673532 186.524612 
L 186.816825 186.524612 
L 186.844181 185.815341 
L 187.028772 185.815341 
L 187.096325 184.751435 
L 187.158836 184.751435 
L 187.158836 184.3968 
L 187.350836 184.3968 
L 187.383121 183.687529 
L 187.550302 183.687529 
L 187.636615 182.623624 
L 187.694561 182.623624 
L 187.694561 182.268988 
L 187.908895 182.268988 
L 187.978881 181.559718 
L 188.057763 181.559718 
L 188.152716 179.786541 
L 188.348407 179.786541 
L 188.445494 179.077271 
L 188.591082 179.077271 
L 188.639066 178.368 
L 188.823638 178.368 
L 188.880673 177.304094 
L 189.098442 177.304094 
L 189.168462 176.594824 
L 189.453614 176.594824 
L 189.467207 175.885553 
L 189.61187 175.885553 
L 189.61187 175.530918 
L 189.730322 175.530918 
L 189.758773 174.821647 
L 189.997239 174.821647 
L 190.081267 174.112376 
L 190.414483 174.112376 
L 190.414483 173.757741 
L 190.587307 173.757741 
L 190.587307 173.403106 
L 191.789121 173.403106 
L 191.789121 173.048471 
L 198.229666 173.048471 
L 198.229666 172.693835 
L 198.370386 172.693835 
L 198.370386 172.3392 
L 198.520036 172.3392 
L 198.520036 171.984565 
L 198.71687 171.984565 
L 198.718428 171.275294 
L 198.891607 171.275294 
L 198.903439 170.566024 
L 199.122772 170.566024 
L 199.155275 169.502118 
L 199.349122 169.502118 
L 199.352135 168.792847 
L 199.506161 168.792847 
L 199.580719 167.728941 
L 199.68066 167.728941 
L 199.767306 165.955765 
L 199.827624 165.955765 
L 199.926752 164.891859 
L 199.951574 164.891859 
L 200.005486 163.827953 
L 200.08051 163.827953 
L 200.11767 162.409412 
L 200.198971 162.409412 
L 200.271795 159.926965 
L 200.310487 159.926965 
L 200.374323 158.863059 
L 200.430358 158.863059 
L 200.534386 156.735247 
L 200.543815 156.735247 
L 200.651437 155.671341 
L 200.655186 155.671341 
L 200.744463 153.898165 
L 200.787315 153.898165 
L 200.861609 153.188894 
L 200.901421 153.188894 
L 200.972041 151.415718 
L 201.040561 151.415718 
L 201.131687 149.287906 
L 201.154058 149.287906 
L 201.19963 148.578635 
L 201.287272 148.578635 
L 201.39479 146.096188 
L 201.440682 146.096188 
L 201.520948 144.323012 
L 201.562515 144.323012 
L 201.652487 142.1952 
L 201.725218 142.1952 
L 201.83599 139.003482 
L 201.879941 139.003482 
L 201.934736 137.230306 
L 202.036885 137.230306 
L 202.133286 135.457129 
L 202.282984 135.457129 
L 202.356318 134.393224 
L 202.403342 134.393224 
L 202.507231 133.683953 
L 202.518691 133.683953 
L 202.622791 132.265412 
L 202.705742 132.265412 
L 202.814246 130.846871 
L 202.920882 130.846871 
L 203.031459 129.428329 
L 203.032698 129.428329 
L 203.116743 128.719059 
L 203.184037 128.719059 
L 203.266594 127.300518 
L 203.297561 127.300518 
L 203.393805 126.236612 
L 203.457695 126.236612 
L 203.532228 125.172706 
L 203.580016 125.172706 
L 203.663652 124.1088 
L 203.72544 124.1088 
L 203.750496 123.399529 
L 203.838523 123.399529 
L 203.838523 123.044894 
L 203.987857 123.044894 
L 204.068141 122.335624 
L 204.241632 122.335624 
L 204.297307 121.626353 
L 204.527147 121.626353 
L 204.616936 120.917082 
L 204.755343 120.917082 
L 204.848926 119.853176 
L 204.938316 119.853176 
L 205.030624 119.143906 
L 205.131348 119.143906 
L 205.212423 118.434635 
L 207.080889 118.434635 
L 207.080889 118.08 
L 209.986599 118.08 
L 209.986599 117.725365 
L 210.152766 117.725365 
L 210.152766 117.370729 
L 210.278472 117.370729 
L 210.278472 117.016094 
L 210.519628 117.016094 
L 210.519628 116.661459 
L 210.722646 116.661459 
L 210.827978 115.597553 
L 210.920511 115.597553 
L 210.988801 114.533647 
L 211.040666 114.533647 
L 211.040666 114.179012 
L 211.207444 114.179012 
L 211.276034 112.760471 
L 211.43256 112.760471 
L 211.469774 112.0512 
L 211.548448 112.0512 
L 211.623918 111.341929 
L 211.75033 111.341929 
L 211.82629 109.923388 
L 211.882349 109.923388 
L 211.967795 108.859482 
L 212.017034 108.859482 
L 212.119965 107.440941 
L 212.131933 107.440941 
L 212.213215 105.313129 
L 212.264343 105.313129 
L 212.37247 102.830682 
L 212.408876 102.830682 
L 212.513683 99.9936 
L 212.591596 99.9936 
L 212.69564 98.220424 
L 212.736604 98.220424 
L 212.840831 95.737976 
L 212.851859 95.737976 
L 212.953503 93.255529 
L 212.968605 93.255529 
L 213.040537 92.546259 
L 213.088259 92.546259 
L 213.174192 89.709176 
L 213.217252 89.709176 
L 213.313599 86.162824 
L 213.337251 86.162824 
L 213.431086 83.680376 
L 213.453878 83.680376 
L 213.540051 80.843294 
L 213.570259 80.843294 
L 213.660126 76.587671 
L 213.696469 76.587671 
L 213.779207 74.105224 
L 213.829979 74.105224 
L 213.917459 71.622776 
L 213.947068 71.622776 
L 214.000155 70.558871 
L 214.111153 70.558871 
L 214.169491 68.785694 
L 214.242673 68.785694 
L 214.315117 65.948612 
L 214.354741 65.948612 
L 214.43982 64.175435 
L 214.474239 64.175435 
L 214.58494 62.402259 
L 214.631134 62.402259 
L 214.738924 60.629082 
L 214.793362 60.629082 
L 214.897812 58.146635 
L 214.93579 58.146635 
L 215.022653 56.728094 
L 215.055151 56.728094 
L 215.130183 55.309553 
L 215.212914 55.309553 
L 215.281508 53.891012 
L 215.329891 53.891012 
L 215.402767 52.827106 
L 215.464065 52.827106 
L 215.465131 52.117835 
L 215.589453 52.117835 
L 215.696959 50.699294 
L 215.746387 50.699294 
L 215.812439 49.990024 
L 215.866992 49.990024 
L 215.954033 48.926118 
L 216.024121 48.926118 
L 216.12568 47.862212 
L 216.202105 47.862212 
L 216.287816 46.443671 
L 216.357692 46.443671 
L 216.386544 45.7344 
L 216.528129 45.7344 
L 216.528129 45.379765 
L 216.669257 45.379765 
L 216.760236 44.315859 
L 216.821241 44.315859 
L 216.821241 43.961224 
L 216.941674 43.961224 
L 216.995215 43.251953 
L 217.0633 43.251953 
L 217.110051 42.188047 
L 217.195233 42.188047 
L 217.282936 41.124141 
L 217.390644 41.124141 
L 217.458657 40.060235 
L 217.550678 40.060235 
L 217.650796 38.996329 
L 217.700466 38.996329 
L 217.802616 37.932424 
L 217.853954 37.932424 
L 217.962372 37.223153 
L 218.071655 37.223153 
L 218.094474 36.513882 
L 218.226575 36.513882 
L 218.262442 35.804612 
L 224.254237 35.804612 
L 224.254237 35.449976 
L 224.371735 35.449976 
L 224.436298 34.740706 
L 224.506312 34.740706 
L 224.547801 34.031435 
L 224.69471 34.031435 
L 224.725232 32.612894 
L 224.825838 32.612894 
L 224.857054 31.194353 
L 224.990143 31.194353 
L 225.098036 29.775812 
L 225.174544 29.775812 
L 225.2354 28.711906 
L 225.374412 28.711906 
L 225.374412 28.357271 
L 225.533016 28.357271 
L 225.611758 27.648 
L 360.8064 27.648 
L 360.8064 27.648 
" style="fill: none; stroke: #000080; stroke-width: 1.5; stroke-linecap: square"/>
   </g>
   <g id="line2d_36">
    <defs>
     <path id="m652c938a27" d="M 0 6 
C 1.591219 6 3.117479 5.367802 4.242641 4.242641 
C 5.367802 3.117479 6 1.591219 6 0 
C 6 -1.591219 5.367802 -3.117479 4.242641 -4.242641 
C 3.117479 -5.367802 1.591219 -6 0 -6 
C -1.591219 -6 -3.117479 -5.367802 -4.242641 -4.242641 
C -5.367802 -3.117479 -6 -1.591219 -6 0 
C -6 1.591219 -5.367802 3.117479 -4.242641 4.242641 
C -3.117479 5.367802 -1.591219 6 0 6 
z
" style="stroke: #000080; stroke-width: 1.5"/>
    </defs>
    <g>
     <use xlink:href="#m652c938a27" x="65.844256" y="272.700988" style="fill-opacity: 0; stroke: #000080; stroke-width: 1.5"/>
     <use xlink:href="#m652c938a27" x="148.428077" y="212.767624" style="fill-opacity: 0; stroke: #000080; stroke-width: 1.5"/>
     <use xlink:href="#m652c938a27" x="213.174192" y="90.063812" style="fill-opacity: 0; stroke: #000080; stroke-width: 1.5"/>
     <use xlink:href="#m652c938a27" x="225.611758" y="27.648" style="fill-opacity: 0; stroke: #000080; stroke-width: 1.5"/>
     <use xlink:href="#m652c938a27" x="225.611758" y="27.648" style="fill-opacity: 0; stroke: #000080; stroke-width: 1.5"/>
     <use xlink:href="#m652c938a27" x="360.8064" y="27.648" style="fill-opacity: 0; stroke: #000080; stroke-width: 1.5"/>
    </g>
   </g>
   <g id="line2d_37">
    <path style="fill: none; stroke: #000080; stroke-width: 1.5; stroke-linecap: square"/>
    <g/>
   </g>
   <g id="line2d_38">
    <defs>
     <path id="m58840ed460" d="M 0 1.5 
C 0.397805 1.5 0.77937 1.341951 1.06066 1.06066 
C 1.341951 0.77937 1.5 0.397805 1.5 0 
C 1.5 -0.397805 1.341951 -0.77937 1.06066 -1.06066 
C 0.77937 -1.341951 0.397805 -1.5 0 -1.5 
C -0.397805 -1.5 -0.77937 -1.341951 -1.06066 -1.06066 
C -1.341951 -0.77937 -1.5 -0.397805 -1.5 0 
C -1.5 0.397805 -1.341951 0.77937 -1.06066 1.06066 
C -0.77937 1.341951 -0.397805 1.5 0 1.5 
z
" style="stroke: #ff00ff"/>
    </defs>
    <g>
     <use xlink:href="#m58840ed460" x="225.448928" y="27.648" style="fill: #ff00ff; stroke: #ff00ff"/>
     <use xlink:href="#m58840ed460" x="225.448928" y="27.648" style="fill: #ff00ff; stroke: #ff00ff"/>
    </g>
   </g>
   <g id="line2d_39">
    <path d="M 1.245626 298.944 
L 1.245626 277.665882 
L 21.912228 277.665882 
L 21.912228 277.311247 
L 31.521651 277.311247 
L 31.521651 276.956612 
L 34.951403 276.956612 
L 34.951403 276.601976 
L 37.851216 276.601976 
L 37.851216 275.892706 
L 40.363149 275.892706 
L 40.363149 275.538071 
L 47.990577 275.538071 
L 47.990577 274.8288 
L 50.890391 274.8288 
L 50.890391 274.474165 
L 53.402323 274.474165 
L 53.402323 274.119529 
L 55.618005 274.119529 
L 55.618005 273.764894 
L 57.6 273.764894 
L 57.6 273.055624 
L 59.392932 273.055624 
L 59.392932 272.700988 
L 61.797677 272.700988 
L 61.797677 272.346353 
L 65.227428 272.346353 
L 65.227428 271.991718 
L 70.162907 271.991718 
L 70.162907 271.282447 
L 73.672879 271.282447 
L 73.672879 270.927812 
L 75.574654 270.927812 
L 75.574654 270.573176 
L 78.266603 270.573176 
L 78.266603 270.218541 
L 81.166416 270.218541 
L 81.166416 269.863906 
L 81.433251 269.863906 
L 81.433251 269.509271 
L 81.696354 269.509271 
L 81.696354 269.154635 
L 89.668958 269.154635 
L 89.668958 268.8 
L 91.770283 268.8 
L 91.770283 268.445365 
L 92.372304 268.445365 
L 92.372304 268.090729 
L 93.381595 268.090729 
L 93.381595 267.736094 
L 93.521459 267.736094 
L 93.521459 267.381459 
L 93.798104 267.381459 
L 93.798104 267.026824 
L 94.604437 267.026824 
L 94.604437 266.317553 
L 96.120281 266.317553 
L 96.120281 265.962918 
L 96.480897 265.962918 
L 96.480897 265.608282 
L 97.066974 265.608282 
L 97.066974 265.253647 
L 100.147275 265.253647 
L 100.147275 264.899012 
L 101.562344 264.899012 
L 101.562344 264.544376 
L 101.743226 264.544376 
L 101.743226 264.189741 
L 103.047088 264.189741 
L 103.047088 263.480471 
L 103.544339 263.480471 
L 103.544339 263.125835 
L 103.868684 263.125835 
L 103.868684 262.7712 
L 104.344952 262.7712 
L 104.344952 262.061929 
L 106.560633 262.061929 
L 106.560633 261.707294 
L 106.974091 261.707294 
L 106.974091 261.352659 
L 107.839908 261.352659 
L 107.839908 260.998024 
L 108.791791 260.998024 
L 108.85357 260.288753 
L 108.976522 260.288753 
L 108.976522 259.934118 
L 109.340628 259.934118 
L 109.340628 259.579482 
L 109.460447 259.579482 
L 109.520071 258.870212 
L 110.618446 258.870212 
L 110.618446 258.515576 
L 111.007473 258.515576 
L 111.007473 257.806306 
L 112.740305 257.806306 
L 112.840366 257.097035 
L 112.890198 257.097035 
L 112.890198 256.7424 
L 113.478107 256.7424 
L 113.478107 256.387765 
L 114.280729 256.387765 
L 114.372943 255.678494 
L 115.704505 255.678494 
L 115.704505 255.323859 
L 116.170056 255.323859 
L 116.170056 254.969224 
L 117.107771 254.969224 
L 117.1475 254.259953 
L 117.226706 254.259953 
L 117.226706 253.905318 
L 117.962989 253.905318 
L 117.962989 253.550682 
L 118.076654 253.550682 
L 118.076654 253.196047 
L 118.99807 253.196047 
L 118.99807 252.841412 
L 119.319033 252.841412 
L 119.319033 252.486776 
L 120.0813 252.486776 
L 120.0813 252.132141 
L 120.351004 252.132141 
L 120.351004 251.777506 
L 120.879082 251.777506 
L 120.879082 251.422871 
L 121.169739 251.422871 
L 121.169739 251.068235 
L 121.329295 251.068235 
L 121.329295 250.7136 
L 121.830966 250.7136 
L 121.830966 250.358965 
L 122.015696 250.358965 
L 122.015696 250.004329 
L 122.13785 250.004329 
L 122.13785 249.649694 
L 122.499621 249.649694 
L 122.499621 249.295059 
L 122.677931 249.295059 
L 122.707486 248.585788 
L 123.202939 248.585788 
L 123.202939 248.231153 
L 124.019125 248.231153 
L 124.101572 247.521882 
L 124.156336 247.521882 
L 124.156336 247.167247 
L 124.535287 247.167247 
L 124.535287 246.812612 
L 124.748451 246.812612 
L 124.827769 246.103341 
L 124.906754 246.103341 
L 124.906754 245.748706 
L 125.526971 245.748706 
L 125.526971 245.394071 
L 126.250102 245.394071 
L 126.250102 245.039435 
L 126.756923 245.039435 
L 126.756923 244.6848 
L 127.040519 244.6848 
L 127.06396 243.975529 
L 127.18073 243.975529 
L 127.18073 243.620894 
L 127.88896 243.620894 
L 127.978432 242.911624 
L 128.700779 242.911624 
L 128.743679 241.493082 
L 128.956723 241.493082 
L 128.956723 241.138447 
L 129.125437 241.138447 
L 129.125437 240.783812 
L 129.334225 240.783812 
L 129.334225 240.074541 
L 129.458394 240.074541 
L 129.458394 239.719906 
L 129.846275 239.719906 
L 129.846275 239.365271 
L 130.830367 239.365271 
L 130.830367 239.010635 
L 131.471303 239.010635 
L 131.471303 238.656 
L 131.618991 238.656 
L 131.655732 237.946729 
L 131.801984 237.946729 
L 131.856536 237.237459 
L 132.743202 237.237459 
L 132.846847 236.528188 
L 133.086488 236.528188 
L 133.086488 236.173553 
L 133.390178 236.173553 
L 133.390178 235.464282 
L 133.639562 235.464282 
L 133.639562 235.109647 
L 133.901977 235.109647 
L 133.901977 234.755012 
L 134.22493 234.755012 
L 134.22493 234.400376 
L 134.336666 234.400376 
L 134.368469 233.691106 
L 134.7148 233.691106 
L 134.7148 233.336471 
L 134.916493 233.336471 
L 134.931919 232.6272 
L 135.070183 232.6272 
L 135.070183 232.272565 
L 135.268121 232.272565 
L 135.268121 231.917929 
L 135.418977 231.917929 
L 135.418977 231.563294 
L 135.952253 231.563294 
L 135.952253 231.208659 
L 136.541735 231.208659 
L 136.626472 230.499388 
L 136.97549 230.499388 
L 137.030737 229.790118 
L 137.099568 229.790118 
L 137.099568 229.435482 
L 137.893309 229.435482 
L 137.893309 229.080847 
L 138.451402 229.080847 
L 138.451402 228.726212 
L 138.578852 228.726212 
L 138.578852 228.016941 
L 138.931186 228.016941 
L 138.931186 227.662306 
L 139.178873 227.662306 
L 139.178873 227.307671 
L 139.640678 227.307671 
L 139.640678 226.953035 
L 139.973845 226.953035 
L 139.973845 226.5984 
L 140.14993 226.5984 
L 140.14993 226.243765 
L 140.520157 226.243765 
L 140.520157 225.889129 
L 140.679868 225.889129 
L 140.679868 225.534494 
L 140.894472 225.534494 
L 140.894472 225.179859 
L 141.095547 225.179859 
L 141.173167 224.470588 
L 141.415049 224.470588 
L 141.415049 224.115953 
L 141.974701 224.115953 
L 141.974701 223.761318 
L 142.206555 223.761318 
L 142.206555 223.406682 
L 142.945969 223.406682 
L 143.056419 222.697412 
L 143.19606 222.697412 
L 143.295173 221.988141 
L 143.734829 221.988141 
L 143.734829 221.633506 
L 143.907854 221.633506 
L 143.984246 220.924235 
L 144.704081 220.924235 
L 144.704081 220.5696 
L 145.397382 220.5696 
L 145.397382 220.214965 
L 145.529517 220.214965 
L 145.547065 219.505694 
L 145.712961 219.505694 
L 145.712961 219.151059 
L 146.437719 219.151059 
L 146.437719 218.796424 
L 147.175843 218.796424 
L 147.175843 218.441788 
L 147.878349 218.441788 
L 147.893838 217.732518 
L 148.170484 217.732518 
L 148.170484 217.377882 
L 148.555562 217.377882 
L 148.555562 217.023247 
L 149.345895 217.023247 
L 149.345895 216.668612 
L 149.552579 216.668612 
L 149.552579 216.313976 
L 150.255181 216.313976 
L 150.255181 215.959341 
L 150.398028 215.959341 
L 150.398028 215.604706 
L 151.687758 215.604706 
L 151.687758 215.250071 
L 152.0388 215.250071 
L 152.0388 214.895435 
L 152.395603 214.895435 
L 152.395603 214.5408 
L 152.55942 214.5408 
L 152.55942 214.186165 
L 154.322673 214.186165 
L 154.322673 213.831529 
L 181.538877 213.831529 
L 181.538877 213.476894 
L 181.6563 213.476894 
L 181.6563 213.122259 
L 181.788329 213.122259 
L 181.788329 212.767624 
L 181.930852 212.767624 
L 181.930852 212.412988 
L 182.192704 212.412988 
L 182.293698 211.349082 
L 182.468218 211.349082 
L 182.567747 210.639812 
L 182.711804 210.639812 
L 182.711804 210.285176 
L 182.839069 210.285176 
L 182.912611 209.221271 
L 182.977474 209.221271 
L 183.062419 208.512 
L 183.176667 208.512 
L 183.176667 208.157365 
L 183.349099 208.157365 
L 183.400757 207.448094 
L 183.77339 207.448094 
L 183.77339 207.093459 
L 183.932486 207.093459 
L 183.985978 206.029553 
L 184.093638 206.029553 
L 184.093638 205.674918 
L 184.321646 205.674918 
L 184.426297 204.965647 
L 184.666781 204.965647 
L 184.749902 204.256376 
L 184.920458 204.256376 
L 184.920458 203.901741 
L 185.07018 203.901741 
L 185.10448 202.837835 
L 185.204877 202.837835 
L 185.307919 201.773929 
L 185.558379 201.773929 
L 185.565695 201.064659 
L 185.698978 201.064659 
L 185.761131 200.355388 
L 185.936123 200.355388 
L 185.955581 199.646118 
L 186.052566 199.646118 
L 186.110518 198.936847 
L 186.192565 198.936847 
L 186.192565 198.582212 
L 186.356596 198.582212 
L 186.447553 197.518306 
L 186.475451 197.518306 
L 186.557908 196.809035 
L 186.620255 196.809035 
L 186.730587 195.035859 
L 186.778655 195.035859 
L 186.840276 194.326588 
L 186.956123 194.326588 
L 187.056788 192.553412 
L 187.068368 192.553412 
L 187.068368 192.198776 
L 187.254604 192.198776 
L 187.2861 190.780235 
L 187.409667 190.780235 
L 187.517361 189.716329 
L 187.556884 189.716329 
L 187.643167 188.652424 
L 187.710418 188.652424 
L 187.718807 187.943153 
L 187.89782 187.943153 
L 187.960489 187.233882 
L 188.104386 187.233882 
L 188.193653 186.169976 
L 188.393417 186.169976 
L 188.457147 184.751435 
L 188.813089 184.751435 
L 188.835937 184.042165 
L 189.365875 184.042165 
L 189.462111 182.623624 
L 189.573064 182.623624 
L 189.573064 182.268988 
L 189.736183 182.268988 
L 189.773819 181.559718 
L 190.308398 181.559718 
L 190.308398 181.205082 
L 191.884957 181.205082 
L 191.884957 180.850447 
L 192.148962 180.850447 
L 192.148962 180.495812 
L 192.313929 180.495812 
L 192.313929 180.141176 
L 192.636714 180.141176 
L 192.636714 179.786541 
L 192.828754 179.786541 
L 192.855016 179.077271 
L 193.0301 179.077271 
L 193.0301 178.722635 
L 193.384422 178.722635 
L 193.384422 178.368 
L 193.576525 178.368 
L 193.576525 178.013365 
L 193.969657 178.013365 
L 193.969657 177.658729 
L 194.794903 177.658729 
L 194.794903 177.304094 
L 197.66151 177.304094 
L 197.66151 176.949459 
L 197.918493 176.949459 
L 197.918493 176.594824 
L 198.093791 176.594824 
L 198.165061 175.885553 
L 198.287143 175.885553 
L 198.287143 175.530918 
L 198.469057 175.530918 
L 198.571401 174.821647 
L 198.70596 174.821647 
L 198.780128 174.112376 
L 198.911151 174.112376 
L 199.014703 173.403106 
L 199.055047 173.403106 
L 199.055047 173.048471 
L 199.192787 173.048471 
L 199.303868 172.3392 
L 199.347615 172.3392 
L 199.447799 171.629929 
L 199.48573 171.629929 
L 199.528062 170.920659 
L 199.615907 170.920659 
L 199.713199 169.856753 
L 199.8144 169.856753 
L 199.888237 167.728941 
L 199.935029 167.728941 
L 200.029235 166.665035 
L 200.059727 166.665035 
L 200.128273 164.891859 
L 200.17207 164.891859 
L 200.250264 162.764047 
L 200.292345 162.764047 
L 200.394762 160.2816 
L 200.442682 160.2816 
L 200.546171 157.799153 
L 200.611092 157.799153 
L 200.693099 155.316706 
L 200.748193 155.316706 
L 200.845846 152.479624 
L 200.879673 152.479624 
L 200.985397 149.997176 
L 200.999203 149.997176 
L 201.02311 148.578635 
L 201.111577 148.578635 
L 201.221465 145.032282 
L 201.232373 145.032282 
L 201.34156 143.613741 
L 201.364585 143.613741 
L 201.474803 141.485929 
L 201.484669 141.485929 
L 201.576351 138.294212 
L 201.608446 138.294212 
L 201.677797 136.1664 
L 201.723447 136.1664 
L 201.812654 134.038588 
L 201.83511 134.038588 
L 201.9378 130.846871 
L 201.957047 130.846871 
L 202.025563 129.073694 
L 202.081673 129.073694 
L 202.192531 126.945882 
L 202.220575 126.945882 
L 202.267078 125.527341 
L 202.357174 125.527341 
L 202.421692 124.1088 
L 202.480887 124.1088 
L 202.565311 122.335624 
L 202.597877 122.335624 
L 202.6561 121.271718 
L 202.739324 121.271718 
L 202.802964 120.207812 
L 202.851804 120.207812 
L 202.944543 118.08 
L 202.990534 118.08 
L 203.077239 116.306824 
L 203.104407 116.306824 
L 203.208187 113.824376 
L 203.284121 113.824376 
L 203.372325 111.341929 
L 203.39988 111.341929 
L 203.496006 109.923388 
L 203.604064 109.923388 
L 203.633282 109.214118 
L 203.730215 109.214118 
L 203.785835 108.504847 
L 203.879224 108.504847 
L 203.988642 107.086306 
L 204.029021 107.086306 
L 204.081033 106.377035 
L 204.186568 106.377035 
L 204.281085 105.313129 
L 204.330478 105.313129 
L 204.396263 104.249224 
L 204.451483 104.249224 
L 204.545444 102.830682 
L 204.600228 102.830682 
L 204.649549 101.766776 
L 204.759487 101.766776 
L 204.81215 101.057506 
L 204.886754 101.057506 
L 204.886754 100.702871 
L 210.03447 100.702871 
L 210.03447 100.348235 
L 210.146261 100.348235 
L 210.146261 99.9936 
L 210.352207 99.9936 
L 210.430671 99.284329 
L 210.52351 99.284329 
L 210.603473 98.575059 
L 210.664667 98.575059 
L 210.774975 97.511153 
L 210.824431 97.511153 
L 210.90829 96.801882 
L 210.954958 96.801882 
L 210.97879 95.737976 
L 211.075432 95.737976 
L 211.109329 94.674071 
L 211.260577 94.674071 
L 211.362417 93.9648 
L 211.429125 93.9648 
L 211.480318 92.900894 
L 211.56131 92.900894 
L 211.666759 92.191624 
L 211.75007 92.191624 
L 211.832239 90.418447 
L 211.979347 90.418447 
L 212.083506 89.354541 
L 212.12786 89.354541 
L 212.232974 87.936 
L 212.252712 87.936 
L 212.358139 86.872094 
L 212.407622 86.872094 
L 212.466729 85.453553 
L 212.553551 85.453553 
L 212.653844 84.035012 
L 212.679328 84.035012 
L 212.733645 82.971106 
L 212.793951 82.971106 
L 212.880991 80.843294 
L 212.943997 80.843294 
L 213.050237 78.006212 
L 213.081968 78.006212 
L 213.183342 75.8784 
L 213.204753 75.8784 
L 213.291114 73.750588 
L 213.318379 73.750588 
L 213.42871 71.268141 
L 213.446759 71.268141 
L 213.545955 69.140329 
L 213.584403 69.140329 
L 213.689674 65.593976 
L 213.714964 65.593976 
L 213.81951 61.692988 
L 213.849041 61.692988 
L 213.952384 58.146635 
L 213.980323 58.146635 
L 214.071701 54.600282 
L 214.120774 54.600282 
L 214.227649 52.472471 
L 214.239942 52.472471 
L 214.332788 50.344659 
L 214.368307 50.344659 
L 214.471317 48.571482 
L 214.500292 48.571482 
L 214.61084 46.443671 
L 214.656303 46.443671 
L 214.720965 45.379765 
L 214.80507 45.379765 
L 214.89957 43.961224 
L 214.948725 43.961224 
L 215.034001 42.542682 
L 215.067568 42.542682 
L 215.093683 41.478776 
L 215.189128 41.478776 
L 215.263844 40.060235 
L 215.309048 40.060235 
L 215.360576 39.350965 
L 215.489422 39.350965 
L 215.543645 38.641694 
L 215.618449 38.641694 
L 215.618449 38.287059 
L 222.491882 38.287059 
L 222.58791 37.577788 
L 222.658738 37.577788 
L 222.732344 36.868518 
L 222.94887 36.868518 
L 222.94887 36.513882 
L 223.2998 36.513882 
L 223.2998 36.159247 
L 223.476671 36.159247 
L 223.476671 35.804612 
L 223.631186 35.804612 
L 223.631186 35.449976 
L 223.744391 35.449976 
L 223.744391 35.095341 
L 223.879426 35.095341 
L 223.988441 34.031435 
L 224.071071 34.031435 
L 224.136673 33.322165 
L 224.225618 33.322165 
L 224.327193 32.258259 
L 224.483223 32.258259 
L 224.483223 31.903624 
L 224.632862 31.903624 
L 224.632862 31.548988 
L 224.789765 31.548988 
L 224.878784 30.839718 
L 224.999136 30.839718 
L 225.04327 30.130447 
L 225.116809 30.130447 
L 225.210649 29.066541 
L 225.263031 29.066541 
L 225.370508 28.002635 
L 225.448928 28.002635 
L 225.448928 27.648 
L 360.8064 27.648 
L 360.8064 27.648 
" style="fill: none; stroke: #ff00ff; stroke-width: 1.5; stroke-linecap: square"/>
   </g>
   <g id="line2d_40">
    <defs>
     <path id="m77e6dc9be7" d="M -0 8.485281 
L 5.091169 0 
L 0 -8.485281 
L -5.091169 -0 
z
" style="stroke: #ff00ff; stroke-width: 1.5; stroke-linejoin: miter"/>
    </defs>
    <g>
     <use xlink:href="#m77e6dc9be7" x="129.458394" y="240.074541" style="fill-opacity: 0; stroke: #ff00ff; stroke-width: 1.5; stroke-linejoin: miter"/>
     <use xlink:href="#m77e6dc9be7" x="193.576525" y="178.368" style="fill-opacity: 0; stroke: #ff00ff; stroke-width: 1.5; stroke-linejoin: miter"/>
     <use xlink:href="#m77e6dc9be7" x="224.136673" y="33.6768" style="fill-opacity: 0; stroke: #ff00ff; stroke-width: 1.5; stroke-linejoin: miter"/>
     <use xlink:href="#m77e6dc9be7" x="225.448928" y="27.648" style="fill-opacity: 0; stroke: #ff00ff; stroke-width: 1.5; stroke-linejoin: miter"/>
     <use xlink:href="#m77e6dc9be7" x="225.448928" y="27.648" style="fill-opacity: 0; stroke: #ff00ff; stroke-width: 1.5; stroke-linejoin: miter"/>
     <use xlink:href="#m77e6dc9be7" x="360.8064" y="27.648" style="fill-opacity: 0; stroke: #ff00ff; stroke-width: 1.5; stroke-linejoin: miter"/>
    </g>
   </g>
   <g id="line2d_41">
    <path style="fill: none; stroke: #ff00ff; stroke-width: 1.5; stroke-linecap: square"/>
    <g/>
   </g>
   <g id="line2d_42">
    <defs>
     <path id="m0e9e9423a4" d="M 0 1.5 
C 0.397805 1.5 0.77937 1.341951 1.06066 1.06066 
C 1.341951 0.77937 1.5 0.397805 1.5 0 
C 1.5 -0.397805 1.341951 -0.77937 1.06066 -1.06066 
C 0.77937 -1.341951 0.397805 -1.5 0 -1.5 
C -0.397805 -1.5 -0.77937 -1.341951 -1.06066 -1.06066 
C -1.341951 -0.77937 -1.5 -0.397805 -1.5 0 
C -1.5 0.397805 -1.341951 0.77937 -1.06066 1.06066 
C -0.77937 1.341951 -0.397805 1.5 0 1.5 
z
" style="stroke: #ff7500"/>
    </defs>
    <g>
     <use xlink:href="#m0e9e9423a4" x="226.383109" y="27.648" style="fill: #ff7500; stroke: #ff7500"/>
     <use xlink:href="#m0e9e9423a4" x="226.383109" y="27.648" style="fill: #ff7500; stroke: #ff7500"/>
    </g>
   </g>
   <g id="line2d_43">
    <path d="M 1.245626 298.944 
L 1.245626 276.601976 
L 14.2848 276.601976 
L 14.2848 276.247341 
L 21.912228 276.247341 
L 21.912228 275.892706 
L 27.323974 275.892706 
L 27.323974 275.538071 
L 34.951403 275.538071 
L 34.951403 275.183435 
L 42.578831 275.183435 
L 42.578831 274.119529 
L 50.890391 274.119529 
L 50.890391 273.764894 
L 52.188254 273.764894 
L 52.188254 273.410259 
L 53.402323 273.410259 
L 53.402323 273.055624 
L 54.542767 273.055624 
L 54.542767 272.700988 
L 55.618005 272.700988 
L 55.618005 272.346353 
L 68.65718 272.346353 
L 68.65718 271.991718 
L 70.639174 271.991718 
L 70.639174 271.637082 
L 72.432107 271.637082 
L 72.432107 271.282447 
L 73.672879 271.282447 
L 73.672879 270.927812 
L 74.068926 270.927812 
L 74.068926 270.573176 
L 75.209369 270.573176 
L 75.209369 270.218541 
L 78.88343 270.218541 
L 78.88343 269.509271 
L 82.464279 269.509271 
L 82.464279 269.154635 
L 83.202082 269.154635 
L 83.202082 268.8 
L 85.471281 268.8 
L 85.471281 268.090729 
L 86.911119 268.090729 
L 86.911119 267.736094 
L 91.770283 267.736094 
L 91.770283 267.026824 
L 92.811505 267.026824 
L 92.811505 266.672188 
L 94.472426 266.672188 
L 94.472426 266.317553 
L 95.752617 266.317553 
L 95.752617 265.962918 
L 96.361458 265.962918 
L 96.361458 265.608282 
L 97.296386 265.608282 
L 97.296386 265.253647 
L 97.746984 265.253647 
L 97.746984 264.899012 
L 98.18704 264.899012 
L 98.18704 264.544376 
L 98.828405 264.544376 
L 98.828405 264.189741 
L 99.346662 264.189741 
L 99.346662 263.835106 
L 100.244997 263.835106 
L 100.244997 263.480471 
L 101.653002 263.480471 
L 101.653002 262.7712 
L 102.362957 262.7712 
L 102.362957 262.416565 
L 104.108325 262.416565 
L 104.108325 262.061929 
L 104.655893 262.061929 
L 104.655893 261.707294 
L 105.037479 261.707294 
L 105.037479 261.352659 
L 105.411479 261.352659 
L 105.411479 260.998024 
L 105.850679 260.998024 
L 105.850679 260.643388 
L 106.066493 260.643388 
L 106.066493 260.288753 
L 106.905809 260.288753 
L 106.905809 259.934118 
L 108.791791 259.934118 
L 108.791791 259.579482 
L 109.037698 259.579482 
L 109.098675 258.870212 
L 109.579508 258.870212 
L 109.638757 258.160941 
L 110.786158 258.160941 
L 110.841731 257.451671 
L 111.54963 257.451671 
L 111.54963 257.097035 
L 112.589207 257.097035 
L 112.589207 256.7424 
L 112.790402 256.7424 
L 112.790402 256.387765 
L 112.989468 256.387765 
L 112.989468 256.033129 
L 113.381389 256.033129 
L 113.381389 255.678494 
L 114.372943 255.678494 
L 114.372943 255.323859 
L 114.7824 255.323859 
L 114.7824 254.969224 
L 116.253478 254.969224 
L 116.253478 254.614588 
L 116.377921 254.614588 
L 116.377921 254.259953 
L 116.948011 254.259953 
L 116.948011 253.905318 
L 117.617813 253.905318 
L 117.617813 253.550682 
L 117.772007 253.550682 
L 117.772007 253.196047 
L 118.561419 253.196047 
L 118.561419 252.841412 
L 119.105667 252.841412 
L 119.105667 252.486776 
L 119.459944 252.486776 
L 119.459944 252.132141 
L 119.807672 252.132141 
L 119.876453 251.422871 
L 120.48442 251.422871 
L 120.48442 251.068235 
L 120.715645 251.068235 
L 120.715645 250.7136 
L 121.265635 250.7136 
L 121.265635 250.358965 
L 121.8 250.358965 
L 121.8 250.004329 
L 121.923558 250.004329 
L 121.923558 249.649694 
L 122.559246 249.649694 
L 122.559246 249.295059 
L 122.825242 249.295059 
L 122.825242 248.940424 
L 123.260379 248.940424 
L 123.346211 248.231153 
L 123.544976 248.231153 
L 123.544976 247.876518 
L 124.373813 247.876518 
L 124.454723 247.167247 
L 124.959227 247.167247 
L 124.959227 246.812612 
L 125.141738 246.812612 
L 125.167667 246.103341 
L 125.450553 246.103341 
L 125.450553 245.748706 
L 125.904473 245.748706 
L 125.904473 245.394071 
L 126.323346 245.394071 
L 126.323346 245.039435 
L 126.493149 245.039435 
L 126.493149 244.6848 
L 126.661432 244.6848 
L 126.756923 243.620894 
L 127.389106 243.620894 
L 127.480982 242.911624 
L 128.023009 242.911624 
L 128.023009 242.556988 
L 128.636246 242.556988 
L 128.636246 242.202353 
L 128.977895 242.202353 
L 129.0834 241.493082 
L 129.104431 241.493082 
L 129.104431 240.783812 
L 129.375706 240.783812 
L 129.417095 239.719906 
L 129.86647 239.719906 
L 129.86647 239.365271 
L 130.46245 239.365271 
L 130.501519 238.656 
L 130.791976 238.656 
L 130.791976 238.301365 
L 131.397023 238.301365 
L 131.397023 237.946729 
L 131.83837 237.946729 
L 131.856536 237.237459 
L 132.019251 237.237459 
L 132.019251 236.882824 
L 132.162715 236.882824 
L 132.216233 236.173553 
L 132.586655 236.173553 
L 132.691164 235.464282 
L 132.932784 235.464282 
L 132.932784 235.109647 
L 133.390178 235.109647 
L 133.457005 234.045741 
L 133.771227 234.045741 
L 133.804 233.336471 
L 134.112526 233.336471 
L 134.112526 232.981835 
L 134.240933 232.981835 
L 134.240933 232.6272 
L 134.620977 232.6272 
L 134.636647 231.917929 
L 134.97812 231.917929 
L 134.97812 231.563294 
L 135.388902 231.563294 
L 135.388902 231.208659 
L 135.790905 231.208659 
L 135.790905 230.854024 
L 135.996018 230.854024 
L 136.097741 230.144753 
L 136.213327 230.144753 
L 136.28521 229.435482 
L 136.356818 229.435482 
L 136.356818 228.726212 
L 136.794809 228.726212 
L 136.794809 228.371576 
L 137.800869 228.371576 
L 137.866944 227.662306 
L 138.050729 227.662306 
L 138.050729 227.307671 
L 138.258593 227.307671 
L 138.258593 226.953035 
L 138.59155 226.953035 
L 138.65491 226.243765 
L 138.755844 226.243765 
L 138.755844 225.889129 
L 138.906237 225.889129 
L 138.980985 225.179859 
L 139.496066 225.179859 
L 139.496066 224.825224 
L 139.973845 224.825224 
L 140.044477 224.115953 
L 140.219905 224.115953 
L 140.301214 223.406682 
L 140.474275 223.406682 
L 140.474275 223.052047 
L 140.657135 223.052047 
L 140.702573 222.342776 
L 140.91692 222.342776 
L 140.91692 221.988141 
L 141.13994 221.988141 
L 141.206334 220.924235 
L 141.283499 220.924235 
L 141.283499 220.5696 
L 141.889677 220.5696 
L 141.889677 220.214965 
L 142.196078 220.214965 
L 142.269295 219.505694 
L 142.425236 219.505694 
L 142.425236 219.151059 
L 142.59016 219.151059 
L 142.59016 218.796424 
L 142.956037 218.796424 
L 142.956037 218.441788 
L 143.245681 218.441788 
L 143.314933 217.732518 
L 143.550448 217.732518 
L 143.560197 217.023247 
L 143.946089 217.023247 
L 143.946089 216.668612 
L 144.220992 216.668612 
L 144.220992 216.313976 
L 144.398947 216.313976 
L 144.464087 215.604706 
L 144.510478 215.604706 
L 144.510478 215.250071 
L 144.71325 215.250071 
L 144.777313 214.5408 
L 145.184016 214.5408 
L 145.184016 214.186165 
L 145.379694 214.186165 
L 145.379694 213.831529 
L 145.608355 213.831529 
L 145.678157 213.122259 
L 145.920443 213.122259 
L 145.929039 212.412988 
L 146.048967 212.412988 
L 146.048967 212.058353 
L 146.202046 212.058353 
L 146.269683 211.349082 
L 146.437719 211.349082 
L 146.437719 210.994447 
L 146.612557 210.994447 
L 146.612557 210.639812 
L 147.224037 210.639812 
L 147.288104 209.930541 
L 147.707122 209.930541 
L 147.707122 209.575906 
L 147.940229 209.575906 
L 147.940229 209.221271 
L 148.337564 209.221271 
L 148.337564 208.866635 
L 148.585434 208.866635 
L 148.585434 208.512 
L 148.697031 208.512 
L 148.697031 208.157365 
L 148.866872 208.157365 
L 148.932916 207.448094 
L 149.071585 207.448094 
L 149.071585 206.738824 
L 149.331557 206.738824 
L 149.345895 206.029553 
L 149.474449 206.029553 
L 149.538397 205.320282 
L 149.750003 205.320282 
L 149.750003 204.965647 
L 149.973123 204.965647 
L 149.973123 204.611012 
L 150.145612 204.611012 
L 150.145612 204.256376 
L 150.892922 204.256376 
L 150.892922 203.901741 
L 151.194122 203.901741 
L 151.194122 203.547106 
L 151.426526 203.547106 
L 151.426526 203.192471 
L 152.492851 203.192471 
L 152.56546 202.128565 
L 152.739781 202.128565 
L 152.739781 201.773929 
L 153.136452 201.773929 
L 153.136452 201.419294 
L 153.270716 201.419294 
L 153.270716 201.064659 
L 153.392474 201.064659 
L 153.392474 200.710024 
L 153.922412 200.710024 
L 153.922412 200.355388 
L 154.339167 200.355388 
L 154.410475 199.291482 
L 154.666049 199.291482 
L 154.666049 198.936847 
L 155.172267 198.936847 
L 155.172267 198.582212 
L 156.354107 198.582212 
L 156.354107 198.227576 
L 157.60979 198.227576 
L 157.60979 197.872941 
L 158.564302 197.872941 
L 158.564302 197.518306 
L 158.97251 197.518306 
L 158.97251 197.163671 
L 159.668298 197.163671 
L 159.668298 196.809035 
L 159.829064 196.809035 
L 159.829064 196.4544 
L 159.988467 196.4544 
L 159.988467 196.099765 
L 161.23253 196.099765 
L 161.23253 195.745129 
L 161.523601 195.745129 
L 161.523601 195.390494 
L 162.887118 195.390494 
L 162.887118 195.035859 
L 173.029677 195.035859 
L 173.029677 194.681224 
L 180.189444 194.681224 
L 180.189444 194.326588 
L 180.352831 194.326588 
L 180.352831 193.971953 
L 180.65507 193.971953 
L 180.667276 193.262682 
L 181.069678 193.262682 
L 181.069678 192.908047 
L 181.233522 192.908047 
L 181.338475 191.844141 
L 181.348938 191.844141 
L 181.369847 191.134871 
L 181.559576 191.134871 
L 181.660159 190.070965 
L 181.703835 190.070965 
L 181.703835 189.716329 
L 181.878804 189.716329 
L 181.989076 188.297788 
L 182.04082 188.297788 
L 182.05216 187.588518 
L 182.210199 187.588518 
L 182.212697 186.879247 
L 182.348332 186.879247 
L 182.402808 186.169976 
L 182.485458 186.169976 
L 182.485458 185.815341 
L 182.633809 185.815341 
L 182.693553 185.106071 
L 182.771302 185.106071 
L 182.836653 183.687529 
L 183.01461 183.687529 
L 183.075545 182.268988 
L 183.146981 182.268988 
L 183.165985 181.559718 
L 183.356152 181.559718 
L 183.432385 180.495812 
L 183.473307 180.495812 
L 183.532776 179.786541 
L 183.659251 179.786541 
L 183.722747 178.368 
L 183.782583 178.368 
L 183.854823 177.658729 
L 183.918804 177.658729 
L 184.015504 176.594824 
L 184.046117 176.594824 
L 184.063102 175.885553 
L 184.25118 175.885553 
L 184.25118 175.530918 
L 184.380723 175.530918 
L 184.404079 174.467012 
L 184.495005 174.467012 
L 184.541407 173.757741 
L 184.660203 173.757741 
L 184.667877 173.048471 
L 184.810915 173.048471 
L 184.810915 172.693835 
L 185.003545 172.693835 
L 185.071253 171.629929 
L 185.142993 171.629929 
L 185.144062 170.920659 
L 185.26231 170.920659 
L 185.277172 170.211388 
L 185.580319 170.211388 
L 185.610575 169.502118 
L 185.760097 169.502118 
L 185.760097 169.147482 
L 185.912543 169.147482 
L 185.957627 168.438212 
L 186.099348 168.438212 
L 186.174363 167.728941 
L 186.224881 167.728941 
L 186.224881 167.374306 
L 186.451541 167.374306 
L 186.461507 166.665035 
L 186.69913 166.665035 
L 186.69913 166.3104 
L 186.840276 166.3104 
L 186.840276 165.955765 
L 187.018134 165.955765 
L 187.018134 165.601129 
L 187.236445 165.601129 
L 187.318496 164.891859 
L 187.544659 164.891859 
L 187.596323 164.182588 
L 187.834942 164.182588 
L 187.899666 163.118682 
L 188.20183 163.118682 
L 188.20183 162.764047 
L 188.475956 162.764047 
L 188.511729 162.054776 
L 188.818364 162.054776 
L 188.818364 161.700141 
L 189.211554 161.700141 
L 189.318856 160.990871 
L 189.491819 160.990871 
L 189.57813 160.2816 
L 189.704343 160.2816 
L 189.704343 159.926965 
L 189.849697 159.926965 
L 189.877138 159.217694 
L 190.008795 159.217694 
L 190.008795 158.863059 
L 190.252279 158.863059 
L 190.266935 158.153788 
L 190.549663 158.153788 
L 190.549663 157.799153 
L 190.741106 157.799153 
L 190.741106 157.444518 
L 191.139237 157.444518 
L 191.139237 157.089882 
L 191.760575 157.089882 
L 191.760575 156.735247 
L 191.946841 156.735247 
L 191.946841 156.380612 
L 192.486866 156.380612 
L 192.486866 156.025976 
L 195.761921 156.025976 
L 195.761921 155.671341 
L 196.080094 155.671341 
L 196.154638 154.962071 
L 196.515985 154.962071 
L 196.620785 154.2528 
L 196.662542 154.2528 
L 196.760192 153.543529 
L 196.838983 153.543529 
L 196.938578 152.479624 
L 197.029698 152.479624 
L 197.083592 151.770353 
L 197.14298 151.770353 
L 197.178523 151.061082 
L 197.327857 151.061082 
L 197.434916 149.642541 
L 197.490435 149.642541 
L 197.55629 148.578635 
L 197.641173 148.578635 
L 197.733886 147.514729 
L 197.781436 147.514729 
L 197.854983 146.805459 
L 197.924995 146.805459 
L 197.993127 145.386918 
L 198.036258 145.386918 
L 198.105062 143.613741 
L 198.147938 143.613741 
L 198.239257 141.840565 
L 198.305201 141.840565 
L 198.413717 139.712753 
L 198.468004 139.712753 
L 198.522135 138.648847 
L 198.628889 138.648847 
L 198.689843 136.521035 
L 198.75682 136.521035 
L 198.867407 134.747859 
L 198.950178 134.747859 
L 199.059637 132.620047 
L 199.115146 132.620047 
L 199.213032 131.201506 
L 199.265064 131.201506 
L 199.347615 129.782965 
L 199.387753 129.782965 
L 199.490715 126.945882 
L 199.524579 126.945882 
L 199.633724 124.463435 
L 199.642132 124.463435 
L 199.746665 122.335624 
L 199.806069 122.335624 
L 199.889701 119.143906 
L 199.941357 119.143906 
L 200.022937 117.016094 
L 200.06988 117.016094 
L 200.169666 114.533647 
L 200.20329 114.533647 
L 200.312396 112.760471 
L 200.337191 112.760471 
L 200.406635 111.696565 
L 200.468726 111.696565 
L 200.561245 108.859482 
L 200.706654 108.859482 
L 200.805451 105.667765 
L 200.819855 105.667765 
L 200.895408 104.958494 
L 200.948992 104.958494 
L 201.059372 101.766776 
L 201.078164 101.766776 
L 201.181414 100.348235 
L 201.195988 100.348235 
L 201.29452 98.575059 
L 201.308554 98.575059 
L 201.386229 96.801882 
L 201.444726 96.801882 
L 201.51871 94.674071 
L 201.568765 94.674071 
L 201.630702 92.191624 
L 201.699971 92.191624 
L 201.780906 90.773082 
L 201.83511 90.773082 
L 201.941738 88.645271 
L 202.059075 88.645271 
L 202.134585 86.872094 
L 202.170498 86.872094 
L 202.271378 86.162824 
L 202.283413 86.162824 
L 202.283413 85.808188 
L 202.401634 85.808188 
L 202.416146 85.098918 
L 202.520813 85.098918 
L 202.58435 84.035012 
L 202.643458 84.035012 
L 202.743517 81.197929 
L 202.772427 81.197929 
L 202.873887 79.779388 
L 202.963616 79.779388 
L 203.048382 79.070118 
L 203.088769 79.070118 
L 203.131535 78.360847 
L 203.282491 78.360847 
L 203.295526 77.651576 
L 203.531022 77.651576 
L 203.5471 76.942306 
L 203.680415 76.942306 
L 203.680415 76.587671 
L 203.861453 76.587671 
L 203.951716 75.8784 
L 204.043896 75.8784 
L 204.100549 75.169129 
L 204.159365 75.169129 
L 204.159365 74.814494 
L 204.299237 74.814494 
L 204.380511 74.105224 
L 210.251204 74.105224 
L 210.251204 73.750588 
L 210.394412 73.750588 
L 210.435407 73.041318 
L 210.74787 73.041318 
L 210.810236 72.332047 
L 210.941403 72.332047 
L 210.941403 71.977412 
L 211.077856 71.977412 
L 211.077856 71.622776 
L 211.354195 71.622776 
L 211.389181 70.913506 
L 211.504284 70.913506 
L 211.568131 70.204235 
L 211.619471 70.204235 
L 211.632546 69.494965 
L 211.760199 69.494965 
L 211.84801 67.367153 
L 211.887765 67.367153 
L 211.985762 65.948612 
L 212.049788 65.948612 
L 212.159405 64.175435 
L 212.217016 64.175435 
L 212.321382 62.756894 
L 212.47623 62.756894 
L 212.47623 62.402259 
L 212.601033 62.402259 
L 212.70379 60.983718 
L 212.727974 60.983718 
L 212.783381 59.919812 
L 212.855289 59.919812 
L 212.934486 57.792 
L 212.966413 57.792 
L 213.051934 55.309553 
L 213.111471 55.309553 
L 213.191284 52.472471 
L 213.228782 52.472471 
L 213.333908 49.280753 
L 213.352286 49.280753 
L 213.460521 45.7344 
L 213.525874 45.7344 
L 213.627241 42.897318 
L 213.658953 42.897318 
L 213.746062 41.124141 
L 213.770343 41.124141 
L 213.870173 38.996329 
L 213.912134 38.996329 
L 214.001999 37.577788 
L 214.050565 37.577788 
L 214.107945 36.868518 
L 214.165151 36.868518 
L 214.262912 34.386071 
L 214.321009 34.386071 
L 214.386606 33.322165 
L 214.449725 33.322165 
L 214.542216 32.258259 
L 214.581588 32.258259 
L 214.581588 31.903624 
L 214.693883 31.903624 
L 214.776118 30.839718 
L 214.919993 30.839718 
L 214.919993 30.485082 
L 225.479629 30.485082 
L 225.479629 30.130447 
L 225.611882 30.130447 
L 225.611882 29.775812 
L 225.73185 29.775812 
L 225.73185 29.421176 
L 225.927136 29.421176 
L 225.927136 29.066541 
L 226.07122 29.066541 
L 226.07122 28.711906 
L 226.206622 28.711906 
L 226.311012 28.002635 
L 226.383109 28.002635 
L 226.383109 27.648 
L 360.8064 27.648 
L 360.8064 27.648 
" style="fill: none; stroke: #ff7500; stroke-width: 1.5; stroke-linecap: square"/>
   </g>
   <g id="line2d_44">
    <defs>
     <path id="me659586e3e" d="M 0 -6 
L -1.347084 -1.854102 
L -5.706339 -1.854102 
L -2.179628 0.708204 
L -3.526712 4.854102 
L -0 2.291796 
L 3.526712 4.854102 
L 2.179628 0.708204 
L 5.706339 -1.854102 
L 1.347084 -1.854102 
z
" style="stroke: #ff7500; stroke-width: 1.5; stroke-linejoin: bevel"/>
    </defs>
    <g>
     <use xlink:href="#me659586e3e" x="123.544976" y="247.876518" style="fill-opacity: 0; stroke: #ff7500; stroke-width: 1.5; stroke-linejoin: bevel"/>
     <use xlink:href="#me659586e3e" x="173.029677" y="195.035859" style="fill-opacity: 0; stroke: #ff7500; stroke-width: 1.5; stroke-linejoin: bevel"/>
     <use xlink:href="#me659586e3e" x="213.00582" y="56.373459" style="fill-opacity: 0; stroke: #ff7500; stroke-width: 1.5; stroke-linejoin: bevel"/>
     <use xlink:href="#me659586e3e" x="226.383109" y="27.648" style="fill-opacity: 0; stroke: #ff7500; stroke-width: 1.5; stroke-linejoin: bevel"/>
     <use xlink:href="#me659586e3e" x="226.383109" y="27.648" style="fill-opacity: 0; stroke: #ff7500; stroke-width: 1.5; stroke-linejoin: bevel"/>
     <use xlink:href="#me659586e3e" x="360.8064" y="27.648" style="fill-opacity: 0; stroke: #ff7500; stroke-width: 1.5; stroke-linejoin: bevel"/>
    </g>
   </g>
   <g id="line2d_45">
    <path style="fill: none; stroke: #ff7500; stroke-width: 1.5; stroke-linecap: square"/>
    <g/>
   </g>
   <g id="line2d_46">
    <path d="M 360.8064 27.648 
L 380.514816 293.51808 
" style="fill: none; stroke: #ff7500; stroke-width: 1.5; stroke-linecap: square"/>
    <g>
     <use xlink:href="#me659586e3e" x="360.8064" y="27.648" style="fill-opacity: 0; stroke: #ff7500; stroke-width: 1.5; stroke-linejoin: bevel"/>
     <use xlink:href="#me659586e3e" x="380.514816" y="293.51808" style="fill-opacity: 0; stroke: #ff7500; stroke-width: 1.5; stroke-linejoin: bevel"/>
    </g>
   </g>
   <g id="line2d_47">
    <path d="M 360.8064 27.648 
L 380.514816 206.70336 
" style="fill: none; stroke: #000080; stroke-width: 1.5; stroke-linecap: square"/>
    <g>
     <use xlink:href="#m652c938a27" x="360.8064" y="27.648" style="fill-opacity: 0; stroke: #000080; stroke-width: 1.5"/>
     <use xlink:href="#m652c938a27" x="380.514816" y="206.70336" style="fill-opacity: 0; stroke: #000080; stroke-width: 1.5"/>
    </g>
   </g>
   <g id="line2d_48">
    <path d="M 360.8064 27.648 
L 380.514816 119.88864 
" style="fill: none; stroke: #ff00ff; stroke-width: 1.5; stroke-linecap: square"/>
    <g>
     <use xlink:href="#m77e6dc9be7" x="360.8064" y="27.648" style="fill-opacity: 0; stroke: #ff00ff; stroke-width: 1.5; stroke-linejoin: miter"/>
     <use xlink:href="#m77e6dc9be7" x="380.514816" y="119.88864" style="fill-opacity: 0; stroke: #ff00ff; stroke-width: 1.5; stroke-linejoin: miter"/>
    </g>
   </g>
   <g id="line2d_49">
    <path d="M 360.8064 298.944 
L 360.8064 27.648 
" style="fill: none; stroke: #000000; stroke-width: 1.5; stroke-linecap: square"/>
   </g>
   <g id="patch_3">
    <path d="M 57.6 298.944 
L 360.8064 298.944 
" style="fill: none; stroke: #000000; stroke-width: 0.8; stroke-linejoin: miter; stroke-linecap: square"/>
   </g>
   <g id="patch_4">
    <path d="M 57.6 27.648 
L 360.8064 27.648 
" style="fill: none; stroke: #000000; stroke-width: 0.8; stroke-linejoin: miter; stroke-linecap: square"/>
   </g>
   <g id="text_13">
    <!-- CMA-ES-20 -->
    <g transform="translate(386.578944 297.381205)scale(0.14 -0.14)">
     <defs>
      <path id="DejaVuSans-43" d="M 4122 4306 
L 4122 3641 
Q 3803 3938 3442 4084 
Q 3081 4231 2675 4231 
Q 1875 4231 1450 3742 
Q 1025 3253 1025 2328 
Q 1025 1406 1450 917 
Q 1875 428 2675 428 
Q 3081 428 3442 575 
Q 3803 722 4122 1019 
L 4122 359 
Q 3791 134 3420 21 
Q 3050 -91 2638 -91 
Q 1578 -91 968 557 
Q 359 1206 359 2328 
Q 359 3453 968 4101 
Q 1578 4750 2638 4750 
Q 3056 4750 3426 4639 
Q 3797 4528 4122 4306 
z
" transform="scale(0.015625)"/>
      <path id="DejaVuSans-4d" d="M 628 4666 
L 1569 4666 
L 2759 1491 
L 3956 4666 
L 4897 4666 
L 4897 0 
L 4281 0 
L 4281 4097 
L 3078 897 
L 2444 897 
L 1241 4097 
L 1241 0 
L 628 0 
L 628 4666 
z
" transform="scale(0.015625)"/>
      <path id="DejaVuSans-41" d="M 2188 4044 
L 1331 1722 
L 3047 1722 
L 2188 4044 
z
M 1831 4666 
L 2547 4666 
L 4325 0 
L 3669 0 
L 3244 1197 
L 1141 1197 
L 716 0 
L 50 0 
L 1831 4666 
z
" transform="scale(0.015625)"/>
      <path id="DejaVuSans-45" d="M 628 4666 
L 3578 4666 
L 3578 4134 
L 1259 4134 
L 1259 2753 
L 3481 2753 
L 3481 2222 
L 1259 2222 
L 1259 531 
L 3634 531 
L 3634 0 
L 628 0 
L 628 4666 
z
" transform="scale(0.015625)"/>
      <path id="DejaVuSans-53" d="M 3425 4513 
L 3425 3897 
Q 3066 4069 2747 4153 
Q 2428 4238 2131 4238 
Q 1616 4238 1336 4038 
Q 1056 3838 1056 3469 
Q 1056 3159 1242 3001 
Q 1428 2844 1947 2747 
L 2328 2669 
Q 3034 2534 3370 2195 
Q 3706 1856 3706 1288 
Q 3706 609 3251 259 
Q 2797 -91 1919 -91 
Q 1588 -91 1214 -16 
Q 841 59 441 206 
L 441 856 
Q 825 641 1194 531 
Q 1563 422 1919 422 
Q 2459 422 2753 634 
Q 3047 847 3047 1241 
Q 3047 1584 2836 1778 
Q 2625 1972 2144 2069 
L 1759 2144 
Q 1053 2284 737 2584 
Q 422 2884 422 3419 
Q 422 4038 858 4394 
Q 1294 4750 2059 4750 
Q 2388 4750 2728 4690 
Q 3069 4631 3425 4513 
z
" transform="scale(0.015625)"/>
     </defs>
     <use xlink:href="#DejaVuSans-43"/>
     <use xlink:href="#DejaVuSans-4d" x="69.824219"/>
     <use xlink:href="#DejaVuSans-41" x="156.103516"/>
     <use xlink:href="#DejaVuSans-2d" x="222.261719"/>
     <use xlink:href="#DejaVuSans-45" x="258.345703"/>
     <use xlink:href="#DejaVuSans-53" x="321.529297"/>
     <use xlink:href="#DejaVuSans-2d" x="385.005859"/>
     <use xlink:href="#DejaVuSans-32" x="421.089844"/>
     <use xlink:href="#DejaVuSans-30" x="484.712891"/>
    </g>
   </g>
   <g id="text_14">
    <!-- ddcma0 -->
    <g transform="translate(386.578944 210.566485)scale(0.14 -0.14)">
     <use xlink:href="#DejaVuSans-64"/>
     <use xlink:href="#DejaVuSans-64" x="63.476562"/>
     <use xlink:href="#DejaVuSans-63" x="126.953125"/>
     <use xlink:href="#DejaVuSans-6d" x="181.933594"/>
     <use xlink:href="#DejaVuSans-61" x="279.345703"/>
     <use xlink:href="#DejaVuSans-30" x="340.625"/>
    </g>
   </g>
   <g id="text_15">
    <!-- ddcma1 -->
    <g transform="translate(386.578944 123.751765)scale(0.14 -0.14)">
     <use xlink:href="#DejaVuSans-64"/>
     <use xlink:href="#DejaVuSans-64" x="63.476562"/>
     <use xlink:href="#DejaVuSans-63" x="126.953125"/>
     <use xlink:href="#DejaVuSans-6d" x="181.933594"/>
     <use xlink:href="#DejaVuSans-61" x="279.345703"/>
     <use xlink:href="#DejaVuSans-31" x="340.625"/>
    </g>
   </g>
   <g id="text_16">
    <!-- best 2009 -->
    <g transform="translate(386.578944 36.937045)scale(0.14 -0.14)">
     <defs>
      <path id="DejaVuSans-62" d="M 3116 1747 
Q 3116 2381 2855 2742 
Q 2594 3103 2138 3103 
Q 1681 3103 1420 2742 
Q 1159 2381 1159 1747 
Q 1159 1113 1420 752 
Q 1681 391 2138 391 
Q 2594 391 2855 752 
Q 3116 1113 3116 1747 
z
M 1159 2969 
Q 1341 3281 1617 3432 
Q 1894 3584 2278 3584 
Q 2916 3584 3314 3078 
Q 3713 2572 3713 1747 
Q 3713 922 3314 415 
Q 2916 -91 2278 -91 
Q 1894 -91 1617 61 
Q 1341 213 1159 525 
L 1159 0 
L 581 0 
L 581 4863 
L 1159 4863 
L 1159 2969 
z
" transform="scale(0.015625)"/>
      <path id="DejaVuSans-39" d="M 703 97 
L 703 672 
Q 941 559 1184 500 
Q 1428 441 1663 441 
Q 2288 441 2617 861 
Q 2947 1281 2994 2138 
Q 2813 1869 2534 1725 
Q 2256 1581 1919 1581 
Q 1219 1581 811 2004 
Q 403 2428 403 3163 
Q 403 3881 828 4315 
Q 1253 4750 1959 4750 
Q 2769 4750 3195 4129 
Q 3622 3509 3622 2328 
Q 3622 1225 3098 567 
Q 2575 -91 1691 -91 
Q 1453 -91 1209 -44 
Q 966 3 703 97 
z
M 1959 2075 
Q 2384 2075 2632 2365 
Q 2881 2656 2881 3163 
Q 2881 3666 2632 3958 
Q 2384 4250 1959 4250 
Q 1534 4250 1286 3958 
Q 1038 3666 1038 3163 
Q 1038 2656 1286 2365 
Q 1534 2075 1959 2075 
z
" transform="scale(0.015625)"/>
     </defs>
     <use xlink:href="#DejaVuSans-62"/>
     <use xlink:href="#DejaVuSans-65" x="63.476562"/>
     <use xlink:href="#DejaVuSans-73" x="125"/>
     <use xlink:href="#DejaVuSans-74" x="177.099609"/>
     <use xlink:href="#DejaVuSans-20" x="216.308594"/>
     <use xlink:href="#DejaVuSans-32" x="248.095703"/>
     <use xlink:href="#DejaVuSans-30" x="311.71875"/>
     <use xlink:href="#DejaVuSans-30" x="375.341797"/>
     <use xlink:href="#DejaVuSans-39" x="438.964844"/>
    </g>
   </g>
   <g id="text_17">
    <!-- bbob f17, 20-D -->
    <g transform="translate(60.632064 38.111366)scale(0.102 -0.102)">
     <defs>
      <path id="DejaVuSans-37" d="M 525 4666 
L 3525 4666 
L 3525 4397 
L 1831 0 
L 1172 0 
L 2766 4134 
L 525 4134 
L 525 4666 
z
" transform="scale(0.015625)"/>
      <path id="DejaVuSans-44" d="M 1259 4147 
L 1259 519 
L 2022 519 
Q 2988 519 3436 956 
Q 3884 1394 3884 2338 
Q 3884 3275 3436 3711 
Q 2988 4147 2022 4147 
L 1259 4147 
z
M 628 4666 
L 1925 4666 
Q 3281 4666 3915 4102 
Q 4550 3538 4550 2338 
Q 4550 1131 3912 565 
Q 3275 0 1925 0 
L 628 0 
L 628 4666 
z
" transform="scale(0.015625)"/>
     </defs>
     <use xlink:href="#DejaVuSans-62"/>
     <use xlink:href="#DejaVuSans-62" x="63.476562"/>
     <use xlink:href="#DejaVuSans-6f" x="126.953125"/>
     <use xlink:href="#DejaVuSans-62" x="188.134766"/>
     <use xlink:href="#DejaVuSans-20" x="251.611328"/>
     <use xlink:href="#DejaVuSans-66" x="283.398438"/>
     <use xlink:href="#DejaVuSans-31" x="318.603516"/>
     <use xlink:href="#DejaVuSans-37" x="382.226562"/>
     <use xlink:href="#DejaVuSans-2c" x="445.849609"/>
     <use xlink:href="#DejaVuSans-20" x="477.636719"/>
     <use xlink:href="#DejaVuSans-32" x="509.423828"/>
     <use xlink:href="#DejaVuSans-30" x="573.046875"/>
     <use xlink:href="#DejaVuSans-2d" x="636.669922"/>
     <use xlink:href="#DejaVuSans-44" x="672.753906"/>
    </g>
    <!-- 51 targets: 100..1e-08 -->
    <g transform="translate(60.632064 49.533135)scale(0.102 -0.102)">
     <defs>
      <path id="DejaVuSans-35" d="M 691 4666 
L 3169 4666 
L 3169 4134 
L 1269 4134 
L 1269 2991 
Q 1406 3038 1543 3061 
Q 1681 3084 1819 3084 
Q 2600 3084 3056 2656 
Q 3513 2228 3513 1497 
Q 3513 744 3044 326 
Q 2575 -91 1722 -91 
Q 1428 -91 1123 -41 
Q 819 9 494 109 
L 494 744 
Q 775 591 1075 516 
Q 1375 441 1709 441 
Q 2250 441 2565 725 
Q 2881 1009 2881 1497 
Q 2881 1984 2565 2268 
Q 2250 2553 1709 2553 
Q 1456 2553 1204 2497 
Q 953 2441 691 2322 
L 691 4666 
z
" transform="scale(0.015625)"/>
      <path id="DejaVuSans-3a" d="M 750 794 
L 1409 794 
L 1409 0 
L 750 0 
L 750 794 
z
M 750 3309 
L 1409 3309 
L 1409 2516 
L 750 2516 
L 750 3309 
z
" transform="scale(0.015625)"/>
     </defs>
     <use xlink:href="#DejaVuSans-35"/>
     <use xlink:href="#DejaVuSans-31" x="63.623047"/>
     <use xlink:href="#DejaVuSans-20" x="127.246094"/>
     <use xlink:href="#DejaVuSans-74" x="159.033203"/>
     <use xlink:href="#DejaVuSans-61" x="198.242188"/>
     <use xlink:href="#DejaVuSans-72" x="259.521484"/>
     <use xlink:href="#DejaVuSans-67" x="298.884766"/>
     <use xlink:href="#DejaVuSans-65" x="362.361328"/>
     <use xlink:href="#DejaVuSans-74" x="423.884766"/>
     <use xlink:href="#DejaVuSans-73" x="463.09375"/>
     <use xlink:href="#DejaVuSans-3a" x="515.193359"/>
     <use xlink:href="#DejaVuSans-20" x="548.884766"/>
     <use xlink:href="#DejaVuSans-31" x="580.671875"/>
     <use xlink:href="#DejaVuSans-30" x="644.294922"/>
     <use xlink:href="#DejaVuSans-30" x="707.917969"/>
     <use xlink:href="#DejaVuSans-2e" x="771.541016"/>
     <use xlink:href="#DejaVuSans-2e" x="803.328125"/>
     <use xlink:href="#DejaVuSans-31" x="835.115234"/>
     <use xlink:href="#DejaVuSans-65" x="898.738281"/>
     <use xlink:href="#DejaVuSans-2d" x="960.261719"/>
     <use xlink:href="#DejaVuSans-30" x="996.345703"/>
     <use xlink:href="#DejaVuSans-38" x="1059.96875"/>
    </g>
    <!-- 15 instances -->
    <g transform="translate(60.632064 60.954904)scale(0.102 -0.102)">
     <use xlink:href="#DejaVuSans-31"/>
     <use xlink:href="#DejaVuSans-35" x="63.623047"/>
     <use xlink:href="#DejaVuSans-20" x="127.246094"/>
     <use xlink:href="#DejaVuSans-69" x="159.033203"/>
     <use xlink:href="#DejaVuSans-6e" x="186.816406"/>
     <use xlink:href="#DejaVuSans-73" x="250.195312"/>
     <use xlink:href="#DejaVuSans-74" x="302.294922"/>
     <use xlink:href="#DejaVuSans-61" x="341.503906"/>
     <use xlink:href="#DejaVuSans-6e" x="402.783203"/>
     <use xlink:href="#DejaVuSans-63" x="466.162109"/>
     <use xlink:href="#DejaVuSans-65" x="521.142578"/>
     <use xlink:href="#DejaVuSans-73" x="582.666016"/>
    </g>
   </g>
   <g id="text_18">
    <!-- v2.6 -->
    <g style="fill: #808080" transform="translate(198.292262 294.151352)scale(0.1 -0.1)">
     <use xlink:href="#DejaVuSans-76"/>
     <use xlink:href="#DejaVuSans-32" x="59.179688"/>
     <use xlink:href="#DejaVuSans-2e" x="122.802734"/>
     <use xlink:href="#DejaVuSans-36" x="154.589844"/>
    </g>
   </g>
   <g id="text_19">
    <!-- 17 Schaffer F7, condition 10 -->
    <g transform="translate(67.895387 21.648)scale(0.2 -0.2)">
     <defs>
      <path id="DejaVuSans-68" d="M 3513 2113 
L 3513 0 
L 2938 0 
L 2938 2094 
Q 2938 2591 2744 2837 
Q 2550 3084 2163 3084 
Q 1697 3084 1428 2787 
Q 1159 2491 1159 1978 
L 1159 0 
L 581 0 
L 581 4863 
L 1159 4863 
L 1159 2956 
Q 1366 3272 1645 3428 
Q 1925 3584 2291 3584 
Q 2894 3584 3203 3211 
Q 3513 2838 3513 2113 
z
" transform="scale(0.015625)"/>
     </defs>
     <use xlink:href="#DejaVuSans-31"/>
     <use xlink:href="#DejaVuSans-37" x="63.623047"/>
     <use xlink:href="#DejaVuSans-20" x="127.246094"/>
     <use xlink:href="#DejaVuSans-53" x="159.033203"/>
     <use xlink:href="#DejaVuSans-63" x="222.509766"/>
     <use xlink:href="#DejaVuSans-68" x="277.490234"/>
     <use xlink:href="#DejaVuSans-61" x="340.869141"/>
     <use xlink:href="#DejaVuSans-66" x="402.148438"/>
     <use xlink:href="#DejaVuSans-66" x="437.353516"/>
     <use xlink:href="#DejaVuSans-65" x="472.558594"/>
     <use xlink:href="#DejaVuSans-72" x="534.082031"/>
     <use xlink:href="#DejaVuSans-20" x="575.195312"/>
     <use xlink:href="#DejaVuSans-46" x="606.982422"/>
     <use xlink:href="#DejaVuSans-37" x="664.501953"/>
     <use xlink:href="#DejaVuSans-2c" x="728.125"/>
     <use xlink:href="#DejaVuSans-20" x="759.912109"/>
     <use xlink:href="#DejaVuSans-63" x="791.699219"/>
     <use xlink:href="#DejaVuSans-6f" x="846.679688"/>
     <use xlink:href="#DejaVuSans-6e" x="907.861328"/>
     <use xlink:href="#DejaVuSans-64" x="971.240234"/>
     <use xlink:href="#DejaVuSans-69" x="1034.716797"/>
     <use xlink:href="#DejaVuSans-74" x="1062.5"/>
     <use xlink:href="#DejaVuSans-69" x="1101.708984"/>
     <use xlink:href="#DejaVuSans-6f" x="1129.492188"/>
     <use xlink:href="#DejaVuSans-6e" x="1190.673828"/>
     <use xlink:href="#DejaVuSans-20" x="1254.052734"/>
     <use xlink:href="#DejaVuSans-31" x="1285.839844"/>
     <use xlink:href="#DejaVuSans-30" x="1349.462891"/>
    </g>
   </g>
  </g>
 </g>
 <defs>
  <clipPath id="p86008505d3">
   <rect x="57.6" y="27.648" width="303.2064" height="271.296"/>
  </clipPath>
 </defs>
</svg>
