<?xml version="1.0" encoding="utf-8" standalone="no"?>
<!DOCTYPE svg PUBLIC "-//W3C//DTD SVG 1.1//EN"
  "http://www.w3.org/Graphics/SVG/1.1/DTD/svg11.dtd">
<svg xmlns:xlink="http://www.w3.org/1999/xlink" width="460.8pt" height="345.6pt" viewBox="0 0 460.8 345.6" xmlns="http://www.w3.org/2000/svg" version="1.1">
 <metadata>
  <rdf:RDF xmlns:dc="http://purl.org/dc/elements/1.1/" xmlns:cc="http://creativecommons.org/ns#" xmlns:rdf="http://www.w3.org/1999/02/22-rdf-syntax-ns#">
   <cc:Work>
    <dc:type rdf:resource="http://purl.org/dc/dcmitype/StillImage"/>
    <dc:date>2022-03-28T13:37:08.376391</dc:date>
    <dc:format>image/svg+xml</dc:format>
    <dc:creator>
     <cc:Agent>
      <dc:title>Matplotlib v3.5.1, https://matplotlib.org/</dc:title>
     </cc:Agent>
    </dc:creator>
   </cc:Work>
  </rdf:RDF>
 </metadata>
 <defs>
  <style type="text/css">*{stroke-linejoin: round; stroke-linecap: butt}</style>
 </defs>
 <g id="figure_1">
  <g id="patch_1">
   <path d="M 0 345.6 
L 460.8 345.6 
L 460.8 0 
L 0 0 
z
" style="fill: #ffffff"/>
  </g>
  <g id="axes_1">
   <g id="patch_2">
    <path d="M 57.6 298.944 
L 360.8064 298.944 
L 360.8064 27.648 
L 57.6 27.648 
z
" style="fill: #ffffff"/>
   </g>
   <g id="line2d_1">
    <path d="M 93.098709 298.944 
L 93.098709 293.624471 
L 134.495147 293.624471 
L 134.495147 288.304941 
L 165.999046 288.304941 
L 165.999046 282.985412 
L 182.550582 282.985412 
L 182.550582 277.665882 
L 194.343604 277.665882 
L 194.343604 272.346353 
L 230.626269 272.346353 
L 230.626269 267.026824 
L 250.967407 267.026824 
L 250.967407 261.707294 
L 259.234423 261.707294 
L 259.234423 256.387765 
L 260.006044 256.387765 
L 260.006044 251.068235 
L 272.290574 251.068235 
L 272.290574 245.748706 
L 275.003306 245.748706 
L 275.003306 240.429176 
L 295.75262 240.429176 
L 295.75262 235.109647 
L 304.359925 235.109647 
L 304.359925 229.790118 
L 327.888075 229.790118 
L 327.888075 224.470588 
L 355.331455 224.470588 
L 355.331455 213.831529 
L 355.331819 213.831529 
L 355.331819 208.512 
L 355.332096 208.512 
L 355.332096 203.192471 
L 355.332513 203.192471 
L 355.332513 197.872941 
L 355.332708 197.872941 
L 355.332708 192.553412 
L 355.33289 192.553412 
L 355.33289 187.233882 
L 355.333124 187.233882 
L 355.333124 176.594824 
L 355.333612 176.594824 
L 355.333612 171.275294 
L 355.333734 171.275294 
L 355.333734 165.955765 
L 355.333977 165.955765 
L 355.333977 160.636235 
L 355.334388 160.636235 
L 355.334388 155.316706 
L 355.334521 155.316706 
L 355.334521 149.997176 
L 355.334806 149.997176 
L 355.334806 144.677647 
L 355.33491 144.677647 
L 355.33491 139.358118 
L 355.335152 139.358118 
L 355.335152 134.038588 
L 355.335433 134.038588 
L 355.335433 128.719059 
L 355.335455 128.719059 
L 355.335455 123.399529 
L 355.335808 123.399529 
L 355.335808 118.08 
L 355.336174 118.08 
L 355.336174 112.760471 
L 355.336255 112.760471 
L 355.336255 107.440941 
L 355.336266 107.440941 
L 355.336266 102.121412 
L 355.336583 102.121412 
L 355.336583 96.801882 
L 355.336705 96.801882 
L 355.336705 91.482353 
L 355.336835 91.482353 
L 355.336835 86.162824 
L 355.337325 86.162824 
L 355.337325 80.843294 
L 355.337391 80.843294 
L 355.337391 75.523765 
L 355.337921 75.523765 
L 355.337921 64.884706 
L 355.338358 64.884706 
L 355.338358 59.565176 
L 355.338466 59.565176 
L 355.338466 54.245647 
L 355.338757 54.245647 
L 355.338757 48.926118 
L 355.338827 48.926118 
L 355.338827 43.606588 
L 355.339103 43.606588 
L 355.339103 32.967529 
L 355.339539 32.967529 
L 355.339539 27.648 
L 360.8064 27.648 
" style="fill: none; stroke: #f5deb3; stroke-width: 4; stroke-linecap: square"/>
   </g>
   <g id="line2d_2">
    <defs>
     <path id="me229d76581" d="M -0 7.778175 
L 7.778175 0 
L 0 -7.778175 
L -7.778175 -0 
z
" style="stroke: #f5deb3; stroke-width: 1.5; stroke-linejoin: miter"/>
    </defs>
    <g>
     <use xlink:href="#me229d76581" x="165.999046" y="288.304941" style="fill: #f5deb3; stroke: #f5deb3; stroke-width: 1.5; stroke-linejoin: miter"/>
     <use xlink:href="#me229d76581" x="260.006044" y="251.068235" style="fill: #f5deb3; stroke: #f5deb3; stroke-width: 1.5; stroke-linejoin: miter"/>
     <use xlink:href="#me229d76581" x="355.333734" y="171.275294" style="fill: #f5deb3; stroke: #f5deb3; stroke-width: 1.5; stroke-linejoin: miter"/>
     <use xlink:href="#me229d76581" x="355.339539" y="27.648" style="fill: #f5deb3; stroke: #f5deb3; stroke-width: 1.5; stroke-linejoin: miter"/>
     <use xlink:href="#me229d76581" x="360.8064" y="27.648" style="fill: #f5deb3; stroke: #f5deb3; stroke-width: 1.5; stroke-linejoin: miter"/>
    </g>
   </g>
   <g id="line2d_3">
    <path style="fill: none; stroke: #f5deb3; stroke-width: 4; stroke-linecap: square"/>
    <g/>
   </g>
   <g id="line2d_4">
    <path d="M 360.8064 27.648 
L 380.514816 119.88864 
" style="fill: none; stroke: #f5deb3; stroke-width: 4; stroke-linecap: square"/>
    <g>
     <use xlink:href="#me229d76581" x="360.8064" y="27.648" style="fill: #f5deb3; stroke: #f5deb3; stroke-width: 1.5; stroke-linejoin: miter"/>
     <use xlink:href="#me229d76581" x="380.514816" y="119.88864" style="fill: #f5deb3; stroke: #f5deb3; stroke-width: 1.5; stroke-linejoin: miter"/>
    </g>
   </g>
   <g id="matplotlib.axis_1">
    <g id="xtick_1">
     <g id="line2d_5">
      <path d="M 57.6 298.944 
L 57.6 27.648 
" clip-path="url(#p1be7f78ea3)" style="fill: none; stroke: #b0b0b0; stroke-width: 0.8; stroke-linecap: square"/>
     </g>
     <g id="line2d_6">
      <defs>
       <path id="m4ea818df78" d="M 0 0 
L 0 3.5 
" style="stroke: #000000; stroke-width: 0.8"/>
      </defs>
      <g>
       <use xlink:href="#m4ea818df78" x="57.6" y="298.944" style="stroke: #000000; stroke-width: 0.8"/>
      </g>
     </g>
     <g id="text_1">
      <!-- 0 -->
      <g transform="translate(52.191875 318.861344)scale(0.17 -0.17)">
       <defs>
        <path id="DejaVuSans-30" d="M 2034 4250 
Q 1547 4250 1301 3770 
Q 1056 3291 1056 2328 
Q 1056 1369 1301 889 
Q 1547 409 2034 409 
Q 2525 409 2770 889 
Q 3016 1369 3016 2328 
Q 3016 3291 2770 3770 
Q 2525 4250 2034 4250 
z
M 2034 4750 
Q 2819 4750 3233 4129 
Q 3647 3509 3647 2328 
Q 3647 1150 3233 529 
Q 2819 -91 2034 -91 
Q 1250 -91 836 529 
Q 422 1150 422 2328 
Q 422 3509 836 4129 
Q 1250 4750 2034 4750 
z
" transform="scale(0.015625)"/>
       </defs>
       <use xlink:href="#DejaVuSans-30"/>
      </g>
     </g>
    </g>
    <g id="xtick_2">
     <g id="line2d_7">
      <path d="M 144.2304 298.944 
L 144.2304 27.648 
" clip-path="url(#p1be7f78ea3)" style="fill: none; stroke: #b0b0b0; stroke-width: 0.8; stroke-linecap: square"/>
     </g>
     <g id="line2d_8">
      <g>
       <use xlink:href="#m4ea818df78" x="144.2304" y="298.944" style="stroke: #000000; stroke-width: 0.8"/>
      </g>
     </g>
     <g id="text_2">
      <!-- 2 -->
      <g transform="translate(138.822275 318.861344)scale(0.17 -0.17)">
       <defs>
        <path id="DejaVuSans-32" d="M 1228 531 
L 3431 531 
L 3431 0 
L 469 0 
L 469 531 
Q 828 903 1448 1529 
Q 2069 2156 2228 2338 
Q 2531 2678 2651 2914 
Q 2772 3150 2772 3378 
Q 2772 3750 2511 3984 
Q 2250 4219 1831 4219 
Q 1534 4219 1204 4116 
Q 875 4013 500 3803 
L 500 4441 
Q 881 4594 1212 4672 
Q 1544 4750 1819 4750 
Q 2544 4750 2975 4387 
Q 3406 4025 3406 3419 
Q 3406 3131 3298 2873 
Q 3191 2616 2906 2266 
Q 2828 2175 2409 1742 
Q 1991 1309 1228 531 
z
" transform="scale(0.015625)"/>
       </defs>
       <use xlink:href="#DejaVuSans-32"/>
      </g>
     </g>
    </g>
    <g id="xtick_3">
     <g id="line2d_9">
      <path d="M 230.8608 298.944 
L 230.8608 27.648 
" clip-path="url(#p1be7f78ea3)" style="fill: none; stroke: #b0b0b0; stroke-width: 0.8; stroke-linecap: square"/>
     </g>
     <g id="line2d_10">
      <g>
       <use xlink:href="#m4ea818df78" x="230.8608" y="298.944" style="stroke: #000000; stroke-width: 0.8"/>
      </g>
     </g>
     <g id="text_3">
      <!-- 4 -->
      <g transform="translate(225.452675 318.861344)scale(0.17 -0.17)">
       <defs>
        <path id="DejaVuSans-34" d="M 2419 4116 
L 825 1625 
L 2419 1625 
L 2419 4116 
z
M 2253 4666 
L 3047 4666 
L 3047 1625 
L 3713 1625 
L 3713 1100 
L 3047 1100 
L 3047 0 
L 2419 0 
L 2419 1100 
L 313 1100 
L 313 1709 
L 2253 4666 
z
" transform="scale(0.015625)"/>
       </defs>
       <use xlink:href="#DejaVuSans-34"/>
      </g>
     </g>
    </g>
    <g id="xtick_4">
     <g id="line2d_11">
      <path d="M 317.4912 298.944 
L 317.4912 27.648 
" clip-path="url(#p1be7f78ea3)" style="fill: none; stroke: #b0b0b0; stroke-width: 0.8; stroke-linecap: square"/>
     </g>
     <g id="line2d_12">
      <g>
       <use xlink:href="#m4ea818df78" x="317.4912" y="298.944" style="stroke: #000000; stroke-width: 0.8"/>
      </g>
     </g>
     <g id="text_4">
      <!-- 6 -->
      <g transform="translate(312.083075 318.861344)scale(0.17 -0.17)">
       <defs>
        <path id="DejaVuSans-36" d="M 2113 2584 
Q 1688 2584 1439 2293 
Q 1191 2003 1191 1497 
Q 1191 994 1439 701 
Q 1688 409 2113 409 
Q 2538 409 2786 701 
Q 3034 994 3034 1497 
Q 3034 2003 2786 2293 
Q 2538 2584 2113 2584 
z
M 3366 4563 
L 3366 3988 
Q 3128 4100 2886 4159 
Q 2644 4219 2406 4219 
Q 1781 4219 1451 3797 
Q 1122 3375 1075 2522 
Q 1259 2794 1537 2939 
Q 1816 3084 2150 3084 
Q 2853 3084 3261 2657 
Q 3669 2231 3669 1497 
Q 3669 778 3244 343 
Q 2819 -91 2113 -91 
Q 1303 -91 875 529 
Q 447 1150 447 2328 
Q 447 3434 972 4092 
Q 1497 4750 2381 4750 
Q 2619 4750 2861 4703 
Q 3103 4656 3366 4563 
z
" transform="scale(0.015625)"/>
       </defs>
       <use xlink:href="#DejaVuSans-36"/>
      </g>
     </g>
    </g>
    <g id="xtick_5">
     <g id="line2d_13">
      <path d="M 100.9152 298.944 
L 100.9152 27.648 
" clip-path="url(#p1be7f78ea3)" style="fill: none; stroke: #b0b0b0; stroke-width: 0.8; stroke-linecap: square"/>
     </g>
     <g id="line2d_14">
      <defs>
       <path id="m193bf68ba2" d="M 0 0 
L 0 2 
" style="stroke: #000000; stroke-width: 0.6"/>
      </defs>
      <g>
       <use xlink:href="#m193bf68ba2" x="100.9152" y="298.944" style="stroke: #000000; stroke-width: 0.6"/>
      </g>
     </g>
    </g>
    <g id="xtick_6">
     <g id="line2d_15">
      <path d="M 187.5456 298.944 
L 187.5456 27.648 
" clip-path="url(#p1be7f78ea3)" style="fill: none; stroke: #b0b0b0; stroke-width: 0.8; stroke-linecap: square"/>
     </g>
     <g id="line2d_16">
      <g>
       <use xlink:href="#m193bf68ba2" x="187.5456" y="298.944" style="stroke: #000000; stroke-width: 0.6"/>
      </g>
     </g>
    </g>
    <g id="xtick_7">
     <g id="line2d_17">
      <path d="M 274.176 298.944 
L 274.176 27.648 
" clip-path="url(#p1be7f78ea3)" style="fill: none; stroke: #b0b0b0; stroke-width: 0.8; stroke-linecap: square"/>
     </g>
     <g id="line2d_18">
      <g>
       <use xlink:href="#m193bf68ba2" x="274.176" y="298.944" style="stroke: #000000; stroke-width: 0.6"/>
      </g>
     </g>
    </g>
    <g id="xtick_8">
     <g id="line2d_19">
      <path d="M 360.8064 298.944 
L 360.8064 27.648 
" clip-path="url(#p1be7f78ea3)" style="fill: none; stroke: #b0b0b0; stroke-width: 0.8; stroke-linecap: square"/>
     </g>
     <g id="line2d_20">
      <g>
       <use xlink:href="#m193bf68ba2" x="360.8064" y="298.944" style="stroke: #000000; stroke-width: 0.6"/>
      </g>
     </g>
    </g>
    <g id="text_5">
     <!-- log10(# f-evals / dimension) -->
     <g transform="translate(88.823278 339.314156)scale(0.17 -0.17)">
      <defs>
       <path id="DejaVuSans-6c" d="M 603 4863 
L 1178 4863 
L 1178 0 
L 603 0 
L 603 4863 
z
" transform="scale(0.015625)"/>
       <path id="DejaVuSans-6f" d="M 1959 3097 
Q 1497 3097 1228 2736 
Q 959 2375 959 1747 
Q 959 1119 1226 758 
Q 1494 397 1959 397 
Q 2419 397 2687 759 
Q 2956 1122 2956 1747 
Q 2956 2369 2687 2733 
Q 2419 3097 1959 3097 
z
M 1959 3584 
Q 2709 3584 3137 3096 
Q 3566 2609 3566 1747 
Q 3566 888 3137 398 
Q 2709 -91 1959 -91 
Q 1206 -91 779 398 
Q 353 888 353 1747 
Q 353 2609 779 3096 
Q 1206 3584 1959 3584 
z
" transform="scale(0.015625)"/>
       <path id="DejaVuSans-67" d="M 2906 1791 
Q 2906 2416 2648 2759 
Q 2391 3103 1925 3103 
Q 1463 3103 1205 2759 
Q 947 2416 947 1791 
Q 947 1169 1205 825 
Q 1463 481 1925 481 
Q 2391 481 2648 825 
Q 2906 1169 2906 1791 
z
M 3481 434 
Q 3481 -459 3084 -895 
Q 2688 -1331 1869 -1331 
Q 1566 -1331 1297 -1286 
Q 1028 -1241 775 -1147 
L 775 -588 
Q 1028 -725 1275 -790 
Q 1522 -856 1778 -856 
Q 2344 -856 2625 -561 
Q 2906 -266 2906 331 
L 2906 616 
Q 2728 306 2450 153 
Q 2172 0 1784 0 
Q 1141 0 747 490 
Q 353 981 353 1791 
Q 353 2603 747 3093 
Q 1141 3584 1784 3584 
Q 2172 3584 2450 3431 
Q 2728 3278 2906 2969 
L 2906 3500 
L 3481 3500 
L 3481 434 
z
" transform="scale(0.015625)"/>
       <path id="DejaVuSans-31" d="M 794 531 
L 1825 531 
L 1825 4091 
L 703 3866 
L 703 4441 
L 1819 4666 
L 2450 4666 
L 2450 531 
L 3481 531 
L 3481 0 
L 794 0 
L 794 531 
z
" transform="scale(0.015625)"/>
       <path id="DejaVuSans-28" d="M 1984 4856 
Q 1566 4138 1362 3434 
Q 1159 2731 1159 2009 
Q 1159 1288 1364 580 
Q 1569 -128 1984 -844 
L 1484 -844 
Q 1016 -109 783 600 
Q 550 1309 550 2009 
Q 550 2706 781 3412 
Q 1013 4119 1484 4856 
L 1984 4856 
z
" transform="scale(0.015625)"/>
       <path id="DejaVuSans-23" d="M 3272 2816 
L 2363 2816 
L 2100 1772 
L 3016 1772 
L 3272 2816 
z
M 2803 4594 
L 2478 3297 
L 3391 3297 
L 3719 4594 
L 4219 4594 
L 3897 3297 
L 4872 3297 
L 4872 2816 
L 3775 2816 
L 3519 1772 
L 4513 1772 
L 4513 1294 
L 3397 1294 
L 3072 0 
L 2572 0 
L 2894 1294 
L 1978 1294 
L 1656 0 
L 1153 0 
L 1478 1294 
L 494 1294 
L 494 1772 
L 1594 1772 
L 1856 2816 
L 850 2816 
L 850 3297 
L 1978 3297 
L 2297 4594 
L 2803 4594 
z
" transform="scale(0.015625)"/>
       <path id="DejaVuSans-20" transform="scale(0.015625)"/>
       <path id="DejaVuSans-66" d="M 2375 4863 
L 2375 4384 
L 1825 4384 
Q 1516 4384 1395 4259 
Q 1275 4134 1275 3809 
L 1275 3500 
L 2222 3500 
L 2222 3053 
L 1275 3053 
L 1275 0 
L 697 0 
L 697 3053 
L 147 3053 
L 147 3500 
L 697 3500 
L 697 3744 
Q 697 4328 969 4595 
Q 1241 4863 1831 4863 
L 2375 4863 
z
" transform="scale(0.015625)"/>
       <path id="DejaVuSans-2d" d="M 313 2009 
L 1997 2009 
L 1997 1497 
L 313 1497 
L 313 2009 
z
" transform="scale(0.015625)"/>
       <path id="DejaVuSans-65" d="M 3597 1894 
L 3597 1613 
L 953 1613 
Q 991 1019 1311 708 
Q 1631 397 2203 397 
Q 2534 397 2845 478 
Q 3156 559 3463 722 
L 3463 178 
Q 3153 47 2828 -22 
Q 2503 -91 2169 -91 
Q 1331 -91 842 396 
Q 353 884 353 1716 
Q 353 2575 817 3079 
Q 1281 3584 2069 3584 
Q 2775 3584 3186 3129 
Q 3597 2675 3597 1894 
z
M 3022 2063 
Q 3016 2534 2758 2815 
Q 2500 3097 2075 3097 
Q 1594 3097 1305 2825 
Q 1016 2553 972 2059 
L 3022 2063 
z
" transform="scale(0.015625)"/>
       <path id="DejaVuSans-76" d="M 191 3500 
L 800 3500 
L 1894 563 
L 2988 3500 
L 3597 3500 
L 2284 0 
L 1503 0 
L 191 3500 
z
" transform="scale(0.015625)"/>
       <path id="DejaVuSans-61" d="M 2194 1759 
Q 1497 1759 1228 1600 
Q 959 1441 959 1056 
Q 959 750 1161 570 
Q 1363 391 1709 391 
Q 2188 391 2477 730 
Q 2766 1069 2766 1631 
L 2766 1759 
L 2194 1759 
z
M 3341 1997 
L 3341 0 
L 2766 0 
L 2766 531 
Q 2569 213 2275 61 
Q 1981 -91 1556 -91 
Q 1019 -91 701 211 
Q 384 513 384 1019 
Q 384 1609 779 1909 
Q 1175 2209 1959 2209 
L 2766 2209 
L 2766 2266 
Q 2766 2663 2505 2880 
Q 2244 3097 1772 3097 
Q 1472 3097 1187 3025 
Q 903 2953 641 2809 
L 641 3341 
Q 956 3463 1253 3523 
Q 1550 3584 1831 3584 
Q 2591 3584 2966 3190 
Q 3341 2797 3341 1997 
z
" transform="scale(0.015625)"/>
       <path id="DejaVuSans-73" d="M 2834 3397 
L 2834 2853 
Q 2591 2978 2328 3040 
Q 2066 3103 1784 3103 
Q 1356 3103 1142 2972 
Q 928 2841 928 2578 
Q 928 2378 1081 2264 
Q 1234 2150 1697 2047 
L 1894 2003 
Q 2506 1872 2764 1633 
Q 3022 1394 3022 966 
Q 3022 478 2636 193 
Q 2250 -91 1575 -91 
Q 1294 -91 989 -36 
Q 684 19 347 128 
L 347 722 
Q 666 556 975 473 
Q 1284 391 1588 391 
Q 1994 391 2212 530 
Q 2431 669 2431 922 
Q 2431 1156 2273 1281 
Q 2116 1406 1581 1522 
L 1381 1569 
Q 847 1681 609 1914 
Q 372 2147 372 2553 
Q 372 3047 722 3315 
Q 1072 3584 1716 3584 
Q 2034 3584 2315 3537 
Q 2597 3491 2834 3397 
z
" transform="scale(0.015625)"/>
       <path id="DejaVuSans-2f" d="M 1625 4666 
L 2156 4666 
L 531 -594 
L 0 -594 
L 1625 4666 
z
" transform="scale(0.015625)"/>
       <path id="DejaVuSans-64" d="M 2906 2969 
L 2906 4863 
L 3481 4863 
L 3481 0 
L 2906 0 
L 2906 525 
Q 2725 213 2448 61 
Q 2172 -91 1784 -91 
Q 1150 -91 751 415 
Q 353 922 353 1747 
Q 353 2572 751 3078 
Q 1150 3584 1784 3584 
Q 2172 3584 2448 3432 
Q 2725 3281 2906 2969 
z
M 947 1747 
Q 947 1113 1208 752 
Q 1469 391 1925 391 
Q 2381 391 2643 752 
Q 2906 1113 2906 1747 
Q 2906 2381 2643 2742 
Q 2381 3103 1925 3103 
Q 1469 3103 1208 2742 
Q 947 2381 947 1747 
z
" transform="scale(0.015625)"/>
       <path id="DejaVuSans-69" d="M 603 3500 
L 1178 3500 
L 1178 0 
L 603 0 
L 603 3500 
z
M 603 4863 
L 1178 4863 
L 1178 4134 
L 603 4134 
L 603 4863 
z
" transform="scale(0.015625)"/>
       <path id="DejaVuSans-6d" d="M 3328 2828 
Q 3544 3216 3844 3400 
Q 4144 3584 4550 3584 
Q 5097 3584 5394 3201 
Q 5691 2819 5691 2113 
L 5691 0 
L 5113 0 
L 5113 2094 
Q 5113 2597 4934 2840 
Q 4756 3084 4391 3084 
Q 3944 3084 3684 2787 
Q 3425 2491 3425 1978 
L 3425 0 
L 2847 0 
L 2847 2094 
Q 2847 2600 2669 2842 
Q 2491 3084 2119 3084 
Q 1678 3084 1418 2786 
Q 1159 2488 1159 1978 
L 1159 0 
L 581 0 
L 581 3500 
L 1159 3500 
L 1159 2956 
Q 1356 3278 1631 3431 
Q 1906 3584 2284 3584 
Q 2666 3584 2933 3390 
Q 3200 3197 3328 2828 
z
" transform="scale(0.015625)"/>
       <path id="DejaVuSans-6e" d="M 3513 2113 
L 3513 0 
L 2938 0 
L 2938 2094 
Q 2938 2591 2744 2837 
Q 2550 3084 2163 3084 
Q 1697 3084 1428 2787 
Q 1159 2491 1159 1978 
L 1159 0 
L 581 0 
L 581 3500 
L 1159 3500 
L 1159 2956 
Q 1366 3272 1645 3428 
Q 1925 3584 2291 3584 
Q 2894 3584 3203 3211 
Q 3513 2838 3513 2113 
z
" transform="scale(0.015625)"/>
       <path id="DejaVuSans-29" d="M 513 4856 
L 1013 4856 
Q 1481 4119 1714 3412 
Q 1947 2706 1947 2009 
Q 1947 1309 1714 600 
Q 1481 -109 1013 -844 
L 513 -844 
Q 928 -128 1133 580 
Q 1338 1288 1338 2009 
Q 1338 2731 1133 3434 
Q 928 4138 513 4856 
z
" transform="scale(0.015625)"/>
      </defs>
      <use xlink:href="#DejaVuSans-6c"/>
      <use xlink:href="#DejaVuSans-6f" x="27.783203"/>
      <use xlink:href="#DejaVuSans-67" x="88.964844"/>
      <use xlink:href="#DejaVuSans-31" x="152.441406"/>
      <use xlink:href="#DejaVuSans-30" x="216.064453"/>
      <use xlink:href="#DejaVuSans-28" x="279.6875"/>
      <use xlink:href="#DejaVuSans-23" x="318.701172"/>
      <use xlink:href="#DejaVuSans-20" x="402.490234"/>
      <use xlink:href="#DejaVuSans-66" x="434.277344"/>
      <use xlink:href="#DejaVuSans-2d" x="463.982422"/>
      <use xlink:href="#DejaVuSans-65" x="500.066406"/>
      <use xlink:href="#DejaVuSans-76" x="561.589844"/>
      <use xlink:href="#DejaVuSans-61" x="620.769531"/>
      <use xlink:href="#DejaVuSans-6c" x="682.048828"/>
      <use xlink:href="#DejaVuSans-73" x="709.832031"/>
      <use xlink:href="#DejaVuSans-20" x="761.931641"/>
      <use xlink:href="#DejaVuSans-2f" x="793.71875"/>
      <use xlink:href="#DejaVuSans-20" x="827.410156"/>
      <use xlink:href="#DejaVuSans-64" x="859.197266"/>
      <use xlink:href="#DejaVuSans-69" x="922.673828"/>
      <use xlink:href="#DejaVuSans-6d" x="950.457031"/>
      <use xlink:href="#DejaVuSans-65" x="1047.869141"/>
      <use xlink:href="#DejaVuSans-6e" x="1109.392578"/>
      <use xlink:href="#DejaVuSans-73" x="1172.771484"/>
      <use xlink:href="#DejaVuSans-69" x="1224.871094"/>
      <use xlink:href="#DejaVuSans-6f" x="1252.654297"/>
      <use xlink:href="#DejaVuSans-6e" x="1313.835938"/>
      <use xlink:href="#DejaVuSans-29" x="1377.214844"/>
     </g>
    </g>
   </g>
   <g id="matplotlib.axis_2">
    <g id="ytick_1">
     <g id="line2d_21">
      <path d="M 57.6 298.944 
L 360.8064 298.944 
" clip-path="url(#p1be7f78ea3)" style="fill: none; stroke: #b0b0b0; stroke-width: 0.8; stroke-linecap: square"/>
     </g>
     <g id="line2d_22">
      <defs>
       <path id="m1c8a7c4e7a" d="M 0 0 
L -3.5 0 
" style="stroke: #000000; stroke-width: 0.8"/>
      </defs>
      <g>
       <use xlink:href="#m1c8a7c4e7a" x="57.6" y="298.944" style="stroke: #000000; stroke-width: 0.8"/>
      </g>
     </g>
     <g id="text_6">
      <!-- 0.0 -->
      <g transform="translate(25.155 305.02275)scale(0.16 -0.16)">
       <defs>
        <path id="DejaVuSans-2e" d="M 684 794 
L 1344 794 
L 1344 0 
L 684 0 
L 684 794 
z
" transform="scale(0.015625)"/>
       </defs>
       <use xlink:href="#DejaVuSans-30"/>
       <use xlink:href="#DejaVuSans-2e" x="63.623047"/>
       <use xlink:href="#DejaVuSans-30" x="95.410156"/>
      </g>
     </g>
    </g>
    <g id="ytick_2">
     <g id="line2d_23">
      <path d="M 57.6 244.6848 
L 360.8064 244.6848 
" clip-path="url(#p1be7f78ea3)" style="fill: none; stroke: #b0b0b0; stroke-width: 0.8; stroke-linecap: square"/>
     </g>
     <g id="line2d_24">
      <g>
       <use xlink:href="#m1c8a7c4e7a" x="57.6" y="244.6848" style="stroke: #000000; stroke-width: 0.8"/>
      </g>
     </g>
     <g id="text_7">
      <!-- 0.2 -->
      <g transform="translate(25.155 250.76355)scale(0.16 -0.16)">
       <use xlink:href="#DejaVuSans-30"/>
       <use xlink:href="#DejaVuSans-2e" x="63.623047"/>
       <use xlink:href="#DejaVuSans-32" x="95.410156"/>
      </g>
     </g>
    </g>
    <g id="ytick_3">
     <g id="line2d_25">
      <path d="M 57.6 190.4256 
L 360.8064 190.4256 
" clip-path="url(#p1be7f78ea3)" style="fill: none; stroke: #b0b0b0; stroke-width: 0.8; stroke-linecap: square"/>
     </g>
     <g id="line2d_26">
      <g>
       <use xlink:href="#m1c8a7c4e7a" x="57.6" y="190.4256" style="stroke: #000000; stroke-width: 0.8"/>
      </g>
     </g>
     <g id="text_8">
      <!-- 0.4 -->
      <g transform="translate(25.155 196.50435)scale(0.16 -0.16)">
       <use xlink:href="#DejaVuSans-30"/>
       <use xlink:href="#DejaVuSans-2e" x="63.623047"/>
       <use xlink:href="#DejaVuSans-34" x="95.410156"/>
      </g>
     </g>
    </g>
    <g id="ytick_4">
     <g id="line2d_27">
      <path d="M 57.6 136.1664 
L 360.8064 136.1664 
" clip-path="url(#p1be7f78ea3)" style="fill: none; stroke: #b0b0b0; stroke-width: 0.8; stroke-linecap: square"/>
     </g>
     <g id="line2d_28">
      <g>
       <use xlink:href="#m1c8a7c4e7a" x="57.6" y="136.1664" style="stroke: #000000; stroke-width: 0.8"/>
      </g>
     </g>
     <g id="text_9">
      <!-- 0.6 -->
      <g transform="translate(25.155 142.24515)scale(0.16 -0.16)">
       <use xlink:href="#DejaVuSans-30"/>
       <use xlink:href="#DejaVuSans-2e" x="63.623047"/>
       <use xlink:href="#DejaVuSans-36" x="95.410156"/>
      </g>
     </g>
    </g>
    <g id="ytick_5">
     <g id="line2d_29">
      <path d="M 57.6 81.9072 
L 360.8064 81.9072 
" clip-path="url(#p1be7f78ea3)" style="fill: none; stroke: #b0b0b0; stroke-width: 0.8; stroke-linecap: square"/>
     </g>
     <g id="line2d_30">
      <g>
       <use xlink:href="#m1c8a7c4e7a" x="57.6" y="81.9072" style="stroke: #000000; stroke-width: 0.8"/>
      </g>
     </g>
     <g id="text_10">
      <!-- 0.8 -->
      <g transform="translate(25.155 87.98595)scale(0.16 -0.16)">
       <defs>
        <path id="DejaVuSans-38" d="M 2034 2216 
Q 1584 2216 1326 1975 
Q 1069 1734 1069 1313 
Q 1069 891 1326 650 
Q 1584 409 2034 409 
Q 2484 409 2743 651 
Q 3003 894 3003 1313 
Q 3003 1734 2745 1975 
Q 2488 2216 2034 2216 
z
M 1403 2484 
Q 997 2584 770 2862 
Q 544 3141 544 3541 
Q 544 4100 942 4425 
Q 1341 4750 2034 4750 
Q 2731 4750 3128 4425 
Q 3525 4100 3525 3541 
Q 3525 3141 3298 2862 
Q 3072 2584 2669 2484 
Q 3125 2378 3379 2068 
Q 3634 1759 3634 1313 
Q 3634 634 3220 271 
Q 2806 -91 2034 -91 
Q 1263 -91 848 271 
Q 434 634 434 1313 
Q 434 1759 690 2068 
Q 947 2378 1403 2484 
z
M 1172 3481 
Q 1172 3119 1398 2916 
Q 1625 2713 2034 2713 
Q 2441 2713 2670 2916 
Q 2900 3119 2900 3481 
Q 2900 3844 2670 4047 
Q 2441 4250 2034 4250 
Q 1625 4250 1398 4047 
Q 1172 3844 1172 3481 
z
" transform="scale(0.015625)"/>
       </defs>
       <use xlink:href="#DejaVuSans-30"/>
       <use xlink:href="#DejaVuSans-2e" x="63.623047"/>
       <use xlink:href="#DejaVuSans-38" x="95.410156"/>
      </g>
     </g>
    </g>
    <g id="ytick_6">
     <g id="line2d_31">
      <path d="M 57.6 27.648 
L 360.8064 27.648 
" clip-path="url(#p1be7f78ea3)" style="fill: none; stroke: #b0b0b0; stroke-width: 0.8; stroke-linecap: square"/>
     </g>
     <g id="line2d_32">
      <g>
       <use xlink:href="#m1c8a7c4e7a" x="57.6" y="27.648" style="stroke: #000000; stroke-width: 0.8"/>
      </g>
     </g>
     <g id="text_11">
      <!-- 1.0 -->
      <g transform="translate(25.155 33.72675)scale(0.16 -0.16)">
       <use xlink:href="#DejaVuSans-31"/>
       <use xlink:href="#DejaVuSans-2e" x="63.623047"/>
       <use xlink:href="#DejaVuSans-30" x="95.410156"/>
      </g>
     </g>
    </g>
    <g id="text_12">
     <!-- Fraction of function,target pairs -->
     <g transform="translate(17.619531 297.681)rotate(-90)scale(0.17 -0.17)">
      <defs>
       <path id="DejaVuSans-46" d="M 628 4666 
L 3309 4666 
L 3309 4134 
L 1259 4134 
L 1259 2759 
L 3109 2759 
L 3109 2228 
L 1259 2228 
L 1259 0 
L 628 0 
L 628 4666 
z
" transform="scale(0.015625)"/>
       <path id="DejaVuSans-72" d="M 2631 2963 
Q 2534 3019 2420 3045 
Q 2306 3072 2169 3072 
Q 1681 3072 1420 2755 
Q 1159 2438 1159 1844 
L 1159 0 
L 581 0 
L 581 3500 
L 1159 3500 
L 1159 2956 
Q 1341 3275 1631 3429 
Q 1922 3584 2338 3584 
Q 2397 3584 2469 3576 
Q 2541 3569 2628 3553 
L 2631 2963 
z
" transform="scale(0.015625)"/>
       <path id="DejaVuSans-63" d="M 3122 3366 
L 3122 2828 
Q 2878 2963 2633 3030 
Q 2388 3097 2138 3097 
Q 1578 3097 1268 2742 
Q 959 2388 959 1747 
Q 959 1106 1268 751 
Q 1578 397 2138 397 
Q 2388 397 2633 464 
Q 2878 531 3122 666 
L 3122 134 
Q 2881 22 2623 -34 
Q 2366 -91 2075 -91 
Q 1284 -91 818 406 
Q 353 903 353 1747 
Q 353 2603 823 3093 
Q 1294 3584 2113 3584 
Q 2378 3584 2631 3529 
Q 2884 3475 3122 3366 
z
" transform="scale(0.015625)"/>
       <path id="DejaVuSans-74" d="M 1172 4494 
L 1172 3500 
L 2356 3500 
L 2356 3053 
L 1172 3053 
L 1172 1153 
Q 1172 725 1289 603 
Q 1406 481 1766 481 
L 2356 481 
L 2356 0 
L 1766 0 
Q 1100 0 847 248 
Q 594 497 594 1153 
L 594 3053 
L 172 3053 
L 172 3500 
L 594 3500 
L 594 4494 
L 1172 4494 
z
" transform="scale(0.015625)"/>
       <path id="DejaVuSans-75" d="M 544 1381 
L 544 3500 
L 1119 3500 
L 1119 1403 
Q 1119 906 1312 657 
Q 1506 409 1894 409 
Q 2359 409 2629 706 
Q 2900 1003 2900 1516 
L 2900 3500 
L 3475 3500 
L 3475 0 
L 2900 0 
L 2900 538 
Q 2691 219 2414 64 
Q 2138 -91 1772 -91 
Q 1169 -91 856 284 
Q 544 659 544 1381 
z
M 1991 3584 
L 1991 3584 
z
" transform="scale(0.015625)"/>
       <path id="DejaVuSans-2c" d="M 750 794 
L 1409 794 
L 1409 256 
L 897 -744 
L 494 -744 
L 750 256 
L 750 794 
z
" transform="scale(0.015625)"/>
       <path id="DejaVuSans-70" d="M 1159 525 
L 1159 -1331 
L 581 -1331 
L 581 3500 
L 1159 3500 
L 1159 2969 
Q 1341 3281 1617 3432 
Q 1894 3584 2278 3584 
Q 2916 3584 3314 3078 
Q 3713 2572 3713 1747 
Q 3713 922 3314 415 
Q 2916 -91 2278 -91 
Q 1894 -91 1617 61 
Q 1341 213 1159 525 
z
M 3116 1747 
Q 3116 2381 2855 2742 
Q 2594 3103 2138 3103 
Q 1681 3103 1420 2742 
Q 1159 2381 1159 1747 
Q 1159 1113 1420 752 
Q 1681 391 2138 391 
Q 2594 391 2855 752 
Q 3116 1113 3116 1747 
z
" transform="scale(0.015625)"/>
      </defs>
      <use xlink:href="#DejaVuSans-46"/>
      <use xlink:href="#DejaVuSans-72" x="50.269531"/>
      <use xlink:href="#DejaVuSans-61" x="91.382812"/>
      <use xlink:href="#DejaVuSans-63" x="152.662109"/>
      <use xlink:href="#DejaVuSans-74" x="207.642578"/>
      <use xlink:href="#DejaVuSans-69" x="246.851562"/>
      <use xlink:href="#DejaVuSans-6f" x="274.634766"/>
      <use xlink:href="#DejaVuSans-6e" x="335.816406"/>
      <use xlink:href="#DejaVuSans-20" x="399.195312"/>
      <use xlink:href="#DejaVuSans-6f" x="430.982422"/>
      <use xlink:href="#DejaVuSans-66" x="492.164062"/>
      <use xlink:href="#DejaVuSans-20" x="527.369141"/>
      <use xlink:href="#DejaVuSans-66" x="559.15625"/>
      <use xlink:href="#DejaVuSans-75" x="594.361328"/>
      <use xlink:href="#DejaVuSans-6e" x="657.740234"/>
      <use xlink:href="#DejaVuSans-63" x="721.119141"/>
      <use xlink:href="#DejaVuSans-74" x="776.099609"/>
      <use xlink:href="#DejaVuSans-69" x="815.308594"/>
      <use xlink:href="#DejaVuSans-6f" x="843.091797"/>
      <use xlink:href="#DejaVuSans-6e" x="904.273438"/>
      <use xlink:href="#DejaVuSans-2c" x="967.652344"/>
      <use xlink:href="#DejaVuSans-74" x="999.439453"/>
      <use xlink:href="#DejaVuSans-61" x="1038.648438"/>
      <use xlink:href="#DejaVuSans-72" x="1099.927734"/>
      <use xlink:href="#DejaVuSans-67" x="1139.291016"/>
      <use xlink:href="#DejaVuSans-65" x="1202.767578"/>
      <use xlink:href="#DejaVuSans-74" x="1264.291016"/>
      <use xlink:href="#DejaVuSans-20" x="1303.5"/>
      <use xlink:href="#DejaVuSans-70" x="1335.287109"/>
      <use xlink:href="#DejaVuSans-61" x="1398.763672"/>
      <use xlink:href="#DejaVuSans-69" x="1460.042969"/>
      <use xlink:href="#DejaVuSans-72" x="1487.826172"/>
      <use xlink:href="#DejaVuSans-73" x="1528.939453"/>
     </g>
    </g>
   </g>
   <g id="line2d_33">
    <defs>
     <path id="mda6bac8ddf" d="M 0 1.5 
C 0.397805 1.5 0.77937 1.341951 1.06066 1.06066 
C 1.341951 0.77937 1.5 0.397805 1.5 0 
C 1.5 -0.397805 1.341951 -0.77937 1.06066 -1.06066 
C 0.77937 -1.341951 0.397805 -1.5 0 -1.5 
C -0.397805 -1.5 -0.77937 -1.341951 -1.06066 -1.06066 
C -1.341951 -0.77937 -1.5 -0.397805 -1.5 0 
C -1.5 0.397805 -1.341951 0.77937 -1.06066 1.06066 
C -0.77937 1.341951 -0.397805 1.5 0 1.5 
z
" style="stroke: #f5deb3"/>
    </defs>
    <g>
     <use xlink:href="#mda6bac8ddf" x="355.339539" y="27.648" style="fill: #f5deb3; stroke: #f5deb3"/>
     <use xlink:href="#mda6bac8ddf" x="355.339539" y="27.648" style="fill: #f5deb3; stroke: #f5deb3"/>
    </g>
   </g>
   <g id="line2d_34">
    <defs>
     <path id="mb23dabb427" d="M 0 1.5 
C 0.397805 1.5 0.77937 1.341951 1.06066 1.06066 
C 1.341951 0.77937 1.5 0.397805 1.5 0 
C 1.5 -0.397805 1.341951 -0.77937 1.06066 -1.06066 
C 0.77937 -1.341951 0.397805 -1.5 0 -1.5 
C -0.397805 -1.5 -0.77937 -1.341951 -1.06066 -1.06066 
C -1.341951 -0.77937 -1.5 -0.397805 -1.5 0 
C -1.5 0.397805 -1.341951 0.77937 -1.06066 1.06066 
C -0.77937 1.341951 -0.397805 1.5 0 1.5 
z
" style="stroke: #000080"/>
    </defs>
    <g>
     <use xlink:href="#mb23dabb427" x="366.13963" y="27.648" style="fill: #000080; stroke: #000080"/>
     <use xlink:href="#mb23dabb427" x="366.13963" y="27.648" style="fill: #000080; stroke: #000080"/>
    </g>
   </g>
   <g id="line2d_35">
    <path d="M 96.480897 298.944 
L 96.480897 298.589365 
L 99.346662 298.589365 
L 99.346662 298.234729 
L 104.028784 298.234729 
L 104.028784 297.880094 
L 104.501065 297.880094 
L 104.501065 296.461553 
L 104.961779 296.461553 
L 104.961779 296.106918 
L 107.109915 296.106918 
L 107.109915 295.752282 
L 107.774703 295.752282 
L 107.774703 295.043012 
L 108.29012 295.043012 
L 108.29012 294.688376 
L 109.520071 294.688376 
L 109.520071 294.333741 
L 111.762192 294.333741 
L 111.762192 293.979106 
L 114.961559 293.979106 
L 114.961559 293.624471 
L 118.889854 293.624471 
L 118.889854 293.269835 
L 124.481616 293.269835 
L 124.481616 292.9152 
L 125.729248 292.9152 
L 125.729248 292.560565 
L 126.274549 292.560565 
L 126.274549 292.205929 
L 128.484801 292.205929 
L 128.484801 291.851294 
L 129.0834 291.851294 
L 129.0834 291.496659 
L 133.086488 291.496659 
L 133.086488 291.142024 
L 137.113304 291.142024 
L 137.113304 290.787388 
L 137.840541 290.787388 
L 137.840541 290.432753 
L 139.77227 290.432753 
L 139.77227 290.078118 
L 141.67542 290.078118 
L 141.67542 289.723482 
L 143.618588 289.723482 
L 143.618588 289.368847 
L 143.946089 289.368847 
L 143.946089 289.014212 
L 146.429353 289.014212 
L 146.429353 288.659576 
L 148.57797 288.659576 
L 148.57797 288.304941 
L 153.8097 288.304941 
L 153.8097 287.950306 
L 154.123607 287.950306 
L 154.123607 287.595671 
L 155.024477 287.595671 
L 155.024477 287.241035 
L 156.589623 287.241035 
L 156.589623 286.8864 
L 158.463058 286.8864 
L 158.463058 286.531765 
L 160.407056 286.531765 
L 160.407056 286.177129 
L 160.92527 286.177129 
L 160.92527 285.822494 
L 161.609678 285.822494 
L 161.609678 285.467859 
L 162.506504 285.467859 
L 162.506504 285.113224 
L 163.22595 285.113224 
L 163.22595 284.758588 
L 167.190556 284.758588 
L 167.290205 283.694682 
L 168.047747 283.694682 
L 168.047747 283.340047 
L 168.29014 283.340047 
L 168.337202 282.630776 
L 168.683897 282.630776 
L 168.683897 282.276141 
L 169.004166 282.276141 
L 169.004166 281.921506 
L 169.413021 281.921506 
L 169.413021 281.566871 
L 170.053063 281.566871 
L 170.053063 281.212235 
L 170.514546 281.212235 
L 170.514546 280.8576 
L 170.681267 280.8576 
L 170.681267 280.502965 
L 170.883051 280.502965 
L 170.883051 280.148329 
L 170.996743 280.148329 
L 170.996743 279.793694 
L 173.588983 279.793694 
L 173.588983 279.439059 
L 179.147307 279.439059 
L 179.147307 279.084424 
L 179.476602 279.084424 
L 179.476602 278.729788 
L 179.677735 278.729788 
L 179.677735 278.375153 
L 180.444974 278.375153 
L 180.444974 278.020518 
L 181.658873 278.020518 
L 181.658873 277.665882 
L 186.760031 277.665882 
L 186.760031 277.311247 
L 191.307868 277.311247 
L 191.310948 276.601976 
L 191.777858 276.601976 
L 191.777858 276.247341 
L 193.298024 276.247341 
L 193.298024 275.892706 
L 196.583589 275.892706 
L 196.583589 275.538071 
L 196.911156 275.538071 
L 196.932869 274.8288 
L 197.248846 274.8288 
L 197.248846 274.474165 
L 198.274917 274.474165 
L 198.274917 274.119529 
L 198.534726 274.119529 
L 198.534726 273.764894 
L 199.001918 273.764894 
L 199.078498 273.055624 
L 199.494702 273.055624 
L 199.494702 272.700988 
L 200.029235 272.700988 
L 200.029235 272.346353 
L 201.125291 272.346353 
L 201.125291 271.991718 
L 201.881258 271.991718 
L 201.881258 271.637082 
L 202.05951 271.637082 
L 202.05951 271.282447 
L 202.372576 271.282447 
L 202.372576 270.927812 
L 203.785835 270.927812 
L 203.785835 270.573176 
L 203.95722 270.573176 
L 203.95722 270.218541 
L 205.550617 270.218541 
L 205.550617 269.863906 
L 205.758942 269.863906 
L 205.758942 269.509271 
L 205.993934 269.509271 
L 206.013679 268.8 
L 206.622524 268.8 
L 206.622524 268.445365 
L 206.939852 268.445365 
L 206.939852 268.090729 
L 213.246784 268.090729 
L 213.315272 267.381459 
L 213.669981 267.381459 
L 213.669981 267.026824 
L 213.885484 267.026824 
L 213.885484 266.672188 
L 214.101298 266.672188 
L 214.101298 266.317553 
L 220.605202 266.317553 
L 220.605202 265.962918 
L 220.821679 265.962918 
L 220.821679 265.608282 
L 221.059147 265.608282 
L 221.059147 265.253647 
L 224.206201 265.253647 
L 224.206201 264.899012 
L 224.431798 264.899012 
L 224.516594 264.189741 
L 224.60442 264.189741 
L 224.60442 263.835106 
L 224.752321 263.835106 
L 224.752321 263.480471 
L 224.880205 263.480471 
L 224.880205 263.125835 
L 226.451245 263.125835 
L 226.451245 262.7712 
L 226.680986 262.7712 
L 226.786405 262.061929 
L 226.981619 262.061929 
L 226.981619 261.707294 
L 227.220997 261.707294 
L 227.220997 261.352659 
L 235.482564 261.352659 
L 235.482564 260.998024 
L 235.645327 260.998024 
L 235.645327 260.643388 
L 236.397229 260.643388 
L 236.442445 259.934118 
L 236.513478 259.934118 
L 236.513478 259.224847 
L 236.690379 259.224847 
L 236.690379 258.870212 
L 236.815804 258.870212 
L 236.815804 258.515576 
L 243.642954 258.515576 
L 243.642954 258.160941 
L 244.059197 258.160941 
L 244.059197 257.806306 
L 244.221152 257.806306 
L 244.221152 257.451671 
L 244.365857 257.451671 
L 244.461682 256.7424 
L 244.545756 256.7424 
L 244.545756 256.387765 
L 244.704944 256.387765 
L 244.704944 256.033129 
L 247.588865 256.033129 
L 247.684792 255.323859 
L 247.801037 255.323859 
L 247.83632 254.614588 
L 247.927353 254.614588 
L 247.984442 253.905318 
L 248.067076 253.905318 
L 248.119009 253.196047 
L 258.238705 253.196047 
L 258.238705 252.841412 
L 258.366428 252.841412 
L 258.366428 252.486776 
L 261.715323 252.486776 
L 261.715323 252.132141 
L 270.849391 252.132141 
L 270.849391 251.777506 
L 271.112879 251.777506 
L 271.112879 251.422871 
L 271.33835 251.422871 
L 271.33835 251.068235 
L 271.569774 251.068235 
L 271.570767 250.358965 
L 271.868248 250.358965 
L 271.868248 250.004329 
L 272.130272 250.004329 
L 272.130272 249.649694 
L 272.474701 249.649694 
L 272.545815 248.940424 
L 272.633127 248.940424 
L 272.663752 248.231153 
L 272.999336 248.231153 
L 273.107344 247.521882 
L 273.260947 247.521882 
L 273.260947 247.167247 
L 273.474132 247.167247 
L 273.491971 246.457976 
L 273.700987 246.457976 
L 273.700987 246.103341 
L 273.822293 246.103341 
L 273.885901 245.394071 
L 273.964883 245.394071 
L 273.982662 244.6848 
L 274.27729 244.6848 
L 274.27729 244.330165 
L 274.396417 244.330165 
L 274.396417 243.975529 
L 274.839368 243.975529 
L 274.839368 243.620894 
L 275.516084 243.620894 
L 275.516084 243.266259 
L 275.643812 243.266259 
L 275.693942 242.556988 
L 275.783463 242.556988 
L 275.844847 241.847718 
L 276.132241 241.847718 
L 276.132241 241.493082 
L 276.582505 241.493082 
L 276.582505 241.138447 
L 276.9271 241.138447 
L 276.9271 240.783812 
L 277.055524 240.783812 
L 277.136718 240.074541 
L 277.359884 240.074541 
L 277.359884 239.719906 
L 277.731898 239.719906 
L 277.838029 237.946729 
L 277.852439 237.946729 
L 277.961187 236.173553 
L 277.967893 236.173553 
L 278.048298 233.336471 
L 278.081052 233.336471 
L 278.165588 231.208659 
L 278.204487 231.208659 
L 278.307177 229.080847 
L 278.318938 229.080847 
L 278.408964 226.5984 
L 278.44495 226.5984 
L 278.492251 225.179859 
L 278.965778 225.179859 
L 278.965778 224.825224 
L 280.041504 224.825224 
L 280.060556 223.406682 
L 280.645925 223.406682 
L 280.654939 222.342776 
L 281.651989 222.342776 
L 281.668518 221.633506 
L 282.827735 221.633506 
L 282.936989 218.796424 
L 282.941487 218.796424 
L 283.037897 214.5408 
L 283.067845 214.5408 
L 283.17398 209.930541 
L 283.188328 209.930541 
L 283.236397 207.802729 
L 283.424139 207.802729 
L 283.424139 207.448094 
L 284.776293 207.448094 
L 284.808015 206.738824 
L 292.345076 206.738824 
L 292.42224 205.320282 
L 292.543313 205.320282 
L 292.554718 204.611012 
L 294.507543 204.611012 
L 294.534047 203.901741 
L 299.407101 203.901741 
L 299.407101 203.547106 
L 299.560217 203.547106 
L 299.565116 202.4832 
L 300.355892 202.4832 
L 300.367582 201.773929 
L 303.21135 201.773929 
L 303.319878 195.390494 
L 303.331753 195.390494 
L 303.439515 188.297788 
L 303.449018 188.297788 
L 303.449018 187.943153 
L 305.038982 187.943153 
L 305.038982 187.588518 
L 306.040795 187.588518 
L 306.050232 186.879247 
L 307.873015 186.879247 
L 307.967925 185.815341 
L 308.18432 185.815341 
L 308.18432 185.460706 
L 308.396933 185.460706 
L 308.471031 184.751435 
L 308.550643 184.751435 
L 308.65696 182.268988 
L 308.672614 182.268988 
L 308.719638 179.431906 
L 308.873467 179.431906 
L 308.966979 178.013365 
L 309.179504 178.013365 
L 309.283697 177.304094 
L 309.685101 177.304094 
L 309.794516 171.275294 
L 309.869658 171.275294 
L 309.972322 167.019671 
L 309.982245 167.019671 
L 310.015645 165.601129 
L 310.149988 165.601129 
L 310.149988 165.246494 
L 310.263898 165.246494 
L 310.347076 164.537224 
L 312.434524 164.537224 
L 312.434524 164.182588 
L 315.223184 164.182588 
L 315.223184 163.827953 
L 316.891249 163.827953 
L 317.000096 158.508424 
L 317.004561 158.508424 
L 317.115493 155.671341 
L 317.122917 155.671341 
L 317.197769 152.479624 
L 317.374041 152.479624 
L 317.374041 152.124988 
L 319.46518 152.124988 
L 319.46518 151.770353 
L 319.632072 151.770353 
L 319.723457 150.706447 
L 319.744068 150.706447 
L 319.847712 148.224 
L 319.857117 148.224 
L 319.967094 144.677647 
L 320.026075 144.677647 
L 320.103396 142.1952 
L 320.17246 142.1952 
L 320.283387 140.776659 
L 320.298657 140.776659 
L 320.360415 138.648847 
L 320.428982 138.648847 
L 320.523942 134.747859 
L 320.578183 134.747859 
L 320.653023 133.329318 
L 320.784264 133.329318 
L 320.817565 132.620047 
L 324.771539 132.620047 
L 324.846888 129.428329 
L 324.887603 129.428329 
L 324.996588 125.172706 
L 325.026104 125.172706 
L 325.056092 124.1088 
L 325.178934 124.1088 
L 325.178934 123.754165 
L 325.303981 123.754165 
L 325.303981 123.399529 
L 326.409163 123.399529 
L 326.409163 123.044894 
L 326.646001 123.044894 
L 326.75197 117.725365 
L 326.782081 117.725365 
L 326.88283 115.597553 
L 326.902345 115.597553 
L 326.902345 115.242918 
L 327.047131 115.242918 
L 327.142206 112.405835 
L 327.163459 112.405835 
L 327.272364 108.859482 
L 327.275212 108.859482 
L 327.320668 107.440941 
L 327.402136 107.440941 
L 327.415525 106.377035 
L 330.281075 106.377035 
L 330.376433 103.894588 
L 330.396935 103.894588 
L 330.505588 99.9936 
L 330.53584 99.9936 
L 330.538648 99.284329 
L 330.719733 99.284329 
L 330.719733 98.929694 
L 331.71464 98.929694 
L 331.797591 97.511153 
L 331.882268 97.511153 
L 331.975283 95.737976 
L 332.011328 95.737976 
L 332.090406 94.674071 
L 332.123637 94.674071 
L 332.171166 93.610165 
L 332.28758 93.610165 
L 332.394996 92.546259 
L 334.529792 92.546259 
L 334.639635 90.773082 
L 334.644507 90.773082 
L 334.709127 87.936 
L 334.820963 87.936 
L 334.908841 86.872094 
L 335.699319 86.872094 
L 335.748778 85.808188 
L 335.876 85.808188 
L 335.975887 83.680376 
L 336.003193 83.680376 
L 336.032196 82.971106 
L 336.125497 82.971106 
L 336.216313 82.261835 
L 336.274603 82.261835 
L 336.274603 81.9072 
L 338.060405 81.9072 
L 338.148973 80.843294 
L 338.178091 80.843294 
L 338.26908 78.715482 
L 338.310266 78.715482 
L 338.37056 78.006212 
L 339.0522 78.006212 
L 339.163226 76.587671 
L 339.199002 76.587671 
L 339.301735 75.523765 
L 339.341951 75.523765 
L 339.372475 73.750588 
L 339.554887 73.750588 
L 339.554887 73.395953 
L 340.963365 73.395953 
L 341.045522 72.332047 
L 341.098054 72.332047 
L 341.180027 70.913506 
L 341.247285 70.913506 
L 341.247285 70.558871 
L 341.817418 70.558871 
L 341.904394 69.140329 
L 341.960942 69.140329 
L 342.053976 67.367153 
L 342.095874 67.367153 
L 342.153804 65.948612 
L 343.524017 65.948612 
L 343.596611 63.466165 
L 343.63619 63.466165 
L 343.720594 62.047624 
L 344.220212 62.047624 
L 344.321765 60.629082 
L 344.352235 60.629082 
L 344.459239 58.501271 
L 344.471364 58.501271 
L 344.542291 56.728094 
L 344.713717 56.728094 
L 344.745645 55.664188 
L 345.788587 55.664188 
L 345.87566 54.954918 
L 345.949283 54.954918 
L 345.998712 54.245647 
L 346.382663 54.245647 
L 346.451149 53.181741 
L 346.494491 53.181741 
L 346.602034 49.635388 
L 346.739817 49.635388 
L 346.739817 49.280753 
L 347.837607 49.280753 
L 347.924786 48.216847 
L 347.966879 48.216847 
L 347.999908 47.507576 
L 348.084799 47.507576 
L 348.084799 47.152941 
L 348.451386 47.152941 
L 348.550478 45.379765 
L 348.570619 45.379765 
L 348.66761 43.961224 
L 349.558564 43.961224 
L 349.613343 43.251953 
L 349.685527 43.251953 
L 349.758705 42.542682 
L 350.177451 42.542682 
L 350.266285 41.478776 
L 350.3324 41.478776 
L 350.3324 41.124141 
L 351.245776 41.124141 
L 351.328351 40.414871 
L 351.714837 40.414871 
L 351.800498 39.7056 
L 351.925154 39.7056 
L 351.96975 38.996329 
L 352.711473 38.996329 
L 352.808662 38.287059 
L 352.911235 38.287059 
L 352.911235 37.932424 
L 353.198218 37.932424 
L 353.285003 36.868518 
L 353.355096 36.868518 
L 353.362694 36.159247 
L 354.232424 36.159247 
L 354.27103 35.449976 
L 354.691527 35.449976 
L 354.798896 34.031435 
L 355.513885 34.031435 
L 355.513885 33.6768 
L 355.637319 33.6768 
L 355.637319 33.322165 
L 355.940098 33.322165 
L 355.978839 32.612894 
L 356.756815 32.612894 
L 356.767623 31.903624 
L 358.293649 31.903624 
L 358.293649 31.548988 
L 358.443682 31.548988 
L 358.443682 31.194353 
L 359.375338 31.194353 
L 359.375338 30.839718 
L 360.368153 30.839718 
L 360.368153 30.485082 
L 360.8064 30.485082 
L 360.8064 30.485082 
" style="fill: none; stroke: #000080; stroke-width: 1.5; stroke-linecap: square"/>
   </g>
   <g id="line2d_36">
    <defs>
     <path id="me1dc392d4f" d="M 0 6 
C 1.591219 6 3.117479 5.367802 4.242641 4.242641 
C 5.367802 3.117479 6 1.591219 6 0 
C 6 -1.591219 5.367802 -3.117479 4.242641 -4.242641 
C 3.117479 -5.367802 1.591219 -6 0 -6 
C -1.591219 -6 -3.117479 -5.367802 -4.242641 -4.242641 
C -5.367802 -3.117479 -6 -1.591219 -6 0 
C -6 1.591219 -5.367802 3.117479 -4.242641 4.242641 
C -3.117479 5.367802 -1.591219 6 0 6 
z
" style="stroke: #000080; stroke-width: 1.5"/>
    </defs>
    <g>
     <use xlink:href="#me1dc392d4f" x="161.609678" y="285.822494" style="fill-opacity: 0; stroke: #000080; stroke-width: 1.5"/>
     <use xlink:href="#me1dc392d4f" x="261.715323" y="252.486776" style="fill-opacity: 0; stroke: #000080; stroke-width: 1.5"/>
     <use xlink:href="#me1dc392d4f" x="319.782636" y="149.997176" style="fill-opacity: 0; stroke: #000080; stroke-width: 1.5"/>
     <use xlink:href="#me1dc392d4f" x="360.368153" y="30.485082" style="fill-opacity: 0; stroke: #000080; stroke-width: 1.5"/>
     <use xlink:href="#me1dc392d4f" x="360.8064" y="30.485082" style="fill-opacity: 0; stroke: #000080; stroke-width: 1.5"/>
    </g>
   </g>
   <g id="line2d_37">
    <path style="fill: none; stroke: #000080; stroke-width: 1.5; stroke-linecap: square"/>
    <g/>
   </g>
   <g id="line2d_38">
    <path d="M 304.540012 187.943153 
" clip-path="url(#p1be7f78ea3)" style="fill: none; stroke: #000080; stroke-width: 1.5; stroke-linecap: square"/>
    <defs>
     <path id="m1eb07ce618" d="M -12 12 
L 12 -12 
M -12 -12 
L 12 12 
" style="stroke: #000080"/>
    </defs>
    <g clip-path="url(#p1be7f78ea3)">
     <use xlink:href="#m1eb07ce618" x="304.540012" y="187.943153" style="fill: #000080; stroke: #000080"/>
    </g>
   </g>
   <g id="line2d_39">
    <defs>
     <path id="m37cee778df" d="M 0 1.5 
C 0.397805 1.5 0.77937 1.341951 1.06066 1.06066 
C 1.341951 0.77937 1.5 0.397805 1.5 0 
C 1.5 -0.397805 1.341951 -0.77937 1.06066 -1.06066 
C 0.77937 -1.341951 0.397805 -1.5 0 -1.5 
C -0.397805 -1.5 -0.77937 -1.341951 -1.06066 -1.06066 
C -1.341951 -0.77937 -1.5 -0.397805 -1.5 0 
C -1.5 0.397805 -1.341951 0.77937 -1.06066 1.06066 
C -0.77937 1.341951 -0.397805 1.5 0 1.5 
z
" style="stroke: #ff00ff"/>
    </defs>
    <g>
     <use xlink:href="#m37cee778df" x="353.040355" y="27.648" style="fill: #ff00ff; stroke: #ff00ff"/>
     <use xlink:href="#m37cee778df" x="353.040355" y="27.648" style="fill: #ff00ff; stroke: #ff00ff"/>
    </g>
   </g>
   <g id="line2d_40">
    <path d="M 79.480672 298.944 
L 79.480672 298.589365 
L 98.077987 298.589365 
L 98.077987 298.234729 
L 99.550033 298.234729 
L 99.550033 297.880094 
L 100.535156 297.880094 
L 100.535156 297.525459 
L 102.011329 297.525459 
L 102.011329 297.170824 
L 103.380045 297.170824 
L 103.380045 296.816188 
L 103.707211 296.816188 
L 103.707211 296.461553 
L 104.344952 296.461553 
L 104.344952 296.106918 
L 105.850679 296.106918 
L 105.850679 295.752282 
L 107.378656 295.752282 
L 107.378656 295.397647 
L 108.29012 295.397647 
L 108.29012 295.043012 
L 108.791791 295.043012 
L 108.791791 294.688376 
L 112.180244 294.688376 
L 112.180244 294.333741 
L 113.088217 294.333741 
L 113.088217 293.979106 
L 115.139028 293.979106 
L 115.139028 293.624471 
L 116.336531 293.624471 
L 116.336531 292.9152 
L 117.384126 292.9152 
L 117.384126 292.560565 
L 119.177058 292.560565 
L 119.177058 292.205929 
L 120.28394 292.205929 
L 120.28394 291.851294 
L 121.954321 291.851294 
L 121.954321 291.142024 
L 122.854567 291.142024 
L 122.854567 290.787388 
L 123.145323 290.787388 
L 123.145323 290.432753 
L 123.431654 290.432753 
L 123.431654 290.078118 
L 126.661432 290.078118 
L 126.661432 289.723482 
L 135.776169 289.723482 
L 135.776169 289.368847 
L 140.219905 289.368847 
L 140.219905 289.014212 
L 143.225848 289.014212 
L 143.225848 288.659576 
L 149.623325 288.659576 
L 149.623325 288.304941 
L 149.875833 288.304941 
L 149.91759 287.595671 
L 150.452162 287.595671 
L 150.452162 287.241035 
L 153.536404 287.241035 
L 153.536404 286.8864 
L 153.787077 286.8864 
L 153.787077 286.531765 
L 154.757642 286.531765 
L 154.86483 285.822494 
L 159.113741 285.822494 
L 159.113741 285.467859 
L 160.00474 285.467859 
L 160.00474 285.113224 
L 161.23253 285.113224 
L 161.23253 284.758588 
L 162.718906 284.758588 
L 162.810208 283.694682 
L 163.477818 283.694682 
L 163.545315 282.985412 
L 164.497753 282.985412 
L 164.55531 282.276141 
L 165.604634 282.276141 
L 165.604634 281.921506 
L 166.877116 281.921506 
L 166.877116 281.566871 
L 167.504319 281.566871 
L 167.504319 281.212235 
L 168.943582 281.212235 
L 168.943582 280.8576 
L 170.100675 280.8576 
L 170.100675 280.502965 
L 171.0194 280.502965 
L 171.0194 280.148329 
L 171.563924 280.148329 
L 171.563924 279.793694 
L 171.756506 279.793694 
L 171.782615 279.084424 
L 175.15357 279.084424 
L 175.15357 278.729788 
L 183.588576 278.729788 
L 183.588576 278.375153 
L 183.867408 278.375153 
L 183.867408 278.020518 
L 184.510485 278.020518 
L 184.510485 277.665882 
L 185.204877 277.665882 
L 185.204877 277.311247 
L 185.895095 277.311247 
L 185.895095 276.956612 
L 186.222862 276.956612 
L 186.222862 276.601976 
L 187.29754 276.601976 
L 187.29754 276.247341 
L 188.130846 276.247341 
L 188.130846 275.892706 
L 188.484905 275.892706 
L 188.484905 275.538071 
L 192.769709 275.538071 
L 192.769709 275.183435 
L 192.908844 275.183435 
L 192.908844 274.8288 
L 193.250856 274.8288 
L 193.250856 274.474165 
L 193.718649 274.474165 
L 193.793021 273.764894 
L 202.092528 273.764894 
L 202.092528 273.410259 
L 206.168097 273.410259 
L 206.168097 273.055624 
L 209.480278 273.055624 
L 209.480278 272.700988 
L 214.262003 272.700988 
L 214.262003 272.346353 
L 214.466371 272.346353 
L 214.531911 271.637082 
L 214.620878 271.637082 
L 214.620878 271.282447 
L 214.797118 271.282447 
L 214.797118 270.927812 
L 217.017218 270.927812 
L 217.017218 270.573176 
L 217.388527 270.573176 
L 217.388527 270.218541 
L 217.530438 270.218541 
L 217.530438 269.863906 
L 217.808076 269.863906 
L 217.808076 269.509271 
L 218.027051 269.509271 
L 218.027051 269.154635 
L 232.929598 269.154635 
L 232.929598 268.8 
L 233.562754 268.8 
L 233.562754 268.445365 
L 234.627842 268.445365 
L 234.627842 268.090729 
L 234.775846 268.090729 
L 234.775846 267.736094 
L 235.006032 267.736094 
L 235.104321 266.317553 
L 235.163527 266.317553 
L 235.163527 265.962918 
L 235.438665 265.962918 
L 235.549246 265.253647 
L 235.600199 265.253647 
L 235.707802 264.544376 
L 235.784844 264.544376 
L 235.860851 263.480471 
L 236.115522 263.480471 
L 236.115522 263.125835 
L 236.288576 263.125835 
L 236.357804 262.416565 
L 237.235459 262.416565 
L 237.235459 262.061929 
L 237.446599 262.061929 
L 237.446599 261.707294 
L 245.348776 261.707294 
L 245.348776 261.352659 
L 245.460436 261.352659 
L 245.568081 260.643388 
L 245.789112 260.643388 
L 245.789112 260.288753 
L 259.910431 260.288753 
L 259.910431 259.934118 
L 260.061578 259.934118 
L 260.061578 259.579482 
L 268.319884 259.579482 
L 268.319884 259.224847 
L 272.736756 259.224847 
L 272.736756 258.870212 
L 272.894852 258.870212 
L 272.972602 258.160941 
L 273.046218 258.160941 
L 273.153343 257.451671 
L 273.217528 257.451671 
L 273.293998 256.033129 
L 273.333524 256.033129 
L 273.410446 254.614588 
L 273.446012 254.614588 
L 273.546787 252.841412 
L 273.56102 252.841412 
L 273.661801 251.422871 
L 273.695854 251.422871 
L 273.785434 249.649694 
L 273.831453 249.649694 
L 273.93139 248.231153 
L 273.967489 248.231153 
L 274.077263 246.457976 
L 274.099696 246.457976 
L 274.205154 244.6848 
L 274.221206 244.6848 
L 274.311537 243.266259 
L 278.072919 243.266259 
L 278.182851 241.847718 
L 278.186849 241.847718 
L 278.261376 241.138447 
L 279.501595 241.138447 
L 279.608681 238.301365 
L 280.065274 238.301365 
L 280.152238 235.818918 
L 280.652459 235.818918 
L 280.75635 234.045741 
L 280.765073 234.045741 
L 280.784134 232.981835 
L 281.939457 232.981835 
L 281.939457 232.6272 
L 282.975006 232.6272 
L 283.044285 231.563294 
L 283.149082 231.563294 
L 283.242567 230.499388 
L 283.266495 230.499388 
L 283.354827 228.371576 
L 283.380977 228.371576 
L 283.477427 224.115953 
L 283.493907 224.115953 
L 283.600624 219.860329 
L 283.611461 219.860329 
L 283.699393 216.313976 
L 285.077583 216.313976 
L 285.102709 215.604706 
L 289.374387 215.604706 
L 289.374387 214.895435 
L 289.546937 214.895435 
L 289.644748 211.703718 
L 289.662925 211.703718 
L 289.767997 208.512 
L 289.788336 208.512 
L 289.892866 204.611012 
L 289.915882 204.611012 
L 289.997688 202.128565 
L 290.104106 202.128565 
L 290.146095 201.419294 
L 290.819181 201.419294 
L 290.819181 201.064659 
L 298.143715 201.064659 
L 298.143715 200.710024 
L 298.950916 200.710024 
L 298.952513 199.291482 
L 300.089901 199.291482 
L 300.19966 196.4544 
L 300.967395 196.4544 
L 301.063833 194.681224 
L 301.081466 194.681224 
L 301.159766 193.617318 
L 303.224318 193.617318 
L 303.335175 189.361694 
L 303.347085 189.361694 
L 303.452676 181.914353 
L 303.458365 181.914353 
L 303.569361 174.112376 
L 303.585064 174.112376 
L 303.693465 165.955765 
L 303.70109 165.955765 
L 303.806389 161.700141 
L 303.815825 161.700141 
L 303.917772 154.607435 
L 303.927376 154.607435 
L 303.985499 150.706447 
L 304.138973 150.706447 
L 304.138973 150.351812 
L 304.979578 150.351812 
L 305.029323 149.287906 
L 306.197435 149.287906 
L 306.197435 148.933271 
L 307.772059 148.933271 
L 307.876283 144.323012 
L 307.885987 144.323012 
L 307.970783 142.904471 
L 307.997662 142.904471 
L 308.028641 142.1952 
L 309.772713 142.1952 
L 309.871779 137.230306 
L 309.929573 137.230306 
L 309.950507 135.457129 
L 310.482162 135.457129 
L 310.506218 133.329318 
L 310.903961 133.329318 
L 310.903961 132.974682 
L 311.483073 132.974682 
L 311.591519 128.364424 
L 311.602561 128.364424 
L 311.708263 126.591247 
L 311.733477 126.591247 
L 311.733477 126.236612 
L 312.27741 126.236612 
L 312.27741 125.881976 
L 314.971296 125.881976 
L 314.971296 125.527341 
L 315.861352 125.527341 
L 315.861352 125.172706 
L 315.990277 125.172706 
L 315.990277 124.818071 
L 316.957277 124.818071 
L 317.067218 117.725365 
L 317.072041 117.725365 
L 317.179815 111.696565 
L 317.204796 111.696565 
L 317.306564 104.958494 
L 317.425873 104.958494 
L 317.425873 104.603859 
L 317.559842 104.603859 
L 317.626698 103.539953 
L 317.683298 103.539953 
L 317.72115 102.476047 
L 319.248706 102.476047 
L 319.336192 100.702871 
L 319.672583 100.702871 
L 319.766731 99.284329 
L 320.357317 99.284329 
L 320.451585 97.156518 
L 320.518432 97.156518 
L 320.518432 96.801882 
L 320.790659 96.801882 
L 320.844693 95.737976 
L 321.40044 95.737976 
L 321.506062 93.255529 
L 321.557928 93.255529 
L 321.557928 92.900894 
L 321.780301 92.900894 
L 321.80577 92.191624 
L 324.762491 92.191624 
L 324.869441 86.872094 
L 324.87397 86.872094 
L 324.977031 80.488659 
L 324.986373 80.488659 
L 325.044498 77.651576 
L 325.112165 77.651576 
L 325.120337 76.587671 
L 325.280526 76.587671 
L 325.283737 75.8784 
L 325.564821 75.8784 
L 325.564821 75.523765 
L 326.372954 75.523765 
L 326.408963 74.459859 
L 326.62582 74.459859 
L 326.71555 73.395953 
L 326.924357 73.395953 
L 326.924357 73.041318 
L 327.097885 73.041318 
L 327.17765 70.204235 
L 327.423971 70.204235 
L 327.47009 69.140329 
L 327.818001 69.140329 
L 327.86147 67.367153 
L 328.062598 67.367153 
L 328.089458 66.657882 
L 330.047214 66.657882 
L 330.047214 66.303247 
L 330.277163 66.303247 
L 330.378552 63.466165 
L 330.393835 63.466165 
L 330.485316 58.501271 
L 330.524253 58.501271 
L 330.597349 57.792 
L 330.665967 57.792 
L 330.701666 57.082729 
L 331.427148 57.082729 
L 331.525756 56.018824 
L 331.877278 56.018824 
L 331.903153 55.309553 
L 332.045449 55.309553 
L 332.140795 53.181741 
L 332.586276 53.181741 
L 332.650059 51.7632 
L 332.702238 51.7632 
L 332.798647 50.699294 
L 332.845688 50.699294 
L 332.883332 49.635388 
L 334.554319 49.635388 
L 334.638545 45.379765 
L 334.698742 45.379765 
L 334.808301 44.315859 
L 334.840761 44.315859 
L 334.854451 43.606588 
L 335.53374 43.606588 
L 335.588633 42.897318 
L 336.044817 42.897318 
L 336.143206 41.833412 
L 336.162883 41.833412 
L 336.202028 40.414871 
L 336.40253 40.414871 
L 336.478561 39.350965 
L 338.082156 39.350965 
L 338.082156 38.996329 
L 338.229168 38.996329 
L 338.229168 38.641694 
L 338.382978 38.641694 
L 338.414104 37.932424 
L 338.796223 37.932424 
L 338.796223 37.577788 
L 338.973671 37.577788 
L 338.973671 37.223153 
L 339.140533 37.223153 
L 339.238947 36.513882 
L 339.350727 36.513882 
L 339.350727 36.159247 
L 339.646247 36.159247 
L 339.702901 35.449976 
L 339.855913 35.449976 
L 339.88437 34.740706 
L 341.060884 34.740706 
L 341.10582 33.322165 
L 341.231294 33.322165 
L 341.231294 32.967529 
L 341.618729 32.967529 
L 341.618729 32.612894 
L 341.937653 32.612894 
L 341.937653 32.258259 
L 343.597013 32.258259 
L 343.597013 31.903624 
L 343.766049 31.903624 
L 343.766049 31.548988 
L 344.10166 31.548988 
L 344.10166 31.194353 
L 345.732996 31.194353 
L 345.787516 30.485082 
L 345.903969 30.485082 
L 345.926166 29.775812 
L 346.631964 29.775812 
L 346.728575 29.066541 
L 347.812288 29.066541 
L 347.812288 28.711906 
L 348.207856 28.711906 
L 348.207856 28.357271 
L 351.345027 28.357271 
L 351.345027 28.002635 
L 353.040355 28.002635 
L 353.040355 27.648 
L 360.8064 27.648 
L 360.8064 27.648 
" style="fill: none; stroke: #ff00ff; stroke-width: 1.5; stroke-linecap: square"/>
   </g>
   <g id="line2d_41">
    <defs>
     <path id="m4629bb80d7" d="M -0 8.485281 
L 5.091169 0 
L 0 -8.485281 
L -5.091169 -0 
z
" style="stroke: #ff00ff; stroke-width: 1.5; stroke-linejoin: miter"/>
    </defs>
    <g>
     <use xlink:href="#m4629bb80d7" x="209.480278" y="272.700988" style="fill-opacity: 0; stroke: #ff00ff; stroke-width: 1.5; stroke-linejoin: miter"/>
     <use xlink:href="#m4629bb80d7" x="298.143715" y="200.710024" style="fill-opacity: 0; stroke: #ff00ff; stroke-width: 1.5; stroke-linejoin: miter"/>
     <use xlink:href="#m4629bb80d7" x="327.818001" y="68.785694" style="fill-opacity: 0; stroke: #ff00ff; stroke-width: 1.5; stroke-linejoin: miter"/>
     <use xlink:href="#m4629bb80d7" x="353.040355" y="27.648" style="fill-opacity: 0; stroke: #ff00ff; stroke-width: 1.5; stroke-linejoin: miter"/>
     <use xlink:href="#m4629bb80d7" x="360.8064" y="27.648" style="fill-opacity: 0; stroke: #ff00ff; stroke-width: 1.5; stroke-linejoin: miter"/>
    </g>
   </g>
   <g id="line2d_42">
    <path style="fill: none; stroke: #ff00ff; stroke-width: 1.5; stroke-linecap: square"/>
    <g/>
   </g>
   <g id="line2d_43">
    <path d="M 304.504253 150.351812 
" clip-path="url(#p1be7f78ea3)" style="fill: none; stroke: #ff00ff; stroke-width: 1.5; stroke-linecap: square"/>
    <defs>
     <path id="mef7d9edd1c" d="M -12 12 
L 12 -12 
M -12 -12 
L 12 12 
" style="stroke: #ff00ff"/>
    </defs>
    <g clip-path="url(#p1be7f78ea3)">
     <use xlink:href="#mef7d9edd1c" x="304.504253" y="150.351812" style="fill: #ff00ff; stroke: #ff00ff"/>
    </g>
   </g>
   <g id="line2d_44">
    <defs>
     <path id="m5be5b30173" d="M 0 1.5 
C 0.397805 1.5 0.77937 1.341951 1.06066 1.06066 
C 1.341951 0.77937 1.5 0.397805 1.5 0 
C 1.5 -0.397805 1.341951 -0.77937 1.06066 -1.06066 
C 0.77937 -1.341951 0.397805 -1.5 0 -1.5 
C -0.397805 -1.5 -0.77937 -1.341951 -1.06066 -1.06066 
C -1.341951 -0.77937 -1.5 -0.397805 -1.5 0 
C -1.5 0.397805 -1.341951 0.77937 -1.06066 1.06066 
C -0.77937 1.341951 -0.397805 1.5 0 1.5 
z
" style="stroke: #ff7500"/>
    </defs>
    <g>
     <use xlink:href="#m5be5b30173" x="373.948803" y="224.470588" style="fill: #ff7500; stroke: #ff7500"/>
     <use xlink:href="#m5be5b30173" x="373.948803" y="224.470588" style="fill: #ff7500; stroke: #ff7500"/>
    </g>
   </g>
   <g id="line2d_45">
    <path d="M 27.323974 298.944 
L 27.323974 298.589365 
L 87.495981 298.589365 
L 87.495981 297.880094 
L 96.717523 297.880094 
L 96.717523 297.525459 
L 99.346662 297.525459 
L 99.346662 297.170824 
L 101.471247 297.170824 
L 101.471247 296.816188 
L 101.833019 296.816188 
L 101.833019 296.461553 
L 104.028784 296.461553 
L 104.028784 296.106918 
L 104.961779 296.106918 
L 104.961779 295.752282 
L 106.279859 295.752282 
L 106.279859 295.397647 
L 107.774703 295.397647 
L 107.774703 295.043012 
L 109.159456 295.043012 
L 109.159456 294.688376 
L 114.141556 294.688376 
L 114.234452 293.979106 
L 115.917548 293.979106 
L 115.917548 293.624471 
L 118.152051 293.624471 
L 118.152051 293.269835 
L 118.962067 293.269835 
L 118.962067 292.9152 
L 122.319605 292.9152 
L 122.319605 292.560565 
L 123.825333 292.560565 
L 123.825333 292.205929 
L 126.517282 292.205929 
L 126.517282 291.851294 
L 129.906795 291.851294 
L 129.906795 291.496659 
L 132.534182 291.496659 
L 132.534182 291.142024 
L 132.881269 291.142024 
L 132.881269 290.787388 
L 133.323114 290.787388 
L 133.323114 290.432753 
L 137.140746 290.432753 
L 137.140746 290.078118 
L 137.761112 290.078118 
L 137.761112 289.723482 
L 139.580558 289.723482 
L 139.580558 289.368847 
L 140.657135 289.368847 
L 140.657135 289.014212 
L 144.2304 289.014212 
L 144.2304 288.659576 
L 144.417581 288.659576 
L 144.417581 288.304941 
L 147.628773 288.304941 
L 147.628773 287.950306 
L 156.185481 287.950306 
L 156.185481 287.595671 
L 159.552023 287.595671 
L 159.552023 287.241035 
L 160.1667 287.241035 
L 160.1667 286.8864 
L 161.854518 286.8864 
L 161.854518 286.531765 
L 162.613005 286.531765 
L 162.613005 286.177129 
L 163.464289 286.177129 
L 163.464289 285.822494 
L 166.199045 285.822494 
L 166.199045 285.467859 
L 167.400311 285.467859 
L 167.493397 284.758588 
L 167.742992 284.758588 
L 167.742992 284.403953 
L 168.047747 284.403953 
L 168.047747 284.049318 
L 168.857418 284.049318 
L 168.857418 283.694682 
L 169.909499 283.694682 
L 169.909499 283.340047 
L 170.100675 283.340047 
L 170.138678 282.630776 
L 170.602722 282.630776 
L 170.602722 282.276141 
L 171.466889 282.276141 
L 171.466889 281.921506 
L 172.233753 281.921506 
L 172.233753 281.566871 
L 173.608724 281.566871 
L 173.608724 281.212235 
L 176.302778 281.212235 
L 176.302778 280.8576 
L 177.775595 280.8576 
L 177.775595 280.502965 
L 181.694851 280.502965 
L 181.694851 280.148329 
L 184.832657 280.148329 
L 184.832657 279.793694 
L 186.17841 279.793694 
L 186.17841 279.439059 
L 186.724693 279.439059 
L 186.724693 279.084424 
L 187.178988 279.084424 
L 187.178988 278.729788 
L 187.603826 278.729788 
L 187.603826 278.375153 
L 188.072402 278.375153 
L 188.172741 277.311247 
L 188.746144 277.311247 
L 188.746144 276.956612 
L 189.630401 276.956612 
L 189.630401 276.601976 
L 190.652806 276.601976 
L 190.652806 276.247341 
L 191.514649 276.247341 
L 191.514649 275.892706 
L 192.300785 275.892706 
L 192.300785 275.538071 
L 192.527328 275.538071 
L 192.527328 275.183435 
L 193.30772 275.183435 
L 193.30772 274.8288 
L 193.950261 274.8288 
L 193.950261 274.474165 
L 194.337049 274.474165 
L 194.337049 274.119529 
L 194.864511 274.119529 
L 194.864511 273.764894 
L 195.008019 273.764894 
L 195.008019 273.410259 
L 195.757058 273.410259 
L 195.757058 273.055624 
L 198.828207 273.055624 
L 198.828207 272.700988 
L 199.482738 272.700988 
L 199.482738 272.346353 
L 199.698908 272.346353 
L 199.698908 271.991718 
L 200.061178 271.991718 
L 200.061178 271.637082 
L 203.468995 271.637082 
L 203.468995 271.282447 
L 204.181519 271.282447 
L 204.181519 270.927812 
L 205.441224 270.927812 
L 205.441224 270.573176 
L 207.490596 270.573176 
L 207.490596 270.218541 
L 207.818076 270.218541 
L 207.818076 269.863906 
L 208.396279 269.863906 
L 208.396279 269.509271 
L 209.220576 269.509271 
L 209.220576 269.154635 
L 209.651248 269.154635 
L 209.651248 268.8 
L 211.259777 268.8 
L 211.259777 268.445365 
L 230.017871 268.445365 
L 230.017871 268.090729 
L 230.270935 268.090729 
L 230.270935 267.736094 
L 230.389548 267.736094 
L 230.452325 267.026824 
L 230.640549 267.026824 
L 230.640549 266.672188 
L 230.785781 266.672188 
L 230.785781 266.317553 
L 235.986755 266.317553 
L 235.986755 265.962918 
L 236.950337 265.962918 
L 236.979982 265.253647 
L 237.254082 265.253647 
L 237.347722 264.544376 
L 238.447803 264.544376 
L 238.447803 264.189741 
L 238.777324 264.189741 
L 238.88004 263.480471 
L 239.018201 263.480471 
L 239.115369 262.7712 
L 239.220483 262.7712 
L 239.220483 262.416565 
L 252.115505 262.416565 
L 252.115505 262.061929 
L 252.350147 262.061929 
L 252.350147 261.707294 
L 252.474998 261.707294 
L 252.474998 261.352659 
L 253.038165 261.352659 
L 253.038165 260.998024 
L 253.161421 260.998024 
L 253.161421 260.643388 
L 253.308189 260.643388 
L 253.308189 260.288753 
L 298.203199 260.288753 
L 298.203199 259.934118 
L 298.40424 259.934118 
L 298.474404 258.870212 
L 298.956585 258.870212 
L 298.956585 258.515576 
L 299.365189 258.515576 
L 299.432931 257.806306 
L 299.704961 257.806306 
L 299.704961 257.451671 
L 299.955833 257.451671 
L 300.018518 256.387765 
L 300.314244 256.387765 
L 300.397173 255.323859 
L 300.517396 255.323859 
L 300.517396 254.969224 
L 300.774808 254.969224 
L 300.774808 254.614588 
L 301.170457 254.614588 
L 301.170457 254.259953 
L 301.289721 254.259953 
L 301.289721 253.905318 
L 310.241888 253.905318 
L 310.241888 253.550682 
L 310.776454 253.550682 
L 310.776454 253.196047 
L 310.941794 253.196047 
L 310.991383 252.486776 
L 311.148504 252.486776 
L 311.148504 252.132141 
L 311.352842 252.132141 
L 311.352842 251.777506 
L 311.657991 251.777506 
L 311.657991 251.422871 
L 311.914488 251.422871 
L 311.951245 250.358965 
L 312.194431 250.358965 
L 312.194431 250.004329 
L 312.46831 250.004329 
L 312.46831 249.649694 
L 312.831882 249.649694 
L 312.845183 248.940424 
L 313.236912 248.940424 
L 313.236912 248.585788 
L 313.409804 248.585788 
L 313.409804 248.231153 
L 318.215605 248.231153 
L 318.215605 247.876518 
L 318.652462 247.876518 
L 318.652462 247.521882 
L 318.794681 247.521882 
L 318.794681 247.167247 
L 318.933842 247.167247 
L 318.933842 246.812612 
L 319.12833 246.812612 
L 319.12833 246.457976 
L 319.585717 246.457976 
L 319.656625 245.748706 
L 319.733303 245.748706 
L 319.780479 245.039435 
L 320.137453 245.039435 
L 320.137453 244.6848 
L 320.304985 244.6848 
L 320.313821 243.975529 
L 320.81343 243.975529 
L 320.81343 243.620894 
L 324.295431 243.620894 
L 324.295431 243.266259 
L 324.962296 243.266259 
L 324.962296 242.911624 
L 325.104966 242.911624 
L 325.104966 242.556988 
L 325.228662 242.556988 
L 325.228662 242.202353 
L 325.349408 242.202353 
L 325.380778 241.493082 
L 325.55074 241.493082 
L 325.55074 241.138447 
L 328.075241 241.138447 
L 328.075241 240.783812 
L 328.249787 240.783812 
L 328.249787 240.429176 
L 328.511883 240.429176 
L 328.56579 239.719906 
L 328.791252 239.719906 
L 328.791252 239.365271 
L 328.962198 239.365271 
L 328.962198 239.010635 
L 329.08079 239.010635 
L 329.162551 237.946729 
L 329.260009 237.946729 
L 329.260009 237.592094 
L 332.926375 237.592094 
L 332.947272 236.882824 
L 333.053283 236.882824 
L 333.053283 236.528188 
L 333.367987 236.528188 
L 333.367987 236.173553 
L 335.374304 236.173553 
L 335.374304 235.818918 
L 335.550352 235.818918 
L 335.559775 235.109647 
L 335.944531 235.109647 
L 335.944531 234.755012 
L 337.235218 234.755012 
L 337.235218 234.400376 
L 337.631842 234.400376 
L 337.631842 234.045741 
L 337.835781 234.045741 
L 337.835781 233.691106 
L 340.010576 233.691106 
L 340.010576 233.336471 
L 340.911089 233.336471 
L 340.911089 232.981835 
L 342.21171 232.981835 
L 342.21171 232.6272 
L 342.486207 232.6272 
L 342.489898 231.917929 
L 342.812568 231.917929 
L 342.812568 231.563294 
L 343.96278 231.563294 
L 343.96278 231.208659 
L 344.462456 231.208659 
L 344.462456 230.854024 
L 344.577357 230.854024 
L 344.577357 230.499388 
L 345.338027 230.499388 
L 345.338027 230.144753 
L 345.660051 230.144753 
L 345.660051 229.790118 
L 347.211093 229.790118 
L 347.211093 229.435482 
L 347.389311 229.435482 
L 347.389311 229.080847 
L 348.232643 229.080847 
L 348.232643 228.726212 
L 349.900377 228.726212 
L 349.953847 228.016941 
L 351.835818 228.016941 
L 351.835818 227.662306 
L 354.815401 227.662306 
L 354.815401 227.307671 
L 355.169188 227.307671 
L 355.169188 226.953035 
L 356.570173 226.953035 
L 356.570173 226.5984 
L 360.8064 226.5984 
L 360.8064 226.5984 
" style="fill: none; stroke: #ff7500; stroke-width: 1.5; stroke-linecap: square"/>
   </g>
   <g id="line2d_46">
    <defs>
     <path id="md00a7a230c" d="M 0 -6 
L -1.347084 -1.854102 
L -5.706339 -1.854102 
L -2.179628 0.708204 
L -3.526712 4.854102 
L -0 2.291796 
L 3.526712 4.854102 
L 2.179628 0.708204 
L 5.706339 -1.854102 
L 1.347084 -1.854102 
z
" style="stroke: #ff7500; stroke-width: 1.5; stroke-linejoin: bevel"/>
    </defs>
    <g>
     <use xlink:href="#md00a7a230c" x="132.534182" y="291.142024" style="fill-opacity: 0; stroke: #ff7500; stroke-width: 1.5; stroke-linejoin: bevel"/>
     <use xlink:href="#md00a7a230c" x="199.698908" y="272.346353" style="fill-opacity: 0; stroke: #ff7500; stroke-width: 1.5; stroke-linejoin: bevel"/>
     <use xlink:href="#md00a7a230c" x="253.308189" y="260.643388" style="fill-opacity: 0; stroke: #ff7500; stroke-width: 1.5; stroke-linejoin: bevel"/>
     <use xlink:href="#md00a7a230c" x="348.232643" y="228.726212" style="fill-opacity: 0; stroke: #ff7500; stroke-width: 1.5; stroke-linejoin: bevel"/>
     <use xlink:href="#md00a7a230c" x="356.570173" y="226.5984" style="fill-opacity: 0; stroke: #ff7500; stroke-width: 1.5; stroke-linejoin: bevel"/>
     <use xlink:href="#md00a7a230c" x="360.8064" y="226.5984" style="fill-opacity: 0; stroke: #ff7500; stroke-width: 1.5; stroke-linejoin: bevel"/>
    </g>
   </g>
   <g id="line2d_47">
    <path style="fill: none; stroke: #ff7500; stroke-width: 1.5; stroke-linecap: square"/>
    <g/>
   </g>
   <g id="line2d_48">
    <path d="M 299.269041 258.515576 
" clip-path="url(#p1be7f78ea3)" style="fill: none; stroke: #ff7500; stroke-width: 1.5; stroke-linecap: square"/>
    <defs>
     <path id="m97b2362154" d="M -12 12 
L 12 -12 
M -12 -12 
L 12 12 
" style="stroke: #ff7500"/>
    </defs>
    <g clip-path="url(#p1be7f78ea3)">
     <use xlink:href="#m97b2362154" x="299.269041" y="258.515576" style="fill: #ff7500; stroke: #ff7500"/>
    </g>
   </g>
   <g id="line2d_49">
    <path d="M 360.8064 226.5984 
L 380.514816 293.51808 
" style="fill: none; stroke: #ff7500; stroke-width: 1.5; stroke-linecap: square"/>
    <g>
     <use xlink:href="#md00a7a230c" x="360.8064" y="226.5984" style="fill-opacity: 0; stroke: #ff7500; stroke-width: 1.5; stroke-linejoin: bevel"/>
     <use xlink:href="#md00a7a230c" x="380.514816" y="293.51808" style="fill-opacity: 0; stroke: #ff7500; stroke-width: 1.5; stroke-linejoin: bevel"/>
    </g>
   </g>
   <g id="line2d_50">
    <path d="M 360.8064 30.485082 
L 380.514816 206.70336 
" style="fill: none; stroke: #000080; stroke-width: 1.5; stroke-linecap: square"/>
    <g>
     <use xlink:href="#me1dc392d4f" x="360.8064" y="30.485082" style="fill-opacity: 0; stroke: #000080; stroke-width: 1.5"/>
     <use xlink:href="#me1dc392d4f" x="380.514816" y="206.70336" style="fill-opacity: 0; stroke: #000080; stroke-width: 1.5"/>
    </g>
   </g>
   <g id="line2d_51">
    <path d="M 360.8064 27.648 
L 380.514816 33.07392 
" style="fill: none; stroke: #ff00ff; stroke-width: 1.5; stroke-linecap: square"/>
    <g>
     <use xlink:href="#m4629bb80d7" x="360.8064" y="27.648" style="fill-opacity: 0; stroke: #ff00ff; stroke-width: 1.5; stroke-linejoin: miter"/>
     <use xlink:href="#m4629bb80d7" x="380.514816" y="33.07392" style="fill-opacity: 0; stroke: #ff00ff; stroke-width: 1.5; stroke-linejoin: miter"/>
    </g>
   </g>
   <g id="line2d_52">
    <path d="M 360.8064 298.944 
L 360.8064 27.648 
" style="fill: none; stroke: #000000; stroke-width: 1.5; stroke-linecap: square"/>
   </g>
   <g id="patch_3">
    <path d="M 57.6 298.944 
L 360.8064 298.944 
" style="fill: none; stroke: #000000; stroke-width: 0.8; stroke-linejoin: miter; stroke-linecap: square"/>
   </g>
   <g id="patch_4">
    <path d="M 57.6 27.648 
L 360.8064 27.648 
" style="fill: none; stroke: #000000; stroke-width: 0.8; stroke-linejoin: miter; stroke-linecap: square"/>
   </g>
   <g id="text_13">
    <!-- CMA-ES-20 -->
    <g transform="translate(386.578944 297.381205)scale(0.14 -0.14)">
     <defs>
      <path id="DejaVuSans-43" d="M 4122 4306 
L 4122 3641 
Q 3803 3938 3442 4084 
Q 3081 4231 2675 4231 
Q 1875 4231 1450 3742 
Q 1025 3253 1025 2328 
Q 1025 1406 1450 917 
Q 1875 428 2675 428 
Q 3081 428 3442 575 
Q 3803 722 4122 1019 
L 4122 359 
Q 3791 134 3420 21 
Q 3050 -91 2638 -91 
Q 1578 -91 968 557 
Q 359 1206 359 2328 
Q 359 3453 968 4101 
Q 1578 4750 2638 4750 
Q 3056 4750 3426 4639 
Q 3797 4528 4122 4306 
z
" transform="scale(0.015625)"/>
      <path id="DejaVuSans-4d" d="M 628 4666 
L 1569 4666 
L 2759 1491 
L 3956 4666 
L 4897 4666 
L 4897 0 
L 4281 0 
L 4281 4097 
L 3078 897 
L 2444 897 
L 1241 4097 
L 1241 0 
L 628 0 
L 628 4666 
z
" transform="scale(0.015625)"/>
      <path id="DejaVuSans-41" d="M 2188 4044 
L 1331 1722 
L 3047 1722 
L 2188 4044 
z
M 1831 4666 
L 2547 4666 
L 4325 0 
L 3669 0 
L 3244 1197 
L 1141 1197 
L 716 0 
L 50 0 
L 1831 4666 
z
" transform="scale(0.015625)"/>
      <path id="DejaVuSans-45" d="M 628 4666 
L 3578 4666 
L 3578 4134 
L 1259 4134 
L 1259 2753 
L 3481 2753 
L 3481 2222 
L 1259 2222 
L 1259 531 
L 3634 531 
L 3634 0 
L 628 0 
L 628 4666 
z
" transform="scale(0.015625)"/>
      <path id="DejaVuSans-53" d="M 3425 4513 
L 3425 3897 
Q 3066 4069 2747 4153 
Q 2428 4238 2131 4238 
Q 1616 4238 1336 4038 
Q 1056 3838 1056 3469 
Q 1056 3159 1242 3001 
Q 1428 2844 1947 2747 
L 2328 2669 
Q 3034 2534 3370 2195 
Q 3706 1856 3706 1288 
Q 3706 609 3251 259 
Q 2797 -91 1919 -91 
Q 1588 -91 1214 -16 
Q 841 59 441 206 
L 441 856 
Q 825 641 1194 531 
Q 1563 422 1919 422 
Q 2459 422 2753 634 
Q 3047 847 3047 1241 
Q 3047 1584 2836 1778 
Q 2625 1972 2144 2069 
L 1759 2144 
Q 1053 2284 737 2584 
Q 422 2884 422 3419 
Q 422 4038 858 4394 
Q 1294 4750 2059 4750 
Q 2388 4750 2728 4690 
Q 3069 4631 3425 4513 
z
" transform="scale(0.015625)"/>
     </defs>
     <use xlink:href="#DejaVuSans-43"/>
     <use xlink:href="#DejaVuSans-4d" x="69.824219"/>
     <use xlink:href="#DejaVuSans-41" x="156.103516"/>
     <use xlink:href="#DejaVuSans-2d" x="222.261719"/>
     <use xlink:href="#DejaVuSans-45" x="258.345703"/>
     <use xlink:href="#DejaVuSans-53" x="321.529297"/>
     <use xlink:href="#DejaVuSans-2d" x="385.005859"/>
     <use xlink:href="#DejaVuSans-32" x="421.089844"/>
     <use xlink:href="#DejaVuSans-30" x="484.712891"/>
    </g>
   </g>
   <g id="text_14">
    <!-- ddcma0 -->
    <g transform="translate(386.578944 210.566485)scale(0.14 -0.14)">
     <use xlink:href="#DejaVuSans-64"/>
     <use xlink:href="#DejaVuSans-64" x="63.476562"/>
     <use xlink:href="#DejaVuSans-63" x="126.953125"/>
     <use xlink:href="#DejaVuSans-6d" x="181.933594"/>
     <use xlink:href="#DejaVuSans-61" x="279.345703"/>
     <use xlink:href="#DejaVuSans-30" x="340.625"/>
    </g>
   </g>
   <g id="text_15">
    <!-- best 2009 -->
    <g transform="translate(386.578944 123.751765)scale(0.14 -0.14)">
     <defs>
      <path id="DejaVuSans-62" d="M 3116 1747 
Q 3116 2381 2855 2742 
Q 2594 3103 2138 3103 
Q 1681 3103 1420 2742 
Q 1159 2381 1159 1747 
Q 1159 1113 1420 752 
Q 1681 391 2138 391 
Q 2594 391 2855 752 
Q 3116 1113 3116 1747 
z
M 1159 2969 
Q 1341 3281 1617 3432 
Q 1894 3584 2278 3584 
Q 2916 3584 3314 3078 
Q 3713 2572 3713 1747 
Q 3713 922 3314 415 
Q 2916 -91 2278 -91 
Q 1894 -91 1617 61 
Q 1341 213 1159 525 
L 1159 0 
L 581 0 
L 581 4863 
L 1159 4863 
L 1159 2969 
z
" transform="scale(0.015625)"/>
      <path id="DejaVuSans-39" d="M 703 97 
L 703 672 
Q 941 559 1184 500 
Q 1428 441 1663 441 
Q 2288 441 2617 861 
Q 2947 1281 2994 2138 
Q 2813 1869 2534 1725 
Q 2256 1581 1919 1581 
Q 1219 1581 811 2004 
Q 403 2428 403 3163 
Q 403 3881 828 4315 
Q 1253 4750 1959 4750 
Q 2769 4750 3195 4129 
Q 3622 3509 3622 2328 
Q 3622 1225 3098 567 
Q 2575 -91 1691 -91 
Q 1453 -91 1209 -44 
Q 966 3 703 97 
z
M 1959 2075 
Q 2384 2075 2632 2365 
Q 2881 2656 2881 3163 
Q 2881 3666 2632 3958 
Q 2384 4250 1959 4250 
Q 1534 4250 1286 3958 
Q 1038 3666 1038 3163 
Q 1038 2656 1286 2365 
Q 1534 2075 1959 2075 
z
" transform="scale(0.015625)"/>
     </defs>
     <use xlink:href="#DejaVuSans-62"/>
     <use xlink:href="#DejaVuSans-65" x="63.476562"/>
     <use xlink:href="#DejaVuSans-73" x="125"/>
     <use xlink:href="#DejaVuSans-74" x="177.099609"/>
     <use xlink:href="#DejaVuSans-20" x="216.308594"/>
     <use xlink:href="#DejaVuSans-32" x="248.095703"/>
     <use xlink:href="#DejaVuSans-30" x="311.71875"/>
     <use xlink:href="#DejaVuSans-30" x="375.341797"/>
     <use xlink:href="#DejaVuSans-39" x="438.964844"/>
    </g>
   </g>
   <g id="text_16">
    <!-- ddcma1 -->
    <g transform="translate(386.578944 36.937045)scale(0.14 -0.14)">
     <use xlink:href="#DejaVuSans-64"/>
     <use xlink:href="#DejaVuSans-64" x="63.476562"/>
     <use xlink:href="#DejaVuSans-63" x="126.953125"/>
     <use xlink:href="#DejaVuSans-6d" x="181.933594"/>
     <use xlink:href="#DejaVuSans-61" x="279.345703"/>
     <use xlink:href="#DejaVuSans-31" x="340.625"/>
    </g>
   </g>
   <g id="text_17">
    <!-- bbob f24, 10-D -->
    <g transform="translate(60.632064 38.111366)scale(0.102 -0.102)">
     <defs>
      <path id="DejaVuSans-44" d="M 1259 4147 
L 1259 519 
L 2022 519 
Q 2988 519 3436 956 
Q 3884 1394 3884 2338 
Q 3884 3275 3436 3711 
Q 2988 4147 2022 4147 
L 1259 4147 
z
M 628 4666 
L 1925 4666 
Q 3281 4666 3915 4102 
Q 4550 3538 4550 2338 
Q 4550 1131 3912 565 
Q 3275 0 1925 0 
L 628 0 
L 628 4666 
z
" transform="scale(0.015625)"/>
     </defs>
     <use xlink:href="#DejaVuSans-62"/>
     <use xlink:href="#DejaVuSans-62" x="63.476562"/>
     <use xlink:href="#DejaVuSans-6f" x="126.953125"/>
     <use xlink:href="#DejaVuSans-62" x="188.134766"/>
     <use xlink:href="#DejaVuSans-20" x="251.611328"/>
     <use xlink:href="#DejaVuSans-66" x="283.398438"/>
     <use xlink:href="#DejaVuSans-32" x="318.603516"/>
     <use xlink:href="#DejaVuSans-34" x="382.226562"/>
     <use xlink:href="#DejaVuSans-2c" x="445.849609"/>
     <use xlink:href="#DejaVuSans-20" x="477.636719"/>
     <use xlink:href="#DejaVuSans-31" x="509.423828"/>
     <use xlink:href="#DejaVuSans-30" x="573.046875"/>
     <use xlink:href="#DejaVuSans-2d" x="636.669922"/>
     <use xlink:href="#DejaVuSans-44" x="672.753906"/>
    </g>
    <!-- 51 targets: 100..1e-08 -->
    <g transform="translate(60.632064 49.533135)scale(0.102 -0.102)">
     <defs>
      <path id="DejaVuSans-35" d="M 691 4666 
L 3169 4666 
L 3169 4134 
L 1269 4134 
L 1269 2991 
Q 1406 3038 1543 3061 
Q 1681 3084 1819 3084 
Q 2600 3084 3056 2656 
Q 3513 2228 3513 1497 
Q 3513 744 3044 326 
Q 2575 -91 1722 -91 
Q 1428 -91 1123 -41 
Q 819 9 494 109 
L 494 744 
Q 775 591 1075 516 
Q 1375 441 1709 441 
Q 2250 441 2565 725 
Q 2881 1009 2881 1497 
Q 2881 1984 2565 2268 
Q 2250 2553 1709 2553 
Q 1456 2553 1204 2497 
Q 953 2441 691 2322 
L 691 4666 
z
" transform="scale(0.015625)"/>
      <path id="DejaVuSans-3a" d="M 750 794 
L 1409 794 
L 1409 0 
L 750 0 
L 750 794 
z
M 750 3309 
L 1409 3309 
L 1409 2516 
L 750 2516 
L 750 3309 
z
" transform="scale(0.015625)"/>
     </defs>
     <use xlink:href="#DejaVuSans-35"/>
     <use xlink:href="#DejaVuSans-31" x="63.623047"/>
     <use xlink:href="#DejaVuSans-20" x="127.246094"/>
     <use xlink:href="#DejaVuSans-74" x="159.033203"/>
     <use xlink:href="#DejaVuSans-61" x="198.242188"/>
     <use xlink:href="#DejaVuSans-72" x="259.521484"/>
     <use xlink:href="#DejaVuSans-67" x="298.884766"/>
     <use xlink:href="#DejaVuSans-65" x="362.361328"/>
     <use xlink:href="#DejaVuSans-74" x="423.884766"/>
     <use xlink:href="#DejaVuSans-73" x="463.09375"/>
     <use xlink:href="#DejaVuSans-3a" x="515.193359"/>
     <use xlink:href="#DejaVuSans-20" x="548.884766"/>
     <use xlink:href="#DejaVuSans-31" x="580.671875"/>
     <use xlink:href="#DejaVuSans-30" x="644.294922"/>
     <use xlink:href="#DejaVuSans-30" x="707.917969"/>
     <use xlink:href="#DejaVuSans-2e" x="771.541016"/>
     <use xlink:href="#DejaVuSans-2e" x="803.328125"/>
     <use xlink:href="#DejaVuSans-31" x="835.115234"/>
     <use xlink:href="#DejaVuSans-65" x="898.738281"/>
     <use xlink:href="#DejaVuSans-2d" x="960.261719"/>
     <use xlink:href="#DejaVuSans-30" x="996.345703"/>
     <use xlink:href="#DejaVuSans-38" x="1059.96875"/>
    </g>
    <!-- 15 instances -->
    <g transform="translate(60.632064 60.954904)scale(0.102 -0.102)">
     <use xlink:href="#DejaVuSans-31"/>
     <use xlink:href="#DejaVuSans-35" x="63.623047"/>
     <use xlink:href="#DejaVuSans-20" x="127.246094"/>
     <use xlink:href="#DejaVuSans-69" x="159.033203"/>
     <use xlink:href="#DejaVuSans-6e" x="186.816406"/>
     <use xlink:href="#DejaVuSans-73" x="250.195312"/>
     <use xlink:href="#DejaVuSans-74" x="302.294922"/>
     <use xlink:href="#DejaVuSans-61" x="341.503906"/>
     <use xlink:href="#DejaVuSans-6e" x="402.783203"/>
     <use xlink:href="#DejaVuSans-63" x="466.162109"/>
     <use xlink:href="#DejaVuSans-65" x="521.142578"/>
     <use xlink:href="#DejaVuSans-73" x="582.666016"/>
    </g>
   </g>
   <g id="text_18">
    <!-- v2.6 -->
    <g style="fill: #808080" transform="translate(198.292262 294.151352)scale(0.1 -0.1)">
     <use xlink:href="#DejaVuSans-76"/>
     <use xlink:href="#DejaVuSans-32" x="59.179688"/>
     <use xlink:href="#DejaVuSans-2e" x="122.802734"/>
     <use xlink:href="#DejaVuSans-36" x="154.589844"/>
    </g>
   </g>
   <g id="text_19">
    <!-- 24 Lunacek bi-Rastrigin -->
    <g transform="translate(91.411012 21.648)scale(0.2 -0.2)">
     <defs>
      <path id="DejaVuSans-4c" d="M 628 4666 
L 1259 4666 
L 1259 531 
L 3531 531 
L 3531 0 
L 628 0 
L 628 4666 
z
" transform="scale(0.015625)"/>
      <path id="DejaVuSans-6b" d="M 581 4863 
L 1159 4863 
L 1159 1991 
L 2875 3500 
L 3609 3500 
L 1753 1863 
L 3688 0 
L 2938 0 
L 1159 1709 
L 1159 0 
L 581 0 
L 581 4863 
z
" transform="scale(0.015625)"/>
      <path id="DejaVuSans-52" d="M 2841 2188 
Q 3044 2119 3236 1894 
Q 3428 1669 3622 1275 
L 4263 0 
L 3584 0 
L 2988 1197 
Q 2756 1666 2539 1819 
Q 2322 1972 1947 1972 
L 1259 1972 
L 1259 0 
L 628 0 
L 628 4666 
L 2053 4666 
Q 2853 4666 3247 4331 
Q 3641 3997 3641 3322 
Q 3641 2881 3436 2590 
Q 3231 2300 2841 2188 
z
M 1259 4147 
L 1259 2491 
L 2053 2491 
Q 2509 2491 2742 2702 
Q 2975 2913 2975 3322 
Q 2975 3731 2742 3939 
Q 2509 4147 2053 4147 
L 1259 4147 
z
" transform="scale(0.015625)"/>
     </defs>
     <use xlink:href="#DejaVuSans-32"/>
     <use xlink:href="#DejaVuSans-34" x="63.623047"/>
     <use xlink:href="#DejaVuSans-20" x="127.246094"/>
     <use xlink:href="#DejaVuSans-4c" x="159.033203"/>
     <use xlink:href="#DejaVuSans-75" x="212.996094"/>
     <use xlink:href="#DejaVuSans-6e" x="276.375"/>
     <use xlink:href="#DejaVuSans-61" x="339.753906"/>
     <use xlink:href="#DejaVuSans-63" x="401.033203"/>
     <use xlink:href="#DejaVuSans-65" x="456.013672"/>
     <use xlink:href="#DejaVuSans-6b" x="517.537109"/>
     <use xlink:href="#DejaVuSans-20" x="575.447266"/>
     <use xlink:href="#DejaVuSans-62" x="607.234375"/>
     <use xlink:href="#DejaVuSans-69" x="670.710938"/>
     <use xlink:href="#DejaVuSans-2d" x="698.494141"/>
     <use xlink:href="#DejaVuSans-52" x="734.578125"/>
     <use xlink:href="#DejaVuSans-61" x="801.810547"/>
     <use xlink:href="#DejaVuSans-73" x="863.089844"/>
     <use xlink:href="#DejaVuSans-74" x="915.189453"/>
     <use xlink:href="#DejaVuSans-72" x="954.398438"/>
     <use xlink:href="#DejaVuSans-69" x="995.511719"/>
     <use xlink:href="#DejaVuSans-67" x="1023.294922"/>
     <use xlink:href="#DejaVuSans-69" x="1086.771484"/>
     <use xlink:href="#DejaVuSans-6e" x="1114.554688"/>
    </g>
   </g>
  </g>
 </g>
 <defs>
  <clipPath id="p1be7f78ea3">
   <rect x="57.6" y="27.648" width="303.2064" height="271.296"/>
  </clipPath>
 </defs>
</svg>
