<?xml version="1.0" encoding="utf-8" standalone="no"?>
<!DOCTYPE svg PUBLIC "-//W3C//DTD SVG 1.1//EN"
  "http://www.w3.org/Graphics/SVG/1.1/DTD/svg11.dtd">
<svg xmlns:xlink="http://www.w3.org/1999/xlink" width="460.8pt" height="345.6pt" viewBox="0 0 460.8 345.6" xmlns="http://www.w3.org/2000/svg" version="1.1">
 <metadata>
  <rdf:RDF xmlns:dc="http://purl.org/dc/elements/1.1/" xmlns:cc="http://creativecommons.org/ns#" xmlns:rdf="http://www.w3.org/1999/02/22-rdf-syntax-ns#">
   <cc:Work>
    <dc:type rdf:resource="http://purl.org/dc/dcmitype/StillImage"/>
    <dc:date>2022-03-28T13:37:02.864230</dc:date>
    <dc:format>image/svg+xml</dc:format>
    <dc:creator>
     <cc:Agent>
      <dc:title>Matplotlib v3.5.1, https://matplotlib.org/</dc:title>
     </cc:Agent>
    </dc:creator>
   </cc:Work>
  </rdf:RDF>
 </metadata>
 <defs>
  <style type="text/css">*{stroke-linejoin: round; stroke-linecap: butt}</style>
 </defs>
 <g id="figure_1">
  <g id="patch_1">
   <path d="M 0 345.6 
L 460.8 345.6 
L 460.8 0 
L 0 0 
z
" style="fill: #ffffff"/>
  </g>
  <g id="axes_1">
   <g id="patch_2">
    <path d="M 57.6 298.944 
L 360.8064 298.944 
L 360.8064 27.648 
L 57.6 27.648 
z
" style="fill: #ffffff"/>
   </g>
   <g id="line2d_1">
    <path d="M 81.433251 298.944 
L 81.433251 293.624471 
L 82.211771 293.624471 
L 82.211771 288.304941 
L 82.464279 288.304941 
L 82.464279 282.985412 
L 83.202082 282.985412 
L 83.202082 277.665882 
L 83.678349 277.665882 
L 83.678349 272.346353 
L 84.142855 272.346353 
L 84.142855 267.026824 
L 85.038813 267.026824 
L 85.038813 261.707294 
L 88.063207 261.707294 
L 88.063207 256.387765 
L 105.112877 256.387765 
L 105.112877 251.068235 
L 148.697031 251.068235 
L 148.697031 245.748706 
L 203.275156 245.748706 
L 203.275156 240.429176 
L 227.779871 240.429176 
L 227.779871 235.109647 
L 262.7012 235.109647 
L 262.7012 229.790118 
L 275.334653 229.790118 
L 275.334653 224.470588 
L 278.898357 224.470588 
L 278.898357 219.151059 
L 282.413531 219.151059 
L 282.413531 213.831529 
L 282.528082 213.831529 
L 282.528082 208.512 
L 293.176534 208.512 
L 293.176534 203.192471 
L 293.234683 203.192471 
L 293.234683 197.872941 
L 293.254654 197.872941 
L 293.254654 192.553412 
L 293.269283 192.553412 
L 293.269283 187.233882 
L 293.287392 187.233882 
L 293.287392 181.914353 
L 293.305912 181.914353 
L 293.305912 176.594824 
L 293.321396 176.594824 
L 293.321396 171.275294 
L 293.335885 171.275294 
L 293.335885 165.955765 
L 293.352688 165.955765 
L 293.352688 160.636235 
L 293.368536 160.636235 
L 293.368536 155.316706 
L 293.386018 155.316706 
L 293.386018 149.997176 
L 293.401151 149.997176 
L 293.401151 144.677647 
L 293.421254 144.677647 
L 293.421254 139.358118 
L 293.433274 139.358118 
L 293.433274 134.038588 
L 293.448697 134.038588 
L 293.448697 128.719059 
L 293.463416 128.719059 
L 293.463416 123.399529 
L 293.479583 123.399529 
L 293.479583 118.08 
L 293.494217 118.08 
L 293.494217 112.760471 
L 293.51354 112.760471 
L 293.51354 107.440941 
L 293.528276 107.440941 
L 293.528276 102.121412 
L 293.54431 102.121412 
L 293.54431 96.801882 
L 293.560461 96.801882 
L 293.560461 91.482353 
L 293.57261 91.482353 
L 293.57261 86.162824 
L 293.58805 86.162824 
L 293.58805 80.843294 
L 293.60338 80.843294 
L 293.60338 75.523765 
L 293.616265 75.523765 
L 293.616265 70.204235 
L 293.635966 70.204235 
L 293.635966 64.884706 
L 293.650749 64.884706 
L 293.650749 59.565176 
L 293.664777 59.565176 
L 293.664777 54.245647 
L 293.681342 54.245647 
L 293.681342 48.926118 
L 293.696403 48.926118 
L 293.696403 43.606588 
L 293.714228 43.606588 
L 293.714228 38.287059 
L 293.727078 38.287059 
L 293.727078 32.967529 
L 293.743189 32.967529 
L 293.743189 27.648 
L 360.8064 27.648 
" style="fill: none; stroke: #f5deb3; stroke-width: 4; stroke-linecap: square"/>
   </g>
   <g id="line2d_2">
    <defs>
     <path id="mb3382359bc" d="M -0 7.778175 
L 7.778175 0 
L 0 -7.778175 
L -7.778175 -0 
z
" style="stroke: #f5deb3; stroke-width: 1.5; stroke-linejoin: miter"/>
    </defs>
    <g>
     <use xlink:href="#mb3382359bc" x="262.7012" y="235.109647" style="fill: #f5deb3; stroke: #f5deb3; stroke-width: 1.5; stroke-linejoin: miter"/>
     <use xlink:href="#mb3382359bc" x="293.448697" y="134.038588" style="fill: #f5deb3; stroke: #f5deb3; stroke-width: 1.5; stroke-linejoin: miter"/>
     <use xlink:href="#mb3382359bc" x="293.743189" y="27.648" style="fill: #f5deb3; stroke: #f5deb3; stroke-width: 1.5; stroke-linejoin: miter"/>
     <use xlink:href="#mb3382359bc" x="293.743189" y="27.648" style="fill: #f5deb3; stroke: #f5deb3; stroke-width: 1.5; stroke-linejoin: miter"/>
     <use xlink:href="#mb3382359bc" x="360.8064" y="27.648" style="fill: #f5deb3; stroke: #f5deb3; stroke-width: 1.5; stroke-linejoin: miter"/>
    </g>
   </g>
   <g id="line2d_3">
    <path style="fill: none; stroke: #f5deb3; stroke-width: 4; stroke-linecap: square"/>
    <g/>
   </g>
   <g id="line2d_4">
    <path d="M 360.8064 27.648 
L 380.514816 293.51808 
" style="fill: none; stroke: #f5deb3; stroke-width: 4; stroke-linecap: square"/>
    <g>
     <use xlink:href="#mb3382359bc" x="360.8064" y="27.648" style="fill: #f5deb3; stroke: #f5deb3; stroke-width: 1.5; stroke-linejoin: miter"/>
     <use xlink:href="#mb3382359bc" x="380.514816" y="293.51808" style="fill: #f5deb3; stroke: #f5deb3; stroke-width: 1.5; stroke-linejoin: miter"/>
    </g>
   </g>
   <g id="matplotlib.axis_1">
    <g id="xtick_1">
     <g id="line2d_5">
      <path d="M 57.6 298.944 
L 57.6 27.648 
" clip-path="url(#p97faa8f686)" style="fill: none; stroke: #b0b0b0; stroke-width: 0.8; stroke-linecap: square"/>
     </g>
     <g id="line2d_6">
      <defs>
       <path id="m11378c2fb0" d="M 0 0 
L 0 3.5 
" style="stroke: #000000; stroke-width: 0.8"/>
      </defs>
      <g>
       <use xlink:href="#m11378c2fb0" x="57.6" y="298.944" style="stroke: #000000; stroke-width: 0.8"/>
      </g>
     </g>
     <g id="text_1">
      <!-- 0 -->
      <g transform="translate(52.191875 318.861344)scale(0.17 -0.17)">
       <defs>
        <path id="DejaVuSans-30" d="M 2034 4250 
Q 1547 4250 1301 3770 
Q 1056 3291 1056 2328 
Q 1056 1369 1301 889 
Q 1547 409 2034 409 
Q 2525 409 2770 889 
Q 3016 1369 3016 2328 
Q 3016 3291 2770 3770 
Q 2525 4250 2034 4250 
z
M 2034 4750 
Q 2819 4750 3233 4129 
Q 3647 3509 3647 2328 
Q 3647 1150 3233 529 
Q 2819 -91 2034 -91 
Q 1250 -91 836 529 
Q 422 1150 422 2328 
Q 422 3509 836 4129 
Q 1250 4750 2034 4750 
z
" transform="scale(0.015625)"/>
       </defs>
       <use xlink:href="#DejaVuSans-30"/>
      </g>
     </g>
    </g>
    <g id="xtick_2">
     <g id="line2d_7">
      <path d="M 144.2304 298.944 
L 144.2304 27.648 
" clip-path="url(#p97faa8f686)" style="fill: none; stroke: #b0b0b0; stroke-width: 0.8; stroke-linecap: square"/>
     </g>
     <g id="line2d_8">
      <g>
       <use xlink:href="#m11378c2fb0" x="144.2304" y="298.944" style="stroke: #000000; stroke-width: 0.8"/>
      </g>
     </g>
     <g id="text_2">
      <!-- 2 -->
      <g transform="translate(138.822275 318.861344)scale(0.17 -0.17)">
       <defs>
        <path id="DejaVuSans-32" d="M 1228 531 
L 3431 531 
L 3431 0 
L 469 0 
L 469 531 
Q 828 903 1448 1529 
Q 2069 2156 2228 2338 
Q 2531 2678 2651 2914 
Q 2772 3150 2772 3378 
Q 2772 3750 2511 3984 
Q 2250 4219 1831 4219 
Q 1534 4219 1204 4116 
Q 875 4013 500 3803 
L 500 4441 
Q 881 4594 1212 4672 
Q 1544 4750 1819 4750 
Q 2544 4750 2975 4387 
Q 3406 4025 3406 3419 
Q 3406 3131 3298 2873 
Q 3191 2616 2906 2266 
Q 2828 2175 2409 1742 
Q 1991 1309 1228 531 
z
" transform="scale(0.015625)"/>
       </defs>
       <use xlink:href="#DejaVuSans-32"/>
      </g>
     </g>
    </g>
    <g id="xtick_3">
     <g id="line2d_9">
      <path d="M 230.8608 298.944 
L 230.8608 27.648 
" clip-path="url(#p97faa8f686)" style="fill: none; stroke: #b0b0b0; stroke-width: 0.8; stroke-linecap: square"/>
     </g>
     <g id="line2d_10">
      <g>
       <use xlink:href="#m11378c2fb0" x="230.8608" y="298.944" style="stroke: #000000; stroke-width: 0.8"/>
      </g>
     </g>
     <g id="text_3">
      <!-- 4 -->
      <g transform="translate(225.452675 318.861344)scale(0.17 -0.17)">
       <defs>
        <path id="DejaVuSans-34" d="M 2419 4116 
L 825 1625 
L 2419 1625 
L 2419 4116 
z
M 2253 4666 
L 3047 4666 
L 3047 1625 
L 3713 1625 
L 3713 1100 
L 3047 1100 
L 3047 0 
L 2419 0 
L 2419 1100 
L 313 1100 
L 313 1709 
L 2253 4666 
z
" transform="scale(0.015625)"/>
       </defs>
       <use xlink:href="#DejaVuSans-34"/>
      </g>
     </g>
    </g>
    <g id="xtick_4">
     <g id="line2d_11">
      <path d="M 317.4912 298.944 
L 317.4912 27.648 
" clip-path="url(#p97faa8f686)" style="fill: none; stroke: #b0b0b0; stroke-width: 0.8; stroke-linecap: square"/>
     </g>
     <g id="line2d_12">
      <g>
       <use xlink:href="#m11378c2fb0" x="317.4912" y="298.944" style="stroke: #000000; stroke-width: 0.8"/>
      </g>
     </g>
     <g id="text_4">
      <!-- 6 -->
      <g transform="translate(312.083075 318.861344)scale(0.17 -0.17)">
       <defs>
        <path id="DejaVuSans-36" d="M 2113 2584 
Q 1688 2584 1439 2293 
Q 1191 2003 1191 1497 
Q 1191 994 1439 701 
Q 1688 409 2113 409 
Q 2538 409 2786 701 
Q 3034 994 3034 1497 
Q 3034 2003 2786 2293 
Q 2538 2584 2113 2584 
z
M 3366 4563 
L 3366 3988 
Q 3128 4100 2886 4159 
Q 2644 4219 2406 4219 
Q 1781 4219 1451 3797 
Q 1122 3375 1075 2522 
Q 1259 2794 1537 2939 
Q 1816 3084 2150 3084 
Q 2853 3084 3261 2657 
Q 3669 2231 3669 1497 
Q 3669 778 3244 343 
Q 2819 -91 2113 -91 
Q 1303 -91 875 529 
Q 447 1150 447 2328 
Q 447 3434 972 4092 
Q 1497 4750 2381 4750 
Q 2619 4750 2861 4703 
Q 3103 4656 3366 4563 
z
" transform="scale(0.015625)"/>
       </defs>
       <use xlink:href="#DejaVuSans-36"/>
      </g>
     </g>
    </g>
    <g id="xtick_5">
     <g id="line2d_13">
      <path d="M 100.9152 298.944 
L 100.9152 27.648 
" clip-path="url(#p97faa8f686)" style="fill: none; stroke: #b0b0b0; stroke-width: 0.8; stroke-linecap: square"/>
     </g>
     <g id="line2d_14">
      <defs>
       <path id="m3c08354a9a" d="M 0 0 
L 0 2 
" style="stroke: #000000; stroke-width: 0.6"/>
      </defs>
      <g>
       <use xlink:href="#m3c08354a9a" x="100.9152" y="298.944" style="stroke: #000000; stroke-width: 0.6"/>
      </g>
     </g>
    </g>
    <g id="xtick_6">
     <g id="line2d_15">
      <path d="M 187.5456 298.944 
L 187.5456 27.648 
" clip-path="url(#p97faa8f686)" style="fill: none; stroke: #b0b0b0; stroke-width: 0.8; stroke-linecap: square"/>
     </g>
     <g id="line2d_16">
      <g>
       <use xlink:href="#m3c08354a9a" x="187.5456" y="298.944" style="stroke: #000000; stroke-width: 0.6"/>
      </g>
     </g>
    </g>
    <g id="xtick_7">
     <g id="line2d_17">
      <path d="M 274.176 298.944 
L 274.176 27.648 
" clip-path="url(#p97faa8f686)" style="fill: none; stroke: #b0b0b0; stroke-width: 0.8; stroke-linecap: square"/>
     </g>
     <g id="line2d_18">
      <g>
       <use xlink:href="#m3c08354a9a" x="274.176" y="298.944" style="stroke: #000000; stroke-width: 0.6"/>
      </g>
     </g>
    </g>
    <g id="xtick_8">
     <g id="line2d_19">
      <path d="M 360.8064 298.944 
L 360.8064 27.648 
" clip-path="url(#p97faa8f686)" style="fill: none; stroke: #b0b0b0; stroke-width: 0.8; stroke-linecap: square"/>
     </g>
     <g id="line2d_20">
      <g>
       <use xlink:href="#m3c08354a9a" x="360.8064" y="298.944" style="stroke: #000000; stroke-width: 0.6"/>
      </g>
     </g>
    </g>
    <g id="text_5">
     <!-- log10(# f-evals / dimension) -->
     <g transform="translate(88.823278 339.314156)scale(0.17 -0.17)">
      <defs>
       <path id="DejaVuSans-6c" d="M 603 4863 
L 1178 4863 
L 1178 0 
L 603 0 
L 603 4863 
z
" transform="scale(0.015625)"/>
       <path id="DejaVuSans-6f" d="M 1959 3097 
Q 1497 3097 1228 2736 
Q 959 2375 959 1747 
Q 959 1119 1226 758 
Q 1494 397 1959 397 
Q 2419 397 2687 759 
Q 2956 1122 2956 1747 
Q 2956 2369 2687 2733 
Q 2419 3097 1959 3097 
z
M 1959 3584 
Q 2709 3584 3137 3096 
Q 3566 2609 3566 1747 
Q 3566 888 3137 398 
Q 2709 -91 1959 -91 
Q 1206 -91 779 398 
Q 353 888 353 1747 
Q 353 2609 779 3096 
Q 1206 3584 1959 3584 
z
" transform="scale(0.015625)"/>
       <path id="DejaVuSans-67" d="M 2906 1791 
Q 2906 2416 2648 2759 
Q 2391 3103 1925 3103 
Q 1463 3103 1205 2759 
Q 947 2416 947 1791 
Q 947 1169 1205 825 
Q 1463 481 1925 481 
Q 2391 481 2648 825 
Q 2906 1169 2906 1791 
z
M 3481 434 
Q 3481 -459 3084 -895 
Q 2688 -1331 1869 -1331 
Q 1566 -1331 1297 -1286 
Q 1028 -1241 775 -1147 
L 775 -588 
Q 1028 -725 1275 -790 
Q 1522 -856 1778 -856 
Q 2344 -856 2625 -561 
Q 2906 -266 2906 331 
L 2906 616 
Q 2728 306 2450 153 
Q 2172 0 1784 0 
Q 1141 0 747 490 
Q 353 981 353 1791 
Q 353 2603 747 3093 
Q 1141 3584 1784 3584 
Q 2172 3584 2450 3431 
Q 2728 3278 2906 2969 
L 2906 3500 
L 3481 3500 
L 3481 434 
z
" transform="scale(0.015625)"/>
       <path id="DejaVuSans-31" d="M 794 531 
L 1825 531 
L 1825 4091 
L 703 3866 
L 703 4441 
L 1819 4666 
L 2450 4666 
L 2450 531 
L 3481 531 
L 3481 0 
L 794 0 
L 794 531 
z
" transform="scale(0.015625)"/>
       <path id="DejaVuSans-28" d="M 1984 4856 
Q 1566 4138 1362 3434 
Q 1159 2731 1159 2009 
Q 1159 1288 1364 580 
Q 1569 -128 1984 -844 
L 1484 -844 
Q 1016 -109 783 600 
Q 550 1309 550 2009 
Q 550 2706 781 3412 
Q 1013 4119 1484 4856 
L 1984 4856 
z
" transform="scale(0.015625)"/>
       <path id="DejaVuSans-23" d="M 3272 2816 
L 2363 2816 
L 2100 1772 
L 3016 1772 
L 3272 2816 
z
M 2803 4594 
L 2478 3297 
L 3391 3297 
L 3719 4594 
L 4219 4594 
L 3897 3297 
L 4872 3297 
L 4872 2816 
L 3775 2816 
L 3519 1772 
L 4513 1772 
L 4513 1294 
L 3397 1294 
L 3072 0 
L 2572 0 
L 2894 1294 
L 1978 1294 
L 1656 0 
L 1153 0 
L 1478 1294 
L 494 1294 
L 494 1772 
L 1594 1772 
L 1856 2816 
L 850 2816 
L 850 3297 
L 1978 3297 
L 2297 4594 
L 2803 4594 
z
" transform="scale(0.015625)"/>
       <path id="DejaVuSans-20" transform="scale(0.015625)"/>
       <path id="DejaVuSans-66" d="M 2375 4863 
L 2375 4384 
L 1825 4384 
Q 1516 4384 1395 4259 
Q 1275 4134 1275 3809 
L 1275 3500 
L 2222 3500 
L 2222 3053 
L 1275 3053 
L 1275 0 
L 697 0 
L 697 3053 
L 147 3053 
L 147 3500 
L 697 3500 
L 697 3744 
Q 697 4328 969 4595 
Q 1241 4863 1831 4863 
L 2375 4863 
z
" transform="scale(0.015625)"/>
       <path id="DejaVuSans-2d" d="M 313 2009 
L 1997 2009 
L 1997 1497 
L 313 1497 
L 313 2009 
z
" transform="scale(0.015625)"/>
       <path id="DejaVuSans-65" d="M 3597 1894 
L 3597 1613 
L 953 1613 
Q 991 1019 1311 708 
Q 1631 397 2203 397 
Q 2534 397 2845 478 
Q 3156 559 3463 722 
L 3463 178 
Q 3153 47 2828 -22 
Q 2503 -91 2169 -91 
Q 1331 -91 842 396 
Q 353 884 353 1716 
Q 353 2575 817 3079 
Q 1281 3584 2069 3584 
Q 2775 3584 3186 3129 
Q 3597 2675 3597 1894 
z
M 3022 2063 
Q 3016 2534 2758 2815 
Q 2500 3097 2075 3097 
Q 1594 3097 1305 2825 
Q 1016 2553 972 2059 
L 3022 2063 
z
" transform="scale(0.015625)"/>
       <path id="DejaVuSans-76" d="M 191 3500 
L 800 3500 
L 1894 563 
L 2988 3500 
L 3597 3500 
L 2284 0 
L 1503 0 
L 191 3500 
z
" transform="scale(0.015625)"/>
       <path id="DejaVuSans-61" d="M 2194 1759 
Q 1497 1759 1228 1600 
Q 959 1441 959 1056 
Q 959 750 1161 570 
Q 1363 391 1709 391 
Q 2188 391 2477 730 
Q 2766 1069 2766 1631 
L 2766 1759 
L 2194 1759 
z
M 3341 1997 
L 3341 0 
L 2766 0 
L 2766 531 
Q 2569 213 2275 61 
Q 1981 -91 1556 -91 
Q 1019 -91 701 211 
Q 384 513 384 1019 
Q 384 1609 779 1909 
Q 1175 2209 1959 2209 
L 2766 2209 
L 2766 2266 
Q 2766 2663 2505 2880 
Q 2244 3097 1772 3097 
Q 1472 3097 1187 3025 
Q 903 2953 641 2809 
L 641 3341 
Q 956 3463 1253 3523 
Q 1550 3584 1831 3584 
Q 2591 3584 2966 3190 
Q 3341 2797 3341 1997 
z
" transform="scale(0.015625)"/>
       <path id="DejaVuSans-73" d="M 2834 3397 
L 2834 2853 
Q 2591 2978 2328 3040 
Q 2066 3103 1784 3103 
Q 1356 3103 1142 2972 
Q 928 2841 928 2578 
Q 928 2378 1081 2264 
Q 1234 2150 1697 2047 
L 1894 2003 
Q 2506 1872 2764 1633 
Q 3022 1394 3022 966 
Q 3022 478 2636 193 
Q 2250 -91 1575 -91 
Q 1294 -91 989 -36 
Q 684 19 347 128 
L 347 722 
Q 666 556 975 473 
Q 1284 391 1588 391 
Q 1994 391 2212 530 
Q 2431 669 2431 922 
Q 2431 1156 2273 1281 
Q 2116 1406 1581 1522 
L 1381 1569 
Q 847 1681 609 1914 
Q 372 2147 372 2553 
Q 372 3047 722 3315 
Q 1072 3584 1716 3584 
Q 2034 3584 2315 3537 
Q 2597 3491 2834 3397 
z
" transform="scale(0.015625)"/>
       <path id="DejaVuSans-2f" d="M 1625 4666 
L 2156 4666 
L 531 -594 
L 0 -594 
L 1625 4666 
z
" transform="scale(0.015625)"/>
       <path id="DejaVuSans-64" d="M 2906 2969 
L 2906 4863 
L 3481 4863 
L 3481 0 
L 2906 0 
L 2906 525 
Q 2725 213 2448 61 
Q 2172 -91 1784 -91 
Q 1150 -91 751 415 
Q 353 922 353 1747 
Q 353 2572 751 3078 
Q 1150 3584 1784 3584 
Q 2172 3584 2448 3432 
Q 2725 3281 2906 2969 
z
M 947 1747 
Q 947 1113 1208 752 
Q 1469 391 1925 391 
Q 2381 391 2643 752 
Q 2906 1113 2906 1747 
Q 2906 2381 2643 2742 
Q 2381 3103 1925 3103 
Q 1469 3103 1208 2742 
Q 947 2381 947 1747 
z
" transform="scale(0.015625)"/>
       <path id="DejaVuSans-69" d="M 603 3500 
L 1178 3500 
L 1178 0 
L 603 0 
L 603 3500 
z
M 603 4863 
L 1178 4863 
L 1178 4134 
L 603 4134 
L 603 4863 
z
" transform="scale(0.015625)"/>
       <path id="DejaVuSans-6d" d="M 3328 2828 
Q 3544 3216 3844 3400 
Q 4144 3584 4550 3584 
Q 5097 3584 5394 3201 
Q 5691 2819 5691 2113 
L 5691 0 
L 5113 0 
L 5113 2094 
Q 5113 2597 4934 2840 
Q 4756 3084 4391 3084 
Q 3944 3084 3684 2787 
Q 3425 2491 3425 1978 
L 3425 0 
L 2847 0 
L 2847 2094 
Q 2847 2600 2669 2842 
Q 2491 3084 2119 3084 
Q 1678 3084 1418 2786 
Q 1159 2488 1159 1978 
L 1159 0 
L 581 0 
L 581 3500 
L 1159 3500 
L 1159 2956 
Q 1356 3278 1631 3431 
Q 1906 3584 2284 3584 
Q 2666 3584 2933 3390 
Q 3200 3197 3328 2828 
z
" transform="scale(0.015625)"/>
       <path id="DejaVuSans-6e" d="M 3513 2113 
L 3513 0 
L 2938 0 
L 2938 2094 
Q 2938 2591 2744 2837 
Q 2550 3084 2163 3084 
Q 1697 3084 1428 2787 
Q 1159 2491 1159 1978 
L 1159 0 
L 581 0 
L 581 3500 
L 1159 3500 
L 1159 2956 
Q 1366 3272 1645 3428 
Q 1925 3584 2291 3584 
Q 2894 3584 3203 3211 
Q 3513 2838 3513 2113 
z
" transform="scale(0.015625)"/>
       <path id="DejaVuSans-29" d="M 513 4856 
L 1013 4856 
Q 1481 4119 1714 3412 
Q 1947 2706 1947 2009 
Q 1947 1309 1714 600 
Q 1481 -109 1013 -844 
L 513 -844 
Q 928 -128 1133 580 
Q 1338 1288 1338 2009 
Q 1338 2731 1133 3434 
Q 928 4138 513 4856 
z
" transform="scale(0.015625)"/>
      </defs>
      <use xlink:href="#DejaVuSans-6c"/>
      <use xlink:href="#DejaVuSans-6f" x="27.783203"/>
      <use xlink:href="#DejaVuSans-67" x="88.964844"/>
      <use xlink:href="#DejaVuSans-31" x="152.441406"/>
      <use xlink:href="#DejaVuSans-30" x="216.064453"/>
      <use xlink:href="#DejaVuSans-28" x="279.6875"/>
      <use xlink:href="#DejaVuSans-23" x="318.701172"/>
      <use xlink:href="#DejaVuSans-20" x="402.490234"/>
      <use xlink:href="#DejaVuSans-66" x="434.277344"/>
      <use xlink:href="#DejaVuSans-2d" x="463.982422"/>
      <use xlink:href="#DejaVuSans-65" x="500.066406"/>
      <use xlink:href="#DejaVuSans-76" x="561.589844"/>
      <use xlink:href="#DejaVuSans-61" x="620.769531"/>
      <use xlink:href="#DejaVuSans-6c" x="682.048828"/>
      <use xlink:href="#DejaVuSans-73" x="709.832031"/>
      <use xlink:href="#DejaVuSans-20" x="761.931641"/>
      <use xlink:href="#DejaVuSans-2f" x="793.71875"/>
      <use xlink:href="#DejaVuSans-20" x="827.410156"/>
      <use xlink:href="#DejaVuSans-64" x="859.197266"/>
      <use xlink:href="#DejaVuSans-69" x="922.673828"/>
      <use xlink:href="#DejaVuSans-6d" x="950.457031"/>
      <use xlink:href="#DejaVuSans-65" x="1047.869141"/>
      <use xlink:href="#DejaVuSans-6e" x="1109.392578"/>
      <use xlink:href="#DejaVuSans-73" x="1172.771484"/>
      <use xlink:href="#DejaVuSans-69" x="1224.871094"/>
      <use xlink:href="#DejaVuSans-6f" x="1252.654297"/>
      <use xlink:href="#DejaVuSans-6e" x="1313.835938"/>
      <use xlink:href="#DejaVuSans-29" x="1377.214844"/>
     </g>
    </g>
   </g>
   <g id="matplotlib.axis_2">
    <g id="ytick_1">
     <g id="line2d_21">
      <path d="M 57.6 298.944 
L 360.8064 298.944 
" clip-path="url(#p97faa8f686)" style="fill: none; stroke: #b0b0b0; stroke-width: 0.8; stroke-linecap: square"/>
     </g>
     <g id="line2d_22">
      <defs>
       <path id="m5ae330fb80" d="M 0 0 
L -3.5 0 
" style="stroke: #000000; stroke-width: 0.8"/>
      </defs>
      <g>
       <use xlink:href="#m5ae330fb80" x="57.6" y="298.944" style="stroke: #000000; stroke-width: 0.8"/>
      </g>
     </g>
     <g id="text_6">
      <!-- 0.0 -->
      <g transform="translate(25.155 305.02275)scale(0.16 -0.16)">
       <defs>
        <path id="DejaVuSans-2e" d="M 684 794 
L 1344 794 
L 1344 0 
L 684 0 
L 684 794 
z
" transform="scale(0.015625)"/>
       </defs>
       <use xlink:href="#DejaVuSans-30"/>
       <use xlink:href="#DejaVuSans-2e" x="63.623047"/>
       <use xlink:href="#DejaVuSans-30" x="95.410156"/>
      </g>
     </g>
    </g>
    <g id="ytick_2">
     <g id="line2d_23">
      <path d="M 57.6 244.6848 
L 360.8064 244.6848 
" clip-path="url(#p97faa8f686)" style="fill: none; stroke: #b0b0b0; stroke-width: 0.8; stroke-linecap: square"/>
     </g>
     <g id="line2d_24">
      <g>
       <use xlink:href="#m5ae330fb80" x="57.6" y="244.6848" style="stroke: #000000; stroke-width: 0.8"/>
      </g>
     </g>
     <g id="text_7">
      <!-- 0.2 -->
      <g transform="translate(25.155 250.76355)scale(0.16 -0.16)">
       <use xlink:href="#DejaVuSans-30"/>
       <use xlink:href="#DejaVuSans-2e" x="63.623047"/>
       <use xlink:href="#DejaVuSans-32" x="95.410156"/>
      </g>
     </g>
    </g>
    <g id="ytick_3">
     <g id="line2d_25">
      <path d="M 57.6 190.4256 
L 360.8064 190.4256 
" clip-path="url(#p97faa8f686)" style="fill: none; stroke: #b0b0b0; stroke-width: 0.8; stroke-linecap: square"/>
     </g>
     <g id="line2d_26">
      <g>
       <use xlink:href="#m5ae330fb80" x="57.6" y="190.4256" style="stroke: #000000; stroke-width: 0.8"/>
      </g>
     </g>
     <g id="text_8">
      <!-- 0.4 -->
      <g transform="translate(25.155 196.50435)scale(0.16 -0.16)">
       <use xlink:href="#DejaVuSans-30"/>
       <use xlink:href="#DejaVuSans-2e" x="63.623047"/>
       <use xlink:href="#DejaVuSans-34" x="95.410156"/>
      </g>
     </g>
    </g>
    <g id="ytick_4">
     <g id="line2d_27">
      <path d="M 57.6 136.1664 
L 360.8064 136.1664 
" clip-path="url(#p97faa8f686)" style="fill: none; stroke: #b0b0b0; stroke-width: 0.8; stroke-linecap: square"/>
     </g>
     <g id="line2d_28">
      <g>
       <use xlink:href="#m5ae330fb80" x="57.6" y="136.1664" style="stroke: #000000; stroke-width: 0.8"/>
      </g>
     </g>
     <g id="text_9">
      <!-- 0.6 -->
      <g transform="translate(25.155 142.24515)scale(0.16 -0.16)">
       <use xlink:href="#DejaVuSans-30"/>
       <use xlink:href="#DejaVuSans-2e" x="63.623047"/>
       <use xlink:href="#DejaVuSans-36" x="95.410156"/>
      </g>
     </g>
    </g>
    <g id="ytick_5">
     <g id="line2d_29">
      <path d="M 57.6 81.9072 
L 360.8064 81.9072 
" clip-path="url(#p97faa8f686)" style="fill: none; stroke: #b0b0b0; stroke-width: 0.8; stroke-linecap: square"/>
     </g>
     <g id="line2d_30">
      <g>
       <use xlink:href="#m5ae330fb80" x="57.6" y="81.9072" style="stroke: #000000; stroke-width: 0.8"/>
      </g>
     </g>
     <g id="text_10">
      <!-- 0.8 -->
      <g transform="translate(25.155 87.98595)scale(0.16 -0.16)">
       <defs>
        <path id="DejaVuSans-38" d="M 2034 2216 
Q 1584 2216 1326 1975 
Q 1069 1734 1069 1313 
Q 1069 891 1326 650 
Q 1584 409 2034 409 
Q 2484 409 2743 651 
Q 3003 894 3003 1313 
Q 3003 1734 2745 1975 
Q 2488 2216 2034 2216 
z
M 1403 2484 
Q 997 2584 770 2862 
Q 544 3141 544 3541 
Q 544 4100 942 4425 
Q 1341 4750 2034 4750 
Q 2731 4750 3128 4425 
Q 3525 4100 3525 3541 
Q 3525 3141 3298 2862 
Q 3072 2584 2669 2484 
Q 3125 2378 3379 2068 
Q 3634 1759 3634 1313 
Q 3634 634 3220 271 
Q 2806 -91 2034 -91 
Q 1263 -91 848 271 
Q 434 634 434 1313 
Q 434 1759 690 2068 
Q 947 2378 1403 2484 
z
M 1172 3481 
Q 1172 3119 1398 2916 
Q 1625 2713 2034 2713 
Q 2441 2713 2670 2916 
Q 2900 3119 2900 3481 
Q 2900 3844 2670 4047 
Q 2441 4250 2034 4250 
Q 1625 4250 1398 4047 
Q 1172 3844 1172 3481 
z
" transform="scale(0.015625)"/>
       </defs>
       <use xlink:href="#DejaVuSans-30"/>
       <use xlink:href="#DejaVuSans-2e" x="63.623047"/>
       <use xlink:href="#DejaVuSans-38" x="95.410156"/>
      </g>
     </g>
    </g>
    <g id="ytick_6">
     <g id="line2d_31">
      <path d="M 57.6 27.648 
L 360.8064 27.648 
" clip-path="url(#p97faa8f686)" style="fill: none; stroke: #b0b0b0; stroke-width: 0.8; stroke-linecap: square"/>
     </g>
     <g id="line2d_32">
      <g>
       <use xlink:href="#m5ae330fb80" x="57.6" y="27.648" style="stroke: #000000; stroke-width: 0.8"/>
      </g>
     </g>
     <g id="text_11">
      <!-- 1.0 -->
      <g transform="translate(25.155 33.72675)scale(0.16 -0.16)">
       <use xlink:href="#DejaVuSans-31"/>
       <use xlink:href="#DejaVuSans-2e" x="63.623047"/>
       <use xlink:href="#DejaVuSans-30" x="95.410156"/>
      </g>
     </g>
    </g>
    <g id="text_12">
     <!-- Fraction of function,target pairs -->
     <g transform="translate(17.619531 297.681)rotate(-90)scale(0.17 -0.17)">
      <defs>
       <path id="DejaVuSans-46" d="M 628 4666 
L 3309 4666 
L 3309 4134 
L 1259 4134 
L 1259 2759 
L 3109 2759 
L 3109 2228 
L 1259 2228 
L 1259 0 
L 628 0 
L 628 4666 
z
" transform="scale(0.015625)"/>
       <path id="DejaVuSans-72" d="M 2631 2963 
Q 2534 3019 2420 3045 
Q 2306 3072 2169 3072 
Q 1681 3072 1420 2755 
Q 1159 2438 1159 1844 
L 1159 0 
L 581 0 
L 581 3500 
L 1159 3500 
L 1159 2956 
Q 1341 3275 1631 3429 
Q 1922 3584 2338 3584 
Q 2397 3584 2469 3576 
Q 2541 3569 2628 3553 
L 2631 2963 
z
" transform="scale(0.015625)"/>
       <path id="DejaVuSans-63" d="M 3122 3366 
L 3122 2828 
Q 2878 2963 2633 3030 
Q 2388 3097 2138 3097 
Q 1578 3097 1268 2742 
Q 959 2388 959 1747 
Q 959 1106 1268 751 
Q 1578 397 2138 397 
Q 2388 397 2633 464 
Q 2878 531 3122 666 
L 3122 134 
Q 2881 22 2623 -34 
Q 2366 -91 2075 -91 
Q 1284 -91 818 406 
Q 353 903 353 1747 
Q 353 2603 823 3093 
Q 1294 3584 2113 3584 
Q 2378 3584 2631 3529 
Q 2884 3475 3122 3366 
z
" transform="scale(0.015625)"/>
       <path id="DejaVuSans-74" d="M 1172 4494 
L 1172 3500 
L 2356 3500 
L 2356 3053 
L 1172 3053 
L 1172 1153 
Q 1172 725 1289 603 
Q 1406 481 1766 481 
L 2356 481 
L 2356 0 
L 1766 0 
Q 1100 0 847 248 
Q 594 497 594 1153 
L 594 3053 
L 172 3053 
L 172 3500 
L 594 3500 
L 594 4494 
L 1172 4494 
z
" transform="scale(0.015625)"/>
       <path id="DejaVuSans-75" d="M 544 1381 
L 544 3500 
L 1119 3500 
L 1119 1403 
Q 1119 906 1312 657 
Q 1506 409 1894 409 
Q 2359 409 2629 706 
Q 2900 1003 2900 1516 
L 2900 3500 
L 3475 3500 
L 3475 0 
L 2900 0 
L 2900 538 
Q 2691 219 2414 64 
Q 2138 -91 1772 -91 
Q 1169 -91 856 284 
Q 544 659 544 1381 
z
M 1991 3584 
L 1991 3584 
z
" transform="scale(0.015625)"/>
       <path id="DejaVuSans-2c" d="M 750 794 
L 1409 794 
L 1409 256 
L 897 -744 
L 494 -744 
L 750 256 
L 750 794 
z
" transform="scale(0.015625)"/>
       <path id="DejaVuSans-70" d="M 1159 525 
L 1159 -1331 
L 581 -1331 
L 581 3500 
L 1159 3500 
L 1159 2969 
Q 1341 3281 1617 3432 
Q 1894 3584 2278 3584 
Q 2916 3584 3314 3078 
Q 3713 2572 3713 1747 
Q 3713 922 3314 415 
Q 2916 -91 2278 -91 
Q 1894 -91 1617 61 
Q 1341 213 1159 525 
z
M 3116 1747 
Q 3116 2381 2855 2742 
Q 2594 3103 2138 3103 
Q 1681 3103 1420 2742 
Q 1159 2381 1159 1747 
Q 1159 1113 1420 752 
Q 1681 391 2138 391 
Q 2594 391 2855 752 
Q 3116 1113 3116 1747 
z
" transform="scale(0.015625)"/>
      </defs>
      <use xlink:href="#DejaVuSans-46"/>
      <use xlink:href="#DejaVuSans-72" x="50.269531"/>
      <use xlink:href="#DejaVuSans-61" x="91.382812"/>
      <use xlink:href="#DejaVuSans-63" x="152.662109"/>
      <use xlink:href="#DejaVuSans-74" x="207.642578"/>
      <use xlink:href="#DejaVuSans-69" x="246.851562"/>
      <use xlink:href="#DejaVuSans-6f" x="274.634766"/>
      <use xlink:href="#DejaVuSans-6e" x="335.816406"/>
      <use xlink:href="#DejaVuSans-20" x="399.195312"/>
      <use xlink:href="#DejaVuSans-6f" x="430.982422"/>
      <use xlink:href="#DejaVuSans-66" x="492.164062"/>
      <use xlink:href="#DejaVuSans-20" x="527.369141"/>
      <use xlink:href="#DejaVuSans-66" x="559.15625"/>
      <use xlink:href="#DejaVuSans-75" x="594.361328"/>
      <use xlink:href="#DejaVuSans-6e" x="657.740234"/>
      <use xlink:href="#DejaVuSans-63" x="721.119141"/>
      <use xlink:href="#DejaVuSans-74" x="776.099609"/>
      <use xlink:href="#DejaVuSans-69" x="815.308594"/>
      <use xlink:href="#DejaVuSans-6f" x="843.091797"/>
      <use xlink:href="#DejaVuSans-6e" x="904.273438"/>
      <use xlink:href="#DejaVuSans-2c" x="967.652344"/>
      <use xlink:href="#DejaVuSans-74" x="999.439453"/>
      <use xlink:href="#DejaVuSans-61" x="1038.648438"/>
      <use xlink:href="#DejaVuSans-72" x="1099.927734"/>
      <use xlink:href="#DejaVuSans-67" x="1139.291016"/>
      <use xlink:href="#DejaVuSans-65" x="1202.767578"/>
      <use xlink:href="#DejaVuSans-74" x="1264.291016"/>
      <use xlink:href="#DejaVuSans-20" x="1303.5"/>
      <use xlink:href="#DejaVuSans-70" x="1335.287109"/>
      <use xlink:href="#DejaVuSans-61" x="1398.763672"/>
      <use xlink:href="#DejaVuSans-69" x="1460.042969"/>
      <use xlink:href="#DejaVuSans-72" x="1487.826172"/>
      <use xlink:href="#DejaVuSans-73" x="1528.939453"/>
     </g>
    </g>
   </g>
   <g id="line2d_33">
    <defs>
     <path id="ma89c593173" d="M 0 1.5 
C 0.397805 1.5 0.77937 1.341951 1.06066 1.06066 
C 1.341951 0.77937 1.5 0.397805 1.5 0 
C 1.5 -0.397805 1.341951 -0.77937 1.06066 -1.06066 
C 0.77937 -1.341951 0.397805 -1.5 0 -1.5 
C -0.397805 -1.5 -0.77937 -1.341951 -1.06066 -1.06066 
C -1.341951 -0.77937 -1.5 -0.397805 -1.5 0 
C -1.5 0.397805 -1.341951 0.77937 -1.06066 1.06066 
C -0.77937 1.341951 -0.397805 1.5 0 1.5 
z
" style="stroke: #f5deb3"/>
    </defs>
    <g>
     <use xlink:href="#ma89c593173" x="293.743189" y="27.648" style="fill: #f5deb3; stroke: #f5deb3"/>
     <use xlink:href="#ma89c593173" x="293.743189" y="27.648" style="fill: #f5deb3; stroke: #f5deb3"/>
    </g>
   </g>
   <g id="line2d_34">
    <defs>
     <path id="m79212c3d76" d="M 0 1.5 
C 0.397805 1.5 0.77937 1.341951 1.06066 1.06066 
C 1.341951 0.77937 1.5 0.397805 1.5 0 
C 1.5 -0.397805 1.341951 -0.77937 1.06066 -1.06066 
C 0.77937 -1.341951 0.397805 -1.5 0 -1.5 
C -0.397805 -1.5 -0.77937 -1.341951 -1.06066 -1.06066 
C -1.341951 -0.77937 -1.5 -0.397805 -1.5 0 
C -1.5 0.397805 -1.341951 0.77937 -1.06066 1.06066 
C -0.77937 1.341951 -0.397805 1.5 0 1.5 
z
" style="stroke: #000080"/>
    </defs>
    <g>
     <use xlink:href="#m79212c3d76" x="268.348921" y="27.648" style="fill: #000080; stroke: #000080"/>
     <use xlink:href="#m79212c3d76" x="268.348921" y="27.648" style="fill: #000080; stroke: #000080"/>
    </g>
   </g>
   <g id="line2d_35">
    <path d="M 99.244147 298.944 
L 99.244147 297.170824 
L 104.266406 297.170824 
L 104.266406 296.816188 
L 104.809458 296.816188 
L 104.809458 296.106918 
L 105.850679 296.106918 
L 105.850679 295.752282 
L 106.066493 295.752282 
L 106.066493 291.142024 
L 106.560633 291.142024 
L 106.560633 290.432753 
L 107.042125 290.432753 
L 107.042125 290.078118 
L 107.31183 290.078118 
L 107.378656 289.014212 
L 107.577722 289.014212 
L 107.643612 288.304941 
L 107.969643 288.304941 
L 108.034177 287.595671 
L 108.162584 287.595671 
L 108.22646 284.403953 
L 109.098675 284.403953 
L 109.098675 280.8576 
L 109.520071 280.8576 
L 109.579508 277.665882 
L 109.873904 277.665882 
L 109.932235 275.538071 
L 110.106149 275.538071 
L 110.106149 274.474165 
L 110.335561 274.474165 
L 110.392479 272.700988 
L 110.449226 272.700988 
L 110.505802 269.863906 
L 110.897141 269.863906 
L 110.897141 269.154635 
L 111.117162 269.154635 
L 111.117162 268.8 
L 111.388617 268.8 
L 111.496112 264.189741 
L 111.54963 264.189741 
L 111.54963 263.835106 
L 112.024561 263.835106 
L 112.024561 263.480471 
L 112.53857 263.480471 
L 112.53857 262.416565 
L 112.740305 262.416565 
L 112.840366 260.643388 
L 113.088217 260.643388 
L 113.088217 260.288753 
L 113.332844 260.288753 
L 113.381389 258.515576 
L 113.954374 258.515576 
L 114.001345 257.806306 
L 114.280729 257.806306 
L 114.326893 257.097035 
L 115.050503 257.097035 
L 115.050503 256.7424 
L 116.988079 256.7424 
L 116.988079 256.387765 
L 133.238946 256.387765 
L 133.238946 256.033129 
L 133.78762 256.033129 
L 133.836715 255.323859 
L 135.039546 255.323859 
L 135.039546 254.969224 
L 135.3437 254.969224 
L 135.449003 254.259953 
L 135.820345 254.259953 
L 135.820345 253.905318 
L 137.0583 253.905318 
L 137.0583 253.550682 
L 137.919637 253.550682 
L 137.919637 253.196047 
L 138.089879 253.196047 
L 138.089879 252.841412 
L 139.985636 252.841412 
L 139.985636 252.486776 
L 140.103135 252.486776 
L 140.103135 252.132141 
L 140.759217 252.132141 
L 140.759217 251.777506 
L 141.469591 251.777506 
L 141.469591 251.422871 
L 143.10641 251.422871 
L 143.10641 251.068235 
L 145.379694 251.068235 
L 145.379694 250.7136 
L 169.904695 250.7136 
L 169.904695 250.358965 
L 170.348681 250.358965 
L 170.348681 250.004329 
L 171.636373 250.004329 
L 171.636373 249.649694 
L 172.459523 249.649694 
L 172.459523 249.295059 
L 174.043659 249.295059 
L 174.043659 248.940424 
L 186.084106 248.940424 
L 186.084106 248.585788 
L 186.298393 248.585788 
L 186.298393 248.231153 
L 187.760698 248.231153 
L 187.760698 247.876518 
L 197.371981 247.876518 
L 197.371981 247.521882 
L 197.945027 247.521882 
L 197.945027 247.167247 
L 198.266408 247.167247 
L 198.266408 246.812612 
L 198.756302 246.812612 
L 198.756302 246.457976 
L 198.960435 246.457976 
L 199.003453 245.748706 
L 199.150708 245.748706 
L 199.150708 245.394071 
L 199.89458 245.394071 
L 199.919445 244.6848 
L 200.198491 244.6848 
L 200.198491 244.330165 
L 200.400937 244.330165 
L 200.480552 243.620894 
L 200.929146 243.620894 
L 200.929146 243.266259 
L 202.044285 243.266259 
L 202.044285 242.911624 
L 211.136992 242.911624 
L 211.233095 242.202353 
L 211.710023 242.202353 
L 211.710023 241.847718 
L 211.935413 241.847718 
L 211.935413 241.493082 
L 212.140077 241.493082 
L 212.19242 240.783812 
L 212.433692 240.783812 
L 212.47298 240.074541 
L 212.870715 240.074541 
L 212.870715 239.719906 
L 213.117028 239.719906 
L 213.178045 239.010635 
L 213.240305 239.010635 
L 213.250862 237.946729 
L 213.425383 237.946729 
L 213.425383 237.592094 
L 213.640637 237.592094 
L 213.684987 236.882824 
L 213.777341 236.882824 
L 213.777341 236.528188 
L 213.982169 236.528188 
L 214.00269 235.464282 
L 214.133366 235.464282 
L 214.20304 234.755012 
L 214.461423 234.755012 
L 214.533704 234.045741 
L 214.67966 234.045741 
L 214.708761 233.336471 
L 214.964059 233.336471 
L 214.964059 232.981835 
L 215.350067 232.981835 
L 215.387786 232.272565 
L 224.902296 232.272565 
L 225.007869 231.563294 
L 225.322845 231.563294 
L 225.368241 230.854024 
L 225.823293 230.854024 
L 225.827841 230.144753 
L 226.296032 230.144753 
L 226.306459 229.435482 
L 226.775539 229.435482 
L 226.775539 229.080847 
L 227.275361 229.080847 
L 227.305269 228.371576 
L 227.700374 228.371576 
L 227.700374 228.016941 
L 227.858924 228.016941 
L 227.858924 227.662306 
L 238.270895 227.662306 
L 238.336751 226.953035 
L 238.414971 226.953035 
L 238.414971 226.5984 
L 238.567196 226.5984 
L 238.671063 224.825224 
L 238.723897 224.825224 
L 238.781831 223.406682 
L 238.851215 223.406682 
L 238.925492 221.633506 
L 238.968267 221.633506 
L 239.044701 219.860329 
L 239.108939 219.860329 
L 239.187524 217.732518 
L 239.246579 217.732518 
L 239.34767 214.186165 
L 239.372036 214.186165 
L 239.449949 212.058353 
L 239.494878 212.058353 
L 239.605404 208.866635 
L 239.617101 208.866635 
L 239.725739 206.384188 
L 239.731433 206.384188 
L 239.841749 203.547106 
L 239.845892 203.547106 
L 239.950204 199.291482 
L 239.970383 199.291482 
L 240.081097 196.809035 
L 240.110055 196.809035 
L 240.220238 194.326588 
L 240.240129 194.326588 
L 240.336829 191.844141 
L 240.361934 191.844141 
L 240.460325 189.716329 
L 240.475339 189.716329 
L 240.584307 186.879247 
L 240.670381 186.879247 
L 240.756509 185.460706 
L 240.802918 185.460706 
L 240.888718 184.042165 
L 240.929021 184.042165 
L 241.010027 182.978259 
L 241.051603 182.978259 
L 241.051603 182.623624 
L 251.228603 182.623624 
L 251.303916 181.914353 
L 251.405202 181.914353 
L 251.405202 181.559718 
L 251.526148 181.559718 
L 251.601937 180.141176 
L 251.647662 180.141176 
L 251.750899 177.304094 
L 251.789402 177.304094 
L 251.891681 173.757741 
L 251.932137 173.757741 
L 252.032791 170.211388 
L 252.072823 170.211388 
L 252.176455 164.891859 
L 252.210893 164.891859 
L 252.31437 160.2816 
L 252.323118 160.2816 
L 252.409625 156.735247 
L 252.434618 156.735247 
L 252.541659 151.415718 
L 252.552588 151.415718 
L 252.649276 147.869365 
L 252.664364 147.869365 
L 252.774305 142.904471 
L 252.810976 142.904471 
L 252.895827 139.358118 
L 252.924986 139.358118 
L 253.028441 136.1664 
L 253.041666 136.1664 
L 253.134756 131.910776 
L 253.175557 131.910776 
L 253.265817 129.073694 
L 253.306506 129.073694 
L 253.416002 124.1088 
L 253.430175 124.1088 
L 253.539547 119.498541 
L 253.568514 119.498541 
L 253.669506 115.242918 
L 253.699335 115.242918 
L 253.788178 112.405835 
L 253.826839 112.405835 
L 253.914752 108.859482 
L 253.954614 108.859482 
L 254.0393 106.0224 
L 254.080542 106.0224 
L 254.189937 103.185318 
L 254.256251 103.185318 
L 254.299781 102.121412 
L 266.157617 102.121412 
L 266.157617 101.766776 
L 266.290793 101.766776 
L 266.390608 100.348235 
L 266.420718 100.348235 
L 266.514888 98.575059 
L 266.55373 98.575059 
L 266.645862 96.801882 
L 266.686565 96.801882 
L 266.790673 93.610165 
L 266.802773 93.610165 
L 266.91254 88.999906 
L 266.918503 88.999906 
L 267.018354 84.035012 
L 267.034805 84.035012 
L 267.142259 77.651576 
L 267.146879 77.651576 
L 267.256496 72.332047 
L 267.259757 72.332047 
L 267.367181 67.012518 
L 267.373461 67.012518 
L 267.48424 59.565176 
L 267.485246 59.565176 
L 267.5907 52.472471 
L 267.596839 52.472471 
L 267.705359 46.443671 
L 267.715824 46.443671 
L 267.817622 42.188047 
L 267.828249 42.188047 
L 267.935118 37.577788 
L 267.940307 37.577788 
L 268.025203 34.386071 
L 268.058995 34.386071 
L 268.139223 30.839718 
L 268.178969 30.839718 
L 268.266094 28.711906 
L 268.300382 28.711906 
L 268.348921 27.648 
L 360.8064 27.648 
L 360.8064 27.648 
" style="fill: none; stroke: #000080; stroke-width: 1.5; stroke-linecap: square"/>
   </g>
   <g id="line2d_36">
    <defs>
     <path id="m28cbbd221f" d="M 0 6 
C 1.591219 6 3.117479 5.367802 4.242641 4.242641 
C 5.367802 3.117479 6 1.591219 6 0 
C 6 -1.591219 5.367802 -3.117479 4.242641 -4.242641 
C 3.117479 -5.367802 1.591219 -6 0 -6 
C -1.591219 -6 -3.117479 -5.367802 -4.242641 -4.242641 
C -5.367802 -3.117479 -6 -1.591219 -6 0 
C -6 1.591219 -5.367802 3.117479 -4.242641 4.242641 
C -3.117479 5.367802 -1.591219 6 0 6 
z
" style="stroke: #000080; stroke-width: 1.5"/>
    </defs>
    <g>
     <use xlink:href="#m28cbbd221f" x="116.988079" y="256.7424" style="fill-opacity: 0; stroke: #000080; stroke-width: 1.5"/>
     <use xlink:href="#m28cbbd221f" x="225.368241" y="230.854024" style="fill-opacity: 0; stroke: #000080; stroke-width: 1.5"/>
     <use xlink:href="#m28cbbd221f" x="267.002881" y="85.098918" style="fill-opacity: 0; stroke: #000080; stroke-width: 1.5"/>
     <use xlink:href="#m28cbbd221f" x="268.348921" y="27.648" style="fill-opacity: 0; stroke: #000080; stroke-width: 1.5"/>
     <use xlink:href="#m28cbbd221f" x="360.8064" y="27.648" style="fill-opacity: 0; stroke: #000080; stroke-width: 1.5"/>
    </g>
   </g>
   <g id="line2d_37">
    <path style="fill: none; stroke: #000080; stroke-width: 1.5; stroke-linecap: square"/>
    <g/>
   </g>
   <g id="line2d_38">
    <defs>
     <path id="m2532224dbb" d="M 0 1.5 
C 0.397805 1.5 0.77937 1.341951 1.06066 1.06066 
C 1.341951 0.77937 1.5 0.397805 1.5 0 
C 1.5 -0.397805 1.341951 -0.77937 1.06066 -1.06066 
C 0.77937 -1.341951 0.397805 -1.5 0 -1.5 
C -0.397805 -1.5 -0.77937 -1.341951 -1.06066 -1.06066 
C -1.341951 -0.77937 -1.5 -0.397805 -1.5 0 
C -1.5 0.397805 -1.341951 0.77937 -1.06066 1.06066 
C -0.77937 1.341951 -0.397805 1.5 0 1.5 
z
" style="stroke: #ff00ff"/>
    </defs>
    <g>
     <use xlink:href="#m2532224dbb" x="267.916157" y="27.648" style="fill: #ff00ff; stroke: #ff00ff"/>
     <use xlink:href="#m2532224dbb" x="267.916157" y="27.648" style="fill: #ff00ff; stroke: #ff00ff"/>
    </g>
   </g>
   <g id="line2d_39">
    <path d="M 96.480897 298.944 
L 96.480897 296.461553 
L 96.599582 296.461553 
L 96.599582 293.979106 
L 99.037425 293.979106 
L 99.037425 293.624471 
L 100.535156 293.624471 
L 100.535156 291.142024 
L 100.820906 291.142024 
L 100.820906 288.659576 
L 102.099854 288.659576 
L 102.187964 285.467859 
L 102.449846 285.467859 
L 102.449846 285.113224 
L 102.708132 285.113224 
L 102.708132 283.694682 
L 102.878374 283.694682 
L 102.96292 278.729788 
L 103.047088 278.729788 
L 103.047088 275.892706 
L 103.707211 275.892706 
L 103.707211 274.8288 
L 104.501065 274.8288 
L 104.501065 273.764894 
L 104.809458 273.764894 
L 104.809458 273.410259 
L 105.485395 273.410259 
L 105.485395 271.637082 
L 105.922892 271.637082 
L 105.99483 268.090729 
L 106.137884 268.090729 
L 106.137884 267.381459 
L 106.630177 267.381459 
L 106.630177 267.026824 
L 106.837279 267.026824 
L 106.837279 266.672188 
L 107.244765 266.672188 
L 107.31183 264.899012 
L 107.445245 264.899012 
L 107.5116 262.061929 
L 107.577722 262.061929 
L 107.643612 261.352659 
L 107.969643 261.352659 
L 107.969643 260.998024 
L 108.416798 260.998024 
L 108.416798 260.288753 
L 108.791791 260.288753 
L 108.791791 259.224847 
L 109.280431 259.224847 
L 109.280431 258.870212 
L 109.460447 258.870212 
L 109.460447 258.515576 
L 109.579508 258.515576 
L 109.579508 258.160941 
L 110.278469 258.160941 
L 110.278469 257.097035 
L 111.496112 257.097035 
L 111.496112 256.7424 
L 112.790402 256.7424 
L 112.790402 256.387765 
L 124.906754 256.387765 
L 124.906754 256.033129 
L 126.151997 256.033129 
L 126.151997 255.678494 
L 126.733095 255.678494 
L 126.733095 255.323859 
L 126.946461 255.323859 
L 126.946461 254.969224 
L 127.686077 254.969224 
L 127.776517 254.259953 
L 128.000734 254.259953 
L 128.000734 253.905318 
L 129.209231 253.905318 
L 129.209231 253.550682 
L 129.663538 253.550682 
L 129.663538 253.196047 
L 130.55997 253.196047 
L 130.55997 252.841412 
L 130.676331 252.841412 
L 130.676331 252.486776 
L 130.86868 252.486776 
L 130.86868 252.132141 
L 132.915628 252.132141 
L 132.915628 251.777506 
L 133.137444 251.777506 
L 133.137444 251.422871 
L 133.30631 251.422871 
L 133.30631 251.068235 
L 134.256922 251.068235 
L 134.256922 250.7136 
L 135.161798 250.7136 
L 135.161798 250.358965 
L 135.59842 250.358965 
L 135.59842 250.004329 
L 138.271509 250.004329 
L 138.36167 249.295059 
L 140.032723 249.295059 
L 140.032723 248.940424 
L 168.796358 248.940424 
L 168.796358 248.585788 
L 168.941053 248.585788 
L 168.941053 248.231153 
L 172.22526 248.231153 
L 172.22526 247.876518 
L 185.452499 247.876518 
L 185.452499 247.521882 
L 186.710932 247.521882 
L 186.710932 247.167247 
L 188.125375 247.167247 
L 188.125375 246.812612 
L 196.525324 246.812612 
L 196.525324 246.457976 
L 196.877968 246.457976 
L 196.877968 246.103341 
L 197.786894 246.103341 
L 197.786894 245.748706 
L 198.278107 245.748706 
L 198.278107 245.394071 
L 198.740746 245.394071 
L 198.740746 245.039435 
L 199.669801 245.039435 
L 199.669801 244.6848 
L 200.515043 244.6848 
L 200.515043 244.330165 
L 202.009874 244.330165 
L 202.009874 243.975529 
L 210.778258 243.975529 
L 210.778258 243.620894 
L 211.388652 243.620894 
L 211.391565 242.911624 
L 211.603246 242.911624 
L 211.662061 242.202353 
L 212.178205 242.202353 
L 212.274704 241.138447 
L 212.442958 241.138447 
L 212.553053 240.429176 
L 212.706013 240.429176 
L 212.764684 239.719906 
L 213.338206 239.719906 
L 213.440586 239.010635 
L 213.484937 239.010635 
L 213.558937 238.301365 
L 213.708177 238.301365 
L 213.730637 237.592094 
L 213.847182 237.592094 
L 213.847182 237.237459 
L 214.064582 237.237459 
L 214.064582 236.882824 
L 214.33143 236.882824 
L 214.365595 236.173553 
L 214.483451 236.173553 
L 214.483451 235.818918 
L 214.629128 235.818918 
L 214.718746 235.109647 
L 214.943903 235.109647 
L 214.943903 234.755012 
L 215.939277 234.755012 
L 215.939277 234.400376 
L 216.573815 234.400376 
L 216.573815 234.045741 
L 217.407382 234.045741 
L 217.407382 233.691106 
L 224.293485 233.691106 
L 224.293485 233.336471 
L 224.732659 233.336471 
L 224.732659 232.981835 
L 225.620583 232.981835 
L 225.620583 232.6272 
L 225.774422 232.6272 
L 225.774422 232.272565 
L 226.132876 232.272565 
L 226.132876 231.917929 
L 226.366872 231.917929 
L 226.465984 231.208659 
L 226.645597 231.208659 
L 226.645597 230.854024 
L 226.807534 230.854024 
L 226.807534 230.499388 
L 227.257485 230.499388 
L 227.257485 230.144753 
L 227.407821 230.144753 
L 227.457817 229.435482 
L 227.60925 229.435482 
L 227.60925 229.080847 
L 227.981981 229.080847 
L 228.018993 228.371576 
L 228.293642 228.371576 
L 228.293642 228.016941 
L 229.584927 228.016941 
L 229.584927 227.662306 
L 237.002524 227.662306 
L 237.002524 227.307671 
L 237.299023 227.307671 
L 237.299023 226.953035 
L 237.620757 226.953035 
L 237.719715 226.243765 
L 237.968628 226.243765 
L 237.968628 225.889129 
L 238.112982 225.889129 
L 238.216199 225.179859 
L 238.364481 225.179859 
L 238.46156 224.470588 
L 238.543515 224.470588 
L 238.645461 223.761318 
L 238.700413 223.761318 
L 238.700413 223.406682 
L 238.8514 223.406682 
L 238.908575 222.697412 
L 239.087814 222.697412 
L 239.09 221.988141 
L 239.260306 221.988141 
L 239.351863 221.278871 
L 239.435287 221.278871 
L 239.461861 220.5696 
L 239.7275 220.5696 
L 239.734896 219.860329 
L 239.870786 219.860329 
L 239.870786 219.505694 
L 239.98724 219.505694 
L 240.055326 218.796424 
L 240.185148 218.796424 
L 240.272836 218.087153 
L 240.321932 218.087153 
L 240.321932 217.377882 
L 240.443039 217.377882 
L 240.532293 215.604706 
L 240.57185 215.604706 
L 240.674625 213.831529 
L 240.700844 213.831529 
L 240.797428 212.412988 
L 240.823643 212.412988 
L 240.885461 211.349082 
L 240.955823 211.349082 
L 241.041204 209.575906 
L 241.09074 209.575906 
L 241.167845 208.512 
L 241.207609 208.512 
L 241.293856 207.093459 
L 241.332978 207.093459 
L 241.417365 205.674918 
L 251.704803 205.674918 
L 251.704803 205.320282 
L 251.888514 205.320282 
L 251.934714 203.901741 
L 252.019601 203.901741 
L 252.019601 203.547106 
L 252.138646 203.547106 
L 252.212344 202.837835 
L 252.275995 202.837835 
L 252.352878 201.773929 
L 252.395619 201.773929 
L 252.504012 199.646118 
L 252.53435 199.646118 
L 252.630569 197.163671 
L 252.667934 197.163671 
L 252.760597 195.390494 
L 252.784073 195.390494 
L 252.894894 192.553412 
L 252.900345 192.553412 
L 252.989553 190.070965 
L 253.029339 190.070965 
L 253.134727 186.169976 
L 253.167686 186.169976 
L 253.271133 182.978259 
L 253.299003 182.978259 
L 253.385322 181.205082 
L 253.430204 181.205082 
L 253.521818 178.368 
L 253.56027 178.368 
L 253.655932 175.176282 
L 253.687823 175.176282 
L 253.784424 171.984565 
L 253.81732 171.984565 
L 253.894526 170.211388 
L 253.939369 170.211388 
L 254.014951 168.438212 
L 254.072109 168.438212 
L 254.160958 167.019671 
L 254.196929 167.019671 
L 254.280723 165.246494 
L 254.321711 165.246494 
L 254.404413 163.827953 
L 265.524663 163.827953 
L 265.633016 162.054776 
L 265.656834 162.054776 
L 265.763576 159.926965 
L 265.776208 159.926965 
L 265.881137 156.735247 
L 265.898846 156.735247 
L 266.009035 151.061082 
L 266.015263 151.061082 
L 266.119333 146.805459 
L 266.126519 146.805459 
L 266.236907 141.485929 
L 266.238155 141.485929 
L 266.348091 135.811765 
L 266.361832 135.811765 
L 266.468996 126.945882 
L 266.473231 126.945882 
L 266.583186 116.306824 
L 266.585425 116.306824 
L 266.694812 104.958494 
L 266.697374 104.958494 
L 266.804541 94.319435 
L 266.810886 94.319435 
L 266.920136 84.744282 
L 266.922653 84.744282 
L 267.030679 74.459859 
L 267.036193 74.459859 
L 267.145143 62.402259 
L 267.148423 62.402259 
L 267.254798 51.053929 
L 267.259893 51.053929 
L 267.370476 43.606588 
L 267.37982 43.606588 
L 267.481367 38.641694 
L 267.514621 38.641694 
L 267.616644 34.740706 
L 267.640237 34.740706 
L 267.730616 31.194353 
L 267.754185 31.194353 
L 267.856842 28.357271 
L 267.876731 28.357271 
L 267.916157 27.648 
L 360.8064 27.648 
L 360.8064 27.648 
" style="fill: none; stroke: #ff00ff; stroke-width: 1.5; stroke-linecap: square"/>
   </g>
   <g id="line2d_40">
    <defs>
     <path id="m6e0d65911e" d="M -0 8.485281 
L 5.091169 0 
L 0 -8.485281 
L -5.091169 -0 
z
" style="stroke: #ff00ff; stroke-width: 1.5; stroke-linejoin: miter"/>
    </defs>
    <g>
     <use xlink:href="#m6e0d65911e" x="224.293485" y="233.691106" style="fill-opacity: 0; stroke: #ff00ff; stroke-width: 1.5; stroke-linejoin: miter"/>
     <use xlink:href="#m6e0d65911e" x="266.361832" y="135.457129" style="fill-opacity: 0; stroke: #ff00ff; stroke-width: 1.5; stroke-linejoin: miter"/>
     <use xlink:href="#m6e0d65911e" x="267.916157" y="27.648" style="fill-opacity: 0; stroke: #ff00ff; stroke-width: 1.5; stroke-linejoin: miter"/>
     <use xlink:href="#m6e0d65911e" x="267.916157" y="27.648" style="fill-opacity: 0; stroke: #ff00ff; stroke-width: 1.5; stroke-linejoin: miter"/>
     <use xlink:href="#m6e0d65911e" x="360.8064" y="27.648" style="fill-opacity: 0; stroke: #ff00ff; stroke-width: 1.5; stroke-linejoin: miter"/>
    </g>
   </g>
   <g id="line2d_41">
    <path style="fill: none; stroke: #ff00ff; stroke-width: 1.5; stroke-linecap: square"/>
    <g/>
   </g>
   <g id="line2d_42">
    <defs>
     <path id="m93e6db1721" d="M 0 1.5 
C 0.397805 1.5 0.77937 1.341951 1.06066 1.06066 
C 1.341951 0.77937 1.5 0.397805 1.5 0 
C 1.5 -0.397805 1.341951 -0.77937 1.06066 -1.06066 
C 0.77937 -1.341951 0.397805 -1.5 0 -1.5 
C -0.397805 -1.5 -0.77937 -1.341951 -1.06066 -1.06066 
C -1.341951 -0.77937 -1.5 -0.397805 -1.5 0 
C -1.5 0.397805 -1.341951 0.77937 -1.06066 1.06066 
C -0.77937 1.341951 -0.397805 1.5 0 1.5 
z
" style="stroke: #ff7500"/>
    </defs>
    <g>
     <use xlink:href="#m93e6db1721" x="289.358061" y="27.648" style="fill: #ff7500; stroke: #ff7500"/>
     <use xlink:href="#m93e6db1721" x="289.358061" y="27.648" style="fill: #ff7500; stroke: #ff7500"/>
    </g>
   </g>
   <g id="line2d_43">
    <path d="M 98.403267 298.944 
L 98.403267 296.461553 
L 99.950294 296.461553 
L 99.950294 296.106918 
L 100.630889 296.106918 
L 100.630889 295.397647 
L 101.287718 295.397647 
L 101.287718 293.624471 
L 104.42317 293.624471 
L 104.42317 292.9152 
L 104.578638 292.9152 
L 104.578638 292.205929 
L 104.732832 292.205929 
L 104.732832 291.142024 
L 105.112877 291.142024 
L 105.187973 290.078118 
L 105.705415 290.078118 
L 105.705415 288.659576 
L 106.350446 288.659576 
L 106.42077 285.467859 
L 106.490831 285.467859 
L 106.490831 282.985412 
L 108.29012 282.985412 
L 108.29012 282.276141 
L 108.416798 282.276141 
L 108.479818 276.956612 
L 108.667622 276.956612 
L 108.667622 275.892706 
L 109.037698 275.892706 
L 109.037698 275.183435 
L 109.22004 275.183435 
L 109.22004 274.474165 
L 109.460447 274.474165 
L 109.460447 273.055624 
L 110.163764 273.055624 
L 110.163764 272.700988 
L 110.392479 272.700988 
L 110.392479 270.218541 
L 110.674517 270.218541 
L 110.674517 269.863906 
L 110.841731 269.863906 
L 110.841731 269.509271 
L 111.062397 269.509271 
L 111.117162 267.736094 
L 111.496112 267.736094 
L 111.496112 266.672188 
L 111.656212 266.672188 
L 111.709277 265.253647 
L 111.920053 265.253647 
L 112.024561 263.835106 
L 112.487797 263.835106 
L 112.487797 262.416565 
L 112.690074 262.416565 
L 112.790402 260.643388 
L 113.235374 260.643388 
L 113.235374 258.870212 
L 113.429811 258.870212 
L 113.429811 258.160941 
L 113.954374 258.160941 
L 113.954374 257.806306 
L 114.234452 257.806306 
L 114.234452 257.451671 
L 114.961559 257.451671 
L 114.961559 257.097035 
L 115.314838 257.097035 
L 115.314838 256.7424 
L 115.959869 256.7424 
L 115.959869 256.387765 
L 132.864066 256.387765 
L 132.864066 256.033129 
L 133.069471 256.033129 
L 133.086488 255.323859 
L 133.205173 255.323859 
L 133.205173 254.969224 
L 133.373435 254.969224 
L 133.373435 254.614588 
L 134.352574 254.614588 
L 134.352574 254.259953 
L 134.7148 254.259953 
L 134.7148 253.905318 
L 134.916493 253.905318 
L 134.916493 253.550682 
L 136.068734 253.550682 
L 136.170066 252.486776 
L 136.989317 252.486776 
L 136.989317 252.132141 
L 138.667556 252.132141 
L 138.667556 251.777506 
L 141.879022 251.777506 
L 141.879022 251.422871 
L 143.036385 251.422871 
L 143.036385 251.068235 
L 143.705836 251.068235 
L 143.705836 250.7136 
L 169.781767 250.7136 
L 169.781767 250.358965 
L 188.048608 250.358965 
L 188.048608 250.004329 
L 188.481326 250.004329 
L 188.481326 249.649694 
L 188.835059 249.649694 
L 188.835059 249.295059 
L 189.093245 249.295059 
L 189.093245 248.940424 
L 200.048601 248.940424 
L 200.048601 248.585788 
L 201.018055 248.585788 
L 201.018055 248.231153 
L 202.713303 248.231153 
L 202.713303 247.876518 
L 203.015761 247.876518 
L 203.015761 247.521882 
L 203.636881 247.521882 
L 203.636881 247.167247 
L 204.499286 247.167247 
L 204.596809 246.457976 
L 204.791102 246.457976 
L 204.791102 246.103341 
L 216.743111 246.103341 
L 216.743111 245.748706 
L 217.526234 245.748706 
L 217.526234 245.394071 
L 218.077409 245.394071 
L 218.077409 245.039435 
L 218.210735 245.039435 
L 218.210735 244.6848 
L 218.791507 244.6848 
L 218.791507 244.330165 
L 221.148731 244.330165 
L 221.148731 243.975529 
L 230.340201 243.975529 
L 230.340201 243.620894 
L 230.679337 243.620894 
L 230.789746 242.911624 
L 230.955934 242.911624 
L 230.955934 242.556988 
L 231.070969 242.556988 
L 231.070969 242.202353 
L 231.219758 242.202353 
L 231.221142 241.493082 
L 231.725334 241.493082 
L 231.725334 241.138447 
L 231.889815 241.138447 
L 231.966687 240.429176 
L 232.236744 240.429176 
L 232.236744 240.074541 
L 232.506599 240.074541 
L 232.506599 239.719906 
L 232.645779 239.719906 
L 232.645779 239.365271 
L 233.592468 239.365271 
L 233.592468 239.010635 
L 242.904499 239.010635 
L 242.904499 238.656 
L 243.017805 238.656 
L 243.07612 237.946729 
L 243.363752 237.946729 
L 243.423707 237.237459 
L 243.626355 237.237459 
L 243.626355 236.882824 
L 243.769346 236.882824 
L 243.862785 236.173553 
L 244.003108 236.173553 
L 244.003108 235.818918 
L 244.119954 235.818918 
L 244.119954 235.464282 
L 244.469304 235.464282 
L 244.469304 235.109647 
L 244.811432 235.109647 
L 244.811432 234.755012 
L 245.132127 234.755012 
L 245.132127 234.400376 
L 254.900635 234.400376 
L 254.900635 234.045741 
L 255.125623 234.045741 
L 255.125623 233.691106 
L 255.687418 233.691106 
L 255.703772 232.981835 
L 255.942161 232.981835 
L 255.942161 232.6272 
L 256.065135 232.6272 
L 256.065135 232.272565 
L 256.268532 232.272565 
L 256.34761 231.208659 
L 256.702784 231.208659 
L 256.702784 230.854024 
L 256.951302 230.854024 
L 257.037675 230.144753 
L 257.152294 230.144753 
L 257.152294 229.790118 
L 268.956488 229.790118 
L 268.956488 229.435482 
L 269.383156 229.435482 
L 269.383156 229.080847 
L 269.576792 229.080847 
L 269.576792 228.726212 
L 269.697438 228.726212 
L 269.742768 228.016941 
L 269.813627 228.016941 
L 269.826266 227.307671 
L 269.96248 227.307671 
L 270.039655 226.5984 
L 270.089885 226.5984 
L 270.154477 224.825224 
L 270.235243 224.825224 
L 270.339554 223.052047 
L 270.378244 223.052047 
L 270.467933 221.633506 
L 270.507138 221.633506 
L 270.60427 219.505694 
L 270.67996 219.505694 
L 270.790648 217.377882 
L 270.800588 217.377882 
L 270.908422 215.250071 
L 270.915761 215.250071 
L 271.010644 212.412988 
L 271.045158 212.412988 
L 271.151702 208.866635 
L 271.156429 208.866635 
L 271.263127 204.965647 
L 271.280151 204.965647 
L 271.389052 201.419294 
L 271.397384 201.419294 
L 271.498877 197.872941 
L 271.520878 197.872941 
L 271.630036 193.971953 
L 271.634838 193.971953 
L 271.723579 190.780235 
L 271.747737 190.780235 
L 271.855473 186.169976 
L 271.883278 186.169976 
L 271.992493 183.332894 
L 272.014737 183.332894 
L 272.11187 181.914353 
L 272.144277 181.914353 
L 272.240569 179.077271 
L 272.2557 179.077271 
L 272.356668 176.594824 
L 272.368186 176.594824 
L 272.466349 173.757741 
L 272.483584 173.757741 
L 272.568992 171.275294 
L 272.594791 171.275294 
L 272.692708 168.083576 
L 272.716844 168.083576 
L 272.817426 166.3104 
L 272.850992 166.3104 
L 272.94098 164.537224 
L 272.97562 164.537224 
L 273.069455 162.764047 
L 285.946819 162.764047 
L 285.946819 162.409412 
L 286.122745 162.409412 
L 286.122745 162.054776 
L 286.253565 162.054776 
L 286.253565 161.700141 
L 286.593104 161.700141 
L 286.695746 158.863059 
L 286.705248 158.863059 
L 286.812312 154.2528 
L 286.830475 154.2528 
L 286.930443 147.869365 
L 286.947085 147.869365 
L 287.05225 139.712753 
L 287.058923 139.712753 
L 287.167983 130.846871 
L 287.176402 130.846871 
L 287.279025 122.335624 
L 287.292116 122.335624 
L 287.402905 110.987294 
L 287.408045 110.987294 
L 287.513374 101.057506 
L 287.525891 101.057506 
L 287.634125 90.773082 
L 287.642351 90.773082 
L 287.746815 82.971106 
L 287.753858 82.971106 
L 287.864241 76.942306 
L 287.867698 76.942306 
L 287.970442 71.268141 
L 287.991537 71.268141 
L 288.097056 65.948612 
L 288.119171 65.948612 
L 288.220554 59.565176 
L 288.235193 59.565176 
L 288.338972 54.245647 
L 288.364322 54.245647 
L 288.475003 49.635388 
L 288.484242 49.635388 
L 288.581749 46.089035 
L 288.596792 46.089035 
L 288.701859 41.478776 
L 288.727819 41.478776 
L 288.819312 37.932424 
L 288.858419 37.932424 
L 288.963333 34.386071 
L 288.978413 34.386071 
L 289.072107 31.903624 
L 289.097408 31.903624 
L 289.204996 29.775812 
L 289.227571 29.775812 
L 289.33268 28.002635 
L 289.358061 28.002635 
L 289.358061 27.648 
L 360.8064 27.648 
L 360.8064 27.648 
" style="fill: none; stroke: #ff7500; stroke-width: 1.5; stroke-linecap: square"/>
   </g>
   <g id="line2d_44">
    <defs>
     <path id="m0a16b1184f" d="M 0 -6 
L -1.347084 -1.854102 
L -5.706339 -1.854102 
L -2.179628 0.708204 
L -3.526712 4.854102 
L -0 2.291796 
L 3.526712 4.854102 
L 2.179628 0.708204 
L 5.706339 -1.854102 
L 1.347084 -1.854102 
z
" style="stroke: #ff7500; stroke-width: 1.5; stroke-linejoin: bevel"/>
    </defs>
    <g>
     <use xlink:href="#m0a16b1184f" x="136.170066" y="252.841412" style="fill-opacity: 0; stroke: #ff7500; stroke-width: 1.5; stroke-linejoin: bevel"/>
     <use xlink:href="#m0a16b1184f" x="257.152294" y="229.790118" style="fill-opacity: 0; stroke: #ff7500; stroke-width: 1.5; stroke-linejoin: bevel"/>
     <use xlink:href="#m0a16b1184f" x="288.001977" y="70.558871" style="fill-opacity: 0; stroke: #ff7500; stroke-width: 1.5; stroke-linejoin: bevel"/>
     <use xlink:href="#m0a16b1184f" x="289.358061" y="27.648" style="fill-opacity: 0; stroke: #ff7500; stroke-width: 1.5; stroke-linejoin: bevel"/>
     <use xlink:href="#m0a16b1184f" x="360.8064" y="27.648" style="fill-opacity: 0; stroke: #ff7500; stroke-width: 1.5; stroke-linejoin: bevel"/>
    </g>
   </g>
   <g id="line2d_45">
    <path style="fill: none; stroke: #ff7500; stroke-width: 1.5; stroke-linecap: square"/>
    <g/>
   </g>
   <g id="line2d_46">
    <path d="M 360.8064 27.648 
L 380.514816 206.70336 
" style="fill: none; stroke: #ff7500; stroke-width: 1.5; stroke-linecap: square"/>
    <g>
     <use xlink:href="#m0a16b1184f" x="360.8064" y="27.648" style="fill-opacity: 0; stroke: #ff7500; stroke-width: 1.5; stroke-linejoin: bevel"/>
     <use xlink:href="#m0a16b1184f" x="380.514816" y="206.70336" style="fill-opacity: 0; stroke: #ff7500; stroke-width: 1.5; stroke-linejoin: bevel"/>
    </g>
   </g>
   <g id="line2d_47">
    <path d="M 360.8064 27.648 
L 380.514816 119.88864 
" style="fill: none; stroke: #000080; stroke-width: 1.5; stroke-linecap: square"/>
    <g>
     <use xlink:href="#m28cbbd221f" x="360.8064" y="27.648" style="fill-opacity: 0; stroke: #000080; stroke-width: 1.5"/>
     <use xlink:href="#m28cbbd221f" x="380.514816" y="119.88864" style="fill-opacity: 0; stroke: #000080; stroke-width: 1.5"/>
    </g>
   </g>
   <g id="line2d_48">
    <path d="M 360.8064 27.648 
L 380.514816 33.07392 
" style="fill: none; stroke: #ff00ff; stroke-width: 1.5; stroke-linecap: square"/>
    <g>
     <use xlink:href="#m6e0d65911e" x="360.8064" y="27.648" style="fill-opacity: 0; stroke: #ff00ff; stroke-width: 1.5; stroke-linejoin: miter"/>
     <use xlink:href="#m6e0d65911e" x="380.514816" y="33.07392" style="fill-opacity: 0; stroke: #ff00ff; stroke-width: 1.5; stroke-linejoin: miter"/>
    </g>
   </g>
   <g id="line2d_49">
    <path d="M 360.8064 298.944 
L 360.8064 27.648 
" style="fill: none; stroke: #000000; stroke-width: 1.5; stroke-linecap: square"/>
   </g>
   <g id="patch_3">
    <path d="M 57.6 298.944 
L 360.8064 298.944 
" style="fill: none; stroke: #000000; stroke-width: 0.8; stroke-linejoin: miter; stroke-linecap: square"/>
   </g>
   <g id="patch_4">
    <path d="M 57.6 27.648 
L 360.8064 27.648 
" style="fill: none; stroke: #000000; stroke-width: 0.8; stroke-linejoin: miter; stroke-linecap: square"/>
   </g>
   <g id="text_13">
    <!-- best 2009 -->
    <g transform="translate(386.578944 297.381205)scale(0.14 -0.14)">
     <defs>
      <path id="DejaVuSans-62" d="M 3116 1747 
Q 3116 2381 2855 2742 
Q 2594 3103 2138 3103 
Q 1681 3103 1420 2742 
Q 1159 2381 1159 1747 
Q 1159 1113 1420 752 
Q 1681 391 2138 391 
Q 2594 391 2855 752 
Q 3116 1113 3116 1747 
z
M 1159 2969 
Q 1341 3281 1617 3432 
Q 1894 3584 2278 3584 
Q 2916 3584 3314 3078 
Q 3713 2572 3713 1747 
Q 3713 922 3314 415 
Q 2916 -91 2278 -91 
Q 1894 -91 1617 61 
Q 1341 213 1159 525 
L 1159 0 
L 581 0 
L 581 4863 
L 1159 4863 
L 1159 2969 
z
" transform="scale(0.015625)"/>
      <path id="DejaVuSans-39" d="M 703 97 
L 703 672 
Q 941 559 1184 500 
Q 1428 441 1663 441 
Q 2288 441 2617 861 
Q 2947 1281 2994 2138 
Q 2813 1869 2534 1725 
Q 2256 1581 1919 1581 
Q 1219 1581 811 2004 
Q 403 2428 403 3163 
Q 403 3881 828 4315 
Q 1253 4750 1959 4750 
Q 2769 4750 3195 4129 
Q 3622 3509 3622 2328 
Q 3622 1225 3098 567 
Q 2575 -91 1691 -91 
Q 1453 -91 1209 -44 
Q 966 3 703 97 
z
M 1959 2075 
Q 2384 2075 2632 2365 
Q 2881 2656 2881 3163 
Q 2881 3666 2632 3958 
Q 2384 4250 1959 4250 
Q 1534 4250 1286 3958 
Q 1038 3666 1038 3163 
Q 1038 2656 1286 2365 
Q 1534 2075 1959 2075 
z
" transform="scale(0.015625)"/>
     </defs>
     <use xlink:href="#DejaVuSans-62"/>
     <use xlink:href="#DejaVuSans-65" x="63.476562"/>
     <use xlink:href="#DejaVuSans-73" x="125"/>
     <use xlink:href="#DejaVuSans-74" x="177.099609"/>
     <use xlink:href="#DejaVuSans-20" x="216.308594"/>
     <use xlink:href="#DejaVuSans-32" x="248.095703"/>
     <use xlink:href="#DejaVuSans-30" x="311.71875"/>
     <use xlink:href="#DejaVuSans-30" x="375.341797"/>
     <use xlink:href="#DejaVuSans-39" x="438.964844"/>
    </g>
   </g>
   <g id="text_14">
    <!-- CMA-ES-20 -->
    <g transform="translate(386.578944 210.566485)scale(0.14 -0.14)">
     <defs>
      <path id="DejaVuSans-43" d="M 4122 4306 
L 4122 3641 
Q 3803 3938 3442 4084 
Q 3081 4231 2675 4231 
Q 1875 4231 1450 3742 
Q 1025 3253 1025 2328 
Q 1025 1406 1450 917 
Q 1875 428 2675 428 
Q 3081 428 3442 575 
Q 3803 722 4122 1019 
L 4122 359 
Q 3791 134 3420 21 
Q 3050 -91 2638 -91 
Q 1578 -91 968 557 
Q 359 1206 359 2328 
Q 359 3453 968 4101 
Q 1578 4750 2638 4750 
Q 3056 4750 3426 4639 
Q 3797 4528 4122 4306 
z
" transform="scale(0.015625)"/>
      <path id="DejaVuSans-4d" d="M 628 4666 
L 1569 4666 
L 2759 1491 
L 3956 4666 
L 4897 4666 
L 4897 0 
L 4281 0 
L 4281 4097 
L 3078 897 
L 2444 897 
L 1241 4097 
L 1241 0 
L 628 0 
L 628 4666 
z
" transform="scale(0.015625)"/>
      <path id="DejaVuSans-41" d="M 2188 4044 
L 1331 1722 
L 3047 1722 
L 2188 4044 
z
M 1831 4666 
L 2547 4666 
L 4325 0 
L 3669 0 
L 3244 1197 
L 1141 1197 
L 716 0 
L 50 0 
L 1831 4666 
z
" transform="scale(0.015625)"/>
      <path id="DejaVuSans-45" d="M 628 4666 
L 3578 4666 
L 3578 4134 
L 1259 4134 
L 1259 2753 
L 3481 2753 
L 3481 2222 
L 1259 2222 
L 1259 531 
L 3634 531 
L 3634 0 
L 628 0 
L 628 4666 
z
" transform="scale(0.015625)"/>
      <path id="DejaVuSans-53" d="M 3425 4513 
L 3425 3897 
Q 3066 4069 2747 4153 
Q 2428 4238 2131 4238 
Q 1616 4238 1336 4038 
Q 1056 3838 1056 3469 
Q 1056 3159 1242 3001 
Q 1428 2844 1947 2747 
L 2328 2669 
Q 3034 2534 3370 2195 
Q 3706 1856 3706 1288 
Q 3706 609 3251 259 
Q 2797 -91 1919 -91 
Q 1588 -91 1214 -16 
Q 841 59 441 206 
L 441 856 
Q 825 641 1194 531 
Q 1563 422 1919 422 
Q 2459 422 2753 634 
Q 3047 847 3047 1241 
Q 3047 1584 2836 1778 
Q 2625 1972 2144 2069 
L 1759 2144 
Q 1053 2284 737 2584 
Q 422 2884 422 3419 
Q 422 4038 858 4394 
Q 1294 4750 2059 4750 
Q 2388 4750 2728 4690 
Q 3069 4631 3425 4513 
z
" transform="scale(0.015625)"/>
     </defs>
     <use xlink:href="#DejaVuSans-43"/>
     <use xlink:href="#DejaVuSans-4d" x="69.824219"/>
     <use xlink:href="#DejaVuSans-41" x="156.103516"/>
     <use xlink:href="#DejaVuSans-2d" x="222.261719"/>
     <use xlink:href="#DejaVuSans-45" x="258.345703"/>
     <use xlink:href="#DejaVuSans-53" x="321.529297"/>
     <use xlink:href="#DejaVuSans-2d" x="385.005859"/>
     <use xlink:href="#DejaVuSans-32" x="421.089844"/>
     <use xlink:href="#DejaVuSans-30" x="484.712891"/>
    </g>
   </g>
   <g id="text_15">
    <!-- ddcma0 -->
    <g transform="translate(386.578944 123.751765)scale(0.14 -0.14)">
     <use xlink:href="#DejaVuSans-64"/>
     <use xlink:href="#DejaVuSans-64" x="63.476562"/>
     <use xlink:href="#DejaVuSans-63" x="126.953125"/>
     <use xlink:href="#DejaVuSans-6d" x="181.933594"/>
     <use xlink:href="#DejaVuSans-61" x="279.345703"/>
     <use xlink:href="#DejaVuSans-30" x="340.625"/>
    </g>
   </g>
   <g id="text_16">
    <!-- ddcma1 -->
    <g transform="translate(386.578944 36.937045)scale(0.14 -0.14)">
     <use xlink:href="#DejaVuSans-64"/>
     <use xlink:href="#DejaVuSans-64" x="63.476562"/>
     <use xlink:href="#DejaVuSans-63" x="126.953125"/>
     <use xlink:href="#DejaVuSans-6d" x="181.933594"/>
     <use xlink:href="#DejaVuSans-61" x="279.345703"/>
     <use xlink:href="#DejaVuSans-31" x="340.625"/>
    </g>
   </g>
   <g id="text_17">
    <!-- bbob f20, 20-D -->
    <g transform="translate(60.632064 38.111366)scale(0.102 -0.102)">
     <defs>
      <path id="DejaVuSans-44" d="M 1259 4147 
L 1259 519 
L 2022 519 
Q 2988 519 3436 956 
Q 3884 1394 3884 2338 
Q 3884 3275 3436 3711 
Q 2988 4147 2022 4147 
L 1259 4147 
z
M 628 4666 
L 1925 4666 
Q 3281 4666 3915 4102 
Q 4550 3538 4550 2338 
Q 4550 1131 3912 565 
Q 3275 0 1925 0 
L 628 0 
L 628 4666 
z
" transform="scale(0.015625)"/>
     </defs>
     <use xlink:href="#DejaVuSans-62"/>
     <use xlink:href="#DejaVuSans-62" x="63.476562"/>
     <use xlink:href="#DejaVuSans-6f" x="126.953125"/>
     <use xlink:href="#DejaVuSans-62" x="188.134766"/>
     <use xlink:href="#DejaVuSans-20" x="251.611328"/>
     <use xlink:href="#DejaVuSans-66" x="283.398438"/>
     <use xlink:href="#DejaVuSans-32" x="318.603516"/>
     <use xlink:href="#DejaVuSans-30" x="382.226562"/>
     <use xlink:href="#DejaVuSans-2c" x="445.849609"/>
     <use xlink:href="#DejaVuSans-20" x="477.636719"/>
     <use xlink:href="#DejaVuSans-32" x="509.423828"/>
     <use xlink:href="#DejaVuSans-30" x="573.046875"/>
     <use xlink:href="#DejaVuSans-2d" x="636.669922"/>
     <use xlink:href="#DejaVuSans-44" x="672.753906"/>
    </g>
    <!-- 51 targets: 100..1e-08 -->
    <g transform="translate(60.632064 49.533135)scale(0.102 -0.102)">
     <defs>
      <path id="DejaVuSans-35" d="M 691 4666 
L 3169 4666 
L 3169 4134 
L 1269 4134 
L 1269 2991 
Q 1406 3038 1543 3061 
Q 1681 3084 1819 3084 
Q 2600 3084 3056 2656 
Q 3513 2228 3513 1497 
Q 3513 744 3044 326 
Q 2575 -91 1722 -91 
Q 1428 -91 1123 -41 
Q 819 9 494 109 
L 494 744 
Q 775 591 1075 516 
Q 1375 441 1709 441 
Q 2250 441 2565 725 
Q 2881 1009 2881 1497 
Q 2881 1984 2565 2268 
Q 2250 2553 1709 2553 
Q 1456 2553 1204 2497 
Q 953 2441 691 2322 
L 691 4666 
z
" transform="scale(0.015625)"/>
      <path id="DejaVuSans-3a" d="M 750 794 
L 1409 794 
L 1409 0 
L 750 0 
L 750 794 
z
M 750 3309 
L 1409 3309 
L 1409 2516 
L 750 2516 
L 750 3309 
z
" transform="scale(0.015625)"/>
     </defs>
     <use xlink:href="#DejaVuSans-35"/>
     <use xlink:href="#DejaVuSans-31" x="63.623047"/>
     <use xlink:href="#DejaVuSans-20" x="127.246094"/>
     <use xlink:href="#DejaVuSans-74" x="159.033203"/>
     <use xlink:href="#DejaVuSans-61" x="198.242188"/>
     <use xlink:href="#DejaVuSans-72" x="259.521484"/>
     <use xlink:href="#DejaVuSans-67" x="298.884766"/>
     <use xlink:href="#DejaVuSans-65" x="362.361328"/>
     <use xlink:href="#DejaVuSans-74" x="423.884766"/>
     <use xlink:href="#DejaVuSans-73" x="463.09375"/>
     <use xlink:href="#DejaVuSans-3a" x="515.193359"/>
     <use xlink:href="#DejaVuSans-20" x="548.884766"/>
     <use xlink:href="#DejaVuSans-31" x="580.671875"/>
     <use xlink:href="#DejaVuSans-30" x="644.294922"/>
     <use xlink:href="#DejaVuSans-30" x="707.917969"/>
     <use xlink:href="#DejaVuSans-2e" x="771.541016"/>
     <use xlink:href="#DejaVuSans-2e" x="803.328125"/>
     <use xlink:href="#DejaVuSans-31" x="835.115234"/>
     <use xlink:href="#DejaVuSans-65" x="898.738281"/>
     <use xlink:href="#DejaVuSans-2d" x="960.261719"/>
     <use xlink:href="#DejaVuSans-30" x="996.345703"/>
     <use xlink:href="#DejaVuSans-38" x="1059.96875"/>
    </g>
    <!-- 15 instances -->
    <g transform="translate(60.632064 60.954904)scale(0.102 -0.102)">
     <use xlink:href="#DejaVuSans-31"/>
     <use xlink:href="#DejaVuSans-35" x="63.623047"/>
     <use xlink:href="#DejaVuSans-20" x="127.246094"/>
     <use xlink:href="#DejaVuSans-69" x="159.033203"/>
     <use xlink:href="#DejaVuSans-6e" x="186.816406"/>
     <use xlink:href="#DejaVuSans-73" x="250.195312"/>
     <use xlink:href="#DejaVuSans-74" x="302.294922"/>
     <use xlink:href="#DejaVuSans-61" x="341.503906"/>
     <use xlink:href="#DejaVuSans-6e" x="402.783203"/>
     <use xlink:href="#DejaVuSans-63" x="466.162109"/>
     <use xlink:href="#DejaVuSans-65" x="521.142578"/>
     <use xlink:href="#DejaVuSans-73" x="582.666016"/>
    </g>
   </g>
   <g id="text_18">
    <!-- v2.6 -->
    <g style="fill: #808080" transform="translate(198.292262 294.151352)scale(0.1 -0.1)">
     <use xlink:href="#DejaVuSans-76"/>
     <use xlink:href="#DejaVuSans-32" x="59.179688"/>
     <use xlink:href="#DejaVuSans-2e" x="122.802734"/>
     <use xlink:href="#DejaVuSans-36" x="154.589844"/>
    </g>
   </g>
   <g id="text_19">
    <!-- 20 Schwefel x*sin(x) -->
    <g transform="translate(106.189137 21.648)scale(0.2 -0.2)">
     <defs>
      <path id="DejaVuSans-68" d="M 3513 2113 
L 3513 0 
L 2938 0 
L 2938 2094 
Q 2938 2591 2744 2837 
Q 2550 3084 2163 3084 
Q 1697 3084 1428 2787 
Q 1159 2491 1159 1978 
L 1159 0 
L 581 0 
L 581 4863 
L 1159 4863 
L 1159 2956 
Q 1366 3272 1645 3428 
Q 1925 3584 2291 3584 
Q 2894 3584 3203 3211 
Q 3513 2838 3513 2113 
z
" transform="scale(0.015625)"/>
      <path id="DejaVuSans-77" d="M 269 3500 
L 844 3500 
L 1563 769 
L 2278 3500 
L 2956 3500 
L 3675 769 
L 4391 3500 
L 4966 3500 
L 4050 0 
L 3372 0 
L 2619 2869 
L 1863 0 
L 1184 0 
L 269 3500 
z
" transform="scale(0.015625)"/>
      <path id="DejaVuSans-78" d="M 3513 3500 
L 2247 1797 
L 3578 0 
L 2900 0 
L 1881 1375 
L 863 0 
L 184 0 
L 1544 1831 
L 300 3500 
L 978 3500 
L 1906 2253 
L 2834 3500 
L 3513 3500 
z
" transform="scale(0.015625)"/>
      <path id="DejaVuSans-2a" d="M 3009 3897 
L 1888 3291 
L 3009 2681 
L 2828 2375 
L 1778 3009 
L 1778 1831 
L 1422 1831 
L 1422 3009 
L 372 2375 
L 191 2681 
L 1313 3291 
L 191 3897 
L 372 4206 
L 1422 3572 
L 1422 4750 
L 1778 4750 
L 1778 3572 
L 2828 4206 
L 3009 3897 
z
" transform="scale(0.015625)"/>
     </defs>
     <use xlink:href="#DejaVuSans-32"/>
     <use xlink:href="#DejaVuSans-30" x="63.623047"/>
     <use xlink:href="#DejaVuSans-20" x="127.246094"/>
     <use xlink:href="#DejaVuSans-53" x="159.033203"/>
     <use xlink:href="#DejaVuSans-63" x="222.509766"/>
     <use xlink:href="#DejaVuSans-68" x="277.490234"/>
     <use xlink:href="#DejaVuSans-77" x="340.869141"/>
     <use xlink:href="#DejaVuSans-65" x="422.65625"/>
     <use xlink:href="#DejaVuSans-66" x="484.179688"/>
     <use xlink:href="#DejaVuSans-65" x="519.384766"/>
     <use xlink:href="#DejaVuSans-6c" x="580.908203"/>
     <use xlink:href="#DejaVuSans-20" x="608.691406"/>
     <use xlink:href="#DejaVuSans-78" x="640.478516"/>
     <use xlink:href="#DejaVuSans-2a" x="699.658203"/>
     <use xlink:href="#DejaVuSans-73" x="749.658203"/>
     <use xlink:href="#DejaVuSans-69" x="801.757812"/>
     <use xlink:href="#DejaVuSans-6e" x="829.541016"/>
     <use xlink:href="#DejaVuSans-28" x="892.919922"/>
     <use xlink:href="#DejaVuSans-78" x="931.933594"/>
     <use xlink:href="#DejaVuSans-29" x="991.113281"/>
    </g>
   </g>
  </g>
 </g>
 <defs>
  <clipPath id="p97faa8f686">
   <rect x="57.6" y="27.648" width="303.2064" height="271.296"/>
  </clipPath>
 </defs>
</svg>
