<?xml version="1.0" encoding="utf-8" standalone="no"?>
<!DOCTYPE svg PUBLIC "-//W3C//DTD SVG 1.1//EN"
  "http://www.w3.org/Graphics/SVG/1.1/DTD/svg11.dtd">
<svg xmlns:xlink="http://www.w3.org/1999/xlink" width="460.8pt" height="345.6pt" viewBox="0 0 460.8 345.6" xmlns="http://www.w3.org/2000/svg" version="1.1">
 <metadata>
  <rdf:RDF xmlns:dc="http://purl.org/dc/elements/1.1/" xmlns:cc="http://creativecommons.org/ns#" xmlns:rdf="http://www.w3.org/1999/02/22-rdf-syntax-ns#">
   <cc:Work>
    <dc:type rdf:resource="http://purl.org/dc/dcmitype/StillImage"/>
    <dc:date>2022-03-28T13:37:01.692897</dc:date>
    <dc:format>image/svg+xml</dc:format>
    <dc:creator>
     <cc:Agent>
      <dc:title>Matplotlib v3.5.1, https://matplotlib.org/</dc:title>
     </cc:Agent>
    </dc:creator>
   </cc:Work>
  </rdf:RDF>
 </metadata>
 <defs>
  <style type="text/css">*{stroke-linejoin: round; stroke-linecap: butt}</style>
 </defs>
 <g id="figure_1">
  <g id="patch_1">
   <path d="M 0 345.6 
L 460.8 345.6 
L 460.8 0 
L 0 0 
z
" style="fill: #ffffff"/>
  </g>
  <g id="axes_1">
   <g id="patch_2">
    <path d="M 57.6 298.944 
L 360.8064 298.944 
L 360.8064 27.648 
L 57.6 27.648 
z
" style="fill: #ffffff"/>
   </g>
   <g id="line2d_1">
    <path d="M -1 224.470588 
L 245.179506 224.470588 
L 245.179506 219.151059 
L 254.322886 219.151059 
L 254.322886 213.831529 
L 269.414524 213.831529 
L 269.414524 208.512 
L 279.149823 208.512 
L 279.149823 203.192471 
L 288.874415 203.192471 
L 288.874415 197.872941 
L 298.187389 197.872941 
L 298.187389 192.553412 
L 301.20816 192.553412 
L 301.20816 187.233882 
L 305.565616 187.233882 
L 305.565616 181.914353 
L 308.76479 181.914353 
L 308.76479 176.594824 
L 308.843565 176.594824 
L 308.843565 171.275294 
L 308.925264 171.275294 
L 308.925264 165.955765 
L 309.040045 165.955765 
L 309.040045 160.636235 
L 310.897421 160.636235 
L 310.897421 155.316706 
L 319.799114 155.316706 
L 319.799114 149.997176 
L 319.80586 149.997176 
L 319.80586 144.677647 
L 319.811796 144.677647 
L 319.811796 139.358118 
L 319.81791 139.358118 
L 319.81791 134.038588 
L 319.822075 134.038588 
L 319.822075 128.719059 
L 319.827908 128.719059 
L 319.827908 123.399529 
L 319.830596 123.399529 
L 319.830596 118.08 
L 319.838277 118.08 
L 319.838277 112.760471 
L 319.84158 112.760471 
L 319.84158 107.440941 
L 319.8475 107.440941 
L 319.8475 102.121412 
L 319.852692 102.121412 
L 319.852692 96.801882 
L 319.857474 96.801882 
L 319.857474 91.482353 
L 319.861707 91.482353 
L 319.861707 86.162824 
L 319.867409 86.162824 
L 319.867409 80.843294 
L 319.872724 80.843294 
L 319.872724 75.523765 
L 319.878085 75.523765 
L 319.878085 70.204235 
L 319.882746 70.204235 
L 319.882746 64.884706 
L 319.886491 64.884706 
L 319.886491 59.565176 
L 319.891958 59.565176 
L 319.891958 54.245647 
L 319.896736 54.245647 
L 319.896736 48.926118 
L 319.901375 48.926118 
L 319.901375 43.606588 
L 319.904853 43.606588 
L 319.904853 38.287059 
L 319.90954 38.287059 
L 319.90954 32.967529 
L 319.914054 32.967529 
L 319.914054 27.648 
L 360.8064 27.648 
" style="fill: none; stroke: #f5deb3; stroke-width: 4; stroke-linecap: square"/>
   </g>
   <g id="line2d_2">
    <defs>
     <path id="m266979a060" d="M -0 7.778175 
L 7.778175 0 
L 0 -7.778175 
L -7.778175 -0 
z
" style="stroke: #f5deb3; stroke-width: 1.5; stroke-linejoin: miter"/>
    </defs>
    <g>
     <use xlink:href="#m266979a060" x="254.322886" y="213.831529" style="fill: #f5deb3; stroke: #f5deb3; stroke-width: 1.5; stroke-linejoin: miter"/>
     <use xlink:href="#m266979a060" x="319.827908" y="123.399529" style="fill: #f5deb3; stroke: #f5deb3; stroke-width: 1.5; stroke-linejoin: miter"/>
     <use xlink:href="#m266979a060" x="319.914054" y="27.648" style="fill: #f5deb3; stroke: #f5deb3; stroke-width: 1.5; stroke-linejoin: miter"/>
     <use xlink:href="#m266979a060" x="360.8064" y="27.648" style="fill: #f5deb3; stroke: #f5deb3; stroke-width: 1.5; stroke-linejoin: miter"/>
    </g>
   </g>
   <g id="line2d_3">
    <path style="fill: none; stroke: #f5deb3; stroke-width: 4; stroke-linecap: square"/>
    <g/>
   </g>
   <g id="line2d_4">
    <path d="M 360.8064 27.648 
L 380.514816 33.07392 
" style="fill: none; stroke: #f5deb3; stroke-width: 4; stroke-linecap: square"/>
    <g>
     <use xlink:href="#m266979a060" x="360.8064" y="27.648" style="fill: #f5deb3; stroke: #f5deb3; stroke-width: 1.5; stroke-linejoin: miter"/>
     <use xlink:href="#m266979a060" x="380.514816" y="33.07392" style="fill: #f5deb3; stroke: #f5deb3; stroke-width: 1.5; stroke-linejoin: miter"/>
    </g>
   </g>
   <g id="matplotlib.axis_1">
    <g id="xtick_1">
     <g id="line2d_5">
      <path d="M 57.6 298.944 
L 57.6 27.648 
" clip-path="url(#p907174896c)" style="fill: none; stroke: #b0b0b0; stroke-width: 0.8; stroke-linecap: square"/>
     </g>
     <g id="line2d_6">
      <defs>
       <path id="m31a97918e1" d="M 0 0 
L 0 3.5 
" style="stroke: #000000; stroke-width: 0.8"/>
      </defs>
      <g>
       <use xlink:href="#m31a97918e1" x="57.6" y="298.944" style="stroke: #000000; stroke-width: 0.8"/>
      </g>
     </g>
     <g id="text_1">
      <!-- 0 -->
      <g transform="translate(52.191875 318.861344)scale(0.17 -0.17)">
       <defs>
        <path id="DejaVuSans-30" d="M 2034 4250 
Q 1547 4250 1301 3770 
Q 1056 3291 1056 2328 
Q 1056 1369 1301 889 
Q 1547 409 2034 409 
Q 2525 409 2770 889 
Q 3016 1369 3016 2328 
Q 3016 3291 2770 3770 
Q 2525 4250 2034 4250 
z
M 2034 4750 
Q 2819 4750 3233 4129 
Q 3647 3509 3647 2328 
Q 3647 1150 3233 529 
Q 2819 -91 2034 -91 
Q 1250 -91 836 529 
Q 422 1150 422 2328 
Q 422 3509 836 4129 
Q 1250 4750 2034 4750 
z
" transform="scale(0.015625)"/>
       </defs>
       <use xlink:href="#DejaVuSans-30"/>
      </g>
     </g>
    </g>
    <g id="xtick_2">
     <g id="line2d_7">
      <path d="M 144.2304 298.944 
L 144.2304 27.648 
" clip-path="url(#p907174896c)" style="fill: none; stroke: #b0b0b0; stroke-width: 0.8; stroke-linecap: square"/>
     </g>
     <g id="line2d_8">
      <g>
       <use xlink:href="#m31a97918e1" x="144.2304" y="298.944" style="stroke: #000000; stroke-width: 0.8"/>
      </g>
     </g>
     <g id="text_2">
      <!-- 2 -->
      <g transform="translate(138.822275 318.861344)scale(0.17 -0.17)">
       <defs>
        <path id="DejaVuSans-32" d="M 1228 531 
L 3431 531 
L 3431 0 
L 469 0 
L 469 531 
Q 828 903 1448 1529 
Q 2069 2156 2228 2338 
Q 2531 2678 2651 2914 
Q 2772 3150 2772 3378 
Q 2772 3750 2511 3984 
Q 2250 4219 1831 4219 
Q 1534 4219 1204 4116 
Q 875 4013 500 3803 
L 500 4441 
Q 881 4594 1212 4672 
Q 1544 4750 1819 4750 
Q 2544 4750 2975 4387 
Q 3406 4025 3406 3419 
Q 3406 3131 3298 2873 
Q 3191 2616 2906 2266 
Q 2828 2175 2409 1742 
Q 1991 1309 1228 531 
z
" transform="scale(0.015625)"/>
       </defs>
       <use xlink:href="#DejaVuSans-32"/>
      </g>
     </g>
    </g>
    <g id="xtick_3">
     <g id="line2d_9">
      <path d="M 230.8608 298.944 
L 230.8608 27.648 
" clip-path="url(#p907174896c)" style="fill: none; stroke: #b0b0b0; stroke-width: 0.8; stroke-linecap: square"/>
     </g>
     <g id="line2d_10">
      <g>
       <use xlink:href="#m31a97918e1" x="230.8608" y="298.944" style="stroke: #000000; stroke-width: 0.8"/>
      </g>
     </g>
     <g id="text_3">
      <!-- 4 -->
      <g transform="translate(225.452675 318.861344)scale(0.17 -0.17)">
       <defs>
        <path id="DejaVuSans-34" d="M 2419 4116 
L 825 1625 
L 2419 1625 
L 2419 4116 
z
M 2253 4666 
L 3047 4666 
L 3047 1625 
L 3713 1625 
L 3713 1100 
L 3047 1100 
L 3047 0 
L 2419 0 
L 2419 1100 
L 313 1100 
L 313 1709 
L 2253 4666 
z
" transform="scale(0.015625)"/>
       </defs>
       <use xlink:href="#DejaVuSans-34"/>
      </g>
     </g>
    </g>
    <g id="xtick_4">
     <g id="line2d_11">
      <path d="M 317.4912 298.944 
L 317.4912 27.648 
" clip-path="url(#p907174896c)" style="fill: none; stroke: #b0b0b0; stroke-width: 0.8; stroke-linecap: square"/>
     </g>
     <g id="line2d_12">
      <g>
       <use xlink:href="#m31a97918e1" x="317.4912" y="298.944" style="stroke: #000000; stroke-width: 0.8"/>
      </g>
     </g>
     <g id="text_4">
      <!-- 6 -->
      <g transform="translate(312.083075 318.861344)scale(0.17 -0.17)">
       <defs>
        <path id="DejaVuSans-36" d="M 2113 2584 
Q 1688 2584 1439 2293 
Q 1191 2003 1191 1497 
Q 1191 994 1439 701 
Q 1688 409 2113 409 
Q 2538 409 2786 701 
Q 3034 994 3034 1497 
Q 3034 2003 2786 2293 
Q 2538 2584 2113 2584 
z
M 3366 4563 
L 3366 3988 
Q 3128 4100 2886 4159 
Q 2644 4219 2406 4219 
Q 1781 4219 1451 3797 
Q 1122 3375 1075 2522 
Q 1259 2794 1537 2939 
Q 1816 3084 2150 3084 
Q 2853 3084 3261 2657 
Q 3669 2231 3669 1497 
Q 3669 778 3244 343 
Q 2819 -91 2113 -91 
Q 1303 -91 875 529 
Q 447 1150 447 2328 
Q 447 3434 972 4092 
Q 1497 4750 2381 4750 
Q 2619 4750 2861 4703 
Q 3103 4656 3366 4563 
z
" transform="scale(0.015625)"/>
       </defs>
       <use xlink:href="#DejaVuSans-36"/>
      </g>
     </g>
    </g>
    <g id="xtick_5">
     <g id="line2d_13">
      <path d="M 100.9152 298.944 
L 100.9152 27.648 
" clip-path="url(#p907174896c)" style="fill: none; stroke: #b0b0b0; stroke-width: 0.8; stroke-linecap: square"/>
     </g>
     <g id="line2d_14">
      <defs>
       <path id="m2820183640" d="M 0 0 
L 0 2 
" style="stroke: #000000; stroke-width: 0.6"/>
      </defs>
      <g>
       <use xlink:href="#m2820183640" x="100.9152" y="298.944" style="stroke: #000000; stroke-width: 0.6"/>
      </g>
     </g>
    </g>
    <g id="xtick_6">
     <g id="line2d_15">
      <path d="M 187.5456 298.944 
L 187.5456 27.648 
" clip-path="url(#p907174896c)" style="fill: none; stroke: #b0b0b0; stroke-width: 0.8; stroke-linecap: square"/>
     </g>
     <g id="line2d_16">
      <g>
       <use xlink:href="#m2820183640" x="187.5456" y="298.944" style="stroke: #000000; stroke-width: 0.6"/>
      </g>
     </g>
    </g>
    <g id="xtick_7">
     <g id="line2d_17">
      <path d="M 274.176 298.944 
L 274.176 27.648 
" clip-path="url(#p907174896c)" style="fill: none; stroke: #b0b0b0; stroke-width: 0.8; stroke-linecap: square"/>
     </g>
     <g id="line2d_18">
      <g>
       <use xlink:href="#m2820183640" x="274.176" y="298.944" style="stroke: #000000; stroke-width: 0.6"/>
      </g>
     </g>
    </g>
    <g id="xtick_8">
     <g id="line2d_19">
      <path d="M 360.8064 298.944 
L 360.8064 27.648 
" clip-path="url(#p907174896c)" style="fill: none; stroke: #b0b0b0; stroke-width: 0.8; stroke-linecap: square"/>
     </g>
     <g id="line2d_20">
      <g>
       <use xlink:href="#m2820183640" x="360.8064" y="298.944" style="stroke: #000000; stroke-width: 0.6"/>
      </g>
     </g>
    </g>
    <g id="text_5">
     <!-- log10(# f-evals / dimension) -->
     <g transform="translate(88.823278 339.314156)scale(0.17 -0.17)">
      <defs>
       <path id="DejaVuSans-6c" d="M 603 4863 
L 1178 4863 
L 1178 0 
L 603 0 
L 603 4863 
z
" transform="scale(0.015625)"/>
       <path id="DejaVuSans-6f" d="M 1959 3097 
Q 1497 3097 1228 2736 
Q 959 2375 959 1747 
Q 959 1119 1226 758 
Q 1494 397 1959 397 
Q 2419 397 2687 759 
Q 2956 1122 2956 1747 
Q 2956 2369 2687 2733 
Q 2419 3097 1959 3097 
z
M 1959 3584 
Q 2709 3584 3137 3096 
Q 3566 2609 3566 1747 
Q 3566 888 3137 398 
Q 2709 -91 1959 -91 
Q 1206 -91 779 398 
Q 353 888 353 1747 
Q 353 2609 779 3096 
Q 1206 3584 1959 3584 
z
" transform="scale(0.015625)"/>
       <path id="DejaVuSans-67" d="M 2906 1791 
Q 2906 2416 2648 2759 
Q 2391 3103 1925 3103 
Q 1463 3103 1205 2759 
Q 947 2416 947 1791 
Q 947 1169 1205 825 
Q 1463 481 1925 481 
Q 2391 481 2648 825 
Q 2906 1169 2906 1791 
z
M 3481 434 
Q 3481 -459 3084 -895 
Q 2688 -1331 1869 -1331 
Q 1566 -1331 1297 -1286 
Q 1028 -1241 775 -1147 
L 775 -588 
Q 1028 -725 1275 -790 
Q 1522 -856 1778 -856 
Q 2344 -856 2625 -561 
Q 2906 -266 2906 331 
L 2906 616 
Q 2728 306 2450 153 
Q 2172 0 1784 0 
Q 1141 0 747 490 
Q 353 981 353 1791 
Q 353 2603 747 3093 
Q 1141 3584 1784 3584 
Q 2172 3584 2450 3431 
Q 2728 3278 2906 2969 
L 2906 3500 
L 3481 3500 
L 3481 434 
z
" transform="scale(0.015625)"/>
       <path id="DejaVuSans-31" d="M 794 531 
L 1825 531 
L 1825 4091 
L 703 3866 
L 703 4441 
L 1819 4666 
L 2450 4666 
L 2450 531 
L 3481 531 
L 3481 0 
L 794 0 
L 794 531 
z
" transform="scale(0.015625)"/>
       <path id="DejaVuSans-28" d="M 1984 4856 
Q 1566 4138 1362 3434 
Q 1159 2731 1159 2009 
Q 1159 1288 1364 580 
Q 1569 -128 1984 -844 
L 1484 -844 
Q 1016 -109 783 600 
Q 550 1309 550 2009 
Q 550 2706 781 3412 
Q 1013 4119 1484 4856 
L 1984 4856 
z
" transform="scale(0.015625)"/>
       <path id="DejaVuSans-23" d="M 3272 2816 
L 2363 2816 
L 2100 1772 
L 3016 1772 
L 3272 2816 
z
M 2803 4594 
L 2478 3297 
L 3391 3297 
L 3719 4594 
L 4219 4594 
L 3897 3297 
L 4872 3297 
L 4872 2816 
L 3775 2816 
L 3519 1772 
L 4513 1772 
L 4513 1294 
L 3397 1294 
L 3072 0 
L 2572 0 
L 2894 1294 
L 1978 1294 
L 1656 0 
L 1153 0 
L 1478 1294 
L 494 1294 
L 494 1772 
L 1594 1772 
L 1856 2816 
L 850 2816 
L 850 3297 
L 1978 3297 
L 2297 4594 
L 2803 4594 
z
" transform="scale(0.015625)"/>
       <path id="DejaVuSans-20" transform="scale(0.015625)"/>
       <path id="DejaVuSans-66" d="M 2375 4863 
L 2375 4384 
L 1825 4384 
Q 1516 4384 1395 4259 
Q 1275 4134 1275 3809 
L 1275 3500 
L 2222 3500 
L 2222 3053 
L 1275 3053 
L 1275 0 
L 697 0 
L 697 3053 
L 147 3053 
L 147 3500 
L 697 3500 
L 697 3744 
Q 697 4328 969 4595 
Q 1241 4863 1831 4863 
L 2375 4863 
z
" transform="scale(0.015625)"/>
       <path id="DejaVuSans-2d" d="M 313 2009 
L 1997 2009 
L 1997 1497 
L 313 1497 
L 313 2009 
z
" transform="scale(0.015625)"/>
       <path id="DejaVuSans-65" d="M 3597 1894 
L 3597 1613 
L 953 1613 
Q 991 1019 1311 708 
Q 1631 397 2203 397 
Q 2534 397 2845 478 
Q 3156 559 3463 722 
L 3463 178 
Q 3153 47 2828 -22 
Q 2503 -91 2169 -91 
Q 1331 -91 842 396 
Q 353 884 353 1716 
Q 353 2575 817 3079 
Q 1281 3584 2069 3584 
Q 2775 3584 3186 3129 
Q 3597 2675 3597 1894 
z
M 3022 2063 
Q 3016 2534 2758 2815 
Q 2500 3097 2075 3097 
Q 1594 3097 1305 2825 
Q 1016 2553 972 2059 
L 3022 2063 
z
" transform="scale(0.015625)"/>
       <path id="DejaVuSans-76" d="M 191 3500 
L 800 3500 
L 1894 563 
L 2988 3500 
L 3597 3500 
L 2284 0 
L 1503 0 
L 191 3500 
z
" transform="scale(0.015625)"/>
       <path id="DejaVuSans-61" d="M 2194 1759 
Q 1497 1759 1228 1600 
Q 959 1441 959 1056 
Q 959 750 1161 570 
Q 1363 391 1709 391 
Q 2188 391 2477 730 
Q 2766 1069 2766 1631 
L 2766 1759 
L 2194 1759 
z
M 3341 1997 
L 3341 0 
L 2766 0 
L 2766 531 
Q 2569 213 2275 61 
Q 1981 -91 1556 -91 
Q 1019 -91 701 211 
Q 384 513 384 1019 
Q 384 1609 779 1909 
Q 1175 2209 1959 2209 
L 2766 2209 
L 2766 2266 
Q 2766 2663 2505 2880 
Q 2244 3097 1772 3097 
Q 1472 3097 1187 3025 
Q 903 2953 641 2809 
L 641 3341 
Q 956 3463 1253 3523 
Q 1550 3584 1831 3584 
Q 2591 3584 2966 3190 
Q 3341 2797 3341 1997 
z
" transform="scale(0.015625)"/>
       <path id="DejaVuSans-73" d="M 2834 3397 
L 2834 2853 
Q 2591 2978 2328 3040 
Q 2066 3103 1784 3103 
Q 1356 3103 1142 2972 
Q 928 2841 928 2578 
Q 928 2378 1081 2264 
Q 1234 2150 1697 2047 
L 1894 2003 
Q 2506 1872 2764 1633 
Q 3022 1394 3022 966 
Q 3022 478 2636 193 
Q 2250 -91 1575 -91 
Q 1294 -91 989 -36 
Q 684 19 347 128 
L 347 722 
Q 666 556 975 473 
Q 1284 391 1588 391 
Q 1994 391 2212 530 
Q 2431 669 2431 922 
Q 2431 1156 2273 1281 
Q 2116 1406 1581 1522 
L 1381 1569 
Q 847 1681 609 1914 
Q 372 2147 372 2553 
Q 372 3047 722 3315 
Q 1072 3584 1716 3584 
Q 2034 3584 2315 3537 
Q 2597 3491 2834 3397 
z
" transform="scale(0.015625)"/>
       <path id="DejaVuSans-2f" d="M 1625 4666 
L 2156 4666 
L 531 -594 
L 0 -594 
L 1625 4666 
z
" transform="scale(0.015625)"/>
       <path id="DejaVuSans-64" d="M 2906 2969 
L 2906 4863 
L 3481 4863 
L 3481 0 
L 2906 0 
L 2906 525 
Q 2725 213 2448 61 
Q 2172 -91 1784 -91 
Q 1150 -91 751 415 
Q 353 922 353 1747 
Q 353 2572 751 3078 
Q 1150 3584 1784 3584 
Q 2172 3584 2448 3432 
Q 2725 3281 2906 2969 
z
M 947 1747 
Q 947 1113 1208 752 
Q 1469 391 1925 391 
Q 2381 391 2643 752 
Q 2906 1113 2906 1747 
Q 2906 2381 2643 2742 
Q 2381 3103 1925 3103 
Q 1469 3103 1208 2742 
Q 947 2381 947 1747 
z
" transform="scale(0.015625)"/>
       <path id="DejaVuSans-69" d="M 603 3500 
L 1178 3500 
L 1178 0 
L 603 0 
L 603 3500 
z
M 603 4863 
L 1178 4863 
L 1178 4134 
L 603 4134 
L 603 4863 
z
" transform="scale(0.015625)"/>
       <path id="DejaVuSans-6d" d="M 3328 2828 
Q 3544 3216 3844 3400 
Q 4144 3584 4550 3584 
Q 5097 3584 5394 3201 
Q 5691 2819 5691 2113 
L 5691 0 
L 5113 0 
L 5113 2094 
Q 5113 2597 4934 2840 
Q 4756 3084 4391 3084 
Q 3944 3084 3684 2787 
Q 3425 2491 3425 1978 
L 3425 0 
L 2847 0 
L 2847 2094 
Q 2847 2600 2669 2842 
Q 2491 3084 2119 3084 
Q 1678 3084 1418 2786 
Q 1159 2488 1159 1978 
L 1159 0 
L 581 0 
L 581 3500 
L 1159 3500 
L 1159 2956 
Q 1356 3278 1631 3431 
Q 1906 3584 2284 3584 
Q 2666 3584 2933 3390 
Q 3200 3197 3328 2828 
z
" transform="scale(0.015625)"/>
       <path id="DejaVuSans-6e" d="M 3513 2113 
L 3513 0 
L 2938 0 
L 2938 2094 
Q 2938 2591 2744 2837 
Q 2550 3084 2163 3084 
Q 1697 3084 1428 2787 
Q 1159 2491 1159 1978 
L 1159 0 
L 581 0 
L 581 3500 
L 1159 3500 
L 1159 2956 
Q 1366 3272 1645 3428 
Q 1925 3584 2291 3584 
Q 2894 3584 3203 3211 
Q 3513 2838 3513 2113 
z
" transform="scale(0.015625)"/>
       <path id="DejaVuSans-29" d="M 513 4856 
L 1013 4856 
Q 1481 4119 1714 3412 
Q 1947 2706 1947 2009 
Q 1947 1309 1714 600 
Q 1481 -109 1013 -844 
L 513 -844 
Q 928 -128 1133 580 
Q 1338 1288 1338 2009 
Q 1338 2731 1133 3434 
Q 928 4138 513 4856 
z
" transform="scale(0.015625)"/>
      </defs>
      <use xlink:href="#DejaVuSans-6c"/>
      <use xlink:href="#DejaVuSans-6f" x="27.783203"/>
      <use xlink:href="#DejaVuSans-67" x="88.964844"/>
      <use xlink:href="#DejaVuSans-31" x="152.441406"/>
      <use xlink:href="#DejaVuSans-30" x="216.064453"/>
      <use xlink:href="#DejaVuSans-28" x="279.6875"/>
      <use xlink:href="#DejaVuSans-23" x="318.701172"/>
      <use xlink:href="#DejaVuSans-20" x="402.490234"/>
      <use xlink:href="#DejaVuSans-66" x="434.277344"/>
      <use xlink:href="#DejaVuSans-2d" x="463.982422"/>
      <use xlink:href="#DejaVuSans-65" x="500.066406"/>
      <use xlink:href="#DejaVuSans-76" x="561.589844"/>
      <use xlink:href="#DejaVuSans-61" x="620.769531"/>
      <use xlink:href="#DejaVuSans-6c" x="682.048828"/>
      <use xlink:href="#DejaVuSans-73" x="709.832031"/>
      <use xlink:href="#DejaVuSans-20" x="761.931641"/>
      <use xlink:href="#DejaVuSans-2f" x="793.71875"/>
      <use xlink:href="#DejaVuSans-20" x="827.410156"/>
      <use xlink:href="#DejaVuSans-64" x="859.197266"/>
      <use xlink:href="#DejaVuSans-69" x="922.673828"/>
      <use xlink:href="#DejaVuSans-6d" x="950.457031"/>
      <use xlink:href="#DejaVuSans-65" x="1047.869141"/>
      <use xlink:href="#DejaVuSans-6e" x="1109.392578"/>
      <use xlink:href="#DejaVuSans-73" x="1172.771484"/>
      <use xlink:href="#DejaVuSans-69" x="1224.871094"/>
      <use xlink:href="#DejaVuSans-6f" x="1252.654297"/>
      <use xlink:href="#DejaVuSans-6e" x="1313.835938"/>
      <use xlink:href="#DejaVuSans-29" x="1377.214844"/>
     </g>
    </g>
   </g>
   <g id="matplotlib.axis_2">
    <g id="ytick_1">
     <g id="line2d_21">
      <path d="M 57.6 298.944 
L 360.8064 298.944 
" clip-path="url(#p907174896c)" style="fill: none; stroke: #b0b0b0; stroke-width: 0.8; stroke-linecap: square"/>
     </g>
     <g id="line2d_22">
      <defs>
       <path id="m55b242e90e" d="M 0 0 
L -3.5 0 
" style="stroke: #000000; stroke-width: 0.8"/>
      </defs>
      <g>
       <use xlink:href="#m55b242e90e" x="57.6" y="298.944" style="stroke: #000000; stroke-width: 0.8"/>
      </g>
     </g>
     <g id="text_6">
      <!-- 0.0 -->
      <g transform="translate(25.155 305.02275)scale(0.16 -0.16)">
       <defs>
        <path id="DejaVuSans-2e" d="M 684 794 
L 1344 794 
L 1344 0 
L 684 0 
L 684 794 
z
" transform="scale(0.015625)"/>
       </defs>
       <use xlink:href="#DejaVuSans-30"/>
       <use xlink:href="#DejaVuSans-2e" x="63.623047"/>
       <use xlink:href="#DejaVuSans-30" x="95.410156"/>
      </g>
     </g>
    </g>
    <g id="ytick_2">
     <g id="line2d_23">
      <path d="M 57.6 244.6848 
L 360.8064 244.6848 
" clip-path="url(#p907174896c)" style="fill: none; stroke: #b0b0b0; stroke-width: 0.8; stroke-linecap: square"/>
     </g>
     <g id="line2d_24">
      <g>
       <use xlink:href="#m55b242e90e" x="57.6" y="244.6848" style="stroke: #000000; stroke-width: 0.8"/>
      </g>
     </g>
     <g id="text_7">
      <!-- 0.2 -->
      <g transform="translate(25.155 250.76355)scale(0.16 -0.16)">
       <use xlink:href="#DejaVuSans-30"/>
       <use xlink:href="#DejaVuSans-2e" x="63.623047"/>
       <use xlink:href="#DejaVuSans-32" x="95.410156"/>
      </g>
     </g>
    </g>
    <g id="ytick_3">
     <g id="line2d_25">
      <path d="M 57.6 190.4256 
L 360.8064 190.4256 
" clip-path="url(#p907174896c)" style="fill: none; stroke: #b0b0b0; stroke-width: 0.8; stroke-linecap: square"/>
     </g>
     <g id="line2d_26">
      <g>
       <use xlink:href="#m55b242e90e" x="57.6" y="190.4256" style="stroke: #000000; stroke-width: 0.8"/>
      </g>
     </g>
     <g id="text_8">
      <!-- 0.4 -->
      <g transform="translate(25.155 196.50435)scale(0.16 -0.16)">
       <use xlink:href="#DejaVuSans-30"/>
       <use xlink:href="#DejaVuSans-2e" x="63.623047"/>
       <use xlink:href="#DejaVuSans-34" x="95.410156"/>
      </g>
     </g>
    </g>
    <g id="ytick_4">
     <g id="line2d_27">
      <path d="M 57.6 136.1664 
L 360.8064 136.1664 
" clip-path="url(#p907174896c)" style="fill: none; stroke: #b0b0b0; stroke-width: 0.8; stroke-linecap: square"/>
     </g>
     <g id="line2d_28">
      <g>
       <use xlink:href="#m55b242e90e" x="57.6" y="136.1664" style="stroke: #000000; stroke-width: 0.8"/>
      </g>
     </g>
     <g id="text_9">
      <!-- 0.6 -->
      <g transform="translate(25.155 142.24515)scale(0.16 -0.16)">
       <use xlink:href="#DejaVuSans-30"/>
       <use xlink:href="#DejaVuSans-2e" x="63.623047"/>
       <use xlink:href="#DejaVuSans-36" x="95.410156"/>
      </g>
     </g>
    </g>
    <g id="ytick_5">
     <g id="line2d_29">
      <path d="M 57.6 81.9072 
L 360.8064 81.9072 
" clip-path="url(#p907174896c)" style="fill: none; stroke: #b0b0b0; stroke-width: 0.8; stroke-linecap: square"/>
     </g>
     <g id="line2d_30">
      <g>
       <use xlink:href="#m55b242e90e" x="57.6" y="81.9072" style="stroke: #000000; stroke-width: 0.8"/>
      </g>
     </g>
     <g id="text_10">
      <!-- 0.8 -->
      <g transform="translate(25.155 87.98595)scale(0.16 -0.16)">
       <defs>
        <path id="DejaVuSans-38" d="M 2034 2216 
Q 1584 2216 1326 1975 
Q 1069 1734 1069 1313 
Q 1069 891 1326 650 
Q 1584 409 2034 409 
Q 2484 409 2743 651 
Q 3003 894 3003 1313 
Q 3003 1734 2745 1975 
Q 2488 2216 2034 2216 
z
M 1403 2484 
Q 997 2584 770 2862 
Q 544 3141 544 3541 
Q 544 4100 942 4425 
Q 1341 4750 2034 4750 
Q 2731 4750 3128 4425 
Q 3525 4100 3525 3541 
Q 3525 3141 3298 2862 
Q 3072 2584 2669 2484 
Q 3125 2378 3379 2068 
Q 3634 1759 3634 1313 
Q 3634 634 3220 271 
Q 2806 -91 2034 -91 
Q 1263 -91 848 271 
Q 434 634 434 1313 
Q 434 1759 690 2068 
Q 947 2378 1403 2484 
z
M 1172 3481 
Q 1172 3119 1398 2916 
Q 1625 2713 2034 2713 
Q 2441 2713 2670 2916 
Q 2900 3119 2900 3481 
Q 2900 3844 2670 4047 
Q 2441 4250 2034 4250 
Q 1625 4250 1398 4047 
Q 1172 3844 1172 3481 
z
" transform="scale(0.015625)"/>
       </defs>
       <use xlink:href="#DejaVuSans-30"/>
       <use xlink:href="#DejaVuSans-2e" x="63.623047"/>
       <use xlink:href="#DejaVuSans-38" x="95.410156"/>
      </g>
     </g>
    </g>
    <g id="ytick_6">
     <g id="line2d_31">
      <path d="M 57.6 27.648 
L 360.8064 27.648 
" clip-path="url(#p907174896c)" style="fill: none; stroke: #b0b0b0; stroke-width: 0.8; stroke-linecap: square"/>
     </g>
     <g id="line2d_32">
      <g>
       <use xlink:href="#m55b242e90e" x="57.6" y="27.648" style="stroke: #000000; stroke-width: 0.8"/>
      </g>
     </g>
     <g id="text_11">
      <!-- 1.0 -->
      <g transform="translate(25.155 33.72675)scale(0.16 -0.16)">
       <use xlink:href="#DejaVuSans-31"/>
       <use xlink:href="#DejaVuSans-2e" x="63.623047"/>
       <use xlink:href="#DejaVuSans-30" x="95.410156"/>
      </g>
     </g>
    </g>
    <g id="text_12">
     <!-- Fraction of function,target pairs -->
     <g transform="translate(17.619531 297.681)rotate(-90)scale(0.17 -0.17)">
      <defs>
       <path id="DejaVuSans-46" d="M 628 4666 
L 3309 4666 
L 3309 4134 
L 1259 4134 
L 1259 2759 
L 3109 2759 
L 3109 2228 
L 1259 2228 
L 1259 0 
L 628 0 
L 628 4666 
z
" transform="scale(0.015625)"/>
       <path id="DejaVuSans-72" d="M 2631 2963 
Q 2534 3019 2420 3045 
Q 2306 3072 2169 3072 
Q 1681 3072 1420 2755 
Q 1159 2438 1159 1844 
L 1159 0 
L 581 0 
L 581 3500 
L 1159 3500 
L 1159 2956 
Q 1341 3275 1631 3429 
Q 1922 3584 2338 3584 
Q 2397 3584 2469 3576 
Q 2541 3569 2628 3553 
L 2631 2963 
z
" transform="scale(0.015625)"/>
       <path id="DejaVuSans-63" d="M 3122 3366 
L 3122 2828 
Q 2878 2963 2633 3030 
Q 2388 3097 2138 3097 
Q 1578 3097 1268 2742 
Q 959 2388 959 1747 
Q 959 1106 1268 751 
Q 1578 397 2138 397 
Q 2388 397 2633 464 
Q 2878 531 3122 666 
L 3122 134 
Q 2881 22 2623 -34 
Q 2366 -91 2075 -91 
Q 1284 -91 818 406 
Q 353 903 353 1747 
Q 353 2603 823 3093 
Q 1294 3584 2113 3584 
Q 2378 3584 2631 3529 
Q 2884 3475 3122 3366 
z
" transform="scale(0.015625)"/>
       <path id="DejaVuSans-74" d="M 1172 4494 
L 1172 3500 
L 2356 3500 
L 2356 3053 
L 1172 3053 
L 1172 1153 
Q 1172 725 1289 603 
Q 1406 481 1766 481 
L 2356 481 
L 2356 0 
L 1766 0 
Q 1100 0 847 248 
Q 594 497 594 1153 
L 594 3053 
L 172 3053 
L 172 3500 
L 594 3500 
L 594 4494 
L 1172 4494 
z
" transform="scale(0.015625)"/>
       <path id="DejaVuSans-75" d="M 544 1381 
L 544 3500 
L 1119 3500 
L 1119 1403 
Q 1119 906 1312 657 
Q 1506 409 1894 409 
Q 2359 409 2629 706 
Q 2900 1003 2900 1516 
L 2900 3500 
L 3475 3500 
L 3475 0 
L 2900 0 
L 2900 538 
Q 2691 219 2414 64 
Q 2138 -91 1772 -91 
Q 1169 -91 856 284 
Q 544 659 544 1381 
z
M 1991 3584 
L 1991 3584 
z
" transform="scale(0.015625)"/>
       <path id="DejaVuSans-2c" d="M 750 794 
L 1409 794 
L 1409 256 
L 897 -744 
L 494 -744 
L 750 256 
L 750 794 
z
" transform="scale(0.015625)"/>
       <path id="DejaVuSans-70" d="M 1159 525 
L 1159 -1331 
L 581 -1331 
L 581 3500 
L 1159 3500 
L 1159 2969 
Q 1341 3281 1617 3432 
Q 1894 3584 2278 3584 
Q 2916 3584 3314 3078 
Q 3713 2572 3713 1747 
Q 3713 922 3314 415 
Q 2916 -91 2278 -91 
Q 1894 -91 1617 61 
Q 1341 213 1159 525 
z
M 3116 1747 
Q 3116 2381 2855 2742 
Q 2594 3103 2138 3103 
Q 1681 3103 1420 2742 
Q 1159 2381 1159 1747 
Q 1159 1113 1420 752 
Q 1681 391 2138 391 
Q 2594 391 2855 752 
Q 3116 1113 3116 1747 
z
" transform="scale(0.015625)"/>
      </defs>
      <use xlink:href="#DejaVuSans-46"/>
      <use xlink:href="#DejaVuSans-72" x="50.269531"/>
      <use xlink:href="#DejaVuSans-61" x="91.382812"/>
      <use xlink:href="#DejaVuSans-63" x="152.662109"/>
      <use xlink:href="#DejaVuSans-74" x="207.642578"/>
      <use xlink:href="#DejaVuSans-69" x="246.851562"/>
      <use xlink:href="#DejaVuSans-6f" x="274.634766"/>
      <use xlink:href="#DejaVuSans-6e" x="335.816406"/>
      <use xlink:href="#DejaVuSans-20" x="399.195312"/>
      <use xlink:href="#DejaVuSans-6f" x="430.982422"/>
      <use xlink:href="#DejaVuSans-66" x="492.164062"/>
      <use xlink:href="#DejaVuSans-20" x="527.369141"/>
      <use xlink:href="#DejaVuSans-66" x="559.15625"/>
      <use xlink:href="#DejaVuSans-75" x="594.361328"/>
      <use xlink:href="#DejaVuSans-6e" x="657.740234"/>
      <use xlink:href="#DejaVuSans-63" x="721.119141"/>
      <use xlink:href="#DejaVuSans-74" x="776.099609"/>
      <use xlink:href="#DejaVuSans-69" x="815.308594"/>
      <use xlink:href="#DejaVuSans-6f" x="843.091797"/>
      <use xlink:href="#DejaVuSans-6e" x="904.273438"/>
      <use xlink:href="#DejaVuSans-2c" x="967.652344"/>
      <use xlink:href="#DejaVuSans-74" x="999.439453"/>
      <use xlink:href="#DejaVuSans-61" x="1038.648438"/>
      <use xlink:href="#DejaVuSans-72" x="1099.927734"/>
      <use xlink:href="#DejaVuSans-67" x="1139.291016"/>
      <use xlink:href="#DejaVuSans-65" x="1202.767578"/>
      <use xlink:href="#DejaVuSans-74" x="1264.291016"/>
      <use xlink:href="#DejaVuSans-20" x="1303.5"/>
      <use xlink:href="#DejaVuSans-70" x="1335.287109"/>
      <use xlink:href="#DejaVuSans-61" x="1398.763672"/>
      <use xlink:href="#DejaVuSans-69" x="1460.042969"/>
      <use xlink:href="#DejaVuSans-72" x="1487.826172"/>
      <use xlink:href="#DejaVuSans-73" x="1528.939453"/>
     </g>
    </g>
   </g>
   <g id="line2d_33">
    <defs>
     <path id="m2545075672" d="M 0 1.5 
C 0.397805 1.5 0.77937 1.341951 1.06066 1.06066 
C 1.341951 0.77937 1.5 0.397805 1.5 0 
C 1.5 -0.397805 1.341951 -0.77937 1.06066 -1.06066 
C 0.77937 -1.341951 0.397805 -1.5 0 -1.5 
C -0.397805 -1.5 -0.77937 -1.341951 -1.06066 -1.06066 
C -1.341951 -0.77937 -1.5 -0.397805 -1.5 0 
C -1.5 0.397805 -1.341951 0.77937 -1.06066 1.06066 
C -0.77937 1.341951 -0.397805 1.5 0 1.5 
z
" style="stroke: #f5deb3"/>
    </defs>
    <g>
     <use xlink:href="#m2545075672" x="319.914054" y="27.648" style="fill: #f5deb3; stroke: #f5deb3"/>
     <use xlink:href="#m2545075672" x="319.914054" y="27.648" style="fill: #f5deb3; stroke: #f5deb3"/>
    </g>
   </g>
   <g id="line2d_34">
    <defs>
     <path id="mf8114cec0f" d="M 0 1.5 
C 0.397805 1.5 0.77937 1.341951 1.06066 1.06066 
C 1.341951 0.77937 1.5 0.397805 1.5 0 
C 1.5 -0.397805 1.341951 -0.77937 1.06066 -1.06066 
C 0.77937 -1.341951 0.397805 -1.5 0 -1.5 
C -0.397805 -1.5 -0.77937 -1.341951 -1.06066 -1.06066 
C -1.341951 -0.77937 -1.5 -0.397805 -1.5 0 
C -1.5 0.397805 -1.341951 0.77937 -1.06066 1.06066 
C -0.77937 1.341951 -0.397805 1.5 0 1.5 
z
" style="stroke: #000080"/>
    </defs>
    <g>
     <use xlink:href="#mf8114cec0f" x="375.674211" y="171.275294" style="fill: #000080; stroke: #000080"/>
     <use xlink:href="#mf8114cec0f" x="375.674211" y="171.275294" style="fill: #000080; stroke: #000080"/>
    </g>
   </g>
   <g id="line2d_35">
    <path d="M -1 224.470588 
L 230.055705 224.470588 
L 230.055705 224.115953 
L 230.647685 224.115953 
L 230.647685 223.761318 
L 238.403165 223.761318 
L 238.403165 223.406682 
L 240.181624 223.406682 
L 240.181624 223.052047 
L 240.54278 223.052047 
L 240.54278 222.697412 
L 241.997291 222.697412 
L 241.997291 222.342776 
L 242.624655 222.342776 
L 242.624655 221.988141 
L 242.992035 221.988141 
L 242.992035 221.633506 
L 243.126635 221.633506 
L 243.126635 221.278871 
L 243.824341 221.278871 
L 243.824341 220.924235 
L 244.753455 220.924235 
L 244.753455 220.5696 
L 244.944456 220.5696 
L 244.944456 220.214965 
L 245.15185 220.214965 
L 245.15185 219.860329 
L 247.263986 219.860329 
L 247.348156 219.151059 
L 247.39553 219.151059 
L 247.461863 218.441788 
L 248.596043 218.441788 
L 248.596043 218.087153 
L 248.904748 218.087153 
L 248.904748 217.732518 
L 249.780161 217.732518 
L 249.780161 217.377882 
L 249.974092 217.377882 
L 249.974092 217.023247 
L 251.91215 217.023247 
L 251.960653 216.313976 
L 252.232498 216.313976 
L 252.232498 215.959341 
L 252.98362 215.959341 
L 252.98362 215.604706 
L 253.110979 215.604706 
L 253.110979 215.250071 
L 253.391456 215.250071 
L 253.391456 214.895435 
L 254.255464 214.895435 
L 254.255464 214.5408 
L 254.801552 214.5408 
L 254.801552 214.186165 
L 255.897441 214.186165 
L 255.897441 213.831529 
L 256.23917 213.831529 
L 256.23917 213.476894 
L 257.51044 213.476894 
L 257.51044 213.122259 
L 259.319203 213.122259 
L 259.319203 212.767624 
L 261.47766 212.767624 
L 261.47766 212.412988 
L 262.063573 212.412988 
L 262.063573 212.058353 
L 262.364573 212.058353 
L 262.364573 211.703718 
L 262.476235 211.703718 
L 262.476235 211.349082 
L 263.142092 211.349082 
L 263.142092 210.994447 
L 263.879212 210.994447 
L 263.879212 210.639812 
L 265.195029 210.639812 
L 265.244526 209.930541 
L 265.415031 209.930541 
L 265.415031 209.575906 
L 266.648094 209.575906 
L 266.648094 209.221271 
L 268.062581 209.221271 
L 268.080361 208.512 
L 268.869573 208.512 
L 268.869573 208.157365 
L 272.655876 208.157365 
L 272.764085 207.093459 
L 272.872516 207.093459 
L 272.872516 206.384188 
L 273.281559 206.384188 
L 273.281559 206.029553 
L 273.408452 206.029553 
L 273.408452 205.674918 
L 273.938593 205.674918 
L 273.938593 205.320282 
L 274.123801 205.320282 
L 274.123801 204.965647 
L 274.625093 204.965647 
L 274.625093 204.611012 
L 275.402694 204.611012 
L 275.411253 203.901741 
L 275.635684 203.901741 
L 275.651405 203.192471 
L 278.679584 203.192471 
L 278.679584 202.837835 
L 280.044685 202.837835 
L 280.044685 202.4832 
L 280.228544 202.4832 
L 280.31595 201.773929 
L 280.472323 201.773929 
L 280.547515 201.064659 
L 280.716694 201.064659 
L 280.716694 200.710024 
L 281.66042 200.710024 
L 281.66042 200.355388 
L 281.780643 200.355388 
L 281.780643 200.000753 
L 282.233841 200.000753 
L 282.233841 199.646118 
L 283.117936 199.646118 
L 283.22112 198.582212 
L 283.363622 198.582212 
L 283.363622 198.227576 
L 284.02624 198.227576 
L 284.02624 197.872941 
L 284.325265 197.872941 
L 284.325265 197.518306 
L 284.607576 197.518306 
L 284.607576 197.163671 
L 284.765143 197.163671 
L 284.765143 196.809035 
L 285.31895 196.809035 
L 285.31895 196.4544 
L 285.886195 196.4544 
L 285.886195 196.099765 
L 286.50987 196.099765 
L 286.50987 195.745129 
L 287.801355 195.745129 
L 287.801355 195.390494 
L 288.158533 195.390494 
L 288.158533 195.035859 
L 289.831939 195.035859 
L 289.831939 194.681224 
L 292.676526 194.681224 
L 292.676526 194.326588 
L 294.162379 194.326588 
L 294.162379 193.971953 
L 294.291671 193.971953 
L 294.291671 193.617318 
L 295.786864 193.617318 
L 295.786864 193.262682 
L 298.066886 193.262682 
L 298.066886 192.908047 
L 298.20328 192.908047 
L 298.253601 192.198776 
L 300.103298 192.198776 
L 300.103298 191.844141 
L 300.879618 191.844141 
L 300.879618 191.489506 
L 303.838216 191.489506 
L 303.838216 191.134871 
L 307.670715 191.134871 
L 307.670715 190.780235 
L 308.126149 190.780235 
L 308.126149 190.4256 
L 308.944873 190.4256 
L 309.044476 189.716329 
L 309.53994 189.716329 
L 309.53994 189.361694 
L 309.716612 189.361694 
L 309.741516 188.652424 
L 309.956577 188.652424 
L 310.064663 187.943153 
L 310.138247 187.943153 
L 310.138247 187.588518 
L 310.952904 187.588518 
L 311.058972 186.879247 
L 315.490518 186.879247 
L 315.490518 186.524612 
L 320.128452 186.524612 
L 320.128452 186.169976 
L 320.264149 186.169976 
L 320.264149 185.815341 
L 320.453863 185.815341 
L 320.453863 185.460706 
L 320.605163 185.460706 
L 320.655917 184.751435 
L 320.742398 184.751435 
L 320.742398 184.3968 
L 320.920832 184.3968 
L 320.920832 184.042165 
L 321.043749 184.042165 
L 321.043749 183.687529 
L 323.753004 183.687529 
L 323.753004 183.332894 
L 327.625371 183.332894 
L 327.62977 182.623624 
L 327.86058 182.623624 
L 327.95305 181.914353 
L 332.23263 181.914353 
L 332.23263 181.559718 
L 332.578503 181.559718 
L 332.578503 181.205082 
L 333.102371 181.205082 
L 333.102371 180.850447 
L 334.775322 180.850447 
L 334.775322 180.495812 
L 336.292423 180.495812 
L 336.292423 180.141176 
L 339.421917 180.141176 
L 339.477054 179.431906 
L 342.618279 179.431906 
L 342.647516 178.722635 
L 345.340515 178.722635 
L 345.340515 178.368 
L 347.144697 178.368 
L 347.144697 178.013365 
L 347.350306 178.013365 
L 347.350306 177.658729 
L 347.483352 177.658729 
L 347.483352 177.304094 
L 348.799845 177.304094 
L 348.799845 176.949459 
L 349.323428 176.949459 
L 349.396002 176.240188 
L 352.713723 176.240188 
L 352.713723 175.885553 
L 354.082285 175.885553 
L 354.082285 175.530918 
L 355.42116 175.530918 
L 355.42116 175.176282 
L 356.661984 175.176282 
L 356.661984 174.821647 
L 360.8064 174.821647 
L 360.8064 174.821647 
" style="fill: none; stroke: #000080; stroke-width: 1.5; stroke-linecap: square"/>
   </g>
   <g id="line2d_36">
    <defs>
     <path id="mc80b944d71" d="M 0 6 
C 1.591219 6 3.117479 5.367802 4.242641 4.242641 
C 5.367802 3.117479 6 1.591219 6 0 
C 6 -1.591219 5.367802 -3.117479 4.242641 -4.242641 
C 3.117479 -5.367802 1.591219 -6 0 -6 
C -1.591219 -6 -3.117479 -5.367802 -4.242641 -4.242641 
C -5.367802 -3.117479 -6 -1.591219 -6 0 
C -6 1.591219 -5.367802 3.117479 -4.242641 4.242641 
C -3.117479 5.367802 -1.591219 6 0 6 
z
" style="stroke: #000080; stroke-width: 1.5"/>
    </defs>
    <g>
     <use xlink:href="#mc80b944d71" x="289.831939" y="194.681224" style="fill-opacity: 0; stroke: #000080; stroke-width: 1.5"/>
     <use xlink:href="#mc80b944d71" x="356.661984" y="174.821647" style="fill-opacity: 0; stroke: #000080; stroke-width: 1.5"/>
     <use xlink:href="#mc80b944d71" x="356.661984" y="174.821647" style="fill-opacity: 0; stroke: #000080; stroke-width: 1.5"/>
     <use xlink:href="#mc80b944d71" x="360.8064" y="174.821647" style="fill-opacity: 0; stroke: #000080; stroke-width: 1.5"/>
    </g>
   </g>
   <g id="line2d_37">
    <path style="fill: none; stroke: #000080; stroke-width: 1.5; stroke-linecap: square"/>
    <g/>
   </g>
   <g id="line2d_38">
    <path d="M 305.720747 191.134871 
" clip-path="url(#p907174896c)" style="fill: none; stroke: #000080; stroke-width: 1.5; stroke-linecap: square"/>
    <defs>
     <path id="m24d60a9890" d="M -12 12 
L 12 -12 
M -12 -12 
L 12 12 
" style="stroke: #000080"/>
    </defs>
    <g clip-path="url(#p907174896c)">
     <use xlink:href="#m24d60a9890" x="305.720747" y="191.134871" style="fill: #000080; stroke: #000080"/>
    </g>
   </g>
   <g id="line2d_39">
    <defs>
     <path id="m85d85ad14f" d="M 0 1.5 
C 0.397805 1.5 0.77937 1.341951 1.06066 1.06066 
C 1.341951 0.77937 1.5 0.397805 1.5 0 
C 1.5 -0.397805 1.341951 -0.77937 1.06066 -1.06066 
C 0.77937 -1.341951 0.397805 -1.5 0 -1.5 
C -0.397805 -1.5 -0.77937 -1.341951 -1.06066 -1.06066 
C -1.341951 -0.77937 -1.5 -0.397805 -1.5 0 
C -1.5 0.397805 -1.341951 0.77937 -1.06066 1.06066 
C -0.77937 1.341951 -0.397805 1.5 0 1.5 
z
" style="stroke: #ff00ff"/>
    </defs>
    <g>
     <use xlink:href="#m85d85ad14f" x="377.368502" y="181.914353" style="fill: #ff00ff; stroke: #ff00ff"/>
     <use xlink:href="#m85d85ad14f" x="377.368502" y="181.914353" style="fill: #ff00ff; stroke: #ff00ff"/>
    </g>
   </g>
   <g id="line2d_40">
    <path d="M -1 224.470588 
L 234.474706 224.470588 
L 234.474706 224.115953 
L 234.712952 224.115953 
L 234.712952 223.761318 
L 237.76105 223.761318 
L 237.858983 223.052047 
L 238.197263 223.052047 
L 238.197263 222.697412 
L 239.839707 222.697412 
L 239.839707 222.342776 
L 240.488085 222.342776 
L 240.488085 221.988141 
L 242.182426 221.988141 
L 242.182426 221.633506 
L 243.901879 221.633506 
L 243.901879 221.278871 
L 247.231513 221.278871 
L 247.231513 220.924235 
L 247.820367 220.924235 
L 247.820367 220.5696 
L 248.658501 220.5696 
L 248.658501 220.214965 
L 249.45346 220.214965 
L 249.45346 219.860329 
L 249.664778 219.860329 
L 249.664778 219.505694 
L 249.856932 219.505694 
L 249.856932 219.151059 
L 250.125149 219.151059 
L 250.125149 218.796424 
L 251.19854 218.796424 
L 251.19854 218.441788 
L 252.033814 218.441788 
L 252.049891 217.732518 
L 252.253897 217.732518 
L 252.253897 217.377882 
L 254.073794 217.377882 
L 254.127402 216.668612 
L 254.28094 216.668612 
L 254.28094 216.313976 
L 254.492165 216.313976 
L 254.492165 215.959341 
L 255.018466 215.959341 
L 255.018466 215.604706 
L 257.964891 215.604706 
L 257.964891 215.250071 
L 258.178887 215.250071 
L 258.26444 214.5408 
L 259.024108 214.5408 
L 259.024108 214.186165 
L 259.164735 214.186165 
L 259.164735 213.831529 
L 259.461084 213.831529 
L 259.461084 213.476894 
L 261.31908 213.476894 
L 261.31908 213.122259 
L 261.663893 213.122259 
L 261.663893 212.767624 
L 263.288103 212.767624 
L 263.288103 212.412988 
L 263.562563 212.412988 
L 263.562563 212.058353 
L 263.697226 212.058353 
L 263.697226 211.703718 
L 264.386554 211.703718 
L 264.386554 211.349082 
L 265.553759 211.349082 
L 265.553759 210.994447 
L 268.782072 210.994447 
L 268.782072 210.639812 
L 269.737833 210.639812 
L 269.737833 210.285176 
L 269.923915 210.285176 
L 269.923915 209.930541 
L 270.243708 209.930541 
L 270.243708 209.575906 
L 270.763513 209.575906 
L 270.763513 209.221271 
L 271.078317 209.221271 
L 271.078317 208.866635 
L 274.840312 208.866635 
L 274.840312 208.512 
L 275.133885 208.512 
L 275.207682 207.802729 
L 275.926854 207.802729 
L 275.961898 207.093459 
L 277.556157 207.093459 
L 277.556157 206.738824 
L 279.541005 206.738824 
L 279.541005 206.384188 
L 280.569386 206.384188 
L 280.569386 206.029553 
L 280.706135 206.029553 
L 280.706135 205.674918 
L 280.914735 205.674918 
L 280.977467 204.965647 
L 281.11936 204.965647 
L 281.202017 204.256376 
L 282.143391 204.256376 
L 282.143391 203.901741 
L 282.271247 203.901741 
L 282.271247 203.547106 
L 282.457989 203.547106 
L 282.53239 202.837835 
L 283.016063 202.837835 
L 283.073778 202.128565 
L 284.090408 202.128565 
L 284.116987 201.419294 
L 284.219275 201.419294 
L 284.219275 201.064659 
L 284.382352 201.064659 
L 284.382352 200.710024 
L 284.509016 200.710024 
L 284.582147 200.000753 
L 285.656398 200.000753 
L 285.656398 199.646118 
L 286.125085 199.646118 
L 286.125085 199.291482 
L 286.236394 199.291482 
L 286.236394 198.936847 
L 286.379978 198.936847 
L 286.379978 198.582212 
L 287.722653 198.582212 
L 287.722653 198.227576 
L 288.256975 198.227576 
L 288.256975 197.872941 
L 288.772439 197.872941 
L 288.772439 197.518306 
L 291.197067 197.518306 
L 291.197067 197.163671 
L 298.393562 197.163671 
L 298.393562 196.809035 
L 298.76081 196.809035 
L 298.76081 196.4544 
L 301.302162 196.4544 
L 301.302162 196.099765 
L 301.76062 196.099765 
L 301.76062 195.745129 
L 302.026605 195.745129 
L 302.026605 195.390494 
L 309.109834 195.390494 
L 309.109834 195.035859 
L 309.250422 195.035859 
L 309.250422 194.681224 
L 309.496508 194.681224 
L 309.496508 194.326588 
L 310.419564 194.326588 
L 310.419564 193.971953 
L 310.645796 193.971953 
L 310.645796 193.617318 
L 310.906262 193.617318 
L 310.906262 193.262682 
L 315.408763 193.262682 
L 315.408763 192.908047 
L 316.082454 192.908047 
L 316.082454 192.553412 
L 316.356179 192.553412 
L 316.356179 192.198776 
L 320.742363 192.198776 
L 320.742363 191.844141 
L 321.512013 191.844141 
L 321.512013 191.489506 
L 327.695236 191.489506 
L 327.695236 191.134871 
L 327.861932 191.134871 
L 327.948291 190.4256 
L 332.140415 190.4256 
L 332.140415 190.070965 
L 332.662912 190.070965 
L 332.662912 189.716329 
L 332.947811 189.716329 
L 332.947811 189.361694 
L 337.090089 189.361694 
L 337.090089 189.007059 
L 338.231531 189.007059 
L 338.231531 188.652424 
L 340.173882 188.652424 
L 340.173882 188.297788 
L 342.556622 188.297788 
L 342.556622 187.943153 
L 343.714595 187.943153 
L 343.714595 187.588518 
L 345.162872 187.588518 
L 345.180574 186.879247 
L 347.025849 186.879247 
L 347.025849 186.524612 
L 350.605604 186.524612 
L 350.605604 186.169976 
L 350.928794 186.169976 
L 350.928794 185.815341 
L 356.210603 185.815341 
L 356.210603 185.460706 
L 356.521915 185.460706 
L 356.521915 185.106071 
L 358.714353 185.106071 
L 358.714353 184.751435 
L 358.988633 184.751435 
L 358.988633 184.3968 
L 360.8064 184.3968 
L 360.8064 184.3968 
" style="fill: none; stroke: #ff00ff; stroke-width: 1.5; stroke-linecap: square"/>
   </g>
   <g id="line2d_41">
    <defs>
     <path id="m621bafb89b" d="M -0 8.485281 
L 5.091169 0 
L 0 -8.485281 
L -5.091169 -0 
z
" style="stroke: #ff00ff; stroke-width: 1.5; stroke-linejoin: miter"/>
    </defs>
    <g>
     <use xlink:href="#m621bafb89b" x="287.722653" y="198.582212" style="fill-opacity: 0; stroke: #ff00ff; stroke-width: 1.5; stroke-linejoin: miter"/>
     <use xlink:href="#m621bafb89b" x="358.988633" y="184.3968" style="fill-opacity: 0; stroke: #ff00ff; stroke-width: 1.5; stroke-linejoin: miter"/>
     <use xlink:href="#m621bafb89b" x="360.8064" y="184.3968" style="fill-opacity: 0; stroke: #ff00ff; stroke-width: 1.5; stroke-linejoin: miter"/>
    </g>
   </g>
   <g id="line2d_42">
    <path style="fill: none; stroke: #ff00ff; stroke-width: 1.5; stroke-linecap: square"/>
    <g/>
   </g>
   <g id="line2d_43">
    <path d="M 305.180661 195.390494 
" clip-path="url(#p907174896c)" style="fill: none; stroke: #ff00ff; stroke-width: 1.5; stroke-linecap: square"/>
    <defs>
     <path id="md1f202df10" d="M -12 12 
L 12 -12 
M -12 -12 
L 12 12 
" style="stroke: #ff00ff"/>
    </defs>
    <g clip-path="url(#p907174896c)">
     <use xlink:href="#md1f202df10" x="305.180661" y="195.390494" style="fill: #ff00ff; stroke: #ff00ff"/>
    </g>
   </g>
   <g id="line2d_44">
    <defs>
     <path id="m548a7b3ffb" d="M 0 1.5 
C 0.397805 1.5 0.77937 1.341951 1.06066 1.06066 
C 1.341951 0.77937 1.5 0.397805 1.5 0 
C 1.5 -0.397805 1.341951 -0.77937 1.06066 -1.06066 
C 0.77937 -1.341951 0.397805 -1.5 0 -1.5 
C -0.397805 -1.5 -0.77937 -1.341951 -1.06066 -1.06066 
C -1.341951 -0.77937 -1.5 -0.397805 -1.5 0 
C -1.5 0.397805 -1.341951 0.77937 -1.06066 1.06066 
C -0.77937 1.341951 -0.397805 1.5 0 1.5 
z
" style="stroke: #ff7500"/>
    </defs>
    <g>
     <use xlink:href="#m548a7b3ffb" x="344.917428" y="27.648" style="fill: #ff7500; stroke: #ff7500"/>
     <use xlink:href="#m548a7b3ffb" x="344.917428" y="27.648" style="fill: #ff7500; stroke: #ff7500"/>
    </g>
   </g>
   <g id="line2d_45">
    <path d="M -1 224.470588 
L 225.476812 224.470588 
L 225.476812 224.115953 
L 231.940506 224.115953 
L 231.940506 223.761318 
L 232.430263 223.761318 
L 232.430263 223.406682 
L 237.93327 223.406682 
L 237.93327 223.052047 
L 238.683634 223.052047 
L 238.718725 222.342776 
L 239.349857 222.342776 
L 239.349857 221.988141 
L 240.352168 221.988141 
L 240.352168 221.633506 
L 242.050966 221.633506 
L 242.050966 221.278871 
L 242.637861 221.278871 
L 242.637861 220.924235 
L 248.623447 220.924235 
L 248.623447 220.5696 
L 249.061493 220.5696 
L 249.061493 220.214965 
L 249.390113 220.214965 
L 249.390113 219.860329 
L 249.897474 219.860329 
L 249.897474 219.505694 
L 250.442961 219.505694 
L 250.442961 219.151059 
L 252.851068 219.151059 
L 252.851068 218.796424 
L 258.233108 218.796424 
L 258.233108 218.441788 
L 258.677363 218.441788 
L 258.677363 218.087153 
L 258.93698 218.087153 
L 258.93698 217.732518 
L 259.154193 217.732518 
L 259.259144 216.668612 
L 259.420725 216.668612 
L 259.420725 216.313976 
L 260.08071 216.313976 
L 260.08071 215.959341 
L 260.263605 215.959341 
L 260.263605 215.604706 
L 262.340714 215.604706 
L 262.442648 214.5408 
L 262.654863 214.5408 
L 262.654863 214.186165 
L 262.956212 214.186165 
L 262.956212 213.831529 
L 263.648558 213.831529 
L 263.656869 213.122259 
L 263.77191 213.122259 
L 263.774845 212.412988 
L 264.518696 212.412988 
L 264.518696 212.058353 
L 265.250997 212.058353 
L 265.250997 211.703718 
L 265.837546 211.703718 
L 265.837546 211.349082 
L 266.803497 211.349082 
L 266.824892 210.639812 
L 267.720404 210.639812 
L 267.818644 209.930541 
L 267.952207 209.930541 
L 267.952207 209.575906 
L 268.13742 209.575906 
L 268.13742 209.221271 
L 268.353093 209.221271 
L 268.353093 208.866635 
L 268.842959 208.866635 
L 268.842959 208.512 
L 268.959591 208.512 
L 268.975062 207.802729 
L 269.268507 207.802729 
L 269.268507 207.448094 
L 270.536334 207.448094 
L 270.536334 207.093459 
L 270.971974 207.093459 
L 270.971974 206.738824 
L 271.416035 206.738824 
L 271.416035 206.384188 
L 271.618025 206.384188 
L 271.679347 204.965647 
L 272.997143 204.965647 
L 272.997143 204.611012 
L 273.633264 204.611012 
L 273.742849 203.901741 
L 275.186367 203.901741 
L 275.186367 203.547106 
L 275.599578 203.547106 
L 275.599578 203.192471 
L 276.274014 203.192471 
L 276.274014 202.837835 
L 276.638943 202.837835 
L 276.638943 202.4832 
L 277.129661 202.4832 
L 277.129661 202.128565 
L 277.696775 202.128565 
L 277.718548 201.419294 
L 278.211581 201.419294 
L 278.302744 200.710024 
L 278.561215 200.710024 
L 278.607631 200.000753 
L 278.879926 200.000753 
L 278.932532 199.291482 
L 279.800638 199.291482 
L 279.800638 198.936847 
L 280.250591 198.936847 
L 280.250591 198.582212 
L 280.620501 198.582212 
L 280.620501 197.872941 
L 280.925155 197.872941 
L 280.925155 197.518306 
L 281.271973 197.518306 
L 281.271973 197.163671 
L 281.43516 197.163671 
L 281.544221 195.390494 
L 281.590095 195.390494 
L 281.698828 193.617318 
L 281.70864 193.617318 
L 281.771581 192.198776 
L 281.828043 192.198776 
L 281.939111 190.070965 
L 281.969206 190.070965 
L 282.056378 187.943153 
L 282.087138 187.943153 
L 282.194156 185.815341 
L 282.21317 185.815341 
L 282.217246 185.106071 
L 282.372596 185.106071 
L 282.372596 184.751435 
L 283.223539 184.751435 
L 283.223539 184.3968 
L 283.806271 184.3968 
L 283.855062 183.687529 
L 284.106016 183.687529 
L 284.106016 183.332894 
L 284.368731 183.332894 
L 284.368731 182.978259 
L 284.592401 182.978259 
L 284.592401 182.623624 
L 285.287857 182.623624 
L 285.287857 182.268988 
L 286.177652 182.268988 
L 286.266239 180.850447 
L 286.30398 180.850447 
L 286.404124 179.431906 
L 286.453605 179.431906 
L 286.553384 177.658729 
L 286.604009 177.658729 
L 286.699898 176.240188 
L 286.716342 176.240188 
L 286.824157 174.821647 
L 286.842977 174.821647 
L 286.933613 173.403106 
L 286.958418 173.403106 
L 287.062353 171.629929 
L 287.097579 171.629929 
L 287.115553 170.920659 
L 287.722598 170.920659 
L 287.722598 170.566024 
L 287.959035 170.566024 
L 287.959035 170.211388 
L 289.013527 170.211388 
L 289.12164 169.147482 
L 289.133796 169.147482 
L 289.217818 167.019671 
L 289.257172 167.019671 
L 289.351375 165.246494 
L 289.369661 165.246494 
L 289.458435 163.827953 
L 289.489509 163.827953 
L 289.573624 162.054776 
L 289.618882 162.054776 
L 289.728156 159.926965 
L 289.738827 159.926965 
L 289.819693 158.508424 
L 289.856956 158.508424 
L 289.952495 157.799153 
L 289.995672 157.799153 
L 290.102596 155.316706 
L 290.139478 155.316706 
L 290.249641 153.188894 
L 290.257974 153.188894 
L 290.366992 150.706447 
L 290.386272 150.706447 
L 290.488465 147.514729 
L 290.503809 147.514729 
L 290.609227 142.904471 
L 290.61632 142.904471 
L 290.71441 139.358118 
L 290.728891 139.358118 
L 290.828721 136.521035 
L 290.842036 136.521035 
L 290.952466 134.038588 
L 290.981094 134.038588 
L 291.08643 131.910776 
L 291.108071 131.910776 
L 291.108071 131.556141 
L 291.530514 131.556141 
L 291.530514 131.201506 
L 291.681496 131.201506 
L 291.681496 130.846871 
L 292.154461 130.846871 
L 292.154461 130.492235 
L 292.376418 130.492235 
L 292.376418 130.1376 
L 296.037648 130.1376 
L 296.105627 129.428329 
L 296.327087 129.428329 
L 296.327087 129.073694 
L 296.900811 129.073694 
L 296.962866 128.364424 
L 297.978526 128.364424 
L 298.062563 126.945882 
L 298.199158 126.945882 
L 298.266184 125.172706 
L 298.355289 125.172706 
L 298.459865 123.754165 
L 298.709101 123.754165 
L 298.709101 123.399529 
L 299.057059 123.399529 
L 299.057059 123.044894 
L 299.329857 123.044894 
L 299.329857 122.690259 
L 300.358439 122.690259 
L 300.404574 121.626353 
L 300.489177 121.626353 
L 300.567086 120.207812 
L 300.650963 120.207812 
L 300.666498 119.498541 
L 300.942905 119.498541 
L 301.043679 116.306824 
L 301.081239 116.306824 
L 301.189508 114.179012 
L 301.252421 114.179012 
L 301.252421 113.824376 
L 301.512229 113.824376 
L 301.584246 113.115106 
L 301.845874 113.115106 
L 301.893454 112.405835 
L 302.027214 112.405835 
L 302.124651 110.987294 
L 302.269046 110.987294 
L 302.338189 108.859482 
L 302.383795 108.859482 
L 302.488595 105.667765 
L 302.495311 105.667765 
L 302.582568 103.185318 
L 302.607499 103.185318 
L 302.633367 102.476047 
L 302.861172 102.476047 
L 302.888267 101.766776 
L 302.982155 101.766776 
L 303.012519 101.057506 
L 303.126971 101.057506 
L 303.159114 99.638965 
L 303.910888 99.638965 
L 303.940666 98.929694 
L 304.07451 98.929694 
L 304.185139 97.511153 
L 304.223541 97.511153 
L 304.238457 96.801882 
L 304.572069 96.801882 
L 304.671337 95.383341 
L 304.708435 95.383341 
L 304.806956 94.319435 
L 304.830927 94.319435 
L 304.830927 93.9648 
L 305.57425 93.9648 
L 305.57425 93.610165 
L 305.764512 93.610165 
L 305.764512 93.255529 
L 306.638652 93.255529 
L 306.721069 92.546259 
L 306.808425 92.546259 
L 306.867793 91.127718 
L 306.992409 91.127718 
L 307.101207 89.709176 
L 307.110694 89.709176 
L 307.158924 88.645271 
L 307.261538 88.645271 
L 307.345322 86.517459 
L 307.377954 86.517459 
L 307.452403 85.453553 
L 307.676929 85.453553 
L 307.676929 85.098918 
L 308.655641 85.098918 
L 308.657447 84.389647 
L 309.313494 84.389647 
L 309.313494 84.035012 
L 309.472201 84.035012 
L 309.472201 83.680376 
L 309.586141 83.680376 
L 309.586141 83.325741 
L 309.722781 83.325741 
L 309.722781 82.971106 
L 309.883588 82.971106 
L 309.928929 81.9072 
L 310.149582 81.9072 
L 310.186297 81.197929 
L 310.325367 81.197929 
L 310.407959 80.488659 
L 310.503025 80.488659 
L 310.557504 79.070118 
L 310.66749 79.070118 
L 310.733118 78.360847 
L 310.809638 78.360847 
L 310.92019 76.942306 
L 311.093713 76.942306 
L 311.093713 76.587671 
L 311.218876 76.587671 
L 311.218876 76.233035 
L 311.362208 76.233035 
L 311.365877 75.523765 
L 311.893903 75.523765 
L 311.931736 74.814494 
L 312.039011 74.814494 
L 312.11845 74.105224 
L 312.247979 74.105224 
L 312.247979 73.750588 
L 312.733773 73.750588 
L 312.739974 73.041318 
L 312.984097 73.041318 
L 313.093011 72.332047 
L 313.116314 72.332047 
L 313.226648 71.622776 
L 313.319084 71.622776 
L 313.322137 70.913506 
L 313.456488 70.913506 
L 313.456488 70.558871 
L 314.089483 70.558871 
L 314.175824 69.140329 
L 314.295697 69.140329 
L 314.374857 68.076424 
L 314.850632 68.076424 
L 314.850632 67.721788 
L 315.090906 67.721788 
L 315.090906 67.367153 
L 315.437509 67.367153 
L 315.466996 66.657882 
L 315.653602 66.657882 
L 315.73172 65.593976 
L 315.91418 65.593976 
L 316.001633 64.175435 
L 316.11317 64.175435 
L 316.160498 63.111529 
L 316.340292 63.111529 
L 316.340292 62.756894 
L 316.562647 62.756894 
L 316.595951 62.047624 
L 316.686607 62.047624 
L 316.77527 61.338353 
L 317.067208 61.338353 
L 317.067208 60.983718 
L 317.243433 60.983718 
L 317.274413 59.919812 
L 317.391949 59.919812 
L 317.391949 59.565176 
L 317.555527 59.565176 
L 317.555527 59.210541 
L 317.737241 59.210541 
L 317.737241 58.855906 
L 317.973779 58.855906 
L 318.000238 58.146635 
L 318.184811 58.146635 
L 318.184811 57.792 
L 318.487574 57.792 
L 318.545083 57.082729 
L 318.803438 57.082729 
L 318.803438 56.728094 
L 318.965882 56.728094 
L 319.062275 56.018824 
L 319.134202 56.018824 
L 319.197833 55.309553 
L 319.262762 55.309553 
L 319.262762 54.954918 
L 319.524559 54.954918 
L 319.524559 54.600282 
L 319.83285 54.600282 
L 319.902573 53.891012 
L 320.056656 53.891012 
L 320.141095 52.827106 
L 320.267085 52.827106 
L 320.336275 52.117835 
L 320.458126 52.117835 
L 320.498837 51.408565 
L 320.605883 51.408565 
L 320.704156 50.344659 
L 320.735129 50.344659 
L 320.780076 49.635388 
L 320.933651 49.635388 
L 320.933651 49.280753 
L 321.2842 49.280753 
L 321.335067 48.571482 
L 321.456449 48.571482 
L 321.468834 47.862212 
L 321.603467 47.862212 
L 321.670758 47.152941 
L 321.743162 47.152941 
L 321.743162 46.798306 
L 322.12402 46.798306 
L 322.218253 46.089035 
L 322.680122 46.089035 
L 322.693544 45.379765 
L 322.822251 45.379765 
L 322.822251 45.025129 
L 323.053446 45.025129 
L 323.073819 44.315859 
L 323.350753 44.315859 
L 323.350753 43.961224 
L 323.471452 43.961224 
L 323.471452 43.606588 
L 323.617368 43.606588 
L 323.617368 43.251953 
L 323.742667 43.251953 
L 323.834408 42.542682 
L 323.902543 42.542682 
L 323.969486 41.833412 
L 324.155069 41.833412 
L 324.217171 40.769506 
L 324.427188 40.769506 
L 324.427188 40.414871 
L 324.676793 40.414871 
L 324.676793 40.060235 
L 324.8228 40.060235 
L 324.886148 39.350965 
L 325.10717 39.350965 
L 325.189452 38.641694 
L 325.28543 38.641694 
L 325.28543 38.287059 
L 325.881177 38.287059 
L 325.970749 37.577788 
L 326.059333 37.577788 
L 326.091541 36.868518 
L 326.178042 36.868518 
L 326.178042 36.513882 
L 326.500168 36.513882 
L 326.549838 35.804612 
L 326.723206 35.804612 
L 326.75593 35.095341 
L 326.835343 35.095341 
L 326.928509 34.386071 
L 327.016399 34.386071 
L 327.0761 33.6768 
L 328.225411 33.6768 
L 328.225411 33.322165 
L 328.431564 33.322165 
L 328.491126 32.612894 
L 328.913987 32.612894 
L 328.969888 31.903624 
L 329.346777 31.903624 
L 329.346777 31.548988 
L 330.152535 31.548988 
L 330.152535 31.194353 
L 330.937816 31.194353 
L 330.937816 30.839718 
L 333.109527 30.839718 
L 333.109527 30.485082 
L 334.6256 30.485082 
L 334.6256 30.130447 
L 334.749282 30.130447 
L 334.749282 29.775812 
L 335.976942 29.775812 
L 335.976942 29.421176 
L 336.928452 29.421176 
L 336.928452 29.066541 
L 339.935161 29.066541 
L 339.935161 28.711906 
L 342.85911 28.711906 
L 342.85911 28.357271 
L 343.260104 28.357271 
L 343.260104 28.002635 
L 344.917428 28.002635 
L 344.917428 27.648 
L 360.8064 27.648 
L 360.8064 27.648 
" style="fill: none; stroke: #ff7500; stroke-width: 1.5; stroke-linecap: square"/>
   </g>
   <g id="line2d_46">
    <defs>
     <path id="m2b9c3aa77b" d="M 0 -6 
L -1.347084 -1.854102 
L -5.706339 -1.854102 
L -2.179628 0.708204 
L -3.526712 4.854102 
L -0 2.291796 
L 3.526712 4.854102 
L 2.179628 0.708204 
L 5.706339 -1.854102 
L 1.347084 -1.854102 
z
" style="stroke: #ff7500; stroke-width: 1.5; stroke-linejoin: bevel"/>
    </defs>
    <g>
     <use xlink:href="#m2b9c3aa77b" x="225.476812" y="224.470588" style="fill-opacity: 0; stroke: #ff7500; stroke-width: 1.5; stroke-linejoin: bevel"/>
     <use xlink:href="#m2b9c3aa77b" x="308.657447" y="84.744282" style="fill-opacity: 0; stroke: #ff7500; stroke-width: 1.5; stroke-linejoin: bevel"/>
     <use xlink:href="#m2b9c3aa77b" x="344.917428" y="27.648" style="fill-opacity: 0; stroke: #ff7500; stroke-width: 1.5; stroke-linejoin: bevel"/>
     <use xlink:href="#m2b9c3aa77b" x="360.8064" y="27.648" style="fill-opacity: 0; stroke: #ff7500; stroke-width: 1.5; stroke-linejoin: bevel"/>
    </g>
   </g>
   <g id="line2d_47">
    <path style="fill: none; stroke: #ff7500; stroke-width: 1.5; stroke-linecap: square"/>
    <g/>
   </g>
   <g id="line2d_48">
    <path d="M 291.508181 131.556141 
" clip-path="url(#p907174896c)" style="fill: none; stroke: #ff7500; stroke-width: 1.5; stroke-linecap: square"/>
    <defs>
     <path id="m5b0df1a88d" d="M -12 12 
L 12 -12 
M -12 -12 
L 12 12 
" style="stroke: #ff7500"/>
    </defs>
    <g clip-path="url(#p907174896c)">
     <use xlink:href="#m5b0df1a88d" x="291.508181" y="131.556141" style="fill: #ff7500; stroke: #ff7500"/>
    </g>
   </g>
   <g id="line2d_49">
    <path d="M 360.8064 184.3968 
L 380.514816 293.51808 
" style="fill: none; stroke: #ff00ff; stroke-width: 1.5; stroke-linecap: square"/>
    <g>
     <use xlink:href="#m621bafb89b" x="360.8064" y="184.3968" style="fill-opacity: 0; stroke: #ff00ff; stroke-width: 1.5; stroke-linejoin: miter"/>
     <use xlink:href="#m621bafb89b" x="380.514816" y="293.51808" style="fill-opacity: 0; stroke: #ff00ff; stroke-width: 1.5; stroke-linejoin: miter"/>
    </g>
   </g>
   <g id="line2d_50">
    <path d="M 360.8064 174.821647 
L 380.514816 206.70336 
" style="fill: none; stroke: #000080; stroke-width: 1.5; stroke-linecap: square"/>
    <g>
     <use xlink:href="#mc80b944d71" x="360.8064" y="174.821647" style="fill-opacity: 0; stroke: #000080; stroke-width: 1.5"/>
     <use xlink:href="#mc80b944d71" x="380.514816" y="206.70336" style="fill-opacity: 0; stroke: #000080; stroke-width: 1.5"/>
    </g>
   </g>
   <g id="line2d_51">
    <path d="M 360.8064 27.648 
L 380.514816 119.88864 
" style="fill: none; stroke: #ff7500; stroke-width: 1.5; stroke-linecap: square"/>
    <g>
     <use xlink:href="#m2b9c3aa77b" x="360.8064" y="27.648" style="fill-opacity: 0; stroke: #ff7500; stroke-width: 1.5; stroke-linejoin: bevel"/>
     <use xlink:href="#m2b9c3aa77b" x="380.514816" y="119.88864" style="fill-opacity: 0; stroke: #ff7500; stroke-width: 1.5; stroke-linejoin: bevel"/>
    </g>
   </g>
   <g id="line2d_52">
    <path d="M 360.8064 298.944 
L 360.8064 27.648 
" style="fill: none; stroke: #000000; stroke-width: 1.5; stroke-linecap: square"/>
   </g>
   <g id="patch_3">
    <path d="M 57.6 298.944 
L 360.8064 298.944 
" style="fill: none; stroke: #000000; stroke-width: 0.8; stroke-linejoin: miter; stroke-linecap: square"/>
   </g>
   <g id="patch_4">
    <path d="M 57.6 27.648 
L 360.8064 27.648 
" style="fill: none; stroke: #000000; stroke-width: 0.8; stroke-linejoin: miter; stroke-linecap: square"/>
   </g>
   <g id="text_13">
    <!-- ddcma1 -->
    <g transform="translate(386.578944 297.381205)scale(0.14 -0.14)">
     <use xlink:href="#DejaVuSans-64"/>
     <use xlink:href="#DejaVuSans-64" x="63.476562"/>
     <use xlink:href="#DejaVuSans-63" x="126.953125"/>
     <use xlink:href="#DejaVuSans-6d" x="181.933594"/>
     <use xlink:href="#DejaVuSans-61" x="279.345703"/>
     <use xlink:href="#DejaVuSans-31" x="340.625"/>
    </g>
   </g>
   <g id="text_14">
    <!-- ddcma0 -->
    <g transform="translate(386.578944 210.566485)scale(0.14 -0.14)">
     <use xlink:href="#DejaVuSans-64"/>
     <use xlink:href="#DejaVuSans-64" x="63.476562"/>
     <use xlink:href="#DejaVuSans-63" x="126.953125"/>
     <use xlink:href="#DejaVuSans-6d" x="181.933594"/>
     <use xlink:href="#DejaVuSans-61" x="279.345703"/>
     <use xlink:href="#DejaVuSans-30" x="340.625"/>
    </g>
   </g>
   <g id="text_15">
    <!-- CMA-ES-20 -->
    <g transform="translate(386.578944 123.751765)scale(0.14 -0.14)">
     <defs>
      <path id="DejaVuSans-43" d="M 4122 4306 
L 4122 3641 
Q 3803 3938 3442 4084 
Q 3081 4231 2675 4231 
Q 1875 4231 1450 3742 
Q 1025 3253 1025 2328 
Q 1025 1406 1450 917 
Q 1875 428 2675 428 
Q 3081 428 3442 575 
Q 3803 722 4122 1019 
L 4122 359 
Q 3791 134 3420 21 
Q 3050 -91 2638 -91 
Q 1578 -91 968 557 
Q 359 1206 359 2328 
Q 359 3453 968 4101 
Q 1578 4750 2638 4750 
Q 3056 4750 3426 4639 
Q 3797 4528 4122 4306 
z
" transform="scale(0.015625)"/>
      <path id="DejaVuSans-4d" d="M 628 4666 
L 1569 4666 
L 2759 1491 
L 3956 4666 
L 4897 4666 
L 4897 0 
L 4281 0 
L 4281 4097 
L 3078 897 
L 2444 897 
L 1241 4097 
L 1241 0 
L 628 0 
L 628 4666 
z
" transform="scale(0.015625)"/>
      <path id="DejaVuSans-41" d="M 2188 4044 
L 1331 1722 
L 3047 1722 
L 2188 4044 
z
M 1831 4666 
L 2547 4666 
L 4325 0 
L 3669 0 
L 3244 1197 
L 1141 1197 
L 716 0 
L 50 0 
L 1831 4666 
z
" transform="scale(0.015625)"/>
      <path id="DejaVuSans-45" d="M 628 4666 
L 3578 4666 
L 3578 4134 
L 1259 4134 
L 1259 2753 
L 3481 2753 
L 3481 2222 
L 1259 2222 
L 1259 531 
L 3634 531 
L 3634 0 
L 628 0 
L 628 4666 
z
" transform="scale(0.015625)"/>
      <path id="DejaVuSans-53" d="M 3425 4513 
L 3425 3897 
Q 3066 4069 2747 4153 
Q 2428 4238 2131 4238 
Q 1616 4238 1336 4038 
Q 1056 3838 1056 3469 
Q 1056 3159 1242 3001 
Q 1428 2844 1947 2747 
L 2328 2669 
Q 3034 2534 3370 2195 
Q 3706 1856 3706 1288 
Q 3706 609 3251 259 
Q 2797 -91 1919 -91 
Q 1588 -91 1214 -16 
Q 841 59 441 206 
L 441 856 
Q 825 641 1194 531 
Q 1563 422 1919 422 
Q 2459 422 2753 634 
Q 3047 847 3047 1241 
Q 3047 1584 2836 1778 
Q 2625 1972 2144 2069 
L 1759 2144 
Q 1053 2284 737 2584 
Q 422 2884 422 3419 
Q 422 4038 858 4394 
Q 1294 4750 2059 4750 
Q 2388 4750 2728 4690 
Q 3069 4631 3425 4513 
z
" transform="scale(0.015625)"/>
     </defs>
     <use xlink:href="#DejaVuSans-43"/>
     <use xlink:href="#DejaVuSans-4d" x="69.824219"/>
     <use xlink:href="#DejaVuSans-41" x="156.103516"/>
     <use xlink:href="#DejaVuSans-2d" x="222.261719"/>
     <use xlink:href="#DejaVuSans-45" x="258.345703"/>
     <use xlink:href="#DejaVuSans-53" x="321.529297"/>
     <use xlink:href="#DejaVuSans-2d" x="385.005859"/>
     <use xlink:href="#DejaVuSans-32" x="421.089844"/>
     <use xlink:href="#DejaVuSans-30" x="484.712891"/>
    </g>
   </g>
   <g id="text_16">
    <!-- best 2009 -->
    <g transform="translate(386.578944 36.937045)scale(0.14 -0.14)">
     <defs>
      <path id="DejaVuSans-62" d="M 3116 1747 
Q 3116 2381 2855 2742 
Q 2594 3103 2138 3103 
Q 1681 3103 1420 2742 
Q 1159 2381 1159 1747 
Q 1159 1113 1420 752 
Q 1681 391 2138 391 
Q 2594 391 2855 752 
Q 3116 1113 3116 1747 
z
M 1159 2969 
Q 1341 3281 1617 3432 
Q 1894 3584 2278 3584 
Q 2916 3584 3314 3078 
Q 3713 2572 3713 1747 
Q 3713 922 3314 415 
Q 2916 -91 2278 -91 
Q 1894 -91 1617 61 
Q 1341 213 1159 525 
L 1159 0 
L 581 0 
L 581 4863 
L 1159 4863 
L 1159 2969 
z
" transform="scale(0.015625)"/>
      <path id="DejaVuSans-39" d="M 703 97 
L 703 672 
Q 941 559 1184 500 
Q 1428 441 1663 441 
Q 2288 441 2617 861 
Q 2947 1281 2994 2138 
Q 2813 1869 2534 1725 
Q 2256 1581 1919 1581 
Q 1219 1581 811 2004 
Q 403 2428 403 3163 
Q 403 3881 828 4315 
Q 1253 4750 1959 4750 
Q 2769 4750 3195 4129 
Q 3622 3509 3622 2328 
Q 3622 1225 3098 567 
Q 2575 -91 1691 -91 
Q 1453 -91 1209 -44 
Q 966 3 703 97 
z
M 1959 2075 
Q 2384 2075 2632 2365 
Q 2881 2656 2881 3163 
Q 2881 3666 2632 3958 
Q 2384 4250 1959 4250 
Q 1534 4250 1286 3958 
Q 1038 3666 1038 3163 
Q 1038 2656 1286 2365 
Q 1534 2075 1959 2075 
z
" transform="scale(0.015625)"/>
     </defs>
     <use xlink:href="#DejaVuSans-62"/>
     <use xlink:href="#DejaVuSans-65" x="63.476562"/>
     <use xlink:href="#DejaVuSans-73" x="125"/>
     <use xlink:href="#DejaVuSans-74" x="177.099609"/>
     <use xlink:href="#DejaVuSans-20" x="216.308594"/>
     <use xlink:href="#DejaVuSans-32" x="248.095703"/>
     <use xlink:href="#DejaVuSans-30" x="311.71875"/>
     <use xlink:href="#DejaVuSans-30" x="375.341797"/>
     <use xlink:href="#DejaVuSans-39" x="438.964844"/>
    </g>
   </g>
   <g id="text_17">
    <!-- bbob f19, 40-D -->
    <g transform="translate(60.632064 38.111366)scale(0.102 -0.102)">
     <defs>
      <path id="DejaVuSans-44" d="M 1259 4147 
L 1259 519 
L 2022 519 
Q 2988 519 3436 956 
Q 3884 1394 3884 2338 
Q 3884 3275 3436 3711 
Q 2988 4147 2022 4147 
L 1259 4147 
z
M 628 4666 
L 1925 4666 
Q 3281 4666 3915 4102 
Q 4550 3538 4550 2338 
Q 4550 1131 3912 565 
Q 3275 0 1925 0 
L 628 0 
L 628 4666 
z
" transform="scale(0.015625)"/>
     </defs>
     <use xlink:href="#DejaVuSans-62"/>
     <use xlink:href="#DejaVuSans-62" x="63.476562"/>
     <use xlink:href="#DejaVuSans-6f" x="126.953125"/>
     <use xlink:href="#DejaVuSans-62" x="188.134766"/>
     <use xlink:href="#DejaVuSans-20" x="251.611328"/>
     <use xlink:href="#DejaVuSans-66" x="283.398438"/>
     <use xlink:href="#DejaVuSans-31" x="318.603516"/>
     <use xlink:href="#DejaVuSans-39" x="382.226562"/>
     <use xlink:href="#DejaVuSans-2c" x="445.849609"/>
     <use xlink:href="#DejaVuSans-20" x="477.636719"/>
     <use xlink:href="#DejaVuSans-34" x="509.423828"/>
     <use xlink:href="#DejaVuSans-30" x="573.046875"/>
     <use xlink:href="#DejaVuSans-2d" x="636.669922"/>
     <use xlink:href="#DejaVuSans-44" x="672.753906"/>
    </g>
    <!-- 51 targets: 100..1e-08 -->
    <g transform="translate(60.632064 49.533135)scale(0.102 -0.102)">
     <defs>
      <path id="DejaVuSans-35" d="M 691 4666 
L 3169 4666 
L 3169 4134 
L 1269 4134 
L 1269 2991 
Q 1406 3038 1543 3061 
Q 1681 3084 1819 3084 
Q 2600 3084 3056 2656 
Q 3513 2228 3513 1497 
Q 3513 744 3044 326 
Q 2575 -91 1722 -91 
Q 1428 -91 1123 -41 
Q 819 9 494 109 
L 494 744 
Q 775 591 1075 516 
Q 1375 441 1709 441 
Q 2250 441 2565 725 
Q 2881 1009 2881 1497 
Q 2881 1984 2565 2268 
Q 2250 2553 1709 2553 
Q 1456 2553 1204 2497 
Q 953 2441 691 2322 
L 691 4666 
z
" transform="scale(0.015625)"/>
      <path id="DejaVuSans-3a" d="M 750 794 
L 1409 794 
L 1409 0 
L 750 0 
L 750 794 
z
M 750 3309 
L 1409 3309 
L 1409 2516 
L 750 2516 
L 750 3309 
z
" transform="scale(0.015625)"/>
     </defs>
     <use xlink:href="#DejaVuSans-35"/>
     <use xlink:href="#DejaVuSans-31" x="63.623047"/>
     <use xlink:href="#DejaVuSans-20" x="127.246094"/>
     <use xlink:href="#DejaVuSans-74" x="159.033203"/>
     <use xlink:href="#DejaVuSans-61" x="198.242188"/>
     <use xlink:href="#DejaVuSans-72" x="259.521484"/>
     <use xlink:href="#DejaVuSans-67" x="298.884766"/>
     <use xlink:href="#DejaVuSans-65" x="362.361328"/>
     <use xlink:href="#DejaVuSans-74" x="423.884766"/>
     <use xlink:href="#DejaVuSans-73" x="463.09375"/>
     <use xlink:href="#DejaVuSans-3a" x="515.193359"/>
     <use xlink:href="#DejaVuSans-20" x="548.884766"/>
     <use xlink:href="#DejaVuSans-31" x="580.671875"/>
     <use xlink:href="#DejaVuSans-30" x="644.294922"/>
     <use xlink:href="#DejaVuSans-30" x="707.917969"/>
     <use xlink:href="#DejaVuSans-2e" x="771.541016"/>
     <use xlink:href="#DejaVuSans-2e" x="803.328125"/>
     <use xlink:href="#DejaVuSans-31" x="835.115234"/>
     <use xlink:href="#DejaVuSans-65" x="898.738281"/>
     <use xlink:href="#DejaVuSans-2d" x="960.261719"/>
     <use xlink:href="#DejaVuSans-30" x="996.345703"/>
     <use xlink:href="#DejaVuSans-38" x="1059.96875"/>
    </g>
    <!-- 15 instances -->
    <g transform="translate(60.632064 60.954904)scale(0.102 -0.102)">
     <use xlink:href="#DejaVuSans-31"/>
     <use xlink:href="#DejaVuSans-35" x="63.623047"/>
     <use xlink:href="#DejaVuSans-20" x="127.246094"/>
     <use xlink:href="#DejaVuSans-69" x="159.033203"/>
     <use xlink:href="#DejaVuSans-6e" x="186.816406"/>
     <use xlink:href="#DejaVuSans-73" x="250.195312"/>
     <use xlink:href="#DejaVuSans-74" x="302.294922"/>
     <use xlink:href="#DejaVuSans-61" x="341.503906"/>
     <use xlink:href="#DejaVuSans-6e" x="402.783203"/>
     <use xlink:href="#DejaVuSans-63" x="466.162109"/>
     <use xlink:href="#DejaVuSans-65" x="521.142578"/>
     <use xlink:href="#DejaVuSans-73" x="582.666016"/>
    </g>
   </g>
   <g id="text_18">
    <!-- v2.6 -->
    <g style="fill: #808080" transform="translate(198.292262 294.151352)scale(0.1 -0.1)">
     <use xlink:href="#DejaVuSans-76"/>
     <use xlink:href="#DejaVuSans-32" x="59.179688"/>
     <use xlink:href="#DejaVuSans-2e" x="122.802734"/>
     <use xlink:href="#DejaVuSans-36" x="154.589844"/>
    </g>
   </g>
   <g id="text_19">
    <!-- 19 Griewank-Rosenbrock F8F2 -->
    <g transform="translate(57.101637 21.648)scale(0.2 -0.2)">
     <defs>
      <path id="DejaVuSans-47" d="M 3809 666 
L 3809 1919 
L 2778 1919 
L 2778 2438 
L 4434 2438 
L 4434 434 
Q 4069 175 3628 42 
Q 3188 -91 2688 -91 
Q 1594 -91 976 548 
Q 359 1188 359 2328 
Q 359 3472 976 4111 
Q 1594 4750 2688 4750 
Q 3144 4750 3555 4637 
Q 3966 4525 4313 4306 
L 4313 3634 
Q 3963 3931 3569 4081 
Q 3175 4231 2741 4231 
Q 1884 4231 1454 3753 
Q 1025 3275 1025 2328 
Q 1025 1384 1454 906 
Q 1884 428 2741 428 
Q 3075 428 3337 486 
Q 3600 544 3809 666 
z
" transform="scale(0.015625)"/>
      <path id="DejaVuSans-77" d="M 269 3500 
L 844 3500 
L 1563 769 
L 2278 3500 
L 2956 3500 
L 3675 769 
L 4391 3500 
L 4966 3500 
L 4050 0 
L 3372 0 
L 2619 2869 
L 1863 0 
L 1184 0 
L 269 3500 
z
" transform="scale(0.015625)"/>
      <path id="DejaVuSans-6b" d="M 581 4863 
L 1159 4863 
L 1159 1991 
L 2875 3500 
L 3609 3500 
L 1753 1863 
L 3688 0 
L 2938 0 
L 1159 1709 
L 1159 0 
L 581 0 
L 581 4863 
z
" transform="scale(0.015625)"/>
      <path id="DejaVuSans-52" d="M 2841 2188 
Q 3044 2119 3236 1894 
Q 3428 1669 3622 1275 
L 4263 0 
L 3584 0 
L 2988 1197 
Q 2756 1666 2539 1819 
Q 2322 1972 1947 1972 
L 1259 1972 
L 1259 0 
L 628 0 
L 628 4666 
L 2053 4666 
Q 2853 4666 3247 4331 
Q 3641 3997 3641 3322 
Q 3641 2881 3436 2590 
Q 3231 2300 2841 2188 
z
M 1259 4147 
L 1259 2491 
L 2053 2491 
Q 2509 2491 2742 2702 
Q 2975 2913 2975 3322 
Q 2975 3731 2742 3939 
Q 2509 4147 2053 4147 
L 1259 4147 
z
" transform="scale(0.015625)"/>
     </defs>
     <use xlink:href="#DejaVuSans-31"/>
     <use xlink:href="#DejaVuSans-39" x="63.623047"/>
     <use xlink:href="#DejaVuSans-20" x="127.246094"/>
     <use xlink:href="#DejaVuSans-47" x="159.033203"/>
     <use xlink:href="#DejaVuSans-72" x="236.523438"/>
     <use xlink:href="#DejaVuSans-69" x="277.636719"/>
     <use xlink:href="#DejaVuSans-65" x="305.419922"/>
     <use xlink:href="#DejaVuSans-77" x="366.943359"/>
     <use xlink:href="#DejaVuSans-61" x="448.730469"/>
     <use xlink:href="#DejaVuSans-6e" x="510.009766"/>
     <use xlink:href="#DejaVuSans-6b" x="573.388672"/>
     <use xlink:href="#DejaVuSans-2d" x="631.298828"/>
     <use xlink:href="#DejaVuSans-52" x="667.382812"/>
     <use xlink:href="#DejaVuSans-6f" x="732.365234"/>
     <use xlink:href="#DejaVuSans-73" x="793.546875"/>
     <use xlink:href="#DejaVuSans-65" x="845.646484"/>
     <use xlink:href="#DejaVuSans-6e" x="907.169922"/>
     <use xlink:href="#DejaVuSans-62" x="970.548828"/>
     <use xlink:href="#DejaVuSans-72" x="1034.025391"/>
     <use xlink:href="#DejaVuSans-6f" x="1072.888672"/>
     <use xlink:href="#DejaVuSans-63" x="1134.070312"/>
     <use xlink:href="#DejaVuSans-6b" x="1189.050781"/>
     <use xlink:href="#DejaVuSans-20" x="1246.960938"/>
     <use xlink:href="#DejaVuSans-46" x="1278.748047"/>
     <use xlink:href="#DejaVuSans-38" x="1336.267578"/>
     <use xlink:href="#DejaVuSans-46" x="1399.890625"/>
     <use xlink:href="#DejaVuSans-32" x="1457.410156"/>
    </g>
   </g>
  </g>
 </g>
 <defs>
  <clipPath id="p907174896c">
   <rect x="57.6" y="27.648" width="303.2064" height="271.296"/>
  </clipPath>
 </defs>
</svg>
