<?xml version="1.0" encoding="utf-8" standalone="no"?>
<!DOCTYPE svg PUBLIC "-//W3C//DTD SVG 1.1//EN"
  "http://www.w3.org/Graphics/SVG/1.1/DTD/svg11.dtd">
<svg xmlns:xlink="http://www.w3.org/1999/xlink" width="460.8pt" height="345.6pt" viewBox="0 0 460.8 345.6" xmlns="http://www.w3.org/2000/svg" version="1.1">
 <metadata>
  <rdf:RDF xmlns:dc="http://purl.org/dc/elements/1.1/" xmlns:cc="http://creativecommons.org/ns#" xmlns:rdf="http://www.w3.org/1999/02/22-rdf-syntax-ns#">
   <cc:Work>
    <dc:type rdf:resource="http://purl.org/dc/dcmitype/StillImage"/>
    <dc:date>2022-03-28T13:36:59.202240</dc:date>
    <dc:format>image/svg+xml</dc:format>
    <dc:creator>
     <cc:Agent>
      <dc:title>Matplotlib v3.5.1, https://matplotlib.org/</dc:title>
     </cc:Agent>
    </dc:creator>
   </cc:Work>
  </rdf:RDF>
 </metadata>
 <defs>
  <style type="text/css">*{stroke-linejoin: round; stroke-linecap: butt}</style>
 </defs>
 <g id="figure_1">
  <g id="patch_1">
   <path d="M 0 345.6 
L 460.8 345.6 
L 460.8 0 
L 0 0 
z
" style="fill: #ffffff"/>
  </g>
  <g id="axes_1">
   <g id="patch_2">
    <path d="M 57.6 298.944 
L 360.8064 298.944 
L 360.8064 27.648 
L 57.6 27.648 
z
" style="fill: #ffffff"/>
   </g>
   <g id="line2d_1">
    <path d="M 65.227428 298.944 
L 65.227428 293.624471 
L 70.639174 293.624471 
L 70.639174 288.304941 
L 81.166416 288.304941 
L 81.166416 282.985412 
L 85.894031 282.985412 
L 85.894031 277.665882 
L 89.668958 277.665882 
L 89.668958 272.346353 
L 99.950294 272.346353 
L 99.950294 267.026824 
L 109.756698 267.026824 
L 109.756698 261.707294 
L 116.583514 261.707294 
L 116.583514 256.387765 
L 123.374735 256.387765 
L 123.374735 251.068235 
L 131.929028 251.068235 
L 131.929028 245.748706 
L 136.696795 245.748706 
L 136.696795 240.429176 
L 138.310202 240.429176 
L 138.310202 235.109647 
L 143.850356 235.109647 
L 143.850356 229.790118 
L 146.612557 229.790118 
L 146.612557 224.470588 
L 163.362513 224.470588 
L 163.362513 219.151059 
L 166.860176 219.151059 
L 166.860176 213.831529 
L 167.526142 213.831529 
L 167.526142 208.512 
L 168.430973 208.512 
L 168.430973 203.192471 
L 178.339408 203.192471 
L 178.339408 197.872941 
L 178.613589 197.872941 
L 178.613589 192.553412 
L 178.689047 192.553412 
L 178.689047 187.233882 
L 182.321035 187.233882 
L 182.321035 181.914353 
L 182.457127 181.914353 
L 182.457127 176.594824 
L 182.979872 176.594824 
L 182.979872 171.275294 
L 183.394894 171.275294 
L 183.394894 165.955765 
L 184.576684 165.955765 
L 184.576684 160.636235 
L 185.740436 160.636235 
L 185.740436 155.316706 
L 185.864265 155.316706 
L 185.864265 149.997176 
L 186.311454 149.997176 
L 186.311454 144.677647 
L 186.855894 144.677647 
L 186.855894 139.358118 
L 188.219988 139.358118 
L 188.219988 134.038588 
L 188.364623 134.038588 
L 188.364623 128.719059 
L 188.400609 128.719059 
L 188.400609 123.399529 
L 190.998851 123.399529 
L 190.998851 118.08 
L 191.061374 118.08 
L 191.061374 112.760471 
L 191.270868 112.760471 
L 191.270868 107.440941 
L 191.462785 107.440941 
L 191.462785 102.121412 
L 192.386785 102.121412 
L 192.386785 96.801882 
L 192.473842 96.801882 
L 192.473842 91.482353 
L 192.560499 91.482353 
L 192.560499 86.162824 
L 192.639584 86.162824 
L 192.639584 80.843294 
L 193.267517 80.843294 
L 193.267517 75.523765 
L 193.590854 75.523765 
L 193.590854 70.204235 
L 193.854999 70.204235 
L 193.854999 64.884706 
L 194.161861 64.884706 
L 194.161861 59.565176 
L 194.260852 59.565176 
L 194.260852 54.245647 
L 194.378958 54.245647 
L 194.378958 48.926118 
L 194.476816 48.926118 
L 194.476816 43.606588 
L 194.535287 43.606588 
L 194.535287 38.287059 
L 194.664577 38.287059 
L 194.664577 32.967529 
L 194.72889 32.967529 
L 194.72889 27.648 
L 360.8064 27.648 
" style="fill: none; stroke: #f5deb3; stroke-width: 4; stroke-linecap: square"/>
   </g>
   <g id="line2d_2">
    <defs>
     <path id="ma0ed8ea6bc" d="M -0 7.778175 
L 7.778175 0 
L 0 -7.778175 
L -7.778175 -0 
z
" style="stroke: #f5deb3; stroke-width: 1.5; stroke-linejoin: miter"/>
    </defs>
    <g>
     <use xlink:href="#ma0ed8ea6bc" x="123.374735" y="256.387765" style="fill: #f5deb3; stroke: #f5deb3; stroke-width: 1.5; stroke-linejoin: miter"/>
     <use xlink:href="#ma0ed8ea6bc" x="188.219988" y="139.358118" style="fill: #f5deb3; stroke: #f5deb3; stroke-width: 1.5; stroke-linejoin: miter"/>
     <use xlink:href="#ma0ed8ea6bc" x="194.535287" y="38.287059" style="fill: #f5deb3; stroke: #f5deb3; stroke-width: 1.5; stroke-linejoin: miter"/>
     <use xlink:href="#ma0ed8ea6bc" x="194.72889" y="27.648" style="fill: #f5deb3; stroke: #f5deb3; stroke-width: 1.5; stroke-linejoin: miter"/>
     <use xlink:href="#ma0ed8ea6bc" x="360.8064" y="27.648" style="fill: #f5deb3; stroke: #f5deb3; stroke-width: 1.5; stroke-linejoin: miter"/>
    </g>
   </g>
   <g id="line2d_3">
    <path style="fill: none; stroke: #f5deb3; stroke-width: 4; stroke-linecap: square"/>
    <g/>
   </g>
   <g id="line2d_4">
    <path d="M 360.8064 27.648 
L 380.514816 33.07392 
" style="fill: none; stroke: #f5deb3; stroke-width: 4; stroke-linecap: square"/>
    <g>
     <use xlink:href="#ma0ed8ea6bc" x="360.8064" y="27.648" style="fill: #f5deb3; stroke: #f5deb3; stroke-width: 1.5; stroke-linejoin: miter"/>
     <use xlink:href="#ma0ed8ea6bc" x="380.514816" y="33.07392" style="fill: #f5deb3; stroke: #f5deb3; stroke-width: 1.5; stroke-linejoin: miter"/>
    </g>
   </g>
   <g id="matplotlib.axis_1">
    <g id="xtick_1">
     <g id="line2d_5">
      <path d="M 57.6 298.944 
L 57.6 27.648 
" clip-path="url(#p6405a3378b)" style="fill: none; stroke: #b0b0b0; stroke-width: 0.8; stroke-linecap: square"/>
     </g>
     <g id="line2d_6">
      <defs>
       <path id="me0c939a9b7" d="M 0 0 
L 0 3.5 
" style="stroke: #000000; stroke-width: 0.8"/>
      </defs>
      <g>
       <use xlink:href="#me0c939a9b7" x="57.6" y="298.944" style="stroke: #000000; stroke-width: 0.8"/>
      </g>
     </g>
     <g id="text_1">
      <!-- 0 -->
      <g transform="translate(52.191875 318.861344)scale(0.17 -0.17)">
       <defs>
        <path id="DejaVuSans-30" d="M 2034 4250 
Q 1547 4250 1301 3770 
Q 1056 3291 1056 2328 
Q 1056 1369 1301 889 
Q 1547 409 2034 409 
Q 2525 409 2770 889 
Q 3016 1369 3016 2328 
Q 3016 3291 2770 3770 
Q 2525 4250 2034 4250 
z
M 2034 4750 
Q 2819 4750 3233 4129 
Q 3647 3509 3647 2328 
Q 3647 1150 3233 529 
Q 2819 -91 2034 -91 
Q 1250 -91 836 529 
Q 422 1150 422 2328 
Q 422 3509 836 4129 
Q 1250 4750 2034 4750 
z
" transform="scale(0.015625)"/>
       </defs>
       <use xlink:href="#DejaVuSans-30"/>
      </g>
     </g>
    </g>
    <g id="xtick_2">
     <g id="line2d_7">
      <path d="M 144.2304 298.944 
L 144.2304 27.648 
" clip-path="url(#p6405a3378b)" style="fill: none; stroke: #b0b0b0; stroke-width: 0.8; stroke-linecap: square"/>
     </g>
     <g id="line2d_8">
      <g>
       <use xlink:href="#me0c939a9b7" x="144.2304" y="298.944" style="stroke: #000000; stroke-width: 0.8"/>
      </g>
     </g>
     <g id="text_2">
      <!-- 2 -->
      <g transform="translate(138.822275 318.861344)scale(0.17 -0.17)">
       <defs>
        <path id="DejaVuSans-32" d="M 1228 531 
L 3431 531 
L 3431 0 
L 469 0 
L 469 531 
Q 828 903 1448 1529 
Q 2069 2156 2228 2338 
Q 2531 2678 2651 2914 
Q 2772 3150 2772 3378 
Q 2772 3750 2511 3984 
Q 2250 4219 1831 4219 
Q 1534 4219 1204 4116 
Q 875 4013 500 3803 
L 500 4441 
Q 881 4594 1212 4672 
Q 1544 4750 1819 4750 
Q 2544 4750 2975 4387 
Q 3406 4025 3406 3419 
Q 3406 3131 3298 2873 
Q 3191 2616 2906 2266 
Q 2828 2175 2409 1742 
Q 1991 1309 1228 531 
z
" transform="scale(0.015625)"/>
       </defs>
       <use xlink:href="#DejaVuSans-32"/>
      </g>
     </g>
    </g>
    <g id="xtick_3">
     <g id="line2d_9">
      <path d="M 230.8608 298.944 
L 230.8608 27.648 
" clip-path="url(#p6405a3378b)" style="fill: none; stroke: #b0b0b0; stroke-width: 0.8; stroke-linecap: square"/>
     </g>
     <g id="line2d_10">
      <g>
       <use xlink:href="#me0c939a9b7" x="230.8608" y="298.944" style="stroke: #000000; stroke-width: 0.8"/>
      </g>
     </g>
     <g id="text_3">
      <!-- 4 -->
      <g transform="translate(225.452675 318.861344)scale(0.17 -0.17)">
       <defs>
        <path id="DejaVuSans-34" d="M 2419 4116 
L 825 1625 
L 2419 1625 
L 2419 4116 
z
M 2253 4666 
L 3047 4666 
L 3047 1625 
L 3713 1625 
L 3713 1100 
L 3047 1100 
L 3047 0 
L 2419 0 
L 2419 1100 
L 313 1100 
L 313 1709 
L 2253 4666 
z
" transform="scale(0.015625)"/>
       </defs>
       <use xlink:href="#DejaVuSans-34"/>
      </g>
     </g>
    </g>
    <g id="xtick_4">
     <g id="line2d_11">
      <path d="M 317.4912 298.944 
L 317.4912 27.648 
" clip-path="url(#p6405a3378b)" style="fill: none; stroke: #b0b0b0; stroke-width: 0.8; stroke-linecap: square"/>
     </g>
     <g id="line2d_12">
      <g>
       <use xlink:href="#me0c939a9b7" x="317.4912" y="298.944" style="stroke: #000000; stroke-width: 0.8"/>
      </g>
     </g>
     <g id="text_4">
      <!-- 6 -->
      <g transform="translate(312.083075 318.861344)scale(0.17 -0.17)">
       <defs>
        <path id="DejaVuSans-36" d="M 2113 2584 
Q 1688 2584 1439 2293 
Q 1191 2003 1191 1497 
Q 1191 994 1439 701 
Q 1688 409 2113 409 
Q 2538 409 2786 701 
Q 3034 994 3034 1497 
Q 3034 2003 2786 2293 
Q 2538 2584 2113 2584 
z
M 3366 4563 
L 3366 3988 
Q 3128 4100 2886 4159 
Q 2644 4219 2406 4219 
Q 1781 4219 1451 3797 
Q 1122 3375 1075 2522 
Q 1259 2794 1537 2939 
Q 1816 3084 2150 3084 
Q 2853 3084 3261 2657 
Q 3669 2231 3669 1497 
Q 3669 778 3244 343 
Q 2819 -91 2113 -91 
Q 1303 -91 875 529 
Q 447 1150 447 2328 
Q 447 3434 972 4092 
Q 1497 4750 2381 4750 
Q 2619 4750 2861 4703 
Q 3103 4656 3366 4563 
z
" transform="scale(0.015625)"/>
       </defs>
       <use xlink:href="#DejaVuSans-36"/>
      </g>
     </g>
    </g>
    <g id="xtick_5">
     <g id="line2d_13">
      <path d="M 100.9152 298.944 
L 100.9152 27.648 
" clip-path="url(#p6405a3378b)" style="fill: none; stroke: #b0b0b0; stroke-width: 0.8; stroke-linecap: square"/>
     </g>
     <g id="line2d_14">
      <defs>
       <path id="m157bca6237" d="M 0 0 
L 0 2 
" style="stroke: #000000; stroke-width: 0.6"/>
      </defs>
      <g>
       <use xlink:href="#m157bca6237" x="100.9152" y="298.944" style="stroke: #000000; stroke-width: 0.6"/>
      </g>
     </g>
    </g>
    <g id="xtick_6">
     <g id="line2d_15">
      <path d="M 187.5456 298.944 
L 187.5456 27.648 
" clip-path="url(#p6405a3378b)" style="fill: none; stroke: #b0b0b0; stroke-width: 0.8; stroke-linecap: square"/>
     </g>
     <g id="line2d_16">
      <g>
       <use xlink:href="#m157bca6237" x="187.5456" y="298.944" style="stroke: #000000; stroke-width: 0.6"/>
      </g>
     </g>
    </g>
    <g id="xtick_7">
     <g id="line2d_17">
      <path d="M 274.176 298.944 
L 274.176 27.648 
" clip-path="url(#p6405a3378b)" style="fill: none; stroke: #b0b0b0; stroke-width: 0.8; stroke-linecap: square"/>
     </g>
     <g id="line2d_18">
      <g>
       <use xlink:href="#m157bca6237" x="274.176" y="298.944" style="stroke: #000000; stroke-width: 0.6"/>
      </g>
     </g>
    </g>
    <g id="xtick_8">
     <g id="line2d_19">
      <path d="M 360.8064 298.944 
L 360.8064 27.648 
" clip-path="url(#p6405a3378b)" style="fill: none; stroke: #b0b0b0; stroke-width: 0.8; stroke-linecap: square"/>
     </g>
     <g id="line2d_20">
      <g>
       <use xlink:href="#m157bca6237" x="360.8064" y="298.944" style="stroke: #000000; stroke-width: 0.6"/>
      </g>
     </g>
    </g>
    <g id="text_5">
     <!-- log10(# f-evals / dimension) -->
     <g transform="translate(88.823278 339.314156)scale(0.17 -0.17)">
      <defs>
       <path id="DejaVuSans-6c" d="M 603 4863 
L 1178 4863 
L 1178 0 
L 603 0 
L 603 4863 
z
" transform="scale(0.015625)"/>
       <path id="DejaVuSans-6f" d="M 1959 3097 
Q 1497 3097 1228 2736 
Q 959 2375 959 1747 
Q 959 1119 1226 758 
Q 1494 397 1959 397 
Q 2419 397 2687 759 
Q 2956 1122 2956 1747 
Q 2956 2369 2687 2733 
Q 2419 3097 1959 3097 
z
M 1959 3584 
Q 2709 3584 3137 3096 
Q 3566 2609 3566 1747 
Q 3566 888 3137 398 
Q 2709 -91 1959 -91 
Q 1206 -91 779 398 
Q 353 888 353 1747 
Q 353 2609 779 3096 
Q 1206 3584 1959 3584 
z
" transform="scale(0.015625)"/>
       <path id="DejaVuSans-67" d="M 2906 1791 
Q 2906 2416 2648 2759 
Q 2391 3103 1925 3103 
Q 1463 3103 1205 2759 
Q 947 2416 947 1791 
Q 947 1169 1205 825 
Q 1463 481 1925 481 
Q 2391 481 2648 825 
Q 2906 1169 2906 1791 
z
M 3481 434 
Q 3481 -459 3084 -895 
Q 2688 -1331 1869 -1331 
Q 1566 -1331 1297 -1286 
Q 1028 -1241 775 -1147 
L 775 -588 
Q 1028 -725 1275 -790 
Q 1522 -856 1778 -856 
Q 2344 -856 2625 -561 
Q 2906 -266 2906 331 
L 2906 616 
Q 2728 306 2450 153 
Q 2172 0 1784 0 
Q 1141 0 747 490 
Q 353 981 353 1791 
Q 353 2603 747 3093 
Q 1141 3584 1784 3584 
Q 2172 3584 2450 3431 
Q 2728 3278 2906 2969 
L 2906 3500 
L 3481 3500 
L 3481 434 
z
" transform="scale(0.015625)"/>
       <path id="DejaVuSans-31" d="M 794 531 
L 1825 531 
L 1825 4091 
L 703 3866 
L 703 4441 
L 1819 4666 
L 2450 4666 
L 2450 531 
L 3481 531 
L 3481 0 
L 794 0 
L 794 531 
z
" transform="scale(0.015625)"/>
       <path id="DejaVuSans-28" d="M 1984 4856 
Q 1566 4138 1362 3434 
Q 1159 2731 1159 2009 
Q 1159 1288 1364 580 
Q 1569 -128 1984 -844 
L 1484 -844 
Q 1016 -109 783 600 
Q 550 1309 550 2009 
Q 550 2706 781 3412 
Q 1013 4119 1484 4856 
L 1984 4856 
z
" transform="scale(0.015625)"/>
       <path id="DejaVuSans-23" d="M 3272 2816 
L 2363 2816 
L 2100 1772 
L 3016 1772 
L 3272 2816 
z
M 2803 4594 
L 2478 3297 
L 3391 3297 
L 3719 4594 
L 4219 4594 
L 3897 3297 
L 4872 3297 
L 4872 2816 
L 3775 2816 
L 3519 1772 
L 4513 1772 
L 4513 1294 
L 3397 1294 
L 3072 0 
L 2572 0 
L 2894 1294 
L 1978 1294 
L 1656 0 
L 1153 0 
L 1478 1294 
L 494 1294 
L 494 1772 
L 1594 1772 
L 1856 2816 
L 850 2816 
L 850 3297 
L 1978 3297 
L 2297 4594 
L 2803 4594 
z
" transform="scale(0.015625)"/>
       <path id="DejaVuSans-20" transform="scale(0.015625)"/>
       <path id="DejaVuSans-66" d="M 2375 4863 
L 2375 4384 
L 1825 4384 
Q 1516 4384 1395 4259 
Q 1275 4134 1275 3809 
L 1275 3500 
L 2222 3500 
L 2222 3053 
L 1275 3053 
L 1275 0 
L 697 0 
L 697 3053 
L 147 3053 
L 147 3500 
L 697 3500 
L 697 3744 
Q 697 4328 969 4595 
Q 1241 4863 1831 4863 
L 2375 4863 
z
" transform="scale(0.015625)"/>
       <path id="DejaVuSans-2d" d="M 313 2009 
L 1997 2009 
L 1997 1497 
L 313 1497 
L 313 2009 
z
" transform="scale(0.015625)"/>
       <path id="DejaVuSans-65" d="M 3597 1894 
L 3597 1613 
L 953 1613 
Q 991 1019 1311 708 
Q 1631 397 2203 397 
Q 2534 397 2845 478 
Q 3156 559 3463 722 
L 3463 178 
Q 3153 47 2828 -22 
Q 2503 -91 2169 -91 
Q 1331 -91 842 396 
Q 353 884 353 1716 
Q 353 2575 817 3079 
Q 1281 3584 2069 3584 
Q 2775 3584 3186 3129 
Q 3597 2675 3597 1894 
z
M 3022 2063 
Q 3016 2534 2758 2815 
Q 2500 3097 2075 3097 
Q 1594 3097 1305 2825 
Q 1016 2553 972 2059 
L 3022 2063 
z
" transform="scale(0.015625)"/>
       <path id="DejaVuSans-76" d="M 191 3500 
L 800 3500 
L 1894 563 
L 2988 3500 
L 3597 3500 
L 2284 0 
L 1503 0 
L 191 3500 
z
" transform="scale(0.015625)"/>
       <path id="DejaVuSans-61" d="M 2194 1759 
Q 1497 1759 1228 1600 
Q 959 1441 959 1056 
Q 959 750 1161 570 
Q 1363 391 1709 391 
Q 2188 391 2477 730 
Q 2766 1069 2766 1631 
L 2766 1759 
L 2194 1759 
z
M 3341 1997 
L 3341 0 
L 2766 0 
L 2766 531 
Q 2569 213 2275 61 
Q 1981 -91 1556 -91 
Q 1019 -91 701 211 
Q 384 513 384 1019 
Q 384 1609 779 1909 
Q 1175 2209 1959 2209 
L 2766 2209 
L 2766 2266 
Q 2766 2663 2505 2880 
Q 2244 3097 1772 3097 
Q 1472 3097 1187 3025 
Q 903 2953 641 2809 
L 641 3341 
Q 956 3463 1253 3523 
Q 1550 3584 1831 3584 
Q 2591 3584 2966 3190 
Q 3341 2797 3341 1997 
z
" transform="scale(0.015625)"/>
       <path id="DejaVuSans-73" d="M 2834 3397 
L 2834 2853 
Q 2591 2978 2328 3040 
Q 2066 3103 1784 3103 
Q 1356 3103 1142 2972 
Q 928 2841 928 2578 
Q 928 2378 1081 2264 
Q 1234 2150 1697 2047 
L 1894 2003 
Q 2506 1872 2764 1633 
Q 3022 1394 3022 966 
Q 3022 478 2636 193 
Q 2250 -91 1575 -91 
Q 1294 -91 989 -36 
Q 684 19 347 128 
L 347 722 
Q 666 556 975 473 
Q 1284 391 1588 391 
Q 1994 391 2212 530 
Q 2431 669 2431 922 
Q 2431 1156 2273 1281 
Q 2116 1406 1581 1522 
L 1381 1569 
Q 847 1681 609 1914 
Q 372 2147 372 2553 
Q 372 3047 722 3315 
Q 1072 3584 1716 3584 
Q 2034 3584 2315 3537 
Q 2597 3491 2834 3397 
z
" transform="scale(0.015625)"/>
       <path id="DejaVuSans-2f" d="M 1625 4666 
L 2156 4666 
L 531 -594 
L 0 -594 
L 1625 4666 
z
" transform="scale(0.015625)"/>
       <path id="DejaVuSans-64" d="M 2906 2969 
L 2906 4863 
L 3481 4863 
L 3481 0 
L 2906 0 
L 2906 525 
Q 2725 213 2448 61 
Q 2172 -91 1784 -91 
Q 1150 -91 751 415 
Q 353 922 353 1747 
Q 353 2572 751 3078 
Q 1150 3584 1784 3584 
Q 2172 3584 2448 3432 
Q 2725 3281 2906 2969 
z
M 947 1747 
Q 947 1113 1208 752 
Q 1469 391 1925 391 
Q 2381 391 2643 752 
Q 2906 1113 2906 1747 
Q 2906 2381 2643 2742 
Q 2381 3103 1925 3103 
Q 1469 3103 1208 2742 
Q 947 2381 947 1747 
z
" transform="scale(0.015625)"/>
       <path id="DejaVuSans-69" d="M 603 3500 
L 1178 3500 
L 1178 0 
L 603 0 
L 603 3500 
z
M 603 4863 
L 1178 4863 
L 1178 4134 
L 603 4134 
L 603 4863 
z
" transform="scale(0.015625)"/>
       <path id="DejaVuSans-6d" d="M 3328 2828 
Q 3544 3216 3844 3400 
Q 4144 3584 4550 3584 
Q 5097 3584 5394 3201 
Q 5691 2819 5691 2113 
L 5691 0 
L 5113 0 
L 5113 2094 
Q 5113 2597 4934 2840 
Q 4756 3084 4391 3084 
Q 3944 3084 3684 2787 
Q 3425 2491 3425 1978 
L 3425 0 
L 2847 0 
L 2847 2094 
Q 2847 2600 2669 2842 
Q 2491 3084 2119 3084 
Q 1678 3084 1418 2786 
Q 1159 2488 1159 1978 
L 1159 0 
L 581 0 
L 581 3500 
L 1159 3500 
L 1159 2956 
Q 1356 3278 1631 3431 
Q 1906 3584 2284 3584 
Q 2666 3584 2933 3390 
Q 3200 3197 3328 2828 
z
" transform="scale(0.015625)"/>
       <path id="DejaVuSans-6e" d="M 3513 2113 
L 3513 0 
L 2938 0 
L 2938 2094 
Q 2938 2591 2744 2837 
Q 2550 3084 2163 3084 
Q 1697 3084 1428 2787 
Q 1159 2491 1159 1978 
L 1159 0 
L 581 0 
L 581 3500 
L 1159 3500 
L 1159 2956 
Q 1366 3272 1645 3428 
Q 1925 3584 2291 3584 
Q 2894 3584 3203 3211 
Q 3513 2838 3513 2113 
z
" transform="scale(0.015625)"/>
       <path id="DejaVuSans-29" d="M 513 4856 
L 1013 4856 
Q 1481 4119 1714 3412 
Q 1947 2706 1947 2009 
Q 1947 1309 1714 600 
Q 1481 -109 1013 -844 
L 513 -844 
Q 928 -128 1133 580 
Q 1338 1288 1338 2009 
Q 1338 2731 1133 3434 
Q 928 4138 513 4856 
z
" transform="scale(0.015625)"/>
      </defs>
      <use xlink:href="#DejaVuSans-6c"/>
      <use xlink:href="#DejaVuSans-6f" x="27.783203"/>
      <use xlink:href="#DejaVuSans-67" x="88.964844"/>
      <use xlink:href="#DejaVuSans-31" x="152.441406"/>
      <use xlink:href="#DejaVuSans-30" x="216.064453"/>
      <use xlink:href="#DejaVuSans-28" x="279.6875"/>
      <use xlink:href="#DejaVuSans-23" x="318.701172"/>
      <use xlink:href="#DejaVuSans-20" x="402.490234"/>
      <use xlink:href="#DejaVuSans-66" x="434.277344"/>
      <use xlink:href="#DejaVuSans-2d" x="463.982422"/>
      <use xlink:href="#DejaVuSans-65" x="500.066406"/>
      <use xlink:href="#DejaVuSans-76" x="561.589844"/>
      <use xlink:href="#DejaVuSans-61" x="620.769531"/>
      <use xlink:href="#DejaVuSans-6c" x="682.048828"/>
      <use xlink:href="#DejaVuSans-73" x="709.832031"/>
      <use xlink:href="#DejaVuSans-20" x="761.931641"/>
      <use xlink:href="#DejaVuSans-2f" x="793.71875"/>
      <use xlink:href="#DejaVuSans-20" x="827.410156"/>
      <use xlink:href="#DejaVuSans-64" x="859.197266"/>
      <use xlink:href="#DejaVuSans-69" x="922.673828"/>
      <use xlink:href="#DejaVuSans-6d" x="950.457031"/>
      <use xlink:href="#DejaVuSans-65" x="1047.869141"/>
      <use xlink:href="#DejaVuSans-6e" x="1109.392578"/>
      <use xlink:href="#DejaVuSans-73" x="1172.771484"/>
      <use xlink:href="#DejaVuSans-69" x="1224.871094"/>
      <use xlink:href="#DejaVuSans-6f" x="1252.654297"/>
      <use xlink:href="#DejaVuSans-6e" x="1313.835938"/>
      <use xlink:href="#DejaVuSans-29" x="1377.214844"/>
     </g>
    </g>
   </g>
   <g id="matplotlib.axis_2">
    <g id="ytick_1">
     <g id="line2d_21">
      <path d="M 57.6 298.944 
L 360.8064 298.944 
" clip-path="url(#p6405a3378b)" style="fill: none; stroke: #b0b0b0; stroke-width: 0.8; stroke-linecap: square"/>
     </g>
     <g id="line2d_22">
      <defs>
       <path id="m3e64a46aef" d="M 0 0 
L -3.5 0 
" style="stroke: #000000; stroke-width: 0.8"/>
      </defs>
      <g>
       <use xlink:href="#m3e64a46aef" x="57.6" y="298.944" style="stroke: #000000; stroke-width: 0.8"/>
      </g>
     </g>
     <g id="text_6">
      <!-- 0.0 -->
      <g transform="translate(25.155 305.02275)scale(0.16 -0.16)">
       <defs>
        <path id="DejaVuSans-2e" d="M 684 794 
L 1344 794 
L 1344 0 
L 684 0 
L 684 794 
z
" transform="scale(0.015625)"/>
       </defs>
       <use xlink:href="#DejaVuSans-30"/>
       <use xlink:href="#DejaVuSans-2e" x="63.623047"/>
       <use xlink:href="#DejaVuSans-30" x="95.410156"/>
      </g>
     </g>
    </g>
    <g id="ytick_2">
     <g id="line2d_23">
      <path d="M 57.6 244.6848 
L 360.8064 244.6848 
" clip-path="url(#p6405a3378b)" style="fill: none; stroke: #b0b0b0; stroke-width: 0.8; stroke-linecap: square"/>
     </g>
     <g id="line2d_24">
      <g>
       <use xlink:href="#m3e64a46aef" x="57.6" y="244.6848" style="stroke: #000000; stroke-width: 0.8"/>
      </g>
     </g>
     <g id="text_7">
      <!-- 0.2 -->
      <g transform="translate(25.155 250.76355)scale(0.16 -0.16)">
       <use xlink:href="#DejaVuSans-30"/>
       <use xlink:href="#DejaVuSans-2e" x="63.623047"/>
       <use xlink:href="#DejaVuSans-32" x="95.410156"/>
      </g>
     </g>
    </g>
    <g id="ytick_3">
     <g id="line2d_25">
      <path d="M 57.6 190.4256 
L 360.8064 190.4256 
" clip-path="url(#p6405a3378b)" style="fill: none; stroke: #b0b0b0; stroke-width: 0.8; stroke-linecap: square"/>
     </g>
     <g id="line2d_26">
      <g>
       <use xlink:href="#m3e64a46aef" x="57.6" y="190.4256" style="stroke: #000000; stroke-width: 0.8"/>
      </g>
     </g>
     <g id="text_8">
      <!-- 0.4 -->
      <g transform="translate(25.155 196.50435)scale(0.16 -0.16)">
       <use xlink:href="#DejaVuSans-30"/>
       <use xlink:href="#DejaVuSans-2e" x="63.623047"/>
       <use xlink:href="#DejaVuSans-34" x="95.410156"/>
      </g>
     </g>
    </g>
    <g id="ytick_4">
     <g id="line2d_27">
      <path d="M 57.6 136.1664 
L 360.8064 136.1664 
" clip-path="url(#p6405a3378b)" style="fill: none; stroke: #b0b0b0; stroke-width: 0.8; stroke-linecap: square"/>
     </g>
     <g id="line2d_28">
      <g>
       <use xlink:href="#m3e64a46aef" x="57.6" y="136.1664" style="stroke: #000000; stroke-width: 0.8"/>
      </g>
     </g>
     <g id="text_9">
      <!-- 0.6 -->
      <g transform="translate(25.155 142.24515)scale(0.16 -0.16)">
       <use xlink:href="#DejaVuSans-30"/>
       <use xlink:href="#DejaVuSans-2e" x="63.623047"/>
       <use xlink:href="#DejaVuSans-36" x="95.410156"/>
      </g>
     </g>
    </g>
    <g id="ytick_5">
     <g id="line2d_29">
      <path d="M 57.6 81.9072 
L 360.8064 81.9072 
" clip-path="url(#p6405a3378b)" style="fill: none; stroke: #b0b0b0; stroke-width: 0.8; stroke-linecap: square"/>
     </g>
     <g id="line2d_30">
      <g>
       <use xlink:href="#m3e64a46aef" x="57.6" y="81.9072" style="stroke: #000000; stroke-width: 0.8"/>
      </g>
     </g>
     <g id="text_10">
      <!-- 0.8 -->
      <g transform="translate(25.155 87.98595)scale(0.16 -0.16)">
       <defs>
        <path id="DejaVuSans-38" d="M 2034 2216 
Q 1584 2216 1326 1975 
Q 1069 1734 1069 1313 
Q 1069 891 1326 650 
Q 1584 409 2034 409 
Q 2484 409 2743 651 
Q 3003 894 3003 1313 
Q 3003 1734 2745 1975 
Q 2488 2216 2034 2216 
z
M 1403 2484 
Q 997 2584 770 2862 
Q 544 3141 544 3541 
Q 544 4100 942 4425 
Q 1341 4750 2034 4750 
Q 2731 4750 3128 4425 
Q 3525 4100 3525 3541 
Q 3525 3141 3298 2862 
Q 3072 2584 2669 2484 
Q 3125 2378 3379 2068 
Q 3634 1759 3634 1313 
Q 3634 634 3220 271 
Q 2806 -91 2034 -91 
Q 1263 -91 848 271 
Q 434 634 434 1313 
Q 434 1759 690 2068 
Q 947 2378 1403 2484 
z
M 1172 3481 
Q 1172 3119 1398 2916 
Q 1625 2713 2034 2713 
Q 2441 2713 2670 2916 
Q 2900 3119 2900 3481 
Q 2900 3844 2670 4047 
Q 2441 4250 2034 4250 
Q 1625 4250 1398 4047 
Q 1172 3844 1172 3481 
z
" transform="scale(0.015625)"/>
       </defs>
       <use xlink:href="#DejaVuSans-30"/>
       <use xlink:href="#DejaVuSans-2e" x="63.623047"/>
       <use xlink:href="#DejaVuSans-38" x="95.410156"/>
      </g>
     </g>
    </g>
    <g id="ytick_6">
     <g id="line2d_31">
      <path d="M 57.6 27.648 
L 360.8064 27.648 
" clip-path="url(#p6405a3378b)" style="fill: none; stroke: #b0b0b0; stroke-width: 0.8; stroke-linecap: square"/>
     </g>
     <g id="line2d_32">
      <g>
       <use xlink:href="#m3e64a46aef" x="57.6" y="27.648" style="stroke: #000000; stroke-width: 0.8"/>
      </g>
     </g>
     <g id="text_11">
      <!-- 1.0 -->
      <g transform="translate(25.155 33.72675)scale(0.16 -0.16)">
       <use xlink:href="#DejaVuSans-31"/>
       <use xlink:href="#DejaVuSans-2e" x="63.623047"/>
       <use xlink:href="#DejaVuSans-30" x="95.410156"/>
      </g>
     </g>
    </g>
    <g id="text_12">
     <!-- Fraction of function,target pairs -->
     <g transform="translate(17.619531 297.681)rotate(-90)scale(0.17 -0.17)">
      <defs>
       <path id="DejaVuSans-46" d="M 628 4666 
L 3309 4666 
L 3309 4134 
L 1259 4134 
L 1259 2759 
L 3109 2759 
L 3109 2228 
L 1259 2228 
L 1259 0 
L 628 0 
L 628 4666 
z
" transform="scale(0.015625)"/>
       <path id="DejaVuSans-72" d="M 2631 2963 
Q 2534 3019 2420 3045 
Q 2306 3072 2169 3072 
Q 1681 3072 1420 2755 
Q 1159 2438 1159 1844 
L 1159 0 
L 581 0 
L 581 3500 
L 1159 3500 
L 1159 2956 
Q 1341 3275 1631 3429 
Q 1922 3584 2338 3584 
Q 2397 3584 2469 3576 
Q 2541 3569 2628 3553 
L 2631 2963 
z
" transform="scale(0.015625)"/>
       <path id="DejaVuSans-63" d="M 3122 3366 
L 3122 2828 
Q 2878 2963 2633 3030 
Q 2388 3097 2138 3097 
Q 1578 3097 1268 2742 
Q 959 2388 959 1747 
Q 959 1106 1268 751 
Q 1578 397 2138 397 
Q 2388 397 2633 464 
Q 2878 531 3122 666 
L 3122 134 
Q 2881 22 2623 -34 
Q 2366 -91 2075 -91 
Q 1284 -91 818 406 
Q 353 903 353 1747 
Q 353 2603 823 3093 
Q 1294 3584 2113 3584 
Q 2378 3584 2631 3529 
Q 2884 3475 3122 3366 
z
" transform="scale(0.015625)"/>
       <path id="DejaVuSans-74" d="M 1172 4494 
L 1172 3500 
L 2356 3500 
L 2356 3053 
L 1172 3053 
L 1172 1153 
Q 1172 725 1289 603 
Q 1406 481 1766 481 
L 2356 481 
L 2356 0 
L 1766 0 
Q 1100 0 847 248 
Q 594 497 594 1153 
L 594 3053 
L 172 3053 
L 172 3500 
L 594 3500 
L 594 4494 
L 1172 4494 
z
" transform="scale(0.015625)"/>
       <path id="DejaVuSans-75" d="M 544 1381 
L 544 3500 
L 1119 3500 
L 1119 1403 
Q 1119 906 1312 657 
Q 1506 409 1894 409 
Q 2359 409 2629 706 
Q 2900 1003 2900 1516 
L 2900 3500 
L 3475 3500 
L 3475 0 
L 2900 0 
L 2900 538 
Q 2691 219 2414 64 
Q 2138 -91 1772 -91 
Q 1169 -91 856 284 
Q 544 659 544 1381 
z
M 1991 3584 
L 1991 3584 
z
" transform="scale(0.015625)"/>
       <path id="DejaVuSans-2c" d="M 750 794 
L 1409 794 
L 1409 256 
L 897 -744 
L 494 -744 
L 750 256 
L 750 794 
z
" transform="scale(0.015625)"/>
       <path id="DejaVuSans-70" d="M 1159 525 
L 1159 -1331 
L 581 -1331 
L 581 3500 
L 1159 3500 
L 1159 2969 
Q 1341 3281 1617 3432 
Q 1894 3584 2278 3584 
Q 2916 3584 3314 3078 
Q 3713 2572 3713 1747 
Q 3713 922 3314 415 
Q 2916 -91 2278 -91 
Q 1894 -91 1617 61 
Q 1341 213 1159 525 
z
M 3116 1747 
Q 3116 2381 2855 2742 
Q 2594 3103 2138 3103 
Q 1681 3103 1420 2742 
Q 1159 2381 1159 1747 
Q 1159 1113 1420 752 
Q 1681 391 2138 391 
Q 2594 391 2855 752 
Q 3116 1113 3116 1747 
z
" transform="scale(0.015625)"/>
      </defs>
      <use xlink:href="#DejaVuSans-46"/>
      <use xlink:href="#DejaVuSans-72" x="50.269531"/>
      <use xlink:href="#DejaVuSans-61" x="91.382812"/>
      <use xlink:href="#DejaVuSans-63" x="152.662109"/>
      <use xlink:href="#DejaVuSans-74" x="207.642578"/>
      <use xlink:href="#DejaVuSans-69" x="246.851562"/>
      <use xlink:href="#DejaVuSans-6f" x="274.634766"/>
      <use xlink:href="#DejaVuSans-6e" x="335.816406"/>
      <use xlink:href="#DejaVuSans-20" x="399.195312"/>
      <use xlink:href="#DejaVuSans-6f" x="430.982422"/>
      <use xlink:href="#DejaVuSans-66" x="492.164062"/>
      <use xlink:href="#DejaVuSans-20" x="527.369141"/>
      <use xlink:href="#DejaVuSans-66" x="559.15625"/>
      <use xlink:href="#DejaVuSans-75" x="594.361328"/>
      <use xlink:href="#DejaVuSans-6e" x="657.740234"/>
      <use xlink:href="#DejaVuSans-63" x="721.119141"/>
      <use xlink:href="#DejaVuSans-74" x="776.099609"/>
      <use xlink:href="#DejaVuSans-69" x="815.308594"/>
      <use xlink:href="#DejaVuSans-6f" x="843.091797"/>
      <use xlink:href="#DejaVuSans-6e" x="904.273438"/>
      <use xlink:href="#DejaVuSans-2c" x="967.652344"/>
      <use xlink:href="#DejaVuSans-74" x="999.439453"/>
      <use xlink:href="#DejaVuSans-61" x="1038.648438"/>
      <use xlink:href="#DejaVuSans-72" x="1099.927734"/>
      <use xlink:href="#DejaVuSans-67" x="1139.291016"/>
      <use xlink:href="#DejaVuSans-65" x="1202.767578"/>
      <use xlink:href="#DejaVuSans-74" x="1264.291016"/>
      <use xlink:href="#DejaVuSans-20" x="1303.5"/>
      <use xlink:href="#DejaVuSans-70" x="1335.287109"/>
      <use xlink:href="#DejaVuSans-61" x="1398.763672"/>
      <use xlink:href="#DejaVuSans-69" x="1460.042969"/>
      <use xlink:href="#DejaVuSans-72" x="1487.826172"/>
      <use xlink:href="#DejaVuSans-73" x="1528.939453"/>
     </g>
    </g>
   </g>
   <g id="line2d_33">
    <defs>
     <path id="mbc73806267" d="M 0 1.5 
C 0.397805 1.5 0.77937 1.341951 1.06066 1.06066 
C 1.341951 0.77937 1.5 0.397805 1.5 0 
C 1.5 -0.397805 1.341951 -0.77937 1.06066 -1.06066 
C 0.77937 -1.341951 0.397805 -1.5 0 -1.5 
C -0.397805 -1.5 -0.77937 -1.341951 -1.06066 -1.06066 
C -1.341951 -0.77937 -1.5 -0.397805 -1.5 0 
C -1.5 0.397805 -1.341951 0.77937 -1.06066 1.06066 
C -0.77937 1.341951 -0.397805 1.5 0 1.5 
z
" style="stroke: #f5deb3"/>
    </defs>
    <g>
     <use xlink:href="#mbc73806267" x="194.72889" y="27.648" style="fill: #f5deb3; stroke: #f5deb3"/>
     <use xlink:href="#mbc73806267" x="194.72889" y="27.648" style="fill: #f5deb3; stroke: #f5deb3"/>
    </g>
   </g>
   <g id="line2d_34">
    <defs>
     <path id="m071e666b49" d="M 0 1.5 
C 0.397805 1.5 0.77937 1.341951 1.06066 1.06066 
C 1.341951 0.77937 1.5 0.397805 1.5 0 
C 1.5 -0.397805 1.341951 -0.77937 1.06066 -1.06066 
C 0.77937 -1.341951 0.397805 -1.5 0 -1.5 
C -0.397805 -1.5 -0.77937 -1.341951 -1.06066 -1.06066 
C -1.341951 -0.77937 -1.5 -0.397805 -1.5 0 
C -1.5 0.397805 -1.341951 0.77937 -1.06066 1.06066 
C -0.77937 1.341951 -0.397805 1.5 0 1.5 
z
" style="stroke: #000080"/>
    </defs>
    <g>
     <use xlink:href="#m071e666b49" x="213.19826" y="27.648" style="fill: #000080; stroke: #000080"/>
     <use xlink:href="#m071e666b49" x="213.19826" y="27.648" style="fill: #000080; stroke: #000080"/>
    </g>
   </g>
   <g id="line2d_35">
    <path d="M 44.560826 298.944 
L 44.560826 294.688376 
L 57.6 294.688376 
L 57.6 291.851294 
L 65.227428 291.851294 
L 65.227428 287.241035 
L 70.639174 287.241035 
L 70.639174 285.822494 
L 74.836851 285.822494 
L 74.836851 284.403953 
L 78.266603 284.403953 
L 78.266603 281.566871 
L 81.166416 281.566871 
L 81.166416 280.8576 
L 83.678349 280.8576 
L 83.678349 279.439059 
L 85.894031 279.439059 
L 85.894031 276.601976 
L 87.876026 276.601976 
L 87.876026 275.892706 
L 91.305777 275.892706 
L 91.305777 275.538071 
L 92.811505 275.538071 
L 92.811505 274.474165 
L 95.503454 274.474165 
L 95.503454 273.055624 
L 99.950294 273.055624 
L 99.950294 271.282447 
L 100.9152 271.282447 
L 100.9152 270.573176 
L 101.833019 270.573176 
L 101.833019 270.218541 
L 107.244765 270.218541 
L 107.244765 269.509271 
L 111.97238 269.509271 
L 111.97238 269.154635 
L 112.989468 269.154635 
L 112.989468 266.672188 
L 113.954374 266.672188 
L 113.954374 265.253647 
L 114.872193 265.253647 
L 114.872193 264.899012 
L 115.747307 264.899012 
L 115.747307 264.544376 
L 116.170056 264.544376 
L 116.170056 263.835106 
L 116.988079 263.835106 
L 116.988079 263.480471 
L 117.384126 263.480471 
L 117.384126 262.7712 
L 118.524569 262.7712 
L 118.524569 262.061929 
L 118.889854 262.061929 
L 118.889854 261.352659 
L 119.599808 261.352659 
L 119.599808 260.998024 
L 120.616896 260.998024 
L 120.616896 260.643388 
L 120.944062 260.643388 
L 120.944062 260.288753 
L 121.265635 260.288753 
L 121.265635 259.934118 
L 122.499621 259.934118 
L 122.499621 258.870212 
L 122.795872 258.870212 
L 122.795872 258.515576 
L 123.374735 258.515576 
L 123.374735 256.7424 
L 123.936316 256.7424 
L 123.936316 255.678494 
L 125.011554 255.678494 
L 125.011554 255.323859 
L 125.271028 255.323859 
L 125.271028 254.969224 
L 125.526971 254.969224 
L 125.526971 254.259953 
L 125.779479 254.259953 
L 125.779479 253.905318 
L 126.028642 253.905318 
L 126.028642 252.486776 
L 126.274549 252.486776 
L 126.274549 252.132141 
L 128.354013 252.132141 
L 128.354013 250.7136 
L 129.622688 250.7136 
L 129.622688 250.358965 
L 130.618241 250.358965 
L 130.618241 250.004329 
L 131.563744 250.004329 
L 131.563744 249.649694 
L 131.929028 249.649694 
L 131.929028 249.295059 
L 132.46399 249.295059 
L 132.46399 248.231153 
L 132.638982 248.231153 
L 132.638982 247.876518 
L 133.490329 247.876518 
L 133.490329 247.521882 
L 135.388902 247.521882 
L 135.388902 247.167247 
L 136.270855 247.167247 
L 136.270855 246.812612 
L 136.413909 246.812612 
L 136.413909 246.457976 
L 136.696795 246.457976 
L 136.696795 245.748706 
L 136.97549 245.748706 
L 136.97549 245.039435 
L 138.050729 245.039435 
L 138.050729 244.6848 
L 138.180913 244.6848 
L 138.180913 244.330165 
L 138.566146 244.330165 
L 138.566146 243.620894 
L 139.676658 243.620894 
L 139.676658 242.911624 
L 139.796097 242.911624 
L 139.796097 242.202353 
L 140.382174 242.202353 
L 140.382174 241.138447 
L 140.838234 241.138447 
L 140.838234 239.365271 
L 140.950542 239.365271 
L 140.950542 239.010635 
L 141.062184 239.010635 
L 141.062184 237.592094 
L 142.763822 237.592094 
L 142.763822 236.528188 
L 143.066428 236.528188 
L 143.066428 236.173553 
L 144.041338 236.173553 
L 144.041338 235.818918 
L 144.877544 235.818918 
L 144.877544 235.464282 
L 145.765046 235.464282 
L 145.765046 235.109647 
L 145.93763 235.109647 
L 145.93763 234.755012 
L 146.108646 234.755012 
L 146.108646 234.400376 
L 146.27812 234.400376 
L 146.362288 233.336471 
L 147.022411 233.336471 
L 147.022411 232.981835 
L 147.343984 232.981835 
L 147.343984 232.6272 
L 148.428077 232.6272 
L 148.428077 232.272565 
L 148.726679 232.272565 
L 148.726679 231.917929 
L 149.524205 231.917929 
L 149.524205 231.208659 
L 150.693856 231.208659 
L 150.693856 230.499388 
L 151.089903 230.499388 
L 151.089903 229.790118 
L 152.106991 229.790118 
L 152.106991 229.435482 
L 152.835271 229.435482 
L 152.835271 229.080847 
L 153.247435 229.080847 
L 153.247435 228.016941 
L 153.421349 228.016941 
L 153.421349 227.307671 
L 154.377597 227.307671 
L 154.432362 224.115953 
L 155.024477 224.115953 
L 155.024477 223.761318 
L 155.802997 223.761318 
L 155.802997 223.406682 
L 157.269574 223.406682 
L 157.269574 223.052047 
L 157.549652 223.052047 
L 157.549652 222.342776 
L 158.276759 222.342776 
L 158.276759 221.988141 
L 158.454228 221.988141 
L 158.454228 221.633506 
L 159.775628 221.633506 
L 159.857774 220.924235 
L 161.691646 220.924235 
L 161.691646 220.214965 
L 161.986735 220.214965 
L 161.986735 219.151059 
L 163.73303 219.151059 
L 163.73303 218.441788 
L 167.553385 218.441788 
L 167.553385 217.377882 
L 167.796816 217.377882 
L 167.796816 217.023247 
L 167.930707 217.023247 
L 167.930707 216.668612 
L 168.586228 216.668612 
L 168.586228 216.313976 
L 169.662898 216.313976 
L 169.662898 215.959341 
L 170.796182 215.959341 
L 170.796182 215.604706 
L 170.955893 215.604706 
L 170.955893 215.250071 
L 172.101681 215.250071 
L 172.208263 213.476894 
L 172.229507 213.476894 
L 172.229507 213.122259 
L 172.3986 213.122259 
L 172.461621 212.412988 
L 172.690906 212.412988 
L 172.690906 212.058353 
L 172.896949 212.058353 
L 172.896949 211.703718 
L 173.201843 211.703718 
L 173.262233 210.994447 
L 173.855707 210.994447 
L 173.933441 209.221271 
L 174.030158 209.221271 
L 174.030158 208.512 
L 174.241203 208.512 
L 174.241203 208.157365 
L 174.431028 208.157365 
L 174.525228 206.738824 
L 174.656319 206.738824 
L 174.712223 204.611012 
L 174.823534 204.611012 
L 174.823534 203.901741 
L 174.970932 203.901741 
L 174.989276 202.837835 
L 175.262307 202.837835 
L 175.298414 201.773929 
L 175.40632 201.773929 
L 175.40632 201.064659 
L 175.531433 201.064659 
L 175.531433 200.355388 
L 175.814319 200.355388 
L 175.88438 198.582212 
L 175.936756 198.582212 
L 175.936756 198.227576 
L 176.127562 198.227576 
L 176.127562 197.163671 
L 176.265124 197.163671 
L 176.350592 196.099765 
L 176.486539 196.099765 
L 176.587858 193.971953 
L 176.604692 193.971953 
L 176.655103 192.908047 
L 176.772205 192.908047 
L 176.772205 192.553412 
L 176.905149 192.553412 
L 176.905149 191.844141 
L 177.03716 191.844141 
L 177.053597 190.070965 
L 177.168252 190.070965 
L 177.168252 189.716329 
L 177.298436 189.716329 
L 177.330842 186.879247 
L 177.492039 186.879247 
L 177.492039 185.106071 
L 177.60406 185.106071 
L 177.60406 184.3968 
L 177.762943 184.3968 
L 177.873367 181.914353 
L 177.904798 181.914353 
L 177.904798 181.205082 
L 178.076737 181.205082 
L 178.169864 179.786541 
L 178.46176 179.786541 
L 178.507438 178.722635 
L 178.598461 178.722635 
L 178.643809 177.658729 
L 178.749196 177.658729 
L 178.779198 176.594824 
L 178.928497 176.594824 
L 179.032306 175.530918 
L 179.06186 175.530918 
L 179.150247 173.403106 
L 179.252842 173.403106 
L 179.325784 171.629929 
L 179.398443 171.629929 
L 179.441905 168.792847 
L 179.542926 168.792847 
L 179.542926 168.083576 
L 179.800231 168.083576 
L 179.856935 165.955765 
L 180.026029 165.955765 
L 180.123969 164.891859 
L 180.165788 164.891859 
L 180.165788 163.118682 
L 180.414768 163.118682 
L 180.524377 161.700141 
L 180.578943 161.700141 
L 180.687602 157.799153 
L 180.795637 157.799153 
L 180.795637 157.444518 
L 180.983218 157.444518 
L 181.036471 155.316706 
L 181.102826 155.316706 
L 181.102826 154.962071 
L 181.313602 154.962071 
L 181.392038 152.479624 
L 181.457152 152.479624 
L 181.470148 150.351812 
L 181.638283 150.351812 
L 181.728198 147.160094 
L 181.855908 147.160094 
L 181.894052 145.386918 
L 182.221437 145.386918 
L 182.221437 145.032282 
L 182.358249 145.032282 
L 182.358249 144.323012 
L 182.567747 144.323012 
L 182.665533 140.776659 
L 182.738541 140.776659 
L 182.738541 139.712753 
L 182.943869 139.712753 
L 182.955878 138.648847 
L 183.111297 138.648847 
L 183.182598 135.102494 
L 183.336163 135.102494 
L 183.336163 134.393224 
L 183.558372 134.393224 
L 183.558372 133.683953 
L 183.800956 133.683953 
L 183.823897 132.620047 
L 183.938184 132.620047 
L 184.040451 129.428329 
L 184.187197 129.428329 
L 184.265742 128.009788 
L 184.410747 128.009788 
L 184.499429 126.591247 
L 184.587695 126.591247 
L 184.686501 122.335624 
L 184.74117 122.335624 
L 184.784791 120.562447 
L 185.033667 120.562447 
L 185.130164 118.789271 
L 185.226169 118.789271 
L 185.236806 117.370729 
L 185.385096 117.370729 
L 185.458805 116.306824 
L 185.521755 116.306824 
L 185.584495 114.533647 
L 185.678215 114.533647 
L 185.719719 109.923388 
L 185.812768 109.923388 
L 185.884824 108.150212 
L 185.936123 108.150212 
L 185.936123 107.795576 
L 186.068851 107.795576 
L 186.160194 106.0224 
L 186.230933 106.0224 
L 186.281299 104.958494 
L 186.471468 104.958494 
L 186.550968 101.766776 
L 186.590592 101.766776 
L 186.620255 99.284329 
L 186.855894 99.284329 
L 186.875397 98.575059 
L 186.982309 98.575059 
L 187.04037 97.865788 
L 187.107881 97.865788 
L 187.184741 96.092612 
L 187.280377 96.092612 
L 187.280377 95.737976 
L 187.451306 95.737976 
L 187.5456 92.546259 
L 187.639423 92.546259 
L 187.639423 92.191624 
L 187.769995 92.191624 
L 187.844202 91.482353 
L 188.092513 91.482353 
L 188.192744 88.999906 
L 188.641729 88.999906 
L 188.641729 87.581365 
L 189.21844 87.581365 
L 189.21844 86.872094 
L 189.338532 86.872094 
L 189.338532 85.808188 
L 189.474849 85.808188 
L 189.474849 85.098918 
L 189.694277 85.098918 
L 189.694277 84.744282 
L 189.927757 84.744282 
L 189.927757 84.389647 
L 190.4669 84.389647 
L 190.547257 83.325741 
L 191.401584 83.325741 
L 191.447503 81.197929 
L 191.99739 81.197929 
L 191.99739 80.488659 
L 192.5821 80.488659 
L 192.675422 79.779388 
L 192.839405 79.779388 
L 192.931463 78.360847 
L 193.058188 78.360847 
L 193.058188 78.006212 
L 193.343691 78.006212 
L 193.42644 76.942306 
L 193.488264 76.942306 
L 193.501975 75.8784 
L 193.604491 75.8784 
L 193.604491 74.459859 
L 194.095576 74.459859 
L 194.095576 73.041318 
L 194.280588 73.041318 
L 194.280588 72.686682 
L 194.457285 72.686682 
L 194.554737 71.622776 
L 194.722468 71.622776 
L 194.722468 71.268141 
L 195.385027 71.268141 
L 195.48397 70.558871 
L 195.576259 70.558871 
L 195.582396 69.140329 
L 195.88066 69.140329 
L 195.983044 67.367153 
L 196.257322 67.367153 
L 196.357682 65.948612 
L 196.55681 65.948612 
L 196.574279 65.239341 
L 196.696112 65.239341 
L 196.701894 63.8208 
L 196.988749 63.8208 
L 197.017195 62.756894 
L 197.113592 62.756894 
L 197.164426 60.629082 
L 197.293716 60.629082 
L 197.383135 59.210541 
L 197.516472 59.210541 
L 197.626869 58.146635 
L 197.654367 58.146635 
L 197.665355 57.082729 
L 197.921744 57.082729 
L 197.997445 54.600282 
L 198.067466 54.600282 
L 198.131871 53.891012 
L 198.222735 53.891012 
L 198.265344 52.827106 
L 198.455896 52.827106 
L 198.482209 50.699294 
L 198.60278 50.699294 
L 198.680998 49.635388 
L 198.959923 49.635388 
L 199.036673 48.926118 
L 199.092759 48.926118 
L 199.194306 48.216847 
L 199.29027 48.216847 
L 199.355649 46.798306 
L 199.405787 46.798306 
L 199.405787 46.443671 
L 199.555402 46.443671 
L 199.555402 45.7344 
L 199.816849 45.7344 
L 199.890189 44.670494 
L 200.142241 44.670494 
L 200.142241 44.315859 
L 200.333855 44.315859 
L 200.438417 43.251953 
L 200.509377 43.251953 
L 200.532971 42.542682 
L 200.739333 42.542682 
L 200.739333 42.188047 
L 201.136255 42.188047 
L 201.168197 41.478776 
L 201.309006 41.478776 
L 201.340656 39.350965 
L 201.596417 39.350965 
L 201.596417 38.996329 
L 201.787083 38.996329 
L 201.813535 37.932424 
L 202.032531 37.932424 
L 202.128088 36.868518 
L 202.47153 36.868518 
L 202.577583 36.159247 
L 202.775357 36.159247 
L 202.775357 35.449976 
L 203.123729 35.449976 
L 203.213914 34.740706 
L 203.666447 34.740706 
L 203.746123 33.6768 
L 203.880803 33.6768 
L 203.880803 32.612894 
L 211.307178 32.612894 
L 211.307178 30.839718 
L 212.377244 30.839718 
L 212.427428 29.775812 
L 212.602026 29.775812 
L 212.602026 29.421176 
L 212.880502 29.421176 
L 212.98783 28.357271 
L 213.19826 28.357271 
L 213.19826 27.648 
L 360.8064 27.648 
L 360.8064 27.648 
" style="fill: none; stroke: #000080; stroke-width: 1.5; stroke-linecap: square"/>
   </g>
   <g id="line2d_36">
    <defs>
     <path id="m11fea345f5" d="M 0 6 
C 1.591219 6 3.117479 5.367802 4.242641 4.242641 
C 5.367802 3.117479 6 1.591219 6 0 
C 6 -1.591219 5.367802 -3.117479 4.242641 -4.242641 
C 3.117479 -5.367802 1.591219 -6 0 -6 
C -1.591219 -6 -3.117479 -5.367802 -4.242641 -4.242641 
C -5.367802 -3.117479 -6 -1.591219 -6 0 
C -6 1.591219 -5.367802 3.117479 -4.242641 4.242641 
C -3.117479 5.367802 -1.591219 6 0 6 
z
" style="stroke: #000080; stroke-width: 1.5"/>
    </defs>
    <g>
     <use xlink:href="#m11fea345f5" x="143.066428" y="236.173553" style="fill-opacity: 0; stroke: #000080; stroke-width: 1.5"/>
     <use xlink:href="#m11fea345f5" x="183.558372" y="133.683953" style="fill-opacity: 0; stroke: #000080; stroke-width: 1.5"/>
     <use xlink:href="#m11fea345f5" x="203.880803" y="32.612894" style="fill-opacity: 0; stroke: #000080; stroke-width: 1.5"/>
     <use xlink:href="#m11fea345f5" x="213.19826" y="27.648" style="fill-opacity: 0; stroke: #000080; stroke-width: 1.5"/>
     <use xlink:href="#m11fea345f5" x="213.19826" y="27.648" style="fill-opacity: 0; stroke: #000080; stroke-width: 1.5"/>
     <use xlink:href="#m11fea345f5" x="360.8064" y="27.648" style="fill-opacity: 0; stroke: #000080; stroke-width: 1.5"/>
    </g>
   </g>
   <g id="line2d_37">
    <path style="fill: none; stroke: #000080; stroke-width: 1.5; stroke-linecap: square"/>
    <g/>
   </g>
   <g id="line2d_38">
    <defs>
     <path id="mcdd002ccef" d="M 0 1.5 
C 0.397805 1.5 0.77937 1.341951 1.06066 1.06066 
C 1.341951 0.77937 1.5 0.397805 1.5 0 
C 1.5 -0.397805 1.341951 -0.77937 1.06066 -1.06066 
C 0.77937 -1.341951 0.397805 -1.5 0 -1.5 
C -0.397805 -1.5 -0.77937 -1.341951 -1.06066 -1.06066 
C -1.341951 -0.77937 -1.5 -0.397805 -1.5 0 
C -1.5 0.397805 -1.341951 0.77937 -1.06066 1.06066 
C -0.77937 1.341951 -0.397805 1.5 0 1.5 
z
" style="stroke: #ff00ff"/>
    </defs>
    <g>
     <use xlink:href="#mcdd002ccef" x="201.57412" y="27.648" style="fill: #ff00ff; stroke: #ff00ff"/>
     <use xlink:href="#mcdd002ccef" x="201.57412" y="27.648" style="fill: #ff00ff; stroke: #ff00ff"/>
    </g>
   </g>
   <g id="line2d_39">
    <path d="M 44.560826 298.944 
L 44.560826 294.688376 
L 57.6 294.688376 
L 57.6 293.269835 
L 65.227428 293.269835 
L 65.227428 287.950306 
L 70.639174 287.950306 
L 70.639174 285.467859 
L 74.836851 285.467859 
L 74.836851 283.340047 
L 78.266603 283.340047 
L 78.266603 281.921506 
L 81.166416 281.921506 
L 81.166416 281.566871 
L 83.678349 281.566871 
L 83.678349 280.148329 
L 87.876026 280.148329 
L 87.876026 278.375153 
L 89.668958 278.375153 
L 89.668958 276.956612 
L 91.305777 276.956612 
L 91.305777 275.892706 
L 92.811505 275.892706 
L 92.811505 274.119529 
L 94.205591 274.119529 
L 94.205591 272.700988 
L 95.503454 272.700988 
L 95.503454 272.346353 
L 96.717523 272.346353 
L 96.717523 271.991718 
L 97.857967 271.991718 
L 97.857967 269.154635 
L 98.933205 269.154635 
L 98.933205 268.8 
L 105.112877 268.8 
L 105.112877 267.736094 
L 105.850679 267.736094 
L 105.850679 267.381459 
L 106.560633 267.381459 
L 106.560633 266.317553 
L 107.904887 266.317553 
L 107.904887 265.962918 
L 108.542628 265.962918 
L 108.542628 265.608282 
L 109.756698 265.608282 
L 109.756698 264.899012 
L 110.335561 264.899012 
L 110.335561 264.189741 
L 110.897141 264.189741 
L 110.897141 263.835106 
L 112.487797 263.835106 
L 112.487797 263.480471 
L 114.418881 263.480471 
L 114.418881 262.061929 
L 114.872193 262.061929 
L 114.872193 261.707294 
L 115.747307 261.707294 
L 115.747307 259.579482 
L 116.170056 259.579482 
L 116.170056 259.224847 
L 117.384126 259.224847 
L 117.384126 258.870212 
L 117.772007 258.870212 
L 117.772007 258.160941 
L 118.152051 258.160941 
L 118.152051 254.969224 
L 119.944983 254.969224 
L 119.944983 252.841412 
L 121.892744 252.841412 
L 121.892744 252.132141 
L 123.657621 252.132141 
L 123.657621 251.777506 
L 126.993549 251.777506 
L 126.993549 250.7136 
L 128.354013 250.7136 
L 128.354013 250.358965 
L 129.209231 250.358965 
L 129.209231 250.004329 
L 130.027253 250.004329 
L 130.027253 249.649694 
L 130.226319 249.649694 
L 130.226319 249.295059 
L 131.191226 249.295059 
L 131.191226 248.940424 
L 132.109044 248.940424 
L 132.109044 248.585788 
L 132.46399 248.585788 
L 132.46399 248.231153 
L 132.812362 248.231153 
L 132.812362 247.876518 
L 133.323114 247.876518 
L 133.323114 247.521882 
L 133.820365 247.521882 
L 133.820365 247.167247 
L 134.77709 247.167247 
L 134.77709 246.812612 
L 135.388902 246.812612 
L 135.388902 246.103341 
L 135.538796 246.103341 
L 135.538796 245.748706 
L 135.981441 245.748706 
L 135.981441 245.394071 
L 136.836659 245.394071 
L 136.836659 244.330165 
L 136.97549 244.330165 
L 136.97549 243.975529 
L 137.520791 243.975529 
L 137.520791 243.620894 
L 137.787626 243.620894 
L 137.787626 242.911624 
L 138.050729 242.911624 
L 138.050729 241.138447 
L 139.435481 241.138447 
L 139.435481 240.783812 
L 140.26641 240.783812 
L 140.26641 240.429176 
L 140.49723 240.429176 
L 140.49723 240.074541 
L 140.838234 240.074541 
L 140.838234 239.365271 
L 141.062184 239.365271 
L 141.173167 238.656 
L 141.393187 238.656 
L 141.393187 237.946729 
L 141.718467 237.946729 
L 141.718467 237.592094 
L 142.248405 237.592094 
L 142.352625 236.528188 
L 142.763822 236.528188 
L 142.865233 234.755012 
L 142.966099 234.755012 
L 142.966099 234.400376 
L 144.602918 234.400376 
L 144.602918 234.045741 
L 146.108646 234.045741 
L 146.108646 233.691106 
L 146.777571 233.691106 
L 146.777571 232.981835 
L 149.093387 232.981835 
L 149.093387 232.6272 
L 150.014665 232.6272 
L 150.014665 232.272565 
L 150.425115 232.272565 
L 150.492661 230.854024 
L 150.8268 230.854024 
L 150.8268 230.499388 
L 151.155108 230.499388 
L 151.155108 229.790118 
L 151.284843 229.790118 
L 151.284843 229.435482 
L 151.668766 229.435482 
L 151.668766 229.080847 
L 153.247435 229.080847 
L 153.247435 228.016941 
L 154.101358 228.016941 
L 154.101358 227.662306 
L 154.595705 227.662306 
L 154.703817 226.953035 
L 154.86483 226.953035 
L 154.86483 226.5984 
L 155.701037 226.5984 
L 155.701037 226.243765 
L 155.904407 226.243765 
L 155.904407 224.470588 
L 157.032948 224.470588 
L 157.032948 223.761318 
L 157.779907 223.761318 
L 157.779907 223.052047 
L 158.410018 223.052047 
L 158.410018 222.697412 
L 158.847515 222.697412 
L 158.933807 221.633506 
L 159.14782 221.633506 
L 159.14782 219.860329 
L 159.898714 219.860329 
L 159.898714 219.505694 
L 160.303279 219.505694 
L 160.303279 219.151059 
L 160.502345 219.151059 
L 160.502345 218.441788 
L 161.163832 218.441788 
L 161.202028 217.377882 
L 161.579783 217.377882 
L 161.579783 217.023247 
L 162.492258 217.023247 
L 162.492258 215.604706 
L 162.634233 215.604706 
L 162.634233 214.895435 
L 163.96507 214.895435 
L 164.030845 213.122259 
L 164.2268 213.122259 
L 164.2268 212.412988 
L 164.516958 212.412988 
L 164.516958 212.058353 
L 164.928329 212.058353 
L 165.021997 210.994447 
L 165.146166 210.994447 
L 165.146166 210.639812 
L 166.111072 210.639812 
L 166.140442 209.575906 
L 166.8036 209.575906 
L 166.8036 209.221271 
L 167.251516 209.221271 
L 167.279159 208.157365 
L 167.416772 208.157365 
L 167.416772 206.738824 
L 167.930707 206.738824 
L 167.930707 205.320282 
L 168.195663 205.320282 
L 168.195663 204.611012 
L 168.892945 204.611012 
L 168.968849 203.901741 
L 169.244573 203.901741 
L 169.244573 203.547106 
L 169.516314 203.547106 
L 169.589749 202.128565 
L 170.588827 202.128565 
L 170.635104 201.064659 
L 170.9104 201.064659 
L 170.9104 200.710024 
L 171.20416 200.710024 
L 171.20416 200.355388 
L 171.360458 200.355388 
L 171.360458 200.000753 
L 171.756506 200.000753 
L 171.800001 199.291482 
L 171.929885 199.291482 
L 171.951446 198.582212 
L 172.080292 198.582212 
L 172.186995 196.4544 
L 172.566188 196.4544 
L 172.649425 194.681224 
L 173.080478 194.681224 
L 173.080478 193.971953 
L 173.262233 193.971953 
L 173.262233 193.262682 
L 173.402394 193.262682 
L 173.402394 192.553412 
L 173.87517 192.553412 
L 173.952824 191.844141 
L 173.991531 191.844141 
L 173.991531 191.134871 
L 174.126381 191.134871 
L 174.222115 190.070965 
L 174.241203 190.070965 
L 174.298352 188.297788 
L 174.525228 188.297788 
L 174.525228 187.588518 
L 174.656319 187.588518 
L 174.73082 185.106071 
L 175.098964 185.106071 
L 175.208017 182.623624 
L 175.262307 182.623624 
L 175.352444 181.559718 
L 176.058402 181.559718 
L 176.058402 180.141176 
L 176.299358 180.141176 
L 176.36764 177.658729 
L 176.418689 177.658729 
L 176.418689 176.949459 
L 176.587858 176.949459 
L 176.587858 176.594824 
L 177.053597 176.594824 
L 177.053597 176.240188 
L 177.184574 176.240188 
L 177.282212 173.403106 
L 177.314646 173.403106 
L 177.395487 170.211388 
L 177.572122 170.211388 
L 177.667774 167.019671 
L 177.683669 167.019671 
L 177.683669 165.955765 
L 178.247119 165.955765 
L 178.262532 164.182588 
L 178.46176 164.182588 
L 178.46176 163.473318 
L 178.6589 163.473318 
L 178.6589 162.764047 
L 178.86892 162.764047 
L 178.86892 162.409412 
L 179.017511 162.409412 
L 179.032306 160.2816 
L 179.223586 160.2816 
L 179.223586 159.926965 
L 179.369413 159.926965 
L 179.412941 157.799153 
L 179.842775 157.799153 
L 179.871084 156.025976 
L 179.969833 156.025976 
L 180.054064 155.316706 
L 180.082057 155.316706 
L 180.137919 153.188894 
L 180.359723 153.188894 
L 180.359723 151.770353 
L 180.510711 151.770353 
L 180.510711 149.642541 
L 180.714669 149.642541 
L 180.795637 147.514729 
L 180.929814 147.514729 
L 181.023172 146.805459 
L 181.261129 146.805459 
L 181.35286 145.032282 
L 181.405079 145.032282 
L 181.405079 143.968376 
L 181.689715 143.968376 
L 181.792161 142.549835 
L 181.944791 142.549835 
L 181.944791 142.1952 
L 182.158919 142.1952 
L 182.221437 139.712753 
L 182.296185 139.712753 
L 182.370637 138.648847 
L 182.46945 138.648847 
L 182.46945 138.294212 
L 182.835445 138.294212 
L 182.847523 136.521035 
L 182.991858 136.521035 
L 183.063612 134.747859 
L 183.229982 134.747859 
L 183.324394 132.265412 
L 183.488484 132.265412 
L 183.535105 130.492235 
L 183.731965 130.492235 
L 183.789475 129.073694 
L 183.84681 129.073694 
L 183.881127 127.655153 
L 184.017773 127.655153 
L 184.074417 124.463435 
L 184.23212 124.463435 
L 184.310478 123.044894 
L 184.343961 123.044894 
L 184.343961 122.335624 
L 184.45514 122.335624 
L 184.521534 118.789271 
L 184.719321 118.789271 
L 184.762993 118.08 
L 184.936672 118.08 
L 184.936672 117.370729 
L 185.065888 117.370729 
L 185.140856 115.242918 
L 185.226169 115.242918 
L 185.258062 114.533647 
L 185.342847 114.533647 
L 185.385096 112.0512 
L 185.563605 112.0512 
L 185.563605 111.341929 
L 185.688599 111.341929 
L 185.688599 110.632659 
L 185.91562 110.632659 
L 185.925875 109.923388 
L 186.160194 109.923388 
L 186.220844 106.731671 
L 186.361605 106.731671 
L 186.461507 104.603859 
L 186.50132 104.603859 
L 186.51126 103.894588 
L 186.640005 103.894588 
L 186.659734 103.185318 
L 186.807045 103.185318 
L 186.816825 102.121412 
L 186.924069 102.121412 
L 187.001683 99.9936 
L 187.088617 99.9936 
L 187.165556 98.575059 
L 187.251738 98.575059 
L 187.356538 97.156518 
L 187.432391 97.156518 
L 187.432391 96.447247 
L 187.59257 96.447247 
L 187.639423 95.383341 
L 187.742092 95.383341 
L 187.807135 93.9648 
L 187.927337 93.9648 
L 188.010106 91.836988 
L 188.17456 91.836988 
L 188.274356 91.127718 
L 188.623973 91.127718 
L 188.623973 90.418447 
L 188.897312 90.418447 
L 188.993357 88.290635 
L 189.140831 88.290635 
L 189.140831 87.936 
L 189.406814 87.936 
L 189.440862 86.517459 
L 189.542638 86.517459 
L 189.652278 85.098918 
L 189.685885 85.098918 
L 189.769641 84.389647 
L 189.944323 84.389647 
L 189.944323 84.035012 
L 190.337611 84.035012 
L 190.426593 82.971106 
L 190.810026 82.971106 
L 190.912542 81.552565 
L 191.286293 81.552565 
L 191.286293 80.843294 
L 191.462785 80.843294 
L 191.531398 80.134024 
L 192.211453 80.134024 
L 192.211453 79.779388 
L 192.364958 79.779388 
L 192.430364 78.360847 
L 192.846503 78.360847 
L 192.889031 77.651576 
L 193.001971 77.651576 
L 193.10024 76.233035 
L 193.246689 76.233035 
L 193.246689 75.8784 
L 193.834811 75.8784 
L 193.834811 75.523765 
L 194.022393 75.523765 
L 194.04238 74.459859 
L 194.234505 74.459859 
L 194.326558 71.622776 
L 195.072431 71.622776 
L 195.072431 70.558871 
L 195.248124 70.558871 
L 195.279326 66.303247 
L 195.391226 66.303247 
L 195.391226 65.593976 
L 195.92891 65.593976 
L 195.92891 65.239341 
L 196.221772 65.239341 
L 196.221772 64.884706 
L 196.434068 64.884706 
L 196.434068 63.8208 
L 196.632393 63.8208 
L 196.632393 63.111529 
L 196.776898 63.111529 
L 196.868802 62.047624 
L 197.022879 62.047624 
L 197.06262 59.919812 
L 197.220748 59.919812 
L 197.265685 58.501271 
L 197.399854 58.501271 
L 197.455477 56.728094 
L 197.610351 56.728094 
L 197.692797 54.954918 
L 197.883779 54.954918 
L 197.986649 53.891012 
L 198.045949 53.891012 
L 198.094328 52.472471 
L 198.212068 52.472471 
L 198.281297 51.7632 
L 198.371444 51.7632 
L 198.482209 49.635388 
L 198.555692 49.635388 
L 198.634106 47.507576 
L 198.717389 47.507576 
L 198.764075 44.670494 
L 198.846786 44.670494 
L 198.846786 43.251953 
L 199.087667 43.251953 
L 199.17404 41.124141 
L 199.199369 41.124141 
L 199.199369 40.769506 
L 199.360669 40.769506 
L 199.360669 40.414871 
L 199.505663 40.414871 
L 199.600056 39.350965 
L 199.639659 39.350965 
L 199.718617 38.287059 
L 199.865774 38.287059 
L 199.972963 37.223153 
L 200.147055 37.223153 
L 200.20473 34.740706 
L 200.319552 34.740706 
L 200.419449 32.612894 
L 200.603577 32.612894 
L 200.603577 32.258259 
L 200.734668 32.258259 
L 200.734668 31.548988 
L 200.874117 31.548988 
L 200.984936 30.130447 
L 201.007942 30.130447 
L 201.007942 29.421176 
L 201.213735 29.421176 
L 201.213735 29.066541 
L 201.381271 29.066541 
L 201.4128 28.002635 
L 201.57412 28.002635 
L 201.57412 27.648 
L 360.8064 27.648 
L 360.8064 27.648 
" style="fill: none; stroke: #ff00ff; stroke-width: 1.5; stroke-linecap: square"/>
   </g>
   <g id="line2d_40">
    <defs>
     <path id="m644eff3cdb" d="M -0 8.485281 
L 5.091169 0 
L 0 -8.485281 
L -5.091169 -0 
z
" style="stroke: #ff00ff; stroke-width: 1.5; stroke-linejoin: miter"/>
    </defs>
    <g>
     <use xlink:href="#m644eff3cdb" x="146.108646" y="233.691106" style="fill-opacity: 0; stroke: #ff00ff; stroke-width: 1.5; stroke-linejoin: miter"/>
     <use xlink:href="#m644eff3cdb" x="184.477298" y="121.980988" style="fill-opacity: 0; stroke: #ff00ff; stroke-width: 1.5; stroke-linejoin: miter"/>
     <use xlink:href="#m644eff3cdb" x="201.57412" y="28.002635" style="fill-opacity: 0; stroke: #ff00ff; stroke-width: 1.5; stroke-linejoin: miter"/>
     <use xlink:href="#m644eff3cdb" x="201.57412" y="27.648" style="fill-opacity: 0; stroke: #ff00ff; stroke-width: 1.5; stroke-linejoin: miter"/>
     <use xlink:href="#m644eff3cdb" x="201.57412" y="27.648" style="fill-opacity: 0; stroke: #ff00ff; stroke-width: 1.5; stroke-linejoin: miter"/>
     <use xlink:href="#m644eff3cdb" x="360.8064" y="27.648" style="fill-opacity: 0; stroke: #ff00ff; stroke-width: 1.5; stroke-linejoin: miter"/>
    </g>
   </g>
   <g id="line2d_41">
    <path style="fill: none; stroke: #ff00ff; stroke-width: 1.5; stroke-linecap: square"/>
    <g/>
   </g>
   <g id="line2d_42">
    <defs>
     <path id="mcbbb14ed90" d="M 0 1.5 
C 0.397805 1.5 0.77937 1.341951 1.06066 1.06066 
C 1.341951 0.77937 1.5 0.397805 1.5 0 
C 1.5 -0.397805 1.341951 -0.77937 1.06066 -1.06066 
C 0.77937 -1.341951 0.397805 -1.5 0 -1.5 
C -0.397805 -1.5 -0.77937 -1.341951 -1.06066 -1.06066 
C -1.341951 -0.77937 -1.5 -0.397805 -1.5 0 
C -1.5 0.397805 -1.341951 0.77937 -1.06066 1.06066 
C -0.77937 1.341951 -0.397805 1.5 0 1.5 
z
" style="stroke: #ff7500"/>
    </defs>
    <g>
     <use xlink:href="#mcbbb14ed90" x="209.070207" y="27.648" style="fill: #ff7500; stroke: #ff7500"/>
     <use xlink:href="#mcbbb14ed90" x="209.070207" y="27.648" style="fill: #ff7500; stroke: #ff7500"/>
    </g>
   </g>
   <g id="line2d_43">
    <path d="M 44.560826 298.944 
L 44.560826 297.170824 
L 57.6 297.170824 
L 57.6 289.723482 
L 65.227428 289.723482 
L 65.227428 286.177129 
L 70.639174 286.177129 
L 70.639174 284.758588 
L 81.166416 284.758588 
L 81.166416 284.403953 
L 83.678349 284.403953 
L 83.678349 283.340047 
L 85.894031 283.340047 
L 85.894031 282.630776 
L 89.668958 282.630776 
L 89.668958 281.212235 
L 91.305777 281.212235 
L 91.305777 279.439059 
L 92.811505 279.439059 
L 92.811505 279.084424 
L 94.205591 279.084424 
L 94.205591 277.665882 
L 96.717523 277.665882 
L 96.717523 276.247341 
L 97.857967 276.247341 
L 97.857967 275.892706 
L 100.9152 275.892706 
L 100.9152 275.538071 
L 101.833019 275.538071 
L 101.833019 274.8288 
L 103.544339 274.8288 
L 103.544339 271.991718 
L 105.112877 271.991718 
L 105.112877 271.637082 
L 105.850679 271.637082 
L 105.850679 269.863906 
L 107.244765 269.863906 
L 107.244765 265.253647 
L 109.756698 265.253647 
L 109.756698 264.189741 
L 110.335561 264.189741 
L 110.335561 262.7712 
L 110.897141 262.7712 
L 110.897141 262.416565 
L 111.442442 262.416565 
L 111.442442 261.707294 
L 112.487797 261.707294 
L 112.487797 261.352659 
L 112.989468 261.352659 
L 112.989468 259.579482 
L 113.954374 259.579482 
L 113.954374 258.870212 
L 114.418881 258.870212 
L 114.418881 257.806306 
L 115.314838 257.806306 
L 115.314838 257.451671 
L 116.988079 257.451671 
L 116.988079 257.097035 
L 118.152051 257.097035 
L 118.152051 256.7424 
L 118.889854 256.7424 
L 118.889854 256.033129 
L 119.944983 256.033129 
L 119.944983 254.969224 
L 120.28394 254.969224 
L 120.28394 254.614588 
L 120.616896 254.614588 
L 120.616896 253.550682 
L 121.581803 253.550682 
L 121.581803 253.196047 
L 122.795872 253.196047 
L 122.795872 252.841412 
L 123.08753 252.841412 
L 123.08753 252.132141 
L 123.936316 252.132141 
L 123.936316 251.777506 
L 124.210942 251.777506 
L 124.210942 251.422871 
L 125.526971 251.422871 
L 125.526971 251.068235 
L 126.028642 251.068235 
L 126.028642 250.358965 
L 126.517282 250.358965 
L 126.517282 249.649694 
L 126.756923 249.649694 
L 126.756923 249.295059 
L 127.458055 249.295059 
L 127.458055 248.940424 
L 127.911368 248.940424 
L 127.911368 247.876518 
L 128.57149 247.876518 
L 128.57149 247.167247 
L 128.786481 247.167247 
L 128.786481 246.457976 
L 129.417095 246.457976 
L 129.417095 246.103341 
L 129.826058 246.103341 
L 129.826058 245.394071 
L 130.4233 245.394071 
L 130.4233 245.039435 
L 131.002163 245.039435 
L 131.002163 243.975529 
L 131.563744 243.975529 
L 131.563744 243.266259 
L 132.287354 243.266259 
L 132.287354 241.847718 
L 132.638982 241.847718 
L 132.638982 241.493082 
L 132.812362 241.493082 
L 132.812362 240.429176 
L 133.154399 240.429176 
L 133.154399 240.074541 
L 134.304809 240.074541 
L 134.304809 239.719906 
L 135.388902 239.719906 
L 135.388902 239.365271 
L 135.687504 239.365271 
L 135.687504 239.010635 
L 136.413909 239.010635 
L 136.413909 238.656 
L 136.836659 238.656 
L 136.836659 238.301365 
L 136.97549 238.301365 
L 136.97549 237.592094 
L 137.250116 237.592094 
L 137.250116 236.882824 
L 138.180913 236.882824 
L 138.180913 235.818918 
L 138.438609 235.818918 
L 138.438609 234.755012 
L 138.692823 234.755012 
L 138.692823 234.400376 
L 138.818654 234.400376 
L 138.818654 234.045741 
L 139.191172 234.045741 
L 139.191172 232.981835 
L 140.49723 232.981835 
L 140.49723 232.6272 
L 140.838234 232.6272 
L 140.838234 231.563294 
L 142.661862 231.563294 
L 142.763822 230.854024 
L 143.657415 230.854024 
L 143.657415 230.499388 
L 144.2304 230.499388 
L 144.324223 229.435482 
L 144.417581 229.435482 
L 144.417581 228.016941 
L 144.786447 228.016941 
L 144.786447 227.662306 
L 145.237585 227.662306 
L 145.326529 226.953035 
L 146.108646 226.953035 
L 146.108646 225.889129 
L 146.529503 225.889129 
L 146.529503 225.534494 
L 147.183884 225.534494 
L 147.183884 224.825224 
L 147.581606 224.825224 
L 147.581606 224.470588 
L 147.73837 224.470588 
L 147.816265 223.761318 
L 148.57797 223.761318 
L 148.57797 221.633506 
L 148.726679 221.633506 
L 148.726679 220.924235 
L 149.020615 220.924235 
L 149.020615 219.860329 
L 150.014665 219.860329 
L 150.014665 219.505694 
L 150.152479 219.505694 
L 150.152479 218.441788 
L 151.41369 218.441788 
L 151.477784 217.732518 
L 151.60532 217.732518 
L 151.60532 216.668612 
L 152.045009 216.668612 
L 152.045009 215.959341 
L 152.230346 215.959341 
L 152.291722 215.250071 
L 152.715833 215.250071 
L 152.715833 214.895435 
L 153.536404 214.895435 
L 153.536404 214.186165 
L 153.764426 214.186165 
L 153.764426 213.122259 
L 153.933646 213.122259 
L 153.933646 212.767624 
L 154.04562 212.767624 
L 154.04562 212.058353 
L 154.212341 212.058353 
L 154.212341 211.703718 
L 154.811312 211.703718 
L 154.86483 210.285176 
L 155.077392 210.285176 
L 155.13016 209.221271 
L 156.937458 209.221271 
L 156.937458 208.866635 
L 157.127956 208.866635 
L 157.127956 207.448094 
L 157.916719 207.448094 
L 157.916719 207.093459 
L 158.760826 207.093459 
L 158.760826 206.738824 
L 159.14782 206.738824 
L 159.14782 205.674918 
L 160.061585 205.674918 
L 160.061585 205.320282 
L 160.422971 205.320282 
L 160.502345 204.611012 
L 160.816532 204.611012 
L 160.816532 203.901741 
L 161.765853 203.901741 
L 161.765853 202.837835 
L 162.168843 202.837835 
L 162.168843 202.4832 
L 163.260183 202.4832 
L 163.260183 202.128565 
L 163.699647 202.128565 
L 163.699647 201.773929 
L 164.420735 201.773929 
L 164.420735 200.355388 
L 164.580835 200.355388 
L 164.580835 200.000753 
L 165.96353 200.000753 
L 165.96353 199.646118 
L 166.546881 199.646118 
L 166.546881 199.291482 
L 166.972821 199.291482 
L 166.972821 198.227576 
L 167.416772 198.227576 
L 167.498859 197.518306 
L 167.823671 197.518306 
L 167.823671 196.809035 
L 168.063651 196.809035 
L 168.090128 196.099765 
L 168.221954 196.099765 
L 168.221954 195.745129 
L 168.867575 195.745129 
L 168.867575 195.390494 
L 169.244573 195.390494 
L 169.244573 195.035859 
L 170.00055 195.035859 
L 170.00055 194.326588 
L 170.332249 194.326588 
L 170.332249 193.971953 
L 170.61198 193.971953 
L 170.681267 193.262682 
L 170.819081 193.262682 
L 170.819081 192.908047 
L 170.955893 192.908047 
L 171.023928 191.134871 
L 171.248949 191.134871 
L 171.248949 190.780235 
L 172.293095 190.780235 
L 172.293095 190.4256 
L 172.545321 190.4256 
L 172.587032 189.361694 
L 172.670177 189.361694 
L 172.773594 188.297788 
L 172.794209 188.297788 
L 172.814802 187.588518 
L 173.141258 187.588518 
L 173.242125 184.042165 
L 173.342453 184.042165 
L 173.422332 183.332894 
L 173.699269 183.332894 
L 173.699269 182.623624 
L 174.010854 182.623624 
L 174.010854 181.205082 
L 174.393216 181.205082 
L 174.393216 180.495812 
L 174.637648 180.495812 
L 174.637648 180.141176 
L 174.878944 180.141176 
L 174.878944 179.431906 
L 175.098964 179.431906 
L 175.208017 177.304094 
L 175.298414 177.304094 
L 175.298414 176.949459 
L 175.51361 176.949459 
L 175.584799 175.885553 
L 175.866889 175.885553 
L 175.936756 173.403106 
L 176.384671 173.403106 
L 176.435674 170.566024 
L 176.722107 170.566024 
L 176.772205 169.502118 
L 177.200883 169.502118 
L 177.200883 169.147482 
L 177.314646 169.147482 
L 177.330842 168.438212 
L 177.45991 168.438212 
L 177.556133 167.019671 
L 177.60406 167.019671 
L 177.683669 165.955765 
L 177.731273 165.955765 
L 177.794559 164.537224 
L 178.014396 164.537224 
L 178.076737 163.118682 
L 178.154375 163.118682 
L 178.169864 162.054776 
L 178.308695 162.054776 
L 178.415971 159.217694 
L 178.446509 159.217694 
L 178.537828 157.444518 
L 178.83906 157.444518 
L 178.91362 156.025976 
L 179.120831 156.025976 
L 179.120831 155.671341 
L 179.614753 155.671341 
L 179.714853 154.607435 
L 179.75759 154.607435 
L 179.800231 153.543529 
L 179.941672 153.543529 
L 179.941672 152.479624 
L 180.054064 152.479624 
L 180.068066 149.287906 
L 180.263006 149.287906 
L 180.304517 147.869365 
L 180.455946 147.869365 
L 180.455946 147.514729 
L 180.578943 147.514729 
L 180.674054 144.677647 
L 180.822549 144.677647 
L 180.889661 143.613741 
L 180.969881 143.613741 
L 181.049761 142.1952 
L 181.129302 142.1952 
L 181.129302 140.776659 
L 181.261129 140.776659 
L 181.326697 139.712753 
L 181.378988 139.712753 
L 181.41811 139.003482 
L 181.496113 139.003482 
L 181.547935 135.102494 
L 181.664017 135.102494 
L 181.728198 131.201506 
L 181.868631 131.201506 
L 181.868631 129.428329 
L 182.020644 129.428329 
L 182.096193 128.719059 
L 182.133854 128.719059 
L 182.133854 128.364424 
L 182.246386 128.364424 
L 182.321035 126.945882 
L 182.407753 126.945882 
L 182.407753 125.881976 
L 182.689901 125.881976 
L 182.787055 123.044894 
L 182.931853 123.044894 
L 182.931853 121.980988 
L 183.135094 121.980988 
L 183.135094 121.626353 
L 183.300836 121.626353 
L 183.300836 121.271718 
L 183.418335 121.271718 
L 183.52346 117.370729 
L 183.81243 117.370729 
L 183.915382 115.597553 
L 184.074417 115.597553 
L 184.142166 113.824376 
L 184.243334 113.824376 
L 184.321646 113.115106 
L 184.510485 113.115106 
L 184.620688 112.0512 
L 184.631672 112.0512 
L 184.708387 111.341929 
L 184.784791 111.341929 
L 184.850033 109.923388 
L 184.947474 109.923388 
L 184.947474 109.568753 
L 185.226169 109.568753 
L 185.226169 109.214118 
L 185.395644 109.214118 
L 185.395644 108.150212 
L 185.553151 108.150212 
L 185.636619 106.731671 
L 185.719719 106.731671 
L 185.781803 104.249224 
L 185.987283 104.249224 
L 186.058675 102.830682 
L 186.119652 102.830682 
L 186.119652 102.476047 
L 186.291356 102.476047 
L 186.291356 102.121412 
L 186.451541 102.121412 
L 186.541048 100.702871 
L 186.590592 100.702871 
L 186.590592 99.9936 
L 186.79726 99.9936 
L 186.79726 99.638965 
L 187.030705 99.638965 
L 187.107881 98.929694 
L 187.507939 98.929694 
L 187.507939 98.220424 
L 187.945762 98.220424 
L 187.954967 96.801882 
L 188.065084 96.801882 
L 188.147251 96.092612 
L 188.210911 96.092612 
L 188.210911 95.737976 
L 188.427553 95.737976 
L 188.534946 94.319435 
L 188.570607 94.319435 
L 188.623973 93.610165 
L 188.72142 93.610165 
L 188.72142 93.255529 
L 188.967211 93.255529 
L 188.967211 92.900894 
L 189.080246 92.900894 
L 189.080246 91.836988 
L 189.25283 91.836988 
L 189.355626 90.063812 
L 189.389767 90.063812 
L 189.457863 88.290635 
L 189.786347 88.290635 
L 189.894579 86.517459 
L 190.150186 86.517459 
L 190.150186 85.098918 
L 190.627272 85.098918 
L 190.627272 84.744282 
L 190.738725 84.744282 
L 190.738725 84.389647 
L 191.014501 84.389647 
L 191.12369 82.616471 
L 191.270868 82.616471 
L 191.301706 81.552565 
L 191.546612 81.552565 
L 191.584592 79.779388 
L 191.967672 79.779388 
L 191.967672 79.070118 
L 192.488313 79.070118 
L 192.488313 78.360847 
L 192.603677 78.360847 
L 192.603677 77.296941 
L 192.810989 77.296941 
L 192.874865 73.395953 
L 193.001971 73.395953 
L 193.001971 73.041318 
L 193.204963 73.041318 
L 193.204963 72.686682 
L 193.42644 72.686682 
L 193.460812 70.913506 
L 193.760604 70.913506 
L 193.841543 69.8496 
L 194.002384 69.8496 
L 194.002384 69.140329 
L 194.418162 69.140329 
L 194.502826 67.367153 
L 194.658133 67.367153 
L 194.72889 66.657882 
L 194.780182 66.657882 
L 194.869609 65.593976 
L 194.914164 65.593976 
L 194.914164 65.239341 
L 195.166757 65.239341 
L 195.166757 64.884706 
L 195.372622 64.884706 
L 195.409811 62.756894 
L 195.674204 62.756894 
L 195.680309 61.692988 
L 195.92891 61.692988 
L 195.92891 60.629082 
L 196.251402 60.629082 
L 196.275071 58.146635 
L 196.469219 58.146635 
L 196.533492 56.728094 
L 196.701894 56.728094 
L 196.776898 53.536376 
L 196.851604 53.536376 
L 196.851604 53.181741 
L 196.97166 53.181741 
L 196.97166 52.117835 
L 197.19824 52.117835 
L 197.19824 51.408565 
L 197.321705 51.408565 
L 197.321705 51.053929 
L 197.483226 51.053929 
L 197.577271 49.280753 
L 197.731149 49.280753 
L 197.731149 48.571482 
L 197.867485 48.571482 
L 197.937991 46.798306 
L 198.15329 46.798306 
L 198.228067 45.025129 
L 198.450628 45.025129 
L 198.487467 44.315859 
L 198.618449 44.315859 
L 198.706999 43.251953 
L 198.74334 43.251953 
L 198.795134 41.833412 
L 199.194306 41.833412 
L 199.29027 39.7056 
L 199.345606 39.7056 
L 199.345606 38.641694 
L 199.669307 38.641694 
L 199.669307 38.287059 
L 200.074713 38.287059 
L 200.074713 37.932424 
L 200.271795 37.932424 
L 200.281356 36.868518 
L 200.715997 36.868518 
L 200.715997 36.159247 
L 201.085951 36.159247 
L 201.085951 35.095341 
L 201.299953 35.095341 
L 201.299953 34.740706 
L 204.722158 34.740706 
L 204.722158 34.031435 
L 206.708304 34.031435 
L 206.749014 32.612894 
L 206.843664 32.612894 
L 206.880717 31.548988 
L 207.319762 31.548988 
L 207.319762 31.194353 
L 207.493202 31.194353 
L 207.493202 30.130447 
L 208.368316 30.130447 
L 208.414898 28.357271 
L 208.934926 28.357271 
L 208.934926 28.002635 
L 209.070207 28.002635 
L 209.070207 27.648 
L 360.8064 27.648 
L 360.8064 27.648 
" style="fill: none; stroke: #ff7500; stroke-width: 1.5; stroke-linecap: square"/>
   </g>
   <g id="line2d_44">
    <defs>
     <path id="m76a4f6b2e4" d="M 0 -6 
L -1.347084 -1.854102 
L -5.706339 -1.854102 
L -2.179628 0.708204 
L -3.526712 4.854102 
L -0 2.291796 
L 3.526712 4.854102 
L 2.179628 0.708204 
L 5.706339 -1.854102 
L 1.347084 -1.854102 
z
" style="stroke: #ff7500; stroke-width: 1.5; stroke-linejoin: bevel"/>
    </defs>
    <g>
     <use xlink:href="#m76a4f6b2e4" x="138.180913" y="235.818918" style="fill-opacity: 0; stroke: #ff7500; stroke-width: 1.5; stroke-linejoin: bevel"/>
     <use xlink:href="#m76a4f6b2e4" x="179.120831" y="156.025976" style="fill-opacity: 0; stroke: #ff7500; stroke-width: 1.5; stroke-linejoin: bevel"/>
     <use xlink:href="#m76a4f6b2e4" x="204.722158" y="34.031435" style="fill-opacity: 0; stroke: #ff7500; stroke-width: 1.5; stroke-linejoin: bevel"/>
     <use xlink:href="#m76a4f6b2e4" x="209.070207" y="27.648" style="fill-opacity: 0; stroke: #ff7500; stroke-width: 1.5; stroke-linejoin: bevel"/>
     <use xlink:href="#m76a4f6b2e4" x="209.070207" y="27.648" style="fill-opacity: 0; stroke: #ff7500; stroke-width: 1.5; stroke-linejoin: bevel"/>
     <use xlink:href="#m76a4f6b2e4" x="360.8064" y="27.648" style="fill-opacity: 0; stroke: #ff7500; stroke-width: 1.5; stroke-linejoin: bevel"/>
    </g>
   </g>
   <g id="line2d_45">
    <path style="fill: none; stroke: #ff7500; stroke-width: 1.5; stroke-linecap: square"/>
    <g/>
   </g>
   <g id="line2d_46">
    <path d="M 360.8064 27.648 
L 380.514816 293.51808 
" style="fill: none; stroke: #000080; stroke-width: 1.5; stroke-linecap: square"/>
    <g>
     <use xlink:href="#m11fea345f5" x="360.8064" y="27.648" style="fill-opacity: 0; stroke: #000080; stroke-width: 1.5"/>
     <use xlink:href="#m11fea345f5" x="380.514816" y="293.51808" style="fill-opacity: 0; stroke: #000080; stroke-width: 1.5"/>
    </g>
   </g>
   <g id="line2d_47">
    <path d="M 360.8064 27.648 
L 380.514816 206.70336 
" style="fill: none; stroke: #ff7500; stroke-width: 1.5; stroke-linecap: square"/>
    <g>
     <use xlink:href="#m76a4f6b2e4" x="360.8064" y="27.648" style="fill-opacity: 0; stroke: #ff7500; stroke-width: 1.5; stroke-linejoin: bevel"/>
     <use xlink:href="#m76a4f6b2e4" x="380.514816" y="206.70336" style="fill-opacity: 0; stroke: #ff7500; stroke-width: 1.5; stroke-linejoin: bevel"/>
    </g>
   </g>
   <g id="line2d_48">
    <path d="M 360.8064 27.648 
L 380.514816 119.88864 
" style="fill: none; stroke: #ff00ff; stroke-width: 1.5; stroke-linecap: square"/>
    <g>
     <use xlink:href="#m644eff3cdb" x="360.8064" y="27.648" style="fill-opacity: 0; stroke: #ff00ff; stroke-width: 1.5; stroke-linejoin: miter"/>
     <use xlink:href="#m644eff3cdb" x="380.514816" y="119.88864" style="fill-opacity: 0; stroke: #ff00ff; stroke-width: 1.5; stroke-linejoin: miter"/>
    </g>
   </g>
   <g id="line2d_49">
    <path d="M 360.8064 298.944 
L 360.8064 27.648 
" style="fill: none; stroke: #000000; stroke-width: 1.5; stroke-linecap: square"/>
   </g>
   <g id="patch_3">
    <path d="M 57.6 298.944 
L 360.8064 298.944 
" style="fill: none; stroke: #000000; stroke-width: 0.8; stroke-linejoin: miter; stroke-linecap: square"/>
   </g>
   <g id="patch_4">
    <path d="M 57.6 27.648 
L 360.8064 27.648 
" style="fill: none; stroke: #000000; stroke-width: 0.8; stroke-linejoin: miter; stroke-linecap: square"/>
   </g>
   <g id="text_13">
    <!-- ddcma0 -->
    <g transform="translate(386.578944 297.381205)scale(0.14 -0.14)">
     <use xlink:href="#DejaVuSans-64"/>
     <use xlink:href="#DejaVuSans-64" x="63.476562"/>
     <use xlink:href="#DejaVuSans-63" x="126.953125"/>
     <use xlink:href="#DejaVuSans-6d" x="181.933594"/>
     <use xlink:href="#DejaVuSans-61" x="279.345703"/>
     <use xlink:href="#DejaVuSans-30" x="340.625"/>
    </g>
   </g>
   <g id="text_14">
    <!-- CMA-ES-20 -->
    <g transform="translate(386.578944 210.566485)scale(0.14 -0.14)">
     <defs>
      <path id="DejaVuSans-43" d="M 4122 4306 
L 4122 3641 
Q 3803 3938 3442 4084 
Q 3081 4231 2675 4231 
Q 1875 4231 1450 3742 
Q 1025 3253 1025 2328 
Q 1025 1406 1450 917 
Q 1875 428 2675 428 
Q 3081 428 3442 575 
Q 3803 722 4122 1019 
L 4122 359 
Q 3791 134 3420 21 
Q 3050 -91 2638 -91 
Q 1578 -91 968 557 
Q 359 1206 359 2328 
Q 359 3453 968 4101 
Q 1578 4750 2638 4750 
Q 3056 4750 3426 4639 
Q 3797 4528 4122 4306 
z
" transform="scale(0.015625)"/>
      <path id="DejaVuSans-4d" d="M 628 4666 
L 1569 4666 
L 2759 1491 
L 3956 4666 
L 4897 4666 
L 4897 0 
L 4281 0 
L 4281 4097 
L 3078 897 
L 2444 897 
L 1241 4097 
L 1241 0 
L 628 0 
L 628 4666 
z
" transform="scale(0.015625)"/>
      <path id="DejaVuSans-41" d="M 2188 4044 
L 1331 1722 
L 3047 1722 
L 2188 4044 
z
M 1831 4666 
L 2547 4666 
L 4325 0 
L 3669 0 
L 3244 1197 
L 1141 1197 
L 716 0 
L 50 0 
L 1831 4666 
z
" transform="scale(0.015625)"/>
      <path id="DejaVuSans-45" d="M 628 4666 
L 3578 4666 
L 3578 4134 
L 1259 4134 
L 1259 2753 
L 3481 2753 
L 3481 2222 
L 1259 2222 
L 1259 531 
L 3634 531 
L 3634 0 
L 628 0 
L 628 4666 
z
" transform="scale(0.015625)"/>
      <path id="DejaVuSans-53" d="M 3425 4513 
L 3425 3897 
Q 3066 4069 2747 4153 
Q 2428 4238 2131 4238 
Q 1616 4238 1336 4038 
Q 1056 3838 1056 3469 
Q 1056 3159 1242 3001 
Q 1428 2844 1947 2747 
L 2328 2669 
Q 3034 2534 3370 2195 
Q 3706 1856 3706 1288 
Q 3706 609 3251 259 
Q 2797 -91 1919 -91 
Q 1588 -91 1214 -16 
Q 841 59 441 206 
L 441 856 
Q 825 641 1194 531 
Q 1563 422 1919 422 
Q 2459 422 2753 634 
Q 3047 847 3047 1241 
Q 3047 1584 2836 1778 
Q 2625 1972 2144 2069 
L 1759 2144 
Q 1053 2284 737 2584 
Q 422 2884 422 3419 
Q 422 4038 858 4394 
Q 1294 4750 2059 4750 
Q 2388 4750 2728 4690 
Q 3069 4631 3425 4513 
z
" transform="scale(0.015625)"/>
     </defs>
     <use xlink:href="#DejaVuSans-43"/>
     <use xlink:href="#DejaVuSans-4d" x="69.824219"/>
     <use xlink:href="#DejaVuSans-41" x="156.103516"/>
     <use xlink:href="#DejaVuSans-2d" x="222.261719"/>
     <use xlink:href="#DejaVuSans-45" x="258.345703"/>
     <use xlink:href="#DejaVuSans-53" x="321.529297"/>
     <use xlink:href="#DejaVuSans-2d" x="385.005859"/>
     <use xlink:href="#DejaVuSans-32" x="421.089844"/>
     <use xlink:href="#DejaVuSans-30" x="484.712891"/>
    </g>
   </g>
   <g id="text_15">
    <!-- ddcma1 -->
    <g transform="translate(386.578944 123.751765)scale(0.14 -0.14)">
     <use xlink:href="#DejaVuSans-64"/>
     <use xlink:href="#DejaVuSans-64" x="63.476562"/>
     <use xlink:href="#DejaVuSans-63" x="126.953125"/>
     <use xlink:href="#DejaVuSans-6d" x="181.933594"/>
     <use xlink:href="#DejaVuSans-61" x="279.345703"/>
     <use xlink:href="#DejaVuSans-31" x="340.625"/>
    </g>
   </g>
   <g id="text_16">
    <!-- best 2009 -->
    <g transform="translate(386.578944 36.937045)scale(0.14 -0.14)">
     <defs>
      <path id="DejaVuSans-62" d="M 3116 1747 
Q 3116 2381 2855 2742 
Q 2594 3103 2138 3103 
Q 1681 3103 1420 2742 
Q 1159 2381 1159 1747 
Q 1159 1113 1420 752 
Q 1681 391 2138 391 
Q 2594 391 2855 752 
Q 3116 1113 3116 1747 
z
M 1159 2969 
Q 1341 3281 1617 3432 
Q 1894 3584 2278 3584 
Q 2916 3584 3314 3078 
Q 3713 2572 3713 1747 
Q 3713 922 3314 415 
Q 2916 -91 2278 -91 
Q 1894 -91 1617 61 
Q 1341 213 1159 525 
L 1159 0 
L 581 0 
L 581 4863 
L 1159 4863 
L 1159 2969 
z
" transform="scale(0.015625)"/>
      <path id="DejaVuSans-39" d="M 703 97 
L 703 672 
Q 941 559 1184 500 
Q 1428 441 1663 441 
Q 2288 441 2617 861 
Q 2947 1281 2994 2138 
Q 2813 1869 2534 1725 
Q 2256 1581 1919 1581 
Q 1219 1581 811 2004 
Q 403 2428 403 3163 
Q 403 3881 828 4315 
Q 1253 4750 1959 4750 
Q 2769 4750 3195 4129 
Q 3622 3509 3622 2328 
Q 3622 1225 3098 567 
Q 2575 -91 1691 -91 
Q 1453 -91 1209 -44 
Q 966 3 703 97 
z
M 1959 2075 
Q 2384 2075 2632 2365 
Q 2881 2656 2881 3163 
Q 2881 3666 2632 3958 
Q 2384 4250 1959 4250 
Q 1534 4250 1286 3958 
Q 1038 3666 1038 3163 
Q 1038 2656 1286 2365 
Q 1534 2075 1959 2075 
z
" transform="scale(0.015625)"/>
     </defs>
     <use xlink:href="#DejaVuSans-62"/>
     <use xlink:href="#DejaVuSans-65" x="63.476562"/>
     <use xlink:href="#DejaVuSans-73" x="125"/>
     <use xlink:href="#DejaVuSans-74" x="177.099609"/>
     <use xlink:href="#DejaVuSans-20" x="216.308594"/>
     <use xlink:href="#DejaVuSans-32" x="248.095703"/>
     <use xlink:href="#DejaVuSans-30" x="311.71875"/>
     <use xlink:href="#DejaVuSans-30" x="375.341797"/>
     <use xlink:href="#DejaVuSans-39" x="438.964844"/>
    </g>
   </g>
   <g id="text_17">
    <!-- bbob f18, 2-D -->
    <g transform="translate(60.632064 38.111366)scale(0.102 -0.102)">
     <defs>
      <path id="DejaVuSans-44" d="M 1259 4147 
L 1259 519 
L 2022 519 
Q 2988 519 3436 956 
Q 3884 1394 3884 2338 
Q 3884 3275 3436 3711 
Q 2988 4147 2022 4147 
L 1259 4147 
z
M 628 4666 
L 1925 4666 
Q 3281 4666 3915 4102 
Q 4550 3538 4550 2338 
Q 4550 1131 3912 565 
Q 3275 0 1925 0 
L 628 0 
L 628 4666 
z
" transform="scale(0.015625)"/>
     </defs>
     <use xlink:href="#DejaVuSans-62"/>
     <use xlink:href="#DejaVuSans-62" x="63.476562"/>
     <use xlink:href="#DejaVuSans-6f" x="126.953125"/>
     <use xlink:href="#DejaVuSans-62" x="188.134766"/>
     <use xlink:href="#DejaVuSans-20" x="251.611328"/>
     <use xlink:href="#DejaVuSans-66" x="283.398438"/>
     <use xlink:href="#DejaVuSans-31" x="318.603516"/>
     <use xlink:href="#DejaVuSans-38" x="382.226562"/>
     <use xlink:href="#DejaVuSans-2c" x="445.849609"/>
     <use xlink:href="#DejaVuSans-20" x="477.636719"/>
     <use xlink:href="#DejaVuSans-32" x="509.423828"/>
     <use xlink:href="#DejaVuSans-2d" x="573.046875"/>
     <use xlink:href="#DejaVuSans-44" x="609.130859"/>
    </g>
    <!-- 51 targets: 100..1e-08 -->
    <g transform="translate(60.632064 49.533135)scale(0.102 -0.102)">
     <defs>
      <path id="DejaVuSans-35" d="M 691 4666 
L 3169 4666 
L 3169 4134 
L 1269 4134 
L 1269 2991 
Q 1406 3038 1543 3061 
Q 1681 3084 1819 3084 
Q 2600 3084 3056 2656 
Q 3513 2228 3513 1497 
Q 3513 744 3044 326 
Q 2575 -91 1722 -91 
Q 1428 -91 1123 -41 
Q 819 9 494 109 
L 494 744 
Q 775 591 1075 516 
Q 1375 441 1709 441 
Q 2250 441 2565 725 
Q 2881 1009 2881 1497 
Q 2881 1984 2565 2268 
Q 2250 2553 1709 2553 
Q 1456 2553 1204 2497 
Q 953 2441 691 2322 
L 691 4666 
z
" transform="scale(0.015625)"/>
      <path id="DejaVuSans-3a" d="M 750 794 
L 1409 794 
L 1409 0 
L 750 0 
L 750 794 
z
M 750 3309 
L 1409 3309 
L 1409 2516 
L 750 2516 
L 750 3309 
z
" transform="scale(0.015625)"/>
     </defs>
     <use xlink:href="#DejaVuSans-35"/>
     <use xlink:href="#DejaVuSans-31" x="63.623047"/>
     <use xlink:href="#DejaVuSans-20" x="127.246094"/>
     <use xlink:href="#DejaVuSans-74" x="159.033203"/>
     <use xlink:href="#DejaVuSans-61" x="198.242188"/>
     <use xlink:href="#DejaVuSans-72" x="259.521484"/>
     <use xlink:href="#DejaVuSans-67" x="298.884766"/>
     <use xlink:href="#DejaVuSans-65" x="362.361328"/>
     <use xlink:href="#DejaVuSans-74" x="423.884766"/>
     <use xlink:href="#DejaVuSans-73" x="463.09375"/>
     <use xlink:href="#DejaVuSans-3a" x="515.193359"/>
     <use xlink:href="#DejaVuSans-20" x="548.884766"/>
     <use xlink:href="#DejaVuSans-31" x="580.671875"/>
     <use xlink:href="#DejaVuSans-30" x="644.294922"/>
     <use xlink:href="#DejaVuSans-30" x="707.917969"/>
     <use xlink:href="#DejaVuSans-2e" x="771.541016"/>
     <use xlink:href="#DejaVuSans-2e" x="803.328125"/>
     <use xlink:href="#DejaVuSans-31" x="835.115234"/>
     <use xlink:href="#DejaVuSans-65" x="898.738281"/>
     <use xlink:href="#DejaVuSans-2d" x="960.261719"/>
     <use xlink:href="#DejaVuSans-30" x="996.345703"/>
     <use xlink:href="#DejaVuSans-38" x="1059.96875"/>
    </g>
    <!-- 15 instances -->
    <g transform="translate(60.632064 60.954904)scale(0.102 -0.102)">
     <use xlink:href="#DejaVuSans-31"/>
     <use xlink:href="#DejaVuSans-35" x="63.623047"/>
     <use xlink:href="#DejaVuSans-20" x="127.246094"/>
     <use xlink:href="#DejaVuSans-69" x="159.033203"/>
     <use xlink:href="#DejaVuSans-6e" x="186.816406"/>
     <use xlink:href="#DejaVuSans-73" x="250.195312"/>
     <use xlink:href="#DejaVuSans-74" x="302.294922"/>
     <use xlink:href="#DejaVuSans-61" x="341.503906"/>
     <use xlink:href="#DejaVuSans-6e" x="402.783203"/>
     <use xlink:href="#DejaVuSans-63" x="466.162109"/>
     <use xlink:href="#DejaVuSans-65" x="521.142578"/>
     <use xlink:href="#DejaVuSans-73" x="582.666016"/>
    </g>
   </g>
   <g id="text_18">
    <!-- v2.6 -->
    <g style="fill: #808080" transform="translate(198.292262 294.151352)scale(0.1 -0.1)">
     <use xlink:href="#DejaVuSans-76"/>
     <use xlink:href="#DejaVuSans-32" x="59.179688"/>
     <use xlink:href="#DejaVuSans-2e" x="122.802734"/>
     <use xlink:href="#DejaVuSans-36" x="154.589844"/>
    </g>
   </g>
   <g id="text_19">
    <!-- 18 Schaffer F7, condition 1000 -->
    <g transform="translate(55.170387 21.648)scale(0.2 -0.2)">
     <defs>
      <path id="DejaVuSans-68" d="M 3513 2113 
L 3513 0 
L 2938 0 
L 2938 2094 
Q 2938 2591 2744 2837 
Q 2550 3084 2163 3084 
Q 1697 3084 1428 2787 
Q 1159 2491 1159 1978 
L 1159 0 
L 581 0 
L 581 4863 
L 1159 4863 
L 1159 2956 
Q 1366 3272 1645 3428 
Q 1925 3584 2291 3584 
Q 2894 3584 3203 3211 
Q 3513 2838 3513 2113 
z
" transform="scale(0.015625)"/>
      <path id="DejaVuSans-37" d="M 525 4666 
L 3525 4666 
L 3525 4397 
L 1831 0 
L 1172 0 
L 2766 4134 
L 525 4134 
L 525 4666 
z
" transform="scale(0.015625)"/>
     </defs>
     <use xlink:href="#DejaVuSans-31"/>
     <use xlink:href="#DejaVuSans-38" x="63.623047"/>
     <use xlink:href="#DejaVuSans-20" x="127.246094"/>
     <use xlink:href="#DejaVuSans-53" x="159.033203"/>
     <use xlink:href="#DejaVuSans-63" x="222.509766"/>
     <use xlink:href="#DejaVuSans-68" x="277.490234"/>
     <use xlink:href="#DejaVuSans-61" x="340.869141"/>
     <use xlink:href="#DejaVuSans-66" x="402.148438"/>
     <use xlink:href="#DejaVuSans-66" x="437.353516"/>
     <use xlink:href="#DejaVuSans-65" x="472.558594"/>
     <use xlink:href="#DejaVuSans-72" x="534.082031"/>
     <use xlink:href="#DejaVuSans-20" x="575.195312"/>
     <use xlink:href="#DejaVuSans-46" x="606.982422"/>
     <use xlink:href="#DejaVuSans-37" x="664.501953"/>
     <use xlink:href="#DejaVuSans-2c" x="728.125"/>
     <use xlink:href="#DejaVuSans-20" x="759.912109"/>
     <use xlink:href="#DejaVuSans-63" x="791.699219"/>
     <use xlink:href="#DejaVuSans-6f" x="846.679688"/>
     <use xlink:href="#DejaVuSans-6e" x="907.861328"/>
     <use xlink:href="#DejaVuSans-64" x="971.240234"/>
     <use xlink:href="#DejaVuSans-69" x="1034.716797"/>
     <use xlink:href="#DejaVuSans-74" x="1062.5"/>
     <use xlink:href="#DejaVuSans-69" x="1101.708984"/>
     <use xlink:href="#DejaVuSans-6f" x="1129.492188"/>
     <use xlink:href="#DejaVuSans-6e" x="1190.673828"/>
     <use xlink:href="#DejaVuSans-20" x="1254.052734"/>
     <use xlink:href="#DejaVuSans-31" x="1285.839844"/>
     <use xlink:href="#DejaVuSans-30" x="1349.462891"/>
     <use xlink:href="#DejaVuSans-30" x="1413.085938"/>
     <use xlink:href="#DejaVuSans-30" x="1476.708984"/>
    </g>
   </g>
  </g>
 </g>
 <defs>
  <clipPath id="p6405a3378b">
   <rect x="57.6" y="27.648" width="303.2064" height="271.296"/>
  </clipPath>
 </defs>
</svg>
