<?xml version="1.0" encoding="utf-8" standalone="no"?>
<!DOCTYPE svg PUBLIC "-//W3C//DTD SVG 1.1//EN"
  "http://www.w3.org/Graphics/SVG/1.1/DTD/svg11.dtd">
<svg xmlns:xlink="http://www.w3.org/1999/xlink" width="460.8pt" height="345.6pt" viewBox="0 0 460.8 345.6" xmlns="http://www.w3.org/2000/svg" version="1.1">
 <metadata>
  <rdf:RDF xmlns:dc="http://purl.org/dc/elements/1.1/" xmlns:cc="http://creativecommons.org/ns#" xmlns:rdf="http://www.w3.org/1999/02/22-rdf-syntax-ns#">
   <cc:Work>
    <dc:type rdf:resource="http://purl.org/dc/dcmitype/StillImage"/>
    <dc:date>2022-03-28T13:36:46.241416</dc:date>
    <dc:format>image/svg+xml</dc:format>
    <dc:creator>
     <cc:Agent>
      <dc:title>Matplotlib v3.5.1, https://matplotlib.org/</dc:title>
     </cc:Agent>
    </dc:creator>
   </cc:Work>
  </rdf:RDF>
 </metadata>
 <defs>
  <style type="text/css">*{stroke-linejoin: round; stroke-linecap: butt}</style>
 </defs>
 <g id="figure_1">
  <g id="patch_1">
   <path d="M 0 345.6 
L 460.8 345.6 
L 460.8 0 
L 0 0 
z
" style="fill: #ffffff"/>
  </g>
  <g id="axes_1">
   <g id="patch_2">
    <path d="M 57.6 298.944 
L 360.8064 298.944 
L 360.8064 27.648 
L 57.6 27.648 
z
" style="fill: #ffffff"/>
   </g>
   <g id="line2d_1">
    <path d="M 127.18073 298.944 
L 127.18073 293.624471 
L 132.162715 293.624471 
L 132.162715 288.304941 
L 135.123679 288.304941 
L 135.123679 282.985412 
L 149.882799 282.985412 
L 149.882799 277.665882 
L 153.036593 277.665882 
L 153.036593 272.346353 
L 154.971412 272.346353 
L 154.971412 267.026824 
L 156.245169 267.026824 
L 156.245169 261.707294 
L 161.896855 261.707294 
L 161.896855 256.387765 
L 162.261043 256.387765 
L 162.261043 251.068235 
L 162.483349 251.068235 
L 162.483349 245.748706 
L 162.660734 245.748706 
L 162.660734 240.429176 
L 162.815462 240.429176 
L 162.815462 235.109647 
L 162.979345 235.109647 
L 162.979345 229.790118 
L 163.090113 229.790118 
L 163.090113 224.470588 
L 163.195086 224.470588 
L 163.195086 219.151059 
L 163.280694 219.151059 
L 163.280694 213.831529 
L 163.40838 213.831529 
L 163.40838 208.512 
L 163.498092 208.512 
L 163.498092 203.192471 
L 163.582336 203.192471 
L 163.582336 197.872941 
L 163.647785 197.872941 
L 163.647785 192.553412 
L 163.707998 192.553412 
L 163.707998 187.233882 
L 163.769684 187.233882 
L 163.769684 181.914353 
L 163.821211 181.914353 
L 163.821211 176.594824 
L 163.879217 176.594824 
L 163.879217 171.275294 
L 163.930446 171.275294 
L 163.930446 165.955765 
L 163.981535 165.955765 
L 163.981535 160.636235 
L 164.030845 160.636235 
L 164.030845 155.316706 
L 164.075113 155.316706 
L 164.075113 149.997176 
L 164.124178 149.997176 
L 164.124178 144.677647 
L 164.169857 144.677647 
L 164.169857 139.358118 
L 164.221926 139.358118 
L 164.221926 134.038588 
L 164.275472 134.038588 
L 164.275472 128.719059 
L 164.311084 128.719059 
L 164.311084 123.399529 
L 164.353085 123.399529 
L 164.353085 118.08 
L 164.388551 118.08 
L 164.388551 112.760471 
L 164.422343 112.760471 
L 164.422343 107.440941 
L 164.465701 107.440941 
L 164.465701 102.121412 
L 164.500955 102.121412 
L 164.500955 96.801882 
L 164.545729 96.801882 
L 164.545729 91.482353 
L 164.580835 91.482353 
L 164.580835 86.162824 
L 164.623829 86.162824 
L 164.623829 80.843294 
L 164.665138 80.843294 
L 164.665138 75.523765 
L 164.709524 75.523765 
L 164.709524 70.204235 
L 164.755384 70.204235 
L 164.755384 64.884706 
L 164.799558 64.884706 
L 164.799558 59.565176 
L 164.848343 59.565176 
L 164.848343 54.245647 
L 164.889163 54.245647 
L 164.889163 48.926118 
L 164.936153 48.926118 
L 164.936153 43.606588 
L 164.976782 43.606588 
L 164.976782 38.287059 
L 165.021997 38.287059 
L 165.021997 32.967529 
L 165.065549 32.967529 
L 165.065549 27.648 
L 360.8064 27.648 
" style="fill: none; stroke: #f5deb3; stroke-width: 4; stroke-linecap: square"/>
   </g>
   <g id="line2d_2">
    <defs>
     <path id="m4dcd8979f1" d="M -0 7.778175 
L 7.778175 0 
L 0 -7.778175 
L -7.778175 -0 
z
" style="stroke: #f5deb3; stroke-width: 1.5; stroke-linejoin: miter"/>
    </defs>
    <g>
     <use xlink:href="#m4dcd8979f1" x="164.030845" y="160.636235" style="fill: #f5deb3; stroke: #f5deb3; stroke-width: 1.5; stroke-linejoin: miter"/>
     <use xlink:href="#m4dcd8979f1" x="165.065549" y="32.967529" style="fill: #f5deb3; stroke: #f5deb3; stroke-width: 1.5; stroke-linejoin: miter"/>
     <use xlink:href="#m4dcd8979f1" x="165.065549" y="27.648" style="fill: #f5deb3; stroke: #f5deb3; stroke-width: 1.5; stroke-linejoin: miter"/>
     <use xlink:href="#m4dcd8979f1" x="165.065549" y="27.648" style="fill: #f5deb3; stroke: #f5deb3; stroke-width: 1.5; stroke-linejoin: miter"/>
     <use xlink:href="#m4dcd8979f1" x="360.8064" y="27.648" style="fill: #f5deb3; stroke: #f5deb3; stroke-width: 1.5; stroke-linejoin: miter"/>
    </g>
   </g>
   <g id="line2d_3">
    <path style="fill: none; stroke: #f5deb3; stroke-width: 4; stroke-linecap: square"/>
    <g/>
   </g>
   <g id="line2d_4">
    <path d="M 360.8064 27.648 
L 380.514816 33.07392 
" style="fill: none; stroke: #f5deb3; stroke-width: 4; stroke-linecap: square"/>
    <g>
     <use xlink:href="#m4dcd8979f1" x="360.8064" y="27.648" style="fill: #f5deb3; stroke: #f5deb3; stroke-width: 1.5; stroke-linejoin: miter"/>
     <use xlink:href="#m4dcd8979f1" x="380.514816" y="33.07392" style="fill: #f5deb3; stroke: #f5deb3; stroke-width: 1.5; stroke-linejoin: miter"/>
    </g>
   </g>
   <g id="matplotlib.axis_1">
    <g id="xtick_1">
     <g id="line2d_5">
      <path d="M 57.6 298.944 
L 57.6 27.648 
" clip-path="url(#p2b6b585f3d)" style="fill: none; stroke: #b0b0b0; stroke-width: 0.8; stroke-linecap: square"/>
     </g>
     <g id="line2d_6">
      <defs>
       <path id="m6a83bd0ff1" d="M 0 0 
L 0 3.5 
" style="stroke: #000000; stroke-width: 0.8"/>
      </defs>
      <g>
       <use xlink:href="#m6a83bd0ff1" x="57.6" y="298.944" style="stroke: #000000; stroke-width: 0.8"/>
      </g>
     </g>
     <g id="text_1">
      <!-- 0 -->
      <g transform="translate(52.191875 318.861344)scale(0.17 -0.17)">
       <defs>
        <path id="DejaVuSans-30" d="M 2034 4250 
Q 1547 4250 1301 3770 
Q 1056 3291 1056 2328 
Q 1056 1369 1301 889 
Q 1547 409 2034 409 
Q 2525 409 2770 889 
Q 3016 1369 3016 2328 
Q 3016 3291 2770 3770 
Q 2525 4250 2034 4250 
z
M 2034 4750 
Q 2819 4750 3233 4129 
Q 3647 3509 3647 2328 
Q 3647 1150 3233 529 
Q 2819 -91 2034 -91 
Q 1250 -91 836 529 
Q 422 1150 422 2328 
Q 422 3509 836 4129 
Q 1250 4750 2034 4750 
z
" transform="scale(0.015625)"/>
       </defs>
       <use xlink:href="#DejaVuSans-30"/>
      </g>
     </g>
    </g>
    <g id="xtick_2">
     <g id="line2d_7">
      <path d="M 144.2304 298.944 
L 144.2304 27.648 
" clip-path="url(#p2b6b585f3d)" style="fill: none; stroke: #b0b0b0; stroke-width: 0.8; stroke-linecap: square"/>
     </g>
     <g id="line2d_8">
      <g>
       <use xlink:href="#m6a83bd0ff1" x="144.2304" y="298.944" style="stroke: #000000; stroke-width: 0.8"/>
      </g>
     </g>
     <g id="text_2">
      <!-- 2 -->
      <g transform="translate(138.822275 318.861344)scale(0.17 -0.17)">
       <defs>
        <path id="DejaVuSans-32" d="M 1228 531 
L 3431 531 
L 3431 0 
L 469 0 
L 469 531 
Q 828 903 1448 1529 
Q 2069 2156 2228 2338 
Q 2531 2678 2651 2914 
Q 2772 3150 2772 3378 
Q 2772 3750 2511 3984 
Q 2250 4219 1831 4219 
Q 1534 4219 1204 4116 
Q 875 4013 500 3803 
L 500 4441 
Q 881 4594 1212 4672 
Q 1544 4750 1819 4750 
Q 2544 4750 2975 4387 
Q 3406 4025 3406 3419 
Q 3406 3131 3298 2873 
Q 3191 2616 2906 2266 
Q 2828 2175 2409 1742 
Q 1991 1309 1228 531 
z
" transform="scale(0.015625)"/>
       </defs>
       <use xlink:href="#DejaVuSans-32"/>
      </g>
     </g>
    </g>
    <g id="xtick_3">
     <g id="line2d_9">
      <path d="M 230.8608 298.944 
L 230.8608 27.648 
" clip-path="url(#p2b6b585f3d)" style="fill: none; stroke: #b0b0b0; stroke-width: 0.8; stroke-linecap: square"/>
     </g>
     <g id="line2d_10">
      <g>
       <use xlink:href="#m6a83bd0ff1" x="230.8608" y="298.944" style="stroke: #000000; stroke-width: 0.8"/>
      </g>
     </g>
     <g id="text_3">
      <!-- 4 -->
      <g transform="translate(225.452675 318.861344)scale(0.17 -0.17)">
       <defs>
        <path id="DejaVuSans-34" d="M 2419 4116 
L 825 1625 
L 2419 1625 
L 2419 4116 
z
M 2253 4666 
L 3047 4666 
L 3047 1625 
L 3713 1625 
L 3713 1100 
L 3047 1100 
L 3047 0 
L 2419 0 
L 2419 1100 
L 313 1100 
L 313 1709 
L 2253 4666 
z
" transform="scale(0.015625)"/>
       </defs>
       <use xlink:href="#DejaVuSans-34"/>
      </g>
     </g>
    </g>
    <g id="xtick_4">
     <g id="line2d_11">
      <path d="M 317.4912 298.944 
L 317.4912 27.648 
" clip-path="url(#p2b6b585f3d)" style="fill: none; stroke: #b0b0b0; stroke-width: 0.8; stroke-linecap: square"/>
     </g>
     <g id="line2d_12">
      <g>
       <use xlink:href="#m6a83bd0ff1" x="317.4912" y="298.944" style="stroke: #000000; stroke-width: 0.8"/>
      </g>
     </g>
     <g id="text_4">
      <!-- 6 -->
      <g transform="translate(312.083075 318.861344)scale(0.17 -0.17)">
       <defs>
        <path id="DejaVuSans-36" d="M 2113 2584 
Q 1688 2584 1439 2293 
Q 1191 2003 1191 1497 
Q 1191 994 1439 701 
Q 1688 409 2113 409 
Q 2538 409 2786 701 
Q 3034 994 3034 1497 
Q 3034 2003 2786 2293 
Q 2538 2584 2113 2584 
z
M 3366 4563 
L 3366 3988 
Q 3128 4100 2886 4159 
Q 2644 4219 2406 4219 
Q 1781 4219 1451 3797 
Q 1122 3375 1075 2522 
Q 1259 2794 1537 2939 
Q 1816 3084 2150 3084 
Q 2853 3084 3261 2657 
Q 3669 2231 3669 1497 
Q 3669 778 3244 343 
Q 2819 -91 2113 -91 
Q 1303 -91 875 529 
Q 447 1150 447 2328 
Q 447 3434 972 4092 
Q 1497 4750 2381 4750 
Q 2619 4750 2861 4703 
Q 3103 4656 3366 4563 
z
" transform="scale(0.015625)"/>
       </defs>
       <use xlink:href="#DejaVuSans-36"/>
      </g>
     </g>
    </g>
    <g id="xtick_5">
     <g id="line2d_13">
      <path d="M 100.9152 298.944 
L 100.9152 27.648 
" clip-path="url(#p2b6b585f3d)" style="fill: none; stroke: #b0b0b0; stroke-width: 0.8; stroke-linecap: square"/>
     </g>
     <g id="line2d_14">
      <defs>
       <path id="med14777936" d="M 0 0 
L 0 2 
" style="stroke: #000000; stroke-width: 0.6"/>
      </defs>
      <g>
       <use xlink:href="#med14777936" x="100.9152" y="298.944" style="stroke: #000000; stroke-width: 0.6"/>
      </g>
     </g>
    </g>
    <g id="xtick_6">
     <g id="line2d_15">
      <path d="M 187.5456 298.944 
L 187.5456 27.648 
" clip-path="url(#p2b6b585f3d)" style="fill: none; stroke: #b0b0b0; stroke-width: 0.8; stroke-linecap: square"/>
     </g>
     <g id="line2d_16">
      <g>
       <use xlink:href="#med14777936" x="187.5456" y="298.944" style="stroke: #000000; stroke-width: 0.6"/>
      </g>
     </g>
    </g>
    <g id="xtick_7">
     <g id="line2d_17">
      <path d="M 274.176 298.944 
L 274.176 27.648 
" clip-path="url(#p2b6b585f3d)" style="fill: none; stroke: #b0b0b0; stroke-width: 0.8; stroke-linecap: square"/>
     </g>
     <g id="line2d_18">
      <g>
       <use xlink:href="#med14777936" x="274.176" y="298.944" style="stroke: #000000; stroke-width: 0.6"/>
      </g>
     </g>
    </g>
    <g id="xtick_8">
     <g id="line2d_19">
      <path d="M 360.8064 298.944 
L 360.8064 27.648 
" clip-path="url(#p2b6b585f3d)" style="fill: none; stroke: #b0b0b0; stroke-width: 0.8; stroke-linecap: square"/>
     </g>
     <g id="line2d_20">
      <g>
       <use xlink:href="#med14777936" x="360.8064" y="298.944" style="stroke: #000000; stroke-width: 0.6"/>
      </g>
     </g>
    </g>
    <g id="text_5">
     <!-- log10(# f-evals / dimension) -->
     <g transform="translate(88.823278 339.314156)scale(0.17 -0.17)">
      <defs>
       <path id="DejaVuSans-6c" d="M 603 4863 
L 1178 4863 
L 1178 0 
L 603 0 
L 603 4863 
z
" transform="scale(0.015625)"/>
       <path id="DejaVuSans-6f" d="M 1959 3097 
Q 1497 3097 1228 2736 
Q 959 2375 959 1747 
Q 959 1119 1226 758 
Q 1494 397 1959 397 
Q 2419 397 2687 759 
Q 2956 1122 2956 1747 
Q 2956 2369 2687 2733 
Q 2419 3097 1959 3097 
z
M 1959 3584 
Q 2709 3584 3137 3096 
Q 3566 2609 3566 1747 
Q 3566 888 3137 398 
Q 2709 -91 1959 -91 
Q 1206 -91 779 398 
Q 353 888 353 1747 
Q 353 2609 779 3096 
Q 1206 3584 1959 3584 
z
" transform="scale(0.015625)"/>
       <path id="DejaVuSans-67" d="M 2906 1791 
Q 2906 2416 2648 2759 
Q 2391 3103 1925 3103 
Q 1463 3103 1205 2759 
Q 947 2416 947 1791 
Q 947 1169 1205 825 
Q 1463 481 1925 481 
Q 2391 481 2648 825 
Q 2906 1169 2906 1791 
z
M 3481 434 
Q 3481 -459 3084 -895 
Q 2688 -1331 1869 -1331 
Q 1566 -1331 1297 -1286 
Q 1028 -1241 775 -1147 
L 775 -588 
Q 1028 -725 1275 -790 
Q 1522 -856 1778 -856 
Q 2344 -856 2625 -561 
Q 2906 -266 2906 331 
L 2906 616 
Q 2728 306 2450 153 
Q 2172 0 1784 0 
Q 1141 0 747 490 
Q 353 981 353 1791 
Q 353 2603 747 3093 
Q 1141 3584 1784 3584 
Q 2172 3584 2450 3431 
Q 2728 3278 2906 2969 
L 2906 3500 
L 3481 3500 
L 3481 434 
z
" transform="scale(0.015625)"/>
       <path id="DejaVuSans-31" d="M 794 531 
L 1825 531 
L 1825 4091 
L 703 3866 
L 703 4441 
L 1819 4666 
L 2450 4666 
L 2450 531 
L 3481 531 
L 3481 0 
L 794 0 
L 794 531 
z
" transform="scale(0.015625)"/>
       <path id="DejaVuSans-28" d="M 1984 4856 
Q 1566 4138 1362 3434 
Q 1159 2731 1159 2009 
Q 1159 1288 1364 580 
Q 1569 -128 1984 -844 
L 1484 -844 
Q 1016 -109 783 600 
Q 550 1309 550 2009 
Q 550 2706 781 3412 
Q 1013 4119 1484 4856 
L 1984 4856 
z
" transform="scale(0.015625)"/>
       <path id="DejaVuSans-23" d="M 3272 2816 
L 2363 2816 
L 2100 1772 
L 3016 1772 
L 3272 2816 
z
M 2803 4594 
L 2478 3297 
L 3391 3297 
L 3719 4594 
L 4219 4594 
L 3897 3297 
L 4872 3297 
L 4872 2816 
L 3775 2816 
L 3519 1772 
L 4513 1772 
L 4513 1294 
L 3397 1294 
L 3072 0 
L 2572 0 
L 2894 1294 
L 1978 1294 
L 1656 0 
L 1153 0 
L 1478 1294 
L 494 1294 
L 494 1772 
L 1594 1772 
L 1856 2816 
L 850 2816 
L 850 3297 
L 1978 3297 
L 2297 4594 
L 2803 4594 
z
" transform="scale(0.015625)"/>
       <path id="DejaVuSans-20" transform="scale(0.015625)"/>
       <path id="DejaVuSans-66" d="M 2375 4863 
L 2375 4384 
L 1825 4384 
Q 1516 4384 1395 4259 
Q 1275 4134 1275 3809 
L 1275 3500 
L 2222 3500 
L 2222 3053 
L 1275 3053 
L 1275 0 
L 697 0 
L 697 3053 
L 147 3053 
L 147 3500 
L 697 3500 
L 697 3744 
Q 697 4328 969 4595 
Q 1241 4863 1831 4863 
L 2375 4863 
z
" transform="scale(0.015625)"/>
       <path id="DejaVuSans-2d" d="M 313 2009 
L 1997 2009 
L 1997 1497 
L 313 1497 
L 313 2009 
z
" transform="scale(0.015625)"/>
       <path id="DejaVuSans-65" d="M 3597 1894 
L 3597 1613 
L 953 1613 
Q 991 1019 1311 708 
Q 1631 397 2203 397 
Q 2534 397 2845 478 
Q 3156 559 3463 722 
L 3463 178 
Q 3153 47 2828 -22 
Q 2503 -91 2169 -91 
Q 1331 -91 842 396 
Q 353 884 353 1716 
Q 353 2575 817 3079 
Q 1281 3584 2069 3584 
Q 2775 3584 3186 3129 
Q 3597 2675 3597 1894 
z
M 3022 2063 
Q 3016 2534 2758 2815 
Q 2500 3097 2075 3097 
Q 1594 3097 1305 2825 
Q 1016 2553 972 2059 
L 3022 2063 
z
" transform="scale(0.015625)"/>
       <path id="DejaVuSans-76" d="M 191 3500 
L 800 3500 
L 1894 563 
L 2988 3500 
L 3597 3500 
L 2284 0 
L 1503 0 
L 191 3500 
z
" transform="scale(0.015625)"/>
       <path id="DejaVuSans-61" d="M 2194 1759 
Q 1497 1759 1228 1600 
Q 959 1441 959 1056 
Q 959 750 1161 570 
Q 1363 391 1709 391 
Q 2188 391 2477 730 
Q 2766 1069 2766 1631 
L 2766 1759 
L 2194 1759 
z
M 3341 1997 
L 3341 0 
L 2766 0 
L 2766 531 
Q 2569 213 2275 61 
Q 1981 -91 1556 -91 
Q 1019 -91 701 211 
Q 384 513 384 1019 
Q 384 1609 779 1909 
Q 1175 2209 1959 2209 
L 2766 2209 
L 2766 2266 
Q 2766 2663 2505 2880 
Q 2244 3097 1772 3097 
Q 1472 3097 1187 3025 
Q 903 2953 641 2809 
L 641 3341 
Q 956 3463 1253 3523 
Q 1550 3584 1831 3584 
Q 2591 3584 2966 3190 
Q 3341 2797 3341 1997 
z
" transform="scale(0.015625)"/>
       <path id="DejaVuSans-73" d="M 2834 3397 
L 2834 2853 
Q 2591 2978 2328 3040 
Q 2066 3103 1784 3103 
Q 1356 3103 1142 2972 
Q 928 2841 928 2578 
Q 928 2378 1081 2264 
Q 1234 2150 1697 2047 
L 1894 2003 
Q 2506 1872 2764 1633 
Q 3022 1394 3022 966 
Q 3022 478 2636 193 
Q 2250 -91 1575 -91 
Q 1294 -91 989 -36 
Q 684 19 347 128 
L 347 722 
Q 666 556 975 473 
Q 1284 391 1588 391 
Q 1994 391 2212 530 
Q 2431 669 2431 922 
Q 2431 1156 2273 1281 
Q 2116 1406 1581 1522 
L 1381 1569 
Q 847 1681 609 1914 
Q 372 2147 372 2553 
Q 372 3047 722 3315 
Q 1072 3584 1716 3584 
Q 2034 3584 2315 3537 
Q 2597 3491 2834 3397 
z
" transform="scale(0.015625)"/>
       <path id="DejaVuSans-2f" d="M 1625 4666 
L 2156 4666 
L 531 -594 
L 0 -594 
L 1625 4666 
z
" transform="scale(0.015625)"/>
       <path id="DejaVuSans-64" d="M 2906 2969 
L 2906 4863 
L 3481 4863 
L 3481 0 
L 2906 0 
L 2906 525 
Q 2725 213 2448 61 
Q 2172 -91 1784 -91 
Q 1150 -91 751 415 
Q 353 922 353 1747 
Q 353 2572 751 3078 
Q 1150 3584 1784 3584 
Q 2172 3584 2448 3432 
Q 2725 3281 2906 2969 
z
M 947 1747 
Q 947 1113 1208 752 
Q 1469 391 1925 391 
Q 2381 391 2643 752 
Q 2906 1113 2906 1747 
Q 2906 2381 2643 2742 
Q 2381 3103 1925 3103 
Q 1469 3103 1208 2742 
Q 947 2381 947 1747 
z
" transform="scale(0.015625)"/>
       <path id="DejaVuSans-69" d="M 603 3500 
L 1178 3500 
L 1178 0 
L 603 0 
L 603 3500 
z
M 603 4863 
L 1178 4863 
L 1178 4134 
L 603 4134 
L 603 4863 
z
" transform="scale(0.015625)"/>
       <path id="DejaVuSans-6d" d="M 3328 2828 
Q 3544 3216 3844 3400 
Q 4144 3584 4550 3584 
Q 5097 3584 5394 3201 
Q 5691 2819 5691 2113 
L 5691 0 
L 5113 0 
L 5113 2094 
Q 5113 2597 4934 2840 
Q 4756 3084 4391 3084 
Q 3944 3084 3684 2787 
Q 3425 2491 3425 1978 
L 3425 0 
L 2847 0 
L 2847 2094 
Q 2847 2600 2669 2842 
Q 2491 3084 2119 3084 
Q 1678 3084 1418 2786 
Q 1159 2488 1159 1978 
L 1159 0 
L 581 0 
L 581 3500 
L 1159 3500 
L 1159 2956 
Q 1356 3278 1631 3431 
Q 1906 3584 2284 3584 
Q 2666 3584 2933 3390 
Q 3200 3197 3328 2828 
z
" transform="scale(0.015625)"/>
       <path id="DejaVuSans-6e" d="M 3513 2113 
L 3513 0 
L 2938 0 
L 2938 2094 
Q 2938 2591 2744 2837 
Q 2550 3084 2163 3084 
Q 1697 3084 1428 2787 
Q 1159 2491 1159 1978 
L 1159 0 
L 581 0 
L 581 3500 
L 1159 3500 
L 1159 2956 
Q 1366 3272 1645 3428 
Q 1925 3584 2291 3584 
Q 2894 3584 3203 3211 
Q 3513 2838 3513 2113 
z
" transform="scale(0.015625)"/>
       <path id="DejaVuSans-29" d="M 513 4856 
L 1013 4856 
Q 1481 4119 1714 3412 
Q 1947 2706 1947 2009 
Q 1947 1309 1714 600 
Q 1481 -109 1013 -844 
L 513 -844 
Q 928 -128 1133 580 
Q 1338 1288 1338 2009 
Q 1338 2731 1133 3434 
Q 928 4138 513 4856 
z
" transform="scale(0.015625)"/>
      </defs>
      <use xlink:href="#DejaVuSans-6c"/>
      <use xlink:href="#DejaVuSans-6f" x="27.783203"/>
      <use xlink:href="#DejaVuSans-67" x="88.964844"/>
      <use xlink:href="#DejaVuSans-31" x="152.441406"/>
      <use xlink:href="#DejaVuSans-30" x="216.064453"/>
      <use xlink:href="#DejaVuSans-28" x="279.6875"/>
      <use xlink:href="#DejaVuSans-23" x="318.701172"/>
      <use xlink:href="#DejaVuSans-20" x="402.490234"/>
      <use xlink:href="#DejaVuSans-66" x="434.277344"/>
      <use xlink:href="#DejaVuSans-2d" x="463.982422"/>
      <use xlink:href="#DejaVuSans-65" x="500.066406"/>
      <use xlink:href="#DejaVuSans-76" x="561.589844"/>
      <use xlink:href="#DejaVuSans-61" x="620.769531"/>
      <use xlink:href="#DejaVuSans-6c" x="682.048828"/>
      <use xlink:href="#DejaVuSans-73" x="709.832031"/>
      <use xlink:href="#DejaVuSans-20" x="761.931641"/>
      <use xlink:href="#DejaVuSans-2f" x="793.71875"/>
      <use xlink:href="#DejaVuSans-20" x="827.410156"/>
      <use xlink:href="#DejaVuSans-64" x="859.197266"/>
      <use xlink:href="#DejaVuSans-69" x="922.673828"/>
      <use xlink:href="#DejaVuSans-6d" x="950.457031"/>
      <use xlink:href="#DejaVuSans-65" x="1047.869141"/>
      <use xlink:href="#DejaVuSans-6e" x="1109.392578"/>
      <use xlink:href="#DejaVuSans-73" x="1172.771484"/>
      <use xlink:href="#DejaVuSans-69" x="1224.871094"/>
      <use xlink:href="#DejaVuSans-6f" x="1252.654297"/>
      <use xlink:href="#DejaVuSans-6e" x="1313.835938"/>
      <use xlink:href="#DejaVuSans-29" x="1377.214844"/>
     </g>
    </g>
   </g>
   <g id="matplotlib.axis_2">
    <g id="ytick_1">
     <g id="line2d_21">
      <path d="M 57.6 298.944 
L 360.8064 298.944 
" clip-path="url(#p2b6b585f3d)" style="fill: none; stroke: #b0b0b0; stroke-width: 0.8; stroke-linecap: square"/>
     </g>
     <g id="line2d_22">
      <defs>
       <path id="meb483fb892" d="M 0 0 
L -3.5 0 
" style="stroke: #000000; stroke-width: 0.8"/>
      </defs>
      <g>
       <use xlink:href="#meb483fb892" x="57.6" y="298.944" style="stroke: #000000; stroke-width: 0.8"/>
      </g>
     </g>
     <g id="text_6">
      <!-- 0.0 -->
      <g transform="translate(25.155 305.02275)scale(0.16 -0.16)">
       <defs>
        <path id="DejaVuSans-2e" d="M 684 794 
L 1344 794 
L 1344 0 
L 684 0 
L 684 794 
z
" transform="scale(0.015625)"/>
       </defs>
       <use xlink:href="#DejaVuSans-30"/>
       <use xlink:href="#DejaVuSans-2e" x="63.623047"/>
       <use xlink:href="#DejaVuSans-30" x="95.410156"/>
      </g>
     </g>
    </g>
    <g id="ytick_2">
     <g id="line2d_23">
      <path d="M 57.6 244.6848 
L 360.8064 244.6848 
" clip-path="url(#p2b6b585f3d)" style="fill: none; stroke: #b0b0b0; stroke-width: 0.8; stroke-linecap: square"/>
     </g>
     <g id="line2d_24">
      <g>
       <use xlink:href="#meb483fb892" x="57.6" y="244.6848" style="stroke: #000000; stroke-width: 0.8"/>
      </g>
     </g>
     <g id="text_7">
      <!-- 0.2 -->
      <g transform="translate(25.155 250.76355)scale(0.16 -0.16)">
       <use xlink:href="#DejaVuSans-30"/>
       <use xlink:href="#DejaVuSans-2e" x="63.623047"/>
       <use xlink:href="#DejaVuSans-32" x="95.410156"/>
      </g>
     </g>
    </g>
    <g id="ytick_3">
     <g id="line2d_25">
      <path d="M 57.6 190.4256 
L 360.8064 190.4256 
" clip-path="url(#p2b6b585f3d)" style="fill: none; stroke: #b0b0b0; stroke-width: 0.8; stroke-linecap: square"/>
     </g>
     <g id="line2d_26">
      <g>
       <use xlink:href="#meb483fb892" x="57.6" y="190.4256" style="stroke: #000000; stroke-width: 0.8"/>
      </g>
     </g>
     <g id="text_8">
      <!-- 0.4 -->
      <g transform="translate(25.155 196.50435)scale(0.16 -0.16)">
       <use xlink:href="#DejaVuSans-30"/>
       <use xlink:href="#DejaVuSans-2e" x="63.623047"/>
       <use xlink:href="#DejaVuSans-34" x="95.410156"/>
      </g>
     </g>
    </g>
    <g id="ytick_4">
     <g id="line2d_27">
      <path d="M 57.6 136.1664 
L 360.8064 136.1664 
" clip-path="url(#p2b6b585f3d)" style="fill: none; stroke: #b0b0b0; stroke-width: 0.8; stroke-linecap: square"/>
     </g>
     <g id="line2d_28">
      <g>
       <use xlink:href="#meb483fb892" x="57.6" y="136.1664" style="stroke: #000000; stroke-width: 0.8"/>
      </g>
     </g>
     <g id="text_9">
      <!-- 0.6 -->
      <g transform="translate(25.155 142.24515)scale(0.16 -0.16)">
       <use xlink:href="#DejaVuSans-30"/>
       <use xlink:href="#DejaVuSans-2e" x="63.623047"/>
       <use xlink:href="#DejaVuSans-36" x="95.410156"/>
      </g>
     </g>
    </g>
    <g id="ytick_5">
     <g id="line2d_29">
      <path d="M 57.6 81.9072 
L 360.8064 81.9072 
" clip-path="url(#p2b6b585f3d)" style="fill: none; stroke: #b0b0b0; stroke-width: 0.8; stroke-linecap: square"/>
     </g>
     <g id="line2d_30">
      <g>
       <use xlink:href="#meb483fb892" x="57.6" y="81.9072" style="stroke: #000000; stroke-width: 0.8"/>
      </g>
     </g>
     <g id="text_10">
      <!-- 0.8 -->
      <g transform="translate(25.155 87.98595)scale(0.16 -0.16)">
       <defs>
        <path id="DejaVuSans-38" d="M 2034 2216 
Q 1584 2216 1326 1975 
Q 1069 1734 1069 1313 
Q 1069 891 1326 650 
Q 1584 409 2034 409 
Q 2484 409 2743 651 
Q 3003 894 3003 1313 
Q 3003 1734 2745 1975 
Q 2488 2216 2034 2216 
z
M 1403 2484 
Q 997 2584 770 2862 
Q 544 3141 544 3541 
Q 544 4100 942 4425 
Q 1341 4750 2034 4750 
Q 2731 4750 3128 4425 
Q 3525 4100 3525 3541 
Q 3525 3141 3298 2862 
Q 3072 2584 2669 2484 
Q 3125 2378 3379 2068 
Q 3634 1759 3634 1313 
Q 3634 634 3220 271 
Q 2806 -91 2034 -91 
Q 1263 -91 848 271 
Q 434 634 434 1313 
Q 434 1759 690 2068 
Q 947 2378 1403 2484 
z
M 1172 3481 
Q 1172 3119 1398 2916 
Q 1625 2713 2034 2713 
Q 2441 2713 2670 2916 
Q 2900 3119 2900 3481 
Q 2900 3844 2670 4047 
Q 2441 4250 2034 4250 
Q 1625 4250 1398 4047 
Q 1172 3844 1172 3481 
z
" transform="scale(0.015625)"/>
       </defs>
       <use xlink:href="#DejaVuSans-30"/>
       <use xlink:href="#DejaVuSans-2e" x="63.623047"/>
       <use xlink:href="#DejaVuSans-38" x="95.410156"/>
      </g>
     </g>
    </g>
    <g id="ytick_6">
     <g id="line2d_31">
      <path d="M 57.6 27.648 
L 360.8064 27.648 
" clip-path="url(#p2b6b585f3d)" style="fill: none; stroke: #b0b0b0; stroke-width: 0.8; stroke-linecap: square"/>
     </g>
     <g id="line2d_32">
      <g>
       <use xlink:href="#meb483fb892" x="57.6" y="27.648" style="stroke: #000000; stroke-width: 0.8"/>
      </g>
     </g>
     <g id="text_11">
      <!-- 1.0 -->
      <g transform="translate(25.155 33.72675)scale(0.16 -0.16)">
       <use xlink:href="#DejaVuSans-31"/>
       <use xlink:href="#DejaVuSans-2e" x="63.623047"/>
       <use xlink:href="#DejaVuSans-30" x="95.410156"/>
      </g>
     </g>
    </g>
    <g id="text_12">
     <!-- Fraction of function,target pairs -->
     <g transform="translate(17.619531 297.681)rotate(-90)scale(0.17 -0.17)">
      <defs>
       <path id="DejaVuSans-46" d="M 628 4666 
L 3309 4666 
L 3309 4134 
L 1259 4134 
L 1259 2759 
L 3109 2759 
L 3109 2228 
L 1259 2228 
L 1259 0 
L 628 0 
L 628 4666 
z
" transform="scale(0.015625)"/>
       <path id="DejaVuSans-72" d="M 2631 2963 
Q 2534 3019 2420 3045 
Q 2306 3072 2169 3072 
Q 1681 3072 1420 2755 
Q 1159 2438 1159 1844 
L 1159 0 
L 581 0 
L 581 3500 
L 1159 3500 
L 1159 2956 
Q 1341 3275 1631 3429 
Q 1922 3584 2338 3584 
Q 2397 3584 2469 3576 
Q 2541 3569 2628 3553 
L 2631 2963 
z
" transform="scale(0.015625)"/>
       <path id="DejaVuSans-63" d="M 3122 3366 
L 3122 2828 
Q 2878 2963 2633 3030 
Q 2388 3097 2138 3097 
Q 1578 3097 1268 2742 
Q 959 2388 959 1747 
Q 959 1106 1268 751 
Q 1578 397 2138 397 
Q 2388 397 2633 464 
Q 2878 531 3122 666 
L 3122 134 
Q 2881 22 2623 -34 
Q 2366 -91 2075 -91 
Q 1284 -91 818 406 
Q 353 903 353 1747 
Q 353 2603 823 3093 
Q 1294 3584 2113 3584 
Q 2378 3584 2631 3529 
Q 2884 3475 3122 3366 
z
" transform="scale(0.015625)"/>
       <path id="DejaVuSans-74" d="M 1172 4494 
L 1172 3500 
L 2356 3500 
L 2356 3053 
L 1172 3053 
L 1172 1153 
Q 1172 725 1289 603 
Q 1406 481 1766 481 
L 2356 481 
L 2356 0 
L 1766 0 
Q 1100 0 847 248 
Q 594 497 594 1153 
L 594 3053 
L 172 3053 
L 172 3500 
L 594 3500 
L 594 4494 
L 1172 4494 
z
" transform="scale(0.015625)"/>
       <path id="DejaVuSans-75" d="M 544 1381 
L 544 3500 
L 1119 3500 
L 1119 1403 
Q 1119 906 1312 657 
Q 1506 409 1894 409 
Q 2359 409 2629 706 
Q 2900 1003 2900 1516 
L 2900 3500 
L 3475 3500 
L 3475 0 
L 2900 0 
L 2900 538 
Q 2691 219 2414 64 
Q 2138 -91 1772 -91 
Q 1169 -91 856 284 
Q 544 659 544 1381 
z
M 1991 3584 
L 1991 3584 
z
" transform="scale(0.015625)"/>
       <path id="DejaVuSans-2c" d="M 750 794 
L 1409 794 
L 1409 256 
L 897 -744 
L 494 -744 
L 750 256 
L 750 794 
z
" transform="scale(0.015625)"/>
       <path id="DejaVuSans-70" d="M 1159 525 
L 1159 -1331 
L 581 -1331 
L 581 3500 
L 1159 3500 
L 1159 2969 
Q 1341 3281 1617 3432 
Q 1894 3584 2278 3584 
Q 2916 3584 3314 3078 
Q 3713 2572 3713 1747 
Q 3713 922 3314 415 
Q 2916 -91 2278 -91 
Q 1894 -91 1617 61 
Q 1341 213 1159 525 
z
M 3116 1747 
Q 3116 2381 2855 2742 
Q 2594 3103 2138 3103 
Q 1681 3103 1420 2742 
Q 1159 2381 1159 1747 
Q 1159 1113 1420 752 
Q 1681 391 2138 391 
Q 2594 391 2855 752 
Q 3116 1113 3116 1747 
z
" transform="scale(0.015625)"/>
      </defs>
      <use xlink:href="#DejaVuSans-46"/>
      <use xlink:href="#DejaVuSans-72" x="50.269531"/>
      <use xlink:href="#DejaVuSans-61" x="91.382812"/>
      <use xlink:href="#DejaVuSans-63" x="152.662109"/>
      <use xlink:href="#DejaVuSans-74" x="207.642578"/>
      <use xlink:href="#DejaVuSans-69" x="246.851562"/>
      <use xlink:href="#DejaVuSans-6f" x="274.634766"/>
      <use xlink:href="#DejaVuSans-6e" x="335.816406"/>
      <use xlink:href="#DejaVuSans-20" x="399.195312"/>
      <use xlink:href="#DejaVuSans-6f" x="430.982422"/>
      <use xlink:href="#DejaVuSans-66" x="492.164062"/>
      <use xlink:href="#DejaVuSans-20" x="527.369141"/>
      <use xlink:href="#DejaVuSans-66" x="559.15625"/>
      <use xlink:href="#DejaVuSans-75" x="594.361328"/>
      <use xlink:href="#DejaVuSans-6e" x="657.740234"/>
      <use xlink:href="#DejaVuSans-63" x="721.119141"/>
      <use xlink:href="#DejaVuSans-74" x="776.099609"/>
      <use xlink:href="#DejaVuSans-69" x="815.308594"/>
      <use xlink:href="#DejaVuSans-6f" x="843.091797"/>
      <use xlink:href="#DejaVuSans-6e" x="904.273438"/>
      <use xlink:href="#DejaVuSans-2c" x="967.652344"/>
      <use xlink:href="#DejaVuSans-74" x="999.439453"/>
      <use xlink:href="#DejaVuSans-61" x="1038.648438"/>
      <use xlink:href="#DejaVuSans-72" x="1099.927734"/>
      <use xlink:href="#DejaVuSans-67" x="1139.291016"/>
      <use xlink:href="#DejaVuSans-65" x="1202.767578"/>
      <use xlink:href="#DejaVuSans-74" x="1264.291016"/>
      <use xlink:href="#DejaVuSans-20" x="1303.5"/>
      <use xlink:href="#DejaVuSans-70" x="1335.287109"/>
      <use xlink:href="#DejaVuSans-61" x="1398.763672"/>
      <use xlink:href="#DejaVuSans-69" x="1460.042969"/>
      <use xlink:href="#DejaVuSans-72" x="1487.826172"/>
      <use xlink:href="#DejaVuSans-73" x="1528.939453"/>
     </g>
    </g>
   </g>
   <g id="line2d_33">
    <defs>
     <path id="m3ed4b52ed4" d="M 0 1.5 
C 0.397805 1.5 0.77937 1.341951 1.06066 1.06066 
C 1.341951 0.77937 1.5 0.397805 1.5 0 
C 1.5 -0.397805 1.341951 -0.77937 1.06066 -1.06066 
C 0.77937 -1.341951 0.397805 -1.5 0 -1.5 
C -0.397805 -1.5 -0.77937 -1.341951 -1.06066 -1.06066 
C -1.341951 -0.77937 -1.5 -0.397805 -1.5 0 
C -1.5 0.397805 -1.341951 0.77937 -1.06066 1.06066 
C -0.77937 1.341951 -0.397805 1.5 0 1.5 
z
" style="stroke: #f5deb3"/>
    </defs>
    <g>
     <use xlink:href="#m3ed4b52ed4" x="165.065549" y="27.648" style="fill: #f5deb3; stroke: #f5deb3"/>
     <use xlink:href="#m3ed4b52ed4" x="165.065549" y="27.648" style="fill: #f5deb3; stroke: #f5deb3"/>
    </g>
   </g>
   <g id="line2d_34">
    <defs>
     <path id="m561be1a472" d="M 0 1.5 
C 0.397805 1.5 0.77937 1.341951 1.06066 1.06066 
C 1.341951 0.77937 1.5 0.397805 1.5 0 
C 1.5 -0.397805 1.341951 -0.77937 1.06066 -1.06066 
C 0.77937 -1.341951 0.397805 -1.5 0 -1.5 
C -0.397805 -1.5 -0.77937 -1.341951 -1.06066 -1.06066 
C -1.341951 -0.77937 -1.5 -0.397805 -1.5 0 
C -1.5 0.397805 -1.341951 0.77937 -1.06066 1.06066 
C -0.77937 1.341951 -0.397805 1.5 0 1.5 
z
" style="stroke: #000080"/>
    </defs>
    <g>
     <use xlink:href="#m561be1a472" x="209.724875" y="27.648" style="fill: #000080; stroke: #000080"/>
     <use xlink:href="#m561be1a472" x="209.724875" y="27.648" style="fill: #000080; stroke: #000080"/>
    </g>
   </g>
   <g id="line2d_35">
    <path d="M 125.283908 298.944 
L 125.283908 298.589365 
L 125.615735 298.589365 
L 125.615735 298.234729 
L 125.94181 298.234729 
L 125.94181 297.880094 
L 126.102752 297.880094 
L 126.102752 297.525459 
L 126.335526 297.525459 
L 126.335526 297.170824 
L 126.613505 297.170824 
L 126.613505 296.816188 
L 127.787792 296.816188 
L 127.844063 296.106918 
L 127.978432 296.106918 
L 127.978432 295.752282 
L 128.122923 295.752282 
L 128.16716 295.043012 
L 128.77579 295.043012 
L 128.797167 294.333741 
L 128.935527 294.333741 
L 128.935527 293.979106 
L 129.479009 293.979106 
L 129.479009 293.624471 
L 129.591992 293.624471 
L 129.591992 293.269835 
L 129.78556 293.269835 
L 129.815942 292.560565 
L 130.4233 292.560565 
L 130.4233 292.205929 
L 131.049607 292.205929 
L 131.049607 291.851294 
L 131.322448 291.851294 
L 131.322448 291.496659 
L 131.756402 291.496659 
L 131.756402 291.142024 
L 131.99223 291.142024 
L 131.99223 290.787388 
L 133.540205 290.787388 
L 133.647818 290.078118 
L 133.820365 290.078118 
L 133.820365 289.723482 
L 134.104471 289.723482 
L 134.104471 289.368847 
L 134.652304 289.368847 
L 134.652304 289.014212 
L 134.87014 289.014212 
L 134.87014 288.304941 
L 135.576083 288.304941 
L 135.672686 287.595671 
L 136.435274 287.595671 
L 136.435274 287.241035 
L 136.696795 287.241035 
L 136.696795 286.8864 
L 137.358854 286.8864 
L 137.358854 286.531765 
L 137.893309 286.531765 
L 137.893309 286.177129 
L 141.680806 286.177129 
L 141.680806 285.822494 
L 146.248572 285.822494 
L 146.248572 285.467859 
L 149.122418 285.467859 
L 149.122418 285.113224 
L 153.104202 285.113224 
L 153.104202 284.758588 
L 157.630562 284.758588 
L 157.630562 284.403953 
L 159.497793 284.403953 
L 159.497793 284.049318 
L 160.713038 284.049318 
L 160.713038 283.694682 
L 171.176112 283.694682 
L 171.176112 283.340047 
L 171.685611 283.340047 
L 171.685611 282.985412 
L 172.267686 282.985412 
L 172.267686 282.630776 
L 172.479438 282.630776 
L 172.479438 282.276141 
L 172.814802 282.276141 
L 172.814802 281.921506 
L 172.976698 281.921506 
L 172.976698 281.566871 
L 173.337449 281.566871 
L 173.337449 281.212235 
L 174.37144 281.212235 
L 174.39227 280.502965 
L 174.806879 280.502965 
L 174.806879 280.148329 
L 175.014927 280.148329 
L 175.014927 279.793694 
L 175.601667 279.793694 
L 175.601667 279.439059 
L 178.331734 279.439059 
L 178.331734 279.084424 
L 180.218626 279.084424 
L 180.218626 278.729788 
L 182.110638 278.729788 
L 182.215819 278.020518 
L 182.436159 278.020518 
L 182.436159 277.665882 
L 182.689292 277.665882 
L 182.689292 277.311247 
L 182.806426 277.311247 
L 182.874068 276.601976 
L 182.920431 276.601976 
L 183.00204 275.538071 
L 183.238262 275.538071 
L 183.291994 274.8288 
L 183.443502 274.8288 
L 183.52113 274.119529 
L 183.569995 274.119529 
L 183.677167 273.410259 
L 183.783157 273.410259 
L 183.783157 273.055624 
L 183.949574 273.055624 
L 184.038751 272.346353 
L 184.089682 272.346353 
L 184.128072 271.637082 
L 184.213602 271.637082 
L 184.216409 270.927812 
L 184.392405 270.927812 
L 184.476191 270.218541 
L 184.559054 270.218541 
L 184.559054 269.863906 
L 184.748811 269.863906 
L 184.767354 269.154635 
L 185.221381 269.154635 
L 185.221381 268.8 
L 186.494856 268.8 
L 186.494856 268.445365 
L 186.671561 268.445365 
L 186.751203 267.736094 
L 186.886116 267.736094 
L 186.983763 266.672188 
L 186.999746 266.672188 
L 187.064026 265.608282 
L 187.151634 265.608282 
L 187.237401 264.899012 
L 187.285623 264.899012 
L 187.325159 263.835106 
L 187.41393 263.835106 
L 187.499927 262.7712 
L 187.537133 262.7712 
L 187.607107 262.061929 
L 187.660937 262.061929 
L 187.770924 260.288753 
L 187.837721 260.288753 
L 187.901512 259.224847 
L 187.951286 259.224847 
L 188.01607 258.515576 
L 188.081089 258.515576 
L 188.17456 257.451671 
L 188.236768 257.451671 
L 188.334883 256.387765 
L 188.404204 256.387765 
L 188.471927 255.678494 
L 188.565262 255.678494 
L 188.640398 253.905318 
L 188.693566 253.905318 
L 188.794615 252.486776 
L 188.824956 252.486776 
L 188.921369 251.777506 
L 189.217579 251.777506 
L 189.217579 251.422871 
L 189.481214 251.422871 
L 189.481214 251.068235 
L 189.703504 251.068235 
L 189.7617 250.358965 
L 189.851361 250.358965 
L 189.887522 249.649694 
L 190.199668 249.649694 
L 190.199668 249.295059 
L 190.5272 249.295059 
L 190.55848 248.585788 
L 190.685071 248.585788 
L 190.719666 247.876518 
L 190.868055 247.876518 
L 190.972608 246.812612 
L 191.039515 246.812612 
L 191.078921 245.748706 
L 191.249251 245.748706 
L 191.272411 245.039435 
L 191.426471 245.039435 
L 191.444063 244.330165 
L 191.575104 244.330165 
L 191.575104 243.975529 
L 191.780111 243.975529 
L 191.838972 243.266259 
L 191.91406 243.266259 
L 191.987736 242.202353 
L 192.040398 242.202353 
L 192.129806 240.783812 
L 192.15338 240.783812 
L 192.247383 240.074541 
L 192.273371 240.074541 
L 192.312469 239.365271 
L 192.391148 239.365271 
L 192.453203 237.946729 
L 192.507108 237.946729 
L 192.59505 237.237459 
L 192.71691 237.237459 
L 192.809212 234.755012 
L 192.85076 234.755012 
L 192.916622 233.691106 
L 193.022369 233.691106 
L 193.123679 231.917929 
L 193.166981 231.917929 
L 193.272374 230.499388 
L 193.28139 230.499388 
L 193.313605 228.371576 
L 193.404754 228.371576 
L 193.509854 225.889129 
L 193.550569 225.889129 
L 193.656219 223.406682 
L 193.66811 223.406682 
L 193.757562 221.633506 
L 193.817635 221.633506 
L 193.923811 218.441788 
L 193.935199 218.441788 
L 194.03572 215.604706 
L 194.063011 215.604706 
L 194.148292 212.412988 
L 194.177404 212.412988 
L 194.262497 208.512 
L 194.305229 208.512 
L 194.41294 203.547106 
L 194.424688 203.547106 
L 194.523932 197.872941 
L 194.538206 197.872941 
L 194.649109 192.198776 
L 194.655878 192.198776 
L 194.766411 186.169976 
L 194.774739 186.169976 
L 194.881076 179.077271 
L 194.8954 179.077271 
L 195.005172 170.920659 
L 195.010233 170.920659 
L 195.114936 162.054776 
L 195.122168 162.054776 
L 195.225002 153.898165 
L 195.234067 153.898165 
L 195.342507 143.259106 
L 195.347167 143.259106 
L 195.449708 134.393224 
L 195.461136 134.393224 
L 195.570734 124.818071 
L 195.575338 124.818071 
L 195.685801 113.115106 
L 195.688547 113.115106 
L 195.798349 103.894588 
L 195.802595 103.894588 
L 195.90872 95.028706 
L 195.916558 95.028706 
L 196.018447 87.581365 
L 196.033728 87.581365 
L 196.137668 80.488659 
L 196.159994 80.488659 
L 196.265015 73.750588 
L 196.275367 73.750588 
L 196.366217 68.785694 
L 196.390625 68.785694 
L 196.499046 62.402259 
L 196.502259 62.402259 
L 196.601906 57.792 
L 196.615849 57.792 
L 196.695823 54.600282 
L 196.744049 54.600282 
L 196.808541 53.536376 
L 196.857052 53.536376 
L 196.917158 52.827106 
L 196.978213 52.827106 
L 197.080192 51.7632 
L 197.10454 51.7632 
L 197.21006 50.699294 
L 197.270734 50.699294 
L 197.360541 49.280753 
L 197.383693 49.280753 
L 197.485999 47.862212 
L 197.535285 47.862212 
L 197.638148 46.443671 
L 197.658489 46.443671 
L 197.735801 45.379765 
L 197.794532 45.379765 
L 197.903042 43.606588 
L 197.917951 43.606588 
L 197.917951 43.251953 
L 207.660215 43.251953 
L 207.660215 42.897318 
L 207.941574 42.897318 
L 207.941574 42.542682 
L 208.150808 42.542682 
L 208.150808 42.188047 
L 208.289797 42.188047 
L 208.289797 41.833412 
L 208.437372 41.833412 
L 208.534859 41.124141 
L 208.643951 41.124141 
L 208.722993 40.414871 
L 208.763531 40.414871 
L 208.855711 39.350965 
L 208.892185 39.350965 
L 208.971247 38.287059 
L 209.016812 38.287059 
L 209.110304 36.513882 
L 209.153894 36.513882 
L 209.245966 34.740706 
L 209.315281 34.740706 
L 209.41157 32.612894 
L 209.437585 32.612894 
L 209.533398 30.839718 
L 209.552532 30.839718 
L 209.652845 28.711906 
L 209.669972 28.711906 
L 209.724875 27.648 
L 360.8064 27.648 
L 360.8064 27.648 
" style="fill: none; stroke: #000080; stroke-width: 1.5; stroke-linecap: square"/>
   </g>
   <g id="line2d_36">
    <defs>
     <path id="m89e2723923" d="M 0 6 
C 1.591219 6 3.117479 5.367802 4.242641 4.242641 
C 5.367802 3.117479 6 1.591219 6 0 
C 6 -1.591219 5.367802 -3.117479 4.242641 -4.242641 
C 3.117479 -5.367802 1.591219 -6 0 -6 
C -1.591219 -6 -3.117479 -5.367802 -4.242641 -4.242641 
C -5.367802 -3.117479 -6 -1.591219 -6 0 
C -6 1.591219 -5.367802 3.117479 -4.242641 4.242641 
C -3.117479 5.367802 -1.591219 6 0 6 
z
" style="stroke: #000080; stroke-width: 1.5"/>
    </defs>
    <g>
     <use xlink:href="#m89e2723923" x="193.923811" y="218.441788" style="fill-opacity: 0; stroke: #000080; stroke-width: 1.5"/>
     <use xlink:href="#m89e2723923" x="209.724875" y="28.002635" style="fill-opacity: 0; stroke: #000080; stroke-width: 1.5"/>
     <use xlink:href="#m89e2723923" x="209.724875" y="27.648" style="fill-opacity: 0; stroke: #000080; stroke-width: 1.5"/>
     <use xlink:href="#m89e2723923" x="209.724875" y="27.648" style="fill-opacity: 0; stroke: #000080; stroke-width: 1.5"/>
     <use xlink:href="#m89e2723923" x="360.8064" y="27.648" style="fill-opacity: 0; stroke: #000080; stroke-width: 1.5"/>
    </g>
   </g>
   <g id="line2d_37">
    <path style="fill: none; stroke: #000080; stroke-width: 1.5; stroke-linecap: square"/>
    <g/>
   </g>
   <g id="line2d_38">
    <defs>
     <path id="m76c61c31a9" d="M 0 1.5 
C 0.397805 1.5 0.77937 1.341951 1.06066 1.06066 
C 1.341951 0.77937 1.5 0.397805 1.5 0 
C 1.5 -0.397805 1.341951 -0.77937 1.06066 -1.06066 
C 0.77937 -1.341951 0.397805 -1.5 0 -1.5 
C -0.397805 -1.5 -0.77937 -1.341951 -1.06066 -1.06066 
C -1.341951 -0.77937 -1.5 -0.397805 -1.5 0 
C -1.5 0.397805 -1.341951 0.77937 -1.06066 1.06066 
C -0.77937 1.341951 -0.397805 1.5 0 1.5 
z
" style="stroke: #ff00ff"/>
    </defs>
    <g>
     <use xlink:href="#m76c61c31a9" x="207.51843" y="27.648" style="fill: #ff00ff; stroke: #ff00ff"/>
     <use xlink:href="#m76c61c31a9" x="207.51843" y="27.648" style="fill: #ff00ff; stroke: #ff00ff"/>
    </g>
   </g>
   <g id="line2d_39">
    <path d="M 123.755634 298.944 
L 123.755634 298.589365 
L 124.019125 298.589365 
L 124.019125 298.234729 
L 124.906754 298.234729 
L 124.906754 297.880094 
L 125.501533 297.880094 
L 125.501533 297.525459 
L 126.065734 297.525459 
L 126.065734 297.170824 
L 126.311159 297.170824 
L 126.384166 296.461553 
L 126.432681 296.461553 
L 126.432681 296.106918 
L 126.733095 296.106918 
L 126.733095 295.752282 
L 126.934671 295.752282 
L 126.934671 295.397647 
L 127.06396 295.397647 
L 127.06396 295.043012 
L 128.39771 295.043012 
L 128.50651 294.333741 
L 128.636246 294.333741 
L 128.636246 293.979106 
L 129.188317 293.979106 
L 129.188317 293.624471 
L 129.448078 293.624471 
L 129.468704 292.9152 
L 131.471303 292.9152 
L 131.545292 292.205929 
L 132.446401 292.205929 
L 132.446401 291.851294 
L 132.812362 291.851294 
L 132.812362 291.496659 
L 133.415266 291.496659 
L 133.415266 291.142024 
L 133.738397 291.142024 
L 133.74661 290.432753 
L 134.22493 290.432753 
L 134.22493 290.078118 
L 134.526683 290.078118 
L 134.526683 289.723482 
L 134.962732 289.723482 
L 134.962732 289.368847 
L 135.313505 289.368847 
L 135.418977 288.659576 
L 136.054213 288.659576 
L 136.054213 288.304941 
L 136.392521 288.304941 
L 136.392521 287.950306 
L 139.018248 287.950306 
L 139.018248 287.595671 
L 139.670666 287.595671 
L 139.670666 287.241035 
L 139.855533 287.241035 
L 139.855533 286.8864 
L 141.496802 286.8864 
L 141.523975 286.177129 
L 142.059343 286.177129 
L 142.059343 285.822494 
L 143.121381 285.822494 
L 143.121381 285.467859 
L 145.219746 285.467859 
L 145.219746 285.113224 
L 147.131557 285.113224 
L 147.131557 284.758588 
L 147.831805 284.758588 
L 147.831805 284.403953 
L 158.935959 284.403953 
L 158.935959 284.049318 
L 165.793908 284.049318 
L 165.793908 283.694682 
L 166.56267 283.694682 
L 166.56267 283.340047 
L 168.208813 283.340047 
L 168.208813 282.985412 
L 168.325448 282.985412 
L 168.325448 282.630776 
L 168.892945 282.630776 
L 168.952429 281.921506 
L 169.107216 281.921506 
L 169.107216 281.566871 
L 169.343842 281.566871 
L 169.343842 281.212235 
L 169.659247 281.212235 
L 169.659247 280.8576 
L 171.965447 280.8576 
L 172.076012 280.148329 
L 172.278277 280.148329 
L 172.278277 279.793694 
L 173.065252 279.793694 
L 173.065252 279.439059 
L 174.003127 279.439059 
L 174.050406 278.729788 
L 177.82691 278.729788 
L 177.82691 278.375153 
L 178.03 278.375153 
L 178.03 278.020518 
L 178.233236 278.020518 
L 178.233236 277.665882 
L 178.419027 277.665882 
L 178.419027 277.311247 
L 178.547694 277.311247 
L 178.637769 276.601976 
L 178.663425 276.601976 
L 178.747694 274.8288 
L 178.840554 274.8288 
L 178.840554 274.474165 
L 178.969347 274.474165 
L 179.078833 273.764894 
L 179.296641 273.764894 
L 179.296641 273.410259 
L 179.473713 273.410259 
L 179.473713 273.055624 
L 179.585337 273.055624 
L 179.685593 272.346353 
L 179.808038 272.346353 
L 179.808038 271.991718 
L 179.955757 271.991718 
L 180.046358 271.282447 
L 180.093243 271.282447 
L 180.093243 270.927812 
L 180.21932 270.927812 
L 180.21932 270.573176 
L 180.405147 270.573176 
L 180.405147 270.218541 
L 180.566679 270.218541 
L 180.566679 269.863906 
L 180.722105 269.863906 
L 180.722105 269.509271 
L 180.963877 269.509271 
L 180.963877 269.154635 
L 181.377029 269.154635 
L 181.377029 268.8 
L 181.630555 268.8 
L 181.697418 268.090729 
L 182.123191 268.090729 
L 182.123191 267.736094 
L 182.342132 267.736094 
L 182.426901 267.026824 
L 182.518049 267.026824 
L 182.518049 266.672188 
L 182.723354 266.672188 
L 182.81429 265.962918 
L 182.86261 265.962918 
L 182.949274 265.253647 
L 183.010421 265.253647 
L 183.111892 263.480471 
L 183.241219 263.480471 
L 183.265442 262.7712 
L 183.370249 262.7712 
L 183.370249 262.416565 
L 183.497234 262.416565 
L 183.60598 261.707294 
L 183.6737 261.707294 
L 183.730237 260.998024 
L 183.799234 260.998024 
L 183.799234 260.643388 
L 183.920515 260.643388 
L 183.989955 259.579482 
L 184.093073 259.579482 
L 184.193942 258.515576 
L 184.2719 258.515576 
L 184.375714 257.451671 
L 184.392405 257.451671 
L 184.478405 256.033129 
L 184.550232 256.033129 
L 184.577785 255.323859 
L 184.69088 255.323859 
L 184.77444 253.196047 
L 184.854917 253.196047 
L 184.943694 251.777506 
L 184.96906 251.777506 
L 185.042265 250.7136 
L 185.114651 250.7136 
L 185.219252 249.295059 
L 185.239464 249.295059 
L 185.322745 247.876518 
L 185.372431 247.876518 
L 185.372431 247.521882 
L 185.500271 247.521882 
L 185.500271 247.167247 
L 185.68808 247.167247 
L 185.769402 246.103341 
L 185.835444 246.103341 
L 185.835444 245.748706 
L 185.969905 245.748706 
L 186.069869 244.6848 
L 186.126246 244.6848 
L 186.193576 243.975529 
L 186.328018 243.975529 
L 186.385129 242.911624 
L 186.496348 242.911624 
L 186.574257 241.493082 
L 186.612349 241.493082 
L 186.717322 239.719906 
L 186.726167 239.719906 
L 186.727149 239.010635 
L 186.848086 239.010635 
L 186.924069 237.592094 
L 186.981825 237.592094 
L 187.057753 236.528188 
L 187.101141 236.528188 
L 187.181385 235.464282 
L 187.32278 235.464282 
L 187.411562 232.6272 
L 187.451306 232.6272 
L 187.530074 231.563294 
L 187.614606 231.563294 
L 187.700159 229.790118 
L 187.734178 229.790118 
L 187.834942 228.016941 
L 187.846979 228.016941 
L 187.917196 226.243765 
L 187.965088 226.243765 
L 188.074689 223.052047 
L 188.077889 223.052047 
L 188.157269 222.342776 
L 188.191835 222.342776 
L 188.293348 220.5696 
L 188.316384 220.5696 
L 188.400159 218.441788 
L 188.442356 218.441788 
L 188.536284 217.377882 
L 188.595086 217.377882 
L 188.671431 214.895435 
L 188.731137 214.895435 
L 188.814848 212.058353 
L 188.84735 212.058353 
L 188.93011 209.575906 
L 188.991615 209.575906 
L 189.093678 206.029553 
L 189.117918 206.029553 
L 189.210263 203.192471 
L 189.268715 203.192471 
L 189.36929 198.936847 
L 189.382091 198.936847 
L 189.470179 195.745129 
L 189.498179 195.745129 
L 189.592477 191.489506 
L 189.620716 191.489506 
L 189.729066 186.169976 
L 189.742042 186.169976 
L 189.840541 180.850447 
L 189.869658 180.850447 
L 189.980306 174.112376 
L 189.986916 174.112376 
L 190.080856 168.792847 
L 190.09811 168.792847 
L 190.202527 162.764047 
L 190.209876 162.764047 
L 190.310834 156.735247 
L 190.324227 156.735247 
L 190.422557 150.706447 
L 190.435871 150.706447 
L 190.53322 143.968376 
L 190.550064 143.968376 
L 190.658386 136.521035 
L 190.661176 136.521035 
L 190.771636 129.428329 
L 190.77837 129.428329 
L 190.878694 123.044894 
L 190.89287 123.044894 
L 191.003939 115.597553 
L 191.00746 115.597553 
L 191.118246 109.214118 
L 191.122523 109.214118 
L 191.227995 102.121412 
L 191.233795 102.121412 
L 191.33903 96.092612 
L 191.355937 96.092612 
L 191.45973 90.773082 
L 191.471184 90.773082 
L 191.57928 87.226729 
L 191.60507 87.226729 
L 191.715792 82.971106 
L 191.717299 82.971106 
L 191.820246 79.424753 
L 191.841966 79.424753 
L 191.937162 74.814494 
L 191.960235 74.814494 
L 192.070741 70.558871 
L 192.075547 70.558871 
L 192.17619 65.239341 
L 192.194197 65.239341 
L 192.298958 60.274447 
L 192.309913 60.274447 
L 192.420931 54.954918 
L 192.44668 54.954918 
L 192.517581 52.827106 
L 192.565181 52.827106 
L 192.661454 50.699294 
L 192.676855 50.699294 
L 192.767571 48.571482 
L 192.800322 48.571482 
L 192.900709 47.152941 
L 192.913087 47.152941 
L 193.003378 45.379765 
L 193.028695 45.379765 
L 193.086934 43.251953 
L 205.191819 43.251953 
L 205.191819 42.897318 
L 205.540321 42.897318 
L 205.540321 42.542682 
L 205.754476 42.542682 
L 205.754476 42.188047 
L 205.921478 42.188047 
L 205.921478 41.833412 
L 206.067869 41.833412 
L 206.067869 41.478776 
L 206.182596 41.478776 
L 206.26901 40.769506 
L 206.362295 40.769506 
L 206.469399 39.7056 
L 206.531553 39.7056 
L 206.600335 38.641694 
L 206.66342 38.641694 
L 206.76121 37.223153 
L 206.810928 37.223153 
L 206.911484 35.449976 
L 206.941697 35.449976 
L 207.017018 34.031435 
L 207.059234 34.031435 
L 207.163448 32.258259 
L 207.181506 32.258259 
L 207.286693 30.485082 
L 207.323871 30.485082 
L 207.429902 28.711906 
L 207.450482 28.711906 
L 207.51843 27.648 
L 360.8064 27.648 
L 360.8064 27.648 
" style="fill: none; stroke: #ff00ff; stroke-width: 1.5; stroke-linecap: square"/>
   </g>
   <g id="line2d_40">
    <defs>
     <path id="m2a42390240" d="M -0 8.485281 
L 5.091169 0 
L 0 -8.485281 
L -5.091169 -0 
z
" style="stroke: #ff00ff; stroke-width: 1.5; stroke-linejoin: miter"/>
    </defs>
    <g>
     <use xlink:href="#m2a42390240" x="189.382091" y="198.936847" style="fill-opacity: 0; stroke: #ff00ff; stroke-width: 1.5; stroke-linejoin: miter"/>
     <use xlink:href="#m2a42390240" x="193.086934" y="43.251953" style="fill-opacity: 0; stroke: #ff00ff; stroke-width: 1.5; stroke-linejoin: miter"/>
     <use xlink:href="#m2a42390240" x="207.51843" y="27.648" style="fill-opacity: 0; stroke: #ff00ff; stroke-width: 1.5; stroke-linejoin: miter"/>
     <use xlink:href="#m2a42390240" x="207.51843" y="27.648" style="fill-opacity: 0; stroke: #ff00ff; stroke-width: 1.5; stroke-linejoin: miter"/>
     <use xlink:href="#m2a42390240" x="360.8064" y="27.648" style="fill-opacity: 0; stroke: #ff00ff; stroke-width: 1.5; stroke-linejoin: miter"/>
    </g>
   </g>
   <g id="line2d_41">
    <path style="fill: none; stroke: #ff00ff; stroke-width: 1.5; stroke-linecap: square"/>
    <g/>
   </g>
   <g id="line2d_42">
    <defs>
     <path id="mcfe993d928" d="M 0 1.5 
C 0.397805 1.5 0.77937 1.341951 1.06066 1.06066 
C 1.341951 0.77937 1.5 0.397805 1.5 0 
C 1.5 -0.397805 1.341951 -0.77937 1.06066 -1.06066 
C 0.77937 -1.341951 0.397805 -1.5 0 -1.5 
C -0.397805 -1.5 -0.77937 -1.341951 -1.06066 -1.06066 
C -1.341951 -0.77937 -1.5 -0.397805 -1.5 0 
C -1.5 0.397805 -1.341951 0.77937 -1.06066 1.06066 
C -0.77937 1.341951 -0.397805 1.5 0 1.5 
z
" style="stroke: #ff7500"/>
    </defs>
    <g>
     <use xlink:href="#mcfe993d928" x="212.101362" y="27.648" style="fill: #ff7500; stroke: #ff7500"/>
     <use xlink:href="#mcfe993d928" x="212.101362" y="27.648" style="fill: #ff7500; stroke: #ff7500"/>
    </g>
   </g>
   <g id="line2d_43">
    <path d="M 122.78117 298.944 
L 122.78117 298.589365 
L 124.615507 298.589365 
L 124.668797 297.880094 
L 125.180619 297.880094 
L 125.180619 297.525459 
L 125.437787 297.525459 
L 125.437787 297.170824 
L 126.625498 297.170824 
L 126.625498 296.816188 
L 126.828223 296.816188 
L 126.828223 296.461553 
L 127.458055 296.461553 
L 127.458055 296.106918 
L 127.79906 296.106918 
L 127.79906 295.752282 
L 129.499602 295.752282 
L 129.499602 295.397647 
L 130.137 295.397647 
L 130.137 295.043012 
L 132.234038 295.043012 
L 132.234038 294.688376 
L 132.717201 294.688376 
L 132.717201 294.333741 
L 133.120474 294.333741 
L 133.120474 293.979106 
L 133.614772 293.979106 
L 133.697279 293.269835 
L 133.87753 293.269835 
L 133.934523 292.560565 
L 134.87014 292.560565 
L 134.87014 292.205929 
L 137.209177 292.205929 
L 137.263743 291.496659 
L 137.694663 291.496659 
L 137.714623 290.787388 
L 138.899994 290.787388 
L 138.899994 290.432753 
L 139.592597 290.432753 
L 139.592597 290.078118 
L 139.944337 290.078118 
L 139.944337 289.723482 
L 140.155771 289.723482 
L 140.155771 289.368847 
L 141.387718 289.368847 
L 141.387718 289.014212 
L 141.88435 289.014212 
L 141.88435 288.659576 
L 142.430412 288.659576 
L 142.430412 288.304941 
L 142.753651 288.304941 
L 142.753651 287.950306 
L 145.555833 287.950306 
L 145.630196 287.241035 
L 146.533665 287.241035 
L 146.533665 286.8864 
L 146.748798 286.8864 
L 146.748798 286.531765 
L 148.741485 286.531765 
L 148.741485 286.177129 
L 150.248351 286.177129 
L 150.248351 285.822494 
L 151.528902 285.822494 
L 151.528902 285.467859 
L 160.474602 285.467859 
L 160.474602 285.113224 
L 162.143454 285.113224 
L 162.143454 284.758588 
L 163.203664 284.758588 
L 163.203664 284.403953 
L 170.441139 284.403953 
L 170.441139 284.049318 
L 172.477343 284.049318 
L 172.569316 283.340047 
L 172.864133 283.340047 
L 172.973637 282.630776 
L 173.032729 282.630776 
L 173.032729 282.276141 
L 173.393415 282.276141 
L 173.393415 281.921506 
L 173.652083 281.921506 
L 173.652083 281.566871 
L 174.377123 281.566871 
L 174.384698 280.8576 
L 174.853106 280.8576 
L 174.853106 280.502965 
L 177.173966 280.502965 
L 177.173966 280.148329 
L 179.179617 280.148329 
L 179.179617 279.793694 
L 181.770438 279.793694 
L 181.827248 279.084424 
L 182.430604 279.084424 
L 182.430604 278.729788 
L 182.554262 278.729788 
L 182.554262 278.375153 
L 182.755535 278.375153 
L 182.822755 276.956612 
L 182.866832 276.956612 
L 182.866832 276.601976 
L 182.991259 276.601976 
L 183.08747 275.538071 
L 183.120819 275.538071 
L 183.120819 275.183435 
L 183.254221 275.183435 
L 183.350275 274.474165 
L 183.381402 274.474165 
L 183.438237 273.764894 
L 183.521713 273.764894 
L 183.617573 273.055624 
L 183.697951 273.055624 
L 183.799808 271.991718 
L 183.820457 271.991718 
L 183.926786 270.927812 
L 183.973472 270.927812 
L 184.060838 270.218541 
L 184.148364 270.218541 
L 184.247257 269.154635 
L 184.368477 269.154635 
L 184.45902 268.090729 
L 184.534233 268.090729 
L 184.612994 267.381459 
L 184.70073 267.381459 
L 184.779343 266.317553 
L 184.890153 266.317553 
L 184.973374 265.608282 
L 185.046025 265.608282 
L 185.046025 265.253647 
L 185.175028 265.253647 
L 185.208605 264.544376 
L 185.294142 264.544376 
L 185.350247 263.835106 
L 185.471412 263.835106 
L 185.569875 262.7712 
L 185.723864 262.7712 
L 185.723864 262.416565 
L 186.037286 262.416565 
L 186.037286 262.061929 
L 186.259658 262.061929 
L 186.259658 261.707294 
L 186.382128 261.707294 
L 186.390131 260.998024 
L 186.547001 260.998024 
L 186.642472 260.288753 
L 186.756108 260.288753 
L 186.855894 259.224847 
L 186.942531 259.224847 
L 187.052443 258.160941 
L 187.058718 258.160941 
L 187.067886 257.451671 
L 187.17659 257.451671 
L 187.283239 255.323859 
L 187.296111 255.323859 
L 187.371733 253.550682 
L 187.446579 253.550682 
L 187.555003 251.777506 
L 187.587878 251.777506 
L 187.685693 250.358965 
L 187.709019 250.358965 
L 187.783467 249.295059 
L 187.871955 249.295059 
L 187.913507 248.231153 
L 188.049066 248.231153 
L 188.103017 247.521882 
L 188.202284 247.521882 
L 188.205917 246.812612 
L 188.325861 246.812612 
L 188.406001 245.748706 
L 188.543867 245.748706 
L 188.652374 244.330165 
L 188.736435 244.330165 
L 188.846034 243.266259 
L 188.894686 243.266259 
L 189.000323 241.847718 
L 189.052919 241.847718 
L 189.152061 240.783812 
L 189.222312 240.783812 
L 189.311578 239.719906 
L 189.391472 239.719906 
L 189.461261 239.010635 
L 189.510469 239.010635 
L 189.579396 237.592094 
L 189.641342 237.592094 
L 189.735764 235.464282 
L 189.799284 235.464282 
L 189.891674 233.691106 
L 189.949291 233.691106 
L 190.036005 232.272565 
L 190.176375 232.272565 
L 190.176375 231.917929 
L 190.314893 231.917929 
L 190.326661 231.208659 
L 190.786685 231.208659 
L 190.874361 230.144753 
L 190.923548 230.144753 
L 190.923548 229.790118 
L 191.045372 229.790118 
L 191.152441 228.016941 
L 191.276268 228.016941 
L 191.36899 227.307671 
L 191.450561 227.307671 
L 191.513126 226.5984 
L 191.641041 226.5984 
L 191.692794 225.534494 
L 191.765837 225.534494 
L 191.799627 224.470588 
L 191.946097 224.470588 
L 192.056315 223.052047 
L 192.124645 223.052047 
L 192.22796 221.988141 
L 192.245185 221.988141 
L 192.267518 221.278871 
L 192.3726 221.278871 
L 192.429639 219.505694 
L 192.576702 219.505694 
L 192.652135 218.087153 
L 192.699396 218.087153 
L 192.800677 215.959341 
L 192.840825 215.959341 
L 192.938172 214.186165 
L 192.984016 214.186165 
L 193.08308 212.058353 
L 193.103041 212.058353 
L 193.15791 210.994447 
L 193.251204 210.994447 
L 193.347147 208.157365 
L 193.371315 208.157365 
L 193.447758 206.029553 
L 193.522181 206.029553 
L 193.62799 202.4832 
L 193.635817 202.4832 
L 193.723052 200.355388 
L 193.753505 200.355388 
L 193.858025 196.099765 
L 193.886919 196.099765 
L 193.990368 192.908047 
L 193.998046 192.908047 
L 194.101552 189.007059 
L 194.112169 189.007059 
L 194.219999 184.3968 
L 194.225935 184.3968 
L 194.335083 179.786541 
L 194.341638 179.786541 
L 194.447512 175.176282 
L 194.461518 175.176282 
L 194.569636 168.438212 
L 194.575462 168.438212 
L 194.684537 161.700141 
L 194.687433 161.700141 
L 194.790744 155.671341 
L 194.805137 155.671341 
L 194.907805 146.805459 
L 194.919885 146.805459 
L 195.02983 138.294212 
L 195.032673 138.294212 
L 195.141963 130.1376 
L 195.14479 130.1376 
L 195.250622 121.980988 
L 195.262796 121.980988 
L 195.368899 113.824376 
L 195.375414 113.824376 
L 195.480577 104.958494 
L 195.489828 104.958494 
L 195.592823 95.737976 
L 195.603245 95.737976 
L 195.708365 86.872094 
L 195.718418 86.872094 
L 195.821384 78.006212 
L 195.829863 78.006212 
L 195.938545 71.268141 
L 195.946972 71.268141 
L 196.042711 67.721788 
L 196.065748 67.721788 
L 196.169809 64.175435 
L 196.195957 64.175435 
L 196.27655 62.402259 
L 196.323207 62.402259 
L 196.388861 61.338353 
L 196.442569 61.338353 
L 196.527658 60.274447 
L 196.554188 60.274447 
L 196.631523 59.210541 
L 196.67673 59.210541 
L 196.67673 58.855906 
L 208.696428 58.855906 
L 208.696428 58.501271 
L 209.061968 58.501271 
L 209.061968 58.146635 
L 209.324296 58.146635 
L 209.324296 57.792 
L 209.508979 57.792 
L 209.508979 57.437365 
L 209.690706 57.437365 
L 209.762591 56.728094 
L 209.844697 56.728094 
L 209.955761 56.018824 
L 210.059638 56.018824 
L 210.13112 54.954918 
L 210.198383 54.954918 
L 210.301353 53.891012 
L 210.352067 53.891012 
L 210.422588 52.472471 
L 210.472561 52.472471 
L 210.5562 50.699294 
L 210.594221 50.699294 
L 210.703157 48.571482 
L 210.717433 48.571482 
L 210.806139 47.152941 
L 210.831524 47.152941 
L 210.928518 44.670494 
L 210.951163 44.670494 
L 211.049566 42.897318 
L 211.070181 42.897318 
L 211.17493 40.060235 
L 211.186978 40.060235 
L 211.297335 38.996329 
L 211.349551 38.996329 
L 211.44352 37.932424 
L 211.470038 37.932424 
L 211.576916 36.159247 
L 211.626663 36.159247 
L 211.711324 34.386071 
L 211.742146 34.386071 
L 211.839609 32.258259 
L 211.863896 32.258259 
L 211.937727 30.485082 
L 211.975626 30.485082 
L 212.074826 28.002635 
L 212.101362 28.002635 
L 212.101362 27.648 
L 360.8064 27.648 
L 360.8064 27.648 
" style="fill: none; stroke: #ff7500; stroke-width: 1.5; stroke-linecap: square"/>
   </g>
   <g id="line2d_44">
    <defs>
     <path id="m9d4d9ba87e" d="M 0 -6 
L -1.347084 -1.854102 
L -5.706339 -1.854102 
L -2.179628 0.708204 
L -3.526712 4.854102 
L -0 2.291796 
L 3.526712 4.854102 
L 2.179628 0.708204 
L 5.706339 -1.854102 
L 1.347084 -1.854102 
z
" style="stroke: #ff7500; stroke-width: 1.5; stroke-linejoin: bevel"/>
    </defs>
    <g>
     <use xlink:href="#m9d4d9ba87e" x="172.569316" y="283.340047" style="fill-opacity: 0; stroke: #ff7500; stroke-width: 1.5; stroke-linejoin: bevel"/>
     <use xlink:href="#m9d4d9ba87e" x="195.667181" y="90.773082" style="fill-opacity: 0; stroke: #ff7500; stroke-width: 1.5; stroke-linejoin: bevel"/>
     <use xlink:href="#m9d4d9ba87e" x="212.101362" y="27.648" style="fill-opacity: 0; stroke: #ff7500; stroke-width: 1.5; stroke-linejoin: bevel"/>
     <use xlink:href="#m9d4d9ba87e" x="212.101362" y="27.648" style="fill-opacity: 0; stroke: #ff7500; stroke-width: 1.5; stroke-linejoin: bevel"/>
     <use xlink:href="#m9d4d9ba87e" x="360.8064" y="27.648" style="fill-opacity: 0; stroke: #ff7500; stroke-width: 1.5; stroke-linejoin: bevel"/>
    </g>
   </g>
   <g id="line2d_45">
    <path style="fill: none; stroke: #ff7500; stroke-width: 1.5; stroke-linecap: square"/>
    <g/>
   </g>
   <g id="line2d_46">
    <path d="M 360.8064 27.648 
L 380.514816 293.51808 
" style="fill: none; stroke: #ff7500; stroke-width: 1.5; stroke-linecap: square"/>
    <g>
     <use xlink:href="#m9d4d9ba87e" x="360.8064" y="27.648" style="fill-opacity: 0; stroke: #ff7500; stroke-width: 1.5; stroke-linejoin: bevel"/>
     <use xlink:href="#m9d4d9ba87e" x="380.514816" y="293.51808" style="fill-opacity: 0; stroke: #ff7500; stroke-width: 1.5; stroke-linejoin: bevel"/>
    </g>
   </g>
   <g id="line2d_47">
    <path d="M 360.8064 27.648 
L 380.514816 206.70336 
" style="fill: none; stroke: #000080; stroke-width: 1.5; stroke-linecap: square"/>
    <g>
     <use xlink:href="#m89e2723923" x="360.8064" y="27.648" style="fill-opacity: 0; stroke: #000080; stroke-width: 1.5"/>
     <use xlink:href="#m89e2723923" x="380.514816" y="206.70336" style="fill-opacity: 0; stroke: #000080; stroke-width: 1.5"/>
    </g>
   </g>
   <g id="line2d_48">
    <path d="M 360.8064 27.648 
L 380.514816 119.88864 
" style="fill: none; stroke: #ff00ff; stroke-width: 1.5; stroke-linecap: square"/>
    <g>
     <use xlink:href="#m2a42390240" x="360.8064" y="27.648" style="fill-opacity: 0; stroke: #ff00ff; stroke-width: 1.5; stroke-linejoin: miter"/>
     <use xlink:href="#m2a42390240" x="380.514816" y="119.88864" style="fill-opacity: 0; stroke: #ff00ff; stroke-width: 1.5; stroke-linejoin: miter"/>
    </g>
   </g>
   <g id="line2d_49">
    <path d="M 360.8064 298.944 
L 360.8064 27.648 
" style="fill: none; stroke: #000000; stroke-width: 1.5; stroke-linecap: square"/>
   </g>
   <g id="patch_3">
    <path d="M 57.6 298.944 
L 360.8064 298.944 
" style="fill: none; stroke: #000000; stroke-width: 0.8; stroke-linejoin: miter; stroke-linecap: square"/>
   </g>
   <g id="patch_4">
    <path d="M 57.6 27.648 
L 360.8064 27.648 
" style="fill: none; stroke: #000000; stroke-width: 0.8; stroke-linejoin: miter; stroke-linecap: square"/>
   </g>
   <g id="text_13">
    <!-- CMA-ES-20 -->
    <g transform="translate(386.578944 297.381205)scale(0.14 -0.14)">
     <defs>
      <path id="DejaVuSans-43" d="M 4122 4306 
L 4122 3641 
Q 3803 3938 3442 4084 
Q 3081 4231 2675 4231 
Q 1875 4231 1450 3742 
Q 1025 3253 1025 2328 
Q 1025 1406 1450 917 
Q 1875 428 2675 428 
Q 3081 428 3442 575 
Q 3803 722 4122 1019 
L 4122 359 
Q 3791 134 3420 21 
Q 3050 -91 2638 -91 
Q 1578 -91 968 557 
Q 359 1206 359 2328 
Q 359 3453 968 4101 
Q 1578 4750 2638 4750 
Q 3056 4750 3426 4639 
Q 3797 4528 4122 4306 
z
" transform="scale(0.015625)"/>
      <path id="DejaVuSans-4d" d="M 628 4666 
L 1569 4666 
L 2759 1491 
L 3956 4666 
L 4897 4666 
L 4897 0 
L 4281 0 
L 4281 4097 
L 3078 897 
L 2444 897 
L 1241 4097 
L 1241 0 
L 628 0 
L 628 4666 
z
" transform="scale(0.015625)"/>
      <path id="DejaVuSans-41" d="M 2188 4044 
L 1331 1722 
L 3047 1722 
L 2188 4044 
z
M 1831 4666 
L 2547 4666 
L 4325 0 
L 3669 0 
L 3244 1197 
L 1141 1197 
L 716 0 
L 50 0 
L 1831 4666 
z
" transform="scale(0.015625)"/>
      <path id="DejaVuSans-45" d="M 628 4666 
L 3578 4666 
L 3578 4134 
L 1259 4134 
L 1259 2753 
L 3481 2753 
L 3481 2222 
L 1259 2222 
L 1259 531 
L 3634 531 
L 3634 0 
L 628 0 
L 628 4666 
z
" transform="scale(0.015625)"/>
      <path id="DejaVuSans-53" d="M 3425 4513 
L 3425 3897 
Q 3066 4069 2747 4153 
Q 2428 4238 2131 4238 
Q 1616 4238 1336 4038 
Q 1056 3838 1056 3469 
Q 1056 3159 1242 3001 
Q 1428 2844 1947 2747 
L 2328 2669 
Q 3034 2534 3370 2195 
Q 3706 1856 3706 1288 
Q 3706 609 3251 259 
Q 2797 -91 1919 -91 
Q 1588 -91 1214 -16 
Q 841 59 441 206 
L 441 856 
Q 825 641 1194 531 
Q 1563 422 1919 422 
Q 2459 422 2753 634 
Q 3047 847 3047 1241 
Q 3047 1584 2836 1778 
Q 2625 1972 2144 2069 
L 1759 2144 
Q 1053 2284 737 2584 
Q 422 2884 422 3419 
Q 422 4038 858 4394 
Q 1294 4750 2059 4750 
Q 2388 4750 2728 4690 
Q 3069 4631 3425 4513 
z
" transform="scale(0.015625)"/>
     </defs>
     <use xlink:href="#DejaVuSans-43"/>
     <use xlink:href="#DejaVuSans-4d" x="69.824219"/>
     <use xlink:href="#DejaVuSans-41" x="156.103516"/>
     <use xlink:href="#DejaVuSans-2d" x="222.261719"/>
     <use xlink:href="#DejaVuSans-45" x="258.345703"/>
     <use xlink:href="#DejaVuSans-53" x="321.529297"/>
     <use xlink:href="#DejaVuSans-2d" x="385.005859"/>
     <use xlink:href="#DejaVuSans-32" x="421.089844"/>
     <use xlink:href="#DejaVuSans-30" x="484.712891"/>
    </g>
   </g>
   <g id="text_14">
    <!-- ddcma0 -->
    <g transform="translate(386.578944 210.566485)scale(0.14 -0.14)">
     <use xlink:href="#DejaVuSans-64"/>
     <use xlink:href="#DejaVuSans-64" x="63.476562"/>
     <use xlink:href="#DejaVuSans-63" x="126.953125"/>
     <use xlink:href="#DejaVuSans-6d" x="181.933594"/>
     <use xlink:href="#DejaVuSans-61" x="279.345703"/>
     <use xlink:href="#DejaVuSans-30" x="340.625"/>
    </g>
   </g>
   <g id="text_15">
    <!-- ddcma1 -->
    <g transform="translate(386.578944 123.751765)scale(0.14 -0.14)">
     <use xlink:href="#DejaVuSans-64"/>
     <use xlink:href="#DejaVuSans-64" x="63.476562"/>
     <use xlink:href="#DejaVuSans-63" x="126.953125"/>
     <use xlink:href="#DejaVuSans-6d" x="181.933594"/>
     <use xlink:href="#DejaVuSans-61" x="279.345703"/>
     <use xlink:href="#DejaVuSans-31" x="340.625"/>
    </g>
   </g>
   <g id="text_16">
    <!-- best 2009 -->
    <g transform="translate(386.578944 36.937045)scale(0.14 -0.14)">
     <defs>
      <path id="DejaVuSans-62" d="M 3116 1747 
Q 3116 2381 2855 2742 
Q 2594 3103 2138 3103 
Q 1681 3103 1420 2742 
Q 1159 2381 1159 1747 
Q 1159 1113 1420 752 
Q 1681 391 2138 391 
Q 2594 391 2855 752 
Q 3116 1113 3116 1747 
z
M 1159 2969 
Q 1341 3281 1617 3432 
Q 1894 3584 2278 3584 
Q 2916 3584 3314 3078 
Q 3713 2572 3713 1747 
Q 3713 922 3314 415 
Q 2916 -91 2278 -91 
Q 1894 -91 1617 61 
Q 1341 213 1159 525 
L 1159 0 
L 581 0 
L 581 4863 
L 1159 4863 
L 1159 2969 
z
" transform="scale(0.015625)"/>
      <path id="DejaVuSans-39" d="M 703 97 
L 703 672 
Q 941 559 1184 500 
Q 1428 441 1663 441 
Q 2288 441 2617 861 
Q 2947 1281 2994 2138 
Q 2813 1869 2534 1725 
Q 2256 1581 1919 1581 
Q 1219 1581 811 2004 
Q 403 2428 403 3163 
Q 403 3881 828 4315 
Q 1253 4750 1959 4750 
Q 2769 4750 3195 4129 
Q 3622 3509 3622 2328 
Q 3622 1225 3098 567 
Q 2575 -91 1691 -91 
Q 1453 -91 1209 -44 
Q 966 3 703 97 
z
M 1959 2075 
Q 2384 2075 2632 2365 
Q 2881 2656 2881 3163 
Q 2881 3666 2632 3958 
Q 2384 4250 1959 4250 
Q 1534 4250 1286 3958 
Q 1038 3666 1038 3163 
Q 1038 2656 1286 2365 
Q 1534 2075 1959 2075 
z
" transform="scale(0.015625)"/>
     </defs>
     <use xlink:href="#DejaVuSans-62"/>
     <use xlink:href="#DejaVuSans-65" x="63.476562"/>
     <use xlink:href="#DejaVuSans-73" x="125"/>
     <use xlink:href="#DejaVuSans-74" x="177.099609"/>
     <use xlink:href="#DejaVuSans-20" x="216.308594"/>
     <use xlink:href="#DejaVuSans-32" x="248.095703"/>
     <use xlink:href="#DejaVuSans-30" x="311.71875"/>
     <use xlink:href="#DejaVuSans-30" x="375.341797"/>
     <use xlink:href="#DejaVuSans-39" x="438.964844"/>
    </g>
   </g>
   <g id="text_17">
    <!-- bbob f8, 40-D -->
    <g transform="translate(60.632064 38.111366)scale(0.102 -0.102)">
     <defs>
      <path id="DejaVuSans-44" d="M 1259 4147 
L 1259 519 
L 2022 519 
Q 2988 519 3436 956 
Q 3884 1394 3884 2338 
Q 3884 3275 3436 3711 
Q 2988 4147 2022 4147 
L 1259 4147 
z
M 628 4666 
L 1925 4666 
Q 3281 4666 3915 4102 
Q 4550 3538 4550 2338 
Q 4550 1131 3912 565 
Q 3275 0 1925 0 
L 628 0 
L 628 4666 
z
" transform="scale(0.015625)"/>
     </defs>
     <use xlink:href="#DejaVuSans-62"/>
     <use xlink:href="#DejaVuSans-62" x="63.476562"/>
     <use xlink:href="#DejaVuSans-6f" x="126.953125"/>
     <use xlink:href="#DejaVuSans-62" x="188.134766"/>
     <use xlink:href="#DejaVuSans-20" x="251.611328"/>
     <use xlink:href="#DejaVuSans-66" x="283.398438"/>
     <use xlink:href="#DejaVuSans-38" x="318.603516"/>
     <use xlink:href="#DejaVuSans-2c" x="382.226562"/>
     <use xlink:href="#DejaVuSans-20" x="414.013672"/>
     <use xlink:href="#DejaVuSans-34" x="445.800781"/>
     <use xlink:href="#DejaVuSans-30" x="509.423828"/>
     <use xlink:href="#DejaVuSans-2d" x="573.046875"/>
     <use xlink:href="#DejaVuSans-44" x="609.130859"/>
    </g>
    <!-- 51 targets: 100..1e-08 -->
    <g transform="translate(60.632064 49.533135)scale(0.102 -0.102)">
     <defs>
      <path id="DejaVuSans-35" d="M 691 4666 
L 3169 4666 
L 3169 4134 
L 1269 4134 
L 1269 2991 
Q 1406 3038 1543 3061 
Q 1681 3084 1819 3084 
Q 2600 3084 3056 2656 
Q 3513 2228 3513 1497 
Q 3513 744 3044 326 
Q 2575 -91 1722 -91 
Q 1428 -91 1123 -41 
Q 819 9 494 109 
L 494 744 
Q 775 591 1075 516 
Q 1375 441 1709 441 
Q 2250 441 2565 725 
Q 2881 1009 2881 1497 
Q 2881 1984 2565 2268 
Q 2250 2553 1709 2553 
Q 1456 2553 1204 2497 
Q 953 2441 691 2322 
L 691 4666 
z
" transform="scale(0.015625)"/>
      <path id="DejaVuSans-3a" d="M 750 794 
L 1409 794 
L 1409 0 
L 750 0 
L 750 794 
z
M 750 3309 
L 1409 3309 
L 1409 2516 
L 750 2516 
L 750 3309 
z
" transform="scale(0.015625)"/>
     </defs>
     <use xlink:href="#DejaVuSans-35"/>
     <use xlink:href="#DejaVuSans-31" x="63.623047"/>
     <use xlink:href="#DejaVuSans-20" x="127.246094"/>
     <use xlink:href="#DejaVuSans-74" x="159.033203"/>
     <use xlink:href="#DejaVuSans-61" x="198.242188"/>
     <use xlink:href="#DejaVuSans-72" x="259.521484"/>
     <use xlink:href="#DejaVuSans-67" x="298.884766"/>
     <use xlink:href="#DejaVuSans-65" x="362.361328"/>
     <use xlink:href="#DejaVuSans-74" x="423.884766"/>
     <use xlink:href="#DejaVuSans-73" x="463.09375"/>
     <use xlink:href="#DejaVuSans-3a" x="515.193359"/>
     <use xlink:href="#DejaVuSans-20" x="548.884766"/>
     <use xlink:href="#DejaVuSans-31" x="580.671875"/>
     <use xlink:href="#DejaVuSans-30" x="644.294922"/>
     <use xlink:href="#DejaVuSans-30" x="707.917969"/>
     <use xlink:href="#DejaVuSans-2e" x="771.541016"/>
     <use xlink:href="#DejaVuSans-2e" x="803.328125"/>
     <use xlink:href="#DejaVuSans-31" x="835.115234"/>
     <use xlink:href="#DejaVuSans-65" x="898.738281"/>
     <use xlink:href="#DejaVuSans-2d" x="960.261719"/>
     <use xlink:href="#DejaVuSans-30" x="996.345703"/>
     <use xlink:href="#DejaVuSans-38" x="1059.96875"/>
    </g>
    <!-- 15 instances -->
    <g transform="translate(60.632064 60.954904)scale(0.102 -0.102)">
     <use xlink:href="#DejaVuSans-31"/>
     <use xlink:href="#DejaVuSans-35" x="63.623047"/>
     <use xlink:href="#DejaVuSans-20" x="127.246094"/>
     <use xlink:href="#DejaVuSans-69" x="159.033203"/>
     <use xlink:href="#DejaVuSans-6e" x="186.816406"/>
     <use xlink:href="#DejaVuSans-73" x="250.195312"/>
     <use xlink:href="#DejaVuSans-74" x="302.294922"/>
     <use xlink:href="#DejaVuSans-61" x="341.503906"/>
     <use xlink:href="#DejaVuSans-6e" x="402.783203"/>
     <use xlink:href="#DejaVuSans-63" x="466.162109"/>
     <use xlink:href="#DejaVuSans-65" x="521.142578"/>
     <use xlink:href="#DejaVuSans-73" x="582.666016"/>
    </g>
   </g>
   <g id="text_18">
    <!-- v2.6 -->
    <g style="fill: #808080" transform="translate(198.292262 294.151352)scale(0.1 -0.1)">
     <use xlink:href="#DejaVuSans-76"/>
     <use xlink:href="#DejaVuSans-32" x="59.179688"/>
     <use xlink:href="#DejaVuSans-2e" x="122.802734"/>
     <use xlink:href="#DejaVuSans-36" x="154.589844"/>
    </g>
   </g>
   <g id="text_19">
    <!-- 8 Rosenbrock original -->
    <g transform="translate(101.14695 21.648)scale(0.2 -0.2)">
     <defs>
      <path id="DejaVuSans-52" d="M 2841 2188 
Q 3044 2119 3236 1894 
Q 3428 1669 3622 1275 
L 4263 0 
L 3584 0 
L 2988 1197 
Q 2756 1666 2539 1819 
Q 2322 1972 1947 1972 
L 1259 1972 
L 1259 0 
L 628 0 
L 628 4666 
L 2053 4666 
Q 2853 4666 3247 4331 
Q 3641 3997 3641 3322 
Q 3641 2881 3436 2590 
Q 3231 2300 2841 2188 
z
M 1259 4147 
L 1259 2491 
L 2053 2491 
Q 2509 2491 2742 2702 
Q 2975 2913 2975 3322 
Q 2975 3731 2742 3939 
Q 2509 4147 2053 4147 
L 1259 4147 
z
" transform="scale(0.015625)"/>
      <path id="DejaVuSans-6b" d="M 581 4863 
L 1159 4863 
L 1159 1991 
L 2875 3500 
L 3609 3500 
L 1753 1863 
L 3688 0 
L 2938 0 
L 1159 1709 
L 1159 0 
L 581 0 
L 581 4863 
z
" transform="scale(0.015625)"/>
     </defs>
     <use xlink:href="#DejaVuSans-38"/>
     <use xlink:href="#DejaVuSans-20" x="63.623047"/>
     <use xlink:href="#DejaVuSans-52" x="95.410156"/>
     <use xlink:href="#DejaVuSans-6f" x="160.392578"/>
     <use xlink:href="#DejaVuSans-73" x="221.574219"/>
     <use xlink:href="#DejaVuSans-65" x="273.673828"/>
     <use xlink:href="#DejaVuSans-6e" x="335.197266"/>
     <use xlink:href="#DejaVuSans-62" x="398.576172"/>
     <use xlink:href="#DejaVuSans-72" x="462.052734"/>
     <use xlink:href="#DejaVuSans-6f" x="500.916016"/>
     <use xlink:href="#DejaVuSans-63" x="562.097656"/>
     <use xlink:href="#DejaVuSans-6b" x="617.078125"/>
     <use xlink:href="#DejaVuSans-20" x="674.988281"/>
     <use xlink:href="#DejaVuSans-6f" x="706.775391"/>
     <use xlink:href="#DejaVuSans-72" x="767.957031"/>
     <use xlink:href="#DejaVuSans-69" x="809.070312"/>
     <use xlink:href="#DejaVuSans-67" x="836.853516"/>
     <use xlink:href="#DejaVuSans-69" x="900.330078"/>
     <use xlink:href="#DejaVuSans-6e" x="928.113281"/>
     <use xlink:href="#DejaVuSans-61" x="991.492188"/>
     <use xlink:href="#DejaVuSans-6c" x="1052.771484"/>
    </g>
   </g>
  </g>
 </g>
 <defs>
  <clipPath id="p2b6b585f3d">
   <rect x="57.6" y="27.648" width="303.2064" height="271.296"/>
  </clipPath>
 </defs>
</svg>
