<?xml version="1.0" encoding="utf-8" standalone="no"?>
<!DOCTYPE svg PUBLIC "-//W3C//DTD SVG 1.1//EN"
  "http://www.w3.org/Graphics/SVG/1.1/DTD/svg11.dtd">
<svg xmlns:xlink="http://www.w3.org/1999/xlink" width="460.8pt" height="345.6pt" viewBox="0 0 460.8 345.6" xmlns="http://www.w3.org/2000/svg" version="1.1">
 <metadata>
  <rdf:RDF xmlns:dc="http://purl.org/dc/elements/1.1/" xmlns:cc="http://creativecommons.org/ns#" xmlns:rdf="http://www.w3.org/1999/02/22-rdf-syntax-ns#">
   <cc:Work>
    <dc:type rdf:resource="http://purl.org/dc/dcmitype/StillImage"/>
    <dc:date>2022-03-18T13:44:45.621689</dc:date>
    <dc:format>image/svg+xml</dc:format>
    <dc:creator>
     <cc:Agent>
      <dc:title>Matplotlib v3.5.1, https://matplotlib.org/</dc:title>
     </cc:Agent>
    </dc:creator>
   </cc:Work>
  </rdf:RDF>
 </metadata>
 <defs>
  <style type="text/css">*{stroke-linejoin: round; stroke-linecap: butt}</style>
 </defs>
 <g id="figure_1">
  <g id="patch_1">
   <path d="M 0 345.6 
L 460.8 345.6 
L 460.8 0 
L 0 0 
z
" style="fill: #ffffff"/>
  </g>
  <g id="axes_1">
   <g id="patch_2">
    <path d="M 57.6 298.944 
L 360.8064 298.944 
L 360.8064 27.648 
L 57.6 27.648 
z
" style="fill: #ffffff"/>
   </g>
   <g id="line2d_1">
    <path d="M 36.933397 298.944 
L 36.933397 288.304941 
L 67.209423 288.304941 
L 67.209423 282.985412 
L 85.184077 282.985412 
L 85.184077 277.665882 
L 109.360651 277.665882 
L 109.360651 272.346353 
L 122.990812 272.346353 
L 122.990812 267.026824 
L 148.775988 267.026824 
L 148.775988 261.707294 
L 172.951515 261.707294 
L 172.951515 256.387765 
L 193.260577 256.387765 
L 193.260577 251.068235 
L 199.979439 251.068235 
L 199.979439 245.748706 
L 210.915714 245.748706 
L 210.915714 240.429176 
L 222.727175 240.429176 
L 222.727175 235.109647 
L 230.107239 235.109647 
L 230.107239 229.790118 
L 237.326479 229.790118 
L 237.326479 224.470588 
L 241.665472 224.470588 
L 241.665472 219.151059 
L 254.002146 219.151059 
L 254.002146 213.831529 
L 258.247042 213.831529 
L 258.247042 208.512 
L 269.482511 208.512 
L 269.482511 203.192471 
L 277.47566 203.192471 
L 277.47566 197.872941 
L 277.475712 197.872941 
L 277.475712 192.553412 
L 277.47587 192.553412 
L 277.47587 112.760471 
L 277.476081 112.760471 
L 277.476081 107.440941 
L 277.476133 107.440941 
L 277.476133 102.121412 
L 277.476186 102.121412 
L 277.476186 80.843294 
L 277.476502 80.843294 
L 277.476502 27.648 
L 360.8064 27.648 
" style="fill: none; stroke: #f5deb3; stroke-width: 4; stroke-linecap: square"/>
   </g>
   <g id="line2d_2">
    <defs>
     <path id="me8948364d3" d="M -0 7.778175 
L 7.778175 0 
L 0 -7.778175 
L -7.778175 -0 
z
" style="stroke: #f5deb3; stroke-width: 1.5; stroke-linejoin: miter"/>
    </defs>
    <g>
     <use xlink:href="#me8948364d3" x="148.775988" y="267.026824" style="fill: #f5deb3; stroke: #f5deb3; stroke-width: 1.5; stroke-linejoin: miter"/>
     <use xlink:href="#me8948364d3" x="254.002146" y="213.831529" style="fill: #f5deb3; stroke: #f5deb3; stroke-width: 1.5; stroke-linejoin: miter"/>
     <use xlink:href="#me8948364d3" x="277.476133" y="102.121412" style="fill: #f5deb3; stroke: #f5deb3; stroke-width: 1.5; stroke-linejoin: miter"/>
     <use xlink:href="#me8948364d3" x="277.476502" y="27.648" style="fill: #f5deb3; stroke: #f5deb3; stroke-width: 1.5; stroke-linejoin: miter"/>
     <use xlink:href="#me8948364d3" x="277.476502" y="27.648" style="fill: #f5deb3; stroke: #f5deb3; stroke-width: 1.5; stroke-linejoin: miter"/>
     <use xlink:href="#me8948364d3" x="360.8064" y="27.648" style="fill: #f5deb3; stroke: #f5deb3; stroke-width: 1.5; stroke-linejoin: miter"/>
    </g>
   </g>
   <g id="line2d_3">
    <path style="fill: none; stroke: #f5deb3; stroke-width: 4; stroke-linecap: square"/>
    <g/>
   </g>
   <g id="line2d_4">
    <path d="M 360.8064 27.648 
L 380.514816 33.07392 
" style="fill: none; stroke: #f5deb3; stroke-width: 4; stroke-linecap: square"/>
    <g>
     <use xlink:href="#me8948364d3" x="360.8064" y="27.648" style="fill: #f5deb3; stroke: #f5deb3; stroke-width: 1.5; stroke-linejoin: miter"/>
     <use xlink:href="#me8948364d3" x="380.514816" y="33.07392" style="fill: #f5deb3; stroke: #f5deb3; stroke-width: 1.5; stroke-linejoin: miter"/>
    </g>
   </g>
   <g id="matplotlib.axis_1">
    <g id="xtick_1">
     <g id="line2d_5">
      <path d="M 57.6 298.944 
L 57.6 27.648 
" clip-path="url(#p021b3cc339)" style="fill: none; stroke: #b0b0b0; stroke-width: 0.8; stroke-linecap: square"/>
     </g>
     <g id="line2d_6">
      <defs>
       <path id="mb5dd6e5afe" d="M 0 0 
L 0 3.5 
" style="stroke: #000000; stroke-width: 0.8"/>
      </defs>
      <g>
       <use xlink:href="#mb5dd6e5afe" x="57.6" y="298.944" style="stroke: #000000; stroke-width: 0.8"/>
      </g>
     </g>
     <g id="text_1">
      <!-- 0 -->
      <g transform="translate(52.191875 318.861344)scale(0.17 -0.17)">
       <defs>
        <path id="DejaVuSans-30" d="M 2034 4250 
Q 1547 4250 1301 3770 
Q 1056 3291 1056 2328 
Q 1056 1369 1301 889 
Q 1547 409 2034 409 
Q 2525 409 2770 889 
Q 3016 1369 3016 2328 
Q 3016 3291 2770 3770 
Q 2525 4250 2034 4250 
z
M 2034 4750 
Q 2819 4750 3233 4129 
Q 3647 3509 3647 2328 
Q 3647 1150 3233 529 
Q 2819 -91 2034 -91 
Q 1250 -91 836 529 
Q 422 1150 422 2328 
Q 422 3509 836 4129 
Q 1250 4750 2034 4750 
z
" transform="scale(0.015625)"/>
       </defs>
       <use xlink:href="#DejaVuSans-30"/>
      </g>
     </g>
    </g>
    <g id="xtick_2">
     <g id="line2d_7">
      <path d="M 144.2304 298.944 
L 144.2304 27.648 
" clip-path="url(#p021b3cc339)" style="fill: none; stroke: #b0b0b0; stroke-width: 0.8; stroke-linecap: square"/>
     </g>
     <g id="line2d_8">
      <g>
       <use xlink:href="#mb5dd6e5afe" x="144.2304" y="298.944" style="stroke: #000000; stroke-width: 0.8"/>
      </g>
     </g>
     <g id="text_2">
      <!-- 2 -->
      <g transform="translate(138.822275 318.861344)scale(0.17 -0.17)">
       <defs>
        <path id="DejaVuSans-32" d="M 1228 531 
L 3431 531 
L 3431 0 
L 469 0 
L 469 531 
Q 828 903 1448 1529 
Q 2069 2156 2228 2338 
Q 2531 2678 2651 2914 
Q 2772 3150 2772 3378 
Q 2772 3750 2511 3984 
Q 2250 4219 1831 4219 
Q 1534 4219 1204 4116 
Q 875 4013 500 3803 
L 500 4441 
Q 881 4594 1212 4672 
Q 1544 4750 1819 4750 
Q 2544 4750 2975 4387 
Q 3406 4025 3406 3419 
Q 3406 3131 3298 2873 
Q 3191 2616 2906 2266 
Q 2828 2175 2409 1742 
Q 1991 1309 1228 531 
z
" transform="scale(0.015625)"/>
       </defs>
       <use xlink:href="#DejaVuSans-32"/>
      </g>
     </g>
    </g>
    <g id="xtick_3">
     <g id="line2d_9">
      <path d="M 230.8608 298.944 
L 230.8608 27.648 
" clip-path="url(#p021b3cc339)" style="fill: none; stroke: #b0b0b0; stroke-width: 0.8; stroke-linecap: square"/>
     </g>
     <g id="line2d_10">
      <g>
       <use xlink:href="#mb5dd6e5afe" x="230.8608" y="298.944" style="stroke: #000000; stroke-width: 0.8"/>
      </g>
     </g>
     <g id="text_3">
      <!-- 4 -->
      <g transform="translate(225.452675 318.861344)scale(0.17 -0.17)">
       <defs>
        <path id="DejaVuSans-34" d="M 2419 4116 
L 825 1625 
L 2419 1625 
L 2419 4116 
z
M 2253 4666 
L 3047 4666 
L 3047 1625 
L 3713 1625 
L 3713 1100 
L 3047 1100 
L 3047 0 
L 2419 0 
L 2419 1100 
L 313 1100 
L 313 1709 
L 2253 4666 
z
" transform="scale(0.015625)"/>
       </defs>
       <use xlink:href="#DejaVuSans-34"/>
      </g>
     </g>
    </g>
    <g id="xtick_4">
     <g id="line2d_11">
      <path d="M 317.4912 298.944 
L 317.4912 27.648 
" clip-path="url(#p021b3cc339)" style="fill: none; stroke: #b0b0b0; stroke-width: 0.8; stroke-linecap: square"/>
     </g>
     <g id="line2d_12">
      <g>
       <use xlink:href="#mb5dd6e5afe" x="317.4912" y="298.944" style="stroke: #000000; stroke-width: 0.8"/>
      </g>
     </g>
     <g id="text_4">
      <!-- 6 -->
      <g transform="translate(312.083075 318.861344)scale(0.17 -0.17)">
       <defs>
        <path id="DejaVuSans-36" d="M 2113 2584 
Q 1688 2584 1439 2293 
Q 1191 2003 1191 1497 
Q 1191 994 1439 701 
Q 1688 409 2113 409 
Q 2538 409 2786 701 
Q 3034 994 3034 1497 
Q 3034 2003 2786 2293 
Q 2538 2584 2113 2584 
z
M 3366 4563 
L 3366 3988 
Q 3128 4100 2886 4159 
Q 2644 4219 2406 4219 
Q 1781 4219 1451 3797 
Q 1122 3375 1075 2522 
Q 1259 2794 1537 2939 
Q 1816 3084 2150 3084 
Q 2853 3084 3261 2657 
Q 3669 2231 3669 1497 
Q 3669 778 3244 343 
Q 2819 -91 2113 -91 
Q 1303 -91 875 529 
Q 447 1150 447 2328 
Q 447 3434 972 4092 
Q 1497 4750 2381 4750 
Q 2619 4750 2861 4703 
Q 3103 4656 3366 4563 
z
" transform="scale(0.015625)"/>
       </defs>
       <use xlink:href="#DejaVuSans-36"/>
      </g>
     </g>
    </g>
    <g id="xtick_5">
     <g id="line2d_13">
      <path d="M 100.9152 298.944 
L 100.9152 27.648 
" clip-path="url(#p021b3cc339)" style="fill: none; stroke: #b0b0b0; stroke-width: 0.8; stroke-linecap: square"/>
     </g>
     <g id="line2d_14">
      <defs>
       <path id="m94d1ab9bbc" d="M 0 0 
L 0 2 
" style="stroke: #000000; stroke-width: 0.6"/>
      </defs>
      <g>
       <use xlink:href="#m94d1ab9bbc" x="100.9152" y="298.944" style="stroke: #000000; stroke-width: 0.6"/>
      </g>
     </g>
    </g>
    <g id="xtick_6">
     <g id="line2d_15">
      <path d="M 187.5456 298.944 
L 187.5456 27.648 
" clip-path="url(#p021b3cc339)" style="fill: none; stroke: #b0b0b0; stroke-width: 0.8; stroke-linecap: square"/>
     </g>
     <g id="line2d_16">
      <g>
       <use xlink:href="#m94d1ab9bbc" x="187.5456" y="298.944" style="stroke: #000000; stroke-width: 0.6"/>
      </g>
     </g>
    </g>
    <g id="xtick_7">
     <g id="line2d_17">
      <path d="M 274.176 298.944 
L 274.176 27.648 
" clip-path="url(#p021b3cc339)" style="fill: none; stroke: #b0b0b0; stroke-width: 0.8; stroke-linecap: square"/>
     </g>
     <g id="line2d_18">
      <g>
       <use xlink:href="#m94d1ab9bbc" x="274.176" y="298.944" style="stroke: #000000; stroke-width: 0.6"/>
      </g>
     </g>
    </g>
    <g id="xtick_8">
     <g id="line2d_19">
      <path d="M 360.8064 298.944 
L 360.8064 27.648 
" clip-path="url(#p021b3cc339)" style="fill: none; stroke: #b0b0b0; stroke-width: 0.8; stroke-linecap: square"/>
     </g>
     <g id="line2d_20">
      <g>
       <use xlink:href="#m94d1ab9bbc" x="360.8064" y="298.944" style="stroke: #000000; stroke-width: 0.6"/>
      </g>
     </g>
    </g>
    <g id="text_5">
     <!-- log10(# f-evals / dimension) -->
     <g transform="translate(88.823278 339.314156)scale(0.17 -0.17)">
      <defs>
       <path id="DejaVuSans-6c" d="M 603 4863 
L 1178 4863 
L 1178 0 
L 603 0 
L 603 4863 
z
" transform="scale(0.015625)"/>
       <path id="DejaVuSans-6f" d="M 1959 3097 
Q 1497 3097 1228 2736 
Q 959 2375 959 1747 
Q 959 1119 1226 758 
Q 1494 397 1959 397 
Q 2419 397 2687 759 
Q 2956 1122 2956 1747 
Q 2956 2369 2687 2733 
Q 2419 3097 1959 3097 
z
M 1959 3584 
Q 2709 3584 3137 3096 
Q 3566 2609 3566 1747 
Q 3566 888 3137 398 
Q 2709 -91 1959 -91 
Q 1206 -91 779 398 
Q 353 888 353 1747 
Q 353 2609 779 3096 
Q 1206 3584 1959 3584 
z
" transform="scale(0.015625)"/>
       <path id="DejaVuSans-67" d="M 2906 1791 
Q 2906 2416 2648 2759 
Q 2391 3103 1925 3103 
Q 1463 3103 1205 2759 
Q 947 2416 947 1791 
Q 947 1169 1205 825 
Q 1463 481 1925 481 
Q 2391 481 2648 825 
Q 2906 1169 2906 1791 
z
M 3481 434 
Q 3481 -459 3084 -895 
Q 2688 -1331 1869 -1331 
Q 1566 -1331 1297 -1286 
Q 1028 -1241 775 -1147 
L 775 -588 
Q 1028 -725 1275 -790 
Q 1522 -856 1778 -856 
Q 2344 -856 2625 -561 
Q 2906 -266 2906 331 
L 2906 616 
Q 2728 306 2450 153 
Q 2172 0 1784 0 
Q 1141 0 747 490 
Q 353 981 353 1791 
Q 353 2603 747 3093 
Q 1141 3584 1784 3584 
Q 2172 3584 2450 3431 
Q 2728 3278 2906 2969 
L 2906 3500 
L 3481 3500 
L 3481 434 
z
" transform="scale(0.015625)"/>
       <path id="DejaVuSans-31" d="M 794 531 
L 1825 531 
L 1825 4091 
L 703 3866 
L 703 4441 
L 1819 4666 
L 2450 4666 
L 2450 531 
L 3481 531 
L 3481 0 
L 794 0 
L 794 531 
z
" transform="scale(0.015625)"/>
       <path id="DejaVuSans-28" d="M 1984 4856 
Q 1566 4138 1362 3434 
Q 1159 2731 1159 2009 
Q 1159 1288 1364 580 
Q 1569 -128 1984 -844 
L 1484 -844 
Q 1016 -109 783 600 
Q 550 1309 550 2009 
Q 550 2706 781 3412 
Q 1013 4119 1484 4856 
L 1984 4856 
z
" transform="scale(0.015625)"/>
       <path id="DejaVuSans-23" d="M 3272 2816 
L 2363 2816 
L 2100 1772 
L 3016 1772 
L 3272 2816 
z
M 2803 4594 
L 2478 3297 
L 3391 3297 
L 3719 4594 
L 4219 4594 
L 3897 3297 
L 4872 3297 
L 4872 2816 
L 3775 2816 
L 3519 1772 
L 4513 1772 
L 4513 1294 
L 3397 1294 
L 3072 0 
L 2572 0 
L 2894 1294 
L 1978 1294 
L 1656 0 
L 1153 0 
L 1478 1294 
L 494 1294 
L 494 1772 
L 1594 1772 
L 1856 2816 
L 850 2816 
L 850 3297 
L 1978 3297 
L 2297 4594 
L 2803 4594 
z
" transform="scale(0.015625)"/>
       <path id="DejaVuSans-20" transform="scale(0.015625)"/>
       <path id="DejaVuSans-66" d="M 2375 4863 
L 2375 4384 
L 1825 4384 
Q 1516 4384 1395 4259 
Q 1275 4134 1275 3809 
L 1275 3500 
L 2222 3500 
L 2222 3053 
L 1275 3053 
L 1275 0 
L 697 0 
L 697 3053 
L 147 3053 
L 147 3500 
L 697 3500 
L 697 3744 
Q 697 4328 969 4595 
Q 1241 4863 1831 4863 
L 2375 4863 
z
" transform="scale(0.015625)"/>
       <path id="DejaVuSans-2d" d="M 313 2009 
L 1997 2009 
L 1997 1497 
L 313 1497 
L 313 2009 
z
" transform="scale(0.015625)"/>
       <path id="DejaVuSans-65" d="M 3597 1894 
L 3597 1613 
L 953 1613 
Q 991 1019 1311 708 
Q 1631 397 2203 397 
Q 2534 397 2845 478 
Q 3156 559 3463 722 
L 3463 178 
Q 3153 47 2828 -22 
Q 2503 -91 2169 -91 
Q 1331 -91 842 396 
Q 353 884 353 1716 
Q 353 2575 817 3079 
Q 1281 3584 2069 3584 
Q 2775 3584 3186 3129 
Q 3597 2675 3597 1894 
z
M 3022 2063 
Q 3016 2534 2758 2815 
Q 2500 3097 2075 3097 
Q 1594 3097 1305 2825 
Q 1016 2553 972 2059 
L 3022 2063 
z
" transform="scale(0.015625)"/>
       <path id="DejaVuSans-76" d="M 191 3500 
L 800 3500 
L 1894 563 
L 2988 3500 
L 3597 3500 
L 2284 0 
L 1503 0 
L 191 3500 
z
" transform="scale(0.015625)"/>
       <path id="DejaVuSans-61" d="M 2194 1759 
Q 1497 1759 1228 1600 
Q 959 1441 959 1056 
Q 959 750 1161 570 
Q 1363 391 1709 391 
Q 2188 391 2477 730 
Q 2766 1069 2766 1631 
L 2766 1759 
L 2194 1759 
z
M 3341 1997 
L 3341 0 
L 2766 0 
L 2766 531 
Q 2569 213 2275 61 
Q 1981 -91 1556 -91 
Q 1019 -91 701 211 
Q 384 513 384 1019 
Q 384 1609 779 1909 
Q 1175 2209 1959 2209 
L 2766 2209 
L 2766 2266 
Q 2766 2663 2505 2880 
Q 2244 3097 1772 3097 
Q 1472 3097 1187 3025 
Q 903 2953 641 2809 
L 641 3341 
Q 956 3463 1253 3523 
Q 1550 3584 1831 3584 
Q 2591 3584 2966 3190 
Q 3341 2797 3341 1997 
z
" transform="scale(0.015625)"/>
       <path id="DejaVuSans-73" d="M 2834 3397 
L 2834 2853 
Q 2591 2978 2328 3040 
Q 2066 3103 1784 3103 
Q 1356 3103 1142 2972 
Q 928 2841 928 2578 
Q 928 2378 1081 2264 
Q 1234 2150 1697 2047 
L 1894 2003 
Q 2506 1872 2764 1633 
Q 3022 1394 3022 966 
Q 3022 478 2636 193 
Q 2250 -91 1575 -91 
Q 1294 -91 989 -36 
Q 684 19 347 128 
L 347 722 
Q 666 556 975 473 
Q 1284 391 1588 391 
Q 1994 391 2212 530 
Q 2431 669 2431 922 
Q 2431 1156 2273 1281 
Q 2116 1406 1581 1522 
L 1381 1569 
Q 847 1681 609 1914 
Q 372 2147 372 2553 
Q 372 3047 722 3315 
Q 1072 3584 1716 3584 
Q 2034 3584 2315 3537 
Q 2597 3491 2834 3397 
z
" transform="scale(0.015625)"/>
       <path id="DejaVuSans-2f" d="M 1625 4666 
L 2156 4666 
L 531 -594 
L 0 -594 
L 1625 4666 
z
" transform="scale(0.015625)"/>
       <path id="DejaVuSans-64" d="M 2906 2969 
L 2906 4863 
L 3481 4863 
L 3481 0 
L 2906 0 
L 2906 525 
Q 2725 213 2448 61 
Q 2172 -91 1784 -91 
Q 1150 -91 751 415 
Q 353 922 353 1747 
Q 353 2572 751 3078 
Q 1150 3584 1784 3584 
Q 2172 3584 2448 3432 
Q 2725 3281 2906 2969 
z
M 947 1747 
Q 947 1113 1208 752 
Q 1469 391 1925 391 
Q 2381 391 2643 752 
Q 2906 1113 2906 1747 
Q 2906 2381 2643 2742 
Q 2381 3103 1925 3103 
Q 1469 3103 1208 2742 
Q 947 2381 947 1747 
z
" transform="scale(0.015625)"/>
       <path id="DejaVuSans-69" d="M 603 3500 
L 1178 3500 
L 1178 0 
L 603 0 
L 603 3500 
z
M 603 4863 
L 1178 4863 
L 1178 4134 
L 603 4134 
L 603 4863 
z
" transform="scale(0.015625)"/>
       <path id="DejaVuSans-6d" d="M 3328 2828 
Q 3544 3216 3844 3400 
Q 4144 3584 4550 3584 
Q 5097 3584 5394 3201 
Q 5691 2819 5691 2113 
L 5691 0 
L 5113 0 
L 5113 2094 
Q 5113 2597 4934 2840 
Q 4756 3084 4391 3084 
Q 3944 3084 3684 2787 
Q 3425 2491 3425 1978 
L 3425 0 
L 2847 0 
L 2847 2094 
Q 2847 2600 2669 2842 
Q 2491 3084 2119 3084 
Q 1678 3084 1418 2786 
Q 1159 2488 1159 1978 
L 1159 0 
L 581 0 
L 581 3500 
L 1159 3500 
L 1159 2956 
Q 1356 3278 1631 3431 
Q 1906 3584 2284 3584 
Q 2666 3584 2933 3390 
Q 3200 3197 3328 2828 
z
" transform="scale(0.015625)"/>
       <path id="DejaVuSans-6e" d="M 3513 2113 
L 3513 0 
L 2938 0 
L 2938 2094 
Q 2938 2591 2744 2837 
Q 2550 3084 2163 3084 
Q 1697 3084 1428 2787 
Q 1159 2491 1159 1978 
L 1159 0 
L 581 0 
L 581 3500 
L 1159 3500 
L 1159 2956 
Q 1366 3272 1645 3428 
Q 1925 3584 2291 3584 
Q 2894 3584 3203 3211 
Q 3513 2838 3513 2113 
z
" transform="scale(0.015625)"/>
       <path id="DejaVuSans-29" d="M 513 4856 
L 1013 4856 
Q 1481 4119 1714 3412 
Q 1947 2706 1947 2009 
Q 1947 1309 1714 600 
Q 1481 -109 1013 -844 
L 513 -844 
Q 928 -128 1133 580 
Q 1338 1288 1338 2009 
Q 1338 2731 1133 3434 
Q 928 4138 513 4856 
z
" transform="scale(0.015625)"/>
      </defs>
      <use xlink:href="#DejaVuSans-6c"/>
      <use xlink:href="#DejaVuSans-6f" x="27.783203"/>
      <use xlink:href="#DejaVuSans-67" x="88.964844"/>
      <use xlink:href="#DejaVuSans-31" x="152.441406"/>
      <use xlink:href="#DejaVuSans-30" x="216.064453"/>
      <use xlink:href="#DejaVuSans-28" x="279.6875"/>
      <use xlink:href="#DejaVuSans-23" x="318.701172"/>
      <use xlink:href="#DejaVuSans-20" x="402.490234"/>
      <use xlink:href="#DejaVuSans-66" x="434.277344"/>
      <use xlink:href="#DejaVuSans-2d" x="463.982422"/>
      <use xlink:href="#DejaVuSans-65" x="500.066406"/>
      <use xlink:href="#DejaVuSans-76" x="561.589844"/>
      <use xlink:href="#DejaVuSans-61" x="620.769531"/>
      <use xlink:href="#DejaVuSans-6c" x="682.048828"/>
      <use xlink:href="#DejaVuSans-73" x="709.832031"/>
      <use xlink:href="#DejaVuSans-20" x="761.931641"/>
      <use xlink:href="#DejaVuSans-2f" x="793.71875"/>
      <use xlink:href="#DejaVuSans-20" x="827.410156"/>
      <use xlink:href="#DejaVuSans-64" x="859.197266"/>
      <use xlink:href="#DejaVuSans-69" x="922.673828"/>
      <use xlink:href="#DejaVuSans-6d" x="950.457031"/>
      <use xlink:href="#DejaVuSans-65" x="1047.869141"/>
      <use xlink:href="#DejaVuSans-6e" x="1109.392578"/>
      <use xlink:href="#DejaVuSans-73" x="1172.771484"/>
      <use xlink:href="#DejaVuSans-69" x="1224.871094"/>
      <use xlink:href="#DejaVuSans-6f" x="1252.654297"/>
      <use xlink:href="#DejaVuSans-6e" x="1313.835938"/>
      <use xlink:href="#DejaVuSans-29" x="1377.214844"/>
     </g>
    </g>
   </g>
   <g id="matplotlib.axis_2">
    <g id="ytick_1">
     <g id="line2d_21">
      <path d="M 57.6 298.944 
L 360.8064 298.944 
" clip-path="url(#p021b3cc339)" style="fill: none; stroke: #b0b0b0; stroke-width: 0.8; stroke-linecap: square"/>
     </g>
     <g id="line2d_22">
      <defs>
       <path id="m6ed1a0e8b0" d="M 0 0 
L -3.5 0 
" style="stroke: #000000; stroke-width: 0.8"/>
      </defs>
      <g>
       <use xlink:href="#m6ed1a0e8b0" x="57.6" y="298.944" style="stroke: #000000; stroke-width: 0.8"/>
      </g>
     </g>
     <g id="text_6">
      <!-- 0.0 -->
      <g transform="translate(25.155 305.02275)scale(0.16 -0.16)">
       <defs>
        <path id="DejaVuSans-2e" d="M 684 794 
L 1344 794 
L 1344 0 
L 684 0 
L 684 794 
z
" transform="scale(0.015625)"/>
       </defs>
       <use xlink:href="#DejaVuSans-30"/>
       <use xlink:href="#DejaVuSans-2e" x="63.623047"/>
       <use xlink:href="#DejaVuSans-30" x="95.410156"/>
      </g>
     </g>
    </g>
    <g id="ytick_2">
     <g id="line2d_23">
      <path d="M 57.6 244.6848 
L 360.8064 244.6848 
" clip-path="url(#p021b3cc339)" style="fill: none; stroke: #b0b0b0; stroke-width: 0.8; stroke-linecap: square"/>
     </g>
     <g id="line2d_24">
      <g>
       <use xlink:href="#m6ed1a0e8b0" x="57.6" y="244.6848" style="stroke: #000000; stroke-width: 0.8"/>
      </g>
     </g>
     <g id="text_7">
      <!-- 0.2 -->
      <g transform="translate(25.155 250.76355)scale(0.16 -0.16)">
       <use xlink:href="#DejaVuSans-30"/>
       <use xlink:href="#DejaVuSans-2e" x="63.623047"/>
       <use xlink:href="#DejaVuSans-32" x="95.410156"/>
      </g>
     </g>
    </g>
    <g id="ytick_3">
     <g id="line2d_25">
      <path d="M 57.6 190.4256 
L 360.8064 190.4256 
" clip-path="url(#p021b3cc339)" style="fill: none; stroke: #b0b0b0; stroke-width: 0.8; stroke-linecap: square"/>
     </g>
     <g id="line2d_26">
      <g>
       <use xlink:href="#m6ed1a0e8b0" x="57.6" y="190.4256" style="stroke: #000000; stroke-width: 0.8"/>
      </g>
     </g>
     <g id="text_8">
      <!-- 0.4 -->
      <g transform="translate(25.155 196.50435)scale(0.16 -0.16)">
       <use xlink:href="#DejaVuSans-30"/>
       <use xlink:href="#DejaVuSans-2e" x="63.623047"/>
       <use xlink:href="#DejaVuSans-34" x="95.410156"/>
      </g>
     </g>
    </g>
    <g id="ytick_4">
     <g id="line2d_27">
      <path d="M 57.6 136.1664 
L 360.8064 136.1664 
" clip-path="url(#p021b3cc339)" style="fill: none; stroke: #b0b0b0; stroke-width: 0.8; stroke-linecap: square"/>
     </g>
     <g id="line2d_28">
      <g>
       <use xlink:href="#m6ed1a0e8b0" x="57.6" y="136.1664" style="stroke: #000000; stroke-width: 0.8"/>
      </g>
     </g>
     <g id="text_9">
      <!-- 0.6 -->
      <g transform="translate(25.155 142.24515)scale(0.16 -0.16)">
       <use xlink:href="#DejaVuSans-30"/>
       <use xlink:href="#DejaVuSans-2e" x="63.623047"/>
       <use xlink:href="#DejaVuSans-36" x="95.410156"/>
      </g>
     </g>
    </g>
    <g id="ytick_5">
     <g id="line2d_29">
      <path d="M 57.6 81.9072 
L 360.8064 81.9072 
" clip-path="url(#p021b3cc339)" style="fill: none; stroke: #b0b0b0; stroke-width: 0.8; stroke-linecap: square"/>
     </g>
     <g id="line2d_30">
      <g>
       <use xlink:href="#m6ed1a0e8b0" x="57.6" y="81.9072" style="stroke: #000000; stroke-width: 0.8"/>
      </g>
     </g>
     <g id="text_10">
      <!-- 0.8 -->
      <g transform="translate(25.155 87.98595)scale(0.16 -0.16)">
       <defs>
        <path id="DejaVuSans-38" d="M 2034 2216 
Q 1584 2216 1326 1975 
Q 1069 1734 1069 1313 
Q 1069 891 1326 650 
Q 1584 409 2034 409 
Q 2484 409 2743 651 
Q 3003 894 3003 1313 
Q 3003 1734 2745 1975 
Q 2488 2216 2034 2216 
z
M 1403 2484 
Q 997 2584 770 2862 
Q 544 3141 544 3541 
Q 544 4100 942 4425 
Q 1341 4750 2034 4750 
Q 2731 4750 3128 4425 
Q 3525 4100 3525 3541 
Q 3525 3141 3298 2862 
Q 3072 2584 2669 2484 
Q 3125 2378 3379 2068 
Q 3634 1759 3634 1313 
Q 3634 634 3220 271 
Q 2806 -91 2034 -91 
Q 1263 -91 848 271 
Q 434 634 434 1313 
Q 434 1759 690 2068 
Q 947 2378 1403 2484 
z
M 1172 3481 
Q 1172 3119 1398 2916 
Q 1625 2713 2034 2713 
Q 2441 2713 2670 2916 
Q 2900 3119 2900 3481 
Q 2900 3844 2670 4047 
Q 2441 4250 2034 4250 
Q 1625 4250 1398 4047 
Q 1172 3844 1172 3481 
z
" transform="scale(0.015625)"/>
       </defs>
       <use xlink:href="#DejaVuSans-30"/>
       <use xlink:href="#DejaVuSans-2e" x="63.623047"/>
       <use xlink:href="#DejaVuSans-38" x="95.410156"/>
      </g>
     </g>
    </g>
    <g id="ytick_6">
     <g id="line2d_31">
      <path d="M 57.6 27.648 
L 360.8064 27.648 
" clip-path="url(#p021b3cc339)" style="fill: none; stroke: #b0b0b0; stroke-width: 0.8; stroke-linecap: square"/>
     </g>
     <g id="line2d_32">
      <g>
       <use xlink:href="#m6ed1a0e8b0" x="57.6" y="27.648" style="stroke: #000000; stroke-width: 0.8"/>
      </g>
     </g>
     <g id="text_11">
      <!-- 1.0 -->
      <g transform="translate(25.155 33.72675)scale(0.16 -0.16)">
       <use xlink:href="#DejaVuSans-31"/>
       <use xlink:href="#DejaVuSans-2e" x="63.623047"/>
       <use xlink:href="#DejaVuSans-30" x="95.410156"/>
      </g>
     </g>
    </g>
    <g id="text_12">
     <!-- Fraction of function,target pairs -->
     <g transform="translate(17.619531 297.681)rotate(-90)scale(0.17 -0.17)">
      <defs>
       <path id="DejaVuSans-46" d="M 628 4666 
L 3309 4666 
L 3309 4134 
L 1259 4134 
L 1259 2759 
L 3109 2759 
L 3109 2228 
L 1259 2228 
L 1259 0 
L 628 0 
L 628 4666 
z
" transform="scale(0.015625)"/>
       <path id="DejaVuSans-72" d="M 2631 2963 
Q 2534 3019 2420 3045 
Q 2306 3072 2169 3072 
Q 1681 3072 1420 2755 
Q 1159 2438 1159 1844 
L 1159 0 
L 581 0 
L 581 3500 
L 1159 3500 
L 1159 2956 
Q 1341 3275 1631 3429 
Q 1922 3584 2338 3584 
Q 2397 3584 2469 3576 
Q 2541 3569 2628 3553 
L 2631 2963 
z
" transform="scale(0.015625)"/>
       <path id="DejaVuSans-63" d="M 3122 3366 
L 3122 2828 
Q 2878 2963 2633 3030 
Q 2388 3097 2138 3097 
Q 1578 3097 1268 2742 
Q 959 2388 959 1747 
Q 959 1106 1268 751 
Q 1578 397 2138 397 
Q 2388 397 2633 464 
Q 2878 531 3122 666 
L 3122 134 
Q 2881 22 2623 -34 
Q 2366 -91 2075 -91 
Q 1284 -91 818 406 
Q 353 903 353 1747 
Q 353 2603 823 3093 
Q 1294 3584 2113 3584 
Q 2378 3584 2631 3529 
Q 2884 3475 3122 3366 
z
" transform="scale(0.015625)"/>
       <path id="DejaVuSans-74" d="M 1172 4494 
L 1172 3500 
L 2356 3500 
L 2356 3053 
L 1172 3053 
L 1172 1153 
Q 1172 725 1289 603 
Q 1406 481 1766 481 
L 2356 481 
L 2356 0 
L 1766 0 
Q 1100 0 847 248 
Q 594 497 594 1153 
L 594 3053 
L 172 3053 
L 172 3500 
L 594 3500 
L 594 4494 
L 1172 4494 
z
" transform="scale(0.015625)"/>
       <path id="DejaVuSans-75" d="M 544 1381 
L 544 3500 
L 1119 3500 
L 1119 1403 
Q 1119 906 1312 657 
Q 1506 409 1894 409 
Q 2359 409 2629 706 
Q 2900 1003 2900 1516 
L 2900 3500 
L 3475 3500 
L 3475 0 
L 2900 0 
L 2900 538 
Q 2691 219 2414 64 
Q 2138 -91 1772 -91 
Q 1169 -91 856 284 
Q 544 659 544 1381 
z
M 1991 3584 
L 1991 3584 
z
" transform="scale(0.015625)"/>
       <path id="DejaVuSans-2c" d="M 750 794 
L 1409 794 
L 1409 256 
L 897 -744 
L 494 -744 
L 750 256 
L 750 794 
z
" transform="scale(0.015625)"/>
       <path id="DejaVuSans-70" d="M 1159 525 
L 1159 -1331 
L 581 -1331 
L 581 3500 
L 1159 3500 
L 1159 2969 
Q 1341 3281 1617 3432 
Q 1894 3584 2278 3584 
Q 2916 3584 3314 3078 
Q 3713 2572 3713 1747 
Q 3713 922 3314 415 
Q 2916 -91 2278 -91 
Q 1894 -91 1617 61 
Q 1341 213 1159 525 
z
M 3116 1747 
Q 3116 2381 2855 2742 
Q 2594 3103 2138 3103 
Q 1681 3103 1420 2742 
Q 1159 2381 1159 1747 
Q 1159 1113 1420 752 
Q 1681 391 2138 391 
Q 2594 391 2855 752 
Q 3116 1113 3116 1747 
z
" transform="scale(0.015625)"/>
      </defs>
      <use xlink:href="#DejaVuSans-46"/>
      <use xlink:href="#DejaVuSans-72" x="50.269531"/>
      <use xlink:href="#DejaVuSans-61" x="91.382812"/>
      <use xlink:href="#DejaVuSans-63" x="152.662109"/>
      <use xlink:href="#DejaVuSans-74" x="207.642578"/>
      <use xlink:href="#DejaVuSans-69" x="246.851562"/>
      <use xlink:href="#DejaVuSans-6f" x="274.634766"/>
      <use xlink:href="#DejaVuSans-6e" x="335.816406"/>
      <use xlink:href="#DejaVuSans-20" x="399.195312"/>
      <use xlink:href="#DejaVuSans-6f" x="430.982422"/>
      <use xlink:href="#DejaVuSans-66" x="492.164062"/>
      <use xlink:href="#DejaVuSans-20" x="527.369141"/>
      <use xlink:href="#DejaVuSans-66" x="559.15625"/>
      <use xlink:href="#DejaVuSans-75" x="594.361328"/>
      <use xlink:href="#DejaVuSans-6e" x="657.740234"/>
      <use xlink:href="#DejaVuSans-63" x="721.119141"/>
      <use xlink:href="#DejaVuSans-74" x="776.099609"/>
      <use xlink:href="#DejaVuSans-69" x="815.308594"/>
      <use xlink:href="#DejaVuSans-6f" x="843.091797"/>
      <use xlink:href="#DejaVuSans-6e" x="904.273438"/>
      <use xlink:href="#DejaVuSans-2c" x="967.652344"/>
      <use xlink:href="#DejaVuSans-74" x="999.439453"/>
      <use xlink:href="#DejaVuSans-61" x="1038.648438"/>
      <use xlink:href="#DejaVuSans-72" x="1099.927734"/>
      <use xlink:href="#DejaVuSans-67" x="1139.291016"/>
      <use xlink:href="#DejaVuSans-65" x="1202.767578"/>
      <use xlink:href="#DejaVuSans-74" x="1264.291016"/>
      <use xlink:href="#DejaVuSans-20" x="1303.5"/>
      <use xlink:href="#DejaVuSans-70" x="1335.287109"/>
      <use xlink:href="#DejaVuSans-61" x="1398.763672"/>
      <use xlink:href="#DejaVuSans-69" x="1460.042969"/>
      <use xlink:href="#DejaVuSans-72" x="1487.826172"/>
      <use xlink:href="#DejaVuSans-73" x="1528.939453"/>
     </g>
    </g>
   </g>
   <g id="line2d_33">
    <defs>
     <path id="m3b49ffeb71" d="M 0 1.5 
C 0.397805 1.5 0.77937 1.341951 1.06066 1.06066 
C 1.341951 0.77937 1.5 0.397805 1.5 0 
C 1.5 -0.397805 1.341951 -0.77937 1.06066 -1.06066 
C 0.77937 -1.341951 0.397805 -1.5 0 -1.5 
C -0.397805 -1.5 -0.77937 -1.341951 -1.06066 -1.06066 
C -1.341951 -0.77937 -1.5 -0.397805 -1.5 0 
C -1.5 0.397805 -1.341951 0.77937 -1.06066 1.06066 
C -0.77937 1.341951 -0.397805 1.5 0 1.5 
z
" style="stroke: #f5deb3"/>
    </defs>
    <g>
     <use xlink:href="#m3b49ffeb71" x="277.476502" y="27.648" style="fill: #f5deb3; stroke: #f5deb3"/>
     <use xlink:href="#m3b49ffeb71" x="277.476502" y="27.648" style="fill: #f5deb3; stroke: #f5deb3"/>
    </g>
   </g>
   <g id="line2d_34">
    <defs>
     <path id="m2926f4e5dd" d="M 0 1.5 
C 0.397805 1.5 0.77937 1.341951 1.06066 1.06066 
C 1.341951 0.77937 1.5 0.397805 1.5 0 
C 1.5 -0.397805 1.341951 -0.77937 1.06066 -1.06066 
C 0.77937 -1.341951 0.397805 -1.5 0 -1.5 
C -0.397805 -1.5 -0.77937 -1.341951 -1.06066 -1.06066 
C -1.341951 -0.77937 -1.5 -0.397805 -1.5 0 
C -1.5 0.397805 -1.341951 0.77937 -1.06066 1.06066 
C -0.77937 1.341951 -0.397805 1.5 0 1.5 
z
" style="stroke: #000080"/>
    </defs>
    <g>
     <use xlink:href="#m2926f4e5dd" x="324.318884" y="213.831529" style="fill: #000080; stroke: #000080"/>
     <use xlink:href="#m2926f4e5dd" x="324.318884" y="213.831529" style="fill: #000080; stroke: #000080"/>
    </g>
   </g>
   <g id="line2d_35">
    <path d="M 36.933397 298.944 
L 36.933397 288.304941 
L 49.972572 288.304941 
L 49.972572 285.113224 
L 67.209423 285.113224 
L 67.209423 284.049318 
L 70.639174 284.049318 
L 70.639174 282.985412 
L 78.266603 282.985412 
L 78.266603 281.921506 
L 92.322865 281.921506 
L 92.322865 279.793694 
L 94.205591 279.793694 
L 94.205591 278.729788 
L 98.223251 278.729788 
L 98.223251 277.665882 
L 105.850679 277.665882 
L 105.850679 276.601976 
L 108.119879 276.601976 
L 108.119879 275.538071 
L 112.656511 275.538071 
L 112.656511 273.410259 
L 119.366121 273.410259 
L 119.366121 272.346353 
L 121.371615 272.346353 
L 121.371615 268.090729 
L 128.928456 268.090729 
L 128.928456 267.026824 
L 131.065395 267.026824 
L 131.065395 265.962918 
L 134.198228 265.962918 
L 134.198228 262.7712 
L 139.232111 262.7712 
L 139.232111 261.707294 
L 139.716555 261.707294 
L 139.716555 260.643388 
L 142.248405 260.643388 
L 142.248405 259.579482 
L 144.16759 259.579482 
L 144.16759 258.515576 
L 147.130214 258.515576 
L 147.130214 257.451671 
L 155.564225 257.451671 
L 155.564225 256.387765 
L 176.916185 256.387765 
L 176.916185 255.323859 
L 193.408083 255.323859 
L 193.408083 254.259953 
L 214.537288 254.259953 
L 214.537288 252.132141 
L 215.308259 252.132141 
L 215.308259 251.068235 
L 217.265441 251.068235 
L 217.265441 250.004329 
L 217.305442 250.004329 
L 217.305442 248.940424 
L 218.907103 248.940424 
L 218.907103 247.876518 
L 219.083838 247.876518 
L 219.083838 245.748706 
L 219.683975 245.748706 
L 219.683975 244.6848 
L 227.913899 244.6848 
L 227.913899 242.556988 
L 227.956387 242.556988 
L 227.956387 241.493082 
L 228.442512 241.493082 
L 228.442512 240.429176 
L 236.931501 240.429176 
L 236.931501 239.365271 
L 238.138872 239.365271 
L 238.138872 238.301365 
L 245.728217 238.301365 
L 245.728217 237.237459 
L 248.533996 237.237459 
L 248.533996 236.173553 
L 248.555549 236.173553 
L 248.555549 235.109647 
L 248.576834 235.109647 
L 248.576834 234.045741 
L 251.880033 234.045741 
L 251.880033 232.981835 
L 255.74196 232.981835 
L 255.74196 228.726212 
L 259.445888 228.726212 
L 259.445888 227.662306 
L 259.44726 227.662306 
L 259.44726 226.5984 
L 259.455216 226.5984 
L 259.455216 225.534494 
L 269.193817 225.534494 
L 269.193817 224.470588 
L 280.171534 224.470588 
L 280.171534 222.342776 
L 281.259726 222.342776 
L 281.259726 221.988141 
L 284.888791 221.988141 
L 284.888791 221.633506 
L 290.450981 221.633506 
L 290.450981 219.860329 
L 291.088698 219.860329 
L 291.088698 219.505694 
L 297.060551 219.505694 
L 297.060551 218.087153 
L 299.12733 218.087153 
L 299.12733 217.732518 
L 305.814076 217.732518 
L 305.814076 216.668612 
L 309.023627 216.668612 
L 309.023627 215.959341 
L 311.764561 215.959341 
L 311.764561 214.5408 
L 314.156447 214.5408 
L 314.156447 214.186165 
L 324.318884 214.186165 
L 324.318884 213.831529 
L 360.8064 213.831529 
" style="fill: none; stroke: #000080; stroke-width: 1.5; stroke-linecap: square"/>
   </g>
   <g id="line2d_36">
    <defs>
     <path id="mf3c3192c8f" d="M 0 6 
C 1.591219 6 3.117479 5.367802 4.242641 4.242641 
C 5.367802 3.117479 6 1.591219 6 0 
C 6 -1.591219 5.367802 -3.117479 4.242641 -4.242641 
C 3.117479 -5.367802 1.591219 -6 0 -6 
C -1.591219 -6 -3.117479 -5.367802 -4.242641 -4.242641 
C -5.367802 -3.117479 -6 -1.591219 -6 0 
C -6 1.591219 -5.367802 3.117479 -4.242641 4.242641 
C -3.117479 5.367802 -1.591219 6 0 6 
z
" style="stroke: #000080; stroke-width: 1.5"/>
    </defs>
    <g>
     <use xlink:href="#mf3c3192c8f" x="112.656511" y="275.538071" style="fill-opacity: 0; stroke: #000080; stroke-width: 1.5"/>
     <use xlink:href="#mf3c3192c8f" x="176.916185" y="255.323859" style="fill-opacity: 0; stroke: #000080; stroke-width: 1.5"/>
     <use xlink:href="#mf3c3192c8f" x="259.455216" y="225.534494" style="fill-opacity: 0; stroke: #000080; stroke-width: 1.5"/>
     <use xlink:href="#mf3c3192c8f" x="324.318884" y="214.186165" style="fill-opacity: 0; stroke: #000080; stroke-width: 1.5"/>
     <use xlink:href="#mf3c3192c8f" x="324.318884" y="213.831529" style="fill-opacity: 0; stroke: #000080; stroke-width: 1.5"/>
     <use xlink:href="#mf3c3192c8f" x="360.8064" y="213.831529" style="fill-opacity: 0; stroke: #000080; stroke-width: 1.5"/>
    </g>
   </g>
   <g id="line2d_37">
    <path style="fill: none; stroke: #000080; stroke-width: 1.5; stroke-linecap: square"/>
    <g/>
   </g>
   <g id="line2d_38">
    <path d="M 274.176439 224.470588 
" clip-path="url(#p021b3cc339)" style="fill: none; stroke: #000080; stroke-width: 1.5; stroke-linecap: square"/>
    <defs>
     <path id="mac002a066e" d="M -12 12 
L 12 -12 
M -12 -12 
L 12 12 
" style="stroke: #000080"/>
    </defs>
    <g clip-path="url(#p021b3cc339)">
     <use xlink:href="#mac002a066e" x="274.176439" y="224.470588" style="fill: #000080; stroke: #000080"/>
    </g>
   </g>
   <g id="line2d_39">
    <defs>
     <path id="mfdd2d51c0e" d="M 0 1.5 
C 0.397805 1.5 0.77937 1.341951 1.06066 1.06066 
C 1.341951 0.77937 1.5 0.397805 1.5 0 
C 1.5 -0.397805 1.341951 -0.77937 1.06066 -1.06066 
C 0.77937 -1.341951 0.397805 -1.5 0 -1.5 
C -0.397805 -1.5 -0.77937 -1.341951 -1.06066 -1.06066 
C -1.341951 -0.77937 -1.5 -0.397805 -1.5 0 
C -1.5 0.397805 -1.341951 0.77937 -1.06066 1.06066 
C -0.77937 1.341951 -0.397805 1.5 0 1.5 
z
" style="stroke: #ff00ff"/>
    </defs>
    <g>
     <use xlink:href="#mfdd2d51c0e" x="372.893159" y="27.648" style="fill: #ff00ff; stroke: #ff00ff"/>
     <use xlink:href="#mfdd2d51c0e" x="372.893159" y="27.648" style="fill: #ff00ff; stroke: #ff00ff"/>
    </g>
   </g>
   <g id="line2d_40">
    <path d="M 36.933397 298.944 
L 36.933397 288.659576 
L 49.972572 288.659576 
L 49.972572 285.822494 
L 57.6 285.822494 
L 57.6 285.113224 
L 67.209423 285.113224 
L 67.209423 283.694682 
L 70.639174 283.694682 
L 70.639174 283.340047 
L 73.538988 283.340047 
L 73.538988 282.985412 
L 76.050921 282.985412 
L 76.050921 282.630776 
L 78.266603 282.630776 
L 78.266603 281.566871 
L 80.248597 281.566871 
L 80.248597 281.212235 
L 82.04153 281.212235 
L 82.04153 280.502965 
L 89.090095 280.502965 
L 89.090095 280.148329 
L 90.230539 280.148329 
L 90.230539 278.375153 
L 95.080704 278.375153 
L 95.080704 277.665882 
L 95.916911 277.665882 
L 95.916911 277.311247 
L 98.223251 277.311247 
L 98.223251 276.956612 
L 100.277459 276.956612 
L 100.277459 276.247341 
L 100.9152 276.247341 
L 100.9152 275.892706 
L 101.532027 275.892706 
L 101.532027 275.538071 
L 102.708132 275.538071 
L 102.708132 274.8288 
L 111.262425 274.8288 
L 111.262425 271.991718 
L 111.97238 271.991718 
L 111.97238 271.637082 
L 113.638206 271.637082 
L 113.638206 271.282447 
L 115.460102 271.282447 
L 115.460102 270.218541 
L 115.747307 270.218541 
L 115.747307 269.863906 
L 116.030193 269.863906 
L 116.030193 269.154635 
L 117.384126 269.154635 
L 117.384126 268.8 
L 119.599808 268.8 
L 119.599808 268.445365 
L 121.789667 268.445365 
L 121.789667 268.090729 
L 122.399825 268.090729 
L 122.399825 267.736094 
L 124.836562 267.736094 
L 124.836562 267.381459 
L 127.761474 267.381459 
L 127.761474 266.672188 
L 129.622688 266.672188 
L 129.622688 266.317553 
L 129.758512 266.317553 
L 129.758512 265.962918 
L 130.027253 265.962918 
L 130.027253 265.608282 
L 130.938718 265.608282 
L 130.938718 265.253647 
L 133.210806 265.253647 
L 133.210806 264.899012 
L 134.828842 264.899012 
L 134.828842 264.544376 
L 139.636676 264.544376 
L 139.636676 263.835106 
L 140.420604 263.835106 
L 140.420604 263.125835 
L 144.2304 263.125835 
L 144.2304 262.7712 
L 144.417581 262.7712 
L 144.417581 262.416565 
L 145.736128 262.416565 
L 145.736128 262.061929 
L 146.859539 262.061929 
L 146.859539 261.707294 
L 150.958812 261.707294 
L 150.958812 261.352659 
L 151.392277 261.352659 
L 151.392277 260.643388 
L 151.774035 260.643388 
L 151.774035 260.288753 
L 152.595631 260.288753 
L 152.595631 259.934118 
L 154.432362 259.934118 
L 154.432362 259.579482 
L 155.598521 259.579482 
L 155.701037 257.806306 
L 162.984551 257.806306 
L 162.984551 256.7424 
L 167.562457 256.7424 
L 167.562457 256.387765 
L 169.458999 256.387765 
L 169.458999 256.033129 
L 169.622295 256.033129 
L 169.622295 255.678494 
L 174.062287 255.678494 
L 174.062287 254.969224 
L 176.401688 254.969224 
L 176.401688 254.614588 
L 183.774156 254.614588 
L 183.774156 254.259953 
L 185.0265 254.259953 
L 185.0265 253.550682 
L 185.922457 253.550682 
L 185.922457 253.196047 
L 186.058675 253.196047 
L 186.058675 252.841412 
L 186.771142 252.841412 
L 186.771142 252.486776 
L 192.306628 252.486776 
L 192.306628 252.132141 
L 195.938947 252.132141 
L 195.938947 251.777506 
L 196.59367 251.777506 
L 196.59367 251.422871 
L 197.1249 251.422871 
L 197.1249 251.068235 
L 197.331026 251.068235 
L 197.3757 250.358965 
L 197.626869 250.358965 
L 197.626869 250.004329 
L 197.910905 250.004329 
L 198.011829 249.295059 
L 199.708765 249.295059 
L 199.708765 248.940424 
L 200.920371 248.940424 
L 200.920371 248.585788 
L 201.550308 248.585788 
L 201.550308 248.231153 
L 203.374082 248.231153 
L 203.484588 247.521882 
L 204.719641 247.521882 
L 204.794988 246.812612 
L 205.517842 246.812612 
L 205.517842 246.457976 
L 205.662011 246.457976 
L 205.662011 246.103341 
L 206.090344 246.103341 
L 206.092684 245.394071 
L 206.34828 245.394071 
L 206.43118 244.330165 
L 211.45641 244.330165 
L 211.45641 243.975529 
L 212.263838 243.975529 
L 212.263838 243.620894 
L 212.606164 243.620894 
L 212.606164 243.266259 
L 213.266286 243.266259 
L 213.266286 242.556988 
L 215.31829 242.556988 
L 215.31829 242.202353 
L 233.008358 242.202353 
L 233.008358 241.138447 
L 236.364498 241.138447 
L 236.364498 240.783812 
L 236.816718 240.783812 
L 236.816718 240.429176 
L 239.520755 240.429176 
L 239.520755 240.074541 
L 239.72384 240.074541 
L 239.72384 239.719906 
L 263.990467 239.719906 
L 263.990467 237.946729 
L 265.659255 237.946729 
L 265.722751 237.237459 
L 266.695573 237.237459 
L 266.695573 235.818918 
L 267.317912 235.818918 
L 267.317912 235.464282 
L 267.895994 235.464282 
L 267.895994 235.109647 
L 268.389413 235.109647 
L 268.485459 234.045741 
L 268.784643 234.045741 
L 268.784643 232.981835 
L 269.07133 232.981835 
L 269.177138 230.499388 
L 269.248652 230.499388 
L 269.346339 228.371576 
L 269.374041 228.371576 
L 269.469872 225.889129 
L 291.142693 225.889129 
L 291.142693 225.534494 
L 291.254672 225.534494 
L 291.345284 224.825224 
L 291.374436 224.825224 
L 291.374436 224.470588 
L 291.652978 224.470588 
L 291.755813 223.406682 
L 291.815738 223.406682 
L 291.815738 223.052047 
L 291.958473 223.052047 
L 292.050711 221.988141 
L 292.109029 221.988141 
L 292.170371 221.278871 
L 292.634938 221.278871 
L 292.634938 220.924235 
L 292.991092 220.924235 
L 292.991092 220.5696 
L 295.264585 220.5696 
L 295.264585 219.860329 
L 295.569831 219.860329 
L 295.655501 218.796424 
L 296.125366 218.796424 
L 296.204427 216.668612 
L 296.27642 216.668612 
L 296.339627 215.604706 
L 296.402314 215.604706 
L 296.402314 215.250071 
L 296.551265 215.250071 
L 296.65838 213.476894 
L 296.684647 213.476894 
L 296.772776 210.639812 
L 296.8434 210.639812 
L 296.946869 208.866635 
L 296.993927 208.866635 
L 296.993927 208.512 
L 297.292224 208.512 
L 297.335204 207.448094 
L 297.843244 207.448094 
L 297.904783 206.384188 
L 297.962473 206.384188 
L 297.987389 205.320282 
L 304.362319 205.320282 
L 304.362319 204.965647 
L 304.520938 204.965647 
L 304.614829 203.901741 
L 304.700409 203.901741 
L 304.755466 203.192471 
L 304.847215 203.192471 
L 304.940033 202.128565 
L 305.020974 202.128565 
L 305.020974 201.773929 
L 305.457522 201.773929 
L 305.463656 201.064659 
L 306.520441 201.064659 
L 306.579255 200.355388 
L 306.641905 200.355388 
L 306.641905 200.000753 
L 306.81009 200.000753 
L 306.903533 199.291482 
L 307.03394 199.291482 
L 307.124768 197.163671 
L 307.146526 197.163671 
L 307.241474 195.390494 
L 307.278374 195.390494 
L 307.316699 193.971953 
L 307.426014 193.971953 
L 307.512895 192.198776 
L 307.544873 192.198776 
L 307.544873 191.844141 
L 307.661981 191.844141 
L 307.760344 190.4256 
L 307.78409 190.4256 
L 307.861491 189.361694 
L 308.128001 189.361694 
L 308.169483 188.652424 
L 312.173235 188.652424 
L 312.173235 188.297788 
L 312.450513 188.297788 
L 312.515676 187.588518 
L 312.614059 187.588518 
L 312.614059 187.233882 
L 313.631168 187.233882 
L 313.732632 185.815341 
L 313.778505 185.815341 
L 313.817018 185.106071 
L 313.899645 185.106071 
L 314.009977 184.042165 
L 314.026713 184.042165 
L 314.136095 180.495812 
L 314.161635 180.495812 
L 314.266554 179.077271 
L 314.28829 179.077271 
L 314.381605 177.658729 
L 314.668827 177.658729 
L 314.77278 176.594824 
L 314.845738 176.594824 
L 314.845738 176.240188 
L 314.961558 176.240188 
L 315.072335 175.530918 
L 317.454262 175.530918 
L 317.50608 174.821647 
L 317.710272 174.821647 
L 317.811613 174.112376 
L 318.332644 174.112376 
L 318.332644 173.757741 
L 318.61357 173.757741 
L 318.61357 173.403106 
L 318.809865 173.403106 
L 318.809865 173.048471 
L 318.936913 173.048471 
L 319.037592 170.920659 
L 319.078629 170.920659 
L 319.184791 169.856753 
L 319.205152 169.856753 
L 319.296692 168.438212 
L 319.387018 168.438212 
L 319.490945 166.3104 
L 319.804299 166.3104 
L 319.858987 165.601129 
L 322.226978 165.601129 
L 322.226978 165.246494 
L 322.755039 165.246494 
L 322.842191 163.473318 
L 322.883462 163.473318 
L 322.994439 161.700141 
L 323.011056 161.700141 
L 323.118096 158.863059 
L 323.1636 158.863059 
L 323.255919 156.380612 
L 323.282527 156.380612 
L 323.334605 155.316706 
L 323.406838 155.316706 
L 323.511355 153.543529 
L 323.726674 153.543529 
L 323.726674 153.188894 
L 325.402161 153.188894 
L 325.402161 152.834259 
L 326.072061 152.834259 
L 326.143624 151.770353 
L 326.235852 151.770353 
L 326.341138 148.933271 
L 326.352146 148.933271 
L 326.449328 146.096188 
L 326.488835 146.096188 
L 326.491159 145.386918 
L 326.626586 145.386918 
L 326.665095 144.677647 
L 326.812927 144.677647 
L 326.812927 144.323012 
L 328.629224 144.323012 
L 328.629224 143.968376 
L 329.005608 143.968376 
L 329.05368 142.904471 
L 329.127884 142.904471 
L 329.234685 141.131294 
L 329.244003 141.131294 
L 329.337863 139.712753 
L 329.383861 139.712753 
L 329.383861 139.358118 
L 329.497743 139.358118 
L 329.581883 138.648847 
L 331.094842 138.648847 
L 331.094842 138.294212 
L 331.207321 138.294212 
L 331.278002 136.875671 
L 331.460118 136.875671 
L 331.562868 134.747859 
L 331.577953 134.747859 
L 331.682473 131.556141 
L 331.706106 131.556141 
L 331.714757 130.846871 
L 331.824719 130.846871 
L 331.868257 129.782965 
L 333.48026 129.782965 
L 333.496599 129.073694 
L 333.605645 129.073694 
L 333.69065 125.881976 
L 333.729933 125.881976 
L 333.808196 124.1088 
L 333.885086 124.1088 
L 333.950049 123.399529 
L 335.126951 123.399529 
L 335.215313 122.690259 
L 335.244473 122.690259 
L 335.244473 122.335624 
L 335.420746 122.335624 
L 335.496809 120.917082 
L 335.57084 120.917082 
L 335.678153 119.498541 
L 335.733332 119.498541 
L 335.790167 118.789271 
L 335.870954 118.789271 
L 335.969507 118.08 
L 337.148825 118.08 
L 337.229333 117.016094 
L 337.284213 117.016094 
L 337.363835 114.888282 
L 337.454859 114.888282 
L 337.55231 114.179012 
L 337.582958 114.179012 
L 337.632867 113.115106 
L 337.784077 113.115106 
L 337.784077 112.760471 
L 338.725005 112.760471 
L 338.82459 112.0512 
L 338.843105 112.0512 
L 338.949376 109.568753 
L 338.988187 109.568753 
L 339.010706 108.504847 
L 339.433483 108.504847 
L 339.433483 108.150212 
L 340.243685 108.150212 
L 340.333753 106.377035 
L 340.364873 106.377035 
L 340.450971 105.313129 
L 340.484914 105.313129 
L 340.592617 103.539953 
L 340.643417 103.539953 
L 340.643417 103.185318 
L 341.66958 103.185318 
L 341.774785 101.766776 
L 341.784089 101.766776 
L 341.877701 99.638965 
L 341.965744 99.638965 
L 342.069936 98.929694 
L 342.903753 98.929694 
L 342.935881 98.220424 
L 343.047956 98.220424 
L 343.146066 96.801882 
L 343.169383 96.801882 
L 343.212667 95.737976 
L 343.363174 95.737976 
L 343.470971 95.028706 
L 343.564809 95.028706 
L 343.564809 94.674071 
L 344.234268 94.674071 
L 344.33262 91.482353 
L 344.39004 91.482353 
L 344.497708 90.063812 
L 344.505585 90.063812 
L 344.55211 89.354541 
L 345.222642 89.354541 
L 345.315906 86.872094 
L 345.363934 86.872094 
L 345.413807 85.098918 
L 345.482638 85.098918 
L 345.576329 84.035012 
L 346.334164 84.035012 
L 346.371416 82.616471 
L 346.450205 82.616471 
L 346.518788 81.9072 
L 346.569168 81.9072 
L 346.664342 80.843294 
L 346.701 80.843294 
L 346.701 80.488659 
L 347.235182 80.488659 
L 347.332696 79.424753 
L 347.370762 79.424753 
L 347.433212 78.360847 
L 347.521542 78.360847 
L 347.610007 76.942306 
L 347.649277 76.942306 
L 347.744947 76.233035 
L 348.228466 76.233035 
L 348.333216 74.814494 
L 348.364914 74.814494 
L 348.427057 74.105224 
L 348.502564 74.105224 
L 348.544178 73.041318 
L 348.626156 73.041318 
L 348.626156 72.686682 
L 349.144707 72.686682 
L 349.245368 71.268141 
L 349.267929 71.268141 
L 349.338375 69.8496 
L 349.381197 69.8496 
L 349.473622 67.721788 
L 350.160124 67.721788 
L 350.268258 65.948612 
L 350.781506 65.948612 
L 350.781506 65.593976 
L 350.973983 65.593976 
L 350.994924 64.530071 
L 351.117988 64.530071 
L 351.117988 64.175435 
L 351.739233 64.175435 
L 351.823364 62.402259 
L 351.895461 62.402259 
L 351.895461 62.047624 
L 352.01799 62.047624 
L 352.01799 61.692988 
L 352.512249 61.692988 
L 352.512249 61.338353 
L 352.661277 61.338353 
L 352.771741 59.919812 
L 352.772476 59.919812 
L 352.772476 59.565176 
L 353.108299 59.565176 
L 353.217906 58.501271 
L 353.293181 58.501271 
L 353.378591 56.373459 
L 353.554448 56.373459 
L 353.554448 56.018824 
L 353.914417 56.018824 
L 353.996397 54.600282 
L 354.034826 54.600282 
L 354.110702 52.827106 
L 354.557657 52.827106 
L 354.628708 51.7632 
L 354.735337 51.7632 
L 354.743918 51.053929 
L 355.21617 51.053929 
L 355.310587 50.344659 
L 355.366752 50.344659 
L 355.370827 49.635388 
L 355.836179 49.635388 
L 355.943653 48.926118 
L 355.998172 48.926118 
L 356.079705 47.507576 
L 356.429531 47.507576 
L 356.458379 46.798306 
L 356.559624 46.798306 
L 356.559624 46.443671 
L 357.041246 46.443671 
L 357.111266 45.379765 
L 357.174333 45.379765 
L 357.277674 44.670494 
L 357.406692 44.670494 
L 357.406692 44.315859 
L 357.52229 44.315859 
L 357.52229 43.961224 
L 357.832289 43.961224 
L 357.863893 43.251953 
L 358.256129 43.251953 
L 358.283021 42.188047 
L 358.787668 42.188047 
L 358.847746 41.478776 
L 358.91978 41.478776 
L 358.938894 40.769506 
L 359.118113 40.769506 
L 359.118113 40.414871 
L 359.327451 40.414871 
L 359.327451 40.060235 
L 359.884496 40.060235 
L 359.961204 38.641694 
L 360.116993 38.641694 
L 360.116993 38.287059 
L 360.8064 38.287059 
L 360.8064 38.287059 
" style="fill: none; stroke: #ff00ff; stroke-width: 1.5; stroke-linecap: square"/>
   </g>
   <g id="line2d_41">
    <defs>
     <path id="m927f8e38fa" d="M -0 8.485281 
L 5.091169 0 
L 0 -8.485281 
L -5.091169 -0 
z
" style="stroke: #ff00ff; stroke-width: 1.5; stroke-linejoin: miter"/>
    </defs>
    <g>
     <use xlink:href="#m927f8e38fa" x="134.828842" y="264.899012" style="fill-opacity: 0; stroke: #ff00ff; stroke-width: 1.5; stroke-linejoin: miter"/>
     <use xlink:href="#m927f8e38fa" x="215.31829" y="242.556988" style="fill-opacity: 0; stroke: #ff00ff; stroke-width: 1.5; stroke-linejoin: miter"/>
     <use xlink:href="#m927f8e38fa" x="307.426014" y="193.617318" style="fill-opacity: 0; stroke: #ff00ff; stroke-width: 1.5; stroke-linejoin: miter"/>
     <use xlink:href="#m927f8e38fa" x="347.248701" y="79.779388" style="fill-opacity: 0; stroke: #ff00ff; stroke-width: 1.5; stroke-linejoin: miter"/>
     <use xlink:href="#m927f8e38fa" x="360.116993" y="38.287059" style="fill-opacity: 0; stroke: #ff00ff; stroke-width: 1.5; stroke-linejoin: miter"/>
     <use xlink:href="#m927f8e38fa" x="360.8064" y="38.287059" style="fill-opacity: 0; stroke: #ff00ff; stroke-width: 1.5; stroke-linejoin: miter"/>
    </g>
   </g>
   <g id="line2d_42">
    <path style="fill: none; stroke: #ff00ff; stroke-width: 1.5; stroke-linecap: square"/>
    <g/>
   </g>
   <g id="line2d_43">
    <path d="M 291.757931 223.406682 
" clip-path="url(#p021b3cc339)" style="fill: none; stroke: #ff00ff; stroke-width: 1.5; stroke-linecap: square"/>
    <defs>
     <path id="m801c4386cd" d="M -12 12 
L 12 -12 
M -12 -12 
L 12 12 
" style="stroke: #ff00ff"/>
    </defs>
    <g clip-path="url(#p021b3cc339)">
     <use xlink:href="#m801c4386cd" x="291.757931" y="223.406682" style="fill: #ff00ff; stroke: #ff00ff"/>
    </g>
   </g>
   <g id="line2d_44">
    <path d="M 360.8064 213.831529 
L 380.514816 293.51808 
" style="fill: none; stroke: #000080; stroke-width: 1.5; stroke-linecap: square"/>
    <g>
     <use xlink:href="#mf3c3192c8f" x="360.8064" y="213.831529" style="fill-opacity: 0; stroke: #000080; stroke-width: 1.5"/>
     <use xlink:href="#mf3c3192c8f" x="380.514816" y="293.51808" style="fill-opacity: 0; stroke: #000080; stroke-width: 1.5"/>
    </g>
   </g>
   <g id="line2d_45">
    <path d="M 360.8064 38.287059 
L 380.514816 163.296 
" style="fill: none; stroke: #ff00ff; stroke-width: 1.5; stroke-linecap: square"/>
    <g>
     <use xlink:href="#m927f8e38fa" x="360.8064" y="38.287059" style="fill-opacity: 0; stroke: #ff00ff; stroke-width: 1.5; stroke-linejoin: miter"/>
     <use xlink:href="#m927f8e38fa" x="380.514816" y="163.296" style="fill-opacity: 0; stroke: #ff00ff; stroke-width: 1.5; stroke-linejoin: miter"/>
    </g>
   </g>
   <g id="line2d_46">
    <path d="M 360.8064 298.944 
L 360.8064 27.648 
" style="fill: none; stroke: #000000; stroke-width: 1.5; stroke-linecap: square"/>
   </g>
   <g id="patch_3">
    <path d="M 57.6 298.944 
L 360.8064 298.944 
" style="fill: none; stroke: #000000; stroke-width: 0.8; stroke-linejoin: miter; stroke-linecap: square"/>
   </g>
   <g id="patch_4">
    <path d="M 57.6 27.648 
L 360.8064 27.648 
" style="fill: none; stroke: #000000; stroke-width: 0.8; stroke-linejoin: miter; stroke-linecap: square"/>
   </g>
   <g id="text_13">
    <!-- ddcma-f -->
    <g transform="translate(386.578944 297.381205)scale(0.14 -0.14)">
     <use xlink:href="#DejaVuSans-64"/>
     <use xlink:href="#DejaVuSans-64" x="63.476562"/>
     <use xlink:href="#DejaVuSans-63" x="126.953125"/>
     <use xlink:href="#DejaVuSans-6d" x="181.933594"/>
     <use xlink:href="#DejaVuSans-61" x="279.345703"/>
     <use xlink:href="#DejaVuSans-2d" x="340.625"/>
     <use xlink:href="#DejaVuSans-66" x="376.708984"/>
    </g>
   </g>
   <g id="text_14">
    <!-- CMA-ES-20 -->
    <g transform="translate(386.578944 167.159125)scale(0.14 -0.14)">
     <defs>
      <path id="DejaVuSans-43" d="M 4122 4306 
L 4122 3641 
Q 3803 3938 3442 4084 
Q 3081 4231 2675 4231 
Q 1875 4231 1450 3742 
Q 1025 3253 1025 2328 
Q 1025 1406 1450 917 
Q 1875 428 2675 428 
Q 3081 428 3442 575 
Q 3803 722 4122 1019 
L 4122 359 
Q 3791 134 3420 21 
Q 3050 -91 2638 -91 
Q 1578 -91 968 557 
Q 359 1206 359 2328 
Q 359 3453 968 4101 
Q 1578 4750 2638 4750 
Q 3056 4750 3426 4639 
Q 3797 4528 4122 4306 
z
" transform="scale(0.015625)"/>
      <path id="DejaVuSans-4d" d="M 628 4666 
L 1569 4666 
L 2759 1491 
L 3956 4666 
L 4897 4666 
L 4897 0 
L 4281 0 
L 4281 4097 
L 3078 897 
L 2444 897 
L 1241 4097 
L 1241 0 
L 628 0 
L 628 4666 
z
" transform="scale(0.015625)"/>
      <path id="DejaVuSans-41" d="M 2188 4044 
L 1331 1722 
L 3047 1722 
L 2188 4044 
z
M 1831 4666 
L 2547 4666 
L 4325 0 
L 3669 0 
L 3244 1197 
L 1141 1197 
L 716 0 
L 50 0 
L 1831 4666 
z
" transform="scale(0.015625)"/>
      <path id="DejaVuSans-45" d="M 628 4666 
L 3578 4666 
L 3578 4134 
L 1259 4134 
L 1259 2753 
L 3481 2753 
L 3481 2222 
L 1259 2222 
L 1259 531 
L 3634 531 
L 3634 0 
L 628 0 
L 628 4666 
z
" transform="scale(0.015625)"/>
      <path id="DejaVuSans-53" d="M 3425 4513 
L 3425 3897 
Q 3066 4069 2747 4153 
Q 2428 4238 2131 4238 
Q 1616 4238 1336 4038 
Q 1056 3838 1056 3469 
Q 1056 3159 1242 3001 
Q 1428 2844 1947 2747 
L 2328 2669 
Q 3034 2534 3370 2195 
Q 3706 1856 3706 1288 
Q 3706 609 3251 259 
Q 2797 -91 1919 -91 
Q 1588 -91 1214 -16 
Q 841 59 441 206 
L 441 856 
Q 825 641 1194 531 
Q 1563 422 1919 422 
Q 2459 422 2753 634 
Q 3047 847 3047 1241 
Q 3047 1584 2836 1778 
Q 2625 1972 2144 2069 
L 1759 2144 
Q 1053 2284 737 2584 
Q 422 2884 422 3419 
Q 422 4038 858 4394 
Q 1294 4750 2059 4750 
Q 2388 4750 2728 4690 
Q 3069 4631 3425 4513 
z
" transform="scale(0.015625)"/>
     </defs>
     <use xlink:href="#DejaVuSans-43"/>
     <use xlink:href="#DejaVuSans-4d" x="69.824219"/>
     <use xlink:href="#DejaVuSans-41" x="156.103516"/>
     <use xlink:href="#DejaVuSans-2d" x="222.261719"/>
     <use xlink:href="#DejaVuSans-45" x="258.345703"/>
     <use xlink:href="#DejaVuSans-53" x="321.529297"/>
     <use xlink:href="#DejaVuSans-2d" x="385.005859"/>
     <use xlink:href="#DejaVuSans-32" x="421.089844"/>
     <use xlink:href="#DejaVuSans-30" x="484.712891"/>
    </g>
   </g>
   <g id="text_15">
    <!-- best 2009 -->
    <g transform="translate(386.578944 36.937045)scale(0.14 -0.14)">
     <defs>
      <path id="DejaVuSans-62" d="M 3116 1747 
Q 3116 2381 2855 2742 
Q 2594 3103 2138 3103 
Q 1681 3103 1420 2742 
Q 1159 2381 1159 1747 
Q 1159 1113 1420 752 
Q 1681 391 2138 391 
Q 2594 391 2855 752 
Q 3116 1113 3116 1747 
z
M 1159 2969 
Q 1341 3281 1617 3432 
Q 1894 3584 2278 3584 
Q 2916 3584 3314 3078 
Q 3713 2572 3713 1747 
Q 3713 922 3314 415 
Q 2916 -91 2278 -91 
Q 1894 -91 1617 61 
Q 1341 213 1159 525 
L 1159 0 
L 581 0 
L 581 4863 
L 1159 4863 
L 1159 2969 
z
" transform="scale(0.015625)"/>
      <path id="DejaVuSans-39" d="M 703 97 
L 703 672 
Q 941 559 1184 500 
Q 1428 441 1663 441 
Q 2288 441 2617 861 
Q 2947 1281 2994 2138 
Q 2813 1869 2534 1725 
Q 2256 1581 1919 1581 
Q 1219 1581 811 2004 
Q 403 2428 403 3163 
Q 403 3881 828 4315 
Q 1253 4750 1959 4750 
Q 2769 4750 3195 4129 
Q 3622 3509 3622 2328 
Q 3622 1225 3098 567 
Q 2575 -91 1691 -91 
Q 1453 -91 1209 -44 
Q 966 3 703 97 
z
M 1959 2075 
Q 2384 2075 2632 2365 
Q 2881 2656 2881 3163 
Q 2881 3666 2632 3958 
Q 2384 4250 1959 4250 
Q 1534 4250 1286 3958 
Q 1038 3666 1038 3163 
Q 1038 2656 1286 2365 
Q 1534 2075 1959 2075 
z
" transform="scale(0.015625)"/>
     </defs>
     <use xlink:href="#DejaVuSans-62"/>
     <use xlink:href="#DejaVuSans-65" x="63.476562"/>
     <use xlink:href="#DejaVuSans-73" x="125"/>
     <use xlink:href="#DejaVuSans-74" x="177.099609"/>
     <use xlink:href="#DejaVuSans-20" x="216.308594"/>
     <use xlink:href="#DejaVuSans-32" x="248.095703"/>
     <use xlink:href="#DejaVuSans-30" x="311.71875"/>
     <use xlink:href="#DejaVuSans-30" x="375.341797"/>
     <use xlink:href="#DejaVuSans-39" x="438.964844"/>
    </g>
   </g>
   <g id="text_16">
    <!-- bbob f24, 3-D -->
    <g transform="translate(60.632064 38.111366)scale(0.102 -0.102)">
     <defs>
      <path id="DejaVuSans-33" d="M 2597 2516 
Q 3050 2419 3304 2112 
Q 3559 1806 3559 1356 
Q 3559 666 3084 287 
Q 2609 -91 1734 -91 
Q 1441 -91 1130 -33 
Q 819 25 488 141 
L 488 750 
Q 750 597 1062 519 
Q 1375 441 1716 441 
Q 2309 441 2620 675 
Q 2931 909 2931 1356 
Q 2931 1769 2642 2001 
Q 2353 2234 1838 2234 
L 1294 2234 
L 1294 2753 
L 1863 2753 
Q 2328 2753 2575 2939 
Q 2822 3125 2822 3475 
Q 2822 3834 2567 4026 
Q 2313 4219 1838 4219 
Q 1578 4219 1281 4162 
Q 984 4106 628 3988 
L 628 4550 
Q 988 4650 1302 4700 
Q 1616 4750 1894 4750 
Q 2613 4750 3031 4423 
Q 3450 4097 3450 3541 
Q 3450 3153 3228 2886 
Q 3006 2619 2597 2516 
z
" transform="scale(0.015625)"/>
      <path id="DejaVuSans-44" d="M 1259 4147 
L 1259 519 
L 2022 519 
Q 2988 519 3436 956 
Q 3884 1394 3884 2338 
Q 3884 3275 3436 3711 
Q 2988 4147 2022 4147 
L 1259 4147 
z
M 628 4666 
L 1925 4666 
Q 3281 4666 3915 4102 
Q 4550 3538 4550 2338 
Q 4550 1131 3912 565 
Q 3275 0 1925 0 
L 628 0 
L 628 4666 
z
" transform="scale(0.015625)"/>
     </defs>
     <use xlink:href="#DejaVuSans-62"/>
     <use xlink:href="#DejaVuSans-62" x="63.476562"/>
     <use xlink:href="#DejaVuSans-6f" x="126.953125"/>
     <use xlink:href="#DejaVuSans-62" x="188.134766"/>
     <use xlink:href="#DejaVuSans-20" x="251.611328"/>
     <use xlink:href="#DejaVuSans-66" x="283.398438"/>
     <use xlink:href="#DejaVuSans-32" x="318.603516"/>
     <use xlink:href="#DejaVuSans-34" x="382.226562"/>
     <use xlink:href="#DejaVuSans-2c" x="445.849609"/>
     <use xlink:href="#DejaVuSans-20" x="477.636719"/>
     <use xlink:href="#DejaVuSans-33" x="509.423828"/>
     <use xlink:href="#DejaVuSans-2d" x="573.046875"/>
     <use xlink:href="#DejaVuSans-44" x="609.130859"/>
    </g>
    <!-- 51 targets: 100..1e-08 -->
    <g transform="translate(60.632064 49.533135)scale(0.102 -0.102)">
     <defs>
      <path id="DejaVuSans-35" d="M 691 4666 
L 3169 4666 
L 3169 4134 
L 1269 4134 
L 1269 2991 
Q 1406 3038 1543 3061 
Q 1681 3084 1819 3084 
Q 2600 3084 3056 2656 
Q 3513 2228 3513 1497 
Q 3513 744 3044 326 
Q 2575 -91 1722 -91 
Q 1428 -91 1123 -41 
Q 819 9 494 109 
L 494 744 
Q 775 591 1075 516 
Q 1375 441 1709 441 
Q 2250 441 2565 725 
Q 2881 1009 2881 1497 
Q 2881 1984 2565 2268 
Q 2250 2553 1709 2553 
Q 1456 2553 1204 2497 
Q 953 2441 691 2322 
L 691 4666 
z
" transform="scale(0.015625)"/>
      <path id="DejaVuSans-3a" d="M 750 794 
L 1409 794 
L 1409 0 
L 750 0 
L 750 794 
z
M 750 3309 
L 1409 3309 
L 1409 2516 
L 750 2516 
L 750 3309 
z
" transform="scale(0.015625)"/>
     </defs>
     <use xlink:href="#DejaVuSans-35"/>
     <use xlink:href="#DejaVuSans-31" x="63.623047"/>
     <use xlink:href="#DejaVuSans-20" x="127.246094"/>
     <use xlink:href="#DejaVuSans-74" x="159.033203"/>
     <use xlink:href="#DejaVuSans-61" x="198.242188"/>
     <use xlink:href="#DejaVuSans-72" x="259.521484"/>
     <use xlink:href="#DejaVuSans-67" x="298.884766"/>
     <use xlink:href="#DejaVuSans-65" x="362.361328"/>
     <use xlink:href="#DejaVuSans-74" x="423.884766"/>
     <use xlink:href="#DejaVuSans-73" x="463.09375"/>
     <use xlink:href="#DejaVuSans-3a" x="515.193359"/>
     <use xlink:href="#DejaVuSans-20" x="548.884766"/>
     <use xlink:href="#DejaVuSans-31" x="580.671875"/>
     <use xlink:href="#DejaVuSans-30" x="644.294922"/>
     <use xlink:href="#DejaVuSans-30" x="707.917969"/>
     <use xlink:href="#DejaVuSans-2e" x="771.541016"/>
     <use xlink:href="#DejaVuSans-2e" x="803.328125"/>
     <use xlink:href="#DejaVuSans-31" x="835.115234"/>
     <use xlink:href="#DejaVuSans-65" x="898.738281"/>
     <use xlink:href="#DejaVuSans-2d" x="960.261719"/>
     <use xlink:href="#DejaVuSans-30" x="996.345703"/>
     <use xlink:href="#DejaVuSans-38" x="1059.96875"/>
    </g>
    <!-- 5, 15 instances -->
    <g transform="translate(60.632064 60.954904)scale(0.102 -0.102)">
     <use xlink:href="#DejaVuSans-35"/>
     <use xlink:href="#DejaVuSans-2c" x="63.623047"/>
     <use xlink:href="#DejaVuSans-20" x="95.410156"/>
     <use xlink:href="#DejaVuSans-31" x="127.197266"/>
     <use xlink:href="#DejaVuSans-35" x="190.820312"/>
     <use xlink:href="#DejaVuSans-20" x="254.443359"/>
     <use xlink:href="#DejaVuSans-69" x="286.230469"/>
     <use xlink:href="#DejaVuSans-6e" x="314.013672"/>
     <use xlink:href="#DejaVuSans-73" x="377.392578"/>
     <use xlink:href="#DejaVuSans-74" x="429.492188"/>
     <use xlink:href="#DejaVuSans-61" x="468.701172"/>
     <use xlink:href="#DejaVuSans-6e" x="529.980469"/>
     <use xlink:href="#DejaVuSans-63" x="593.359375"/>
     <use xlink:href="#DejaVuSans-65" x="648.339844"/>
     <use xlink:href="#DejaVuSans-73" x="709.863281"/>
    </g>
   </g>
   <g id="text_17">
    <!-- v2.6 -->
    <g style="fill: #808080" transform="translate(198.292262 294.151352)scale(0.1 -0.1)">
     <use xlink:href="#DejaVuSans-76"/>
     <use xlink:href="#DejaVuSans-32" x="59.179688"/>
     <use xlink:href="#DejaVuSans-2e" x="122.802734"/>
     <use xlink:href="#DejaVuSans-36" x="154.589844"/>
    </g>
   </g>
   <g id="text_18">
    <!-- 24 Lunacek bi-Rastrigin -->
    <g transform="translate(91.411012 21.648)scale(0.2 -0.2)">
     <defs>
      <path id="DejaVuSans-4c" d="M 628 4666 
L 1259 4666 
L 1259 531 
L 3531 531 
L 3531 0 
L 628 0 
L 628 4666 
z
" transform="scale(0.015625)"/>
      <path id="DejaVuSans-6b" d="M 581 4863 
L 1159 4863 
L 1159 1991 
L 2875 3500 
L 3609 3500 
L 1753 1863 
L 3688 0 
L 2938 0 
L 1159 1709 
L 1159 0 
L 581 0 
L 581 4863 
z
" transform="scale(0.015625)"/>
      <path id="DejaVuSans-52" d="M 2841 2188 
Q 3044 2119 3236 1894 
Q 3428 1669 3622 1275 
L 4263 0 
L 3584 0 
L 2988 1197 
Q 2756 1666 2539 1819 
Q 2322 1972 1947 1972 
L 1259 1972 
L 1259 0 
L 628 0 
L 628 4666 
L 2053 4666 
Q 2853 4666 3247 4331 
Q 3641 3997 3641 3322 
Q 3641 2881 3436 2590 
Q 3231 2300 2841 2188 
z
M 1259 4147 
L 1259 2491 
L 2053 2491 
Q 2509 2491 2742 2702 
Q 2975 2913 2975 3322 
Q 2975 3731 2742 3939 
Q 2509 4147 2053 4147 
L 1259 4147 
z
" transform="scale(0.015625)"/>
     </defs>
     <use xlink:href="#DejaVuSans-32"/>
     <use xlink:href="#DejaVuSans-34" x="63.623047"/>
     <use xlink:href="#DejaVuSans-20" x="127.246094"/>
     <use xlink:href="#DejaVuSans-4c" x="159.033203"/>
     <use xlink:href="#DejaVuSans-75" x="212.996094"/>
     <use xlink:href="#DejaVuSans-6e" x="276.375"/>
     <use xlink:href="#DejaVuSans-61" x="339.753906"/>
     <use xlink:href="#DejaVuSans-63" x="401.033203"/>
     <use xlink:href="#DejaVuSans-65" x="456.013672"/>
     <use xlink:href="#DejaVuSans-6b" x="517.537109"/>
     <use xlink:href="#DejaVuSans-20" x="575.447266"/>
     <use xlink:href="#DejaVuSans-62" x="607.234375"/>
     <use xlink:href="#DejaVuSans-69" x="670.710938"/>
     <use xlink:href="#DejaVuSans-2d" x="698.494141"/>
     <use xlink:href="#DejaVuSans-52" x="734.578125"/>
     <use xlink:href="#DejaVuSans-61" x="801.810547"/>
     <use xlink:href="#DejaVuSans-73" x="863.089844"/>
     <use xlink:href="#DejaVuSans-74" x="915.189453"/>
     <use xlink:href="#DejaVuSans-72" x="954.398438"/>
     <use xlink:href="#DejaVuSans-69" x="995.511719"/>
     <use xlink:href="#DejaVuSans-67" x="1023.294922"/>
     <use xlink:href="#DejaVuSans-69" x="1086.771484"/>
     <use xlink:href="#DejaVuSans-6e" x="1114.554688"/>
    </g>
   </g>
  </g>
 </g>
 <defs>
  <clipPath id="p021b3cc339">
   <rect x="57.6" y="27.648" width="303.2064" height="271.296"/>
  </clipPath>
 </defs>
</svg>
