<?xml version="1.0" encoding="utf-8" standalone="no"?>
<!DOCTYPE svg PUBLIC "-//W3C//DTD SVG 1.1//EN"
  "http://www.w3.org/Graphics/SVG/1.1/DTD/svg11.dtd">
<svg xmlns:xlink="http://www.w3.org/1999/xlink" width="460.8pt" height="345.6pt" viewBox="0 0 460.8 345.6" xmlns="http://www.w3.org/2000/svg" version="1.1">
 <metadata>
  <rdf:RDF xmlns:dc="http://purl.org/dc/elements/1.1/" xmlns:cc="http://creativecommons.org/ns#" xmlns:rdf="http://www.w3.org/1999/02/22-rdf-syntax-ns#">
   <cc:Work>
    <dc:type rdf:resource="http://purl.org/dc/dcmitype/StillImage"/>
    <dc:date>2022-03-16T23:09:34.304772</dc:date>
    <dc:format>image/svg+xml</dc:format>
    <dc:creator>
     <cc:Agent>
      <dc:title>Matplotlib v3.5.1, https://matplotlib.org/</dc:title>
     </cc:Agent>
    </dc:creator>
   </cc:Work>
  </rdf:RDF>
 </metadata>
 <defs>
  <style type="text/css">*{stroke-linejoin: round; stroke-linecap: butt}</style>
 </defs>
 <g id="figure_1">
  <g id="patch_1">
   <path d="M 0 345.6 
L 460.8 345.6 
L 460.8 0 
L 0 0 
z
" style="fill: #ffffff"/>
  </g>
  <g id="axes_1">
   <g id="patch_2">
    <path d="M 57.6 298.944 
L 360.8064 298.944 
L 360.8064 27.648 
L 57.6 27.648 
z
" style="fill: #ffffff"/>
   </g>
   <g id="matplotlib.axis_1">
    <g id="xtick_1">
     <g id="line2d_1">
      <path d="M 57.6 298.944 
L 57.6 27.648 
" clip-path="url(#p692889ad6f)" style="fill: none; stroke: #b0b0b0; stroke-width: 0.8; stroke-linecap: square"/>
     </g>
     <g id="line2d_2">
      <defs>
       <path id="m4f32e23998" d="M 0 0 
L 0 3.5 
" style="stroke: #000000; stroke-width: 0.8"/>
      </defs>
      <g>
       <use xlink:href="#m4f32e23998" x="57.6" y="298.944" style="stroke: #000000; stroke-width: 0.8"/>
      </g>
     </g>
     <g id="text_1">
      <!-- 0 -->
      <g transform="translate(52.191875 318.861344)scale(0.17 -0.17)">
       <defs>
        <path id="DejaVuSans-30" d="M 2034 4250 
Q 1547 4250 1301 3770 
Q 1056 3291 1056 2328 
Q 1056 1369 1301 889 
Q 1547 409 2034 409 
Q 2525 409 2770 889 
Q 3016 1369 3016 2328 
Q 3016 3291 2770 3770 
Q 2525 4250 2034 4250 
z
M 2034 4750 
Q 2819 4750 3233 4129 
Q 3647 3509 3647 2328 
Q 3647 1150 3233 529 
Q 2819 -91 2034 -91 
Q 1250 -91 836 529 
Q 422 1150 422 2328 
Q 422 3509 836 4129 
Q 1250 4750 2034 4750 
z
" transform="scale(0.015625)"/>
       </defs>
       <use xlink:href="#DejaVuSans-30"/>
      </g>
     </g>
    </g>
    <g id="xtick_2">
     <g id="line2d_3">
      <path d="M 144.2304 298.944 
L 144.2304 27.648 
" clip-path="url(#p692889ad6f)" style="fill: none; stroke: #b0b0b0; stroke-width: 0.8; stroke-linecap: square"/>
     </g>
     <g id="line2d_4">
      <g>
       <use xlink:href="#m4f32e23998" x="144.2304" y="298.944" style="stroke: #000000; stroke-width: 0.8"/>
      </g>
     </g>
     <g id="text_2">
      <!-- 2 -->
      <g transform="translate(138.822275 318.861344)scale(0.17 -0.17)">
       <defs>
        <path id="DejaVuSans-32" d="M 1228 531 
L 3431 531 
L 3431 0 
L 469 0 
L 469 531 
Q 828 903 1448 1529 
Q 2069 2156 2228 2338 
Q 2531 2678 2651 2914 
Q 2772 3150 2772 3378 
Q 2772 3750 2511 3984 
Q 2250 4219 1831 4219 
Q 1534 4219 1204 4116 
Q 875 4013 500 3803 
L 500 4441 
Q 881 4594 1212 4672 
Q 1544 4750 1819 4750 
Q 2544 4750 2975 4387 
Q 3406 4025 3406 3419 
Q 3406 3131 3298 2873 
Q 3191 2616 2906 2266 
Q 2828 2175 2409 1742 
Q 1991 1309 1228 531 
z
" transform="scale(0.015625)"/>
       </defs>
       <use xlink:href="#DejaVuSans-32"/>
      </g>
     </g>
    </g>
    <g id="xtick_3">
     <g id="line2d_5">
      <path d="M 230.8608 298.944 
L 230.8608 27.648 
" clip-path="url(#p692889ad6f)" style="fill: none; stroke: #b0b0b0; stroke-width: 0.8; stroke-linecap: square"/>
     </g>
     <g id="line2d_6">
      <g>
       <use xlink:href="#m4f32e23998" x="230.8608" y="298.944" style="stroke: #000000; stroke-width: 0.8"/>
      </g>
     </g>
     <g id="text_3">
      <!-- 4 -->
      <g transform="translate(225.452675 318.861344)scale(0.17 -0.17)">
       <defs>
        <path id="DejaVuSans-34" d="M 2419 4116 
L 825 1625 
L 2419 1625 
L 2419 4116 
z
M 2253 4666 
L 3047 4666 
L 3047 1625 
L 3713 1625 
L 3713 1100 
L 3047 1100 
L 3047 0 
L 2419 0 
L 2419 1100 
L 313 1100 
L 313 1709 
L 2253 4666 
z
" transform="scale(0.015625)"/>
       </defs>
       <use xlink:href="#DejaVuSans-34"/>
      </g>
     </g>
    </g>
    <g id="xtick_4">
     <g id="line2d_7">
      <path d="M 317.4912 298.944 
L 317.4912 27.648 
" clip-path="url(#p692889ad6f)" style="fill: none; stroke: #b0b0b0; stroke-width: 0.8; stroke-linecap: square"/>
     </g>
     <g id="line2d_8">
      <g>
       <use xlink:href="#m4f32e23998" x="317.4912" y="298.944" style="stroke: #000000; stroke-width: 0.8"/>
      </g>
     </g>
     <g id="text_4">
      <!-- 6 -->
      <g transform="translate(312.083075 318.861344)scale(0.17 -0.17)">
       <defs>
        <path id="DejaVuSans-36" d="M 2113 2584 
Q 1688 2584 1439 2293 
Q 1191 2003 1191 1497 
Q 1191 994 1439 701 
Q 1688 409 2113 409 
Q 2538 409 2786 701 
Q 3034 994 3034 1497 
Q 3034 2003 2786 2293 
Q 2538 2584 2113 2584 
z
M 3366 4563 
L 3366 3988 
Q 3128 4100 2886 4159 
Q 2644 4219 2406 4219 
Q 1781 4219 1451 3797 
Q 1122 3375 1075 2522 
Q 1259 2794 1537 2939 
Q 1816 3084 2150 3084 
Q 2853 3084 3261 2657 
Q 3669 2231 3669 1497 
Q 3669 778 3244 343 
Q 2819 -91 2113 -91 
Q 1303 -91 875 529 
Q 447 1150 447 2328 
Q 447 3434 972 4092 
Q 1497 4750 2381 4750 
Q 2619 4750 2861 4703 
Q 3103 4656 3366 4563 
z
" transform="scale(0.015625)"/>
       </defs>
       <use xlink:href="#DejaVuSans-36"/>
      </g>
     </g>
    </g>
    <g id="xtick_5">
     <g id="line2d_9">
      <path d="M 100.9152 298.944 
L 100.9152 27.648 
" clip-path="url(#p692889ad6f)" style="fill: none; stroke: #b0b0b0; stroke-width: 0.8; stroke-linecap: square"/>
     </g>
     <g id="line2d_10">
      <defs>
       <path id="m8226dc3ecc" d="M 0 0 
L 0 2 
" style="stroke: #000000; stroke-width: 0.6"/>
      </defs>
      <g>
       <use xlink:href="#m8226dc3ecc" x="100.9152" y="298.944" style="stroke: #000000; stroke-width: 0.6"/>
      </g>
     </g>
    </g>
    <g id="xtick_6">
     <g id="line2d_11">
      <path d="M 187.5456 298.944 
L 187.5456 27.648 
" clip-path="url(#p692889ad6f)" style="fill: none; stroke: #b0b0b0; stroke-width: 0.8; stroke-linecap: square"/>
     </g>
     <g id="line2d_12">
      <g>
       <use xlink:href="#m8226dc3ecc" x="187.5456" y="298.944" style="stroke: #000000; stroke-width: 0.6"/>
      </g>
     </g>
    </g>
    <g id="xtick_7">
     <g id="line2d_13">
      <path d="M 274.176 298.944 
L 274.176 27.648 
" clip-path="url(#p692889ad6f)" style="fill: none; stroke: #b0b0b0; stroke-width: 0.8; stroke-linecap: square"/>
     </g>
     <g id="line2d_14">
      <g>
       <use xlink:href="#m8226dc3ecc" x="274.176" y="298.944" style="stroke: #000000; stroke-width: 0.6"/>
      </g>
     </g>
    </g>
    <g id="xtick_8">
     <g id="line2d_15">
      <path d="M 360.8064 298.944 
L 360.8064 27.648 
" clip-path="url(#p692889ad6f)" style="fill: none; stroke: #b0b0b0; stroke-width: 0.8; stroke-linecap: square"/>
     </g>
     <g id="line2d_16">
      <g>
       <use xlink:href="#m8226dc3ecc" x="360.8064" y="298.944" style="stroke: #000000; stroke-width: 0.6"/>
      </g>
     </g>
    </g>
    <g id="text_5">
     <!-- log10(# f-evals / dimension) -->
     <g transform="translate(88.823278 339.314156)scale(0.17 -0.17)">
      <defs>
       <path id="DejaVuSans-6c" d="M 603 4863 
L 1178 4863 
L 1178 0 
L 603 0 
L 603 4863 
z
" transform="scale(0.015625)"/>
       <path id="DejaVuSans-6f" d="M 1959 3097 
Q 1497 3097 1228 2736 
Q 959 2375 959 1747 
Q 959 1119 1226 758 
Q 1494 397 1959 397 
Q 2419 397 2687 759 
Q 2956 1122 2956 1747 
Q 2956 2369 2687 2733 
Q 2419 3097 1959 3097 
z
M 1959 3584 
Q 2709 3584 3137 3096 
Q 3566 2609 3566 1747 
Q 3566 888 3137 398 
Q 2709 -91 1959 -91 
Q 1206 -91 779 398 
Q 353 888 353 1747 
Q 353 2609 779 3096 
Q 1206 3584 1959 3584 
z
" transform="scale(0.015625)"/>
       <path id="DejaVuSans-67" d="M 2906 1791 
Q 2906 2416 2648 2759 
Q 2391 3103 1925 3103 
Q 1463 3103 1205 2759 
Q 947 2416 947 1791 
Q 947 1169 1205 825 
Q 1463 481 1925 481 
Q 2391 481 2648 825 
Q 2906 1169 2906 1791 
z
M 3481 434 
Q 3481 -459 3084 -895 
Q 2688 -1331 1869 -1331 
Q 1566 -1331 1297 -1286 
Q 1028 -1241 775 -1147 
L 775 -588 
Q 1028 -725 1275 -790 
Q 1522 -856 1778 -856 
Q 2344 -856 2625 -561 
Q 2906 -266 2906 331 
L 2906 616 
Q 2728 306 2450 153 
Q 2172 0 1784 0 
Q 1141 0 747 490 
Q 353 981 353 1791 
Q 353 2603 747 3093 
Q 1141 3584 1784 3584 
Q 2172 3584 2450 3431 
Q 2728 3278 2906 2969 
L 2906 3500 
L 3481 3500 
L 3481 434 
z
" transform="scale(0.015625)"/>
       <path id="DejaVuSans-31" d="M 794 531 
L 1825 531 
L 1825 4091 
L 703 3866 
L 703 4441 
L 1819 4666 
L 2450 4666 
L 2450 531 
L 3481 531 
L 3481 0 
L 794 0 
L 794 531 
z
" transform="scale(0.015625)"/>
       <path id="DejaVuSans-28" d="M 1984 4856 
Q 1566 4138 1362 3434 
Q 1159 2731 1159 2009 
Q 1159 1288 1364 580 
Q 1569 -128 1984 -844 
L 1484 -844 
Q 1016 -109 783 600 
Q 550 1309 550 2009 
Q 550 2706 781 3412 
Q 1013 4119 1484 4856 
L 1984 4856 
z
" transform="scale(0.015625)"/>
       <path id="DejaVuSans-23" d="M 3272 2816 
L 2363 2816 
L 2100 1772 
L 3016 1772 
L 3272 2816 
z
M 2803 4594 
L 2478 3297 
L 3391 3297 
L 3719 4594 
L 4219 4594 
L 3897 3297 
L 4872 3297 
L 4872 2816 
L 3775 2816 
L 3519 1772 
L 4513 1772 
L 4513 1294 
L 3397 1294 
L 3072 0 
L 2572 0 
L 2894 1294 
L 1978 1294 
L 1656 0 
L 1153 0 
L 1478 1294 
L 494 1294 
L 494 1772 
L 1594 1772 
L 1856 2816 
L 850 2816 
L 850 3297 
L 1978 3297 
L 2297 4594 
L 2803 4594 
z
" transform="scale(0.015625)"/>
       <path id="DejaVuSans-20" transform="scale(0.015625)"/>
       <path id="DejaVuSans-66" d="M 2375 4863 
L 2375 4384 
L 1825 4384 
Q 1516 4384 1395 4259 
Q 1275 4134 1275 3809 
L 1275 3500 
L 2222 3500 
L 2222 3053 
L 1275 3053 
L 1275 0 
L 697 0 
L 697 3053 
L 147 3053 
L 147 3500 
L 697 3500 
L 697 3744 
Q 697 4328 969 4595 
Q 1241 4863 1831 4863 
L 2375 4863 
z
" transform="scale(0.015625)"/>
       <path id="DejaVuSans-2d" d="M 313 2009 
L 1997 2009 
L 1997 1497 
L 313 1497 
L 313 2009 
z
" transform="scale(0.015625)"/>
       <path id="DejaVuSans-65" d="M 3597 1894 
L 3597 1613 
L 953 1613 
Q 991 1019 1311 708 
Q 1631 397 2203 397 
Q 2534 397 2845 478 
Q 3156 559 3463 722 
L 3463 178 
Q 3153 47 2828 -22 
Q 2503 -91 2169 -91 
Q 1331 -91 842 396 
Q 353 884 353 1716 
Q 353 2575 817 3079 
Q 1281 3584 2069 3584 
Q 2775 3584 3186 3129 
Q 3597 2675 3597 1894 
z
M 3022 2063 
Q 3016 2534 2758 2815 
Q 2500 3097 2075 3097 
Q 1594 3097 1305 2825 
Q 1016 2553 972 2059 
L 3022 2063 
z
" transform="scale(0.015625)"/>
       <path id="DejaVuSans-76" d="M 191 3500 
L 800 3500 
L 1894 563 
L 2988 3500 
L 3597 3500 
L 2284 0 
L 1503 0 
L 191 3500 
z
" transform="scale(0.015625)"/>
       <path id="DejaVuSans-61" d="M 2194 1759 
Q 1497 1759 1228 1600 
Q 959 1441 959 1056 
Q 959 750 1161 570 
Q 1363 391 1709 391 
Q 2188 391 2477 730 
Q 2766 1069 2766 1631 
L 2766 1759 
L 2194 1759 
z
M 3341 1997 
L 3341 0 
L 2766 0 
L 2766 531 
Q 2569 213 2275 61 
Q 1981 -91 1556 -91 
Q 1019 -91 701 211 
Q 384 513 384 1019 
Q 384 1609 779 1909 
Q 1175 2209 1959 2209 
L 2766 2209 
L 2766 2266 
Q 2766 2663 2505 2880 
Q 2244 3097 1772 3097 
Q 1472 3097 1187 3025 
Q 903 2953 641 2809 
L 641 3341 
Q 956 3463 1253 3523 
Q 1550 3584 1831 3584 
Q 2591 3584 2966 3190 
Q 3341 2797 3341 1997 
z
" transform="scale(0.015625)"/>
       <path id="DejaVuSans-73" d="M 2834 3397 
L 2834 2853 
Q 2591 2978 2328 3040 
Q 2066 3103 1784 3103 
Q 1356 3103 1142 2972 
Q 928 2841 928 2578 
Q 928 2378 1081 2264 
Q 1234 2150 1697 2047 
L 1894 2003 
Q 2506 1872 2764 1633 
Q 3022 1394 3022 966 
Q 3022 478 2636 193 
Q 2250 -91 1575 -91 
Q 1294 -91 989 -36 
Q 684 19 347 128 
L 347 722 
Q 666 556 975 473 
Q 1284 391 1588 391 
Q 1994 391 2212 530 
Q 2431 669 2431 922 
Q 2431 1156 2273 1281 
Q 2116 1406 1581 1522 
L 1381 1569 
Q 847 1681 609 1914 
Q 372 2147 372 2553 
Q 372 3047 722 3315 
Q 1072 3584 1716 3584 
Q 2034 3584 2315 3537 
Q 2597 3491 2834 3397 
z
" transform="scale(0.015625)"/>
       <path id="DejaVuSans-2f" d="M 1625 4666 
L 2156 4666 
L 531 -594 
L 0 -594 
L 1625 4666 
z
" transform="scale(0.015625)"/>
       <path id="DejaVuSans-64" d="M 2906 2969 
L 2906 4863 
L 3481 4863 
L 3481 0 
L 2906 0 
L 2906 525 
Q 2725 213 2448 61 
Q 2172 -91 1784 -91 
Q 1150 -91 751 415 
Q 353 922 353 1747 
Q 353 2572 751 3078 
Q 1150 3584 1784 3584 
Q 2172 3584 2448 3432 
Q 2725 3281 2906 2969 
z
M 947 1747 
Q 947 1113 1208 752 
Q 1469 391 1925 391 
Q 2381 391 2643 752 
Q 2906 1113 2906 1747 
Q 2906 2381 2643 2742 
Q 2381 3103 1925 3103 
Q 1469 3103 1208 2742 
Q 947 2381 947 1747 
z
" transform="scale(0.015625)"/>
       <path id="DejaVuSans-69" d="M 603 3500 
L 1178 3500 
L 1178 0 
L 603 0 
L 603 3500 
z
M 603 4863 
L 1178 4863 
L 1178 4134 
L 603 4134 
L 603 4863 
z
" transform="scale(0.015625)"/>
       <path id="DejaVuSans-6d" d="M 3328 2828 
Q 3544 3216 3844 3400 
Q 4144 3584 4550 3584 
Q 5097 3584 5394 3201 
Q 5691 2819 5691 2113 
L 5691 0 
L 5113 0 
L 5113 2094 
Q 5113 2597 4934 2840 
Q 4756 3084 4391 3084 
Q 3944 3084 3684 2787 
Q 3425 2491 3425 1978 
L 3425 0 
L 2847 0 
L 2847 2094 
Q 2847 2600 2669 2842 
Q 2491 3084 2119 3084 
Q 1678 3084 1418 2786 
Q 1159 2488 1159 1978 
L 1159 0 
L 581 0 
L 581 3500 
L 1159 3500 
L 1159 2956 
Q 1356 3278 1631 3431 
Q 1906 3584 2284 3584 
Q 2666 3584 2933 3390 
Q 3200 3197 3328 2828 
z
" transform="scale(0.015625)"/>
       <path id="DejaVuSans-6e" d="M 3513 2113 
L 3513 0 
L 2938 0 
L 2938 2094 
Q 2938 2591 2744 2837 
Q 2550 3084 2163 3084 
Q 1697 3084 1428 2787 
Q 1159 2491 1159 1978 
L 1159 0 
L 581 0 
L 581 3500 
L 1159 3500 
L 1159 2956 
Q 1366 3272 1645 3428 
Q 1925 3584 2291 3584 
Q 2894 3584 3203 3211 
Q 3513 2838 3513 2113 
z
" transform="scale(0.015625)"/>
       <path id="DejaVuSans-29" d="M 513 4856 
L 1013 4856 
Q 1481 4119 1714 3412 
Q 1947 2706 1947 2009 
Q 1947 1309 1714 600 
Q 1481 -109 1013 -844 
L 513 -844 
Q 928 -128 1133 580 
Q 1338 1288 1338 2009 
Q 1338 2731 1133 3434 
Q 928 4138 513 4856 
z
" transform="scale(0.015625)"/>
      </defs>
      <use xlink:href="#DejaVuSans-6c"/>
      <use xlink:href="#DejaVuSans-6f" x="27.783203"/>
      <use xlink:href="#DejaVuSans-67" x="88.964844"/>
      <use xlink:href="#DejaVuSans-31" x="152.441406"/>
      <use xlink:href="#DejaVuSans-30" x="216.064453"/>
      <use xlink:href="#DejaVuSans-28" x="279.6875"/>
      <use xlink:href="#DejaVuSans-23" x="318.701172"/>
      <use xlink:href="#DejaVuSans-20" x="402.490234"/>
      <use xlink:href="#DejaVuSans-66" x="434.277344"/>
      <use xlink:href="#DejaVuSans-2d" x="463.982422"/>
      <use xlink:href="#DejaVuSans-65" x="500.066406"/>
      <use xlink:href="#DejaVuSans-76" x="561.589844"/>
      <use xlink:href="#DejaVuSans-61" x="620.769531"/>
      <use xlink:href="#DejaVuSans-6c" x="682.048828"/>
      <use xlink:href="#DejaVuSans-73" x="709.832031"/>
      <use xlink:href="#DejaVuSans-20" x="761.931641"/>
      <use xlink:href="#DejaVuSans-2f" x="793.71875"/>
      <use xlink:href="#DejaVuSans-20" x="827.410156"/>
      <use xlink:href="#DejaVuSans-64" x="859.197266"/>
      <use xlink:href="#DejaVuSans-69" x="922.673828"/>
      <use xlink:href="#DejaVuSans-6d" x="950.457031"/>
      <use xlink:href="#DejaVuSans-65" x="1047.869141"/>
      <use xlink:href="#DejaVuSans-6e" x="1109.392578"/>
      <use xlink:href="#DejaVuSans-73" x="1172.771484"/>
      <use xlink:href="#DejaVuSans-69" x="1224.871094"/>
      <use xlink:href="#DejaVuSans-6f" x="1252.654297"/>
      <use xlink:href="#DejaVuSans-6e" x="1313.835938"/>
      <use xlink:href="#DejaVuSans-29" x="1377.214844"/>
     </g>
    </g>
   </g>
   <g id="matplotlib.axis_2">
    <g id="ytick_1">
     <g id="line2d_17">
      <path d="M 57.6 298.944 
L 360.8064 298.944 
" clip-path="url(#p692889ad6f)" style="fill: none; stroke: #b0b0b0; stroke-width: 0.8; stroke-linecap: square"/>
     </g>
     <g id="line2d_18">
      <defs>
       <path id="md632101fb2" d="M 0 0 
L -3.5 0 
" style="stroke: #000000; stroke-width: 0.8"/>
      </defs>
      <g>
       <use xlink:href="#md632101fb2" x="57.6" y="298.944" style="stroke: #000000; stroke-width: 0.8"/>
      </g>
     </g>
     <g id="text_6">
      <!-- 0.0 -->
      <g transform="translate(25.155 305.02275)scale(0.16 -0.16)">
       <defs>
        <path id="DejaVuSans-2e" d="M 684 794 
L 1344 794 
L 1344 0 
L 684 0 
L 684 794 
z
" transform="scale(0.015625)"/>
       </defs>
       <use xlink:href="#DejaVuSans-30"/>
       <use xlink:href="#DejaVuSans-2e" x="63.623047"/>
       <use xlink:href="#DejaVuSans-30" x="95.410156"/>
      </g>
     </g>
    </g>
    <g id="ytick_2">
     <g id="line2d_19">
      <path d="M 57.6 244.6848 
L 360.8064 244.6848 
" clip-path="url(#p692889ad6f)" style="fill: none; stroke: #b0b0b0; stroke-width: 0.8; stroke-linecap: square"/>
     </g>
     <g id="line2d_20">
      <g>
       <use xlink:href="#md632101fb2" x="57.6" y="244.6848" style="stroke: #000000; stroke-width: 0.8"/>
      </g>
     </g>
     <g id="text_7">
      <!-- 0.2 -->
      <g transform="translate(25.155 250.76355)scale(0.16 -0.16)">
       <use xlink:href="#DejaVuSans-30"/>
       <use xlink:href="#DejaVuSans-2e" x="63.623047"/>
       <use xlink:href="#DejaVuSans-32" x="95.410156"/>
      </g>
     </g>
    </g>
    <g id="ytick_3">
     <g id="line2d_21">
      <path d="M 57.6 190.4256 
L 360.8064 190.4256 
" clip-path="url(#p692889ad6f)" style="fill: none; stroke: #b0b0b0; stroke-width: 0.8; stroke-linecap: square"/>
     </g>
     <g id="line2d_22">
      <g>
       <use xlink:href="#md632101fb2" x="57.6" y="190.4256" style="stroke: #000000; stroke-width: 0.8"/>
      </g>
     </g>
     <g id="text_8">
      <!-- 0.4 -->
      <g transform="translate(25.155 196.50435)scale(0.16 -0.16)">
       <use xlink:href="#DejaVuSans-30"/>
       <use xlink:href="#DejaVuSans-2e" x="63.623047"/>
       <use xlink:href="#DejaVuSans-34" x="95.410156"/>
      </g>
     </g>
    </g>
    <g id="ytick_4">
     <g id="line2d_23">
      <path d="M 57.6 136.1664 
L 360.8064 136.1664 
" clip-path="url(#p692889ad6f)" style="fill: none; stroke: #b0b0b0; stroke-width: 0.8; stroke-linecap: square"/>
     </g>
     <g id="line2d_24">
      <g>
       <use xlink:href="#md632101fb2" x="57.6" y="136.1664" style="stroke: #000000; stroke-width: 0.8"/>
      </g>
     </g>
     <g id="text_9">
      <!-- 0.6 -->
      <g transform="translate(25.155 142.24515)scale(0.16 -0.16)">
       <use xlink:href="#DejaVuSans-30"/>
       <use xlink:href="#DejaVuSans-2e" x="63.623047"/>
       <use xlink:href="#DejaVuSans-36" x="95.410156"/>
      </g>
     </g>
    </g>
    <g id="ytick_5">
     <g id="line2d_25">
      <path d="M 57.6 81.9072 
L 360.8064 81.9072 
" clip-path="url(#p692889ad6f)" style="fill: none; stroke: #b0b0b0; stroke-width: 0.8; stroke-linecap: square"/>
     </g>
     <g id="line2d_26">
      <g>
       <use xlink:href="#md632101fb2" x="57.6" y="81.9072" style="stroke: #000000; stroke-width: 0.8"/>
      </g>
     </g>
     <g id="text_10">
      <!-- 0.8 -->
      <g transform="translate(25.155 87.98595)scale(0.16 -0.16)">
       <defs>
        <path id="DejaVuSans-38" d="M 2034 2216 
Q 1584 2216 1326 1975 
Q 1069 1734 1069 1313 
Q 1069 891 1326 650 
Q 1584 409 2034 409 
Q 2484 409 2743 651 
Q 3003 894 3003 1313 
Q 3003 1734 2745 1975 
Q 2488 2216 2034 2216 
z
M 1403 2484 
Q 997 2584 770 2862 
Q 544 3141 544 3541 
Q 544 4100 942 4425 
Q 1341 4750 2034 4750 
Q 2731 4750 3128 4425 
Q 3525 4100 3525 3541 
Q 3525 3141 3298 2862 
Q 3072 2584 2669 2484 
Q 3125 2378 3379 2068 
Q 3634 1759 3634 1313 
Q 3634 634 3220 271 
Q 2806 -91 2034 -91 
Q 1263 -91 848 271 
Q 434 634 434 1313 
Q 434 1759 690 2068 
Q 947 2378 1403 2484 
z
M 1172 3481 
Q 1172 3119 1398 2916 
Q 1625 2713 2034 2713 
Q 2441 2713 2670 2916 
Q 2900 3119 2900 3481 
Q 2900 3844 2670 4047 
Q 2441 4250 2034 4250 
Q 1625 4250 1398 4047 
Q 1172 3844 1172 3481 
z
" transform="scale(0.015625)"/>
       </defs>
       <use xlink:href="#DejaVuSans-30"/>
       <use xlink:href="#DejaVuSans-2e" x="63.623047"/>
       <use xlink:href="#DejaVuSans-38" x="95.410156"/>
      </g>
     </g>
    </g>
    <g id="ytick_6">
     <g id="line2d_27">
      <path d="M 57.6 27.648 
L 360.8064 27.648 
" clip-path="url(#p692889ad6f)" style="fill: none; stroke: #b0b0b0; stroke-width: 0.8; stroke-linecap: square"/>
     </g>
     <g id="line2d_28">
      <g>
       <use xlink:href="#md632101fb2" x="57.6" y="27.648" style="stroke: #000000; stroke-width: 0.8"/>
      </g>
     </g>
     <g id="text_11">
      <!-- 1.0 -->
      <g transform="translate(25.155 33.72675)scale(0.16 -0.16)">
       <use xlink:href="#DejaVuSans-31"/>
       <use xlink:href="#DejaVuSans-2e" x="63.623047"/>
       <use xlink:href="#DejaVuSans-30" x="95.410156"/>
      </g>
     </g>
    </g>
    <g id="text_12">
     <!-- Fraction of function,target pairs -->
     <g transform="translate(17.619531 297.681)rotate(-90)scale(0.17 -0.17)">
      <defs>
       <path id="DejaVuSans-46" d="M 628 4666 
L 3309 4666 
L 3309 4134 
L 1259 4134 
L 1259 2759 
L 3109 2759 
L 3109 2228 
L 1259 2228 
L 1259 0 
L 628 0 
L 628 4666 
z
" transform="scale(0.015625)"/>
       <path id="DejaVuSans-72" d="M 2631 2963 
Q 2534 3019 2420 3045 
Q 2306 3072 2169 3072 
Q 1681 3072 1420 2755 
Q 1159 2438 1159 1844 
L 1159 0 
L 581 0 
L 581 3500 
L 1159 3500 
L 1159 2956 
Q 1341 3275 1631 3429 
Q 1922 3584 2338 3584 
Q 2397 3584 2469 3576 
Q 2541 3569 2628 3553 
L 2631 2963 
z
" transform="scale(0.015625)"/>
       <path id="DejaVuSans-63" d="M 3122 3366 
L 3122 2828 
Q 2878 2963 2633 3030 
Q 2388 3097 2138 3097 
Q 1578 3097 1268 2742 
Q 959 2388 959 1747 
Q 959 1106 1268 751 
Q 1578 397 2138 397 
Q 2388 397 2633 464 
Q 2878 531 3122 666 
L 3122 134 
Q 2881 22 2623 -34 
Q 2366 -91 2075 -91 
Q 1284 -91 818 406 
Q 353 903 353 1747 
Q 353 2603 823 3093 
Q 1294 3584 2113 3584 
Q 2378 3584 2631 3529 
Q 2884 3475 3122 3366 
z
" transform="scale(0.015625)"/>
       <path id="DejaVuSans-74" d="M 1172 4494 
L 1172 3500 
L 2356 3500 
L 2356 3053 
L 1172 3053 
L 1172 1153 
Q 1172 725 1289 603 
Q 1406 481 1766 481 
L 2356 481 
L 2356 0 
L 1766 0 
Q 1100 0 847 248 
Q 594 497 594 1153 
L 594 3053 
L 172 3053 
L 172 3500 
L 594 3500 
L 594 4494 
L 1172 4494 
z
" transform="scale(0.015625)"/>
       <path id="DejaVuSans-75" d="M 544 1381 
L 544 3500 
L 1119 3500 
L 1119 1403 
Q 1119 906 1312 657 
Q 1506 409 1894 409 
Q 2359 409 2629 706 
Q 2900 1003 2900 1516 
L 2900 3500 
L 3475 3500 
L 3475 0 
L 2900 0 
L 2900 538 
Q 2691 219 2414 64 
Q 2138 -91 1772 -91 
Q 1169 -91 856 284 
Q 544 659 544 1381 
z
M 1991 3584 
L 1991 3584 
z
" transform="scale(0.015625)"/>
       <path id="DejaVuSans-2c" d="M 750 794 
L 1409 794 
L 1409 256 
L 897 -744 
L 494 -744 
L 750 256 
L 750 794 
z
" transform="scale(0.015625)"/>
       <path id="DejaVuSans-70" d="M 1159 525 
L 1159 -1331 
L 581 -1331 
L 581 3500 
L 1159 3500 
L 1159 2969 
Q 1341 3281 1617 3432 
Q 1894 3584 2278 3584 
Q 2916 3584 3314 3078 
Q 3713 2572 3713 1747 
Q 3713 922 3314 415 
Q 2916 -91 2278 -91 
Q 1894 -91 1617 61 
Q 1341 213 1159 525 
z
M 3116 1747 
Q 3116 2381 2855 2742 
Q 2594 3103 2138 3103 
Q 1681 3103 1420 2742 
Q 1159 2381 1159 1747 
Q 1159 1113 1420 752 
Q 1681 391 2138 391 
Q 2594 391 2855 752 
Q 3116 1113 3116 1747 
z
" transform="scale(0.015625)"/>
      </defs>
      <use xlink:href="#DejaVuSans-46"/>
      <use xlink:href="#DejaVuSans-72" x="50.269531"/>
      <use xlink:href="#DejaVuSans-61" x="91.382812"/>
      <use xlink:href="#DejaVuSans-63" x="152.662109"/>
      <use xlink:href="#DejaVuSans-74" x="207.642578"/>
      <use xlink:href="#DejaVuSans-69" x="246.851562"/>
      <use xlink:href="#DejaVuSans-6f" x="274.634766"/>
      <use xlink:href="#DejaVuSans-6e" x="335.816406"/>
      <use xlink:href="#DejaVuSans-20" x="399.195312"/>
      <use xlink:href="#DejaVuSans-6f" x="430.982422"/>
      <use xlink:href="#DejaVuSans-66" x="492.164062"/>
      <use xlink:href="#DejaVuSans-20" x="527.369141"/>
      <use xlink:href="#DejaVuSans-66" x="559.15625"/>
      <use xlink:href="#DejaVuSans-75" x="594.361328"/>
      <use xlink:href="#DejaVuSans-6e" x="657.740234"/>
      <use xlink:href="#DejaVuSans-63" x="721.119141"/>
      <use xlink:href="#DejaVuSans-74" x="776.099609"/>
      <use xlink:href="#DejaVuSans-69" x="815.308594"/>
      <use xlink:href="#DejaVuSans-6f" x="843.091797"/>
      <use xlink:href="#DejaVuSans-6e" x="904.273438"/>
      <use xlink:href="#DejaVuSans-2c" x="967.652344"/>
      <use xlink:href="#DejaVuSans-74" x="999.439453"/>
      <use xlink:href="#DejaVuSans-61" x="1038.648438"/>
      <use xlink:href="#DejaVuSans-72" x="1099.927734"/>
      <use xlink:href="#DejaVuSans-67" x="1139.291016"/>
      <use xlink:href="#DejaVuSans-65" x="1202.767578"/>
      <use xlink:href="#DejaVuSans-74" x="1264.291016"/>
      <use xlink:href="#DejaVuSans-20" x="1303.5"/>
      <use xlink:href="#DejaVuSans-70" x="1335.287109"/>
      <use xlink:href="#DejaVuSans-61" x="1398.763672"/>
      <use xlink:href="#DejaVuSans-69" x="1460.042969"/>
      <use xlink:href="#DejaVuSans-72" x="1487.826172"/>
      <use xlink:href="#DejaVuSans-73" x="1528.939453"/>
     </g>
    </g>
   </g>
   <g id="line2d_29">
    <defs>
     <path id="mad906150b2" d="M 0 1.5 
C 0.397805 1.5 0.77937 1.341951 1.06066 1.06066 
C 1.341951 0.77937 1.5 0.397805 1.5 0 
C 1.5 -0.397805 1.341951 -0.77937 1.06066 -1.06066 
C 0.77937 -1.341951 0.397805 -1.5 0 -1.5 
C -0.397805 -1.5 -0.77937 -1.341951 -1.06066 -1.06066 
C -1.341951 -0.77937 -1.5 -0.397805 -1.5 0 
C -1.5 0.397805 -1.341951 0.77937 -1.06066 1.06066 
C -0.77937 1.341951 -0.397805 1.5 0 1.5 
z
" style="stroke: #00bfbf"/>
    </defs>
    <g>
     <use xlink:href="#mad906150b2" x="213.241505" y="27.648" style="fill: #00bfbf; stroke: #00bfbf"/>
     <use xlink:href="#mad906150b2" x="213.241505" y="27.648" style="fill: #00bfbf; stroke: #00bfbf"/>
    </g>
   </g>
   <g id="line2d_30">
    <path d="M 122.795872 298.944 
L 122.795872 291.496659 
L 124.481616 291.496659 
L 124.481616 285.113224 
L 127.227236 285.113224 
L 127.227236 273.410259 
L 128.999044 273.410259 
L 128.999044 270.218541 
L 129.826058 270.218541 
L 129.826058 268.090729 
L 130.4233 268.090729 
L 130.4233 265.962918 
L 132.638982 265.962918 
L 132.638982 263.835106 
L 132.812362 263.835106 
L 132.812362 262.7712 
L 132.984158 262.7712 
L 132.984158 261.707294 
L 134.304809 261.707294 
L 134.304809 260.643388 
L 135.085483 260.643388 
L 135.085483 253.196047 
L 135.835047 253.196047 
L 135.835047 252.132141 
L 138.438609 252.132141 
L 138.438609 250.004329 
L 139.676658 250.004329 
L 139.676658 248.940424 
L 141.50224 248.940424 
L 141.50224 245.748706 
L 143.754133 245.748706 
L 143.850356 238.301365 
L 145.148219 238.301365 
L 145.148219 237.237459 
L 145.93763 237.237459 
L 145.93763 236.173553 
L 146.529503 236.173553 
L 146.529503 235.109647 
L 146.859539 235.109647 
L 146.859539 234.045741 
L 147.183884 234.045741 
L 147.183884 226.5984 
L 149.453084 226.5984 
L 149.453084 225.534494 
L 150.8268 225.534494 
L 150.8268 223.406682 
L 151.155108 223.406682 
L 151.220087 220.214965 
L 151.349377 220.214965 
L 151.349377 218.087153 
L 151.731998 218.087153 
L 151.731998 217.023247 
L 151.982822 217.023247 
L 151.982822 215.959341 
L 152.106991 215.959341 
L 152.106991 214.895435 
L 152.413875 214.895435 
L 152.413875 212.767624 
L 152.775647 212.767624 
L 152.775647 211.703718 
L 153.130592 211.703718 
L 153.189104 208.512 
L 153.989717 208.512 
L 154.04562 204.256376 
L 154.649839 204.256376 
L 154.649839 202.128565 
L 155.024477 202.128565 
L 155.024477 200.000753 
L 155.18278 200.000753 
L 155.28758 190.4256 
L 155.547053 190.4256 
L 155.547053 188.297788 
L 155.802997 188.297788 
L 155.802997 182.978259 
L 156.155566 182.978259 
L 156.155566 180.850447 
L 156.354107 180.850447 
L 156.354107 174.467012 
L 156.550574 174.467012 
L 156.550574 167.019671 
L 157.175281 167.019671 
L 157.269574 164.891859 
L 157.642093 164.891859 
L 157.734081 157.444518 
L 158.052543 157.444518 
L 158.052543 153.188894 
L 158.976805 153.188894 
L 158.976805 152.124988 
L 159.14782 152.124988 
L 159.14782 147.869365 
L 159.857774 147.869365 
L 159.939564 138.294212 
L 160.383158 138.294212 
L 160.383158 136.1664 
L 160.777545 136.1664 
L 160.777545 132.974682 
L 160.97168 132.974682 
L 160.97168 131.910776 
L 161.125559 131.910776 
L 161.125559 130.846871 
L 161.354042 130.846871 
L 161.354042 124.463435 
L 162.420867 124.463435 
L 162.420867 122.335624 
L 162.66956 122.335624 
L 162.66956 118.08 
L 163.59914 118.08 
L 163.59914 114.888282 
L 164.030845 114.888282 
L 164.030845 111.696565 
L 164.2268 111.696565 
L 164.2268 108.504847 
L 164.959603 108.504847 
L 164.959603 107.440941 
L 165.300233 107.440941 
L 165.300233 103.185318 
L 165.51383 103.185318 
L 165.51383 95.737976 
L 165.634805 95.737976 
L 165.634805 92.546259 
L 165.96353 92.546259 
L 165.96353 91.482353 
L 167.251516 91.482353 
L 167.251516 90.418447 
L 169.75999 90.418447 
L 169.75999 89.354541 
L 170.955893 89.354541 
L 170.955893 88.290635 
L 172.101681 88.290635 
L 172.101681 87.226729 
L 174.393216 87.226729 
L 174.393216 86.162824 
L 175.761601 86.162824 
L 175.761601 85.098918 
L 175.936756 85.098918 
L 175.936756 84.035012 
L 177.004244 84.035012 
L 177.004244 82.971106 
L 178.29332 82.971106 
L 178.29332 81.9072 
L 179.340338 81.9072 
L 179.340338 80.843294 
L 179.60041 80.843294 
L 179.60041 79.779388 
L 180.849423 79.779388 
L 180.849423 78.715482 
L 181.792161 78.715482 
L 181.792161 77.651576 
L 182.296185 77.651576 
L 182.296185 76.587671 
L 183.158861 76.587671 
L 183.158861 75.523765 
L 184.220899 75.523765 
L 184.220899 74.459859 
L 184.554643 74.459859 
L 184.554643 73.395953 
L 184.979843 73.395953 
L 184.979843 72.332047 
L 185.374543 72.332047 
L 185.374543 71.268141 
L 186.210749 71.268141 
L 186.210749 70.204235 
L 186.391631 70.204235 
L 186.391631 69.140329 
L 186.875397 69.140329 
L 186.875397 68.076424 
L 187.175151 68.076424 
L 187.175151 67.012518 
L 187.289914 67.012518 
L 187.289914 65.948612 
L 187.555003 65.948612 
L 187.555003 64.884706 
L 187.964168 64.884706 
L 188.065084 62.756894 
L 188.210911 62.756894 
L 188.210911 61.692988 
L 188.328568 61.692988 
L 188.328568 60.629082 
L 188.481326 60.629082 
L 188.588413 58.501271 
L 188.818364 58.501271 
L 188.818364 55.309553 
L 189.61861 55.309553 
L 189.61861 54.245647 
L 190.109194 54.245647 
L 190.109194 53.181741 
L 190.802117 53.181741 
L 190.802117 52.117835 
L 191.439858 52.117835 
L 191.439858 51.053929 
L 192.167364 51.053929 
L 192.167364 49.990024 
L 192.931463 49.990024 
L 192.931463 48.926118 
L 193.460812 48.926118 
L 193.460812 47.862212 
L 194.234505 47.862212 
L 194.234505 46.798306 
L 194.677457 46.798306 
L 194.677457 45.7344 
L 194.964955 45.7344 
L 194.964955 44.670494 
L 195.594663 44.670494 
L 195.594663 43.606588 
L 196.001054 43.606588 
L 196.001054 42.542682 
L 196.404725 42.542682 
L 196.404725 41.478776 
L 196.811415 41.478776 
L 196.811415 40.414871 
L 196.983054 40.414871 
L 196.983054 39.350965 
L 197.399854 39.350965 
L 197.399854 38.287059 
L 197.648871 38.287059 
L 197.648871 37.223153 
L 197.986649 37.223153 
L 197.986649 36.159247 
L 198.450628 36.159247 
L 198.450628 35.095341 
L 198.74334 35.095341 
L 198.74334 34.031435 
L 213.200665 34.031435 
L 213.241505 27.648 
L 360.8064 27.648 
L 360.8064 27.648 
" style="fill: none; stroke: #00bfbf; stroke-width: 1.5; stroke-linecap: square"/>
   </g>
   <g id="line2d_31">
    <defs>
     <path id="meadf80e809" d="M -6 0 
L 6 0 
M 0 6 
L 0 -6 
" style="stroke: #00bfbf; stroke-width: 1.5"/>
    </defs>
    <g>
     <use xlink:href="#meadf80e809" x="161.125559" y="130.846871" style="fill-opacity: 0; stroke: #00bfbf; stroke-width: 1.5"/>
     <use xlink:href="#meadf80e809" x="197.648871" y="38.287059" style="fill-opacity: 0; stroke: #00bfbf; stroke-width: 1.5"/>
     <use xlink:href="#meadf80e809" x="213.241505" y="27.648" style="fill-opacity: 0; stroke: #00bfbf; stroke-width: 1.5"/>
     <use xlink:href="#meadf80e809" x="213.241505" y="27.648" style="fill-opacity: 0; stroke: #00bfbf; stroke-width: 1.5"/>
     <use xlink:href="#meadf80e809" x="360.8064" y="27.648" style="fill-opacity: 0; stroke: #00bfbf; stroke-width: 1.5"/>
    </g>
   </g>
   <g id="line2d_32">
    <path style="fill: none; stroke: #00bfbf; stroke-width: 1.5; stroke-linecap: square"/>
    <g/>
   </g>
   <g id="line2d_33">
    <defs>
     <path id="me5e1efc531" d="M 0 1.5 
C 0.397805 1.5 0.77937 1.341951 1.06066 1.06066 
C 1.341951 0.77937 1.5 0.397805 1.5 0 
C 1.5 -0.397805 1.341951 -0.77937 1.06066 -1.06066 
C 0.77937 -1.341951 0.397805 -1.5 0 -1.5 
C -0.397805 -1.5 -0.77937 -1.341951 -1.06066 -1.06066 
C -1.341951 -0.77937 -1.5 -0.397805 -1.5 0 
C -1.5 0.397805 -1.341951 0.77937 -1.06066 1.06066 
C -0.77937 1.341951 -0.397805 1.5 0 1.5 
z
" style="stroke: #008000"/>
    </defs>
    <g>
     <use xlink:href="#me5e1efc531" x="215.339767" y="27.648" style="fill: #008000; stroke: #008000"/>
     <use xlink:href="#me5e1efc531" x="215.339767" y="27.648" style="fill: #008000; stroke: #008000"/>
    </g>
   </g>
   <g id="line2d_34">
    <path d="M 129.069367 298.944 
L 129.069367 297.880094 
L 130.292209 297.880094 
L 130.292209 296.816188 
L 130.4233 296.816188 
L 130.4233 295.752282 
L 132.405295 295.752282 
L 132.405295 294.688376 
L 132.869802 294.688376 
L 132.869802 292.560565 
L 133.210806 292.560565 
L 133.210806 290.432753 
L 135.932769 290.432753 
L 135.932769 289.368847 
L 136.602972 289.368847 
L 136.696795 282.985412 
L 136.97549 282.985412 
L 136.97549 280.8576 
L 137.520791 280.8576 
L 137.520791 279.793694 
L 137.787626 279.793694 
L 137.787626 277.665882 
L 138.902075 277.665882 
L 138.902075 275.538071 
L 139.954178 275.538071 
L 139.954178 272.346353 
L 141.173167 272.346353 
L 141.173167 269.154635 
L 141.825656 269.154635 
L 141.825656 268.090729 
L 141.96763 268.090729 
L 141.96763 267.026824 
L 142.797687 267.026824 
L 142.797687 265.962918 
L 144.786447 265.962918 
L 144.786447 264.899012 
L 145.0284 264.899012 
L 145.0284 263.835106 
L 147.660152 263.835106 
L 147.660152 262.7712 
L 149.453084 262.7712 
L 149.453084 261.707294 
L 154.24919 261.707294 
L 154.24919 260.643388 
L 154.613767 260.643388 
L 154.613767 259.579482 
L 156.953406 259.579482 
L 156.953406 258.515576 
L 157.143744 258.515576 
L 157.143744 257.451671 
L 157.269574 257.451671 
L 157.269574 255.323859 
L 158.067574 255.323859 
L 158.127579 253.196047 
L 158.247018 253.196047 
L 158.336102 247.876518 
L 159.062507 247.876518 
L 159.062507 246.812612 
L 159.317295 246.812612 
L 159.317295 245.748706 
L 159.596403 245.748706 
L 159.596403 244.6848 
L 160.007451 244.6848 
L 160.088594 241.493082 
L 160.276577 241.493082 
L 160.276577 240.429176 
L 160.777545 240.429176 
L 160.803545 236.173553 
L 161.112783 236.173553 
L 161.112783 232.981835 
L 161.666845 232.981835 
L 161.666845 228.726212 
L 162.011118 228.726212 
L 162.011118 227.662306 
L 162.180921 227.662306 
L 162.180921 224.470588 
L 162.301277 224.470588 
L 162.301277 223.406682 
L 162.961399 223.406682 
L 162.961399 222.342776 
L 163.145827 222.342776 
L 163.168754 220.214965 
L 163.351171 220.214965 
L 163.351171 219.151059 
L 163.554297 219.151059 
L 163.554297 217.023247 
L 163.976048 217.023247 
L 163.976048 215.959341 
L 164.259262 215.959341 
L 164.324018 213.831529 
L 164.388551 213.831529 
L 164.495618 211.703718 
L 164.834193 211.703718 
L 164.855153 205.320282 
L 165.104867 205.320282 
L 165.104867 204.256376 
L 165.473332 204.256376 
L 165.574415 201.064659 
L 165.894279 201.064659 
L 165.894279 197.872941 
L 166.556452 197.872941 
L 166.556452 194.681224 
L 166.878997 194.681224 
L 166.878997 193.617318 
L 167.084795 193.617318 
L 167.084795 192.553412 
L 167.214594 192.553412 
L 167.288365 189.361694 
L 167.398482 189.361694 
L 167.398482 187.233882 
L 167.562457 187.233882 
L 167.598703 185.106071 
L 167.850487 185.106071 
L 167.904005 182.978259 
L 168.309328 182.978259 
L 168.309328 174.467012 
L 169.458999 174.467012 
L 169.458999 172.3392 
L 171.226568 172.3392 
L 171.226568 171.275294 
L 172.370523 171.275294 
L 172.370523 170.211388 
L 173.395744 170.211388 
L 173.395744 169.147482 
L 173.946365 169.147482 
L 173.946365 168.083576 
L 176.012153 168.083576 
L 176.012153 167.019671 
L 176.299358 167.019671 
L 176.299358 165.955765 
L 178.205956 165.955765 
L 178.226549 163.827953 
L 178.532766 163.827953 
L 178.532766 162.764047 
L 179.833329 162.764047 
L 179.861652 160.636235 
L 180.818066 160.636235 
L 180.818066 159.572329 
L 181.435472 159.572329 
L 181.530677 157.444518 
L 181.991182 157.444518 
L 181.991182 156.380612 
L 182.108755 156.380612 
L 182.108755 155.316706 
L 182.424225 155.316706 
L 182.424225 154.2528 
L 182.879694 154.2528 
L 182.879694 153.188894 
L 183.449544 153.188894 
L 183.449544 152.124988 
L 183.774156 152.124988 
L 183.835357 149.997176 
L 184.017773 149.997176 
L 184.108322 147.869365 
L 184.355108 147.869365 
L 184.355108 146.805459 
L 184.554643 146.805459 
L 184.554643 145.741553 
L 184.940274 145.741553 
L 184.940274 144.677647 
L 185.062311 144.677647 
L 185.169337 142.549835 
L 185.24035 142.549835 
L 185.24035 141.485929 
L 185.619261 141.485929 
L 185.667825 139.358118 
L 185.874547 139.358118 
L 185.895095 137.230306 
L 186.072242 137.230306 
L 186.166943 134.038588 
L 186.267881 134.038588 
L 186.267881 131.910776 
L 186.381628 131.910776 
L 186.381628 130.846871 
L 186.75153 130.846871 
L 186.75153 129.782965 
L 187.171953 129.782965 
L 187.274017 127.655153 
L 187.426081 127.655153 
L 187.451306 125.527341 
L 187.732781 125.527341 
L 187.732781 124.463435 
L 187.856542 124.463435 
L 187.856542 123.399529 
L 188.052881 123.399529 
L 188.052881 122.335624 
L 188.192744 122.335624 
L 188.192744 121.271718 
L 188.421569 121.271718 
L 188.421569 120.207812 
L 188.653556 120.207812 
L 188.688994 118.08 
L 188.841791 118.08 
L 188.841791 117.016094 
L 189.34993 117.016094 
L 189.34993 115.952188 
L 189.491819 115.952188 
L 189.542638 113.824376 
L 189.660685 113.824376 
L 189.761282 111.696565 
L 189.816937 111.696565 
L 189.833602 109.568753 
L 190.163831 109.568753 
L 190.163831 108.504847 
L 190.283477 108.504847 
L 190.321387 106.377035 
L 190.744016 106.377035 
L 190.80739 103.185318 
L 190.949206 103.185318 
L 190.949206 102.121412 
L 191.162533 102.121412 
L 191.162533 101.057506 
L 191.383696 101.057506 
L 191.444955 98.929694 
L 191.647722 98.929694 
L 191.662842 96.801882 
L 191.858302 96.801882 
L 191.962714 91.482353 
L 191.977583 91.482353 
L 191.977583 90.418447 
L 192.160005 90.418447 
L 192.160005 89.354541 
L 192.452116 89.354541 
L 192.52444 87.226729 
L 192.601281 87.226729 
L 192.615654 85.098918 
L 192.725482 85.098918 
L 192.749273 82.971106 
L 192.947938 82.971106 
L 192.962049 79.779388 
L 193.074553 79.779388 
L 193.074553 78.715482 
L 193.23279 78.715482 
L 193.306797 76.587671 
L 193.357508 76.587671 
L 193.467679 71.268141 
L 193.49055 71.268141 
L 193.49055 70.204235 
L 194.88235 70.204235 
L 194.88235 69.140329 
L 196.269157 69.140329 
L 196.269157 68.076424 
L 197.109821 68.076424 
L 197.109821 67.012518 
L 197.520163 67.012518 
L 197.520163 65.948612 
L 198.11579 65.948612 
L 198.11579 64.884706 
L 198.592326 64.884706 
L 198.592326 63.8208 
L 206.440369 63.8208 
L 206.440369 62.756894 
L 206.84254 62.756894 
L 206.84254 61.692988 
L 207.337288 61.692988 
L 207.337288 60.629082 
L 207.587431 60.629082 
L 207.587431 59.565176 
L 207.748794 59.565176 
L 207.836423 55.309553 
L 208.239355 55.309553 
L 208.3455 53.181741 
L 208.56832 53.181741 
L 208.56832 52.117835 
L 208.873478 52.117835 
L 208.873478 51.053929 
L 209.080189 51.053929 
L 209.080189 49.990024 
L 209.314246 49.990024 
L 209.314246 48.926118 
L 209.570722 48.926118 
L 209.570722 47.862212 
L 209.710211 47.862212 
L 209.710211 46.798306 
L 209.829503 46.798306 
L 209.829503 45.7344 
L 210.010835 45.7344 
L 210.010835 44.670494 
L 210.32542 44.670494 
L 210.32542 43.606588 
L 210.513156 43.606588 
L 210.513156 42.542682 
L 210.708191 42.542682 
L 210.708191 41.478776 
L 210.937426 41.478776 
L 210.937426 40.414871 
L 211.068969 40.414871 
L 211.068969 39.350965 
L 211.196032 39.350965 
L 211.196032 38.287059 
L 211.466962 38.287059 
L 211.507354 36.159247 
L 211.725376 36.159247 
L 211.725376 35.095341 
L 214.959606 35.095341 
L 214.959606 34.031435 
L 215.071706 34.031435 
L 215.141249 31.903624 
L 215.194681 31.903624 
L 215.291051 28.711906 
L 215.339767 28.711906 
L 215.339767 27.648 
L 360.8064 27.648 
L 360.8064 27.648 
" style="fill: none; stroke: #008000; stroke-width: 1.5; stroke-linecap: square"/>
   </g>
   <g id="line2d_35">
    <defs>
     <path id="m9f17ddeb4b" d="M -0 6 
L 6 -6 
L -6 -6 
z
" style="stroke: #008000; stroke-width: 1.5; stroke-linejoin: miter"/>
    </defs>
    <g>
     <use xlink:href="#m9f17ddeb4b" x="187.856542" y="123.399529" style="fill-opacity: 0; stroke: #008000; stroke-width: 1.5; stroke-linejoin: miter"/>
     <use xlink:href="#m9f17ddeb4b" x="215.339767" y="28.711906" style="fill-opacity: 0; stroke: #008000; stroke-width: 1.5; stroke-linejoin: miter"/>
     <use xlink:href="#m9f17ddeb4b" x="215.339767" y="27.648" style="fill-opacity: 0; stroke: #008000; stroke-width: 1.5; stroke-linejoin: miter"/>
     <use xlink:href="#m9f17ddeb4b" x="215.339767" y="27.648" style="fill-opacity: 0; stroke: #008000; stroke-width: 1.5; stroke-linejoin: miter"/>
     <use xlink:href="#m9f17ddeb4b" x="360.8064" y="27.648" style="fill-opacity: 0; stroke: #008000; stroke-width: 1.5; stroke-linejoin: miter"/>
    </g>
   </g>
   <g id="line2d_36">
    <path style="fill: none; stroke: #008000; stroke-width: 1.5; stroke-linecap: square"/>
    <g/>
   </g>
   <g id="line2d_37">
    <defs>
     <path id="m6cafd66f58" d="M 0 1.5 
C 0.397805 1.5 0.77937 1.341951 1.06066 1.06066 
C 1.341951 0.77937 1.5 0.397805 1.5 0 
C 1.5 -0.397805 1.341951 -0.77937 1.06066 -1.06066 
C 0.77937 -1.341951 0.397805 -1.5 0 -1.5 
C -0.397805 -1.5 -0.77937 -1.341951 -1.06066 -1.06066 
C -1.341951 -0.77937 -1.5 -0.397805 -1.5 0 
C -1.5 0.397805 -1.341951 0.77937 -1.06066 1.06066 
C -0.77937 1.341951 -0.397805 1.5 0 1.5 
z
" style="stroke: #0000ff"/>
    </defs>
    <g>
     <use xlink:href="#m6cafd66f58" x="193.112838" y="27.648" style="fill: #0000ff; stroke: #0000ff"/>
     <use xlink:href="#m6cafd66f58" x="193.112838" y="27.648" style="fill: #0000ff; stroke: #0000ff"/>
    </g>
   </g>
   <g id="line2d_38">
    <path d="M 132.777813 298.944 
L 132.777813 297.880094 
L 134.047992 297.880094 
L 134.047992 296.816188 
L 134.931919 296.816188 
L 134.993495 293.624471 
L 137.945929 293.624471 
L 137.945929 292.560565 
L 138.310202 292.560565 
L 138.310202 290.432753 
L 139.018248 290.432753 
L 139.117256 288.304941 
L 139.215746 288.304941 
L 139.215746 287.241035 
L 141.436884 287.241035 
L 141.436884 286.177129 
L 141.56737 286.177129 
L 141.56737 285.113224 
L 142.206555 285.113224 
L 142.206555 284.049318 
L 142.661862 284.049318 
L 142.661862 282.985412 
L 143.02636 282.985412 
L 143.02636 281.921506 
L 143.501625 281.921506 
L 143.540694 278.729788 
L 143.618588 278.729788 
L 143.618588 276.601976 
L 144.155003 276.601976 
L 144.155003 274.474165 
L 144.380294 274.474165 
L 144.380294 271.282447 
L 144.749884 271.282447 
L 144.749884 270.218541 
L 145.040416 270.218541 
L 145.040416 269.154635 
L 145.219746 269.154635 
L 145.219746 268.090729 
L 146.227438 268.090729 
L 146.227438 267.026824 
L 146.496179 267.026824 
L 146.496179 265.962918 
L 146.957431 265.962918 
L 146.989949 262.7712 
L 147.119461 262.7712 
L 147.119461 261.707294 
L 148.667336 261.707294 
L 148.667336 260.643388 
L 149.338728 260.643388 
L 149.338728 259.579482 
L 154.278618 259.579482 
L 154.278618 258.515576 
L 155.701037 258.515576 
L 155.701037 256.387765 
L 156.145584 256.387765 
L 156.145584 255.323859 
L 156.383708 255.323859 
L 156.383708 254.259953 
L 156.579868 254.259953 
L 156.579868 253.196047 
L 156.88953 253.196047 
L 156.88953 252.132141 
L 157.382107 252.132141 
L 157.475372 248.940424 
L 157.53111 248.940424 
L 157.53111 247.876518 
L 158.976805 247.876518 
L 159.062507 240.429176 
L 159.668298 240.429176 
L 159.668298 239.365271 
L 159.833168 239.365271 
L 159.898714 237.237459 
L 160.045361 237.237459 
L 160.045361 236.173553 
L 160.206974 236.173553 
L 160.206974 234.045741 
L 160.399093 234.045741 
L 160.478568 230.854024 
L 160.667947 230.854024 
L 160.667947 229.790118 
L 160.87098 229.790118 
L 160.979404 226.5984 
L 161.36161 226.5984 
L 161.422049 224.470588 
L 161.661881 224.470588 
L 161.736206 219.151059 
L 161.898693 219.151059 
L 162.001369 213.831529 
L 162.233972 213.831529 
L 162.233972 212.767624 
L 162.478002 212.767624 
L 162.478002 209.575906 
L 162.817213 209.575906 
L 162.831214 206.384188 
L 163.150415 206.384188 
L 163.150415 205.320282 
L 163.301182 205.320282 
L 163.410077 203.192471 
L 163.477818 203.192471 
L 163.518345 201.064659 
L 163.59914 201.064659 
L 163.692963 198.936847 
L 163.95848 198.936847 
L 164.011136 193.617318 
L 164.516958 193.617318 
L 164.606324 188.297788 
L 164.669899 188.297788 
L 164.720604 185.106071 
L 164.959603 185.106071 
L 164.959603 184.042165 
L 165.207944 184.042165 
L 165.294095 180.850447 
L 165.525963 180.850447 
L 165.525963 179.786541 
L 165.64686 179.786541 
L 165.64686 178.722635 
L 165.766985 178.722635 
L 165.802874 176.594824 
L 165.91013 176.594824 
L 165.969454 172.3392 
L 166.087543 172.3392 
L 166.087543 170.211388 
L 166.321521 170.211388 
L 166.321521 169.147482 
L 166.437427 169.147482 
L 166.437427 168.083576 
L 166.644276 168.083576 
L 166.735484 165.955765 
L 166.882759 165.955765 
L 166.894041 163.827953 
L 167.01769 163.827953 
L 167.040085 158.508424 
L 167.284683 158.508424 
L 167.284683 156.380612 
L 167.4058 156.380612 
L 167.504319 152.124988 
L 167.580589 152.124988 
L 167.656552 149.997176 
L 167.936043 149.997176 
L 168.010586 146.805459 
L 168.169334 146.805459 
L 168.211442 144.677647 
L 168.781062 144.677647 
L 168.781062 143.613741 
L 169.034386 143.613741 
L 169.084644 141.485929 
L 169.491772 141.485929 
L 169.491772 140.422024 
L 169.784185 140.422024 
L 169.784185 139.358118 
L 170.138678 139.358118 
L 170.138678 138.294212 
L 170.458643 138.294212 
L 170.458643 137.230306 
L 170.690486 137.230306 
L 170.708911 135.102494 
L 170.946803 135.102494 
L 171.055593 132.974682 
L 171.333756 132.974682 
L 171.333756 131.910776 
L 171.519879 131.910776 
L 171.519879 130.846871 
L 171.721637 130.846871 
L 171.721637 129.782965 
L 171.869384 129.782965 
L 171.869384 127.655153 
L 172.254968 127.655153 
L 172.254968 126.591247 
L 172.415427 126.591247 
L 172.415427 125.527341 
L 172.724025 125.527341 
L 172.724025 123.399529 
L 172.872342 123.399529 
L 172.921523 121.271718 
L 173.084536 121.271718 
L 173.165515 119.143906 
L 173.254192 119.143906 
L 173.254192 117.016094 
L 173.517742 117.016094 
L 173.517742 115.952188 
L 173.75417 115.952188 
L 173.75417 114.888282 
L 175.616746 114.888282 
L 175.616746 113.824376 
L 176.469599 113.824376 
L 176.469599 112.760471 
L 177.050311 112.760471 
L 177.050311 111.696565 
L 178.222432 111.696565 
L 178.290243 109.568753 
L 179.273294 109.568753 
L 179.349065 107.440941 
L 180.051262 107.440941 
L 180.051262 106.377035 
L 180.614326 106.377035 
L 180.614326 105.313129 
L 180.943179 105.313129 
L 180.943179 104.249224 
L 181.365929 104.249224 
L 181.365929 103.185318 
L 181.758927 103.185318 
L 181.855908 101.057506 
L 182.113777 101.057506 
L 182.113777 99.9936 
L 182.308614 99.9936 
L 182.308614 98.929694 
L 182.682594 98.929694 
L 182.702072 96.801882 
L 182.939064 96.801882 
L 183.020593 93.610165 
L 183.144604 93.610165 
L 183.144604 92.546259 
L 183.460455 92.546259 
L 183.460455 91.482353 
L 183.899404 91.482353 
L 183.990523 89.354541 
L 184.202932 89.354541 
L 184.202932 88.290635 
L 184.377384 88.290635 
L 184.48394 86.162824 
L 185.003545 86.162824 
L 185.003545 85.098918 
L 185.153678 85.098918 
L 185.153678 84.035012 
L 185.429356 84.035012 
L 185.429356 82.971106 
L 185.634537 82.971106 
L 185.634537 81.9072 
L 185.779737 81.9072 
L 185.862207 79.779388 
L 186.127768 79.779388 
L 186.127768 78.715482 
L 186.329524 78.715482 
L 186.329524 77.651576 
L 186.453534 77.651576 
L 186.453534 76.587671 
L 186.564846 76.587671 
L 186.564846 75.523765 
L 186.789428 75.523765 
L 186.789428 74.459859 
L 186.933788 74.459859 
L 186.957094 72.332047 
L 187.150193 72.332047 
L 187.150193 71.268141 
L 187.352737 71.268141 
L 187.352737 70.204235 
L 187.519245 70.204235 
L 187.519245 69.140329 
L 187.688027 69.140329 
L 187.688027 68.076424 
L 187.866408 68.076424 
L 187.888587 65.948612 
L 188.112602 65.948612 
L 188.218173 63.8208 
L 188.276166 63.8208 
L 188.276166 62.756894 
L 188.474165 62.756894 
L 188.474165 61.692988 
L 188.634629 61.692988 
L 188.634629 60.629082 
L 188.779646 60.629082 
L 188.842961 58.501271 
L 189.007286 58.501271 
L 189.007286 57.437365 
L 189.14947 57.437365 
L 189.14947 56.373459 
L 189.266569 56.373459 
L 189.372704 54.245647 
L 189.552785 54.245647 
L 189.586571 52.117835 
L 189.741205 52.117835 
L 189.741205 51.053929 
L 189.881292 51.053929 
L 189.881292 49.990024 
L 190.003843 49.990024 
L 190.086199 46.798306 
L 190.210692 46.798306 
L 190.308398 44.670494 
L 190.636851 44.670494 
L 190.745074 42.542682 
L 191.019194 42.542682 
L 191.019194 41.478776 
L 191.193549 41.478776 
L 191.193549 40.414871 
L 191.482632 40.414871 
L 191.482632 39.350965 
L 191.719182 39.350965 
L 191.719182 38.287059 
L 191.899141 38.287059 
L 191.899141 37.223153 
L 192.038916 37.223153 
L 192.038916 36.159247 
L 192.324146 36.159247 
L 192.324146 35.095341 
L 192.466603 35.095341 
L 192.466603 34.031435 
L 192.67399 34.031435 
L 192.765433 31.903624 
L 192.836566 31.903624 
L 192.932875 29.775812 
L 193.017447 29.775812 
L 193.112838 27.648 
L 360.8064 27.648 
L 360.8064 27.648 
" style="fill: none; stroke: #0000ff; stroke-width: 1.5; stroke-linecap: square"/>
   </g>
   <g id="line2d_39">
    <defs>
     <path id="m86141b3e6b" d="M 0 -6 
L -1.347084 -1.854102 
L -5.706339 -1.854102 
L -2.179628 0.708204 
L -3.526712 4.854102 
L -0 2.291796 
L 3.526712 4.854102 
L 2.179628 0.708204 
L 5.706339 -1.854102 
L 1.347084 -1.854102 
z
" style="stroke: #0000ff; stroke-width: 1.5; stroke-linejoin: bevel"/>
    </defs>
    <g>
     <use xlink:href="#m86141b3e6b" x="163.410077" y="204.256376" style="fill-opacity: 0; stroke: #0000ff; stroke-width: 1.5; stroke-linejoin: bevel"/>
     <use xlink:href="#m86141b3e6b" x="193.112838" y="28.711906" style="fill-opacity: 0; stroke: #0000ff; stroke-width: 1.5; stroke-linejoin: bevel"/>
     <use xlink:href="#m86141b3e6b" x="193.112838" y="27.648" style="fill-opacity: 0; stroke: #0000ff; stroke-width: 1.5; stroke-linejoin: bevel"/>
     <use xlink:href="#m86141b3e6b" x="193.112838" y="27.648" style="fill-opacity: 0; stroke: #0000ff; stroke-width: 1.5; stroke-linejoin: bevel"/>
     <use xlink:href="#m86141b3e6b" x="360.8064" y="27.648" style="fill-opacity: 0; stroke: #0000ff; stroke-width: 1.5; stroke-linejoin: bevel"/>
    </g>
   </g>
   <g id="line2d_40">
    <path style="fill: none; stroke: #0000ff; stroke-width: 1.5; stroke-linecap: square"/>
    <g/>
   </g>
   <g id="line2d_41">
    <defs>
     <path id="madba0fa9a2" d="M 0 1.5 
C 0.397805 1.5 0.77937 1.341951 1.06066 1.06066 
C 1.341951 0.77937 1.5 0.397805 1.5 0 
C 1.5 -0.397805 1.341951 -0.77937 1.06066 -1.06066 
C 0.77937 -1.341951 0.397805 -1.5 0 -1.5 
C -0.397805 -1.5 -0.77937 -1.341951 -1.06066 -1.06066 
C -1.341951 -0.77937 -1.5 -0.397805 -1.5 0 
C -1.5 0.397805 -1.341951 0.77937 -1.06066 1.06066 
C -0.77937 1.341951 -0.397805 1.5 0 1.5 
z
" style="stroke: #000000"/>
    </defs>
    <g>
     <use xlink:href="#madba0fa9a2" x="188.221802" y="27.648" style="stroke: #000000"/>
     <use xlink:href="#madba0fa9a2" x="188.221802" y="27.648" style="stroke: #000000"/>
    </g>
   </g>
   <g id="line2d_42">
    <path d="M 139.508159 298.944 
L 139.508159 297.880094 
L 139.748412 297.880094 
L 139.748412 296.816188 
L 140.679868 296.816188 
L 140.679868 295.752282 
L 140.905699 295.752282 
L 140.995278 292.560565 
L 141.017607 292.560565 
L 141.039908 290.432753 
L 141.458695 290.432753 
L 141.458695 289.368847 
L 142.185595 289.368847 
L 142.185595 288.304941 
L 142.373399 288.304941 
L 142.373399 287.241035 
L 142.497568 287.241035 
L 142.538777 285.113224 
L 142.641404 285.113224 
L 142.641404 282.985412 
L 142.763822 282.985412 
L 142.763822 281.921506 
L 142.945969 281.921506 
L 142.945969 280.8576 
L 143.066428 280.8576 
L 143.126369 278.729788 
L 143.48206 278.729788 
L 143.48206 277.665882 
L 143.599145 277.665882 
L 143.638012 275.538071 
L 143.715505 275.538071 
L 143.811926 273.410259 
L 143.83115 273.410259 
L 143.83115 272.346353 
L 144.098256 272.346353 
L 144.098256 271.282447 
L 144.324223 271.282447 
L 144.417581 268.090729 
L 144.602918 268.090729 
L 144.602918 267.026824 
L 144.895711 267.026824 
L 144.895711 265.962918 
L 145.112353 265.962918 
L 145.184016 263.835106 
L 145.361989 263.835106 
L 145.379694 261.707294 
L 145.485575 261.707294 
L 145.555833 257.451671 
L 146.176619 257.451671 
L 146.261241 255.323859 
L 146.761135 255.323859 
L 146.810401 253.196047 
L 146.957431 253.196047 
L 146.957431 252.132141 
L 147.070998 252.132141 
L 147.070998 251.068235 
L 147.581606 251.068235 
L 147.581606 250.004329 
L 147.878349 250.004329 
L 147.878349 248.940424 
L 148.094045 248.940424 
L 148.155221 246.812612 
L 153.444416 246.812612 
L 153.444416 245.748706 
L 158.321284 245.748706 
L 158.321284 244.6848 
L 159.351007 244.6848 
L 159.443406 242.556988 
L 160.494422 242.556988 
L 160.526092 240.429176 
L 161.497325 240.429176 
L 161.497325 239.365271 
L 161.913396 239.365271 
L 161.913396 238.301365 
L 162.435167 238.301365 
L 162.435167 237.237459 
L 162.683672 237.237459 
L 162.732982 235.109647 
L 163.267023 235.109647 
L 163.267023 232.981835 
L 163.719684 232.981835 
L 163.806266 229.790118 
L 163.91889 229.790118 
L 163.91889 228.726212 
L 164.187772 228.726212 
L 164.187772 227.662306 
L 164.356312 227.662306 
L 164.356312 226.5984 
L 164.790101 226.5984 
L 164.790101 225.534494 
L 165.257222 225.534494 
L 165.257222 224.470588 
L 165.731028 224.470588 
L 165.826761 222.342776 
L 165.856578 222.342776 
L 165.892297 220.214965 
L 166.163906 220.214965 
L 166.163906 219.151059 
L 166.587046 219.151059 
L 166.587046 218.087153 
L 166.786594 218.087153 
L 166.786594 217.023247 
L 166.961587 217.023247 
L 166.961587 215.959341 
L 167.4058 215.959341 
L 167.498859 213.831529 
L 167.618609 213.831529 
L 167.618609 212.767624 
L 167.759155 212.767624 
L 167.759155 211.703718 
L 167.91469 211.703718 
L 167.973351 209.575906 
L 168.227208 209.575906 
L 168.227208 208.512 
L 168.596533 208.512 
L 168.704395 206.384188 
L 168.948638 206.384188 
L 169.054505 204.256376 
L 169.079624 204.256376 
L 169.079624 203.192471 
L 169.62392 203.192471 
L 169.711507 201.064659 
L 169.750303 201.064659 
L 169.832482 197.872941 
L 170.086404 197.872941 
L 170.167131 194.681224 
L 170.369787 194.681224 
L 170.444641 192.553412 
L 170.528496 192.553412 
L 170.528496 191.489506 
L 170.685877 191.489506 
L 170.685877 190.4256 
L 171.001277 190.4256 
L 171.028455 187.233882 
L 171.293632 187.233882 
L 171.293632 186.169976 
L 171.444765 186.169976 
L 171.506646 184.042165 
L 171.572721 184.042165 
L 171.572721 182.978259 
L 171.725999 182.978259 
L 171.813029 180.850447 
L 171.899659 180.850447 
L 171.951446 177.658729 
L 172.080292 177.658729 
L 172.165703 175.530918 
L 172.233753 175.530918 
L 172.233753 174.467012 
L 172.557844 174.467012 
L 172.607852 172.3392 
L 172.678471 172.3392 
L 172.773594 169.147482 
L 172.88465 169.147482 
L 172.978738 165.955765 
L 173.157433 165.955765 
L 173.157433 164.891859 
L 173.28232 164.891859 
L 173.28232 162.764047 
L 173.785471 162.764047 
L 173.867387 160.636235 
L 174.237387 160.636235 
L 174.237387 159.572329 
L 174.400785 159.572329 
L 174.510187 157.444518 
L 175.033228 157.444518 
L 175.055166 155.316706 
L 175.178998 155.316706 
L 175.178998 154.2528 
L 175.506477 154.2528 
L 175.506477 153.188894 
L 175.694612 153.188894 
L 175.789735 149.997176 
L 176.082637 149.997176 
L 176.082637 148.933271 
L 176.374454 148.933271 
L 176.41189 146.805459 
L 176.628234 146.805459 
L 176.678581 144.677647 
L 177.010832 144.677647 
L 177.086427 142.549835 
L 177.298436 142.549835 
L 177.340553 140.422024 
L 177.696375 140.422024 
L 177.696375 139.358118 
L 177.898516 139.358118 
L 177.898516 138.294212 
L 178.160572 138.294212 
L 178.253286 136.1664 
L 178.409858 136.1664 
L 178.409858 135.102494 
L 178.628705 135.102494 
L 178.640789 131.910776 
L 178.898732 131.910776 
L 178.955245 129.782965 
L 179.162 129.782965 
L 179.162 128.719059 
L 179.386836 128.719059 
L 179.421635 126.591247 
L 179.588927 126.591247 
L 179.588927 125.527341 
L 179.890875 125.527341 
L 179.992331 123.399529 
L 180.12676 123.399529 
L 180.12676 121.271718 
L 180.433996 121.271718 
L 180.433996 120.207812 
L 180.55168 120.207812 
L 180.608887 118.08 
L 180.959205 118.08 
L 180.959205 117.016094 
L 181.094875 117.016094 
L 181.14517 114.888282 
L 181.250616 114.888282 
L 181.30574 112.760471 
L 181.519451 112.760471 
L 181.519451 111.696565 
L 181.74613 111.696565 
L 181.827886 108.504847 
L 182.271302 108.504847 
L 182.298671 105.313129 
L 182.422579 105.313129 
L 182.422579 104.249224 
L 182.704506 104.249224 
L 182.750681 101.057506 
L 182.847523 101.057506 
L 182.847523 99.9936 
L 183.070773 99.9936 
L 183.118439 97.865788 
L 183.215779 97.865788 
L 183.215779 96.801882 
L 183.331456 96.801882 
L 183.37612 94.674071 
L 183.52113 94.674071 
L 183.574642 92.546259 
L 183.695066 92.546259 
L 183.75499 90.418447 
L 183.810136 90.418447 
L 183.860544 87.226729 
L 183.988251 87.226729 
L 184.097028 85.098918 
L 184.23212 85.098918 
L 184.256782 82.971106 
L 184.448488 82.971106 
L 184.514905 80.843294 
L 184.704012 80.843294 
L 184.773895 77.651576 
L 184.906394 77.651576 
L 185.007851 74.459859 
L 185.10448 74.459859 
L 185.213397 72.332047 
L 185.264434 72.332047 
L 185.363983 70.204235 
L 185.376654 70.204235 
L 185.463008 68.076424 
L 185.530133 68.076424 
L 185.624123 64.884706 
L 185.642864 64.884706 
L 185.642864 63.8208 
L 185.788 63.8208 
L 185.86015 61.692988 
L 185.981152 61.692988 
L 185.981152 60.629082 
L 186.107472 60.629082 
L 186.141961 58.501271 
L 186.232951 58.501271 
L 186.232951 57.437365 
L 186.373621 57.437365 
L 186.477442 54.245647 
L 186.558899 54.245647 
L 186.558899 53.181741 
L 186.761992 53.181741 
L 186.783553 49.990024 
L 186.890986 49.990024 
L 186.926013 47.862212 
L 187.019102 47.862212 
L 187.019102 46.798306 
L 187.13674 46.798306 
L 187.200076 43.606588 
L 187.364137 43.606588 
L 187.460757 40.414871 
L 187.549362 40.414871 
L 187.646909 37.223153 
L 187.78486 37.223153 
L 187.868257 34.031435 
L 187.980719 34.031435 
L 188.08703 29.775812 
L 188.20183 29.775812 
L 188.221802 27.648 
L 360.8064 27.648 
L 360.8064 27.648 
" style="fill: none; stroke: #000000; stroke-width: 1.5; stroke-linecap: square"/>
   </g>
   <g id="line2d_43">
    <defs>
     <path id="m9f3cf72f63" d="M 0 6 
C 1.591219 6 3.117479 5.367802 4.242641 4.242641 
C 5.367802 3.117479 6 1.591219 6 0 
C 6 -1.591219 5.367802 -3.117479 4.242641 -4.242641 
C 3.117479 -5.367802 1.591219 -6 0 -6 
C -1.591219 -6 -3.117479 -5.367802 -4.242641 -4.242641 
C -5.367802 -3.117479 -6 -1.591219 -6 0 
C -6 1.591219 -5.367802 3.117479 -4.242641 4.242641 
C -3.117479 5.367802 -1.591219 6 0 6 
z
" style="stroke: #000000; stroke-width: 1.5"/>
    </defs>
    <g>
     <use xlink:href="#m9f3cf72f63" x="177.010832" y="143.613741" style="fill-opacity: 0; stroke: #000000; stroke-width: 1.5"/>
     <use xlink:href="#m9f3cf72f63" x="188.221802" y="28.711906" style="fill-opacity: 0; stroke: #000000; stroke-width: 1.5"/>
     <use xlink:href="#m9f3cf72f63" x="188.221802" y="27.648" style="fill-opacity: 0; stroke: #000000; stroke-width: 1.5"/>
     <use xlink:href="#m9f3cf72f63" x="188.221802" y="27.648" style="fill-opacity: 0; stroke: #000000; stroke-width: 1.5"/>
     <use xlink:href="#m9f3cf72f63" x="360.8064" y="27.648" style="fill-opacity: 0; stroke: #000000; stroke-width: 1.5"/>
    </g>
   </g>
   <g id="line2d_44">
    <path style="fill: none; stroke: #000000; stroke-width: 1.5; stroke-linecap: square"/>
    <g/>
   </g>
   <g id="line2d_45">
    <defs>
     <path id="mbf8bf73a0a" d="M 0 1.5 
C 0.397805 1.5 0.77937 1.341951 1.06066 1.06066 
C 1.341951 0.77937 1.5 0.397805 1.5 0 
C 1.5 -0.397805 1.341951 -0.77937 1.06066 -1.06066 
C 0.77937 -1.341951 0.397805 -1.5 0 -1.5 
C -0.397805 -1.5 -0.77937 -1.341951 -1.06066 -1.06066 
C -1.341951 -0.77937 -1.5 -0.397805 -1.5 0 
C -1.5 0.397805 -1.341951 0.77937 -1.06066 1.06066 
C -0.77937 1.341951 -0.397805 1.5 0 1.5 
z
" style="stroke: #ff0000"/>
    </defs>
    <g>
     <use xlink:href="#mbf8bf73a0a" x="188.753202" y="27.648" style="fill: #ff0000; stroke: #ff0000"/>
     <use xlink:href="#mbf8bf73a0a" x="188.753202" y="27.648" style="fill: #ff0000; stroke: #ff0000"/>
    </g>
   </g>
   <g id="line2d_46">
    <path d="M 137.250116 298.944 
L 137.250116 297.880094 
L 137.439996 297.880094 
L 137.439996 296.816188 
L 137.601239 296.816188 
L 137.601239 295.752282 
L 138.024583 295.752282 
L 138.024583 294.688376 
L 138.180913 294.688376 
L 138.180913 292.560565 
L 138.425808 292.560565 
L 138.425808 291.496659 
L 138.730661 291.496659 
L 138.730661 290.432753 
L 139.141927 290.432753 
L 139.141927 289.368847 
L 139.325934 289.368847 
L 139.325934 288.304941 
L 139.652679 288.304941 
L 139.652679 287.241035 
L 139.796097 287.241035 
L 139.796097 286.177129 
L 139.93843 286.177129 
L 140.020963 284.049318 
L 140.056223 284.049318 
L 140.056223 282.985412 
L 140.508697 282.985412 
L 140.520157 280.8576 
L 140.759217 280.8576 
L 140.759217 279.793694 
L 140.883238 279.793694 
L 140.928134 277.665882 
L 140.995278 277.665882 
L 141.017607 275.538071 
L 141.117757 275.538071 
L 141.217377 273.410259 
L 141.664643 273.410259 
L 141.664643 272.346353 
L 141.879022 272.346353 
L 141.910969 270.218541 
L 142.038218 270.218541 
L 142.059343 268.090729 
L 142.164612 268.090729 
L 142.237951 265.962918 
L 142.383778 265.962918 
L 142.383778 264.899012 
L 142.631166 264.899012 
L 142.702713 262.7712 
L 142.814596 262.7712 
L 142.814596 261.707294 
L 143.275392 261.707294 
L 143.324805 258.515576 
L 143.403597 258.515576 
L 143.462475 256.387765 
L 143.560197 256.387765 
L 143.667109 254.259953 
L 143.686483 254.259953 
L 143.792681 252.132141 
L 143.888708 252.132141 
L 143.888708 251.068235 
L 144.098256 251.068235 
L 144.192739 248.940424 
L 144.417581 248.940424 
L 144.454795 246.812612 
L 144.630562 246.812612 
L 144.630562 245.748706 
L 144.768174 245.748706 
L 144.768174 244.6848 
L 144.91386 244.6848 
L 144.91386 243.620894 
L 145.201889 243.620894 
L 145.273213 241.493082 
L 145.326529 241.493082 
L 145.326529 240.429176 
L 145.485575 240.429176 
L 145.520737 238.301365 
L 146.040426 238.301365 
L 146.057504 236.173553 
L 146.345485 236.173553 
L 146.404232 234.045741 
L 146.496179 234.045741 
L 146.537825 231.917929 
L 146.892226 231.917929 
L 146.892226 230.854024 
L 147.087167 230.854024 
L 147.159751 228.726212 
L 147.518533 228.726212 
L 147.518533 227.662306 
L 147.722752 227.662306 
L 147.722752 226.5984 
L 147.932506 226.5984 
L 147.932506 225.534494 
L 148.055709 225.534494 
L 148.055709 224.470588 
L 148.645035 224.470588 
L 148.645035 223.406682 
L 149.013323 223.406682 
L 149.013323 222.342776 
L 149.42456 222.342776 
L 149.42456 221.278871 
L 150.11812 221.278871 
L 150.11812 220.214965 
L 152.267196 220.214965 
L 152.267196 219.151059 
L 160.722826 219.151059 
L 160.722826 218.087153 
L 161.308567 218.087153 
L 161.308567 217.023247 
L 163.184786 217.023247 
L 163.18822 214.895435 
L 163.477818 214.895435 
L 163.477818 213.831529 
L 164.564886 213.831529 
L 164.63178 211.703718 
L 164.990826 211.703718 
L 165.071763 209.575906 
L 165.198691 209.575906 
L 165.198691 208.512 
L 166.15511 208.512 
L 166.181484 206.384188 
L 166.365069 206.384188 
L 166.365069 205.320282 
L 167.014889 205.320282 
L 167.070834 203.192471 
L 167.265343 203.192471 
L 167.265343 202.128565 
L 167.558829 202.128565 
L 167.599608 200.000753 
L 168.23246 200.000753 
L 168.23246 198.936847 
L 168.347644 198.936847 
L 168.454343 196.809035 
L 168.801454 196.809035 
L 168.801454 195.745129 
L 169.25701 195.745129 
L 169.25701 194.681224 
L 169.494227 194.681224 
L 169.494227 193.617318 
L 169.694508 193.617318 
L 169.796271 191.489506 
L 170.05783 191.489506 
L 170.05783 190.4256 
L 170.39087 190.4256 
L 170.39087 189.361694 
L 170.523847 189.361694 
L 170.523847 188.297788 
L 170.69279 188.297788 
L 170.69279 187.233882 
L 171.150271 187.233882 
L 171.190702 185.106071 
L 171.389343 185.106071 
L 171.389343 184.042165 
L 171.568323 184.042165 
L 171.568323 182.978259 
L 171.795656 182.978259 
L 171.795656 181.914353 
L 172.182738 181.914353 
L 172.182738 180.850447 
L 172.434338 180.850447 
L 172.434338 179.786541 
L 172.555757 179.786541 
L 172.614094 176.594824 
L 173.12102 176.594824 
L 173.205875 174.467012 
L 173.280313 174.467012 
L 173.280313 173.403106 
L 173.596882 173.403106 
L 173.608724 171.275294 
L 173.840121 171.275294 
L 173.840121 170.211388 
L 174.035946 170.211388 
L 174.080256 168.083576 
L 174.37807 168.083576 
L 174.37807 167.019671 
L 174.508307 167.019671 
L 174.508307 165.955765 
L 174.622697 165.955765 
L 174.725243 163.827953 
L 174.77538 163.827953 
L 174.77538 162.764047 
L 175.036886 162.764047 
L 175.036886 161.700141 
L 175.291198 161.700141 
L 175.298414 159.572329 
L 175.420661 159.572329 
L 175.436781 157.444518 
L 175.722847 157.444518 
L 175.722847 156.380612 
L 175.849382 156.380612 
L 175.933269 154.2528 
L 176.249698 154.2528 
L 176.33353 152.124988 
L 176.437372 152.124988 
L 176.437372 151.061082 
L 176.579436 151.061082 
L 176.579436 149.997176 
L 176.740492 149.997176 
L 176.743833 147.869365 
L 176.881951 147.869365 
L 176.881951 146.805459 
L 177.267599 146.805459 
L 177.283835 144.677647 
L 177.426115 144.677647 
L 177.482406 142.549835 
L 177.610441 142.549835 
L 177.642315 140.422024 
L 177.978455 140.422024 
L 177.990964 138.294212 
L 178.18534 138.294212 
L 178.18534 136.1664 
L 178.350146 136.1664 
L 178.373134 134.038588 
L 178.469381 134.038588 
L 178.469381 132.974682 
L 178.637769 132.974682 
L 178.637769 131.910776 
L 178.779198 131.910776 
L 178.779198 130.846871 
L 178.900221 130.846871 
L 179.001223 128.719059 
L 179.089894 128.719059 
L 179.089894 127.655153 
L 179.309761 127.655153 
L 179.399894 124.463435 
L 179.594669 124.463435 
L 179.594669 123.399529 
L 179.736234 123.399529 
L 179.821515 118.08 
L 180.020416 118.08 
L 180.020416 117.016094 
L 180.276853 117.016094 
L 180.34042 113.824376 
L 180.476502 113.824376 
L 180.488824 111.696565 
L 180.795637 111.696565 
L 180.842708 108.504847 
L 180.913763 108.504847 
L 181.020511 106.377035 
L 181.13327 106.377035 
L 181.13856 104.249224 
L 181.245358 104.249224 
L 181.245358 103.185318 
L 181.386819 103.185318 
L 181.405079 101.057506 
L 181.531109 101.057506 
L 181.586709 97.865788 
L 181.802375 97.865788 
L 181.821511 94.674071 
L 181.928316 94.674071 
L 182.005498 92.546259 
L 182.116288 92.546259 
L 182.16518 88.290635 
L 182.343372 88.290635 
L 182.443562 84.035012 
L 182.537085 84.035012 
L 182.63503 81.9072 
L 182.655778 81.9072 
L 182.704506 79.779388 
L 182.906594 79.779388 
L 182.949875 76.587671 
L 183.031357 76.587671 
L 183.122009 73.395953 
L 183.257174 73.395953 
L 183.290225 71.268141 
L 183.373772 71.268141 
L 183.390202 69.140329 
L 183.529283 69.140329 
L 183.549068 67.012518 
L 183.656938 67.012518 
L 183.737724 62.756894 
L 183.837648 62.756894 
L 183.927926 59.565176 
L 184.060838 59.565176 
L 184.146674 57.437365 
L 184.303775 57.437365 
L 184.406302 54.245647 
L 184.614094 54.245647 
L 184.614094 53.181741 
L 184.839175 53.181741 
L 184.925864 51.053929 
L 184.976609 51.053929 
L 184.976609 49.990024 
L 185.292022 49.990024 
L 185.301562 47.862212 
L 185.460907 47.862212 
L 185.460907 46.798306 
L 185.732152 46.798306 
L 185.802452 44.670494 
L 185.963767 44.670494 
L 186.003625 42.542682 
L 186.163231 42.542682 
L 186.163231 41.478776 
L 186.34156 41.478776 
L 186.343566 39.350965 
L 186.46848 39.350965 
L 186.46848 38.287059 
L 186.628158 38.287059 
L 186.628158 37.223153 
L 187.065474 37.223153 
L 187.065474 36.159247 
L 187.251738 36.159247 
L 187.251738 35.095341 
L 187.544659 35.095341 
L 187.544659 34.031435 
L 187.757909 34.031435 
L 187.757909 32.967529 
L 187.995418 32.967529 
L 187.995418 31.903624 
L 188.249004 31.903624 
L 188.249004 30.839718 
L 188.39971 30.839718 
L 188.39971 29.775812 
L 188.565262 29.775812 
L 188.565262 28.711906 
L 188.753202 28.711906 
L 188.753202 27.648 
L 360.8064 27.648 
L 360.8064 27.648 
" style="fill: none; stroke: #ff0000; stroke-width: 1.5; stroke-linecap: square"/>
   </g>
   <g id="line2d_47">
    <defs>
     <path id="m4a6fbcc5b3" d="M -6 6 
L 6 6 
L 6 -6 
L -6 -6 
z
" style="stroke: #ff0000; stroke-width: 1.5; stroke-linejoin: miter"/>
    </defs>
    <g>
     <use xlink:href="#m4a6fbcc5b3" x="180.476502" y="113.824376" style="fill-opacity: 0; stroke: #ff0000; stroke-width: 1.5; stroke-linejoin: miter"/>
     <use xlink:href="#m4a6fbcc5b3" x="188.753202" y="28.711906" style="fill-opacity: 0; stroke: #ff0000; stroke-width: 1.5; stroke-linejoin: miter"/>
     <use xlink:href="#m4a6fbcc5b3" x="188.753202" y="27.648" style="fill-opacity: 0; stroke: #ff0000; stroke-width: 1.5; stroke-linejoin: miter"/>
     <use xlink:href="#m4a6fbcc5b3" x="188.753202" y="27.648" style="fill-opacity: 0; stroke: #ff0000; stroke-width: 1.5; stroke-linejoin: miter"/>
     <use xlink:href="#m4a6fbcc5b3" x="360.8064" y="27.648" style="fill-opacity: 0; stroke: #ff0000; stroke-width: 1.5; stroke-linejoin: miter"/>
    </g>
   </g>
   <g id="line2d_48">
    <path style="fill: none; stroke: #ff0000; stroke-width: 1.5; stroke-linecap: square"/>
    <g/>
   </g>
   <g id="line2d_49">
    <path d="M 360.8064 27.648 
L 380.514816 293.51808 
" style="fill: none; stroke: #008000; stroke-width: 1.5; stroke-linecap: square"/>
    <g>
     <use xlink:href="#m9f17ddeb4b" x="360.8064" y="27.648" style="fill-opacity: 0; stroke: #008000; stroke-width: 1.5; stroke-linejoin: miter"/>
     <use xlink:href="#m9f17ddeb4b" x="380.514816" y="293.51808" style="fill-opacity: 0; stroke: #008000; stroke-width: 1.5; stroke-linejoin: miter"/>
    </g>
   </g>
   <g id="line2d_50">
    <path d="M 360.8064 27.648 
L 380.514816 228.40704 
" style="fill: none; stroke: #00bfbf; stroke-width: 1.5; stroke-linecap: square"/>
    <g>
     <use xlink:href="#meadf80e809" x="360.8064" y="27.648" style="fill-opacity: 0; stroke: #00bfbf; stroke-width: 1.5"/>
     <use xlink:href="#meadf80e809" x="380.514816" y="228.40704" style="fill-opacity: 0; stroke: #00bfbf; stroke-width: 1.5"/>
    </g>
   </g>
   <g id="line2d_51">
    <path d="M 360.8064 27.648 
L 380.514816 163.296 
" style="fill: none; stroke: #0000ff; stroke-width: 1.5; stroke-linecap: square"/>
    <g>
     <use xlink:href="#m86141b3e6b" x="360.8064" y="27.648" style="fill-opacity: 0; stroke: #0000ff; stroke-width: 1.5; stroke-linejoin: bevel"/>
     <use xlink:href="#m86141b3e6b" x="380.514816" y="163.296" style="fill-opacity: 0; stroke: #0000ff; stroke-width: 1.5; stroke-linejoin: bevel"/>
    </g>
   </g>
   <g id="line2d_52">
    <path d="M 360.8064 27.648 
L 380.514816 98.18496 
" style="fill: none; stroke: #ff0000; stroke-width: 1.5; stroke-linecap: square"/>
    <g>
     <use xlink:href="#m4a6fbcc5b3" x="360.8064" y="27.648" style="fill-opacity: 0; stroke: #ff0000; stroke-width: 1.5; stroke-linejoin: miter"/>
     <use xlink:href="#m4a6fbcc5b3" x="380.514816" y="98.18496" style="fill-opacity: 0; stroke: #ff0000; stroke-width: 1.5; stroke-linejoin: miter"/>
    </g>
   </g>
   <g id="line2d_53">
    <path d="M 360.8064 27.648 
L 380.514816 33.07392 
" style="fill: none; stroke: #000000; stroke-width: 1.5; stroke-linecap: square"/>
    <g>
     <use xlink:href="#m9f3cf72f63" x="360.8064" y="27.648" style="fill-opacity: 0; stroke: #000000; stroke-width: 1.5"/>
     <use xlink:href="#m9f3cf72f63" x="380.514816" y="33.07392" style="fill-opacity: 0; stroke: #000000; stroke-width: 1.5"/>
    </g>
   </g>
   <g id="line2d_54">
    <path d="M 360.8064 298.944 
L 360.8064 27.648 
" style="fill: none; stroke: #000000; stroke-width: 1.5; stroke-linecap: square"/>
   </g>
   <g id="patch_3">
    <path d="M 57.6 298.944 
L 360.8064 298.944 
" style="fill: none; stroke: #000000; stroke-width: 0.8; stroke-linejoin: miter; stroke-linecap: square"/>
   </g>
   <g id="patch_4">
    <path d="M 57.6 27.648 
L 360.8064 27.648 
" style="fill: none; stroke: #000000; stroke-width: 0.8; stroke-linejoin: miter; stroke-linecap: square"/>
   </g>
   <g id="text_13">
    <!-- 3-D -->
    <g transform="translate(386.578944 297.381205)scale(0.14 -0.14)">
     <defs>
      <path id="DejaVuSans-33" d="M 2597 2516 
Q 3050 2419 3304 2112 
Q 3559 1806 3559 1356 
Q 3559 666 3084 287 
Q 2609 -91 1734 -91 
Q 1441 -91 1130 -33 
Q 819 25 488 141 
L 488 750 
Q 750 597 1062 519 
Q 1375 441 1716 441 
Q 2309 441 2620 675 
Q 2931 909 2931 1356 
Q 2931 1769 2642 2001 
Q 2353 2234 1838 2234 
L 1294 2234 
L 1294 2753 
L 1863 2753 
Q 2328 2753 2575 2939 
Q 2822 3125 2822 3475 
Q 2822 3834 2567 4026 
Q 2313 4219 1838 4219 
Q 1578 4219 1281 4162 
Q 984 4106 628 3988 
L 628 4550 
Q 988 4650 1302 4700 
Q 1616 4750 1894 4750 
Q 2613 4750 3031 4423 
Q 3450 4097 3450 3541 
Q 3450 3153 3228 2886 
Q 3006 2619 2597 2516 
z
" transform="scale(0.015625)"/>
      <path id="DejaVuSans-44" d="M 1259 4147 
L 1259 519 
L 2022 519 
Q 2988 519 3436 956 
Q 3884 1394 3884 2338 
Q 3884 3275 3436 3711 
Q 2988 4147 2022 4147 
L 1259 4147 
z
M 628 4666 
L 1925 4666 
Q 3281 4666 3915 4102 
Q 4550 3538 4550 2338 
Q 4550 1131 3912 565 
Q 3275 0 1925 0 
L 628 0 
L 628 4666 
z
" transform="scale(0.015625)"/>
     </defs>
     <use xlink:href="#DejaVuSans-33"/>
     <use xlink:href="#DejaVuSans-2d" x="63.623047"/>
     <use xlink:href="#DejaVuSans-44" x="99.707031"/>
    </g>
   </g>
   <g id="text_14">
    <!-- 2-D -->
    <g transform="translate(386.578944 232.270165)scale(0.14 -0.14)">
     <use xlink:href="#DejaVuSans-32"/>
     <use xlink:href="#DejaVuSans-2d" x="63.623047"/>
     <use xlink:href="#DejaVuSans-44" x="99.707031"/>
    </g>
   </g>
   <g id="text_15">
    <!-- 5-D -->
    <g transform="translate(386.578944 167.159125)scale(0.14 -0.14)">
     <defs>
      <path id="DejaVuSans-35" d="M 691 4666 
L 3169 4666 
L 3169 4134 
L 1269 4134 
L 1269 2991 
Q 1406 3038 1543 3061 
Q 1681 3084 1819 3084 
Q 2600 3084 3056 2656 
Q 3513 2228 3513 1497 
Q 3513 744 3044 326 
Q 2575 -91 1722 -91 
Q 1428 -91 1123 -41 
Q 819 9 494 109 
L 494 744 
Q 775 591 1075 516 
Q 1375 441 1709 441 
Q 2250 441 2565 725 
Q 2881 1009 2881 1497 
Q 2881 1984 2565 2268 
Q 2250 2553 1709 2553 
Q 1456 2553 1204 2497 
Q 953 2441 691 2322 
L 691 4666 
z
" transform="scale(0.015625)"/>
     </defs>
     <use xlink:href="#DejaVuSans-35"/>
     <use xlink:href="#DejaVuSans-2d" x="63.623047"/>
     <use xlink:href="#DejaVuSans-44" x="99.707031"/>
    </g>
   </g>
   <g id="text_16">
    <!-- 20-D -->
    <g transform="translate(386.578944 102.048085)scale(0.14 -0.14)">
     <use xlink:href="#DejaVuSans-32"/>
     <use xlink:href="#DejaVuSans-30" x="63.623047"/>
     <use xlink:href="#DejaVuSans-2d" x="127.246094"/>
     <use xlink:href="#DejaVuSans-44" x="163.330078"/>
    </g>
   </g>
   <g id="text_17">
    <!-- 10-D -->
    <g transform="translate(386.578944 36.937045)scale(0.14 -0.14)">
     <use xlink:href="#DejaVuSans-31"/>
     <use xlink:href="#DejaVuSans-30" x="63.623047"/>
     <use xlink:href="#DejaVuSans-2d" x="127.246094"/>
     <use xlink:href="#DejaVuSans-44" x="163.330078"/>
    </g>
   </g>
   <g id="text_18">
    <!-- bbob f12 -->
    <g transform="translate(60.632064 38.111366)scale(0.102 -0.102)">
     <defs>
      <path id="DejaVuSans-62" d="M 3116 1747 
Q 3116 2381 2855 2742 
Q 2594 3103 2138 3103 
Q 1681 3103 1420 2742 
Q 1159 2381 1159 1747 
Q 1159 1113 1420 752 
Q 1681 391 2138 391 
Q 2594 391 2855 752 
Q 3116 1113 3116 1747 
z
M 1159 2969 
Q 1341 3281 1617 3432 
Q 1894 3584 2278 3584 
Q 2916 3584 3314 3078 
Q 3713 2572 3713 1747 
Q 3713 922 3314 415 
Q 2916 -91 2278 -91 
Q 1894 -91 1617 61 
Q 1341 213 1159 525 
L 1159 0 
L 581 0 
L 581 4863 
L 1159 4863 
L 1159 2969 
z
" transform="scale(0.015625)"/>
     </defs>
     <use xlink:href="#DejaVuSans-62"/>
     <use xlink:href="#DejaVuSans-62" x="63.476562"/>
     <use xlink:href="#DejaVuSans-6f" x="126.953125"/>
     <use xlink:href="#DejaVuSans-62" x="188.134766"/>
     <use xlink:href="#DejaVuSans-20" x="251.611328"/>
     <use xlink:href="#DejaVuSans-66" x="283.398438"/>
     <use xlink:href="#DejaVuSans-31" x="318.603516"/>
     <use xlink:href="#DejaVuSans-32" x="382.226562"/>
    </g>
    <!-- 51 targets: 100..1e-08 -->
    <g transform="translate(60.632064 49.533135)scale(0.102 -0.102)">
     <defs>
      <path id="DejaVuSans-3a" d="M 750 794 
L 1409 794 
L 1409 0 
L 750 0 
L 750 794 
z
M 750 3309 
L 1409 3309 
L 1409 2516 
L 750 2516 
L 750 3309 
z
" transform="scale(0.015625)"/>
     </defs>
     <use xlink:href="#DejaVuSans-35"/>
     <use xlink:href="#DejaVuSans-31" x="63.623047"/>
     <use xlink:href="#DejaVuSans-20" x="127.246094"/>
     <use xlink:href="#DejaVuSans-74" x="159.033203"/>
     <use xlink:href="#DejaVuSans-61" x="198.242188"/>
     <use xlink:href="#DejaVuSans-72" x="259.521484"/>
     <use xlink:href="#DejaVuSans-67" x="298.884766"/>
     <use xlink:href="#DejaVuSans-65" x="362.361328"/>
     <use xlink:href="#DejaVuSans-74" x="423.884766"/>
     <use xlink:href="#DejaVuSans-73" x="463.09375"/>
     <use xlink:href="#DejaVuSans-3a" x="515.193359"/>
     <use xlink:href="#DejaVuSans-20" x="548.884766"/>
     <use xlink:href="#DejaVuSans-31" x="580.671875"/>
     <use xlink:href="#DejaVuSans-30" x="644.294922"/>
     <use xlink:href="#DejaVuSans-30" x="707.917969"/>
     <use xlink:href="#DejaVuSans-2e" x="771.541016"/>
     <use xlink:href="#DejaVuSans-2e" x="803.328125"/>
     <use xlink:href="#DejaVuSans-31" x="835.115234"/>
     <use xlink:href="#DejaVuSans-65" x="898.738281"/>
     <use xlink:href="#DejaVuSans-2d" x="960.261719"/>
     <use xlink:href="#DejaVuSans-30" x="996.345703"/>
     <use xlink:href="#DejaVuSans-38" x="1059.96875"/>
    </g>
    <!-- 5 instances -->
    <g transform="translate(60.632064 60.954904)scale(0.102 -0.102)">
     <use xlink:href="#DejaVuSans-35"/>
     <use xlink:href="#DejaVuSans-20" x="63.623047"/>
     <use xlink:href="#DejaVuSans-69" x="95.410156"/>
     <use xlink:href="#DejaVuSans-6e" x="123.193359"/>
     <use xlink:href="#DejaVuSans-73" x="186.572266"/>
     <use xlink:href="#DejaVuSans-74" x="238.671875"/>
     <use xlink:href="#DejaVuSans-61" x="277.880859"/>
     <use xlink:href="#DejaVuSans-6e" x="339.160156"/>
     <use xlink:href="#DejaVuSans-63" x="402.539062"/>
     <use xlink:href="#DejaVuSans-65" x="457.519531"/>
     <use xlink:href="#DejaVuSans-73" x="519.042969"/>
    </g>
   </g>
   <g id="text_19">
    <!-- v2.6 -->
    <g style="fill: #808080" transform="translate(198.292262 294.151352)scale(0.1 -0.1)">
     <use xlink:href="#DejaVuSans-76"/>
     <use xlink:href="#DejaVuSans-32" x="59.179688"/>
     <use xlink:href="#DejaVuSans-2e" x="122.802734"/>
     <use xlink:href="#DejaVuSans-36" x="154.589844"/>
    </g>
   </g>
   <g id="text_20">
    <!-- 12 Bent cigar -->
    <g transform="translate(141.986012 21.648)scale(0.2 -0.2)">
     <defs>
      <path id="DejaVuSans-42" d="M 1259 2228 
L 1259 519 
L 2272 519 
Q 2781 519 3026 730 
Q 3272 941 3272 1375 
Q 3272 1813 3026 2020 
Q 2781 2228 2272 2228 
L 1259 2228 
z
M 1259 4147 
L 1259 2741 
L 2194 2741 
Q 2656 2741 2882 2914 
Q 3109 3088 3109 3444 
Q 3109 3797 2882 3972 
Q 2656 4147 2194 4147 
L 1259 4147 
z
M 628 4666 
L 2241 4666 
Q 2963 4666 3353 4366 
Q 3744 4066 3744 3513 
Q 3744 3084 3544 2831 
Q 3344 2578 2956 2516 
Q 3422 2416 3680 2098 
Q 3938 1781 3938 1306 
Q 3938 681 3513 340 
Q 3088 0 2303 0 
L 628 0 
L 628 4666 
z
" transform="scale(0.015625)"/>
     </defs>
     <use xlink:href="#DejaVuSans-31"/>
     <use xlink:href="#DejaVuSans-32" x="63.623047"/>
     <use xlink:href="#DejaVuSans-20" x="127.246094"/>
     <use xlink:href="#DejaVuSans-42" x="159.033203"/>
     <use xlink:href="#DejaVuSans-65" x="227.636719"/>
     <use xlink:href="#DejaVuSans-6e" x="289.160156"/>
     <use xlink:href="#DejaVuSans-74" x="352.539062"/>
     <use xlink:href="#DejaVuSans-20" x="391.748047"/>
     <use xlink:href="#DejaVuSans-63" x="423.535156"/>
     <use xlink:href="#DejaVuSans-69" x="478.515625"/>
     <use xlink:href="#DejaVuSans-67" x="506.298828"/>
     <use xlink:href="#DejaVuSans-61" x="569.775391"/>
     <use xlink:href="#DejaVuSans-72" x="631.054688"/>
    </g>
   </g>
  </g>
 </g>
 <defs>
  <clipPath id="p692889ad6f">
   <rect x="57.6" y="27.648" width="303.2064" height="271.296"/>
  </clipPath>
 </defs>
</svg>
