<?xml version="1.0" encoding="utf-8" standalone="no"?>
<!DOCTYPE svg PUBLIC "-//W3C//DTD SVG 1.1//EN"
  "http://www.w3.org/Graphics/SVG/1.1/DTD/svg11.dtd">
<svg xmlns:xlink="http://www.w3.org/1999/xlink" width="460.8pt" height="345.6pt" viewBox="0 0 460.8 345.6" xmlns="http://www.w3.org/2000/svg" version="1.1">
 <metadata>
  <rdf:RDF xmlns:dc="http://purl.org/dc/elements/1.1/" xmlns:cc="http://creativecommons.org/ns#" xmlns:rdf="http://www.w3.org/1999/02/22-rdf-syntax-ns#">
   <cc:Work>
    <dc:type rdf:resource="http://purl.org/dc/dcmitype/StillImage"/>
    <dc:date>2022-03-16T23:09:43.851951</dc:date>
    <dc:format>image/svg+xml</dc:format>
    <dc:creator>
     <cc:Agent>
      <dc:title>Matplotlib v3.5.1, https://matplotlib.org/</dc:title>
     </cc:Agent>
    </dc:creator>
   </cc:Work>
  </rdf:RDF>
 </metadata>
 <defs>
  <style type="text/css">*{stroke-linejoin: round; stroke-linecap: butt}</style>
 </defs>
 <g id="figure_1">
  <g id="patch_1">
   <path d="M 0 345.6 
L 460.8 345.6 
L 460.8 0 
L 0 0 
z
" style="fill: #ffffff"/>
  </g>
  <g id="axes_1">
   <g id="patch_2">
    <path d="M 57.6 298.944 
L 360.8064 298.944 
L 360.8064 6.912 
L 57.6 6.912 
z
" style="fill: #ffffff"/>
   </g>
   <g id="matplotlib.axis_1">
    <g id="xtick_1">
     <g id="line2d_1">
      <path d="M 57.6 298.944 
L 57.6 6.912 
" clip-path="url(#pd83113bd98)" style="fill: none; stroke: #b0b0b0; stroke-width: 0.8; stroke-linecap: square"/>
     </g>
     <g id="line2d_2">
      <defs>
       <path id="mea112551d6" d="M 0 0 
L 0 3.5 
" style="stroke: #000000; stroke-width: 0.8"/>
      </defs>
      <g>
       <use xlink:href="#mea112551d6" x="57.6" y="298.944" style="stroke: #000000; stroke-width: 0.8"/>
      </g>
     </g>
     <g id="text_1">
      <!-- 0 -->
      <g transform="translate(52.191875 318.861344)scale(0.17 -0.17)">
       <defs>
        <path id="DejaVuSans-30" d="M 2034 4250 
Q 1547 4250 1301 3770 
Q 1056 3291 1056 2328 
Q 1056 1369 1301 889 
Q 1547 409 2034 409 
Q 2525 409 2770 889 
Q 3016 1369 3016 2328 
Q 3016 3291 2770 3770 
Q 2525 4250 2034 4250 
z
M 2034 4750 
Q 2819 4750 3233 4129 
Q 3647 3509 3647 2328 
Q 3647 1150 3233 529 
Q 2819 -91 2034 -91 
Q 1250 -91 836 529 
Q 422 1150 422 2328 
Q 422 3509 836 4129 
Q 1250 4750 2034 4750 
z
" transform="scale(0.015625)"/>
       </defs>
       <use xlink:href="#DejaVuSans-30"/>
      </g>
     </g>
    </g>
    <g id="xtick_2">
     <g id="line2d_3">
      <path d="M 144.2304 298.944 
L 144.2304 6.912 
" clip-path="url(#pd83113bd98)" style="fill: none; stroke: #b0b0b0; stroke-width: 0.8; stroke-linecap: square"/>
     </g>
     <g id="line2d_4">
      <g>
       <use xlink:href="#mea112551d6" x="144.2304" y="298.944" style="stroke: #000000; stroke-width: 0.8"/>
      </g>
     </g>
     <g id="text_2">
      <!-- 2 -->
      <g transform="translate(138.822275 318.861344)scale(0.17 -0.17)">
       <defs>
        <path id="DejaVuSans-32" d="M 1228 531 
L 3431 531 
L 3431 0 
L 469 0 
L 469 531 
Q 828 903 1448 1529 
Q 2069 2156 2228 2338 
Q 2531 2678 2651 2914 
Q 2772 3150 2772 3378 
Q 2772 3750 2511 3984 
Q 2250 4219 1831 4219 
Q 1534 4219 1204 4116 
Q 875 4013 500 3803 
L 500 4441 
Q 881 4594 1212 4672 
Q 1544 4750 1819 4750 
Q 2544 4750 2975 4387 
Q 3406 4025 3406 3419 
Q 3406 3131 3298 2873 
Q 3191 2616 2906 2266 
Q 2828 2175 2409 1742 
Q 1991 1309 1228 531 
z
" transform="scale(0.015625)"/>
       </defs>
       <use xlink:href="#DejaVuSans-32"/>
      </g>
     </g>
    </g>
    <g id="xtick_3">
     <g id="line2d_5">
      <path d="M 230.8608 298.944 
L 230.8608 6.912 
" clip-path="url(#pd83113bd98)" style="fill: none; stroke: #b0b0b0; stroke-width: 0.8; stroke-linecap: square"/>
     </g>
     <g id="line2d_6">
      <g>
       <use xlink:href="#mea112551d6" x="230.8608" y="298.944" style="stroke: #000000; stroke-width: 0.8"/>
      </g>
     </g>
     <g id="text_3">
      <!-- 4 -->
      <g transform="translate(225.452675 318.861344)scale(0.17 -0.17)">
       <defs>
        <path id="DejaVuSans-34" d="M 2419 4116 
L 825 1625 
L 2419 1625 
L 2419 4116 
z
M 2253 4666 
L 3047 4666 
L 3047 1625 
L 3713 1625 
L 3713 1100 
L 3047 1100 
L 3047 0 
L 2419 0 
L 2419 1100 
L 313 1100 
L 313 1709 
L 2253 4666 
z
" transform="scale(0.015625)"/>
       </defs>
       <use xlink:href="#DejaVuSans-34"/>
      </g>
     </g>
    </g>
    <g id="xtick_4">
     <g id="line2d_7">
      <path d="M 317.4912 298.944 
L 317.4912 6.912 
" clip-path="url(#pd83113bd98)" style="fill: none; stroke: #b0b0b0; stroke-width: 0.8; stroke-linecap: square"/>
     </g>
     <g id="line2d_8">
      <g>
       <use xlink:href="#mea112551d6" x="317.4912" y="298.944" style="stroke: #000000; stroke-width: 0.8"/>
      </g>
     </g>
     <g id="text_4">
      <!-- 6 -->
      <g transform="translate(312.083075 318.861344)scale(0.17 -0.17)">
       <defs>
        <path id="DejaVuSans-36" d="M 2113 2584 
Q 1688 2584 1439 2293 
Q 1191 2003 1191 1497 
Q 1191 994 1439 701 
Q 1688 409 2113 409 
Q 2538 409 2786 701 
Q 3034 994 3034 1497 
Q 3034 2003 2786 2293 
Q 2538 2584 2113 2584 
z
M 3366 4563 
L 3366 3988 
Q 3128 4100 2886 4159 
Q 2644 4219 2406 4219 
Q 1781 4219 1451 3797 
Q 1122 3375 1075 2522 
Q 1259 2794 1537 2939 
Q 1816 3084 2150 3084 
Q 2853 3084 3261 2657 
Q 3669 2231 3669 1497 
Q 3669 778 3244 343 
Q 2819 -91 2113 -91 
Q 1303 -91 875 529 
Q 447 1150 447 2328 
Q 447 3434 972 4092 
Q 1497 4750 2381 4750 
Q 2619 4750 2861 4703 
Q 3103 4656 3366 4563 
z
" transform="scale(0.015625)"/>
       </defs>
       <use xlink:href="#DejaVuSans-36"/>
      </g>
     </g>
    </g>
    <g id="xtick_5">
     <g id="line2d_9">
      <path d="M 100.9152 298.944 
L 100.9152 6.912 
" clip-path="url(#pd83113bd98)" style="fill: none; stroke: #b0b0b0; stroke-width: 0.8; stroke-linecap: square"/>
     </g>
     <g id="line2d_10">
      <defs>
       <path id="mb03f04674f" d="M 0 0 
L 0 2 
" style="stroke: #000000; stroke-width: 0.6"/>
      </defs>
      <g>
       <use xlink:href="#mb03f04674f" x="100.9152" y="298.944" style="stroke: #000000; stroke-width: 0.6"/>
      </g>
     </g>
    </g>
    <g id="xtick_6">
     <g id="line2d_11">
      <path d="M 187.5456 298.944 
L 187.5456 6.912 
" clip-path="url(#pd83113bd98)" style="fill: none; stroke: #b0b0b0; stroke-width: 0.8; stroke-linecap: square"/>
     </g>
     <g id="line2d_12">
      <g>
       <use xlink:href="#mb03f04674f" x="187.5456" y="298.944" style="stroke: #000000; stroke-width: 0.6"/>
      </g>
     </g>
    </g>
    <g id="xtick_7">
     <g id="line2d_13">
      <path d="M 274.176 298.944 
L 274.176 6.912 
" clip-path="url(#pd83113bd98)" style="fill: none; stroke: #b0b0b0; stroke-width: 0.8; stroke-linecap: square"/>
     </g>
     <g id="line2d_14">
      <g>
       <use xlink:href="#mb03f04674f" x="274.176" y="298.944" style="stroke: #000000; stroke-width: 0.6"/>
      </g>
     </g>
    </g>
    <g id="xtick_8">
     <g id="line2d_15">
      <path d="M 360.8064 298.944 
L 360.8064 6.912 
" clip-path="url(#pd83113bd98)" style="fill: none; stroke: #b0b0b0; stroke-width: 0.8; stroke-linecap: square"/>
     </g>
     <g id="line2d_16">
      <g>
       <use xlink:href="#mb03f04674f" x="360.8064" y="298.944" style="stroke: #000000; stroke-width: 0.6"/>
      </g>
     </g>
    </g>
    <g id="text_5">
     <!-- log10(# f-evals / dimension) -->
     <g transform="translate(88.823278 339.314156)scale(0.17 -0.17)">
      <defs>
       <path id="DejaVuSans-6c" d="M 603 4863 
L 1178 4863 
L 1178 0 
L 603 0 
L 603 4863 
z
" transform="scale(0.015625)"/>
       <path id="DejaVuSans-6f" d="M 1959 3097 
Q 1497 3097 1228 2736 
Q 959 2375 959 1747 
Q 959 1119 1226 758 
Q 1494 397 1959 397 
Q 2419 397 2687 759 
Q 2956 1122 2956 1747 
Q 2956 2369 2687 2733 
Q 2419 3097 1959 3097 
z
M 1959 3584 
Q 2709 3584 3137 3096 
Q 3566 2609 3566 1747 
Q 3566 888 3137 398 
Q 2709 -91 1959 -91 
Q 1206 -91 779 398 
Q 353 888 353 1747 
Q 353 2609 779 3096 
Q 1206 3584 1959 3584 
z
" transform="scale(0.015625)"/>
       <path id="DejaVuSans-67" d="M 2906 1791 
Q 2906 2416 2648 2759 
Q 2391 3103 1925 3103 
Q 1463 3103 1205 2759 
Q 947 2416 947 1791 
Q 947 1169 1205 825 
Q 1463 481 1925 481 
Q 2391 481 2648 825 
Q 2906 1169 2906 1791 
z
M 3481 434 
Q 3481 -459 3084 -895 
Q 2688 -1331 1869 -1331 
Q 1566 -1331 1297 -1286 
Q 1028 -1241 775 -1147 
L 775 -588 
Q 1028 -725 1275 -790 
Q 1522 -856 1778 -856 
Q 2344 -856 2625 -561 
Q 2906 -266 2906 331 
L 2906 616 
Q 2728 306 2450 153 
Q 2172 0 1784 0 
Q 1141 0 747 490 
Q 353 981 353 1791 
Q 353 2603 747 3093 
Q 1141 3584 1784 3584 
Q 2172 3584 2450 3431 
Q 2728 3278 2906 2969 
L 2906 3500 
L 3481 3500 
L 3481 434 
z
" transform="scale(0.015625)"/>
       <path id="DejaVuSans-31" d="M 794 531 
L 1825 531 
L 1825 4091 
L 703 3866 
L 703 4441 
L 1819 4666 
L 2450 4666 
L 2450 531 
L 3481 531 
L 3481 0 
L 794 0 
L 794 531 
z
" transform="scale(0.015625)"/>
       <path id="DejaVuSans-28" d="M 1984 4856 
Q 1566 4138 1362 3434 
Q 1159 2731 1159 2009 
Q 1159 1288 1364 580 
Q 1569 -128 1984 -844 
L 1484 -844 
Q 1016 -109 783 600 
Q 550 1309 550 2009 
Q 550 2706 781 3412 
Q 1013 4119 1484 4856 
L 1984 4856 
z
" transform="scale(0.015625)"/>
       <path id="DejaVuSans-23" d="M 3272 2816 
L 2363 2816 
L 2100 1772 
L 3016 1772 
L 3272 2816 
z
M 2803 4594 
L 2478 3297 
L 3391 3297 
L 3719 4594 
L 4219 4594 
L 3897 3297 
L 4872 3297 
L 4872 2816 
L 3775 2816 
L 3519 1772 
L 4513 1772 
L 4513 1294 
L 3397 1294 
L 3072 0 
L 2572 0 
L 2894 1294 
L 1978 1294 
L 1656 0 
L 1153 0 
L 1478 1294 
L 494 1294 
L 494 1772 
L 1594 1772 
L 1856 2816 
L 850 2816 
L 850 3297 
L 1978 3297 
L 2297 4594 
L 2803 4594 
z
" transform="scale(0.015625)"/>
       <path id="DejaVuSans-20" transform="scale(0.015625)"/>
       <path id="DejaVuSans-66" d="M 2375 4863 
L 2375 4384 
L 1825 4384 
Q 1516 4384 1395 4259 
Q 1275 4134 1275 3809 
L 1275 3500 
L 2222 3500 
L 2222 3053 
L 1275 3053 
L 1275 0 
L 697 0 
L 697 3053 
L 147 3053 
L 147 3500 
L 697 3500 
L 697 3744 
Q 697 4328 969 4595 
Q 1241 4863 1831 4863 
L 2375 4863 
z
" transform="scale(0.015625)"/>
       <path id="DejaVuSans-2d" d="M 313 2009 
L 1997 2009 
L 1997 1497 
L 313 1497 
L 313 2009 
z
" transform="scale(0.015625)"/>
       <path id="DejaVuSans-65" d="M 3597 1894 
L 3597 1613 
L 953 1613 
Q 991 1019 1311 708 
Q 1631 397 2203 397 
Q 2534 397 2845 478 
Q 3156 559 3463 722 
L 3463 178 
Q 3153 47 2828 -22 
Q 2503 -91 2169 -91 
Q 1331 -91 842 396 
Q 353 884 353 1716 
Q 353 2575 817 3079 
Q 1281 3584 2069 3584 
Q 2775 3584 3186 3129 
Q 3597 2675 3597 1894 
z
M 3022 2063 
Q 3016 2534 2758 2815 
Q 2500 3097 2075 3097 
Q 1594 3097 1305 2825 
Q 1016 2553 972 2059 
L 3022 2063 
z
" transform="scale(0.015625)"/>
       <path id="DejaVuSans-76" d="M 191 3500 
L 800 3500 
L 1894 563 
L 2988 3500 
L 3597 3500 
L 2284 0 
L 1503 0 
L 191 3500 
z
" transform="scale(0.015625)"/>
       <path id="DejaVuSans-61" d="M 2194 1759 
Q 1497 1759 1228 1600 
Q 959 1441 959 1056 
Q 959 750 1161 570 
Q 1363 391 1709 391 
Q 2188 391 2477 730 
Q 2766 1069 2766 1631 
L 2766 1759 
L 2194 1759 
z
M 3341 1997 
L 3341 0 
L 2766 0 
L 2766 531 
Q 2569 213 2275 61 
Q 1981 -91 1556 -91 
Q 1019 -91 701 211 
Q 384 513 384 1019 
Q 384 1609 779 1909 
Q 1175 2209 1959 2209 
L 2766 2209 
L 2766 2266 
Q 2766 2663 2505 2880 
Q 2244 3097 1772 3097 
Q 1472 3097 1187 3025 
Q 903 2953 641 2809 
L 641 3341 
Q 956 3463 1253 3523 
Q 1550 3584 1831 3584 
Q 2591 3584 2966 3190 
Q 3341 2797 3341 1997 
z
" transform="scale(0.015625)"/>
       <path id="DejaVuSans-73" d="M 2834 3397 
L 2834 2853 
Q 2591 2978 2328 3040 
Q 2066 3103 1784 3103 
Q 1356 3103 1142 2972 
Q 928 2841 928 2578 
Q 928 2378 1081 2264 
Q 1234 2150 1697 2047 
L 1894 2003 
Q 2506 1872 2764 1633 
Q 3022 1394 3022 966 
Q 3022 478 2636 193 
Q 2250 -91 1575 -91 
Q 1294 -91 989 -36 
Q 684 19 347 128 
L 347 722 
Q 666 556 975 473 
Q 1284 391 1588 391 
Q 1994 391 2212 530 
Q 2431 669 2431 922 
Q 2431 1156 2273 1281 
Q 2116 1406 1581 1522 
L 1381 1569 
Q 847 1681 609 1914 
Q 372 2147 372 2553 
Q 372 3047 722 3315 
Q 1072 3584 1716 3584 
Q 2034 3584 2315 3537 
Q 2597 3491 2834 3397 
z
" transform="scale(0.015625)"/>
       <path id="DejaVuSans-2f" d="M 1625 4666 
L 2156 4666 
L 531 -594 
L 0 -594 
L 1625 4666 
z
" transform="scale(0.015625)"/>
       <path id="DejaVuSans-64" d="M 2906 2969 
L 2906 4863 
L 3481 4863 
L 3481 0 
L 2906 0 
L 2906 525 
Q 2725 213 2448 61 
Q 2172 -91 1784 -91 
Q 1150 -91 751 415 
Q 353 922 353 1747 
Q 353 2572 751 3078 
Q 1150 3584 1784 3584 
Q 2172 3584 2448 3432 
Q 2725 3281 2906 2969 
z
M 947 1747 
Q 947 1113 1208 752 
Q 1469 391 1925 391 
Q 2381 391 2643 752 
Q 2906 1113 2906 1747 
Q 2906 2381 2643 2742 
Q 2381 3103 1925 3103 
Q 1469 3103 1208 2742 
Q 947 2381 947 1747 
z
" transform="scale(0.015625)"/>
       <path id="DejaVuSans-69" d="M 603 3500 
L 1178 3500 
L 1178 0 
L 603 0 
L 603 3500 
z
M 603 4863 
L 1178 4863 
L 1178 4134 
L 603 4134 
L 603 4863 
z
" transform="scale(0.015625)"/>
       <path id="DejaVuSans-6d" d="M 3328 2828 
Q 3544 3216 3844 3400 
Q 4144 3584 4550 3584 
Q 5097 3584 5394 3201 
Q 5691 2819 5691 2113 
L 5691 0 
L 5113 0 
L 5113 2094 
Q 5113 2597 4934 2840 
Q 4756 3084 4391 3084 
Q 3944 3084 3684 2787 
Q 3425 2491 3425 1978 
L 3425 0 
L 2847 0 
L 2847 2094 
Q 2847 2600 2669 2842 
Q 2491 3084 2119 3084 
Q 1678 3084 1418 2786 
Q 1159 2488 1159 1978 
L 1159 0 
L 581 0 
L 581 3500 
L 1159 3500 
L 1159 2956 
Q 1356 3278 1631 3431 
Q 1906 3584 2284 3584 
Q 2666 3584 2933 3390 
Q 3200 3197 3328 2828 
z
" transform="scale(0.015625)"/>
       <path id="DejaVuSans-6e" d="M 3513 2113 
L 3513 0 
L 2938 0 
L 2938 2094 
Q 2938 2591 2744 2837 
Q 2550 3084 2163 3084 
Q 1697 3084 1428 2787 
Q 1159 2491 1159 1978 
L 1159 0 
L 581 0 
L 581 3500 
L 1159 3500 
L 1159 2956 
Q 1366 3272 1645 3428 
Q 1925 3584 2291 3584 
Q 2894 3584 3203 3211 
Q 3513 2838 3513 2113 
z
" transform="scale(0.015625)"/>
       <path id="DejaVuSans-29" d="M 513 4856 
L 1013 4856 
Q 1481 4119 1714 3412 
Q 1947 2706 1947 2009 
Q 1947 1309 1714 600 
Q 1481 -109 1013 -844 
L 513 -844 
Q 928 -128 1133 580 
Q 1338 1288 1338 2009 
Q 1338 2731 1133 3434 
Q 928 4138 513 4856 
z
" transform="scale(0.015625)"/>
      </defs>
      <use xlink:href="#DejaVuSans-6c"/>
      <use xlink:href="#DejaVuSans-6f" x="27.783203"/>
      <use xlink:href="#DejaVuSans-67" x="88.964844"/>
      <use xlink:href="#DejaVuSans-31" x="152.441406"/>
      <use xlink:href="#DejaVuSans-30" x="216.064453"/>
      <use xlink:href="#DejaVuSans-28" x="279.6875"/>
      <use xlink:href="#DejaVuSans-23" x="318.701172"/>
      <use xlink:href="#DejaVuSans-20" x="402.490234"/>
      <use xlink:href="#DejaVuSans-66" x="434.277344"/>
      <use xlink:href="#DejaVuSans-2d" x="463.982422"/>
      <use xlink:href="#DejaVuSans-65" x="500.066406"/>
      <use xlink:href="#DejaVuSans-76" x="561.589844"/>
      <use xlink:href="#DejaVuSans-61" x="620.769531"/>
      <use xlink:href="#DejaVuSans-6c" x="682.048828"/>
      <use xlink:href="#DejaVuSans-73" x="709.832031"/>
      <use xlink:href="#DejaVuSans-20" x="761.931641"/>
      <use xlink:href="#DejaVuSans-2f" x="793.71875"/>
      <use xlink:href="#DejaVuSans-20" x="827.410156"/>
      <use xlink:href="#DejaVuSans-64" x="859.197266"/>
      <use xlink:href="#DejaVuSans-69" x="922.673828"/>
      <use xlink:href="#DejaVuSans-6d" x="950.457031"/>
      <use xlink:href="#DejaVuSans-65" x="1047.869141"/>
      <use xlink:href="#DejaVuSans-6e" x="1109.392578"/>
      <use xlink:href="#DejaVuSans-73" x="1172.771484"/>
      <use xlink:href="#DejaVuSans-69" x="1224.871094"/>
      <use xlink:href="#DejaVuSans-6f" x="1252.654297"/>
      <use xlink:href="#DejaVuSans-6e" x="1313.835938"/>
      <use xlink:href="#DejaVuSans-29" x="1377.214844"/>
     </g>
    </g>
   </g>
   <g id="matplotlib.axis_2">
    <g id="ytick_1">
     <g id="line2d_17">
      <path d="M 57.6 298.944 
L 360.8064 298.944 
" clip-path="url(#pd83113bd98)" style="fill: none; stroke: #b0b0b0; stroke-width: 0.8; stroke-linecap: square"/>
     </g>
     <g id="line2d_18">
      <defs>
       <path id="m566f72e43b" d="M 0 0 
L -3.5 0 
" style="stroke: #000000; stroke-width: 0.8"/>
      </defs>
      <g>
       <use xlink:href="#m566f72e43b" x="57.6" y="298.944" style="stroke: #000000; stroke-width: 0.8"/>
      </g>
     </g>
     <g id="text_6">
      <!-- 0.0 -->
      <g transform="translate(25.155 305.02275)scale(0.16 -0.16)">
       <defs>
        <path id="DejaVuSans-2e" d="M 684 794 
L 1344 794 
L 1344 0 
L 684 0 
L 684 794 
z
" transform="scale(0.015625)"/>
       </defs>
       <use xlink:href="#DejaVuSans-30"/>
       <use xlink:href="#DejaVuSans-2e" x="63.623047"/>
       <use xlink:href="#DejaVuSans-30" x="95.410156"/>
      </g>
     </g>
    </g>
    <g id="ytick_2">
     <g id="line2d_19">
      <path d="M 57.6 240.5376 
L 360.8064 240.5376 
" clip-path="url(#pd83113bd98)" style="fill: none; stroke: #b0b0b0; stroke-width: 0.8; stroke-linecap: square"/>
     </g>
     <g id="line2d_20">
      <g>
       <use xlink:href="#m566f72e43b" x="57.6" y="240.5376" style="stroke: #000000; stroke-width: 0.8"/>
      </g>
     </g>
     <g id="text_7">
      <!-- 0.2 -->
      <g transform="translate(25.155 246.61635)scale(0.16 -0.16)">
       <use xlink:href="#DejaVuSans-30"/>
       <use xlink:href="#DejaVuSans-2e" x="63.623047"/>
       <use xlink:href="#DejaVuSans-32" x="95.410156"/>
      </g>
     </g>
    </g>
    <g id="ytick_3">
     <g id="line2d_21">
      <path d="M 57.6 182.1312 
L 360.8064 182.1312 
" clip-path="url(#pd83113bd98)" style="fill: none; stroke: #b0b0b0; stroke-width: 0.8; stroke-linecap: square"/>
     </g>
     <g id="line2d_22">
      <g>
       <use xlink:href="#m566f72e43b" x="57.6" y="182.1312" style="stroke: #000000; stroke-width: 0.8"/>
      </g>
     </g>
     <g id="text_8">
      <!-- 0.4 -->
      <g transform="translate(25.155 188.20995)scale(0.16 -0.16)">
       <use xlink:href="#DejaVuSans-30"/>
       <use xlink:href="#DejaVuSans-2e" x="63.623047"/>
       <use xlink:href="#DejaVuSans-34" x="95.410156"/>
      </g>
     </g>
    </g>
    <g id="ytick_4">
     <g id="line2d_23">
      <path d="M 57.6 123.7248 
L 360.8064 123.7248 
" clip-path="url(#pd83113bd98)" style="fill: none; stroke: #b0b0b0; stroke-width: 0.8; stroke-linecap: square"/>
     </g>
     <g id="line2d_24">
      <g>
       <use xlink:href="#m566f72e43b" x="57.6" y="123.7248" style="stroke: #000000; stroke-width: 0.8"/>
      </g>
     </g>
     <g id="text_9">
      <!-- 0.6 -->
      <g transform="translate(25.155 129.80355)scale(0.16 -0.16)">
       <use xlink:href="#DejaVuSans-30"/>
       <use xlink:href="#DejaVuSans-2e" x="63.623047"/>
       <use xlink:href="#DejaVuSans-36" x="95.410156"/>
      </g>
     </g>
    </g>
    <g id="ytick_5">
     <g id="line2d_25">
      <path d="M 57.6 65.3184 
L 360.8064 65.3184 
" clip-path="url(#pd83113bd98)" style="fill: none; stroke: #b0b0b0; stroke-width: 0.8; stroke-linecap: square"/>
     </g>
     <g id="line2d_26">
      <g>
       <use xlink:href="#m566f72e43b" x="57.6" y="65.3184" style="stroke: #000000; stroke-width: 0.8"/>
      </g>
     </g>
     <g id="text_10">
      <!-- 0.8 -->
      <g transform="translate(25.155 71.39715)scale(0.16 -0.16)">
       <defs>
        <path id="DejaVuSans-38" d="M 2034 2216 
Q 1584 2216 1326 1975 
Q 1069 1734 1069 1313 
Q 1069 891 1326 650 
Q 1584 409 2034 409 
Q 2484 409 2743 651 
Q 3003 894 3003 1313 
Q 3003 1734 2745 1975 
Q 2488 2216 2034 2216 
z
M 1403 2484 
Q 997 2584 770 2862 
Q 544 3141 544 3541 
Q 544 4100 942 4425 
Q 1341 4750 2034 4750 
Q 2731 4750 3128 4425 
Q 3525 4100 3525 3541 
Q 3525 3141 3298 2862 
Q 3072 2584 2669 2484 
Q 3125 2378 3379 2068 
Q 3634 1759 3634 1313 
Q 3634 634 3220 271 
Q 2806 -91 2034 -91 
Q 1263 -91 848 271 
Q 434 634 434 1313 
Q 434 1759 690 2068 
Q 947 2378 1403 2484 
z
M 1172 3481 
Q 1172 3119 1398 2916 
Q 1625 2713 2034 2713 
Q 2441 2713 2670 2916 
Q 2900 3119 2900 3481 
Q 2900 3844 2670 4047 
Q 2441 4250 2034 4250 
Q 1625 4250 1398 4047 
Q 1172 3844 1172 3481 
z
" transform="scale(0.015625)"/>
       </defs>
       <use xlink:href="#DejaVuSans-30"/>
       <use xlink:href="#DejaVuSans-2e" x="63.623047"/>
       <use xlink:href="#DejaVuSans-38" x="95.410156"/>
      </g>
     </g>
    </g>
    <g id="ytick_6">
     <g id="line2d_27">
      <path d="M 57.6 6.912 
L 360.8064 6.912 
" clip-path="url(#pd83113bd98)" style="fill: none; stroke: #b0b0b0; stroke-width: 0.8; stroke-linecap: square"/>
     </g>
     <g id="line2d_28">
      <g>
       <use xlink:href="#m566f72e43b" x="57.6" y="6.912" style="stroke: #000000; stroke-width: 0.8"/>
      </g>
     </g>
     <g id="text_11">
      <!-- 1.0 -->
      <g transform="translate(25.155 12.99075)scale(0.16 -0.16)">
       <use xlink:href="#DejaVuSans-31"/>
       <use xlink:href="#DejaVuSans-2e" x="63.623047"/>
       <use xlink:href="#DejaVuSans-30" x="95.410156"/>
      </g>
     </g>
    </g>
    <g id="text_12">
     <!-- Fraction of function,target pairs -->
     <g transform="translate(17.619531 287.313)rotate(-90)scale(0.17 -0.17)">
      <defs>
       <path id="DejaVuSans-46" d="M 628 4666 
L 3309 4666 
L 3309 4134 
L 1259 4134 
L 1259 2759 
L 3109 2759 
L 3109 2228 
L 1259 2228 
L 1259 0 
L 628 0 
L 628 4666 
z
" transform="scale(0.015625)"/>
       <path id="DejaVuSans-72" d="M 2631 2963 
Q 2534 3019 2420 3045 
Q 2306 3072 2169 3072 
Q 1681 3072 1420 2755 
Q 1159 2438 1159 1844 
L 1159 0 
L 581 0 
L 581 3500 
L 1159 3500 
L 1159 2956 
Q 1341 3275 1631 3429 
Q 1922 3584 2338 3584 
Q 2397 3584 2469 3576 
Q 2541 3569 2628 3553 
L 2631 2963 
z
" transform="scale(0.015625)"/>
       <path id="DejaVuSans-63" d="M 3122 3366 
L 3122 2828 
Q 2878 2963 2633 3030 
Q 2388 3097 2138 3097 
Q 1578 3097 1268 2742 
Q 959 2388 959 1747 
Q 959 1106 1268 751 
Q 1578 397 2138 397 
Q 2388 397 2633 464 
Q 2878 531 3122 666 
L 3122 134 
Q 2881 22 2623 -34 
Q 2366 -91 2075 -91 
Q 1284 -91 818 406 
Q 353 903 353 1747 
Q 353 2603 823 3093 
Q 1294 3584 2113 3584 
Q 2378 3584 2631 3529 
Q 2884 3475 3122 3366 
z
" transform="scale(0.015625)"/>
       <path id="DejaVuSans-74" d="M 1172 4494 
L 1172 3500 
L 2356 3500 
L 2356 3053 
L 1172 3053 
L 1172 1153 
Q 1172 725 1289 603 
Q 1406 481 1766 481 
L 2356 481 
L 2356 0 
L 1766 0 
Q 1100 0 847 248 
Q 594 497 594 1153 
L 594 3053 
L 172 3053 
L 172 3500 
L 594 3500 
L 594 4494 
L 1172 4494 
z
" transform="scale(0.015625)"/>
       <path id="DejaVuSans-75" d="M 544 1381 
L 544 3500 
L 1119 3500 
L 1119 1403 
Q 1119 906 1312 657 
Q 1506 409 1894 409 
Q 2359 409 2629 706 
Q 2900 1003 2900 1516 
L 2900 3500 
L 3475 3500 
L 3475 0 
L 2900 0 
L 2900 538 
Q 2691 219 2414 64 
Q 2138 -91 1772 -91 
Q 1169 -91 856 284 
Q 544 659 544 1381 
z
M 1991 3584 
L 1991 3584 
z
" transform="scale(0.015625)"/>
       <path id="DejaVuSans-2c" d="M 750 794 
L 1409 794 
L 1409 256 
L 897 -744 
L 494 -744 
L 750 256 
L 750 794 
z
" transform="scale(0.015625)"/>
       <path id="DejaVuSans-70" d="M 1159 525 
L 1159 -1331 
L 581 -1331 
L 581 3500 
L 1159 3500 
L 1159 2969 
Q 1341 3281 1617 3432 
Q 1894 3584 2278 3584 
Q 2916 3584 3314 3078 
Q 3713 2572 3713 1747 
Q 3713 922 3314 415 
Q 2916 -91 2278 -91 
Q 1894 -91 1617 61 
Q 1341 213 1159 525 
z
M 3116 1747 
Q 3116 2381 2855 2742 
Q 2594 3103 2138 3103 
Q 1681 3103 1420 2742 
Q 1159 2381 1159 1747 
Q 1159 1113 1420 752 
Q 1681 391 2138 391 
Q 2594 391 2855 752 
Q 3116 1113 3116 1747 
z
" transform="scale(0.015625)"/>
      </defs>
      <use xlink:href="#DejaVuSans-46"/>
      <use xlink:href="#DejaVuSans-72" x="50.269531"/>
      <use xlink:href="#DejaVuSans-61" x="91.382812"/>
      <use xlink:href="#DejaVuSans-63" x="152.662109"/>
      <use xlink:href="#DejaVuSans-74" x="207.642578"/>
      <use xlink:href="#DejaVuSans-69" x="246.851562"/>
      <use xlink:href="#DejaVuSans-6f" x="274.634766"/>
      <use xlink:href="#DejaVuSans-6e" x="335.816406"/>
      <use xlink:href="#DejaVuSans-20" x="399.195312"/>
      <use xlink:href="#DejaVuSans-6f" x="430.982422"/>
      <use xlink:href="#DejaVuSans-66" x="492.164062"/>
      <use xlink:href="#DejaVuSans-20" x="527.369141"/>
      <use xlink:href="#DejaVuSans-66" x="559.15625"/>
      <use xlink:href="#DejaVuSans-75" x="594.361328"/>
      <use xlink:href="#DejaVuSans-6e" x="657.740234"/>
      <use xlink:href="#DejaVuSans-63" x="721.119141"/>
      <use xlink:href="#DejaVuSans-74" x="776.099609"/>
      <use xlink:href="#DejaVuSans-69" x="815.308594"/>
      <use xlink:href="#DejaVuSans-6f" x="843.091797"/>
      <use xlink:href="#DejaVuSans-6e" x="904.273438"/>
      <use xlink:href="#DejaVuSans-2c" x="967.652344"/>
      <use xlink:href="#DejaVuSans-74" x="999.439453"/>
      <use xlink:href="#DejaVuSans-61" x="1038.648438"/>
      <use xlink:href="#DejaVuSans-72" x="1099.927734"/>
      <use xlink:href="#DejaVuSans-67" x="1139.291016"/>
      <use xlink:href="#DejaVuSans-65" x="1202.767578"/>
      <use xlink:href="#DejaVuSans-74" x="1264.291016"/>
      <use xlink:href="#DejaVuSans-20" x="1303.5"/>
      <use xlink:href="#DejaVuSans-70" x="1335.287109"/>
      <use xlink:href="#DejaVuSans-61" x="1398.763672"/>
      <use xlink:href="#DejaVuSans-69" x="1460.042969"/>
      <use xlink:href="#DejaVuSans-72" x="1487.826172"/>
      <use xlink:href="#DejaVuSans-73" x="1528.939453"/>
     </g>
    </g>
   </g>
   <g id="line2d_29">
    <defs>
     <path id="m9ffde142ac" d="M 0 1.5 
C 0.397805 1.5 0.77937 1.341951 1.06066 1.06066 
C 1.341951 0.77937 1.5 0.397805 1.5 0 
C 1.5 -0.397805 1.341951 -0.77937 1.06066 -1.06066 
C 0.77937 -1.341951 0.397805 -1.5 0 -1.5 
C -0.397805 -1.5 -0.77937 -1.341951 -1.06066 -1.06066 
C -1.341951 -0.77937 -1.5 -0.397805 -1.5 0 
C -1.5 0.397805 -1.341951 0.77937 -1.06066 1.06066 
C -0.77937 1.341951 -0.397805 1.5 0 1.5 
z
" style="stroke: #000080"/>
    </defs>
    <g>
     <use xlink:href="#m9ffde142ac" x="180.217237" y="6.912" style="fill: #000080; stroke: #000080"/>
     <use xlink:href="#m9ffde142ac" x="180.217237" y="6.912" style="fill: #000080; stroke: #000080"/>
    </g>
   </g>
   <g id="line2d_30">
    <path d="M 159.980326 298.944 
L 159.980326 297.798776 
L 160.793149 297.798776 
L 160.793149 296.653553 
L 162.041553 296.653553 
L 162.041553 295.508329 
L 162.838212 295.508329 
L 162.838212 294.363106 
L 163.518345 294.363106 
L 163.518345 293.217882 
L 164.768016 293.217882 
L 164.768016 292.072659 
L 165.133786 292.072659 
L 165.133786 290.927435 
L 165.907159 290.927435 
L 165.907159 289.782212 
L 166.149245 289.782212 
L 166.149245 288.636988 
L 166.529641 288.636988 
L 166.529641 287.491765 
L 166.91095 287.491765 
L 166.91095 286.346541 
L 167.140533 286.346541 
L 167.18778 284.056094 
L 167.309521 284.056094 
L 167.400311 281.765647 
L 167.507048 281.765647 
L 167.507048 280.620424 
L 167.643009 280.620424 
L 167.643009 279.4752 
L 168.108639 279.4752 
L 168.108639 278.329976 
L 168.277047 278.329976 
L 168.277047 277.184753 
L 168.89548 277.184753 
L 168.89548 276.039529 
L 169.129761 276.039529 
L 169.129761 274.894306 
L 169.518766 274.894306 
L 169.518766 273.749082 
L 169.868623 273.749082 
L 169.868623 272.603859 
L 170.012498 272.603859 
L 170.012498 271.458635 
L 170.205 271.458635 
L 170.238073 268.022965 
L 170.336945 268.022965 
L 170.336945 266.877741 
L 170.630481 266.877741 
L 170.725018 264.587294 
L 170.75719 264.587294 
L 170.867079 262.296847 
L 170.926335 262.296847 
L 170.926335 261.151624 
L 171.123269 261.151624 
L 171.123269 260.0064 
L 171.342661 260.0064 
L 171.398221 257.715953 
L 171.493403 257.715953 
L 171.539712 255.425506 
L 171.680147 255.425506 
L 171.680147 254.280282 
L 171.847729 254.280282 
L 171.891014 251.989835 
L 172.146519 251.989835 
L 172.146519 250.844612 
L 172.657728 250.844612 
L 172.657728 249.699388 
L 172.8867 249.699388 
L 172.962409 246.263718 
L 173.025607 246.263718 
L 173.025607 245.118494 
L 173.145303 245.118494 
L 173.2381 242.828047 
L 173.49592 242.828047 
L 173.521707 239.392376 
L 173.701232 239.392376 
L 173.793288 235.956706 
L 173.974123 235.956706 
L 174.041731 231.375812 
L 174.101411 231.375812 
L 174.101411 230.230588 
L 174.305959 230.230588 
L 174.395109 226.794918 
L 174.555272 226.794918 
L 174.641383 223.359247 
L 174.674972 223.359247 
L 174.674972 222.214024 
L 174.793915 222.214024 
L 174.86972 218.778353 
L 174.939706 218.778353 
L 174.939706 217.633129 
L 175.069777 217.633129 
L 175.11172 214.197459 
L 175.238801 214.197459 
L 175.338051 210.761788 
L 175.558135 210.761788 
L 175.653949 206.180894 
L 175.787978 206.180894 
L 175.826598 203.890447 
L 176.009838 203.890447 
L 176.049739 201.6 
L 176.129288 201.6 
L 176.235976 198.164329 
L 176.280537 198.164329 
L 176.372751 193.583435 
L 176.439069 193.583435 
L 176.439069 192.438212 
L 176.609739 192.438212 
L 176.715418 185.566871 
L 176.84544 185.566871 
L 176.906805 180.985976 
L 176.966319 180.985976 
L 177.063452 175.259859 
L 177.099543 175.259859 
L 177.187837 171.824188 
L 177.244844 171.824188 
L 177.332461 164.952847 
L 177.36804 164.952847 
L 177.447043 156.936282 
L 177.503271 156.936282 
L 177.575318 151.210165 
L 177.618415 151.210165 
L 177.726518 143.1936 
L 177.76927 143.1936 
L 177.870221 134.031812 
L 177.882802 134.031812 
L 177.978455 126.015247 
L 178.044034 126.015247 
L 178.154375 117.998682 
L 178.17296 117.998682 
L 178.270234 107.691671 
L 178.294858 107.691671 
L 178.391505 101.965553 
L 178.409858 101.965553 
L 178.51656 91.658541 
L 178.527197 91.658541 
L 178.619637 88.222871 
L 178.639279 88.222871 
L 178.720649 79.061082 
L 178.773202 79.061082 
L 178.879359 69.899294 
L 178.891283 69.899294 
L 178.97454 64.173176 
L 179.005667 64.173176 
L 179.094317 53.866165 
L 179.119359 53.866165 
L 179.216265 48.140047 
L 179.249919 48.140047 
L 179.353427 40.123482 
L 179.369413 40.123482 
L 179.467933 34.397365 
L 179.495369 34.397365 
L 179.587491 28.671247 
L 179.650564 28.671247 
L 179.760436 21.799906 
L 179.773236 21.799906 
L 179.864011 16.073788 
L 179.940262 16.073788 
L 180.030236 9.202447 
L 180.13234 9.202447 
L 180.217237 6.912 
L 360.8064 6.912 
L 360.8064 6.912 
" style="fill: none; stroke: #000080; stroke-width: 1.5; stroke-linecap: square"/>
   </g>
   <g id="line2d_31">
    <defs>
     <path id="m632c00e372" d="M 0 6 
C 1.591219 6 3.117479 5.367802 4.242641 4.242641 
C 5.367802 3.117479 6 1.591219 6 0 
C 6 -1.591219 5.367802 -3.117479 4.242641 -4.242641 
C 3.117479 -5.367802 1.591219 -6 0 -6 
C -1.591219 -6 -3.117479 -5.367802 -4.242641 -4.242641 
C -5.367802 -3.117479 -6 -1.591219 -6 0 
C -6 1.591219 -5.367802 3.117479 -4.242641 4.242641 
C -3.117479 5.367802 -1.591219 6 0 6 
z
" style="stroke: #000080; stroke-width: 1.5"/>
    </defs>
    <g>
     <use xlink:href="#m632c00e372" x="178.177604" y="116.853459" style="fill-opacity: 0; stroke: #000080; stroke-width: 1.5"/>
     <use xlink:href="#m632c00e372" x="180.217237" y="6.912" style="fill-opacity: 0; stroke: #000080; stroke-width: 1.5"/>
     <use xlink:href="#m632c00e372" x="180.217237" y="6.912" style="fill-opacity: 0; stroke: #000080; stroke-width: 1.5"/>
     <use xlink:href="#m632c00e372" x="360.8064" y="6.912" style="fill-opacity: 0; stroke: #000080; stroke-width: 1.5"/>
    </g>
   </g>
   <g id="line2d_32">
    <path style="fill: none; stroke: #000080; stroke-width: 1.5; stroke-linecap: square"/>
    <g/>
   </g>
   <g id="line2d_33">
    <defs>
     <path id="mf64107a8bc" d="M 0 1.5 
C 0.397805 1.5 0.77937 1.341951 1.06066 1.06066 
C 1.341951 0.77937 1.5 0.397805 1.5 0 
C 1.5 -0.397805 1.341951 -0.77937 1.06066 -1.06066 
C 0.77937 -1.341951 0.397805 -1.5 0 -1.5 
C -0.397805 -1.5 -0.77937 -1.341951 -1.06066 -1.06066 
C -1.341951 -0.77937 -1.5 -0.397805 -1.5 0 
C -1.5 0.397805 -1.341951 0.77937 -1.06066 1.06066 
C -0.77937 1.341951 -0.397805 1.5 0 1.5 
z
" style="stroke: #ff00ff"/>
    </defs>
    <g>
     <use xlink:href="#mf64107a8bc" x="170.397892" y="6.912" style="fill: #ff00ff; stroke: #ff00ff"/>
     <use xlink:href="#mf64107a8bc" x="170.397892" y="6.912" style="fill: #ff00ff; stroke: #ff00ff"/>
    </g>
   </g>
   <g id="line2d_34">
    <path d="M 152.291722 298.944 
L 152.291722 297.798776 
L 152.989417 297.798776 
L 152.989417 296.653553 
L 153.52493 296.653553 
L 153.58223 294.363106 
L 154.328173 294.363106 
L 154.328173 293.217882 
L 154.682245 293.217882 
L 154.682245 292.072659 
L 154.902202 292.072659 
L 154.902202 290.927435 
L 155.42814 290.927435 
L 155.490275 288.636988 
L 156.030406 288.636988 
L 156.030406 287.491765 
L 156.413263 287.491765 
L 156.413263 286.346541 
L 156.652904 286.346541 
L 156.652904 285.201318 
L 156.788483 285.201318 
L 156.788483 284.056094 
L 156.956595 284.056094 
L 156.956595 282.910871 
L 157.184731 282.910871 
L 157.184731 281.765647 
L 157.316545 281.765647 
L 157.330613 279.4752 
L 157.466066 279.4752 
L 157.489322 277.184753 
L 157.843876 277.184753 
L 157.843876 276.039529 
L 158.034489 276.039529 
L 158.075085 272.603859 
L 158.178433 272.603859 
L 158.209775 270.313412 
L 158.463058 270.313412 
L 158.493929 268.022965 
L 158.856162 268.022965 
L 158.856162 266.877741 
L 159.015419 266.877741 
L 159.092411 264.587294 
L 159.135048 264.587294 
L 159.220034 261.151624 
L 159.304637 261.151624 
L 159.346797 258.861176 
L 159.647587 258.861176 
L 159.709651 255.425506 
L 159.886441 255.425506 
L 159.886441 254.280282 
L 160.073744 254.280282 
L 160.154602 250.844612 
L 160.291267 250.844612 
L 160.331275 248.554165 
L 160.426947 248.554165 
L 160.442846 246.263718 
L 160.620781 246.263718 
L 160.620781 245.118494 
L 160.754113 245.118494 
L 160.804844 242.828047 
L 160.975542 242.828047 
L 161.071844 240.5376 
L 161.13322 240.5376 
L 161.137049 238.247153 
L 161.319946 238.247153 
L 161.319946 237.101929 
L 161.452196 237.101929 
L 161.489811 234.811482 
L 161.564818 234.811482 
L 161.632069 232.521035 
L 161.728786 232.521035 
L 161.806543 227.940141 
L 161.950101 227.940141 
L 161.97209 225.649694 
L 162.233972 225.649694 
L 162.327652 221.0688 
L 162.417291 221.0688 
L 162.527853 218.778353 
L 162.549177 218.778353 
L 162.584664 216.487906 
L 162.711865 216.487906 
L 162.775144 214.197459 
L 162.949812 214.197459 
L 162.963715 211.907012 
L 163.067666 211.907012 
L 163.171045 207.326118 
L 163.236226 207.326118 
L 163.328465 202.745224 
L 163.572247 202.745224 
L 163.636055 199.309553 
L 163.709668 199.309553 
L 163.802943 195.873882 
L 163.85935 195.873882 
L 163.951887 191.292988 
L 163.994697 191.292988 
L 164.086573 189.002541 
L 164.116009 189.002541 
L 164.210548 183.276424 
L 164.275472 183.276424 
L 164.378885 179.840753 
L 164.417519 179.840753 
L 164.516958 176.405082 
L 164.609508 176.405082 
L 164.695268 169.533741 
L 164.824753 169.533741 
L 164.906406 167.243294 
L 165.021997 167.243294 
L 165.124495 162.6624 
L 165.14926 162.6624 
L 165.226438 160.371953 
L 165.266447 160.371953 
L 165.37374 155.791059 
L 165.413437 155.791059 
L 165.51383 150.064941 
L 165.541117 150.064941 
L 165.583486 146.629271 
L 165.784938 146.629271 
L 165.853599 142.048376 
L 165.898243 142.048376 
L 165.901215 139.757929 
L 166.034495 139.757929 
L 166.09637 134.031812 
L 166.152178 134.031812 
L 166.231199 129.450918 
L 166.266214 129.450918 
L 166.304073 127.160471 
L 166.379563 127.160471 
L 166.41141 123.7248 
L 166.495114 123.7248 
L 166.595641 119.143906 
L 166.661411 119.143906 
L 166.709876 116.853459 
L 166.8036 116.853459 
L 166.88558 111.127341 
L 166.916583 111.127341 
L 167.020491 104.256 
L 167.070834 104.256 
L 167.157222 99.675106 
L 167.254282 99.675106 
L 167.359097 93.948988 
L 167.400311 93.948988 
L 167.498859 89.368094 
L 167.6403 89.368094 
L 167.745687 82.496753 
L 167.796816 82.496753 
L 167.869235 77.915859 
L 167.930707 77.915859 
L 167.994637 73.334965 
L 168.0663 73.334965 
L 168.150883 67.608847 
L 168.185136 67.608847 
L 168.219327 63.027953 
L 168.318914 63.027953 
L 168.402371 56.156612 
L 168.430973 56.156612 
L 168.490639 51.575718 
L 168.578496 51.575718 
L 168.578496 50.430494 
L 168.694149 50.430494 
L 168.783612 43.559153 
L 168.821824 43.559153 
L 168.900549 36.687812 
L 168.966324 36.687812 
L 169.062044 30.961694 
L 169.15978 30.961694 
L 169.269439 26.3808 
L 169.279377 26.3808 
L 169.385874 20.654682 
L 169.405621 20.654682 
L 169.481946 17.219012 
L 169.521218 17.219012 
L 169.575085 13.783341 
L 169.747881 13.783341 
L 169.747881 12.638118 
L 169.943096 12.638118 
L 169.943096 11.492894 
L 170.067359 11.492894 
L 170.067359 10.347671 
L 170.261661 10.347671 
L 170.296988 8.057224 
L 170.397892 8.057224 
L 170.397892 6.912 
L 360.8064 6.912 
L 360.8064 6.912 
" style="fill: none; stroke: #ff00ff; stroke-width: 1.5; stroke-linecap: square"/>
   </g>
   <g id="line2d_35">
    <defs>
     <path id="mbf19ad3498" d="M -0 8.485281 
L 5.091169 0 
L 0 -8.485281 
L -5.091169 -0 
z
" style="stroke: #ff00ff; stroke-width: 1.5; stroke-linejoin: miter"/>
    </defs>
    <g>
     <use xlink:href="#mbf19ad3498" x="168.821824" y="42.413929" style="fill-opacity: 0; stroke: #ff00ff; stroke-width: 1.5; stroke-linejoin: miter"/>
     <use xlink:href="#mbf19ad3498" x="170.397892" y="8.057224" style="fill-opacity: 0; stroke: #ff00ff; stroke-width: 1.5; stroke-linejoin: miter"/>
     <use xlink:href="#mbf19ad3498" x="170.397892" y="6.912" style="fill-opacity: 0; stroke: #ff00ff; stroke-width: 1.5; stroke-linejoin: miter"/>
     <use xlink:href="#mbf19ad3498" x="170.397892" y="6.912" style="fill-opacity: 0; stroke: #ff00ff; stroke-width: 1.5; stroke-linejoin: miter"/>
     <use xlink:href="#mbf19ad3498" x="360.8064" y="6.912" style="fill-opacity: 0; stroke: #ff00ff; stroke-width: 1.5; stroke-linejoin: miter"/>
    </g>
   </g>
   <g id="line2d_36">
    <path style="fill: none; stroke: #ff00ff; stroke-width: 1.5; stroke-linecap: square"/>
    <g/>
   </g>
   <g id="line2d_37">
    <defs>
     <path id="md579eec3e6" d="M 0 1.5 
C 0.397805 1.5 0.77937 1.341951 1.06066 1.06066 
C 1.341951 0.77937 1.5 0.397805 1.5 0 
C 1.5 -0.397805 1.341951 -0.77937 1.06066 -1.06066 
C 0.77937 -1.341951 0.397805 -1.5 0 -1.5 
C -0.397805 -1.5 -0.77937 -1.341951 -1.06066 -1.06066 
C -1.341951 -0.77937 -1.5 -0.397805 -1.5 0 
C -1.5 0.397805 -1.341951 0.77937 -1.06066 1.06066 
C -0.77937 1.341951 -0.397805 1.5 0 1.5 
z
" style="stroke: #ff7500"/>
    </defs>
    <g>
     <use xlink:href="#md579eec3e6" x="188.753202" y="6.912" style="fill: #ff7500; stroke: #ff7500"/>
     <use xlink:href="#md579eec3e6" x="188.753202" y="6.912" style="fill: #ff7500; stroke: #ff7500"/>
    </g>
   </g>
   <g id="line2d_38">
    <path d="M 137.250116 298.944 
L 137.250116 297.798776 
L 137.439996 297.798776 
L 137.439996 296.653553 
L 137.601239 296.653553 
L 137.601239 295.508329 
L 138.024583 295.508329 
L 138.024583 294.363106 
L 138.180913 294.363106 
L 138.180913 292.072659 
L 138.425808 292.072659 
L 138.425808 290.927435 
L 138.730661 290.927435 
L 138.730661 289.782212 
L 139.141927 289.782212 
L 139.141927 288.636988 
L 139.325934 288.636988 
L 139.325934 287.491765 
L 139.652679 287.491765 
L 139.652679 286.346541 
L 139.796097 286.346541 
L 139.796097 285.201318 
L 139.93843 285.201318 
L 140.020963 282.910871 
L 140.056223 282.910871 
L 140.056223 281.765647 
L 140.508697 281.765647 
L 140.520157 279.4752 
L 140.759217 279.4752 
L 140.759217 278.329976 
L 140.883238 278.329976 
L 140.928134 276.039529 
L 140.995278 276.039529 
L 141.017607 273.749082 
L 141.117757 273.749082 
L 141.217377 271.458635 
L 141.664643 271.458635 
L 141.664643 270.313412 
L 141.879022 270.313412 
L 141.910969 268.022965 
L 142.038218 268.022965 
L 142.059343 265.732518 
L 142.164612 265.732518 
L 142.237951 263.442071 
L 142.383778 263.442071 
L 142.383778 262.296847 
L 142.631166 262.296847 
L 142.702713 260.0064 
L 142.814596 260.0064 
L 142.814596 258.861176 
L 143.275392 258.861176 
L 143.324805 255.425506 
L 143.403597 255.425506 
L 143.462475 253.135059 
L 143.560197 253.135059 
L 143.667109 250.844612 
L 143.686483 250.844612 
L 143.792681 248.554165 
L 143.888708 248.554165 
L 143.888708 247.408941 
L 144.098256 247.408941 
L 144.192739 245.118494 
L 144.417581 245.118494 
L 144.454795 242.828047 
L 144.630562 242.828047 
L 144.630562 241.682824 
L 144.768174 241.682824 
L 144.768174 240.5376 
L 144.91386 240.5376 
L 144.91386 239.392376 
L 145.201889 239.392376 
L 145.273213 237.101929 
L 145.326529 237.101929 
L 145.326529 235.956706 
L 145.485575 235.956706 
L 145.520737 233.666259 
L 146.040426 233.666259 
L 146.057504 231.375812 
L 146.345485 231.375812 
L 146.404232 229.085365 
L 146.496179 229.085365 
L 146.537825 226.794918 
L 146.892226 226.794918 
L 146.892226 225.649694 
L 147.087167 225.649694 
L 147.159751 223.359247 
L 147.518533 223.359247 
L 147.518533 222.214024 
L 147.722752 222.214024 
L 147.722752 221.0688 
L 147.932506 221.0688 
L 147.932506 219.923576 
L 148.055709 219.923576 
L 148.055709 218.778353 
L 148.645035 218.778353 
L 148.645035 217.633129 
L 149.013323 217.633129 
L 149.013323 216.487906 
L 149.42456 216.487906 
L 149.42456 215.342682 
L 150.11812 215.342682 
L 150.11812 214.197459 
L 152.267196 214.197459 
L 152.267196 213.052235 
L 160.722826 213.052235 
L 160.722826 211.907012 
L 161.308567 211.907012 
L 161.308567 210.761788 
L 163.184786 210.761788 
L 163.18822 208.471341 
L 163.477818 208.471341 
L 163.477818 207.326118 
L 164.564886 207.326118 
L 164.63178 205.035671 
L 164.990826 205.035671 
L 165.071763 202.745224 
L 165.198691 202.745224 
L 165.198691 201.6 
L 166.15511 201.6 
L 166.181484 199.309553 
L 166.365069 199.309553 
L 166.365069 198.164329 
L 167.014889 198.164329 
L 167.070834 195.873882 
L 167.265343 195.873882 
L 167.265343 194.728659 
L 167.558829 194.728659 
L 167.599608 192.438212 
L 168.23246 192.438212 
L 168.23246 191.292988 
L 168.347644 191.292988 
L 168.454343 189.002541 
L 168.801454 189.002541 
L 168.801454 187.857318 
L 169.25701 187.857318 
L 169.25701 186.712094 
L 169.494227 186.712094 
L 169.494227 185.566871 
L 169.694508 185.566871 
L 169.796271 183.276424 
L 170.05783 183.276424 
L 170.05783 182.1312 
L 170.39087 182.1312 
L 170.39087 180.985976 
L 170.523847 180.985976 
L 170.523847 179.840753 
L 170.69279 179.840753 
L 170.69279 178.695529 
L 171.150271 178.695529 
L 171.190702 176.405082 
L 171.389343 176.405082 
L 171.389343 175.259859 
L 171.568323 175.259859 
L 171.568323 174.114635 
L 171.795656 174.114635 
L 171.795656 172.969412 
L 172.182738 172.969412 
L 172.182738 171.824188 
L 172.434338 171.824188 
L 172.434338 170.678965 
L 172.555757 170.678965 
L 172.614094 167.243294 
L 173.12102 167.243294 
L 173.205875 164.952847 
L 173.280313 164.952847 
L 173.280313 163.807624 
L 173.596882 163.807624 
L 173.608724 161.517176 
L 173.840121 161.517176 
L 173.840121 160.371953 
L 174.035946 160.371953 
L 174.080256 158.081506 
L 174.37807 158.081506 
L 174.37807 156.936282 
L 174.508307 156.936282 
L 174.508307 155.791059 
L 174.622697 155.791059 
L 174.725243 153.500612 
L 174.77538 153.500612 
L 174.77538 152.355388 
L 175.036886 152.355388 
L 175.036886 151.210165 
L 175.291198 151.210165 
L 175.298414 148.919718 
L 175.420661 148.919718 
L 175.436781 146.629271 
L 175.722847 146.629271 
L 175.722847 145.484047 
L 175.849382 145.484047 
L 175.933269 143.1936 
L 176.249698 143.1936 
L 176.33353 140.903153 
L 176.437372 140.903153 
L 176.437372 139.757929 
L 176.579436 139.757929 
L 176.579436 138.612706 
L 176.740492 138.612706 
L 176.743833 136.322259 
L 176.881951 136.322259 
L 176.881951 135.177035 
L 177.267599 135.177035 
L 177.283835 132.886588 
L 177.426115 132.886588 
L 177.482406 130.596141 
L 177.610441 130.596141 
L 177.642315 128.305694 
L 177.978455 128.305694 
L 177.990964 126.015247 
L 178.18534 126.015247 
L 178.18534 123.7248 
L 178.350146 123.7248 
L 178.373134 121.434353 
L 178.469381 121.434353 
L 178.469381 120.289129 
L 178.637769 120.289129 
L 178.637769 119.143906 
L 178.779198 119.143906 
L 178.779198 117.998682 
L 178.900221 117.998682 
L 179.001223 115.708235 
L 179.089894 115.708235 
L 179.089894 114.563012 
L 179.309761 114.563012 
L 179.399894 111.127341 
L 179.594669 111.127341 
L 179.594669 109.982118 
L 179.736234 109.982118 
L 179.821515 104.256 
L 180.020416 104.256 
L 180.020416 103.110776 
L 180.276853 103.110776 
L 180.34042 99.675106 
L 180.476502 99.675106 
L 180.488824 97.384659 
L 180.795637 97.384659 
L 180.842708 93.948988 
L 180.913763 93.948988 
L 181.020511 91.658541 
L 181.13327 91.658541 
L 181.13856 89.368094 
L 181.245358 89.368094 
L 181.245358 88.222871 
L 181.386819 88.222871 
L 181.405079 85.932424 
L 181.531109 85.932424 
L 181.586709 82.496753 
L 181.802375 82.496753 
L 181.821511 79.061082 
L 181.928316 79.061082 
L 182.005498 76.770635 
L 182.116288 76.770635 
L 182.16518 72.189741 
L 182.343372 72.189741 
L 182.443562 67.608847 
L 182.537085 67.608847 
L 182.63503 65.3184 
L 182.655778 65.3184 
L 182.704506 63.027953 
L 182.906594 63.027953 
L 182.949875 59.592282 
L 183.031357 59.592282 
L 183.122009 56.156612 
L 183.257174 56.156612 
L 183.290225 53.866165 
L 183.373772 53.866165 
L 183.390202 51.575718 
L 183.529283 51.575718 
L 183.549068 49.285271 
L 183.656938 49.285271 
L 183.737724 44.704376 
L 183.837648 44.704376 
L 183.927926 41.268706 
L 184.060838 41.268706 
L 184.146674 38.978259 
L 184.303775 38.978259 
L 184.406302 35.542588 
L 184.614094 35.542588 
L 184.614094 34.397365 
L 184.839175 34.397365 
L 184.925864 32.106918 
L 184.976609 32.106918 
L 184.976609 30.961694 
L 185.292022 30.961694 
L 185.301562 28.671247 
L 185.460907 28.671247 
L 185.460907 27.526024 
L 185.732152 27.526024 
L 185.802452 25.235576 
L 185.963767 25.235576 
L 186.003625 22.945129 
L 186.163231 22.945129 
L 186.163231 21.799906 
L 186.34156 21.799906 
L 186.343566 19.509459 
L 186.46848 19.509459 
L 186.46848 18.364235 
L 186.628158 18.364235 
L 186.628158 17.219012 
L 187.065474 17.219012 
L 187.065474 16.073788 
L 187.251738 16.073788 
L 187.251738 14.928565 
L 187.544659 14.928565 
L 187.544659 13.783341 
L 187.757909 13.783341 
L 187.757909 12.638118 
L 187.995418 12.638118 
L 187.995418 11.492894 
L 188.249004 11.492894 
L 188.249004 10.347671 
L 188.39971 10.347671 
L 188.39971 9.202447 
L 188.565262 9.202447 
L 188.565262 8.057224 
L 188.753202 8.057224 
L 188.753202 6.912 
L 360.8064 6.912 
L 360.8064 6.912 
" style="fill: none; stroke: #ff7500; stroke-width: 1.5; stroke-linecap: square"/>
   </g>
   <g id="line2d_39">
    <defs>
     <path id="ma171e82dbf" d="M 0 -6 
L -1.347084 -1.854102 
L -5.706339 -1.854102 
L -2.179628 0.708204 
L -3.526712 4.854102 
L -0 2.291796 
L 3.526712 4.854102 
L 2.179628 0.708204 
L 5.706339 -1.854102 
L 1.347084 -1.854102 
z
" style="stroke: #ff7500; stroke-width: 1.5; stroke-linejoin: bevel"/>
    </defs>
    <g>
     <use xlink:href="#ma171e82dbf" x="182.537085" y="67.608847" style="fill-opacity: 0; stroke: #ff7500; stroke-width: 1.5; stroke-linejoin: bevel"/>
     <use xlink:href="#ma171e82dbf" x="188.753202" y="8.057224" style="fill-opacity: 0; stroke: #ff7500; stroke-width: 1.5; stroke-linejoin: bevel"/>
     <use xlink:href="#ma171e82dbf" x="188.753202" y="6.912" style="fill-opacity: 0; stroke: #ff7500; stroke-width: 1.5; stroke-linejoin: bevel"/>
     <use xlink:href="#ma171e82dbf" x="188.753202" y="6.912" style="fill-opacity: 0; stroke: #ff7500; stroke-width: 1.5; stroke-linejoin: bevel"/>
     <use xlink:href="#ma171e82dbf" x="360.8064" y="6.912" style="fill-opacity: 0; stroke: #ff7500; stroke-width: 1.5; stroke-linejoin: bevel"/>
    </g>
   </g>
   <g id="line2d_40">
    <path style="fill: none; stroke: #ff7500; stroke-width: 1.5; stroke-linecap: square"/>
    <g/>
   </g>
   <g id="line2d_41">
    <defs>
     <path id="m53ce96d2f4" d="M 0 1.5 
C 0.397805 1.5 0.77937 1.341951 1.06066 1.06066 
C 1.341951 0.77937 1.5 0.397805 1.5 0 
C 1.5 -0.397805 1.341951 -0.77937 1.06066 -1.06066 
C 0.77937 -1.341951 0.397805 -1.5 0 -1.5 
C -0.397805 -1.5 -0.77937 -1.341951 -1.06066 -1.06066 
C -1.341951 -0.77937 -1.5 -0.397805 -1.5 0 
C -1.5 0.397805 -1.341951 0.77937 -1.06066 1.06066 
C -0.77937 1.341951 -0.397805 1.5 0 1.5 
z
" style="stroke: #6495ed"/>
    </defs>
    <g>
     <use xlink:href="#m53ce96d2f4" x="245.570448" y="6.912" style="fill: #6495ed; stroke: #6495ed"/>
     <use xlink:href="#m53ce96d2f4" x="245.570448" y="6.912" style="fill: #6495ed; stroke: #6495ed"/>
    </g>
   </g>
   <g id="line2d_42">
    <path d="M 126.589495 298.944 
L 126.589495 297.798776 
L 127.686077 297.798776 
L 127.708728 295.508329 
L 127.866525 295.508329 
L 127.866525 294.363106 
L 127.978432 294.363106 
L 127.978432 293.217882 
L 129.334225 293.217882 
L 129.334225 292.072659 
L 129.663538 292.072659 
L 129.663538 290.927435 
L 129.86647 290.927435 
L 129.906795 288.636988 
L 130.226319 288.636988 
L 130.226319 287.491765 
L 130.579414 287.491765 
L 130.579414 286.346541 
L 131.134706 286.346541 
L 131.134706 285.201318 
L 131.910931 285.201318 
L 131.910931 284.056094 
L 132.829612 284.056094 
L 132.829612 282.910871 
L 133.390178 282.910871 
L 133.390178 281.765647 
L 133.804 281.765647 
L 133.804 280.620424 
L 134.320744 280.620424 
L 134.352574 278.329976 
L 134.479359 278.329976 
L 134.479359 277.184753 
L 134.87014 277.184753 
L 134.87014 276.039529 
L 134.993495 276.039529 
L 134.993495 274.894306 
L 136.141169 274.894306 
L 136.213327 272.603859 
L 136.513404 272.603859 
L 136.513404 271.458635 
L 136.710829 271.458635 
L 136.710829 270.313412 
L 136.947806 270.313412 
L 136.947806 269.168188 
L 137.358854 269.168188 
L 137.358854 268.022965 
L 138.219793 268.022965 
L 138.219793 266.877741 
L 138.438609 266.877741 
L 138.438609 265.732518 
L 138.743257 265.732518 
L 138.743257 264.587294 
L 138.856239 264.587294 
L 138.856239 263.442071 
L 139.030652 263.442071 
L 139.030652 262.296847 
L 139.350333 262.296847 
L 139.350333 261.151624 
L 140.301214 261.151624 
L 140.301214 260.0064 
L 140.485756 260.0064 
L 140.508697 257.715953 
L 141.458695 257.715953 
L 141.458695 256.570729 
L 141.761416 256.570729 
L 141.761416 255.425506 
L 142.038218 255.425506 
L 142.038218 254.280282 
L 142.331827 254.280282 
L 142.331827 253.135059 
L 142.620923 253.135059 
L 142.620923 251.989835 
L 142.996254 251.989835 
L 142.996254 250.844612 
L 143.146307 250.844612 
L 143.146307 249.699388 
L 143.314933 249.699388 
L 143.314933 248.554165 
L 143.560197 248.554165 
L 143.560197 247.408941 
L 144.749884 247.408941 
L 144.749884 246.263718 
L 145.38854 246.263718 
L 145.38854 245.118494 
L 146.337078 245.118494 
L 146.404232 242.828047 
L 146.662213 242.828047 
L 146.662213 241.682824 
L 147.80849 241.682824 
L 147.80849 240.5376 
L 150.193627 240.5376 
L 150.193627 239.392376 
L 150.932483 239.392376 
L 150.932483 238.247153 
L 167.020491 238.247153 
L 167.020491 237.101929 
L 167.320549 237.101929 
L 167.320549 235.956706 
L 167.615896 235.956706 
L 167.615896 234.811482 
L 168.195663 234.811482 
L 168.195663 233.666259 
L 168.645404 233.666259 
L 168.645404 232.521035 
L 168.923343 232.521035 
L 168.923343 231.375812 
L 169.164778 231.375812 
L 169.164778 230.230588 
L 169.435203 230.230588 
L 169.435203 229.085365 
L 169.696937 229.085365 
L 169.696937 227.940141 
L 170.010109 227.940141 
L 170.010109 226.794918 
L 170.15291 226.794918 
L 170.261661 224.504471 
L 170.4353 224.504471 
L 170.53082 222.214024 
L 170.914954 222.214024 
L 170.917231 219.923576 
L 171.026191 219.923576 
L 171.026191 218.778353 
L 171.235523 218.778353 
L 171.235523 217.633129 
L 171.376017 217.633129 
L 171.376017 216.487906 
L 171.649516 216.487906 
L 171.699811 214.197459 
L 171.994493 214.197459 
L 172.00309 211.907012 
L 172.208263 211.907012 
L 172.208263 210.761788 
L 172.331145 210.761788 
L 172.331145 209.616565 
L 172.455328 209.616565 
L 172.551583 207.326118 
L 172.839484 207.326118 
L 172.88875 205.035671 
L 173.074389 205.035671 
L 173.074389 203.890447 
L 173.398404 203.890447 
L 173.442249 201.6 
L 173.661923 201.6 
L 173.661923 200.454776 
L 173.93538 200.454776 
L 173.93538 199.309553 
L 174.135977 199.309553 
L 174.137895 197.019106 
L 174.376176 197.019106 
L 174.451793 194.728659 
L 174.555272 194.728659 
L 174.555272 193.583435 
L 174.747543 193.583435 
L 174.747543 192.438212 
L 174.915793 192.438212 
L 174.915793 191.292988 
L 175.15357 191.292988 
L 175.155387 189.002541 
L 175.323647 189.002541 
L 175.323647 187.857318 
L 175.438571 187.857318 
L 175.543899 184.421647 
L 175.669871 184.421647 
L 175.669871 183.276424 
L 175.859888 183.276424 
L 175.89312 180.985976 
L 176.039338 180.985976 
L 176.132739 178.695529 
L 176.295937 178.695529 
L 176.389778 175.259859 
L 176.427183 175.259859 
L 176.427183 174.114635 
L 176.693659 174.114635 
L 176.762196 171.824188 
L 176.868683 171.824188 
L 176.934932 169.533741 
L 177.053597 169.533741 
L 177.053597 168.388518 
L 177.231829 168.388518 
L 177.291948 166.098071 
L 177.46634 166.098071 
L 177.517703 162.6624 
L 177.645499 162.6624 
L 177.737611 160.371953 
L 177.863928 160.371953 
L 177.969068 158.081506 
L 178.16367 158.081506 
L 178.220888 155.791059 
L 178.422083 155.791059 
L 178.511999 153.500612 
L 178.798674 153.500612 
L 178.898732 151.210165 
L 179.184018 151.210165 
L 179.184018 150.064941 
L 179.356335 150.064941 
L 179.356335 148.919718 
L 179.508351 148.919718 
L 179.508351 147.774494 
L 179.784607 147.774494 
L 179.851272 145.484047 
L 180.054064 145.484047 
L 180.054064 144.338824 
L 180.244989 144.338824 
L 180.304517 142.048376 
L 180.41889 142.048376 
L 180.520278 139.757929 
L 180.732242 139.757929 
L 180.732242 138.612706 
L 180.896359 138.612706 
L 180.99921 136.322259 
L 181.226942 136.322259 
L 181.295253 134.031812 
L 181.464951 134.031812 
L 181.464951 132.886588 
L 181.642145 132.886588 
L 181.696135 130.596141 
L 181.854635 130.596141 
L 181.854635 129.450918 
L 182.166432 129.450918 
L 182.260094 127.160471 
L 182.489151 127.160471 
L 182.489151 126.015247 
L 182.670409 126.015247 
L 182.670409 124.870024 
L 182.853559 124.870024 
L 182.853559 123.7248 
L 183.17548 123.7248 
L 183.17548 122.579576 
L 184.037051 122.579576 
L 184.037051 121.434353 
L 184.337269 121.434353 
L 184.337269 120.289129 
L 184.614094 120.289129 
L 184.614094 119.143906 
L 184.771715 119.143906 
L 184.771715 117.998682 
L 184.899899 117.998682 
L 184.899899 116.853459 
L 185.176094 116.853459 
L 185.28672 114.563012 
L 185.431461 114.563012 
L 185.53118 112.272565 
L 185.63766 112.272565 
L 185.63766 111.127341 
L 185.769402 111.127341 
L 185.769402 109.982118 
L 185.902281 109.982118 
L 185.902281 108.836894 
L 186.049511 108.836894 
L 186.157157 106.546447 
L 186.265197 106.546447 
L 186.265197 105.401224 
L 186.416617 105.401224 
L 186.416617 104.256 
L 186.608395 104.256 
L 186.702081 101.965553 
L 186.854918 101.965553 
L 186.854918 100.820329 
L 187.213483 100.820329 
L 187.213483 99.675106 
L 187.845128 99.675106 
L 187.845128 98.529882 
L 193.763983 98.529882 
L 193.874493 95.094212 
L 193.96832 95.094212 
L 194.046375 92.803765 
L 194.11416 92.803765 
L 194.161861 90.513318 
L 194.270065 90.513318 
L 194.35998 88.222871 
L 194.416857 88.222871 
L 194.486574 85.932424 
L 194.601982 85.932424 
L 194.601982 84.7872 
L 194.729532 84.7872 
L 194.729532 83.641976 
L 194.843464 83.641976 
L 194.843464 82.496753 
L 195.011814 82.496753 
L 195.011814 81.351529 
L 197.035378 81.351529 
L 197.132247 79.061082 
L 197.196551 79.061082 
L 197.294276 75.625412 
L 197.328976 75.625412 
L 197.400968 72.189741 
L 197.450477 72.189741 
L 197.514811 67.608847 
L 197.564574 67.608847 
L 197.620814 64.173176 
L 197.699926 64.173176 
L 197.751389 61.882729 
L 197.885951 61.882729 
L 197.885951 60.737506 
L 198.019556 60.737506 
L 198.081977 58.447059 
L 198.220069 58.447059 
L 198.220069 57.301835 
L 198.785821 57.301835 
L 198.884917 55.011388 
L 198.912693 55.011388 
L 199.023392 51.575718 
L 199.088685 51.575718 
L 199.186709 48.140047 
L 199.237298 48.140047 
L 199.292285 45.8496 
L 199.360669 45.8496 
L 199.469768 42.413929 
L 199.499685 42.413929 
L 199.596587 40.123482 
L 199.671776 40.123482 
L 199.774181 37.833035 
L 200.036016 37.833035 
L 200.036016 36.687812 
L 207.724034 36.687812 
L 207.818717 33.252141 
L 208.111606 33.252141 
L 208.201853 29.816471 
L 208.23351 29.816471 
L 208.306026 26.3808 
L 208.346538 26.3808 
L 208.427301 22.945129 
L 208.471264 22.945129 
L 208.573959 18.364235 
L 208.621877 18.364235 
L 208.670284 16.073788 
L 208.876303 16.073788 
L 208.876303 14.928565 
L 209.26658 14.928565 
L 209.26658 13.783341 
L 209.382426 13.783341 
L 209.382426 12.638118 
L 224.333848 12.638118 
L 224.397481 8.057224 
L 235.706566 8.057224 
L 235.706566 7.484612 
L 245.570448 7.484612 
L 245.570448 6.912 
L 360.8064 6.912 
L 360.8064 6.912 
" style="fill: none; stroke: #6495ed; stroke-width: 1.5; stroke-linecap: square"/>
   </g>
   <g id="line2d_43">
    <defs>
     <path id="m6d6e775901" d="M -0 6 
L 6 -6 
L -6 -6 
z
" style="stroke: #6495ed; stroke-width: 1.5; stroke-linejoin: miter"/>
    </defs>
    <g>
     <use xlink:href="#m6d6e775901" x="170.4353" y="224.504471" style="fill-opacity: 0; stroke: #6495ed; stroke-width: 1.5; stroke-linejoin: miter"/>
     <use xlink:href="#m6d6e775901" x="187.845128" y="98.529882" style="fill-opacity: 0; stroke: #6495ed; stroke-width: 1.5; stroke-linejoin: miter"/>
     <use xlink:href="#m6d6e775901" x="245.570448" y="7.484612" style="fill-opacity: 0; stroke: #6495ed; stroke-width: 1.5; stroke-linejoin: miter"/>
     <use xlink:href="#m6d6e775901" x="245.570448" y="6.912" style="fill-opacity: 0; stroke: #6495ed; stroke-width: 1.5; stroke-linejoin: miter"/>
     <use xlink:href="#m6d6e775901" x="360.8064" y="6.912" style="fill-opacity: 0; stroke: #6495ed; stroke-width: 1.5; stroke-linejoin: miter"/>
    </g>
   </g>
   <g id="line2d_44">
    <path style="fill: none; stroke: #6495ed; stroke-width: 1.5; stroke-linecap: square"/>
    <g/>
   </g>
   <g id="line2d_45">
    <path d="M 230.86127 8.057224 
" clip-path="url(#pd83113bd98)" style="fill: none; stroke: #6495ed; stroke-width: 1.5; stroke-linecap: square"/>
    <defs>
     <path id="mc006d73e38" d="M -12 12 
L 12 -12 
M -12 -12 
L 12 12 
" style="stroke: #6495ed"/>
    </defs>
    <g clip-path="url(#pd83113bd98)">
     <use xlink:href="#mc006d73e38" x="230.86127" y="8.057224" style="fill: #6495ed; stroke: #6495ed"/>
    </g>
   </g>
   <g id="line2d_46">
    <defs>
     <path id="m112ae074a5" d="M 0 1.5 
C 0.397805 1.5 0.77937 1.341951 1.06066 1.06066 
C 1.341951 0.77937 1.5 0.397805 1.5 0 
C 1.5 -0.397805 1.341951 -0.77937 1.06066 -1.06066 
C 0.77937 -1.341951 0.397805 -1.5 0 -1.5 
C -0.397805 -1.5 -0.77937 -1.341951 -1.06066 -1.06066 
C -1.341951 -0.77937 -1.5 -0.397805 -1.5 0 
C -1.5 0.397805 -1.341951 0.77937 -1.06066 1.06066 
C -0.77937 1.341951 -0.397805 1.5 0 1.5 
z
" style="stroke: #ff0000"/>
    </defs>
    <g>
     <use xlink:href="#m112ae074a5" x="180.49293" y="6.912" style="fill: #ff0000; stroke: #ff0000"/>
     <use xlink:href="#m112ae074a5" x="180.49293" y="6.912" style="fill: #ff0000; stroke: #ff0000"/>
    </g>
   </g>
   <g id="line2d_47">
    <path d="M 1.245626 298.944 
L 1.245626 284.056094 
L 37.851216 284.056094 
L 37.851216 282.910871 
L 46.353758 282.910871 
L 46.353758 281.765647 
L 68.127242 281.765647 
L 68.127242 280.620424 
L 69.674268 280.620424 
L 69.674268 279.4752 
L 70.639174 279.4752 
L 70.639174 278.329976 
L 73.268314 278.329976 
L 73.268314 277.184753 
L 86.510858 277.184753 
L 86.510858 276.039529 
L 95.628448 276.039529 
L 95.628448 274.894306 
L 96.480897 274.894306 
L 96.480897 273.749082 
L 97.635342 273.749082 
L 97.635342 272.603859 
L 99.244147 272.603859 
L 99.244147 271.458635 
L 100.726138 271.458635 
L 100.726138 270.313412 
L 102.62243 270.313412 
L 102.62243 269.168188 
L 103.868684 269.168188 
L 103.868684 268.022965 
L 104.501065 268.022965 
L 104.501065 266.877741 
L 105.411479 266.877741 
L 105.411479 265.732518 
L 106.699465 265.732518 
L 106.699465 264.587294 
L 107.31183 264.587294 
L 107.31183 263.442071 
L 107.904887 263.442071 
L 107.904887 262.296847 
L 108.791791 262.296847 
L 108.791791 261.151624 
L 110.106149 261.151624 
L 110.106149 260.0064 
L 111.54963 260.0064 
L 111.602996 257.715953 
L 112.989468 257.715953 
L 112.989468 256.570729 
L 113.186449 256.570729 
L 113.186449 255.425506 
L 114.280729 255.425506 
L 114.280729 254.280282 
L 115.575511 254.280282 
L 115.575511 251.989835 
L 116.583514 251.989835 
L 116.583514 250.844612 
L 116.705799 250.844612 
L 116.705799 249.699388 
L 117.540239 249.699388 
L 117.540239 248.554165 
L 117.772007 248.554165 
L 117.772007 247.408941 
L 117.962989 247.408941 
L 117.962989 246.263718 
L 118.889854 246.263718 
L 118.889854 245.118494 
L 119.389621 245.118494 
L 119.459944 242.828047 
L 120.715645 242.828047 
L 120.715645 241.682824 
L 120.976468 241.682824 
L 121.073351 239.392376 
L 121.105535 239.392376 
L 121.105535 238.247153 
L 121.455972 238.247153 
L 121.455972 237.101929 
L 121.737916 237.101929 
L 121.737916 235.956706 
L 122.107385 235.956706 
L 122.107385 234.811482 
L 122.795872 234.811482 
L 122.795872 233.666259 
L 122.942266 233.666259 
L 122.942266 232.521035 
L 124.07413 232.521035 
L 124.101572 230.230588 
L 124.695386 230.230588 
L 124.695386 229.085365 
L 124.827769 229.085365 
L 124.827769 227.940141 
L 125.399435 227.940141 
L 125.399435 226.794918 
L 125.954239 226.794918 
L 125.954239 225.649694 
L 126.127391 225.649694 
L 126.127391 223.359247 
L 126.97002 223.359247 
L 126.97002 222.214024 
L 127.343 222.214024 
L 127.343 219.923576 
L 128.067481 219.923576 
L 128.067481 218.778353 
L 128.310214 218.778353 
L 128.310214 217.633129 
L 128.614685 217.633129 
L 128.614685 216.487906 
L 129.041269 216.487906 
L 129.041269 215.342682 
L 129.68393 215.342682 
L 129.7043 213.052235 
L 129.96712 213.052235 
L 129.96712 211.907012 
L 130.28563 211.907012 
L 130.28563 209.616565 
L 131.096932 209.616565 
L 131.096932 208.471341 
L 131.41562 208.471341 
L 131.41562 207.326118 
L 131.618991 207.326118 
L 131.618991 206.180894 
L 132.305093 206.180894 
L 132.322814 203.890447 
L 132.932784 203.890447 
L 132.984158 201.6 
L 133.573382 201.6 
L 133.573382 200.454776 
L 133.738397 200.454776 
L 133.738397 199.309553 
L 133.999446 199.309553 
L 133.999446 198.164329 
L 134.112526 198.164329 
L 134.112526 197.019106 
L 134.792631 197.019106 
L 134.792631 195.873882 
L 135.388902 195.873882 
L 135.493953 193.583435 
L 135.849738 193.583435 
L 135.849738 192.438212 
L 136.155623 192.438212 
L 136.155623 191.292988 
L 137.534223 191.292988 
L 137.547645 189.002541 
L 137.880131 189.002541 
L 137.880131 187.857318 
L 138.024583 187.857318 
L 138.024583 186.712094 
L 138.438609 186.712094 
L 138.438609 185.566871 
L 138.718057 185.566871 
L 138.730661 183.276424 
L 139.423341 183.276424 
L 139.423341 182.1312 
L 140.28962 182.1312 
L 140.28962 180.985976 
L 140.43979 180.985976 
L 140.53161 178.695529 
L 141.447793 178.695529 
L 141.447793 177.550306 
L 142.45627 177.550306 
L 142.45627 176.405082 
L 143.245681 176.405082 
L 143.295173 174.114635 
L 143.579681 174.114635 
L 143.579681 172.969412 
L 144.904788 172.969412 
L 144.986282 170.678965 
L 145.237585 170.678965 
L 145.237585 169.533741 
L 145.485575 169.533741 
L 145.485575 168.388518 
L 145.816988 168.388518 
L 145.816988 167.243294 
L 145.93763 167.243294 
L 145.93763 166.098071 
L 147.423525 166.098071 
L 147.423525 164.952847 
L 147.714939 164.952847 
L 147.714939 163.807624 
L 147.986506 163.807624 
L 147.986506 161.517176 
L 148.42055 161.517176 
L 148.42055 160.371953 
L 148.741485 160.371953 
L 148.741485 159.226729 
L 149.595059 159.226729 
L 149.595059 158.081506 
L 149.91759 158.081506 
L 149.91759 156.936282 
L 150.124997 156.936282 
L 150.124997 155.791059 
L 150.593527 155.791059 
L 150.593527 154.645835 
L 150.773735 154.645835 
L 150.773735 153.500612 
L 151.336488 153.500612 
L 151.336488 152.355388 
L 151.832729 152.355388 
L 151.832729 151.210165 
L 152.051217 151.210165 
L 152.069827 148.919718 
L 152.25492 148.919718 
L 152.25492 147.774494 
L 152.965784 147.774494 
L 152.965784 146.629271 
L 153.276532 146.629271 
L 153.276532 145.484047 
L 153.713361 145.484047 
L 153.713361 144.338824 
L 154.173572 144.338824 
L 154.173572 143.1936 
L 154.443296 143.1936 
L 154.541415 140.903153 
L 154.611961 140.903153 
L 154.611961 139.757929 
L 154.907535 139.757929 
L 154.907535 138.612706 
L 155.114345 138.612706 
L 155.114345 137.467482 
L 155.381403 137.467482 
L 155.381403 136.322259 
L 156.160556 136.322259 
L 156.160556 135.177035 
L 156.66262 135.177035 
L 156.66262 132.886588 
L 156.966156 132.886588 
L 157.03771 130.596141 
L 157.236625 130.596141 
L 157.236625 129.450918 
L 158.007377 129.450918 
L 158.007377 128.305694 
L 158.312387 128.305694 
L 158.387873 126.015247 
L 158.942415 126.015247 
L 159.015419 123.7248 
L 159.325729 123.7248 
L 159.325729 122.579576 
L 159.824959 122.579576 
L 159.91915 120.289129 
L 159.943644 120.289129 
L 159.943644 119.143906 
L 160.387143 119.143906 
L 160.387143 117.998682 
L 160.652238 117.998682 
L 160.652238 116.853459 
L 161.281989 116.853459 
L 161.342683 114.563012 
L 161.51985 114.563012 
L 161.51985 113.417788 
L 161.861887 113.417788 
L 161.861887 112.272565 
L 162.197817 112.272565 
L 162.197817 111.127341 
L 162.453027 111.127341 
L 162.502944 108.836894 
L 162.963715 108.836894 
L 162.963715 107.691671 
L 163.399895 107.691671 
L 163.399895 106.546447 
L 163.642759 106.546447 
L 163.642759 105.401224 
L 163.766354 105.401224 
L 163.786321 103.110776 
L 164.484939 103.110776 
L 164.484939 101.965553 
L 164.641317 101.965553 
L 164.669899 99.675106 
L 164.903272 99.675106 
L 164.922068 97.384659 
L 165.401231 97.384659 
L 165.483464 95.094212 
L 165.722028 95.094212 
L 165.766985 92.803765 
L 165.948712 92.803765 
L 165.948712 91.658541 
L 166.359269 91.658541 
L 166.379563 88.222871 
L 166.564105 88.222871 
L 166.564105 87.077647 
L 166.848875 87.077647 
L 166.848875 85.932424 
L 167.446912 85.932424 
L 167.47427 83.641976 
L 167.804877 83.641976 
L 167.842446 81.351529 
L 168.103352 81.351529 
L 168.103352 80.206306 
L 168.227208 80.206306 
L 168.227208 79.061082 
L 168.819278 79.061082 
L 168.839629 76.770635 
L 169.207211 76.770635 
L 169.289309 74.480188 
L 169.400686 74.480188 
L 169.400686 73.334965 
L 169.723639 73.334965 
L 169.723639 72.189741 
L 170.00055 72.189741 
L 170.012498 69.899294 
L 170.167131 69.899294 
L 170.264018 66.463624 
L 170.439971 66.463624 
L 170.439971 65.3184 
L 170.869361 65.3184 
L 170.962708 61.882729 
L 170.994476 61.882729 
L 170.994476 60.737506 
L 171.266835 60.737506 
L 171.340435 58.447059 
L 171.555123 58.447059 
L 171.594694 56.156612 
L 171.843395 56.156612 
L 171.843395 55.011388 
L 171.962217 55.011388 
L 172.00309 52.720941 
L 172.112367 52.720941 
L 172.112367 51.575718 
L 172.465815 51.575718 
L 172.507702 48.140047 
L 172.841539 48.140047 
L 172.919476 43.559153 
L 173.246148 43.559153 
L 173.246148 42.413929 
L 173.602804 42.413929 
L 173.677657 40.123482 
L 173.763957 40.123482 
L 173.763957 38.978259 
L 173.958635 38.978259 
L 173.958635 37.833035 
L 174.397001 37.833035 
L 174.397001 35.542588 
L 174.641383 35.542588 
L 174.641383 34.397365 
L 174.871565 34.397365 
L 174.930512 32.106918 
L 175.463618 32.106918 
L 175.463618 30.961694 
L 175.728136 30.961694 
L 175.830105 26.3808 
L 176.522063 26.3808 
L 176.594594 22.945129 
L 176.901837 22.945129 
L 176.901837 21.799906 
L 177.142107 21.799906 
L 177.142107 20.654682 
L 177.356727 20.654682 
L 177.356727 19.509459 
L 177.552933 19.509459 
L 177.552933 18.364235 
L 177.678902 18.364235 
L 177.678902 17.219012 
L 177.942447 17.219012 
L 177.961242 14.928565 
L 178.276393 14.928565 
L 178.276393 13.783341 
L 178.425138 13.783341 
L 178.435827 11.492894 
L 178.54997 11.492894 
L 178.54997 10.347671 
L 179.616187 10.347671 
L 179.616187 9.202447 
L 179.924755 9.202447 
L 179.924755 8.057224 
L 180.49293 8.057224 
L 180.49293 6.912 
L 360.8064 6.912 
L 360.8064 6.912 
" style="fill: none; stroke: #ff0000; stroke-width: 1.5; stroke-linecap: square"/>
   </g>
   <g id="line2d_48">
    <defs>
     <path id="m1c5d203019" d="M 0 -6 
L -5.196152 -3 
L -5.196152 3 
L -0 6 
L 5.196152 3 
L 5.196152 -3 
z
" style="stroke: #ff0000; stroke-width: 1.5; stroke-linejoin: miter"/>
    </defs>
    <g>
     <use xlink:href="#m1c5d203019" x="73.268314" y="277.184753" style="fill-opacity: 0; stroke: #ff0000; stroke-width: 1.5; stroke-linejoin: miter"/>
     <use xlink:href="#m1c5d203019" x="129.7043" y="214.197459" style="fill-opacity: 0; stroke: #ff0000; stroke-width: 1.5; stroke-linejoin: miter"/>
     <use xlink:href="#m1c5d203019" x="175.784463" y="29.816471" style="fill-opacity: 0; stroke: #ff0000; stroke-width: 1.5; stroke-linejoin: miter"/>
     <use xlink:href="#m1c5d203019" x="180.49293" y="6.912" style="fill-opacity: 0; stroke: #ff0000; stroke-width: 1.5; stroke-linejoin: miter"/>
     <use xlink:href="#m1c5d203019" x="180.49293" y="6.912" style="fill-opacity: 0; stroke: #ff0000; stroke-width: 1.5; stroke-linejoin: miter"/>
     <use xlink:href="#m1c5d203019" x="360.8064" y="6.912" style="fill-opacity: 0; stroke: #ff0000; stroke-width: 1.5; stroke-linejoin: miter"/>
    </g>
   </g>
   <g id="line2d_49">
    <path style="fill: none; stroke: #ff0000; stroke-width: 1.5; stroke-linecap: square"/>
    <g/>
   </g>
   <g id="line2d_50">
    <path d="M 360.8064 6.912 
L 380.514816 293.10336 
" style="fill: none; stroke: #6495ed; stroke-width: 1.5; stroke-linecap: square"/>
    <g>
     <use xlink:href="#m6d6e775901" x="360.8064" y="6.912" style="fill-opacity: 0; stroke: #6495ed; stroke-width: 1.5; stroke-linejoin: miter"/>
     <use xlink:href="#m6d6e775901" x="380.514816" y="293.10336" style="fill-opacity: 0; stroke: #6495ed; stroke-width: 1.5; stroke-linejoin: miter"/>
    </g>
   </g>
   <g id="line2d_51">
    <path d="M 360.8064 6.912 
L 380.514816 223.01568 
" style="fill: none; stroke: #ff7500; stroke-width: 1.5; stroke-linecap: square"/>
    <g>
     <use xlink:href="#ma171e82dbf" x="360.8064" y="6.912" style="fill-opacity: 0; stroke: #ff7500; stroke-width: 1.5; stroke-linejoin: bevel"/>
     <use xlink:href="#ma171e82dbf" x="380.514816" y="223.01568" style="fill-opacity: 0; stroke: #ff7500; stroke-width: 1.5; stroke-linejoin: bevel"/>
    </g>
   </g>
   <g id="line2d_52">
    <path d="M 360.8064 6.912 
L 380.514816 152.928 
" style="fill: none; stroke: #ff0000; stroke-width: 1.5; stroke-linecap: square"/>
    <g>
     <use xlink:href="#m1c5d203019" x="360.8064" y="6.912" style="fill-opacity: 0; stroke: #ff0000; stroke-width: 1.5; stroke-linejoin: miter"/>
     <use xlink:href="#m1c5d203019" x="380.514816" y="152.928" style="fill-opacity: 0; stroke: #ff0000; stroke-width: 1.5; stroke-linejoin: miter"/>
    </g>
   </g>
   <g id="line2d_53">
    <path d="M 360.8064 6.912 
L 380.514816 82.84032 
" style="fill: none; stroke: #000080; stroke-width: 1.5; stroke-linecap: square"/>
    <g>
     <use xlink:href="#m632c00e372" x="360.8064" y="6.912" style="fill-opacity: 0; stroke: #000080; stroke-width: 1.5"/>
     <use xlink:href="#m632c00e372" x="380.514816" y="82.84032" style="fill-opacity: 0; stroke: #000080; stroke-width: 1.5"/>
    </g>
   </g>
   <g id="line2d_54">
    <path d="M 360.8064 6.912 
L 380.514816 12.75264 
" style="fill: none; stroke: #ff00ff; stroke-width: 1.5; stroke-linecap: square"/>
    <g>
     <use xlink:href="#mbf19ad3498" x="360.8064" y="6.912" style="fill-opacity: 0; stroke: #ff00ff; stroke-width: 1.5; stroke-linejoin: miter"/>
     <use xlink:href="#mbf19ad3498" x="380.514816" y="12.75264" style="fill-opacity: 0; stroke: #ff00ff; stroke-width: 1.5; stroke-linejoin: miter"/>
    </g>
   </g>
   <g id="line2d_55">
    <path d="M 360.8064 298.944 
L 360.8064 6.912 
" style="fill: none; stroke: #000000; stroke-width: 1.5; stroke-linecap: square"/>
   </g>
   <g id="patch_3">
    <path d="M 57.6 298.944 
L 360.8064 298.944 
" style="fill: none; stroke: #000000; stroke-width: 0.8; stroke-linejoin: miter; stroke-linecap: square"/>
   </g>
   <g id="patch_4">
    <path d="M 57.6 6.912 
L 360.8064 6.912 
" style="fill: none; stroke: #000000; stroke-width: 0.8; stroke-linejoin: miter; stroke-linecap: square"/>
   </g>
   <g id="text_13">
    <!-- f13 -->
    <g transform="translate(386.578944 296.966485)scale(0.14 -0.14)">
     <defs>
      <path id="DejaVuSans-33" d="M 2597 2516 
Q 3050 2419 3304 2112 
Q 3559 1806 3559 1356 
Q 3559 666 3084 287 
Q 2609 -91 1734 -91 
Q 1441 -91 1130 -33 
Q 819 25 488 141 
L 488 750 
Q 750 597 1062 519 
Q 1375 441 1716 441 
Q 2309 441 2620 675 
Q 2931 909 2931 1356 
Q 2931 1769 2642 2001 
Q 2353 2234 1838 2234 
L 1294 2234 
L 1294 2753 
L 1863 2753 
Q 2328 2753 2575 2939 
Q 2822 3125 2822 3475 
Q 2822 3834 2567 4026 
Q 2313 4219 1838 4219 
Q 1578 4219 1281 4162 
Q 984 4106 628 3988 
L 628 4550 
Q 988 4650 1302 4700 
Q 1616 4750 1894 4750 
Q 2613 4750 3031 4423 
Q 3450 4097 3450 3541 
Q 3450 3153 3228 2886 
Q 3006 2619 2597 2516 
z
" transform="scale(0.015625)"/>
     </defs>
     <use xlink:href="#DejaVuSans-66"/>
     <use xlink:href="#DejaVuSans-31" x="35.205078"/>
     <use xlink:href="#DejaVuSans-33" x="98.828125"/>
    </g>
   </g>
   <g id="text_14">
    <!-- f12 -->
    <g transform="translate(386.578944 226.878805)scale(0.14 -0.14)">
     <use xlink:href="#DejaVuSans-66"/>
     <use xlink:href="#DejaVuSans-31" x="35.205078"/>
     <use xlink:href="#DejaVuSans-32" x="98.828125"/>
    </g>
   </g>
   <g id="text_15">
    <!-- f14 -->
    <g transform="translate(386.578944 156.791125)scale(0.14 -0.14)">
     <use xlink:href="#DejaVuSans-66"/>
     <use xlink:href="#DejaVuSans-31" x="35.205078"/>
     <use xlink:href="#DejaVuSans-34" x="98.828125"/>
    </g>
   </g>
   <g id="text_16">
    <!-- f10 -->
    <g transform="translate(386.578944 86.703445)scale(0.14 -0.14)">
     <use xlink:href="#DejaVuSans-66"/>
     <use xlink:href="#DejaVuSans-31" x="35.205078"/>
     <use xlink:href="#DejaVuSans-30" x="98.828125"/>
    </g>
   </g>
   <g id="text_17">
    <!-- f11 -->
    <g transform="translate(386.578944 16.615765)scale(0.14 -0.14)">
     <use xlink:href="#DejaVuSans-66"/>
     <use xlink:href="#DejaVuSans-31" x="35.205078"/>
     <use xlink:href="#DejaVuSans-31" x="98.828125"/>
    </g>
   </g>
   <g id="text_18">
    <!-- bbob -->
    <g transform="translate(60.632064 17.582726)scale(0.102 -0.102)">
     <defs>
      <path id="DejaVuSans-62" d="M 3116 1747 
Q 3116 2381 2855 2742 
Q 2594 3103 2138 3103 
Q 1681 3103 1420 2742 
Q 1159 2381 1159 1747 
Q 1159 1113 1420 752 
Q 1681 391 2138 391 
Q 2594 391 2855 752 
Q 3116 1113 3116 1747 
z
M 1159 2969 
Q 1341 3281 1617 3432 
Q 1894 3584 2278 3584 
Q 2916 3584 3314 3078 
Q 3713 2572 3713 1747 
Q 3713 922 3314 415 
Q 2916 -91 2278 -91 
Q 1894 -91 1617 61 
Q 1341 213 1159 525 
L 1159 0 
L 581 0 
L 581 4863 
L 1159 4863 
L 1159 2969 
z
" transform="scale(0.015625)"/>
     </defs>
     <use xlink:href="#DejaVuSans-62"/>
     <use xlink:href="#DejaVuSans-62" x="63.476562"/>
     <use xlink:href="#DejaVuSans-6f" x="126.953125"/>
     <use xlink:href="#DejaVuSans-62" x="188.134766"/>
    </g>
    <!-- Ill-conditioned functions, 20-D -->
    <g transform="translate(60.632064 29.004495)scale(0.102 -0.102)">
     <defs>
      <path id="DejaVuSans-49" d="M 628 4666 
L 1259 4666 
L 1259 0 
L 628 0 
L 628 4666 
z
" transform="scale(0.015625)"/>
      <path id="DejaVuSans-44" d="M 1259 4147 
L 1259 519 
L 2022 519 
Q 2988 519 3436 956 
Q 3884 1394 3884 2338 
Q 3884 3275 3436 3711 
Q 2988 4147 2022 4147 
L 1259 4147 
z
M 628 4666 
L 1925 4666 
Q 3281 4666 3915 4102 
Q 4550 3538 4550 2338 
Q 4550 1131 3912 565 
Q 3275 0 1925 0 
L 628 0 
L 628 4666 
z
" transform="scale(0.015625)"/>
     </defs>
     <use xlink:href="#DejaVuSans-49"/>
     <use xlink:href="#DejaVuSans-6c" x="29.492188"/>
     <use xlink:href="#DejaVuSans-6c" x="57.275391"/>
     <use xlink:href="#DejaVuSans-2d" x="85.058594"/>
     <use xlink:href="#DejaVuSans-63" x="121.142578"/>
     <use xlink:href="#DejaVuSans-6f" x="176.123047"/>
     <use xlink:href="#DejaVuSans-6e" x="237.304688"/>
     <use xlink:href="#DejaVuSans-64" x="300.683594"/>
     <use xlink:href="#DejaVuSans-69" x="364.160156"/>
     <use xlink:href="#DejaVuSans-74" x="391.943359"/>
     <use xlink:href="#DejaVuSans-69" x="431.152344"/>
     <use xlink:href="#DejaVuSans-6f" x="458.935547"/>
     <use xlink:href="#DejaVuSans-6e" x="520.117188"/>
     <use xlink:href="#DejaVuSans-65" x="583.496094"/>
     <use xlink:href="#DejaVuSans-64" x="645.019531"/>
     <use xlink:href="#DejaVuSans-20" x="708.496094"/>
     <use xlink:href="#DejaVuSans-66" x="740.283203"/>
     <use xlink:href="#DejaVuSans-75" x="775.488281"/>
     <use xlink:href="#DejaVuSans-6e" x="838.867188"/>
     <use xlink:href="#DejaVuSans-63" x="902.246094"/>
     <use xlink:href="#DejaVuSans-74" x="957.226562"/>
     <use xlink:href="#DejaVuSans-69" x="996.435547"/>
     <use xlink:href="#DejaVuSans-6f" x="1024.21875"/>
     <use xlink:href="#DejaVuSans-6e" x="1085.400391"/>
     <use xlink:href="#DejaVuSans-73" x="1148.779297"/>
     <use xlink:href="#DejaVuSans-2c" x="1200.878906"/>
     <use xlink:href="#DejaVuSans-20" x="1232.666016"/>
     <use xlink:href="#DejaVuSans-32" x="1264.453125"/>
     <use xlink:href="#DejaVuSans-30" x="1328.076172"/>
     <use xlink:href="#DejaVuSans-2d" x="1391.699219"/>
     <use xlink:href="#DejaVuSans-44" x="1427.783203"/>
    </g>
    <!-- 51 targets: 100..1e-08 -->
    <g transform="translate(60.632064 40.426264)scale(0.102 -0.102)">
     <defs>
      <path id="DejaVuSans-35" d="M 691 4666 
L 3169 4666 
L 3169 4134 
L 1269 4134 
L 1269 2991 
Q 1406 3038 1543 3061 
Q 1681 3084 1819 3084 
Q 2600 3084 3056 2656 
Q 3513 2228 3513 1497 
Q 3513 744 3044 326 
Q 2575 -91 1722 -91 
Q 1428 -91 1123 -41 
Q 819 9 494 109 
L 494 744 
Q 775 591 1075 516 
Q 1375 441 1709 441 
Q 2250 441 2565 725 
Q 2881 1009 2881 1497 
Q 2881 1984 2565 2268 
Q 2250 2553 1709 2553 
Q 1456 2553 1204 2497 
Q 953 2441 691 2322 
L 691 4666 
z
" transform="scale(0.015625)"/>
      <path id="DejaVuSans-3a" d="M 750 794 
L 1409 794 
L 1409 0 
L 750 0 
L 750 794 
z
M 750 3309 
L 1409 3309 
L 1409 2516 
L 750 2516 
L 750 3309 
z
" transform="scale(0.015625)"/>
     </defs>
     <use xlink:href="#DejaVuSans-35"/>
     <use xlink:href="#DejaVuSans-31" x="63.623047"/>
     <use xlink:href="#DejaVuSans-20" x="127.246094"/>
     <use xlink:href="#DejaVuSans-74" x="159.033203"/>
     <use xlink:href="#DejaVuSans-61" x="198.242188"/>
     <use xlink:href="#DejaVuSans-72" x="259.521484"/>
     <use xlink:href="#DejaVuSans-67" x="298.884766"/>
     <use xlink:href="#DejaVuSans-65" x="362.361328"/>
     <use xlink:href="#DejaVuSans-74" x="423.884766"/>
     <use xlink:href="#DejaVuSans-73" x="463.09375"/>
     <use xlink:href="#DejaVuSans-3a" x="515.193359"/>
     <use xlink:href="#DejaVuSans-20" x="548.884766"/>
     <use xlink:href="#DejaVuSans-31" x="580.671875"/>
     <use xlink:href="#DejaVuSans-30" x="644.294922"/>
     <use xlink:href="#DejaVuSans-30" x="707.917969"/>
     <use xlink:href="#DejaVuSans-2e" x="771.541016"/>
     <use xlink:href="#DejaVuSans-2e" x="803.328125"/>
     <use xlink:href="#DejaVuSans-31" x="835.115234"/>
     <use xlink:href="#DejaVuSans-65" x="898.738281"/>
     <use xlink:href="#DejaVuSans-2d" x="960.261719"/>
     <use xlink:href="#DejaVuSans-30" x="996.345703"/>
     <use xlink:href="#DejaVuSans-38" x="1059.96875"/>
    </g>
    <!-- 5 instances -->
    <g transform="translate(60.632064 51.848032)scale(0.102 -0.102)">
     <use xlink:href="#DejaVuSans-35"/>
     <use xlink:href="#DejaVuSans-20" x="63.623047"/>
     <use xlink:href="#DejaVuSans-69" x="95.410156"/>
     <use xlink:href="#DejaVuSans-6e" x="123.193359"/>
     <use xlink:href="#DejaVuSans-73" x="186.572266"/>
     <use xlink:href="#DejaVuSans-74" x="238.671875"/>
     <use xlink:href="#DejaVuSans-61" x="277.880859"/>
     <use xlink:href="#DejaVuSans-6e" x="339.160156"/>
     <use xlink:href="#DejaVuSans-63" x="402.539062"/>
     <use xlink:href="#DejaVuSans-65" x="457.519531"/>
     <use xlink:href="#DejaVuSans-73" x="519.042969"/>
    </g>
   </g>
   <g id="text_19">
    <!-- v2.6 -->
    <g style="fill: #808080" transform="translate(198.292262 293.943992)scale(0.1 -0.1)">
     <use xlink:href="#DejaVuSans-76"/>
     <use xlink:href="#DejaVuSans-32" x="59.179688"/>
     <use xlink:href="#DejaVuSans-2e" x="122.802734"/>
     <use xlink:href="#DejaVuSans-36" x="154.589844"/>
    </g>
   </g>
  </g>
 </g>
 <defs>
  <clipPath id="pd83113bd98">
   <rect x="57.6" y="6.912" width="303.2064" height="292.032"/>
  </clipPath>
 </defs>
</svg>
