<?xml version="1.0" encoding="utf-8" standalone="no"?>
<!DOCTYPE svg PUBLIC "-//W3C//DTD SVG 1.1//EN"
  "http://www.w3.org/Graphics/SVG/1.1/DTD/svg11.dtd">
<svg xmlns:xlink="http://www.w3.org/1999/xlink" width="460.8pt" height="345.6pt" viewBox="0 0 460.8 345.6" xmlns="http://www.w3.org/2000/svg" version="1.1">
 <metadata>
  <rdf:RDF xmlns:dc="http://purl.org/dc/elements/1.1/" xmlns:cc="http://creativecommons.org/ns#" xmlns:rdf="http://www.w3.org/1999/02/22-rdf-syntax-ns#">
   <cc:Work>
    <dc:type rdf:resource="http://purl.org/dc/dcmitype/StillImage"/>
    <dc:date>2022-04-08T17:28:02.158550</dc:date>
    <dc:format>image/svg+xml</dc:format>
    <dc:creator>
     <cc:Agent>
      <dc:title>Matplotlib v3.5.1, https://matplotlib.org/</dc:title>
     </cc:Agent>
    </dc:creator>
   </cc:Work>
  </rdf:RDF>
 </metadata>
 <defs>
  <style type="text/css">*{stroke-linejoin: round; stroke-linecap: butt}</style>
 </defs>
 <g id="figure_1">
  <g id="patch_1">
   <path d="M 0 345.6 
L 460.8 345.6 
L 460.8 0 
L 0 0 
z
" style="fill: #ffffff"/>
  </g>
  <g id="axes_1">
   <g id="patch_2">
    <path d="M 57.6 298.944 
L 360.8064 298.944 
L 360.8064 27.648 
L 57.6 27.648 
z
" style="fill: #ffffff"/>
   </g>
   <g id="line2d_1">
    <path d="M 114.82735 298.944 
L 114.82735 293.624471 
L 118.634901 293.624471 
L 118.634901 288.304941 
L 121.329295 288.304941 
L 121.329295 282.985412 
L 124.265389 282.985412 
L 124.265389 277.665882 
L 138.438609 277.665882 
L 138.438609 272.346353 
L 144.593695 272.346353 
L 144.593695 267.026824 
L 147.248088 267.026824 
L 147.248088 261.707294 
L 155.407382 261.707294 
L 155.407382 256.387765 
L 156.005274 256.387765 
L 156.005274 251.068235 
L 156.393565 251.068235 
L 156.393565 245.748706 
L 156.652904 245.748706 
L 156.652904 240.429176 
L 156.875128 240.429176 
L 156.875128 235.109647 
L 157.061501 235.109647 
L 157.061501 229.790118 
L 157.217771 229.790118 
L 157.217771 224.470588 
L 157.354037 224.470588 
L 157.354037 219.151059 
L 157.456756 219.151059 
L 157.456756 213.831529 
L 157.563547 213.831529 
L 157.563547 208.512 
L 157.67434 208.512 
L 157.67434 203.192471 
L 157.775329 203.192471 
L 157.775329 197.872941 
L 157.871225 197.872941 
L 157.871225 192.553412 
L 157.953034 192.553412 
L 157.953034 187.233882 
L 158.016419 187.233882 
L 158.016419 181.914353 
L 158.088598 181.914353 
L 158.088598 176.594824 
L 158.14255 176.594824 
L 158.14255 171.275294 
L 158.214248 171.275294 
L 158.214248 165.955765 
L 158.272301 165.955765 
L 158.272301 160.636235 
L 158.343507 160.636235 
L 158.343507 155.316706 
L 158.387873 155.316706 
L 158.387873 149.997176 
L 158.445394 149.997176 
L 158.445394 144.677647 
L 158.52035 144.677647 
L 158.52035 139.358118 
L 158.590624 139.358118 
L 158.590624 134.038588 
L 158.66937 134.038588 
L 158.66937 128.719059 
L 158.752135 128.719059 
L 158.752135 123.399529 
L 158.81722 123.399529 
L 158.81722 118.08 
L 158.886396 118.08 
L 158.886396 112.760471 
L 158.938111 112.760471 
L 158.938111 107.440941 
L 158.97251 107.440941 
L 158.97251 102.121412 
L 159.023989 102.121412 
L 159.023989 96.801882 
L 159.088142 96.801882 
L 159.088142 91.482353 
L 159.139306 91.482353 
L 159.139306 86.162824 
L 159.194578 86.162824 
L 159.194578 80.843294 
L 159.236985 80.843294 
L 159.236985 75.523765 
L 159.287747 75.523765 
L 159.287747 70.204235 
L 159.329944 70.204235 
L 159.329944 64.884706 
L 159.376252 64.884706 
L 159.376252 59.565176 
L 159.418251 59.565176 
L 159.418251 54.245647 
L 159.468527 54.245647 
L 159.468527 48.926118 
L 159.510322 48.926118 
L 159.510322 43.606588 
L 159.560352 43.606588 
L 159.560352 38.287059 
L 159.61025 38.287059 
L 159.61025 32.967529 
L 159.651731 32.967529 
L 159.651731 27.648 
L 360.8064 27.648 
" style="fill: none; stroke: #f5deb3; stroke-width: 4; stroke-linecap: square"/>
   </g>
   <g id="line2d_2">
    <defs>
     <path id="mdd38d662ce" d="M -0 7.778175 
L 7.778175 0 
L 0 -7.778175 
L -7.778175 -0 
z
" style="stroke: #f5deb3; stroke-width: 1.5; stroke-linejoin: miter"/>
    </defs>
    <g>
     <use xlink:href="#mdd38d662ce" x="158.52035" y="144.677647" style="fill: #f5deb3; stroke: #f5deb3; stroke-width: 1.5; stroke-linejoin: miter"/>
     <use xlink:href="#mdd38d662ce" x="159.651731" y="32.967529" style="fill: #f5deb3; stroke: #f5deb3; stroke-width: 1.5; stroke-linejoin: miter"/>
     <use xlink:href="#mdd38d662ce" x="159.651731" y="27.648" style="fill: #f5deb3; stroke: #f5deb3; stroke-width: 1.5; stroke-linejoin: miter"/>
     <use xlink:href="#mdd38d662ce" x="159.651731" y="27.648" style="fill: #f5deb3; stroke: #f5deb3; stroke-width: 1.5; stroke-linejoin: miter"/>
     <use xlink:href="#mdd38d662ce" x="360.8064" y="27.648" style="fill: #f5deb3; stroke: #f5deb3; stroke-width: 1.5; stroke-linejoin: miter"/>
    </g>
   </g>
   <g id="line2d_3">
    <path style="fill: none; stroke: #f5deb3; stroke-width: 4; stroke-linecap: square"/>
    <g/>
   </g>
   <g id="line2d_4">
    <path d="M 360.8064 27.648 
L 380.514816 33.07392 
" style="fill: none; stroke: #f5deb3; stroke-width: 4; stroke-linecap: square"/>
    <g>
     <use xlink:href="#mdd38d662ce" x="360.8064" y="27.648" style="fill: #f5deb3; stroke: #f5deb3; stroke-width: 1.5; stroke-linejoin: miter"/>
     <use xlink:href="#mdd38d662ce" x="380.514816" y="33.07392" style="fill: #f5deb3; stroke: #f5deb3; stroke-width: 1.5; stroke-linejoin: miter"/>
    </g>
   </g>
   <g id="matplotlib.axis_1">
    <g id="xtick_1">
     <g id="line2d_5">
      <path d="M 57.6 298.944 
L 57.6 27.648 
" clip-path="url(#p435503a7d8)" style="fill: none; stroke: #b0b0b0; stroke-width: 0.8; stroke-linecap: square"/>
     </g>
     <g id="line2d_6">
      <defs>
       <path id="mc524af0fc8" d="M 0 0 
L 0 3.5 
" style="stroke: #000000; stroke-width: 0.8"/>
      </defs>
      <g>
       <use xlink:href="#mc524af0fc8" x="57.6" y="298.944" style="stroke: #000000; stroke-width: 0.8"/>
      </g>
     </g>
     <g id="text_1">
      <!-- 0 -->
      <g transform="translate(52.191875 318.861344)scale(0.17 -0.17)">
       <defs>
        <path id="DejaVuSans-30" d="M 2034 4250 
Q 1547 4250 1301 3770 
Q 1056 3291 1056 2328 
Q 1056 1369 1301 889 
Q 1547 409 2034 409 
Q 2525 409 2770 889 
Q 3016 1369 3016 2328 
Q 3016 3291 2770 3770 
Q 2525 4250 2034 4250 
z
M 2034 4750 
Q 2819 4750 3233 4129 
Q 3647 3509 3647 2328 
Q 3647 1150 3233 529 
Q 2819 -91 2034 -91 
Q 1250 -91 836 529 
Q 422 1150 422 2328 
Q 422 3509 836 4129 
Q 1250 4750 2034 4750 
z
" transform="scale(0.015625)"/>
       </defs>
       <use xlink:href="#DejaVuSans-30"/>
      </g>
     </g>
    </g>
    <g id="xtick_2">
     <g id="line2d_7">
      <path d="M 144.2304 298.944 
L 144.2304 27.648 
" clip-path="url(#p435503a7d8)" style="fill: none; stroke: #b0b0b0; stroke-width: 0.8; stroke-linecap: square"/>
     </g>
     <g id="line2d_8">
      <g>
       <use xlink:href="#mc524af0fc8" x="144.2304" y="298.944" style="stroke: #000000; stroke-width: 0.8"/>
      </g>
     </g>
     <g id="text_2">
      <!-- 2 -->
      <g transform="translate(138.822275 318.861344)scale(0.17 -0.17)">
       <defs>
        <path id="DejaVuSans-32" d="M 1228 531 
L 3431 531 
L 3431 0 
L 469 0 
L 469 531 
Q 828 903 1448 1529 
Q 2069 2156 2228 2338 
Q 2531 2678 2651 2914 
Q 2772 3150 2772 3378 
Q 2772 3750 2511 3984 
Q 2250 4219 1831 4219 
Q 1534 4219 1204 4116 
Q 875 4013 500 3803 
L 500 4441 
Q 881 4594 1212 4672 
Q 1544 4750 1819 4750 
Q 2544 4750 2975 4387 
Q 3406 4025 3406 3419 
Q 3406 3131 3298 2873 
Q 3191 2616 2906 2266 
Q 2828 2175 2409 1742 
Q 1991 1309 1228 531 
z
" transform="scale(0.015625)"/>
       </defs>
       <use xlink:href="#DejaVuSans-32"/>
      </g>
     </g>
    </g>
    <g id="xtick_3">
     <g id="line2d_9">
      <path d="M 230.8608 298.944 
L 230.8608 27.648 
" clip-path="url(#p435503a7d8)" style="fill: none; stroke: #b0b0b0; stroke-width: 0.8; stroke-linecap: square"/>
     </g>
     <g id="line2d_10">
      <g>
       <use xlink:href="#mc524af0fc8" x="230.8608" y="298.944" style="stroke: #000000; stroke-width: 0.8"/>
      </g>
     </g>
     <g id="text_3">
      <!-- 4 -->
      <g transform="translate(225.452675 318.861344)scale(0.17 -0.17)">
       <defs>
        <path id="DejaVuSans-34" d="M 2419 4116 
L 825 1625 
L 2419 1625 
L 2419 4116 
z
M 2253 4666 
L 3047 4666 
L 3047 1625 
L 3713 1625 
L 3713 1100 
L 3047 1100 
L 3047 0 
L 2419 0 
L 2419 1100 
L 313 1100 
L 313 1709 
L 2253 4666 
z
" transform="scale(0.015625)"/>
       </defs>
       <use xlink:href="#DejaVuSans-34"/>
      </g>
     </g>
    </g>
    <g id="xtick_4">
     <g id="line2d_11">
      <path d="M 317.4912 298.944 
L 317.4912 27.648 
" clip-path="url(#p435503a7d8)" style="fill: none; stroke: #b0b0b0; stroke-width: 0.8; stroke-linecap: square"/>
     </g>
     <g id="line2d_12">
      <g>
       <use xlink:href="#mc524af0fc8" x="317.4912" y="298.944" style="stroke: #000000; stroke-width: 0.8"/>
      </g>
     </g>
     <g id="text_4">
      <!-- 6 -->
      <g transform="translate(312.083075 318.861344)scale(0.17 -0.17)">
       <defs>
        <path id="DejaVuSans-36" d="M 2113 2584 
Q 1688 2584 1439 2293 
Q 1191 2003 1191 1497 
Q 1191 994 1439 701 
Q 1688 409 2113 409 
Q 2538 409 2786 701 
Q 3034 994 3034 1497 
Q 3034 2003 2786 2293 
Q 2538 2584 2113 2584 
z
M 3366 4563 
L 3366 3988 
Q 3128 4100 2886 4159 
Q 2644 4219 2406 4219 
Q 1781 4219 1451 3797 
Q 1122 3375 1075 2522 
Q 1259 2794 1537 2939 
Q 1816 3084 2150 3084 
Q 2853 3084 3261 2657 
Q 3669 2231 3669 1497 
Q 3669 778 3244 343 
Q 2819 -91 2113 -91 
Q 1303 -91 875 529 
Q 447 1150 447 2328 
Q 447 3434 972 4092 
Q 1497 4750 2381 4750 
Q 2619 4750 2861 4703 
Q 3103 4656 3366 4563 
z
" transform="scale(0.015625)"/>
       </defs>
       <use xlink:href="#DejaVuSans-36"/>
      </g>
     </g>
    </g>
    <g id="xtick_5">
     <g id="line2d_13">
      <path d="M 100.9152 298.944 
L 100.9152 27.648 
" clip-path="url(#p435503a7d8)" style="fill: none; stroke: #b0b0b0; stroke-width: 0.8; stroke-linecap: square"/>
     </g>
     <g id="line2d_14">
      <defs>
       <path id="m7a2f69e611" d="M 0 0 
L 0 2 
" style="stroke: #000000; stroke-width: 0.6"/>
      </defs>
      <g>
       <use xlink:href="#m7a2f69e611" x="100.9152" y="298.944" style="stroke: #000000; stroke-width: 0.6"/>
      </g>
     </g>
    </g>
    <g id="xtick_6">
     <g id="line2d_15">
      <path d="M 187.5456 298.944 
L 187.5456 27.648 
" clip-path="url(#p435503a7d8)" style="fill: none; stroke: #b0b0b0; stroke-width: 0.8; stroke-linecap: square"/>
     </g>
     <g id="line2d_16">
      <g>
       <use xlink:href="#m7a2f69e611" x="187.5456" y="298.944" style="stroke: #000000; stroke-width: 0.6"/>
      </g>
     </g>
    </g>
    <g id="xtick_7">
     <g id="line2d_17">
      <path d="M 274.176 298.944 
L 274.176 27.648 
" clip-path="url(#p435503a7d8)" style="fill: none; stroke: #b0b0b0; stroke-width: 0.8; stroke-linecap: square"/>
     </g>
     <g id="line2d_18">
      <g>
       <use xlink:href="#m7a2f69e611" x="274.176" y="298.944" style="stroke: #000000; stroke-width: 0.6"/>
      </g>
     </g>
    </g>
    <g id="xtick_8">
     <g id="line2d_19">
      <path d="M 360.8064 298.944 
L 360.8064 27.648 
" clip-path="url(#p435503a7d8)" style="fill: none; stroke: #b0b0b0; stroke-width: 0.8; stroke-linecap: square"/>
     </g>
     <g id="line2d_20">
      <g>
       <use xlink:href="#m7a2f69e611" x="360.8064" y="298.944" style="stroke: #000000; stroke-width: 0.6"/>
      </g>
     </g>
    </g>
    <g id="text_5">
     <!-- log10(# f-evals / dimension) -->
     <g transform="translate(88.823278 339.314156)scale(0.17 -0.17)">
      <defs>
       <path id="DejaVuSans-6c" d="M 603 4863 
L 1178 4863 
L 1178 0 
L 603 0 
L 603 4863 
z
" transform="scale(0.015625)"/>
       <path id="DejaVuSans-6f" d="M 1959 3097 
Q 1497 3097 1228 2736 
Q 959 2375 959 1747 
Q 959 1119 1226 758 
Q 1494 397 1959 397 
Q 2419 397 2687 759 
Q 2956 1122 2956 1747 
Q 2956 2369 2687 2733 
Q 2419 3097 1959 3097 
z
M 1959 3584 
Q 2709 3584 3137 3096 
Q 3566 2609 3566 1747 
Q 3566 888 3137 398 
Q 2709 -91 1959 -91 
Q 1206 -91 779 398 
Q 353 888 353 1747 
Q 353 2609 779 3096 
Q 1206 3584 1959 3584 
z
" transform="scale(0.015625)"/>
       <path id="DejaVuSans-67" d="M 2906 1791 
Q 2906 2416 2648 2759 
Q 2391 3103 1925 3103 
Q 1463 3103 1205 2759 
Q 947 2416 947 1791 
Q 947 1169 1205 825 
Q 1463 481 1925 481 
Q 2391 481 2648 825 
Q 2906 1169 2906 1791 
z
M 3481 434 
Q 3481 -459 3084 -895 
Q 2688 -1331 1869 -1331 
Q 1566 -1331 1297 -1286 
Q 1028 -1241 775 -1147 
L 775 -588 
Q 1028 -725 1275 -790 
Q 1522 -856 1778 -856 
Q 2344 -856 2625 -561 
Q 2906 -266 2906 331 
L 2906 616 
Q 2728 306 2450 153 
Q 2172 0 1784 0 
Q 1141 0 747 490 
Q 353 981 353 1791 
Q 353 2603 747 3093 
Q 1141 3584 1784 3584 
Q 2172 3584 2450 3431 
Q 2728 3278 2906 2969 
L 2906 3500 
L 3481 3500 
L 3481 434 
z
" transform="scale(0.015625)"/>
       <path id="DejaVuSans-31" d="M 794 531 
L 1825 531 
L 1825 4091 
L 703 3866 
L 703 4441 
L 1819 4666 
L 2450 4666 
L 2450 531 
L 3481 531 
L 3481 0 
L 794 0 
L 794 531 
z
" transform="scale(0.015625)"/>
       <path id="DejaVuSans-28" d="M 1984 4856 
Q 1566 4138 1362 3434 
Q 1159 2731 1159 2009 
Q 1159 1288 1364 580 
Q 1569 -128 1984 -844 
L 1484 -844 
Q 1016 -109 783 600 
Q 550 1309 550 2009 
Q 550 2706 781 3412 
Q 1013 4119 1484 4856 
L 1984 4856 
z
" transform="scale(0.015625)"/>
       <path id="DejaVuSans-23" d="M 3272 2816 
L 2363 2816 
L 2100 1772 
L 3016 1772 
L 3272 2816 
z
M 2803 4594 
L 2478 3297 
L 3391 3297 
L 3719 4594 
L 4219 4594 
L 3897 3297 
L 4872 3297 
L 4872 2816 
L 3775 2816 
L 3519 1772 
L 4513 1772 
L 4513 1294 
L 3397 1294 
L 3072 0 
L 2572 0 
L 2894 1294 
L 1978 1294 
L 1656 0 
L 1153 0 
L 1478 1294 
L 494 1294 
L 494 1772 
L 1594 1772 
L 1856 2816 
L 850 2816 
L 850 3297 
L 1978 3297 
L 2297 4594 
L 2803 4594 
z
" transform="scale(0.015625)"/>
       <path id="DejaVuSans-20" transform="scale(0.015625)"/>
       <path id="DejaVuSans-66" d="M 2375 4863 
L 2375 4384 
L 1825 4384 
Q 1516 4384 1395 4259 
Q 1275 4134 1275 3809 
L 1275 3500 
L 2222 3500 
L 2222 3053 
L 1275 3053 
L 1275 0 
L 697 0 
L 697 3053 
L 147 3053 
L 147 3500 
L 697 3500 
L 697 3744 
Q 697 4328 969 4595 
Q 1241 4863 1831 4863 
L 2375 4863 
z
" transform="scale(0.015625)"/>
       <path id="DejaVuSans-2d" d="M 313 2009 
L 1997 2009 
L 1997 1497 
L 313 1497 
L 313 2009 
z
" transform="scale(0.015625)"/>
       <path id="DejaVuSans-65" d="M 3597 1894 
L 3597 1613 
L 953 1613 
Q 991 1019 1311 708 
Q 1631 397 2203 397 
Q 2534 397 2845 478 
Q 3156 559 3463 722 
L 3463 178 
Q 3153 47 2828 -22 
Q 2503 -91 2169 -91 
Q 1331 -91 842 396 
Q 353 884 353 1716 
Q 353 2575 817 3079 
Q 1281 3584 2069 3584 
Q 2775 3584 3186 3129 
Q 3597 2675 3597 1894 
z
M 3022 2063 
Q 3016 2534 2758 2815 
Q 2500 3097 2075 3097 
Q 1594 3097 1305 2825 
Q 1016 2553 972 2059 
L 3022 2063 
z
" transform="scale(0.015625)"/>
       <path id="DejaVuSans-76" d="M 191 3500 
L 800 3500 
L 1894 563 
L 2988 3500 
L 3597 3500 
L 2284 0 
L 1503 0 
L 191 3500 
z
" transform="scale(0.015625)"/>
       <path id="DejaVuSans-61" d="M 2194 1759 
Q 1497 1759 1228 1600 
Q 959 1441 959 1056 
Q 959 750 1161 570 
Q 1363 391 1709 391 
Q 2188 391 2477 730 
Q 2766 1069 2766 1631 
L 2766 1759 
L 2194 1759 
z
M 3341 1997 
L 3341 0 
L 2766 0 
L 2766 531 
Q 2569 213 2275 61 
Q 1981 -91 1556 -91 
Q 1019 -91 701 211 
Q 384 513 384 1019 
Q 384 1609 779 1909 
Q 1175 2209 1959 2209 
L 2766 2209 
L 2766 2266 
Q 2766 2663 2505 2880 
Q 2244 3097 1772 3097 
Q 1472 3097 1187 3025 
Q 903 2953 641 2809 
L 641 3341 
Q 956 3463 1253 3523 
Q 1550 3584 1831 3584 
Q 2591 3584 2966 3190 
Q 3341 2797 3341 1997 
z
" transform="scale(0.015625)"/>
       <path id="DejaVuSans-73" d="M 2834 3397 
L 2834 2853 
Q 2591 2978 2328 3040 
Q 2066 3103 1784 3103 
Q 1356 3103 1142 2972 
Q 928 2841 928 2578 
Q 928 2378 1081 2264 
Q 1234 2150 1697 2047 
L 1894 2003 
Q 2506 1872 2764 1633 
Q 3022 1394 3022 966 
Q 3022 478 2636 193 
Q 2250 -91 1575 -91 
Q 1294 -91 989 -36 
Q 684 19 347 128 
L 347 722 
Q 666 556 975 473 
Q 1284 391 1588 391 
Q 1994 391 2212 530 
Q 2431 669 2431 922 
Q 2431 1156 2273 1281 
Q 2116 1406 1581 1522 
L 1381 1569 
Q 847 1681 609 1914 
Q 372 2147 372 2553 
Q 372 3047 722 3315 
Q 1072 3584 1716 3584 
Q 2034 3584 2315 3537 
Q 2597 3491 2834 3397 
z
" transform="scale(0.015625)"/>
       <path id="DejaVuSans-2f" d="M 1625 4666 
L 2156 4666 
L 531 -594 
L 0 -594 
L 1625 4666 
z
" transform="scale(0.015625)"/>
       <path id="DejaVuSans-64" d="M 2906 2969 
L 2906 4863 
L 3481 4863 
L 3481 0 
L 2906 0 
L 2906 525 
Q 2725 213 2448 61 
Q 2172 -91 1784 -91 
Q 1150 -91 751 415 
Q 353 922 353 1747 
Q 353 2572 751 3078 
Q 1150 3584 1784 3584 
Q 2172 3584 2448 3432 
Q 2725 3281 2906 2969 
z
M 947 1747 
Q 947 1113 1208 752 
Q 1469 391 1925 391 
Q 2381 391 2643 752 
Q 2906 1113 2906 1747 
Q 2906 2381 2643 2742 
Q 2381 3103 1925 3103 
Q 1469 3103 1208 2742 
Q 947 2381 947 1747 
z
" transform="scale(0.015625)"/>
       <path id="DejaVuSans-69" d="M 603 3500 
L 1178 3500 
L 1178 0 
L 603 0 
L 603 3500 
z
M 603 4863 
L 1178 4863 
L 1178 4134 
L 603 4134 
L 603 4863 
z
" transform="scale(0.015625)"/>
       <path id="DejaVuSans-6d" d="M 3328 2828 
Q 3544 3216 3844 3400 
Q 4144 3584 4550 3584 
Q 5097 3584 5394 3201 
Q 5691 2819 5691 2113 
L 5691 0 
L 5113 0 
L 5113 2094 
Q 5113 2597 4934 2840 
Q 4756 3084 4391 3084 
Q 3944 3084 3684 2787 
Q 3425 2491 3425 1978 
L 3425 0 
L 2847 0 
L 2847 2094 
Q 2847 2600 2669 2842 
Q 2491 3084 2119 3084 
Q 1678 3084 1418 2786 
Q 1159 2488 1159 1978 
L 1159 0 
L 581 0 
L 581 3500 
L 1159 3500 
L 1159 2956 
Q 1356 3278 1631 3431 
Q 1906 3584 2284 3584 
Q 2666 3584 2933 3390 
Q 3200 3197 3328 2828 
z
" transform="scale(0.015625)"/>
       <path id="DejaVuSans-6e" d="M 3513 2113 
L 3513 0 
L 2938 0 
L 2938 2094 
Q 2938 2591 2744 2837 
Q 2550 3084 2163 3084 
Q 1697 3084 1428 2787 
Q 1159 2491 1159 1978 
L 1159 0 
L 581 0 
L 581 3500 
L 1159 3500 
L 1159 2956 
Q 1366 3272 1645 3428 
Q 1925 3584 2291 3584 
Q 2894 3584 3203 3211 
Q 3513 2838 3513 2113 
z
" transform="scale(0.015625)"/>
       <path id="DejaVuSans-29" d="M 513 4856 
L 1013 4856 
Q 1481 4119 1714 3412 
Q 1947 2706 1947 2009 
Q 1947 1309 1714 600 
Q 1481 -109 1013 -844 
L 513 -844 
Q 928 -128 1133 580 
Q 1338 1288 1338 2009 
Q 1338 2731 1133 3434 
Q 928 4138 513 4856 
z
" transform="scale(0.015625)"/>
      </defs>
      <use xlink:href="#DejaVuSans-6c"/>
      <use xlink:href="#DejaVuSans-6f" x="27.783203"/>
      <use xlink:href="#DejaVuSans-67" x="88.964844"/>
      <use xlink:href="#DejaVuSans-31" x="152.441406"/>
      <use xlink:href="#DejaVuSans-30" x="216.064453"/>
      <use xlink:href="#DejaVuSans-28" x="279.6875"/>
      <use xlink:href="#DejaVuSans-23" x="318.701172"/>
      <use xlink:href="#DejaVuSans-20" x="402.490234"/>
      <use xlink:href="#DejaVuSans-66" x="434.277344"/>
      <use xlink:href="#DejaVuSans-2d" x="463.982422"/>
      <use xlink:href="#DejaVuSans-65" x="500.066406"/>
      <use xlink:href="#DejaVuSans-76" x="561.589844"/>
      <use xlink:href="#DejaVuSans-61" x="620.769531"/>
      <use xlink:href="#DejaVuSans-6c" x="682.048828"/>
      <use xlink:href="#DejaVuSans-73" x="709.832031"/>
      <use xlink:href="#DejaVuSans-20" x="761.931641"/>
      <use xlink:href="#DejaVuSans-2f" x="793.71875"/>
      <use xlink:href="#DejaVuSans-20" x="827.410156"/>
      <use xlink:href="#DejaVuSans-64" x="859.197266"/>
      <use xlink:href="#DejaVuSans-69" x="922.673828"/>
      <use xlink:href="#DejaVuSans-6d" x="950.457031"/>
      <use xlink:href="#DejaVuSans-65" x="1047.869141"/>
      <use xlink:href="#DejaVuSans-6e" x="1109.392578"/>
      <use xlink:href="#DejaVuSans-73" x="1172.771484"/>
      <use xlink:href="#DejaVuSans-69" x="1224.871094"/>
      <use xlink:href="#DejaVuSans-6f" x="1252.654297"/>
      <use xlink:href="#DejaVuSans-6e" x="1313.835938"/>
      <use xlink:href="#DejaVuSans-29" x="1377.214844"/>
     </g>
    </g>
   </g>
   <g id="matplotlib.axis_2">
    <g id="ytick_1">
     <g id="line2d_21">
      <path d="M 57.6 298.944 
L 360.8064 298.944 
" clip-path="url(#p435503a7d8)" style="fill: none; stroke: #b0b0b0; stroke-width: 0.8; stroke-linecap: square"/>
     </g>
     <g id="line2d_22">
      <defs>
       <path id="m11ee71c4f0" d="M 0 0 
L -3.5 0 
" style="stroke: #000000; stroke-width: 0.8"/>
      </defs>
      <g>
       <use xlink:href="#m11ee71c4f0" x="57.6" y="298.944" style="stroke: #000000; stroke-width: 0.8"/>
      </g>
     </g>
     <g id="text_6">
      <!-- 0.0 -->
      <g transform="translate(25.155 305.02275)scale(0.16 -0.16)">
       <defs>
        <path id="DejaVuSans-2e" d="M 684 794 
L 1344 794 
L 1344 0 
L 684 0 
L 684 794 
z
" transform="scale(0.015625)"/>
       </defs>
       <use xlink:href="#DejaVuSans-30"/>
       <use xlink:href="#DejaVuSans-2e" x="63.623047"/>
       <use xlink:href="#DejaVuSans-30" x="95.410156"/>
      </g>
     </g>
    </g>
    <g id="ytick_2">
     <g id="line2d_23">
      <path d="M 57.6 244.6848 
L 360.8064 244.6848 
" clip-path="url(#p435503a7d8)" style="fill: none; stroke: #b0b0b0; stroke-width: 0.8; stroke-linecap: square"/>
     </g>
     <g id="line2d_24">
      <g>
       <use xlink:href="#m11ee71c4f0" x="57.6" y="244.6848" style="stroke: #000000; stroke-width: 0.8"/>
      </g>
     </g>
     <g id="text_7">
      <!-- 0.2 -->
      <g transform="translate(25.155 250.76355)scale(0.16 -0.16)">
       <use xlink:href="#DejaVuSans-30"/>
       <use xlink:href="#DejaVuSans-2e" x="63.623047"/>
       <use xlink:href="#DejaVuSans-32" x="95.410156"/>
      </g>
     </g>
    </g>
    <g id="ytick_3">
     <g id="line2d_25">
      <path d="M 57.6 190.4256 
L 360.8064 190.4256 
" clip-path="url(#p435503a7d8)" style="fill: none; stroke: #b0b0b0; stroke-width: 0.8; stroke-linecap: square"/>
     </g>
     <g id="line2d_26">
      <g>
       <use xlink:href="#m11ee71c4f0" x="57.6" y="190.4256" style="stroke: #000000; stroke-width: 0.8"/>
      </g>
     </g>
     <g id="text_8">
      <!-- 0.4 -->
      <g transform="translate(25.155 196.50435)scale(0.16 -0.16)">
       <use xlink:href="#DejaVuSans-30"/>
       <use xlink:href="#DejaVuSans-2e" x="63.623047"/>
       <use xlink:href="#DejaVuSans-34" x="95.410156"/>
      </g>
     </g>
    </g>
    <g id="ytick_4">
     <g id="line2d_27">
      <path d="M 57.6 136.1664 
L 360.8064 136.1664 
" clip-path="url(#p435503a7d8)" style="fill: none; stroke: #b0b0b0; stroke-width: 0.8; stroke-linecap: square"/>
     </g>
     <g id="line2d_28">
      <g>
       <use xlink:href="#m11ee71c4f0" x="57.6" y="136.1664" style="stroke: #000000; stroke-width: 0.8"/>
      </g>
     </g>
     <g id="text_9">
      <!-- 0.6 -->
      <g transform="translate(25.155 142.24515)scale(0.16 -0.16)">
       <use xlink:href="#DejaVuSans-30"/>
       <use xlink:href="#DejaVuSans-2e" x="63.623047"/>
       <use xlink:href="#DejaVuSans-36" x="95.410156"/>
      </g>
     </g>
    </g>
    <g id="ytick_5">
     <g id="line2d_29">
      <path d="M 57.6 81.9072 
L 360.8064 81.9072 
" clip-path="url(#p435503a7d8)" style="fill: none; stroke: #b0b0b0; stroke-width: 0.8; stroke-linecap: square"/>
     </g>
     <g id="line2d_30">
      <g>
       <use xlink:href="#m11ee71c4f0" x="57.6" y="81.9072" style="stroke: #000000; stroke-width: 0.8"/>
      </g>
     </g>
     <g id="text_10">
      <!-- 0.8 -->
      <g transform="translate(25.155 87.98595)scale(0.16 -0.16)">
       <defs>
        <path id="DejaVuSans-38" d="M 2034 2216 
Q 1584 2216 1326 1975 
Q 1069 1734 1069 1313 
Q 1069 891 1326 650 
Q 1584 409 2034 409 
Q 2484 409 2743 651 
Q 3003 894 3003 1313 
Q 3003 1734 2745 1975 
Q 2488 2216 2034 2216 
z
M 1403 2484 
Q 997 2584 770 2862 
Q 544 3141 544 3541 
Q 544 4100 942 4425 
Q 1341 4750 2034 4750 
Q 2731 4750 3128 4425 
Q 3525 4100 3525 3541 
Q 3525 3141 3298 2862 
Q 3072 2584 2669 2484 
Q 3125 2378 3379 2068 
Q 3634 1759 3634 1313 
Q 3634 634 3220 271 
Q 2806 -91 2034 -91 
Q 1263 -91 848 271 
Q 434 634 434 1313 
Q 434 1759 690 2068 
Q 947 2378 1403 2484 
z
M 1172 3481 
Q 1172 3119 1398 2916 
Q 1625 2713 2034 2713 
Q 2441 2713 2670 2916 
Q 2900 3119 2900 3481 
Q 2900 3844 2670 4047 
Q 2441 4250 2034 4250 
Q 1625 4250 1398 4047 
Q 1172 3844 1172 3481 
z
" transform="scale(0.015625)"/>
       </defs>
       <use xlink:href="#DejaVuSans-30"/>
       <use xlink:href="#DejaVuSans-2e" x="63.623047"/>
       <use xlink:href="#DejaVuSans-38" x="95.410156"/>
      </g>
     </g>
    </g>
    <g id="ytick_6">
     <g id="line2d_31">
      <path d="M 57.6 27.648 
L 360.8064 27.648 
" clip-path="url(#p435503a7d8)" style="fill: none; stroke: #b0b0b0; stroke-width: 0.8; stroke-linecap: square"/>
     </g>
     <g id="line2d_32">
      <g>
       <use xlink:href="#m11ee71c4f0" x="57.6" y="27.648" style="stroke: #000000; stroke-width: 0.8"/>
      </g>
     </g>
     <g id="text_11">
      <!-- 1.0 -->
      <g transform="translate(25.155 33.72675)scale(0.16 -0.16)">
       <use xlink:href="#DejaVuSans-31"/>
       <use xlink:href="#DejaVuSans-2e" x="63.623047"/>
       <use xlink:href="#DejaVuSans-30" x="95.410156"/>
      </g>
     </g>
    </g>
    <g id="text_12">
     <!-- Fraction of function,target pairs -->
     <g transform="translate(17.619531 297.681)rotate(-90)scale(0.17 -0.17)">
      <defs>
       <path id="DejaVuSans-46" d="M 628 4666 
L 3309 4666 
L 3309 4134 
L 1259 4134 
L 1259 2759 
L 3109 2759 
L 3109 2228 
L 1259 2228 
L 1259 0 
L 628 0 
L 628 4666 
z
" transform="scale(0.015625)"/>
       <path id="DejaVuSans-72" d="M 2631 2963 
Q 2534 3019 2420 3045 
Q 2306 3072 2169 3072 
Q 1681 3072 1420 2755 
Q 1159 2438 1159 1844 
L 1159 0 
L 581 0 
L 581 3500 
L 1159 3500 
L 1159 2956 
Q 1341 3275 1631 3429 
Q 1922 3584 2338 3584 
Q 2397 3584 2469 3576 
Q 2541 3569 2628 3553 
L 2631 2963 
z
" transform="scale(0.015625)"/>
       <path id="DejaVuSans-63" d="M 3122 3366 
L 3122 2828 
Q 2878 2963 2633 3030 
Q 2388 3097 2138 3097 
Q 1578 3097 1268 2742 
Q 959 2388 959 1747 
Q 959 1106 1268 751 
Q 1578 397 2138 397 
Q 2388 397 2633 464 
Q 2878 531 3122 666 
L 3122 134 
Q 2881 22 2623 -34 
Q 2366 -91 2075 -91 
Q 1284 -91 818 406 
Q 353 903 353 1747 
Q 353 2603 823 3093 
Q 1294 3584 2113 3584 
Q 2378 3584 2631 3529 
Q 2884 3475 3122 3366 
z
" transform="scale(0.015625)"/>
       <path id="DejaVuSans-74" d="M 1172 4494 
L 1172 3500 
L 2356 3500 
L 2356 3053 
L 1172 3053 
L 1172 1153 
Q 1172 725 1289 603 
Q 1406 481 1766 481 
L 2356 481 
L 2356 0 
L 1766 0 
Q 1100 0 847 248 
Q 594 497 594 1153 
L 594 3053 
L 172 3053 
L 172 3500 
L 594 3500 
L 594 4494 
L 1172 4494 
z
" transform="scale(0.015625)"/>
       <path id="DejaVuSans-75" d="M 544 1381 
L 544 3500 
L 1119 3500 
L 1119 1403 
Q 1119 906 1312 657 
Q 1506 409 1894 409 
Q 2359 409 2629 706 
Q 2900 1003 2900 1516 
L 2900 3500 
L 3475 3500 
L 3475 0 
L 2900 0 
L 2900 538 
Q 2691 219 2414 64 
Q 2138 -91 1772 -91 
Q 1169 -91 856 284 
Q 544 659 544 1381 
z
M 1991 3584 
L 1991 3584 
z
" transform="scale(0.015625)"/>
       <path id="DejaVuSans-2c" d="M 750 794 
L 1409 794 
L 1409 256 
L 897 -744 
L 494 -744 
L 750 256 
L 750 794 
z
" transform="scale(0.015625)"/>
       <path id="DejaVuSans-70" d="M 1159 525 
L 1159 -1331 
L 581 -1331 
L 581 3500 
L 1159 3500 
L 1159 2969 
Q 1341 3281 1617 3432 
Q 1894 3584 2278 3584 
Q 2916 3584 3314 3078 
Q 3713 2572 3713 1747 
Q 3713 922 3314 415 
Q 2916 -91 2278 -91 
Q 1894 -91 1617 61 
Q 1341 213 1159 525 
z
M 3116 1747 
Q 3116 2381 2855 2742 
Q 2594 3103 2138 3103 
Q 1681 3103 1420 2742 
Q 1159 2381 1159 1747 
Q 1159 1113 1420 752 
Q 1681 391 2138 391 
Q 2594 391 2855 752 
Q 3116 1113 3116 1747 
z
" transform="scale(0.015625)"/>
      </defs>
      <use xlink:href="#DejaVuSans-46"/>
      <use xlink:href="#DejaVuSans-72" x="50.269531"/>
      <use xlink:href="#DejaVuSans-61" x="91.382812"/>
      <use xlink:href="#DejaVuSans-63" x="152.662109"/>
      <use xlink:href="#DejaVuSans-74" x="207.642578"/>
      <use xlink:href="#DejaVuSans-69" x="246.851562"/>
      <use xlink:href="#DejaVuSans-6f" x="274.634766"/>
      <use xlink:href="#DejaVuSans-6e" x="335.816406"/>
      <use xlink:href="#DejaVuSans-20" x="399.195312"/>
      <use xlink:href="#DejaVuSans-6f" x="430.982422"/>
      <use xlink:href="#DejaVuSans-66" x="492.164062"/>
      <use xlink:href="#DejaVuSans-20" x="527.369141"/>
      <use xlink:href="#DejaVuSans-66" x="559.15625"/>
      <use xlink:href="#DejaVuSans-75" x="594.361328"/>
      <use xlink:href="#DejaVuSans-6e" x="657.740234"/>
      <use xlink:href="#DejaVuSans-63" x="721.119141"/>
      <use xlink:href="#DejaVuSans-74" x="776.099609"/>
      <use xlink:href="#DejaVuSans-69" x="815.308594"/>
      <use xlink:href="#DejaVuSans-6f" x="843.091797"/>
      <use xlink:href="#DejaVuSans-6e" x="904.273438"/>
      <use xlink:href="#DejaVuSans-2c" x="967.652344"/>
      <use xlink:href="#DejaVuSans-74" x="999.439453"/>
      <use xlink:href="#DejaVuSans-61" x="1038.648438"/>
      <use xlink:href="#DejaVuSans-72" x="1099.927734"/>
      <use xlink:href="#DejaVuSans-67" x="1139.291016"/>
      <use xlink:href="#DejaVuSans-65" x="1202.767578"/>
      <use xlink:href="#DejaVuSans-74" x="1264.291016"/>
      <use xlink:href="#DejaVuSans-20" x="1303.5"/>
      <use xlink:href="#DejaVuSans-70" x="1335.287109"/>
      <use xlink:href="#DejaVuSans-61" x="1398.763672"/>
      <use xlink:href="#DejaVuSans-69" x="1460.042969"/>
      <use xlink:href="#DejaVuSans-72" x="1487.826172"/>
      <use xlink:href="#DejaVuSans-73" x="1528.939453"/>
     </g>
    </g>
   </g>
   <g id="line2d_33">
    <defs>
     <path id="m1327e6b335" d="M 0 1.5 
C 0.397805 1.5 0.77937 1.341951 1.06066 1.06066 
C 1.341951 0.77937 1.5 0.397805 1.5 0 
C 1.5 -0.397805 1.341951 -0.77937 1.06066 -1.06066 
C 0.77937 -1.341951 0.397805 -1.5 0 -1.5 
C -0.397805 -1.5 -0.77937 -1.341951 -1.06066 -1.06066 
C -1.341951 -0.77937 -1.5 -0.397805 -1.5 0 
C -1.5 0.397805 -1.341951 0.77937 -1.06066 1.06066 
C -0.77937 1.341951 -0.397805 1.5 0 1.5 
z
" style="stroke: #f5deb3"/>
    </defs>
    <g>
     <use xlink:href="#m1327e6b335" x="159.651731" y="27.648" style="fill: #f5deb3; stroke: #f5deb3"/>
     <use xlink:href="#m1327e6b335" x="159.651731" y="27.648" style="fill: #f5deb3; stroke: #f5deb3"/>
    </g>
   </g>
   <g id="line2d_34">
    <defs>
     <path id="m95be9f2153" d="M 0 1.5 
C 0.397805 1.5 0.77937 1.341951 1.06066 1.06066 
C 1.341951 0.77937 1.5 0.397805 1.5 0 
C 1.5 -0.397805 1.341951 -0.77937 1.06066 -1.06066 
C 0.77937 -1.341951 0.397805 -1.5 0 -1.5 
C -0.397805 -1.5 -0.77937 -1.341951 -1.06066 -1.06066 
C -1.341951 -0.77937 -1.5 -0.397805 -1.5 0 
C -1.5 0.397805 -1.341951 0.77937 -1.06066 1.06066 
C -0.77937 1.341951 -0.397805 1.5 0 1.5 
z
" style="stroke: #000080"/>
    </defs>
    <g>
     <use xlink:href="#m95be9f2153" x="186.578713" y="27.648" style="fill: #000080; stroke: #000080"/>
     <use xlink:href="#m95be9f2153" x="186.578713" y="27.648" style="fill: #000080; stroke: #000080"/>
    </g>
   </g>
   <g id="line2d_35">
    <path d="M 116.501546 298.944 
L 116.501546 298.589365 
L 120.616896 298.589365 
L 120.616896 298.234729 
L 122.046309 298.234729 
L 122.046309 297.880094 
L 122.259215 297.880094 
L 122.259215 297.525459 
L 122.409829 297.525459 
L 122.409829 297.170824 
L 122.588988 297.170824 
L 122.588988 296.816188 
L 123.029559 296.816188 
L 123.029559 296.461553 
L 123.260379 296.461553 
L 123.260379 296.106918 
L 123.741664 296.106918 
L 123.741664 295.752282 
L 124.07413 295.752282 
L 124.07413 295.397647 
L 124.238185 295.397647 
L 124.238185 295.043012 
L 124.906754 295.043012 
L 124.906754 294.688376 
L 125.063736 294.688376 
L 125.115773 293.979106 
L 125.47606 293.979106 
L 125.552375 292.560565 
L 125.704082 292.560565 
L 125.704082 292.205929 
L 126.003874 292.205929 
L 126.053378 291.142024 
L 126.347698 291.142024 
L 126.44479 290.432753 
L 126.637484 290.432753 
L 126.637484 289.723482 
L 126.899255 289.723482 
L 126.993549 289.014212 
L 127.06396 289.014212 
L 127.157434 288.304941 
L 127.708728 288.304941 
L 127.79906 287.241035 
L 128.244324 287.241035 
L 128.244324 286.8864 
L 128.528195 286.8864 
L 128.528195 286.531765 
L 128.765092 286.531765 
L 128.807846 285.822494 
L 129.292652 285.822494 
L 129.292652 285.467859 
L 129.520173 285.467859 
L 129.520173 285.113224 
L 129.68393 285.113224 
L 129.68393 284.758588 
L 129.886643 284.758588 
L 129.906795 284.049318 
L 130.325068 284.049318 
L 130.325068 283.694682 
L 130.442886 283.694682 
L 130.442886 283.340047 
L 130.887807 283.340047 
L 130.887807 282.985412 
L 131.002163 282.985412 
L 131.002163 282.630776 
L 131.378407 282.630776 
L 131.378407 282.276141 
L 131.729 282.276141 
L 131.729 281.921506 
L 131.983214 281.921506 
L 132.019251 281.212235 
L 132.144842 281.212235 
L 132.144842 280.8576 
L 132.340519 280.8576 
L 132.340519 280.502965 
L 133.238946 280.502965 
L 133.238946 280.148329 
L 134.28886 280.148329 
L 134.28886 279.793694 
L 135.14656 279.793694 
L 135.14656 279.439059 
L 136.513404 279.439059 
L 136.513404 279.084424 
L 136.92008 279.084424 
L 136.92008 278.729788 
L 139.724525 278.729788 
L 139.724525 278.375153 
L 140.056223 278.375153 
L 140.056223 278.020518 
L 147.667988 278.020518 
L 147.667988 277.665882 
L 147.847333 277.665882 
L 147.847333 277.311247 
L 150.302917 277.311247 
L 150.302917 276.956612 
L 150.952233 276.956612 
L 150.985103 276.247341 
L 151.630724 276.247341 
L 151.630724 275.892706 
L 151.964126 275.892706 
L 151.964126 275.538071 
L 153.650761 275.538071 
L 153.707679 274.8288 
L 159.224273 274.8288 
L 159.224273 274.474165 
L 160.037244 274.474165 
L 160.037244 274.119529 
L 160.178791 274.119529 
L 160.178791 273.764894 
L 160.35923 273.764894 
L 160.35923 273.410259 
L 161.163832 273.410259 
L 161.163832 273.055624 
L 164.230049 273.055624 
L 164.278712 272.346353 
L 165.486503 272.346353 
L 165.486503 271.991718 
L 165.847638 271.991718 
L 165.847638 271.637082 
L 166.01087 271.637082 
L 166.01087 271.282447 
L 166.353466 271.282447 
L 166.353466 270.927812 
L 167.048476 270.927812 
L 167.101533 270.218541 
L 167.675494 270.218541 
L 167.675494 269.863906 
L 168.005271 269.863906 
L 168.079542 269.154635 
L 170.205 269.154635 
L 170.205 268.8 
L 170.528496 268.8 
L 170.61198 267.736094 
L 171.347112 267.736094 
L 171.438123 267.026824 
L 171.682333 267.026824 
L 171.682333 266.672188 
L 171.979437 266.672188 
L 171.994493 265.962918 
L 172.172093 265.962918 
L 172.201885 265.253647 
L 172.31213 265.253647 
L 172.31213 264.899012 
L 172.467911 264.899012 
L 172.549496 263.835106 
L 172.659804 263.835106 
L 172.659804 263.480471 
L 172.823033 263.480471 
L 172.898998 262.7712 
L 172.960367 262.7712 
L 172.980779 261.707294 
L 173.114944 261.707294 
L 173.114944 261.352659 
L 173.362455 261.352659 
L 173.416353 260.643388 
L 173.507826 260.643388 
L 173.539539 259.934118 
L 173.652083 259.934118 
L 173.652083 259.579482 
L 173.952824 259.579482 
L 173.952824 259.224847 
L 174.074482 259.224847 
L 174.074482 258.870212 
L 174.25074 258.870212 
L 174.275513 258.160941 
L 174.579648 258.160941 
L 174.579648 257.806306 
L 174.697331 257.806306 
L 174.78465 256.387765 
L 175.038715 256.387765 
L 175.084376 255.678494 
L 175.381197 255.678494 
L 175.381197 255.323859 
L 175.493986 255.323859 
L 175.577692 254.259953 
L 175.630928 254.259953 
L 175.630928 253.905318 
L 175.751039 253.905318 
L 175.802031 252.841412 
L 175.917569 252.841412 
L 176.004627 251.777506 
L 176.117204 251.777506 
L 176.117204 251.422871 
L 176.278825 251.422871 
L 176.278825 251.068235 
L 176.420388 251.068235 
L 176.420388 250.7136 
L 176.673553 250.7136 
L 176.75552 249.649694 
L 176.807194 249.649694 
L 176.852084 248.940424 
L 177.215548 248.940424 
L 177.311405 247.167247 
L 177.374501 247.167247 
L 177.421282 246.103341 
L 177.509686 246.103341 
L 177.509686 245.748706 
L 177.674134 245.748706 
L 177.732858 245.039435 
L 177.78666 245.039435 
L 177.865501 243.266259 
L 178.087626 243.266259 
L 178.13422 241.847718 
L 178.284089 241.847718 
L 178.336339 240.074541 
L 178.419027 240.074541 
L 178.467857 239.010635 
L 178.577262 239.010635 
L 178.680008 237.237459 
L 178.701092 237.237459 
L 178.789688 235.818918 
L 178.831588 235.818918 
L 178.928497 234.400376 
L 178.964153 234.400376 
L 179.070718 232.6272 
L 179.083996 232.6272 
L 179.173747 231.208659 
L 179.214801 231.208659 
L 179.311218 229.790118 
L 179.334518 229.790118 
L 179.444798 226.953035 
L 179.470823 226.953035 
L 179.573127 224.470588 
L 179.633383 224.470588 
L 179.733384 221.988141 
L 179.761859 221.988141 
L 179.85835 220.214965 
L 179.919112 220.214965 
L 180.004975 217.732518 
L 180.066666 217.732518 
L 180.176924 215.604706 
L 180.189444 215.604706 
L 180.282389 211.703718 
L 180.305899 211.703718 
L 180.402397 209.575906 
L 180.440858 209.575906 
L 180.55168 206.738824 
L 180.558499 206.738824 
L 180.661852 203.901741 
L 180.686247 203.901741 
L 180.795637 200.355388 
L 180.79833 200.355388 
L 180.904394 197.163671 
L 180.919115 197.163671 
L 181.029823 193.971953 
L 181.059058 193.971953 
L 181.153099 190.780235 
L 181.174227 190.780235 
L 181.282135 188.297788 
L 181.288695 188.297788 
L 181.380293 183.687529 
L 181.414202 183.687529 
L 181.514267 179.786541 
L 181.531109 179.786541 
L 181.640858 176.594824 
L 181.670445 176.594824 
L 181.760207 172.693835 
L 181.781942 172.693835 
L 181.891511 168.438212 
L 181.902941 168.438212 
L 182.013073 164.182588 
L 182.014335 164.182588 
L 182.117543 160.2816 
L 182.141377 160.2816 
L 182.246386 154.607435 
L 182.281259 154.607435 
L 182.391678 148.224 
L 182.405281 148.224 
L 182.514976 144.677647 
L 182.517434 144.677647 
L 182.6057 140.067388 
L 182.641134 140.067388 
L 182.74704 135.102494 
L 182.761601 135.102494 
L 182.869244 130.1376 
L 182.872862 130.1376 
L 182.979872 125.172706 
L 182.989462 125.172706 
L 183.099387 119.853176 
L 183.100578 119.853176 
L 183.196826 115.597553 
L 183.214595 115.597553 
L 183.32204 108.859482 
L 183.331456 108.859482 
L 183.440577 103.539953 
L 183.445256 103.539953 
L 183.551395 97.156518 
L 183.558372 97.156518 
L 183.667344 93.610165 
L 183.671967 93.610165 
L 183.782583 87.226729 
L 183.784881 87.226729 
L 183.895978 81.552565 
L 183.929066 81.552565 
L 184.039318 77.296941 
L 184.041585 77.296941 
L 184.150054 72.332047 
L 184.157939 72.332047 
L 184.257902 67.721788 
L 184.284768 67.721788 
L 184.391849 62.402259 
L 184.396297 62.402259 
L 184.498323 57.437365 
L 184.522639 57.437365 
L 184.615193 54.245647 
L 184.651429 54.245647 
L 184.75863 52.117835 
L 184.786969 52.117835 
L 184.890153 47.507576 
L 184.936672 47.507576 
L 185.047636 44.670494 
L 185.084122 44.670494 
L 185.191024 41.833412 
L 185.210202 41.833412 
L 185.300502 38.996329 
L 185.323804 38.996329 
L 185.428304 36.868518 
L 185.46616 36.868518 
L 185.541646 35.095341 
L 185.600148 35.095341 
L 185.694827 33.322165 
L 185.772503 33.322165 
L 185.845742 31.903624 
L 185.932024 31.903624 
L 186.019953 31.194353 
L 186.067834 31.194353 
L 186.147028 30.485082 
L 186.192565 30.485082 
L 186.298393 29.421176 
L 186.345571 29.421176 
L 186.450544 28.357271 
L 186.51126 28.357271 
L 186.578713 27.648 
L 360.8064 27.648 
L 360.8064 27.648 
" style="fill: none; stroke: #000080; stroke-width: 1.5; stroke-linecap: square"/>
   </g>
   <g id="line2d_36">
    <defs>
     <path id="m0794372d23" d="M 0 6 
C 1.591219 6 3.117479 5.367802 4.242641 4.242641 
C 5.367802 3.117479 6 1.591219 6 0 
C 6 -1.591219 5.367802 -3.117479 4.242641 -4.242641 
C 3.117479 -5.367802 1.591219 -6 0 -6 
C -1.591219 -6 -3.117479 -5.367802 -4.242641 -4.242641 
C -5.367802 -3.117479 -6 -1.591219 -6 0 
C -6 1.591219 -5.367802 3.117479 -4.242641 4.242641 
C -3.117479 5.367802 -1.591219 6 0 6 
z
" style="stroke: #000080; stroke-width: 1.5"/>
    </defs>
    <g>
     <use xlink:href="#m0794372d23" x="181.806204" y="171.984565" style="fill-opacity: 0; stroke: #000080; stroke-width: 1.5"/>
     <use xlink:href="#m0794372d23" x="186.578713" y="28.002635" style="fill-opacity: 0; stroke: #000080; stroke-width: 1.5"/>
     <use xlink:href="#m0794372d23" x="186.578713" y="27.648" style="fill-opacity: 0; stroke: #000080; stroke-width: 1.5"/>
     <use xlink:href="#m0794372d23" x="186.578713" y="27.648" style="fill-opacity: 0; stroke: #000080; stroke-width: 1.5"/>
     <use xlink:href="#m0794372d23" x="360.8064" y="27.648" style="fill-opacity: 0; stroke: #000080; stroke-width: 1.5"/>
    </g>
   </g>
   <g id="line2d_37">
    <path style="fill: none; stroke: #000080; stroke-width: 1.5; stroke-linecap: square"/>
    <g/>
   </g>
   <g id="line2d_38">
    <defs>
     <path id="mf60db4b029" d="M 0 1.5 
C 0.397805 1.5 0.77937 1.341951 1.06066 1.06066 
C 1.341951 0.77937 1.5 0.397805 1.5 0 
C 1.5 -0.397805 1.341951 -0.77937 1.06066 -1.06066 
C 0.77937 -1.341951 0.397805 -1.5 0 -1.5 
C -0.397805 -1.5 -0.77937 -1.341951 -1.06066 -1.06066 
C -1.341951 -0.77937 -1.5 -0.397805 -1.5 0 
C -1.5 0.397805 -1.341951 0.77937 -1.06066 1.06066 
C -0.77937 1.341951 -0.397805 1.5 0 1.5 
z
" style="stroke: #ff00ff"/>
    </defs>
    <g>
     <use xlink:href="#mf60db4b029" x="199.023392" y="27.648" style="fill: #ff00ff; stroke: #ff00ff"/>
     <use xlink:href="#mf60db4b029" x="199.023392" y="27.648" style="fill: #ff00ff; stroke: #ff00ff"/>
    </g>
   </g>
   <g id="line2d_39">
    <path d="M 119.91075 298.944 
L 119.91075 298.589365 
L 121.550424 298.589365 
L 121.550424 298.234729 
L 122.439807 298.234729 
L 122.439807 297.880094 
L 122.854567 297.880094 
L 122.854567 297.525459 
L 123.231681 297.525459 
L 123.289033 296.461553 
L 123.403216 296.461553 
L 123.403216 296.106918 
L 123.685677 296.106918 
L 123.685677 295.752282 
L 124.508471 295.752282 
L 124.508471 295.397647 
L 124.668797 295.397647 
L 124.668797 295.043012 
L 125.296779 295.043012 
L 125.348177 294.333741 
L 125.526971 294.333741 
L 125.552375 293.624471 
L 125.854575 293.624471 
L 125.904473 292.9152 
L 126.003874 292.9152 
L 126.003874 292.560565 
L 126.298963 292.560565 
L 126.298963 292.205929 
L 126.637484 292.205929 
L 126.733095 291.496659 
L 126.828223 291.496659 
L 126.899255 290.432753 
L 126.993549 290.432753 
L 126.993549 289.723482 
L 127.18073 289.723482 
L 127.18073 289.368847 
L 127.366067 289.368847 
L 127.366067 289.014212 
L 127.708728 289.014212 
L 127.708728 288.659576 
L 127.933749 288.659576 
L 128.023009 287.950306 
L 128.15611 287.950306 
L 128.266313 287.241035 
L 128.807846 287.241035 
L 128.850503 286.531765 
L 128.999044 286.531765 
L 129.104431 285.467859 
L 129.622688 285.467859 
L 129.622688 285.113224 
L 129.744974 285.113224 
L 129.744974 284.758588 
L 130.734242 284.758588 
L 130.734242 284.403953 
L 131.040128 284.403953 
L 131.115828 283.694682 
L 131.228811 283.694682 
L 131.228811 283.340047 
L 131.526822 283.340047 
L 131.526822 282.985412 
L 132.05522 282.985412 
L 132.05522 282.630776 
L 132.932784 282.630776 
L 132.932784 282.276141 
L 133.086488 282.276141 
L 133.120474 281.566871 
L 133.934523 281.566871 
L 133.934523 281.212235 
L 134.208913 281.212235 
L 134.208913 280.8576 
L 135.35878 280.8576 
L 135.35878 280.502965 
L 136.141169 280.502965 
L 136.141169 280.148329 
L 137.800869 280.148329 
L 137.800869 279.793694 
L 141.239443 279.793694 
L 141.239443 279.439059 
L 143.907854 279.439059 
L 143.907854 279.084424 
L 148.254209 279.084424 
L 148.261802 278.375153 
L 149.31003 278.375153 
L 149.31003 278.020518 
L 150.647102 278.020518 
L 150.647102 277.665882 
L 151.08337 277.665882 
L 151.08337 277.311247 
L 152.316216 277.311247 
L 152.316216 276.956612 
L 152.619733 276.956612 
L 152.679853 276.247341 
L 153.288159 276.247341 
L 153.305585 275.538071 
L 153.905548 275.538071 
L 153.905548 275.183435 
L 154.355647 275.183435 
L 154.355647 274.8288 
L 154.757642 274.8288 
L 154.757642 274.474165 
L 154.944823 274.474165 
L 154.944823 274.119529 
L 155.303249 274.119529 
L 155.303249 273.764894 
L 155.914518 273.764894 
L 155.914518 273.410259 
L 159.028273 273.410259 
L 159.028273 273.055624 
L 159.253921 273.055624 
L 159.253921 272.700988 
L 160.878745 272.700988 
L 160.909774 271.991718 
L 161.931757 271.991718 
L 161.931757 271.637082 
L 162.55628 271.637082 
L 162.55628 271.282447 
L 165.456093 271.282447 
L 165.456093 270.927812 
L 165.746019 270.927812 
L 165.746019 270.573176 
L 166.353466 270.573176 
L 166.353466 270.218541 
L 167.109897 270.218541 
L 167.109897 269.509271 
L 167.615896 269.509271 
L 167.615896 269.154635 
L 167.999955 269.154635 
L 167.999955 268.8 
L 168.195663 268.8 
L 168.250832 268.090729 
L 168.456938 268.090729 
L 168.456938 267.736094 
L 168.614553 267.736094 
L 168.614553 267.381459 
L 169.403154 267.381459 
L 169.403154 267.026824 
L 171.030718 267.026824 
L 171.030718 266.672188 
L 171.384902 266.672188 
L 171.384902 266.317553 
L 171.854228 266.317553 
L 171.947136 265.608282 
L 172.263447 265.608282 
L 172.263447 265.253647 
L 172.383865 265.253647 
L 172.482581 264.189741 
L 172.719888 264.189741 
L 172.788027 263.480471 
L 173.336448 263.480471 
L 173.336448 263.125835 
L 174.006991 263.125835 
L 174.047515 262.061929 
L 174.166649 262.061929 
L 174.258366 261.352659 
L 174.480071 261.352659 
L 174.570276 260.643388 
L 174.976437 260.643388 
L 174.976437 260.288753 
L 175.549238 260.288753 
L 175.655719 259.224847 
L 175.70697 259.224847 
L 175.756321 257.806306 
L 176.018519 257.806306 
L 176.018519 257.451671 
L 176.235976 257.451671 
L 176.235976 257.097035 
L 176.371047 257.097035 
L 176.371047 256.7424 
L 176.533889 256.7424 
L 176.608057 256.033129 
L 176.747173 256.033129 
L 176.853745 255.323859 
L 176.858725 255.323859 
L 176.963018 254.614588 
L 177.05524 254.614588 
L 177.124111 253.905318 
L 177.269223 253.905318 
L 177.329223 253.196047 
L 177.548133 253.196047 
L 177.61682 252.486776 
L 177.672544 252.486776 
L 177.781919 251.422871 
L 177.804033 251.422871 
L 177.841883 250.7136 
L 177.998778 250.7136 
L 178.051825 250.004329 
L 178.137322 250.004329 
L 178.222432 248.940424 
L 178.339408 248.940424 
L 178.435827 247.876518 
L 178.487658 247.876518 
L 178.539346 246.457976 
L 178.62266 246.457976 
L 178.719145 245.039435 
L 178.759702 245.039435 
L 178.846529 243.975529 
L 178.916597 243.975529 
L 178.916597 243.620894 
L 179.027868 243.620894 
L 179.083996 242.556988 
L 179.236757 242.556988 
L 179.306846 240.783812 
L 179.408593 240.783812 
L 179.517001 238.656 
L 179.538607 238.656 
L 179.646271 237.237459 
L 179.677735 237.237459 
L 179.787449 235.818918 
L 179.798811 235.818918 
L 179.909234 233.336471 
L 179.930395 233.336471 
L 180.037248 231.917929 
L 180.123969 231.917929 
L 180.226955 229.790118 
L 180.271315 229.790118 
L 180.333521 227.662306 
L 180.424384 227.662306 
L 180.506609 225.534494 
L 180.544858 225.534494 
L 180.649643 223.406682 
L 180.66592 223.406682 
L 180.734944 220.214965 
L 180.79833 220.214965 
L 180.900377 218.441788 
L 180.932488 218.441788 
L 181.043117 215.604706 
L 181.061713 215.604706 
L 181.171587 212.767624 
L 181.207191 212.767624 
L 181.316221 210.639812 
L 181.318841 210.639812 
L 181.412899 206.738824 
L 181.441545 206.738824 
L 181.549229 203.547106 
L 181.57896 203.547106 
L 181.651154 201.064659 
L 181.701268 201.064659 
L 181.806204 198.227576 
L 181.818961 198.227576 
L 181.914364 194.326588 
L 181.932119 194.326588 
L 182.038299 191.844141 
L 182.057197 191.844141 
L 182.162676 187.588518 
L 182.187703 187.588518 
L 182.292454 182.978259 
L 182.316067 182.978259 
L 182.413932 178.368 
L 182.434925 178.368 
L 182.541994 173.403106 
L 182.554262 173.403106 
L 182.664314 169.147482 
L 182.666752 169.147482 
L 182.774938 164.891859 
L 182.78221 164.891859 
L 182.882506 160.990871 
L 182.896962 160.990871 
L 182.993056 158.153788 
L 183.009822 158.153788 
L 183.112488 153.188894 
L 183.124389 153.188894 
L 183.214595 148.578635 
L 183.238262 148.578635 
L 183.345572 143.968376 
L 183.350275 143.968376 
L 183.459287 140.422024 
L 183.473307 140.422024 
L 183.583933 136.1664 
L 183.590898 136.1664 
L 183.697374 131.556141 
L 183.708911 131.556141 
L 183.819311 125.527341 
L 183.82275 125.527341 
L 183.906253 120.917082 
L 183.948435 120.917082 
L 184.05631 116.306824 
L 184.071024 116.306824 
L 184.181574 109.568753 
L 184.188321 109.568753 
L 184.298186 102.476047 
L 184.336154 102.476047 
L 184.445161 96.447247 
L 184.447379 96.447247 
L 184.551335 91.482353 
L 184.571176 91.482353 
L 184.681025 85.808188 
L 184.685406 85.808188 
L 184.791325 81.9072 
L 184.800034 81.9072 
L 184.897734 77.296941 
L 184.919376 77.296941 
L 185.029367 73.395953 
L 185.04119 73.395953 
L 185.147268 68.431059 
L 185.160085 68.431059 
L 185.261248 65.948612 
L 185.276111 65.948612 
L 185.375598 62.047624 
L 185.418828 62.047624 
L 185.521755 56.373459 
L 185.550014 56.373459 
L 185.653269 53.891012 
L 185.663667 53.891012 
L 185.741471 51.7632 
L 185.776637 51.7632 
L 185.864265 50.344659 
L 185.899202 50.344659 
L 185.966836 49.280753 
L 186.063764 49.280753 
L 186.143988 47.507576 
L 186.217816 47.507576 
L 186.293367 46.798306 
L 186.375623 46.798306 
L 186.436581 45.7344 
L 186.497342 45.7344 
L 186.581684 44.670494 
L 186.712899 44.670494 
L 186.753165 43.606588 
L 186.888064 43.606588 
L 186.888064 43.251953 
L 195.27309 43.251953 
L 195.27309 42.897318 
L 195.740638 42.897318 
L 195.740638 42.542682 
L 196.134391 42.542682 
L 196.134391 42.188047 
L 196.402963 42.188047 
L 196.402963 41.833412 
L 196.670071 41.833412 
L 196.670071 41.478776 
L 196.879113 41.478776 
L 196.879113 41.124141 
L 196.996149 41.124141 
L 197.10454 40.414871 
L 197.242107 40.414871 
L 197.242107 40.060235 
L 197.367517 40.060235 
L 197.367517 39.7056 
L 197.48489 39.7056 
L 197.559052 38.996329 
L 197.602086 38.996329 
L 197.602086 38.287059 
L 197.771608 38.287059 
L 197.868572 36.868518 
L 197.907652 36.868518 
L 197.953684 35.804612 
L 198.037335 35.804612 
L 198.084662 35.095341 
L 198.173082 35.095341 
L 198.258959 34.031435 
L 198.333847 34.031435 
L 198.426381 32.612894 
L 198.462214 32.612894 
L 198.572448 31.548988 
L 198.595463 31.548988 
L 198.695563 30.485082 
L 198.728812 30.485082 
L 198.810127 29.421176 
L 198.842143 29.421176 
L 198.939403 28.002635 
L 199.023392 28.002635 
L 199.023392 27.648 
L 360.8064 27.648 
L 360.8064 27.648 
" style="fill: none; stroke: #ff00ff; stroke-width: 1.5; stroke-linecap: square"/>
   </g>
   <g id="line2d_40">
    <defs>
     <path id="mcf12025bff" d="M -0 8.485281 
L 5.091169 0 
L 0 -8.485281 
L -5.091169 -0 
z
" style="stroke: #ff00ff; stroke-width: 1.5; stroke-linejoin: miter"/>
    </defs>
    <g>
     <use xlink:href="#mcf12025bff" x="183.950713" y="120.207812" style="fill-opacity: 0; stroke: #ff00ff; stroke-width: 1.5; stroke-linejoin: miter"/>
     <use xlink:href="#mcf12025bff" x="199.023392" y="28.002635" style="fill-opacity: 0; stroke: #ff00ff; stroke-width: 1.5; stroke-linejoin: miter"/>
     <use xlink:href="#mcf12025bff" x="199.023392" y="27.648" style="fill-opacity: 0; stroke: #ff00ff; stroke-width: 1.5; stroke-linejoin: miter"/>
     <use xlink:href="#mcf12025bff" x="199.023392" y="27.648" style="fill-opacity: 0; stroke: #ff00ff; stroke-width: 1.5; stroke-linejoin: miter"/>
     <use xlink:href="#mcf12025bff" x="360.8064" y="27.648" style="fill-opacity: 0; stroke: #ff00ff; stroke-width: 1.5; stroke-linejoin: miter"/>
    </g>
   </g>
   <g id="line2d_41">
    <path style="fill: none; stroke: #ff00ff; stroke-width: 1.5; stroke-linecap: square"/>
    <g/>
   </g>
   <g id="line2d_42">
    <defs>
     <path id="m9a7fe2d6ad" d="M 0 1.5 
C 0.397805 1.5 0.77937 1.341951 1.06066 1.06066 
C 1.341951 0.77937 1.5 0.397805 1.5 0 
C 1.5 -0.397805 1.341951 -0.77937 1.06066 -1.06066 
C 0.77937 -1.341951 0.397805 -1.5 0 -1.5 
C -0.397805 -1.5 -0.77937 -1.341951 -1.06066 -1.06066 
C -1.341951 -0.77937 -1.5 -0.397805 -1.5 0 
C -1.5 0.397805 -1.341951 0.77937 -1.06066 1.06066 
C -0.77937 1.341951 -0.397805 1.5 0 1.5 
z
" style="stroke: #ff7500"/>
    </defs>
    <g>
     <use xlink:href="#m9a7fe2d6ad" x="213.514524" y="27.648" style="fill: #ff7500; stroke: #ff7500"/>
     <use xlink:href="#m9a7fe2d6ad" x="213.514524" y="27.648" style="fill: #ff7500; stroke: #ff7500"/>
    </g>
   </g>
   <g id="line2d_43">
    <path d="M 119.979155 298.944 
L 119.979155 298.589365 
L 120.846508 298.589365 
L 120.846508 298.234729 
L 121.644403 298.234729 
L 121.644403 297.880094 
L 122.736994 297.880094 
L 122.736994 297.525459 
L 123.058567 297.525459 
L 123.058567 297.170824 
L 123.317644 297.170824 
L 123.317644 296.461553 
L 123.4884 296.461553 
L 123.4884 296.106918 
L 124.454723 296.106918 
L 124.454723 295.752282 
L 124.642171 295.752282 
L 124.642171 295.397647 
L 124.774928 295.397647 
L 124.774928 295.043012 
L 125.348177 295.043012 
L 125.373824 294.333741 
L 125.47606 294.333741 
L 125.577745 293.624471 
L 125.628382 293.624471 
L 125.628382 293.269835 
L 126.078082 293.269835 
L 126.151997 292.560565 
L 126.298963 292.560565 
L 126.298963 292.205929 
L 127.110755 292.205929 
L 127.110755 291.851294 
L 127.319904 291.851294 
L 127.366067 291.142024 
L 127.458055 291.142024 
L 127.526752 290.432753 
L 127.686077 290.432753 
L 127.686077 290.078118 
L 128.375874 290.078118 
L 128.375874 289.723482 
L 128.549855 289.723482 
L 128.57149 289.014212 
L 129.020168 289.014212 
L 129.0834 288.304941 
L 129.663538 288.304941 
L 129.663538 287.950306 
L 129.78556 287.950306 
L 129.78556 287.595671 
L 129.926925 287.595671 
L 129.987186 286.8864 
L 130.067235 286.8864 
L 130.067235 286.531765 
L 130.618241 286.531765 
L 130.618241 286.177129 
L 131.210028 286.177129 
L 131.210028 285.822494 
L 131.378407 285.822494 
L 131.378407 285.467859 
L 131.489828 285.467859 
L 131.545292 284.403953 
L 132.251827 284.403953 
L 132.251827 284.049318 
L 132.46399 284.049318 
L 132.46399 283.694682 
L 133.238946 283.694682 
L 133.238946 283.340047 
L 133.44032 283.340047 
L 133.44032 282.985412 
L 133.836715 282.985412 
L 133.901977 282.276141 
L 134.839175 282.276141 
L 134.854664 281.566871 
L 135.478982 281.566871 
L 135.478982 281.212235 
L 144.2304 281.212235 
L 144.2304 280.8576 
L 144.630562 280.8576 
L 144.630562 280.502965 
L 145.643288 280.502965 
L 145.643288 280.148329 
L 146.311833 280.148329 
L 146.311833 279.793694 
L 146.851358 279.793694 
L 146.851358 279.439059 
L 146.99807 279.439059 
L 146.99807 279.084424 
L 147.730563 279.084424 
L 147.730563 278.729788 
L 149.609197 278.729788 
L 149.609197 278.375153 
L 151.864098 278.375153 
L 151.864098 278.020518 
L 152.0388 278.020518 
L 152.0388 277.665882 
L 153.404029 277.665882 
L 153.404029 277.311247 
L 153.911171 277.311247 
L 153.911171 276.956612 
L 154.622791 276.956612 
L 154.622791 276.601976 
L 155.459233 276.601976 
L 155.459233 276.247341 
L 155.802997 276.247341 
L 155.802997 275.892706 
L 156.06052 275.892706 
L 156.06052 275.538071 
L 156.447685 275.538071 
L 156.506548 274.8288 
L 156.75468 274.8288 
L 156.75468 274.474165 
L 157.137431 274.474165 
L 157.137431 274.119529 
L 157.517191 274.119529 
L 157.517191 273.764894 
L 159.976253 273.764894 
L 159.976253 273.410259 
L 160.944621 273.410259 
L 160.944621 273.055624 
L 161.512345 273.055624 
L 161.512345 272.700988 
L 163.229376 272.700988 
L 163.229376 272.346353 
L 165.037563 272.346353 
L 165.065549 271.637082 
L 166.552624 271.637082 
L 166.552624 271.282447 
L 167.073627 271.282447 
L 167.073627 270.927812 
L 167.820987 270.927812 
L 167.820987 270.573176 
L 168.021211 270.573176 
L 168.021211 270.218541 
L 168.642835 270.218541 
L 168.745323 269.509271 
L 168.859958 269.509271 
L 168.859958 269.154635 
L 169.202224 269.154635 
L 169.202224 268.8 
L 169.63611 268.8 
L 169.63611 268.445365 
L 170.642035 268.445365 
L 170.642035 268.090729 
L 170.96952 268.090729 
L 171.017135 267.381459 
L 171.233285 267.381459 
L 171.233285 267.026824 
L 171.603476 267.026824 
L 171.603476 266.672188 
L 172.086712 266.672188 
L 172.086712 266.317553 
L 172.242242 266.317553 
L 172.345922 265.608282 
L 172.634885 265.608282 
L 172.634885 265.253647 
L 172.857974 265.253647 
L 172.903095 264.544376 
L 173.523689 264.544376 
L 173.523689 264.189741 
L 173.720856 264.189741 
L 173.720856 263.835106 
L 174.062929 263.835106 
L 174.062929 263.480471 
L 174.204918 263.480471 
L 174.281225 262.7712 
L 174.347741 262.7712 
L 174.347741 262.416565 
L 174.46688 262.416565 
L 174.527107 261.707294 
L 174.847565 261.707294 
L 174.924994 260.998024 
L 175.451099 260.998024 
L 175.554577 260.288753 
L 175.800275 260.288753 
L 175.800275 259.934118 
L 176.072254 259.934118 
L 176.165492 259.224847 
L 176.186149 259.224847 
L 176.232544 257.806306 
L 176.372751 257.806306 
L 176.39148 257.097035 
L 176.697008 257.097035 
L 176.697008 256.7424 
L 176.946502 256.7424 
L 176.946502 256.387765 
L 177.150281 256.387765 
L 177.248097 254.614588 
L 177.269223 254.614588 
L 177.358343 253.905318 
L 177.475981 253.905318 
L 177.557732 252.841412 
L 177.704312 252.841412 
L 177.783499 252.132141 
L 177.87494 252.132141 
L 177.922063 251.068235 
L 178.02376 251.068235 
L 178.120254 250.004329 
L 178.196166 250.004329 
L 178.231693 249.295059 
L 178.314842 249.295059 
L 178.385383 248.585788 
L 178.510479 248.585788 
L 178.581807 247.521882 
L 178.636258 247.521882 
L 178.741688 246.457976 
L 178.771702 246.457976 
L 178.874886 245.394071 
L 178.981956 245.394071 
L 179.055953 243.975529 
L 179.100212 243.975529 
L 179.125246 243.266259 
L 179.211871 243.266259 
L 179.306846 242.202353 
L 179.375223 242.202353 
L 179.466488 241.138447 
L 179.489597 241.138447 
L 179.558751 240.074541 
L 179.604714 240.074541 
L 179.699158 238.656 
L 179.80307 238.656 
L 179.893701 237.237459 
L 179.930395 237.237459 
L 179.97124 236.173553 
L 180.051262 236.173553 
L 180.160218 234.755012 
L 180.218626 234.755012 
L 180.326619 233.336471 
L 180.333521 233.336471 
L 180.406522 231.917929 
L 180.444974 231.917929 
L 180.454575 231.208659 
L 180.558499 231.208659 
L 180.607527 230.144753 
L 180.683538 230.144753 
L 180.76464 229.435482 
L 180.799676 229.435482 
L 180.834647 228.371576 
L 181.013857 228.371576 
L 181.118716 226.5984 
L 181.139882 226.5984 
L 181.246673 225.889129 
L 181.274261 225.889129 
L 181.345015 224.470588 
L 181.386819 224.470588 
L 181.494815 222.342776 
L 181.522042 222.342776 
L 181.620248 220.924235 
L 181.63957 220.924235 
L 181.726916 219.860329 
L 181.767881 219.860329 
L 181.86227 218.087153 
L 181.927048 218.087153 
L 182.004235 215.959341 
L 182.03956 215.959341 
L 182.110011 214.5408 
L 182.171439 214.5408 
L 182.282503 211.703718 
L 182.309856 211.703718 
L 182.413932 209.930541 
L 182.421344 209.930541 
L 182.532174 206.738824 
L 182.540767 206.738824 
L 182.643576 204.256376 
L 182.671628 204.256376 
L 182.757962 201.419294 
L 182.787055 201.419294 
L 182.883711 198.227576 
L 182.917423 198.227576 
L 183.020593 194.681224 
L 183.032553 194.681224 
L 183.136283 191.844141 
L 183.164798 191.844141 
L 183.259537 187.233882 
L 183.278428 187.233882 
L 183.385509 184.751435 
L 183.399584 184.751435 
L 183.489651 180.495812 
L 183.542088 180.495812 
L 183.645369 175.885553 
L 183.670811 175.885553 
L 183.777987 171.984565 
L 183.789475 171.984565 
L 183.878841 168.792847 
L 183.908536 168.792847 
L 184.010964 165.246494 
L 184.025714 165.246494 
L 184.134275 160.990871 
L 184.153434 160.990871 
L 184.253421 158.508424 
L 184.264622 158.508424 
L 184.364022 155.671341 
L 184.381836 155.671341 
L 184.48726 151.770353 
L 184.51159 151.770353 
L 184.616292 148.933271 
L 184.627279 148.933271 
L 184.719321 146.096188 
L 184.748811 146.096188 
L 184.839175 143.968376 
L 184.877151 143.968376 
L 184.985232 141.485929 
L 184.996006 141.485929 
L 185.05408 140.067388 
L 185.132303 140.067388 
L 185.241059 138.294212 
L 185.249563 138.294212 
L 185.352361 135.811765 
L 185.366096 135.811765 
L 185.458805 134.038588 
L 185.48506 134.038588 
L 185.580319 132.265412 
L 185.604319 132.265412 
L 185.674059 130.492235 
L 185.716609 130.492235 
L 185.798324 128.364424 
L 185.843683 128.364424 
L 185.937148 125.881976 
L 186.041362 125.881976 
L 186.13081 125.172706 
L 186.174363 125.172706 
L 186.220844 124.463435 
L 186.287334 124.463435 
L 186.344568 123.399529 
L 186.439574 123.399529 
L 186.439574 122.690259 
L 186.55989 122.690259 
L 186.625195 121.626353 
L 186.733534 121.626353 
L 186.733534 121.271718 
L 195.301137 121.271718 
L 195.301137 120.917082 
L 195.529556 120.917082 
L 195.529556 120.562447 
L 195.951184 120.562447 
L 195.951184 120.207812 
L 196.231852 120.207812 
L 196.231852 119.853176 
L 196.396501 119.853176 
L 196.396501 119.498541 
L 196.694377 119.498541 
L 196.745202 118.434635 
L 196.827501 118.434635 
L 196.827501 118.08 
L 197.096617 118.08 
L 197.16781 117.370729 
L 197.382578 117.370729 
L 197.479344 115.952188 
L 197.624117 115.952188 
L 197.710339 115.242918 
L 197.797259 115.242918 
L 197.902229 113.824376 
L 198.020095 113.824376 
L 198.116327 113.115106 
L 198.150079 113.115106 
L 198.255765 111.341929 
L 198.40527 111.341929 
L 198.503759 109.214118 
L 198.555692 109.214118 
L 198.653919 108.150212 
L 198.690363 108.150212 
L 198.788409 106.377035 
L 198.842143 106.377035 
L 198.940943 104.603859 
L 198.95941 104.603859 
L 199.068306 102.121412 
L 199.1065 102.121412 
L 199.202912 99.638965 
L 199.224158 99.638965 
L 199.321479 96.801882 
L 199.342592 96.801882 
L 199.444302 93.610165 
L 199.498689 93.610165 
L 199.605506 90.418447 
L 199.609965 90.418447 
L 199.705316 87.936 
L 199.722556 87.936 
L 199.826155 84.744282 
L 199.835945 84.744282 
L 199.946223 80.843294 
L 199.958382 80.843294 
L 200.06698 76.942306 
L 200.100788 76.942306 
L 200.198491 72.686682 
L 200.230626 72.686682 
L 200.331472 70.558871 
L 200.368615 70.558871 
L 200.478661 68.431059 
L 200.495207 68.431059 
L 200.578189 66.657882 
L 200.612501 66.657882 
L 200.719732 64.530071 
L 200.7398 64.530071 
L 200.839815 61.338353 
L 200.905582 61.338353 
L 200.99 59.565176 
L 201.019434 59.565176 
L 201.050657 58.855906 
L 207.42598 58.855906 
L 207.42598 58.501271 
L 207.969225 58.501271 
L 207.969225 58.146635 
L 208.220979 58.146635 
L 208.220979 57.792 
L 208.524995 57.792 
L 208.524995 57.437365 
L 208.741139 57.437365 
L 208.741139 57.082729 
L 208.960252 57.082729 
L 208.960252 56.728094 
L 209.106716 56.728094 
L 209.106716 56.373459 
L 209.234538 56.373459 
L 209.234538 56.018824 
L 209.430387 56.018824 
L 209.430387 55.309553 
L 209.574416 55.309553 
L 209.679399 54.600282 
L 209.706061 54.600282 
L 209.747138 53.891012 
L 209.829024 53.891012 
L 209.920578 53.181741 
L 209.950617 53.181741 
L 210.050115 51.7632 
L 210.126165 51.7632 
L 210.21657 50.344659 
L 210.27791 50.344659 
L 210.359481 48.926118 
L 210.415618 48.926118 
L 210.480483 47.507576 
L 210.556477 47.507576 
L 210.635473 45.7344 
L 210.684747 45.7344 
L 210.768408 44.670494 
L 210.810236 44.670494 
L 210.880288 43.606588 
L 210.931096 43.606588 
L 210.963627 42.542682 
L 211.170778 42.542682 
L 211.170778 42.188047 
L 211.419874 42.188047 
L 211.419874 41.833412 
L 211.579144 41.833412 
L 211.579144 41.478776 
L 211.786145 41.478776 
L 211.786145 41.124141 
L 211.95598 41.124141 
L 212.000379 40.414871 
L 212.185568 40.414871 
L 212.251195 39.7056 
L 212.323398 39.7056 
L 212.382269 38.996329 
L 212.457475 38.996329 
L 212.457475 38.641694 
L 212.607239 38.641694 
L 212.666467 37.223153 
L 212.746708 37.223153 
L 212.818756 35.804612 
L 212.858473 35.804612 
L 212.967387 34.386071 
L 212.9978 34.386071 
L 213.099385 32.612894 
L 213.146235 32.612894 
L 213.242705 30.839718 
L 213.285609 30.839718 
L 213.35157 29.421176 
L 213.413735 29.421176 
L 213.514524 27.648 
L 360.8064 27.648 
L 360.8064 27.648 
" style="fill: none; stroke: #ff7500; stroke-width: 1.5; stroke-linecap: square"/>
   </g>
   <g id="line2d_44">
    <defs>
     <path id="m09f56d99d8" d="M 0 -6 
L -1.347084 -1.854102 
L -5.706339 -1.854102 
L -2.179628 0.708204 
L -3.526712 4.854102 
L -0 2.291796 
L 3.526712 4.854102 
L 2.179628 0.708204 
L 5.706339 -1.854102 
L 1.347084 -1.854102 
z
" style="stroke: #ff7500; stroke-width: 1.5; stroke-linejoin: bevel"/>
    </defs>
    <g>
     <use xlink:href="#m09f56d99d8" x="181.946058" y="217.023247" style="fill-opacity: 0; stroke: #ff7500; stroke-width: 1.5; stroke-linejoin: bevel"/>
     <use xlink:href="#m09f56d99d8" x="210.810236" y="44.670494" style="fill-opacity: 0; stroke: #ff7500; stroke-width: 1.5; stroke-linejoin: bevel"/>
     <use xlink:href="#m09f56d99d8" x="213.514524" y="27.648" style="fill-opacity: 0; stroke: #ff7500; stroke-width: 1.5; stroke-linejoin: bevel"/>
     <use xlink:href="#m09f56d99d8" x="213.514524" y="27.648" style="fill-opacity: 0; stroke: #ff7500; stroke-width: 1.5; stroke-linejoin: bevel"/>
     <use xlink:href="#m09f56d99d8" x="360.8064" y="27.648" style="fill-opacity: 0; stroke: #ff7500; stroke-width: 1.5; stroke-linejoin: bevel"/>
    </g>
   </g>
   <g id="line2d_45">
    <path style="fill: none; stroke: #ff7500; stroke-width: 1.5; stroke-linecap: square"/>
    <g/>
   </g>
   <g id="line2d_46">
    <defs>
     <path id="m2235e6594f" d="M 0 1.5 
C 0.397805 1.5 0.77937 1.341951 1.06066 1.06066 
C 1.341951 0.77937 1.5 0.397805 1.5 0 
C 1.5 -0.397805 1.341951 -0.77937 1.06066 -1.06066 
C 0.77937 -1.341951 0.397805 -1.5 0 -1.5 
C -0.397805 -1.5 -0.77937 -1.341951 -1.06066 -1.06066 
C -1.341951 -0.77937 -1.5 -0.397805 -1.5 0 
C -1.5 0.397805 -1.341951 0.77937 -1.06066 1.06066 
C -0.77937 1.341951 -0.397805 1.5 0 1.5 
z
" style="stroke: #6495ed"/>
    </defs>
    <g>
     <use xlink:href="#m2235e6594f" x="199.554906" y="27.648" style="fill: #6495ed; stroke: #6495ed"/>
     <use xlink:href="#m2235e6594f" x="199.554906" y="27.648" style="fill: #6495ed; stroke: #6495ed"/>
    </g>
   </g>
   <g id="line2d_47">
    <path d="M 120.115225 298.944 
L 120.216635 298.234729 
L 120.616896 298.234729 
L 120.616896 297.880094 
L 120.813877 297.880094 
L 120.813877 297.525459 
L 121.008818 297.525459 
L 121.008818 297.170824 
L 121.737916 297.170824 
L 121.737916 296.816188 
L 122.228947 296.816188 
L 122.228947 296.461553 
L 122.409829 296.461553 
L 122.499621 295.752282 
L 122.677931 295.752282 
L 122.677931 295.397647 
L 123.317644 295.397647 
L 123.317644 295.043012 
L 123.741664 295.043012 
L 123.741664 294.688376 
L 123.85314 294.688376 
L 123.908631 293.979106 
L 124.156336 293.979106 
L 124.156336 293.624471 
L 124.427792 293.624471 
L 124.427792 293.269835 
L 125.063736 293.269835 
L 125.115773 292.560565 
L 125.322496 292.560565 
L 125.373824 291.851294 
L 125.552375 291.851294 
L 125.552375 291.496659 
L 125.678882 291.496659 
L 125.779479 290.787388 
L 126.372018 290.787388 
L 126.372018 290.432753 
L 126.517282 290.432753 
L 126.541384 289.723482 
L 126.828223 289.723482 
L 126.828223 289.368847 
L 127.640693 289.368847 
L 127.640693 289.014212 
L 127.956104 289.014212 
L 128.045258 288.304941 
L 128.266313 288.304941 
L 128.266313 287.950306 
L 128.41952 287.950306 
L 128.528195 287.241035 
L 129.31345 287.241035 
L 129.31345 286.8864 
L 129.437756 286.8864 
L 129.54072 285.822494 
L 129.561246 285.822494 
L 129.561246 285.467859 
L 129.987186 285.467859 
L 129.987186 285.113224 
L 130.364422 285.113224 
L 130.442886 284.403953 
L 130.811181 284.403953 
L 130.811181 284.049318 
L 131.210028 284.049318 
L 131.247576 283.340047 
L 132.037244 283.340047 
L 132.037244 282.985412 
L 132.19841 282.985412 
L 132.19841 282.630776 
L 132.375879 282.630776 
L 132.375879 282.276141 
L 132.551689 282.276141 
L 132.551689 281.921506 
L 133.171339 281.921506 
L 133.171339 281.566871 
L 135.283261 281.566871 
L 135.283261 281.212235 
L 135.538796 281.212235 
L 135.538796 280.8576 
L 136.356818 280.8576 
L 136.356818 280.502965 
L 136.878416 280.502965 
L 136.878416 280.148329 
L 138.076838 280.148329 
L 138.076838 279.793694 
L 139.760345 279.793694 
L 139.760345 279.439059 
L 140.747902 279.439059 
L 140.747902 279.084424 
L 144.192739 279.084424 
L 144.192739 278.729788 
L 145.62583 278.729788 
L 145.62583 278.375153 
L 146.27812 278.375153 
L 146.27812 278.020518 
L 147.183884 278.020518 
L 147.183884 277.665882 
L 148.094045 277.665882 
L 148.094045 277.311247 
L 149.889763 277.311247 
L 149.889763 276.956612 
L 152.733797 276.956612 
L 152.733797 276.601976 
L 153.083651 276.601976 
L 153.083651 276.247341 
L 154.006505 276.247341 
L 154.006505 275.892706 
L 154.880856 275.892706 
L 154.966097 275.183435 
L 156.165543 275.183435 
L 156.165543 274.8288 
L 157.325925 274.8288 
L 157.325925 274.474165 
L 158.13806 274.474165 
L 158.13806 274.119529 
L 158.81722 274.119529 
L 158.81722 273.764894 
L 159.083872 273.764894 
L 159.083872 273.410259 
L 159.325729 273.410259 
L 159.325729 273.055624 
L 159.697255 273.055624 
L 159.697255 272.700988 
L 161.205844 272.700988 
L 161.289586 271.991718 
L 161.391854 271.991718 
L 161.391854 271.637082 
L 163.568882 271.637082 
L 163.568882 271.282447 
L 163.709668 271.282447 
L 163.709668 270.927812 
L 164.987706 270.927812 
L 164.987706 270.573176 
L 165.658907 270.573176 
L 165.658907 270.218541 
L 166.069877 270.218541 
L 166.069877 269.863906 
L 167.054068 269.863906 
L 167.054068 269.509271 
L 167.991978 269.509271 
L 168.071598 268.8 
L 168.124491 268.8 
L 168.229834 268.090729 
L 168.735099 268.090729 
L 168.735099 267.736094 
L 169.755147 267.736094 
L 169.755147 267.381459 
L 169.897486 267.381459 
L 169.897486 267.026824 
L 170.183708 267.026824 
L 170.183708 266.672188 
L 170.869361 266.672188 
L 170.869361 266.317553 
L 171.084949 266.317553 
L 171.084949 265.962918 
L 171.300325 265.962918 
L 171.409314 265.253647 
L 171.546318 265.253647 
L 171.546318 264.899012 
L 171.966523 264.899012 
L 171.966523 264.544376 
L 172.195505 264.544376 
L 172.195505 264.189741 
L 172.55993 264.189741 
L 172.55993 263.835106 
L 173.348456 263.835106 
L 173.440259 263.125835 
L 173.46811 263.125835 
L 173.46811 262.7712 
L 173.675691 262.7712 
L 173.675691 262.416565 
L 173.894614 262.416565 
L 173.962508 261.352659 
L 174.062929 261.352659 
L 174.062929 260.998024 
L 174.517709 260.998024 
L 174.551519 260.288753 
L 174.893692 260.288753 
L 174.963589 258.870212 
L 175.368623 258.870212 
L 175.429618 257.451671 
L 176.067061 257.451671 
L 176.115477 256.033129 
L 176.256556 256.033129 
L 176.256556 255.678494 
L 176.447555 255.678494 
L 176.533889 254.614588 
L 176.73548 254.614588 
L 176.837132 253.196047 
L 176.886925 253.196047 
L 176.996006 252.132141 
L 177.168252 252.132141 
L 177.21229 251.068235 
L 177.304922 251.068235 
L 177.353493 250.358965 
L 177.607251 250.358965 
L 177.618415 249.649694 
L 177.753447 249.649694 
L 177.753447 249.295059 
L 177.878085 249.295059 
L 177.956545 248.231153 
L 178.012834 248.231153 
L 178.107831 247.167247 
L 178.19462 247.167247 
L 178.23015 246.457976 
L 178.353212 246.457976 
L 178.429719 245.394071 
L 178.48918 245.394071 
L 178.546935 243.975529 
L 178.735679 243.975529 
L 178.803166 242.911624 
L 178.852503 242.911624 
L 178.931471 241.847718 
L 179.02491 241.847718 
L 179.106105 240.429176 
L 179.137015 240.429176 
L 179.169343 239.010635 
L 179.252842 239.010635 
L 179.337428 237.946729 
L 179.412941 237.946729 
L 179.427429 236.528188 
L 179.537168 236.528188 
L 179.647702 234.755012 
L 179.66487 234.755012 
L 179.729109 233.336471 
L 179.77608 233.336471 
L 179.861181 231.917929 
L 179.920523 231.917929 
L 180.027431 229.435482 
L 180.054064 229.435482 
L 180.119782 228.016941 
L 180.179707 228.016941 
L 180.281005 225.889129 
L 180.293456 225.889129 
L 180.372122 224.115953 
L 180.43125 224.115953 
L 180.536668 221.633506 
L 180.595282 221.633506 
L 180.683538 219.505694 
L 180.709259 219.505694 
L 180.81717 215.604706 
L 180.838678 215.604706 
L 180.909748 214.5408 
L 180.951194 214.5408 
L 181.048432 212.058353 
L 181.071005 212.058353 
L 181.130625 208.866635 
L 181.197967 208.866635 
L 181.30705 205.674918 
L 181.32146 205.674918 
L 181.399863 203.192471 
L 181.440244 203.192471 
L 181.541465 198.936847 
L 181.558283 198.936847 
L 181.662731 195.390494 
L 181.67173 195.390494 
L 181.765323 191.844141 
L 181.783219 191.844141 
L 181.888971 187.588518 
L 181.895322 187.588518 
L 182.00171 182.978259 
L 182.008023 182.978259 
L 182.118798 178.722635 
L 182.121308 178.722635 
L 182.227677 174.821647 
L 182.245139 174.821647 
L 182.354531 170.566024 
L 182.369398 170.566024 
L 182.46945 165.955765 
L 182.482997 165.955765 
L 182.583672 161.700141 
L 182.622814 161.700141 
L 182.723962 157.089882 
L 182.743398 157.089882 
L 182.83182 153.188894 
L 182.858387 153.188894 
L 182.966679 148.224 
L 182.976275 148.224 
L 183.082701 143.613741 
L 183.104152 143.613741 
L 183.203936 139.358118 
L 183.216963 139.358118 
L 183.319685 133.329318 
L 183.332633 133.329318 
L 183.442917 129.073694 
L 183.445256 129.073694 
L 183.529283 124.818071 
L 183.557209 124.818071 
L 183.66272 120.917082 
L 183.669656 120.917082 
L 183.758441 117.016094 
L 183.79292 117.016094 
L 183.901687 113.115106 
L 183.926786 113.115106 
L 183.991659 110.278024 
L 184.048382 110.278024 
L 184.159065 106.377035 
L 184.174824 106.377035 
L 184.281412 103.185318 
L 184.309361 103.185318 
L 184.407414 99.638965 
L 184.441834 99.638965 
L 184.540303 95.737976 
L 184.559054 95.737976 
L 184.670069 92.900894 
L 184.671165 92.900894 
L 184.772805 89.709176 
L 184.802211 89.709176 
L 184.905312 85.808188 
L 184.913968 85.808188 
L 185.003545 81.9072 
L 185.027216 81.9072 
L 185.121607 78.360847 
L 185.159017 78.360847 
L 185.249563 75.8784 
L 185.27505 75.8784 
L 185.378765 73.395953 
L 185.390371 73.395953 
L 185.481911 72.332047 
L 185.514422 72.332047 
L 185.595975 70.204235 
L 185.636619 70.204235 
L 185.729044 67.721788 
L 185.765267 67.721788 
L 185.872491 65.948612 
L 185.877631 65.948612 
L 185.925875 64.884706 
L 186.008729 64.884706 
L 186.109503 63.466165 
L 186.137907 63.466165 
L 186.162219 62.756894 
L 186.263183 62.756894 
L 186.263183 61.692988 
L 186.42161 61.692988 
L 186.529139 60.629082 
L 186.598507 60.629082 
L 186.681412 59.565176 
L 186.775715 59.565176 
L 186.779634 58.855906 
L 194.6375 58.855906 
L 194.681319 58.146635 
L 195.380066 58.146635 
L 195.462371 57.437365 
L 195.869182 57.437365 
L 195.903594 56.728094 
L 196.201598 56.728094 
L 196.272706 56.018824 
L 196.518904 56.018824 
L 196.518904 55.664188 
L 196.708252 55.664188 
L 196.708252 55.309553 
L 196.878541 55.309553 
L 196.953986 54.600282 
L 197.070558 54.600282 
L 197.070558 54.245647 
L 197.198803 54.245647 
L 197.293716 53.536376 
L 197.361378 53.536376 
L 197.395954 52.827106 
L 197.522007 52.827106 
L 197.548554 52.117835 
L 197.686215 52.117835 
L 197.780344 50.699294 
L 197.834855 50.699294 
L 197.927703 49.635388 
L 197.980168 49.635388 
L 198.048102 48.571482 
L 198.098086 48.571482 
L 198.206199 47.152941 
L 198.211535 47.152941 
L 198.288737 46.443671 
L 198.360861 46.443671 
L 198.466425 44.315859 
L 198.511112 44.315859 
L 198.609571 42.542682 
L 198.630976 42.542682 
L 198.722582 40.769506 
L 198.747489 40.769506 
L 198.85349 37.932424 
L 198.926053 37.932424 
L 198.995267 35.804612 
L 199.074931 35.804612 
L 199.172012 33.322165 
L 199.199369 33.322165 
L 199.302357 31.194353 
L 199.325503 31.194353 
L 199.427305 29.066541 
L 199.464778 29.066541 
L 199.554906 27.648 
L 360.8064 27.648 
L 360.8064 27.648 
" style="fill: none; stroke: #6495ed; stroke-width: 1.5; stroke-linecap: square"/>
   </g>
   <g id="line2d_48">
    <defs>
     <path id="mecdfe4ef9f" d="M -0 6 
L 6 -6 
L -6 -6 
z
" style="stroke: #6495ed; stroke-width: 1.5; stroke-linejoin: miter"/>
    </defs>
    <g>
     <use xlink:href="#mecdfe4ef9f" x="180.179707" y="227.662306" style="fill-opacity: 0; stroke: #6495ed; stroke-width: 1.5; stroke-linejoin: miter"/>
     <use xlink:href="#mecdfe4ef9f" x="194.681319" y="58.501271" style="fill-opacity: 0; stroke: #6495ed; stroke-width: 1.5; stroke-linejoin: miter"/>
     <use xlink:href="#mecdfe4ef9f" x="199.554906" y="28.002635" style="fill-opacity: 0; stroke: #6495ed; stroke-width: 1.5; stroke-linejoin: miter"/>
     <use xlink:href="#mecdfe4ef9f" x="199.554906" y="27.648" style="fill-opacity: 0; stroke: #6495ed; stroke-width: 1.5; stroke-linejoin: miter"/>
     <use xlink:href="#mecdfe4ef9f" x="360.8064" y="27.648" style="fill-opacity: 0; stroke: #6495ed; stroke-width: 1.5; stroke-linejoin: miter"/>
    </g>
   </g>
   <g id="line2d_49">
    <path style="fill: none; stroke: #6495ed; stroke-width: 1.5; stroke-linecap: square"/>
    <g/>
   </g>
   <g id="line2d_50">
    <path d="M 360.8064 27.648 
L 380.514816 293.51808 
" style="fill: none; stroke: #ff7500; stroke-width: 1.5; stroke-linecap: square"/>
    <g>
     <use xlink:href="#m09f56d99d8" x="360.8064" y="27.648" style="fill-opacity: 0; stroke: #ff7500; stroke-width: 1.5; stroke-linejoin: bevel"/>
     <use xlink:href="#m09f56d99d8" x="380.514816" y="293.51808" style="fill-opacity: 0; stroke: #ff7500; stroke-width: 1.5; stroke-linejoin: bevel"/>
    </g>
   </g>
   <g id="line2d_51">
    <path d="M 360.8064 27.648 
L 380.514816 228.40704 
" style="fill: none; stroke: #6495ed; stroke-width: 1.5; stroke-linecap: square"/>
    <g>
     <use xlink:href="#mecdfe4ef9f" x="360.8064" y="27.648" style="fill-opacity: 0; stroke: #6495ed; stroke-width: 1.5; stroke-linejoin: miter"/>
     <use xlink:href="#mecdfe4ef9f" x="380.514816" y="228.40704" style="fill-opacity: 0; stroke: #6495ed; stroke-width: 1.5; stroke-linejoin: miter"/>
    </g>
   </g>
   <g id="line2d_52">
    <path d="M 360.8064 27.648 
L 380.514816 163.296 
" style="fill: none; stroke: #ff00ff; stroke-width: 1.5; stroke-linecap: square"/>
    <g>
     <use xlink:href="#mcf12025bff" x="360.8064" y="27.648" style="fill-opacity: 0; stroke: #ff00ff; stroke-width: 1.5; stroke-linejoin: miter"/>
     <use xlink:href="#mcf12025bff" x="380.514816" y="163.296" style="fill-opacity: 0; stroke: #ff00ff; stroke-width: 1.5; stroke-linejoin: miter"/>
    </g>
   </g>
   <g id="line2d_53">
    <path d="M 360.8064 27.648 
L 380.514816 98.18496 
" style="fill: none; stroke: #000080; stroke-width: 1.5; stroke-linecap: square"/>
    <g>
     <use xlink:href="#m0794372d23" x="360.8064" y="27.648" style="fill-opacity: 0; stroke: #000080; stroke-width: 1.5"/>
     <use xlink:href="#m0794372d23" x="380.514816" y="98.18496" style="fill-opacity: 0; stroke: #000080; stroke-width: 1.5"/>
    </g>
   </g>
   <g id="line2d_54">
    <path d="M 360.8064 298.944 
L 360.8064 27.648 
" style="fill: none; stroke: #000000; stroke-width: 1.5; stroke-linecap: square"/>
   </g>
   <g id="patch_3">
    <path d="M 57.6 298.944 
L 360.8064 298.944 
" style="fill: none; stroke: #000000; stroke-width: 0.8; stroke-linejoin: miter; stroke-linecap: square"/>
   </g>
   <g id="patch_4">
    <path d="M 57.6 27.648 
L 360.8064 27.648 
" style="fill: none; stroke: #000000; stroke-width: 0.8; stroke-linejoin: miter; stroke-linecap: square"/>
   </g>
   <g id="text_13">
    <!-- cma0-no-s -->
    <g transform="translate(386.578944 297.381205)scale(0.14 -0.14)">
     <use xlink:href="#DejaVuSans-63"/>
     <use xlink:href="#DejaVuSans-6d" x="54.980469"/>
     <use xlink:href="#DejaVuSans-61" x="152.392578"/>
     <use xlink:href="#DejaVuSans-30" x="213.671875"/>
     <use xlink:href="#DejaVuSans-2d" x="277.294922"/>
     <use xlink:href="#DejaVuSans-6e" x="313.378906"/>
     <use xlink:href="#DejaVuSans-6f" x="376.757812"/>
     <use xlink:href="#DejaVuSans-2d" x="439.814453"/>
     <use xlink:href="#DejaVuSans-73" x="475.898438"/>
    </g>
   </g>
   <g id="text_14">
    <!-- CMA-ES-20 -->
    <g transform="translate(386.578944 232.270165)scale(0.14 -0.14)">
     <defs>
      <path id="DejaVuSans-43" d="M 4122 4306 
L 4122 3641 
Q 3803 3938 3442 4084 
Q 3081 4231 2675 4231 
Q 1875 4231 1450 3742 
Q 1025 3253 1025 2328 
Q 1025 1406 1450 917 
Q 1875 428 2675 428 
Q 3081 428 3442 575 
Q 3803 722 4122 1019 
L 4122 359 
Q 3791 134 3420 21 
Q 3050 -91 2638 -91 
Q 1578 -91 968 557 
Q 359 1206 359 2328 
Q 359 3453 968 4101 
Q 1578 4750 2638 4750 
Q 3056 4750 3426 4639 
Q 3797 4528 4122 4306 
z
" transform="scale(0.015625)"/>
      <path id="DejaVuSans-4d" d="M 628 4666 
L 1569 4666 
L 2759 1491 
L 3956 4666 
L 4897 4666 
L 4897 0 
L 4281 0 
L 4281 4097 
L 3078 897 
L 2444 897 
L 1241 4097 
L 1241 0 
L 628 0 
L 628 4666 
z
" transform="scale(0.015625)"/>
      <path id="DejaVuSans-41" d="M 2188 4044 
L 1331 1722 
L 3047 1722 
L 2188 4044 
z
M 1831 4666 
L 2547 4666 
L 4325 0 
L 3669 0 
L 3244 1197 
L 1141 1197 
L 716 0 
L 50 0 
L 1831 4666 
z
" transform="scale(0.015625)"/>
      <path id="DejaVuSans-45" d="M 628 4666 
L 3578 4666 
L 3578 4134 
L 1259 4134 
L 1259 2753 
L 3481 2753 
L 3481 2222 
L 1259 2222 
L 1259 531 
L 3634 531 
L 3634 0 
L 628 0 
L 628 4666 
z
" transform="scale(0.015625)"/>
      <path id="DejaVuSans-53" d="M 3425 4513 
L 3425 3897 
Q 3066 4069 2747 4153 
Q 2428 4238 2131 4238 
Q 1616 4238 1336 4038 
Q 1056 3838 1056 3469 
Q 1056 3159 1242 3001 
Q 1428 2844 1947 2747 
L 2328 2669 
Q 3034 2534 3370 2195 
Q 3706 1856 3706 1288 
Q 3706 609 3251 259 
Q 2797 -91 1919 -91 
Q 1588 -91 1214 -16 
Q 841 59 441 206 
L 441 856 
Q 825 641 1194 531 
Q 1563 422 1919 422 
Q 2459 422 2753 634 
Q 3047 847 3047 1241 
Q 3047 1584 2836 1778 
Q 2625 1972 2144 2069 
L 1759 2144 
Q 1053 2284 737 2584 
Q 422 2884 422 3419 
Q 422 4038 858 4394 
Q 1294 4750 2059 4750 
Q 2388 4750 2728 4690 
Q 3069 4631 3425 4513 
z
" transform="scale(0.015625)"/>
     </defs>
     <use xlink:href="#DejaVuSans-43"/>
     <use xlink:href="#DejaVuSans-4d" x="69.824219"/>
     <use xlink:href="#DejaVuSans-41" x="156.103516"/>
     <use xlink:href="#DejaVuSans-2d" x="222.261719"/>
     <use xlink:href="#DejaVuSans-45" x="258.345703"/>
     <use xlink:href="#DejaVuSans-53" x="321.529297"/>
     <use xlink:href="#DejaVuSans-2d" x="385.005859"/>
     <use xlink:href="#DejaVuSans-32" x="421.089844"/>
     <use xlink:href="#DejaVuSans-30" x="484.712891"/>
    </g>
   </g>
   <g id="text_15">
    <!-- ddcma0rep -->
    <g transform="translate(386.578944 167.159125)scale(0.14 -0.14)">
     <use xlink:href="#DejaVuSans-64"/>
     <use xlink:href="#DejaVuSans-64" x="63.476562"/>
     <use xlink:href="#DejaVuSans-63" x="126.953125"/>
     <use xlink:href="#DejaVuSans-6d" x="181.933594"/>
     <use xlink:href="#DejaVuSans-61" x="279.345703"/>
     <use xlink:href="#DejaVuSans-30" x="340.625"/>
     <use xlink:href="#DejaVuSans-72" x="404.248047"/>
     <use xlink:href="#DejaVuSans-65" x="443.111328"/>
     <use xlink:href="#DejaVuSans-70" x="504.634766"/>
    </g>
   </g>
   <g id="text_16">
    <!-- cma0rep -->
    <g transform="translate(386.578944 102.048085)scale(0.14 -0.14)">
     <use xlink:href="#DejaVuSans-63"/>
     <use xlink:href="#DejaVuSans-6d" x="54.980469"/>
     <use xlink:href="#DejaVuSans-61" x="152.392578"/>
     <use xlink:href="#DejaVuSans-30" x="213.671875"/>
     <use xlink:href="#DejaVuSans-72" x="277.294922"/>
     <use xlink:href="#DejaVuSans-65" x="316.158203"/>
     <use xlink:href="#DejaVuSans-70" x="377.681641"/>
    </g>
   </g>
   <g id="text_17">
    <!-- best 2009 -->
    <g transform="translate(386.578944 36.937045)scale(0.14 -0.14)">
     <defs>
      <path id="DejaVuSans-62" d="M 3116 1747 
Q 3116 2381 2855 2742 
Q 2594 3103 2138 3103 
Q 1681 3103 1420 2742 
Q 1159 2381 1159 1747 
Q 1159 1113 1420 752 
Q 1681 391 2138 391 
Q 2594 391 2855 752 
Q 3116 1113 3116 1747 
z
M 1159 2969 
Q 1341 3281 1617 3432 
Q 1894 3584 2278 3584 
Q 2916 3584 3314 3078 
Q 3713 2572 3713 1747 
Q 3713 922 3314 415 
Q 2916 -91 2278 -91 
Q 1894 -91 1617 61 
Q 1341 213 1159 525 
L 1159 0 
L 581 0 
L 581 4863 
L 1159 4863 
L 1159 2969 
z
" transform="scale(0.015625)"/>
      <path id="DejaVuSans-39" d="M 703 97 
L 703 672 
Q 941 559 1184 500 
Q 1428 441 1663 441 
Q 2288 441 2617 861 
Q 2947 1281 2994 2138 
Q 2813 1869 2534 1725 
Q 2256 1581 1919 1581 
Q 1219 1581 811 2004 
Q 403 2428 403 3163 
Q 403 3881 828 4315 
Q 1253 4750 1959 4750 
Q 2769 4750 3195 4129 
Q 3622 3509 3622 2328 
Q 3622 1225 3098 567 
Q 2575 -91 1691 -91 
Q 1453 -91 1209 -44 
Q 966 3 703 97 
z
M 1959 2075 
Q 2384 2075 2632 2365 
Q 2881 2656 2881 3163 
Q 2881 3666 2632 3958 
Q 2384 4250 1959 4250 
Q 1534 4250 1286 3958 
Q 1038 3666 1038 3163 
Q 1038 2656 1286 2365 
Q 1534 2075 1959 2075 
z
" transform="scale(0.015625)"/>
     </defs>
     <use xlink:href="#DejaVuSans-62"/>
     <use xlink:href="#DejaVuSans-65" x="63.476562"/>
     <use xlink:href="#DejaVuSans-73" x="125"/>
     <use xlink:href="#DejaVuSans-74" x="177.099609"/>
     <use xlink:href="#DejaVuSans-20" x="216.308594"/>
     <use xlink:href="#DejaVuSans-32" x="248.095703"/>
     <use xlink:href="#DejaVuSans-30" x="311.71875"/>
     <use xlink:href="#DejaVuSans-30" x="375.341797"/>
     <use xlink:href="#DejaVuSans-39" x="438.964844"/>
    </g>
   </g>
   <g id="text_18">
    <!-- bbob f8, 20-D -->
    <g transform="translate(60.632064 38.111366)scale(0.102 -0.102)">
     <defs>
      <path id="DejaVuSans-44" d="M 1259 4147 
L 1259 519 
L 2022 519 
Q 2988 519 3436 956 
Q 3884 1394 3884 2338 
Q 3884 3275 3436 3711 
Q 2988 4147 2022 4147 
L 1259 4147 
z
M 628 4666 
L 1925 4666 
Q 3281 4666 3915 4102 
Q 4550 3538 4550 2338 
Q 4550 1131 3912 565 
Q 3275 0 1925 0 
L 628 0 
L 628 4666 
z
" transform="scale(0.015625)"/>
     </defs>
     <use xlink:href="#DejaVuSans-62"/>
     <use xlink:href="#DejaVuSans-62" x="63.476562"/>
     <use xlink:href="#DejaVuSans-6f" x="126.953125"/>
     <use xlink:href="#DejaVuSans-62" x="188.134766"/>
     <use xlink:href="#DejaVuSans-20" x="251.611328"/>
     <use xlink:href="#DejaVuSans-66" x="283.398438"/>
     <use xlink:href="#DejaVuSans-38" x="318.603516"/>
     <use xlink:href="#DejaVuSans-2c" x="382.226562"/>
     <use xlink:href="#DejaVuSans-20" x="414.013672"/>
     <use xlink:href="#DejaVuSans-32" x="445.800781"/>
     <use xlink:href="#DejaVuSans-30" x="509.423828"/>
     <use xlink:href="#DejaVuSans-2d" x="573.046875"/>
     <use xlink:href="#DejaVuSans-44" x="609.130859"/>
    </g>
    <!-- 51 targets: 100..1e-08 -->
    <g transform="translate(60.632064 49.533135)scale(0.102 -0.102)">
     <defs>
      <path id="DejaVuSans-35" d="M 691 4666 
L 3169 4666 
L 3169 4134 
L 1269 4134 
L 1269 2991 
Q 1406 3038 1543 3061 
Q 1681 3084 1819 3084 
Q 2600 3084 3056 2656 
Q 3513 2228 3513 1497 
Q 3513 744 3044 326 
Q 2575 -91 1722 -91 
Q 1428 -91 1123 -41 
Q 819 9 494 109 
L 494 744 
Q 775 591 1075 516 
Q 1375 441 1709 441 
Q 2250 441 2565 725 
Q 2881 1009 2881 1497 
Q 2881 1984 2565 2268 
Q 2250 2553 1709 2553 
Q 1456 2553 1204 2497 
Q 953 2441 691 2322 
L 691 4666 
z
" transform="scale(0.015625)"/>
      <path id="DejaVuSans-3a" d="M 750 794 
L 1409 794 
L 1409 0 
L 750 0 
L 750 794 
z
M 750 3309 
L 1409 3309 
L 1409 2516 
L 750 2516 
L 750 3309 
z
" transform="scale(0.015625)"/>
     </defs>
     <use xlink:href="#DejaVuSans-35"/>
     <use xlink:href="#DejaVuSans-31" x="63.623047"/>
     <use xlink:href="#DejaVuSans-20" x="127.246094"/>
     <use xlink:href="#DejaVuSans-74" x="159.033203"/>
     <use xlink:href="#DejaVuSans-61" x="198.242188"/>
     <use xlink:href="#DejaVuSans-72" x="259.521484"/>
     <use xlink:href="#DejaVuSans-67" x="298.884766"/>
     <use xlink:href="#DejaVuSans-65" x="362.361328"/>
     <use xlink:href="#DejaVuSans-74" x="423.884766"/>
     <use xlink:href="#DejaVuSans-73" x="463.09375"/>
     <use xlink:href="#DejaVuSans-3a" x="515.193359"/>
     <use xlink:href="#DejaVuSans-20" x="548.884766"/>
     <use xlink:href="#DejaVuSans-31" x="580.671875"/>
     <use xlink:href="#DejaVuSans-30" x="644.294922"/>
     <use xlink:href="#DejaVuSans-30" x="707.917969"/>
     <use xlink:href="#DejaVuSans-2e" x="771.541016"/>
     <use xlink:href="#DejaVuSans-2e" x="803.328125"/>
     <use xlink:href="#DejaVuSans-31" x="835.115234"/>
     <use xlink:href="#DejaVuSans-65" x="898.738281"/>
     <use xlink:href="#DejaVuSans-2d" x="960.261719"/>
     <use xlink:href="#DejaVuSans-30" x="996.345703"/>
     <use xlink:href="#DejaVuSans-38" x="1059.96875"/>
    </g>
    <!-- 15 instances -->
    <g transform="translate(60.632064 60.954904)scale(0.102 -0.102)">
     <use xlink:href="#DejaVuSans-31"/>
     <use xlink:href="#DejaVuSans-35" x="63.623047"/>
     <use xlink:href="#DejaVuSans-20" x="127.246094"/>
     <use xlink:href="#DejaVuSans-69" x="159.033203"/>
     <use xlink:href="#DejaVuSans-6e" x="186.816406"/>
     <use xlink:href="#DejaVuSans-73" x="250.195312"/>
     <use xlink:href="#DejaVuSans-74" x="302.294922"/>
     <use xlink:href="#DejaVuSans-61" x="341.503906"/>
     <use xlink:href="#DejaVuSans-6e" x="402.783203"/>
     <use xlink:href="#DejaVuSans-63" x="466.162109"/>
     <use xlink:href="#DejaVuSans-65" x="521.142578"/>
     <use xlink:href="#DejaVuSans-73" x="582.666016"/>
    </g>
   </g>
   <g id="text_19">
    <!-- v2.6 -->
    <g style="fill: #808080" transform="translate(198.292262 294.151352)scale(0.1 -0.1)">
     <use xlink:href="#DejaVuSans-76"/>
     <use xlink:href="#DejaVuSans-32" x="59.179688"/>
     <use xlink:href="#DejaVuSans-2e" x="122.802734"/>
     <use xlink:href="#DejaVuSans-36" x="154.589844"/>
    </g>
   </g>
   <g id="text_20">
    <!-- 8 Rosenbrock original -->
    <g transform="translate(101.14695 21.648)scale(0.2 -0.2)">
     <defs>
      <path id="DejaVuSans-52" d="M 2841 2188 
Q 3044 2119 3236 1894 
Q 3428 1669 3622 1275 
L 4263 0 
L 3584 0 
L 2988 1197 
Q 2756 1666 2539 1819 
Q 2322 1972 1947 1972 
L 1259 1972 
L 1259 0 
L 628 0 
L 628 4666 
L 2053 4666 
Q 2853 4666 3247 4331 
Q 3641 3997 3641 3322 
Q 3641 2881 3436 2590 
Q 3231 2300 2841 2188 
z
M 1259 4147 
L 1259 2491 
L 2053 2491 
Q 2509 2491 2742 2702 
Q 2975 2913 2975 3322 
Q 2975 3731 2742 3939 
Q 2509 4147 2053 4147 
L 1259 4147 
z
" transform="scale(0.015625)"/>
      <path id="DejaVuSans-6b" d="M 581 4863 
L 1159 4863 
L 1159 1991 
L 2875 3500 
L 3609 3500 
L 1753 1863 
L 3688 0 
L 2938 0 
L 1159 1709 
L 1159 0 
L 581 0 
L 581 4863 
z
" transform="scale(0.015625)"/>
     </defs>
     <use xlink:href="#DejaVuSans-38"/>
     <use xlink:href="#DejaVuSans-20" x="63.623047"/>
     <use xlink:href="#DejaVuSans-52" x="95.410156"/>
     <use xlink:href="#DejaVuSans-6f" x="160.392578"/>
     <use xlink:href="#DejaVuSans-73" x="221.574219"/>
     <use xlink:href="#DejaVuSans-65" x="273.673828"/>
     <use xlink:href="#DejaVuSans-6e" x="335.197266"/>
     <use xlink:href="#DejaVuSans-62" x="398.576172"/>
     <use xlink:href="#DejaVuSans-72" x="462.052734"/>
     <use xlink:href="#DejaVuSans-6f" x="500.916016"/>
     <use xlink:href="#DejaVuSans-63" x="562.097656"/>
     <use xlink:href="#DejaVuSans-6b" x="617.078125"/>
     <use xlink:href="#DejaVuSans-20" x="674.988281"/>
     <use xlink:href="#DejaVuSans-6f" x="706.775391"/>
     <use xlink:href="#DejaVuSans-72" x="767.957031"/>
     <use xlink:href="#DejaVuSans-69" x="809.070312"/>
     <use xlink:href="#DejaVuSans-67" x="836.853516"/>
     <use xlink:href="#DejaVuSans-69" x="900.330078"/>
     <use xlink:href="#DejaVuSans-6e" x="928.113281"/>
     <use xlink:href="#DejaVuSans-61" x="991.492188"/>
     <use xlink:href="#DejaVuSans-6c" x="1052.771484"/>
    </g>
   </g>
  </g>
 </g>
 <defs>
  <clipPath id="p435503a7d8">
   <rect x="57.6" y="27.648" width="303.2064" height="271.296"/>
  </clipPath>
 </defs>
</svg>
